0, 0, Header, 1, 7, 192
1, 0, Start_track
1, 0, Title_t, """The Flight of the Bumblebee, Rimsky-Korsakoff/Rachmaninoff played by Sergei Rachmaninoff c""  "
1, 0, Text_t, "Roll expression/accent tracks, where present, converted to MIDI velocties.\012"
1, 0, Time_signature, 4, 2, 24, 8
1, 0, Key_signature, 0, "major"
1, 0, Tempo, 500000
1, 0, Marker_t, "Standard MIDI:LPI 137:Tempo  115: 08-09-2003"
1, 0, End_track
2, 0, Start_track
2, 0, Title_t, "Flight of the Bumble Bee"
2, 5, Control_c, 0, 64, 127
2, 236, Note_on_c, 0, 64, 46
2, 243, Note_on_c, 0, 88, 63
2, 251, Note_on_c, 0, 68, 63
2, 251, Note_on_c, 0, 71, 61
2, 251, Note_on_c, 0, 76, 61
2, 265, Note_on_c, 0, 87, 65
2, 269, Note_on_c, 0, 88, 0
2, 279, Note_on_c, 0, 86, 65
2, 288, Note_on_c, 0, 87, 0
2, 293, Note_on_c, 0, 85, 64
2, 303, Note_on_c, 0, 86, 0
2, 312, Control_c, 0, 64, 0
2, 318, Note_on_c, 0, 64, 0
2, 322, Note_on_c, 0, 86, 71
2, 326, Note_on_c, 0, 76, 0
2, 326, Note_on_c, 0, 85, 0
2, 327, Note_on_c, 0, 71, 0
2, 327, Note_on_c, 0, 68, 0
2, 353, Note_on_c, 0, 85, 59
2, 365, Note_on_c, 0, 86, 0
2, 369, Note_on_c, 0, 84, 61
2, 388, Note_on_c, 0, 85, 0
2, 401, Note_on_c, 0, 83, 65
2, 404, Note_on_c, 0, 84, 0
2, 425, Note_on_c, 0, 84, 69
2, 429, Note_on_c, 0, 83, 0
2, 450, Note_on_c, 0, 83, 61
2, 459, Note_on_c, 0, 84, 0
2, 470, Note_on_c, 0, 82, 64
2, 482, Note_on_c, 0, 83, 0
2, 505, Note_on_c, 0, 81, 61
2, 508, Note_on_c, 0, 82, 0
2, 537, Note_on_c, 0, 80, 65
2, 541, Note_on_c, 0, 81, 0
2, 562, Note_on_c, 0, 79, 66
2, 566, Note_on_c, 0, 80, 0
2, 588, Note_on_c, 0, 78, 66
2, 599, Note_on_c, 0, 79, 0
2, 609, Note_on_c, 0, 77, 72
2, 614, Note_on_c, 0, 78, 0
2, 627, Note_on_c, 0, 52, 51
2, 633, Note_on_c, 0, 68, 77
2, 633, Note_on_c, 0, 76, 84
2, 636, Note_on_c, 0, 77, 0
2, 641, Note_on_c, 0, 59, 41
2, 657, Note_on_c, 0, 75, 63
2, 658, Control_c, 0, 64, 127
2, 677, Note_on_c, 0, 74, 59
2, 681, Note_on_c, 0, 75, 0
2, 681, Note_on_c, 0, 76, 0
2, 709, Note_on_c, 0, 73, 67
2, 712, Note_on_c, 0, 74, 0
2, 731, Note_on_c, 0, 74, 43
2, 737, Control_c, 0, 64, 0
2, 743, Note_on_c, 0, 68, 0
2, 743, Note_on_c, 0, 73, 0
2, 751, Note_on_c, 0, 59, 0
2, 752, Note_on_c, 0, 52, 0
2, 763, Note_on_c, 0, 73, 62
2, 767, Note_on_c, 0, 74, 0
2, 789, Note_on_c, 0, 72, 60
2, 798, Note_on_c, 0, 73, 0
2, 809, Note_on_c, 0, 71, 70
2, 813, Note_on_c, 0, 72, 0
2, 834, Note_on_c, 0, 72, 62
2, 837, Note_on_c, 0, 71, 0
2, 859, Note_on_c, 0, 71, 61
2, 862, Note_on_c, 0, 72, 0
2, 890, Note_on_c, 0, 70, 60
2, 893, Note_on_c, 0, 71, 0
2, 914, Note_on_c, 0, 69, 63
2, 925, Note_on_c, 0, 70, 0
2, 937, Note_on_c, 0, 68, 68
2, 940, Note_on_c, 0, 69, 0
2, 968, Note_on_c, 0, 67, 61
2, 971, Note_on_c, 0, 68, 0
2, 1003, Note_on_c, 0, 67, 0
2, 1007, Note_on_c, 0, 66, 73
2, 1031, Note_on_c, 0, 65, 78
2, 1033, Note_on_c, 0, 66, 0
2, 1046, Note_on_c, 0, 47, 82
2, 1046, Note_on_c, 0, 56, 80
2, 1047, Note_on_c, 0, 40, 77
2, 1052, Note_on_c, 0, 64, 69
2, 1064, Note_on_c, 0, 65, 0
2, 1077, Note_on_c, 0, 63, 72
2, 1078, Note_on_c, 0, 64, 0
2, 1102, Note_on_c, 0, 63, 0
2, 1106, Note_on_c, 0, 62, 63
2, 1130, Note_on_c, 0, 61, 66
2, 1133, Note_on_c, 0, 62, 0
2, 1141, Note_on_c, 0, 47, 0
2, 1141, Note_on_c, 0, 40, 0
2, 1141, Note_on_c, 0, 56, 0
2, 1154, Note_on_c, 0, 62, 62
2, 1157, Note_on_c, 0, 61, 0
2, 1179, Note_on_c, 0, 62, 0
2, 1179, Note_on_c, 0, 61, 62
2, 1205, Note_on_c, 0, 61, 0
2, 1211, Control_c, 0, 64, 127
2, 1217, Note_on_c, 0, 60, 60
2, 1235, Note_on_c, 0, 60, 0
2, 1248, Note_on_c, 0, 59, 65
2, 1263, Note_on_c, 0, 64, 68
2, 1266, Note_on_c, 0, 59, 0
2, 1269, Control_c, 0, 64, 0
2, 1288, Note_on_c, 0, 63, 62
2, 1289, Note_on_c, 0, 64, 0
2, 1310, Note_on_c, 0, 62, 62
2, 1328, Note_on_c, 0, 63, 0
2, 1332, Note_on_c, 0, 61, 64
2, 1344, Note_on_c, 0, 62, 0
2, 1358, Control_c, 0, 64, 127
2, 1366, Note_on_c, 0, 62, 66
2, 1368, Note_on_c, 0, 61, 0
2, 1390, Note_on_c, 0, 61, 64
2, 1399, Note_on_c, 0, 62, 0
2, 1412, Note_on_c, 0, 60, 62
2, 1422, Note_on_c, 0, 61, 0
2, 1443, Note_on_c, 0, 59, 65
2, 1456, Note_on_c, 0, 60, 0
2, 1464, Control_c, 0, 64, 0
2, 1467, Control_c, 0, 67, 127
2, 1476, Note_on_c, 0, 64, 83
2, 1479, Note_on_c, 0, 59, 0
2, 1501, Note_on_c, 0, 63, 65
2, 1512, Note_on_c, 0, 64, 0
2, 1524, Note_on_c, 0, 62, 60
2, 1535, Note_on_c, 0, 63, 0
2, 1548, Note_on_c, 0, 61, 65
2, 1549, Note_on_c, 0, 62, 0
2, 1563, Control_c, 0, 64, 127
2, 1569, Note_on_c, 0, 62, 66
2, 1573, Note_on_c, 0, 61, 0
2, 1600, Note_on_c, 0, 61, 63
2, 1612, Note_on_c, 0, 62, 0
2, 1631, Note_on_c, 0, 60, 63
2, 1634, Note_on_c, 0, 61, 0
2, 1654, Note_on_c, 0, 59, 59
2, 1664, Note_on_c, 0, 60, 0
2, 1686, Control_c, 0, 64, 0
2, 1691, Note_on_c, 0, 64, 70
2, 1694, Note_on_c, 0, 59, 0
2, 1713, Note_on_c, 0, 63, 67
2, 1723, Note_on_c, 0, 64, 0
2, 1728, Note_on_c, 0, 62, 70
2, 1750, Note_on_c, 0, 61, 72
2, 1752, Note_on_c, 0, 63, 0
2, 1767, Note_on_c, 0, 62, 0
2, 1789, Note_on_c, 0, 61, 0
2, 1793, Note_on_c, 0, 62, 74
2, 1809, Note_on_c, 0, 61, 56
2, 1818, Note_on_c, 0, 62, 0
2, 1831, Note_on_c, 0, 60, 54
2, 1839, Control_c, 0, 64, 127
2, 1840, Note_on_c, 0, 61, 0
2, 1854, Note_on_c, 0, 59, 53
2, 1872, Note_on_c, 0, 60, 0
2, 1873, Control_c, 0, 64, 0
2, 1895, Note_on_c, 0, 59, 0
2, 1900, Note_on_c, 0, 64, 78
2, 1906, Note_on_c, 0, 45, 71
2, 1906, Note_on_c, 0, 60, 74
2, 1909, Note_on_c, 0, 52, 73
2, 1922, Note_on_c, 0, 63, 65
2, 1933, Note_on_c, 0, 64, 0
2, 1954, Note_on_c, 0, 62, 61
2, 1955, Note_on_c, 0, 63, 0
2, 1956, Note_on_c, 0, 52, 0
2, 1956, Note_on_c, 0, 45, 0
2, 1956, Note_on_c, 0, 60, 0
2, 1987, Note_on_c, 0, 61, 61
2, 1988, Note_on_c, 0, 62, 0
2, 2012, Note_on_c, 0, 61, 0
2, 2016, Note_on_c, 0, 60, 72
2, 2040, Note_on_c, 0, 65, 62
2, 2043, Note_on_c, 0, 60, 0
2, 2064, Note_on_c, 0, 64, 61
2, 2084, Note_on_c, 0, 65, 0
2, 2097, Note_on_c, 0, 63, 62
2, 2100, Note_on_c, 0, 64, 0
2, 2123, Note_on_c, 0, 64, 71
2, 2126, Note_on_c, 0, 63, 0
2, 2131, Note_on_c, 0, 45, 71
2, 2131, Note_on_c, 0, 52, 72
2, 2131, Note_on_c, 0, 60, 67
2, 2153, Note_on_c, 0, 63, 69
2, 2158, Note_on_c, 0, 64, 0
2, 2177, Note_on_c, 0, 62, 64
2, 2180, Note_on_c, 0, 60, 0
2, 2180, Note_on_c, 0, 63, 0
2, 2180, Note_on_c, 0, 45, 0
2, 2188, Note_on_c, 0, 52, 0
2, 2209, Note_on_c, 0, 61, 63
2, 2210, Note_on_c, 0, 62, 0
2, 2241, Note_on_c, 0, 60, 66
2, 2242, Note_on_c, 0, 61, 0
2, 2247, Note_on_c, 0, 42, 60
2, 2247, Note_on_c, 0, 50, 66
2, 2247, Note_on_c, 0, 57, 60
2, 2273, Note_on_c, 0, 61, 59
2, 2274, Note_on_c, 0, 60, 0
2, 2290, Note_on_c, 0, 57, 0
2, 2290, Note_on_c, 0, 42, 0
2, 2290, Note_on_c, 0, 50, 0
2, 2303, Note_on_c, 0, 62, 68
2, 2306, Note_on_c, 0, 61, 0
2, 2329, Note_on_c, 0, 62, 0
2, 2333, Note_on_c, 0, 63, 70
2, 2360, Note_on_c, 0, 63, 0
2, 2365, Note_on_c, 0, 64, 78
2, 2374, Note_on_c, 0, 45, 73
2, 2374, Note_on_c, 0, 52, 74
2, 2374, Note_on_c, 0, 60, 74
2, 2395, Note_on_c, 0, 63, 64
2, 2399, Note_on_c, 0, 64, 0
2, 2415, Note_on_c, 0, 45, 0
2, 2415, Note_on_c, 0, 52, 0
2, 2419, Note_on_c, 0, 62, 65
2, 2423, Note_on_c, 0, 60, 0
2, 2423, Note_on_c, 0, 63, 0
2, 2451, Note_on_c, 0, 61, 63
2, 2454, Note_on_c, 0, 62, 0
2, 2486, Note_on_c, 0, 61, 0
2, 2491, Note_on_c, 0, 60, 68
2, 2504, Note_on_c, 0, 65, 64
2, 2522, Note_on_c, 0, 60, 0
2, 2535, Note_on_c, 0, 64, 61
2, 2553, Note_on_c, 0, 65, 0
2, 2558, Note_on_c, 0, 63, 61
2, 2562, Note_on_c, 0, 64, 0
2, 2583, Note_on_c, 0, 64, 63
2, 2592, Note_on_c, 0, 63, 0
2, 2606, Note_on_c, 0, 45, 63
2, 2606, Note_on_c, 0, 52, 61
2, 2606, Note_on_c, 0, 60, 66
2, 2615, Note_on_c, 0, 63, 62
2, 2616, Note_on_c, 0, 64, 0
2, 2633, Note_on_c, 0, 45, 0
2, 2637, Note_on_c, 0, 62, 64
2, 2640, Note_on_c, 0, 60, 0
2, 2640, Note_on_c, 0, 63, 0
2, 2640, Note_on_c, 0, 52, 0
2, 2668, Note_on_c, 0, 61, 65
2, 2672, Note_on_c, 0, 62, 0
2, 2703, Note_on_c, 0, 61, 0
2, 2708, Note_on_c, 0, 60, 59
2, 2722, Note_on_c, 0, 50, 59
2, 2722, Note_on_c, 0, 61, 65
2, 2723, Note_on_c, 0, 42, 62
2, 2724, Note_on_c, 0, 57, 62
2, 2733, Note_on_c, 0, 60, 0
2, 2749, Note_on_c, 0, 57, 0
2, 2750, Note_on_c, 0, 50, 0
2, 2750, Note_on_c, 0, 42, 0
2, 2758, Note_on_c, 0, 61, 0
2, 2770, Note_on_c, 0, 62, 63
2, 2794, Note_on_c, 0, 63, 63
2, 2804, Note_on_c, 0, 62, 0
2, 2825, Note_on_c, 0, 64, 62
2, 2828, Note_on_c, 0, 63, 0
2, 2832, Note_on_c, 0, 52, 65
2, 2832, Note_on_c, 0, 60, 62
2, 2833, Note_on_c, 0, 45, 66
2, 2848, Note_on_c, 0, 63, 64
2, 2857, Note_on_c, 0, 60, 0
2, 2857, Note_on_c, 0, 64, 0
2, 2875, Note_on_c, 0, 52, 0
2, 2875, Note_on_c, 0, 45, 0
2, 2878, Note_on_c, 0, 62, 62
2, 2881, Note_on_c, 0, 63, 0
2, 2903, Note_on_c, 0, 61, 61
2, 2913, Note_on_c, 0, 62, 0
2, 2935, Note_on_c, 0, 61, 0
2, 2940, Note_on_c, 0, 62, 64
2, 2948, Note_on_c, 0, 50, 62
2, 2948, Note_on_c, 0, 57, 64
2, 2949, Note_on_c, 0, 41, 61
2, 2963, Note_on_c, 0, 61, 67
2, 2973, Note_on_c, 0, 57, 0
2, 2973, Note_on_c, 0, 62, 0
2, 2982, Note_on_c, 0, 50, 0
2, 2982, Note_on_c, 0, 41, 0
2, 2988, Note_on_c, 0, 61, 0
2, 2993, Note_on_c, 0, 60, 59
2, 2996, Control_c, 0, 67, 0
2, 3019, Note_on_c, 0, 60, 0
2, 3024, Note_on_c, 0, 59, 59
2, 3047, Note_on_c, 0, 60, 62
2, 3056, Note_on_c, 0, 40, 66
2, 3056, Note_on_c, 0, 48, 63
2, 3057, Note_on_c, 0, 59, 0
2, 3071, Note_on_c, 0, 61, 66
2, 3079, Note_on_c, 0, 60, 0
2, 3089, Note_on_c, 0, 40, 0
2, 3096, Note_on_c, 0, 48, 0
2, 3101, Note_on_c, 0, 62, 61
2, 3102, Note_on_c, 0, 61, 0
2, 3124, Note_on_c, 0, 63, 60
2, 3135, Note_on_c, 0, 62, 0
2, 3161, Note_on_c, 0, 64, 78
2, 3165, Note_on_c, 0, 63, 0
2, 3169, Note_on_c, 0, 50, 78
2, 3169, Note_on_c, 0, 52, 76
2, 3178, Note_on_c, 0, 56, 62
2, 3178, Note_on_c, 0, 59, 64
2, 3187, Note_on_c, 0, 64, 0
2, 3192, Note_on_c, 0, 65, 65
2, 3206, Note_on_c, 0, 64, 64
2, 3216, Note_on_c, 0, 56, 0
2, 3223, Note_on_c, 0, 59, 0
2, 3224, Note_on_c, 0, 50, 0
2, 3224, Note_on_c, 0, 52, 0
2, 3232, Note_on_c, 0, 65, 0
2, 3236, Note_on_c, 0, 63, 59
2, 3240, Note_on_c, 0, 64, 0
2, 3259, Note_on_c, 0, 64, 65
2, 3263, Note_on_c, 0, 63, 0
2, 3267, Note_on_c, 0, 48, 61
2, 3267, Note_on_c, 0, 52, 66
2, 3267, Note_on_c, 0, 57, 65
2, 3289, Note_on_c, 0, 63, 46
2, 3290, Note_on_c, 0, 64, 0
2, 3307, Note_on_c, 0, 57, 0
2, 3307, Note_on_c, 0, 52, 0
2, 3312, Note_on_c, 0, 62, 53
2, 3315, Note_on_c, 0, 48, 0
2, 3321, Note_on_c, 0, 63, 0
2, 3334, Note_on_c, 0, 61, 58
2, 3343, Note_on_c, 0, 62, 0
2, 3362, Note_on_c, 0, 62, 53
2, 3371, Note_on_c, 0, 41, 54
2, 3371, Note_on_c, 0, 50, 54
2, 3371, Note_on_c, 0, 57, 57
2, 3374, Note_on_c, 0, 61, 0
2, 3396, Note_on_c, 0, 61, 59
2, 3406, Note_on_c, 0, 62, 0
2, 3422, Note_on_c, 0, 57, 0
2, 3422, Note_on_c, 0, 50, 0
2, 3422, Note_on_c, 0, 41, 0
2, 3427, Note_on_c, 0, 60, 60
2, 3430, Note_on_c, 0, 61, 0
2, 3453, Note_on_c, 0, 59, 61
2, 3461, Note_on_c, 0, 60, 0
2, 3482, Note_on_c, 0, 60, 59
2, 3493, Note_on_c, 0, 40, 54
2, 3493, Note_on_c, 0, 48, 56
2, 3502, Note_on_c, 0, 59, 0
2, 3507, Note_on_c, 0, 61, 60
2, 3525, Note_on_c, 0, 60, 0
2, 3537, Note_on_c, 0, 62, 55
2, 3542, Note_on_c, 0, 40, 0
2, 3550, Note_on_c, 0, 61, 0
2, 3551, Note_on_c, 0, 48, 0
2, 3561, Note_on_c, 0, 63, 60
2, 3580, Note_on_c, 0, 62, 0
2, 3585, Note_on_c, 0, 64, 55
2, 3593, Note_on_c, 0, 38, 60
2, 3593, Note_on_c, 0, 44, 56
2, 3593, Note_on_c, 0, 52, 56
2, 3603, Note_on_c, 0, 63, 0
2, 3616, Note_on_c, 0, 66, 55
2, 3635, Note_on_c, 0, 64, 0
2, 3648, Note_on_c, 0, 67, 58
2, 3652, Note_on_c, 0, 44, 0
2, 3652, Note_on_c, 0, 38, 0
2, 3660, Note_on_c, 0, 52, 0
2, 3660, Note_on_c, 0, 66, 0
2, 3673, Note_on_c, 0, 68, 60
2, 3691, Note_on_c, 0, 67, 0
2, 3696, Note_on_c, 0, 69, 57
2, 3699, Note_on_c, 0, 68, 0
2, 3713, Note_on_c, 0, 45, 64
2, 3713, Note_on_c, 0, 52, 63
2, 3721, Control_c, 0, 64, 127
2, 3721, Note_on_c, 0, 37, 66
2, 3721, Note_on_c, 0, 68, 57
2, 3731, Note_on_c, 0, 69, 0
2, 3758, Note_on_c, 0, 67, 61
2, 3768, Note_on_c, 0, 68, 0
2, 3785, Note_on_c, 0, 67, 0
2, 3790, Note_on_c, 0, 66, 66
2, 3794, Note_on_c, 0, 45, 0
2, 3809, Note_on_c, 0, 52, 0
2, 3810, Note_on_c, 0, 37, 0
2, 3820, Note_on_c, 0, 65, 70
2, 3823, Note_on_c, 0, 66, 0
2, 3823, Control_c, 0, 64, 0
2, 3828, Note_on_c, 0, 45, 54
2, 3829, Note_on_c, 0, 38, 51
2, 3829, Note_on_c, 0, 53, 48
2, 3852, Note_on_c, 0, 70, 47
2, 3862, Note_on_c, 0, 53, 0
2, 3863, Note_on_c, 0, 38, 0
2, 3863, Note_on_c, 0, 45, 0
2, 3873, Note_on_c, 0, 69, 60
2, 3883, Note_on_c, 0, 70, 0
2, 3905, Note_on_c, 0, 68, 62
2, 3908, Note_on_c, 0, 69, 0
2, 3931, Note_on_c, 0, 68, 0
2, 3931, Note_on_c, 0, 65, 0
2, 3936, Note_on_c, 0, 69, 60
2, 3961, Note_on_c, 0, 69, 0
2, 3966, Note_on_c, 0, 68, 66
2, 3984, Note_on_c, 0, 67, 59
2, 4003, Note_on_c, 0, 68, 0
2, 4013, Note_on_c, 0, 66, 66
2, 4017, Note_on_c, 0, 67, 0
2, 4044, Note_on_c, 0, 65, 72
2, 4048, Note_on_c, 0, 66, 0
2, 4053, Note_on_c, 0, 50, 62
2, 4060, Note_on_c, 0, 55, 62
2, 4060, Note_on_c, 0, 59, 65
2, 4074, Note_on_c, 0, 66, 65
2, 4078, Note_on_c, 0, 50, 0
2, 4083, Note_on_c, 0, 59, 0
2, 4084, Note_on_c, 0, 65, 0
2, 4093, Note_on_c, 0, 55, 0
2, 4098, Note_on_c, 0, 67, 60
2, 4101, Note_on_c, 0, 66, 0
2, 4129, Note_on_c, 0, 68, 59
2, 4130, Note_on_c, 0, 67, 0
2, 4159, Note_on_c, 0, 69, 64
2, 4163, Note_on_c, 0, 68, 0
2, 4168, Note_on_c, 0, 57, 66
2, 4168, Note_on_c, 0, 62, 72
2, 4176, Note_on_c, 0, 53, 68
2, 4192, Note_on_c, 0, 68, 65
2, 4211, Note_on_c, 0, 57, 0
2, 4217, Note_on_c, 0, 53, 0
2, 4217, Note_on_c, 0, 62, 0
2, 4222, Note_on_c, 0, 67, 72
2, 4225, Note_on_c, 0, 68, 0
2, 4233, Note_on_c, 0, 69, 0
2, 4252, Note_on_c, 0, 66, 65
2, 4256, Note_on_c, 0, 67, 0
2, 4288, Note_on_c, 0, 66, 0
2, 4293, Note_on_c, 0, 65, 68
2, 4309, Note_on_c, 0, 70, 60
2, 4332, Note_on_c, 0, 69, 66
2, 4336, Note_on_c, 0, 65, 0
2, 4344, Note_on_c, 0, 70, 0
2, 4366, Note_on_c, 0, 68, 64
2, 4367, Note_on_c, 0, 69, 0
2, 4394, Note_on_c, 0, 69, 61
2, 4399, Note_on_c, 0, 68, 0
2, 4403, Note_on_c, 0, 50, 65
2, 4403, Note_on_c, 0, 57, 65
2, 4404, Note_on_c, 0, 41, 65
2, 4417, Note_on_c, 0, 68, 61
2, 4420, Note_on_c, 0, 69, 0
2, 4435, Note_on_c, 0, 41, 0
2, 4435, Note_on_c, 0, 50, 0
2, 4435, Note_on_c, 0, 57, 0
2, 4448, Note_on_c, 0, 67, 60
2, 4452, Note_on_c, 0, 68, 0
2, 4479, Note_on_c, 0, 66, 61
2, 4482, Note_on_c, 0, 67, 0
2, 4506, Note_on_c, 0, 66, 0
2, 4510, Note_on_c, 0, 50, 51
2, 4510, Note_on_c, 0, 55, 50
2, 4510, Note_on_c, 0, 59, 51
2, 4510, Note_on_c, 0, 65, 59
2, 4532, Note_on_c, 0, 66, 63
2, 4542, Note_on_c, 0, 65, 0
2, 4550, Note_on_c, 0, 59, 0
2, 4551, Note_on_c, 0, 50, 0
2, 4555, Note_on_c, 0, 67, 66
2, 4559, Note_on_c, 0, 55, 0
2, 4566, Note_on_c, 0, 66, 0
2, 4587, Note_on_c, 0, 68, 65
2, 4590, Note_on_c, 0, 67, 0
2, 4608, Note_on_c, 0, 69, 67
2, 4617, Note_on_c, 0, 53, 66
2, 4617, Note_on_c, 0, 62, 70
2, 4618, Note_on_c, 0, 57, 65
2, 4619, Note_on_c, 0, 68, 0
2, 4638, Note_on_c, 0, 68, 64
2, 4641, Note_on_c, 0, 69, 0
2, 4641, Note_on_c, 0, 57, 0
2, 4641, Note_on_c, 0, 53, 0
2, 4650, Note_on_c, 0, 62, 0
2, 4662, Note_on_c, 0, 67, 63
2, 4672, Note_on_c, 0, 68, 0
2, 4693, Note_on_c, 0, 66, 61
2, 4696, Note_on_c, 0, 67, 0
2, 4717, Note_on_c, 0, 67, 61
2, 4728, Note_on_c, 0, 66, 0
2, 4733, Note_on_c, 0, 62, 62
2, 4738, Note_on_c, 0, 55, 65
2, 4741, Note_on_c, 0, 58, 62
2, 4747, Note_on_c, 0, 66, 64
2, 4757, Note_on_c, 0, 67, 0
2, 4772, Note_on_c, 0, 58, 0
2, 4772, Note_on_c, 0, 62, 0
2, 4776, Note_on_c, 0, 66, 0
2, 4776, Note_on_c, 0, 65, 58
2, 4777, Note_on_c, 0, 55, 0
2, 4797, Note_on_c, 0, 64, 51
2, 4816, Note_on_c, 0, 65, 0
2, 4835, Note_on_c, 0, 53, 50
2, 4835, Note_on_c, 0, 57, 54
2, 4835, Note_on_c, 0, 62, 49
2, 4835, Note_on_c, 0, 65, 76
2, 4838, Note_on_c, 0, 64, 0
2, 4857, Note_on_c, 0, 66, 61
2, 4875, Note_on_c, 0, 53, 0
2, 4876, Note_on_c, 0, 65, 0
2, 4876, Note_on_c, 0, 57, 0
2, 4882, Note_on_c, 0, 62, 0
2, 4888, Note_on_c, 0, 67, 71
2, 4892, Note_on_c, 0, 66, 0
2, 4911, Note_on_c, 0, 68, 70
2, 4921, Note_on_c, 0, 67, 0
2, 4935, Note_on_c, 0, 69, 70
2, 4944, Note_on_c, 0, 68, 0
2, 4949, Note_on_c, 0, 52, 66
2, 4949, Note_on_c, 0, 55, 60
2, 4949, Note_on_c, 0, 61, 64
2, 4966, Note_on_c, 0, 70, 69
2, 4970, Note_on_c, 0, 69, 0
2, 4985, Note_on_c, 0, 61, 0
2, 4985, Note_on_c, 0, 52, 0
2, 4989, Note_on_c, 0, 69, 63
2, 4992, Note_on_c, 0, 55, 0
2, 5007, Note_on_c, 0, 70, 0
2, 5015, Note_on_c, 0, 69, 0
2, 5019, Note_on_c, 0, 68, 45
2, 5051, Note_on_c, 0, 69, 69
2, 5055, Note_on_c, 0, 68, 0
2, 5060, Note_on_c, 0, 50, 59
2, 5060, Note_on_c, 0, 53, 60
2, 5060, Note_on_c, 0, 57, 61
2, 5074, Note_on_c, 0, 68, 59
2, 5078, Note_on_c, 0, 69, 0
2, 5099, Note_on_c, 0, 67, 62
2, 5103, Note_on_c, 0, 68, 0
2, 5117, Note_on_c, 0, 53, 0
2, 5118, Note_on_c, 0, 50, 0
2, 5118, Note_on_c, 0, 57, 0
2, 5123, Note_on_c, 0, 66, 62
2, 5126, Note_on_c, 0, 67, 0
2, 5149, Note_on_c, 0, 66, 0
2, 5154, Note_on_c, 0, 67, 63
2, 5163, Note_on_c, 0, 46, 51
2, 5163, Note_on_c, 0, 50, 51
2, 5163, Note_on_c, 0, 55, 49
2, 5185, Note_on_c, 0, 66, 66
2, 5189, Note_on_c, 0, 67, 0
2, 5208, Note_on_c, 0, 65, 57
2, 5212, Note_on_c, 0, 46, 0
2, 5212, Note_on_c, 0, 66, 0
2, 5212, Note_on_c, 0, 50, 0
2, 5220, Note_on_c, 0, 55, 0
2, 5238, Note_on_c, 0, 64, 54
2, 5242, Note_on_c, 0, 65, 0
2, 5271, Note_on_c, 0, 45, 60
2, 5271, Note_on_c, 0, 50, 55
2, 5271, Note_on_c, 0, 53, 58
2, 5271, Note_on_c, 0, 65, 59
2, 5281, Note_on_c, 0, 64, 0
2, 5301, Note_on_c, 0, 66, 60
2, 5304, Note_on_c, 0, 53, 0
2, 5304, Note_on_c, 0, 65, 0
2, 5312, Note_on_c, 0, 45, 0
2, 5312, Note_on_c, 0, 50, 0
2, 5325, Note_on_c, 0, 67, 61
2, 5328, Note_on_c, 0, 66, 0
2, 5348, Note_on_c, 0, 68, 54
2, 5358, Note_on_c, 0, 67, 0
2, 5369, Note_on_c, 0, 69, 62
2, 5370, Note_on_c, 0, 43, 49
2, 5370, Note_on_c, 0, 49, 56
2, 5370, Note_on_c, 0, 52, 49
2, 5374, Note_on_c, 0, 68, 0
2, 5393, Note_on_c, 0, 70, 59
2, 5396, Note_on_c, 0, 69, 0
2, 5419, Note_on_c, 0, 52, 0
2, 5419, Note_on_c, 0, 49, 0
2, 5419, Note_on_c, 0, 43, 0
2, 5424, Note_on_c, 0, 69, 57
2, 5443, Note_on_c, 0, 70, 0
2, 5453, Note_on_c, 0, 68, 60
2, 5456, Note_on_c, 0, 69, 0
2, 5477, Note_on_c, 0, 41, 59
2, 5477, Note_on_c, 0, 50, 58
2, 5477, Note_on_c, 0, 57, 56
2, 5485, Note_on_c, 0, 69, 65
2, 5497, Note_on_c, 0, 68, 0
2, 5502, Control_c, 0, 64, 127
2, 5505, Note_on_c, 0, 57, 0
2, 5524, Note_on_c, 0, 57, 71
2, 5550, Note_on_c, 0, 57, 0
2, 5569, Note_on_c, 0, 56, 66
2, 5592, Note_on_c, 0, 57, 63
2, 5595, Note_on_c, 0, 56, 0
2, 5596, Note_on_c, 0, 69, 0
2, 5596, Note_on_c, 0, 50, 0
2, 5605, Note_on_c, 0, 41, 0
2, 5617, Note_on_c, 0, 56, 66
2, 5621, Note_on_c, 0, 57, 0
2, 5640, Note_on_c, 0, 57, 65
2, 5641, Note_on_c, 0, 56, 0
2, 5664, Note_on_c, 0, 56, 66
2, 5668, Note_on_c, 0, 57, 0
2, 5687, Note_on_c, 0, 57, 60
2, 5697, Note_on_c, 0, 56, 0
2, 5716, Note_on_c, 0, 56, 79
2, 5717, Note_on_c, 0, 58, 85
2, 5720, Note_on_c, 0, 57, 0
2, 5741, Note_on_c, 0, 57, 62
2, 5745, Note_on_c, 0, 58, 0
2, 5745, Note_on_c, 0, 56, 0
2, 5753, Control_c, 0, 64, 0
2, 5765, Note_on_c, 0, 56, 54
2, 5765, Note_on_c, 0, 58, 54
2, 5768, Note_on_c, 0, 57, 0
2, 5791, Note_on_c, 0, 58, 0
2, 5791, Note_on_c, 0, 56, 0
2, 5795, Note_on_c, 0, 57, 55
2, 5796, Note_on_c, 0, 70, 49
2, 5818, Note_on_c, 0, 56, 44
2, 5819, Note_on_c, 0, 58, 46
2, 5823, Note_on_c, 0, 70, 0
2, 5823, Note_on_c, 0, 57, 0
2, 5835, Control_c, 0, 64, 127
2, 5843, Note_on_c, 0, 57, 47
2, 5843, Note_on_c, 0, 70, 48
2, 5847, Note_on_c, 0, 56, 0
2, 5847, Note_on_c, 0, 58, 0
2, 5868, Note_on_c, 0, 56, 48
2, 5868, Note_on_c, 0, 58, 49
2, 5872, Note_on_c, 0, 57, 0
2, 5877, Note_on_c, 0, 70, 0
2, 5899, Note_on_c, 0, 57, 56
2, 5899, Note_on_c, 0, 70, 46
2, 5917, Note_on_c, 0, 57, 0
2, 5917, Control_c, 0, 64, 0
2, 5931, Note_on_c, 0, 58, 0
2, 5931, Note_on_c, 0, 56, 0
2, 5931, Note_on_c, 0, 70, 0
2, 5936, Note_on_c, 0, 57, 59
2, 5936, Note_on_c, 0, 69, 66
2, 5954, Note_on_c, 0, 69, 0
2, 5955, Note_on_c, 0, 57, 0
2, 5976, Note_on_c, 0, 69, 68
2, 6000, Control_c, 0, 64, 127
2, 6000, Note_on_c, 0, 68, 63
2, 6002, Note_on_c, 0, 69, 0
2, 6022, Note_on_c, 0, 69, 64
2, 6024, Note_on_c, 0, 68, 0
2, 6046, Note_on_c, 0, 68, 64
2, 6048, Note_on_c, 0, 69, 0
2, 6070, Note_on_c, 0, 69, 67
2, 6072, Note_on_c, 0, 68, 0
2, 6089, Note_on_c, 0, 69, 0
2, 6094, Note_on_c, 0, 68, 66
2, 6108, Note_on_c, 0, 69, 63
2, 6119, Note_on_c, 0, 68, 0
2, 6132, Note_on_c, 0, 69, 0
2, 6136, Note_on_c, 0, 70, 87
2, 6137, Note_on_c, 0, 68, 82
2, 6147, Control_c, 0, 64, 0
2, 6164, Note_on_c, 0, 68, 0
2, 6168, Note_on_c, 0, 70, 0
2, 6168, Note_on_c, 0, 69, 63
2, 6192, Note_on_c, 0, 69, 0
2, 6197, Note_on_c, 0, 68, 72
2, 6197, Note_on_c, 0, 70, 67
2, 6219, Note_on_c, 0, 82, 62
2, 6220, Note_on_c, 0, 69, 60
2, 6223, Note_on_c, 0, 70, 0
2, 6223, Note_on_c, 0, 68, 0
2, 6229, Control_c, 0, 64, 127
2, 6248, Note_on_c, 0, 68, 63
2, 6248, Note_on_c, 0, 70, 59
2, 6252, Note_on_c, 0, 82, 0
2, 6252, Note_on_c, 0, 69, 0
2, 6270, Note_on_c, 0, 82, 61
2, 6273, Note_on_c, 0, 69, 65
2, 6282, Note_on_c, 0, 70, 0
2, 6283, Note_on_c, 0, 68, 0
2, 6302, Note_on_c, 0, 68, 65
2, 6302, Note_on_c, 0, 70, 63
2, 6305, Note_on_c, 0, 82, 0
2, 6313, Note_on_c, 0, 69, 0
2, 6335, Note_on_c, 0, 69, 72
2, 6335, Note_on_c, 0, 82, 67
2, 6345, Note_on_c, 0, 68, 0
2, 6345, Note_on_c, 0, 70, 0
2, 6353, Note_on_c, 0, 69, 0
2, 6353, Control_c, 0, 64, 0
2, 6374, Note_on_c, 0, 69, 70
2, 6391, Note_on_c, 0, 82, 0
2, 6400, Note_on_c, 0, 69, 0
2, 6405, Note_on_c, 0, 70, 61
2, 6419, Note_on_c, 0, 69, 63
2, 6443, Note_on_c, 0, 68, 63
2, 6446, Note_on_c, 0, 70, 0
2, 6447, Note_on_c, 0, 69, 0
2, 6460, Control_c, 0, 64, 127
2, 6482, Note_on_c, 0, 69, 74
2, 6486, Note_on_c, 0, 68, 0
2, 6499, Note_on_c, 0, 70, 66
2, 6502, Note_on_c, 0, 69, 0
2, 6521, Note_on_c, 0, 69, 63
2, 6533, Note_on_c, 0, 70, 0
2, 6544, Note_on_c, 0, 68, 41
2, 6563, Note_on_c, 0, 69, 0
2, 6579, Note_on_c, 0, 68, 0
2, 6583, Note_on_c, 0, 69, 52
2, 6588, Control_c, 0, 64, 0
2, 6592, Note_on_c, 0, 57, 78
2, 6601, Note_on_c, 0, 69, 0
2, 6606, Note_on_c, 0, 70, 50
2, 6619, Note_on_c, 0, 57, 0
2, 6629, Note_on_c, 0, 69, 51
2, 6632, Note_on_c, 0, 70, 0
2, 6646, Note_on_c, 0, 56, 80
2, 6646, Note_on_c, 0, 58, 80
2, 6656, Note_on_c, 0, 69, 0
2, 6661, Note_on_c, 0, 68, 52
2, 6672, Note_on_c, 0, 58, 0
2, 6672, Note_on_c, 0, 56, 0
2, 6680, Note_on_c, 0, 68, 0
2, 6684, Note_on_c, 0, 69, 47
2, 6685, Note_on_c, 0, 55, 68
2, 6685, Note_on_c, 0, 59, 70
2, 6702, Note_on_c, 0, 69, 0
2, 6707, Note_on_c, 0, 70, 53
2, 6716, Control_c, 0, 64, 127
2, 6738, Note_on_c, 0, 54, 42
2, 6738, Note_on_c, 0, 60, 44
2, 6738, Note_on_c, 0, 69, 53
2, 6741, Note_on_c, 0, 70, 0
2, 6763, Note_on_c, 0, 68, 50
2, 6766, Note_on_c, 0, 59, 0
2, 6766, Note_on_c, 0, 69, 0
2, 6773, Note_on_c, 0, 55, 0
2, 6783, Control_c, 0, 64, 0
2, 6788, Note_on_c, 0, 68, 0
2, 6793, Note_on_c, 0, 53, 45
2, 6793, Note_on_c, 0, 61, 45
2, 6793, Note_on_c, 0, 69, 64
2, 6806, Note_on_c, 0, 60, 0
2, 6814, Note_on_c, 0, 54, 0
2, 6818, Note_on_c, 0, 70, 61
2, 6818, Note_on_c, 0, 57, 41
2, 6828, Note_on_c, 0, 69, 0
2, 6829, Note_on_c, 0, 61, 0
2, 6847, Note_on_c, 0, 71, 62
2, 6848, Note_on_c, 0, 61, 53
2, 6851, Note_on_c, 0, 70, 0
2, 6860, Note_on_c, 0, 57, 0
2, 6879, Note_on_c, 0, 57, 50
2, 6879, Note_on_c, 0, 72, 67
2, 6883, Note_on_c, 0, 71, 0
2, 6883, Note_on_c, 0, 61, 0
2, 6902, Note_on_c, 0, 73, 70
2, 6903, Note_on_c, 0, 61, 61
2, 6912, Note_on_c, 0, 57, 0
2, 6912, Note_on_c, 0, 72, 0
2, 6932, Control_c, 0, 64, 127
2, 6932, Note_on_c, 0, 57, 51
2, 6932, Note_on_c, 0, 72, 59
2, 6942, Note_on_c, 0, 61, 0
2, 6963, Note_on_c, 0, 61, 48
2, 6963, Note_on_c, 0, 71, 60
2, 6967, Note_on_c, 0, 57, 0
2, 6984, Note_on_c, 0, 72, 0
2, 6987, Note_on_c, 0, 70, 61
2, 6988, Note_on_c, 0, 57, 53
2, 6991, Note_on_c, 0, 73, 0
2, 7000, Note_on_c, 0, 61, 0
2, 7008, Note_on_c, 0, 71, 0
2, 7016, Control_c, 0, 64, 0
2, 7020, Note_on_c, 0, 69, 60
2, 7021, Note_on_c, 0, 61, 50
2, 7022, Note_on_c, 0, 57, 0
2, 7031, Note_on_c, 0, 70, 0
2, 7053, Note_on_c, 0, 57, 55
2, 7053, Note_on_c, 0, 70, 68
2, 7056, Note_on_c, 0, 61, 0
2, 7063, Note_on_c, 0, 69, 0
2, 7085, Note_on_c, 0, 61, 49
2, 7085, Note_on_c, 0, 71, 70
2, 7088, Note_on_c, 0, 70, 0
2, 7088, Note_on_c, 0, 57, 0
2, 7109, Note_on_c, 0, 57, 53
2, 7109, Note_on_c, 0, 72, 72
2, 7112, Note_on_c, 0, 61, 0
2, 7121, Note_on_c, 0, 71, 0
2, 7142, Note_on_c, 0, 61, 54
2, 7142, Note_on_c, 0, 73, 68
2, 7145, Note_on_c, 0, 72, 0
2, 7146, Note_on_c, 0, 57, 0
2, 7150, Control_c, 0, 64, 127
2, 7166, Note_on_c, 0, 57, 54
2, 7166, Note_on_c, 0, 72, 63
2, 7171, Note_on_c, 0, 61, 0
2, 7178, Note_on_c, 0, 73, 0
2, 7189, Note_on_c, 0, 71, 65
2, 7190, Note_on_c, 0, 61, 49
2, 7200, Note_on_c, 0, 57, 0
2, 7208, Note_on_c, 0, 72, 0
2, 7221, Note_on_c, 0, 57, 50
2, 7221, Note_on_c, 0, 70, 67
2, 7230, Note_on_c, 0, 71, 0
2, 7240, Note_on_c, 0, 53, 0
2, 7240, Note_on_c, 0, 61, 0
2, 7249, Note_on_c, 0, 54, 80
2, 7249, Note_on_c, 0, 69, 78
2, 7250, Note_on_c, 0, 62, 83
2, 7253, Note_on_c, 0, 70, 0
2, 7253, Control_c, 0, 64, 0
2, 7262, Note_on_c, 0, 57, 0
2, 7312, Note_on_c, 0, 61, 62
2, 7315, Note_on_c, 0, 62, 0
2, 7323, Note_on_c, 0, 69, 0
2, 7323, Note_on_c, 0, 54, 0
2, 7337, Note_on_c, 0, 62, 65
2, 7371, Note_on_c, 0, 62, 0
2, 7391, Note_on_c, 0, 62, 70
2, 7393, Note_on_c, 0, 61, 0
2, 7416, Note_on_c, 0, 61, 68
2, 7426, Note_on_c, 0, 62, 0
2, 7440, Note_on_c, 0, 61, 0
2, 7446, Note_on_c, 0, 62, 70
2, 7455, Control_c, 0, 64, 127
2, 7469, Note_on_c, 0, 61, 75
2, 7469, Note_on_c, 0, 63, 72
2, 7472, Note_on_c, 0, 62, 0
2, 7491, Note_on_c, 0, 62, 72
2, 7495, Note_on_c, 0, 63, 0
2, 7495, Note_on_c, 0, 61, 0
2, 7516, Note_on_c, 0, 61, 66
2, 7516, Note_on_c, 0, 63, 65
2, 7516, Note_on_c, 0, 75, 74
2, 7520, Note_on_c, 0, 62, 0
2, 7539, Note_on_c, 0, 62, 66
2, 7542, Note_on_c, 0, 61, 0
2, 7542, Note_on_c, 0, 75, 0
2, 7542, Note_on_c, 0, 63, 0
2, 7563, Note_on_c, 0, 75, 77
2, 7571, Note_on_c, 0, 61, 71
2, 7571, Note_on_c, 0, 63, 76
2, 7575, Note_on_c, 0, 62, 0
2, 7583, Note_on_c, 0, 75, 0
2, 7600, Note_on_c, 0, 61, 0
2, 7600, Note_on_c, 0, 63, 0
2, 7609, Note_on_c, 0, 62, 72
2, 7609, Note_on_c, 0, 75, 70
2, 7631, Note_on_c, 0, 75, 0
2, 7635, Note_on_c, 0, 61, 70
2, 7635, Note_on_c, 0, 63, 73
2, 7638, Note_on_c, 0, 62, 0
2, 7656, Note_on_c, 0, 75, 68
2, 7660, Note_on_c, 0, 63, 0
2, 7660, Note_on_c, 0, 61, 0
2, 7675, Note_on_c, 0, 75, 0
2, 7675, Control_c, 0, 64, 0
2, 7679, Note_on_c, 0, 62, 71
2, 7679, Note_on_c, 0, 74, 68
2, 7704, Note_on_c, 0, 74, 0
2, 7704, Note_on_c, 0, 62, 0
2, 7723, Note_on_c, 0, 74, 69
2, 7746, Note_on_c, 0, 73, 72
2, 7750, Note_on_c, 0, 74, 0
2, 7755, Control_c, 0, 64, 127
2, 7769, Note_on_c, 0, 74, 71
2, 7773, Note_on_c, 0, 73, 0
2, 7792, Note_on_c, 0, 73, 77
2, 7795, Note_on_c, 0, 74, 0
2, 7813, Note_on_c, 0, 74, 72
2, 7818, Note_on_c, 0, 73, 0
2, 7837, Note_on_c, 0, 73, 73
2, 7841, Note_on_c, 0, 74, 0
2, 7864, Note_on_c, 0, 73, 0
2, 7868, Note_on_c, 0, 74, 73
2, 7880, Control_c, 0, 64, 0
2, 7893, Note_on_c, 0, 74, 0
2, 7897, Note_on_c, 0, 73, 84
2, 7897, Note_on_c, 0, 75, 83
2, 7920, Note_on_c, 0, 74, 74
2, 7923, Note_on_c, 0, 75, 0
2, 7923, Note_on_c, 0, 73, 0
2, 7944, Note_on_c, 0, 75, 67
2, 7945, Note_on_c, 0, 73, 66
2, 7948, Note_on_c, 0, 74, 0
2, 7962, Control_c, 0, 64, 127
2, 7971, Note_on_c, 0, 73, 0
2, 7971, Note_on_c, 0, 75, 0
2, 7975, Note_on_c, 0, 74, 68
2, 7975, Note_on_c, 0, 87, 71
2, 7999, Note_on_c, 0, 73, 67
2, 7999, Note_on_c, 0, 75, 68
2, 8002, Note_on_c, 0, 87, 0
2, 8002, Note_on_c, 0, 74, 0
2, 8018, Note_on_c, 0, 73, 0
2, 8018, Note_on_c, 0, 75, 0
2, 8031, Note_on_c, 0, 74, 64
2, 8031, Note_on_c, 0, 87, 69
2, 8049, Note_on_c, 0, 74, 0
2, 8053, Note_on_c, 0, 75, 64
2, 8054, Note_on_c, 0, 73, 75
2, 8058, Note_on_c, 0, 87, 0
2, 8080, Note_on_c, 0, 75, 0
2, 8085, Note_on_c, 0, 74, 80
2, 8085, Note_on_c, 0, 87, 82
2, 8089, Note_on_c, 0, 73, 0
2, 8111, Note_on_c, 0, 87, 0
2, 8111, Note_on_c, 0, 74, 0
2, 8125, Note_on_c, 0, 74, 86
2, 8128, Control_c, 0, 64, 0
2, 8152, Note_on_c, 0, 74, 0
2, 8161, Note_on_c, 0, 75, 65
2, 8179, Note_on_c, 0, 74, 74
2, 8184, Note_on_c, 0, 75, 0
2, 8203, Note_on_c, 0, 73, 71
2, 8204, Note_on_c, 0, 74, 0
2, 8209, Control_c, 0, 64, 127
2, 8224, Note_on_c, 0, 74, 75
2, 8229, Note_on_c, 0, 73, 0
2, 8248, Note_on_c, 0, 74, 0
2, 8253, Note_on_c, 0, 75, 66
2, 8279, Note_on_c, 0, 74, 71
2, 8280, Note_on_c, 0, 75, 0
2, 8296, Note_on_c, 0, 74, 0
2, 8301, Note_on_c, 0, 73, 70
2, 8324, Note_on_c, 0, 74, 68
2, 8336, Note_on_c, 0, 73, 0
2, 8341, Note_on_c, 0, 62, 88
2, 8344, Control_c, 0, 64, 0
2, 8350, Note_on_c, 0, 74, 0
2, 8355, Note_on_c, 0, 75, 64
2, 8387, Note_on_c, 0, 61, 65
2, 8387, Note_on_c, 0, 63, 59
2, 8387, Note_on_c, 0, 74, 67
2, 8396, Note_on_c, 0, 75, 0
2, 8404, Note_on_c, 0, 62, 0
2, 8409, Note_on_c, 0, 73, 70
2, 8420, Note_on_c, 0, 74, 0
2, 8439, Note_on_c, 0, 74, 73
2, 8440, Note_on_c, 0, 60, 64
2, 8440, Note_on_c, 0, 64, 70
2, 8443, Note_on_c, 0, 73, 0
2, 8457, Note_on_c, 0, 61, 0
2, 8466, Note_on_c, 0, 74, 0
2, 8466, Note_on_c, 0, 63, 0
2, 8470, Note_on_c, 0, 75, 69
2, 8471, Control_c, 0, 64, 127
2, 8501, Note_on_c, 0, 74, 66
2, 8502, Note_on_c, 0, 59, 68
2, 8502, Note_on_c, 0, 65, 66
2, 8505, Note_on_c, 0, 75, 0
2, 8522, Note_on_c, 0, 60, 0
2, 8528, Note_on_c, 0, 74, 0
2, 8529, Note_on_c, 0, 64, 0
2, 8533, Note_on_c, 0, 73, 68
2, 8559, Note_on_c, 0, 58, 69
2, 8559, Note_on_c, 0, 66, 69
2, 8559, Note_on_c, 0, 74, 70
2, 8562, Note_on_c, 0, 73, 0
2, 8571, Control_c, 0, 64, 0
2, 8575, Note_on_c, 0, 75, 69
2, 8576, Note_on_c, 0, 59, 0
2, 8582, Note_on_c, 0, 62, 58
2, 8585, Note_on_c, 0, 65, 0
2, 8585, Note_on_c, 0, 74, 0
2, 8601, Note_on_c, 0, 66, 0
2, 8614, Note_on_c, 0, 76, 66
2, 8615, Note_on_c, 0, 66, 64
2, 8616, Note_on_c, 0, 75, 0
2, 8616, Note_on_c, 0, 62, 0
2, 8637, Note_on_c, 0, 77, 64
2, 8638, Note_on_c, 0, 62, 58
2, 8647, Note_on_c, 0, 66, 0
2, 8647, Note_on_c, 0, 76, 0
2, 8676, Note_on_c, 0, 66, 76
2, 8676, Note_on_c, 0, 78, 70
2, 8679, Note_on_c, 0, 62, 0
2, 8679, Note_on_c, 0, 77, 0
2, 8700, Control_c, 0, 64, 127
2, 8700, Note_on_c, 0, 62, 58
2, 8703, Note_on_c, 0, 66, 0
2, 8708, Note_on_c, 0, 77, 63
2, 8738, Note_on_c, 0, 76, 70
2, 8739, Note_on_c, 0, 66, 64
2, 8740, Note_on_c, 0, 77, 0
2, 8741, Note_on_c, 0, 62, 0
2, 8756, Note_on_c, 0, 78, 0
2, 8757, Control_c, 0, 64, 0
2, 8769, Note_on_c, 0, 62, 55
2, 8769, Note_on_c, 0, 75, 70
2, 8770, Note_on_c, 0, 66, 0
2, 8770, Note_on_c, 0, 76, 0
2, 8791, Note_on_c, 0, 74, 75
2, 8792, Note_on_c, 0, 66, 72
2, 8801, Note_on_c, 0, 75, 0
2, 8801, Note_on_c, 0, 62, 0
2, 8823, Note_on_c, 0, 62, 54
2, 8823, Note_on_c, 0, 75, 63
2, 8826, Note_on_c, 0, 74, 0
2, 8834, Note_on_c, 0, 66, 0
2, 8854, Note_on_c, 0, 66, 66
2, 8854, Note_on_c, 0, 76, 65
2, 8857, Note_on_c, 0, 75, 0
2, 8857, Note_on_c, 0, 62, 0
2, 8877, Note_on_c, 0, 62, 55
2, 8877, Note_on_c, 0, 77, 65
2, 8880, Note_on_c, 0, 66, 0
2, 8888, Note_on_c, 0, 76, 0
2, 8893, Control_c, 0, 64, 127
2, 8907, Note_on_c, 0, 66, 70
2, 8907, Note_on_c, 0, 78, 76
2, 8911, Note_on_c, 0, 77, 0
2, 8911, Note_on_c, 0, 62, 0
2, 8933, Note_on_c, 0, 62, 51
2, 8934, Note_on_c, 0, 66, 0
2, 8939, Note_on_c, 0, 77, 52
2, 8943, Note_on_c, 0, 78, 0
2, 8956, Note_on_c, 0, 66, 66
2, 8959, Note_on_c, 0, 62, 0
2, 8964, Note_on_c, 0, 76, 76
2, 8974, Note_on_c, 0, 77, 0
2, 8977, Note_on_c, 0, 62, 64
2, 8977, Note_on_c, 0, 75, 73
2, 8988, Note_on_c, 0, 58, 0
2, 8997, Note_on_c, 0, 62, 0
2, 8997, Note_on_c, 0, 76, 0
2, 9010, Note_on_c, 0, 75, 0
2, 9011, Note_on_c, 0, 66, 0
2, 9015, Note_on_c, 0, 55, 63
2, 9015, Note_on_c, 0, 62, 62
2, 9015, Note_on_c, 0, 67, 76
2, 9015, Note_on_c, 0, 74, 75
2, 9018, Note_on_c, 0, 58, 63
2, 9027, Control_c, 0, 64, 0
2, 9040, Note_on_c, 0, 73, 75
2, 9049, Note_on_c, 0, 74, 0
2, 9049, Note_on_c, 0, 67, 0
2, 9058, Note_on_c, 0, 58, 0
2, 9058, Note_on_c, 0, 62, 0
2, 9068, Note_on_c, 0, 55, 0
2, 9071, Note_on_c, 0, 72, 72
2, 9074, Note_on_c, 0, 73, 0
2, 9102, Note_on_c, 0, 71, 75
2, 9105, Note_on_c, 0, 72, 0
2, 9128, Note_on_c, 0, 71, 0
2, 9133, Note_on_c, 0, 70, 73
2, 9147, Note_on_c, 0, 87, 76
2, 9166, Note_on_c, 0, 70, 0
2, 9179, Control_c, 0, 64, 127
2, 9179, Note_on_c, 0, 75, 75
2, 9179, Note_on_c, 0, 86, 71
2, 9182, Note_on_c, 0, 87, 0
2, 9201, Note_on_c, 0, 85, 76
2, 9205, Note_on_c, 0, 75, 0
2, 9213, Note_on_c, 0, 86, 0
2, 9229, Control_c, 0, 64, 0
2, 9233, Note_on_c, 0, 86, 74
2, 9240, Note_on_c, 0, 74, 74
2, 9244, Note_on_c, 0, 85, 0
2, 9264, Note_on_c, 0, 85, 61
2, 9274, Note_on_c, 0, 74, 0
2, 9290, Note_on_c, 0, 86, 0
2, 9295, Note_on_c, 0, 84, 69
2, 9313, Note_on_c, 0, 85, 0
2, 9323, Note_on_c, 0, 83, 67
2, 9336, Note_on_c, 0, 84, 0
2, 9346, Note_on_c, 0, 79, 80
2, 9347, Note_on_c, 0, 72, 82
2, 9347, Note_on_c, 0, 75, 80
2, 9347, Note_on_c, 0, 82, 79
2, 9350, Note_on_c, 0, 83, 0
2, 9366, Note_on_c, 0, 75, 0
2, 9374, Note_on_c, 0, 79, 0
2, 9374, Note_on_c, 0, 72, 0
2, 9374, Note_on_c, 0, 82, 0
2, 9379, Note_on_c, 0, 83, 59
2, 9393, Note_on_c, 0, 84, 66
2, 9412, Note_on_c, 0, 83, 0
2, 9425, Note_on_c, 0, 85, 68
2, 9437, Note_on_c, 0, 84, 0
2, 9456, Note_on_c, 0, 86, 71
2, 9464, Note_on_c, 0, 74, 67
2, 9464, Note_on_c, 0, 79, 72
2, 9465, Note_on_c, 0, 70, 68
2, 9468, Note_on_c, 0, 85, 0
2, 9496, Note_on_c, 0, 85, 65
2, 9500, Note_on_c, 0, 79, 0
2, 9500, Note_on_c, 0, 70, 0
2, 9500, Note_on_c, 0, 74, 0
2, 9521, Note_on_c, 0, 84, 64
2, 9531, Note_on_c, 0, 86, 0
2, 9531, Note_on_c, 0, 85, 0
2, 9544, Note_on_c, 0, 83, 65
2, 9548, Note_on_c, 0, 84, 0
2, 9567, Note_on_c, 0, 84, 66
2, 9576, Note_on_c, 0, 83, 0
2, 9582, Note_on_c, 0, 66, 62
2, 9582, Note_on_c, 0, 72, 62
2, 9590, Note_on_c, 0, 75, 65
2, 9606, Note_on_c, 0, 83, 59
2, 9610, Note_on_c, 0, 75, 0
2, 9610, Note_on_c, 0, 72, 0
2, 9610, Note_on_c, 0, 66, 0
2, 9631, Note_on_c, 0, 82, 65
2, 9646, Note_on_c, 0, 81, 59
2, 9649, Note_on_c, 0, 84, 0
2, 9649, Note_on_c, 0, 83, 0
2, 9657, Note_on_c, 0, 82, 0
2, 9679, Note_on_c, 0, 82, 71
2, 9685, Note_on_c, 0, 74, 66
2, 9686, Note_on_c, 0, 67, 66
2, 9686, Note_on_c, 0, 70, 69
2, 9689, Note_on_c, 0, 81, 0
2, 9708, Note_on_c, 0, 83, 63
2, 9719, Note_on_c, 0, 82, 0
2, 9720, Note_on_c, 0, 70, 0
2, 9720, Note_on_c, 0, 67, 0
2, 9720, Note_on_c, 0, 74, 0
2, 9729, Note_on_c, 0, 84, 59
2, 9742, Note_on_c, 0, 83, 0
2, 9763, Note_on_c, 0, 85, 62
2, 9766, Note_on_c, 0, 84, 0
2, 9785, Note_on_c, 0, 84, 72
2, 9793, Note_on_c, 0, 74, 61
2, 9794, Note_on_c, 0, 65, 63
2, 9794, Note_on_c, 0, 69, 59
2, 9797, Note_on_c, 0, 85, 0
2, 9819, Note_on_c, 0, 85, 62
2, 9822, Note_on_c, 0, 84, 0
2, 9822, Note_on_c, 0, 74, 0
2, 9830, Note_on_c, 0, 69, 0
2, 9838, Note_on_c, 0, 65, 0
2, 9842, Note_on_c, 0, 86, 60
2, 9846, Note_on_c, 0, 85, 0
2, 9875, Note_on_c, 0, 87, 61
2, 9886, Note_on_c, 0, 86, 0
2, 9905, Note_on_c, 0, 64, 52
2, 9905, Note_on_c, 0, 68, 65
2, 9905, Note_on_c, 0, 71, 68
2, 9905, Note_on_c, 0, 76, 71
2, 9905, Note_on_c, 0, 88, 69
2, 9908, Note_on_c, 0, 87, 0
2, 9922, Control_c, 0, 64, 127
2, 9936, Note_on_c, 0, 87, 49
2, 9939, Note_on_c, 0, 88, 0
2, 9959, Note_on_c, 0, 86, 63
2, 9969, Note_on_c, 0, 87, 0
2, 9983, Note_on_c, 0, 85, 64
2, 9992, Note_on_c, 0, 86, 0
2, 10001, Note_on_c, 0, 76, 0
2, 10009, Note_on_c, 0, 64, 0
2, 10009, Note_on_c, 0, 68, 0
2, 10017, Note_on_c, 0, 71, 0
2, 10017, Note_on_c, 0, 85, 0
2, 10021, Note_on_c, 0, 86, 60
2, 10024, Note_on_c, 0, 76, 62
2, 10047, Note_on_c, 0, 77, 41
2, 10047, Note_on_c, 0, 85, 46
2, 10051, Note_on_c, 0, 76, 0
2, 10056, Note_on_c, 0, 86, 0
2, 10070, Note_on_c, 0, 76, 68
2, 10070, Note_on_c, 0, 84, 69
2, 10080, Note_on_c, 0, 77, 0
2, 10080, Note_on_c, 0, 85, 0
2, 10095, Note_on_c, 0, 84, 0
2, 10100, Note_on_c, 0, 77, 65
2, 10100, Note_on_c, 0, 83, 71
2, 10104, Note_on_c, 0, 76, 0
2, 10123, Note_on_c, 0, 76, 72
2, 10123, Note_on_c, 0, 84, 72
2, 10127, Note_on_c, 0, 77, 0
2, 10135, Note_on_c, 0, 83, 0
2, 10154, Note_on_c, 0, 83, 66
2, 10155, Note_on_c, 0, 77, 66
2, 10158, Note_on_c, 0, 76, 0
2, 10158, Note_on_c, 0, 84, 0
2, 10186, Note_on_c, 0, 76, 72
2, 10186, Note_on_c, 0, 82, 66
2, 10189, Note_on_c, 0, 83, 0
2, 10190, Note_on_c, 0, 77, 0
2, 10209, Note_on_c, 0, 77, 65
2, 10209, Note_on_c, 0, 81, 67
2, 10210, Note_on_c, 0, 76, 0
2, 10210, Note_on_c, 0, 82, 0
2, 10232, Note_on_c, 0, 76, 70
2, 10232, Note_on_c, 0, 80, 71
2, 10235, Note_on_c, 0, 81, 0
2, 10241, Note_on_c, 0, 77, 0
2, 10257, Note_on_c, 0, 80, 0
2, 10261, Note_on_c, 0, 79, 66
2, 10262, Note_on_c, 0, 77, 65
2, 10266, Note_on_c, 0, 76, 0
2, 10285, Note_on_c, 0, 76, 65
2, 10285, Note_on_c, 0, 78, 69
2, 10288, Note_on_c, 0, 77, 0
2, 10288, Note_on_c, 0, 79, 0
2, 10309, Note_on_c, 0, 77, 66
2, 10312, Note_on_c, 0, 78, 0
2, 10320, Note_on_c, 0, 76, 0
2, 10334, Note_on_c, 0, 77, 0
2, 10339, Note_on_c, 0, 76, 79
2, 10362, Note_on_c, 0, 77, 66
2, 10366, Note_on_c, 0, 76, 0
2, 10392, Note_on_c, 0, 76, 67
2, 10395, Note_on_c, 0, 77, 0
2, 10417, Note_on_c, 0, 75, 45
2, 10427, Note_on_c, 0, 76, 0
2, 10445, Note_on_c, 0, 76, 63
2, 10455, Note_on_c, 0, 64, 72
2, 10465, Control_c, 0, 64, 0
2, 10466, Note_on_c, 0, 75, 0
2, 10469, Note_on_c, 0, 77, 65
2, 10472, Note_on_c, 0, 76, 0
2, 10488, Note_on_c, 0, 64, 0
2, 10493, Note_on_c, 0, 76, 55
2, 10501, Control_c, 0, 64, 127
2, 10510, Note_on_c, 0, 60, 60
2, 10513, Note_on_c, 0, 77, 0
2, 10524, Note_on_c, 0, 75, 59
2, 10528, Note_on_c, 0, 76, 0
2, 10544, Note_on_c, 0, 60, 0
2, 10548, Note_on_c, 0, 76, 56
2, 10561, Control_c, 0, 64, 0
2, 10569, Note_on_c, 0, 75, 0
2, 10574, Note_on_c, 0, 57, 65
2, 10583, Note_on_c, 0, 77, 57
2, 10584, Note_on_c, 0, 76, 0
2, 10601, Note_on_c, 0, 57, 0
2, 10607, Note_on_c, 0, 76, 55
2, 10620, Note_on_c, 0, 53, 61
2, 10624, Note_on_c, 0, 77, 0
2, 10634, Note_on_c, 0, 75, 54
2, 10639, Note_on_c, 0, 76, 0
2, 10657, Note_on_c, 0, 76, 51
2, 10661, Note_on_c, 0, 53, 0
2, 10675, Note_on_c, 0, 57, 75
2, 10678, Note_on_c, 0, 75, 0
2, 10688, Note_on_c, 0, 77, 50
2, 10692, Note_on_c, 0, 76, 0
2, 10713, Note_on_c, 0, 76, 57
2, 10714, Note_on_c, 0, 57, 0
2, 10728, Note_on_c, 0, 60, 75
2, 10730, Note_on_c, 0, 77, 0
2, 10743, Note_on_c, 0, 75, 57
2, 10753, Note_on_c, 0, 60, 0
2, 10753, Note_on_c, 0, 76, 0
2, 10780, Control_c, 0, 64, 127
2, 10783, Note_on_c, 0, 75, 0
2, 10788, Note_on_c, 0, 64, 88
2, 10815, Note_on_c, 0, 64, 0
2, 10820, Note_on_c, 0, 65, 77
2, 10841, Note_on_c, 0, 64, 50
2, 10851, Note_on_c, 0, 65, 0
2, 10868, Note_on_c, 0, 64, 0
2, 10872, Note_on_c, 0, 63, 84
2, 10895, Note_on_c, 0, 64, 90
2, 10898, Note_on_c, 0, 63, 0
2, 10911, Note_on_c, 0, 40, 48
2, 10911, Note_on_c, 0, 52, 53
2, 10919, Note_on_c, 0, 65, 55
2, 10929, Note_on_c, 0, 64, 0
2, 10948, Note_on_c, 0, 36, 52
2, 10948, Note_on_c, 0, 48, 52
2, 10952, Note_on_c, 0, 40, 0
2, 10957, Note_on_c, 0, 64, 62
2, 10960, Note_on_c, 0, 65, 0
2, 10960, Note_on_c, 0, 52, 0
2, 10979, Note_on_c, 0, 63, 62
2, 10992, Note_on_c, 0, 64, 0
2, 11006, Note_on_c, 0, 36, 0
2, 11011, Note_on_c, 0, 33, 69
2, 11014, Note_on_c, 0, 48, 0
2, 11014, Note_on_c, 0, 63, 0
2, 11018, Note_on_c, 0, 45, 66
2, 11018, Note_on_c, 0, 64, 73
2, 11022, Control_c, 0, 64, 0
2, 11041, Note_on_c, 0, 65, 48
2, 11054, Note_on_c, 0, 64, 0
2, 11062, Note_on_c, 0, 45, 0
2, 11063, Note_on_c, 0, 33, 0
2, 11073, Note_on_c, 0, 29, 61
2, 11073, Note_on_c, 0, 41, 65
2, 11073, Note_on_c, 0, 64, 65
2, 11084, Note_on_c, 0, 65, 0
2, 11105, Note_on_c, 0, 63, 60
2, 11108, Note_on_c, 0, 64, 0
2, 11108, Note_on_c, 0, 41, 0
2, 11109, Note_on_c, 0, 29, 0
2, 11112, Note_on_c, 0, 33, 62
2, 11120, Note_on_c, 0, 45, 59
2, 11128, Note_on_c, 0, 64, 65
2, 11138, Note_on_c, 0, 63, 0
2, 11142, Note_on_c, 0, 65, 52
2, 11152, Control_c, 0, 64, 127
2, 11162, Note_on_c, 0, 64, 0
2, 11179, Note_on_c, 0, 33, 0
2, 11184, Note_on_c, 0, 36, 61
2, 11184, Note_on_c, 0, 48, 63
2, 11184, Note_on_c, 0, 64, 63
2, 11187, Note_on_c, 0, 45, 0
2, 11202, Note_on_c, 0, 65, 0
2, 11208, Note_on_c, 0, 64, 0
2, 11208, Note_on_c, 0, 63, 53
2, 11232, Note_on_c, 0, 63, 0
2, 11236, Note_on_c, 0, 40, 85
2, 11236, Note_on_c, 0, 52, 79
2, 11236, Note_on_c, 0, 64, 83
2, 11257, Note_on_c, 0, 63, 55
2, 11261, Note_on_c, 0, 64, 0
2, 11270, Note_on_c, 0, 36, 0
2, 11271, Note_on_c, 0, 48, 0
2, 11277, Note_on_c, 0, 63, 0
2, 11278, Control_c, 0, 64, 0
2, 11281, Note_on_c, 0, 62, 56
2, 11305, Note_on_c, 0, 61, 72
2, 11316, Note_on_c, 0, 62, 0
2, 11345, Note_on_c, 0, 62, 70
2, 11348, Note_on_c, 0, 61, 0
2, 11378, Note_on_c, 0, 61, 75
2, 11389, Note_on_c, 0, 62, 0
2, 11411, Control_c, 0, 64, 127
2, 11411, Note_on_c, 0, 60, 72
2, 11422, Note_on_c, 0, 61, 0
2, 11427, Note_on_c, 0, 59, 69
2, 11437, Note_on_c, 0, 60, 0
2, 11459, Note_on_c, 0, 59, 0
2, 11465, Note_on_c, 0, 60, 75
2, 11469, Control_c, 0, 64, 0
2, 11487, Note_on_c, 0, 59, 68
2, 11499, Note_on_c, 0, 60, 0
2, 11513, Note_on_c, 0, 59, 0
2, 11518, Note_on_c, 0, 58, 73
2, 11542, Note_on_c, 0, 57, 70
2, 11545, Note_on_c, 0, 58, 0
2, 11551, Control_c, 0, 64, 127
2, 11560, Note_on_c, 0, 57, 0
2, 11565, Note_on_c, 0, 56, 48
2, 11592, Note_on_c, 0, 56, 0
2, 11595, Note_on_c, 0, 55, 70
2, 11627, Note_on_c, 0, 54, 66
2, 11628, Note_on_c, 0, 52, 0
2, 11637, Note_on_c, 0, 40, 0
2, 11637, Note_on_c, 0, 55, 0
2, 11649, Note_on_c, 0, 53, 67
2, 11652, Note_on_c, 0, 54, 0
2, 11676, Note_on_c, 0, 53, 0
2, 11677, Control_c, 0, 64, 0
2, 11680, Note_on_c, 0, 52, 79
2, 11708, Note_on_c, 0, 52, 0
2, 11712, Note_on_c, 0, 53, 65
2, 11736, Note_on_c, 0, 52, 68
2, 11738, Note_on_c, 0, 53, 0
2, 11760, Note_on_c, 0, 51, 67
2, 11769, Note_on_c, 0, 52, 0
2, 11790, Note_on_c, 0, 52, 75
2, 11801, Note_on_c, 0, 51, 0
2, 11805, Control_c, 0, 64, 127
2, 11821, Note_on_c, 0, 53, 62
2, 11824, Note_on_c, 0, 52, 0
2, 11845, Note_on_c, 0, 53, 0
2, 11850, Note_on_c, 0, 52, 67
2, 11874, Note_on_c, 0, 51, 66
2, 11884, Note_on_c, 0, 52, 0
2, 11904, Note_on_c, 0, 52, 67
2, 11907, Note_on_c, 0, 51, 0
2, 11927, Note_on_c, 0, 53, 61
2, 11930, Note_on_c, 0, 52, 0
2, 11950, Note_on_c, 0, 52, 62
2, 11959, Note_on_c, 0, 53, 0
2, 11973, Note_on_c, 0, 51, 65
2, 11983, Note_on_c, 0, 52, 0
2, 11998, Control_c, 0, 64, 0
2, 12002, Note_on_c, 0, 52, 64
2, 12015, Note_on_c, 0, 51, 0
2, 12034, Note_on_c, 0, 53, 73
2, 12038, Note_on_c, 0, 52, 0
2, 12059, Note_on_c, 0, 52, 55
2, 12062, Note_on_c, 0, 53, 0
2, 12083, Control_c, 0, 64, 127
2, 12091, Note_on_c, 0, 51, 60
2, 12094, Note_on_c, 0, 52, 0
2, 12115, Note_on_c, 0, 52, 66
2, 12125, Note_on_c, 0, 51, 0
2, 12144, Note_on_c, 0, 53, 56
2, 12148, Note_on_c, 0, 52, 0
2, 12167, Note_on_c, 0, 52, 55
2, 12179, Note_on_c, 0, 53, 0
2, 12198, Note_on_c, 0, 51, 62
2, 12203, Note_on_c, 0, 52, 0
2, 12220, Note_on_c, 0, 88, 65
2, 12221, Note_on_c, 0, 52, 61
2, 12221, Note_on_c, 0, 76, 61
2, 12234, Note_on_c, 0, 51, 0
2, 12243, Note_on_c, 0, 53, 55
2, 12254, Note_on_c, 0, 88, 0
2, 12254, Note_on_c, 0, 52, 0
2, 12267, Note_on_c, 0, 76, 0
2, 12275, Note_on_c, 0, 52, 54
2, 12283, Note_on_c, 0, 72, 69
2, 12283, Note_on_c, 0, 84, 72
2, 12286, Note_on_c, 0, 53, 0
2, 12299, Note_on_c, 0, 51, 55
2, 12309, Note_on_c, 0, 84, 0
2, 12310, Note_on_c, 0, 52, 0
2, 12323, Note_on_c, 0, 72, 0
2, 12328, Note_on_c, 0, 52, 61
2, 12336, Note_on_c, 0, 69, 65
2, 12336, Note_on_c, 0, 81, 72
2, 12339, Note_on_c, 0, 51, 0
2, 12352, Note_on_c, 0, 53, 58
2, 12355, Note_on_c, 0, 52, 0
2, 12369, Note_on_c, 0, 81, 0
2, 12375, Note_on_c, 0, 52, 55
2, 12383, Note_on_c, 0, 65, 68
2, 12383, Note_on_c, 0, 77, 70
2, 12385, Note_on_c, 0, 69, 0
2, 12393, Note_on_c, 0, 53, 0
2, 12407, Note_on_c, 0, 51, 59
2, 12409, Note_on_c, 0, 52, 0
2, 12417, Note_on_c, 0, 77, 0
2, 12425, Note_on_c, 0, 65, 0
2, 12430, Note_on_c, 0, 52, 48
2, 12437, Note_on_c, 0, 69, 60
2, 12437, Note_on_c, 0, 81, 53
2, 12456, Note_on_c, 0, 51, 0
2, 12459, Note_on_c, 0, 53, 53
2, 12463, Note_on_c, 0, 52, 0
2, 12463, Control_c, 0, 64, 0
2, 12478, Note_on_c, 0, 81, 0
2, 12482, Note_on_c, 0, 52, 49
2, 12490, Note_on_c, 0, 72, 56
2, 12490, Note_on_c, 0, 84, 57
2, 12501, Note_on_c, 0, 69, 0
2, 12508, Note_on_c, 0, 53, 0
2, 12522, Note_on_c, 0, 51, 55
2, 12523, Note_on_c, 0, 84, 0
2, 12524, Note_on_c, 0, 52, 0
2, 12543, Control_c, 0, 64, 127
2, 12543, Note_on_c, 0, 52, 72
2, 12548, Note_on_c, 0, 76, 79
2, 12548, Note_on_c, 0, 88, 76
2, 12553, Note_on_c, 0, 72, 0
2, 12559, Note_on_c, 0, 51, 0
2, 12573, Note_on_c, 0, 53, 56
2, 12576, Note_on_c, 0, 52, 0
2, 12603, Note_on_c, 0, 52, 48
2, 12607, Note_on_c, 0, 53, 0
2, 12629, Note_on_c, 0, 51, 53
2, 12630, Note_on_c, 0, 52, 0
2, 12656, Note_on_c, 0, 88, 0
2, 12661, Note_on_c, 0, 52, 49
2, 12664, Note_on_c, 0, 51, 0
2, 12668, Note_on_c, 0, 100, 72
2, 12672, Note_on_c, 0, 76, 0
2, 12676, Note_on_c, 0, 88, 72
2, 12693, Note_on_c, 0, 53, 62
2, 12696, Note_on_c, 0, 52, 0
2, 12702, Note_on_c, 0, 100, 0
2, 12721, Note_on_c, 0, 96, 60
2, 12724, Note_on_c, 0, 52, 60
2, 12727, Note_on_c, 0, 53, 0
2, 12735, Note_on_c, 0, 88, 0
2, 12739, Note_on_c, 0, 84, 47
2, 12749, Note_on_c, 0, 51, 63
2, 12750, Note_on_c, 0, 52, 0
2, 12765, Note_on_c, 0, 96, 0
2, 12770, Note_on_c, 0, 52, 65
2, 12778, Note_on_c, 0, 93, 60
2, 12783, Note_on_c, 0, 51, 0
2, 12786, Note_on_c, 0, 81, 63
2, 12790, Note_on_c, 0, 84, 0
2, 12803, Note_on_c, 0, 53, 66
2, 12814, Note_on_c, 0, 93, 0
2, 12814, Note_on_c, 0, 52, 0
2, 12832, Note_on_c, 0, 89, 59
2, 12833, Note_on_c, 0, 52, 62
2, 12836, Note_on_c, 0, 53, 0
2, 12843, Note_on_c, 0, 81, 0
2, 12865, Note_on_c, 0, 51, 65
2, 12869, Note_on_c, 0, 52, 0
2, 12877, Note_on_c, 0, 89, 0
2, 12889, Note_on_c, 0, 52, 63
2, 12889, Note_on_c, 0, 93, 63
2, 12902, Note_on_c, 0, 51, 0
2, 12915, Note_on_c, 0, 53, 55
2, 12918, Note_on_c, 0, 52, 0
2, 12927, Note_on_c, 0, 93, 0
2, 12939, Note_on_c, 0, 52, 55
2, 12945, Note_on_c, 0, 96, 63
2, 12958, Note_on_c, 0, 53, 0
2, 12962, Note_on_c, 0, 51, 58
2, 12981, Note_on_c, 0, 96, 0
2, 12981, Note_on_c, 0, 52, 0
2, 12989, Control_c, 0, 64, 0
2, 13002, Note_on_c, 0, 100, 85
2, 13003, Note_on_c, 0, 52, 85
2, 13006, Note_on_c, 0, 51, 0
2, 13008, Note_on_c, 0, 88, 80
2, 13037, Note_on_c, 0, 52, 0
2, 13037, Note_on_c, 0, 100, 0
2, 13041, Note_on_c, 0, 53, 62
2, 13067, Note_on_c, 0, 88, 0
2, 13075, Note_on_c, 0, 54, 66
2, 13078, Note_on_c, 0, 53, 0
2, 13092, Note_on_c, 0, 54, 0
2, 13097, Control_c, 0, 64, 127
2, 13105, Note_on_c, 0, 55, 60
2, 13128, Note_on_c, 0, 76, 72
2, 13128, Note_on_c, 0, 56, 59
2, 13138, Note_on_c, 0, 55, 0
2, 13152, Note_on_c, 0, 76, 0
2, 13152, Note_on_c, 0, 77, 70
2, 13157, Note_on_c, 0, 57, 62
2, 13161, Note_on_c, 0, 56, 0
2, 13174, Note_on_c, 0, 76, 66
2, 13177, Note_on_c, 0, 77, 0
2, 13185, Note_on_c, 0, 57, 0
2, 13190, Note_on_c, 0, 58, 63
2, 13203, Note_on_c, 0, 77, 65
2, 13207, Note_on_c, 0, 76, 0
2, 13213, Note_on_c, 0, 59, 64
2, 13216, Note_on_c, 0, 58, 0
2, 13230, Note_on_c, 0, 77, 0
2, 13234, Note_on_c, 0, 76, 65
2, 13238, Note_on_c, 0, 59, 0
2, 13244, Note_on_c, 0, 60, 61
2, 13260, Note_on_c, 0, 76, 0
2, 13261, Note_on_c, 0, 60, 0
2, 13266, Note_on_c, 0, 77, 72
2, 13267, Note_on_c, 0, 61, 63
2, 13291, Note_on_c, 0, 61, 0
2, 13292, Note_on_c, 0, 77, 0
2, 13296, Note_on_c, 0, 62, 60
2, 13296, Note_on_c, 0, 76, 68
2, 13319, Note_on_c, 0, 63, 61
2, 13319, Note_on_c, 0, 77, 69
2, 13321, Note_on_c, 0, 76, 0
2, 13321, Note_on_c, 0, 62, 0
2, 13343, Note_on_c, 0, 64, 63
2, 13343, Note_on_c, 0, 76, 72
2, 13346, Note_on_c, 0, 63, 0
2, 13352, Note_on_c, 0, 77, 0
2, 13367, Note_on_c, 0, 64, 0
2, 13371, Note_on_c, 0, 65, 71
2, 13371, Note_on_c, 0, 77, 73
2, 13374, Note_on_c, 0, 76, 0
2, 13393, Note_on_c, 0, 66, 70
2, 13393, Note_on_c, 0, 76, 66
2, 13397, Note_on_c, 0, 77, 0
2, 13405, Note_on_c, 0, 65, 0
2, 13418, Note_on_c, 0, 67, 69
2, 13418, Note_on_c, 0, 77, 69
2, 13427, Note_on_c, 0, 66, 0
2, 13427, Note_on_c, 0, 76, 0
2, 13444, Note_on_c, 0, 67, 0
2, 13449, Note_on_c, 0, 68, 68
2, 13449, Note_on_c, 0, 76, 73
2, 13453, Note_on_c, 0, 77, 0
2, 13474, Note_on_c, 0, 69, 68
2, 13474, Note_on_c, 0, 77, 72
2, 13475, Note_on_c, 0, 76, 0
2, 13475, Note_on_c, 0, 68, 0
2, 13494, Note_on_c, 0, 70, 73
2, 13494, Note_on_c, 0, 76, 69
2, 13499, Note_on_c, 0, 69, 0
2, 13508, Note_on_c, 0, 77, 0
2, 13527, Note_on_c, 0, 71, 74
2, 13527, Note_on_c, 0, 77, 73
2, 13530, Note_on_c, 0, 70, 0
2, 13530, Note_on_c, 0, 76, 0
2, 13551, Note_on_c, 0, 72, 70
2, 13551, Note_on_c, 0, 76, 72
2, 13555, Note_on_c, 0, 77, 0
2, 13563, Note_on_c, 0, 71, 0
2, 13583, Note_on_c, 0, 73, 68
2, 13583, Note_on_c, 0, 77, 72
2, 13584, Note_on_c, 0, 76, 0
2, 13593, Note_on_c, 0, 72, 0
2, 13601, Note_on_c, 0, 77, 0
2, 13607, Note_on_c, 0, 74, 70
2, 13607, Note_on_c, 0, 76, 70
2, 13608, Note_on_c, 0, 73, 0
2, 13629, Note_on_c, 0, 75, 67
2, 13630, Note_on_c, 0, 77, 69
2, 13632, Note_on_c, 0, 76, 0
2, 13632, Note_on_c, 0, 74, 0
2, 13654, Note_on_c, 0, 76, 86
2, 13657, Note_on_c, 0, 75, 0
2, 13657, Note_on_c, 0, 77, 0
2, 13677, Note_on_c, 0, 77, 71
2, 13687, Note_on_c, 0, 76, 0
2, 13708, Note_on_c, 0, 76, 70
2, 13711, Note_on_c, 0, 77, 0
2, 13732, Note_on_c, 0, 75, 68
2, 13735, Note_on_c, 0, 76, 0
2, 13757, Note_on_c, 0, 76, 68
2, 13758, Note_on_c, 0, 75, 0
2, 13758, Control_c, 0, 64, 0
2, 13779, Note_on_c, 0, 77, 73
2, 13789, Note_on_c, 0, 76, 0
2, 13815, Note_on_c, 0, 77, 0
2, 13819, Note_on_c, 0, 76, 68
2, 13842, Note_on_c, 0, 75, 71
2, 13845, Note_on_c, 0, 76, 0
2, 13869, Note_on_c, 0, 75, 0
2, 13872, Note_on_c, 0, 76, 83
2, 13896, Note_on_c, 0, 77, 72
2, 13906, Note_on_c, 0, 76, 0
2, 13920, Note_on_c, 0, 77, 0
2, 13925, Note_on_c, 0, 76, 62
2, 13947, Note_on_c, 0, 75, 63
2, 13950, Note_on_c, 0, 76, 0
2, 13972, Note_on_c, 0, 75, 0
2, 13977, Note_on_c, 0, 76, 66
2, 13993, Note_on_c, 0, 77, 66
2, 14004, Note_on_c, 0, 76, 0
2, 14025, Note_on_c, 0, 76, 66
2, 14029, Note_on_c, 0, 77, 0
2, 14048, Note_on_c, 0, 75, 60
2, 14059, Note_on_c, 0, 76, 0
2, 14083, Note_on_c, 0, 75, 0
2, 14088, Note_on_c, 0, 57, 61
2, 14088, Note_on_c, 0, 60, 59
2, 14088, Note_on_c, 0, 64, 62
2, 14088, Note_on_c, 0, 69, 73
2, 14088, Note_on_c, 0, 76, 75
2, 14088, Note_on_c, 0, 81, 73
2, 14110, Note_on_c, 0, 75, 66
2, 14112, Note_on_c, 0, 76, 0
2, 14112, Note_on_c, 0, 69, 0
2, 14112, Note_on_c, 0, 57, 0
2, 14112, Note_on_c, 0, 60, 0
2, 14121, Note_on_c, 0, 64, 0
2, 14125, Note_on_c, 0, 74, 60
2, 14136, Note_on_c, 0, 75, 0
2, 14140, Control_c, 0, 64, 127
2, 14159, Note_on_c, 0, 74, 0
2, 14172, Note_on_c, 0, 73, 73
2, 14195, Note_on_c, 0, 72, 72
2, 14199, Note_on_c, 0, 73, 0
2, 14199, Control_c, 0, 64, 0
2, 14218, Note_on_c, 0, 77, 48
2, 14249, Note_on_c, 0, 76, 62
2, 14273, Note_on_c, 0, 75, 61
2, 14285, Note_on_c, 0, 76, 0
2, 14285, Note_on_c, 0, 77, 0
2, 14300, Note_on_c, 0, 72, 0
2, 14304, Note_on_c, 0, 64, 46
2, 14304, Note_on_c, 0, 76, 60
2, 14308, Note_on_c, 0, 75, 0
2, 14312, Note_on_c, 0, 69, 65
2, 14315, Note_on_c, 0, 57, 42
2, 14315, Note_on_c, 0, 60, 43
2, 14336, Note_on_c, 0, 75, 61
2, 14358, Note_on_c, 0, 74, 62
2, 14362, Note_on_c, 0, 64, 0
2, 14363, Note_on_c, 0, 57, 0
2, 14363, Note_on_c, 0, 69, 0
2, 14363, Note_on_c, 0, 60, 0
2, 14371, Note_on_c, 0, 75, 0
2, 14371, Note_on_c, 0, 76, 0
2, 14376, Control_c, 0, 64, 127
2, 14391, Note_on_c, 0, 73, 63
2, 14394, Note_on_c, 0, 74, 0
2, 14401, Note_on_c, 0, 81, 0
2, 14414, Control_c, 0, 64, 0
2, 14423, Note_on_c, 0, 72, 41
2, 14424, Note_on_c, 0, 62, 60
2, 14424, Note_on_c, 0, 69, 44
2, 14424, Note_on_c, 0, 81, 45
2, 14427, Note_on_c, 0, 73, 0
2, 14433, Note_on_c, 0, 54, 42
2, 14448, Note_on_c, 0, 73, 57
2, 14465, Note_on_c, 0, 69, 0
2, 14465, Note_on_c, 0, 62, 0
2, 14473, Note_on_c, 0, 72, 0
2, 14477, Note_on_c, 0, 74, 66
2, 14481, Note_on_c, 0, 54, 0
2, 14481, Note_on_c, 0, 73, 0
2, 14504, Note_on_c, 0, 81, 0
2, 14509, Note_on_c, 0, 75, 65
2, 14512, Note_on_c, 0, 74, 0
2, 14533, Note_on_c, 0, 76, 62
2, 14536, Note_on_c, 0, 81, 65
2, 14545, Note_on_c, 0, 75, 0
2, 14550, Note_on_c, 0, 57, 52
2, 14550, Note_on_c, 0, 60, 50
2, 14550, Note_on_c, 0, 64, 48
2, 14550, Note_on_c, 0, 69, 64
2, 14565, Note_on_c, 0, 75, 60
2, 14583, Note_on_c, 0, 69, 0
2, 14583, Note_on_c, 0, 60, 0
2, 14583, Note_on_c, 0, 57, 0
2, 14583, Note_on_c, 0, 64, 0
2, 14595, Note_on_c, 0, 74, 64
2, 14606, Note_on_c, 0, 76, 0
2, 14606, Note_on_c, 0, 75, 0
2, 14612, Control_c, 0, 64, 127
2, 14626, Note_on_c, 0, 73, 60
2, 14644, Note_on_c, 0, 74, 0
2, 14657, Note_on_c, 0, 72, 62
2, 14661, Note_on_c, 0, 73, 0
2, 14687, Note_on_c, 0, 77, 60
2, 14691, Control_c, 0, 64, 0
2, 14710, Note_on_c, 0, 76, 55
2, 14728, Note_on_c, 0, 77, 0
2, 14733, Note_on_c, 0, 75, 60
2, 14742, Note_on_c, 0, 76, 0
2, 14759, Note_on_c, 0, 72, 0
2, 14762, Note_on_c, 0, 57, 42
2, 14762, Note_on_c, 0, 76, 58
2, 14763, Note_on_c, 0, 60, 45
2, 14767, Note_on_c, 0, 75, 0
2, 14771, Note_on_c, 0, 64, 44
2, 14771, Note_on_c, 0, 69, 57
2, 14781, Note_on_c, 0, 81, 0
2, 14793, Note_on_c, 0, 75, 54
2, 14806, Note_on_c, 0, 69, 0
2, 14811, Note_on_c, 0, 60, 0
2, 14811, Note_on_c, 0, 57, 0
2, 14816, Note_on_c, 0, 74, 56
2, 14819, Note_on_c, 0, 64, 0
2, 14835, Note_on_c, 0, 75, 0
2, 14841, Control_c, 0, 64, 127
2, 14841, Note_on_c, 0, 73, 66
2, 14858, Note_on_c, 0, 74, 0
2, 14880, Note_on_c, 0, 76, 0
2, 14884, Note_on_c, 0, 81, 62
2, 14885, Note_on_c, 0, 72, 61
2, 14886, Note_on_c, 0, 62, 59
2, 14890, Note_on_c, 0, 73, 0
2, 14894, Note_on_c, 0, 54, 48
2, 14894, Note_on_c, 0, 57, 42
2, 14898, Control_c, 0, 64, 0
2, 14908, Note_on_c, 0, 73, 53
2, 14927, Note_on_c, 0, 62, 0
2, 14927, Note_on_c, 0, 72, 0
2, 14939, Note_on_c, 0, 74, 54
2, 14942, Note_on_c, 0, 73, 0
2, 14951, Note_on_c, 0, 57, 0
2, 14951, Note_on_c, 0, 54, 0
2, 14961, Note_on_c, 0, 75, 59
2, 14974, Note_on_c, 0, 74, 0
2, 15000, Note_on_c, 0, 75, 0
2, 15012, Note_on_c, 0, 57, 63
2, 15012, Note_on_c, 0, 60, 66
2, 15012, Note_on_c, 0, 64, 65
2, 15012, Note_on_c, 0, 76, 72
2, 15036, Note_on_c, 0, 75, 75
2, 15039, Note_on_c, 0, 81, 0
2, 15048, Note_on_c, 0, 76, 0
2, 15048, Note_on_c, 0, 64, 0
2, 15048, Note_on_c, 0, 57, 0
2, 15048, Note_on_c, 0, 60, 0
2, 15052, Note_on_c, 0, 74, 74
2, 15063, Note_on_c, 0, 75, 0
2, 15082, Note_on_c, 0, 73, 78
2, 15085, Note_on_c, 0, 74, 0
2, 15113, Note_on_c, 0, 74, 78
2, 15118, Note_on_c, 0, 73, 0
2, 15122, Note_on_c, 0, 53, 66
2, 15122, Note_on_c, 0, 57, 66
2, 15122, Note_on_c, 0, 62, 62
2, 15144, Note_on_c, 0, 73, 84
2, 15155, Note_on_c, 0, 74, 0
2, 15164, Note_on_c, 0, 62, 0
2, 15164, Note_on_c, 0, 53, 0
2, 15164, Note_on_c, 0, 57, 0
2, 15180, Note_on_c, 0, 73, 0
2, 15184, Note_on_c, 0, 72, 82
2, 15219, Note_on_c, 0, 72, 0
2, 15222, Note_on_c, 0, 71, 81
2, 15240, Note_on_c, 0, 52, 59
2, 15240, Note_on_c, 0, 57, 64
2, 15240, Note_on_c, 0, 60, 66
2, 15254, Note_on_c, 0, 72, 79
2, 15258, Note_on_c, 0, 71, 0
2, 15286, Note_on_c, 0, 73, 84
2, 15295, Note_on_c, 0, 72, 0
2, 15296, Note_on_c, 0, 60, 0
2, 15296, Note_on_c, 0, 57, 0
2, 15302, Note_on_c, 0, 52, 0
2, 15306, Note_on_c, 0, 74, 78
2, 15316, Note_on_c, 0, 73, 0
2, 15344, Note_on_c, 0, 75, 82
2, 15347, Note_on_c, 0, 74, 0
2, 15360, Note_on_c, 0, 50, 57
2, 15360, Note_on_c, 0, 59, 56
2, 15361, Note_on_c, 0, 52, 57
2, 15361, Note_on_c, 0, 56, 55
2, 15367, Note_on_c, 0, 76, 82
2, 15371, Note_on_c, 0, 75, 0
2, 15389, Note_on_c, 0, 77, 64
2, 15392, Note_on_c, 0, 76, 0
2, 15407, Note_on_c, 0, 59, 0
2, 15408, Note_on_c, 0, 50, 0
2, 15408, Note_on_c, 0, 56, 0
2, 15411, Note_on_c, 0, 76, 53
2, 15415, Note_on_c, 0, 52, 0
2, 15421, Note_on_c, 0, 77, 0
2, 15439, Note_on_c, 0, 75, 49
2, 15452, Note_on_c, 0, 76, 0
2, 15471, Note_on_c, 0, 76, 66
2, 15474, Note_on_c, 0, 75, 0
2, 15479, Note_on_c, 0, 48, 60
2, 15479, Note_on_c, 0, 52, 59
2, 15479, Note_on_c, 0, 57, 61
2, 15503, Note_on_c, 0, 76, 0
2, 15507, Note_on_c, 0, 75, 59
2, 15518, Note_on_c, 0, 57, 0
2, 15522, Note_on_c, 0, 74, 60
2, 15527, Note_on_c, 0, 75, 0
2, 15544, Note_on_c, 0, 48, 0
2, 15544, Note_on_c, 0, 52, 0
2, 15553, Note_on_c, 0, 73, 58
2, 15558, Note_on_c, 0, 74, 0
2, 15577, Note_on_c, 0, 74, 54
2, 15588, Note_on_c, 0, 73, 0
2, 15593, Note_on_c, 0, 41, 58
2, 15593, Note_on_c, 0, 50, 54
2, 15593, Note_on_c, 0, 57, 54
2, 15607, Note_on_c, 0, 73, 53
2, 15611, Note_on_c, 0, 74, 0
2, 15627, Note_on_c, 0, 57, 0
2, 15638, Note_on_c, 0, 72, 56
2, 15642, Note_on_c, 0, 41, 0
2, 15642, Note_on_c, 0, 50, 0
2, 15649, Note_on_c, 0, 73, 0
2, 15671, Note_on_c, 0, 71, 55
2, 15673, Note_on_c, 0, 72, 0
2, 15702, Note_on_c, 0, 72, 66
2, 15706, Note_on_c, 0, 71, 0
2, 15711, Note_on_c, 0, 40, 54
2, 15711, Note_on_c, 0, 48, 59
2, 15711, Note_on_c, 0, 57, 54
2, 15733, Note_on_c, 0, 73, 60
2, 15737, Note_on_c, 0, 72, 0
2, 15754, Note_on_c, 0, 57, 0
2, 15754, Note_on_c, 0, 48, 0
2, 15755, Note_on_c, 0, 40, 0
2, 15761, Note_on_c, 0, 73, 0
2, 15766, Note_on_c, 0, 74, 64
2, 15790, Note_on_c, 0, 75, 65
2, 15792, Note_on_c, 0, 74, 0
2, 15812, Note_on_c, 0, 76, 60
2, 15820, Note_on_c, 0, 38, 52
2, 15820, Note_on_c, 0, 47, 52
2, 15820, Note_on_c, 0, 52, 54
2, 15823, Note_on_c, 0, 75, 0
2, 15836, Note_on_c, 0, 78, 48
2, 15848, Note_on_c, 0, 76, 0
2, 15865, Note_on_c, 0, 52, 0
2, 15868, Note_on_c, 0, 79, 49
2, 15881, Note_on_c, 0, 47, 0
2, 15881, Note_on_c, 0, 78, 0
2, 15884, Note_on_c, 0, 38, 0
2, 15893, Note_on_c, 0, 80, 49
2, 15914, Note_on_c, 0, 79, 0
2, 15927, Note_on_c, 0, 81, 63
2, 15936, Note_on_c, 0, 52, 50
2, 15936, Note_on_c, 0, 37, 49
2, 15937, Note_on_c, 0, 80, 0
2, 15945, Control_c, 0, 64, 127
2, 15945, Note_on_c, 0, 45, 47
2, 15959, Note_on_c, 0, 80, 62
2, 15984, Note_on_c, 0, 79, 59
2, 15994, Note_on_c, 0, 80, 0
2, 16013, Note_on_c, 0, 78, 63
2, 16016, Note_on_c, 0, 79, 0
2, 16019, Note_on_c, 0, 45, 0
2, 16041, Note_on_c, 0, 81, 0
2, 16042, Note_on_c, 0, 37, 0
2, 16042, Note_on_c, 0, 52, 0
2, 16045, Note_on_c, 0, 53, 44
2, 16046, Note_on_c, 0, 38, 48
2, 16046, Note_on_c, 0, 45, 44
2, 16049, Note_on_c, 0, 78, 0
2, 16055, Note_on_c, 0, 77, 65
2, 16083, Note_on_c, 0, 82, 54
2, 16094, Note_on_c, 0, 53, 0
2, 16095, Control_c, 0, 64, 0
2, 16101, Note_on_c, 0, 45, 0
2, 16102, Note_on_c, 0, 38, 0
2, 16105, Note_on_c, 0, 81, 53
2, 16124, Note_on_c, 0, 82, 0
2, 16128, Note_on_c, 0, 80, 56
2, 16138, Note_on_c, 0, 81, 0
2, 16148, Note_on_c, 0, 77, 0
2, 16157, Note_on_c, 0, 81, 66
2, 16168, Note_on_c, 0, 80, 0
2, 16186, Note_on_c, 0, 80, 58
2, 16218, Note_on_c, 0, 79, 64
2, 16221, Note_on_c, 0, 80, 0
2, 16240, Note_on_c, 0, 78, 61
2, 16258, Note_on_c, 0, 79, 0
2, 16258, Note_on_c, 0, 81, 0
2, 16274, Note_on_c, 0, 78, 0
2, 16279, Note_on_c, 0, 77, 78
2, 16280, Note_on_c, 0, 86, 76
2, 16288, Note_on_c, 0, 47, 67
2, 16288, Note_on_c, 0, 55, 65
2, 16288, Note_on_c, 0, 62, 69
2, 16294, Note_on_c, 0, 78, 59
2, 16304, Note_on_c, 0, 77, 0
2, 16312, Note_on_c, 0, 62, 0
2, 16312, Note_on_c, 0, 86, 0
2, 16315, Note_on_c, 0, 47, 0
2, 16322, Note_on_c, 0, 55, 0
2, 16328, Note_on_c, 0, 78, 0
2, 16333, Note_on_c, 0, 79, 55
2, 16356, Note_on_c, 0, 80, 59
2, 16366, Note_on_c, 0, 79, 0
2, 16400, Note_on_c, 0, 80, 0
2, 16405, Note_on_c, 0, 50, 56
2, 16405, Note_on_c, 0, 57, 55
2, 16405, Note_on_c, 0, 81, 72
2, 16405, Note_on_c, 0, 86, 76
2, 16411, Note_on_c, 0, 65, 64
2, 16425, Note_on_c, 0, 80, 60
2, 16449, Note_on_c, 0, 79, 64
2, 16459, Note_on_c, 0, 80, 0
2, 16459, Note_on_c, 0, 81, 0
2, 16487, Note_on_c, 0, 78, 68
2, 16490, Note_on_c, 0, 79, 0
2, 16495, Control_c, 0, 64, 127
2, 16518, Note_on_c, 0, 77, 72
2, 16523, Note_on_c, 0, 78, 0
2, 16550, Note_on_c, 0, 82, 46
2, 16573, Note_on_c, 0, 81, 59
2, 16585, Note_on_c, 0, 82, 0
2, 16585, Note_on_c, 0, 50, 0
2, 16585, Note_on_c, 0, 57, 0
2, 16585, Note_on_c, 0, 86, 0
2, 16590, Note_on_c, 0, 65, 0
2, 16595, Note_on_c, 0, 80, 59
2, 16631, Note_on_c, 0, 80, 0
2, 16634, Note_on_c, 0, 65, 57
2, 16635, Note_on_c, 0, 50, 44
2, 16636, Note_on_c, 0, 57, 46
2, 16637, Note_on_c, 0, 77, 0
2, 16651, Note_on_c, 0, 80, 54
2, 16655, Control_c, 0, 64, 0
2, 16669, Note_on_c, 0, 81, 0
2, 16678, Note_on_c, 0, 65, 0
2, 16682, Note_on_c, 0, 79, 56
2, 16683, Note_on_c, 0, 57, 0
2, 16684, Note_on_c, 0, 50, 0
2, 16692, Note_on_c, 0, 80, 0
2, 16720, Note_on_c, 0, 78, 64
2, 16724, Note_on_c, 0, 79, 0
2, 16752, Note_on_c, 0, 62, 62
2, 16752, Note_on_c, 0, 77, 65
2, 16752, Note_on_c, 0, 86, 65
2, 16755, Note_on_c, 0, 78, 0
2, 16759, Note_on_c, 0, 47, 43
2, 16759, Note_on_c, 0, 55, 41
2, 16773, Note_on_c, 0, 78, 63
2, 16776, Note_on_c, 0, 62, 0
2, 16776, Note_on_c, 0, 77, 0
2, 16800, Note_on_c, 0, 47, 0
2, 16800, Note_on_c, 0, 78, 0
2, 16803, Note_on_c, 0, 79, 63
2, 16807, Note_on_c, 0, 86, 0
2, 16807, Note_on_c, 0, 55, 0
2, 16825, Note_on_c, 0, 80, 61
2, 16838, Note_on_c, 0, 79, 0
2, 16856, Note_on_c, 0, 81, 64
2, 16856, Note_on_c, 0, 86, 65
2, 16857, Note_on_c, 0, 50, 52
2, 16857, Note_on_c, 0, 57, 47
2, 16857, Note_on_c, 0, 65, 64
2, 16861, Note_on_c, 0, 80, 0
2, 16887, Note_on_c, 0, 80, 66
2, 16890, Note_on_c, 0, 81, 0
2, 16890, Note_on_c, 0, 86, 0
2, 16897, Note_on_c, 0, 57, 0
2, 16897, Note_on_c, 0, 50, 0
2, 16906, Note_on_c, 0, 65, 0
2, 16910, Note_on_c, 0, 79, 62
2, 16920, Note_on_c, 0, 80, 0
2, 16939, Note_on_c, 0, 78, 61
2, 16943, Note_on_c, 0, 79, 0
2, 16962, Note_on_c, 0, 79, 61
2, 16969, Note_on_c, 0, 46, 56
2, 16969, Note_on_c, 0, 50, 59
2, 16969, Note_on_c, 0, 55, 55
2, 16972, Note_on_c, 0, 78, 0
2, 16994, Note_on_c, 0, 79, 0
2, 16999, Note_on_c, 0, 78, 64
2, 17010, Note_on_c, 0, 50, 0
2, 17010, Note_on_c, 0, 46, 0
2, 17018, Note_on_c, 0, 55, 0
2, 17022, Note_on_c, 0, 77, 62
2, 17033, Note_on_c, 0, 78, 0
2, 17054, Note_on_c, 0, 76, 63
2, 17057, Note_on_c, 0, 77, 0
2, 17085, Note_on_c, 0, 50, 47
2, 17085, Note_on_c, 0, 53, 45
2, 17085, Note_on_c, 0, 77, 65
2, 17086, Note_on_c, 0, 45, 43
2, 17094, Note_on_c, 0, 76, 0
2, 17108, Note_on_c, 0, 78, 59
2, 17126, Note_on_c, 0, 77, 0
2, 17135, Note_on_c, 0, 53, 0
2, 17138, Note_on_c, 0, 79, 60
2, 17142, Note_on_c, 0, 50, 0
2, 17142, Note_on_c, 0, 45, 0
2, 17150, Note_on_c, 0, 78, 0
2, 17179, Note_on_c, 0, 80, 64
2, 17183, Note_on_c, 0, 79, 0
2, 17210, Note_on_c, 0, 81, 63
2, 17211, Note_on_c, 0, 43, 54
2, 17211, Note_on_c, 0, 45, 54
2, 17211, Note_on_c, 0, 49, 51
2, 17211, Note_on_c, 0, 52, 50
2, 17214, Note_on_c, 0, 80, 0
2, 17242, Note_on_c, 0, 82, 57
2, 17245, Note_on_c, 0, 81, 0
2, 17262, Note_on_c, 0, 45, 0
2, 17262, Note_on_c, 0, 49, 0
2, 17262, Note_on_c, 0, 52, 0
2, 17263, Note_on_c, 0, 43, 0
2, 17267, Note_on_c, 0, 81, 54
2, 17286, Note_on_c, 0, 82, 0
2, 17291, Note_on_c, 0, 80, 56
2, 17302, Note_on_c, 0, 81, 0
2, 17321, Note_on_c, 0, 81, 56
2, 17325, Note_on_c, 0, 80, 0
2, 17329, Note_on_c, 0, 41, 60
2, 17329, Note_on_c, 0, 45, 59
2, 17329, Note_on_c, 0, 50, 61
2, 17344, Note_on_c, 0, 80, 55
2, 17363, Note_on_c, 0, 81, 0
2, 17373, Note_on_c, 0, 50, 0
2, 17376, Note_on_c, 0, 79, 53
2, 17387, Note_on_c, 0, 80, 0
2, 17393, Control_c, 0, 64, 127
2, 17396, Note_on_c, 0, 41, 0
2, 17396, Note_on_c, 0, 45, 0
2, 17408, Note_on_c, 0, 78, 56
2, 17418, Note_on_c, 0, 79, 0
2, 17423, Note_on_c, 0, 50, 59
2, 17423, Note_on_c, 0, 53, 60
2, 17423, Note_on_c, 0, 57, 56
2, 17431, Note_on_c, 0, 77, 61
2, 17435, Control_c, 0, 64, 0
2, 17448, Note_on_c, 0, 78, 0
2, 17463, Note_on_c, 0, 77, 0
2, 17467, Note_on_c, 0, 78, 65
2, 17472, Note_on_c, 0, 57, 0
2, 17480, Note_on_c, 0, 50, 0
2, 17480, Note_on_c, 0, 53, 0
2, 17493, Note_on_c, 0, 79, 60
2, 17496, Note_on_c, 0, 78, 0
2, 17516, Note_on_c, 0, 80, 59
2, 17520, Note_on_c, 0, 79, 0
2, 17534, Note_on_c, 0, 57, 57
2, 17542, Note_on_c, 0, 48, 59
2, 17542, Note_on_c, 0, 52, 60
2, 17551, Note_on_c, 0, 80, 0
2, 17555, Note_on_c, 0, 81, 66
2, 17574, Note_on_c, 0, 57, 0
2, 17578, Note_on_c, 0, 83, 61
2, 17589, Note_on_c, 0, 81, 0
2, 17597, Note_on_c, 0, 52, 0
2, 17600, Note_on_c, 0, 84, 64
2, 17606, Note_on_c, 0, 48, 0
2, 17612, Note_on_c, 0, 83, 0
2, 17631, Note_on_c, 0, 86, 61
2, 17635, Note_on_c, 0, 84, 0
2, 17648, Note_on_c, 0, 47, 41
2, 17648, Note_on_c, 0, 52, 47
2, 17648, Note_on_c, 0, 56, 46
2, 17648, Note_on_c, 0, 59, 48
2, 17654, Note_on_c, 0, 88, 60
2, 17664, Note_on_c, 0, 86, 0
2, 17677, Note_on_c, 0, 89, 64
2, 17681, Note_on_c, 0, 88, 0
2, 17697, Note_on_c, 0, 59, 0
2, 17697, Note_on_c, 0, 56, 0
2, 17697, Note_on_c, 0, 47, 0
2, 17701, Note_on_c, 0, 88, 59
2, 17705, Note_on_c, 0, 52, 0
2, 17719, Note_on_c, 0, 89, 0
2, 17725, Note_on_c, 0, 87, 63
2, 17729, Note_on_c, 0, 88, 0
2, 17748, Note_on_c, 0, 88, 65
2, 17751, Note_on_c, 0, 87, 0
2, 17755, Note_on_c, 0, 52, 57
2, 17764, Control_c, 0, 64, 127
2, 17764, Note_on_c, 0, 45, 54
2, 17764, Note_on_c, 0, 60, 54
2, 17769, Note_on_c, 0, 87, 46
2, 17795, Note_on_c, 0, 88, 0
2, 17800, Note_on_c, 0, 86, 67
2, 17818, Note_on_c, 0, 87, 0
2, 17823, Note_on_c, 0, 64, 65
2, 17823, Note_on_c, 0, 69, 73
2, 17823, Note_on_c, 0, 72, 69
2, 17831, Note_on_c, 0, 85, 66
2, 17834, Note_on_c, 0, 86, 0
2, 17856, Note_on_c, 0, 85, 0
2, 17861, Note_on_c, 0, 84, 70
2, 17898, Note_on_c, 0, 60, 0
2, 17898, Note_on_c, 0, 45, 0
2, 17901, Note_on_c, 0, 89, 59
2, 17905, Note_on_c, 0, 52, 0
2, 17920, Note_on_c, 0, 72, 0
2, 17920, Note_on_c, 0, 69, 0
2, 17924, Note_on_c, 0, 88, 65
2, 17928, Note_on_c, 0, 89, 0
2, 17928, Note_on_c, 0, 64, 0
2, 17946, Note_on_c, 0, 87, 65
2, 17956, Note_on_c, 0, 88, 0
2, 17964, Note_on_c, 0, 84, 0
2, 17973, Note_on_c, 0, 87, 0
2, 17986, Note_on_c, 0, 45, 53
2, 17986, Note_on_c, 0, 52, 52
2, 17986, Note_on_c, 0, 60, 51
2, 17986, Note_on_c, 0, 88, 71
2, 17999, Control_c, 0, 64, 0
2, 18008, Note_on_c, 0, 87, 62
2, 18012, Note_on_c, 0, 88, 0
2, 18029, Note_on_c, 0, 60, 0
2, 18029, Note_on_c, 0, 45, 0
2, 18033, Note_on_c, 0, 86, 65
2, 18038, Note_on_c, 0, 52, 0
2, 18046, Note_on_c, 0, 87, 0
2, 18067, Note_on_c, 0, 85, 62
2, 18077, Note_on_c, 0, 86, 0
2, 18091, Note_on_c, 0, 42, 55
2, 18091, Note_on_c, 0, 50, 54
2, 18091, Note_on_c, 0, 84, 64
2, 18095, Note_on_c, 0, 85, 0
2, 18098, Note_on_c, 0, 57, 54
2, 18120, Note_on_c, 0, 85, 63
2, 18125, Note_on_c, 0, 42, 0
2, 18125, Note_on_c, 0, 84, 0
2, 18125, Note_on_c, 0, 50, 0
2, 18133, Note_on_c, 0, 57, 0
2, 18145, Note_on_c, 0, 86, 60
2, 18155, Note_on_c, 0, 85, 0
2, 18168, Note_on_c, 0, 87, 60
2, 18178, Note_on_c, 0, 86, 0
2, 18197, Note_on_c, 0, 88, 71
2, 18201, Note_on_c, 0, 87, 0
2, 18207, Note_on_c, 0, 60, 59
2, 18213, Control_c, 0, 64, 127
2, 18213, Note_on_c, 0, 45, 62
2, 18213, Note_on_c, 0, 52, 64
2, 18220, Note_on_c, 0, 87, 69
2, 18242, Note_on_c, 0, 86, 71
2, 18252, Note_on_c, 0, 88, 0
2, 18256, Note_on_c, 0, 64, 59
2, 18256, Note_on_c, 0, 69, 71
2, 18256, Note_on_c, 0, 72, 73
2, 18262, Note_on_c, 0, 87, 0
2, 18271, Note_on_c, 0, 85, 72
2, 18282, Note_on_c, 0, 86, 0
2, 18300, Note_on_c, 0, 84, 67
2, 18305, Note_on_c, 0, 85, 0
2, 18319, Note_on_c, 0, 60, 0
2, 18319, Note_on_c, 0, 45, 0
2, 18319, Note_on_c, 0, 52, 0
2, 18322, Note_on_c, 0, 89, 65
2, 18341, Note_on_c, 0, 69, 0
2, 18341, Note_on_c, 0, 64, 0
2, 18349, Note_on_c, 0, 72, 0
2, 18354, Note_on_c, 0, 88, 64
2, 18357, Note_on_c, 0, 89, 0
2, 18378, Note_on_c, 0, 87, 66
2, 18396, Note_on_c, 0, 88, 0
2, 18396, Note_on_c, 0, 84, 0
2, 18404, Control_c, 0, 64, 0
2, 18411, Note_on_c, 0, 87, 0
2, 18416, Note_on_c, 0, 88, 67
2, 18417, Note_on_c, 0, 60, 52
2, 18425, Note_on_c, 0, 45, 53
2, 18425, Note_on_c, 0, 52, 54
2, 18438, Note_on_c, 0, 87, 64
2, 18449, Note_on_c, 0, 88, 0
2, 18457, Note_on_c, 0, 60, 0
2, 18461, Note_on_c, 0, 86, 61
2, 18472, Note_on_c, 0, 87, 0
2, 18473, Note_on_c, 0, 52, 0
2, 18473, Note_on_c, 0, 45, 0
2, 18491, Note_on_c, 0, 85, 60
2, 18494, Note_on_c, 0, 86, 0
2, 18513, Note_on_c, 0, 84, 60
2, 18518, Note_on_c, 0, 85, 0
2, 18523, Note_on_c, 0, 42, 54
2, 18523, Note_on_c, 0, 50, 49
2, 18523, Note_on_c, 0, 57, 48
2, 18535, Note_on_c, 0, 85, 47
2, 18548, Note_on_c, 0, 84, 0
2, 18564, Note_on_c, 0, 57, 0
2, 18564, Note_on_c, 0, 50, 0
2, 18573, Note_on_c, 0, 42, 0
2, 18576, Note_on_c, 0, 86, 61
2, 18580, Note_on_c, 0, 85, 0
2, 18608, Note_on_c, 0, 87, 65
2, 18613, Note_on_c, 0, 86, 0
2, 18639, Note_on_c, 0, 60, 65
2, 18639, Note_on_c, 0, 88, 74
2, 18642, Control_c, 0, 64, 127
2, 18643, Note_on_c, 0, 87, 0
2, 18648, Note_on_c, 0, 52, 65
2, 18656, Note_on_c, 0, 45, 47
2, 18694, Note_on_c, 0, 80, 59
2, 18716, Note_on_c, 0, 81, 58
2, 18737, Note_on_c, 0, 80, 0
2, 18737, Note_on_c, 0, 88, 0
2, 18738, Note_on_c, 0, 60, 0
2, 18745, Note_on_c, 0, 45, 0
2, 18745, Note_on_c, 0, 52, 0
2, 18753, Note_on_c, 0, 81, 0
2, 18757, Note_on_c, 0, 69, 77
2, 18757, Note_on_c, 0, 82, 78
2, 18770, Control_c, 0, 64, 0
2, 18784, Note_on_c, 0, 82, 0
2, 18785, Note_on_c, 0, 69, 0
2, 18789, Note_on_c, 0, 83, 75
2, 18815, Note_on_c, 0, 65, 75
2, 18818, Note_on_c, 0, 83, 0
2, 18822, Note_on_c, 0, 84, 66
2, 18846, Note_on_c, 0, 85, 67
2, 18857, Note_on_c, 0, 84, 0
2, 18869, Note_on_c, 0, 86, 67
2, 18870, Note_on_c, 0, 62, 81
2, 18873, Note_on_c, 0, 85, 0
2, 18874, Note_on_c, 0, 65, 0
2, 18878, Note_on_c, 0, 53, 72
2, 18878, Note_on_c, 0, 57, 72
2, 18891, Note_on_c, 0, 85, 63
2, 18905, Note_on_c, 0, 62, 0
2, 18909, Note_on_c, 0, 84, 62
2, 18918, Note_on_c, 0, 59, 73
2, 18919, Note_on_c, 0, 57, 0
2, 18919, Note_on_c, 0, 86, 0
2, 18919, Note_on_c, 0, 53, 0
2, 18930, Note_on_c, 0, 83, 66
2, 18934, Note_on_c, 0, 85, 0
2, 18942, Note_on_c, 0, 84, 0
2, 18959, Note_on_c, 0, 59, 0
2, 18962, Note_on_c, 0, 84, 59
2, 18962, Note_on_c, 0, 62, 69
2, 18966, Note_on_c, 0, 83, 0
2, 18974, Control_c, 0, 64, 127
2, 18988, Note_on_c, 0, 83, 59
2, 18998, Note_on_c, 0, 84, 0
2, 19019, Note_on_c, 0, 82, 74
2, 19025, Note_on_c, 0, 65, 76
2, 19035, Note_on_c, 0, 83, 0
2, 19040, Note_on_c, 0, 81, 63
2, 19064, Note_on_c, 0, 52, 54
2, 19065, Note_on_c, 0, 82, 0
2, 19066, Note_on_c, 0, 62, 0
2, 19069, Note_on_c, 0, 60, 60
2, 19069, Note_on_c, 0, 80, 63
2, 19073, Note_on_c, 0, 81, 0
2, 19080, Note_on_c, 0, 65, 0
2, 19095, Note_on_c, 0, 81, 65
2, 19098, Control_c, 0, 64, 0
2, 19101, Note_on_c, 0, 69, 67
2, 19105, Note_on_c, 0, 80, 0
2, 19116, Note_on_c, 0, 82, 68
2, 19127, Note_on_c, 0, 81, 0
2, 19141, Note_on_c, 0, 82, 0
2, 19155, Note_on_c, 0, 83, 68
2, 19176, Note_on_c, 0, 84, 71
2, 19179, Control_c, 0, 64, 127
2, 19182, Note_on_c, 0, 83, 0
2, 19201, Note_on_c, 0, 85, 59
2, 19211, Note_on_c, 0, 84, 0
2, 19224, Note_on_c, 0, 86, 63
2, 19245, Note_on_c, 0, 85, 0
2, 19248, Note_on_c, 0, 52, 0
2, 19260, Note_on_c, 0, 69, 0
2, 19260, Note_on_c, 0, 60, 0
2, 19264, Note_on_c, 0, 87, 64
2, 19268, Note_on_c, 0, 86, 0
2, 19289, Note_on_c, 0, 88, 61
2, 19292, Note_on_c, 0, 87, 0
2, 19296, Note_on_c, 0, 52, 48
2, 19296, Note_on_c, 0, 59, 45
2, 19296, Note_on_c, 0, 68, 66
2, 19301, Control_c, 0, 64, 0
2, 19310, Note_on_c, 0, 89, 62
2, 19315, Note_on_c, 0, 88, 0
2, 19336, Note_on_c, 0, 88, 66
2, 19348, Note_on_c, 0, 89, 0
2, 19358, Note_on_c, 0, 87, 64
2, 19368, Note_on_c, 0, 88, 0
2, 19385, Control_c, 0, 64, 127
2, 19391, Note_on_c, 0, 88, 59
2, 19393, Note_on_c, 0, 87, 0
2, 19421, Note_on_c, 0, 89, 59
2, 19426, Note_on_c, 0, 88, 0
2, 19445, Note_on_c, 0, 88, 64
2, 19456, Note_on_c, 0, 68, 0
2, 19456, Note_on_c, 0, 89, 0
2, 19464, Note_on_c, 0, 52, 0
2, 19464, Note_on_c, 0, 59, 0
2, 19477, Note_on_c, 0, 87, 61
2, 19481, Note_on_c, 0, 88, 0
2, 19489, Control_c, 0, 64, 0
2, 19512, Note_on_c, 0, 87, 0
2, 19516, Note_on_c, 0, 88, 68
2, 19522, Note_on_c, 0, 64, 64
2, 19522, Note_on_c, 0, 69, 65
2, 19531, Note_on_c, 0, 57, 44
2, 19532, Note_on_c, 0, 60, 43
2, 19568, Control_c, 0, 64, 127
2, 19576, Note_on_c, 0, 92, 60
2, 19599, Note_on_c, 0, 93, 61
2, 19609, Note_on_c, 0, 92, 0
2, 19629, Note_on_c, 0, 81, 72
2, 19632, Note_on_c, 0, 69, 0
2, 19632, Note_on_c, 0, 93, 0
2, 19632, Note_on_c, 0, 88, 0
2, 19641, Note_on_c, 0, 57, 0
2, 19641, Note_on_c, 0, 60, 0
2, 19644, Note_on_c, 0, 94, 64
2, 19648, Note_on_c, 0, 64, 0
2, 19660, Note_on_c, 0, 95, 63
2, 19664, Note_on_c, 0, 81, 0
2, 19673, Control_c, 0, 64, 0
2, 19676, Note_on_c, 0, 77, 68
2, 19683, Note_on_c, 0, 96, 70
2, 19694, Note_on_c, 0, 94, 0
2, 19695, Note_on_c, 0, 95, 0
2, 19707, Note_on_c, 0, 97, 65
2, 19710, Note_on_c, 0, 77, 0
2, 19727, Note_on_c, 0, 96, 0
2, 19731, Note_on_c, 0, 69, 65
2, 19731, Note_on_c, 0, 74, 64
2, 19731, Note_on_c, 0, 98, 61
2, 19741, Note_on_c, 0, 65, 60
2, 19742, Note_on_c, 0, 97, 0
2, 19758, Note_on_c, 0, 98, 0
2, 19758, Note_on_c, 0, 69, 0
2, 19758, Note_on_c, 0, 74, 0
2, 19762, Note_on_c, 0, 97, 62
2, 19775, Note_on_c, 0, 65, 0
2, 19785, Note_on_c, 0, 71, 63
2, 19793, Note_on_c, 0, 96, 65
2, 19797, Note_on_c, 0, 97, 0
2, 19818, Note_on_c, 0, 95, 67
2, 19828, Note_on_c, 0, 96, 0
2, 19828, Note_on_c, 0, 71, 0
2, 19841, Note_on_c, 0, 74, 67
2, 19851, Note_on_c, 0, 95, 0
2, 19855, Note_on_c, 0, 96, 61
2, 19873, Note_on_c, 0, 74, 0
2, 19877, Note_on_c, 0, 95, 59
2, 19894, Note_on_c, 0, 77, 61
2, 19894, Note_on_c, 0, 94, 65
2, 19897, Note_on_c, 0, 96, 0
2, 19905, Note_on_c, 0, 95, 0
2, 19910, Note_on_c, 0, 64, 46
2, 19916, Note_on_c, 0, 93, 65
2, 19926, Note_on_c, 0, 77, 0
2, 19934, Note_on_c, 0, 94, 0
2, 19938, Note_on_c, 0, 72, 61
2, 19948, Note_on_c, 0, 93, 0
2, 19953, Note_on_c, 0, 81, 72
2, 19953, Note_on_c, 0, 92, 69
2, 19977, Note_on_c, 0, 93, 60
2, 19987, Note_on_c, 0, 92, 0
2, 19999, Note_on_c, 0, 94, 59
2, 20000, Control_c, 0, 64, 127
2, 20009, Note_on_c, 0, 93, 0
2, 20018, Note_on_c, 0, 95, 61
2, 20023, Note_on_c, 0, 94, 0
2, 20042, Note_on_c, 0, 96, 64
2, 20053, Note_on_c, 0, 95, 0
2, 20065, Note_on_c, 0, 97, 66
2, 20083, Note_on_c, 0, 96, 0
2, 20087, Note_on_c, 0, 98, 63
2, 20091, Note_on_c, 0, 64, 0
2, 20105, Note_on_c, 0, 97, 0
2, 20106, Note_on_c, 0, 72, 0
2, 20112, Note_on_c, 0, 81, 0
2, 20115, Note_on_c, 0, 99, 61
2, 20129, Note_on_c, 0, 98, 0
2, 20147, Note_on_c, 0, 100, 63
2, 20148, Note_on_c, 0, 64, 42
2, 20156, Note_on_c, 0, 71, 60
2, 20156, Note_on_c, 0, 80, 63
2, 20159, Note_on_c, 0, 99, 0
2, 20161, Control_c, 0, 64, 0
2, 20171, Note_on_c, 0, 101, 65
2, 20175, Note_on_c, 0, 100, 0
2, 20206, Note_on_c, 0, 100, 60
2, 20216, Note_on_c, 0, 101, 0
2, 20229, Note_on_c, 0, 99, 59
2, 20232, Note_on_c, 0, 100, 0
2, 20249, Control_c, 0, 64, 127
2, 20261, Note_on_c, 0, 100, 59
2, 20262, Note_on_c, 0, 99, 0
2, 20288, Note_on_c, 0, 80, 0
2, 20292, Note_on_c, 0, 102, 66
2, 20296, Note_on_c, 0, 100, 0
2, 20297, Note_on_c, 0, 71, 0
2, 20305, Note_on_c, 0, 64, 0
2, 20308, Control_c, 0, 64, 0
2, 20327, Note_on_c, 0, 103, 62
2, 20329, Note_on_c, 0, 102, 0
2, 20355, Note_on_c, 0, 103, 0
2, 20383, Note_on_c, 0, 69, 66
2, 20383, Note_on_c, 0, 72, 62
2, 20383, Note_on_c, 0, 76, 60
2, 20383, Note_on_c, 0, 81, 59
2, 20425, Note_on_c, 0, 81, 0
2, 20425, Note_on_c, 0, 69, 0
2, 20425, Note_on_c, 0, 72, 0
2, 20425, Note_on_c, 0, 76, 0
2, 20445, Note_on_c, 0, 103, 60
2, 20472, Note_on_c, 0, 103, 0
2, 20476, Note_on_c, 0, 102, 66
2, 20485, Control_c, 0, 67, 127
2, 20503, Note_on_c, 0, 102, 0
2, 20507, Note_on_c, 0, 103, 65
2, 20523, Note_on_c, 0, 57, 47
2, 20523, Note_on_c, 0, 67, 71
2, 20523, Note_on_c, 0, 70, 67
2, 20524, Note_on_c, 0, 61, 46
2, 20528, Note_on_c, 0, 103, 0
2, 20539, Note_on_c, 0, 102, 72
2, 20557, Note_on_c, 0, 70, 0
2, 20557, Note_on_c, 0, 61, 0
2, 20557, Note_on_c, 0, 57, 0
2, 20557, Note_on_c, 0, 67, 0
2, 20561, Note_on_c, 0, 101, 63
2, 20564, Note_on_c, 0, 102, 0
2, 20586, Note_on_c, 0, 101, 0
2, 20592, Note_on_c, 0, 100, 60
2, 20615, Note_on_c, 0, 101, 59
2, 20625, Note_on_c, 0, 100, 0
2, 20630, Note_on_c, 0, 57, 47
2, 20630, Note_on_c, 0, 62, 42
2, 20630, Note_on_c, 0, 65, 64
2, 20630, Note_on_c, 0, 69, 64
2, 20643, Note_on_c, 0, 100, 63
2, 20663, Note_on_c, 0, 101, 0
2, 20665, Note_on_c, 0, 99, 66
2, 20676, Note_on_c, 0, 69, 0
2, 20677, Note_on_c, 0, 57, 0
2, 20685, Note_on_c, 0, 100, 0
2, 20686, Note_on_c, 0, 65, 0
2, 20686, Note_on_c, 0, 62, 0
2, 20698, Note_on_c, 0, 98, 72
2, 20699, Note_on_c, 0, 99, 0
2, 20730, Note_on_c, 0, 97, 71
2, 20733, Note_on_c, 0, 98, 0
2, 20754, Note_on_c, 0, 96, 67
2, 20764, Note_on_c, 0, 97, 0
2, 20775, Note_on_c, 0, 95, 69
2, 20788, Note_on_c, 0, 96, 0
2, 20808, Note_on_c, 0, 94, 72
2, 20810, Note_on_c, 0, 95, 0
2, 20832, Note_on_c, 0, 93, 66
2, 20840, Note_on_c, 0, 64, 59
2, 20840, Note_on_c, 0, 69, 70
2, 20844, Note_on_c, 0, 94, 0
2, 20849, Note_on_c, 0, 57, 55
2, 20849, Note_on_c, 0, 60, 57
2, 20862, Note_on_c, 0, 92, 64
2, 20873, Note_on_c, 0, 93, 0
2, 20882, Note_on_c, 0, 69, 0
2, 20886, Note_on_c, 0, 91, 61
2, 20889, Note_on_c, 0, 64, 0
2, 20890, Note_on_c, 0, 57, 0
2, 20890, Note_on_c, 0, 60, 0
2, 20899, Note_on_c, 0, 92, 0
2, 20926, Note_on_c, 0, 90, 68
2, 20936, Note_on_c, 0, 91, 0
2, 20955, Note_on_c, 0, 91, 67
2, 20959, Note_on_c, 0, 90, 0
2, 20974, Note_on_c, 0, 61, 66
2, 20979, Note_on_c, 0, 45, 45
2, 20979, Note_on_c, 0, 52, 42
2, 20987, Note_on_c, 0, 90, 67
2, 20997, Control_c, 0, 64, 127
2, 21005, Note_on_c, 0, 91, 0
2, 21013, Note_on_c, 0, 90, 0
2, 21018, Note_on_c, 0, 89, 61
2, 21044, Note_on_c, 0, 45, 0
2, 21048, Note_on_c, 0, 88, 67
2, 21051, Note_on_c, 0, 89, 0
2, 21052, Note_on_c, 0, 61, 0
2, 21052, Control_c, 0, 64, 0
2, 21065, Note_on_c, 0, 45, 43
2, 21068, Note_on_c, 0, 52, 0
2, 21080, Note_on_c, 0, 89, 65
2, 21081, Note_on_c, 0, 53, 53
2, 21085, Note_on_c, 0, 88, 0
2, 21096, Note_on_c, 0, 62, 60
2, 21112, Note_on_c, 0, 88, 59
2, 21116, Note_on_c, 0, 89, 0
2, 21135, Note_on_c, 0, 87, 60
2, 21143, Control_c, 0, 64, 127
2, 21146, Note_on_c, 0, 88, 0
2, 21159, Note_on_c, 0, 86, 61
2, 21169, Note_on_c, 0, 87, 0
2, 21189, Note_on_c, 0, 85, 63
2, 21198, Note_on_c, 0, 86, 0
2, 21213, Note_on_c, 0, 84, 63
2, 21230, Note_on_c, 0, 85, 0
2, 21242, Note_on_c, 0, 83, 63
2, 21246, Note_on_c, 0, 62, 0
2, 21246, Note_on_c, 0, 84, 0
2, 21246, Note_on_c, 0, 53, 0
2, 21246, Note_on_c, 0, 45, 0
2, 21273, Note_on_c, 0, 82, 66
2, 21278, Note_on_c, 0, 83, 0
2, 21294, Control_c, 0, 64, 0
2, 21305, Note_on_c, 0, 52, 53
2, 21305, Note_on_c, 0, 60, 54
2, 21305, Note_on_c, 0, 81, 62
2, 21309, Note_on_c, 0, 82, 0
2, 21313, Note_on_c, 0, 45, 47
2, 21327, Note_on_c, 0, 82, 59
2, 21331, Note_on_c, 0, 81, 0
2, 21352, Note_on_c, 0, 81, 64
2, 21361, Note_on_c, 0, 82, 0
2, 21374, Note_on_c, 0, 80, 61
2, 21384, Note_on_c, 0, 81, 0
2, 21407, Note_on_c, 0, 80, 0
2, 21410, Note_on_c, 0, 68, 74
2, 21410, Note_on_c, 0, 81, 74
2, 21419, Control_c, 0, 64, 127
2, 21441, Note_on_c, 0, 69, 72
2, 21441, Note_on_c, 0, 82, 74
2, 21445, Note_on_c, 0, 81, 0
2, 21445, Note_on_c, 0, 68, 0
2, 21464, Note_on_c, 0, 68, 59
2, 21464, Note_on_c, 0, 81, 66
2, 21468, Note_on_c, 0, 69, 0
2, 21468, Note_on_c, 0, 82, 0
2, 21473, Control_c, 0, 67, 0
2, 21494, Note_on_c, 0, 69, 61
2, 21494, Note_on_c, 0, 80, 60
2, 21498, Note_on_c, 0, 68, 0
2, 21498, Note_on_c, 0, 60, 0
2, 21498, Note_on_c, 0, 45, 0
2, 21498, Note_on_c, 0, 81, 0
2, 21506, Note_on_c, 0, 52, 0
2, 21521, Note_on_c, 0, 80, 0
2, 21521, Note_on_c, 0, 69, 0
2, 21525, Note_on_c, 0, 68, 64
2, 21525, Note_on_c, 0, 81, 62
2, 21551, Note_on_c, 0, 68, 0
2, 21556, Note_on_c, 0, 69, 65
2, 21560, Note_on_c, 0, 81, 0
2, 21575, Note_on_c, 0, 69, 0
2, 21579, Note_on_c, 0, 67, 61
2, 21579, Note_on_c, 0, 82, 65
2, 21606, Note_on_c, 0, 82, 0
2, 21607, Note_on_c, 0, 67, 0
2, 21610, Note_on_c, 0, 83, 65
2, 21613, Note_on_c, 0, 69, 64
2, 21634, Note_on_c, 0, 66, 64
2, 21634, Note_on_c, 0, 84, 63
2, 21638, Note_on_c, 0, 69, 0
2, 21638, Note_on_c, 0, 83, 0
2, 21665, Note_on_c, 0, 69, 62
2, 21665, Note_on_c, 0, 85, 62
2, 21669, Note_on_c, 0, 84, 0
2, 21678, Note_on_c, 0, 66, 0
2, 21691, Note_on_c, 0, 86, 65
2, 21695, Note_on_c, 0, 69, 0
2, 21698, Note_on_c, 0, 65, 61
2, 21709, Note_on_c, 0, 85, 0
2, 21721, Note_on_c, 0, 87, 66
2, 21722, Note_on_c, 0, 69, 62
2, 21733, Note_on_c, 0, 86, 0
2, 21734, Note_on_c, 0, 65, 0
2, 21748, Note_on_c, 0, 69, 0
2, 21749, Control_c, 0, 64, 0
2, 21758, Note_on_c, 0, 88, 87
2, 21768, Note_on_c, 0, 87, 0
2, 21768, Note_on_c, 0, 64, 69
2, 21768, Note_on_c, 0, 69, 84
2, 21768, Note_on_c, 0, 72, 84
2, 21785, Note_on_c, 0, 88, 0
2, 21789, Note_on_c, 0, 89, 69
2, 21793, Note_on_c, 0, 64, 0
2, 21793, Note_on_c, 0, 69, 0
2, 21799, Note_on_c, 0, 72, 0
2, 21814, Note_on_c, 0, 88, 65
2, 21824, Note_on_c, 0, 89, 0
2, 21837, Note_on_c, 0, 87, 68
2, 21849, Note_on_c, 0, 88, 0
2, 21854, Control_c, 0, 64, 127
2, 21863, Note_on_c, 0, 75, 68
2, 21868, Note_on_c, 0, 88, 62
2, 21873, Note_on_c, 0, 87, 0
2, 21884, Note_on_c, 0, 76, 68
2, 21893, Note_on_c, 0, 89, 69
2, 21894, Note_on_c, 0, 75, 0
2, 21904, Note_on_c, 0, 88, 0
2, 21914, Note_on_c, 0, 75, 69
2, 21922, Note_on_c, 0, 88, 66
2, 21926, Note_on_c, 0, 76, 0
2, 21926, Note_on_c, 0, 89, 0
2, 21947, Note_on_c, 0, 76, 68
2, 21947, Note_on_c, 0, 87, 64
2, 21951, Note_on_c, 0, 75, 0
2, 21952, Note_on_c, 0, 88, 0
2, 21971, Note_on_c, 0, 88, 63
2, 21972, Note_on_c, 0, 75, 68
2, 21983, Note_on_c, 0, 76, 0
2, 21983, Note_on_c, 0, 87, 0
2, 22001, Note_on_c, 0, 76, 69
2, 22011, Note_on_c, 0, 88, 0
2, 22011, Note_on_c, 0, 75, 0
2, 22024, Note_on_c, 0, 74, 69
2, 22024, Note_on_c, 0, 87, 69
2, 22037, Note_on_c, 0, 76, 0
2, 22048, Note_on_c, 0, 88, 66
2, 22056, Note_on_c, 0, 76, 67
2, 22066, Note_on_c, 0, 87, 0
2, 22067, Note_on_c, 0, 74, 0
2, 22072, Note_on_c, 0, 72, 67
2, 22077, Note_on_c, 0, 89, 67
2, 22081, Note_on_c, 0, 76, 0
2, 22098, Note_on_c, 0, 88, 0
2, 22103, Note_on_c, 0, 76, 65
2, 22110, Note_on_c, 0, 90, 68
2, 22120, Note_on_c, 0, 89, 0
2, 22132, Note_on_c, 0, 71, 66
2, 22132, Note_on_c, 0, 91, 68
2, 22137, Note_on_c, 0, 72, 0
2, 22143, Note_on_c, 0, 90, 0
2, 22144, Note_on_c, 0, 76, 0
2, 22163, Note_on_c, 0, 76, 67
2, 22163, Note_on_c, 0, 92, 65
2, 22166, Note_on_c, 0, 91, 0
2, 22182, Note_on_c, 0, 71, 0
2, 22182, Note_on_c, 0, 76, 0
2, 22183, Control_c, 0, 64, 0
2, 22191, Note_on_c, 0, 92, 0
2, 22203, Note_on_c, 0, 72, 77
2, 22203, Note_on_c, 0, 76, 82
2, 22203, Note_on_c, 0, 93, 79
2, 22211, Note_on_c, 0, 69, 84
2, 22232, Note_on_c, 0, 69, 0
2, 22238, Note_on_c, 0, 93, 0
2, 22239, Note_on_c, 0, 76, 0
2, 22239, Note_on_c, 0, 72, 0
2, 22321, Control_c, 0, 64, 127
2, 22336, Note_on_c, 0, 76, 59
2, 22360, Note_on_c, 0, 77, 64
2, 22370, Note_on_c, 0, 76, 0
2, 22381, Note_on_c, 0, 78, 63
2, 22393, Note_on_c, 0, 77, 0
2, 22406, Note_on_c, 0, 79, 66
2, 22416, Note_on_c, 0, 78, 0
2, 22436, Note_on_c, 0, 80, 66
2, 22440, Note_on_c, 0, 79, 0
2, 22462, Note_on_c, 0, 81, 66
2, 22472, Note_on_c, 0, 80, 0
2, 22491, Note_on_c, 0, 82, 61
2, 22492, Note_on_c, 0, 81, 0
2, 22521, Note_on_c, 0, 83, 66
2, 22525, Note_on_c, 0, 82, 0
2, 22552, Note_on_c, 0, 84, 64
2, 22557, Note_on_c, 0, 83, 0
2, 22578, Note_on_c, 0, 85, 62
2, 22579, Note_on_c, 0, 84, 0
2, 22598, Note_on_c, 0, 86, 62
2, 22608, Note_on_c, 0, 85, 0
2, 22623, Note_on_c, 0, 87, 65
2, 22632, Note_on_c, 0, 86, 0
2, 22652, Note_on_c, 0, 57, 41
2, 22656, Note_on_c, 0, 87, 0
2, 22656, Control_c, 0, 64, 0
2, 22660, Note_on_c, 0, 64, 43
2, 22661, Note_on_c, 0, 88, 62
2, 22669, Note_on_c, 0, 72, 66
2, 22683, Note_on_c, 0, 89, 62
2, 22694, Note_on_c, 0, 88, 0
2, 22712, Note_on_c, 0, 90, 60
2, 22716, Note_on_c, 0, 89, 0
2, 22734, Note_on_c, 0, 91, 65
2, 22744, Note_on_c, 0, 90, 0
2, 22753, Note_on_c, 0, 64, 0
2, 22756, Note_on_c, 0, 92, 66
2, 22767, Note_on_c, 0, 91, 0
2, 22777, Note_on_c, 0, 64, 48
2, 22778, Control_c, 0, 64, 127
2, 22784, Note_on_c, 0, 93, 62
2, 22797, Note_on_c, 0, 92, 0
2, 22797, Note_on_c, 0, 72, 0
2, 22807, Note_on_c, 0, 94, 65
2, 22818, Note_on_c, 0, 93, 0
2, 22823, Note_on_c, 0, 72, 65
2, 22837, Note_on_c, 0, 95, 60
2, 22841, Note_on_c, 0, 94, 0
2, 22860, Note_on_c, 0, 81, 61
2, 22864, Note_on_c, 0, 57, 0
2, 22868, Note_on_c, 0, 96, 67
2, 22872, Note_on_c, 0, 95, 0
2, 22872, Note_on_c, 0, 64, 0
2, 22891, Note_on_c, 0, 97, 61
2, 22894, Note_on_c, 0, 96, 0
2, 22906, Note_on_c, 0, 88, 65
2, 22910, Note_on_c, 0, 72, 0
2, 22915, Note_on_c, 0, 98, 61
2, 22918, Note_on_c, 0, 97, 0
2, 22940, Note_on_c, 0, 87, 68
2, 22940, Note_on_c, 0, 99, 63
2, 22941, Note_on_c, 0, 98, 0
2, 22942, Note_on_c, 0, 81, 0
2, 22956, Note_on_c, 0, 88, 0
2, 22964, Note_on_c, 0, 99, 0
2, 22968, Note_on_c, 0, 86, 68
2, 22968, Note_on_c, 0, 100, 66
2, 22973, Note_on_c, 0, 87, 0
2, 22992, Note_on_c, 0, 85, 62
2, 22992, Note_on_c, 0, 102, 68
2, 22996, Note_on_c, 0, 100, 0
2, 23004, Note_on_c, 0, 86, 0
2, 23022, Note_on_c, 0, 103, 63
2, 23023, Note_on_c, 0, 84, 67
2, 23027, Note_on_c, 0, 102, 0
2, 23033, Note_on_c, 0, 85, 0
2, 23045, Note_on_c, 0, 83, 62
2, 23056, Note_on_c, 0, 103, 0
2, 23057, Control_c, 0, 64, 0
2, 23071, Note_on_c, 0, 84, 0
2, 23074, Note_on_c, 0, 81, 85
2, 23074, Note_on_c, 0, 88, 82
2, 23074, Note_on_c, 0, 96, 82
2, 23079, Note_on_c, 0, 83, 0
2, 23101, Note_on_c, 0, 96, 0
2, 23101, Note_on_c, 0, 88, 0
2, 23109, Note_on_c, 0, 81, 0
2, 23208, Control_c, 0, 64, 127
2, 23424, Note_on_c, 0, 52, 87
2, 23424, Note_on_c, 0, 57, 82
2, 23424, Note_on_c, 0, 64, 84
2, 23424, Note_on_c, 0, 72, 89
2, 23424, Note_on_c, 0, 81, 87
2, 23432, Note_on_c, 0, 69, 83
2, 23432, Note_on_c, 0, 76, 83
2, 23433, Note_on_c, 0, 60, 87
2, 23456, Note_on_c, 0, 76, 0
2, 23456, Note_on_c, 0, 81, 0
2, 23457, Note_on_c, 0, 69, 0
2, 23457, Note_on_c, 0, 72, 0
2, 23457, Note_on_c, 0, 64, 0
2, 23457, Note_on_c, 0, 57, 0
2, 23465, Note_on_c, 0, 60, 0
2, 23466, Note_on_c, 0, 52, 0
2, 23508, Control_c, 0, 67, 127
2, 23823, Note_on_c, 0, 57, 47
2, 23837, Note_on_c, 0, 33, 48
2, 23850, Control_c, 0, 64, 0
2, 23895, Note_on_c, 0, 57, 0
2, 23918, Control_c, 0, 67, 0
2, 23936, Note_on_c, 0, 33, 0
2, 23936, End_track
3, 0, Start_track
3, 0, Title_t, "c/b Rimsky-Korsakoff"
3, 0, End_track
4, 0, Start_track
4, 0, Title_t, "p/b Sergei Rachmaninoff"
4, 0, End_track
5, 0, Start_track
5, 0, Title_t, "Ampico # 70301"
5, 0, End_track
6, 0, Start_track
6, 0, Title_t, "Scan of a player piano roll"
6, 0, End_track
7, 0, Start_track
7, 0, Title_t, "by Terry Smythe, Winnipeg, Canada"
7, 0, End_track
0, 0, End_of_file
