0, 0, Header, 1, 7, 192
1, 0, Start_track
1, 0, Title_t, """Minuet (from L'arlesienne Suite No. 1), Bizet-Rachmaninoff played by Sergei Rachmaninoff c""  "
1, 0, Text_t, "Roll expression/accent tracks, where present, converted to MIDI velocties.\012"
1, 0, Time_signature, 4, 2, 24, 8
1, 0, Key_signature, 0, "major"
1, 0, Tempo, 500000
1, 0, Marker_t, "Standard MIDI:LPI 126:Tempo  100: 07-21-2003"
1, 0, End_track
2, 0, Start_track
2, 0, Title_t, "Minuet (L'Arlesienne)"
2, 12, Control_c, 0, 67, 127
2, 40, Control_c, 0, 67, 0
2, 78, Note_on_c, 0, 71, 52
2, 78, Note_on_c, 0, 74, 51
2, 78, Note_on_c, 0, 78, 51
2, 94, Note_on_c, 0, 74, 0
2, 98, Note_on_c, 0, 71, 0
2, 106, Note_on_c, 0, 78, 0
2, 222, Note_on_c, 0, 71, 47
2, 222, Note_on_c, 0, 74, 53
2, 224, Note_on_c, 0, 78, 53
2, 237, Note_on_c, 0, 74, 0
2, 242, Note_on_c, 0, 71, 0
2, 248, Note_on_c, 0, 78, 0
2, 272, Control_c, 0, 67, 127
2, 330, Control_c, 0, 67, 0
2, 350, Note_on_c, 0, 71, 53
2, 350, Note_on_c, 0, 74, 53
2, 350, Note_on_c, 0, 78, 49
2, 363, Note_on_c, 0, 71, 0
2, 365, Note_on_c, 0, 74, 0
2, 376, Note_on_c, 0, 78, 0
2, 405, Control_c, 0, 67, 127
2, 431, Control_c, 0, 67, 0
2, 473, Note_on_c, 0, 69, 48
2, 473, Note_on_c, 0, 78, 43
2, 479, Note_on_c, 0, 71, 45
2, 480, Note_on_c, 0, 74, 47
2, 553, Note_on_c, 0, 74, 0
2, 553, Note_on_c, 0, 69, 0
2, 553, Note_on_c, 0, 78, 0
2, 553, Note_on_c, 0, 71, 0
2, 575, Control_c, 0, 67, 127
2, 577, Note_on_c, 0, 76, 63
2, 580, Note_on_c, 0, 79, 64
2, 600, Note_on_c, 0, 69, 61
2, 600, Note_on_c, 0, 71, 61
2, 600, Note_on_c, 0, 74, 65
2, 600, Note_on_c, 0, 78, 65
2, 602, Note_on_c, 0, 79, 0
2, 602, Note_on_c, 0, 76, 0
2, 604, Control_c, 0, 67, 0
2, 628, Note_on_c, 0, 74, 0
2, 628, Note_on_c, 0, 71, 0
2, 628, Note_on_c, 0, 78, 0
2, 628, Note_on_c, 0, 69, 0
2, 652, Note_on_c, 0, 73, 66
2, 654, Note_on_c, 0, 76, 69
2, 694, Note_on_c, 0, 76, 0
2, 696, Note_on_c, 0, 73, 0
2, 708, Note_on_c, 0, 69, 70
2, 708, Note_on_c, 0, 71, 65
2, 708, Note_on_c, 0, 74, 69
2, 708, Note_on_c, 0, 78, 65
2, 729, Note_on_c, 0, 78, 0
2, 729, Note_on_c, 0, 69, 0
2, 729, Note_on_c, 0, 71, 0
2, 729, Note_on_c, 0, 74, 0
2, 761, Note_on_c, 0, 76, 67
2, 761, Note_on_c, 0, 79, 68
2, 782, Note_on_c, 0, 76, 0
2, 785, Note_on_c, 0, 79, 0
2, 823, Note_on_c, 0, 67, 48
2, 823, Note_on_c, 0, 78, 44
2, 831, Note_on_c, 0, 71, 43
2, 831, Note_on_c, 0, 74, 42
2, 883, Note_on_c, 0, 71, 0
2, 885, Note_on_c, 0, 67, 0
2, 885, Note_on_c, 0, 78, 0
2, 885, Note_on_c, 0, 74, 0
2, 916, Note_on_c, 0, 76, 64
2, 916, Note_on_c, 0, 79, 61
2, 933, Control_c, 0, 67, 127
2, 937, Note_on_c, 0, 67, 64
2, 937, Note_on_c, 0, 71, 60
2, 937, Note_on_c, 0, 74, 60
2, 937, Note_on_c, 0, 78, 63
2, 945, Note_on_c, 0, 79, 0
2, 945, Note_on_c, 0, 76, 0
2, 960, Control_c, 0, 67, 0
2, 965, Note_on_c, 0, 74, 0
2, 965, Note_on_c, 0, 78, 0
2, 971, Note_on_c, 0, 71, 0
2, 971, Note_on_c, 0, 67, 0
2, 987, Note_on_c, 0, 73, 67
2, 987, Note_on_c, 0, 76, 72
2, 1010, Note_on_c, 0, 76, 0
2, 1010, Note_on_c, 0, 73, 0
2, 1042, Note_on_c, 0, 67, 68
2, 1042, Note_on_c, 0, 71, 65
2, 1042, Note_on_c, 0, 74, 69
2, 1042, Note_on_c, 0, 78, 70
2, 1062, Note_on_c, 0, 78, 0
2, 1062, Note_on_c, 0, 67, 0
2, 1062, Note_on_c, 0, 71, 0
2, 1062, Note_on_c, 0, 74, 0
2, 1104, Note_on_c, 0, 76, 72
2, 1104, Note_on_c, 0, 79, 68
2, 1124, Note_on_c, 0, 79, 0
2, 1124, Note_on_c, 0, 76, 0
2, 1157, Note_on_c, 0, 66, 45
2, 1157, Note_on_c, 0, 69, 44
2, 1157, Note_on_c, 0, 74, 43
2, 1159, Note_on_c, 0, 78, 44
2, 1159, Note_on_c, 0, 81, 43
2, 1185, Control_c, 0, 67, 127
2, 1243, Control_c, 0, 67, 0
2, 1258, Note_on_c, 0, 78, 0
2, 1258, Note_on_c, 0, 74, 0
2, 1260, Note_on_c, 0, 81, 0
2, 1263, Note_on_c, 0, 79, 41
2, 1263, Note_on_c, 0, 83, 44
2, 1276, Note_on_c, 0, 69, 0
2, 1284, Note_on_c, 0, 83, 0
2, 1284, Note_on_c, 0, 79, 0
2, 1295, Note_on_c, 0, 66, 0
2, 1316, Note_on_c, 0, 81, 43
2, 1316, Note_on_c, 0, 85, 46
2, 1336, Note_on_c, 0, 85, 0
2, 1336, Note_on_c, 0, 81, 0
2, 1367, Note_on_c, 0, 83, 48
2, 1367, Note_on_c, 0, 86, 46
2, 1371, Control_c, 0, 64, 127
2, 1388, Note_on_c, 0, 83, 0
2, 1390, Note_on_c, 0, 86, 0
2, 1406, Control_c, 0, 64, 0
2, 1419, Note_on_c, 0, 81, 41
2, 1419, Note_on_c, 0, 85, 47
2, 1440, Note_on_c, 0, 85, 0
2, 1440, Note_on_c, 0, 81, 0
2, 1450, Note_on_c, 0, 31, 69
2, 1458, Note_on_c, 0, 43, 71
2, 1465, Note_on_c, 0, 79, 41
2, 1465, Note_on_c, 0, 83, 42
2, 1478, Note_on_c, 0, 31, 0
2, 1480, Note_on_c, 0, 79, 0
2, 1486, Note_on_c, 0, 43, 0
2, 1486, Note_on_c, 0, 83, 0
2, 1486, Control_c, 0, 67, 127
2, 1517, Note_on_c, 0, 78, 41
2, 1517, Note_on_c, 0, 81, 45
2, 1531, Note_on_c, 0, 78, 0
2, 1536, Note_on_c, 0, 81, 0
2, 1546, Control_c, 0, 67, 0
2, 1566, Note_on_c, 0, 52, 71
2, 1566, Note_on_c, 0, 59, 65
2, 1566, Note_on_c, 0, 62, 66
2, 1566, Note_on_c, 0, 76, 64
2, 1566, Note_on_c, 0, 79, 62
2, 1586, Note_on_c, 0, 52, 0
2, 1588, Note_on_c, 0, 76, 0
2, 1588, Note_on_c, 0, 59, 0
2, 1588, Note_on_c, 0, 62, 0
2, 1594, Note_on_c, 0, 79, 0
2, 1610, Note_on_c, 0, 74, 59
2, 1612, Note_on_c, 0, 78, 65
2, 1628, Note_on_c, 0, 74, 0
2, 1633, Note_on_c, 0, 78, 0
2, 1664, Note_on_c, 0, 52, 68
2, 1664, Note_on_c, 0, 64, 66
2, 1666, Note_on_c, 0, 59, 67
2, 1666, Note_on_c, 0, 62, 65
2, 1666, Note_on_c, 0, 73, 63
2, 1668, Note_on_c, 0, 76, 60
2, 1680, Note_on_c, 0, 73, 0
2, 1686, Note_on_c, 0, 76, 0
2, 1691, Note_on_c, 0, 64, 0
2, 1693, Note_on_c, 0, 52, 0
2, 1693, Note_on_c, 0, 59, 0
2, 1693, Note_on_c, 0, 62, 0
2, 1717, Note_on_c, 0, 71, 61
2, 1717, Note_on_c, 0, 74, 64
2, 1738, Note_on_c, 0, 71, 0
2, 1748, Note_on_c, 0, 33, 65
2, 1752, Note_on_c, 0, 74, 0
2, 1762, Note_on_c, 0, 45, 67
2, 1770, Note_on_c, 0, 69, 65
2, 1770, Note_on_c, 0, 73, 61
2, 1776, Note_on_c, 0, 33, 0
2, 1783, Note_on_c, 0, 69, 0
2, 1789, Note_on_c, 0, 45, 0
2, 1791, Note_on_c, 0, 73, 0
2, 1804, Control_c, 0, 67, 127
2, 1812, Note_on_c, 0, 67, 59
2, 1812, Note_on_c, 0, 71, 62
2, 1827, Note_on_c, 0, 67, 0
2, 1835, Note_on_c, 0, 71, 0
2, 1845, Control_c, 0, 67, 0
2, 1866, Note_on_c, 0, 50, 69
2, 1866, Note_on_c, 0, 54, 71
2, 1866, Note_on_c, 0, 66, 66
2, 1866, Note_on_c, 0, 69, 61
2, 1887, Note_on_c, 0, 66, 0
2, 1887, Note_on_c, 0, 50, 0
2, 1887, Note_on_c, 0, 54, 0
2, 1895, Note_on_c, 0, 69, 0
2, 1913, Note_on_c, 0, 64, 72
2, 1913, Note_on_c, 0, 67, 59
2, 1934, Note_on_c, 0, 64, 0
2, 1942, Note_on_c, 0, 67, 0
2, 1966, Note_on_c, 0, 50, 67
2, 1966, Note_on_c, 0, 54, 66
2, 1966, Note_on_c, 0, 57, 68
2, 1966, Note_on_c, 0, 62, 66
2, 1966, Note_on_c, 0, 66, 66
2, 1992, Note_on_c, 0, 62, 0
2, 1992, Note_on_c, 0, 57, 0
2, 1992, Note_on_c, 0, 50, 0
2, 1992, Note_on_c, 0, 54, 0
2, 1993, Note_on_c, 0, 66, 0
2, 2022, Control_c, 0, 64, 127
2, 2056, Control_c, 0, 64, 0
2, 2076, Note_on_c, 0, 45, 69
2, 2076, Note_on_c, 0, 52, 68
2, 2076, Note_on_c, 0, 61, 71
2, 2076, Note_on_c, 0, 67, 65
2, 2089, Note_on_c, 0, 61, 0
2, 2089, Note_on_c, 0, 45, 0
2, 2097, Note_on_c, 0, 52, 0
2, 2097, Note_on_c, 0, 67, 0
2, 2118, Note_on_c, 0, 45, 68
2, 2118, Note_on_c, 0, 54, 68
2, 2118, Note_on_c, 0, 61, 70
2, 2118, Note_on_c, 0, 69, 60
2, 2132, Note_on_c, 0, 61, 0
2, 2134, Note_on_c, 0, 45, 0
2, 2139, Note_on_c, 0, 54, 0
2, 2139, Note_on_c, 0, 69, 0
2, 2163, Note_on_c, 0, 45, 68
2, 2163, Note_on_c, 0, 55, 69
2, 2163, Note_on_c, 0, 61, 66
2, 2165, Note_on_c, 0, 71, 63
2, 2184, Note_on_c, 0, 55, 0
2, 2184, Note_on_c, 0, 45, 0
2, 2185, Note_on_c, 0, 61, 0
2, 2185, Note_on_c, 0, 71, 0
2, 2202, Control_c, 0, 67, 127
2, 2258, Control_c, 0, 67, 0
2, 2268, Note_on_c, 0, 45, 67
2, 2268, Note_on_c, 0, 57, 67
2, 2268, Note_on_c, 0, 61, 66
2, 2270, Note_on_c, 0, 73, 63
2, 2288, Note_on_c, 0, 57, 0
2, 2288, Note_on_c, 0, 45, 0
2, 2290, Note_on_c, 0, 61, 0
2, 2290, Note_on_c, 0, 73, 0
2, 2388, Note_on_c, 0, 50, 68
2, 2388, Note_on_c, 0, 54, 66
2, 2388, Note_on_c, 0, 62, 70
2, 2388, Note_on_c, 0, 69, 64
2, 2499, Note_on_c, 0, 38, 69
2, 2520, Note_on_c, 0, 38, 0
2, 2521, Note_on_c, 0, 62, 0
2, 2521, Note_on_c, 0, 50, 0
2, 2521, Note_on_c, 0, 54, 0
2, 2521, Note_on_c, 0, 69, 0
2, 2537, Control_c, 0, 67, 127
2, 2597, Control_c, 0, 67, 0
2, 2618, Note_on_c, 0, 66, 59
2, 2647, Note_on_c, 0, 66, 0
2, 2668, Control_c, 0, 67, 127
2, 2731, Control_c, 0, 67, 0
2, 2747, Note_on_c, 0, 71, 47
2, 2747, Note_on_c, 0, 74, 44
2, 2747, Note_on_c, 0, 78, 44
2, 2760, Note_on_c, 0, 74, 0
2, 2766, Note_on_c, 0, 78, 0
2, 2766, Note_on_c, 0, 71, 0
2, 2802, Control_c, 0, 67, 127
2, 2864, Control_c, 0, 67, 0
2, 2874, Note_on_c, 0, 71, 47
2, 2874, Note_on_c, 0, 74, 52
2, 2874, Note_on_c, 0, 78, 51
2, 2895, Note_on_c, 0, 78, 0
2, 2895, Note_on_c, 0, 74, 0
2, 2895, Note_on_c, 0, 71, 0
2, 2991, Note_on_c, 0, 71, 52
2, 2991, Note_on_c, 0, 74, 53
2, 2991, Note_on_c, 0, 78, 50
2, 3006, Note_on_c, 0, 71, 0
2, 3008, Note_on_c, 0, 78, 0
2, 3008, Note_on_c, 0, 74, 0
2, 3040, Control_c, 0, 67, 127
2, 3096, Control_c, 0, 67, 0
2, 3104, Note_on_c, 0, 69, 64
2, 3104, Note_on_c, 0, 71, 64
2, 3104, Note_on_c, 0, 74, 59
2, 3106, Note_on_c, 0, 78, 62
2, 3156, Note_on_c, 0, 71, 0
2, 3156, Note_on_c, 0, 69, 0
2, 3158, Note_on_c, 0, 74, 0
2, 3158, Note_on_c, 0, 78, 0
2, 3187, Note_on_c, 0, 76, 64
2, 3187, Note_on_c, 0, 79, 62
2, 3202, Control_c, 0, 67, 127
2, 3205, Note_on_c, 0, 71, 64
2, 3208, Note_on_c, 0, 69, 61
2, 3208, Note_on_c, 0, 74, 61
2, 3208, Note_on_c, 0, 78, 62
2, 3210, Note_on_c, 0, 79, 0
2, 3210, Note_on_c, 0, 76, 0
2, 3225, Note_on_c, 0, 69, 0
2, 3225, Note_on_c, 0, 71, 0
2, 3227, Note_on_c, 0, 74, 0
2, 3230, Control_c, 0, 67, 0
2, 3248, Note_on_c, 0, 78, 0
2, 3251, Note_on_c, 0, 73, 65
2, 3251, Note_on_c, 0, 76, 68
2, 3274, Note_on_c, 0, 76, 0
2, 3274, Note_on_c, 0, 73, 0
2, 3305, Note_on_c, 0, 69, 68
2, 3305, Note_on_c, 0, 71, 72
2, 3305, Note_on_c, 0, 74, 66
2, 3307, Note_on_c, 0, 78, 68
2, 3322, Note_on_c, 0, 74, 0
2, 3328, Note_on_c, 0, 69, 0
2, 3328, Note_on_c, 0, 71, 0
2, 3334, Note_on_c, 0, 78, 0
2, 3360, Note_on_c, 0, 76, 69
2, 3361, Note_on_c, 0, 79, 72
2, 3387, Note_on_c, 0, 79, 0
2, 3387, Note_on_c, 0, 76, 0
2, 3421, Note_on_c, 0, 67, 64
2, 3421, Note_on_c, 0, 71, 62
2, 3421, Note_on_c, 0, 74, 64
2, 3421, Note_on_c, 0, 78, 59
2, 3473, Note_on_c, 0, 78, 0
2, 3473, Note_on_c, 0, 67, 0
2, 3473, Note_on_c, 0, 71, 0
2, 3473, Note_on_c, 0, 74, 0
2, 3519, Note_on_c, 0, 76, 60
2, 3519, Note_on_c, 0, 79, 61
2, 3534, Control_c, 0, 67, 127
2, 3537, Note_on_c, 0, 67, 65
2, 3537, Note_on_c, 0, 74, 59
2, 3537, Note_on_c, 0, 78, 63
2, 3539, Note_on_c, 0, 76, 0
2, 3541, Note_on_c, 0, 79, 0
2, 3546, Note_on_c, 0, 71, 67
2, 3559, Note_on_c, 0, 71, 0
2, 3559, Note_on_c, 0, 78, 0
2, 3559, Note_on_c, 0, 74, 0
2, 3562, Control_c, 0, 67, 0
2, 3567, Note_on_c, 0, 67, 0
2, 3583, Note_on_c, 0, 73, 72
2, 3583, Note_on_c, 0, 76, 68
2, 3599, Note_on_c, 0, 73, 0
2, 3617, Note_on_c, 0, 76, 0
2, 3635, Note_on_c, 0, 67, 71
2, 3635, Note_on_c, 0, 71, 70
2, 3635, Note_on_c, 0, 74, 68
2, 3635, Note_on_c, 0, 78, 65
2, 3650, Note_on_c, 0, 74, 0
2, 3656, Note_on_c, 0, 67, 0
2, 3656, Note_on_c, 0, 71, 0
2, 3656, Note_on_c, 0, 78, 0
2, 3680, Note_on_c, 0, 76, 65
2, 3680, Note_on_c, 0, 79, 67
2, 3694, Note_on_c, 0, 76, 0
2, 3701, Note_on_c, 0, 79, 0
2, 3738, Note_on_c, 0, 66, 44
2, 3738, Note_on_c, 0, 69, 42
2, 3740, Note_on_c, 0, 74, 48
2, 3742, Note_on_c, 0, 78, 43
2, 3742, Note_on_c, 0, 81, 43
2, 3769, Control_c, 0, 67, 127
2, 3826, Control_c, 0, 67, 0
2, 3837, Note_on_c, 0, 78, 0
2, 3837, Note_on_c, 0, 74, 0
2, 3837, Note_on_c, 0, 66, 0
2, 3837, Note_on_c, 0, 69, 0
2, 3839, Note_on_c, 0, 81, 0
2, 3843, Note_on_c, 0, 79, 45
2, 3843, Note_on_c, 0, 83, 43
2, 3864, Note_on_c, 0, 83, 0
2, 3864, Note_on_c, 0, 79, 0
2, 3893, Note_on_c, 0, 81, 45
2, 3893, Note_on_c, 0, 85, 48
2, 3914, Note_on_c, 0, 85, 0
2, 3914, Note_on_c, 0, 81, 0
2, 3937, Note_on_c, 0, 83, 47
2, 3937, Note_on_c, 0, 86, 43
2, 3959, Note_on_c, 0, 86, 0
2, 3959, Note_on_c, 0, 83, 0
2, 3968, Control_c, 0, 64, 127
2, 3991, Note_on_c, 0, 81, 43
2, 3991, Note_on_c, 0, 85, 41
2, 3996, Control_c, 0, 64, 0
2, 4012, Note_on_c, 0, 81, 0
2, 4012, Control_c, 0, 67, 127
2, 4032, Note_on_c, 0, 31, 71
2, 4032, Note_on_c, 0, 43, 67
2, 4037, Note_on_c, 0, 85, 0
2, 4039, Control_c, 0, 67, 0
2, 4042, Note_on_c, 0, 79, 44
2, 4042, Note_on_c, 0, 83, 47
2, 4053, Note_on_c, 0, 31, 0
2, 4055, Note_on_c, 0, 43, 0
2, 4056, Note_on_c, 0, 79, 0
2, 4064, Note_on_c, 0, 83, 0
2, 4085, Note_on_c, 0, 78, 43
2, 4087, Note_on_c, 0, 81, 46
2, 4101, Note_on_c, 0, 78, 0
2, 4106, Note_on_c, 0, 81, 0
2, 4135, Note_on_c, 0, 52, 66
2, 4135, Note_on_c, 0, 59, 69
2, 4138, Note_on_c, 0, 62, 72
2, 4138, Note_on_c, 0, 76, 60
2, 4138, Note_on_c, 0, 79, 66
2, 4152, Note_on_c, 0, 76, 0
2, 4156, Note_on_c, 0, 62, 0
2, 4156, Note_on_c, 0, 52, 0
2, 4156, Note_on_c, 0, 59, 0
2, 4176, Note_on_c, 0, 79, 0
2, 4181, Note_on_c, 0, 74, 63
2, 4181, Note_on_c, 0, 78, 60
2, 4197, Note_on_c, 0, 74, 0
2, 4232, Note_on_c, 0, 78, 0
2, 4235, Note_on_c, 0, 52, 68
2, 4235, Note_on_c, 0, 59, 71
2, 4235, Note_on_c, 0, 62, 66
2, 4235, Note_on_c, 0, 64, 68
2, 4235, Note_on_c, 0, 73, 62
2, 4238, Note_on_c, 0, 76, 63
2, 4250, Note_on_c, 0, 73, 0
2, 4255, Note_on_c, 0, 52, 0
2, 4257, Note_on_c, 0, 64, 0
2, 4257, Note_on_c, 0, 59, 0
2, 4257, Note_on_c, 0, 76, 0
2, 4257, Note_on_c, 0, 62, 0
2, 4289, Note_on_c, 0, 71, 64
2, 4289, Note_on_c, 0, 74, 66
2, 4299, Control_c, 0, 64, 127
2, 4304, Note_on_c, 0, 71, 0
2, 4327, Control_c, 0, 64, 0
2, 4330, Note_on_c, 0, 74, 0
2, 4336, Note_on_c, 0, 69, 65
2, 4336, Note_on_c, 0, 73, 62
2, 4341, Note_on_c, 0, 33, 68
2, 4341, Note_on_c, 0, 45, 71
2, 4357, Note_on_c, 0, 73, 0
2, 4357, Note_on_c, 0, 69, 0
2, 4362, Note_on_c, 0, 33, 0
2, 4362, Note_on_c, 0, 45, 0
2, 4371, Control_c, 0, 67, 127
2, 4387, Note_on_c, 0, 67, 62
2, 4387, Note_on_c, 0, 71, 60
2, 4408, Note_on_c, 0, 67, 0
2, 4411, Control_c, 0, 67, 0
2, 4435, Note_on_c, 0, 71, 0
2, 4440, Note_on_c, 0, 50, 66
2, 4440, Note_on_c, 0, 54, 70
2, 4440, Note_on_c, 0, 66, 63
2, 4440, Note_on_c, 0, 69, 60
2, 4458, Note_on_c, 0, 54, 0
2, 4461, Note_on_c, 0, 69, 0
2, 4461, Note_on_c, 0, 66, 0
2, 4465, Note_on_c, 0, 50, 0
2, 4487, Note_on_c, 0, 64, 67
2, 4487, Note_on_c, 0, 67, 65
2, 4505, Note_on_c, 0, 64, 0
2, 4526, Note_on_c, 0, 67, 0
2, 4531, Note_on_c, 0, 50, 66
2, 4531, Note_on_c, 0, 54, 65
2, 4531, Note_on_c, 0, 57, 65
2, 4531, Note_on_c, 0, 62, 66
2, 4531, Note_on_c, 0, 66, 62
2, 4552, Note_on_c, 0, 66, 0
2, 4552, Note_on_c, 0, 57, 0
2, 4552, Note_on_c, 0, 50, 0
2, 4552, Note_on_c, 0, 54, 0
2, 4552, Note_on_c, 0, 62, 0
2, 4638, Note_on_c, 0, 61, 66
2, 4638, Note_on_c, 0, 67, 79
2, 4643, Note_on_c, 0, 45, 65
2, 4643, Note_on_c, 0, 52, 71
2, 4651, Note_on_c, 0, 61, 0
2, 4654, Control_c, 0, 67, 127
2, 4658, Note_on_c, 0, 67, 0
2, 4664, Note_on_c, 0, 52, 0
2, 4670, Note_on_c, 0, 45, 0
2, 4688, Note_on_c, 0, 54, 69
2, 4690, Note_on_c, 0, 61, 71
2, 4690, Note_on_c, 0, 69, 81
2, 4703, Note_on_c, 0, 61, 0
2, 4708, Note_on_c, 0, 54, 0
2, 4710, Note_on_c, 0, 69, 0
2, 4713, Control_c, 0, 67, 0
2, 4734, Note_on_c, 0, 45, 69
2, 4734, Note_on_c, 0, 55, 67
2, 4734, Note_on_c, 0, 61, 69
2, 4740, Note_on_c, 0, 71, 80
2, 4755, Note_on_c, 0, 61, 0
2, 4755, Note_on_c, 0, 55, 0
2, 4761, Note_on_c, 0, 45, 0
2, 4761, Note_on_c, 0, 71, 0
2, 4837, Note_on_c, 0, 45, 72
2, 4837, Note_on_c, 0, 57, 72
2, 4837, Note_on_c, 0, 61, 72
2, 4839, Note_on_c, 0, 73, 83
2, 4857, Note_on_c, 0, 61, 0
2, 4857, Note_on_c, 0, 57, 0
2, 4863, Note_on_c, 0, 45, 0
2, 4865, Note_on_c, 0, 73, 0
2, 4961, Note_on_c, 0, 62, 66
2, 4961, Note_on_c, 0, 66, 82
2, 4961, Note_on_c, 0, 69, 77
2, 4967, Note_on_c, 0, 50, 67
2, 4967, Note_on_c, 0, 54, 70
2, 5061, Note_on_c, 0, 38, 65
2, 5082, Note_on_c, 0, 38, 0
2, 5082, Note_on_c, 0, 50, 0
2, 5084, Note_on_c, 0, 69, 0
2, 5084, Note_on_c, 0, 62, 0
2, 5084, Note_on_c, 0, 66, 0
2, 5084, Note_on_c, 0, 54, 0
2, 5178, Note_on_c, 0, 66, 83
2, 5196, Control_c, 0, 67, 127
2, 5201, Note_on_c, 0, 66, 0
2, 5257, Control_c, 0, 67, 0
2, 5299, Note_on_c, 0, 66, 44
2, 5299, Note_on_c, 0, 69, 44
2, 5301, Note_on_c, 0, 73, 47
2, 5301, Note_on_c, 0, 78, 44
2, 5321, Note_on_c, 0, 69, 0
2, 5321, Note_on_c, 0, 66, 0
2, 5323, Note_on_c, 0, 78, 0
2, 5341, Note_on_c, 0, 73, 0
2, 5416, Note_on_c, 0, 66, 46
2, 5418, Note_on_c, 0, 69, 45
2, 5418, Note_on_c, 0, 73, 42
2, 5418, Note_on_c, 0, 78, 45
2, 5438, Note_on_c, 0, 69, 0
2, 5438, Note_on_c, 0, 66, 0
2, 5440, Note_on_c, 0, 78, 0
2, 5460, Note_on_c, 0, 73, 0
2, 5530, Note_on_c, 0, 73, 46
2, 5532, Note_on_c, 0, 66, 48
2, 5532, Note_on_c, 0, 69, 43
2, 5532, Note_on_c, 0, 78, 43
2, 5548, Note_on_c, 0, 69, 0
2, 5548, Note_on_c, 0, 66, 0
2, 5551, Note_on_c, 0, 78, 0
2, 5582, Note_on_c, 0, 73, 0
2, 5637, Note_on_c, 0, 64, 69
2, 5637, Note_on_c, 0, 71, 45
2, 5637, Note_on_c, 0, 74, 43
2, 5637, Note_on_c, 0, 79, 45
2, 5725, Note_on_c, 0, 64, 0
2, 5727, Note_on_c, 0, 71, 0
2, 5730, Note_on_c, 0, 66, 41
2, 5730, Note_on_c, 0, 69, 45
2, 5732, Note_on_c, 0, 74, 0
2, 5734, Note_on_c, 0, 79, 0
2, 5738, Note_on_c, 0, 73, 44
2, 5738, Note_on_c, 0, 78, 46
2, 5759, Note_on_c, 0, 66, 0
2, 5759, Note_on_c, 0, 69, 0
2, 5764, Note_on_c, 0, 73, 0
2, 5764, Note_on_c, 0, 78, 0
2, 5851, Note_on_c, 0, 59, 69
2, 5879, Note_on_c, 0, 59, 0
2, 5903, Note_on_c, 0, 62, 69
2, 5907, Control_c, 0, 64, 127
2, 5918, Note_on_c, 0, 62, 0
2, 5942, Control_c, 0, 64, 0
2, 5954, Control_c, 0, 67, 127
2, 5957, Note_on_c, 0, 61, 66
2, 5973, Note_on_c, 0, 61, 0
2, 5983, Control_c, 0, 67, 0
2, 6012, Note_on_c, 0, 64, 65
2, 6025, Note_on_c, 0, 64, 0
2, 6062, Note_on_c, 0, 57, 68
2, 6083, Note_on_c, 0, 57, 0
2, 6112, Note_on_c, 0, 61, 69
2, 6127, Note_on_c, 0, 61, 0
2, 6166, Note_on_c, 0, 59, 65
2, 6207, Note_on_c, 0, 59, 0
2, 6212, Note_on_c, 0, 62, 65
2, 6215, Control_c, 0, 64, 127
2, 6227, Note_on_c, 0, 62, 0
2, 6250, Control_c, 0, 64, 0
2, 6265, Note_on_c, 0, 55, 69
2, 6305, Note_on_c, 0, 55, 0
2, 6320, Note_on_c, 0, 57, 69
2, 6372, Note_on_c, 0, 59, 67
2, 6375, Note_on_c, 0, 57, 0
2, 6391, Note_on_c, 0, 59, 0
2, 6427, Note_on_c, 0, 61, 69
2, 6430, Control_c, 0, 64, 127
2, 6448, Note_on_c, 0, 61, 0
2, 6464, Control_c, 0, 64, 0
2, 6474, Note_on_c, 0, 54, 70
2, 6502, Note_on_c, 0, 54, 0
2, 6596, Note_on_c, 0, 54, 65
2, 6596, Note_on_c, 0, 57, 66
2, 6596, Note_on_c, 0, 61, 71
2, 6596, Note_on_c, 0, 66, 48
2, 6596, Note_on_c, 0, 69, 43
2, 6596, Note_on_c, 0, 73, 46
2, 6596, Note_on_c, 0, 78, 47
2, 6608, Note_on_c, 0, 69, 0
2, 6608, Note_on_c, 0, 57, 0
2, 6610, Note_on_c, 0, 73, 0
2, 6613, Note_on_c, 0, 54, 0
2, 6616, Note_on_c, 0, 78, 0
2, 6621, Note_on_c, 0, 61, 0
2, 6623, Note_on_c, 0, 66, 0
2, 6670, Control_c, 0, 67, 127
2, 6697, Control_c, 0, 67, 0
2, 6710, Note_on_c, 0, 54, 70
2, 6710, Note_on_c, 0, 57, 65
2, 6712, Note_on_c, 0, 61, 70
2, 6712, Note_on_c, 0, 69, 48
2, 6712, Note_on_c, 0, 73, 41
2, 6712, Note_on_c, 0, 78, 48
2, 6717, Note_on_c, 0, 66, 41
2, 6726, Note_on_c, 0, 69, 0
2, 6726, Note_on_c, 0, 57, 0
2, 6728, Note_on_c, 0, 73, 0
2, 6733, Note_on_c, 0, 54, 0
2, 6733, Note_on_c, 0, 61, 0
2, 6735, Note_on_c, 0, 78, 0
2, 6735, Note_on_c, 0, 66, 0
2, 6829, Note_on_c, 0, 54, 68
2, 6829, Note_on_c, 0, 57, 69
2, 6832, Note_on_c, 0, 61, 70
2, 6832, Note_on_c, 0, 66, 44
2, 6832, Note_on_c, 0, 69, 43
2, 6832, Note_on_c, 0, 73, 41
2, 6832, Note_on_c, 0, 78, 44
2, 6845, Note_on_c, 0, 57, 0
2, 6850, Note_on_c, 0, 54, 0
2, 6852, Note_on_c, 0, 66, 0
2, 6852, Note_on_c, 0, 69, 0
2, 6852, Note_on_c, 0, 61, 0
2, 6854, Note_on_c, 0, 78, 0
2, 6854, Note_on_c, 0, 73, 0
2, 6889, Control_c, 0, 64, 127
2, 6926, Control_c, 0, 64, 0
2, 6947, Note_on_c, 0, 52, 70
2, 6947, Note_on_c, 0, 59, 70
2, 6947, Note_on_c, 0, 62, 70
2, 6947, Note_on_c, 0, 67, 42
2, 6947, Note_on_c, 0, 71, 47
2, 6947, Note_on_c, 0, 74, 41
2, 6947, Note_on_c, 0, 79, 42
2, 7001, Control_c, 0, 64, 127
2, 7034, Control_c, 0, 64, 0
2, 7044, Note_on_c, 0, 74, 0
2, 7044, Note_on_c, 0, 67, 0
2, 7044, Note_on_c, 0, 59, 0
2, 7044, Note_on_c, 0, 62, 0
2, 7044, Note_on_c, 0, 52, 0
2, 7044, Note_on_c, 0, 71, 0
2, 7046, Note_on_c, 0, 79, 0
2, 7051, Note_on_c, 0, 54, 67
2, 7051, Note_on_c, 0, 57, 70
2, 7051, Note_on_c, 0, 61, 70
2, 7051, Note_on_c, 0, 66, 47
2, 7053, Note_on_c, 0, 69, 47
2, 7053, Note_on_c, 0, 73, 43
2, 7053, Note_on_c, 0, 78, 47
2, 7071, Note_on_c, 0, 69, 0
2, 7071, Note_on_c, 0, 66, 0
2, 7071, Note_on_c, 0, 54, 0
2, 7071, Note_on_c, 0, 61, 0
2, 7071, Note_on_c, 0, 57, 0
2, 7073, Note_on_c, 0, 78, 0
2, 7073, Note_on_c, 0, 73, 0
2, 7153, Note_on_c, 0, 35, 69
2, 7153, Note_on_c, 0, 47, 70
2, 7153, Note_on_c, 0, 59, 66
2, 7174, Note_on_c, 0, 47, 0
2, 7174, Note_on_c, 0, 35, 0
2, 7189, Note_on_c, 0, 59, 0
2, 7207, Note_on_c, 0, 38, 70
2, 7207, Note_on_c, 0, 50, 68
2, 7209, Note_on_c, 0, 62, 66
2, 7224, Control_c, 0, 64, 127
2, 7229, Note_on_c, 0, 50, 0
2, 7229, Note_on_c, 0, 38, 0
2, 7235, Note_on_c, 0, 62, 0
2, 7258, Note_on_c, 0, 37, 68
2, 7260, Control_c, 0, 64, 0
2, 7260, Note_on_c, 0, 49, 68
2, 7260, Note_on_c, 0, 61, 69
2, 7281, Note_on_c, 0, 49, 0
2, 7281, Note_on_c, 0, 37, 0
2, 7307, Note_on_c, 0, 61, 0
2, 7312, Note_on_c, 0, 40, 72
2, 7312, Note_on_c, 0, 52, 67
2, 7314, Note_on_c, 0, 64, 65
2, 7332, Note_on_c, 0, 52, 0
2, 7332, Note_on_c, 0, 40, 0
2, 7334, Note_on_c, 0, 64, 0
2, 7358, Note_on_c, 0, 33, 68
2, 7358, Note_on_c, 0, 45, 70
2, 7358, Note_on_c, 0, 57, 68
2, 7378, Note_on_c, 0, 45, 0
2, 7378, Note_on_c, 0, 33, 0
2, 7399, Note_on_c, 0, 57, 0
2, 7402, Note_on_c, 0, 37, 67
2, 7402, Note_on_c, 0, 49, 65
2, 7404, Note_on_c, 0, 61, 72
2, 7424, Note_on_c, 0, 49, 0
2, 7424, Note_on_c, 0, 37, 0
2, 7430, Note_on_c, 0, 61, 0
2, 7454, Note_on_c, 0, 35, 71
2, 7456, Note_on_c, 0, 47, 67
2, 7456, Note_on_c, 0, 59, 71
2, 7474, Note_on_c, 0, 47, 0
2, 7474, Note_on_c, 0, 35, 0
2, 7503, Note_on_c, 0, 38, 65
2, 7505, Note_on_c, 0, 50, 68
2, 7505, Note_on_c, 0, 62, 68
2, 7507, Note_on_c, 0, 59, 0
2, 7516, Control_c, 0, 64, 127
2, 7530, Control_c, 0, 64, 0
2, 7533, Note_on_c, 0, 38, 0
2, 7533, Note_on_c, 0, 50, 0
2, 7551, Note_on_c, 0, 62, 0
2, 7554, Note_on_c, 0, 31, 67
2, 7554, Note_on_c, 0, 43, 71
2, 7557, Note_on_c, 0, 55, 70
2, 7604, Note_on_c, 0, 33, 72
2, 7604, Note_on_c, 0, 45, 71
2, 7604, Note_on_c, 0, 57, 69
2, 7650, Note_on_c, 0, 33, 0
2, 7650, Note_on_c, 0, 31, 0
2, 7652, Note_on_c, 0, 45, 0
2, 7652, Note_on_c, 0, 43, 0
2, 7652, Note_on_c, 0, 55, 0
2, 7656, Note_on_c, 0, 35, 69
2, 7656, Note_on_c, 0, 47, 71
2, 7658, Note_on_c, 0, 59, 70
2, 7679, Note_on_c, 0, 47, 0
2, 7709, Note_on_c, 0, 57, 0
2, 7715, Note_on_c, 0, 35, 0
2, 7715, Note_on_c, 0, 49, 69
2, 7715, Note_on_c, 0, 61, 69
2, 7720, Note_on_c, 0, 37, 69
2, 7735, Note_on_c, 0, 49, 0
2, 7741, Note_on_c, 0, 59, 0
2, 7741, Note_on_c, 0, 61, 0
2, 7767, Note_on_c, 0, 37, 0
2, 7772, Note_on_c, 0, 30, 69
2, 7774, Note_on_c, 0, 42, 69
2, 7774, Note_on_c, 0, 54, 68
2, 7800, Note_on_c, 0, 42, 0
2, 7800, Note_on_c, 0, 30, 0
2, 7801, Note_on_c, 0, 54, 0
2, 7921, Note_on_c, 0, 72, 64
2, 7921, Note_on_c, 0, 75, 60
2, 7921, Note_on_c, 0, 78, 60
2, 7942, Note_on_c, 0, 75, 0
2, 7942, Note_on_c, 0, 72, 0
2, 7946, Note_on_c, 0, 78, 0
2, 8044, Note_on_c, 0, 72, 82
2, 8044, Note_on_c, 0, 75, 80
2, 8044, Note_on_c, 0, 78, 80
2, 8064, Note_on_c, 0, 72, 0
2, 8066, Note_on_c, 0, 75, 0
2, 8071, Note_on_c, 0, 78, 0
2, 8161, Note_on_c, 0, 72, 77
2, 8161, Note_on_c, 0, 75, 84
2, 8163, Note_on_c, 0, 78, 77
2, 8184, Note_on_c, 0, 78, 0
2, 8184, Note_on_c, 0, 75, 0
2, 8184, Note_on_c, 0, 72, 0
2, 8280, Note_on_c, 0, 69, 83
2, 8280, Note_on_c, 0, 78, 78
2, 8288, Note_on_c, 0, 72, 80
2, 8288, Note_on_c, 0, 75, 83
2, 8340, Note_on_c, 0, 75, 0
2, 8340, Note_on_c, 0, 69, 0
2, 8340, Note_on_c, 0, 78, 0
2, 8340, Note_on_c, 0, 72, 0
2, 8366, Note_on_c, 0, 76, 78
2, 8366, Note_on_c, 0, 79, 83
2, 8376, Control_c, 0, 67, 127
2, 8388, Note_on_c, 0, 79, 0
2, 8388, Note_on_c, 0, 76, 0
2, 8391, Note_on_c, 0, 69, 82
2, 8391, Note_on_c, 0, 72, 77
2, 8393, Note_on_c, 0, 75, 82
2, 8393, Note_on_c, 0, 78, 79
2, 8402, Control_c, 0, 67, 0
2, 8413, Note_on_c, 0, 75, 0
2, 8413, Note_on_c, 0, 69, 0
2, 8413, Note_on_c, 0, 72, 0
2, 8415, Note_on_c, 0, 78, 0
2, 8438, Note_on_c, 0, 73, 82
2, 8438, Note_on_c, 0, 76, 79
2, 8451, Note_on_c, 0, 73, 0
2, 8459, Note_on_c, 0, 76, 0
2, 8488, Note_on_c, 0, 75, 78
2, 8488, Note_on_c, 0, 78, 78
2, 8494, Note_on_c, 0, 69, 80
2, 8494, Note_on_c, 0, 73, 81
2, 8535, Note_on_c, 0, 73, 0
2, 8535, Note_on_c, 0, 75, 0
2, 8535, Note_on_c, 0, 78, 0
2, 8535, Note_on_c, 0, 69, 0
2, 8541, Note_on_c, 0, 76, 77
2, 8541, Note_on_c, 0, 79, 77
2, 8588, Note_on_c, 0, 79, 0
2, 8588, Note_on_c, 0, 76, 0
2, 8593, Note_on_c, 0, 78, 80
2, 8593, Note_on_c, 0, 81, 81
2, 8598, Note_on_c, 0, 66, 79
2, 8598, Note_on_c, 0, 69, 83
2, 8598, Note_on_c, 0, 72, 84
2, 8664, Note_on_c, 0, 69, 0
2, 8664, Note_on_c, 0, 66, 0
2, 8665, Note_on_c, 0, 78, 0
2, 8665, Note_on_c, 0, 81, 0
2, 8665, Note_on_c, 0, 72, 0
2, 8678, Note_on_c, 0, 79, 82
2, 8678, Note_on_c, 0, 83, 84
2, 8702, Note_on_c, 0, 66, 79
2, 8702, Note_on_c, 0, 69, 78
2, 8702, Note_on_c, 0, 72, 84
2, 8702, Note_on_c, 0, 78, 78
2, 8704, Note_on_c, 0, 81, 81
2, 8706, Note_on_c, 0, 83, 0
2, 8706, Note_on_c, 0, 79, 0
2, 8724, Note_on_c, 0, 69, 0
2, 8724, Note_on_c, 0, 72, 0
2, 8724, Note_on_c, 0, 66, 0
2, 8750, Note_on_c, 0, 76, 80
2, 8750, Note_on_c, 0, 79, 83
2, 8752, Note_on_c, 0, 81, 0
2, 8752, Note_on_c, 0, 78, 0
2, 8780, Note_on_c, 0, 76, 0
2, 8780, Note_on_c, 0, 79, 0
2, 8795, Note_on_c, 0, 66, 80
2, 8795, Note_on_c, 0, 69, 83
2, 8795, Note_on_c, 0, 72, 78
2, 8797, Note_on_c, 0, 78, 82
2, 8797, Note_on_c, 0, 81, 84
2, 8817, Note_on_c, 0, 72, 0
2, 8817, Note_on_c, 0, 69, 0
2, 8825, Note_on_c, 0, 66, 0
2, 8831, Note_on_c, 0, 81, 0
2, 8831, Note_on_c, 0, 78, 0
2, 8832, Control_c, 0, 64, 127
2, 8851, Note_on_c, 0, 79, 82
2, 8851, Note_on_c, 0, 83, 80
2, 8867, Control_c, 0, 64, 0
2, 8872, Control_c, 0, 67, 127
2, 8893, Note_on_c, 0, 83, 0
2, 8893, Note_on_c, 0, 79, 0
2, 8898, Note_on_c, 0, 63, 69
2, 8898, Note_on_c, 0, 66, 83
2, 8898, Note_on_c, 0, 69, 79
2, 8898, Note_on_c, 0, 72, 77
2, 8900, Note_on_c, 0, 81, 81
2, 8900, Note_on_c, 0, 84, 77
2, 8916, Note_on_c, 0, 72, 0
2, 8916, Note_on_c, 0, 69, 0
2, 8916, Note_on_c, 0, 63, 0
2, 8916, Note_on_c, 0, 66, 0
2, 8918, Note_on_c, 0, 84, 0
2, 8918, Note_on_c, 0, 81, 0
2, 8980, Control_c, 0, 67, 0
2, 9003, Note_on_c, 0, 81, 81
2, 9003, Note_on_c, 0, 84, 81
2, 9017, Note_on_c, 0, 81, 0
2, 9024, Note_on_c, 0, 84, 0
2, 9053, Note_on_c, 0, 80, 79
2, 9053, Note_on_c, 0, 83, 84
2, 9076, Note_on_c, 0, 83, 0
2, 9076, Note_on_c, 0, 80, 0
2, 9100, Note_on_c, 0, 81, 79
2, 9100, Note_on_c, 0, 84, 79
2, 9114, Note_on_c, 0, 81, 0
2, 9120, Note_on_c, 0, 84, 0
2, 9151, Note_on_c, 0, 83, 82
2, 9151, Note_on_c, 0, 86, 79
2, 9167, Note_on_c, 0, 83, 0
2, 9187, Note_on_c, 0, 40, 69
2, 9192, Note_on_c, 0, 86, 0
2, 9197, Note_on_c, 0, 84, 84
2, 9197, Note_on_c, 0, 88, 78
2, 9207, Control_c, 0, 67, 127
2, 9210, Note_on_c, 0, 40, 0
2, 9217, Note_on_c, 0, 84, 0
2, 9248, Note_on_c, 0, 83, 80
2, 9248, Note_on_c, 0, 86, 82
2, 9258, Note_on_c, 0, 88, 0
2, 9265, Control_c, 0, 67, 0
2, 9270, Note_on_c, 0, 83, 0
2, 9298, Note_on_c, 0, 86, 0
2, 9300, Note_on_c, 0, 48, 72
2, 9300, Note_on_c, 0, 55, 66
2, 9302, Note_on_c, 0, 60, 69
2, 9302, Note_on_c, 0, 81, 82
2, 9304, Note_on_c, 0, 84, 77
2, 9320, Note_on_c, 0, 60, 0
2, 9320, Note_on_c, 0, 55, 0
2, 9322, Note_on_c, 0, 84, 0
2, 9322, Note_on_c, 0, 81, 0
2, 9327, Note_on_c, 0, 48, 0
2, 9353, Note_on_c, 0, 79, 80
2, 9355, Note_on_c, 0, 83, 81
2, 9375, Note_on_c, 0, 79, 0
2, 9388, Note_on_c, 0, 83, 0
2, 9398, Note_on_c, 0, 55, 65
2, 9398, Note_on_c, 0, 60, 66
2, 9398, Note_on_c, 0, 64, 67
2, 9400, Note_on_c, 0, 78, 84
2, 9402, Note_on_c, 0, 81, 81
2, 9418, Note_on_c, 0, 64, 0
2, 9418, Note_on_c, 0, 55, 0
2, 9418, Note_on_c, 0, 60, 0
2, 9420, Note_on_c, 0, 78, 0
2, 9420, Note_on_c, 0, 81, 0
2, 9452, Note_on_c, 0, 76, 80
2, 9452, Note_on_c, 0, 79, 84
2, 9473, Note_on_c, 0, 76, 0
2, 9486, Note_on_c, 0, 79, 0
2, 9502, Note_on_c, 0, 60, 69
2, 9504, Note_on_c, 0, 64, 67
2, 9504, Note_on_c, 0, 69, 81
2, 9504, Note_on_c, 0, 74, 80
2, 9504, Note_on_c, 0, 78, 79
2, 9522, Note_on_c, 0, 60, 0
2, 9525, Note_on_c, 0, 74, 0
2, 9525, Note_on_c, 0, 64, 0
2, 9525, Note_on_c, 0, 69, 0
2, 9538, Note_on_c, 0, 78, 0
2, 9551, Note_on_c, 0, 72, 80
2, 9551, Note_on_c, 0, 76, 81
2, 9571, Note_on_c, 0, 72, 0
2, 9592, Note_on_c, 0, 76, 0
2, 9595, Note_on_c, 0, 60, 65
2, 9597, Note_on_c, 0, 64, 66
2, 9597, Note_on_c, 0, 67, 78
2, 9597, Note_on_c, 0, 71, 83
2, 9597, Note_on_c, 0, 74, 79
2, 9618, Note_on_c, 0, 74, 0
2, 9618, Note_on_c, 0, 67, 0
2, 9618, Note_on_c, 0, 60, 0
2, 9618, Note_on_c, 0, 64, 0
2, 9618, Note_on_c, 0, 71, 0
2, 9647, Note_on_c, 0, 72, 83
2, 9648, Note_on_c, 0, 69, 84
2, 9669, Note_on_c, 0, 69, 0
2, 9681, Note_on_c, 0, 72, 0
2, 9692, Note_on_c, 0, 55, 70
2, 9692, Note_on_c, 0, 60, 67
2, 9692, Note_on_c, 0, 64, 67
2, 9692, Note_on_c, 0, 67, 82
2, 9695, Note_on_c, 0, 71, 80
2, 9710, Note_on_c, 0, 55, 0
2, 9712, Note_on_c, 0, 60, 0
2, 9714, Note_on_c, 0, 67, 0
2, 9714, Note_on_c, 0, 64, 0
2, 9714, Note_on_c, 0, 71, 0
2, 9743, Note_on_c, 0, 66, 81
2, 9743, Note_on_c, 0, 69, 81
2, 9764, Note_on_c, 0, 66, 0
2, 9782, Note_on_c, 0, 69, 0
2, 9785, Note_on_c, 0, 30, 67
2, 9787, Note_on_c, 0, 64, 65
2, 9789, Note_on_c, 0, 67, 83
2, 9809, Note_on_c, 0, 64, 0
2, 9814, Note_on_c, 0, 30, 0
2, 9829, Note_on_c, 0, 67, 0
2, 9835, Note_on_c, 0, 66, 84
2, 9848, Note_on_c, 0, 66, 0
2, 9868, Control_c, 0, 67, 127
2, 9884, Note_on_c, 0, 54, 68
2, 9884, Note_on_c, 0, 59, 67
2, 9884, Note_on_c, 0, 64, 67
2, 9884, Note_on_c, 0, 66, 84
2, 9902, Note_on_c, 0, 64, 0
2, 9902, Note_on_c, 0, 54, 0
2, 9902, Note_on_c, 0, 59, 0
2, 9904, Note_on_c, 0, 66, 0
2, 9907, Control_c, 0, 67, 0
2, 9942, Note_on_c, 0, 58, 65
2, 9963, Note_on_c, 0, 58, 0
2, 10003, Note_on_c, 0, 78, 82
2, 10008, Note_on_c, 0, 49, 66
2, 10008, Note_on_c, 0, 54, 72
2, 10008, Note_on_c, 0, 58, 68
2, 10008, Note_on_c, 0, 64, 70
2, 10008, Note_on_c, 0, 66, 80
2, 10021, Note_on_c, 0, 64, 0
2, 10023, Note_on_c, 0, 78, 0
2, 10028, Note_on_c, 0, 58, 0
2, 10028, Note_on_c, 0, 49, 0
2, 10028, Note_on_c, 0, 54, 0
2, 10030, Note_on_c, 0, 66, 0
2, 10152, Note_on_c, 0, 47, 65
2, 10152, Note_on_c, 0, 54, 66
2, 10152, Note_on_c, 0, 59, 65
2, 10152, Note_on_c, 0, 62, 65
2, 10152, Note_on_c, 0, 71, 81
2, 10263, Note_on_c, 0, 62, 0
2, 10263, Note_on_c, 0, 47, 0
2, 10301, Note_on_c, 0, 54, 0
2, 10301, Note_on_c, 0, 59, 0
2, 10322, Note_on_c, 0, 71, 0
2, 10387, Note_on_c, 0, 66, 66
2, 10408, Note_on_c, 0, 66, 0
2, 10483, Control_c, 0, 67, 127
2, 10511, Control_c, 0, 67, 0
2, 10513, Note_on_c, 0, 66, 65
2, 10513, Note_on_c, 0, 73, 66
2, 10515, Note_on_c, 0, 69, 72
2, 10515, Note_on_c, 0, 78, 71
2, 10529, Note_on_c, 0, 69, 0
2, 10535, Note_on_c, 0, 78, 0
2, 10535, Note_on_c, 0, 66, 0
2, 10599, Note_on_c, 0, 73, 0
2, 10630, Note_on_c, 0, 66, 70
2, 10630, Note_on_c, 0, 69, 72
2, 10630, Note_on_c, 0, 73, 68
2, 10630, Note_on_c, 0, 78, 65
2, 10645, Note_on_c, 0, 69, 0
2, 10653, Note_on_c, 0, 66, 0
2, 10655, Note_on_c, 0, 78, 0
2, 10699, Note_on_c, 0, 73, 0
2, 10743, Note_on_c, 0, 66, 67
2, 10743, Note_on_c, 0, 69, 69
2, 10743, Note_on_c, 0, 73, 72
2, 10743, Note_on_c, 0, 78, 69
2, 10756, Note_on_c, 0, 69, 0
2, 10756, Note_on_c, 0, 66, 0
2, 10766, Note_on_c, 0, 78, 0
2, 10864, Note_on_c, 0, 64, 71
2, 10864, Note_on_c, 0, 74, 45
2, 10864, Note_on_c, 0, 79, 44
2, 10867, Note_on_c, 0, 73, 0
2, 10870, Note_on_c, 0, 71, 41
2, 10968, Note_on_c, 0, 64, 0
2, 10968, Note_on_c, 0, 66, 44
2, 10968, Note_on_c, 0, 69, 43
2, 10968, Note_on_c, 0, 73, 46
2, 10968, Note_on_c, 0, 78, 42
2, 10969, Note_on_c, 0, 79, 0
2, 10969, Note_on_c, 0, 71, 0
2, 10969, Note_on_c, 0, 74, 0
2, 11000, Note_on_c, 0, 69, 0
2, 11000, Note_on_c, 0, 66, 0
2, 11002, Note_on_c, 0, 73, 0
2, 11002, Note_on_c, 0, 78, 0
2, 11088, Note_on_c, 0, 59, 67
2, 11109, Note_on_c, 0, 59, 0
2, 11135, Note_on_c, 0, 62, 71
2, 11137, Control_c, 0, 64, 127
2, 11148, Note_on_c, 0, 62, 0
2, 11172, Control_c, 0, 64, 0
2, 11187, Note_on_c, 0, 61, 67
2, 11208, Note_on_c, 0, 61, 0
2, 11233, Note_on_c, 0, 64, 72
2, 11252, Note_on_c, 0, 64, 0
2, 11282, Note_on_c, 0, 57, 69
2, 11305, Note_on_c, 0, 57, 0
2, 11336, Note_on_c, 0, 61, 69
2, 11356, Note_on_c, 0, 61, 0
2, 11384, Note_on_c, 0, 59, 71
2, 11430, Note_on_c, 0, 59, 0
2, 11432, Control_c, 0, 64, 127
2, 11437, Note_on_c, 0, 62, 72
2, 11450, Note_on_c, 0, 62, 0
2, 11467, Control_c, 0, 64, 0
2, 11480, Note_on_c, 0, 55, 71
2, 11526, Note_on_c, 0, 55, 0
2, 11532, Note_on_c, 0, 57, 72
2, 11571, Note_on_c, 0, 57, 0
2, 11577, Note_on_c, 0, 59, 71
2, 11588, Control_c, 0, 64, 127
2, 11597, Note_on_c, 0, 59, 0
2, 11633, Control_c, 0, 64, 0
2, 11636, Note_on_c, 0, 61, 68
2, 11657, Note_on_c, 0, 61, 0
2, 11681, Note_on_c, 0, 54, 69
2, 11702, Note_on_c, 0, 54, 0
2, 11810, Note_on_c, 0, 57, 67
2, 11812, Note_on_c, 0, 54, 68
2, 11812, Note_on_c, 0, 61, 72
2, 11812, Note_on_c, 0, 66, 47
2, 11812, Note_on_c, 0, 69, 44
2, 11812, Note_on_c, 0, 73, 48
2, 11812, Note_on_c, 0, 78, 45
2, 11829, Note_on_c, 0, 54, 0
2, 11831, Note_on_c, 0, 69, 0
2, 11831, Note_on_c, 0, 57, 0
2, 11832, Note_on_c, 0, 73, 0
2, 11832, Note_on_c, 0, 66, 0
2, 11832, Note_on_c, 0, 78, 0
2, 11832, Note_on_c, 0, 61, 0
2, 11884, Control_c, 0, 67, 127
2, 11910, Control_c, 0, 67, 0
2, 11927, Note_on_c, 0, 54, 71
2, 11927, Note_on_c, 0, 57, 71
2, 11927, Note_on_c, 0, 61, 71
2, 11927, Note_on_c, 0, 66, 48
2, 11927, Note_on_c, 0, 69, 41
2, 11927, Note_on_c, 0, 73, 47
2, 11927, Note_on_c, 0, 78, 42
2, 11947, Note_on_c, 0, 69, 0
2, 11947, Note_on_c, 0, 57, 0
2, 11947, Note_on_c, 0, 54, 0
2, 11949, Note_on_c, 0, 73, 0
2, 11949, Note_on_c, 0, 66, 0
2, 11949, Note_on_c, 0, 78, 0
2, 11949, Note_on_c, 0, 61, 0
2, 12035, Note_on_c, 0, 54, 66
2, 12035, Note_on_c, 0, 57, 66
2, 12035, Note_on_c, 0, 61, 66
2, 12035, Note_on_c, 0, 66, 51
2, 12037, Note_on_c, 0, 69, 51
2, 12037, Note_on_c, 0, 73, 53
2, 12037, Note_on_c, 0, 78, 47
2, 12050, Note_on_c, 0, 73, 0
2, 12050, Note_on_c, 0, 69, 0
2, 12055, Note_on_c, 0, 57, 0
2, 12055, Note_on_c, 0, 61, 0
2, 12055, Note_on_c, 0, 54, 0
2, 12055, Note_on_c, 0, 78, 0
2, 12055, Note_on_c, 0, 66, 0
2, 12068, Control_c, 0, 64, 127
2, 12101, Control_c, 0, 64, 0
2, 12161, Note_on_c, 0, 52, 68
2, 12163, Note_on_c, 0, 59, 71
2, 12163, Note_on_c, 0, 62, 71
2, 12163, Note_on_c, 0, 67, 69
2, 12163, Note_on_c, 0, 71, 67
2, 12163, Note_on_c, 0, 74, 69
2, 12163, Note_on_c, 0, 79, 70
2, 12261, Note_on_c, 0, 74, 0
2, 12261, Note_on_c, 0, 67, 0
2, 12261, Note_on_c, 0, 59, 0
2, 12261, Note_on_c, 0, 62, 0
2, 12261, Note_on_c, 0, 52, 0
2, 12261, Note_on_c, 0, 71, 0
2, 12263, Note_on_c, 0, 79, 0
2, 12265, Note_on_c, 0, 54, 68
2, 12265, Note_on_c, 0, 57, 71
2, 12265, Note_on_c, 0, 61, 65
2, 12267, Note_on_c, 0, 66, 66
2, 12267, Note_on_c, 0, 69, 60
2, 12267, Note_on_c, 0, 73, 59
2, 12267, Note_on_c, 0, 78, 65
2, 12288, Note_on_c, 0, 73, 0
2, 12288, Note_on_c, 0, 66, 0
2, 12288, Note_on_c, 0, 57, 0
2, 12288, Note_on_c, 0, 61, 0
2, 12288, Note_on_c, 0, 54, 0
2, 12288, Note_on_c, 0, 69, 0
2, 12289, Note_on_c, 0, 78, 0
2, 12375, Note_on_c, 0, 35, 69
2, 12375, Note_on_c, 0, 47, 69
2, 12381, Note_on_c, 0, 59, 69
2, 12394, Note_on_c, 0, 35, 0
2, 12422, Note_on_c, 0, 59, 0
2, 12422, Note_on_c, 0, 47, 0
2, 12427, Note_on_c, 0, 38, 67
2, 12429, Note_on_c, 0, 50, 65
2, 12429, Note_on_c, 0, 62, 72
2, 12439, Control_c, 0, 64, 127
2, 12455, Note_on_c, 0, 38, 0
2, 12476, Control_c, 0, 64, 0
2, 12481, Note_on_c, 0, 50, 0
2, 12483, Note_on_c, 0, 62, 0
2, 12488, Note_on_c, 0, 49, 67
2, 12488, Note_on_c, 0, 61, 69
2, 12494, Note_on_c, 0, 37, 65
2, 12522, Note_on_c, 0, 37, 0
2, 12540, Note_on_c, 0, 49, 0
2, 12542, Note_on_c, 0, 40, 69
2, 12544, Note_on_c, 0, 61, 0
2, 12550, Note_on_c, 0, 52, 66
2, 12550, Note_on_c, 0, 64, 70
2, 12563, Note_on_c, 0, 40, 0
2, 12566, Note_on_c, 0, 64, 0
2, 12569, Note_on_c, 0, 52, 0
2, 12600, Note_on_c, 0, 33, 68
2, 12600, Note_on_c, 0, 45, 70
2, 12600, Note_on_c, 0, 57, 65
2, 12647, Note_on_c, 0, 57, 0
2, 12647, Note_on_c, 0, 45, 0
2, 12647, Note_on_c, 0, 33, 0
2, 12651, Note_on_c, 0, 37, 71
2, 12651, Note_on_c, 0, 49, 67
2, 12653, Note_on_c, 0, 61, 65
2, 12673, Note_on_c, 0, 49, 0
2, 12697, Note_on_c, 0, 37, 0
2, 12699, Note_on_c, 0, 61, 0
2, 12704, Note_on_c, 0, 35, 67
2, 12704, Note_on_c, 0, 47, 70
2, 12704, Note_on_c, 0, 59, 66
2, 12751, Note_on_c, 0, 59, 0
2, 12751, Note_on_c, 0, 47, 0
2, 12751, Note_on_c, 0, 35, 0
2, 12754, Note_on_c, 0, 38, 66
2, 12754, Note_on_c, 0, 50, 68
2, 12756, Note_on_c, 0, 62, 65
2, 12761, Control_c, 0, 64, 127
2, 12776, Note_on_c, 0, 50, 0
2, 12776, Note_on_c, 0, 38, 0
2, 12784, Note_on_c, 0, 62, 0
2, 12815, Note_on_c, 0, 31, 68
2, 12815, Note_on_c, 0, 43, 69
2, 12816, Note_on_c, 0, 55, 65
2, 12829, Control_c, 0, 64, 0
2, 12858, Note_on_c, 0, 33, 70
2, 12860, Note_on_c, 0, 45, 72
2, 12860, Note_on_c, 0, 57, 65
2, 12880, Note_on_c, 0, 45, 0
2, 12911, Note_on_c, 0, 31, 0
2, 12912, Note_on_c, 0, 43, 0
2, 12912, Note_on_c, 0, 55, 0
2, 12917, Note_on_c, 0, 35, 70
2, 12917, Note_on_c, 0, 47, 70
2, 12919, Note_on_c, 0, 59, 66
2, 12940, Note_on_c, 0, 47, 0
2, 12959, Note_on_c, 0, 35, 0
2, 12959, Note_on_c, 0, 57, 0
2, 12959, Note_on_c, 0, 33, 0
2, 12961, Note_on_c, 0, 37, 66
2, 12961, Note_on_c, 0, 49, 66
2, 12961, Note_on_c, 0, 61, 67
2, 12982, Note_on_c, 0, 49, 0
2, 12989, Note_on_c, 0, 61, 0
2, 12989, Note_on_c, 0, 59, 0
2, 13002, Note_on_c, 0, 37, 0
2, 13014, Note_on_c, 0, 30, 70
2, 13020, Note_on_c, 0, 42, 71
2, 13020, Note_on_c, 0, 54, 65
2, 13035, Note_on_c, 0, 30, 0
2, 13048, Note_on_c, 0, 54, 0
2, 13050, Note_on_c, 0, 42, 0
2, 13148, Note_on_c, 0, 72, 71
2, 13148, Note_on_c, 0, 75, 75
2, 13150, Note_on_c, 0, 78, 71
2, 13170, Note_on_c, 0, 75, 0
2, 13176, Note_on_c, 0, 78, 0
2, 13176, Note_on_c, 0, 72, 0
2, 13285, Note_on_c, 0, 72, 78
2, 13285, Note_on_c, 0, 75, 79
2, 13285, Note_on_c, 0, 78, 81
2, 13306, Note_on_c, 0, 75, 0
2, 13312, Note_on_c, 0, 78, 0
2, 13312, Note_on_c, 0, 72, 0
2, 13400, Note_on_c, 0, 72, 77
2, 13400, Note_on_c, 0, 75, 84
2, 13403, Note_on_c, 0, 78, 82
2, 13421, Note_on_c, 0, 75, 0
2, 13429, Note_on_c, 0, 78, 0
2, 13429, Note_on_c, 0, 72, 0
2, 13517, Note_on_c, 0, 69, 83
2, 13517, Note_on_c, 0, 72, 80
2, 13517, Note_on_c, 0, 75, 82
2, 13517, Note_on_c, 0, 78, 80
2, 13541, Note_on_c, 0, 75, 0
2, 13541, Note_on_c, 0, 69, 0
2, 13541, Note_on_c, 0, 72, 0
2, 13585, Note_on_c, 0, 78, 0
2, 13599, Note_on_c, 0, 76, 83
2, 13599, Note_on_c, 0, 79, 83
2, 13612, Control_c, 0, 67, 127
2, 13617, Note_on_c, 0, 76, 0
2, 13619, Note_on_c, 0, 79, 0
2, 13622, Note_on_c, 0, 69, 84
2, 13622, Note_on_c, 0, 72, 82
2, 13622, Note_on_c, 0, 75, 80
2, 13622, Note_on_c, 0, 78, 83
2, 13638, Control_c, 0, 67, 0
2, 13648, Note_on_c, 0, 69, 0
2, 13650, Note_on_c, 0, 72, 0
2, 13662, Note_on_c, 0, 75, 0
2, 13662, Note_on_c, 0, 78, 0
2, 13667, Note_on_c, 0, 73, 83
2, 13667, Note_on_c, 0, 76, 81
2, 13687, Note_on_c, 0, 76, 0
2, 13687, Note_on_c, 0, 73, 0
2, 13716, Note_on_c, 0, 69, 79
2, 13716, Note_on_c, 0, 72, 79
2, 13716, Note_on_c, 0, 75, 78
2, 13716, Note_on_c, 0, 78, 83
2, 13729, Note_on_c, 0, 69, 0
2, 13731, Note_on_c, 0, 72, 0
2, 13755, Note_on_c, 0, 75, 0
2, 13755, Note_on_c, 0, 78, 0
2, 13763, Note_on_c, 0, 76, 84
2, 13763, Note_on_c, 0, 79, 83
2, 13791, Note_on_c, 0, 79, 0
2, 13791, Note_on_c, 0, 76, 0
2, 13814, Note_on_c, 0, 66, 83
2, 13814, Note_on_c, 0, 69, 78
2, 13814, Note_on_c, 0, 72, 83
2, 13814, Note_on_c, 0, 78, 80
2, 13814, Note_on_c, 0, 81, 81
2, 13834, Note_on_c, 0, 69, 0
2, 13840, Note_on_c, 0, 78, 0
2, 13840, Note_on_c, 0, 66, 0
2, 13840, Note_on_c, 0, 72, 0
2, 13889, Note_on_c, 0, 81, 0
2, 13907, Note_on_c, 0, 79, 82
2, 13907, Note_on_c, 0, 83, 84
2, 13928, Note_on_c, 0, 83, 0
2, 13928, Note_on_c, 0, 79, 0
2, 13930, Note_on_c, 0, 66, 80
2, 13930, Note_on_c, 0, 69, 84
2, 13930, Note_on_c, 0, 72, 78
2, 13930, Note_on_c, 0, 78, 83
2, 13930, Note_on_c, 0, 81, 82
2, 13951, Note_on_c, 0, 81, 0
2, 13951, Note_on_c, 0, 72, 0
2, 13951, Note_on_c, 0, 66, 0
2, 13951, Note_on_c, 0, 69, 0
2, 13951, Note_on_c, 0, 78, 0
2, 13975, Note_on_c, 0, 79, 77
2, 13977, Note_on_c, 0, 76, 77
2, 13995, Note_on_c, 0, 76, 0
2, 13997, Note_on_c, 0, 79, 0
2, 14007, Control_c, 0, 64, 127
2, 14022, Note_on_c, 0, 66, 84
2, 14022, Note_on_c, 0, 69, 80
2, 14022, Note_on_c, 0, 72, 78
2, 14022, Note_on_c, 0, 78, 79
2, 14024, Note_on_c, 0, 81, 83
2, 14037, Note_on_c, 0, 72, 0
2, 14037, Note_on_c, 0, 66, 0
2, 14037, Control_c, 0, 64, 0
2, 14039, Note_on_c, 0, 69, 0
2, 14044, Note_on_c, 0, 78, 0
2, 14064, Note_on_c, 0, 81, 0
2, 14070, Note_on_c, 0, 79, 80
2, 14070, Note_on_c, 0, 83, 81
2, 14091, Note_on_c, 0, 79, 0
2, 14104, Control_c, 0, 67, 127
2, 14117, Note_on_c, 0, 83, 0
2, 14120, Note_on_c, 0, 63, 67
2, 14120, Note_on_c, 0, 69, 77
2, 14122, Note_on_c, 0, 66, 79
2, 14122, Note_on_c, 0, 72, 81
2, 14122, Note_on_c, 0, 81, 80
2, 14122, Note_on_c, 0, 84, 82
2, 14132, Control_c, 0, 67, 0
2, 14144, Note_on_c, 0, 66, 0
2, 14144, Note_on_c, 0, 69, 0
2, 14152, Note_on_c, 0, 72, 0
2, 14152, Note_on_c, 0, 63, 0
2, 14152, Note_on_c, 0, 84, 0
2, 14152, Note_on_c, 0, 81, 0
2, 14243, Note_on_c, 0, 81, 84
2, 14243, Note_on_c, 0, 84, 78
2, 14264, Note_on_c, 0, 84, 0
2, 14264, Note_on_c, 0, 81, 0
2, 14298, Note_on_c, 0, 80, 79
2, 14298, Note_on_c, 0, 83, 79
2, 14327, Note_on_c, 0, 83, 0
2, 14327, Control_c, 0, 67, 127
2, 14328, Note_on_c, 0, 80, 0
2, 14354, Note_on_c, 0, 81, 80
2, 14354, Note_on_c, 0, 84, 78
2, 14356, Control_c, 0, 67, 0
2, 14379, Note_on_c, 0, 84, 0
2, 14381, Note_on_c, 0, 81, 0
2, 14407, Note_on_c, 0, 83, 79
2, 14407, Note_on_c, 0, 86, 83
2, 14449, Note_on_c, 0, 40, 70
2, 14452, Note_on_c, 0, 86, 0
2, 14452, Note_on_c, 0, 83, 0
2, 14455, Note_on_c, 0, 84, 78
2, 14455, Note_on_c, 0, 88, 77
2, 14461, Note_on_c, 0, 48, 67
2, 14476, Note_on_c, 0, 84, 0
2, 14510, Note_on_c, 0, 88, 0
2, 14513, Note_on_c, 0, 83, 83
2, 14513, Note_on_c, 0, 86, 77
2, 14515, Note_on_c, 0, 40, 0
2, 14515, Note_on_c, 0, 48, 0
2, 14533, Note_on_c, 0, 83, 0
2, 14533, Note_on_c, 0, 86, 0
2, 14564, Note_on_c, 0, 48, 69
2, 14564, Note_on_c, 0, 55, 68
2, 14564, Note_on_c, 0, 60, 72
2, 14566, Note_on_c, 0, 81, 80
2, 14566, Note_on_c, 0, 84, 83
2, 14586, Note_on_c, 0, 60, 0
2, 14586, Note_on_c, 0, 48, 0
2, 14588, Note_on_c, 0, 55, 0
2, 14588, Note_on_c, 0, 81, 0
2, 14588, Note_on_c, 0, 84, 0
2, 14612, Note_on_c, 0, 79, 80
2, 14614, Note_on_c, 0, 83, 84
2, 14635, Note_on_c, 0, 83, 0
2, 14635, Note_on_c, 0, 79, 0
2, 14658, Note_on_c, 0, 55, 70
2, 14658, Note_on_c, 0, 60, 70
2, 14658, Note_on_c, 0, 64, 68
2, 14660, Note_on_c, 0, 78, 84
2, 14660, Note_on_c, 0, 81, 83
2, 14678, Note_on_c, 0, 81, 0
2, 14678, Note_on_c, 0, 78, 0
2, 14683, Note_on_c, 0, 55, 0
2, 14683, Note_on_c, 0, 60, 0
2, 14683, Note_on_c, 0, 64, 0
2, 14711, Note_on_c, 0, 76, 80
2, 14711, Note_on_c, 0, 79, 77
2, 14732, Control_c, 0, 67, 127
2, 14752, Note_on_c, 0, 79, 0
2, 14752, Note_on_c, 0, 76, 0
2, 14758, Note_on_c, 0, 60, 70
2, 14758, Note_on_c, 0, 64, 67
2, 14758, Note_on_c, 0, 69, 77
2, 14758, Note_on_c, 0, 74, 82
2, 14758, Note_on_c, 0, 78, 81
2, 14778, Note_on_c, 0, 74, 0
2, 14780, Note_on_c, 0, 78, 0
2, 14793, Control_c, 0, 67, 0
2, 14806, Note_on_c, 0, 60, 0
2, 14806, Note_on_c, 0, 64, 0
2, 14808, Note_on_c, 0, 69, 0
2, 14810, Note_on_c, 0, 72, 82
2, 14810, Note_on_c, 0, 76, 83
2, 14831, Note_on_c, 0, 76, 0
2, 14831, Note_on_c, 0, 72, 0
2, 14861, Note_on_c, 0, 60, 71
2, 14861, Note_on_c, 0, 64, 68
2, 14861, Note_on_c, 0, 67, 81
2, 14861, Note_on_c, 0, 71, 79
2, 14861, Note_on_c, 0, 74, 81
2, 14882, Note_on_c, 0, 67, 0
2, 14882, Note_on_c, 0, 60, 0
2, 14882, Note_on_c, 0, 64, 0
2, 14906, Note_on_c, 0, 71, 0
2, 14906, Note_on_c, 0, 74, 0
2, 14909, Note_on_c, 0, 69, 83
2, 14909, Note_on_c, 0, 72, 79
2, 14930, Note_on_c, 0, 72, 0
2, 14930, Note_on_c, 0, 69, 0
2, 14953, Note_on_c, 0, 55, 66
2, 14953, Note_on_c, 0, 60, 66
2, 14959, Note_on_c, 0, 67, 81
2, 14959, Note_on_c, 0, 71, 84
2, 14975, Note_on_c, 0, 60, 0
2, 14975, Note_on_c, 0, 55, 0
2, 14980, Note_on_c, 0, 67, 0
2, 14980, Note_on_c, 0, 71, 0
2, 15004, Note_on_c, 0, 66, 82
2, 15004, Note_on_c, 0, 69, 79
2, 15025, Note_on_c, 0, 69, 0
2, 15025, Note_on_c, 0, 66, 0
2, 15041, Control_c, 0, 67, 127
2, 15056, Note_on_c, 0, 30, 67
2, 15056, Note_on_c, 0, 64, 70
2, 15056, Note_on_c, 0, 67, 84
2, 15067, Control_c, 0, 67, 0
2, 15085, Note_on_c, 0, 30, 0
2, 15103, Note_on_c, 0, 67, 0
2, 15103, Note_on_c, 0, 64, 0
2, 15109, Note_on_c, 0, 66, 82
2, 15124, Note_on_c, 0, 66, 0
2, 15163, Note_on_c, 0, 54, 71
2, 15163, Note_on_c, 0, 59, 71
2, 15163, Note_on_c, 0, 64, 68
2, 15165, Note_on_c, 0, 66, 78
2, 15183, Note_on_c, 0, 66, 0
2, 15183, Note_on_c, 0, 54, 0
2, 15183, Note_on_c, 0, 59, 0
2, 15183, Note_on_c, 0, 64, 0
2, 15230, Note_on_c, 0, 58, 67
2, 15251, Note_on_c, 0, 58, 0
2, 15301, Note_on_c, 0, 49, 67
2, 15301, Note_on_c, 0, 54, 67
2, 15301, Note_on_c, 0, 58, 66
2, 15301, Note_on_c, 0, 64, 67
2, 15301, Note_on_c, 0, 66, 80
2, 15301, Note_on_c, 0, 78, 84
2, 15327, Note_on_c, 0, 66, 0
2, 15327, Note_on_c, 0, 64, 0
2, 15327, Note_on_c, 0, 58, 0
2, 15327, Note_on_c, 0, 49, 0
2, 15327, Note_on_c, 0, 54, 0
2, 15329, Note_on_c, 0, 78, 0
2, 15487, Note_on_c, 0, 71, 80
2, 15492, Note_on_c, 0, 54, 71
2, 15492, Note_on_c, 0, 62, 66
2, 15494, Note_on_c, 0, 47, 72
2, 15496, Note_on_c, 0, 59, 67
2, 15662, Control_c, 0, 64, 127
2, 15724, Control_c, 0, 64, 0
2, 15804, Note_on_c, 0, 59, 0
2, 15804, Note_on_c, 0, 62, 0
2, 15804, Note_on_c, 0, 71, 0
2, 15804, Note_on_c, 0, 54, 0
2, 15804, Note_on_c, 0, 47, 0
2, 15921, Note_on_c, 0, 31, 66
2, 15921, Note_on_c, 0, 38, 68
2, 15921, Note_on_c, 0, 43, 72
2, 15921, Note_on_c, 0, 50, 68
2, 15921, Note_on_c, 0, 55, 72
2, 15921, Note_on_c, 0, 62, 68
2, 16144, Note_on_c, 0, 62, 0
2, 16144, Note_on_c, 0, 43, 0
2, 16146, Note_on_c, 0, 50, 0
2, 16146, Note_on_c, 0, 31, 0
2, 16146, Note_on_c, 0, 38, 0
2, 16146, Note_on_c, 0, 55, 0
2, 16190, Note_on_c, 0, 31, 83
2, 16190, Note_on_c, 0, 38, 81
2, 16190, Note_on_c, 0, 43, 80
2, 16190, Note_on_c, 0, 50, 79
2, 16190, Note_on_c, 0, 55, 83
2, 16190, Note_on_c, 0, 62, 78
2, 16210, Note_on_c, 0, 55, 0
2, 16212, Note_on_c, 0, 43, 0
2, 16224, Note_on_c, 0, 50, 0
2, 16224, Note_on_c, 0, 31, 0
2, 16224, Note_on_c, 0, 62, 0
2, 16224, Note_on_c, 0, 38, 0
2, 16363, Note_on_c, 0, 31, 77
2, 16363, Note_on_c, 0, 50, 80
2, 16363, Note_on_c, 0, 55, 77
2, 16365, Note_on_c, 0, 38, 82
2, 16365, Note_on_c, 0, 43, 83
2, 16365, Note_on_c, 0, 62, 80
2, 16523, Control_c, 0, 64, 127
2, 16549, Control_c, 0, 64, 0
2, 16588, Note_on_c, 0, 62, 0
2, 16588, Note_on_c, 0, 50, 0
2, 16588, Note_on_c, 0, 55, 0
2, 16588, Note_on_c, 0, 31, 0
2, 16588, Note_on_c, 0, 43, 0
2, 16588, Note_on_c, 0, 38, 0
2, 16631, Note_on_c, 0, 31, 81
2, 16631, Note_on_c, 0, 38, 79
2, 16631, Note_on_c, 0, 43, 81
2, 16631, Note_on_c, 0, 50, 82
2, 16631, Note_on_c, 0, 55, 82
2, 16631, Note_on_c, 0, 62, 78
2, 16651, Note_on_c, 0, 55, 0
2, 16658, Note_on_c, 0, 43, 0
2, 16658, Note_on_c, 0, 31, 0
2, 16658, Note_on_c, 0, 38, 0
2, 16664, Note_on_c, 0, 62, 0
2, 16666, Note_on_c, 0, 50, 0
2, 16823, Note_on_c, 0, 31, 82
2, 16823, Note_on_c, 0, 38, 79
2, 16823, Note_on_c, 0, 43, 84
2, 16823, Note_on_c, 0, 50, 84
2, 16825, Note_on_c, 0, 55, 83
2, 16825, Note_on_c, 0, 62, 84
2, 17039, Note_on_c, 0, 62, 0
2, 17039, Note_on_c, 0, 38, 0
2, 17039, Note_on_c, 0, 43, 0
2, 17039, Note_on_c, 0, 31, 0
2, 17039, Note_on_c, 0, 55, 0
2, 17039, Note_on_c, 0, 50, 0
2, 17085, Note_on_c, 0, 31, 80
2, 17085, Note_on_c, 0, 38, 84
2, 17087, Note_on_c, 0, 43, 78
2, 17087, Note_on_c, 0, 50, 80
2, 17087, Note_on_c, 0, 55, 80
2, 17087, Note_on_c, 0, 62, 81
2, 17105, Note_on_c, 0, 50, 0
2, 17105, Note_on_c, 0, 43, 0
2, 17107, Note_on_c, 0, 55, 0
2, 17119, Note_on_c, 0, 31, 0
2, 17119, Note_on_c, 0, 62, 0
2, 17119, Note_on_c, 0, 38, 0
2, 17273, Note_on_c, 0, 31, 83
2, 17273, Note_on_c, 0, 38, 78
2, 17273, Note_on_c, 0, 43, 83
2, 17273, Note_on_c, 0, 50, 84
2, 17273, Note_on_c, 0, 55, 83
2, 17273, Note_on_c, 0, 62, 80
2, 17429, Note_on_c, 0, 50, 0
2, 17468, Note_on_c, 0, 38, 0
2, 17468, Note_on_c, 0, 43, 0
2, 17468, Note_on_c, 0, 31, 0
2, 17468, Note_on_c, 0, 62, 0
2, 17468, Note_on_c, 0, 55, 0
2, 17472, Note_on_c, 0, 50, 79
2, 17529, Note_on_c, 0, 52, 82
2, 17568, Note_on_c, 0, 50, 0
2, 17592, Note_on_c, 0, 55, 83
2, 17633, Note_on_c, 0, 52, 0
2, 17677, Note_on_c, 0, 67, 80
2, 17682, Note_on_c, 0, 59, 81
2, 17723, Note_on_c, 0, 55, 0
2, 17775, Note_on_c, 0, 62, 84
2, 17839, Note_on_c, 0, 43, 77
2, 17844, Note_on_c, 0, 50, 81
2, 17847, Note_on_c, 0, 64, 77
2, 17853, Note_on_c, 0, 67, 0
2, 17899, Note_on_c, 0, 67, 78
2, 17925, Note_on_c, 0, 64, 0
2, 17937, Control_c, 0, 64, 127
2, 17958, Note_on_c, 0, 69, 50
2, 17969, Note_on_c, 0, 60, 84
2, 17969, Note_on_c, 0, 64, 81
2, 17971, Control_c, 0, 64, 0
2, 18004, Note_on_c, 0, 59, 0
2, 18036, Note_on_c, 0, 66, 49
2, 18036, Note_on_c, 0, 74, 54
2, 18056, Note_on_c, 0, 62, 0
2, 18072, Note_on_c, 0, 67, 0
2, 18090, Note_on_c, 0, 71, 53
2, 18096, Note_on_c, 0, 66, 0
2, 18096, Note_on_c, 0, 43, 0
2, 18096, Note_on_c, 0, 50, 0
2, 18097, Note_on_c, 0, 74, 0
2, 18097, Note_on_c, 0, 69, 0
2, 18102, Note_on_c, 0, 62, 77
2, 18102, Note_on_c, 0, 67, 54
2, 18108, Note_on_c, 0, 76, 53
2, 18137, Note_on_c, 0, 60, 0
2, 18150, Note_on_c, 0, 64, 0
2, 18164, Note_on_c, 0, 76, 0
2, 18168, Note_on_c, 0, 69, 52
2, 18168, Note_on_c, 0, 78, 49
2, 18190, Note_on_c, 0, 71, 0
2, 18234, Note_on_c, 0, 71, 48
2, 18234, Note_on_c, 0, 79, 52
2, 18249, Note_on_c, 0, 69, 0
2, 18255, Note_on_c, 0, 78, 0
2, 18273, Note_on_c, 0, 71, 0
2, 18291, Note_on_c, 0, 69, 50
2, 18291, Note_on_c, 0, 78, 50
2, 18307, Note_on_c, 0, 79, 0
2, 18312, Note_on_c, 0, 67, 0
2, 18343, Note_on_c, 0, 71, 43
2, 18345, Note_on_c, 0, 69, 0
2, 18353, Note_on_c, 0, 67, 48
2, 18353, Note_on_c, 0, 76, 48
2, 18366, Note_on_c, 0, 78, 0
2, 18397, Note_on_c, 0, 71, 0
2, 18409, Note_on_c, 0, 66, 45
2, 18409, Note_on_c, 0, 74, 46
2, 18417, Control_c, 0, 67, 127
2, 18423, Note_on_c, 0, 67, 0
2, 18423, Note_on_c, 0, 76, 0
2, 18444, Control_c, 0, 67, 0
2, 18459, Note_on_c, 0, 71, 42
2, 18469, Note_on_c, 0, 62, 0
2, 18472, Note_on_c, 0, 64, 78
2, 18485, Note_on_c, 0, 66, 0
2, 18488, Note_on_c, 0, 74, 0
2, 18529, Note_on_c, 0, 62, 81
2, 18529, Note_on_c, 0, 69, 54
2, 18561, Note_on_c, 0, 64, 0
2, 18582, Note_on_c, 0, 62, 0
2, 18588, Note_on_c, 0, 59, 78
2, 18588, Note_on_c, 0, 67, 70
2, 18601, Note_on_c, 0, 69, 0
2, 18627, Note_on_c, 0, 71, 0
2, 18638, Note_on_c, 0, 55, 83
2, 18640, Note_on_c, 0, 64, 82
2, 18681, Note_on_c, 0, 59, 0
2, 18681, Note_on_c, 0, 67, 0
2, 18686, Note_on_c, 0, 71, 51
2, 18696, Note_on_c, 0, 54, 77
2, 18696, Note_on_c, 0, 62, 77
2, 18732, Note_on_c, 0, 64, 0
2, 18738, Note_on_c, 0, 55, 0
2, 18748, Note_on_c, 0, 54, 0
2, 18750, Note_on_c, 0, 62, 0
2, 18752, Note_on_c, 0, 71, 0
2, 18752, Control_c, 0, 67, 127
2, 18755, Note_on_c, 0, 53, 83
2, 18755, Note_on_c, 0, 59, 78
2, 18781, Control_c, 0, 67, 0
2, 18807, Control_c, 0, 64, 127
2, 18807, Note_on_c, 0, 43, 79
2, 18817, Note_on_c, 0, 71, 47
2, 18823, Note_on_c, 0, 59, 0
2, 18823, Note_on_c, 0, 53, 0
2, 18828, Note_on_c, 0, 52, 81
2, 18828, Note_on_c, 0, 62, 79
2, 18839, Control_c, 0, 64, 0
2, 18899, Note_on_c, 0, 53, 84
2, 18960, Note_on_c, 0, 56, 82
2, 19013, Note_on_c, 0, 52, 0
2, 19013, Note_on_c, 0, 43, 0
2, 19013, Note_on_c, 0, 59, 80
2, 19050, Note_on_c, 0, 69, 51
2, 19057, Note_on_c, 0, 56, 0
2, 19059, Note_on_c, 0, 71, 0
2, 19062, Note_on_c, 0, 57, 80
2, 19062, Note_on_c, 0, 60, 79
2, 19062, Note_on_c, 0, 65, 54
2, 19072, Note_on_c, 0, 62, 0
2, 19084, Note_on_c, 0, 59, 0
2, 19127, Note_on_c, 0, 64, 80
2, 19143, Note_on_c, 0, 64, 0
2, 19143, Note_on_c, 0, 65, 0
2, 19174, Note_on_c, 0, 72, 41
2, 19179, Note_on_c, 0, 60, 0
2, 19179, Note_on_c, 0, 53, 0
2, 19181, Note_on_c, 0, 69, 0
2, 19186, Note_on_c, 0, 64, 79
2, 19250, Note_on_c, 0, 66, 47
2, 19322, Note_on_c, 0, 63, 78
2, 19322, Note_on_c, 0, 67, 43
2, 19367, Note_on_c, 0, 68, 43
2, 19374, Note_on_c, 0, 64, 0
2, 19380, Note_on_c, 0, 66, 0
2, 19416, Note_on_c, 0, 67, 0
2, 19428, Note_on_c, 0, 62, 83
2, 19428, Note_on_c, 0, 71, 44
2, 19441, Note_on_c, 0, 72, 0
2, 19478, Note_on_c, 0, 76, 47
2, 19490, Note_on_c, 0, 63, 0
2, 19503, Note_on_c, 0, 62, 0
2, 19503, Note_on_c, 0, 71, 0
2, 19541, Note_on_c, 0, 57, 0
2, 19541, Note_on_c, 0, 68, 0
2, 19541, Note_on_c, 0, 76, 0
2, 19544, Note_on_c, 0, 43, 81
2, 19544, Note_on_c, 0, 52, 78
2, 19544, Note_on_c, 0, 62, 78
2, 19544, Note_on_c, 0, 71, 45
2, 19631, Note_on_c, 0, 53, 77
2, 19684, Note_on_c, 0, 56, 84
2, 19731, Note_on_c, 0, 52, 0
2, 19731, Note_on_c, 0, 43, 0
2, 19734, Control_c, 0, 67, 127
2, 19737, Note_on_c, 0, 59, 83
2, 19752, Note_on_c, 0, 62, 0
2, 19762, Control_c, 0, 67, 0
2, 19783, Note_on_c, 0, 69, 44
2, 19789, Note_on_c, 0, 53, 0
2, 19797, Note_on_c, 0, 57, 80
2, 19797, Note_on_c, 0, 60, 80
2, 19797, Note_on_c, 0, 65, 47
2, 19810, Note_on_c, 0, 71, 0
2, 19823, Note_on_c, 0, 56, 0
2, 19856, Note_on_c, 0, 65, 0
2, 19862, Note_on_c, 0, 64, 78
2, 19864, Note_on_c, 0, 59, 0
2, 19877, Control_c, 0, 67, 127
2, 19911, Control_c, 0, 67, 0
2, 19934, Note_on_c, 0, 76, 54
2, 19944, Note_on_c, 0, 69, 0
2, 19948, Note_on_c, 0, 67, 55
2, 19964, Note_on_c, 0, 64, 0
2, 20018, Note_on_c, 0, 71, 55
2, 20088, Note_on_c, 0, 67, 0
2, 20093, Note_on_c, 0, 66, 57
2, 20093, Note_on_c, 0, 74, 55
2, 20166, Note_on_c, 0, 71, 0
2, 20172, Note_on_c, 0, 72, 56
2, 20222, Note_on_c, 0, 57, 0
2, 20222, Note_on_c, 0, 60, 0
2, 20222, Note_on_c, 0, 78, 60
2, 20224, Note_on_c, 0, 66, 0
2, 20224, Note_on_c, 0, 74, 0
2, 20224, Note_on_c, 0, 76, 0
2, 20233, Note_on_c, 0, 50, 79
2, 20233, Note_on_c, 0, 58, 79
2, 20235, Note_on_c, 0, 61, 78
2, 20235, Note_on_c, 0, 64, 82
2, 20235, Note_on_c, 0, 70, 57
2, 20281, Note_on_c, 0, 72, 0
2, 20320, Note_on_c, 0, 73, 56
2, 20379, Control_c, 0, 67, 127
2, 20396, Note_on_c, 0, 73, 0
2, 20396, Note_on_c, 0, 70, 0
2, 20396, Note_on_c, 0, 61, 0
2, 20396, Note_on_c, 0, 58, 0
2, 20396, Note_on_c, 0, 64, 0
2, 20400, Note_on_c, 0, 50, 0
2, 20400, Note_on_c, 0, 62, 80
2, 20400, Note_on_c, 0, 71, 55
2, 20400, Note_on_c, 0, 74, 53
2, 20405, Control_c, 0, 67, 0
2, 20416, Note_on_c, 0, 78, 0
2, 20509, Note_on_c, 0, 31, 81
2, 20512, Note_on_c, 0, 43, 79
2, 20623, Note_on_c, 0, 50, 80
2, 20675, Note_on_c, 0, 52, 79
2, 20737, Note_on_c, 0, 55, 83
2, 20748, Control_c, 0, 67, 127
2, 20751, Note_on_c, 0, 50, 0
2, 20774, Control_c, 0, 67, 0
2, 20806, Note_on_c, 0, 50, 84
2, 20808, Note_on_c, 0, 79, 42
2, 20813, Note_on_c, 0, 59, 77
2, 20847, Note_on_c, 0, 62, 0
2, 20886, Note_on_c, 0, 59, 0
2, 20891, Note_on_c, 0, 62, 78
2, 20891, Note_on_c, 0, 66, 50
2, 20940, Note_on_c, 0, 66, 0
2, 20943, Note_on_c, 0, 64, 82
2, 20943, Note_on_c, 0, 67, 53
2, 20949, Note_on_c, 0, 59, 77
2, 21008, Note_on_c, 0, 66, 48
2, 21008, Note_on_c, 0, 69, 51
2, 21018, Control_c, 0, 67, 127
2, 21028, Note_on_c, 0, 62, 0
2, 21042, Note_on_c, 0, 67, 0
2, 21042, Note_on_c, 0, 71, 0
2, 21045, Control_c, 0, 67, 0
2, 21060, Note_on_c, 0, 78, 51
2, 21066, Note_on_c, 0, 66, 0
2, 21071, Note_on_c, 0, 62, 84
2, 21072, Note_on_c, 0, 67, 51
2, 21072, Note_on_c, 0, 71, 51
2, 21080, Note_on_c, 0, 74, 0
2, 21080, Note_on_c, 0, 69, 0
2, 21086, Note_on_c, 0, 79, 0
2, 21122, Note_on_c, 0, 69, 54
2, 21122, Note_on_c, 0, 74, 51
2, 21132, Control_c, 0, 67, 127
2, 21148, Note_on_c, 0, 67, 0
2, 21148, Note_on_c, 0, 71, 0
2, 21158, Control_c, 0, 67, 0
2, 21168, Note_on_c, 0, 76, 48
2, 21178, Note_on_c, 0, 67, 48
2, 21180, Note_on_c, 0, 78, 0
2, 21180, Note_on_c, 0, 71, 44
2, 21222, Note_on_c, 0, 78, 44
2, 21274, Note_on_c, 0, 78, 0
2, 21274, Note_on_c, 0, 67, 0
2, 21279, Note_on_c, 0, 66, 44
2, 21279, Note_on_c, 0, 79, 44
2, 21307, Note_on_c, 0, 74, 0
2, 21331, Note_on_c, 0, 83, 46
2, 21343, Note_on_c, 0, 64, 0
2, 21343, Note_on_c, 0, 71, 0
2, 21375, Note_on_c, 0, 74, 46
2, 21381, Note_on_c, 0, 66, 0
2, 21383, Note_on_c, 0, 76, 0
2, 21383, Note_on_c, 0, 79, 0
2, 21383, Note_on_c, 0, 83, 0
2, 21385, Note_on_c, 0, 64, 81
2, 21385, Note_on_c, 0, 71, 62
2, 21422, Control_c, 0, 64, 127
2, 21443, Note_on_c, 0, 67, 60
2, 21480, Control_c, 0, 64, 0
2, 21487, Note_on_c, 0, 72, 63
2, 21489, Note_on_c, 0, 67, 0
2, 21489, Note_on_c, 0, 64, 0
2, 21489, Note_on_c, 0, 69, 0
2, 21489, Note_on_c, 0, 62, 0
2, 21489, Note_on_c, 0, 31, 0
2, 21489, Note_on_c, 0, 50, 0
2, 21489, Note_on_c, 0, 59, 0
2, 21489, Note_on_c, 0, 55, 0
2, 21489, Note_on_c, 0, 52, 0
2, 21489, Note_on_c, 0, 43, 0
2, 21489, Note_on_c, 0, 71, 0
2, 21495, Note_on_c, 0, 63, 83
2, 21510, Note_on_c, 0, 74, 0
2, 21544, Note_on_c, 0, 66, 61
2, 21603, Note_on_c, 0, 62, 77
2, 21603, Note_on_c, 0, 69, 65
2, 21660, Note_on_c, 0, 66, 0
2, 21665, Note_on_c, 0, 67, 63
2, 21672, Note_on_c, 0, 63, 0
2, 21717, Note_on_c, 0, 61, 80
2, 21717, Note_on_c, 0, 71, 78
2, 21759, Note_on_c, 0, 72, 0
2, 21765, Note_on_c, 0, 62, 0
2, 21778, Note_on_c, 0, 64, 77
2, 21807, Control_c, 0, 67, 127
2, 21823, Note_on_c, 0, 43, 79
2, 21823, Note_on_c, 0, 52, 84
2, 21831, Note_on_c, 0, 64, 0
2, 21831, Note_on_c, 0, 67, 0
2, 21831, Note_on_c, 0, 69, 0
2, 21833, Note_on_c, 0, 61, 0
2, 21833, Note_on_c, 0, 71, 0
2, 21835, Control_c, 0, 67, 0
2, 21837, Note_on_c, 0, 60, 78
2, 21840, Note_on_c, 0, 78, 76
2, 21852, Note_on_c, 0, 74, 75
2, 21896, Note_on_c, 0, 64, 78
2, 21904, Note_on_c, 0, 43, 0
2, 21904, Note_on_c, 0, 52, 0
2, 21948, Note_on_c, 0, 52, 78
2, 21948, Note_on_c, 0, 68, 72
2, 22005, Note_on_c, 0, 71, 71
2, 22014, Note_on_c, 0, 74, 0
2, 22014, Note_on_c, 0, 64, 0
2, 22058, Note_on_c, 0, 64, 80
2, 22058, Note_on_c, 0, 74, 76
2, 22060, Note_on_c, 0, 76, 76
2, 22106, Note_on_c, 0, 78, 0
2, 22111, Note_on_c, 0, 71, 0
2, 22116, Note_on_c, 0, 72, 76
2, 22124, Note_on_c, 0, 74, 0
2, 22152, Control_c, 0, 67, 127
2, 22162, Note_on_c, 0, 68, 0
2, 22162, Note_on_c, 0, 60, 0
2, 22162, Note_on_c, 0, 64, 0
2, 22168, Note_on_c, 0, 71, 72
2, 22168, Note_on_c, 0, 74, 72
2, 22173, Control_c, 0, 67, 0
2, 22182, Note_on_c, 0, 72, 0
2, 22182, Note_on_c, 0, 76, 0
2, 22226, Note_on_c, 0, 60, 83
2, 22286, Note_on_c, 0, 62, 80
2, 22286, Note_on_c, 0, 64, 77
2, 22318, Note_on_c, 0, 60, 0
2, 22349, Note_on_c, 0, 68, 83
2, 22359, Note_on_c, 0, 71, 0
2, 22398, Note_on_c, 0, 60, 78
2, 22398, Note_on_c, 0, 72, 82
2, 22408, Note_on_c, 0, 71, 82
2, 22457, Note_on_c, 0, 69, 84
2, 22460, Note_on_c, 0, 74, 0
2, 22478, Note_on_c, 0, 71, 0
2, 22490, Note_on_c, 0, 64, 0
2, 22495, Control_c, 0, 67, 127
2, 22515, Control_c, 0, 64, 127
2, 22515, Note_on_c, 0, 43, 83
2, 22515, Control_c, 0, 67, 0
2, 22517, Note_on_c, 0, 52, 0
2, 22519, Note_on_c, 0, 72, 0
2, 22519, Note_on_c, 0, 60, 0
2, 22519, Note_on_c, 0, 62, 0
2, 22519, Note_on_c, 0, 69, 0
2, 22519, Note_on_c, 0, 68, 0
2, 22525, Note_on_c, 0, 71, 81
2, 22533, Note_on_c, 0, 53, 80
2, 22535, Note_on_c, 0, 64, 79
2, 22539, Control_c, 0, 64, 0
2, 22599, Note_on_c, 0, 62, 81
2, 22630, Control_c, 0, 67, 127
2, 22637, Control_c, 0, 64, 127
2, 22640, Note_on_c, 0, 64, 0
2, 22656, Control_c, 0, 67, 0
2, 22661, Note_on_c, 0, 62, 0
2, 22667, Note_on_c, 0, 68, 77
2, 22672, Control_c, 0, 64, 0
2, 22672, Note_on_c, 0, 52, 81
2, 22672, Note_on_c, 0, 64, 81
2, 22680, Note_on_c, 0, 53, 0
2, 22719, Note_on_c, 0, 71, 0
2, 22735, Note_on_c, 0, 61, 78
2, 22769, Note_on_c, 0, 64, 0
2, 22787, Note_on_c, 0, 52, 0
2, 22789, Note_on_c, 0, 61, 0
2, 22794, Note_on_c, 0, 69, 84
2, 22801, Note_on_c, 0, 55, 80
2, 22801, Note_on_c, 0, 64, 83
2, 22841, Note_on_c, 0, 68, 0
2, 22867, Note_on_c, 0, 60, 78
2, 22911, Note_on_c, 0, 64, 0
2, 22932, Note_on_c, 0, 60, 0
2, 22937, Note_on_c, 0, 72, 78
2, 22942, Note_on_c, 0, 54, 77
2, 22944, Note_on_c, 0, 64, 78
2, 22949, Note_on_c, 0, 55, 0
2, 22959, Note_on_c, 0, 69, 0
2, 23008, Note_on_c, 0, 59, 81
2, 23049, Note_on_c, 0, 64, 0
2, 23073, Note_on_c, 0, 54, 0
2, 23079, Note_on_c, 0, 50, 82
2, 23079, Note_on_c, 0, 60, 82
2, 23114, Note_on_c, 0, 59, 0
2, 23145, Note_on_c, 0, 57, 79
2, 23189, Note_on_c, 0, 60, 0
2, 23231, Note_on_c, 0, 60, 81
2, 23232, Note_on_c, 0, 71, 84
2, 23272, Note_on_c, 0, 57, 0
2, 23280, Note_on_c, 0, 72, 0
2, 23310, Note_on_c, 0, 43, 0
2, 23315, Note_on_c, 0, 62, 77
2, 23318, Note_on_c, 0, 50, 0
2, 23330, Note_on_c, 0, 60, 0
2, 23359, Control_c, 0, 67, 127
2, 23388, Control_c, 0, 67, 0
2, 23398, Note_on_c, 0, 43, 79
2, 23407, Note_on_c, 0, 31, 79
2, 23409, Note_on_c, 0, 59, 84
2, 23409, Note_on_c, 0, 67, 83
2, 23423, Note_on_c, 0, 71, 0
2, 23502, Note_on_c, 0, 43, 0
2, 23563, Note_on_c, 0, 43, 79
2, 23578, Note_on_c, 0, 62, 0
2, 23622, Note_on_c, 0, 62, 84
2, 23683, Note_on_c, 0, 50, 82
2, 23686, Note_on_c, 0, 64, 80
2, 23706, Note_on_c, 0, 67, 0
2, 23744, Note_on_c, 0, 67, 78
2, 23811, Note_on_c, 0, 67, 0
2, 23811, Note_on_c, 0, 64, 0
2, 23811, Note_on_c, 0, 59, 0
2, 23811, Note_on_c, 0, 50, 0
2, 23817, Note_on_c, 0, 55, 78
2, 23817, Note_on_c, 0, 71, 79
2, 23880, Note_on_c, 0, 71, 0
2, 23880, Note_on_c, 0, 62, 0
2, 23884, Note_on_c, 0, 50, 84
2, 23886, Note_on_c, 0, 69, 82
2, 23886, Note_on_c, 0, 74, 82
2, 23892, Note_on_c, 0, 43, 0
2, 23905, Note_on_c, 0, 69, 0
2, 23933, Note_on_c, 0, 50, 0
2, 23936, Note_on_c, 0, 43, 83
2, 23941, Note_on_c, 0, 74, 0
2, 23944, Note_on_c, 0, 71, 83
2, 23946, Note_on_c, 0, 76, 83
2, 23966, Note_on_c, 0, 71, 0
2, 24000, Note_on_c, 0, 76, 0
2, 24004, Note_on_c, 0, 50, 80
2, 24004, Note_on_c, 0, 74, 82
2, 24006, Note_on_c, 0, 79, 77
2, 24026, Note_on_c, 0, 74, 0
2, 24028, Note_on_c, 0, 79, 0
2, 24051, Note_on_c, 0, 50, 0
2, 24057, Note_on_c, 0, 57, 80
2, 24057, Note_on_c, 0, 78, 77
2, 24057, Note_on_c, 0, 83, 82
2, 24096, Note_on_c, 0, 55, 0
2, 24110, Note_on_c, 0, 78, 0
2, 24110, Note_on_c, 0, 83, 0
2, 24113, Note_on_c, 0, 50, 80
2, 24116, Note_on_c, 0, 81, 83
2, 24116, Note_on_c, 0, 86, 83
2, 24123, Control_c, 0, 64, 127
2, 24136, Note_on_c, 0, 81, 0
2, 24164, Control_c, 0, 64, 0
2, 24167, Note_on_c, 0, 50, 0
2, 24167, Note_on_c, 0, 43, 0
2, 24171, Note_on_c, 0, 59, 81
2, 24176, Note_on_c, 0, 86, 0
2, 24179, Note_on_c, 0, 83, 79
2, 24179, Note_on_c, 0, 88, 82
2, 24213, Note_on_c, 0, 57, 0
2, 24228, Note_on_c, 0, 88, 0
2, 24233, Note_on_c, 0, 50, 82
2, 24233, Note_on_c, 0, 86, 77
2, 24233, Note_on_c, 0, 90, 79
2, 24287, Note_on_c, 0, 50, 0
2, 24288, Note_on_c, 0, 86, 0
2, 24288, Note_on_c, 0, 90, 0
2, 24290, Note_on_c, 0, 43, 82
2, 24295, Note_on_c, 0, 88, 77
2, 24295, Note_on_c, 0, 91, 82
2, 24315, Note_on_c, 0, 88, 0
2, 24338, Note_on_c, 0, 43, 0
2, 24340, Note_on_c, 0, 59, 0
2, 24342, Note_on_c, 0, 83, 0
2, 24344, Note_on_c, 0, 91, 0
2, 24346, Note_on_c, 0, 50, 78
2, 24348, Note_on_c, 0, 86, 81
2, 24348, Note_on_c, 0, 90, 80
2, 24369, Note_on_c, 0, 86, 0
2, 24398, Note_on_c, 0, 50, 0
2, 24401, Note_on_c, 0, 90, 0
2, 24404, Note_on_c, 0, 59, 79
2, 24406, Note_on_c, 0, 83, 80
2, 24406, Note_on_c, 0, 88, 83
2, 24422, Note_on_c, 0, 31, 0
2, 24425, Note_on_c, 0, 83, 0
2, 24427, Note_on_c, 0, 88, 0
2, 24450, Note_on_c, 0, 59, 0
2, 24457, Note_on_c, 0, 50, 83
2, 24459, Note_on_c, 0, 81, 80
2, 24459, Note_on_c, 0, 86, 77
2, 24480, Note_on_c, 0, 81, 0
2, 24506, Note_on_c, 0, 50, 0
2, 24511, Note_on_c, 0, 59, 81
2, 24511, Note_on_c, 0, 79, 81
2, 24513, Note_on_c, 0, 83, 83
2, 24570, Note_on_c, 0, 50, 81
2, 24570, Note_on_c, 0, 76, 83
2, 24570, Note_on_c, 0, 81, 79
2, 24585, Note_on_c, 0, 79, 0
2, 24593, Note_on_c, 0, 86, 0
2, 24622, Note_on_c, 0, 43, 82
2, 24629, Note_on_c, 0, 74, 78
2, 24631, Note_on_c, 0, 79, 78
2, 24637, Note_on_c, 0, 50, 0
2, 24639, Note_on_c, 0, 76, 0
2, 24675, Note_on_c, 0, 59, 0
2, 24675, Note_on_c, 0, 43, 0
2, 24677, Note_on_c, 0, 74, 0
2, 24680, Note_on_c, 0, 50, 81
2, 24682, Note_on_c, 0, 71, 84
2, 24682, Note_on_c, 0, 76, 84
2, 24702, Note_on_c, 0, 71, 0
2, 24704, Note_on_c, 0, 83, 0
2, 24727, Note_on_c, 0, 59, 81
2, 24729, Note_on_c, 0, 50, 0
2, 24735, Note_on_c, 0, 69, 78
2, 24737, Note_on_c, 0, 74, 83
2, 24739, Note_on_c, 0, 81, 0
2, 24783, Note_on_c, 0, 59, 0
2, 24785, Note_on_c, 0, 79, 0
2, 24788, Note_on_c, 0, 50, 78
2, 24790, Note_on_c, 0, 67, 83
2, 24790, Note_on_c, 0, 71, 80
2, 24792, Note_on_c, 0, 76, 0
2, 24793, Control_c, 0, 64, 127
2, 24804, Note_on_c, 0, 69, 0
2, 24827, Control_c, 0, 64, 0
2, 24842, Note_on_c, 0, 59, 77
2, 24842, Note_on_c, 0, 64, 78
2, 24842, Note_on_c, 0, 69, 77
2, 24848, Note_on_c, 0, 71, 0
2, 24850, Note_on_c, 0, 74, 0
2, 24856, Note_on_c, 0, 67, 0
2, 24892, Note_on_c, 0, 50, 0
2, 24898, Note_on_c, 0, 54, 77
2, 24898, Note_on_c, 0, 63, 82
2, 24898, Note_on_c, 0, 71, 82
2, 24953, Note_on_c, 0, 53, 78
2, 24955, Note_on_c, 0, 68, 80
2, 24957, Note_on_c, 0, 62, 83
2, 24964, Note_on_c, 0, 69, 0
2, 24969, Note_on_c, 0, 54, 0
2, 25001, Note_on_c, 0, 43, 80
2, 25001, Note_on_c, 0, 52, 79
2, 25001, Note_on_c, 0, 61, 79
2, 25003, Note_on_c, 0, 69, 83
2, 25010, Note_on_c, 0, 71, 0
2, 25015, Note_on_c, 0, 64, 0
2, 25015, Note_on_c, 0, 53, 0
2, 25031, Control_c, 0, 64, 127
2, 25041, Note_on_c, 0, 63, 0
2, 25056, Control_c, 0, 64, 0
2, 25058, Note_on_c, 0, 43, 0
2, 25058, Note_on_c, 0, 61, 0
2, 25064, Note_on_c, 0, 57, 77
2, 25064, Note_on_c, 0, 60, 83
2, 25064, Note_on_c, 0, 64, 81
2, 25080, Note_on_c, 0, 52, 0
2, 25084, Note_on_c, 0, 62, 0
2, 25086, Note_on_c, 0, 68, 0
2, 25115, Note_on_c, 0, 43, 84
2, 25115, Note_on_c, 0, 52, 78
2, 25117, Note_on_c, 0, 59, 0
2, 25117, Note_on_c, 0, 60, 0
2, 25130, Note_on_c, 0, 69, 0
2, 25154, Note_on_c, 0, 52, 0
2, 25156, Note_on_c, 0, 64, 0
2, 25176, Note_on_c, 0, 43, 0
2, 25176, Note_on_c, 0, 57, 0
2, 25179, Note_on_c, 0, 60, 77
2, 25245, Note_on_c, 0, 56, 77
2, 25245, Note_on_c, 0, 71, 83
2, 25296, Note_on_c, 0, 71, 0
2, 25301, Note_on_c, 0, 55, 84
2, 25301, Note_on_c, 0, 64, 78
2, 25301, Note_on_c, 0, 72, 84
2, 25317, Note_on_c, 0, 56, 0
2, 25347, Note_on_c, 0, 54, 83
2, 25347, Note_on_c, 0, 69, 78
2, 25373, Note_on_c, 0, 72, 0
2, 25373, Note_on_c, 0, 55, 0
2, 25399, Note_on_c, 0, 64, 0
2, 25404, Note_on_c, 0, 59, 80
2, 25406, Note_on_c, 0, 71, 83
2, 25412, Note_on_c, 0, 63, 81
2, 25433, Note_on_c, 0, 69, 0
2, 25459, Note_on_c, 0, 59, 0
2, 25459, Note_on_c, 0, 54, 0
2, 25459, Note_on_c, 0, 63, 0
2, 25464, Note_on_c, 0, 55, 77
2, 25466, Note_on_c, 0, 71, 0
2, 25466, Note_on_c, 0, 67, 77
2, 25508, Note_on_c, 0, 67, 0
2, 25508, Note_on_c, 0, 55, 0
2, 25513, Note_on_c, 0, 59, 82
2, 25513, Note_on_c, 0, 64, 82
2, 25513, Note_on_c, 0, 71, 84
2, 25527, Note_on_c, 0, 60, 0
2, 25579, Note_on_c, 0, 71, 0
2, 25581, Note_on_c, 0, 64, 0
2, 25588, Note_on_c, 0, 54, 83
2, 25588, Note_on_c, 0, 63, 81
2, 25588, Note_on_c, 0, 69, 79
2, 25640, Note_on_c, 0, 63, 0
2, 25643, Note_on_c, 0, 53, 77
2, 25643, Note_on_c, 0, 62, 82
2, 25643, Note_on_c, 0, 71, 83
2, 25656, Note_on_c, 0, 54, 0
2, 25701, Note_on_c, 0, 43, 83
2, 25704, Note_on_c, 0, 62, 0
2, 25704, Note_on_c, 0, 69, 0
2, 25704, Note_on_c, 0, 71, 0
2, 25705, Control_c, 0, 64, 127
2, 25708, Note_on_c, 0, 61, 82
2, 25708, Note_on_c, 0, 65, 78
2, 25728, Note_on_c, 0, 61, 0
2, 25739, Control_c, 0, 64, 0
2, 25755, Note_on_c, 0, 43, 0
2, 25760, Note_on_c, 0, 57, 82
2, 25760, Note_on_c, 0, 69, 81
2, 25762, Note_on_c, 0, 53, 0
2, 25762, Note_on_c, 0, 65, 0
2, 25768, Note_on_c, 0, 60, 79
2, 25770, Note_on_c, 0, 59, 0
2, 25812, Note_on_c, 0, 52, 79
2, 25832, Note_on_c, 0, 60, 0
2, 25878, Note_on_c, 0, 57, 0
2, 25878, Note_on_c, 0, 52, 0
2, 25884, Note_on_c, 0, 64, 80
2, 25899, Note_on_c, 0, 69, 0
2, 25983, Note_on_c, 0, 60, 79
2, 25983, Note_on_c, 0, 66, 60
2, 26045, Note_on_c, 0, 57, 82
2, 26047, Note_on_c, 0, 69, 62
2, 26104, Note_on_c, 0, 50, 78
2, 26106, Note_on_c, 0, 72, 63
2, 26132, Note_on_c, 0, 66, 0
2, 26170, Note_on_c, 0, 50, 0
2, 26172, Note_on_c, 0, 60, 0
2, 26172, Note_on_c, 0, 57, 0
2, 26172, Note_on_c, 0, 69, 0
2, 26172, Note_on_c, 0, 72, 0
2, 26177, Note_on_c, 0, 58, 78
2, 26177, Note_on_c, 0, 61, 78
2, 26177, Note_on_c, 0, 70, 83
2, 26177, Note_on_c, 0, 73, 84
2, 26184, Control_c, 0, 67, 127
2, 26189, Note_on_c, 0, 66, 77
2, 26212, Control_c, 0, 67, 0
2, 26229, Note_on_c, 0, 64, 0
2, 26253, Note_on_c, 0, 76, 82
2, 26280, Note_on_c, 0, 70, 0
2, 26308, Note_on_c, 0, 73, 0
2, 26340, Note_on_c, 0, 58, 0
2, 26340, Note_on_c, 0, 61, 0
2, 26346, Note_on_c, 0, 62, 82
2, 26346, Note_on_c, 0, 71, 84
2, 26346, Note_on_c, 0, 74, 81
2, 26367, Note_on_c, 0, 76, 0
2, 26399, Note_on_c, 0, 66, 0
2, 26445, Note_on_c, 0, 59, 78
2, 26543, Note_on_c, 0, 57, 83
2, 26544, Note_on_c, 0, 64, 77
2, 26616, Note_on_c, 0, 55, 83
2, 26616, Note_on_c, 0, 66, 78
2, 26705, Note_on_c, 0, 54, 77
2, 26707, Note_on_c, 0, 67, 79
2, 26719, Note_on_c, 0, 55, 0
2, 26766, Note_on_c, 0, 66, 0
2, 26808, Note_on_c, 0, 52, 82
2, 26808, Note_on_c, 0, 69, 84
2, 26847, Note_on_c, 0, 59, 0
2, 26885, Note_on_c, 0, 54, 0
2, 26885, Note_on_c, 0, 57, 0
2, 26885, Note_on_c, 0, 64, 0
2, 26887, Note_on_c, 0, 71, 0
2, 26887, Note_on_c, 0, 74, 0
2, 26887, Note_on_c, 0, 67, 0
2, 26887, Note_on_c, 0, 62, 0
2, 26892, Note_on_c, 0, 59, 82
2, 26904, Note_on_c, 0, 31, 84
2, 26904, Note_on_c, 0, 43, 82
2, 26933, Note_on_c, 0, 52, 0
2, 26947, Note_on_c, 0, 67, 77
2, 26973, Control_c, 0, 64, 127
2, 27000, Control_c, 0, 67, 127
2, 27011, Note_on_c, 0, 50, 82
2, 27027, Control_c, 0, 67, 0
2, 27030, Note_on_c, 0, 71, 62
2, 27038, Control_c, 0, 64, 0
2, 27053, Note_on_c, 0, 69, 0
2, 27245, Note_on_c, 0, 81, 60
2, 27245, Note_on_c, 0, 86, 60
2, 27279, Note_on_c, 0, 59, 0
2, 27318, Note_on_c, 0, 59, 84
2, 27318, Note_on_c, 0, 83, 61
2, 27318, Note_on_c, 0, 88, 60
2, 27339, Note_on_c, 0, 86, 0
2, 27376, Note_on_c, 0, 62, 80
2, 27384, Note_on_c, 0, 86, 62
2, 27384, Note_on_c, 0, 91, 61
2, 27444, Control_c, 0, 67, 127
2, 27449, Note_on_c, 0, 90, 59
2, 27449, Note_on_c, 0, 95, 61
2, 27455, Note_on_c, 0, 62, 0
2, 27462, Note_on_c, 0, 69, 65
2, 27464, Note_on_c, 0, 91, 0
2, 27470, Control_c, 0, 67, 0
2, 27512, Note_on_c, 0, 62, 77
2, 27520, Note_on_c, 0, 93, 62
2, 27520, Note_on_c, 0, 98, 66
2, 27538, Note_on_c, 0, 69, 0
2, 27538, Note_on_c, 0, 95, 0
2, 27580, Note_on_c, 0, 95, 65
2, 27580, Note_on_c, 0, 100, 63
2, 27582, Control_c, 0, 67, 127
2, 27593, Note_on_c, 0, 69, 56
2, 27595, Note_on_c, 0, 98, 0
2, 27595, Note_on_c, 0, 59, 0
2, 27602, Note_on_c, 0, 71, 0
2, 27602, Control_c, 0, 67, 0
2, 27639, Note_on_c, 0, 59, 84
2, 27639, Note_on_c, 0, 98, 73
2, 27639, Note_on_c, 0, 102, 76
2, 27647, Note_on_c, 0, 100, 0
2, 27647, Note_on_c, 0, 67, 0
2, 27685, Note_on_c, 0, 62, 0
2, 27690, Note_on_c, 0, 100, 74
2, 27690, Note_on_c, 0, 103, 74
2, 27699, Note_on_c, 0, 102, 0
2, 27699, Note_on_c, 0, 98, 0
2, 27710, Note_on_c, 0, 67, 78
2, 27741, Note_on_c, 0, 62, 81
2, 27744, Note_on_c, 0, 98, 78
2, 27744, Note_on_c, 0, 102, 74
2, 27749, Note_on_c, 0, 69, 0
2, 27755, Note_on_c, 0, 103, 0
2, 27755, Note_on_c, 0, 100, 0
2, 27755, Note_on_c, 0, 95, 0
2, 27793, Note_on_c, 0, 95, 74
2, 27793, Note_on_c, 0, 100, 72
2, 27801, Note_on_c, 0, 98, 0
2, 27803, Note_on_c, 0, 93, 0
2, 27813, Note_on_c, 0, 66, 76
2, 27816, Note_on_c, 0, 102, 0
2, 27847, Note_on_c, 0, 93, 71
2, 27847, Note_on_c, 0, 98, 77
2, 27853, Note_on_c, 0, 55, 77
2, 27855, Note_on_c, 0, 67, 0
2, 27861, Note_on_c, 0, 66, 0
2, 27863, Note_on_c, 0, 62, 0
2, 27863, Note_on_c, 0, 100, 0
2, 27863, Note_on_c, 0, 95, 0
2, 27907, Note_on_c, 0, 62, 77
2, 27907, Note_on_c, 0, 91, 71
2, 27907, Note_on_c, 0, 95, 74
2, 27917, Note_on_c, 0, 88, 0
2, 27917, Note_on_c, 0, 93, 0
2, 27920, Note_on_c, 0, 66, 75
2, 27922, Note_on_c, 0, 59, 0
2, 27922, Note_on_c, 0, 98, 0
2, 27956, Note_on_c, 0, 90, 0
2, 27961, Note_on_c, 0, 88, 78
2, 27961, Note_on_c, 0, 93, 75
2, 27966, Note_on_c, 0, 59, 81
2, 27974, Note_on_c, 0, 86, 0
2, 27974, Note_on_c, 0, 91, 0
2, 27974, Note_on_c, 0, 95, 0
2, 28013, Control_c, 0, 67, 127
2, 28018, Note_on_c, 0, 64, 77
2, 28018, Note_on_c, 0, 86, 74
2, 28018, Note_on_c, 0, 91, 71
2, 28020, Note_on_c, 0, 55, 0
2, 28028, Note_on_c, 0, 83, 0
2, 28028, Note_on_c, 0, 88, 0
2, 28033, Note_on_c, 0, 93, 0
2, 28039, Note_on_c, 0, 31, 0
2, 28041, Control_c, 0, 67, 0
2, 28064, Note_on_c, 0, 55, 80
2, 28070, Note_on_c, 0, 83, 75
2, 28070, Note_on_c, 0, 88, 75
2, 28078, Note_on_c, 0, 62, 0
2, 28080, Note_on_c, 0, 81, 0
2, 28080, Note_on_c, 0, 86, 0
2, 28085, Note_on_c, 0, 91, 0
2, 28124, Note_on_c, 0, 62, 77
2, 28124, Note_on_c, 0, 81, 72
2, 28124, Note_on_c, 0, 86, 78
2, 28126, Note_on_c, 0, 83, 0
2, 28131, Note_on_c, 0, 50, 0
2, 28139, Note_on_c, 0, 88, 0
2, 28165, Note_on_c, 0, 81, 0
2, 28170, Note_on_c, 0, 62, 0
2, 28170, Note_on_c, 0, 78, 84
2, 28170, Note_on_c, 0, 83, 78
2, 28175, Note_on_c, 0, 50, 82
2, 28184, Note_on_c, 0, 86, 0
2, 28195, Control_c, 0, 64, 127
2, 28215, Note_on_c, 0, 62, 77
2, 28228, Control_c, 0, 64, 0
2, 28268, Note_on_c, 0, 83, 0
2, 28268, Note_on_c, 0, 64, 0
2, 28268, Note_on_c, 0, 66, 0
2, 28268, Note_on_c, 0, 59, 0
2, 28268, Note_on_c, 0, 55, 0
2, 28268, Note_on_c, 0, 43, 0
2, 28268, Note_on_c, 0, 78, 0
2, 28271, Note_on_c, 0, 53, 82
2, 28271, Note_on_c, 0, 65, 79
2, 28272, Note_on_c, 0, 68, 83
2, 28286, Note_on_c, 0, 50, 0
2, 28299, Note_on_c, 0, 65, 0
2, 28299, Note_on_c, 0, 68, 0
2, 28302, Control_c, 0, 64, 127
2, 28331, Note_on_c, 0, 53, 0
2, 28339, Control_c, 0, 64, 0
2, 28339, Note_on_c, 0, 60, 80
2, 28339, Note_on_c, 0, 64, 79
2, 28339, Note_on_c, 0, 69, 78
2, 28365, Note_on_c, 0, 62, 0
2, 28392, Note_on_c, 0, 69, 0
2, 28398, Note_on_c, 0, 43, 84
2, 28398, Note_on_c, 0, 52, 84
2, 28398, Note_on_c, 0, 68, 80
2, 28398, Note_on_c, 0, 71, 83
2, 28414, Note_on_c, 0, 71, 0
2, 28424, Control_c, 0, 64, 127
2, 28438, Note_on_c, 0, 52, 0
2, 28442, Note_on_c, 0, 59, 82
2, 28444, Note_on_c, 0, 68, 0
2, 28447, Note_on_c, 0, 64, 0
2, 28450, Note_on_c, 0, 71, 77
2, 28450, Note_on_c, 0, 74, 80
2, 28452, Control_c, 0, 64, 0
2, 28470, Note_on_c, 0, 60, 0
2, 28496, Note_on_c, 0, 71, 0
2, 28502, Note_on_c, 0, 72, 78
2, 28504, Note_on_c, 0, 76, 77
2, 28516, Control_c, 0, 67, 127
2, 28542, Control_c, 0, 67, 0
2, 28548, Note_on_c, 0, 76, 0
2, 28548, Note_on_c, 0, 74, 0
2, 28548, Note_on_c, 0, 72, 0
2, 28551, Note_on_c, 0, 66, 82
2, 28574, Note_on_c, 0, 59, 0
2, 28610, Note_on_c, 0, 62, 78
2, 28610, Note_on_c, 0, 74, 79
2, 28664, Note_on_c, 0, 64, 84
2, 28667, Note_on_c, 0, 62, 0
2, 28672, Note_on_c, 0, 68, 80
2, 28672, Note_on_c, 0, 72, 80
2, 28674, Note_on_c, 0, 74, 0
2, 28686, Note_on_c, 0, 66, 0
2, 28692, Note_on_c, 0, 43, 0
2, 28713, Note_on_c, 0, 72, 0
2, 28716, Note_on_c, 0, 60, 79
2, 28716, Note_on_c, 0, 74, 80
2, 28742, Control_c, 0, 64, 127
2, 28771, Note_on_c, 0, 64, 0
2, 28771, Control_c, 0, 64, 0
2, 28773, Note_on_c, 0, 68, 0
2, 28773, Note_on_c, 0, 74, 0
2, 28776, Note_on_c, 0, 62, 79
2, 28776, Note_on_c, 0, 65, 78
2, 28776, Note_on_c, 0, 71, 77
2, 28789, Note_on_c, 0, 60, 0
2, 28830, Note_on_c, 0, 71, 0
2, 28833, Note_on_c, 0, 56, 81
2, 28835, Note_on_c, 0, 72, 83
2, 28864, Note_on_c, 0, 56, 0
2, 28896, Note_on_c, 0, 72, 0
2, 28903, Note_on_c, 0, 60, 82
2, 28916, Note_on_c, 0, 65, 0
2, 28918, Note_on_c, 0, 62, 0
2, 28968, Note_on_c, 0, 51, 80
2, 28968, Note_on_c, 0, 72, 84
2, 29035, Note_on_c, 0, 72, 0
2, 29035, Note_on_c, 0, 51, 0
2, 29040, Note_on_c, 0, 52, 83
2, 29040, Note_on_c, 0, 62, 77
2, 29040, Note_on_c, 0, 68, 83
2, 29072, Note_on_c, 0, 60, 0
2, 29122, Note_on_c, 0, 43, 77
2, 29122, Note_on_c, 0, 69, 82
2, 29124, Note_on_c, 0, 68, 0
2, 29124, Note_on_c, 0, 62, 0
2, 29204, Note_on_c, 0, 55, 80
2, 29204, Note_on_c, 0, 61, 81
2, 29204, Note_on_c, 0, 67, 80
2, 29230, Note_on_c, 0, 52, 0
2, 29243, Note_on_c, 0, 69, 0
2, 29292, Note_on_c, 0, 43, 0
2, 29295, Note_on_c, 0, 61, 0
2, 29295, Note_on_c, 0, 67, 0
2, 29300, Note_on_c, 0, 52, 81
2, 29300, Note_on_c, 0, 71, 78
2, 29360, Control_c, 0, 64, 127
2, 29389, Control_c, 0, 64, 0
2, 29401, Note_on_c, 0, 71, 0
2, 29401, Note_on_c, 0, 52, 0
2, 29406, Note_on_c, 0, 59, 77
2, 29406, Note_on_c, 0, 66, 83
2, 29416, Note_on_c, 0, 60, 80
2, 29434, Note_on_c, 0, 55, 0
2, 29518, Note_on_c, 0, 66, 0
2, 29522, Note_on_c, 0, 51, 77
2, 29522, Note_on_c, 0, 67, 77
2, 29618, Note_on_c, 0, 50, 77
2, 29618, Note_on_c, 0, 65, 84
2, 29634, Note_on_c, 0, 51, 0
2, 29727, Note_on_c, 0, 67, 0
2, 29732, Note_on_c, 0, 68, 77
2, 29739, Note_on_c, 0, 43, 79
2, 29779, Note_on_c, 0, 65, 0
2, 29812, Note_on_c, 0, 60, 0
2, 29852, Note_on_c, 0, 57, 82
2, 29852, Note_on_c, 0, 60, 78
2, 29852, Note_on_c, 0, 64, 84
2, 29854, Note_on_c, 0, 59, 0
2, 29880, Note_on_c, 0, 68, 0
2, 29966, Note_on_c, 0, 54, 77
2, 29966, Note_on_c, 0, 69, 84
2, 29972, Note_on_c, 0, 50, 0
2, 30063, Note_on_c, 0, 64, 0
2, 30063, Note_on_c, 0, 54, 0
2, 30066, Note_on_c, 0, 57, 0
2, 30066, Note_on_c, 0, 60, 0
2, 30069, Note_on_c, 0, 55, 84
2, 30069, Note_on_c, 0, 59, 77
2, 30069, Note_on_c, 0, 62, 77
2, 30069, Note_on_c, 0, 67, 83
2, 30084, Note_on_c, 0, 69, 0
2, 30162, Note_on_c, 0, 55, 0
2, 30177, Note_on_c, 0, 59, 0
2, 30216, Note_on_c, 0, 43, 0
2, 30216, Note_on_c, 0, 67, 0
2, 30216, Note_on_c, 0, 62, 0
2, 30221, Note_on_c, 0, 50, 77
2, 30221, Note_on_c, 0, 55, 84
2, 30221, Note_on_c, 0, 59, 83
2, 30249, Note_on_c, 0, 59, 0
2, 30249, Note_on_c, 0, 55, 0
2, 30249, Note_on_c, 0, 50, 0
2, 30295, Note_on_c, 0, 67, 78
2, 30316, Note_on_c, 0, 67, 0
2, 30348, Control_c, 0, 64, 127
2, 30348, Note_on_c, 0, 71, 84
2, 30376, Note_on_c, 0, 71, 0
2, 30381, Control_c, 0, 64, 0
2, 30399, Note_on_c, 0, 74, 78
2, 30412, Note_on_c, 0, 74, 0
2, 30455, Note_on_c, 0, 54, 82
2, 30455, Note_on_c, 0, 74, 81
2, 30455, Note_on_c, 0, 78, 77
2, 30506, Note_on_c, 0, 78, 0
2, 30506, Note_on_c, 0, 74, 0
2, 30511, Note_on_c, 0, 73, 78
2, 30511, Note_on_c, 0, 76, 80
2, 30531, Note_on_c, 0, 73, 0
2, 30533, Note_on_c, 0, 76, 0
2, 30561, Note_on_c, 0, 59, 84
2, 30561, Note_on_c, 0, 62, 78
2, 30563, Note_on_c, 0, 71, 83
2, 30563, Note_on_c, 0, 74, 77
2, 30583, Note_on_c, 0, 71, 0
2, 30585, Note_on_c, 0, 74, 0
2, 30591, Note_on_c, 0, 62, 0
2, 30591, Note_on_c, 0, 59, 0
2, 30622, Note_on_c, 0, 73, 84
2, 30622, Note_on_c, 0, 76, 84
2, 30643, Note_on_c, 0, 76, 0
2, 30643, Note_on_c, 0, 73, 0
2, 30669, Note_on_c, 0, 54, 0
2, 30673, Note_on_c, 0, 47, 77
2, 30673, Note_on_c, 0, 74, 79
2, 30676, Note_on_c, 0, 78, 81
2, 30690, Note_on_c, 0, 74, 0
2, 30721, Note_on_c, 0, 78, 0
2, 30723, Control_c, 0, 64, 127
2, 30725, Note_on_c, 0, 71, 79
2, 30725, Note_on_c, 0, 74, 79
2, 30759, Control_c, 0, 64, 0
2, 30761, Control_c, 0, 67, 127
2, 30779, Note_on_c, 0, 74, 0
2, 30779, Note_on_c, 0, 71, 0
2, 30779, Note_on_c, 0, 47, 0
2, 30784, Note_on_c, 0, 55, 82
2, 30784, Note_on_c, 0, 73, 80
2, 30784, Note_on_c, 0, 76, 80
2, 30787, Control_c, 0, 67, 0
2, 30805, Note_on_c, 0, 73, 0
2, 30831, Note_on_c, 0, 76, 0
2, 30836, Note_on_c, 0, 71, 84
2, 30836, Note_on_c, 0, 74, 81
2, 30857, Note_on_c, 0, 74, 0
2, 30857, Note_on_c, 0, 71, 0
2, 30892, Note_on_c, 0, 58, 84
2, 30892, Note_on_c, 0, 70, 82
2, 30892, Note_on_c, 0, 73, 79
2, 30894, Note_on_c, 0, 64, 80
2, 30914, Note_on_c, 0, 73, 0
2, 30914, Note_on_c, 0, 70, 0
2, 30920, Note_on_c, 0, 58, 0
2, 30926, Note_on_c, 0, 64, 0
2, 30946, Note_on_c, 0, 71, 82
2, 30946, Note_on_c, 0, 74, 83
2, 30993, Note_on_c, 0, 71, 0
2, 30996, Note_on_c, 0, 47, 81
2, 30998, Note_on_c, 0, 74, 0
2, 30998, Note_on_c, 0, 73, 84
2, 30998, Note_on_c, 0, 76, 83
2, 31026, Note_on_c, 0, 76, 0
2, 31026, Note_on_c, 0, 73, 0
2, 31026, Note_on_c, 0, 47, 0
2, 31049, Note_on_c, 0, 70, 79
2, 31049, Note_on_c, 0, 73, 81
2, 31070, Note_on_c, 0, 73, 0
2, 31070, Note_on_c, 0, 70, 0
2, 31094, Note_on_c, 0, 55, 0
2, 31100, Note_on_c, 0, 53, 81
2, 31100, Note_on_c, 0, 71, 83
2, 31100, Note_on_c, 0, 74, 80
2, 31120, Note_on_c, 0, 74, 0
2, 31120, Note_on_c, 0, 71, 0
2, 31143, Note_on_c, 0, 70, 84
2, 31143, Note_on_c, 0, 73, 78
2, 31164, Note_on_c, 0, 73, 0
2, 31164, Note_on_c, 0, 70, 0
2, 31202, Note_on_c, 0, 56, 80
2, 31202, Note_on_c, 0, 62, 78
2, 31202, Note_on_c, 0, 68, 83
2, 31202, Note_on_c, 0, 71, 77
2, 31221, Note_on_c, 0, 71, 0
2, 31221, Note_on_c, 0, 68, 0
2, 31226, Note_on_c, 0, 62, 0
2, 31226, Note_on_c, 0, 56, 0
2, 31250, Note_on_c, 0, 70, 82
2, 31250, Note_on_c, 0, 73, 83
2, 31273, Note_on_c, 0, 73, 0
2, 31273, Note_on_c, 0, 70, 0
2, 31292, Note_on_c, 0, 71, 78
2, 31299, Note_on_c, 0, 47, 80
2, 31299, Note_on_c, 0, 74, 84
2, 31307, Note_on_c, 0, 71, 0
2, 31322, Note_on_c, 0, 74, 0
2, 31328, Note_on_c, 0, 47, 0
2, 31351, Note_on_c, 0, 68, 80
2, 31351, Note_on_c, 0, 71, 82
2, 31357, Control_c, 0, 67, 127
2, 31370, Note_on_c, 0, 71, 0
2, 31370, Note_on_c, 0, 68, 0
2, 31386, Control_c, 0, 67, 0
2, 31396, Note_on_c, 0, 53, 0
2, 31399, Note_on_c, 0, 54, 84
2, 31399, Note_on_c, 0, 70, 82
2, 31399, Note_on_c, 0, 73, 83
2, 31422, Note_on_c, 0, 70, 0
2, 31445, Control_c, 0, 64, 127
2, 31505, Control_c, 0, 64, 0
2, 31526, Note_on_c, 0, 73, 0
2, 31531, Note_on_c, 0, 58, 81
2, 31531, Note_on_c, 0, 61, 82
2, 31531, Note_on_c, 0, 66, 80
2, 31531, Note_on_c, 0, 78, 77
2, 31630, Note_on_c, 0, 78, 0
2, 31630, Note_on_c, 0, 58, 0
2, 31630, Note_on_c, 0, 54, 0
2, 31630, Note_on_c, 0, 66, 0
2, 31632, Note_on_c, 0, 61, 0
2, 31636, Note_on_c, 0, 47, 77
2, 31657, Note_on_c, 0, 47, 0
2, 31752, Note_on_c, 0, 44, 83
2, 31752, Note_on_c, 0, 59, 82
2, 31752, Note_on_c, 0, 62, 81
2, 31772, Note_on_c, 0, 59, 0
2, 31774, Note_on_c, 0, 62, 0
2, 31774, Note_on_c, 0, 44, 0
2, 31807, Note_on_c, 0, 61, 79
2, 31807, Note_on_c, 0, 64, 79
2, 31830, Note_on_c, 0, 64, 0
2, 31830, Note_on_c, 0, 61, 0
2, 31862, Note_on_c, 0, 50, 81
2, 31862, Note_on_c, 0, 54, 84
2, 31862, Note_on_c, 0, 58, 77
2, 31862, Note_on_c, 0, 66, 82
2, 31868, Note_on_c, 0, 62, 82
2, 31880, Note_on_c, 0, 66, 0
2, 31880, Note_on_c, 0, 58, 0
2, 31880, Note_on_c, 0, 54, 0
2, 31882, Note_on_c, 0, 50, 0
2, 31882, Note_on_c, 0, 62, 0
2, 31913, Note_on_c, 0, 64, 84
2, 31913, Note_on_c, 0, 68, 81
2, 31934, Note_on_c, 0, 68, 0
2, 31934, Note_on_c, 0, 64, 0
2, 31966, Note_on_c, 0, 50, 79
2, 31966, Note_on_c, 0, 54, 84
2, 31966, Note_on_c, 0, 59, 78
2, 31966, Note_on_c, 0, 66, 81
2, 31966, Note_on_c, 0, 69, 79
2, 31982, Note_on_c, 0, 54, 0
2, 31985, Note_on_c, 0, 66, 0
2, 31985, Note_on_c, 0, 50, 0
2, 31985, Note_on_c, 0, 59, 0
2, 31985, Note_on_c, 0, 69, 0
2, 31995, Control_c, 0, 64, 127
2, 32016, Note_on_c, 0, 68, 77
2, 32016, Note_on_c, 0, 71, 80
2, 32021, Control_c, 0, 64, 0
2, 32038, Control_c, 0, 67, 127
2, 32042, Note_on_c, 0, 71, 0
2, 32042, Note_on_c, 0, 68, 0
2, 32065, Control_c, 0, 67, 0
2, 32067, Note_on_c, 0, 49, 78
2, 32067, Note_on_c, 0, 69, 84
2, 32067, Note_on_c, 0, 73, 84
2, 32088, Note_on_c, 0, 49, 0
2, 32090, Note_on_c, 0, 73, 0
2, 32090, Note_on_c, 0, 69, 0
2, 32121, Note_on_c, 0, 66, 83
2, 32121, Note_on_c, 0, 75, 79
2, 32142, Note_on_c, 0, 75, 0
2, 32142, Note_on_c, 0, 66, 0
2, 32171, Note_on_c, 0, 65, 77
2, 32171, Note_on_c, 0, 68, 82
2, 32173, Note_on_c, 0, 57, 79
2, 32175, Note_on_c, 0, 60, 77
2, 32175, Note_on_c, 0, 77, 83
2, 32193, Note_on_c, 0, 60, 0
2, 32193, Note_on_c, 0, 57, 0
2, 32193, Note_on_c, 0, 65, 0
2, 32193, Note_on_c, 0, 68, 0
2, 32195, Note_on_c, 0, 77, 0
2, 32219, Note_on_c, 0, 69, 80
2, 32219, Note_on_c, 0, 78, 81
2, 32240, Note_on_c, 0, 78, 0
2, 32240, Note_on_c, 0, 69, 0
2, 32261, Note_on_c, 0, 71, 81
2, 32266, Note_on_c, 0, 57, 81
2, 32266, Note_on_c, 0, 61, 80
2, 32266, Note_on_c, 0, 66, 79
2, 32266, Note_on_c, 0, 80, 79
2, 32282, Note_on_c, 0, 57, 0
2, 32284, Note_on_c, 0, 66, 0
2, 32284, Note_on_c, 0, 71, 0
2, 32284, Note_on_c, 0, 61, 0
2, 32284, Note_on_c, 0, 80, 0
2, 32318, Note_on_c, 0, 73, 81
2, 32318, Note_on_c, 0, 81, 77
2, 32367, Note_on_c, 0, 37, 80
2, 32367, Note_on_c, 0, 49, 78
2, 32369, Note_on_c, 0, 81, 0
2, 32369, Note_on_c, 0, 73, 0
2, 32374, Note_on_c, 0, 71, 84
2, 32374, Note_on_c, 0, 83, 82
2, 32376, Note_on_c, 0, 80, 77
2, 32395, Note_on_c, 0, 80, 0
2, 32395, Note_on_c, 0, 49, 0
2, 32395, Note_on_c, 0, 71, 0
2, 32395, Note_on_c, 0, 37, 0
2, 32423, Note_on_c, 0, 83, 0
2, 32427, Note_on_c, 0, 73, 83
2, 32427, Note_on_c, 0, 85, 79
2, 32448, Note_on_c, 0, 73, 0
2, 32465, Note_on_c, 0, 85, 0
2, 32470, Note_on_c, 0, 57, 80
2, 32470, Note_on_c, 0, 61, 81
2, 32470, Note_on_c, 0, 63, 78
2, 32470, Note_on_c, 0, 66, 84
2, 32470, Note_on_c, 0, 75, 79
2, 32470, Note_on_c, 0, 87, 84
2, 32488, Note_on_c, 0, 66, 0
2, 32488, Note_on_c, 0, 61, 0
2, 32490, Note_on_c, 0, 75, 0
2, 32490, Note_on_c, 0, 57, 0
2, 32490, Note_on_c, 0, 87, 0
2, 32490, Note_on_c, 0, 63, 0
2, 32521, Note_on_c, 0, 77, 83
2, 32521, Note_on_c, 0, 89, 82
2, 32543, Note_on_c, 0, 89, 0
2, 32543, Note_on_c, 0, 77, 0
2, 32574, Note_on_c, 0, 56, 79
2, 32574, Note_on_c, 0, 59, 80
2, 32574, Note_on_c, 0, 61, 82
2, 32574, Note_on_c, 0, 65, 83
2, 32574, Note_on_c, 0, 68, 80
2, 32576, Note_on_c, 0, 78, 77
2, 32576, Note_on_c, 0, 90, 78
2, 32596, Note_on_c, 0, 68, 0
2, 32596, Note_on_c, 0, 65, 0
2, 32596, Note_on_c, 0, 56, 0
2, 32598, Note_on_c, 0, 59, 0
2, 32598, Note_on_c, 0, 61, 0
2, 32603, Note_on_c, 0, 78, 0
2, 32605, Note_on_c, 0, 90, 0
2, 32629, Note_on_c, 0, 80, 83
2, 32629, Note_on_c, 0, 92, 79
2, 32649, Note_on_c, 0, 92, 0
2, 32649, Note_on_c, 0, 80, 0
2, 32665, Note_on_c, 0, 30, 79
2, 32673, Note_on_c, 0, 42, 84
2, 32679, Note_on_c, 0, 93, 80
2, 32681, Note_on_c, 0, 81, 82
2, 32699, Note_on_c, 0, 30, 0
2, 32701, Note_on_c, 0, 81, 0
2, 32701, Note_on_c, 0, 93, 0
2, 32707, Note_on_c, 0, 42, 0
2, 32863, Note_on_c, 0, 49, 77
2, 32863, Note_on_c, 0, 54, 78
2, 32863, Note_on_c, 0, 57, 78
2, 32863, Note_on_c, 0, 61, 79
2, 32863, Note_on_c, 0, 66, 84
2, 32863, Note_on_c, 0, 69, 82
2, 32863, Note_on_c, 0, 78, 84
2, 33005, Note_on_c, 0, 49, 0
2, 33007, Note_on_c, 0, 69, 0
2, 33007, Note_on_c, 0, 57, 0
2, 33007, Note_on_c, 0, 61, 0
2, 33007, Note_on_c, 0, 54, 0
2, 33007, Note_on_c, 0, 78, 0
2, 33007, Note_on_c, 0, 66, 0
2, 33064, Control_c, 0, 67, 127
2, 33069, Note_on_c, 0, 74, 79
2, 33090, Note_on_c, 0, 74, 0
2, 33092, Control_c, 0, 67, 0
2, 33095, Note_on_c, 0, 90, 81
2, 33099, Note_on_c, 0, 54, 80
2, 33099, Note_on_c, 0, 66, 80
2, 33157, Note_on_c, 0, 76, 84
2, 33157, Note_on_c, 0, 88, 82
2, 33160, Note_on_c, 0, 90, 0
2, 33201, Note_on_c, 0, 88, 0
2, 33206, Note_on_c, 0, 59, 84
2, 33206, Note_on_c, 0, 62, 83
2, 33206, Note_on_c, 0, 78, 77
2, 33208, Note_on_c, 0, 86, 78
2, 33221, Note_on_c, 0, 76, 0
2, 33267, Note_on_c, 0, 76, 81
2, 33267, Note_on_c, 0, 88, 84
2, 33307, Note_on_c, 0, 47, 77
2, 33309, Note_on_c, 0, 35, 79
2, 33309, Control_c, 0, 67, 127
2, 33319, Note_on_c, 0, 74, 81
2, 33319, Note_on_c, 0, 90, 82
2, 33329, Note_on_c, 0, 86, 0
2, 33349, Control_c, 0, 67, 0
2, 33365, Note_on_c, 0, 74, 0
2, 33365, Note_on_c, 0, 88, 0
2, 33365, Note_on_c, 0, 90, 0
2, 33365, Note_on_c, 0, 76, 0
2, 33365, Note_on_c, 0, 78, 0
2, 33370, Note_on_c, 0, 86, 82
2, 33420, Note_on_c, 0, 62, 0
2, 33420, Note_on_c, 0, 35, 0
2, 33420, Note_on_c, 0, 59, 0
2, 33420, Note_on_c, 0, 66, 0
2, 33420, Note_on_c, 0, 47, 0
2, 33420, Note_on_c, 0, 54, 0
2, 33422, Note_on_c, 0, 86, 0
2, 33427, Note_on_c, 0, 55, 83
2, 33427, Note_on_c, 0, 67, 84
2, 33427, Note_on_c, 0, 73, 77
2, 33427, Note_on_c, 0, 88, 82
2, 33448, Note_on_c, 0, 73, 0
2, 33483, Note_on_c, 0, 88, 0
2, 33486, Note_on_c, 0, 74, 83
2, 33488, Note_on_c, 0, 86, 83
2, 33537, Note_on_c, 0, 86, 0
2, 33537, Note_on_c, 0, 74, 0
2, 33542, Note_on_c, 0, 58, 77
2, 33542, Note_on_c, 0, 64, 82
2, 33542, Note_on_c, 0, 76, 77
2, 33542, Note_on_c, 0, 85, 80
2, 33597, Note_on_c, 0, 85, 0
2, 33601, Note_on_c, 0, 74, 79
2, 33603, Note_on_c, 0, 86, 79
2, 33639, Control_c, 0, 67, 127
2, 33648, Note_on_c, 0, 35, 84
2, 33648, Note_on_c, 0, 47, 81
2, 33658, Note_on_c, 0, 73, 79
2, 33658, Note_on_c, 0, 88, 77
2, 33666, Control_c, 0, 67, 0
2, 33672, Note_on_c, 0, 74, 0
2, 33697, Note_on_c, 0, 88, 0
2, 33699, Note_on_c, 0, 86, 0
2, 33702, Note_on_c, 0, 85, 78
2, 33713, Control_c, 0, 64, 127
2, 33749, Control_c, 0, 64, 0
2, 33755, Note_on_c, 0, 73, 0
2, 33757, Note_on_c, 0, 76, 0
2, 33759, Note_on_c, 0, 85, 0
2, 33762, Note_on_c, 0, 71, 79
2, 33764, Note_on_c, 0, 58, 0
2, 33764, Note_on_c, 0, 55, 0
2, 33764, Note_on_c, 0, 67, 0
2, 33764, Note_on_c, 0, 47, 0
2, 33764, Note_on_c, 0, 64, 0
2, 33764, Note_on_c, 0, 35, 0
2, 33764, Note_on_c, 0, 86, 78
2, 33769, Note_on_c, 0, 53, 79
2, 33769, Note_on_c, 0, 65, 83
2, 33783, Note_on_c, 0, 71, 0
2, 33803, Control_c, 0, 67, 127
2, 33811, Note_on_c, 0, 86, 0
2, 33816, Note_on_c, 0, 73, 80
2, 33816, Note_on_c, 0, 85, 77
2, 33837, Note_on_c, 0, 73, 0
2, 33846, Control_c, 0, 67, 0
2, 33864, Note_on_c, 0, 85, 0
2, 33869, Note_on_c, 0, 83, 80
2, 33874, Note_on_c, 0, 56, 78
2, 33876, Note_on_c, 0, 62, 78
2, 33876, Note_on_c, 0, 74, 83
2, 33926, Note_on_c, 0, 73, 80
2, 33928, Note_on_c, 0, 85, 80
2, 33941, Note_on_c, 0, 74, 0
2, 33964, Note_on_c, 0, 35, 78
2, 33964, Note_on_c, 0, 47, 84
2, 33975, Note_on_c, 0, 85, 0
2, 33978, Note_on_c, 0, 71, 77
2, 33980, Note_on_c, 0, 86, 79
2, 33987, Note_on_c, 0, 73, 0
2, 33987, Note_on_c, 0, 83, 0
2, 34026, Note_on_c, 0, 47, 0
2, 34026, Note_on_c, 0, 35, 0
2, 34026, Note_on_c, 0, 62, 0
2, 34026, Note_on_c, 0, 65, 0
2, 34026, Note_on_c, 0, 53, 0
2, 34028, Note_on_c, 0, 71, 0
2, 34028, Note_on_c, 0, 56, 0
2, 34030, Note_on_c, 0, 86, 0
2, 34032, Note_on_c, 0, 83, 84
2, 34095, Note_on_c, 0, 83, 0
2, 34097, Note_on_c, 0, 54, 80
2, 34099, Note_on_c, 0, 66, 79
2, 34099, Note_on_c, 0, 70, 77
2, 34101, Note_on_c, 0, 85, 81
2, 34121, Note_on_c, 0, 70, 0
2, 34128, Note_on_c, 0, 85, 0
2, 34177, Control_c, 0, 67, 127
2, 34206, Control_c, 0, 67, 0
2, 34216, Note_on_c, 0, 58, 82
2, 34216, Note_on_c, 0, 61, 82
2, 34216, Note_on_c, 0, 78, 81
2, 34218, Note_on_c, 0, 90, 80
2, 34311, Note_on_c, 0, 35, 80
2, 34317, Note_on_c, 0, 47, 79
2, 34335, Control_c, 0, 64, 127
2, 34370, Control_c, 0, 64, 0
2, 34396, Note_on_c, 0, 47, 0
2, 34430, Note_on_c, 0, 54, 0
2, 34432, Note_on_c, 0, 35, 0
2, 34434, Note_on_c, 0, 66, 0
2, 34434, Note_on_c, 0, 61, 0
2, 34434, Note_on_c, 0, 78, 0
2, 34434, Note_on_c, 0, 58, 0
2, 34436, Note_on_c, 0, 90, 0
2, 34438, Note_on_c, 0, 47, 78
2, 34438, Note_on_c, 0, 59, 77
2, 34438, Note_on_c, 0, 62, 80
2, 34461, Note_on_c, 0, 62, 0
2, 34461, Note_on_c, 0, 59, 0
2, 34494, Note_on_c, 0, 61, 79
2, 34494, Note_on_c, 0, 64, 83
2, 34514, Note_on_c, 0, 61, 0
2, 34516, Note_on_c, 0, 64, 0
2, 34548, Note_on_c, 0, 50, 81
2, 34548, Note_on_c, 0, 54, 77
2, 34548, Note_on_c, 0, 66, 79
2, 34550, Note_on_c, 0, 58, 79
2, 34550, Note_on_c, 0, 62, 82
2, 34570, Note_on_c, 0, 66, 0
2, 34590, Note_on_c, 0, 50, 0
2, 34590, Note_on_c, 0, 54, 0
2, 34590, Note_on_c, 0, 58, 0
2, 34590, Note_on_c, 0, 62, 0
2, 34596, Note_on_c, 0, 64, 79
2, 34596, Note_on_c, 0, 67, 83
2, 34614, Note_on_c, 0, 64, 0
2, 34617, Note_on_c, 0, 67, 0
2, 34643, Note_on_c, 0, 47, 0
2, 34646, Note_on_c, 0, 50, 78
2, 34646, Note_on_c, 0, 54, 78
2, 34648, Note_on_c, 0, 59, 81
2, 34648, Note_on_c, 0, 66, 81
2, 34648, Note_on_c, 0, 69, 81
2, 34668, Note_on_c, 0, 66, 0
2, 34691, Control_c, 0, 64, 127
2, 34701, Note_on_c, 0, 67, 77
2, 34701, Note_on_c, 0, 71, 79
2, 34703, Note_on_c, 0, 59, 0
2, 34703, Note_on_c, 0, 69, 0
2, 34703, Note_on_c, 0, 54, 0
2, 34727, Control_c, 0, 64, 0
2, 34728, Note_on_c, 0, 67, 0
2, 34730, Note_on_c, 0, 71, 0
2, 34754, Note_on_c, 0, 45, 77
2, 34754, Note_on_c, 0, 69, 77
2, 34756, Note_on_c, 0, 50, 0
2, 34756, Note_on_c, 0, 73, 84
2, 34777, Note_on_c, 0, 69, 0
2, 34782, Note_on_c, 0, 45, 0
2, 34806, Note_on_c, 0, 66, 80
2, 34806, Note_on_c, 0, 74, 81
2, 34809, Note_on_c, 0, 73, 0
2, 34835, Note_on_c, 0, 74, 0
2, 34835, Note_on_c, 0, 66, 0
2, 34859, Note_on_c, 0, 55, 84
2, 34859, Note_on_c, 0, 59, 79
2, 34859, Note_on_c, 0, 64, 80
2, 34859, Note_on_c, 0, 67, 77
2, 34859, Note_on_c, 0, 76, 78
2, 34880, Note_on_c, 0, 67, 0
2, 34886, Note_on_c, 0, 64, 0
2, 34886, Note_on_c, 0, 55, 0
2, 34886, Note_on_c, 0, 59, 0
2, 34906, Note_on_c, 0, 76, 0
2, 34909, Note_on_c, 0, 69, 77
2, 34911, Note_on_c, 0, 78, 81
2, 34929, Note_on_c, 0, 69, 0
2, 34931, Note_on_c, 0, 78, 0
2, 34955, Note_on_c, 0, 57, 78
2, 34955, Note_on_c, 0, 61, 84
2, 34955, Note_on_c, 0, 66, 80
2, 34961, Note_on_c, 0, 71, 77
2, 34961, Note_on_c, 0, 79, 79
2, 34973, Note_on_c, 0, 57, 0
2, 34975, Note_on_c, 0, 61, 0
2, 34975, Note_on_c, 0, 66, 0
2, 34983, Note_on_c, 0, 71, 0
2, 35014, Note_on_c, 0, 79, 0
2, 35018, Note_on_c, 0, 73, 84
2, 35018, Note_on_c, 0, 81, 81
2, 35028, Note_on_c, 0, 45, 82
2, 35039, Note_on_c, 0, 81, 0
2, 35039, Note_on_c, 0, 73, 0
2, 35048, Note_on_c, 0, 55, 84
2, 35056, Note_on_c, 0, 45, 0
2, 35059, Control_c, 0, 67, 127
2, 35069, Note_on_c, 0, 55, 0
2, 35069, Note_on_c, 0, 61, 83
2, 35069, Note_on_c, 0, 71, 82
2, 35069, Note_on_c, 0, 79, 84
2, 35072, Note_on_c, 0, 83, 81
2, 35086, Control_c, 0, 67, 0
2, 35088, Note_on_c, 0, 61, 0
2, 35089, Note_on_c, 0, 71, 0
2, 35091, Note_on_c, 0, 79, 0
2, 35122, Note_on_c, 0, 83, 0
2, 35125, Note_on_c, 0, 64, 77
2, 35125, Note_on_c, 0, 73, 80
2, 35127, Note_on_c, 0, 85, 82
2, 35147, Note_on_c, 0, 64, 0
2, 35181, Note_on_c, 0, 73, 0
2, 35184, Note_on_c, 0, 55, 82
2, 35184, Note_on_c, 0, 61, 78
2, 35184, Note_on_c, 0, 66, 77
2, 35185, Note_on_c, 0, 74, 83
2, 35185, Note_on_c, 0, 83, 79
2, 35187, Note_on_c, 0, 86, 77
2, 35201, Note_on_c, 0, 85, 0
2, 35240, Note_on_c, 0, 66, 0
2, 35240, Note_on_c, 0, 55, 0
2, 35240, Note_on_c, 0, 61, 0
2, 35242, Note_on_c, 0, 86, 0
2, 35247, Note_on_c, 0, 67, 77
2, 35249, Note_on_c, 0, 76, 77
2, 35249, Note_on_c, 0, 88, 77
2, 35262, Note_on_c, 0, 74, 0
2, 35262, Note_on_c, 0, 83, 0
2, 35311, Note_on_c, 0, 69, 82
2, 35313, Note_on_c, 0, 78, 82
2, 35315, Note_on_c, 0, 90, 78
2, 35321, Note_on_c, 0, 76, 0
2, 35376, Note_on_c, 0, 71, 77
2, 35377, Note_on_c, 0, 79, 83
2, 35377, Note_on_c, 0, 91, 83
2, 35393, Note_on_c, 0, 88, 0
2, 35417, Control_c, 0, 67, 127
2, 35419, Note_on_c, 0, 90, 0
2, 35445, Control_c, 0, 67, 0
2, 35457, Note_on_c, 0, 69, 0
2, 35468, Note_on_c, 0, 62, 78
2, 35470, Note_on_c, 0, 67, 0
2, 35470, Note_on_c, 0, 81, 78
2, 35472, Note_on_c, 0, 93, 83
2, 35476, Note_on_c, 0, 66, 79
2, 35478, Note_on_c, 0, 90, 81
2, 35489, Note_on_c, 0, 72, 78
2, 35494, Note_on_c, 0, 71, 0
2, 35494, Note_on_c, 0, 79, 0
2, 35494, Note_on_c, 0, 78, 0
2, 35494, Note_on_c, 0, 91, 0
2, 35713, Note_on_c, 0, 81, 0
2, 35760, Note_on_c, 0, 81, 80
2, 35763, Note_on_c, 0, 50, 82
2, 35763, Note_on_c, 0, 54, 80
2, 35765, Note_on_c, 0, 60, 82
2, 35765, Note_on_c, 0, 69, 84
2, 35767, Note_on_c, 0, 78, 80
2, 35943, Note_on_c, 0, 62, 0
2, 35989, Note_on_c, 0, 62, 81
2, 36024, Control_c, 0, 67, 127
2, 36084, Control_c, 0, 67, 0
2, 36146, Note_on_c, 0, 64, 79
2, 36264, Note_on_c, 0, 69, 0
2, 36264, Note_on_c, 0, 66, 0
2, 36268, Note_on_c, 0, 67, 83
2, 36302, Note_on_c, 0, 67, 0
2, 36349, Note_on_c, 0, 67, 77
2, 36373, Note_on_c, 0, 54, 0
2, 36373, Note_on_c, 0, 62, 0
2, 36373, Note_on_c, 0, 50, 0
2, 36375, Note_on_c, 0, 60, 0
2, 36375, Note_on_c, 0, 72, 0
2, 36375, Note_on_c, 0, 64, 0
2, 36378, Note_on_c, 0, 71, 80
2, 36430, Control_c, 0, 67, 127
2, 36440, Note_on_c, 0, 78, 0
2, 36440, Note_on_c, 0, 81, 0
2, 36442, Note_on_c, 0, 90, 0
2, 36444, Note_on_c, 0, 93, 0
2, 36447, Note_on_c, 0, 79, 65
2, 36455, Control_c, 0, 64, 127
2, 36457, Control_c, 0, 67, 0
2, 36523, Control_c, 0, 64, 0
2, 36572, Note_on_c, 0, 74, 65
2, 36613, Note_on_c, 0, 31, 82
2, 36637, Note_on_c, 0, 76, 64
2, 36684, Note_on_c, 0, 74, 0
2, 36720, Note_on_c, 0, 43, 82
2, 36729, Note_on_c, 0, 74, 59
2, 36770, Note_on_c, 0, 74, 0
2, 36770, Note_on_c, 0, 76, 0
2, 36810, Note_on_c, 0, 50, 79
2, 36812, Note_on_c, 0, 69, 66
2, 36812, Note_on_c, 0, 74, 59
2, 36812, Note_on_c, 0, 76, 59
2, 36812, Note_on_c, 0, 81, 62
2, 36832, Control_c, 0, 64, 127
2, 36858, Note_on_c, 0, 76, 0
2, 36860, Control_c, 0, 64, 0
2, 36898, Note_on_c, 0, 50, 0
2, 36898, Note_on_c, 0, 57, 82
2, 36898, Note_on_c, 0, 76, 82
2, 36900, Note_on_c, 0, 71, 0
2, 36912, Note_on_c, 0, 76, 0
2, 36938, Note_on_c, 0, 67, 0
2, 36938, Note_on_c, 0, 69, 0
2, 36938, Control_c, 0, 64, 127
2, 36941, Note_on_c, 0, 50, 84
2, 36943, Note_on_c, 0, 71, 80
2, 36953, Note_on_c, 0, 74, 0
2, 36956, Note_on_c, 0, 76, 80
2, 36960, Control_c, 0, 67, 127
2, 36965, Control_c, 0, 64, 0
2, 36975, Note_on_c, 0, 57, 0
2, 36977, Note_on_c, 0, 81, 0
2, 36977, Note_on_c, 0, 79, 0
2, 36982, Note_on_c, 0, 59, 80
2, 36984, Note_on_c, 0, 83, 60
2, 36989, Control_c, 0, 67, 0
2, 37070, Note_on_c, 0, 62, 77
2, 37073, Note_on_c, 0, 78, 61
2, 37129, Note_on_c, 0, 64, 81
2, 37131, Note_on_c, 0, 78, 0
2, 37131, Note_on_c, 0, 79, 65
2, 37174, Note_on_c, 0, 66, 63
2, 37176, Note_on_c, 0, 78, 59
2, 37185, Note_on_c, 0, 83, 0
2, 37185, Note_on_c, 0, 59, 0
2, 37185, Note_on_c, 0, 71, 0
2, 37185, Control_c, 0, 64, 127
2, 37187, Note_on_c, 0, 76, 0
2, 37192, Note_on_c, 0, 79, 0
2, 37212, Control_c, 0, 64, 0
2, 37225, Note_on_c, 0, 59, 80
2, 37225, Note_on_c, 0, 67, 60
2, 37225, Note_on_c, 0, 76, 63
2, 37227, Note_on_c, 0, 83, 66
2, 37232, Note_on_c, 0, 71, 63
2, 37248, Note_on_c, 0, 66, 0
2, 37249, Note_on_c, 0, 78, 0
2, 37260, Note_on_c, 0, 50, 0
2, 37294, Note_on_c, 0, 66, 63
2, 37299, Note_on_c, 0, 64, 0
2, 37304, Note_on_c, 0, 71, 0
2, 37306, Note_on_c, 0, 83, 0
2, 37309, Note_on_c, 0, 67, 0
2, 37340, Note_on_c, 0, 62, 0
2, 37340, Note_on_c, 0, 66, 0
2, 37342, Note_on_c, 0, 76, 0
2, 37344, Note_on_c, 0, 64, 78
2, 37344, Note_on_c, 0, 71, 63
2, 37344, Note_on_c, 0, 74, 60
2, 37345, Note_on_c, 0, 83, 61
2, 37405, Note_on_c, 0, 62, 82
2, 37405, Note_on_c, 0, 76, 65
2, 37420, Note_on_c, 0, 59, 0
2, 37463, Note_on_c, 0, 59, 82
2, 37465, Note_on_c, 0, 78, 63
2, 37475, Note_on_c, 0, 76, 0
2, 37519, Note_on_c, 0, 31, 0
2, 37519, Note_on_c, 0, 55, 79
2, 37519, Note_on_c, 0, 76, 65
2, 37529, Note_on_c, 0, 71, 0
2, 37529, Note_on_c, 0, 83, 0
2, 37529, Note_on_c, 0, 74, 0
2, 37538, Control_c, 0, 67, 127
2, 37566, Control_c, 0, 67, 0
2, 37572, Note_on_c, 0, 54, 79
2, 37572, Note_on_c, 0, 71, 66
2, 37574, Note_on_c, 0, 74, 66
2, 37576, Note_on_c, 0, 83, 62
2, 37579, Note_on_c, 0, 43, 0
2, 37588, Note_on_c, 0, 55, 0
2, 37596, Note_on_c, 0, 76, 0
2, 37638, Note_on_c, 0, 52, 84
2, 37640, Note_on_c, 0, 76, 59
2, 37654, Note_on_c, 0, 71, 0
2, 37669, Note_on_c, 0, 83, 0
2, 37681, Control_c, 0, 67, 127
2, 37691, Note_on_c, 0, 59, 0
2, 37691, Note_on_c, 0, 54, 0
2, 37693, Note_on_c, 0, 62, 0
2, 37695, Note_on_c, 0, 64, 0
2, 37695, Note_on_c, 0, 74, 0
2, 37695, Note_on_c, 0, 78, 0
2, 37698, Note_on_c, 0, 43, 81
2, 37700, Note_on_c, 0, 71, 47
2, 37702, Control_c, 0, 64, 127
2, 37712, Control_c, 0, 67, 0
2, 37714, Note_on_c, 0, 72, 45
2, 37716, Note_on_c, 0, 83, 42
2, 37721, Note_on_c, 0, 50, 77
2, 37730, Note_on_c, 0, 76, 0
2, 37735, Note_on_c, 0, 52, 0
2, 37740, Control_c, 0, 64, 0
2, 37800, Note_on_c, 0, 54, 78
2, 37804, Note_on_c, 0, 74, 66
2, 37851, Note_on_c, 0, 50, 0
2, 37862, Note_on_c, 0, 60, 83
2, 37862, Note_on_c, 0, 76, 63
2, 37864, Note_on_c, 0, 74, 0
2, 37880, Note_on_c, 0, 54, 0
2, 37900, Note_on_c, 0, 60, 0
2, 37906, Note_on_c, 0, 62, 84
2, 37906, Note_on_c, 0, 74, 63
2, 37916, Note_on_c, 0, 72, 0
2, 37925, Note_on_c, 0, 54, 84
2, 37945, Note_on_c, 0, 60, 83
2, 37955, Note_on_c, 0, 71, 0
2, 37958, Note_on_c, 0, 64, 79
2, 37958, Note_on_c, 0, 69, 60
2, 37958, Note_on_c, 0, 72, 63
2, 37960, Note_on_c, 0, 81, 66
2, 37973, Note_on_c, 0, 74, 0
2, 38005, Note_on_c, 0, 83, 0
2, 38017, Note_on_c, 0, 74, 62
2, 38028, Note_on_c, 0, 72, 0
2, 38030, Note_on_c, 0, 76, 0
2, 38069, Note_on_c, 0, 81, 0
2, 38069, Note_on_c, 0, 74, 0
2, 38072, Note_on_c, 0, 72, 45
2, 38072, Note_on_c, 0, 76, 41
2, 38072, Note_on_c, 0, 84, 43
2, 38078, Note_on_c, 0, 60, 0
2, 38078, Note_on_c, 0, 64, 0
2, 38078, Note_on_c, 0, 54, 0
2, 38080, Note_on_c, 0, 69, 0
2, 38080, Note_on_c, 0, 62, 0
2, 38139, Note_on_c, 0, 71, 47
2, 38141, Note_on_c, 0, 79, 47
2, 38196, Note_on_c, 0, 69, 47
2, 38196, Note_on_c, 0, 81, 50
2, 38207, Note_on_c, 0, 79, 0
2, 38245, Note_on_c, 0, 76, 0
2, 38248, Note_on_c, 0, 64, 83
2, 38248, Note_on_c, 0, 79, 70
2, 38263, Note_on_c, 0, 71, 0
2, 38265, Note_on_c, 0, 81, 0
2, 38301, Note_on_c, 0, 43, 0
2, 38301, Note_on_c, 0, 64, 0
2, 38303, Note_on_c, 0, 69, 0
2, 38304, Note_on_c, 0, 79, 0
2, 38304, Note_on_c, 0, 72, 0
2, 38309, Note_on_c, 0, 56, 79
2, 38309, Note_on_c, 0, 65, 67
2, 38309, Note_on_c, 0, 71, 72
2, 38309, Note_on_c, 0, 74, 66
2, 38311, Note_on_c, 0, 83, 66
2, 38350, Note_on_c, 0, 84, 0
2, 38362, Control_c, 0, 64, 127
2, 38368, Note_on_c, 0, 65, 0
2, 38371, Note_on_c, 0, 64, 81
2, 38373, Note_on_c, 0, 76, 71
2, 38386, Note_on_c, 0, 71, 0
2, 38388, Note_on_c, 0, 83, 0
2, 38390, Control_c, 0, 64, 0
2, 38403, Control_c, 0, 67, 127
2, 38426, Note_on_c, 0, 56, 0
2, 38426, Note_on_c, 0, 64, 0
2, 38428, Note_on_c, 0, 76, 0
2, 38428, Note_on_c, 0, 74, 0
2, 38430, Note_on_c, 0, 43, 80
2, 38430, Note_on_c, 0, 52, 77
2, 38432, Note_on_c, 0, 71, 63
2, 38432, Note_on_c, 0, 72, 61
2, 38432, Control_c, 0, 67, 0
2, 38435, Note_on_c, 0, 83, 62
2, 38526, Note_on_c, 0, 57, 84
2, 38528, Note_on_c, 0, 74, 62
2, 38580, Note_on_c, 0, 60, 80
2, 38582, Note_on_c, 0, 76, 59
2, 38592, Note_on_c, 0, 74, 0
2, 38608, Note_on_c, 0, 52, 0
2, 38634, Note_on_c, 0, 62, 84
2, 38634, Note_on_c, 0, 74, 65
2, 38641, Note_on_c, 0, 60, 0
2, 38641, Note_on_c, 0, 57, 0
2, 38643, Note_on_c, 0, 72, 0
2, 38686, Note_on_c, 0, 54, 83
2, 38686, Note_on_c, 0, 57, 82
2, 38686, Note_on_c, 0, 60, 77
2, 38686, Note_on_c, 0, 64, 81
2, 38686, Note_on_c, 0, 69, 60
2, 38686, Note_on_c, 0, 72, 66
2, 38688, Note_on_c, 0, 81, 66
2, 38701, Note_on_c, 0, 74, 0
2, 38730, Note_on_c, 0, 71, 0
2, 38737, Note_on_c, 0, 83, 0
2, 38748, Note_on_c, 0, 74, 77
2, 38777, Note_on_c, 0, 76, 0
2, 38801, Control_c, 0, 64, 127
2, 38811, Note_on_c, 0, 74, 0
2, 38811, Note_on_c, 0, 69, 0
2, 38811, Note_on_c, 0, 72, 0
2, 38811, Note_on_c, 0, 62, 0
2, 38811, Note_on_c, 0, 54, 0
2, 38813, Note_on_c, 0, 81, 0
2, 38818, Note_on_c, 0, 76, 56
2, 38820, Note_on_c, 0, 88, 59
2, 38835, Control_c, 0, 64, 0
2, 38875, Note_on_c, 0, 60, 0
2, 38880, Note_on_c, 0, 62, 84
2, 38882, Note_on_c, 0, 78, 63
2, 38950, Note_on_c, 0, 60, 79
2, 38952, Note_on_c, 0, 81, 66
2, 38996, Note_on_c, 0, 64, 0
2, 39001, Note_on_c, 0, 59, 84
2, 39003, Note_on_c, 0, 84, 64
2, 39024, Note_on_c, 0, 78, 0
2, 39033, Note_on_c, 0, 43, 0
2, 39038, Control_c, 0, 67, 127
2, 39041, Note_on_c, 0, 62, 0
2, 39059, Note_on_c, 0, 57, 0
2, 39061, Note_on_c, 0, 88, 0
2, 39061, Note_on_c, 0, 81, 0
2, 39061, Note_on_c, 0, 84, 0
2, 39061, Note_on_c, 0, 76, 0
2, 39063, Control_c, 0, 67, 0
2, 39065, Note_on_c, 0, 58, 84
2, 39065, Note_on_c, 0, 78, 64
2, 39067, Note_on_c, 0, 85, 64
2, 39067, Note_on_c, 0, 90, 66
2, 39080, Note_on_c, 0, 59, 0
2, 39085, Note_on_c, 0, 60, 0
2, 39157, Note_on_c, 0, 50, 79
2, 39159, Note_on_c, 0, 88, 82
2, 39224, Note_on_c, 0, 58, 0
2, 39235, Note_on_c, 0, 31, 80
2, 39235, Note_on_c, 0, 43, 82
2, 39238, Note_on_c, 0, 78, 0
2, 39238, Note_on_c, 0, 85, 0
2, 39245, Note_on_c, 0, 74, 84
2, 39245, Note_on_c, 0, 83, 82
2, 39245, Note_on_c, 0, 86, 82
2, 39259, Note_on_c, 0, 88, 0
2, 39271, Note_on_c, 0, 50, 0
2, 39281, Note_on_c, 0, 90, 0
2, 39349, Note_on_c, 0, 50, 80
2, 39440, Note_on_c, 0, 59, 77
2, 39440, Note_on_c, 0, 76, 80
2, 39524, Note_on_c, 0, 62, 79
2, 39526, Note_on_c, 0, 79, 80
2, 39559, Note_on_c, 0, 83, 0
2, 39600, Note_on_c, 0, 67, 83
2, 39603, Note_on_c, 0, 83, 78
2, 39629, Note_on_c, 0, 86, 0
2, 39648, Note_on_c, 0, 62, 0
2, 39671, Note_on_c, 0, 69, 79
2, 39672, Note_on_c, 0, 86, 77
2, 39688, Note_on_c, 0, 83, 0
2, 39691, Note_on_c, 0, 62, 84
2, 39706, Control_c, 0, 67, 127
2, 39730, Note_on_c, 0, 83, 77
2, 39735, Control_c, 0, 67, 0
2, 39750, Note_on_c, 0, 88, 81
2, 39756, Note_on_c, 0, 71, 72
2, 39769, Note_on_c, 0, 95, 67
2, 39837, Note_on_c, 0, 67, 0
2, 39873, Note_on_c, 0, 91, 50
2, 39879, Note_on_c, 0, 67, 51
2, 39887, Note_on_c, 0, 62, 0
2, 39929, Note_on_c, 0, 62, 84
2, 39932, Note_on_c, 0, 59, 0
2, 39932, Note_on_c, 0, 93, 51
2, 39947, Note_on_c, 0, 91, 0
2, 39989, Note_on_c, 0, 59, 77
2, 39991, Note_on_c, 0, 91, 49
2, 40004, Note_on_c, 0, 59, 0
2, 40006, Note_on_c, 0, 93, 0
2, 40047, Note_on_c, 0, 59, 82
2, 40049, Note_on_c, 0, 81, 44
2, 40049, Note_on_c, 0, 90, 47
2, 40051, Note_on_c, 0, 93, 46
2, 40063, Note_on_c, 0, 50, 0
2, 40065, Note_on_c, 0, 91, 0
2, 40065, Note_on_c, 0, 86, 0
2, 40086, Note_on_c, 0, 95, 0
2, 40109, Note_on_c, 0, 50, 79
2, 40111, Note_on_c, 0, 86, 44
2, 40127, Note_on_c, 0, 81, 0
2, 40127, Note_on_c, 0, 69, 0
2, 40128, Note_on_c, 0, 90, 0
2, 40128, Note_on_c, 0, 93, 0
2, 40149, Control_c, 0, 64, 127
2, 40165, Note_on_c, 0, 71, 0
2, 40165, Note_on_c, 0, 67, 0
2, 40165, Note_on_c, 0, 76, 0
2, 40165, Note_on_c, 0, 62, 0
2, 40165, Note_on_c, 0, 74, 0
2, 40168, Note_on_c, 0, 86, 0
2, 40168, Note_on_c, 0, 83, 0
2, 40168, Note_on_c, 0, 79, 0
2, 40168, Note_on_c, 0, 88, 0
2, 40171, Note_on_c, 0, 69, 42
2, 40171, Note_on_c, 0, 81, 41
2, 40171, Note_on_c, 0, 90, 48
2, 40173, Note_on_c, 0, 93, 41
2, 40176, Control_c, 0, 64, 0
2, 40223, Note_on_c, 0, 62, 84
2, 40224, Note_on_c, 0, 86, 47
2, 40240, Note_on_c, 0, 59, 0
2, 40264, Note_on_c, 0, 50, 0
2, 40279, Note_on_c, 0, 90, 0
2, 40279, Note_on_c, 0, 59, 83
2, 40281, Note_on_c, 0, 88, 45
2, 40283, Note_on_c, 0, 79, 45
2, 40283, Note_on_c, 0, 91, 45
2, 40296, Note_on_c, 0, 59, 0
2, 40298, Note_on_c, 0, 86, 0
2, 40329, Note_on_c, 0, 43, 0
2, 40339, Note_on_c, 0, 93, 0
2, 40341, Note_on_c, 0, 59, 78
2, 40343, Note_on_c, 0, 86, 63
2, 40359, Note_on_c, 0, 86, 0
2, 40398, Note_on_c, 0, 50, 82
2, 40401, Note_on_c, 0, 78, 63
2, 40401, Note_on_c, 0, 86, 66
2, 40401, Note_on_c, 0, 90, 65
2, 40416, Note_on_c, 0, 79, 0
2, 40438, Note_on_c, 0, 43, 78
2, 40448, Note_on_c, 0, 83, 62
2, 40462, Note_on_c, 0, 83, 0
2, 40462, Note_on_c, 0, 78, 0
2, 40462, Note_on_c, 0, 90, 0
2, 40498, Note_on_c, 0, 50, 0
2, 40500, Note_on_c, 0, 69, 0
2, 40500, Note_on_c, 0, 62, 0
2, 40500, Note_on_c, 0, 81, 0
2, 40502, Note_on_c, 0, 86, 0
2, 40502, Note_on_c, 0, 88, 0
2, 40505, Note_on_c, 0, 67, 65
2, 40507, Note_on_c, 0, 78, 61
2, 40507, Note_on_c, 0, 83, 62
2, 40507, Note_on_c, 0, 90, 60
2, 40514, Note_on_c, 0, 91, 0
2, 40563, Note_on_c, 0, 62, 84
2, 40565, Note_on_c, 0, 81, 66
2, 40573, Note_on_c, 0, 59, 0
2, 40579, Note_on_c, 0, 81, 0
2, 40615, Note_on_c, 0, 59, 77
2, 40615, Note_on_c, 0, 76, 66
2, 40615, Note_on_c, 0, 81, 62
2, 40615, Note_on_c, 0, 88, 61
2, 40635, Note_on_c, 0, 59, 0
2, 40677, Note_on_c, 0, 43, 0
2, 40681, Note_on_c, 0, 59, 81
2, 40697, Note_on_c, 0, 90, 0
2, 40730, Note_on_c, 0, 78, 0
2, 40735, Note_on_c, 0, 79, 65
2, 40741, Note_on_c, 0, 50, 80
2, 40741, Note_on_c, 0, 74, 66
2, 40743, Note_on_c, 0, 86, 61
2, 40756, Note_on_c, 0, 76, 0
2, 40792, Note_on_c, 0, 76, 66
2, 40801, Note_on_c, 0, 83, 0
2, 40807, Note_on_c, 0, 74, 0
2, 40807, Note_on_c, 0, 86, 0
2, 40813, Control_c, 0, 67, 127
2, 40824, Note_on_c, 0, 50, 0
2, 40824, Note_on_c, 0, 59, 0
2, 40825, Note_on_c, 0, 88, 0
2, 40836, Note_on_c, 0, 62, 0
2, 40836, Note_on_c, 0, 67, 0
2, 40838, Note_on_c, 0, 79, 0
2, 40838, Note_on_c, 0, 81, 0
2, 40841, Control_c, 0, 67, 0
2, 40844, Note_on_c, 0, 66, 61
2, 40844, Note_on_c, 0, 74, 59
2, 40844, Note_on_c, 0, 83, 59
2, 40844, Note_on_c, 0, 86, 61
2, 40857, Note_on_c, 0, 76, 0
2, 40862, Note_on_c, 0, 31, 0
2, 40900, Note_on_c, 0, 81, 69
2, 40914, Note_on_c, 0, 60, 79
2, 40932, Control_c, 0, 67, 127
2, 40945, Note_on_c, 0, 83, 0
2, 40950, Note_on_c, 0, 57, 78
2, 40950, Note_on_c, 0, 72, 72
2, 40952, Note_on_c, 0, 76, 68
2, 40952, Note_on_c, 0, 84, 66
2, 40954, Note_on_c, 0, 81, 0
2, 40960, Control_c, 0, 67, 0
2, 40966, Note_on_c, 0, 86, 0
2, 40993, Note_on_c, 0, 52, 82
2, 40995, Note_on_c, 0, 81, 66
2, 41009, Note_on_c, 0, 74, 0
2, 41018, Control_c, 0, 64, 127
2, 41029, Control_c, 0, 67, 127
2, 41049, Note_on_c, 0, 72, 0
2, 41052, Note_on_c, 0, 43, 79
2, 41054, Control_c, 0, 64, 0
2, 41054, Note_on_c, 0, 71, 70
2, 41054, Note_on_c, 0, 74, 67
2, 41054, Note_on_c, 0, 83, 65
2, 41057, Control_c, 0, 67, 0
2, 41069, Note_on_c, 0, 84, 0
2, 41082, Note_on_c, 0, 76, 0
2, 41113, Note_on_c, 0, 52, 0
2, 41126, Note_on_c, 0, 76, 66
2, 41154, Control_c, 0, 67, 127
2, 41159, Note_on_c, 0, 52, 80
2, 41182, Note_on_c, 0, 76, 0
2, 41182, Note_on_c, 0, 66, 0
2, 41182, Note_on_c, 0, 60, 0
2, 41182, Note_on_c, 0, 71, 0
2, 41182, Note_on_c, 0, 81, 0
2, 41182, Note_on_c, 0, 57, 0
2, 41182, Note_on_c, 0, 83, 0
2, 41182, Note_on_c, 0, 74, 0
2, 41184, Control_c, 0, 67, 0
2, 41186, Note_on_c, 0, 64, 78
2, 41186, Note_on_c, 0, 78, 65
2, 41186, Note_on_c, 0, 86, 69
2, 41186, Note_on_c, 0, 90, 65
2, 41251, Note_on_c, 0, 60, 82
2, 41251, Note_on_c, 0, 83, 69
2, 41266, Note_on_c, 0, 86, 0
2, 41286, Control_c, 0, 67, 127
2, 41307, Control_c, 0, 67, 0
2, 41309, Note_on_c, 0, 57, 79
2, 41309, Note_on_c, 0, 76, 65
2, 41311, Note_on_c, 0, 52, 0
2, 41311, Note_on_c, 0, 86, 67
2, 41311, Note_on_c, 0, 88, 72
2, 41358, Note_on_c, 0, 52, 78
2, 41358, Note_on_c, 0, 84, 71
2, 41366, Note_on_c, 0, 86, 0
2, 41366, Note_on_c, 0, 83, 0
2, 41374, Note_on_c, 0, 90, 0
2, 41425, Note_on_c, 0, 74, 70
2, 41425, Note_on_c, 0, 83, 67
2, 41425, Note_on_c, 0, 86, 68
2, 41427, Note_on_c, 0, 76, 0
2, 41427, Note_on_c, 0, 84, 0
2, 41474, Note_on_c, 0, 76, 65
2, 41484, Note_on_c, 0, 88, 0
2, 41489, Note_on_c, 0, 43, 0
2, 41489, Note_on_c, 0, 83, 0
2, 41515, Control_c, 0, 67, 127
2, 41535, Note_on_c, 0, 72, 67
2, 41535, Note_on_c, 0, 83, 71
2, 41535, Note_on_c, 0, 84, 67
2, 41544, Control_c, 0, 67, 0
2, 41550, Note_on_c, 0, 86, 0
2, 41600, Note_on_c, 0, 43, 79
2, 41602, Note_on_c, 0, 81, 69
2, 41615, Note_on_c, 0, 52, 0
2, 41616, Note_on_c, 0, 83, 0
2, 41627, Note_on_c, 0, 64, 0
2, 41627, Note_on_c, 0, 74, 0
2, 41627, Note_on_c, 0, 76, 0
2, 41659, Note_on_c, 0, 52, 84
2, 41669, Note_on_c, 0, 78, 0
2, 41672, Note_on_c, 0, 64, 83
2, 41672, Note_on_c, 0, 76, 68
2, 41685, Note_on_c, 0, 74, 72
2, 41687, Note_on_c, 0, 81, 0
2, 41712, Note_on_c, 0, 72, 0
2, 41720, Note_on_c, 0, 84, 0
2, 41756, Note_on_c, 0, 55, 81
2, 41756, Note_on_c, 0, 72, 67
2, 41828, Note_on_c, 0, 55, 0
2, 41828, Note_on_c, 0, 64, 0
2, 41828, Note_on_c, 0, 57, 0
2, 41828, Note_on_c, 0, 60, 0
2, 41830, Note_on_c, 0, 74, 0
2, 41830, Note_on_c, 0, 72, 0
2, 41834, Note_on_c, 0, 62, 78
2, 41834, Note_on_c, 0, 67, 68
2, 41834, Note_on_c, 0, 79, 65
2, 41847, Note_on_c, 0, 71, 70
2, 41862, Note_on_c, 0, 76, 0
2, 41879, Note_on_c, 0, 52, 0
2, 41925, Note_on_c, 0, 52, 80
2, 41927, Note_on_c, 0, 76, 71
2, 41973, Note_on_c, 0, 71, 0
2, 42019, Control_c, 0, 67, 127
2, 42026, Note_on_c, 0, 43, 0
2, 42029, Note_on_c, 0, 71, 72
2, 42046, Note_on_c, 0, 52, 0
2, 42048, Note_on_c, 0, 62, 0
2, 42048, Control_c, 0, 67, 0
2, 42050, Note_on_c, 0, 61, 78
2, 42050, Note_on_c, 0, 83, 68
2, 42086, Note_on_c, 0, 67, 0
2, 42086, Note_on_c, 0, 76, 0
2, 42086, Note_on_c, 0, 79, 0
2, 42164, Note_on_c, 0, 51, 81
2, 42164, Note_on_c, 0, 75, 77
2, 42260, Note_on_c, 0, 55, 83
2, 42262, Note_on_c, 0, 73, 80
2, 42327, Note_on_c, 0, 75, 0
2, 42327, Note_on_c, 0, 61, 0
2, 42356, Note_on_c, 0, 43, 82
2, 42358, Note_on_c, 0, 74, 84
2, 42396, Note_on_c, 0, 73, 0
2, 42443, Control_c, 0, 67, 127
2, 42454, Note_on_c, 0, 51, 0
2, 42459, Note_on_c, 0, 50, 80
2, 42470, Control_c, 0, 67, 0
2, 42473, Note_on_c, 0, 55, 0
2, 42475, Note_on_c, 0, 71, 0
2, 42475, Note_on_c, 0, 83, 0
2, 42480, Note_on_c, 0, 54, 82
2, 42480, Note_on_c, 0, 60, 84
2, 42480, Note_on_c, 0, 69, 83
2, 42480, Note_on_c, 0, 72, 77
2, 42480, Note_on_c, 0, 81, 81
2, 42527, Note_on_c, 0, 74, 0
2, 42569, Note_on_c, 0, 43, 0
2, 42636, Note_on_c, 0, 74, 83
2, 42776, Note_on_c, 0, 54, 0
2, 42776, Note_on_c, 0, 60, 0
2, 42776, Note_on_c, 0, 50, 0
2, 42776, Note_on_c, 0, 69, 0
2, 42781, Note_on_c, 0, 67, 82
2, 42809, Note_on_c, 0, 72, 0
2, 42821, Note_on_c, 0, 71, 83
2, 42827, Control_c, 0, 67, 127
2, 42840, Note_on_c, 0, 74, 0
2, 42847, Note_on_c, 0, 79, 79
2, 42852, Note_on_c, 0, 31, 82
2, 42854, Note_on_c, 0, 81, 0
2, 42856, Control_c, 0, 67, 0
2, 43043, Note_on_c, 0, 67, 0
2, 43113, Note_on_c, 0, 50, 80
2, 43113, Note_on_c, 0, 55, 80
2, 43113, Note_on_c, 0, 59, 82
2, 43185, Note_on_c, 0, 78, 81
2, 43190, Note_on_c, 0, 67, 82
2, 43200, Note_on_c, 0, 79, 0
2, 43216, Note_on_c, 0, 71, 0
2, 43262, Note_on_c, 0, 77, 84
2, 43268, Note_on_c, 0, 71, 84
2, 43277, Note_on_c, 0, 78, 0
2, 43301, Control_c, 0, 67, 127
2, 43317, Note_on_c, 0, 67, 0
2, 43329, Control_c, 0, 67, 0
2, 43335, Note_on_c, 0, 50, 0
2, 43335, Note_on_c, 0, 31, 0
2, 43335, Note_on_c, 0, 55, 0
2, 43335, Note_on_c, 0, 59, 0
2, 43341, Note_on_c, 0, 76, 81
2, 43346, Control_c, 0, 64, 127
2, 43346, Note_on_c, 0, 67, 78
2, 43362, Control_c, 0, 67, 127
2, 43374, Control_c, 0, 64, 0
2, 43395, Note_on_c, 0, 71, 0
2, 43395, Note_on_c, 0, 77, 0
2, 43406, Note_on_c, 0, 35, 81
2, 43416, Note_on_c, 0, 67, 0
2, 43421, Note_on_c, 0, 75, 84
2, 43423, Control_c, 0, 67, 0
2, 43428, Note_on_c, 0, 71, 78
2, 43436, Note_on_c, 0, 76, 0
2, 43509, Note_on_c, 0, 35, 0
2, 43535, Control_c, 0, 67, 127
2, 43591, Note_on_c, 0, 51, 80
2, 43591, Note_on_c, 0, 57, 81
2, 43591, Note_on_c, 0, 59, 84
2, 43594, Control_c, 0, 67, 0
2, 43667, Note_on_c, 0, 57, 0
2, 43667, Note_on_c, 0, 51, 0
2, 43667, Note_on_c, 0, 71, 0
2, 43667, Note_on_c, 0, 75, 0
2, 43672, Note_on_c, 0, 74, 83
2, 43678, Note_on_c, 0, 63, 81
2, 43705, Note_on_c, 0, 59, 0
2, 43729, Note_on_c, 0, 73, 82
2, 43737, Note_on_c, 0, 67, 78
2, 43745, Note_on_c, 0, 74, 0
2, 43771, Note_on_c, 0, 63, 0
2, 43794, Note_on_c, 0, 72, 82
2, 43800, Note_on_c, 0, 63, 79
2, 43813, Note_on_c, 0, 73, 0
2, 43826, Control_c, 0, 67, 127
2, 43828, Note_on_c, 0, 67, 0
2, 43851, Control_c, 0, 64, 127
2, 43853, Note_on_c, 0, 63, 0
2, 43855, Control_c, 0, 67, 0
2, 43858, Note_on_c, 0, 39, 79
2, 43866, Note_on_c, 0, 67, 80
2, 43866, Note_on_c, 0, 71, 78
2, 43872, Note_on_c, 0, 72, 0
2, 43885, Control_c, 0, 64, 0
2, 43965, Note_on_c, 0, 39, 0
2, 44019, Note_on_c, 0, 57, 80
2, 44019, Note_on_c, 0, 59, 78
2, 44033, Control_c, 0, 67, 127
2, 44059, Control_c, 0, 67, 0
2, 44071, Note_on_c, 0, 71, 0
2, 44074, Note_on_c, 0, 72, 82
2, 44082, Note_on_c, 0, 63, 77
2, 44089, Note_on_c, 0, 67, 0
2, 44110, Note_on_c, 0, 57, 0
2, 44128, Note_on_c, 0, 59, 0
2, 44128, Note_on_c, 0, 72, 0
2, 44133, Note_on_c, 0, 73, 78
2, 44138, Note_on_c, 0, 67, 79
2, 44174, Note_on_c, 0, 63, 0
2, 44197, Note_on_c, 0, 74, 82
2, 44203, Note_on_c, 0, 63, 84
2, 44224, Note_on_c, 0, 63, 0
2, 44229, Control_c, 0, 67, 127
2, 44245, Note_on_c, 0, 73, 0
2, 44245, Note_on_c, 0, 67, 0
2, 44251, Note_on_c, 0, 74, 0
2, 44256, Note_on_c, 0, 35, 78
2, 44256, Note_on_c, 0, 75, 83
2, 44258, Control_c, 0, 67, 0
2, 44261, Note_on_c, 0, 71, 77
2, 44373, Note_on_c, 0, 35, 0
2, 44409, Note_on_c, 0, 51, 78
2, 44409, Note_on_c, 0, 57, 84
2, 44411, Note_on_c, 0, 59, 80
2, 44450, Note_on_c, 0, 75, 0
2, 44453, Note_on_c, 0, 67, 78
2, 44455, Note_on_c, 0, 76, 80
2, 44483, Note_on_c, 0, 57, 0
2, 44488, Note_on_c, 0, 71, 0
2, 44508, Control_c, 0, 67, 127
2, 44520, Note_on_c, 0, 76, 0
2, 44525, Note_on_c, 0, 71, 80
2, 44527, Note_on_c, 0, 77, 80
2, 44535, Control_c, 0, 67, 0
2, 44541, Note_on_c, 0, 51, 0
2, 44577, Note_on_c, 0, 71, 0
2, 44577, Note_on_c, 0, 67, 0
2, 44579, Note_on_c, 0, 59, 0
2, 44579, Note_on_c, 0, 77, 0
2, 44584, Note_on_c, 0, 74, 80
2, 44584, Note_on_c, 0, 78, 78
2, 44631, Note_on_c, 0, 78, 0
2, 44631, Note_on_c, 0, 74, 0
2, 44636, Note_on_c, 0, 43, 84
2, 44636, Note_on_c, 0, 50, 81
2, 44636, Note_on_c, 0, 75, 79
2, 44636, Note_on_c, 0, 79, 84
2, 44648, Note_on_c, 0, 59, 83
2, 44662, Note_on_c, 0, 43, 0
2, 44667, Note_on_c, 0, 50, 0
2, 44681, Note_on_c, 0, 59, 0
2, 44693, Note_on_c, 0, 75, 0
2, 44695, Note_on_c, 0, 79, 0
2, 44700, Note_on_c, 0, 74, 83
2, 44700, Note_on_c, 0, 86, 78
2, 44734, Note_on_c, 0, 86, 0
2, 44734, Note_on_c, 0, 74, 0
2, 44765, Note_on_c, 0, 59, 78
2, 44765, Note_on_c, 0, 62, 83
2, 44765, Note_on_c, 0, 67, 79
2, 44765, Note_on_c, 0, 75, 77
2, 44765, Note_on_c, 0, 79, 83
2, 44779, Note_on_c, 0, 67, 0
2, 44784, Note_on_c, 0, 75, 0
2, 44798, Note_on_c, 0, 79, 0
2, 44808, Note_on_c, 0, 67, 79
2, 44808, Note_on_c, 0, 74, 78
2, 44808, Note_on_c, 0, 78, 79
2, 44847, Note_on_c, 0, 67, 0
2, 44847, Note_on_c, 0, 59, 0
2, 44847, Note_on_c, 0, 62, 0
2, 44852, Note_on_c, 0, 73, 84
2, 44852, Note_on_c, 0, 77, 77
2, 44891, Note_on_c, 0, 74, 0
2, 44891, Note_on_c, 0, 78, 0
2, 44899, Note_on_c, 0, 73, 0
2, 44899, Note_on_c, 0, 77, 0
2, 44902, Note_on_c, 0, 72, 79
2, 44902, Note_on_c, 0, 76, 78
2, 44920, Control_c, 0, 67, 127
2, 44948, Note_on_c, 0, 76, 0
2, 44948, Note_on_c, 0, 72, 0
2, 44950, Control_c, 0, 67, 0
2, 44954, Note_on_c, 0, 46, 79
2, 44954, Note_on_c, 0, 56, 79
2, 44954, Note_on_c, 0, 71, 78
2, 44954, Note_on_c, 0, 75, 84
2, 44976, Note_on_c, 0, 75, 0
2, 44977, Note_on_c, 0, 71, 0
2, 44983, Note_on_c, 0, 56, 0
2, 44983, Note_on_c, 0, 46, 0
2, 45015, Note_on_c, 0, 74, 82
2, 45015, Note_on_c, 0, 83, 82
2, 45044, Note_on_c, 0, 83, 0
2, 45060, Note_on_c, 0, 59, 82
2, 45060, Note_on_c, 0, 63, 80
2, 45060, Note_on_c, 0, 68, 82
2, 45060, Note_on_c, 0, 75, 83
2, 45062, Note_on_c, 0, 74, 0
2, 45067, Note_on_c, 0, 71, 77
2, 45082, Note_on_c, 0, 68, 0
2, 45119, Note_on_c, 0, 70, 79
2, 45119, Note_on_c, 0, 74, 80
2, 45134, Note_on_c, 0, 59, 0
2, 45134, Note_on_c, 0, 71, 0
2, 45136, Note_on_c, 0, 75, 0
2, 45169, Note_on_c, 0, 69, 80
2, 45169, Note_on_c, 0, 73, 79
2, 45183, Note_on_c, 0, 70, 0
2, 45191, Note_on_c, 0, 69, 0
2, 45191, Note_on_c, 0, 73, 0
2, 45191, Note_on_c, 0, 63, 0
2, 45222, Note_on_c, 0, 68, 81
2, 45222, Note_on_c, 0, 72, 84
2, 45230, Note_on_c, 0, 74, 0
2, 45256, Control_c, 0, 67, 127
2, 45268, Note_on_c, 0, 68, 0
2, 45268, Note_on_c, 0, 39, 80
2, 45270, Note_on_c, 0, 72, 0
2, 45275, Note_on_c, 0, 67, 82
2, 45275, Note_on_c, 0, 71, 84
2, 45285, Control_c, 0, 67, 0
2, 45297, Note_on_c, 0, 71, 0
2, 45297, Note_on_c, 0, 67, 0
2, 45297, Note_on_c, 0, 39, 0
2, 45336, Note_on_c, 0, 70, 84
2, 45336, Note_on_c, 0, 79, 84
2, 45377, Note_on_c, 0, 79, 0
2, 45387, Note_on_c, 0, 55, 84
2, 45387, Note_on_c, 0, 61, 80
2, 45387, Note_on_c, 0, 63, 79
2, 45387, Note_on_c, 0, 67, 78
2, 45387, Note_on_c, 0, 71, 78
2, 45389, Note_on_c, 0, 70, 0
2, 45436, Note_on_c, 0, 67, 0
2, 45436, Note_on_c, 0, 71, 0
2, 45439, Note_on_c, 0, 68, 77
2, 45439, Note_on_c, 0, 72, 84
2, 45480, Note_on_c, 0, 63, 0
2, 45485, Note_on_c, 0, 69, 79
2, 45485, Note_on_c, 0, 73, 82
2, 45511, Note_on_c, 0, 68, 0
2, 45511, Note_on_c, 0, 72, 0
2, 45525, Note_on_c, 0, 69, 0
2, 45525, Note_on_c, 0, 55, 0
2, 45525, Note_on_c, 0, 73, 0
2, 45525, Note_on_c, 0, 61, 0
2, 45529, Note_on_c, 0, 70, 80
2, 45529, Note_on_c, 0, 74, 81
2, 45550, Note_on_c, 0, 70, 0
2, 45574, Note_on_c, 0, 46, 83
2, 45574, Note_on_c, 0, 56, 81
2, 45581, Note_on_c, 0, 74, 0
2, 45586, Note_on_c, 0, 71, 78
2, 45586, Note_on_c, 0, 75, 83
2, 45602, Note_on_c, 0, 56, 0
2, 45633, Note_on_c, 0, 75, 0
2, 45633, Note_on_c, 0, 71, 0
2, 45636, Note_on_c, 0, 74, 81
2, 45636, Note_on_c, 0, 83, 82
2, 45665, Note_on_c, 0, 83, 0
2, 45686, Note_on_c, 0, 74, 0
2, 45691, Note_on_c, 0, 68, 81
2, 45691, Note_on_c, 0, 71, 82
2, 45691, Note_on_c, 0, 75, 80
2, 45693, Note_on_c, 0, 59, 83
2, 45693, Note_on_c, 0, 63, 80
2, 45743, Note_on_c, 0, 72, 83
2, 45744, Note_on_c, 0, 76, 77
2, 45786, Note_on_c, 0, 63, 0
2, 45786, Note_on_c, 0, 68, 0
2, 45786, Note_on_c, 0, 46, 0
2, 45786, Note_on_c, 0, 59, 0
2, 45791, Note_on_c, 0, 73, 80
2, 45791, Note_on_c, 0, 77, 78
2, 45792, Note_on_c, 0, 75, 0
2, 45816, Note_on_c, 0, 73, 0
2, 45816, Note_on_c, 0, 71, 0
2, 45818, Note_on_c, 0, 72, 0
2, 45824, Note_on_c, 0, 76, 0
2, 45844, Note_on_c, 0, 77, 0
2, 45850, Note_on_c, 0, 74, 81
2, 45850, Note_on_c, 0, 78, 83
2, 45887, Note_on_c, 0, 31, 81
2, 45887, Note_on_c, 0, 43, 77
2, 45888, Control_c, 0, 67, 127
2, 45898, Note_on_c, 0, 78, 0
2, 45903, Note_on_c, 0, 71, 80
2, 45903, Note_on_c, 0, 79, 80
2, 45918, Control_c, 0, 67, 0
2, 45984, Note_on_c, 0, 71, 0
2, 45984, Note_on_c, 0, 74, 0
2, 45984, Note_on_c, 0, 43, 0
2, 45988, Note_on_c, 0, 50, 79
2, 46043, Note_on_c, 0, 31, 0
2, 46043, Note_on_c, 0, 79, 0
2, 46056, Note_on_c, 0, 55, 80
2, 46109, Control_c, 0, 67, 127
2, 46125, Note_on_c, 0, 50, 0
2, 46127, Note_on_c, 0, 54, 81
2, 46128, Note_on_c, 0, 59, 81
2, 46128, Note_on_c, 0, 62, 80
2, 46142, Note_on_c, 0, 55, 0
2, 46168, Control_c, 0, 67, 0
2, 46192, Note_on_c, 0, 59, 0
2, 46194, Note_on_c, 0, 62, 0
2, 46197, Note_on_c, 0, 60, 78
2, 46199, Note_on_c, 0, 53, 80
2, 46199, Note_on_c, 0, 63, 78
2, 46214, Note_on_c, 0, 54, 0
2, 46245, Note_on_c, 0, 60, 0
2, 46245, Note_on_c, 0, 63, 0
2, 46249, Note_on_c, 0, 51, 83
2, 46249, Note_on_c, 0, 59, 82
2, 46249, Note_on_c, 0, 66, 80
2, 46266, Note_on_c, 0, 53, 0
2, 46302, Note_on_c, 0, 59, 0
2, 46308, Note_on_c, 0, 50, 80
2, 46308, Note_on_c, 0, 60, 81
2, 46308, Note_on_c, 0, 69, 83
2, 46329, Note_on_c, 0, 66, 0
2, 46342, Note_on_c, 0, 51, 0
2, 46354, Note_on_c, 0, 60, 0
2, 46359, Note_on_c, 0, 43, 77
2, 46359, Note_on_c, 0, 59, 78
2, 46359, Note_on_c, 0, 67, 82
2, 46361, Note_on_c, 0, 50, 0
2, 46374, Note_on_c, 0, 69, 0
2, 46380, Note_on_c, 0, 43, 0
2, 46414, Note_on_c, 0, 67, 0
2, 46416, Note_on_c, 0, 59, 0
2, 46418, Note_on_c, 0, 60, 81
2, 46465, Note_on_c, 0, 60, 0
2, 46473, Note_on_c, 0, 59, 84
2, 46473, Note_on_c, 0, 62, 78
2, 46473, Note_on_c, 0, 66, 80
2, 46501, Control_c, 0, 67, 127
2, 46525, Note_on_c, 0, 66, 0
2, 46525, Note_on_c, 0, 59, 0
2, 46527, Note_on_c, 0, 62, 0
2, 46529, Control_c, 0, 67, 0
2, 46532, Note_on_c, 0, 58, 83
2, 46532, Note_on_c, 0, 63, 82
2, 46532, Note_on_c, 0, 67, 79
2, 46558, Note_on_c, 0, 63, 0
2, 46581, Note_on_c, 0, 54, 81
2, 46583, Note_on_c, 0, 58, 0
2, 46583, Note_on_c, 0, 64, 80
2, 46583, Note_on_c, 0, 70, 82
2, 46603, Note_on_c, 0, 64, 0
2, 46603, Note_on_c, 0, 67, 0
2, 46634, Note_on_c, 0, 54, 0
2, 46639, Note_on_c, 0, 55, 78
2, 46639, Note_on_c, 0, 63, 82
2, 46639, Note_on_c, 0, 72, 78
2, 46649, Note_on_c, 0, 70, 0
2, 46684, Note_on_c, 0, 50, 77
2, 46684, Note_on_c, 0, 62, 77
2, 46686, Note_on_c, 0, 71, 79
2, 46692, Note_on_c, 0, 72, 0
2, 46704, Note_on_c, 0, 50, 0
2, 46704, Note_on_c, 0, 55, 0
2, 46706, Note_on_c, 0, 63, 0
2, 46722, Note_on_c, 0, 71, 0
2, 46732, Note_on_c, 0, 62, 0
2, 46738, Note_on_c, 0, 64, 80
2, 46764, Control_c, 0, 67, 127
2, 46788, Note_on_c, 0, 65, 82
2, 46788, Note_on_c, 0, 69, 81
2, 46790, Note_on_c, 0, 63, 84
2, 46793, Control_c, 0, 67, 0
2, 46803, Note_on_c, 0, 64, 0
2, 46808, Note_on_c, 0, 65, 0
2, 46842, Note_on_c, 0, 69, 0
2, 46847, Note_on_c, 0, 62, 83
2, 46847, Note_on_c, 0, 66, 79
2, 46847, Note_on_c, 0, 70, 77
2, 46862, Note_on_c, 0, 63, 0
2, 46898, Note_on_c, 0, 61, 81
2, 46898, Note_on_c, 0, 69, 81
2, 46898, Note_on_c, 0, 73, 84
2, 46908, Note_on_c, 0, 70, 0
2, 46910, Control_c, 0, 64, 127
2, 46913, Note_on_c, 0, 62, 0
2, 46926, Note_on_c, 0, 66, 0
2, 46928, Control_c, 0, 67, 127
2, 46952, Note_on_c, 0, 61, 0
2, 46955, Control_c, 0, 67, 0
2, 46957, Note_on_c, 0, 62, 81
2, 46957, Note_on_c, 0, 70, 77
2, 46960, Note_on_c, 0, 76, 77
2, 46973, Note_on_c, 0, 69, 0
2, 46973, Note_on_c, 0, 73, 0
2, 46978, Control_c, 0, 64, 0
2, 47006, Note_on_c, 0, 70, 0
2, 47006, Note_on_c, 0, 62, 0
2, 47011, Note_on_c, 0, 55, 83
2, 47011, Note_on_c, 0, 71, 83
2, 47011, Note_on_c, 0, 74, 77
2, 47031, Note_on_c, 0, 55, 0
2, 47033, Note_on_c, 0, 76, 0
2, 47033, Note_on_c, 0, 71, 0
2, 47033, Note_on_c, 0, 74, 0
2, 47064, Note_on_c, 0, 68, 84
2, 47114, Note_on_c, 0, 67, 82
2, 47114, Note_on_c, 0, 72, 81
2, 47116, Note_on_c, 0, 76, 78
2, 47130, Note_on_c, 0, 68, 0
2, 47158, Control_c, 0, 67, 127
2, 47160, Control_c, 0, 64, 127
2, 47170, Note_on_c, 0, 76, 0
2, 47170, Note_on_c, 0, 72, 0
2, 47176, Note_on_c, 0, 65, 80
2, 47176, Note_on_c, 0, 73, 82
2, 47176, Note_on_c, 0, 77, 78
2, 47186, Control_c, 0, 67, 0
2, 47189, Note_on_c, 0, 67, 0
2, 47194, Control_c, 0, 64, 0
2, 47223, Note_on_c, 0, 73, 0
2, 47229, Note_on_c, 0, 63, 77
2, 47229, Note_on_c, 0, 72, 79
2, 47229, Note_on_c, 0, 78, 81
2, 47241, Note_on_c, 0, 65, 0
2, 47275, Note_on_c, 0, 72, 0
2, 47275, Note_on_c, 0, 77, 0
2, 47275, Note_on_c, 0, 78, 0
2, 47280, Note_on_c, 0, 62, 79
2, 47280, Note_on_c, 0, 71, 80
2, 47281, Note_on_c, 0, 81, 79
2, 47283, Control_c, 0, 67, 127
2, 47302, Note_on_c, 0, 63, 0
2, 47328, Note_on_c, 0, 71, 0
2, 47332, Note_on_c, 0, 55, 80
2, 47334, Note_on_c, 0, 74, 82
2, 47334, Note_on_c, 0, 79, 78
2, 47344, Note_on_c, 0, 81, 0
2, 47346, Control_c, 0, 67, 0
2, 47348, Note_on_c, 0, 62, 0
2, 47352, Note_on_c, 0, 55, 0
2, 47362, Note_on_c, 0, 74, 0
2, 47372, Note_on_c, 0, 79, 0
2, 47395, Note_on_c, 0, 62, 84
2, 47395, Note_on_c, 0, 69, 82
2, 47428, Note_on_c, 0, 69, 0
2, 47428, Note_on_c, 0, 62, 0
2, 47441, Note_on_c, 0, 67, 84
2, 47441, Note_on_c, 0, 71, 80
2, 47459, Control_c, 0, 67, 127
2, 47464, Note_on_c, 0, 71, 0
2, 47485, Control_c, 0, 67, 0
2, 47488, Note_on_c, 0, 67, 0
2, 47494, Note_on_c, 0, 69, 81
2, 47496, Note_on_c, 0, 74, 79
2, 47516, Note_on_c, 0, 69, 0
2, 47523, Note_on_c, 0, 74, 0
2, 47547, Note_on_c, 0, 71, 78
2, 47547, Note_on_c, 0, 79, 78
2, 47568, Note_on_c, 0, 71, 0
2, 47576, Note_on_c, 0, 79, 0
2, 47600, Note_on_c, 0, 74, 82
2, 47602, Note_on_c, 0, 81, 78
2, 47644, Note_on_c, 0, 74, 0
2, 47649, Note_on_c, 0, 71, 80
2, 47649, Note_on_c, 0, 79, 82
2, 47659, Note_on_c, 0, 81, 0
2, 47677, Note_on_c, 0, 71, 0
2, 47679, Note_on_c, 0, 79, 0
2, 47697, Note_on_c, 0, 62, 78
2, 47697, Note_on_c, 0, 69, 84
2, 47718, Note_on_c, 0, 69, 0
2, 47718, Note_on_c, 0, 62, 0
2, 47755, Note_on_c, 0, 67, 82
2, 47755, Note_on_c, 0, 71, 79
2, 47778, Note_on_c, 0, 71, 0
2, 47778, Note_on_c, 0, 67, 0
2, 47809, Note_on_c, 0, 69, 77
2, 47809, Note_on_c, 0, 74, 82
2, 47831, Note_on_c, 0, 69, 0
2, 47832, Note_on_c, 0, 74, 0
2, 47871, Note_on_c, 0, 71, 77
2, 47873, Note_on_c, 0, 79, 84
2, 47901, Note_on_c, 0, 79, 0
2, 47901, Note_on_c, 0, 71, 0
2, 47908, Control_c, 0, 67, 127
2, 47927, Note_on_c, 0, 74, 80
2, 47928, Note_on_c, 0, 81, 79
2, 47936, Control_c, 0, 67, 0
2, 47970, Note_on_c, 0, 71, 78
2, 47972, Note_on_c, 0, 79, 80
2, 47979, Note_on_c, 0, 81, 0
2, 47979, Note_on_c, 0, 74, 0
2, 48010, Note_on_c, 0, 71, 0
2, 48010, Note_on_c, 0, 79, 0
2, 48021, Note_on_c, 0, 62, 78
2, 48021, Note_on_c, 0, 69, 78
2, 48042, Note_on_c, 0, 62, 0
2, 48068, Note_on_c, 0, 69, 0
2, 48073, Note_on_c, 0, 67, 77
2, 48073, Note_on_c, 0, 71, 82
2, 48094, Note_on_c, 0, 71, 0
2, 48094, Note_on_c, 0, 67, 0
2, 48124, Note_on_c, 0, 69, 83
2, 48126, Note_on_c, 0, 74, 82
2, 48172, Note_on_c, 0, 69, 0
2, 48174, Note_on_c, 0, 74, 0
2, 48179, Note_on_c, 0, 71, 83
2, 48179, Note_on_c, 0, 79, 81
2, 48194, Control_c, 0, 67, 127
2, 48223, Control_c, 0, 67, 0
2, 48226, Note_on_c, 0, 79, 0
2, 48226, Note_on_c, 0, 71, 0
2, 48229, Note_on_c, 0, 74, 83
2, 48231, Note_on_c, 0, 81, 83
2, 48285, Note_on_c, 0, 74, 0
2, 48287, Note_on_c, 0, 81, 0
2, 48289, Note_on_c, 0, 71, 83
2, 48289, Note_on_c, 0, 79, 81
2, 48336, Note_on_c, 0, 79, 0
2, 48336, Note_on_c, 0, 71, 0
2, 48338, Note_on_c, 0, 62, 78
2, 48338, Note_on_c, 0, 69, 78
2, 48359, Note_on_c, 0, 69, 0
2, 48359, Note_on_c, 0, 62, 0
2, 48382, Note_on_c, 0, 67, 81
2, 48382, Note_on_c, 0, 71, 82
2, 48403, Note_on_c, 0, 71, 0
2, 48403, Note_on_c, 0, 67, 0
2, 48433, Note_on_c, 0, 69, 82
2, 48436, Note_on_c, 0, 74, 78
2, 48455, Note_on_c, 0, 69, 0
2, 48462, Note_on_c, 0, 74, 0
2, 48486, Note_on_c, 0, 71, 83
2, 48486, Note_on_c, 0, 76, 81
2, 48515, Note_on_c, 0, 71, 0
2, 48528, Note_on_c, 0, 76, 0
2, 48546, Note_on_c, 0, 71, 78
2, 48546, Note_on_c, 0, 74, 84
2, 48546, Note_on_c, 0, 78, 82
2, 48566, Note_on_c, 0, 78, 0
2, 48566, Note_on_c, 0, 74, 0
2, 48566, Note_on_c, 0, 71, 0
2, 48618, Control_c, 0, 67, 127
2, 48678, Control_c, 0, 67, 0
2, 48684, Note_on_c, 0, 71, 78
2, 48686, Note_on_c, 0, 74, 79
2, 48686, Note_on_c, 0, 78, 84
2, 48706, Note_on_c, 0, 74, 0
2, 48711, Note_on_c, 0, 78, 0
2, 48711, Note_on_c, 0, 71, 0
2, 48807, Note_on_c, 0, 71, 81
2, 48807, Note_on_c, 0, 74, 83
2, 48807, Note_on_c, 0, 78, 77
2, 48828, Note_on_c, 0, 74, 0
2, 48828, Note_on_c, 0, 71, 0
2, 48834, Note_on_c, 0, 78, 0
2, 48873, Control_c, 0, 67, 127
2, 48902, Control_c, 0, 67, 0
2, 48931, Note_on_c, 0, 69, 82
2, 48931, Note_on_c, 0, 71, 83
2, 48931, Note_on_c, 0, 74, 78
2, 48931, Note_on_c, 0, 78, 80
2, 48999, Note_on_c, 0, 71, 0
2, 48999, Note_on_c, 0, 69, 0
2, 49001, Note_on_c, 0, 74, 0
2, 49001, Note_on_c, 0, 78, 0
2, 49027, Note_on_c, 0, 76, 78
2, 49027, Note_on_c, 0, 79, 84
2, 49043, Note_on_c, 0, 69, 84
2, 49043, Note_on_c, 0, 71, 81
2, 49043, Note_on_c, 0, 74, 77
2, 49043, Note_on_c, 0, 78, 79
2, 49046, Note_on_c, 0, 76, 0
2, 49048, Note_on_c, 0, 79, 0
2, 49060, Control_c, 0, 67, 127
2, 49070, Note_on_c, 0, 74, 0
2, 49070, Note_on_c, 0, 71, 0
2, 49070, Note_on_c, 0, 69, 0
2, 49072, Note_on_c, 0, 78, 0
2, 49085, Control_c, 0, 67, 0
2, 49095, Note_on_c, 0, 73, 77
2, 49095, Note_on_c, 0, 76, 78
2, 49115, Note_on_c, 0, 76, 0
2, 49115, Note_on_c, 0, 73, 0
2, 49152, Note_on_c, 0, 69, 83
2, 49152, Note_on_c, 0, 71, 83
2, 49153, Note_on_c, 0, 74, 78
2, 49153, Note_on_c, 0, 78, 78
2, 49174, Note_on_c, 0, 71, 0
2, 49174, Note_on_c, 0, 69, 0
2, 49176, Note_on_c, 0, 78, 0
2, 49180, Note_on_c, 0, 74, 0
2, 49208, Note_on_c, 0, 76, 79
2, 49208, Note_on_c, 0, 79, 80
2, 49229, Note_on_c, 0, 79, 0
2, 49234, Note_on_c, 0, 76, 0
2, 49258, Note_on_c, 0, 67, 84
2, 49258, Note_on_c, 0, 74, 81
2, 49258, Note_on_c, 0, 78, 80
2, 49264, Note_on_c, 0, 71, 82
2, 49321, Note_on_c, 0, 71, 0
2, 49321, Note_on_c, 0, 67, 0
2, 49321, Note_on_c, 0, 74, 0
2, 49321, Note_on_c, 0, 78, 0
2, 49345, Note_on_c, 0, 76, 79
2, 49347, Note_on_c, 0, 79, 84
2, 49363, Note_on_c, 0, 67, 78
2, 49363, Note_on_c, 0, 71, 83
2, 49365, Note_on_c, 0, 74, 84
2, 49365, Note_on_c, 0, 78, 81
2, 49367, Note_on_c, 0, 79, 0
2, 49367, Note_on_c, 0, 76, 0
2, 49369, Control_c, 0, 67, 127
2, 49391, Note_on_c, 0, 74, 0
2, 49391, Note_on_c, 0, 71, 0
2, 49391, Note_on_c, 0, 78, 0
2, 49391, Note_on_c, 0, 67, 0
2, 49395, Control_c, 0, 67, 0
2, 49416, Note_on_c, 0, 73, 82
2, 49416, Note_on_c, 0, 76, 84
2, 49431, Note_on_c, 0, 73, 0
2, 49437, Note_on_c, 0, 76, 0
2, 49467, Note_on_c, 0, 67, 83
2, 49469, Note_on_c, 0, 71, 77
2, 49469, Note_on_c, 0, 74, 79
2, 49469, Note_on_c, 0, 78, 78
2, 49486, Note_on_c, 0, 71, 0
2, 49490, Note_on_c, 0, 67, 0
2, 49490, Note_on_c, 0, 74, 0
2, 49492, Note_on_c, 0, 78, 0
2, 49523, Note_on_c, 0, 76, 78
2, 49525, Note_on_c, 0, 79, 78
2, 49545, Note_on_c, 0, 79, 0
2, 49545, Note_on_c, 0, 76, 0
2, 49584, Note_on_c, 0, 66, 81
2, 49585, Note_on_c, 0, 69, 84
2, 49585, Note_on_c, 0, 74, 78
2, 49585, Note_on_c, 0, 78, 78
2, 49585, Note_on_c, 0, 81, 84
2, 49606, Note_on_c, 0, 69, 0
2, 49608, Note_on_c, 0, 74, 0
2, 49612, Note_on_c, 0, 66, 0
2, 49614, Note_on_c, 0, 81, 0
2, 49614, Note_on_c, 0, 78, 0
2, 49713, Note_on_c, 0, 79, 77
2, 49713, Note_on_c, 0, 83, 81
2, 49742, Note_on_c, 0, 83, 0
2, 49742, Note_on_c, 0, 79, 0
2, 49758, Note_on_c, 0, 81, 78
2, 49760, Note_on_c, 0, 85, 82
2, 49788, Note_on_c, 0, 81, 0
2, 49790, Note_on_c, 0, 85, 0
2, 49805, Note_on_c, 0, 83, 79
2, 49807, Note_on_c, 0, 86, 82
2, 49827, Control_c, 0, 64, 127
2, 49843, Note_on_c, 0, 86, 0
2, 49843, Note_on_c, 0, 83, 0
2, 49856, Control_c, 0, 64, 0
2, 49861, Note_on_c, 0, 81, 81
2, 49863, Note_on_c, 0, 85, 78
2, 49883, Note_on_c, 0, 85, 0
2, 49883, Note_on_c, 0, 81, 0
2, 49914, Note_on_c, 0, 43, 77
2, 49917, Note_on_c, 0, 79, 84
2, 49919, Note_on_c, 0, 83, 80
2, 49932, Note_on_c, 0, 79, 0
2, 49935, Note_on_c, 0, 43, 0
2, 49938, Note_on_c, 0, 83, 0
2, 49938, Control_c, 0, 67, 127
2, 49966, Note_on_c, 0, 52, 83
2, 49968, Note_on_c, 0, 78, 80
2, 49968, Note_on_c, 0, 81, 82
2, 49982, Note_on_c, 0, 78, 0
2, 49985, Note_on_c, 0, 52, 0
2, 49988, Note_on_c, 0, 81, 0
2, 49997, Control_c, 0, 67, 0
2, 50003, Note_on_c, 0, 58, 80
2, 50013, Note_on_c, 0, 76, 77
2, 50013, Note_on_c, 0, 79, 79
2, 50025, Note_on_c, 0, 58, 0
2, 50027, Note_on_c, 0, 76, 0
2, 50033, Note_on_c, 0, 79, 0
2, 50056, Note_on_c, 0, 59, 79
2, 50056, Note_on_c, 0, 74, 84
2, 50058, Note_on_c, 0, 78, 80
2, 50071, Note_on_c, 0, 74, 0
2, 50076, Note_on_c, 0, 59, 0
2, 50078, Note_on_c, 0, 78, 0
2, 50101, Note_on_c, 0, 64, 84
2, 50103, Note_on_c, 0, 73, 83
2, 50103, Note_on_c, 0, 76, 83
2, 50116, Note_on_c, 0, 73, 0
2, 50121, Note_on_c, 0, 64, 0
2, 50123, Note_on_c, 0, 76, 0
2, 50161, Note_on_c, 0, 71, 80
2, 50161, Note_on_c, 0, 74, 78
2, 50175, Note_on_c, 0, 71, 0
2, 50183, Note_on_c, 0, 74, 0
2, 50204, Note_on_c, 0, 45, 78
2, 50204, Note_on_c, 0, 54, 84
2, 50206, Note_on_c, 0, 69, 84
2, 50206, Note_on_c, 0, 73, 83
2, 50222, Note_on_c, 0, 45, 0
2, 50225, Note_on_c, 0, 54, 0
2, 50227, Note_on_c, 0, 69, 0
2, 50234, Note_on_c, 0, 73, 0
2, 50262, Note_on_c, 0, 55, 82
2, 50264, Note_on_c, 0, 67, 77
2, 50264, Note_on_c, 0, 71, 81
2, 50284, Note_on_c, 0, 67, 0
2, 50292, Note_on_c, 0, 71, 0
2, 50304, Note_on_c, 0, 55, 0
2, 50309, Note_on_c, 0, 57, 82
2, 50309, Note_on_c, 0, 66, 80
2, 50309, Note_on_c, 0, 69, 78
2, 50328, Note_on_c, 0, 66, 0
2, 50337, Note_on_c, 0, 69, 0
2, 50353, Note_on_c, 0, 57, 0
2, 50358, Note_on_c, 0, 58, 82
2, 50358, Note_on_c, 0, 64, 77
2, 50358, Note_on_c, 0, 67, 79
2, 50378, Note_on_c, 0, 64, 0
2, 50378, Note_on_c, 0, 58, 0
2, 50392, Note_on_c, 0, 67, 0
2, 50408, Note_on_c, 0, 66, 84
2, 50410, Note_on_c, 0, 62, 83
2, 50412, Note_on_c, 0, 59, 83
2, 50430, Note_on_c, 0, 59, 0
2, 50430, Note_on_c, 0, 62, 0
2, 50430, Note_on_c, 0, 66, 0
2, 50459, Control_c, 0, 67, 127
2, 50490, Control_c, 0, 67, 0
2, 50526, Note_on_c, 0, 45, 83
2, 50529, Note_on_c, 0, 52, 80
2, 50529, Note_on_c, 0, 61, 81
2, 50529, Note_on_c, 0, 67, 77
2, 50543, Note_on_c, 0, 45, 0
2, 50550, Note_on_c, 0, 61, 0
2, 50556, Note_on_c, 0, 67, 0
2, 50580, Note_on_c, 0, 45, 78
2, 50580, Note_on_c, 0, 53, 83
2, 50580, Note_on_c, 0, 61, 78
2, 50582, Note_on_c, 0, 69, 78
2, 50595, Note_on_c, 0, 45, 0
2, 50603, Note_on_c, 0, 61, 0
2, 50609, Note_on_c, 0, 52, 0
2, 50609, Note_on_c, 0, 69, 0
2, 50632, Note_on_c, 0, 45, 81
2, 50634, Note_on_c, 0, 54, 81
2, 50634, Note_on_c, 0, 63, 82
2, 50634, Note_on_c, 0, 71, 81
2, 50655, Note_on_c, 0, 63, 0
2, 50655, Note_on_c, 0, 53, 0
2, 50660, Note_on_c, 0, 45, 0
2, 50663, Note_on_c, 0, 71, 0
2, 50698, Note_on_c, 0, 55, 81
2, 50700, Note_on_c, 0, 64, 79
2, 50708, Note_on_c, 0, 54, 0
2, 50720, Note_on_c, 0, 64, 0
2, 50752, Note_on_c, 0, 55, 0
2, 50757, Note_on_c, 0, 45, 84
2, 50759, Note_on_c, 0, 56, 81
2, 50759, Note_on_c, 0, 65, 82
2, 50760, Note_on_c, 0, 73, 83
2, 50779, Note_on_c, 0, 65, 0
2, 50782, Note_on_c, 0, 73, 0
2, 50784, Note_on_c, 0, 45, 0
2, 50793, Note_on_c, 0, 56, 0
2, 50837, Control_c, 0, 67, 127
2, 50866, Control_c, 0, 67, 0
2, 50890, Note_on_c, 0, 69, 84
2, 50895, Note_on_c, 0, 50, 80
2, 50895, Note_on_c, 0, 54, 84
2, 50895, Note_on_c, 0, 57, 82
2, 50897, Note_on_c, 0, 62, 83
2, 50897, Note_on_c, 0, 66, 82
2, 50917, Note_on_c, 0, 69, 0
2, 50922, Note_on_c, 0, 57, 0
2, 50922, Note_on_c, 0, 50, 0
2, 50922, Note_on_c, 0, 54, 0
2, 50924, Note_on_c, 0, 66, 0
2, 50924, Note_on_c, 0, 62, 0
2, 50942, Control_c, 0, 64, 127
2, 50971, Control_c, 0, 64, 0
2, 51028, Note_on_c, 0, 38, 84
2, 51030, Note_on_c, 0, 45, 80
2, 51030, Note_on_c, 0, 54, 83
2, 51030, Note_on_c, 0, 57, 78
2, 51054, Note_on_c, 0, 57, 0
2, 51054, Note_on_c, 0, 38, 0
2, 51054, Note_on_c, 0, 45, 0
2, 51054, Note_on_c, 0, 54, 0
2, 51194, Control_c, 0, 64, 127
2, 51228, Control_c, 0, 64, 0
2, 51241, Note_on_c, 0, 42, 81
2, 51241, Note_on_c, 0, 49, 83
2, 51241, Note_on_c, 0, 54, 83
2, 51241, Note_on_c, 0, 57, 77
2, 51244, Note_on_c, 0, 66, 82
2, 51263, Note_on_c, 0, 42, 0
2, 51264, Note_on_c, 0, 57, 0
2, 51264, Note_on_c, 0, 49, 0
2, 51264, Note_on_c, 0, 54, 0
2, 51264, Note_on_c, 0, 66, 0
2, 51306, Control_c, 0, 64, 127
2, 51363, Note_on_c, 0, 42, 79
2, 51365, Note_on_c, 0, 49, 81
2, 51365, Note_on_c, 0, 54, 81
2, 51365, Note_on_c, 0, 57, 81
2, 51365, Note_on_c, 0, 66, 82
2, 51370, Control_c, 0, 64, 0
2, 51380, Note_on_c, 0, 57, 0
2, 51380, Note_on_c, 0, 49, 0
2, 51385, Note_on_c, 0, 42, 0
2, 51387, Note_on_c, 0, 54, 0
2, 51387, Note_on_c, 0, 66, 0
2, 51416, Control_c, 0, 67, 127
2, 51476, Control_c, 0, 67, 0
2, 51480, Note_on_c, 0, 42, 82
2, 51482, Note_on_c, 0, 49, 84
2, 51482, Note_on_c, 0, 54, 77
2, 51482, Note_on_c, 0, 57, 80
2, 51482, Note_on_c, 0, 66, 81
2, 51504, Note_on_c, 0, 57, 0
2, 51504, Note_on_c, 0, 54, 0
2, 51504, Note_on_c, 0, 42, 0
2, 51504, Note_on_c, 0, 49, 0
2, 51505, Note_on_c, 0, 66, 0
2, 51554, Control_c, 0, 64, 127
2, 51588, Control_c, 0, 64, 0
2, 51596, Note_on_c, 0, 40, 83
2, 51596, Note_on_c, 0, 50, 82
2, 51596, Note_on_c, 0, 55, 80
2, 51596, Note_on_c, 0, 59, 78
2, 51603, Note_on_c, 0, 67, 54
2, 51652, Control_c, 0, 67, 127
2, 51699, Note_on_c, 0, 55, 0
2, 51699, Note_on_c, 0, 40, 0
2, 51699, Note_on_c, 0, 50, 0
2, 51701, Note_on_c, 0, 59, 0
2, 51701, Note_on_c, 0, 67, 0
2, 51704, Note_on_c, 0, 42, 80
2, 51704, Note_on_c, 0, 49, 80
2, 51704, Note_on_c, 0, 54, 83
2, 51704, Note_on_c, 0, 57, 83
2, 51706, Note_on_c, 0, 66, 49
2, 51712, Control_c, 0, 67, 0
2, 51727, Note_on_c, 0, 57, 0
2, 51727, Note_on_c, 0, 54, 0
2, 51727, Note_on_c, 0, 42, 0
2, 51727, Note_on_c, 0, 49, 0
2, 51729, Note_on_c, 0, 66, 0
2, 51822, Note_on_c, 0, 59, 83
2, 51822, Note_on_c, 0, 71, 48
2, 51824, Note_on_c, 0, 83, 54
2, 51879, Control_c, 0, 64, 127
2, 51882, Note_on_c, 0, 62, 80
2, 51882, Note_on_c, 0, 74, 52
2, 51884, Note_on_c, 0, 71, 0
2, 51884, Note_on_c, 0, 59, 0
2, 51884, Note_on_c, 0, 86, 48
2, 51887, Note_on_c, 0, 83, 0
2, 51902, Note_on_c, 0, 62, 0
2, 51904, Note_on_c, 0, 74, 0
2, 51904, Note_on_c, 0, 86, 0
2, 51904, Control_c, 0, 67, 127
2, 51933, Note_on_c, 0, 61, 79
2, 51936, Note_on_c, 0, 73, 51
2, 51936, Note_on_c, 0, 85, 48
2, 51948, Control_c, 0, 64, 0
2, 51986, Note_on_c, 0, 64, 83
2, 51986, Note_on_c, 0, 76, 49
2, 51988, Note_on_c, 0, 61, 0
2, 51990, Note_on_c, 0, 73, 0
2, 51990, Note_on_c, 0, 88, 52
2, 51992, Note_on_c, 0, 85, 0
2, 52006, Control_c, 0, 67, 0
2, 52008, Note_on_c, 0, 64, 0
2, 52009, Note_on_c, 0, 76, 0
2, 52009, Note_on_c, 0, 88, 0
2, 52041, Note_on_c, 0, 57, 77
2, 52043, Note_on_c, 0, 69, 51
2, 52043, Note_on_c, 0, 81, 48
2, 52093, Note_on_c, 0, 61, 82
2, 52095, Note_on_c, 0, 57, 0
2, 52095, Note_on_c, 0, 73, 59
2, 52095, Note_on_c, 0, 85, 64
2, 52097, Note_on_c, 0, 69, 0
2, 52097, Note_on_c, 0, 81, 0
2, 52113, Note_on_c, 0, 61, 0
2, 52115, Note_on_c, 0, 73, 0
2, 52117, Note_on_c, 0, 85, 0
2, 52145, Note_on_c, 0, 59, 83
2, 52145, Note_on_c, 0, 71, 59
2, 52147, Note_on_c, 0, 83, 63
2, 52171, Control_c, 0, 67, 127
2, 52197, Note_on_c, 0, 62, 83
2, 52199, Note_on_c, 0, 59, 0
2, 52199, Note_on_c, 0, 74, 59
2, 52199, Note_on_c, 0, 86, 66
2, 52200, Note_on_c, 0, 71, 0
2, 52200, Note_on_c, 0, 83, 0
2, 52231, Control_c, 0, 67, 0
2, 52233, Note_on_c, 0, 62, 0
2, 52233, Note_on_c, 0, 74, 0
2, 52235, Note_on_c, 0, 86, 0
2, 52248, Note_on_c, 0, 55, 82
2, 52250, Note_on_c, 0, 67, 84
2, 52252, Note_on_c, 0, 79, 84
2, 52306, Note_on_c, 0, 79, 0
2, 52308, Note_on_c, 0, 57, 78
2, 52311, Note_on_c, 0, 69, 84
2, 52311, Note_on_c, 0, 81, 78
2, 52331, Note_on_c, 0, 69, 0
2, 52349, Note_on_c, 0, 57, 0
2, 52349, Note_on_c, 0, 55, 0
2, 52351, Note_on_c, 0, 81, 0
2, 52361, Note_on_c, 0, 59, 78
2, 52364, Note_on_c, 0, 83, 80
2, 52368, Note_on_c, 0, 67, 0
2, 52368, Note_on_c, 0, 71, 81
2, 52382, Note_on_c, 0, 71, 0
2, 52394, Note_on_c, 0, 59, 0
2, 52397, Note_on_c, 0, 83, 0
2, 52411, Note_on_c, 0, 61, 77
2, 52413, Note_on_c, 0, 73, 79
2, 52413, Note_on_c, 0, 85, 82
2, 52433, Note_on_c, 0, 61, 0
2, 52435, Note_on_c, 0, 73, 0
2, 52437, Note_on_c, 0, 85, 0
2, 52464, Control_c, 0, 67, 127
2, 52466, Note_on_c, 0, 54, 80
2, 52466, Note_on_c, 0, 66, 81
2, 52468, Note_on_c, 0, 78, 79
2, 52488, Note_on_c, 0, 54, 0
2, 52490, Note_on_c, 0, 66, 0
2, 52492, Note_on_c, 0, 78, 0
2, 52494, Control_c, 0, 67, 0
2, 52590, Note_on_c, 0, 42, 80
2, 52590, Note_on_c, 0, 49, 79
2, 52590, Note_on_c, 0, 54, 82
2, 52590, Note_on_c, 0, 57, 83
2, 52590, Note_on_c, 0, 66, 78
2, 52611, Note_on_c, 0, 57, 0
2, 52611, Note_on_c, 0, 54, 0
2, 52611, Note_on_c, 0, 42, 0
2, 52611, Note_on_c, 0, 49, 0
2, 52613, Note_on_c, 0, 66, 0
2, 52715, Note_on_c, 0, 42, 82
2, 52715, Note_on_c, 0, 49, 78
2, 52715, Note_on_c, 0, 54, 81
2, 52715, Note_on_c, 0, 57, 79
2, 52717, Note_on_c, 0, 66, 83
2, 52737, Note_on_c, 0, 54, 0
2, 52737, Note_on_c, 0, 42, 0
2, 52737, Note_on_c, 0, 49, 0
2, 52739, Note_on_c, 0, 57, 0
2, 52739, Note_on_c, 0, 66, 0
2, 52848, Note_on_c, 0, 42, 83
2, 52848, Note_on_c, 0, 49, 80
2, 52848, Note_on_c, 0, 54, 80
2, 52848, Note_on_c, 0, 57, 82
2, 52850, Note_on_c, 0, 66, 83
2, 52869, Note_on_c, 0, 57, 0
2, 52869, Note_on_c, 0, 54, 0
2, 52869, Note_on_c, 0, 42, 0
2, 52869, Note_on_c, 0, 49, 0
2, 52871, Note_on_c, 0, 66, 0
2, 52892, Control_c, 0, 64, 127
2, 52910, Control_c, 0, 67, 127
2, 52923, Control_c, 0, 64, 0
2, 52937, Control_c, 0, 67, 0
2, 52970, Note_on_c, 0, 55, 77
2, 52970, Note_on_c, 0, 59, 78
2, 52970, Note_on_c, 0, 67, 82
2, 52976, Note_on_c, 0, 40, 81
2, 52976, Note_on_c, 0, 50, 77
2, 53004, Control_c, 0, 67, 127
2, 53061, Control_c, 0, 67, 0
2, 53076, Note_on_c, 0, 50, 0
2, 53076, Note_on_c, 0, 40, 0
2, 53078, Note_on_c, 0, 55, 0
2, 53078, Note_on_c, 0, 59, 0
2, 53078, Note_on_c, 0, 67, 0
2, 53081, Note_on_c, 0, 42, 77
2, 53081, Note_on_c, 0, 49, 78
2, 53081, Note_on_c, 0, 54, 82
2, 53081, Note_on_c, 0, 57, 79
2, 53081, Note_on_c, 0, 66, 84
2, 53099, Note_on_c, 0, 49, 0
2, 53099, Note_on_c, 0, 42, 0
2, 53101, Note_on_c, 0, 57, 0
2, 53101, Note_on_c, 0, 54, 0
2, 53101, Note_on_c, 0, 66, 0
2, 53197, Note_on_c, 0, 35, 82
2, 53200, Note_on_c, 0, 47, 83
2, 53255, Note_on_c, 0, 47, 0
2, 53255, Note_on_c, 0, 35, 0
2, 53257, Note_on_c, 0, 38, 77
2, 53259, Note_on_c, 0, 50, 81
2, 53287, Note_on_c, 0, 50, 0
2, 53287, Note_on_c, 0, 38, 0
2, 53305, Note_on_c, 0, 37, 78
2, 53307, Note_on_c, 0, 49, 84
2, 53357, Note_on_c, 0, 49, 0
2, 53357, Note_on_c, 0, 37, 0
2, 53363, Note_on_c, 0, 40, 78
2, 53365, Note_on_c, 0, 52, 78
2, 53391, Note_on_c, 0, 52, 0
2, 53391, Note_on_c, 0, 40, 0
2, 53414, Note_on_c, 0, 33, 79
2, 53416, Note_on_c, 0, 45, 82
2, 53471, Note_on_c, 0, 45, 0
2, 53475, Note_on_c, 0, 37, 81
2, 53475, Note_on_c, 0, 49, 78
2, 53477, Note_on_c, 0, 33, 0
2, 53496, Note_on_c, 0, 37, 0
2, 53497, Note_on_c, 0, 49, 0
2, 53529, Note_on_c, 0, 35, 83
2, 53529, Note_on_c, 0, 47, 83
2, 53550, Note_on_c, 0, 47, 0
2, 53550, Note_on_c, 0, 35, 0
2, 53581, Control_c, 0, 64, 127
2, 53584, Note_on_c, 0, 38, 82
2, 53584, Note_on_c, 0, 50, 80
2, 53610, Note_on_c, 0, 50, 0
2, 53610, Note_on_c, 0, 38, 0
2, 53615, Control_c, 0, 64, 0
2, 53635, Note_on_c, 0, 31, 78
2, 53635, Note_on_c, 0, 43, 84
2, 53687, Note_on_c, 0, 33, 84
2, 53687, Note_on_c, 0, 45, 77
2, 53731, Note_on_c, 0, 43, 0
2, 53731, Note_on_c, 0, 31, 0
2, 53738, Note_on_c, 0, 33, 0
2, 53738, Note_on_c, 0, 45, 0
2, 53744, Note_on_c, 0, 35, 81
2, 53744, Note_on_c, 0, 47, 84
2, 53791, Note_on_c, 0, 35, 0
2, 53793, Note_on_c, 0, 47, 0
2, 53798, Note_on_c, 0, 37, 80
2, 53798, Note_on_c, 0, 49, 78
2, 53821, Note_on_c, 0, 49, 0
2, 53821, Note_on_c, 0, 37, 0
2, 53860, Note_on_c, 0, 30, 78
2, 53860, Note_on_c, 0, 42, 83
2, 53880, Note_on_c, 0, 42, 0
2, 53882, Note_on_c, 0, 30, 0
2, 53991, Note_on_c, 0, 72, 82
2, 53991, Note_on_c, 0, 75, 77
2, 53991, Note_on_c, 0, 78, 78
2, 54012, Note_on_c, 0, 75, 0
2, 54018, Note_on_c, 0, 72, 0
2, 54025, Note_on_c, 0, 78, 0
2, 54126, Note_on_c, 0, 72, 81
2, 54126, Note_on_c, 0, 75, 84
2, 54126, Note_on_c, 0, 78, 81
2, 54144, Note_on_c, 0, 75, 0
2, 54152, Note_on_c, 0, 72, 0
2, 54158, Note_on_c, 0, 78, 0
2, 54238, Note_on_c, 0, 71, 77
2, 54238, Note_on_c, 0, 72, 84
2, 54238, Note_on_c, 0, 75, 77
2, 54240, Note_on_c, 0, 78, 78
2, 54261, Note_on_c, 0, 75, 0
2, 54261, Note_on_c, 0, 72, 0
2, 54273, Note_on_c, 0, 71, 0
2, 54273, Note_on_c, 0, 78, 0
2, 54304, Note_on_c, 0, 74, 78
2, 54333, Note_on_c, 0, 74, 0
2, 54356, Note_on_c, 0, 69, 82
2, 54356, Note_on_c, 0, 72, 84
2, 54356, Note_on_c, 0, 75, 84
2, 54356, Note_on_c, 0, 78, 83
2, 54376, Note_on_c, 0, 75, 0
2, 54378, Note_on_c, 0, 72, 0
2, 54394, Note_on_c, 0, 78, 0
2, 54433, Note_on_c, 0, 69, 0
2, 54438, Note_on_c, 0, 76, 78
2, 54438, Note_on_c, 0, 79, 80
2, 54459, Note_on_c, 0, 76, 0
2, 54461, Note_on_c, 0, 79, 0
2, 54466, Note_on_c, 0, 69, 80
2, 54466, Note_on_c, 0, 72, 80
2, 54466, Note_on_c, 0, 75, 80
2, 54466, Note_on_c, 0, 78, 83
2, 54494, Note_on_c, 0, 78, 0
2, 54494, Note_on_c, 0, 69, 0
2, 54494, Note_on_c, 0, 72, 0
2, 54494, Note_on_c, 0, 75, 0
2, 54520, Note_on_c, 0, 73, 79
2, 54520, Note_on_c, 0, 76, 79
2, 54522, Control_c, 0, 67, 127
2, 54543, Note_on_c, 0, 76, 0
2, 54543, Note_on_c, 0, 73, 0
2, 54552, Control_c, 0, 67, 0
2, 54569, Note_on_c, 0, 67, 82
2, 54569, Note_on_c, 0, 69, 81
2, 54569, Note_on_c, 0, 72, 80
2, 54569, Note_on_c, 0, 75, 80
2, 54569, Note_on_c, 0, 78, 77
2, 54590, Note_on_c, 0, 78, 0
2, 54590, Note_on_c, 0, 69, 0
2, 54590, Note_on_c, 0, 67, 0
2, 54590, Note_on_c, 0, 75, 0
2, 54621, Note_on_c, 0, 74, 83
2, 54621, Note_on_c, 0, 76, 82
2, 54621, Note_on_c, 0, 79, 81
2, 54628, Note_on_c, 0, 72, 0
2, 54642, Note_on_c, 0, 76, 0
2, 54666, Note_on_c, 0, 79, 0
2, 54669, Note_on_c, 0, 66, 79
2, 54669, Note_on_c, 0, 72, 80
2, 54671, Note_on_c, 0, 69, 77
2, 54671, Note_on_c, 0, 78, 78
2, 54671, Note_on_c, 0, 81, 78
2, 54680, Note_on_c, 0, 74, 0
2, 54741, Note_on_c, 0, 78, 0
2, 54741, Note_on_c, 0, 81, 0
2, 54745, Note_on_c, 0, 66, 0
2, 54745, Note_on_c, 0, 69, 0
2, 54747, Note_on_c, 0, 72, 0
2, 54768, Note_on_c, 0, 79, 82
2, 54768, Note_on_c, 0, 83, 82
2, 54781, Control_c, 0, 67, 127
2, 54786, Note_on_c, 0, 66, 79
2, 54786, Note_on_c, 0, 69, 79
2, 54786, Note_on_c, 0, 72, 84
2, 54786, Note_on_c, 0, 81, 77
2, 54793, Note_on_c, 0, 78, 80
2, 54795, Note_on_c, 0, 83, 0
2, 54797, Note_on_c, 0, 79, 0
2, 54810, Control_c, 0, 67, 0
2, 54813, Note_on_c, 0, 66, 0
2, 54813, Note_on_c, 0, 69, 0
2, 54813, Note_on_c, 0, 78, 0
2, 54815, Note_on_c, 0, 81, 0
2, 54838, Note_on_c, 0, 74, 80
2, 54838, Note_on_c, 0, 76, 83
2, 54838, Note_on_c, 0, 79, 77
2, 54853, Note_on_c, 0, 72, 0
2, 54866, Note_on_c, 0, 79, 0
2, 54866, Note_on_c, 0, 76, 0
2, 54892, Note_on_c, 0, 64, 79
2, 54892, Note_on_c, 0, 66, 77
2, 54892, Note_on_c, 0, 69, 84
2, 54892, Note_on_c, 0, 72, 79
2, 54892, Note_on_c, 0, 78, 84
2, 54892, Note_on_c, 0, 81, 79
2, 54898, Note_on_c, 0, 74, 0
2, 54913, Note_on_c, 0, 78, 0
2, 54919, Note_on_c, 0, 69, 0
2, 54919, Note_on_c, 0, 64, 0
2, 54919, Note_on_c, 0, 66, 0
2, 54933, Note_on_c, 0, 81, 0
2, 54933, Note_on_c, 0, 74, 83
2, 54933, Note_on_c, 0, 83, 79
2, 54935, Note_on_c, 0, 79, 79
2, 54948, Note_on_c, 0, 72, 0
2, 54953, Note_on_c, 0, 79, 0
2, 54981, Note_on_c, 0, 83, 0
2, 54985, Note_on_c, 0, 63, 77
2, 54985, Note_on_c, 0, 66, 80
2, 54985, Note_on_c, 0, 72, 79
2, 54985, Note_on_c, 0, 81, 81
2, 54985, Note_on_c, 0, 84, 78
2, 54993, Note_on_c, 0, 74, 0
2, 55066, Note_on_c, 0, 66, 0
2, 55066, Note_on_c, 0, 63, 0
2, 55066, Note_on_c, 0, 81, 0
2, 55066, Note_on_c, 0, 84, 0
2, 55094, Note_on_c, 0, 72, 0
2, 55104, Note_on_c, 0, 81, 77
2, 55104, Note_on_c, 0, 84, 82
2, 55152, Note_on_c, 0, 84, 0
2, 55152, Note_on_c, 0, 81, 0
2, 55156, Note_on_c, 0, 80, 84
2, 55156, Note_on_c, 0, 83, 77
2, 55196, Note_on_c, 0, 83, 0
2, 55198, Note_on_c, 0, 80, 0
2, 55208, Note_on_c, 0, 81, 79
2, 55208, Note_on_c, 0, 84, 84
2, 55249, Note_on_c, 0, 84, 0
2, 55249, Note_on_c, 0, 81, 0
2, 55262, Note_on_c, 0, 83, 78
2, 55262, Note_on_c, 0, 86, 84
2, 55282, Control_c, 0, 67, 127
2, 55284, Note_on_c, 0, 83, 0
2, 55310, Note_on_c, 0, 86, 0
2, 55310, Control_c, 0, 67, 0
2, 55313, Note_on_c, 0, 40, 79
2, 55313, Note_on_c, 0, 84, 79
2, 55313, Note_on_c, 0, 88, 77
2, 55320, Control_c, 0, 64, 127
2, 55334, Note_on_c, 0, 84, 0
2, 55334, Note_on_c, 0, 40, 0
2, 55342, Note_on_c, 0, 88, 0
2, 55365, Note_on_c, 0, 48, 79
2, 55365, Note_on_c, 0, 83, 78
2, 55365, Note_on_c, 0, 86, 80
2, 55386, Note_on_c, 0, 83, 0
2, 55386, Note_on_c, 0, 48, 0
2, 55386, Control_c, 0, 64, 0
2, 55393, Note_on_c, 0, 86, 0
2, 55404, Note_on_c, 0, 54, 77
2, 55409, Note_on_c, 0, 81, 78
2, 55409, Note_on_c, 0, 84, 84
2, 55425, Note_on_c, 0, 54, 0
2, 55425, Control_c, 0, 64, 127
2, 55431, Note_on_c, 0, 81, 0
2, 55437, Note_on_c, 0, 84, 0
2, 55461, Note_on_c, 0, 55, 83
2, 55463, Note_on_c, 0, 79, 82
2, 55463, Note_on_c, 0, 83, 83
2, 55470, Control_c, 0, 64, 0
2, 55483, Note_on_c, 0, 79, 0
2, 55490, Note_on_c, 0, 83, 0
2, 55511, Note_on_c, 0, 55, 0
2, 55513, Note_on_c, 0, 60, 79
2, 55513, Note_on_c, 0, 78, 81
2, 55513, Note_on_c, 0, 81, 80
2, 55536, Note_on_c, 0, 78, 0
2, 55544, Note_on_c, 0, 81, 0
2, 55557, Note_on_c, 0, 60, 0
2, 55570, Note_on_c, 0, 76, 83
2, 55570, Note_on_c, 0, 79, 82
2, 55572, Note_on_c, 0, 64, 81
2, 55590, Control_c, 0, 67, 127
2, 55592, Note_on_c, 0, 76, 0
2, 55598, Note_on_c, 0, 79, 0
2, 55619, Note_on_c, 0, 64, 0
2, 55619, Control_c, 0, 67, 0
2, 55622, Note_on_c, 0, 69, 79
2, 55622, Note_on_c, 0, 74, 80
2, 55622, Note_on_c, 0, 78, 79
2, 55651, Note_on_c, 0, 78, 0
2, 55651, Note_on_c, 0, 74, 0
2, 55675, Note_on_c, 0, 67, 83
2, 55675, Note_on_c, 0, 72, 80
2, 55675, Note_on_c, 0, 76, 78
2, 55677, Note_on_c, 0, 69, 0
2, 55703, Note_on_c, 0, 72, 0
2, 55708, Note_on_c, 0, 76, 0
2, 55727, Note_on_c, 0, 67, 0
2, 55727, Note_on_c, 0, 64, 83
2, 55727, Note_on_c, 0, 71, 82
2, 55727, Note_on_c, 0, 74, 78
2, 55750, Note_on_c, 0, 71, 0
2, 55762, Note_on_c, 0, 74, 0
2, 55782, Note_on_c, 0, 72, 77
2, 55784, Note_on_c, 0, 69, 77
2, 55786, Note_on_c, 0, 64, 0
2, 55786, Note_on_c, 0, 60, 79
2, 55806, Note_on_c, 0, 69, 0
2, 55814, Note_on_c, 0, 72, 0
2, 55827, Note_on_c, 0, 60, 0
2, 55830, Note_on_c, 0, 55, 82
2, 55830, Note_on_c, 0, 67, 81
2, 55830, Note_on_c, 0, 71, 83
2, 55851, Note_on_c, 0, 67, 0
2, 55851, Note_on_c, 0, 55, 0
2, 55865, Note_on_c, 0, 71, 0
2, 55872, Control_c, 0, 64, 127
2, 55883, Note_on_c, 0, 66, 82
2, 55883, Note_on_c, 0, 69, 82
2, 55901, Control_c, 0, 67, 127
2, 55903, Note_on_c, 0, 66, 0
2, 55905, Control_c, 0, 64, 0
2, 55929, Note_on_c, 0, 69, 0
2, 55929, Control_c, 0, 67, 0
2, 55932, Note_on_c, 0, 64, 77
2, 55932, Note_on_c, 0, 67, 80
2, 55934, Note_on_c, 0, 42, 81
2, 55952, Note_on_c, 0, 42, 0
2, 55952, Note_on_c, 0, 64, 0
2, 55970, Control_c, 0, 64, 127
2, 55976, Note_on_c, 0, 66, 83
2, 55990, Note_on_c, 0, 66, 0
2, 55990, Note_on_c, 0, 67, 0
2, 56017, Note_on_c, 0, 54, 78
2, 56020, Note_on_c, 0, 59, 83
2, 56026, Note_on_c, 0, 64, 83
2, 56026, Note_on_c, 0, 66, 77
2, 56034, Control_c, 0, 64, 0
2, 56040, Note_on_c, 0, 59, 0
2, 56041, Note_on_c, 0, 54, 0
2, 56047, Note_on_c, 0, 66, 0
2, 56053, Note_on_c, 0, 64, 0
2, 56076, Note_on_c, 0, 58, 82
2, 56097, Note_on_c, 0, 58, 0
2, 56126, Note_on_c, 0, 76, 84
2, 56126, Note_on_c, 0, 78, 80
2, 56138, Note_on_c, 0, 54, 79
2, 56140, Note_on_c, 0, 49, 81
2, 56143, Note_on_c, 0, 58, 80
2, 56149, Note_on_c, 0, 78, 0
2, 56149, Note_on_c, 0, 76, 0
2, 56160, Note_on_c, 0, 49, 0
2, 56160, Note_on_c, 0, 54, 0
2, 56160, Note_on_c, 0, 58, 0
2, 56184, Control_c, 0, 67, 127
2, 56244, Control_c, 0, 67, 0
2, 56247, Note_on_c, 0, 74, 60
2, 56247, Note_on_c, 0, 78, 55
2, 56296, Note_on_c, 0, 78, 0
2, 56301, Note_on_c, 0, 77, 74
2, 56316, Note_on_c, 0, 77, 0
2, 56316, Note_on_c, 0, 74, 0
2, 56352, Note_on_c, 0, 67, 71
2, 56352, Note_on_c, 0, 73, 76
2, 56352, Note_on_c, 0, 74, 77
2, 56352, Note_on_c, 0, 77, 76
2, 56375, Note_on_c, 0, 77, 0
2, 56375, Note_on_c, 0, 74, 0
2, 56375, Note_on_c, 0, 67, 0
2, 56388, Note_on_c, 0, 73, 0
2, 56406, Note_on_c, 0, 71, 72
2, 56420, Note_on_c, 0, 71, 0
2, 56467, Note_on_c, 0, 62, 77
2, 56467, Note_on_c, 0, 65, 74
2, 56467, Note_on_c, 0, 67, 78
2, 56467, Note_on_c, 0, 71, 75
2, 56495, Note_on_c, 0, 71, 0
2, 56495, Note_on_c, 0, 62, 0
2, 56495, Note_on_c, 0, 65, 0
2, 56496, Note_on_c, 0, 67, 0
2, 56517, Control_c, 0, 64, 127
2, 56582, Control_c, 0, 64, 0
2, 56592, Note_on_c, 0, 64, 78
2, 56592, Note_on_c, 0, 67, 74
2, 56594, Note_on_c, 0, 42, 79
2, 56615, Note_on_c, 0, 64, 0
2, 56616, Note_on_c, 0, 42, 0
2, 56644, Note_on_c, 0, 66, 77
2, 56646, Note_on_c, 0, 67, 0
2, 56654, Control_c, 0, 67, 127
2, 56662, Note_on_c, 0, 66, 0
2, 56690, Note_on_c, 0, 54, 82
2, 56690, Note_on_c, 0, 59, 83
2, 56690, Note_on_c, 0, 64, 77
2, 56690, Note_on_c, 0, 66, 71
2, 56712, Note_on_c, 0, 66, 0
2, 56712, Note_on_c, 0, 64, 0
2, 56712, Note_on_c, 0, 54, 0
2, 56712, Control_c, 0, 67, 0
2, 56737, Note_on_c, 0, 59, 0
2, 56743, Note_on_c, 0, 58, 80
2, 56763, Note_on_c, 0, 58, 0
2, 56808, Note_on_c, 0, 76, 78
2, 56808, Note_on_c, 0, 78, 75
2, 56809, Note_on_c, 0, 49, 77
2, 56809, Note_on_c, 0, 54, 83
2, 56809, Note_on_c, 0, 58, 84
2, 56828, Note_on_c, 0, 58, 0
2, 56828, Note_on_c, 0, 49, 0
2, 56828, Note_on_c, 0, 76, 0
2, 56828, Note_on_c, 0, 78, 0
2, 56828, Note_on_c, 0, 54, 0
2, 56916, Note_on_c, 0, 74, 76
2, 56916, Note_on_c, 0, 78, 75
2, 56932, Control_c, 0, 67, 127
2, 56956, Note_on_c, 0, 77, 74
2, 56964, Note_on_c, 0, 78, 0
2, 56964, Note_on_c, 0, 74, 0
2, 56972, Note_on_c, 0, 77, 0
2, 56990, Control_c, 0, 67, 0
2, 57002, Note_on_c, 0, 67, 78
2, 57002, Note_on_c, 0, 73, 77
2, 57002, Note_on_c, 0, 74, 71
2, 57002, Note_on_c, 0, 77, 72
2, 57021, Note_on_c, 0, 74, 0
2, 57028, Note_on_c, 0, 77, 0
2, 57028, Note_on_c, 0, 67, 0
2, 57060, Note_on_c, 0, 73, 0
2, 57065, Note_on_c, 0, 71, 74
2, 57080, Note_on_c, 0, 71, 0
2, 57117, Note_on_c, 0, 71, 76
2, 57119, Note_on_c, 0, 62, 78
2, 57119, Note_on_c, 0, 65, 71
2, 57119, Note_on_c, 0, 67, 78
2, 57139, Note_on_c, 0, 67, 0
2, 57139, Note_on_c, 0, 71, 0
2, 57139, Note_on_c, 0, 62, 0
2, 57139, Note_on_c, 0, 65, 0
2, 57162, Control_c, 0, 67, 127
2, 57190, Control_c, 0, 67, 0
2, 57231, Note_on_c, 0, 67, 80
2, 57233, Note_on_c, 0, 42, 81
2, 57233, Note_on_c, 0, 64, 79
2, 57251, Note_on_c, 0, 64, 0
2, 57262, Note_on_c, 0, 42, 0
2, 57280, Note_on_c, 0, 67, 0
2, 57285, Note_on_c, 0, 66, 84
2, 57308, Note_on_c, 0, 66, 0
2, 57338, Note_on_c, 0, 54, 82
2, 57338, Note_on_c, 0, 59, 81
2, 57338, Note_on_c, 0, 64, 83
2, 57338, Note_on_c, 0, 66, 79
2, 57359, Note_on_c, 0, 66, 0
2, 57359, Note_on_c, 0, 64, 0
2, 57359, Note_on_c, 0, 54, 0
2, 57386, Note_on_c, 0, 58, 79
2, 57392, Note_on_c, 0, 59, 0
2, 57408, Note_on_c, 0, 58, 0
2, 57450, Note_on_c, 0, 76, 77
2, 57450, Note_on_c, 0, 79, 80
2, 57452, Note_on_c, 0, 49, 77
2, 57452, Note_on_c, 0, 54, 79
2, 57452, Note_on_c, 0, 58, 83
2, 57472, Note_on_c, 0, 76, 0
2, 57481, Note_on_c, 0, 54, 0
2, 57481, Note_on_c, 0, 58, 0
2, 57481, Note_on_c, 0, 49, 0
2, 57500, Note_on_c, 0, 79, 0
2, 57503, Note_on_c, 0, 78, 82
2, 57519, Note_on_c, 0, 78, 0
2, 57550, Note_on_c, 0, 71, 77
2, 57552, Note_on_c, 0, 66, 83
2, 57552, Note_on_c, 0, 76, 81
2, 57552, Note_on_c, 0, 78, 83
2, 57573, Note_on_c, 0, 78, 0
2, 57573, Note_on_c, 0, 76, 0
2, 57573, Note_on_c, 0, 66, 0
2, 57599, Note_on_c, 0, 71, 0
2, 57604, Note_on_c, 0, 70, 83
2, 57633, Note_on_c, 0, 70, 0
2, 57657, Note_on_c, 0, 88, 82
2, 57659, Note_on_c, 0, 91, 77
2, 57665, Note_on_c, 0, 61, 77
2, 57665, Note_on_c, 0, 70, 80
2, 57680, Note_on_c, 0, 88, 0
2, 57685, Note_on_c, 0, 70, 0
2, 57688, Note_on_c, 0, 61, 0
2, 57714, Note_on_c, 0, 91, 0
2, 57719, Note_on_c, 0, 90, 84
2, 57742, Note_on_c, 0, 90, 0
2, 57757, Note_on_c, 0, 78, 77
2, 57757, Note_on_c, 0, 83, 82
2, 57757, Note_on_c, 0, 88, 82
2, 57757, Note_on_c, 0, 90, 77
2, 57781, Note_on_c, 0, 90, 0
2, 57781, Note_on_c, 0, 88, 0
2, 57807, Note_on_c, 0, 83, 0
2, 57807, Note_on_c, 0, 78, 0
2, 57813, Note_on_c, 0, 82, 80
2, 57840, Note_on_c, 0, 82, 0
2, 57876, Note_on_c, 0, 73, 77
2, 57876, Note_on_c, 0, 78, 83
2, 57876, Note_on_c, 0, 82, 81
2, 57876, Note_on_c, 0, 100, 83
2, 57876, Note_on_c, 0, 103, 77
2, 57902, Note_on_c, 0, 78, 0
2, 57902, Note_on_c, 0, 73, 0
2, 57908, Note_on_c, 0, 82, 0
2, 57931, Note_on_c, 0, 102, 84
2, 57933, Note_on_c, 0, 100, 0
2, 57933, Note_on_c, 0, 103, 0
2, 57954, Note_on_c, 0, 102, 0
2, 57983, Note_on_c, 0, 100, 81
2, 57983, Note_on_c, 0, 102, 78
2, 58010, Note_on_c, 0, 102, 0
2, 58010, Note_on_c, 0, 100, 0
2, 58138, Control_c, 0, 67, 127
2, 58166, Control_c, 0, 67, 0
2, 58187, Note_on_c, 0, 66, 77
2, 58187, Note_on_c, 0, 73, 77
2, 58189, Note_on_c, 0, 42, 78
2, 58189, Note_on_c, 0, 49, 77
2, 58189, Note_on_c, 0, 52, 77
2, 58189, Note_on_c, 0, 54, 83
2, 58189, Note_on_c, 0, 70, 83
2, 58189, Note_on_c, 0, 78, 81
2, 58209, Note_on_c, 0, 70, 0
2, 58209, Note_on_c, 0, 49, 0
2, 58209, Note_on_c, 0, 73, 0
2, 58209, Note_on_c, 0, 52, 0
2, 58214, Note_on_c, 0, 66, 0
2, 58214, Note_on_c, 0, 78, 0
2, 58214, Note_on_c, 0, 42, 0
2, 58214, Note_on_c, 0, 54, 0
2, 58464, Note_on_c, 0, 35, 81
2, 58464, Note_on_c, 0, 42, 77
2, 58464, Note_on_c, 0, 50, 77
2, 58469, Note_on_c, 0, 71, 82
2, 58469, Note_on_c, 0, 74, 77
2, 58469, Note_on_c, 0, 78, 84
2, 58471, Note_on_c, 0, 83, 83
2, 58902, Note_on_c, 0, 83, 0
2, 58902, Note_on_c, 0, 50, 0
2, 58902, Note_on_c, 0, 42, 0
2, 58902, Note_on_c, 0, 35, 0
2, 58902, Note_on_c, 0, 78, 0
2, 58905, Note_on_c, 0, 71, 0
2, 58905, Note_on_c, 0, 74, 0
2, 58905, End_track
3, 0, Start_track
3, 0, Title_t, "c/b Bizet-Rachmaninoff"
3, 0, End_track
4, 0, Start_track
4, 0, Title_t, "p/b Rachmaninoff"
4, 0, End_track
5, 0, Start_track
5, 0, Title_t, "Ampico # 61601"
5, 0, End_track
6, 0, Start_track
6, 0, Title_t, "Scan of a player piano roll"
6, 0, End_track
7, 0, Start_track
7, 0, Title_t, "by Terry Smythe, Winnipeg, Canada"
7, 0, End_track
0, 0, End_of_file
