0, 0, Header, 0, 1, 480
1, 0, Start_track
1, 0, Title_t, "Suite espagnole"
1, 0, Title_t, "Castilla"
1, 0, Copyright_t, "Copyright © 2001 by Bernd Krueger"
1, 0, Text_t, "Isaac Albeniz"
1, 0, Text_t, "Seguidillas"
1, 0, Text_t, "Fertiggestellt am 26.5.2001\012"
1, 0, Text_t, "Normierung: 23.12.2002\012"
1, 0, Text_t, "Update am 19.9.2010\012"
1, 0, Text_t, "Dauer:2:35 Minuten\012"
1, 0, SMPTE_offset, 96, 0, 3, 0, 0
1, 0, Time_signature, 3, 2, 24, 8
1, 0, Key_signature, 6, "major"
1, 0, Tempo, 357675
1, 0, Program_c, 0, 0
1, 0, Control_c, 0, 7, 100
1, 0, Control_c, 0, 10, 64
1, 0, Text_t, "bdca426d104a26ac9dcb070447587523"
1, 0, Control_c, 0, 91, 127
1, 0, Program_c, 0, 0
1, 0, Control_c, 0, 7, 100
1, 0, Control_c, 0, 10, 64
1, 0, Control_c, 0, 64, 0
1, 0, Note_on_c, 0, 61, 75
1, 106, Control_c, 0, 64, 127
1, 120, Note_on_c, 0, 61, 0
1, 240, Note_on_c, 0, 71, 42
1, 240, Note_on_c, 0, 68, 42
1, 240, Note_on_c, 0, 75, 51
1, 360, Note_on_c, 0, 75, 0
1, 360, Note_on_c, 0, 68, 0
1, 360, Note_on_c, 0, 71, 0
1, 360, Note_on_c, 0, 66, 51
1, 480, Tempo, 354129
1, 480, Note_on_c, 0, 66, 0
1, 480, Note_on_c, 0, 68, 72
1, 520, Tempo, 355303
1, 600, Note_on_c, 0, 68, 0
1, 720, Note_on_c, 0, 75, 51
1, 720, Note_on_c, 0, 71, 42
1, 720, Note_on_c, 0, 68, 42
1, 840, Note_on_c, 0, 68, 0
1, 840, Note_on_c, 0, 71, 0
1, 840, Note_on_c, 0, 75, 0
1, 840, Note_on_c, 0, 66, 51
1, 960, Tempo, 361272
1, 960, Note_on_c, 0, 66, 0
1, 960, Note_on_c, 0, 73, 72
1, 1080, Note_on_c, 0, 73, 0
1, 1200, Note_on_c, 0, 75, 51
1, 1200, Note_on_c, 0, 68, 42
1, 1200, Note_on_c, 0, 71, 42
1, 1320, Note_on_c, 0, 71, 0
1, 1320, Note_on_c, 0, 68, 0
1, 1320, Note_on_c, 0, 75, 0
1, 1320, Note_on_c, 0, 66, 51
1, 1440, Tempo, 357675
1, 1440, Note_on_c, 0, 66, 0
1, 1440, Note_on_c, 0, 80, 72
1, 1453, Control_c, 0, 64, 0
1, 1480, Tempo, 354129
1, 1525, Control_c, 0, 64, 127
1, 1560, Note_on_c, 0, 80, 0
1, 1680, Note_on_c, 0, 68, 44
1, 1680, Note_on_c, 0, 71, 44
1, 1680, Note_on_c, 0, 75, 52
1, 1800, Note_on_c, 0, 75, 0
1, 1800, Note_on_c, 0, 71, 0
1, 1800, Note_on_c, 0, 68, 0
1, 1800, Note_on_c, 0, 66, 52
1, 1920, Tempo, 358852
1, 1920, Note_on_c, 0, 66, 0
1, 1920, Note_on_c, 0, 73, 71
1, 2040, Note_on_c, 0, 73, 0
1, 2160, Note_on_c, 0, 68, 44
1, 2160, Note_on_c, 0, 75, 52
1, 2160, Note_on_c, 0, 71, 44
1, 2280, Note_on_c, 0, 71, 0
1, 2280, Note_on_c, 0, 75, 0
1, 2280, Note_on_c, 0, 68, 0
1, 2280, Note_on_c, 0, 66, 52
1, 2400, Tempo, 362494
1, 2400, Note_on_c, 0, 66, 0
1, 2400, Note_on_c, 0, 68, 71
1, 2520, Note_on_c, 0, 68, 0
1, 2640, Note_on_c, 0, 68, 44
1, 2640, Note_on_c, 0, 71, 44
1, 2640, Note_on_c, 0, 75, 52
1, 2760, Note_on_c, 0, 75, 0
1, 2760, Note_on_c, 0, 71, 0
1, 2760, Note_on_c, 0, 68, 0
1, 2760, Note_on_c, 0, 66, 52
1, 2880, Tempo, 356464
1, 2880, Note_on_c, 0, 66, 0
1, 2880, Note_on_c, 0, 61, 75
1, 2888, Control_c, 0, 64, 0
1, 2958, Control_c, 0, 64, 127
1, 3000, Note_on_c, 0, 61, 0
1, 3120, Note_on_c, 0, 77, 42
1, 3120, Note_on_c, 0, 83, 42
1, 3120, Note_on_c, 0, 87, 51
1, 3240, Note_on_c, 0, 87, 0
1, 3240, Note_on_c, 0, 83, 0
1, 3240, Note_on_c, 0, 77, 0
1, 3240, Note_on_c, 0, 85, 51
1, 3360, Tempo, 358852
1, 3360, Note_on_c, 0, 85, 0
1, 3360, Note_on_c, 0, 71, 45
1, 3360, Note_on_c, 0, 77, 64
1, 3360, Note_on_c, 0, 68, 45
1, 3480, Note_on_c, 0, 68, 0
1, 3480, Note_on_c, 0, 77, 0
1, 3480, Note_on_c, 0, 71, 0
1, 3600, Note_on_c, 0, 87, 51
1, 3600, Note_on_c, 0, 83, 42
1, 3600, Note_on_c, 0, 77, 42
1, 3720, Note_on_c, 0, 77, 0
1, 3720, Note_on_c, 0, 83, 0
1, 3720, Note_on_c, 0, 87, 0
1, 3720, Note_on_c, 0, 85, 51
1, 3840, Tempo, 362494
1, 3840, Note_on_c, 0, 85, 0
1, 3840, Note_on_c, 0, 61, 72
1, 3960, Note_on_c, 0, 61, 0
1, 4080, Note_on_c, 0, 87, 51
1, 4080, Note_on_c, 0, 83, 42
1, 4080, Note_on_c, 0, 77, 42
1, 4200, Note_on_c, 0, 77, 0
1, 4200, Note_on_c, 0, 83, 0
1, 4200, Note_on_c, 0, 87, 0
1, 4200, Note_on_c, 0, 85, 51
1, 4320, Tempo, 362582
1, 4320, Note_on_c, 0, 85, 0
1, 4320, Note_on_c, 0, 71, 45
1, 4320, Note_on_c, 0, 77, 68
1, 4320, Note_on_c, 0, 68, 45
1, 4328, Control_c, 0, 64, 0
1, 4405, Control_c, 0, 64, 127
1, 4440, Note_on_c, 0, 68, 0
1, 4440, Note_on_c, 0, 77, 0
1, 4440, Note_on_c, 0, 71, 0
1, 4560, Note_on_c, 0, 83, 44
1, 4560, Note_on_c, 0, 77, 44
1, 4560, Note_on_c, 0, 87, 52
1, 4680, Note_on_c, 0, 87, 0
1, 4680, Note_on_c, 0, 77, 0
1, 4680, Note_on_c, 0, 83, 0
1, 4680, Note_on_c, 0, 85, 52
1, 4800, Tempo, 368437
1, 4800, Note_on_c, 0, 85, 0
1, 4800, Note_on_c, 0, 61, 74
1, 4920, Note_on_c, 0, 61, 0
1, 5040, Note_on_c, 0, 87, 52
1, 5040, Note_on_c, 0, 83, 44
1, 5040, Note_on_c, 0, 77, 44
1, 5160, Note_on_c, 0, 77, 0
1, 5160, Note_on_c, 0, 83, 0
1, 5160, Note_on_c, 0, 87, 0
1, 5160, Note_on_c, 0, 85, 52
1, 5280, Tempo, 376979
1, 5280, Note_on_c, 0, 85, 0
1, 5280, Note_on_c, 0, 71, 45
1, 5280, Note_on_c, 0, 77, 67
1, 5280, Note_on_c, 0, 68, 45
1, 5400, Note_on_c, 0, 68, 0
1, 5400, Note_on_c, 0, 77, 0
1, 5400, Note_on_c, 0, 71, 0
1, 5520, Note_on_c, 0, 87, 52
1, 5520, Note_on_c, 0, 77, 44
1, 5520, Note_on_c, 0, 83, 44
1, 5640, Note_on_c, 0, 83, 0
1, 5640, Note_on_c, 0, 77, 0
1, 5640, Note_on_c, 0, 87, 0
1, 5640, Note_on_c, 0, 85, 52
1, 5760, Tempo, 334262
1, 5760, Note_on_c, 0, 85, 0
1, 5760, Control_c, 0, 64, 0
1, 5760, Note_on_c, 0, 54, 51
1, 5852, Control_c, 0, 64, 127
1, 5880, Note_on_c, 0, 54, 0
1, 6000, Tempo, 362494
1, 6000, Note_on_c, 0, 63, 35
1, 6000, Note_on_c, 0, 66, 35
1, 6000, Note_on_c, 0, 70, 35
1, 6120, Note_on_c, 0, 70, 0
1, 6120, Note_on_c, 0, 66, 0
1, 6120, Note_on_c, 0, 63, 0
1, 6120, Note_on_c, 0, 61, 35
1, 6238, Note_on_c, 0, 61, 0
1, 6240, Tempo, 340870
1, 6240, Note_on_c, 0, 61, 49
1, 6244, Control_c, 0, 64, 0
1, 6300, Note_on_c, 0, 61, 0
1, 6480, Tempo, 361424
1, 6480, Note_on_c, 0, 61, 35
1, 6480, Note_on_c, 0, 70, 35
1, 6480, Note_on_c, 0, 66, 35
1, 6491, Control_c, 0, 64, 127
1, 6540, Note_on_c, 0, 66, 0
1, 6540, Note_on_c, 0, 70, 0
1, 6540, Note_on_c, 0, 61, 0
1, 6614, Control_c, 0, 64, 0
1, 6720, Note_on_c, 0, 49, 49
1, 6780, Note_on_c, 0, 49, 0
1, 6960, Tempo, 367467
1, 6960, Note_on_c, 0, 70, 35
1, 6960, Note_on_c, 0, 66, 35
1, 6960, Note_on_c, 0, 61, 35
1, 6999, Control_c, 0, 64, 127
1, 7020, Note_on_c, 0, 61, 0
1, 7020, Note_on_c, 0, 66, 0
1, 7020, Note_on_c, 0, 70, 0
1, 7073, Control_c, 0, 64, 0
1, 7200, Tempo, 328138
1, 7200, Note_on_c, 0, 54, 51
1, 7260, Control_c, 0, 64, 127
1, 7320, Note_on_c, 0, 54, 0
1, 7440, Tempo, 362494
1, 7440, Note_on_c, 0, 70, 35
1, 7440, Note_on_c, 0, 66, 35
1, 7440, Note_on_c, 0, 63, 35
1, 7560, Note_on_c, 0, 63, 0
1, 7560, Note_on_c, 0, 66, 0
1, 7560, Note_on_c, 0, 70, 0
1, 7560, Note_on_c, 0, 61, 35
1, 7678, Note_on_c, 0, 61, 0
1, 7680, Tempo, 340870
1, 7680, Note_on_c, 0, 61, 49
1, 7686, Control_c, 0, 64, 0
1, 7740, Note_on_c, 0, 61, 0
1, 7920, Tempo, 361424
1, 7920, Note_on_c, 0, 70, 35
1, 7920, Note_on_c, 0, 61, 35
1, 7920, Note_on_c, 0, 66, 35
1, 7969, Control_c, 0, 64, 127
1, 7980, Note_on_c, 0, 66, 0
1, 7980, Note_on_c, 0, 61, 0
1, 7980, Note_on_c, 0, 70, 0
1, 8096, Control_c, 0, 64, 0
1, 8160, Note_on_c, 0, 49, 49
1, 8220, Note_on_c, 0, 49, 0
1, 8400, Note_on_c, 0, 61, 35
1, 8400, Note_on_c, 0, 66, 35
1, 8400, Note_on_c, 0, 70, 35
1, 8428, Control_c, 0, 64, 127
1, 8460, Note_on_c, 0, 70, 0
1, 8460, Note_on_c, 0, 66, 0
1, 8460, Note_on_c, 0, 61, 0
1, 8541, Control_c, 0, 64, 0
1, 8640, Note_on_c, 0, 56, 51
1, 8691, Control_c, 0, 64, 127
1, 8760, Note_on_c, 0, 56, 0
1, 8880, Tempo, 357675
1, 8880, Note_on_c, 0, 71, 35
1, 8880, Note_on_c, 0, 65, 35
1, 8880, Note_on_c, 0, 63, 35
1, 9000, Note_on_c, 0, 63, 0
1, 9000, Note_on_c, 0, 65, 0
1, 9000, Note_on_c, 0, 71, 0
1, 9000, Note_on_c, 0, 61, 35
1, 9040, Tempo, 356464
1, 9118, Note_on_c, 0, 61, 0
1, 9120, Note_on_c, 0, 61, 51
1, 9160, Tempo, 355303
1, 9280, Tempo, 354129
1, 9360, Note_on_c, 0, 65, 36
1, 9360, Note_on_c, 0, 63, 36
1, 9360, Note_on_c, 0, 71, 36
1, 9440, Tempo, 352962
1, 9470, Note_on_c, 0, 61, 0
1, 9480, Note_on_c, 0, 65, 0
1, 9480, Note_on_c, 0, 63, 0
1, 9480, Note_on_c, 0, 71, 0
1, 9480, Note_on_c, 0, 61, 36
1, 9560, Tempo, 351803
1, 9600, Note_on_c, 0, 61, 0
1, 9600, Note_on_c, 0, 63, 55
1, 9680, Tempo, 350672
1, 9800, Tempo, 349508
1, 9830, Note_on_c, 0, 63, 0
1, 9840, Tempo, 370005
1, 9840, Note_on_c, 0, 71, 38
1, 9840, Note_on_c, 0, 65, 38
1, 9840, Note_on_c, 0, 63, 38
1, 9960, Note_on_c, 0, 63, 0
1, 9960, Note_on_c, 0, 65, 0
1, 9960, Note_on_c, 0, 71, 0
1, 9960, Note_on_c, 0, 61, 38
1, 10080, Tempo, 357675
1, 10080, Note_on_c, 0, 61, 0
1, 10080, Note_on_c, 0, 65, 58
1, 10089, Control_c, 0, 64, 0
1, 10162, Control_c, 0, 64, 127
1, 10310, Note_on_c, 0, 65, 0
1, 10320, Note_on_c, 0, 71, 39
1, 10320, Note_on_c, 0, 63, 39
1, 10320, Note_on_c, 0, 65, 39
1, 10440, Note_on_c, 0, 65, 0
1, 10440, Note_on_c, 0, 63, 0
1, 10440, Note_on_c, 0, 71, 0
1, 10440, Note_on_c, 0, 61, 39
1, 10560, Tempo, 363702
1, 10560, Note_on_c, 0, 61, 0
1, 10560, Note_on_c, 0, 68, 61
1, 10800, Note_on_c, 0, 68, 0
1, 10800, Note_on_c, 0, 63, 41
1, 10800, Note_on_c, 0, 65, 41
1, 10800, Note_on_c, 0, 71, 41
1, 10920, Note_on_c, 0, 71, 0
1, 10920, Note_on_c, 0, 65, 0
1, 10920, Note_on_c, 0, 63, 0
1, 10920, Note_on_c, 0, 61, 42
1, 11038, Note_on_c, 0, 61, 0
1, 11040, Note_on_c, 0, 61, 58
1, 11280, Tempo, 367467
1, 11280, Note_on_c, 0, 63, 43
1, 11280, Note_on_c, 0, 71, 43
1, 11280, Note_on_c, 0, 65, 43
1, 11390, Note_on_c, 0, 61, 0
1, 11400, Note_on_c, 0, 63, 0
1, 11400, Note_on_c, 0, 71, 0
1, 11400, Note_on_c, 0, 65, 0
1, 11400, Note_on_c, 0, 61, 44
1, 11520, Tempo, 337401
1, 11520, Note_on_c, 0, 61, 0
1, 11520, Note_on_c, 0, 54, 51
1, 11523, Control_c, 0, 64, 0
1, 11612, Control_c, 0, 64, 127
1, 11640, Note_on_c, 0, 54, 0
1, 11760, Tempo, 362494
1, 11760, Note_on_c, 0, 63, 35
1, 11760, Note_on_c, 0, 66, 35
1, 11760, Note_on_c, 0, 70, 35
1, 11880, Note_on_c, 0, 70, 0
1, 11880, Note_on_c, 0, 66, 0
1, 11880, Note_on_c, 0, 63, 0
1, 11880, Note_on_c, 0, 61, 35
1, 11998, Note_on_c, 0, 61, 0
1, 12000, Tempo, 342916
1, 12000, Note_on_c, 0, 61, 49
1, 12010, Control_c, 0, 64, 0
1, 12060, Note_on_c, 0, 61, 0
1, 12240, Tempo, 361424
1, 12240, Note_on_c, 0, 61, 35
1, 12240, Note_on_c, 0, 66, 35
1, 12240, Note_on_c, 0, 70, 35
1, 12279, Control_c, 0, 64, 127
1, 12300, Note_on_c, 0, 70, 0
1, 12300, Note_on_c, 0, 66, 0
1, 12300, Note_on_c, 0, 61, 0
1, 12434, Control_c, 0, 64, 0
1, 12480, Note_on_c, 0, 49, 49
1, 12540, Note_on_c, 0, 49, 0
1, 12720, Tempo, 368732
1, 12720, Note_on_c, 0, 66, 35
1, 12720, Note_on_c, 0, 61, 35
1, 12720, Note_on_c, 0, 70, 35
1, 12752, Control_c, 0, 64, 127
1, 12780, Note_on_c, 0, 70, 0
1, 12780, Note_on_c, 0, 61, 0
1, 12780, Note_on_c, 0, 66, 0
1, 12875, Control_c, 0, 64, 0
1, 12960, Tempo, 334262
1, 12960, Note_on_c, 0, 54, 51
1, 13002, Control_c, 0, 64, 127
1, 13080, Note_on_c, 0, 54, 0
1, 13200, Tempo, 362494
1, 13200, Note_on_c, 0, 63, 35
1, 13200, Note_on_c, 0, 66, 35
1, 13200, Note_on_c, 0, 70, 35
1, 13320, Note_on_c, 0, 70, 0
1, 13320, Note_on_c, 0, 66, 0
1, 13320, Note_on_c, 0, 63, 0
1, 13320, Note_on_c, 0, 61, 35
1, 13438, Note_on_c, 0, 61, 0
1, 13440, Tempo, 342916
1, 13440, Note_on_c, 0, 61, 49
1, 13446, Control_c, 0, 64, 0
1, 13500, Note_on_c, 0, 61, 0
1, 13680, Tempo, 361424
1, 13680, Note_on_c, 0, 61, 35
1, 13680, Note_on_c, 0, 70, 35
1, 13680, Note_on_c, 0, 66, 35
1, 13705, Control_c, 0, 64, 127
1, 13740, Note_on_c, 0, 66, 0
1, 13740, Note_on_c, 0, 70, 0
1, 13740, Note_on_c, 0, 61, 0
1, 13864, Control_c, 0, 64, 0
1, 13920, Note_on_c, 0, 49, 49
1, 13980, Note_on_c, 0, 49, 0
1, 14160, Note_on_c, 0, 70, 35
1, 14160, Note_on_c, 0, 66, 35
1, 14160, Note_on_c, 0, 61, 35
1, 14202, Control_c, 0, 64, 127
1, 14220, Note_on_c, 0, 61, 0
1, 14220, Note_on_c, 0, 66, 0
1, 14220, Note_on_c, 0, 70, 0
1, 14329, Control_c, 0, 64, 0
1, 14400, Tempo, 363702
1, 14400, Note_on_c, 0, 56, 51
1, 14457, Control_c, 0, 64, 127
1, 14520, Note_on_c, 0, 56, 0
1, 14640, Tempo, 362494
1, 14640, Note_on_c, 0, 71, 35
1, 14640, Note_on_c, 0, 65, 35
1, 14640, Note_on_c, 0, 63, 35
1, 14760, Note_on_c, 0, 63, 0
1, 14760, Note_on_c, 0, 65, 0
1, 14760, Note_on_c, 0, 71, 0
1, 14760, Note_on_c, 0, 61, 35
1, 14880, Tempo, 357675
1, 14880, Note_on_c, 0, 61, 0
1, 14880, Note_on_c, 0, 61, 51
1, 15000, Tempo, 356464
1, 15080, Tempo, 355303
1, 15120, Note_on_c, 0, 71, 36
1, 15120, Note_on_c, 0, 63, 36
1, 15120, Note_on_c, 0, 65, 36
1, 15160, Tempo, 354129
1, 15230, Note_on_c, 0, 61, 0
1, 15240, Tempo, 352962
1, 15240, Note_on_c, 0, 71, 0
1, 15240, Note_on_c, 0, 63, 0
1, 15240, Note_on_c, 0, 65, 0
1, 15240, Note_on_c, 0, 61, 36
1, 15320, Tempo, 351803
1, 15360, Note_on_c, 0, 61, 0
1, 15360, Note_on_c, 0, 63, 55
1, 15400, Tempo, 350672
1, 15480, Tempo, 349508
1, 15560, Tempo, 348392
1, 15590, Note_on_c, 0, 63, 0
1, 15600, Tempo, 371264
1, 15600, Note_on_c, 0, 63, 38
1, 15600, Note_on_c, 0, 65, 38
1, 15600, Note_on_c, 0, 71, 38
1, 15720, Note_on_c, 0, 71, 0
1, 15720, Note_on_c, 0, 65, 0
1, 15720, Note_on_c, 0, 63, 0
1, 15720, Note_on_c, 0, 61, 38
1, 15840, Tempo, 363702
1, 15840, Note_on_c, 0, 61, 0
1, 15840, Note_on_c, 0, 65, 58
1, 15941, Control_c, 0, 64, 0
1, 16011, Control_c, 0, 64, 127
1, 16070, Note_on_c, 0, 65, 0
1, 16080, Note_on_c, 0, 63, 39
1, 16080, Note_on_c, 0, 71, 39
1, 16080, Note_on_c, 0, 65, 39
1, 16200, Note_on_c, 0, 65, 0
1, 16200, Note_on_c, 0, 71, 0
1, 16200, Note_on_c, 0, 63, 0
1, 16200, Note_on_c, 0, 61, 39
1, 16320, Note_on_c, 0, 61, 0
1, 16320, Note_on_c, 0, 68, 61
1, 16560, Note_on_c, 0, 63, 41
1, 16560, Note_on_c, 0, 65, 41
1, 16560, Note_on_c, 0, 71, 41
1, 16680, Note_on_c, 0, 71, 0
1, 16680, Note_on_c, 0, 65, 0
1, 16680, Note_on_c, 0, 63, 0
1, 16680, Note_on_c, 0, 61, 42
1, 16800, Tempo, 368732
1, 16800, Note_on_c, 0, 61, 0
1, 16800, Note_on_c, 0, 68, 0
1, 16800, Note_on_c, 0, 61, 58
1, 17040, Note_on_c, 0, 63, 43
1, 17040, Note_on_c, 0, 65, 43
1, 17040, Note_on_c, 0, 71, 43
1, 17150, Note_on_c, 0, 61, 0
1, 17160, Note_on_c, 0, 63, 0
1, 17160, Note_on_c, 0, 65, 0
1, 17160, Note_on_c, 0, 71, 0
1, 17160, Note_on_c, 0, 61, 44
1, 17280, Tempo, 363702
1, 17280, Note_on_c, 0, 61, 0
1, 17280, Note_on_c, 0, 61, 58
1, 17280, Note_on_c, 0, 66, 58
1, 17280, Note_on_c, 0, 54, 54
1, 17280, Note_on_c, 0, 58, 54
1, 17280, Control_c, 0, 64, 0
1, 17400, Control_c, 0, 64, 127
1, 17640, Note_on_c, 0, 58, 0
1, 17640, Note_on_c, 0, 61, 0
1, 17640, Note_on_c, 0, 66, 0
1, 17640, Note_on_c, 0, 54, 0
1, 17640, Note_on_c, 0, 66, 55
1, 17640, Note_on_c, 0, 70, 55
1, 17640, Note_on_c, 0, 61, 50
1, 17760, Tempo, 361272
1, 17760, Note_on_c, 0, 61, 0
1, 17760, Note_on_c, 0, 70, 0
1, 17760, Note_on_c, 0, 66, 0
1, 17760, Note_on_c, 0, 70, 57
1, 17760, Note_on_c, 0, 73, 57
1, 17760, Note_on_c, 0, 66, 50
1, 17781, Control_c, 0, 64, 0
1, 17840, Tempo, 362494
1, 17880, Note_on_c, 0, 66, 0
1, 17880, Note_on_c, 0, 73, 0
1, 17880, Note_on_c, 0, 70, 0
1, 17920, Tempo, 363702
1, 17960, Tempo, 364986
1, 18000, Note_on_c, 0, 73, 61
1, 18000, Note_on_c, 0, 78, 61
1, 18000, Note_on_c, 0, 70, 54
1, 18040, Tempo, 366211
1, 18080, Tempo, 367467
1, 18120, Note_on_c, 0, 70, 0
1, 18120, Note_on_c, 0, 78, 0
1, 18120, Note_on_c, 0, 73, 0
1, 18160, Tempo, 368732
1, 18240, Tempo, 370005
1, 18240, Note_on_c, 0, 78, 66
1, 18240, Note_on_c, 0, 82, 66
1, 18240, Note_on_c, 0, 73, 56
1, 18280, Tempo, 371264
1, 18360, Tempo, 372578
1, 18360, Note_on_c, 0, 73, 0
1, 18360, Note_on_c, 0, 82, 0
1, 18360, Note_on_c, 0, 78, 0
1, 18400, Tempo, 373855
1, 18480, Tempo, 375164
1, 18480, Note_on_c, 0, 85, 63
1, 18480, Note_on_c, 0, 82, 63
1, 18480, Note_on_c, 0, 78, 54
1, 18560, Tempo, 376506
1, 18600, Tempo, 377810
1, 18600, Note_on_c, 0, 78, 0
1, 18600, Note_on_c, 0, 82, 0
1, 18600, Note_on_c, 0, 85, 0
1, 18680, Tempo, 379171
1, 18720, Tempo, 380493
1, 18720, Note_on_c, 0, 90, 76
1, 18720, Note_on_c, 0, 85, 76
1, 18720, Note_on_c, 0, 82, 63
1, 18840, Note_on_c, 0, 82, 0
1, 18960, Note_on_c, 0, 85, 0
1, 18960, Note_on_c, 0, 90, 0
1, 19133, Control_c, 0, 64, 127
1, 19140, Note_on_c, 0, 42, 58
1, 19170, Note_on_c, 0, 49, 61
1, 19200, Note_on_c, 0, 102, 85
1, 19200, Note_on_c, 0, 97, 85
1, 19200, Note_on_c, 0, 90, 85
1, 19200, Note_on_c, 0, 58, 70
1, 19680, Note_on_c, 0, 58, 0
1, 19680, Note_on_c, 0, 49, 0
1, 19680, Note_on_c, 0, 102, 0
1, 19680, Note_on_c, 0, 42, 0
1, 19680, Note_on_c, 0, 90, 0
1, 19680, Note_on_c, 0, 97, 0
1, 19681, Tempo, 403714
1, 19684, Control_c, 0, 64, 0
1, 20160, Tempo, 460936
1, 20160, Note_on_c, 0, 78, 67
1, 20160, Note_on_c, 0, 90, 67
1, 20160, Note_on_c, 0, 66, 53
1, 20192, Control_c, 0, 64, 127
1, 20400, Tempo, 400882
1, 20400, Note_on_c, 0, 66, 0
1, 20400, Note_on_c, 0, 90, 0
1, 20400, Note_on_c, 0, 78, 0
1, 20400, Note_on_c, 0, 92, 69
1, 20400, Note_on_c, 0, 80, 69
1, 20400, Note_on_c, 0, 68, 55
1, 20640, Tempo, 411015
1, 20640, Note_on_c, 0, 68, 0
1, 20640, Note_on_c, 0, 80, 0
1, 20640, Note_on_c, 0, 92, 0
1, 20640, Note_on_c, 0, 82, 71
1, 20640, Note_on_c, 0, 94, 71
1, 20640, Note_on_c, 0, 70, 56
1, 20649, Control_c, 0, 64, 0
1, 20736, Control_c, 0, 64, 127
1, 21092, Control_c, 0, 64, 0
1, 21120, Tempo, 374508
1, 21120, Note_on_c, 0, 70, 0
1, 21120, Note_on_c, 0, 94, 0
1, 21120, Note_on_c, 0, 82, 0
1, 21120, Note_on_c, 0, 80, 68
1, 21120, Note_on_c, 0, 92, 68
1, 21120, Note_on_c, 0, 68, 54
1, 21148, Control_c, 0, 64, 127
1, 21360, Tempo, 388576
1, 21360, Note_on_c, 0, 68, 0
1, 21360, Note_on_c, 0, 92, 0
1, 21360, Note_on_c, 0, 80, 0
1, 21360, Note_on_c, 0, 90, 65
1, 21360, Note_on_c, 0, 78, 65
1, 21360, Note_on_c, 0, 66, 50
1, 21480, Note_on_c, 0, 80, 53
1, 21480, Note_on_c, 0, 92, 53
1, 21496, Control_c, 0, 64, 0
1, 21526, Control_c, 0, 64, 127
1, 21540, Note_on_c, 0, 92, 0
1, 21540, Note_on_c, 0, 78, 0
1, 21540, Note_on_c, 0, 90, 0
1, 21540, Note_on_c, 0, 80, 0
1, 21540, Note_on_c, 0, 82, 53
1, 21540, Note_on_c, 0, 94, 53
1, 21600, Tempo, 389914
1, 21600, Note_on_c, 0, 94, 0
1, 21600, Note_on_c, 0, 82, 0
1, 21600, Note_on_c, 0, 66, 0
1, 21600, Note_on_c, 0, 92, 68
1, 21600, Note_on_c, 0, 80, 68
1, 21600, Note_on_c, 0, 68, 56
1, 21619, Control_c, 0, 64, 0
1, 21769, Control_c, 0, 64, 127
1, 22080, Tempo, 375752
1, 22080, Note_on_c, 0, 68, 0
1, 22080, Note_on_c, 0, 80, 0
1, 22080, Note_on_c, 0, 92, 0
1, 22080, Note_on_c, 0, 78, 59
1, 22080, Note_on_c, 0, 90, 59
1, 22080, Note_on_c, 0, 66, 54
1, 22088, Control_c, 0, 64, 0
1, 22193, Control_c, 0, 64, 127
1, 22320, Tempo, 391236
1, 22320, Note_on_c, 0, 66, 0
1, 22320, Note_on_c, 0, 90, 0
1, 22320, Note_on_c, 0, 78, 0
1, 22320, Note_on_c, 0, 87, 57
1, 22320, Note_on_c, 0, 75, 57
1, 22320, Note_on_c, 0, 63, 50
1, 22560, Tempo, 409556
1, 22560, Note_on_c, 0, 63, 0
1, 22560, Note_on_c, 0, 75, 0
1, 22560, Note_on_c, 0, 87, 0
1, 22560, Note_on_c, 0, 73, 55
1, 22560, Note_on_c, 0, 85, 55
1, 22560, Note_on_c, 0, 61, 47
1, 22571, Control_c, 0, 64, 0
1, 22673, Control_c, 0, 64, 127
1, 23040, Tempo, 402307
1, 23040, Note_on_c, 0, 61, 0
1, 23040, Note_on_c, 0, 85, 0
1, 23040, Note_on_c, 0, 73, 0
1, 23040, Note_on_c, 0, 68, 62
1, 23040, Note_on_c, 0, 80, 62
1, 23040, Note_on_c, 0, 74, 62
1, 23040, Note_on_c, 0, 59, 59
1, 23040, Note_on_c, 0, 66, 59
1, 23046, Control_c, 0, 64, 0
1, 23167, Control_c, 0, 64, 127
1, 23280, Tempo, 388576
1, 23280, Note_on_c, 0, 80, 0
1, 23280, Note_on_c, 0, 68, 0
1, 23280, Note_on_c, 0, 82, 64
1, 23280, Note_on_c, 0, 70, 64
1, 23520, Tempo, 402307
1, 23520, Note_on_c, 0, 70, 0
1, 23520, Note_on_c, 0, 59, 0
1, 23520, Note_on_c, 0, 66, 0
1, 23520, Note_on_c, 0, 74, 0
1, 23520, Note_on_c, 0, 82, 0
1, 23520, Note_on_c, 0, 71, 66
1, 23520, Note_on_c, 0, 74, 66
1, 23520, Note_on_c, 0, 83, 66
1, 23520, Note_on_c, 0, 56, 56
1, 23520, Note_on_c, 0, 66, 56
1, 23539, Control_c, 0, 64, 0
1, 23619, Control_c, 0, 64, 127
1, 23940, Note_on_c, 0, 66, 0
1, 23940, Note_on_c, 0, 56, 0
1, 23940, Note_on_c, 0, 49, 42
1, 23970, Note_on_c, 0, 59, 43
1, 24000, Tempo, 411015
1, 24000, Note_on_c, 0, 71, 0
1, 24000, Note_on_c, 0, 83, 0
1, 24000, Note_on_c, 0, 74, 0
1, 24000, Note_on_c, 0, 73, 59
1, 24000, Note_on_c, 0, 80, 59
1, 24000, Note_on_c, 0, 68, 59
1, 24000, Note_on_c, 0, 65, 54
1, 24016, Control_c, 0, 64, 0
1, 24127, Control_c, 0, 64, 127
1, 24240, Tempo, 439593
1, 24240, Note_on_c, 0, 68, 0
1, 24240, Note_on_c, 0, 80, 0
1, 24240, Note_on_c, 0, 82, 53
1, 24240, Note_on_c, 0, 70, 53
1, 24480, Tempo, 417043
1, 24480, Note_on_c, 0, 70, 0
1, 24480, Note_on_c, 0, 65, 0
1, 24480, Note_on_c, 0, 49, 0
1, 24480, Note_on_c, 0, 59, 0
1, 24480, Note_on_c, 0, 82, 0
1, 24480, Note_on_c, 0, 73, 0
1, 24480, Note_on_c, 0, 78, 62
1, 24480, Note_on_c, 0, 70, 62
1, 24480, Note_on_c, 0, 66, 62
1, 24480, Note_on_c, 0, 54, 54
1, 24480, Note_on_c, 0, 61, 54
1, 24480, Control_c, 0, 64, 0
1, 24586, Control_c, 0, 64, 127
1, 24720, Tempo, 362494
1, 24720, Note_on_c, 0, 66, 0
1, 24720, Note_on_c, 0, 78, 0
1, 24720, Note_on_c, 0, 70, 0
1, 24720, Note_on_c, 0, 63, 35
1, 24720, Note_on_c, 0, 66, 35
1, 24720, Note_on_c, 0, 70, 35
1, 24730, Control_c, 0, 64, 0
1, 24773, Control_c, 0, 64, 127
1, 24840, Note_on_c, 0, 70, 0
1, 24840, Note_on_c, 0, 63, 0
1, 24840, Note_on_c, 0, 66, 0
1, 24840, Note_on_c, 0, 61, 35
1, 24957, Control_c, 0, 64, 0
1, 24960, Tempo, 339866
1, 24960, Note_on_c, 0, 61, 0
1, 24960, Note_on_c, 0, 54, 0
1, 24960, Note_on_c, 0, 61, 0
1, 24960, Note_on_c, 0, 61, 49
1, 25020, Note_on_c, 0, 61, 0
1, 25200, Tempo, 361424
1, 25200, Note_on_c, 0, 61, 35
1, 25200, Note_on_c, 0, 66, 35
1, 25200, Note_on_c, 0, 70, 35
1, 25211, Control_c, 0, 64, 127
1, 25260, Note_on_c, 0, 70, 0
1, 25260, Note_on_c, 0, 66, 0
1, 25260, Note_on_c, 0, 61, 0
1, 25334, Control_c, 0, 64, 0
1, 25440, Note_on_c, 0, 49, 49
1, 25500, Note_on_c, 0, 49, 0
1, 25680, Tempo, 367467
1, 25680, Note_on_c, 0, 66, 35
1, 25680, Note_on_c, 0, 61, 35
1, 25680, Note_on_c, 0, 70, 35
1, 25719, Control_c, 0, 64, 127
1, 25740, Note_on_c, 0, 70, 0
1, 25740, Note_on_c, 0, 61, 0
1, 25740, Note_on_c, 0, 66, 0
1, 25793, Control_c, 0, 64, 0
1, 25920, Tempo, 328138
1, 25920, Note_on_c, 0, 54, 51
1, 25955, Control_c, 0, 64, 127
1, 26040, Note_on_c, 0, 54, 0
1, 26160, Tempo, 362494
1, 26160, Note_on_c, 0, 63, 35
1, 26160, Note_on_c, 0, 66, 35
1, 26160, Note_on_c, 0, 70, 35
1, 26280, Note_on_c, 0, 70, 0
1, 26280, Note_on_c, 0, 66, 0
1, 26280, Note_on_c, 0, 63, 0
1, 26280, Note_on_c, 0, 61, 35
1, 26398, Note_on_c, 0, 61, 0
1, 26400, Tempo, 342916
1, 26400, Note_on_c, 0, 61, 49
1, 26402, Control_c, 0, 64, 0
1, 26460, Note_on_c, 0, 61, 0
1, 26640, Tempo, 361424
1, 26640, Note_on_c, 0, 61, 35
1, 26640, Note_on_c, 0, 70, 35
1, 26640, Note_on_c, 0, 66, 35
1, 26689, Control_c, 0, 64, 127
1, 26700, Note_on_c, 0, 66, 0
1, 26700, Note_on_c, 0, 70, 0
1, 26700, Note_on_c, 0, 61, 0
1, 26816, Control_c, 0, 64, 0
1, 26880, Note_on_c, 0, 49, 49
1, 26940, Note_on_c, 0, 49, 0
1, 27120, Note_on_c, 0, 70, 35
1, 27120, Note_on_c, 0, 66, 35
1, 27120, Note_on_c, 0, 61, 35
1, 27148, Control_c, 0, 64, 127
1, 27180, Note_on_c, 0, 61, 0
1, 27180, Note_on_c, 0, 66, 0
1, 27180, Note_on_c, 0, 70, 0
1, 27261, Control_c, 0, 64, 0
1, 27360, Note_on_c, 0, 56, 51
1, 27411, Control_c, 0, 64, 127
1, 27480, Note_on_c, 0, 56, 0
1, 27600, Tempo, 357675
1, 27600, Note_on_c, 0, 71, 35
1, 27600, Note_on_c, 0, 65, 35
1, 27600, Note_on_c, 0, 63, 35
1, 27720, Note_on_c, 0, 63, 0
1, 27720, Note_on_c, 0, 65, 0
1, 27720, Note_on_c, 0, 71, 0
1, 27720, Note_on_c, 0, 61, 35
1, 27760, Tempo, 356464
1, 27840, Note_on_c, 0, 61, 0
1, 27840, Note_on_c, 0, 61, 51
1, 27880, Tempo, 355303
1, 28000, Tempo, 354129
1, 28080, Note_on_c, 0, 71, 36
1, 28080, Note_on_c, 0, 63, 36
1, 28080, Note_on_c, 0, 65, 36
1, 28160, Tempo, 352962
1, 28190, Note_on_c, 0, 61, 0
1, 28200, Note_on_c, 0, 71, 0
1, 28200, Note_on_c, 0, 63, 0
1, 28200, Note_on_c, 0, 65, 0
1, 28200, Note_on_c, 0, 61, 36
1, 28280, Tempo, 351803
1, 28320, Note_on_c, 0, 61, 0
1, 28320, Note_on_c, 0, 63, 55
1, 28400, Tempo, 350672
1, 28520, Tempo, 349508
1, 28550, Note_on_c, 0, 63, 0
1, 28560, Tempo, 370005
1, 28560, Note_on_c, 0, 63, 38
1, 28560, Note_on_c, 0, 65, 38
1, 28560, Note_on_c, 0, 71, 38
1, 28680, Note_on_c, 0, 71, 0
1, 28680, Note_on_c, 0, 65, 0
1, 28680, Note_on_c, 0, 63, 0
1, 28680, Note_on_c, 0, 61, 38
1, 28800, Tempo, 357675
1, 28800, Note_on_c, 0, 61, 0
1, 28800, Note_on_c, 0, 65, 58
1, 28807, Control_c, 0, 64, 0
1, 28889, Control_c, 0, 64, 127
1, 29030, Note_on_c, 0, 65, 0
1, 29040, Note_on_c, 0, 63, 39
1, 29040, Note_on_c, 0, 71, 39
1, 29040, Note_on_c, 0, 65, 39
1, 29160, Note_on_c, 0, 65, 0
1, 29160, Note_on_c, 0, 71, 0
1, 29160, Note_on_c, 0, 63, 0
1, 29160, Note_on_c, 0, 61, 39
1, 29280, Tempo, 363702
1, 29280, Note_on_c, 0, 61, 0
1, 29280, Note_on_c, 0, 68, 61
1, 29520, Note_on_c, 0, 63, 41
1, 29520, Note_on_c, 0, 65, 41
1, 29520, Note_on_c, 0, 71, 41
1, 29640, Note_on_c, 0, 71, 0
1, 29640, Note_on_c, 0, 65, 0
1, 29640, Note_on_c, 0, 63, 0
1, 29640, Note_on_c, 0, 61, 42
1, 29760, Note_on_c, 0, 61, 0
1, 29760, Note_on_c, 0, 68, 0
1, 29760, Note_on_c, 0, 61, 58
1, 30000, Tempo, 367467
1, 30000, Note_on_c, 0, 63, 43
1, 30000, Note_on_c, 0, 65, 43
1, 30000, Note_on_c, 0, 71, 43
1, 30110, Note_on_c, 0, 61, 0
1, 30120, Note_on_c, 0, 63, 0
1, 30120, Note_on_c, 0, 65, 0
1, 30120, Note_on_c, 0, 71, 0
1, 30120, Note_on_c, 0, 61, 44
1, 30240, Tempo, 337401
1, 30240, Note_on_c, 0, 61, 0
1, 30240, Note_on_c, 0, 54, 51
1, 30245, Control_c, 0, 64, 0
1, 30328, Control_c, 0, 64, 127
1, 30360, Note_on_c, 0, 54, 0
1, 30480, Tempo, 362494
1, 30480, Note_on_c, 0, 70, 35
1, 30480, Note_on_c, 0, 66, 35
1, 30480, Note_on_c, 0, 63, 35
1, 30600, Note_on_c, 0, 63, 0
1, 30600, Note_on_c, 0, 66, 0
1, 30600, Note_on_c, 0, 70, 0
1, 30600, Note_on_c, 0, 61, 35
1, 30718, Note_on_c, 0, 61, 0
1, 30720, Tempo, 342916
1, 30720, Note_on_c, 0, 61, 49
1, 30731, Control_c, 0, 64, 0
1, 30780, Note_on_c, 0, 61, 0
1, 30960, Tempo, 361424
1, 30960, Note_on_c, 0, 70, 35
1, 30960, Note_on_c, 0, 66, 35
1, 30960, Note_on_c, 0, 61, 35
1, 30995, Control_c, 0, 64, 127
1, 31020, Note_on_c, 0, 61, 0
1, 31020, Note_on_c, 0, 66, 0
1, 31020, Note_on_c, 0, 70, 0
1, 31154, Control_c, 0, 64, 0
1, 31200, Note_on_c, 0, 49, 49
1, 31260, Note_on_c, 0, 49, 0
1, 31440, Tempo, 368732
1, 31440, Note_on_c, 0, 70, 35
1, 31440, Note_on_c, 0, 61, 35
1, 31440, Note_on_c, 0, 66, 35
1, 31472, Control_c, 0, 64, 127
1, 31500, Note_on_c, 0, 66, 0
1, 31500, Note_on_c, 0, 61, 0
1, 31500, Note_on_c, 0, 70, 0
1, 31595, Control_c, 0, 64, 0
1, 31680, Tempo, 334262
1, 31680, Note_on_c, 0, 54, 51
1, 31719, Control_c, 0, 64, 127
1, 31800, Note_on_c, 0, 54, 0
1, 31920, Tempo, 362494
1, 31920, Note_on_c, 0, 63, 35
1, 31920, Note_on_c, 0, 66, 35
1, 31920, Note_on_c, 0, 70, 35
1, 32040, Note_on_c, 0, 70, 0
1, 32040, Note_on_c, 0, 66, 0
1, 32040, Note_on_c, 0, 63, 0
1, 32040, Note_on_c, 0, 61, 35
1, 32158, Note_on_c, 0, 61, 0
1, 32160, Tempo, 346041
1, 32160, Note_on_c, 0, 61, 49
1, 32164, Control_c, 0, 64, 0
1, 32220, Note_on_c, 0, 61, 0
1, 32400, Note_on_c, 0, 61, 35
1, 32400, Note_on_c, 0, 66, 35
1, 32400, Note_on_c, 0, 70, 35
1, 32421, Control_c, 0, 64, 127
1, 32440, Tempo, 361424
1, 32460, Note_on_c, 0, 70, 0
1, 32460, Note_on_c, 0, 66, 0
1, 32460, Note_on_c, 0, 61, 0
1, 32584, Control_c, 0, 64, 0
1, 32640, Note_on_c, 0, 49, 49
1, 32700, Note_on_c, 0, 49, 0
1, 32880, Note_on_c, 0, 66, 35
1, 32880, Note_on_c, 0, 61, 35
1, 32880, Note_on_c, 0, 70, 35
1, 32905, Control_c, 0, 64, 127
1, 32940, Note_on_c, 0, 70, 0
1, 32940, Note_on_c, 0, 61, 0
1, 32940, Note_on_c, 0, 66, 0
1, 33049, Control_c, 0, 64, 0
1, 33120, Tempo, 363702
1, 33120, Note_on_c, 0, 56, 51
1, 33189, Control_c, 0, 64, 127
1, 33240, Note_on_c, 0, 56, 0
1, 33360, Tempo, 362494
1, 33360, Note_on_c, 0, 63, 35
1, 33360, Note_on_c, 0, 65, 35
1, 33360, Note_on_c, 0, 71, 35
1, 33480, Note_on_c, 0, 71, 0
1, 33480, Note_on_c, 0, 65, 0
1, 33480, Note_on_c, 0, 63, 0
1, 33480, Note_on_c, 0, 61, 35
1, 33600, Tempo, 357675
1, 33600, Note_on_c, 0, 61, 0
1, 33600, Note_on_c, 0, 61, 51
1, 33720, Tempo, 356464
1, 33800, Tempo, 355303
1, 33840, Note_on_c, 0, 63, 36
1, 33840, Note_on_c, 0, 71, 36
1, 33840, Note_on_c, 0, 65, 36
1, 33880, Tempo, 354129
1, 33950, Note_on_c, 0, 61, 0
1, 33960, Tempo, 352962
1, 33960, Note_on_c, 0, 63, 0
1, 33960, Note_on_c, 0, 71, 0
1, 33960, Note_on_c, 0, 65, 0
1, 33960, Note_on_c, 0, 61, 36
1, 34040, Tempo, 351803
1, 34080, Note_on_c, 0, 61, 0
1, 34080, Note_on_c, 0, 63, 55
1, 34120, Tempo, 350672
1, 34200, Tempo, 349508
1, 34280, Tempo, 348392
1, 34310, Note_on_c, 0, 63, 0
1, 34320, Tempo, 371264
1, 34320, Note_on_c, 0, 63, 38
1, 34320, Note_on_c, 0, 65, 38
1, 34320, Note_on_c, 0, 71, 38
1, 34440, Note_on_c, 0, 71, 0
1, 34440, Note_on_c, 0, 65, 0
1, 34440, Note_on_c, 0, 63, 0
1, 34440, Note_on_c, 0, 61, 38
1, 34560, Tempo, 363702
1, 34560, Note_on_c, 0, 61, 0
1, 34560, Note_on_c, 0, 65, 58
1, 34569, Control_c, 0, 64, 0
1, 34623, Control_c, 0, 64, 127
1, 34790, Note_on_c, 0, 65, 0
1, 34800, Note_on_c, 0, 63, 39
1, 34800, Note_on_c, 0, 65, 39
1, 34800, Note_on_c, 0, 71, 39
1, 34920, Note_on_c, 0, 71, 0
1, 34920, Note_on_c, 0, 65, 0
1, 34920, Note_on_c, 0, 63, 0
1, 34920, Note_on_c, 0, 61, 39
1, 35040, Note_on_c, 0, 61, 0
1, 35040, Note_on_c, 0, 68, 61
1, 35280, Note_on_c, 0, 71, 41
1, 35280, Note_on_c, 0, 65, 41
1, 35280, Note_on_c, 0, 63, 41
1, 35400, Note_on_c, 0, 63, 0
1, 35400, Note_on_c, 0, 65, 0
1, 35400, Note_on_c, 0, 71, 0
1, 35400, Note_on_c, 0, 61, 42
1, 35518, Note_on_c, 0, 61, 0
1, 35520, Tempo, 368732
1, 35520, Note_on_c, 0, 68, 0
1, 35520, Note_on_c, 0, 61, 58
1, 35750, Note_on_c, 0, 61, 0
1, 35760, Note_on_c, 0, 71, 43
1, 35760, Note_on_c, 0, 65, 43
1, 35760, Note_on_c, 0, 63, 43
1, 35880, Note_on_c, 0, 63, 0
1, 35880, Note_on_c, 0, 65, 0
1, 35880, Note_on_c, 0, 71, 0
1, 35880, Note_on_c, 0, 61, 44
1, 36000, Tempo, 363702
1, 36000, Note_on_c, 0, 61, 0
1, 36000, Note_on_c, 0, 66, 58
1, 36000, Note_on_c, 0, 61, 58
1, 36000, Control_c, 0, 64, 0
1, 36000, Note_on_c, 0, 58, 54
1, 36000, Note_on_c, 0, 54, 54
1, 36120, Control_c, 0, 64, 127
1, 36360, Note_on_c, 0, 54, 0
1, 36360, Note_on_c, 0, 66, 0
1, 36360, Note_on_c, 0, 61, 0
1, 36360, Note_on_c, 0, 58, 0
1, 36360, Note_on_c, 0, 66, 55
1, 36360, Note_on_c, 0, 70, 55
1, 36360, Note_on_c, 0, 61, 50
1, 36480, Tempo, 361272
1, 36480, Note_on_c, 0, 61, 0
1, 36480, Note_on_c, 0, 70, 0
1, 36480, Note_on_c, 0, 66, 0
1, 36480, Note_on_c, 0, 70, 57
1, 36480, Note_on_c, 0, 73, 57
1, 36480, Note_on_c, 0, 66, 50
1, 36501, Control_c, 0, 64, 0
1, 36560, Tempo, 362494
1, 36600, Note_on_c, 0, 66, 0
1, 36600, Note_on_c, 0, 73, 0
1, 36600, Note_on_c, 0, 70, 0
1, 36640, Tempo, 363702
1, 36680, Tempo, 364986
1, 36720, Note_on_c, 0, 73, 61
1, 36720, Note_on_c, 0, 78, 61
1, 36720, Note_on_c, 0, 70, 54
1, 36760, Tempo, 366211
1, 36800, Tempo, 367467
1, 36840, Note_on_c, 0, 70, 0
1, 36840, Note_on_c, 0, 78, 0
1, 36840, Note_on_c, 0, 73, 0
1, 36880, Tempo, 368732
1, 36960, Tempo, 370005
1, 36960, Note_on_c, 0, 78, 66
1, 36960, Note_on_c, 0, 82, 66
1, 36960, Note_on_c, 0, 73, 56
1, 37000, Tempo, 371264
1, 37080, Tempo, 372578
1, 37080, Note_on_c, 0, 73, 0
1, 37080, Note_on_c, 0, 82, 0
1, 37080, Note_on_c, 0, 78, 0
1, 37120, Tempo, 373855
1, 37200, Tempo, 375164
1, 37200, Note_on_c, 0, 85, 63
1, 37200, Note_on_c, 0, 82, 63
1, 37200, Note_on_c, 0, 78, 54
1, 37280, Tempo, 376506
1, 37320, Tempo, 377810
1, 37320, Note_on_c, 0, 78, 0
1, 37320, Note_on_c, 0, 82, 0
1, 37320, Note_on_c, 0, 85, 0
1, 37400, Tempo, 379171
1, 37440, Tempo, 380493
1, 37440, Note_on_c, 0, 90, 76
1, 37440, Note_on_c, 0, 85, 76
1, 37440, Note_on_c, 0, 82, 63
1, 37560, Note_on_c, 0, 82, 0
1, 37680, Note_on_c, 0, 85, 0
1, 37680, Note_on_c, 0, 90, 0
1, 37853, Control_c, 0, 64, 127
1, 37860, Note_on_c, 0, 42, 58
1, 37890, Note_on_c, 0, 49, 61
1, 37920, Note_on_c, 0, 90, 85
1, 37920, Note_on_c, 0, 97, 85
1, 37920, Note_on_c, 0, 102, 85
1, 37920, Note_on_c, 0, 58, 70
1, 38280, Control_c, 0, 64, 0
1, 38400, Note_on_c, 0, 58, 0
1, 38400, Note_on_c, 0, 49, 0
1, 38400, Note_on_c, 0, 90, 0
1, 38400, Note_on_c, 0, 42, 0
1, 38400, Note_on_c, 0, 102, 0
1, 38400, Note_on_c, 0, 97, 0
1, 38880, Tempo, 460936
1, 38880, Note_on_c, 0, 78, 61
1, 38880, Note_on_c, 0, 90, 61
1, 38880, Note_on_c, 0, 63, 49
1, 38912, Control_c, 0, 64, 127
1, 39120, Tempo, 400882
1, 39120, Note_on_c, 0, 63, 0
1, 39120, Note_on_c, 0, 90, 0
1, 39120, Note_on_c, 0, 78, 0
1, 39120, Note_on_c, 0, 92, 63
1, 39120, Note_on_c, 0, 80, 63
1, 39120, Note_on_c, 0, 65, 50
1, 39360, Tempo, 411015
1, 39360, Note_on_c, 0, 65, 0
1, 39360, Note_on_c, 0, 80, 0
1, 39360, Note_on_c, 0, 92, 0
1, 39360, Note_on_c, 0, 82, 66
1, 39360, Note_on_c, 0, 94, 66
1, 39360, Note_on_c, 0, 66, 51
1, 39372, Control_c, 0, 64, 0
1, 39438, Control_c, 0, 64, 127
1, 39840, Tempo, 374508
1, 39840, Note_on_c, 0, 66, 0
1, 39840, Note_on_c, 0, 94, 0
1, 39840, Note_on_c, 0, 82, 0
1, 39840, Note_on_c, 0, 80, 62
1, 39840, Note_on_c, 0, 92, 62
1, 39840, Note_on_c, 0, 65, 49
1, 39854, Control_c, 0, 64, 0
1, 39925, Control_c, 0, 64, 127
1, 40080, Tempo, 388576
1, 40080, Note_on_c, 0, 65, 0
1, 40080, Note_on_c, 0, 92, 0
1, 40080, Note_on_c, 0, 80, 0
1, 40080, Note_on_c, 0, 78, 60
1, 40080, Note_on_c, 0, 90, 60
1, 40080, Note_on_c, 0, 63, 46
1, 40200, Note_on_c, 0, 92, 49
1, 40200, Note_on_c, 0, 80, 49
1, 40216, Control_c, 0, 64, 0
1, 40253, Control_c, 0, 64, 127
1, 40260, Note_on_c, 0, 80, 0
1, 40260, Note_on_c, 0, 90, 0
1, 40260, Note_on_c, 0, 78, 0
1, 40260, Note_on_c, 0, 92, 0
1, 40260, Note_on_c, 0, 82, 49
1, 40260, Note_on_c, 0, 94, 49
1, 40320, Tempo, 389914
1, 40320, Note_on_c, 0, 94, 0
1, 40320, Note_on_c, 0, 82, 0
1, 40320, Note_on_c, 0, 63, 0
1, 40320, Note_on_c, 0, 92, 62
1, 40320, Note_on_c, 0, 80, 62
1, 40320, Note_on_c, 0, 65, 51
1, 40338, Control_c, 0, 64, 0
1, 40475, Control_c, 0, 64, 127
1, 40800, Tempo, 375752
1, 40800, Note_on_c, 0, 65, 0
1, 40800, Note_on_c, 0, 80, 0
1, 40800, Note_on_c, 0, 92, 0
1, 40800, Note_on_c, 0, 78, 58
1, 40800, Note_on_c, 0, 90, 58
1, 40800, Note_on_c, 0, 63, 49
1, 40817, Control_c, 0, 64, 0
1, 40956, Control_c, 0, 64, 127
1, 41040, Tempo, 391236
1, 41040, Note_on_c, 0, 63, 0
1, 41040, Note_on_c, 0, 90, 0
1, 41040, Note_on_c, 0, 78, 0
1, 41040, Note_on_c, 0, 89, 56
1, 41040, Note_on_c, 0, 77, 56
1, 41040, Note_on_c, 0, 58, 46
1, 41280, Tempo, 409556
1, 41280, Note_on_c, 0, 58, 0
1, 41280, Note_on_c, 0, 77, 0
1, 41280, Note_on_c, 0, 89, 0
1, 41280, Note_on_c, 0, 75, 53
1, 41280, Note_on_c, 0, 87, 53
1, 41280, Control_c, 0, 64, 0
1, 41280, Note_on_c, 0, 54, 42
1, 41464, Control_c, 0, 64, 127
1, 41760, Tempo, 400882
1, 41760, Note_on_c, 0, 54, 0
1, 41760, Note_on_c, 0, 87, 0
1, 41760, Note_on_c, 0, 75, 0
1, 41760, Note_on_c, 0, 66, 57
1, 41760, Note_on_c, 0, 51, 55
1, 41760, Note_on_c, 0, 61, 55
1, 41760, Control_c, 0, 64, 0
1, 41763, Control_c, 0, 64, 0
1, 41909, Control_c, 0, 64, 127
1, 42000, Tempo, 385927
1, 42000, Note_on_c, 0, 77, 54
1, 42240, Tempo, 402307
1, 42240, Note_on_c, 0, 77, 0
1, 42240, Note_on_c, 0, 75, 62
1, 42240, Note_on_c, 0, 85, 58
1, 42257, Control_c, 0, 64, 0
1, 42446, Control_c, 0, 64, 127
1, 42720, Tempo, 412513
1, 42720, Note_on_c, 0, 85, 0
1, 42720, Note_on_c, 0, 66, 0
1, 42720, Note_on_c, 0, 61, 0
1, 42720, Note_on_c, 0, 51, 0
1, 42720, Note_on_c, 0, 75, 0
1, 42720, Note_on_c, 0, 66, 60
1, 42720, Note_on_c, 0, 72, 60
1, 42720, Note_on_c, 0, 56, 39
1, 42720, Note_on_c, 0, 63, 49
1, 42729, Control_c, 0, 64, 0
1, 42847, Control_c, 0, 64, 127
1, 42960, Tempo, 439593
1, 42960, Note_on_c, 0, 72, 0
1, 42960, Note_on_c, 0, 80, 56
1, 43200, Tempo, 417043
1, 43200, Note_on_c, 0, 80, 0
1, 43200, Note_on_c, 0, 63, 0
1, 43200, Note_on_c, 0, 56, 0
1, 43200, Note_on_c, 0, 66, 0
1, 43200, Note_on_c, 0, 77, 57
1, 43200, Note_on_c, 0, 65, 57
1, 43200, Note_on_c, 0, 49, 53
1, 43200, Note_on_c, 0, 56, 53
1, 43206, Control_c, 0, 64, 0
1, 43285, Control_c, 0, 64, 127
1, 43440, Tempo, 362494
1, 43440, Note_on_c, 0, 65, 0
1, 43440, Note_on_c, 0, 77, 0
1, 43440, Note_on_c, 0, 58, 35
1, 43440, Note_on_c, 0, 61, 35
1, 43440, Note_on_c, 0, 65, 35
1, 43451, Control_c, 0, 64, 0
1, 43493, Control_c, 0, 64, 127
1, 43560, Note_on_c, 0, 65, 0
1, 43560, Note_on_c, 0, 58, 0
1, 43560, Note_on_c, 0, 61, 0
1, 43560, Note_on_c, 0, 56, 35
1, 43675, Note_on_c, 0, 56, 0
1, 43680, Tempo, 339866
1, 43680, Note_on_c, 0, 49, 0
1, 43680, Note_on_c, 0, 56, 0
1, 43680, Control_c, 0, 64, 0
1, 43680, Note_on_c, 0, 56, 49
1, 43740, Note_on_c, 0, 56, 0
1, 43920, Tempo, 361424
1, 43920, Note_on_c, 0, 56, 35
1, 43920, Note_on_c, 0, 61, 35
1, 43920, Note_on_c, 0, 65, 35
1, 43931, Control_c, 0, 64, 127
1, 43980, Note_on_c, 0, 65, 0
1, 43980, Note_on_c, 0, 61, 0
1, 43980, Note_on_c, 0, 56, 0
1, 44054, Control_c, 0, 64, 0
1, 44160, Note_on_c, 0, 44, 49
1, 44220, Note_on_c, 0, 44, 0
1, 44400, Tempo, 367467
1, 44400, Note_on_c, 0, 61, 35
1, 44400, Note_on_c, 0, 56, 35
1, 44400, Note_on_c, 0, 65, 35
1, 44439, Control_c, 0, 64, 127
1, 44460, Note_on_c, 0, 65, 0
1, 44460, Note_on_c, 0, 56, 0
1, 44460, Note_on_c, 0, 61, 0
1, 44513, Control_c, 0, 64, 0
1, 44640, Tempo, 328138
1, 44640, Note_on_c, 0, 49, 51
1, 44668, Control_c, 0, 64, 127
1, 44760, Note_on_c, 0, 49, 0
1, 44880, Tempo, 362494
1, 44880, Note_on_c, 0, 58, 35
1, 44880, Note_on_c, 0, 61, 35
1, 44880, Note_on_c, 0, 65, 35
1, 45000, Note_on_c, 0, 65, 0
1, 45000, Note_on_c, 0, 61, 0
1, 45000, Note_on_c, 0, 58, 0
1, 45000, Note_on_c, 0, 56, 35
1, 45088, Control_c, 0, 64, 0
1, 45110, Note_on_c, 0, 56, 0
1, 45120, Tempo, 342916
1, 45120, Note_on_c, 0, 56, 49
1, 45180, Note_on_c, 0, 56, 0
1, 45360, Tempo, 361424
1, 45360, Note_on_c, 0, 56, 35
1, 45360, Note_on_c, 0, 65, 35
1, 45360, Note_on_c, 0, 61, 35
1, 45409, Control_c, 0, 64, 127
1, 45420, Note_on_c, 0, 61, 0
1, 45420, Note_on_c, 0, 65, 0
1, 45420, Note_on_c, 0, 56, 0
1, 45536, Control_c, 0, 64, 0
1, 45600, Note_on_c, 0, 44, 49
1, 45660, Note_on_c, 0, 44, 0
1, 45840, Note_on_c, 0, 65, 35
1, 45840, Note_on_c, 0, 61, 35
1, 45840, Note_on_c, 0, 56, 35
1, 45868, Control_c, 0, 64, 127
1, 45900, Note_on_c, 0, 56, 0
1, 45900, Note_on_c, 0, 61, 0
1, 45900, Note_on_c, 0, 65, 0
1, 45981, Control_c, 0, 64, 0
1, 46080, Note_on_c, 0, 48, 51
1, 46117, Control_c, 0, 64, 127
1, 46200, Note_on_c, 0, 48, 0
1, 46320, Tempo, 357675
1, 46320, Note_on_c, 0, 66, 35
1, 46320, Note_on_c, 0, 60, 35
1, 46320, Note_on_c, 0, 58, 35
1, 46440, Note_on_c, 0, 58, 0
1, 46440, Note_on_c, 0, 60, 0
1, 46440, Note_on_c, 0, 66, 0
1, 46440, Note_on_c, 0, 56, 35
1, 46480, Tempo, 356464
1, 46550, Note_on_c, 0, 56, 0
1, 46560, Note_on_c, 0, 56, 51
1, 46600, Tempo, 355303
1, 46680, Note_on_c, 0, 56, 0
1, 46720, Tempo, 354129
1, 46800, Note_on_c, 0, 66, 36
1, 46800, Note_on_c, 0, 58, 36
1, 46800, Note_on_c, 0, 60, 36
1, 46880, Tempo, 352962
1, 46920, Note_on_c, 0, 60, 0
1, 46920, Note_on_c, 0, 58, 0
1, 46920, Note_on_c, 0, 66, 0
1, 46920, Note_on_c, 0, 56, 36
1, 47000, Tempo, 351803
1, 47040, Note_on_c, 0, 56, 0
1, 47040, Note_on_c, 0, 58, 55
1, 47120, Tempo, 350672
1, 47160, Note_on_c, 0, 58, 0
1, 47240, Tempo, 349508
1, 47280, Tempo, 370005
1, 47280, Note_on_c, 0, 58, 38
1, 47280, Note_on_c, 0, 60, 38
1, 47280, Note_on_c, 0, 66, 38
1, 47400, Note_on_c, 0, 66, 0
1, 47400, Note_on_c, 0, 60, 0
1, 47400, Note_on_c, 0, 58, 0
1, 47400, Note_on_c, 0, 56, 38
1, 47520, Tempo, 357675
1, 47520, Note_on_c, 0, 56, 0
1, 47520, Note_on_c, 0, 60, 58
1, 47523, Control_c, 0, 64, 0
1, 47591, Control_c, 0, 64, 127
1, 47640, Note_on_c, 0, 60, 0
1, 47760, Note_on_c, 0, 58, 39
1, 47760, Note_on_c, 0, 66, 39
1, 47760, Note_on_c, 0, 60, 39
1, 47880, Note_on_c, 0, 60, 0
1, 47880, Note_on_c, 0, 66, 0
1, 47880, Note_on_c, 0, 58, 0
1, 47880, Note_on_c, 0, 56, 39
1, 48000, Tempo, 363702
1, 48000, Note_on_c, 0, 56, 0
1, 48000, Note_on_c, 0, 63, 61
1, 48120, Note_on_c, 0, 63, 0
1, 48240, Note_on_c, 0, 58, 41
1, 48240, Note_on_c, 0, 60, 41
1, 48240, Note_on_c, 0, 66, 41
1, 48360, Note_on_c, 0, 66, 0
1, 48360, Note_on_c, 0, 60, 0
1, 48360, Note_on_c, 0, 58, 0
1, 48360, Note_on_c, 0, 56, 42
1, 48470, Note_on_c, 0, 56, 0
1, 48480, Note_on_c, 0, 56, 58
1, 48600, Note_on_c, 0, 56, 0
1, 48720, Tempo, 367467
1, 48720, Note_on_c, 0, 58, 43
1, 48720, Note_on_c, 0, 60, 43
1, 48720, Note_on_c, 0, 66, 43
1, 48840, Note_on_c, 0, 66, 0
1, 48840, Note_on_c, 0, 60, 0
1, 48840, Note_on_c, 0, 58, 0
1, 48840, Note_on_c, 0, 56, 44
1, 48960, Tempo, 337401
1, 48960, Note_on_c, 0, 56, 0
1, 48960, Note_on_c, 0, 49, 51
1, 48964, Control_c, 0, 64, 0
1, 49080, Note_on_c, 0, 49, 0
1, 49080, Control_c, 0, 64, 127
1, 49200, Tempo, 362494
1, 49200, Note_on_c, 0, 65, 35
1, 49200, Note_on_c, 0, 61, 35
1, 49200, Note_on_c, 0, 58, 35
1, 49320, Note_on_c, 0, 58, 0
1, 49320, Note_on_c, 0, 61, 0
1, 49320, Note_on_c, 0, 65, 0
1, 49320, Note_on_c, 0, 56, 35
1, 49430, Note_on_c, 0, 56, 0
1, 49440, Tempo, 342916
1, 49440, Note_on_c, 0, 56, 49
1, 49451, Control_c, 0, 64, 0
1, 49500, Note_on_c, 0, 56, 0
1, 49680, Tempo, 361424
1, 49680, Note_on_c, 0, 65, 35
1, 49680, Note_on_c, 0, 61, 35
1, 49680, Note_on_c, 0, 56, 35
1, 49719, Control_c, 0, 64, 127
1, 49740, Note_on_c, 0, 56, 0
1, 49740, Note_on_c, 0, 61, 0
1, 49740, Note_on_c, 0, 65, 0
1, 49920, Note_on_c, 0, 44, 49
1, 49938, Control_c, 0, 64, 0
1, 49980, Note_on_c, 0, 44, 0
1, 50160, Tempo, 368732
1, 50160, Note_on_c, 0, 65, 35
1, 50160, Note_on_c, 0, 56, 35
1, 50160, Note_on_c, 0, 61, 35
1, 50192, Control_c, 0, 64, 127
1, 50220, Note_on_c, 0, 61, 0
1, 50220, Note_on_c, 0, 56, 0
1, 50220, Note_on_c, 0, 65, 0
1, 50315, Control_c, 0, 64, 0
1, 50400, Tempo, 334262
1, 50400, Note_on_c, 0, 49, 51
1, 50439, Control_c, 0, 64, 127
1, 50520, Note_on_c, 0, 49, 0
1, 50640, Tempo, 362494
1, 50640, Note_on_c, 0, 58, 35
1, 50640, Note_on_c, 0, 61, 35
1, 50640, Note_on_c, 0, 65, 35
1, 50760, Note_on_c, 0, 65, 0
1, 50760, Note_on_c, 0, 61, 0
1, 50760, Note_on_c, 0, 58, 0
1, 50760, Note_on_c, 0, 56, 35
1, 50870, Note_on_c, 0, 56, 0
1, 50880, Tempo, 346041
1, 50880, Note_on_c, 0, 56, 49
1, 50884, Control_c, 0, 64, 0
1, 50940, Note_on_c, 0, 56, 0
1, 51120, Note_on_c, 0, 56, 35
1, 51120, Note_on_c, 0, 61, 35
1, 51120, Note_on_c, 0, 65, 35
1, 51155, Control_c, 0, 64, 127
1, 51160, Tempo, 361424
1, 51180, Note_on_c, 0, 65, 0
1, 51180, Note_on_c, 0, 61, 0
1, 51180, Note_on_c, 0, 56, 0
1, 51360, Note_on_c, 0, 44, 49
1, 51364, Control_c, 0, 64, 0
1, 51420, Note_on_c, 0, 44, 0
1, 51600, Note_on_c, 0, 61, 35
1, 51600, Note_on_c, 0, 56, 35
1, 51600, Note_on_c, 0, 65, 35
1, 51632, Control_c, 0, 64, 127
1, 51660, Note_on_c, 0, 65, 0
1, 51660, Note_on_c, 0, 56, 0
1, 51660, Note_on_c, 0, 61, 0
1, 51769, Control_c, 0, 64, 0
1, 51840, Tempo, 363702
1, 51840, Note_on_c, 0, 51, 51
1, 51890, Control_c, 0, 64, 127
1, 51960, Note_on_c, 0, 51, 0
1, 52080, Tempo, 362494
1, 52080, Note_on_c, 0, 58, 35
1, 52080, Note_on_c, 0, 60, 35
1, 52080, Note_on_c, 0, 66, 35
1, 52200, Note_on_c, 0, 66, 0
1, 52200, Note_on_c, 0, 60, 0
1, 52200, Note_on_c, 0, 58, 0
1, 52200, Note_on_c, 0, 56, 35
1, 52310, Note_on_c, 0, 56, 0
1, 52320, Tempo, 357675
1, 52320, Note_on_c, 0, 56, 51
1, 52440, Tempo, 356464
1, 52440, Note_on_c, 0, 56, 0
1, 52520, Tempo, 355303
1, 52560, Note_on_c, 0, 58, 36
1, 52560, Note_on_c, 0, 66, 36
1, 52560, Note_on_c, 0, 60, 36
1, 52600, Tempo, 354129
1, 52680, Tempo, 352962
1, 52680, Note_on_c, 0, 60, 0
1, 52680, Note_on_c, 0, 66, 0
1, 52680, Note_on_c, 0, 58, 0
1, 52680, Note_on_c, 0, 56, 36
1, 52760, Tempo, 351803
1, 52800, Note_on_c, 0, 56, 0
1, 52800, Note_on_c, 0, 58, 55
1, 52840, Tempo, 350672
1, 52920, Tempo, 349508
1, 52920, Note_on_c, 0, 58, 0
1, 53000, Tempo, 348392
1, 53040, Tempo, 371264
1, 53040, Note_on_c, 0, 58, 38
1, 53040, Note_on_c, 0, 60, 38
1, 53040, Note_on_c, 0, 66, 38
1, 53160, Note_on_c, 0, 66, 0
1, 53160, Note_on_c, 0, 60, 0
1, 53160, Note_on_c, 0, 58, 0
1, 53160, Note_on_c, 0, 56, 38
1, 53280, Tempo, 363702
1, 53280, Note_on_c, 0, 56, 0
1, 53280, Note_on_c, 0, 60, 58
1, 53305, Control_c, 0, 64, 0
1, 53332, Control_c, 0, 64, 127
1, 53400, Note_on_c, 0, 60, 0
1, 53520, Note_on_c, 0, 58, 39
1, 53520, Note_on_c, 0, 60, 39
1, 53520, Note_on_c, 0, 66, 39
1, 53640, Note_on_c, 0, 66, 0
1, 53640, Note_on_c, 0, 60, 0
1, 53640, Note_on_c, 0, 58, 0
1, 53640, Note_on_c, 0, 56, 39
1, 53760, Note_on_c, 0, 56, 0
1, 53760, Note_on_c, 0, 63, 61
1, 53880, Note_on_c, 0, 63, 0
1, 54000, Note_on_c, 0, 66, 41
1, 54000, Note_on_c, 0, 60, 41
1, 54000, Note_on_c, 0, 58, 41
1, 54120, Note_on_c, 0, 58, 0
1, 54120, Note_on_c, 0, 60, 0
1, 54120, Note_on_c, 0, 66, 0
1, 54120, Note_on_c, 0, 56, 42
1, 54230, Note_on_c, 0, 56, 0
1, 54240, Tempo, 368732
1, 54240, Note_on_c, 0, 56, 58
1, 54360, Note_on_c, 0, 56, 0
1, 54480, Note_on_c, 0, 66, 43
1, 54480, Note_on_c, 0, 60, 43
1, 54480, Note_on_c, 0, 58, 43
1, 54600, Note_on_c, 0, 58, 0
1, 54600, Note_on_c, 0, 60, 0
1, 54600, Note_on_c, 0, 66, 0
1, 54600, Note_on_c, 0, 56, 44
1, 54720, Tempo, 363702
1, 54720, Note_on_c, 0, 56, 0
1, 54720, Note_on_c, 0, 61, 58
1, 54720, Note_on_c, 0, 56, 58
1, 54720, Note_on_c, 0, 49, 54
1, 54720, Note_on_c, 0, 53, 54
1, 54720, Control_c, 0, 64, 0
1, 54840, Control_c, 0, 64, 127
1, 55080, Note_on_c, 0, 53, 0
1, 55080, Note_on_c, 0, 61, 0
1, 55080, Note_on_c, 0, 56, 0
1, 55080, Note_on_c, 0, 49, 0
1, 55080, Note_on_c, 0, 61, 55
1, 55080, Note_on_c, 0, 65, 55
1, 55080, Note_on_c, 0, 56, 50
1, 55198, Note_on_c, 0, 61, 0
1, 55200, Tempo, 361272
1, 55200, Note_on_c, 0, 56, 0
1, 55200, Note_on_c, 0, 65, 0
1, 55200, Note_on_c, 0, 65, 57
1, 55200, Note_on_c, 0, 68, 57
1, 55200, Note_on_c, 0, 61, 50
1, 55221, Control_c, 0, 64, 0
1, 55280, Tempo, 362494
1, 55320, Note_on_c, 0, 61, 0
1, 55320, Note_on_c, 0, 68, 0
1, 55320, Note_on_c, 0, 65, 0
1, 55360, Tempo, 363702
1, 55400, Tempo, 364986
1, 55440, Note_on_c, 0, 68, 61
1, 55440, Note_on_c, 0, 73, 61
1, 55440, Note_on_c, 0, 65, 54
1, 55480, Tempo, 366211
1, 55520, Tempo, 367467
1, 55560, Note_on_c, 0, 65, 0
1, 55560, Note_on_c, 0, 73, 0
1, 55560, Note_on_c, 0, 68, 0
1, 55600, Tempo, 368732
1, 55680, Tempo, 370005
1, 55680, Note_on_c, 0, 73, 66
1, 55680, Note_on_c, 0, 77, 66
1, 55680, Note_on_c, 0, 68, 56
1, 55720, Tempo, 371264
1, 55800, Tempo, 372578
1, 55800, Note_on_c, 0, 68, 0
1, 55800, Note_on_c, 0, 77, 0
1, 55800, Note_on_c, 0, 73, 0
1, 55840, Tempo, 373855
1, 55920, Tempo, 375164
1, 55920, Note_on_c, 0, 80, 63
1, 55920, Note_on_c, 0, 77, 63
1, 55920, Note_on_c, 0, 73, 54
1, 56000, Tempo, 376506
1, 56040, Tempo, 377810
1, 56040, Note_on_c, 0, 73, 0
1, 56040, Note_on_c, 0, 77, 0
1, 56040, Note_on_c, 0, 80, 0
1, 56100, Note_on_c, 0, 61, 56
1, 56120, Tempo, 379171
1, 56130, Note_on_c, 0, 68, 56
1, 56160, Tempo, 380493
1, 56160, Note_on_c, 0, 73, 76
1, 56160, Note_on_c, 0, 85, 76
1, 56160, Note_on_c, 0, 80, 76
1, 56160, Note_on_c, 0, 77, 63
1, 56192, Control_c, 0, 64, 127
1, 56400, Note_on_c, 0, 77, 0
1, 56400, Note_on_c, 0, 68, 0
1, 56400, Note_on_c, 0, 73, 0
1, 56400, Note_on_c, 0, 61, 0
1, 56400, Note_on_c, 0, 80, 0
1, 56400, Note_on_c, 0, 85, 0
1, 56404, Control_c, 0, 64, 0
1, 56640, Note_on_c, 0, 97, 85
1, 56640, Note_on_c, 0, 89, 85
1, 56640, Note_on_c, 0, 85, 85
1, 56640, Note_on_c, 0, 37, 58
1, 56640, Note_on_c, 0, 49, 70
1, 56718, Control_c, 0, 64, 127
1, 57120, Note_on_c, 0, 49, 0
1, 57120, Note_on_c, 0, 85, 0
1, 57120, Note_on_c, 0, 97, 0
1, 57120, Note_on_c, 0, 89, 0
1, 57120, Note_on_c, 0, 37, 0
1, 57131, Control_c, 0, 64, 0
1, 57600, Tempo, 460936
1, 57600, Note_on_c, 0, 75, 61
1, 57600, Note_on_c, 0, 87, 61
1, 57600, Note_on_c, 0, 71, 49
1, 57664, Control_c, 0, 64, 127
1, 57840, Tempo, 400882
1, 57840, Note_on_c, 0, 71, 0
1, 57840, Note_on_c, 0, 87, 0
1, 57840, Note_on_c, 0, 75, 0
1, 57840, Note_on_c, 0, 89, 63
1, 57840, Note_on_c, 0, 77, 63
1, 57840, Note_on_c, 0, 73, 50
1, 58080, Tempo, 411015
1, 58080, Note_on_c, 0, 73, 0
1, 58080, Note_on_c, 0, 77, 0
1, 58080, Note_on_c, 0, 89, 0
1, 58080, Note_on_c, 0, 78, 66
1, 58080, Note_on_c, 0, 90, 66
1, 58080, Note_on_c, 0, 75, 51
1, 58098, Control_c, 0, 64, 0
1, 58183, Control_c, 0, 64, 127
1, 58560, Tempo, 374508
1, 58560, Note_on_c, 0, 75, 0
1, 58560, Note_on_c, 0, 90, 0
1, 58560, Note_on_c, 0, 78, 0
1, 58560, Note_on_c, 0, 80, 62
1, 58560, Note_on_c, 0, 92, 62
1, 58560, Note_on_c, 0, 77, 49
1, 58579, Control_c, 0, 64, 0
1, 58670, Control_c, 0, 64, 127
1, 58800, Tempo, 388576
1, 58800, Note_on_c, 0, 77, 0
1, 58800, Note_on_c, 0, 92, 0
1, 58800, Note_on_c, 0, 80, 0
1, 58800, Note_on_c, 0, 90, 60
1, 58800, Note_on_c, 0, 78, 60
1, 58800, Note_on_c, 0, 75, 46
1, 58920, Note_on_c, 0, 77, 49
1, 58920, Note_on_c, 0, 89, 49
1, 58934, Control_c, 0, 64, 0
1, 58969, Control_c, 0, 64, 127
1, 58980, Note_on_c, 0, 89, 0
1, 58980, Note_on_c, 0, 78, 0
1, 58980, Note_on_c, 0, 90, 0
1, 58980, Note_on_c, 0, 77, 0
1, 58980, Note_on_c, 0, 78, 49
1, 58980, Note_on_c, 0, 90, 49
1, 59040, Tempo, 389914
1, 59040, Note_on_c, 0, 90, 0
1, 59040, Note_on_c, 0, 78, 0
1, 59040, Note_on_c, 0, 75, 0
1, 59040, Note_on_c, 0, 89, 62
1, 59040, Note_on_c, 0, 77, 62
1, 59040, Note_on_c, 0, 73, 51
1, 59057, Control_c, 0, 64, 0
1, 59195, Control_c, 0, 64, 127
1, 59520, Tempo, 375752
1, 59520, Note_on_c, 0, 73, 0
1, 59520, Note_on_c, 0, 77, 0
1, 59520, Note_on_c, 0, 89, 0
1, 59520, Note_on_c, 0, 75, 55
1, 59520, Note_on_c, 0, 87, 55
1, 59520, Note_on_c, 0, 71, 49
1, 59542, Control_c, 0, 64, 0
1, 59661, Control_c, 0, 64, 127
1, 59760, Tempo, 391236
1, 59760, Note_on_c, 0, 71, 0
1, 59760, Note_on_c, 0, 87, 0
1, 59760, Note_on_c, 0, 75, 0
1, 59760, Note_on_c, 0, 89, 52
1, 59760, Note_on_c, 0, 77, 52
1, 59760, Note_on_c, 0, 73, 46
1, 60000, Tempo, 409556
1, 60000, Note_on_c, 0, 73, 0
1, 60000, Note_on_c, 0, 77, 0
1, 60000, Note_on_c, 0, 89, 0
1, 60000, Note_on_c, 0, 73, 50
1, 60000, Note_on_c, 0, 85, 50
1, 60000, Note_on_c, 0, 70, 42
1, 60014, Control_c, 0, 64, 0
1, 60198, Control_c, 0, 64, 127
1, 60480, Tempo, 402307
1, 60480, Note_on_c, 0, 70, 0
1, 60480, Note_on_c, 0, 85, 0
1, 60480, Note_on_c, 0, 73, 0
1, 60480, Note_on_c, 0, 70, 52
1, 60480, Note_on_c, 0, 82, 52
1, 60480, Note_on_c, 0, 76, 52
1, 60480, Note_on_c, 0, 51, 43
1, 60480, Note_on_c, 0, 67, 43
1, 60480, Note_on_c, 0, 61, 43
1, 60491, Control_c, 0, 64, 0
1, 60536, Control_c, 0, 64, 127
1, 60720, Tempo, 388576
1, 60720, Note_on_c, 0, 67, 0
1, 60720, Note_on_c, 0, 82, 0
1, 60720, Note_on_c, 0, 70, 0
1, 60720, Note_on_c, 0, 85, 54
1, 60720, Note_on_c, 0, 73, 54
1, 60720, Note_on_c, 0, 63, 39
1, 60960, Tempo, 402307
1, 60960, Note_on_c, 0, 73, 0
1, 60960, Note_on_c, 0, 85, 0
1, 60960, Note_on_c, 0, 51, 0
1, 60960, Note_on_c, 0, 76, 0
1, 60960, Note_on_c, 0, 61, 0
1, 60960, Note_on_c, 0, 71, 56
1, 60960, Note_on_c, 0, 75, 56
1, 60960, Note_on_c, 0, 83, 56
1, 60960, Note_on_c, 0, 56, 44
1, 60960, Note_on_c, 0, 68, 44
1, 60973, Control_c, 0, 64, 0
1, 61108, Control_c, 0, 64, 127
1, 61380, Note_on_c, 0, 68, 0
1, 61380, Note_on_c, 0, 63, 0
1, 61380, Note_on_c, 0, 56, 0
1, 61380, Note_on_c, 0, 49, 35
1, 61410, Note_on_c, 0, 59, 36
1, 61440, Tempo, 411015
1, 61440, Note_on_c, 0, 71, 0
1, 61440, Note_on_c, 0, 75, 0
1, 61440, Note_on_c, 0, 83, 0
1, 61440, Note_on_c, 0, 73, 50
1, 61440, Note_on_c, 0, 80, 50
1, 61440, Note_on_c, 0, 68, 50
1, 61440, Note_on_c, 0, 65, 45
1, 61459, Control_c, 0, 64, 0
1, 61567, Control_c, 0, 64, 127
1, 61680, Tempo, 439593
1, 61680, Note_on_c, 0, 68, 0
1, 61680, Note_on_c, 0, 80, 0
1, 61680, Note_on_c, 0, 82, 45
1, 61680, Note_on_c, 0, 70, 45
1, 61920, Tempo, 417043
1, 61920, Note_on_c, 0, 70, 0
1, 61920, Note_on_c, 0, 65, 0
1, 61920, Note_on_c, 0, 49, 0
1, 61920, Note_on_c, 0, 59, 0
1, 61920, Note_on_c, 0, 82, 0
1, 61920, Note_on_c, 0, 73, 0
1, 61920, Note_on_c, 0, 78, 52
1, 61920, Note_on_c, 0, 70, 52
1, 61920, Note_on_c, 0, 66, 52
1, 61920, Note_on_c, 0, 54, 45
1, 61920, Note_on_c, 0, 61, 45
1, 61925, Control_c, 0, 64, 0
1, 62001, Control_c, 0, 64, 127
1, 62160, Tempo, 362494
1, 62160, Note_on_c, 0, 66, 0
1, 62160, Note_on_c, 0, 78, 0
1, 62160, Note_on_c, 0, 70, 0
1, 62160, Note_on_c, 0, 63, 35
1, 62160, Note_on_c, 0, 66, 35
1, 62160, Note_on_c, 0, 70, 35
1, 62164, Control_c, 0, 64, 0
1, 62206, Control_c, 0, 64, 127
1, 62270, Note_on_c, 0, 61, 0
1, 62280, Note_on_c, 0, 66, 0
1, 62280, Note_on_c, 0, 70, 0
1, 62280, Note_on_c, 0, 63, 0
1, 62280, Note_on_c, 0, 61, 35
1, 62390, Note_on_c, 0, 61, 0
1, 62400, Tempo, 339866
1, 62400, Note_on_c, 0, 54, 0
1, 62400, Note_on_c, 0, 61, 49
1, 62404, Control_c, 0, 64, 0
1, 62460, Note_on_c, 0, 61, 0
1, 62640, Tempo, 361424
1, 62640, Note_on_c, 0, 61, 35
1, 62640, Note_on_c, 0, 66, 35
1, 62640, Note_on_c, 0, 70, 35
1, 62651, Control_c, 0, 64, 127
1, 62700, Note_on_c, 0, 70, 0
1, 62700, Note_on_c, 0, 66, 0
1, 62700, Note_on_c, 0, 61, 0
1, 62774, Control_c, 0, 64, 0
1, 62880, Note_on_c, 0, 49, 49
1, 62940, Note_on_c, 0, 49, 0
1, 63120, Tempo, 367467
1, 63120, Note_on_c, 0, 66, 35
1, 63120, Note_on_c, 0, 61, 35
1, 63120, Note_on_c, 0, 70, 35
1, 63159, Control_c, 0, 64, 127
1, 63180, Note_on_c, 0, 70, 0
1, 63180, Note_on_c, 0, 61, 0
1, 63180, Note_on_c, 0, 66, 0
1, 63233, Control_c, 0, 64, 0
1, 63360, Tempo, 328138
1, 63360, Note_on_c, 0, 54, 51
1, 63424, Control_c, 0, 64, 127
1, 63480, Note_on_c, 0, 54, 0
1, 63600, Tempo, 362494
1, 63600, Note_on_c, 0, 63, 35
1, 63600, Note_on_c, 0, 66, 35
1, 63600, Note_on_c, 0, 70, 35
1, 63720, Note_on_c, 0, 70, 0
1, 63720, Note_on_c, 0, 66, 0
1, 63720, Note_on_c, 0, 63, 0
1, 63720, Note_on_c, 0, 61, 35
1, 63830, Note_on_c, 0, 61, 0
1, 63840, Tempo, 342916
1, 63840, Note_on_c, 0, 61, 49
1, 63854, Control_c, 0, 64, 0
1, 63900, Note_on_c, 0, 61, 0
1, 64080, Tempo, 361424
1, 64080, Note_on_c, 0, 61, 35
1, 64080, Note_on_c, 0, 70, 35
1, 64080, Note_on_c, 0, 66, 35
1, 64129, Control_c, 0, 64, 127
1, 64140, Note_on_c, 0, 66, 0
1, 64140, Note_on_c, 0, 70, 0
1, 64140, Note_on_c, 0, 61, 0
1, 64256, Control_c, 0, 64, 0
1, 64320, Note_on_c, 0, 49, 49
1, 64380, Note_on_c, 0, 49, 0
1, 64560, Note_on_c, 0, 70, 35
1, 64560, Note_on_c, 0, 66, 35
1, 64560, Note_on_c, 0, 61, 35
1, 64588, Control_c, 0, 64, 127
1, 64620, Note_on_c, 0, 61, 0
1, 64620, Note_on_c, 0, 66, 0
1, 64620, Note_on_c, 0, 70, 0
1, 64701, Control_c, 0, 64, 0
1, 64800, Note_on_c, 0, 56, 51
1, 64844, Control_c, 0, 64, 127
1, 64920, Note_on_c, 0, 56, 0
1, 65040, Tempo, 357675
1, 65040, Note_on_c, 0, 71, 35
1, 65040, Note_on_c, 0, 65, 35
1, 65040, Note_on_c, 0, 63, 35
1, 65160, Note_on_c, 0, 63, 0
1, 65160, Note_on_c, 0, 65, 0
1, 65160, Note_on_c, 0, 71, 0
1, 65160, Note_on_c, 0, 61, 35
1, 65200, Tempo, 356464
1, 65270, Note_on_c, 0, 61, 0
1, 65280, Note_on_c, 0, 61, 51
1, 65320, Tempo, 355303
1, 65440, Tempo, 354129
1, 65520, Note_on_c, 0, 71, 36
1, 65520, Note_on_c, 0, 63, 36
1, 65520, Note_on_c, 0, 65, 36
1, 65600, Tempo, 352962
1, 65630, Note_on_c, 0, 61, 0
1, 65640, Note_on_c, 0, 71, 0
1, 65640, Note_on_c, 0, 63, 0
1, 65640, Note_on_c, 0, 65, 0
1, 65640, Note_on_c, 0, 61, 36
1, 65720, Tempo, 351803
1, 65760, Note_on_c, 0, 61, 0
1, 65760, Note_on_c, 0, 63, 55
1, 65840, Tempo, 350672
1, 65960, Tempo, 349508
1, 65990, Note_on_c, 0, 63, 0
1, 66000, Tempo, 370005
1, 66000, Note_on_c, 0, 63, 38
1, 66000, Note_on_c, 0, 65, 38
1, 66000, Note_on_c, 0, 71, 38
1, 66120, Note_on_c, 0, 71, 0
1, 66120, Note_on_c, 0, 65, 0
1, 66120, Note_on_c, 0, 63, 0
1, 66120, Note_on_c, 0, 61, 38
1, 66240, Tempo, 357675
1, 66240, Note_on_c, 0, 61, 0
1, 66240, Note_on_c, 0, 65, 58
1, 66247, Control_c, 0, 64, 0
1, 66316, Control_c, 0, 64, 127
1, 66470, Note_on_c, 0, 65, 0
1, 66480, Note_on_c, 0, 63, 39
1, 66480, Note_on_c, 0, 71, 39
1, 66480, Note_on_c, 0, 65, 39
1, 66600, Note_on_c, 0, 65, 0
1, 66600, Note_on_c, 0, 71, 0
1, 66600, Note_on_c, 0, 63, 0
1, 66600, Note_on_c, 0, 61, 39
1, 66720, Tempo, 363702
1, 66720, Note_on_c, 0, 61, 0
1, 66720, Note_on_c, 0, 68, 61
1, 66960, Note_on_c, 0, 63, 41
1, 66960, Note_on_c, 0, 65, 41
1, 66960, Note_on_c, 0, 71, 41
1, 67080, Note_on_c, 0, 71, 0
1, 67080, Note_on_c, 0, 65, 0
1, 67080, Note_on_c, 0, 63, 0
1, 67080, Note_on_c, 0, 61, 42
1, 67200, Note_on_c, 0, 61, 0
1, 67200, Note_on_c, 0, 68, 0
1, 67200, Note_on_c, 0, 61, 58
1, 67440, Tempo, 367467
1, 67440, Note_on_c, 0, 63, 43
1, 67440, Note_on_c, 0, 65, 43
1, 67440, Note_on_c, 0, 71, 43
1, 67550, Note_on_c, 0, 61, 0
1, 67560, Note_on_c, 0, 63, 0
1, 67560, Note_on_c, 0, 65, 0
1, 67560, Note_on_c, 0, 71, 0
1, 67560, Note_on_c, 0, 61, 44
1, 67611, Control_c, 0, 64, 0
1, 67680, Tempo, 337401
1, 67680, Note_on_c, 0, 61, 0
1, 67680, Note_on_c, 0, 54, 51
1, 67751, Control_c, 0, 64, 127
1, 67800, Note_on_c, 0, 54, 0
1, 67920, Tempo, 362494
1, 67920, Note_on_c, 0, 70, 35
1, 67920, Note_on_c, 0, 66, 35
1, 67920, Note_on_c, 0, 63, 35
1, 68040, Note_on_c, 0, 63, 0
1, 68040, Note_on_c, 0, 66, 0
1, 68040, Note_on_c, 0, 70, 0
1, 68040, Note_on_c, 0, 61, 35
1, 68150, Note_on_c, 0, 61, 0
1, 68160, Tempo, 342916
1, 68160, Note_on_c, 0, 61, 49
1, 68174, Control_c, 0, 64, 0
1, 68220, Note_on_c, 0, 61, 0
1, 68400, Tempo, 361424
1, 68400, Note_on_c, 0, 70, 35
1, 68400, Note_on_c, 0, 66, 35
1, 68400, Note_on_c, 0, 61, 35
1, 68428, Control_c, 0, 64, 127
1, 68460, Note_on_c, 0, 61, 0
1, 68460, Note_on_c, 0, 66, 0
1, 68460, Note_on_c, 0, 70, 0
1, 68594, Control_c, 0, 64, 0
1, 68640, Note_on_c, 0, 49, 49
1, 68700, Note_on_c, 0, 49, 0
1, 68880, Tempo, 368732
1, 68880, Note_on_c, 0, 70, 35
1, 68880, Note_on_c, 0, 61, 35
1, 68880, Note_on_c, 0, 66, 35
1, 68912, Control_c, 0, 64, 127
1, 68940, Note_on_c, 0, 66, 0
1, 68940, Note_on_c, 0, 61, 0
1, 68940, Note_on_c, 0, 70, 0
1, 69035, Control_c, 0, 64, 0
1, 69120, Tempo, 334262
1, 69120, Note_on_c, 0, 54, 51
1, 69169, Control_c, 0, 64, 127
1, 69240, Note_on_c, 0, 54, 0
1, 69360, Tempo, 362494
1, 69360, Note_on_c, 0, 63, 35
1, 69360, Note_on_c, 0, 66, 35
1, 69360, Note_on_c, 0, 70, 35
1, 69480, Note_on_c, 0, 70, 0
1, 69480, Note_on_c, 0, 66, 0
1, 69480, Note_on_c, 0, 63, 0
1, 69480, Note_on_c, 0, 61, 35
1, 69590, Note_on_c, 0, 61, 0
1, 69600, Tempo, 346041
1, 69600, Note_on_c, 0, 61, 49
1, 69606, Control_c, 0, 64, 0
1, 69660, Note_on_c, 0, 61, 0
1, 69840, Note_on_c, 0, 61, 35
1, 69840, Note_on_c, 0, 66, 35
1, 69840, Note_on_c, 0, 70, 35
1, 69880, Tempo, 361424
1, 69889, Control_c, 0, 64, 127
1, 69900, Note_on_c, 0, 70, 0
1, 69900, Note_on_c, 0, 66, 0
1, 69900, Note_on_c, 0, 61, 0
1, 70024, Control_c, 0, 64, 0
1, 70080, Note_on_c, 0, 49, 49
1, 70140, Note_on_c, 0, 49, 0
1, 70320, Note_on_c, 0, 66, 35
1, 70320, Note_on_c, 0, 61, 35
1, 70320, Note_on_c, 0, 70, 35
1, 70362, Control_c, 0, 64, 127
1, 70380, Note_on_c, 0, 70, 0
1, 70380, Note_on_c, 0, 61, 0
1, 70380, Note_on_c, 0, 66, 0
1, 70489, Control_c, 0, 64, 0
1, 70560, Tempo, 363702
1, 70560, Note_on_c, 0, 56, 51
1, 70604, Control_c, 0, 64, 127
1, 70680, Note_on_c, 0, 56, 0
1, 70800, Tempo, 362494
1, 70800, Note_on_c, 0, 63, 35
1, 70800, Note_on_c, 0, 65, 35
1, 70800, Note_on_c, 0, 71, 35
1, 70920, Note_on_c, 0, 71, 0
1, 70920, Note_on_c, 0, 65, 0
1, 70920, Note_on_c, 0, 63, 0
1, 70920, Note_on_c, 0, 61, 35
1, 71030, Note_on_c, 0, 61, 0
1, 71040, Tempo, 357675
1, 71040, Note_on_c, 0, 61, 51
1, 71160, Tempo, 356464
1, 71240, Tempo, 355303
1, 71280, Note_on_c, 0, 63, 36
1, 71280, Note_on_c, 0, 71, 36
1, 71280, Note_on_c, 0, 65, 36
1, 71320, Tempo, 354129
1, 71390, Note_on_c, 0, 61, 0
1, 71400, Tempo, 352962
1, 71400, Note_on_c, 0, 63, 0
1, 71400, Note_on_c, 0, 71, 0
1, 71400, Note_on_c, 0, 65, 0
1, 71400, Note_on_c, 0, 61, 36
1, 71480, Tempo, 351803
1, 71520, Note_on_c, 0, 61, 0
1, 71520, Note_on_c, 0, 63, 55
1, 71560, Tempo, 350672
1, 71640, Tempo, 349508
1, 71720, Tempo, 348392
1, 71750, Note_on_c, 0, 63, 0
1, 71760, Tempo, 371264
1, 71760, Note_on_c, 0, 63, 38
1, 71760, Note_on_c, 0, 65, 38
1, 71760, Note_on_c, 0, 71, 38
1, 71880, Note_on_c, 0, 71, 0
1, 71880, Note_on_c, 0, 65, 0
1, 71880, Note_on_c, 0, 63, 0
1, 71880, Note_on_c, 0, 61, 38
1, 72000, Tempo, 363702
1, 72000, Note_on_c, 0, 61, 0
1, 72000, Note_on_c, 0, 65, 58
1, 72016, Control_c, 0, 64, 0
1, 72095, Control_c, 0, 64, 127
1, 72230, Note_on_c, 0, 65, 0
1, 72240, Note_on_c, 0, 63, 39
1, 72240, Note_on_c, 0, 65, 39
1, 72240, Note_on_c, 0, 71, 39
1, 72360, Note_on_c, 0, 71, 0
1, 72360, Note_on_c, 0, 65, 0
1, 72360, Note_on_c, 0, 63, 0
1, 72360, Note_on_c, 0, 61, 39
1, 72480, Note_on_c, 0, 61, 0
1, 72480, Note_on_c, 0, 68, 61
1, 72720, Note_on_c, 0, 71, 41
1, 72720, Note_on_c, 0, 65, 41
1, 72720, Note_on_c, 0, 63, 41
1, 72840, Note_on_c, 0, 63, 0
1, 72840, Note_on_c, 0, 65, 0
1, 72840, Note_on_c, 0, 71, 0
1, 72840, Note_on_c, 0, 61, 42
1, 72960, Tempo, 368732
1, 72960, Note_on_c, 0, 61, 0
1, 72960, Note_on_c, 0, 68, 0
1, 72960, Note_on_c, 0, 61, 58
1, 73200, Note_on_c, 0, 71, 43
1, 73200, Note_on_c, 0, 65, 43
1, 73200, Note_on_c, 0, 63, 43
1, 73310, Note_on_c, 0, 61, 0
1, 73320, Note_on_c, 0, 71, 0
1, 73320, Note_on_c, 0, 65, 0
1, 73320, Note_on_c, 0, 63, 0
1, 73320, Note_on_c, 0, 61, 44
1, 73440, Tempo, 363702
1, 73440, Note_on_c, 0, 61, 0
1, 73440, Note_on_c, 0, 66, 58
1, 73440, Note_on_c, 0, 61, 58
1, 73440, Note_on_c, 0, 54, 54
1, 73440, Note_on_c, 0, 58, 54
1, 73443, Control_c, 0, 64, 0
1, 73560, Control_c, 0, 64, 127
1, 73800, Note_on_c, 0, 58, 0
1, 73800, Note_on_c, 0, 66, 0
1, 73800, Note_on_c, 0, 61, 0
1, 73800, Note_on_c, 0, 54, 0
1, 73800, Note_on_c, 0, 66, 55
1, 73800, Note_on_c, 0, 70, 55
1, 73800, Note_on_c, 0, 61, 50
1, 73920, Tempo, 361272
1, 73920, Note_on_c, 0, 61, 0
1, 73920, Note_on_c, 0, 70, 0
1, 73920, Note_on_c, 0, 66, 0
1, 73920, Note_on_c, 0, 70, 57
1, 73920, Note_on_c, 0, 73, 57
1, 73920, Note_on_c, 0, 66, 50
1, 73941, Control_c, 0, 64, 0
1, 74000, Tempo, 362494
1, 74040, Note_on_c, 0, 66, 0
1, 74040, Note_on_c, 0, 73, 0
1, 74040, Note_on_c, 0, 70, 0
1, 74080, Tempo, 363702
1, 74120, Tempo, 364986
1, 74160, Note_on_c, 0, 73, 61
1, 74160, Note_on_c, 0, 78, 61
1, 74160, Note_on_c, 0, 70, 54
1, 74200, Tempo, 366211
1, 74240, Tempo, 367467
1, 74280, Note_on_c, 0, 70, 0
1, 74280, Note_on_c, 0, 78, 0
1, 74280, Note_on_c, 0, 73, 0
1, 74320, Tempo, 368732
1, 74400, Tempo, 370005
1, 74400, Note_on_c, 0, 78, 66
1, 74400, Note_on_c, 0, 82, 66
1, 74400, Note_on_c, 0, 73, 56
1, 74440, Tempo, 371264
1, 74520, Tempo, 372578
1, 74520, Note_on_c, 0, 73, 0
1, 74520, Note_on_c, 0, 82, 0
1, 74520, Note_on_c, 0, 78, 0
1, 74560, Tempo, 373855
1, 74640, Tempo, 375164
1, 74640, Note_on_c, 0, 85, 63
1, 74640, Note_on_c, 0, 82, 63
1, 74640, Note_on_c, 0, 78, 54
1, 74720, Tempo, 376506
1, 74760, Tempo, 377810
1, 74760, Note_on_c, 0, 78, 0
1, 74760, Note_on_c, 0, 82, 0
1, 74760, Note_on_c, 0, 85, 0
1, 74840, Tempo, 379171
1, 74880, Tempo, 380493
1, 74880, Note_on_c, 0, 90, 76
1, 74880, Note_on_c, 0, 85, 76
1, 74880, Note_on_c, 0, 82, 63
1, 75000, Note_on_c, 0, 82, 0
1, 75120, Note_on_c, 0, 85, 0
1, 75120, Note_on_c, 0, 90, 0
1, 75300, Note_on_c, 0, 42, 58
1, 75330, Note_on_c, 0, 49, 61
1, 75360, Note_on_c, 0, 90, 85
1, 75360, Note_on_c, 0, 97, 85
1, 75360, Note_on_c, 0, 102, 85
1, 75360, Note_on_c, 0, 58, 70
1, 75392, Control_c, 0, 64, 127
1, 75840, Note_on_c, 0, 58, 0
1, 75840, Note_on_c, 0, 49, 0
1, 75840, Note_on_c, 0, 90, 0
1, 75840, Note_on_c, 0, 42, 0
1, 75840, Note_on_c, 0, 102, 0
1, 75840, Note_on_c, 0, 97, 0
1, 75844, Control_c, 0, 64, 0
1, 76320, Key_signature, 4, "major"
1, 76320, Tempo, 364919
1, 76320, Note_on_c, 0, 61, 50
1, 76320, Note_on_c, 0, 66, 50
1, 76320, Note_on_c, 0, 54, 32
1, 76320, Note_on_c, 0, 57, 40
1, 76440, Note_on_c, 0, 57, 0
1, 76440, Note_on_c, 0, 61, 0
1, 76440, Note_on_c, 0, 66, 0
1, 76440, Note_on_c, 0, 54, 0
1, 76560, Tempo, 372047
1, 76560, Note_on_c, 0, 66, 46
1, 76560, Note_on_c, 0, 68, 46
1, 76560, Note_on_c, 0, 54, 28
1, 76560, Note_on_c, 0, 59, 35
1, 76680, Note_on_c, 0, 59, 0
1, 76680, Note_on_c, 0, 66, 0
1, 76680, Note_on_c, 0, 68, 0
1, 76680, Note_on_c, 0, 54, 0
1, 76800, Note_on_c, 0, 66, 53
1, 76800, Note_on_c, 0, 69, 53
1, 76800, Note_on_c, 0, 54, 36
1, 76800, Note_on_c, 0, 61, 45
1, 77280, Tempo, 366077
1, 77280, Note_on_c, 0, 61, 0
1, 77280, Note_on_c, 0, 66, 0
1, 77280, Note_on_c, 0, 69, 0
1, 77280, Note_on_c, 0, 54, 0
1, 77280, Note_on_c, 0, 66, 48
1, 77280, Note_on_c, 0, 71, 48
1, 77280, Note_on_c, 0, 54, 32
1, 77280, Note_on_c, 0, 62, 40
1, 77400, Note_on_c, 0, 62, 0
1, 77400, Note_on_c, 0, 66, 0
1, 77400, Note_on_c, 0, 71, 0
1, 77400, Note_on_c, 0, 54, 0
1, 77520, Tempo, 382044
1, 77520, Note_on_c, 0, 66, 37
1, 77520, Note_on_c, 0, 69, 44
1, 77520, Note_on_c, 0, 54, 28
1, 77520, Note_on_c, 0, 61, 35
1, 77640, Tempo, 361424
1, 77640, Note_on_c, 0, 61, 0
1, 77640, Note_on_c, 0, 66, 0
1, 77640, Note_on_c, 0, 69, 0
1, 77640, Note_on_c, 0, 54, 0
1, 77640, Note_on_c, 0, 68, 37
1, 77700, Note_on_c, 0, 68, 0
1, 77700, Note_on_c, 0, 69, 37
1, 77760, Tempo, 387247
1, 77760, Note_on_c, 0, 69, 0
1, 77760, Note_on_c, 0, 65, 39
1, 77760, Note_on_c, 0, 68, 47
1, 77760, Note_on_c, 0, 54, 41
1, 77760, Note_on_c, 0, 59, 41
1, 78240, Tempo, 379507
1, 78240, Note_on_c, 0, 59, 0
1, 78240, Note_on_c, 0, 65, 0
1, 78240, Note_on_c, 0, 68, 0
1, 78240, Note_on_c, 0, 54, 0
1, 78240, Note_on_c, 0, 71, 61
1, 78240, Note_on_c, 0, 74, 61
1, 78240, Note_on_c, 0, 54, 42
1, 78240, Note_on_c, 0, 65, 53
1, 78297, Control_c, 0, 64, 127
1, 78480, Tempo, 391236
1, 78480, Note_on_c, 0, 74, 0
1, 78480, Note_on_c, 0, 73, 57
1, 78720, Tempo, 391236
1, 78720, Note_on_c, 0, 73, 0
1, 78720, Note_on_c, 0, 65, 0
1, 78720, Note_on_c, 0, 54, 0
1, 78720, Note_on_c, 0, 71, 0
1, 78720, Note_on_c, 0, 69, 60
1, 78720, Note_on_c, 0, 78, 60
1, 78720, Note_on_c, 0, 66, 50
1, 78720, Note_on_c, 0, 54, 40
1, 78746, Control_c, 0, 64, 0
1, 78880, Control_c, 0, 64, 127
1, 79200, Tempo, 379507
1, 79200, Note_on_c, 0, 54, 0
1, 79200, Note_on_c, 0, 69, 0
1, 79200, Note_on_c, 0, 78, 0
1, 79200, Note_on_c, 0, 66, 0
1, 79200, Note_on_c, 0, 69, 50
1, 79200, Note_on_c, 0, 72, 50
1, 79200, Note_on_c, 0, 77, 61
1, 79200, Note_on_c, 0, 65, 53
1, 79200, Note_on_c, 0, 53, 42
1, 79207, Control_c, 0, 64, 0
1, 79337, Control_c, 0, 64, 127
1, 79440, Tempo, 408052
1, 79440, Note_on_c, 0, 65, 0
1, 79440, Note_on_c, 0, 77, 0
1, 79440, Note_on_c, 0, 81, 59
1, 79440, Note_on_c, 0, 63, 49
1, 79680, Tempo, 387247
1, 79680, Note_on_c, 0, 63, 0
1, 79680, Note_on_c, 0, 69, 0
1, 79680, Note_on_c, 0, 53, 0
1, 79680, Note_on_c, 0, 72, 0
1, 79680, Note_on_c, 0, 81, 0
1, 79680, Note_on_c, 0, 69, 45
1, 79680, Note_on_c, 0, 73, 45
1, 79680, Note_on_c, 0, 81, 56
1, 79680, Note_on_c, 0, 52, 40
1, 79680, Note_on_c, 0, 64, 50
1, 79690, Control_c, 0, 64, 0
1, 79840, Control_c, 0, 64, 127
1, 80160, Note_on_c, 0, 64, 0
1, 80160, Note_on_c, 0, 81, 0
1, 80160, Note_on_c, 0, 69, 0
1, 80160, Note_on_c, 0, 73, 0
1, 80160, Note_on_c, 0, 52, 0
1, 80160, Note_on_c, 0, 68, 45
1, 80160, Note_on_c, 0, 72, 45
1, 80160, Note_on_c, 0, 76, 55
1, 80160, Note_on_c, 0, 62, 45
1, 80160, Note_on_c, 0, 52, 36
1, 80171, Control_c, 0, 64, 0
1, 80200, Tempo, 395309
1, 80343, Control_c, 0, 64, 127
1, 80640, Tempo, 378239
1, 80640, Note_on_c, 0, 52, 0
1, 80640, Note_on_c, 0, 76, 0
1, 80640, Note_on_c, 0, 68, 0
1, 80640, Note_on_c, 0, 72, 0
1, 80640, Note_on_c, 0, 62, 0
1, 80640, Control_c, 0, 64, 0
1, 80640, Note_on_c, 0, 57, 56
1, 80725, Control_c, 0, 64, 127
1, 80880, Tempo, 366077
1, 80880, Note_on_c, 0, 57, 0
1, 80880, Note_on_c, 0, 66, 38
1, 80880, Note_on_c, 0, 69, 38
1, 80880, Note_on_c, 0, 73, 38
1, 81000, Note_on_c, 0, 73, 0
1, 81000, Note_on_c, 0, 69, 0
1, 81000, Note_on_c, 0, 66, 0
1, 81000, Note_on_c, 0, 64, 38
1, 81110, Note_on_c, 0, 64, 0
1, 81120, Tempo, 345006
1, 81120, Note_on_c, 0, 76, 57
1, 81131, Control_c, 0, 64, 0
1, 81360, Tempo, 361424
1, 81360, Note_on_c, 0, 76, 0
1, 81360, Note_on_c, 0, 64, 38
1, 81360, Note_on_c, 0, 69, 38
1, 81360, Note_on_c, 0, 73, 38
1, 81371, Control_c, 0, 64, 127
1, 81420, Note_on_c, 0, 73, 0
1, 81420, Note_on_c, 0, 69, 0
1, 81420, Note_on_c, 0, 64, 0
1, 81494, Control_c, 0, 64, 0
1, 81600, Tempo, 369663
1, 81600, Note_on_c, 0, 52, 53
1, 81840, Tempo, 385927
1, 81840, Note_on_c, 0, 69, 38
1, 81840, Note_on_c, 0, 64, 38
1, 81840, Note_on_c, 0, 73, 38
1, 81840, Note_on_c, 0, 76, 38
1, 81879, Control_c, 0, 64, 127
1, 81900, Note_on_c, 0, 76, 0
1, 81900, Note_on_c, 0, 64, 0
1, 81900, Note_on_c, 0, 73, 0
1, 81900, Note_on_c, 0, 69, 0
1, 81953, Control_c, 0, 64, 0
1, 81960, Tempo, 436205
1, 82080, Tempo, 364919
1, 82080, Note_on_c, 0, 52, 0
1, 82080, Note_on_c, 0, 69, 45
1, 82080, Note_on_c, 0, 73, 55
1, 82080, Note_on_c, 0, 57, 32
1, 82080, Note_on_c, 0, 64, 40
1, 82200, Note_on_c, 0, 64, 0
1, 82200, Note_on_c, 0, 69, 0
1, 82200, Note_on_c, 0, 73, 0
1, 82200, Note_on_c, 0, 57, 0
1, 82320, Tempo, 372047
1, 82320, Note_on_c, 0, 69, 41
1, 82320, Note_on_c, 0, 74, 50
1, 82320, Note_on_c, 0, 57, 28
1, 82320, Note_on_c, 0, 65, 35
1, 82440, Note_on_c, 0, 65, 0
1, 82440, Note_on_c, 0, 69, 0
1, 82440, Note_on_c, 0, 74, 0
1, 82440, Note_on_c, 0, 57, 0
1, 82560, Note_on_c, 0, 70, 47
1, 82560, Note_on_c, 0, 76, 58
1, 82560, Note_on_c, 0, 57, 36
1, 82560, Note_on_c, 0, 67, 45
1, 83040, Tempo, 366077
1, 83040, Note_on_c, 0, 67, 0
1, 83040, Note_on_c, 0, 70, 0
1, 83040, Note_on_c, 0, 76, 0
1, 83040, Note_on_c, 0, 57, 0
1, 83040, Note_on_c, 0, 70, 48
1, 83040, Note_on_c, 0, 77, 52
1, 83040, Note_on_c, 0, 57, 32
1, 83040, Note_on_c, 0, 69, 40
1, 83160, Note_on_c, 0, 69, 0
1, 83160, Note_on_c, 0, 70, 0
1, 83160, Note_on_c, 0, 77, 0
1, 83160, Note_on_c, 0, 57, 0
1, 83280, Tempo, 382044
1, 83280, Note_on_c, 0, 70, 37
1, 83280, Note_on_c, 0, 76, 48
1, 83280, Note_on_c, 0, 57, 28
1, 83280, Note_on_c, 0, 67, 35
1, 83400, Tempo, 362582
1, 83400, Note_on_c, 0, 67, 0
1, 83400, Note_on_c, 0, 70, 0
1, 83400, Note_on_c, 0, 76, 0
1, 83400, Note_on_c, 0, 57, 0
1, 83400, Note_on_c, 0, 74, 46
1, 83460, Note_on_c, 0, 74, 0
1, 83460, Note_on_c, 0, 76, 45
1, 83520, Tempo, 387247
1, 83520, Note_on_c, 0, 76, 0
1, 83520, Note_on_c, 0, 70, 44
1, 83520, Note_on_c, 0, 74, 57
1, 83520, Note_on_c, 0, 57, 31
1, 83520, Note_on_c, 0, 65, 39
1, 84000, Tempo, 382044
1, 84000, Note_on_c, 0, 65, 0
1, 84000, Note_on_c, 0, 70, 0
1, 84000, Note_on_c, 0, 74, 0
1, 84000, Note_on_c, 0, 57, 0
1, 84000, Note_on_c, 0, 65, 54
1, 84000, Note_on_c, 0, 72, 54
1, 84000, Note_on_c, 0, 57, 36
1, 84000, Note_on_c, 0, 64, 45
1, 84120, Note_on_c, 0, 64, 0
1, 84120, Note_on_c, 0, 65, 0
1, 84120, Note_on_c, 0, 72, 0
1, 84120, Note_on_c, 0, 57, 0
1, 84240, Tempo, 393959
1, 84240, Note_on_c, 0, 65, 50
1, 84240, Note_on_c, 0, 70, 50
1, 84240, Note_on_c, 0, 57, 31
1, 84240, Note_on_c, 0, 62, 39
1, 84360, Note_on_c, 0, 62, 0
1, 84360, Note_on_c, 0, 65, 0
1, 84360, Note_on_c, 0, 70, 0
1, 84360, Note_on_c, 0, 57, 0
1, 84480, Tempo, 391236
1, 84480, Note_on_c, 0, 64, 55
1, 84480, Note_on_c, 0, 69, 55
1, 84480, Note_on_c, 0, 61, 44
1, 84480, Note_on_c, 0, 57, 35
1, 84617, Control_c, 0, 64, 127
1, 84960, Tempo, 376979
1, 84960, Note_on_c, 0, 57, 0
1, 84960, Note_on_c, 0, 64, 0
1, 84960, Note_on_c, 0, 69, 0
1, 84960, Note_on_c, 0, 61, 0
1, 84960, Note_on_c, 0, 70, 46
1, 84960, Note_on_c, 0, 76, 57
1, 84960, Note_on_c, 0, 67, 45
1, 84966, Control_c, 0, 64, 0
1, 85097, Control_c, 0, 64, 127
1, 85200, Tempo, 393959
1, 85200, Note_on_c, 0, 67, 0
1, 85200, Note_on_c, 0, 76, 0
1, 85200, Note_on_c, 0, 77, 61
1, 85200, Note_on_c, 0, 62, 48
1, 85440, Tempo, 384640
1, 85440, Note_on_c, 0, 62, 0
1, 85440, Note_on_c, 0, 77, 0
1, 85440, Note_on_c, 0, 70, 0
1, 85440, Note_on_c, 0, 70, 54
1, 85440, Note_on_c, 0, 76, 60
1, 85440, Note_on_c, 0, 79, 66
1, 85440, Note_on_c, 0, 61, 53
1, 85456, Control_c, 0, 64, 0
1, 85600, Control_c, 0, 64, 127
1, 85920, Note_on_c, 0, 61, 0
1, 85920, Note_on_c, 0, 70, 0
1, 85920, Note_on_c, 0, 76, 0
1, 85920, Note_on_c, 0, 79, 0
1, 85920, Note_on_c, 0, 67, 49
1, 85920, Note_on_c, 0, 70, 49
1, 85920, Note_on_c, 0, 73, 60
1, 85920, Note_on_c, 0, 57, 49
1, 85931, Control_c, 0, 64, 0
1, 86103, Control_c, 0, 64, 127
1, 86160, Tempo, 415541
1, 86160, Note_on_c, 0, 70, 0
1, 86160, Note_on_c, 0, 69, 53
1, 86400, Tempo, 380783
1, 86400, Note_on_c, 0, 69, 0
1, 86400, Note_on_c, 0, 57, 0
1, 86400, Note_on_c, 0, 73, 0
1, 86400, Note_on_c, 0, 67, 0
1, 86400, Note_on_c, 0, 62, 70
1, 86410, Control_c, 0, 64, 0
1, 86485, Control_c, 0, 64, 127
1, 86640, Tempo, 366077
1, 86640, Note_on_c, 0, 62, 0
1, 86640, Note_on_c, 0, 70, 45
1, 86640, Note_on_c, 0, 74, 45
1, 86640, Note_on_c, 0, 77, 45
1, 86760, Note_on_c, 0, 77, 0
1, 86760, Note_on_c, 0, 74, 0
1, 86760, Note_on_c, 0, 70, 0
1, 86760, Note_on_c, 0, 69, 45
1, 86880, Tempo, 348169
1, 86880, Note_on_c, 0, 69, 0
1, 86880, Note_on_c, 0, 81, 69
1, 86894, Control_c, 0, 64, 0
1, 87120, Tempo, 367264
1, 87120, Note_on_c, 0, 81, 0
1, 87120, Note_on_c, 0, 69, 45
1, 87120, Note_on_c, 0, 74, 45
1, 87120, Note_on_c, 0, 77, 45
1, 87131, Control_c, 0, 64, 127
1, 87180, Note_on_c, 0, 77, 0
1, 87180, Note_on_c, 0, 74, 0
1, 87180, Note_on_c, 0, 69, 0
1, 87254, Control_c, 0, 64, 0
1, 87360, Tempo, 376979
1, 87360, Note_on_c, 0, 69, 66
1, 87600, Tempo, 395309
1, 87600, Note_on_c, 0, 74, 45
1, 87600, Note_on_c, 0, 69, 45
1, 87600, Note_on_c, 0, 77, 45
1, 87600, Note_on_c, 0, 81, 45
1, 87639, Control_c, 0, 64, 127
1, 87660, Note_on_c, 0, 81, 0
1, 87660, Note_on_c, 0, 69, 0
1, 87660, Note_on_c, 0, 77, 0
1, 87660, Note_on_c, 0, 74, 0
1, 87713, Control_c, 0, 64, 0
1, 87720, Tempo, 436205
1, 87840, Tempo, 364919
1, 87840, Note_on_c, 0, 69, 0
1, 87840, Note_on_c, 0, 69, 45
1, 87840, Note_on_c, 0, 71, 45
1, 87840, Note_on_c, 0, 74, 55
1, 87840, Note_on_c, 0, 65, 40
1, 87960, Note_on_c, 0, 65, 0
1, 87960, Note_on_c, 0, 69, 0
1, 87960, Note_on_c, 0, 71, 0
1, 87960, Note_on_c, 0, 74, 0
1, 88080, Tempo, 372047
1, 88080, Note_on_c, 0, 69, 41
1, 88080, Note_on_c, 0, 71, 41
1, 88080, Note_on_c, 0, 76, 50
1, 88080, Note_on_c, 0, 64, 35
1, 88200, Note_on_c, 0, 64, 0
1, 88200, Note_on_c, 0, 69, 0
1, 88200, Note_on_c, 0, 71, 0
1, 88200, Note_on_c, 0, 76, 0
1, 88320, Note_on_c, 0, 69, 47
1, 88320, Note_on_c, 0, 71, 47
1, 88320, Note_on_c, 0, 77, 58
1, 88320, Note_on_c, 0, 62, 45
1, 88800, Tempo, 366077
1, 88800, Note_on_c, 0, 62, 0
1, 88800, Note_on_c, 0, 69, 0
1, 88800, Note_on_c, 0, 71, 0
1, 88800, Note_on_c, 0, 77, 0
1, 88800, Note_on_c, 0, 71, 48
1, 88800, Note_on_c, 0, 69, 48
1, 88800, Note_on_c, 0, 76, 52
1, 88800, Note_on_c, 0, 64, 40
1, 88920, Note_on_c, 0, 64, 0
1, 88920, Note_on_c, 0, 71, 0
1, 88920, Note_on_c, 0, 69, 0
1, 88920, Note_on_c, 0, 76, 0
1, 89040, Tempo, 382044
1, 89040, Note_on_c, 0, 69, 37
1, 89040, Note_on_c, 0, 71, 37
1, 89040, Note_on_c, 0, 74, 48
1, 89040, Note_on_c, 0, 65, 35
1, 89160, Tempo, 362582
1, 89160, Note_on_c, 0, 65, 0
1, 89160, Note_on_c, 0, 69, 0
1, 89160, Note_on_c, 0, 71, 0
1, 89160, Note_on_c, 0, 74, 0
1, 89160, Note_on_c, 0, 72, 46
1, 89220, Note_on_c, 0, 72, 0
1, 89220, Note_on_c, 0, 74, 45
1, 89280, Tempo, 387247
1, 89280, Note_on_c, 0, 74, 0
1, 89280, Note_on_c, 0, 65, 44
1, 89280, Note_on_c, 0, 69, 44
1, 89280, Note_on_c, 0, 72, 57
1, 89280, Note_on_c, 0, 64, 39
1, 89760, Tempo, 382044
1, 89760, Note_on_c, 0, 64, 0
1, 89760, Note_on_c, 0, 65, 0
1, 89760, Note_on_c, 0, 69, 0
1, 89760, Note_on_c, 0, 72, 0
1, 89760, Note_on_c, 0, 65, 54
1, 89760, Note_on_c, 0, 69, 54
1, 89760, Note_on_c, 0, 71, 54
1, 89760, Note_on_c, 0, 62, 45
1, 89874, Control_c, 0, 64, 127
1, 90000, Tempo, 393959
1, 90000, Note_on_c, 0, 62, 0
1, 90000, Note_on_c, 0, 65, 0
1, 90000, Note_on_c, 0, 69, 0
1, 90000, Note_on_c, 0, 71, 0
1, 90000, Note_on_c, 0, 65, 50
1, 90000, Note_on_c, 0, 69, 50
1, 90000, Note_on_c, 0, 72, 50
1, 90000, Note_on_c, 0, 60, 39
1, 90240, Tempo, 391236
1, 90240, Note_on_c, 0, 60, 0
1, 90240, Note_on_c, 0, 65, 0
1, 90240, Note_on_c, 0, 69, 0
1, 90240, Note_on_c, 0, 72, 0
1, 90240, Note_on_c, 0, 65, 55
1, 90240, Note_on_c, 0, 69, 55
1, 90240, Note_on_c, 0, 74, 55
1, 90240, Note_on_c, 0, 59, 44
1, 90260, Control_c, 0, 64, 0
1, 90423, Control_c, 0, 64, 127
1, 90720, Tempo, 376979
1, 90720, Note_on_c, 0, 59, 0
1, 90720, Note_on_c, 0, 65, 0
1, 90720, Note_on_c, 0, 69, 0
1, 90720, Note_on_c, 0, 74, 0
1, 90720, Note_on_c, 0, 63, 46
1, 90720, Note_on_c, 0, 69, 57
1, 90720, Control_c, 0, 64, 0
1, 90720, Note_on_c, 0, 53, 45
1, 90720, Note_on_c, 0, 59, 45
1, 90890, Control_c, 0, 64, 127
1, 90960, Tempo, 406614
1, 90960, Note_on_c, 0, 69, 0
1, 90960, Note_on_c, 0, 71, 61
1, 91200, Tempo, 384640
1, 91200, Note_on_c, 0, 71, 0
1, 91200, Note_on_c, 0, 59, 0
1, 91200, Note_on_c, 0, 53, 0
1, 91200, Note_on_c, 0, 63, 0
1, 91200, Note_on_c, 0, 63, 54
1, 91200, Note_on_c, 0, 69, 60
1, 91200, Note_on_c, 0, 72, 66
1, 91200, Note_on_c, 0, 77, 59
1, 91209, Control_c, 0, 64, 0
1, 91360, Control_c, 0, 64, 127
1, 91680, Tempo, 391236
1, 91680, Note_on_c, 0, 77, 0
1, 91680, Note_on_c, 0, 63, 0
1, 91680, Note_on_c, 0, 69, 0
1, 91680, Note_on_c, 0, 72, 0
1, 91680, Note_on_c, 0, 66, 49
1, 91680, Note_on_c, 0, 63, 49
1, 91680, Note_on_c, 0, 57, 41
1, 91680, Note_on_c, 0, 59, 41
1, 91680, Note_on_c, 0, 71, 60
1, 91680, Note_on_c, 0, 78, 55
1, 91698, Control_c, 0, 64, 0
1, 91920, Tempo, 417043
1, 91920, Note_on_c, 0, 35, 60
1, 91920, Note_on_c, 0, 47, 60
1, 92033, Control_c, 0, 64, 127
1, 92160, Tempo, 389914
1, 92160, Note_on_c, 0, 47, 0
1, 92160, Note_on_c, 0, 66, 0
1, 92160, Note_on_c, 0, 71, 0
1, 92160, Note_on_c, 0, 63, 0
1, 92160, Note_on_c, 0, 57, 0
1, 92160, Note_on_c, 0, 59, 0
1, 92160, Note_on_c, 0, 78, 0
1, 92160, Note_on_c, 0, 35, 0
1, 92160, Note_on_c, 0, 28, 70
1, 92160, Note_on_c, 0, 40, 70
1, 92165, Control_c, 0, 64, 0
1, 92245, Control_c, 0, 64, 127
1, 92400, Tempo, 373274
1, 92400, Note_on_c, 0, 40, 0
1, 92400, Note_on_c, 0, 28, 0
1, 92400, Note_on_c, 0, 61, 45
1, 92400, Note_on_c, 0, 64, 45
1, 92400, Note_on_c, 0, 68, 45
1, 92520, Note_on_c, 0, 68, 0
1, 92520, Note_on_c, 0, 64, 0
1, 92520, Note_on_c, 0, 61, 0
1, 92520, Note_on_c, 0, 59, 45
1, 92640, Tempo, 350304
1, 92640, Note_on_c, 0, 59, 0
1, 92640, Note_on_c, 0, 71, 70
1, 92654, Control_c, 0, 64, 0
1, 92880, Tempo, 366077
1, 92880, Note_on_c, 0, 71, 0
1, 92880, Note_on_c, 0, 59, 45
1, 92880, Note_on_c, 0, 64, 45
1, 92880, Note_on_c, 0, 68, 45
1, 92891, Control_c, 0, 64, 127
1, 92940, Note_on_c, 0, 68, 0
1, 92940, Note_on_c, 0, 64, 0
1, 92940, Note_on_c, 0, 59, 0
1, 93014, Control_c, 0, 64, 0
1, 93120, Tempo, 374508
1, 93120, Note_on_c, 0, 47, 66
1, 93360, Tempo, 396694
1, 93360, Note_on_c, 0, 64, 45
1, 93360, Note_on_c, 0, 59, 45
1, 93360, Note_on_c, 0, 68, 45
1, 93360, Note_on_c, 0, 71, 45
1, 93399, Control_c, 0, 64, 127
1, 93420, Note_on_c, 0, 71, 0
1, 93420, Note_on_c, 0, 59, 0
1, 93420, Note_on_c, 0, 68, 0
1, 93420, Note_on_c, 0, 64, 0
1, 93473, Control_c, 0, 64, 0
1, 93480, Tempo, 439593
1, 93600, Tempo, 389914
1, 93600, Note_on_c, 0, 47, 0
1, 93600, Note_on_c, 0, 45, 66
1, 93600, Note_on_c, 0, 52, 66
1, 93672, Control_c, 0, 64, 127
1, 93840, Tempo, 378239
1, 93840, Note_on_c, 0, 64, 63
1, 93840, Note_on_c, 0, 74, 63
1, 93840, Note_on_c, 0, 76, 63
1, 94080, Tempo, 367264
1, 94080, Note_on_c, 0, 76, 0
1, 94080, Note_on_c, 0, 64, 0
1, 94080, Note_on_c, 0, 45, 0
1, 94080, Note_on_c, 0, 52, 0
1, 94080, Note_on_c, 0, 74, 0
1, 94080, Note_on_c, 0, 66, 67
1, 94080, Note_on_c, 0, 78, 67
1, 94080, Note_on_c, 0, 62, 58
1, 94097, Control_c, 0, 64, 0
1, 94210, Control_c, 0, 64, 127
1, 94320, Tempo, 375752
1, 94320, Note_on_c, 0, 62, 0
1, 94320, Note_on_c, 0, 78, 0
1, 94320, Note_on_c, 0, 66, 0
1, 94320, Note_on_c, 0, 68, 63
1, 94320, Note_on_c, 0, 80, 63
1, 94560, Note_on_c, 0, 80, 0
1, 94560, Note_on_c, 0, 68, 0
1, 94560, Note_on_c, 0, 68, 68
1, 94560, Note_on_c, 0, 74, 68
1, 94560, Note_on_c, 0, 78, 68
1, 94560, Note_on_c, 0, 40, 59
1, 94576, Control_c, 0, 64, 0
1, 94709, Control_c, 0, 64, 127
1, 94800, Tempo, 385927
1, 94800, Note_on_c, 0, 40, 0
1, 94800, Note_on_c, 0, 78, 0
1, 94800, Note_on_c, 0, 74, 0
1, 94800, Note_on_c, 0, 72, 63
1, 94800, Note_on_c, 0, 76, 63
1, 95040, Tempo, 378239
1, 95040, Note_on_c, 0, 76, 0
1, 95040, Note_on_c, 0, 72, 0
1, 95040, Note_on_c, 0, 68, 0
1, 95040, Note_on_c, 0, 64, 56
1, 95040, Note_on_c, 0, 69, 56
1, 95040, Note_on_c, 0, 76, 67
1, 95040, Note_on_c, 0, 45, 56
1, 95040, Note_on_c, 0, 52, 56
1, 95040, Note_on_c, 0, 61, 56
1, 95050, Control_c, 0, 64, 0
1, 95153, Control_c, 0, 64, 127
1, 95280, Tempo, 366077
1, 95280, Note_on_c, 0, 61, 0
1, 95280, Note_on_c, 0, 69, 0
1, 95280, Note_on_c, 0, 76, 0
1, 95280, Note_on_c, 0, 64, 0
1, 95280, Note_on_c, 0, 52, 0
1, 95280, Note_on_c, 0, 45, 0
1, 95280, Note_on_c, 0, 68, 53
1, 95280, Note_on_c, 0, 72, 63
1, 95280, Note_on_c, 0, 63, 51
1, 95400, Note_on_c, 0, 63, 0
1, 95400, Note_on_c, 0, 72, 0
1, 95400, Note_on_c, 0, 68, 0
1, 95428, Control_c, 0, 64, 0
1, 95520, Tempo, 364919
1, 95520, Note_on_c, 0, 69, 56
1, 95520, Note_on_c, 0, 73, 67
1, 95520, Note_on_c, 0, 64, 55
1, 95640, Tempo, 366077
1, 95640, Note_on_c, 0, 64, 0
1, 95640, Note_on_c, 0, 73, 0
1, 95640, Note_on_c, 0, 69, 0
1, 95760, Tempo, 367264
1, 95760, Note_on_c, 0, 73, 59
1, 95760, Note_on_c, 0, 76, 70
1, 95760, Note_on_c, 0, 69, 58
1, 95880, Tempo, 368437
1, 95880, Note_on_c, 0, 69, 0
1, 95880, Note_on_c, 0, 76, 0
1, 95880, Note_on_c, 0, 73, 0
1, 96000, Tempo, 369663
1, 96000, Note_on_c, 0, 76, 62
1, 96000, Note_on_c, 0, 81, 74
1, 96000, Note_on_c, 0, 73, 62
1, 96120, Tempo, 370851
1, 96120, Note_on_c, 0, 73, 0
1, 96120, Note_on_c, 0, 81, 0
1, 96120, Note_on_c, 0, 76, 0
1, 96240, Tempo, 372047
1, 96240, Note_on_c, 0, 85, 78
1, 96240, Note_on_c, 0, 81, 66
1, 96240, Note_on_c, 0, 76, 65
1, 96360, Tempo, 373274
1, 96360, Note_on_c, 0, 76, 0
1, 96360, Note_on_c, 0, 81, 0
1, 96360, Note_on_c, 0, 85, 0
1, 96480, Tempo, 380783
1, 96480, Note_on_c, 0, 88, 81
1, 96480, Note_on_c, 0, 81, 68
1, 96480, Note_on_c, 0, 66, 69
1, 96480, Note_on_c, 0, 73, 69
1, 96678, Control_c, 0, 64, 127
1, 96720, Tempo, 388576
1, 96720, Note_on_c, 0, 73, 0
1, 96720, Note_on_c, 0, 88, 0
1, 96720, Note_on_c, 0, 81, 0
1, 96720, Note_on_c, 0, 66, 0
1, 96720, Note_on_c, 0, 85, 65
1, 96720, Note_on_c, 0, 76, 55
1, 96960, Note_on_c, 0, 76, 0
1, 96960, Note_on_c, 0, 85, 0
1, 96960, Note_on_c, 0, 69, 64
1, 96960, Note_on_c, 0, 76, 74
1, 96960, Note_on_c, 0, 78, 60
1, 97200, Tempo, 393959
1, 97200, Note_on_c, 0, 76, 0
1, 97200, Note_on_c, 0, 69, 0
1, 97200, Note_on_c, 0, 64, 54
1, 97200, Note_on_c, 0, 73, 64
1, 97440, Tempo, 380783
1, 97440, Note_on_c, 0, 73, 0
1, 97440, Note_on_c, 0, 64, 0
1, 97440, Note_on_c, 0, 78, 0
1, 97440, Note_on_c, 0, 69, 63
1, 97440, Note_on_c, 0, 80, 77
1, 97440, Note_on_c, 0, 59, 59
1, 97440, Note_on_c, 0, 63, 63
1, 97455, Control_c, 0, 64, 0
1, 97596, Control_c, 0, 64, 127
1, 97680, Note_on_c, 0, 59, 0
1, 97680, Note_on_c, 0, 80, 0
1, 97680, Note_on_c, 0, 71, 70
1, 97680, Note_on_c, 0, 47, 53
1, 97920, Tempo, 389914
1, 97920, Note_on_c, 0, 47, 0
1, 97920, Note_on_c, 0, 63, 0
1, 97920, Note_on_c, 0, 69, 0
1, 97920, Note_on_c, 0, 71, 0
1, 97920, Note_on_c, 0, 64, 64
1, 97920, Note_on_c, 0, 68, 76
1, 97920, Note_on_c, 0, 76, 76
1, 97920, Note_on_c, 0, 52, 63
1, 97934, Control_c, 0, 64, 0
1, 98075, Control_c, 0, 64, 127
1, 98160, Note_on_c, 0, 52, 0
1, 98160, Note_on_c, 0, 64, 0
1, 98160, Note_on_c, 0, 68, 0
1, 98160, Note_on_c, 0, 76, 0
1, 98400, Note_on_c, 0, 88, 97
1, 98400, Note_on_c, 0, 80, 81
1, 98400, Note_on_c, 0, 76, 80
1, 98400, Note_on_c, 0, 40, 69
1, 98640, Note_on_c, 0, 40, 0
1, 98640, Note_on_c, 0, 88, 0
1, 98640, Note_on_c, 0, 80, 0
1, 98640, Note_on_c, 0, 76, 0
1, 98711, Control_c, 0, 64, 0
1, 99360, Key_signature, 0, "major"
1, 99360, Tempo, 334262
1, 99360, Control_c, 0, 64, 127
1, 99360, Note_on_c, 0, 48, 51
1, 99480, Note_on_c, 0, 48, 0
1, 99600, Tempo, 362494
1, 99600, Note_on_c, 0, 57, 35
1, 99600, Note_on_c, 0, 60, 35
1, 99600, Note_on_c, 0, 64, 35
1, 99720, Note_on_c, 0, 64, 0
1, 99720, Note_on_c, 0, 60, 0
1, 99720, Note_on_c, 0, 57, 0
1, 99720, Note_on_c, 0, 55, 35
1, 99830, Note_on_c, 0, 55, 0
1, 99840, Tempo, 340870
1, 99840, Note_on_c, 0, 55, 49
1, 99851, Control_c, 0, 64, 0
1, 99900, Note_on_c, 0, 55, 0
1, 100080, Tempo, 361424
1, 100080, Note_on_c, 0, 55, 35
1, 100080, Note_on_c, 0, 60, 35
1, 100080, Note_on_c, 0, 64, 35
1, 100091, Control_c, 0, 64, 127
1, 100140, Note_on_c, 0, 64, 0
1, 100140, Note_on_c, 0, 60, 0
1, 100140, Note_on_c, 0, 55, 0
1, 100320, Note_on_c, 0, 43, 49
1, 100334, Control_c, 0, 64, 0
1, 100380, Note_on_c, 0, 43, 0
1, 100560, Tempo, 367467
1, 100560, Note_on_c, 0, 55, 35
1, 100560, Note_on_c, 0, 60, 35
1, 100560, Note_on_c, 0, 64, 35
1, 100599, Control_c, 0, 64, 127
1, 100620, Note_on_c, 0, 64, 0
1, 100620, Note_on_c, 0, 60, 0
1, 100620, Note_on_c, 0, 55, 0
1, 100673, Control_c, 0, 64, 0
1, 100800, Tempo, 328138
1, 100800, Note_on_c, 0, 48, 51
1, 100860, Control_c, 0, 64, 127
1, 100920, Note_on_c, 0, 48, 0
1, 101040, Tempo, 362494
1, 101040, Note_on_c, 0, 57, 35
1, 101040, Note_on_c, 0, 60, 35
1, 101040, Note_on_c, 0, 64, 35
1, 101160, Note_on_c, 0, 64, 0
1, 101160, Note_on_c, 0, 60, 0
1, 101160, Note_on_c, 0, 57, 0
1, 101160, Note_on_c, 0, 55, 35
1, 101270, Note_on_c, 0, 55, 0
1, 101280, Tempo, 340870
1, 101280, Note_on_c, 0, 55, 49
1, 101283, Control_c, 0, 64, 0
1, 101340, Note_on_c, 0, 55, 0
1, 101520, Tempo, 361424
1, 101520, Note_on_c, 0, 55, 35
1, 101520, Note_on_c, 0, 60, 35
1, 101520, Note_on_c, 0, 64, 35
1, 101569, Control_c, 0, 64, 127
1, 101580, Note_on_c, 0, 64, 0
1, 101580, Note_on_c, 0, 60, 0
1, 101580, Note_on_c, 0, 55, 0
1, 101696, Control_c, 0, 64, 0
1, 101760, Note_on_c, 0, 43, 49
1, 101820, Note_on_c, 0, 43, 0
1, 102000, Note_on_c, 0, 55, 35
1, 102000, Note_on_c, 0, 60, 35
1, 102000, Note_on_c, 0, 64, 35
1, 102028, Control_c, 0, 64, 127
1, 102060, Note_on_c, 0, 64, 0
1, 102060, Note_on_c, 0, 60, 0
1, 102060, Note_on_c, 0, 55, 0
1, 102141, Control_c, 0, 64, 0
1, 102240, Note_on_c, 0, 50, 51
1, 102316, Control_c, 0, 64, 127
1, 102360, Note_on_c, 0, 50, 0
1, 102480, Tempo, 357675
1, 102480, Note_on_c, 0, 57, 35
1, 102480, Note_on_c, 0, 59, 35
1, 102480, Note_on_c, 0, 65, 35
1, 102600, Note_on_c, 0, 65, 0
1, 102600, Note_on_c, 0, 59, 0
1, 102600, Note_on_c, 0, 57, 0
1, 102600, Note_on_c, 0, 55, 35
1, 102640, Tempo, 356464
1, 102710, Note_on_c, 0, 55, 0
1, 102720, Note_on_c, 0, 55, 51
1, 102760, Tempo, 355303
1, 102880, Tempo, 354129
1, 102960, Note_on_c, 0, 57, 36
1, 102960, Note_on_c, 0, 59, 36
1, 102960, Note_on_c, 0, 65, 36
1, 103040, Tempo, 352962
1, 103070, Note_on_c, 0, 55, 0
1, 103080, Note_on_c, 0, 57, 0
1, 103080, Note_on_c, 0, 59, 0
1, 103080, Note_on_c, 0, 65, 0
1, 103080, Note_on_c, 0, 55, 36
1, 103160, Tempo, 351803
1, 103200, Note_on_c, 0, 55, 0
1, 103200, Note_on_c, 0, 57, 55
1, 103280, Tempo, 350672
1, 103400, Tempo, 349508
1, 103440, Tempo, 370005
1, 103440, Note_on_c, 0, 57, 38
1, 103440, Note_on_c, 0, 59, 38
1, 103440, Note_on_c, 0, 65, 38
1, 103560, Note_on_c, 0, 65, 0
1, 103560, Note_on_c, 0, 59, 0
1, 103560, Note_on_c, 0, 57, 0
1, 103560, Note_on_c, 0, 55, 38
1, 103680, Tempo, 357675
1, 103680, Note_on_c, 0, 55, 0
1, 103680, Note_on_c, 0, 57, 0
1, 103680, Note_on_c, 0, 59, 58
1, 103697, Control_c, 0, 64, 0
1, 103851, Control_c, 0, 64, 127
1, 103910, Note_on_c, 0, 59, 0
1, 103920, Note_on_c, 0, 57, 39
1, 103920, Note_on_c, 0, 59, 39
1, 103920, Note_on_c, 0, 65, 39
1, 104040, Note_on_c, 0, 65, 0
1, 104040, Note_on_c, 0, 59, 0
1, 104040, Note_on_c, 0, 57, 0
1, 104040, Note_on_c, 0, 55, 39
1, 104160, Tempo, 363702
1, 104160, Note_on_c, 0, 55, 0
1, 104160, Note_on_c, 0, 62, 59
1, 104400, Note_on_c, 0, 57, 41
1, 104400, Note_on_c, 0, 59, 41
1, 104400, Note_on_c, 0, 65, 41
1, 104520, Note_on_c, 0, 65, 0
1, 104520, Note_on_c, 0, 59, 0
1, 104520, Note_on_c, 0, 57, 0
1, 104520, Note_on_c, 0, 55, 42
1, 104630, Note_on_c, 0, 55, 0
1, 104640, Note_on_c, 0, 62, 0
1, 104640, Note_on_c, 0, 55, 58
1, 104880, Tempo, 367467
1, 104880, Note_on_c, 0, 57, 43
1, 104880, Note_on_c, 0, 59, 43
1, 104880, Note_on_c, 0, 65, 43
1, 104890, Note_on_c, 0, 55, 0
1, 105000, Note_on_c, 0, 57, 0
1, 105000, Note_on_c, 0, 59, 0
1, 105000, Note_on_c, 0, 65, 0
1, 105000, Note_on_c, 0, 55, 44
1, 105120, Tempo, 334262
1, 105120, Note_on_c, 0, 55, 0
1, 105120, Control_c, 0, 64, 0
1, 105120, Note_on_c, 0, 48, 43
1, 105222, Control_c, 0, 64, 127
1, 105240, Note_on_c, 0, 48, 0
1, 105360, Tempo, 362494
1, 105360, Note_on_c, 0, 57, 29
1, 105360, Note_on_c, 0, 60, 29
1, 105360, Note_on_c, 0, 64, 29
1, 105480, Note_on_c, 0, 64, 0
1, 105480, Note_on_c, 0, 60, 0
1, 105480, Note_on_c, 0, 57, 0
1, 105480, Note_on_c, 0, 55, 29
1, 105590, Note_on_c, 0, 55, 0
1, 105600, Tempo, 340870
1, 105600, Note_on_c, 0, 55, 41
1, 105611, Control_c, 0, 64, 0
1, 105660, Note_on_c, 0, 55, 0
1, 105840, Tempo, 361424
1, 105840, Note_on_c, 0, 55, 29
1, 105840, Note_on_c, 0, 60, 29
1, 105840, Note_on_c, 0, 64, 29
1, 105851, Control_c, 0, 64, 127
1, 105900, Note_on_c, 0, 64, 0
1, 105900, Note_on_c, 0, 60, 0
1, 105900, Note_on_c, 0, 55, 0
1, 105974, Control_c, 0, 64, 0
1, 106080, Note_on_c, 0, 43, 41
1, 106140, Note_on_c, 0, 43, 0
1, 106320, Tempo, 367467
1, 106320, Note_on_c, 0, 55, 29
1, 106320, Note_on_c, 0, 60, 29
1, 106320, Note_on_c, 0, 64, 29
1, 106359, Control_c, 0, 64, 127
1, 106380, Note_on_c, 0, 64, 0
1, 106380, Note_on_c, 0, 60, 0
1, 106380, Note_on_c, 0, 55, 0
1, 106433, Control_c, 0, 64, 0
1, 106560, Tempo, 328138
1, 106560, Note_on_c, 0, 48, 43
1, 106599, Control_c, 0, 64, 127
1, 106680, Note_on_c, 0, 48, 0
1, 106800, Tempo, 362494
1, 106800, Note_on_c, 0, 57, 29
1, 106800, Note_on_c, 0, 60, 29
1, 106800, Note_on_c, 0, 64, 29
1, 106920, Note_on_c, 0, 64, 0
1, 106920, Note_on_c, 0, 60, 0
1, 106920, Note_on_c, 0, 57, 0
1, 106920, Note_on_c, 0, 55, 29
1, 107030, Note_on_c, 0, 55, 0
1, 107040, Tempo, 340870
1, 107040, Note_on_c, 0, 55, 41
1, 107058, Control_c, 0, 64, 0
1, 107100, Note_on_c, 0, 55, 0
1, 107280, Tempo, 361424
1, 107280, Note_on_c, 0, 55, 29
1, 107280, Note_on_c, 0, 60, 29
1, 107280, Note_on_c, 0, 64, 29
1, 107329, Control_c, 0, 64, 127
1, 107340, Note_on_c, 0, 64, 0
1, 107340, Note_on_c, 0, 60, 0
1, 107340, Note_on_c, 0, 55, 0
1, 107456, Control_c, 0, 64, 0
1, 107520, Note_on_c, 0, 43, 41
1, 107580, Note_on_c, 0, 43, 0
1, 107760, Note_on_c, 0, 55, 29
1, 107760, Note_on_c, 0, 60, 29
1, 107760, Note_on_c, 0, 64, 29
1, 107788, Control_c, 0, 64, 127
1, 107820, Note_on_c, 0, 64, 0
1, 107820, Note_on_c, 0, 60, 0
1, 107820, Note_on_c, 0, 55, 0
1, 107901, Control_c, 0, 64, 0
1, 108000, Note_on_c, 0, 50, 43
1, 108057, Control_c, 0, 64, 127
1, 108120, Note_on_c, 0, 50, 0
1, 108240, Tempo, 357675
1, 108240, Note_on_c, 0, 57, 29
1, 108240, Note_on_c, 0, 59, 29
1, 108240, Note_on_c, 0, 65, 29
1, 108360, Note_on_c, 0, 65, 0
1, 108360, Note_on_c, 0, 59, 0
1, 108360, Note_on_c, 0, 57, 0
1, 108360, Note_on_c, 0, 55, 29
1, 108400, Tempo, 356464
1, 108470, Note_on_c, 0, 55, 0
1, 108480, Note_on_c, 0, 55, 43
1, 108520, Tempo, 355303
1, 108640, Tempo, 354129
1, 108720, Note_on_c, 0, 57, 30
1, 108720, Note_on_c, 0, 59, 30
1, 108720, Note_on_c, 0, 65, 30
1, 108800, Tempo, 352962
1, 108830, Note_on_c, 0, 55, 0
1, 108840, Note_on_c, 0, 57, 0
1, 108840, Note_on_c, 0, 59, 0
1, 108840, Note_on_c, 0, 65, 0
1, 108840, Note_on_c, 0, 55, 30
1, 108920, Tempo, 351803
1, 108960, Note_on_c, 0, 55, 0
1, 108960, Note_on_c, 0, 57, 46
1, 109040, Tempo, 350672
1, 109160, Tempo, 349508
1, 109190, Note_on_c, 0, 57, 0
1, 109200, Tempo, 370005
1, 109200, Note_on_c, 0, 57, 32
1, 109200, Note_on_c, 0, 59, 32
1, 109200, Note_on_c, 0, 65, 32
1, 109320, Note_on_c, 0, 65, 0
1, 109320, Note_on_c, 0, 59, 0
1, 109320, Note_on_c, 0, 57, 0
1, 109320, Note_on_c, 0, 55, 32
1, 109440, Tempo, 357675
1, 109440, Note_on_c, 0, 55, 0
1, 109440, Note_on_c, 0, 59, 49
1, 109464, Control_c, 0, 64, 0
1, 109573, Control_c, 0, 64, 127
1, 109670, Note_on_c, 0, 59, 0
1, 109680, Note_on_c, 0, 57, 33
1, 109680, Note_on_c, 0, 59, 33
1, 109680, Note_on_c, 0, 65, 33
1, 109800, Note_on_c, 0, 65, 0
1, 109800, Note_on_c, 0, 59, 0
1, 109800, Note_on_c, 0, 57, 0
1, 109800, Note_on_c, 0, 55, 33
1, 109920, Tempo, 363702
1, 109920, Note_on_c, 0, 55, 0
1, 109920, Note_on_c, 0, 62, 50
1, 110160, Note_on_c, 0, 57, 34
1, 110160, Note_on_c, 0, 59, 34
1, 110160, Note_on_c, 0, 65, 34
1, 110280, Note_on_c, 0, 65, 0
1, 110280, Note_on_c, 0, 59, 0
1, 110280, Note_on_c, 0, 57, 0
1, 110280, Note_on_c, 0, 55, 35
1, 110400, Note_on_c, 0, 55, 0
1, 110400, Note_on_c, 0, 62, 0
1, 110400, Note_on_c, 0, 55, 49
1, 110640, Tempo, 367467
1, 110640, Note_on_c, 0, 57, 36
1, 110640, Note_on_c, 0, 59, 36
1, 110640, Note_on_c, 0, 65, 36
1, 110750, Note_on_c, 0, 55, 0
1, 110760, Note_on_c, 0, 57, 0
1, 110760, Note_on_c, 0, 59, 0
1, 110760, Note_on_c, 0, 65, 0
1, 110760, Note_on_c, 0, 55, 37
1, 110880, Tempo, 368550
1, 110880, Note_on_c, 0, 55, 0
1, 110880, Note_on_c, 0, 84, 54
1, 110880, Note_on_c, 0, 72, 54
1, 110880, Control_c, 0, 64, 0
1, 110880, Note_on_c, 0, 64, 44
1, 111000, Note_on_c, 0, 64, 0
1, 111000, Note_on_c, 0, 72, 0
1, 111000, Note_on_c, 0, 84, 0
1, 111120, Tempo, 352879
1, 111120, Note_on_c, 0, 86, 56
1, 111120, Note_on_c, 0, 74, 56
1, 111120, Note_on_c, 0, 67, 45
1, 111240, Note_on_c, 0, 67, 0
1, 111240, Note_on_c, 0, 74, 0
1, 111240, Note_on_c, 0, 86, 0
1, 111360, Tempo, 358017
1, 111360, Note_on_c, 0, 76, 59
1, 111360, Note_on_c, 0, 88, 59
1, 111360, Note_on_c, 0, 72, 45
1, 111395, Control_c, 0, 64, 127
1, 111480, Note_on_c, 0, 72, 0
1, 111600, Tempo, 352485
1, 111600, Note_on_c, 0, 71, 43
1, 111720, Note_on_c, 0, 71, 0
1, 111840, Tempo, 352485
1, 111840, Note_on_c, 0, 88, 0
1, 111840, Note_on_c, 0, 76, 0
1, 111840, Note_on_c, 0, 74, 55
1, 111840, Note_on_c, 0, 86, 55
1, 111840, Note_on_c, 0, 70, 44
1, 111854, Control_c, 0, 64, 0
1, 111960, Note_on_c, 0, 70, 0
1, 111960, Note_on_c, 0, 86, 0
1, 111960, Note_on_c, 0, 74, 0
1, 112080, Tempo, 361424
1, 112080, Note_on_c, 0, 72, 51
1, 112080, Note_on_c, 0, 84, 51
1, 112080, Note_on_c, 0, 69, 41
1, 112200, Note_on_c, 0, 69, 0
1, 112200, Note_on_c, 0, 84, 0
1, 112200, Note_on_c, 0, 72, 0
1, 112200, Note_on_c, 0, 74, 44
1, 112200, Note_on_c, 0, 86, 44
1, 112249, Control_c, 0, 64, 127
1, 112260, Note_on_c, 0, 86, 0
1, 112260, Note_on_c, 0, 74, 0
1, 112260, Note_on_c, 0, 76, 44
1, 112260, Note_on_c, 0, 88, 44
1, 112320, Tempo, 352485
1, 112320, Note_on_c, 0, 88, 0
1, 112320, Note_on_c, 0, 76, 0
1, 112320, Note_on_c, 0, 86, 55
1, 112320, Note_on_c, 0, 74, 55
1, 112320, Note_on_c, 0, 68, 45
1, 112327, Control_c, 0, 64, 0
1, 112376, Control_c, 0, 64, 127
1, 112440, Note_on_c, 0, 68, 0
1, 112560, Tempo, 358017
1, 112560, Note_on_c, 0, 66, 42
1, 112680, Note_on_c, 0, 66, 0
1, 112800, Tempo, 352485
1, 112800, Note_on_c, 0, 74, 0
1, 112800, Note_on_c, 0, 86, 0
1, 112800, Note_on_c, 0, 72, 52
1, 112800, Note_on_c, 0, 84, 52
1, 112800, Note_on_c, 0, 67, 44
1, 112817, Control_c, 0, 64, 0
1, 112920, Note_on_c, 0, 67, 0
1, 112920, Note_on_c, 0, 84, 0
1, 112920, Note_on_c, 0, 72, 0
1, 113040, Tempo, 364919
1, 113040, Note_on_c, 0, 67, 50
1, 113040, Note_on_c, 0, 79, 50
1, 113040, Note_on_c, 0, 64, 41
1, 113160, Note_on_c, 0, 64, 0
1, 113160, Note_on_c, 0, 79, 0
1, 113160, Note_on_c, 0, 67, 0
1, 113280, Tempo, 355787
1, 113280, Note_on_c, 0, 64, 56
1, 113280, Note_on_c, 0, 76, 56
1, 113280, Note_on_c, 0, 60, 37
1, 113360, Control_c, 0, 64, 127
1, 113400, Note_on_c, 0, 60, 0
1, 113520, Tempo, 361424
1, 113520, Note_on_c, 0, 76, 0
1, 113520, Note_on_c, 0, 64, 0
1, 113520, Note_on_c, 0, 68, 45
1, 113520, Note_on_c, 0, 74, 45
1, 113520, Note_on_c, 0, 58, 37
1, 113760, Tempo, 352485
1, 113760, Note_on_c, 0, 58, 0
1, 113760, Note_on_c, 0, 74, 0
1, 113760, Note_on_c, 0, 68, 0
1, 113760, Note_on_c, 0, 70, 45
1, 113760, Note_on_c, 0, 73, 45
1, 113760, Note_on_c, 0, 57, 34
1, 113776, Control_c, 0, 64, 0
1, 113897, Control_c, 0, 64, 127
1, 114000, Tempo, 360295
1, 114000, Note_on_c, 0, 57, 0
1, 114000, Note_on_c, 0, 73, 0
1, 114000, Note_on_c, 0, 70, 0
1, 114000, Note_on_c, 0, 72, 47
1, 114000, Note_on_c, 0, 75, 47
1, 114000, Note_on_c, 0, 66, 36
1, 114240, Tempo, 354673
1, 114240, Note_on_c, 0, 66, 0
1, 114240, Note_on_c, 0, 75, 0
1, 114240, Note_on_c, 0, 72, 0
1, 114240, Note_on_c, 0, 73, 49
1, 114240, Note_on_c, 0, 76, 49
1, 114240, Note_on_c, 0, 67, 37
1, 114250, Control_c, 0, 64, 0
1, 114377, Control_c, 0, 64, 127
1, 114480, Tempo, 360295
1, 114480, Note_on_c, 0, 67, 0
1, 114480, Note_on_c, 0, 76, 0
1, 114480, Note_on_c, 0, 73, 0
1, 114480, Note_on_c, 0, 82, 51
1, 114480, Note_on_c, 0, 76, 51
1, 114480, Note_on_c, 0, 62, 39
1, 114720, Tempo, 352485
1, 114720, Note_on_c, 0, 62, 0
1, 114720, Note_on_c, 0, 76, 0
1, 114720, Note_on_c, 0, 82, 0
1, 114720, Note_on_c, 0, 81, 53
1, 114720, Note_on_c, 0, 79, 53
1, 114720, Note_on_c, 0, 61, 41
1, 114730, Control_c, 0, 64, 0
1, 114857, Control_c, 0, 64, 127
1, 114960, Tempo, 367264
1, 114960, Note_on_c, 0, 61, 0
1, 114960, Note_on_c, 0, 79, 0
1, 114960, Note_on_c, 0, 81, 0
1, 114960, Note_on_c, 0, 88, 54
1, 114960, Note_on_c, 0, 79, 54
1, 114960, Note_on_c, 0, 57, 43
1, 115200, Tempo, 362582
1, 115200, Note_on_c, 0, 57, 0
1, 115200, Note_on_c, 0, 79, 0
1, 115200, Note_on_c, 0, 88, 0
1, 115200, Note_on_c, 0, 86, 59
1, 115200, Note_on_c, 0, 77, 59
1, 115200, Note_on_c, 0, 62, 45
1, 115210, Control_c, 0, 64, 0
1, 115326, Control_c, 0, 64, 127
1, 115440, Tempo, 356909
1, 115440, Note_on_c, 0, 77, 0
1, 115440, Note_on_c, 0, 86, 0
1, 115440, Note_on_c, 0, 75, 54
1, 115440, Note_on_c, 0, 81, 54
1, 115440, Note_on_c, 0, 72, 42
1, 115520, Tempo, 358017
1, 115600, Tempo, 359152
1, 115680, Tempo, 360295
1, 115680, Note_on_c, 0, 72, 0
1, 115680, Note_on_c, 0, 81, 0
1, 115680, Note_on_c, 0, 75, 0
1, 115680, Note_on_c, 0, 74, 57
1, 115680, Note_on_c, 0, 80, 57
1, 115680, Note_on_c, 0, 71, 44
1, 115694, Control_c, 0, 64, 0
1, 115760, Tempo, 361424
1, 115794, Control_c, 0, 64, 127
1, 115840, Tempo, 362582
1, 115920, Tempo, 363725
1, 115920, Note_on_c, 0, 71, 0
1, 115920, Note_on_c, 0, 80, 0
1, 115920, Note_on_c, 0, 74, 0
1, 115920, Note_on_c, 0, 85, 51
1, 115920, Note_on_c, 0, 76, 51
1, 115920, Note_on_c, 0, 70, 45
1, 116000, Tempo, 364919
1, 116080, Tempo, 366077
1, 116160, Tempo, 367264
1, 116160, Note_on_c, 0, 70, 0
1, 116160, Note_on_c, 0, 76, 0
1, 116160, Note_on_c, 0, 85, 0
1, 116160, Note_on_c, 0, 78, 60
1, 116160, Note_on_c, 0, 86, 60
1, 116160, Note_on_c, 0, 69, 47
1, 116177, Control_c, 0, 64, 0
1, 116240, Tempo, 368437
1, 116309, Control_c, 0, 64, 127
1, 116320, Tempo, 369663
1, 116400, Tempo, 370851
1, 116400, Note_on_c, 0, 62, 0
1, 116400, Note_on_c, 0, 57, 37
1, 116440, Tempo, 372047
1, 116480, Tempo, 372347
1, 116600, Tempo, 373646
1, 116640, Tempo, 368550
1, 116640, Note_on_c, 0, 57, 0
1, 116640, Note_on_c, 0, 69, 0
1, 116640, Note_on_c, 0, 86, 0
1, 116640, Note_on_c, 0, 78, 0
1, 116640, Note_on_c, 0, 86, 64
1, 116640, Note_on_c, 0, 74, 55
1, 116640, Control_c, 0, 64, 0
1, 116640, Note_on_c, 0, 65, 48
1, 116760, Note_on_c, 0, 65, 0
1, 116760, Note_on_c, 0, 74, 0
1, 116760, Note_on_c, 0, 86, 0
1, 116880, Tempo, 352879
1, 116880, Note_on_c, 0, 88, 67
1, 116880, Note_on_c, 0, 76, 56
1, 116880, Note_on_c, 0, 69, 49
1, 117000, Note_on_c, 0, 69, 0
1, 117000, Note_on_c, 0, 76, 0
1, 117000, Note_on_c, 0, 88, 0
1, 117120, Tempo, 361424
1, 117120, Note_on_c, 0, 77, 59
1, 117120, Note_on_c, 0, 89, 70
1, 117120, Note_on_c, 0, 74, 49
1, 117155, Control_c, 0, 64, 127
1, 117240, Note_on_c, 0, 74, 0
1, 117360, Tempo, 354673
1, 117360, Note_on_c, 0, 73, 47
1, 117480, Note_on_c, 0, 73, 0
1, 117600, Tempo, 352485
1, 117600, Note_on_c, 0, 89, 0
1, 117600, Note_on_c, 0, 77, 0
1, 117600, Note_on_c, 0, 76, 56
1, 117600, Note_on_c, 0, 88, 66
1, 117600, Note_on_c, 0, 72, 48
1, 117611, Control_c, 0, 64, 0
1, 117720, Note_on_c, 0, 72, 0
1, 117720, Note_on_c, 0, 88, 0
1, 117720, Note_on_c, 0, 76, 0
1, 117840, Tempo, 361424
1, 117840, Note_on_c, 0, 74, 51
1, 117840, Note_on_c, 0, 86, 61
1, 117840, Note_on_c, 0, 71, 45
1, 117960, Note_on_c, 0, 71, 0
1, 117960, Note_on_c, 0, 86, 0
1, 117960, Note_on_c, 0, 74, 0
1, 117960, Note_on_c, 0, 76, 44
1, 117960, Note_on_c, 0, 88, 52
1, 117985, Control_c, 0, 64, 127
1, 118020, Note_on_c, 0, 88, 0
1, 118020, Note_on_c, 0, 76, 0
1, 118020, Note_on_c, 0, 77, 44
1, 118020, Note_on_c, 0, 89, 52
1, 118080, Tempo, 352485
1, 118080, Note_on_c, 0, 89, 0
1, 118080, Note_on_c, 0, 77, 0
1, 118080, Note_on_c, 0, 88, 66
1, 118080, Note_on_c, 0, 76, 56
1, 118080, Note_on_c, 0, 70, 49
1, 118097, Control_c, 0, 64, 0
1, 118136, Control_c, 0, 64, 127
1, 118200, Note_on_c, 0, 70, 0
1, 118320, Tempo, 358017
1, 118320, Note_on_c, 0, 68, 46
1, 118440, Note_on_c, 0, 68, 0
1, 118560, Tempo, 353565
1, 118560, Note_on_c, 0, 76, 0
1, 118560, Note_on_c, 0, 88, 0
1, 118560, Note_on_c, 0, 74, 52
1, 118560, Note_on_c, 0, 86, 62
1, 118560, Note_on_c, 0, 69, 48
1, 118572, Control_c, 0, 64, 0
1, 118680, Note_on_c, 0, 69, 0
1, 118680, Note_on_c, 0, 86, 0
1, 118680, Note_on_c, 0, 74, 0
1, 118800, Tempo, 364919
1, 118800, Note_on_c, 0, 69, 49
1, 118800, Note_on_c, 0, 81, 58
1, 118800, Note_on_c, 0, 65, 45
1, 118920, Note_on_c, 0, 65, 0
1, 118920, Note_on_c, 0, 81, 0
1, 118920, Note_on_c, 0, 69, 0
1, 119040, Tempo, 356909
1, 119040, Note_on_c, 0, 65, 46
1, 119040, Note_on_c, 0, 77, 55
1, 119040, Note_on_c, 0, 62, 40
1, 119120, Control_c, 0, 64, 127
1, 119160, Note_on_c, 0, 62, 0
1, 119160, Note_on_c, 0, 77, 0
1, 119160, Note_on_c, 0, 65, 0
1, 119280, Tempo, 362582
1, 119280, Note_on_c, 0, 69, 49
1, 119280, Note_on_c, 0, 76, 58
1, 119280, Note_on_c, 0, 60, 40
1, 119520, Tempo, 353565
1, 119520, Note_on_c, 0, 60, 0
1, 119520, Note_on_c, 0, 76, 0
1, 119520, Note_on_c, 0, 69, 0
1, 119520, Note_on_c, 0, 69, 45
1, 119520, Note_on_c, 0, 75, 45
1, 119520, Note_on_c, 0, 59, 34
1, 119524, Control_c, 0, 64, 0
1, 119623, Control_c, 0, 64, 127
1, 119760, Tempo, 362582
1, 119760, Note_on_c, 0, 75, 0
1, 119760, Note_on_c, 0, 69, 0
1, 119760, Note_on_c, 0, 72, 47
1, 119760, Note_on_c, 0, 76, 47
1, 119760, Note_on_c, 0, 67, 36
1, 120000, Tempo, 358017
1, 120000, Note_on_c, 0, 67, 0
1, 120000, Note_on_c, 0, 76, 0
1, 120000, Note_on_c, 0, 72, 0
1, 120000, Note_on_c, 0, 75, 49
1, 120000, Note_on_c, 0, 78, 49
1, 120000, Note_on_c, 0, 69, 37
1, 120009, Control_c, 0, 64, 0
1, 120126, Control_c, 0, 64, 127
1, 120240, Tempo, 362582
1, 120240, Note_on_c, 0, 69, 0
1, 120240, Note_on_c, 0, 78, 0
1, 120240, Note_on_c, 0, 75, 0
1, 120240, Note_on_c, 0, 81, 51
1, 120240, Note_on_c, 0, 79, 51
1, 120240, Note_on_c, 0, 64, 39
1, 120480, Tempo, 353565
1, 120480, Note_on_c, 0, 64, 0
1, 120480, Note_on_c, 0, 79, 0
1, 120480, Note_on_c, 0, 81, 0
1, 120480, Note_on_c, 0, 84, 53
1, 120480, Note_on_c, 0, 78, 53
1, 120480, Note_on_c, 0, 63, 41
1, 120500, Control_c, 0, 64, 0
1, 120640, Control_c, 0, 64, 127
1, 120720, Tempo, 368437
1, 120720, Note_on_c, 0, 63, 0
1, 120720, Note_on_c, 0, 59, 0
1, 120720, Note_on_c, 0, 84, 0
1, 120720, Note_on_c, 0, 78, 0
1, 120720, Note_on_c, 0, 83, 54
1, 120720, Note_on_c, 0, 81, 54
1, 120720, Note_on_c, 0, 59, 43
1, 120960, Tempo, 363725
1, 120960, Note_on_c, 0, 59, 0
1, 120960, Note_on_c, 0, 81, 0
1, 120960, Note_on_c, 0, 83, 0
1, 120960, Note_on_c, 0, 91, 59
1, 120960, Note_on_c, 0, 79, 59
1, 120960, Note_on_c, 0, 64, 45
1, 120975, Control_c, 0, 64, 0
1, 121086, Control_c, 0, 64, 127
1, 121200, Tempo, 355787
1, 121200, Note_on_c, 0, 79, 0
1, 121200, Note_on_c, 0, 91, 0
1, 121200, Note_on_c, 0, 75, 54
1, 121200, Note_on_c, 0, 84, 54
1, 121200, Note_on_c, 0, 69, 42
1, 121280, Tempo, 356909
1, 121360, Tempo, 358017
1, 121440, Tempo, 359152
1, 121440, Note_on_c, 0, 69, 0
1, 121440, Note_on_c, 0, 84, 0
1, 121440, Note_on_c, 0, 75, 0
1, 121440, Note_on_c, 0, 76, 57
1, 121440, Note_on_c, 0, 83, 57
1, 121440, Note_on_c, 0, 67, 44
1, 121454, Control_c, 0, 64, 0
1, 121520, Tempo, 360295
1, 121554, Control_c, 0, 64, 127
1, 121560, Tempo, 361424
1, 121640, Tempo, 362582
1, 121680, Note_on_c, 0, 67, 0
1, 121680, Note_on_c, 0, 83, 0
1, 121680, Note_on_c, 0, 76, 0
1, 121680, Note_on_c, 0, 87, 51
1, 121680, Note_on_c, 0, 81, 51
1, 121680, Note_on_c, 0, 72, 45
1, 121720, Tempo, 363725
1, 121800, Tempo, 364919
1, 121880, Tempo, 366077
1, 121920, Tempo, 367264
1, 121920, Note_on_c, 0, 72, 0
1, 121920, Note_on_c, 0, 81, 0
1, 121920, Note_on_c, 0, 87, 0
1, 121920, Note_on_c, 0, 79, 60
1, 121920, Note_on_c, 0, 88, 60
1, 121920, Note_on_c, 0, 71, 47
1, 121937, Control_c, 0, 64, 0
1, 122000, Tempo, 368437
1, 122069, Control_c, 0, 64, 127
1, 122080, Tempo, 369663
1, 122160, Tempo, 370851
1, 122160, Note_on_c, 0, 64, 0
1, 122160, Note_on_c, 0, 59, 37
1, 122240, Tempo, 372047
1, 122280, Tempo, 373274
1, 122360, Tempo, 373646
1, 122400, Tempo, 368550
1, 122400, Note_on_c, 0, 59, 0
1, 122400, Note_on_c, 0, 71, 0
1, 122400, Note_on_c, 0, 88, 0
1, 122400, Note_on_c, 0, 79, 0
1, 122400, Note_on_c, 0, 88, 64
1, 122400, Note_on_c, 0, 76, 55
1, 122400, Note_on_c, 0, 67, 48
1, 122404, Control_c, 0, 64, 0
1, 122520, Note_on_c, 0, 67, 0
1, 122520, Note_on_c, 0, 76, 0
1, 122520, Note_on_c, 0, 88, 0
1, 122640, Tempo, 352879
1, 122640, Note_on_c, 0, 90, 67
1, 122640, Note_on_c, 0, 78, 56
1, 122640, Note_on_c, 0, 71, 49
1, 122760, Note_on_c, 0, 71, 0
1, 122760, Note_on_c, 0, 78, 0
1, 122760, Note_on_c, 0, 90, 0
1, 122880, Tempo, 361424
1, 122880, Note_on_c, 0, 79, 59
1, 122880, Note_on_c, 0, 91, 70
1, 122880, Note_on_c, 0, 76, 49
1, 122915, Control_c, 0, 64, 127
1, 123000, Note_on_c, 0, 76, 0
1, 123120, Note_on_c, 0, 75, 47
1, 123240, Note_on_c, 0, 75, 0
1, 123360, Tempo, 352485
1, 123360, Note_on_c, 0, 91, 0
1, 123360, Note_on_c, 0, 79, 0
1, 123360, Note_on_c, 0, 78, 56
1, 123360, Note_on_c, 0, 90, 66
1, 123360, Note_on_c, 0, 74, 48
1, 123371, Control_c, 0, 64, 0
1, 123480, Note_on_c, 0, 74, 0
1, 123480, Note_on_c, 0, 90, 0
1, 123480, Note_on_c, 0, 78, 0
1, 123600, Tempo, 361424
1, 123600, Note_on_c, 0, 76, 51
1, 123600, Note_on_c, 0, 88, 61
1, 123600, Note_on_c, 0, 73, 45
1, 123720, Note_on_c, 0, 73, 0
1, 123720, Note_on_c, 0, 88, 0
1, 123720, Note_on_c, 0, 76, 0
1, 123720, Note_on_c, 0, 78, 44
1, 123720, Note_on_c, 0, 90, 52
1, 123755, Control_c, 0, 64, 127
1, 123780, Note_on_c, 0, 90, 0
1, 123780, Note_on_c, 0, 78, 0
1, 123780, Note_on_c, 0, 79, 44
1, 123780, Note_on_c, 0, 91, 52
1, 123840, Tempo, 352485
1, 123840, Note_on_c, 0, 91, 0
1, 123840, Note_on_c, 0, 79, 0
1, 123840, Note_on_c, 0, 90, 66
1, 123840, Note_on_c, 0, 78, 56
1, 123840, Note_on_c, 0, 72, 49
1, 123860, Control_c, 0, 64, 0
1, 123896, Control_c, 0, 64, 127
1, 123960, Note_on_c, 0, 72, 0
1, 124080, Tempo, 358017
1, 124080, Note_on_c, 0, 70, 46
1, 124200, Note_on_c, 0, 70, 0
1, 124320, Tempo, 358017
1, 124320, Note_on_c, 0, 78, 0
1, 124320, Note_on_c, 0, 90, 0
1, 124320, Note_on_c, 0, 76, 52
1, 124320, Note_on_c, 0, 88, 62
1, 124320, Note_on_c, 0, 71, 48
1, 124332, Control_c, 0, 64, 0
1, 124440, Note_on_c, 0, 71, 0
1, 124440, Note_on_c, 0, 88, 0
1, 124440, Note_on_c, 0, 76, 0
1, 124560, Tempo, 364919
1, 124560, Note_on_c, 0, 71, 49
1, 124560, Note_on_c, 0, 83, 58
1, 124560, Note_on_c, 0, 67, 45
1, 124680, Note_on_c, 0, 67, 0
1, 124680, Note_on_c, 0, 83, 0
1, 124680, Note_on_c, 0, 71, 0
1, 124800, Tempo, 363725
1, 124800, Note_on_c, 0, 67, 46
1, 124800, Note_on_c, 0, 79, 55
1, 124800, Note_on_c, 0, 64, 40
1, 124834, Control_c, 0, 64, 127
1, 124920, Note_on_c, 0, 64, 0
1, 125040, Tempo, 368550
1, 125040, Note_on_c, 0, 59, 40
1, 125160, Note_on_c, 0, 59, 0
1, 125280, Tempo, 368550
1, 125280, Note_on_c, 0, 79, 0
1, 125280, Note_on_c, 0, 67, 0
1, 125280, Note_on_c, 0, 91, 70
1, 125280, Note_on_c, 0, 79, 59
1, 125280, Note_on_c, 0, 70, 52
1, 125291, Control_c, 0, 64, 0
1, 125400, Note_on_c, 0, 70, 0
1, 125400, Note_on_c, 0, 79, 0
1, 125400, Note_on_c, 0, 91, 0
1, 125520, Tempo, 352879
1, 125520, Note_on_c, 0, 93, 73
1, 125520, Note_on_c, 0, 81, 61
1, 125520, Note_on_c, 0, 74, 53
1, 125640, Note_on_c, 0, 74, 0
1, 125640, Note_on_c, 0, 81, 0
1, 125640, Note_on_c, 0, 93, 0
1, 125760, Tempo, 361424
1, 125760, Note_on_c, 0, 82, 64
1, 125760, Note_on_c, 0, 94, 77
1, 125760, Note_on_c, 0, 79, 53
1, 125795, Control_c, 0, 64, 127
1, 125880, Note_on_c, 0, 79, 0
1, 126000, Note_on_c, 0, 78, 51
1, 126120, Note_on_c, 0, 78, 0
1, 126240, Tempo, 352485
1, 126240, Note_on_c, 0, 94, 0
1, 126240, Note_on_c, 0, 82, 0
1, 126240, Note_on_c, 0, 81, 61
1, 126240, Note_on_c, 0, 93, 72
1, 126240, Note_on_c, 0, 77, 52
1, 126254, Control_c, 0, 64, 0
1, 126360, Note_on_c, 0, 77, 0
1, 126360, Note_on_c, 0, 93, 0
1, 126360, Note_on_c, 0, 81, 0
1, 126480, Tempo, 361424
1, 126480, Note_on_c, 0, 79, 56
1, 126480, Note_on_c, 0, 91, 67
1, 126480, Note_on_c, 0, 76, 49
1, 126600, Note_on_c, 0, 76, 0
1, 126600, Note_on_c, 0, 91, 0
1, 126600, Note_on_c, 0, 79, 0
1, 126600, Note_on_c, 0, 81, 48
1, 126600, Note_on_c, 0, 93, 57
1, 126618, Control_c, 0, 64, 127
1, 126660, Note_on_c, 0, 93, 0
1, 126660, Note_on_c, 0, 81, 0
1, 126660, Note_on_c, 0, 82, 48
1, 126660, Note_on_c, 0, 94, 57
1, 126720, Tempo, 352485
1, 126720, Note_on_c, 0, 94, 0
1, 126720, Note_on_c, 0, 82, 0
1, 126720, Note_on_c, 0, 93, 72
1, 126720, Note_on_c, 0, 81, 61
1, 126720, Note_on_c, 0, 75, 53
1, 126731, Control_c, 0, 64, 0
1, 126776, Control_c, 0, 64, 127
1, 126840, Note_on_c, 0, 75, 0
1, 126960, Tempo, 358017
1, 126960, Note_on_c, 0, 73, 50
1, 127080, Note_on_c, 0, 73, 0
1, 127200, Tempo, 358017
1, 127200, Note_on_c, 0, 81, 0
1, 127200, Note_on_c, 0, 93, 0
1, 127200, Note_on_c, 0, 79, 57
1, 127200, Note_on_c, 0, 91, 68
1, 127200, Note_on_c, 0, 74, 52
1, 127212, Control_c, 0, 64, 0
1, 127320, Note_on_c, 0, 74, 0
1, 127320, Note_on_c, 0, 91, 0
1, 127320, Note_on_c, 0, 79, 0
1, 127440, Tempo, 364919
1, 127440, Note_on_c, 0, 74, 53
1, 127440, Note_on_c, 0, 86, 63
1, 127440, Note_on_c, 0, 70, 49
1, 127560, Note_on_c, 0, 70, 0
1, 127560, Note_on_c, 0, 86, 0
1, 127560, Note_on_c, 0, 74, 0
1, 127680, Tempo, 363725
1, 127680, Note_on_c, 0, 70, 50
1, 127680, Note_on_c, 0, 82, 60
1, 127680, Note_on_c, 0, 67, 44
1, 127800, Note_on_c, 0, 67, 0
1, 127800, Control_c, 0, 64, 127
1, 127920, Tempo, 368550
1, 127920, Note_on_c, 0, 62, 44
1, 128040, Note_on_c, 0, 62, 0
1, 128160, Tempo, 368550
1, 128160, Note_on_c, 0, 82, 0
1, 128160, Note_on_c, 0, 70, 0
1, 128160, Note_on_c, 0, 94, 77
1, 128160, Note_on_c, 0, 82, 64
1, 128160, Control_c, 0, 64, 0
1, 128160, Note_on_c, 0, 79, 57
1, 128246, Control_c, 0, 64, 127
1, 128280, Note_on_c, 0, 79, 0
1, 128280, Note_on_c, 0, 82, 0
1, 128280, Note_on_c, 0, 94, 0
1, 128400, Tempo, 352879
1, 128400, Note_on_c, 0, 96, 80
1, 128400, Note_on_c, 0, 84, 67
1, 128400, Note_on_c, 0, 81, 58
1, 128520, Note_on_c, 0, 81, 0
1, 128520, Note_on_c, 0, 84, 0
1, 128520, Note_on_c, 0, 96, 0
1, 128640, Tempo, 361424
1, 128640, Note_on_c, 0, 85, 70
1, 128640, Note_on_c, 0, 97, 84
1, 128640, Note_on_c, 0, 82, 58
1, 128658, Control_c, 0, 64, 0
1, 128720, Control_c, 0, 64, 127
1, 128760, Note_on_c, 0, 82, 0
1, 128760, Note_on_c, 0, 97, 0
1, 128760, Note_on_c, 0, 85, 0
1, 128880, Note_on_c, 0, 99, 75
1, 128880, Note_on_c, 0, 87, 62
1, 128880, Note_on_c, 0, 84, 56
1, 129000, Note_on_c, 0, 84, 0
1, 129000, Note_on_c, 0, 87, 0
1, 129000, Note_on_c, 0, 99, 0
1, 129120, Tempo, 352485
1, 129120, Note_on_c, 0, 85, 67
1, 129120, Note_on_c, 0, 97, 79
1, 129120, Note_on_c, 0, 82, 57
1, 129134, Control_c, 0, 64, 0
1, 129229, Control_c, 0, 64, 127
1, 129240, Note_on_c, 0, 82, 0
1, 129240, Note_on_c, 0, 97, 0
1, 129240, Note_on_c, 0, 85, 0
1, 129360, Tempo, 361424
1, 129360, Note_on_c, 0, 84, 61
1, 129360, Note_on_c, 0, 96, 73
1, 129360, Note_on_c, 0, 81, 53
1, 129480, Note_on_c, 0, 81, 0
1, 129480, Note_on_c, 0, 96, 0
1, 129480, Note_on_c, 0, 84, 0
1, 129600, Tempo, 352485
1, 129600, Note_on_c, 0, 95, 79
1, 129600, Note_on_c, 0, 83, 67
1, 129600, Note_on_c, 0, 80, 58
1, 129609, Control_c, 0, 64, 0
1, 129656, Control_c, 0, 64, 127
1, 129720, Note_on_c, 0, 80, 0
1, 129720, Note_on_c, 0, 83, 0
1, 129720, Note_on_c, 0, 95, 0
1, 129840, Tempo, 358017
1, 129840, Note_on_c, 0, 94, 70
1, 129840, Note_on_c, 0, 82, 59
1, 129840, Note_on_c, 0, 79, 55
1, 129960, Note_on_c, 0, 79, 0
1, 129960, Note_on_c, 0, 82, 0
1, 129960, Note_on_c, 0, 94, 0
1, 130080, Tempo, 358017
1, 130080, Note_on_c, 0, 79, 62
1, 130080, Note_on_c, 0, 91, 74
1, 130080, Note_on_c, 0, 76, 57
1, 130096, Control_c, 0, 64, 0
1, 130200, Note_on_c, 0, 76, 0
1, 130200, Note_on_c, 0, 91, 0
1, 130200, Note_on_c, 0, 79, 0
1, 130206, Control_c, 0, 64, 127
1, 130320, Tempo, 364919
1, 130320, Note_on_c, 0, 76, 58
1, 130320, Note_on_c, 0, 88, 69
1, 130320, Note_on_c, 0, 73, 53
1, 130440, Note_on_c, 0, 73, 0
1, 130440, Note_on_c, 0, 88, 0
1, 130440, Note_on_c, 0, 76, 0
1, 130560, Tempo, 363725
1, 130560, Note_on_c, 0, 73, 55
1, 130560, Note_on_c, 0, 85, 66
1, 130560, Note_on_c, 0, 70, 48
1, 130577, Control_c, 0, 64, 0
1, 130680, Note_on_c, 0, 70, 0
1, 130680, Note_on_c, 0, 85, 0
1, 130680, Note_on_c, 0, 73, 0
1, 130680, Control_c, 0, 64, 127
1, 130800, Tempo, 368550
1, 130800, Note_on_c, 0, 82, 55
1, 130800, Note_on_c, 0, 70, 55
1, 130800, Note_on_c, 0, 67, 48
1, 130920, Note_on_c, 0, 67, 0
1, 130920, Note_on_c, 0, 70, 0
1, 130920, Note_on_c, 0, 82, 0
1, 131040, Tempo, 352485
1, 131040, Note_on_c, 0, 88, 75
1, 131040, Note_on_c, 0, 76, 67
1, 131040, Control_c, 0, 64, 0
1, 131040, Note_on_c, 0, 73, 58
1, 131096, Control_c, 0, 64, 127
1, 131160, Note_on_c, 0, 73, 0
1, 131160, Note_on_c, 0, 76, 0
1, 131160, Note_on_c, 0, 88, 0
1, 131280, Tempo, 358017
1, 131280, Note_on_c, 0, 85, 67
1, 131280, Note_on_c, 0, 73, 59
1, 131280, Note_on_c, 0, 70, 55
1, 131400, Note_on_c, 0, 70, 0
1, 131400, Note_on_c, 0, 73, 0
1, 131400, Note_on_c, 0, 85, 0
1, 131520, Tempo, 358017
1, 131520, Note_on_c, 0, 70, 58
1, 131520, Note_on_c, 0, 82, 70
1, 131520, Note_on_c, 0, 67, 54
1, 131536, Control_c, 0, 64, 0
1, 131640, Note_on_c, 0, 67, 0
1, 131640, Note_on_c, 0, 82, 0
1, 131640, Note_on_c, 0, 70, 0
1, 131646, Control_c, 0, 64, 127
1, 131760, Tempo, 364919
1, 131760, Note_on_c, 0, 67, 58
1, 131760, Note_on_c, 0, 79, 69
1, 131760, Note_on_c, 0, 64, 53
1, 131880, Note_on_c, 0, 64, 0
1, 131880, Note_on_c, 0, 79, 0
1, 131880, Note_on_c, 0, 67, 0
1, 132000, Tempo, 363725
1, 132000, Note_on_c, 0, 64, 55
1, 132000, Note_on_c, 0, 76, 66
1, 132000, Note_on_c, 0, 61, 48
1, 132017, Control_c, 0, 64, 0
1, 132120, Note_on_c, 0, 61, 0
1, 132120, Note_on_c, 0, 76, 0
1, 132120, Note_on_c, 0, 64, 0
1, 132120, Control_c, 0, 64, 127
1, 132240, Tempo, 368550
1, 132240, Note_on_c, 0, 73, 55
1, 132240, Note_on_c, 0, 61, 55
1, 132240, Note_on_c, 0, 58, 48
1, 132360, Note_on_c, 0, 58, 0
1, 132360, Note_on_c, 0, 61, 0
1, 132360, Note_on_c, 0, 73, 0
1, 132480, Tempo, 352485
1, 132480, Note_on_c, 0, 82, 71
1, 132480, Note_on_c, 0, 70, 60
1, 132480, Note_on_c, 0, 67, 52
1, 132490, Control_c, 0, 64, 0
1, 132536, Control_c, 0, 64, 127
1, 132600, Note_on_c, 0, 67, 0
1, 132600, Note_on_c, 0, 70, 0
1, 132600, Note_on_c, 0, 82, 0
1, 132720, Tempo, 364919
1, 132720, Note_on_c, 0, 79, 63
1, 132720, Note_on_c, 0, 67, 53
1, 132720, Note_on_c, 0, 64, 49
1, 132840, Note_on_c, 0, 64, 0
1, 132840, Note_on_c, 0, 67, 0
1, 132840, Note_on_c, 0, 79, 0
1, 132960, Tempo, 361424
1, 132960, Note_on_c, 0, 64, 52
1, 132960, Note_on_c, 0, 76, 63
1, 132960, Note_on_c, 0, 61, 48
1, 132976, Control_c, 0, 64, 0
1, 133040, Tempo, 362582
1, 133080, Tempo, 363725
1, 133080, Note_on_c, 0, 61, 0
1, 133080, Note_on_c, 0, 76, 0
1, 133080, Note_on_c, 0, 64, 0
1, 133086, Control_c, 0, 64, 127
1, 133120, Tempo, 364919
1, 133160, Tempo, 366077
1, 133200, Note_on_c, 0, 61, 52
1, 133200, Note_on_c, 0, 73, 62
1, 133200, Note_on_c, 0, 58, 47
1, 133240, Tempo, 367264
1, 133280, Tempo, 368437
1, 133320, Tempo, 369663
1, 133320, Note_on_c, 0, 58, 0
1, 133320, Note_on_c, 0, 73, 0
1, 133320, Note_on_c, 0, 61, 0
1, 133360, Tempo, 370851
1, 133400, Tempo, 372047
1, 133440, Note_on_c, 0, 61, 49
1, 133440, Note_on_c, 0, 58, 49
1, 133440, Note_on_c, 0, 70, 59
1, 133440, Note_on_c, 0, 55, 43
1, 133457, Control_c, 0, 64, 0
1, 133480, Tempo, 373274
1, 133520, Tempo, 374508
1, 133560, Tempo, 375752
1, 133560, Control_c, 0, 64, 127
1, 133600, Tempo, 376979
1, 133640, Tempo, 378239
1, 133680, Note_on_c, 0, 55, 0
1, 133680, Note_on_c, 0, 61, 0
1, 133680, Note_on_c, 0, 58, 0
1, 133680, Note_on_c, 0, 70, 0
1, 133680, Note_on_c, 0, 67, 49
1, 133680, Note_on_c, 0, 73, 49
1, 133680, Note_on_c, 0, 61, 49
1, 133680, Note_on_c, 0, 52, 43
1, 133720, Tempo, 379507
1, 133760, Tempo, 380783
1, 133800, Tempo, 382044
1, 133840, Tempo, 383338
1, 133880, Tempo, 384640
1, 133920, Key_signature, 5, "major"
1, 133920, Tempo, 374508
1, 133920, Note_on_c, 0, 52, 0
1, 133920, Note_on_c, 0, 67, 0
1, 133920, Note_on_c, 0, 73, 0
1, 133920, Note_on_c, 0, 61, 0
1, 133920, Note_on_c, 0, 71, 54
1, 133920, Note_on_c, 0, 59, 45
1, 133920, Note_on_c, 0, 35, 44
1, 133931, Control_c, 0, 64, 0
1, 134057, Control_c, 0, 64, 127
1, 134160, Tempo, 362582
1, 134160, Note_on_c, 0, 35, 0
1, 134160, Note_on_c, 0, 59, 0
1, 134160, Note_on_c, 0, 71, 0
1, 134160, Note_on_c, 0, 73, 56
1, 134160, Note_on_c, 0, 61, 47
1, 134160, Note_on_c, 0, 42, 45
1, 134400, Tempo, 358017
1, 134400, Note_on_c, 0, 42, 0
1, 134400, Note_on_c, 0, 61, 0
1, 134400, Note_on_c, 0, 73, 0
1, 134400, Note_on_c, 0, 71, 59
1, 134400, Note_on_c, 0, 63, 50
1, 134400, Note_on_c, 0, 75, 59
1, 134400, Note_on_c, 0, 43, 45
1, 134415, Control_c, 0, 64, 0
1, 134549, Control_c, 0, 64, 127
1, 134640, Note_on_c, 0, 43, 0
1, 134640, Note_on_c, 0, 42, 43
1, 134880, Tempo, 356909
1, 134880, Note_on_c, 0, 42, 0
1, 134880, Note_on_c, 0, 75, 0
1, 134880, Note_on_c, 0, 63, 0
1, 134880, Note_on_c, 0, 71, 0
1, 134880, Note_on_c, 0, 61, 46
1, 134880, Note_on_c, 0, 73, 55
1, 134880, Note_on_c, 0, 47, 44
1, 134897, Control_c, 0, 64, 0
1, 135075, Control_c, 0, 64, 127
1, 135120, Tempo, 366077
1, 135120, Note_on_c, 0, 47, 0
1, 135120, Note_on_c, 0, 73, 0
1, 135120, Note_on_c, 0, 61, 0
1, 135120, Note_on_c, 0, 59, 43
1, 135120, Note_on_c, 0, 71, 51
1, 135120, Note_on_c, 0, 51, 41
1, 135360, Tempo, 352485
1, 135360, Note_on_c, 0, 51, 0
1, 135360, Note_on_c, 0, 71, 0
1, 135360, Note_on_c, 0, 59, 0
1, 135360, Note_on_c, 0, 67, 55
1, 135360, Note_on_c, 0, 73, 55
1, 135360, Note_on_c, 0, 61, 46
1, 135360, Note_on_c, 0, 52, 45
1, 135375, Control_c, 0, 64, 0
1, 135452, Control_c, 0, 64, 127
1, 135600, Tempo, 358017
1, 135600, Note_on_c, 0, 52, 0
1, 135600, Note_on_c, 0, 54, 39
1, 135840, Tempo, 352485
1, 135840, Note_on_c, 0, 54, 0
1, 135840, Note_on_c, 0, 61, 0
1, 135840, Note_on_c, 0, 73, 0
1, 135840, Note_on_c, 0, 67, 0
1, 135840, Note_on_c, 0, 59, 44
1, 135840, Note_on_c, 0, 71, 52
1, 135840, Note_on_c, 0, 55, 44
1, 135852, Control_c, 0, 64, 0
1, 135966, Control_c, 0, 64, 127
1, 136080, Tempo, 364919
1, 136080, Note_on_c, 0, 55, 0
1, 136080, Note_on_c, 0, 71, 0
1, 136080, Note_on_c, 0, 59, 0
1, 136080, Note_on_c, 0, 58, 42
1, 136080, Note_on_c, 0, 70, 50
1, 136080, Note_on_c, 0, 52, 41
1, 136320, Tempo, 359152
1, 136320, Note_on_c, 0, 52, 0
1, 136320, Note_on_c, 0, 70, 0
1, 136320, Note_on_c, 0, 58, 0
1, 136320, Note_on_c, 0, 55, 45
1, 136320, Note_on_c, 0, 67, 53
1, 136320, Note_on_c, 0, 58, 37
1, 136336, Control_c, 0, 64, 0
1, 136469, Control_c, 0, 64, 127
1, 136560, Tempo, 373274
1, 136560, Note_on_c, 0, 58, 0
1, 136560, Note_on_c, 0, 59, 37
1, 136800, Tempo, 368437
1, 136800, Note_on_c, 0, 59, 0
1, 136800, Note_on_c, 0, 67, 0
1, 136800, Note_on_c, 0, 55, 0
1, 136800, Note_on_c, 0, 71, 56
1, 136800, Note_on_c, 0, 59, 47
1, 136800, Note_on_c, 0, 35, 46
1, 136804, Control_c, 0, 64, 0
1, 136920, Control_c, 0, 64, 127
1, 137040, Tempo, 352485
1, 137040, Note_on_c, 0, 35, 0
1, 137040, Note_on_c, 0, 59, 0
1, 137040, Note_on_c, 0, 71, 0
1, 137040, Note_on_c, 0, 73, 58
1, 137040, Note_on_c, 0, 61, 49
1, 137040, Note_on_c, 0, 42, 47
1, 137280, Tempo, 355787
1, 137280, Note_on_c, 0, 42, 0
1, 137280, Note_on_c, 0, 61, 0
1, 137280, Note_on_c, 0, 73, 0
1, 137280, Note_on_c, 0, 71, 61
1, 137280, Note_on_c, 0, 63, 52
1, 137280, Note_on_c, 0, 75, 61
1, 137280, Note_on_c, 0, 43, 47
1, 137295, Control_c, 0, 64, 0
1, 137417, Control_c, 0, 64, 127
1, 137520, Tempo, 356909
1, 137520, Note_on_c, 0, 43, 0
1, 137520, Note_on_c, 0, 42, 45
1, 137760, Tempo, 356909
1, 137760, Note_on_c, 0, 42, 0
1, 137760, Note_on_c, 0, 75, 0
1, 137760, Note_on_c, 0, 63, 0
1, 137760, Note_on_c, 0, 71, 0
1, 137760, Note_on_c, 0, 61, 48
1, 137760, Note_on_c, 0, 73, 57
1, 137760, Note_on_c, 0, 47, 46
1, 137776, Control_c, 0, 64, 0
1, 137932, Control_c, 0, 64, 127
1, 138000, Tempo, 366077
1, 138000, Note_on_c, 0, 47, 0
1, 138000, Note_on_c, 0, 73, 0
1, 138000, Note_on_c, 0, 61, 0
1, 138000, Note_on_c, 0, 59, 45
1, 138000, Note_on_c, 0, 71, 53
1, 138000, Note_on_c, 0, 51, 43
1, 138240, Tempo, 352485
1, 138240, Note_on_c, 0, 51, 0
1, 138240, Note_on_c, 0, 71, 0
1, 138240, Note_on_c, 0, 59, 0
1, 138240, Note_on_c, 0, 67, 57
1, 138240, Note_on_c, 0, 73, 57
1, 138240, Note_on_c, 0, 61, 48
1, 138240, Note_on_c, 0, 52, 47
1, 138247, Control_c, 0, 64, 0
1, 138366, Control_c, 0, 64, 127
1, 138480, Tempo, 358017
1, 138480, Note_on_c, 0, 52, 0
1, 138480, Note_on_c, 0, 54, 38
1, 138720, Tempo, 352485
1, 138720, Note_on_c, 0, 54, 0
1, 138720, Note_on_c, 0, 61, 0
1, 138720, Note_on_c, 0, 73, 0
1, 138720, Note_on_c, 0, 67, 0
1, 138720, Note_on_c, 0, 59, 47
1, 138720, Note_on_c, 0, 71, 55
1, 138720, Note_on_c, 0, 55, 47
1, 138732, Control_c, 0, 64, 0
1, 138869, Control_c, 0, 64, 127
1, 138960, Tempo, 364919
1, 138960, Note_on_c, 0, 55, 0
1, 138960, Note_on_c, 0, 71, 0
1, 138960, Note_on_c, 0, 59, 0
1, 138960, Note_on_c, 0, 58, 46
1, 138960, Note_on_c, 0, 70, 54
1, 138960, Note_on_c, 0, 52, 45
1, 139200, Tempo, 359152
1, 139200, Note_on_c, 0, 52, 0
1, 139200, Note_on_c, 0, 70, 0
1, 139200, Note_on_c, 0, 58, 0
1, 139200, Note_on_c, 0, 55, 49
1, 139200, Note_on_c, 0, 67, 58
1, 139200, Note_on_c, 0, 58, 40
1, 139216, Control_c, 0, 64, 0
1, 139349, Control_c, 0, 64, 127
1, 139440, Tempo, 372047
1, 139440, Note_on_c, 0, 58, 0
1, 139440, Note_on_c, 0, 59, 40
1, 139680, Tempo, 368437
1, 139680, Note_on_c, 0, 59, 0
1, 139680, Note_on_c, 0, 67, 0
1, 139680, Note_on_c, 0, 55, 0
1, 139680, Note_on_c, 0, 71, 67
1, 139680, Note_on_c, 0, 59, 56
1, 139680, Note_on_c, 0, 35, 54
1, 139686, Control_c, 0, 64, 0
1, 139800, Control_c, 0, 64, 127
1, 139920, Tempo, 352485
1, 139920, Note_on_c, 0, 35, 0
1, 139920, Note_on_c, 0, 59, 0
1, 139920, Note_on_c, 0, 71, 0
1, 139920, Note_on_c, 0, 73, 70
1, 139920, Note_on_c, 0, 61, 58
1, 139920, Note_on_c, 0, 42, 56
1, 140160, Tempo, 355787
1, 140160, Note_on_c, 0, 42, 0
1, 140160, Note_on_c, 0, 61, 0
1, 140160, Note_on_c, 0, 73, 0
1, 140160, Note_on_c, 0, 71, 65
1, 140160, Note_on_c, 0, 63, 63
1, 140160, Note_on_c, 0, 75, 73
1, 140160, Note_on_c, 0, 43, 56
1, 140176, Control_c, 0, 64, 0
1, 140286, Control_c, 0, 64, 127
1, 140400, Tempo, 356909
1, 140400, Note_on_c, 0, 43, 0
1, 140400, Note_on_c, 0, 42, 53
1, 140640, Tempo, 356909
1, 140640, Note_on_c, 0, 42, 0
1, 140640, Note_on_c, 0, 75, 0
1, 140640, Note_on_c, 0, 63, 0
1, 140640, Note_on_c, 0, 71, 0
1, 140640, Note_on_c, 0, 61, 57
1, 140640, Note_on_c, 0, 73, 69
1, 140640, Note_on_c, 0, 47, 54
1, 140655, Control_c, 0, 64, 0
1, 140766, Control_c, 0, 64, 127
1, 140880, Tempo, 366077
1, 140880, Note_on_c, 0, 47, 0
1, 140880, Note_on_c, 0, 73, 0
1, 140880, Note_on_c, 0, 61, 0
1, 140880, Note_on_c, 0, 59, 53
1, 140880, Note_on_c, 0, 71, 64
1, 140880, Note_on_c, 0, 51, 51
1, 141120, Tempo, 368437
1, 141120, Note_on_c, 0, 51, 0
1, 141120, Note_on_c, 0, 71, 0
1, 141120, Note_on_c, 0, 59, 0
1, 141120, Note_on_c, 0, 69, 58
1, 141120, Note_on_c, 0, 75, 70
1, 141120, Note_on_c, 0, 63, 58
1, 141120, Note_on_c, 0, 48, 56
1, 141128, Control_c, 0, 64, 0
1, 141240, Control_c, 0, 64, 127
1, 141360, Tempo, 352485
1, 141360, Note_on_c, 0, 48, 0
1, 141360, Note_on_c, 0, 63, 0
1, 141360, Note_on_c, 0, 75, 0
1, 141360, Note_on_c, 0, 77, 73
1, 141360, Note_on_c, 0, 65, 60
1, 141360, Note_on_c, 0, 56, 58
1, 141600, Tempo, 355787
1, 141600, Note_on_c, 0, 56, 0
1, 141600, Note_on_c, 0, 69, 0
1, 141600, Note_on_c, 0, 77, 0
1, 141600, Note_on_c, 0, 65, 0
1, 141600, Note_on_c, 0, 69, 68
1, 141600, Note_on_c, 0, 66, 66
1, 141600, Note_on_c, 0, 78, 76
1, 141600, Note_on_c, 0, 57, 58
1, 141617, Control_c, 0, 64, 0
1, 141671, Control_c, 0, 64, 127
1, 141840, Tempo, 356909
1, 141840, Note_on_c, 0, 57, 0
1, 141840, Note_on_c, 0, 60, 55
1, 142080, Tempo, 356909
1, 142080, Note_on_c, 0, 60, 0
1, 142080, Note_on_c, 0, 78, 0
1, 142080, Note_on_c, 0, 66, 0
1, 142080, Note_on_c, 0, 65, 59
1, 142080, Note_on_c, 0, 77, 72
1, 142080, Note_on_c, 0, 63, 56
1, 142096, Control_c, 0, 64, 0
1, 142200, Note_on_c, 0, 77, 0
1, 142200, Note_on_c, 0, 65, 0
1, 142200, Control_c, 0, 64, 127
1, 142320, Tempo, 366077
1, 142320, Note_on_c, 0, 63, 0
1, 142320, Note_on_c, 0, 63, 55
1, 142320, Note_on_c, 0, 75, 67
1, 142320, Note_on_c, 0, 66, 53
1, 142440, Note_on_c, 0, 75, 0
1, 142440, Note_on_c, 0, 63, 0
1, 142560, Note_on_c, 0, 69, 0
1, 142560, Note_on_c, 0, 66, 0
1, 142560, Note_on_c, 0, 61, 64
1, 142560, Note_on_c, 0, 66, 64
1, 142560, Note_on_c, 0, 70, 64
1, 142560, Note_on_c, 0, 73, 75
1, 142560, Note_on_c, 0, 49, 55
1, 142565, Control_c, 0, 64, 0
1, 142657, Control_c, 0, 64, 127
1, 142680, Note_on_c, 0, 73, 0
1, 142680, Note_on_c, 0, 70, 0
1, 142680, Note_on_c, 0, 61, 0
1, 142680, Note_on_c, 0, 66, 0
1, 142800, Tempo, 359152
1, 142800, Note_on_c, 0, 49, 0
1, 142800, Note_on_c, 0, 63, 59
1, 142800, Note_on_c, 0, 75, 71
1, 142920, Note_on_c, 0, 75, 0
1, 142920, Note_on_c, 0, 63, 0
1, 143040, Note_on_c, 0, 65, 66
1, 143040, Note_on_c, 0, 70, 66
1, 143040, Note_on_c, 0, 77, 77
1, 143040, Note_on_c, 0, 66, 51
1, 143040, Note_on_c, 0, 58, 51
1, 143040, Note_on_c, 0, 61, 51
1, 143058, Control_c, 0, 64, 0
1, 143109, Control_c, 0, 64, 127
1, 143160, Note_on_c, 0, 77, 0
1, 143160, Note_on_c, 0, 65, 0
1, 143160, Note_on_c, 0, 70, 0
1, 143280, Tempo, 370851
1, 143280, Note_on_c, 0, 66, 0
1, 143280, Note_on_c, 0, 58, 0
1, 143280, Note_on_c, 0, 61, 0
1, 143280, Note_on_c, 0, 66, 61
1, 143280, Note_on_c, 0, 78, 74
1, 143400, Note_on_c, 0, 78, 0
1, 143400, Note_on_c, 0, 66, 0
1, 143520, Tempo, 363725
1, 143520, Note_on_c, 0, 68, 68
1, 143520, Note_on_c, 0, 80, 79
1, 143520, Note_on_c, 0, 49, 54
1, 143542, Control_c, 0, 64, 0
1, 143589, Control_c, 0, 64, 127
1, 143640, Note_on_c, 0, 80, 0
1, 143640, Note_on_c, 0, 68, 0
1, 143760, Tempo, 370851
1, 143760, Note_on_c, 0, 49, 0
1, 143760, Note_on_c, 0, 70, 64
1, 143760, Note_on_c, 0, 82, 76
1, 143880, Note_on_c, 0, 82, 0
1, 143880, Note_on_c, 0, 70, 0
1, 144000, Tempo, 364919
1, 144000, Note_on_c, 0, 71, 71
1, 144000, Note_on_c, 0, 77, 84
1, 144000, Note_on_c, 0, 83, 84
1, 144000, Note_on_c, 0, 37, 61
1, 144011, Control_c, 0, 64, 0
1, 144040, Tempo, 367264
1, 144052, Control_c, 0, 64, 127
1, 144120, Tempo, 368437
1, 144120, Note_on_c, 0, 83, 0
1, 144120, Note_on_c, 0, 71, 0
1, 144120, Note_on_c, 0, 77, 0
1, 144200, Tempo, 369663
1, 144240, Note_on_c, 0, 37, 0
1, 144240, Note_on_c, 0, 72, 66
1, 144240, Note_on_c, 0, 84, 78
1, 144280, Tempo, 370851
1, 144360, Tempo, 372047
1, 144360, Note_on_c, 0, 84, 0
1, 144360, Note_on_c, 0, 72, 0
1, 144440, Tempo, 373274
1, 144480, Note_on_c, 0, 73, 72
1, 144480, Note_on_c, 0, 77, 85
1, 144480, Note_on_c, 0, 83, 85
1, 144480, Note_on_c, 0, 85, 85
1, 144480, Note_on_c, 0, 71, 47
1, 144480, Note_on_c, 0, 65, 42
1, 144480, Note_on_c, 0, 61, 40
1, 144496, Control_c, 0, 64, 0
1, 144520, Tempo, 374508
1, 144594, Control_c, 0, 64, 127
1, 144600, Tempo, 375752
1, 144600, Note_on_c, 0, 85, 0
1, 144600, Note_on_c, 0, 83, 0
1, 144600, Note_on_c, 0, 73, 0
1, 144600, Note_on_c, 0, 77, 0
1, 144680, Tempo, 376979
1, 144720, Tempo, 378239
1, 144720, Note_on_c, 0, 61, 0
1, 144720, Note_on_c, 0, 71, 0
1, 144720, Note_on_c, 0, 65, 0
1, 144720, Note_on_c, 0, 86, 81
1, 144720, Note_on_c, 0, 74, 69
1, 144800, Tempo, 379507
1, 144840, Note_on_c, 0, 74, 0
1, 144840, Note_on_c, 0, 86, 0
1, 144880, Tempo, 380783
1, 144960, Tempo, 382044
1, 144960, Note_on_c, 0, 87, 89
1, 144960, Note_on_c, 0, 83, 89
1, 144960, Note_on_c, 0, 75, 75
1, 144960, Note_on_c, 0, 37, 61
1, 144960, Note_on_c, 0, 49, 61
1, 144976, Control_c, 0, 64, 0
1, 145040, Tempo, 383338
1, 145044, Control_c, 0, 64, 127
1, 145080, Note_on_c, 0, 75, 0
1, 145080, Note_on_c, 0, 87, 0
1, 145080, Note_on_c, 0, 83, 0
1, 145120, Tempo, 384640
1, 145200, Tempo, 385927
1, 145200, Note_on_c, 0, 89, 85
1, 145200, Note_on_c, 0, 77, 71
1, 145280, Tempo, 387247
1, 145320, Note_on_c, 0, 77, 0
1, 145320, Note_on_c, 0, 89, 0
1, 145360, Tempo, 388576
1, 145400, Tempo, 389914
1, 145440, Key_signature, 6, "major"
1, 145440, Tempo, 389914
1, 145440, Note_on_c, 0, 37, 0
1, 145440, Note_on_c, 0, 49, 0
1, 145440, Note_on_c, 0, 78, 61
1, 145440, Note_on_c, 0, 90, 86
1, 145440, Note_on_c, 0, 85, 61
1, 145440, Note_on_c, 0, 42, 70
1, 145447, Control_c, 0, 64, 0
1, 145521, Control_c, 0, 64, 127
1, 145680, Tempo, 374508
1, 145680, Note_on_c, 0, 42, 0
1, 145680, Note_on_c, 0, 78, 0
1, 145680, Note_on_c, 0, 90, 0
1, 145680, Note_on_c, 0, 85, 0
1, 145680, Note_on_c, 0, 92, 89
1, 145680, Note_on_c, 0, 80, 63
1, 145680, Note_on_c, 0, 49, 63
1, 145680, Note_on_c, 0, 58, 75
1, 145691, Control_c, 0, 64, 0
1, 145772, Control_c, 0, 64, 127
1, 145920, Tempo, 362582
1, 145920, Note_on_c, 0, 80, 0
1, 145920, Note_on_c, 0, 92, 0
1, 145920, Note_on_c, 0, 85, 79
1, 145920, Note_on_c, 0, 82, 68
1, 145920, Note_on_c, 0, 94, 94
1, 146160, Note_on_c, 0, 49, 0
1, 146160, Note_on_c, 0, 58, 0
1, 146160, Note_on_c, 0, 49, 57
1, 146160, Note_on_c, 0, 58, 68
1, 146400, Tempo, 356909
1, 146400, Note_on_c, 0, 58, 0
1, 146400, Note_on_c, 0, 82, 0
1, 146400, Note_on_c, 0, 94, 0
1, 146400, Note_on_c, 0, 85, 0
1, 146400, Note_on_c, 0, 49, 0
1, 146400, Note_on_c, 0, 80, 62
1, 146400, Note_on_c, 0, 92, 88
1, 146400, Note_on_c, 0, 42, 70
1, 146421, Control_c, 0, 64, 0
1, 146480, Control_c, 0, 64, 127
1, 146640, Tempo, 366077
1, 146640, Note_on_c, 0, 42, 0
1, 146640, Note_on_c, 0, 92, 0
1, 146640, Note_on_c, 0, 80, 0
1, 146640, Note_on_c, 0, 78, 57
1, 146640, Note_on_c, 0, 90, 81
1, 146640, Note_on_c, 0, 49, 55
1, 146640, Note_on_c, 0, 58, 65
1, 146760, Note_on_c, 0, 90, 0
1, 146760, Note_on_c, 0, 78, 0
1, 146760, Note_on_c, 0, 92, 75
1, 146820, Note_on_c, 0, 92, 0
1, 146820, Note_on_c, 0, 94, 75
1, 146880, Tempo, 361424
1, 146880, Note_on_c, 0, 94, 0
1, 146880, Note_on_c, 0, 49, 0
1, 146880, Note_on_c, 0, 58, 0
1, 146880, Note_on_c, 0, 86, 88
1, 146880, Note_on_c, 0, 92, 88
1, 146880, Note_on_c, 0, 80, 62
1, 146880, Note_on_c, 0, 42, 72
1, 146889, Control_c, 0, 64, 0
1, 146949, Control_c, 0, 64, 127
1, 147120, Tempo, 358017
1, 147120, Note_on_c, 0, 42, 0
1, 147120, Note_on_c, 0, 50, 54
1, 147120, Note_on_c, 0, 59, 63
1, 147360, Tempo, 352485
1, 147360, Note_on_c, 0, 86, 0
1, 147360, Note_on_c, 0, 80, 0
1, 147360, Note_on_c, 0, 92, 0
1, 147360, Note_on_c, 0, 78, 59
1, 147360, Note_on_c, 0, 90, 83
1, 147600, Tempo, 364919
1, 147600, Note_on_c, 0, 90, 0
1, 147600, Note_on_c, 0, 59, 0
1, 147600, Note_on_c, 0, 50, 0
1, 147600, Note_on_c, 0, 78, 0
1, 147600, Note_on_c, 0, 76, 56
1, 147600, Note_on_c, 0, 88, 80
1, 147600, Note_on_c, 0, 50, 55
1, 147600, Note_on_c, 0, 59, 65
1, 147840, Tempo, 359152
1, 147840, Note_on_c, 0, 59, 0
1, 147840, Note_on_c, 0, 76, 0
1, 147840, Note_on_c, 0, 88, 0
1, 147840, Note_on_c, 0, 50, 0
1, 147840, Note_on_c, 0, 78, 61
1, 147840, Note_on_c, 0, 74, 61
1, 147840, Note_on_c, 0, 86, 84
1, 147840, Note_on_c, 0, 42, 59
1, 148080, Tempo, 373274
1, 148080, Note_on_c, 0, 42, 0
1, 148080, Note_on_c, 0, 50, 50
1, 148080, Note_on_c, 0, 59, 59
1, 148320, Tempo, 367264
1, 148320, Note_on_c, 0, 59, 0
1, 148320, Note_on_c, 0, 78, 0
1, 148320, Note_on_c, 0, 86, 0
1, 148320, Note_on_c, 0, 74, 0
1, 148320, Note_on_c, 0, 50, 0
1, 148320, Note_on_c, 0, 82, 64
1, 148320, Note_on_c, 0, 73, 64
1, 148320, Note_on_c, 0, 85, 76
1, 148320, Note_on_c, 0, 78, 64
1, 148320, Note_on_c, 0, 42, 63
1, 148326, Control_c, 0, 64, 0
1, 148447, Control_c, 0, 64, 127
1, 148560, Tempo, 368437
1, 148560, Note_on_c, 0, 42, 0
1, 148560, Note_on_c, 0, 85, 0
1, 148560, Note_on_c, 0, 82, 0
1, 148560, Note_on_c, 0, 73, 0
1, 148560, Note_on_c, 0, 78, 0
1, 148560, Note_on_c, 0, 87, 78
1, 148560, Note_on_c, 0, 75, 66
1, 148560, Note_on_c, 0, 49, 56
1, 148560, Note_on_c, 0, 58, 67
1, 148800, Tempo, 362582
1, 148800, Note_on_c, 0, 75, 0
1, 148800, Note_on_c, 0, 87, 0
1, 148800, Note_on_c, 0, 82, 68
1, 148800, Note_on_c, 0, 77, 68
1, 148800, Note_on_c, 0, 89, 80
1, 149040, Note_on_c, 0, 49, 0
1, 149040, Note_on_c, 0, 58, 0
1, 149040, Note_on_c, 0, 49, 51
1, 149040, Note_on_c, 0, 58, 61
1, 149280, Tempo, 356909
1, 149280, Note_on_c, 0, 58, 0
1, 149280, Note_on_c, 0, 77, 0
1, 149280, Note_on_c, 0, 89, 0
1, 149280, Note_on_c, 0, 82, 0
1, 149280, Note_on_c, 0, 49, 0
1, 149280, Note_on_c, 0, 75, 64
1, 149280, Note_on_c, 0, 87, 76
1, 149280, Note_on_c, 0, 42, 63
1, 149520, Tempo, 366077
1, 149520, Note_on_c, 0, 42, 0
1, 149520, Note_on_c, 0, 87, 0
1, 149520, Note_on_c, 0, 75, 0
1, 149520, Note_on_c, 0, 73, 59
1, 149520, Note_on_c, 0, 85, 70
1, 149520, Note_on_c, 0, 49, 49
1, 149520, Note_on_c, 0, 58, 58
1, 149760, Tempo, 361424
1, 149760, Note_on_c, 0, 58, 0
1, 149760, Note_on_c, 0, 73, 0
1, 149760, Note_on_c, 0, 85, 0
1, 149760, Note_on_c, 0, 49, 0
1, 149760, Note_on_c, 0, 74, 55
1, 149760, Note_on_c, 0, 83, 65
1, 149760, Note_on_c, 0, 71, 55
1, 149760, Note_on_c, 0, 42, 64
1, 149769, Control_c, 0, 64, 0
1, 149887, Control_c, 0, 64, 127
1, 150000, Tempo, 358017
1, 150000, Note_on_c, 0, 42, 0
1, 150000, Note_on_c, 0, 53, 48
1, 150000, Note_on_c, 0, 62, 56
1, 150240, Tempo, 352485
1, 150480, Tempo, 364919
1, 150480, Note_on_c, 0, 62, 0
1, 150480, Note_on_c, 0, 53, 0
1, 150480, Note_on_c, 0, 53, 46
1, 150480, Note_on_c, 0, 62, 55
1, 150720, Tempo, 359152
1, 150720, Note_on_c, 0, 62, 0
1, 150720, Note_on_c, 0, 53, 0
1, 150720, Note_on_c, 0, 42, 50
1, 150960, Tempo, 373274
1, 150960, Note_on_c, 0, 42, 0
1, 150960, Note_on_c, 0, 53, 42
1, 150960, Note_on_c, 0, 62, 50
1, 151200, Tempo, 380783
1, 151200, Note_on_c, 0, 62, 0
1, 151200, Note_on_c, 0, 71, 0
1, 151200, Note_on_c, 0, 74, 0
1, 151200, Note_on_c, 0, 83, 0
1, 151200, Note_on_c, 0, 53, 0
1, 151200, Note_on_c, 0, 78, 61
1, 151200, Note_on_c, 0, 90, 86
1, 151200, Note_on_c, 0, 85, 61
1, 151200, Note_on_c, 0, 42, 70
1, 151214, Control_c, 0, 64, 0
1, 151288, Control_c, 0, 64, 127
1, 151440, Tempo, 368437
1, 151440, Note_on_c, 0, 42, 0
1, 151440, Note_on_c, 0, 78, 0
1, 151440, Note_on_c, 0, 90, 0
1, 151440, Note_on_c, 0, 85, 0
1, 151440, Note_on_c, 0, 92, 89
1, 151440, Note_on_c, 0, 80, 63
1, 151440, Note_on_c, 0, 49, 63
1, 151440, Note_on_c, 0, 58, 75
1, 151680, Tempo, 362582
1, 151680, Note_on_c, 0, 80, 0
1, 151680, Note_on_c, 0, 92, 0
1, 151680, Note_on_c, 0, 85, 79
1, 151680, Note_on_c, 0, 82, 68
1, 151680, Note_on_c, 0, 94, 94
1, 151691, Control_c, 0, 64, 0
1, 151786, Control_c, 0, 64, 127
1, 151920, Note_on_c, 0, 49, 0
1, 151920, Note_on_c, 0, 58, 0
1, 151920, Note_on_c, 0, 49, 57
1, 151920, Note_on_c, 0, 58, 68
1, 152160, Tempo, 356909
1, 152160, Note_on_c, 0, 58, 0
1, 152160, Note_on_c, 0, 82, 0
1, 152160, Note_on_c, 0, 94, 0
1, 152160, Note_on_c, 0, 85, 0
1, 152160, Note_on_c, 0, 49, 0
1, 152160, Note_on_c, 0, 80, 62
1, 152160, Note_on_c, 0, 92, 88
1, 152160, Note_on_c, 0, 42, 70
1, 152171, Control_c, 0, 64, 0
1, 152240, Control_c, 0, 64, 127
1, 152400, Tempo, 366077
1, 152400, Note_on_c, 0, 42, 0
1, 152400, Note_on_c, 0, 92, 0
1, 152400, Note_on_c, 0, 80, 0
1, 152400, Note_on_c, 0, 78, 57
1, 152400, Note_on_c, 0, 90, 81
1, 152400, Note_on_c, 0, 49, 55
1, 152400, Note_on_c, 0, 58, 65
1, 152520, Note_on_c, 0, 90, 0
1, 152520, Note_on_c, 0, 78, 0
1, 152520, Note_on_c, 0, 92, 75
1, 152580, Note_on_c, 0, 92, 0
1, 152580, Note_on_c, 0, 94, 75
1, 152640, Tempo, 361424
1, 152640, Note_on_c, 0, 94, 0
1, 152640, Note_on_c, 0, 49, 0
1, 152640, Note_on_c, 0, 58, 0
1, 152640, Note_on_c, 0, 86, 88
1, 152640, Note_on_c, 0, 92, 88
1, 152640, Note_on_c, 0, 80, 62
1, 152640, Control_c, 0, 64, 0
1, 152640, Note_on_c, 0, 42, 72
1, 152696, Control_c, 0, 64, 127
1, 152880, Tempo, 358017
1, 152880, Note_on_c, 0, 42, 0
1, 152880, Note_on_c, 0, 50, 54
1, 152880, Note_on_c, 0, 59, 63
1, 153120, Tempo, 352485
1, 153120, Note_on_c, 0, 86, 0
1, 153120, Note_on_c, 0, 80, 0
1, 153120, Note_on_c, 0, 92, 0
1, 153120, Note_on_c, 0, 78, 59
1, 153120, Note_on_c, 0, 90, 83
1, 153360, Tempo, 364919
1, 153360, Note_on_c, 0, 90, 0
1, 153360, Note_on_c, 0, 59, 0
1, 153360, Note_on_c, 0, 50, 0
1, 153360, Note_on_c, 0, 78, 0
1, 153360, Note_on_c, 0, 76, 56
1, 153360, Note_on_c, 0, 88, 80
1, 153360, Note_on_c, 0, 50, 55
1, 153360, Note_on_c, 0, 59, 65
1, 153600, Tempo, 359152
1, 153600, Note_on_c, 0, 59, 0
1, 153600, Note_on_c, 0, 76, 0
1, 153600, Note_on_c, 0, 88, 0
1, 153600, Note_on_c, 0, 50, 0
1, 153600, Note_on_c, 0, 78, 61
1, 153600, Note_on_c, 0, 74, 61
1, 153600, Note_on_c, 0, 86, 84
1, 153600, Note_on_c, 0, 42, 59
1, 153840, Tempo, 373274
1, 153840, Note_on_c, 0, 42, 0
1, 153840, Note_on_c, 0, 50, 50
1, 153840, Note_on_c, 0, 59, 59
1, 154080, Tempo, 367264
1, 154080, Note_on_c, 0, 59, 0
1, 154080, Note_on_c, 0, 78, 0
1, 154080, Note_on_c, 0, 86, 0
1, 154080, Note_on_c, 0, 74, 0
1, 154080, Note_on_c, 0, 50, 0
1, 154080, Note_on_c, 0, 82, 64
1, 154080, Note_on_c, 0, 73, 64
1, 154080, Note_on_c, 0, 85, 76
1, 154080, Note_on_c, 0, 78, 64
1, 154080, Note_on_c, 0, 42, 63
1, 154094, Control_c, 0, 64, 0
1, 154236, Control_c, 0, 64, 127
1, 154320, Tempo, 368437
1, 154320, Note_on_c, 0, 42, 0
1, 154320, Note_on_c, 0, 85, 0
1, 154320, Note_on_c, 0, 82, 0
1, 154320, Note_on_c, 0, 73, 0
1, 154320, Note_on_c, 0, 78, 0
1, 154320, Note_on_c, 0, 87, 78
1, 154320, Note_on_c, 0, 75, 66
1, 154320, Note_on_c, 0, 49, 56
1, 154320, Note_on_c, 0, 58, 67
1, 154560, Tempo, 362582
1, 154560, Note_on_c, 0, 75, 0
1, 154560, Note_on_c, 0, 87, 0
1, 154560, Note_on_c, 0, 82, 68
1, 154560, Note_on_c, 0, 77, 68
1, 154560, Note_on_c, 0, 89, 80
1, 154800, Note_on_c, 0, 49, 0
1, 154800, Note_on_c, 0, 58, 0
1, 154800, Note_on_c, 0, 49, 51
1, 154800, Note_on_c, 0, 58, 61
1, 155040, Tempo, 356909
1, 155040, Note_on_c, 0, 58, 0
1, 155040, Note_on_c, 0, 77, 0
1, 155040, Note_on_c, 0, 89, 0
1, 155040, Note_on_c, 0, 82, 0
1, 155040, Note_on_c, 0, 49, 0
1, 155040, Note_on_c, 0, 75, 64
1, 155040, Note_on_c, 0, 87, 76
1, 155040, Note_on_c, 0, 42, 63
1, 155280, Tempo, 366077
1, 155280, Note_on_c, 0, 42, 0
1, 155280, Note_on_c, 0, 87, 0
1, 155280, Note_on_c, 0, 75, 0
1, 155280, Note_on_c, 0, 73, 59
1, 155280, Note_on_c, 0, 85, 70
1, 155280, Note_on_c, 0, 49, 49
1, 155280, Note_on_c, 0, 58, 58
1, 155520, Tempo, 361424
1, 155520, Note_on_c, 0, 58, 0
1, 155520, Note_on_c, 0, 73, 0
1, 155520, Note_on_c, 0, 85, 0
1, 155520, Note_on_c, 0, 49, 0
1, 155520, Note_on_c, 0, 74, 55
1, 155520, Note_on_c, 0, 83, 65
1, 155520, Note_on_c, 0, 71, 55
1, 155520, Note_on_c, 0, 42, 64
1, 155528, Control_c, 0, 64, 0
1, 155690, Control_c, 0, 64, 127
1, 155760, Tempo, 358017
1, 155760, Note_on_c, 0, 42, 0
1, 155760, Note_on_c, 0, 53, 48
1, 155760, Note_on_c, 0, 62, 56
1, 156000, Tempo, 352485
1, 156240, Tempo, 364919
1, 156240, Note_on_c, 0, 62, 0
1, 156240, Note_on_c, 0, 53, 0
1, 156240, Note_on_c, 0, 53, 46
1, 156240, Note_on_c, 0, 62, 55
1, 156480, Tempo, 359152
1, 156480, Note_on_c, 0, 62, 0
1, 156480, Note_on_c, 0, 53, 0
1, 156480, Note_on_c, 0, 42, 50
1, 156720, Tempo, 373274
1, 156720, Note_on_c, 0, 42, 0
1, 156720, Note_on_c, 0, 53, 42
1, 156720, Note_on_c, 0, 62, 50
1, 156960, Tempo, 334262
1, 156960, Note_on_c, 0, 62, 0
1, 156960, Note_on_c, 0, 71, 0
1, 156960, Note_on_c, 0, 74, 0
1, 156960, Note_on_c, 0, 83, 0
1, 156960, Note_on_c, 0, 53, 0
1, 156960, Control_c, 0, 64, 0
1, 156960, Note_on_c, 0, 54, 51
1, 157063, Control_c, 0, 64, 127
1, 157080, Note_on_c, 0, 54, 0
1, 157200, Tempo, 362494
1, 157200, Note_on_c, 0, 63, 35
1, 157200, Note_on_c, 0, 66, 35
1, 157200, Note_on_c, 0, 70, 35
1, 157320, Note_on_c, 0, 70, 0
1, 157320, Note_on_c, 0, 66, 0
1, 157320, Note_on_c, 0, 63, 0
1, 157320, Note_on_c, 0, 61, 35
1, 157430, Note_on_c, 0, 61, 0
1, 157440, Tempo, 340870
1, 157440, Note_on_c, 0, 61, 49
1, 157454, Control_c, 0, 64, 0
1, 157500, Note_on_c, 0, 61, 0
1, 157680, Tempo, 361424
1, 157680, Note_on_c, 0, 61, 35
1, 157680, Note_on_c, 0, 66, 35
1, 157680, Note_on_c, 0, 70, 35
1, 157691, Control_c, 0, 64, 127
1, 157740, Note_on_c, 0, 70, 0
1, 157740, Note_on_c, 0, 66, 0
1, 157740, Note_on_c, 0, 61, 0
1, 157814, Control_c, 0, 64, 0
1, 157920, Note_on_c, 0, 49, 49
1, 157980, Note_on_c, 0, 49, 0
1, 158160, Tempo, 367467
1, 158160, Note_on_c, 0, 61, 35
1, 158160, Note_on_c, 0, 66, 35
1, 158160, Note_on_c, 0, 70, 35
1, 158199, Control_c, 0, 64, 127
1, 158220, Note_on_c, 0, 70, 0
1, 158220, Note_on_c, 0, 66, 0
1, 158220, Note_on_c, 0, 61, 0
1, 158273, Control_c, 0, 64, 0
1, 158400, Tempo, 358017
1, 158400, Note_on_c, 0, 56, 48
1, 158514, Control_c, 0, 64, 127
1, 158640, Tempo, 368437
1, 158640, Note_on_c, 0, 56, 0
1, 158640, Note_on_c, 0, 83, 53
1, 158640, Note_on_c, 0, 77, 47
1, 158640, Note_on_c, 0, 73, 44
1, 158640, Note_on_c, 0, 85, 60
1, 158640, Note_on_c, 0, 61, 44
1, 158640, Note_on_c, 0, 65, 44
1, 158640, Note_on_c, 0, 71, 53
1, 158880, Tempo, 362582
1, 158880, Note_on_c, 0, 85, 0
1, 158880, Note_on_c, 0, 73, 0
1, 158880, Note_on_c, 0, 83, 0
1, 158880, Note_on_c, 0, 77, 0
1, 158880, Note_on_c, 0, 75, 48
1, 158880, Note_on_c, 0, 87, 68
1, 159120, Note_on_c, 0, 87, 0
1, 159120, Note_on_c, 0, 71, 0
1, 159120, Note_on_c, 0, 65, 0
1, 159120, Note_on_c, 0, 61, 0
1, 159120, Note_on_c, 0, 75, 0
1, 159120, Note_on_c, 0, 77, 54
1, 159120, Note_on_c, 0, 89, 64
1, 159120, Note_on_c, 0, 61, 32
1, 159120, Note_on_c, 0, 65, 32
1, 159120, Note_on_c, 0, 71, 45
1, 159360, Tempo, 356909
1, 159360, Note_on_c, 0, 71, 0
1, 159360, Note_on_c, 0, 61, 0
1, 159360, Note_on_c, 0, 77, 0
1, 159360, Note_on_c, 0, 89, 0
1, 159360, Note_on_c, 0, 65, 0
1, 159360, Note_on_c, 0, 75, 57
1, 159360, Note_on_c, 0, 87, 68
1, 159360, Note_on_c, 0, 49, 53
1, 159600, Tempo, 375752
1, 159600, Note_on_c, 0, 49, 0
1, 159600, Note_on_c, 0, 87, 0
1, 159600, Note_on_c, 0, 75, 0
1, 159600, Note_on_c, 0, 73, 55
1, 159600, Note_on_c, 0, 85, 65
1, 159600, Note_on_c, 0, 61, 31
1, 159600, Note_on_c, 0, 65, 31
1, 159600, Note_on_c, 0, 71, 43
1, 159840, Tempo, 334262
1, 159840, Note_on_c, 0, 71, 0
1, 159840, Note_on_c, 0, 61, 0
1, 159840, Note_on_c, 0, 73, 0
1, 159840, Note_on_c, 0, 85, 0
1, 159840, Note_on_c, 0, 65, 0
1, 159840, Control_c, 0, 64, 0
1, 159840, Note_on_c, 0, 54, 51
1, 159939, Control_c, 0, 64, 127
1, 159960, Note_on_c, 0, 54, 0
1, 160080, Tempo, 362494
1, 160080, Note_on_c, 0, 63, 35
1, 160080, Note_on_c, 0, 66, 35
1, 160080, Note_on_c, 0, 70, 35
1, 160200, Note_on_c, 0, 70, 0
1, 160200, Note_on_c, 0, 66, 0
1, 160200, Note_on_c, 0, 63, 0
1, 160200, Note_on_c, 0, 61, 35
1, 160310, Note_on_c, 0, 61, 0
1, 160320, Tempo, 340870
1, 160320, Note_on_c, 0, 61, 49
1, 160324, Control_c, 0, 64, 0
1, 160380, Note_on_c, 0, 61, 0
1, 160560, Tempo, 361424
1, 160560, Note_on_c, 0, 61, 35
1, 160560, Note_on_c, 0, 66, 35
1, 160560, Note_on_c, 0, 70, 35
1, 160571, Control_c, 0, 64, 127
1, 160620, Note_on_c, 0, 70, 0
1, 160620, Note_on_c, 0, 66, 0
1, 160620, Note_on_c, 0, 61, 0
1, 160694, Control_c, 0, 64, 0
1, 160800, Note_on_c, 0, 49, 49
1, 160860, Note_on_c, 0, 49, 0
1, 161040, Tempo, 373274
1, 161040, Note_on_c, 0, 61, 35
1, 161040, Note_on_c, 0, 66, 35
1, 161040, Note_on_c, 0, 70, 35
1, 161079, Control_c, 0, 64, 127
1, 161100, Note_on_c, 0, 70, 0
1, 161100, Note_on_c, 0, 66, 0
1, 161100, Note_on_c, 0, 61, 0
1, 161153, Control_c, 0, 64, 0
1, 161280, Tempo, 354024
1, 161280, Note_on_c, 0, 56, 48
1, 161470, Control_c, 0, 64, 127
1, 161520, Tempo, 362319
1, 161520, Note_on_c, 0, 56, 0
1, 161520, Note_on_c, 0, 83, 49
1, 161520, Note_on_c, 0, 77, 46
1, 161520, Note_on_c, 0, 73, 44
1, 161520, Note_on_c, 0, 85, 60
1, 161520, Note_on_c, 0, 61, 44
1, 161520, Note_on_c, 0, 65, 44
1, 161520, Note_on_c, 0, 71, 53
1, 161760, Tempo, 358123
1, 161760, Note_on_c, 0, 85, 0
1, 161760, Note_on_c, 0, 73, 0
1, 161760, Note_on_c, 0, 83, 0
1, 161760, Note_on_c, 0, 77, 0
1, 161760, Note_on_c, 0, 75, 48
1, 161760, Note_on_c, 0, 87, 68
1, 162000, Note_on_c, 0, 87, 0
1, 162000, Note_on_c, 0, 71, 0
1, 162000, Note_on_c, 0, 65, 0
1, 162000, Note_on_c, 0, 61, 0
1, 162000, Note_on_c, 0, 75, 0
1, 162000, Note_on_c, 0, 77, 54
1, 162000, Note_on_c, 0, 89, 64
1, 162000, Note_on_c, 0, 61, 32
1, 162000, Note_on_c, 0, 65, 32
1, 162000, Note_on_c, 0, 71, 45
1, 162240, Tempo, 356909
1, 162240, Note_on_c, 0, 71, 0
1, 162240, Note_on_c, 0, 61, 0
1, 162240, Note_on_c, 0, 77, 0
1, 162240, Note_on_c, 0, 89, 0
1, 162240, Note_on_c, 0, 65, 0
1, 162240, Note_on_c, 0, 75, 57
1, 162240, Note_on_c, 0, 87, 68
1, 162240, Note_on_c, 0, 49, 53
1, 162480, Tempo, 366077
1, 162480, Note_on_c, 0, 49, 0
1, 162480, Note_on_c, 0, 87, 0
1, 162480, Note_on_c, 0, 75, 0
1, 162480, Note_on_c, 0, 73, 55
1, 162480, Note_on_c, 0, 85, 65
1, 162480, Note_on_c, 0, 61, 31
1, 162480, Note_on_c, 0, 65, 31
1, 162480, Note_on_c, 0, 71, 43
1, 162720, Tempo, 334262
1, 162720, Note_on_c, 0, 71, 0
1, 162720, Note_on_c, 0, 61, 0
1, 162720, Note_on_c, 0, 73, 0
1, 162720, Note_on_c, 0, 85, 0
1, 162720, Note_on_c, 0, 65, 0
1, 162720, Control_c, 0, 64, 0
1, 162720, Note_on_c, 0, 54, 51
1, 162819, Control_c, 0, 64, 127
1, 162840, Note_on_c, 0, 54, 0
1, 162960, Tempo, 362494
1, 162960, Note_on_c, 0, 63, 35
1, 162960, Note_on_c, 0, 66, 35
1, 162960, Note_on_c, 0, 70, 35
1, 163080, Note_on_c, 0, 70, 0
1, 163080, Note_on_c, 0, 66, 0
1, 163080, Note_on_c, 0, 63, 0
1, 163080, Note_on_c, 0, 61, 35
1, 163190, Note_on_c, 0, 61, 0
1, 163200, Tempo, 340870
1, 163200, Note_on_c, 0, 61, 49
1, 163214, Control_c, 0, 64, 0
1, 163260, Note_on_c, 0, 61, 0
1, 163440, Tempo, 361424
1, 163440, Note_on_c, 0, 61, 35
1, 163440, Note_on_c, 0, 66, 35
1, 163440, Note_on_c, 0, 70, 35
1, 163451, Control_c, 0, 64, 127
1, 163500, Note_on_c, 0, 70, 0
1, 163500, Note_on_c, 0, 66, 0
1, 163500, Note_on_c, 0, 61, 0
1, 163574, Control_c, 0, 64, 0
1, 163680, Note_on_c, 0, 49, 49
1, 163740, Note_on_c, 0, 49, 0
1, 163920, Tempo, 373274
1, 163920, Note_on_c, 0, 61, 35
1, 163920, Note_on_c, 0, 66, 35
1, 163920, Note_on_c, 0, 70, 35
1, 163959, Control_c, 0, 64, 127
1, 163980, Note_on_c, 0, 70, 0
1, 163980, Note_on_c, 0, 66, 0
1, 163980, Note_on_c, 0, 61, 0
1, 164033, Control_c, 0, 64, 0
1, 164160, Tempo, 383338
1, 164160, Note_on_c, 0, 42, 58
1, 164189, Control_c, 0, 64, 127
1, 164400, Tempo, 373274
1, 164400, Note_on_c, 0, 74, 73
1, 164400, Note_on_c, 0, 62, 61
1, 164400, Note_on_c, 0, 69, 61
1, 164520, Note_on_c, 0, 69, 0
1, 164520, Note_on_c, 0, 62, 0
1, 164520, Note_on_c, 0, 74, 0
1, 164640, Tempo, 359152
1, 164640, Note_on_c, 0, 42, 0
1, 164640, Note_on_c, 0, 64, 66
1, 164640, Note_on_c, 0, 76, 79
1, 164640, Note_on_c, 0, 50, 52
1, 164640, Note_on_c, 0, 60, 52
1, 164760, Note_on_c, 0, 76, 0
1, 164760, Note_on_c, 0, 64, 0
1, 164880, Tempo, 364919
1, 164880, Note_on_c, 0, 66, 62
1, 164880, Note_on_c, 0, 78, 74
1, 165000, Note_on_c, 0, 78, 0
1, 165000, Note_on_c, 0, 66, 0
1, 165120, Tempo, 360295
1, 165120, Note_on_c, 0, 50, 0
1, 165120, Note_on_c, 0, 60, 0
1, 165120, Note_on_c, 0, 67, 66
1, 165120, Note_on_c, 0, 74, 66
1, 165120, Note_on_c, 0, 79, 79
1, 165120, Note_on_c, 0, 38, 52
1, 165132, Control_c, 0, 64, 0
1, 165194, Control_c, 0, 64, 127
1, 165240, Note_on_c, 0, 79, 0
1, 165240, Note_on_c, 0, 67, 0
1, 165240, Note_on_c, 0, 74, 0
1, 165360, Tempo, 368437
1, 165360, Note_on_c, 0, 69, 61
1, 165360, Note_on_c, 0, 81, 73
1, 165480, Note_on_c, 0, 81, 0
1, 165480, Note_on_c, 0, 69, 0
1, 165600, Tempo, 358017
1, 165600, Note_on_c, 0, 38, 0
1, 165600, Note_on_c, 0, 70, 66
1, 165600, Note_on_c, 0, 74, 66
1, 165600, Note_on_c, 0, 82, 79
1, 165600, Note_on_c, 0, 43, 59
1, 165612, Control_c, 0, 64, 0
1, 165686, Control_c, 0, 64, 127
1, 165720, Note_on_c, 0, 82, 0
1, 165720, Note_on_c, 0, 70, 0
1, 165720, Note_on_c, 0, 74, 0
1, 165840, Tempo, 364919
1, 165840, Note_on_c, 0, 71, 67
1, 165840, Note_on_c, 0, 83, 80
1, 165960, Note_on_c, 0, 83, 0
1, 165960, Note_on_c, 0, 71, 0
1, 166080, Tempo, 364919
1, 166080, Note_on_c, 0, 43, 0
1, 166080, Note_on_c, 0, 86, 83
1, 166080, Note_on_c, 0, 74, 71
1, 166080, Note_on_c, 0, 50, 55
1, 166080, Note_on_c, 0, 59, 55
1, 166120, Tempo, 368437
1, 166200, Tempo, 369663
1, 166200, Note_on_c, 0, 74, 0
1, 166200, Note_on_c, 0, 86, 0
1, 166240, Tempo, 370851
1, 166320, Tempo, 372047
1, 166320, Note_on_c, 0, 91, 83
1, 166320, Note_on_c, 0, 79, 71
1, 166360, Tempo, 373274
1, 166440, Tempo, 374508
1, 166440, Note_on_c, 0, 79, 0
1, 166440, Note_on_c, 0, 91, 0
1, 166480, Tempo, 375752
1, 166560, Tempo, 376979
1, 166560, Note_on_c, 0, 50, 0
1, 166560, Note_on_c, 0, 59, 0
1, 166560, Note_on_c, 0, 95, 84
1, 166560, Note_on_c, 0, 83, 71
1, 166560, Note_on_c, 0, 43, 55
1, 166577, Control_c, 0, 64, 0
1, 166600, Tempo, 378239
1, 166669, Control_c, 0, 64, 127
1, 166680, Tempo, 379507
1, 166680, Note_on_c, 0, 83, 0
1, 166680, Note_on_c, 0, 95, 0
1, 166720, Tempo, 380783
1, 166800, Tempo, 382044
1, 166800, Note_on_c, 0, 98, 86
1, 166800, Note_on_c, 0, 86, 73
1, 166840, Tempo, 383338
1, 166920, Tempo, 384640
1, 166920, Note_on_c, 0, 86, 0
1, 166920, Note_on_c, 0, 98, 0
1, 167040, Tempo, 396694
1, 167040, Note_on_c, 0, 43, 0
1, 167040, Control_c, 0, 64, 0
1, 167040, Note_on_c, 0, 49, 50
1, 167280, Tempo, 380783
1, 167280, Note_on_c, 0, 59, 50
1, 167280, Note_on_c, 0, 61, 50
1, 167280, Note_on_c, 0, 53, 38
1, 167340, Note_on_c, 0, 53, 0
1, 167400, Note_on_c, 0, 61, 0
1, 167400, Note_on_c, 0, 59, 0
1, 167520, Note_on_c, 0, 59, 54
1, 167520, Note_on_c, 0, 63, 54
1, 167520, Note_on_c, 0, 54, 45
1, 167580, Note_on_c, 0, 54, 0
1, 167640, Note_on_c, 0, 63, 0
1, 167640, Note_on_c, 0, 59, 0
1, 167760, Tempo, 392593
1, 167760, Note_on_c, 0, 59, 50
1, 167760, Note_on_c, 0, 65, 50
1, 167760, Note_on_c, 0, 56, 39
1, 167820, Note_on_c, 0, 56, 0
1, 167880, Note_on_c, 0, 65, 0
1, 167880, Note_on_c, 0, 59, 0
1, 167880, Note_on_c, 0, 63, 45
1, 167940, Note_on_c, 0, 63, 0
1, 167940, Note_on_c, 0, 65, 46
1, 168000, Tempo, 382044
1, 168000, Note_on_c, 0, 65, 0
1, 168000, Note_on_c, 0, 59, 54
1, 168000, Note_on_c, 0, 63, 54
1, 168000, Note_on_c, 0, 54, 44
1, 168060, Note_on_c, 0, 54, 0
1, 168120, Note_on_c, 0, 63, 0
1, 168120, Note_on_c, 0, 59, 0
1, 168240, Tempo, 389914
1, 168240, Note_on_c, 0, 59, 50
1, 168240, Note_on_c, 0, 61, 50
1, 168240, Note_on_c, 0, 53, 40
1, 168300, Note_on_c, 0, 53, 0
1, 168360, Note_on_c, 0, 61, 0
1, 168360, Note_on_c, 0, 59, 0
1, 168480, Tempo, 368437
1, 168480, Note_on_c, 0, 49, 0
1, 168480, Note_on_c, 0, 54, 51
1, 168546, Control_c, 0, 64, 127
1, 168600, Note_on_c, 0, 54, 0
1, 168720, Tempo, 362494
1, 168720, Note_on_c, 0, 63, 35
1, 168720, Note_on_c, 0, 66, 35
1, 168720, Note_on_c, 0, 70, 35
1, 168840, Note_on_c, 0, 70, 0
1, 168840, Note_on_c, 0, 66, 0
1, 168840, Note_on_c, 0, 63, 0
1, 168840, Note_on_c, 0, 61, 35
1, 168950, Note_on_c, 0, 61, 0
1, 168960, Tempo, 340870
1, 168960, Note_on_c, 0, 61, 49
1, 168964, Control_c, 0, 64, 0
1, 169020, Note_on_c, 0, 61, 0
1, 169200, Tempo, 361424
1, 169200, Note_on_c, 0, 61, 35
1, 169200, Note_on_c, 0, 66, 35
1, 169200, Note_on_c, 0, 70, 35
1, 169211, Control_c, 0, 64, 127
1, 169260, Note_on_c, 0, 70, 0
1, 169260, Note_on_c, 0, 66, 0
1, 169260, Note_on_c, 0, 61, 0
1, 169334, Control_c, 0, 64, 0
1, 169440, Note_on_c, 0, 49, 49
1, 169500, Note_on_c, 0, 49, 0
1, 169680, Tempo, 367467
1, 169680, Note_on_c, 0, 61, 35
1, 169680, Note_on_c, 0, 66, 35
1, 169680, Note_on_c, 0, 70, 35
1, 169719, Control_c, 0, 64, 127
1, 169740, Note_on_c, 0, 70, 0
1, 169740, Note_on_c, 0, 66, 0
1, 169740, Note_on_c, 0, 61, 0
1, 169793, Control_c, 0, 64, 0
1, 169920, Tempo, 354024
1, 169920, Note_on_c, 0, 56, 48
1, 169966, Control_c, 0, 64, 127
1, 170160, Tempo, 363394
1, 170160, Note_on_c, 0, 56, 0
1, 170160, Note_on_c, 0, 83, 53
1, 170160, Note_on_c, 0, 77, 47
1, 170160, Note_on_c, 0, 73, 44
1, 170160, Note_on_c, 0, 85, 60
1, 170160, Note_on_c, 0, 61, 44
1, 170160, Note_on_c, 0, 65, 44
1, 170160, Note_on_c, 0, 71, 53
1, 170400, Tempo, 358123
1, 170400, Note_on_c, 0, 85, 0
1, 170400, Note_on_c, 0, 73, 0
1, 170400, Note_on_c, 0, 83, 0
1, 170400, Note_on_c, 0, 77, 0
1, 170400, Note_on_c, 0, 75, 48
1, 170400, Note_on_c, 0, 87, 68
1, 170640, Note_on_c, 0, 87, 0
1, 170640, Note_on_c, 0, 71, 0
1, 170640, Note_on_c, 0, 65, 0
1, 170640, Note_on_c, 0, 61, 0
1, 170640, Note_on_c, 0, 75, 0
1, 170640, Note_on_c, 0, 77, 54
1, 170640, Note_on_c, 0, 89, 64
1, 170640, Note_on_c, 0, 61, 32
1, 170640, Note_on_c, 0, 65, 32
1, 170640, Note_on_c, 0, 71, 45
1, 170880, Tempo, 356909
1, 170880, Note_on_c, 0, 71, 0
1, 170880, Note_on_c, 0, 61, 0
1, 170880, Note_on_c, 0, 77, 0
1, 170880, Note_on_c, 0, 89, 0
1, 170880, Note_on_c, 0, 65, 0
1, 170880, Note_on_c, 0, 75, 57
1, 170880, Note_on_c, 0, 87, 68
1, 170880, Note_on_c, 0, 49, 53
1, 171120, Tempo, 375752
1, 171120, Note_on_c, 0, 49, 0
1, 171120, Note_on_c, 0, 87, 0
1, 171120, Note_on_c, 0, 75, 0
1, 171120, Note_on_c, 0, 73, 55
1, 171120, Note_on_c, 0, 85, 65
1, 171120, Note_on_c, 0, 61, 31
1, 171120, Note_on_c, 0, 65, 31
1, 171120, Note_on_c, 0, 71, 43
1, 171360, Tempo, 334262
1, 171360, Note_on_c, 0, 71, 0
1, 171360, Note_on_c, 0, 61, 0
1, 171360, Note_on_c, 0, 73, 0
1, 171360, Note_on_c, 0, 85, 0
1, 171360, Note_on_c, 0, 65, 0
1, 171360, Control_c, 0, 64, 0
1, 171360, Note_on_c, 0, 54, 51
1, 171452, Control_c, 0, 64, 127
1, 171480, Note_on_c, 0, 54, 0
1, 171600, Tempo, 362494
1, 171600, Note_on_c, 0, 63, 35
1, 171600, Note_on_c, 0, 66, 35
1, 171600, Note_on_c, 0, 70, 35
1, 171720, Note_on_c, 0, 70, 0
1, 171720, Note_on_c, 0, 66, 0
1, 171720, Note_on_c, 0, 63, 0
1, 171720, Note_on_c, 0, 61, 35
1, 171830, Note_on_c, 0, 61, 0
1, 171840, Tempo, 340870
1, 171840, Note_on_c, 0, 61, 49
1, 171847, Control_c, 0, 64, 0
1, 171900, Note_on_c, 0, 61, 0
1, 172080, Tempo, 361424
1, 172080, Note_on_c, 0, 61, 35
1, 172080, Note_on_c, 0, 66, 35
1, 172080, Note_on_c, 0, 70, 35
1, 172091, Control_c, 0, 64, 127
1, 172140, Note_on_c, 0, 70, 0
1, 172140, Note_on_c, 0, 66, 0
1, 172140, Note_on_c, 0, 61, 0
1, 172214, Control_c, 0, 64, 0
1, 172320, Note_on_c, 0, 49, 49
1, 172380, Note_on_c, 0, 49, 0
1, 172560, Tempo, 373274
1, 172560, Note_on_c, 0, 61, 35
1, 172560, Note_on_c, 0, 66, 35
1, 172560, Note_on_c, 0, 70, 35
1, 172599, Control_c, 0, 64, 127
1, 172620, Note_on_c, 0, 70, 0
1, 172620, Note_on_c, 0, 66, 0
1, 172620, Note_on_c, 0, 61, 0
1, 172673, Control_c, 0, 64, 0
1, 172800, Tempo, 357079
1, 172800, Note_on_c, 0, 56, 48
1, 172846, Control_c, 0, 64, 127
1, 173040, Tempo, 365542
1, 173040, Note_on_c, 0, 56, 0
1, 173040, Note_on_c, 0, 83, 49
1, 173040, Note_on_c, 0, 77, 46
1, 173040, Note_on_c, 0, 73, 44
1, 173040, Note_on_c, 0, 85, 60
1, 173040, Note_on_c, 0, 61, 44
1, 173040, Note_on_c, 0, 65, 44
1, 173040, Note_on_c, 0, 71, 53
1, 173280, Tempo, 359174
1, 173280, Note_on_c, 0, 85, 0
1, 173280, Note_on_c, 0, 73, 0
1, 173280, Note_on_c, 0, 83, 0
1, 173280, Note_on_c, 0, 77, 0
1, 173280, Note_on_c, 0, 75, 48
1, 173280, Note_on_c, 0, 87, 68
1, 173520, Note_on_c, 0, 87, 0
1, 173520, Note_on_c, 0, 71, 0
1, 173520, Note_on_c, 0, 65, 0
1, 173520, Note_on_c, 0, 61, 0
1, 173520, Note_on_c, 0, 75, 0
1, 173520, Note_on_c, 0, 77, 54
1, 173520, Note_on_c, 0, 89, 64
1, 173520, Note_on_c, 0, 61, 32
1, 173520, Note_on_c, 0, 65, 32
1, 173520, Note_on_c, 0, 71, 45
1, 173760, Tempo, 356909
1, 173760, Note_on_c, 0, 71, 0
1, 173760, Note_on_c, 0, 61, 0
1, 173760, Note_on_c, 0, 77, 0
1, 173760, Note_on_c, 0, 89, 0
1, 173760, Note_on_c, 0, 65, 0
1, 173760, Note_on_c, 0, 75, 57
1, 173760, Note_on_c, 0, 87, 68
1, 173760, Note_on_c, 0, 49, 53
1, 174000, Tempo, 366077
1, 174000, Note_on_c, 0, 49, 0
1, 174000, Note_on_c, 0, 87, 0
1, 174000, Note_on_c, 0, 75, 0
1, 174000, Note_on_c, 0, 73, 55
1, 174000, Note_on_c, 0, 85, 65
1, 174000, Note_on_c, 0, 61, 31
1, 174000, Note_on_c, 0, 65, 31
1, 174000, Note_on_c, 0, 71, 43
1, 174240, Tempo, 334262
1, 174240, Note_on_c, 0, 71, 0
1, 174240, Note_on_c, 0, 61, 0
1, 174240, Note_on_c, 0, 73, 0
1, 174240, Note_on_c, 0, 85, 0
1, 174240, Note_on_c, 0, 65, 0
1, 174240, Control_c, 0, 64, 0
1, 174240, Note_on_c, 0, 54, 51
1, 174360, Note_on_c, 0, 54, 0
1, 174360, Control_c, 0, 64, 127
1, 174480, Tempo, 362494
1, 174480, Note_on_c, 0, 63, 35
1, 174480, Note_on_c, 0, 66, 35
1, 174480, Note_on_c, 0, 70, 35
1, 174600, Note_on_c, 0, 70, 0
1, 174600, Note_on_c, 0, 66, 0
1, 174600, Note_on_c, 0, 63, 0
1, 174600, Note_on_c, 0, 61, 35
1, 174710, Note_on_c, 0, 61, 0
1, 174720, Tempo, 340870
1, 174720, Note_on_c, 0, 61, 49
1, 174731, Control_c, 0, 64, 0
1, 174780, Note_on_c, 0, 61, 0
1, 174960, Tempo, 361424
1, 174960, Note_on_c, 0, 61, 35
1, 174960, Note_on_c, 0, 66, 35
1, 174960, Note_on_c, 0, 70, 35
1, 174971, Control_c, 0, 64, 127
1, 175020, Note_on_c, 0, 70, 0
1, 175020, Note_on_c, 0, 66, 0
1, 175020, Note_on_c, 0, 61, 0
1, 175094, Control_c, 0, 64, 0
1, 175200, Note_on_c, 0, 49, 49
1, 175260, Note_on_c, 0, 49, 0
1, 175440, Tempo, 373274
1, 175440, Note_on_c, 0, 61, 35
1, 175440, Note_on_c, 0, 66, 35
1, 175440, Note_on_c, 0, 70, 35
1, 175479, Control_c, 0, 64, 127
1, 175500, Note_on_c, 0, 70, 0
1, 175500, Note_on_c, 0, 66, 0
1, 175500, Note_on_c, 0, 61, 0
1, 175553, Control_c, 0, 64, 0
1, 175680, Tempo, 383338
1, 175680, Note_on_c, 0, 42, 58
1, 175772, Control_c, 0, 64, 127
1, 175920, Tempo, 373274
1, 175920, Note_on_c, 0, 74, 73
1, 175920, Note_on_c, 0, 62, 61
1, 175920, Note_on_c, 0, 69, 61
1, 176040, Note_on_c, 0, 69, 0
1, 176040, Note_on_c, 0, 62, 0
1, 176040, Note_on_c, 0, 74, 0
1, 176160, Tempo, 359152
1, 176160, Note_on_c, 0, 42, 0
1, 176160, Note_on_c, 0, 64, 66
1, 176160, Note_on_c, 0, 76, 79
1, 176160, Note_on_c, 0, 50, 52
1, 176160, Note_on_c, 0, 60, 52
1, 176280, Note_on_c, 0, 76, 0
1, 176280, Note_on_c, 0, 64, 0
1, 176400, Tempo, 364919
1, 176400, Note_on_c, 0, 66, 62
1, 176400, Note_on_c, 0, 78, 74
1, 176520, Note_on_c, 0, 78, 0
1, 176520, Note_on_c, 0, 66, 0
1, 176640, Tempo, 360295
1, 176640, Note_on_c, 0, 50, 0
1, 176640, Note_on_c, 0, 60, 0
1, 176640, Note_on_c, 0, 67, 66
1, 176640, Note_on_c, 0, 74, 66
1, 176640, Note_on_c, 0, 79, 79
1, 176640, Note_on_c, 0, 38, 52
1, 176659, Control_c, 0, 64, 0
1, 176714, Control_c, 0, 64, 127
1, 176760, Note_on_c, 0, 79, 0
1, 176760, Note_on_c, 0, 67, 0
1, 176760, Note_on_c, 0, 74, 0
1, 176880, Tempo, 368437
1, 176880, Note_on_c, 0, 69, 61
1, 176880, Note_on_c, 0, 81, 73
1, 177000, Note_on_c, 0, 81, 0
1, 177000, Note_on_c, 0, 69, 0
1, 177120, Tempo, 358017
1, 177120, Note_on_c, 0, 38, 0
1, 177120, Note_on_c, 0, 70, 66
1, 177120, Note_on_c, 0, 74, 66
1, 177120, Note_on_c, 0, 82, 79
1, 177120, Control_c, 0, 64, 0
1, 177120, Note_on_c, 0, 43, 59
1, 177206, Control_c, 0, 64, 127
1, 177240, Note_on_c, 0, 82, 0
1, 177240, Note_on_c, 0, 70, 0
1, 177240, Note_on_c, 0, 74, 0
1, 177360, Tempo, 364919
1, 177360, Note_on_c, 0, 71, 61
1, 177360, Note_on_c, 0, 83, 77
1, 177480, Note_on_c, 0, 83, 0
1, 177480, Note_on_c, 0, 71, 0
1, 177600, Tempo, 364919
1, 177600, Note_on_c, 0, 43, 0
1, 177600, Note_on_c, 0, 86, 83
1, 177600, Note_on_c, 0, 74, 71
1, 177600, Note_on_c, 0, 50, 55
1, 177600, Note_on_c, 0, 59, 55
1, 177640, Tempo, 368437
1, 177720, Tempo, 369663
1, 177720, Note_on_c, 0, 74, 0
1, 177720, Note_on_c, 0, 86, 0
1, 177760, Tempo, 370851
1, 177840, Tempo, 372047
1, 177840, Note_on_c, 0, 91, 83
1, 177840, Note_on_c, 0, 79, 71
1, 177880, Tempo, 373274
1, 177960, Tempo, 374508
1, 177960, Note_on_c, 0, 79, 0
1, 177960, Note_on_c, 0, 91, 0
1, 178000, Tempo, 375752
1, 178080, Tempo, 376979
1, 178080, Note_on_c, 0, 50, 0
1, 178080, Note_on_c, 0, 59, 0
1, 178080, Note_on_c, 0, 95, 84
1, 178080, Note_on_c, 0, 83, 71
1, 178080, Note_on_c, 0, 43, 55
1, 178099, Control_c, 0, 64, 0
1, 178120, Tempo, 378239
1, 178189, Control_c, 0, 64, 127
1, 178200, Tempo, 379507
1, 178200, Note_on_c, 0, 83, 0
1, 178200, Note_on_c, 0, 95, 0
1, 178240, Tempo, 380783
1, 178320, Tempo, 382044
1, 178320, Note_on_c, 0, 98, 86
1, 178320, Note_on_c, 0, 86, 73
1, 178360, Tempo, 383338
1, 178440, Tempo, 384640
1, 178440, Note_on_c, 0, 86, 0
1, 178440, Note_on_c, 0, 98, 0
1, 178560, Tempo, 396694
1, 178560, Note_on_c, 0, 43, 0
1, 178560, Control_c, 0, 64, 0
1, 178560, Note_on_c, 0, 49, 50
1, 178800, Tempo, 380783
1, 178800, Note_on_c, 0, 59, 50
1, 178800, Note_on_c, 0, 61, 50
1, 178800, Note_on_c, 0, 53, 38
1, 178860, Note_on_c, 0, 53, 0
1, 178920, Note_on_c, 0, 61, 0
1, 178920, Note_on_c, 0, 59, 0
1, 179040, Note_on_c, 0, 59, 54
1, 179040, Note_on_c, 0, 63, 54
1, 179040, Note_on_c, 0, 54, 45
1, 179100, Note_on_c, 0, 54, 0
1, 179160, Note_on_c, 0, 63, 0
1, 179160, Note_on_c, 0, 59, 0
1, 179280, Tempo, 392593
1, 179280, Note_on_c, 0, 59, 50
1, 179280, Note_on_c, 0, 65, 50
1, 179280, Note_on_c, 0, 56, 39
1, 179340, Note_on_c, 0, 56, 0
1, 179400, Note_on_c, 0, 65, 0
1, 179400, Note_on_c, 0, 59, 0
1, 179400, Note_on_c, 0, 63, 45
1, 179460, Note_on_c, 0, 63, 0
1, 179460, Note_on_c, 0, 65, 46
1, 179520, Tempo, 382044
1, 179520, Note_on_c, 0, 65, 0
1, 179520, Note_on_c, 0, 59, 54
1, 179520, Note_on_c, 0, 63, 54
1, 179520, Note_on_c, 0, 54, 44
1, 179580, Note_on_c, 0, 54, 0
1, 179640, Note_on_c, 0, 63, 0
1, 179640, Note_on_c, 0, 59, 0
1, 179760, Tempo, 389914
1, 179760, Note_on_c, 0, 59, 50
1, 179760, Note_on_c, 0, 61, 50
1, 179760, Note_on_c, 0, 53, 40
1, 179820, Note_on_c, 0, 53, 0
1, 179880, Note_on_c, 0, 61, 0
1, 179880, Note_on_c, 0, 59, 0
1, 180000, Tempo, 398168
1, 180000, Note_on_c, 0, 49, 0
1, 180000, Note_on_c, 0, 58, 76
1, 180000, Note_on_c, 0, 66, 79
1, 180000, Note_on_c, 0, 42, 61
1, 180000, Note_on_c, 0, 49, 61
1, 180071, Control_c, 0, 64, 127
1, 180120, Note_on_c, 0, 66, 0
1, 180120, Note_on_c, 0, 58, 0
1, 180240, Tempo, 361446
1, 180240, Note_on_c, 0, 42, 0
1, 180240, Note_on_c, 0, 49, 0
1, 180240, Note_on_c, 0, 90, 57
1, 180240, Note_on_c, 0, 85, 48
1, 180240, Note_on_c, 0, 82, 48
1, 180360, Note_on_c, 0, 82, 0
1, 180360, Note_on_c, 0, 85, 0
1, 180360, Note_on_c, 0, 90, 0
1, 180360, Note_on_c, 0, 78, 57
1, 180480, Tempo, 372671
1, 180480, Note_on_c, 0, 78, 0
1, 180480, Note_on_c, 0, 80, 69
1, 180600, Note_on_c, 0, 80, 0
1, 180720, Tempo, 360360
1, 180720, Note_on_c, 0, 90, 57
1, 180720, Note_on_c, 0, 85, 48
1, 180720, Note_on_c, 0, 82, 48
1, 180840, Note_on_c, 0, 82, 0
1, 180840, Note_on_c, 0, 85, 0
1, 180840, Note_on_c, 0, 90, 0
1, 180840, Note_on_c, 0, 78, 57
1, 180960, Tempo, 372671
1, 180960, Note_on_c, 0, 78, 0
1, 180960, Note_on_c, 0, 80, 69
1, 181080, Note_on_c, 0, 80, 0
1, 181200, Tempo, 361446
1, 181200, Note_on_c, 0, 90, 57
1, 181200, Note_on_c, 0, 85, 48
1, 181200, Note_on_c, 0, 82, 48
1, 181320, Note_on_c, 0, 82, 0
1, 181320, Note_on_c, 0, 85, 0
1, 181320, Note_on_c, 0, 90, 0
1, 181320, Note_on_c, 0, 78, 57
1, 181360, Tempo, 371103
1, 181440, Tempo, 372671
1, 181440, Note_on_c, 0, 78, 0
1, 181440, Note_on_c, 0, 80, 69
1, 181480, Tempo, 372185
1, 181560, Note_on_c, 0, 80, 0
1, 181680, Tempo, 360360
1, 181680, Note_on_c, 0, 90, 57
1, 181680, Note_on_c, 0, 85, 48
1, 181680, Note_on_c, 0, 82, 48
1, 181800, Note_on_c, 0, 82, 0
1, 181800, Note_on_c, 0, 85, 0
1, 181800, Note_on_c, 0, 90, 0
1, 181800, Note_on_c, 0, 78, 57
1, 181920, Tempo, 371517
1, 181920, Note_on_c, 0, 78, 0
1, 181920, Note_on_c, 0, 80, 69
1, 182040, Note_on_c, 0, 80, 0
1, 182160, Tempo, 360360
1, 182160, Note_on_c, 0, 90, 57
1, 182160, Note_on_c, 0, 85, 48
1, 182160, Note_on_c, 0, 82, 48
1, 182280, Note_on_c, 0, 82, 0
1, 182280, Note_on_c, 0, 85, 0
1, 182280, Note_on_c, 0, 90, 0
1, 182280, Note_on_c, 0, 78, 57
1, 182400, Tempo, 383509
1, 182400, Note_on_c, 0, 78, 0
1, 182400, Note_on_c, 0, 80, 69
1, 182520, Note_on_c, 0, 80, 0
1, 182640, Note_on_c, 0, 78, 54
1, 182640, Note_on_c, 0, 90, 64
1, 182640, Note_on_c, 0, 85, 54
1, 182640, Note_on_c, 0, 82, 54
1, 182760, Note_on_c, 0, 82, 0
1, 182760, Note_on_c, 0, 78, 0
1, 182760, Note_on_c, 0, 90, 0
1, 182760, Note_on_c, 0, 85, 0
1, 182880, Note_on_c, 0, 93, 91
1, 182880, Note_on_c, 0, 84, 77
1, 182880, Note_on_c, 0, 81, 77
1, 182880, Note_on_c, 0, 54, 73
1, 182880, Note_on_c, 0, 50, 73
1, 182880, Note_on_c, 0, 42, 62
1, 182887, Control_c, 0, 64, 0
1, 183000, Note_on_c, 0, 81, 0
1, 183000, Note_on_c, 0, 93, 0
1, 183000, Note_on_c, 0, 84, 0
1, 183006, Control_c, 0, 64, 127
1, 183120, Tempo, 361446
1, 183120, Note_on_c, 0, 54, 0
1, 183120, Note_on_c, 0, 50, 0
1, 183120, Note_on_c, 0, 42, 0
1, 183120, Note_on_c, 0, 74, 51
1, 183120, Note_on_c, 0, 69, 43
1, 183120, Note_on_c, 0, 66, 43
1, 183240, Note_on_c, 0, 66, 0
1, 183240, Note_on_c, 0, 69, 0
1, 183240, Note_on_c, 0, 74, 0
1, 183240, Note_on_c, 0, 62, 51
1, 183360, Tempo, 371517
1, 183360, Note_on_c, 0, 62, 0
1, 183360, Note_on_c, 0, 64, 64
1, 183480, Note_on_c, 0, 64, 0
1, 183600, Tempo, 361446
1, 183600, Note_on_c, 0, 74, 51
1, 183600, Note_on_c, 0, 69, 43
1, 183600, Note_on_c, 0, 66, 43
1, 183720, Note_on_c, 0, 66, 0
1, 183720, Note_on_c, 0, 69, 0
1, 183720, Note_on_c, 0, 74, 0
1, 183720, Note_on_c, 0, 62, 51
1, 183840, Tempo, 371517
1, 183840, Note_on_c, 0, 62, 0
1, 183840, Note_on_c, 0, 64, 64
1, 183960, Note_on_c, 0, 64, 0
1, 184080, Tempo, 362538
1, 184080, Note_on_c, 0, 74, 51
1, 184080, Note_on_c, 0, 69, 43
1, 184080, Note_on_c, 0, 66, 43
1, 184200, Note_on_c, 0, 66, 0
1, 184200, Note_on_c, 0, 69, 0
1, 184200, Note_on_c, 0, 74, 0
1, 184200, Note_on_c, 0, 62, 51
1, 184320, Tempo, 371517
1, 184320, Note_on_c, 0, 62, 0
1, 184320, Note_on_c, 0, 64, 64
1, 184440, Note_on_c, 0, 64, 0
1, 184560, Tempo, 362538
1, 184560, Note_on_c, 0, 74, 51
1, 184560, Note_on_c, 0, 69, 43
1, 184560, Note_on_c, 0, 66, 43
1, 184680, Note_on_c, 0, 66, 0
1, 184680, Note_on_c, 0, 69, 0
1, 184680, Note_on_c, 0, 74, 0
1, 184680, Note_on_c, 0, 62, 51
1, 184800, Tempo, 371517
1, 184800, Note_on_c, 0, 62, 0
1, 184800, Note_on_c, 0, 64, 64
1, 184920, Note_on_c, 0, 64, 0
1, 185040, Tempo, 362538
1, 185040, Note_on_c, 0, 74, 51
1, 185040, Note_on_c, 0, 69, 43
1, 185040, Note_on_c, 0, 66, 43
1, 185160, Note_on_c, 0, 66, 0
1, 185160, Note_on_c, 0, 69, 0
1, 185160, Note_on_c, 0, 74, 0
1, 185160, Note_on_c, 0, 62, 51
1, 185280, Tempo, 384689
1, 185280, Note_on_c, 0, 62, 0
1, 185280, Note_on_c, 0, 64, 64
1, 185400, Note_on_c, 0, 64, 0
1, 185520, Note_on_c, 0, 62, 48
1, 185520, Note_on_c, 0, 74, 57
1, 185520, Note_on_c, 0, 69, 48
1, 185520, Note_on_c, 0, 66, 48
1, 185640, Note_on_c, 0, 66, 0
1, 185640, Note_on_c, 0, 62, 0
1, 185640, Note_on_c, 0, 74, 0
1, 185640, Note_on_c, 0, 69, 0
1, 185760, Tempo, 400909
1, 185760, Note_on_c, 0, 66, 76
1, 185760, Note_on_c, 0, 70, 76
1, 185760, Note_on_c, 0, 73, 76
1, 185760, Note_on_c, 0, 78, 91
1, 185760, Note_on_c, 0, 49, 61
1, 185760, Note_on_c, 0, 42, 61
1, 185760, Note_on_c, 0, 54, 73
1, 185769, Control_c, 0, 64, 0
1, 185880, Note_on_c, 0, 78, 0
1, 185880, Note_on_c, 0, 73, 0
1, 185880, Note_on_c, 0, 66, 0
1, 185880, Note_on_c, 0, 70, 0
1, 185880, Control_c, 0, 64, 127
1, 186000, Tempo, 361446
1, 186000, Note_on_c, 0, 54, 0
1, 186000, Note_on_c, 0, 49, 0
1, 186000, Note_on_c, 0, 42, 0
1, 186000, Note_on_c, 0, 90, 57
1, 186000, Note_on_c, 0, 85, 48
1, 186000, Note_on_c, 0, 82, 48
1, 186120, Note_on_c, 0, 82, 0
1, 186120, Note_on_c, 0, 85, 0
1, 186120, Note_on_c, 0, 90, 0
1, 186120, Note_on_c, 0, 78, 57
1, 186240, Tempo, 370370
1, 186240, Note_on_c, 0, 78, 0
1, 186240, Note_on_c, 0, 80, 68
1, 186360, Note_on_c, 0, 80, 0
1, 186480, Tempo, 362538
1, 186480, Note_on_c, 0, 90, 57
1, 186480, Note_on_c, 0, 85, 48
1, 186480, Note_on_c, 0, 82, 48
1, 186600, Note_on_c, 0, 82, 0
1, 186600, Note_on_c, 0, 85, 0
1, 186600, Note_on_c, 0, 90, 0
1, 186600, Note_on_c, 0, 78, 57
1, 186720, Tempo, 371517
1, 186720, Note_on_c, 0, 78, 0
1, 186720, Note_on_c, 0, 80, 68
1, 186840, Note_on_c, 0, 80, 0
1, 186960, Tempo, 363636
1, 186960, Note_on_c, 0, 90, 57
1, 186960, Note_on_c, 0, 85, 48
1, 186960, Note_on_c, 0, 82, 48
1, 187080, Note_on_c, 0, 82, 0
1, 187080, Note_on_c, 0, 85, 0
1, 187080, Note_on_c, 0, 90, 0
1, 187080, Note_on_c, 0, 78, 57
1, 187200, Tempo, 373297
1, 187200, Note_on_c, 0, 78, 0
1, 187200, Note_on_c, 0, 80, 68
1, 187320, Note_on_c, 0, 80, 0
1, 187440, Tempo, 363636
1, 187440, Note_on_c, 0, 90, 57
1, 187440, Note_on_c, 0, 85, 48
1, 187440, Note_on_c, 0, 82, 48
1, 187560, Note_on_c, 0, 82, 0
1, 187560, Note_on_c, 0, 85, 0
1, 187560, Note_on_c, 0, 90, 0
1, 187560, Note_on_c, 0, 78, 57
1, 187680, Tempo, 372671
1, 187680, Note_on_c, 0, 78, 0
1, 187680, Note_on_c, 0, 80, 68
1, 187800, Note_on_c, 0, 80, 0
1, 187920, Note_on_c, 0, 90, 57
1, 187920, Note_on_c, 0, 85, 48
1, 187920, Note_on_c, 0, 82, 48
1, 188040, Note_on_c, 0, 82, 0
1, 188040, Note_on_c, 0, 85, 0
1, 188040, Note_on_c, 0, 90, 0
1, 188040, Note_on_c, 0, 78, 57
1, 188160, Tempo, 383509
1, 188160, Note_on_c, 0, 78, 0
1, 188160, Note_on_c, 0, 80, 68
1, 188280, Note_on_c, 0, 80, 0
1, 188400, Note_on_c, 0, 78, 54
1, 188400, Note_on_c, 0, 90, 64
1, 188400, Note_on_c, 0, 85, 54
1, 188400, Note_on_c, 0, 82, 54
1, 188520, Note_on_c, 0, 82, 0
1, 188520, Note_on_c, 0, 78, 0
1, 188520, Note_on_c, 0, 90, 0
1, 188520, Note_on_c, 0, 85, 0
1, 188640, Note_on_c, 0, 90, 91
1, 188640, Note_on_c, 0, 94, 91
1, 188640, Note_on_c, 0, 87, 76
1, 188640, Note_on_c, 0, 82, 76
1, 188640, Note_on_c, 0, 51, 73
1, 188640, Note_on_c, 0, 46, 61
1, 188640, Note_on_c, 0, 39, 61
1, 188650, Control_c, 0, 64, 0
1, 188720, Control_c, 0, 64, 127
1, 188760, Note_on_c, 0, 82, 0
1, 188760, Note_on_c, 0, 87, 0
1, 188760, Note_on_c, 0, 90, 0
1, 188760, Note_on_c, 0, 94, 0
1, 188880, Tempo, 362538
1, 188880, Note_on_c, 0, 39, 0
1, 188880, Note_on_c, 0, 51, 0
1, 188880, Note_on_c, 0, 46, 0
1, 188880, Note_on_c, 0, 75, 51
1, 188880, Note_on_c, 0, 70, 43
1, 188880, Note_on_c, 0, 66, 43
1, 189000, Note_on_c, 0, 66, 0
1, 189000, Note_on_c, 0, 70, 0
1, 189000, Note_on_c, 0, 75, 0
1, 189000, Note_on_c, 0, 63, 51
1, 189120, Tempo, 371517
1, 189120, Note_on_c, 0, 63, 0
1, 189120, Note_on_c, 0, 65, 64
1, 189240, Note_on_c, 0, 65, 0
1, 189360, Tempo, 362538
1, 189360, Note_on_c, 0, 75, 51
1, 189360, Note_on_c, 0, 70, 43
1, 189360, Note_on_c, 0, 66, 43
1, 189480, Note_on_c, 0, 66, 0
1, 189480, Note_on_c, 0, 70, 0
1, 189480, Note_on_c, 0, 75, 0
1, 189480, Note_on_c, 0, 63, 51
1, 189600, Tempo, 371517
1, 189600, Note_on_c, 0, 63, 0
1, 189600, Note_on_c, 0, 65, 64
1, 189720, Note_on_c, 0, 65, 0
1, 189840, Tempo, 362538
1, 189840, Note_on_c, 0, 75, 51
1, 189840, Note_on_c, 0, 70, 43
1, 189840, Note_on_c, 0, 66, 43
1, 189960, Note_on_c, 0, 66, 0
1, 189960, Note_on_c, 0, 70, 0
1, 189960, Note_on_c, 0, 75, 0
1, 189960, Note_on_c, 0, 63, 51
1, 190000, Tempo, 371103
1, 190080, Tempo, 372185
1, 190080, Note_on_c, 0, 63, 0
1, 190080, Note_on_c, 0, 65, 64
1, 190200, Note_on_c, 0, 65, 0
1, 190320, Tempo, 362538
1, 190320, Note_on_c, 0, 75, 51
1, 190320, Note_on_c, 0, 70, 43
1, 190320, Note_on_c, 0, 66, 43
1, 190440, Note_on_c, 0, 66, 0
1, 190440, Note_on_c, 0, 70, 0
1, 190440, Note_on_c, 0, 75, 0
1, 190440, Note_on_c, 0, 63, 51
1, 190560, Tempo, 371517
1, 190560, Note_on_c, 0, 63, 0
1, 190560, Note_on_c, 0, 65, 64
1, 190680, Note_on_c, 0, 65, 0
1, 190800, Tempo, 363636
1, 190800, Note_on_c, 0, 75, 51
1, 190800, Note_on_c, 0, 70, 43
1, 190800, Note_on_c, 0, 66, 43
1, 190920, Note_on_c, 0, 66, 0
1, 190920, Note_on_c, 0, 70, 0
1, 190920, Note_on_c, 0, 75, 0
1, 190920, Note_on_c, 0, 63, 51
1, 191000, Tempo, 385852
1, 191040, Tempo, 399521
1, 191040, Note_on_c, 0, 63, 0
1, 191040, Note_on_c, 0, 87, 74
1, 191040, Note_on_c, 0, 83, 74
1, 191040, Note_on_c, 0, 78, 63
1, 191040, Note_on_c, 0, 75, 63
1, 191040, Note_on_c, 0, 47, 52
1, 191040, Note_on_c, 0, 54, 62
1, 191040, Note_on_c, 0, 59, 62
1, 191054, Control_c, 0, 64, 0
1, 191139, Control_c, 0, 64, 127
1, 191160, Note_on_c, 0, 59, 0
1, 191160, Note_on_c, 0, 47, 0
1, 191160, Note_on_c, 0, 83, 0
1, 191160, Note_on_c, 0, 78, 0
1, 191160, Note_on_c, 0, 87, 0
1, 191160, Note_on_c, 0, 54, 0
1, 191160, Note_on_c, 0, 75, 0
1, 191280, Tempo, 416696
1, 191280, Note_on_c, 0, 78, 64
1, 191280, Note_on_c, 0, 83, 64
1, 191280, Note_on_c, 0, 87, 77
1, 191280, Note_on_c, 0, 90, 77
1, 191280, Note_on_c, 0, 47, 51
1, 191280, Note_on_c, 0, 54, 61
1, 191280, Note_on_c, 0, 59, 61
1, 191400, Note_on_c, 0, 59, 0
1, 191400, Note_on_c, 0, 47, 0
1, 191400, Note_on_c, 0, 83, 0
1, 191400, Note_on_c, 0, 87, 0
1, 191400, Note_on_c, 0, 78, 0
1, 191400, Note_on_c, 0, 54, 0
1, 191400, Note_on_c, 0, 90, 0
1, 191520, Tempo, 404040
1, 191520, Note_on_c, 0, 94, 82
1, 191520, Note_on_c, 0, 90, 82
1, 191520, Note_on_c, 0, 85, 69
1, 191520, Note_on_c, 0, 82, 69
1, 191520, Note_on_c, 0, 42, 58
1, 191520, Note_on_c, 0, 49, 58
1, 191520, Note_on_c, 0, 54, 69
1, 191527, Control_c, 0, 64, 0
1, 191628, Control_c, 0, 64, 127
1, 191640, Note_on_c, 0, 82, 0
1, 191640, Note_on_c, 0, 85, 0
1, 191640, Note_on_c, 0, 94, 0
1, 191640, Note_on_c, 0, 90, 0
1, 191760, Tempo, 363636
1, 191760, Note_on_c, 0, 54, 0
1, 191760, Note_on_c, 0, 42, 0
1, 191760, Note_on_c, 0, 49, 0
1, 191760, Note_on_c, 0, 71, 57
1, 191760, Note_on_c, 0, 66, 48
1, 191760, Note_on_c, 0, 63, 48
1, 191880, Note_on_c, 0, 63, 0
1, 191880, Note_on_c, 0, 66, 0
1, 191880, Note_on_c, 0, 71, 0
1, 191880, Note_on_c, 0, 61, 57
1, 191990, Note_on_c, 0, 61, 0
1, 192000, Tempo, 372671
1, 192000, Note_on_c, 0, 61, 68
1, 192120, Note_on_c, 0, 61, 0
1, 192240, Tempo, 363636
1, 192240, Note_on_c, 0, 73, 59
1, 192240, Note_on_c, 0, 71, 49
1, 192240, Note_on_c, 0, 68, 49
1, 192360, Note_on_c, 0, 68, 0
1, 192360, Note_on_c, 0, 71, 0
1, 192360, Note_on_c, 0, 73, 0
1, 192360, Note_on_c, 0, 66, 59
1, 192470, Note_on_c, 0, 66, 0
1, 192480, Tempo, 369231
1, 192480, Note_on_c, 0, 66, 72
1, 192600, Note_on_c, 0, 66, 0
1, 192720, Tempo, 359281
1, 192720, Note_on_c, 0, 82, 61
1, 192720, Note_on_c, 0, 78, 51
1, 192720, Note_on_c, 0, 75, 51
1, 192840, Note_on_c, 0, 75, 0
1, 192840, Note_on_c, 0, 78, 0
1, 192840, Note_on_c, 0, 82, 0
1, 192840, Note_on_c, 0, 73, 62
1, 192950, Note_on_c, 0, 73, 0
1, 192960, Tempo, 368098
1, 192960, Note_on_c, 0, 73, 73
1, 193080, Note_on_c, 0, 73, 0
1, 193200, Tempo, 361446
1, 193200, Note_on_c, 0, 85, 63
1, 193200, Note_on_c, 0, 83, 53
1, 193200, Note_on_c, 0, 80, 53
1, 193320, Note_on_c, 0, 80, 0
1, 193320, Note_on_c, 0, 83, 0
1, 193320, Note_on_c, 0, 85, 0
1, 193320, Note_on_c, 0, 78, 64
1, 193430, Note_on_c, 0, 78, 0
1, 193440, Tempo, 369231
1, 193440, Note_on_c, 0, 78, 77
1, 193560, Note_on_c, 0, 78, 0
1, 193680, Tempo, 362538
1, 193680, Note_on_c, 0, 94, 66
1, 193680, Note_on_c, 0, 90, 55
1, 193680, Note_on_c, 0, 87, 55
1, 193800, Note_on_c, 0, 87, 0
1, 193800, Note_on_c, 0, 90, 0
1, 193800, Note_on_c, 0, 94, 0
1, 193800, Note_on_c, 0, 85, 66
1, 193910, Note_on_c, 0, 85, 0
1, 193920, Note_on_c, 0, 85, 79
1, 193960, Tempo, 380035
1, 194040, Note_on_c, 0, 85, 0
1, 194120, Tempo, 381194
1, 194160, Tempo, 398168
1, 194160, Note_on_c, 0, 97, 68
1, 194160, Note_on_c, 0, 95, 57
1, 194160, Note_on_c, 0, 92, 57
1, 194280, Note_on_c, 0, 92, 0
1, 194280, Note_on_c, 0, 95, 0
1, 194280, Note_on_c, 0, 97, 0
1, 194280, Note_on_c, 0, 90, 68
1, 194390, Note_on_c, 0, 90, 0
1, 194400, Note_on_c, 0, 90, 90
1, 194587, Control_c, 0, 64, 0
1, 194640, Note_on_c, 0, 90, 0
1, 195314, Control_c, 0, 64, 127
1, 195360, Note_on_c, 0, 90, 92
1, 195360, Note_on_c, 0, 86, 92
1, 195360, Note_on_c, 0, 83, 77
1, 195360, Note_on_c, 0, 78, 77
1, 195360, Note_on_c, 0, 47, 55
1, 195360, Note_on_c, 0, 54, 55
1, 195360, Note_on_c, 0, 59, 66
1, 195600, Note_on_c, 0, 59, 0
1, 195600, Note_on_c, 0, 47, 0
1, 195600, Note_on_c, 0, 86, 0
1, 195600, Note_on_c, 0, 83, 0
1, 195600, Note_on_c, 0, 90, 0
1, 195600, Note_on_c, 0, 54, 0
1, 195600, Note_on_c, 0, 78, 0
1, 195611, Control_c, 0, 64, 0
1, 195780, Note_on_c, 0, 42, 61
1, 195810, Note_on_c, 0, 49, 61
1, 195840, Note_on_c, 0, 94, 97
1, 195840, Note_on_c, 0, 90, 97
1, 195840, Note_on_c, 0, 85, 82
1, 195840, Note_on_c, 0, 82, 82
1, 195840, Note_on_c, 0, 58, 73
1, 195967, Control_c, 0, 64, 127
1, 196080, Note_on_c, 0, 58, 0
1, 196080, Note_on_c, 0, 85, 0
1, 196080, Note_on_c, 0, 49, 0
1, 196080, Note_on_c, 0, 94, 0
1, 196080, Note_on_c, 0, 42, 0
1, 196080, Note_on_c, 0, 82, 0
1, 196080, Note_on_c, 0, 90, 0
1, 196320, Tempo, 330287
1, 196345, Control_c, 0, 64, 0
1, 197220, Note_on_c, 0, 54, 62
1, 197250, Note_on_c, 0, 61, 62
1, 197280, Note_on_c, 0, 90, 82
1, 197280, Note_on_c, 0, 97, 82
1, 197280, Note_on_c, 0, 102, 97
1, 197280, Note_on_c, 0, 70, 73
1, 197320, Tempo, 398036
1, 197351, Control_c, 0, 64, 127
1, 197520, Note_on_c, 0, 70, 0
1, 197520, Note_on_c, 0, 61, 0
1, 197520, Note_on_c, 0, 90, 0
1, 197520, Note_on_c, 0, 54, 0
1, 197520, Note_on_c, 0, 102, 0
1, 197520, Note_on_c, 0, 97, 0
1, 197781, Control_c, 0, 64, 0
1, 197804, Tempo, 419668
1, 198522, Tempo, 410959
1, 198522, End_track
0, 0, End_of_file
