0, 0, Header, 0, 1, 480
1, 0, Start_track
1, 0, Title_t, "Suite espagnole"
1, 0, Title_t, "Granada"
1, 0, Copyright_t, "Copyright © 2001 by Bernd Krueger"
1, 0, Text_t, "Isaac Albeniz"
1, 0, Text_t, "Allegretto"
1, 0, Text_t, "Fertiggestellt am  3.3.2001\012"
1, 0, Text_t, "Update am 18.3.2001\012"
1, 0, Text_t, "Update am 30.3.2001\012"
1, 0, Text_t, "Normierung: 23.12.2002\012"
1, 0, Text_t, "Update am 3.9.2010\012"
1, 0, Text_t, "Dauer: 4:01 Minuten\012"
1, 0, SMPTE_offset, 96, 0, 3, 0, 0
1, 0, Time_signature, 3, 3, 12, 8
1, 0, Key_signature, -1, "major"
1, 0, Tempo, 780742
1, 0, Program_c, 0, 0
1, 0, Control_c, 0, 7, 100
1, 0, Control_c, 0, 10, 64
1, 0, Control_c, 0, 91, 127
1, 0, Text_t, "bdca426d104a26ac9dcb070447587523"
1, 0, Program_c, 0, 0
1, 0, Control_c, 0, 7, 100
1, 0, Control_c, 0, 10, 64
1, 0, Control_c, 0, 64, 0
1, 600, Tempo, 1159644
1, 630, Tempo, 1354402
1, 630, Note_on_c, 0, 41, 35
1, 649, Control_c, 0, 64, 127
1, 660, Note_on_c, 0, 72, 29
1, 660, Note_on_c, 0, 48, 37
1, 680, Note_on_c, 0, 77, 29
1, 690, Note_on_c, 0, 57, 39
1, 700, Note_on_c, 0, 81, 29
1, 720, Tempo, 888231
1, 720, Note_on_c, 0, 84, 36
1, 720, Note_on_c, 0, 65, 50
1, 960, Tempo, 912131
1, 960, Note_on_c, 0, 84, 0
1, 960, Note_on_c, 0, 72, 0
1, 960, Note_on_c, 0, 77, 0
1, 960, Note_on_c, 0, 81, 0
1, 960, Note_on_c, 0, 81, 27
1, 960, Note_on_c, 0, 84, 34
1, 960, Note_on_c, 0, 77, 27
1, 960, Note_on_c, 0, 72, 27
1, 1200, Note_on_c, 0, 72, 0
1, 1200, Note_on_c, 0, 77, 0
1, 1200, Note_on_c, 0, 81, 0
1, 1200, Note_on_c, 0, 84, 0
1, 1200, Note_on_c, 0, 84, 34
1, 1200, Note_on_c, 0, 72, 27
1, 1200, Note_on_c, 0, 81, 27
1, 1200, Note_on_c, 0, 77, 27
1, 1380, Note_on_c, 0, 77, 0
1, 1380, Note_on_c, 0, 81, 0
1, 1380, Note_on_c, 0, 84, 0
1, 1380, Note_on_c, 0, 72, 0
1, 1380, Note_on_c, 0, 72, 29
1, 1390, Control_c, 0, 64, 0
1, 1400, Note_on_c, 0, 77, 29
1, 1417, Control_c, 0, 64, 127
1, 1420, Note_on_c, 0, 81, 29
1, 1440, Tempo, 900901
1, 1440, Note_on_c, 0, 65, 0
1, 1440, Note_on_c, 0, 57, 0
1, 1440, Note_on_c, 0, 41, 0
1, 1440, Note_on_c, 0, 48, 0
1, 1440, Note_on_c, 0, 84, 36
1, 1560, Tempo, 929800
1, 1560, Note_on_c, 0, 64, 44
1, 1680, Tempo, 907990
1, 1680, Note_on_c, 0, 64, 0
1, 1680, Note_on_c, 0, 81, 0
1, 1680, Note_on_c, 0, 77, 0
1, 1680, Note_on_c, 0, 72, 0
1, 1680, Note_on_c, 0, 84, 0
1, 1680, Note_on_c, 0, 77, 27
1, 1680, Note_on_c, 0, 72, 27
1, 1680, Note_on_c, 0, 84, 34
1, 1680, Note_on_c, 0, 81, 27
1, 1680, Note_on_c, 0, 62, 49
1, 1800, Tempo, 929800
1, 1800, Note_on_c, 0, 62, 0
1, 1800, Note_on_c, 0, 60, 44
1, 1920, Tempo, 847817
1, 1920, Note_on_c, 0, 60, 0
1, 1920, Note_on_c, 0, 81, 0
1, 1920, Note_on_c, 0, 77, 0
1, 1920, Note_on_c, 0, 72, 0
1, 1920, Note_on_c, 0, 84, 0
1, 1920, Note_on_c, 0, 77, 27
1, 1920, Note_on_c, 0, 84, 34
1, 1920, Note_on_c, 0, 81, 27
1, 1920, Note_on_c, 0, 72, 27
1, 1920, Note_on_c, 0, 62, 49
1, 1931, Control_c, 0, 64, 0
1, 1966, Control_c, 0, 64, 127
1, 2040, Tempo, 940586
1, 2040, Note_on_c, 0, 62, 0
1, 2040, Note_on_c, 0, 64, 44
1, 2100, Note_on_c, 0, 81, 0
1, 2100, Note_on_c, 0, 72, 0
1, 2100, Note_on_c, 0, 77, 0
1, 2100, Note_on_c, 0, 84, 0
1, 2100, Note_on_c, 0, 72, 29
1, 2115, Control_c, 0, 64, 0
1, 2120, Note_on_c, 0, 77, 29
1, 2140, Note_on_c, 0, 81, 29
1, 2160, Tempo, 867930
1, 2160, Note_on_c, 0, 64, 0
1, 2160, Note_on_c, 0, 84, 36
1, 2160, Note_on_c, 0, 53, 39
1, 2160, Note_on_c, 0, 62, 45
1, 2195, Control_c, 0, 64, 127
1, 2240, Note_on_c, 0, 62, 0
1, 2240, Note_on_c, 0, 64, 41
1, 2320, Note_on_c, 0, 64, 0
1, 2320, Note_on_c, 0, 62, 41
1, 2400, Tempo, 912131
1, 2400, Note_on_c, 0, 62, 0
1, 2400, Note_on_c, 0, 77, 0
1, 2400, Note_on_c, 0, 72, 0
1, 2400, Note_on_c, 0, 81, 0
1, 2400, Note_on_c, 0, 84, 0
1, 2400, Note_on_c, 0, 81, 27
1, 2400, Note_on_c, 0, 84, 34
1, 2400, Note_on_c, 0, 72, 27
1, 2400, Note_on_c, 0, 77, 27
1, 2400, Note_on_c, 0, 60, 46
1, 2416, Control_c, 0, 64, 0
1, 2506, Control_c, 0, 64, 127
1, 2640, Tempo, 924357
1, 2640, Note_on_c, 0, 77, 0
1, 2640, Note_on_c, 0, 72, 0
1, 2640, Note_on_c, 0, 84, 0
1, 2640, Note_on_c, 0, 81, 0
1, 2640, Note_on_c, 0, 81, 27
1, 2640, Note_on_c, 0, 77, 27
1, 2640, Note_on_c, 0, 84, 34
1, 2640, Note_on_c, 0, 72, 27
1, 2820, Note_on_c, 0, 72, 0
1, 2820, Note_on_c, 0, 77, 0
1, 2820, Note_on_c, 0, 81, 0
1, 2820, Note_on_c, 0, 84, 0
1, 2820, Note_on_c, 0, 72, 29
1, 2840, Note_on_c, 0, 77, 29
1, 2860, Note_on_c, 0, 81, 29
1, 2880, Tempo, 900225
1, 2880, Note_on_c, 0, 53, 0
1, 2880, Note_on_c, 0, 84, 36
1, 3120, Note_on_c, 0, 84, 0
1, 3120, Note_on_c, 0, 81, 0
1, 3120, Note_on_c, 0, 77, 0
1, 3120, Note_on_c, 0, 72, 0
1, 3120, Note_on_c, 0, 81, 27
1, 3120, Note_on_c, 0, 84, 34
1, 3120, Note_on_c, 0, 77, 27
1, 3120, Note_on_c, 0, 72, 27
1, 3360, Tempo, 912131
1, 3360, Note_on_c, 0, 72, 0
1, 3360, Note_on_c, 0, 84, 0
1, 3360, Note_on_c, 0, 77, 0
1, 3360, Note_on_c, 0, 81, 0
1, 3360, Note_on_c, 0, 84, 34
1, 3360, Note_on_c, 0, 72, 27
1, 3360, Note_on_c, 0, 81, 27
1, 3360, Note_on_c, 0, 77, 27
1, 3480, Tempo, 1354402
1, 3510, Note_on_c, 0, 60, 0
1, 3510, Note_on_c, 0, 41, 34
1, 3540, Note_on_c, 0, 81, 0
1, 3540, Note_on_c, 0, 77, 0
1, 3540, Note_on_c, 0, 84, 0
1, 3540, Note_on_c, 0, 72, 0
1, 3540, Note_on_c, 0, 72, 29
1, 3540, Note_on_c, 0, 48, 37
1, 3550, Control_c, 0, 64, 0
1, 3560, Note_on_c, 0, 77, 29
1, 3570, Note_on_c, 0, 57, 39
1, 3580, Note_on_c, 0, 81, 29
1, 3583, Control_c, 0, 64, 127
1, 3600, Tempo, 888231
1, 3600, Note_on_c, 0, 84, 36
1, 3600, Note_on_c, 0, 65, 50
1, 3840, Tempo, 912131
1, 3840, Note_on_c, 0, 84, 0
1, 3840, Note_on_c, 0, 72, 0
1, 3840, Note_on_c, 0, 77, 0
1, 3840, Note_on_c, 0, 81, 0
1, 3840, Note_on_c, 0, 77, 27
1, 3840, Note_on_c, 0, 72, 27
1, 3840, Note_on_c, 0, 84, 34
1, 3840, Note_on_c, 0, 81, 27
1, 4080, Note_on_c, 0, 81, 0
1, 4080, Note_on_c, 0, 84, 0
1, 4080, Note_on_c, 0, 77, 0
1, 4080, Note_on_c, 0, 72, 0
1, 4080, Note_on_c, 0, 77, 27
1, 4080, Note_on_c, 0, 84, 34
1, 4080, Note_on_c, 0, 81, 27
1, 4080, Note_on_c, 0, 72, 27
1, 4260, Note_on_c, 0, 72, 0
1, 4260, Note_on_c, 0, 81, 0
1, 4260, Note_on_c, 0, 77, 0
1, 4260, Note_on_c, 0, 84, 0
1, 4260, Note_on_c, 0, 72, 29
1, 4274, Control_c, 0, 64, 0
1, 4280, Note_on_c, 0, 77, 29
1, 4290, Control_c, 0, 64, 127
1, 4300, Note_on_c, 0, 81, 29
1, 4320, Tempo, 880153
1, 4320, Note_on_c, 0, 65, 0
1, 4320, Note_on_c, 0, 57, 0
1, 4320, Note_on_c, 0, 41, 0
1, 4320, Note_on_c, 0, 48, 0
1, 4320, Note_on_c, 0, 84, 36
1, 4440, Tempo, 922367
1, 4440, Note_on_c, 0, 64, 44
1, 4560, Tempo, 866927
1, 4560, Note_on_c, 0, 64, 0
1, 4560, Note_on_c, 0, 81, 0
1, 4560, Note_on_c, 0, 77, 0
1, 4560, Note_on_c, 0, 72, 0
1, 4560, Note_on_c, 0, 84, 0
1, 4560, Note_on_c, 0, 84, 34
1, 4560, Note_on_c, 0, 72, 27
1, 4560, Note_on_c, 0, 81, 27
1, 4560, Note_on_c, 0, 77, 27
1, 4560, Note_on_c, 0, 62, 49
1, 4680, Tempo, 893788
1, 4680, Note_on_c, 0, 62, 0
1, 4680, Note_on_c, 0, 60, 44
1, 4800, Tempo, 880928
1, 4800, Note_on_c, 0, 60, 0
1, 4800, Note_on_c, 0, 77, 0
1, 4800, Note_on_c, 0, 84, 0
1, 4800, Note_on_c, 0, 72, 0
1, 4800, Note_on_c, 0, 81, 0
1, 4800, Note_on_c, 0, 77, 27
1, 4800, Note_on_c, 0, 72, 27
1, 4800, Note_on_c, 0, 84, 34
1, 4800, Note_on_c, 0, 81, 27
1, 4800, Note_on_c, 0, 62, 49
1, 4807, Control_c, 0, 64, 0
1, 4843, Control_c, 0, 64, 127
1, 4920, Tempo, 880928
1, 4920, Note_on_c, 0, 62, 0
1, 4920, Note_on_c, 0, 64, 44
1, 4980, Note_on_c, 0, 84, 0
1, 4980, Note_on_c, 0, 81, 0
1, 4980, Note_on_c, 0, 77, 0
1, 4980, Note_on_c, 0, 72, 0
1, 4980, Note_on_c, 0, 72, 29
1, 4992, Control_c, 0, 64, 0
1, 5000, Note_on_c, 0, 77, 29
1, 5020, Note_on_c, 0, 81, 29
1, 5040, Tempo, 861574
1, 5040, Note_on_c, 0, 64, 0
1, 5040, Note_on_c, 0, 84, 36
1, 5040, Note_on_c, 0, 62, 48
1, 5040, Note_on_c, 0, 53, 40
1, 5071, Control_c, 0, 64, 127
1, 5120, Note_on_c, 0, 62, 0
1, 5120, Note_on_c, 0, 64, 41
1, 5200, Note_on_c, 0, 64, 0
1, 5200, Note_on_c, 0, 62, 41
1, 5280, Tempo, 912131
1, 5280, Note_on_c, 0, 62, 0
1, 5280, Note_on_c, 0, 84, 0
1, 5280, Note_on_c, 0, 72, 0
1, 5280, Note_on_c, 0, 81, 0
1, 5280, Note_on_c, 0, 77, 0
1, 5280, Note_on_c, 0, 81, 27
1, 5280, Note_on_c, 0, 77, 27
1, 5280, Note_on_c, 0, 84, 34
1, 5280, Note_on_c, 0, 72, 27
1, 5280, Note_on_c, 0, 60, 46
1, 5298, Control_c, 0, 64, 0
1, 5365, Control_c, 0, 64, 127
1, 5520, Tempo, 924357
1, 5520, Note_on_c, 0, 72, 0
1, 5520, Note_on_c, 0, 84, 0
1, 5520, Note_on_c, 0, 77, 0
1, 5520, Note_on_c, 0, 81, 0
1, 5520, Note_on_c, 0, 81, 27
1, 5520, Note_on_c, 0, 84, 34
1, 5520, Note_on_c, 0, 72, 27
1, 5520, Note_on_c, 0, 77, 27
1, 5700, Note_on_c, 0, 77, 0
1, 5700, Note_on_c, 0, 84, 0
1, 5700, Note_on_c, 0, 81, 0
1, 5700, Note_on_c, 0, 72, 0
1, 5700, Note_on_c, 0, 72, 29
1, 5720, Note_on_c, 0, 77, 29
1, 5740, Note_on_c, 0, 81, 29
1, 5760, Tempo, 900225
1, 5760, Note_on_c, 0, 53, 0
1, 5760, Note_on_c, 0, 84, 36
1, 6000, Note_on_c, 0, 84, 0
1, 6000, Note_on_c, 0, 81, 0
1, 6000, Note_on_c, 0, 77, 0
1, 6000, Note_on_c, 0, 72, 0
1, 6000, Note_on_c, 0, 84, 34
1, 6000, Note_on_c, 0, 72, 27
1, 6000, Note_on_c, 0, 77, 27
1, 6000, Note_on_c, 0, 81, 27
1, 6240, Tempo, 943396
1, 6240, Note_on_c, 0, 81, 0
1, 6240, Note_on_c, 0, 72, 0
1, 6240, Note_on_c, 0, 77, 0
1, 6240, Note_on_c, 0, 84, 0
1, 6240, Note_on_c, 0, 81, 27
1, 6240, Note_on_c, 0, 84, 34
1, 6240, Note_on_c, 0, 77, 27
1, 6240, Note_on_c, 0, 72, 27
1, 6360, Tempo, 1005868
1, 6390, Note_on_c, 0, 60, 0
1, 6420, Note_on_c, 0, 77, 0
1, 6420, Note_on_c, 0, 81, 0
1, 6420, Note_on_c, 0, 84, 0
1, 6420, Note_on_c, 0, 72, 0
1, 6420, Note_on_c, 0, 76, 29
1, 6420, Note_on_c, 0, 72, 29
1, 6420, Note_on_c, 0, 41, 40
1, 6428, Control_c, 0, 64, 0
1, 6450, Note_on_c, 0, 48, 40
1, 6462, Control_c, 0, 64, 127
1, 6480, Tempo, 930665
1, 6480, Note_on_c, 0, 84, 36
1, 6480, Note_on_c, 0, 82, 29
1, 6480, Note_on_c, 0, 55, 47
1, 6600, Note_on_c, 0, 55, 0
1, 6600, Note_on_c, 0, 57, 51
1, 6700, Note_on_c, 0, 76, 0
1, 6720, Note_on_c, 0, 41, 0
1, 6720, Note_on_c, 0, 84, 0
1, 6720, Note_on_c, 0, 48, 0
1, 6720, Note_on_c, 0, 72, 0
1, 6720, Note_on_c, 0, 57, 0
1, 6720, Note_on_c, 0, 84, 34
1, 6720, Note_on_c, 0, 72, 27
1, 6720, Note_on_c, 0, 82, 27
1, 6720, Note_on_c, 0, 76, 27
1, 6720, Note_on_c, 0, 58, 53
1, 6740, Note_on_c, 0, 82, 0
1, 6840, Tempo, 991408
1, 6960, Tempo, 912131
1, 6960, Note_on_c, 0, 72, 0
1, 6960, Note_on_c, 0, 82, 0
1, 6960, Note_on_c, 0, 84, 0
1, 6960, Note_on_c, 0, 58, 0
1, 6960, Note_on_c, 0, 76, 0
1, 6960, Note_on_c, 0, 76, 27
1, 6960, Note_on_c, 0, 72, 27
1, 6960, Note_on_c, 0, 84, 34
1, 6960, Note_on_c, 0, 82, 27
1, 6960, Note_on_c, 0, 58, 51
1, 6981, Control_c, 0, 64, 0
1, 7073, Control_c, 0, 64, 127
1, 7080, Note_on_c, 0, 58, 0
1, 7080, Note_on_c, 0, 60, 53
1, 7140, Note_on_c, 0, 84, 0
1, 7140, Note_on_c, 0, 82, 0
1, 7140, Note_on_c, 0, 76, 0
1, 7140, Note_on_c, 0, 72, 0
1, 7140, Note_on_c, 0, 76, 29
1, 7140, Note_on_c, 0, 72, 29
1, 7200, Tempo, 912131
1, 7200, Note_on_c, 0, 60, 0
1, 7200, Note_on_c, 0, 82, 29
1, 7200, Note_on_c, 0, 84, 36
1, 7200, Note_on_c, 0, 62, 58
1, 7420, Note_on_c, 0, 76, 0
1, 7440, Tempo, 925783
1, 7440, Note_on_c, 0, 84, 0
1, 7440, Note_on_c, 0, 72, 0
1, 7440, Note_on_c, 0, 82, 27
1, 7440, Note_on_c, 0, 76, 27
1, 7440, Note_on_c, 0, 84, 34
1, 7440, Note_on_c, 0, 72, 27
1, 7460, Note_on_c, 0, 82, 0
1, 7560, Tempo, 900901
1, 7560, Note_on_c, 0, 62, 0
1, 7560, Note_on_c, 0, 64, 58
1, 7680, Tempo, 873490
1, 7680, Note_on_c, 0, 64, 0
1, 7680, Note_on_c, 0, 82, 0
1, 7680, Note_on_c, 0, 76, 0
1, 7680, Note_on_c, 0, 72, 0
1, 7680, Note_on_c, 0, 84, 0
1, 7680, Note_on_c, 0, 82, 27
1, 7680, Note_on_c, 0, 84, 34
1, 7680, Note_on_c, 0, 72, 27
1, 7680, Note_on_c, 0, 76, 27
1, 7680, Note_on_c, 0, 67, 62
1, 7800, Tempo, 922651
1, 7800, Note_on_c, 0, 67, 0
1, 7800, Note_on_c, 0, 64, 57
1, 7860, Note_on_c, 0, 72, 0
1, 7860, Note_on_c, 0, 76, 0
1, 7860, Note_on_c, 0, 82, 0
1, 7860, Note_on_c, 0, 84, 0
1, 7860, Note_on_c, 0, 76, 29
1, 7860, Note_on_c, 0, 72, 29
1, 7878, Control_c, 0, 64, 0
1, 7920, Tempo, 894188
1, 7920, Note_on_c, 0, 64, 0
1, 7920, Note_on_c, 0, 84, 36
1, 7920, Note_on_c, 0, 82, 29
1, 7920, Note_on_c, 0, 62, 58
1, 7948, Control_c, 0, 64, 127
1, 8000, Note_on_c, 0, 62, 0
1, 8000, Note_on_c, 0, 64, 53
1, 8080, Note_on_c, 0, 64, 0
1, 8080, Note_on_c, 0, 62, 49
1, 8140, Note_on_c, 0, 76, 0
1, 8160, Tempo, 912131
1, 8160, Note_on_c, 0, 72, 0
1, 8160, Note_on_c, 0, 62, 0
1, 8160, Note_on_c, 0, 84, 0
1, 8160, Note_on_c, 0, 84, 34
1, 8160, Note_on_c, 0, 72, 27
1, 8160, Note_on_c, 0, 82, 27
1, 8160, Note_on_c, 0, 76, 27
1, 8160, Note_on_c, 0, 60, 49
1, 8174, Control_c, 0, 64, 0
1, 8180, Note_on_c, 0, 82, 0
1, 8248, Control_c, 0, 64, 127
1, 8400, Note_on_c, 0, 76, 0
1, 8400, Note_on_c, 0, 82, 0
1, 8400, Note_on_c, 0, 84, 0
1, 8400, Note_on_c, 0, 72, 0
1, 8400, Note_on_c, 0, 76, 27
1, 8400, Note_on_c, 0, 72, 27
1, 8400, Note_on_c, 0, 84, 34
1, 8400, Note_on_c, 0, 82, 27
1, 8580, Note_on_c, 0, 82, 0
1, 8580, Note_on_c, 0, 72, 0
1, 8580, Note_on_c, 0, 84, 0
1, 8580, Note_on_c, 0, 76, 0
1, 8580, Note_on_c, 0, 76, 29
1, 8580, Note_on_c, 0, 72, 29
1, 8640, Tempo, 900225
1, 8640, Note_on_c, 0, 82, 29
1, 8640, Note_on_c, 0, 84, 36
1, 8860, Note_on_c, 0, 76, 0
1, 8880, Note_on_c, 0, 84, 0
1, 8880, Note_on_c, 0, 72, 0
1, 8880, Note_on_c, 0, 82, 27
1, 8880, Note_on_c, 0, 76, 27
1, 8880, Note_on_c, 0, 84, 34
1, 8880, Note_on_c, 0, 72, 27
1, 8900, Note_on_c, 0, 82, 0
1, 9120, Tempo, 956785
1, 9120, Note_on_c, 0, 82, 0
1, 9120, Note_on_c, 0, 76, 0
1, 9120, Note_on_c, 0, 84, 0
1, 9120, Note_on_c, 0, 72, 0
1, 9120, Note_on_c, 0, 82, 27
1, 9120, Note_on_c, 0, 84, 34
1, 9120, Note_on_c, 0, 72, 27
1, 9120, Note_on_c, 0, 76, 27
1, 9240, Tempo, 1005868
1, 9270, Note_on_c, 0, 60, 0
1, 9300, Note_on_c, 0, 72, 0
1, 9300, Note_on_c, 0, 82, 0
1, 9300, Note_on_c, 0, 84, 0
1, 9300, Note_on_c, 0, 76, 0
1, 9300, Note_on_c, 0, 72, 29
1, 9300, Note_on_c, 0, 76, 29
1, 9300, Note_on_c, 0, 41, 40
1, 9310, Control_c, 0, 64, 0
1, 9330, Control_c, 0, 64, 127
1, 9330, Note_on_c, 0, 48, 40
1, 9360, Tempo, 930665
1, 9360, Note_on_c, 0, 82, 29
1, 9360, Note_on_c, 0, 84, 36
1, 9360, Note_on_c, 0, 55, 47
1, 9480, Note_on_c, 0, 55, 0
1, 9480, Note_on_c, 0, 57, 51
1, 9580, Note_on_c, 0, 76, 0
1, 9600, Note_on_c, 0, 84, 0
1, 9600, Note_on_c, 0, 41, 0
1, 9600, Note_on_c, 0, 48, 0
1, 9600, Note_on_c, 0, 72, 0
1, 9600, Note_on_c, 0, 57, 0
1, 9600, Note_on_c, 0, 84, 34
1, 9600, Note_on_c, 0, 72, 27
1, 9600, Note_on_c, 0, 76, 27
1, 9600, Note_on_c, 0, 82, 27
1, 9600, Note_on_c, 0, 58, 53
1, 9620, Note_on_c, 0, 82, 0
1, 9720, Tempo, 950119
1, 9840, Tempo, 912131
1, 9840, Note_on_c, 0, 72, 0
1, 9840, Note_on_c, 0, 76, 0
1, 9840, Note_on_c, 0, 84, 0
1, 9840, Note_on_c, 0, 58, 0
1, 9840, Note_on_c, 0, 82, 0
1, 9840, Note_on_c, 0, 82, 28
1, 9840, Note_on_c, 0, 84, 36
1, 9840, Note_on_c, 0, 76, 28
1, 9840, Note_on_c, 0, 72, 28
1, 9840, Note_on_c, 0, 58, 51
1, 9858, Control_c, 0, 64, 0
1, 9939, Control_c, 0, 64, 127
1, 9960, Note_on_c, 0, 58, 0
1, 9960, Note_on_c, 0, 60, 53
1, 10020, Note_on_c, 0, 76, 0
1, 10020, Note_on_c, 0, 72, 0
1, 10020, Note_on_c, 0, 82, 0
1, 10020, Note_on_c, 0, 84, 0
1, 10020, Note_on_c, 0, 76, 31
1, 10020, Note_on_c, 0, 72, 31
1, 10080, Tempo, 901442
1, 10080, Note_on_c, 0, 60, 0
1, 10080, Note_on_c, 0, 84, 39
1, 10080, Note_on_c, 0, 82, 31
1, 10080, Note_on_c, 0, 62, 58
1, 10200, Tempo, 945180
1, 10300, Note_on_c, 0, 76, 0
1, 10320, Tempo, 880153
1, 10320, Note_on_c, 0, 72, 0
1, 10320, Note_on_c, 0, 62, 0
1, 10320, Note_on_c, 0, 84, 0
1, 10320, Note_on_c, 0, 84, 37
1, 10320, Note_on_c, 0, 72, 29
1, 10320, Note_on_c, 0, 82, 29
1, 10320, Note_on_c, 0, 76, 29
1, 10320, Note_on_c, 0, 64, 62
1, 10340, Note_on_c, 0, 82, 0
1, 10440, Tempo, 907990
1, 10440, Note_on_c, 0, 64, 0
1, 10440, Note_on_c, 0, 69, 56
1, 10560, Tempo, 922651
1, 10560, Note_on_c, 0, 69, 0
1, 10560, Note_on_c, 0, 76, 0
1, 10560, Note_on_c, 0, 84, 0
1, 10560, Note_on_c, 0, 72, 0
1, 10560, Note_on_c, 0, 82, 0
1, 10560, Note_on_c, 0, 76, 29
1, 10560, Note_on_c, 0, 72, 29
1, 10560, Note_on_c, 0, 84, 37
1, 10560, Note_on_c, 0, 82, 29
1, 10560, Note_on_c, 0, 67, 62
1, 10680, Tempo, 1019368
1, 10680, Note_on_c, 0, 67, 0
1, 10680, Note_on_c, 0, 64, 57
1, 10740, Note_on_c, 0, 84, 0
1, 10740, Note_on_c, 0, 82, 0
1, 10740, Note_on_c, 0, 76, 0
1, 10740, Note_on_c, 0, 72, 0
1, 10740, Note_on_c, 0, 76, 31
1, 10740, Note_on_c, 0, 72, 31
1, 10758, Control_c, 0, 64, 0
1, 10800, Tempo, 865301
1, 10800, Note_on_c, 0, 64, 0
1, 10800, Note_on_c, 0, 82, 29
1, 10800, Note_on_c, 0, 84, 36
1, 10800, Control_c, 0, 64, 127
1, 10800, Note_on_c, 0, 62, 58
1, 10880, Note_on_c, 0, 62, 0
1, 10880, Note_on_c, 0, 64, 53
1, 10960, Note_on_c, 0, 64, 0
1, 10960, Note_on_c, 0, 62, 49
1, 11020, Note_on_c, 0, 76, 0
1, 11040, Tempo, 912131
1, 11040, Note_on_c, 0, 84, 0
1, 11040, Note_on_c, 0, 72, 0
1, 11040, Note_on_c, 0, 62, 0
1, 11040, Note_on_c, 0, 82, 27
1, 11040, Note_on_c, 0, 76, 27
1, 11040, Note_on_c, 0, 84, 34
1, 11040, Note_on_c, 0, 72, 27
1, 11040, Note_on_c, 0, 60, 49
1, 11054, Control_c, 0, 64, 0
1, 11060, Note_on_c, 0, 82, 0
1, 11125, Control_c, 0, 64, 127
1, 11280, Note_on_c, 0, 72, 0
1, 11280, Note_on_c, 0, 84, 0
1, 11280, Note_on_c, 0, 82, 0
1, 11280, Note_on_c, 0, 76, 0
1, 11280, Note_on_c, 0, 82, 27
1, 11280, Note_on_c, 0, 84, 34
1, 11280, Note_on_c, 0, 72, 27
1, 11280, Note_on_c, 0, 76, 27
1, 11460, Note_on_c, 0, 76, 0
1, 11460, Note_on_c, 0, 84, 0
1, 11460, Note_on_c, 0, 72, 0
1, 11460, Note_on_c, 0, 82, 0
1, 11460, Note_on_c, 0, 76, 29
1, 11460, Note_on_c, 0, 72, 29
1, 11520, Tempo, 900225
1, 11520, Note_on_c, 0, 84, 36
1, 11520, Note_on_c, 0, 82, 29
1, 11740, Note_on_c, 0, 76, 0
1, 11760, Note_on_c, 0, 84, 0
1, 11760, Note_on_c, 0, 72, 0
1, 11760, Note_on_c, 0, 76, 27
1, 11760, Note_on_c, 0, 84, 34
1, 11760, Note_on_c, 0, 82, 27
1, 11760, Note_on_c, 0, 72, 27
1, 11780, Note_on_c, 0, 82, 0
1, 12000, Tempo, 947718
1, 12000, Note_on_c, 0, 76, 0
1, 12000, Note_on_c, 0, 84, 0
1, 12000, Note_on_c, 0, 82, 0
1, 12000, Note_on_c, 0, 72, 0
1, 12000, Note_on_c, 0, 82, 27
1, 12000, Note_on_c, 0, 76, 27
1, 12000, Note_on_c, 0, 84, 34
1, 12000, Note_on_c, 0, 72, 27
1, 12120, Tempo, 1332741
1, 12150, Note_on_c, 0, 60, 0
1, 12150, Note_on_c, 0, 41, 35
1, 12180, Note_on_c, 0, 84, 0
1, 12180, Note_on_c, 0, 72, 0
1, 12180, Note_on_c, 0, 82, 0
1, 12180, Note_on_c, 0, 76, 0
1, 12180, Note_on_c, 0, 72, 29
1, 12180, Note_on_c, 0, 48, 37
1, 12190, Control_c, 0, 64, 0
1, 12200, Note_on_c, 0, 77, 29
1, 12210, Note_on_c, 0, 57, 39
1, 12220, Note_on_c, 0, 81, 29
1, 12222, Control_c, 0, 64, 127
1, 12240, Tempo, 888231
1, 12240, Note_on_c, 0, 84, 36
1, 12240, Note_on_c, 0, 65, 50
1, 12480, Tempo, 912131
1, 12480, Note_on_c, 0, 84, 0
1, 12480, Note_on_c, 0, 72, 0
1, 12480, Note_on_c, 0, 77, 0
1, 12480, Note_on_c, 0, 81, 0
1, 12480, Note_on_c, 0, 81, 27
1, 12480, Note_on_c, 0, 84, 34
1, 12480, Note_on_c, 0, 77, 27
1, 12480, Note_on_c, 0, 72, 27
1, 12720, Note_on_c, 0, 72, 0
1, 12720, Note_on_c, 0, 77, 0
1, 12720, Note_on_c, 0, 81, 0
1, 12720, Note_on_c, 0, 84, 0
1, 12720, Note_on_c, 0, 84, 34
1, 12720, Note_on_c, 0, 72, 27
1, 12720, Note_on_c, 0, 81, 27
1, 12720, Note_on_c, 0, 77, 27
1, 12900, Note_on_c, 0, 77, 0
1, 12900, Note_on_c, 0, 81, 0
1, 12900, Note_on_c, 0, 84, 0
1, 12900, Note_on_c, 0, 72, 0
1, 12900, Note_on_c, 0, 72, 29
1, 12914, Control_c, 0, 64, 0
1, 12920, Note_on_c, 0, 77, 29
1, 12940, Note_on_c, 0, 81, 29
1, 12941, Control_c, 0, 64, 127
1, 12960, Tempo, 888231
1, 12960, Note_on_c, 0, 65, 0
1, 12960, Note_on_c, 0, 57, 0
1, 12960, Note_on_c, 0, 41, 0
1, 12960, Note_on_c, 0, 48, 0
1, 12960, Note_on_c, 0, 84, 36
1, 13080, Tempo, 915332
1, 13080, Note_on_c, 0, 64, 44
1, 13200, Tempo, 894454
1, 13200, Note_on_c, 0, 64, 0
1, 13200, Note_on_c, 0, 81, 0
1, 13200, Note_on_c, 0, 77, 0
1, 13200, Note_on_c, 0, 72, 0
1, 13200, Note_on_c, 0, 84, 0
1, 13200, Note_on_c, 0, 77, 27
1, 13200, Note_on_c, 0, 72, 27
1, 13200, Note_on_c, 0, 84, 34
1, 13200, Note_on_c, 0, 81, 27
1, 13200, Note_on_c, 0, 62, 49
1, 13320, Tempo, 915332
1, 13320, Note_on_c, 0, 62, 0
1, 13320, Note_on_c, 0, 60, 44
1, 13440, Note_on_c, 0, 60, 0
1, 13440, Note_on_c, 0, 81, 0
1, 13440, Note_on_c, 0, 77, 0
1, 13440, Note_on_c, 0, 72, 0
1, 13440, Note_on_c, 0, 84, 0
1, 13440, Note_on_c, 0, 84, 34
1, 13440, Note_on_c, 0, 72, 27
1, 13440, Note_on_c, 0, 81, 27
1, 13440, Note_on_c, 0, 77, 27
1, 13440, Note_on_c, 0, 62, 49
1, 13560, Tempo, 887574
1, 13560, Note_on_c, 0, 62, 0
1, 13560, Note_on_c, 0, 64, 44
1, 13620, Note_on_c, 0, 81, 0
1, 13620, Note_on_c, 0, 77, 0
1, 13620, Note_on_c, 0, 84, 0
1, 13620, Note_on_c, 0, 72, 0
1, 13620, Note_on_c, 0, 72, 29
1, 13640, Note_on_c, 0, 77, 29
1, 13660, Note_on_c, 0, 81, 29
1, 13680, Tempo, 874508
1, 13680, Note_on_c, 0, 64, 0
1, 13680, Note_on_c, 0, 84, 36
1, 13680, Note_on_c, 0, 53, 41
1, 13680, Note_on_c, 0, 62, 51
1, 13690, Control_c, 0, 64, 0
1, 13722, Control_c, 0, 64, 127
1, 13760, Note_on_c, 0, 62, 0
1, 13760, Note_on_c, 0, 64, 41
1, 13840, Note_on_c, 0, 64, 0
1, 13840, Note_on_c, 0, 62, 44
1, 13920, Tempo, 912131
1, 13920, Note_on_c, 0, 62, 0
1, 13920, Note_on_c, 0, 77, 0
1, 13920, Note_on_c, 0, 72, 0
1, 13920, Note_on_c, 0, 81, 0
1, 13920, Note_on_c, 0, 84, 0
1, 13920, Note_on_c, 0, 77, 27
1, 13920, Note_on_c, 0, 84, 34
1, 13920, Note_on_c, 0, 81, 27
1, 13920, Note_on_c, 0, 72, 27
1, 13920, Note_on_c, 0, 60, 44
1, 13943, Control_c, 0, 64, 0
1, 14026, Control_c, 0, 64, 127
1, 14160, Tempo, 924357
1, 14160, Note_on_c, 0, 72, 0
1, 14160, Note_on_c, 0, 81, 0
1, 14160, Note_on_c, 0, 84, 0
1, 14160, Note_on_c, 0, 77, 0
1, 14160, Note_on_c, 0, 81, 27
1, 14160, Note_on_c, 0, 77, 27
1, 14160, Note_on_c, 0, 84, 34
1, 14160, Note_on_c, 0, 72, 27
1, 14340, Note_on_c, 0, 72, 0
1, 14340, Note_on_c, 0, 77, 0
1, 14340, Note_on_c, 0, 81, 0
1, 14340, Note_on_c, 0, 84, 0
1, 14340, Note_on_c, 0, 72, 29
1, 14360, Note_on_c, 0, 77, 29
1, 14380, Note_on_c, 0, 81, 29
1, 14400, Tempo, 900225
1, 14400, Note_on_c, 0, 53, 0
1, 14400, Note_on_c, 0, 84, 36
1, 14640, Note_on_c, 0, 84, 0
1, 14640, Note_on_c, 0, 81, 0
1, 14640, Note_on_c, 0, 77, 0
1, 14640, Note_on_c, 0, 72, 0
1, 14640, Note_on_c, 0, 81, 27
1, 14640, Note_on_c, 0, 84, 34
1, 14640, Note_on_c, 0, 77, 27
1, 14640, Note_on_c, 0, 72, 27
1, 14880, Tempo, 940586
1, 14880, Note_on_c, 0, 72, 0
1, 14880, Note_on_c, 0, 84, 0
1, 14880, Note_on_c, 0, 77, 0
1, 14880, Note_on_c, 0, 81, 0
1, 14880, Note_on_c, 0, 84, 34
1, 14880, Note_on_c, 0, 72, 27
1, 14880, Note_on_c, 0, 77, 27
1, 14880, Note_on_c, 0, 81, 27
1, 15000, Tempo, 1290600
1, 15030, Note_on_c, 0, 60, 0
1, 15060, Note_on_c, 0, 77, 0
1, 15060, Note_on_c, 0, 84, 0
1, 15060, Note_on_c, 0, 72, 0
1, 15060, Note_on_c, 0, 81, 0
1, 15060, Note_on_c, 0, 72, 29
1, 15060, Note_on_c, 0, 51, 37
1, 15071, Control_c, 0, 64, 0
1, 15080, Note_on_c, 0, 75, 29
1, 15090, Note_on_c, 0, 60, 38
1, 15100, Note_on_c, 0, 80, 29
1, 15105, Control_c, 0, 64, 127
1, 15120, Tempo, 888231
1, 15120, Note_on_c, 0, 84, 36
1, 15120, Note_on_c, 0, 68, 49
1, 15360, Tempo, 912131
1, 15360, Note_on_c, 0, 84, 0
1, 15360, Note_on_c, 0, 75, 0
1, 15360, Note_on_c, 0, 72, 0
1, 15360, Note_on_c, 0, 80, 0
1, 15360, Note_on_c, 0, 75, 27
1, 15360, Note_on_c, 0, 84, 33
1, 15360, Note_on_c, 0, 80, 27
1, 15360, Note_on_c, 0, 72, 27
1, 15600, Note_on_c, 0, 72, 0
1, 15600, Note_on_c, 0, 84, 0
1, 15600, Note_on_c, 0, 75, 0
1, 15600, Note_on_c, 0, 80, 0
1, 15600, Note_on_c, 0, 80, 27
1, 15600, Note_on_c, 0, 75, 27
1, 15600, Note_on_c, 0, 84, 33
1, 15600, Note_on_c, 0, 72, 27
1, 15780, Note_on_c, 0, 72, 0
1, 15780, Note_on_c, 0, 75, 0
1, 15780, Note_on_c, 0, 80, 0
1, 15780, Note_on_c, 0, 84, 0
1, 15780, Note_on_c, 0, 72, 29
1, 15793, Control_c, 0, 64, 0
1, 15800, Note_on_c, 0, 75, 29
1, 15820, Note_on_c, 0, 80, 29
1, 15821, Control_c, 0, 64, 127
1, 15840, Tempo, 888231
1, 15840, Note_on_c, 0, 60, 0
1, 15840, Note_on_c, 0, 51, 0
1, 15840, Note_on_c, 0, 68, 0
1, 15840, Note_on_c, 0, 84, 36
1, 15960, Tempo, 907990
1, 15960, Note_on_c, 0, 67, 44
1, 16080, Tempo, 880153
1, 16080, Note_on_c, 0, 67, 0
1, 16080, Note_on_c, 0, 72, 0
1, 16080, Note_on_c, 0, 80, 0
1, 16080, Note_on_c, 0, 75, 0
1, 16080, Note_on_c, 0, 84, 0
1, 16080, Note_on_c, 0, 80, 27
1, 16080, Note_on_c, 0, 84, 33
1, 16080, Note_on_c, 0, 75, 27
1, 16080, Note_on_c, 0, 72, 27
1, 16080, Note_on_c, 0, 65, 49
1, 16200, Tempo, 922367
1, 16200, Note_on_c, 0, 65, 0
1, 16200, Note_on_c, 0, 63, 44
1, 16320, Tempo, 866927
1, 16320, Note_on_c, 0, 63, 0
1, 16320, Note_on_c, 0, 72, 0
1, 16320, Note_on_c, 0, 80, 0
1, 16320, Note_on_c, 0, 84, 0
1, 16320, Note_on_c, 0, 75, 0
1, 16320, Note_on_c, 0, 84, 33
1, 16320, Note_on_c, 0, 72, 27
1, 16320, Note_on_c, 0, 80, 27
1, 16320, Note_on_c, 0, 75, 27
1, 16320, Note_on_c, 0, 65, 49
1, 16440, Tempo, 887574
1, 16440, Note_on_c, 0, 65, 0
1, 16440, Note_on_c, 0, 67, 44
1, 16500, Note_on_c, 0, 80, 0
1, 16500, Note_on_c, 0, 75, 0
1, 16500, Note_on_c, 0, 84, 0
1, 16500, Note_on_c, 0, 72, 0
1, 16500, Note_on_c, 0, 72, 29
1, 16520, Note_on_c, 0, 75, 29
1, 16540, Note_on_c, 0, 80, 29
1, 16560, Tempo, 874508
1, 16560, Note_on_c, 0, 67, 0
1, 16560, Note_on_c, 0, 84, 36
1, 16560, Note_on_c, 0, 65, 50
1, 16640, Note_on_c, 0, 65, 0
1, 16640, Note_on_c, 0, 67, 44
1, 16720, Note_on_c, 0, 67, 0
1, 16720, Note_on_c, 0, 65, 44
1, 16800, Tempo, 912131
1, 16800, Note_on_c, 0, 65, 0
1, 16800, Note_on_c, 0, 72, 0
1, 16800, Note_on_c, 0, 80, 0
1, 16800, Note_on_c, 0, 75, 0
1, 16800, Note_on_c, 0, 84, 0
1, 16800, Note_on_c, 0, 75, 27
1, 16800, Note_on_c, 0, 72, 27
1, 16800, Note_on_c, 0, 84, 33
1, 16800, Note_on_c, 0, 80, 27
1, 16800, Note_on_c, 0, 63, 49
1, 16816, Control_c, 0, 64, 0
1, 16906, Control_c, 0, 64, 127
1, 17040, Tempo, 924357
1, 17040, Note_on_c, 0, 80, 0
1, 17040, Note_on_c, 0, 84, 0
1, 17040, Note_on_c, 0, 75, 0
1, 17040, Note_on_c, 0, 72, 0
1, 17040, Note_on_c, 0, 84, 33
1, 17040, Note_on_c, 0, 72, 27
1, 17040, Note_on_c, 0, 80, 27
1, 17040, Note_on_c, 0, 75, 27
1, 17220, Note_on_c, 0, 75, 0
1, 17220, Note_on_c, 0, 72, 0
1, 17220, Note_on_c, 0, 80, 0
1, 17220, Note_on_c, 0, 84, 0
1, 17220, Note_on_c, 0, 72, 29
1, 17240, Note_on_c, 0, 75, 29
1, 17260, Note_on_c, 0, 80, 29
1, 17280, Tempo, 900225
1, 17280, Note_on_c, 0, 84, 36
1, 17520, Note_on_c, 0, 84, 0
1, 17520, Note_on_c, 0, 75, 0
1, 17520, Note_on_c, 0, 80, 0
1, 17520, Note_on_c, 0, 72, 0
1, 17520, Note_on_c, 0, 75, 27
1, 17520, Note_on_c, 0, 84, 33
1, 17520, Note_on_c, 0, 80, 27
1, 17520, Note_on_c, 0, 72, 27
1, 17760, Tempo, 912131
1, 17760, Note_on_c, 0, 72, 0
1, 17760, Note_on_c, 0, 84, 0
1, 17760, Note_on_c, 0, 80, 0
1, 17760, Note_on_c, 0, 75, 0
1, 17760, Note_on_c, 0, 80, 27
1, 17760, Note_on_c, 0, 75, 27
1, 17760, Note_on_c, 0, 84, 33
1, 17760, Note_on_c, 0, 72, 27
1, 17880, Tempo, 1019368
1, 18000, Tempo, 930665
1, 18000, Note_on_c, 0, 72, 0
1, 18000, Note_on_c, 0, 75, 0
1, 18000, Note_on_c, 0, 63, 0
1, 18000, Note_on_c, 0, 80, 0
1, 18000, Note_on_c, 0, 84, 0
1, 18000, Note_on_c, 0, 76, 29
1, 18000, Note_on_c, 0, 72, 29
1, 18000, Note_on_c, 0, 84, 36
1, 18000, Note_on_c, 0, 82, 29
1, 18000, Note_on_c, 0, 48, 40
1, 18000, Note_on_c, 0, 55, 47
1, 18011, Control_c, 0, 64, 0
1, 18120, Note_on_c, 0, 55, 0
1, 18120, Control_c, 0, 64, 127
1, 18120, Note_on_c, 0, 57, 51
1, 18240, Note_on_c, 0, 57, 0
1, 18240, Note_on_c, 0, 48, 0
1, 18240, Note_on_c, 0, 84, 0
1, 18240, Note_on_c, 0, 76, 0
1, 18240, Note_on_c, 0, 72, 0
1, 18240, Note_on_c, 0, 82, 0
1, 18240, Note_on_c, 0, 82, 27
1, 18240, Note_on_c, 0, 84, 34
1, 18240, Note_on_c, 0, 76, 27
1, 18240, Note_on_c, 0, 72, 27
1, 18240, Note_on_c, 0, 58, 53
1, 18256, Control_c, 0, 64, 0
1, 18325, Control_c, 0, 64, 127
1, 18360, Tempo, 991408
1, 18480, Tempo, 915332
1, 18480, Note_on_c, 0, 58, 0
1, 18480, Note_on_c, 0, 76, 0
1, 18480, Note_on_c, 0, 82, 0
1, 18480, Note_on_c, 0, 84, 0
1, 18480, Note_on_c, 0, 72, 0
1, 18480, Note_on_c, 0, 84, 34
1, 18480, Note_on_c, 0, 72, 27
1, 18480, Note_on_c, 0, 76, 27
1, 18480, Note_on_c, 0, 82, 27
1, 18480, Note_on_c, 0, 60, 55
1, 18494, Control_c, 0, 64, 0
1, 18600, Tempo, 970717
1, 18600, Note_on_c, 0, 60, 0
1, 18600, Note_on_c, 0, 62, 57
1, 18607, Control_c, 0, 64, 127
1, 18720, Tempo, 912131
1, 18720, Note_on_c, 0, 62, 0
1, 18720, Note_on_c, 0, 82, 0
1, 18720, Note_on_c, 0, 84, 0
1, 18720, Note_on_c, 0, 72, 0
1, 18720, Note_on_c, 0, 76, 0
1, 18720, Note_on_c, 0, 76, 29
1, 18720, Note_on_c, 0, 82, 29
1, 18720, Note_on_c, 0, 72, 29
1, 18720, Note_on_c, 0, 84, 36
1, 18720, Note_on_c, 0, 67, 61
1, 18741, Control_c, 0, 64, 0
1, 18897, Control_c, 0, 64, 127
1, 18960, Note_on_c, 0, 84, 0
1, 18960, Note_on_c, 0, 72, 0
1, 18960, Note_on_c, 0, 76, 0
1, 18960, Note_on_c, 0, 82, 0
1, 18960, Note_on_c, 0, 82, 28
1, 18960, Note_on_c, 0, 84, 35
1, 18960, Note_on_c, 0, 72, 28
1, 18960, Note_on_c, 0, 76, 28
1, 19080, Tempo, 925783
1, 19200, Note_on_c, 0, 76, 0
1, 19200, Note_on_c, 0, 84, 0
1, 19200, Note_on_c, 0, 67, 0
1, 19200, Note_on_c, 0, 82, 0
1, 19200, Note_on_c, 0, 72, 0
1, 19200, Note_on_c, 0, 82, 30
1, 19200, Note_on_c, 0, 84, 37
1, 19200, Note_on_c, 0, 76, 30
1, 19200, Note_on_c, 0, 72, 30
1, 19200, Note_on_c, 0, 64, 61
1, 19440, Tempo, 894188
1, 19440, Note_on_c, 0, 64, 0
1, 19440, Note_on_c, 0, 76, 0
1, 19440, Note_on_c, 0, 82, 0
1, 19440, Note_on_c, 0, 84, 0
1, 19440, Note_on_c, 0, 72, 0
1, 19440, Note_on_c, 0, 72, 34
1, 19440, Note_on_c, 0, 84, 40
1, 19440, Note_on_c, 0, 77, 34
1, 19440, Note_on_c, 0, 81, 34
1, 19440, Note_on_c, 0, 62, 57
1, 19440, Note_on_c, 0, 53, 41
1, 19443, Control_c, 0, 64, 0
1, 19486, Control_c, 0, 64, 127
1, 19520, Note_on_c, 0, 62, 0
1, 19520, Note_on_c, 0, 64, 55
1, 19600, Note_on_c, 0, 64, 0
1, 19600, Note_on_c, 0, 62, 51
1, 19680, Tempo, 912131
1, 19680, Note_on_c, 0, 62, 0
1, 19680, Note_on_c, 0, 81, 0
1, 19680, Note_on_c, 0, 77, 0
1, 19680, Note_on_c, 0, 72, 0
1, 19680, Note_on_c, 0, 84, 0
1, 19680, Note_on_c, 0, 84, 38
1, 19680, Note_on_c, 0, 72, 30
1, 19680, Note_on_c, 0, 81, 30
1, 19680, Note_on_c, 0, 77, 30
1, 19680, Note_on_c, 0, 60, 51
1, 19694, Control_c, 0, 64, 0
1, 19768, Control_c, 0, 64, 127
1, 19920, Tempo, 932836
1, 19920, Note_on_c, 0, 77, 0
1, 19920, Note_on_c, 0, 81, 0
1, 19920, Note_on_c, 0, 72, 0
1, 19920, Note_on_c, 0, 84, 0
1, 19920, Note_on_c, 0, 77, 30
1, 19920, Note_on_c, 0, 72, 30
1, 19920, Note_on_c, 0, 84, 38
1, 19920, Note_on_c, 0, 81, 30
1, 20160, Tempo, 947718
1, 20160, Note_on_c, 0, 81, 0
1, 20160, Note_on_c, 0, 53, 0
1, 20160, Note_on_c, 0, 77, 0
1, 20160, Note_on_c, 0, 60, 0
1, 20160, Note_on_c, 0, 84, 0
1, 20160, Note_on_c, 0, 72, 0
1, 20160, Note_on_c, 0, 78, 34
1, 20160, Note_on_c, 0, 72, 34
1, 20160, Note_on_c, 0, 74, 34
1, 20160, Note_on_c, 0, 86, 40
1, 20160, Note_on_c, 0, 81, 34
1, 20160, Control_c, 0, 64, 0
1, 20160, Note_on_c, 0, 50, 66
1, 20238, Control_c, 0, 64, 127
1, 20400, Note_on_c, 0, 81, 0
1, 20400, Note_on_c, 0, 86, 0
1, 20400, Note_on_c, 0, 74, 0
1, 20400, Note_on_c, 0, 78, 0
1, 20400, Note_on_c, 0, 72, 0
1, 20400, Note_on_c, 0, 86, 38
1, 20400, Note_on_c, 0, 81, 30
1, 20400, Note_on_c, 0, 74, 30
1, 20400, Note_on_c, 0, 78, 30
1, 20400, Note_on_c, 0, 72, 30
1, 20400, Note_on_c, 0, 57, 61
1, 20520, Tempo, 991408
1, 20640, Tempo, 940586
1, 20640, Note_on_c, 0, 57, 0
1, 20640, Note_on_c, 0, 78, 0
1, 20640, Note_on_c, 0, 86, 0
1, 20640, Note_on_c, 0, 81, 0
1, 20640, Note_on_c, 0, 74, 0
1, 20640, Note_on_c, 0, 72, 0
1, 20640, Note_on_c, 0, 72, 30
1, 20640, Note_on_c, 0, 78, 30
1, 20640, Note_on_c, 0, 74, 30
1, 20640, Note_on_c, 0, 86, 38
1, 20640, Note_on_c, 0, 81, 30
1, 20640, Note_on_c, 0, 62, 61
1, 20760, Tempo, 970717
1, 20880, Tempo, 912131
1, 20880, Note_on_c, 0, 62, 0
1, 20880, Note_on_c, 0, 86, 0
1, 20880, Note_on_c, 0, 72, 0
1, 20880, Note_on_c, 0, 78, 0
1, 20880, Note_on_c, 0, 50, 0
1, 20880, Note_on_c, 0, 81, 0
1, 20880, Note_on_c, 0, 74, 0
1, 20880, Note_on_c, 0, 79, 34
1, 20880, Note_on_c, 0, 70, 34
1, 20880, Note_on_c, 0, 74, 34
1, 20880, Note_on_c, 0, 82, 40
1, 20880, Note_on_c, 0, 55, 50
1, 20880, Note_on_c, 0, 62, 56
1, 20889, Control_c, 0, 64, 0
1, 20930, Control_c, 0, 64, 127
1, 21000, Note_on_c, 0, 62, 0
1, 21000, Note_on_c, 0, 55, 0
1, 21000, Note_on_c, 0, 64, 61
1, 21120, Note_on_c, 0, 64, 0
1, 21120, Note_on_c, 0, 82, 0
1, 21120, Note_on_c, 0, 79, 0
1, 21120, Note_on_c, 0, 70, 0
1, 21120, Note_on_c, 0, 74, 0
1, 21120, Note_on_c, 0, 79, 30
1, 21120, Note_on_c, 0, 74, 30
1, 21120, Note_on_c, 0, 82, 38
1, 21120, Note_on_c, 0, 70, 30
1, 21120, Note_on_c, 0, 65, 64
1, 21131, Control_c, 0, 64, 0
1, 21184, Control_c, 0, 64, 127
1, 21240, Tempo, 925783
1, 21360, Note_on_c, 0, 65, 0
1, 21360, Note_on_c, 0, 82, 0
1, 21360, Note_on_c, 0, 79, 0
1, 21360, Note_on_c, 0, 74, 0
1, 21360, Note_on_c, 0, 70, 0
1, 21360, Note_on_c, 0, 79, 30
1, 21360, Note_on_c, 0, 82, 38
1, 21360, Note_on_c, 0, 70, 30
1, 21360, Note_on_c, 0, 74, 30
1, 21360, Note_on_c, 0, 62, 62
1, 21480, Note_on_c, 0, 62, 0
1, 21480, Note_on_c, 0, 55, 56
1, 21540, Tempo, 1036448
1, 21560, Note_on_c, 0, 55, 0
1, 21560, Note_on_c, 0, 48, 49
1, 21570, Control_c, 0, 64, 0
1, 21580, Note_on_c, 0, 55, 49
1, 21592, Control_c, 0, 64, 127
1, 21600, Tempo, 894188
1, 21600, Note_on_c, 0, 74, 0
1, 21600, Note_on_c, 0, 70, 0
1, 21600, Note_on_c, 0, 79, 0
1, 21600, Note_on_c, 0, 82, 0
1, 21600, Note_on_c, 0, 72, 34
1, 21600, Note_on_c, 0, 70, 34
1, 21600, Note_on_c, 0, 76, 34
1, 21600, Note_on_c, 0, 82, 40
1, 21600, Note_on_c, 0, 62, 59
1, 21660, Note_on_c, 0, 55, 0
1, 21680, Note_on_c, 0, 48, 0
1, 21680, Note_on_c, 0, 62, 0
1, 21680, Note_on_c, 0, 64, 51
1, 21760, Note_on_c, 0, 64, 0
1, 21760, Note_on_c, 0, 62, 53
1, 21840, Tempo, 912131
1, 21840, Note_on_c, 0, 62, 0
1, 21840, Note_on_c, 0, 76, 0
1, 21840, Note_on_c, 0, 70, 0
1, 21840, Note_on_c, 0, 72, 0
1, 21840, Note_on_c, 0, 82, 0
1, 21840, Note_on_c, 0, 82, 38
1, 21840, Note_on_c, 0, 70, 30
1, 21840, Note_on_c, 0, 72, 30
1, 21840, Note_on_c, 0, 76, 30
1, 21840, Note_on_c, 0, 60, 50
1, 21854, Control_c, 0, 64, 0
1, 21914, Control_c, 0, 64, 127
1, 22080, Tempo, 955110
1, 22080, Note_on_c, 0, 60, 0
1, 22080, Note_on_c, 0, 72, 0
1, 22080, Note_on_c, 0, 82, 0
1, 22080, Note_on_c, 0, 70, 0
1, 22080, Note_on_c, 0, 76, 0
1, 22080, Note_on_c, 0, 72, 30
1, 22080, Note_on_c, 0, 70, 30
1, 22080, Note_on_c, 0, 76, 30
1, 22080, Note_on_c, 0, 82, 38
1, 22080, Note_on_c, 0, 48, 44
1, 22260, Tempo, 1083228
1, 22280, Note_on_c, 0, 41, 41
1, 22290, Control_c, 0, 64, 0
1, 22300, Note_on_c, 0, 48, 41
1, 22320, Tempo, 894188
1, 22320, Note_on_c, 0, 48, 0
1, 22320, Note_on_c, 0, 82, 0
1, 22320, Note_on_c, 0, 72, 0
1, 22320, Note_on_c, 0, 76, 0
1, 22320, Note_on_c, 0, 70, 0
1, 22320, Note_on_c, 0, 77, 34
1, 22320, Note_on_c, 0, 69, 28
1, 22320, Note_on_c, 0, 72, 28
1, 22320, Note_on_c, 0, 81, 40
1, 22320, Control_c, 0, 64, 127
1, 22320, Note_on_c, 0, 57, 51
1, 22420, Note_on_c, 0, 48, 0
1, 22440, Note_on_c, 0, 41, 0
1, 22440, Note_on_c, 0, 57, 0
1, 22440, Note_on_c, 0, 55, 49
1, 22560, Tempo, 912131
1, 22560, Note_on_c, 0, 55, 0
1, 22560, Note_on_c, 0, 81, 0
1, 22560, Note_on_c, 0, 69, 0
1, 22560, Note_on_c, 0, 77, 0
1, 22560, Note_on_c, 0, 72, 0
1, 22560, Note_on_c, 0, 77, 27
1, 22560, Note_on_c, 0, 72, 23
1, 22560, Note_on_c, 0, 81, 34
1, 22560, Note_on_c, 0, 69, 23
1, 22560, Note_on_c, 0, 53, 45
1, 22572, Control_c, 0, 64, 0
1, 22730, Control_c, 0, 64, 127
1, 22800, Note_on_c, 0, 69, 0
1, 22800, Note_on_c, 0, 81, 0
1, 22800, Note_on_c, 0, 77, 0
1, 22800, Note_on_c, 0, 72, 0
1, 22800, Note_on_c, 0, 77, 27
1, 22800, Note_on_c, 0, 81, 34
1, 22800, Note_on_c, 0, 69, 23
1, 22800, Note_on_c, 0, 72, 23
1, 23040, Tempo, 893788
1, 23040, Note_on_c, 0, 72, 0
1, 23040, Note_on_c, 0, 81, 0
1, 23040, Note_on_c, 0, 69, 0
1, 23040, Note_on_c, 0, 77, 0
1, 23040, Note_on_c, 0, 72, 26
1, 23040, Note_on_c, 0, 69, 26
1, 23040, Note_on_c, 0, 77, 31
1, 23040, Note_on_c, 0, 81, 31
1, 23280, Tempo, 873490
1, 23280, Note_on_c, 0, 81, 0
1, 23280, Note_on_c, 0, 69, 0
1, 23280, Note_on_c, 0, 77, 0
1, 23280, Note_on_c, 0, 72, 0
1, 23280, Note_on_c, 0, 81, 29
1, 23280, Note_on_c, 0, 69, 24
1, 23280, Note_on_c, 0, 77, 29
1, 23280, Note_on_c, 0, 72, 24
1, 23520, Tempo, 947718
1, 23520, Note_on_c, 0, 72, 0
1, 23520, Note_on_c, 0, 69, 0
1, 23520, Note_on_c, 0, 77, 0
1, 23520, Note_on_c, 0, 81, 0
1, 23520, Note_on_c, 0, 81, 29
1, 23520, Note_on_c, 0, 69, 24
1, 23520, Note_on_c, 0, 77, 29
1, 23520, Note_on_c, 0, 72, 24
1, 23700, Tempo, 1250521
1, 23720, Note_on_c, 0, 41, 37
1, 23731, Control_c, 0, 64, 0
1, 23740, Note_on_c, 0, 49, 38
1, 23760, Tempo, 912131
1, 23760, Note_on_c, 0, 72, 0
1, 23760, Note_on_c, 0, 77, 0
1, 23760, Note_on_c, 0, 53, 0
1, 23760, Note_on_c, 0, 69, 0
1, 23760, Note_on_c, 0, 81, 0
1, 23760, Note_on_c, 0, 77, 29
1, 23760, Note_on_c, 0, 81, 36
1, 23760, Note_on_c, 0, 69, 25
1, 23760, Note_on_c, 0, 73, 25
1, 23760, Control_c, 0, 64, 127
1, 23760, Note_on_c, 0, 57, 46
1, 23860, Note_on_c, 0, 49, 0
1, 23880, Tempo, 940586
1, 23880, Note_on_c, 0, 41, 0
1, 23880, Note_on_c, 0, 57, 0
1, 23880, Note_on_c, 0, 55, 44
1, 24000, Tempo, 912131
1, 24000, Note_on_c, 0, 55, 0
1, 24000, Note_on_c, 0, 73, 0
1, 24000, Note_on_c, 0, 81, 0
1, 24000, Note_on_c, 0, 77, 0
1, 24000, Note_on_c, 0, 69, 0
1, 24000, Note_on_c, 0, 81, 29
1, 24000, Note_on_c, 0, 69, 19
1, 24000, Note_on_c, 0, 77, 24
1, 24000, Note_on_c, 0, 73, 19
1, 24000, Note_on_c, 0, 53, 39
1, 24008, Control_c, 0, 64, 0
1, 24091, Control_c, 0, 64, 127
1, 24240, Note_on_c, 0, 73, 0
1, 24240, Note_on_c, 0, 77, 0
1, 24240, Note_on_c, 0, 81, 0
1, 24240, Note_on_c, 0, 69, 0
1, 24240, Note_on_c, 0, 73, 19
1, 24240, Note_on_c, 0, 69, 19
1, 24240, Note_on_c, 0, 81, 29
1, 24240, Note_on_c, 0, 77, 24
1, 24480, Tempo, 905250
1, 24480, Note_on_c, 0, 77, 0
1, 24480, Note_on_c, 0, 69, 0
1, 24480, Note_on_c, 0, 81, 0
1, 24480, Note_on_c, 0, 73, 0
1, 24480, Note_on_c, 0, 77, 28
1, 24480, Note_on_c, 0, 69, 23
1, 24480, Note_on_c, 0, 73, 23
1, 24480, Note_on_c, 0, 81, 28
1, 24720, Note_on_c, 0, 81, 0
1, 24720, Note_on_c, 0, 69, 0
1, 24720, Note_on_c, 0, 73, 0
1, 24720, Note_on_c, 0, 77, 0
1, 24720, Note_on_c, 0, 77, 26
1, 24720, Note_on_c, 0, 73, 20
1, 24720, Note_on_c, 0, 81, 26
1, 24720, Note_on_c, 0, 69, 20
1, 24960, Tempo, 925783
1, 24960, Note_on_c, 0, 69, 0
1, 24960, Note_on_c, 0, 73, 0
1, 24960, Note_on_c, 0, 81, 0
1, 24960, Note_on_c, 0, 77, 0
1, 24960, Note_on_c, 0, 77, 26
1, 24960, Note_on_c, 0, 81, 26
1, 24960, Note_on_c, 0, 69, 20
1, 24960, Note_on_c, 0, 73, 20
1, 25140, Tempo, 1083228
1, 25160, Note_on_c, 0, 41, 39
1, 25170, Control_c, 0, 64, 0
1, 25180, Note_on_c, 0, 48, 40
1, 25200, Tempo, 894188
1, 25200, Note_on_c, 0, 73, 0
1, 25200, Note_on_c, 0, 69, 0
1, 25200, Note_on_c, 0, 53, 0
1, 25200, Note_on_c, 0, 81, 0
1, 25200, Note_on_c, 0, 77, 0
1, 25200, Note_on_c, 0, 72, 27
1, 25200, Note_on_c, 0, 69, 27
1, 25200, Note_on_c, 0, 77, 33
1, 25200, Note_on_c, 0, 81, 38
1, 25200, Control_c, 0, 64, 127
1, 25200, Note_on_c, 0, 57, 49
1, 25300, Note_on_c, 0, 48, 0
1, 25320, Note_on_c, 0, 41, 0
1, 25320, Note_on_c, 0, 57, 0
1, 25320, Note_on_c, 0, 55, 47
1, 25440, Tempo, 912131
1, 25440, Note_on_c, 0, 55, 0
1, 25440, Note_on_c, 0, 81, 0
1, 25440, Note_on_c, 0, 69, 0
1, 25440, Note_on_c, 0, 72, 0
1, 25440, Note_on_c, 0, 77, 0
1, 25440, Note_on_c, 0, 81, 33
1, 25440, Note_on_c, 0, 69, 22
1, 25440, Note_on_c, 0, 72, 22
1, 25440, Note_on_c, 0, 77, 26
1, 25440, Note_on_c, 0, 53, 42
1, 25452, Control_c, 0, 64, 0
1, 25532, Control_c, 0, 64, 127
1, 25680, Note_on_c, 0, 77, 0
1, 25680, Note_on_c, 0, 72, 0
1, 25680, Note_on_c, 0, 81, 0
1, 25680, Note_on_c, 0, 69, 0
1, 25680, Note_on_c, 0, 77, 26
1, 25680, Note_on_c, 0, 72, 22
1, 25680, Note_on_c, 0, 81, 33
1, 25680, Note_on_c, 0, 69, 22
1, 25920, Tempo, 905250
1, 25920, Note_on_c, 0, 69, 0
1, 25920, Note_on_c, 0, 72, 0
1, 25920, Note_on_c, 0, 81, 0
1, 25920, Note_on_c, 0, 77, 0
1, 25920, Note_on_c, 0, 72, 26
1, 25920, Note_on_c, 0, 69, 26
1, 25920, Note_on_c, 0, 81, 31
1, 25920, Note_on_c, 0, 77, 31
1, 26160, Tempo, 886918
1, 26160, Note_on_c, 0, 77, 0
1, 26160, Note_on_c, 0, 69, 0
1, 26160, Note_on_c, 0, 81, 0
1, 26160, Note_on_c, 0, 72, 0
1, 26160, Note_on_c, 0, 77, 29
1, 26160, Note_on_c, 0, 81, 29
1, 26160, Note_on_c, 0, 72, 24
1, 26160, Note_on_c, 0, 69, 24
1, 26400, Tempo, 977199
1, 26400, Note_on_c, 0, 69, 0
1, 26400, Note_on_c, 0, 81, 0
1, 26400, Note_on_c, 0, 72, 0
1, 26400, Note_on_c, 0, 77, 0
1, 26400, Note_on_c, 0, 81, 29
1, 26400, Note_on_c, 0, 69, 24
1, 26400, Note_on_c, 0, 77, 29
1, 26400, Note_on_c, 0, 72, 24
1, 26580, Tempo, 1144165
1, 26600, Note_on_c, 0, 41, 37
1, 26610, Control_c, 0, 64, 0
1, 26620, Note_on_c, 0, 49, 38
1, 26640, Tempo, 912131
1, 26640, Note_on_c, 0, 72, 0
1, 26640, Note_on_c, 0, 77, 0
1, 26640, Note_on_c, 0, 53, 0
1, 26640, Note_on_c, 0, 69, 0
1, 26640, Note_on_c, 0, 81, 0
1, 26640, Note_on_c, 0, 69, 25
1, 26640, Note_on_c, 0, 81, 36
1, 26640, Note_on_c, 0, 73, 25
1, 26640, Note_on_c, 0, 77, 29
1, 26640, Control_c, 0, 64, 127
1, 26640, Note_on_c, 0, 57, 46
1, 26740, Note_on_c, 0, 49, 0
1, 26760, Tempo, 940586
1, 26760, Note_on_c, 0, 41, 0
1, 26760, Note_on_c, 0, 57, 0
1, 26760, Note_on_c, 0, 55, 44
1, 26880, Tempo, 912131
1, 26880, Note_on_c, 0, 55, 0
1, 26880, Note_on_c, 0, 77, 0
1, 26880, Note_on_c, 0, 81, 0
1, 26880, Note_on_c, 0, 69, 0
1, 26880, Note_on_c, 0, 73, 0
1, 26880, Note_on_c, 0, 73, 19
1, 26880, Note_on_c, 0, 69, 19
1, 26880, Note_on_c, 0, 81, 29
1, 26880, Note_on_c, 0, 77, 24
1, 26880, Note_on_c, 0, 53, 39
1, 26894, Control_c, 0, 64, 0
1, 26960, Control_c, 0, 64, 127
1, 27120, Note_on_c, 0, 77, 0
1, 27120, Note_on_c, 0, 81, 0
1, 27120, Note_on_c, 0, 73, 0
1, 27120, Note_on_c, 0, 69, 0
1, 27120, Note_on_c, 0, 73, 19
1, 27120, Note_on_c, 0, 81, 29
1, 27120, Note_on_c, 0, 77, 24
1, 27120, Note_on_c, 0, 69, 19
1, 27360, Tempo, 905250
1, 27360, Note_on_c, 0, 69, 0
1, 27360, Note_on_c, 0, 81, 0
1, 27360, Note_on_c, 0, 77, 0
1, 27360, Note_on_c, 0, 73, 0
1, 27360, Note_on_c, 0, 77, 28
1, 27360, Note_on_c, 0, 81, 28
1, 27360, Note_on_c, 0, 73, 23
1, 27360, Note_on_c, 0, 69, 23
1, 27600, Note_on_c, 0, 69, 0
1, 27600, Note_on_c, 0, 81, 0
1, 27600, Note_on_c, 0, 73, 0
1, 27600, Note_on_c, 0, 77, 0
1, 27600, Note_on_c, 0, 73, 20
1, 27600, Note_on_c, 0, 81, 26
1, 27600, Note_on_c, 0, 77, 26
1, 27600, Note_on_c, 0, 69, 20
1, 27840, Tempo, 955110
1, 27840, Note_on_c, 0, 69, 0
1, 27840, Note_on_c, 0, 81, 0
1, 27840, Note_on_c, 0, 77, 0
1, 27840, Note_on_c, 0, 73, 0
1, 27840, Note_on_c, 0, 77, 26
1, 27840, Note_on_c, 0, 73, 20
1, 27840, Note_on_c, 0, 81, 26
1, 27840, Note_on_c, 0, 69, 20
1, 28020, Tempo, 1263690
1, 28040, Note_on_c, 0, 41, 33
1, 28050, Control_c, 0, 64, 0
1, 28060, Note_on_c, 0, 48, 33
1, 28080, Tempo, 986193
1, 28080, Note_on_c, 0, 69, 0
1, 28080, Note_on_c, 0, 81, 0
1, 28080, Note_on_c, 0, 53, 0
1, 28080, Note_on_c, 0, 73, 0
1, 28080, Note_on_c, 0, 77, 0
1, 28080, Note_on_c, 0, 72, 29
1, 28080, Note_on_c, 0, 69, 29
1, 28080, Note_on_c, 0, 81, 29
1, 28080, Note_on_c, 0, 77, 29
1, 28080, Control_c, 0, 64, 127
1, 28080, Note_on_c, 0, 57, 39
1, 28180, Note_on_c, 0, 48, 0
1, 28200, Note_on_c, 0, 41, 0
1, 28200, Note_on_c, 0, 57, 0
1, 28200, Note_on_c, 0, 55, 37
1, 28320, Tempo, 1019368
1, 28320, Note_on_c, 0, 55, 0
1, 28320, Note_on_c, 0, 77, 0
1, 28320, Note_on_c, 0, 69, 0
1, 28320, Note_on_c, 0, 72, 0
1, 28320, Note_on_c, 0, 81, 0
1, 28320, Note_on_c, 0, 77, 27
1, 28320, Note_on_c, 0, 81, 27
1, 28320, Note_on_c, 0, 72, 27
1, 28320, Note_on_c, 0, 69, 27
1, 28320, Note_on_c, 0, 53, 35
1, 28334, Control_c, 0, 64, 0
1, 28426, Control_c, 0, 64, 127
1, 28560, Tempo, 1055038
1, 28560, Note_on_c, 0, 69, 0
1, 28560, Note_on_c, 0, 72, 0
1, 28560, Note_on_c, 0, 77, 0
1, 28560, Note_on_c, 0, 81, 0
1, 28560, Note_on_c, 0, 81, 27
1, 28560, Note_on_c, 0, 69, 27
1, 28560, Note_on_c, 0, 77, 27
1, 28560, Note_on_c, 0, 72, 27
1, 28800, Note_on_c, 0, 72, 0
1, 28800, Note_on_c, 0, 69, 0
1, 28800, Note_on_c, 0, 77, 0
1, 28800, Note_on_c, 0, 81, 0
1, 28800, Note_on_c, 0, 69, 26
1, 28800, Note_on_c, 0, 81, 26
1, 28800, Note_on_c, 0, 72, 26
1, 28800, Note_on_c, 0, 77, 26
1, 29040, Note_on_c, 0, 77, 0
1, 29040, Note_on_c, 0, 81, 0
1, 29040, Note_on_c, 0, 53, 0
1, 29040, Note_on_c, 0, 69, 0
1, 29040, Note_on_c, 0, 72, 0
1, 29067, Control_c, 0, 64, 0
1, 29280, Tempo, 1512097
1, 29280, Note_on_c, 0, 48, 34
1, 29387, Control_c, 0, 64, 127
1, 29520, Key_signature, -4, "major"
1, 29520, Tempo, 1095690
1, 29520, Note_on_c, 0, 48, 0
1, 29520, Note_on_c, 0, 41, 40
1, 29521, Tempo, 1057828
1, 29760, Tempo, 929800
1, 29760, Note_on_c, 0, 41, 0
1, 29760, Note_on_c, 0, 48, 36
1, 30000, Tempo, 1002506
1, 30000, Note_on_c, 0, 48, 0
1, 30000, Note_on_c, 0, 60, 36
1, 30000, Note_on_c, 0, 56, 36
1, 30240, Note_on_c, 0, 56, 0
1, 30240, Note_on_c, 0, 60, 0
1, 30240, Note_on_c, 0, 61, 41
1, 30240, Note_on_c, 0, 58, 35
1, 30247, Control_c, 0, 64, 0
1, 30400, Control_c, 0, 64, 127
1, 30480, Note_on_c, 0, 58, 0
1, 30480, Note_on_c, 0, 61, 0
1, 30480, Note_on_c, 0, 67, 33
1, 30960, Tempo, 968836
1, 30960, Note_on_c, 0, 67, 0
1, 30960, Control_c, 0, 64, 0
1, 30960, Note_on_c, 0, 41, 36
1, 31080, Control_c, 0, 64, 127
1, 31200, Tempo, 937500
1, 31200, Note_on_c, 0, 41, 0
1, 31200, Note_on_c, 0, 48, 36
1, 31440, Tempo, 1002506
1, 31440, Note_on_c, 0, 48, 0
1, 31440, Note_on_c, 0, 60, 36
1, 31440, Note_on_c, 0, 56, 36
1, 31680, Note_on_c, 0, 56, 0
1, 31680, Note_on_c, 0, 60, 0
1, 31680, Note_on_c, 0, 61, 41
1, 31680, Note_on_c, 0, 58, 35
1, 31699, Control_c, 0, 64, 0
1, 31827, Control_c, 0, 64, 127
1, 31920, Note_on_c, 0, 58, 0
1, 31920, Note_on_c, 0, 61, 0
1, 31920, Note_on_c, 0, 67, 34
1, 32400, Tempo, 968836
1, 32400, Note_on_c, 0, 67, 0
1, 32400, Note_on_c, 0, 77, 57
1, 32400, Note_on_c, 0, 41, 36
1, 32412, Control_c, 0, 64, 0
1, 32520, Control_c, 0, 64, 127
1, 32640, Tempo, 1011463
1, 32640, Note_on_c, 0, 41, 0
1, 32640, Note_on_c, 0, 48, 36
1, 32880, Tempo, 1002506
1, 32880, Note_on_c, 0, 48, 0
1, 32880, Note_on_c, 0, 60, 34
1, 32880, Note_on_c, 0, 56, 34
1, 33120, Note_on_c, 0, 56, 0
1, 33120, Note_on_c, 0, 60, 0
1, 33120, Note_on_c, 0, 77, 0
1, 33120, Note_on_c, 0, 76, 55
1, 33120, Note_on_c, 0, 60, 39
1, 33120, Note_on_c, 0, 58, 33
1, 33133, Control_c, 0, 64, 0
1, 33247, Control_c, 0, 64, 127
1, 33360, Tempo, 1020408
1, 33360, Note_on_c, 0, 58, 0
1, 33360, Note_on_c, 0, 60, 0
1, 33360, Note_on_c, 0, 67, 29
1, 33600, Tempo, 1020408
1, 33600, Note_on_c, 0, 76, 0
1, 33600, Note_on_c, 0, 72, 52
1, 33840, Tempo, 1002506
1, 33840, Note_on_c, 0, 72, 0
1, 33840, Note_on_c, 0, 67, 0
1, 33840, Note_on_c, 0, 41, 36
1, 33845, Note_on_c, 0, 84, 58
1, 33850, Control_c, 0, 64, 0
1, 33947, Control_c, 0, 64, 127
1, 34080, Tempo, 945180
1, 34080, Note_on_c, 0, 41, 0
1, 34080, Note_on_c, 0, 48, 34
1, 34320, Tempo, 968836
1, 34320, Note_on_c, 0, 48, 0
1, 34320, Note_on_c, 0, 60, 31
1, 34320, Note_on_c, 0, 56, 31
1, 34560, Tempo, 922367
1, 34560, Note_on_c, 0, 56, 0
1, 34560, Note_on_c, 0, 60, 0
1, 34560, Note_on_c, 0, 84, 0
1, 34560, Note_on_c, 0, 60, 39
1, 34560, Note_on_c, 0, 58, 33
1, 34568, Control_c, 0, 64, 0
1, 34633, Control_c, 0, 64, 127
1, 34680, Tempo, 900901
1, 34680, Note_on_c, 0, 79, 53
1, 34800, Tempo, 929800
1, 34800, Note_on_c, 0, 79, 0
1, 34800, Note_on_c, 0, 58, 0
1, 34800, Note_on_c, 0, 60, 0
1, 34800, Note_on_c, 0, 80, 56
1, 34800, Note_on_c, 0, 64, 29
1, 34920, Tempo, 893788
1, 34920, Note_on_c, 0, 80, 0
1, 34920, Note_on_c, 0, 82, 50
1, 34980, Tempo, 845070
1, 34980, Note_on_c, 0, 82, 0
1, 34980, Note_on_c, 0, 80, 41
1, 35010, Note_on_c, 0, 80, 0
1, 35010, Note_on_c, 0, 82, 41
1, 35040, Tempo, 952381
1, 35040, Note_on_c, 0, 82, 0
1, 35040, Note_on_c, 0, 80, 49
1, 35160, Tempo, 1000000
1, 35160, Note_on_c, 0, 80, 0
1, 35160, Note_on_c, 0, 79, 50
1, 35280, Tempo, 960769
1, 35280, Note_on_c, 0, 79, 0
1, 35280, Note_on_c, 0, 64, 0
1, 35280, Note_on_c, 0, 84, 53
1, 35280, Note_on_c, 0, 41, 36
1, 35299, Control_c, 0, 64, 0
1, 35333, Control_c, 0, 64, 127
1, 35400, Tempo, 907990
1, 35400, Note_on_c, 0, 84, 0
1, 35400, Note_on_c, 0, 77, 53
1, 35520, Tempo, 937500
1, 35520, Note_on_c, 0, 77, 0
1, 35520, Note_on_c, 0, 41, 0
1, 35520, Note_on_c, 0, 79, 56
1, 35520, Note_on_c, 0, 48, 36
1, 35640, Tempo, 860462
1, 35640, Note_on_c, 0, 79, 0
1, 35640, Note_on_c, 0, 80, 50
1, 35700, Note_on_c, 0, 80, 0
1, 35700, Note_on_c, 0, 79, 44
1, 35730, Note_on_c, 0, 79, 0
1, 35730, Note_on_c, 0, 80, 41
1, 35760, Tempo, 960000
1, 35760, Note_on_c, 0, 80, 0
1, 35760, Note_on_c, 0, 48, 0
1, 35760, Note_on_c, 0, 79, 52
1, 35760, Note_on_c, 0, 60, 36
1, 35760, Note_on_c, 0, 56, 36
1, 35880, Tempo, 994036
1, 35880, Note_on_c, 0, 79, 0
1, 35880, Note_on_c, 0, 77, 50
1, 36000, Tempo, 985545
1, 36000, Note_on_c, 0, 77, 0
1, 36000, Note_on_c, 0, 56, 0
1, 36000, Note_on_c, 0, 60, 0
1, 36000, Note_on_c, 0, 76, 53
1, 36000, Note_on_c, 0, 60, 39
1, 36000, Note_on_c, 0, 58, 33
1, 36013, Control_c, 0, 64, 0
1, 36086, Control_c, 0, 64, 127
1, 36120, Tempo, 952835
1, 36120, Note_on_c, 0, 76, 0
1, 36120, Note_on_c, 0, 72, 53
1, 36240, Tempo, 952835
1, 36240, Note_on_c, 0, 72, 0
1, 36240, Note_on_c, 0, 58, 0
1, 36240, Note_on_c, 0, 60, 0
1, 36240, Note_on_c, 0, 71, 56
1, 36240, Note_on_c, 0, 67, 29
1, 36360, Tempo, 985545
1, 36360, Note_on_c, 0, 71, 0
1, 36360, Note_on_c, 0, 72, 50
1, 36480, Tempo, 994036
1, 36480, Note_on_c, 0, 72, 0
1, 36480, Note_on_c, 0, 75, 52
1, 36600, Tempo, 1002506
1, 36600, Note_on_c, 0, 75, 0
1, 36600, Note_on_c, 0, 73, 50
1, 36720, Tempo, 994036
1, 36720, Note_on_c, 0, 73, 0
1, 36720, Note_on_c, 0, 67, 0
1, 36720, Note_on_c, 0, 72, 49
1, 36720, Note_on_c, 0, 41, 36
1, 36738, Control_c, 0, 64, 0
1, 36773, Control_c, 0, 64, 127
1, 36840, Tempo, 945180
1, 36840, Note_on_c, 0, 72, 0
1, 36840, Note_on_c, 0, 65, 49
1, 36960, Tempo, 977199
1, 36960, Note_on_c, 0, 65, 0
1, 36960, Note_on_c, 0, 41, 0
1, 36960, Note_on_c, 0, 67, 51
1, 36960, Note_on_c, 0, 48, 36
1, 37080, Tempo, 893788
1, 37080, Note_on_c, 0, 67, 0
1, 37080, Note_on_c, 0, 68, 46
1, 37140, Note_on_c, 0, 68, 0
1, 37140, Note_on_c, 0, 67, 40
1, 37170, Note_on_c, 0, 67, 0
1, 37170, Note_on_c, 0, 68, 38
1, 37200, Tempo, 960000
1, 37200, Note_on_c, 0, 68, 0
1, 37200, Note_on_c, 0, 48, 0
1, 37200, Note_on_c, 0, 67, 48
1, 37200, Note_on_c, 0, 60, 34
1, 37200, Note_on_c, 0, 56, 34
1, 37320, Tempo, 994036
1, 37320, Note_on_c, 0, 67, 0
1, 37320, Note_on_c, 0, 65, 46
1, 37440, Note_on_c, 0, 65, 0
1, 37440, Note_on_c, 0, 56, 0
1, 37440, Note_on_c, 0, 60, 0
1, 37440, Note_on_c, 0, 64, 49
1, 37440, Note_on_c, 0, 60, 39
1, 37440, Note_on_c, 0, 58, 33
1, 37447, Control_c, 0, 64, 0
1, 37504, Control_c, 0, 64, 127
1, 37560, Tempo, 968836
1, 37560, Note_on_c, 0, 64, 0
1, 37560, Note_on_c, 0, 61, 49
1, 37620, Tempo, 968836
1, 37680, Tempo, 968836
1, 37680, Note_on_c, 0, 61, 0
1, 37680, Note_on_c, 0, 58, 0
1, 37680, Note_on_c, 0, 60, 0
1, 37680, Note_on_c, 0, 60, 49
1, 37680, Note_on_c, 0, 67, 29
1, 37740, Tempo, 977199
1, 37800, Tempo, 985545
1, 37800, Note_on_c, 0, 60, 0
1, 37800, Note_on_c, 0, 58, 39
1, 37860, Tempo, 994036
1, 37920, Tempo, 994036
1, 37920, Note_on_c, 0, 58, 0
1, 37920, Note_on_c, 0, 56, 44
1, 37940, Tempo, 1011463
1, 37960, Tempo, 1029513
1, 37980, Tempo, 1048218
1, 38000, Tempo, 1067616
1, 38020, Tempo, 1087745
1, 38040, Tempo, 1108852
1, 38040, Note_on_c, 0, 56, 0
1, 38040, Note_on_c, 0, 55, 38
1, 38060, Tempo, 1130369
1, 38080, Tempo, 1153181
1, 38100, Tempo, 1176471
1, 38100, Note_on_c, 0, 67, 0
1, 38100, Note_on_c, 0, 53, 36
1, 38120, Tempo, 1201201
1, 38140, Tempo, 1239926
1, 38160, Key_signature, -1, "major"
1, 38160, Tempo, 968836
1, 38160, Note_on_c, 0, 55, 0
1, 38160, Note_on_c, 0, 77, 50
1, 38160, Note_on_c, 0, 41, 31
1, 38170, Control_c, 0, 64, 0
1, 38180, Note_on_c, 0, 53, 0
1, 38286, Control_c, 0, 64, 127
1, 38400, Tempo, 1011463
1, 38400, Note_on_c, 0, 41, 0
1, 38400, Note_on_c, 0, 48, 31
1, 38640, Tempo, 1002506
1, 38640, Note_on_c, 0, 48, 0
1, 38640, Note_on_c, 0, 60, 29
1, 38640, Note_on_c, 0, 56, 29
1, 38880, Note_on_c, 0, 56, 0
1, 38880, Note_on_c, 0, 60, 0
1, 38880, Note_on_c, 0, 77, 0
1, 38880, Note_on_c, 0, 76, 49
1, 38880, Note_on_c, 0, 60, 35
1, 38880, Note_on_c, 0, 58, 29
1, 38893, Control_c, 0, 64, 0
1, 39007, Control_c, 0, 64, 127
1, 39120, Tempo, 1020408
1, 39120, Note_on_c, 0, 58, 0
1, 39120, Note_on_c, 0, 60, 0
1, 39120, Note_on_c, 0, 67, 26
1, 39360, Tempo, 1038781
1, 39360, Note_on_c, 0, 76, 0
1, 39360, Note_on_c, 0, 72, 47
1, 39600, Tempo, 1002506
1, 39600, Note_on_c, 0, 72, 0
1, 39600, Note_on_c, 0, 67, 0
1, 39600, Note_on_c, 0, 84, 51
1, 39600, Note_on_c, 0, 41, 31
1, 39613, Control_c, 0, 64, 0
1, 39720, Control_c, 0, 64, 127
1, 39840, Tempo, 994036
1, 39840, Note_on_c, 0, 41, 0
1, 39840, Note_on_c, 0, 48, 29
1, 40080, Tempo, 968836
1, 40080, Note_on_c, 0, 48, 0
1, 40080, Note_on_c, 0, 60, 29
1, 40080, Note_on_c, 0, 57, 29
1, 40320, Tempo, 929800
1, 40320, Note_on_c, 0, 57, 0
1, 40320, Note_on_c, 0, 60, 0
1, 40320, Note_on_c, 0, 84, 0
1, 40320, Note_on_c, 0, 60, 35
1, 40320, Note_on_c, 0, 58, 29
1, 40329, Control_c, 0, 64, 0
1, 40396, Control_c, 0, 64, 127
1, 40440, Tempo, 900901
1, 40440, Note_on_c, 0, 79, 48
1, 40560, Tempo, 937500
1, 40560, Note_on_c, 0, 79, 0
1, 40560, Note_on_c, 0, 58, 0
1, 40560, Note_on_c, 0, 60, 0
1, 40560, Note_on_c, 0, 81, 49
1, 40560, Note_on_c, 0, 64, 26
1, 40680, Tempo, 893788
1, 40680, Note_on_c, 0, 81, 0
1, 40680, Note_on_c, 0, 82, 45
1, 40740, Tempo, 857143
1, 40740, Note_on_c, 0, 82, 0
1, 40740, Note_on_c, 0, 81, 37
1, 40770, Note_on_c, 0, 81, 0
1, 40770, Note_on_c, 0, 82, 37
1, 40800, Tempo, 952381
1, 40800, Note_on_c, 0, 82, 0
1, 40800, Note_on_c, 0, 81, 44
1, 40920, Tempo, 994036
1, 40920, Note_on_c, 0, 81, 0
1, 40920, Note_on_c, 0, 79, 45
1, 41040, Tempo, 960769
1, 41040, Note_on_c, 0, 79, 0
1, 41040, Note_on_c, 0, 64, 0
1, 41040, Note_on_c, 0, 84, 48
1, 41040, Note_on_c, 0, 41, 31
1, 41058, Control_c, 0, 64, 0
1, 41093, Control_c, 0, 64, 127
1, 41160, Tempo, 907990
1, 41160, Note_on_c, 0, 84, 0
1, 41160, Note_on_c, 0, 77, 48
1, 41280, Tempo, 937500
1, 41280, Note_on_c, 0, 77, 0
1, 41280, Note_on_c, 0, 41, 0
1, 41280, Note_on_c, 0, 79, 49
1, 41280, Note_on_c, 0, 48, 31
1, 41400, Tempo, 860462
1, 41400, Note_on_c, 0, 79, 0
1, 41400, Note_on_c, 0, 81, 45
1, 41460, Note_on_c, 0, 81, 0
1, 41460, Note_on_c, 0, 79, 39
1, 41490, Note_on_c, 0, 79, 0
1, 41490, Note_on_c, 0, 81, 37
1, 41520, Tempo, 968836
1, 41520, Note_on_c, 0, 81, 0
1, 41520, Note_on_c, 0, 48, 0
1, 41520, Note_on_c, 0, 79, 47
1, 41520, Note_on_c, 0, 60, 30
1, 41520, Note_on_c, 0, 57, 30
1, 41580, Tempo, 960769
1, 41640, Tempo, 994036
1, 41640, Note_on_c, 0, 79, 0
1, 41640, Note_on_c, 0, 77, 45
1, 41760, Tempo, 985545
1, 41760, Note_on_c, 0, 77, 0
1, 41760, Note_on_c, 0, 57, 0
1, 41760, Note_on_c, 0, 60, 0
1, 41760, Note_on_c, 0, 82, 48
1, 41760, Note_on_c, 0, 76, 48
1, 41760, Note_on_c, 0, 60, 35
1, 41760, Note_on_c, 0, 58, 29
1, 41769, Control_c, 0, 64, 0
1, 41873, Control_c, 0, 64, 127
1, 41880, Tempo, 952835
1, 41880, Note_on_c, 0, 76, 0
1, 41880, Note_on_c, 0, 74, 48
1, 42000, Tempo, 952835
1, 42000, Note_on_c, 0, 74, 0
1, 42000, Note_on_c, 0, 58, 0
1, 42000, Note_on_c, 0, 60, 0
1, 42000, Note_on_c, 0, 76, 49
1, 42000, Note_on_c, 0, 67, 26
1, 42120, Tempo, 1002506
1, 42120, Note_on_c, 0, 76, 0
1, 42120, Note_on_c, 0, 72, 45
1, 42240, Tempo, 1029513
1, 42240, Note_on_c, 0, 72, 0
1, 42240, Note_on_c, 0, 82, 0
1, 42240, Note_on_c, 0, 81, 45
1, 42240, Note_on_c, 0, 70, 47
1, 42360, Note_on_c, 0, 70, 0
1, 42360, Note_on_c, 0, 72, 45
1, 42480, Tempo, 1020408
1, 42480, Note_on_c, 0, 72, 0
1, 42480, Note_on_c, 0, 81, 0
1, 42480, Note_on_c, 0, 67, 0
1, 42480, Note_on_c, 0, 69, 44
1, 42480, Note_on_c, 0, 77, 44
1, 42480, Note_on_c, 0, 41, 31
1, 42496, Control_c, 0, 64, 0
1, 42600, Control_c, 0, 64, 127
1, 42720, Tempo, 1020408
1, 42720, Note_on_c, 0, 41, 0
1, 42720, Note_on_c, 0, 48, 31
1, 42960, Note_on_c, 0, 48, 0
1, 42960, Note_on_c, 0, 60, 29
1, 42960, Note_on_c, 0, 57, 29
1, 43200, Tempo, 1067616
1, 43200, Note_on_c, 0, 60, 0
1, 43200, Note_on_c, 0, 65, 33
1, 43203, Control_c, 0, 64, 0
1, 43360, Control_c, 0, 64, 127
1, 43440, Note_on_c, 0, 65, 0
1, 43440, Note_on_c, 0, 69, 26
1, 43920, Key_signature, -5, "major"
1, 43920, Tempo, 968836
1, 43920, Note_on_c, 0, 69, 0
1, 43920, Note_on_c, 0, 69, 0
1, 43920, Note_on_c, 0, 77, 0
1, 43920, Note_on_c, 0, 57, 0
1, 43920, Note_on_c, 0, 65, 57
1, 43920, Control_c, 0, 64, 0
1, 43920, Note_on_c, 0, 37, 36
1, 44094, Control_c, 0, 64, 127
1, 44160, Tempo, 1011463
1, 44160, Note_on_c, 0, 37, 0
1, 44160, Note_on_c, 0, 44, 36
1, 44400, Tempo, 1002506
1, 44400, Note_on_c, 0, 44, 0
1, 44400, Note_on_c, 0, 53, 34
1, 44640, Tempo, 985545
1, 44640, Note_on_c, 0, 53, 0
1, 44640, Note_on_c, 0, 65, 0
1, 44640, Note_on_c, 0, 63, 55
1, 44640, Control_c, 0, 64, 0
1, 44640, Note_on_c, 0, 57, 39
1, 44640, Note_on_c, 0, 49, 33
1, 44703, Control_c, 0, 64, 127
1, 44878, Note_on_c, 0, 63, 0
1, 44880, Tempo, 1020408
1, 44880, Note_on_c, 0, 49, 0
1, 44880, Note_on_c, 0, 57, 0
1, 44880, Note_on_c, 0, 54, 29
1, 44880, Note_on_c, 0, 63, 29
1, 45120, Tempo, 1020408
1, 45120, Note_on_c, 0, 57, 52
1, 45300, Note_on_c, 0, 57, 0
1, 45300, Note_on_c, 0, 56, 51
1, 45360, Tempo, 1002506
1, 45360, Note_on_c, 0, 63, 0
1, 45360, Note_on_c, 0, 54, 0
1, 45360, Note_on_c, 0, 68, 58
1, 45360, Note_on_c, 0, 37, 36
1, 45363, Control_c, 0, 64, 0
1, 45380, Note_on_c, 0, 56, 0
1, 45534, Control_c, 0, 64, 127
1, 45600, Tempo, 945180
1, 45600, Note_on_c, 0, 37, 0
1, 45600, Note_on_c, 0, 44, 34
1, 45840, Tempo, 968836
1, 45840, Note_on_c, 0, 44, 0
1, 45840, Note_on_c, 0, 53, 31
1, 46080, Tempo, 922367
1, 46080, Note_on_c, 0, 53, 0
1, 46080, Note_on_c, 0, 68, 0
1, 46080, Note_on_c, 0, 57, 39
1, 46080, Note_on_c, 0, 49, 33
1, 46091, Control_c, 0, 64, 0
1, 46115, Control_c, 0, 64, 127
1, 46200, Tempo, 900901
1, 46200, Note_on_c, 0, 66, 53
1, 46320, Tempo, 929800
1, 46320, Note_on_c, 0, 66, 0
1, 46320, Note_on_c, 0, 49, 0
1, 46320, Note_on_c, 0, 57, 0
1, 46320, Note_on_c, 0, 68, 53
1, 46320, Note_on_c, 0, 54, 29
1, 46320, Note_on_c, 0, 61, 29
1, 46440, Tempo, 893788
1, 46440, Note_on_c, 0, 68, 0
1, 46440, Note_on_c, 0, 69, 50
1, 46500, Note_on_c, 0, 69, 0
1, 46500, Note_on_c, 0, 68, 41
1, 46530, Note_on_c, 0, 68, 0
1, 46530, Note_on_c, 0, 69, 41
1, 46560, Tempo, 960769
1, 46560, Note_on_c, 0, 69, 0
1, 46560, Note_on_c, 0, 68, 49
1, 46620, Tempo, 915053
1, 46680, Tempo, 886918
1, 46680, Note_on_c, 0, 68, 0
1, 46680, Note_on_c, 0, 66, 50
1, 46800, Tempo, 915053
1, 46800, Note_on_c, 0, 66, 0
1, 46800, Note_on_c, 0, 61, 0
1, 46800, Note_on_c, 0, 54, 0
1, 46800, Note_on_c, 0, 65, 53
1, 46800, Note_on_c, 0, 37, 36
1, 46820, Control_c, 0, 64, 0
1, 46853, Control_c, 0, 64, 127
1, 46920, Tempo, 893788
1, 46920, Note_on_c, 0, 65, 0
1, 46920, Note_on_c, 0, 66, 53
1, 47040, Tempo, 915053
1, 47040, Note_on_c, 0, 66, 0
1, 47040, Note_on_c, 0, 37, 0
1, 47040, Note_on_c, 0, 68, 56
1, 47040, Note_on_c, 0, 44, 34
1, 47160, Tempo, 873490
1, 47160, Note_on_c, 0, 68, 0
1, 47160, Note_on_c, 0, 66, 50
1, 47280, Tempo, 915053
1, 47280, Note_on_c, 0, 66, 0
1, 47280, Note_on_c, 0, 44, 0
1, 47280, Note_on_c, 0, 65, 52
1, 47280, Note_on_c, 0, 53, 34
1, 47340, Tempo, 960769
1, 47400, Tempo, 860462
1, 47400, Note_on_c, 0, 65, 0
1, 47400, Note_on_c, 0, 68, 50
1, 47460, Note_on_c, 0, 68, 0
1, 47460, Note_on_c, 0, 66, 46
1, 47490, Note_on_c, 0, 66, 0
1, 47490, Note_on_c, 0, 68, 46
1, 47520, Tempo, 944882
1, 47520, Note_on_c, 0, 68, 0
1, 47520, Note_on_c, 0, 53, 0
1, 47520, Note_on_c, 0, 66, 55
1, 47520, Note_on_c, 0, 57, 39
1, 47520, Note_on_c, 0, 49, 33
1, 47534, Control_c, 0, 64, 0
1, 47566, Control_c, 0, 64, 127
1, 47580, Tempo, 907990
1, 47640, Note_on_c, 0, 66, 0
1, 47640, Note_on_c, 0, 65, 51
1, 47760, Note_on_c, 0, 65, 0
1, 47760, Note_on_c, 0, 49, 0
1, 47760, Note_on_c, 0, 57, 0
1, 47760, Note_on_c, 0, 63, 55
1, 47760, Note_on_c, 0, 54, 29
1, 47880, Tempo, 985545
1, 47880, Note_on_c, 0, 65, 50
1, 48000, Tempo, 994036
1, 48000, Note_on_c, 0, 65, 0
1, 48000, Note_on_c, 0, 66, 52
1, 48120, Tempo, 1002506
1, 48120, Note_on_c, 0, 66, 0
1, 48120, Note_on_c, 0, 63, 0
1, 48120, Note_on_c, 0, 63, 50
1, 48240, Tempo, 994036
1, 48240, Note_on_c, 0, 63, 0
1, 48240, Note_on_c, 0, 54, 0
1, 48240, Note_on_c, 0, 65, 49
1, 48240, Note_on_c, 0, 37, 36
1, 48259, Control_c, 0, 64, 0
1, 48360, Tempo, 945180
1, 48360, Control_c, 0, 64, 127
1, 48480, Tempo, 977199
1, 48480, Note_on_c, 0, 37, 0
1, 48480, Note_on_c, 0, 44, 36
1, 48600, Tempo, 937500
1, 48600, Note_on_c, 0, 65, 0
1, 48600, Note_on_c, 0, 56, 46
1, 48720, Tempo, 1002506
1, 48720, Note_on_c, 0, 56, 0
1, 48720, Note_on_c, 0, 44, 0
1, 48720, Note_on_c, 0, 61, 48
1, 48720, Note_on_c, 0, 53, 34
1, 48780, Tempo, 985545
1, 48840, Tempo, 994036
1, 48960, Tempo, 945180
1, 48960, Note_on_c, 0, 53, 0
1, 48960, Note_on_c, 0, 61, 0
1, 48960, Note_on_c, 0, 57, 39
1, 48960, Note_on_c, 0, 49, 33
1, 48971, Control_c, 0, 64, 0
1, 49020, Control_c, 0, 64, 127
1, 49060, Tempo, 922367
1, 49080, Note_on_c, 0, 59, 41
1, 49100, Tempo, 929800
1, 49140, Tempo, 937500
1, 49180, Tempo, 945180
1, 49200, Note_on_c, 0, 59, 0
1, 49200, Note_on_c, 0, 49, 0
1, 49200, Note_on_c, 0, 57, 0
1, 49200, Note_on_c, 0, 57, 49
1, 49200, Note_on_c, 0, 54, 29
1, 49200, Note_on_c, 0, 63, 29
1, 49220, Tempo, 952835
1, 49260, Tempo, 960769
1, 49300, Tempo, 968836
1, 49320, Note_on_c, 0, 57, 0
1, 49320, Note_on_c, 0, 56, 40
1, 49340, Tempo, 977199
1, 49380, Tempo, 994036
1, 49440, Note_on_c, 0, 56, 0
1, 49440, Note_on_c, 0, 57, 47
1, 49560, Tempo, 1077586
1, 49560, Note_on_c, 0, 57, 0
1, 49560, Note_on_c, 0, 59, 40
1, 49620, Note_on_c, 0, 59, 0
1, 49620, Note_on_c, 0, 56, 53
1, 49680, Tempo, 968836
1, 49680, Note_on_c, 0, 63, 0
1, 49680, Note_on_c, 0, 54, 0
1, 49680, Note_on_c, 0, 65, 57
1, 49680, Note_on_c, 0, 37, 36
1, 49692, Control_c, 0, 64, 0
1, 49700, Note_on_c, 0, 56, 0
1, 49840, Control_c, 0, 64, 127
1, 49920, Tempo, 1011463
1, 49920, Note_on_c, 0, 37, 0
1, 49920, Note_on_c, 0, 44, 36
1, 50160, Tempo, 1002506
1, 50160, Note_on_c, 0, 44, 0
1, 50160, Note_on_c, 0, 53, 34
1, 50400, Note_on_c, 0, 53, 0
1, 50400, Note_on_c, 0, 65, 0
1, 50400, Note_on_c, 0, 63, 55
1, 50400, Note_on_c, 0, 57, 39
1, 50400, Note_on_c, 0, 49, 33
1, 50413, Control_c, 0, 64, 0
1, 50463, Control_c, 0, 64, 127
1, 50638, Note_on_c, 0, 63, 0
1, 50640, Tempo, 1020408
1, 50640, Note_on_c, 0, 49, 0
1, 50640, Note_on_c, 0, 57, 0
1, 50640, Note_on_c, 0, 54, 29
1, 50640, Note_on_c, 0, 63, 29
1, 50880, Tempo, 1020408
1, 50880, Note_on_c, 0, 57, 52
1, 51060, Note_on_c, 0, 57, 0
1, 51060, Note_on_c, 0, 56, 51
1, 51120, Tempo, 1002506
1, 51120, Note_on_c, 0, 63, 0
1, 51120, Note_on_c, 0, 54, 0
1, 51120, Note_on_c, 0, 68, 58
1, 51120, Note_on_c, 0, 37, 36
1, 51130, Control_c, 0, 64, 0
1, 51140, Note_on_c, 0, 56, 0
1, 51294, Control_c, 0, 64, 127
1, 51360, Tempo, 945180
1, 51360, Note_on_c, 0, 37, 0
1, 51360, Note_on_c, 0, 44, 34
1, 51600, Tempo, 968836
1, 51600, Note_on_c, 0, 44, 0
1, 51600, Note_on_c, 0, 53, 31
1, 51840, Tempo, 922367
1, 51840, Note_on_c, 0, 53, 0
1, 51840, Note_on_c, 0, 68, 0
1, 51840, Note_on_c, 0, 57, 39
1, 51840, Note_on_c, 0, 49, 33
1, 51850, Control_c, 0, 64, 0
1, 51911, Control_c, 0, 64, 127
1, 51960, Tempo, 900901
1, 51960, Note_on_c, 0, 66, 53
1, 52080, Tempo, 929800
1, 52080, Note_on_c, 0, 66, 0
1, 52080, Note_on_c, 0, 49, 0
1, 52080, Note_on_c, 0, 57, 0
1, 52080, Note_on_c, 0, 68, 53
1, 52080, Note_on_c, 0, 54, 29
1, 52080, Note_on_c, 0, 63, 29
1, 52200, Tempo, 893788
1, 52200, Note_on_c, 0, 68, 0
1, 52200, Note_on_c, 0, 69, 56
1, 52320, Tempo, 922367
1, 52320, Note_on_c, 0, 69, 0
1, 52320, Note_on_c, 0, 71, 59
1, 52440, Tempo, 866927
1, 52440, Note_on_c, 0, 71, 0
1, 52440, Note_on_c, 0, 73, 61
1, 52500, Note_on_c, 0, 73, 0
1, 52500, Note_on_c, 0, 71, 53
1, 52530, Note_on_c, 0, 71, 0
1, 52530, Note_on_c, 0, 73, 53
1, 52560, Tempo, 952835
1, 52560, Note_on_c, 0, 73, 0
1, 52560, Note_on_c, 0, 63, 0
1, 52560, Note_on_c, 0, 54, 0
1, 52560, Note_on_c, 0, 71, 62
1, 52560, Note_on_c, 0, 37, 45
1, 52577, Control_c, 0, 64, 0
1, 52613, Control_c, 0, 64, 127
1, 52620, Tempo, 915053
1, 52680, Note_on_c, 0, 71, 0
1, 52680, Note_on_c, 0, 69, 57
1, 52800, Tempo, 952835
1, 52800, Note_on_c, 0, 69, 0
1, 52800, Note_on_c, 0, 37, 0
1, 52800, Note_on_c, 0, 68, 62
1, 52800, Note_on_c, 0, 44, 39
1, 52920, Tempo, 907990
1, 52920, Note_on_c, 0, 68, 0
1, 52920, Note_on_c, 0, 66, 58
1, 53040, Tempo, 929800
1, 53040, Note_on_c, 0, 66, 0
1, 53040, Note_on_c, 0, 44, 0
1, 53040, Note_on_c, 0, 68, 60
1, 53040, Note_on_c, 0, 53, 38
1, 53160, Tempo, 907990
1, 53160, Note_on_c, 0, 68, 0
1, 53160, Note_on_c, 0, 69, 56
1, 53220, Note_on_c, 0, 69, 0
1, 53220, Note_on_c, 0, 66, 51
1, 53250, Note_on_c, 0, 66, 0
1, 53250, Note_on_c, 0, 68, 52
1, 53280, Tempo, 968836
1, 53280, Note_on_c, 0, 68, 0
1, 53280, Note_on_c, 0, 53, 0
1, 53280, Note_on_c, 0, 66, 58
1, 53280, Note_on_c, 0, 57, 44
1, 53292, Control_c, 0, 64, 0
1, 53321, Control_c, 0, 64, 127
1, 53340, Tempo, 952835
1, 53400, Tempo, 922367
1, 53400, Note_on_c, 0, 66, 0
1, 53400, Note_on_c, 0, 65, 52
1, 53520, Tempo, 960769
1, 53520, Note_on_c, 0, 65, 0
1, 53520, Note_on_c, 0, 57, 0
1, 53520, Note_on_c, 0, 63, 51
1, 53520, Note_on_c, 0, 54, 29
1, 53640, Tempo, 985545
1, 53640, Note_on_c, 0, 65, 44
1, 53760, Tempo, 937500
1, 53760, Note_on_c, 0, 65, 0
1, 53760, Note_on_c, 0, 66, 49
1, 53880, Tempo, 1029513
1, 53880, Note_on_c, 0, 66, 0
1, 53880, Note_on_c, 0, 68, 44
1, 53940, Note_on_c, 0, 37, 33
1, 54000, Tempo, 907578
1, 54000, Note_on_c, 0, 68, 0
1, 54000, Note_on_c, 0, 63, 0
1, 54000, Note_on_c, 0, 54, 0
1, 54000, Note_on_c, 0, 73, 26
1, 54000, Note_on_c, 0, 68, 26
1, 54000, Note_on_c, 0, 65, 26
1, 54000, Note_on_c, 0, 77, 31
1, 54000, Note_on_c, 0, 53, 37
1, 54000, Note_on_c, 0, 61, 48
1, 54009, Control_c, 0, 64, 0
1, 54134, Control_c, 0, 64, 127
1, 54240, Tempo, 931677
1, 54240, Note_on_c, 0, 77, 0
1, 54240, Note_on_c, 0, 65, 0
1, 54240, Note_on_c, 0, 68, 0
1, 54240, Note_on_c, 0, 73, 0
1, 54240, Note_on_c, 0, 77, 29
1, 54240, Note_on_c, 0, 73, 24
1, 54240, Note_on_c, 0, 68, 24
1, 54240, Note_on_c, 0, 65, 24
1, 54480, Note_on_c, 0, 65, 0
1, 54480, Note_on_c, 0, 73, 0
1, 54480, Note_on_c, 0, 77, 0
1, 54480, Note_on_c, 0, 68, 0
1, 54480, Note_on_c, 0, 77, 29
1, 54480, Note_on_c, 0, 73, 24
1, 54480, Note_on_c, 0, 68, 24
1, 54480, Note_on_c, 0, 65, 24
1, 54720, Tempo, 893389
1, 54720, Note_on_c, 0, 65, 0
1, 54720, Note_on_c, 0, 73, 0
1, 54720, Note_on_c, 0, 37, 0
1, 54720, Note_on_c, 0, 53, 0
1, 54720, Note_on_c, 0, 61, 0
1, 54720, Note_on_c, 0, 68, 0
1, 54720, Note_on_c, 0, 77, 0
1, 54720, Note_on_c, 0, 73, 26
1, 54720, Note_on_c, 0, 68, 26
1, 54720, Note_on_c, 0, 65, 26
1, 54720, Note_on_c, 0, 77, 31
1, 54733, Control_c, 0, 64, 0
1, 54826, Control_c, 0, 64, 127
1, 54840, Tempo, 952835
1, 54840, Note_on_c, 0, 60, 41
1, 54960, Tempo, 922367
1, 54960, Note_on_c, 0, 60, 0
1, 54960, Note_on_c, 0, 65, 0
1, 54960, Note_on_c, 0, 73, 0
1, 54960, Note_on_c, 0, 68, 0
1, 54960, Note_on_c, 0, 77, 0
1, 54960, Note_on_c, 0, 77, 29
1, 54960, Note_on_c, 0, 73, 24
1, 54960, Note_on_c, 0, 68, 24
1, 54960, Note_on_c, 0, 65, 24
1, 54960, Note_on_c, 0, 58, 47
1, 55080, Tempo, 927931
1, 55080, Note_on_c, 0, 58, 0
1, 55080, Note_on_c, 0, 56, 41
1, 55200, Tempo, 854093
1, 55200, Note_on_c, 0, 56, 0
1, 55200, Note_on_c, 0, 65, 0
1, 55200, Note_on_c, 0, 77, 0
1, 55200, Note_on_c, 0, 73, 0
1, 55200, Note_on_c, 0, 68, 0
1, 55200, Note_on_c, 0, 77, 29
1, 55200, Note_on_c, 0, 73, 24
1, 55200, Note_on_c, 0, 68, 24
1, 55200, Note_on_c, 0, 65, 24
1, 55200, Note_on_c, 0, 58, 47
1, 55320, Tempo, 960769
1, 55320, Note_on_c, 0, 58, 0
1, 55320, Note_on_c, 0, 60, 41
1, 55440, Tempo, 886787
1, 55440, Note_on_c, 0, 60, 0
1, 55440, Note_on_c, 0, 65, 0
1, 55440, Note_on_c, 0, 77, 0
1, 55440, Note_on_c, 0, 73, 0
1, 55440, Note_on_c, 0, 68, 0
1, 55440, Note_on_c, 0, 73, 26
1, 55440, Note_on_c, 0, 68, 26
1, 55440, Note_on_c, 0, 65, 26
1, 55440, Note_on_c, 0, 77, 31
1, 55440, Note_on_c, 0, 58, 42
1, 55456, Control_c, 0, 64, 0
1, 55472, Control_c, 0, 64, 127
1, 55520, Note_on_c, 0, 58, 0
1, 55520, Note_on_c, 0, 60, 39
1, 55600, Note_on_c, 0, 60, 0
1, 55600, Note_on_c, 0, 58, 39
1, 55680, Tempo, 931677
1, 55680, Note_on_c, 0, 58, 0
1, 55680, Note_on_c, 0, 65, 0
1, 55680, Note_on_c, 0, 73, 0
1, 55680, Note_on_c, 0, 68, 0
1, 55680, Note_on_c, 0, 77, 0
1, 55680, Note_on_c, 0, 77, 29
1, 55680, Note_on_c, 0, 73, 24
1, 55680, Note_on_c, 0, 68, 24
1, 55680, Note_on_c, 0, 65, 24
1, 55680, Note_on_c, 0, 56, 44
1, 55695, Control_c, 0, 64, 0
1, 55744, Control_c, 0, 64, 127
1, 55920, Tempo, 944287
1, 55920, Note_on_c, 0, 65, 0
1, 55920, Note_on_c, 0, 68, 0
1, 55920, Note_on_c, 0, 77, 0
1, 55920, Note_on_c, 0, 73, 0
1, 55920, Note_on_c, 0, 77, 29
1, 55920, Note_on_c, 0, 73, 24
1, 55920, Note_on_c, 0, 68, 24
1, 55920, Note_on_c, 0, 65, 24
1, 56160, Tempo, 919540
1, 56160, Note_on_c, 0, 65, 0
1, 56160, Note_on_c, 0, 73, 0
1, 56160, Note_on_c, 0, 68, 0
1, 56160, Note_on_c, 0, 77, 0
1, 56160, Note_on_c, 0, 73, 26
1, 56160, Note_on_c, 0, 68, 26
1, 56160, Note_on_c, 0, 65, 26
1, 56160, Note_on_c, 0, 77, 31
1, 56400, Note_on_c, 0, 77, 0
1, 56400, Note_on_c, 0, 68, 0
1, 56400, Note_on_c, 0, 65, 0
1, 56400, Note_on_c, 0, 73, 0
1, 56400, Note_on_c, 0, 77, 29
1, 56400, Note_on_c, 0, 73, 24
1, 56400, Note_on_c, 0, 68, 24
1, 56400, Note_on_c, 0, 65, 24
1, 56640, Note_on_c, 0, 65, 0
1, 56640, Note_on_c, 0, 73, 0
1, 56640, Note_on_c, 0, 68, 0
1, 56640, Note_on_c, 0, 77, 0
1, 56640, Note_on_c, 0, 77, 29
1, 56640, Note_on_c, 0, 73, 24
1, 56640, Note_on_c, 0, 68, 24
1, 56640, Note_on_c, 0, 65, 24
1, 56820, Note_on_c, 0, 56, 0
1, 56820, Note_on_c, 0, 37, 33
1, 56880, Note_on_c, 0, 68, 0
1, 56880, Note_on_c, 0, 65, 0
1, 56880, Note_on_c, 0, 77, 0
1, 56880, Note_on_c, 0, 73, 0
1, 56880, Note_on_c, 0, 73, 26
1, 56880, Note_on_c, 0, 68, 26
1, 56880, Note_on_c, 0, 65, 26
1, 56880, Note_on_c, 0, 77, 31
1, 56880, Control_c, 0, 64, 0
1, 56880, Note_on_c, 0, 53, 37
1, 56880, Note_on_c, 0, 61, 48
1, 57014, Control_c, 0, 64, 127
1, 57120, Tempo, 916870
1, 57120, Note_on_c, 0, 77, 0
1, 57120, Note_on_c, 0, 65, 0
1, 57120, Note_on_c, 0, 68, 0
1, 57120, Note_on_c, 0, 73, 0
1, 57120, Note_on_c, 0, 77, 29
1, 57120, Note_on_c, 0, 73, 24
1, 57120, Note_on_c, 0, 68, 24
1, 57120, Note_on_c, 0, 65, 24
1, 57360, Note_on_c, 0, 65, 0
1, 57360, Note_on_c, 0, 73, 0
1, 57360, Note_on_c, 0, 77, 0
1, 57360, Note_on_c, 0, 68, 0
1, 57360, Note_on_c, 0, 77, 29
1, 57360, Note_on_c, 0, 73, 24
1, 57360, Note_on_c, 0, 68, 24
1, 57360, Note_on_c, 0, 65, 24
1, 57600, Tempo, 899146
1, 57600, Note_on_c, 0, 65, 0
1, 57600, Note_on_c, 0, 73, 0
1, 57600, Note_on_c, 0, 37, 0
1, 57600, Note_on_c, 0, 53, 0
1, 57600, Note_on_c, 0, 61, 0
1, 57600, Note_on_c, 0, 68, 0
1, 57600, Note_on_c, 0, 77, 0
1, 57600, Note_on_c, 0, 73, 26
1, 57600, Note_on_c, 0, 68, 26
1, 57600, Note_on_c, 0, 65, 26
1, 57600, Note_on_c, 0, 77, 31
1, 57621, Control_c, 0, 64, 0
1, 57685, Control_c, 0, 64, 127
1, 57720, Tempo, 935016
1, 57720, Note_on_c, 0, 60, 41
1, 57840, Tempo, 886918
1, 57840, Note_on_c, 0, 60, 0
1, 57840, Note_on_c, 0, 65, 0
1, 57840, Note_on_c, 0, 73, 0
1, 57840, Note_on_c, 0, 68, 0
1, 57840, Note_on_c, 0, 77, 0
1, 57840, Note_on_c, 0, 77, 29
1, 57840, Note_on_c, 0, 73, 24
1, 57840, Note_on_c, 0, 68, 24
1, 57840, Note_on_c, 0, 65, 24
1, 57840, Note_on_c, 0, 58, 47
1, 57960, Tempo, 927357
1, 57960, Note_on_c, 0, 58, 0
1, 57960, Note_on_c, 0, 56, 41
1, 58080, Tempo, 880153
1, 58080, Note_on_c, 0, 56, 0
1, 58080, Note_on_c, 0, 65, 0
1, 58080, Note_on_c, 0, 77, 0
1, 58080, Note_on_c, 0, 73, 0
1, 58080, Note_on_c, 0, 68, 0
1, 58080, Note_on_c, 0, 77, 29
1, 58080, Note_on_c, 0, 73, 24
1, 58080, Note_on_c, 0, 68, 24
1, 58080, Note_on_c, 0, 65, 24
1, 58080, Note_on_c, 0, 58, 47
1, 58200, Tempo, 945477
1, 58200, Note_on_c, 0, 58, 0
1, 58200, Note_on_c, 0, 60, 41
1, 58320, Tempo, 873490
1, 58320, Note_on_c, 0, 60, 0
1, 58320, Note_on_c, 0, 65, 0
1, 58320, Note_on_c, 0, 77, 0
1, 58320, Note_on_c, 0, 73, 0
1, 58320, Note_on_c, 0, 68, 0
1, 58320, Note_on_c, 0, 73, 26
1, 58320, Note_on_c, 0, 68, 26
1, 58320, Note_on_c, 0, 65, 26
1, 58320, Note_on_c, 0, 77, 31
1, 58320, Note_on_c, 0, 58, 42
1, 58335, Control_c, 0, 64, 0
1, 58359, Control_c, 0, 64, 127
1, 58400, Note_on_c, 0, 58, 0
1, 58400, Note_on_c, 0, 60, 39
1, 58480, Note_on_c, 0, 60, 0
1, 58480, Note_on_c, 0, 58, 39
1, 58560, Tempo, 916870
1, 58560, Note_on_c, 0, 58, 0
1, 58560, Note_on_c, 0, 65, 0
1, 58560, Note_on_c, 0, 73, 0
1, 58560, Note_on_c, 0, 68, 0
1, 58560, Note_on_c, 0, 77, 0
1, 58560, Note_on_c, 0, 77, 29
1, 58560, Note_on_c, 0, 73, 24
1, 58560, Note_on_c, 0, 68, 24
1, 58560, Note_on_c, 0, 65, 24
1, 58560, Note_on_c, 0, 56, 44
1, 58578, Control_c, 0, 64, 0
1, 58666, Control_c, 0, 64, 127
1, 58800, Tempo, 929224
1, 58800, Note_on_c, 0, 65, 0
1, 58800, Note_on_c, 0, 68, 0
1, 58800, Note_on_c, 0, 77, 0
1, 58800, Note_on_c, 0, 73, 0
1, 58800, Note_on_c, 0, 77, 29
1, 58800, Note_on_c, 0, 73, 24
1, 58800, Note_on_c, 0, 68, 24
1, 58800, Note_on_c, 0, 65, 24
1, 59040, Tempo, 904977
1, 59040, Note_on_c, 0, 65, 0
1, 59040, Note_on_c, 0, 73, 0
1, 59040, Note_on_c, 0, 68, 0
1, 59040, Note_on_c, 0, 77, 0
1, 59040, Note_on_c, 0, 73, 26
1, 59040, Note_on_c, 0, 68, 26
1, 59040, Note_on_c, 0, 65, 26
1, 59040, Note_on_c, 0, 77, 31
1, 59280, Note_on_c, 0, 77, 0
1, 59280, Note_on_c, 0, 68, 0
1, 59280, Note_on_c, 0, 65, 0
1, 59280, Note_on_c, 0, 73, 0
1, 59280, Note_on_c, 0, 77, 29
1, 59280, Note_on_c, 0, 73, 24
1, 59280, Note_on_c, 0, 68, 24
1, 59280, Note_on_c, 0, 65, 24
1, 59520, Tempo, 916870
1, 59520, Note_on_c, 0, 65, 0
1, 59520, Note_on_c, 0, 73, 0
1, 59520, Note_on_c, 0, 68, 0
1, 59520, Note_on_c, 0, 77, 0
1, 59520, Note_on_c, 0, 77, 29
1, 59520, Note_on_c, 0, 73, 24
1, 59520, Note_on_c, 0, 68, 24
1, 59520, Note_on_c, 0, 65, 24
1, 59640, Tempo, 965562
1, 59700, Note_on_c, 0, 56, 0
1, 59700, Note_on_c, 0, 46, 42
1, 59730, Note_on_c, 0, 55, 42
1, 59760, Tempo, 907990
1, 59760, Note_on_c, 0, 68, 0
1, 59760, Note_on_c, 0, 65, 0
1, 59760, Note_on_c, 0, 77, 0
1, 59760, Note_on_c, 0, 73, 0
1, 59760, Note_on_c, 0, 73, 26
1, 59760, Note_on_c, 0, 67, 26
1, 59760, Note_on_c, 0, 65, 26
1, 59760, Note_on_c, 0, 77, 31
1, 59760, Control_c, 0, 64, 0
1, 59760, Note_on_c, 0, 61, 42
1, 59823, Control_c, 0, 64, 127
1, 59840, Note_on_c, 0, 61, 0
1, 59840, Note_on_c, 0, 55, 0
1, 59840, Note_on_c, 0, 63, 39
1, 59920, Note_on_c, 0, 63, 0
1, 59920, Note_on_c, 0, 61, 39
1, 60000, Tempo, 937500
1, 60000, Note_on_c, 0, 61, 0
1, 60000, Note_on_c, 0, 73, 0
1, 60000, Note_on_c, 0, 67, 0
1, 60000, Note_on_c, 0, 65, 0
1, 60000, Note_on_c, 0, 77, 0
1, 60000, Note_on_c, 0, 77, 29
1, 60000, Note_on_c, 0, 73, 24
1, 60000, Note_on_c, 0, 67, 24
1, 60000, Note_on_c, 0, 65, 24
1, 60000, Note_on_c, 0, 55, 44
1, 60018, Control_c, 0, 64, 0
1, 60106, Control_c, 0, 64, 127
1, 60240, Tempo, 960769
1, 60240, Note_on_c, 0, 65, 0
1, 60240, Note_on_c, 0, 67, 0
1, 60240, Note_on_c, 0, 73, 0
1, 60240, Note_on_c, 0, 77, 0
1, 60240, Note_on_c, 0, 77, 29
1, 60240, Note_on_c, 0, 73, 24
1, 60240, Note_on_c, 0, 67, 24
1, 60240, Note_on_c, 0, 65, 24
1, 60480, Tempo, 922367
1, 60480, Note_on_c, 0, 65, 0
1, 60480, Note_on_c, 0, 46, 0
1, 60480, Note_on_c, 0, 77, 0
1, 60480, Note_on_c, 0, 73, 0
1, 60480, Note_on_c, 0, 67, 0
1, 60480, Note_on_c, 0, 73, 26
1, 60480, Note_on_c, 0, 67, 26
1, 60480, Note_on_c, 0, 65, 26
1, 60480, Note_on_c, 0, 77, 31
1, 60720, Note_on_c, 0, 77, 0
1, 60720, Note_on_c, 0, 67, 0
1, 60720, Note_on_c, 0, 65, 0
1, 60720, Note_on_c, 0, 73, 0
1, 60720, Note_on_c, 0, 77, 29
1, 60720, Note_on_c, 0, 73, 24
1, 60720, Note_on_c, 0, 67, 24
1, 60720, Note_on_c, 0, 65, 24
1, 60960, Tempo, 937500
1, 60960, Note_on_c, 0, 65, 0
1, 60960, Note_on_c, 0, 73, 0
1, 60960, Note_on_c, 0, 67, 0
1, 60960, Note_on_c, 0, 77, 0
1, 60960, Note_on_c, 0, 77, 29
1, 60960, Note_on_c, 0, 73, 24
1, 60960, Note_on_c, 0, 67, 24
1, 60960, Note_on_c, 0, 65, 24
1, 61200, Tempo, 994036
1, 61200, Note_on_c, 0, 65, 0
1, 61200, Note_on_c, 0, 73, 0
1, 61200, Note_on_c, 0, 55, 0
1, 61200, Note_on_c, 0, 77, 0
1, 61200, Note_on_c, 0, 67, 0
1, 61200, Note_on_c, 0, 73, 26
1, 61200, Note_on_c, 0, 67, 26
1, 61200, Note_on_c, 0, 65, 26
1, 61200, Note_on_c, 0, 77, 31
1, 61200, Note_on_c, 0, 48, 42
1, 61200, Note_on_c, 0, 58, 42
1, 61208, Control_c, 0, 64, 0
1, 61250, Control_c, 0, 64, 127
1, 61280, Note_on_c, 0, 58, 0
1, 61280, Note_on_c, 0, 60, 39
1, 61360, Note_on_c, 0, 60, 0
1, 61360, Note_on_c, 0, 58, 39
1, 61440, Tempo, 1011463
1, 61440, Note_on_c, 0, 58, 0
1, 61440, Note_on_c, 0, 67, 0
1, 61440, Note_on_c, 0, 65, 0
1, 61440, Note_on_c, 0, 73, 0
1, 61440, Note_on_c, 0, 77, 0
1, 61440, Note_on_c, 0, 77, 29
1, 61440, Note_on_c, 0, 73, 24
1, 61440, Note_on_c, 0, 67, 24
1, 61440, Note_on_c, 0, 65, 24
1, 61440, Note_on_c, 0, 55, 44
1, 61456, Control_c, 0, 64, 0
1, 61546, Control_c, 0, 64, 127
1, 61680, Tempo, 1029513
1, 61680, Note_on_c, 0, 65, 0
1, 61680, Note_on_c, 0, 67, 0
1, 61680, Note_on_c, 0, 73, 0
1, 61680, Note_on_c, 0, 77, 0
1, 61680, Note_on_c, 0, 77, 29
1, 61680, Note_on_c, 0, 73, 24
1, 61680, Note_on_c, 0, 67, 24
1, 61680, Note_on_c, 0, 65, 24
1, 61920, Tempo, 1029513
1, 61920, Note_on_c, 0, 65, 0
1, 61920, Note_on_c, 0, 48, 0
1, 61920, Note_on_c, 0, 77, 0
1, 61920, Note_on_c, 0, 55, 0
1, 61920, Note_on_c, 0, 67, 0
1, 61920, Note_on_c, 0, 73, 0
1, 61920, Note_on_c, 0, 73, 26
1, 61920, Note_on_c, 0, 67, 26
1, 61920, Note_on_c, 0, 70, 26
1, 61920, Note_on_c, 0, 76, 31
1, 61920, Note_on_c, 0, 60, 44
1, 61933, Control_c, 0, 64, 0
1, 61980, Tempo, 1038781
1, 62040, Tempo, 1048218
1, 62077, Control_c, 0, 64, 127
1, 62100, Tempo, 1057828
1, 62160, Tempo, 1067616
1, 62160, Note_on_c, 0, 76, 0
1, 62160, Note_on_c, 0, 70, 0
1, 62160, Note_on_c, 0, 73, 0
1, 62160, Note_on_c, 0, 67, 0
1, 62160, Note_on_c, 0, 76, 29
1, 62160, Note_on_c, 0, 73, 24
1, 62160, Note_on_c, 0, 67, 24
1, 62160, Note_on_c, 0, 70, 24
1, 62220, Tempo, 1077586
1, 62280, Tempo, 1087745
1, 62340, Tempo, 1098298
1, 62400, Tempo, 1108852
1, 62400, Note_on_c, 0, 70, 0
1, 62400, Note_on_c, 0, 73, 0
1, 62400, Note_on_c, 0, 67, 0
1, 62400, Note_on_c, 0, 76, 0
1, 62400, Note_on_c, 0, 76, 29
1, 62400, Note_on_c, 0, 73, 24
1, 62400, Note_on_c, 0, 67, 24
1, 62400, Note_on_c, 0, 70, 24
1, 62460, Tempo, 1119403
1, 62520, Tempo, 1130369
1, 62580, Tempo, 1141553
1, 62620, Tempo, 1153181
1, 62640, Key_signature, -4, "major"
1, 62640, Tempo, 968836
1, 62640, Note_on_c, 0, 70, 0
1, 62640, Note_on_c, 0, 73, 0
1, 62640, Note_on_c, 0, 60, 0
1, 62640, Note_on_c, 0, 76, 0
1, 62640, Note_on_c, 0, 67, 0
1, 62640, Note_on_c, 0, 77, 57
1, 62640, Note_on_c, 0, 41, 36
1, 62650, Control_c, 0, 64, 0
1, 62814, Control_c, 0, 64, 127
1, 62880, Tempo, 1011463
1, 62880, Note_on_c, 0, 41, 0
1, 62880, Note_on_c, 0, 48, 36
1, 63120, Tempo, 1002506
1, 63120, Note_on_c, 0, 48, 0
1, 63120, Note_on_c, 0, 60, 34
1, 63120, Note_on_c, 0, 56, 34
1, 63360, Note_on_c, 0, 56, 0
1, 63360, Note_on_c, 0, 60, 0
1, 63360, Note_on_c, 0, 77, 0
1, 63360, Note_on_c, 0, 76, 55
1, 63360, Note_on_c, 0, 60, 39
1, 63360, Note_on_c, 0, 58, 33
1, 63380, Control_c, 0, 64, 0
1, 63562, Control_c, 0, 64, 127
1, 63600, Tempo, 1020408
1, 63600, Note_on_c, 0, 58, 0
1, 63600, Note_on_c, 0, 60, 0
1, 63600, Note_on_c, 0, 67, 29
1, 63840, Tempo, 1020408
1, 63840, Note_on_c, 0, 76, 0
1, 63840, Note_on_c, 0, 72, 52
1, 64080, Tempo, 1002506
1, 64080, Note_on_c, 0, 72, 0
1, 64080, Note_on_c, 0, 67, 0
1, 64080, Note_on_c, 0, 41, 36
1, 64085, Note_on_c, 0, 84, 58
1, 64092, Control_c, 0, 64, 0
1, 64240, Control_c, 0, 64, 127
1, 64320, Tempo, 945180
1, 64320, Note_on_c, 0, 41, 0
1, 64320, Note_on_c, 0, 48, 34
1, 64560, Tempo, 968836
1, 64560, Note_on_c, 0, 48, 0
1, 64560, Note_on_c, 0, 60, 31
1, 64560, Note_on_c, 0, 56, 31
1, 64800, Tempo, 922367
1, 64800, Note_on_c, 0, 56, 0
1, 64800, Note_on_c, 0, 60, 0
1, 64800, Note_on_c, 0, 84, 0
1, 64800, Note_on_c, 0, 60, 39
1, 64800, Note_on_c, 0, 58, 33
1, 64813, Control_c, 0, 64, 0
1, 64901, Control_c, 0, 64, 127
1, 64920, Tempo, 900901
1, 64920, Note_on_c, 0, 79, 53
1, 65040, Tempo, 929800
1, 65040, Note_on_c, 0, 79, 0
1, 65040, Note_on_c, 0, 58, 0
1, 65040, Note_on_c, 0, 60, 0
1, 65040, Note_on_c, 0, 80, 56
1, 65040, Note_on_c, 0, 64, 29
1, 65160, Tempo, 893788
1, 65160, Note_on_c, 0, 80, 0
1, 65160, Note_on_c, 0, 82, 50
1, 65220, Note_on_c, 0, 82, 0
1, 65220, Note_on_c, 0, 80, 41
1, 65250, Note_on_c, 0, 80, 0
1, 65250, Note_on_c, 0, 82, 41
1, 65280, Tempo, 937500
1, 65280, Note_on_c, 0, 82, 0
1, 65280, Note_on_c, 0, 80, 49
1, 65400, Tempo, 1000000
1, 65400, Note_on_c, 0, 80, 0
1, 65400, Note_on_c, 0, 79, 50
1, 65520, Tempo, 960769
1, 65520, Note_on_c, 0, 79, 0
1, 65520, Note_on_c, 0, 64, 0
1, 65520, Note_on_c, 0, 84, 53
1, 65520, Note_on_c, 0, 41, 36
1, 65540, Control_c, 0, 64, 0
1, 65573, Control_c, 0, 64, 127
1, 65640, Tempo, 907990
1, 65640, Note_on_c, 0, 84, 0
1, 65640, Note_on_c, 0, 77, 53
1, 65760, Tempo, 937500
1, 65760, Note_on_c, 0, 77, 0
1, 65760, Note_on_c, 0, 41, 0
1, 65760, Note_on_c, 0, 79, 56
1, 65760, Note_on_c, 0, 48, 36
1, 65880, Tempo, 860462
1, 65880, Note_on_c, 0, 79, 0
1, 65880, Note_on_c, 0, 80, 50
1, 65940, Note_on_c, 0, 80, 0
1, 65940, Note_on_c, 0, 79, 44
1, 65970, Note_on_c, 0, 79, 0
1, 65970, Note_on_c, 0, 80, 41
1, 66000, Tempo, 952381
1, 66000, Note_on_c, 0, 80, 0
1, 66000, Note_on_c, 0, 48, 0
1, 66000, Note_on_c, 0, 79, 52
1, 66000, Note_on_c, 0, 60, 36
1, 66000, Note_on_c, 0, 56, 36
1, 66060, Tempo, 960769
1, 66120, Tempo, 994036
1, 66120, Note_on_c, 0, 79, 0
1, 66120, Note_on_c, 0, 77, 50
1, 66240, Tempo, 985545
1, 66240, Note_on_c, 0, 77, 0
1, 66240, Note_on_c, 0, 56, 0
1, 66240, Note_on_c, 0, 60, 0
1, 66240, Note_on_c, 0, 76, 53
1, 66240, Note_on_c, 0, 60, 39
1, 66240, Note_on_c, 0, 58, 33
1, 66252, Control_c, 0, 64, 0
1, 66309, Control_c, 0, 64, 127
1, 66360, Tempo, 952835
1, 66360, Note_on_c, 0, 76, 0
1, 66360, Note_on_c, 0, 72, 53
1, 66480, Tempo, 952835
1, 66480, Note_on_c, 0, 72, 0
1, 66480, Note_on_c, 0, 58, 0
1, 66480, Note_on_c, 0, 60, 0
1, 66480, Note_on_c, 0, 71, 56
1, 66480, Note_on_c, 0, 67, 29
1, 66600, Tempo, 985545
1, 66600, Note_on_c, 0, 71, 0
1, 66600, Note_on_c, 0, 72, 50
1, 66720, Tempo, 994036
1, 66720, Note_on_c, 0, 72, 0
1, 66720, Note_on_c, 0, 75, 52
1, 66840, Tempo, 1002506
1, 66840, Note_on_c, 0, 75, 0
1, 66840, Note_on_c, 0, 73, 50
1, 66960, Tempo, 994036
1, 66960, Note_on_c, 0, 73, 0
1, 66960, Note_on_c, 0, 67, 0
1, 66960, Note_on_c, 0, 72, 49
1, 66960, Note_on_c, 0, 41, 36
1, 66980, Control_c, 0, 64, 0
1, 67013, Control_c, 0, 64, 127
1, 67080, Tempo, 945180
1, 67080, Note_on_c, 0, 65, 49
1, 67200, Tempo, 977199
1, 67200, Note_on_c, 0, 65, 0
1, 67200, Note_on_c, 0, 41, 0
1, 67200, Note_on_c, 0, 67, 51
1, 67200, Note_on_c, 0, 48, 36
1, 67320, Tempo, 893788
1, 67320, Note_on_c, 0, 67, 0
1, 67320, Note_on_c, 0, 68, 46
1, 67380, Note_on_c, 0, 68, 0
1, 67380, Note_on_c, 0, 67, 40
1, 67410, Note_on_c, 0, 67, 0
1, 67410, Note_on_c, 0, 68, 38
1, 67440, Tempo, 952381
1, 67440, Note_on_c, 0, 68, 0
1, 67440, Note_on_c, 0, 48, 0
1, 67440, Note_on_c, 0, 67, 48
1, 67440, Note_on_c, 0, 60, 34
1, 67440, Note_on_c, 0, 56, 34
1, 67560, Tempo, 991736
1, 67560, Note_on_c, 0, 67, 0
1, 67560, Note_on_c, 0, 65, 46
1, 67680, Note_on_c, 0, 65, 0
1, 67680, Note_on_c, 0, 56, 0
1, 67680, Note_on_c, 0, 60, 0
1, 67680, Note_on_c, 0, 64, 49
1, 67680, Note_on_c, 0, 60, 39
1, 67680, Note_on_c, 0, 58, 33
1, 67685, Control_c, 0, 64, 0
1, 67715, Control_c, 0, 64, 127
1, 67800, Tempo, 968836
1, 67800, Note_on_c, 0, 64, 0
1, 67800, Note_on_c, 0, 61, 49
1, 67860, Tempo, 968836
1, 67920, Tempo, 968836
1, 67920, Note_on_c, 0, 61, 0
1, 67920, Note_on_c, 0, 58, 0
1, 67920, Note_on_c, 0, 60, 0
1, 67920, Note_on_c, 0, 60, 49
1, 67920, Note_on_c, 0, 67, 29
1, 67980, Tempo, 977199
1, 68040, Tempo, 985545
1, 68040, Note_on_c, 0, 60, 0
1, 68040, Note_on_c, 0, 58, 39
1, 68100, Tempo, 994036
1, 68160, Tempo, 994036
1, 68160, Note_on_c, 0, 58, 0
1, 68160, Note_on_c, 0, 56, 44
1, 68180, Tempo, 1011463
1, 68200, Tempo, 1029513
1, 68220, Tempo, 1048218
1, 68240, Tempo, 1067616
1, 68260, Tempo, 1087745
1, 68280, Tempo, 1108852
1, 68280, Note_on_c, 0, 56, 0
1, 68280, Note_on_c, 0, 55, 38
1, 68300, Tempo, 1130369
1, 68320, Tempo, 1153181
1, 68340, Tempo, 1176471
1, 68340, Note_on_c, 0, 67, 0
1, 68340, Note_on_c, 0, 53, 36
1, 68360, Tempo, 1201201
1, 68380, Tempo, 1239926
1, 68400, Key_signature, -1, "major"
1, 68400, Tempo, 968836
1, 68400, Note_on_c, 0, 55, 0
1, 68400, Note_on_c, 0, 72, 0
1, 68400, Note_on_c, 0, 77, 50
1, 68400, Note_on_c, 0, 41, 31
1, 68404, Control_c, 0, 64, 0
1, 68420, Note_on_c, 0, 53, 0
1, 68526, Control_c, 0, 64, 127
1, 68640, Tempo, 1011463
1, 68640, Note_on_c, 0, 41, 0
1, 68640, Note_on_c, 0, 48, 31
1, 68880, Tempo, 1002506
1, 68880, Note_on_c, 0, 48, 0
1, 68880, Note_on_c, 0, 60, 29
1, 68880, Note_on_c, 0, 56, 29
1, 69120, Note_on_c, 0, 56, 0
1, 69120, Note_on_c, 0, 60, 0
1, 69120, Note_on_c, 0, 77, 0
1, 69120, Note_on_c, 0, 76, 49
1, 69120, Note_on_c, 0, 60, 35
1, 69120, Note_on_c, 0, 58, 29
1, 69128, Control_c, 0, 64, 0
1, 69234, Control_c, 0, 64, 127
1, 69360, Tempo, 1020408
1, 69360, Note_on_c, 0, 58, 0
1, 69360, Note_on_c, 0, 60, 0
1, 69360, Note_on_c, 0, 67, 26
1, 69600, Tempo, 1038781
1, 69600, Note_on_c, 0, 76, 0
1, 69600, Note_on_c, 0, 72, 47
1, 69840, Tempo, 1002506
1, 69840, Note_on_c, 0, 72, 0
1, 69840, Note_on_c, 0, 67, 0
1, 69840, Note_on_c, 0, 84, 51
1, 69840, Note_on_c, 0, 41, 31
1, 69851, Control_c, 0, 64, 0
1, 69960, Control_c, 0, 64, 127
1, 70080, Tempo, 994036
1, 70080, Note_on_c, 0, 41, 0
1, 70080, Note_on_c, 0, 48, 29
1, 70320, Tempo, 968836
1, 70320, Note_on_c, 0, 48, 0
1, 70320, Note_on_c, 0, 60, 29
1, 70320, Note_on_c, 0, 57, 29
1, 70560, Tempo, 929800
1, 70560, Note_on_c, 0, 57, 0
1, 70560, Note_on_c, 0, 60, 0
1, 70560, Note_on_c, 0, 84, 0
1, 70560, Note_on_c, 0, 60, 35
1, 70560, Note_on_c, 0, 58, 29
1, 70567, Control_c, 0, 64, 0
1, 70627, Control_c, 0, 64, 127
1, 70680, Tempo, 900901
1, 70680, Note_on_c, 0, 79, 48
1, 70800, Tempo, 937500
1, 70800, Note_on_c, 0, 79, 0
1, 70800, Note_on_c, 0, 58, 0
1, 70800, Note_on_c, 0, 60, 0
1, 70800, Note_on_c, 0, 81, 49
1, 70800, Note_on_c, 0, 64, 26
1, 70920, Tempo, 893788
1, 70920, Note_on_c, 0, 81, 0
1, 70920, Note_on_c, 0, 82, 45
1, 70980, Note_on_c, 0, 82, 0
1, 70980, Note_on_c, 0, 81, 37
1, 71010, Note_on_c, 0, 81, 0
1, 71010, Note_on_c, 0, 82, 37
1, 71040, Tempo, 944882
1, 71040, Note_on_c, 0, 82, 0
1, 71040, Note_on_c, 0, 81, 44
1, 71160, Tempo, 994036
1, 71160, Note_on_c, 0, 81, 0
1, 71160, Note_on_c, 0, 79, 45
1, 71280, Tempo, 960769
1, 71280, Note_on_c, 0, 79, 0
1, 71280, Note_on_c, 0, 64, 0
1, 71280, Note_on_c, 0, 84, 48
1, 71280, Note_on_c, 0, 41, 31
1, 71300, Control_c, 0, 64, 0
1, 71333, Control_c, 0, 64, 127
1, 71400, Tempo, 907990
1, 71400, Note_on_c, 0, 84, 0
1, 71400, Note_on_c, 0, 77, 48
1, 71520, Tempo, 937500
1, 71520, Note_on_c, 0, 77, 0
1, 71520, Note_on_c, 0, 41, 0
1, 71520, Note_on_c, 0, 79, 49
1, 71520, Note_on_c, 0, 48, 31
1, 71640, Tempo, 860462
1, 71640, Note_on_c, 0, 79, 0
1, 71640, Note_on_c, 0, 81, 45
1, 71700, Note_on_c, 0, 81, 0
1, 71700, Note_on_c, 0, 79, 39
1, 71730, Note_on_c, 0, 79, 0
1, 71730, Note_on_c, 0, 81, 37
1, 71760, Tempo, 937500
1, 71760, Note_on_c, 0, 81, 0
1, 71760, Note_on_c, 0, 48, 0
1, 71760, Note_on_c, 0, 79, 47
1, 71760, Note_on_c, 0, 60, 30
1, 71760, Note_on_c, 0, 57, 30
1, 71880, Tempo, 994036
1, 71880, Note_on_c, 0, 79, 0
1, 71880, Note_on_c, 0, 77, 45
1, 72000, Tempo, 985545
1, 72000, Note_on_c, 0, 77, 0
1, 72000, Note_on_c, 0, 57, 0
1, 72000, Note_on_c, 0, 60, 0
1, 72000, Note_on_c, 0, 82, 48
1, 72000, Note_on_c, 0, 76, 48
1, 72000, Control_c, 0, 64, 0
1, 72000, Note_on_c, 0, 60, 35
1, 72000, Note_on_c, 0, 58, 29
1, 72113, Control_c, 0, 64, 127
1, 72120, Tempo, 952835
1, 72120, Note_on_c, 0, 76, 0
1, 72120, Note_on_c, 0, 74, 48
1, 72240, Tempo, 952835
1, 72240, Note_on_c, 0, 74, 0
1, 72240, Note_on_c, 0, 58, 0
1, 72240, Note_on_c, 0, 60, 0
1, 72240, Note_on_c, 0, 76, 49
1, 72240, Note_on_c, 0, 67, 26
1, 72360, Tempo, 1002506
1, 72360, Note_on_c, 0, 76, 0
1, 72360, Note_on_c, 0, 72, 45
1, 72480, Tempo, 1029513
1, 72480, Note_on_c, 0, 72, 0
1, 72480, Note_on_c, 0, 82, 0
1, 72480, Note_on_c, 0, 81, 45
1, 72480, Note_on_c, 0, 70, 47
1, 72600, Note_on_c, 0, 70, 0
1, 72600, Note_on_c, 0, 72, 45
1, 72720, Tempo, 1020408
1, 72720, Note_on_c, 0, 72, 0
1, 72720, Note_on_c, 0, 81, 0
1, 72720, Note_on_c, 0, 67, 0
1, 72720, Note_on_c, 0, 69, 44
1, 72720, Note_on_c, 0, 77, 44
1, 72720, Note_on_c, 0, 41, 31
1, 72736, Control_c, 0, 64, 0
1, 72827, Control_c, 0, 64, 127
1, 72960, Tempo, 1020408
1, 72960, Note_on_c, 0, 41, 0
1, 72960, Note_on_c, 0, 48, 31
1, 73200, Note_on_c, 0, 48, 0
1, 73200, Note_on_c, 0, 60, 29
1, 73200, Note_on_c, 0, 57, 29
1, 73440, Tempo, 1067616
1, 73440, Note_on_c, 0, 60, 0
1, 73440, Note_on_c, 0, 65, 33
1, 73679, Note_on_c, 0, 69, 0
1, 73680, Note_on_c, 0, 65, 0
1, 73680, Note_on_c, 0, 69, 26
1, 74158, Note_on_c, 0, 69, 0
1, 74160, Tempo, 985545
1, 74160, Note_on_c, 0, 77, 0
1, 74160, Note_on_c, 0, 57, 0
1, 74160, Note_on_c, 0, 57, 46
1, 74160, Note_on_c, 0, 61, 46
1, 74160, Note_on_c, 0, 69, 56
1, 74160, Note_on_c, 0, 41, 44
1, 74174, Control_c, 0, 64, 0
1, 74266, Control_c, 0, 64, 127
1, 74280, Tempo, 1029513
1, 74280, Note_on_c, 0, 69, 0
1, 74280, Note_on_c, 0, 67, 52
1, 74400, Tempo, 1002506
1, 74400, Note_on_c, 0, 67, 0
1, 74400, Note_on_c, 0, 41, 0
1, 74400, Note_on_c, 0, 65, 51
1, 74400, Note_on_c, 0, 49, 39
1, 74640, Tempo, 1020408
1, 74640, Note_on_c, 0, 49, 0
1, 74640, Note_on_c, 0, 53, 39
1, 74880, Tempo, 1029513
1, 74880, Note_on_c, 0, 53, 0
1, 74880, Note_on_c, 0, 61, 0
1, 74880, Note_on_c, 0, 57, 0
1, 74880, Note_on_c, 0, 57, 42
1, 75120, Note_on_c, 0, 57, 0
1, 75120, Note_on_c, 0, 61, 36
1, 75600, Tempo, 985545
1, 75600, Note_on_c, 0, 61, 0
1, 75600, Note_on_c, 0, 65, 0
1, 75600, Note_on_c, 0, 57, 46
1, 75600, Note_on_c, 0, 60, 46
1, 75600, Note_on_c, 0, 69, 56
1, 75600, Note_on_c, 0, 41, 44
1, 75601, Control_c, 0, 64, 0
1, 75720, Tempo, 1029513
1, 75720, Note_on_c, 0, 69, 0
1, 75720, Note_on_c, 0, 67, 52
1, 75720, Control_c, 0, 64, 127
1, 75840, Tempo, 1002506
1, 75840, Note_on_c, 0, 67, 0
1, 75840, Note_on_c, 0, 41, 0
1, 75840, Note_on_c, 0, 65, 51
1, 75840, Note_on_c, 0, 48, 39
1, 76080, Tempo, 1020408
1, 76080, Note_on_c, 0, 48, 0
1, 76080, Note_on_c, 0, 53, 39
1, 76320, Tempo, 1029513
1, 76320, Note_on_c, 0, 53, 0
1, 76320, Note_on_c, 0, 60, 0
1, 76320, Note_on_c, 0, 57, 0
1, 76320, Note_on_c, 0, 57, 42
1, 76560, Note_on_c, 0, 57, 0
1, 76560, Note_on_c, 0, 60, 36
1, 77040, Tempo, 960769
1, 77040, Note_on_c, 0, 60, 0
1, 77040, Note_on_c, 0, 65, 0
1, 77040, Note_on_c, 0, 57, 42
1, 77040, Note_on_c, 0, 61, 42
1, 77040, Note_on_c, 0, 69, 51
1, 77040, Note_on_c, 0, 41, 40
1, 77053, Control_c, 0, 64, 0
1, 77160, Tempo, 1011463
1, 77160, Note_on_c, 0, 69, 0
1, 77160, Note_on_c, 0, 67, 48
1, 77160, Control_c, 0, 64, 127
1, 77280, Tempo, 994036
1, 77280, Note_on_c, 0, 67, 0
1, 77280, Note_on_c, 0, 41, 0
1, 77280, Note_on_c, 0, 65, 47
1, 77280, Note_on_c, 0, 49, 36
1, 77520, Tempo, 1029513
1, 77520, Note_on_c, 0, 49, 0
1, 77520, Note_on_c, 0, 53, 36
1, 77760, Tempo, 1029513
1, 77760, Note_on_c, 0, 53, 0
1, 77760, Note_on_c, 0, 61, 0
1, 77760, Note_on_c, 0, 57, 0
1, 77760, Note_on_c, 0, 57, 39
1, 78000, Note_on_c, 0, 57, 0
1, 78000, Note_on_c, 0, 61, 33
1, 78480, Tempo, 985545
1, 78480, Note_on_c, 0, 61, 0
1, 78480, Note_on_c, 0, 65, 0
1, 78480, Note_on_c, 0, 57, 42
1, 78480, Note_on_c, 0, 60, 42
1, 78480, Note_on_c, 0, 69, 51
1, 78480, Note_on_c, 0, 41, 40
1, 78494, Control_c, 0, 64, 0
1, 78600, Tempo, 1029513
1, 78600, Note_on_c, 0, 69, 0
1, 78600, Note_on_c, 0, 67, 48
1, 78636, Control_c, 0, 64, 127
1, 78720, Tempo, 994036
1, 78720, Note_on_c, 0, 67, 0
1, 78720, Note_on_c, 0, 41, 0
1, 78720, Note_on_c, 0, 65, 47
1, 78720, Note_on_c, 0, 48, 36
1, 78960, Tempo, 1020408
1, 78960, Note_on_c, 0, 48, 0
1, 78960, Note_on_c, 0, 53, 36
1, 79200, Tempo, 1029513
1, 79200, Note_on_c, 0, 53, 0
1, 79200, Note_on_c, 0, 60, 0
1, 79200, Note_on_c, 0, 57, 0
1, 79200, Note_on_c, 0, 57, 39
1, 79440, Note_on_c, 0, 57, 0
1, 79440, Note_on_c, 0, 60, 33
1, 79920, Tempo, 1020408
1, 79920, Note_on_c, 0, 60, 0
1, 79920, Note_on_c, 0, 65, 0
1, 79920, Note_on_c, 0, 61, 56
1, 79920, Note_on_c, 0, 65, 56
1, 79920, Note_on_c, 0, 49, 44
1, 79920, Note_on_c, 0, 53, 44
1, 79920, Note_on_c, 0, 56, 44
1, 79932, Control_c, 0, 64, 0
1, 79989, Control_c, 0, 64, 127
1, 80040, Tempo, 1057828
1, 80040, Note_on_c, 0, 65, 0
1, 80040, Note_on_c, 0, 61, 0
1, 80040, Note_on_c, 0, 63, 52
1, 80160, Note_on_c, 0, 63, 0
1, 80160, Note_on_c, 0, 61, 51
1, 80640, Tempo, 1020408
1, 80640, Note_on_c, 0, 61, 0
1, 80640, Note_on_c, 0, 53, 0
1, 80640, Note_on_c, 0, 49, 0
1, 80640, Note_on_c, 0, 56, 0
1, 80640, Note_on_c, 0, 61, 51
1, 80640, Note_on_c, 0, 65, 51
1, 80640, Note_on_c, 0, 46, 40
1, 80640, Note_on_c, 0, 53, 40
1, 80640, Note_on_c, 0, 55, 40
1, 80654, Control_c, 0, 64, 0
1, 80714, Control_c, 0, 64, 127
1, 80760, Tempo, 1067616
1, 80760, Note_on_c, 0, 65, 0
1, 80760, Note_on_c, 0, 61, 0
1, 80760, Note_on_c, 0, 63, 48
1, 80880, Note_on_c, 0, 63, 0
1, 80880, Note_on_c, 0, 61, 47
1, 81360, Tempo, 1029513
1, 81360, Note_on_c, 0, 61, 0
1, 81360, Note_on_c, 0, 53, 0
1, 81360, Note_on_c, 0, 46, 0
1, 81360, Note_on_c, 0, 55, 0
1, 81360, Control_c, 0, 64, 0
1, 81360, Note_on_c, 0, 36, 44
1, 81493, Control_c, 0, 64, 127
1, 81600, Tempo, 1002506
1, 81600, Note_on_c, 0, 36, 0
1, 81600, Note_on_c, 0, 43, 48
1, 81840, Note_on_c, 0, 55, 41
1, 81840, Note_on_c, 0, 60, 41
1, 81840, Note_on_c, 0, 64, 41
1, 81840, Note_on_c, 0, 67, 52
1, 82080, Note_on_c, 0, 43, 0
1, 82200, Tempo, 945180
1, 82200, Note_on_c, 0, 46, 45
1, 82320, Tempo, 915053
1, 82320, Note_on_c, 0, 46, 0
1, 82320, Note_on_c, 0, 67, 0
1, 82320, Note_on_c, 0, 55, 0
1, 82320, Note_on_c, 0, 60, 0
1, 82320, Note_on_c, 0, 64, 0
1, 82320, Note_on_c, 0, 55, 33
1, 82320, Note_on_c, 0, 61, 33
1, 82320, Note_on_c, 0, 65, 33
1, 82320, Note_on_c, 0, 67, 42
1, 82320, Note_on_c, 0, 44, 48
1, 82335, Control_c, 0, 64, 0
1, 82406, Control_c, 0, 64, 127
1, 82440, Tempo, 960769
1, 82440, Note_on_c, 0, 44, 0
1, 82440, Note_on_c, 0, 43, 44
1, 82560, Tempo, 922367
1, 82560, Note_on_c, 0, 43, 0
1, 82560, Note_on_c, 0, 44, 49
1, 82680, Tempo, 1020408
1, 82680, Note_on_c, 0, 44, 0
1, 82680, Note_on_c, 0, 46, 44
1, 82800, Tempo, 1029513
1, 82800, Note_on_c, 0, 46, 0
1, 82800, Note_on_c, 0, 67, 0
1, 82800, Note_on_c, 0, 55, 0
1, 82800, Note_on_c, 0, 61, 0
1, 82800, Note_on_c, 0, 65, 0
1, 82800, Note_on_c, 0, 36, 44
1, 82809, Control_c, 0, 64, 0
1, 82987, Control_c, 0, 64, 127
1, 83040, Tempo, 1002506
1, 83040, Note_on_c, 0, 36, 0
1, 83040, Note_on_c, 0, 43, 48
1, 83280, Tempo, 968836
1, 83280, Note_on_c, 0, 55, 41
1, 83280, Note_on_c, 0, 60, 41
1, 83280, Note_on_c, 0, 64, 41
1, 83280, Note_on_c, 0, 67, 52
1, 83520, Note_on_c, 0, 43, 0
1, 83640, Tempo, 929800
1, 83640, Note_on_c, 0, 46, 45
1, 83760, Tempo, 900901
1, 83760, Note_on_c, 0, 46, 0
1, 83760, Note_on_c, 0, 67, 0
1, 83760, Note_on_c, 0, 55, 0
1, 83760, Note_on_c, 0, 60, 0
1, 83760, Note_on_c, 0, 64, 0
1, 83760, Note_on_c, 0, 55, 33
1, 83760, Note_on_c, 0, 61, 33
1, 83760, Note_on_c, 0, 65, 33
1, 83760, Note_on_c, 0, 67, 42
1, 83760, Note_on_c, 0, 44, 48
1, 83772, Control_c, 0, 64, 0
1, 83857, Control_c, 0, 64, 127
1, 83880, Tempo, 937500
1, 83880, Note_on_c, 0, 44, 0
1, 83880, Note_on_c, 0, 43, 44
1, 84000, Tempo, 915053
1, 84000, Note_on_c, 0, 43, 0
1, 84000, Note_on_c, 0, 44, 49
1, 84120, Tempo, 1020408
1, 84120, Note_on_c, 0, 44, 0
1, 84120, Note_on_c, 0, 46, 44
1, 84240, Tempo, 985545
1, 84240, Note_on_c, 0, 46, 0
1, 84240, Note_on_c, 0, 67, 0
1, 84240, Note_on_c, 0, 55, 0
1, 84240, Note_on_c, 0, 61, 0
1, 84240, Note_on_c, 0, 65, 0
1, 84240, Control_c, 0, 64, 0
1, 84240, Note_on_c, 0, 36, 44
1, 84326, Control_c, 0, 64, 127
1, 84474, Control_c, 0, 64, 0
1, 84480, Tempo, 922367
1, 84480, Note_on_c, 0, 36, 0
1, 84480, Note_on_c, 0, 53, 40
1, 84480, Note_on_c, 0, 49, 55
1, 84520, Control_c, 0, 64, 127
1, 84600, Note_on_c, 0, 53, 0
1, 84600, Note_on_c, 0, 55, 37
1, 84720, Note_on_c, 0, 55, 0
1, 84720, Note_on_c, 0, 49, 0
1, 84720, Note_on_c, 0, 58, 43
1, 84720, Note_on_c, 0, 46, 48
1, 84840, Tempo, 952835
1, 84840, Note_on_c, 0, 58, 0
1, 84840, Note_on_c, 0, 61, 40
1, 84960, Tempo, 945180
1, 84960, Note_on_c, 0, 61, 0
1, 84960, Note_on_c, 0, 46, 0
1, 84960, Note_on_c, 0, 55, 43
1, 84960, Note_on_c, 0, 52, 43
1, 84960, Note_on_c, 0, 48, 44
1, 84977, Control_c, 0, 64, 0
1, 85046, Control_c, 0, 64, 127
1, 85080, Note_on_c, 0, 52, 0
1, 85080, Note_on_c, 0, 55, 0
1, 85080, Note_on_c, 0, 60, 39
1, 85200, Tempo, 915053
1, 85200, Note_on_c, 0, 60, 0
1, 85200, Note_on_c, 0, 48, 0
1, 85200, Note_on_c, 0, 65, 49
1, 85200, Note_on_c, 0, 61, 56
1, 85213, Control_c, 0, 64, 0
1, 85286, Control_c, 0, 64, 127
1, 85320, Note_on_c, 0, 65, 0
1, 85320, Note_on_c, 0, 67, 46
1, 85440, Note_on_c, 0, 67, 0
1, 85440, Note_on_c, 0, 61, 0
1, 85440, Note_on_c, 0, 70, 50
1, 85440, Note_on_c, 0, 58, 50
1, 85560, Tempo, 952835
1, 85560, Note_on_c, 0, 70, 0
1, 85560, Note_on_c, 0, 73, 48
1, 85680, Tempo, 922367
1, 85680, Note_on_c, 0, 73, 0
1, 85680, Note_on_c, 0, 58, 0
1, 85680, Note_on_c, 0, 67, 52
1, 85680, Note_on_c, 0, 64, 52
1, 85680, Note_on_c, 0, 60, 48
1, 85694, Control_c, 0, 64, 0
1, 85755, Control_c, 0, 64, 127
1, 85800, Note_on_c, 0, 64, 0
1, 85800, Note_on_c, 0, 67, 0
1, 85800, Note_on_c, 0, 72, 48
1, 85920, Tempo, 907990
1, 85920, Note_on_c, 0, 72, 0
1, 85920, Note_on_c, 0, 60, 0
1, 85920, Note_on_c, 0, 77, 53
1, 85920, Note_on_c, 0, 73, 61
1, 85936, Control_c, 0, 64, 0
1, 86012, Control_c, 0, 64, 127
1, 86040, Note_on_c, 0, 77, 0
1, 86040, Note_on_c, 0, 79, 50
1, 86160, Note_on_c, 0, 79, 0
1, 86160, Note_on_c, 0, 73, 0
1, 86160, Note_on_c, 0, 82, 56
1, 86160, Note_on_c, 0, 70, 56
1, 86280, Tempo, 985545
1, 86280, Note_on_c, 0, 82, 0
1, 86280, Note_on_c, 0, 85, 52
1, 86400, Tempo, 915053
1, 86400, Note_on_c, 0, 85, 0
1, 86400, Note_on_c, 0, 70, 0
1, 86400, Note_on_c, 0, 84, 55
1, 86400, Note_on_c, 0, 76, 55
1, 86400, Note_on_c, 0, 72, 41
1, 86410, Control_c, 0, 64, 0
1, 86481, Control_c, 0, 64, 127
1, 86520, Tempo, 952835
1, 86520, Note_on_c, 0, 76, 0
1, 86520, Note_on_c, 0, 84, 0
1, 86520, Note_on_c, 0, 79, 50
1, 86640, Tempo, 937500
1, 86640, Note_on_c, 0, 79, 0
1, 86640, Note_on_c, 0, 74, 52
1, 86640, Note_on_c, 0, 82, 52
1, 86658, Control_c, 0, 64, 0
1, 86711, Control_c, 0, 64, 127
1, 86760, Tempo, 977199
1, 86760, Note_on_c, 0, 82, 0
1, 86760, Note_on_c, 0, 74, 0
1, 86760, Note_on_c, 0, 76, 42
1, 86880, Tempo, 952835
1, 86880, Note_on_c, 0, 76, 0
1, 86880, Note_on_c, 0, 72, 0
1, 86880, Note_on_c, 0, 70, 48
1, 86880, Note_on_c, 0, 81, 48
1, 86880, Note_on_c, 0, 60, 41
1, 86890, Control_c, 0, 64, 0
1, 86908, Control_c, 0, 64, 127
1, 87000, Tempo, 1389210
1, 87000, Note_on_c, 0, 81, 0
1, 87000, Note_on_c, 0, 70, 0
1, 87000, Note_on_c, 0, 72, 37
1, 87030, Tempo, 1354402
1, 87030, Note_on_c, 0, 41, 30
1, 87060, Note_on_c, 0, 72, 26
1, 87060, Control_c, 0, 64, 0
1, 87060, Note_on_c, 0, 48, 33
1, 87080, Note_on_c, 0, 77, 26
1, 87090, Note_on_c, 0, 57, 35
1, 87100, Note_on_c, 0, 81, 26
1, 87120, Tempo, 888231
1, 87120, Note_on_c, 0, 72, 0
1, 87120, Note_on_c, 0, 60, 0
1, 87120, Note_on_c, 0, 84, 31
1, 87120, Control_c, 0, 64, 127
1, 87120, Note_on_c, 0, 65, 45
1, 87360, Tempo, 912131
1, 87360, Note_on_c, 0, 84, 0
1, 87360, Note_on_c, 0, 81, 0
1, 87360, Note_on_c, 0, 77, 0
1, 87360, Note_on_c, 0, 72, 0
1, 87360, Note_on_c, 0, 84, 29
1, 87360, Note_on_c, 0, 81, 24
1, 87360, Note_on_c, 0, 77, 24
1, 87360, Note_on_c, 0, 72, 24
1, 87600, Note_on_c, 0, 72, 0
1, 87600, Note_on_c, 0, 77, 0
1, 87600, Note_on_c, 0, 84, 0
1, 87600, Note_on_c, 0, 81, 0
1, 87600, Note_on_c, 0, 84, 29
1, 87600, Note_on_c, 0, 81, 24
1, 87600, Note_on_c, 0, 77, 24
1, 87600, Note_on_c, 0, 72, 24
1, 87780, Note_on_c, 0, 72, 0
1, 87780, Note_on_c, 0, 77, 0
1, 87780, Note_on_c, 0, 84, 0
1, 87780, Note_on_c, 0, 81, 0
1, 87780, Note_on_c, 0, 72, 26
1, 87798, Control_c, 0, 64, 0
1, 87800, Note_on_c, 0, 77, 26
1, 87820, Note_on_c, 0, 81, 26
1, 87840, Tempo, 874508
1, 87840, Note_on_c, 0, 65, 0
1, 87840, Note_on_c, 0, 48, 0
1, 87840, Note_on_c, 0, 57, 0
1, 87840, Note_on_c, 0, 41, 0
1, 87840, Note_on_c, 0, 84, 31
1, 87854, Control_c, 0, 64, 127
1, 87960, Tempo, 915053
1, 87960, Note_on_c, 0, 64, 39
1, 88080, Tempo, 907990
1, 88080, Note_on_c, 0, 64, 0
1, 88080, Note_on_c, 0, 81, 0
1, 88080, Note_on_c, 0, 77, 0
1, 88080, Note_on_c, 0, 72, 0
1, 88080, Note_on_c, 0, 84, 0
1, 88080, Note_on_c, 0, 84, 29
1, 88080, Note_on_c, 0, 81, 24
1, 88080, Note_on_c, 0, 77, 24
1, 88080, Note_on_c, 0, 72, 24
1, 88080, Note_on_c, 0, 62, 44
1, 88200, Tempo, 937500
1, 88200, Note_on_c, 0, 62, 0
1, 88200, Note_on_c, 0, 60, 39
1, 88320, Tempo, 866927
1, 88320, Note_on_c, 0, 60, 0
1, 88320, Note_on_c, 0, 72, 0
1, 88320, Note_on_c, 0, 84, 0
1, 88320, Note_on_c, 0, 81, 0
1, 88320, Note_on_c, 0, 77, 0
1, 88320, Note_on_c, 0, 84, 29
1, 88320, Note_on_c, 0, 81, 24
1, 88320, Note_on_c, 0, 77, 24
1, 88320, Note_on_c, 0, 72, 24
1, 88320, Note_on_c, 0, 62, 44
1, 88331, Control_c, 0, 64, 0
1, 88359, Control_c, 0, 64, 127
1, 88440, Tempo, 940586
1, 88440, Note_on_c, 0, 62, 0
1, 88440, Note_on_c, 0, 64, 39
1, 88500, Note_on_c, 0, 77, 0
1, 88500, Note_on_c, 0, 72, 0
1, 88500, Note_on_c, 0, 84, 0
1, 88500, Note_on_c, 0, 81, 0
1, 88500, Note_on_c, 0, 72, 26
1, 88517, Control_c, 0, 64, 0
1, 88520, Note_on_c, 0, 77, 26
1, 88540, Note_on_c, 0, 81, 26
1, 88560, Tempo, 867930
1, 88560, Note_on_c, 0, 64, 0
1, 88560, Note_on_c, 0, 84, 31
1, 88560, Control_c, 0, 64, 127
1, 88560, Note_on_c, 0, 62, 39
1, 88560, Note_on_c, 0, 53, 35
1, 88640, Note_on_c, 0, 62, 0
1, 88640, Note_on_c, 0, 64, 37
1, 88720, Note_on_c, 0, 64, 0
1, 88720, Note_on_c, 0, 62, 37
1, 88800, Tempo, 912131
1, 88800, Note_on_c, 0, 62, 0
1, 88800, Note_on_c, 0, 84, 0
1, 88800, Note_on_c, 0, 72, 0
1, 88800, Note_on_c, 0, 81, 0
1, 88800, Note_on_c, 0, 77, 0
1, 88800, Note_on_c, 0, 84, 29
1, 88800, Note_on_c, 0, 81, 24
1, 88800, Note_on_c, 0, 77, 24
1, 88800, Note_on_c, 0, 72, 24
1, 88800, Note_on_c, 0, 60, 40
1, 88819, Control_c, 0, 64, 0
1, 88906, Control_c, 0, 64, 127
1, 89040, Tempo, 924357
1, 89040, Note_on_c, 0, 72, 0
1, 89040, Note_on_c, 0, 77, 0
1, 89040, Note_on_c, 0, 81, 0
1, 89040, Note_on_c, 0, 84, 0
1, 89040, Note_on_c, 0, 84, 29
1, 89040, Note_on_c, 0, 81, 24
1, 89040, Note_on_c, 0, 77, 24
1, 89040, Note_on_c, 0, 72, 24
1, 89220, Note_on_c, 0, 72, 0
1, 89220, Note_on_c, 0, 81, 0
1, 89220, Note_on_c, 0, 84, 0
1, 89220, Note_on_c, 0, 77, 0
1, 89220, Note_on_c, 0, 72, 26
1, 89240, Note_on_c, 0, 77, 26
1, 89260, Note_on_c, 0, 81, 26
1, 89280, Tempo, 900225
1, 89280, Note_on_c, 0, 53, 0
1, 89280, Note_on_c, 0, 84, 31
1, 89520, Note_on_c, 0, 84, 0
1, 89520, Note_on_c, 0, 81, 0
1, 89520, Note_on_c, 0, 77, 0
1, 89520, Note_on_c, 0, 72, 0
1, 89520, Note_on_c, 0, 84, 29
1, 89520, Note_on_c, 0, 81, 24
1, 89520, Note_on_c, 0, 77, 24
1, 89520, Note_on_c, 0, 72, 24
1, 89760, Tempo, 912131
1, 89760, Note_on_c, 0, 72, 0
1, 89760, Note_on_c, 0, 81, 0
1, 89760, Note_on_c, 0, 77, 0
1, 89760, Note_on_c, 0, 84, 0
1, 89760, Note_on_c, 0, 84, 29
1, 89760, Note_on_c, 0, 81, 24
1, 89760, Note_on_c, 0, 77, 24
1, 89760, Note_on_c, 0, 72, 24
1, 89880, Tempo, 1354402
1, 89910, Note_on_c, 0, 60, 0
1, 89910, Note_on_c, 0, 41, 29
1, 89940, Note_on_c, 0, 77, 0
1, 89940, Note_on_c, 0, 72, 0
1, 89940, Note_on_c, 0, 84, 0
1, 89940, Note_on_c, 0, 81, 0
1, 89940, Note_on_c, 0, 72, 26
1, 89940, Note_on_c, 0, 48, 33
1, 89951, Control_c, 0, 64, 0
1, 89960, Note_on_c, 0, 77, 26
1, 89970, Note_on_c, 0, 57, 35
1, 89980, Note_on_c, 0, 81, 26
1, 90000, Tempo, 888231
1, 90000, Note_on_c, 0, 84, 31
1, 90000, Note_on_c, 0, 65, 45
1, 90032, Control_c, 0, 64, 127
1, 90240, Tempo, 912131
1, 90240, Note_on_c, 0, 84, 0
1, 90240, Note_on_c, 0, 72, 0
1, 90240, Note_on_c, 0, 77, 0
1, 90240, Note_on_c, 0, 81, 0
1, 90240, Note_on_c, 0, 84, 29
1, 90240, Note_on_c, 0, 81, 24
1, 90240, Note_on_c, 0, 77, 24
1, 90240, Note_on_c, 0, 72, 24
1, 90480, Note_on_c, 0, 72, 0
1, 90480, Note_on_c, 0, 77, 0
1, 90480, Note_on_c, 0, 84, 0
1, 90480, Note_on_c, 0, 81, 0
1, 90480, Note_on_c, 0, 84, 29
1, 90480, Note_on_c, 0, 81, 24
1, 90480, Note_on_c, 0, 77, 24
1, 90480, Note_on_c, 0, 72, 24
1, 90660, Note_on_c, 0, 72, 0
1, 90660, Note_on_c, 0, 77, 0
1, 90660, Note_on_c, 0, 84, 0
1, 90660, Note_on_c, 0, 81, 0
1, 90660, Note_on_c, 0, 72, 26
1, 90671, Control_c, 0, 64, 0
1, 90680, Note_on_c, 0, 77, 26
1, 90700, Note_on_c, 0, 81, 26
1, 90720, Tempo, 880153
1, 90720, Note_on_c, 0, 65, 0
1, 90720, Note_on_c, 0, 57, 0
1, 90720, Note_on_c, 0, 41, 0
1, 90720, Note_on_c, 0, 48, 0
1, 90720, Note_on_c, 0, 84, 31
1, 90720, Control_c, 0, 64, 127
1, 90840, Tempo, 915332
1, 90840, Note_on_c, 0, 64, 39
1, 90960, Tempo, 866927
1, 90960, Note_on_c, 0, 64, 0
1, 90960, Note_on_c, 0, 81, 0
1, 90960, Note_on_c, 0, 77, 0
1, 90960, Note_on_c, 0, 72, 0
1, 90960, Note_on_c, 0, 84, 0
1, 90960, Note_on_c, 0, 84, 29
1, 90960, Note_on_c, 0, 81, 24
1, 90960, Note_on_c, 0, 77, 24
1, 90960, Note_on_c, 0, 72, 24
1, 90960, Note_on_c, 0, 62, 44
1, 91080, Tempo, 915332
1, 91080, Note_on_c, 0, 62, 0
1, 91080, Note_on_c, 0, 60, 39
1, 91200, Tempo, 915053
1, 91200, Note_on_c, 0, 60, 0
1, 91200, Note_on_c, 0, 72, 0
1, 91200, Note_on_c, 0, 84, 0
1, 91200, Note_on_c, 0, 81, 0
1, 91200, Note_on_c, 0, 77, 0
1, 91200, Note_on_c, 0, 84, 29
1, 91200, Note_on_c, 0, 81, 24
1, 91200, Note_on_c, 0, 77, 24
1, 91200, Note_on_c, 0, 72, 24
1, 91200, Note_on_c, 0, 62, 44
1, 91214, Control_c, 0, 64, 0
1, 91257, Control_c, 0, 64, 127
1, 91320, Tempo, 880928
1, 91320, Note_on_c, 0, 62, 0
1, 91320, Note_on_c, 0, 64, 39
1, 91380, Note_on_c, 0, 77, 0
1, 91380, Note_on_c, 0, 72, 0
1, 91380, Note_on_c, 0, 84, 0
1, 91380, Note_on_c, 0, 81, 0
1, 91380, Note_on_c, 0, 72, 26
1, 91396, Control_c, 0, 64, 0
1, 91400, Note_on_c, 0, 77, 26
1, 91420, Note_on_c, 0, 81, 26
1, 91440, Tempo, 861574
1, 91440, Note_on_c, 0, 64, 0
1, 91440, Note_on_c, 0, 84, 31
1, 91440, Control_c, 0, 64, 127
1, 91440, Note_on_c, 0, 62, 42
1, 91440, Note_on_c, 0, 53, 36
1, 91520, Note_on_c, 0, 62, 0
1, 91520, Note_on_c, 0, 64, 37
1, 91600, Note_on_c, 0, 64, 0
1, 91600, Note_on_c, 0, 62, 37
1, 91680, Tempo, 912131
1, 91680, Note_on_c, 0, 62, 0
1, 91680, Note_on_c, 0, 84, 0
1, 91680, Note_on_c, 0, 72, 0
1, 91680, Note_on_c, 0, 81, 0
1, 91680, Note_on_c, 0, 77, 0
1, 91680, Note_on_c, 0, 84, 29
1, 91680, Note_on_c, 0, 81, 24
1, 91680, Note_on_c, 0, 77, 24
1, 91680, Note_on_c, 0, 72, 24
1, 91680, Note_on_c, 0, 60, 40
1, 91699, Control_c, 0, 64, 0
1, 91765, Control_c, 0, 64, 127
1, 91920, Tempo, 924357
1, 91920, Note_on_c, 0, 72, 0
1, 91920, Note_on_c, 0, 77, 0
1, 91920, Note_on_c, 0, 81, 0
1, 91920, Note_on_c, 0, 84, 0
1, 91920, Note_on_c, 0, 84, 29
1, 91920, Note_on_c, 0, 81, 24
1, 91920, Note_on_c, 0, 77, 24
1, 91920, Note_on_c, 0, 72, 24
1, 92100, Note_on_c, 0, 72, 0
1, 92100, Note_on_c, 0, 81, 0
1, 92100, Note_on_c, 0, 84, 0
1, 92100, Note_on_c, 0, 77, 0
1, 92100, Note_on_c, 0, 72, 26
1, 92120, Note_on_c, 0, 77, 26
1, 92140, Note_on_c, 0, 81, 26
1, 92160, Tempo, 900225
1, 92160, Note_on_c, 0, 53, 0
1, 92160, Note_on_c, 0, 84, 31
1, 92400, Note_on_c, 0, 84, 0
1, 92400, Note_on_c, 0, 81, 0
1, 92400, Note_on_c, 0, 77, 0
1, 92400, Note_on_c, 0, 72, 0
1, 92400, Note_on_c, 0, 84, 29
1, 92400, Note_on_c, 0, 81, 24
1, 92400, Note_on_c, 0, 77, 24
1, 92400, Note_on_c, 0, 72, 24
1, 92640, Tempo, 943396
1, 92640, Note_on_c, 0, 72, 0
1, 92640, Note_on_c, 0, 81, 0
1, 92640, Note_on_c, 0, 77, 0
1, 92640, Note_on_c, 0, 84, 0
1, 92640, Note_on_c, 0, 84, 29
1, 92640, Note_on_c, 0, 81, 24
1, 92640, Note_on_c, 0, 77, 24
1, 92640, Note_on_c, 0, 72, 24
1, 92760, Tempo, 1005868
1, 92790, Note_on_c, 0, 60, 0
1, 92820, Note_on_c, 0, 77, 0
1, 92820, Note_on_c, 0, 84, 0
1, 92820, Note_on_c, 0, 81, 0
1, 92820, Note_on_c, 0, 72, 0
1, 92820, Note_on_c, 0, 76, 26
1, 92820, Note_on_c, 0, 72, 26
1, 92820, Note_on_c, 0, 41, 36
1, 92830, Control_c, 0, 64, 0
1, 92850, Note_on_c, 0, 48, 36
1, 92880, Tempo, 930665
1, 92880, Note_on_c, 0, 82, 26
1, 92880, Note_on_c, 0, 84, 31
1, 92880, Control_c, 0, 64, 127
1, 92880, Note_on_c, 0, 55, 41
1, 93000, Note_on_c, 0, 55, 0
1, 93000, Note_on_c, 0, 57, 46
1, 93100, Note_on_c, 0, 76, 0
1, 93120, Note_on_c, 0, 84, 0
1, 93120, Note_on_c, 0, 41, 0
1, 93120, Note_on_c, 0, 48, 0
1, 93120, Note_on_c, 0, 72, 0
1, 93120, Note_on_c, 0, 57, 0
1, 93120, Note_on_c, 0, 84, 29
1, 93120, Note_on_c, 0, 82, 24
1, 93120, Note_on_c, 0, 76, 24
1, 93120, Note_on_c, 0, 72, 24
1, 93120, Note_on_c, 0, 58, 48
1, 93140, Note_on_c, 0, 82, 0
1, 93240, Tempo, 991408
1, 93360, Tempo, 912131
1, 93360, Note_on_c, 0, 82, 0
1, 93360, Note_on_c, 0, 76, 0
1, 93360, Note_on_c, 0, 84, 0
1, 93360, Note_on_c, 0, 58, 0
1, 93360, Note_on_c, 0, 72, 0
1, 93360, Note_on_c, 0, 84, 29
1, 93360, Note_on_c, 0, 82, 24
1, 93360, Note_on_c, 0, 76, 24
1, 93360, Note_on_c, 0, 72, 24
1, 93360, Note_on_c, 0, 58, 46
1, 93480, Note_on_c, 0, 58, 0
1, 93480, Note_on_c, 0, 60, 48
1, 93540, Note_on_c, 0, 76, 0
1, 93540, Note_on_c, 0, 72, 0
1, 93540, Note_on_c, 0, 84, 0
1, 93540, Note_on_c, 0, 82, 0
1, 93540, Note_on_c, 0, 76, 26
1, 93540, Note_on_c, 0, 72, 26
1, 93547, Control_c, 0, 64, 0
1, 93600, Tempo, 912131
1, 93600, Note_on_c, 0, 60, 0
1, 93600, Note_on_c, 0, 82, 26
1, 93600, Note_on_c, 0, 84, 31
1, 93600, Control_c, 0, 64, 127
1, 93600, Note_on_c, 0, 62, 51
1, 93820, Note_on_c, 0, 76, 0
1, 93840, Tempo, 925783
1, 93840, Note_on_c, 0, 84, 0
1, 93840, Note_on_c, 0, 72, 0
1, 93840, Note_on_c, 0, 84, 29
1, 93840, Note_on_c, 0, 82, 24
1, 93840, Note_on_c, 0, 76, 24
1, 93840, Note_on_c, 0, 72, 24
1, 93860, Note_on_c, 0, 82, 0
1, 93960, Tempo, 886918
1, 93960, Note_on_c, 0, 62, 0
1, 93960, Note_on_c, 0, 64, 51
1, 94080, Tempo, 860462
1, 94080, Note_on_c, 0, 64, 0
1, 94080, Note_on_c, 0, 84, 0
1, 94080, Note_on_c, 0, 82, 0
1, 94080, Note_on_c, 0, 72, 0
1, 94080, Note_on_c, 0, 76, 0
1, 94080, Note_on_c, 0, 84, 29
1, 94080, Note_on_c, 0, 82, 24
1, 94080, Note_on_c, 0, 76, 24
1, 94080, Note_on_c, 0, 72, 24
1, 94080, Note_on_c, 0, 67, 56
1, 94200, Tempo, 922651
1, 94200, Note_on_c, 0, 67, 0
1, 94200, Note_on_c, 0, 64, 50
1, 94260, Note_on_c, 0, 76, 0
1, 94260, Note_on_c, 0, 72, 0
1, 94260, Note_on_c, 0, 84, 0
1, 94260, Note_on_c, 0, 82, 0
1, 94260, Note_on_c, 0, 76, 26
1, 94260, Note_on_c, 0, 72, 26
1, 94267, Control_c, 0, 64, 0
1, 94320, Tempo, 866927
1, 94320, Note_on_c, 0, 64, 0
1, 94320, Note_on_c, 0, 82, 26
1, 94320, Note_on_c, 0, 84, 31
1, 94320, Note_on_c, 0, 62, 51
1, 94331, Control_c, 0, 64, 127
1, 94400, Note_on_c, 0, 62, 0
1, 94400, Note_on_c, 0, 64, 48
1, 94480, Note_on_c, 0, 64, 0
1, 94480, Note_on_c, 0, 62, 44
1, 94540, Note_on_c, 0, 76, 0
1, 94560, Tempo, 912131
1, 94560, Note_on_c, 0, 84, 0
1, 94560, Note_on_c, 0, 72, 0
1, 94560, Note_on_c, 0, 62, 0
1, 94560, Note_on_c, 0, 84, 29
1, 94560, Note_on_c, 0, 82, 24
1, 94560, Note_on_c, 0, 76, 24
1, 94560, Note_on_c, 0, 72, 24
1, 94560, Note_on_c, 0, 60, 44
1, 94577, Control_c, 0, 64, 0
1, 94580, Note_on_c, 0, 82, 0
1, 94655, Control_c, 0, 64, 127
1, 94800, Note_on_c, 0, 72, 0
1, 94800, Note_on_c, 0, 76, 0
1, 94800, Note_on_c, 0, 84, 0
1, 94800, Note_on_c, 0, 82, 0
1, 94800, Note_on_c, 0, 84, 29
1, 94800, Note_on_c, 0, 82, 24
1, 94800, Note_on_c, 0, 76, 24
1, 94800, Note_on_c, 0, 72, 24
1, 94980, Note_on_c, 0, 72, 0
1, 94980, Note_on_c, 0, 82, 0
1, 94980, Note_on_c, 0, 76, 0
1, 94980, Note_on_c, 0, 84, 0
1, 94980, Note_on_c, 0, 76, 26
1, 94980, Note_on_c, 0, 72, 26
1, 95040, Tempo, 900225
1, 95040, Note_on_c, 0, 82, 26
1, 95040, Note_on_c, 0, 84, 31
1, 95260, Note_on_c, 0, 76, 0
1, 95280, Note_on_c, 0, 84, 0
1, 95280, Note_on_c, 0, 72, 0
1, 95280, Note_on_c, 0, 84, 29
1, 95280, Note_on_c, 0, 82, 24
1, 95280, Note_on_c, 0, 76, 24
1, 95280, Note_on_c, 0, 72, 24
1, 95300, Note_on_c, 0, 82, 0
1, 95520, Tempo, 956785
1, 95520, Note_on_c, 0, 84, 0
1, 95520, Note_on_c, 0, 82, 0
1, 95520, Note_on_c, 0, 76, 0
1, 95520, Note_on_c, 0, 72, 0
1, 95520, Note_on_c, 0, 84, 29
1, 95520, Note_on_c, 0, 82, 24
1, 95520, Note_on_c, 0, 76, 24
1, 95520, Note_on_c, 0, 72, 24
1, 95640, Tempo, 1005868
1, 95670, Note_on_c, 0, 60, 0
1, 95700, Note_on_c, 0, 76, 0
1, 95700, Note_on_c, 0, 84, 0
1, 95700, Note_on_c, 0, 82, 0
1, 95700, Note_on_c, 0, 72, 0
1, 95700, Note_on_c, 0, 76, 26
1, 95700, Note_on_c, 0, 72, 26
1, 95700, Note_on_c, 0, 41, 36
1, 95712, Control_c, 0, 64, 0
1, 95730, Note_on_c, 0, 48, 36
1, 95760, Tempo, 930665
1, 95760, Note_on_c, 0, 82, 26
1, 95760, Note_on_c, 0, 84, 31
1, 95760, Note_on_c, 0, 55, 41
1, 95764, Control_c, 0, 64, 127
1, 95880, Note_on_c, 0, 55, 0
1, 95880, Note_on_c, 0, 57, 46
1, 95980, Note_on_c, 0, 76, 0
1, 96000, Note_on_c, 0, 84, 0
1, 96000, Note_on_c, 0, 41, 0
1, 96000, Note_on_c, 0, 48, 0
1, 96000, Note_on_c, 0, 72, 0
1, 96000, Note_on_c, 0, 57, 0
1, 96000, Note_on_c, 0, 84, 29
1, 96000, Note_on_c, 0, 82, 24
1, 96000, Note_on_c, 0, 76, 24
1, 96000, Note_on_c, 0, 72, 24
1, 96000, Note_on_c, 0, 58, 48
1, 96020, Note_on_c, 0, 82, 0
1, 96120, Tempo, 950119
1, 96240, Tempo, 912131
1, 96240, Note_on_c, 0, 82, 0
1, 96240, Note_on_c, 0, 76, 0
1, 96240, Note_on_c, 0, 84, 0
1, 96240, Note_on_c, 0, 58, 0
1, 96240, Note_on_c, 0, 72, 0
1, 96240, Note_on_c, 0, 84, 31
1, 96240, Note_on_c, 0, 82, 25
1, 96240, Note_on_c, 0, 76, 25
1, 96240, Note_on_c, 0, 72, 25
1, 96240, Note_on_c, 0, 58, 46
1, 96360, Note_on_c, 0, 58, 0
1, 96360, Note_on_c, 0, 60, 48
1, 96420, Note_on_c, 0, 76, 0
1, 96420, Note_on_c, 0, 72, 0
1, 96420, Note_on_c, 0, 84, 0
1, 96420, Note_on_c, 0, 82, 0
1, 96420, Note_on_c, 0, 76, 28
1, 96420, Note_on_c, 0, 72, 28
1, 96480, Tempo, 901442
1, 96480, Note_on_c, 0, 60, 0
1, 96480, Note_on_c, 0, 82, 28
1, 96480, Note_on_c, 0, 84, 35
1, 96480, Control_c, 0, 64, 0
1, 96480, Note_on_c, 0, 62, 51
1, 96537, Control_c, 0, 64, 127
1, 96600, Tempo, 929944
1, 96700, Note_on_c, 0, 76, 0
1, 96720, Tempo, 894454
1, 96720, Note_on_c, 0, 84, 0
1, 96720, Note_on_c, 0, 72, 0
1, 96720, Note_on_c, 0, 62, 0
1, 96720, Note_on_c, 0, 84, 33
1, 96720, Note_on_c, 0, 82, 26
1, 96720, Note_on_c, 0, 76, 26
1, 96720, Note_on_c, 0, 72, 26
1, 96720, Note_on_c, 0, 64, 56
1, 96740, Note_on_c, 0, 82, 0
1, 96840, Tempo, 907990
1, 96840, Note_on_c, 0, 64, 0
1, 96840, Note_on_c, 0, 69, 49
1, 96960, Tempo, 922651
1, 96960, Note_on_c, 0, 69, 0
1, 96960, Note_on_c, 0, 72, 0
1, 96960, Note_on_c, 0, 84, 0
1, 96960, Note_on_c, 0, 82, 0
1, 96960, Note_on_c, 0, 76, 0
1, 96960, Note_on_c, 0, 84, 33
1, 96960, Note_on_c, 0, 82, 26
1, 96960, Note_on_c, 0, 76, 26
1, 96960, Note_on_c, 0, 72, 26
1, 96960, Note_on_c, 0, 67, 56
1, 97080, Tempo, 1019368
1, 97080, Note_on_c, 0, 67, 0
1, 97080, Note_on_c, 0, 64, 50
1, 97140, Note_on_c, 0, 76, 0
1, 97140, Note_on_c, 0, 72, 0
1, 97140, Note_on_c, 0, 84, 0
1, 97140, Note_on_c, 0, 82, 0
1, 97140, Note_on_c, 0, 76, 28
1, 97140, Note_on_c, 0, 72, 28
1, 97157, Control_c, 0, 64, 0
1, 97200, Tempo, 865301
1, 97200, Note_on_c, 0, 64, 0
1, 97200, Note_on_c, 0, 82, 26
1, 97200, Note_on_c, 0, 84, 31
1, 97200, Note_on_c, 0, 62, 51
1, 97232, Control_c, 0, 64, 127
1, 97280, Note_on_c, 0, 62, 0
1, 97280, Note_on_c, 0, 64, 48
1, 97360, Note_on_c, 0, 64, 0
1, 97360, Note_on_c, 0, 62, 44
1, 97420, Note_on_c, 0, 76, 0
1, 97440, Tempo, 912131
1, 97440, Note_on_c, 0, 84, 0
1, 97440, Note_on_c, 0, 72, 0
1, 97440, Note_on_c, 0, 62, 0
1, 97440, Note_on_c, 0, 84, 29
1, 97440, Note_on_c, 0, 82, 24
1, 97440, Note_on_c, 0, 76, 24
1, 97440, Note_on_c, 0, 72, 24
1, 97440, Note_on_c, 0, 60, 44
1, 97454, Control_c, 0, 64, 0
1, 97460, Note_on_c, 0, 82, 0
1, 97518, Control_c, 0, 64, 127
1, 97680, Note_on_c, 0, 72, 0
1, 97680, Note_on_c, 0, 76, 0
1, 97680, Note_on_c, 0, 84, 0
1, 97680, Note_on_c, 0, 82, 0
1, 97680, Note_on_c, 0, 84, 29
1, 97680, Note_on_c, 0, 82, 24
1, 97680, Note_on_c, 0, 76, 24
1, 97680, Note_on_c, 0, 72, 24
1, 97860, Note_on_c, 0, 72, 0
1, 97860, Note_on_c, 0, 82, 0
1, 97860, Note_on_c, 0, 76, 0
1, 97860, Note_on_c, 0, 84, 0
1, 97860, Note_on_c, 0, 76, 26
1, 97860, Note_on_c, 0, 72, 26
1, 97920, Tempo, 900225
1, 97920, Note_on_c, 0, 82, 26
1, 97920, Note_on_c, 0, 84, 31
1, 98140, Note_on_c, 0, 76, 0
1, 98160, Note_on_c, 0, 84, 0
1, 98160, Note_on_c, 0, 72, 0
1, 98160, Note_on_c, 0, 84, 33
1, 98160, Note_on_c, 0, 82, 26
1, 98160, Note_on_c, 0, 76, 26
1, 98160, Note_on_c, 0, 72, 26
1, 98180, Note_on_c, 0, 82, 0
1, 98400, Tempo, 947718
1, 98400, Note_on_c, 0, 84, 0
1, 98400, Note_on_c, 0, 82, 0
1, 98400, Note_on_c, 0, 76, 0
1, 98400, Note_on_c, 0, 72, 0
1, 98400, Note_on_c, 0, 84, 35
1, 98400, Note_on_c, 0, 82, 28
1, 98400, Note_on_c, 0, 76, 28
1, 98400, Note_on_c, 0, 72, 28
1, 98520, Tempo, 1332741
1, 98550, Note_on_c, 0, 60, 0
1, 98550, Note_on_c, 0, 41, 38
1, 98580, Note_on_c, 0, 76, 0
1, 98580, Note_on_c, 0, 72, 0
1, 98580, Note_on_c, 0, 84, 0
1, 98580, Note_on_c, 0, 82, 0
1, 98580, Note_on_c, 0, 72, 31
1, 98580, Note_on_c, 0, 48, 40
1, 98587, Control_c, 0, 64, 0
1, 98600, Note_on_c, 0, 77, 31
1, 98610, Note_on_c, 0, 57, 42
1, 98620, Note_on_c, 0, 81, 31
1, 98640, Tempo, 888231
1, 98640, Note_on_c, 0, 84, 39
1, 98640, Note_on_c, 0, 65, 55
1, 98665, Control_c, 0, 64, 127
1, 98880, Tempo, 912131
1, 98880, Note_on_c, 0, 84, 0
1, 98880, Note_on_c, 0, 72, 0
1, 98880, Note_on_c, 0, 77, 0
1, 98880, Note_on_c, 0, 81, 0
1, 98880, Note_on_c, 0, 84, 37
1, 98880, Note_on_c, 0, 81, 29
1, 98880, Note_on_c, 0, 77, 29
1, 98880, Note_on_c, 0, 72, 29
1, 99120, Note_on_c, 0, 72, 0
1, 99120, Note_on_c, 0, 77, 0
1, 99120, Note_on_c, 0, 84, 0
1, 99120, Note_on_c, 0, 81, 0
1, 99120, Note_on_c, 0, 84, 37
1, 99120, Note_on_c, 0, 81, 29
1, 99120, Note_on_c, 0, 77, 29
1, 99120, Note_on_c, 0, 72, 29
1, 99300, Note_on_c, 0, 72, 0
1, 99300, Note_on_c, 0, 77, 0
1, 99300, Note_on_c, 0, 84, 0
1, 99300, Note_on_c, 0, 81, 0
1, 99300, Note_on_c, 0, 72, 31
1, 99310, Control_c, 0, 64, 0
1, 99320, Note_on_c, 0, 77, 31
1, 99340, Note_on_c, 0, 81, 31
1, 99360, Tempo, 888231
1, 99360, Note_on_c, 0, 65, 0
1, 99360, Note_on_c, 0, 57, 0
1, 99360, Note_on_c, 0, 41, 0
1, 99360, Note_on_c, 0, 48, 0
1, 99360, Note_on_c, 0, 84, 39
1, 99413, Control_c, 0, 64, 127
1, 99480, Tempo, 915332
1, 99480, Note_on_c, 0, 64, 48
1, 99600, Tempo, 894454
1, 99600, Note_on_c, 0, 64, 0
1, 99600, Note_on_c, 0, 81, 0
1, 99600, Note_on_c, 0, 77, 0
1, 99600, Note_on_c, 0, 72, 0
1, 99600, Note_on_c, 0, 84, 0
1, 99600, Note_on_c, 0, 84, 37
1, 99600, Note_on_c, 0, 81, 29
1, 99600, Note_on_c, 0, 77, 29
1, 99600, Note_on_c, 0, 72, 29
1, 99600, Note_on_c, 0, 62, 53
1, 99720, Tempo, 915332
1, 99720, Note_on_c, 0, 62, 0
1, 99720, Note_on_c, 0, 60, 48
1, 99840, Note_on_c, 0, 60, 0
1, 99840, Note_on_c, 0, 72, 0
1, 99840, Note_on_c, 0, 84, 0
1, 99840, Note_on_c, 0, 81, 0
1, 99840, Note_on_c, 0, 77, 0
1, 99840, Note_on_c, 0, 84, 37
1, 99840, Note_on_c, 0, 81, 29
1, 99840, Note_on_c, 0, 77, 29
1, 99840, Note_on_c, 0, 72, 29
1, 99840, Note_on_c, 0, 62, 53
1, 99960, Tempo, 887574
1, 99960, Note_on_c, 0, 62, 0
1, 99960, Note_on_c, 0, 64, 48
1, 100020, Note_on_c, 0, 77, 0
1, 100020, Note_on_c, 0, 72, 0
1, 100020, Note_on_c, 0, 84, 0
1, 100020, Note_on_c, 0, 81, 0
1, 100020, Note_on_c, 0, 72, 31
1, 100040, Note_on_c, 0, 77, 31
1, 100060, Note_on_c, 0, 81, 31
1, 100080, Tempo, 874508
1, 100080, Note_on_c, 0, 64, 0
1, 100080, Note_on_c, 0, 84, 39
1, 100080, Note_on_c, 0, 62, 56
1, 100080, Note_on_c, 0, 53, 45
1, 100086, Control_c, 0, 64, 0
1, 100112, Control_c, 0, 64, 127
1, 100160, Note_on_c, 0, 62, 0
1, 100160, Note_on_c, 0, 64, 45
1, 100240, Note_on_c, 0, 64, 0
1, 100240, Note_on_c, 0, 62, 48
1, 100320, Tempo, 912131
1, 100320, Note_on_c, 0, 62, 0
1, 100320, Note_on_c, 0, 84, 0
1, 100320, Note_on_c, 0, 72, 0
1, 100320, Note_on_c, 0, 81, 0
1, 100320, Note_on_c, 0, 77, 0
1, 100320, Note_on_c, 0, 84, 37
1, 100320, Note_on_c, 0, 81, 29
1, 100320, Note_on_c, 0, 77, 29
1, 100320, Note_on_c, 0, 72, 29
1, 100320, Note_on_c, 0, 60, 48
1, 100334, Control_c, 0, 64, 0
1, 100426, Control_c, 0, 64, 127
1, 100560, Tempo, 924357
1, 100560, Note_on_c, 0, 72, 0
1, 100560, Note_on_c, 0, 77, 0
1, 100560, Note_on_c, 0, 81, 0
1, 100560, Note_on_c, 0, 84, 0
1, 100560, Note_on_c, 0, 84, 37
1, 100560, Note_on_c, 0, 81, 29
1, 100560, Note_on_c, 0, 77, 29
1, 100560, Note_on_c, 0, 72, 29
1, 100740, Note_on_c, 0, 72, 0
1, 100740, Note_on_c, 0, 81, 0
1, 100740, Note_on_c, 0, 84, 0
1, 100740, Note_on_c, 0, 77, 0
1, 100740, Note_on_c, 0, 72, 31
1, 100760, Note_on_c, 0, 77, 31
1, 100780, Note_on_c, 0, 81, 31
1, 100800, Tempo, 900225
1, 100800, Note_on_c, 0, 53, 0
1, 100800, Note_on_c, 0, 84, 42
1, 101040, Note_on_c, 0, 84, 0
1, 101040, Note_on_c, 0, 81, 0
1, 101040, Note_on_c, 0, 77, 0
1, 101040, Note_on_c, 0, 72, 0
1, 101040, Note_on_c, 0, 84, 36
1, 101040, Note_on_c, 0, 81, 28
1, 101040, Note_on_c, 0, 77, 28
1, 101040, Note_on_c, 0, 72, 28
1, 101280, Tempo, 940586
1, 101280, Note_on_c, 0, 72, 0
1, 101280, Note_on_c, 0, 81, 0
1, 101280, Note_on_c, 0, 77, 0
1, 101280, Note_on_c, 0, 84, 0
1, 101280, Note_on_c, 0, 84, 34
1, 101280, Note_on_c, 0, 81, 27
1, 101280, Note_on_c, 0, 77, 27
1, 101280, Note_on_c, 0, 72, 27
1, 101400, Tempo, 1290600
1, 101430, Note_on_c, 0, 60, 0
1, 101460, Note_on_c, 0, 77, 0
1, 101460, Note_on_c, 0, 84, 0
1, 101460, Note_on_c, 0, 81, 0
1, 101460, Note_on_c, 0, 72, 0
1, 101460, Note_on_c, 0, 72, 29
1, 101460, Note_on_c, 0, 51, 37
1, 101474, Control_c, 0, 64, 0
1, 101480, Note_on_c, 0, 75, 29
1, 101490, Note_on_c, 0, 60, 38
1, 101500, Note_on_c, 0, 80, 29
1, 101520, Tempo, 888231
1, 101520, Note_on_c, 0, 84, 36
1, 101520, Note_on_c, 0, 68, 49
1, 101563, Control_c, 0, 64, 127
1, 101760, Tempo, 912131
1, 101760, Note_on_c, 0, 84, 0
1, 101760, Note_on_c, 0, 75, 0
1, 101760, Note_on_c, 0, 72, 0
1, 101760, Note_on_c, 0, 80, 0
1, 101760, Note_on_c, 0, 84, 33
1, 101760, Note_on_c, 0, 80, 27
1, 101760, Note_on_c, 0, 75, 27
1, 101760, Note_on_c, 0, 72, 27
1, 102000, Note_on_c, 0, 72, 0
1, 102000, Note_on_c, 0, 80, 0
1, 102000, Note_on_c, 0, 84, 0
1, 102000, Note_on_c, 0, 75, 0
1, 102000, Note_on_c, 0, 84, 33
1, 102000, Note_on_c, 0, 80, 27
1, 102000, Note_on_c, 0, 75, 27
1, 102000, Note_on_c, 0, 72, 27
1, 102180, Note_on_c, 0, 72, 0
1, 102180, Note_on_c, 0, 80, 0
1, 102180, Note_on_c, 0, 84, 0
1, 102180, Note_on_c, 0, 75, 0
1, 102180, Note_on_c, 0, 72, 29
1, 102193, Control_c, 0, 64, 0
1, 102200, Note_on_c, 0, 75, 29
1, 102220, Note_on_c, 0, 80, 29
1, 102240, Tempo, 888231
1, 102240, Note_on_c, 0, 60, 0
1, 102240, Note_on_c, 0, 51, 0
1, 102240, Note_on_c, 0, 68, 0
1, 102240, Note_on_c, 0, 84, 36
1, 102240, Control_c, 0, 64, 127
1, 102360, Tempo, 893788
1, 102360, Note_on_c, 0, 67, 44
1, 102480, Tempo, 880153
1, 102480, Note_on_c, 0, 67, 0
1, 102480, Note_on_c, 0, 72, 0
1, 102480, Note_on_c, 0, 80, 0
1, 102480, Note_on_c, 0, 75, 0
1, 102480, Note_on_c, 0, 84, 0
1, 102480, Note_on_c, 0, 84, 33
1, 102480, Note_on_c, 0, 80, 27
1, 102480, Note_on_c, 0, 75, 27
1, 102480, Note_on_c, 0, 72, 27
1, 102480, Note_on_c, 0, 65, 49
1, 102600, Tempo, 900901
1, 102600, Note_on_c, 0, 65, 0
1, 102600, Note_on_c, 0, 63, 44
1, 102720, Tempo, 873490
1, 102720, Note_on_c, 0, 63, 0
1, 102720, Note_on_c, 0, 72, 0
1, 102720, Note_on_c, 0, 84, 0
1, 102720, Note_on_c, 0, 80, 0
1, 102720, Note_on_c, 0, 75, 0
1, 102720, Note_on_c, 0, 84, 33
1, 102720, Note_on_c, 0, 80, 27
1, 102720, Note_on_c, 0, 75, 27
1, 102720, Note_on_c, 0, 72, 27
1, 102720, Note_on_c, 0, 65, 49
1, 102840, Tempo, 887574
1, 102840, Note_on_c, 0, 65, 0
1, 102840, Note_on_c, 0, 67, 44
1, 102900, Note_on_c, 0, 75, 0
1, 102900, Note_on_c, 0, 72, 0
1, 102900, Note_on_c, 0, 84, 0
1, 102900, Note_on_c, 0, 80, 0
1, 102900, Note_on_c, 0, 72, 29
1, 102920, Note_on_c, 0, 75, 29
1, 102940, Note_on_c, 0, 80, 29
1, 102960, Tempo, 874508
1, 102960, Note_on_c, 0, 67, 0
1, 102960, Note_on_c, 0, 84, 36
1, 102960, Note_on_c, 0, 65, 50
1, 103040, Note_on_c, 0, 65, 0
1, 103040, Note_on_c, 0, 67, 44
1, 103120, Note_on_c, 0, 67, 0
1, 103120, Note_on_c, 0, 65, 44
1, 103200, Tempo, 912131
1, 103200, Note_on_c, 0, 65, 0
1, 103200, Note_on_c, 0, 72, 0
1, 103200, Note_on_c, 0, 80, 0
1, 103200, Note_on_c, 0, 75, 0
1, 103200, Note_on_c, 0, 84, 0
1, 103200, Note_on_c, 0, 84, 33
1, 103200, Note_on_c, 0, 80, 27
1, 103200, Note_on_c, 0, 75, 27
1, 103200, Note_on_c, 0, 72, 27
1, 103200, Note_on_c, 0, 63, 49
1, 103217, Control_c, 0, 64, 0
1, 103306, Control_c, 0, 64, 127
1, 103440, Tempo, 924357
1, 103440, Note_on_c, 0, 72, 0
1, 103440, Note_on_c, 0, 75, 0
1, 103440, Note_on_c, 0, 84, 0
1, 103440, Note_on_c, 0, 80, 0
1, 103440, Note_on_c, 0, 84, 33
1, 103440, Note_on_c, 0, 80, 27
1, 103440, Note_on_c, 0, 75, 27
1, 103440, Note_on_c, 0, 72, 27
1, 103620, Note_on_c, 0, 72, 0
1, 103620, Note_on_c, 0, 80, 0
1, 103620, Note_on_c, 0, 75, 0
1, 103620, Note_on_c, 0, 84, 0
1, 103620, Note_on_c, 0, 72, 29
1, 103640, Note_on_c, 0, 75, 29
1, 103660, Note_on_c, 0, 80, 29
1, 103680, Tempo, 900225
1, 103680, Note_on_c, 0, 84, 36
1, 103920, Note_on_c, 0, 84, 0
1, 103920, Note_on_c, 0, 75, 0
1, 103920, Note_on_c, 0, 80, 0
1, 103920, Note_on_c, 0, 72, 0
1, 103920, Note_on_c, 0, 84, 33
1, 103920, Note_on_c, 0, 80, 27
1, 103920, Note_on_c, 0, 75, 27
1, 103920, Note_on_c, 0, 72, 27
1, 104160, Tempo, 912131
1, 104160, Note_on_c, 0, 72, 0
1, 104160, Note_on_c, 0, 80, 0
1, 104160, Note_on_c, 0, 75, 0
1, 104160, Note_on_c, 0, 84, 0
1, 104160, Note_on_c, 0, 84, 33
1, 104160, Note_on_c, 0, 80, 27
1, 104160, Note_on_c, 0, 75, 27
1, 104160, Note_on_c, 0, 72, 27
1, 104280, Tempo, 1019368
1, 104400, Tempo, 930665
1, 104400, Note_on_c, 0, 72, 0
1, 104400, Note_on_c, 0, 80, 0
1, 104400, Note_on_c, 0, 63, 0
1, 104400, Note_on_c, 0, 84, 0
1, 104400, Note_on_c, 0, 75, 0
1, 104400, Note_on_c, 0, 72, 29
1, 104400, Note_on_c, 0, 76, 29
1, 104400, Note_on_c, 0, 82, 29
1, 104400, Note_on_c, 0, 84, 36
1, 104400, Note_on_c, 0, 48, 40
1, 104400, Note_on_c, 0, 55, 47
1, 104411, Control_c, 0, 64, 0
1, 104485, Control_c, 0, 64, 127
1, 104520, Note_on_c, 0, 55, 0
1, 104520, Note_on_c, 0, 57, 51
1, 104640, Note_on_c, 0, 57, 0
1, 104640, Note_on_c, 0, 48, 0
1, 104640, Note_on_c, 0, 82, 0
1, 104640, Note_on_c, 0, 72, 0
1, 104640, Note_on_c, 0, 76, 0
1, 104640, Note_on_c, 0, 84, 0
1, 104640, Note_on_c, 0, 84, 34
1, 104640, Note_on_c, 0, 82, 27
1, 104640, Note_on_c, 0, 76, 27
1, 104640, Note_on_c, 0, 72, 27
1, 104640, Note_on_c, 0, 58, 53
1, 104760, Tempo, 991408
1, 104880, Tempo, 915332
1, 104880, Note_on_c, 0, 58, 0
1, 104880, Note_on_c, 0, 76, 0
1, 104880, Note_on_c, 0, 84, 0
1, 104880, Note_on_c, 0, 82, 0
1, 104880, Note_on_c, 0, 72, 0
1, 104880, Note_on_c, 0, 84, 34
1, 104880, Note_on_c, 0, 82, 27
1, 104880, Note_on_c, 0, 76, 27
1, 104880, Note_on_c, 0, 72, 27
1, 104880, Note_on_c, 0, 60, 55
1, 104904, Control_c, 0, 64, 0
1, 104993, Control_c, 0, 64, 127
1, 105000, Tempo, 970717
1, 105000, Note_on_c, 0, 60, 0
1, 105000, Note_on_c, 0, 62, 57
1, 105120, Tempo, 912131
1, 105120, Note_on_c, 0, 62, 0
1, 105120, Note_on_c, 0, 72, 0
1, 105120, Note_on_c, 0, 84, 0
1, 105120, Note_on_c, 0, 82, 0
1, 105120, Note_on_c, 0, 76, 0
1, 105120, Note_on_c, 0, 72, 29
1, 105120, Note_on_c, 0, 76, 29
1, 105120, Note_on_c, 0, 82, 29
1, 105120, Note_on_c, 0, 84, 36
1, 105120, Note_on_c, 0, 67, 61
1, 105360, Note_on_c, 0, 84, 0
1, 105360, Note_on_c, 0, 82, 0
1, 105360, Note_on_c, 0, 72, 0
1, 105360, Note_on_c, 0, 76, 0
1, 105360, Note_on_c, 0, 84, 35
1, 105360, Note_on_c, 0, 82, 28
1, 105360, Note_on_c, 0, 76, 28
1, 105360, Note_on_c, 0, 72, 28
1, 105480, Tempo, 925783
1, 105600, Note_on_c, 0, 72, 0
1, 105600, Note_on_c, 0, 82, 0
1, 105600, Note_on_c, 0, 67, 0
1, 105600, Note_on_c, 0, 84, 0
1, 105600, Note_on_c, 0, 76, 0
1, 105600, Note_on_c, 0, 84, 37
1, 105600, Note_on_c, 0, 82, 30
1, 105600, Note_on_c, 0, 76, 30
1, 105600, Note_on_c, 0, 72, 30
1, 105600, Note_on_c, 0, 64, 61
1, 105840, Tempo, 894188
1, 105840, Note_on_c, 0, 64, 0
1, 105840, Note_on_c, 0, 76, 0
1, 105840, Note_on_c, 0, 84, 0
1, 105840, Note_on_c, 0, 82, 0
1, 105840, Note_on_c, 0, 72, 0
1, 105840, Note_on_c, 0, 72, 34
1, 105840, Note_on_c, 0, 77, 34
1, 105840, Note_on_c, 0, 81, 34
1, 105840, Note_on_c, 0, 84, 40
1, 105840, Note_on_c, 0, 53, 41
1, 105840, Note_on_c, 0, 62, 57
1, 105850, Control_c, 0, 64, 0
1, 105890, Control_c, 0, 64, 127
1, 105920, Note_on_c, 0, 62, 0
1, 105920, Note_on_c, 0, 64, 55
1, 106000, Note_on_c, 0, 64, 0
1, 106000, Note_on_c, 0, 62, 51
1, 106080, Tempo, 912131
1, 106080, Note_on_c, 0, 62, 0
1, 106080, Note_on_c, 0, 77, 0
1, 106080, Note_on_c, 0, 81, 0
1, 106080, Note_on_c, 0, 72, 0
1, 106080, Note_on_c, 0, 84, 0
1, 106080, Note_on_c, 0, 84, 38
1, 106080, Note_on_c, 0, 81, 30
1, 106080, Note_on_c, 0, 77, 30
1, 106080, Note_on_c, 0, 72, 30
1, 106080, Note_on_c, 0, 60, 51
1, 106095, Control_c, 0, 64, 0
1, 106179, Control_c, 0, 64, 127
1, 106320, Tempo, 932836
1, 106320, Note_on_c, 0, 72, 0
1, 106320, Note_on_c, 0, 77, 0
1, 106320, Note_on_c, 0, 81, 0
1, 106320, Note_on_c, 0, 84, 0
1, 106320, Note_on_c, 0, 84, 38
1, 106320, Note_on_c, 0, 81, 30
1, 106320, Note_on_c, 0, 77, 30
1, 106320, Note_on_c, 0, 72, 30
1, 106560, Tempo, 947718
1, 106560, Note_on_c, 0, 72, 0
1, 106560, Note_on_c, 0, 53, 0
1, 106560, Note_on_c, 0, 84, 0
1, 106560, Note_on_c, 0, 60, 0
1, 106560, Note_on_c, 0, 77, 0
1, 106560, Note_on_c, 0, 81, 0
1, 106560, Note_on_c, 0, 72, 34
1, 106560, Note_on_c, 0, 74, 34
1, 106560, Note_on_c, 0, 78, 34
1, 106560, Note_on_c, 0, 81, 34
1, 106560, Note_on_c, 0, 86, 40
1, 106560, Note_on_c, 0, 50, 66
1, 106563, Control_c, 0, 64, 0
1, 106638, Control_c, 0, 64, 127
1, 106800, Note_on_c, 0, 86, 0
1, 106800, Note_on_c, 0, 81, 0
1, 106800, Note_on_c, 0, 78, 0
1, 106800, Note_on_c, 0, 72, 0
1, 106800, Note_on_c, 0, 74, 0
1, 106800, Note_on_c, 0, 72, 30
1, 106800, Note_on_c, 0, 86, 38
1, 106800, Note_on_c, 0, 81, 30
1, 106800, Note_on_c, 0, 78, 30
1, 106800, Note_on_c, 0, 74, 30
1, 106800, Note_on_c, 0, 57, 61
1, 106920, Tempo, 991408
1, 107040, Tempo, 940586
1, 107040, Note_on_c, 0, 57, 0
1, 107040, Note_on_c, 0, 78, 0
1, 107040, Note_on_c, 0, 72, 0
1, 107040, Note_on_c, 0, 86, 0
1, 107040, Note_on_c, 0, 81, 0
1, 107040, Note_on_c, 0, 74, 0
1, 107040, Note_on_c, 0, 72, 30
1, 107040, Note_on_c, 0, 86, 38
1, 107040, Note_on_c, 0, 81, 30
1, 107040, Note_on_c, 0, 78, 30
1, 107040, Note_on_c, 0, 74, 30
1, 107040, Note_on_c, 0, 62, 61
1, 107160, Tempo, 970717
1, 107280, Tempo, 912131
1, 107280, Note_on_c, 0, 62, 0
1, 107280, Note_on_c, 0, 78, 0
1, 107280, Note_on_c, 0, 72, 0
1, 107280, Note_on_c, 0, 86, 0
1, 107280, Note_on_c, 0, 50, 0
1, 107280, Note_on_c, 0, 74, 0
1, 107280, Note_on_c, 0, 81, 0
1, 107280, Note_on_c, 0, 70, 34
1, 107280, Note_on_c, 0, 74, 34
1, 107280, Note_on_c, 0, 79, 34
1, 107280, Note_on_c, 0, 82, 40
1, 107280, Note_on_c, 0, 55, 49
1, 107280, Note_on_c, 0, 62, 56
1, 107290, Control_c, 0, 64, 0
1, 107344, Control_c, 0, 64, 127
1, 107400, Note_on_c, 0, 62, 0
1, 107400, Note_on_c, 0, 55, 0
1, 107400, Note_on_c, 0, 64, 61
1, 107520, Note_on_c, 0, 64, 0
1, 107520, Note_on_c, 0, 82, 0
1, 107520, Note_on_c, 0, 70, 0
1, 107520, Note_on_c, 0, 74, 0
1, 107520, Note_on_c, 0, 79, 0
1, 107520, Note_on_c, 0, 82, 38
1, 107520, Note_on_c, 0, 79, 30
1, 107520, Note_on_c, 0, 74, 30
1, 107520, Note_on_c, 0, 70, 30
1, 107520, Note_on_c, 0, 65, 64
1, 107529, Control_c, 0, 64, 0
1, 107584, Control_c, 0, 64, 127
1, 107640, Tempo, 925783
1, 107760, Note_on_c, 0, 65, 0
1, 107760, Note_on_c, 0, 74, 0
1, 107760, Note_on_c, 0, 82, 0
1, 107760, Note_on_c, 0, 79, 0
1, 107760, Note_on_c, 0, 70, 0
1, 107760, Note_on_c, 0, 82, 38
1, 107760, Note_on_c, 0, 79, 30
1, 107760, Note_on_c, 0, 74, 30
1, 107760, Note_on_c, 0, 70, 30
1, 107760, Note_on_c, 0, 62, 62
1, 107880, Note_on_c, 0, 62, 0
1, 107880, Note_on_c, 0, 55, 56
1, 107940, Tempo, 1036448
1, 107960, Note_on_c, 0, 55, 0
1, 107960, Note_on_c, 0, 48, 49
1, 107980, Note_on_c, 0, 55, 49
1, 108000, Tempo, 894188
1, 108000, Note_on_c, 0, 70, 0
1, 108000, Note_on_c, 0, 74, 0
1, 108000, Note_on_c, 0, 82, 0
1, 108000, Note_on_c, 0, 79, 0
1, 108000, Note_on_c, 0, 70, 34
1, 108000, Note_on_c, 0, 72, 34
1, 108000, Note_on_c, 0, 76, 34
1, 108000, Note_on_c, 0, 82, 40
1, 108000, Control_c, 0, 64, 0
1, 108000, Note_on_c, 0, 62, 59
1, 108060, Note_on_c, 0, 55, 0
1, 108060, Control_c, 0, 64, 127
1, 108080, Note_on_c, 0, 48, 0
1, 108080, Note_on_c, 0, 62, 0
1, 108080, Note_on_c, 0, 64, 51
1, 108160, Note_on_c, 0, 64, 0
1, 108160, Note_on_c, 0, 62, 53
1, 108240, Tempo, 912131
1, 108240, Note_on_c, 0, 62, 0
1, 108240, Note_on_c, 0, 76, 0
1, 108240, Note_on_c, 0, 72, 0
1, 108240, Note_on_c, 0, 70, 0
1, 108240, Note_on_c, 0, 82, 0
1, 108240, Note_on_c, 0, 82, 38
1, 108240, Note_on_c, 0, 76, 30
1, 108240, Note_on_c, 0, 72, 30
1, 108240, Note_on_c, 0, 70, 30
1, 108240, Note_on_c, 0, 60, 50
1, 108254, Control_c, 0, 64, 0
1, 108311, Control_c, 0, 64, 127
1, 108480, Tempo, 955110
1, 108480, Note_on_c, 0, 60, 0
1, 108480, Note_on_c, 0, 72, 0
1, 108480, Note_on_c, 0, 82, 0
1, 108480, Note_on_c, 0, 76, 0
1, 108480, Note_on_c, 0, 70, 0
1, 108480, Note_on_c, 0, 82, 38
1, 108480, Note_on_c, 0, 76, 30
1, 108480, Note_on_c, 0, 72, 30
1, 108480, Note_on_c, 0, 70, 30
1, 108480, Note_on_c, 0, 48, 44
1, 108660, Tempo, 1083228
1, 108680, Note_on_c, 0, 41, 41
1, 108700, Note_on_c, 0, 48, 41
1, 108720, Tempo, 894188
1, 108720, Note_on_c, 0, 48, 0
1, 108720, Note_on_c, 0, 70, 0
1, 108720, Note_on_c, 0, 82, 0
1, 108720, Note_on_c, 0, 72, 0
1, 108720, Note_on_c, 0, 76, 0
1, 108720, Note_on_c, 0, 69, 28
1, 108720, Note_on_c, 0, 72, 28
1, 108720, Note_on_c, 0, 77, 34
1, 108720, Note_on_c, 0, 81, 40
1, 108720, Control_c, 0, 64, 0
1, 108720, Note_on_c, 0, 57, 51
1, 108770, Control_c, 0, 64, 127
1, 108820, Note_on_c, 0, 48, 0
1, 108840, Note_on_c, 0, 41, 0
1, 108840, Note_on_c, 0, 57, 0
1, 108840, Note_on_c, 0, 55, 49
1, 108960, Tempo, 912131
1, 108960, Note_on_c, 0, 55, 0
1, 108960, Note_on_c, 0, 81, 0
1, 108960, Note_on_c, 0, 72, 0
1, 108960, Note_on_c, 0, 69, 0
1, 108960, Note_on_c, 0, 77, 0
1, 108960, Note_on_c, 0, 81, 34
1, 108960, Note_on_c, 0, 77, 27
1, 108960, Note_on_c, 0, 72, 23
1, 108960, Note_on_c, 0, 69, 23
1, 108960, Note_on_c, 0, 53, 45
1, 108979, Control_c, 0, 64, 0
1, 109059, Control_c, 0, 64, 127
1, 109200, Note_on_c, 0, 69, 0
1, 109200, Note_on_c, 0, 72, 0
1, 109200, Note_on_c, 0, 81, 0
1, 109200, Note_on_c, 0, 77, 0
1, 109200, Note_on_c, 0, 81, 34
1, 109200, Note_on_c, 0, 77, 27
1, 109200, Note_on_c, 0, 72, 23
1, 109200, Note_on_c, 0, 69, 23
1, 109440, Tempo, 905250
1, 109440, Note_on_c, 0, 69, 0
1, 109440, Note_on_c, 0, 77, 0
1, 109440, Note_on_c, 0, 72, 0
1, 109440, Note_on_c, 0, 81, 0
1, 109440, Note_on_c, 0, 69, 26
1, 109440, Note_on_c, 0, 72, 26
1, 109440, Note_on_c, 0, 77, 31
1, 109440, Note_on_c, 0, 81, 31
1, 109680, Note_on_c, 0, 81, 0
1, 109680, Note_on_c, 0, 72, 0
1, 109680, Note_on_c, 0, 77, 0
1, 109680, Note_on_c, 0, 69, 0
1, 109680, Note_on_c, 0, 81, 29
1, 109680, Note_on_c, 0, 77, 29
1, 109680, Note_on_c, 0, 72, 24
1, 109680, Note_on_c, 0, 69, 24
1, 109920, Tempo, 947718
1, 109920, Note_on_c, 0, 69, 0
1, 109920, Note_on_c, 0, 77, 0
1, 109920, Note_on_c, 0, 72, 0
1, 109920, Note_on_c, 0, 81, 0
1, 109920, Note_on_c, 0, 81, 29
1, 109920, Note_on_c, 0, 77, 29
1, 109920, Note_on_c, 0, 72, 24
1, 109920, Note_on_c, 0, 69, 24
1, 110100, Tempo, 1250521
1, 110120, Note_on_c, 0, 41, 37
1, 110140, Note_on_c, 0, 49, 38
1, 110160, Tempo, 912131
1, 110160, Note_on_c, 0, 69, 0
1, 110160, Note_on_c, 0, 72, 0
1, 110160, Note_on_c, 0, 53, 0
1, 110160, Note_on_c, 0, 77, 0
1, 110160, Note_on_c, 0, 81, 0
1, 110160, Note_on_c, 0, 69, 25
1, 110160, Note_on_c, 0, 73, 25
1, 110160, Note_on_c, 0, 77, 29
1, 110160, Note_on_c, 0, 81, 36
1, 110160, Control_c, 0, 64, 0
1, 110160, Note_on_c, 0, 57, 46
1, 110229, Control_c, 0, 64, 127
1, 110260, Note_on_c, 0, 49, 0
1, 110280, Tempo, 940586
1, 110280, Note_on_c, 0, 41, 0
1, 110280, Note_on_c, 0, 57, 0
1, 110280, Note_on_c, 0, 55, 44
1, 110400, Tempo, 912131
1, 110400, Note_on_c, 0, 55, 0
1, 110400, Note_on_c, 0, 81, 0
1, 110400, Note_on_c, 0, 73, 0
1, 110400, Note_on_c, 0, 69, 0
1, 110400, Note_on_c, 0, 77, 0
1, 110400, Note_on_c, 0, 81, 29
1, 110400, Note_on_c, 0, 77, 24
1, 110400, Note_on_c, 0, 73, 19
1, 110400, Note_on_c, 0, 69, 19
1, 110400, Note_on_c, 0, 53, 39
1, 110412, Control_c, 0, 64, 0
1, 110497, Control_c, 0, 64, 127
1, 110640, Note_on_c, 0, 69, 0
1, 110640, Note_on_c, 0, 73, 0
1, 110640, Note_on_c, 0, 81, 0
1, 110640, Note_on_c, 0, 77, 0
1, 110640, Note_on_c, 0, 81, 29
1, 110640, Note_on_c, 0, 77, 24
1, 110640, Note_on_c, 0, 73, 19
1, 110640, Note_on_c, 0, 69, 19
1, 110880, Tempo, 905250
1, 110880, Note_on_c, 0, 69, 0
1, 110880, Note_on_c, 0, 77, 0
1, 110880, Note_on_c, 0, 73, 0
1, 110880, Note_on_c, 0, 81, 0
1, 110880, Note_on_c, 0, 69, 23
1, 110880, Note_on_c, 0, 73, 23
1, 110880, Note_on_c, 0, 77, 28
1, 110880, Note_on_c, 0, 81, 28
1, 111120, Note_on_c, 0, 81, 0
1, 111120, Note_on_c, 0, 73, 0
1, 111120, Note_on_c, 0, 77, 0
1, 111120, Note_on_c, 0, 69, 0
1, 111120, Note_on_c, 0, 81, 26
1, 111120, Note_on_c, 0, 77, 26
1, 111120, Note_on_c, 0, 73, 20
1, 111120, Note_on_c, 0, 69, 20
1, 111360, Tempo, 925783
1, 111360, Note_on_c, 0, 69, 0
1, 111360, Note_on_c, 0, 77, 0
1, 111360, Note_on_c, 0, 73, 0
1, 111360, Note_on_c, 0, 81, 0
1, 111360, Note_on_c, 0, 81, 26
1, 111360, Note_on_c, 0, 77, 26
1, 111360, Note_on_c, 0, 73, 20
1, 111360, Note_on_c, 0, 69, 20
1, 111540, Tempo, 1083228
1, 111560, Note_on_c, 0, 41, 37
1, 111580, Note_on_c, 0, 48, 38
1, 111600, Tempo, 894188
1, 111600, Note_on_c, 0, 69, 0
1, 111600, Note_on_c, 0, 73, 0
1, 111600, Note_on_c, 0, 53, 0
1, 111600, Note_on_c, 0, 77, 0
1, 111600, Note_on_c, 0, 81, 0
1, 111600, Note_on_c, 0, 69, 25
1, 111600, Note_on_c, 0, 72, 25
1, 111600, Note_on_c, 0, 77, 30
1, 111600, Note_on_c, 0, 81, 36
1, 111600, Control_c, 0, 64, 0
1, 111600, Note_on_c, 0, 57, 46
1, 111671, Control_c, 0, 64, 127
1, 111700, Note_on_c, 0, 48, 0
1, 111720, Note_on_c, 0, 41, 0
1, 111720, Note_on_c, 0, 57, 0
1, 111720, Note_on_c, 0, 55, 44
1, 111840, Tempo, 912131
1, 111840, Note_on_c, 0, 55, 0
1, 111840, Note_on_c, 0, 81, 0
1, 111840, Note_on_c, 0, 72, 0
1, 111840, Note_on_c, 0, 69, 0
1, 111840, Note_on_c, 0, 77, 0
1, 111840, Note_on_c, 0, 81, 30
1, 111840, Note_on_c, 0, 77, 24
1, 111840, Note_on_c, 0, 72, 20
1, 111840, Note_on_c, 0, 69, 20
1, 111840, Note_on_c, 0, 53, 40
1, 111861, Control_c, 0, 64, 0
1, 112003, Control_c, 0, 64, 127
1, 112080, Note_on_c, 0, 69, 0
1, 112080, Note_on_c, 0, 72, 0
1, 112080, Note_on_c, 0, 81, 0
1, 112080, Note_on_c, 0, 77, 0
1, 112080, Note_on_c, 0, 81, 30
1, 112080, Note_on_c, 0, 77, 24
1, 112080, Note_on_c, 0, 72, 20
1, 112080, Note_on_c, 0, 69, 20
1, 112320, Tempo, 905250
1, 112320, Note_on_c, 0, 69, 0
1, 112320, Note_on_c, 0, 77, 0
1, 112320, Note_on_c, 0, 72, 0
1, 112320, Note_on_c, 0, 81, 0
1, 112320, Note_on_c, 0, 69, 24
1, 112320, Note_on_c, 0, 72, 24
1, 112320, Note_on_c, 0, 77, 29
1, 112320, Note_on_c, 0, 81, 29
1, 112560, Note_on_c, 0, 81, 0
1, 112560, Note_on_c, 0, 72, 0
1, 112560, Note_on_c, 0, 77, 0
1, 112560, Note_on_c, 0, 69, 0
1, 112560, Note_on_c, 0, 81, 27
1, 112560, Note_on_c, 0, 77, 27
1, 112560, Note_on_c, 0, 72, 22
1, 112560, Note_on_c, 0, 69, 22
1, 112800, Tempo, 947718
1, 112800, Note_on_c, 0, 69, 0
1, 112800, Note_on_c, 0, 77, 0
1, 112800, Note_on_c, 0, 72, 0
1, 112800, Note_on_c, 0, 81, 0
1, 112800, Note_on_c, 0, 81, 27
1, 112800, Note_on_c, 0, 77, 27
1, 112800, Note_on_c, 0, 72, 22
1, 112800, Note_on_c, 0, 69, 22
1, 112980, Tempo, 1144165
1, 113000, Note_on_c, 0, 41, 35
1, 113020, Note_on_c, 0, 49, 36
1, 113040, Tempo, 912131
1, 113040, Note_on_c, 0, 69, 0
1, 113040, Note_on_c, 0, 72, 0
1, 113040, Note_on_c, 0, 53, 0
1, 113040, Note_on_c, 0, 77, 0
1, 113040, Note_on_c, 0, 81, 0
1, 113040, Note_on_c, 0, 69, 23
1, 113040, Note_on_c, 0, 73, 23
1, 113040, Note_on_c, 0, 77, 27
1, 113040, Note_on_c, 0, 81, 34
1, 113040, Control_c, 0, 64, 0
1, 113040, Note_on_c, 0, 57, 42
1, 113109, Control_c, 0, 64, 127
1, 113140, Note_on_c, 0, 49, 0
1, 113160, Tempo, 940586
1, 113160, Note_on_c, 0, 41, 0
1, 113160, Note_on_c, 0, 57, 0
1, 113160, Note_on_c, 0, 55, 41
1, 113280, Tempo, 912131
1, 113280, Note_on_c, 0, 55, 0
1, 113280, Note_on_c, 0, 81, 0
1, 113280, Note_on_c, 0, 73, 0
1, 113280, Note_on_c, 0, 69, 0
1, 113280, Note_on_c, 0, 77, 0
1, 113280, Note_on_c, 0, 81, 27
1, 113280, Note_on_c, 0, 77, 22
1, 113280, Note_on_c, 0, 73, 18
1, 113280, Note_on_c, 0, 69, 18
1, 113280, Note_on_c, 0, 53, 37
1, 113292, Control_c, 0, 64, 0
1, 113406, Control_c, 0, 64, 127
1, 113520, Note_on_c, 0, 69, 0
1, 113520, Note_on_c, 0, 73, 0
1, 113520, Note_on_c, 0, 81, 0
1, 113520, Note_on_c, 0, 77, 0
1, 113520, Note_on_c, 0, 81, 27
1, 113520, Note_on_c, 0, 77, 22
1, 113520, Note_on_c, 0, 73, 18
1, 113520, Note_on_c, 0, 69, 18
1, 113760, Tempo, 905250
1, 113760, Note_on_c, 0, 69, 0
1, 113760, Note_on_c, 0, 77, 0
1, 113760, Note_on_c, 0, 73, 0
1, 113760, Note_on_c, 0, 81, 0
1, 113760, Note_on_c, 0, 69, 20
1, 113760, Note_on_c, 0, 73, 20
1, 113760, Note_on_c, 0, 77, 26
1, 113760, Note_on_c, 0, 81, 26
1, 114000, Note_on_c, 0, 81, 0
1, 114000, Note_on_c, 0, 73, 0
1, 114000, Note_on_c, 0, 77, 0
1, 114000, Note_on_c, 0, 69, 0
1, 114000, Note_on_c, 0, 81, 24
1, 114000, Note_on_c, 0, 77, 24
1, 114000, Note_on_c, 0, 73, 19
1, 114000, Note_on_c, 0, 69, 19
1, 114240, Tempo, 955110
1, 114240, Note_on_c, 0, 69, 0
1, 114240, Note_on_c, 0, 77, 0
1, 114240, Note_on_c, 0, 73, 0
1, 114240, Note_on_c, 0, 81, 0
1, 114240, Note_on_c, 0, 81, 24
1, 114240, Note_on_c, 0, 77, 24
1, 114240, Note_on_c, 0, 73, 19
1, 114240, Note_on_c, 0, 69, 19
1, 114420, Tempo, 1263690
1, 114440, Note_on_c, 0, 41, 30
1, 114460, Note_on_c, 0, 48, 30
1, 114480, Tempo, 986193
1, 114480, Note_on_c, 0, 69, 0
1, 114480, Note_on_c, 0, 73, 0
1, 114480, Note_on_c, 0, 53, 0
1, 114480, Note_on_c, 0, 77, 0
1, 114480, Note_on_c, 0, 81, 0
1, 114480, Note_on_c, 0, 69, 27
1, 114480, Note_on_c, 0, 72, 27
1, 114480, Note_on_c, 0, 77, 27
1, 114480, Note_on_c, 0, 81, 27
1, 114480, Control_c, 0, 64, 0
1, 114480, Note_on_c, 0, 57, 37
1, 114565, Control_c, 0, 64, 127
1, 114580, Note_on_c, 0, 48, 0
1, 114600, Note_on_c, 0, 41, 0
1, 114600, Note_on_c, 0, 57, 0
1, 114600, Note_on_c, 0, 55, 35
1, 114720, Tempo, 1019368
1, 114720, Note_on_c, 0, 55, 0
1, 114720, Note_on_c, 0, 81, 0
1, 114720, Note_on_c, 0, 72, 0
1, 114720, Note_on_c, 0, 69, 0
1, 114720, Note_on_c, 0, 77, 0
1, 114720, Note_on_c, 0, 81, 25
1, 114720, Note_on_c, 0, 77, 25
1, 114720, Note_on_c, 0, 72, 25
1, 114720, Note_on_c, 0, 69, 25
1, 114720, Note_on_c, 0, 53, 33
1, 114736, Control_c, 0, 64, 0
1, 114833, Control_c, 0, 64, 127
1, 114960, Tempo, 1055038
1, 114960, Note_on_c, 0, 69, 0
1, 114960, Note_on_c, 0, 72, 0
1, 114960, Note_on_c, 0, 81, 0
1, 114960, Note_on_c, 0, 77, 0
1, 114960, Note_on_c, 0, 81, 25
1, 114960, Note_on_c, 0, 77, 25
1, 114960, Note_on_c, 0, 72, 25
1, 114960, Note_on_c, 0, 69, 25
1, 115200, Note_on_c, 0, 69, 0
1, 115200, Note_on_c, 0, 77, 0
1, 115200, Note_on_c, 0, 72, 0
1, 115200, Note_on_c, 0, 81, 0
1, 115200, Note_on_c, 0, 69, 24
1, 115200, Note_on_c, 0, 72, 24
1, 115200, Note_on_c, 0, 77, 24
1, 115200, Note_on_c, 0, 81, 24
1, 115440, Note_on_c, 0, 81, 0
1, 115440, Note_on_c, 0, 72, 0
1, 115440, Note_on_c, 0, 53, 0
1, 115440, Note_on_c, 0, 69, 0
1, 115440, Note_on_c, 0, 77, 0
1, 115520, Control_c, 0, 64, 0
1, 115680, Tempo, 1512097
1, 115680, Note_on_c, 0, 48, 34
1, 115814, Control_c, 0, 64, 127
1, 115920, Tempo, 1281230
1, 115920, Note_on_c, 0, 48, 0
1, 115920, Note_on_c, 0, 41, 28
1, 116040, Tempo, 1087745
1, 116040, Note_on_c, 0, 41, 0
1, 116040, Note_on_c, 0, 57, 34
1, 116040, Note_on_c, 0, 48, 29
1, 116140, Tempo, 1077586
1, 116160, Note_on_c, 0, 48, 0
1, 116160, Note_on_c, 0, 57, 0
1, 116160, Note_on_c, 0, 60, 35
1, 116160, Note_on_c, 0, 53, 30
1, 116220, Tempo, 1067616
1, 116280, Note_on_c, 0, 53, 0
1, 116280, Note_on_c, 0, 60, 0
1, 116280, Note_on_c, 0, 65, 37
1, 116280, Note_on_c, 0, 57, 31
1, 116300, Tempo, 1057828
1, 116400, Tempo, 1048218
1, 116400, Note_on_c, 0, 57, 0
1, 116400, Note_on_c, 0, 65, 0
1, 116400, Note_on_c, 0, 69, 38
1, 116400, Note_on_c, 0, 60, 31
1, 116480, Tempo, 1038781
1, 116520, Note_on_c, 0, 60, 0
1, 116520, Note_on_c, 0, 69, 0
1, 116520, Note_on_c, 0, 72, 39
1, 116520, Note_on_c, 0, 65, 33
1, 116560, Tempo, 1029513
1, 116640, Tempo, 1077586
1, 116640, Note_on_c, 0, 65, 0
1, 116640, Note_on_c, 0, 72, 0
1, 116640, Note_on_c, 0, 77, 46
1, 116640, Note_on_c, 0, 69, 34
1, 116760, Tempo, 1020408
1, 116760, Note_on_c, 0, 69, 0
1, 116760, Note_on_c, 0, 77, 0
1, 116760, Note_on_c, 0, 69, 33
1, 116760, Note_on_c, 0, 60, 27
1, 116800, Tempo, 1029513
1, 116820, Tempo, 1038781
1, 116840, Tempo, 1048218
1, 116880, Tempo, 1057828
1, 116880, Note_on_c, 0, 60, 0
1, 116880, Note_on_c, 0, 69, 0
1, 116880, Note_on_c, 0, 72, 35
1, 116880, Note_on_c, 0, 65, 29
1, 116900, Tempo, 1067616
1, 116920, Tempo, 1077586
1, 116940, Tempo, 1087745
1, 116980, Tempo, 1098298
1, 117000, Tempo, 1108852
1, 117000, Note_on_c, 0, 65, 0
1, 117000, Note_on_c, 0, 72, 0
1, 117000, Note_on_c, 0, 77, 38
1, 117000, Note_on_c, 0, 69, 30
1, 117020, Tempo, 1119403
1, 117040, Tempo, 1130369
1, 117080, Tempo, 1141553
1, 117100, Tempo, 1153181
1, 117120, Tempo, 1164822
1, 117120, Note_on_c, 0, 69, 0
1, 117120, Note_on_c, 0, 77, 0
1, 117120, Note_on_c, 0, 81, 40
1, 117120, Note_on_c, 0, 72, 33
1, 117140, Tempo, 1176471
1, 117180, Tempo, 1188590
1, 117200, Tempo, 1201201
1, 117220, Tempo, 1213838
1, 117240, Tempo, 1226743
1, 117240, Note_on_c, 0, 72, 0
1, 117240, Note_on_c, 0, 81, 0
1, 117240, Note_on_c, 0, 84, 44
1, 117240, Note_on_c, 0, 77, 35
1, 117280, Tempo, 1239926
1, 117300, Tempo, 1253133
1, 117320, Tempo, 1267159
1, 117340, Tempo, 1281230
1, 117360, Tempo, 1020408
1, 117360, Note_on_c, 0, 77, 0
1, 117360, Note_on_c, 0, 84, 0
1, 117360, Note_on_c, 0, 89, 46
1, 117360, Note_on_c, 0, 81, 36
1, 118080, Tempo, 1921845
1, 118080, Note_on_c, 0, 81, 0
1, 118080, Note_on_c, 0, 89, 0
1, 118080, Note_on_c, 0, 57, 27
1, 118080, Note_on_c, 0, 60, 27
1, 118080, Note_on_c, 0, 65, 33
1, 118080, Note_on_c, 0, 69, 33
1, 118080, Note_on_c, 0, 41, 22
1, 118080, Note_on_c, 0, 48, 22
1, 118080, Note_on_c, 0, 53, 26
1, 118800, Tempo, 1153181
1, 118800, Note_on_c, 0, 53, 0
1, 118800, Note_on_c, 0, 41, 0
1, 118800, Note_on_c, 0, 60, 0
1, 118800, Note_on_c, 0, 65, 0
1, 118800, Note_on_c, 0, 57, 0
1, 118800, Note_on_c, 0, 48, 0
1, 118800, Note_on_c, 0, 69, 0
1, 118802, Tempo, 1200000
1, 119440, Control_c, 0, 64, 0
1, 119440, End_track
0, 0, End_of_file
