0, 0, Header, 1, 6, 192
1, 0, Start_track
1, 0, Title_t, """Elegie  Op. 3  No. 1, Rachmaninoff played by Sergei Rachmaninoff c""  "
1, 0, Text_t, "Roll expression/accent tracks, where present, converted to MIDI velocties.\012"
1, 0, Time_signature, 4, 2, 24, 8
1, 0, Key_signature, 0, "major"
1, 0, Tempo, 500000
1, 0, Marker_t, "Standard MIDI:LPI 119:Tempo  105: 08-03-2003"
1, 0, End_track
2, 0, Start_track
2, 0, Title_t, "Elegie Op 3 No 1"
2, 89, Control_c, 0, 64, 127
2, 256, Note_on_c, 0, 39, 76
2, 261, Note_on_c, 0, 27, 63
2, 427, Note_on_c, 0, 27, 0
2, 440, Note_on_c, 0, 39, 0
2, 466, Note_on_c, 0, 46, 73
2, 609, Note_on_c, 0, 54, 77
2, 615, Note_on_c, 0, 46, 0
2, 720, Note_on_c, 0, 63, 77
2, 734, Note_on_c, 0, 54, 0
2, 828, Note_on_c, 0, 70, 76
2, 848, Note_on_c, 0, 63, 0
2, 945, Note_on_c, 0, 70, 0
2, 965, Note_on_c, 0, 63, 71
2, 1101, Note_on_c, 0, 63, 0
2, 1101, Note_on_c, 0, 54, 65
2, 1200, Note_on_c, 0, 46, 66
2, 1210, Note_on_c, 0, 54, 0
2, 1320, Note_on_c, 0, 39, 59
2, 1332, Note_on_c, 0, 27, 48
2, 1342, Note_on_c, 0, 46, 0
2, 1347, Control_c, 0, 64, 0
2, 1475, Control_c, 0, 64, 127
2, 1477, Note_on_c, 0, 46, 51
2, 1592, Note_on_c, 0, 54, 53
2, 1636, Note_on_c, 0, 46, 0
2, 1644, Note_on_c, 0, 27, 0
2, 1664, Note_on_c, 0, 39, 0
2, 1697, Note_on_c, 0, 63, 49
2, 1766, Note_on_c, 0, 54, 0
2, 1792, Note_on_c, 0, 70, 58
2, 1812, Note_on_c, 0, 63, 0
2, 1902, Note_on_c, 0, 63, 55
2, 1928, Note_on_c, 0, 70, 0
2, 2016, Note_on_c, 0, 54, 53
2, 2031, Note_on_c, 0, 63, 0
2, 2110, Note_on_c, 0, 46, 54
2, 2145, Note_on_c, 0, 54, 0
2, 2228, Note_on_c, 0, 39, 42
2, 2233, Control_c, 0, 64, 0
2, 2239, Note_on_c, 0, 27, 46
2, 2253, Note_on_c, 0, 46, 0
2, 2357, Control_c, 0, 64, 127
2, 2391, Note_on_c, 0, 46, 54
2, 2508, Note_on_c, 0, 54, 57
2, 2531, Note_on_c, 0, 46, 0
2, 2551, Note_on_c, 0, 39, 0
2, 2551, Note_on_c, 0, 27, 0
2, 2626, Note_on_c, 0, 63, 53
2, 2644, Note_on_c, 0, 54, 0
2, 2746, Note_on_c, 0, 78, 77
2, 2754, Note_on_c, 0, 63, 0
2, 2760, Note_on_c, 0, 70, 47
2, 2864, Note_on_c, 0, 63, 49
2, 2878, Note_on_c, 0, 70, 0
2, 2968, Note_on_c, 0, 54, 49
2, 3024, Note_on_c, 0, 63, 0
2, 3068, Note_on_c, 0, 46, 43
2, 3096, Note_on_c, 0, 54, 0
2, 3202, Note_on_c, 0, 39, 48
2, 3215, Note_on_c, 0, 27, 44
2, 3222, Control_c, 0, 64, 0
2, 3235, Note_on_c, 0, 46, 0
2, 3336, Control_c, 0, 64, 127
2, 3429, Note_on_c, 0, 47, 54
2, 3549, Note_on_c, 0, 56, 54
2, 3561, Note_on_c, 0, 39, 0
2, 3567, Note_on_c, 0, 27, 0
2, 3569, Note_on_c, 0, 78, 0
2, 3594, Note_on_c, 0, 47, 0
2, 3658, Note_on_c, 0, 62, 55
2, 3696, Note_on_c, 0, 56, 0
2, 3763, Note_on_c, 0, 68, 54
2, 3789, Note_on_c, 0, 62, 0
2, 3894, Note_on_c, 0, 68, 0
2, 3894, Note_on_c, 0, 62, 51
2, 4005, Note_on_c, 0, 56, 50
2, 4020, Note_on_c, 0, 62, 0
2, 4058, Note_on_c, 0, 77, 73
2, 4143, Note_on_c, 0, 56, 0
2, 4161, Note_on_c, 0, 47, 44
2, 4287, Note_on_c, 0, 47, 0
2, 4318, Note_on_c, 0, 39, 48
2, 4330, Note_on_c, 0, 27, 46
2, 4332, Control_c, 0, 64, 0
2, 4419, Control_c, 0, 64, 127
2, 4516, Note_on_c, 0, 46, 46
2, 4585, Note_on_c, 0, 39, 0
2, 4604, Note_on_c, 0, 74, 71
2, 4609, Note_on_c, 0, 27, 0
2, 4615, Note_on_c, 0, 77, 0
2, 4700, Note_on_c, 0, 46, 0
2, 4718, Note_on_c, 0, 54, 47
2, 4772, Note_on_c, 0, 74, 0
2, 4847, Note_on_c, 0, 54, 0
2, 4852, Note_on_c, 0, 63, 48
2, 4886, Note_on_c, 0, 75, 62
2, 4927, Note_on_c, 0, 75, 0
2, 4945, Note_on_c, 0, 77, 69
2, 4987, Note_on_c, 0, 77, 0
2, 4992, Control_c, 0, 64, 0
2, 4992, Note_on_c, 0, 75, 74
2, 5005, Note_on_c, 0, 70, 43
2, 5039, Note_on_c, 0, 63, 0
2, 5090, Note_on_c, 0, 63, 49
2, 5103, Control_c, 0, 64, 127
2, 5136, Note_on_c, 0, 70, 0
2, 5169, Note_on_c, 0, 54, 42
2, 5236, Note_on_c, 0, 63, 0
2, 5261, Note_on_c, 0, 46, 47
2, 5302, Note_on_c, 0, 54, 0
2, 5365, Note_on_c, 0, 39, 49
2, 5400, Note_on_c, 0, 46, 0
2, 5470, Control_c, 0, 64, 0
2, 5502, Note_on_c, 0, 46, 42
2, 5568, Note_on_c, 0, 70, 80
2, 5581, Note_on_c, 0, 75, 0
2, 5606, Control_c, 0, 64, 127
2, 5686, Note_on_c, 0, 55, 46
2, 5784, Note_on_c, 0, 39, 0
2, 5789, Note_on_c, 0, 46, 0
2, 5802, Note_on_c, 0, 70, 0
2, 5842, Note_on_c, 0, 61, 46
2, 5855, Note_on_c, 0, 71, 81
2, 6005, Note_on_c, 0, 73, 68
2, 6011, Control_c, 0, 64, 0
2, 6013, Note_on_c, 0, 71, 0
2, 6018, Note_on_c, 0, 67, 47
2, 6038, Note_on_c, 0, 61, 0
2, 6101, Control_c, 0, 64, 127
2, 6135, Note_on_c, 0, 61, 47
2, 6199, Note_on_c, 0, 55, 0
2, 6219, Note_on_c, 0, 67, 0
2, 6242, Note_on_c, 0, 55, 41
2, 6288, Note_on_c, 0, 61, 0
2, 6342, Note_on_c, 0, 46, 41
2, 6363, Note_on_c, 0, 55, 0
2, 6474, Note_on_c, 0, 32, 43
2, 6500, Control_c, 0, 64, 0
2, 6513, Note_on_c, 0, 46, 0
2, 6584, Control_c, 0, 64, 127
2, 6625, Note_on_c, 0, 44, 41
2, 6693, Note_on_c, 0, 75, 69
2, 6720, Note_on_c, 0, 73, 0
2, 6739, Note_on_c, 0, 32, 0
2, 6787, Note_on_c, 0, 73, 71
2, 6822, Note_on_c, 0, 75, 0
2, 6840, Note_on_c, 0, 51, 48
2, 6848, Control_c, 0, 64, 0
2, 6856, Note_on_c, 0, 71, 70
2, 6864, Note_on_c, 0, 73, 0
2, 6948, Control_c, 0, 64, 127
2, 6984, Note_on_c, 0, 59, 43
2, 7116, Note_on_c, 0, 51, 0
2, 7116, Note_on_c, 0, 68, 52
2, 7142, Note_on_c, 0, 44, 0
2, 7148, Note_on_c, 0, 71, 0
2, 7160, Note_on_c, 0, 59, 0
2, 7252, Note_on_c, 0, 68, 0
2, 7257, Note_on_c, 0, 59, 50
2, 7386, Note_on_c, 0, 70, 68
2, 7392, Note_on_c, 0, 59, 0
2, 7397, Note_on_c, 0, 51, 48
2, 7508, Note_on_c, 0, 44, 43
2, 7534, Note_on_c, 0, 51, 0
2, 7646, Note_on_c, 0, 34, 51
2, 7666, Control_c, 0, 64, 0
2, 7720, Note_on_c, 0, 44, 0
2, 7774, Control_c, 0, 64, 127
2, 7823, Note_on_c, 0, 46, 48
2, 7895, Note_on_c, 0, 34, 0
2, 8012, Note_on_c, 0, 68, 62
2, 8016, Note_on_c, 0, 56, 49
2, 8041, Control_c, 0, 64, 0
2, 8051, Note_on_c, 0, 70, 0
2, 8128, Control_c, 0, 67, 127
2, 8137, Control_c, 0, 64, 127
2, 8189, Note_on_c, 0, 62, 47
2, 8287, Note_on_c, 0, 46, 0
2, 8287, Note_on_c, 0, 68, 0
2, 8307, Note_on_c, 0, 56, 0
2, 8325, Note_on_c, 0, 70, 41
2, 8368, Note_on_c, 0, 62, 0
2, 8454, Note_on_c, 0, 70, 0
2, 8500, Note_on_c, 0, 62, 59
2, 8703, Note_on_c, 0, 56, 43
2, 8723, Note_on_c, 0, 66, 60
2, 8879, Note_on_c, 0, 46, 50
2, 8958, Note_on_c, 0, 62, 0
2, 8969, Note_on_c, 0, 56, 0
2, 9023, Note_on_c, 0, 66, 0
2, 9048, Note_on_c, 0, 46, 0
2, 9081, Note_on_c, 0, 63, 42
2, 9092, Note_on_c, 0, 35, 47
2, 9094, Control_c, 0, 64, 0
2, 9199, Control_c, 0, 64, 127
2, 9233, Note_on_c, 0, 47, 45
2, 9346, Note_on_c, 0, 54, 47
2, 9390, Note_on_c, 0, 35, 0
2, 9396, Note_on_c, 0, 47, 0
2, 9409, Note_on_c, 0, 63, 0
2, 9468, Note_on_c, 0, 59, 41
2, 9508, Note_on_c, 0, 54, 0
2, 9573, Note_on_c, 0, 66, 44
2, 9621, Note_on_c, 0, 59, 0
2, 9688, Note_on_c, 0, 59, 41
2, 9716, Note_on_c, 0, 66, 0
2, 9794, Note_on_c, 0, 54, 45
2, 9822, Note_on_c, 0, 59, 0
2, 9899, Note_on_c, 0, 47, 42
2, 9914, Note_on_c, 0, 54, 0
2, 10022, Note_on_c, 0, 32, 42
2, 10035, Note_on_c, 0, 47, 0
2, 10128, Control_c, 0, 64, 0
2, 10179, Note_on_c, 0, 44, 42
2, 10179, Note_on_c, 0, 65, 65
2, 10200, Note_on_c, 0, 59, 43
2, 10207, Control_c, 0, 64, 127
2, 10292, Note_on_c, 0, 63, 45
2, 10302, Note_on_c, 0, 66, 72
2, 10316, Note_on_c, 0, 65, 0
2, 10320, Note_on_c, 0, 32, 0
2, 10346, Note_on_c, 0, 59, 0
2, 10346, Note_on_c, 0, 53, 47
2, 10380, Note_on_c, 0, 63, 0
2, 10380, Note_on_c, 0, 66, 0
2, 10385, Control_c, 0, 64, 0
2, 10405, Note_on_c, 0, 68, 72
2, 10417, Note_on_c, 0, 65, 43
2, 10471, Control_c, 0, 64, 127
2, 10499, Note_on_c, 0, 70, 74
2, 10512, Note_on_c, 0, 59, 44
2, 10512, Note_on_c, 0, 66, 46
2, 10521, Note_on_c, 0, 68, 0
2, 10527, Note_on_c, 0, 65, 0
2, 10584, Note_on_c, 0, 71, 75
2, 10599, Note_on_c, 0, 68, 47
2, 10619, Note_on_c, 0, 71, 0
2, 10625, Note_on_c, 0, 70, 0
2, 10625, Note_on_c, 0, 66, 0
2, 10637, Note_on_c, 0, 44, 0
2, 10647, Note_on_c, 0, 59, 0
2, 10660, Note_on_c, 0, 71, 56
2, 10720, Note_on_c, 0, 63, 46
2, 10722, Note_on_c, 0, 68, 0
2, 10781, Note_on_c, 0, 80, 67
2, 10786, Control_c, 0, 64, 0
2, 10871, Control_c, 0, 64, 127
2, 10972, Note_on_c, 0, 59, 43
2, 11018, Note_on_c, 0, 53, 0
2, 11024, Note_on_c, 0, 71, 0
2, 11058, Note_on_c, 0, 63, 0
2, 11070, Note_on_c, 0, 80, 0
2, 11147, Note_on_c, 0, 59, 0
2, 11155, Note_on_c, 0, 53, 43
2, 11283, Note_on_c, 0, 53, 0
2, 11394, Note_on_c, 0, 44, 44
2, 11545, Note_on_c, 0, 44, 0
2, 11645, Note_on_c, 0, 78, 70
2, 11658, Note_on_c, 0, 70, 46
2, 11709, Control_c, 0, 64, 0
2, 11721, Note_on_c, 0, 27, 45
2, 11755, Note_on_c, 0, 78, 0
2, 11767, Note_on_c, 0, 70, 0
2, 11772, Note_on_c, 0, 39, 47
2, 11795, Note_on_c, 0, 78, 60
2, 11806, Note_on_c, 0, 70, 48
2, 11836, Control_c, 0, 64, 127
2, 11954, Note_on_c, 0, 46, 41
2, 12000, Note_on_c, 0, 27, 0
2, 12014, Note_on_c, 0, 39, 0
2, 12022, Note_on_c, 0, 70, 0
2, 12096, Note_on_c, 0, 46, 0
2, 12102, Note_on_c, 0, 54, 41
2, 12116, Note_on_c, 0, 78, 0
2, 12241, Note_on_c, 0, 54, 0
2, 12252, Note_on_c, 0, 63, 41
2, 12319, Control_c, 0, 67, 0
2, 12391, Note_on_c, 0, 63, 0
2, 12402, Note_on_c, 0, 78, 75
2, 12417, Note_on_c, 0, 70, 45
2, 12504, Note_on_c, 0, 70, 0
2, 12504, Note_on_c, 0, 63, 48
2, 12616, Note_on_c, 0, 54, 52
2, 12651, Note_on_c, 0, 63, 0
2, 12716, Note_on_c, 0, 46, 50
2, 12782, Note_on_c, 0, 54, 0
2, 12839, Note_on_c, 0, 39, 58
2, 12851, Note_on_c, 0, 27, 53
2, 12864, Control_c, 0, 64, 0
2, 12872, Note_on_c, 0, 46, 0
2, 12974, Control_c, 0, 64, 127
2, 13007, Note_on_c, 0, 47, 52
2, 13124, Note_on_c, 0, 56, 53
2, 13152, Note_on_c, 0, 39, 0
2, 13156, Note_on_c, 0, 27, 0
2, 13158, Note_on_c, 0, 78, 0
2, 13189, Note_on_c, 0, 77, 84
2, 13235, Note_on_c, 0, 47, 0
2, 13253, Note_on_c, 0, 78, 76
2, 13259, Note_on_c, 0, 56, 0
2, 13280, Note_on_c, 0, 77, 0
2, 13286, Note_on_c, 0, 62, 61
2, 13306, Note_on_c, 0, 78, 0
2, 13311, Note_on_c, 0, 77, 74
2, 13351, Note_on_c, 0, 77, 0
2, 13351, Note_on_c, 0, 75, 78
2, 13390, Note_on_c, 0, 77, 76
2, 13403, Control_c, 0, 64, 0
2, 13411, Note_on_c, 0, 75, 0
2, 13429, Note_on_c, 0, 77, 0
2, 13431, Note_on_c, 0, 62, 0
2, 13437, Note_on_c, 0, 78, 77
2, 13447, Note_on_c, 0, 68, 44
2, 13545, Control_c, 0, 64, 127
2, 13547, Note_on_c, 0, 62, 54
2, 13591, Note_on_c, 0, 68, 0
2, 13657, Note_on_c, 0, 56, 56
2, 13671, Note_on_c, 0, 62, 0
2, 13766, Note_on_c, 0, 47, 42
2, 13792, Note_on_c, 0, 56, 0
2, 13856, Note_on_c, 0, 77, 80
2, 13862, Note_on_c, 0, 78, 0
2, 13900, Note_on_c, 0, 47, 0
2, 13977, Note_on_c, 0, 39, 54
2, 13985, Control_c, 0, 64, 0
2, 13985, Note_on_c, 0, 27, 57
2, 14095, Control_c, 0, 64, 127
2, 14134, Note_on_c, 0, 46, 54
2, 14210, Note_on_c, 0, 74, 75
2, 14244, Note_on_c, 0, 27, 0
2, 14250, Note_on_c, 0, 39, 0
2, 14255, Note_on_c, 0, 77, 0
2, 14275, Note_on_c, 0, 46, 0
2, 14347, Note_on_c, 0, 54, 47
2, 14354, Note_on_c, 0, 74, 0
2, 14482, Note_on_c, 0, 54, 0
2, 14488, Note_on_c, 0, 63, 50
2, 14528, Note_on_c, 0, 75, 60
2, 14569, Note_on_c, 0, 75, 0
2, 14569, Note_on_c, 0, 77, 61
2, 14614, Note_on_c, 0, 75, 77
2, 14621, Note_on_c, 0, 77, 0
2, 14627, Note_on_c, 0, 70, 57
2, 14629, Note_on_c, 0, 63, 0
2, 14629, Control_c, 0, 64, 0
2, 14719, Note_on_c, 0, 63, 53
2, 14739, Control_c, 0, 64, 127
2, 14799, Note_on_c, 0, 70, 0
2, 14817, Note_on_c, 0, 54, 54
2, 14881, Note_on_c, 0, 63, 0
2, 14915, Note_on_c, 0, 46, 52
2, 14948, Note_on_c, 0, 54, 0
2, 15034, Note_on_c, 0, 39, 72
2, 15062, Note_on_c, 0, 46, 0
2, 15088, Control_c, 0, 64, 0
2, 15193, Note_on_c, 0, 46, 47
2, 15357, Note_on_c, 0, 54, 54
2, 15357, Note_on_c, 0, 70, 77
2, 15359, Note_on_c, 0, 75, 0
2, 15415, Control_c, 0, 64, 127
2, 15518, Note_on_c, 0, 63, 50
2, 15595, Note_on_c, 0, 54, 0
2, 15595, Note_on_c, 0, 46, 0
2, 15597, Note_on_c, 0, 39, 0
2, 15673, Note_on_c, 0, 38, 57
2, 15675, Control_c, 0, 64, 0
2, 15681, Note_on_c, 0, 63, 0
2, 15856, Note_on_c, 0, 46, 41
2, 15919, Control_c, 0, 64, 127
2, 16062, Note_on_c, 0, 71, 67
2, 16073, Note_on_c, 0, 54, 46
2, 16075, Control_c, 0, 64, 0
2, 16104, Note_on_c, 0, 70, 0
2, 16190, Control_c, 0, 64, 127
2, 16221, Note_on_c, 0, 62, 50
2, 16300, Note_on_c, 0, 54, 0
2, 16306, Note_on_c, 0, 38, 0
2, 16339, Note_on_c, 0, 37, 43
2, 16341, Note_on_c, 0, 46, 0
2, 16344, Note_on_c, 0, 73, 71
2, 16346, Control_c, 0, 64, 0
2, 16359, Note_on_c, 0, 62, 0
2, 16365, Note_on_c, 0, 71, 0
2, 16383, Control_c, 0, 67, 127
2, 16493, Note_on_c, 0, 49, 42
2, 16598, Control_c, 0, 64, 127
2, 16610, Note_on_c, 0, 58, 48
2, 16723, Note_on_c, 0, 66, 45
2, 16802, Note_on_c, 0, 49, 0
2, 16802, Note_on_c, 0, 37, 0
2, 16815, Note_on_c, 0, 58, 0
2, 16838, Note_on_c, 0, 70, 45
2, 16866, Note_on_c, 0, 66, 0
2, 16963, Note_on_c, 0, 66, 45
2, 16972, Note_on_c, 0, 70, 0
2, 17080, Note_on_c, 0, 58, 47
2, 17183, Note_on_c, 0, 49, 43
2, 17293, Control_c, 0, 64, 0
2, 17299, Note_on_c, 0, 37, 43
2, 17377, Note_on_c, 0, 49, 0
2, 17402, Control_c, 0, 64, 127
2, 17461, Note_on_c, 0, 49, 43
2, 17499, Note_on_c, 0, 66, 0
2, 17501, Note_on_c, 0, 58, 0
2, 17512, Note_on_c, 0, 75, 71
2, 17525, Note_on_c, 0, 37, 0
2, 17544, Note_on_c, 0, 73, 0
2, 17600, Note_on_c, 0, 73, 68
2, 17633, Note_on_c, 0, 75, 0
2, 17673, Note_on_c, 0, 53, 46
2, 17687, Note_on_c, 0, 63, 44
2, 17692, Note_on_c, 0, 71, 65
2, 17713, Control_c, 0, 64, 0
2, 17729, Note_on_c, 0, 73, 0
2, 17827, Control_c, 0, 64, 127
2, 17859, Note_on_c, 0, 59, 43
2, 17942, Note_on_c, 0, 63, 0
2, 17942, Note_on_c, 0, 53, 0
2, 17954, Note_on_c, 0, 49, 0
2, 18044, Note_on_c, 0, 59, 0
2, 18056, Note_on_c, 0, 73, 57
2, 18144, Note_on_c, 0, 71, 0
2, 18185, Note_on_c, 0, 73, 0
2, 18290, Note_on_c, 0, 59, 48
2, 18524, Note_on_c, 0, 53, 41
2, 18537, Note_on_c, 0, 70, 66
2, 18542, Note_on_c, 0, 61, 46
2, 18601, Control_c, 0, 64, 0
2, 18712, Control_c, 0, 64, 127
2, 18778, Note_on_c, 0, 49, 45
2, 18804, Note_on_c, 0, 61, 0
2, 18804, Note_on_c, 0, 53, 0
2, 18804, Note_on_c, 0, 59, 0
2, 18870, Note_on_c, 0, 70, 0
2, 18929, Note_on_c, 0, 49, 0
2, 18973, Note_on_c, 0, 30, 44
2, 18979, Note_on_c, 0, 42, 47
2, 18986, Note_on_c, 0, 58, 42
2, 18986, Note_on_c, 0, 66, 56
2, 18992, Control_c, 0, 64, 0
2, 19109, Control_c, 0, 64, 127
2, 19161, Note_on_c, 0, 49, 44
2, 19227, Note_on_c, 0, 58, 0
2, 19273, Note_on_c, 0, 42, 0
2, 19286, Note_on_c, 0, 30, 0
2, 19292, Note_on_c, 0, 54, 42
2, 19364, Note_on_c, 0, 49, 0
2, 19404, Note_on_c, 0, 58, 54
2, 19502, Note_on_c, 0, 54, 0
2, 19528, Note_on_c, 0, 63, 52
2, 19574, Note_on_c, 0, 58, 0
2, 19672, Note_on_c, 0, 63, 0
2, 19710, Note_on_c, 0, 61, 48
2, 19823, Note_on_c, 0, 58, 47
2, 19824, Note_on_c, 0, 61, 0
2, 19935, Note_on_c, 0, 58, 0
2, 19937, Note_on_c, 0, 54, 53
2, 20029, Note_on_c, 0, 44, 59
2, 20040, Note_on_c, 0, 32, 56
2, 20041, Control_c, 0, 64, 0
2, 20069, Note_on_c, 0, 54, 0
2, 20140, Control_c, 0, 64, 127
2, 20196, Note_on_c, 0, 53, 61
2, 20316, Note_on_c, 0, 66, 0
2, 20328, Note_on_c, 0, 59, 48
2, 20356, Note_on_c, 0, 32, 0
2, 20370, Note_on_c, 0, 44, 0
2, 20396, Note_on_c, 0, 53, 0
2, 20401, Note_on_c, 0, 65, 82
2, 20429, Control_c, 0, 67, 0
2, 20496, Note_on_c, 0, 59, 0
2, 20542, Note_on_c, 0, 63, 54
2, 20563, Note_on_c, 0, 65, 0
2, 20595, Note_on_c, 0, 63, 0
2, 20660, Note_on_c, 0, 66, 77
2, 20662, Note_on_c, 0, 63, 62
2, 20700, Note_on_c, 0, 63, 0
2, 20782, Note_on_c, 0, 63, 59
2, 20789, Note_on_c, 0, 66, 0
2, 20877, Note_on_c, 0, 59, 47
2, 20890, Note_on_c, 0, 63, 0
2, 20896, Note_on_c, 0, 68, 77
2, 20906, Note_on_c, 0, 65, 53
2, 20976, Note_on_c, 0, 53, 54
2, 21000, Note_on_c, 0, 59, 0
2, 21026, Note_on_c, 0, 65, 0
2, 21083, Control_c, 0, 64, 0
2, 21083, Note_on_c, 0, 34, 48
2, 21085, Note_on_c, 0, 70, 71
2, 21096, Note_on_c, 0, 46, 45
2, 21097, Note_on_c, 0, 53, 0
2, 21099, Note_on_c, 0, 62, 42
2, 21125, Note_on_c, 0, 68, 0
2, 21192, Control_c, 0, 64, 127
2, 21243, Note_on_c, 0, 53, 47
2, 21315, Note_on_c, 0, 62, 0
2, 21356, Note_on_c, 0, 34, 0
2, 21363, Note_on_c, 0, 58, 65
2, 21382, Note_on_c, 0, 46, 0
2, 21414, Note_on_c, 0, 53, 0
2, 21416, Note_on_c, 0, 70, 0
2, 21460, Note_on_c, 0, 62, 71
2, 21499, Note_on_c, 0, 58, 0
2, 21558, Note_on_c, 0, 66, 66
2, 21617, Note_on_c, 0, 62, 0
2, 21678, Note_on_c, 0, 65, 61
2, 21688, Note_on_c, 0, 66, 0
2, 21768, Note_on_c, 0, 62, 61
2, 21812, Note_on_c, 0, 65, 0
2, 21847, Note_on_c, 0, 58, 62
2, 21891, Note_on_c, 0, 62, 0
2, 21933, Note_on_c, 0, 41, 71
2, 21938, Control_c, 0, 64, 0
2, 21960, Note_on_c, 0, 58, 0
2, 22046, Control_c, 0, 64, 127
2, 22089, Note_on_c, 0, 51, 60
2, 22091, Note_on_c, 0, 71, 84
2, 22104, Note_on_c, 0, 68, 60
2, 22182, Note_on_c, 0, 56, 66
2, 22219, Note_on_c, 0, 71, 0
2, 22236, Note_on_c, 0, 73, 80
2, 22246, Note_on_c, 0, 68, 0
2, 22251, Note_on_c, 0, 70, 60
2, 22277, Note_on_c, 0, 41, 0
2, 22326, Note_on_c, 0, 59, 54
2, 22351, Note_on_c, 0, 73, 0
2, 22351, Note_on_c, 0, 75, 77
2, 22365, Note_on_c, 0, 71, 56
2, 22367, Note_on_c, 0, 70, 0
2, 22431, Note_on_c, 0, 77, 78
2, 22444, Note_on_c, 0, 73, 48
2, 22458, Note_on_c, 0, 75, 0
2, 22478, Note_on_c, 0, 71, 0
2, 22516, Note_on_c, 0, 82, 83
2, 22521, Control_c, 0, 64, 0
2, 22529, Note_on_c, 0, 66, 50
2, 22531, Note_on_c, 0, 77, 0
2, 22531, Note_on_c, 0, 78, 54
2, 22552, Note_on_c, 0, 73, 0
2, 22613, Control_c, 0, 64, 127
2, 22675, Note_on_c, 0, 65, 56
2, 22701, Note_on_c, 0, 66, 0
2, 22733, Note_on_c, 0, 59, 0
2, 22774, Note_on_c, 0, 82, 0
2, 22792, Note_on_c, 0, 78, 0
2, 22805, Note_on_c, 0, 65, 0
2, 22836, Note_on_c, 0, 56, 0
2, 22836, Note_on_c, 0, 59, 54
2, 22844, Note_on_c, 0, 51, 0
2, 22980, Note_on_c, 0, 59, 0
2, 22980, Note_on_c, 0, 56, 51
2, 23062, Note_on_c, 0, 80, 81
2, 23074, Note_on_c, 0, 77, 58
2, 23118, Note_on_c, 0, 56, 0
2, 23149, Note_on_c, 0, 34, 54
2, 23162, Control_c, 0, 64, 0
2, 23170, Note_on_c, 0, 46, 49
2, 23178, Note_on_c, 0, 74, 70
2, 23185, Note_on_c, 0, 80, 0
2, 23191, Note_on_c, 0, 70, 49
2, 23199, Note_on_c, 0, 77, 0
2, 23278, Control_c, 0, 64, 127
2, 23337, Note_on_c, 0, 53, 47
2, 23442, Note_on_c, 0, 34, 0
2, 23448, Note_on_c, 0, 58, 66
2, 23449, Note_on_c, 0, 46, 0
2, 23488, Note_on_c, 0, 53, 0
2, 23539, Note_on_c, 0, 62, 69
2, 23597, Note_on_c, 0, 58, 0
2, 23640, Note_on_c, 0, 66, 69
2, 23679, Note_on_c, 0, 62, 0
2, 23748, Note_on_c, 0, 65, 71
2, 23756, Note_on_c, 0, 66, 0
2, 23848, Note_on_c, 0, 62, 63
2, 23874, Note_on_c, 0, 65, 0
2, 23925, Note_on_c, 0, 58, 59
2, 23969, Note_on_c, 0, 62, 0
2, 24005, Note_on_c, 0, 44, 70
2, 24010, Control_c, 0, 64, 0
2, 24020, Note_on_c, 0, 58, 0
2, 24041, Note_on_c, 0, 74, 0
2, 24123, Control_c, 0, 64, 127
2, 24146, Note_on_c, 0, 53, 72
2, 24188, Note_on_c, 0, 70, 0
2, 24246, Note_on_c, 0, 70, 81
2, 24256, Note_on_c, 0, 58, 69
2, 24296, Note_on_c, 0, 44, 0
2, 24324, Note_on_c, 0, 53, 0
2, 24364, Note_on_c, 0, 62, 72
2, 24405, Note_on_c, 0, 70, 0
2, 24417, Note_on_c, 0, 58, 0
2, 24450, Note_on_c, 0, 66, 78
2, 24450, Note_on_c, 0, 70, 80
2, 24452, Note_on_c, 0, 72, 81
2, 24492, Note_on_c, 0, 62, 0
2, 24556, Note_on_c, 0, 65, 71
2, 24564, Note_on_c, 0, 66, 0
2, 24577, Note_on_c, 0, 72, 0
2, 24577, Note_on_c, 0, 70, 0
2, 24652, Note_on_c, 0, 74, 79
2, 24657, Note_on_c, 0, 62, 69
2, 24685, Note_on_c, 0, 65, 0
2, 24723, Note_on_c, 0, 58, 69
2, 24768, Note_on_c, 0, 62, 0
2, 24798, Control_c, 0, 64, 0
2, 24798, Note_on_c, 0, 42, 66
2, 24800, Note_on_c, 0, 58, 0
2, 24800, Note_on_c, 0, 54, 65
2, 24806, Note_on_c, 0, 66, 80
2, 24806, Note_on_c, 0, 70, 82
2, 24806, Note_on_c, 0, 75, 78
2, 24812, Note_on_c, 0, 74, 0
2, 24904, Control_c, 0, 64, 127
2, 24944, Note_on_c, 0, 58, 72
2, 25003, Note_on_c, 0, 70, 0
2, 25010, Note_on_c, 0, 66, 0
2, 25041, Note_on_c, 0, 63, 73
2, 25047, Note_on_c, 0, 54, 0
2, 25093, Note_on_c, 0, 42, 0
2, 25128, Note_on_c, 0, 58, 0
2, 25134, Note_on_c, 0, 66, 77
2, 25209, Note_on_c, 0, 63, 0
2, 25235, Note_on_c, 0, 71, 72
2, 25281, Note_on_c, 0, 66, 0
2, 25337, Note_on_c, 0, 70, 78
2, 25343, Note_on_c, 0, 71, 0
2, 25417, Note_on_c, 0, 66, 70
2, 25450, Note_on_c, 0, 70, 0
2, 25483, Note_on_c, 0, 63, 70
2, 25529, Note_on_c, 0, 66, 0
2, 25570, Note_on_c, 0, 36, 77
2, 25570, Note_on_c, 0, 48, 84
2, 25576, Control_c, 0, 64, 0
2, 25582, Note_on_c, 0, 63, 0
2, 25669, Control_c, 0, 64, 127
2, 25728, Note_on_c, 0, 75, 0
2, 25728, Note_on_c, 0, 58, 73
2, 25728, Note_on_c, 0, 77, 83
2, 25740, Note_on_c, 0, 70, 53
2, 25820, Note_on_c, 0, 63, 71
2, 25830, Note_on_c, 0, 36, 0
2, 25838, Note_on_c, 0, 77, 0
2, 25844, Note_on_c, 0, 78, 81
2, 25856, Note_on_c, 0, 48, 0
2, 25856, Note_on_c, 0, 75, 59
2, 25870, Note_on_c, 0, 70, 0
2, 25913, Note_on_c, 0, 58, 0
2, 25945, Note_on_c, 0, 66, 72
2, 25945, Note_on_c, 0, 77, 75
2, 25945, Note_on_c, 0, 80, 76
2, 25953, Note_on_c, 0, 78, 0
2, 25961, Note_on_c, 0, 75, 0
2, 25967, Note_on_c, 0, 63, 0
2, 26007, Note_on_c, 0, 77, 0
2, 26009, Note_on_c, 0, 80, 0
2, 26014, Note_on_c, 0, 78, 79
2, 26014, Note_on_c, 0, 82, 78
2, 26065, Note_on_c, 0, 73, 84
2, 26065, Note_on_c, 0, 85, 84
2, 26065, Note_on_c, 0, 89, 80
2, 26101, Note_on_c, 0, 66, 0
2, 26113, Note_on_c, 0, 82, 0
2, 26121, Note_on_c, 0, 78, 0
2, 26211, Note_on_c, 0, 73, 0
2, 26211, Note_on_c, 0, 72, 79
2, 26217, Note_on_c, 0, 89, 0
2, 26217, Note_on_c, 0, 85, 0
2, 26300, Note_on_c, 0, 66, 66
2, 26363, Note_on_c, 0, 72, 0
2, 26380, Note_on_c, 0, 63, 61
2, 26440, Note_on_c, 0, 66, 0
2, 26458, Note_on_c, 0, 84, 82
2, 26458, Note_on_c, 0, 87, 82
2, 26504, Note_on_c, 0, 41, 71
2, 26522, Note_on_c, 0, 77, 77
2, 26522, Note_on_c, 0, 81, 73
2, 26524, Note_on_c, 0, 63, 0
2, 26524, Control_c, 0, 64, 0
2, 26532, Note_on_c, 0, 84, 0
2, 26532, Note_on_c, 0, 87, 0
2, 26638, Note_on_c, 0, 48, 66
2, 26678, Control_c, 0, 64, 127
2, 26730, Note_on_c, 0, 57, 67
2, 26805, Note_on_c, 0, 60, 75
2, 26877, Note_on_c, 0, 48, 0
2, 26882, Note_on_c, 0, 41, 0
2, 26888, Note_on_c, 0, 69, 75
2, 26902, Note_on_c, 0, 57, 0
2, 26922, Note_on_c, 0, 60, 0
2, 26968, Note_on_c, 0, 60, 65
2, 27022, Note_on_c, 0, 69, 0
2, 27054, Note_on_c, 0, 57, 71
2, 27105, Note_on_c, 0, 60, 0
2, 27128, Note_on_c, 0, 48, 69
2, 27174, Note_on_c, 0, 57, 0
2, 27218, Control_c, 0, 64, 0
2, 27224, Note_on_c, 0, 45, 74
2, 27230, Note_on_c, 0, 33, 78
2, 27232, Note_on_c, 0, 48, 0
2, 27253, Note_on_c, 0, 81, 0
2, 27253, Note_on_c, 0, 77, 0
2, 27336, Control_c, 0, 64, 127
2, 27351, Note_on_c, 0, 54, 75
2, 27432, Note_on_c, 0, 78, 76
2, 27438, Note_on_c, 0, 87, 71
2, 27438, Note_on_c, 0, 90, 76
2, 27446, Note_on_c, 0, 63, 78
2, 27497, Note_on_c, 0, 45, 0
2, 27517, Note_on_c, 0, 33, 0
2, 27522, Note_on_c, 0, 54, 0
2, 27540, Note_on_c, 0, 66, 77
2, 27565, Note_on_c, 0, 87, 0
2, 27565, Note_on_c, 0, 63, 0
2, 27571, Note_on_c, 0, 78, 0
2, 27576, Note_on_c, 0, 90, 0
2, 27641, Note_on_c, 0, 75, 82
2, 27641, Note_on_c, 0, 77, 81
2, 27641, Note_on_c, 0, 85, 78
2, 27641, Note_on_c, 0, 89, 79
2, 27661, Note_on_c, 0, 66, 0
2, 27740, Note_on_c, 0, 66, 78
2, 27749, Note_on_c, 0, 75, 0
2, 27755, Note_on_c, 0, 77, 0
2, 27760, Note_on_c, 0, 89, 0
2, 27762, Note_on_c, 0, 85, 0
2, 27826, Note_on_c, 0, 63, 73
2, 27826, Note_on_c, 0, 75, 83
2, 27826, Note_on_c, 0, 84, 78
2, 27826, Note_on_c, 0, 87, 79
2, 27859, Note_on_c, 0, 66, 0
2, 27905, Note_on_c, 0, 54, 74
2, 27923, Note_on_c, 0, 63, 0
2, 27931, Note_on_c, 0, 84, 0
2, 27938, Note_on_c, 0, 75, 0
2, 27979, Note_on_c, 0, 54, 0
2, 27984, Note_on_c, 0, 34, 72
2, 27986, Control_c, 0, 64, 0
2, 27989, Note_on_c, 0, 85, 73
2, 27991, Note_on_c, 0, 46, 77
2, 27991, Note_on_c, 0, 77, 76
2, 27991, Note_on_c, 0, 89, 78
2, 28117, Note_on_c, 0, 53, 71
2, 28123, Control_c, 0, 64, 127
2, 28136, Note_on_c, 0, 87, 0
2, 28164, Note_on_c, 0, 77, 0
2, 28182, Note_on_c, 0, 89, 0
2, 28188, Note_on_c, 0, 85, 0
2, 28208, Note_on_c, 0, 75, 73
2, 28208, Note_on_c, 0, 84, 75
2, 28208, Note_on_c, 0, 87, 75
2, 28216, Note_on_c, 0, 61, 71
2, 28249, Note_on_c, 0, 87, 0
2, 28249, Note_on_c, 0, 75, 0
2, 28249, Note_on_c, 0, 84, 0
2, 28263, Note_on_c, 0, 34, 0
2, 28269, Note_on_c, 0, 46, 0
2, 28274, Note_on_c, 0, 77, 75
2, 28274, Note_on_c, 0, 85, 75
2, 28274, Note_on_c, 0, 89, 73
2, 28300, Note_on_c, 0, 65, 74
2, 28306, Note_on_c, 0, 53, 0
2, 28312, Note_on_c, 0, 89, 0
2, 28312, Note_on_c, 0, 85, 0
2, 28327, Note_on_c, 0, 77, 0
2, 28330, Note_on_c, 0, 87, 74
2, 28332, Note_on_c, 0, 84, 71
2, 28334, Note_on_c, 0, 75, 74
2, 28365, Note_on_c, 0, 61, 0
2, 28370, Note_on_c, 0, 84, 0
2, 28370, Note_on_c, 0, 75, 0
2, 28370, Note_on_c, 0, 87, 0
2, 28375, Note_on_c, 0, 85, 80
2, 28377, Note_on_c, 0, 73, 77
2, 28377, Note_on_c, 0, 82, 81
2, 28405, Note_on_c, 0, 65, 0
2, 28462, Note_on_c, 0, 65, 62
2, 28538, Note_on_c, 0, 61, 62
2, 28597, Note_on_c, 0, 65, 0
2, 28610, Note_on_c, 0, 53, 70
2, 28654, Note_on_c, 0, 61, 0
2, 28712, Note_on_c, 0, 29, 71
2, 28712, Note_on_c, 0, 41, 78
2, 28714, Control_c, 0, 64, 0
2, 28727, Note_on_c, 0, 53, 0
2, 28831, Control_c, 0, 64, 127
2, 28857, Note_on_c, 0, 50, 68
2, 28947, Note_on_c, 0, 82, 0
2, 28968, Note_on_c, 0, 85, 0
2, 28968, Note_on_c, 0, 59, 71
2, 28968, Note_on_c, 0, 83, 77
2, 28969, Note_on_c, 0, 73, 0
2, 28974, Note_on_c, 0, 71, 77
2, 28974, Note_on_c, 0, 80, 77
2, 28990, Note_on_c, 0, 41, 0
2, 28990, Note_on_c, 0, 29, 0
2, 29022, Note_on_c, 0, 50, 0
2, 29073, Note_on_c, 0, 62, 66
2, 29086, Note_on_c, 0, 83, 0
2, 29093, Note_on_c, 0, 80, 0
2, 29107, Note_on_c, 0, 71, 0
2, 29135, Note_on_c, 0, 59, 0
2, 29158, Note_on_c, 0, 70, 71
2, 29158, Note_on_c, 0, 78, 76
2, 29158, Note_on_c, 0, 82, 73
2, 29165, Note_on_c, 0, 71, 71
2, 29193, Note_on_c, 0, 62, 0
2, 29270, Note_on_c, 0, 82, 0
2, 29270, Note_on_c, 0, 70, 0
2, 29276, Note_on_c, 0, 62, 64
2, 29281, Note_on_c, 0, 78, 0
2, 29297, Note_on_c, 0, 71, 0
2, 29372, Note_on_c, 0, 80, 73
2, 29376, Note_on_c, 0, 77, 72
2, 29378, Note_on_c, 0, 68, 72
2, 29380, Note_on_c, 0, 59, 68
2, 29399, Note_on_c, 0, 62, 0
2, 29457, Note_on_c, 0, 50, 66
2, 29498, Note_on_c, 0, 68, 0
2, 29498, Note_on_c, 0, 77, 0
2, 29508, Note_on_c, 0, 59, 0
2, 29556, Note_on_c, 0, 78, 71
2, 29558, Note_on_c, 0, 70, 71
2, 29564, Note_on_c, 0, 42, 72
2, 29564, Note_on_c, 0, 82, 72
2, 29566, Note_on_c, 0, 50, 0
2, 29566, Control_c, 0, 64, 0
2, 29571, Note_on_c, 0, 30, 75
2, 29590, Note_on_c, 0, 80, 0
2, 29661, Control_c, 0, 64, 127
2, 29699, Note_on_c, 0, 51, 71
2, 29776, Note_on_c, 0, 78, 0
2, 29789, Note_on_c, 0, 82, 0
2, 29795, Note_on_c, 0, 70, 0
2, 29800, Note_on_c, 0, 58, 65
2, 29806, Note_on_c, 0, 68, 73
2, 29806, Note_on_c, 0, 77, 72
2, 29806, Note_on_c, 0, 80, 76
2, 29821, Note_on_c, 0, 42, 0
2, 29841, Note_on_c, 0, 30, 0
2, 29846, Note_on_c, 0, 77, 0
2, 29846, Note_on_c, 0, 68, 0
2, 29846, Note_on_c, 0, 80, 0
2, 29858, Note_on_c, 0, 70, 75
2, 29858, Note_on_c, 0, 78, 75
2, 29858, Note_on_c, 0, 82, 75
2, 29868, Note_on_c, 0, 51, 0
2, 29879, Note_on_c, 0, 63, 71
2, 29899, Note_on_c, 0, 78, 0
2, 29899, Note_on_c, 0, 70, 0
2, 29911, Note_on_c, 0, 77, 77
2, 29911, Note_on_c, 0, 80, 73
2, 29914, Note_on_c, 0, 82, 0
2, 29914, Note_on_c, 0, 68, 76
2, 29932, Note_on_c, 0, 58, 0
2, 29952, Note_on_c, 0, 80, 0
2, 29952, Note_on_c, 0, 77, 0
2, 29958, Note_on_c, 0, 78, 72
2, 29966, Note_on_c, 0, 66, 76
2, 29966, Note_on_c, 0, 70, 78
2, 29971, Note_on_c, 0, 75, 72
2, 29974, Note_on_c, 0, 68, 0
2, 29992, Note_on_c, 0, 63, 0
2, 30044, Note_on_c, 0, 63, 71
2, 30105, Note_on_c, 0, 70, 0
2, 30131, Note_on_c, 0, 58, 70
2, 30187, Note_on_c, 0, 63, 0
2, 30197, Note_on_c, 0, 51, 66
2, 30245, Note_on_c, 0, 58, 0
2, 30279, Note_on_c, 0, 51, 0
2, 30285, Control_c, 0, 64, 0
2, 30290, Note_on_c, 0, 44, 83
2, 30296, Note_on_c, 0, 32, 79
2, 30393, Control_c, 0, 64, 127
2, 30406, Note_on_c, 0, 53, 65
2, 30501, Note_on_c, 0, 77, 75
2, 30503, Note_on_c, 0, 78, 0
2, 30508, Note_on_c, 0, 59, 67
2, 30508, Note_on_c, 0, 68, 74
2, 30510, Note_on_c, 0, 75, 0
2, 30516, Note_on_c, 0, 66, 0
2, 30547, Note_on_c, 0, 44, 0
2, 30567, Note_on_c, 0, 32, 0
2, 30587, Note_on_c, 0, 53, 0
2, 30600, Note_on_c, 0, 63, 69
2, 30632, Note_on_c, 0, 77, 0
2, 30640, Note_on_c, 0, 68, 0
2, 30666, Note_on_c, 0, 59, 0
2, 30691, Note_on_c, 0, 75, 84
2, 30700, Note_on_c, 0, 66, 79
2, 30700, Note_on_c, 0, 71, 79
2, 30726, Note_on_c, 0, 63, 0
2, 30798, Note_on_c, 0, 63, 67
2, 30824, Note_on_c, 0, 75, 0
2, 30832, Note_on_c, 0, 71, 0
2, 30844, Note_on_c, 0, 66, 0
2, 30904, Note_on_c, 0, 59, 67
2, 30924, Note_on_c, 0, 74, 75
2, 30932, Note_on_c, 0, 63, 0
2, 30932, Note_on_c, 0, 65, 78
2, 30978, Note_on_c, 0, 53, 66
2, 31036, Note_on_c, 0, 59, 0
2, 31042, Note_on_c, 0, 71, 77
2, 31048, Note_on_c, 0, 74, 0
2, 31048, Note_on_c, 0, 65, 0
2, 31060, Note_on_c, 0, 46, 64
2, 31104, Note_on_c, 0, 34, 62
2, 31106, Note_on_c, 0, 53, 0
2, 31112, Control_c, 0, 64, 0
2, 31152, Note_on_c, 0, 46, 0
2, 31158, Note_on_c, 0, 80, 78
2, 31224, Control_c, 0, 64, 127
2, 31281, Note_on_c, 0, 46, 60
2, 31383, Note_on_c, 0, 54, 75
2, 31403, Note_on_c, 0, 71, 0
2, 31409, Note_on_c, 0, 34, 0
2, 31409, Note_on_c, 0, 80, 0
2, 31445, Note_on_c, 0, 46, 0
2, 31478, Note_on_c, 0, 63, 77
2, 31541, Note_on_c, 0, 54, 0
2, 31561, Note_on_c, 0, 78, 77
2, 31574, Note_on_c, 0, 70, 62
2, 31594, Note_on_c, 0, 63, 0
2, 31645, Note_on_c, 0, 63, 65
2, 31735, Note_on_c, 0, 54, 68
2, 31761, Note_on_c, 0, 63, 0
2, 31818, Note_on_c, 0, 46, 66
2, 31870, Note_on_c, 0, 54, 0
2, 31908, Control_c, 0, 64, 0
2, 31913, Note_on_c, 0, 34, 84
2, 31941, Note_on_c, 0, 46, 0
2, 32017, Control_c, 0, 64, 127
2, 32017, Note_on_c, 0, 46, 73
2, 32119, Note_on_c, 0, 78, 0
2, 32133, Note_on_c, 0, 56, 74
2, 32133, Note_on_c, 0, 68, 77
2, 32133, Note_on_c, 0, 77, 80
2, 32135, Note_on_c, 0, 70, 0
2, 32173, Note_on_c, 0, 34, 0
2, 32207, Note_on_c, 0, 46, 0
2, 32232, Note_on_c, 0, 78, 78
2, 32239, Note_on_c, 0, 68, 0
2, 32239, Note_on_c, 0, 77, 0
2, 32239, Note_on_c, 0, 70, 79
2, 32253, Note_on_c, 0, 62, 74
2, 32271, Note_on_c, 0, 78, 0
2, 32289, Note_on_c, 0, 56, 0
2, 32289, Note_on_c, 0, 70, 0
2, 32295, Note_on_c, 0, 77, 79
2, 32308, Note_on_c, 0, 68, 81
2, 32344, Note_on_c, 0, 66, 84
2, 32346, Note_on_c, 0, 70, 80
2, 32346, Note_on_c, 0, 75, 81
2, 32353, Note_on_c, 0, 68, 0
2, 32353, Note_on_c, 0, 77, 0
2, 32379, Note_on_c, 0, 62, 0
2, 32482, Note_on_c, 0, 62, 72
2, 32484, Note_on_c, 0, 66, 0
2, 32496, Note_on_c, 0, 70, 0
2, 32496, Note_on_c, 0, 75, 0
2, 32593, Note_on_c, 0, 62, 0
2, 32593, Note_on_c, 0, 56, 72
2, 32721, Note_on_c, 0, 56, 0
2, 32738, Note_on_c, 0, 46, 71
2, 32826, Note_on_c, 0, 74, 75
2, 32832, Note_on_c, 0, 65, 77
2, 32882, Note_on_c, 0, 46, 0
2, 32908, Note_on_c, 0, 66, 75
2, 32908, Note_on_c, 0, 75, 71
2, 32914, Control_c, 0, 64, 0
2, 32920, Note_on_c, 0, 39, 82
2, 32926, Note_on_c, 0, 27, 79
2, 32928, Note_on_c, 0, 65, 0
2, 32928, Note_on_c, 0, 74, 0
2, 33028, Control_c, 0, 64, 127
2, 33088, Note_on_c, 0, 46, 74
2, 33197, Note_on_c, 0, 54, 74
2, 33220, Note_on_c, 0, 46, 0
2, 33264, Note_on_c, 0, 27, 0
2, 33265, Note_on_c, 0, 39, 0
2, 33267, Note_on_c, 0, 66, 0
2, 33280, Note_on_c, 0, 75, 0
2, 33290, Note_on_c, 0, 63, 75
2, 33342, Note_on_c, 0, 54, 0
2, 33401, Note_on_c, 0, 78, 77
2, 33407, Note_on_c, 0, 70, 79
2, 33420, Note_on_c, 0, 63, 0
2, 33522, Note_on_c, 0, 63, 71
2, 33624, Note_on_c, 0, 54, 66
2, 33637, Note_on_c, 0, 63, 0
2, 33740, Note_on_c, 0, 46, 60
2, 33755, Note_on_c, 0, 54, 0
2, 33861, Control_c, 0, 64, 0
2, 33863, Note_on_c, 0, 46, 0
2, 33863, Note_on_c, 0, 39, 66
2, 33865, Note_on_c, 0, 27, 67
2, 33963, Control_c, 0, 64, 127
2, 34007, Note_on_c, 0, 47, 67
2, 34142, Note_on_c, 0, 47, 0
2, 34142, Note_on_c, 0, 70, 0
2, 34147, Note_on_c, 0, 56, 69
2, 34149, Note_on_c, 0, 39, 0
2, 34154, Note_on_c, 0, 27, 0
2, 34154, Note_on_c, 0, 68, 65
2, 34154, Note_on_c, 0, 77, 71
2, 34164, Note_on_c, 0, 78, 0
2, 34241, Note_on_c, 0, 70, 66
2, 34241, Note_on_c, 0, 78, 72
2, 34254, Note_on_c, 0, 68, 0
2, 34260, Note_on_c, 0, 77, 0
2, 34272, Note_on_c, 0, 56, 0
2, 34293, Note_on_c, 0, 62, 66
2, 34298, Note_on_c, 0, 70, 0
2, 34298, Note_on_c, 0, 68, 75
2, 34298, Note_on_c, 0, 77, 74
2, 34300, Note_on_c, 0, 78, 0
2, 34339, Note_on_c, 0, 68, 0
2, 34344, Note_on_c, 0, 66, 71
2, 34345, Note_on_c, 0, 75, 72
2, 34355, Note_on_c, 0, 77, 0
2, 34386, Note_on_c, 0, 66, 0
2, 34395, Note_on_c, 0, 68, 75
2, 34395, Note_on_c, 0, 77, 78
2, 34401, Note_on_c, 0, 75, 0
2, 34409, Note_on_c, 0, 68, 0
2, 34435, Note_on_c, 0, 62, 0
2, 34440, Note_on_c, 0, 68, 80
2, 34440, Note_on_c, 0, 70, 78
2, 34440, Note_on_c, 0, 78, 83
2, 34475, Note_on_c, 0, 77, 0
2, 34558, Note_on_c, 0, 68, 0
2, 34571, Note_on_c, 0, 62, 66
2, 34591, Note_on_c, 0, 70, 0
2, 34599, Note_on_c, 0, 78, 0
2, 34697, Note_on_c, 0, 56, 66
2, 34699, Note_on_c, 0, 62, 0
2, 34814, Note_on_c, 0, 56, 0
2, 34845, Note_on_c, 0, 47, 64
2, 34886, Note_on_c, 0, 68, 84
2, 34888, Note_on_c, 0, 77, 80
2, 34970, Note_on_c, 0, 47, 0
2, 35006, Control_c, 0, 64, 0
2, 35008, Note_on_c, 0, 39, 72
2, 35018, Note_on_c, 0, 27, 66
2, 35115, Control_c, 0, 64, 127
2, 35177, Note_on_c, 0, 46, 60
2, 35228, Note_on_c, 0, 74, 81
2, 35240, Note_on_c, 0, 65, 61
2, 35242, Note_on_c, 0, 77, 0
2, 35247, Note_on_c, 0, 68, 0
2, 35328, Note_on_c, 0, 54, 63
2, 35342, Note_on_c, 0, 46, 0
2, 35362, Note_on_c, 0, 74, 0
2, 35365, Note_on_c, 0, 39, 0
2, 35368, Note_on_c, 0, 65, 0
2, 35373, Note_on_c, 0, 27, 0
2, 35440, Note_on_c, 0, 63, 62
2, 35452, Note_on_c, 0, 66, 71
2, 35452, Note_on_c, 0, 75, 71
2, 35458, Note_on_c, 0, 54, 0
2, 35491, Note_on_c, 0, 66, 0
2, 35504, Note_on_c, 0, 75, 0
2, 35504, Note_on_c, 0, 68, 73
2, 35504, Note_on_c, 0, 77, 72
2, 35548, Note_on_c, 0, 75, 74
2, 35554, Note_on_c, 0, 66, 72
2, 35554, Note_on_c, 0, 70, 78
2, 35556, Note_on_c, 0, 77, 0
2, 35556, Note_on_c, 0, 68, 0
2, 35562, Note_on_c, 0, 63, 0
2, 35657, Note_on_c, 0, 63, 64
2, 35678, Note_on_c, 0, 70, 0
2, 35750, Note_on_c, 0, 54, 65
2, 35793, Note_on_c, 0, 63, 0
2, 35841, Note_on_c, 0, 46, 72
2, 35875, Note_on_c, 0, 54, 0
2, 35941, Note_on_c, 0, 39, 68
2, 35956, Note_on_c, 0, 46, 0
2, 35966, Control_c, 0, 64, 0
2, 36061, Note_on_c, 0, 46, 54
2, 36112, Note_on_c, 0, 61, 63
2, 36112, Note_on_c, 0, 70, 84
2, 36115, Note_on_c, 0, 75, 0
2, 36127, Note_on_c, 0, 66, 0
2, 36156, Control_c, 0, 64, 127
2, 36246, Note_on_c, 0, 55, 65
2, 36318, Note_on_c, 0, 61, 0
2, 36338, Note_on_c, 0, 70, 0
2, 36343, Note_on_c, 0, 39, 0
2, 36371, Note_on_c, 0, 46, 0
2, 36392, Note_on_c, 0, 71, 82
2, 36397, Note_on_c, 0, 61, 66
2, 36397, Note_on_c, 0, 63, 65
2, 36535, Note_on_c, 0, 63, 0
2, 36563, Note_on_c, 0, 64, 59
2, 36565, Control_c, 0, 64, 0
2, 36568, Note_on_c, 0, 73, 74
2, 36580, Note_on_c, 0, 67, 58
2, 36582, Note_on_c, 0, 71, 0
2, 36587, Note_on_c, 0, 61, 0
2, 36676, Control_c, 0, 64, 127
2, 36701, Note_on_c, 0, 58, 55
2, 36750, Note_on_c, 0, 55, 0
2, 36752, Note_on_c, 0, 67, 0
2, 36809, Note_on_c, 0, 55, 53
2, 36830, Note_on_c, 0, 58, 0
2, 36917, Note_on_c, 0, 46, 60
2, 36953, Note_on_c, 0, 55, 0
2, 37028, Note_on_c, 0, 32, 60
2, 37041, Control_c, 0, 64, 0
2, 37043, Note_on_c, 0, 46, 0
2, 37143, Control_c, 0, 64, 127
2, 37192, Note_on_c, 0, 44, 59
2, 37205, Note_on_c, 0, 75, 79
2, 37218, Note_on_c, 0, 66, 41
2, 37230, Note_on_c, 0, 73, 0
2, 37238, Note_on_c, 0, 64, 0
2, 37279, Note_on_c, 0, 32, 0
2, 37307, Note_on_c, 0, 64, 59
2, 37309, Note_on_c, 0, 73, 77
2, 37322, Note_on_c, 0, 75, 0
2, 37328, Note_on_c, 0, 66, 0
2, 37376, Note_on_c, 0, 51, 59
2, 37379, Note_on_c, 0, 63, 54
2, 37385, Note_on_c, 0, 71, 73
2, 37392, Control_c, 0, 64, 0
2, 37405, Note_on_c, 0, 73, 0
2, 37411, Note_on_c, 0, 64, 0
2, 37506, Control_c, 0, 64, 127
2, 37515, Note_on_c, 0, 59, 60
2, 37594, Note_on_c, 0, 44, 0
2, 37648, Note_on_c, 0, 68, 69
2, 37656, Note_on_c, 0, 63, 0
2, 37660, Note_on_c, 0, 59, 0
2, 37673, Note_on_c, 0, 51, 0
2, 37745, Note_on_c, 0, 71, 0
2, 37766, Note_on_c, 0, 68, 0
2, 37787, Note_on_c, 0, 59, 51
2, 37915, Note_on_c, 0, 51, 47
2, 37920, Note_on_c, 0, 59, 0
2, 37954, Note_on_c, 0, 61, 54
2, 37954, Note_on_c, 0, 70, 76
2, 38039, Note_on_c, 0, 51, 0
2, 38049, Note_on_c, 0, 44, 43
2, 38182, Control_c, 0, 64, 0
2, 38182, Note_on_c, 0, 34, 59
2, 38309, Control_c, 0, 64, 127
2, 38351, Note_on_c, 0, 46, 55
2, 38391, Note_on_c, 0, 44, 0
2, 38449, Note_on_c, 0, 34, 0
2, 38451, Note_on_c, 0, 70, 0
2, 38457, Note_on_c, 0, 61, 0
2, 38524, Note_on_c, 0, 56, 45
2, 38537, Note_on_c, 0, 59, 43
2, 38537, Note_on_c, 0, 68, 69
2, 38543, Control_c, 0, 64, 0
2, 38596, Control_c, 0, 67, 127
2, 38647, Control_c, 0, 64, 127
2, 38714, Note_on_c, 0, 62, 52
2, 38728, Note_on_c, 0, 46, 0
2, 38791, Note_on_c, 0, 56, 0
2, 38791, Note_on_c, 0, 59, 0
2, 38851, Note_on_c, 0, 68, 0
2, 38851, Note_on_c, 0, 62, 0
2, 38889, Note_on_c, 0, 70, 61
2, 39007, Note_on_c, 0, 70, 0
2, 39090, Note_on_c, 0, 62, 56
2, 39320, Note_on_c, 0, 56, 47
2, 39328, Note_on_c, 0, 66, 65
2, 39340, Note_on_c, 0, 58, 48
2, 39346, Control_c, 0, 64, 0
2, 39456, Control_c, 0, 64, 127
2, 39588, Note_on_c, 0, 62, 0
2, 39605, Note_on_c, 0, 46, 41
2, 39639, Note_on_c, 0, 58, 0
2, 39664, Note_on_c, 0, 56, 0
2, 39730, Note_on_c, 0, 66, 0
2, 39767, Note_on_c, 0, 46, 0
2, 39966, Note_on_c, 0, 63, 43
2, 39979, Note_on_c, 0, 39, 47
2, 39979, Note_on_c, 0, 54, 42
2, 39984, Control_c, 0, 64, 0
2, 39995, Note_on_c, 0, 27, 42
2, 40098, Control_c, 0, 64, 127
2, 40242, Note_on_c, 0, 46, 45
2, 40252, Note_on_c, 0, 54, 0
2, 40309, Note_on_c, 0, 27, 0
2, 40315, Note_on_c, 0, 63, 0
2, 40328, Note_on_c, 0, 39, 0
2, 40388, Note_on_c, 0, 54, 44
2, 40403, Note_on_c, 0, 46, 0
2, 40503, Note_on_c, 0, 63, 41
2, 40543, Note_on_c, 0, 54, 0
2, 40620, Note_on_c, 0, 70, 50
2, 40637, Note_on_c, 0, 63, 0
2, 40717, Note_on_c, 0, 63, 48
2, 40742, Note_on_c, 0, 70, 0
2, 40821, Note_on_c, 0, 54, 51
2, 40847, Note_on_c, 0, 63, 0
2, 40914, Note_on_c, 0, 46, 47
2, 40954, Note_on_c, 0, 54, 0
2, 41023, Note_on_c, 0, 39, 51
2, 41036, Note_on_c, 0, 27, 44
2, 41049, Note_on_c, 0, 46, 0
2, 41146, Note_on_c, 0, 46, 46
2, 41206, Note_on_c, 0, 27, 0
2, 41210, Note_on_c, 0, 39, 0
2, 41258, Note_on_c, 0, 54, 43
2, 41303, Note_on_c, 0, 46, 0
2, 41376, Note_on_c, 0, 63, 46
2, 41418, Note_on_c, 0, 54, 0
2, 41513, Note_on_c, 0, 63, 0
2, 41518, Note_on_c, 0, 70, 53
2, 41650, Note_on_c, 0, 63, 45
2, 41681, Note_on_c, 0, 70, 0
2, 41802, Note_on_c, 0, 54, 43
2, 41942, Note_on_c, 0, 54, 0
2, 41975, Note_on_c, 0, 46, 45
2, 42136, Note_on_c, 0, 46, 0
2, 42211, Note_on_c, 0, 30, 46
2, 42264, Note_on_c, 0, 42, 43
2, 42274, Control_c, 0, 64, 0
2, 42284, Note_on_c, 0, 75, 46
2, 42299, Note_on_c, 0, 70, 42
2, 42401, Control_c, 0, 64, 127
2, 42460, Note_on_c, 0, 63, 0
2, 42485, Note_on_c, 0, 73, 43
2, 42496, Note_on_c, 0, 66, 47
2, 42509, Note_on_c, 0, 75, 0
2, 42509, Note_on_c, 0, 70, 0
2, 42576, Note_on_c, 0, 30, 0
2, 42581, Note_on_c, 0, 42, 0
2, 42648, Note_on_c, 0, 49, 71
2, 42648, Note_on_c, 0, 75, 49
2, 42661, Note_on_c, 0, 73, 0
2, 42663, Note_on_c, 0, 70, 45
2, 42669, Note_on_c, 0, 66, 0
2, 42763, Note_on_c, 0, 75, 0
2, 42775, Note_on_c, 0, 70, 0
2, 42789, Note_on_c, 0, 73, 41
2, 42801, Note_on_c, 0, 66, 47
2, 42896, Note_on_c, 0, 73, 0
2, 42916, Note_on_c, 0, 66, 0
2, 42953, Note_on_c, 0, 58, 72
2, 42953, Note_on_c, 0, 80, 52
2, 42965, Note_on_c, 0, 73, 46
2, 43013, Control_c, 0, 64, 0
2, 43078, Note_on_c, 0, 78, 42
2, 43090, Note_on_c, 0, 70, 42
2, 43096, Note_on_c, 0, 73, 0
2, 43096, Note_on_c, 0, 80, 0
2, 43117, Control_c, 0, 64, 127
2, 43143, Note_on_c, 0, 49, 0
2, 43176, Note_on_c, 0, 80, 48
2, 43188, Note_on_c, 0, 73, 42
2, 43196, Note_on_c, 0, 70, 0
2, 43196, Note_on_c, 0, 78, 0
2, 43234, Note_on_c, 0, 78, 49
2, 43247, Note_on_c, 0, 70, 48
2, 43275, Note_on_c, 0, 80, 0
2, 43288, Note_on_c, 0, 70, 0
2, 43301, Note_on_c, 0, 73, 0
2, 43319, Note_on_c, 0, 75, 53
2, 43332, Note_on_c, 0, 70, 47
2, 43345, Note_on_c, 0, 78, 0
2, 43382, Note_on_c, 0, 73, 48
2, 43395, Note_on_c, 0, 66, 41
2, 43401, Note_on_c, 0, 75, 0
2, 43414, Note_on_c, 0, 70, 0
2, 43441, Note_on_c, 0, 73, 0
2, 43441, Note_on_c, 0, 75, 50
2, 43454, Note_on_c, 0, 70, 48
2, 43474, Note_on_c, 0, 66, 0
2, 43499, Note_on_c, 0, 73, 55
2, 43507, Note_on_c, 0, 75, 0
2, 43512, Note_on_c, 0, 66, 42
2, 43525, Note_on_c, 0, 73, 0
2, 43538, Note_on_c, 0, 66, 0
2, 43552, Note_on_c, 0, 70, 0
2, 43562, Note_on_c, 0, 56, 78
2, 43562, Note_on_c, 0, 73, 58
2, 43575, Note_on_c, 0, 66, 44
2, 43583, Control_c, 0, 64, 0
2, 43595, Note_on_c, 0, 58, 0
2, 43644, Note_on_c, 0, 71, 50
2, 43652, Note_on_c, 0, 63, 53
2, 43682, Note_on_c, 0, 73, 0
2, 43682, Control_c, 0, 64, 127
2, 43701, Note_on_c, 0, 66, 0
2, 43708, Note_on_c, 0, 71, 0
2, 43721, Note_on_c, 0, 63, 0
2, 43726, Note_on_c, 0, 73, 54
2, 43728, Control_c, 0, 64, 0
2, 43733, Note_on_c, 0, 51, 72
2, 43733, Note_on_c, 0, 66, 53
2, 43800, Note_on_c, 0, 63, 59
2, 43800, Note_on_c, 0, 71, 53
2, 43821, Note_on_c, 0, 71, 0
2, 43826, Note_on_c, 0, 73, 0
2, 43840, Note_on_c, 0, 66, 0
2, 43845, Note_on_c, 0, 56, 0
2, 43857, Note_on_c, 0, 68, 56
2, 43857, Note_on_c, 0, 71, 59
2, 43865, Note_on_c, 0, 54, 73
2, 43872, Note_on_c, 0, 63, 0
2, 43909, Note_on_c, 0, 51, 0
2, 43917, Note_on_c, 0, 68, 0
2, 43921, Note_on_c, 0, 71, 0
2, 43934, Note_on_c, 0, 70, 57
2, 43942, Note_on_c, 0, 63, 49
2, 43963, Control_c, 0, 64, 127
2, 44014, Note_on_c, 0, 71, 60
2, 44027, Note_on_c, 0, 68, 43
2, 44040, Note_on_c, 0, 70, 0
2, 44049, Note_on_c, 0, 63, 0
2, 44088, Note_on_c, 0, 63, 47
2, 44088, Note_on_c, 0, 70, 54
2, 44089, Note_on_c, 0, 71, 0
2, 44136, Note_on_c, 0, 70, 0
2, 44136, Note_on_c, 0, 68, 0
2, 44177, Note_on_c, 0, 70, 48
2, 44192, Note_on_c, 0, 53, 47
2, 44206, Note_on_c, 0, 62, 43
2, 44216, Note_on_c, 0, 63, 0
2, 44232, Control_c, 0, 64, 0
2, 44244, Note_on_c, 0, 54, 0
2, 44303, Note_on_c, 0, 68, 42
2, 44310, Note_on_c, 0, 70, 0
2, 44310, Note_on_c, 0, 58, 47
2, 44316, Note_on_c, 0, 62, 0
2, 44341, Control_c, 0, 64, 127
2, 44398, Note_on_c, 0, 70, 41
2, 44410, Note_on_c, 0, 62, 41
2, 44423, Note_on_c, 0, 58, 0
2, 44424, Note_on_c, 0, 68, 0
2, 44469, Note_on_c, 0, 68, 41
2, 44471, Note_on_c, 0, 58, 46
2, 44496, Note_on_c, 0, 70, 0
2, 44504, Note_on_c, 0, 62, 0
2, 44510, Note_on_c, 0, 53, 0
2, 44520, Note_on_c, 0, 30, 44
2, 44528, Note_on_c, 0, 42, 48
2, 44528, Note_on_c, 0, 70, 42
2, 44541, Note_on_c, 0, 62, 47
2, 44573, Note_on_c, 0, 68, 0
2, 44573, Note_on_c, 0, 58, 0
2, 44612, Note_on_c, 0, 68, 53
2, 44621, Note_on_c, 0, 58, 54
2, 44623, Note_on_c, 0, 70, 0
2, 44637, Note_on_c, 0, 62, 0
2, 44657, Note_on_c, 0, 70, 41
2, 44670, Note_on_c, 0, 62, 41
2, 44675, Note_on_c, 0, 30, 0
2, 44675, Note_on_c, 0, 42, 0
2, 44701, Note_on_c, 0, 68, 0
2, 44706, Note_on_c, 0, 58, 0
2, 44734, Note_on_c, 0, 68, 54
2, 44738, Note_on_c, 0, 58, 43
2, 44766, Note_on_c, 0, 70, 0
2, 44789, Note_on_c, 0, 62, 0
2, 44815, Note_on_c, 0, 51, 43
2, 44821, Note_on_c, 0, 70, 49
2, 44829, Note_on_c, 0, 63, 47
2, 44833, Control_c, 0, 64, 0
2, 44841, Note_on_c, 0, 68, 0
2, 44861, Note_on_c, 0, 58, 0
2, 44920, Control_c, 0, 64, 127
2, 44933, Note_on_c, 0, 58, 45
2, 44933, Note_on_c, 0, 66, 42
2, 44979, Note_on_c, 0, 70, 0
2, 44985, Note_on_c, 0, 63, 0
2, 45024, Note_on_c, 0, 70, 41
2, 45034, Note_on_c, 0, 46, 43
2, 45044, Note_on_c, 0, 58, 0
2, 45044, Note_on_c, 0, 66, 0
2, 45049, Note_on_c, 0, 63, 46
2, 45103, Note_on_c, 0, 66, 46
2, 45109, Note_on_c, 0, 51, 0
2, 45109, Note_on_c, 0, 58, 42
2, 45143, Note_on_c, 0, 66, 0
2, 45148, Note_on_c, 0, 70, 0
2, 45174, Note_on_c, 0, 63, 0
2, 45174, Note_on_c, 0, 69, 60
2, 45187, Note_on_c, 0, 49, 66
2, 45187, Note_on_c, 0, 66, 46
2, 45213, Note_on_c, 0, 46, 0
2, 45215, Note_on_c, 0, 58, 0
2, 45219, Control_c, 0, 64, 0
2, 45275, Note_on_c, 0, 66, 0
2, 45275, Note_on_c, 0, 68, 59
2, 45281, Note_on_c, 0, 63, 53
2, 45283, Note_on_c, 0, 69, 0
2, 45311, Control_c, 0, 64, 127
2, 45339, Note_on_c, 0, 69, 54
2, 45353, Note_on_c, 0, 66, 45
2, 45374, Note_on_c, 0, 63, 0
2, 45374, Note_on_c, 0, 68, 0
2, 45405, Note_on_c, 0, 63, 59
2, 45405, Note_on_c, 0, 68, 58
2, 45407, Note_on_c, 0, 69, 0
2, 45412, Note_on_c, 0, 49, 0
2, 45425, Note_on_c, 0, 66, 0
2, 45445, Note_on_c, 0, 63, 0
2, 45445, Note_on_c, 0, 68, 0
2, 45485, Note_on_c, 0, 68, 60
2, 45490, Note_on_c, 0, 48, 41
2, 45503, Note_on_c, 0, 63, 47
2, 45531, Control_c, 0, 64, 0
2, 45545, Note_on_c, 0, 63, 0
2, 45545, Note_on_c, 0, 68, 0
2, 45552, Note_on_c, 0, 66, 55
2, 45557, Note_on_c, 0, 56, 54
2, 45624, Control_c, 0, 64, 127
2, 45627, Note_on_c, 0, 68, 53
2, 45632, Note_on_c, 0, 63, 51
2, 45657, Note_on_c, 0, 56, 0
2, 45665, Note_on_c, 0, 66, 0
2, 45701, Note_on_c, 0, 56, 50
2, 45701, Note_on_c, 0, 66, 59
2, 45734, Note_on_c, 0, 68, 0
2, 45740, Note_on_c, 0, 56, 0
2, 45744, Note_on_c, 0, 63, 0
2, 45765, Note_on_c, 0, 68, 57
2, 45777, Note_on_c, 0, 62, 47
2, 45787, Control_c, 0, 64, 0
2, 45812, Note_on_c, 0, 66, 0
2, 45853, Note_on_c, 0, 56, 48
2, 45861, Note_on_c, 0, 65, 48
2, 45876, Control_c, 0, 64, 127
2, 45920, Note_on_c, 0, 62, 0
2, 45922, Note_on_c, 0, 68, 0
2, 45932, Note_on_c, 0, 48, 0
2, 45968, Note_on_c, 0, 68, 50
2, 45971, Control_c, 0, 64, 0
2, 45976, Note_on_c, 0, 65, 0
2, 45979, Note_on_c, 0, 47, 47
2, 45992, Note_on_c, 0, 56, 0
2, 45992, Note_on_c, 0, 62, 46
2, 46077, Control_c, 0, 64, 127
2, 46080, Note_on_c, 0, 65, 43
2, 46093, Note_on_c, 0, 56, 47
2, 46147, Note_on_c, 0, 62, 0
2, 46147, Note_on_c, 0, 68, 0
2, 46200, Note_on_c, 0, 65, 0
2, 46206, Note_on_c, 0, 70, 45
2, 46212, Note_on_c, 0, 56, 0
2, 46225, Note_on_c, 0, 46, 46
2, 46230, Control_c, 0, 64, 0
2, 46238, Note_on_c, 0, 62, 43
2, 46286, Note_on_c, 0, 47, 0
2, 46324, Control_c, 0, 64, 127
2, 46355, Note_on_c, 0, 65, 46
2, 46361, Note_on_c, 0, 58, 45
2, 46422, Note_on_c, 0, 70, 0
2, 46422, Note_on_c, 0, 62, 0
2, 46482, Note_on_c, 0, 65, 0
2, 46494, Note_on_c, 0, 58, 0
2, 46497, Note_on_c, 0, 44, 42
2, 46502, Control_c, 0, 64, 0
2, 46507, Note_on_c, 0, 71, 52
2, 46512, Note_on_c, 0, 62, 47
2, 46545, Note_on_c, 0, 46, 0
2, 46619, Control_c, 0, 64, 127
2, 46668, Note_on_c, 0, 65, 53
2, 46679, Note_on_c, 0, 59, 47
2, 46692, Note_on_c, 0, 62, 0
2, 46704, Note_on_c, 0, 71, 0
2, 46735, Note_on_c, 0, 44, 0
2, 46783, Note_on_c, 0, 65, 0
2, 46800, Note_on_c, 0, 59, 0
2, 46811, Note_on_c, 0, 42, 45
2, 46814, Note_on_c, 0, 75, 53
2, 46826, Note_on_c, 0, 70, 43
2, 46828, Control_c, 0, 64, 0
2, 46830, Note_on_c, 0, 30, 43
2, 46947, Control_c, 0, 64, 127
2, 47012, Note_on_c, 0, 73, 53
2, 47024, Note_on_c, 0, 66, 43
2, 47040, Note_on_c, 0, 70, 0
2, 47040, Note_on_c, 0, 75, 0
2, 47081, Note_on_c, 0, 42, 0
2, 47101, Note_on_c, 0, 30, 0
2, 47158, Note_on_c, 0, 66, 0
2, 47160, Note_on_c, 0, 49, 78
2, 47165, Note_on_c, 0, 73, 0
2, 47179, Note_on_c, 0, 75, 55
2, 47191, Note_on_c, 0, 70, 46
2, 47304, Note_on_c, 0, 73, 60
2, 47316, Note_on_c, 0, 66, 46
2, 47318, Note_on_c, 0, 75, 0
2, 47321, Note_on_c, 0, 49, 0
2, 47330, Note_on_c, 0, 70, 0
2, 47405, Note_on_c, 0, 73, 0
2, 47416, Note_on_c, 0, 58, 82
2, 47419, Note_on_c, 0, 80, 66
2, 47432, Note_on_c, 0, 73, 44
2, 47455, Note_on_c, 0, 66, 0
2, 47501, Note_on_c, 0, 78, 56
2, 47511, Control_c, 0, 67, 0
2, 47513, Note_on_c, 0, 70, 46
2, 47526, Note_on_c, 0, 80, 0
2, 47539, Note_on_c, 0, 73, 0
2, 47569, Note_on_c, 0, 80, 59
2, 47580, Note_on_c, 0, 70, 0
2, 47580, Note_on_c, 0, 73, 54
2, 47600, Note_on_c, 0, 78, 0
2, 47625, Note_on_c, 0, 78, 54
2, 47631, Note_on_c, 0, 73, 0
2, 47633, Note_on_c, 0, 80, 0
2, 47636, Note_on_c, 0, 70, 55
2, 47668, Note_on_c, 0, 70, 0
2, 47701, Note_on_c, 0, 70, 61
2, 47701, Note_on_c, 0, 75, 61
2, 47727, Note_on_c, 0, 78, 0
2, 47752, Note_on_c, 0, 70, 0
2, 47752, Note_on_c, 0, 66, 55
2, 47754, Note_on_c, 0, 75, 0
2, 47759, Note_on_c, 0, 73, 53
2, 47803, Note_on_c, 0, 73, 0
2, 47808, Note_on_c, 0, 66, 0
2, 47821, Note_on_c, 0, 70, 64
2, 47823, Note_on_c, 0, 75, 64
2, 47866, Note_on_c, 0, 75, 0
2, 47866, Note_on_c, 0, 70, 0
2, 47868, Note_on_c, 0, 73, 59
2, 47874, Note_on_c, 0, 66, 54
2, 47892, Note_on_c, 0, 73, 0
2, 47898, Note_on_c, 0, 66, 0
2, 47924, Note_on_c, 0, 73, 53
2, 47929, Note_on_c, 0, 66, 55
2, 47931, Control_c, 0, 64, 0
2, 47936, Note_on_c, 0, 56, 76
2, 47953, Note_on_c, 0, 58, 0
2, 48021, Note_on_c, 0, 63, 60
2, 48023, Note_on_c, 0, 71, 54
2, 48030, Note_on_c, 0, 73, 0
2, 48038, Control_c, 0, 64, 127
2, 48084, Note_on_c, 0, 66, 0
2, 48127, Note_on_c, 0, 51, 74
2, 48130, Note_on_c, 0, 66, 66
2, 48130, Note_on_c, 0, 73, 62
2, 48141, Note_on_c, 0, 63, 0
2, 48156, Note_on_c, 0, 71, 0
2, 48190, Note_on_c, 0, 56, 0
2, 48195, Note_on_c, 0, 71, 54
2, 48197, Note_on_c, 0, 63, 58
2, 48236, Note_on_c, 0, 71, 0
2, 48243, Note_on_c, 0, 66, 0
2, 48245, Note_on_c, 0, 73, 0
2, 48256, Note_on_c, 0, 51, 0
2, 48269, Note_on_c, 0, 54, 73
2, 48277, Note_on_c, 0, 68, 65
2, 48277, Note_on_c, 0, 71, 60
2, 48288, Note_on_c, 0, 63, 0
2, 48290, Control_c, 0, 64, 0
2, 48341, Note_on_c, 0, 63, 51
2, 48341, Note_on_c, 0, 70, 54
2, 48343, Note_on_c, 0, 71, 0
2, 48343, Note_on_c, 0, 68, 0
2, 48403, Control_c, 0, 64, 127
2, 48408, Note_on_c, 0, 70, 0
2, 48408, Note_on_c, 0, 68, 58
2, 48408, Note_on_c, 0, 71, 56
2, 48441, Note_on_c, 0, 63, 0
2, 48459, Note_on_c, 0, 70, 58
2, 48467, Note_on_c, 0, 71, 0
2, 48472, Note_on_c, 0, 63, 50
2, 48500, Note_on_c, 0, 70, 0
2, 48520, Note_on_c, 0, 68, 0
2, 48530, Note_on_c, 0, 53, 45
2, 48530, Note_on_c, 0, 70, 65
2, 48532, Control_c, 0, 64, 0
2, 48537, Note_on_c, 0, 63, 0
2, 48543, Note_on_c, 0, 62, 43
2, 48563, Note_on_c, 0, 54, 0
2, 48596, Note_on_c, 0, 70, 0
2, 48596, Note_on_c, 0, 62, 0
2, 48601, Note_on_c, 0, 68, 58
2, 48620, Note_on_c, 0, 58, 58
2, 48641, Control_c, 0, 64, 127
2, 48679, Note_on_c, 0, 62, 42
2, 48679, Note_on_c, 0, 70, 52
2, 48705, Note_on_c, 0, 68, 0
2, 48710, Note_on_c, 0, 58, 0
2, 48744, Note_on_c, 0, 58, 48
2, 48749, Note_on_c, 0, 68, 48
2, 48767, Note_on_c, 0, 30, 43
2, 48771, Note_on_c, 0, 62, 0
2, 48773, Note_on_c, 0, 70, 0
2, 48804, Note_on_c, 0, 62, 48
2, 48804, Note_on_c, 0, 70, 48
2, 48821, Note_on_c, 0, 53, 0
2, 48835, Note_on_c, 0, 58, 0
2, 48842, Note_on_c, 0, 68, 0
2, 48867, Note_on_c, 0, 58, 48
2, 48875, Note_on_c, 0, 68, 41
2, 48893, Note_on_c, 0, 62, 0
2, 48893, Note_on_c, 0, 70, 0
2, 48909, Note_on_c, 0, 42, 48
2, 48930, Note_on_c, 0, 30, 0
2, 48933, Note_on_c, 0, 62, 48
2, 48933, Note_on_c, 0, 70, 48
2, 48963, Note_on_c, 0, 58, 0
2, 48965, Note_on_c, 0, 68, 0
2, 49001, Note_on_c, 0, 58, 45
2, 49006, Note_on_c, 0, 68, 47
2, 49041, Note_on_c, 0, 70, 0
2, 49051, Note_on_c, 0, 42, 0
2, 49054, Note_on_c, 0, 62, 0
2, 49105, Note_on_c, 0, 51, 48
2, 49107, Note_on_c, 0, 70, 53
2, 49120, Note_on_c, 0, 63, 53
2, 49126, Note_on_c, 0, 58, 0
2, 49141, Note_on_c, 0, 68, 0
2, 49198, Note_on_c, 0, 58, 48
2, 49205, Note_on_c, 0, 66, 53
2, 49221, Note_on_c, 0, 70, 0
2, 49239, Note_on_c, 0, 63, 0
2, 49267, Control_c, 0, 64, 0
2, 49276, Note_on_c, 0, 58, 0
2, 49290, Note_on_c, 0, 46, 41
2, 49297, Note_on_c, 0, 70, 61
2, 49302, Note_on_c, 0, 63, 42
2, 49310, Note_on_c, 0, 66, 0
2, 49353, Note_on_c, 0, 51, 0
2, 49353, Note_on_c, 0, 58, 46
2, 49353, Note_on_c, 0, 66, 56
2, 49368, Control_c, 0, 64, 127
2, 49393, Note_on_c, 0, 66, 0
2, 49412, Note_on_c, 0, 70, 0
2, 49417, Note_on_c, 0, 63, 0
2, 49420, Note_on_c, 0, 49, 69
2, 49422, Note_on_c, 0, 69, 64
2, 49435, Note_on_c, 0, 66, 48
2, 49447, Note_on_c, 0, 58, 0
2, 49449, Control_c, 0, 64, 0
2, 49457, Note_on_c, 0, 46, 0
2, 49492, Note_on_c, 0, 66, 0
2, 49498, Note_on_c, 0, 63, 51
2, 49498, Note_on_c, 0, 68, 60
2, 49516, Note_on_c, 0, 69, 0
2, 49557, Control_c, 0, 64, 127
2, 49561, Note_on_c, 0, 68, 0
2, 49561, Note_on_c, 0, 69, 66
2, 49572, Note_on_c, 0, 66, 51
2, 49598, Note_on_c, 0, 63, 0
2, 49626, Note_on_c, 0, 68, 55
2, 49631, Note_on_c, 0, 63, 48
2, 49663, Note_on_c, 0, 68, 0
2, 49663, Note_on_c, 0, 69, 0
2, 49668, Note_on_c, 0, 63, 0
2, 49676, Note_on_c, 0, 66, 0
2, 49701, Note_on_c, 0, 68, 48
2, 49705, Note_on_c, 0, 48, 48
2, 49719, Note_on_c, 0, 63, 44
2, 49734, Control_c, 0, 64, 0
2, 49744, Note_on_c, 0, 49, 0
2, 49784, Note_on_c, 0, 66, 47
2, 49790, Note_on_c, 0, 56, 54
2, 49818, Note_on_c, 0, 68, 0
2, 49824, Note_on_c, 0, 63, 0
2, 49839, Control_c, 0, 64, 127
2, 49862, Note_on_c, 0, 63, 48
2, 49862, Note_on_c, 0, 68, 56
2, 49902, Note_on_c, 0, 56, 0
2, 49904, Note_on_c, 0, 66, 0
2, 49937, Note_on_c, 0, 56, 54
2, 49937, Note_on_c, 0, 66, 54
2, 49970, Note_on_c, 0, 63, 0
2, 49978, Note_on_c, 0, 68, 0
2, 50007, Control_c, 0, 64, 0
2, 50010, Note_on_c, 0, 56, 0
2, 50010, Note_on_c, 0, 63, 47
2, 50010, Note_on_c, 0, 69, 62
2, 50036, Note_on_c, 0, 66, 0
2, 50100, Control_c, 0, 64, 127
2, 50110, Note_on_c, 0, 57, 47
2, 50110, Note_on_c, 0, 66, 53
2, 50150, Note_on_c, 0, 63, 0
2, 50152, Note_on_c, 0, 69, 0
2, 50193, Control_c, 0, 64, 0
2, 50203, Note_on_c, 0, 57, 0
2, 50208, Note_on_c, 0, 49, 60
2, 50208, Note_on_c, 0, 70, 63
2, 50216, Note_on_c, 0, 48, 0
2, 50221, Note_on_c, 0, 61, 57
2, 50231, Note_on_c, 0, 66, 0
2, 50295, Note_on_c, 0, 66, 56
2, 50298, Control_c, 0, 64, 127
2, 50303, Note_on_c, 0, 58, 51
2, 50349, Note_on_c, 0, 70, 0
2, 50349, Note_on_c, 0, 61, 0
2, 50412, Note_on_c, 0, 58, 0
2, 50414, Note_on_c, 0, 66, 0
2, 50420, Note_on_c, 0, 71, 65
2, 50420, Note_on_c, 0, 75, 63
2, 50424, Note_on_c, 0, 56, 78
2, 50429, Control_c, 0, 64, 0
2, 50450, Note_on_c, 0, 49, 0
2, 50521, Control_c, 0, 64, 127
2, 50554, Note_on_c, 0, 73, 64
2, 50559, Note_on_c, 0, 65, 60
2, 50579, Note_on_c, 0, 71, 0
2, 50599, Note_on_c, 0, 75, 0
2, 50647, Control_c, 0, 64, 0
2, 50650, Note_on_c, 0, 71, 65
2, 50655, Note_on_c, 0, 54, 77
2, 50655, Note_on_c, 0, 75, 64
2, 50661, Note_on_c, 0, 65, 0
2, 50673, Note_on_c, 0, 56, 0
2, 50694, Note_on_c, 0, 73, 0
2, 50743, Control_c, 0, 64, 127
2, 50772, Note_on_c, 0, 73, 59
2, 50778, Note_on_c, 0, 65, 59
2, 50784, Note_on_c, 0, 56, 78
2, 50805, Note_on_c, 0, 71, 0
2, 50809, Note_on_c, 0, 54, 0
2, 50817, Note_on_c, 0, 75, 0
2, 50883, Note_on_c, 0, 73, 0
2, 50896, Note_on_c, 0, 65, 0
2, 50898, Note_on_c, 0, 78, 54
2, 50908, Control_c, 0, 64, 0
2, 50911, Note_on_c, 0, 74, 55
2, 50922, Note_on_c, 0, 59, 65
2, 50955, Note_on_c, 0, 56, 0
2, 51069, Note_on_c, 0, 77, 49
2, 51072, Control_c, 0, 64, 127
2, 51081, Note_on_c, 0, 68, 45
2, 51114, Note_on_c, 0, 78, 0
2, 51146, Note_on_c, 0, 74, 0
2, 51185, Note_on_c, 0, 77, 0
2, 51205, Note_on_c, 0, 78, 53
2, 51210, Note_on_c, 0, 58, 55
2, 51217, Note_on_c, 0, 74, 44
2, 51222, Control_c, 0, 64, 0
2, 51230, Note_on_c, 0, 59, 0
2, 51270, Note_on_c, 0, 68, 0
2, 51330, Control_c, 0, 64, 127
2, 51363, Note_on_c, 0, 77, 60
2, 51376, Note_on_c, 0, 68, 44
2, 51384, Note_on_c, 0, 78, 0
2, 51432, Note_on_c, 0, 62, 48
2, 51466, Note_on_c, 0, 58, 0
2, 51503, Note_on_c, 0, 70, 48
2, 51504, Note_on_c, 0, 68, 0
2, 51560, Control_c, 0, 64, 0
2, 51573, Note_on_c, 0, 82, 73
2, 51599, Note_on_c, 0, 74, 0
2, 51662, Note_on_c, 0, 68, 41
2, 51667, Control_c, 0, 64, 127
2, 51676, Note_on_c, 0, 58, 41
2, 51701, Note_on_c, 0, 62, 0
2, 51714, Note_on_c, 0, 70, 0
2, 51721, Note_on_c, 0, 77, 0
2, 51765, Note_on_c, 0, 70, 47
2, 51774, Note_on_c, 0, 62, 42
2, 51807, Note_on_c, 0, 68, 0
2, 51820, Note_on_c, 0, 58, 0
2, 51887, Note_on_c, 0, 68, 44
2, 51891, Note_on_c, 0, 58, 48
2, 51897, Note_on_c, 0, 70, 0
2, 51911, Note_on_c, 0, 62, 0
2, 52001, Note_on_c, 0, 68, 0
2, 52014, Note_on_c, 0, 58, 0
2, 52027, Note_on_c, 0, 47, 59
2, 52096, Control_c, 0, 64, 0
2, 52167, Note_on_c, 0, 56, 51
2, 52167, Note_on_c, 0, 65, 49
2, 52200, Control_c, 0, 64, 127
2, 52251, Note_on_c, 0, 68, 51
2, 52264, Note_on_c, 0, 63, 47
2, 52292, Note_on_c, 0, 65, 0
2, 52292, Note_on_c, 0, 56, 0
2, 52343, Note_on_c, 0, 65, 45
2, 52352, Note_on_c, 0, 56, 42
2, 52358, Note_on_c, 0, 47, 0
2, 52391, Note_on_c, 0, 68, 0
2, 52396, Note_on_c, 0, 63, 0
2, 52453, Note_on_c, 0, 63, 48
2, 52471, Note_on_c, 0, 80, 78
2, 52473, Note_on_c, 0, 65, 0
2, 52479, Note_on_c, 0, 82, 0
2, 52479, Note_on_c, 0, 56, 0
2, 52484, Note_on_c, 0, 68, 44
2, 52566, Note_on_c, 0, 56, 47
2, 52566, Note_on_c, 0, 65, 44
2, 52584, Note_on_c, 0, 63, 0
2, 52598, Note_on_c, 0, 80, 0
2, 52610, Note_on_c, 0, 68, 0
2, 52651, Note_on_c, 0, 63, 46
2, 52651, Note_on_c, 0, 68, 44
2, 52683, Note_on_c, 0, 65, 0
2, 52709, Note_on_c, 0, 56, 0
2, 52761, Note_on_c, 0, 65, 42
2, 52769, Note_on_c, 0, 68, 0
2, 52769, Note_on_c, 0, 56, 41
2, 52787, Note_on_c, 0, 63, 0
2, 52827, Note_on_c, 0, 75, 67
2, 52873, Note_on_c, 0, 65, 0
2, 52895, Note_on_c, 0, 56, 0
2, 52961, Note_on_c, 0, 46, 43
2, 52963, Control_c, 0, 64, 0
2, 52981, Note_on_c, 0, 78, 60
2, 53014, Note_on_c, 0, 75, 0
2, 53067, Control_c, 0, 64, 127
2, 53154, Note_on_c, 0, 58, 44
2, 53154, Note_on_c, 0, 68, 43
2, 53248, Note_on_c, 0, 62, 48
2, 53253, Note_on_c, 0, 70, 43
2, 53285, Note_on_c, 0, 58, 0
2, 53285, Note_on_c, 0, 46, 0
2, 53291, Note_on_c, 0, 68, 0
2, 53296, Note_on_c, 0, 78, 0
2, 53352, Note_on_c, 0, 77, 60
2, 53353, Note_on_c, 0, 58, 46
2, 53367, Note_on_c, 0, 62, 0
2, 53367, Note_on_c, 0, 68, 48
2, 53379, Note_on_c, 0, 70, 0
2, 53469, Note_on_c, 0, 77, 0
2, 53490, Note_on_c, 0, 58, 0
2, 53495, Note_on_c, 0, 68, 0
2, 53574, Note_on_c, 0, 58, 77
2, 53587, Note_on_c, 0, 44, 59
2, 53587, Note_on_c, 0, 53, 56
2, 53622, Control_c, 0, 64, 0
2, 53730, Note_on_c, 0, 60, 80
2, 53737, Control_c, 0, 64, 127
2, 53832, Note_on_c, 0, 58, 0
2, 53841, Note_on_c, 0, 62, 47
2, 53859, Note_on_c, 0, 60, 0
2, 53880, Note_on_c, 0, 44, 0
2, 53887, Note_on_c, 0, 53, 0
2, 53918, Note_on_c, 0, 63, 80
2, 53931, Note_on_c, 0, 62, 0
2, 53931, Note_on_c, 0, 42, 61
2, 53931, Note_on_c, 0, 51, 65
2, 53931, Note_on_c, 0, 58, 64
2, 53945, Control_c, 0, 64, 0
2, 54096, Note_on_c, 0, 70, 78
2, 54109, Control_c, 0, 64, 127
2, 54224, Note_on_c, 0, 42, 0
2, 54229, Note_on_c, 0, 70, 0
2, 54231, Note_on_c, 0, 63, 0
2, 54243, Note_on_c, 0, 58, 0
2, 54256, Note_on_c, 0, 51, 0
2, 54281, Note_on_c, 0, 70, 77
2, 54283, Note_on_c, 0, 63, 52
2, 54285, Note_on_c, 0, 41, 53
2, 54295, Note_on_c, 0, 59, 47
2, 54298, Control_c, 0, 64, 0
2, 54303, Note_on_c, 0, 53, 48
2, 54382, Control_c, 0, 64, 127
2, 54561, Note_on_c, 0, 70, 0
2, 54567, Note_on_c, 0, 63, 0
2, 54569, Note_on_c, 0, 53, 0
2, 54569, Note_on_c, 0, 41, 0
2, 54574, Note_on_c, 0, 59, 0
2, 54594, Note_on_c, 0, 68, 76
2, 54721, Note_on_c, 0, 68, 0
2, 54734, Note_on_c, 0, 62, 69
2, 54739, Control_c, 0, 64, 0
2, 54748, Note_on_c, 0, 46, 45
2, 54750, Note_on_c, 0, 34, 44
2, 54750, Note_on_c, 0, 53, 44
2, 54750, Note_on_c, 0, 56, 47
2, 54847, Control_c, 0, 64, 127
2, 54919, Note_on_c, 0, 58, 48
2, 54925, Note_on_c, 0, 68, 57
2, 54945, Note_on_c, 0, 62, 0
2, 54959, Note_on_c, 0, 56, 0
2, 54971, Note_on_c, 0, 53, 0
2, 55019, Note_on_c, 0, 62, 48
2, 55024, Note_on_c, 0, 70, 50
2, 55037, Note_on_c, 0, 68, 0
2, 55045, Note_on_c, 0, 34, 0
2, 55050, Note_on_c, 0, 58, 0
2, 55056, Note_on_c, 0, 46, 0
2, 55102, Note_on_c, 0, 58, 44
2, 55102, Note_on_c, 0, 68, 50
2, 55134, Note_on_c, 0, 70, 0
2, 55147, Note_on_c, 0, 62, 0
2, 55191, Note_on_c, 0, 62, 45
2, 55217, Note_on_c, 0, 82, 77
2, 55223, Note_on_c, 0, 58, 0
2, 55228, Note_on_c, 0, 70, 48
2, 55230, Note_on_c, 0, 68, 0
2, 55292, Note_on_c, 0, 68, 56
2, 55294, Note_on_c, 0, 58, 48
2, 55314, Note_on_c, 0, 62, 0
2, 55326, Note_on_c, 0, 70, 0
2, 55357, Note_on_c, 0, 70, 48
2, 55365, Note_on_c, 0, 62, 51
2, 55390, Note_on_c, 0, 58, 0
2, 55395, Note_on_c, 0, 68, 0
2, 55426, Note_on_c, 0, 68, 52
2, 55432, Note_on_c, 0, 58, 47
2, 55470, Note_on_c, 0, 70, 0
2, 55476, Note_on_c, 0, 62, 0
2, 55537, Note_on_c, 0, 47, 69
2, 55556, Note_on_c, 0, 68, 0
2, 55556, Note_on_c, 0, 58, 0
2, 55565, Control_c, 0, 64, 0
2, 55683, Control_c, 0, 64, 127
2, 55708, Note_on_c, 0, 56, 49
2, 55708, Note_on_c, 0, 65, 52
2, 55777, Note_on_c, 0, 68, 59
2, 55779, Note_on_c, 0, 63, 49
2, 55787, Note_on_c, 0, 82, 0
2, 55805, Note_on_c, 0, 56, 0
2, 55811, Note_on_c, 0, 65, 0
2, 55844, Note_on_c, 0, 56, 43
2, 55844, Note_on_c, 0, 80, 57
2, 55849, Note_on_c, 0, 65, 55
2, 55865, Note_on_c, 0, 47, 0
2, 55871, Note_on_c, 0, 80, 0
2, 55871, Note_on_c, 0, 82, 55
2, 55876, Note_on_c, 0, 63, 0
2, 55884, Note_on_c, 0, 68, 0
2, 55899, Note_on_c, 0, 80, 73
2, 55909, Note_on_c, 0, 82, 0
2, 55909, Note_on_c, 0, 63, 54
2, 55921, Note_on_c, 0, 68, 48
2, 55958, Note_on_c, 0, 56, 0
2, 55966, Note_on_c, 0, 65, 0
2, 56002, Note_on_c, 0, 56, 45
2, 56028, Note_on_c, 0, 63, 0
2, 56034, Note_on_c, 0, 78, 76
2, 56036, Note_on_c, 0, 80, 0
2, 56036, Note_on_c, 0, 68, 0
2, 56046, Note_on_c, 0, 65, 41
2, 56087, Note_on_c, 0, 65, 0
2, 56092, Note_on_c, 0, 63, 48
2, 56092, Note_on_c, 0, 68, 42
2, 56103, Note_on_c, 0, 56, 0
2, 56149, Note_on_c, 0, 78, 0
2, 56149, Note_on_c, 0, 56, 48
2, 56157, Note_on_c, 0, 75, 74
2, 56167, Note_on_c, 0, 65, 46
2, 56187, Note_on_c, 0, 68, 0
2, 56203, Note_on_c, 0, 63, 0
2, 56208, Note_on_c, 0, 65, 0
2, 56208, Note_on_c, 0, 56, 0
2, 56214, Note_on_c, 0, 75, 0
2, 56214, Control_c, 0, 64, 0
2, 56227, Note_on_c, 0, 78, 80
2, 56232, Note_on_c, 0, 46, 60
2, 56315, Control_c, 0, 64, 127
2, 56335, Note_on_c, 0, 58, 53
2, 56335, Note_on_c, 0, 68, 48
2, 56399, Note_on_c, 0, 70, 54
2, 56401, Note_on_c, 0, 62, 52
2, 56440, Note_on_c, 0, 68, 0
2, 56448, Note_on_c, 0, 58, 0
2, 56453, Note_on_c, 0, 78, 0
2, 56466, Note_on_c, 0, 77, 77
2, 56478, Note_on_c, 0, 58, 52
2, 56478, Note_on_c, 0, 68, 59
2, 56480, Note_on_c, 0, 46, 0
2, 56500, Note_on_c, 0, 62, 0
2, 56508, Note_on_c, 0, 70, 0
2, 56567, Note_on_c, 0, 44, 58
2, 56580, Note_on_c, 0, 77, 0
2, 56586, Note_on_c, 0, 58, 0
2, 56599, Note_on_c, 0, 68, 0
2, 56638, Note_on_c, 0, 58, 60
2, 56653, Note_on_c, 0, 53, 47
2, 56691, Control_c, 0, 64, 0
2, 56779, Note_on_c, 0, 60, 78
2, 56784, Note_on_c, 0, 58, 0
2, 56823, Control_c, 0, 64, 127
2, 56879, Note_on_c, 0, 62, 77
2, 56911, Note_on_c, 0, 60, 0
2, 56931, Note_on_c, 0, 44, 0
2, 56931, Note_on_c, 0, 53, 0
2, 56952, Note_on_c, 0, 63, 57
2, 56965, Note_on_c, 0, 62, 0
2, 56970, Control_c, 0, 64, 0
2, 56970, Note_on_c, 0, 42, 43
2, 56970, Note_on_c, 0, 51, 45
2, 56972, Note_on_c, 0, 58, 41
2, 57081, Control_c, 0, 64, 127
2, 57187, Note_on_c, 0, 42, 0
2, 57192, Note_on_c, 0, 51, 0
2, 57192, Note_on_c, 0, 70, 75
2, 57205, Control_c, 0, 64, 0
2, 57256, Note_on_c, 0, 32, 69
2, 57300, Control_c, 0, 64, 127
2, 57313, Note_on_c, 0, 44, 66
2, 57341, Note_on_c, 0, 63, 0
2, 57351, Note_on_c, 0, 54, 60
2, 57379, Note_on_c, 0, 58, 0
2, 57386, Note_on_c, 0, 70, 0
2, 57391, Note_on_c, 0, 60, 62
2, 57445, Note_on_c, 0, 63, 67
2, 57478, Note_on_c, 0, 70, 81
2, 57487, Note_on_c, 0, 32, 0
2, 57524, Note_on_c, 0, 44, 0
2, 57557, Note_on_c, 0, 60, 0
2, 57557, Note_on_c, 0, 54, 0
2, 57590, Note_on_c, 0, 63, 0
2, 57618, Note_on_c, 0, 70, 0
2, 57830, Note_on_c, 0, 68, 71
2, 57960, Note_on_c, 0, 68, 0
2, 57988, Control_c, 0, 64, 0
2, 58009, Note_on_c, 0, 61, 44
2, 58020, Note_on_c, 0, 37, 46
2, 58020, Note_on_c, 0, 44, 45
2, 58022, Note_on_c, 0, 53, 48
2, 58022, Note_on_c, 0, 59, 47
2, 58091, Control_c, 0, 64, 127
2, 58165, Note_on_c, 0, 56, 52
2, 58173, Note_on_c, 0, 65, 58
2, 58185, Note_on_c, 0, 59, 0
2, 58198, Note_on_c, 0, 61, 0
2, 58210, Note_on_c, 0, 53, 0
2, 58241, Note_on_c, 0, 44, 0
2, 58247, Note_on_c, 0, 37, 0
2, 58248, Note_on_c, 0, 59, 48
2, 58248, Note_on_c, 0, 68, 58
2, 58274, Note_on_c, 0, 56, 0
2, 58282, Note_on_c, 0, 65, 0
2, 58319, Note_on_c, 0, 56, 45
2, 58319, Note_on_c, 0, 65, 53
2, 58352, Note_on_c, 0, 68, 0
2, 58357, Note_on_c, 0, 59, 0
2, 58391, Note_on_c, 0, 59, 50
2, 58404, Note_on_c, 0, 87, 85
2, 58416, Note_on_c, 0, 68, 44
2, 58419, Note_on_c, 0, 83, 43
2, 58422, Note_on_c, 0, 56, 0
2, 58424, Note_on_c, 0, 65, 0
2, 58478, Note_on_c, 0, 65, 48
2, 58490, Note_on_c, 0, 56, 46
2, 58508, Note_on_c, 0, 59, 0
2, 58529, Note_on_c, 0, 68, 0
2, 58539, Note_on_c, 0, 59, 54
2, 58575, Note_on_c, 0, 68, 46
2, 58581, Note_on_c, 0, 65, 0
2, 58585, Note_on_c, 0, 56, 0
2, 58627, Note_on_c, 0, 56, 58
2, 58627, Note_on_c, 0, 65, 42
2, 58659, Note_on_c, 0, 59, 0
2, 58680, Note_on_c, 0, 68, 0
2, 58702, Note_on_c, 0, 41, 67
2, 58704, Note_on_c, 0, 53, 72
2, 58726, Note_on_c, 0, 65, 0
2, 58728, Control_c, 0, 64, 0
2, 58733, Note_on_c, 0, 56, 0
2, 58828, Control_c, 0, 64, 127
2, 58848, Note_on_c, 0, 59, 47
2, 58861, Note_on_c, 0, 68, 61
2, 58925, Note_on_c, 0, 61, 49
2, 58927, Note_on_c, 0, 82, 77
2, 58927, Note_on_c, 0, 85, 77
2, 58933, Note_on_c, 0, 71, 77
2, 58941, Note_on_c, 0, 83, 0
2, 58943, Note_on_c, 0, 87, 0
2, 58955, Note_on_c, 0, 59, 0
2, 58958, Note_on_c, 0, 68, 0
2, 58964, Note_on_c, 0, 82, 0
2, 58966, Note_on_c, 0, 85, 0
2, 58983, Note_on_c, 0, 59, 48
2, 58989, Note_on_c, 0, 68, 71
2, 59009, Note_on_c, 0, 80, 65
2, 59009, Note_on_c, 0, 83, 68
2, 59021, Note_on_c, 0, 53, 0
2, 59024, Note_on_c, 0, 83, 0
2, 59024, Note_on_c, 0, 80, 0
2, 59026, Note_on_c, 0, 41, 0
2, 59028, Note_on_c, 0, 61, 0
2, 59030, Note_on_c, 0, 71, 0
2, 59036, Note_on_c, 0, 85, 65
2, 59043, Note_on_c, 0, 82, 65
2, 59056, Note_on_c, 0, 80, 63
2, 59059, Note_on_c, 0, 61, 49
2, 59062, Note_on_c, 0, 71, 65
2, 59062, Note_on_c, 0, 83, 69
2, 59087, Note_on_c, 0, 82, 0
2, 59088, Note_on_c, 0, 85, 0
2, 59102, Note_on_c, 0, 59, 0
2, 59104, Note_on_c, 0, 68, 0
2, 59160, Note_on_c, 0, 59, 51
2, 59161, Note_on_c, 0, 68, 64
2, 59175, Note_on_c, 0, 83, 0
2, 59183, Note_on_c, 0, 80, 0
2, 59183, Note_on_c, 0, 71, 0
2, 59192, Note_on_c, 0, 61, 0
2, 59194, Note_on_c, 0, 78, 77
2, 59200, Note_on_c, 0, 82, 76
2, 59236, Note_on_c, 0, 61, 59
2, 59236, Note_on_c, 0, 71, 64
2, 59256, Note_on_c, 0, 59, 0
2, 59269, Note_on_c, 0, 68, 0
2, 59287, Note_on_c, 0, 59, 58
2, 59303, Note_on_c, 0, 78, 0
2, 59303, Note_on_c, 0, 80, 77
2, 59315, Note_on_c, 0, 68, 42
2, 59315, Note_on_c, 0, 77, 45
2, 59317, Note_on_c, 0, 82, 0
2, 59338, Note_on_c, 0, 61, 0
2, 59340, Note_on_c, 0, 71, 0
2, 59352, Note_on_c, 0, 68, 0
2, 59357, Note_on_c, 0, 59, 0
2, 59360, Note_on_c, 0, 77, 0
2, 59363, Note_on_c, 0, 54, 53
2, 59365, Control_c, 0, 64, 0
2, 59371, Note_on_c, 0, 78, 73
2, 59373, Note_on_c, 0, 80, 0
2, 59375, Note_on_c, 0, 42, 52
2, 59377, Note_on_c, 0, 82, 76
2, 59452, Control_c, 0, 64, 127
2, 59485, Note_on_c, 0, 58, 53
2, 59485, Note_on_c, 0, 66, 50
2, 59552, Note_on_c, 0, 58, 0
2, 59560, Note_on_c, 0, 70, 56
2, 59566, Note_on_c, 0, 61, 53
2, 59568, Note_on_c, 0, 66, 0
2, 59604, Note_on_c, 0, 54, 0
2, 59609, Note_on_c, 0, 42, 0
2, 59614, Note_on_c, 0, 82, 0
2, 59614, Note_on_c, 0, 78, 0
2, 59616, Note_on_c, 0, 58, 43
2, 59616, Note_on_c, 0, 66, 42
2, 59691, Note_on_c, 0, 70, 0
2, 59697, Note_on_c, 0, 61, 0
2, 59697, Note_on_c, 0, 58, 0
2, 59699, Note_on_c, 0, 66, 0
2, 59765, Note_on_c, 0, 44, 54
2, 59770, Note_on_c, 0, 70, 69
2, 59775, Note_on_c, 0, 58, 56
2, 59775, Note_on_c, 0, 62, 59
2, 59775, Note_on_c, 0, 65, 72
2, 59784, Control_c, 0, 64, 0
2, 59879, Control_c, 0, 64, 127
2, 59940, Note_on_c, 0, 53, 63
2, 59942, Note_on_c, 0, 62, 0
2, 59947, Note_on_c, 0, 46, 66
2, 59952, Note_on_c, 0, 58, 0
2, 59952, Note_on_c, 0, 72, 74
2, 59957, Note_on_c, 0, 60, 63
2, 59960, Note_on_c, 0, 44, 0
2, 59963, Note_on_c, 0, 70, 0
2, 59968, Note_on_c, 0, 65, 0
2, 60011, Note_on_c, 0, 50, 55
2, 60011, Note_on_c, 0, 58, 57
2, 60037, Note_on_c, 0, 74, 77
2, 60043, Note_on_c, 0, 62, 72
2, 60048, Note_on_c, 0, 60, 0
2, 60054, Note_on_c, 0, 53, 0
2, 60059, Note_on_c, 0, 46, 0
2, 60064, Note_on_c, 0, 72, 0
2, 60100, Control_c, 0, 64, 0
2, 60102, Note_on_c, 0, 42, 47
2, 60112, Note_on_c, 0, 50, 0
2, 60114, Note_on_c, 0, 58, 0
2, 60120, Note_on_c, 0, 70, 67
2, 60124, Note_on_c, 0, 66, 67
2, 60216, Control_c, 0, 64, 127
2, 60226, Note_on_c, 0, 46, 57
2, 60232, Note_on_c, 0, 54, 59
2, 60265, Note_on_c, 0, 63, 53
2, 60273, Note_on_c, 0, 74, 0
2, 60273, Note_on_c, 0, 75, 82
2, 60275, Note_on_c, 0, 42, 0
2, 60278, Note_on_c, 0, 62, 0
2, 60286, Note_on_c, 0, 66, 0
2, 60291, Note_on_c, 0, 70, 0
2, 60294, Note_on_c, 0, 51, 60
2, 60296, Note_on_c, 0, 58, 56
2, 60339, Note_on_c, 0, 54, 0
2, 60353, Note_on_c, 0, 46, 0
2, 60359, Note_on_c, 0, 51, 0
2, 60361, Note_on_c, 0, 58, 0
2, 60361, Control_c, 0, 64, 0
2, 60367, Note_on_c, 0, 70, 72
2, 60372, Note_on_c, 0, 53, 74
2, 60374, Note_on_c, 0, 68, 73
2, 60379, Note_on_c, 0, 41, 72
2, 60442, Note_on_c, 0, 46, 58
2, 60452, Note_on_c, 0, 56, 53
2, 60465, Control_c, 0, 64, 127
2, 60506, Note_on_c, 0, 77, 83
2, 60511, Note_on_c, 0, 53, 0
2, 60511, Note_on_c, 0, 70, 0
2, 60513, Note_on_c, 0, 75, 0
2, 60513, Note_on_c, 0, 65, 84
2, 60515, Note_on_c, 0, 50, 66
2, 60520, Note_on_c, 0, 63, 0
2, 60520, Note_on_c, 0, 58, 60
2, 60522, Note_on_c, 0, 68, 0
2, 60524, Note_on_c, 0, 41, 0
2, 60565, Note_on_c, 0, 46, 0
2, 60577, Note_on_c, 0, 56, 0
2, 60587, Note_on_c, 0, 50, 0
2, 60587, Note_on_c, 0, 58, 0
2, 60589, Control_c, 0, 64, 0
2, 60602, Note_on_c, 0, 70, 71
2, 60602, Note_on_c, 0, 75, 71
2, 60605, Note_on_c, 0, 51, 77
2, 60610, Note_on_c, 0, 39, 76
2, 60627, Note_on_c, 0, 65, 0
2, 60632, Note_on_c, 0, 77, 0
2, 60694, Note_on_c, 0, 46, 66
2, 60701, Note_on_c, 0, 54, 64
2, 60703, Control_c, 0, 64, 127
2, 60720, Note_on_c, 0, 51, 0
2, 60731, Note_on_c, 0, 78, 78
2, 60742, Note_on_c, 0, 66, 82
2, 60752, Note_on_c, 0, 70, 0
2, 60755, Note_on_c, 0, 51, 59
2, 60755, Note_on_c, 0, 58, 62
2, 60760, Note_on_c, 0, 39, 0
2, 60765, Note_on_c, 0, 75, 0
2, 60769, Note_on_c, 0, 54, 0
2, 60806, Note_on_c, 0, 58, 0
2, 60806, Note_on_c, 0, 51, 0
2, 60809, Control_c, 0, 64, 0
2, 60812, Note_on_c, 0, 46, 0
2, 60821, Note_on_c, 0, 70, 71
2, 60823, Note_on_c, 0, 75, 71
2, 60829, Note_on_c, 0, 37, 81
2, 60831, Note_on_c, 0, 49, 81
2, 60849, Note_on_c, 0, 78, 0
2, 60849, Note_on_c, 0, 66, 0
2, 60916, Control_c, 0, 64, 127
2, 60916, Note_on_c, 0, 51, 64
2, 60916, Note_on_c, 0, 58, 66
2, 60926, Note_on_c, 0, 67, 74
2, 60928, Note_on_c, 0, 79, 71
2, 60953, Note_on_c, 0, 70, 0
2, 60955, Note_on_c, 0, 75, 0
2, 60965, Note_on_c, 0, 67, 0
2, 60968, Note_on_c, 0, 79, 0
2, 60979, Note_on_c, 0, 63, 61
2, 60984, Note_on_c, 0, 55, 59
2, 60991, Note_on_c, 0, 49, 0
2, 60994, Note_on_c, 0, 78, 77
2, 60996, Note_on_c, 0, 37, 0
2, 61001, Note_on_c, 0, 66, 77
2, 61001, Note_on_c, 0, 70, 78
2, 61001, Note_on_c, 0, 75, 74
2, 61021, Note_on_c, 0, 75, 0
2, 61021, Note_on_c, 0, 70, 0
2, 61033, Note_on_c, 0, 78, 0
2, 61038, Note_on_c, 0, 58, 0
2, 61038, Note_on_c, 0, 51, 0
2, 61040, Note_on_c, 0, 66, 0
2, 61054, Note_on_c, 0, 70, 75
2, 61056, Note_on_c, 0, 79, 77
2, 61059, Note_on_c, 0, 67, 74
2, 61061, Note_on_c, 0, 75, 73
2, 61067, Note_on_c, 0, 79, 0
2, 61067, Control_c, 0, 64, 0
2, 61072, Note_on_c, 0, 67, 0
2, 61074, Note_on_c, 0, 75, 0
2, 61084, Note_on_c, 0, 55, 0
2, 61086, Note_on_c, 0, 63, 0
2, 61092, Note_on_c, 0, 70, 0
2, 61094, Note_on_c, 0, 35, 77
2, 61094, Note_on_c, 0, 79, 79
2, 61097, Note_on_c, 0, 47, 78
2, 61099, Note_on_c, 0, 67, 82
2, 61106, Note_on_c, 0, 71, 80
2, 61108, Note_on_c, 0, 75, 78
2, 61162, Note_on_c, 0, 51, 63
2, 61168, Note_on_c, 0, 59, 66
2, 61176, Control_c, 0, 64, 127
2, 61220, Note_on_c, 0, 67, 0
2, 61224, Note_on_c, 0, 47, 0
2, 61224, Note_on_c, 0, 63, 66
2, 61224, Note_on_c, 0, 68, 72
2, 61226, Note_on_c, 0, 71, 0
2, 61226, Note_on_c, 0, 75, 0
2, 61226, Note_on_c, 0, 79, 0
2, 61232, Note_on_c, 0, 80, 77
2, 61234, Note_on_c, 0, 35, 0
2, 61237, Note_on_c, 0, 56, 59
2, 61263, Note_on_c, 0, 51, 0
2, 61263, Note_on_c, 0, 59, 0
2, 61266, Note_on_c, 0, 63, 0
2, 61266, Control_c, 0, 64, 0
2, 61276, Note_on_c, 0, 56, 0
2, 61309, Note_on_c, 0, 46, 84
2, 61311, Note_on_c, 0, 73, 76
2, 61311, Note_on_c, 0, 75, 76
2, 61313, Note_on_c, 0, 34, 84
2, 61365, Control_c, 0, 64, 127
2, 61375, Note_on_c, 0, 51, 63
2, 61375, Note_on_c, 0, 61, 65
2, 61424, Note_on_c, 0, 80, 0
2, 61429, Note_on_c, 0, 68, 0
2, 61429, Note_on_c, 0, 63, 60
2, 61434, Note_on_c, 0, 55, 59
2, 61436, Note_on_c, 0, 73, 0
2, 61436, Note_on_c, 0, 70, 83
2, 61436, Note_on_c, 0, 82, 77
2, 61438, Note_on_c, 0, 75, 0
2, 61458, Note_on_c, 0, 34, 0
2, 61460, Note_on_c, 0, 46, 0
2, 61475, Note_on_c, 0, 70, 0
2, 61475, Note_on_c, 0, 61, 0
2, 61477, Note_on_c, 0, 82, 0
2, 61480, Note_on_c, 0, 51, 0
2, 61489, Control_c, 0, 64, 0
2, 61494, Note_on_c, 0, 55, 0
2, 61494, Note_on_c, 0, 63, 0
2, 61525, Note_on_c, 0, 32, 79
2, 61527, Note_on_c, 0, 44, 82
2, 61530, Note_on_c, 0, 70, 83
2, 61530, Note_on_c, 0, 75, 84
2, 61530, Note_on_c, 0, 80, 82
2, 61530, Note_on_c, 0, 82, 84
2, 61591, Control_c, 0, 64, 127
2, 61593, Note_on_c, 0, 51, 64
2, 61596, Note_on_c, 0, 59, 61
2, 61650, Note_on_c, 0, 70, 0
2, 61650, Note_on_c, 0, 71, 82
2, 61650, Note_on_c, 0, 83, 80
2, 61653, Note_on_c, 0, 80, 0
2, 61653, Note_on_c, 0, 82, 0
2, 61657, Note_on_c, 0, 75, 0
2, 61663, Note_on_c, 0, 63, 71
2, 61668, Note_on_c, 0, 56, 72
2, 61673, Note_on_c, 0, 44, 0
2, 61685, Note_on_c, 0, 32, 0
2, 61695, Note_on_c, 0, 59, 0
2, 61703, Note_on_c, 0, 56, 0
2, 61708, Note_on_c, 0, 51, 0
2, 61736, Note_on_c, 0, 63, 0
2, 61738, Note_on_c, 0, 71, 0
2, 61740, Note_on_c, 0, 83, 0
2, 61740, Control_c, 0, 64, 0
2, 61748, Note_on_c, 0, 56, 81
2, 61752, Note_on_c, 0, 70, 83
2, 61752, Note_on_c, 0, 74, 77
2, 61752, Note_on_c, 0, 77, 77
2, 61752, Note_on_c, 0, 82, 80
2, 61755, Note_on_c, 0, 44, 84
2, 61850, Control_c, 0, 64, 127
2, 61868, Note_on_c, 0, 72, 83
2, 61870, Note_on_c, 0, 84, 83
2, 61872, Note_on_c, 0, 58, 71
2, 61877, Note_on_c, 0, 50, 69
2, 61890, Note_on_c, 0, 82, 0
2, 61890, Note_on_c, 0, 74, 0
2, 61893, Note_on_c, 0, 56, 0
2, 61895, Note_on_c, 0, 70, 0
2, 61895, Note_on_c, 0, 77, 0
2, 61931, Note_on_c, 0, 44, 0
2, 61939, Note_on_c, 0, 53, 70
2, 61939, Note_on_c, 0, 62, 71
2, 61946, Note_on_c, 0, 74, 82
2, 61946, Note_on_c, 0, 86, 78
2, 61971, Note_on_c, 0, 74, 0
2, 61973, Note_on_c, 0, 86, 0
2, 61976, Note_on_c, 0, 53, 0
2, 61976, Note_on_c, 0, 58, 0
2, 61976, Note_on_c, 0, 62, 0
2, 61979, Note_on_c, 0, 72, 0
2, 61979, Note_on_c, 0, 84, 0
2, 61984, Control_c, 0, 64, 0
2, 61989, Note_on_c, 0, 50, 0
2, 62012, Note_on_c, 0, 86, 83
2, 62014, Note_on_c, 0, 42, 84
2, 62016, Note_on_c, 0, 54, 83
2, 62016, Note_on_c, 0, 74, 83
2, 62016, Note_on_c, 0, 78, 80
2, 62026, Note_on_c, 0, 82, 78
2, 62040, Note_on_c, 0, 54, 0
2, 62075, Control_c, 0, 64, 127
2, 62090, Note_on_c, 0, 51, 66
2, 62090, Note_on_c, 0, 58, 64
2, 62146, Note_on_c, 0, 75, 81
2, 62146, Note_on_c, 0, 87, 78
2, 62149, Note_on_c, 0, 63, 72
2, 62151, Note_on_c, 0, 74, 0
2, 62154, Note_on_c, 0, 54, 69
2, 62157, Note_on_c, 0, 82, 0
2, 62159, Note_on_c, 0, 86, 0
2, 62160, Note_on_c, 0, 42, 0
2, 62165, Note_on_c, 0, 78, 0
2, 62208, Note_on_c, 0, 51, 0
2, 62214, Note_on_c, 0, 58, 0
2, 62240, Note_on_c, 0, 54, 0
2, 62242, Note_on_c, 0, 75, 0
2, 62242, Note_on_c, 0, 63, 0
2, 62244, Note_on_c, 0, 87, 0
2, 62244, Control_c, 0, 64, 0
2, 62262, Note_on_c, 0, 74, 74
2, 62262, Note_on_c, 0, 79, 75
2, 62262, Note_on_c, 0, 86, 76
2, 62264, Note_on_c, 0, 37, 80
2, 62266, Note_on_c, 0, 49, 77
2, 62268, Note_on_c, 0, 82, 77
2, 62339, Control_c, 0, 64, 127
2, 62349, Note_on_c, 0, 51, 67
2, 62351, Note_on_c, 0, 58, 67
2, 62402, Note_on_c, 0, 74, 0
2, 62408, Note_on_c, 0, 86, 0
2, 62408, Note_on_c, 0, 75, 74
2, 62408, Note_on_c, 0, 87, 74
2, 62413, Note_on_c, 0, 55, 62
2, 62415, Note_on_c, 0, 63, 65
2, 62417, Note_on_c, 0, 79, 0
2, 62422, Note_on_c, 0, 82, 0
2, 62424, Note_on_c, 0, 49, 0
2, 62445, Note_on_c, 0, 37, 0
2, 62460, Note_on_c, 0, 58, 0
2, 62472, Note_on_c, 0, 51, 0
2, 62516, Note_on_c, 0, 87, 0
2, 62520, Note_on_c, 0, 75, 0
2, 62522, Control_c, 0, 64, 0
2, 62524, Note_on_c, 0, 55, 0
2, 62529, Note_on_c, 0, 63, 0
2, 62529, Note_on_c, 0, 86, 74
2, 62534, Note_on_c, 0, 74, 75
2, 62534, Note_on_c, 0, 80, 81
2, 62534, Note_on_c, 0, 83, 80
2, 62537, Note_on_c, 0, 35, 77
2, 62537, Note_on_c, 0, 47, 80
2, 62623, Control_c, 0, 64, 127
2, 62660, Note_on_c, 0, 51, 69
2, 62660, Note_on_c, 0, 59, 74
2, 62662, Note_on_c, 0, 74, 0
2, 62664, Note_on_c, 0, 86, 0
2, 62664, Note_on_c, 0, 75, 74
2, 62668, Note_on_c, 0, 87, 76
2, 62724, Note_on_c, 0, 47, 0
2, 62730, Note_on_c, 0, 80, 0
2, 62733, Note_on_c, 0, 83, 0
2, 62742, Note_on_c, 0, 35, 0
2, 62750, Note_on_c, 0, 63, 71
2, 62758, Note_on_c, 0, 56, 71
2, 62760, Note_on_c, 0, 74, 77
2, 62760, Note_on_c, 0, 86, 76
2, 62761, Note_on_c, 0, 87, 0
2, 62774, Note_on_c, 0, 75, 0
2, 62792, Note_on_c, 0, 59, 0
2, 62797, Note_on_c, 0, 51, 0
2, 62837, Note_on_c, 0, 74, 0
2, 62840, Note_on_c, 0, 86, 0
2, 62842, Control_c, 0, 64, 0
2, 62856, Note_on_c, 0, 46, 72
2, 62858, Note_on_c, 0, 63, 0
2, 62858, Note_on_c, 0, 56, 0
2, 62860, Note_on_c, 0, 79, 73
2, 62862, Note_on_c, 0, 34, 74
2, 62865, Note_on_c, 0, 75, 73
2, 62865, Note_on_c, 0, 85, 79
2, 62865, Note_on_c, 0, 87, 79
2, 62932, Control_c, 0, 64, 127
2, 62955, Note_on_c, 0, 74, 74
2, 62955, Note_on_c, 0, 86, 77
2, 62960, Note_on_c, 0, 51, 59
2, 62960, Note_on_c, 0, 61, 65
2, 62971, Note_on_c, 0, 87, 0
2, 62976, Note_on_c, 0, 75, 0
2, 62987, Note_on_c, 0, 85, 0
2, 62987, Note_on_c, 0, 79, 0
2, 62995, Note_on_c, 0, 86, 0
2, 62995, Note_on_c, 0, 74, 0
2, 63021, Note_on_c, 0, 75, 76
2, 63026, Note_on_c, 0, 87, 72
2, 63032, Note_on_c, 0, 55, 59
2, 63038, Note_on_c, 0, 63, 62
2, 63046, Note_on_c, 0, 46, 0
2, 63058, Note_on_c, 0, 75, 0
2, 63064, Note_on_c, 0, 34, 0
2, 63066, Note_on_c, 0, 87, 0
2, 63083, Note_on_c, 0, 74, 73
2, 63085, Note_on_c, 0, 86, 74
2, 63091, Note_on_c, 0, 61, 0
2, 63096, Note_on_c, 0, 51, 0
2, 63123, Note_on_c, 0, 74, 0
2, 63123, Note_on_c, 0, 86, 0
2, 63136, Note_on_c, 0, 75, 76
2, 63142, Note_on_c, 0, 87, 76
2, 63154, Note_on_c, 0, 55, 0
2, 63167, Note_on_c, 0, 63, 0
2, 63174, Note_on_c, 0, 75, 0
2, 63180, Note_on_c, 0, 87, 0
2, 63186, Note_on_c, 0, 74, 76
2, 63186, Note_on_c, 0, 86, 74
2, 63226, Note_on_c, 0, 86, 0
2, 63226, Note_on_c, 0, 74, 0
2, 63231, Note_on_c, 0, 75, 73
2, 63231, Note_on_c, 0, 87, 72
2, 63237, Control_c, 0, 64, 0
2, 63244, Note_on_c, 0, 87, 0
2, 63244, Note_on_c, 0, 75, 0
2, 63250, Note_on_c, 0, 33, 82
2, 63276, Note_on_c, 0, 75, 84
2, 63276, Note_on_c, 0, 81, 83
2, 63276, Note_on_c, 0, 85, 84
2, 63276, Note_on_c, 0, 87, 83
2, 63294, Note_on_c, 0, 45, 83
2, 63353, Control_c, 0, 64, 127
2, 63404, Note_on_c, 0, 52, 67
2, 63404, Note_on_c, 0, 61, 68
2, 63468, Note_on_c, 0, 87, 0
2, 63476, Note_on_c, 0, 64, 69
2, 63476, Note_on_c, 0, 76, 72
2, 63476, Note_on_c, 0, 88, 77
2, 63480, Note_on_c, 0, 57, 65
2, 63482, Note_on_c, 0, 81, 0
2, 63482, Note_on_c, 0, 75, 0
2, 63501, Note_on_c, 0, 52, 0
2, 63508, Note_on_c, 0, 61, 0
2, 63508, Note_on_c, 0, 85, 0
2, 63521, Note_on_c, 0, 76, 0
2, 63521, Note_on_c, 0, 33, 0
2, 63528, Note_on_c, 0, 45, 0
2, 63549, Note_on_c, 0, 88, 0
2, 63562, Note_on_c, 0, 52, 67
2, 63562, Note_on_c, 0, 61, 67
2, 63583, Note_on_c, 0, 57, 0
2, 63589, Note_on_c, 0, 64, 0
2, 63589, Note_on_c, 0, 52, 0
2, 63589, Note_on_c, 0, 61, 0
2, 63648, Note_on_c, 0, 88, 78
2, 63648, Note_on_c, 0, 95, 78
2, 63649, Note_on_c, 0, 64, 69
2, 63654, Note_on_c, 0, 83, 77
2, 63654, Note_on_c, 0, 85, 83
2, 63659, Note_on_c, 0, 57, 68
2, 63738, Note_on_c, 0, 52, 66
2, 63738, Note_on_c, 0, 61, 67
2, 63751, Note_on_c, 0, 57, 0
2, 63759, Note_on_c, 0, 64, 0
2, 63785, Note_on_c, 0, 85, 0
2, 63785, Note_on_c, 0, 88, 0
2, 63785, Note_on_c, 0, 83, 0
2, 63785, Note_on_c, 0, 95, 0
2, 63795, Note_on_c, 0, 57, 65
2, 63795, Note_on_c, 0, 64, 67
2, 63837, Note_on_c, 0, 64, 0
2, 63841, Note_on_c, 0, 61, 0
2, 63849, Note_on_c, 0, 52, 0
2, 63867, Note_on_c, 0, 64, 66
2, 63867, Note_on_c, 0, 73, 72
2, 63900, Note_on_c, 0, 76, 68
2, 63906, Note_on_c, 0, 69, 66
2, 63908, Note_on_c, 0, 57, 0
2, 63920, Note_on_c, 0, 73, 0
2, 63984, Note_on_c, 0, 64, 0
2, 64015, Note_on_c, 0, 69, 0
2, 64015, Note_on_c, 0, 76, 0
2, 64028, Note_on_c, 0, 81, 78
2, 64028, Note_on_c, 0, 85, 83
2, 64028, Note_on_c, 0, 88, 84
2, 64028, Note_on_c, 0, 93, 77
2, 64129, Note_on_c, 0, 93, 0
2, 64143, Note_on_c, 0, 85, 0
2, 64149, Note_on_c, 0, 81, 0
2, 64154, Note_on_c, 0, 88, 0
2, 64205, Note_on_c, 0, 92, 82
2, 64207, Note_on_c, 0, 80, 78
2, 64207, Note_on_c, 0, 85, 84
2, 64324, Note_on_c, 0, 80, 0
2, 64330, Note_on_c, 0, 92, 0
2, 64336, Note_on_c, 0, 85, 0
2, 64430, Note_on_c, 0, 78, 83
2, 64430, Note_on_c, 0, 85, 81
2, 64430, Note_on_c, 0, 90, 82
2, 64456, Note_on_c, 0, 27, 84
2, 64514, Note_on_c, 0, 90, 0
2, 64514, Note_on_c, 0, 78, 0
2, 64514, Note_on_c, 0, 85, 0
2, 64516, Control_c, 0, 64, 0
2, 64545, Note_on_c, 0, 89, 83
2, 64547, Note_on_c, 0, 79, 78
2, 64555, Note_on_c, 0, 39, 70
2, 64555, Note_on_c, 0, 77, 82
2, 64555, Note_on_c, 0, 85, 81
2, 64639, Note_on_c, 0, 46, 65
2, 64639, Note_on_c, 0, 55, 72
2, 64645, Control_c, 0, 64, 127
2, 64658, Note_on_c, 0, 55, 0
2, 64697, Note_on_c, 0, 55, 42
2, 64697, Note_on_c, 0, 61, 44
2, 64722, Note_on_c, 0, 61, 0
2, 64735, Note_on_c, 0, 39, 0
2, 64761, Note_on_c, 0, 61, 78
2, 64761, Note_on_c, 0, 67, 72
2, 64776, Note_on_c, 0, 27, 0
2, 64787, Note_on_c, 0, 46, 0
2, 64800, Note_on_c, 0, 85, 0
2, 64805, Note_on_c, 0, 89, 0
2, 64805, Note_on_c, 0, 77, 0
2, 64805, Note_on_c, 0, 79, 0
2, 64828, Note_on_c, 0, 55, 0
2, 64882, Note_on_c, 0, 67, 0
2, 64887, Note_on_c, 0, 76, 78
2, 64887, Note_on_c, 0, 88, 83
2, 64889, Note_on_c, 0, 61, 0
2, 64922, Control_c, 0, 64, 0
2, 64961, Note_on_c, 0, 33, 77
2, 64961, Note_on_c, 0, 45, 79
2, 65025, Control_c, 0, 64, 127
2, 65033, Note_on_c, 0, 52, 69
2, 65085, Note_on_c, 0, 88, 0
2, 65089, Note_on_c, 0, 81, 76
2, 65089, Note_on_c, 0, 87, 73
2, 65091, Note_on_c, 0, 76, 0
2, 65091, Note_on_c, 0, 57, 67
2, 65091, Note_on_c, 0, 61, 68
2, 65091, Note_on_c, 0, 75, 73
2, 65093, Note_on_c, 0, 52, 0
2, 65130, Note_on_c, 0, 52, 68
2, 65156, Note_on_c, 0, 81, 0
2, 65158, Note_on_c, 0, 61, 0
2, 65158, Note_on_c, 0, 57, 0
2, 65183, Note_on_c, 0, 75, 0
2, 65183, Note_on_c, 0, 87, 0
2, 65187, Note_on_c, 0, 73, 72
2, 65187, Note_on_c, 0, 81, 73
2, 65189, Note_on_c, 0, 61, 72
2, 65194, Note_on_c, 0, 85, 76
2, 65197, Note_on_c, 0, 52, 0
2, 65197, Note_on_c, 0, 57, 68
2, 65212, Note_on_c, 0, 33, 0
2, 65218, Note_on_c, 0, 45, 0
2, 65231, Note_on_c, 0, 61, 0
2, 65238, Note_on_c, 0, 52, 67
2, 65289, Note_on_c, 0, 61, 70
2, 65289, Note_on_c, 0, 64, 71
2, 65307, Note_on_c, 0, 73, 0
2, 65321, Note_on_c, 0, 64, 0
2, 65339, Note_on_c, 0, 57, 0
2, 65345, Note_on_c, 0, 81, 0
2, 65345, Note_on_c, 0, 85, 0
2, 65357, Note_on_c, 0, 71, 72
2, 65357, Note_on_c, 0, 73, 78
2, 65357, Note_on_c, 0, 83, 73
2, 65359, Note_on_c, 0, 64, 67
2, 65377, Note_on_c, 0, 83, 0
2, 65379, Note_on_c, 0, 52, 0
2, 65379, Note_on_c, 0, 64, 0
2, 65384, Note_on_c, 0, 71, 0
2, 65384, Note_on_c, 0, 73, 0
2, 65409, Note_on_c, 0, 83, 83
2, 65411, Note_on_c, 0, 61, 0
2, 65413, Note_on_c, 0, 64, 68
2, 65413, Note_on_c, 0, 76, 81
2, 65418, Note_on_c, 0, 71, 84
2, 65418, Note_on_c, 0, 73, 78
2, 65464, Note_on_c, 0, 73, 0
2, 65535, Note_on_c, 0, 76, 0
2, 65535, Note_on_c, 0, 83, 0
2, 65535, Note_on_c, 0, 69, 72
2, 65535, Note_on_c, 0, 73, 74
2, 65535, Note_on_c, 0, 81, 77
2, 65537, Note_on_c, 0, 71, 0
2, 65544, Note_on_c, 0, 64, 0
2, 65575, Note_on_c, 0, 73, 0
2, 65650, Note_on_c, 0, 69, 0
2, 65655, Note_on_c, 0, 81, 0
2, 65663, Note_on_c, 0, 68, 77
2, 65663, Note_on_c, 0, 73, 74
2, 65663, Note_on_c, 0, 80, 74
2, 65701, Note_on_c, 0, 73, 0
2, 65778, Note_on_c, 0, 78, 74
2, 65780, Note_on_c, 0, 80, 0
2, 65780, Note_on_c, 0, 68, 0
2, 65785, Note_on_c, 0, 66, 71
2, 65785, Note_on_c, 0, 73, 78
2, 65793, Note_on_c, 0, 27, 80
2, 65795, Control_c, 0, 64, 0
2, 65812, Note_on_c, 0, 73, 0
2, 65814, Note_on_c, 0, 66, 0
2, 65820, Note_on_c, 0, 78, 0
2, 65853, Note_on_c, 0, 39, 81
2, 65857, Note_on_c, 0, 65, 84
2, 65857, Note_on_c, 0, 67, 82
2, 65857, Note_on_c, 0, 73, 83
2, 65857, Note_on_c, 0, 77, 81
2, 65917, Control_c, 0, 64, 127
2, 65929, Note_on_c, 0, 46, 70
2, 65935, Note_on_c, 0, 55, 69
2, 65968, Note_on_c, 0, 55, 0
2, 65980, Note_on_c, 0, 67, 0
2, 65991, Note_on_c, 0, 61, 65
2, 66000, Note_on_c, 0, 55, 71
2, 66006, Note_on_c, 0, 65, 0
2, 66019, Note_on_c, 0, 61, 0
2, 66051, Note_on_c, 0, 61, 67
2, 66051, Note_on_c, 0, 67, 71
2, 66053, Note_on_c, 0, 39, 0
2, 66066, Note_on_c, 0, 27, 0
2, 66078, Note_on_c, 0, 73, 0
2, 66078, Note_on_c, 0, 77, 0
2, 66086, Note_on_c, 0, 46, 0
2, 66122, Note_on_c, 0, 55, 0
2, 66161, Note_on_c, 0, 67, 0
2, 66174, Note_on_c, 0, 61, 0
2, 66176, Note_on_c, 0, 64, 79
2, 66176, Note_on_c, 0, 76, 73
2, 66210, Control_c, 0, 64, 0
2, 66233, Note_on_c, 0, 33, 83
2, 66233, Note_on_c, 0, 45, 84
2, 66315, Control_c, 0, 64, 127
2, 66315, Note_on_c, 0, 52, 69
2, 66354, Note_on_c, 0, 76, 0
2, 66356, Note_on_c, 0, 63, 65
2, 66360, Note_on_c, 0, 61, 70
2, 66360, Note_on_c, 0, 69, 76
2, 66360, Note_on_c, 0, 75, 72
2, 66365, Note_on_c, 0, 57, 69
2, 66368, Note_on_c, 0, 64, 0
2, 66394, Note_on_c, 0, 63, 0
2, 66399, Note_on_c, 0, 75, 0
2, 66399, Note_on_c, 0, 61, 0
2, 66399, Note_on_c, 0, 69, 0
2, 66408, Note_on_c, 0, 57, 0
2, 66452, Note_on_c, 0, 76, 72
2, 66454, Note_on_c, 0, 57, 67
2, 66454, Note_on_c, 0, 61, 72
2, 66454, Note_on_c, 0, 64, 66
2, 66454, Note_on_c, 0, 69, 75
2, 66467, Note_on_c, 0, 45, 0
2, 66473, Note_on_c, 0, 33, 0
2, 66483, Note_on_c, 0, 52, 0
2, 66489, Note_on_c, 0, 64, 0
2, 66489, Note_on_c, 0, 69, 0
2, 66489, Note_on_c, 0, 76, 0
2, 66491, Note_on_c, 0, 61, 0
2, 66504, Note_on_c, 0, 57, 0
2, 66529, Note_on_c, 0, 52, 71
2, 66534, Note_on_c, 0, 57, 72
2, 66534, Note_on_c, 0, 61, 66
2, 66534, Note_on_c, 0, 63, 72
2, 66539, Note_on_c, 0, 75, 78
2, 66544, Note_on_c, 0, 69, 75
2, 66554, Note_on_c, 0, 61, 0
2, 66562, Note_on_c, 0, 57, 0
2, 66568, Note_on_c, 0, 69, 0
2, 66576, Note_on_c, 0, 63, 0
2, 66580, Note_on_c, 0, 75, 0
2, 66600, Note_on_c, 0, 57, 67
2, 66600, Note_on_c, 0, 64, 65
2, 66606, Note_on_c, 0, 61, 70
2, 66606, Note_on_c, 0, 69, 73
2, 66606, Note_on_c, 0, 73, 71
2, 66620, Note_on_c, 0, 57, 0
2, 66625, Note_on_c, 0, 69, 0
2, 66625, Note_on_c, 0, 61, 0
2, 66625, Note_on_c, 0, 64, 0
2, 66628, Control_c, 0, 64, 0
2, 66631, Note_on_c, 0, 73, 0
2, 66659, Note_on_c, 0, 57, 72
2, 66659, Note_on_c, 0, 64, 68
2, 66665, Note_on_c, 0, 61, 69
2, 66665, Note_on_c, 0, 69, 78
2, 66665, Note_on_c, 0, 73, 82
2, 66744, Control_c, 0, 64, 127
2, 66754, Note_on_c, 0, 71, 75
2, 66762, Note_on_c, 0, 59, 75
2, 66769, Note_on_c, 0, 57, 0
2, 66774, Note_on_c, 0, 69, 0
2, 66774, Note_on_c, 0, 61, 0
2, 66774, Note_on_c, 0, 64, 0
2, 66780, Note_on_c, 0, 73, 0
2, 66832, Note_on_c, 0, 59, 0
2, 66832, Note_on_c, 0, 71, 0
2, 66840, Note_on_c, 0, 57, 68
2, 66840, Note_on_c, 0, 61, 69
2, 66840, Note_on_c, 0, 69, 77
2, 66867, Note_on_c, 0, 69, 0
2, 66867, Note_on_c, 0, 61, 0
2, 66867, Note_on_c, 0, 57, 0
2, 66869, Note_on_c, 0, 52, 0
2, 66911, Note_on_c, 0, 57, 72
2, 66911, Note_on_c, 0, 61, 70
2, 66915, Note_on_c, 0, 69, 77
2, 66967, Note_on_c, 0, 61, 0
2, 66993, Note_on_c, 0, 69, 0
2, 66993, Note_on_c, 0, 57, 0
2, 67007, Note_on_c, 0, 61, 66
2, 67011, Note_on_c, 0, 56, 70
2, 67011, Note_on_c, 0, 68, 83
2, 67044, Note_on_c, 0, 61, 0
2, 67085, Note_on_c, 0, 68, 0
2, 67085, Note_on_c, 0, 56, 0
2, 67091, Note_on_c, 0, 54, 68
2, 67091, Note_on_c, 0, 61, 69
2, 67091, Note_on_c, 0, 66, 78
2, 67128, Note_on_c, 0, 27, 84
2, 67129, Note_on_c, 0, 66, 0
2, 67129, Note_on_c, 0, 54, 0
2, 67129, Note_on_c, 0, 61, 0
2, 67137, Control_c, 0, 64, 0
2, 67157, Note_on_c, 0, 65, 84
2, 67162, Note_on_c, 0, 39, 41
2, 67162, Note_on_c, 0, 55, 43
2, 67162, Note_on_c, 0, 61, 44
2, 67208, Note_on_c, 0, 55, 0
2, 67229, Control_c, 0, 64, 127
2, 67280, Note_on_c, 0, 46, 71
2, 67280, Note_on_c, 0, 55, 70
2, 67305, Note_on_c, 0, 61, 0
2, 67319, Note_on_c, 0, 55, 0
2, 67342, Note_on_c, 0, 65, 0
2, 67355, Note_on_c, 0, 55, 68
2, 67355, Note_on_c, 0, 61, 70
2, 67389, Note_on_c, 0, 27, 0
2, 67393, Note_on_c, 0, 61, 0
2, 67427, Note_on_c, 0, 39, 0
2, 67430, Note_on_c, 0, 67, 72
2, 67433, Note_on_c, 0, 46, 0
2, 67433, Note_on_c, 0, 61, 68
2, 67491, Note_on_c, 0, 55, 0
2, 67563, Note_on_c, 0, 61, 0
2, 67568, Note_on_c, 0, 67, 0
2, 67609, Note_on_c, 0, 64, 72
2, 67709, Note_on_c, 0, 33, 62
2, 67755, Control_c, 0, 64, 0
2, 67774, Note_on_c, 0, 45, 65
2, 67781, Note_on_c, 0, 55, 61
2, 67781, Note_on_c, 0, 65, 77
2, 67787, Note_on_c, 0, 61, 66
2, 67800, Note_on_c, 0, 64, 0
2, 67856, Control_c, 0, 64, 127
2, 67858, Note_on_c, 0, 45, 0
2, 67864, Note_on_c, 0, 55, 0
2, 67895, Note_on_c, 0, 45, 64
2, 67902, Note_on_c, 0, 55, 62
2, 67915, Note_on_c, 0, 61, 0
2, 67943, Note_on_c, 0, 55, 0
2, 67981, Note_on_c, 0, 65, 0
2, 67987, Note_on_c, 0, 61, 59
2, 67994, Note_on_c, 0, 55, 60
2, 68027, Note_on_c, 0, 61, 0
2, 68040, Note_on_c, 0, 33, 0
2, 68053, Note_on_c, 0, 45, 0
2, 68071, Note_on_c, 0, 61, 64
2, 68071, Note_on_c, 0, 67, 72
2, 68136, Note_on_c, 0, 55, 0
2, 68212, Note_on_c, 0, 61, 0
2, 68217, Note_on_c, 0, 67, 0
2, 68269, Note_on_c, 0, 64, 74
2, 68381, Note_on_c, 0, 64, 0
2, 68450, Control_c, 0, 64, 0
2, 68464, Note_on_c, 0, 64, 66
2, 68469, Note_on_c, 0, 27, 72
2, 68469, Note_on_c, 0, 39, 67
2, 68471, Note_on_c, 0, 61, 68
2, 68483, Note_on_c, 0, 55, 69
2, 68511, Note_on_c, 0, 55, 0
2, 68572, Control_c, 0, 64, 127
2, 68605, Note_on_c, 0, 46, 68
2, 68605, Note_on_c, 0, 55, 72
2, 68641, Note_on_c, 0, 55, 0
2, 68641, Note_on_c, 0, 61, 0
2, 68655, Note_on_c, 0, 64, 0
2, 68680, Note_on_c, 0, 27, 0
2, 68686, Note_on_c, 0, 39, 0
2, 68698, Note_on_c, 0, 55, 59
2, 68698, Note_on_c, 0, 61, 60
2, 68732, Note_on_c, 0, 46, 0
2, 68739, Note_on_c, 0, 61, 0
2, 68793, Note_on_c, 0, 61, 66
2, 68793, Note_on_c, 0, 67, 59
2, 68821, Note_on_c, 0, 55, 0
2, 68926, Note_on_c, 0, 67, 0
2, 68926, Note_on_c, 0, 61, 0
2, 69012, Note_on_c, 0, 63, 73
2, 69233, Control_c, 0, 64, 0
2, 69254, Note_on_c, 0, 33, 61
2, 69262, Note_on_c, 0, 61, 66
2, 69262, Note_on_c, 0, 65, 83
2, 69266, Note_on_c, 0, 45, 66
2, 69268, Note_on_c, 0, 55, 65
2, 69289, Note_on_c, 0, 63, 0
2, 69363, Control_c, 0, 64, 127
2, 69386, Note_on_c, 0, 55, 0
2, 69392, Note_on_c, 0, 45, 0
2, 69435, Note_on_c, 0, 45, 60
2, 69435, Note_on_c, 0, 55, 58
2, 69481, Note_on_c, 0, 61, 0
2, 69492, Note_on_c, 0, 55, 0
2, 69494, Note_on_c, 0, 65, 0
2, 69497, Note_on_c, 0, 33, 0
2, 69568, Note_on_c, 0, 45, 0
2, 69568, Note_on_c, 0, 61, 47
2, 69576, Note_on_c, 0, 55, 52
2, 69616, Note_on_c, 0, 61, 0
2, 69675, Note_on_c, 0, 61, 55
2, 69683, Note_on_c, 0, 67, 65
2, 69701, Note_on_c, 0, 55, 0
2, 69815, Note_on_c, 0, 67, 0
2, 69828, Note_on_c, 0, 61, 0
2, 69936, Note_on_c, 0, 64, 71
2, 70066, Note_on_c, 0, 64, 0
2, 70235, Control_c, 0, 64, 0
2, 70248, Note_on_c, 0, 64, 41
2, 70260, Note_on_c, 0, 27, 44
2, 70260, Note_on_c, 0, 39, 48
2, 70263, Note_on_c, 0, 55, 43
2, 70265, Note_on_c, 0, 61, 43
2, 70360, Control_c, 0, 64, 127
2, 70409, Note_on_c, 0, 55, 0
2, 70458, Note_on_c, 0, 46, 45
2, 70458, Note_on_c, 0, 55, 43
2, 70473, Note_on_c, 0, 61, 0
2, 70486, Note_on_c, 0, 64, 0
2, 70558, Note_on_c, 0, 55, 0
2, 70604, Note_on_c, 0, 55, 43
2, 70604, Note_on_c, 0, 61, 42
2, 70719, Note_on_c, 0, 61, 0
2, 70768, Note_on_c, 0, 61, 45
2, 70768, Note_on_c, 0, 67, 41
2, 70903, Note_on_c, 0, 67, 0
2, 71289, Control_c, 0, 67, 127
2, 71693, Note_on_c, 0, 63, 49
2, 71826, Control_c, 0, 64, 0
2, 71962, Control_c, 0, 64, 127
2, 72019, Note_on_c, 0, 27, 0
2, 72132, Note_on_c, 0, 46, 0
2, 72134, Note_on_c, 0, 55, 0
2, 72134, Note_on_c, 0, 61, 0
2, 72137, Note_on_c, 0, 39, 0
2, 72142, Note_on_c, 0, 63, 0
2, 72459, Control_c, 0, 67, 0
2, 72644, Control_c, 0, 64, 0
2, 72648, Note_on_c, 0, 58, 43
2, 72661, Note_on_c, 0, 55, 47
2, 72759, Control_c, 0, 64, 127
2, 72884, Note_on_c, 0, 55, 0
2, 72884, Note_on_c, 0, 58, 0
2, 72917, Note_on_c, 0, 59, 44
2, 72927, Note_on_c, 0, 56, 41
2, 73032, Note_on_c, 0, 59, 0
2, 73053, Note_on_c, 0, 56, 0
2, 73073, Note_on_c, 0, 63, 44
2, 73086, Note_on_c, 0, 59, 42
2, 73107, Control_c, 0, 64, 0
2, 73312, Control_c, 0, 64, 127
2, 73330, Control_c, 0, 67, 127
2, 73473, Note_on_c, 0, 63, 0
2, 73479, Note_on_c, 0, 59, 0
2, 73531, Note_on_c, 0, 61, 44
2, 73544, Note_on_c, 0, 58, 44
2, 73585, Control_c, 0, 64, 0
2, 73834, Control_c, 0, 64, 127
2, 73947, Note_on_c, 0, 58, 0
2, 73947, Note_on_c, 0, 61, 0
2, 73980, Control_c, 0, 67, 0
2, 73983, Control_c, 0, 64, 0
2, 74210, Control_c, 0, 64, 127
2, 74228, Note_on_c, 0, 63, 48
2, 74240, Note_on_c, 0, 59, 48
2, 74248, Control_c, 0, 64, 0
2, 74343, Control_c, 0, 64, 127
2, 74450, Note_on_c, 0, 59, 0
2, 74456, Note_on_c, 0, 64, 43
2, 74470, Note_on_c, 0, 63, 0
2, 74470, Note_on_c, 0, 61, 41
2, 74477, Control_c, 0, 64, 0
2, 74565, Control_c, 0, 64, 127
2, 74664, Note_on_c, 0, 61, 0
2, 74666, Note_on_c, 0, 64, 0
2, 74685, Note_on_c, 0, 63, 58
2, 74685, Note_on_c, 0, 66, 61
2, 74694, Control_c, 0, 64, 0
2, 74796, Control_c, 0, 64, 127
2, 74834, Note_on_c, 0, 66, 0
2, 74873, Note_on_c, 0, 70, 56
2, 74883, Note_on_c, 0, 66, 42
2, 74917, Note_on_c, 0, 63, 0
2, 74968, Control_c, 0, 64, 0
2, 75163, Control_c, 0, 64, 127
2, 75198, Control_c, 0, 67, 127
2, 75370, Note_on_c, 0, 70, 0
2, 75378, Note_on_c, 0, 66, 0
2, 75468, Note_on_c, 0, 64, 44
2, 75476, Note_on_c, 0, 68, 43
2, 75528, Control_c, 0, 64, 0
2, 75795, Control_c, 0, 67, 0
2, 75993, Note_on_c, 0, 68, 0
2, 75993, Note_on_c, 0, 64, 0
2, 76372, Control_c, 0, 64, 127
2, 76392, Note_on_c, 0, 70, 48
2, 76406, Note_on_c, 0, 66, 48
2, 76618, Note_on_c, 0, 71, 46
2, 76620, Control_c, 0, 64, 0
2, 76630, Note_on_c, 0, 68, 46
2, 76632, Note_on_c, 0, 70, 0
2, 76656, Note_on_c, 0, 66, 0
2, 76726, Control_c, 0, 64, 127
2, 76770, Note_on_c, 0, 71, 0
2, 76828, Note_on_c, 0, 75, 43
2, 76838, Note_on_c, 0, 68, 0
2, 76843, Note_on_c, 0, 71, 46
2, 76869, Control_c, 0, 64, 0
2, 76970, Control_c, 0, 64, 127
2, 77080, Note_on_c, 0, 73, 71
2, 77097, Control_c, 0, 64, 0
2, 77102, Note_on_c, 0, 70, 46
2, 77122, Note_on_c, 0, 71, 0
2, 77186, Note_on_c, 0, 75, 0
2, 77211, Control_c, 0, 64, 127
2, 77317, Note_on_c, 0, 75, 41
2, 77329, Note_on_c, 0, 71, 47
2, 77334, Control_c, 0, 64, 0
2, 77350, Note_on_c, 0, 73, 0
2, 77362, Note_on_c, 0, 70, 0
2, 77442, Control_c, 0, 64, 127
2, 77549, Note_on_c, 0, 75, 0
2, 77555, Note_on_c, 0, 71, 0
2, 77596, Note_on_c, 0, 76, 45
2, 77609, Note_on_c, 0, 73, 43
2, 77640, Control_c, 0, 64, 0
2, 77736, Control_c, 0, 64, 127
2, 77924, Note_on_c, 0, 76, 0
2, 77933, Note_on_c, 0, 73, 0
2, 77981, Note_on_c, 0, 80, 46
2, 77995, Note_on_c, 0, 71, 45
2, 78044, Control_c, 0, 64, 0
2, 78238, Control_c, 0, 64, 127
2, 78320, Control_c, 0, 67, 127
2, 78441, Note_on_c, 0, 80, 0
2, 78454, Note_on_c, 0, 71, 0
2, 78985, Note_on_c, 0, 78, 61
2, 78999, Note_on_c, 0, 70, 46
2, 79070, Control_c, 0, 64, 0
2, 79177, Control_c, 0, 64, 127
2, 79206, Note_on_c, 0, 70, 0
2, 79206, Note_on_c, 0, 78, 0
2, 79252, Note_on_c, 0, 78, 43
2, 79265, Note_on_c, 0, 39, 42
2, 79265, Note_on_c, 0, 70, 42
2, 79278, Note_on_c, 0, 27, 43
2, 79392, Note_on_c, 0, 39, 0
2, 79422, Note_on_c, 0, 78, 0
2, 79424, Note_on_c, 0, 27, 0
2, 79457, Note_on_c, 0, 70, 0
2, 79497, Note_on_c, 0, 46, 42
2, 79641, Note_on_c, 0, 46, 0
2, 79654, Note_on_c, 0, 54, 45
2, 79787, Note_on_c, 0, 63, 45
2, 79802, Note_on_c, 0, 54, 0
2, 79923, Note_on_c, 0, 78, 66
2, 79937, Note_on_c, 0, 70, 41
2, 79939, Note_on_c, 0, 63, 0
2, 80077, Note_on_c, 0, 63, 48
2, 80208, Note_on_c, 0, 63, 0
2, 80228, Note_on_c, 0, 54, 48
2, 80332, Note_on_c, 0, 46, 45
2, 80358, Note_on_c, 0, 54, 0
2, 80438, Note_on_c, 0, 46, 0
2, 80476, Note_on_c, 0, 39, 41
2, 80489, Note_on_c, 0, 27, 44
2, 80502, Control_c, 0, 64, 0
2, 80627, Control_c, 0, 64, 127
2, 80673, Note_on_c, 0, 47, 54
2, 80745, Note_on_c, 0, 78, 0
2, 80751, Note_on_c, 0, 70, 0
2, 80751, Note_on_c, 0, 39, 0
2, 80763, Note_on_c, 0, 27, 0
2, 80817, Note_on_c, 0, 56, 43
2, 80832, Note_on_c, 0, 77, 72
2, 80838, Note_on_c, 0, 47, 0
2, 80844, Note_on_c, 0, 68, 48
2, 80934, Note_on_c, 0, 78, 61
2, 80948, Note_on_c, 0, 68, 0
2, 80948, Note_on_c, 0, 70, 41
2, 80952, Note_on_c, 0, 56, 0
2, 80955, Note_on_c, 0, 77, 0
2, 80986, Note_on_c, 0, 62, 48
2, 81007, Note_on_c, 0, 77, 60
2, 81013, Note_on_c, 0, 68, 59
2, 81041, Note_on_c, 0, 78, 0
2, 81053, Note_on_c, 0, 68, 0
2, 81059, Note_on_c, 0, 70, 0
2, 81065, Note_on_c, 0, 66, 64
2, 81065, Note_on_c, 0, 75, 61
2, 81074, Note_on_c, 0, 77, 0
2, 81103, Note_on_c, 0, 68, 66
2, 81105, Note_on_c, 0, 77, 62
2, 81110, Note_on_c, 0, 62, 0
2, 81112, Note_on_c, 0, 66, 0
2, 81121, Note_on_c, 0, 75, 0
2, 81144, Note_on_c, 0, 68, 0
2, 81165, Note_on_c, 0, 78, 78
2, 81172, Note_on_c, 0, 77, 0
2, 81175, Note_on_c, 0, 68, 44
2, 81175, Note_on_c, 0, 70, 48
2, 81286, Note_on_c, 0, 78, 0
2, 81291, Note_on_c, 0, 68, 0
2, 81296, Note_on_c, 0, 62, 46
2, 81299, Note_on_c, 0, 70, 0
2, 81420, Note_on_c, 0, 62, 0
2, 81445, Note_on_c, 0, 56, 49
2, 81551, Note_on_c, 0, 56, 0
2, 81638, Note_on_c, 0, 47, 47
2, 81728, Note_on_c, 0, 77, 70
2, 81742, Note_on_c, 0, 68, 48
2, 81759, Note_on_c, 0, 47, 0
2, 81872, Control_c, 0, 64, 0
2, 81888, Note_on_c, 0, 39, 41
2, 81892, Note_on_c, 0, 27, 46
2, 82013, Control_c, 0, 64, 127
2, 82176, Note_on_c, 0, 46, 48
2, 82189, Note_on_c, 0, 77, 0
2, 82200, Note_on_c, 0, 68, 0
2, 82204, Note_on_c, 0, 74, 74
2, 82209, Note_on_c, 0, 39, 0
2, 82214, Note_on_c, 0, 27, 0
2, 82217, Note_on_c, 0, 65, 41
2, 82311, Note_on_c, 0, 46, 0
2, 82344, Note_on_c, 0, 54, 42
2, 82346, Note_on_c, 0, 74, 0
2, 82385, Note_on_c, 0, 65, 0
2, 82460, Note_on_c, 0, 63, 55
2, 82467, Note_on_c, 0, 54, 0
2, 82480, Note_on_c, 0, 66, 70
2, 82482, Note_on_c, 0, 75, 68
2, 82526, Note_on_c, 0, 66, 0
2, 82529, Note_on_c, 0, 75, 0
2, 82534, Note_on_c, 0, 68, 71
2, 82536, Note_on_c, 0, 77, 65
2, 82582, Note_on_c, 0, 70, 65
2, 82586, Note_on_c, 0, 75, 65
2, 82592, Note_on_c, 0, 77, 0
2, 82592, Note_on_c, 0, 68, 0
2, 82598, Note_on_c, 0, 66, 70
2, 82610, Note_on_c, 0, 63, 0
2, 82701, Note_on_c, 0, 63, 54
2, 82713, Note_on_c, 0, 70, 0
2, 82819, Note_on_c, 0, 54, 53
2, 82839, Note_on_c, 0, 63, 0
2, 82895, Note_on_c, 0, 46, 59
2, 82935, Note_on_c, 0, 54, 0
2, 83010, Note_on_c, 0, 39, 52
2, 83025, Note_on_c, 0, 46, 0
2, 83140, Note_on_c, 0, 46, 42
2, 83154, Control_c, 0, 64, 0
2, 83194, Note_on_c, 0, 61, 54
2, 83207, Note_on_c, 0, 70, 78
2, 83208, Note_on_c, 0, 75, 0
2, 83221, Note_on_c, 0, 66, 0
2, 83272, Control_c, 0, 64, 127
2, 83362, Note_on_c, 0, 55, 51
2, 83411, Note_on_c, 0, 61, 0
2, 83414, Note_on_c, 0, 39, 0
2, 83429, Note_on_c, 0, 46, 0
2, 83440, Note_on_c, 0, 70, 0
2, 83488, Note_on_c, 0, 61, 58
2, 83488, Note_on_c, 0, 63, 57
2, 83496, Note_on_c, 0, 71, 80
2, 83598, Note_on_c, 0, 61, 0
2, 83612, Note_on_c, 0, 63, 0
2, 83619, Note_on_c, 0, 71, 0
2, 83690, Note_on_c, 0, 73, 72
2, 83693, Control_c, 0, 64, 0
2, 83695, Note_on_c, 0, 64, 50
2, 83703, Note_on_c, 0, 67, 42
2, 83806, Note_on_c, 0, 67, 0
2, 83810, Note_on_c, 0, 61, 43
2, 83831, Control_c, 0, 64, 127
2, 83877, Note_on_c, 0, 55, 0
2, 83935, Note_on_c, 0, 55, 45
2, 83956, Note_on_c, 0, 61, 0
2, 84069, Note_on_c, 0, 46, 44
2, 84079, Note_on_c, 0, 55, 0
2, 84202, Note_on_c, 0, 46, 0
2, 84205, Note_on_c, 0, 32, 46
2, 84269, Control_c, 0, 64, 0
2, 84367, Control_c, 0, 64, 127
2, 84385, Note_on_c, 0, 44, 45
2, 84429, Note_on_c, 0, 75, 66
2, 84439, Note_on_c, 0, 66, 42
2, 84465, Note_on_c, 0, 32, 0
2, 84467, Note_on_c, 0, 73, 0
2, 84478, Note_on_c, 0, 64, 0
2, 84549, Note_on_c, 0, 64, 49
2, 84549, Note_on_c, 0, 73, 72
2, 84558, Note_on_c, 0, 75, 0
2, 84563, Note_on_c, 0, 66, 0
2, 84606, Note_on_c, 0, 51, 47
2, 84634, Note_on_c, 0, 71, 70
2, 84639, Control_c, 0, 64, 0
2, 84639, Note_on_c, 0, 63, 52
2, 84645, Note_on_c, 0, 64, 0
2, 84654, Note_on_c, 0, 73, 0
2, 84748, Control_c, 0, 64, 127
2, 84790, Note_on_c, 0, 59, 41
2, 84940, Note_on_c, 0, 63, 0
2, 84940, Note_on_c, 0, 68, 58
2, 84950, Note_on_c, 0, 59, 0
2, 84953, Note_on_c, 0, 71, 0
2, 84958, Note_on_c, 0, 44, 0
2, 84963, Note_on_c, 0, 51, 0
2, 85063, Note_on_c, 0, 59, 44
2, 85073, Note_on_c, 0, 68, 0
2, 85193, Note_on_c, 0, 51, 43
2, 85203, Note_on_c, 0, 59, 0
2, 85232, Note_on_c, 0, 61, 46
2, 85235, Note_on_c, 0, 70, 69
2, 85321, Note_on_c, 0, 51, 0
2, 85347, Note_on_c, 0, 44, 47
2, 85486, Note_on_c, 0, 34, 58
2, 85504, Control_c, 0, 64, 0
2, 85553, Note_on_c, 0, 44, 0
2, 85634, Control_c, 0, 64, 127
2, 85665, Note_on_c, 0, 46, 56
2, 85745, Note_on_c, 0, 34, 0
2, 85768, Note_on_c, 0, 61, 0
2, 85781, Note_on_c, 0, 70, 0
2, 85866, Note_on_c, 0, 68, 68
2, 85869, Note_on_c, 0, 56, 48
2, 85876, Note_on_c, 0, 59, 50
2, 85890, Control_c, 0, 64, 0
2, 86003, Control_c, 0, 64, 127
2, 86031, Note_on_c, 0, 62, 54
2, 86041, Note_on_c, 0, 46, 0
2, 86112, Note_on_c, 0, 68, 0
2, 86125, Note_on_c, 0, 56, 0
2, 86133, Note_on_c, 0, 59, 0
2, 86159, Note_on_c, 0, 62, 0
2, 86208, Note_on_c, 0, 70, 63
2, 86369, Note_on_c, 0, 70, 0
2, 86379, Note_on_c, 0, 62, 43
2, 86607, Note_on_c, 0, 66, 66
2, 86612, Note_on_c, 0, 56, 54
2, 86617, Note_on_c, 0, 58, 49
2, 86662, Control_c, 0, 64, 0
2, 86687, Note_on_c, 0, 62, 0
2, 86763, Control_c, 0, 64, 127
2, 86819, Note_on_c, 0, 58, 0
2, 86847, Note_on_c, 0, 66, 0
2, 86856, Note_on_c, 0, 46, 45
2, 86889, Note_on_c, 0, 56, 0
2, 86981, Note_on_c, 0, 46, 0
2, 87095, Note_on_c, 0, 63, 46
2, 87116, Note_on_c, 0, 27, 48
2, 87154, Control_c, 0, 64, 0
2, 87185, Note_on_c, 0, 39, 48
2, 87251, Note_on_c, 0, 55, 45
2, 87274, Control_c, 0, 64, 127
2, 87331, Note_on_c, 0, 58, 43
2, 87369, Note_on_c, 0, 63, 0
2, 87395, Note_on_c, 0, 61, 53
2, 87412, Note_on_c, 0, 27, 0
2, 87432, Note_on_c, 0, 55, 0
2, 87453, Note_on_c, 0, 39, 0
2, 87471, Note_on_c, 0, 63, 57
2, 87484, Note_on_c, 0, 58, 0
2, 87526, Note_on_c, 0, 61, 0
2, 87616, Note_on_c, 0, 63, 0
2, 87628, Note_on_c, 0, 46, 43
2, 87765, Note_on_c, 0, 46, 0
2, 87777, Note_on_c, 0, 55, 47
2, 87897, Note_on_c, 0, 55, 0
2, 87911, Note_on_c, 0, 58, 58
2, 88033, Note_on_c, 0, 58, 0
2, 88078, Note_on_c, 0, 67, 54
2, 88098, Note_on_c, 0, 78, 48
2, 88110, Note_on_c, 0, 70, 49
2, 88189, Note_on_c, 0, 67, 0
2, 88223, Note_on_c, 0, 58, 44
2, 88332, Note_on_c, 0, 55, 43
2, 88373, Note_on_c, 0, 58, 0
2, 88440, Note_on_c, 0, 46, 43
2, 88468, Note_on_c, 0, 55, 0
2, 88560, Note_on_c, 0, 39, 54
2, 88581, Control_c, 0, 67, 0
2, 88586, Note_on_c, 0, 46, 0
2, 88632, Control_c, 0, 64, 0
2, 88686, Note_on_c, 0, 46, 53
2, 88758, Control_c, 0, 64, 127
2, 88776, Note_on_c, 0, 76, 72
2, 88787, Note_on_c, 0, 58, 51
2, 88787, Note_on_c, 0, 68, 60
2, 88795, Note_on_c, 0, 70, 0
2, 88800, Note_on_c, 0, 78, 0
2, 88861, Note_on_c, 0, 61, 48
2, 88902, Note_on_c, 0, 58, 0
2, 88907, Note_on_c, 0, 46, 0
2, 88920, Note_on_c, 0, 68, 0
2, 88921, Note_on_c, 0, 39, 0
2, 88939, Note_on_c, 0, 76, 0
2, 88960, Note_on_c, 0, 75, 72
2, 88973, Note_on_c, 0, 67, 63
2, 88973, Note_on_c, 0, 70, 65
2, 88993, Note_on_c, 0, 61, 0
2, 89065, Note_on_c, 0, 61, 48
2, 89083, Note_on_c, 0, 70, 0
2, 89088, Note_on_c, 0, 75, 0
2, 89104, Note_on_c, 0, 67, 0
2, 89150, Note_on_c, 0, 73, 54
2, 89163, Note_on_c, 0, 70, 60
2, 89171, Note_on_c, 0, 55, 51
2, 89184, Note_on_c, 0, 61, 0
2, 89243, Note_on_c, 0, 46, 51
2, 89287, Note_on_c, 0, 55, 0
2, 89293, Note_on_c, 0, 70, 0
2, 89299, Note_on_c, 0, 73, 0
2, 89312, Note_on_c, 0, 39, 72
2, 89329, Note_on_c, 0, 75, 75
2, 89343, Note_on_c, 0, 71, 41
2, 89366, Note_on_c, 0, 46, 0
2, 89366, Control_c, 0, 64, 0
2, 89435, Note_on_c, 0, 47, 47
2, 89496, Control_c, 0, 64, 127
2, 89507, Note_on_c, 0, 70, 63
2, 89507, Note_on_c, 0, 73, 61
2, 89520, Note_on_c, 0, 56, 48
2, 89526, Note_on_c, 0, 75, 0
2, 89534, Note_on_c, 0, 71, 0
2, 89583, Note_on_c, 0, 71, 65
2, 89583, Note_on_c, 0, 75, 69
2, 89600, Note_on_c, 0, 63, 50
2, 89608, Note_on_c, 0, 70, 0
2, 89608, Note_on_c, 0, 73, 0
2, 89617, Note_on_c, 0, 71, 0
2, 89630, Note_on_c, 0, 70, 46
2, 89630, Note_on_c, 0, 73, 45
2, 89632, Note_on_c, 0, 47, 0
2, 89638, Note_on_c, 0, 75, 0
2, 89645, Note_on_c, 0, 39, 0
2, 89665, Note_on_c, 0, 56, 0
2, 89683, Note_on_c, 0, 70, 0
2, 89683, Note_on_c, 0, 73, 0
2, 89683, Note_on_c, 0, 68, 75
2, 89683, Note_on_c, 0, 71, 78
2, 89701, Note_on_c, 0, 63, 0
2, 89760, Note_on_c, 0, 63, 47
2, 89796, Note_on_c, 0, 68, 0
2, 89848, Note_on_c, 0, 56, 66
2, 89880, Note_on_c, 0, 63, 0
2, 89925, Note_on_c, 0, 47, 53
2, 89957, Note_on_c, 0, 56, 0
2, 89994, Note_on_c, 0, 39, 54
2, 90019, Note_on_c, 0, 47, 0
2, 90026, Control_c, 0, 64, 0
2, 90077, Note_on_c, 0, 46, 63
2, 90149, Control_c, 0, 64, 127
2, 90152, Note_on_c, 0, 70, 79
2, 90166, Note_on_c, 0, 62, 63
2, 90170, Note_on_c, 0, 56, 63
2, 90186, Note_on_c, 0, 71, 0
2, 90204, Note_on_c, 0, 62, 0
2, 90240, Note_on_c, 0, 62, 67
2, 90294, Note_on_c, 0, 70, 0
2, 90294, Note_on_c, 0, 56, 0
2, 90296, Note_on_c, 0, 39, 0
2, 90296, Note_on_c, 0, 46, 0
2, 90360, Note_on_c, 0, 68, 43
2, 90368, Note_on_c, 0, 62, 0
2, 90368, Note_on_c, 0, 59, 57
2, 90373, Note_on_c, 0, 70, 45
2, 90493, Note_on_c, 0, 68, 0
2, 90501, Note_on_c, 0, 59, 0
2, 90505, Note_on_c, 0, 70, 0
2, 90508, Note_on_c, 0, 62, 59
2, 90556, Note_on_c, 0, 58, 62
2, 90567, Note_on_c, 0, 66, 74
2, 90603, Note_on_c, 0, 62, 0
2, 90603, Note_on_c, 0, 56, 41
2, 90617, Note_on_c, 0, 58, 0
2, 90663, Note_on_c, 0, 56, 0
2, 90669, Note_on_c, 0, 46, 54
2, 90682, Note_on_c, 0, 66, 0
2, 90695, Note_on_c, 0, 56, 68
2, 90695, Note_on_c, 0, 65, 71
2, 90758, Note_on_c, 0, 39, 53
2, 90792, Note_on_c, 0, 46, 0
2, 90822, Note_on_c, 0, 66, 72
2, 90824, Note_on_c, 0, 56, 0
2, 90829, Note_on_c, 0, 65, 0
2, 90831, Note_on_c, 0, 58, 54
2, 90840, Control_c, 0, 64, 0
2, 90925, Note_on_c, 0, 46, 54
2, 90963, Control_c, 0, 64, 127
2, 91009, Note_on_c, 0, 65, 71
2, 91012, Note_on_c, 0, 54, 52
2, 91012, Note_on_c, 0, 56, 47
2, 91035, Note_on_c, 0, 58, 0
2, 91035, Note_on_c, 0, 66, 0
2, 91104, Note_on_c, 0, 66, 66
2, 91107, Note_on_c, 0, 58, 54
2, 91120, Note_on_c, 0, 65, 0
2, 91128, Note_on_c, 0, 56, 0
2, 91137, Note_on_c, 0, 63, 47
2, 91160, Note_on_c, 0, 39, 0
2, 91178, Note_on_c, 0, 46, 0
2, 91183, Note_on_c, 0, 54, 0
2, 91186, Note_on_c, 0, 56, 52
2, 91191, Note_on_c, 0, 65, 60
2, 91211, Note_on_c, 0, 66, 0
2, 91226, Note_on_c, 0, 58, 0
2, 91247, Note_on_c, 0, 63, 0
2, 91285, Note_on_c, 0, 63, 68
2, 91302, Note_on_c, 0, 54, 47
2, 91310, Note_on_c, 0, 65, 0
2, 91315, Note_on_c, 0, 70, 54
2, 91322, Note_on_c, 0, 56, 0
2, 91382, Note_on_c, 0, 63, 0
2, 91413, Note_on_c, 0, 63, 54
2, 91440, Note_on_c, 0, 54, 0
2, 91445, Note_on_c, 0, 70, 0
2, 91525, Note_on_c, 0, 54, 64
2, 91550, Note_on_c, 0, 63, 0
2, 91619, Note_on_c, 0, 46, 59
2, 91708, Note_on_c, 0, 39, 67
2, 91752, Note_on_c, 0, 46, 0
2, 91821, Note_on_c, 0, 46, 65
2, 91844, Control_c, 0, 64, 0
2, 91847, Note_on_c, 0, 58, 78
2, 91903, Note_on_c, 0, 54, 0
2, 91951, Control_c, 0, 64, 127
2, 91969, Note_on_c, 0, 55, 61
2, 92105, Note_on_c, 0, 59, 84
2, 92107, Note_on_c, 0, 58, 0
2, 92112, Note_on_c, 0, 55, 0
2, 92124, Note_on_c, 0, 61, 48
2, 92126, Note_on_c, 0, 39, 0
2, 92126, Note_on_c, 0, 46, 0
2, 92210, Note_on_c, 0, 61, 0
2, 92251, Note_on_c, 0, 59, 0
2, 92299, Note_on_c, 0, 61, 82
2, 92299, Note_on_c, 0, 67, 68
2, 92334, Control_c, 0, 64, 0
2, 92429, Note_on_c, 0, 58, 64
2, 92442, Control_c, 0, 64, 127
2, 92534, Note_on_c, 0, 55, 62
2, 92539, Note_on_c, 0, 67, 0
2, 92544, Note_on_c, 0, 58, 0
2, 92637, Note_on_c, 0, 46, 58
2, 92644, Note_on_c, 0, 55, 0
2, 92770, Note_on_c, 0, 46, 0
2, 92772, Note_on_c, 0, 39, 61
2, 92893, Note_on_c, 0, 47, 47
2, 92899, Control_c, 0, 64, 0
2, 92928, Note_on_c, 0, 63, 80
2, 92948, Note_on_c, 0, 61, 0
2, 92988, Control_c, 0, 64, 127
2, 93031, Note_on_c, 0, 61, 74
2, 93082, Note_on_c, 0, 63, 0
2, 93095, Note_on_c, 0, 59, 74
2, 93108, Note_on_c, 0, 61, 0
2, 93108, Note_on_c, 0, 56, 53
2, 93118, Control_c, 0, 64, 0
2, 93168, Note_on_c, 0, 39, 0
2, 93168, Note_on_c, 0, 47, 0
2, 93196, Control_c, 0, 64, 127
2, 93245, Note_on_c, 0, 63, 59
2, 93365, Note_on_c, 0, 68, 67
2, 93381, Note_on_c, 0, 56, 0
2, 93401, Note_on_c, 0, 59, 0
2, 93421, Note_on_c, 0, 63, 0
2, 93492, Note_on_c, 0, 63, 53
2, 93528, Note_on_c, 0, 68, 0
2, 93626, Note_on_c, 0, 56, 54
2, 93634, Note_on_c, 0, 63, 0
2, 93652, Note_on_c, 0, 58, 81
2, 93766, Note_on_c, 0, 47, 56
2, 93778, Note_on_c, 0, 56, 0
2, 93886, Note_on_c, 0, 39, 64
2, 93918, Note_on_c, 0, 47, 0
2, 94013, Control_c, 0, 64, 0
2, 94032, Note_on_c, 0, 47, 53
2, 94110, Control_c, 0, 64, 127
2, 94224, Note_on_c, 0, 56, 57
2, 94231, Control_c, 0, 64, 0
2, 94237, Note_on_c, 0, 52, 59
2, 94250, Note_on_c, 0, 58, 0
2, 94324, Control_c, 0, 64, 127
2, 94419, Note_on_c, 0, 62, 55
2, 94481, Note_on_c, 0, 47, 0
2, 94493, Note_on_c, 0, 39, 0
2, 94496, Note_on_c, 0, 52, 0
2, 94586, Note_on_c, 0, 62, 0
2, 94607, Note_on_c, 0, 56, 0
2, 94617, Note_on_c, 0, 66, 58
2, 94751, Note_on_c, 0, 66, 0
2, 94832, Note_on_c, 0, 62, 56
2, 94973, Note_on_c, 0, 62, 0
2, 95017, Note_on_c, 0, 47, 52
2, 95053, Note_on_c, 0, 54, 67
2, 95176, Note_on_c, 0, 47, 0
2, 95188, Note_on_c, 0, 54, 0
2, 95282, Control_c, 0, 67, 127
2, 95284, Note_on_c, 0, 56, 71
2, 95438, Note_on_c, 0, 56, 0
2, 95451, Note_on_c, 0, 54, 62
2, 95568, Note_on_c, 0, 51, 44
2, 95576, Note_on_c, 0, 54, 0
2, 95578, Note_on_c, 0, 27, 48
2, 95580, Note_on_c, 0, 39, 42
2, 95585, Control_c, 0, 64, 0
2, 95680, Control_c, 0, 64, 127
2, 95774, Note_on_c, 0, 46, 46
2, 95851, Note_on_c, 0, 51, 0
2, 95876, Note_on_c, 0, 27, 0
2, 95901, Note_on_c, 0, 39, 0
2, 95916, Note_on_c, 0, 54, 46
2, 95937, Note_on_c, 0, 46, 0
2, 96054, Note_on_c, 0, 63, 41
2, 96065, Note_on_c, 0, 54, 0
2, 96183, Note_on_c, 0, 70, 59
2, 96201, Note_on_c, 0, 63, 0
2, 96288, Note_on_c, 0, 63, 53
2, 96309, Note_on_c, 0, 70, 0
2, 96398, Note_on_c, 0, 54, 53
2, 96441, Note_on_c, 0, 63, 0
2, 96498, Note_on_c, 0, 46, 41
2, 96527, Note_on_c, 0, 54, 0
2, 96624, Control_c, 0, 64, 0
2, 96624, Note_on_c, 0, 32, 51
2, 96645, Note_on_c, 0, 46, 0
2, 96792, Note_on_c, 0, 56, 47
2, 96805, Note_on_c, 0, 53, 42
2, 96853, Control_c, 0, 64, 127
2, 96864, Note_on_c, 0, 44, 47
2, 96896, Note_on_c, 0, 58, 46
2, 96909, Note_on_c, 0, 54, 42
2, 96930, Note_on_c, 0, 56, 0
2, 96947, Note_on_c, 0, 53, 0
2, 96991, Note_on_c, 0, 59, 46
2, 97004, Note_on_c, 0, 51, 45
2, 97006, Note_on_c, 0, 56, 48
2, 97029, Note_on_c, 0, 32, 0
2, 97031, Note_on_c, 0, 54, 0
2, 97038, Note_on_c, 0, 58, 0
2, 97077, Note_on_c, 0, 59, 0
2, 97104, Note_on_c, 0, 63, 43
2, 97115, Note_on_c, 0, 56, 0
2, 97115, Note_on_c, 0, 59, 45
2, 97152, Note_on_c, 0, 53, 53
2, 97157, Note_on_c, 0, 51, 0
2, 97177, Note_on_c, 0, 59, 0
2, 97179, Note_on_c, 0, 63, 0
2, 97179, Note_on_c, 0, 61, 50
2, 97179, Note_on_c, 0, 65, 72
2, 97223, Control_c, 0, 64, 0
2, 97230, Note_on_c, 0, 65, 0
2, 97230, Note_on_c, 0, 61, 0
2, 97248, Note_on_c, 0, 63, 44
2, 97251, Note_on_c, 0, 70, 72
2, 97262, Note_on_c, 0, 66, 53
2, 97346, Control_c, 0, 64, 127
2, 97405, Note_on_c, 0, 59, 48
2, 97407, Note_on_c, 0, 70, 0
2, 97415, Note_on_c, 0, 66, 0
2, 97440, Note_on_c, 0, 53, 0
2, 97452, Note_on_c, 0, 44, 0
2, 97511, Note_on_c, 0, 63, 0
2, 97549, Note_on_c, 0, 53, 50
2, 97560, Note_on_c, 0, 59, 0
2, 97570, Control_c, 0, 67, 0
2, 97680, Note_on_c, 0, 44, 43
2, 97690, Note_on_c, 0, 53, 0
2, 97698, Note_on_c, 0, 68, 63
2, 97710, Note_on_c, 0, 65, 61
2, 97807, Note_on_c, 0, 44, 0
2, 97815, Control_c, 0, 64, 0
2, 97820, Note_on_c, 0, 63, 47
2, 97822, Note_on_c, 0, 68, 0
2, 97827, Note_on_c, 0, 27, 48
2, 97829, Note_on_c, 0, 39, 43
2, 97832, Note_on_c, 0, 54, 46
2, 97834, Note_on_c, 0, 65, 0
2, 97920, Control_c, 0, 64, 127
2, 97965, Note_on_c, 0, 46, 43
2, 98003, Note_on_c, 0, 54, 0
2, 98052, Note_on_c, 0, 63, 0
2, 98065, Note_on_c, 0, 39, 0
2, 98071, Note_on_c, 0, 27, 0
2, 98074, Note_on_c, 0, 54, 48
2, 98108, Note_on_c, 0, 46, 0
2, 98177, Note_on_c, 0, 63, 58
2, 98206, Note_on_c, 0, 54, 0
2, 98280, Note_on_c, 0, 70, 60
2, 98304, Note_on_c, 0, 63, 0
2, 98369, Note_on_c, 0, 63, 59
2, 98415, Note_on_c, 0, 70, 0
2, 98458, Note_on_c, 0, 54, 61
2, 98484, Note_on_c, 0, 63, 0
2, 98530, Note_on_c, 0, 46, 65
2, 98597, Note_on_c, 0, 54, 0
2, 98618, Note_on_c, 0, 32, 67
2, 98623, Note_on_c, 0, 44, 70
2, 98631, Control_c, 0, 64, 0
2, 98641, Note_on_c, 0, 46, 0
2, 98766, Control_c, 0, 64, 127
2, 98768, Note_on_c, 0, 68, 86
2, 98773, Note_on_c, 0, 53, 70
2, 98775, Note_on_c, 0, 65, 80
2, 98847, Note_on_c, 0, 66, 79
2, 98847, Note_on_c, 0, 70, 77
2, 98865, Note_on_c, 0, 68, 0
2, 98878, Note_on_c, 0, 65, 0
2, 98904, Note_on_c, 0, 68, 79
2, 98904, Note_on_c, 0, 71, 77
2, 98908, Note_on_c, 0, 59, 68
2, 98929, Note_on_c, 0, 70, 0
2, 98935, Note_on_c, 0, 32, 0
2, 98937, Note_on_c, 0, 44, 0
2, 98937, Note_on_c, 0, 53, 0
2, 98942, Note_on_c, 0, 71, 0
2, 98954, Note_on_c, 0, 66, 0
2, 98980, Note_on_c, 0, 71, 69
2, 98980, Note_on_c, 0, 75, 71
2, 99005, Note_on_c, 0, 63, 68
2, 99011, Note_on_c, 0, 68, 0
2, 99031, Note_on_c, 0, 73, 73
2, 99031, Note_on_c, 0, 77, 69
2, 99033, Note_on_c, 0, 75, 0
2, 99072, Note_on_c, 0, 71, 0
2, 99084, Note_on_c, 0, 59, 0
2, 99092, Note_on_c, 0, 77, 0
2, 99094, Note_on_c, 0, 78, 83
2, 99104, Note_on_c, 0, 82, 57
2, 99112, Note_on_c, 0, 71, 61
2, 99143, Note_on_c, 0, 63, 0
2, 99144, Note_on_c, 0, 73, 0
2, 99227, Note_on_c, 0, 63, 70
2, 99233, Note_on_c, 0, 78, 0
2, 99254, Note_on_c, 0, 71, 0
2, 99256, Note_on_c, 0, 82, 0
2, 99319, Note_on_c, 0, 59, 69
2, 99344, Note_on_c, 0, 63, 0
2, 99390, Note_on_c, 0, 53, 78
2, 99438, Note_on_c, 0, 59, 0
2, 99454, Note_on_c, 0, 77, 83
2, 99463, Note_on_c, 0, 80, 82
2, 99514, Note_on_c, 0, 53, 0
2, 99532, Note_on_c, 0, 39, 72
2, 99535, Control_c, 0, 64, 0
2, 99537, Note_on_c, 0, 27, 76
2, 99550, Note_on_c, 0, 80, 0
2, 99550, Note_on_c, 0, 75, 73
2, 99552, Note_on_c, 0, 66, 72
2, 99574, Note_on_c, 0, 77, 0
2, 99645, Control_c, 0, 64, 127
2, 99689, Note_on_c, 0, 46, 71
2, 99783, Note_on_c, 0, 39, 0
2, 99793, Note_on_c, 0, 54, 78
2, 99809, Note_on_c, 0, 27, 0
2, 99826, Note_on_c, 0, 66, 0
2, 99869, Note_on_c, 0, 46, 0
2, 99897, Note_on_c, 0, 63, 73
2, 99912, Note_on_c, 0, 75, 0
2, 99949, Note_on_c, 0, 54, 0
2, 99997, Note_on_c, 0, 70, 75
2, 100037, Note_on_c, 0, 63, 0
2, 100124, Note_on_c, 0, 63, 74
2, 100131, Note_on_c, 0, 70, 0
2, 100214, Note_on_c, 0, 54, 67
2, 100260, Note_on_c, 0, 63, 0
2, 100275, Control_c, 0, 67, 127
2, 100288, Note_on_c, 0, 46, 72
2, 100288, Control_c, 0, 67, 0
2, 100337, Note_on_c, 0, 54, 0
2, 100381, Note_on_c, 0, 46, 0
2, 100391, Control_c, 0, 64, 0
2, 100391, Note_on_c, 0, 32, 80
2, 100391, Note_on_c, 0, 44, 84
2, 100506, Control_c, 0, 64, 127
2, 100529, Note_on_c, 0, 78, 82
2, 100534, Note_on_c, 0, 53, 71
2, 100536, Note_on_c, 0, 75, 77
2, 100645, Note_on_c, 0, 32, 0
2, 100655, Note_on_c, 0, 78, 0
2, 100659, Note_on_c, 0, 75, 0
2, 100665, Note_on_c, 0, 44, 0
2, 100671, Note_on_c, 0, 59, 71
2, 100671, Note_on_c, 0, 77, 83
2, 100671, Note_on_c, 0, 80, 83
2, 100696, Note_on_c, 0, 53, 0
2, 100785, Note_on_c, 0, 80, 0
2, 100785, Note_on_c, 0, 77, 0
2, 100793, Note_on_c, 0, 78, 77
2, 100799, Note_on_c, 0, 63, 76
2, 100799, Note_on_c, 0, 82, 82
2, 100831, Note_on_c, 0, 59, 0
2, 100911, Note_on_c, 0, 82, 0
2, 100916, Note_on_c, 0, 78, 0
2, 100928, Note_on_c, 0, 68, 80
2, 100930, Note_on_c, 0, 80, 80
2, 100930, Note_on_c, 0, 83, 84
2, 100933, Note_on_c, 0, 63, 0
2, 101054, Note_on_c, 0, 83, 0
2, 101054, Note_on_c, 0, 80, 0
2, 101082, Note_on_c, 0, 85, 80
2, 101085, Note_on_c, 0, 63, 78
2, 101085, Note_on_c, 0, 82, 77
2, 101090, Note_on_c, 0, 68, 0
2, 101198, Note_on_c, 0, 85, 0
2, 101203, Note_on_c, 0, 82, 0
2, 101215, Note_on_c, 0, 63, 0
2, 101235, Note_on_c, 0, 83, 82
2, 101241, Note_on_c, 0, 59, 74
2, 101243, Note_on_c, 0, 87, 85
2, 101361, Note_on_c, 0, 83, 0
2, 101363, Note_on_c, 0, 87, 0
2, 101374, Note_on_c, 0, 59, 0
2, 101392, Note_on_c, 0, 53, 74
2, 101394, Note_on_c, 0, 89, 82
2, 101396, Note_on_c, 0, 85, 83
2, 101508, Note_on_c, 0, 85, 0
2, 101519, Note_on_c, 0, 89, 0
2, 101519, Note_on_c, 0, 53, 0
2, 101608, Note_on_c, 0, 39, 85
2, 101610, Note_on_c, 0, 89, 84
2, 101610, Note_on_c, 0, 94, 78
2, 101615, Note_on_c, 0, 27, 82
2, 101619, Note_on_c, 0, 92, 85
2, 101622, Control_c, 0, 64, 0
2, 101747, Control_c, 0, 64, 127
2, 101776, Note_on_c, 0, 46, 68
2, 101793, Note_on_c, 0, 90, 77
2, 101795, Note_on_c, 0, 89, 0
2, 101801, Note_on_c, 0, 87, 78
2, 101814, Note_on_c, 0, 94, 0
2, 101822, Note_on_c, 0, 92, 0
2, 101847, Note_on_c, 0, 54, 70
2, 101859, Note_on_c, 0, 39, 0
2, 101872, Note_on_c, 0, 27, 0
2, 101908, Note_on_c, 0, 90, 0
2, 101914, Note_on_c, 0, 85, 73
2, 101914, Note_on_c, 0, 89, 76
2, 101916, Note_on_c, 0, 87, 0
2, 101921, Note_on_c, 0, 63, 81
2, 101928, Note_on_c, 0, 46, 0
2, 101973, Note_on_c, 0, 54, 0
2, 101988, Note_on_c, 0, 85, 0
2, 101988, Note_on_c, 0, 89, 0
2, 102000, Note_on_c, 0, 83, 76
2, 102000, Note_on_c, 0, 87, 78
2, 102021, Control_c, 0, 64, 0
2, 102028, Note_on_c, 0, 87, 0
2, 102036, Note_on_c, 0, 63, 0
2, 102044, Note_on_c, 0, 83, 0
2, 102059, Note_on_c, 0, 32, 81
2, 102061, Note_on_c, 0, 44, 81
2, 102069, Note_on_c, 0, 82, 81
2, 102069, Note_on_c, 0, 85, 79
2, 102069, Note_on_c, 0, 87, 82
2, 102110, Note_on_c, 0, 82, 0
2, 102135, Control_c, 0, 64, 127
2, 102147, Note_on_c, 0, 53, 69
2, 102147, Note_on_c, 0, 59, 66
2, 102147, Note_on_c, 0, 63, 69
2, 102155, Note_on_c, 0, 80, 78
2, 102155, Note_on_c, 0, 83, 75
2, 102175, Note_on_c, 0, 87, 0
2, 102181, Note_on_c, 0, 85, 0
2, 102209, Note_on_c, 0, 80, 0
2, 102211, Note_on_c, 0, 83, 0
2, 102216, Note_on_c, 0, 44, 0
2, 102216, Note_on_c, 0, 78, 74
2, 102216, Note_on_c, 0, 82, 75
2, 102227, Note_on_c, 0, 32, 0
2, 102255, Note_on_c, 0, 82, 0
2, 102267, Note_on_c, 0, 53, 0
2, 102273, Note_on_c, 0, 63, 0
2, 102273, Control_c, 0, 64, 0
2, 102275, Note_on_c, 0, 78, 0
2, 102283, Note_on_c, 0, 59, 0
2, 102286, Note_on_c, 0, 39, 81
2, 102288, Note_on_c, 0, 77, 84
2, 102288, Note_on_c, 0, 80, 82
2, 102288, Note_on_c, 0, 82, 78
2, 102292, Note_on_c, 0, 27, 83
2, 102383, Control_c, 0, 64, 127
2, 102395, Note_on_c, 0, 82, 0
2, 102400, Note_on_c, 0, 46, 58
2, 102408, Note_on_c, 0, 78, 73
2, 102413, Note_on_c, 0, 75, 74
2, 102421, Note_on_c, 0, 77, 0
2, 102426, Note_on_c, 0, 80, 0
2, 102444, Note_on_c, 0, 54, 43
2, 102493, Note_on_c, 0, 39, 0
2, 102493, Note_on_c, 0, 63, 66
2, 102501, Note_on_c, 0, 73, 71
2, 102501, Note_on_c, 0, 77, 74
2, 102505, Note_on_c, 0, 27, 0
2, 102507, Note_on_c, 0, 78, 0
2, 102515, Note_on_c, 0, 75, 0
2, 102548, Note_on_c, 0, 46, 0
2, 102566, Note_on_c, 0, 77, 0
2, 102566, Note_on_c, 0, 73, 0
2, 102566, Note_on_c, 0, 75, 75
2, 102574, Note_on_c, 0, 71, 71
2, 102579, Note_on_c, 0, 54, 0
2, 102595, Note_on_c, 0, 75, 0
2, 102600, Control_c, 0, 64, 0
2, 102612, Note_on_c, 0, 63, 0
2, 102612, Note_on_c, 0, 71, 0
2, 102630, Note_on_c, 0, 70, 82
2, 102630, Note_on_c, 0, 75, 84
2, 102636, Note_on_c, 0, 32, 82
2, 102636, Note_on_c, 0, 44, 83
2, 102636, Note_on_c, 0, 73, 83
2, 102684, Control_c, 0, 64, 127
2, 102692, Note_on_c, 0, 75, 0
2, 102692, Note_on_c, 0, 70, 0
2, 102712, Note_on_c, 0, 73, 0
2, 102714, Note_on_c, 0, 68, 71
2, 102714, Note_on_c, 0, 71, 75
2, 102719, Note_on_c, 0, 53, 66
2, 102719, Note_on_c, 0, 59, 72
2, 102719, Note_on_c, 0, 63, 68
2, 102768, Note_on_c, 0, 71, 0
2, 102775, Note_on_c, 0, 68, 0
2, 102780, Note_on_c, 0, 66, 74
2, 102780, Note_on_c, 0, 70, 73
2, 102790, Note_on_c, 0, 44, 0
2, 102790, Note_on_c, 0, 32, 0
2, 102808, Note_on_c, 0, 70, 0
2, 102813, Note_on_c, 0, 59, 0
2, 102815, Control_c, 0, 64, 0
2, 102820, Note_on_c, 0, 66, 0
2, 102822, Note_on_c, 0, 63, 0
2, 102822, Note_on_c, 0, 53, 0
2, 102840, Note_on_c, 0, 39, 81
2, 102845, Note_on_c, 0, 65, 83
2, 102845, Note_on_c, 0, 68, 80
2, 102845, Note_on_c, 0, 70, 78
2, 102859, Note_on_c, 0, 27, 83
2, 102925, Control_c, 0, 64, 127
2, 102958, Note_on_c, 0, 63, 71
2, 102963, Note_on_c, 0, 65, 0
2, 102963, Note_on_c, 0, 46, 72
2, 102963, Note_on_c, 0, 54, 69
2, 102963, Note_on_c, 0, 66, 78
2, 102976, Note_on_c, 0, 68, 0
2, 102982, Note_on_c, 0, 70, 0
2, 103030, Note_on_c, 0, 39, 0
2, 103030, Note_on_c, 0, 66, 0
2, 103030, Note_on_c, 0, 63, 0
2, 103037, Note_on_c, 0, 27, 0
2, 103040, Note_on_c, 0, 65, 77
2, 103042, Note_on_c, 0, 61, 72
2, 103094, Note_on_c, 0, 46, 0
2, 103100, Note_on_c, 0, 54, 0
2, 103100, Note_on_c, 0, 65, 0
2, 103100, Note_on_c, 0, 61, 0
2, 103100, Control_c, 0, 64, 0
2, 103110, Note_on_c, 0, 63, 73
2, 103115, Note_on_c, 0, 59, 71
2, 103143, Note_on_c, 0, 59, 0
2, 103176, Note_on_c, 0, 63, 0
2, 103176, Note_on_c, 0, 58, 78
2, 103176, Note_on_c, 0, 61, 78
2, 103201, Note_on_c, 0, 61, 0
2, 103201, Note_on_c, 0, 58, 0
2, 103230, Note_on_c, 0, 56, 73
2, 103230, Note_on_c, 0, 59, 77
2, 103255, Note_on_c, 0, 59, 0
2, 103255, Note_on_c, 0, 56, 0
2, 103275, Note_on_c, 0, 54, 78
2, 103275, Note_on_c, 0, 58, 71
2, 103296, Control_c, 0, 64, 127
2, 103301, Note_on_c, 0, 54, 0
2, 103315, Note_on_c, 0, 53, 76
2, 103315, Note_on_c, 0, 56, 77
2, 103348, Note_on_c, 0, 58, 0
2, 103356, Note_on_c, 0, 53, 0
2, 103361, Note_on_c, 0, 51, 72
2, 103361, Note_on_c, 0, 54, 73
2, 103382, Note_on_c, 0, 56, 0
2, 103390, Note_on_c, 0, 49, 73
2, 103390, Note_on_c, 0, 53, 73
2, 103403, Note_on_c, 0, 54, 0
2, 103403, Note_on_c, 0, 51, 0
2, 103429, Note_on_c, 0, 49, 0
2, 103429, Note_on_c, 0, 53, 0
2, 103429, Note_on_c, 0, 47, 76
2, 103429, Note_on_c, 0, 51, 78
2, 103465, Note_on_c, 0, 47, 0
2, 103471, Note_on_c, 0, 51, 0
2, 103473, Note_on_c, 0, 49, 77
2, 103501, Note_on_c, 0, 47, 76
2, 103511, Note_on_c, 0, 49, 0
2, 103528, Note_on_c, 0, 46, 76
2, 103541, Note_on_c, 0, 47, 0
2, 103560, Note_on_c, 0, 44, 77
2, 103587, Note_on_c, 0, 46, 0
2, 103595, Note_on_c, 0, 42, 75
2, 103621, Note_on_c, 0, 41, 73
2, 103626, Note_on_c, 0, 44, 0
2, 103654, Note_on_c, 0, 42, 0
2, 103659, Note_on_c, 0, 41, 0
2, 103661, Control_c, 0, 64, 0
2, 103666, Note_on_c, 0, 27, 80
2, 103666, Note_on_c, 0, 39, 80
2, 103809, Control_c, 0, 64, 127
2, 103966, Note_on_c, 0, 46, 79
2, 104090, Note_on_c, 0, 27, 0
2, 104095, Note_on_c, 0, 39, 0
2, 104113, Note_on_c, 0, 46, 0
2, 104152, Note_on_c, 0, 54, 77
2, 104277, Note_on_c, 0, 63, 81
2, 104304, Note_on_c, 0, 54, 0
2, 104415, Note_on_c, 0, 63, 0
2, 104978, Note_on_c, 0, 70, 80
2, 104997, Note_on_c, 0, 70, 0
2, 105061, Note_on_c, 0, 70, 83
2, 105228, Note_on_c, 0, 70, 0
2, 106558, Control_c, 0, 64, 0
2, 106558, End_track
3, 0, Start_track
3, 0, Title_t, "c and p/b Rachmaninoff"
3, 0, End_track
4, 0, Start_track
4, 0, Title_t, "Ampico # 69253"
4, 0, End_track
5, 0, Start_track
5, 0, Title_t, "Scan of a player piano roll"
5, 0, End_track
6, 0, Start_track
6, 0, Title_t, "by Terry Smythe, Winnipeg, Canada"
6, 0, End_track
0, 0, End_of_file
