0, 0, Header, 1, 2, 120
1, 0, Start_track
1, 0, Time_signature, 4, 2, 24, 8
1, 0, Key_signature, 0, "major"
1, 0, Tempo, 500000
1, 0, End_track
2, 0, Start_track
2, 0, MIDI_port, 0
2, 0, Title_t, "  "
2, 0, Note_on_c, 0, 36, 42
2, 19, Control_c, 0, 64, 127
2, 67, Note_on_c, 0, 43, 43
2, 81, Note_on_c, 0, 55, 34
2, 97, Note_on_c, 0, 36, 0
2, 123, Note_on_c, 0, 55, 0
2, 124, Note_on_c, 0, 60, 30
2, 129, Note_on_c, 0, 52, 36
2, 133, Note_on_c, 0, 43, 0
2, 147, Note_on_c, 0, 60, 0
2, 157, Note_on_c, 0, 67, 55
2, 159, Note_on_c, 0, 64, 49
2, 173, Note_on_c, 0, 52, 0
2, 176, Note_on_c, 0, 67, 0
2, 178, Note_on_c, 0, 64, 0
2, 223, Note_on_c, 0, 57, 70
2, 223, Note_on_c, 0, 69, 81
2, 247, Note_on_c, 0, 57, 0
2, 253, Note_on_c, 0, 69, 0
2, 255, Note_on_c, 0, 35, 64
2, 262, Control_c, 0, 64, 0
2, 286, Note_on_c, 0, 55, 85
2, 292, Note_on_c, 0, 43, 67
2, 304, Note_on_c, 0, 35, 0
2, 308, Control_c, 0, 64, 127
2, 319, Note_on_c, 0, 43, 0
2, 319, Note_on_c, 0, 62, 59
2, 342, Note_on_c, 0, 53, 68
2, 360, Note_on_c, 0, 67, 80
2, 361, Note_on_c, 0, 55, 0
2, 362, Note_on_c, 0, 62, 0
2, 365, Note_on_c, 0, 65, 62
2, 402, Note_on_c, 0, 53, 0
2, 403, Note_on_c, 0, 67, 0
2, 404, Note_on_c, 0, 62, 84
2, 413, Note_on_c, 0, 65, 0
2, 439, Note_on_c, 0, 69, 91
2, 440, Note_on_c, 0, 62, 0
2, 442, Note_on_c, 0, 57, 54
2, 459, Note_on_c, 0, 57, 0
2, 464, Note_on_c, 0, 69, 0
2, 471, Note_on_c, 0, 36, 87
2, 481, Control_c, 0, 64, 0
2, 492, Note_on_c, 0, 55, 83
2, 499, Note_on_c, 0, 43, 72
2, 523, Note_on_c, 0, 36, 0
2, 523, Control_c, 0, 64, 127
2, 524, Note_on_c, 0, 60, 76
2, 530, Note_on_c, 0, 43, 0
2, 547, Note_on_c, 0, 52, 75
2, 555, Note_on_c, 0, 60, 0
2, 555, Note_on_c, 0, 67, 82
2, 558, Note_on_c, 0, 64, 72
2, 572, Note_on_c, 0, 55, 0
2, 578, Note_on_c, 0, 52, 0
2, 585, Note_on_c, 0, 60, 61
2, 588, Note_on_c, 0, 67, 0
2, 592, Note_on_c, 0, 64, 0
2, 595, Note_on_c, 0, 60, 0
2, 619, Note_on_c, 0, 57, 90
2, 620, Note_on_c, 0, 69, 91
2, 639, Note_on_c, 0, 57, 0
2, 647, Note_on_c, 0, 69, 0
2, 657, Note_on_c, 0, 40, 88
2, 669, Control_c, 0, 64, 0
2, 685, Note_on_c, 0, 59, 84
2, 688, Note_on_c, 0, 48, 68
2, 703, Control_c, 0, 64, 127
2, 708, Note_on_c, 0, 40, 0
2, 720, Note_on_c, 0, 64, 83
2, 727, Note_on_c, 0, 48, 0
2, 736, Note_on_c, 0, 59, 0
2, 741, Note_on_c, 0, 55, 68
2, 751, Note_on_c, 0, 64, 0
2, 752, Note_on_c, 0, 71, 71
2, 754, Note_on_c, 0, 67, 69
2, 766, Note_on_c, 0, 55, 0
2, 782, Note_on_c, 0, 71, 0
2, 787, Note_on_c, 0, 64, 79
2, 812, Note_on_c, 0, 64, 0
2, 815, Note_on_c, 0, 60, 94
2, 816, Note_on_c, 0, 72, 101
2, 821, Note_on_c, 0, 67, 0
2, 827, Note_on_c, 0, 60, 0
2, 841, Note_on_c, 0, 72, 0
2, 852, Note_on_c, 0, 41, 94
2, 869, Control_c, 0, 64, 0
2, 882, Note_on_c, 0, 64, 103
2, 894, Note_on_c, 0, 48, 61
2, 911, Control_c, 0, 64, 127
2, 913, Note_on_c, 0, 41, 0
2, 916, Note_on_c, 0, 69, 87
2, 921, Note_on_c, 0, 48, 0
2, 937, Note_on_c, 0, 57, 70
2, 944, Note_on_c, 0, 76, 95
2, 948, Note_on_c, 0, 57, 0
2, 948, Note_on_c, 0, 69, 0
2, 948, Note_on_c, 0, 72, 81
2, 960, Note_on_c, 0, 64, 0
2, 975, Note_on_c, 0, 69, 71
2, 977, Note_on_c, 0, 76, 0
2, 991, Note_on_c, 0, 72, 0
2, 1006, Note_on_c, 0, 62, 87
2, 1009, Note_on_c, 0, 74, 87
2, 1015, Note_on_c, 0, 69, 0
2, 1018, Note_on_c, 0, 62, 0
2, 1034, Note_on_c, 0, 74, 0
2, 1034, Note_on_c, 0, 42, 94
2, 1045, Control_c, 0, 64, 0
2, 1069, Note_on_c, 0, 64, 83
2, 1075, Note_on_c, 0, 50, 75
2, 1085, Note_on_c, 0, 42, 0
2, 1087, Note_on_c, 0, 50, 0
2, 1088, Control_c, 0, 64, 127
2, 1102, Note_on_c, 0, 69, 84
2, 1126, Note_on_c, 0, 60, 68
2, 1134, Note_on_c, 0, 69, 0
2, 1140, Note_on_c, 0, 60, 0
2, 1146, Note_on_c, 0, 76, 91
2, 1149, Note_on_c, 0, 72, 69
2, 1173, Note_on_c, 0, 64, 0
2, 1180, Note_on_c, 0, 76, 0
2, 1184, Note_on_c, 0, 69, 70
2, 1191, Note_on_c, 0, 72, 0
2, 1200, Note_on_c, 0, 69, 0
2, 1215, Note_on_c, 0, 62, 73
2, 1218, Note_on_c, 0, 74, 76
2, 1225, Note_on_c, 0, 62, 0
2, 1239, Note_on_c, 0, 74, 0
2, 1251, Note_on_c, 0, 43, 59
2, 1257, Control_c, 0, 64, 0
2, 1287, Note_on_c, 0, 64, 62
2, 1297, Note_on_c, 0, 53, 36
2, 1299, Control_c, 0, 64, 127
2, 1300, Note_on_c, 0, 43, 0
2, 1320, Note_on_c, 0, 67, 36
2, 1323, Note_on_c, 0, 53, 0
2, 1341, Note_on_c, 0, 67, 0
2, 1349, Note_on_c, 0, 59, 29
2, 1357, Note_on_c, 0, 64, 0
2, 1365, Note_on_c, 0, 59, 0
2, 1365, Note_on_c, 0, 71, 18
2, 1368, Note_on_c, 0, 76, 37
2, 1388, Note_on_c, 0, 76, 0
2, 1412, Note_on_c, 0, 67, 42
2, 1424, Note_on_c, 0, 71, 0
2, 1440, Note_on_c, 0, 67, 0
2, 1443, Note_on_c, 0, 74, 33
2, 1449, Note_on_c, 0, 62, 20
2, 1454, Note_on_c, 0, 74, 0
2, 1467, Note_on_c, 0, 62, 0
2, 1489, Note_on_c, 0, 31, 48
2, 1499, Control_c, 0, 64, 0
2, 1507, Note_on_c, 0, 59, 46
2, 1528, Note_on_c, 0, 31, 0
2, 1529, Note_on_c, 0, 43, 60
2, 1537, Control_c, 0, 64, 127
2, 1542, Note_on_c, 0, 43, 0
2, 1544, Note_on_c, 0, 62, 45
2, 1557, Note_on_c, 0, 59, 0
2, 1578, Note_on_c, 0, 62, 0
2, 1581, Note_on_c, 0, 71, 40
2, 1590, Note_on_c, 0, 65, 33
2, 1592, Note_on_c, 0, 53, 56
2, 1606, Note_on_c, 0, 53, 0
2, 1610, Note_on_c, 0, 71, 0
2, 1623, Note_on_c, 0, 62, 41
2, 1656, Note_on_c, 0, 65, 0
2, 1659, Note_on_c, 0, 62, 0
2, 1660, Note_on_c, 0, 57, 64
2, 1662, Note_on_c, 0, 69, 40
2, 1670, Note_on_c, 0, 57, 0
2, 1672, Note_on_c, 0, 69, 0
2, 1701, Note_on_c, 0, 36, 49
2, 1727, Note_on_c, 0, 55, 60
2, 1730, Note_on_c, 0, 43, 45
2, 1745, Control_c, 0, 64, 0
2, 1759, Note_on_c, 0, 60, 69
2, 1782, Note_on_c, 0, 52, 57
2, 1791, Control_c, 0, 64, 127
2, 1791, Note_on_c, 0, 67, 73
2, 1792, Note_on_c, 0, 60, 0
2, 1797, Note_on_c, 0, 64, 66
2, 1807, Note_on_c, 0, 36, 0
2, 1819, Note_on_c, 0, 52, 0
2, 1822, Note_on_c, 0, 67, 0
2, 1823, Note_on_c, 0, 55, 0
2, 1826, Note_on_c, 0, 60, 70
2, 1828, Note_on_c, 0, 64, 0
2, 1834, Note_on_c, 0, 43, 0
2, 1836, Note_on_c, 0, 60, 0
2, 1859, Note_on_c, 0, 57, 83
2, 1861, Note_on_c, 0, 69, 78
2, 1871, Note_on_c, 0, 69, 0
2, 1877, Note_on_c, 0, 57, 0
2, 1890, Note_on_c, 0, 35, 71
2, 1899, Control_c, 0, 64, 0
2, 1908, Note_on_c, 0, 55, 92
2, 1919, Note_on_c, 0, 43, 76
2, 1926, Note_on_c, 0, 35, 0
2, 1937, Control_c, 0, 64, 127
2, 1938, Note_on_c, 0, 43, 0
2, 1945, Note_on_c, 0, 62, 67
2, 1969, Note_on_c, 0, 53, 75
2, 1978, Note_on_c, 0, 67, 86
2, 1979, Note_on_c, 0, 65, 79
2, 1980, Note_on_c, 0, 62, 0
2, 1990, Note_on_c, 0, 55, 0
2, 1994, Note_on_c, 0, 53, 0
2, 2003, Note_on_c, 0, 62, 57
2, 2006, Note_on_c, 0, 67, 0
2, 2021, Note_on_c, 0, 65, 0
2, 2036, Note_on_c, 0, 62, 0
2, 2036, Note_on_c, 0, 57, 85
2, 2037, Note_on_c, 0, 69, 92
2, 2048, Note_on_c, 0, 69, 0
2, 2050, Note_on_c, 0, 57, 0
2, 2068, Note_on_c, 0, 36, 80
2, 2092, Note_on_c, 0, 55, 91
2, 2102, Control_c, 0, 64, 0
2, 2107, Note_on_c, 0, 43, 65
2, 2122, Note_on_c, 0, 60, 72
2, 2138, Note_on_c, 0, 36, 0
2, 2144, Control_c, 0, 64, 127
2, 2145, Note_on_c, 0, 43, 0
2, 2152, Note_on_c, 0, 60, 0
2, 2155, Note_on_c, 0, 67, 63
2, 2159, Note_on_c, 0, 64, 73
2, 2160, Note_on_c, 0, 52, 75
2, 2169, Note_on_c, 0, 55, 0
2, 2178, Note_on_c, 0, 67, 0
2, 2180, Note_on_c, 0, 52, 0
2, 2182, Note_on_c, 0, 60, 59
2, 2191, Note_on_c, 0, 64, 0
2, 2197, Note_on_c, 0, 60, 0
2, 2215, Note_on_c, 0, 57, 75
2, 2217, Note_on_c, 0, 69, 87
2, 2226, Note_on_c, 0, 57, 0
2, 2230, Note_on_c, 0, 69, 0
2, 2254, Note_on_c, 0, 40, 67
2, 2271, Control_c, 0, 64, 0
2, 2284, Note_on_c, 0, 59, 73
2, 2294, Note_on_c, 0, 48, 38
2, 2310, Note_on_c, 0, 40, 0
2, 2310, Control_c, 0, 64, 127
2, 2323, Note_on_c, 0, 64, 72
2, 2328, Note_on_c, 0, 48, 0
2, 2332, Note_on_c, 0, 59, 0
2, 2345, Note_on_c, 0, 64, 0
2, 2346, Note_on_c, 0, 71, 61
2, 2348, Note_on_c, 0, 55, 54
2, 2363, Note_on_c, 0, 55, 0
2, 2365, Note_on_c, 0, 67, 34
2, 2379, Note_on_c, 0, 71, 0
2, 2385, Note_on_c, 0, 64, 64
2, 2399, Note_on_c, 0, 64, 0
2, 2403, Note_on_c, 0, 67, 0
2, 2410, Note_on_c, 0, 60, 67
2, 2412, Note_on_c, 0, 72, 75
2, 2421, Note_on_c, 0, 60, 0
2, 2426, Note_on_c, 0, 72, 0
2, 2440, Note_on_c, 0, 41, 87
2, 2444, Control_c, 0, 64, 0
2, 2466, Note_on_c, 0, 61, 95
2, 2479, Note_on_c, 0, 48, 67
2, 2486, Control_c, 0, 64, 127
2, 2493, Note_on_c, 0, 41, 0
2, 2496, Note_on_c, 0, 65, 83
2, 2503, Note_on_c, 0, 48, 0
2, 2522, Note_on_c, 0, 57, 77
2, 2525, Note_on_c, 0, 65, 0
2, 2529, Note_on_c, 0, 73, 75
2, 2530, Note_on_c, 0, 69, 78
2, 2536, Note_on_c, 0, 61, 0
2, 2537, Note_on_c, 0, 57, 0
2, 2554, Note_on_c, 0, 65, 83
2, 2565, Note_on_c, 0, 73, 0
2, 2576, Note_on_c, 0, 65, 0
2, 2587, Note_on_c, 0, 62, 89
2, 2588, Note_on_c, 0, 74, 102
2, 2593, Note_on_c, 0, 69, 0
2, 2603, Note_on_c, 0, 62, 0
2, 2611, Note_on_c, 0, 74, 0
2, 2621, Note_on_c, 0, 43, 95
2, 2636, Control_c, 0, 64, 0
2, 2650, Note_on_c, 0, 63, 102
2, 2667, Note_on_c, 0, 48, 73
2, 2674, Control_c, 0, 64, 127
2, 2677, Note_on_c, 0, 43, 0
2, 2682, Note_on_c, 0, 67, 87
2, 2698, Note_on_c, 0, 48, 0
2, 2701, Note_on_c, 0, 63, 0
2, 2709, Note_on_c, 0, 75, 81
2, 2710, Note_on_c, 0, 58, 88
2, 2712, Note_on_c, 0, 67, 0
2, 2715, Note_on_c, 0, 72, 93
2, 2736, Note_on_c, 0, 67, 78
2, 2737, Note_on_c, 0, 58, 0
2, 2745, Note_on_c, 0, 75, 0
2, 2769, Note_on_c, 0, 76, 98
2, 2770, Note_on_c, 0, 64, 86
2, 2771, Note_on_c, 0, 67, 0
2, 2780, Note_on_c, 0, 64, 0
2, 2785, Note_on_c, 0, 72, 0
2, 2791, Note_on_c, 0, 76, 0
2, 2802, Note_on_c, 0, 45, 102
2, 2813, Control_c, 0, 64, 0
2, 2834, Note_on_c, 0, 67, 103
2, 2855, Control_c, 0, 64, 127
2, 2857, Note_on_c, 0, 45, 0
2, 2857, Note_on_c, 0, 53, 78
2, 2863, Note_on_c, 0, 69, 98
2, 2868, Note_on_c, 0, 67, 0
2, 2870, Note_on_c, 0, 53, 0
2, 2883, Note_on_c, 0, 69, 0
2, 2901, Note_on_c, 0, 79, 98
2, 2901, Note_on_c, 0, 72, 84
2, 2906, Note_on_c, 0, 60, 67
2, 2920, Note_on_c, 0, 60, 0
2, 2925, Note_on_c, 0, 79, 0
2, 2939, Note_on_c, 0, 69, 85
2, 2956, Note_on_c, 0, 72, 0
2, 2965, Note_on_c, 0, 69, 0
2, 2965, Note_on_c, 0, 77, 99
2, 2968, Note_on_c, 0, 65, 67
2, 2974, Note_on_c, 0, 77, 0
2, 2983, Note_on_c, 0, 65, 0
2, 2998, Note_on_c, 0, 43, 92
2, 3009, Control_c, 0, 64, 0
2, 3022, Note_on_c, 0, 63, 97
2, 3034, Note_on_c, 0, 48, 68
2, 3038, Note_on_c, 0, 43, 0
2, 3047, Control_c, 0, 64, 127
2, 3053, Note_on_c, 0, 67, 79
2, 3054, Note_on_c, 0, 48, 0
2, 3060, Note_on_c, 0, 63, 0
2, 3079, Note_on_c, 0, 58, 80
2, 3081, Note_on_c, 0, 67, 0
2, 3082, Note_on_c, 0, 75, 62
2, 3088, Note_on_c, 0, 72, 80
2, 3095, Note_on_c, 0, 58, 0
2, 3108, Note_on_c, 0, 67, 72
2, 3116, Note_on_c, 0, 75, 0
2, 3120, Note_on_c, 0, 72, 0
2, 3136, Note_on_c, 0, 67, 0
2, 3142, Note_on_c, 0, 64, 78
2, 3144, Note_on_c, 0, 76, 84
2, 3158, Note_on_c, 0, 64, 0
2, 3167, Note_on_c, 0, 76, 0
2, 3177, Note_on_c, 0, 45, 99
2, 3193, Control_c, 0, 64, 0
2, 3206, Note_on_c, 0, 64, 101
2, 3230, Note_on_c, 0, 53, 63
2, 3232, Control_c, 0, 64, 127
2, 3236, Note_on_c, 0, 45, 0
2, 3239, Note_on_c, 0, 69, 86
2, 3257, Note_on_c, 0, 53, 0
2, 3271, Note_on_c, 0, 64, 0
2, 3272, Note_on_c, 0, 69, 0
2, 3273, Note_on_c, 0, 60, 76
2, 3273, Note_on_c, 0, 76, 87
2, 3274, Note_on_c, 0, 72, 89
2, 3296, Note_on_c, 0, 69, 84
2, 3300, Note_on_c, 0, 76, 0
2, 3303, Note_on_c, 0, 72, 0
2, 3306, Note_on_c, 0, 60, 0
2, 3315, Note_on_c, 0, 69, 0
2, 3330, Note_on_c, 0, 65, 100
2, 3331, Note_on_c, 0, 77, 106
2, 3343, Note_on_c, 0, 65, 0
2, 3344, Note_on_c, 0, 77, 0
2, 3375, Note_on_c, 0, 66, 106
2, 3375, Note_on_c, 0, 47, 55
2, 3393, Control_c, 0, 64, 0
2, 3406, Note_on_c, 0, 71, 76
2, 3424, Note_on_c, 0, 55, 78
2, 3432, Note_on_c, 0, 47, 0
2, 3435, Control_c, 0, 64, 127
2, 3440, Note_on_c, 0, 74, 92
2, 3442, Note_on_c, 0, 71, 0
2, 3442, Note_on_c, 0, 78, 78
2, 3450, Note_on_c, 0, 55, 0
2, 3461, Note_on_c, 0, 62, 81
2, 3465, Note_on_c, 0, 66, 0
2, 3471, Note_on_c, 0, 71, 75
2, 3479, Note_on_c, 0, 62, 0
2, 3483, Note_on_c, 0, 78, 0
2, 3496, Note_on_c, 0, 74, 0
2, 3504, Note_on_c, 0, 67, 103
2, 3505, Note_on_c, 0, 79, 101
2, 3510, Note_on_c, 0, 71, 0
2, 3522, Note_on_c, 0, 67, 0
2, 3526, Note_on_c, 0, 79, 0
2, 3547, Note_on_c, 0, 68, 110
2, 3551, Note_on_c, 0, 48, 83
2, 3570, Control_c, 0, 64, 0
2, 3583, Note_on_c, 0, 72, 98
2, 3599, Note_on_c, 0, 55, 75
2, 3612, Control_c, 0, 64, 127
2, 3617, Note_on_c, 0, 48, 0
2, 3618, Note_on_c, 0, 76, 100
2, 3623, Note_on_c, 0, 72, 0
2, 3624, Note_on_c, 0, 55, 0
2, 3624, Note_on_c, 0, 80, 92
2, 3631, Note_on_c, 0, 68, 0
2, 3643, Note_on_c, 0, 64, 79
2, 3652, Note_on_c, 0, 72, 94
2, 3664, Note_on_c, 0, 64, 0
2, 3664, Note_on_c, 0, 80, 0
2, 3669, Note_on_c, 0, 72, 0
2, 3671, Note_on_c, 0, 76, 0
2, 3683, Note_on_c, 0, 69, 101
2, 3686, Note_on_c, 0, 81, 89
2, 3693, Note_on_c, 0, 69, 0
2, 3699, Note_on_c, 0, 81, 0
2, 3723, Note_on_c, 0, 70, 114
2, 3724, Note_on_c, 0, 50, 82
2, 3739, Control_c, 0, 64, 0
2, 3759, Note_on_c, 0, 74, 98
2, 3772, Note_on_c, 0, 55, 74
2, 3781, Note_on_c, 0, 50, 0
2, 3785, Control_c, 0, 64, 127
2, 3793, Note_on_c, 0, 55, 0
2, 3795, Note_on_c, 0, 82, 110
2, 3798, Note_on_c, 0, 74, 0
2, 3799, Note_on_c, 0, 79, 91
2, 3809, Note_on_c, 0, 65, 89
2, 3821, Note_on_c, 0, 65, 0
2, 3822, Note_on_c, 0, 70, 0
2, 3834, Note_on_c, 0, 74, 100
2, 3842, Note_on_c, 0, 79, 0
2, 3843, Note_on_c, 0, 82, 0
2, 3845, Note_on_c, 0, 74, 0
2, 3861, Note_on_c, 0, 71, 90
2, 3862, Note_on_c, 0, 83, 97
2, 3869, Note_on_c, 0, 71, 0
2, 3883, Note_on_c, 0, 83, 0
2, 3904, Note_on_c, 0, 52, 95
2, 3939, Control_c, 0, 64, 0
2, 3944, Note_on_c, 0, 74, 112
2, 3981, Note_on_c, 0, 60, 49
2, 3982, Control_c, 0, 64, 127
2, 3988, Note_on_c, 0, 52, 0
2, 3991, Note_on_c, 0, 76, 94
2, 4008, Note_on_c, 0, 74, 0
2, 4011, Note_on_c, 0, 60, 0
2, 4030, Note_on_c, 0, 76, 0
2, 4045, Note_on_c, 0, 86, 101
2, 4045, Note_on_c, 0, 79, 76
2, 4048, Note_on_c, 0, 67, 56
2, 4065, Note_on_c, 0, 67, 0
2, 4085, Note_on_c, 0, 86, 0
2, 4101, Note_on_c, 0, 76, 95
2, 4129, Note_on_c, 0, 76, 0
2, 4137, Note_on_c, 0, 84, 94
2, 4138, Note_on_c, 0, 72, 89
2, 4145, Note_on_c, 0, 84, 0
2, 4148, Note_on_c, 0, 79, 0
2, 4153, Note_on_c, 0, 72, 0
2, 4173, Note_on_c, 0, 42, 75
2, 4193, Control_c, 0, 64, 0
2, 4196, Note_on_c, 0, 71, 88
2, 4221, Note_on_c, 0, 51, 50
2, 4224, Control_c, 0, 64, 127
2, 4225, Note_on_c, 0, 42, 0
2, 4228, Note_on_c, 0, 72, 89
2, 4235, Note_on_c, 0, 71, 0
2, 4243, Note_on_c, 0, 51, 0
2, 4255, Note_on_c, 0, 72, 0
2, 4265, Note_on_c, 0, 83, 86
2, 4267, Note_on_c, 0, 75, 61
2, 4284, Note_on_c, 0, 83, 0
2, 4302, Note_on_c, 0, 72, 95
2, 4312, Note_on_c, 0, 75, 0
2, 4315, Note_on_c, 0, 72, 0
2, 4332, Note_on_c, 0, 81, 90
2, 4341, Note_on_c, 0, 81, 0
2, 4372, Note_on_c, 0, 43, 57
2, 4388, Note_on_c, 0, 69, 101
2, 4396, Control_c, 0, 64, 0
2, 4426, Note_on_c, 0, 72, 69
2, 4443, Note_on_c, 0, 43, 0
2, 4443, Control_c, 0, 64, 127
2, 4446, Note_on_c, 0, 52, 58
2, 4460, Note_on_c, 0, 72, 0
2, 4462, Note_on_c, 0, 52, 0
2, 4463, Note_on_c, 0, 69, 0
2, 4475, Note_on_c, 0, 81, 75
2, 4476, Note_on_c, 0, 76, 45
2, 4496, Note_on_c, 0, 60, 60
2, 4500, Note_on_c, 0, 81, 0
2, 4511, Note_on_c, 0, 60, 0
2, 4515, Note_on_c, 0, 72, 72
2, 4519, Note_on_c, 0, 76, 0
2, 4545, Note_on_c, 0, 72, 0
2, 4551, Note_on_c, 0, 79, 50
2, 4551, Note_on_c, 0, 67, 52
2, 4563, Note_on_c, 0, 79, 0
2, 4566, Note_on_c, 0, 67, 0
2, 4586, Note_on_c, 0, 43, 51
2, 4617, Note_on_c, 0, 64, 74
2, 4627, Control_c, 0, 64, 0
2, 4648, Note_on_c, 0, 53, 43
2, 4652, Note_on_c, 0, 43, 0
2, 4654, Note_on_c, 0, 67, 57
2, 4669, Control_c, 0, 64, 127
2, 4674, Note_on_c, 0, 67, 0
2, 4682, Note_on_c, 0, 53, 0
2, 4687, Note_on_c, 0, 64, 0
2, 4692, Note_on_c, 0, 76, 69
2, 4698, Note_on_c, 0, 55, 39
2, 4700, Note_on_c, 0, 71, 21
2, 4722, Note_on_c, 0, 76, 0
2, 4732, Note_on_c, 0, 55, 0
2, 4742, Note_on_c, 0, 71, 0
2, 4745, Note_on_c, 0, 67, 34
2, 4745, Note_on_c, 0, 59, 34
2, 4758, Note_on_c, 0, 59, 0
2, 4762, Note_on_c, 0, 67, 0
2, 4772, Note_on_c, 0, 74, 69
2, 4774, Note_on_c, 0, 62, 36
2, 4782, Note_on_c, 0, 74, 0
2, 4791, Note_on_c, 0, 62, 0
2, 4870, Note_on_c, 0, 55, 57
2, 4890, Note_on_c, 0, 36, 33
2, 4919, Control_c, 0, 64, 0
2, 4930, Note_on_c, 0, 60, 47
2, 4955, Note_on_c, 0, 43, 33
2, 4957, Control_c, 0, 64, 127
2, 4959, Note_on_c, 0, 60, 0
2, 4965, Note_on_c, 0, 67, 37
2, 4966, Note_on_c, 0, 36, 0
2, 4974, Note_on_c, 0, 64, 39
2, 4976, Note_on_c, 0, 43, 0
2, 4981, Note_on_c, 0, 55, 0
2, 4994, Note_on_c, 0, 67, 0
2, 4996, Note_on_c, 0, 64, 0
2, 5004, Note_on_c, 0, 60, 41
2, 5010, Note_on_c, 0, 52, 40
2, 5020, Note_on_c, 0, 60, 0
2, 5025, Note_on_c, 0, 52, 0
2, 5037, Note_on_c, 0, 57, 76
2, 5043, Note_on_c, 0, 69, 47
2, 5047, Note_on_c, 0, 57, 0
2, 5056, Note_on_c, 0, 69, 0
2, 5091, Note_on_c, 0, 36, 50
2, 5092, Note_on_c, 0, 64, 79
2, 5107, Control_c, 0, 64, 0
2, 5131, Note_on_c, 0, 67, 59
2, 5136, Note_on_c, 0, 36, 0
2, 5138, Note_on_c, 0, 43, 52
2, 5142, Control_c, 0, 64, 127
2, 5150, Note_on_c, 0, 43, 0
2, 5157, Note_on_c, 0, 64, 0
2, 5162, Note_on_c, 0, 67, 0
2, 5173, Note_on_c, 0, 76, 73
2, 5173, Note_on_c, 0, 53, 68
2, 5174, Note_on_c, 0, 71, 46
2, 5186, Note_on_c, 0, 53, 0
2, 5187, Note_on_c, 0, 76, 0
2, 5202, Note_on_c, 0, 67, 73
2, 5211, Note_on_c, 0, 71, 0
2, 5218, Note_on_c, 0, 67, 0
2, 5233, Note_on_c, 0, 62, 79
2, 5238, Note_on_c, 0, 74, 54
2, 5246, Note_on_c, 0, 62, 0
2, 5250, Note_on_c, 0, 74, 0
2, 5271, Note_on_c, 0, 36, 73
2, 5307, Note_on_c, 0, 55, 84
2, 5307, Control_c, 0, 64, 0
2, 5326, Note_on_c, 0, 43, 55
2, 5338, Note_on_c, 0, 36, 0
2, 5346, Control_c, 0, 64, 127
2, 5349, Note_on_c, 0, 60, 55
2, 5352, Note_on_c, 0, 43, 0
2, 5374, Note_on_c, 0, 52, 59
2, 5375, Note_on_c, 0, 55, 0
2, 5380, Note_on_c, 0, 60, 0
2, 5381, Note_on_c, 0, 67, 62
2, 5383, Note_on_c, 0, 64, 61
2, 5396, Note_on_c, 0, 52, 0
2, 5402, Note_on_c, 0, 67, 0
2, 5405, Note_on_c, 0, 64, 0
2, 5406, Note_on_c, 0, 60, 59
2, 5418, Note_on_c, 0, 60, 0
2, 5439, Note_on_c, 0, 57, 85
2, 5449, Note_on_c, 0, 57, 0
2, 5482, Note_on_c, 0, 36, 50
2, 5499, Control_c, 0, 64, 0
2, 5506, Note_on_c, 0, 64, 69
2, 5528, Note_on_c, 0, 43, 46
2, 5540, Note_on_c, 0, 36, 0
2, 5541, Control_c, 0, 64, 127
2, 5543, Note_on_c, 0, 67, 55
2, 5546, Note_on_c, 0, 43, 0
2, 5569, Note_on_c, 0, 67, 0
2, 5584, Note_on_c, 0, 76, 51
2, 5586, Note_on_c, 0, 53, 33
2, 5586, Note_on_c, 0, 71, 32
2, 5589, Note_on_c, 0, 64, 0
2, 5604, Note_on_c, 0, 76, 0
2, 5612, Note_on_c, 0, 53, 0
2, 5623, Note_on_c, 0, 67, 57
2, 5644, Note_on_c, 0, 71, 0
2, 5645, Note_on_c, 0, 67, 0
2, 5664, Note_on_c, 0, 62, 46
2, 5670, Note_on_c, 0, 74, 21
2, 5682, Note_on_c, 0, 74, 0
2, 5683, Note_on_c, 0, 62, 0
2, 5710, Note_on_c, 0, 36, 50
2, 5719, Control_c, 0, 64, 0
2, 5741, Note_on_c, 0, 60, 60
2, 5748, Note_on_c, 0, 43, 48
2, 5755, Note_on_c, 0, 36, 0
2, 5760, Note_on_c, 0, 43, 0
2, 5762, Control_c, 0, 64, 127
2, 5781, Note_on_c, 0, 65, 55
2, 5797, Note_on_c, 0, 55, 43
2, 5798, Note_on_c, 0, 60, 0
2, 5807, Note_on_c, 0, 65, 0
2, 5810, Note_on_c, 0, 72, 84
2, 5813, Note_on_c, 0, 69, 57
2, 5814, Note_on_c, 0, 55, 0
2, 5848, Note_on_c, 0, 65, 67
2, 5852, Note_on_c, 0, 69, 0
2, 5869, Note_on_c, 0, 65, 0
2, 5882, Note_on_c, 0, 67, 65
2, 5886, Note_on_c, 0, 64, 55
2, 5898, Note_on_c, 0, 67, 0
2, 5902, Note_on_c, 0, 64, 0
2, 5922, Note_on_c, 0, 36, 61
2, 5931, Control_c, 0, 64, 0
2, 5946, Note_on_c, 0, 72, 0
2, 5956, Note_on_c, 0, 60, 58
2, 5956, Note_on_c, 0, 43, 50
2, 5959, Note_on_c, 0, 36, 0
2, 5965, Control_c, 0, 64, 127
2, 5967, Note_on_c, 0, 43, 0
2, 5989, Note_on_c, 0, 60, 0
2, 5990, Note_on_c, 0, 65, 63
2, 6005, Note_on_c, 0, 65, 0
2, 6005, Note_on_c, 0, 55, 41
2, 6021, Note_on_c, 0, 72, 70
2, 6024, Note_on_c, 0, 69, 55
2, 6026, Note_on_c, 0, 55, 0
2, 6053, Note_on_c, 0, 69, 0
2, 6063, Note_on_c, 0, 65, 43
2, 6079, Note_on_c, 0, 65, 0
2, 6097, Note_on_c, 0, 64, 32
2, 6099, Note_on_c, 0, 67, 27
2, 6115, Note_on_c, 0, 64, 0
2, 6116, Note_on_c, 0, 67, 0
2, 6123, Control_c, 0, 64, 0
2, 6124, Note_on_c, 0, 36, 51
2, 6162, Control_c, 0, 64, 127
2, 6162, Note_on_c, 0, 43, 48
2, 6163, Note_on_c, 0, 72, 0
2, 6165, Note_on_c, 0, 36, 0
2, 6169, Note_on_c, 0, 60, 39
2, 6174, Note_on_c, 0, 43, 0
2, 6195, Note_on_c, 0, 60, 0
2, 6206, Note_on_c, 0, 65, 45
2, 6220, Note_on_c, 0, 55, 23
2, 6223, Note_on_c, 0, 65, 0
2, 6241, Note_on_c, 0, 72, 60
2, 6246, Note_on_c, 0, 69, 38
2, 6250, Note_on_c, 0, 55, 0
2, 6283, Note_on_c, 0, 65, 43
2, 6288, Note_on_c, 0, 69, 0
2, 6302, Note_on_c, 0, 65, 0
2, 6322, Note_on_c, 0, 67, 34
2, 6324, Note_on_c, 0, 64, 27
2, 6340, Note_on_c, 0, 67, 0
2, 6348, Note_on_c, 0, 64, 0
2, 6360, Note_on_c, 0, 36, 44
2, 6365, Control_c, 0, 64, 0
2, 6403, Note_on_c, 0, 72, 0
2, 6404, Note_on_c, 0, 60, 44
2, 6406, Note_on_c, 0, 43, 50
2, 6408, Control_c, 0, 64, 127
2, 6412, Note_on_c, 0, 36, 0
2, 6420, Note_on_c, 0, 43, 0
2, 6430, Note_on_c, 0, 60, 0
2, 6453, Note_on_c, 0, 65, 48
2, 6476, Note_on_c, 0, 65, 0
2, 6486, Note_on_c, 0, 55, 24
2, 6504, Note_on_c, 0, 72, 47
2, 6508, Note_on_c, 0, 69, 29
2, 6510, Note_on_c, 0, 55, 0
2, 6558, Note_on_c, 0, 69, 0
2, 6561, Note_on_c, 0, 65, 41
2, 6584, Note_on_c, 0, 65, 0
2, 6620, Note_on_c, 0, 72, 0
2, 6631, Note_on_c, 0, 64, 31
2, 6631, Note_on_c, 0, 67, 22
2, 6691, Note_on_c, 0, 64, 0
2, 6694, Note_on_c, 0, 67, 0
2, 6697, Note_on_c, 0, 36, 42
2, 6770, Note_on_c, 0, 43, 46
2, 6840, Note_on_c, 0, 48, 50
2, 6872, Control_c, 0, 64, 0
2, 6915, Control_c, 0, 64, 127
2, 6921, Note_on_c, 0, 52, 46
2, 7026, Note_on_c, 0, 55, 44
2, 7156, Note_on_c, 0, 60, 41
2, 7404, Note_on_c, 0, 64, 41
2, 8521, Note_on_c, 0, 52, 0
2, 8542, Note_on_c, 0, 55, 0
2, 8544, Note_on_c, 0, 60, 0
2, 8546, Note_on_c, 0, 48, 0
2, 8553, Note_on_c, 0, 43, 0
2, 8563, Note_on_c, 0, 36, 0
2, 8566, Note_on_c, 0, 64, 0
2, 8601, Control_c, 0, 64, 0
2, 8601, End_track
0, 0, End_of_file
