0, 0, Header, 1, 2, 120
1, 0, Start_track
1, 0, Time_signature, 4, 2, 24, 8
1, 0, Key_signature, -4, "major"
1, 0, Tempo, 500000
1, 0, End_track
2, 0, Start_track
2, 0, MIDI_port, 0
2, 0, Title_t, "  "
2, 0, Control_c, 0, 64, 127
2, 15, Note_on_c, 0, 72, 45
2, 114, Note_on_c, 0, 72, 0
2, 166, Note_on_c, 0, 52, 30
2, 173, Note_on_c, 0, 72, 43
2, 197, Note_on_c, 0, 52, 0
2, 199, Note_on_c, 0, 72, 0
2, 201, Note_on_c, 0, 73, 42
2, 217, Note_on_c, 0, 73, 0
2, 230, Note_on_c, 0, 67, 38
2, 231, Note_on_c, 0, 71, 30
2, 247, Note_on_c, 0, 71, 0
2, 250, Note_on_c, 0, 72, 59
2, 264, Note_on_c, 0, 67, 0
2, 276, Note_on_c, 0, 60, 36
2, 279, Note_on_c, 0, 72, 0
2, 280, Note_on_c, 0, 75, 33
2, 292, Note_on_c, 0, 73, 61
2, 298, Note_on_c, 0, 75, 0
2, 300, Note_on_c, 0, 60, 0
2, 311, Note_on_c, 0, 58, 34
2, 313, Note_on_c, 0, 73, 0
2, 322, Note_on_c, 0, 72, 58
2, 334, Note_on_c, 0, 72, 0
2, 340, Note_on_c, 0, 73, 50
2, 353, Note_on_c, 0, 67, 47
2, 362, Note_on_c, 0, 73, 0
2, 367, Note_on_c, 0, 71, 41
2, 374, Note_on_c, 0, 67, 0
2, 388, Note_on_c, 0, 72, 64
2, 390, Note_on_c, 0, 58, 0
2, 391, Note_on_c, 0, 71, 0
2, 396, Note_on_c, 0, 60, 41
2, 406, Note_on_c, 0, 72, 0
2, 410, Note_on_c, 0, 78, 57
2, 417, Note_on_c, 0, 60, 0
2, 431, Note_on_c, 0, 78, 0
2, 433, Note_on_c, 0, 79, 66
2, 436, Note_on_c, 0, 53, 36
2, 451, Note_on_c, 0, 72, 77
2, 461, Note_on_c, 0, 79, 0
2, 464, Note_on_c, 0, 72, 0
2, 468, Control_c, 0, 64, 0
2, 472, Note_on_c, 0, 73, 63
2, 490, Note_on_c, 0, 68, 49
2, 490, Note_on_c, 0, 71, 64
2, 502, Note_on_c, 0, 73, 0
2, 514, Note_on_c, 0, 72, 72
2, 518, Note_on_c, 0, 71, 0
2, 530, Note_on_c, 0, 68, 0
2, 532, Note_on_c, 0, 60, 42
2, 534, Note_on_c, 0, 75, 57
2, 544, Note_on_c, 0, 72, 0
2, 550, Note_on_c, 0, 73, 76
2, 565, Note_on_c, 0, 75, 0
2, 574, Note_on_c, 0, 73, 0
2, 574, Note_on_c, 0, 72, 61
2, 576, Note_on_c, 0, 60, 0
2, 580, Note_on_c, 0, 56, 44
2, 597, Note_on_c, 0, 73, 66
2, 604, Note_on_c, 0, 72, 0
2, 620, Note_on_c, 0, 71, 54
2, 622, Note_on_c, 0, 68, 42
2, 628, Note_on_c, 0, 73, 0
2, 640, Note_on_c, 0, 71, 0
2, 641, Control_c, 0, 64, 127
2, 643, Note_on_c, 0, 53, 0
2, 644, Note_on_c, 0, 72, 76
2, 655, Note_on_c, 0, 68, 0
2, 659, Note_on_c, 0, 72, 0
2, 664, Note_on_c, 0, 56, 0
2, 665, Note_on_c, 0, 60, 28
2, 668, Note_on_c, 0, 80, 72
2, 684, Note_on_c, 0, 60, 0
2, 687, Note_on_c, 0, 77, 70
2, 689, Note_on_c, 0, 80, 0
2, 703, Note_on_c, 0, 77, 0
2, 708, Note_on_c, 0, 55, 53
2, 711, Note_on_c, 0, 76, 82
2, 721, Note_on_c, 0, 76, 0
2, 732, Note_on_c, 0, 77, 70
2, 756, Note_on_c, 0, 76, 84
2, 756, Control_c, 0, 64, 0
2, 757, Note_on_c, 0, 77, 0
2, 759, Note_on_c, 0, 70, 52
2, 775, Note_on_c, 0, 70, 0
2, 775, Note_on_c, 0, 75, 78
2, 783, Note_on_c, 0, 76, 0
2, 795, Note_on_c, 0, 75, 0
2, 798, Note_on_c, 0, 76, 88
2, 801, Note_on_c, 0, 64, 51
2, 810, Control_c, 0, 64, 127
2, 819, Note_on_c, 0, 79, 78
2, 822, Note_on_c, 0, 76, 0
2, 829, Note_on_c, 0, 64, 0
2, 836, Note_on_c, 0, 82, 90
2, 845, Note_on_c, 0, 79, 0
2, 847, Note_on_c, 0, 61, 34
2, 856, Control_c, 0, 64, 0
2, 861, Note_on_c, 0, 84, 84
2, 863, Note_on_c, 0, 82, 0
2, 879, Note_on_c, 0, 82, 84
2, 882, Note_on_c, 0, 70, 61
2, 896, Note_on_c, 0, 84, 0
2, 898, Control_c, 0, 64, 127
2, 900, Note_on_c, 0, 70, 0
2, 905, Note_on_c, 0, 81, 80
2, 907, Note_on_c, 0, 82, 0
2, 914, Note_on_c, 0, 55, 0
2, 921, Note_on_c, 0, 82, 85
2, 925, Note_on_c, 0, 64, 46
2, 932, Note_on_c, 0, 81, 0
2, 942, Note_on_c, 0, 64, 0
2, 944, Note_on_c, 0, 61, 0
2, 944, Note_on_c, 0, 85, 74
2, 946, Note_on_c, 0, 82, 0
2, 960, Note_on_c, 0, 56, 48
2, 967, Note_on_c, 0, 85, 0
2, 967, Note_on_c, 0, 84, 84
2, 975, Control_c, 0, 64, 0
2, 980, Note_on_c, 0, 84, 0
2, 987, Note_on_c, 0, 85, 82
2, 1002, Note_on_c, 0, 68, 45
2, 1011, Note_on_c, 0, 84, 70
2, 1021, Note_on_c, 0, 85, 0
2, 1025, Note_on_c, 0, 84, 0
2, 1030, Note_on_c, 0, 83, 64
2, 1036, Control_c, 0, 64, 127
2, 1043, Note_on_c, 0, 68, 0
2, 1045, Note_on_c, 0, 83, 0
2, 1049, Note_on_c, 0, 84, 78
2, 1059, Note_on_c, 0, 65, 38
2, 1061, Note_on_c, 0, 84, 0
2, 1071, Note_on_c, 0, 79, 61
2, 1075, Note_on_c, 0, 65, 0
2, 1092, Note_on_c, 0, 80, 65
2, 1093, Note_on_c, 0, 79, 0
2, 1101, Note_on_c, 0, 60, 30
2, 1108, Note_on_c, 0, 80, 0
2, 1110, Control_c, 0, 64, 0
2, 1111, Note_on_c, 0, 82, 76
2, 1130, Note_on_c, 0, 80, 65
2, 1137, Note_on_c, 0, 68, 45
2, 1138, Note_on_c, 0, 82, 0
2, 1152, Control_c, 0, 64, 127
2, 1155, Note_on_c, 0, 80, 0
2, 1156, Note_on_c, 0, 79, 70
2, 1157, Note_on_c, 0, 68, 0
2, 1170, Note_on_c, 0, 56, 0
2, 1171, Note_on_c, 0, 79, 0
2, 1176, Note_on_c, 0, 80, 66
2, 1177, Note_on_c, 0, 65, 38
2, 1195, Note_on_c, 0, 60, 0
2, 1196, Note_on_c, 0, 65, 0
2, 1203, Note_on_c, 0, 80, 0
2, 1204, Note_on_c, 0, 76, 73
2, 1217, Note_on_c, 0, 76, 0
2, 1234, Note_on_c, 0, 77, 69
2, 1236, Note_on_c, 0, 46, 74
2, 1254, Note_on_c, 0, 77, 0
2, 1258, Note_on_c, 0, 79, 64
2, 1281, Note_on_c, 0, 77, 63
2, 1283, Note_on_c, 0, 79, 0
2, 1286, Note_on_c, 0, 61, 56
2, 1296, Note_on_c, 0, 77, 0
2, 1306, Note_on_c, 0, 76, 67
2, 1307, Note_on_c, 0, 61, 0
2, 1321, Note_on_c, 0, 76, 0
2, 1324, Note_on_c, 0, 77, 70
2, 1327, Note_on_c, 0, 55, 50
2, 1335, Note_on_c, 0, 77, 0
2, 1341, Note_on_c, 0, 46, 0
2, 1342, Note_on_c, 0, 72, 76
2, 1346, Note_on_c, 0, 55, 0
2, 1359, Note_on_c, 0, 53, 55
2, 1366, Note_on_c, 0, 73, 70
2, 1371, Control_c, 0, 64, 0
2, 1374, Note_on_c, 0, 72, 0
2, 1384, Note_on_c, 0, 73, 0
2, 1384, Note_on_c, 0, 75, 71
2, 1402, Note_on_c, 0, 73, 76
2, 1411, Note_on_c, 0, 61, 63
2, 1415, Note_on_c, 0, 75, 0
2, 1417, Control_c, 0, 64, 127
2, 1427, Note_on_c, 0, 73, 0
2, 1429, Note_on_c, 0, 72, 81
2, 1438, Note_on_c, 0, 61, 0
2, 1446, Note_on_c, 0, 72, 0
2, 1448, Note_on_c, 0, 73, 69
2, 1453, Note_on_c, 0, 53, 0
2, 1453, Note_on_c, 0, 55, 57
2, 1472, Note_on_c, 0, 73, 0
2, 1472, Note_on_c, 0, 71, 64
2, 1487, Note_on_c, 0, 71, 0
2, 1494, Control_c, 0, 64, 0
2, 1494, Note_on_c, 0, 72, 79
2, 1496, Note_on_c, 0, 48, 54
2, 1497, Note_on_c, 0, 55, 0
2, 1506, Note_on_c, 0, 72, 0
2, 1510, Note_on_c, 0, 73, 70
2, 1531, Note_on_c, 0, 72, 73
2, 1539, Note_on_c, 0, 73, 0
2, 1544, Note_on_c, 0, 72, 0
2, 1545, Note_on_c, 0, 60, 54
2, 1548, Control_c, 0, 64, 127
2, 1556, Note_on_c, 0, 71, 58
2, 1569, Note_on_c, 0, 71, 0
2, 1573, Note_on_c, 0, 72, 72
2, 1584, Note_on_c, 0, 56, 58
2, 1585, Note_on_c, 0, 60, 0
2, 1586, Note_on_c, 0, 72, 0
2, 1595, Note_on_c, 0, 67, 72
2, 1617, Control_c, 0, 64, 0
2, 1618, Note_on_c, 0, 68, 70
2, 1626, Note_on_c, 0, 67, 0
2, 1630, Note_on_c, 0, 53, 42
2, 1634, Note_on_c, 0, 56, 0
2, 1642, Note_on_c, 0, 70, 66
2, 1643, Note_on_c, 0, 68, 0
2, 1660, Note_on_c, 0, 68, 70
2, 1666, Control_c, 0, 64, 127
2, 1668, Note_on_c, 0, 70, 0
2, 1677, Note_on_c, 0, 60, 47
2, 1685, Note_on_c, 0, 68, 0
2, 1690, Note_on_c, 0, 67, 57
2, 1691, Note_on_c, 0, 48, 0
2, 1702, Note_on_c, 0, 53, 0
2, 1706, Note_on_c, 0, 67, 0
2, 1708, Note_on_c, 0, 60, 0
2, 1711, Note_on_c, 0, 68, 50
2, 1714, Note_on_c, 0, 56, 50
2, 1733, Note_on_c, 0, 68, 0
2, 1734, Note_on_c, 0, 65, 64
2, 1737, Note_on_c, 0, 56, 0
2, 1747, Note_on_c, 0, 65, 0
2, 1747, Control_c, 0, 64, 0
2, 1755, Note_on_c, 0, 48, 49
2, 1758, Note_on_c, 0, 64, 71
2, 1779, Note_on_c, 0, 64, 0
2, 1782, Note_on_c, 0, 67, 70
2, 1798, Note_on_c, 0, 67, 0
2, 1804, Note_on_c, 0, 70, 79
2, 1805, Control_c, 0, 64, 127
2, 1823, Note_on_c, 0, 64, 20
2, 1830, Note_on_c, 0, 73, 75
2, 1839, Note_on_c, 0, 70, 0
2, 1842, Note_on_c, 0, 73, 0
2, 1847, Note_on_c, 0, 64, 0
2, 1856, Note_on_c, 0, 76, 77
2, 1864, Note_on_c, 0, 58, 59
2, 1878, Note_on_c, 0, 79, 74
2, 1882, Control_c, 0, 64, 0
2, 1892, Note_on_c, 0, 79, 0
2, 1898, Note_on_c, 0, 76, 0
2, 1898, Note_on_c, 0, 82, 84
2, 1906, Note_on_c, 0, 55, 47
2, 1909, Note_on_c, 0, 58, 0
2, 1923, Note_on_c, 0, 85, 71
2, 1925, Note_on_c, 0, 82, 0
2, 1932, Control_c, 0, 64, 127
2, 1938, Note_on_c, 0, 48, 0
2, 1947, Note_on_c, 0, 84, 74
2, 1950, Note_on_c, 0, 85, 0
2, 1950, Note_on_c, 0, 64, 45
2, 1966, Note_on_c, 0, 55, 0
2, 1969, Note_on_c, 0, 82, 77
2, 1976, Note_on_c, 0, 84, 0
2, 1987, Note_on_c, 0, 82, 0
2, 1987, Note_on_c, 0, 64, 0
2, 1987, Note_on_c, 0, 58, 68
2, 1993, Note_on_c, 0, 80, 70
2, 2009, Note_on_c, 0, 58, 0
2, 2011, Note_on_c, 0, 80, 0
2, 2018, Note_on_c, 0, 79, 61
2, 2032, Note_on_c, 0, 82, 76
2, 2032, Note_on_c, 0, 53, 44
2, 2033, Note_on_c, 0, 79, 0
2, 2035, Control_c, 0, 64, 0
2, 2056, Note_on_c, 0, 82, 0
2, 2061, Note_on_c, 0, 84, 66
2, 2079, Note_on_c, 0, 80, 57
2, 2081, Note_on_c, 0, 84, 0
2, 2084, Note_on_c, 0, 65, 41
2, 2089, Control_c, 0, 64, 127
2, 2100, Note_on_c, 0, 80, 0
2, 2104, Note_on_c, 0, 79, 55
2, 2105, Note_on_c, 0, 65, 0
2, 2122, Note_on_c, 0, 80, 52
2, 2125, Note_on_c, 0, 79, 0
2, 2131, Note_on_c, 0, 60, 19
2, 2156, Note_on_c, 0, 77, 45
2, 2157, Note_on_c, 0, 80, 0
2, 2168, Note_on_c, 0, 60, 0
2, 2171, Note_on_c, 0, 77, 0
2, 2175, Note_on_c, 0, 56, 31
2, 2179, Note_on_c, 0, 76, 57
2, 2185, Control_c, 0, 64, 0
2, 2194, Note_on_c, 0, 76, 0
2, 2204, Note_on_c, 0, 79, 50
2, 2232, Control_c, 0, 64, 127
2, 2233, Note_on_c, 0, 79, 0
2, 2233, Note_on_c, 0, 65, 23
2, 2235, Note_on_c, 0, 77, 50
2, 2248, Note_on_c, 0, 77, 0
2, 2254, Note_on_c, 0, 53, 0
2, 2258, Note_on_c, 0, 76, 52
2, 2271, Note_on_c, 0, 65, 0
2, 2278, Note_on_c, 0, 56, 0
2, 2289, Note_on_c, 0, 61, 36
2, 2290, Note_on_c, 0, 76, 0
2, 2294, Note_on_c, 0, 77, 45
2, 2308, Note_on_c, 0, 77, 0
2, 2308, Note_on_c, 0, 61, 0
2, 2316, Note_on_c, 0, 73, 48
2, 2339, Control_c, 0, 64, 0
2, 2343, Note_on_c, 0, 73, 0
2, 2345, Note_on_c, 0, 72, 60
2, 2346, Note_on_c, 0, 52, 36
2, 2363, Note_on_c, 0, 72, 0
2, 2369, Note_on_c, 0, 73, 49
2, 2381, Control_c, 0, 64, 127
2, 2383, Note_on_c, 0, 52, 0
2, 2390, Note_on_c, 0, 73, 0
2, 2396, Note_on_c, 0, 71, 50
2, 2403, Note_on_c, 0, 67, 50
2, 2409, Note_on_c, 0, 71, 0
2, 2418, Note_on_c, 0, 67, 0
2, 2421, Note_on_c, 0, 72, 62
2, 2437, Note_on_c, 0, 72, 0
2, 2443, Note_on_c, 0, 75, 50
2, 2448, Note_on_c, 0, 60, 35
2, 2463, Note_on_c, 0, 73, 63
2, 2466, Note_on_c, 0, 60, 0
2, 2466, Note_on_c, 0, 75, 0
2, 2478, Note_on_c, 0, 73, 0
2, 2481, Note_on_c, 0, 58, 52
2, 2487, Note_on_c, 0, 72, 64
2, 2503, Note_on_c, 0, 72, 0
2, 2508, Note_on_c, 0, 58, 0
2, 2510, Note_on_c, 0, 73, 53
2, 2526, Note_on_c, 0, 67, 57
2, 2531, Note_on_c, 0, 73, 0
2, 2533, Note_on_c, 0, 71, 48
2, 2538, Note_on_c, 0, 67, 0
2, 2544, Note_on_c, 0, 71, 0
2, 2553, Note_on_c, 0, 72, 76
2, 2567, Note_on_c, 0, 72, 0
2, 2569, Note_on_c, 0, 60, 36
2, 2574, Note_on_c, 0, 78, 68
2, 2584, Note_on_c, 0, 60, 0
2, 2588, Note_on_c, 0, 78, 0
2, 2593, Control_c, 0, 64, 0
2, 2594, Note_on_c, 0, 79, 64
2, 2607, Note_on_c, 0, 53, 56
2, 2615, Note_on_c, 0, 72, 76
2, 2625, Note_on_c, 0, 79, 0
2, 2633, Note_on_c, 0, 72, 0
2, 2635, Control_c, 0, 64, 127
2, 2635, Note_on_c, 0, 73, 72
2, 2641, Note_on_c, 0, 53, 0
2, 2657, Note_on_c, 0, 71, 63
2, 2658, Note_on_c, 0, 73, 0
2, 2665, Note_on_c, 0, 68, 61
2, 2683, Note_on_c, 0, 68, 0
2, 2683, Note_on_c, 0, 72, 67
2, 2684, Note_on_c, 0, 71, 0
2, 2698, Note_on_c, 0, 72, 0
2, 2700, Note_on_c, 0, 75, 62
2, 2708, Note_on_c, 0, 60, 46
2, 2720, Note_on_c, 0, 73, 72
2, 2724, Note_on_c, 0, 60, 0
2, 2731, Note_on_c, 0, 75, 0
2, 2735, Note_on_c, 0, 73, 0
2, 2739, Note_on_c, 0, 72, 74
2, 2745, Note_on_c, 0, 56, 43
2, 2761, Note_on_c, 0, 72, 0
2, 2763, Note_on_c, 0, 73, 72
2, 2785, Note_on_c, 0, 56, 0
2, 2788, Note_on_c, 0, 68, 64
2, 2790, Note_on_c, 0, 71, 56
2, 2791, Note_on_c, 0, 73, 0
2, 2801, Note_on_c, 0, 68, 0
2, 2805, Note_on_c, 0, 71, 0
2, 2812, Note_on_c, 0, 72, 82
2, 2822, Note_on_c, 0, 72, 0
2, 2833, Note_on_c, 0, 60, 49
2, 2836, Note_on_c, 0, 80, 76
2, 2849, Note_on_c, 0, 60, 0
2, 2859, Note_on_c, 0, 77, 77
2, 2865, Note_on_c, 0, 80, 0
2, 2866, Control_c, 0, 64, 0
2, 2871, Note_on_c, 0, 77, 0
2, 2881, Note_on_c, 0, 55, 58
2, 2882, Note_on_c, 0, 75, 70
2, 2896, Note_on_c, 0, 75, 0
2, 2904, Note_on_c, 0, 77, 80
2, 2915, Note_on_c, 0, 55, 0
2, 2919, Control_c, 0, 64, 127
2, 2926, Note_on_c, 0, 75, 73
2, 2933, Note_on_c, 0, 77, 0
2, 2935, Note_on_c, 0, 70, 77
2, 2949, Note_on_c, 0, 74, 81
2, 2950, Note_on_c, 0, 75, 0
2, 2959, Note_on_c, 0, 70, 0
2, 2967, Note_on_c, 0, 74, 0
2, 2971, Note_on_c, 0, 75, 74
2, 2976, Note_on_c, 0, 63, 51
2, 2985, Note_on_c, 0, 75, 0
2, 2989, Note_on_c, 0, 63, 0
2, 3000, Note_on_c, 0, 79, 51
2, 3010, Note_on_c, 0, 61, 48
2, 3018, Note_on_c, 0, 82, 88
2, 3019, Note_on_c, 0, 79, 0
2, 3036, Note_on_c, 0, 82, 0
2, 3041, Note_on_c, 0, 84, 80
2, 3059, Note_on_c, 0, 70, 57
2, 3061, Note_on_c, 0, 84, 0
2, 3061, Note_on_c, 0, 82, 83
2, 3080, Note_on_c, 0, 70, 0
2, 3085, Note_on_c, 0, 82, 0
2, 3090, Note_on_c, 0, 81, 55
2, 3103, Note_on_c, 0, 82, 82
2, 3106, Note_on_c, 0, 81, 0
2, 3110, Note_on_c, 0, 63, 41
2, 3117, Note_on_c, 0, 61, 0
2, 3127, Note_on_c, 0, 82, 0
2, 3127, Note_on_c, 0, 89, 75
2, 3128, Note_on_c, 0, 63, 0
2, 3144, Note_on_c, 0, 89, 0
2, 3150, Note_on_c, 0, 87, 80
2, 3155, Note_on_c, 0, 56, 37
2, 3161, Control_c, 0, 64, 0
2, 3175, Note_on_c, 0, 87, 0
2, 3175, Note_on_c, 0, 89, 77
2, 3192, Note_on_c, 0, 87, 73
2, 3196, Note_on_c, 0, 68, 46
2, 3204, Note_on_c, 0, 89, 0
2, 3219, Note_on_c, 0, 86, 77
2, 3220, Note_on_c, 0, 87, 0
2, 3226, Control_c, 0, 64, 127
2, 3229, Note_on_c, 0, 68, 0
2, 3234, Note_on_c, 0, 86, 0
2, 3239, Note_on_c, 0, 87, 70
2, 3243, Note_on_c, 0, 63, 42
2, 3257, Note_on_c, 0, 87, 0
2, 3262, Note_on_c, 0, 83, 59
2, 3266, Note_on_c, 0, 63, 0
2, 3276, Note_on_c, 0, 83, 0
2, 3286, Note_on_c, 0, 84, 70
2, 3288, Control_c, 0, 64, 0
2, 3292, Note_on_c, 0, 60, 34
2, 3296, Note_on_c, 0, 84, 0
2, 3305, Note_on_c, 0, 85, 69
2, 3312, Note_on_c, 0, 60, 0
2, 3328, Note_on_c, 0, 84, 63
2, 3333, Note_on_c, 0, 68, 41
2, 3336, Note_on_c, 0, 85, 0
2, 3338, Control_c, 0, 64, 127
2, 3342, Note_on_c, 0, 84, 0
2, 3354, Note_on_c, 0, 68, 0
2, 3356, Note_on_c, 0, 83, 52
2, 3370, Note_on_c, 0, 83, 0
2, 3374, Note_on_c, 0, 63, 40
2, 3378, Note_on_c, 0, 84, 66
2, 3382, Note_on_c, 0, 56, 0
2, 3387, Note_on_c, 0, 63, 0
2, 3394, Note_on_c, 0, 84, 0
2, 3405, Note_on_c, 0, 79, 60
2, 3418, Control_c, 0, 64, 0
2, 3419, Note_on_c, 0, 49, 57
2, 3424, Note_on_c, 0, 79, 0
2, 3429, Note_on_c, 0, 80, 61
2, 3448, Note_on_c, 0, 80, 0
2, 3451, Note_on_c, 0, 82, 70
2, 3457, Control_c, 0, 64, 127
2, 3465, Note_on_c, 0, 49, 0
2, 3474, Note_on_c, 0, 80, 59
2, 3483, Note_on_c, 0, 82, 0
2, 3486, Note_on_c, 0, 65, 64
2, 3492, Note_on_c, 0, 80, 0
2, 3499, Note_on_c, 0, 79, 64
2, 3502, Note_on_c, 0, 65, 0
2, 3512, Note_on_c, 0, 79, 0
2, 3520, Note_on_c, 0, 80, 64
2, 3526, Note_on_c, 0, 58, 53
2, 3532, Note_on_c, 0, 80, 0
2, 3542, Note_on_c, 0, 76, 74
2, 3547, Note_on_c, 0, 58, 0
2, 3554, Note_on_c, 0, 76, 0
2, 3562, Note_on_c, 0, 56, 40
2, 3565, Note_on_c, 0, 77, 76
2, 3575, Note_on_c, 0, 77, 0
2, 3583, Note_on_c, 0, 79, 76
2, 3603, Note_on_c, 0, 65, 56
2, 3604, Note_on_c, 0, 77, 70
2, 3612, Note_on_c, 0, 79, 0
2, 3614, Note_on_c, 0, 77, 0
2, 3619, Note_on_c, 0, 65, 0
2, 3624, Note_on_c, 0, 76, 76
2, 3636, Note_on_c, 0, 58, 54
2, 3638, Note_on_c, 0, 76, 0
2, 3640, Note_on_c, 0, 56, 0
2, 3649, Note_on_c, 0, 77, 64
2, 3650, Note_on_c, 0, 58, 0
2, 3665, Note_on_c, 0, 77, 0
2, 3666, Note_on_c, 0, 73, 70
2, 3680, Note_on_c, 0, 51, 41
2, 3682, Note_on_c, 0, 73, 0
2, 3688, Note_on_c, 0, 72, 63
2, 3704, Note_on_c, 0, 72, 0
2, 3705, Note_on_c, 0, 73, 61
2, 3722, Note_on_c, 0, 63, 46
2, 3727, Note_on_c, 0, 70, 70
2, 3734, Note_on_c, 0, 73, 0
2, 3743, Note_on_c, 0, 70, 0
2, 3751, Note_on_c, 0, 67, 74
2, 3753, Note_on_c, 0, 63, 0
2, 3766, Note_on_c, 0, 67, 0
2, 3771, Note_on_c, 0, 60, 38
2, 3772, Note_on_c, 0, 68, 70
2, 3793, Note_on_c, 0, 70, 77
2, 3799, Note_on_c, 0, 68, 0
2, 3804, Note_on_c, 0, 70, 0
2, 3805, Note_on_c, 0, 60, 0
2, 3814, Note_on_c, 0, 72, 82
2, 3820, Note_on_c, 0, 56, 33
2, 3826, Control_c, 0, 64, 0
2, 3830, Note_on_c, 0, 72, 0
2, 3837, Note_on_c, 0, 73, 77
2, 3860, Note_on_c, 0, 75, 74
2, 3861, Note_on_c, 0, 63, 44
2, 3864, Note_on_c, 0, 73, 0
2, 3864, Control_c, 0, 64, 127
2, 3870, Note_on_c, 0, 75, 0
2, 3880, Note_on_c, 0, 77, 81
2, 3891, Note_on_c, 0, 63, 0
2, 3894, Note_on_c, 0, 51, 0
2, 3895, Note_on_c, 0, 77, 0
2, 3903, Note_on_c, 0, 79, 82
2, 3904, Note_on_c, 0, 60, 44
2, 3918, Note_on_c, 0, 56, 0
2, 3921, Note_on_c, 0, 60, 0
2, 3921, Note_on_c, 0, 79, 0
2, 3925, Note_on_c, 0, 80, 77
2, 3941, Note_on_c, 0, 51, 37
2, 3945, Note_on_c, 0, 80, 0
2, 3946, Note_on_c, 0, 79, 78
2, 3949, Control_c, 0, 64, 0
2, 3966, Note_on_c, 0, 80, 72
2, 3970, Note_on_c, 0, 79, 0
2, 3983, Note_on_c, 0, 80, 0
2, 3987, Note_on_c, 0, 63, 45
2, 3988, Note_on_c, 0, 77, 74
2, 3999, Control_c, 0, 64, 127
2, 4006, Note_on_c, 0, 77, 0
2, 4014, Note_on_c, 0, 75, 67
2, 4020, Note_on_c, 0, 63, 0
2, 4026, Note_on_c, 0, 75, 0
2, 4031, Note_on_c, 0, 61, 44
2, 4039, Note_on_c, 0, 77, 59
2, 4058, Note_on_c, 0, 61, 0
2, 4059, Note_on_c, 0, 73, 64
2, 4063, Note_on_c, 0, 77, 0
2, 4072, Control_c, 0, 64, 0
2, 4074, Note_on_c, 0, 73, 0
2, 4080, Note_on_c, 0, 72, 65
2, 4084, Note_on_c, 0, 55, 31
2, 4102, Note_on_c, 0, 73, 61
2, 4104, Note_on_c, 0, 72, 0
2, 4118, Control_c, 0, 64, 127
2, 4122, Note_on_c, 0, 63, 43
2, 4129, Note_on_c, 0, 70, 65
2, 4131, Note_on_c, 0, 73, 0
2, 4140, Note_on_c, 0, 63, 0
2, 4152, Note_on_c, 0, 70, 0
2, 4156, Note_on_c, 0, 72, 66
2, 4164, Note_on_c, 0, 61, 47
2, 4165, Note_on_c, 0, 55, 0
2, 4171, Note_on_c, 0, 72, 0
2, 4173, Note_on_c, 0, 51, 0
2, 4176, Note_on_c, 0, 61, 0
2, 4180, Note_on_c, 0, 65, 51
2, 4196, Note_on_c, 0, 65, 0
2, 4200, Note_on_c, 0, 67, 65
2, 4210, Control_c, 0, 64, 0
2, 4220, Note_on_c, 0, 44, 53
2, 4227, Note_on_c, 0, 68, 69
2, 4228, Note_on_c, 0, 67, 0
2, 4245, Note_on_c, 0, 68, 0
2, 4251, Note_on_c, 0, 70, 70
2, 4256, Control_c, 0, 64, 127
2, 4261, Note_on_c, 0, 44, 0
2, 4269, Note_on_c, 0, 68, 54
2, 4278, Note_on_c, 0, 70, 0
2, 4279, Note_on_c, 0, 60, 64
2, 4288, Note_on_c, 0, 68, 0
2, 4292, Note_on_c, 0, 60, 0
2, 4294, Note_on_c, 0, 67, 60
2, 4309, Note_on_c, 0, 68, 67
2, 4312, Note_on_c, 0, 51, 57
2, 4313, Note_on_c, 0, 67, 0
2, 4326, Note_on_c, 0, 68, 0
2, 4333, Note_on_c, 0, 69, 70
2, 4349, Note_on_c, 0, 69, 0
2, 4350, Note_on_c, 0, 51, 0
2, 4354, Note_on_c, 0, 52, 74
2, 4356, Note_on_c, 0, 70, 73
2, 4371, Note_on_c, 0, 70, 0
2, 4373, Note_on_c, 0, 72, 68
2, 4387, Control_c, 0, 64, 0
2, 4393, Note_on_c, 0, 70, 64
2, 4394, Note_on_c, 0, 72, 0
2, 4405, Note_on_c, 0, 61, 54
2, 4419, Note_on_c, 0, 72, 70
2, 4423, Note_on_c, 0, 70, 0
2, 4429, Control_c, 0, 64, 127
2, 4430, Note_on_c, 0, 61, 0
2, 4441, Note_on_c, 0, 52, 0
2, 4441, Note_on_c, 0, 51, 54
2, 4446, Note_on_c, 0, 72, 0
2, 4448, Note_on_c, 0, 65, 53
2, 4454, Note_on_c, 0, 51, 0
2, 4462, Note_on_c, 0, 65, 0
2, 4463, Note_on_c, 0, 67, 65
2, 4467, Control_c, 0, 64, 0
2, 4479, Note_on_c, 0, 67, 0
2, 4479, Note_on_c, 0, 44, 47
2, 4489, Note_on_c, 0, 68, 54
2, 4503, Note_on_c, 0, 68, 0
2, 4507, Note_on_c, 0, 70, 61
2, 4510, Control_c, 0, 64, 127
2, 4512, Note_on_c, 0, 44, 0
2, 4523, Note_on_c, 0, 68, 53
2, 4528, Note_on_c, 0, 60, 58
2, 4531, Note_on_c, 0, 70, 0
2, 4541, Note_on_c, 0, 60, 0
2, 4548, Note_on_c, 0, 68, 0
2, 4553, Note_on_c, 0, 67, 48
2, 4564, Note_on_c, 0, 68, 70
2, 4566, Note_on_c, 0, 67, 0
2, 4568, Note_on_c, 0, 51, 44
2, 4583, Note_on_c, 0, 68, 0
2, 4593, Note_on_c, 0, 69, 57
2, 4596, Note_on_c, 0, 51, 0
2, 4606, Note_on_c, 0, 69, 0
2, 4612, Note_on_c, 0, 70, 74
2, 4614, Note_on_c, 0, 52, 57
2, 4617, Control_c, 0, 64, 0
2, 4626, Note_on_c, 0, 70, 0
2, 4635, Note_on_c, 0, 72, 54
2, 4654, Note_on_c, 0, 72, 0
2, 4654, Note_on_c, 0, 70, 58
2, 4662, Note_on_c, 0, 61, 44
2, 4667, Control_c, 0, 64, 127
2, 4679, Note_on_c, 0, 61, 0
2, 4680, Note_on_c, 0, 72, 55
2, 4681, Note_on_c, 0, 70, 0
2, 4693, Note_on_c, 0, 52, 0
2, 4695, Note_on_c, 0, 51, 48
2, 4698, Note_on_c, 0, 72, 0
2, 4706, Note_on_c, 0, 65, 43
2, 4708, Note_on_c, 0, 51, 0
2, 4722, Note_on_c, 0, 65, 0
2, 4726, Note_on_c, 0, 67, 50
2, 4736, Control_c, 0, 64, 0
2, 4739, Note_on_c, 0, 44, 35
2, 4741, Note_on_c, 0, 67, 0
2, 4750, Note_on_c, 0, 68, 54
2, 4773, Note_on_c, 0, 68, 0
2, 4779, Note_on_c, 0, 70, 64
2, 4782, Note_on_c, 0, 44, 0
2, 4782, Control_c, 0, 64, 127
2, 4801, Note_on_c, 0, 70, 0
2, 4801, Note_on_c, 0, 68, 50
2, 4803, Note_on_c, 0, 60, 51
2, 4819, Note_on_c, 0, 60, 0
2, 4823, Note_on_c, 0, 68, 0
2, 4833, Note_on_c, 0, 67, 53
2, 4848, Note_on_c, 0, 67, 0
2, 4851, Note_on_c, 0, 51, 50
2, 4860, Note_on_c, 0, 68, 48
2, 4872, Note_on_c, 0, 51, 0
2, 4879, Note_on_c, 0, 68, 0
2, 4885, Note_on_c, 0, 70, 61
2, 4906, Note_on_c, 0, 70, 0
2, 4921, Note_on_c, 0, 48, 50
2, 4925, Note_on_c, 0, 72, 48
2, 4943, Control_c, 0, 64, 0
2, 4948, Note_on_c, 0, 72, 0
2, 4955, Note_on_c, 0, 73, 37
2, 4972, Note_on_c, 0, 55, 49
2, 4980, Note_on_c, 0, 73, 0
2, 4980, Note_on_c, 0, 72, 55
2, 5001, Note_on_c, 0, 72, 0
2, 5013, Note_on_c, 0, 71, 44
2, 5031, Note_on_c, 0, 71, 0
2, 5036, Note_on_c, 0, 58, 42
2, 5043, Note_on_c, 0, 72, 53
2, 5060, Note_on_c, 0, 72, 0
2, 5069, Note_on_c, 0, 73, 49
2, 5088, Note_on_c, 0, 73, 0
2, 5103, Note_on_c, 0, 72, 46
2, 5104, Control_c, 0, 64, 127
2, 5113, Note_on_c, 0, 64, 30
2, 5117, Note_on_c, 0, 48, 0
2, 5118, Note_on_c, 0, 58, 0
2, 5119, Note_on_c, 0, 55, 0
2, 5120, Note_on_c, 0, 72, 0
2, 5128, Note_on_c, 0, 73, 46
2, 5150, Note_on_c, 0, 73, 0
2, 5162, Note_on_c, 0, 72, 47
2, 5178, Note_on_c, 0, 72, 0
2, 5189, Note_on_c, 0, 71, 36
2, 5205, Note_on_c, 0, 71, 0
2, 5214, Note_on_c, 0, 72, 39
2, 5232, Note_on_c, 0, 72, 0
2, 5238, Note_on_c, 0, 73, 53
2, 5252, Note_on_c, 0, 73, 0
2, 5262, Note_on_c, 0, 72, 45
2, 5282, Note_on_c, 0, 72, 0
2, 5283, Note_on_c, 0, 64, 0
2, 5293, Note_on_c, 0, 73, 51
2, 5311, Note_on_c, 0, 73, 0
2, 5326, Note_on_c, 0, 72, 43
2, 5344, Note_on_c, 0, 72, 0
2, 5351, Note_on_c, 0, 73, 54
2, 5370, Note_on_c, 0, 73, 0
2, 5384, Note_on_c, 0, 72, 48
2, 5400, Note_on_c, 0, 72, 0
2, 5411, Note_on_c, 0, 73, 48
2, 5436, Note_on_c, 0, 73, 0
2, 5450, Note_on_c, 0, 52, 41
2, 5451, Control_c, 0, 64, 0
2, 5461, Note_on_c, 0, 72, 47
2, 5485, Note_on_c, 0, 72, 0
2, 5493, Control_c, 0, 64, 127
2, 5497, Note_on_c, 0, 73, 49
2, 5504, Note_on_c, 0, 52, 0
2, 5519, Note_on_c, 0, 73, 0
2, 5532, Note_on_c, 0, 71, 30
2, 5533, Note_on_c, 0, 67, 33
2, 5545, Note_on_c, 0, 71, 0
2, 5552, Note_on_c, 0, 72, 55
2, 5557, Note_on_c, 0, 67, 0
2, 5568, Note_on_c, 0, 72, 0
2, 5582, Note_on_c, 0, 75, 45
2, 5582, Note_on_c, 0, 60, 41
2, 5597, Note_on_c, 0, 60, 0
2, 5599, Note_on_c, 0, 75, 0
2, 5605, Note_on_c, 0, 73, 56
2, 5618, Note_on_c, 0, 73, 0
2, 5624, Note_on_c, 0, 58, 37
2, 5628, Note_on_c, 0, 72, 59
2, 5641, Note_on_c, 0, 72, 0
2, 5648, Note_on_c, 0, 73, 58
2, 5663, Note_on_c, 0, 73, 0
2, 5672, Note_on_c, 0, 67, 45
2, 5677, Note_on_c, 0, 71, 48
2, 5687, Note_on_c, 0, 67, 0
2, 5689, Note_on_c, 0, 71, 0
2, 5691, Note_on_c, 0, 58, 0
2, 5699, Note_on_c, 0, 72, 64
2, 5711, Note_on_c, 0, 72, 0
2, 5714, Note_on_c, 0, 60, 33
2, 5719, Note_on_c, 0, 78, 60
2, 5732, Note_on_c, 0, 60, 0
2, 5742, Note_on_c, 0, 78, 0
2, 5745, Note_on_c, 0, 79, 65
2, 5758, Note_on_c, 0, 79, 0
2, 5761, Note_on_c, 0, 53, 43
2, 5766, Control_c, 0, 64, 0
2, 5770, Note_on_c, 0, 72, 66
2, 5782, Note_on_c, 0, 72, 0
2, 5784, Note_on_c, 0, 73, 68
2, 5808, Note_on_c, 0, 73, 0
2, 5810, Note_on_c, 0, 71, 58
2, 5813, Note_on_c, 0, 68, 54
2, 5834, Note_on_c, 0, 71, 0
2, 5834, Note_on_c, 0, 72, 71
2, 5840, Note_on_c, 0, 68, 0
2, 5849, Note_on_c, 0, 72, 0
2, 5850, Control_c, 0, 64, 127
2, 5854, Note_on_c, 0, 60, 48
2, 5856, Note_on_c, 0, 75, 56
2, 5868, Note_on_c, 0, 60, 0
2, 5873, Note_on_c, 0, 73, 67
2, 5884, Note_on_c, 0, 75, 0
2, 5888, Note_on_c, 0, 73, 0
2, 5899, Note_on_c, 0, 72, 72
2, 5903, Note_on_c, 0, 56, 38
2, 5912, Note_on_c, 0, 72, 0
2, 5919, Control_c, 0, 64, 0
2, 5925, Note_on_c, 0, 73, 70
2, 5943, Note_on_c, 0, 73, 0
2, 5943, Note_on_c, 0, 68, 54
2, 5946, Note_on_c, 0, 53, 0
2, 5949, Note_on_c, 0, 71, 50
2, 5965, Note_on_c, 0, 71, 0
2, 5965, Control_c, 0, 64, 127
2, 5968, Note_on_c, 0, 68, 0
2, 5973, Note_on_c, 0, 72, 76
2, 5982, Note_on_c, 0, 56, 0
2, 5984, Note_on_c, 0, 72, 0
2, 5990, Note_on_c, 0, 60, 42
2, 5995, Note_on_c, 0, 80, 65
2, 6005, Note_on_c, 0, 60, 0
2, 6008, Note_on_c, 0, 80, 0
2, 6017, Note_on_c, 0, 77, 65
2, 6029, Note_on_c, 0, 77, 0
2, 6034, Note_on_c, 0, 55, 53
2, 6038, Control_c, 0, 64, 0
2, 6043, Note_on_c, 0, 76, 71
2, 6052, Note_on_c, 0, 76, 0
2, 6065, Note_on_c, 0, 77, 82
2, 6080, Note_on_c, 0, 70, 61
2, 6090, Note_on_c, 0, 76, 82
2, 6092, Control_c, 0, 64, 127
2, 6095, Note_on_c, 0, 77, 0
2, 6099, Note_on_c, 0, 70, 0
2, 6102, Note_on_c, 0, 76, 0
2, 6109, Note_on_c, 0, 75, 77
2, 6124, Note_on_c, 0, 75, 0
2, 6133, Note_on_c, 0, 64, 44
2, 6136, Note_on_c, 0, 76, 77
2, 6150, Note_on_c, 0, 64, 0
2, 6156, Note_on_c, 0, 79, 79
2, 6159, Note_on_c, 0, 76, 0
2, 6165, Control_c, 0, 64, 0
2, 6174, Note_on_c, 0, 82, 87
2, 6177, Note_on_c, 0, 79, 0
2, 6177, Note_on_c, 0, 61, 37
2, 6199, Note_on_c, 0, 84, 79
2, 6200, Note_on_c, 0, 82, 0
2, 6219, Control_c, 0, 64, 127
2, 6219, Note_on_c, 0, 82, 70
2, 6223, Note_on_c, 0, 55, 0
2, 6229, Note_on_c, 0, 70, 54
2, 6231, Note_on_c, 0, 84, 0
2, 6245, Note_on_c, 0, 82, 0
2, 6246, Note_on_c, 0, 70, 0
2, 6246, Note_on_c, 0, 81, 77
2, 6269, Note_on_c, 0, 82, 63
2, 6271, Note_on_c, 0, 81, 0
2, 6276, Note_on_c, 0, 64, 39
2, 6283, Note_on_c, 0, 61, 0
2, 6290, Note_on_c, 0, 64, 0
2, 6298, Note_on_c, 0, 85, 70
2, 6299, Note_on_c, 0, 82, 0
2, 6310, Note_on_c, 0, 85, 0
2, 6315, Note_on_c, 0, 56, 40
2, 6319, Control_c, 0, 64, 0
2, 6322, Note_on_c, 0, 84, 77
2, 6334, Note_on_c, 0, 84, 0
2, 6346, Note_on_c, 0, 85, 70
2, 6365, Note_on_c, 0, 68, 42
2, 6372, Note_on_c, 0, 84, 75
2, 6373, Note_on_c, 0, 85, 0
2, 6383, Note_on_c, 0, 84, 0
2, 6388, Control_c, 0, 64, 127
2, 6399, Note_on_c, 0, 83, 57
2, 6403, Note_on_c, 0, 68, 0
2, 6412, Note_on_c, 0, 83, 0
2, 6418, Note_on_c, 0, 65, 39
2, 6424, Note_on_c, 0, 84, 76
2, 6435, Note_on_c, 0, 84, 0
2, 6436, Note_on_c, 0, 65, 0
2, 6452, Note_on_c, 0, 79, 57
2, 6465, Note_on_c, 0, 79, 0
2, 6475, Note_on_c, 0, 60, 33
2, 6475, Note_on_c, 0, 80, 56
2, 6480, Control_c, 0, 64, 0
2, 6490, Note_on_c, 0, 80, 0
2, 6498, Note_on_c, 0, 82, 72
2, 6519, Note_on_c, 0, 82, 0
2, 6521, Note_on_c, 0, 68, 44
2, 6522, Note_on_c, 0, 80, 63
2, 6536, Note_on_c, 0, 80, 0
2, 6541, Control_c, 0, 64, 127
2, 6542, Note_on_c, 0, 68, 0
2, 6546, Note_on_c, 0, 56, 0
2, 6550, Note_on_c, 0, 79, 62
2, 6564, Note_on_c, 0, 79, 0
2, 6568, Note_on_c, 0, 60, 0
2, 6573, Note_on_c, 0, 80, 66
2, 6587, Note_on_c, 0, 80, 0
2, 6600, Note_on_c, 0, 76, 60
2, 6613, Note_on_c, 0, 76, 0
2, 6617, Note_on_c, 0, 46, 66
2, 6624, Note_on_c, 0, 77, 72
2, 6636, Note_on_c, 0, 77, 0
2, 6651, Note_on_c, 0, 79, 65
2, 6669, Note_on_c, 0, 61, 47
2, 6670, Note_on_c, 0, 79, 0
2, 6676, Note_on_c, 0, 77, 62
2, 6685, Note_on_c, 0, 61, 0
2, 6687, Note_on_c, 0, 77, 0
2, 6698, Note_on_c, 0, 76, 64
2, 6711, Note_on_c, 0, 76, 0
2, 6712, Note_on_c, 0, 55, 47
2, 6715, Note_on_c, 0, 77, 57
2, 6726, Note_on_c, 0, 77, 0
2, 6731, Note_on_c, 0, 55, 0
2, 6735, Note_on_c, 0, 72, 66
2, 6752, Note_on_c, 0, 53, 48
2, 6753, Control_c, 0, 64, 0
2, 6757, Note_on_c, 0, 72, 0
2, 6759, Note_on_c, 0, 73, 64
2, 6775, Note_on_c, 0, 73, 0
2, 6781, Note_on_c, 0, 75, 60
2, 6783, Note_on_c, 0, 46, 0
2, 6799, Control_c, 0, 64, 127
2, 6800, Note_on_c, 0, 75, 0
2, 6800, Note_on_c, 0, 73, 62
2, 6809, Note_on_c, 0, 61, 56
2, 6824, Note_on_c, 0, 73, 0
2, 6829, Note_on_c, 0, 72, 67
2, 6834, Note_on_c, 0, 53, 0
2, 6844, Note_on_c, 0, 72, 0
2, 6847, Note_on_c, 0, 73, 62
2, 6848, Note_on_c, 0, 61, 0
2, 6853, Note_on_c, 0, 55, 58
2, 6867, Note_on_c, 0, 73, 0
2, 6871, Note_on_c, 0, 71, 56
2, 6886, Note_on_c, 0, 71, 0
2, 6894, Note_on_c, 0, 72, 70
2, 6897, Note_on_c, 0, 48, 58
2, 6900, Note_on_c, 0, 55, 0
2, 6909, Note_on_c, 0, 72, 0
2, 6910, Control_c, 0, 64, 0
2, 6915, Note_on_c, 0, 73, 64
2, 6938, Note_on_c, 0, 72, 60
2, 6943, Note_on_c, 0, 73, 0
2, 6947, Note_on_c, 0, 60, 50
2, 6960, Note_on_c, 0, 72, 0
2, 6967, Note_on_c, 0, 71, 55
2, 6968, Control_c, 0, 64, 127
2, 6981, Note_on_c, 0, 71, 0
2, 6985, Note_on_c, 0, 60, 0
2, 6987, Note_on_c, 0, 72, 62
2, 6988, Note_on_c, 0, 56, 55
2, 7001, Note_on_c, 0, 72, 0
2, 7012, Note_on_c, 0, 67, 63
2, 7027, Note_on_c, 0, 56, 0
2, 7031, Note_on_c, 0, 67, 0
2, 7031, Note_on_c, 0, 53, 43
2, 7033, Control_c, 0, 64, 0
2, 7036, Note_on_c, 0, 68, 59
2, 7040, Note_on_c, 0, 48, 0
2, 7053, Note_on_c, 0, 68, 0
2, 7059, Note_on_c, 0, 70, 55
2, 7078, Note_on_c, 0, 68, 54
2, 7079, Note_on_c, 0, 60, 50
2, 7080, Control_c, 0, 64, 127
2, 7087, Note_on_c, 0, 70, 0
2, 7091, Note_on_c, 0, 53, 0
2, 7101, Note_on_c, 0, 68, 0
2, 7106, Note_on_c, 0, 67, 54
2, 7107, Note_on_c, 0, 60, 0
2, 7124, Note_on_c, 0, 67, 0
2, 7124, Note_on_c, 0, 56, 59
2, 7131, Note_on_c, 0, 68, 54
2, 7140, Note_on_c, 0, 56, 0
2, 7153, Note_on_c, 0, 68, 0
2, 7155, Note_on_c, 0, 65, 56
2, 7160, Control_c, 0, 64, 0
2, 7168, Note_on_c, 0, 48, 56
2, 7169, Note_on_c, 0, 65, 0
2, 7179, Note_on_c, 0, 64, 68
2, 7192, Note_on_c, 0, 64, 0
2, 7207, Note_on_c, 0, 67, 59
2, 7210, Note_on_c, 0, 48, 0
2, 7210, Control_c, 0, 64, 127
2, 7219, Note_on_c, 0, 67, 0
2, 7230, Note_on_c, 0, 70, 74
2, 7240, Note_on_c, 0, 64, 56
2, 7256, Note_on_c, 0, 64, 0
2, 7256, Note_on_c, 0, 73, 70
2, 7259, Note_on_c, 0, 70, 0
2, 7265, Note_on_c, 0, 73, 0
2, 7282, Note_on_c, 0, 76, 74
2, 7288, Note_on_c, 0, 58, 57
2, 7298, Note_on_c, 0, 76, 0
2, 7305, Note_on_c, 0, 79, 73
2, 7312, Note_on_c, 0, 58, 0
2, 7316, Note_on_c, 0, 79, 0
2, 7330, Note_on_c, 0, 82, 80
2, 7336, Note_on_c, 0, 55, 36
2, 7357, Note_on_c, 0, 82, 0
2, 7357, Note_on_c, 0, 85, 63
2, 7373, Note_on_c, 0, 55, 0
2, 7380, Note_on_c, 0, 84, 75
2, 7383, Note_on_c, 0, 64, 45
2, 7394, Note_on_c, 0, 85, 0
2, 7399, Note_on_c, 0, 64, 0
2, 7405, Note_on_c, 0, 82, 74
2, 7410, Note_on_c, 0, 84, 0
2, 7425, Note_on_c, 0, 82, 0
2, 7425, Note_on_c, 0, 58, 58
2, 7426, Note_on_c, 0, 80, 72
2, 7446, Note_on_c, 0, 58, 0
2, 7451, Note_on_c, 0, 80, 0
2, 7452, Control_c, 0, 64, 0
2, 7454, Note_on_c, 0, 79, 62
2, 7467, Note_on_c, 0, 79, 0
2, 7473, Note_on_c, 0, 82, 70
2, 7473, Note_on_c, 0, 53, 35
2, 7495, Note_on_c, 0, 82, 0
2, 7500, Note_on_c, 0, 84, 66
2, 7518, Note_on_c, 0, 84, 0
2, 7520, Note_on_c, 0, 80, 58
2, 7529, Control_c, 0, 64, 127
2, 7529, Note_on_c, 0, 65, 37
2, 7547, Note_on_c, 0, 80, 0
2, 7551, Note_on_c, 0, 79, 48
2, 7560, Note_on_c, 0, 65, 0
2, 7566, Note_on_c, 0, 79, 0
2, 7567, Note_on_c, 0, 80, 53
2, 7577, Note_on_c, 0, 60, 30
2, 7600, Note_on_c, 0, 77, 52
2, 7603, Note_on_c, 0, 80, 0
2, 7605, Note_on_c, 0, 60, 0
2, 7614, Note_on_c, 0, 53, 0
2, 7618, Note_on_c, 0, 77, 0
2, 7626, Note_on_c, 0, 76, 51
2, 7627, Note_on_c, 0, 56, 30
2, 7639, Note_on_c, 0, 76, 0
2, 7648, Note_on_c, 0, 79, 60
2, 7671, Note_on_c, 0, 79, 0
2, 7677, Note_on_c, 0, 77, 59
2, 7687, Note_on_c, 0, 65, 28
2, 7690, Note_on_c, 0, 77, 0
2, 7702, Note_on_c, 0, 76, 60
2, 7708, Note_on_c, 0, 56, 0
2, 7716, Note_on_c, 0, 65, 0
2, 7717, Note_on_c, 0, 76, 0
2, 7731, Note_on_c, 0, 61, 46
2, 7734, Note_on_c, 0, 77, 55
2, 7747, Note_on_c, 0, 61, 0
2, 7753, Note_on_c, 0, 77, 0
2, 7756, Note_on_c, 0, 73, 50
2, 7775, Control_c, 0, 64, 0
2, 7777, Note_on_c, 0, 73, 0
2, 7783, Note_on_c, 0, 72, 62
2, 7788, Note_on_c, 0, 52, 49
2, 7800, Note_on_c, 0, 72, 0
2, 7806, Note_on_c, 0, 73, 59
2, 7825, Control_c, 0, 64, 127
2, 7828, Note_on_c, 0, 73, 0
2, 7831, Note_on_c, 0, 71, 52
2, 7840, Note_on_c, 0, 52, 0
2, 7842, Note_on_c, 0, 67, 44
2, 7847, Note_on_c, 0, 71, 0
2, 7857, Note_on_c, 0, 72, 69
2, 7860, Note_on_c, 0, 67, 0
2, 7872, Note_on_c, 0, 72, 0
2, 7881, Note_on_c, 0, 75, 53
2, 7888, Note_on_c, 0, 60, 37
2, 7897, Note_on_c, 0, 73, 67
2, 7905, Note_on_c, 0, 60, 0
2, 7906, Note_on_c, 0, 75, 0
2, 7913, Note_on_c, 0, 73, 0
2, 7923, Note_on_c, 0, 72, 65
2, 7924, Note_on_c, 0, 58, 51
2, 7942, Note_on_c, 0, 72, 0
2, 7944, Note_on_c, 0, 58, 0
2, 7947, Note_on_c, 0, 73, 58
2, 7967, Note_on_c, 0, 73, 0
2, 7969, Note_on_c, 0, 67, 55
2, 7971, Note_on_c, 0, 71, 44
2, 7981, Note_on_c, 0, 71, 0
2, 7984, Note_on_c, 0, 67, 0
2, 7992, Note_on_c, 0, 72, 77
2, 8005, Note_on_c, 0, 72, 0
2, 8009, Note_on_c, 0, 60, 51
2, 8011, Note_on_c, 0, 78, 69
2, 8024, Note_on_c, 0, 60, 0
2, 8034, Note_on_c, 0, 78, 0
2, 8034, Note_on_c, 0, 79, 70
2, 8050, Note_on_c, 0, 53, 51
2, 8056, Note_on_c, 0, 79, 0
2, 8058, Note_on_c, 0, 72, 76
2, 8074, Note_on_c, 0, 72, 0
2, 8076, Note_on_c, 0, 73, 72
2, 8079, Control_c, 0, 64, 0
2, 8099, Note_on_c, 0, 68, 64
2, 8100, Note_on_c, 0, 71, 63
2, 8101, Note_on_c, 0, 73, 0
2, 8121, Note_on_c, 0, 68, 0
2, 8125, Note_on_c, 0, 72, 79
2, 8128, Control_c, 0, 64, 127
2, 8130, Note_on_c, 0, 71, 0
2, 8145, Note_on_c, 0, 60, 40
2, 8148, Note_on_c, 0, 75, 64
2, 8153, Note_on_c, 0, 72, 0
2, 8155, Note_on_c, 0, 53, 0
2, 8162, Note_on_c, 0, 60, 0
2, 8170, Note_on_c, 0, 73, 73
2, 8178, Note_on_c, 0, 75, 0
2, 8184, Note_on_c, 0, 56, 44
2, 8187, Note_on_c, 0, 73, 0
2, 8192, Note_on_c, 0, 72, 77
2, 8205, Note_on_c, 0, 72, 0
2, 8213, Note_on_c, 0, 73, 68
2, 8224, Note_on_c, 0, 68, 65
2, 8237, Note_on_c, 0, 71, 66
2, 8239, Note_on_c, 0, 68, 0
2, 8241, Note_on_c, 0, 73, 0
2, 8252, Note_on_c, 0, 71, 0
2, 8262, Note_on_c, 0, 56, 0
2, 8262, Note_on_c, 0, 72, 86
2, 8275, Note_on_c, 0, 60, 56
2, 8277, Note_on_c, 0, 72, 0
2, 8284, Note_on_c, 0, 80, 78
2, 8299, Note_on_c, 0, 60, 0
2, 8311, Note_on_c, 0, 77, 87
2, 8323, Note_on_c, 0, 80, 0
2, 8323, Note_on_c, 0, 55, 64
2, 8332, Note_on_c, 0, 75, 80
2, 8334, Note_on_c, 0, 77, 0
2, 8336, Control_c, 0, 64, 0
2, 8354, Note_on_c, 0, 77, 80
2, 8358, Note_on_c, 0, 75, 0
2, 8375, Note_on_c, 0, 70, 64
2, 8375, Note_on_c, 0, 75, 72
2, 8387, Note_on_c, 0, 77, 0
2, 8398, Note_on_c, 0, 74, 84
2, 8400, Note_on_c, 0, 75, 0
2, 8402, Note_on_c, 0, 70, 0
2, 8413, Control_c, 0, 64, 127
2, 8421, Note_on_c, 0, 75, 72
2, 8421, Note_on_c, 0, 63, 53
2, 8422, Note_on_c, 0, 55, 0
2, 8428, Note_on_c, 0, 74, 0
2, 8433, Note_on_c, 0, 75, 0
2, 8444, Note_on_c, 0, 63, 0
2, 8448, Note_on_c, 0, 79, 80
2, 8463, Note_on_c, 0, 79, 0
2, 8466, Note_on_c, 0, 61, 53
2, 8470, Note_on_c, 0, 82, 87
2, 8487, Note_on_c, 0, 82, 0
2, 8490, Note_on_c, 0, 84, 87
2, 8513, Note_on_c, 0, 82, 88
2, 8514, Note_on_c, 0, 70, 68
2, 8518, Note_on_c, 0, 84, 0
2, 8534, Note_on_c, 0, 81, 85
2, 8538, Note_on_c, 0, 82, 0
2, 8541, Note_on_c, 0, 70, 0
2, 8554, Note_on_c, 0, 82, 89
2, 8561, Note_on_c, 0, 63, 55
2, 8562, Note_on_c, 0, 81, 0
2, 8574, Note_on_c, 0, 61, 0
2, 8576, Note_on_c, 0, 63, 0
2, 8577, Note_on_c, 0, 89, 81
2, 8578, Note_on_c, 0, 82, 0
2, 8599, Note_on_c, 0, 87, 89
2, 8600, Note_on_c, 0, 56, 48
2, 8601, Control_c, 0, 64, 0
2, 8602, Note_on_c, 0, 89, 0
2, 8623, Note_on_c, 0, 89, 80
2, 8629, Note_on_c, 0, 87, 0
2, 8648, Note_on_c, 0, 87, 70
2, 8650, Note_on_c, 0, 68, 63
2, 8664, Note_on_c, 0, 89, 0
2, 8670, Note_on_c, 0, 86, 88
2, 8675, Note_on_c, 0, 87, 0
2, 8678, Note_on_c, 0, 68, 0
2, 8682, Control_c, 0, 64, 127
2, 8693, Note_on_c, 0, 87, 77
2, 8697, Note_on_c, 0, 63, 48
2, 8702, Note_on_c, 0, 86, 0
2, 8714, Note_on_c, 0, 63, 0
2, 8715, Note_on_c, 0, 83, 64
2, 8718, Note_on_c, 0, 87, 0
2, 8737, Note_on_c, 0, 84, 85
2, 8739, Note_on_c, 0, 83, 0
2, 8739, Note_on_c, 0, 56, 0
2, 8742, Note_on_c, 0, 60, 37
2, 8753, Note_on_c, 0, 84, 0
2, 8758, Note_on_c, 0, 85, 80
2, 8770, Note_on_c, 0, 60, 0
2, 8781, Note_on_c, 0, 84, 77
2, 8781, Note_on_c, 0, 68, 50
2, 8793, Note_on_c, 0, 85, 0
2, 8797, Note_on_c, 0, 84, 0
2, 8799, Note_on_c, 0, 68, 0
2, 8803, Note_on_c, 0, 83, 68
2, 8823, Note_on_c, 0, 63, 51
2, 8826, Note_on_c, 0, 84, 80
2, 8834, Note_on_c, 0, 63, 0
2, 8834, Note_on_c, 0, 83, 0
2, 8847, Note_on_c, 0, 84, 0
2, 8847, Note_on_c, 0, 79, 71
2, 8858, Control_c, 0, 64, 0
2, 8868, Note_on_c, 0, 49, 61
2, 8873, Note_on_c, 0, 80, 77
2, 8876, Note_on_c, 0, 79, 0
2, 8895, Note_on_c, 0, 82, 84
2, 8900, Note_on_c, 0, 80, 0
2, 8904, Control_c, 0, 64, 127
2, 8908, Note_on_c, 0, 49, 0
2, 8916, Note_on_c, 0, 80, 74
2, 8924, Note_on_c, 0, 82, 0
2, 8929, Note_on_c, 0, 65, 61
2, 8941, Note_on_c, 0, 79, 70
2, 8944, Note_on_c, 0, 80, 0
2, 8945, Note_on_c, 0, 65, 0
2, 8961, Note_on_c, 0, 80, 71
2, 8965, Note_on_c, 0, 79, 0
2, 8968, Note_on_c, 0, 58, 61
2, 8980, Note_on_c, 0, 80, 0
2, 8984, Note_on_c, 0, 76, 68
2, 8991, Note_on_c, 0, 58, 0
2, 9003, Note_on_c, 0, 76, 0
2, 9009, Note_on_c, 0, 77, 72
2, 9013, Note_on_c, 0, 56, 37
2, 9021, Note_on_c, 0, 77, 0
2, 9029, Note_on_c, 0, 79, 70
2, 9051, Note_on_c, 0, 79, 0
2, 9051, Note_on_c, 0, 77, 71
2, 9055, Note_on_c, 0, 65, 44
2, 9066, Note_on_c, 0, 77, 0
2, 9072, Note_on_c, 0, 65, 0
2, 9077, Note_on_c, 0, 76, 66
2, 9090, Note_on_c, 0, 58, 57
2, 9095, Note_on_c, 0, 76, 0
2, 9100, Note_on_c, 0, 56, 0
2, 9105, Note_on_c, 0, 58, 0
2, 9105, Note_on_c, 0, 77, 59
2, 9120, Note_on_c, 0, 77, 0
2, 9126, Note_on_c, 0, 73, 63
2, 9143, Note_on_c, 0, 51, 37
2, 9144, Note_on_c, 0, 73, 0
2, 9148, Note_on_c, 0, 72, 67
2, 9167, Note_on_c, 0, 73, 54
2, 9168, Note_on_c, 0, 72, 0
2, 9187, Note_on_c, 0, 63, 40
2, 9189, Note_on_c, 0, 70, 69
2, 9197, Note_on_c, 0, 73, 0
2, 9208, Control_c, 0, 64, 0
2, 9211, Note_on_c, 0, 70, 0
2, 9215, Note_on_c, 0, 67, 72
2, 9228, Note_on_c, 0, 63, 0
2, 9233, Note_on_c, 0, 60, 48
2, 9238, Note_on_c, 0, 67, 0
2, 9238, Note_on_c, 0, 68, 68
2, 9254, Note_on_c, 0, 60, 0
2, 9258, Note_on_c, 0, 70, 77
2, 9262, Control_c, 0, 64, 127
2, 9265, Note_on_c, 0, 68, 0
2, 9269, Note_on_c, 0, 70, 0
2, 9280, Note_on_c, 0, 56, 30
2, 9283, Note_on_c, 0, 72, 73
2, 9295, Note_on_c, 0, 72, 0
2, 9303, Note_on_c, 0, 73, 73
2, 9305, Note_on_c, 0, 56, 0
2, 9325, Note_on_c, 0, 75, 70
2, 9328, Note_on_c, 0, 63, 39
2, 9334, Note_on_c, 0, 73, 0
2, 9336, Note_on_c, 0, 75, 0
2, 9347, Note_on_c, 0, 51, 0
2, 9348, Note_on_c, 0, 77, 70
2, 9349, Note_on_c, 0, 63, 0
2, 9358, Note_on_c, 0, 77, 0
2, 9370, Note_on_c, 0, 79, 77
2, 9376, Note_on_c, 0, 60, 37
2, 9382, Note_on_c, 0, 79, 0
2, 9390, Note_on_c, 0, 80, 68
2, 9392, Note_on_c, 0, 60, 0
2, 9407, Note_on_c, 0, 80, 0
2, 9414, Note_on_c, 0, 79, 76
2, 9415, Note_on_c, 0, 51, 39
2, 9419, Control_c, 0, 64, 0
2, 9426, Note_on_c, 0, 79, 0
2, 9438, Note_on_c, 0, 80, 68
2, 9451, Note_on_c, 0, 80, 0
2, 9460, Note_on_c, 0, 77, 72
2, 9461, Note_on_c, 0, 63, 44
2, 9465, Control_c, 0, 64, 127
2, 9475, Note_on_c, 0, 77, 0
2, 9485, Note_on_c, 0, 75, 58
2, 9491, Note_on_c, 0, 63, 0
2, 9506, Note_on_c, 0, 75, 0
2, 9507, Note_on_c, 0, 77, 57
2, 9508, Note_on_c, 0, 61, 37
2, 9526, Note_on_c, 0, 61, 0
2, 9530, Note_on_c, 0, 73, 59
2, 9533, Note_on_c, 0, 77, 0
2, 9543, Note_on_c, 0, 73, 0
2, 9551, Note_on_c, 0, 72, 61
2, 9562, Note_on_c, 0, 55, 33
2, 9569, Control_c, 0, 64, 0
2, 9570, Note_on_c, 0, 73, 50
2, 9574, Note_on_c, 0, 72, 0
2, 9598, Note_on_c, 0, 73, 0
2, 9599, Note_on_c, 0, 70, 55
2, 9603, Note_on_c, 0, 63, 42
2, 9611, Control_c, 0, 64, 127
2, 9618, Note_on_c, 0, 70, 0
2, 9621, Note_on_c, 0, 63, 0
2, 9622, Note_on_c, 0, 72, 66
2, 9627, Note_on_c, 0, 51, 0
2, 9634, Note_on_c, 0, 55, 0
2, 9641, Note_on_c, 0, 72, 0
2, 9649, Note_on_c, 0, 61, 40
2, 9652, Note_on_c, 0, 65, 32
2, 9662, Note_on_c, 0, 61, 0
2, 9667, Note_on_c, 0, 67, 55
2, 9669, Note_on_c, 0, 65, 0
2, 9684, Note_on_c, 0, 67, 0
2, 9696, Control_c, 0, 64, 0
2, 9697, Note_on_c, 0, 68, 57
2, 9697, Note_on_c, 0, 44, 54
2, 9716, Note_on_c, 0, 68, 0
2, 9723, Note_on_c, 0, 70, 71
2, 9734, Control_c, 0, 64, 127
2, 9737, Note_on_c, 0, 44, 0
2, 9741, Note_on_c, 0, 68, 52
2, 9742, Note_on_c, 0, 70, 0
2, 9754, Note_on_c, 0, 60, 60
2, 9760, Note_on_c, 0, 68, 0
2, 9762, Note_on_c, 0, 67, 61
2, 9767, Note_on_c, 0, 60, 0
2, 9779, Note_on_c, 0, 67, 0
2, 9783, Note_on_c, 0, 68, 63
2, 9783, Note_on_c, 0, 51, 71
2, 9796, Note_on_c, 0, 68, 0
2, 9807, Note_on_c, 0, 69, 72
2, 9813, Note_on_c, 0, 51, 0
2, 9820, Note_on_c, 0, 69, 0
2, 9823, Note_on_c, 0, 52, 87
2, 9829, Note_on_c, 0, 70, 85
2, 9830, Control_c, 0, 64, 0
2, 9845, Note_on_c, 0, 70, 0
2, 9853, Note_on_c, 0, 72, 51
2, 9868, Note_on_c, 0, 72, 0
2, 9868, Note_on_c, 0, 70, 77
2, 9876, Note_on_c, 0, 61, 64
2, 9884, Control_c, 0, 64, 127
2, 9888, Note_on_c, 0, 72, 73
2, 9895, Note_on_c, 0, 52, 0
2, 9898, Note_on_c, 0, 70, 0
2, 9898, Note_on_c, 0, 61, 0
2, 9912, Note_on_c, 0, 65, 59
2, 9913, Note_on_c, 0, 72, 0
2, 9915, Note_on_c, 0, 51, 62
2, 9927, Note_on_c, 0, 51, 0
2, 9931, Note_on_c, 0, 65, 0
2, 9931, Note_on_c, 0, 67, 62
2, 9942, Control_c, 0, 64, 0
2, 9946, Note_on_c, 0, 67, 0
2, 9946, Note_on_c, 0, 44, 81
2, 9947, Note_on_c, 0, 68, 79
2, 9964, Note_on_c, 0, 68, 0
2, 9973, Note_on_c, 0, 70, 73
2, 9979, Note_on_c, 0, 44, 0
2, 9984, Control_c, 0, 64, 127
2, 9987, Note_on_c, 0, 68, 71
2, 9994, Note_on_c, 0, 60, 82
2, 9997, Note_on_c, 0, 70, 0
2, 10007, Note_on_c, 0, 60, 0
2, 10013, Note_on_c, 0, 68, 0
2, 10015, Note_on_c, 0, 67, 69
2, 10028, Note_on_c, 0, 51, 82
2, 10029, Note_on_c, 0, 68, 83
2, 10030, Note_on_c, 0, 67, 0
2, 10049, Note_on_c, 0, 68, 0
2, 10054, Note_on_c, 0, 69, 80
2, 10065, Control_c, 0, 64, 0
2, 10067, Note_on_c, 0, 69, 0
2, 10073, Note_on_c, 0, 52, 92
2, 10079, Note_on_c, 0, 70, 87
2, 10080, Note_on_c, 0, 51, 0
2, 10095, Note_on_c, 0, 70, 0
2, 10102, Note_on_c, 0, 72, 65
2, 10116, Note_on_c, 0, 72, 0
2, 10120, Note_on_c, 0, 70, 78
2, 10123, Note_on_c, 0, 61, 73
2, 10141, Control_c, 0, 64, 127
2, 10144, Note_on_c, 0, 72, 73
2, 10150, Note_on_c, 0, 70, 0
2, 10151, Note_on_c, 0, 61, 0
2, 10164, Note_on_c, 0, 51, 69
2, 10165, Note_on_c, 0, 52, 0
2, 10170, Note_on_c, 0, 65, 56
2, 10171, Note_on_c, 0, 72, 0
2, 10191, Note_on_c, 0, 67, 59
2, 10196, Note_on_c, 0, 65, 0
2, 10199, Control_c, 0, 64, 0
2, 10202, Note_on_c, 0, 44, 74
2, 10206, Note_on_c, 0, 51, 0
2, 10209, Note_on_c, 0, 67, 0
2, 10211, Note_on_c, 0, 68, 67
2, 10228, Note_on_c, 0, 68, 0
2, 10235, Note_on_c, 0, 70, 84
2, 10239, Note_on_c, 0, 44, 0
2, 10245, Control_c, 0, 64, 127
2, 10255, Note_on_c, 0, 60, 79
2, 10257, Note_on_c, 0, 68, 76
2, 10268, Note_on_c, 0, 70, 0
2, 10270, Note_on_c, 0, 60, 0
2, 10279, Note_on_c, 0, 67, 83
2, 10280, Note_on_c, 0, 68, 0
2, 10291, Note_on_c, 0, 51, 79
2, 10297, Note_on_c, 0, 67, 0
2, 10299, Note_on_c, 0, 68, 80
2, 10301, Note_on_c, 0, 51, 0
2, 10323, Note_on_c, 0, 70, 88
2, 10326, Note_on_c, 0, 68, 0
2, 10330, Control_c, 0, 64, 0
2, 10332, Note_on_c, 0, 42, 98
2, 10344, Note_on_c, 0, 70, 0
2, 10351, Note_on_c, 0, 72, 94
2, 10363, Note_on_c, 0, 72, 0
2, 10372, Note_on_c, 0, 42, 0
2, 10374, Note_on_c, 0, 73, 80
2, 10376, Control_c, 0, 64, 127
2, 10399, Note_on_c, 0, 72, 92
2, 10404, Note_on_c, 0, 63, 83
2, 10405, Note_on_c, 0, 73, 0
2, 10422, Note_on_c, 0, 72, 0
2, 10423, Note_on_c, 0, 71, 76
2, 10437, Note_on_c, 0, 71, 0
2, 10442, Note_on_c, 0, 72, 94
2, 10444, Note_on_c, 0, 63, 0
2, 10447, Note_on_c, 0, 58, 83
2, 10467, Note_on_c, 0, 73, 90
2, 10471, Note_on_c, 0, 72, 0
2, 10483, Note_on_c, 0, 58, 0
2, 10483, Note_on_c, 0, 54, 75
2, 10491, Note_on_c, 0, 75, 76
2, 10494, Note_on_c, 0, 73, 0
2, 10510, Control_c, 0, 64, 0
2, 10515, Note_on_c, 0, 77, 87
2, 10517, Note_on_c, 0, 75, 0
2, 10537, Note_on_c, 0, 77, 0
2, 10537, Note_on_c, 0, 75, 74
2, 10540, Note_on_c, 0, 63, 62
2, 10560, Control_c, 0, 64, 127
2, 10564, Note_on_c, 0, 77, 73
2, 10569, Note_on_c, 0, 63, 0
2, 10569, Note_on_c, 0, 75, 0
2, 10581, Note_on_c, 0, 58, 82
2, 10586, Note_on_c, 0, 75, 71
2, 10593, Note_on_c, 0, 77, 0
2, 10597, Note_on_c, 0, 58, 0
2, 10604, Note_on_c, 0, 54, 0
2, 10612, Note_on_c, 0, 73, 76
2, 10614, Note_on_c, 0, 75, 0
2, 10630, Note_on_c, 0, 53, 51
2, 10633, Note_on_c, 0, 73, 0
2, 10633, Control_c, 0, 64, 0
2, 10637, Note_on_c, 0, 72, 75
2, 10654, Note_on_c, 0, 72, 0
2, 10659, Note_on_c, 0, 73, 58
2, 10674, Note_on_c, 0, 63, 53
2, 10681, Note_on_c, 0, 73, 0
2, 10681, Note_on_c, 0, 72, 69
2, 10691, Control_c, 0, 64, 127
2, 10698, Note_on_c, 0, 63, 0
2, 10706, Note_on_c, 0, 72, 0
2, 10708, Note_on_c, 0, 53, 0
2, 10716, Note_on_c, 0, 73, 75
2, 10731, Note_on_c, 0, 73, 0
2, 10737, Note_on_c, 0, 57, 37
2, 10748, Note_on_c, 0, 67, 61
2, 10749, Note_on_c, 0, 57, 0
2, 10771, Note_on_c, 0, 69, 63
2, 10773, Note_on_c, 0, 67, 0
2, 10792, Note_on_c, 0, 69, 0
2, 10793, Note_on_c, 0, 46, 73
2, 10796, Note_on_c, 0, 70, 80
2, 10814, Control_c, 0, 64, 0
2, 10825, Note_on_c, 0, 70, 0
2, 10827, Note_on_c, 0, 72, 73
2, 10846, Note_on_c, 0, 72, 0
2, 10846, Note_on_c, 0, 70, 62
2, 10852, Note_on_c, 0, 61, 60
2, 10864, Note_on_c, 0, 61, 0
2, 10867, Control_c, 0, 64, 127
2, 10874, Note_on_c, 0, 70, 0
2, 10877, Note_on_c, 0, 69, 57
2, 10883, Note_on_c, 0, 46, 0
2, 10890, Note_on_c, 0, 70, 85
2, 10892, Note_on_c, 0, 69, 0
2, 10908, Note_on_c, 0, 53, 58
2, 10915, Note_on_c, 0, 70, 0
2, 10920, Note_on_c, 0, 71, 57
2, 10932, Note_on_c, 0, 71, 0
2, 10941, Note_on_c, 0, 72, 82
2, 10945, Note_on_c, 0, 53, 0
2, 10945, Note_on_c, 0, 54, 76
2, 10948, Control_c, 0, 64, 0
2, 10957, Note_on_c, 0, 72, 0
2, 10962, Note_on_c, 0, 73, 72
2, 10989, Note_on_c, 0, 72, 74
2, 10992, Note_on_c, 0, 73, 0
2, 11003, Note_on_c, 0, 63, 59
2, 11004, Note_on_c, 0, 72, 0
2, 11013, Note_on_c, 0, 73, 72
2, 11014, Control_c, 0, 64, 127
2, 11018, Note_on_c, 0, 63, 0
2, 11034, Note_on_c, 0, 73, 0
2, 11034, Note_on_c, 0, 54, 0
2, 11037, Note_on_c, 0, 67, 75
2, 11048, Note_on_c, 0, 53, 52
2, 11054, Note_on_c, 0, 67, 0
2, 11059, Note_on_c, 0, 69, 72
2, 11062, Note_on_c, 0, 53, 0
2, 11073, Note_on_c, 0, 69, 0
2, 11080, Note_on_c, 0, 70, 89
2, 11087, Note_on_c, 0, 46, 79
2, 11094, Control_c, 0, 64, 0
2, 11107, Note_on_c, 0, 70, 0
2, 11107, Note_on_c, 0, 72, 84
2, 11127, Note_on_c, 0, 70, 73
2, 11129, Control_c, 0, 64, 127
2, 11132, Note_on_c, 0, 46, 0
2, 11134, Note_on_c, 0, 72, 0
2, 11142, Note_on_c, 0, 61, 71
2, 11152, Note_on_c, 0, 70, 0
2, 11154, Note_on_c, 0, 69, 69
2, 11166, Note_on_c, 0, 70, 92
2, 11168, Note_on_c, 0, 69, 0
2, 11176, Note_on_c, 0, 61, 0
2, 11178, Note_on_c, 0, 53, 83
2, 11191, Note_on_c, 0, 70, 0
2, 11194, Note_on_c, 0, 71, 61
2, 11208, Note_on_c, 0, 71, 0
2, 11214, Note_on_c, 0, 72, 95
2, 11216, Note_on_c, 0, 53, 0
2, 11218, Note_on_c, 0, 54, 85
2, 11229, Control_c, 0, 64, 0
2, 11233, Note_on_c, 0, 72, 0
2, 11237, Note_on_c, 0, 73, 77
2, 11259, Note_on_c, 0, 72, 85
2, 11265, Note_on_c, 0, 73, 0
2, 11273, Note_on_c, 0, 63, 79
2, 11278, Note_on_c, 0, 72, 0
2, 11279, Control_c, 0, 64, 127
2, 11284, Note_on_c, 0, 73, 81
2, 11290, Note_on_c, 0, 54, 0
2, 11303, Note_on_c, 0, 63, 0
2, 11309, Note_on_c, 0, 67, 81
2, 11314, Note_on_c, 0, 73, 0
2, 11315, Note_on_c, 0, 53, 84
2, 11325, Note_on_c, 0, 53, 0
2, 11331, Note_on_c, 0, 69, 84
2, 11339, Note_on_c, 0, 67, 0
2, 11355, Note_on_c, 0, 70, 90
2, 11358, Note_on_c, 0, 46, 101
2, 11359, Note_on_c, 0, 69, 0
2, 11371, Control_c, 0, 64, 0
2, 11377, Note_on_c, 0, 72, 93
2, 11380, Note_on_c, 0, 70, 0
2, 11399, Note_on_c, 0, 70, 85
2, 11401, Note_on_c, 0, 61, 88
2, 11407, Note_on_c, 0, 46, 0
2, 11408, Note_on_c, 0, 72, 0
2, 11417, Control_c, 0, 64, 127
2, 11424, Note_on_c, 0, 70, 0
2, 11425, Note_on_c, 0, 69, 86
2, 11427, Note_on_c, 0, 61, 0
2, 11443, Note_on_c, 0, 70, 84
2, 11446, Note_on_c, 0, 53, 74
2, 11451, Note_on_c, 0, 69, 0
2, 11456, Note_on_c, 0, 53, 0
2, 11460, Note_on_c, 0, 70, 0
2, 11466, Note_on_c, 0, 72, 95
2, 11479, Control_c, 0, 64, 0
2, 11485, Note_on_c, 0, 44, 96
2, 11490, Note_on_c, 0, 74, 98
2, 11495, Note_on_c, 0, 72, 0
2, 11512, Note_on_c, 0, 75, 91
2, 11515, Note_on_c, 0, 74, 0
2, 11519, Note_on_c, 0, 44, 0
2, 11521, Control_c, 0, 64, 127
2, 11535, Note_on_c, 0, 74, 92
2, 11535, Note_on_c, 0, 60, 89
2, 11548, Note_on_c, 0, 75, 0
2, 11556, Note_on_c, 0, 73, 91
2, 11560, Note_on_c, 0, 74, 0
2, 11567, Note_on_c, 0, 60, 0
2, 11577, Note_on_c, 0, 73, 0
2, 11578, Note_on_c, 0, 74, 90
2, 11581, Note_on_c, 0, 53, 87
2, 11604, Note_on_c, 0, 75, 90
2, 11605, Note_on_c, 0, 74, 0
2, 11625, Note_on_c, 0, 53, 0
2, 11628, Note_on_c, 0, 50, 95
2, 11630, Note_on_c, 0, 77, 100
2, 11631, Note_on_c, 0, 75, 0
2, 11636, Control_c, 0, 64, 0
2, 11655, Note_on_c, 0, 77, 0
2, 11655, Note_on_c, 0, 79, 94
2, 11680, Note_on_c, 0, 60, 68
2, 11682, Note_on_c, 0, 79, 0
2, 11682, Control_c, 0, 64, 127
2, 11683, Note_on_c, 0, 77, 81
2, 11700, Note_on_c, 0, 60, 0
2, 11707, Note_on_c, 0, 79, 83
2, 11712, Note_on_c, 0, 77, 0
2, 11724, Note_on_c, 0, 53, 70
2, 11725, Note_on_c, 0, 50, 0
2, 11730, Note_on_c, 0, 77, 88
2, 11734, Note_on_c, 0, 53, 0
2, 11739, Note_on_c, 0, 79, 0
2, 11754, Note_on_c, 0, 75, 80
2, 11756, Note_on_c, 0, 77, 0
2, 11767, Control_c, 0, 64, 0
2, 11769, Note_on_c, 0, 43, 88
2, 11775, Note_on_c, 0, 75, 0
2, 11778, Note_on_c, 0, 74, 81
2, 11790, Note_on_c, 0, 74, 0
2, 11795, Note_on_c, 0, 75, 72
2, 11801, Note_on_c, 0, 43, 0
2, 11805, Control_c, 0, 64, 127
2, 11818, Note_on_c, 0, 74, 83
2, 11821, Note_on_c, 0, 75, 0
2, 11821, Note_on_c, 0, 59, 66
2, 11836, Note_on_c, 0, 59, 0
2, 11836, Note_on_c, 0, 74, 0
2, 11841, Note_on_c, 0, 75, 83
2, 11859, Note_on_c, 0, 75, 0
2, 11861, Note_on_c, 0, 69, 88
2, 11862, Note_on_c, 0, 53, 76
2, 11876, Note_on_c, 0, 53, 0
2, 11883, Note_on_c, 0, 69, 0
2, 11886, Control_c, 0, 64, 0
2, 11886, Note_on_c, 0, 71, 74
2, 11894, Note_on_c, 0, 48, 83
2, 11907, Note_on_c, 0, 72, 94
2, 11913, Note_on_c, 0, 71, 0
2, 11928, Note_on_c, 0, 72, 0
2, 11929, Note_on_c, 0, 73, 86
2, 11935, Control_c, 0, 64, 127
2, 11942, Note_on_c, 0, 48, 0
2, 11953, Note_on_c, 0, 72, 91
2, 11967, Note_on_c, 0, 64, 68
2, 11968, Note_on_c, 0, 73, 0
2, 11981, Note_on_c, 0, 71, 78
2, 11984, Note_on_c, 0, 72, 0
2, 11997, Note_on_c, 0, 71, 0
2, 11998, Note_on_c, 0, 64, 0
2, 12005, Note_on_c, 0, 72, 88
2, 12010, Note_on_c, 0, 58, 84
2, 12028, Note_on_c, 0, 58, 0
2, 12033, Note_on_c, 0, 72, 0
2, 12035, Note_on_c, 0, 79, 95
2, 12055, Note_on_c, 0, 56, 60
2, 12058, Control_c, 0, 64, 0
2, 12059, Note_on_c, 0, 80, 93
2, 12061, Note_on_c, 0, 79, 0
2, 12085, Note_on_c, 0, 82, 99
2, 12090, Note_on_c, 0, 80, 0
2, 12108, Note_on_c, 0, 65, 69
2, 12108, Note_on_c, 0, 80, 81
2, 12112, Control_c, 0, 64, 127
2, 12121, Note_on_c, 0, 82, 0
2, 12123, Note_on_c, 0, 65, 0
2, 12128, Note_on_c, 0, 56, 0
2, 12134, Note_on_c, 0, 79, 93
2, 12138, Note_on_c, 0, 80, 0
2, 12155, Note_on_c, 0, 80, 81
2, 12156, Note_on_c, 0, 60, 54
2, 12165, Note_on_c, 0, 79, 0
2, 12169, Note_on_c, 0, 60, 0
2, 12177, Note_on_c, 0, 80, 0
2, 12179, Note_on_c, 0, 76, 87
2, 12201, Note_on_c, 0, 48, 72
2, 12202, Note_on_c, 0, 76, 0
2, 12209, Note_on_c, 0, 77, 87
2, 12229, Note_on_c, 0, 77, 0
2, 12231, Note_on_c, 0, 79, 88
2, 12255, Control_c, 0, 64, 0
2, 12255, Note_on_c, 0, 77, 72
2, 12259, Note_on_c, 0, 61, 61
2, 12262, Note_on_c, 0, 79, 0
2, 12276, Note_on_c, 0, 75, 76
2, 12283, Note_on_c, 0, 77, 0
2, 12298, Control_c, 0, 64, 127
2, 12298, Note_on_c, 0, 73, 76
2, 12304, Note_on_c, 0, 61, 0
2, 12308, Note_on_c, 0, 75, 0
2, 12309, Note_on_c, 0, 56, 52
2, 12316, Note_on_c, 0, 73, 0
2, 12318, Note_on_c, 0, 48, 0
2, 12319, Note_on_c, 0, 72, 73
2, 12334, Note_on_c, 0, 72, 0
2, 12337, Note_on_c, 0, 70, 92
2, 12346, Note_on_c, 0, 56, 0
2, 12349, Note_on_c, 0, 53, 44
2, 12360, Note_on_c, 0, 68, 70
2, 12367, Note_on_c, 0, 70, 0
2, 12381, Note_on_c, 0, 67, 79
2, 12392, Note_on_c, 0, 68, 0
2, 12396, Note_on_c, 0, 61, 58
2, 12397, Note_on_c, 0, 67, 0
2, 12403, Note_on_c, 0, 65, 83
2, 12415, Note_on_c, 0, 53, 0
2, 12424, Note_on_c, 0, 65, 0
2, 12424, Note_on_c, 0, 61, 0
2, 12425, Note_on_c, 0, 67, 77
2, 12430, Note_on_c, 0, 56, 52
2, 12443, Note_on_c, 0, 56, 0
2, 12451, Note_on_c, 0, 67, 0
2, 12451, Note_on_c, 0, 68, 81
2, 12454, Control_c, 0, 64, 0
2, 12462, Note_on_c, 0, 68, 0
2, 12467, Note_on_c, 0, 48, 67
2, 12481, Note_on_c, 0, 67, 47
2, 12495, Note_on_c, 0, 67, 0
2, 12496, Control_c, 0, 64, 127
2, 12501, Note_on_c, 0, 73, 68
2, 12504, Note_on_c, 0, 48, 0
2, 12515, Note_on_c, 0, 73, 0
2, 12520, Note_on_c, 0, 72, 73
2, 12529, Note_on_c, 0, 64, 50
2, 12535, Note_on_c, 0, 72, 0
2, 12547, Note_on_c, 0, 71, 47
2, 12553, Note_on_c, 0, 64, 0
2, 12556, Note_on_c, 0, 71, 0
2, 12568, Note_on_c, 0, 72, 72
2, 12570, Note_on_c, 0, 58, 56
2, 12581, Note_on_c, 0, 72, 0
2, 12593, Note_on_c, 0, 58, 0
2, 12598, Note_on_c, 0, 79, 72
2, 12609, Note_on_c, 0, 79, 0
2, 12612, Note_on_c, 0, 56, 33
2, 12625, Note_on_c, 0, 80, 60
2, 12625, Control_c, 0, 64, 0
2, 12640, Note_on_c, 0, 80, 0
2, 12650, Note_on_c, 0, 82, 68
2, 12664, Note_on_c, 0, 65, 49
2, 12670, Control_c, 0, 64, 127
2, 12673, Note_on_c, 0, 82, 0
2, 12673, Note_on_c, 0, 80, 47
2, 12681, Note_on_c, 0, 65, 0
2, 12688, Note_on_c, 0, 80, 0
2, 12694, Note_on_c, 0, 56, 0
2, 12696, Note_on_c, 0, 79, 55
2, 12710, Note_on_c, 0, 79, 0
2, 12718, Note_on_c, 0, 60, 30
2, 12718, Note_on_c, 0, 80, 48
2, 12738, Note_on_c, 0, 60, 0
2, 12740, Note_on_c, 0, 80, 0
2, 12750, Note_on_c, 0, 76, 50
2, 12763, Note_on_c, 0, 76, 0
2, 12774, Note_on_c, 0, 48, 43
2, 12776, Note_on_c, 0, 77, 57
2, 12790, Note_on_c, 0, 77, 0
2, 12798, Note_on_c, 0, 79, 57
2, 12815, Note_on_c, 0, 79, 0
2, 12826, Note_on_c, 0, 61, 47
2, 12828, Note_on_c, 0, 77, 47
2, 12842, Note_on_c, 0, 77, 0
2, 12847, Note_on_c, 0, 75, 49
2, 12856, Note_on_c, 0, 61, 0
2, 12866, Note_on_c, 0, 75, 0
2, 12867, Note_on_c, 0, 48, 0
2, 12871, Note_on_c, 0, 73, 54
2, 12873, Note_on_c, 0, 56, 48
2, 12885, Note_on_c, 0, 73, 0
2, 12893, Note_on_c, 0, 56, 0
2, 12897, Note_on_c, 0, 72, 53
2, 12911, Note_on_c, 0, 72, 0
2, 12915, Note_on_c, 0, 70, 73
2, 12919, Note_on_c, 0, 53, 36
2, 12937, Note_on_c, 0, 68, 54
2, 12947, Note_on_c, 0, 70, 0
2, 12960, Note_on_c, 0, 61, 39
2, 12961, Note_on_c, 0, 67, 64
2, 12968, Note_on_c, 0, 53, 0
2, 12971, Note_on_c, 0, 68, 0
2, 12974, Note_on_c, 0, 67, 0
2, 12979, Note_on_c, 0, 61, 0
2, 12984, Note_on_c, 0, 65, 58
2, 12993, Note_on_c, 0, 56, 52
2, 13003, Note_on_c, 0, 65, 0
2, 13005, Note_on_c, 0, 67, 58
2, 13009, Note_on_c, 0, 56, 0
2, 13023, Note_on_c, 0, 67, 0
2, 13029, Note_on_c, 0, 68, 71
2, 13040, Note_on_c, 0, 68, 0
2, 13047, Note_on_c, 0, 48, 48
2, 13057, Note_on_c, 0, 67, 73
2, 13071, Note_on_c, 0, 67, 0
2, 13077, Control_c, 0, 64, 0
2, 13084, Note_on_c, 0, 79, 85
2, 13104, Note_on_c, 0, 64, 38
2, 13110, Note_on_c, 0, 77, 76
2, 13112, Note_on_c, 0, 79, 0
2, 13123, Control_c, 0, 64, 127
2, 13131, Note_on_c, 0, 76, 80
2, 13136, Note_on_c, 0, 77, 0
2, 13137, Note_on_c, 0, 64, 0
2, 13143, Note_on_c, 0, 48, 0
2, 13153, Note_on_c, 0, 55, 47
2, 13153, Note_on_c, 0, 73, 73
2, 13155, Note_on_c, 0, 76, 0
2, 13174, Note_on_c, 0, 73, 0
2, 13175, Note_on_c, 0, 72, 66
2, 13176, Note_on_c, 0, 55, 0
2, 13195, Note_on_c, 0, 53, 48
2, 13196, Note_on_c, 0, 70, 80
2, 13199, Note_on_c, 0, 72, 0
2, 13218, Note_on_c, 0, 68, 68
2, 13229, Note_on_c, 0, 70, 0
2, 13241, Note_on_c, 0, 61, 42
2, 13242, Note_on_c, 0, 67, 70
2, 13249, Note_on_c, 0, 68, 0
2, 13254, Control_c, 0, 64, 0
2, 13261, Note_on_c, 0, 67, 0
2, 13266, Note_on_c, 0, 65, 72
2, 13278, Note_on_c, 0, 61, 0
2, 13284, Note_on_c, 0, 56, 57
2, 13287, Note_on_c, 0, 65, 0
2, 13288, Control_c, 0, 64, 127
2, 13291, Note_on_c, 0, 67, 64
2, 13293, Note_on_c, 0, 53, 0
2, 13313, Note_on_c, 0, 56, 0
2, 13316, Note_on_c, 0, 67, 0
2, 13317, Note_on_c, 0, 68, 64
2, 13329, Note_on_c, 0, 68, 0
2, 13332, Note_on_c, 0, 48, 57
2, 13339, Note_on_c, 0, 67, 64
2, 13347, Note_on_c, 0, 48, 0
2, 13354, Note_on_c, 0, 67, 0
2, 13357, Control_c, 0, 64, 0
2, 13375, Note_on_c, 0, 79, 66
2, 13390, Note_on_c, 0, 79, 0
2, 13395, Note_on_c, 0, 64, 39
2, 13399, Note_on_c, 0, 77, 62
2, 13411, Control_c, 0, 64, 127
2, 13422, Note_on_c, 0, 77, 0
2, 13429, Note_on_c, 0, 76, 47
2, 13433, Note_on_c, 0, 64, 0
2, 13444, Note_on_c, 0, 76, 0
2, 13448, Note_on_c, 0, 73, 64
2, 13451, Note_on_c, 0, 55, 30
2, 13461, Note_on_c, 0, 73, 0
2, 13472, Note_on_c, 0, 72, 45
2, 13488, Note_on_c, 0, 72, 0
2, 13494, Note_on_c, 0, 70, 60
2, 13495, Note_on_c, 0, 55, 0
2, 13502, Note_on_c, 0, 53, 33
2, 13519, Note_on_c, 0, 68, 52
2, 13525, Note_on_c, 0, 70, 0
2, 13548, Note_on_c, 0, 67, 50
2, 13551, Note_on_c, 0, 68, 0
2, 13552, Note_on_c, 0, 61, 39
2, 13564, Note_on_c, 0, 67, 0
2, 13575, Note_on_c, 0, 65, 51
2, 13578, Note_on_c, 0, 61, 0
2, 13592, Note_on_c, 0, 65, 0
2, 13605, Note_on_c, 0, 56, 36
2, 13606, Note_on_c, 0, 53, 0
2, 13607, Note_on_c, 0, 67, 51
2, 13622, Note_on_c, 0, 56, 0
2, 13623, Note_on_c, 0, 67, 0
2, 13630, Note_on_c, 0, 68, 53
2, 13645, Note_on_c, 0, 68, 0
2, 13665, Note_on_c, 0, 48, 38
2, 13667, Note_on_c, 0, 67, 46
2, 13682, Note_on_c, 0, 67, 0
2, 13697, Note_on_c, 0, 73, 44
2, 13719, Note_on_c, 0, 73, 0
2, 13727, Note_on_c, 0, 72, 55
2, 13732, Note_on_c, 0, 55, 37
2, 13745, Note_on_c, 0, 72, 0
2, 13758, Note_on_c, 0, 71, 50
2, 13771, Note_on_c, 0, 71, 0
2, 13786, Note_on_c, 0, 72, 65
2, 13804, Note_on_c, 0, 72, 0
2, 13807, Control_c, 0, 64, 0
2, 13812, Note_on_c, 0, 73, 56
2, 13814, Note_on_c, 0, 64, 26
2, 13828, Note_on_c, 0, 73, 0
2, 13838, Note_on_c, 0, 72, 54
2, 13854, Note_on_c, 0, 72, 0
2, 13867, Note_on_c, 0, 73, 52
2, 13872, Control_c, 0, 64, 127
2, 13875, Note_on_c, 0, 48, 0
2, 13879, Note_on_c, 0, 55, 0
2, 13888, Note_on_c, 0, 73, 0
2, 13892, Note_on_c, 0, 72, 59
2, 13908, Note_on_c, 0, 72, 0
2, 13918, Note_on_c, 0, 71, 50
2, 13930, Note_on_c, 0, 64, 0
2, 13932, Note_on_c, 0, 71, 0
2, 13944, Note_on_c, 0, 72, 59
2, 13959, Note_on_c, 0, 72, 0
2, 13966, Note_on_c, 0, 73, 59
2, 13981, Note_on_c, 0, 73, 0
2, 13988, Note_on_c, 0, 72, 60
2, 14004, Note_on_c, 0, 72, 0
2, 14015, Note_on_c, 0, 73, 64
2, 14018, Control_c, 0, 64, 0
2, 14036, Note_on_c, 0, 73, 0
2, 14040, Note_on_c, 0, 72, 70
2, 14058, Note_on_c, 0, 72, 0
2, 14065, Note_on_c, 0, 71, 58
2, 14076, Control_c, 0, 64, 127
2, 14082, Note_on_c, 0, 71, 0
2, 14086, Note_on_c, 0, 72, 57
2, 14107, Note_on_c, 0, 72, 0
2, 14114, Note_on_c, 0, 73, 53
2, 14115, Control_c, 0, 64, 0
2, 14134, Note_on_c, 0, 73, 0
2, 14141, Control_c, 0, 64, 127
2, 14143, Note_on_c, 0, 72, 46
2, 14159, Note_on_c, 0, 72, 0
2, 14160, Control_c, 0, 64, 0
2, 14169, Note_on_c, 0, 73, 50
2, 14187, Control_c, 0, 64, 127
2, 14190, Note_on_c, 0, 73, 0
2, 14200, Note_on_c, 0, 72, 45
2, 14206, Control_c, 0, 64, 0
2, 14220, Note_on_c, 0, 72, 0
2, 14226, Control_c, 0, 64, 127
2, 14235, Note_on_c, 0, 73, 31
2, 14256, Note_on_c, 0, 73, 0
2, 14268, Note_on_c, 0, 72, 37
2, 14290, Note_on_c, 0, 72, 0
2, 14301, Note_on_c, 0, 73, 44
2, 14325, Control_c, 0, 64, 0
2, 14335, Note_on_c, 0, 73, 0
2, 14348, Note_on_c, 0, 72, 50
2, 14348, Note_on_c, 0, 52, 38
2, 14369, Note_on_c, 0, 72, 0
2, 14371, Control_c, 0, 64, 127
2, 14380, Note_on_c, 0, 73, 54
2, 14388, Note_on_c, 0, 52, 0
2, 14401, Note_on_c, 0, 73, 0
2, 14412, Note_on_c, 0, 71, 36
2, 14426, Note_on_c, 0, 67, 32
2, 14427, Note_on_c, 0, 71, 0
2, 14437, Note_on_c, 0, 72, 45
2, 14446, Note_on_c, 0, 67, 0
2, 14454, Note_on_c, 0, 72, 0
2, 14460, Note_on_c, 0, 75, 49
2, 14476, Note_on_c, 0, 60, 22
2, 14483, Note_on_c, 0, 75, 0
2, 14487, Note_on_c, 0, 73, 45
2, 14497, Note_on_c, 0, 60, 0
2, 14500, Note_on_c, 0, 73, 0
2, 14504, Note_on_c, 0, 72, 51
2, 14506, Note_on_c, 0, 58, 47
2, 14520, Note_on_c, 0, 72, 0
2, 14527, Note_on_c, 0, 73, 42
2, 14548, Note_on_c, 0, 73, 0
2, 14554, Note_on_c, 0, 71, 38
2, 14557, Note_on_c, 0, 67, 44
2, 14564, Note_on_c, 0, 71, 0
2, 14570, Note_on_c, 0, 58, 0
2, 14574, Note_on_c, 0, 67, 0
2, 14574, Note_on_c, 0, 72, 73
2, 14585, Note_on_c, 0, 72, 0
2, 14591, Note_on_c, 0, 78, 65
2, 14601, Note_on_c, 0, 60, 31
2, 14607, Note_on_c, 0, 78, 0
2, 14614, Note_on_c, 0, 79, 64
2, 14617, Note_on_c, 0, 60, 0
2, 14631, Note_on_c, 0, 79, 0
2, 14635, Note_on_c, 0, 53, 51
2, 14640, Note_on_c, 0, 72, 59
2, 14648, Control_c, 0, 64, 0
2, 14651, Note_on_c, 0, 73, 71
2, 14653, Note_on_c, 0, 72, 0
2, 14673, Note_on_c, 0, 73, 0
2, 14676, Note_on_c, 0, 71, 59
2, 14682, Note_on_c, 0, 68, 57
2, 14698, Note_on_c, 0, 72, 69
2, 14698, Control_c, 0, 64, 127
2, 14701, Note_on_c, 0, 71, 0
2, 14710, Note_on_c, 0, 68, 0
2, 14721, Note_on_c, 0, 75, 57
2, 14725, Note_on_c, 0, 72, 0
2, 14726, Note_on_c, 0, 60, 44
2, 14738, Note_on_c, 0, 73, 66
2, 14742, Note_on_c, 0, 60, 0
2, 14751, Note_on_c, 0, 75, 0
2, 14754, Note_on_c, 0, 73, 0
2, 14758, Note_on_c, 0, 72, 67
2, 14759, Control_c, 0, 64, 0
2, 14766, Note_on_c, 0, 56, 59
2, 14773, Note_on_c, 0, 72, 0
2, 14774, Note_on_c, 0, 53, 0
2, 14781, Note_on_c, 0, 73, 67
2, 14790, Control_c, 0, 64, 127
2, 14807, Note_on_c, 0, 71, 46
2, 14809, Note_on_c, 0, 73, 0
2, 14810, Note_on_c, 0, 68, 57
2, 14817, Note_on_c, 0, 71, 0
2, 14825, Note_on_c, 0, 72, 83
2, 14831, Note_on_c, 0, 68, 0
2, 14835, Note_on_c, 0, 72, 0
2, 14839, Note_on_c, 0, 56, 0
2, 14848, Note_on_c, 0, 80, 71
2, 14851, Note_on_c, 0, 60, 44
2, 14866, Note_on_c, 0, 80, 0
2, 14866, Note_on_c, 0, 77, 65
2, 14867, Note_on_c, 0, 60, 0
2, 14878, Note_on_c, 0, 77, 0
2, 14889, Note_on_c, 0, 76, 83
2, 14889, Note_on_c, 0, 55, 57
2, 14894, Control_c, 0, 64, 0
2, 14898, Note_on_c, 0, 76, 0
2, 14912, Note_on_c, 0, 77, 76
2, 14934, Note_on_c, 0, 70, 66
2, 14936, Note_on_c, 0, 76, 84
2, 14938, Note_on_c, 0, 77, 0
2, 14947, Note_on_c, 0, 70, 0
2, 14953, Note_on_c, 0, 76, 0
2, 14956, Note_on_c, 0, 75, 72
2, 14959, Control_c, 0, 64, 127
2, 14967, Note_on_c, 0, 75, 0
2, 14973, Note_on_c, 0, 55, 0
2, 14977, Note_on_c, 0, 76, 71
2, 14985, Note_on_c, 0, 64, 44
2, 15000, Note_on_c, 0, 79, 77
2, 15004, Note_on_c, 0, 76, 0
2, 15006, Note_on_c, 0, 64, 0
2, 15018, Note_on_c, 0, 61, 45
2, 15019, Note_on_c, 0, 82, 80
2, 15026, Note_on_c, 0, 79, 0
2, 15033, Control_c, 0, 64, 0
2, 15043, Note_on_c, 0, 84, 77
2, 15045, Note_on_c, 0, 82, 0
2, 15058, Note_on_c, 0, 70, 58
2, 15061, Note_on_c, 0, 82, 80
2, 15063, Control_c, 0, 64, 127
2, 15070, Note_on_c, 0, 84, 0
2, 15085, Note_on_c, 0, 81, 82
2, 15087, Note_on_c, 0, 82, 0
2, 15088, Note_on_c, 0, 70, 0
2, 15103, Note_on_c, 0, 81, 0
2, 15104, Note_on_c, 0, 82, 77
2, 15105, Note_on_c, 0, 64, 46
2, 15117, Note_on_c, 0, 64, 0
2, 15118, Note_on_c, 0, 61, 0
2, 15124, Note_on_c, 0, 85, 76
2, 15128, Note_on_c, 0, 82, 0
2, 15133, Note_on_c, 0, 85, 0
2, 15144, Note_on_c, 0, 56, 43
2, 15146, Note_on_c, 0, 84, 77
2, 15151, Control_c, 0, 64, 0
2, 15154, Note_on_c, 0, 84, 0
2, 15166, Note_on_c, 0, 85, 69
2, 15183, Note_on_c, 0, 68, 46
2, 15190, Note_on_c, 0, 84, 63
2, 15193, Note_on_c, 0, 85, 0
2, 15200, Note_on_c, 0, 84, 0
2, 15201, Control_c, 0, 64, 127
2, 15211, Note_on_c, 0, 83, 64
2, 15213, Note_on_c, 0, 68, 0
2, 15225, Note_on_c, 0, 83, 0
2, 15229, Note_on_c, 0, 84, 62
2, 15232, Note_on_c, 0, 65, 41
2, 15239, Note_on_c, 0, 84, 0
2, 15248, Note_on_c, 0, 65, 0
2, 15251, Note_on_c, 0, 79, 67
2, 15264, Note_on_c, 0, 79, 0
2, 15267, Control_c, 0, 64, 0
2, 15279, Note_on_c, 0, 80, 53
2, 15280, Note_on_c, 0, 60, 23
2, 15292, Note_on_c, 0, 80, 0
2, 15299, Note_on_c, 0, 82, 71
2, 15313, Control_c, 0, 64, 127
2, 15318, Note_on_c, 0, 82, 0
2, 15318, Note_on_c, 0, 56, 0
2, 15319, Note_on_c, 0, 68, 37
2, 15324, Note_on_c, 0, 80, 44
2, 15337, Note_on_c, 0, 80, 0
2, 15341, Note_on_c, 0, 68, 0
2, 15349, Note_on_c, 0, 60, 0
2, 15349, Note_on_c, 0, 79, 60
2, 15362, Note_on_c, 0, 79, 0
2, 15375, Note_on_c, 0, 65, 44
2, 15376, Note_on_c, 0, 80, 64
2, 15388, Note_on_c, 0, 65, 0
2, 15391, Note_on_c, 0, 80, 0
2, 15403, Note_on_c, 0, 76, 65
2, 15418, Note_on_c, 0, 76, 0
2, 15427, Note_on_c, 0, 46, 64
2, 15435, Note_on_c, 0, 77, 63
2, 15448, Note_on_c, 0, 77, 0
2, 15459, Note_on_c, 0, 79, 62
2, 15475, Note_on_c, 0, 61, 61
2, 15476, Note_on_c, 0, 79, 0
2, 15482, Note_on_c, 0, 77, 62
2, 15494, Note_on_c, 0, 77, 0
2, 15496, Note_on_c, 0, 61, 0
2, 15506, Note_on_c, 0, 76, 68
2, 15516, Control_c, 0, 64, 0
2, 15519, Note_on_c, 0, 76, 0
2, 15523, Note_on_c, 0, 55, 45
2, 15524, Note_on_c, 0, 77, 64
2, 15534, Note_on_c, 0, 77, 0
2, 15543, Note_on_c, 0, 55, 0
2, 15543, Note_on_c, 0, 72, 73
2, 15561, Note_on_c, 0, 53, 40
2, 15562, Control_c, 0, 64, 127
2, 15563, Note_on_c, 0, 72, 0
2, 15567, Note_on_c, 0, 73, 68
2, 15570, Note_on_c, 0, 46, 0
2, 15582, Note_on_c, 0, 73, 0
2, 15588, Note_on_c, 0, 75, 60
2, 15606, Note_on_c, 0, 73, 59
2, 15609, Note_on_c, 0, 61, 50
2, 15612, Note_on_c, 0, 75, 0
2, 15617, Note_on_c, 0, 53, 0
2, 15625, Note_on_c, 0, 73, 0
2, 15630, Note_on_c, 0, 72, 73
2, 15639, Note_on_c, 0, 61, 0
2, 15646, Note_on_c, 0, 72, 0
2, 15648, Note_on_c, 0, 73, 70
2, 15654, Note_on_c, 0, 55, 43
2, 15666, Note_on_c, 0, 73, 0
2, 15670, Note_on_c, 0, 71, 60
2, 15672, Note_on_c, 0, 55, 0
2, 15685, Note_on_c, 0, 71, 0
2, 15693, Note_on_c, 0, 72, 79
2, 15693, Note_on_c, 0, 48, 50
2, 15697, Control_c, 0, 64, 0
2, 15706, Note_on_c, 0, 72, 0
2, 15711, Note_on_c, 0, 73, 77
2, 15735, Note_on_c, 0, 72, 68
2, 15740, Note_on_c, 0, 60, 53
2, 15741, Note_on_c, 0, 73, 0
2, 15750, Note_on_c, 0, 72, 0
2, 15751, Control_c, 0, 64, 127
2, 15757, Note_on_c, 0, 71, 57
2, 15772, Note_on_c, 0, 71, 0
2, 15775, Note_on_c, 0, 72, 76
2, 15778, Note_on_c, 0, 60, 0
2, 15781, Note_on_c, 0, 56, 58
2, 15787, Note_on_c, 0, 72, 0
2, 15798, Note_on_c, 0, 67, 64
2, 15816, Control_c, 0, 64, 0
2, 15819, Note_on_c, 0, 68, 70
2, 15822, Note_on_c, 0, 56, 0
2, 15823, Note_on_c, 0, 67, 0
2, 15823, Note_on_c, 0, 53, 47
2, 15836, Note_on_c, 0, 68, 0
2, 15837, Note_on_c, 0, 70, 78
2, 15855, Note_on_c, 0, 68, 70
2, 15864, Note_on_c, 0, 48, 0
2, 15866, Control_c, 0, 64, 127
2, 15867, Note_on_c, 0, 70, 0
2, 15867, Note_on_c, 0, 60, 51
2, 15880, Note_on_c, 0, 67, 74
2, 15882, Note_on_c, 0, 68, 0
2, 15887, Note_on_c, 0, 53, 0
2, 15895, Note_on_c, 0, 60, 0
2, 15895, Note_on_c, 0, 67, 0
2, 15898, Note_on_c, 0, 68, 72
2, 15904, Note_on_c, 0, 56, 57
2, 15926, Note_on_c, 0, 68, 0
2, 15927, Note_on_c, 0, 56, 0
2, 15927, Note_on_c, 0, 65, 71
2, 15939, Note_on_c, 0, 65, 0
2, 15947, Control_c, 0, 64, 0
2, 15948, Note_on_c, 0, 48, 58
2, 15949, Note_on_c, 0, 64, 73
2, 15961, Note_on_c, 0, 64, 0
2, 15974, Note_on_c, 0, 67, 69
2, 15990, Note_on_c, 0, 67, 0
2, 15996, Note_on_c, 0, 70, 77
2, 15997, Control_c, 0, 64, 127
2, 16008, Note_on_c, 0, 64, 47
2, 16017, Note_on_c, 0, 73, 73
2, 16024, Note_on_c, 0, 70, 0
2, 16027, Note_on_c, 0, 73, 0
2, 16042, Note_on_c, 0, 64, 0
2, 16043, Note_on_c, 0, 76, 78
2, 16054, Note_on_c, 0, 58, 58
2, 16066, Note_on_c, 0, 76, 0
2, 16066, Note_on_c, 0, 79, 72
2, 16078, Note_on_c, 0, 79, 0
2, 16092, Note_on_c, 0, 82, 79
2, 16096, Control_c, 0, 64, 0
2, 16099, Note_on_c, 0, 58, 0
2, 16106, Note_on_c, 0, 55, 44
2, 16114, Note_on_c, 0, 48, 0
2, 16116, Control_c, 0, 64, 127
2, 16119, Note_on_c, 0, 85, 72
2, 16122, Note_on_c, 0, 82, 0
2, 16148, Note_on_c, 0, 84, 50
2, 16150, Note_on_c, 0, 64, 48
2, 16160, Note_on_c, 0, 85, 0
2, 16161, Note_on_c, 0, 55, 0
2, 16167, Note_on_c, 0, 82, 66
2, 16176, Note_on_c, 0, 84, 0
2, 16191, Note_on_c, 0, 80, 69
2, 16192, Note_on_c, 0, 64, 0
2, 16192, Note_on_c, 0, 58, 58
2, 16193, Note_on_c, 0, 82, 0
2, 16210, Note_on_c, 0, 80, 0
2, 16211, Note_on_c, 0, 58, 0
2, 16216, Note_on_c, 0, 79, 65
2, 16228, Note_on_c, 0, 79, 0
2, 16235, Control_c, 0, 64, 0
2, 16235, Note_on_c, 0, 53, 37
2, 16236, Note_on_c, 0, 82, 74
2, 16260, Note_on_c, 0, 84, 70
2, 16263, Note_on_c, 0, 82, 0
2, 16284, Note_on_c, 0, 80, 59
2, 16285, Note_on_c, 0, 84, 0
2, 16290, Note_on_c, 0, 65, 41
2, 16302, Note_on_c, 0, 80, 0
2, 16304, Control_c, 0, 64, 127
2, 16309, Note_on_c, 0, 79, 54
2, 16322, Note_on_c, 0, 65, 0
2, 16325, Note_on_c, 0, 79, 0
2, 16328, Note_on_c, 0, 80, 50
2, 16331, Note_on_c, 0, 60, 39
2, 16358, Note_on_c, 0, 60, 0
2, 16358, Note_on_c, 0, 77, 57
2, 16361, Note_on_c, 0, 80, 0
2, 16372, Note_on_c, 0, 77, 0
2, 16377, Control_c, 0, 64, 0
2, 16379, Note_on_c, 0, 56, 43
2, 16381, Note_on_c, 0, 76, 60
2, 16395, Note_on_c, 0, 76, 0
2, 16409, Note_on_c, 0, 79, 50
2, 16419, Control_c, 0, 64, 127
2, 16424, Note_on_c, 0, 53, 0
2, 16429, Note_on_c, 0, 79, 0
2, 16431, Note_on_c, 0, 65, 34
2, 16437, Note_on_c, 0, 77, 58
2, 16450, Note_on_c, 0, 77, 0
2, 16461, Note_on_c, 0, 65, 0
2, 16462, Note_on_c, 0, 76, 57
2, 16480, Note_on_c, 0, 76, 0
2, 16485, Note_on_c, 0, 61, 42
2, 16494, Note_on_c, 0, 56, 0
2, 16494, Note_on_c, 0, 77, 56
2, 16509, Note_on_c, 0, 77, 0
2, 16509, Note_on_c, 0, 61, 0
2, 16519, Note_on_c, 0, 73, 44
2, 16534, Control_c, 0, 64, 0
2, 16539, Note_on_c, 0, 73, 0
2, 16546, Note_on_c, 0, 72, 54
2, 16548, Note_on_c, 0, 52, 44
2, 16563, Note_on_c, 0, 72, 0
2, 16571, Note_on_c, 0, 73, 45
2, 16581, Control_c, 0, 64, 127
2, 16585, Note_on_c, 0, 52, 0
2, 16589, Note_on_c, 0, 73, 0
2, 16594, Note_on_c, 0, 71, 45
2, 16608, Note_on_c, 0, 67, 43
2, 16609, Note_on_c, 0, 71, 0
2, 16621, Note_on_c, 0, 67, 0
2, 16623, Note_on_c, 0, 72, 57
2, 16639, Note_on_c, 0, 72, 0
2, 16648, Note_on_c, 0, 75, 46
2, 16656, Note_on_c, 0, 60, 30
2, 16667, Note_on_c, 0, 73, 51
2, 16670, Note_on_c, 0, 75, 0
2, 16674, Note_on_c, 0, 60, 0
2, 16680, Note_on_c, 0, 73, 0
2, 16686, Note_on_c, 0, 72, 64
2, 16689, Note_on_c, 0, 58, 43
2, 16702, Note_on_c, 0, 72, 0
2, 16716, Note_on_c, 0, 73, 49
2, 16731, Note_on_c, 0, 73, 0
2, 16736, Note_on_c, 0, 67, 48
2, 16738, Note_on_c, 0, 58, 0
2, 16738, Note_on_c, 0, 71, 33
2, 16750, Note_on_c, 0, 71, 0
2, 16751, Note_on_c, 0, 67, 0
2, 16757, Note_on_c, 0, 72, 73
2, 16769, Note_on_c, 0, 72, 0
2, 16774, Note_on_c, 0, 78, 73
2, 16780, Note_on_c, 0, 60, 40
2, 16794, Note_on_c, 0, 60, 0
2, 16800, Note_on_c, 0, 79, 70
2, 16801, Note_on_c, 0, 78, 0
2, 16821, Note_on_c, 0, 53, 46
2, 16821, Note_on_c, 0, 72, 77
2, 16822, Note_on_c, 0, 79, 0
2, 16840, Note_on_c, 0, 73, 72
2, 16842, Control_c, 0, 64, 0
2, 16846, Note_on_c, 0, 72, 0
2, 16861, Note_on_c, 0, 71, 66
2, 16866, Note_on_c, 0, 73, 0
2, 16869, Note_on_c, 0, 68, 61
2, 16884, Note_on_c, 0, 72, 83
2, 16888, Control_c, 0, 64, 127
2, 16890, Note_on_c, 0, 71, 0
2, 16897, Note_on_c, 0, 68, 0
2, 16908, Note_on_c, 0, 75, 75
2, 16912, Note_on_c, 0, 72, 0
2, 16915, Note_on_c, 0, 60, 41
2, 16920, Note_on_c, 0, 53, 0
2, 16930, Note_on_c, 0, 73, 72
2, 16931, Note_on_c, 0, 60, 0
2, 16941, Note_on_c, 0, 75, 0
2, 16950, Note_on_c, 0, 72, 78
2, 16951, Note_on_c, 0, 73, 0
2, 16953, Note_on_c, 0, 56, 50
2, 16962, Note_on_c, 0, 72, 0
2, 16970, Note_on_c, 0, 73, 74
2, 16994, Note_on_c, 0, 68, 59
2, 16995, Note_on_c, 0, 71, 54
2, 16996, Note_on_c, 0, 73, 0
2, 17010, Note_on_c, 0, 71, 0
2, 17013, Note_on_c, 0, 72, 88
2, 17021, Note_on_c, 0, 68, 0
2, 17029, Note_on_c, 0, 72, 0
2, 17035, Note_on_c, 0, 60, 51
2, 17037, Note_on_c, 0, 80, 77
2, 17039, Note_on_c, 0, 56, 0
2, 17050, Note_on_c, 0, 60, 0
2, 17056, Note_on_c, 0, 77, 74
2, 17064, Note_on_c, 0, 80, 0
2, 17077, Note_on_c, 0, 76, 87
2, 17079, Note_on_c, 0, 77, 0
2, 17080, Note_on_c, 0, 55, 61
2, 17088, Control_c, 0, 64, 0
2, 17090, Note_on_c, 0, 76, 0
2, 17098, Note_on_c, 0, 77, 84
2, 17124, Note_on_c, 0, 76, 77
2, 17124, Note_on_c, 0, 70, 64
2, 17129, Note_on_c, 0, 77, 0
2, 17139, Note_on_c, 0, 70, 0
2, 17142, Control_c, 0, 64, 127
2, 17143, Note_on_c, 0, 75, 79
2, 17148, Note_on_c, 0, 76, 0
2, 17158, Note_on_c, 0, 75, 0
2, 17165, Note_on_c, 0, 76, 84
2, 17170, Note_on_c, 0, 55, 0
2, 17172, Note_on_c, 0, 64, 50
2, 17187, Note_on_c, 0, 79, 82
2, 17190, Note_on_c, 0, 76, 0
2, 17201, Note_on_c, 0, 64, 0
2, 17206, Note_on_c, 0, 82, 88
2, 17208, Note_on_c, 0, 61, 42
2, 17214, Note_on_c, 0, 79, 0
2, 17232, Note_on_c, 0, 84, 84
2, 17237, Note_on_c, 0, 82, 0
2, 17253, Note_on_c, 0, 82, 84
2, 17253, Note_on_c, 0, 70, 66
2, 17268, Note_on_c, 0, 84, 0
2, 17274, Note_on_c, 0, 70, 0
2, 17277, Note_on_c, 0, 81, 90
2, 17283, Note_on_c, 0, 82, 0
2, 17296, Note_on_c, 0, 64, 55
2, 17298, Note_on_c, 0, 82, 89
2, 17305, Note_on_c, 0, 81, 0
2, 17309, Note_on_c, 0, 61, 0
2, 17311, Note_on_c, 0, 64, 0
2, 17327, Note_on_c, 0, 85, 84
2, 17337, Note_on_c, 0, 82, 0
2, 17346, Note_on_c, 0, 56, 45
2, 17357, Note_on_c, 0, 85, 0
2, 17359, Note_on_c, 0, 84, 92
2, 17372, Control_c, 0, 64, 0
2, 17397, Note_on_c, 0, 92, 77
2, 17401, Note_on_c, 0, 84, 0
2, 17428, Note_on_c, 0, 91, 70
2, 17437, Note_on_c, 0, 68, 44
2, 17441, Control_c, 0, 64, 127
2, 17443, Note_on_c, 0, 92, 0
2, 17457, Note_on_c, 0, 90, 70
2, 17459, Note_on_c, 0, 91, 0
2, 17468, Note_on_c, 0, 68, 0
2, 17482, Note_on_c, 0, 90, 0
2, 17483, Note_on_c, 0, 89, 74
2, 17493, Note_on_c, 0, 65, 37
2, 17503, Note_on_c, 0, 56, 0
2, 17509, Note_on_c, 0, 88, 69
2, 17510, Note_on_c, 0, 65, 0
2, 17517, Note_on_c, 0, 89, 0
2, 17529, Note_on_c, 0, 87, 77
2, 17536, Note_on_c, 0, 88, 0
2, 17541, Note_on_c, 0, 60, 35
2, 17553, Note_on_c, 0, 87, 0
2, 17557, Note_on_c, 0, 86, 58
2, 17559, Note_on_c, 0, 60, 0
2, 17572, Note_on_c, 0, 86, 0
2, 17574, Note_on_c, 0, 85, 78
2, 17581, Note_on_c, 0, 68, 47
2, 17596, Note_on_c, 0, 84, 77
2, 17597, Note_on_c, 0, 68, 0
2, 17609, Note_on_c, 0, 85, 0
2, 17619, Note_on_c, 0, 84, 0
2, 17621, Note_on_c, 0, 83, 67
2, 17623, Note_on_c, 0, 65, 31
2, 17638, Note_on_c, 0, 65, 0
2, 17644, Note_on_c, 0, 82, 90
2, 17649, Note_on_c, 0, 83, 0
2, 17664, Note_on_c, 0, 46, 66
2, 17669, Note_on_c, 0, 81, 77
2, 17683, Note_on_c, 0, 82, 0
2, 17694, Note_on_c, 0, 81, 0
2, 17694, Note_on_c, 0, 80, 73
2, 17703, Control_c, 0, 64, 0
2, 17705, Note_on_c, 0, 61, 54
2, 17713, Note_on_c, 0, 80, 0
2, 17716, Note_on_c, 0, 79, 83
2, 17725, Note_on_c, 0, 61, 0
2, 17736, Note_on_c, 0, 79, 0
2, 17742, Note_on_c, 0, 89, 60
2, 17745, Control_c, 0, 64, 127
2, 17758, Note_on_c, 0, 55, 32
2, 17766, Note_on_c, 0, 85, 65
2, 17769, Note_on_c, 0, 89, 0
2, 17776, Note_on_c, 0, 46, 0
2, 17784, Note_on_c, 0, 55, 0
2, 17785, Note_on_c, 0, 82, 83
2, 17801, Note_on_c, 0, 85, 0
2, 17801, Note_on_c, 0, 53, 42
2, 17809, Note_on_c, 0, 82, 0
2, 17810, Note_on_c, 0, 79, 44
2, 17819, Note_on_c, 0, 53, 0
2, 17822, Note_on_c, 0, 79, 0
2, 17830, Note_on_c, 0, 77, 73
2, 17845, Note_on_c, 0, 61, 50
2, 17851, Note_on_c, 0, 73, 59
2, 17857, Note_on_c, 0, 77, 0
2, 17871, Note_on_c, 0, 70, 81
2, 17873, Note_on_c, 0, 61, 0
2, 17884, Note_on_c, 0, 73, 0
2, 17893, Note_on_c, 0, 55, 33
2, 17895, Note_on_c, 0, 67, 72
2, 17899, Note_on_c, 0, 70, 0
2, 17908, Note_on_c, 0, 67, 0
2, 17913, Note_on_c, 0, 55, 0
2, 17913, Note_on_c, 0, 73, 60
2, 17937, Control_c, 0, 64, 0
2, 17938, Note_on_c, 0, 73, 0
2, 17939, Note_on_c, 0, 72, 79
2, 17943, Note_on_c, 0, 48, 50
2, 17965, Note_on_c, 0, 73, 54
2, 17968, Note_on_c, 0, 72, 0
2, 17979, Control_c, 0, 64, 127
2, 17983, Note_on_c, 0, 73, 0
2, 17985, Note_on_c, 0, 48, 0
2, 17986, Note_on_c, 0, 71, 57
2, 18014, Note_on_c, 0, 72, 61
2, 18015, Note_on_c, 0, 65, 55
2, 18017, Note_on_c, 0, 71, 0
2, 18033, Note_on_c, 0, 68, 58
2, 18034, Note_on_c, 0, 72, 0
2, 18037, Note_on_c, 0, 65, 0
2, 18059, Note_on_c, 0, 70, 66
2, 18063, Note_on_c, 0, 60, 27
2, 18066, Note_on_c, 0, 68, 0
2, 18071, Note_on_c, 0, 70, 0
2, 18079, Note_on_c, 0, 72, 76
2, 18082, Note_on_c, 0, 60, 0
2, 18090, Note_on_c, 0, 72, 0
2, 18097, Note_on_c, 0, 56, 41
2, 18103, Note_on_c, 0, 73, 66
2, 18121, Note_on_c, 0, 73, 0
2, 18129, Note_on_c, 0, 72, 70
2, 18141, Note_on_c, 0, 72, 0
2, 18144, Note_on_c, 0, 65, 44
2, 18154, Note_on_c, 0, 73, 66
2, 18160, Note_on_c, 0, 65, 0
2, 18165, Note_on_c, 0, 56, 0
2, 18177, Note_on_c, 0, 73, 0
2, 18177, Note_on_c, 0, 77, 68
2, 18189, Note_on_c, 0, 60, 25
2, 18204, Note_on_c, 0, 60, 0
2, 18204, Note_on_c, 0, 75, 61
2, 18205, Note_on_c, 0, 77, 0
2, 18222, Note_on_c, 0, 75, 0
2, 18229, Note_on_c, 0, 72, 60
2, 18236, Note_on_c, 0, 48, 46
2, 18256, Control_c, 0, 64, 0
2, 18261, Note_on_c, 0, 72, 0
2, 18261, Note_on_c, 0, 73, 51
2, 18283, Note_on_c, 0, 70, 60
2, 18287, Note_on_c, 0, 73, 0
2, 18299, Note_on_c, 0, 63, 38
2, 18313, Control_c, 0, 64, 127
2, 18315, Note_on_c, 0, 72, 57
2, 18318, Note_on_c, 0, 70, 0
2, 18330, Note_on_c, 0, 48, 0
2, 18335, Note_on_c, 0, 72, 0
2, 18339, Note_on_c, 0, 75, 57
2, 18345, Note_on_c, 0, 63, 0
2, 18358, Note_on_c, 0, 75, 0
2, 18367, Note_on_c, 0, 55, 23
2, 18370, Note_on_c, 0, 73, 60
2, 18402, Note_on_c, 0, 70, 54
2, 18408, Note_on_c, 0, 73, 0
2, 18408, Note_on_c, 0, 55, 0
2, 18421, Note_on_c, 0, 70, 0
2, 18424, Note_on_c, 0, 53, 23
2, 18428, Note_on_c, 0, 72, 57
2, 18442, Note_on_c, 0, 72, 0
2, 18456, Note_on_c, 0, 68, 50
2, 18465, Note_on_c, 0, 53, 0
2, 18474, Note_on_c, 0, 61, 37
2, 18480, Note_on_c, 0, 68, 0
2, 18486, Note_on_c, 0, 70, 55
2, 18495, Note_on_c, 0, 61, 0
2, 18508, Note_on_c, 0, 70, 0
2, 18520, Note_on_c, 0, 73, 47
2, 18544, Note_on_c, 0, 52, 23
2, 18559, Note_on_c, 0, 73, 0
2, 18561, Note_on_c, 0, 52, 0
2, 18562, Note_on_c, 0, 72, 48
2, 18585, Note_on_c, 0, 72, 0
2, 18602, Note_on_c, 0, 53, 47
2, 18617, Note_on_c, 0, 65, 54
2, 18628, Note_on_c, 0, 65, 0
2, 18673, Note_on_c, 0, 84, 77
2, 18706, Note_on_c, 0, 68, 44
2, 18708, Note_on_c, 0, 82, 78
2, 18709, Control_c, 0, 64, 0
2, 18714, Note_on_c, 0, 84, 0
2, 18737, Note_on_c, 0, 80, 64
2, 18744, Note_on_c, 0, 82, 0
2, 18759, Control_c, 0, 64, 127
2, 18767, Note_on_c, 0, 79, 74
2, 18775, Note_on_c, 0, 60, 36
2, 18777, Note_on_c, 0, 80, 0
2, 18780, Note_on_c, 0, 68, 0
2, 18792, Note_on_c, 0, 60, 0
2, 18795, Note_on_c, 0, 79, 0
2, 18797, Note_on_c, 0, 77, 59
2, 18825, Note_on_c, 0, 75, 54
2, 18827, Note_on_c, 0, 77, 0
2, 18828, Note_on_c, 0, 58, 45
2, 18846, Note_on_c, 0, 53, 0
2, 18853, Note_on_c, 0, 73, 65
2, 18861, Note_on_c, 0, 75, 0
2, 18883, Note_on_c, 0, 73, 0
2, 18886, Note_on_c, 0, 72, 59
2, 18900, Note_on_c, 0, 67, 42
2, 18910, Note_on_c, 0, 72, 0
2, 18915, Note_on_c, 0, 70, 73
2, 18924, Note_on_c, 0, 67, 0
2, 18946, Note_on_c, 0, 70, 0
2, 18946, Note_on_c, 0, 72, 64
2, 18957, Note_on_c, 0, 61, 41
2, 18974, Note_on_c, 0, 61, 0
2, 18977, Note_on_c, 0, 72, 0
2, 18978, Note_on_c, 0, 58, 0
2, 18978, Note_on_c, 0, 73, 61
2, 19012, Note_on_c, 0, 73, 0
2, 19012, Note_on_c, 0, 53, 23
2, 19030, Note_on_c, 0, 72, 30
2, 19036, Control_c, 0, 64, 0
2, 19060, Note_on_c, 0, 72, 0
2, 19063, Note_on_c, 0, 84, 57
2, 19070, Control_c, 0, 64, 127
2, 19093, Control_c, 0, 64, 0
2, 19116, Note_on_c, 0, 68, 29
2, 19117, Note_on_c, 0, 84, 0
2, 19117, Note_on_c, 0, 82, 51
2, 19156, Note_on_c, 0, 80, 51
2, 19159, Note_on_c, 0, 82, 0
2, 19170, Control_c, 0, 64, 127
2, 19186, Note_on_c, 0, 68, 0
2, 19190, Note_on_c, 0, 80, 0
2, 19197, Note_on_c, 0, 79, 41
2, 19202, Note_on_c, 0, 60, 29
2, 19221, Note_on_c, 0, 79, 0
2, 19228, Note_on_c, 0, 60, 0
2, 19233, Note_on_c, 0, 77, 50
2, 19270, Note_on_c, 0, 77, 0
2, 19273, Note_on_c, 0, 75, 38
2, 19275, Note_on_c, 0, 58, 31
2, 19311, Note_on_c, 0, 73, 49
2, 19312, Note_on_c, 0, 75, 0
2, 19348, Note_on_c, 0, 73, 0
2, 19353, Note_on_c, 0, 72, 38
2, 19375, Note_on_c, 0, 67, 42
2, 19396, Note_on_c, 0, 72, 0
2, 19401, Note_on_c, 0, 70, 54
2, 19462, Note_on_c, 0, 72, 44
2, 19463, Note_on_c, 0, 70, 0
2, 19508, Note_on_c, 0, 61, 31
2, 19539, Note_on_c, 0, 72, 0
2, 19546, Note_on_c, 0, 75, 35
2, 19624, Control_c, 0, 64, 0
2, 19693, Control_c, 0, 64, 127
2, 19696, Note_on_c, 0, 73, 27
2, 19706, Note_on_c, 0, 75, 0
2, 19722, Note_on_c, 0, 67, 0
2, 19736, Note_on_c, 0, 53, 0
2, 19748, Note_on_c, 0, 61, 0
2, 19802, Note_on_c, 0, 58, 0
2, 19919, Note_on_c, 0, 72, 28
2, 19923, Note_on_c, 0, 73, 0
2, 19965, Note_on_c, 0, 53, 13
2, 19990, Note_on_c, 0, 60, 25
2, 20002, Note_on_c, 0, 72, 0
2, 20023, Note_on_c, 0, 65, 23
2, 20043, Note_on_c, 0, 68, 41
2, 20083, Note_on_c, 0, 72, 47
2, 20318, Note_on_c, 0, 72, 0
2, 20367, Note_on_c, 0, 72, 46
2, 20388, Control_c, 0, 64, 0
2, 20438, Control_c, 0, 64, 127
2, 20449, Note_on_c, 0, 72, 0
2, 20529, Note_on_c, 0, 72, 31
2, 20588, Control_c, 0, 64, 0
2, 20634, Control_c, 0, 64, 127
2, 20673, Note_on_c, 0, 72, 0
2, 20820, Note_on_c, 0, 72, 27
2, 20826, Control_c, 0, 64, 0
2, 20895, Control_c, 0, 64, 127
2, 20959, Note_on_c, 0, 65, 0
2, 20963, Note_on_c, 0, 68, 0
2, 20987, Note_on_c, 0, 60, 0
2, 20999, Note_on_c, 0, 72, 0
2, 21010, Note_on_c, 0, 53, 0
2, 21010, End_track
0, 0, End_of_file
