0, 0, Header, 0, 1, 480
1, 0, Start_track
1, 0, Time_signature, 4, 2, 24, 8
1, 0, Key_signature, 0, "major"
1, 0, Tempo, 500000
1, 0, Control_c, 0, 64, 127
1, 0, Note_on_c, 0, 44, 41
1, 1128, Note_on_c, 0, 51, 46
1, 1290, Note_on_c, 0, 44, 0
1, 1296, Control_c, 0, 64, 0
1, 1940, Control_c, 0, 64, 127
1, 3004, Note_on_c, 0, 49, 44
1, 3094, Note_on_c, 0, 51, 0
1, 3200, Control_c, 0, 64, 0
1, 3370, Control_c, 0, 64, 127
1, 3426, Note_on_c, 0, 49, 0
1, 3508, Note_on_c, 0, 49, 55
1, 4032, Note_on_c, 0, 48, 49
1, 4094, Note_on_c, 0, 49, 0
1, 4108, Control_c, 0, 64, 0
1, 4336, Control_c, 0, 64, 127
1, 4428, Note_on_c, 0, 48, 0
1, 4788, Note_on_c, 0, 57, 46
1, 5090, Control_c, 0, 64, 0
1, 5504, Control_c, 0, 64, 127
1, 6728, Note_on_c, 0, 56, 28
1, 6774, Note_on_c, 0, 57, 0
1, 6920, Control_c, 0, 64, 0
1, 7194, Control_c, 0, 64, 127
1, 7342, Note_on_c, 0, 55, 36
1, 7416, Note_on_c, 0, 56, 0
1, 7456, Control_c, 0, 64, 0
1, 7672, Control_c, 0, 64, 127
1, 7694, Note_on_c, 0, 56, 47
1, 7721, Note_on_c, 0, 55, 0
1, 7780, Control_c, 0, 64, 0
1, 7948, Control_c, 0, 64, 127
1, 7980, Note_on_c, 0, 57, 53
1, 8018, Note_on_c, 0, 56, 0
1, 8040, Control_c, 0, 64, 0
1, 8224, Control_c, 0, 64, 127
1, 8236, Note_on_c, 0, 56, 64
1, 8268, Note_on_c, 0, 57, 0
1, 8316, Control_c, 0, 64, 0
1, 8470, Control_c, 0, 64, 127
1, 8508, Note_on_c, 0, 59, 59
1, 8532, Control_c, 0, 64, 0
1, 8535, Note_on_c, 0, 56, 0
1, 8762, Control_c, 0, 64, 127
1, 8774, Note_on_c, 0, 57, 51
1, 8834, Note_on_c, 0, 59, 0
1, 8838, Control_c, 0, 64, 0
1, 9008, Control_c, 0, 64, 127
1, 9068, Note_on_c, 0, 52, 62
1, 9086, Control_c, 0, 64, 0
1, 9096, Note_on_c, 0, 57, 0
1, 9284, Control_c, 0, 64, 127
1, 9310, Note_on_c, 0, 53, 95
1, 9334, Note_on_c, 0, 52, 0
1, 9362, Control_c, 0, 64, 0
1, 9562, Control_c, 0, 64, 127
1, 9568, Note_on_c, 0, 54, 69
1, 9592, Note_on_c, 0, 53, 0
1, 9608, Control_c, 0, 64, 0
1, 9830, Note_on_c, 0, 53, 69
1, 9846, Note_on_c, 0, 54, 0
1, 10114, Note_on_c, 0, 53, 0
1, 10134, Note_on_c, 0, 56, 47
1, 10376, Control_c, 0, 64, 127
1, 10424, Note_on_c, 0, 54, 47
1, 10452, Control_c, 0, 64, 0
1, 10472, Note_on_c, 0, 56, 0
1, 10714, Control_c, 0, 64, 127
1, 10758, Note_on_c, 0, 57, 32
1, 10760, Control_c, 0, 64, 0
1, 10762, Note_on_c, 0, 54, 0
1, 11068, Control_c, 0, 64, 127
1, 11164, Note_on_c, 0, 56, 27
1, 11206, Note_on_c, 0, 57, 0
1, 11252, Control_c, 0, 64, 0
1, 11390, Control_c, 0, 64, 127
1, 11522, Note_on_c, 0, 49, 29
1, 11552, Note_on_c, 0, 56, 0
1, 11574, Control_c, 0, 64, 0
1, 11774, Control_c, 0, 64, 127
1, 11866, Control_c, 0, 64, 0
1, 11888, Note_on_c, 0, 49, 0
1, 11894, Note_on_c, 0, 51, 33
1, 12066, Control_c, 0, 64, 127
1, 12520, Note_on_c, 0, 52, 28
1, 12530, Note_on_c, 0, 51, 0
1, 12726, Control_c, 0, 64, 0
1, 12824, Note_on_c, 0, 64, 57
1, 13156, Control_c, 0, 64, 127
1, 13168, Note_on_c, 0, 52, 0
1, 13448, Note_on_c, 0, 73, 25
1, 13452, Note_on_c, 0, 68, 24
1, 13526, Control_c, 0, 64, 0
1, 13694, Control_c, 0, 64, 127
1, 13728, Note_on_c, 0, 68, 0
1, 13742, Note_on_c, 0, 73, 0
1, 14028, Note_on_c, 0, 68, 17
1, 14028, Note_on_c, 0, 73, 18
1, 14232, Note_on_c, 0, 68, 0
1, 14272, Note_on_c, 0, 73, 0
1, 14552, Note_on_c, 0, 73, 28
1, 14556, Note_on_c, 0, 68, 21
1, 14804, Note_on_c, 0, 68, 0
1, 14858, Note_on_c, 0, 73, 0
1, 15146, Note_on_c, 0, 68, 25
1, 15150, Note_on_c, 0, 73, 30
1, 15190, Note_on_c, 0, 63, 47
1, 15294, Note_on_c, 0, 64, 0
1, 15370, Control_c, 0, 64, 0
1, 15538, Control_c, 0, 64, 127
1, 15558, Note_on_c, 0, 68, 0
1, 15588, Note_on_c, 0, 73, 0
1, 15812, Note_on_c, 0, 68, 35
1, 15814, Note_on_c, 0, 73, 32
1, 15884, Note_on_c, 0, 68, 0
1, 15892, Note_on_c, 0, 73, 0
1, 16126, Note_on_c, 0, 61, 58
1, 16138, Note_on_c, 0, 63, 0
1, 16380, Note_on_c, 0, 61, 0
1, 16480, Note_on_c, 0, 76, 67
1, 16534, Note_on_c, 0, 69, 17
1, 16556, Note_on_c, 0, 64, 4
1, 16582, Control_c, 0, 64, 0
1, 16587, Note_on_c, 0, 61, 30
1, 16844, Control_c, 0, 64, 127
1, 16874, Note_on_c, 0, 64, 0
1, 16888, Note_on_c, 0, 69, 0
1, 17198, Note_on_c, 0, 69, 16
1, 17201, Note_on_c, 0, 64, 30
1, 17412, Note_on_c, 0, 64, 0
1, 17484, Note_on_c, 0, 69, 0
1, 17726, Note_on_c, 0, 69, 31
1, 17750, Note_on_c, 0, 64, 20
1, 17934, Note_on_c, 0, 64, 0
1, 18000, Note_on_c, 0, 69, 0
1, 18196, Note_on_c, 0, 61, 0
1, 18300, Note_on_c, 0, 69, 22
1, 18346, Note_on_c, 0, 64, 11
1, 18504, Note_on_c, 0, 63, 58
1, 18516, Note_on_c, 0, 64, 0
1, 18524, Note_on_c, 0, 76, 0
1, 18536, Note_on_c, 0, 69, 0
1, 18652, Note_on_c, 0, 63, 0
1, 18658, Note_on_c, 0, 61, 59
1, 18842, Note_on_c, 0, 75, 65
1, 18868, Note_on_c, 0, 61, 0
1, 18884, Note_on_c, 0, 69, 23
1, 18898, Note_on_c, 0, 64, 24
1, 18950, Note_on_c, 0, 59, 42
1, 19010, Control_c, 0, 64, 0
1, 19182, Note_on_c, 0, 69, 0
1, 19214, Note_on_c, 0, 64, 0
1, 19226, Control_c, 0, 64, 127
1, 19312, Note_on_c, 0, 59, 0
1, 19412, Note_on_c, 0, 64, 25
1, 19415, Note_on_c, 0, 69, 26
1, 19506, Note_on_c, 0, 64, 0
1, 19534, Note_on_c, 0, 69, 0
1, 19718, Note_on_c, 0, 73, 63
1, 19744, Note_on_c, 0, 75, 0
1, 19760, Note_on_c, 0, 57, 32
1, 19850, Note_on_c, 0, 57, 0
1, 19882, Note_on_c, 0, 73, 0
1, 20004, Note_on_c, 0, 73, 53
1, 20032, Note_on_c, 0, 63, 32
1, 20044, Note_on_c, 0, 57, 30
1, 20047, Note_on_c, 0, 66, 12
1, 20116, Control_c, 0, 64, 0
1, 20348, Control_c, 0, 64, 127
1, 20394, Note_on_c, 0, 63, 0
1, 20420, Note_on_c, 0, 66, 0
1, 20682, Note_on_c, 0, 66, 21
1, 20685, Note_on_c, 0, 63, 27
1, 20850, Note_on_c, 0, 63, 0
1, 20964, Note_on_c, 0, 66, 0
1, 21212, Note_on_c, 0, 72, 54
1, 21240, Note_on_c, 0, 63, 28
1, 21264, Note_on_c, 0, 73, 0
1, 21296, Note_on_c, 0, 66, 24
1, 21446, Note_on_c, 0, 63, 0
1, 21462, Note_on_c, 0, 56, 51
1, 21490, Note_on_c, 0, 57, 0
1, 21510, Note_on_c, 0, 66, 0
1, 21708, Note_on_c, 0, 55, 62
1, 21710, Note_on_c, 0, 56, 0
1, 21710, Note_on_c, 0, 63, 36
1, 21734, Note_on_c, 0, 66, 34
1, 21900, Note_on_c, 0, 63, 0
1, 21952, Note_on_c, 0, 56, 63
1, 21986, Note_on_c, 0, 66, 0
1, 21986, Note_on_c, 0, 55, 0
1, 22206, Control_c, 0, 64, 0
1, 22254, Note_on_c, 0, 73, 59
1, 22282, Note_on_c, 0, 56, 0
1, 22290, Note_on_c, 0, 63, 15
1, 22306, Note_on_c, 0, 59, 28
1, 22309, Note_on_c, 0, 66, 9
1, 22404, Note_on_c, 0, 72, 0
1, 22544, Control_c, 0, 64, 127
1, 22556, Note_on_c, 0, 57, 29
1, 22558, Note_on_c, 0, 63, 0
1, 22560, Note_on_c, 0, 59, 0
1, 22584, Note_on_c, 0, 66, 0
1, 22784, Note_on_c, 0, 63, 23
1, 22787, Note_on_c, 0, 57, 0
1, 22808, Note_on_c, 0, 54, 36
1, 22828, Note_on_c, 0, 66, 16
1, 22938, Note_on_c, 0, 66, 0
1, 22960, Note_on_c, 0, 63, 0
1, 23024, Note_on_c, 0, 54, 0
1, 23048, Note_on_c, 0, 51, 50
1, 23322, Note_on_c, 0, 51, 0
1, 23394, Note_on_c, 0, 75, 46
1, 23426, Note_on_c, 0, 63, 20
1, 23430, Note_on_c, 0, 66, 22
1, 23430, Note_on_c, 0, 48, 31
1, 23466, Control_c, 0, 64, 0
1, 23506, Note_on_c, 0, 73, 0
1, 23788, Control_c, 0, 64, 127
1, 23806, Note_on_c, 0, 63, 0
1, 23838, Note_on_c, 0, 66, 0
1, 24098, Note_on_c, 0, 63, 26
1, 24108, Note_on_c, 0, 66, 15
1, 24290, Note_on_c, 0, 63, 0
1, 24352, Note_on_c, 0, 66, 0
1, 24510, Note_on_c, 0, 75, 0
1, 24832, Note_on_c, 0, 68, 34
1, 24848, Note_on_c, 0, 63, 24
1, 24878, Note_on_c, 0, 48, 0
1, 24922, Note_on_c, 0, 66, 3
1, 25112, Note_on_c, 0, 63, 0
1, 25138, Note_on_c, 0, 66, 0
1, 25326, Note_on_c, 0, 43, 50
1, 25344, Note_on_c, 0, 63, 26
1, 25364, Note_on_c, 0, 66, 20
1, 25502, Note_on_c, 0, 66, 0
1, 25548, Note_on_c, 0, 63, 0
1, 25562, Note_on_c, 0, 44, 60
1, 25602, Note_on_c, 0, 43, 0
1, 25700, Note_on_c, 0, 47, 50
1, 25744, Note_on_c, 0, 44, 0
1, 25760, Note_on_c, 0, 66, 28
1, 25776, Note_on_c, 0, 47, 0
1, 25776, Note_on_c, 0, 45, 43
1, 25776, Note_on_c, 0, 60, 19
1, 25832, Control_c, 0, 64, 0
1, 26002, Note_on_c, 0, 60, 0
1, 26016, Note_on_c, 0, 44, 62
1, 26034, Note_on_c, 0, 45, 0
1, 26062, Control_c, 0, 64, 127
1, 26067, Note_on_c, 0, 66, 0
1, 26272, Note_on_c, 0, 49, 58
1, 26276, Note_on_c, 0, 66, 44
1, 26276, Note_on_c, 0, 60, 46
1, 26283, Note_on_c, 0, 44, 0
1, 26310, Control_c, 0, 64, 0
1, 26432, Note_on_c, 0, 68, 0
1, 26478, Control_c, 0, 64, 127
1, 26546, Note_on_c, 0, 68, 71
1, 26568, Note_on_c, 0, 51, 57
1, 26576, Note_on_c, 0, 49, 0
1, 26760, Note_on_c, 0, 68, 0
1, 26790, Note_on_c, 0, 66, 0
1, 26854, Note_on_c, 0, 68, 60
1, 26884, Note_on_c, 0, 52, 63
1, 26892, Control_c, 0, 64, 0
1, 26908, Note_on_c, 0, 51, 0
1, 26992, Note_on_c, 0, 60, 0
1, 27276, Control_c, 0, 64, 127
1, 27414, Note_on_c, 0, 61, 43
1, 27604, Note_on_c, 0, 52, 0
1, 27742, Note_on_c, 0, 61, 0
1, 27966, Note_on_c, 0, 73, 66
1, 27992, Note_on_c, 0, 61, 33
1, 28006, Note_on_c, 0, 64, 44
1, 28010, Note_on_c, 0, 37, 43
1, 28092, Control_c, 0, 64, 0
1, 28095, Note_on_c, 0, 68, 0
1, 28099, Note_on_c, 0, 64, 0
1, 28250, Note_on_c, 0, 64, 2
1, 28276, Control_c, 0, 64, 127
1, 28304, Note_on_c, 0, 61, 0
1, 28324, Note_on_c, 0, 64, 0
1, 28454, Note_on_c, 0, 37, 0
1, 28544, Note_on_c, 0, 61, 36
1, 28566, Note_on_c, 0, 64, 45
1, 28766, Note_on_c, 0, 64, 0
1, 28838, Note_on_c, 0, 61, 0
1, 28846, Note_on_c, 0, 73, 0
1, 29034, Note_on_c, 0, 71, 86
1, 29062, Note_on_c, 0, 61, 41
1, 29088, Note_on_c, 0, 56, 55
1, 29108, Note_on_c, 0, 64, 25
1, 29132, Note_on_c, 0, 61, 0
1, 29192, Note_on_c, 0, 64, 0
1, 29538, Note_on_c, 0, 61, 32
1, 29541, Note_on_c, 0, 56, 0
1, 29548, Note_on_c, 0, 64, 53
1, 29656, Note_on_c, 0, 71, 0
1, 29806, Note_on_c, 0, 61, 0
1, 29846, Note_on_c, 0, 64, 0
1, 29878, Note_on_c, 0, 56, 64
1, 30080, Note_on_c, 0, 56, 0
1, 30148, Note_on_c, 0, 71, 72
1, 30168, Note_on_c, 0, 61, 20
1, 30196, Note_on_c, 0, 64, 23
1, 30246, Note_on_c, 0, 56, 42
1, 30280, Note_on_c, 0, 64, 0
1, 30288, Control_c, 0, 64, 0
1, 30456, Note_on_c, 0, 61, 0
1, 30488, Control_c, 0, 64, 127
1, 30754, Note_on_c, 0, 61, 34
1, 30778, Note_on_c, 0, 64, 41
1, 30920, Note_on_c, 0, 64, 0
1, 30974, Note_on_c, 0, 61, 0
1, 31352, Note_on_c, 0, 42, 37
1, 31388, Note_on_c, 0, 56, 0
1, 31432, Note_on_c, 0, 69, 46
1, 31446, Note_on_c, 0, 61, 31
1, 31518, Note_on_c, 0, 64, 12
1, 31532, Control_c, 0, 64, 0
1, 31586, Note_on_c, 0, 71, 0
1, 31716, Note_on_c, 0, 64, 0
1, 31732, Control_c, 0, 64, 127
1, 31748, Note_on_c, 0, 61, 0
1, 31876, Note_on_c, 0, 49, 61
1, 32044, Note_on_c, 0, 42, 0
1, 32130, Note_on_c, 0, 61, 23
1, 32190, Note_on_c, 0, 49, 0
1, 32210, Note_on_c, 0, 64, 13
1, 32226, Note_on_c, 0, 54, 79
1, 32280, Note_on_c, 0, 61, 0
1, 32288, Note_on_c, 0, 64, 0
1, 32550, Note_on_c, 0, 68, 66
1, 32566, Note_on_c, 0, 56, 50
1, 32580, Note_on_c, 0, 54, 0
1, 32583, Note_on_c, 0, 61, 20
1, 32588, Note_on_c, 0, 64, 40
1, 32630, Note_on_c, 0, 69, 0
1, 32732, Control_c, 0, 64, 0
1, 32878, Note_on_c, 0, 64, 0
1, 32892, Note_on_c, 0, 61, 0
1, 32900, Note_on_c, 0, 59, 52
1, 32932, Control_c, 0, 64, 127
1, 33106, Note_on_c, 0, 61, 40
1, 33132, Note_on_c, 0, 64, 42
1, 33140, Note_on_c, 0, 56, 0
1, 33300, Control_c, 0, 64, 0
1, 33326, Note_on_c, 0, 57, 52
1, 33331, Note_on_c, 0, 59, 0
1, 33454, Control_c, 0, 64, 127
1, 33496, Note_on_c, 0, 64, 0
1, 33532, Note_on_c, 0, 68, 0
1, 33542, Note_on_c, 0, 61, 0
1, 33596, Note_on_c, 0, 57, 0
1, 33804, Note_on_c, 0, 68, 52
1, 33826, Note_on_c, 0, 61, 32
1, 33840, Note_on_c, 0, 63, 25
1, 33862, Note_on_c, 0, 57, 34
1, 33898, Control_c, 0, 64, 0
1, 34160, Control_c, 0, 64, 127
1, 34230, Note_on_c, 0, 61, 0
1, 34232, Note_on_c, 0, 63, 0
1, 34538, Note_on_c, 0, 61, 32
1, 34550, Note_on_c, 0, 63, 36
1, 34646, Note_on_c, 0, 63, 0
1, 34766, Note_on_c, 0, 61, 0
1, 34834, Note_on_c, 0, 57, 0
1, 35130, Note_on_c, 0, 66, 40
1, 35166, Note_on_c, 0, 48, 33
1, 35178, Note_on_c, 0, 63, 22
1, 35196, Note_on_c, 0, 57, 5
1, 35220, Note_on_c, 0, 68, 0
1, 35236, Control_c, 0, 64, 0
1, 35466, Control_c, 0, 64, 127
1, 35518, Note_on_c, 0, 63, 0
1, 35544, Note_on_c, 0, 57, 0
1, 35826, Note_on_c, 0, 56, 20
1, 35842, Note_on_c, 0, 63, 31
1, 35912, Control_c, 0, 64, 0
1, 36096, Control_c, 0, 64, 127
1, 36166, Note_on_c, 0, 66, 0
1, 36174, Note_on_c, 0, 56, 0
1, 36234, Note_on_c, 0, 48, 0
1, 36374, Note_on_c, 0, 56, 32
1, 36376, Note_on_c, 0, 66, 41
1, 36384, Note_on_c, 0, 49, 32
1, 36412, Note_on_c, 0, 61, 27
1, 36462, Note_on_c, 0, 63, 0
1, 36476, Note_on_c, 0, 49, 0
1, 36518, Note_on_c, 0, 51, 43
1, 36566, Note_on_c, 0, 49, 44
1, 36584, Note_on_c, 0, 51, 0
1, 36648, Note_on_c, 0, 49, 0
1, 36670, Note_on_c, 0, 51, 46
1, 36688, Note_on_c, 0, 61, 0
1, 36724, Note_on_c, 0, 56, 0
1, 36726, Note_on_c, 0, 49, 55
1, 36730, Note_on_c, 0, 51, 0
1, 36782, Note_on_c, 0, 49, 0
1, 36822, Note_on_c, 0, 51, 40
1, 36856, Note_on_c, 0, 49, 64
1, 36882, Note_on_c, 0, 51, 0
1, 36912, Control_c, 0, 64, 0
1, 36994, Note_on_c, 0, 49, 0
1, 36994, Note_on_c, 0, 48, 44
1, 37034, Note_on_c, 0, 56, 30
1, 37044, Note_on_c, 0, 64, 54
1, 37052, Note_on_c, 0, 61, 28
1, 37190, Note_on_c, 0, 49, 48
1, 37244, Note_on_c, 0, 48, 0
1, 37256, Note_on_c, 0, 66, 0
1, 37346, Note_on_c, 0, 49, 0
1, 37352, Note_on_c, 0, 51, 42
1, 37355, Control_c, 0, 64, 127
1, 37404, Note_on_c, 0, 56, 0
1, 37410, Note_on_c, 0, 64, 0
1, 37420, Note_on_c, 0, 61, 0
1, 37450, Note_on_c, 0, 51, 0
1, 37510, Note_on_c, 0, 52, 36
1, 37752, Note_on_c, 0, 52, 0
1, 37766, Note_on_c, 0, 56, 26
1, 37772, Control_c, 0, 64, 0
1, 37778, Note_on_c, 0, 64, 41
1, 37786, Note_on_c, 0, 60, 29
1, 37840, Note_on_c, 0, 44, 40
1, 38094, Note_on_c, 0, 60, 0
1, 38140, Control_c, 0, 64, 127
1, 38174, Note_on_c, 0, 56, 0
1, 38596, Note_on_c, 0, 63, 35
1, 38622, Note_on_c, 0, 64, 0
1, 38622, Note_on_c, 0, 56, 19
1, 38625, Note_on_c, 0, 60, 18
1, 38678, Control_c, 0, 64, 0
1, 38878, Control_c, 0, 64, 127
1, 38944, Note_on_c, 0, 56, 0
1, 39294, Note_on_c, 0, 44, 0
1, 39358, Note_on_c, 0, 68, 33
1, 39361, Note_on_c, 0, 56, 24
1, 39366, Note_on_c, 0, 43, 54
1, 39584, Control_c, 0, 64, 0
1, 39700, Note_on_c, 0, 60, 0
1, 39770, Control_c, 0, 64, 127
1, 39798, Note_on_c, 0, 44, 65
1, 39870, Note_on_c, 0, 56, 0
1, 39872, Note_on_c, 0, 43, 0
1, 39878, Note_on_c, 0, 68, 0
1, 40082, Note_on_c, 0, 68, 55
1, 40082, Note_on_c, 0, 56, 49
1, 40085, Note_on_c, 0, 48, 67
1, 40136, Control_c, 0, 64, 0
1, 40194, Note_on_c, 0, 63, 0
1, 40278, Note_on_c, 0, 44, 0
1, 40322, Control_c, 0, 64, 127
1, 40332, Note_on_c, 0, 56, 0
1, 40354, Note_on_c, 0, 51, 79
1, 40438, Note_on_c, 0, 68, 0
1, 40448, Note_on_c, 0, 48, 0
1, 40646, Note_on_c, 0, 55, 84
1, 40648, Note_on_c, 0, 68, 48
1, 40658, Note_on_c, 0, 51, 0
1, 40670, Note_on_c, 0, 63, 45
1, 40673, Note_on_c, 0, 66, 35
1, 40752, Control_c, 0, 64, 0
1, 40936, Control_c, 0, 64, 127
1, 40990, Note_on_c, 0, 56, 72
1, 41010, Note_on_c, 0, 63, 0
1, 41050, Note_on_c, 0, 66, 0
1, 41066, Note_on_c, 0, 55, 0
1, 41070, Note_on_c, 0, 68, 0
1, 41278, Note_on_c, 0, 59, 53
1, 41322, Note_on_c, 0, 68, 50
1, 41360, Note_on_c, 0, 66, 28
1, 41362, Note_on_c, 0, 57, 68
1, 41364, Note_on_c, 0, 63, 36
1, 41366, Note_on_c, 0, 59, 0
1, 41398, Control_c, 0, 64, 0
1, 41404, Note_on_c, 0, 56, 0
1, 41658, Control_c, 0, 64, 127
1, 41704, Note_on_c, 0, 63, 0
1, 41728, Note_on_c, 0, 66, 0
1, 41731, Note_on_c, 0, 68, 0
1, 41956, Note_on_c, 0, 56, 78
1, 41983, Note_on_c, 0, 57, 0
1, 42142, Note_on_c, 0, 49, 45
1, 42166, Note_on_c, 0, 56, 0
1, 42426, Note_on_c, 0, 64, 92
1, 42564, Control_c, 0, 64, 0
1, 43072, Control_c, 0, 64, 127
1, 43108, Note_on_c, 0, 49, 0
1, 43148, Note_on_c, 0, 73, 33
1, 43148, Note_on_c, 0, 68, 32
1, 43340, Note_on_c, 0, 68, 0
1, 43512, Note_on_c, 0, 73, 0
1, 43788, Note_on_c, 0, 73, 36
1, 43794, Note_on_c, 0, 68, 20
1, 44016, Note_on_c, 0, 68, 0
1, 44080, Note_on_c, 0, 73, 0
1, 44316, Note_on_c, 0, 68, 35
1, 44319, Note_on_c, 0, 73, 38
1, 44586, Note_on_c, 0, 68, 0
1, 44656, Note_on_c, 0, 73, 0
1, 44870, Note_on_c, 0, 68, 31
1, 44870, Note_on_c, 0, 63, 65
1, 44870, Note_on_c, 0, 73, 37
1, 44996, Note_on_c, 0, 64, 0
1, 45070, Control_c, 0, 64, 0
1, 45238, Note_on_c, 0, 68, 0
1, 45254, Control_c, 0, 64, 127
1, 45294, Note_on_c, 0, 73, 0
1, 45478, Note_on_c, 0, 68, 43
1, 45486, Note_on_c, 0, 73, 36
1, 45540, Note_on_c, 0, 68, 0
1, 45552, Note_on_c, 0, 73, 0
1, 45786, Note_on_c, 0, 61, 73
1, 45856, Note_on_c, 0, 63, 0
1, 46096, Note_on_c, 0, 61, 0
1, 46180, Note_on_c, 0, 76, 63
1, 46204, Note_on_c, 0, 64, 33
1, 46216, Note_on_c, 0, 69, 18
1, 46219, Note_on_c, 0, 61, 17
1, 46314, Control_c, 0, 64, 0
1, 46560, Control_c, 0, 64, 127
1, 46592, Note_on_c, 0, 69, 0
1, 46610, Note_on_c, 0, 64, 0
1, 46858, Note_on_c, 0, 69, 23
1, 46876, Note_on_c, 0, 64, 19
1, 47094, Note_on_c, 0, 69, 0
1, 47100, Note_on_c, 0, 64, 0
1, 47400, Note_on_c, 0, 64, 29
1, 47406, Note_on_c, 0, 69, 24
1, 47632, Note_on_c, 0, 64, 0
1, 47668, Note_on_c, 0, 69, 0
1, 47882, Note_on_c, 0, 64, 47
1, 47888, Note_on_c, 0, 69, 32
1, 47988, Note_on_c, 0, 61, 0
1, 48004, Note_on_c, 0, 60, 48
1, 48022, Note_on_c, 0, 64, 0
1, 48044, Note_on_c, 0, 69, 0
1, 48176, Note_on_c, 0, 63, 63
1, 48200, Note_on_c, 0, 60, 0
1, 48328, Note_on_c, 0, 61, 64
1, 48358, Note_on_c, 0, 63, 0
1, 48528, Note_on_c, 0, 75, 65
1, 48576, Note_on_c, 0, 64, 9
1, 48594, Note_on_c, 0, 61, 0
1, 48597, Note_on_c, 0, 69, 5
1, 48614, Note_on_c, 0, 76, 0
1, 48636, Note_on_c, 0, 59, 39
1, 48696, Control_c, 0, 64, 0
1, 48914, Note_on_c, 0, 69, 0
1, 48946, Note_on_c, 0, 64, 0
1, 48988, Control_c, 0, 64, 127
1, 49206, Note_on_c, 0, 64, 33
1, 49206, Note_on_c, 0, 69, 27
1, 49304, Note_on_c, 0, 64, 0
1, 49316, Note_on_c, 0, 59, 0
1, 49430, Note_on_c, 0, 69, 0
1, 49612, Note_on_c, 0, 73, 62
1, 49640, Note_on_c, 0, 57, 35
1, 49672, Note_on_c, 0, 75, 0
1, 49700, Note_on_c, 0, 57, 0
1, 49790, Note_on_c, 0, 73, 0
1, 50132, Note_on_c, 0, 73, 44
1, 50146, Note_on_c, 0, 63, 26
1, 50172, Note_on_c, 0, 69, 18
1, 50190, Note_on_c, 0, 35, 29
1, 50248, Control_c, 0, 64, 0
1, 50494, Control_c, 0, 64, 127
1, 50544, Note_on_c, 0, 63, 0
1, 50608, Note_on_c, 0, 69, 0
1, 50808, Note_on_c, 0, 35, 0
1, 50896, Note_on_c, 0, 63, 28
1, 50922, Note_on_c, 0, 69, 20
1, 50932, Note_on_c, 0, 42, 27
1, 51110, Note_on_c, 0, 63, 0
1, 51154, Note_on_c, 0, 42, 0
1, 51206, Note_on_c, 0, 69, 0
1, 51252, Note_on_c, 0, 47, 40
1, 51480, Note_on_c, 0, 47, 0
1, 51558, Note_on_c, 0, 63, 24
1, 51562, Note_on_c, 0, 51, 43
1, 51576, Note_on_c, 0, 69, 17
1, 51724, Note_on_c, 0, 63, 0
1, 51740, Note_on_c, 0, 69, 0
1, 51816, Note_on_c, 0, 51, 0
1, 51816, Note_on_c, 0, 54, 57
1, 52006, Note_on_c, 0, 54, 0
1, 52082, Note_on_c, 0, 57, 50
1, 52104, Note_on_c, 0, 69, 22
1, 52106, Note_on_c, 0, 63, 26
1, 52228, Note_on_c, 0, 63, 0
1, 52298, Note_on_c, 0, 69, 0
1, 52302, Note_on_c, 0, 57, 0
1, 52354, Note_on_c, 0, 59, 54
1, 52682, Note_on_c, 0, 59, 0
1, 52700, Note_on_c, 0, 71, 49
1, 52750, Note_on_c, 0, 69, 6
1, 52786, Note_on_c, 0, 63, 38
1, 52876, Control_c, 0, 64, 0
1, 52944, Note_on_c, 0, 73, 0
1, 53028, Control_c, 0, 64, 127
1, 53086, Note_on_c, 0, 63, 0
1, 53154, Note_on_c, 0, 61, 40
1, 53340, Note_on_c, 0, 61, 0
1, 53584, Note_on_c, 0, 61, 30
1, 53592, Note_on_c, 0, 63, 25
1, 53632, Note_on_c, 0, 66, 8
1, 53776, Note_on_c, 0, 61, 0
1, 53800, Note_on_c, 0, 63, 0
1, 53840, Note_on_c, 0, 71, 0
1, 53852, Note_on_c, 0, 66, 0
1, 53864, Note_on_c, 0, 69, 0
1, 53864, Note_on_c, 0, 59, 32
1, 53936, Note_on_c, 0, 59, 0
1, 54068, Note_on_c, 0, 57, 29
1, 54186, Note_on_c, 0, 57, 0
1, 54390, Note_on_c, 0, 71, 41
1, 54420, Note_on_c, 0, 66, 16
1, 54426, Note_on_c, 0, 62, 19
1, 54450, Note_on_c, 0, 56, 25
1, 54504, Control_c, 0, 64, 0
1, 54764, Control_c, 0, 64, 127
1, 54850, Note_on_c, 0, 62, 0
1, 54880, Note_on_c, 0, 66, 0
1, 55162, Note_on_c, 0, 66, 23
1, 55188, Note_on_c, 0, 62, 19
1, 55362, Note_on_c, 0, 62, 0
1, 55440, Note_on_c, 0, 66, 0
1, 55766, Note_on_c, 0, 65, 19
1, 55766, Note_on_c, 0, 62, 24
1, 55826, Control_c, 0, 64, 0
1, 56024, Control_c, 0, 64, 127
1, 56096, Note_on_c, 0, 62, 0
1, 56098, Note_on_c, 0, 65, 0
1, 56206, Note_on_c, 0, 56, 0
1, 56286, Note_on_c, 0, 62, 38
1, 56286, Note_on_c, 0, 65, 29
1, 56526, Note_on_c, 0, 62, 0
1, 56534, Note_on_c, 0, 71, 0
1, 56556, Note_on_c, 0, 65, 0
1, 56632, Note_on_c, 0, 56, 55
1, 56920, Note_on_c, 0, 56, 0
1, 56986, Note_on_c, 0, 59, 35
1, 57024, Note_on_c, 0, 61, 33
1, 57028, Note_on_c, 0, 71, 61
1, 57042, Note_on_c, 0, 65, 28
1, 57062, Note_on_c, 0, 59, 0
1, 57070, Control_c, 0, 64, 0
1, 57076, Note_on_c, 0, 57, 38
1, 57378, Control_c, 0, 64, 127
1, 57384, Note_on_c, 0, 61, 0
1, 57412, Note_on_c, 0, 65, 0
1, 57600, Note_on_c, 0, 61, 36
1, 57620, Note_on_c, 0, 65, 27
1, 57636, Note_on_c, 0, 57, 0
1, 57642, Note_on_c, 0, 71, 0
1, 57704, Note_on_c, 0, 61, 0
1, 57707, Note_on_c, 0, 65, 0
1, 57896, Note_on_c, 0, 56, 31
1, 58032, Note_on_c, 0, 71, 79
1, 58120, Note_on_c, 0, 56, 0
1, 58186, Note_on_c, 0, 71, 0
1, 58344, Note_on_c, 0, 71, 66
1, 58358, Note_on_c, 0, 61, 25
1, 58366, Note_on_c, 0, 56, 37
1, 58406, Note_on_c, 0, 66, 4
1, 58408, Control_c, 0, 64, 0
1, 58652, Control_c, 0, 64, 127
1, 58692, Note_on_c, 0, 61, 0
1, 58736, Note_on_c, 0, 66, 0
1, 59008, Note_on_c, 0, 61, 30
1, 59032, Note_on_c, 0, 66, 21
1, 59178, Note_on_c, 0, 61, 0
1, 59194, Note_on_c, 0, 66, 0
1, 59538, Note_on_c, 0, 56, 0
1, 59666, Note_on_c, 0, 61, 26
1, 59676, Note_on_c, 0, 69, 32
1, 59682, Note_on_c, 0, 42, 32
1, 59702, Note_on_c, 0, 66, 16
1, 59744, Control_c, 0, 64, 0
1, 59820, Note_on_c, 0, 71, 0
1, 59988, Control_c, 0, 64, 127
1, 60002, Note_on_c, 0, 61, 0
1, 60014, Note_on_c, 0, 66, 0
1, 60226, Note_on_c, 0, 61, 28
1, 60260, Note_on_c, 0, 66, 17
1, 60376, Note_on_c, 0, 61, 0
1, 60432, Note_on_c, 0, 66, 0
1, 60484, Note_on_c, 0, 42, 0
1, 60536, Note_on_c, 0, 49, 34
1, 60750, Note_on_c, 0, 49, 0
1, 60824, Note_on_c, 0, 61, 28
1, 60828, Note_on_c, 0, 66, 19
1, 60832, Note_on_c, 0, 54, 55
1, 61004, Note_on_c, 0, 61, 0
1, 61052, Note_on_c, 0, 66, 0
1, 61054, Note_on_c, 0, 54, 0
1, 61094, Note_on_c, 0, 56, 55
1, 61336, Note_on_c, 0, 57, 64
1, 61350, Note_on_c, 0, 66, 35
1, 61350, Note_on_c, 0, 61, 36
1, 61370, Note_on_c, 0, 56, 0
1, 61518, Note_on_c, 0, 61, 0
1, 61544, Note_on_c, 0, 66, 0
1, 61596, Note_on_c, 0, 59, 70
1, 61606, Note_on_c, 0, 57, 0
1, 61844, Note_on_c, 0, 59, 0
1, 61866, Note_on_c, 0, 66, 44
1, 61872, Note_on_c, 0, 60, 59
1, 61956, Control_c, 0, 64, 0
1, 62102, Note_on_c, 0, 66, 0
1, 62132, Note_on_c, 0, 56, 58
1, 62140, Control_c, 0, 64, 127
1, 62195, Note_on_c, 0, 60, 0
1, 62402, Note_on_c, 0, 66, 30
1, 62405, Note_on_c, 0, 57, 49
1, 62416, Control_c, 0, 64, 0
1, 62418, Note_on_c, 0, 64, 35
1, 62428, Note_on_c, 0, 56, 0
1, 62648, Control_c, 0, 64, 127
1, 62650, Note_on_c, 0, 57, 0
1, 62660, Note_on_c, 0, 59, 52
1, 62674, Note_on_c, 0, 64, 0
1, 62700, Note_on_c, 0, 66, 0
1, 62924, Note_on_c, 0, 59, 0
1, 62950, Note_on_c, 0, 60, 37
1, 62952, Note_on_c, 0, 64, 30
1, 62954, Control_c, 0, 64, 0
1, 62960, Note_on_c, 0, 66, 18
1, 63200, Control_c, 0, 64, 127
1, 63232, Note_on_c, 0, 64, 0
1, 63248, Note_on_c, 0, 66, 0
1, 63278, Note_on_c, 0, 57, 31
1, 63354, Note_on_c, 0, 60, 0
1, 63580, Note_on_c, 0, 58, 20
1, 63585, Note_on_c, 0, 66, 17
1, 63594, Note_on_c, 0, 57, 0
1, 63600, Note_on_c, 0, 64, 21
1, 63616, Control_c, 0, 64, 0
1, 63896, Note_on_c, 0, 59, 41
1, 63928, Note_on_c, 0, 58, 0
1, 63968, Control_c, 0, 64, 127
1, 63996, Note_on_c, 0, 64, 0
1, 64034, Note_on_c, 0, 66, 0
1, 64272, Note_on_c, 0, 59, 0
1, 64280, Note_on_c, 0, 66, 18
1, 64298, Note_on_c, 0, 60, 29
1, 64301, Note_on_c, 0, 64, 23
1, 64338, Control_c, 0, 64, 0
1, 64568, Control_c, 0, 64, 127
1, 64662, Note_on_c, 0, 64, 0
1, 64678, Note_on_c, 0, 66, 0
1, 64930, Note_on_c, 0, 66, 20
1, 64942, Note_on_c, 0, 64, 22
1, 65174, Note_on_c, 0, 64, 0
1, 65186, Note_on_c, 0, 66, 0
1, 65552, Note_on_c, 0, 64, 17
1, 65555, Note_on_c, 0, 66, 13
1, 65930, Note_on_c, 0, 60, 0
1, 65932, Note_on_c, 0, 59, 20
1, 65972, Note_on_c, 0, 64, 0
1, 65996, Note_on_c, 0, 66, 0
1, 66282, Note_on_c, 0, 66, 14
1, 66290, Note_on_c, 0, 59, 0
1, 66290, Note_on_c, 0, 64, 22
1, 66298, Note_on_c, 0, 62, 24
1, 66512, Note_on_c, 0, 64, 0
1, 66520, Note_on_c, 0, 66, 0
1, 66552, Note_on_c, 0, 62, 0
1, 66580, Note_on_c, 0, 60, 31
1, 66854, Note_on_c, 0, 66, 21
1, 66858, Control_c, 0, 64, 0
1, 66862, Note_on_c, 0, 64, 25
1, 66868, Note_on_c, 0, 60, 0
1, 66874, Note_on_c, 0, 59, 27
1, 67026, Control_c, 0, 64, 127
1, 67126, Note_on_c, 0, 59, 0
1, 67132, Note_on_c, 0, 56, 41
1, 67172, Note_on_c, 0, 64, 0
1, 67175, Note_on_c, 0, 66, 0
1, 67414, Note_on_c, 0, 56, 0
1, 67416, Note_on_c, 0, 59, 42
1, 67420, Note_on_c, 0, 66, 24
1, 67426, Note_on_c, 0, 64, 30
1, 67486, Control_c, 0, 64, 0
1, 67656, Control_c, 0, 64, 127
1, 67668, Note_on_c, 0, 64, 0
1, 67678, Note_on_c, 0, 59, 0
1, 67680, Note_on_c, 0, 57, 38
1, 67690, Note_on_c, 0, 66, 0
1, 67918, Note_on_c, 0, 57, 0
1, 67948, Note_on_c, 0, 66, 19
1, 67958, Note_on_c, 0, 64, 23
1, 67958, Note_on_c, 0, 60, 37
1, 67980, Control_c, 0, 64, 0
1, 68164, Control_c, 0, 64, 127
1, 68200, Note_on_c, 0, 60, 0
1, 68200, Note_on_c, 0, 64, 0
1, 68226, Note_on_c, 0, 57, 25
1, 68236, Note_on_c, 0, 66, 0
1, 68514, Note_on_c, 0, 57, 0
1, 68548, Note_on_c, 0, 64, 21
1, 68550, Note_on_c, 0, 66, 13
1, 68550, Note_on_c, 0, 52, 30
1, 68718, Note_on_c, 0, 64, 0
1, 68748, Note_on_c, 0, 52, 0
1, 68766, Note_on_c, 0, 66, 0
1, 68874, Note_on_c, 0, 48, 24
1, 69150, Note_on_c, 0, 48, 0
1, 69226, Note_on_c, 0, 57, 22
1, 69230, Note_on_c, 0, 72, 59
1, 69266, Note_on_c, 0, 64, 24
1, 69276, Note_on_c, 0, 66, 14
1, 69332, Control_c, 0, 64, 0
1, 69364, Note_on_c, 0, 69, 0
1, 69556, Note_on_c, 0, 57, 0
1, 69562, Control_c, 0, 64, 127
1, 69568, Note_on_c, 0, 56, 31
1, 69602, Note_on_c, 0, 64, 0
1, 69626, Note_on_c, 0, 66, 0
1, 69842, Note_on_c, 0, 56, 0
1, 69860, Note_on_c, 0, 66, 22
1, 69878, Note_on_c, 0, 64, 27
1, 69881, Note_on_c, 0, 59, 34
1, 70080, Note_on_c, 0, 64, 0
1, 70112, Note_on_c, 0, 59, 0
1, 70136, Note_on_c, 0, 57, 42
1, 70368, Note_on_c, 0, 57, 0
1, 70376, Note_on_c, 0, 54, 47
1, 70379, Note_on_c, 0, 69, 38
1, 70406, Note_on_c, 0, 64, 25
1, 70464, Note_on_c, 0, 66, 0
1, 70590, Control_c, 0, 64, 0
1, 70638, Note_on_c, 0, 53, 86
1, 70656, Note_on_c, 0, 54, 0
1, 70714, Note_on_c, 0, 64, 0
1, 70714, Control_c, 0, 64, 127
1, 70722, Note_on_c, 0, 69, 0
1, 70894, Note_on_c, 0, 69, 35
1, 70896, Note_on_c, 0, 53, 0
1, 70902, Note_on_c, 0, 64, 39
1, 70905, Note_on_c, 0, 55, 60
1, 70990, Control_c, 0, 64, 0
1, 71162, Note_on_c, 0, 54, 64
1, 71186, Note_on_c, 0, 55, 0
1, 71236, Note_on_c, 0, 64, 0
1, 71282, Control_c, 0, 64, 127
1, 71456, Note_on_c, 0, 54, 0
1, 71486, Note_on_c, 0, 64, 31
1, 71492, Note_on_c, 0, 57, 38
1, 71508, Note_on_c, 0, 66, 24
1, 71528, Control_c, 0, 64, 0
1, 71696, Note_on_c, 0, 69, 0
1, 71774, Control_c, 0, 64, 127
1, 71842, Note_on_c, 0, 57, 0
1, 71842, Note_on_c, 0, 54, 47
1, 71878, Note_on_c, 0, 64, 0
1, 71920, Note_on_c, 0, 66, 0
1, 72134, Note_on_c, 0, 54, 0
1, 72146, Note_on_c, 0, 48, 34
1, 72156, Note_on_c, 0, 64, 27
1, 72158, Note_on_c, 0, 66, 15
1, 72260, Note_on_c, 0, 72, 0
1, 72336, Note_on_c, 0, 66, 0
1, 72410, Note_on_c, 0, 48, 0
1, 72428, Note_on_c, 0, 72, 70
1, 72462, Note_on_c, 0, 45, 37
1, 72544, Note_on_c, 0, 64, 0
1, 72700, Note_on_c, 0, 72, 0
1, 72906, Note_on_c, 0, 72, 67
1, 72924, Note_on_c, 0, 45, 0
1, 72932, Note_on_c, 0, 68, 28
1, 72935, Note_on_c, 0, 47, 32
1, 72935, Note_on_c, 0, 64, 36
1, 72942, Control_c, 0, 64, 0
1, 73342, Control_c, 0, 64, 127
1, 73354, Note_on_c, 0, 64, 0
1, 73354, Note_on_c, 0, 68, 0
1, 73364, Note_on_c, 0, 52, 52
1, 73382, Note_on_c, 0, 47, 0
1, 73626, Note_on_c, 0, 52, 0
1, 73694, Note_on_c, 0, 56, 40
1, 73694, Note_on_c, 0, 68, 26
1, 73722, Note_on_c, 0, 64, 20
1, 73854, Note_on_c, 0, 64, 0
1, 73900, Note_on_c, 0, 68, 0
1, 73978, Note_on_c, 0, 56, 0
1, 73990, Note_on_c, 0, 52, 46
1, 74082, Note_on_c, 0, 52, 0
1, 74398, Note_on_c, 0, 71, 48
1, 74421, Note_on_c, 0, 68, 17
1, 74440, Note_on_c, 0, 64, 17
1, 74464, Note_on_c, 0, 59, 42
1, 74556, Control_c, 0, 64, 0
1, 74588, Note_on_c, 0, 72, 0
1, 74786, Note_on_c, 0, 64, 0
1, 74786, Control_c, 0, 64, 127
1, 74822, Note_on_c, 0, 68, 0
1, 75056, Note_on_c, 0, 68, 31
1, 75092, Note_on_c, 0, 64, 22
1, 75238, Note_on_c, 0, 64, 0
1, 75324, Note_on_c, 0, 68, 0
1, 75640, Note_on_c, 0, 68, 30
1, 75658, Note_on_c, 0, 64, 28
1, 75908, Note_on_c, 0, 64, 0
1, 75960, Note_on_c, 0, 68, 0
1, 76316, Note_on_c, 0, 56, 63
1, 76316, Note_on_c, 0, 68, 32
1, 76342, Note_on_c, 0, 64, 25
1, 76348, Note_on_c, 0, 59, 0
1, 76522, Note_on_c, 0, 64, 0
1, 76860, Note_on_c, 0, 68, 0
1, 76914, Note_on_c, 0, 64, 77
1, 76954, Note_on_c, 0, 71, 0
1, 76978, Note_on_c, 0, 56, 0
1, 77044, Control_c, 0, 64, 0
1, 77228, Control_c, 0, 64, 127
1, 77362, Note_on_c, 0, 59, 73
1, 77374, Note_on_c, 0, 64, 0
1, 77722, Note_on_c, 0, 68, 36
1, 77730, Note_on_c, 0, 61, 68
1, 77736, Note_on_c, 0, 64, 37
1, 77766, Control_c, 0, 64, 0
1, 77812, Note_on_c, 0, 59, 0
1, 77996, Control_c, 0, 64, 127
1, 78014, Note_on_c, 0, 64, 0
1, 78076, Note_on_c, 0, 68, 0
1, 78170, Note_on_c, 0, 56, 59
1, 78318, Note_on_c, 0, 68, 41
1, 78332, Note_on_c, 0, 61, 0
1, 78332, Note_on_c, 0, 59, 67
1, 78335, Control_c, 0, 64, 0
1, 78338, Note_on_c, 0, 64, 40
1, 78410, Note_on_c, 0, 56, 0
1, 78658, Control_c, 0, 64, 127
1, 78704, Note_on_c, 0, 64, 0
1, 78750, Note_on_c, 0, 68, 0
1, 78948, Note_on_c, 0, 68, 44
1, 78974, Note_on_c, 0, 64, 32
1, 79050, Note_on_c, 0, 64, 0
1, 79196, Note_on_c, 0, 68, 0
1, 79624, Note_on_c, 0, 68, 37
1, 79646, Note_on_c, 0, 61, 55
1, 79649, Note_on_c, 0, 59, 0
1, 79664, Note_on_c, 0, 64, 25
1, 79686, Control_c, 0, 64, 0
1, 79872, Control_c, 0, 64, 127
1, 79942, Note_on_c, 0, 64, 0
1, 79980, Note_on_c, 0, 56, 52
1, 80004, Note_on_c, 0, 68, 0
1, 80048, Note_on_c, 0, 61, 0
1, 80280, Note_on_c, 0, 68, 33
1, 80302, Control_c, 0, 64, 0
1, 80312, Note_on_c, 0, 64, 23
1, 80317, Note_on_c, 0, 59, 34
1, 80366, Note_on_c, 0, 56, 0
1, 80516, Note_on_c, 0, 64, 0
1, 80532, Control_c, 0, 64, 127
1, 80732, Note_on_c, 0, 68, 0
1, 80786, Note_on_c, 0, 59, 0
1, 80946, Note_on_c, 0, 52, 30
1, 81030, Note_on_c, 0, 52, 0
1, 81170, Note_on_c, 0, 71, 47
1, 81204, Note_on_c, 0, 59, 16
1, 81206, Note_on_c, 0, 56, 28
1, 81206, Note_on_c, 0, 64, 21
1, 81238, Control_c, 0, 64, 0
1, 81470, Control_c, 0, 64, 127
1, 81516, Note_on_c, 0, 64, 0
1, 81554, Note_on_c, 0, 59, 0
1, 81878, Note_on_c, 0, 64, 29
1, 81894, Note_on_c, 0, 59, 14
1, 82058, Note_on_c, 0, 64, 0
1, 82102, Note_on_c, 0, 59, 0
1, 82496, Note_on_c, 0, 59, 20
1, 82502, Note_on_c, 0, 64, 29
1, 82778, Note_on_c, 0, 64, 0
1, 82790, Note_on_c, 0, 46, 36
1, 82842, Note_on_c, 0, 59, 0
1, 83100, Note_on_c, 0, 49, 37
1, 83114, Control_c, 0, 64, 0
1, 83122, Note_on_c, 0, 64, 23
1, 83132, Note_on_c, 0, 59, 7
1, 83220, Note_on_c, 0, 46, 0
1, 83358, Control_c, 0, 64, 127
1, 83404, Control_c, 0, 64, 0
1, 83474, Note_on_c, 0, 49, 0
1, 83477, Note_on_c, 0, 47, 37
1, 83606, Control_c, 0, 64, 127
1, 83638, Note_on_c, 0, 71, 0
1, 83642, Note_on_c, 0, 64, 0
1, 83666, Note_on_c, 0, 59, 0
1, 83902, Note_on_c, 0, 56, 0
1, 83966, Note_on_c, 0, 71, 45
1, 83980, Note_on_c, 0, 47, 0
1, 83986, Note_on_c, 0, 63, 26
1, 83989, Note_on_c, 0, 69, 20
1, 83989, Control_c, 0, 64, 0
1, 83994, Note_on_c, 0, 59, 16
1, 84032, Note_on_c, 0, 54, 42
1, 84296, Control_c, 0, 64, 127
1, 84408, Note_on_c, 0, 69, 0
1, 84410, Note_on_c, 0, 63, 0
1, 84414, Note_on_c, 0, 59, 0
1, 84826, Note_on_c, 0, 63, 27
1, 84838, Note_on_c, 0, 59, 17
1, 84838, Note_on_c, 0, 69, 14
1, 84910, Note_on_c, 0, 54, 0
1, 85044, Note_on_c, 0, 59, 0
1, 85068, Note_on_c, 0, 63, 0
1, 85076, Note_on_c, 0, 69, 0
1, 85122, Note_on_c, 0, 71, 0
1, 85174, Note_on_c, 0, 52, 52
1, 85392, Note_on_c, 0, 52, 0
1, 85544, Note_on_c, 0, 68, 23
1, 85580, Note_on_c, 0, 71, 37
1, 85590, Note_on_c, 0, 64, 29
1, 85616, Note_on_c, 0, 59, 4
1, 85622, Note_on_c, 0, 52, 24
1, 85680, Control_c, 0, 64, 0
1, 85896, Control_c, 0, 64, 127
1, 85910, Note_on_c, 0, 64, 0
1, 85984, Note_on_c, 0, 68, 0
1, 86010, Note_on_c, 0, 59, 0
1, 86256, Note_on_c, 0, 68, 36
1, 86280, Note_on_c, 0, 59, 20
1, 86308, Note_on_c, 0, 64, 27
1, 86374, Note_on_c, 0, 71, 0
1, 86410, Note_on_c, 0, 59, 0
1, 86416, Note_on_c, 0, 64, 0
1, 86520, Note_on_c, 0, 68, 0
1, 86868, Note_on_c, 0, 68, 38
1, 86872, Note_on_c, 0, 64, 38
1, 86874, Note_on_c, 0, 71, 71
1, 86936, Note_on_c, 0, 64, 0
1, 86944, Note_on_c, 0, 68, 0
1, 87070, Note_on_c, 0, 71, 0
1, 87420, Note_on_c, 0, 76, 54
1, 87428, Note_on_c, 0, 68, 32
1, 87436, Note_on_c, 0, 71, 36
1, 87530, Note_on_c, 0, 71, 0
1, 87532, Note_on_c, 0, 68, 0
1, 87612, Note_on_c, 0, 76, 0
1, 87952, Note_on_c, 0, 52, 0
1, 87992, Note_on_c, 0, 80, 59
1, 88030, Note_on_c, 0, 71, 18
1, 88036, Note_on_c, 0, 76, 10
1, 88124, Note_on_c, 0, 71, 0
1, 88144, Note_on_c, 0, 76, 0
1, 88242, Note_on_c, 0, 80, 0
1, 88648, Note_on_c, 0, 76, 42
1, 88656, Note_on_c, 0, 68, 36
1, 88680, Note_on_c, 0, 71, 26
1, 88780, Note_on_c, 0, 71, 0
1, 88818, Note_on_c, 0, 68, 0
1, 89016, Note_on_c, 0, 76, 0
1, 89304, Note_on_c, 0, 73, 73
1, 89332, Note_on_c, 0, 70, 30
1, 89344, Note_on_c, 0, 64, 82
1, 89364, Note_on_c, 0, 67, 18
1, 89522, Control_c, 0, 64, 0
1, 89736, Control_c, 0, 64, 127
1, 89740, Note_on_c, 0, 70, 0
1, 89772, Note_on_c, 0, 67, 0
1, 89982, Note_on_c, 0, 70, 36
1, 89988, Note_on_c, 0, 67, 47
1, 90232, Note_on_c, 0, 67, 0
1, 90248, Note_on_c, 0, 70, 0
1, 90554, Note_on_c, 0, 75, 70
1, 90560, Note_on_c, 0, 67, 42
1, 90564, Note_on_c, 0, 70, 37
1, 90564, Note_on_c, 0, 63, 74
1, 90634, Note_on_c, 0, 64, 0
1, 90734, Control_c, 0, 64, 0
1, 90816, Note_on_c, 0, 73, 0
1, 90874, Note_on_c, 0, 70, 0
1, 90892, Note_on_c, 0, 67, 0
1, 90920, Control_c, 0, 64, 127
1, 91050, Note_on_c, 0, 70, 52
1, 91052, Note_on_c, 0, 67, 44
1, 91076, Note_on_c, 0, 75, 0
1, 91168, Note_on_c, 0, 75, 56
1, 91282, Note_on_c, 0, 70, 0
1, 91308, Note_on_c, 0, 76, 74
1, 91314, Note_on_c, 0, 75, 0
1, 91410, Note_on_c, 0, 75, 52
1, 91480, Note_on_c, 0, 76, 0
1, 91498, Note_on_c, 0, 74, 75
1, 91526, Note_on_c, 0, 75, 0
1, 91550, Note_on_c, 0, 67, 0
1, 91598, Note_on_c, 0, 75, 69
1, 91648, Note_on_c, 0, 74, 0
1, 91726, Note_on_c, 0, 78, 85
1, 91750, Note_on_c, 0, 58, 50
1, 91756, Note_on_c, 0, 75, 0
1, 91756, Note_on_c, 0, 67, 52
1, 91766, Note_on_c, 0, 73, 38
1, 91882, Note_on_c, 0, 63, 0
1, 91902, Control_c, 0, 64, 0
1, 92102, Control_c, 0, 64, 127
1, 92218, Note_on_c, 0, 67, 0
1, 92224, Note_on_c, 0, 73, 0
1, 92390, Note_on_c, 0, 73, 34
1, 92396, Note_on_c, 0, 67, 31
1, 92464, Note_on_c, 0, 78, 0
1, 92552, Note_on_c, 0, 67, 0
1, 92624, Note_on_c, 0, 76, 73
1, 92694, Note_on_c, 0, 73, 0
1, 92934, Note_on_c, 0, 75, 66
1, 92958, Note_on_c, 0, 61, 50
1, 92958, Note_on_c, 0, 67, 30
1, 92964, Note_on_c, 0, 70, 18
1, 92984, Note_on_c, 0, 58, 0
1, 93020, Note_on_c, 0, 76, 0
1, 93070, Control_c, 0, 64, 0
1, 93300, Control_c, 0, 64, 127
1, 93350, Note_on_c, 0, 67, 0
1, 93384, Note_on_c, 0, 70, 0
1, 93536, Note_on_c, 0, 75, 0
1, 93678, Note_on_c, 0, 80, 61
1, 93708, Note_on_c, 0, 68, 19
1, 93720, Note_on_c, 0, 61, 0
1, 93934, Note_on_c, 0, 68, 0
1, 93937, Note_on_c, 0, 59, 20
1, 94010, Note_on_c, 0, 59, 0
1, 94038, Note_on_c, 0, 63, 43
1, 94128, Note_on_c, 0, 63, 0
1, 94168, Note_on_c, 0, 61, 48
1, 94258, Note_on_c, 0, 61, 0
1, 94284, Control_c, 0, 64, 0
1, 94288, Note_on_c, 0, 75, 38
1, 94288, Note_on_c, 0, 68, 21
1, 94304, Note_on_c, 0, 59, 41
1, 94500, Control_c, 0, 64, 127
1, 94518, Note_on_c, 0, 59, 0
1, 94538, Note_on_c, 0, 75, 0
1, 94556, Note_on_c, 0, 68, 0
1, 94864, Note_on_c, 0, 43, 54
1, 94870, Note_on_c, 0, 75, 47
1, 94878, Note_on_c, 0, 68, 27
1, 94916, Note_on_c, 0, 71, 36
1, 95036, Note_on_c, 0, 44, 72
1, 95038, Note_on_c, 0, 43, 0
1, 95190, Note_on_c, 0, 68, 0
1, 95195, Note_on_c, 0, 71, 0
1, 95200, Note_on_c, 0, 46, 50
1, 95206, Note_on_c, 0, 44, 0
1, 95212, Note_on_c, 0, 75, 0
1, 95350, Note_on_c, 0, 47, 75
1, 95356, Note_on_c, 0, 46, 0
1, 95418, Note_on_c, 0, 47, 0
1, 95498, Note_on_c, 0, 68, 38
1, 95508, Note_on_c, 0, 50, 78
1, 95514, Note_on_c, 0, 75, 39
1, 95522, Note_on_c, 0, 71, 48
1, 95528, Control_c, 0, 64, 0
1, 95676, Note_on_c, 0, 51, 76
1, 95684, Note_on_c, 0, 50, 0
1, 95714, Control_c, 0, 64, 127
1, 95796, Note_on_c, 0, 68, 0
1, 95812, Note_on_c, 0, 51, 0
1, 95818, Note_on_c, 0, 71, 0
1, 95822, Note_on_c, 0, 75, 0
1, 95826, Note_on_c, 0, 55, 82
1, 95952, Note_on_c, 0, 56, 76
1, 95964, Note_on_c, 0, 55, 0
1, 96082, Control_c, 0, 64, 0
1, 96120, Note_on_c, 0, 58, 66
1, 96130, Note_on_c, 0, 68, 52
1, 96140, Note_on_c, 0, 56, 0
1, 96140, Note_on_c, 0, 75, 57
1, 96143, Note_on_c, 0, 71, 67
1, 96266, Control_c, 0, 64, 127
1, 96274, Note_on_c, 0, 58, 0
1, 96288, Note_on_c, 0, 59, 78
1, 96334, Note_on_c, 0, 59, 0
1, 96434, Note_on_c, 0, 62, 74
1, 96460, Note_on_c, 0, 71, 0
1, 96490, Note_on_c, 0, 68, 0
1, 96520, Note_on_c, 0, 75, 0
1, 96556, Note_on_c, 0, 63, 81
1, 96574, Note_on_c, 0, 62, 0
1, 96670, Note_on_c, 0, 64, 83
1, 96698, Note_on_c, 0, 63, 0
1, 96730, Note_on_c, 0, 80, 0
1, 96760, Note_on_c, 0, 65, 87
1, 96766, Note_on_c, 0, 64, 0
1, 96836, Note_on_c, 0, 75, 89
1, 96844, Note_on_c, 0, 69, 64
1, 96847, Note_on_c, 0, 72, 69
1, 96864, Note_on_c, 0, 65, 0
1, 96868, Note_on_c, 0, 66, 89
1, 96928, Control_c, 0, 64, 0
1, 97158, Control_c, 0, 64, 127
1, 97244, Note_on_c, 0, 72, 0
1, 97270, Note_on_c, 0, 69, 0
1, 97448, Note_on_c, 0, 69, 59
1, 97458, Note_on_c, 0, 72, 73
1, 97692, Note_on_c, 0, 69, 0
1, 97724, Note_on_c, 0, 75, 0
1, 97740, Note_on_c, 0, 72, 0
1, 97926, Note_on_c, 0, 66, 0
1, 98006, Note_on_c, 0, 77, 92
1, 98012, Note_on_c, 0, 65, 89
1, 98018, Note_on_c, 0, 75, 61
1, 98020, Note_on_c, 0, 69, 59
1, 98156, Control_c, 0, 64, 0
1, 98310, Control_c, 0, 64, 127
1, 98338, Note_on_c, 0, 75, 0
1, 98354, Note_on_c, 0, 69, 0
1, 98402, Note_on_c, 0, 66, 75
1, 98424, Note_on_c, 0, 65, 0
1, 98554, Note_on_c, 0, 75, 68
1, 98557, Note_on_c, 0, 65, 81
1, 98557, Note_on_c, 0, 69, 50
1, 98570, Note_on_c, 0, 66, 0
1, 98674, Note_on_c, 0, 69, 0
1, 98678, Note_on_c, 0, 65, 0
1, 98682, Note_on_c, 0, 75, 0
1, 98710, Note_on_c, 0, 64, 98
1, 98862, Note_on_c, 0, 65, 95
1, 98910, Note_on_c, 0, 64, 0
1, 99050, Note_on_c, 0, 78, 95
1, 99072, Note_on_c, 0, 69, 46
1, 99072, Note_on_c, 0, 75, 49
1, 99106, Note_on_c, 0, 65, 0
1, 99130, Note_on_c, 0, 77, 0
1, 99148, Note_on_c, 0, 72, 97
1, 99186, Control_c, 0, 64, 0
1, 99366, Note_on_c, 0, 75, 0
1, 99384, Control_c, 0, 64, 127
1, 99510, Note_on_c, 0, 69, 0
1, 99694, Note_on_c, 0, 75, 62
1, 99694, Note_on_c, 0, 69, 53
1, 99778, Note_on_c, 0, 69, 0
1, 99788, Note_on_c, 0, 72, 0
1, 99858, Note_on_c, 0, 75, 0
1, 99870, Note_on_c, 0, 78, 0
1, 99996, Note_on_c, 0, 63, 91
1, 100180, Note_on_c, 0, 63, 0
1, 100186, Note_on_c, 0, 78, 89
1, 100200, Note_on_c, 0, 68, 50
1, 100200, Note_on_c, 0, 71, 69
1, 100262, Note_on_c, 0, 63, 74
1, 100446, Control_c, 0, 64, 0
1, 100596, Note_on_c, 0, 71, 0
1, 100614, Control_c, 0, 64, 127
1, 100628, Note_on_c, 0, 68, 0
1, 100806, Note_on_c, 0, 78, 0
1, 100866, Note_on_c, 0, 77, 96
1, 100878, Note_on_c, 0, 68, 56
1, 100896, Note_on_c, 0, 71, 43
1, 100958, Note_on_c, 0, 71, 0
1, 100958, Note_on_c, 0, 63, 0
1, 100978, Note_on_c, 0, 68, 0
1, 101058, Note_on_c, 0, 62, 80
1, 101102, Note_on_c, 0, 77, 0
1, 101166, Note_on_c, 0, 62, 0
1, 101206, Note_on_c, 0, 65, 71
1, 101362, Note_on_c, 0, 63, 75
1, 101382, Note_on_c, 0, 65, 0
1, 101480, Note_on_c, 0, 63, 0
1, 101494, Note_on_c, 0, 82, 83
1, 101502, Note_on_c, 0, 70, 38
1, 101512, Note_on_c, 0, 68, 57
1, 101538, Note_on_c, 0, 62, 64
1, 101550, Control_c, 0, 64, 0
1, 101734, Control_c, 0, 64, 127
1, 101746, Note_on_c, 0, 62, 0
1, 101756, Note_on_c, 0, 82, 0
1, 101840, Note_on_c, 0, 70, 0
1, 101890, Note_on_c, 0, 68, 0
1, 102086, Note_on_c, 0, 68, 57
1, 102088, Note_on_c, 0, 77, 74
1, 102092, Note_on_c, 0, 70, 47
1, 102134, Note_on_c, 0, 45, 28
1, 102228, Note_on_c, 0, 45, 0
1, 102280, Note_on_c, 0, 46, 69
1, 102414, Note_on_c, 0, 49, 78
1, 102426, Note_on_c, 0, 68, 0
1, 102434, Note_on_c, 0, 77, 0
1, 102434, Note_on_c, 0, 70, 0
1, 102444, Note_on_c, 0, 46, 0
1, 102544, Note_on_c, 0, 50, 92
1, 102548, Note_on_c, 0, 49, 0
1, 102632, Note_on_c, 0, 50, 0
1, 102672, Note_on_c, 0, 77, 79
1, 102672, Note_on_c, 0, 70, 55
1, 102674, Note_on_c, 0, 68, 55
1, 102676, Note_on_c, 0, 52, 97
1, 102804, Note_on_c, 0, 52, 0
1, 102814, Note_on_c, 0, 53, 107
1, 102922, Note_on_c, 0, 53, 0
1, 102942, Note_on_c, 0, 57, 71
1, 102958, Note_on_c, 0, 68, 0
1, 102970, Note_on_c, 0, 77, 0
1, 102982, Note_on_c, 0, 70, 0
1, 103066, Note_on_c, 0, 58, 77
1, 103074, Note_on_c, 0, 57, 0
1, 103242, Note_on_c, 0, 77, 87
1, 103245, Note_on_c, 0, 68, 62
1, 103248, Note_on_c, 0, 70, 62
1, 103264, Note_on_c, 0, 61, 67
1, 103348, Note_on_c, 0, 58, 0
1, 103416, Note_on_c, 0, 62, 81
1, 103418, Note_on_c, 0, 68, 0
1, 103426, Note_on_c, 0, 61, 0
1, 103480, Note_on_c, 0, 62, 0
1, 103520, Note_on_c, 0, 70, 0
1, 103524, Note_on_c, 0, 64, 97
1, 103622, Note_on_c, 0, 77, 0
1, 103634, Note_on_c, 0, 65, 89
1, 103694, Note_on_c, 0, 64, 0
1, 103746, Note_on_c, 0, 65, 0
1, 103748, Note_on_c, 0, 69, 92
1, 103840, Note_on_c, 0, 69, 0
1, 103866, Note_on_c, 0, 70, 90
1, 103934, Note_on_c, 0, 70, 0
1, 104012, Note_on_c, 0, 77, 102
1, 104020, Note_on_c, 0, 71, 118
1, 104023, Note_on_c, 0, 68, 80
1, 104040, Note_on_c, 0, 74, 62
1, 104132, Control_c, 0, 64, 0
1, 104348, Control_c, 0, 64, 127
1, 104356, Note_on_c, 0, 74, 0
1, 104378, Note_on_c, 0, 68, 0
1, 104592, Note_on_c, 0, 68, 71
1, 104595, Note_on_c, 0, 74, 81
1, 104764, Note_on_c, 0, 77, 0
1, 104804, Note_on_c, 0, 68, 0
1, 105028, Note_on_c, 0, 59, 89
1, 105062, Note_on_c, 0, 59, 0
1, 105098, Note_on_c, 0, 71, 0
1, 105140, Note_on_c, 0, 78, 93
1, 105156, Note_on_c, 0, 59, 75
1, 105156, Note_on_c, 0, 69, 72
1, 105156, Note_on_c, 0, 75, 73
1, 105192, Note_on_c, 0, 74, 0
1, 105286, Control_c, 0, 64, 0
1, 105470, Control_c, 0, 64, 127
1, 105494, Note_on_c, 0, 75, 0
1, 105530, Note_on_c, 0, 69, 0
1, 105533, Note_on_c, 0, 59, 0
1, 105732, Note_on_c, 0, 75, 67
1, 105734, Note_on_c, 0, 69, 57
1, 106012, Note_on_c, 0, 58, 77
1, 106024, Note_on_c, 0, 75, 0
1, 106072, Note_on_c, 0, 69, 0
1, 106086, Note_on_c, 0, 78, 0
1, 106126, Note_on_c, 0, 59, 94
1, 106166, Note_on_c, 0, 58, 0
1, 106258, Note_on_c, 0, 59, 0
1, 106262, Note_on_c, 0, 61, 86
1, 106264, Note_on_c, 0, 79, 105
1, 106274, Note_on_c, 0, 75, 71
1, 106276, Note_on_c, 0, 69, 76
1, 106330, Control_c, 0, 64, 0
1, 106356, Note_on_c, 0, 59, 73
1, 106368, Note_on_c, 0, 61, 0
1, 106458, Note_on_c, 0, 61, 65
1, 106466, Note_on_c, 0, 59, 0
1, 106500, Note_on_c, 0, 75, 0
1, 106500, Control_c, 0, 64, 127
1, 106526, Note_on_c, 0, 61, 0
1, 106530, Note_on_c, 0, 59, 82
1, 106544, Note_on_c, 0, 69, 0
1, 106612, Note_on_c, 0, 59, 0
1, 106634, Note_on_c, 0, 61, 65
1, 106684, Note_on_c, 0, 61, 0
1, 106696, Note_on_c, 0, 59, 66
1, 106778, Note_on_c, 0, 59, 0
1, 106802, Note_on_c, 0, 61, 60
1, 106850, Note_on_c, 0, 61, 0
1, 106866, Note_on_c, 0, 59, 68
1, 106898, Note_on_c, 0, 69, 70
1, 106902, Note_on_c, 0, 75, 73
1, 106948, Note_on_c, 0, 59, 0
1, 106966, Note_on_c, 0, 61, 59
1, 107018, Note_on_c, 0, 69, 0
1, 107020, Note_on_c, 0, 61, 0
1, 107050, Note_on_c, 0, 59, 70
1, 107060, Note_on_c, 0, 75, 0
1, 107090, Note_on_c, 0, 79, 0
1, 107114, Note_on_c, 0, 59, 0
1, 107128, Note_on_c, 0, 61, 68
1, 107206, Note_on_c, 0, 59, 71
1, 107226, Note_on_c, 0, 61, 0
1, 107280, Note_on_c, 0, 61, 87
1, 107314, Note_on_c, 0, 59, 0
1, 107378, Note_on_c, 0, 61, 0
1, 107380, Note_on_c, 0, 59, 83
1, 107438, Note_on_c, 0, 80, 93
1, 107442, Note_on_c, 0, 68, 84
1, 107452, Note_on_c, 0, 76, 74
1, 107464, Note_on_c, 0, 58, 85
1, 107468, Control_c, 0, 64, 0
1, 107508, Note_on_c, 0, 59, 0
1, 107618, Note_on_c, 0, 59, 79
1, 107626, Note_on_c, 0, 58, 0
1, 107650, Control_c, 0, 64, 127
1, 107712, Note_on_c, 0, 61, 85
1, 107730, Note_on_c, 0, 59, 0
1, 107832, Note_on_c, 0, 59, 72
1, 107836, Note_on_c, 0, 61, 0
1, 107914, Note_on_c, 0, 68, 0
1, 107940, Note_on_c, 0, 57, 83
1, 107948, Note_on_c, 0, 76, 0
1, 107976, Note_on_c, 0, 59, 0
1, 108028, Note_on_c, 0, 56, 78
1, 108062, Note_on_c, 0, 57, 0
1, 108136, Note_on_c, 0, 55, 85
1, 108150, Note_on_c, 0, 68, 68
1, 108156, Note_on_c, 0, 76, 68
1, 108166, Note_on_c, 0, 56, 0
1, 108174, Control_c, 0, 64, 0
1, 108250, Note_on_c, 0, 55, 0
1, 108252, Note_on_c, 0, 57, 83
1, 108312, Control_c, 0, 64, 127
1, 108358, Note_on_c, 0, 57, 0
1, 108366, Note_on_c, 0, 56, 81
1, 108464, Note_on_c, 0, 54, 90
1, 108490, Note_on_c, 0, 56, 0
1, 108492, Note_on_c, 0, 68, 0
1, 108504, Note_on_c, 0, 76, 0
1, 108574, Note_on_c, 0, 54, 0
1, 108574, Note_on_c, 0, 52, 92
1, 108600, Note_on_c, 0, 80, 0
1, 108636, Note_on_c, 0, 52, 0
1, 108654, Note_on_c, 0, 51, 86
1, 108724, Note_on_c, 0, 49, 84
1, 108766, Note_on_c, 0, 51, 0
1, 108832, Note_on_c, 0, 48, 89
1, 108856, Note_on_c, 0, 49, 0
1, 108859, Note_on_c, 0, 81, 101
1, 108870, Note_on_c, 0, 69, 66
1, 108872, Note_on_c, 0, 78, 75
1, 108872, Note_on_c, 0, 75, 66
1, 109050, Note_on_c, 0, 47, 91
1, 109082, Note_on_c, 0, 48, 0
1, 109198, Note_on_c, 0, 46, 78
1, 109224, Note_on_c, 0, 47, 0
1, 109246, Note_on_c, 0, 75, 0
1, 109246, Note_on_c, 0, 69, 0
1, 109342, Note_on_c, 0, 47, 92
1, 109352, Note_on_c, 0, 46, 0
1, 109482, Note_on_c, 0, 75, 70
1, 109484, Note_on_c, 0, 46, 88
1, 109484, Note_on_c, 0, 69, 69
1, 109494, Control_c, 0, 64, 0
1, 109542, Note_on_c, 0, 47, 0
1, 109624, Note_on_c, 0, 45, 88
1, 109664, Control_c, 0, 64, 127
1, 109694, Note_on_c, 0, 46, 0
1, 109758, Note_on_c, 0, 44, 89
1, 109788, Note_on_c, 0, 45, 0
1, 109850, Note_on_c, 0, 69, 0
1, 109880, Note_on_c, 0, 44, 0
1, 109884, Note_on_c, 0, 75, 0
1, 109886, Note_on_c, 0, 45, 78
1, 110014, Note_on_c, 0, 44, 95
1, 110018, Control_c, 0, 64, 0
1, 110020, Note_on_c, 0, 69, 67
1, 110028, Note_on_c, 0, 75, 61
1, 110050, Note_on_c, 0, 45, 0
1, 110120, Note_on_c, 0, 43, 85
1, 110172, Note_on_c, 0, 44, 0
1, 110186, Control_c, 0, 64, 127
1, 110202, Note_on_c, 0, 42, 82
1, 110238, Note_on_c, 0, 43, 0
1, 110296, Note_on_c, 0, 42, 0
1, 110298, Note_on_c, 0, 43, 84
1, 110406, Note_on_c, 0, 42, 82
1, 110414, Note_on_c, 0, 43, 0
1, 110474, Note_on_c, 0, 75, 0
1, 110482, Note_on_c, 0, 69, 0
1, 110496, Note_on_c, 0, 41, 85
1, 110518, Note_on_c, 0, 42, 0
1, 110616, Note_on_c, 0, 40, 104
1, 110622, Note_on_c, 0, 69, 66
1, 110624, Note_on_c, 0, 75, 68
1, 110654, Note_on_c, 0, 41, 0
1, 110708, Note_on_c, 0, 39, 86
1, 110742, Note_on_c, 0, 40, 0
1, 110822, Note_on_c, 0, 38, 91
1, 110832, Note_on_c, 0, 39, 0
1, 110922, Note_on_c, 0, 37, 90
1, 110946, Note_on_c, 0, 38, 0
1, 110964, Note_on_c, 0, 69, 0
1, 110986, Note_on_c, 0, 81, 0
1, 111000, Note_on_c, 0, 75, 0
1, 111030, Note_on_c, 0, 36, 94
1, 111052, Note_on_c, 0, 78, 0
1, 111062, Note_on_c, 0, 37, 0
1, 111136, Note_on_c, 0, 35, 107
1, 111180, Note_on_c, 0, 36, 0
1, 111240, Note_on_c, 0, 34, 78
1, 111264, Note_on_c, 0, 35, 0
1, 111274, Note_on_c, 0, 34, 0
1, 111294, Note_on_c, 0, 82, 100
1, 111297, Note_on_c, 0, 70, 92
1, 111306, Note_on_c, 0, 75, 83
1, 111306, Note_on_c, 0, 79, 98
1, 111356, Note_on_c, 0, 33, 102
1, 111494, Note_on_c, 0, 34, 69
1, 111542, Note_on_c, 0, 33, 0
1, 111600, Control_c, 0, 64, 0
1, 111602, Note_on_c, 0, 36, 88
1, 111676, Note_on_c, 0, 34, 0
1, 111702, Note_on_c, 0, 36, 0
1, 111702, Note_on_c, 0, 38, 83
1, 111738, Control_c, 0, 64, 127
1, 111824, Note_on_c, 0, 39, 78
1, 111848, Note_on_c, 0, 38, 0
1, 111851, Note_on_c, 0, 79, 0
1, 111864, Note_on_c, 0, 82, 0
1, 111872, Note_on_c, 0, 75, 0
1, 111930, Note_on_c, 0, 41, 48
1, 111948, Note_on_c, 0, 40, 57
1, 111960, Note_on_c, 0, 39, 0
1, 111996, Note_on_c, 0, 70, 0
1, 111996, Note_on_c, 0, 40, 0
1, 112008, Note_on_c, 0, 41, 0
1, 112026, Note_on_c, 0, 43, 73
1, 112100, Note_on_c, 0, 44, 86
1, 112130, Note_on_c, 0, 43, 0
1, 112198, Note_on_c, 0, 46, 77
1, 112242, Note_on_c, 0, 75, 78
1, 112245, Note_on_c, 0, 70, 66
1, 112270, Note_on_c, 0, 48, 76
1, 112292, Note_on_c, 0, 44, 0
1, 112352, Note_on_c, 0, 46, 0
1, 112370, Note_on_c, 0, 50, 84
1, 112378, Note_on_c, 0, 48, 0
1, 112432, Note_on_c, 0, 70, 0
1, 112462, Note_on_c, 0, 75, 0
1, 112462, Note_on_c, 0, 51, 88
1, 112476, Note_on_c, 0, 50, 0
1, 112546, Note_on_c, 0, 53, 102
1, 112604, Note_on_c, 0, 53, 0
1, 112604, Note_on_c, 0, 51, 0
1, 112622, Note_on_c, 0, 55, 89
1, 112700, Note_on_c, 0, 56, 81
1, 112728, Note_on_c, 0, 55, 0
1, 112784, Note_on_c, 0, 58, 76
1, 112858, Note_on_c, 0, 60, 83
1, 112864, Note_on_c, 0, 56, 0
1, 112882, Note_on_c, 0, 79, 109
1, 112892, Note_on_c, 0, 70, 65
1, 112895, Note_on_c, 0, 75, 76
1, 112898, Note_on_c, 0, 67, 81
1, 112926, Note_on_c, 0, 58, 0
1, 112942, Note_on_c, 0, 67, 0
1, 112944, Note_on_c, 0, 70, 0
1, 112956, Note_on_c, 0, 62, 81
1, 112959, Note_on_c, 0, 60, 0
1, 113040, Note_on_c, 0, 63, 83
1, 113058, Note_on_c, 0, 62, 0
1, 113112, Note_on_c, 0, 65, 67
1, 113152, Note_on_c, 0, 63, 0
1, 113190, Note_on_c, 0, 67, 80
1, 113202, Note_on_c, 0, 65, 0
1, 113284, Note_on_c, 0, 65, 64
1, 113328, Note_on_c, 0, 67, 0
1, 113373, Note_on_c, 0, 63, 83
1, 113388, Note_on_c, 0, 65, 0
1, 113472, Note_on_c, 0, 62, 73
1, 113474, Note_on_c, 0, 75, 0
1, 113485, Note_on_c, 0, 63, 0
1, 113556, Note_on_c, 0, 60, 88
1, 113580, Note_on_c, 0, 62, 0
1, 113636, Note_on_c, 0, 58, 56
1, 113660, Note_on_c, 0, 60, 0
1, 113726, Note_on_c, 0, 57, 70
1, 113762, Note_on_c, 0, 70, 63
1, 113765, Note_on_c, 0, 67, 65
1, 113772, Note_on_c, 0, 58, 0
1, 113808, Note_on_c, 0, 57, 0
1, 113812, Note_on_c, 0, 60, 74
1, 113906, Note_on_c, 0, 58, 74
1, 113932, Note_on_c, 0, 60, 0
1, 113980, Note_on_c, 0, 56, 72
1, 114022, Note_on_c, 0, 58, 0
1, 114060, Note_on_c, 0, 56, 0
1, 114088, Note_on_c, 0, 55, 75
1, 114190, Note_on_c, 0, 53, 94
1, 114206, Note_on_c, 0, 55, 0
1, 114276, Note_on_c, 0, 51, 83
1, 114294, Note_on_c, 0, 53, 0
1, 114298, Note_on_c, 0, 79, 0
1, 114310, Note_on_c, 0, 67, 0
1, 114380, Note_on_c, 0, 70, 0
1, 114380, Note_on_c, 0, 51, 0
1, 114392, Note_on_c, 0, 50, 82
1, 114476, Note_on_c, 0, 48, 78
1, 114508, Note_on_c, 0, 50, 0
1, 114558, Note_on_c, 0, 46, 73
1, 114608, Note_on_c, 0, 48, 0
1, 114670, Note_on_c, 0, 45, 72
1, 114694, Note_on_c, 0, 68, 72
1, 114694, Note_on_c, 0, 77, 97
1, 114702, Note_on_c, 0, 70, 61
1, 114708, Note_on_c, 0, 46, 0
1, 114766, Control_c, 0, 64, 0
1, 114776, Note_on_c, 0, 47, 80
1, 114812, Note_on_c, 0, 45, 0
1, 114870, Note_on_c, 0, 46, 72
1, 114884, Note_on_c, 0, 47, 0
1, 114934, Control_c, 0, 64, 127
1, 114976, Note_on_c, 0, 48, 66
1, 115002, Note_on_c, 0, 46, 0
1, 115025, Note_on_c, 0, 48, 0
1, 115066, Note_on_c, 0, 47, 69
1, 115144, Note_on_c, 0, 47, 0
1, 115154, Note_on_c, 0, 50, 68
1, 115232, Note_on_c, 0, 48, 70
1, 115272, Note_on_c, 0, 50, 0
1, 115322, Note_on_c, 0, 77, 0
1, 115322, Note_on_c, 0, 46, 64
1, 115344, Note_on_c, 0, 48, 0
1, 115352, Note_on_c, 0, 70, 0
1, 115392, Note_on_c, 0, 68, 0
1, 115428, Note_on_c, 0, 45, 65
1, 115462, Note_on_c, 0, 46, 0
1, 115492, Note_on_c, 0, 45, 0
1, 115506, Note_on_c, 0, 48, 63
1, 115600, Note_on_c, 0, 46, 73
1, 115606, Note_on_c, 0, 70, 78
1, 115632, Note_on_c, 0, 48, 0
1, 115638, Note_on_c, 0, 62, 59
1, 115638, Note_on_c, 0, 68, 35
1, 115700, Note_on_c, 0, 44, 78
1, 115724, Note_on_c, 0, 46, 0
1, 115796, Note_on_c, 0, 44, 0
1, 115814, Note_on_c, 0, 43, 71
1, 115916, Note_on_c, 0, 41, 78
1, 115940, Note_on_c, 0, 43, 0
1, 116014, Note_on_c, 0, 39, 75
1, 116030, Note_on_c, 0, 41, 0
1, 116116, Note_on_c, 0, 39, 0
1, 116136, Note_on_c, 0, 38, 79
1, 116170, Note_on_c, 0, 62, 0
1, 116236, Note_on_c, 0, 36, 83
1, 116260, Note_on_c, 0, 38, 0
1, 116326, Note_on_c, 0, 68, 0
1, 116338, Note_on_c, 0, 34, 74
1, 116356, Note_on_c, 0, 36, 0
1, 116408, Note_on_c, 0, 32, 67
1, 116442, Note_on_c, 0, 34, 0
1, 116472, Note_on_c, 0, 32, 0
1, 116500, Note_on_c, 0, 70, 0
1, 116530, Note_on_c, 0, 31, 79
1, 116618, Note_on_c, 0, 29, 75
1, 116640, Note_on_c, 0, 31, 0
1, 116728, Note_on_c, 0, 29, 0
1, 116774, Note_on_c, 0, 75, 79
1, 116782, Note_on_c, 0, 27, 79
1, 116788, Note_on_c, 0, 63, 51
1, 116802, Note_on_c, 0, 67, 49
1, 116854, Control_c, 0, 64, 0
1, 117240, Control_c, 0, 64, 127
1, 117504, Note_on_c, 0, 63, 0
1, 117732, Note_on_c, 0, 63, 52
1, 118028, Note_on_c, 0, 63, 0
1, 118088, Note_on_c, 0, 27, 0
1, 118410, Note_on_c, 0, 63, 30
1, 118630, Note_on_c, 0, 63, 0
1, 119044, Note_on_c, 0, 63, 28
1, 119150, Note_on_c, 0, 63, 0
1, 119340, Note_on_c, 0, 67, 0
1, 119360, Note_on_c, 0, 75, 0
1, 119926, Note_on_c, 0, 75, 40
1, 119960, Note_on_c, 0, 63, 27
1, 120142, Control_c, 0, 64, 0
1, 120358, Control_c, 0, 64, 127
1, 120744, Note_on_c, 0, 75, 0
1, 121054, Note_on_c, 0, 75, 37
1, 121326, Note_on_c, 0, 63, 0
1, 121410, Note_on_c, 0, 61, 19
1, 121420, Note_on_c, 0, 75, 0
1, 121656, Note_on_c, 0, 61, 0
1, 121772, Note_on_c, 0, 75, 38
1, 121796, Note_on_c, 0, 59, 25
1, 122034, Control_c, 0, 64, 0
1, 122054, Note_on_c, 0, 54, 41
1, 122232, Control_c, 0, 64, 127
1, 122286, Note_on_c, 0, 54, 0
1, 122338, Note_on_c, 0, 63, 26
1, 122338, Note_on_c, 0, 66, 26
1, 122358, Note_on_c, 0, 59, 0
1, 122396, Note_on_c, 0, 47, 23
1, 122556, Note_on_c, 0, 63, 0
1, 122562, Note_on_c, 0, 66, 0
1, 122608, Note_on_c, 0, 47, 0
1, 122648, Note_on_c, 0, 49, 21
1, 122840, Note_on_c, 0, 49, 0
1, 122942, Note_on_c, 0, 51, 27
1, 122946, Note_on_c, 0, 63, 15
1, 122960, Note_on_c, 0, 66, 18
1, 122986, Control_c, 0, 64, 0
1, 123170, Control_c, 0, 64, 127
1, 123181, Note_on_c, 0, 63, 0
1, 123188, Note_on_c, 0, 51, 0
1, 123208, Note_on_c, 0, 66, 0
1, 123218, Note_on_c, 0, 42, 22
1, 123346, Note_on_c, 0, 42, 0
1, 123568, Note_on_c, 0, 63, 12
1, 123572, Note_on_c, 0, 66, 12
1, 123596, Note_on_c, 0, 35, 31
1, 123708, Note_on_c, 0, 35, 0
1, 123812, Note_on_c, 0, 63, 0
1, 123995, Note_on_c, 0, 66, 0
1, 123999, Note_on_c, 0, 75, 0
1, 124378, Note_on_c, 0, 75, 62
1, 124408, Note_on_c, 0, 63, 29
1, 124964, Note_on_c, 0, 66, 25
1, 124970, Note_on_c, 0, 71, 34
1, 125130, Note_on_c, 0, 66, 0
1, 125216, Note_on_c, 0, 63, 0
1, 125228, Note_on_c, 0, 76, 66
1, 125248, Note_on_c, 0, 61, 28
1, 125328, Note_on_c, 0, 71, 0
1, 125420, Note_on_c, 0, 61, 0
1, 125474, Note_on_c, 0, 75, 0
1, 125550, Note_on_c, 0, 78, 64
1, 125588, Note_on_c, 0, 59, 40
1, 125682, Note_on_c, 0, 76, 0
1, 125842, Note_on_c, 0, 54, 40
1, 126104, Control_c, 0, 64, 0
1, 126116, Note_on_c, 0, 75, 25
1, 126122, Note_on_c, 0, 66, 19
1, 126130, Note_on_c, 0, 71, 30
1, 126144, Note_on_c, 0, 54, 0
1, 126162, Note_on_c, 0, 47, 27
1, 126248, Note_on_c, 0, 59, 0
1, 126304, Control_c, 0, 64, 127
1, 126356, Note_on_c, 0, 71, 0
1, 126388, Note_on_c, 0, 75, 0
1, 126392, Note_on_c, 0, 66, 0
1, 126418, Note_on_c, 0, 47, 0
1, 126418, Note_on_c, 0, 49, 18
1, 126610, Note_on_c, 0, 49, 0
1, 126720, Note_on_c, 0, 51, 30
1, 126730, Note_on_c, 0, 75, 22
1, 126730, Note_on_c, 0, 66, 7
1, 126772, Note_on_c, 0, 71, 13
1, 126810, Control_c, 0, 64, 0
1, 126884, Note_on_c, 0, 71, 0
1, 126966, Note_on_c, 0, 51, 0
1, 126966, Control_c, 0, 64, 127
1, 127006, Note_on_c, 0, 75, 0
1, 127008, Note_on_c, 0, 42, 23
1, 127011, Note_on_c, 0, 66, 0
1, 127176, Note_on_c, 0, 42, 0
1, 127340, Note_on_c, 0, 75, 20
1, 127343, Note_on_c, 0, 66, 9
1, 127370, Note_on_c, 0, 35, 35
1, 127408, Note_on_c, 0, 71, 9
1, 127436, Note_on_c, 0, 35, 0
1, 127598, Note_on_c, 0, 78, 0
1, 128114, Note_on_c, 0, 78, 76
1, 128132, Note_on_c, 0, 66, 0
1, 128158, Note_on_c, 0, 71, 0
1, 128176, Note_on_c, 0, 63, 31
1, 128256, Note_on_c, 0, 75, 0
1, 128658, Note_on_c, 0, 75, 33
1, 128676, Note_on_c, 0, 66, 11
1, 128678, Note_on_c, 0, 71, 35
1, 128792, Note_on_c, 0, 66, 0
1, 128800, Note_on_c, 0, 78, 0
1, 128934, Note_on_c, 0, 61, 31
1, 128942, Note_on_c, 0, 63, 0
1, 128980, Note_on_c, 0, 71, 0
1, 129090, Note_on_c, 0, 80, 73
1, 129192, Note_on_c, 0, 80, 0
1, 129318, Note_on_c, 0, 61, 0
1, 129384, Note_on_c, 0, 59, 19
1, 129466, Note_on_c, 0, 80, 71
1, 129612, Note_on_c, 0, 75, 0
1, 129762, Note_on_c, 0, 54, 29
1, 129954, Note_on_c, 0, 54, 0
1, 130044, Note_on_c, 0, 75, 28
1, 130050, Note_on_c, 0, 66, 25
1, 130078, Note_on_c, 0, 59, 0
1, 130080, Note_on_c, 0, 47, 20
1, 130084, Control_c, 0, 64, 0
1, 130086, Note_on_c, 0, 71, 18
1, 130226, Control_c, 0, 64, 127
1, 130286, Note_on_c, 0, 71, 0
1, 130300, Note_on_c, 0, 66, 0
1, 130302, Note_on_c, 0, 75, 0
1, 130318, Note_on_c, 0, 47, 0
1, 130342, Note_on_c, 0, 49, 35
1, 130474, Note_on_c, 0, 49, 0
1, 130620, Note_on_c, 0, 66, 14
1, 130644, Note_on_c, 0, 71, 31
1, 130646, Note_on_c, 0, 51, 34
1, 130650, Note_on_c, 0, 75, 22
1, 130752, Note_on_c, 0, 71, 0
1, 130806, Note_on_c, 0, 51, 0
1, 130818, Note_on_c, 0, 75, 0
1, 130838, Note_on_c, 0, 66, 0
1, 130900, Note_on_c, 0, 42, 29
1, 131050, Note_on_c, 0, 42, 0
1, 131176, Note_on_c, 0, 66, 14
1, 131184, Note_on_c, 0, 75, 28
1, 131196, Note_on_c, 0, 35, 40
1, 131198, Note_on_c, 0, 71, 32
1, 131258, Note_on_c, 0, 35, 0
1, 131496, Note_on_c, 0, 80, 0
1, 131686, Note_on_c, 0, 66, 0
1, 131770, Note_on_c, 0, 78, 69
1, 131820, Note_on_c, 0, 71, 0
1, 131850, Note_on_c, 0, 63, 29
1, 132042, Note_on_c, 0, 75, 0
1, 132342, Control_c, 0, 64, 0
1, 132438, Note_on_c, 0, 71, 34
1, 132448, Note_on_c, 0, 66, 24
1, 132480, Control_c, 0, 64, 127
1, 132692, Note_on_c, 0, 66, 0
1, 132774, Note_on_c, 0, 71, 0
1, 132806, Note_on_c, 0, 63, 0
1, 132842, Note_on_c, 0, 61, 18
1, 133000, Note_on_c, 0, 75, 48
1, 133048, Note_on_c, 0, 78, 0
1, 133100, Note_on_c, 0, 61, 0
1, 133146, Note_on_c, 0, 75, 0
1, 133278, Note_on_c, 0, 59, 13
1, 133342, Note_on_c, 0, 75, 51
1, 133634, Control_c, 0, 64, 0
1, 133658, Note_on_c, 0, 55, 25
1, 133818, Control_c, 0, 64, 127
1, 133882, Note_on_c, 0, 55, 0
1, 133920, Note_on_c, 0, 71, 38
1, 133940, Note_on_c, 0, 67, 20
1, 133950, Note_on_c, 0, 52, 28
1, 133952, Note_on_c, 0, 59, 0
1, 133954, Note_on_c, 0, 64, 22
1, 134062, Note_on_c, 0, 67, 0
1, 134100, Note_on_c, 0, 64, 0
1, 134148, Note_on_c, 0, 71, 0
1, 134164, Note_on_c, 0, 52, 0
1, 134200, Note_on_c, 0, 54, 38
1, 134378, Note_on_c, 0, 54, 0
1, 134482, Note_on_c, 0, 55, 31
1, 134490, Note_on_c, 0, 64, 12
1, 134492, Note_on_c, 0, 71, 33
1, 134494, Control_c, 0, 64, 0
1, 134508, Note_on_c, 0, 67, 10
1, 134648, Control_c, 0, 64, 127
1, 134658, Note_on_c, 0, 67, 0
1, 134670, Note_on_c, 0, 64, 0
1, 134672, Note_on_c, 0, 71, 0
1, 134696, Note_on_c, 0, 55, 0
1, 134820, Note_on_c, 0, 47, 29
1, 134882, Note_on_c, 0, 47, 0
1, 135198, Note_on_c, 0, 73, 51
1, 135230, Note_on_c, 0, 64, 28
1, 135230, Note_on_c, 0, 67, 24
1, 135290, Note_on_c, 0, 35, 34
1, 135306, Note_on_c, 0, 75, 0
1, 135352, Note_on_c, 0, 35, 0
1, 135772, Note_on_c, 0, 71, 71
1, 135844, Note_on_c, 0, 63, 46
1, 135940, Note_on_c, 0, 67, 0
1, 135966, Note_on_c, 0, 73, 0
1, 136002, Note_on_c, 0, 64, 0
1, 136352, Note_on_c, 0, 67, 45
1, 136354, Note_on_c, 0, 64, 37
1, 136424, Note_on_c, 0, 63, 0
1, 136534, Note_on_c, 0, 64, 0
1, 136560, Note_on_c, 0, 67, 0
1, 136584, Note_on_c, 0, 71, 0
1, 136586, Note_on_c, 0, 73, 62
1, 136606, Note_on_c, 0, 61, 38
1, 136782, Note_on_c, 0, 61, 0
1, 136960, Note_on_c, 0, 75, 54
1, 136968, Note_on_c, 0, 59, 42
1, 136990, Note_on_c, 0, 71, 28
1, 137028, Control_c, 0, 64, 0
1, 137158, Note_on_c, 0, 73, 0
1, 137306, Control_c, 0, 64, 127
1, 137350, Note_on_c, 0, 54, 32
1, 137440, Note_on_c, 0, 59, 0
1, 137504, Note_on_c, 0, 54, 0
1, 137692, Note_on_c, 0, 63, 20
1, 137706, Note_on_c, 0, 47, 17
1, 137710, Note_on_c, 0, 66, 11
1, 137852, Note_on_c, 0, 47, 0
1, 137868, Note_on_c, 0, 63, 0
1, 137914, Note_on_c, 0, 66, 0
1, 137962, Note_on_c, 0, 49, 29
1, 138108, Note_on_c, 0, 49, 0
1, 138238, Note_on_c, 0, 51, 26
1, 138241, Note_on_c, 0, 66, 19
1, 138266, Note_on_c, 0, 63, 10
1, 138402, Note_on_c, 0, 51, 0
1, 138410, Note_on_c, 0, 63, 0
1, 138436, Note_on_c, 0, 66, 0
1, 138510, Note_on_c, 0, 42, 25
1, 138620, Note_on_c, 0, 42, 0
1, 138870, Note_on_c, 0, 63, 16
1, 138896, Note_on_c, 0, 66, 9
1, 138910, Note_on_c, 0, 35, 21
1, 138984, Note_on_c, 0, 35, 0
1, 139048, Note_on_c, 0, 63, 0
1, 139204, Note_on_c, 0, 75, 0
1, 139234, Note_on_c, 0, 66, 0
1, 139264, Note_on_c, 0, 71, 0
1, 139564, Note_on_c, 0, 75, 59
1, 139628, Note_on_c, 0, 63, 33
1, 140172, Note_on_c, 0, 71, 20
1, 140174, Note_on_c, 0, 66, 21
1, 140312, Note_on_c, 0, 66, 0
1, 140490, Note_on_c, 0, 61, 34
1, 140492, Note_on_c, 0, 63, 0
1, 140512, Note_on_c, 0, 71, 0
1, 140690, Note_on_c, 0, 76, 57
1, 140778, Note_on_c, 0, 61, 0
1, 140954, Note_on_c, 0, 59, 30
1, 140986, Note_on_c, 0, 75, 0
1, 141002, Note_on_c, 0, 78, 42
1, 141042, Note_on_c, 0, 76, 0
1, 141178, Control_c, 0, 64, 0
1, 141302, Note_on_c, 0, 54, 42
1, 141378, Control_c, 0, 64, 127
1, 141381, Note_on_c, 0, 54, 0
1, 141452, Note_on_c, 0, 59, 0
1, 141602, Note_on_c, 0, 75, 23
1, 141610, Note_on_c, 0, 66, 13
1, 141612, Note_on_c, 0, 71, 26
1, 141614, Note_on_c, 0, 47, 15
1, 141738, Note_on_c, 0, 71, 0
1, 141746, Note_on_c, 0, 47, 0
1, 141788, Note_on_c, 0, 66, 0
1, 141818, Note_on_c, 0, 75, 0
1, 141880, Note_on_c, 0, 49, 26
1, 142042, Note_on_c, 0, 49, 0
1, 142158, Note_on_c, 0, 75, 22
1, 142172, Note_on_c, 0, 51, 33
1, 142178, Note_on_c, 0, 66, 10
1, 142348, Note_on_c, 0, 51, 0
1, 142352, Note_on_c, 0, 66, 0
1, 142376, Note_on_c, 0, 75, 0
1, 142442, Note_on_c, 0, 42, 21
1, 142606, Note_on_c, 0, 42, 0
1, 142770, Note_on_c, 0, 75, 20
1, 142788, Note_on_c, 0, 66, 10
1, 142816, Note_on_c, 0, 35, 34
1, 142882, Note_on_c, 0, 35, 0
1, 142900, Note_on_c, 0, 78, 0
1, 142903, Note_on_c, 0, 71, 2
1, 143086, Note_on_c, 0, 66, 0
1, 143290, Note_on_c, 0, 71, 0
1, 143424, Note_on_c, 0, 78, 65
1, 143494, Note_on_c, 0, 63, 28
1, 143586, Note_on_c, 0, 75, 0
1, 144126, Note_on_c, 0, 75, 25
1, 144128, Note_on_c, 0, 66, 11
1, 144186, Note_on_c, 0, 71, 10
1, 144406, Note_on_c, 0, 66, 0
1, 144484, Note_on_c, 0, 63, 0
1, 144518, Note_on_c, 0, 78, 0
1, 144528, Note_on_c, 0, 71, 0
1, 144540, Note_on_c, 0, 61, 26
1, 144710, Note_on_c, 0, 80, 49
1, 144796, Note_on_c, 0, 80, 0
1, 144876, Note_on_c, 0, 75, 0
1, 144912, Note_on_c, 0, 66, 20
1, 144966, Note_on_c, 0, 61, 0
1, 144984, Note_on_c, 0, 66, 0
1, 145080, Note_on_c, 0, 71, 32
1, 145154, Note_on_c, 0, 75, 33
1, 145156, Note_on_c, 0, 59, 11
1, 145406, Note_on_c, 0, 81, 39
1, 145556, Control_c, 0, 64, 0
1, 145680, Control_c, 0, 64, 127
1, 145724, Note_on_c, 0, 81, 0
1, 145796, Note_on_c, 0, 54, 19
1, 145814, Note_on_c, 0, 59, 0
1, 145828, Note_on_c, 0, 71, 0
1, 145832, Note_on_c, 0, 75, 0
1, 145968, Note_on_c, 0, 54, 0
1, 146146, Note_on_c, 0, 75, 23
1, 146186, Note_on_c, 0, 47, 12
1, 146188, Note_on_c, 0, 66, 11
1, 146204, Note_on_c, 0, 71, 13
1, 146274, Note_on_c, 0, 47, 0
1, 146442, Note_on_c, 0, 66, 0
1, 146464, Note_on_c, 0, 49, 23
1, 146558, Note_on_c, 0, 49, 0
1, 146596, Note_on_c, 0, 71, 0
1, 146780, Note_on_c, 0, 51, 18
1, 146920, Note_on_c, 0, 75, 0
1, 146938, Note_on_c, 0, 51, 0
1, 147062, Note_on_c, 0, 42, 27
1, 147206, Note_on_c, 0, 42, 0
1, 147414, Note_on_c, 0, 35, 40
1, 147418, Note_on_c, 0, 75, 18
1, 147468, Note_on_c, 0, 66, 3
1, 147482, Note_on_c, 0, 35, 0
1, 147534, Note_on_c, 0, 71, 2
1, 147806, Note_on_c, 0, 71, 0
1, 147988, Note_on_c, 0, 66, 0
1, 148144, Note_on_c, 0, 75, 0
1, 148252, Note_on_c, 0, 63, 36
1, 149206, Note_on_c, 0, 75, 20
1, 149212, Note_on_c, 0, 66, 9
1, 149270, Note_on_c, 0, 71, 10
1, 149376, Note_on_c, 0, 63, 0
1, 149560, Note_on_c, 0, 61, 20
1, 149792, Note_on_c, 0, 61, 0
1, 149952, Note_on_c, 0, 59, 19
1, 150142, Note_on_c, 0, 59, 0
1, 150150, Note_on_c, 0, 71, 0
1, 150334, Note_on_c, 0, 54, 17
1, 150522, Note_on_c, 0, 54, 0
1, 150728, Note_on_c, 0, 47, 14
1, 151002, Note_on_c, 0, 47, 0
1, 151108, Note_on_c, 0, 49, 18
1, 151370, Note_on_c, 0, 49, 0
1, 151592, Note_on_c, 0, 51, 18
1, 152196, Note_on_c, 0, 42, 19
1, 152208, Note_on_c, 0, 51, 0
1, 153164, Note_on_c, 0, 42, 0
1, 153234, Note_on_c, 0, 35, 17
1, 153960, Note_on_c, 0, 66, 0
1, 154396, Note_on_c, 0, 35, 0
1, 155860, Note_on_c, 0, 75, 0
1, 155910, Note_on_c, 0, 59, 34
1, 156066, Control_c, 0, 64, 0
1, 156404, Control_c, 0, 64, 127
1, 156534, Note_on_c, 0, 75, 54
1, 156562, Note_on_c, 0, 66, 34
1, 156602, Note_on_c, 0, 71, 28
1, 156788, Note_on_c, 0, 71, 0
1, 156790, Note_on_c, 0, 66, 0
1, 156818, Note_on_c, 0, 59, 0
1, 156916, Note_on_c, 0, 57, 28
1, 156956, Note_on_c, 0, 75, 0
1, 157318, Note_on_c, 0, 57, 0
1, 157426, Note_on_c, 0, 76, 40
1, 157446, Note_on_c, 0, 64, 26
1, 157464, Note_on_c, 0, 71, 32
1, 157504, Note_on_c, 0, 57, 35
1, 157542, Control_c, 0, 64, 0
1, 157834, Control_c, 0, 64, 127
1, 157876, Note_on_c, 0, 71, 0
1, 157900, Note_on_c, 0, 64, 0
1, 158232, Note_on_c, 0, 71, 30
1, 158242, Note_on_c, 0, 64, 30
1, 158464, Note_on_c, 0, 64, 0
1, 158476, Note_on_c, 0, 71, 0
1, 158824, Note_on_c, 0, 57, 0
1, 158838, Note_on_c, 0, 71, 27
1, 158850, Note_on_c, 0, 64, 14
1, 158872, Note_on_c, 0, 55, 52
1, 158878, Control_c, 0, 64, 0
1, 159118, Note_on_c, 0, 71, 0
1, 159124, Control_c, 0, 64, 127
1, 159144, Note_on_c, 0, 64, 0
1, 159442, Note_on_c, 0, 71, 45
1, 159442, Note_on_c, 0, 64, 26
1, 159660, Note_on_c, 0, 71, 0
1, 159684, Note_on_c, 0, 76, 0
1, 159710, Note_on_c, 0, 64, 0
1, 159956, Note_on_c, 0, 55, 0
1, 160044, Note_on_c, 0, 76, 69
1, 160062, Note_on_c, 0, 71, 42
1, 160064, Note_on_c, 0, 64, 23
1, 160108, Control_c, 0, 64, 0
1, 160108, Note_on_c, 0, 56, 35
1, 160274, Note_on_c, 0, 56, 0
1, 160290, Note_on_c, 0, 57, 42
1, 160308, Control_c, 0, 64, 127
1, 160326, Note_on_c, 0, 71, 0
1, 160352, Note_on_c, 0, 57, 0
1, 160362, Note_on_c, 0, 56, 36
1, 160364, Note_on_c, 0, 64, 0
1, 160454, Note_on_c, 0, 57, 21
1, 160472, Note_on_c, 0, 56, 0
1, 160516, Note_on_c, 0, 57, 0
1, 160516, Note_on_c, 0, 56, 24
1, 160596, Note_on_c, 0, 57, 33
1, 160602, Note_on_c, 0, 56, 0
1, 160614, Control_c, 0, 64, 0
1, 160664, Note_on_c, 0, 57, 0
1, 160667, Note_on_c, 0, 56, 33
1, 160680, Note_on_c, 0, 71, 57
1, 160684, Note_on_c, 0, 64, 30
1, 160726, Note_on_c, 0, 56, 0
1, 160729, Note_on_c, 0, 57, 48
1, 160792, Note_on_c, 0, 57, 0
1, 160792, Note_on_c, 0, 56, 50
1, 160846, Control_c, 0, 64, 127
1, 160888, Note_on_c, 0, 57, 43
1, 160950, Note_on_c, 0, 57, 0
1, 161010, Note_on_c, 0, 64, 0
1, 161058, Note_on_c, 0, 74, 76
1, 161070, Note_on_c, 0, 56, 0
1, 161102, Note_on_c, 0, 55, 45
1, 161130, Note_on_c, 0, 76, 0
1, 161184, Note_on_c, 0, 74, 0
1, 161208, Note_on_c, 0, 55, 0
1, 161216, Note_on_c, 0, 71, 0
1, 161236, Note_on_c, 0, 56, 39
1, 161348, Note_on_c, 0, 56, 0
1, 161366, Note_on_c, 0, 74, 64
1, 161414, Control_c, 0, 64, 0
1, 161417, Note_on_c, 0, 69, 18
1, 161421, Note_on_c, 0, 64, 25
1, 161424, Note_on_c, 0, 57, 29
1, 161690, Control_c, 0, 64, 127
1, 161784, Note_on_c, 0, 69, 0
1, 161790, Note_on_c, 0, 64, 0
1, 162068, Note_on_c, 0, 69, 30
1, 162078, Note_on_c, 0, 64, 30
1, 162230, Note_on_c, 0, 69, 0
1, 162246, Note_on_c, 0, 64, 0
1, 162326, Note_on_c, 0, 72, 64
1, 162448, Note_on_c, 0, 74, 0
1, 162482, Note_on_c, 0, 57, 0
1, 162628, Note_on_c, 0, 71, 72
1, 162636, Note_on_c, 0, 68, 33
1, 162654, Note_on_c, 0, 52, 34
1, 162658, Note_on_c, 0, 64, 26
1, 162720, Control_c, 0, 64, 0
1, 162764, Note_on_c, 0, 72, 0
1, 162966, Control_c, 0, 64, 127
1, 162976, Note_on_c, 0, 64, 0
1, 163012, Note_on_c, 0, 68, 0
1, 163222, Note_on_c, 0, 68, 37
1, 163252, Note_on_c, 0, 64, 28
1, 163354, Note_on_c, 0, 64, 0
1, 163454, Note_on_c, 0, 68, 0
1, 163488, Note_on_c, 0, 71, 0
1, 163682, Note_on_c, 0, 52, 0
1, 163766, Note_on_c, 0, 74, 85
1, 163774, Note_on_c, 0, 64, 52
1, 163798, Note_on_c, 0, 57, 32
1, 163808, Note_on_c, 0, 69, 18
1, 163842, Control_c, 0, 64, 0
1, 164118, Control_c, 0, 64, 127
1, 164150, Note_on_c, 0, 69, 0
1, 164150, Note_on_c, 0, 64, 0
1, 164338, Note_on_c, 0, 69, 50
1, 164358, Note_on_c, 0, 64, 42
1, 164500, Note_on_c, 0, 64, 0
1, 164510, Note_on_c, 0, 69, 0
1, 164638, Note_on_c, 0, 72, 69
1, 164704, Note_on_c, 0, 74, 0
1, 164944, Note_on_c, 0, 57, 0
1, 164954, Note_on_c, 0, 71, 74
1, 164964, Note_on_c, 0, 64, 35
1, 164967, Note_on_c, 0, 67, 32
1, 164978, Note_on_c, 0, 52, 45
1, 165008, Control_c, 0, 64, 0
1, 165058, Note_on_c, 0, 72, 0
1, 165332, Note_on_c, 0, 67, 0
1, 165334, Control_c, 0, 64, 127
1, 165340, Note_on_c, 0, 64, 0
1, 165668, Note_on_c, 0, 67, 27
1, 165668, Note_on_c, 0, 64, 30
1, 165770, Note_on_c, 0, 64, 0
1, 165926, Note_on_c, 0, 67, 0
1, 165934, Note_on_c, 0, 71, 0
1, 166420, Note_on_c, 0, 52, 0
1, 166482, Note_on_c, 0, 71, 47
1, 166502, Note_on_c, 0, 60, 30
1, 166506, Note_on_c, 0, 65, 21
1, 166516, Note_on_c, 0, 53, 38
1, 166576, Control_c, 0, 64, 0
1, 167176, Control_c, 0, 64, 127
1, 167578, Note_on_c, 0, 69, 20
1, 167620, Control_c, 0, 64, 0
1, 167682, Note_on_c, 0, 71, 0
1, 167958, Control_c, 0, 64, 127
1, 168356, Note_on_c, 0, 48, 35
1, 168524, Note_on_c, 0, 60, 0
1, 168588, Note_on_c, 0, 65, 0
1, 168604, Note_on_c, 0, 53, 0
1, 168652, Note_on_c, 0, 69, 0
1, 168882, Control_c, 0, 64, 0
1, 169204, Control_c, 0, 64, 127
1, 169528, Note_on_c, 0, 46, 32
1, 169576, Note_on_c, 0, 48, 0
1, 169938, Note_on_c, 0, 45, 35
1, 169968, Note_on_c, 0, 46, 0
1, 170126, Control_c, 0, 64, 0
1, 170270, Note_on_c, 0, 48, 44
1, 170344, Note_on_c, 0, 45, 0
1, 170386, Control_c, 0, 64, 127
1, 170634, Note_on_c, 0, 48, 0
1, 170642, Note_on_c, 0, 53, 59
1, 171014, Note_on_c, 0, 48, 54
1, 171022, Note_on_c, 0, 53, 0
1, 171140, Control_c, 0, 64, 0
1, 171416, Control_c, 0, 64, 127
1, 171590, Note_on_c, 0, 48, 0
1, 171604, Note_on_c, 0, 57, 33
1, 171770, Control_c, 0, 64, 0
1, 172216, Control_c, 0, 64, 127
1, 172466, Note_on_c, 0, 57, 0
1, 172968, Control_c, 0, 64, 0
1, 174016, Note_on_c, 0, 47, 28
1, 174396, Note_on_c, 0, 52, 42
1, 174454, Note_on_c, 0, 47, 0
1, 174520, Control_c, 0, 64, 127
1, 174702, Note_on_c, 0, 68, 35
1, 174708, Note_on_c, 0, 52, 0
1, 174714, Note_on_c, 0, 56, 31
1, 174714, Note_on_c, 0, 64, 28
1, 174842, Control_c, 0, 64, 0
1, 175018, Note_on_c, 0, 52, 53
1, 175028, Note_on_c, 0, 64, 0
1, 175042, Control_c, 0, 64, 127
1, 175044, Note_on_c, 0, 68, 0
1, 175054, Note_on_c, 0, 56, 0
1, 175326, Note_on_c, 0, 52, 0
1, 175344, Note_on_c, 0, 68, 46
1, 175364, Note_on_c, 0, 64, 34
1, 175396, Note_on_c, 0, 59, 45
1, 175546, Note_on_c, 0, 64, 0
1, 175626, Note_on_c, 0, 68, 0
1, 175938, Note_on_c, 0, 68, 34
1, 175952, Note_on_c, 0, 64, 28
1, 175980, Control_c, 0, 64, 0
1, 176164, Control_c, 0, 64, 127
1, 176258, Note_on_c, 0, 64, 0
1, 176280, Note_on_c, 0, 68, 0
1, 176574, Note_on_c, 0, 68, 21
1, 176612, Note_on_c, 0, 64, 16
1, 176960, Note_on_c, 0, 64, 0
1, 176998, Note_on_c, 0, 68, 0
1, 177244, Note_on_c, 0, 68, 27
1, 177284, Note_on_c, 0, 59, 0
1, 177288, Note_on_c, 0, 56, 34
1, 177288, Note_on_c, 0, 64, 12
1, 177378, Note_on_c, 0, 64, 0
1, 177956, Note_on_c, 0, 64, 71
1, 177988, Note_on_c, 0, 68, 0
1, 178134, Note_on_c, 0, 56, 0
1, 178382, Note_on_c, 0, 64, 0
1, 178386, Note_on_c, 0, 59, 78
1, 178750, Note_on_c, 0, 68, 42
1, 178774, Note_on_c, 0, 64, 32
1, 178786, Note_on_c, 0, 61, 57
1, 178814, Note_on_c, 0, 59, 0
1, 178868, Control_c, 0, 64, 0
1, 179082, Control_c, 0, 64, 127
1, 179094, Note_on_c, 0, 64, 0
1, 179148, Note_on_c, 0, 68, 0
1, 179244, Note_on_c, 0, 56, 43
1, 179404, Note_on_c, 0, 68, 34
1, 179420, Note_on_c, 0, 64, 38
1, 179422, Note_on_c, 0, 61, 0
1, 179424, Note_on_c, 0, 59, 55
1, 179498, Control_c, 0, 64, 0
1, 179508, Note_on_c, 0, 56, 0
1, 179774, Control_c, 0, 64, 127
1, 179838, Note_on_c, 0, 64, 0
1, 179878, Note_on_c, 0, 68, 0
1, 180056, Note_on_c, 0, 68, 39
1, 180080, Note_on_c, 0, 64, 22
1, 180228, Note_on_c, 0, 64, 0
1, 180396, Note_on_c, 0, 68, 0
1, 180780, Note_on_c, 0, 59, 0
1, 180780, Note_on_c, 0, 68, 31
1, 180788, Note_on_c, 0, 61, 47
1, 180804, Note_on_c, 0, 64, 25
1, 180928, Control_c, 0, 64, 0
1, 181112, Control_c, 0, 64, 127
1, 181152, Note_on_c, 0, 56, 35
1, 181202, Note_on_c, 0, 64, 0
1, 181238, Note_on_c, 0, 68, 0
1, 181262, Note_on_c, 0, 61, 0
1, 181484, Note_on_c, 0, 68, 28
1, 181502, Note_on_c, 0, 64, 23
1, 181514, Note_on_c, 0, 59, 37
1, 181526, Control_c, 0, 64, 0
1, 181612, Note_on_c, 0, 56, 0
1, 181726, Control_c, 0, 64, 127
1, 181770, Note_on_c, 0, 64, 0
1, 181910, Note_on_c, 0, 68, 0
1, 182054, Note_on_c, 0, 59, 0
1, 182114, Note_on_c, 0, 52, 51
1, 182378, Note_on_c, 0, 71, 63
1, 182386, Note_on_c, 0, 52, 0
1, 182410, Note_on_c, 0, 59, 18
1, 182426, Note_on_c, 0, 56, 31
1, 182436, Note_on_c, 0, 64, 18
1, 182586, Control_c, 0, 64, 0
1, 182772, Control_c, 0, 64, 127
1, 182798, Note_on_c, 0, 64, 0
1, 182828, Note_on_c, 0, 59, 0
1, 183100, Note_on_c, 0, 64, 30
1, 183102, Note_on_c, 0, 59, 25
1, 183414, Note_on_c, 0, 64, 0
1, 183434, Note_on_c, 0, 59, 0
1, 183810, Note_on_c, 0, 64, 24
1, 183813, Note_on_c, 0, 59, 15
1, 184192, Note_on_c, 0, 64, 0
1, 184230, Note_on_c, 0, 59, 0
1, 184248, Note_on_c, 0, 46, 22
1, 184606, Note_on_c, 0, 49, 45
1, 184620, Note_on_c, 0, 59, 19
1, 184628, Note_on_c, 0, 64, 24
1, 184660, Note_on_c, 0, 46, 0
1, 184876, Note_on_c, 0, 64, 0
1, 184900, Note_on_c, 0, 56, 0
1, 184934, Note_on_c, 0, 47, 60
1, 184936, Note_on_c, 0, 59, 0
1, 184952, Note_on_c, 0, 71, 0
1, 185034, Note_on_c, 0, 49, 0
1, 185326, Note_on_c, 0, 71, 51
1, 185329, Note_on_c, 0, 59, 34
1, 185336, Note_on_c, 0, 47, 0
1, 185336, Note_on_c, 0, 63, 32
1, 185346, Note_on_c, 0, 69, 18
1, 185360, Note_on_c, 0, 54, 46
1, 185366, Control_c, 0, 64, 0
1, 185644, Control_c, 0, 64, 127
1, 185870, Note_on_c, 0, 69, 0
1, 185902, Note_on_c, 0, 63, 0
1, 185994, Note_on_c, 0, 59, 0
1, 186330, Note_on_c, 0, 69, 17
1, 186340, Note_on_c, 0, 59, 18
1, 186344, Note_on_c, 0, 63, 28
1, 186478, Note_on_c, 0, 54, 0
1, 186600, Note_on_c, 0, 69, 0
1, 186620, Note_on_c, 0, 59, 0
1, 186634, Note_on_c, 0, 63, 0
1, 186672, Note_on_c, 0, 71, 0
1, 186716, Note_on_c, 0, 52, 45
1, 186988, Note_on_c, 0, 52, 0
1, 187050, Note_on_c, 0, 68, 28
1, 187070, Note_on_c, 0, 71, 48
1, 187074, Note_on_c, 0, 59, 28
1, 187090, Note_on_c, 0, 64, 36
1, 187093, Note_on_c, 0, 52, 34
1, 187134, Control_c, 0, 64, 0
1, 187364, Control_c, 0, 64, 127
1, 187390, Note_on_c, 0, 64, 0
1, 187436, Note_on_c, 0, 68, 0
1, 187448, Note_on_c, 0, 59, 0
1, 187714, Note_on_c, 0, 68, 39
1, 187726, Note_on_c, 0, 59, 37
1, 187748, Note_on_c, 0, 64, 37
1, 187948, Note_on_c, 0, 64, 0
1, 187972, Note_on_c, 0, 59, 0
1, 187982, Note_on_c, 0, 68, 0
1, 188320, Note_on_c, 0, 68, 41
1, 188334, Note_on_c, 0, 59, 39
1, 188352, Note_on_c, 0, 64, 38
1, 188660, Note_on_c, 0, 64, 0
1, 188662, Note_on_c, 0, 68, 0
1, 188702, Note_on_c, 0, 43, 69
1, 188778, Note_on_c, 0, 59, 0
1, 189100, Note_on_c, 0, 59, 55
1, 189102, Note_on_c, 0, 45, 70
1, 189104, Note_on_c, 0, 68, 51
1, 189124, Note_on_c, 0, 64, 51
1, 189298, Note_on_c, 0, 43, 0
1, 189422, Note_on_c, 0, 44, 92
1, 189448, Note_on_c, 0, 64, 0
1, 189488, Note_on_c, 0, 45, 0
1, 189491, Note_on_c, 0, 59, 0
1, 189520, Note_on_c, 0, 71, 0
1, 189526, Note_on_c, 0, 68, 0
1, 189764, Note_on_c, 0, 52, 0
1, 189902, Note_on_c, 0, 72, 80
1, 189905, Note_on_c, 0, 60, 61
1, 189905, Note_on_c, 0, 66, 48
1, 189908, Note_on_c, 0, 68, 53
1, 189928, Note_on_c, 0, 51, 90
1, 190124, Note_on_c, 0, 44, 0
1, 190176, Control_c, 0, 64, 0
1, 190422, Control_c, 0, 64, 127
1, 190558, Note_on_c, 0, 60, 0
1, 190582, Note_on_c, 0, 68, 0
1, 190622, Note_on_c, 0, 66, 0
1, 190788, Note_on_c, 0, 68, 61
1, 190788, Note_on_c, 0, 66, 47
1, 190791, Note_on_c, 0, 60, 65
1, 191112, Note_on_c, 0, 60, 0
1, 191224, Note_on_c, 0, 51, 0
1, 191302, Note_on_c, 0, 49, 73
1, 191304, Note_on_c, 0, 72, 0
1, 191488, Note_on_c, 0, 49, 0
1, 191518, Note_on_c, 0, 73, 81
1, 191642, Note_on_c, 0, 66, 0
1, 191658, Note_on_c, 0, 37, 83
1, 191714, Control_c, 0, 64, 0
1, 191717, Note_on_c, 0, 68, 0
1, 191860, Note_on_c, 0, 49, 92
1, 191866, Control_c, 0, 64, 127
1, 191876, Note_on_c, 0, 37, 0
1, 191958, Note_on_c, 0, 49, 0
1, 192304, Note_on_c, 0, 64, 109
1, 192496, Note_on_c, 0, 73, 0
1, 192972, Note_on_c, 0, 73, 55
1, 192978, Note_on_c, 0, 68, 47
1, 193314, Note_on_c, 0, 68, 0
1, 193398, Note_on_c, 0, 73, 0
1, 193626, Note_on_c, 0, 73, 58
1, 193628, Note_on_c, 0, 68, 55
1, 193994, Note_on_c, 0, 68, 0
1, 194038, Note_on_c, 0, 73, 0
1, 194186, Note_on_c, 0, 68, 53
1, 194186, Note_on_c, 0, 73, 66
1, 194582, Note_on_c, 0, 68, 0
1, 194620, Note_on_c, 0, 73, 0
1, 194736, Note_on_c, 0, 63, 92
1, 194741, Note_on_c, 0, 68, 58
1, 194744, Note_on_c, 0, 73, 54
1, 194940, Control_c, 0, 64, 0
1, 194944, Note_on_c, 0, 64, 0
1, 195094, Control_c, 0, 64, 127
1, 195176, Note_on_c, 0, 68, 0
1, 195228, Note_on_c, 0, 73, 0
1, 195396, Note_on_c, 0, 68, 62
1, 195400, Note_on_c, 0, 73, 62
1, 195564, Note_on_c, 0, 68, 0
1, 195586, Note_on_c, 0, 73, 0
1, 195708, Note_on_c, 0, 61, 84
1, 195780, Note_on_c, 0, 63, 0
1, 195972, Note_on_c, 0, 61, 0
1, 195998, Note_on_c, 0, 76, 85
1, 196022, Note_on_c, 0, 64, 57
1, 196026, Note_on_c, 0, 61, 77
1, 196034, Note_on_c, 0, 69, 32
1, 196154, Control_c, 0, 64, 0
1, 196384, Control_c, 0, 64, 127
1, 196418, Note_on_c, 0, 69, 0
1, 196432, Note_on_c, 0, 64, 0
1, 196674, Note_on_c, 0, 64, 45
1, 196676, Note_on_c, 0, 69, 36
1, 197098, Note_on_c, 0, 64, 0
1, 197108, Note_on_c, 0, 69, 0
1, 197236, Note_on_c, 0, 69, 38
1, 197250, Note_on_c, 0, 64, 48
1, 197560, Note_on_c, 0, 64, 0
1, 197616, Note_on_c, 0, 69, 0
1, 197758, Note_on_c, 0, 64, 59
1, 197774, Note_on_c, 0, 69, 42
1, 197854, Note_on_c, 0, 61, 0
1, 197960, Note_on_c, 0, 63, 72
1, 198056, Note_on_c, 0, 64, 0
1, 198068, Note_on_c, 0, 76, 0
1, 198074, Note_on_c, 0, 69, 0
1, 198106, Note_on_c, 0, 61, 77
1, 198130, Note_on_c, 0, 63, 0
1, 198252, Note_on_c, 0, 75, 83
1, 198274, Note_on_c, 0, 64, 50
1, 198276, Note_on_c, 0, 69, 39
1, 198296, Note_on_c, 0, 59, 68
1, 198330, Note_on_c, 0, 61, 0
1, 198528, Control_c, 0, 64, 0
1, 198676, Note_on_c, 0, 69, 0
1, 198686, Note_on_c, 0, 64, 0
1, 198688, Control_c, 0, 64, 127
1, 198814, Note_on_c, 0, 69, 59
1, 198820, Note_on_c, 0, 64, 57
1, 198954, Note_on_c, 0, 69, 0
1, 198960, Note_on_c, 0, 64, 0
1, 199124, Note_on_c, 0, 73, 86
1, 199124, Note_on_c, 0, 57, 60
1, 199142, Note_on_c, 0, 59, 0
1, 199190, Note_on_c, 0, 75, 0
1, 199294, Note_on_c, 0, 73, 0
1, 199306, Note_on_c, 0, 57, 0
1, 199372, Note_on_c, 0, 73, 68
1, 199402, Note_on_c, 0, 66, 41
1, 199404, Note_on_c, 0, 63, 51
1, 199418, Note_on_c, 0, 57, 33
1, 199550, Control_c, 0, 64, 0
1, 199750, Control_c, 0, 64, 127
1, 199840, Note_on_c, 0, 63, 0
1, 199870, Note_on_c, 0, 66, 0
1, 200020, Note_on_c, 0, 63, 52
1, 200020, Note_on_c, 0, 66, 48
1, 200308, Note_on_c, 0, 63, 0
1, 200358, Note_on_c, 0, 66, 0
1, 200542, Note_on_c, 0, 72, 79
1, 200562, Note_on_c, 0, 63, 40
1, 200592, Note_on_c, 0, 73, 0
1, 200656, Note_on_c, 0, 66, 2
1, 200808, Note_on_c, 0, 56, 73
1, 200824, Note_on_c, 0, 63, 0
1, 200846, Note_on_c, 0, 66, 0
1, 200902, Note_on_c, 0, 57, 0
1, 201068, Note_on_c, 0, 63, 56
1, 201070, Note_on_c, 0, 55, 85
1, 201088, Note_on_c, 0, 66, 37
1, 201120, Note_on_c, 0, 56, 0
1, 201302, Note_on_c, 0, 56, 76
1, 201332, Note_on_c, 0, 63, 0
1, 201364, Note_on_c, 0, 66, 0
1, 201378, Note_on_c, 0, 55, 0
1, 201566, Note_on_c, 0, 73, 78
1, 201582, Note_on_c, 0, 63, 51
1, 201592, Note_on_c, 0, 59, 65
1, 201608, Note_on_c, 0, 56, 0
1, 201608, Control_c, 0, 64, 0
1, 201618, Note_on_c, 0, 66, 28
1, 201672, Note_on_c, 0, 72, 0
1, 201808, Control_c, 0, 64, 127
1, 201840, Note_on_c, 0, 59, 0
1, 201856, Note_on_c, 0, 57, 59
1, 201896, Note_on_c, 0, 63, 0
1, 201952, Note_on_c, 0, 66, 0
1, 202078, Note_on_c, 0, 63, 38
1, 202082, Note_on_c, 0, 54, 71
1, 202088, Note_on_c, 0, 66, 31
1, 202144, Note_on_c, 0, 57, 0
1, 202304, Note_on_c, 0, 51, 72
1, 202312, Note_on_c, 0, 63, 0
1, 202334, Note_on_c, 0, 66, 0
1, 202342, Note_on_c, 0, 54, 0
1, 202654, Note_on_c, 0, 75, 73
1, 202680, Note_on_c, 0, 48, 54
1, 202692, Note_on_c, 0, 66, 28
1, 202692, Note_on_c, 0, 63, 32
1, 202718, Note_on_c, 0, 51, 0
1, 202774, Note_on_c, 0, 73, 0
1, 202852, Control_c, 0, 64, 0
1, 203098, Control_c, 0, 64, 127
1, 203186, Note_on_c, 0, 63, 0
1, 203194, Note_on_c, 0, 66, 0
1, 203378, Note_on_c, 0, 66, 24
1, 203386, Note_on_c, 0, 63, 35
1, 203726, Note_on_c, 0, 63, 0
1, 203760, Note_on_c, 0, 66, 0
1, 203814, Note_on_c, 0, 75, 0
1, 203914, Note_on_c, 0, 48, 0
1, 203924, Note_on_c, 0, 68, 59
1, 203952, Note_on_c, 0, 63, 35
1, 203962, Note_on_c, 0, 66, 18
1, 204202, Note_on_c, 0, 63, 0
1, 204240, Note_on_c, 0, 66, 0
1, 204452, Note_on_c, 0, 43, 67
1, 204455, Note_on_c, 0, 63, 41
1, 204464, Note_on_c, 0, 66, 25
1, 204722, Note_on_c, 0, 44, 81
1, 204762, Note_on_c, 0, 66, 0
1, 204765, Note_on_c, 0, 63, 0
1, 204822, Note_on_c, 0, 43, 0
1, 204890, Note_on_c, 0, 47, 67
1, 204920, Note_on_c, 0, 60, 56
1, 204920, Note_on_c, 0, 66, 50
1, 204940, Note_on_c, 0, 45, 76
1, 204972, Note_on_c, 0, 44, 0
1, 205018, Note_on_c, 0, 47, 0
1, 205020, Control_c, 0, 64, 0
1, 205186, Note_on_c, 0, 44, 83
1, 205204, Control_c, 0, 64, 127
1, 205250, Note_on_c, 0, 45, 0
1, 205262, Note_on_c, 0, 60, 0
1, 205268, Note_on_c, 0, 66, 0
1, 205436, Note_on_c, 0, 49, 83
1, 205448, Note_on_c, 0, 60, 58
1, 205454, Note_on_c, 0, 66, 48
1, 205466, Control_c, 0, 64, 0
1, 205588, Note_on_c, 0, 44, 0
1, 205630, Note_on_c, 0, 68, 0
1, 205633, Control_c, 0, 64, 127
1, 205718, Note_on_c, 0, 68, 74
1, 205726, Note_on_c, 0, 51, 83
1, 205790, Note_on_c, 0, 49, 0
1, 206026, Note_on_c, 0, 68, 0
1, 206060, Note_on_c, 0, 66, 0
1, 206096, Note_on_c, 0, 68, 78
1, 206118, Note_on_c, 0, 52, 92
1, 206172, Control_c, 0, 64, 0
1, 206234, Note_on_c, 0, 51, 0
1, 206250, Note_on_c, 0, 60, 0
1, 206464, Control_c, 0, 64, 127
1, 206716, Note_on_c, 0, 61, 68
1, 206898, Note_on_c, 0, 52, 0
1, 207072, Note_on_c, 0, 61, 0
1, 207236, Note_on_c, 0, 73, 83
1, 207256, Note_on_c, 0, 61, 51
1, 207268, Note_on_c, 0, 64, 55
1, 207271, Note_on_c, 0, 37, 77
1, 207380, Note_on_c, 0, 68, 0
1, 207494, Control_c, 0, 64, 0
1, 207646, Control_c, 0, 64, 127
1, 207668, Note_on_c, 0, 61, 0
1, 207686, Note_on_c, 0, 64, 0
1, 207804, Note_on_c, 0, 37, 0
1, 207814, Note_on_c, 0, 61, 52
1, 207817, Note_on_c, 0, 64, 42
1, 208084, Note_on_c, 0, 64, 0
1, 208102, Note_on_c, 0, 73, 0
1, 208122, Note_on_c, 0, 61, 0
1, 208290, Note_on_c, 0, 71, 94
1, 208306, Note_on_c, 0, 61, 52
1, 208318, Note_on_c, 0, 64, 52
1, 208338, Note_on_c, 0, 56, 72
1, 208510, Note_on_c, 0, 64, 0
1, 208566, Note_on_c, 0, 61, 0
1, 208886, Note_on_c, 0, 61, 38
1, 208908, Note_on_c, 0, 64, 59
1, 208970, Note_on_c, 0, 71, 0
1, 209100, Note_on_c, 0, 56, 0
1, 209202, Note_on_c, 0, 56, 80
1, 209256, Note_on_c, 0, 61, 0
1, 209278, Note_on_c, 0, 64, 0
1, 209436, Note_on_c, 0, 56, 0
1, 209481, Note_on_c, 0, 71, 91
1, 209520, Note_on_c, 0, 61, 31
1, 209528, Note_on_c, 0, 56, 54
1, 209534, Note_on_c, 0, 64, 29
1, 209660, Control_c, 0, 64, 0
1, 209828, Control_c, 0, 64, 127
1, 209876, Note_on_c, 0, 61, 0
1, 209904, Note_on_c, 0, 64, 0
1, 210108, Note_on_c, 0, 61, 45
1, 210128, Note_on_c, 0, 64, 51
1, 210388, Note_on_c, 0, 61, 0
1, 210396, Note_on_c, 0, 64, 0
1, 210526, Note_on_c, 0, 56, 0
1, 210588, Note_on_c, 0, 30, 66
1, 210644, Note_on_c, 0, 30, 0
1, 210694, Note_on_c, 0, 69, 57
1, 210698, Note_on_c, 0, 61, 35
1, 210706, Note_on_c, 0, 64, 23
1, 210720, Note_on_c, 0, 42, 66
1, 210830, Note_on_c, 0, 71, 0
1, 210920, Control_c, 0, 64, 0
1, 211056, Note_on_c, 0, 64, 0
1, 211072, Control_c, 0, 64, 127
1, 211152, Note_on_c, 0, 49, 74
1, 211160, Note_on_c, 0, 61, 0
1, 211268, Note_on_c, 0, 42, 0
1, 211374, Note_on_c, 0, 61, 56
1, 211400, Note_on_c, 0, 64, 54
1, 211498, Note_on_c, 0, 54, 86
1, 211510, Note_on_c, 0, 49, 0
1, 211564, Note_on_c, 0, 64, 0
1, 211636, Note_on_c, 0, 61, 0
1, 211794, Note_on_c, 0, 68, 83
1, 211800, Note_on_c, 0, 61, 53
1, 211818, Note_on_c, 0, 56, 78
1, 211830, Note_on_c, 0, 64, 44
1, 211860, Note_on_c, 0, 54, 0
1, 211918, Note_on_c, 0, 69, 0
1, 212072, Control_c, 0, 64, 0
1, 212140, Note_on_c, 0, 64, 0
1, 212178, Note_on_c, 0, 59, 87
1, 212210, Control_c, 0, 64, 127
1, 212216, Note_on_c, 0, 61, 0
1, 212428, Note_on_c, 0, 61, 62
1, 212428, Note_on_c, 0, 64, 78
1, 212508, Note_on_c, 0, 56, 0
1, 212524, Note_on_c, 0, 59, 0
1, 212572, Note_on_c, 0, 57, 76
1, 212748, Note_on_c, 0, 68, 0
1, 212764, Note_on_c, 0, 61, 0
1, 212772, Note_on_c, 0, 64, 0
1, 212856, Note_on_c, 0, 57, 0
1, 212944, Note_on_c, 0, 68, 78
1, 212966, Note_on_c, 0, 61, 49
1, 212968, Note_on_c, 0, 63, 46
1, 213014, Note_on_c, 0, 57, 71
1, 213050, Note_on_c, 0, 63, 0
1, 213146, Note_on_c, 0, 63, 6
1, 213164, Control_c, 0, 64, 0
1, 213362, Control_c, 0, 64, 127
1, 213430, Note_on_c, 0, 61, 0
1, 213446, Note_on_c, 0, 63, 0
1, 213656, Note_on_c, 0, 61, 53
1, 213660, Note_on_c, 0, 63, 60
1, 213874, Note_on_c, 0, 63, 0
1, 213884, Note_on_c, 0, 61, 0
1, 213944, Note_on_c, 0, 57, 0
1, 214274, Note_on_c, 0, 66, 66
1, 214292, Note_on_c, 0, 57, 38
1, 214304, Note_on_c, 0, 63, 41
1, 214324, Note_on_c, 0, 48, 75
1, 214360, Note_on_c, 0, 68, 0
1, 214624, Note_on_c, 0, 63, 0
1, 214706, Note_on_c, 0, 57, 0
1, 214882, Note_on_c, 0, 56, 59
1, 214900, Note_on_c, 0, 63, 56
1, 214946, Control_c, 0, 64, 0
1, 215144, Control_c, 0, 64, 127
1, 215274, Note_on_c, 0, 66, 0
1, 215286, Note_on_c, 0, 48, 0
1, 215372, Note_on_c, 0, 56, 0
1, 215546, Note_on_c, 0, 66, 55
1, 215560, Note_on_c, 0, 56, 40
1, 215570, Note_on_c, 0, 61, 40
1, 215584, Note_on_c, 0, 49, 43
1, 215636, Note_on_c, 0, 63, 0
1, 215686, Note_on_c, 0, 49, 0
1, 215706, Note_on_c, 0, 51, 59
1, 215776, Note_on_c, 0, 51, 0
1, 215776, Note_on_c, 0, 49, 54
1, 215858, Note_on_c, 0, 49, 0
1, 215866, Note_on_c, 0, 51, 48
1, 215894, Note_on_c, 0, 61, 0
1, 215897, Note_on_c, 0, 56, 0
1, 215926, Note_on_c, 0, 51, 0
1, 215926, Note_on_c, 0, 49, 69
1, 216006, Note_on_c, 0, 51, 62
1, 216022, Note_on_c, 0, 49, 0
1, 216056, Note_on_c, 0, 49, 37
1, 216066, Note_on_c, 0, 51, 0
1, 216166, Note_on_c, 0, 56, 37
1, 216180, Note_on_c, 0, 48, 63
1, 216198, Note_on_c, 0, 61, 43
1, 216201, Note_on_c, 0, 49, 0
1, 216201, Note_on_c, 0, 64, 69
1, 216250, Control_c, 0, 64, 0
1, 216316, Note_on_c, 0, 49, 57
1, 216368, Note_on_c, 0, 48, 0
1, 216376, Note_on_c, 0, 66, 0
1, 216404, Control_c, 0, 64, 127
1, 216450, Note_on_c, 0, 51, 71
1, 216462, Note_on_c, 0, 49, 0
1, 216506, Note_on_c, 0, 56, 0
1, 216514, Note_on_c, 0, 61, 0
1, 216516, Note_on_c, 0, 64, 0
1, 216592, Note_on_c, 0, 51, 0
1, 216598, Note_on_c, 0, 52, 73
1, 216846, Note_on_c, 0, 56, 40
1, 216854, Note_on_c, 0, 64, 67
1, 216870, Note_on_c, 0, 60, 38
1, 216928, Control_c, 0, 64, 0
1, 216931, Note_on_c, 0, 52, 0
1, 216962, Note_on_c, 0, 44, 54
1, 217304, Note_on_c, 0, 60, 0
1, 217388, Note_on_c, 0, 56, 0
1, 217434, Control_c, 0, 64, 127
1, 217512, Note_on_c, 0, 63, 56
1, 217530, Note_on_c, 0, 56, 22
1, 217556, Note_on_c, 0, 60, 25
1, 217576, Note_on_c, 0, 64, 0
1, 217666, Control_c, 0, 64, 0
1, 217834, Control_c, 0, 64, 127
1, 217846, Note_on_c, 0, 44, 0
1, 217876, Note_on_c, 0, 56, 0
1, 218112, Note_on_c, 0, 68, 50
1, 218112, Note_on_c, 0, 31, 77
1, 218118, Note_on_c, 0, 56, 33
1, 218194, Note_on_c, 0, 60, 0
1, 218284, Note_on_c, 0, 31, 0
1, 218292, Note_on_c, 0, 32, 55
1, 218400, Note_on_c, 0, 32, 0
1, 218400, Note_on_c, 0, 33, 73
1, 218490, Note_on_c, 0, 34, 62
1, 218510, Note_on_c, 0, 33, 0
1, 218560, Note_on_c, 0, 68, 0
1, 218588, Note_on_c, 0, 35, 78
1, 218590, Note_on_c, 0, 56, 0
1, 218604, Note_on_c, 0, 63, 0
1, 218638, Note_on_c, 0, 34, 0
1, 218658, Note_on_c, 0, 35, 0
1, 218678, Note_on_c, 0, 36, 73
1, 218754, Note_on_c, 0, 37, 87
1, 218786, Note_on_c, 0, 36, 0
1, 218814, Note_on_c, 0, 63, 6
1, 218850, Note_on_c, 0, 38, 72
1, 218910, Note_on_c, 0, 68, 73
1, 218912, Note_on_c, 0, 56, 65
1, 218932, Note_on_c, 0, 37, 0
1, 218948, Note_on_c, 0, 39, 78
1, 218980, Note_on_c, 0, 63, 0
1, 218980, Note_on_c, 0, 38, 0
1, 219036, Note_on_c, 0, 40, 91
1, 219042, Note_on_c, 0, 39, 0
1, 219108, Note_on_c, 0, 41, 86
1, 219132, Note_on_c, 0, 56, 0
1, 219152, Note_on_c, 0, 40, 0
1, 219192, Note_on_c, 0, 42, 70
1, 219194, Note_on_c, 0, 68, 0
1, 219230, Note_on_c, 0, 41, 0
1, 219260, Note_on_c, 0, 43, 84
1, 219286, Note_on_c, 0, 42, 0
1, 219350, Note_on_c, 0, 44, 90
1, 219362, Note_on_c, 0, 43, 0
1, 219436, Note_on_c, 0, 45, 88
1, 219474, Note_on_c, 0, 44, 0
1, 219520, Note_on_c, 0, 46, 79
1, 219532, Note_on_c, 0, 45, 0
1, 219532, Note_on_c, 0, 68, 76
1, 219542, Note_on_c, 0, 66, 66
1, 219545, Note_on_c, 0, 63, 76
1, 219604, Note_on_c, 0, 47, 86
1, 219638, Note_on_c, 0, 46, 0
1, 219674, Note_on_c, 0, 48, 89
1, 219698, Note_on_c, 0, 47, 0
1, 219756, Note_on_c, 0, 49, 85
1, 219770, Note_on_c, 0, 63, 0
1, 219814, Note_on_c, 0, 66, 0
1, 219822, Note_on_c, 0, 48, 0
1, 219830, Note_on_c, 0, 68, 0
1, 219830, Note_on_c, 0, 50, 83
1, 219866, Note_on_c, 0, 49, 0
1, 219922, Note_on_c, 0, 51, 92
1, 219936, Note_on_c, 0, 50, 0
1, 220010, Note_on_c, 0, 52, 103
1, 220086, Note_on_c, 0, 51, 0
1, 220100, Note_on_c, 0, 53, 107
1, 220114, Note_on_c, 0, 52, 0
1, 220168, Note_on_c, 0, 68, 84
1, 220170, Note_on_c, 0, 63, 84
1, 220180, Note_on_c, 0, 66, 70
1, 220196, Note_on_c, 0, 54, 95
1, 220214, Note_on_c, 0, 53, 0
1, 220292, Note_on_c, 0, 55, 101
1, 220320, Note_on_c, 0, 54, 0
1, 220376, Note_on_c, 0, 56, 88
1, 220392, Note_on_c, 0, 55, 0
1, 220466, Note_on_c, 0, 57, 91
1, 220496, Note_on_c, 0, 56, 0
1, 220546, Note_on_c, 0, 58, 86
1, 220566, Note_on_c, 0, 63, 0
1, 220584, Note_on_c, 0, 57, 0
1, 220650, Note_on_c, 0, 59, 94
1, 220680, Note_on_c, 0, 58, 0
1, 220698, Note_on_c, 0, 66, 0
1, 220730, Note_on_c, 0, 68, 0
1, 220730, Note_on_c, 0, 60, 102
1, 220762, Note_on_c, 0, 59, 0
1, 220822, Note_on_c, 0, 61, 95
1, 220880, Note_on_c, 0, 60, 0
1, 220910, Note_on_c, 0, 62, 85
1, 220936, Note_on_c, 0, 61, 0
1, 221004, Note_on_c, 0, 62, 0
1, 221012, Note_on_c, 0, 63, 99
1, 221198, Note_on_c, 0, 63, 0
1, 221200, Note_on_c, 0, 64, 119
1, 221628, Control_c, 0, 64, 0
1, 221918, Note_on_c, 0, 73, 67
1, 221922, Note_on_c, 0, 68, 57
1, 222074, Control_c, 0, 64, 127
1, 222248, Note_on_c, 0, 68, 0
1, 222314, Note_on_c, 0, 73, 0
1, 222578, Note_on_c, 0, 68, 53
1, 222580, Note_on_c, 0, 73, 55
1, 222928, Note_on_c, 0, 68, 0
1, 222990, Note_on_c, 0, 73, 0
1, 223146, Note_on_c, 0, 73, 64
1, 223156, Note_on_c, 0, 68, 49
1, 223518, Note_on_c, 0, 68, 0
1, 223538, Note_on_c, 0, 73, 0
1, 223694, Note_on_c, 0, 73, 59
1, 223706, Note_on_c, 0, 68, 44
1, 223718, Note_on_c, 0, 63, 103
1, 223800, Note_on_c, 0, 64, 0
1, 223888, Control_c, 0, 64, 0
1, 224026, Control_c, 0, 64, 127
1, 224124, Note_on_c, 0, 68, 0
1, 224188, Note_on_c, 0, 73, 0
1, 224380, Note_on_c, 0, 68, 45
1, 224388, Note_on_c, 0, 73, 55
1, 224514, Note_on_c, 0, 68, 0
1, 224534, Note_on_c, 0, 73, 0
1, 224754, Note_on_c, 0, 61, 97
1, 224796, Note_on_c, 0, 63, 0
1, 225070, Note_on_c, 0, 61, 0
1, 225100, Note_on_c, 0, 76, 96
1, 225118, Note_on_c, 0, 69, 52
1, 225126, Note_on_c, 0, 61, 79
1, 225126, Note_on_c, 0, 64, 60
1, 225286, Control_c, 0, 64, 0
1, 225516, Control_c, 0, 64, 127
1, 225606, Note_on_c, 0, 64, 0
1, 225616, Note_on_c, 0, 69, 0
1, 225868, Note_on_c, 0, 69, 43
1, 225871, Note_on_c, 0, 64, 44
1, 226320, Note_on_c, 0, 64, 0
1, 226344, Note_on_c, 0, 69, 0
1, 226470, Note_on_c, 0, 69, 47
1, 226476, Note_on_c, 0, 64, 64
1, 226822, Note_on_c, 0, 64, 0
1, 226822, Note_on_c, 0, 69, 0
1, 226970, Note_on_c, 0, 69, 59
1, 226976, Note_on_c, 0, 64, 62
1, 227114, Note_on_c, 0, 61, 0
1, 227128, Note_on_c, 0, 60, 83
1, 227290, Note_on_c, 0, 69, 0
1, 227296, Note_on_c, 0, 63, 92
1, 227350, Note_on_c, 0, 64, 0
1, 227350, Note_on_c, 0, 60, 0
1, 227400, Note_on_c, 0, 76, 0
1, 227448, Note_on_c, 0, 61, 90
1, 227492, Note_on_c, 0, 63, 0
1, 227612, Note_on_c, 0, 75, 89
1, 227642, Note_on_c, 0, 64, 47
1, 227645, Note_on_c, 0, 69, 40
1, 227658, Note_on_c, 0, 59, 78
1, 227694, Note_on_c, 0, 61, 0
1, 227760, Control_c, 0, 64, 0
1, 227960, Control_c, 0, 64, 127
1, 227978, Note_on_c, 0, 69, 0
1, 228014, Note_on_c, 0, 64, 0
1, 228210, Note_on_c, 0, 69, 51
1, 228218, Note_on_c, 0, 64, 61
1, 228330, Note_on_c, 0, 64, 0
1, 228350, Note_on_c, 0, 69, 0
1, 228486, Note_on_c, 0, 73, 85
1, 228505, Note_on_c, 0, 57, 74
1, 228506, Note_on_c, 0, 75, 0
1, 228588, Note_on_c, 0, 73, 0
1, 228632, Note_on_c, 0, 59, 0
1, 228657, Note_on_c, 0, 57, 0
1, 228912, Note_on_c, 0, 73, 78
1, 228936, Note_on_c, 0, 62, 51
1, 228940, Note_on_c, 0, 65, 41
1, 228956, Note_on_c, 0, 57, 55
1, 229128, Control_c, 0, 64, 0
1, 229296, Control_c, 0, 64, 127
1, 229308, Note_on_c, 0, 62, 0
1, 229310, Note_on_c, 0, 65, 0
1, 229488, Note_on_c, 0, 65, 44
1, 229488, Note_on_c, 0, 62, 47
1, 229794, Note_on_c, 0, 65, 0
1, 229848, Note_on_c, 0, 62, 0
1, 229848, Note_on_c, 0, 73, 0
1, 230004, Note_on_c, 0, 71, 85
1, 230022, Note_on_c, 0, 62, 48
1, 230026, Note_on_c, 0, 65, 49
1, 230038, Note_on_c, 0, 56, 73
1, 230094, Note_on_c, 0, 57, 0
1, 230326, Control_c, 0, 64, 0
1, 230432, Note_on_c, 0, 65, 0
1, 230432, Control_c, 0, 64, 127
1, 230438, Note_on_c, 0, 62, 0
1, 230574, Note_on_c, 0, 62, 45
1, 230577, Note_on_c, 0, 65, 55
1, 230754, Note_on_c, 0, 53, 98
1, 230768, Note_on_c, 0, 62, 0
1, 230778, Note_on_c, 0, 65, 0
1, 230790, Note_on_c, 0, 56, 0
1, 230812, Note_on_c, 0, 71, 0
1, 230874, Note_on_c, 0, 54, 87
1, 230900, Note_on_c, 0, 53, 0
1, 230984, Note_on_c, 0, 56, 79
1, 230989, Note_on_c, 0, 54, 0
1, 231064, Note_on_c, 0, 71, 98
1, 231074, Note_on_c, 0, 62, 71
1, 231076, Note_on_c, 0, 66, 48
1, 231084, Note_on_c, 0, 54, 71
1, 231086, Note_on_c, 0, 56, 0
1, 231156, Control_c, 0, 64, 0
1, 231178, Note_on_c, 0, 54, 0
1, 231184, Note_on_c, 0, 56, 61
1, 231272, Note_on_c, 0, 54, 72
1, 231278, Note_on_c, 0, 56, 0
1, 231308, Control_c, 0, 64, 127
1, 231330, Note_on_c, 0, 54, 0
1, 231356, Note_on_c, 0, 56, 62
1, 231406, Note_on_c, 0, 62, 0
1, 231414, Note_on_c, 0, 66, 0
1, 231430, Note_on_c, 0, 56, 0
1, 231444, Note_on_c, 0, 54, 68
1, 231496, Note_on_c, 0, 54, 0
1, 231514, Note_on_c, 0, 56, 67
1, 231586, Note_on_c, 0, 56, 0
1, 231606, Note_on_c, 0, 54, 76
1, 231632, Note_on_c, 0, 62, 76
1, 231640, Note_on_c, 0, 66, 54
1, 231668, Note_on_c, 0, 54, 0
1, 231676, Note_on_c, 0, 56, 70
1, 231768, Note_on_c, 0, 56, 0
1, 231774, Note_on_c, 0, 54, 67
1, 231828, Note_on_c, 0, 56, 69
1, 231838, Note_on_c, 0, 54, 0
1, 231912, Note_on_c, 0, 54, 79
1, 231934, Note_on_c, 0, 56, 0
1, 231972, Note_on_c, 0, 71, 0
1, 231980, Note_on_c, 0, 62, 0
1, 232030, Note_on_c, 0, 53, 85
1, 232034, Note_on_c, 0, 54, 0
1, 232126, Note_on_c, 0, 53, 0
1, 232130, Note_on_c, 0, 54, 70
1, 232266, Note_on_c, 0, 54, 0
1, 232292, Note_on_c, 0, 71, 96
1, 232306, Note_on_c, 0, 62, 65
1, 232310, Note_on_c, 0, 68, 51
1, 232314, Note_on_c, 0, 53, 85
1, 232326, Note_on_c, 0, 66, 0
1, 232416, Control_c, 0, 64, 0
1, 232630, Control_c, 0, 64, 127
1, 232668, Note_on_c, 0, 68, 0
1, 232702, Note_on_c, 0, 62, 0
1, 232758, Note_on_c, 0, 53, 0
1, 232896, Note_on_c, 0, 68, 69
1, 232904, Note_on_c, 0, 62, 59
1, 233060, Note_on_c, 0, 62, 0
1, 233076, Note_on_c, 0, 68, 0
1, 233498, Note_on_c, 0, 62, 64
1, 233526, Note_on_c, 0, 68, 96
1, 233792, Note_on_c, 0, 62, 0
1, 234168, Note_on_c, 0, 68, 0
1, 234176, Note_on_c, 0, 71, 0
1, 234192, Note_on_c, 0, 62, 70
1, 234294, Note_on_c, 0, 62, 0
1, 234850, Note_on_c, 0, 73, 81
1, 234874, Note_on_c, 0, 61, 44
1, 234874, Note_on_c, 0, 68, 55
1, 234878, Note_on_c, 0, 41, 92
1, 235058, Control_c, 0, 64, 0
1, 235274, Control_c, 0, 64, 127
1, 235406, Note_on_c, 0, 61, 0
1, 235446, Note_on_c, 0, 68, 0
1, 235662, Note_on_c, 0, 61, 58
1, 235662, Note_on_c, 0, 68, 55
1, 235830, Note_on_c, 0, 61, 0
1, 235988, Note_on_c, 0, 71, 94
1, 235998, Note_on_c, 0, 68, 0
1, 236072, Note_on_c, 0, 73, 0
1, 236184, Note_on_c, 0, 71, 0
1, 236488, Note_on_c, 0, 71, 91
1, 236498, Note_on_c, 0, 61, 53
1, 236506, Note_on_c, 0, 42, 65
1, 236520, Note_on_c, 0, 66, 25
1, 236546, Note_on_c, 0, 41, 0
1, 236656, Control_c, 0, 64, 0
1, 236902, Control_c, 0, 64, 127
1, 236914, Note_on_c, 0, 44, 66
1, 236924, Note_on_c, 0, 42, 0
1, 236942, Note_on_c, 0, 66, 0
1, 236944, Note_on_c, 0, 61, 0
1, 237212, Note_on_c, 0, 42, 51
1, 237221, Note_on_c, 0, 61, 40
1, 237238, Note_on_c, 0, 66, 36
1, 237248, Note_on_c, 0, 44, 0
1, 237434, Note_on_c, 0, 66, 0
1, 237504, Note_on_c, 0, 41, 71
1, 237536, Note_on_c, 0, 61, 0
1, 237538, Note_on_c, 0, 42, 0
1, 237776, Note_on_c, 0, 69, 67
1, 237786, Note_on_c, 0, 61, 40
1, 237794, Note_on_c, 0, 42, 58
1, 237816, Note_on_c, 0, 66, 20
1, 237824, Control_c, 0, 64, 0
1, 237846, Note_on_c, 0, 41, 0
1, 237968, Note_on_c, 0, 71, 0
1, 238066, Note_on_c, 0, 44, 66
1, 238100, Control_c, 0, 64, 127
1, 238108, Note_on_c, 0, 66, 0
1, 238114, Note_on_c, 0, 61, 0
1, 238190, Note_on_c, 0, 42, 0
1, 238322, Note_on_c, 0, 45, 67
1, 238326, Note_on_c, 0, 61, 43
1, 238338, Note_on_c, 0, 66, 34
1, 238350, Note_on_c, 0, 44, 0
1, 238580, Note_on_c, 0, 44, 82
1, 238620, Note_on_c, 0, 45, 0
1, 238640, Note_on_c, 0, 66, 0
1, 238648, Note_on_c, 0, 61, 0
1, 238836, Note_on_c, 0, 47, 82
1, 238842, Note_on_c, 0, 61, 44
1, 238858, Note_on_c, 0, 66, 40
1, 238900, Note_on_c, 0, 44, 0
1, 238900, Control_c, 0, 64, 0
1, 239106, Note_on_c, 0, 45, 79
1, 239130, Control_c, 0, 64, 127
1, 239166, Note_on_c, 0, 47, 0
1, 239174, Note_on_c, 0, 61, 0
1, 239190, Note_on_c, 0, 66, 0
1, 239362, Note_on_c, 0, 44, 78
1, 239365, Note_on_c, 0, 61, 40
1, 239374, Note_on_c, 0, 66, 38
1, 239400, Note_on_c, 0, 45, 0
1, 239600, Note_on_c, 0, 42, 78
1, 239634, Note_on_c, 0, 61, 0
1, 239658, Note_on_c, 0, 44, 0
1, 239692, Note_on_c, 0, 66, 0
1, 239840, Note_on_c, 0, 42, 0
1, 239856, Note_on_c, 0, 61, 46
1, 239866, Note_on_c, 0, 66, 33
1, 239868, Note_on_c, 0, 52, 84
1, 239928, Control_c, 0, 64, 0
1, 240152, Note_on_c, 0, 51, 77
1, 240160, Control_c, 0, 64, 127
1, 240222, Note_on_c, 0, 52, 0
1, 240222, Note_on_c, 0, 61, 0
1, 240242, Note_on_c, 0, 66, 0
1, 240426, Note_on_c, 0, 50, 74
1, 240430, Note_on_c, 0, 61, 42
1, 240438, Note_on_c, 0, 66, 46
1, 240477, Note_on_c, 0, 51, 0
1, 240481, Control_c, 0, 64, 0
1, 240712, Control_c, 0, 64, 127
1, 240714, Note_on_c, 0, 51, 77
1, 240744, Note_on_c, 0, 61, 0
1, 240760, Note_on_c, 0, 50, 0
1, 240812, Note_on_c, 0, 66, 0
1, 241022, Note_on_c, 0, 61, 34
1, 241032, Note_on_c, 0, 66, 39
1, 241035, Note_on_c, 0, 59, 58
1, 241070, Note_on_c, 0, 51, 0
1, 241096, Control_c, 0, 64, 0
1, 241342, Control_c, 0, 64, 127
1, 241368, Note_on_c, 0, 57, 59
1, 241438, Note_on_c, 0, 59, 0
1, 241460, Note_on_c, 0, 61, 0
1, 241500, Note_on_c, 0, 66, 0
1, 241658, Note_on_c, 0, 56, 64
1, 241668, Note_on_c, 0, 66, 33
1, 241680, Note_on_c, 0, 61, 30
1, 241704, Note_on_c, 0, 57, 0
1, 241758, Control_c, 0, 64, 0
1, 241896, Control_c, 0, 64, 127
1, 241914, Note_on_c, 0, 69, 0
1, 241932, Note_on_c, 0, 54, 76
1, 241950, Note_on_c, 0, 66, 0
1, 242018, Note_on_c, 0, 56, 0
1, 242030, Note_on_c, 0, 61, 0
1, 242218, Note_on_c, 0, 54, 0
1, 242218, Note_on_c, 0, 69, 66
1, 242234, Note_on_c, 0, 61, 36
1, 242248, Note_on_c, 0, 52, 64
1, 242278, Note_on_c, 0, 66, 7
1, 242326, Control_c, 0, 64, 0
1, 242538, Note_on_c, 0, 51, 65
1, 242542, Control_c, 0, 64, 127
1, 242556, Note_on_c, 0, 52, 0
1, 242594, Note_on_c, 0, 61, 0
1, 242648, Control_c, 0, 64, 0
1, 242762, Note_on_c, 0, 66, 0
1, 242832, Control_c, 0, 64, 127
1, 242870, Note_on_c, 0, 66, 25
1, 242888, Note_on_c, 0, 51, 0
1, 242893, Note_on_c, 0, 54, 52
1, 242893, Note_on_c, 0, 61, 37
1, 242940, Control_c, 0, 64, 0
1, 243124, Control_c, 0, 64, 127
1, 243150, Note_on_c, 0, 69, 0
1, 243252, Note_on_c, 0, 69, 42
1, 243254, Note_on_c, 0, 54, 0
1, 243288, Note_on_c, 0, 57, 45
1, 243394, Note_on_c, 0, 66, 0
1, 243472, Note_on_c, 0, 69, 0
1, 243556, Note_on_c, 0, 61, 0
1, 243726, Note_on_c, 0, 57, 0
1, 243788, Note_on_c, 0, 69, 47
1, 243796, Note_on_c, 0, 61, 35
1, 243810, Note_on_c, 0, 44, 38
1, 243828, Note_on_c, 0, 64, 25
1, 243878, Control_c, 0, 64, 0
1, 244136, Note_on_c, 0, 64, 0
1, 244154, Control_c, 0, 64, 127
1, 244166, Note_on_c, 0, 61, 0
1, 244206, Note_on_c, 0, 49, 38
1, 244432, Note_on_c, 0, 44, 0
1, 244520, Note_on_c, 0, 49, 0
1, 244534, Note_on_c, 0, 61, 27
1, 244558, Note_on_c, 0, 64, 22
1, 244563, Note_on_c, 0, 52, 32
1, 244648, Note_on_c, 0, 64, 0
1, 244750, Note_on_c, 0, 61, 0
1, 244870, Note_on_c, 0, 49, 36
1, 245040, Note_on_c, 0, 52, 0
1, 245298, Note_on_c, 0, 52, 2
1, 245332, Note_on_c, 0, 68, 42
1, 245352, Control_c, 0, 64, 0
1, 245382, Note_on_c, 0, 61, 17
1, 245386, Note_on_c, 0, 64, 18
1, 245412, Note_on_c, 0, 56, 27
1, 245430, Note_on_c, 0, 69, 0
1, 245690, Control_c, 0, 64, 127
1, 245700, Note_on_c, 0, 61, 0
1, 245710, Note_on_c, 0, 64, 0
1, 245762, Note_on_c, 0, 49, 0
1, 245972, Note_on_c, 0, 52, 0
1, 246034, Note_on_c, 0, 61, 22
1, 246064, Note_on_c, 0, 64, 26
1, 246254, Note_on_c, 0, 64, 0
1, 246258, Note_on_c, 0, 61, 0
1, 246664, Note_on_c, 0, 61, 22
1, 246672, Note_on_c, 0, 64, 21
1, 246878, Note_on_c, 0, 61, 0
1, 246900, Note_on_c, 0, 64, 0
1, 247422, Note_on_c, 0, 61, 16
1, 247434, Note_on_c, 0, 64, 21
1, 247452, Note_on_c, 0, 56, 0
1, 247488, Note_on_c, 0, 52, 32
1, 247532, Note_on_c, 0, 61, 0
1, 247540, Note_on_c, 0, 68, 0
1, 247570, Note_on_c, 0, 52, 0
1, 247606, Note_on_c, 0, 64, 0
1, 248208, Note_on_c, 0, 76, 43
1, 248234, Note_on_c, 0, 73, 18
1, 248252, Note_on_c, 0, 64, 16
1, 248304, Note_on_c, 0, 61, 32
1, 248396, Control_c, 0, 64, 0
1, 248564, Control_c, 0, 64, 127
1, 248590, Note_on_c, 0, 73, 0
1, 248590, Note_on_c, 0, 56, 35
1, 248624, Note_on_c, 0, 64, 0
1, 248784, Note_on_c, 0, 56, 0
1, 248886, Note_on_c, 0, 73, 23
1, 248904, Note_on_c, 0, 57, 25
1, 248914, Note_on_c, 0, 64, 15
1, 248948, Control_c, 0, 64, 0
1, 249132, Control_c, 0, 64, 127
1, 249152, Note_on_c, 0, 64, 0
1, 249162, Note_on_c, 0, 73, 0
1, 249186, Note_on_c, 0, 57, 0
1, 249202, Note_on_c, 0, 52, 33
1, 249506, Note_on_c, 0, 52, 0
1, 249536, Note_on_c, 0, 56, 21
1, 249538, Note_on_c, 0, 73, 19
1, 249548, Note_on_c, 0, 64, 23
1, 249562, Control_c, 0, 64, 0
1, 249792, Control_c, 0, 64, 127
1, 249862, Note_on_c, 0, 73, 0
1, 249886, Note_on_c, 0, 64, 0
1, 250202, Note_on_c, 0, 73, 26
1, 250212, Note_on_c, 0, 61, 0
1, 250220, Note_on_c, 0, 64, 22
1, 250394, Note_on_c, 0, 56, 0
1, 250476, Note_on_c, 0, 73, 0
1, 250478, Note_on_c, 0, 64, 0
1, 250496, Note_on_c, 0, 76, 0
1, 250874, Note_on_c, 0, 76, 55
1, 250900, Note_on_c, 0, 73, 19
1, 250902, Note_on_c, 0, 61, 23
1, 250972, Note_on_c, 0, 64, 2
1, 251152, Note_on_c, 0, 73, 0
1, 251230, Note_on_c, 0, 64, 0
1, 251248, Note_on_c, 0, 56, 24
1, 251484, Note_on_c, 0, 56, 0
1, 251548, Note_on_c, 0, 73, 17
1, 251570, Note_on_c, 0, 57, 19
1, 251570, Note_on_c, 0, 64, 14
1, 251622, Control_c, 0, 64, 0
1, 251776, Control_c, 0, 64, 127
1, 251818, Note_on_c, 0, 64, 0
1, 251832, Note_on_c, 0, 73, 0
1, 251848, Note_on_c, 0, 52, 44
1, 251882, Note_on_c, 0, 57, 0
1, 252158, Note_on_c, 0, 52, 0
1, 252192, Note_on_c, 0, 73, 17
1, 252216, Note_on_c, 0, 64, 18
1, 252222, Note_on_c, 0, 56, 32
1, 252300, Control_c, 0, 64, 0
1, 252558, Note_on_c, 0, 73, 0
1, 252558, Control_c, 0, 64, 127
1, 252574, Note_on_c, 0, 64, 0
1, 252864, Note_on_c, 0, 61, 0
1, 252882, Note_on_c, 0, 73, 23
1, 252902, Note_on_c, 0, 64, 22
1, 253036, Note_on_c, 0, 76, 0
1, 253040, Note_on_c, 0, 64, 0
1, 253100, Note_on_c, 0, 73, 0
1, 253562, Note_on_c, 0, 56, 0
1, 253628, Note_on_c, 0, 73, 44
1, 253670, Note_on_c, 0, 61, 20
1, 253678, Note_on_c, 0, 57, 27
1, 253700, Note_on_c, 0, 64, 15
1, 253772, Control_c, 0, 64, 0
1, 253810, Note_on_c, 0, 64, 0
1, 253972, Control_c, 0, 64, 127
1, 254090, Note_on_c, 0, 61, 0
1, 254108, Note_on_c, 0, 52, 46
1, 254136, Note_on_c, 0, 57, 0
1, 254454, Note_on_c, 0, 52, 0
1, 254464, Note_on_c, 0, 56, 42
1, 254470, Note_on_c, 0, 61, 24
1, 254486, Note_on_c, 0, 64, 36
1, 254494, Control_c, 0, 64, 0
1, 254724, Control_c, 0, 64, 127
1, 254790, Note_on_c, 0, 64, 0
1, 254790, Note_on_c, 0, 61, 0
1, 255058, Note_on_c, 0, 49, 32
1, 255118, Note_on_c, 0, 56, 0
1, 255290, Note_on_c, 0, 49, 0
1, 255290, Note_on_c, 0, 61, 20
1, 255302, Note_on_c, 0, 52, 36
1, 255318, Note_on_c, 0, 68, 17
1, 255402, Control_c, 0, 64, 0
1, 255632, Control_c, 0, 64, 127
1, 255708, Note_on_c, 0, 61, 0
1, 255740, Note_on_c, 0, 68, 0
1, 255988, Note_on_c, 0, 68, 19
1, 256000, Note_on_c, 0, 61, 17
1, 256088, Note_on_c, 0, 73, 0
1, 256148, Note_on_c, 0, 61, 0
1, 256194, Note_on_c, 0, 68, 0
1, 256704, Note_on_c, 0, 68, 51
1, 256720, Note_on_c, 0, 56, 22
1, 256744, Note_on_c, 0, 61, 20
1, 256888, Note_on_c, 0, 61, 0
1, 256944, Note_on_c, 0, 56, 0
1, 257382, Note_on_c, 0, 56, 23
1, 257398, Note_on_c, 0, 61, 30
1, 257610, Note_on_c, 0, 61, 0
1, 257642, Note_on_c, 0, 56, 0
1, 258016, Note_on_c, 0, 56, 28
1, 258028, Note_on_c, 0, 61, 32
1, 258042, Note_on_c, 0, 64, 28
1, 258242, Note_on_c, 0, 61, 0
1, 258242, Note_on_c, 0, 56, 0
1, 258290, Note_on_c, 0, 64, 0
1, 258378, Note_on_c, 0, 43, 36
1, 258714, Note_on_c, 0, 45, 52
1, 258740, Note_on_c, 0, 56, 23
1, 258746, Note_on_c, 0, 64, 35
1, 258754, Note_on_c, 0, 61, 26
1, 258808, Note_on_c, 0, 43, 0
1, 258813, Control_c, 0, 64, 0
1, 258996, Control_c, 0, 64, 127
1, 259044, Note_on_c, 0, 61, 0
1, 259052, Note_on_c, 0, 45, 0
1, 259096, Note_on_c, 0, 64, 0
1, 259178, Note_on_c, 0, 44, 65
1, 259310, Note_on_c, 0, 56, 0
1, 259318, Note_on_c, 0, 52, 0
1, 259372, Note_on_c, 0, 68, 0
1, 259684, Note_on_c, 0, 44, 0
1, 259696, Note_on_c, 0, 68, 55
1, 259716, Note_on_c, 0, 56, 39
1, 259716, Note_on_c, 0, 66, 37
1, 259734, Note_on_c, 0, 60, 41
1, 259746, Note_on_c, 0, 51, 58
1, 259888, Control_c, 0, 64, 0
1, 260118, Control_c, 0, 64, 127
1, 260364, Note_on_c, 0, 60, 0
1, 260402, Note_on_c, 0, 56, 0
1, 260440, Note_on_c, 0, 66, 0
1, 260699, Note_on_c, 0, 66, 52
1, 260708, Note_on_c, 0, 56, 41
1, 260716, Note_on_c, 0, 60, 50
1, 260850, Note_on_c, 0, 51, 0
1, 260970, Note_on_c, 0, 60, 0
1, 260976, Note_on_c, 0, 56, 0
1, 261012, Note_on_c, 0, 66, 0
1, 261046, Note_on_c, 0, 49, 69
1, 261128, Note_on_c, 0, 68, 0
1, 261356, Note_on_c, 0, 49, 0
1, 261428, Note_on_c, 0, 68, 76
1, 261430, Note_on_c, 0, 56, 61
1, 261432, Note_on_c, 0, 65, 62
1, 261438, Note_on_c, 0, 59, 62
1, 261446, Note_on_c, 0, 49, 66
1, 261548, Control_c, 0, 64, 0
1, 261794, Control_c, 0, 64, 127
1, 261844, Note_on_c, 0, 56, 0
1, 261850, Note_on_c, 0, 59, 0
1, 261884, Note_on_c, 0, 65, 0
1, 262258, Note_on_c, 0, 65, 59
1, 262264, Note_on_c, 0, 56, 45
1, 262266, Note_on_c, 0, 59, 55
1, 262510, Note_on_c, 0, 59, 0
1, 262526, Note_on_c, 0, 65, 0
1, 262540, Note_on_c, 0, 68, 0
1, 262562, Note_on_c, 0, 56, 0
1, 262916, Note_on_c, 0, 66, 59
1, 262930, Note_on_c, 0, 64, 59
1, 262932, Note_on_c, 0, 54, 55
1, 262936, Note_on_c, 0, 58, 32
1, 263176, Control_c, 0, 64, 0
1, 263238, Note_on_c, 0, 41, 68
1, 263374, Note_on_c, 0, 54, 0
1, 263374, Note_on_c, 0, 64, 0
1, 263374, Control_c, 0, 64, 127
1, 263380, Note_on_c, 0, 58, 0
1, 263572, Note_on_c, 0, 54, 55
1, 263582, Note_on_c, 0, 44, 67
1, 263588, Note_on_c, 0, 58, 33
1, 263588, Note_on_c, 0, 64, 62
1, 263638, Note_on_c, 0, 41, 0
1, 263714, Control_c, 0, 64, 0
1, 263838, Note_on_c, 0, 64, 0
1, 263838, Control_c, 0, 64, 127
1, 263864, Note_on_c, 0, 42, 75
1, 263900, Note_on_c, 0, 58, 0
1, 263916, Note_on_c, 0, 44, 0
1, 263954, Note_on_c, 0, 54, 0
1, 264200, Note_on_c, 0, 54, 51
1, 264203, Note_on_c, 0, 63, 53
1, 264206, Control_c, 0, 64, 0
1, 264214, Note_on_c, 0, 57, 48
1, 264216, Note_on_c, 0, 47, 74
1, 264280, Note_on_c, 0, 49, 0
1, 264280, Note_on_c, 0, 42, 0
1, 264544, Control_c, 0, 64, 127
1, 264594, Note_on_c, 0, 57, 0
1, 264666, Note_on_c, 0, 63, 0
1, 264690, Note_on_c, 0, 54, 0
1, 264934, Note_on_c, 0, 63, 56
1, 264946, Note_on_c, 0, 54, 47
1, 264961, Note_on_c, 0, 57, 36
1, 264968, Note_on_c, 0, 66, 0
1, 265088, Note_on_c, 0, 57, 0
1, 265108, Note_on_c, 0, 54, 0
1, 265194, Note_on_c, 0, 63, 0
1, 265676, Note_on_c, 0, 64, 86
1, 265682, Note_on_c, 0, 63, 58
1, 265684, Note_on_c, 0, 56, 45
1, 265690, Note_on_c, 0, 52, 62
1, 266024, Note_on_c, 0, 39, 68
1, 266054, Note_on_c, 0, 56, 0
1, 266057, Note_on_c, 0, 63, 0
1, 266062, Note_on_c, 0, 52, 0
1, 266340, Note_on_c, 0, 56, 47
1, 266340, Note_on_c, 0, 52, 56
1, 266343, Note_on_c, 0, 42, 65
1, 266343, Note_on_c, 0, 63, 62
1, 266356, Control_c, 0, 64, 0
1, 266462, Note_on_c, 0, 39, 0
1, 266556, Control_c, 0, 64, 127
1, 266642, Note_on_c, 0, 56, 0
1, 266658, Note_on_c, 0, 40, 91
1, 266670, Note_on_c, 0, 52, 0
1, 266696, Note_on_c, 0, 63, 0
1, 266720, Note_on_c, 0, 42, 0
1, 266738, Note_on_c, 0, 47, 0
1, 266980, Note_on_c, 0, 61, 50
1, 266982, Note_on_c, 0, 56, 44
1, 266984, Note_on_c, 0, 46, 65
1, 266986, Note_on_c, 0, 52, 58
1, 267016, Control_c, 0, 64, 0
1, 267018, Note_on_c, 0, 40, 0
1, 267218, Control_c, 0, 64, 127
1, 267342, Note_on_c, 0, 61, 0
1, 267370, Note_on_c, 0, 38, 67
1, 267382, Note_on_c, 0, 52, 0
1, 267400, Note_on_c, 0, 64, 0
1, 267420, Note_on_c, 0, 56, 0
1, 267714, Note_on_c, 0, 51, 53
1, 267714, Note_on_c, 0, 63, 66
1, 267724, Note_on_c, 0, 61, 55
1, 267727, Note_on_c, 0, 40, 80
1, 267732, Note_on_c, 0, 55, 55
1, 267735, Note_on_c, 0, 38, 0
1, 267786, Control_c, 0, 64, 0
1, 268062, Control_c, 0, 64, 127
1, 268096, Note_on_c, 0, 39, 66
1, 268106, Note_on_c, 0, 40, 0
1, 268170, Control_c, 0, 64, 0
1, 268328, Note_on_c, 0, 55, 0
1, 268354, Control_c, 0, 64, 127
1, 268357, Note_on_c, 0, 61, 0
1, 268388, Note_on_c, 0, 63, 0
1, 268396, Note_on_c, 0, 51, 0
1, 268442, Note_on_c, 0, 46, 0
1, 268626, Note_on_c, 0, 63, 68
1, 268636, Note_on_c, 0, 51, 44
1, 268639, Note_on_c, 0, 54, 54
1, 268644, Note_on_c, 0, 61, 52
1, 268648, Note_on_c, 0, 45, 57
1, 268666, Note_on_c, 0, 39, 0
1, 268676, Control_c, 0, 64, 0
1, 269060, Control_c, 0, 64, 127
1, 269206, Note_on_c, 0, 54, 0
1, 269360, Note_on_c, 0, 51, 0
1, 269388, Note_on_c, 0, 61, 0
1, 269626, Note_on_c, 0, 60, 46
1, 269636, Note_on_c, 0, 54, 50
1, 269639, Note_on_c, 0, 51, 34
1, 269782, Control_c, 0, 64, 0
1, 269982, Control_c, 0, 64, 127
1, 270102, Note_on_c, 0, 44, 59
1, 270104, Control_c, 0, 64, 0
1, 270152, Note_on_c, 0, 45, 0
1, 270274, Note_on_c, 0, 60, 0
1, 270290, Control_c, 0, 64, 127
1, 270438, Note_on_c, 0, 61, 64
1, 270612, Note_on_c, 0, 63, 0
1, 270674, Note_on_c, 0, 61, 0
1, 270706, Note_on_c, 0, 51, 0
1, 270900, Note_on_c, 0, 61, 44
1, 270904, Note_on_c, 0, 37, 55
1, 270934, Note_on_c, 0, 52, 45
1, 270966, Note_on_c, 0, 54, 0
1, 270966, Control_c, 0, 64, 0
1, 271132, Note_on_c, 0, 44, 0
1, 271226, Control_c, 0, 64, 127
1, 271410, Note_on_c, 0, 52, 0
1, 271520, Note_on_c, 0, 61, 0
1, 271834, Note_on_c, 0, 56, 29
1, 271836, Note_on_c, 0, 61, 26
1, 271842, Note_on_c, 0, 64, 42
1, 272154, Note_on_c, 0, 56, 0
1, 272164, Note_on_c, 0, 64, 0
1, 272252, Note_on_c, 0, 61, 0
1, 272560, Note_on_c, 0, 56, 33
1, 272582, Note_on_c, 0, 61, 31
1, 272584, Note_on_c, 0, 64, 41
1, 272878, Note_on_c, 0, 56, 0
1, 272882, Note_on_c, 0, 61, 0
1, 272884, Note_on_c, 0, 64, 0
1, 272894, Note_on_c, 0, 39, 52
1, 273166, Note_on_c, 0, 37, 0
1, 273228, Note_on_c, 0, 56, 37
1, 273236, Note_on_c, 0, 42, 56
1, 273238, Note_on_c, 0, 61, 33
1, 273238, Note_on_c, 0, 64, 45
1, 273300, Control_c, 0, 64, 0
1, 273358, Note_on_c, 0, 39, 0
1, 273486, Control_c, 0, 64, 127
1, 273522, Note_on_c, 0, 61, 0
1, 273576, Note_on_c, 0, 40, 81
1, 273616, Note_on_c, 0, 42, 0
1, 273704, Note_on_c, 0, 56, 0
1, 273930, Note_on_c, 0, 40, 0
1, 273976, Note_on_c, 0, 63, 48
1, 273980, Note_on_c, 0, 54, 41
1, 273980, Note_on_c, 0, 61, 34
1, 274008, Control_c, 0, 64, 0
1, 274016, Note_on_c, 0, 45, 58
1, 274070, Note_on_c, 0, 64, 0
1, 274362, Control_c, 0, 64, 127
1, 274482, Note_on_c, 0, 63, 0
1, 274500, Note_on_c, 0, 54, 0
1, 274574, Note_on_c, 0, 61, 0
1, 274934, Note_on_c, 0, 60, 29
1, 274938, Note_on_c, 0, 63, 42
1, 274940, Note_on_c, 0, 54, 39
1, 275054, Control_c, 0, 64, 0
1, 275236, Control_c, 0, 64, 127
1, 275316, Note_on_c, 0, 44, 44
1, 275346, Note_on_c, 0, 45, 0
1, 275400, Note_on_c, 0, 54, 0
1, 275490, Note_on_c, 0, 60, 0
1, 275494, Note_on_c, 0, 63, 0
1, 275734, Note_on_c, 0, 61, 29
1, 275736, Note_on_c, 0, 64, 39
1, 275740, Note_on_c, 0, 52, 28
1, 275742, Note_on_c, 0, 37, 39
1, 275744, Control_c, 0, 64, 0
1, 275846, Note_on_c, 0, 44, 0
1, 276066, Note_on_c, 0, 52, 0
1, 276082, Control_c, 0, 64, 127
1, 276154, Note_on_c, 0, 64, 0
1, 276170, Note_on_c, 0, 39, 40
1, 276260, Note_on_c, 0, 37, 0
1, 276278, Note_on_c, 0, 61, 0
1, 276620, Note_on_c, 0, 56, 24
1, 276622, Note_on_c, 0, 64, 29
1, 276624, Note_on_c, 0, 42, 28
1, 276636, Note_on_c, 0, 61, 21
1, 276682, Control_c, 0, 64, 0
1, 276684, Note_on_c, 0, 39, 0
1, 276912, Control_c, 0, 64, 127
1, 277066, Control_c, 0, 64, 0
1, 277120, Note_on_c, 0, 40, 50
1, 277138, Note_on_c, 0, 42, 0
1, 277184, Note_on_c, 0, 61, 0
1, 277342, Control_c, 0, 64, 127
1, 277420, Note_on_c, 0, 56, 0
1, 277882, Note_on_c, 0, 40, 0
1, 277894, Note_on_c, 0, 63, 32
1, 277902, Note_on_c, 0, 54, 32
1, 277908, Note_on_c, 0, 45, 25
1, 277912, Note_on_c, 0, 61, 27
1, 277964, Note_on_c, 0, 64, 0
1, 277988, Control_c, 0, 64, 0
1, 278556, Control_c, 0, 64, 127
1, 279292, Note_on_c, 0, 63, 0
1, 279346, Note_on_c, 0, 54, 0
1, 279510, Note_on_c, 0, 61, 0
1, 279546, Note_on_c, 0, 45, 0
1, 280032, Control_c, 0, 64, 0
1, 281180, Note_on_c, 0, 63, 50
1, 281186, Note_on_c, 0, 54, 49
1, 281188, Note_on_c, 0, 60, 49
1, 281188, Note_on_c, 0, 44, 44
1, 281660, Control_c, 0, 64, 127
1, 282382, Note_on_c, 0, 54, 0
1, 282582, Note_on_c, 0, 61, 44
1, 282596, Note_on_c, 0, 52, 40
1, 282610, Note_on_c, 0, 37, 28
1, 282704, Note_on_c, 0, 60, 0
1, 282766, Control_c, 0, 64, 0
1, 282874, Note_on_c, 0, 63, 0
1, 283718, Control_c, 0, 64, 127
1, 284386, Note_on_c, 0, 52, 0
1, 284574, Note_on_c, 0, 37, 0
1, 284614, Note_on_c, 0, 44, 0
1, 284630, Note_on_c, 0, 61, 0
1, 285546, Note_on_c, 0, 61, 34
1, 285560, Note_on_c, 0, 52, 27
1, 285562, Note_on_c, 0, 44, 26
1, 285568, Note_on_c, 0, 37, 19
1, 286492, Note_on_c, 0, 52, 0
1, 286750, Note_on_c, 0, 44, 0
1, 286884, Note_on_c, 0, 37, 0
1, 287316, Note_on_c, 0, 61, 0
1, 287926, Note_on_c, 0, 61, 20
1, 287946, Note_on_c, 0, 37, 11
1, 287946, Note_on_c, 0, 52, 14
1, 287948, Note_on_c, 0, 44, 20
1, 291984, Note_on_c, 0, 52, 0
1, 292070, Note_on_c, 0, 61, 0
1, 292980, Note_on_c, 0, 37, 0
1, 292988, Note_on_c, 0, 44, 0
1, 293760, Control_c, 0, 64, 0
1, 293760, End_track
0, 0, End_of_file
