0, 0, Header, 0, 1, 480
1, 0, Start_track
1, 0, Time_signature, 4, 2, 24, 8
1, 0, Key_signature, 0, "major"
1, 0, Tempo, 500000
1, 0, Control_c, 0, 64, 127
1, 0, Note_on_c, 0, 64, 30
1, 588, Control_c, 0, 64, 0
1, 656, Note_on_c, 0, 73, 52
1, 662, Note_on_c, 0, 40, 42
1, 674, Note_on_c, 0, 64, 0
1, 880, Control_c, 0, 64, 127
1, 886, Note_on_c, 0, 40, 0
1, 1134, Note_on_c, 0, 73, 0
1, 1192, Note_on_c, 0, 74, 56
1, 1324, Note_on_c, 0, 71, 72
1, 1332, Note_on_c, 0, 74, 0
1, 1335, Note_on_c, 0, 68, 30
1, 1335, Note_on_c, 0, 62, 34
1, 1339, Note_on_c, 0, 64, 46
1, 1344, Note_on_c, 0, 52, 39
1, 1434, Control_c, 0, 64, 0
1, 1558, Note_on_c, 0, 52, 0
1, 1558, Note_on_c, 0, 62, 0
1, 1558, Note_on_c, 0, 64, 0
1, 1588, Control_c, 0, 64, 127
1, 1608, Note_on_c, 0, 68, 0
1, 1608, Note_on_c, 0, 71, 0
1, 1908, Note_on_c, 0, 71, 57
1, 1914, Note_on_c, 0, 64, 36
1, 1917, Note_on_c, 0, 68, 35
1, 1918, Note_on_c, 0, 52, 27
1, 1924, Note_on_c, 0, 62, 28
1, 1980, Note_on_c, 0, 52, 0
1, 1990, Note_on_c, 0, 64, 0
1, 2048, Note_on_c, 0, 62, 0
1, 2072, Note_on_c, 0, 71, 0
1, 2103, Note_on_c, 0, 68, 0
1, 2566, Note_on_c, 0, 71, 42
1, 2569, Note_on_c, 0, 62, 8
1, 2572, Note_on_c, 0, 68, 20
1, 2574, Note_on_c, 0, 64, 11
1, 2576, Note_on_c, 0, 52, 13
1, 2750, Note_on_c, 0, 62, 0
1, 2752, Note_on_c, 0, 64, 0
1, 2762, Note_on_c, 0, 52, 0
1, 2960, Note_on_c, 0, 68, 0
1, 3190, Note_on_c, 0, 71, 0
1, 4058, Note_on_c, 0, 78, 60
1, 4074, Note_on_c, 0, 74, 41
1, 4200, Control_c, 0, 64, 0
1, 4384, Control_c, 0, 64, 127
1, 4438, Note_on_c, 0, 74, 0
1, 4576, Note_on_c, 0, 78, 0
1, 4658, Note_on_c, 0, 75, 73
1, 4666, Note_on_c, 0, 72, 48
1, 4700, Note_on_c, 0, 45, 24
1, 4722, Control_c, 0, 64, 0
1, 4936, Control_c, 0, 64, 127
1, 4940, Note_on_c, 0, 45, 0
1, 5076, Note_on_c, 0, 72, 0
1, 5136, Note_on_c, 0, 75, 0
1, 5188, Note_on_c, 0, 76, 58
1, 5198, Note_on_c, 0, 73, 26
1, 5258, Note_on_c, 0, 73, 0
1, 5270, Note_on_c, 0, 76, 0
1, 5410, Note_on_c, 0, 81, 65
1, 5414, Note_on_c, 0, 73, 43
1, 5428, Note_on_c, 0, 57, 16
1, 5430, Note_on_c, 0, 64, 27
1, 5458, Control_c, 0, 64, 0
1, 5674, Control_c, 0, 64, 127
1, 5694, Note_on_c, 0, 64, 0
1, 5746, Note_on_c, 0, 57, 0
1, 5770, Note_on_c, 0, 73, 0
1, 5788, Note_on_c, 0, 81, 0
1, 6030, Note_on_c, 0, 81, 64
1, 6036, Note_on_c, 0, 73, 42
1, 6064, Note_on_c, 0, 64, 27
1, 6074, Note_on_c, 0, 57, 17
1, 6240, Note_on_c, 0, 64, 0
1, 6302, Note_on_c, 0, 73, 0
1, 6316, Note_on_c, 0, 57, 0
1, 6338, Note_on_c, 0, 81, 0
1, 6814, Note_on_c, 0, 81, 46
1, 6827, Note_on_c, 0, 73, 23
1, 6832, Note_on_c, 0, 64, 17
1, 6844, Note_on_c, 0, 57, 14
1, 7184, Note_on_c, 0, 64, 0
1, 7332, Note_on_c, 0, 73, 0
1, 7462, Note_on_c, 0, 81, 0
1, 7518, Note_on_c, 0, 57, 0
1, 8208, Note_on_c, 0, 73, 57
1, 8224, Note_on_c, 0, 64, 33
1, 8548, Note_on_c, 0, 64, 0
1, 8834, Note_on_c, 0, 70, 56
1, 8848, Note_on_c, 0, 61, 57
1, 8866, Note_on_c, 0, 40, 47
1, 8900, Note_on_c, 0, 73, 0
1, 8932, Control_c, 0, 64, 0
1, 9146, Control_c, 0, 64, 127
1, 9174, Note_on_c, 0, 40, 0
1, 9218, Note_on_c, 0, 61, 0
1, 9304, Note_on_c, 0, 71, 73
1, 9310, Note_on_c, 0, 62, 51
1, 9428, Note_on_c, 0, 70, 0
1, 9518, Note_on_c, 0, 66, 35
1, 9520, Note_on_c, 0, 74, 77
1, 9522, Note_on_c, 0, 59, 37
1, 9528, Note_on_c, 0, 52, 33
1, 9576, Note_on_c, 0, 71, 0
1, 9592, Control_c, 0, 64, 0
1, 9812, Note_on_c, 0, 52, 0
1, 9814, Note_on_c, 0, 59, 0
1, 9836, Note_on_c, 0, 74, 0
1, 9838, Control_c, 0, 64, 127
1, 9876, Note_on_c, 0, 66, 0
1, 10124, Note_on_c, 0, 74, 62
1, 10132, Note_on_c, 0, 66, 31
1, 10138, Note_on_c, 0, 52, 36
1, 10144, Note_on_c, 0, 59, 38
1, 10220, Note_on_c, 0, 52, 0
1, 10286, Note_on_c, 0, 59, 0
1, 10342, Note_on_c, 0, 74, 0
1, 10382, Note_on_c, 0, 66, 0
1, 10876, Note_on_c, 0, 74, 47
1, 10894, Note_on_c, 0, 59, 16
1, 10894, Note_on_c, 0, 66, 17
1, 10908, Note_on_c, 0, 52, 17
1, 11536, Note_on_c, 0, 62, 0
1, 12548, Note_on_c, 0, 74, 0
1, 12580, Note_on_c, 0, 68, 37
1, 12604, Note_on_c, 0, 62, 32
1, 12634, Control_c, 0, 64, 0
1, 12682, Note_on_c, 0, 66, 0
1, 12766, Note_on_c, 0, 59, 0
1, 12822, Note_on_c, 0, 52, 0
1, 12834, Control_c, 0, 64, 127
1, 12996, Note_on_c, 0, 62, 0
1, 13042, Note_on_c, 0, 68, 0
1, 13232, Note_on_c, 0, 68, 45
1, 13232, Note_on_c, 0, 33, 23
1, 13246, Note_on_c, 0, 62, 42
1, 13249, Control_c, 0, 64, 0
1, 13450, Control_c, 0, 64, 127
1, 13470, Note_on_c, 0, 33, 0
1, 13510, Note_on_c, 0, 62, 0
1, 13770, Note_on_c, 0, 69, 30
1, 13770, Note_on_c, 0, 61, 25
1, 13778, Note_on_c, 0, 68, 0
1, 13856, Note_on_c, 0, 61, 0
1, 14032, Note_on_c, 0, 73, 35
1, 14038, Note_on_c, 0, 61, 26
1, 14046, Note_on_c, 0, 64, 24
1, 14048, Control_c, 0, 64, 0
1, 14048, Note_on_c, 0, 57, 16
1, 14066, Note_on_c, 0, 52, 20
1, 14132, Note_on_c, 0, 69, 0
1, 14324, Control_c, 0, 64, 127
1, 14328, Note_on_c, 0, 64, 0
1, 14328, Note_on_c, 0, 52, 0
1, 14336, Note_on_c, 0, 57, 0
1, 14374, Note_on_c, 0, 61, 0
1, 14380, Note_on_c, 0, 73, 0
1, 14660, Note_on_c, 0, 73, 29
1, 14664, Note_on_c, 0, 61, 28
1, 14664, Note_on_c, 0, 57, 8
1, 14666, Note_on_c, 0, 64, 26
1, 14670, Note_on_c, 0, 52, 15
1, 14756, Note_on_c, 0, 52, 0
1, 14808, Note_on_c, 0, 64, 0
1, 14821, Note_on_c, 0, 57, 0
1, 14858, Note_on_c, 0, 61, 0
1, 14888, Note_on_c, 0, 73, 0
1, 15436, Note_on_c, 0, 73, 21
1, 15456, Note_on_c, 0, 64, 13
1, 15456, Note_on_c, 0, 57, 10
1, 15460, Note_on_c, 0, 61, 16
1, 15460, Note_on_c, 0, 52, 16
1, 15620, Note_on_c, 0, 61, 0
1, 16134, Note_on_c, 0, 64, 0
1, 16976, Note_on_c, 0, 57, 0
1, 16996, Note_on_c, 0, 64, 65
1, 17016, Note_on_c, 0, 52, 0
1, 17232, Note_on_c, 0, 73, 0
1, 17612, Control_c, 0, 64, 0
1, 17620, Note_on_c, 0, 73, 73
1, 17632, Note_on_c, 0, 40, 65
1, 17634, Note_on_c, 0, 68, 48
1, 17874, Control_c, 0, 64, 127
1, 17896, Note_on_c, 0, 40, 0
1, 18094, Note_on_c, 0, 68, 0
1, 18154, Note_on_c, 0, 73, 0
1, 18164, Note_on_c, 0, 74, 76
1, 18182, Note_on_c, 0, 64, 0
1, 18306, Note_on_c, 0, 71, 85
1, 18312, Note_on_c, 0, 68, 52
1, 18320, Note_on_c, 0, 64, 50
1, 18328, Note_on_c, 0, 62, 44
1, 18344, Note_on_c, 0, 52, 37
1, 18362, Note_on_c, 0, 74, 0
1, 18566, Control_c, 0, 64, 0
1, 18674, Note_on_c, 0, 64, 0
1, 18684, Note_on_c, 0, 62, 0
1, 18686, Note_on_c, 0, 52, 0
1, 18720, Control_c, 0, 64, 127
1, 18730, Note_on_c, 0, 71, 0
1, 18748, Note_on_c, 0, 68, 0
1, 18884, Note_on_c, 0, 71, 81
1, 18898, Note_on_c, 0, 68, 57
1, 18900, Note_on_c, 0, 62, 63
1, 18904, Note_on_c, 0, 64, 56
1, 18910, Note_on_c, 0, 52, 51
1, 18994, Note_on_c, 0, 52, 0
1, 19022, Note_on_c, 0, 64, 0
1, 19040, Note_on_c, 0, 62, 0
1, 19188, Note_on_c, 0, 68, 0
1, 19193, Note_on_c, 0, 71, 0
1, 19560, Note_on_c, 0, 71, 80
1, 19566, Note_on_c, 0, 68, 36
1, 19584, Note_on_c, 0, 62, 43
1, 19587, Note_on_c, 0, 64, 38
1, 19608, Note_on_c, 0, 52, 15
1, 20080, Note_on_c, 0, 68, 0
1, 20298, Note_on_c, 0, 71, 0
1, 20608, Note_on_c, 0, 64, 0
1, 20676, Note_on_c, 0, 62, 0
1, 20742, Note_on_c, 0, 52, 0
1, 20858, Note_on_c, 0, 78, 90
1, 20864, Note_on_c, 0, 74, 74
1, 21532, Note_on_c, 0, 75, 88
1, 21536, Note_on_c, 0, 72, 76
1, 21544, Note_on_c, 0, 45, 52
1, 21546, Note_on_c, 0, 74, 0
1, 21578, Control_c, 0, 64, 0
1, 21596, Note_on_c, 0, 78, 0
1, 21792, Control_c, 0, 64, 127
1, 21796, Note_on_c, 0, 45, 0
1, 21842, Note_on_c, 0, 72, 0
1, 21882, Note_on_c, 0, 75, 0
1, 22004, Note_on_c, 0, 76, 87
1, 22010, Note_on_c, 0, 73, 72
1, 22204, Note_on_c, 0, 85, 93
1, 22204, Note_on_c, 0, 69, 47
1, 22204, Note_on_c, 0, 57, 35
1, 22212, Note_on_c, 0, 64, 52
1, 22218, Note_on_c, 0, 81, 73
1, 22362, Control_c, 0, 64, 0
1, 22590, Control_c, 0, 64, 127
1, 22634, Note_on_c, 0, 69, 0
1, 22664, Note_on_c, 0, 81, 0
1, 22668, Note_on_c, 0, 64, 0
1, 22698, Note_on_c, 0, 85, 0
1, 22722, Note_on_c, 0, 57, 0
1, 22988, Note_on_c, 0, 85, 98
1, 22991, Note_on_c, 0, 69, 54
1, 22996, Note_on_c, 0, 57, 42
1, 23002, Note_on_c, 0, 81, 74
1, 23002, Note_on_c, 0, 64, 45
1, 23122, Note_on_c, 0, 69, 0
1, 23150, Note_on_c, 0, 57, 0
1, 23166, Note_on_c, 0, 64, 0
1, 23188, Note_on_c, 0, 73, 0
1, 23258, Note_on_c, 0, 76, 0
1, 23378, Note_on_c, 0, 81, 0
1, 23426, Note_on_c, 0, 54, 86
1, 23512, Control_c, 0, 64, 0
1, 23674, Note_on_c, 0, 61, 66
1, 23728, Control_c, 0, 64, 127
1, 23754, Note_on_c, 0, 54, 0
1, 23818, Note_on_c, 0, 85, 0
1, 23822, Note_on_c, 0, 64, 79
1, 23848, Note_on_c, 0, 61, 0
1, 23938, Note_on_c, 0, 66, 68
1, 23956, Note_on_c, 0, 64, 0
1, 23998, Note_on_c, 0, 66, 0
1, 24034, Note_on_c, 0, 70, 70
1, 24108, Note_on_c, 0, 73, 79
1, 24224, Note_on_c, 0, 76, 76
1, 24330, Note_on_c, 0, 82, 79
1, 24566, Note_on_c, 0, 85, 89
1, 25734, Note_on_c, 0, 73, 0
1, 25748, Note_on_c, 0, 76, 0
1, 25812, Note_on_c, 0, 70, 0
1, 26072, Note_on_c, 0, 82, 0
1, 26950, Note_on_c, 0, 73, 74
1, 26954, Note_on_c, 0, 70, 63
1, 26990, Note_on_c, 0, 85, 0
1, 27548, Note_on_c, 0, 70, 0
1, 27558, Note_on_c, 0, 73, 0
1, 27660, Note_on_c, 0, 73, 64
1, 27664, Note_on_c, 0, 70, 62
1, 27688, Note_on_c, 0, 35, 42
1, 27708, Control_c, 0, 64, 0
1, 27920, Note_on_c, 0, 35, 0
1, 27938, Control_c, 0, 64, 127
1, 28168, Note_on_c, 0, 74, 76
1, 28180, Note_on_c, 0, 70, 0
1, 28188, Note_on_c, 0, 71, 69
1, 28266, Note_on_c, 0, 73, 0
1, 28318, Note_on_c, 0, 71, 0
1, 28368, Note_on_c, 0, 78, 70
1, 28374, Note_on_c, 0, 62, 31
1, 28374, Note_on_c, 0, 54, 27
1, 28374, Note_on_c, 0, 59, 17
1, 28376, Note_on_c, 0, 71, 63
1, 28442, Note_on_c, 0, 74, 0
1, 28462, Control_c, 0, 64, 0
1, 28702, Note_on_c, 0, 54, 0
1, 28706, Control_c, 0, 64, 127
1, 28708, Note_on_c, 0, 59, 0
1, 28728, Note_on_c, 0, 62, 0
1, 28780, Note_on_c, 0, 71, 0
1, 28824, Note_on_c, 0, 78, 0
1, 29024, Note_on_c, 0, 78, 72
1, 29046, Note_on_c, 0, 69, 37
1, 29048, Note_on_c, 0, 62, 27
1, 29054, Note_on_c, 0, 59, 21
1, 29056, Note_on_c, 0, 54, 26
1, 29244, Control_c, 0, 64, 0
1, 29416, Note_on_c, 0, 59, 0
1, 29428, Control_c, 0, 64, 127
1, 29442, Note_on_c, 0, 62, 0
1, 29492, Note_on_c, 0, 69, 0
1, 29498, Note_on_c, 0, 54, 0
1, 29568, Note_on_c, 0, 78, 0
1, 29938, Note_on_c, 0, 78, 43
1, 29956, Note_on_c, 0, 68, 18
1, 29964, Note_on_c, 0, 62, 13
1, 29964, Note_on_c, 0, 59, 5
1, 29968, Note_on_c, 0, 52, 27
1, 30120, Control_c, 0, 64, 0
1, 30520, Control_c, 0, 64, 127
1, 30736, Note_on_c, 0, 78, 0
1, 30756, Note_on_c, 0, 68, 0
1, 30798, Note_on_c, 0, 62, 0
1, 30966, Note_on_c, 0, 59, 0
1, 31878, Note_on_c, 0, 68, 28
1, 31886, Note_on_c, 0, 62, 20
1, 31894, Note_on_c, 0, 52, 0
1, 32242, Note_on_c, 0, 62, 0
1, 32496, Note_on_c, 0, 68, 0
1, 32716, Control_c, 0, 64, 0
1, 32730, Note_on_c, 0, 71, 36
1, 32738, Note_on_c, 0, 62, 21
1, 32774, Note_on_c, 0, 33, 15
1, 33070, Control_c, 0, 64, 127
1, 33106, Note_on_c, 0, 62, 0
1, 33138, Note_on_c, 0, 33, 0
1, 33438, Note_on_c, 0, 69, 23
1, 33442, Note_on_c, 0, 61, 23
1, 33446, Note_on_c, 0, 71, 0
1, 33516, Note_on_c, 0, 61, 0
1, 33522, Note_on_c, 0, 69, 0
1, 33750, Note_on_c, 0, 69, 19
1, 34014, Note_on_c, 0, 73, 24
1, 34014, Note_on_c, 0, 81, 34
1, 34024, Note_on_c, 0, 57, 8
1, 34024, Note_on_c, 0, 52, 14
1, 34028, Note_on_c, 0, 64, 15
1, 34284, Control_c, 0, 64, 0
1, 34438, Note_on_c, 0, 57, 0
1, 34438, Control_c, 0, 64, 127
1, 34446, Note_on_c, 0, 64, 0
1, 34476, Note_on_c, 0, 73, 0
1, 34484, Note_on_c, 0, 81, 0
1, 34812, Note_on_c, 0, 52, 0
1, 35186, Note_on_c, 0, 81, 23
1, 35188, Note_on_c, 0, 73, 10
1, 35196, Note_on_c, 0, 64, 12
1, 35198, Note_on_c, 0, 57, 9
1, 35331, Note_on_c, 0, 57, 0
1, 35364, Note_on_c, 0, 64, 0
1, 35472, Note_on_c, 0, 73, 0
1, 35484, Note_on_c, 0, 81, 0
1, 36952, Note_on_c, 0, 73, 13
1, 36954, Note_on_c, 0, 64, 13
1, 36954, Note_on_c, 0, 81, 21
1, 36960, Note_on_c, 0, 57, 14
1, 40552, Control_c, 0, 64, 0
1, 41158, Note_on_c, 0, 69, 0
1, 41168, Note_on_c, 0, 64, 0
1, 41172, Note_on_c, 0, 57, 0
1, 41180, Note_on_c, 0, 81, 0
1, 41254, Note_on_c, 0, 73, 0
1, 42240, Control_c, 0, 64, 0
1, 42240, End_track
0, 0, End_of_file
