0, 0, Header, 1, 2, 480
1, 0, Start_track
1, 0, Time_signature, 4, 2, 24, 8
1, 0, Key_signature, 0, "major"
1, 0, Tempo, 500000
1, 0, End_track
2, 0, Start_track
2, 0, MIDI_port, 0
2, 0, Control_c, 0, 64, 127
2, 0, Note_on_c, 0, 41, 43
2, 199, Note_on_c, 0, 41, 0
2, 223, Note_on_c, 0, 48, 39
2, 276, Note_on_c, 0, 48, 0
2, 384, Note_on_c, 0, 65, 55
2, 388, Note_on_c, 0, 56, 36
2, 496, Note_on_c, 0, 65, 0
2, 525, Note_on_c, 0, 56, 0
2, 530, Note_on_c, 0, 48, 45
2, 652, Note_on_c, 0, 67, 65
2, 662, Note_on_c, 0, 48, 0
2, 667, Note_on_c, 0, 58, 72
2, 722, Note_on_c, 0, 58, 0
2, 775, Note_on_c, 0, 48, 40
2, 847, Note_on_c, 0, 67, 0
2, 883, Note_on_c, 0, 48, 0
2, 897, Note_on_c, 0, 41, 73
2, 924, Control_c, 0, 64, 0
2, 996, Note_on_c, 0, 48, 78
2, 1008, Note_on_c, 0, 41, 0
2, 1056, Note_on_c, 0, 48, 0
2, 1060, Control_c, 0, 64, 127
2, 1111, Note_on_c, 0, 68, 83
2, 1152, Note_on_c, 0, 60, 57
2, 1202, Note_on_c, 0, 60, 0
2, 1233, Note_on_c, 0, 48, 81
2, 1262, Note_on_c, 0, 68, 0
2, 1288, Note_on_c, 0, 48, 0
2, 1358, Note_on_c, 0, 70, 96
2, 1363, Note_on_c, 0, 61, 69
2, 1404, Note_on_c, 0, 61, 0
2, 1480, Note_on_c, 0, 48, 49
2, 1492, Note_on_c, 0, 70, 0
2, 1538, Note_on_c, 0, 48, 0
2, 1600, Note_on_c, 0, 41, 82
2, 1660, Control_c, 0, 64, 0
2, 1744, Note_on_c, 0, 48, 84
2, 1790, Note_on_c, 0, 41, 0
2, 1800, Control_c, 0, 64, 127
2, 1824, Note_on_c, 0, 48, 0
2, 1905, Note_on_c, 0, 72, 95
2, 1920, Note_on_c, 0, 60, 46
2, 1982, Note_on_c, 0, 60, 0
2, 2042, Note_on_c, 0, 48, 75
2, 2066, Note_on_c, 0, 72, 0
2, 2100, Note_on_c, 0, 48, 0
2, 2152, Note_on_c, 0, 73, 95
2, 2155, Note_on_c, 0, 58, 88
2, 2212, Note_on_c, 0, 58, 0
2, 2270, Note_on_c, 0, 73, 0
2, 2272, Note_on_c, 0, 48, 60
2, 2330, Note_on_c, 0, 48, 0
2, 2378, Note_on_c, 0, 72, 102
2, 2388, Note_on_c, 0, 41, 70
2, 2397, Control_c, 0, 64, 0
2, 2491, Note_on_c, 0, 41, 0
2, 2496, Note_on_c, 0, 48, 77
2, 2536, Control_c, 0, 64, 127
2, 2558, Note_on_c, 0, 48, 0
2, 2589, Note_on_c, 0, 72, 0
2, 2611, Note_on_c, 0, 80, 97
2, 2625, Note_on_c, 0, 56, 61
2, 2683, Note_on_c, 0, 56, 0
2, 2738, Note_on_c, 0, 48, 57
2, 2798, Note_on_c, 0, 80, 0
2, 2839, Note_on_c, 0, 79, 104
2, 2846, Note_on_c, 0, 58, 84
2, 2848, Note_on_c, 0, 48, 0
2, 2901, Note_on_c, 0, 58, 0
2, 2976, Note_on_c, 0, 48, 38
2, 3009, Note_on_c, 0, 79, 0
2, 3057, Note_on_c, 0, 48, 0
2, 3072, Note_on_c, 0, 77, 105
2, 3084, Note_on_c, 0, 41, 64
2, 3105, Control_c, 0, 64, 0
2, 3168, Note_on_c, 0, 41, 0
2, 3211, Note_on_c, 0, 48, 52
2, 3228, Control_c, 0, 64, 127
2, 3261, Note_on_c, 0, 48, 0
2, 3273, Note_on_c, 0, 77, 0
2, 3302, Note_on_c, 0, 72, 96
2, 3324, Note_on_c, 0, 56, 70
2, 3381, Note_on_c, 0, 56, 0
2, 3436, Note_on_c, 0, 48, 79
2, 3453, Note_on_c, 0, 72, 0
2, 3544, Note_on_c, 0, 73, 90
2, 3559, Note_on_c, 0, 58, 84
2, 3568, Note_on_c, 0, 48, 0
2, 3619, Note_on_c, 0, 58, 0
2, 3638, Note_on_c, 0, 48, 82
2, 3681, Note_on_c, 0, 73, 0
2, 3760, Note_on_c, 0, 48, 0
2, 3763, Note_on_c, 0, 72, 106
2, 3782, Control_c, 0, 64, 0
2, 3792, Note_on_c, 0, 41, 60
2, 3842, Note_on_c, 0, 41, 0
2, 3880, Note_on_c, 0, 48, 52
2, 3919, Control_c, 0, 64, 127
2, 3945, Note_on_c, 0, 48, 0
2, 3984, Note_on_c, 0, 68, 92
2, 4005, Note_on_c, 0, 56, 63
2, 4020, Note_on_c, 0, 72, 0
2, 4060, Note_on_c, 0, 56, 0
2, 4120, Note_on_c, 0, 48, 69
2, 4142, Note_on_c, 0, 68, 0
2, 4168, Note_on_c, 0, 48, 0
2, 4221, Note_on_c, 0, 60, 75
2, 4224, Note_on_c, 0, 65, 99
2, 4269, Note_on_c, 0, 60, 0
2, 4336, Note_on_c, 0, 65, 0
2, 4344, Note_on_c, 0, 48, 68
2, 4387, Note_on_c, 0, 48, 0
2, 4533, Note_on_c, 0, 60, 103
2, 4576, Note_on_c, 0, 41, 51
2, 4596, Control_c, 0, 64, 0
2, 4711, Note_on_c, 0, 48, 68
2, 4735, Note_on_c, 0, 41, 0
2, 4735, Control_c, 0, 64, 127
2, 4756, Note_on_c, 0, 48, 0
2, 4814, Note_on_c, 0, 55, 52
2, 4869, Note_on_c, 0, 55, 0
2, 4944, Note_on_c, 0, 48, 66
2, 4987, Note_on_c, 0, 48, 0
2, 5054, Note_on_c, 0, 56, 68
2, 5097, Note_on_c, 0, 56, 0
2, 5155, Note_on_c, 0, 48, 65
2, 5208, Note_on_c, 0, 48, 0
2, 5241, Control_c, 0, 64, 0
2, 5270, Note_on_c, 0, 41, 65
2, 5330, Note_on_c, 0, 41, 0
2, 5371, Note_on_c, 0, 48, 71
2, 5380, Control_c, 0, 64, 127
2, 5414, Note_on_c, 0, 48, 0
2, 5505, Note_on_c, 0, 58, 65
2, 5572, Note_on_c, 0, 58, 0
2, 5649, Note_on_c, 0, 48, 51
2, 5697, Note_on_c, 0, 48, 0
2, 5769, Note_on_c, 0, 55, 52
2, 5892, Note_on_c, 0, 55, 0
2, 5896, Note_on_c, 0, 48, 55
2, 5937, Note_on_c, 0, 60, 0
2, 5942, Note_on_c, 0, 48, 0
2, 6096, Note_on_c, 0, 41, 56
2, 6132, Control_c, 0, 64, 0
2, 6280, Note_on_c, 0, 41, 0
2, 6288, Control_c, 0, 64, 127
2, 6290, Note_on_c, 0, 48, 57
2, 6360, Note_on_c, 0, 48, 0
2, 6446, Note_on_c, 0, 65, 66
2, 6458, Note_on_c, 0, 56, 48
2, 6612, Note_on_c, 0, 48, 52
2, 6616, Note_on_c, 0, 56, 0
2, 6616, Note_on_c, 0, 65, 0
2, 6696, Note_on_c, 0, 48, 0
2, 6751, Note_on_c, 0, 67, 62
2, 6758, Note_on_c, 0, 58, 58
2, 6811, Note_on_c, 0, 58, 0
2, 6897, Note_on_c, 0, 48, 35
2, 6969, Note_on_c, 0, 48, 0
2, 6974, Note_on_c, 0, 67, 0
2, 7005, Note_on_c, 0, 41, 65
2, 7008, Control_c, 0, 64, 0
2, 7080, Note_on_c, 0, 41, 0
2, 7132, Control_c, 0, 64, 127
2, 7132, Note_on_c, 0, 48, 42
2, 7195, Note_on_c, 0, 48, 0
2, 7231, Note_on_c, 0, 68, 77
2, 7255, Note_on_c, 0, 60, 70
2, 7300, Note_on_c, 0, 60, 0
2, 7356, Note_on_c, 0, 68, 0
2, 7356, Note_on_c, 0, 48, 70
2, 7404, Note_on_c, 0, 48, 0
2, 7456, Note_on_c, 0, 61, 68
2, 7485, Note_on_c, 0, 70, 85
2, 7495, Note_on_c, 0, 61, 0
2, 7569, Note_on_c, 0, 48, 60
2, 7605, Note_on_c, 0, 70, 0
2, 7617, Note_on_c, 0, 48, 0
2, 7689, Note_on_c, 0, 41, 91
2, 7730, Control_c, 0, 64, 0
2, 7821, Note_on_c, 0, 48, 84
2, 7828, Note_on_c, 0, 41, 0
2, 7857, Note_on_c, 0, 48, 0
2, 7869, Control_c, 0, 64, 127
2, 7927, Note_on_c, 0, 72, 101
2, 7956, Note_on_c, 0, 60, 74
2, 8001, Note_on_c, 0, 60, 0
2, 8047, Note_on_c, 0, 48, 79
2, 8076, Note_on_c, 0, 72, 0
2, 8092, Note_on_c, 0, 48, 0
2, 8150, Note_on_c, 0, 73, 95
2, 8169, Note_on_c, 0, 58, 81
2, 8212, Note_on_c, 0, 58, 0
2, 8268, Note_on_c, 0, 48, 65
2, 8304, Note_on_c, 0, 73, 0
2, 8318, Note_on_c, 0, 48, 0
2, 8388, Note_on_c, 0, 72, 103
2, 8407, Control_c, 0, 64, 0
2, 8412, Note_on_c, 0, 41, 73
2, 8510, Note_on_c, 0, 41, 0
2, 8532, Note_on_c, 0, 48, 84
2, 8577, Control_c, 0, 64, 127
2, 8587, Note_on_c, 0, 48, 0
2, 8635, Note_on_c, 0, 72, 0
2, 8659, Note_on_c, 0, 84, 106
2, 8678, Note_on_c, 0, 56, 73
2, 8731, Note_on_c, 0, 56, 0
2, 8812, Note_on_c, 0, 48, 62
2, 8839, Note_on_c, 0, 84, 0
2, 8899, Note_on_c, 0, 48, 0
2, 8932, Note_on_c, 0, 80, 100
2, 8940, Note_on_c, 0, 60, 74
2, 8990, Note_on_c, 0, 60, 0
2, 9060, Note_on_c, 0, 48, 77
2, 9098, Note_on_c, 0, 48, 0
2, 9196, Note_on_c, 0, 41, 78
2, 9199, Note_on_c, 0, 79, 101
2, 9223, Control_c, 0, 64, 0
2, 9225, Note_on_c, 0, 80, 0
2, 9304, Note_on_c, 0, 48, 50
2, 9309, Note_on_c, 0, 41, 0
2, 9360, Control_c, 0, 64, 127
2, 9369, Note_on_c, 0, 48, 0
2, 9388, Note_on_c, 0, 79, 0
2, 9444, Note_on_c, 0, 72, 97
2, 9451, Note_on_c, 0, 58, 76
2, 9528, Note_on_c, 0, 58, 0
2, 9578, Note_on_c, 0, 48, 49
2, 9612, Note_on_c, 0, 72, 0
2, 9645, Note_on_c, 0, 48, 0
2, 9686, Note_on_c, 0, 73, 98
2, 9696, Note_on_c, 0, 55, 68
2, 9760, Note_on_c, 0, 55, 0
2, 9784, Note_on_c, 0, 48, 60
2, 9832, Note_on_c, 0, 73, 0
2, 9844, Note_on_c, 0, 48, 0
2, 9909, Note_on_c, 0, 72, 103
2, 9921, Note_on_c, 0, 41, 35
2, 9988, Note_on_c, 0, 41, 0
2, 10034, Note_on_c, 0, 48, 58
2, 10089, Note_on_c, 0, 48, 0
2, 10147, Note_on_c, 0, 67, 103
2, 10156, Note_on_c, 0, 58, 76
2, 10166, Note_on_c, 0, 72, 0
2, 10209, Note_on_c, 0, 58, 0
2, 10262, Note_on_c, 0, 48, 72
2, 10286, Note_on_c, 0, 67, 0
2, 10344, Note_on_c, 0, 48, 0
2, 10399, Note_on_c, 0, 60, 103
2, 10416, Note_on_c, 0, 55, 67
2, 10492, Note_on_c, 0, 55, 0
2, 10514, Note_on_c, 0, 60, 0
2, 10552, Note_on_c, 0, 48, 65
2, 10610, Note_on_c, 0, 48, 0
2, 10711, Note_on_c, 0, 65, 104
2, 10723, Note_on_c, 0, 41, 63
2, 10852, Note_on_c, 0, 67, 99
2, 10869, Note_on_c, 0, 47, 53
2, 10896, Note_on_c, 0, 65, 0
2, 10927, Note_on_c, 0, 47, 0
2, 11028, Note_on_c, 0, 68, 93
2, 11054, Note_on_c, 0, 56, 56
2, 11066, Note_on_c, 0, 67, 0
2, 11080, Control_c, 0, 64, 0
2, 11224, Note_on_c, 0, 47, 57
2, 11234, Note_on_c, 0, 56, 0
2, 11265, Control_c, 0, 64, 127
2, 11344, Note_on_c, 0, 47, 0
2, 11371, Note_on_c, 0, 61, 66
2, 11416, Note_on_c, 0, 41, 0
2, 11520, Note_on_c, 0, 47, 66
2, 11568, Note_on_c, 0, 61, 0
2, 11570, Note_on_c, 0, 47, 0
2, 11654, Note_on_c, 0, 41, 62
2, 11762, Note_on_c, 0, 41, 0
2, 11779, Note_on_c, 0, 47, 62
2, 11829, Note_on_c, 0, 47, 0
2, 11911, Note_on_c, 0, 56, 62
2, 12000, Note_on_c, 0, 56, 0
2, 12026, Note_on_c, 0, 47, 36
2, 12088, Note_on_c, 0, 47, 0
2, 12158, Note_on_c, 0, 61, 55
2, 12297, Note_on_c, 0, 61, 0
2, 12316, Note_on_c, 0, 47, 55
2, 12482, Note_on_c, 0, 47, 0
2, 12552, Note_on_c, 0, 68, 0
2, 12580, Note_on_c, 0, 41, 49
2, 12633, Control_c, 0, 64, 0
2, 12782, Note_on_c, 0, 41, 0
2, 12823, Note_on_c, 0, 48, 49
2, 12832, Control_c, 0, 64, 127
2, 12890, Note_on_c, 0, 48, 0
2, 12996, Note_on_c, 0, 56, 48
2, 13003, Note_on_c, 0, 65, 61
2, 13072, Note_on_c, 0, 65, 0
2, 13161, Note_on_c, 0, 56, 0
2, 13168, Note_on_c, 0, 48, 60
2, 13231, Note_on_c, 0, 48, 0
2, 13274, Note_on_c, 0, 67, 63
2, 13288, Note_on_c, 0, 58, 72
2, 13341, Note_on_c, 0, 58, 0
2, 13408, Note_on_c, 0, 48, 59
2, 13425, Note_on_c, 0, 67, 0
2, 13471, Note_on_c, 0, 48, 0
2, 13526, Control_c, 0, 64, 0
2, 13528, Note_on_c, 0, 41, 72
2, 13634, Note_on_c, 0, 48, 83
2, 13641, Note_on_c, 0, 41, 0
2, 13663, Control_c, 0, 64, 127
2, 13675, Note_on_c, 0, 48, 0
2, 13754, Note_on_c, 0, 68, 75
2, 13766, Note_on_c, 0, 60, 80
2, 13814, Note_on_c, 0, 60, 0
2, 13862, Note_on_c, 0, 48, 83
2, 13898, Note_on_c, 0, 68, 0
2, 13948, Note_on_c, 0, 48, 0
2, 13975, Note_on_c, 0, 70, 93
2, 13977, Note_on_c, 0, 61, 73
2, 14025, Note_on_c, 0, 61, 0
2, 14090, Note_on_c, 0, 48, 65
2, 14109, Note_on_c, 0, 70, 0
2, 14133, Note_on_c, 0, 48, 0
2, 14212, Note_on_c, 0, 41, 88
2, 14217, Control_c, 0, 64, 0
2, 14352, Note_on_c, 0, 48, 79
2, 14371, Control_c, 0, 64, 127
2, 14373, Note_on_c, 0, 41, 0
2, 14390, Note_on_c, 0, 48, 0
2, 14464, Note_on_c, 0, 72, 82
2, 14500, Note_on_c, 0, 60, 55
2, 14548, Note_on_c, 0, 60, 0
2, 14580, Note_on_c, 0, 48, 70
2, 14616, Note_on_c, 0, 72, 0
2, 14628, Note_on_c, 0, 48, 0
2, 14700, Note_on_c, 0, 58, 71
2, 14702, Note_on_c, 0, 73, 89
2, 14755, Note_on_c, 0, 58, 0
2, 14851, Note_on_c, 0, 73, 0
2, 14923, Control_c, 0, 64, 0
2, 14923, Note_on_c, 0, 72, 101
2, 14937, Note_on_c, 0, 41, 56
2, 15040, Note_on_c, 0, 72, 0
2, 15060, Note_on_c, 0, 48, 67
2, 15062, Note_on_c, 0, 41, 0
2, 15076, Control_c, 0, 64, 127
2, 15105, Note_on_c, 0, 48, 0
2, 15136, Note_on_c, 0, 80, 98
2, 15160, Note_on_c, 0, 56, 65
2, 15230, Note_on_c, 0, 56, 0
2, 15271, Note_on_c, 0, 48, 45
2, 15319, Note_on_c, 0, 80, 0
2, 15328, Note_on_c, 0, 48, 0
2, 15369, Note_on_c, 0, 79, 103
2, 15386, Note_on_c, 0, 58, 74
2, 15434, Note_on_c, 0, 58, 0
2, 15487, Note_on_c, 0, 48, 49
2, 15537, Note_on_c, 0, 79, 0
2, 15544, Note_on_c, 0, 48, 0
2, 15602, Note_on_c, 0, 77, 105
2, 15614, Control_c, 0, 64, 0
2, 15643, Note_on_c, 0, 41, 44
2, 15736, Note_on_c, 0, 41, 0
2, 15736, Note_on_c, 0, 48, 64
2, 15768, Control_c, 0, 64, 127
2, 15789, Note_on_c, 0, 48, 0
2, 15804, Note_on_c, 0, 77, 0
2, 15830, Note_on_c, 0, 72, 84
2, 15844, Note_on_c, 0, 56, 68
2, 15895, Note_on_c, 0, 56, 0
2, 15921, Note_on_c, 0, 49, 70
2, 15967, Note_on_c, 0, 49, 0
2, 15996, Note_on_c, 0, 72, 0
2, 16065, Note_on_c, 0, 73, 92
2, 16072, Note_on_c, 0, 58, 85
2, 16128, Note_on_c, 0, 58, 0
2, 16192, Note_on_c, 0, 48, 47
2, 16221, Note_on_c, 0, 73, 0
2, 16252, Note_on_c, 0, 48, 0
2, 16288, Note_on_c, 0, 72, 104
2, 16308, Control_c, 0, 64, 0
2, 16308, Note_on_c, 0, 41, 63
2, 16380, Note_on_c, 0, 41, 0
2, 16408, Note_on_c, 0, 48, 63
2, 16459, Note_on_c, 0, 48, 0
2, 16461, Control_c, 0, 64, 127
2, 16502, Note_on_c, 0, 68, 93
2, 16504, Note_on_c, 0, 56, 77
2, 16557, Note_on_c, 0, 56, 0
2, 16564, Note_on_c, 0, 72, 0
2, 16636, Note_on_c, 0, 48, 60
2, 16644, Note_on_c, 0, 68, 0
2, 16694, Note_on_c, 0, 48, 0
2, 16728, Note_on_c, 0, 60, 78
2, 16735, Note_on_c, 0, 65, 100
2, 16780, Note_on_c, 0, 60, 0
2, 16852, Note_on_c, 0, 65, 0
2, 17025, Note_on_c, 0, 60, 106
2, 17028, Note_on_c, 0, 41, 48
2, 17076, Control_c, 0, 64, 0
2, 17184, Note_on_c, 0, 48, 71
2, 17193, Note_on_c, 0, 41, 0
2, 17229, Note_on_c, 0, 48, 0
2, 17229, Control_c, 0, 64, 127
2, 17277, Note_on_c, 0, 55, 64
2, 17335, Note_on_c, 0, 55, 0
2, 17388, Note_on_c, 0, 48, 59
2, 17448, Note_on_c, 0, 48, 0
2, 17505, Note_on_c, 0, 56, 69
2, 17558, Note_on_c, 0, 56, 0
2, 17608, Note_on_c, 0, 48, 55
2, 17683, Note_on_c, 0, 48, 0
2, 17690, Control_c, 0, 64, 0
2, 17719, Note_on_c, 0, 41, 84
2, 17817, Note_on_c, 0, 41, 0
2, 17827, Control_c, 0, 64, 127
2, 17841, Note_on_c, 0, 48, 58
2, 17892, Note_on_c, 0, 48, 0
2, 17954, Note_on_c, 0, 58, 80
2, 18016, Note_on_c, 0, 58, 0
2, 18086, Note_on_c, 0, 48, 59
2, 18141, Note_on_c, 0, 48, 0
2, 18211, Note_on_c, 0, 55, 59
2, 18271, Note_on_c, 0, 55, 0
2, 18309, Note_on_c, 0, 48, 75
2, 18350, Note_on_c, 0, 48, 0
2, 18362, Note_on_c, 0, 60, 0
2, 18489, Note_on_c, 0, 41, 66
2, 18520, Control_c, 0, 64, 0
2, 18660, Note_on_c, 0, 41, 0
2, 18662, Note_on_c, 0, 48, 63
2, 18688, Control_c, 0, 64, 127
2, 18710, Note_on_c, 0, 48, 0
2, 18801, Note_on_c, 0, 56, 50
2, 18801, Note_on_c, 0, 65, 66
2, 18926, Note_on_c, 0, 48, 53
2, 18928, Note_on_c, 0, 56, 0
2, 18943, Note_on_c, 0, 65, 0
2, 19015, Note_on_c, 0, 48, 0
2, 19060, Note_on_c, 0, 58, 78
2, 19072, Note_on_c, 0, 67, 60
2, 19116, Note_on_c, 0, 58, 0
2, 19204, Note_on_c, 0, 48, 49
2, 19240, Note_on_c, 0, 67, 0
2, 19264, Note_on_c, 0, 48, 0
2, 19293, Note_on_c, 0, 41, 81
2, 19303, Control_c, 0, 64, 0
2, 19389, Note_on_c, 0, 48, 68
2, 19406, Note_on_c, 0, 41, 0
2, 19442, Control_c, 0, 64, 127
2, 19447, Note_on_c, 0, 48, 0
2, 19500, Note_on_c, 0, 68, 89
2, 19526, Note_on_c, 0, 60, 82
2, 19579, Note_on_c, 0, 60, 0
2, 19612, Note_on_c, 0, 68, 0
2, 19617, Note_on_c, 0, 48, 82
2, 19730, Note_on_c, 0, 48, 0
2, 19732, Note_on_c, 0, 70, 97
2, 19737, Note_on_c, 0, 61, 69
2, 19778, Note_on_c, 0, 61, 0
2, 19814, Note_on_c, 0, 48, 64
2, 19860, Note_on_c, 0, 70, 0
2, 19874, Note_on_c, 0, 48, 0
2, 19958, Note_on_c, 0, 41, 100
2, 19994, Control_c, 0, 64, 0
2, 20059, Note_on_c, 0, 48, 74
2, 20078, Note_on_c, 0, 41, 0
2, 20112, Note_on_c, 0, 48, 0
2, 20133, Control_c, 0, 64, 127
2, 20196, Note_on_c, 0, 72, 104
2, 20198, Note_on_c, 0, 60, 85
2, 20253, Note_on_c, 0, 60, 0
2, 20292, Note_on_c, 0, 48, 83
2, 20335, Note_on_c, 0, 48, 0
2, 20337, Note_on_c, 0, 72, 0
2, 20402, Note_on_c, 0, 73, 100
2, 20409, Note_on_c, 0, 58, 95
2, 20469, Note_on_c, 0, 58, 0
2, 20524, Note_on_c, 0, 73, 0
2, 20527, Note_on_c, 0, 48, 31
2, 20592, Note_on_c, 0, 48, 0
2, 20652, Note_on_c, 0, 72, 110
2, 20656, Note_on_c, 0, 41, 66
2, 20671, Control_c, 0, 64, 0
2, 20791, Note_on_c, 0, 48, 71
2, 20817, Note_on_c, 0, 41, 0
2, 20841, Control_c, 0, 64, 127
2, 20853, Note_on_c, 0, 48, 0
2, 20853, Note_on_c, 0, 72, 0
2, 20916, Note_on_c, 0, 84, 111
2, 20928, Note_on_c, 0, 56, 63
2, 20985, Note_on_c, 0, 56, 0
2, 21055, Note_on_c, 0, 84, 0
2, 21057, Note_on_c, 0, 48, 71
2, 21139, Note_on_c, 0, 48, 0
2, 21172, Note_on_c, 0, 80, 101
2, 21194, Note_on_c, 0, 60, 74
2, 21240, Note_on_c, 0, 60, 0
2, 21312, Note_on_c, 0, 48, 72
2, 21352, Note_on_c, 0, 48, 0
2, 21355, Note_on_c, 0, 80, 0
2, 21446, Note_on_c, 0, 79, 101
2, 21470, Control_c, 0, 64, 0
2, 21472, Note_on_c, 0, 41, 43
2, 21590, Note_on_c, 0, 48, 57
2, 21609, Note_on_c, 0, 41, 0
2, 21609, Control_c, 0, 64, 127
2, 21640, Note_on_c, 0, 48, 0
2, 21655, Note_on_c, 0, 79, 0
2, 21724, Note_on_c, 0, 72, 88
2, 21734, Note_on_c, 0, 58, 68
2, 21799, Note_on_c, 0, 58, 0
2, 21840, Note_on_c, 0, 48, 51
2, 21866, Note_on_c, 0, 72, 0
2, 21895, Note_on_c, 0, 48, 0
2, 21974, Note_on_c, 0, 73, 91
2, 22010, Note_on_c, 0, 55, 33
2, 22075, Note_on_c, 0, 55, 0
2, 22106, Note_on_c, 0, 73, 0
2, 22190, Note_on_c, 0, 72, 100
2, 22207, Note_on_c, 0, 41, 79
2, 22274, Note_on_c, 0, 41, 0
2, 22351, Note_on_c, 0, 48, 43
2, 22406, Note_on_c, 0, 48, 0
2, 22423, Note_on_c, 0, 72, 0
2, 22437, Note_on_c, 0, 67, 96
2, 22452, Note_on_c, 0, 58, 76
2, 22507, Note_on_c, 0, 58, 0
2, 22557, Note_on_c, 0, 67, 0
2, 22596, Note_on_c, 0, 48, 54
2, 22644, Note_on_c, 0, 48, 0
2, 22677, Note_on_c, 0, 60, 95
2, 22696, Note_on_c, 0, 55, 69
2, 22759, Note_on_c, 0, 55, 0
2, 22812, Note_on_c, 0, 60, 0
2, 22838, Note_on_c, 0, 48, 59
2, 22896, Note_on_c, 0, 48, 0
2, 23004, Note_on_c, 0, 65, 92
2, 23006, Control_c, 0, 64, 0
2, 23008, Note_on_c, 0, 41, 51
2, 23143, Note_on_c, 0, 41, 0
2, 23164, Note_on_c, 0, 48, 56
2, 23176, Control_c, 0, 64, 127
2, 23210, Note_on_c, 0, 48, 0
2, 23282, Note_on_c, 0, 56, 51
2, 23344, Note_on_c, 0, 56, 0
2, 23402, Note_on_c, 0, 48, 61
2, 23474, Note_on_c, 0, 48, 0
2, 23524, Note_on_c, 0, 60, 33
2, 23587, Note_on_c, 0, 60, 0
2, 23604, Note_on_c, 0, 48, 68
2, 23644, Note_on_c, 0, 48, 0
2, 23760, Note_on_c, 0, 41, 71
2, 23805, Control_c, 0, 64, 0
2, 23892, Note_on_c, 0, 41, 0
2, 23908, Note_on_c, 0, 48, 75
2, 23930, Control_c, 0, 64, 127
2, 23954, Note_on_c, 0, 48, 0
2, 24033, Note_on_c, 0, 56, 57
2, 24112, Note_on_c, 0, 56, 0
2, 24163, Note_on_c, 0, 48, 66
2, 24249, Note_on_c, 0, 48, 0
2, 24314, Note_on_c, 0, 60, 64
2, 24362, Note_on_c, 0, 65, 0
2, 24372, Note_on_c, 0, 60, 0
2, 24484, Note_on_c, 0, 48, 59
2, 24528, Note_on_c, 0, 48, 0
2, 24801, Note_on_c, 0, 68, 72
2, 24804, Note_on_c, 0, 41, 47
2, 24806, Control_c, 0, 64, 0
2, 25005, Control_c, 0, 64, 127
2, 25010, Note_on_c, 0, 41, 0
2, 25058, Note_on_c, 0, 50, 44
2, 25118, Note_on_c, 0, 50, 0
2, 25212, Note_on_c, 0, 56, 44
2, 25334, Note_on_c, 0, 56, 0
2, 25368, Note_on_c, 0, 50, 51
2, 25428, Note_on_c, 0, 50, 0
2, 25492, Note_on_c, 0, 58, 76
2, 25569, Note_on_c, 0, 58, 0
2, 25663, Note_on_c, 0, 50, 69
2, 25720, Note_on_c, 0, 68, 0
2, 25725, Note_on_c, 0, 50, 0
2, 25828, Note_on_c, 0, 70, 90
2, 25833, Note_on_c, 0, 41, 55
2, 25867, Note_on_c, 0, 68, 90
2, 25936, Note_on_c, 0, 70, 0
2, 25989, Note_on_c, 0, 41, 0
2, 26018, Note_on_c, 0, 46, 60
2, 26085, Note_on_c, 0, 46, 0
2, 26138, Note_on_c, 0, 67, 98
2, 26148, Note_on_c, 0, 56, 68
2, 26181, Note_on_c, 0, 68, 0
2, 26217, Note_on_c, 0, 56, 0
2, 26280, Note_on_c, 0, 46, 75
2, 26337, Note_on_c, 0, 46, 0
2, 26371, Note_on_c, 0, 58, 88
2, 26433, Note_on_c, 0, 58, 0
2, 26488, Note_on_c, 0, 46, 88
2, 26503, Note_on_c, 0, 68, 97
2, 26532, Note_on_c, 0, 67, 0
2, 26556, Note_on_c, 0, 46, 0
2, 26604, Control_c, 0, 64, 0
2, 26618, Note_on_c, 0, 70, 106
2, 26628, Note_on_c, 0, 39, 77
2, 26664, Note_on_c, 0, 68, 0
2, 26757, Note_on_c, 0, 46, 87
2, 26764, Note_on_c, 0, 39, 0
2, 26803, Control_c, 0, 64, 127
2, 26824, Note_on_c, 0, 46, 0
2, 26875, Note_on_c, 0, 54, 72
2, 26942, Note_on_c, 0, 54, 0
2, 26983, Note_on_c, 0, 46, 85
2, 27055, Note_on_c, 0, 46, 0
2, 27091, Note_on_c, 0, 58, 84
2, 27151, Note_on_c, 0, 58, 0
2, 27204, Note_on_c, 0, 46, 92
2, 27247, Note_on_c, 0, 46, 0
2, 27326, Note_on_c, 0, 72, 106
2, 27340, Control_c, 0, 64, 0
2, 27362, Note_on_c, 0, 39, 70
2, 27410, Note_on_c, 0, 70, 0
2, 27484, Note_on_c, 0, 44, 68
2, 27496, Note_on_c, 0, 39, 0
2, 27540, Note_on_c, 0, 44, 0
2, 27542, Control_c, 0, 64, 127
2, 27583, Note_on_c, 0, 54, 73
2, 27664, Note_on_c, 0, 54, 0
2, 27696, Note_on_c, 0, 44, 76
2, 27823, Note_on_c, 0, 56, 82
2, 27835, Note_on_c, 0, 44, 0
2, 27945, Note_on_c, 0, 56, 0
2, 27974, Note_on_c, 0, 44, 66
2, 28166, Note_on_c, 0, 73, 92
2, 28171, Control_c, 0, 64, 0
2, 28176, Note_on_c, 0, 37, 74
2, 28185, Note_on_c, 0, 44, 0
2, 28255, Note_on_c, 0, 72, 0
2, 28351, Note_on_c, 0, 44, 64
2, 28370, Control_c, 0, 64, 127
2, 28377, Note_on_c, 0, 37, 0
2, 28435, Note_on_c, 0, 44, 0
2, 28502, Note_on_c, 0, 53, 59
2, 28516, Note_on_c, 0, 68, 95
2, 28584, Note_on_c, 0, 53, 0
2, 28634, Note_on_c, 0, 73, 0
2, 28641, Note_on_c, 0, 44, 64
2, 28768, Note_on_c, 0, 44, 0
2, 28783, Note_on_c, 0, 56, 73
2, 28797, Note_on_c, 0, 70, 103
2, 28828, Note_on_c, 0, 68, 0
2, 28838, Note_on_c, 0, 56, 0
2, 28912, Note_on_c, 0, 44, 51
2, 29042, Note_on_c, 0, 44, 0
2, 29056, Note_on_c, 0, 37, 74
2, 29059, Note_on_c, 0, 68, 97
2, 29078, Control_c, 0, 64, 0
2, 29136, Note_on_c, 0, 70, 0
2, 29186, Note_on_c, 0, 37, 0
2, 29188, Note_on_c, 0, 44, 61
2, 29232, Control_c, 0, 64, 127
2, 29241, Note_on_c, 0, 44, 0
2, 29299, Note_on_c, 0, 53, 58
2, 29308, Note_on_c, 0, 65, 101
2, 29311, Note_on_c, 0, 68, 0
2, 29361, Note_on_c, 0, 53, 0
2, 29404, Note_on_c, 0, 44, 63
2, 29455, Note_on_c, 0, 65, 0
2, 29534, Note_on_c, 0, 44, 0
2, 29551, Note_on_c, 0, 56, 73
2, 29568, Note_on_c, 0, 61, 97
2, 29640, Note_on_c, 0, 56, 0
2, 29700, Note_on_c, 0, 44, 65
2, 29716, Note_on_c, 0, 61, 0
2, 29743, Note_on_c, 0, 44, 0
2, 29896, Note_on_c, 0, 36, 76
2, 29904, Note_on_c, 0, 56, 88
2, 29908, Control_c, 0, 64, 0
2, 30122, Note_on_c, 0, 36, 0
2, 30122, Control_c, 0, 64, 127
2, 30129, Note_on_c, 0, 44, 56
2, 30177, Note_on_c, 0, 44, 0
2, 30242, Note_on_c, 0, 56, 0
2, 30288, Note_on_c, 0, 51, 41
2, 30369, Note_on_c, 0, 51, 0
2, 30403, Note_on_c, 0, 44, 61
2, 30465, Note_on_c, 0, 44, 0
2, 30537, Note_on_c, 0, 56, 72
2, 30612, Note_on_c, 0, 56, 0
2, 30669, Note_on_c, 0, 44, 52
2, 30715, Note_on_c, 0, 44, 0
2, 30835, Note_on_c, 0, 36, 79
2, 30892, Note_on_c, 0, 36, 0
2, 30967, Note_on_c, 0, 44, 62
2, 31017, Note_on_c, 0, 44, 0
2, 31092, Note_on_c, 0, 51, 55
2, 31159, Note_on_c, 0, 51, 0
2, 31214, Note_on_c, 0, 44, 46
2, 31281, Note_on_c, 0, 44, 0
2, 31348, Note_on_c, 0, 63, 80
2, 31372, Note_on_c, 0, 56, 46
2, 31452, Note_on_c, 0, 56, 0
2, 31564, Note_on_c, 0, 44, 28
2, 31622, Note_on_c, 0, 44, 0
2, 31874, Control_c, 0, 64, 0
2, 31893, Note_on_c, 0, 35, 37
2, 31900, Note_on_c, 0, 75, 64
2, 31929, Note_on_c, 0, 63, 0
2, 32107, Note_on_c, 0, 35, 0
2, 32136, Control_c, 0, 64, 127
2, 32140, Note_on_c, 0, 42, 43
2, 32198, Note_on_c, 0, 42, 0
2, 32304, Note_on_c, 0, 51, 43
2, 32373, Note_on_c, 0, 51, 0
2, 32421, Note_on_c, 0, 42, 45
2, 32515, Note_on_c, 0, 75, 0
2, 32539, Note_on_c, 0, 42, 0
2, 32575, Note_on_c, 0, 54, 50
2, 32637, Note_on_c, 0, 54, 0
2, 32714, Note_on_c, 0, 42, 32
2, 32779, Note_on_c, 0, 75, 64
2, 32781, Note_on_c, 0, 42, 0
2, 32824, Note_on_c, 0, 75, 0
2, 32834, Note_on_c, 0, 77, 70
2, 32887, Note_on_c, 0, 77, 0
2, 32887, Note_on_c, 0, 75, 82
2, 32920, Note_on_c, 0, 35, 40
2, 32976, Note_on_c, 0, 35, 0
2, 33028, Note_on_c, 0, 42, 51
2, 33088, Note_on_c, 0, 42, 0
2, 33153, Note_on_c, 0, 51, 62
2, 33156, Note_on_c, 0, 74, 92
2, 33196, Note_on_c, 0, 75, 0
2, 33223, Note_on_c, 0, 51, 0
2, 33256, Note_on_c, 0, 42, 60
2, 33326, Note_on_c, 0, 42, 0
2, 33374, Note_on_c, 0, 54, 62
2, 33391, Note_on_c, 0, 75, 88
2, 33427, Note_on_c, 0, 54, 0
2, 33458, Note_on_c, 0, 74, 0
2, 33475, Note_on_c, 0, 42, 64
2, 33532, Note_on_c, 0, 42, 0
2, 33595, Control_c, 0, 64, 0
2, 33631, Note_on_c, 0, 35, 69
2, 33636, Note_on_c, 0, 77, 98
2, 33686, Note_on_c, 0, 75, 0
2, 33758, Note_on_c, 0, 35, 0
2, 33775, Note_on_c, 0, 44, 77
2, 33811, Control_c, 0, 64, 127
2, 33861, Note_on_c, 0, 44, 0
2, 33892, Note_on_c, 0, 49, 73
2, 33943, Note_on_c, 0, 49, 0
2, 34017, Note_on_c, 0, 44, 75
2, 34132, Note_on_c, 0, 44, 0
2, 34152, Note_on_c, 0, 56, 83
2, 34178, Note_on_c, 0, 77, 0
2, 34252, Note_on_c, 0, 56, 0
2, 34300, Note_on_c, 0, 44, 71
2, 34408, Note_on_c, 0, 44, 0
2, 34514, Note_on_c, 0, 78, 99
2, 34548, Control_c, 0, 64, 0
2, 34548, Note_on_c, 0, 34, 84
2, 34725, Note_on_c, 0, 42, 56
2, 34735, Note_on_c, 0, 34, 0
2, 34764, Control_c, 0, 64, 127
2, 34809, Note_on_c, 0, 42, 0
2, 34819, Note_on_c, 0, 49, 65
2, 34879, Note_on_c, 0, 49, 0
2, 34958, Note_on_c, 0, 42, 69
2, 35073, Note_on_c, 0, 42, 0
2, 35080, Note_on_c, 0, 54, 67
2, 35148, Note_on_c, 0, 54, 0
2, 35200, Note_on_c, 0, 42, 64
2, 35248, Note_on_c, 0, 42, 0
2, 35371, Note_on_c, 0, 34, 97
2, 35395, Control_c, 0, 64, 0
2, 35551, Note_on_c, 0, 42, 60
2, 35556, Note_on_c, 0, 34, 0
2, 35577, Control_c, 0, 64, 127
2, 35618, Note_on_c, 0, 42, 0
2, 35680, Note_on_c, 0, 49, 62
2, 35709, Note_on_c, 0, 73, 97
2, 35762, Note_on_c, 0, 49, 0
2, 35803, Note_on_c, 0, 78, 0
2, 35832, Note_on_c, 0, 42, 69
2, 35894, Note_on_c, 0, 73, 0
2, 35928, Note_on_c, 0, 42, 0
2, 35973, Note_on_c, 0, 54, 67
2, 35988, Note_on_c, 0, 75, 95
2, 36050, Note_on_c, 0, 54, 0
2, 36081, Note_on_c, 0, 42, 65
2, 36124, Note_on_c, 0, 42, 0
2, 36187, Note_on_c, 0, 75, 0
2, 36247, Note_on_c, 0, 34, 92
2, 36254, Note_on_c, 0, 73, 92
2, 36271, Control_c, 0, 64, 0
2, 36386, Note_on_c, 0, 34, 0
2, 36391, Note_on_c, 0, 42, 34
2, 36424, Control_c, 0, 64, 127
2, 36463, Note_on_c, 0, 42, 0
2, 36492, Note_on_c, 0, 49, 76
2, 36506, Note_on_c, 0, 70, 100
2, 36525, Note_on_c, 0, 73, 0
2, 36573, Note_on_c, 0, 49, 0
2, 36612, Note_on_c, 0, 42, 76
2, 36729, Note_on_c, 0, 70, 0
2, 36729, Note_on_c, 0, 54, 73
2, 36734, Note_on_c, 0, 66, 97
2, 36744, Note_on_c, 0, 42, 0
2, 36816, Note_on_c, 0, 54, 0
2, 36832, Note_on_c, 0, 42, 62
2, 36873, Note_on_c, 0, 42, 0
2, 36914, Note_on_c, 0, 66, 0
2, 36962, Control_c, 0, 64, 0
2, 36976, Note_on_c, 0, 32, 92
2, 37003, Note_on_c, 0, 61, 98
2, 37106, Note_on_c, 0, 32, 0
2, 37116, Note_on_c, 0, 41, 71
2, 37123, Note_on_c, 0, 61, 0
2, 37147, Control_c, 0, 64, 127
2, 37168, Note_on_c, 0, 41, 0
2, 37238, Note_on_c, 0, 49, 75
2, 37255, Note_on_c, 0, 73, 97
2, 37291, Note_on_c, 0, 49, 0
2, 37358, Note_on_c, 0, 41, 60
2, 37389, Note_on_c, 0, 73, 0
2, 37435, Note_on_c, 0, 41, 0
2, 37464, Note_on_c, 0, 53, 80
2, 37483, Note_on_c, 0, 75, 100
2, 37531, Note_on_c, 0, 53, 0
2, 37557, Note_on_c, 0, 41, 76
2, 37605, Note_on_c, 0, 41, 0
2, 37656, Note_on_c, 0, 75, 0
2, 37704, Note_on_c, 0, 73, 101
2, 37730, Control_c, 0, 64, 0
2, 37732, Note_on_c, 0, 32, 86
2, 37840, Note_on_c, 0, 32, 0
2, 37886, Note_on_c, 0, 40, 41
2, 37898, Control_c, 0, 64, 127
2, 37934, Note_on_c, 0, 40, 0
2, 37944, Note_on_c, 0, 68, 97
2, 37948, Note_on_c, 0, 49, 83
2, 38006, Note_on_c, 0, 49, 0
2, 38008, Note_on_c, 0, 73, 0
2, 38080, Note_on_c, 0, 40, 72
2, 38157, Note_on_c, 0, 68, 0
2, 38188, Note_on_c, 0, 40, 0
2, 38191, Note_on_c, 0, 64, 101
2, 38198, Note_on_c, 0, 52, 91
2, 38289, Note_on_c, 0, 52, 0
2, 38316, Note_on_c, 0, 40, 48
2, 38356, Note_on_c, 0, 40, 0
2, 38445, Note_on_c, 0, 64, 0
2, 38457, Note_on_c, 0, 31, 102
2, 38464, Note_on_c, 0, 61, 95
2, 38467, Control_c, 0, 64, 0
2, 38599, Note_on_c, 0, 31, 0
2, 38599, Note_on_c, 0, 40, 69
2, 38637, Control_c, 0, 64, 127
2, 38642, Note_on_c, 0, 61, 0
2, 38652, Note_on_c, 0, 40, 0
2, 38762, Note_on_c, 0, 49, 68
2, 38796, Note_on_c, 0, 61, 90
2, 38798, Note_on_c, 0, 73, 93
2, 38875, Note_on_c, 0, 49, 0
2, 38904, Note_on_c, 0, 61, 0
2, 38911, Note_on_c, 0, 40, 73
2, 38954, Note_on_c, 0, 73, 0
2, 38968, Note_on_c, 0, 40, 0
2, 39038, Note_on_c, 0, 52, 78
2, 39060, Note_on_c, 0, 75, 86
2, 39062, Note_on_c, 0, 63, 81
2, 39110, Note_on_c, 0, 52, 0
2, 39141, Note_on_c, 0, 40, 86
2, 39158, Note_on_c, 0, 63, 0
2, 39194, Note_on_c, 0, 40, 0
2, 39242, Note_on_c, 0, 75, 0
2, 39297, Control_c, 0, 64, 0
2, 39297, Note_on_c, 0, 34, 105
2, 39384, Note_on_c, 0, 43, 72
2, 39422, Note_on_c, 0, 34, 0
2, 39448, Note_on_c, 0, 43, 0
2, 39451, Control_c, 0, 64, 127
2, 39516, Note_on_c, 0, 52, 83
2, 39528, Note_on_c, 0, 76, 103
2, 39530, Note_on_c, 0, 64, 92
2, 39566, Note_on_c, 0, 64, 0
2, 39595, Note_on_c, 0, 52, 0
2, 39609, Note_on_c, 0, 76, 0
2, 39619, Note_on_c, 0, 43, 77
2, 39729, Note_on_c, 0, 43, 0
2, 39741, Note_on_c, 0, 55, 88
2, 39756, Note_on_c, 0, 66, 86
2, 39756, Note_on_c, 0, 78, 92
2, 39801, Note_on_c, 0, 55, 0
2, 39820, Note_on_c, 0, 43, 70
2, 39868, Note_on_c, 0, 66, 0
2, 39883, Note_on_c, 0, 43, 0
2, 39938, Note_on_c, 0, 78, 0
2, 39969, Note_on_c, 0, 35, 100
2, 39974, Control_c, 0, 64, 0
2, 40075, Note_on_c, 0, 43, 73
2, 40108, Note_on_c, 0, 35, 0
2, 40128, Control_c, 0, 64, 127
2, 40190, Note_on_c, 0, 67, 103
2, 40190, Note_on_c, 0, 79, 110
2, 40202, Note_on_c, 0, 43, 0
2, 40216, Note_on_c, 0, 52, 92
2, 40276, Note_on_c, 0, 67, 0
2, 40284, Note_on_c, 0, 52, 0
2, 40312, Note_on_c, 0, 79, 0
2, 40324, Note_on_c, 0, 43, 83
2, 40423, Note_on_c, 0, 43, 0
2, 40423, Note_on_c, 0, 81, 109
2, 40425, Note_on_c, 0, 69, 93
2, 40437, Note_on_c, 0, 55, 93
2, 40473, Note_on_c, 0, 69, 0
2, 40500, Note_on_c, 0, 55, 0
2, 40528, Note_on_c, 0, 43, 80
2, 40545, Note_on_c, 0, 81, 0
2, 40620, Control_c, 0, 64, 0
2, 40627, Note_on_c, 0, 43, 0
2, 40632, Note_on_c, 0, 36, 112
2, 40728, Note_on_c, 0, 43, 94
2, 40756, Note_on_c, 0, 36, 0
2, 40773, Control_c, 0, 64, 127
2, 40826, Note_on_c, 0, 82, 115
2, 40826, Note_on_c, 0, 70, 112
2, 40843, Note_on_c, 0, 52, 95
2, 40850, Note_on_c, 0, 43, 0
2, 40922, Note_on_c, 0, 70, 0
2, 40953, Note_on_c, 0, 82, 0
2, 40953, Note_on_c, 0, 52, 0
2, 40953, Note_on_c, 0, 43, 81
2, 41059, Note_on_c, 0, 84, 115
2, 41061, Note_on_c, 0, 72, 108
2, 41071, Note_on_c, 0, 43, 0
2, 41083, Note_on_c, 0, 55, 96
2, 41104, Note_on_c, 0, 72, 0
2, 41143, Note_on_c, 0, 84, 0
2, 41174, Note_on_c, 0, 43, 68
2, 41191, Note_on_c, 0, 55, 0
2, 41280, Control_c, 0, 64, 0
2, 41304, Note_on_c, 0, 43, 0
2, 41318, Note_on_c, 0, 40, 104
2, 41332, Note_on_c, 0, 73, 114
2, 41335, Note_on_c, 0, 85, 111
2, 41431, Note_on_c, 0, 49, 90
2, 41433, Note_on_c, 0, 73, 0
2, 41438, Note_on_c, 0, 40, 0
2, 41450, Control_c, 0, 64, 127
2, 41496, Note_on_c, 0, 85, 0
2, 41529, Note_on_c, 0, 49, 0
2, 41594, Note_on_c, 0, 58, 98
2, 41601, Note_on_c, 0, 87, 107
2, 41604, Note_on_c, 0, 75, 99
2, 41690, Note_on_c, 0, 49, 79
2, 41695, Note_on_c, 0, 75, 0
2, 41695, Note_on_c, 0, 58, 0
2, 41750, Note_on_c, 0, 87, 0
2, 41803, Control_c, 0, 64, 0
2, 41822, Note_on_c, 0, 43, 96
2, 41824, Note_on_c, 0, 49, 0
2, 41832, Note_on_c, 0, 88, 116
2, 41836, Note_on_c, 0, 76, 117
2, 41925, Note_on_c, 0, 43, 0
2, 41925, Control_c, 0, 64, 127
2, 41928, Note_on_c, 0, 52, 88
2, 41935, Note_on_c, 0, 76, 0
2, 41944, Note_on_c, 0, 88, 0
2, 41978, Note_on_c, 0, 52, 0
2, 42048, Note_on_c, 0, 78, 104
2, 42050, Note_on_c, 0, 90, 108
2, 42057, Note_on_c, 0, 61, 90
2, 42156, Note_on_c, 0, 52, 78
2, 42163, Note_on_c, 0, 78, 0
2, 42168, Note_on_c, 0, 61, 0
2, 42177, Note_on_c, 0, 90, 0
2, 42232, Control_c, 0, 64, 0
2, 42247, Note_on_c, 0, 91, 115
2, 42252, Note_on_c, 0, 79, 111
2, 42254, Note_on_c, 0, 46, 103
2, 42271, Note_on_c, 0, 52, 0
2, 42333, Note_on_c, 0, 79, 0
2, 42355, Control_c, 0, 64, 127
2, 42362, Note_on_c, 0, 91, 0
2, 42367, Note_on_c, 0, 55, 80
2, 42384, Note_on_c, 0, 46, 0
2, 42405, Note_on_c, 0, 55, 0
2, 42458, Note_on_c, 0, 93, 116
2, 42458, Note_on_c, 0, 81, 110
2, 42463, Note_on_c, 0, 64, 94
2, 42494, Note_on_c, 0, 93, 0
2, 42506, Note_on_c, 0, 81, 0
2, 42564, Note_on_c, 0, 64, 0
2, 42573, Note_on_c, 0, 55, 88
2, 42696, Note_on_c, 0, 94, 117
2, 42696, Note_on_c, 0, 82, 116
2, 42724, Note_on_c, 0, 49, 92
2, 42756, Note_on_c, 0, 82, 0
2, 42770, Note_on_c, 0, 55, 0
2, 42784, Note_on_c, 0, 94, 0
2, 42842, Note_on_c, 0, 96, 113
2, 42847, Note_on_c, 0, 84, 102
2, 42856, Note_on_c, 0, 58, 94
2, 42871, Note_on_c, 0, 96, 0
2, 42876, Note_on_c, 0, 49, 0
2, 42883, Note_on_c, 0, 84, 0
2, 42943, Note_on_c, 0, 58, 0
2, 42991, Note_on_c, 0, 97, 112
2, 42993, Note_on_c, 0, 85, 109
2, 42996, Note_on_c, 0, 67, 100
2, 43068, Note_on_c, 0, 67, 0
2, 43111, Note_on_c, 0, 58, 102
2, 43221, Note_on_c, 0, 52, 102
2, 43240, Note_on_c, 0, 58, 0
2, 43336, Note_on_c, 0, 61, 100
2, 43344, Note_on_c, 0, 52, 0
2, 43449, Note_on_c, 0, 61, 0
2, 43497, Note_on_c, 0, 70, 110
2, 43603, Note_on_c, 0, 70, 0
2, 43648, Note_on_c, 0, 61, 100
2, 43804, Note_on_c, 0, 70, 103
2, 43816, Note_on_c, 0, 61, 0
2, 43915, Note_on_c, 0, 70, 0
2, 43941, Note_on_c, 0, 61, 96
2, 43975, Note_on_c, 0, 97, 0
2, 44047, Note_on_c, 0, 85, 0
2, 44085, Note_on_c, 0, 70, 111
2, 44092, Note_on_c, 0, 61, 0
2, 44179, Note_on_c, 0, 70, 0
2, 44212, Note_on_c, 0, 61, 88
2, 44251, Note_on_c, 0, 61, 0
2, 44527, Note_on_c, 0, 85, 114
2, 44529, Note_on_c, 0, 73, 106
2, 44536, Note_on_c, 0, 48, 95
2, 44661, Control_c, 0, 64, 0
2, 44803, Note_on_c, 0, 56, 75
2, 44820, Note_on_c, 0, 48, 0
2, 44829, Control_c, 0, 64, 127
2, 44856, Note_on_c, 0, 56, 0
2, 44856, Note_on_c, 0, 73, 0
2, 44870, Note_on_c, 0, 85, 0
2, 44949, Note_on_c, 0, 85, 99
2, 44954, Note_on_c, 0, 73, 89
2, 44956, Note_on_c, 0, 65, 76
2, 45064, Note_on_c, 0, 73, 0
2, 45069, Note_on_c, 0, 65, 0
2, 45096, Note_on_c, 0, 56, 83
2, 45146, Note_on_c, 0, 85, 0
2, 45208, Note_on_c, 0, 56, 0
2, 45230, Note_on_c, 0, 85, 99
2, 45237, Note_on_c, 0, 73, 98
2, 45256, Note_on_c, 0, 68, 77
2, 45319, Note_on_c, 0, 73, 0
2, 45333, Note_on_c, 0, 68, 0
2, 45369, Note_on_c, 0, 56, 79
2, 45405, Note_on_c, 0, 56, 0
2, 45420, Note_on_c, 0, 85, 0
2, 45535, Note_on_c, 0, 85, 106
2, 45542, Note_on_c, 0, 73, 97
2, 45552, Control_c, 0, 64, 0
2, 45568, Note_on_c, 0, 48, 69
2, 45727, Note_on_c, 0, 55, 57
2, 45734, Note_on_c, 0, 48, 0
2, 45753, Control_c, 0, 64, 127
2, 45772, Note_on_c, 0, 55, 0
2, 45835, Note_on_c, 0, 64, 46
2, 45919, Note_on_c, 0, 64, 0
2, 45974, Note_on_c, 0, 55, 46
2, 46125, Note_on_c, 0, 55, 0
2, 46159, Note_on_c, 0, 73, 0
2, 46168, Note_on_c, 0, 85, 0
2, 46180, Note_on_c, 0, 67, 63
2, 46238, Note_on_c, 0, 67, 0
2, 46274, Note_on_c, 0, 84, 100
2, 46288, Note_on_c, 0, 72, 79
2, 46399, Note_on_c, 0, 55, 49
2, 46442, Note_on_c, 0, 72, 0
2, 46452, Note_on_c, 0, 55, 0
2, 46485, Note_on_c, 0, 84, 0
2, 46680, Note_on_c, 0, 48, 46
2, 46716, Note_on_c, 0, 73, 85
2, 46735, Control_c, 0, 64, 0
2, 46896, Note_on_c, 0, 48, 0
2, 46898, Note_on_c, 0, 56, 56
2, 46905, Control_c, 0, 64, 127
2, 46951, Note_on_c, 0, 56, 0
2, 46984, Note_on_c, 0, 73, 0
2, 47056, Note_on_c, 0, 65, 62
2, 47059, Note_on_c, 0, 73, 80
2, 47150, Note_on_c, 0, 65, 0
2, 47191, Note_on_c, 0, 56, 66
2, 47198, Note_on_c, 0, 73, 0
2, 47244, Note_on_c, 0, 56, 0
2, 47344, Note_on_c, 0, 73, 85
2, 47347, Note_on_c, 0, 68, 52
2, 47409, Note_on_c, 0, 68, 0
2, 47452, Note_on_c, 0, 56, 60
2, 47498, Note_on_c, 0, 56, 0
2, 47503, Note_on_c, 0, 73, 0
2, 47640, Note_on_c, 0, 73, 67
2, 47649, Note_on_c, 0, 48, 65
2, 47659, Control_c, 0, 64, 0
2, 47810, Note_on_c, 0, 55, 57
2, 47812, Note_on_c, 0, 48, 0
2, 47827, Control_c, 0, 64, 127
2, 47853, Note_on_c, 0, 55, 0
2, 47928, Note_on_c, 0, 64, 56
2, 48004, Note_on_c, 0, 64, 0
2, 48067, Note_on_c, 0, 55, 56
2, 48187, Note_on_c, 0, 55, 0
2, 48240, Note_on_c, 0, 72, 84
2, 48252, Note_on_c, 0, 67, 59
2, 48254, Note_on_c, 0, 73, 0
2, 48316, Note_on_c, 0, 67, 0
2, 48340, Note_on_c, 0, 72, 0
2, 48417, Note_on_c, 0, 55, 66
2, 48465, Note_on_c, 0, 55, 0
2, 48657, Note_on_c, 0, 70, 111
2, 48660, Note_on_c, 0, 82, 115
2, 48669, Note_on_c, 0, 48, 74
2, 48734, Control_c, 0, 64, 0
2, 48852, Note_on_c, 0, 48, 0
2, 48854, Note_on_c, 0, 53, 69
2, 48888, Control_c, 0, 64, 127
2, 48909, Note_on_c, 0, 53, 0
2, 48919, Note_on_c, 0, 82, 0
2, 48936, Note_on_c, 0, 70, 0
2, 48993, Note_on_c, 0, 80, 106
2, 48998, Note_on_c, 0, 68, 99
2, 49017, Note_on_c, 0, 61, 56
2, 49104, Note_on_c, 0, 68, 0
2, 49135, Note_on_c, 0, 61, 0
2, 49154, Note_on_c, 0, 53, 61
2, 49183, Note_on_c, 0, 80, 0
2, 49228, Note_on_c, 0, 53, 0
2, 49269, Note_on_c, 0, 82, 113
2, 49279, Note_on_c, 0, 70, 103
2, 49305, Note_on_c, 0, 65, 76
2, 49358, Note_on_c, 0, 70, 0
2, 49360, Note_on_c, 0, 65, 0
2, 49399, Note_on_c, 0, 53, 67
2, 49442, Note_on_c, 0, 53, 0
2, 49548, Control_c, 0, 64, 0
2, 49564, Note_on_c, 0, 84, 108
2, 49564, Note_on_c, 0, 72, 100
2, 49572, Note_on_c, 0, 48, 61
2, 49615, Note_on_c, 0, 82, 0
2, 49735, Note_on_c, 0, 55, 63
2, 49737, Note_on_c, 0, 48, 0
2, 49747, Control_c, 0, 64, 127
2, 49778, Note_on_c, 0, 55, 0
2, 49857, Note_on_c, 0, 64, 46
2, 49922, Note_on_c, 0, 64, 0
2, 49982, Note_on_c, 0, 55, 49
2, 50068, Note_on_c, 0, 55, 0
2, 50090, Note_on_c, 0, 84, 0
2, 50148, Note_on_c, 0, 67, 58
2, 50210, Note_on_c, 0, 67, 0
2, 50313, Note_on_c, 0, 55, 59
2, 50364, Note_on_c, 0, 55, 0
2, 50517, Note_on_c, 0, 70, 91
2, 50594, Control_c, 0, 64, 0
2, 50623, Note_on_c, 0, 48, 70
2, 50628, Note_on_c, 0, 47, 45
2, 50659, Note_on_c, 0, 72, 0
2, 50664, Note_on_c, 0, 47, 0
2, 50808, Control_c, 0, 64, 127
2, 50880, Note_on_c, 0, 53, 46
2, 50918, Note_on_c, 0, 48, 0
2, 50959, Note_on_c, 0, 53, 0
2, 50997, Note_on_c, 0, 68, 73
2, 51009, Note_on_c, 0, 61, 57
2, 51079, Note_on_c, 0, 61, 0
2, 51086, Note_on_c, 0, 70, 0
2, 51163, Note_on_c, 0, 53, 48
2, 51225, Note_on_c, 0, 53, 0
2, 51319, Note_on_c, 0, 70, 73
2, 51331, Note_on_c, 0, 65, 50
2, 51398, Note_on_c, 0, 65, 0
2, 51420, Note_on_c, 0, 68, 0
2, 51460, Note_on_c, 0, 53, 41
2, 51528, Note_on_c, 0, 53, 0
2, 51638, Control_c, 0, 64, 0
2, 51640, Note_on_c, 0, 72, 65
2, 51667, Note_on_c, 0, 48, 36
2, 51696, Note_on_c, 0, 70, 0
2, 51828, Note_on_c, 0, 55, 59
2, 51837, Control_c, 0, 64, 127
2, 51842, Note_on_c, 0, 48, 0
2, 51873, Note_on_c, 0, 55, 0
2, 52022, Note_on_c, 0, 64, 13
2, 52039, Note_on_c, 0, 72, 0
2, 52065, Note_on_c, 0, 64, 0
2, 52118, Note_on_c, 0, 55, 68
2, 52176, Note_on_c, 0, 55, 0
2, 52276, Note_on_c, 0, 67, 62
2, 52384, Note_on_c, 0, 67, 0
2, 52408, Note_on_c, 0, 55, 72
2, 52459, Note_on_c, 0, 55, 0
2, 52560, Note_on_c, 0, 97, 117
2, 52560, Note_on_c, 0, 85, 118
2, 52596, Note_on_c, 0, 48, 78
2, 52761, Control_c, 0, 64, 0
2, 52864, Note_on_c, 0, 85, 0
2, 52864, Note_on_c, 0, 97, 0
2, 52884, Control_c, 0, 64, 127
2, 52888, Note_on_c, 0, 56, 64
2, 52893, Note_on_c, 0, 48, 0
2, 52941, Note_on_c, 0, 56, 0
2, 52944, Note_on_c, 0, 97, 101
2, 52946, Note_on_c, 0, 85, 106
2, 53052, Note_on_c, 0, 85, 0
2, 53059, Note_on_c, 0, 97, 0
2, 53100, Note_on_c, 0, 65, 73
2, 53172, Note_on_c, 0, 85, 117
2, 53172, Note_on_c, 0, 97, 112
2, 53239, Note_on_c, 0, 85, 0
2, 53241, Note_on_c, 0, 97, 0
2, 53248, Note_on_c, 0, 65, 0
2, 53263, Note_on_c, 0, 56, 66
2, 53371, Note_on_c, 0, 97, 114
2, 53373, Note_on_c, 0, 85, 117
2, 53395, Note_on_c, 0, 97, 0
2, 53412, Note_on_c, 0, 56, 0
2, 53445, Note_on_c, 0, 85, 0
2, 53484, Note_on_c, 0, 68, 88
2, 53560, Note_on_c, 0, 68, 0
2, 53580, Note_on_c, 0, 85, 111
2, 53584, Note_on_c, 0, 73, 100
2, 53620, Note_on_c, 0, 56, 74
2, 53635, Note_on_c, 0, 73, 0
2, 53659, Note_on_c, 0, 56, 0
2, 53685, Note_on_c, 0, 85, 0
2, 53772, Note_on_c, 0, 85, 99
2, 53776, Note_on_c, 0, 73, 105
2, 53805, Note_on_c, 0, 48, 59
2, 53836, Control_c, 0, 64, 0
2, 53976, Note_on_c, 0, 55, 68
2, 54012, Note_on_c, 0, 48, 0
2, 54019, Note_on_c, 0, 55, 0
2, 54021, Control_c, 0, 64, 127
2, 54088, Note_on_c, 0, 64, 74
2, 54165, Note_on_c, 0, 64, 0
2, 54211, Note_on_c, 0, 55, 79
2, 54307, Note_on_c, 0, 85, 0
2, 54314, Note_on_c, 0, 73, 0
2, 54324, Note_on_c, 0, 55, 0
2, 54352, Note_on_c, 0, 84, 114
2, 54360, Note_on_c, 0, 67, 82
2, 54362, Note_on_c, 0, 72, 103
2, 54398, Note_on_c, 0, 72, 0
2, 54451, Note_on_c, 0, 67, 0
2, 54487, Note_on_c, 0, 84, 0
2, 54489, Note_on_c, 0, 55, 83
2, 54528, Note_on_c, 0, 55, 0
2, 54660, Note_on_c, 0, 85, 107
2, 54667, Control_c, 0, 64, 0
2, 54722, Note_on_c, 0, 48, 69
2, 54849, Control_c, 0, 64, 127
2, 54873, Note_on_c, 0, 48, 0
2, 54885, Note_on_c, 0, 85, 0
2, 54936, Note_on_c, 0, 56, 34
2, 54938, Note_on_c, 0, 85, 106
2, 55003, Note_on_c, 0, 56, 0
2, 55063, Note_on_c, 0, 85, 0
2, 55087, Note_on_c, 0, 65, 48
2, 55120, Note_on_c, 0, 85, 100
2, 55188, Note_on_c, 0, 65, 0
2, 55216, Note_on_c, 0, 85, 0
2, 55262, Note_on_c, 0, 56, 57
2, 55315, Note_on_c, 0, 85, 79
2, 55329, Note_on_c, 0, 56, 0
2, 55471, Note_on_c, 0, 68, 63
2, 55492, Note_on_c, 0, 85, 0
2, 55521, Note_on_c, 0, 68, 0
2, 55557, Note_on_c, 0, 73, 68
2, 55656, Note_on_c, 0, 56, 51
2, 55699, Note_on_c, 0, 73, 0
2, 55706, Note_on_c, 0, 56, 0
2, 55831, Note_on_c, 0, 73, 76
2, 55879, Control_c, 0, 64, 0
2, 55896, Note_on_c, 0, 48, 59
2, 56054, Note_on_c, 0, 48, 0
2, 56064, Control_c, 0, 64, 127
2, 56076, Note_on_c, 0, 55, 36
2, 56143, Note_on_c, 0, 55, 0
2, 56191, Note_on_c, 0, 64, 54
2, 56256, Note_on_c, 0, 64, 0
2, 56330, Note_on_c, 0, 55, 55
2, 56397, Note_on_c, 0, 55, 0
2, 56486, Note_on_c, 0, 72, 83
2, 56488, Note_on_c, 0, 67, 61
2, 56524, Note_on_c, 0, 73, 0
2, 56529, Note_on_c, 0, 72, 0
2, 56546, Note_on_c, 0, 67, 0
2, 56635, Note_on_c, 0, 55, 64
2, 56685, Note_on_c, 0, 55, 0
2, 56815, Note_on_c, 0, 82, 115
2, 56815, Note_on_c, 0, 70, 113
2, 56824, Note_on_c, 0, 48, 66
2, 56956, Control_c, 0, 64, 0
2, 57064, Control_c, 0, 64, 127
2, 57064, Note_on_c, 0, 53, 60
2, 57093, Note_on_c, 0, 70, 0
2, 57108, Note_on_c, 0, 48, 0
2, 57141, Note_on_c, 0, 84, 115
2, 57141, Note_on_c, 0, 72, 109
2, 57187, Note_on_c, 0, 82, 0
2, 57192, Note_on_c, 0, 53, 0
2, 57225, Note_on_c, 0, 84, 0
2, 57237, Note_on_c, 0, 72, 0
2, 57273, Note_on_c, 0, 61, 62
2, 57336, Note_on_c, 0, 70, 115
2, 57336, Note_on_c, 0, 82, 115
2, 57384, Note_on_c, 0, 61, 0
2, 57412, Note_on_c, 0, 70, 0
2, 57420, Note_on_c, 0, 82, 0
2, 57429, Note_on_c, 0, 53, 54
2, 57523, Note_on_c, 0, 68, 107
2, 57525, Note_on_c, 0, 53, 0
2, 57525, Note_on_c, 0, 80, 107
2, 57580, Note_on_c, 0, 65, 75
2, 57604, Note_on_c, 0, 80, 0
2, 57624, Note_on_c, 0, 68, 0
2, 57703, Note_on_c, 0, 65, 0
2, 57708, Note_on_c, 0, 82, 115
2, 57710, Note_on_c, 0, 70, 104
2, 57717, Note_on_c, 0, 53, 71
2, 57768, Note_on_c, 0, 53, 0
2, 57806, Note_on_c, 0, 70, 0
2, 57878, Note_on_c, 0, 48, 83
2, 57924, Control_c, 0, 64, 0
2, 57926, Note_on_c, 0, 84, 106
2, 57926, Note_on_c, 0, 72, 100
2, 57976, Note_on_c, 0, 82, 0
2, 58089, Note_on_c, 0, 55, 75
2, 58106, Note_on_c, 0, 48, 0
2, 58123, Control_c, 0, 64, 127
2, 58130, Note_on_c, 0, 55, 0
2, 58214, Note_on_c, 0, 64, 71
2, 58339, Note_on_c, 0, 64, 0
2, 58346, Note_on_c, 0, 55, 59
2, 58394, Note_on_c, 0, 84, 0
2, 58449, Note_on_c, 0, 55, 0
2, 58514, Note_on_c, 0, 67, 75
2, 58574, Note_on_c, 0, 67, 0
2, 58658, Note_on_c, 0, 55, 61
2, 58704, Note_on_c, 0, 55, 0
2, 58857, Note_on_c, 0, 70, 91
2, 58860, Note_on_c, 0, 48, 57
2, 58908, Control_c, 0, 64, 0
2, 58980, Note_on_c, 0, 72, 0
2, 59097, Note_on_c, 0, 53, 48
2, 59104, Note_on_c, 0, 48, 0
2, 59124, Control_c, 0, 64, 127
2, 59191, Note_on_c, 0, 53, 0
2, 59203, Note_on_c, 0, 72, 87
2, 59227, Note_on_c, 0, 70, 0
2, 59316, Note_on_c, 0, 61, 46
2, 59433, Note_on_c, 0, 70, 80
2, 59436, Note_on_c, 0, 61, 0
2, 59469, Note_on_c, 0, 72, 0
2, 59522, Note_on_c, 0, 53, 32
2, 59592, Note_on_c, 0, 53, 0
2, 59654, Note_on_c, 0, 68, 70
2, 59692, Note_on_c, 0, 70, 0
2, 59692, Note_on_c, 0, 65, 56
2, 59776, Note_on_c, 0, 65, 0
2, 59889, Note_on_c, 0, 70, 74
2, 59911, Note_on_c, 0, 53, 55
2, 59935, Note_on_c, 0, 68, 0
2, 59980, Note_on_c, 0, 53, 0
2, 60175, Note_on_c, 0, 48, 53
2, 60211, Note_on_c, 0, 72, 57
2, 60213, Control_c, 0, 64, 0
2, 60220, Note_on_c, 0, 70, 0
2, 60412, Control_c, 0, 64, 127
2, 60427, Note_on_c, 0, 48, 0
2, 60446, Note_on_c, 0, 55, 45
2, 60501, Note_on_c, 0, 55, 0
2, 60645, Note_on_c, 0, 64, 39
2, 60763, Note_on_c, 0, 64, 0
2, 60890, Note_on_c, 0, 55, 18
2, 61058, Note_on_c, 0, 55, 0
2, 61219, Note_on_c, 0, 67, 34
2, 61303, Note_on_c, 0, 67, 0
2, 61567, Note_on_c, 0, 72, 0
2, 61586, Note_on_c, 0, 55, 32
2, 61744, Note_on_c, 0, 55, 0
2, 62088, Control_c, 0, 64, 0
2, 62107, Note_on_c, 0, 41, 34
2, 62272, Control_c, 0, 64, 127
2, 62299, Note_on_c, 0, 41, 0
2, 62325, Note_on_c, 0, 48, 29
2, 62390, Note_on_c, 0, 48, 0
2, 62464, Note_on_c, 0, 56, 52
2, 62498, Note_on_c, 0, 65, 22
2, 62532, Note_on_c, 0, 56, 0
2, 62587, Note_on_c, 0, 65, 0
2, 62599, Note_on_c, 0, 48, 50
2, 62673, Note_on_c, 0, 48, 0
2, 62748, Note_on_c, 0, 58, 84
2, 62769, Note_on_c, 0, 67, 57
2, 62808, Note_on_c, 0, 58, 0
2, 62868, Note_on_c, 0, 48, 63
2, 62925, Note_on_c, 0, 48, 0
2, 62940, Note_on_c, 0, 67, 0
2, 62949, Control_c, 0, 64, 0
2, 63000, Note_on_c, 0, 41, 61
2, 63064, Note_on_c, 0, 41, 0
2, 63086, Note_on_c, 0, 48, 77
2, 63120, Control_c, 0, 64, 127
2, 63129, Note_on_c, 0, 48, 0
2, 63211, Note_on_c, 0, 68, 81
2, 63228, Note_on_c, 0, 60, 65
2, 63276, Note_on_c, 0, 60, 0
2, 63326, Note_on_c, 0, 48, 65
2, 63331, Note_on_c, 0, 68, 0
2, 63384, Note_on_c, 0, 48, 0
2, 63432, Note_on_c, 0, 61, 65
2, 63444, Note_on_c, 0, 70, 87
2, 63470, Note_on_c, 0, 61, 0
2, 63532, Note_on_c, 0, 48, 59
2, 63554, Note_on_c, 0, 70, 0
2, 63578, Note_on_c, 0, 48, 0
2, 63652, Note_on_c, 0, 41, 92
2, 63657, Control_c, 0, 64, 0
2, 63720, Note_on_c, 0, 41, 0
2, 63775, Note_on_c, 0, 48, 54
2, 63794, Control_c, 0, 64, 127
2, 63825, Note_on_c, 0, 48, 0
2, 63844, Note_on_c, 0, 72, 98
2, 63897, Note_on_c, 0, 60, 68
2, 63909, Note_on_c, 0, 72, 0
2, 63940, Note_on_c, 0, 60, 0
2, 63996, Note_on_c, 0, 48, 65
2, 64029, Note_on_c, 0, 73, 83
2, 64041, Note_on_c, 0, 48, 0
2, 64068, Note_on_c, 0, 73, 0
2, 64072, Note_on_c, 0, 75, 84
2, 64092, Note_on_c, 0, 58, 86
2, 64113, Note_on_c, 0, 73, 97
2, 64147, Note_on_c, 0, 58, 0
2, 64185, Note_on_c, 0, 48, 42
2, 64188, Note_on_c, 0, 75, 0
2, 64252, Note_on_c, 0, 48, 0
2, 64286, Control_c, 0, 64, 0
2, 64324, Note_on_c, 0, 73, 0
2, 64332, Note_on_c, 0, 41, 69
2, 64336, Note_on_c, 0, 72, 101
2, 64389, Note_on_c, 0, 41, 0
2, 64471, Control_c, 0, 64, 127
2, 64480, Note_on_c, 0, 48, 34
2, 64504, Note_on_c, 0, 72, 0
2, 64545, Note_on_c, 0, 48, 0
2, 64550, Note_on_c, 0, 80, 93
2, 64550, Note_on_c, 0, 56, 66
2, 64600, Note_on_c, 0, 56, 0
2, 64634, Note_on_c, 0, 48, 58
2, 64740, Note_on_c, 0, 48, 0
2, 64752, Note_on_c, 0, 80, 0
2, 64766, Note_on_c, 0, 79, 97
2, 64768, Note_on_c, 0, 58, 87
2, 64809, Note_on_c, 0, 58, 0
2, 64874, Note_on_c, 0, 48, 39
2, 64924, Note_on_c, 0, 79, 0
2, 64939, Note_on_c, 0, 48, 0
2, 64963, Control_c, 0, 64, 0
2, 64989, Note_on_c, 0, 77, 97
2, 64994, Note_on_c, 0, 41, 63
2, 65068, Note_on_c, 0, 41, 0
2, 65124, Note_on_c, 0, 48, 55
2, 65131, Control_c, 0, 64, 127
2, 65167, Note_on_c, 0, 77, 0
2, 65172, Note_on_c, 0, 48, 0
2, 65210, Note_on_c, 0, 56, 72
2, 65212, Note_on_c, 0, 72, 87
2, 65265, Note_on_c, 0, 56, 0
2, 65289, Note_on_c, 0, 72, 0
2, 65356, Note_on_c, 0, 73, 80
2, 65359, Note_on_c, 0, 48, 45
2, 65397, Note_on_c, 0, 73, 0
2, 65400, Note_on_c, 0, 75, 77
2, 65414, Note_on_c, 0, 48, 0
2, 65450, Note_on_c, 0, 73, 92
2, 65457, Note_on_c, 0, 58, 79
2, 65500, Note_on_c, 0, 75, 0
2, 65503, Note_on_c, 0, 58, 0
2, 65589, Note_on_c, 0, 48, 33
2, 65623, Control_c, 0, 64, 0
2, 65647, Note_on_c, 0, 48, 0
2, 65664, Note_on_c, 0, 72, 98
2, 65671, Note_on_c, 0, 41, 74
2, 65685, Note_on_c, 0, 73, 0
2, 65733, Note_on_c, 0, 41, 0
2, 65769, Note_on_c, 0, 48, 57
2, 65808, Control_c, 0, 64, 127
2, 65836, Note_on_c, 0, 48, 0
2, 65887, Note_on_c, 0, 68, 87
2, 65892, Note_on_c, 0, 56, 68
2, 65911, Note_on_c, 0, 72, 0
2, 65947, Note_on_c, 0, 56, 0
2, 66009, Note_on_c, 0, 68, 0
2, 66036, Note_on_c, 0, 48, 50
2, 66088, Note_on_c, 0, 48, 0
2, 66110, Note_on_c, 0, 65, 91
2, 66110, Note_on_c, 0, 60, 72
2, 66160, Note_on_c, 0, 60, 0
2, 66216, Note_on_c, 0, 65, 0
2, 66220, Note_on_c, 0, 48, 42
2, 66273, Note_on_c, 0, 48, 0
2, 66410, Note_on_c, 0, 60, 100
2, 66412, Note_on_c, 0, 41, 41
2, 66561, Control_c, 0, 64, 0
2, 66583, Note_on_c, 0, 48, 60
2, 66638, Note_on_c, 0, 48, 0
2, 66648, Note_on_c, 0, 41, 0
2, 66698, Note_on_c, 0, 55, 63
2, 66700, Control_c, 0, 64, 127
2, 66756, Note_on_c, 0, 55, 0
2, 66818, Note_on_c, 0, 48, 76
2, 66880, Note_on_c, 0, 48, 0
2, 66945, Note_on_c, 0, 56, 70
2, 66993, Note_on_c, 0, 56, 0
2, 67027, Note_on_c, 0, 48, 60
2, 67099, Note_on_c, 0, 48, 0
2, 67099, Control_c, 0, 64, 0
2, 67147, Note_on_c, 0, 41, 73
2, 67219, Note_on_c, 0, 41, 0
2, 67238, Control_c, 0, 64, 127
2, 67252, Note_on_c, 0, 48, 63
2, 67300, Note_on_c, 0, 48, 0
2, 67370, Note_on_c, 0, 58, 74
2, 67432, Note_on_c, 0, 58, 0
2, 67495, Note_on_c, 0, 48, 55
2, 67545, Note_on_c, 0, 48, 0
2, 67610, Note_on_c, 0, 55, 52
2, 67663, Note_on_c, 0, 55, 0
2, 67716, Note_on_c, 0, 48, 54
2, 67735, Note_on_c, 0, 60, 0
2, 67761, Note_on_c, 0, 48, 0
2, 67852, Control_c, 0, 64, 0
2, 67867, Note_on_c, 0, 41, 59
2, 68013, Note_on_c, 0, 41, 0
2, 68020, Control_c, 0, 64, 127
2, 68032, Note_on_c, 0, 48, 55
2, 68080, Note_on_c, 0, 48, 0
2, 68162, Note_on_c, 0, 65, 59
2, 68167, Note_on_c, 0, 56, 37
2, 68251, Note_on_c, 0, 65, 0
2, 68256, Note_on_c, 0, 56, 0
2, 68282, Note_on_c, 0, 48, 58
2, 68364, Note_on_c, 0, 48, 0
2, 68414, Note_on_c, 0, 67, 69
2, 68424, Note_on_c, 0, 58, 70
2, 68474, Note_on_c, 0, 58, 0
2, 68541, Note_on_c, 0, 48, 57
2, 68592, Note_on_c, 0, 48, 0
2, 68606, Control_c, 0, 64, 0
2, 68608, Note_on_c, 0, 67, 0
2, 68630, Note_on_c, 0, 41, 85
2, 68712, Note_on_c, 0, 48, 63
2, 68726, Note_on_c, 0, 41, 0
2, 68743, Control_c, 0, 64, 127
2, 68767, Note_on_c, 0, 48, 0
2, 68844, Note_on_c, 0, 68, 83
2, 68856, Note_on_c, 0, 60, 70
2, 68904, Note_on_c, 0, 60, 0
2, 68961, Note_on_c, 0, 48, 80
2, 68985, Note_on_c, 0, 68, 0
2, 69012, Note_on_c, 0, 48, 0
2, 69050, Note_on_c, 0, 61, 70
2, 69069, Note_on_c, 0, 70, 95
2, 69088, Note_on_c, 0, 61, 0
2, 69148, Note_on_c, 0, 48, 80
2, 69184, Note_on_c, 0, 48, 0
2, 69204, Note_on_c, 0, 70, 0
2, 69276, Note_on_c, 0, 41, 99
2, 69297, Control_c, 0, 64, 0
2, 69367, Note_on_c, 0, 48, 72
2, 69398, Note_on_c, 0, 41, 0
2, 69412, Note_on_c, 0, 48, 0
2, 69451, Control_c, 0, 64, 127
2, 69501, Note_on_c, 0, 60, 86
2, 69501, Note_on_c, 0, 72, 104
2, 69547, Note_on_c, 0, 60, 0
2, 69600, Note_on_c, 0, 48, 63
2, 69609, Note_on_c, 0, 72, 0
2, 69645, Note_on_c, 0, 48, 0
2, 69708, Note_on_c, 0, 58, 83
2, 69715, Note_on_c, 0, 73, 101
2, 69777, Note_on_c, 0, 58, 0
2, 69808, Note_on_c, 0, 48, 54
2, 69842, Note_on_c, 0, 73, 0
2, 69883, Note_on_c, 0, 48, 0
2, 69957, Control_c, 0, 64, 0
2, 69957, Note_on_c, 0, 41, 80
2, 69960, Note_on_c, 0, 72, 105
2, 70065, Note_on_c, 0, 41, 0
2, 70075, Note_on_c, 0, 48, 80
2, 70125, Note_on_c, 0, 48, 0
2, 70128, Control_c, 0, 64, 127
2, 70164, Note_on_c, 0, 72, 0
2, 70207, Note_on_c, 0, 84, 106
2, 70219, Note_on_c, 0, 56, 66
2, 70269, Note_on_c, 0, 56, 0
2, 70336, Note_on_c, 0, 48, 51
2, 70353, Note_on_c, 0, 84, 0
2, 70394, Note_on_c, 0, 48, 0
2, 70442, Note_on_c, 0, 60, 78
2, 70444, Note_on_c, 0, 80, 98
2, 70492, Note_on_c, 0, 60, 0
2, 70651, Note_on_c, 0, 80, 0
2, 70680, Control_c, 0, 64, 0
2, 70682, Note_on_c, 0, 79, 100
2, 70687, Note_on_c, 0, 41, 81
2, 70795, Note_on_c, 0, 41, 0
2, 70804, Note_on_c, 0, 48, 61
2, 70833, Control_c, 0, 64, 127
2, 70848, Note_on_c, 0, 48, 0
2, 70860, Note_on_c, 0, 79, 0
2, 70886, Note_on_c, 0, 72, 98
2, 70910, Note_on_c, 0, 58, 81
2, 70968, Note_on_c, 0, 58, 0
2, 70984, Note_on_c, 0, 72, 0
2, 71047, Note_on_c, 0, 73, 84
2, 71052, Note_on_c, 0, 48, 54
2, 71083, Note_on_c, 0, 73, 0
2, 71085, Note_on_c, 0, 75, 88
2, 71097, Note_on_c, 0, 48, 0
2, 71133, Note_on_c, 0, 73, 88
2, 71157, Note_on_c, 0, 55, 63
2, 71188, Note_on_c, 0, 75, 0
2, 71222, Note_on_c, 0, 55, 0
2, 71232, Note_on_c, 0, 48, 42
2, 71308, Note_on_c, 0, 48, 0
2, 71366, Note_on_c, 0, 72, 103
2, 71376, Note_on_c, 0, 41, 74
2, 71385, Note_on_c, 0, 73, 0
2, 71438, Note_on_c, 0, 41, 0
2, 71486, Note_on_c, 0, 48, 57
2, 71539, Note_on_c, 0, 48, 0
2, 71611, Note_on_c, 0, 67, 97
2, 71616, Note_on_c, 0, 58, 79
2, 71623, Note_on_c, 0, 72, 0
2, 71680, Note_on_c, 0, 58, 0
2, 71724, Note_on_c, 0, 67, 0
2, 71736, Note_on_c, 0, 48, 54
2, 71800, Note_on_c, 0, 48, 0
2, 71846, Note_on_c, 0, 60, 90
2, 71863, Note_on_c, 0, 55, 73
2, 71925, Note_on_c, 0, 55, 0
2, 71966, Note_on_c, 0, 60, 0
2, 71995, Note_on_c, 0, 48, 58
2, 72067, Note_on_c, 0, 48, 0
2, 72172, Note_on_c, 0, 41, 60
2, 72213, Note_on_c, 0, 65, 94
2, 72372, Note_on_c, 0, 47, 52
2, 72381, Note_on_c, 0, 67, 94
2, 72412, Note_on_c, 0, 65, 0
2, 72429, Note_on_c, 0, 47, 0
2, 72564, Note_on_c, 0, 68, 77
2, 72573, Note_on_c, 0, 56, 60
2, 72590, Note_on_c, 0, 67, 0
2, 72676, Control_c, 0, 64, 0
2, 72751, Note_on_c, 0, 47, 51
2, 72849, Note_on_c, 0, 56, 0
2, 72861, Control_c, 0, 64, 127
2, 72895, Note_on_c, 0, 47, 0
2, 72926, Note_on_c, 0, 61, 59
2, 72972, Note_on_c, 0, 41, 0
2, 73058, Note_on_c, 0, 47, 36
2, 73120, Note_on_c, 0, 47, 0
2, 73152, Note_on_c, 0, 61, 0
2, 73195, Note_on_c, 0, 41, 59
2, 73322, Note_on_c, 0, 47, 60
2, 73327, Note_on_c, 0, 41, 0
2, 73406, Note_on_c, 0, 47, 0
2, 73444, Note_on_c, 0, 56, 57
2, 73519, Note_on_c, 0, 56, 0
2, 73584, Note_on_c, 0, 47, 31
2, 73699, Note_on_c, 0, 47, 0
2, 73720, Note_on_c, 0, 61, 50
2, 73792, Note_on_c, 0, 61, 0
2, 73876, Note_on_c, 0, 47, 33
2, 73956, Note_on_c, 0, 47, 0
2, 74073, Note_on_c, 0, 41, 56
2, 74119, Note_on_c, 0, 68, 0
2, 74152, Control_c, 0, 64, 0
2, 74265, Note_on_c, 0, 48, 63
2, 74284, Note_on_c, 0, 41, 0
2, 74323, Control_c, 0, 64, 127
2, 74325, Note_on_c, 0, 48, 0
2, 74508, Note_on_c, 0, 56, 45
2, 74572, Note_on_c, 0, 65, 66
2, 74664, Note_on_c, 0, 56, 0
2, 74716, Note_on_c, 0, 65, 0
2, 74743, Note_on_c, 0, 48, 22
2, 74805, Note_on_c, 0, 48, 0
2, 74848, Note_on_c, 0, 58, 70
2, 74865, Note_on_c, 0, 79, 76
2, 74877, Note_on_c, 0, 67, 63
2, 74930, Note_on_c, 0, 58, 0
2, 74992, Note_on_c, 0, 48, 56
2, 75028, Note_on_c, 0, 67, 0
2, 75064, Note_on_c, 0, 79, 0
2, 75081, Note_on_c, 0, 48, 0
2, 75091, Control_c, 0, 64, 0
2, 75108, Note_on_c, 0, 41, 76
2, 75220, Note_on_c, 0, 48, 70
2, 75232, Note_on_c, 0, 41, 0
2, 75244, Control_c, 0, 64, 127
2, 75273, Note_on_c, 0, 48, 0
2, 75364, Note_on_c, 0, 68, 88
2, 75372, Note_on_c, 0, 80, 84
2, 75376, Note_on_c, 0, 60, 77
2, 75432, Note_on_c, 0, 60, 0
2, 75477, Note_on_c, 0, 68, 0
2, 75504, Note_on_c, 0, 80, 0
2, 75504, Note_on_c, 0, 48, 71
2, 75566, Note_on_c, 0, 48, 0
2, 75640, Note_on_c, 0, 61, 63
2, 75676, Note_on_c, 0, 70, 95
2, 75681, Note_on_c, 0, 61, 0
2, 75700, Note_on_c, 0, 82, 85
2, 75753, Note_on_c, 0, 48, 70
2, 75799, Note_on_c, 0, 48, 0
2, 75844, Note_on_c, 0, 82, 0
2, 75861, Note_on_c, 0, 70, 0
2, 75902, Note_on_c, 0, 41, 97
2, 75936, Control_c, 0, 64, 0
2, 76022, Note_on_c, 0, 48, 83
2, 76046, Note_on_c, 0, 41, 0
2, 76063, Note_on_c, 0, 48, 0
2, 76089, Control_c, 0, 64, 127
2, 76120, Note_on_c, 0, 72, 104
2, 76128, Note_on_c, 0, 84, 106
2, 76166, Note_on_c, 0, 60, 64
2, 76209, Note_on_c, 0, 72, 0
2, 76214, Note_on_c, 0, 60, 0
2, 76216, Note_on_c, 0, 84, 0
2, 76231, Note_on_c, 0, 48, 84
2, 76279, Note_on_c, 0, 48, 0
2, 76358, Note_on_c, 0, 58, 88
2, 76365, Note_on_c, 0, 73, 106
2, 76370, Note_on_c, 0, 85, 103
2, 76432, Note_on_c, 0, 58, 0
2, 76456, Note_on_c, 0, 48, 35
2, 76509, Note_on_c, 0, 73, 0
2, 76533, Note_on_c, 0, 48, 0
2, 76538, Note_on_c, 0, 85, 0
2, 76603, Note_on_c, 0, 41, 70
2, 76605, Note_on_c, 0, 72, 117
2, 76610, Note_on_c, 0, 84, 111
2, 76612, Control_c, 0, 64, 0
2, 76732, Note_on_c, 0, 72, 0
2, 76737, Note_on_c, 0, 48, 80
2, 76744, Note_on_c, 0, 41, 0
2, 76749, Control_c, 0, 64, 127
2, 76790, Note_on_c, 0, 84, 0
2, 76826, Note_on_c, 0, 48, 0
2, 76922, Note_on_c, 0, 80, 102
2, 76922, Note_on_c, 0, 92, 104
2, 76939, Note_on_c, 0, 56, 28
2, 77020, Note_on_c, 0, 56, 0
2, 77028, Note_on_c, 0, 48, 54
2, 77078, Note_on_c, 0, 80, 0
2, 77095, Note_on_c, 0, 92, 0
2, 77126, Note_on_c, 0, 48, 0
2, 77169, Note_on_c, 0, 58, 87
2, 77181, Note_on_c, 0, 79, 104
2, 77184, Note_on_c, 0, 91, 105
2, 77239, Note_on_c, 0, 58, 0
2, 77299, Note_on_c, 0, 48, 54
2, 77320, Note_on_c, 0, 79, 0
2, 77323, Note_on_c, 0, 91, 0
2, 77356, Note_on_c, 0, 48, 0
2, 77424, Note_on_c, 0, 41, 70
2, 77431, Note_on_c, 0, 77, 113
2, 77436, Note_on_c, 0, 89, 108
2, 77524, Note_on_c, 0, 89, 0
2, 77529, Note_on_c, 0, 41, 0
2, 77539, Note_on_c, 0, 77, 0
2, 77541, Note_on_c, 0, 48, 59
2, 77592, Note_on_c, 0, 48, 0
2, 77666, Note_on_c, 0, 72, 110
2, 77668, Note_on_c, 0, 84, 109
2, 77676, Note_on_c, 0, 56, 60
2, 77731, Note_on_c, 0, 72, 0
2, 77760, Note_on_c, 0, 56, 0
2, 77760, Note_on_c, 0, 84, 0
2, 77772, Note_on_c, 0, 48, 75
2, 77892, Note_on_c, 0, 48, 0
2, 77892, Note_on_c, 0, 58, 95
2, 77894, Note_on_c, 0, 85, 106
2, 77896, Note_on_c, 0, 73, 104
2, 77971, Note_on_c, 0, 58, 0
2, 77978, Note_on_c, 0, 48, 58
2, 78050, Note_on_c, 0, 73, 0
2, 78074, Note_on_c, 0, 85, 0
2, 78115, Note_on_c, 0, 48, 0
2, 78117, Control_c, 0, 64, 0
2, 78129, Note_on_c, 0, 41, 80
2, 78134, Note_on_c, 0, 84, 111
2, 78134, Note_on_c, 0, 72, 113
2, 78232, Note_on_c, 0, 48, 74
2, 78237, Note_on_c, 0, 72, 0
2, 78237, Note_on_c, 0, 41, 0
2, 78240, Note_on_c, 0, 84, 0
2, 78256, Control_c, 0, 64, 127
2, 78304, Note_on_c, 0, 48, 0
2, 78372, Note_on_c, 0, 80, 105
2, 78374, Note_on_c, 0, 68, 103
2, 78376, Note_on_c, 0, 56, 58
2, 78441, Note_on_c, 0, 56, 0
2, 78463, Note_on_c, 0, 68, 0
2, 78477, Note_on_c, 0, 80, 0
2, 78487, Note_on_c, 0, 48, 66
2, 78564, Note_on_c, 0, 48, 0
2, 78592, Note_on_c, 0, 65, 106
2, 78595, Note_on_c, 0, 77, 109
2, 78619, Note_on_c, 0, 60, 44
2, 78664, Note_on_c, 0, 77, 0
2, 78681, Note_on_c, 0, 60, 0
2, 78684, Note_on_c, 0, 65, 0
2, 78708, Note_on_c, 0, 48, 83
2, 78748, Note_on_c, 0, 48, 0
2, 78859, Note_on_c, 0, 72, 111
2, 78861, Note_on_c, 0, 60, 100
2, 78885, Note_on_c, 0, 41, 72
2, 79010, Note_on_c, 0, 48, 76
2, 79032, Note_on_c, 0, 41, 0
2, 79051, Note_on_c, 0, 48, 0
2, 79082, Note_on_c, 0, 55, 78
2, 79135, Note_on_c, 0, 55, 0
2, 79183, Note_on_c, 0, 48, 57
2, 79296, Note_on_c, 0, 48, 0
2, 79312, Note_on_c, 0, 56, 76
2, 79377, Note_on_c, 0, 56, 0
2, 79394, Note_on_c, 0, 48, 59
2, 79485, Control_c, 0, 64, 0
2, 79524, Note_on_c, 0, 48, 0
2, 79533, Note_on_c, 0, 41, 85
2, 79608, Control_c, 0, 64, 127
2, 79629, Note_on_c, 0, 48, 69
2, 79641, Note_on_c, 0, 41, 0
2, 79720, Note_on_c, 0, 48, 0
2, 79764, Note_on_c, 0, 58, 88
2, 79848, Note_on_c, 0, 58, 0
2, 79888, Note_on_c, 0, 48, 70
2, 79977, Note_on_c, 0, 48, 0
2, 80008, Note_on_c, 0, 55, 70
2, 80049, Note_on_c, 0, 60, 0
2, 80114, Note_on_c, 0, 48, 69
2, 80133, Note_on_c, 0, 55, 0
2, 80172, Note_on_c, 0, 72, 0
2, 80232, Note_on_c, 0, 48, 0
2, 80270, Note_on_c, 0, 41, 84
2, 80301, Control_c, 0, 64, 0
2, 80409, Note_on_c, 0, 48, 76
2, 80428, Note_on_c, 0, 41, 0
2, 80469, Control_c, 0, 64, 127
2, 80517, Note_on_c, 0, 48, 0
2, 80582, Note_on_c, 0, 65, 97
2, 80584, Note_on_c, 0, 77, 102
2, 80594, Note_on_c, 0, 57, 53
2, 80690, Note_on_c, 0, 57, 0
2, 80721, Note_on_c, 0, 48, 59
2, 80736, Note_on_c, 0, 65, 0
2, 80788, Note_on_c, 0, 77, 0
2, 80860, Note_on_c, 0, 58, 88
2, 80868, Note_on_c, 0, 67, 99
2, 80870, Note_on_c, 0, 48, 0
2, 80875, Note_on_c, 0, 79, 98
2, 80947, Note_on_c, 0, 58, 0
2, 80971, Note_on_c, 0, 48, 58
2, 81079, Note_on_c, 0, 41, 95
2, 81081, Note_on_c, 0, 48, 0
2, 81100, Control_c, 0, 64, 0
2, 81141, Note_on_c, 0, 67, 0
2, 81156, Note_on_c, 0, 48, 87
2, 81192, Note_on_c, 0, 41, 0
2, 81196, Note_on_c, 0, 79, 0
2, 81223, Control_c, 0, 64, 127
2, 81242, Note_on_c, 0, 48, 0
2, 81295, Note_on_c, 0, 81, 111
2, 81302, Note_on_c, 0, 69, 96
2, 81314, Note_on_c, 0, 60, 83
2, 81355, Note_on_c, 0, 69, 0
2, 81381, Note_on_c, 0, 60, 0
2, 81400, Note_on_c, 0, 48, 96
2, 81415, Note_on_c, 0, 81, 0
2, 81472, Note_on_c, 0, 48, 0
2, 81516, Note_on_c, 0, 61, 84
2, 81518, Note_on_c, 0, 82, 115
2, 81523, Note_on_c, 0, 70, 103
2, 81552, Note_on_c, 0, 61, 0
2, 81612, Note_on_c, 0, 48, 73
2, 81633, Note_on_c, 0, 70, 0
2, 81650, Note_on_c, 0, 48, 0
2, 81698, Control_c, 0, 64, 0
2, 81727, Note_on_c, 0, 41, 108
2, 81756, Note_on_c, 0, 41, 0
2, 81837, Control_c, 0, 64, 127
2, 81871, Note_on_c, 0, 54, 81
2, 81945, Note_on_c, 0, 84, 111
2, 81948, Note_on_c, 0, 72, 105
2, 81962, Note_on_c, 0, 54, 0
2, 81981, Note_on_c, 0, 63, 93
2, 82000, Note_on_c, 0, 82, 0
2, 82036, Note_on_c, 0, 72, 0
2, 82077, Note_on_c, 0, 84, 0
2, 82096, Note_on_c, 0, 63, 0
2, 82116, Note_on_c, 0, 54, 85
2, 82221, Note_on_c, 0, 85, 109
2, 82224, Note_on_c, 0, 54, 0
2, 82226, Note_on_c, 0, 73, 103
2, 82233, Note_on_c, 0, 65, 98
2, 82329, Note_on_c, 0, 65, 0
2, 82346, Note_on_c, 0, 54, 82
2, 82358, Note_on_c, 0, 73, 0
2, 82387, Note_on_c, 0, 54, 0
2, 82432, Note_on_c, 0, 85, 0
2, 82497, Control_c, 0, 64, 0
2, 82519, Note_on_c, 0, 41, 105
2, 82519, Note_on_c, 0, 87, 111
2, 82524, Note_on_c, 0, 75, 105
2, 82552, Note_on_c, 0, 41, 0
2, 82622, Control_c, 0, 64, 127
2, 82735, Note_on_c, 0, 54, 87
2, 82845, Note_on_c, 0, 54, 0
2, 82867, Note_on_c, 0, 66, 85
2, 82968, Note_on_c, 0, 66, 0
2, 82975, Note_on_c, 0, 54, 84
2, 83090, Note_on_c, 0, 66, 87
2, 83092, Note_on_c, 0, 54, 0
2, 83167, Note_on_c, 0, 54, 65
2, 83172, Note_on_c, 0, 66, 0
2, 83222, Note_on_c, 0, 54, 0
2, 83277, Note_on_c, 0, 87, 0
2, 83349, Note_on_c, 0, 41, 98
2, 83431, Note_on_c, 0, 75, 0
2, 83553, Note_on_c, 0, 50, 78
2, 83558, Control_c, 0, 64, 0
2, 83635, Note_on_c, 0, 41, 0
2, 83680, Control_c, 0, 64, 127
2, 83702, Note_on_c, 0, 50, 0
2, 83707, Note_on_c, 0, 56, 83
2, 83733, Note_on_c, 0, 71, 87
2, 83736, Note_on_c, 0, 83, 94
2, 83848, Note_on_c, 0, 71, 0
2, 83853, Note_on_c, 0, 56, 0
2, 83853, Note_on_c, 0, 50, 54
2, 83911, Note_on_c, 0, 83, 0
2, 83913, Note_on_c, 0, 50, 0
2, 83966, Note_on_c, 0, 57, 88
2, 83992, Note_on_c, 0, 84, 106
2, 84004, Note_on_c, 0, 72, 88
2, 84040, Note_on_c, 0, 57, 0
2, 84074, Note_on_c, 0, 50, 90
2, 84158, Note_on_c, 0, 72, 0
2, 84170, Note_on_c, 0, 41, 101
2, 84172, Control_c, 0, 64, 0
2, 84194, Note_on_c, 0, 50, 0
2, 84211, Note_on_c, 0, 84, 0
2, 84266, Control_c, 0, 64, 127
2, 84276, Note_on_c, 0, 50, 90
2, 84297, Note_on_c, 0, 41, 0
2, 84372, Note_on_c, 0, 50, 0
2, 84400, Note_on_c, 0, 59, 72
2, 84403, Note_on_c, 0, 86, 110
2, 84408, Note_on_c, 0, 74, 109
2, 84477, Note_on_c, 0, 59, 0
2, 84496, Note_on_c, 0, 74, 0
2, 84499, Note_on_c, 0, 50, 85
2, 84544, Note_on_c, 0, 86, 0
2, 84612, Note_on_c, 0, 50, 0
2, 84624, Note_on_c, 0, 61, 96
2, 84640, Note_on_c, 0, 76, 114
2, 84640, Note_on_c, 0, 88, 113
2, 84693, Note_on_c, 0, 49, 62
2, 84712, Note_on_c, 0, 61, 0
2, 84756, Note_on_c, 0, 76, 0
2, 84758, Note_on_c, 0, 49, 0
2, 84816, Note_on_c, 0, 88, 0
2, 84859, Note_on_c, 0, 41, 111
2, 84880, Control_c, 0, 64, 0
2, 84981, Note_on_c, 0, 50, 77
2, 85017, Note_on_c, 0, 41, 0
2, 85048, Control_c, 0, 64, 127
2, 85070, Note_on_c, 0, 50, 0
2, 85125, Note_on_c, 0, 77, 114
2, 85125, Note_on_c, 0, 89, 115
2, 85159, Note_on_c, 0, 62, 79
2, 85219, Note_on_c, 0, 62, 0
2, 85238, Note_on_c, 0, 77, 0
2, 85276, Note_on_c, 0, 50, 83
2, 85296, Note_on_c, 0, 89, 0
2, 85372, Note_on_c, 0, 50, 0
2, 85408, Note_on_c, 0, 64, 98
2, 85408, Note_on_c, 0, 91, 117
2, 85413, Note_on_c, 0, 79, 114
2, 85497, Note_on_c, 0, 64, 0
2, 85548, Note_on_c, 0, 79, 0
2, 85548, Note_on_c, 0, 50, 83
2, 85581, Note_on_c, 0, 50, 0
2, 85627, Note_on_c, 0, 91, 0
2, 85701, Note_on_c, 0, 41, 92
2, 85711, Control_c, 0, 64, 0
2, 85718, Note_on_c, 0, 92, 112
2, 85720, Note_on_c, 0, 80, 111
2, 85848, Control_c, 0, 64, 127
2, 85857, Note_on_c, 0, 50, 80
2, 85869, Note_on_c, 0, 41, 0
2, 85903, Note_on_c, 0, 50, 0
2, 86049, Note_on_c, 0, 65, 64
2, 86092, Note_on_c, 0, 65, 0
2, 86179, Note_on_c, 0, 50, 96
2, 86222, Note_on_c, 0, 50, 0
2, 86301, Note_on_c, 0, 65, 91
2, 86337, Note_on_c, 0, 65, 0
2, 86426, Note_on_c, 0, 50, 74
2, 86469, Note_on_c, 0, 50, 0
2, 86558, Note_on_c, 0, 41, 101
2, 86570, Control_c, 0, 64, 0
2, 86632, Note_on_c, 0, 92, 0
2, 86680, Note_on_c, 0, 80, 0
2, 86709, Control_c, 0, 64, 127
2, 86716, Note_on_c, 0, 41, 0
2, 86736, Note_on_c, 0, 49, 82
2, 86805, Note_on_c, 0, 49, 0
2, 86930, Note_on_c, 0, 58, 67
2, 86942, Note_on_c, 0, 76, 90
2, 86944, Note_on_c, 0, 64, 82
2, 87009, Note_on_c, 0, 58, 0
2, 87057, Note_on_c, 0, 49, 66
2, 87062, Note_on_c, 0, 64, 0
2, 87103, Note_on_c, 0, 76, 0
2, 87134, Note_on_c, 0, 49, 0
2, 87175, Note_on_c, 0, 61, 71
2, 87201, Note_on_c, 0, 77, 103
2, 87211, Note_on_c, 0, 65, 84
2, 87218, Note_on_c, 0, 61, 0
2, 87280, Note_on_c, 0, 49, 84
2, 87285, Note_on_c, 0, 65, 0
2, 87319, Note_on_c, 0, 49, 0
2, 87321, Note_on_c, 0, 77, 0
2, 87424, Note_on_c, 0, 41, 78
2, 87436, Note_on_c, 0, 80, 105
2, 87444, Note_on_c, 0, 68, 94
2, 87532, Note_on_c, 0, 49, 73
2, 87542, Note_on_c, 0, 41, 0
2, 87585, Note_on_c, 0, 68, 0
2, 87609, Note_on_c, 0, 49, 0
2, 87616, Note_on_c, 0, 80, 0
2, 87664, Note_on_c, 0, 58, 85
2, 87679, Note_on_c, 0, 79, 109
2, 87681, Note_on_c, 0, 67, 100
2, 87727, Note_on_c, 0, 58, 0
2, 87763, Note_on_c, 0, 49, 73
2, 87775, Note_on_c, 0, 67, 0
2, 87804, Note_on_c, 0, 79, 0
2, 87876, Note_on_c, 0, 61, 83
2, 87890, Note_on_c, 0, 49, 0
2, 87904, Note_on_c, 0, 80, 110
2, 87907, Note_on_c, 0, 68, 104
2, 87945, Note_on_c, 0, 61, 0
2, 87984, Note_on_c, 0, 49, 70
2, 88000, Note_on_c, 0, 68, 0
2, 88044, Note_on_c, 0, 80, 0
2, 88094, Note_on_c, 0, 49, 0
2, 88128, Note_on_c, 0, 84, 113
2, 88130, Note_on_c, 0, 41, 91
2, 88130, Note_on_c, 0, 72, 110
2, 88202, Note_on_c, 0, 84, 0
2, 88214, Note_on_c, 0, 49, 57
2, 88224, Note_on_c, 0, 41, 0
2, 88231, Note_on_c, 0, 72, 0
2, 88320, Note_on_c, 0, 49, 0
2, 88351, Note_on_c, 0, 58, 92
2, 88353, Note_on_c, 0, 70, 112
2, 88358, Note_on_c, 0, 82, 113
2, 88406, Note_on_c, 0, 58, 0
2, 88449, Note_on_c, 0, 49, 76
2, 88454, Note_on_c, 0, 70, 0
2, 88456, Note_on_c, 0, 82, 0
2, 88552, Note_on_c, 0, 61, 81
2, 88562, Note_on_c, 0, 84, 117
2, 88564, Note_on_c, 0, 49, 0
2, 88567, Note_on_c, 0, 72, 109
2, 88615, Note_on_c, 0, 61, 0
2, 88617, Note_on_c, 0, 72, 0
2, 88656, Note_on_c, 0, 49, 69
2, 88658, Note_on_c, 0, 84, 0
2, 88720, Note_on_c, 0, 49, 0
2, 88785, Note_on_c, 0, 87, 109
2, 88785, Note_on_c, 0, 75, 104
2, 88800, Note_on_c, 0, 41, 95
2, 88848, Note_on_c, 0, 41, 0
2, 88876, Note_on_c, 0, 75, 0
2, 88879, Note_on_c, 0, 87, 0
2, 88888, Note_on_c, 0, 49, 62
2, 88980, Note_on_c, 0, 49, 0
2, 88996, Note_on_c, 0, 73, 105
2, 88999, Note_on_c, 0, 85, 107
2, 89001, Note_on_c, 0, 58, 97
2, 89064, Note_on_c, 0, 58, 0
2, 89083, Note_on_c, 0, 73, 0
2, 89090, Note_on_c, 0, 49, 75
2, 89121, Note_on_c, 0, 85, 0
2, 89188, Note_on_c, 0, 61, 87
2, 89200, Note_on_c, 0, 75, 106
2, 89203, Note_on_c, 0, 87, 112
2, 89205, Note_on_c, 0, 49, 0
2, 89287, Note_on_c, 0, 61, 0
2, 89287, Note_on_c, 0, 75, 0
2, 89289, Note_on_c, 0, 49, 75
2, 89313, Note_on_c, 0, 87, 0
2, 89349, Note_on_c, 0, 49, 0
2, 89404, Note_on_c, 0, 89, 119
2, 89409, Note_on_c, 0, 77, 119
2, 89412, Note_on_c, 0, 41, 97
2, 89455, Note_on_c, 0, 41, 0
2, 89491, Note_on_c, 0, 77, 0
2, 89503, Note_on_c, 0, 49, 83
2, 89515, Note_on_c, 0, 89, 0
2, 89582, Note_on_c, 0, 49, 0
2, 89608, Note_on_c, 0, 58, 101
2, 89616, Note_on_c, 0, 88, 115
2, 89616, Note_on_c, 0, 76, 113
2, 89695, Note_on_c, 0, 58, 0
2, 89700, Note_on_c, 0, 76, 0
2, 89709, Note_on_c, 0, 88, 0
2, 89714, Note_on_c, 0, 49, 85
2, 89815, Note_on_c, 0, 77, 113
2, 89817, Note_on_c, 0, 89, 119
2, 89822, Note_on_c, 0, 49, 0
2, 89822, Note_on_c, 0, 61, 90
2, 89892, Note_on_c, 0, 89, 0
2, 89904, Note_on_c, 0, 77, 0
2, 89923, Note_on_c, 0, 61, 0
2, 89932, Note_on_c, 0, 49, 74
2, 90007, Note_on_c, 0, 49, 0
2, 90019, Note_on_c, 0, 92, 112
2, 90021, Note_on_c, 0, 80, 111
2, 90064, Note_on_c, 0, 41, 98
2, 90148, Note_on_c, 0, 92, 0
2, 90153, Note_on_c, 0, 80, 0
2, 90158, Note_on_c, 0, 49, 86
2, 90165, Note_on_c, 0, 41, 0
2, 90247, Note_on_c, 0, 91, 112
2, 90247, Note_on_c, 0, 79, 113
2, 90264, Note_on_c, 0, 49, 0
2, 90285, Note_on_c, 0, 58, 101
2, 90321, Note_on_c, 0, 79, 0
2, 90348, Note_on_c, 0, 91, 0
2, 90362, Note_on_c, 0, 58, 0
2, 90398, Note_on_c, 0, 49, 89
2, 90468, Note_on_c, 0, 80, 111
2, 90472, Note_on_c, 0, 92, 113
2, 90492, Note_on_c, 0, 61, 83
2, 90520, Note_on_c, 0, 49, 0
2, 90547, Note_on_c, 0, 80, 0
2, 90590, Note_on_c, 0, 92, 0
2, 90592, Note_on_c, 0, 61, 0
2, 90616, Note_on_c, 0, 49, 78
2, 90679, Note_on_c, 0, 49, 0
2, 90727, Note_on_c, 0, 93, 119
2, 90732, Note_on_c, 0, 81, 114
2, 90768, Note_on_c, 0, 81, 0
2, 90770, Note_on_c, 0, 41, 94
2, 90772, Note_on_c, 0, 93, 0
2, 90866, Note_on_c, 0, 82, 115
2, 90866, Note_on_c, 0, 94, 117
2, 90888, Note_on_c, 0, 41, 0
2, 90902, Note_on_c, 0, 82, 0
2, 90902, Note_on_c, 0, 49, 76
2, 90907, Note_on_c, 0, 94, 0
2, 90976, Note_on_c, 0, 49, 0
2, 90996, Note_on_c, 0, 97, 121
2, 90998, Note_on_c, 0, 85, 120
2, 91027, Note_on_c, 0, 58, 100
2, 91128, Note_on_c, 0, 58, 0
2, 91140, Note_on_c, 0, 49, 84
2, 91255, Note_on_c, 0, 49, 0
2, 91267, Note_on_c, 0, 61, 80
2, 91346, Note_on_c, 0, 61, 0
2, 91377, Note_on_c, 0, 49, 76
2, 91425, Note_on_c, 0, 49, 0
2, 91524, Note_on_c, 0, 41, 95
2, 91552, Note_on_c, 0, 97, 0
2, 91639, Note_on_c, 0, 85, 0
2, 91646, Note_on_c, 0, 41, 0
2, 91656, Note_on_c, 0, 49, 76
2, 91776, Note_on_c, 0, 49, 0
2, 91809, Note_on_c, 0, 58, 92
2, 91951, Note_on_c, 0, 58, 0
2, 91956, Note_on_c, 0, 49, 72
2, 92121, Note_on_c, 0, 49, 0
2, 92169, Note_on_c, 0, 76, 111
2, 92176, Note_on_c, 0, 64, 92
2, 92198, Note_on_c, 0, 61, 59
2, 92275, Note_on_c, 0, 64, 0
2, 92323, Note_on_c, 0, 61, 0
2, 92397, Note_on_c, 0, 49, 55
2, 92445, Note_on_c, 0, 49, 0
2, 92704, Note_on_c, 0, 79, 97
2, 92709, Note_on_c, 0, 67, 73
2, 92748, Note_on_c, 0, 41, 43
2, 92788, Note_on_c, 0, 76, 0
2, 92841, Control_c, 0, 64, 0
2, 92978, Note_on_c, 0, 41, 0
2, 92978, Control_c, 0, 64, 127
2, 93040, Note_on_c, 0, 49, 35
2, 93115, Note_on_c, 0, 49, 0
2, 93115, Note_on_c, 0, 79, 0
2, 93156, Note_on_c, 0, 67, 0
2, 93271, Note_on_c, 0, 79, 89
2, 93273, Note_on_c, 0, 67, 58
2, 93302, Note_on_c, 0, 58, 39
2, 93496, Note_on_c, 0, 58, 0
2, 93501, Note_on_c, 0, 67, 0
2, 93523, Note_on_c, 0, 49, 40
2, 93537, Note_on_c, 0, 79, 0
2, 93597, Note_on_c, 0, 49, 0
2, 93696, Note_on_c, 0, 79, 87
2, 93700, Note_on_c, 0, 67, 57
2, 93724, Note_on_c, 0, 61, 38
2, 93794, Note_on_c, 0, 61, 0
2, 93871, Note_on_c, 0, 49, 39
2, 93909, Note_on_c, 0, 79, 0
2, 93914, Note_on_c, 0, 67, 0
2, 93931, Note_on_c, 0, 49, 0
2, 94070, Note_on_c, 0, 79, 83
2, 94087, Control_c, 0, 64, 0
2, 94092, Note_on_c, 0, 67, 29
2, 94128, Note_on_c, 0, 41, 25
2, 94286, Control_c, 0, 64, 127
2, 94356, Note_on_c, 0, 41, 0
2, 94382, Note_on_c, 0, 48, 33
2, 94456, Note_on_c, 0, 48, 0
2, 94545, Note_on_c, 0, 56, 44
2, 94725, Note_on_c, 0, 56, 0
2, 94785, Note_on_c, 0, 48, 36
2, 94845, Note_on_c, 0, 79, 0
2, 94898, Note_on_c, 0, 48, 0
2, 94920, Note_on_c, 0, 67, 0
2, 95023, Note_on_c, 0, 60, 43
2, 95102, Note_on_c, 0, 77, 64
2, 95112, Note_on_c, 0, 60, 0
2, 95124, Note_on_c, 0, 65, 35
2, 95277, Note_on_c, 0, 65, 0
2, 95277, Note_on_c, 0, 48, 45
2, 95330, Note_on_c, 0, 48, 0
2, 95500, Note_on_c, 0, 67, 73
2, 95517, Note_on_c, 0, 41, 56
2, 95560, Control_c, 0, 64, 0
2, 95568, Note_on_c, 0, 77, 0
2, 95692, Note_on_c, 0, 41, 0
2, 95714, Control_c, 0, 64, 127
2, 95724, Note_on_c, 0, 49, 63
2, 95772, Note_on_c, 0, 49, 0
2, 95772, Note_on_c, 0, 67, 0
2, 95896, Note_on_c, 0, 67, 79
2, 95904, Note_on_c, 0, 58, 68
2, 95985, Note_on_c, 0, 58, 0
2, 96055, Note_on_c, 0, 49, 52
2, 96057, Note_on_c, 0, 67, 0
2, 96112, Note_on_c, 0, 49, 0
2, 96220, Note_on_c, 0, 67, 84
2, 96232, Note_on_c, 0, 61, 48
2, 96283, Note_on_c, 0, 61, 0
2, 96369, Note_on_c, 0, 49, 56
2, 96420, Note_on_c, 0, 49, 0
2, 96444, Note_on_c, 0, 67, 0
2, 96525, Note_on_c, 0, 67, 75
2, 96556, Note_on_c, 0, 41, 59
2, 96576, Control_c, 0, 64, 0
2, 96741, Note_on_c, 0, 41, 0
2, 96744, Control_c, 0, 64, 127
2, 96763, Note_on_c, 0, 48, 43
2, 96813, Note_on_c, 0, 48, 0
2, 96876, Note_on_c, 0, 56, 55
2, 97017, Note_on_c, 0, 56, 0
2, 97039, Note_on_c, 0, 48, 45
2, 97135, Note_on_c, 0, 48, 0
2, 97216, Note_on_c, 0, 67, 0
2, 97221, Note_on_c, 0, 65, 76
2, 97226, Note_on_c, 0, 60, 61
2, 97300, Note_on_c, 0, 60, 0
2, 97312, Note_on_c, 0, 65, 0
2, 97425, Note_on_c, 0, 48, 69
2, 97464, Note_on_c, 0, 48, 0
2, 97562, Note_on_c, 0, 76, 110
2, 97574, Note_on_c, 0, 64, 91
2, 97605, Note_on_c, 0, 41, 47
2, 97636, Control_c, 0, 64, 0
2, 97790, Control_c, 0, 64, 127
2, 97797, Note_on_c, 0, 41, 0
2, 97819, Note_on_c, 0, 49, 48
2, 97826, Note_on_c, 0, 76, 0
2, 97833, Note_on_c, 0, 64, 0
2, 97872, Note_on_c, 0, 49, 0
2, 98073, Note_on_c, 0, 75, 92
2, 98088, Note_on_c, 0, 63, 62
2, 98090, Note_on_c, 0, 58, 48
2, 98203, Note_on_c, 0, 58, 0
2, 98234, Note_on_c, 0, 63, 0
2, 98296, Note_on_c, 0, 49, 50
2, 98337, Note_on_c, 0, 75, 0
2, 98354, Note_on_c, 0, 49, 0
2, 98467, Note_on_c, 0, 76, 90
2, 98474, Note_on_c, 0, 64, 64
2, 98479, Note_on_c, 0, 61, 55
2, 98541, Note_on_c, 0, 61, 0
2, 98625, Note_on_c, 0, 49, 46
2, 98642, Note_on_c, 0, 64, 0
2, 98685, Note_on_c, 0, 49, 0
2, 98812, Note_on_c, 0, 76, 0
2, 98952, Note_on_c, 0, 77, 62
2, 98964, Note_on_c, 0, 41, 36
2, 98976, Note_on_c, 0, 65, 51
2, 98988, Control_c, 0, 64, 0
2, 99201, Note_on_c, 0, 41, 0
2, 99204, Control_c, 0, 64, 127
2, 99220, Note_on_c, 0, 48, 45
2, 99273, Note_on_c, 0, 48, 0
2, 99384, Note_on_c, 0, 56, 36
2, 99475, Note_on_c, 0, 56, 0
2, 99552, Note_on_c, 0, 48, 45
2, 99619, Note_on_c, 0, 48, 0
2, 99621, Note_on_c, 0, 77, 0
2, 99703, Note_on_c, 0, 60, 45
2, 99770, Note_on_c, 0, 60, 0
2, 99835, Note_on_c, 0, 48, 56
2, 99880, Note_on_c, 0, 48, 0
2, 99996, Note_on_c, 0, 64, 68
2, 100003, Control_c, 0, 64, 0
2, 100036, Note_on_c, 0, 41, 48
2, 100072, Note_on_c, 0, 65, 0
2, 100173, Note_on_c, 0, 41, 0
2, 100188, Control_c, 0, 64, 127
2, 100204, Note_on_c, 0, 49, 61
2, 100260, Note_on_c, 0, 49, 0
2, 100380, Note_on_c, 0, 58, 62
2, 100399, Note_on_c, 0, 63, 63
2, 100418, Note_on_c, 0, 64, 0
2, 100531, Note_on_c, 0, 58, 0
2, 100548, Note_on_c, 0, 49, 66
2, 100605, Note_on_c, 0, 49, 0
2, 100704, Note_on_c, 0, 64, 80
2, 100706, Note_on_c, 0, 61, 58
2, 100737, Note_on_c, 0, 63, 0
2, 100766, Note_on_c, 0, 61, 0
2, 100824, Note_on_c, 0, 49, 58
2, 100872, Note_on_c, 0, 49, 0
2, 100994, Note_on_c, 0, 41, 62
2, 101025, Note_on_c, 0, 65, 71
2, 101032, Control_c, 0, 64, 0
2, 101068, Note_on_c, 0, 64, 0
2, 101172, Note_on_c, 0, 41, 0
2, 101188, Note_on_c, 0, 48, 54
2, 101200, Control_c, 0, 64, 127
2, 101236, Note_on_c, 0, 48, 0
2, 101284, Note_on_c, 0, 65, 0
2, 101289, Note_on_c, 0, 56, 65
2, 101385, Note_on_c, 0, 56, 0
2, 101414, Note_on_c, 0, 48, 79
2, 101529, Note_on_c, 0, 48, 0
2, 101548, Note_on_c, 0, 60, 80
2, 101661, Note_on_c, 0, 60, 0
2, 101678, Note_on_c, 0, 48, 80
2, 101724, Note_on_c, 0, 48, 0
2, 101870, Note_on_c, 0, 91, 119
2, 101872, Note_on_c, 0, 79, 121
2, 101884, Note_on_c, 0, 41, 70
2, 101940, Control_c, 0, 64, 0
2, 102086, Note_on_c, 0, 79, 0
2, 102100, Note_on_c, 0, 91, 0
2, 102108, Control_c, 0, 64, 127
2, 102187, Note_on_c, 0, 41, 0
2, 102201, Note_on_c, 0, 91, 105
2, 102206, Note_on_c, 0, 79, 120
2, 102256, Note_on_c, 0, 49, 71
2, 102280, Note_on_c, 0, 79, 0
2, 102285, Note_on_c, 0, 91, 0
2, 102403, Note_on_c, 0, 49, 0
2, 102429, Note_on_c, 0, 91, 121
2, 102429, Note_on_c, 0, 79, 121
2, 102496, Note_on_c, 0, 79, 0
2, 102520, Note_on_c, 0, 91, 0
2, 102537, Note_on_c, 0, 58, 80
2, 102602, Note_on_c, 0, 91, 106
2, 102609, Note_on_c, 0, 79, 105
2, 102636, Note_on_c, 0, 91, 0
2, 102640, Note_on_c, 0, 79, 0
2, 102708, Note_on_c, 0, 58, 0
2, 102724, Note_on_c, 0, 49, 60
2, 102729, Note_on_c, 0, 91, 101
2, 102732, Note_on_c, 0, 79, 89
2, 102777, Note_on_c, 0, 91, 0
2, 102789, Note_on_c, 0, 79, 0
2, 102806, Note_on_c, 0, 49, 0
2, 102864, Note_on_c, 0, 91, 105
2, 102866, Note_on_c, 0, 79, 107
2, 102928, Note_on_c, 0, 91, 0
2, 102948, Note_on_c, 0, 79, 0
2, 102974, Note_on_c, 0, 61, 52
2, 103116, Note_on_c, 0, 61, 0
2, 103284, Note_on_c, 0, 49, 62
2, 103339, Note_on_c, 0, 49, 0
2, 103416, Note_on_c, 0, 79, 110
2, 103416, Note_on_c, 0, 67, 108
2, 103447, Note_on_c, 0, 79, 0
2, 103449, Note_on_c, 0, 67, 0
2, 103557, Note_on_c, 0, 41, 61
2, 103560, Note_on_c, 0, 79, 105
2, 103562, Note_on_c, 0, 67, 94
2, 103598, Control_c, 0, 64, 0
2, 103783, Control_c, 0, 64, 127
2, 103792, Note_on_c, 0, 48, 72
2, 103797, Note_on_c, 0, 41, 0
2, 103838, Note_on_c, 0, 48, 0
2, 103958, Note_on_c, 0, 56, 49
2, 104078, Note_on_c, 0, 56, 0
2, 104102, Note_on_c, 0, 48, 63
2, 104148, Note_on_c, 0, 67, 0
2, 104160, Note_on_c, 0, 79, 0
2, 104169, Note_on_c, 0, 48, 0
2, 104260, Note_on_c, 0, 77, 105
2, 104260, Note_on_c, 0, 65, 93
2, 104268, Note_on_c, 0, 60, 59
2, 104332, Note_on_c, 0, 60, 0
2, 104419, Note_on_c, 0, 65, 0
2, 104431, Note_on_c, 0, 48, 40
2, 104496, Note_on_c, 0, 48, 0
2, 104517, Note_on_c, 0, 77, 0
2, 104690, Note_on_c, 0, 41, 35
2, 104704, Control_c, 0, 64, 0
2, 104714, Note_on_c, 0, 79, 96
2, 104875, Control_c, 0, 64, 127
2, 104892, Note_on_c, 0, 41, 0
2, 104906, Note_on_c, 0, 79, 0
2, 104947, Note_on_c, 0, 49, 39
2, 104973, Note_on_c, 0, 79, 97
2, 105007, Note_on_c, 0, 49, 0
2, 105014, Note_on_c, 0, 79, 0
2, 105100, Note_on_c, 0, 79, 82
2, 105144, Note_on_c, 0, 58, 44
2, 105160, Note_on_c, 0, 79, 0
2, 105223, Note_on_c, 0, 58, 0
2, 105242, Note_on_c, 0, 79, 73
2, 105290, Note_on_c, 0, 79, 0
2, 105297, Note_on_c, 0, 49, 47
2, 105362, Note_on_c, 0, 49, 0
2, 105369, Note_on_c, 0, 79, 70
2, 105439, Note_on_c, 0, 79, 0
2, 105542, Note_on_c, 0, 61, 38
2, 105547, Note_on_c, 0, 79, 52
2, 105624, Note_on_c, 0, 61, 0
2, 105652, Note_on_c, 0, 79, 0
2, 105804, Note_on_c, 0, 49, 44
2, 105900, Note_on_c, 0, 49, 0
2, 105972, Note_on_c, 0, 67, 56
2, 106024, Note_on_c, 0, 67, 0
2, 106101, Note_on_c, 0, 41, 51
2, 106130, Note_on_c, 0, 67, 55
2, 106166, Control_c, 0, 64, 0
2, 106320, Note_on_c, 0, 41, 0
2, 106341, Note_on_c, 0, 48, 43
2, 106348, Control_c, 0, 64, 127
2, 106394, Note_on_c, 0, 48, 0
2, 106468, Note_on_c, 0, 56, 51
2, 106572, Note_on_c, 0, 56, 0
2, 106644, Note_on_c, 0, 48, 50
2, 106716, Note_on_c, 0, 48, 0
2, 106852, Note_on_c, 0, 60, 46
2, 106903, Note_on_c, 0, 65, 83
2, 106924, Note_on_c, 0, 60, 0
2, 106927, Note_on_c, 0, 67, 0
2, 106956, Note_on_c, 0, 65, 0
2, 107056, Note_on_c, 0, 48, 57
2, 107102, Note_on_c, 0, 48, 0
2, 107253, Note_on_c, 0, 41, 50
2, 107256, Note_on_c, 0, 76, 113
2, 107256, Note_on_c, 0, 64, 110
2, 107332, Control_c, 0, 64, 0
2, 107452, Note_on_c, 0, 64, 0
2, 107457, Control_c, 0, 64, 127
2, 107496, Note_on_c, 0, 76, 0
2, 107505, Note_on_c, 0, 41, 0
2, 107560, Note_on_c, 0, 77, 116
2, 107563, Note_on_c, 0, 65, 110
2, 107599, Note_on_c, 0, 49, 65
2, 107654, Note_on_c, 0, 49, 0
2, 107654, Note_on_c, 0, 65, 0
2, 107688, Note_on_c, 0, 77, 0
2, 107769, Note_on_c, 0, 79, 114
2, 107774, Note_on_c, 0, 67, 107
2, 107796, Note_on_c, 0, 58, 62
2, 107846, Note_on_c, 0, 67, 0
2, 107868, Note_on_c, 0, 79, 0
2, 107978, Note_on_c, 0, 80, 111
2, 107980, Note_on_c, 0, 68, 107
2, 107985, Note_on_c, 0, 58, 0
2, 107992, Note_on_c, 0, 49, 55
2, 108067, Note_on_c, 0, 68, 0
2, 108124, Note_on_c, 0, 80, 0
2, 108165, Note_on_c, 0, 49, 0
2, 108259, Note_on_c, 0, 82, 115
2, 108264, Note_on_c, 0, 70, 105
2, 108300, Note_on_c, 0, 61, 52
2, 108432, Note_on_c, 0, 70, 0
2, 108444, Note_on_c, 0, 82, 0
2, 108504, Note_on_c, 0, 61, 0
2, 108568, Note_on_c, 0, 80, 105
2, 108576, Note_on_c, 0, 68, 96
2, 108597, Note_on_c, 0, 49, 47
2, 108681, Note_on_c, 0, 49, 0
2, 108787, Note_on_c, 0, 80, 0
2, 108820, Note_on_c, 0, 68, 0
2, 108957, Note_on_c, 0, 65, 92
2, 108960, Note_on_c, 0, 77, 96
2, 108986, Note_on_c, 0, 41, 47
2, 109039, Control_c, 0, 64, 0
2, 109255, Control_c, 0, 64, 127
2, 109320, Note_on_c, 0, 41, 0
2, 109329, Note_on_c, 0, 48, 39
2, 109399, Note_on_c, 0, 48, 0
2, 109516, Note_on_c, 0, 56, 37
2, 109689, Note_on_c, 0, 56, 0
2, 109718, Note_on_c, 0, 48, 48
2, 109800, Note_on_c, 0, 48, 0
2, 109929, Note_on_c, 0, 60, 48
2, 109994, Note_on_c, 0, 60, 0
2, 110006, Note_on_c, 0, 77, 0
2, 110138, Note_on_c, 0, 48, 51
2, 110184, Note_on_c, 0, 48, 0
2, 110347, Note_on_c, 0, 64, 70
2, 110354, Note_on_c, 0, 41, 49
2, 110385, Note_on_c, 0, 65, 0
2, 110392, Control_c, 0, 64, 0
2, 110568, Note_on_c, 0, 41, 0
2, 110575, Control_c, 0, 64, 127
2, 110596, Note_on_c, 0, 65, 64
2, 110601, Note_on_c, 0, 49, 49
2, 110611, Note_on_c, 0, 64, 0
2, 110661, Note_on_c, 0, 49, 0
2, 110791, Note_on_c, 0, 67, 65
2, 110805, Note_on_c, 0, 58, 57
2, 110810, Note_on_c, 0, 65, 0
2, 110940, Note_on_c, 0, 58, 0
2, 111004, Note_on_c, 0, 68, 61
2, 111019, Note_on_c, 0, 67, 0
2, 111028, Note_on_c, 0, 49, 38
2, 111297, Control_c, 0, 64, 0
2, 111302, Note_on_c, 0, 70, 52
2, 111319, Note_on_c, 0, 68, 0
2, 111324, Note_on_c, 0, 61, 32
2, 111408, Note_on_c, 0, 49, 0
2, 111436, Control_c, 0, 64, 127
2, 111516, Note_on_c, 0, 61, 0
2, 111633, Note_on_c, 0, 49, 20
2, 111732, Note_on_c, 0, 68, 38
2, 111741, Note_on_c, 0, 70, 0
2, 111744, Note_on_c, 0, 49, 0
2, 111890, Note_on_c, 0, 68, 0
2, 112032, Note_on_c, 0, 41, 25
2, 112080, Note_on_c, 0, 68, 38
2, 112144, Control_c, 0, 64, 0
2, 112197, Note_on_c, 0, 65, 43
2, 112257, Note_on_c, 0, 68, 0
2, 112420, Control_c, 0, 64, 127
2, 112423, Note_on_c, 0, 48, 38
2, 112437, Note_on_c, 0, 41, 0
2, 112497, Note_on_c, 0, 48, 0
2, 112634, Note_on_c, 0, 56, 33
2, 112704, Note_on_c, 0, 56, 0
2, 112780, Note_on_c, 0, 65, 0
2, 112848, Note_on_c, 0, 48, 32
2, 112912, Note_on_c, 0, 48, 0
2, 113076, Note_on_c, 0, 60, 31
2, 113160, Note_on_c, 0, 60, 0
2, 113332, Note_on_c, 0, 48, 23
2, 113412, Note_on_c, 0, 48, 0
2, 113752, Note_on_c, 0, 94, 30
2, 113762, Note_on_c, 0, 41, 12
2, 113913, Note_on_c, 0, 41, 0
2, 113949, Note_on_c, 0, 94, 0
2, 114031, Note_on_c, 0, 84, 8
2, 114146, Note_on_c, 0, 84, 0
2, 114216, Note_on_c, 0, 92, 33
2, 114355, Note_on_c, 0, 92, 0
2, 114415, Note_on_c, 0, 84, 39
2, 114508, Note_on_c, 0, 84, 0
2, 114559, Note_on_c, 0, 94, 54
2, 114580, Note_on_c, 0, 85, 44
2, 114652, Note_on_c, 0, 85, 0
2, 114720, Note_on_c, 0, 94, 0
2, 114753, Note_on_c, 0, 77, 46
2, 114756, Note_on_c, 0, 84, 36
2, 114808, Note_on_c, 0, 77, 0
2, 114844, Note_on_c, 0, 84, 0
2, 114892, Note_on_c, 0, 92, 44
2, 114907, Note_on_c, 0, 85, 48
2, 114967, Note_on_c, 0, 85, 0
2, 115008, Note_on_c, 0, 92, 0
2, 115053, Note_on_c, 0, 84, 49
2, 115060, Note_on_c, 0, 77, 46
2, 115120, Note_on_c, 0, 77, 0
2, 115137, Note_on_c, 0, 84, 0
2, 115183, Note_on_c, 0, 94, 64
2, 115195, Note_on_c, 0, 85, 63
2, 115255, Note_on_c, 0, 85, 0
2, 115305, Note_on_c, 0, 94, 0
2, 115344, Note_on_c, 0, 84, 52
2, 115370, Note_on_c, 0, 77, 44
2, 115435, Note_on_c, 0, 77, 0
2, 115440, Note_on_c, 0, 84, 0
2, 115504, Note_on_c, 0, 92, 56
2, 115517, Note_on_c, 0, 85, 51
2, 115574, Note_on_c, 0, 92, 0
2, 115579, Note_on_c, 0, 85, 0
2, 115653, Note_on_c, 0, 84, 52
2, 115665, Note_on_c, 0, 77, 19
2, 115711, Note_on_c, 0, 84, 0
2, 115742, Note_on_c, 0, 77, 0
2, 115788, Note_on_c, 0, 82, 61
2, 115828, Note_on_c, 0, 91, 47
2, 115864, Note_on_c, 0, 82, 0
2, 115910, Note_on_c, 0, 91, 0
2, 115939, Note_on_c, 0, 80, 62
2, 115984, Note_on_c, 0, 77, 46
2, 116008, Note_on_c, 0, 80, 0
2, 116047, Note_on_c, 0, 77, 0
2, 116114, Note_on_c, 0, 89, 54
2, 116119, Note_on_c, 0, 82, 57
2, 116181, Note_on_c, 0, 89, 0
2, 116186, Note_on_c, 0, 82, 0
2, 116241, Note_on_c, 0, 80, 52
2, 116292, Note_on_c, 0, 77, 31
2, 116335, Note_on_c, 0, 80, 0
2, 116361, Note_on_c, 0, 77, 0
2, 116407, Note_on_c, 0, 82, 51
2, 116416, Note_on_c, 0, 91, 54
2, 116476, Note_on_c, 0, 82, 0
2, 116481, Note_on_c, 0, 91, 0
2, 116553, Note_on_c, 0, 77, 48
2, 116556, Note_on_c, 0, 80, 52
2, 116632, Note_on_c, 0, 77, 0
2, 116688, Note_on_c, 0, 80, 0
2, 116711, Note_on_c, 0, 89, 54
2, 116721, Note_on_c, 0, 82, 53
2, 116776, Note_on_c, 0, 89, 0
2, 116817, Note_on_c, 0, 82, 0
2, 116906, Note_on_c, 0, 80, 41
2, 116937, Note_on_c, 0, 77, 39
2, 116995, Note_on_c, 0, 80, 0
2, 117026, Note_on_c, 0, 77, 0
2, 117115, Note_on_c, 0, 91, 41
2, 117146, Note_on_c, 0, 82, 32
2, 117237, Note_on_c, 0, 82, 0
2, 117237, Note_on_c, 0, 91, 0
2, 117300, Note_on_c, 0, 80, 41
2, 117338, Note_on_c, 0, 77, 34
2, 117424, Note_on_c, 0, 77, 0
2, 117475, Note_on_c, 0, 80, 0
2, 117573, Note_on_c, 0, 89, 40
2, 117573, Note_on_c, 0, 82, 41
2, 117672, Note_on_c, 0, 82, 0
2, 117861, Note_on_c, 0, 89, 0
2, 117916, Note_on_c, 0, 80, 39
2, 117928, Note_on_c, 0, 77, 37
2, 117981, Note_on_c, 0, 77, 0
2, 117993, Note_on_c, 0, 80, 0
2, 118622, Note_on_c, 0, 101, 44
2, 118636, Note_on_c, 0, 65, 32
2, 118723, Note_on_c, 0, 65, 0
2, 118788, Note_on_c, 0, 101, 0
2, 120580, Control_c, 0, 64, 0
2, 120580, End_track
0, 0, End_of_file
