0, 0, Header, 1, 2, 120
1, 0, Start_track
1, 0, Time_signature, 4, 2, 24, 8
1, 0, Key_signature, 4, "major"
1, 0, Tempo, 500000
1, 0, End_track
2, 0, Start_track
2, 0, MIDI_port, 0
2, 0, Title_t, "  "
2, 0, Note_on_c, 0, 59, 65
2, 3, Note_on_c, 0, 52, 54
2, 6, Note_on_c, 0, 56, 52
2, 7, Note_on_c, 0, 40, 44
2, 16, Control_c, 0, 64, 127
2, 136, Note_on_c, 0, 47, 29
2, 167, Note_on_c, 0, 52, 0
2, 183, Note_on_c, 0, 56, 0
2, 246, Note_on_c, 0, 56, 55
2, 249, Note_on_c, 0, 52, 54
2, 253, Note_on_c, 0, 47, 0
2, 308, Note_on_c, 0, 59, 0
2, 310, Note_on_c, 0, 52, 0
2, 322, Note_on_c, 0, 56, 0
2, 339, Note_on_c, 0, 51, 79
2, 340, Note_on_c, 0, 59, 60
2, 343, Note_on_c, 0, 54, 55
2, 349, Note_on_c, 0, 35, 46
2, 366, Control_c, 0, 64, 0
2, 371, Note_on_c, 0, 40, 0
2, 442, Note_on_c, 0, 47, 47
2, 447, Control_c, 0, 64, 127
2, 495, Note_on_c, 0, 54, 0
2, 499, Note_on_c, 0, 51, 0
2, 528, Note_on_c, 0, 47, 0
2, 544, Note_on_c, 0, 54, 63
2, 547, Note_on_c, 0, 51, 56
2, 568, Note_on_c, 0, 59, 0
2, 604, Note_on_c, 0, 59, 78
2, 611, Note_on_c, 0, 51, 0
2, 622, Note_on_c, 0, 59, 0
2, 645, Note_on_c, 0, 59, 72
2, 651, Note_on_c, 0, 54, 0
2, 654, Note_on_c, 0, 40, 63
2, 654, Note_on_c, 0, 52, 49
2, 663, Note_on_c, 0, 56, 40
2, 681, Control_c, 0, 64, 0
2, 693, Note_on_c, 0, 35, 0
2, 758, Control_c, 0, 64, 127
2, 758, Note_on_c, 0, 47, 55
2, 780, Note_on_c, 0, 52, 0
2, 795, Note_on_c, 0, 56, 0
2, 824, Note_on_c, 0, 47, 0
2, 865, Note_on_c, 0, 56, 69
2, 870, Note_on_c, 0, 52, 55
2, 877, Note_on_c, 0, 59, 0
2, 891, Note_on_c, 0, 52, 0
2, 901, Note_on_c, 0, 56, 0
2, 954, Note_on_c, 0, 61, 86
2, 955, Note_on_c, 0, 40, 0
2, 958, Note_on_c, 0, 45, 90
2, 961, Note_on_c, 0, 52, 49
2, 963, Note_on_c, 0, 57, 42
2, 978, Note_on_c, 0, 52, 0
2, 996, Control_c, 0, 64, 0
2, 1042, Note_on_c, 0, 49, 72
2, 1046, Note_on_c, 0, 57, 0
2, 1065, Control_c, 0, 64, 127
2, 1115, Note_on_c, 0, 49, 0
2, 1138, Note_on_c, 0, 57, 58
2, 1141, Note_on_c, 0, 52, 42
2, 1152, Note_on_c, 0, 61, 0
2, 1153, Note_on_c, 0, 57, 0
2, 1158, Note_on_c, 0, 52, 0
2, 1180, Note_on_c, 0, 44, 86
2, 1203, Note_on_c, 0, 45, 0
2, 1224, Note_on_c, 0, 61, 85
2, 1229, Note_on_c, 0, 54, 54
2, 1230, Note_on_c, 0, 57, 55
2, 1235, Note_on_c, 0, 42, 85
2, 1246, Note_on_c, 0, 44, 0
2, 1246, Control_c, 0, 64, 0
2, 1339, Note_on_c, 0, 49, 60
2, 1351, Note_on_c, 0, 57, 0
2, 1356, Note_on_c, 0, 54, 0
2, 1357, Control_c, 0, 64, 127
2, 1444, Note_on_c, 0, 49, 0
2, 1445, Note_on_c, 0, 57, 59
2, 1445, Note_on_c, 0, 54, 43
2, 1478, Note_on_c, 0, 54, 0
2, 1481, Note_on_c, 0, 57, 0
2, 1486, Note_on_c, 0, 61, 0
2, 1531, Note_on_c, 0, 63, 91
2, 1539, Note_on_c, 0, 54, 56
2, 1554, Note_on_c, 0, 54, 0
2, 1561, Note_on_c, 0, 57, 10
2, 1585, Note_on_c, 0, 54, 14
2, 1597, Note_on_c, 0, 63, 0
2, 1606, Note_on_c, 0, 54, 0
2, 1623, Note_on_c, 0, 57, 0
2, 1639, Note_on_c, 0, 49, 58
2, 1682, Note_on_c, 0, 49, 0
2, 1731, Note_on_c, 0, 54, 50
2, 1732, Note_on_c, 0, 57, 60
2, 1746, Note_on_c, 0, 54, 0
2, 1768, Note_on_c, 0, 63, 86
2, 1801, Note_on_c, 0, 63, 0
2, 1840, Note_on_c, 0, 63, 78
2, 1841, Note_on_c, 0, 54, 51
2, 1846, Note_on_c, 0, 35, 58
2, 1846, Note_on_c, 0, 59, 40
2, 1852, Note_on_c, 0, 57, 0
2, 1884, Note_on_c, 0, 42, 0
2, 1911, Control_c, 0, 64, 0
2, 1944, Note_on_c, 0, 51, 64
2, 1949, Note_on_c, 0, 54, 0
2, 1988, Note_on_c, 0, 59, 0
2, 1999, Control_c, 0, 64, 127
2, 2060, Note_on_c, 0, 54, 50
2, 2062, Note_on_c, 0, 59, 56
2, 2069, Note_on_c, 0, 51, 0
2, 2089, Note_on_c, 0, 63, 0
2, 2107, Note_on_c, 0, 59, 0
2, 2108, Note_on_c, 0, 54, 0
2, 2182, Note_on_c, 0, 63, 70
2, 2185, Note_on_c, 0, 47, 56
2, 2189, Note_on_c, 0, 56, 47
2, 2190, Note_on_c, 0, 59, 44
2, 2226, Control_c, 0, 64, 0
2, 2227, Note_on_c, 0, 35, 0
2, 2287, Control_c, 0, 64, 127
2, 2295, Note_on_c, 0, 51, 58
2, 2298, Note_on_c, 0, 59, 0
2, 2315, Note_on_c, 0, 56, 0
2, 2340, Note_on_c, 0, 51, 0
2, 2381, Note_on_c, 0, 47, 0
2, 2389, Note_on_c, 0, 56, 55
2, 2389, Note_on_c, 0, 59, 54
2, 2430, Note_on_c, 0, 47, 74
2, 2431, Note_on_c, 0, 59, 0
2, 2435, Note_on_c, 0, 56, 0
2, 2449, Note_on_c, 0, 63, 0
2, 2481, Note_on_c, 0, 64, 90
2, 2484, Note_on_c, 0, 56, 50
2, 2490, Note_on_c, 0, 59, 53
2, 2494, Note_on_c, 0, 37, 78
2, 2502, Note_on_c, 0, 47, 0
2, 2506, Control_c, 0, 64, 0
2, 2588, Note_on_c, 0, 52, 70
2, 2630, Note_on_c, 0, 56, 0
2, 2644, Control_c, 0, 64, 127
2, 2645, Note_on_c, 0, 59, 0
2, 2686, Note_on_c, 0, 59, 75
2, 2689, Note_on_c, 0, 56, 68
2, 2706, Note_on_c, 0, 52, 0
2, 2724, Note_on_c, 0, 56, 0
2, 2730, Note_on_c, 0, 64, 0
2, 2790, Note_on_c, 0, 64, 92
2, 2790, Note_on_c, 0, 54, 48
2, 2791, Note_on_c, 0, 61, 56
2, 2798, Note_on_c, 0, 59, 0
2, 2801, Note_on_c, 0, 45, 87
2, 2816, Note_on_c, 0, 37, 0
2, 2833, Control_c, 0, 64, 0
2, 2890, Note_on_c, 0, 52, 76
2, 2907, Note_on_c, 0, 54, 0
2, 2919, Note_on_c, 0, 61, 0
2, 2940, Control_c, 0, 64, 127
2, 2966, Note_on_c, 0, 52, 0
2, 2968, Note_on_c, 0, 54, 64
2, 2970, Note_on_c, 0, 61, 73
2, 2979, Note_on_c, 0, 64, 0
2, 2994, Note_on_c, 0, 45, 0
2, 3005, Note_on_c, 0, 64, 86
2, 3027, Note_on_c, 0, 54, 0
2, 3043, Note_on_c, 0, 45, 91
2, 3045, Note_on_c, 0, 64, 0
2, 3090, Note_on_c, 0, 64, 88
2, 3093, Note_on_c, 0, 54, 55
2, 3096, Note_on_c, 0, 59, 48
2, 3107, Note_on_c, 0, 61, 0
2, 3109, Note_on_c, 0, 45, 0
2, 3112, Note_on_c, 0, 35, 83
2, 3125, Control_c, 0, 64, 0
2, 3205, Note_on_c, 0, 52, 63
2, 3216, Note_on_c, 0, 54, 0
2, 3247, Note_on_c, 0, 59, 0
2, 3247, Control_c, 0, 64, 127
2, 3298, Note_on_c, 0, 54, 59
2, 3303, Note_on_c, 0, 59, 54
2, 3314, Note_on_c, 0, 52, 0
2, 3316, Note_on_c, 0, 35, 0
2, 3338, Note_on_c, 0, 34, 73
2, 3346, Note_on_c, 0, 64, 0
2, 3349, Note_on_c, 0, 54, 0
2, 3357, Note_on_c, 0, 59, 0
2, 3364, Note_on_c, 0, 35, 61
2, 3367, Note_on_c, 0, 34, 0
2, 3381, Note_on_c, 0, 59, 39
2, 3384, Note_on_c, 0, 63, 88
2, 3389, Note_on_c, 0, 35, 0
2, 3390, Note_on_c, 0, 37, 67
2, 3391, Note_on_c, 0, 54, 41
2, 3409, Note_on_c, 0, 37, 0
2, 3411, Note_on_c, 0, 35, 58
2, 3432, Note_on_c, 0, 35, 0
2, 3432, Note_on_c, 0, 37, 60
2, 3444, Control_c, 0, 64, 0
2, 3455, Note_on_c, 0, 37, 0
2, 3456, Note_on_c, 0, 35, 60
2, 3472, Note_on_c, 0, 37, 70
2, 3476, Note_on_c, 0, 35, 0
2, 3476, Note_on_c, 0, 51, 87
2, 3482, Note_on_c, 0, 59, 0
2, 3482, Control_c, 0, 64, 127
2, 3483, Note_on_c, 0, 54, 0
2, 3498, Note_on_c, 0, 37, 0
2, 3499, Note_on_c, 0, 35, 55
2, 3517, Note_on_c, 0, 37, 76
2, 3522, Note_on_c, 0, 35, 0
2, 3539, Note_on_c, 0, 37, 0
2, 3543, Note_on_c, 0, 51, 0
2, 3549, Note_on_c, 0, 35, 48
2, 3556, Note_on_c, 0, 54, 65
2, 3558, Note_on_c, 0, 37, 66
2, 3558, Note_on_c, 0, 59, 80
2, 3561, Note_on_c, 0, 35, 0
2, 3574, Note_on_c, 0, 63, 0
2, 3582, Note_on_c, 0, 37, 0
2, 3582, Note_on_c, 0, 35, 65
2, 3609, Note_on_c, 0, 34, 84
2, 3612, Note_on_c, 0, 35, 0
2, 3612, Note_on_c, 0, 63, 90
2, 3613, Note_on_c, 0, 54, 0
2, 3633, Note_on_c, 0, 59, 0
2, 3643, Note_on_c, 0, 35, 66
2, 3652, Note_on_c, 0, 63, 0
2, 3658, Note_on_c, 0, 34, 0
2, 3677, Note_on_c, 0, 63, 65
2, 3682, Note_on_c, 0, 56, 62
2, 3684, Note_on_c, 0, 59, 57
2, 3685, Note_on_c, 0, 37, 83
2, 3693, Note_on_c, 0, 35, 0
2, 3701, Control_c, 0, 64, 0
2, 3774, Note_on_c, 0, 52, 81
2, 3793, Control_c, 0, 64, 127
2, 3802, Note_on_c, 0, 56, 0
2, 3805, Note_on_c, 0, 59, 0
2, 3867, Note_on_c, 0, 59, 79
2, 3867, Note_on_c, 0, 56, 67
2, 3902, Note_on_c, 0, 63, 0
2, 3920, Note_on_c, 0, 52, 0
2, 3924, Note_on_c, 0, 56, 0
2, 3958, Note_on_c, 0, 42, 75
2, 3959, Note_on_c, 0, 63, 86
2, 3960, Note_on_c, 0, 58, 71
2, 3966, Note_on_c, 0, 54, 47
2, 3976, Note_on_c, 0, 59, 0
2, 3982, Note_on_c, 0, 37, 0
2, 3993, Control_c, 0, 64, 0
2, 4012, Note_on_c, 0, 58, 0
2, 4064, Note_on_c, 0, 52, 75
2, 4066, Control_c, 0, 64, 127
2, 4071, Note_on_c, 0, 54, 0
2, 4137, Note_on_c, 0, 52, 0
2, 4165, Note_on_c, 0, 58, 61
2, 4167, Note_on_c, 0, 54, 52
2, 4196, Note_on_c, 0, 42, 0
2, 4207, Note_on_c, 0, 54, 0
2, 4211, Note_on_c, 0, 61, 88
2, 4227, Note_on_c, 0, 63, 0
2, 4232, Note_on_c, 0, 58, 0
2, 4241, Note_on_c, 0, 42, 79
2, 4256, Note_on_c, 0, 61, 0
2, 4289, Note_on_c, 0, 61, 62
2, 4294, Note_on_c, 0, 54, 39
2, 4299, Note_on_c, 0, 57, 37
2, 4308, Note_on_c, 0, 39, 71
2, 4319, Note_on_c, 0, 42, 0
2, 4331, Control_c, 0, 64, 0
2, 4419, Note_on_c, 0, 49, 47
2, 4427, Control_c, 0, 64, 127
2, 4438, Note_on_c, 0, 57, 0
2, 4441, Note_on_c, 0, 54, 0
2, 4513, Note_on_c, 0, 57, 50
2, 4518, Note_on_c, 0, 54, 37
2, 4532, Note_on_c, 0, 49, 0
2, 4551, Note_on_c, 0, 39, 0
2, 4560, Note_on_c, 0, 38, 62
2, 4565, Note_on_c, 0, 54, 0
2, 4566, Note_on_c, 0, 61, 0
2, 4567, Note_on_c, 0, 57, 0
2, 4599, Note_on_c, 0, 39, 61
2, 4624, Note_on_c, 0, 61, 71
2, 4629, Note_on_c, 0, 54, 36
2, 4635, Note_on_c, 0, 38, 0
2, 4638, Note_on_c, 0, 39, 0
2, 4638, Note_on_c, 0, 57, 17
2, 4639, Note_on_c, 0, 40, 66
2, 4642, Control_c, 0, 64, 0
2, 4666, Note_on_c, 0, 39, 49
2, 4671, Note_on_c, 0, 40, 0
2, 4681, Control_c, 0, 64, 127
2, 4691, Note_on_c, 0, 39, 0
2, 4693, Note_on_c, 0, 57, 0
2, 4695, Note_on_c, 0, 40, 73
2, 4697, Note_on_c, 0, 61, 0
2, 4699, Note_on_c, 0, 54, 0
2, 4707, Note_on_c, 0, 40, 0
2, 4710, Note_on_c, 0, 39, 61
2, 4729, Note_on_c, 0, 47, 62
2, 4737, Note_on_c, 0, 40, 55
2, 4738, Note_on_c, 0, 39, 0
2, 4752, Note_on_c, 0, 40, 0
2, 4759, Note_on_c, 0, 39, 52
2, 4764, Note_on_c, 0, 47, 0
2, 4779, Note_on_c, 0, 40, 58
2, 4782, Note_on_c, 0, 39, 0
2, 4801, Note_on_c, 0, 39, 74
2, 4804, Note_on_c, 0, 40, 0
2, 4837, Note_on_c, 0, 37, 87
2, 4840, Note_on_c, 0, 39, 0
2, 4840, Note_on_c, 0, 57, 67
2, 4843, Note_on_c, 0, 54, 53
2, 4879, Note_on_c, 0, 57, 0
2, 4879, Note_on_c, 0, 39, 84
2, 4881, Note_on_c, 0, 54, 0
2, 4884, Note_on_c, 0, 37, 0
2, 4917, Note_on_c, 0, 39, 0
2, 4917, Note_on_c, 0, 59, 68
2, 4920, Note_on_c, 0, 40, 84
2, 4944, Note_on_c, 0, 59, 0
2, 4963, Note_on_c, 0, 42, 81
2, 4969, Note_on_c, 0, 40, 0
2, 5010, Note_on_c, 0, 59, 73
2, 5016, Note_on_c, 0, 56, 55
2, 5021, Note_on_c, 0, 42, 0
2, 5023, Note_on_c, 0, 52, 44
2, 5026, Note_on_c, 0, 40, 77
2, 5040, Note_on_c, 0, 52, 0
2, 5046, Control_c, 0, 64, 0
2, 5140, Note_on_c, 0, 47, 50
2, 5165, Control_c, 0, 64, 127
2, 5191, Note_on_c, 0, 56, 0
2, 5211, Note_on_c, 0, 47, 0
2, 5253, Note_on_c, 0, 56, 63
2, 5255, Note_on_c, 0, 52, 58
2, 5275, Note_on_c, 0, 52, 0
2, 5298, Note_on_c, 0, 59, 0
2, 5323, Note_on_c, 0, 56, 0
2, 5345, Note_on_c, 0, 59, 69
2, 5345, Note_on_c, 0, 51, 71
2, 5348, Note_on_c, 0, 40, 0
2, 5348, Note_on_c, 0, 35, 68
2, 5348, Note_on_c, 0, 54, 55
2, 5368, Control_c, 0, 64, 0
2, 5436, Note_on_c, 0, 47, 55
2, 5437, Control_c, 0, 64, 127
2, 5451, Note_on_c, 0, 51, 0
2, 5453, Note_on_c, 0, 54, 0
2, 5508, Note_on_c, 0, 47, 0
2, 5553, Note_on_c, 0, 54, 52
2, 5554, Note_on_c, 0, 51, 54
2, 5570, Note_on_c, 0, 59, 0
2, 5594, Note_on_c, 0, 51, 0
2, 5613, Note_on_c, 0, 59, 76
2, 5626, Note_on_c, 0, 54, 0
2, 5637, Note_on_c, 0, 59, 0
2, 5667, Note_on_c, 0, 59, 58
2, 5671, Note_on_c, 0, 31, 84
2, 5671, Note_on_c, 0, 50, 63
2, 5674, Note_on_c, 0, 55, 49
2, 5683, Control_c, 0, 64, 0
2, 5684, Note_on_c, 0, 35, 0
2, 5786, Note_on_c, 0, 47, 52
2, 5787, Control_c, 0, 64, 127
2, 5803, Note_on_c, 0, 50, 0
2, 5822, Note_on_c, 0, 55, 0
2, 5867, Note_on_c, 0, 47, 0
2, 5885, Note_on_c, 0, 55, 63
2, 5891, Note_on_c, 0, 50, 56
2, 5910, Note_on_c, 0, 59, 0
2, 5918, Note_on_c, 0, 50, 0
2, 5931, Note_on_c, 0, 55, 0
2, 5969, Note_on_c, 0, 59, 84
2, 5977, Note_on_c, 0, 55, 63
2, 5980, Note_on_c, 0, 43, 85
2, 5982, Note_on_c, 0, 50, 42
2, 5988, Note_on_c, 0, 31, 0
2, 6001, Note_on_c, 0, 50, 0
2, 6066, Note_on_c, 0, 47, 60
2, 6069, Note_on_c, 0, 55, 0
2, 6113, Note_on_c, 0, 47, 0
2, 6139, Note_on_c, 0, 59, 0
2, 6149, Note_on_c, 0, 50, 58
2, 6150, Note_on_c, 0, 55, 67
2, 6164, Note_on_c, 0, 50, 0
2, 6183, Note_on_c, 0, 59, 83
2, 6204, Note_on_c, 0, 55, 0
2, 6213, Note_on_c, 0, 41, 92
2, 6218, Note_on_c, 0, 59, 0
2, 6220, Note_on_c, 0, 43, 0
2, 6253, Note_on_c, 0, 60, 94
2, 6260, Note_on_c, 0, 55, 64
2, 6270, Note_on_c, 0, 40, 98
2, 6273, Note_on_c, 0, 41, 0
2, 6286, Control_c, 0, 64, 0
2, 6346, Note_on_c, 0, 48, 73
2, 6362, Note_on_c, 0, 55, 0
2, 6390, Control_c, 0, 64, 127
2, 6434, Note_on_c, 0, 48, 0
2, 6445, Note_on_c, 0, 55, 78
2, 6488, Note_on_c, 0, 55, 0
2, 6494, Note_on_c, 0, 60, 0
2, 6526, Note_on_c, 0, 62, 92
2, 6531, Note_on_c, 0, 55, 75
2, 6533, Note_on_c, 0, 38, 93
2, 6535, Note_on_c, 0, 58, 65
2, 6540, Note_on_c, 0, 40, 0
2, 6551, Note_on_c, 0, 58, 0
2, 6591, Note_on_c, 0, 58, 22
2, 6619, Note_on_c, 0, 50, 82
2, 6646, Note_on_c, 0, 58, 0
2, 6647, Note_on_c, 0, 55, 0
2, 6682, Control_c, 0, 64, 0
2, 6706, Note_on_c, 0, 58, 85
2, 6709, Note_on_c, 0, 55, 75
2, 6724, Control_c, 0, 64, 127
2, 6750, Note_on_c, 0, 50, 0
2, 6757, Note_on_c, 0, 55, 0
2, 6763, Note_on_c, 0, 58, 0
2, 6764, Note_on_c, 0, 62, 0
2, 6793, Note_on_c, 0, 64, 105
2, 6795, Note_on_c, 0, 36, 95
2, 6798, Note_on_c, 0, 58, 59
2, 6800, Note_on_c, 0, 55, 67
2, 6802, Note_on_c, 0, 38, 0
2, 6885, Note_on_c, 0, 52, 92
2, 6906, Note_on_c, 0, 55, 0
2, 6913, Control_c, 0, 64, 0
2, 6917, Note_on_c, 0, 58, 0
2, 6959, Control_c, 0, 64, 127
2, 6973, Note_on_c, 0, 58, 90
2, 6974, Note_on_c, 0, 55, 74
2, 6981, Note_on_c, 0, 52, 0
2, 6990, Note_on_c, 0, 64, 0
2, 7009, Note_on_c, 0, 36, 0
2, 7016, Note_on_c, 0, 55, 0
2, 7037, Note_on_c, 0, 58, 0
2, 7053, Note_on_c, 0, 64, 107
2, 7057, Note_on_c, 0, 36, 101
2, 7058, Note_on_c, 0, 48, 98
2, 7060, Note_on_c, 0, 55, 73
2, 7060, Note_on_c, 0, 60, 72
2, 7080, Note_on_c, 0, 36, 0
2, 7083, Note_on_c, 0, 48, 0
2, 7102, Note_on_c, 0, 60, 0
2, 7135, Note_on_c, 0, 55, 0
2, 7146, Note_on_c, 0, 52, 89
2, 7192, Note_on_c, 0, 52, 0
2, 7206, Note_on_c, 0, 64, 0
2, 7219, Note_on_c, 0, 60, 87
2, 7220, Note_on_c, 0, 55, 83
2, 7238, Note_on_c, 0, 55, 0
2, 7257, Note_on_c, 0, 64, 100
2, 7272, Note_on_c, 0, 60, 0
2, 7273, Note_on_c, 0, 46, 111
2, 7274, Note_on_c, 0, 34, 106
2, 7280, Note_on_c, 0, 64, 0
2, 7287, Note_on_c, 0, 46, 0
2, 7288, Note_on_c, 0, 34, 0
2, 7301, Note_on_c, 0, 64, 93
2, 7306, Note_on_c, 0, 57, 81
2, 7310, Note_on_c, 0, 45, 112
2, 7310, Note_on_c, 0, 61, 79
2, 7311, Note_on_c, 0, 33, 110
2, 7336, Control_c, 0, 64, 0
2, 7398, Note_on_c, 0, 52, 88
2, 7421, Note_on_c, 0, 57, 0
2, 7427, Note_on_c, 0, 61, 0
2, 7435, Control_c, 0, 64, 127
2, 7489, Note_on_c, 0, 61, 83
2, 7489, Note_on_c, 0, 57, 78
2, 7494, Note_on_c, 0, 52, 0
2, 7532, Note_on_c, 0, 45, 0
2, 7532, Note_on_c, 0, 64, 0
2, 7538, Note_on_c, 0, 57, 0
2, 7540, Note_on_c, 0, 33, 0
2, 7553, Note_on_c, 0, 61, 0
2, 7579, Note_on_c, 0, 64, 108
2, 7579, Note_on_c, 0, 58, 100
2, 7584, Note_on_c, 0, 61, 72
2, 7585, Note_on_c, 0, 43, 103
2, 7586, Note_on_c, 0, 31, 109
2, 7654, Control_c, 0, 64, 0
2, 7675, Note_on_c, 0, 52, 87
2, 7700, Note_on_c, 0, 61, 0
2, 7707, Note_on_c, 0, 58, 0
2, 7712, Control_c, 0, 64, 127
2, 7741, Note_on_c, 0, 52, 0
2, 7758, Note_on_c, 0, 61, 90
2, 7758, Note_on_c, 0, 58, 90
2, 7762, Note_on_c, 0, 64, 0
2, 7763, Note_on_c, 0, 43, 0
2, 7768, Note_on_c, 0, 31, 0
2, 7786, Note_on_c, 0, 61, 0
2, 7793, Note_on_c, 0, 58, 0
2, 7797, Note_on_c, 0, 64, 105
2, 7833, Note_on_c, 0, 43, 107
2, 7833, Note_on_c, 0, 31, 110
2, 7837, Note_on_c, 0, 64, 0
2, 7848, Note_on_c, 0, 31, 0
2, 7854, Note_on_c, 0, 43, 0
2, 7860, Note_on_c, 0, 65, 106
2, 7863, Note_on_c, 0, 58, 90
2, 7869, Note_on_c, 0, 61, 69
2, 7870, Note_on_c, 0, 41, 105
2, 7871, Note_on_c, 0, 29, 109
2, 7893, Control_c, 0, 64, 0
2, 7958, Note_on_c, 0, 53, 90
2, 7984, Note_on_c, 0, 61, 0
2, 7985, Control_c, 0, 64, 127
2, 7989, Note_on_c, 0, 58, 0
2, 8046, Note_on_c, 0, 61, 90
2, 8047, Note_on_c, 0, 58, 92
2, 8064, Note_on_c, 0, 53, 0
2, 8095, Note_on_c, 0, 41, 0
2, 8104, Note_on_c, 0, 65, 0
2, 8104, Note_on_c, 0, 58, 0
2, 8108, Note_on_c, 0, 29, 0
2, 8109, Note_on_c, 0, 61, 0
2, 8133, Note_on_c, 0, 67, 117
2, 8138, Note_on_c, 0, 28, 112
2, 8138, Note_on_c, 0, 40, 107
2, 8139, Note_on_c, 0, 58, 95
2, 8142, Note_on_c, 0, 61, 48
2, 8177, Control_c, 0, 64, 0
2, 8236, Note_on_c, 0, 55, 95
2, 8238, Control_c, 0, 64, 127
2, 8246, Note_on_c, 0, 61, 0
2, 8247, Note_on_c, 0, 58, 0
2, 8328, Note_on_c, 0, 40, 0
2, 8338, Note_on_c, 0, 55, 0
2, 8338, Note_on_c, 0, 61, 93
2, 8338, Note_on_c, 0, 58, 94
2, 8345, Note_on_c, 0, 28, 0
2, 8356, Note_on_c, 0, 67, 0
2, 8371, Note_on_c, 0, 58, 0
2, 8403, Note_on_c, 0, 61, 0
2, 8461, Note_on_c, 0, 27, 104
2, 8461, Note_on_c, 0, 68, 111
2, 8461, Note_on_c, 0, 39, 103
2, 8463, Note_on_c, 0, 56, 95
2, 8465, Note_on_c, 0, 60, 87
2, 8473, Control_c, 0, 64, 0
2, 8546, Control_c, 0, 64, 127
2, 8566, Note_on_c, 0, 68, 0
2, 8567, Note_on_c, 0, 60, 0
2, 8571, Note_on_c, 0, 56, 0
2, 8606, Note_on_c, 0, 51, 100
2, 8703, Note_on_c, 0, 51, 0
2, 8725, Note_on_c, 0, 63, 102
2, 8733, Note_on_c, 0, 56, 68
2, 8734, Note_on_c, 0, 60, 71
2, 8780, Note_on_c, 0, 60, 0
2, 8802, Note_on_c, 0, 56, 0
2, 8808, Note_on_c, 0, 63, 0
2, 8827, Note_on_c, 0, 63, 83
2, 8832, Note_on_c, 0, 60, 81
2, 8835, Note_on_c, 0, 55, 74
2, 8869, Control_c, 0, 64, 0
2, 8922, Note_on_c, 0, 51, 81
2, 8930, Control_c, 0, 64, 127
2, 8940, Note_on_c, 0, 55, 0
2, 9029, Note_on_c, 0, 51, 0
2, 9031, Note_on_c, 0, 60, 0
2, 9037, Note_on_c, 0, 58, 79
2, 9041, Note_on_c, 0, 55, 69
2, 9052, Note_on_c, 0, 63, 0
2, 9059, Note_on_c, 0, 55, 0
2, 9085, Note_on_c, 0, 58, 0
2, 9097, Note_on_c, 0, 61, 89
2, 9133, Note_on_c, 0, 61, 0
2, 9163, Note_on_c, 0, 60, 94
2, 9166, Note_on_c, 0, 32, 67
2, 9167, Note_on_c, 0, 56, 65
2, 9184, Control_c, 0, 64, 0
2, 9190, Note_on_c, 0, 27, 0
2, 9219, Note_on_c, 0, 39, 0
2, 9261, Control_c, 0, 64, 127
2, 9264, Note_on_c, 0, 51, 74
2, 9281, Note_on_c, 0, 56, 0
2, 9350, Note_on_c, 0, 51, 0
2, 9386, Note_on_c, 0, 56, 59
2, 9396, Note_on_c, 0, 60, 0
2, 9401, Note_on_c, 0, 56, 0
2, 9453, Note_on_c, 0, 59, 72
2, 9480, Note_on_c, 0, 59, 0
2, 9522, Note_on_c, 0, 59, 66
2, 9531, Note_on_c, 0, 35, 36
2, 9531, Note_on_c, 0, 51, 41
2, 9532, Note_on_c, 0, 56, 48
2, 9543, Note_on_c, 0, 32, 0
2, 9549, Control_c, 0, 64, 0
2, 9646, Note_on_c, 0, 47, 46
2, 9660, Control_c, 0, 64, 127
2, 9681, Note_on_c, 0, 51, 0
2, 9712, Note_on_c, 0, 56, 0
2, 9713, Note_on_c, 0, 47, 0
2, 9823, Note_on_c, 0, 57, 34
2, 9824, Note_on_c, 0, 51, 23
2, 9856, Control_c, 0, 64, 0
2, 9897, Note_on_c, 0, 59, 0
2, 9902, Control_c, 0, 64, 127
2, 9943, Note_on_c, 0, 59, 38
2, 9966, Note_on_c, 0, 35, 0
2, 9968, Note_on_c, 0, 51, 0
2, 9976, Note_on_c, 0, 59, 0
2, 9978, Note_on_c, 0, 57, 0
2, 10068, Note_on_c, 0, 59, 45
2, 10071, Note_on_c, 0, 56, 40
2, 10072, Note_on_c, 0, 52, 38
2, 10075, Note_on_c, 0, 40, 25
2, 10077, Note_on_c, 0, 28, 30
2, 10094, Control_c, 0, 64, 0
2, 10182, Control_c, 0, 64, 127
2, 10203, Note_on_c, 0, 47, 27
2, 10218, Note_on_c, 0, 56, 0
2, 10224, Note_on_c, 0, 52, 0
2, 10265, Note_on_c, 0, 47, 0
2, 10320, Note_on_c, 0, 56, 30
2, 10339, Note_on_c, 0, 52, 10
2, 10355, Note_on_c, 0, 59, 0
2, 10358, Note_on_c, 0, 52, 0
2, 10369, Note_on_c, 0, 56, 0
2, 10403, Note_on_c, 0, 40, 0
2, 10416, Note_on_c, 0, 59, 49
2, 10419, Note_on_c, 0, 51, 43
2, 10423, Note_on_c, 0, 35, 25
2, 10425, Note_on_c, 0, 54, 34
2, 10436, Control_c, 0, 64, 0
2, 10449, Note_on_c, 0, 28, 0
2, 10505, Control_c, 0, 64, 127
2, 10521, Note_on_c, 0, 47, 33
2, 10531, Note_on_c, 0, 54, 0
2, 10540, Note_on_c, 0, 51, 0
2, 10568, Note_on_c, 0, 47, 0
2, 10614, Note_on_c, 0, 59, 0
2, 10624, Note_on_c, 0, 54, 29
2, 10626, Note_on_c, 0, 51, 25
2, 10648, Note_on_c, 0, 54, 0
2, 10649, Note_on_c, 0, 51, 0
2, 10680, Note_on_c, 0, 59, 40
2, 10693, Note_on_c, 0, 59, 0
2, 10725, Note_on_c, 0, 59, 34
2, 10728, Note_on_c, 0, 35, 0
2, 10734, Note_on_c, 0, 52, 31
2, 10735, Note_on_c, 0, 56, 36
2, 10738, Note_on_c, 0, 40, 38
2, 10755, Control_c, 0, 64, 0
2, 10820, Control_c, 0, 64, 127
2, 10842, Note_on_c, 0, 47, 22
2, 10861, Note_on_c, 0, 52, 0
2, 10862, Note_on_c, 0, 56, 0
2, 10903, Note_on_c, 0, 47, 0
2, 10947, Note_on_c, 0, 56, 27
2, 10961, Note_on_c, 0, 52, 10
2, 10965, Note_on_c, 0, 59, 0
2, 10978, Note_on_c, 0, 40, 0
2, 10981, Note_on_c, 0, 52, 0
2, 10987, Note_on_c, 0, 56, 0
2, 11042, Note_on_c, 0, 60, 51
2, 11052, Note_on_c, 0, 52, 22
2, 11054, Note_on_c, 0, 45, 32
2, 11056, Note_on_c, 0, 33, 27
2, 11067, Note_on_c, 0, 57, 10
2, 11082, Control_c, 0, 64, 0
2, 11133, Note_on_c, 0, 57, 0
2, 11139, Control_c, 0, 64, 127
2, 11145, Note_on_c, 0, 48, 44
2, 11156, Note_on_c, 0, 52, 0
2, 11200, Note_on_c, 0, 48, 0
2, 11223, Note_on_c, 0, 45, 0
2, 11236, Note_on_c, 0, 33, 0
2, 11254, Note_on_c, 0, 57, 39
2, 11263, Note_on_c, 0, 52, 26
2, 11269, Note_on_c, 0, 60, 0
2, 11287, Note_on_c, 0, 52, 0
2, 11303, Note_on_c, 0, 57, 0
2, 11328, Note_on_c, 0, 33, 63
2, 11329, Note_on_c, 0, 45, 57
2, 11338, Note_on_c, 0, 33, 0
2, 11341, Note_on_c, 0, 45, 0
2, 11379, Note_on_c, 0, 60, 58
2, 11389, Note_on_c, 0, 53, 46
2, 11390, Note_on_c, 0, 29, 63
2, 11391, Note_on_c, 0, 41, 56
2, 11392, Note_on_c, 0, 57, 36
2, 11412, Control_c, 0, 64, 0
2, 11489, Control_c, 0, 64, 127
2, 11503, Note_on_c, 0, 48, 54
2, 11519, Note_on_c, 0, 53, 0
2, 11540, Note_on_c, 0, 57, 0
2, 11584, Note_on_c, 0, 48, 0
2, 11601, Note_on_c, 0, 41, 0
2, 11608, Note_on_c, 0, 57, 52
2, 11612, Note_on_c, 0, 53, 42
2, 11637, Note_on_c, 0, 60, 0
2, 11649, Note_on_c, 0, 53, 0
2, 11657, Note_on_c, 0, 29, 0
2, 11672, Note_on_c, 0, 57, 0
2, 11710, Note_on_c, 0, 60, 71
2, 11716, Note_on_c, 0, 24, 80
2, 11716, Note_on_c, 0, 52, 46
2, 11716, Note_on_c, 0, 36, 74
2, 11717, Note_on_c, 0, 55, 51
2, 11831, Note_on_c, 0, 48, 67
2, 11867, Note_on_c, 0, 55, 0
2, 11879, Note_on_c, 0, 52, 0
2, 11881, Control_c, 0, 64, 0
2, 11923, Control_c, 0, 64, 127
2, 11951, Note_on_c, 0, 48, 0
2, 11953, Note_on_c, 0, 55, 49
2, 11959, Note_on_c, 0, 52, 42
2, 11960, Note_on_c, 0, 60, 0
2, 11988, Note_on_c, 0, 24, 0
2, 11998, Note_on_c, 0, 60, 74
2, 12001, Note_on_c, 0, 52, 0
2, 12003, Note_on_c, 0, 36, 0
2, 12013, Note_on_c, 0, 60, 0
2, 12044, Note_on_c, 0, 60, 64
2, 12048, Note_on_c, 0, 29, 79
2, 12048, Note_on_c, 0, 57, 55
2, 12048, Note_on_c, 0, 41, 67
2, 12050, Note_on_c, 0, 53, 61
2, 12058, Note_on_c, 0, 55, 0
2, 12100, Control_c, 0, 64, 0
2, 12159, Note_on_c, 0, 48, 69
2, 12172, Control_c, 0, 64, 127
2, 12180, Control_c, 0, 64, 0
2, 12203, Note_on_c, 0, 53, 0
2, 12213, Note_on_c, 0, 57, 0
2, 12230, Control_c, 0, 64, 127
2, 12258, Note_on_c, 0, 57, 66
2, 12263, Note_on_c, 0, 53, 57
2, 12265, Note_on_c, 0, 48, 0
2, 12274, Note_on_c, 0, 29, 0
2, 12280, Note_on_c, 0, 41, 0
2, 12300, Note_on_c, 0, 57, 0
2, 12303, Note_on_c, 0, 53, 0
2, 12303, Note_on_c, 0, 60, 0
2, 12354, Note_on_c, 0, 62, 92
2, 12355, Note_on_c, 0, 46, 97
2, 12355, Note_on_c, 0, 58, 74
2, 12357, Note_on_c, 0, 34, 91
2, 12360, Note_on_c, 0, 53, 54
2, 12452, Note_on_c, 0, 50, 77
2, 12457, Control_c, 0, 64, 0
2, 12476, Note_on_c, 0, 53, 0
2, 12499, Note_on_c, 0, 58, 0
2, 12511, Control_c, 0, 64, 127
2, 12544, Note_on_c, 0, 46, 0
2, 12552, Note_on_c, 0, 50, 0
2, 12552, Note_on_c, 0, 58, 76
2, 12554, Note_on_c, 0, 53, 46
2, 12555, Note_on_c, 0, 34, 0
2, 12560, Note_on_c, 0, 62, 0
2, 12579, Note_on_c, 0, 53, 0
2, 12597, Note_on_c, 0, 58, 0
2, 12634, Note_on_c, 0, 62, 94
2, 12637, Note_on_c, 0, 46, 99
2, 12640, Note_on_c, 0, 34, 88
2, 12660, Note_on_c, 0, 62, 0
2, 12661, Note_on_c, 0, 46, 0
2, 12679, Note_on_c, 0, 34, 0
2, 12681, Note_on_c, 0, 62, 80
2, 12682, Note_on_c, 0, 43, 91
2, 12684, Note_on_c, 0, 31, 94
2, 12685, Note_on_c, 0, 58, 78
2, 12686, Note_on_c, 0, 55, 83
2, 12707, Control_c, 0, 64, 0
2, 12776, Control_c, 0, 64, 127
2, 12787, Note_on_c, 0, 50, 88
2, 12809, Note_on_c, 0, 55, 0
2, 12820, Note_on_c, 0, 58, 0
2, 12883, Note_on_c, 0, 58, 93
2, 12885, Note_on_c, 0, 55, 81
2, 12888, Note_on_c, 0, 43, 0
2, 12890, Note_on_c, 0, 50, 0
2, 12926, Note_on_c, 0, 62, 0
2, 12937, Note_on_c, 0, 31, 0
2, 12939, Note_on_c, 0, 55, 0
2, 12965, Note_on_c, 0, 58, 0
2, 12979, Note_on_c, 0, 54, 76
2, 12979, Note_on_c, 0, 62, 99
2, 12981, Note_on_c, 0, 57, 88
2, 12982, Note_on_c, 0, 38, 102
2, 12983, Note_on_c, 0, 26, 105
2, 13026, Control_c, 0, 64, 0
2, 13083, Note_on_c, 0, 50, 89
2, 13095, Control_c, 0, 64, 127
2, 13117, Note_on_c, 0, 54, 0
2, 13122, Note_on_c, 0, 57, 0
2, 13177, Note_on_c, 0, 50, 0
2, 13190, Note_on_c, 0, 54, 73
2, 13192, Note_on_c, 0, 57, 88
2, 13204, Note_on_c, 0, 62, 0
2, 13209, Note_on_c, 0, 26, 0
2, 13222, Note_on_c, 0, 54, 0
2, 13229, Note_on_c, 0, 57, 0
2, 13235, Note_on_c, 0, 38, 0
2, 13251, Note_on_c, 0, 62, 102
2, 13272, Note_on_c, 0, 62, 0
2, 13293, Note_on_c, 0, 62, 94
2, 13295, Note_on_c, 0, 43, 97
2, 13296, Note_on_c, 0, 31, 101
2, 13297, Note_on_c, 0, 55, 84
2, 13299, Note_on_c, 0, 59, 66
2, 13314, Control_c, 0, 64, 0
2, 13379, Control_c, 0, 64, 127
2, 13399, Note_on_c, 0, 50, 101
2, 13426, Note_on_c, 0, 55, 0
2, 13443, Note_on_c, 0, 59, 0
2, 13480, Note_on_c, 0, 50, 0
2, 13500, Note_on_c, 0, 59, 91
2, 13501, Note_on_c, 0, 55, 87
2, 13513, Note_on_c, 0, 31, 0
2, 13534, Note_on_c, 0, 62, 0
2, 13541, Note_on_c, 0, 43, 0
2, 13552, Note_on_c, 0, 55, 0
2, 13558, Note_on_c, 0, 59, 0
2, 13606, Note_on_c, 0, 63, 106
2, 13610, Note_on_c, 0, 59, 86
2, 13611, Note_on_c, 0, 54, 79
2, 13611, Note_on_c, 0, 47, 100
2, 13611, Note_on_c, 0, 35, 101
2, 13641, Control_c, 0, 64, 0
2, 13700, Note_on_c, 0, 59, 0
2, 13725, Control_c, 0, 64, 127
2, 13729, Note_on_c, 0, 51, 92
2, 13741, Note_on_c, 0, 54, 0
2, 13833, Note_on_c, 0, 51, 0
2, 13856, Note_on_c, 0, 59, 80
2, 13860, Note_on_c, 0, 54, 72
2, 13886, Note_on_c, 0, 47, 0
2, 13896, Note_on_c, 0, 54, 0
2, 13896, Note_on_c, 0, 35, 0
2, 13904, Note_on_c, 0, 59, 0
2, 13949, Note_on_c, 0, 63, 0
2, 13971, Note_on_c, 0, 47, 98
2, 13972, Note_on_c, 0, 35, 96
2, 13972, Note_on_c, 0, 64, 110
2, 13989, Note_on_c, 0, 47, 0
2, 13995, Note_on_c, 0, 35, 0
2, 14021, Note_on_c, 0, 64, 0
2, 14029, Note_on_c, 0, 28, 117
2, 14044, Note_on_c, 0, 64, 95
2, 14047, Note_on_c, 0, 59, 84
2, 14048, Note_on_c, 0, 56, 78
2, 14057, Note_on_c, 0, 40, 108
2, 14157, Note_on_c, 0, 52, 100
2, 14175, Control_c, 0, 64, 0
2, 14224, Note_on_c, 0, 59, 0
2, 14224, Control_c, 0, 64, 127
2, 14227, Note_on_c, 0, 56, 0
2, 14272, Note_on_c, 0, 56, 90
2, 14275, Note_on_c, 0, 59, 87
2, 14286, Note_on_c, 0, 52, 0
2, 14347, Note_on_c, 0, 64, 0
2, 14348, Note_on_c, 0, 59, 0
2, 14351, Note_on_c, 0, 56, 0
2, 14376, Note_on_c, 0, 64, 106
2, 14380, Note_on_c, 0, 35, 90
2, 14381, Note_on_c, 0, 56, 61
2, 14383, Note_on_c, 0, 59, 61
2, 14394, Note_on_c, 0, 59, 0
2, 14448, Note_on_c, 0, 56, 0
2, 14459, Note_on_c, 0, 40, 0
2, 14499, Note_on_c, 0, 52, 104
2, 14575, Note_on_c, 0, 52, 0
2, 14603, Note_on_c, 0, 28, 0
2, 14656, Note_on_c, 0, 59, 89
2, 14656, Note_on_c, 0, 56, 86
2, 14667, Note_on_c, 0, 64, 0
2, 14702, Note_on_c, 0, 56, 0
2, 14742, Note_on_c, 0, 59, 0
2, 14849, Note_on_c, 0, 64, 113
2, 14916, Note_on_c, 0, 64, 0
2, 14946, Note_on_c, 0, 64, 105
2, 14947, Note_on_c, 0, 56, 85
2, 14948, Note_on_c, 0, 52, 100
2, 14949, Note_on_c, 0, 59, 87
2, 14951, Note_on_c, 0, 40, 92
2, 14952, Note_on_c, 0, 28, 88
2, 15876, Note_on_c, 0, 52, 0
2, 15889, Note_on_c, 0, 59, 0
2, 15889, Note_on_c, 0, 35, 0
2, 15895, Note_on_c, 0, 40, 0
2, 15897, Note_on_c, 0, 28, 0
2, 15902, Note_on_c, 0, 56, 0
2, 15921, Note_on_c, 0, 64, 0
2, 15934, Control_c, 0, 64, 0
2, 15934, End_track
0, 0, End_of_file
