0, 0, Header, 1, 2, 480
1, 0, Start_track
1, 0, Time_signature, 4, 2, 24, 8
1, 0, Key_signature, 0, "major"
1, 0, Tempo, 500000
1, 0, End_track
2, 0, Start_track
2, 0, MIDI_port, 0
2, 0, Note_on_c, 0, 92, 49
2, 45, Note_on_c, 0, 92, 0
2, 52, Note_on_c, 0, 93, 77
2, 100, Note_on_c, 0, 93, 0
2, 120, Note_on_c, 0, 92, 56
2, 196, Note_on_c, 0, 93, 66
2, 199, Note_on_c, 0, 92, 0
2, 256, Note_on_c, 0, 93, 0
2, 280, Note_on_c, 0, 92, 71
2, 314, Note_on_c, 0, 49, 61
2, 326, Note_on_c, 0, 92, 0
2, 352, Note_on_c, 0, 91, 76
2, 362, Note_on_c, 0, 49, 0
2, 379, Note_on_c, 0, 56, 57
2, 398, Note_on_c, 0, 91, 0
2, 424, Control_c, 0, 64, 127
2, 424, Note_on_c, 0, 64, 84
2, 427, Note_on_c, 0, 92, 52
2, 441, Note_on_c, 0, 97, 83
2, 444, Note_on_c, 0, 56, 0
2, 470, Note_on_c, 0, 64, 0
2, 477, Note_on_c, 0, 92, 0
2, 523, Note_on_c, 0, 93, 44
2, 540, Note_on_c, 0, 97, 0
2, 566, Note_on_c, 0, 92, 65
2, 588, Note_on_c, 0, 93, 0
2, 612, Note_on_c, 0, 92, 0
2, 648, Note_on_c, 0, 88, 65
2, 705, Note_on_c, 0, 88, 0
2, 727, Note_on_c, 0, 87, 73
2, 801, Note_on_c, 0, 87, 0
2, 804, Note_on_c, 0, 85, 75
2, 825, Control_c, 0, 64, 0
2, 840, Note_on_c, 0, 92, 67
2, 844, Note_on_c, 0, 85, 0
2, 878, Note_on_c, 0, 87, 77
2, 912, Note_on_c, 0, 92, 0
2, 940, Note_on_c, 0, 85, 55
2, 986, Note_on_c, 0, 85, 0
2, 986, Note_on_c, 0, 87, 0
2, 1015, Note_on_c, 0, 81, 74
2, 1051, Note_on_c, 0, 42, 60
2, 1072, Note_on_c, 0, 81, 0
2, 1092, Note_on_c, 0, 80, 71
2, 1094, Note_on_c, 0, 42, 0
2, 1116, Note_on_c, 0, 49, 36
2, 1132, Control_c, 0, 64, 127
2, 1144, Note_on_c, 0, 80, 0
2, 1147, Note_on_c, 0, 57, 64
2, 1161, Note_on_c, 0, 78, 62
2, 1180, Note_on_c, 0, 49, 0
2, 1195, Note_on_c, 0, 85, 81
2, 1197, Note_on_c, 0, 57, 0
2, 1209, Note_on_c, 0, 78, 0
2, 1233, Note_on_c, 0, 80, 64
2, 1255, Control_c, 0, 64, 0
2, 1279, Note_on_c, 0, 78, 60
2, 1300, Note_on_c, 0, 85, 0
2, 1310, Note_on_c, 0, 80, 0
2, 1334, Note_on_c, 0, 78, 0
2, 1336, Note_on_c, 0, 49, 44
2, 1365, Note_on_c, 0, 76, 70
2, 1389, Note_on_c, 0, 49, 0
2, 1408, Note_on_c, 0, 76, 0
2, 1413, Note_on_c, 0, 56, 51
2, 1428, Note_on_c, 0, 75, 77
2, 1471, Note_on_c, 0, 64, 83
2, 1485, Control_c, 0, 64, 127
2, 1488, Note_on_c, 0, 73, 75
2, 1490, Note_on_c, 0, 75, 0
2, 1509, Note_on_c, 0, 64, 0
2, 1526, Note_on_c, 0, 80, 70
2, 1531, Note_on_c, 0, 73, 0
2, 1562, Note_on_c, 0, 75, 76
2, 1576, Control_c, 0, 64, 0
2, 1586, Note_on_c, 0, 56, 0
2, 1596, Note_on_c, 0, 80, 0
2, 1603, Note_on_c, 0, 73, 64
2, 1632, Note_on_c, 0, 75, 0
2, 1668, Note_on_c, 0, 73, 0
2, 1689, Note_on_c, 0, 69, 71
2, 1704, Note_on_c, 0, 42, 69
2, 1737, Note_on_c, 0, 49, 60
2, 1747, Note_on_c, 0, 69, 0
2, 1752, Note_on_c, 0, 42, 0
2, 1759, Note_on_c, 0, 68, 75
2, 1804, Note_on_c, 0, 57, 87
2, 1807, Control_c, 0, 64, 127
2, 1824, Note_on_c, 0, 68, 0
2, 1845, Note_on_c, 0, 66, 66
2, 1848, Note_on_c, 0, 57, 0
2, 1862, Note_on_c, 0, 73, 74
2, 1867, Note_on_c, 0, 49, 0
2, 1869, Control_c, 0, 64, 0
2, 1888, Note_on_c, 0, 66, 0
2, 1896, Note_on_c, 0, 68, 76
2, 1917, Note_on_c, 0, 73, 0
2, 1951, Note_on_c, 0, 66, 71
2, 1989, Note_on_c, 0, 68, 0
2, 2006, Note_on_c, 0, 66, 0
2, 2030, Note_on_c, 0, 37, 69
2, 2037, Note_on_c, 0, 64, 68
2, 2080, Note_on_c, 0, 37, 0
2, 2080, Note_on_c, 0, 44, 55
2, 2100, Control_c, 0, 64, 127
2, 2102, Note_on_c, 0, 63, 78
2, 2104, Note_on_c, 0, 64, 0
2, 2145, Note_on_c, 0, 52, 76
2, 2160, Note_on_c, 0, 44, 0
2, 2167, Note_on_c, 0, 61, 78
2, 2174, Note_on_c, 0, 63, 0
2, 2176, Control_c, 0, 64, 0
2, 2188, Note_on_c, 0, 52, 0
2, 2203, Note_on_c, 0, 68, 73
2, 2208, Note_on_c, 0, 61, 0
2, 2241, Note_on_c, 0, 63, 81
2, 2270, Note_on_c, 0, 68, 0
2, 2287, Note_on_c, 0, 61, 59
2, 2332, Note_on_c, 0, 63, 0
2, 2359, Note_on_c, 0, 59, 64
2, 2364, Note_on_c, 0, 61, 0
2, 2409, Note_on_c, 0, 59, 0
2, 2445, Note_on_c, 0, 57, 69
2, 2524, Note_on_c, 0, 57, 0
2, 2551, Note_on_c, 0, 56, 74
2, 2990, Note_on_c, 0, 44, 39
2, 2990, Note_on_c, 0, 51, 42
2, 2992, Note_on_c, 0, 60, 61
2, 3170, Note_on_c, 0, 51, 0
2, 3206, Control_c, 0, 64, 127
2, 3292, Note_on_c, 0, 44, 0
2, 3338, Note_on_c, 0, 58, 82
2, 3348, Note_on_c, 0, 60, 0
2, 3360, Note_on_c, 0, 49, 51
2, 3362, Note_on_c, 0, 32, 49
2, 3422, Note_on_c, 0, 32, 0
2, 3436, Note_on_c, 0, 49, 0
2, 3744, Control_c, 0, 64, 0
2, 3751, Note_on_c, 0, 44, 48
2, 3751, Note_on_c, 0, 60, 67
2, 3753, Note_on_c, 0, 51, 47
2, 3787, Note_on_c, 0, 58, 0
2, 3883, Note_on_c, 0, 44, 0
2, 3926, Note_on_c, 0, 51, 0
2, 3943, Control_c, 0, 64, 127
2, 3957, Note_on_c, 0, 60, 0
2, 4010, Note_on_c, 0, 61, 83
2, 4032, Note_on_c, 0, 44, 74
2, 4041, Note_on_c, 0, 52, 39
2, 4058, Note_on_c, 0, 61, 0
2, 4068, Control_c, 0, 64, 0
2, 4072, Note_on_c, 0, 44, 0
2, 4104, Note_on_c, 0, 52, 0
2, 4149, Note_on_c, 0, 60, 65
2, 4161, Note_on_c, 0, 44, 43
2, 4176, Note_on_c, 0, 63, 79
2, 4188, Note_on_c, 0, 54, 43
2, 4245, Note_on_c, 0, 56, 0
2, 4298, Control_c, 0, 64, 127
2, 4327, Control_c, 0, 64, 0
2, 4497, Control_c, 0, 64, 127
2, 4504, Note_on_c, 0, 63, 0
2, 4557, Note_on_c, 0, 54, 0
2, 4605, Control_c, 0, 64, 0
2, 4610, Note_on_c, 0, 44, 0
2, 4644, Note_on_c, 0, 64, 72
2, 4646, Note_on_c, 0, 56, 61
2, 4668, Note_on_c, 0, 32, 41
2, 4670, Note_on_c, 0, 60, 0
2, 4742, Note_on_c, 0, 32, 0
2, 4804, Control_c, 0, 64, 127
2, 4850, Note_on_c, 0, 56, 0
2, 4896, Note_on_c, 0, 64, 0
2, 5181, Note_on_c, 0, 49, 50
2, 5205, Control_c, 0, 64, 0
2, 5229, Note_on_c, 0, 56, 45
2, 5232, Note_on_c, 0, 49, 0
2, 5275, Note_on_c, 0, 97, 73
2, 5280, Note_on_c, 0, 92, 68
2, 5289, Note_on_c, 0, 64, 47
2, 5320, Note_on_c, 0, 92, 0
2, 5378, Note_on_c, 0, 93, 61
2, 5388, Note_on_c, 0, 97, 0
2, 5388, Control_c, 0, 64, 127
2, 5395, Note_on_c, 0, 64, 0
2, 5421, Note_on_c, 0, 92, 56
2, 5426, Note_on_c, 0, 56, 0
2, 5431, Note_on_c, 0, 93, 0
2, 5467, Note_on_c, 0, 92, 0
2, 5520, Note_on_c, 0, 88, 55
2, 5568, Note_on_c, 0, 88, 0
2, 5580, Note_on_c, 0, 87, 76
2, 5642, Note_on_c, 0, 87, 0
2, 5654, Note_on_c, 0, 85, 58
2, 5666, Control_c, 0, 64, 0
2, 5671, Note_on_c, 0, 92, 73
2, 5700, Note_on_c, 0, 85, 0
2, 5721, Note_on_c, 0, 87, 68
2, 5764, Note_on_c, 0, 85, 77
2, 5784, Note_on_c, 0, 92, 0
2, 5786, Note_on_c, 0, 87, 0
2, 5810, Note_on_c, 0, 85, 0
2, 5846, Note_on_c, 0, 81, 68
2, 5875, Note_on_c, 0, 42, 66
2, 5901, Note_on_c, 0, 81, 0
2, 5923, Note_on_c, 0, 42, 0
2, 5923, Note_on_c, 0, 80, 75
2, 5937, Note_on_c, 0, 49, 57
2, 5973, Control_c, 0, 64, 127
2, 5983, Note_on_c, 0, 57, 72
2, 5985, Note_on_c, 0, 49, 0
2, 5988, Note_on_c, 0, 78, 75
2, 5995, Note_on_c, 0, 80, 0
2, 6014, Note_on_c, 0, 85, 79
2, 6028, Note_on_c, 0, 57, 0
2, 6031, Note_on_c, 0, 78, 0
2, 6064, Note_on_c, 0, 80, 78
2, 6091, Note_on_c, 0, 85, 0
2, 6096, Control_c, 0, 64, 0
2, 6100, Note_on_c, 0, 78, 64
2, 6117, Note_on_c, 0, 80, 0
2, 6158, Note_on_c, 0, 78, 0
2, 6168, Note_on_c, 0, 76, 81
2, 6218, Note_on_c, 0, 76, 0
2, 6223, Note_on_c, 0, 49, 61
2, 6242, Note_on_c, 0, 75, 82
2, 6268, Note_on_c, 0, 56, 62
2, 6271, Note_on_c, 0, 49, 0
2, 6319, Note_on_c, 0, 73, 86
2, 6336, Note_on_c, 0, 64, 89
2, 6345, Note_on_c, 0, 75, 0
2, 6352, Note_on_c, 0, 80, 67
2, 6364, Note_on_c, 0, 73, 0
2, 6369, Note_on_c, 0, 64, 0
2, 6372, Control_c, 0, 64, 127
2, 6412, Note_on_c, 0, 80, 0
2, 6412, Note_on_c, 0, 75, 80
2, 6424, Note_on_c, 0, 56, 0
2, 6448, Control_c, 0, 64, 0
2, 6458, Note_on_c, 0, 73, 63
2, 6480, Note_on_c, 0, 75, 0
2, 6506, Note_on_c, 0, 73, 0
2, 6520, Note_on_c, 0, 69, 75
2, 6571, Note_on_c, 0, 42, 61
2, 6576, Note_on_c, 0, 69, 0
2, 6595, Note_on_c, 0, 68, 80
2, 6602, Note_on_c, 0, 49, 52
2, 6614, Note_on_c, 0, 42, 0
2, 6672, Note_on_c, 0, 68, 0
2, 6674, Note_on_c, 0, 66, 72
2, 6674, Note_on_c, 0, 57, 74
2, 6700, Note_on_c, 0, 73, 79
2, 6715, Note_on_c, 0, 66, 0
2, 6717, Note_on_c, 0, 57, 0
2, 6722, Note_on_c, 0, 49, 0
2, 6724, Control_c, 0, 64, 127
2, 6741, Note_on_c, 0, 68, 79
2, 6760, Note_on_c, 0, 73, 0
2, 6772, Control_c, 0, 64, 0
2, 6780, Note_on_c, 0, 66, 68
2, 6813, Note_on_c, 0, 68, 0
2, 6838, Note_on_c, 0, 64, 68
2, 6840, Note_on_c, 0, 66, 0
2, 6898, Note_on_c, 0, 64, 0
2, 6907, Note_on_c, 0, 37, 63
2, 6933, Note_on_c, 0, 63, 76
2, 6952, Note_on_c, 0, 44, 46
2, 6955, Note_on_c, 0, 37, 0
2, 7003, Control_c, 0, 64, 127
2, 7003, Note_on_c, 0, 61, 75
2, 7008, Note_on_c, 0, 63, 0
2, 7015, Note_on_c, 0, 52, 81
2, 7044, Note_on_c, 0, 68, 68
2, 7046, Note_on_c, 0, 61, 0
2, 7048, Note_on_c, 0, 44, 0
2, 7056, Note_on_c, 0, 52, 0
2, 7080, Control_c, 0, 64, 0
2, 7087, Note_on_c, 0, 63, 61
2, 7106, Note_on_c, 0, 68, 0
2, 7116, Note_on_c, 0, 61, 73
2, 7166, Note_on_c, 0, 63, 0
2, 7183, Note_on_c, 0, 61, 0
2, 7200, Note_on_c, 0, 59, 66
2, 7262, Note_on_c, 0, 59, 0
2, 7279, Note_on_c, 0, 58, 80
2, 7365, Note_on_c, 0, 58, 0
2, 7372, Note_on_c, 0, 56, 81
2, 7864, Note_on_c, 0, 63, 57
2, 7864, Note_on_c, 0, 51, 43
2, 7872, Note_on_c, 0, 39, 45
2, 7888, Note_on_c, 0, 59, 42
2, 8064, Control_c, 0, 64, 127
2, 8073, Note_on_c, 0, 39, 0
2, 8090, Note_on_c, 0, 51, 0
2, 8102, Note_on_c, 0, 38, 70
2, 8162, Note_on_c, 0, 38, 0
2, 8176, Note_on_c, 0, 39, 40
2, 8208, Note_on_c, 0, 56, 0
2, 8229, Note_on_c, 0, 39, 0
2, 8234, Note_on_c, 0, 40, 76
2, 8248, Note_on_c, 0, 58, 83
2, 8268, Note_on_c, 0, 55, 72
2, 8292, Note_on_c, 0, 59, 0
2, 8301, Note_on_c, 0, 40, 0
2, 8306, Note_on_c, 0, 39, 59
2, 8316, Note_on_c, 0, 63, 0
2, 8394, Note_on_c, 0, 40, 81
2, 8402, Note_on_c, 0, 39, 0
2, 8416, Note_on_c, 0, 55, 0
2, 8457, Note_on_c, 0, 39, 58
2, 8476, Note_on_c, 0, 40, 0
2, 8508, Control_c, 0, 64, 0
2, 8541, Note_on_c, 0, 38, 82
2, 8640, Note_on_c, 0, 38, 0
2, 8704, Note_on_c, 0, 56, 55
2, 8709, Note_on_c, 0, 51, 49
2, 8716, Note_on_c, 0, 44, 72
2, 8719, Note_on_c, 0, 59, 62
2, 8726, Note_on_c, 0, 58, 0
2, 8760, Note_on_c, 0, 39, 0
2, 8865, Note_on_c, 0, 44, 0
2, 8887, Note_on_c, 0, 51, 0
2, 8892, Control_c, 0, 64, 127
2, 8894, Note_on_c, 0, 59, 0
2, 8896, Note_on_c, 0, 56, 0
2, 8940, Control_c, 0, 64, 0
2, 9052, Note_on_c, 0, 61, 64
2, 9058, Note_on_c, 0, 44, 40
2, 9058, Note_on_c, 0, 51, 49
2, 9060, Note_on_c, 0, 58, 58
2, 9108, Note_on_c, 0, 61, 0
2, 9115, Note_on_c, 0, 58, 0
2, 9120, Note_on_c, 0, 51, 0
2, 9177, Note_on_c, 0, 63, 70
2, 9182, Note_on_c, 0, 59, 44
2, 9184, Note_on_c, 0, 51, 61
2, 9339, Note_on_c, 0, 44, 0
2, 9345, Note_on_c, 0, 51, 0
2, 9369, Control_c, 0, 64, 127
2, 9401, Note_on_c, 0, 59, 0
2, 9436, Note_on_c, 0, 63, 0
2, 9667, Note_on_c, 0, 68, 59
2, 9674, Note_on_c, 0, 56, 42
2, 9710, Note_on_c, 0, 32, 38
2, 9739, Control_c, 0, 64, 0
2, 9837, Note_on_c, 0, 32, 0
2, 9864, Note_on_c, 0, 56, 0
2, 9892, Control_c, 0, 64, 127
2, 9957, Note_on_c, 0, 68, 0
2, 10214, Control_c, 0, 64, 0
2, 10214, Note_on_c, 0, 42, 60
2, 10260, Note_on_c, 0, 42, 0
2, 10286, Note_on_c, 0, 49, 52
2, 10296, Note_on_c, 0, 97, 71
2, 10305, Note_on_c, 0, 90, 46
2, 10312, Note_on_c, 0, 57, 69
2, 10336, Note_on_c, 0, 49, 0
2, 10368, Note_on_c, 0, 90, 0
2, 10370, Note_on_c, 0, 97, 0
2, 10377, Note_on_c, 0, 92, 65
2, 10380, Note_on_c, 0, 57, 0
2, 10399, Control_c, 0, 64, 127
2, 10432, Note_on_c, 0, 92, 0
2, 10432, Note_on_c, 0, 90, 71
2, 10473, Note_on_c, 0, 90, 0
2, 10490, Control_c, 0, 64, 0
2, 10504, Note_on_c, 0, 86, 66
2, 10555, Note_on_c, 0, 86, 0
2, 10581, Note_on_c, 0, 85, 70
2, 10593, Note_on_c, 0, 47, 48
2, 10636, Note_on_c, 0, 47, 0
2, 10658, Note_on_c, 0, 54, 47
2, 10672, Note_on_c, 0, 90, 72
2, 10677, Note_on_c, 0, 85, 0
2, 10687, Note_on_c, 0, 62, 81
2, 10706, Control_c, 0, 64, 127
2, 10728, Note_on_c, 0, 62, 0
2, 10747, Note_on_c, 0, 85, 56
2, 10764, Note_on_c, 0, 90, 0
2, 10780, Note_on_c, 0, 54, 0
2, 10797, Note_on_c, 0, 85, 0
2, 10819, Note_on_c, 0, 83, 30
2, 10845, Control_c, 0, 64, 0
2, 10872, Note_on_c, 0, 81, 61
2, 10874, Note_on_c, 0, 83, 0
2, 10915, Note_on_c, 0, 81, 0
2, 10932, Note_on_c, 0, 42, 63
2, 10941, Note_on_c, 0, 80, 68
2, 10977, Note_on_c, 0, 49, 64
2, 10980, Note_on_c, 0, 42, 0
2, 11006, Note_on_c, 0, 80, 0
2, 11011, Note_on_c, 0, 78, 66
2, 11025, Note_on_c, 0, 85, 71
2, 11030, Note_on_c, 0, 57, 81
2, 11032, Note_on_c, 0, 49, 0
2, 11059, Note_on_c, 0, 78, 0
2, 11073, Note_on_c, 0, 57, 0
2, 11076, Control_c, 0, 64, 127
2, 11076, Note_on_c, 0, 80, 80
2, 11124, Note_on_c, 0, 78, 65
2, 11133, Note_on_c, 0, 85, 0
2, 11167, Control_c, 0, 64, 0
2, 11176, Note_on_c, 0, 80, 0
2, 11179, Note_on_c, 0, 78, 0
2, 11196, Note_on_c, 0, 74, 75
2, 11244, Note_on_c, 0, 74, 0
2, 11277, Note_on_c, 0, 73, 73
2, 11342, Note_on_c, 0, 54, 48
2, 11368, Note_on_c, 0, 71, 67
2, 11371, Note_on_c, 0, 73, 0
2, 11378, Note_on_c, 0, 78, 71
2, 11385, Note_on_c, 0, 62, 78
2, 11397, Control_c, 0, 64, 127
2, 11402, Note_on_c, 0, 71, 0
2, 11424, Note_on_c, 0, 62, 0
2, 11445, Note_on_c, 0, 73, 78
2, 11486, Note_on_c, 0, 71, 53
2, 11503, Note_on_c, 0, 54, 0
2, 11505, Control_c, 0, 64, 0
2, 11517, Note_on_c, 0, 78, 0
2, 11527, Note_on_c, 0, 73, 0
2, 11544, Note_on_c, 0, 71, 0
2, 11565, Note_on_c, 0, 69, 63
2, 11628, Note_on_c, 0, 68, 83
2, 11632, Note_on_c, 0, 42, 65
2, 11640, Note_on_c, 0, 69, 0
2, 11680, Note_on_c, 0, 42, 0
2, 11690, Note_on_c, 0, 49, 62
2, 11709, Note_on_c, 0, 66, 78
2, 11721, Note_on_c, 0, 68, 0
2, 11736, Note_on_c, 0, 57, 80
2, 11740, Note_on_c, 0, 49, 0
2, 11740, Note_on_c, 0, 73, 68
2, 11757, Note_on_c, 0, 66, 0
2, 11781, Note_on_c, 0, 57, 0
2, 11781, Control_c, 0, 64, 127
2, 11793, Note_on_c, 0, 68, 80
2, 11820, Note_on_c, 0, 73, 0
2, 11829, Note_on_c, 0, 66, 70
2, 11870, Note_on_c, 0, 68, 0
2, 11889, Note_on_c, 0, 66, 0
2, 11904, Note_on_c, 0, 62, 74
2, 11935, Control_c, 0, 64, 0
2, 11978, Note_on_c, 0, 61, 79
2, 11990, Note_on_c, 0, 62, 0
2, 12075, Note_on_c, 0, 59, 84
2, 12096, Note_on_c, 0, 61, 0
2, 12099, Note_on_c, 0, 66, 70
2, 12113, Note_on_c, 0, 59, 0
2, 12155, Note_on_c, 0, 61, 79
2, 12159, Note_on_c, 0, 66, 0
2, 12220, Note_on_c, 0, 59, 58
2, 12234, Note_on_c, 0, 61, 0
2, 12264, Note_on_c, 0, 59, 0
2, 12290, Note_on_c, 0, 57, 73
2, 12364, Note_on_c, 0, 56, 78
2, 12376, Note_on_c, 0, 57, 0
2, 12446, Note_on_c, 0, 56, 0
2, 12456, Note_on_c, 0, 54, 79
2, 12912, Note_on_c, 0, 49, 52
2, 12912, Note_on_c, 0, 61, 68
2, 12921, Note_on_c, 0, 57, 60
2, 12928, Note_on_c, 0, 42, 46
2, 13135, Control_c, 0, 64, 127
2, 13156, Note_on_c, 0, 49, 0
2, 13200, Note_on_c, 0, 61, 0
2, 13324, Note_on_c, 0, 63, 84
2, 13327, Note_on_c, 0, 51, 70
2, 13332, Note_on_c, 0, 39, 72
2, 13360, Note_on_c, 0, 42, 0
2, 13528, Note_on_c, 0, 51, 0
2, 13531, Note_on_c, 0, 54, 0
2, 13560, Note_on_c, 0, 57, 0
2, 13677, Note_on_c, 0, 39, 0
2, 13752, Note_on_c, 0, 44, 62
2, 13754, Note_on_c, 0, 60, 83
2, 13754, Note_on_c, 0, 51, 72
2, 13758, Note_on_c, 0, 56, 60
2, 13761, Note_on_c, 0, 63, 0
2, 13764, Control_c, 0, 64, 0
2, 13896, Note_on_c, 0, 44, 0
2, 13910, Note_on_c, 0, 51, 0
2, 13927, Note_on_c, 0, 60, 0
2, 13931, Note_on_c, 0, 56, 0
2, 13934, Control_c, 0, 64, 127
2, 14092, Note_on_c, 0, 61, 70
2, 14094, Note_on_c, 0, 52, 67
2, 14095, Note_on_c, 0, 44, 64
2, 14136, Note_on_c, 0, 44, 0
2, 14137, Note_on_c, 0, 52, 0
2, 14152, Note_on_c, 0, 61, 0
2, 14203, Note_on_c, 0, 44, 63
2, 14203, Note_on_c, 0, 60, 71
2, 14205, Note_on_c, 0, 63, 84
2, 14217, Note_on_c, 0, 54, 54
2, 14256, Control_c, 0, 64, 0
2, 14455, Control_c, 0, 64, 127
2, 14640, Control_c, 0, 64, 0
2, 14642, Note_on_c, 0, 63, 0
2, 14728, Note_on_c, 0, 54, 0
2, 14748, Note_on_c, 0, 56, 62
2, 14752, Note_on_c, 0, 44, 0
2, 14752, Note_on_c, 0, 64, 74
2, 14764, Note_on_c, 0, 32, 47
2, 14817, Note_on_c, 0, 60, 0
2, 14870, Control_c, 0, 64, 127
2, 14882, Note_on_c, 0, 32, 0
2, 14899, Note_on_c, 0, 56, 0
2, 14954, Note_on_c, 0, 64, 0
2, 15204, Note_on_c, 0, 49, 68
2, 15208, Control_c, 0, 64, 0
2, 15264, Note_on_c, 0, 92, 69
2, 15266, Note_on_c, 0, 56, 43
2, 15268, Note_on_c, 0, 97, 61
2, 15280, Note_on_c, 0, 64, 62
2, 15309, Note_on_c, 0, 92, 0
2, 15326, Note_on_c, 0, 49, 0
2, 15335, Note_on_c, 0, 93, 60
2, 15393, Control_c, 0, 64, 127
2, 15396, Note_on_c, 0, 97, 0
2, 15410, Note_on_c, 0, 64, 0
2, 15432, Note_on_c, 0, 92, 77
2, 15443, Note_on_c, 0, 93, 0
2, 15470, Note_on_c, 0, 92, 0
2, 15483, Note_on_c, 0, 88, 64
2, 15487, Note_on_c, 0, 56, 0
2, 15534, Note_on_c, 0, 88, 0
2, 15547, Note_on_c, 0, 87, 64
2, 15598, Note_on_c, 0, 87, 0
2, 15633, Note_on_c, 0, 85, 78
2, 15638, Control_c, 0, 64, 0
2, 15657, Note_on_c, 0, 92, 72
2, 15674, Note_on_c, 0, 85, 0
2, 15727, Note_on_c, 0, 87, 73
2, 15753, Note_on_c, 0, 92, 0
2, 15784, Note_on_c, 0, 85, 61
2, 15804, Note_on_c, 0, 87, 0
2, 15823, Note_on_c, 0, 85, 0
2, 15832, Note_on_c, 0, 81, 73
2, 15888, Note_on_c, 0, 81, 0
2, 15912, Note_on_c, 0, 42, 56
2, 15926, Note_on_c, 0, 80, 70
2, 15960, Note_on_c, 0, 42, 0
2, 15960, Note_on_c, 0, 49, 59
2, 15993, Note_on_c, 0, 78, 71
2, 15996, Note_on_c, 0, 80, 0
2, 16005, Note_on_c, 0, 49, 0
2, 16012, Note_on_c, 0, 57, 68
2, 16012, Note_on_c, 0, 85, 68
2, 16024, Control_c, 0, 64, 127
2, 16041, Note_on_c, 0, 78, 0
2, 16058, Note_on_c, 0, 57, 0
2, 16068, Note_on_c, 0, 80, 74
2, 16084, Control_c, 0, 64, 0
2, 16104, Note_on_c, 0, 78, 72
2, 16123, Note_on_c, 0, 80, 0
2, 16132, Note_on_c, 0, 85, 0
2, 16159, Note_on_c, 0, 78, 0
2, 16176, Note_on_c, 0, 76, 80
2, 16231, Note_on_c, 0, 76, 0
2, 16245, Note_on_c, 0, 49, 54
2, 16257, Note_on_c, 0, 75, 71
2, 16288, Note_on_c, 0, 56, 58
2, 16300, Note_on_c, 0, 49, 0
2, 16320, Note_on_c, 0, 75, 0
2, 16332, Note_on_c, 0, 73, 64
2, 16353, Note_on_c, 0, 80, 62
2, 16356, Note_on_c, 0, 64, 74
2, 16377, Control_c, 0, 64, 127
2, 16380, Note_on_c, 0, 73, 0
2, 16392, Note_on_c, 0, 75, 70
2, 16394, Note_on_c, 0, 64, 0
2, 16423, Control_c, 0, 64, 0
2, 16435, Note_on_c, 0, 56, 0
2, 16435, Note_on_c, 0, 80, 0
2, 16440, Note_on_c, 0, 73, 78
2, 16483, Note_on_c, 0, 75, 0
2, 16495, Note_on_c, 0, 73, 0
2, 16524, Note_on_c, 0, 69, 76
2, 16591, Note_on_c, 0, 69, 0
2, 16591, Note_on_c, 0, 42, 50
2, 16608, Note_on_c, 0, 68, 64
2, 16632, Note_on_c, 0, 49, 42
2, 16646, Note_on_c, 0, 42, 0
2, 16670, Note_on_c, 0, 68, 0
2, 16680, Note_on_c, 0, 66, 71
2, 16689, Note_on_c, 0, 57, 68
2, 16699, Control_c, 0, 64, 127
2, 16701, Note_on_c, 0, 73, 69
2, 16728, Note_on_c, 0, 66, 0
2, 16730, Control_c, 0, 64, 0
2, 16732, Note_on_c, 0, 57, 0
2, 16742, Note_on_c, 0, 68, 70
2, 16761, Note_on_c, 0, 49, 0
2, 16780, Note_on_c, 0, 73, 0
2, 16790, Note_on_c, 0, 66, 76
2, 16809, Note_on_c, 0, 68, 0
2, 16843, Note_on_c, 0, 66, 0
2, 16864, Note_on_c, 0, 64, 71
2, 16944, Note_on_c, 0, 64, 0
2, 16946, Note_on_c, 0, 63, 68
2, 16953, Note_on_c, 0, 37, 65
2, 17013, Note_on_c, 0, 37, 0
2, 17016, Note_on_c, 0, 63, 0
2, 17016, Note_on_c, 0, 61, 67
2, 17023, Note_on_c, 0, 44, 55
2, 17037, Control_c, 0, 64, 127
2, 17047, Note_on_c, 0, 68, 68
2, 17059, Note_on_c, 0, 52, 87
2, 17061, Note_on_c, 0, 61, 0
2, 17078, Note_on_c, 0, 44, 0
2, 17083, Control_c, 0, 64, 0
2, 17088, Note_on_c, 0, 63, 79
2, 17104, Note_on_c, 0, 68, 0
2, 17109, Note_on_c, 0, 52, 0
2, 17133, Note_on_c, 0, 61, 66
2, 17176, Note_on_c, 0, 63, 0
2, 17205, Note_on_c, 0, 61, 0
2, 17208, Note_on_c, 0, 59, 69
2, 17256, Note_on_c, 0, 59, 0
2, 17306, Note_on_c, 0, 57, 73
2, 17364, Note_on_c, 0, 57, 0
2, 17402, Note_on_c, 0, 56, 81
2, 17932, Note_on_c, 0, 51, 36
2, 17932, Note_on_c, 0, 44, 39
2, 17935, Note_on_c, 0, 60, 68
2, 18206, Control_c, 0, 64, 127
2, 18249, Note_on_c, 0, 44, 0
2, 18261, Note_on_c, 0, 51, 0
2, 18328, Note_on_c, 0, 61, 79
2, 18338, Note_on_c, 0, 60, 0
2, 18340, Note_on_c, 0, 52, 67
2, 18355, Note_on_c, 0, 32, 42
2, 18477, Note_on_c, 0, 52, 0
2, 18492, Note_on_c, 0, 32, 0
2, 18544, Note_on_c, 0, 61, 0
2, 18712, Control_c, 0, 64, 0
2, 18720, Note_on_c, 0, 54, 67
2, 18720, Note_on_c, 0, 63, 72
2, 18724, Note_on_c, 0, 44, 63
2, 18733, Note_on_c, 0, 60, 62
2, 18784, Note_on_c, 0, 44, 0
2, 18808, Note_on_c, 0, 56, 0
2, 18852, Control_c, 0, 64, 127
2, 18895, Note_on_c, 0, 63, 0
2, 18916, Note_on_c, 0, 54, 0
2, 18925, Note_on_c, 0, 60, 0
2, 19010, Note_on_c, 0, 44, 64
2, 19015, Note_on_c, 0, 56, 77
2, 19024, Note_on_c, 0, 64, 75
2, 19065, Note_on_c, 0, 44, 0
2, 19094, Note_on_c, 0, 64, 0
2, 19123, Note_on_c, 0, 61, 81
2, 19128, Control_c, 0, 64, 0
2, 19135, Note_on_c, 0, 56, 0
2, 19137, Note_on_c, 0, 37, 61
2, 19140, Note_on_c, 0, 52, 76
2, 19312, Control_c, 0, 64, 127
2, 19335, Note_on_c, 0, 37, 0
2, 19350, Note_on_c, 0, 52, 0
2, 19358, Note_on_c, 0, 61, 0
2, 19651, Note_on_c, 0, 69, 86
2, 19653, Note_on_c, 0, 57, 72
2, 19665, Control_c, 0, 64, 0
2, 20080, Control_c, 0, 64, 127
2, 20095, Note_on_c, 0, 69, 0
2, 20877, Note_on_c, 0, 60, 43
2, 20880, Note_on_c, 0, 51, 41
2, 20887, Note_on_c, 0, 44, 27
2, 21076, Note_on_c, 0, 44, 0
2, 21076, Note_on_c, 0, 51, 0
2, 21100, Note_on_c, 0, 57, 0
2, 21369, Note_on_c, 0, 61, 48
2, 21379, Note_on_c, 0, 52, 44
2, 21410, Note_on_c, 0, 32, 16
2, 21441, Note_on_c, 0, 60, 0
2, 21453, Note_on_c, 0, 52, 0
2, 21475, Note_on_c, 0, 32, 0
2, 21508, Note_on_c, 0, 61, 0
2, 21784, Note_on_c, 0, 56, 39
2, 21787, Control_c, 0, 64, 0
2, 21787, Note_on_c, 0, 54, 43
2, 21789, Note_on_c, 0, 63, 41
2, 21813, Note_on_c, 0, 44, 26
2, 21868, Note_on_c, 0, 54, 0
2, 21878, Note_on_c, 0, 44, 0
2, 21885, Note_on_c, 0, 56, 0
2, 21892, Note_on_c, 0, 63, 0
2, 22180, Note_on_c, 0, 54, 35
2, 22183, Note_on_c, 0, 64, 43
2, 22185, Note_on_c, 0, 60, 35
2, 22202, Note_on_c, 0, 44, 22
2, 22248, Note_on_c, 0, 54, 0
2, 22262, Control_c, 0, 64, 127
2, 22392, Note_on_c, 0, 44, 0
2, 22396, Note_on_c, 0, 60, 0
2, 22408, Note_on_c, 0, 64, 0
2, 22447, Note_on_c, 0, 61, 39
2, 22468, Note_on_c, 0, 52, 32
2, 22483, Note_on_c, 0, 37, 29
2, 22540, Control_c, 0, 64, 0
2, 22893, Control_c, 0, 64, 127
2, 23195, Note_on_c, 0, 52, 0
2, 23210, Note_on_c, 0, 37, 0
2, 23256, Note_on_c, 0, 61, 0
2, 23323, Control_c, 0, 64, 0
2, 26260, Control_c, 0, 64, 0
2, 26260, End_track
0, 0, End_of_file
