0, 0, Header, 0, 1, 480
1, 0, Start_track
1, 0, Time_signature, 4, 2, 24, 8
1, 0, Key_signature, 0, "major"
1, 0, Tempo, 500000
1, 97, Tempo, 500000
1, 484, Control_c, 0, 64, 127
1, 595, Note_on_c, 0, 36, 36
1, 596, Note_on_c, 0, 51, 84
1, 767, Note_on_c, 0, 43, 28
1, 777, Note_on_c, 0, 55, 53
1, 814, Note_on_c, 0, 36, 0
1, 864, Note_on_c, 0, 51, 0
1, 892, Note_on_c, 0, 63, 25
1, 893, Note_on_c, 0, 55, 0
1, 896, Note_on_c, 0, 43, 0
1, 896, Note_on_c, 0, 48, 50
1, 935, Note_on_c, 0, 48, 0
1, 951, Note_on_c, 0, 63, 0
1, 992, Note_on_c, 0, 48, 38
1, 996, Note_on_c, 0, 63, 54
1, 1107, Note_on_c, 0, 63, 0
1, 1112, Note_on_c, 0, 67, 64
1, 1114, Note_on_c, 0, 55, 58
1, 1126, Note_on_c, 0, 48, 0
1, 1219, Note_on_c, 0, 75, 41
1, 1222, Note_on_c, 0, 55, 0
1, 1224, Note_on_c, 0, 67, 0
1, 1226, Note_on_c, 0, 60, 47
1, 1268, Note_on_c, 0, 60, 0
1, 1276, Note_on_c, 0, 75, 0
1, 1328, Note_on_c, 0, 75, 56
1, 1333, Note_on_c, 0, 60, 25
1, 1335, Note_on_c, 0, 62, 28
1, 1403, Note_on_c, 0, 60, 0
1, 1408, Note_on_c, 0, 62, 0
1, 1428, Note_on_c, 0, 79, 57
1, 1432, Note_on_c, 0, 67, 45
1, 1532, Note_on_c, 0, 79, 0
1, 1544, Note_on_c, 0, 67, 0
1, 1547, Note_on_c, 0, 87, 82
1, 1552, Note_on_c, 0, 72, 27
1, 1581, Note_on_c, 0, 75, 0
1, 1642, Note_on_c, 0, 67, 50
1, 1643, Note_on_c, 0, 79, 50
1, 1660, Note_on_c, 0, 72, 0
1, 1739, Note_on_c, 0, 75, 46
1, 1741, Note_on_c, 0, 87, 0
1, 1742, Note_on_c, 0, 60, 52
1, 1748, Note_on_c, 0, 79, 0
1, 1757, Note_on_c, 0, 67, 0
1, 1773, Note_on_c, 0, 75, 0
1, 1790, Note_on_c, 0, 60, 0
1, 1830, Note_on_c, 0, 60, 51
1, 1837, Note_on_c, 0, 75, 20
1, 1920, Note_on_c, 0, 75, 0
1, 1920, Note_on_c, 0, 60, 0
1, 1939, Note_on_c, 0, 55, 55
1, 1943, Note_on_c, 0, 67, 60
1, 2040, Note_on_c, 0, 63, 52
1, 2044, Note_on_c, 0, 67, 0
1, 2047, Note_on_c, 0, 48, 45
1, 2058, Note_on_c, 0, 55, 0
1, 2069, Note_on_c, 0, 63, 0
1, 2088, Note_on_c, 0, 48, 0
1, 2138, Note_on_c, 0, 48, 41
1, 2148, Note_on_c, 0, 63, 60
1, 2240, Note_on_c, 0, 43, 52
1, 2244, Note_on_c, 0, 63, 0
1, 2244, Note_on_c, 0, 55, 58
1, 2246, Note_on_c, 0, 48, 0
1, 2315, Note_on_c, 0, 55, 0
1, 2324, Note_on_c, 0, 36, 62
1, 2325, Note_on_c, 0, 43, 0
1, 2385, Note_on_c, 0, 50, 88
1, 2392, Control_c, 0, 64, 0
1, 2437, Control_c, 0, 64, 127
1, 2488, Note_on_c, 0, 41, 40
1, 2502, Note_on_c, 0, 56, 54
1, 2517, Note_on_c, 0, 50, 0
1, 2556, Note_on_c, 0, 36, 0
1, 2586, Note_on_c, 0, 62, 58
1, 2598, Note_on_c, 0, 41, 0
1, 2603, Note_on_c, 0, 48, 52
1, 2614, Note_on_c, 0, 56, 0
1, 2626, Note_on_c, 0, 62, 0
1, 2638, Note_on_c, 0, 48, 0
1, 2686, Note_on_c, 0, 62, 53
1, 2690, Note_on_c, 0, 48, 23
1, 2756, Note_on_c, 0, 62, 0
1, 2768, Note_on_c, 0, 68, 57
1, 2778, Note_on_c, 0, 53, 51
1, 2784, Note_on_c, 0, 48, 0
1, 2864, Note_on_c, 0, 74, 57
1, 2872, Note_on_c, 0, 53, 0
1, 2874, Note_on_c, 0, 60, 47
1, 2878, Note_on_c, 0, 68, 0
1, 2914, Note_on_c, 0, 60, 0
1, 2918, Note_on_c, 0, 74, 0
1, 2959, Note_on_c, 0, 60, 40
1, 2964, Note_on_c, 0, 74, 51
1, 3060, Note_on_c, 0, 60, 0
1, 3063, Note_on_c, 0, 80, 44
1, 3065, Note_on_c, 0, 65, 50
1, 3104, Note_on_c, 0, 74, 0
1, 3160, Note_on_c, 0, 80, 0
1, 3164, Note_on_c, 0, 65, 0
1, 3175, Note_on_c, 0, 86, 82
1, 3186, Note_on_c, 0, 72, 28
1, 3278, Note_on_c, 0, 80, 37
1, 3282, Note_on_c, 0, 65, 41
1, 3298, Note_on_c, 0, 72, 0
1, 3370, Note_on_c, 0, 86, 0
1, 3372, Note_on_c, 0, 60, 53
1, 3374, Note_on_c, 0, 65, 0
1, 3374, Note_on_c, 0, 74, 55
1, 3386, Note_on_c, 0, 80, 0
1, 3400, Note_on_c, 0, 74, 0
1, 3421, Note_on_c, 0, 60, 0
1, 3462, Note_on_c, 0, 74, 47
1, 3464, Note_on_c, 0, 60, 51
1, 3558, Note_on_c, 0, 53, 44
1, 3560, Note_on_c, 0, 68, 50
1, 3582, Note_on_c, 0, 60, 0
1, 3628, Note_on_c, 0, 74, 0
1, 3654, Note_on_c, 0, 62, 62
1, 3656, Note_on_c, 0, 48, 54
1, 3663, Note_on_c, 0, 68, 0
1, 3664, Note_on_c, 0, 53, 0
1, 3684, Note_on_c, 0, 62, 0
1, 3701, Note_on_c, 0, 48, 0
1, 3754, Note_on_c, 0, 48, 28
1, 3764, Note_on_c, 0, 64, 28
1, 3765, Note_on_c, 0, 62, 35
1, 3819, Note_on_c, 0, 64, 0
1, 3826, Note_on_c, 0, 62, 0
1, 3840, Note_on_c, 0, 48, 0
1, 3852, Note_on_c, 0, 56, 57
1, 3853, Note_on_c, 0, 41, 53
1, 3916, Note_on_c, 0, 41, 0
1, 3931, Note_on_c, 0, 36, 65
1, 3958, Note_on_c, 0, 56, 0
1, 3978, Control_c, 0, 64, 0
1, 3985, Note_on_c, 0, 53, 96
1, 4042, Control_c, 0, 64, 127
1, 4082, Note_on_c, 0, 60, 63
1, 4086, Note_on_c, 0, 44, 53
1, 4107, Note_on_c, 0, 53, 0
1, 4129, Note_on_c, 0, 36, 0
1, 4170, Note_on_c, 0, 65, 59
1, 4177, Note_on_c, 0, 60, 0
1, 4177, Note_on_c, 0, 48, 58
1, 4190, Note_on_c, 0, 44, 0
1, 4212, Note_on_c, 0, 48, 0
1, 4219, Note_on_c, 0, 65, 0
1, 4262, Note_on_c, 0, 48, 48
1, 4271, Note_on_c, 0, 65, 56
1, 4361, Note_on_c, 0, 72, 46
1, 4373, Note_on_c, 0, 56, 47
1, 4377, Note_on_c, 0, 65, 0
1, 4389, Note_on_c, 0, 48, 0
1, 4449, Note_on_c, 0, 77, 53
1, 4460, Note_on_c, 0, 60, 51
1, 4462, Note_on_c, 0, 72, 0
1, 4488, Note_on_c, 0, 56, 0
1, 4494, Note_on_c, 0, 60, 0
1, 4503, Note_on_c, 0, 77, 0
1, 4543, Note_on_c, 0, 60, 51
1, 4551, Note_on_c, 0, 77, 53
1, 4632, Note_on_c, 0, 60, 0
1, 4642, Note_on_c, 0, 68, 40
1, 4644, Note_on_c, 0, 84, 47
1, 4680, Note_on_c, 0, 77, 0
1, 4726, Note_on_c, 0, 84, 0
1, 4747, Note_on_c, 0, 68, 0
1, 4753, Note_on_c, 0, 89, 84
1, 4761, Note_on_c, 0, 72, 35
1, 4840, Note_on_c, 0, 84, 56
1, 4843, Note_on_c, 0, 68, 39
1, 4869, Note_on_c, 0, 72, 0
1, 4925, Note_on_c, 0, 89, 0
1, 4928, Note_on_c, 0, 60, 43
1, 4932, Note_on_c, 0, 77, 47
1, 4942, Note_on_c, 0, 84, 0
1, 4947, Note_on_c, 0, 68, 0
1, 4964, Note_on_c, 0, 77, 0
1, 4976, Note_on_c, 0, 60, 0
1, 5014, Note_on_c, 0, 60, 54
1, 5024, Note_on_c, 0, 77, 47
1, 5103, Note_on_c, 0, 77, 0
1, 5120, Note_on_c, 0, 56, 55
1, 5120, Note_on_c, 0, 72, 53
1, 5152, Note_on_c, 0, 60, 0
1, 5212, Note_on_c, 0, 48, 52
1, 5214, Note_on_c, 0, 72, 0
1, 5214, Note_on_c, 0, 65, 46
1, 5228, Note_on_c, 0, 65, 0
1, 5231, Note_on_c, 0, 56, 0
1, 5262, Note_on_c, 0, 48, 0
1, 5297, Note_on_c, 0, 48, 57
1, 5313, Note_on_c, 0, 65, 35
1, 5403, Note_on_c, 0, 60, 63
1, 5404, Note_on_c, 0, 44, 63
1, 5409, Note_on_c, 0, 65, 0
1, 5416, Note_on_c, 0, 48, 0
1, 5460, Note_on_c, 0, 44, 0
1, 5469, Note_on_c, 0, 60, 0
1, 5472, Note_on_c, 0, 36, 72
1, 5523, Control_c, 0, 64, 0
1, 5550, Note_on_c, 0, 51, 94
1, 5576, Control_c, 0, 64, 127
1, 5645, Note_on_c, 0, 43, 49
1, 5655, Note_on_c, 0, 55, 54
1, 5659, Note_on_c, 0, 36, 0
1, 5730, Note_on_c, 0, 51, 0
1, 5735, Note_on_c, 0, 63, 55
1, 5740, Note_on_c, 0, 55, 0
1, 5743, Note_on_c, 0, 48, 59
1, 5744, Note_on_c, 0, 43, 0
1, 5780, Note_on_c, 0, 48, 0
1, 5792, Note_on_c, 0, 63, 0
1, 5825, Note_on_c, 0, 48, 27
1, 5830, Note_on_c, 0, 63, 32
1, 5916, Note_on_c, 0, 67, 62
1, 5918, Note_on_c, 0, 55, 55
1, 5932, Note_on_c, 0, 63, 0
1, 5938, Note_on_c, 0, 48, 0
1, 6003, Note_on_c, 0, 60, 59
1, 6005, Note_on_c, 0, 75, 40
1, 6007, Note_on_c, 0, 67, 0
1, 6011, Note_on_c, 0, 55, 0
1, 6042, Note_on_c, 0, 60, 0
1, 6059, Note_on_c, 0, 75, 0
1, 6098, Note_on_c, 0, 60, 34
1, 6110, Note_on_c, 0, 75, 46
1, 6206, Note_on_c, 0, 60, 0
1, 6207, Note_on_c, 0, 79, 57
1, 6208, Note_on_c, 0, 67, 57
1, 6227, Note_on_c, 0, 75, 0
1, 6309, Note_on_c, 0, 79, 0
1, 6320, Note_on_c, 0, 87, 81
1, 6329, Note_on_c, 0, 72, 40
1, 6331, Note_on_c, 0, 67, 0
1, 6406, Note_on_c, 0, 79, 49
1, 6412, Note_on_c, 0, 67, 42
1, 6436, Note_on_c, 0, 72, 0
1, 6500, Note_on_c, 0, 75, 46
1, 6506, Note_on_c, 0, 60, 55
1, 6509, Note_on_c, 0, 87, 0
1, 6517, Note_on_c, 0, 79, 0
1, 6522, Note_on_c, 0, 67, 0
1, 6541, Note_on_c, 0, 75, 0
1, 6552, Note_on_c, 0, 60, 0
1, 6586, Note_on_c, 0, 60, 65
1, 6601, Note_on_c, 0, 75, 28
1, 6680, Note_on_c, 0, 75, 0
1, 6681, Note_on_c, 0, 55, 58
1, 6682, Note_on_c, 0, 67, 63
1, 6711, Note_on_c, 0, 60, 0
1, 6772, Note_on_c, 0, 48, 59
1, 6773, Note_on_c, 0, 63, 61
1, 6778, Note_on_c, 0, 67, 0
1, 6788, Note_on_c, 0, 55, 0
1, 6804, Note_on_c, 0, 63, 0
1, 6823, Note_on_c, 0, 48, 0
1, 6856, Note_on_c, 0, 48, 59
1, 6879, Note_on_c, 0, 63, 39
1, 6953, Note_on_c, 0, 43, 64
1, 6957, Note_on_c, 0, 55, 59
1, 6975, Note_on_c, 0, 48, 0
1, 6982, Note_on_c, 0, 63, 0
1, 7023, Note_on_c, 0, 43, 0
1, 7027, Note_on_c, 0, 55, 0
1, 7030, Note_on_c, 0, 36, 74
1, 7068, Control_c, 0, 64, 0
1, 7093, Note_on_c, 0, 50, 90
1, 7131, Control_c, 0, 64, 127
1, 7179, Note_on_c, 0, 41, 53
1, 7199, Note_on_c, 0, 56, 57
1, 7219, Note_on_c, 0, 50, 0
1, 7237, Note_on_c, 0, 36, 0
1, 7284, Note_on_c, 0, 62, 65
1, 7286, Note_on_c, 0, 48, 60
1, 7292, Note_on_c, 0, 41, 0
1, 7311, Note_on_c, 0, 56, 0
1, 7316, Note_on_c, 0, 48, 0
1, 7330, Note_on_c, 0, 62, 0
1, 7367, Note_on_c, 0, 48, 45
1, 7372, Note_on_c, 0, 62, 60
1, 7448, Note_on_c, 0, 68, 66
1, 7454, Note_on_c, 0, 53, 59
1, 7462, Note_on_c, 0, 62, 0
1, 7470, Note_on_c, 0, 48, 0
1, 7537, Note_on_c, 0, 74, 61
1, 7542, Note_on_c, 0, 60, 62
1, 7543, Note_on_c, 0, 53, 0
1, 7552, Note_on_c, 0, 68, 0
1, 7577, Note_on_c, 0, 60, 0
1, 7587, Note_on_c, 0, 74, 0
1, 7624, Note_on_c, 0, 60, 41
1, 7627, Note_on_c, 0, 74, 50
1, 7706, Note_on_c, 0, 80, 55
1, 7716, Note_on_c, 0, 60, 0
1, 7716, Note_on_c, 0, 65, 58
1, 7746, Note_on_c, 0, 74, 0
1, 7796, Note_on_c, 0, 80, 0
1, 7807, Note_on_c, 0, 65, 0
1, 7820, Note_on_c, 0, 86, 80
1, 7823, Note_on_c, 0, 72, 43
1, 7917, Note_on_c, 0, 80, 44
1, 7919, Note_on_c, 0, 65, 47
1, 7953, Note_on_c, 0, 72, 0
1, 7996, Note_on_c, 0, 86, 0
1, 8000, Note_on_c, 0, 74, 62
1, 8002, Note_on_c, 0, 60, 63
1, 8008, Note_on_c, 0, 65, 0
1, 8022, Note_on_c, 0, 80, 0
1, 8032, Note_on_c, 0, 74, 0
1, 8052, Note_on_c, 0, 60, 0
1, 8084, Note_on_c, 0, 74, 52
1, 8087, Note_on_c, 0, 60, 62
1, 8182, Note_on_c, 0, 53, 57
1, 8184, Note_on_c, 0, 68, 51
1, 8211, Note_on_c, 0, 74, 0
1, 8224, Note_on_c, 0, 60, 0
1, 8270, Note_on_c, 0, 62, 70
1, 8275, Note_on_c, 0, 48, 49
1, 8286, Note_on_c, 0, 68, 0
1, 8288, Note_on_c, 0, 53, 0
1, 8303, Note_on_c, 0, 62, 0
1, 8323, Note_on_c, 0, 48, 0
1, 8364, Note_on_c, 0, 48, 56
1, 8370, Note_on_c, 0, 62, 65
1, 8462, Note_on_c, 0, 56, 72
1, 8466, Note_on_c, 0, 62, 0
1, 8471, Note_on_c, 0, 41, 54
1, 8492, Note_on_c, 0, 48, 0
1, 8545, Note_on_c, 0, 41, 0
1, 8546, Note_on_c, 0, 36, 70
1, 8596, Note_on_c, 0, 56, 0
1, 8609, Control_c, 0, 64, 0
1, 8636, Note_on_c, 0, 51, 94
1, 8662, Control_c, 0, 64, 127
1, 8735, Note_on_c, 0, 41, 53
1, 8752, Note_on_c, 0, 56, 65
1, 8804, Note_on_c, 0, 51, 0
1, 8807, Note_on_c, 0, 36, 0
1, 8833, Note_on_c, 0, 47, 54
1, 8840, Note_on_c, 0, 63, 48
1, 8842, Note_on_c, 0, 41, 0
1, 8868, Note_on_c, 0, 47, 0
1, 8875, Note_on_c, 0, 56, 0
1, 8889, Note_on_c, 0, 63, 0
1, 8913, Note_on_c, 0, 48, 38
1, 8922, Note_on_c, 0, 63, 62
1, 8995, Note_on_c, 0, 53, 56
1, 8997, Note_on_c, 0, 68, 57
1, 9020, Note_on_c, 0, 48, 0
1, 9070, Note_on_c, 0, 63, 0
1, 9080, Note_on_c, 0, 75, 35
1, 9086, Note_on_c, 0, 59, 53
1, 9089, Note_on_c, 0, 53, 0
1, 9101, Note_on_c, 0, 68, 0
1, 9112, Note_on_c, 0, 59, 0
1, 9135, Note_on_c, 0, 75, 0
1, 9169, Note_on_c, 0, 60, 53
1, 9171, Note_on_c, 0, 75, 54
1, 9256, Note_on_c, 0, 80, 51
1, 9260, Note_on_c, 0, 65, 52
1, 9265, Note_on_c, 0, 60, 0
1, 9339, Note_on_c, 0, 75, 0
1, 9340, Note_on_c, 0, 80, 0
1, 9358, Note_on_c, 0, 65, 0
1, 9376, Note_on_c, 0, 71, 53
1, 9377, Note_on_c, 0, 87, 83
1, 9465, Note_on_c, 0, 80, 49
1, 9467, Note_on_c, 0, 65, 53
1, 9498, Note_on_c, 0, 71, 0
1, 9547, Note_on_c, 0, 87, 0
1, 9548, Note_on_c, 0, 75, 46
1, 9549, Note_on_c, 0, 60, 62
1, 9564, Note_on_c, 0, 65, 0
1, 9572, Note_on_c, 0, 80, 0
1, 9600, Note_on_c, 0, 75, 0
1, 9600, Note_on_c, 0, 60, 0
1, 9640, Note_on_c, 0, 59, 60
1, 9650, Note_on_c, 0, 75, 36
1, 9731, Note_on_c, 0, 75, 0
1, 9738, Note_on_c, 0, 53, 49
1, 9741, Note_on_c, 0, 68, 62
1, 9820, Note_on_c, 0, 59, 0
1, 9834, Note_on_c, 0, 63, 50
1, 9837, Note_on_c, 0, 48, 46
1, 9848, Note_on_c, 0, 53, 0
1, 9850, Note_on_c, 0, 68, 0
1, 9863, Note_on_c, 0, 63, 0
1, 9878, Note_on_c, 0, 48, 0
1, 9935, Note_on_c, 0, 47, 57
1, 9945, Note_on_c, 0, 63, 69
1, 10049, Note_on_c, 0, 56, 59
1, 10055, Note_on_c, 0, 41, 56
1, 10072, Note_on_c, 0, 47, 0
1, 10075, Note_on_c, 0, 63, 0
1, 10136, Note_on_c, 0, 41, 0
1, 10141, Note_on_c, 0, 36, 74
1, 10162, Note_on_c, 0, 56, 0
1, 10207, Control_c, 0, 64, 0
1, 10278, Control_c, 0, 64, 127
1, 10280, Note_on_c, 0, 48, 94
1, 10353, Note_on_c, 0, 48, 0
1, 10402, Note_on_c, 0, 43, 34
1, 10411, Note_on_c, 0, 36, 0
1, 10418, Note_on_c, 0, 51, 63
1, 10493, Note_on_c, 0, 51, 0
1, 10514, Note_on_c, 0, 60, 54
1, 10521, Note_on_c, 0, 43, 0
1, 10524, Note_on_c, 0, 48, 52
1, 10552, Note_on_c, 0, 60, 0
1, 10565, Note_on_c, 0, 48, 0
1, 10615, Note_on_c, 0, 48, 28
1, 10622, Note_on_c, 0, 60, 55
1, 10666, Note_on_c, 0, 60, 0
1, 10743, Note_on_c, 0, 63, 67
1, 10751, Note_on_c, 0, 55, 30
1, 10766, Note_on_c, 0, 48, 0
1, 10813, Note_on_c, 0, 63, 0
1, 10892, Note_on_c, 0, 55, 0
1, 10894, Note_on_c, 0, 72, 66
1, 10903, Note_on_c, 0, 60, 28
1, 11032, Note_on_c, 0, 63, 29
1, 11043, Note_on_c, 0, 60, 0
1, 11049, Note_on_c, 0, 55, 27
1, 11134, Note_on_c, 0, 55, 0
1, 11142, Note_on_c, 0, 63, 0
1, 11144, Note_on_c, 0, 60, 50
1, 11153, Note_on_c, 0, 72, 0
1, 11154, Note_on_c, 0, 48, 24
1, 11190, Note_on_c, 0, 60, 0
1, 11238, Note_on_c, 0, 63, 54
1, 11252, Note_on_c, 0, 55, 29
1, 11265, Note_on_c, 0, 48, 0
1, 11336, Note_on_c, 0, 63, 0
1, 11350, Note_on_c, 0, 70, 56
1, 11359, Note_on_c, 0, 55, 0
1, 11368, Note_on_c, 0, 60, 29
1, 11480, Note_on_c, 0, 60, 0
1, 11480, Note_on_c, 0, 63, 23
1, 11486, Note_on_c, 0, 55, 27
1, 11540, Note_on_c, 0, 55, 0
1, 11567, Note_on_c, 0, 63, 0
1, 11576, Note_on_c, 0, 48, 26
1, 11580, Note_on_c, 0, 60, 27
1, 11601, Note_on_c, 0, 60, 0
1, 11632, Note_on_c, 0, 70, 0
1, 11656, Note_on_c, 0, 63, 45
1, 11661, Note_on_c, 0, 48, 0
1, 11666, Note_on_c, 0, 55, 33
1, 11743, Note_on_c, 0, 63, 0
1, 11748, Note_on_c, 0, 68, 50
1, 11756, Note_on_c, 0, 55, 0
1, 11762, Note_on_c, 0, 60, 29
1, 11793, Control_c, 0, 64, 0
1, 11802, Control_c, 0, 64, 127
1, 11859, Note_on_c, 0, 63, 25
1, 11862, Note_on_c, 0, 60, 0
1, 11874, Note_on_c, 0, 55, 24
1, 11928, Note_on_c, 0, 55, 0
1, 11943, Note_on_c, 0, 63, 0
1, 11960, Note_on_c, 0, 48, 24
1, 11969, Note_on_c, 0, 60, 19
1, 12022, Note_on_c, 0, 68, 0
1, 12089, Note_on_c, 0, 62, 38
1, 12091, Note_on_c, 0, 55, 24
1, 12102, Note_on_c, 0, 48, 0
1, 12116, Note_on_c, 0, 60, 0
1, 12214, Note_on_c, 0, 62, 0
1, 12228, Note_on_c, 0, 67, 54
1, 12236, Note_on_c, 0, 59, 27
1, 12238, Note_on_c, 0, 55, 0
1, 12258, Control_c, 0, 64, 0
1, 12294, Control_c, 0, 64, 127
1, 12342, Note_on_c, 0, 62, 33
1, 12352, Note_on_c, 0, 59, 0
1, 12358, Note_on_c, 0, 55, 26
1, 12368, Note_on_c, 0, 67, 0
1, 12409, Note_on_c, 0, 55, 0
1, 12416, Note_on_c, 0, 62, 0
1, 12437, Note_on_c, 0, 59, 30
1, 12440, Note_on_c, 0, 48, 24
1, 12521, Note_on_c, 0, 61, 47
1, 12522, Note_on_c, 0, 48, 0
1, 12527, Note_on_c, 0, 55, 41
1, 12549, Note_on_c, 0, 59, 0
1, 12622, Note_on_c, 0, 61, 0
1, 12630, Note_on_c, 0, 67, 57
1, 12636, Note_on_c, 0, 55, 0
1, 12640, Note_on_c, 0, 58, 29
1, 12718, Note_on_c, 0, 58, 0
1, 12720, Note_on_c, 0, 55, 23
1, 12726, Note_on_c, 0, 61, 33
1, 12730, Note_on_c, 0, 67, 0
1, 12733, Note_on_c, 0, 55, 0
1, 12776, Note_on_c, 0, 48, 31
1, 12794, Note_on_c, 0, 61, 0
1, 12821, Note_on_c, 0, 58, 24
1, 12921, Note_on_c, 0, 60, 33
1, 12942, Note_on_c, 0, 53, 29
1, 12964, Note_on_c, 0, 48, 0
1, 12975, Control_c, 0, 64, 0
1, 13020, Control_c, 0, 64, 127
1, 13051, Note_on_c, 0, 65, 57
1, 13052, Note_on_c, 0, 60, 0
1, 13058, Note_on_c, 0, 57, 51
1, 13068, Note_on_c, 0, 53, 0
1, 13072, Note_on_c, 0, 57, 0
1, 13073, Note_on_c, 0, 58, 0
1, 13084, Note_on_c, 0, 57, 17
1, 13171, Note_on_c, 0, 60, 20
1, 13183, Note_on_c, 0, 57, 0
1, 13188, Note_on_c, 0, 53, 24
1, 13244, Note_on_c, 0, 60, 0
1, 13272, Note_on_c, 0, 53, 0
1, 13274, Note_on_c, 0, 57, 22
1, 13283, Note_on_c, 0, 48, 31
1, 13354, Note_on_c, 0, 65, 0
1, 13386, Note_on_c, 0, 59, 27
1, 13397, Note_on_c, 0, 57, 0
1, 13398, Note_on_c, 0, 48, 0
1, 13398, Note_on_c, 0, 53, 35
1, 13522, Note_on_c, 0, 59, 0
1, 13530, Note_on_c, 0, 65, 49
1, 13532, Note_on_c, 0, 53, 0
1, 13546, Note_on_c, 0, 56, 20
1, 13626, Note_on_c, 0, 53, 22
1, 13646, Note_on_c, 0, 56, 0
1, 13655, Note_on_c, 0, 59, 28
1, 13742, Note_on_c, 0, 48, 29
1, 13744, Note_on_c, 0, 53, 0
1, 13776, Note_on_c, 0, 56, 22
1, 13790, Note_on_c, 0, 48, 0
1, 13842, Note_on_c, 0, 59, 0
1, 13858, Note_on_c, 0, 65, 0
1, 13903, Note_on_c, 0, 36, 35
1, 13916, Note_on_c, 0, 56, 0
1, 14016, Control_c, 0, 64, 0
1, 14018, Note_on_c, 0, 51, 56
1, 14069, Control_c, 0, 64, 127
1, 14139, Note_on_c, 0, 55, 42
1, 14142, Note_on_c, 0, 43, 18
1, 14226, Note_on_c, 0, 51, 0
1, 14226, Note_on_c, 0, 36, 0
1, 14234, Note_on_c, 0, 63, 37
1, 14238, Note_on_c, 0, 55, 0
1, 14240, Note_on_c, 0, 48, 46
1, 14244, Note_on_c, 0, 43, 0
1, 14276, Note_on_c, 0, 48, 0
1, 14293, Note_on_c, 0, 63, 0
1, 14335, Note_on_c, 0, 48, 31
1, 14336, Note_on_c, 0, 63, 21
1, 14420, Note_on_c, 0, 67, 41
1, 14432, Note_on_c, 0, 55, 43
1, 14480, Note_on_c, 0, 48, 0
1, 14514, Note_on_c, 0, 75, 34
1, 14521, Note_on_c, 0, 63, 0
1, 14524, Note_on_c, 0, 60, 40
1, 14526, Note_on_c, 0, 55, 0
1, 14534, Note_on_c, 0, 67, 0
1, 14560, Note_on_c, 0, 60, 0
1, 14578, Note_on_c, 0, 75, 0
1, 14606, Note_on_c, 0, 60, 36
1, 14615, Note_on_c, 0, 75, 26
1, 14703, Note_on_c, 0, 79, 41
1, 14705, Note_on_c, 0, 67, 39
1, 14736, Note_on_c, 0, 60, 0
1, 14802, Note_on_c, 0, 79, 0
1, 14808, Note_on_c, 0, 87, 75
1, 14822, Note_on_c, 0, 72, 24
1, 14830, Note_on_c, 0, 67, 0
1, 14855, Note_on_c, 0, 75, 0
1, 14895, Note_on_c, 0, 79, 34
1, 14907, Note_on_c, 0, 67, 45
1, 14927, Note_on_c, 0, 72, 0
1, 14989, Note_on_c, 0, 75, 49
1, 14992, Note_on_c, 0, 87, 0
1, 14995, Note_on_c, 0, 60, 43
1, 15000, Note_on_c, 0, 79, 0
1, 15007, Note_on_c, 0, 67, 0
1, 15028, Note_on_c, 0, 75, 0
1, 15042, Note_on_c, 0, 60, 0
1, 15077, Note_on_c, 0, 60, 50
1, 15087, Note_on_c, 0, 75, 48
1, 15183, Note_on_c, 0, 67, 46
1, 15185, Note_on_c, 0, 55, 50
1, 15201, Note_on_c, 0, 75, 0
1, 15232, Note_on_c, 0, 60, 0
1, 15280, Note_on_c, 0, 63, 55
1, 15284, Note_on_c, 0, 67, 0
1, 15285, Note_on_c, 0, 48, 43
1, 15293, Note_on_c, 0, 55, 0
1, 15314, Note_on_c, 0, 63, 0
1, 15330, Note_on_c, 0, 48, 0
1, 15368, Note_on_c, 0, 48, 46
1, 15386, Note_on_c, 0, 63, 52
1, 15465, Note_on_c, 0, 43, 47
1, 15479, Note_on_c, 0, 55, 46
1, 15483, Note_on_c, 0, 63, 0
1, 15496, Note_on_c, 0, 48, 0
1, 15566, Note_on_c, 0, 36, 60
1, 15568, Note_on_c, 0, 43, 0
1, 15574, Note_on_c, 0, 55, 0
1, 15634, Control_c, 0, 64, 0
1, 15646, Note_on_c, 0, 50, 68
1, 15696, Control_c, 0, 64, 127
1, 15740, Note_on_c, 0, 41, 41
1, 15757, Note_on_c, 0, 56, 50
1, 15806, Note_on_c, 0, 36, 0
1, 15815, Note_on_c, 0, 50, 0
1, 15841, Note_on_c, 0, 62, 59
1, 15847, Note_on_c, 0, 48, 55
1, 15850, Note_on_c, 0, 41, 0
1, 15882, Note_on_c, 0, 48, 0
1, 15883, Note_on_c, 0, 56, 0
1, 15889, Note_on_c, 0, 62, 0
1, 15926, Note_on_c, 0, 48, 46
1, 15930, Note_on_c, 0, 62, 58
1, 16012, Note_on_c, 0, 68, 60
1, 16022, Note_on_c, 0, 53, 61
1, 16030, Note_on_c, 0, 48, 0
1, 16056, Note_on_c, 0, 62, 0
1, 16101, Note_on_c, 0, 74, 47
1, 16113, Note_on_c, 0, 60, 50
1, 16117, Note_on_c, 0, 53, 0
1, 16124, Note_on_c, 0, 68, 0
1, 16150, Note_on_c, 0, 60, 0
1, 16157, Note_on_c, 0, 74, 0
1, 16192, Note_on_c, 0, 74, 51
1, 16199, Note_on_c, 0, 60, 42
1, 16276, Note_on_c, 0, 80, 56
1, 16290, Note_on_c, 0, 65, 53
1, 16298, Note_on_c, 0, 60, 0
1, 16360, Note_on_c, 0, 74, 0
1, 16378, Note_on_c, 0, 65, 0
1, 16382, Note_on_c, 0, 80, 0
1, 16392, Note_on_c, 0, 86, 79
1, 16399, Note_on_c, 0, 72, 47
1, 16487, Note_on_c, 0, 80, 51
1, 16494, Note_on_c, 0, 65, 53
1, 16520, Note_on_c, 0, 72, 0
1, 16573, Note_on_c, 0, 86, 0
1, 16578, Note_on_c, 0, 60, 61
1, 16578, Note_on_c, 0, 74, 63
1, 16585, Note_on_c, 0, 65, 0
1, 16591, Note_on_c, 0, 80, 0
1, 16611, Note_on_c, 0, 74, 0
1, 16626, Note_on_c, 0, 60, 0
1, 16665, Note_on_c, 0, 60, 54
1, 16670, Note_on_c, 0, 74, 52
1, 16758, Note_on_c, 0, 53, 54
1, 16765, Note_on_c, 0, 68, 52
1, 16788, Note_on_c, 0, 74, 0
1, 16814, Note_on_c, 0, 60, 0
1, 16854, Note_on_c, 0, 62, 63
1, 16857, Note_on_c, 0, 48, 37
1, 16866, Note_on_c, 0, 68, 0
1, 16869, Note_on_c, 0, 53, 0
1, 16888, Note_on_c, 0, 62, 0
1, 16905, Note_on_c, 0, 48, 0
1, 16948, Note_on_c, 0, 48, 54
1, 16956, Note_on_c, 0, 62, 65
1, 17041, Note_on_c, 0, 62, 0
1, 17046, Note_on_c, 0, 56, 62
1, 17046, Note_on_c, 0, 41, 63
1, 17063, Note_on_c, 0, 48, 0
1, 17106, Note_on_c, 0, 41, 0
1, 17124, Note_on_c, 0, 36, 64
1, 17169, Note_on_c, 0, 53, 94
1, 17170, Note_on_c, 0, 56, 0
1, 17175, Control_c, 0, 64, 0
1, 17228, Control_c, 0, 64, 127
1, 17264, Note_on_c, 0, 60, 66
1, 17270, Note_on_c, 0, 44, 59
1, 17280, Note_on_c, 0, 53, 0
1, 17280, Note_on_c, 0, 36, 0
1, 17353, Note_on_c, 0, 65, 63
1, 17356, Note_on_c, 0, 48, 59
1, 17364, Note_on_c, 0, 60, 0
1, 17370, Note_on_c, 0, 44, 0
1, 17392, Note_on_c, 0, 48, 0
1, 17399, Note_on_c, 0, 65, 0
1, 17437, Note_on_c, 0, 48, 36
1, 17442, Note_on_c, 0, 65, 54
1, 17530, Note_on_c, 0, 72, 46
1, 17542, Note_on_c, 0, 56, 36
1, 17564, Note_on_c, 0, 65, 0
1, 17571, Note_on_c, 0, 48, 0
1, 17615, Note_on_c, 0, 77, 47
1, 17617, Note_on_c, 0, 60, 58
1, 17632, Note_on_c, 0, 72, 0
1, 17664, Note_on_c, 0, 60, 0
1, 17664, Note_on_c, 0, 77, 0
1, 17701, Note_on_c, 0, 56, 0
1, 17701, Note_on_c, 0, 60, 46
1, 17709, Note_on_c, 0, 77, 65
1, 17794, Note_on_c, 0, 84, 60
1, 17798, Note_on_c, 0, 68, 43
1, 17817, Note_on_c, 0, 60, 0
1, 17871, Note_on_c, 0, 77, 0
1, 17896, Note_on_c, 0, 84, 0
1, 17904, Note_on_c, 0, 89, 82
1, 17905, Note_on_c, 0, 68, 0
1, 17908, Note_on_c, 0, 72, 50
1, 17990, Note_on_c, 0, 68, 48
1, 17997, Note_on_c, 0, 84, 46
1, 18023, Note_on_c, 0, 72, 0
1, 18069, Note_on_c, 0, 89, 0
1, 18070, Note_on_c, 0, 60, 63
1, 18081, Note_on_c, 0, 77, 60
1, 18089, Note_on_c, 0, 68, 0
1, 18090, Note_on_c, 0, 84, 0
1, 18111, Note_on_c, 0, 77, 0
1, 18115, Note_on_c, 0, 60, 0
1, 18151, Note_on_c, 0, 60, 59
1, 18171, Note_on_c, 0, 77, 52
1, 18247, Note_on_c, 0, 77, 0
1, 18252, Note_on_c, 0, 56, 13
1, 18258, Note_on_c, 0, 72, 50
1, 18285, Note_on_c, 0, 60, 0
1, 18350, Note_on_c, 0, 65, 51
1, 18354, Note_on_c, 0, 72, 0
1, 18354, Note_on_c, 0, 48, 51
1, 18372, Note_on_c, 0, 56, 0
1, 18377, Note_on_c, 0, 65, 0
1, 18400, Note_on_c, 0, 48, 0
1, 18438, Note_on_c, 0, 48, 52
1, 18453, Note_on_c, 0, 65, 61
1, 18542, Note_on_c, 0, 60, 70
1, 18544, Note_on_c, 0, 44, 64
1, 18552, Note_on_c, 0, 65, 0
1, 18556, Note_on_c, 0, 48, 0
1, 18610, Note_on_c, 0, 44, 0
1, 18622, Note_on_c, 0, 36, 76
1, 18624, Note_on_c, 0, 60, 0
1, 18684, Control_c, 0, 64, 0
1, 18704, Note_on_c, 0, 52, 96
1, 18746, Control_c, 0, 64, 127
1, 18782, Note_on_c, 0, 52, 0
1, 18810, Note_on_c, 0, 55, 74
1, 18811, Note_on_c, 0, 43, 54
1, 18846, Note_on_c, 0, 36, 0
1, 18890, Note_on_c, 0, 55, 0
1, 18896, Note_on_c, 0, 64, 56
1, 18902, Note_on_c, 0, 48, 62
1, 18908, Note_on_c, 0, 43, 0
1, 18939, Note_on_c, 0, 48, 0
1, 18940, Note_on_c, 0, 64, 0
1, 18987, Note_on_c, 0, 64, 60
1, 18989, Note_on_c, 0, 48, 22
1, 19047, Note_on_c, 0, 64, 0
1, 19081, Note_on_c, 0, 67, 82
1, 19090, Note_on_c, 0, 55, 69
1, 19099, Note_on_c, 0, 48, 0
1, 19173, Note_on_c, 0, 60, 63
1, 19175, Note_on_c, 0, 76, 52
1, 19177, Note_on_c, 0, 55, 0
1, 19178, Note_on_c, 0, 67, 0
1, 19209, Note_on_c, 0, 60, 0
1, 19223, Note_on_c, 0, 76, 0
1, 19256, Note_on_c, 0, 60, 42
1, 19262, Note_on_c, 0, 76, 53
1, 19337, Note_on_c, 0, 79, 55
1, 19341, Note_on_c, 0, 60, 0
1, 19343, Note_on_c, 0, 67, 46
1, 19353, Note_on_c, 0, 76, 0
1, 19432, Note_on_c, 0, 79, 0
1, 19438, Note_on_c, 0, 67, 0
1, 19452, Note_on_c, 0, 88, 82
1, 19455, Note_on_c, 0, 72, 37
1, 19541, Note_on_c, 0, 67, 53
1, 19543, Note_on_c, 0, 79, 56
1, 19550, Note_on_c, 0, 72, 0
1, 19606, Note_on_c, 0, 88, 0
1, 19618, Note_on_c, 0, 76, 44
1, 19619, Note_on_c, 0, 60, 52
1, 19627, Note_on_c, 0, 67, 0
1, 19630, Note_on_c, 0, 79, 0
1, 19645, Note_on_c, 0, 76, 0
1, 19666, Note_on_c, 0, 60, 0
1, 19698, Note_on_c, 0, 60, 65
1, 19702, Note_on_c, 0, 76, 48
1, 19792, Note_on_c, 0, 55, 61
1, 19792, Note_on_c, 0, 67, 72
1, 19816, Note_on_c, 0, 76, 0
1, 19832, Note_on_c, 0, 60, 0
1, 19879, Note_on_c, 0, 64, 61
1, 19880, Note_on_c, 0, 48, 60
1, 19888, Note_on_c, 0, 67, 0
1, 19897, Note_on_c, 0, 55, 0
1, 19912, Note_on_c, 0, 64, 0
1, 19927, Note_on_c, 0, 48, 0
1, 19962, Note_on_c, 0, 48, 60
1, 19979, Note_on_c, 0, 64, 68
1, 20067, Note_on_c, 0, 43, 69
1, 20071, Note_on_c, 0, 55, 65
1, 20081, Note_on_c, 0, 43, 0
1, 20094, Note_on_c, 0, 64, 0
1, 20106, Note_on_c, 0, 48, 0
1, 20169, Note_on_c, 0, 55, 0
1, 20176, Note_on_c, 0, 41, 84
1, 20243, Control_c, 0, 64, 0
1, 20260, Note_on_c, 0, 56, 100
1, 20297, Control_c, 0, 64, 127
1, 20350, Note_on_c, 0, 61, 60
1, 20356, Note_on_c, 0, 49, 58
1, 20376, Note_on_c, 0, 56, 0
1, 20380, Note_on_c, 0, 41, 0
1, 20441, Note_on_c, 0, 68, 54
1, 20442, Note_on_c, 0, 53, 58
1, 20453, Note_on_c, 0, 49, 0
1, 20465, Note_on_c, 0, 61, 0
1, 20477, Note_on_c, 0, 53, 0
1, 20495, Note_on_c, 0, 68, 0
1, 20518, Note_on_c, 0, 53, 52
1, 20526, Note_on_c, 0, 68, 67
1, 20612, Note_on_c, 0, 73, 63
1, 20620, Note_on_c, 0, 61, 57
1, 20641, Note_on_c, 0, 53, 0
1, 20642, Note_on_c, 0, 68, 0
1, 20706, Note_on_c, 0, 65, 52
1, 20708, Note_on_c, 0, 80, 32
1, 20715, Note_on_c, 0, 61, 0
1, 20722, Note_on_c, 0, 73, 0
1, 20737, Note_on_c, 0, 65, 0
1, 20758, Note_on_c, 0, 80, 0
1, 20791, Note_on_c, 0, 80, 60
1, 20799, Note_on_c, 0, 65, 20
1, 20879, Note_on_c, 0, 85, 56
1, 20880, Note_on_c, 0, 73, 53
1, 20891, Note_on_c, 0, 65, 0
1, 20949, Note_on_c, 0, 85, 0
1, 20950, Note_on_c, 0, 80, 0
1, 20979, Note_on_c, 0, 73, 0
1, 20989, Note_on_c, 0, 92, 86
1, 20991, Note_on_c, 0, 77, 64
1, 21063, Note_on_c, 0, 73, 34
1, 21085, Note_on_c, 0, 85, 59
1, 21104, Note_on_c, 0, 77, 0
1, 21120, Note_on_c, 0, 92, 0
1, 21164, Note_on_c, 0, 65, 27
1, 21165, Note_on_c, 0, 80, 59
1, 21170, Note_on_c, 0, 73, 0
1, 21178, Note_on_c, 0, 85, 0
1, 21196, Note_on_c, 0, 80, 0
1, 21204, Note_on_c, 0, 65, 0
1, 21237, Note_on_c, 0, 65, 53
1, 21263, Note_on_c, 0, 80, 15
1, 21320, Note_on_c, 0, 80, 0
1, 21331, Note_on_c, 0, 61, 37
1, 21341, Note_on_c, 0, 73, 57
1, 21367, Note_on_c, 0, 65, 0
1, 21424, Note_on_c, 0, 68, 50
1, 21428, Note_on_c, 0, 53, 60
1, 21444, Note_on_c, 0, 73, 0
1, 21452, Note_on_c, 0, 61, 0
1, 21462, Note_on_c, 0, 68, 0
1, 21478, Note_on_c, 0, 53, 0
1, 21517, Note_on_c, 0, 53, 55
1, 21531, Note_on_c, 0, 68, 62
1, 21606, Note_on_c, 0, 53, 0
1, 21617, Note_on_c, 0, 61, 63
1, 21623, Note_on_c, 0, 49, 56
1, 21659, Note_on_c, 0, 68, 0
1, 21687, Note_on_c, 0, 49, 0
1, 21708, Note_on_c, 0, 43, 68
1, 21728, Note_on_c, 0, 61, 0
1, 21778, Control_c, 0, 64, 0
1, 21790, Note_on_c, 0, 55, 96
1, 21831, Control_c, 0, 64, 127
1, 21872, Note_on_c, 0, 55, 0
1, 21891, Note_on_c, 0, 50, 61
1, 21893, Note_on_c, 0, 59, 72
1, 21922, Note_on_c, 0, 43, 0
1, 21980, Note_on_c, 0, 67, 61
1, 21982, Note_on_c, 0, 59, 0
1, 21983, Note_on_c, 0, 53, 56
1, 21989, Note_on_c, 0, 50, 0
1, 22014, Note_on_c, 0, 67, 0
1, 22016, Note_on_c, 0, 53, 0
1, 22061, Note_on_c, 0, 55, 50
1, 22065, Note_on_c, 0, 67, 54
1, 22122, Note_on_c, 0, 67, 0
1, 22144, Note_on_c, 0, 71, 62
1, 22153, Note_on_c, 0, 62, 59
1, 22178, Note_on_c, 0, 55, 0
1, 22235, Note_on_c, 0, 79, 55
1, 22240, Note_on_c, 0, 71, 0
1, 22244, Note_on_c, 0, 65, 59
1, 22247, Note_on_c, 0, 62, 0
1, 22278, Note_on_c, 0, 65, 0
1, 22280, Note_on_c, 0, 79, 0
1, 22333, Note_on_c, 0, 79, 58
1, 22334, Note_on_c, 0, 67, 50
1, 22432, Note_on_c, 0, 83, 42
1, 22434, Note_on_c, 0, 74, 49
1, 22435, Note_on_c, 0, 67, 0
1, 22438, Note_on_c, 0, 79, 0
1, 22526, Note_on_c, 0, 74, 0
1, 22527, Note_on_c, 0, 83, 0
1, 22534, Note_on_c, 0, 77, 56
1, 22537, Note_on_c, 0, 91, 82
1, 22616, Note_on_c, 0, 74, 45
1, 22629, Note_on_c, 0, 83, 54
1, 22646, Note_on_c, 0, 77, 0
1, 22712, Note_on_c, 0, 67, 52
1, 22713, Note_on_c, 0, 91, 0
1, 22720, Note_on_c, 0, 79, 56
1, 22728, Note_on_c, 0, 74, 0
1, 22737, Note_on_c, 0, 83, 0
1, 22754, Note_on_c, 0, 79, 0
1, 22757, Note_on_c, 0, 67, 0
1, 22812, Note_on_c, 0, 65, 52
1, 22820, Note_on_c, 0, 79, 76
1, 22926, Note_on_c, 0, 62, 52
1, 22930, Note_on_c, 0, 71, 61
1, 22932, Note_on_c, 0, 79, 0
1, 22957, Note_on_c, 0, 65, 0
1, 23040, Note_on_c, 0, 62, 0
1, 23040, Note_on_c, 0, 71, 0
1, 23043, Note_on_c, 0, 67, 63
1, 23044, Note_on_c, 0, 55, 57
1, 23074, Note_on_c, 0, 67, 0
1, 23094, Note_on_c, 0, 55, 0
1, 23167, Note_on_c, 0, 53, 59
1, 23192, Note_on_c, 0, 67, 80
1, 23308, Note_on_c, 0, 50, 45
1, 23321, Note_on_c, 0, 53, 0
1, 23331, Note_on_c, 0, 50, 0
1, 23347, Note_on_c, 0, 67, 0
1, 23353, Note_on_c, 0, 59, 67
1, 23525, Note_on_c, 0, 59, 0
1, 23534, Note_on_c, 0, 36, 63
1, 23575, Control_c, 0, 64, 0
1, 23628, Control_c, 0, 64, 127
1, 23632, Note_on_c, 0, 52, 96
1, 23635, Control_c, 0, 64, 127
1, 23799, Note_on_c, 0, 55, 66
1, 23804, Note_on_c, 0, 43, 58
1, 23837, Note_on_c, 0, 36, 0
1, 23884, Note_on_c, 0, 52, 0
1, 23908, Note_on_c, 0, 64, 54
1, 23917, Note_on_c, 0, 48, 60
1, 23918, Note_on_c, 0, 55, 0
1, 23921, Note_on_c, 0, 43, 0
1, 23959, Note_on_c, 0, 48, 0
1, 23978, Note_on_c, 0, 64, 0
1, 24016, Note_on_c, 0, 48, 42
1, 24017, Note_on_c, 0, 64, 64
1, 24136, Note_on_c, 0, 67, 74
1, 24144, Note_on_c, 0, 55, 62
1, 24146, Note_on_c, 0, 64, 0
1, 24161, Note_on_c, 0, 48, 0
1, 24230, Note_on_c, 0, 76, 57
1, 24234, Note_on_c, 0, 60, 49
1, 24235, Note_on_c, 0, 55, 0
1, 24239, Note_on_c, 0, 67, 0
1, 24270, Note_on_c, 0, 60, 0
1, 24290, Note_on_c, 0, 76, 0
1, 24319, Note_on_c, 0, 60, 49
1, 24329, Note_on_c, 0, 76, 47
1, 24417, Note_on_c, 0, 67, 57
1, 24418, Note_on_c, 0, 79, 63
1, 24434, Note_on_c, 0, 76, 0
1, 24436, Note_on_c, 0, 60, 0
1, 24531, Note_on_c, 0, 67, 0
1, 24533, Note_on_c, 0, 88, 68
1, 24535, Note_on_c, 0, 72, 44
1, 24540, Note_on_c, 0, 79, 0
1, 24568, Note_on_c, 0, 72, 0
1, 24585, Note_on_c, 0, 88, 0
1, 24635, Note_on_c, 0, 88, 64
1, 24638, Note_on_c, 0, 72, 18
1, 24744, Note_on_c, 0, 91, 70
1, 24756, Note_on_c, 0, 79, 32
1, 24761, Note_on_c, 0, 72, 0
1, 24774, Note_on_c, 0, 88, 0
1, 24852, Note_on_c, 0, 91, 0
1, 24853, Note_on_c, 0, 100, 70
1, 24859, Note_on_c, 0, 84, 34
1, 24860, Note_on_c, 0, 79, 0
1, 24946, Note_on_c, 0, 79, 41
1, 24954, Note_on_c, 0, 91, 69
1, 24960, Note_on_c, 0, 84, 0
1, 25040, Note_on_c, 0, 88, 59
1, 25047, Note_on_c, 0, 100, 0
1, 25049, Note_on_c, 0, 72, 35
1, 25058, Note_on_c, 0, 91, 0
1, 25059, Note_on_c, 0, 79, 0
1, 25072, Note_on_c, 0, 88, 0
1, 25082, Note_on_c, 0, 72, 0
1, 25134, Note_on_c, 0, 72, 30
1, 25152, Note_on_c, 0, 88, 34
1, 25239, Note_on_c, 0, 79, 27
1, 25240, Note_on_c, 0, 67, 44
1, 25268, Note_on_c, 0, 88, 0
1, 25276, Note_on_c, 0, 72, 0
1, 25359, Note_on_c, 0, 60, 56
1, 25363, Note_on_c, 0, 76, 62
1, 25370, Note_on_c, 0, 67, 0
1, 25382, Note_on_c, 0, 79, 0
1, 25397, Note_on_c, 0, 60, 0
1, 25404, Note_on_c, 0, 76, 0
1, 25458, Note_on_c, 0, 60, 32
1, 25476, Note_on_c, 0, 76, 48
1, 25570, Note_on_c, 0, 55, 52
1, 25574, Note_on_c, 0, 67, 62
1, 25612, Note_on_c, 0, 60, 0
1, 25642, Note_on_c, 0, 76, 0
1, 25666, Note_on_c, 0, 64, 64
1, 25670, Note_on_c, 0, 48, 57
1, 25681, Note_on_c, 0, 67, 0
1, 25682, Note_on_c, 0, 55, 0
1, 25701, Note_on_c, 0, 64, 0
1, 25715, Note_on_c, 0, 48, 0
1, 25780, Note_on_c, 0, 48, 64
1, 25858, Note_on_c, 0, 64, 72
1, 25887, Control_c, 0, 64, 0
1, 25923, Control_c, 0, 64, 127
1, 25985, Note_on_c, 0, 43, 46
1, 25989, Note_on_c, 0, 55, 58
1, 26006, Note_on_c, 0, 48, 0
1, 26015, Note_on_c, 0, 64, 0
1, 26084, Note_on_c, 0, 52, 45
1, 26085, Note_on_c, 0, 55, 0
1, 26091, Note_on_c, 0, 36, 31
1, 26092, Note_on_c, 0, 43, 0
1, 26185, Note_on_c, 0, 43, 46
1, 26187, Note_on_c, 0, 55, 50
1, 26193, Note_on_c, 0, 52, 0
1, 26194, Note_on_c, 0, 36, 0
1, 26290, Note_on_c, 0, 55, 0
1, 26306, Note_on_c, 0, 47, 45
1, 26308, Note_on_c, 0, 50, 72
1, 26318, Note_on_c, 0, 43, 0
1, 26344, Control_c, 0, 64, 0
1, 26371, Control_c, 0, 64, 127
1, 26442, Note_on_c, 0, 43, 45
1, 26462, Note_on_c, 0, 55, 65
1, 26470, Note_on_c, 0, 47, 0
1, 26564, Note_on_c, 0, 62, 86
1, 26565, Note_on_c, 0, 55, 0
1, 26577, Note_on_c, 0, 36, 43
1, 26587, Note_on_c, 0, 43, 0
1, 26638, Note_on_c, 0, 50, 0
1, 26650, Note_on_c, 0, 55, 67
1, 26659, Note_on_c, 0, 62, 0
1, 26665, Note_on_c, 0, 43, 53
1, 26679, Note_on_c, 0, 36, 0
1, 26711, Note_on_c, 0, 55, 0
1, 26747, Note_on_c, 0, 50, 62
1, 26776, Control_c, 0, 64, 0
1, 26787, Note_on_c, 0, 43, 0
1, 26803, Control_c, 0, 64, 127
1, 26805, Note_on_c, 0, 53, 84
1, 26880, Note_on_c, 0, 53, 0
1, 26923, Note_on_c, 0, 55, 76
1, 26929, Note_on_c, 0, 43, 49
1, 26951, Note_on_c, 0, 55, 0
1, 26956, Note_on_c, 0, 50, 0
1, 27029, Note_on_c, 0, 43, 0
1, 27030, Note_on_c, 0, 67, 96
1, 27034, Note_on_c, 0, 36, 52
1, 27056, Note_on_c, 0, 67, 0
1, 27162, Note_on_c, 0, 55, 82
1, 27240, Note_on_c, 0, 43, 63
1, 27252, Note_on_c, 0, 36, 0
1, 27270, Note_on_c, 0, 55, 0
1, 27338, Note_on_c, 0, 36, 52
1, 27358, Note_on_c, 0, 43, 0
1, 27369, Note_on_c, 0, 52, 92
1, 27377, Control_c, 0, 64, 0
1, 27431, Control_c, 0, 64, 127
1, 27485, Note_on_c, 0, 43, 56
1, 27489, Note_on_c, 0, 55, 62
1, 27532, Note_on_c, 0, 52, 0
1, 27546, Note_on_c, 0, 36, 0
1, 27575, Note_on_c, 0, 64, 58
1, 27581, Note_on_c, 0, 55, 0
1, 27586, Note_on_c, 0, 48, 64
1, 27594, Note_on_c, 0, 43, 0
1, 27622, Note_on_c, 0, 48, 0
1, 27630, Note_on_c, 0, 64, 0
1, 27669, Note_on_c, 0, 64, 60
1, 27672, Note_on_c, 0, 48, 38
1, 27779, Note_on_c, 0, 67, 68
1, 27784, Note_on_c, 0, 55, 56
1, 27792, Note_on_c, 0, 64, 0
1, 27815, Note_on_c, 0, 48, 0
1, 27878, Note_on_c, 0, 76, 46
1, 27888, Note_on_c, 0, 60, 60
1, 27890, Note_on_c, 0, 67, 0
1, 27891, Note_on_c, 0, 55, 0
1, 27922, Note_on_c, 0, 60, 0
1, 27940, Note_on_c, 0, 76, 0
1, 27978, Note_on_c, 0, 60, 43
1, 27980, Note_on_c, 0, 76, 46
1, 28080, Note_on_c, 0, 79, 57
1, 28086, Note_on_c, 0, 67, 49
1, 28109, Note_on_c, 0, 60, 0
1, 28122, Note_on_c, 0, 76, 0
1, 28193, Note_on_c, 0, 88, 63
1, 28197, Note_on_c, 0, 67, 0
1, 28200, Note_on_c, 0, 72, 42
1, 28204, Note_on_c, 0, 79, 0
1, 28231, Note_on_c, 0, 72, 0
1, 28248, Note_on_c, 0, 88, 0
1, 28287, Note_on_c, 0, 72, 25
1, 28291, Note_on_c, 0, 88, 60
1, 28376, Note_on_c, 0, 72, 0
1, 28382, Note_on_c, 0, 79, 45
1, 28386, Note_on_c, 0, 91, 60
1, 28399, Note_on_c, 0, 88, 0
1, 28472, Note_on_c, 0, 79, 0
1, 28479, Note_on_c, 0, 84, 40
1, 28483, Note_on_c, 0, 100, 57
1, 28485, Note_on_c, 0, 91, 0
1, 28568, Note_on_c, 0, 79, 46
1, 28574, Note_on_c, 0, 91, 60
1, 28582, Note_on_c, 0, 84, 0
1, 28658, Note_on_c, 0, 100, 0
1, 28662, Note_on_c, 0, 88, 58
1, 28668, Note_on_c, 0, 72, 31
1, 28676, Note_on_c, 0, 91, 0
1, 28680, Note_on_c, 0, 79, 0
1, 28694, Note_on_c, 0, 88, 0
1, 28714, Note_on_c, 0, 72, 0
1, 28756, Note_on_c, 0, 72, 29
1, 28760, Note_on_c, 0, 88, 64
1, 28854, Note_on_c, 0, 79, 37
1, 28861, Note_on_c, 0, 67, 47
1, 28864, Note_on_c, 0, 88, 0
1, 28883, Note_on_c, 0, 72, 0
1, 28978, Note_on_c, 0, 60, 53
1, 28983, Note_on_c, 0, 76, 55
1, 28992, Note_on_c, 0, 67, 0
1, 28996, Note_on_c, 0, 79, 0
1, 29023, Note_on_c, 0, 76, 0
1, 29030, Note_on_c, 0, 60, 0
1, 29073, Note_on_c, 0, 60, 54
1, 29089, Note_on_c, 0, 76, 59
1, 29176, Note_on_c, 0, 55, 55
1, 29176, Note_on_c, 0, 67, 54
1, 29208, Note_on_c, 0, 76, 0
1, 29212, Note_on_c, 0, 60, 0
1, 29267, Note_on_c, 0, 64, 61
1, 29274, Note_on_c, 0, 48, 57
1, 29276, Note_on_c, 0, 67, 0
1, 29284, Note_on_c, 0, 55, 0
1, 29298, Note_on_c, 0, 64, 0
1, 29321, Note_on_c, 0, 48, 0
1, 29369, Note_on_c, 0, 48, 50
1, 29453, Note_on_c, 0, 64, 82
1, 29466, Control_c, 0, 64, 0
1, 29511, Control_c, 0, 64, 127
1, 29568, Note_on_c, 0, 43, 44
1, 29570, Note_on_c, 0, 48, 0
1, 29576, Note_on_c, 0, 55, 60
1, 29598, Note_on_c, 0, 64, 0
1, 29662, Note_on_c, 0, 55, 0
1, 29668, Note_on_c, 0, 52, 52
1, 29672, Note_on_c, 0, 43, 0
1, 29672, Note_on_c, 0, 36, 48
1, 29768, Note_on_c, 0, 52, 0
1, 29771, Note_on_c, 0, 55, 54
1, 29778, Note_on_c, 0, 43, 56
1, 29790, Note_on_c, 0, 36, 0
1, 29890, Note_on_c, 0, 55, 0
1, 29903, Note_on_c, 0, 43, 0
1, 29912, Note_on_c, 0, 47, 63
1, 29916, Note_on_c, 0, 50, 78
1, 29942, Control_c, 0, 64, 0
1, 29969, Control_c, 0, 64, 127
1, 30054, Note_on_c, 0, 43, 50
1, 30063, Note_on_c, 0, 55, 46
1, 30080, Note_on_c, 0, 47, 0
1, 30151, Note_on_c, 0, 55, 0
1, 30151, Note_on_c, 0, 43, 0
1, 30158, Note_on_c, 0, 62, 87
1, 30160, Note_on_c, 0, 36, 37
1, 30245, Note_on_c, 0, 55, 63
1, 30246, Note_on_c, 0, 62, 0
1, 30252, Note_on_c, 0, 43, 57
1, 30258, Note_on_c, 0, 36, 0
1, 30260, Note_on_c, 0, 50, 0
1, 30276, Note_on_c, 0, 55, 0
1, 30354, Note_on_c, 0, 43, 0
1, 30358, Note_on_c, 0, 45, 66
1, 30366, Note_on_c, 0, 48, 82
1, 30382, Control_c, 0, 64, 0
1, 30409, Control_c, 0, 64, 127
1, 30476, Note_on_c, 0, 55, 48
1, 30483, Note_on_c, 0, 43, 58
1, 30506, Note_on_c, 0, 45, 0
1, 30576, Note_on_c, 0, 36, 56
1, 30578, Note_on_c, 0, 60, 84
1, 30580, Note_on_c, 0, 43, 0
1, 30595, Note_on_c, 0, 55, 0
1, 30642, Note_on_c, 0, 48, 0
1, 30663, Note_on_c, 0, 60, 0
1, 30666, Note_on_c, 0, 55, 64
1, 30672, Note_on_c, 0, 43, 61
1, 30676, Note_on_c, 0, 36, 0
1, 30734, Note_on_c, 0, 43, 0
1, 30734, Note_on_c, 0, 55, 0
1, 30747, Note_on_c, 0, 36, 59
1, 30840, Control_c, 0, 64, 0
1, 30858, Note_on_c, 0, 50, 92
1, 30902, Control_c, 0, 64, 127
1, 30967, Note_on_c, 0, 43, 50
1, 30981, Note_on_c, 0, 55, 61
1, 31015, Note_on_c, 0, 50, 0
1, 31057, Note_on_c, 0, 36, 0
1, 31064, Note_on_c, 0, 62, 56
1, 31073, Note_on_c, 0, 55, 0
1, 31074, Note_on_c, 0, 47, 53
1, 31078, Note_on_c, 0, 43, 0
1, 31109, Note_on_c, 0, 47, 0
1, 31119, Note_on_c, 0, 62, 0
1, 31161, Note_on_c, 0, 62, 61
1, 31166, Note_on_c, 0, 48, 41
1, 31262, Note_on_c, 0, 62, 0
1, 31280, Note_on_c, 0, 67, 70
1, 31288, Note_on_c, 0, 55, 62
1, 31310, Note_on_c, 0, 48, 0
1, 31372, Note_on_c, 0, 74, 46
1, 31380, Note_on_c, 0, 59, 54
1, 31382, Note_on_c, 0, 55, 0
1, 31384, Note_on_c, 0, 67, 0
1, 31414, Note_on_c, 0, 59, 0
1, 31422, Note_on_c, 0, 74, 0
1, 31466, Note_on_c, 0, 74, 57
1, 31468, Note_on_c, 0, 60, 61
1, 31567, Note_on_c, 0, 79, 56
1, 31577, Note_on_c, 0, 67, 50
1, 31602, Note_on_c, 0, 60, 0
1, 31676, Note_on_c, 0, 74, 0
1, 31696, Note_on_c, 0, 86, 53
1, 31698, Note_on_c, 0, 71, 51
1, 31700, Note_on_c, 0, 67, 0
1, 31710, Note_on_c, 0, 79, 0
1, 31735, Note_on_c, 0, 71, 0
1, 31741, Note_on_c, 0, 86, 0
1, 31788, Note_on_c, 0, 86, 58
1, 31790, Note_on_c, 0, 72, 32
1, 31875, Note_on_c, 0, 72, 0
1, 31880, Note_on_c, 0, 79, 46
1, 31888, Note_on_c, 0, 91, 63
1, 31940, Note_on_c, 0, 86, 0
1, 31978, Note_on_c, 0, 79, 0
1, 31978, Note_on_c, 0, 98, 63
1, 31982, Note_on_c, 0, 91, 0
1, 31983, Note_on_c, 0, 83, 41
1, 32073, Note_on_c, 0, 79, 47
1, 32074, Note_on_c, 0, 91, 59
1, 32083, Note_on_c, 0, 83, 0
1, 32163, Note_on_c, 0, 98, 0
1, 32166, Note_on_c, 0, 86, 48
1, 32175, Note_on_c, 0, 72, 25
1, 32180, Note_on_c, 0, 91, 0
1, 32182, Note_on_c, 0, 79, 0
1, 32201, Note_on_c, 0, 86, 0
1, 32214, Note_on_c, 0, 72, 0
1, 32270, Note_on_c, 0, 71, 38
1, 32274, Note_on_c, 0, 86, 29
1, 32366, Note_on_c, 0, 79, 53
1, 32368, Note_on_c, 0, 86, 0
1, 32371, Note_on_c, 0, 67, 47
1, 32401, Note_on_c, 0, 71, 0
1, 32489, Note_on_c, 0, 60, 49
1, 32490, Note_on_c, 0, 74, 55
1, 32502, Note_on_c, 0, 79, 0
1, 32504, Note_on_c, 0, 67, 0
1, 32522, Note_on_c, 0, 74, 0
1, 32538, Note_on_c, 0, 60, 0
1, 32586, Note_on_c, 0, 59, 56
1, 32593, Note_on_c, 0, 74, 55
1, 32689, Note_on_c, 0, 55, 43
1, 32693, Note_on_c, 0, 67, 52
1, 32717, Note_on_c, 0, 74, 0
1, 32718, Note_on_c, 0, 59, 0
1, 32783, Note_on_c, 0, 62, 60
1, 32788, Note_on_c, 0, 48, 60
1, 32792, Note_on_c, 0, 67, 0
1, 32799, Note_on_c, 0, 55, 0
1, 32817, Note_on_c, 0, 62, 0
1, 32836, Note_on_c, 0, 48, 0
1, 32902, Note_on_c, 0, 48, 59
1, 32971, Note_on_c, 0, 62, 78
1, 33040, Note_on_c, 0, 48, 0
1, 33066, Note_on_c, 0, 43, 34
1, 33084, Note_on_c, 0, 55, 64
1, 33116, Note_on_c, 0, 62, 0
1, 33179, Note_on_c, 0, 50, 46
1, 33181, Note_on_c, 0, 55, 0
1, 33188, Note_on_c, 0, 36, 52
1, 33195, Note_on_c, 0, 43, 0
1, 33278, Note_on_c, 0, 55, 66
1, 33289, Note_on_c, 0, 43, 60
1, 33305, Note_on_c, 0, 36, 0
1, 33307, Note_on_c, 0, 55, 0
1, 33309, Note_on_c, 0, 50, 0
1, 33356, Note_on_c, 0, 43, 0
1, 33401, Note_on_c, 0, 45, 74
1, 33445, Control_c, 0, 64, 0
1, 33472, Note_on_c, 0, 48, 78
1, 33490, Control_c, 0, 64, 127
1, 33593, Note_on_c, 0, 53, 63
1, 33594, Note_on_c, 0, 41, 50
1, 33623, Note_on_c, 0, 45, 0
1, 33658, Note_on_c, 0, 48, 0
1, 33672, Note_on_c, 0, 53, 0
1, 33680, Note_on_c, 0, 41, 0
1, 33686, Note_on_c, 0, 60, 67
1, 33688, Note_on_c, 0, 36, 41
1, 33774, Note_on_c, 0, 60, 0
1, 33777, Note_on_c, 0, 41, 53
1, 33781, Note_on_c, 0, 53, 65
1, 33782, Note_on_c, 0, 36, 0
1, 33873, Note_on_c, 0, 41, 0
1, 33882, Note_on_c, 0, 45, 59
1, 33884, Note_on_c, 0, 53, 0
1, 33894, Note_on_c, 0, 48, 80
1, 33929, Control_c, 0, 64, 0
1, 33956, Control_c, 0, 64, 127
1, 34008, Note_on_c, 0, 53, 62
1, 34016, Note_on_c, 0, 41, 50
1, 34053, Note_on_c, 0, 45, 0
1, 34115, Note_on_c, 0, 41, 0
1, 34116, Note_on_c, 0, 57, 78
1, 34122, Note_on_c, 0, 36, 41
1, 34128, Note_on_c, 0, 53, 0
1, 34134, Note_on_c, 0, 48, 0
1, 34212, Note_on_c, 0, 41, 59
1, 34216, Note_on_c, 0, 53, 67
1, 34219, Note_on_c, 0, 36, 0
1, 34225, Note_on_c, 0, 57, 0
1, 34285, Note_on_c, 0, 41, 0
1, 34300, Note_on_c, 0, 36, 66
1, 34310, Note_on_c, 0, 53, 0
1, 34340, Control_c, 0, 64, 0
1, 34383, Note_on_c, 0, 48, 82
1, 34394, Control_c, 0, 64, 127
1, 34453, Note_on_c, 0, 48, 0
1, 34497, Note_on_c, 0, 53, 69
1, 34506, Note_on_c, 0, 44, 57
1, 34521, Note_on_c, 0, 36, 0
1, 34560, Note_on_c, 0, 53, 0
1, 34589, Note_on_c, 0, 60, 54
1, 34603, Note_on_c, 0, 48, 53
1, 34609, Note_on_c, 0, 44, 0
1, 34617, Note_on_c, 0, 48, 0
1, 34636, Note_on_c, 0, 60, 0
1, 34678, Note_on_c, 0, 60, 56
1, 34684, Note_on_c, 0, 48, 45
1, 34750, Note_on_c, 0, 60, 0
1, 34777, Note_on_c, 0, 65, 68
1, 34802, Note_on_c, 0, 56, 54
1, 34804, Note_on_c, 0, 48, 0
1, 34880, Note_on_c, 0, 72, 45
1, 34884, Note_on_c, 0, 60, 41
1, 34895, Note_on_c, 0, 65, 0
1, 34923, Note_on_c, 0, 60, 0
1, 34924, Note_on_c, 0, 56, 0
1, 34931, Note_on_c, 0, 72, 0
1, 34975, Note_on_c, 0, 72, 45
1, 34977, Note_on_c, 0, 60, 49
1, 35050, Note_on_c, 0, 72, 0
1, 35058, Note_on_c, 0, 60, 0
1, 35060, Note_on_c, 0, 77, 56
1, 35067, Note_on_c, 0, 68, 43
1, 35180, Note_on_c, 0, 77, 0
1, 35189, Note_on_c, 0, 84, 75
1, 35192, Note_on_c, 0, 68, 0
1, 35198, Note_on_c, 0, 72, 49
1, 35286, Note_on_c, 0, 68, 30
1, 35292, Note_on_c, 0, 77, 38
1, 35325, Note_on_c, 0, 72, 0
1, 35362, Note_on_c, 0, 84, 0
1, 35374, Note_on_c, 0, 72, 50
1, 35381, Note_on_c, 0, 60, 27
1, 35384, Note_on_c, 0, 77, 0
1, 35392, Note_on_c, 0, 68, 0
1, 35405, Note_on_c, 0, 72, 0
1, 35413, Note_on_c, 0, 60, 0
1, 35450, Note_on_c, 0, 60, 52
1, 35465, Note_on_c, 0, 72, 30
1, 35539, Note_on_c, 0, 72, 0
1, 35564, Note_on_c, 0, 56, 54
1, 35566, Note_on_c, 0, 60, 0
1, 35570, Note_on_c, 0, 65, 63
1, 35666, Note_on_c, 0, 60, 57
1, 35671, Note_on_c, 0, 48, 53
1, 35676, Note_on_c, 0, 65, 0
1, 35693, Note_on_c, 0, 56, 0
1, 35698, Note_on_c, 0, 60, 0
1, 35718, Note_on_c, 0, 48, 0
1, 35763, Note_on_c, 0, 48, 42
1, 35786, Note_on_c, 0, 62, 22
1, 35788, Note_on_c, 0, 60, 28
1, 35802, Note_on_c, 0, 60, 0
1, 35836, Note_on_c, 0, 62, 0
1, 35876, Note_on_c, 0, 53, 58
1, 35883, Note_on_c, 0, 44, 49
1, 35886, Note_on_c, 0, 48, 0
1, 35968, Note_on_c, 0, 44, 0
1, 35976, Note_on_c, 0, 36, 56
1, 35997, Note_on_c, 0, 53, 0
1, 36026, Control_c, 0, 64, 0
1, 36063, Note_on_c, 0, 48, 67
1, 36080, Control_c, 0, 64, 127
1, 36172, Note_on_c, 0, 52, 59
1, 36178, Note_on_c, 0, 43, 31
1, 36195, Note_on_c, 0, 36, 0
1, 36200, Note_on_c, 0, 48, 0
1, 36260, Note_on_c, 0, 60, 58
1, 36262, Note_on_c, 0, 52, 0
1, 36264, Note_on_c, 0, 48, 44
1, 36269, Note_on_c, 0, 43, 0
1, 36301, Note_on_c, 0, 48, 0
1, 36312, Note_on_c, 0, 60, 0
1, 36346, Note_on_c, 0, 48, 38
1, 36354, Note_on_c, 0, 60, 49
1, 36436, Note_on_c, 0, 60, 0
1, 36444, Note_on_c, 0, 64, 60
1, 36452, Note_on_c, 0, 55, 52
1, 36469, Note_on_c, 0, 48, 0
1, 36543, Note_on_c, 0, 72, 35
1, 36549, Note_on_c, 0, 55, 0
1, 36550, Note_on_c, 0, 60, 51
1, 36560, Note_on_c, 0, 64, 0
1, 36588, Note_on_c, 0, 60, 0
1, 36602, Note_on_c, 0, 72, 0
1, 36642, Note_on_c, 0, 60, 40
1, 36643, Note_on_c, 0, 72, 40
1, 36725, Note_on_c, 0, 72, 0
1, 36731, Note_on_c, 0, 76, 43
1, 36735, Note_on_c, 0, 60, 0
1, 36741, Note_on_c, 0, 67, 44
1, 36832, Note_on_c, 0, 76, 0
1, 36845, Note_on_c, 0, 72, 29
1, 36847, Note_on_c, 0, 84, 45
1, 36862, Note_on_c, 0, 67, 0
1, 36947, Note_on_c, 0, 67, 35
1, 36950, Note_on_c, 0, 76, 37
1, 36964, Note_on_c, 0, 72, 0
1, 37026, Note_on_c, 0, 84, 0
1, 37035, Note_on_c, 0, 72, 32
1, 37037, Note_on_c, 0, 60, 50
1, 37048, Note_on_c, 0, 67, 0
1, 37049, Note_on_c, 0, 76, 0
1, 37058, Note_on_c, 0, 72, 0
1, 37084, Note_on_c, 0, 60, 0
1, 37123, Note_on_c, 0, 60, 47
1, 37138, Note_on_c, 0, 72, 30
1, 37232, Note_on_c, 0, 55, 40
1, 37235, Note_on_c, 0, 64, 47
1, 37238, Note_on_c, 0, 72, 0
1, 37260, Note_on_c, 0, 60, 0
1, 37347, Note_on_c, 0, 60, 36
1, 37353, Note_on_c, 0, 48, 33
1, 37360, Note_on_c, 0, 64, 0
1, 37365, Note_on_c, 0, 55, 0
1, 37380, Note_on_c, 0, 60, 0
1, 37404, Note_on_c, 0, 48, 0
1, 37469, Note_on_c, 0, 48, 29
1, 37493, Note_on_c, 0, 60, 17
1, 37609, Note_on_c, 0, 52, 26
1, 37618, Note_on_c, 0, 43, 38
1, 37631, Note_on_c, 0, 48, 0
1, 37650, Note_on_c, 0, 43, 0
1, 37819, Note_on_c, 0, 32, 40
1, 37851, Note_on_c, 0, 60, 0
1, 37872, Control_c, 0, 64, 0
1, 37920, Note_on_c, 0, 52, 0
1, 37926, Control_c, 0, 64, 127
1, 37936, Note_on_c, 0, 48, 67
1, 38099, Note_on_c, 0, 48, 0
1, 38100, Note_on_c, 0, 51, 59
1, 38109, Note_on_c, 0, 39, 35
1, 38178, Note_on_c, 0, 32, 0
1, 38201, Note_on_c, 0, 60, 53
1, 38212, Note_on_c, 0, 44, 55
1, 38218, Note_on_c, 0, 51, 0
1, 38222, Note_on_c, 0, 39, 0
1, 38254, Note_on_c, 0, 44, 0
1, 38265, Note_on_c, 0, 60, 0
1, 38305, Note_on_c, 0, 60, 57
1, 38306, Note_on_c, 0, 44, 26
1, 38400, Note_on_c, 0, 44, 0
1, 38400, Note_on_c, 0, 60, 0
1, 38416, Note_on_c, 0, 63, 64
1, 38423, Note_on_c, 0, 51, 53
1, 38521, Note_on_c, 0, 72, 37
1, 38529, Note_on_c, 0, 56, 46
1, 38533, Note_on_c, 0, 63, 0
1, 38538, Note_on_c, 0, 51, 0
1, 38557, Note_on_c, 0, 56, 0
1, 38573, Note_on_c, 0, 72, 0
1, 38615, Note_on_c, 0, 72, 34
1, 38703, Note_on_c, 0, 63, 37
1, 38705, Note_on_c, 0, 75, 53
1, 38713, Note_on_c, 0, 72, 0
1, 38796, Note_on_c, 0, 84, 42
1, 38800, Note_on_c, 0, 68, 52
1, 38802, Note_on_c, 0, 63, 0
1, 38804, Note_on_c, 0, 75, 0
1, 38826, Note_on_c, 0, 68, 0
1, 38845, Note_on_c, 0, 84, 0
1, 38875, Note_on_c, 0, 68, 29
1, 38886, Note_on_c, 0, 84, 40
1, 38975, Note_on_c, 0, 87, 56
1, 38984, Note_on_c, 0, 75, 35
1, 38988, Note_on_c, 0, 68, 0
1, 38999, Note_on_c, 0, 84, 0
1, 39075, Note_on_c, 0, 87, 0
1, 39080, Note_on_c, 0, 96, 48
1, 39082, Note_on_c, 0, 80, 40
1, 39084, Note_on_c, 0, 75, 0
1, 39169, Note_on_c, 0, 75, 29
1, 39180, Note_on_c, 0, 87, 58
1, 39196, Note_on_c, 0, 80, 0
1, 39261, Note_on_c, 0, 96, 0
1, 39263, Note_on_c, 0, 84, 51
1, 39270, Note_on_c, 0, 68, 46
1, 39285, Note_on_c, 0, 87, 0
1, 39288, Note_on_c, 0, 75, 0
1, 39295, Note_on_c, 0, 84, 0
1, 39315, Note_on_c, 0, 68, 0
1, 39377, Note_on_c, 0, 84, 16
1, 39463, Note_on_c, 0, 75, 39
1, 39467, Note_on_c, 0, 63, 49
1, 39474, Note_on_c, 0, 84, 0
1, 39579, Note_on_c, 0, 72, 43
1, 39590, Note_on_c, 0, 56, 20
1, 39596, Note_on_c, 0, 63, 0
1, 39600, Note_on_c, 0, 75, 0
1, 39606, Note_on_c, 0, 72, 0
1, 39646, Note_on_c, 0, 56, 0
1, 39678, Note_on_c, 0, 56, 17
1, 39686, Note_on_c, 0, 72, 34
1, 39781, Note_on_c, 0, 51, 43
1, 39789, Note_on_c, 0, 63, 43
1, 39810, Note_on_c, 0, 56, 0
1, 39867, Note_on_c, 0, 72, 0
1, 39879, Note_on_c, 0, 60, 61
1, 39881, Note_on_c, 0, 44, 45
1, 39894, Note_on_c, 0, 63, 0
1, 39895, Note_on_c, 0, 51, 0
1, 39897, Note_on_c, 0, 60, 0
1, 39920, Note_on_c, 0, 44, 0
1, 39982, Note_on_c, 0, 44, 36
1, 40066, Note_on_c, 0, 60, 64
1, 40179, Note_on_c, 0, 51, 33
1, 40181, Note_on_c, 0, 39, 33
1, 40197, Note_on_c, 0, 44, 0
1, 40281, Note_on_c, 0, 51, 0
1, 40282, Note_on_c, 0, 48, 31
1, 40283, Note_on_c, 0, 32, 37
1, 40288, Note_on_c, 0, 60, 0
1, 40297, Note_on_c, 0, 39, 0
1, 40369, Note_on_c, 0, 48, 0
1, 40376, Note_on_c, 0, 51, 40
1, 40384, Note_on_c, 0, 39, 38
1, 40394, Note_on_c, 0, 32, 0
1, 40434, Note_on_c, 0, 51, 0
1, 40507, Note_on_c, 0, 43, 53
1, 40512, Note_on_c, 0, 39, 0
1, 40528, Control_c, 0, 64, 0
1, 40557, Note_on_c, 0, 46, 48
1, 40573, Control_c, 0, 64, 127
1, 40654, Note_on_c, 0, 39, 40
1, 40668, Note_on_c, 0, 43, 0
1, 40672, Note_on_c, 0, 51, 52
1, 40740, Note_on_c, 0, 46, 0
1, 40747, Note_on_c, 0, 51, 0
1, 40758, Note_on_c, 0, 58, 81
1, 40761, Note_on_c, 0, 32, 31
1, 40764, Note_on_c, 0, 39, 0
1, 40796, Control_c, 0, 64, 0
1, 40823, Control_c, 0, 64, 127
1, 40849, Note_on_c, 0, 51, 48
1, 40863, Note_on_c, 0, 58, 0
1, 40876, Note_on_c, 0, 39, 33
1, 40894, Note_on_c, 0, 32, 0
1, 40941, Note_on_c, 0, 51, 0
1, 40948, Note_on_c, 0, 49, 59
1, 40970, Note_on_c, 0, 39, 0
1, 40974, Note_on_c, 0, 46, 30
1, 41037, Note_on_c, 0, 49, 0
1, 41056, Note_on_c, 0, 51, 64
1, 41088, Note_on_c, 0, 39, 47
1, 41097, Note_on_c, 0, 51, 0
1, 41104, Note_on_c, 0, 46, 0
1, 41158, Note_on_c, 0, 32, 39
1, 41166, Note_on_c, 0, 39, 0
1, 41212, Note_on_c, 0, 63, 95
1, 41254, Note_on_c, 0, 63, 0
1, 41356, Note_on_c, 0, 51, 69
1, 41358, Note_on_c, 0, 39, 39
1, 41375, Note_on_c, 0, 32, 0
1, 41388, Note_on_c, 0, 51, 0
1, 41459, Note_on_c, 0, 32, 31
1, 41476, Note_on_c, 0, 39, 0
1, 41497, Control_c, 0, 64, 0
1, 41524, Note_on_c, 0, 48, 84
1, 41551, Control_c, 0, 64, 127
1, 41613, Note_on_c, 0, 39, 35
1, 41616, Note_on_c, 0, 48, 0
1, 41646, Note_on_c, 0, 51, 57
1, 41717, Note_on_c, 0, 32, 0
1, 41727, Note_on_c, 0, 60, 57
1, 41729, Note_on_c, 0, 51, 0
1, 41732, Note_on_c, 0, 44, 56
1, 41740, Note_on_c, 0, 39, 0
1, 41765, Note_on_c, 0, 60, 0
1, 41770, Note_on_c, 0, 44, 0
1, 41820, Note_on_c, 0, 60, 50
1, 41871, Note_on_c, 0, 60, 0
1, 41910, Note_on_c, 0, 63, 65
1, 41918, Note_on_c, 0, 51, 54
1, 42002, Note_on_c, 0, 51, 0
1, 42006, Note_on_c, 0, 72, 36
1, 42009, Note_on_c, 0, 63, 0
1, 42011, Note_on_c, 0, 56, 59
1, 42042, Note_on_c, 0, 72, 0
1, 42047, Note_on_c, 0, 56, 0
1, 42100, Note_on_c, 0, 72, 45
1, 42108, Note_on_c, 0, 56, 21
1, 42192, Note_on_c, 0, 72, 0
1, 42197, Note_on_c, 0, 75, 43
1, 42208, Note_on_c, 0, 63, 48
1, 42240, Note_on_c, 0, 56, 0
1, 42314, Note_on_c, 0, 84, 39
1, 42316, Note_on_c, 0, 68, 51
1, 42323, Note_on_c, 0, 75, 0
1, 42324, Note_on_c, 0, 63, 0
1, 42346, Note_on_c, 0, 68, 0
1, 42362, Note_on_c, 0, 84, 0
1, 42404, Note_on_c, 0, 68, 24
1, 42419, Note_on_c, 0, 84, 20
1, 42501, Note_on_c, 0, 87, 41
1, 42506, Note_on_c, 0, 75, 32
1, 42526, Note_on_c, 0, 68, 0
1, 42539, Note_on_c, 0, 84, 0
1, 42602, Note_on_c, 0, 87, 0
1, 42603, Note_on_c, 0, 96, 65
1, 42608, Note_on_c, 0, 75, 0
1, 42611, Note_on_c, 0, 80, 48
1, 42698, Note_on_c, 0, 75, 35
1, 42701, Note_on_c, 0, 87, 62
1, 42720, Note_on_c, 0, 80, 0
1, 42794, Note_on_c, 0, 68, 49
1, 42797, Note_on_c, 0, 96, 0
1, 42798, Note_on_c, 0, 84, 49
1, 42815, Note_on_c, 0, 75, 0
1, 42819, Note_on_c, 0, 87, 0
1, 42831, Note_on_c, 0, 84, 0
1, 42837, Note_on_c, 0, 68, 0
1, 42894, Note_on_c, 0, 68, 13
1, 42896, Note_on_c, 0, 84, 58
1, 42986, Note_on_c, 0, 63, 44
1, 42997, Note_on_c, 0, 75, 29
1, 42998, Note_on_c, 0, 84, 0
1, 43046, Note_on_c, 0, 68, 0
1, 43099, Note_on_c, 0, 72, 40
1, 43102, Note_on_c, 0, 56, 20
1, 43120, Note_on_c, 0, 63, 0
1, 43122, Note_on_c, 0, 75, 0
1, 43127, Note_on_c, 0, 72, 0
1, 43171, Note_on_c, 0, 56, 0
1, 43187, Note_on_c, 0, 56, 24
1, 43200, Note_on_c, 0, 72, 46
1, 43290, Note_on_c, 0, 51, 47
1, 43298, Note_on_c, 0, 63, 35
1, 43314, Note_on_c, 0, 56, 0
1, 43369, Note_on_c, 0, 72, 0
1, 43382, Note_on_c, 0, 44, 56
1, 43386, Note_on_c, 0, 60, 64
1, 43394, Note_on_c, 0, 63, 0
1, 43398, Note_on_c, 0, 51, 0
1, 43400, Note_on_c, 0, 60, 0
1, 43424, Note_on_c, 0, 44, 0
1, 43478, Note_on_c, 0, 44, 25
1, 43556, Note_on_c, 0, 60, 64
1, 43670, Note_on_c, 0, 51, 34
1, 43672, Note_on_c, 0, 39, 39
1, 43696, Note_on_c, 0, 44, 0
1, 43752, Note_on_c, 0, 60, 0
1, 43766, Note_on_c, 0, 48, 46
1, 43767, Note_on_c, 0, 32, 42
1, 43770, Note_on_c, 0, 51, 0
1, 43775, Note_on_c, 0, 39, 0
1, 43844, Note_on_c, 0, 48, 0
1, 43853, Note_on_c, 0, 51, 48
1, 43858, Note_on_c, 0, 39, 36
1, 43864, Note_on_c, 0, 32, 0
1, 43912, Note_on_c, 0, 51, 0
1, 43964, Note_on_c, 0, 43, 58
1, 43966, Note_on_c, 0, 39, 0
1, 43981, Control_c, 0, 64, 0
1, 43982, Note_on_c, 0, 46, 59
1, 44026, Control_c, 0, 64, 127
1, 44089, Note_on_c, 0, 39, 39
1, 44101, Note_on_c, 0, 51, 51
1, 44107, Note_on_c, 0, 43, 0
1, 44160, Note_on_c, 0, 39, 0
1, 44172, Note_on_c, 0, 51, 0
1, 44186, Note_on_c, 0, 58, 57
1, 44188, Note_on_c, 0, 32, 32
1, 44280, Note_on_c, 0, 51, 47
1, 44282, Note_on_c, 0, 58, 0
1, 44285, Note_on_c, 0, 39, 52
1, 44310, Note_on_c, 0, 32, 0
1, 44313, Note_on_c, 0, 46, 0
1, 44331, Note_on_c, 0, 51, 0
1, 44376, Note_on_c, 0, 39, 0
1, 44390, Note_on_c, 0, 44, 84
1, 44390, Note_on_c, 0, 41, 54
1, 44421, Control_c, 0, 64, 0
1, 44466, Control_c, 0, 64, 127
1, 44507, Note_on_c, 0, 51, 37
1, 44509, Note_on_c, 0, 39, 38
1, 44533, Note_on_c, 0, 41, 0
1, 44590, Note_on_c, 0, 51, 0
1, 44607, Note_on_c, 0, 32, 40
1, 44608, Note_on_c, 0, 56, 53
1, 44614, Note_on_c, 0, 39, 0
1, 44698, Note_on_c, 0, 51, 48
1, 44701, Note_on_c, 0, 39, 47
1, 44713, Note_on_c, 0, 44, 0
1, 44716, Note_on_c, 0, 32, 0
1, 44722, Note_on_c, 0, 56, 0
1, 44773, Note_on_c, 0, 39, 0
1, 44774, Note_on_c, 0, 32, 51
1, 44776, Note_on_c, 0, 51, 0
1, 44808, Control_c, 0, 64, 0
1, 44861, Note_on_c, 0, 46, 70
1, 44870, Control_c, 0, 64, 127
1, 44970, Note_on_c, 0, 51, 50
1, 44975, Note_on_c, 0, 39, 35
1, 45039, Note_on_c, 0, 46, 0
1, 45052, Note_on_c, 0, 32, 0
1, 45068, Note_on_c, 0, 43, 48
1, 45069, Note_on_c, 0, 58, 32
1, 45074, Note_on_c, 0, 39, 0
1, 45082, Note_on_c, 0, 43, 0
1, 45091, Note_on_c, 0, 51, 0
1, 45119, Note_on_c, 0, 58, 0
1, 45152, Note_on_c, 0, 44, 39
1, 45155, Note_on_c, 0, 58, 41
1, 45246, Note_on_c, 0, 63, 54
1, 45252, Note_on_c, 0, 51, 53
1, 45267, Note_on_c, 0, 44, 0
1, 45314, Note_on_c, 0, 58, 0
1, 45345, Note_on_c, 0, 70, 33
1, 45347, Note_on_c, 0, 55, 50
1, 45349, Note_on_c, 0, 51, 0
1, 45360, Note_on_c, 0, 55, 0
1, 45369, Note_on_c, 0, 63, 0
1, 45399, Note_on_c, 0, 70, 0
1, 45424, Note_on_c, 0, 56, 34
1, 45432, Note_on_c, 0, 70, 53
1, 45519, Note_on_c, 0, 75, 38
1, 45528, Note_on_c, 0, 56, 0
1, 45530, Note_on_c, 0, 63, 43
1, 45620, Note_on_c, 0, 82, 37
1, 45624, Note_on_c, 0, 70, 0
1, 45625, Note_on_c, 0, 63, 0
1, 45630, Note_on_c, 0, 69, 29
1, 45632, Note_on_c, 0, 67, 24
1, 45644, Note_on_c, 0, 69, 0
1, 45646, Note_on_c, 0, 67, 0
1, 45647, Note_on_c, 0, 75, 0
1, 45672, Note_on_c, 0, 82, 0
1, 45702, Note_on_c, 0, 68, 35
1, 45711, Note_on_c, 0, 82, 45
1, 45809, Note_on_c, 0, 87, 53
1, 45815, Note_on_c, 0, 75, 26
1, 45832, Note_on_c, 0, 68, 0
1, 45896, Note_on_c, 0, 82, 0
1, 45902, Note_on_c, 0, 87, 0
1, 45907, Note_on_c, 0, 94, 58
1, 45913, Note_on_c, 0, 79, 46
1, 45915, Note_on_c, 0, 75, 0
1, 46004, Note_on_c, 0, 75, 29
1, 46008, Note_on_c, 0, 87, 61
1, 46042, Note_on_c, 0, 79, 0
1, 46080, Note_on_c, 0, 94, 0
1, 46080, Note_on_c, 0, 75, 0
1, 46080, Note_on_c, 0, 87, 0
1, 46093, Note_on_c, 0, 82, 56
1, 46094, Note_on_c, 0, 68, 45
1, 46124, Note_on_c, 0, 82, 0
1, 46140, Note_on_c, 0, 68, 0
1, 46182, Note_on_c, 0, 67, 56
1, 46186, Note_on_c, 0, 82, 35
1, 46272, Note_on_c, 0, 82, 0
1, 46286, Note_on_c, 0, 75, 46
1, 46288, Note_on_c, 0, 63, 49
1, 46310, Note_on_c, 0, 67, 0
1, 46401, Note_on_c, 0, 56, 39
1, 46404, Note_on_c, 0, 70, 59
1, 46431, Note_on_c, 0, 63, 0
1, 46436, Note_on_c, 0, 75, 0
1, 46448, Note_on_c, 0, 70, 0
1, 46476, Note_on_c, 0, 56, 0
1, 46503, Note_on_c, 0, 55, 56
1, 46516, Note_on_c, 0, 70, 20
1, 46598, Note_on_c, 0, 63, 48
1, 46602, Note_on_c, 0, 51, 42
1, 46623, Note_on_c, 0, 55, 0
1, 46651, Note_on_c, 0, 70, 0
1, 46690, Note_on_c, 0, 58, 57
1, 46700, Note_on_c, 0, 63, 0
1, 46700, Note_on_c, 0, 44, 52
1, 46717, Note_on_c, 0, 58, 0
1, 46719, Note_on_c, 0, 51, 0
1, 46743, Note_on_c, 0, 44, 0
1, 46793, Note_on_c, 0, 43, 72
1, 46864, Note_on_c, 0, 58, 69
1, 46974, Note_on_c, 0, 39, 43
1, 46978, Note_on_c, 0, 51, 46
1, 46982, Note_on_c, 0, 43, 0
1, 47066, Note_on_c, 0, 46, 49
1, 47073, Note_on_c, 0, 39, 0
1, 47074, Note_on_c, 0, 51, 0
1, 47082, Note_on_c, 0, 32, 21
1, 47157, Note_on_c, 0, 58, 0
1, 47160, Note_on_c, 0, 39, 51
1, 47162, Note_on_c, 0, 51, 40
1, 47182, Note_on_c, 0, 32, 0
1, 47198, Note_on_c, 0, 51, 0
1, 47212, Note_on_c, 0, 46, 0
1, 47232, Note_on_c, 0, 39, 0
1, 47273, Note_on_c, 0, 41, 60
1, 47301, Note_on_c, 0, 44, 70
1, 47318, Control_c, 0, 64, 0
1, 47345, Control_c, 0, 64, 127
1, 47405, Note_on_c, 0, 37, 39
1, 47420, Note_on_c, 0, 49, 60
1, 47428, Note_on_c, 0, 41, 0
1, 47486, Note_on_c, 0, 44, 0
1, 47493, Note_on_c, 0, 37, 0
1, 47500, Note_on_c, 0, 49, 0
1, 47506, Note_on_c, 0, 32, 27
1, 47511, Note_on_c, 0, 56, 65
1, 47611, Note_on_c, 0, 32, 0
1, 47614, Note_on_c, 0, 49, 60
1, 47614, Note_on_c, 0, 37, 40
1, 47620, Note_on_c, 0, 56, 0
1, 47728, Note_on_c, 0, 41, 59
1, 47731, Note_on_c, 0, 37, 0
1, 47732, Note_on_c, 0, 49, 0
1, 47733, Note_on_c, 0, 44, 78
1, 47766, Control_c, 0, 64, 0
1, 47810, Control_c, 0, 64, 127
1, 47854, Note_on_c, 0, 49, 55
1, 47857, Note_on_c, 0, 37, 30
1, 47881, Note_on_c, 0, 41, 0
1, 47883, Note_on_c, 0, 44, 0
1, 47967, Note_on_c, 0, 32, 30
1, 47971, Note_on_c, 0, 49, 0
1, 47974, Note_on_c, 0, 37, 0
1, 47987, Note_on_c, 0, 53, 78
1, 48116, Note_on_c, 0, 53, 0
1, 48123, Note_on_c, 0, 49, 46
1, 48127, Note_on_c, 0, 37, 33
1, 48136, Note_on_c, 0, 32, 0
1, 48222, Note_on_c, 0, 32, 43
1, 48228, Note_on_c, 0, 37, 0
1, 48252, Note_on_c, 0, 49, 0
1, 48278, Control_c, 0, 64, 0
1, 48294, Note_on_c, 0, 44, 92
1, 48332, Control_c, 0, 64, 127
1, 48371, Note_on_c, 0, 44, 0
1, 48425, Note_on_c, 0, 49, 50
1, 48428, Note_on_c, 0, 40, 49
1, 48433, Note_on_c, 0, 32, 0
1, 48522, Note_on_c, 0, 49, 0
1, 48524, Note_on_c, 0, 56, 54
1, 48526, Note_on_c, 0, 40, 0
1, 48532, Note_on_c, 0, 44, 45
1, 48571, Note_on_c, 0, 44, 0
1, 48572, Note_on_c, 0, 56, 0
1, 48610, Note_on_c, 0, 44, 45
1, 48617, Note_on_c, 0, 56, 53
1, 48688, Note_on_c, 0, 56, 0
1, 48702, Note_on_c, 0, 61, 52
1, 48703, Note_on_c, 0, 44, 0
1, 48712, Note_on_c, 0, 52, 58
1, 48789, Note_on_c, 0, 68, 53
1, 48795, Note_on_c, 0, 52, 0
1, 48801, Note_on_c, 0, 61, 0
1, 48847, Note_on_c, 0, 68, 0
1, 48887, Note_on_c, 0, 68, 51
1, 48896, Note_on_c, 0, 56, 14
1, 48949, Note_on_c, 0, 68, 0
1, 48975, Note_on_c, 0, 73, 40
1, 48992, Note_on_c, 0, 64, 37
1, 49030, Note_on_c, 0, 56, 0
1, 49052, Note_on_c, 0, 73, 0
1, 49113, Note_on_c, 0, 80, 58
1, 49116, Note_on_c, 0, 68, 32
1, 49121, Note_on_c, 0, 64, 0
1, 49210, Note_on_c, 0, 64, 35
1, 49220, Note_on_c, 0, 73, 37
1, 49223, Note_on_c, 0, 68, 0
1, 49305, Note_on_c, 0, 56, 12
1, 49308, Note_on_c, 0, 80, 0
1, 49310, Note_on_c, 0, 68, 54
1, 49312, Note_on_c, 0, 64, 0
1, 49322, Note_on_c, 0, 73, 0
1, 49343, Note_on_c, 0, 68, 0
1, 49420, Note_on_c, 0, 68, 23
1, 49490, Note_on_c, 0, 68, 0
1, 49498, Note_on_c, 0, 56, 0
1, 49503, Note_on_c, 0, 52, 28
1, 49508, Note_on_c, 0, 61, 43
1, 49604, Note_on_c, 0, 56, 40
1, 49605, Note_on_c, 0, 44, 46
1, 49611, Note_on_c, 0, 61, 0
1, 49611, Note_on_c, 0, 52, 0
1, 49641, Note_on_c, 0, 56, 0
1, 49659, Note_on_c, 0, 44, 0
1, 49708, Note_on_c, 0, 44, 26
1, 49719, Note_on_c, 0, 56, 28
1, 49821, Note_on_c, 0, 56, 0
1, 49821, Note_on_c, 0, 49, 33
1, 49824, Note_on_c, 0, 44, 0
1, 49832, Note_on_c, 0, 40, 24
1, 49904, Note_on_c, 0, 40, 0
1, 49920, Note_on_c, 0, 49, 0
1, 49933, Note_on_c, 0, 32, 26
1, 49994, Control_c, 0, 64, 0
1, 50025, Note_on_c, 0, 44, 36
1, 50048, Control_c, 0, 64, 127
1, 50140, Note_on_c, 0, 48, 34
1, 50148, Note_on_c, 0, 39, 30
1, 50166, Note_on_c, 0, 44, 0
1, 50186, Note_on_c, 0, 32, 0
1, 50234, Note_on_c, 0, 48, 0
1, 50246, Note_on_c, 0, 56, 29
1, 50248, Note_on_c, 0, 44, 51
1, 50251, Note_on_c, 0, 39, 0
1, 50282, Note_on_c, 0, 44, 0
1, 50307, Note_on_c, 0, 56, 0
1, 50334, Note_on_c, 0, 44, 37
1, 50350, Note_on_c, 0, 56, 23
1, 50436, Note_on_c, 0, 44, 0
1, 50436, Note_on_c, 0, 60, 33
1, 50438, Note_on_c, 0, 51, 32
1, 50452, Note_on_c, 0, 56, 0
1, 50516, Note_on_c, 0, 60, 0
1, 50545, Note_on_c, 0, 68, 29
1, 50552, Note_on_c, 0, 56, 14
1, 50556, Note_on_c, 0, 51, 0
1, 50637, Note_on_c, 0, 51, 27
1, 50646, Note_on_c, 0, 56, 0
1, 50653, Note_on_c, 0, 60, 27
1, 50742, Note_on_c, 0, 44, 32
1, 50744, Note_on_c, 0, 51, 0
1, 50747, Note_on_c, 0, 56, 35
1, 50748, Note_on_c, 0, 60, 0
1, 50759, Note_on_c, 0, 68, 0
1, 50773, Note_on_c, 0, 44, 0
1, 50775, Note_on_c, 0, 56, 0
1, 50854, Note_on_c, 0, 32, 26
1, 50937, Control_c, 0, 64, 0
1, 50951, Note_on_c, 0, 42, 28
1, 50991, Control_c, 0, 64, 127
1, 51078, Note_on_c, 0, 48, 24
1, 51092, Note_on_c, 0, 38, 23
1, 51143, Note_on_c, 0, 32, 0
1, 51178, Note_on_c, 0, 42, 0
1, 51180, Note_on_c, 0, 48, 0
1, 51184, Note_on_c, 0, 38, 0
1, 51184, Note_on_c, 0, 54, 29
1, 51198, Note_on_c, 0, 44, 21
1, 51216, Note_on_c, 0, 44, 0
1, 51241, Note_on_c, 0, 54, 0
1, 51286, Note_on_c, 0, 54, 26
1, 51404, Note_on_c, 0, 50, 23
1, 51412, Note_on_c, 0, 60, 23
1, 51494, Note_on_c, 0, 54, 0
1, 51501, Note_on_c, 0, 60, 0
1, 51520, Note_on_c, 0, 66, 22
1, 51538, Note_on_c, 0, 50, 0
1, 51560, Note_on_c, 0, 56, 17
1, 51614, Note_on_c, 0, 56, 0
1, 51652, Note_on_c, 0, 50, 20
1, 51654, Note_on_c, 0, 60, 21
1, 51789, Note_on_c, 0, 50, 0
1, 51790, Note_on_c, 0, 44, 32
1, 51799, Note_on_c, 0, 54, 21
1, 51815, Note_on_c, 0, 60, 0
1, 51840, Note_on_c, 0, 66, 0
1, 51840, Note_on_c, 0, 44, 0
1, 51859, Note_on_c, 0, 54, 0
1, 52008, Note_on_c, 0, 31, 27
1, 52074, Control_c, 0, 64, 0
1, 52098, Note_on_c, 0, 43, 56
1, 52172, Control_c, 0, 64, 127
1, 52272, Note_on_c, 0, 38, 20
1, 52278, Note_on_c, 0, 47, 30
1, 52300, Note_on_c, 0, 43, 0
1, 52369, Note_on_c, 0, 31, 0
1, 52380, Note_on_c, 0, 55, 34
1, 52384, Note_on_c, 0, 47, 0
1, 52388, Note_on_c, 0, 38, 0
1, 52388, Note_on_c, 0, 43, 38
1, 52425, Note_on_c, 0, 43, 0
1, 52435, Note_on_c, 0, 55, 0
1, 52476, Note_on_c, 0, 55, 39
1, 52480, Note_on_c, 0, 43, 17
1, 52560, Note_on_c, 0, 55, 0
1, 52574, Note_on_c, 0, 59, 35
1, 52578, Note_on_c, 0, 50, 34
1, 52620, Note_on_c, 0, 43, 0
1, 52672, Note_on_c, 0, 67, 35
1, 52679, Note_on_c, 0, 59, 0
1, 52680, Note_on_c, 0, 55, 49
1, 52682, Note_on_c, 0, 50, 0
1, 52694, Note_on_c, 0, 55, 0
1, 52730, Note_on_c, 0, 67, 0
1, 52763, Note_on_c, 0, 55, 37
1, 52767, Note_on_c, 0, 67, 55
1, 52853, Note_on_c, 0, 67, 0
1, 52857, Note_on_c, 0, 71, 40
1, 52862, Note_on_c, 0, 62, 43
1, 52874, Note_on_c, 0, 55, 0
1, 52951, Note_on_c, 0, 71, 0
1, 52976, Note_on_c, 0, 79, 35
1, 52980, Note_on_c, 0, 67, 35
1, 52981, Note_on_c, 0, 62, 0
1, 53072, Note_on_c, 0, 62, 36
1, 53074, Note_on_c, 0, 71, 26
1, 53092, Note_on_c, 0, 67, 0
1, 53156, Note_on_c, 0, 79, 0
1, 53160, Note_on_c, 0, 67, 37
1, 53164, Note_on_c, 0, 55, 50
1, 53170, Note_on_c, 0, 62, 0
1, 53173, Note_on_c, 0, 71, 0
1, 53174, Note_on_c, 0, 67, 0
1, 53204, Note_on_c, 0, 55, 0
1, 53248, Note_on_c, 0, 55, 36
1, 53264, Note_on_c, 0, 67, 25
1, 53358, Note_on_c, 0, 59, 43
1, 53360, Note_on_c, 0, 50, 47
1, 53390, Note_on_c, 0, 55, 0
1, 53434, Note_on_c, 0, 67, 0
1, 53457, Note_on_c, 0, 59, 0
1, 53459, Note_on_c, 0, 55, 32
1, 53460, Note_on_c, 0, 43, 38
1, 53467, Note_on_c, 0, 50, 0
1, 53473, Note_on_c, 0, 55, 0
1, 53497, Note_on_c, 0, 43, 0
1, 53546, Note_on_c, 0, 43, 36
1, 53572, Note_on_c, 0, 55, 20
1, 53668, Note_on_c, 0, 47, 51
1, 53674, Note_on_c, 0, 55, 0
1, 53676, Note_on_c, 0, 43, 0
1, 53678, Note_on_c, 0, 38, 46
1, 53710, Note_on_c, 0, 47, 0
1, 53760, Note_on_c, 0, 38, 0
1, 53803, Note_on_c, 0, 31, 58
1, 53917, Note_on_c, 0, 44, 88
1, 53940, Control_c, 0, 64, 0
1, 53993, Control_c, 0, 64, 127
1, 54028, Note_on_c, 0, 48, 40
1, 54030, Note_on_c, 0, 39, 41
1, 54110, Note_on_c, 0, 44, 0
1, 54119, Note_on_c, 0, 31, 0
1, 54125, Note_on_c, 0, 48, 0
1, 54126, Note_on_c, 0, 56, 35
1, 54127, Note_on_c, 0, 43, 56
1, 54144, Note_on_c, 0, 39, 0
1, 54154, Note_on_c, 0, 43, 0
1, 54176, Note_on_c, 0, 56, 0
1, 54207, Note_on_c, 0, 43, 30
1, 54210, Note_on_c, 0, 56, 28
1, 54295, Note_on_c, 0, 60, 58
1, 54304, Note_on_c, 0, 51, 42
1, 54379, Note_on_c, 0, 43, 0
1, 54386, Note_on_c, 0, 68, 42
1, 54394, Note_on_c, 0, 56, 0
1, 54394, Note_on_c, 0, 55, 63
1, 54397, Note_on_c, 0, 60, 0
1, 54415, Note_on_c, 0, 51, 0
1, 54425, Note_on_c, 0, 55, 0
1, 54447, Note_on_c, 0, 68, 0
1, 54477, Note_on_c, 0, 55, 51
1, 54480, Note_on_c, 0, 68, 54
1, 54568, Note_on_c, 0, 72, 43
1, 54572, Note_on_c, 0, 63, 41
1, 54597, Note_on_c, 0, 55, 0
1, 54614, Note_on_c, 0, 68, 0
1, 54663, Note_on_c, 0, 72, 0
1, 54682, Note_on_c, 0, 80, 72
1, 54686, Note_on_c, 0, 67, 55
1, 54688, Note_on_c, 0, 63, 0
1, 54778, Note_on_c, 0, 63, 36
1, 54784, Note_on_c, 0, 72, 30
1, 54819, Note_on_c, 0, 67, 0
1, 54870, Note_on_c, 0, 68, 55
1, 54876, Note_on_c, 0, 55, 56
1, 54881, Note_on_c, 0, 80, 0
1, 54885, Note_on_c, 0, 72, 0
1, 54894, Note_on_c, 0, 63, 0
1, 54905, Note_on_c, 0, 68, 0
1, 54925, Note_on_c, 0, 55, 0
1, 54971, Note_on_c, 0, 68, 44
1, 55041, Note_on_c, 0, 68, 0
1, 55065, Note_on_c, 0, 51, 44
1, 55080, Note_on_c, 0, 60, 61
1, 55169, Note_on_c, 0, 43, 55
1, 55171, Note_on_c, 0, 56, 42
1, 55173, Note_on_c, 0, 60, 0
1, 55194, Note_on_c, 0, 51, 0
1, 55196, Note_on_c, 0, 56, 0
1, 55218, Note_on_c, 0, 43, 0
1, 55261, Note_on_c, 0, 43, 38
1, 55284, Note_on_c, 0, 56, 44
1, 55369, Note_on_c, 0, 48, 64
1, 55371, Note_on_c, 0, 39, 52
1, 55380, Note_on_c, 0, 56, 0
1, 55384, Note_on_c, 0, 43, 0
1, 55411, Note_on_c, 0, 48, 0
1, 55420, Note_on_c, 0, 39, 0
1, 55437, Note_on_c, 0, 31, 65
1, 55497, Control_c, 0, 64, 0
1, 55510, Note_on_c, 0, 48, 115
1, 55550, Control_c, 0, 64, 127
1, 55617, Note_on_c, 0, 38, 50
1, 55623, Note_on_c, 0, 53, 69
1, 55647, Note_on_c, 0, 48, 0
1, 55680, Note_on_c, 0, 31, 0
1, 55680, Note_on_c, 0, 38, 0
1, 55714, Note_on_c, 0, 60, 64
1, 55718, Note_on_c, 0, 44, 63
1, 55724, Note_on_c, 0, 53, 0
1, 55757, Note_on_c, 0, 44, 0
1, 55765, Note_on_c, 0, 60, 0
1, 55797, Note_on_c, 0, 44, 48
1, 55800, Note_on_c, 0, 60, 65
1, 55891, Note_on_c, 0, 65, 69
1, 55896, Note_on_c, 0, 50, 61
1, 55907, Note_on_c, 0, 60, 0
1, 55924, Note_on_c, 0, 44, 0
1, 55976, Note_on_c, 0, 72, 40
1, 55991, Note_on_c, 0, 56, 27
1, 55992, Note_on_c, 0, 65, 0
1, 55993, Note_on_c, 0, 50, 0
1, 56025, Note_on_c, 0, 72, 0
1, 56028, Note_on_c, 0, 56, 0
1, 56070, Note_on_c, 0, 72, 47
1, 56078, Note_on_c, 0, 56, 18
1, 56173, Note_on_c, 0, 77, 57
1, 56180, Note_on_c, 0, 72, 0
1, 56184, Note_on_c, 0, 62, 57
1, 56241, Note_on_c, 0, 56, 0
1, 56246, Note_on_c, 0, 77, 0
1, 56291, Note_on_c, 0, 84, 78
1, 56292, Note_on_c, 0, 62, 0
1, 56298, Note_on_c, 0, 68, 65
1, 56394, Note_on_c, 0, 77, 48
1, 56396, Note_on_c, 0, 62, 43
1, 56429, Note_on_c, 0, 68, 0
1, 56480, Note_on_c, 0, 84, 0
1, 56481, Note_on_c, 0, 72, 46
1, 56484, Note_on_c, 0, 56, 14
1, 56497, Note_on_c, 0, 77, 0
1, 56497, Note_on_c, 0, 62, 0
1, 56511, Note_on_c, 0, 72, 0
1, 56579, Note_on_c, 0, 72, 45
1, 56639, Note_on_c, 0, 72, 0
1, 56669, Note_on_c, 0, 50, 59
1, 56674, Note_on_c, 0, 65, 64
1, 56689, Note_on_c, 0, 56, 0
1, 56760, Note_on_c, 0, 60, 52
1, 56766, Note_on_c, 0, 44, 54
1, 56771, Note_on_c, 0, 65, 0
1, 56779, Note_on_c, 0, 50, 0
1, 56787, Note_on_c, 0, 60, 0
1, 56816, Note_on_c, 0, 44, 0
1, 56860, Note_on_c, 0, 44, 23
1, 56868, Note_on_c, 0, 60, 57
1, 56960, Note_on_c, 0, 44, 0
1, 56964, Note_on_c, 0, 38, 54
1, 56966, Note_on_c, 0, 53, 62
1, 56976, Note_on_c, 0, 60, 0
1, 57025, Note_on_c, 0, 53, 0
1, 57042, Note_on_c, 0, 38, 0
1, 57047, Note_on_c, 0, 31, 63
1, 57103, Control_c, 0, 64, 0
1, 57117, Note_on_c, 0, 47, 80
1, 57157, Control_c, 0, 64, 127
1, 57217, Note_on_c, 0, 38, 39
1, 57225, Note_on_c, 0, 53, 64
1, 57264, Note_on_c, 0, 47, 0
1, 57302, Note_on_c, 0, 31, 0
1, 57310, Note_on_c, 0, 59, 35
1, 57313, Note_on_c, 0, 43, 60
1, 57317, Note_on_c, 0, 53, 0
1, 57320, Note_on_c, 0, 38, 0
1, 57347, Note_on_c, 0, 59, 0
1, 57347, Note_on_c, 0, 43, 0
1, 57396, Note_on_c, 0, 43, 27
1, 57398, Note_on_c, 0, 59, 47
1, 57485, Note_on_c, 0, 50, 59
1, 57489, Note_on_c, 0, 65, 46
1, 57514, Note_on_c, 0, 43, 0
1, 57521, Note_on_c, 0, 59, 0
1, 57566, Note_on_c, 0, 71, 43
1, 57570, Note_on_c, 0, 55, 57
1, 57574, Note_on_c, 0, 50, 0
1, 57590, Note_on_c, 0, 65, 0
1, 57602, Note_on_c, 0, 55, 0
1, 57613, Note_on_c, 0, 71, 0
1, 57653, Note_on_c, 0, 55, 48
1, 57657, Note_on_c, 0, 71, 51
1, 57746, Note_on_c, 0, 77, 51
1, 57749, Note_on_c, 0, 62, 46
1, 57764, Note_on_c, 0, 55, 0
1, 57804, Note_on_c, 0, 71, 0
1, 57835, Note_on_c, 0, 77, 0
1, 57846, Note_on_c, 0, 62, 0
1, 57847, Note_on_c, 0, 83, 58
1, 57852, Note_on_c, 0, 67, 56
1, 57940, Note_on_c, 0, 62, 52
1, 57942, Note_on_c, 0, 77, 46
1, 57964, Note_on_c, 0, 67, 0
1, 58028, Note_on_c, 0, 83, 0
1, 58030, Note_on_c, 0, 55, 54
1, 58034, Note_on_c, 0, 71, 51
1, 58043, Note_on_c, 0, 77, 0
1, 58045, Note_on_c, 0, 62, 0
1, 58064, Note_on_c, 0, 71, 0
1, 58079, Note_on_c, 0, 55, 0
1, 58117, Note_on_c, 0, 55, 54
1, 58127, Note_on_c, 0, 71, 41
1, 58210, Note_on_c, 0, 71, 0
1, 58218, Note_on_c, 0, 50, 55
1, 58229, Note_on_c, 0, 65, 52
1, 58250, Note_on_c, 0, 55, 0
1, 58317, Note_on_c, 0, 43, 49
1, 58318, Note_on_c, 0, 65, 0
1, 58320, Note_on_c, 0, 59, 50
1, 58331, Note_on_c, 0, 50, 0
1, 58332, Note_on_c, 0, 59, 0
1, 58365, Note_on_c, 0, 43, 0
1, 58422, Note_on_c, 0, 43, 51
1, 58432, Note_on_c, 0, 59, 50
1, 58543, Note_on_c, 0, 59, 0
1, 58544, Note_on_c, 0, 53, 42
1, 58556, Note_on_c, 0, 43, 0
1, 58556, Note_on_c, 0, 38, 38
1, 58657, Note_on_c, 0, 38, 0
1, 58658, Note_on_c, 0, 31, 48
1, 58717, Control_c, 0, 64, 0
1, 58753, Note_on_c, 0, 53, 0
1, 58780, Control_c, 0, 64, 127
1, 58784, Note_on_c, 0, 47, 60
1, 58915, Note_on_c, 0, 38, 27
1, 58928, Note_on_c, 0, 53, 32
1, 58990, Note_on_c, 0, 47, 0
1, 59007, Note_on_c, 0, 31, 0
1, 59021, Note_on_c, 0, 59, 44
1, 59024, Note_on_c, 0, 43, 50
1, 59030, Note_on_c, 0, 38, 0
1, 59038, Note_on_c, 0, 53, 0
1, 59060, Note_on_c, 0, 43, 0
1, 59074, Note_on_c, 0, 59, 0
1, 59103, Note_on_c, 0, 43, 26
1, 59114, Note_on_c, 0, 59, 42
1, 59206, Note_on_c, 0, 50, 35
1, 59213, Note_on_c, 0, 65, 48
1, 59228, Note_on_c, 0, 43, 0
1, 59248, Note_on_c, 0, 59, 0
1, 59286, Note_on_c, 0, 71, 43
1, 59294, Note_on_c, 0, 55, 50
1, 59300, Note_on_c, 0, 50, 0
1, 59308, Note_on_c, 0, 65, 0
1, 59329, Note_on_c, 0, 55, 0
1, 59340, Note_on_c, 0, 71, 0
1, 59377, Note_on_c, 0, 55, 30
1, 59378, Note_on_c, 0, 71, 44
1, 59464, Note_on_c, 0, 77, 49
1, 59472, Note_on_c, 0, 62, 40
1, 59489, Note_on_c, 0, 55, 0
1, 59520, Note_on_c, 0, 71, 0
1, 59561, Note_on_c, 0, 77, 0
1, 59566, Note_on_c, 0, 83, 58
1, 59572, Note_on_c, 0, 67, 46
1, 59581, Note_on_c, 0, 62, 0
1, 59654, Note_on_c, 0, 77, 40
1, 59660, Note_on_c, 0, 62, 46
1, 59698, Note_on_c, 0, 67, 0
1, 59743, Note_on_c, 0, 83, 0
1, 59746, Note_on_c, 0, 71, 46
1, 59750, Note_on_c, 0, 55, 59
1, 59755, Note_on_c, 0, 77, 0
1, 59762, Note_on_c, 0, 62, 0
1, 59779, Note_on_c, 0, 71, 0
1, 59795, Note_on_c, 0, 55, 0
1, 59836, Note_on_c, 0, 55, 55
1, 59847, Note_on_c, 0, 71, 42
1, 59850, Note_on_c, 0, 55, 0
1, 59944, Note_on_c, 0, 71, 0
1, 59955, Note_on_c, 0, 65, 65
1, 59957, Note_on_c, 0, 50, 28
1, 60050, Note_on_c, 0, 59, 58
1, 60052, Note_on_c, 0, 65, 0
1, 60058, Note_on_c, 0, 43, 51
1, 60061, Note_on_c, 0, 50, 0
1, 60074, Note_on_c, 0, 59, 0
1, 60100, Note_on_c, 0, 43, 0
1, 60146, Note_on_c, 0, 43, 44
1, 60165, Note_on_c, 0, 59, 55
1, 60248, Note_on_c, 0, 38, 62
1, 60251, Note_on_c, 0, 59, 0
1, 60260, Note_on_c, 0, 43, 0
1, 60261, Note_on_c, 0, 53, 59
1, 60263, Note_on_c, 0, 38, 0
1, 60394, Note_on_c, 0, 32, 67
1, 60408, Note_on_c, 0, 53, 0
1, 60448, Control_c, 0, 64, 0
1, 60465, Note_on_c, 0, 48, 86
1, 60510, Control_c, 0, 64, 127
1, 60548, Note_on_c, 0, 48, 0
1, 60565, Note_on_c, 0, 41, 59
1, 60580, Note_on_c, 0, 53, 67
1, 60582, Note_on_c, 0, 32, 0
1, 60664, Note_on_c, 0, 60, 55
1, 60664, Note_on_c, 0, 44, 52
1, 60668, Note_on_c, 0, 53, 0
1, 60670, Note_on_c, 0, 41, 0
1, 60703, Note_on_c, 0, 44, 0
1, 60704, Note_on_c, 0, 60, 0
1, 60747, Note_on_c, 0, 60, 63
1, 60749, Note_on_c, 0, 44, 39
1, 60817, Note_on_c, 0, 44, 0
1, 60840, Note_on_c, 0, 65, 60
1, 60843, Note_on_c, 0, 60, 0
1, 60844, Note_on_c, 0, 53, 56
1, 60925, Note_on_c, 0, 72, 45
1, 60934, Note_on_c, 0, 56, 53
1, 60935, Note_on_c, 0, 53, 0
1, 60938, Note_on_c, 0, 65, 0
1, 60970, Note_on_c, 0, 56, 0
1, 60973, Note_on_c, 0, 72, 0
1, 61016, Note_on_c, 0, 72, 48
1, 61022, Note_on_c, 0, 56, 25
1, 61109, Note_on_c, 0, 77, 60
1, 61116, Note_on_c, 0, 65, 53
1, 61130, Note_on_c, 0, 56, 0
1, 61138, Note_on_c, 0, 72, 0
1, 61190, Note_on_c, 0, 77, 0
1, 61213, Note_on_c, 0, 65, 0
1, 61217, Note_on_c, 0, 68, 63
1, 61222, Note_on_c, 0, 84, 84
1, 61309, Note_on_c, 0, 65, 55
1, 61315, Note_on_c, 0, 77, 48
1, 61321, Note_on_c, 0, 68, 0
1, 61388, Note_on_c, 0, 84, 0
1, 61390, Note_on_c, 0, 65, 0
1, 61399, Note_on_c, 0, 72, 53
1, 61403, Note_on_c, 0, 56, 29
1, 61410, Note_on_c, 0, 77, 0
1, 61440, Note_on_c, 0, 72, 0
1, 61466, Note_on_c, 0, 56, 0
1, 61484, Note_on_c, 0, 56, 28
1, 61500, Note_on_c, 0, 72, 44
1, 61573, Note_on_c, 0, 72, 0
1, 61592, Note_on_c, 0, 53, 53
1, 61594, Note_on_c, 0, 56, 0
1, 61604, Note_on_c, 0, 65, 69
1, 61691, Note_on_c, 0, 60, 61
1, 61696, Note_on_c, 0, 65, 0
1, 61705, Note_on_c, 0, 44, 61
1, 61709, Note_on_c, 0, 60, 0
1, 61709, Note_on_c, 0, 53, 0
1, 61757, Note_on_c, 0, 44, 0
1, 61798, Note_on_c, 0, 44, 34
1, 61802, Note_on_c, 0, 60, 66
1, 61892, Note_on_c, 0, 60, 0
1, 61900, Note_on_c, 0, 53, 72
1, 61902, Note_on_c, 0, 41, 57
1, 61917, Note_on_c, 0, 44, 0
1, 61962, Note_on_c, 0, 41, 0
1, 61980, Note_on_c, 0, 33, 68
1, 61981, Note_on_c, 0, 53, 0
1, 62034, Control_c, 0, 64, 0
1, 62040, Note_on_c, 0, 51, 102
1, 62087, Control_c, 0, 64, 127
1, 62152, Note_on_c, 0, 42, 52
1, 62152, Note_on_c, 0, 54, 52
1, 62226, Note_on_c, 0, 51, 0
1, 62246, Note_on_c, 0, 33, 0
1, 62250, Note_on_c, 0, 45, 58
1, 62253, Note_on_c, 0, 63, 41
1, 62262, Note_on_c, 0, 54, 0
1, 62275, Note_on_c, 0, 42, 0
1, 62286, Note_on_c, 0, 45, 0
1, 62296, Note_on_c, 0, 63, 0
1, 62330, Note_on_c, 0, 63, 63
1, 62340, Note_on_c, 0, 45, 40
1, 62432, Note_on_c, 0, 66, 61
1, 62438, Note_on_c, 0, 54, 57
1, 62473, Note_on_c, 0, 63, 0
1, 62477, Note_on_c, 0, 45, 0
1, 62535, Note_on_c, 0, 75, 46
1, 62542, Note_on_c, 0, 57, 66
1, 62562, Note_on_c, 0, 66, 0
1, 62564, Note_on_c, 0, 54, 0
1, 62575, Note_on_c, 0, 57, 0
1, 62594, Note_on_c, 0, 75, 0
1, 62627, Note_on_c, 0, 75, 63
1, 62632, Note_on_c, 0, 57, 42
1, 62724, Note_on_c, 0, 78, 52
1, 62729, Note_on_c, 0, 66, 38
1, 62745, Note_on_c, 0, 57, 0
1, 62790, Note_on_c, 0, 75, 0
1, 62818, Note_on_c, 0, 78, 0
1, 62846, Note_on_c, 0, 66, 0
1, 62858, Note_on_c, 0, 87, 92
1, 62858, Note_on_c, 0, 69, 63
1, 62952, Note_on_c, 0, 66, 41
1, 62960, Note_on_c, 0, 78, 59
1, 62997, Note_on_c, 0, 69, 0
1, 63044, Note_on_c, 0, 57, 66
1, 63046, Note_on_c, 0, 75, 60
1, 63049, Note_on_c, 0, 87, 0
1, 63064, Note_on_c, 0, 66, 0
1, 63069, Note_on_c, 0, 78, 0
1, 63083, Note_on_c, 0, 75, 0
1, 63092, Note_on_c, 0, 57, 0
1, 63129, Note_on_c, 0, 57, 64
1, 63141, Note_on_c, 0, 75, 58
1, 63200, Note_on_c, 0, 75, 0
1, 63226, Note_on_c, 0, 54, 50
1, 63234, Note_on_c, 0, 66, 59
1, 63247, Note_on_c, 0, 57, 0
1, 63320, Note_on_c, 0, 63, 46
1, 63332, Note_on_c, 0, 47, 33
1, 63334, Note_on_c, 0, 45, 41
1, 63343, Note_on_c, 0, 66, 0
1, 63348, Note_on_c, 0, 54, 0
1, 63360, Note_on_c, 0, 45, 0
1, 63360, Note_on_c, 0, 63, 0
1, 63373, Note_on_c, 0, 47, 0
1, 63418, Note_on_c, 0, 45, 65
1, 63439, Note_on_c, 0, 63, 57
1, 63525, Note_on_c, 0, 42, 46
1, 63544, Note_on_c, 0, 54, 60
1, 63548, Note_on_c, 0, 45, 0
1, 63589, Note_on_c, 0, 63, 0
1, 63598, Note_on_c, 0, 42, 0
1, 63650, Note_on_c, 0, 54, 0
1, 63663, Note_on_c, 0, 34, 67
1, 63703, Control_c, 0, 64, 0
1, 63704, Note_on_c, 0, 50, 94
1, 63757, Control_c, 0, 64, 127
1, 63803, Note_on_c, 0, 43, 59
1, 63819, Note_on_c, 0, 55, 69
1, 63829, Note_on_c, 0, 34, 0
1, 63868, Note_on_c, 0, 50, 0
1, 63896, Note_on_c, 0, 43, 0
1, 63899, Note_on_c, 0, 46, 41
1, 63901, Note_on_c, 0, 62, 55
1, 63909, Note_on_c, 0, 55, 0
1, 63929, Note_on_c, 0, 46, 0
1, 63946, Note_on_c, 0, 62, 0
1, 63981, Note_on_c, 0, 62, 74
1, 63983, Note_on_c, 0, 46, 20
1, 64054, Note_on_c, 0, 62, 0
1, 64072, Note_on_c, 0, 67, 70
1, 64077, Note_on_c, 0, 55, 67
1, 64090, Note_on_c, 0, 46, 0
1, 64164, Note_on_c, 0, 74, 57
1, 64171, Note_on_c, 0, 58, 44
1, 64173, Note_on_c, 0, 55, 0
1, 64178, Note_on_c, 0, 67, 0
1, 64211, Note_on_c, 0, 58, 0
1, 64215, Note_on_c, 0, 74, 0
1, 64255, Note_on_c, 0, 74, 60
1, 64352, Note_on_c, 0, 79, 66
1, 64360, Note_on_c, 0, 67, 64
1, 64382, Note_on_c, 0, 74, 0
1, 64433, Note_on_c, 0, 79, 0
1, 64468, Note_on_c, 0, 86, 96
1, 64472, Note_on_c, 0, 70, 67
1, 64473, Note_on_c, 0, 67, 0
1, 64561, Note_on_c, 0, 67, 46
1, 64568, Note_on_c, 0, 79, 50
1, 64575, Note_on_c, 0, 70, 0
1, 64642, Note_on_c, 0, 67, 0
1, 64645, Note_on_c, 0, 58, 42
1, 64647, Note_on_c, 0, 86, 0
1, 64649, Note_on_c, 0, 74, 64
1, 64664, Note_on_c, 0, 79, 0
1, 64681, Note_on_c, 0, 74, 0
1, 64700, Note_on_c, 0, 58, 0
1, 64731, Note_on_c, 0, 58, 48
1, 64742, Note_on_c, 0, 74, 43
1, 64815, Note_on_c, 0, 74, 0
1, 64839, Note_on_c, 0, 55, 50
1, 64850, Note_on_c, 0, 67, 68
1, 64852, Note_on_c, 0, 58, 0
1, 64938, Note_on_c, 0, 55, 0
1, 64938, Note_on_c, 0, 46, 52
1, 64940, Note_on_c, 0, 62, 63
1, 64945, Note_on_c, 0, 67, 0
1, 64959, Note_on_c, 0, 62, 0
1, 64993, Note_on_c, 0, 46, 0
1, 65035, Note_on_c, 0, 46, 15
1, 65038, Note_on_c, 0, 62, 70
1, 65132, Note_on_c, 0, 43, 62
1, 65140, Note_on_c, 0, 55, 66
1, 65149, Note_on_c, 0, 46, 0
1, 65155, Note_on_c, 0, 62, 0
1, 65190, Note_on_c, 0, 43, 0
1, 65222, Note_on_c, 0, 35, 64
1, 65228, Note_on_c, 0, 55, 0
1, 65269, Note_on_c, 0, 50, 100
1, 65274, Control_c, 0, 64, 0
1, 65327, Control_c, 0, 64, 127
1, 65388, Note_on_c, 0, 41, 48
1, 65394, Note_on_c, 0, 56, 59
1, 65428, Note_on_c, 0, 50, 0
1, 65472, Note_on_c, 0, 35, 0
1, 65479, Note_on_c, 0, 62, 57
1, 65483, Note_on_c, 0, 47, 59
1, 65492, Note_on_c, 0, 41, 0
1, 65514, Note_on_c, 0, 56, 0
1, 65514, Note_on_c, 0, 62, 0
1, 65516, Note_on_c, 0, 47, 0
1, 65558, Note_on_c, 0, 62, 68
1, 65567, Note_on_c, 0, 47, 40
1, 65655, Note_on_c, 0, 68, 76
1, 65657, Note_on_c, 0, 53, 59
1, 65680, Note_on_c, 0, 47, 0
1, 65703, Note_on_c, 0, 62, 0
1, 65744, Note_on_c, 0, 74, 55
1, 65752, Note_on_c, 0, 59, 48
1, 65759, Note_on_c, 0, 53, 0
1, 65764, Note_on_c, 0, 68, 0
1, 65783, Note_on_c, 0, 59, 0
1, 65793, Note_on_c, 0, 74, 0
1, 65839, Note_on_c, 0, 74, 60
1, 65845, Note_on_c, 0, 59, 47
1, 65939, Note_on_c, 0, 80, 62
1, 65946, Note_on_c, 0, 65, 56
1, 65958, Note_on_c, 0, 59, 0
1, 65993, Note_on_c, 0, 74, 0
1, 66034, Note_on_c, 0, 80, 0
1, 66063, Note_on_c, 0, 65, 0
1, 66075, Note_on_c, 0, 86, 84
1, 66081, Note_on_c, 0, 71, 65
1, 66178, Note_on_c, 0, 80, 52
1, 66184, Note_on_c, 0, 65, 56
1, 66217, Note_on_c, 0, 71, 0
1, 66267, Note_on_c, 0, 86, 0
1, 66272, Note_on_c, 0, 74, 63
1, 66276, Note_on_c, 0, 59, 56
1, 66278, Note_on_c, 0, 65, 0
1, 66289, Note_on_c, 0, 80, 0
1, 66306, Note_on_c, 0, 74, 0
1, 66316, Note_on_c, 0, 59, 0
1, 66355, Note_on_c, 0, 59, 49
1, 66368, Note_on_c, 0, 76, 18
1, 66368, Note_on_c, 0, 74, 27
1, 66386, Note_on_c, 0, 74, 0
1, 66396, Note_on_c, 0, 76, 0
1, 66443, Note_on_c, 0, 53, 57
1, 66450, Note_on_c, 0, 68, 62
1, 66494, Note_on_c, 0, 59, 0
1, 66541, Note_on_c, 0, 62, 41
1, 66544, Note_on_c, 0, 47, 31
1, 66548, Note_on_c, 0, 68, 0
1, 66554, Note_on_c, 0, 53, 0
1, 66561, Note_on_c, 0, 62, 0
1, 66586, Note_on_c, 0, 47, 0
1, 66632, Note_on_c, 0, 62, 68
1, 66637, Note_on_c, 0, 48, 63
1, 66721, Note_on_c, 0, 56, 69
1, 66723, Note_on_c, 0, 62, 0
1, 66735, Note_on_c, 0, 41, 63
1, 66757, Note_on_c, 0, 48, 0
1, 66797, Note_on_c, 0, 56, 0
1, 66811, Note_on_c, 0, 41, 0
1, 66817, Note_on_c, 0, 36, 84
1, 66862, Control_c, 0, 64, 0
1, 66885, Note_on_c, 0, 51, 98
1, 66916, Control_c, 0, 64, 127
1, 66992, Note_on_c, 0, 41, 63
1, 66995, Note_on_c, 0, 56, 66
1, 67072, Note_on_c, 0, 36, 0
1, 67076, Note_on_c, 0, 51, 0
1, 67082, Note_on_c, 0, 48, 64
1, 67083, Note_on_c, 0, 63, 46
1, 67096, Note_on_c, 0, 41, 0
1, 67098, Note_on_c, 0, 56, 0
1, 67113, Note_on_c, 0, 48, 0
1, 67133, Note_on_c, 0, 63, 0
1, 67160, Note_on_c, 0, 48, 52
1, 67164, Note_on_c, 0, 63, 67
1, 67249, Note_on_c, 0, 68, 62
1, 67253, Note_on_c, 0, 53, 56
1, 67288, Note_on_c, 0, 48, 0
1, 67339, Note_on_c, 0, 63, 0
1, 67342, Note_on_c, 0, 75, 54
1, 67342, Note_on_c, 0, 60, 63
1, 67349, Note_on_c, 0, 53, 0
1, 67364, Note_on_c, 0, 68, 0
1, 67371, Note_on_c, 0, 60, 0
1, 67396, Note_on_c, 0, 75, 0
1, 67427, Note_on_c, 0, 75, 70
1, 67430, Note_on_c, 0, 60, 53
1, 67519, Note_on_c, 0, 80, 63
1, 67525, Note_on_c, 0, 65, 58
1, 67541, Note_on_c, 0, 60, 0
1, 67599, Note_on_c, 0, 75, 0
1, 67608, Note_on_c, 0, 80, 0
1, 67633, Note_on_c, 0, 65, 0
1, 67644, Note_on_c, 0, 87, 87
1, 67649, Note_on_c, 0, 72, 53
1, 67735, Note_on_c, 0, 80, 55
1, 67741, Note_on_c, 0, 65, 57
1, 67794, Note_on_c, 0, 72, 0
1, 67828, Note_on_c, 0, 87, 0
1, 67828, Note_on_c, 0, 75, 64
1, 67843, Note_on_c, 0, 60, 38
1, 67845, Note_on_c, 0, 65, 0
1, 67849, Note_on_c, 0, 80, 0
1, 67864, Note_on_c, 0, 75, 0
1, 67874, Note_on_c, 0, 60, 0
1, 67919, Note_on_c, 0, 60, 54
1, 67930, Note_on_c, 0, 75, 52
1, 68007, Note_on_c, 0, 75, 0
1, 68021, Note_on_c, 0, 53, 59
1, 68028, Note_on_c, 0, 68, 65
1, 68052, Note_on_c, 0, 60, 0
1, 68118, Note_on_c, 0, 63, 49
1, 68126, Note_on_c, 0, 48, 38
1, 68130, Note_on_c, 0, 53, 0
1, 68132, Note_on_c, 0, 68, 0
1, 68156, Note_on_c, 0, 48, 0
1, 68162, Note_on_c, 0, 63, 0
1, 68200, Note_on_c, 0, 48, 61
1, 68228, Note_on_c, 0, 63, 69
1, 68322, Note_on_c, 0, 41, 82
1, 68326, Note_on_c, 0, 63, 0
1, 68336, Note_on_c, 0, 56, 70
1, 68343, Note_on_c, 0, 48, 0
1, 68348, Note_on_c, 0, 41, 0
1, 68423, Note_on_c, 0, 39, 64
1, 68444, Note_on_c, 0, 56, 0
1, 68477, Control_c, 0, 64, 0
1, 68501, Note_on_c, 0, 55, 108
1, 68522, Control_c, 0, 64, 127
1, 68610, Note_on_c, 0, 44, 56
1, 68622, Note_on_c, 0, 60, 74
1, 68663, Note_on_c, 0, 55, 0
1, 68693, Note_on_c, 0, 39, 0
1, 68706, Note_on_c, 0, 51, 53
1, 68707, Note_on_c, 0, 67, 60
1, 68717, Note_on_c, 0, 44, 0
1, 68720, Note_on_c, 0, 60, 0
1, 68741, Note_on_c, 0, 51, 0
1, 68752, Note_on_c, 0, 67, 0
1, 68780, Note_on_c, 0, 51, 39
1, 68787, Note_on_c, 0, 67, 78
1, 68883, Note_on_c, 0, 72, 63
1, 68895, Note_on_c, 0, 56, 49
1, 68901, Note_on_c, 0, 67, 0
1, 68941, Note_on_c, 0, 51, 0
1, 68981, Note_on_c, 0, 79, 55
1, 68984, Note_on_c, 0, 63, 45
1, 68993, Note_on_c, 0, 72, 0
1, 69009, Note_on_c, 0, 63, 0
1, 69019, Note_on_c, 0, 56, 0
1, 69025, Note_on_c, 0, 79, 0
1, 69066, Note_on_c, 0, 79, 68
1, 69070, Note_on_c, 0, 63, 15
1, 69158, Note_on_c, 0, 68, 51
1, 69160, Note_on_c, 0, 84, 66
1, 69169, Note_on_c, 0, 79, 0
1, 69242, Note_on_c, 0, 84, 0
1, 69283, Note_on_c, 0, 68, 0
1, 69289, Note_on_c, 0, 91, 100
1, 69294, Note_on_c, 0, 75, 67
1, 69324, Note_on_c, 0, 63, 0
1, 69385, Note_on_c, 0, 68, 45
1, 69392, Note_on_c, 0, 84, 63
1, 69431, Note_on_c, 0, 75, 0
1, 69461, Note_on_c, 0, 91, 0
1, 69472, Note_on_c, 0, 79, 66
1, 69476, Note_on_c, 0, 63, 18
1, 69480, Note_on_c, 0, 84, 0
1, 69492, Note_on_c, 0, 68, 0
1, 69494, Note_on_c, 0, 79, 0
1, 69545, Note_on_c, 0, 63, 0
1, 69559, Note_on_c, 0, 63, 18
1, 69562, Note_on_c, 0, 79, 45
1, 69606, Note_on_c, 0, 79, 0
1, 69656, Note_on_c, 0, 56, 27
1, 69658, Note_on_c, 0, 72, 59
1, 69692, Note_on_c, 0, 63, 0
1, 69742, Note_on_c, 0, 51, 41
1, 69746, Note_on_c, 0, 67, 56
1, 69752, Note_on_c, 0, 72, 0
1, 69760, Note_on_c, 0, 56, 0
1, 69764, Note_on_c, 0, 67, 0
1, 69788, Note_on_c, 0, 51, 0
1, 69827, Note_on_c, 0, 51, 45
1, 69841, Note_on_c, 0, 67, 66
1, 69927, Note_on_c, 0, 44, 57
1, 69928, Note_on_c, 0, 60, 68
1, 69936, Note_on_c, 0, 51, 0
1, 69951, Note_on_c, 0, 67, 0
1, 69984, Note_on_c, 0, 60, 0
1, 69998, Note_on_c, 0, 44, 0
1, 70003, Note_on_c, 0, 38, 76
1, 70056, Control_c, 0, 64, 0
1, 70080, Note_on_c, 0, 53, 98
1, 70119, Control_c, 0, 64, 127
1, 70190, Note_on_c, 0, 44, 43
1, 70196, Note_on_c, 0, 60, 70
1, 70270, Note_on_c, 0, 53, 0
1, 70285, Note_on_c, 0, 38, 0
1, 70286, Note_on_c, 0, 65, 59
1, 70288, Note_on_c, 0, 50, 61
1, 70301, Note_on_c, 0, 60, 0
1, 70304, Note_on_c, 0, 44, 0
1, 70318, Note_on_c, 0, 50, 0
1, 70324, Note_on_c, 0, 65, 0
1, 70367, Note_on_c, 0, 50, 30
1, 70370, Note_on_c, 0, 65, 56
1, 70468, Note_on_c, 0, 72, 59
1, 70472, Note_on_c, 0, 56, 51
1, 70544, Note_on_c, 0, 65, 0
1, 70550, Note_on_c, 0, 50, 0
1, 70553, Note_on_c, 0, 77, 54
1, 70556, Note_on_c, 0, 62, 66
1, 70567, Note_on_c, 0, 72, 0
1, 70586, Note_on_c, 0, 62, 0
1, 70588, Note_on_c, 0, 77, 0
1, 70596, Note_on_c, 0, 56, 0
1, 70635, Note_on_c, 0, 62, 52
1, 70637, Note_on_c, 0, 77, 53
1, 70730, Note_on_c, 0, 84, 55
1, 70733, Note_on_c, 0, 68, 47
1, 70774, Note_on_c, 0, 62, 0
1, 70822, Note_on_c, 0, 77, 0
1, 70850, Note_on_c, 0, 84, 0
1, 70852, Note_on_c, 0, 68, 0
1, 70852, Note_on_c, 0, 89, 94
1, 70854, Note_on_c, 0, 74, 82
1, 70899, Control_c, 0, 64, 0
1, 70908, Control_c, 0, 64, 127
1, 70966, Note_on_c, 0, 68, 35
1, 70974, Note_on_c, 0, 83, 63
1, 71032, Note_on_c, 0, 74, 0
1, 71040, Note_on_c, 0, 89, 0
1, 71040, Note_on_c, 0, 68, 0
1, 71040, Note_on_c, 0, 83, 0
1, 71054, Note_on_c, 0, 62, 65
1, 71059, Note_on_c, 0, 77, 64
1, 71085, Note_on_c, 0, 62, 0
1, 71090, Note_on_c, 0, 77, 0
1, 71130, Note_on_c, 0, 62, 51
1, 71147, Note_on_c, 0, 77, 56
1, 71228, Note_on_c, 0, 77, 0
1, 71240, Note_on_c, 0, 56, 66
1, 71241, Note_on_c, 0, 71, 70
1, 71278, Note_on_c, 0, 62, 0
1, 71333, Note_on_c, 0, 50, 26
1, 71335, Note_on_c, 0, 65, 50
1, 71346, Note_on_c, 0, 71, 0
1, 71347, Note_on_c, 0, 56, 0
1, 71364, Note_on_c, 0, 65, 0
1, 71370, Note_on_c, 0, 50, 0
1, 71411, Note_on_c, 0, 50, 44
1, 71432, Note_on_c, 0, 67, 46
1, 71433, Note_on_c, 0, 65, 57
1, 71501, Note_on_c, 0, 67, 0
1, 71511, Note_on_c, 0, 65, 0
1, 71515, Note_on_c, 0, 59, 66
1, 71523, Note_on_c, 0, 44, 70
1, 71564, Note_on_c, 0, 44, 0
1, 71570, Note_on_c, 0, 50, 0
1, 71610, Note_on_c, 0, 59, 0
1, 71616, Note_on_c, 0, 43, 86
1, 71670, Control_c, 0, 64, 0
1, 71684, Note_on_c, 0, 56, 106
1, 71724, Control_c, 0, 64, 127
1, 71802, Note_on_c, 0, 59, 64
1, 71808, Note_on_c, 0, 50, 57
1, 71833, Note_on_c, 0, 43, 0
1, 71902, Note_on_c, 0, 68, 59
1, 71906, Note_on_c, 0, 50, 0
1, 71906, Note_on_c, 0, 55, 80
1, 71910, Note_on_c, 0, 59, 0
1, 71915, Note_on_c, 0, 56, 0
1, 71919, Note_on_c, 0, 55, 0
1, 71952, Note_on_c, 0, 68, 0
1, 71985, Note_on_c, 0, 68, 65
1, 71988, Note_on_c, 0, 55, 66
1, 72078, Note_on_c, 0, 71, 66
1, 72079, Note_on_c, 0, 62, 66
1, 72105, Note_on_c, 0, 55, 0
1, 72166, Note_on_c, 0, 68, 0
1, 72166, Note_on_c, 0, 67, 62
1, 72174, Note_on_c, 0, 80, 61
1, 72177, Note_on_c, 0, 62, 0
1, 72185, Note_on_c, 0, 71, 0
1, 72199, Note_on_c, 0, 67, 0
1, 72227, Note_on_c, 0, 80, 0
1, 72259, Note_on_c, 0, 80, 54
1, 72262, Note_on_c, 0, 67, 29
1, 72360, Note_on_c, 0, 83, 54
1, 72362, Note_on_c, 0, 74, 53
1, 72380, Note_on_c, 0, 67, 0
1, 72462, Note_on_c, 0, 80, 0
1, 72478, Note_on_c, 0, 83, 0
1, 72493, Note_on_c, 0, 74, 0
1, 72498, Note_on_c, 0, 92, 104
1, 72504, Note_on_c, 0, 79, 67
1, 72593, Note_on_c, 0, 74, 54
1, 72599, Note_on_c, 0, 83, 49
1, 72616, Note_on_c, 0, 79, 0
1, 72675, Note_on_c, 0, 80, 53
1, 72678, Note_on_c, 0, 92, 0
1, 72681, Note_on_c, 0, 67, 61
1, 72691, Note_on_c, 0, 74, 0
1, 72692, Note_on_c, 0, 83, 0
1, 72713, Note_on_c, 0, 80, 0
1, 72721, Note_on_c, 0, 67, 0
1, 72758, Note_on_c, 0, 67, 64
1, 72770, Note_on_c, 0, 80, 47
1, 72831, Note_on_c, 0, 80, 0
1, 72842, Note_on_c, 0, 67, 0
1, 72844, Note_on_c, 0, 62, 66
1, 72850, Note_on_c, 0, 71, 54
1, 72936, Note_on_c, 0, 68, 66
1, 72937, Note_on_c, 0, 55, 63
1, 72943, Note_on_c, 0, 71, 0
1, 72956, Note_on_c, 0, 62, 0
1, 72968, Note_on_c, 0, 68, 0
1, 72983, Note_on_c, 0, 55, 0
1, 73032, Note_on_c, 0, 55, 45
1, 73041, Note_on_c, 0, 68, 57
1, 73121, Note_on_c, 0, 68, 0
1, 73132, Note_on_c, 0, 59, 61
1, 73138, Note_on_c, 0, 50, 62
1, 73142, Note_on_c, 0, 55, 0
1, 73206, Note_on_c, 0, 59, 0
1, 73214, Note_on_c, 0, 50, 0
1, 73221, Note_on_c, 0, 43, 65
1, 73266, Control_c, 0, 64, 0
1, 73278, Note_on_c, 0, 55, 94
1, 73310, Control_c, 0, 64, 127
1, 73314, Note_on_c, 0, 55, 0
1, 73372, Note_on_c, 0, 50, 55
1, 73376, Note_on_c, 0, 59, 78
1, 73400, Note_on_c, 0, 43, 0
1, 73455, Note_on_c, 0, 67, 60
1, 73457, Note_on_c, 0, 55, 62
1, 73461, Note_on_c, 0, 59, 0
1, 73462, Note_on_c, 0, 50, 0
1, 73489, Note_on_c, 0, 55, 0
1, 73490, Note_on_c, 0, 67, 0
1, 73531, Note_on_c, 0, 55, 58
1, 73533, Note_on_c, 0, 67, 72
1, 73599, Note_on_c, 0, 67, 0
1, 73616, Note_on_c, 0, 71, 68
1, 73623, Note_on_c, 0, 62, 59
1, 73644, Note_on_c, 0, 55, 0
1, 73704, Note_on_c, 0, 67, 63
1, 73706, Note_on_c, 0, 79, 53
1, 73711, Note_on_c, 0, 62, 0
1, 73714, Note_on_c, 0, 71, 0
1, 73739, Note_on_c, 0, 67, 0
1, 73752, Note_on_c, 0, 79, 0
1, 73796, Note_on_c, 0, 79, 62
1, 73804, Note_on_c, 0, 67, 53
1, 73874, Note_on_c, 0, 79, 0
1, 73886, Note_on_c, 0, 83, 60
1, 73895, Note_on_c, 0, 74, 49
1, 73897, Note_on_c, 0, 67, 0
1, 73974, Note_on_c, 0, 83, 0
1, 74002, Note_on_c, 0, 74, 0
1, 74003, Note_on_c, 0, 91, 78
1, 74010, Note_on_c, 0, 79, 55
1, 74102, Note_on_c, 0, 83, 48
1, 74104, Note_on_c, 0, 74, 54
1, 74108, Note_on_c, 0, 79, 0
1, 74186, Note_on_c, 0, 91, 0
1, 74194, Note_on_c, 0, 79, 61
1, 74195, Note_on_c, 0, 67, 56
1, 74204, Note_on_c, 0, 74, 0
1, 74210, Note_on_c, 0, 83, 0
1, 74224, Note_on_c, 0, 79, 0
1, 74238, Note_on_c, 0, 67, 0
1, 74277, Note_on_c, 0, 67, 58
1, 74294, Note_on_c, 0, 79, 56
1, 74378, Note_on_c, 0, 62, 59
1, 74382, Note_on_c, 0, 67, 0
1, 74383, Note_on_c, 0, 79, 0
1, 74384, Note_on_c, 0, 71, 50
1, 74474, Note_on_c, 0, 67, 63
1, 74478, Note_on_c, 0, 55, 59
1, 74482, Note_on_c, 0, 71, 0
1, 74492, Note_on_c, 0, 62, 0
1, 74503, Note_on_c, 0, 67, 0
1, 74522, Note_on_c, 0, 55, 0
1, 74589, Note_on_c, 0, 55, 51
1, 74596, Note_on_c, 0, 67, 52
1, 74710, Note_on_c, 0, 59, 45
1, 74722, Note_on_c, 0, 50, 34
1, 74728, Note_on_c, 0, 55, 0
1, 74740, Note_on_c, 0, 67, 0
1, 74743, Note_on_c, 0, 50, 0
1, 74760, Note_on_c, 0, 59, 0
1, 74953, Note_on_c, 0, 31, 26
1, 74978, Control_c, 0, 64, 0
1, 74979, Note_on_c, 0, 43, 27
1, 75049, Control_c, 0, 64, 127
1, 75132, Note_on_c, 0, 47, 31
1, 75134, Note_on_c, 0, 38, 28
1, 75187, Note_on_c, 0, 43, 0
1, 75235, Note_on_c, 0, 55, 40
1, 75239, Note_on_c, 0, 31, 0
1, 75248, Note_on_c, 0, 47, 0
1, 75256, Note_on_c, 0, 43, 46
1, 75262, Note_on_c, 0, 38, 0
1, 75294, Note_on_c, 0, 43, 0
1, 75307, Note_on_c, 0, 55, 0
1, 75340, Note_on_c, 0, 43, 26
1, 75346, Note_on_c, 0, 55, 50
1, 75443, Note_on_c, 0, 55, 0
1, 75447, Note_on_c, 0, 59, 50
1, 75455, Note_on_c, 0, 50, 42
1, 75480, Note_on_c, 0, 43, 0
1, 75535, Note_on_c, 0, 59, 0
1, 75547, Note_on_c, 0, 67, 50
1, 75550, Note_on_c, 0, 50, 0
1, 75555, Note_on_c, 0, 55, 28
1, 75634, Note_on_c, 0, 50, 40
1, 75638, Note_on_c, 0, 59, 52
1, 75660, Note_on_c, 0, 55, 0
1, 75688, Note_on_c, 0, 50, 0
1, 75719, Note_on_c, 0, 67, 0
1, 75720, Note_on_c, 0, 55, 70
1, 75729, Note_on_c, 0, 59, 0
1, 75748, Note_on_c, 0, 55, 0
1, 75826, Note_on_c, 0, 32, 80
1, 75862, Note_on_c, 0, 43, 82
1, 75909, Control_c, 0, 64, 0
1, 75963, Control_c, 0, 64, 127
1, 75968, Note_on_c, 0, 39, 60
1, 75982, Note_on_c, 0, 48, 53
1, 76024, Note_on_c, 0, 43, 0
1, 76061, Note_on_c, 0, 44, 66
1, 76062, Note_on_c, 0, 32, 0
1, 76064, Note_on_c, 0, 55, 52
1, 76070, Note_on_c, 0, 48, 0
1, 76077, Note_on_c, 0, 39, 0
1, 76093, Note_on_c, 0, 44, 0
1, 76110, Note_on_c, 0, 55, 0
1, 76140, Note_on_c, 0, 44, 66
1, 76152, Note_on_c, 0, 55, 66
1, 76239, Note_on_c, 0, 51, 59
1, 76245, Note_on_c, 0, 60, 69
1, 76270, Note_on_c, 0, 44, 0
1, 76288, Note_on_c, 0, 55, 0
1, 76336, Note_on_c, 0, 56, 65
1, 76337, Note_on_c, 0, 60, 0
1, 76341, Note_on_c, 0, 67, 68
1, 76355, Note_on_c, 0, 51, 0
1, 76423, Note_on_c, 0, 51, 41
1, 76430, Note_on_c, 0, 60, 59
1, 76461, Note_on_c, 0, 56, 0
1, 76472, Note_on_c, 0, 44, 53
1, 76488, Note_on_c, 0, 51, 0
1, 76510, Note_on_c, 0, 44, 0
1, 76512, Note_on_c, 0, 55, 76
1, 76519, Note_on_c, 0, 67, 0
1, 76527, Note_on_c, 0, 60, 0
1, 76543, Note_on_c, 0, 55, 0
1, 76607, Note_on_c, 0, 33, 98
1, 76662, Control_c, 0, 64, 0
1, 76681, Note_on_c, 0, 43, 98
1, 76716, Control_c, 0, 64, 127
1, 76781, Note_on_c, 0, 37, 62
1, 76788, Note_on_c, 0, 49, 78
1, 76800, Note_on_c, 0, 43, 0
1, 76876, Note_on_c, 0, 33, 0
1, 76876, Note_on_c, 0, 45, 72
1, 76878, Note_on_c, 0, 55, 66
1, 76894, Note_on_c, 0, 37, 0
1, 76898, Note_on_c, 0, 49, 0
1, 76906, Note_on_c, 0, 45, 0
1, 76923, Note_on_c, 0, 55, 0
1, 76968, Note_on_c, 0, 55, 82
1, 76971, Note_on_c, 0, 45, 60
1, 76972, Note_on_c, 0, 43, 33
1, 76993, Note_on_c, 0, 43, 0
1, 77056, Note_on_c, 0, 55, 0
1, 77071, Note_on_c, 0, 61, 70
1, 77072, Note_on_c, 0, 49, 61
1, 77164, Note_on_c, 0, 61, 0
1, 77168, Note_on_c, 0, 67, 69
1, 77168, Note_on_c, 0, 57, 69
1, 77175, Note_on_c, 0, 49, 0
1, 77194, Note_on_c, 0, 45, 0
1, 77238, Note_on_c, 0, 57, 0
1, 77250, Note_on_c, 0, 49, 66
1, 77258, Note_on_c, 0, 61, 59
1, 77289, Note_on_c, 0, 49, 0
1, 77340, Note_on_c, 0, 55, 86
1, 77350, Note_on_c, 0, 67, 0
1, 77364, Note_on_c, 0, 61, 0
1, 77380, Note_on_c, 0, 55, 0
1, 77457, Note_on_c, 0, 34, 100
1, 77478, Control_c, 0, 64, 0
1, 77524, Control_c, 0, 64, 127
1, 77559, Note_on_c, 0, 43, 87
1, 77636, Note_on_c, 0, 34, 0
1, 77704, Note_on_c, 0, 49, 66
1, 77707, Note_on_c, 0, 37, 54
1, 77796, Note_on_c, 0, 43, 0
1, 77809, Note_on_c, 0, 49, 0
1, 77812, Note_on_c, 0, 55, 70
1, 77814, Note_on_c, 0, 46, 70
1, 77821, Note_on_c, 0, 37, 0
1, 77901, Note_on_c, 0, 37, 51
1, 77912, Note_on_c, 0, 49, 68
1, 77951, Note_on_c, 0, 46, 0
1, 77962, Note_on_c, 0, 37, 0
1, 77966, Note_on_c, 0, 55, 0
1, 77996, Note_on_c, 0, 35, 102
1, 78025, Control_c, 0, 64, 0
1, 78075, Note_on_c, 0, 49, 0
1, 78079, Control_c, 0, 64, 127
1, 78099, Note_on_c, 0, 43, 100
1, 78216, Note_on_c, 0, 38, 68
1, 78225, Note_on_c, 0, 50, 63
1, 78314, Note_on_c, 0, 43, 0
1, 78317, Note_on_c, 0, 50, 0
1, 78322, Note_on_c, 0, 55, 67
1, 78326, Note_on_c, 0, 47, 70
1, 78338, Note_on_c, 0, 38, 0
1, 78384, Note_on_c, 0, 35, 0
1, 78439, Note_on_c, 0, 38, 78
1, 78446, Note_on_c, 0, 55, 0
1, 78448, Note_on_c, 0, 50, 80
1, 78468, Note_on_c, 0, 38, 0
1, 78468, Note_on_c, 0, 47, 0
1, 78556, Note_on_c, 0, 50, 0
1, 78626, Note_on_c, 0, 36, 84
1, 78696, Control_c, 0, 64, 0
1, 78717, Note_on_c, 0, 51, 106
1, 78758, Control_c, 0, 64, 127
1, 78837, Note_on_c, 0, 43, 60
1, 78846, Note_on_c, 0, 55, 69
1, 78952, Note_on_c, 0, 63, 59
1, 78960, Note_on_c, 0, 48, 66
1, 78964, Note_on_c, 0, 36, 0
1, 78966, Note_on_c, 0, 51, 0
1, 78969, Note_on_c, 0, 55, 0
1, 78974, Note_on_c, 0, 43, 0
1, 79002, Note_on_c, 0, 48, 0
1, 79020, Note_on_c, 0, 63, 0
1, 79053, Note_on_c, 0, 63, 56
1, 79056, Note_on_c, 0, 48, 61
1, 79138, Note_on_c, 0, 63, 0
1, 79150, Note_on_c, 0, 67, 84
1, 79154, Note_on_c, 0, 55, 78
1, 79180, Note_on_c, 0, 48, 0
1, 79247, Note_on_c, 0, 60, 58
1, 79251, Note_on_c, 0, 75, 54
1, 79254, Note_on_c, 0, 55, 0
1, 79266, Note_on_c, 0, 67, 0
1, 79284, Note_on_c, 0, 60, 0
1, 79314, Note_on_c, 0, 75, 0
1, 79337, Note_on_c, 0, 60, 46
1, 79341, Note_on_c, 0, 75, 69
1, 79444, Note_on_c, 0, 67, 59
1, 79445, Note_on_c, 0, 79, 64
1, 79470, Note_on_c, 0, 60, 0
1, 79502, Note_on_c, 0, 75, 0
1, 79546, Note_on_c, 0, 79, 0
1, 79550, Note_on_c, 0, 67, 0
1, 79555, Note_on_c, 0, 87, 84
1, 79562, Note_on_c, 0, 72, 51
1, 79648, Note_on_c, 0, 79, 54
1, 79652, Note_on_c, 0, 67, 50
1, 79688, Note_on_c, 0, 72, 0
1, 79740, Note_on_c, 0, 75, 58
1, 79742, Note_on_c, 0, 87, 0
1, 79744, Note_on_c, 0, 60, 60
1, 79749, Note_on_c, 0, 79, 0
1, 79758, Note_on_c, 0, 67, 0
1, 79774, Note_on_c, 0, 75, 0
1, 79790, Note_on_c, 0, 60, 0
1, 79832, Note_on_c, 0, 60, 53
1, 79836, Note_on_c, 0, 75, 27
1, 79918, Note_on_c, 0, 75, 0
1, 79936, Note_on_c, 0, 55, 59
1, 79937, Note_on_c, 0, 67, 67
1, 79980, Note_on_c, 0, 60, 0
1, 80034, Note_on_c, 0, 63, 62
1, 80038, Note_on_c, 0, 67, 0
1, 80039, Note_on_c, 0, 48, 61
1, 80052, Note_on_c, 0, 55, 0
1, 80063, Note_on_c, 0, 63, 0
1, 80088, Note_on_c, 0, 48, 0
1, 80132, Note_on_c, 0, 48, 34
1, 80137, Note_on_c, 0, 63, 61
1, 80226, Note_on_c, 0, 63, 0
1, 80238, Note_on_c, 0, 55, 62
1, 80239, Note_on_c, 0, 43, 65
1, 80262, Note_on_c, 0, 48, 0
1, 80318, Note_on_c, 0, 55, 0
1, 80344, Note_on_c, 0, 43, 0
1, 80352, Note_on_c, 0, 36, 57
1, 80372, Note_on_c, 0, 50, 92
1, 80396, Control_c, 0, 64, 0
1, 80441, Control_c, 0, 64, 127
1, 80494, Note_on_c, 0, 41, 60
1, 80501, Note_on_c, 0, 56, 53
1, 80560, Note_on_c, 0, 50, 0
1, 80581, Note_on_c, 0, 36, 0
1, 80587, Note_on_c, 0, 62, 54
1, 80597, Note_on_c, 0, 48, 62
1, 80606, Note_on_c, 0, 41, 0
1, 80624, Note_on_c, 0, 56, 0
1, 80640, Note_on_c, 0, 62, 0
1, 80640, Note_on_c, 0, 48, 0
1, 80670, Note_on_c, 0, 48, 57
1, 80673, Note_on_c, 0, 62, 68
1, 80762, Note_on_c, 0, 68, 76
1, 80767, Note_on_c, 0, 53, 57
1, 80786, Note_on_c, 0, 48, 0
1, 80788, Note_on_c, 0, 62, 0
1, 80849, Note_on_c, 0, 74, 52
1, 80857, Note_on_c, 0, 60, 64
1, 80862, Note_on_c, 0, 68, 0
1, 80862, Note_on_c, 0, 53, 0
1, 80888, Note_on_c, 0, 60, 0
1, 80895, Note_on_c, 0, 74, 0
1, 80936, Note_on_c, 0, 74, 54
1, 80938, Note_on_c, 0, 60, 44
1, 81029, Note_on_c, 0, 80, 66
1, 81036, Note_on_c, 0, 65, 52
1, 81059, Note_on_c, 0, 60, 0
1, 81063, Note_on_c, 0, 74, 0
1, 81142, Note_on_c, 0, 80, 0
1, 81158, Note_on_c, 0, 65, 0
1, 81168, Note_on_c, 0, 86, 81
1, 81179, Note_on_c, 0, 72, 55
1, 81271, Note_on_c, 0, 80, 43
1, 81275, Note_on_c, 0, 65, 49
1, 81310, Note_on_c, 0, 72, 0
1, 81350, Note_on_c, 0, 86, 0
1, 81357, Note_on_c, 0, 74, 63
1, 81367, Note_on_c, 0, 60, 57
1, 81371, Note_on_c, 0, 80, 0
1, 81379, Note_on_c, 0, 65, 0
1, 81382, Note_on_c, 0, 74, 0
1, 81414, Note_on_c, 0, 60, 0
1, 81446, Note_on_c, 0, 74, 52
1, 81452, Note_on_c, 0, 60, 56
1, 81532, Note_on_c, 0, 53, 64
1, 81533, Note_on_c, 0, 68, 62
1, 81544, Note_on_c, 0, 74, 0
1, 81572, Note_on_c, 0, 60, 0
1, 81620, Note_on_c, 0, 62, 68
1, 81624, Note_on_c, 0, 68, 0
1, 81627, Note_on_c, 0, 48, 52
1, 81639, Note_on_c, 0, 53, 0
1, 81654, Note_on_c, 0, 62, 0
1, 81672, Note_on_c, 0, 48, 0
1, 81711, Note_on_c, 0, 48, 58
1, 81717, Note_on_c, 0, 62, 67
1, 81796, Note_on_c, 0, 62, 0
1, 81810, Note_on_c, 0, 41, 68
1, 81811, Note_on_c, 0, 56, 72
1, 81834, Note_on_c, 0, 48, 0
1, 81877, Note_on_c, 0, 41, 0
1, 81902, Note_on_c, 0, 36, 72
1, 81924, Note_on_c, 0, 53, 108
1, 81926, Note_on_c, 0, 56, 0
1, 81949, Control_c, 0, 64, 0
1, 82003, Control_c, 0, 64, 127
1, 82038, Note_on_c, 0, 60, 59
1, 82042, Note_on_c, 0, 44, 59
1, 82115, Note_on_c, 0, 53, 0
1, 82120, Note_on_c, 0, 36, 0
1, 82122, Note_on_c, 0, 65, 60
1, 82130, Note_on_c, 0, 48, 62
1, 82131, Note_on_c, 0, 60, 0
1, 82149, Note_on_c, 0, 44, 0
1, 82163, Note_on_c, 0, 48, 0
1, 82171, Note_on_c, 0, 65, 0
1, 82205, Note_on_c, 0, 48, 54
1, 82207, Note_on_c, 0, 65, 65
1, 82300, Note_on_c, 0, 72, 51
1, 82308, Note_on_c, 0, 56, 61
1, 82354, Note_on_c, 0, 65, 0
1, 82355, Note_on_c, 0, 48, 0
1, 82384, Note_on_c, 0, 77, 39
1, 82388, Note_on_c, 0, 60, 64
1, 82398, Note_on_c, 0, 72, 0
1, 82419, Note_on_c, 0, 60, 0
1, 82425, Note_on_c, 0, 56, 0
1, 82431, Note_on_c, 0, 77, 0
1, 82469, Note_on_c, 0, 60, 61
1, 82471, Note_on_c, 0, 77, 66
1, 82557, Note_on_c, 0, 84, 64
1, 82560, Note_on_c, 0, 60, 0
1, 82565, Note_on_c, 0, 68, 55
1, 82627, Note_on_c, 0, 77, 0
1, 82655, Note_on_c, 0, 84, 0
1, 82669, Note_on_c, 0, 89, 89
1, 82685, Note_on_c, 0, 72, 46
1, 82700, Note_on_c, 0, 68, 0
1, 82765, Note_on_c, 0, 84, 51
1, 82770, Note_on_c, 0, 68, 43
1, 82808, Note_on_c, 0, 72, 0
1, 82843, Note_on_c, 0, 89, 0
1, 82851, Note_on_c, 0, 77, 54
1, 82853, Note_on_c, 0, 60, 53
1, 82861, Note_on_c, 0, 84, 0
1, 82868, Note_on_c, 0, 68, 0
1, 82884, Note_on_c, 0, 77, 0
1, 82898, Note_on_c, 0, 60, 0
1, 82932, Note_on_c, 0, 60, 60
1, 82940, Note_on_c, 0, 77, 46
1, 83020, Note_on_c, 0, 77, 0
1, 83029, Note_on_c, 0, 56, 59
1, 83033, Note_on_c, 0, 72, 53
1, 83083, Note_on_c, 0, 60, 0
1, 83119, Note_on_c, 0, 48, 59
1, 83121, Note_on_c, 0, 65, 62
1, 83122, Note_on_c, 0, 72, 0
1, 83134, Note_on_c, 0, 65, 0
1, 83140, Note_on_c, 0, 56, 0
1, 83165, Note_on_c, 0, 48, 0
1, 83202, Note_on_c, 0, 48, 62
1, 83212, Note_on_c, 0, 65, 74
1, 83295, Note_on_c, 0, 60, 78
1, 83297, Note_on_c, 0, 65, 0
1, 83302, Note_on_c, 0, 44, 64
1, 83326, Note_on_c, 0, 48, 0
1, 83350, Note_on_c, 0, 60, 0
1, 83360, Note_on_c, 0, 44, 0
1, 83373, Note_on_c, 0, 36, 72
1, 83431, Control_c, 0, 64, 0
1, 83431, Note_on_c, 0, 51, 106
1, 83476, Control_c, 0, 64, 127
1, 83530, Note_on_c, 0, 43, 58
1, 83540, Note_on_c, 0, 55, 62
1, 83607, Note_on_c, 0, 36, 0
1, 83627, Note_on_c, 0, 48, 58
1, 83629, Note_on_c, 0, 63, 57
1, 83633, Note_on_c, 0, 51, 0
1, 83637, Note_on_c, 0, 55, 0
1, 83640, Note_on_c, 0, 43, 0
1, 83667, Note_on_c, 0, 48, 0
1, 83683, Note_on_c, 0, 63, 0
1, 83708, Note_on_c, 0, 48, 49
1, 83714, Note_on_c, 0, 63, 30
1, 83800, Note_on_c, 0, 67, 72
1, 83806, Note_on_c, 0, 55, 70
1, 83828, Note_on_c, 0, 48, 0
1, 83848, Note_on_c, 0, 63, 0
1, 83887, Note_on_c, 0, 75, 54
1, 83890, Note_on_c, 0, 60, 64
1, 83896, Note_on_c, 0, 67, 0
1, 83898, Note_on_c, 0, 55, 0
1, 83926, Note_on_c, 0, 60, 0
1, 83938, Note_on_c, 0, 75, 0
1, 83972, Note_on_c, 0, 75, 64
1, 83978, Note_on_c, 0, 60, 51
1, 84062, Note_on_c, 0, 79, 56
1, 84068, Note_on_c, 0, 67, 57
1, 84089, Note_on_c, 0, 60, 0
1, 84100, Note_on_c, 0, 75, 0
1, 84158, Note_on_c, 0, 79, 0
1, 84182, Note_on_c, 0, 67, 0
1, 84190, Note_on_c, 0, 87, 87
1, 84196, Note_on_c, 0, 72, 54
1, 84286, Note_on_c, 0, 79, 57
1, 84288, Note_on_c, 0, 67, 54
1, 84313, Note_on_c, 0, 72, 0
1, 84363, Note_on_c, 0, 87, 0
1, 84370, Note_on_c, 0, 75, 52
1, 84372, Note_on_c, 0, 60, 62
1, 84377, Note_on_c, 0, 79, 0
1, 84390, Note_on_c, 0, 67, 0
1, 84398, Note_on_c, 0, 75, 0
1, 84419, Note_on_c, 0, 60, 0
1, 84452, Note_on_c, 0, 60, 66
1, 84458, Note_on_c, 0, 75, 23
1, 84521, Note_on_c, 0, 75, 0
1, 84546, Note_on_c, 0, 55, 67
1, 84549, Note_on_c, 0, 67, 74
1, 84576, Note_on_c, 0, 60, 0
1, 84636, Note_on_c, 0, 63, 68
1, 84640, Note_on_c, 0, 67, 0
1, 84642, Note_on_c, 0, 48, 59
1, 84654, Note_on_c, 0, 55, 0
1, 84668, Note_on_c, 0, 63, 0
1, 84688, Note_on_c, 0, 48, 0
1, 84727, Note_on_c, 0, 48, 52
1, 84737, Note_on_c, 0, 63, 44
1, 84820, Note_on_c, 0, 55, 69
1, 84821, Note_on_c, 0, 63, 0
1, 84824, Note_on_c, 0, 43, 66
1, 84845, Note_on_c, 0, 48, 0
1, 84888, Note_on_c, 0, 55, 0
1, 84896, Note_on_c, 0, 43, 0
1, 84900, Note_on_c, 0, 36, 84
1, 84960, Note_on_c, 0, 50, 98
1, 84965, Control_c, 0, 64, 0
1, 84992, Control_c, 0, 64, 127
1, 85061, Note_on_c, 0, 41, 56
1, 85079, Note_on_c, 0, 56, 62
1, 85107, Note_on_c, 0, 50, 0
1, 85126, Note_on_c, 0, 36, 0
1, 85157, Note_on_c, 0, 48, 59
1, 85159, Note_on_c, 0, 62, 67
1, 85164, Note_on_c, 0, 41, 0
1, 85189, Note_on_c, 0, 48, 0
1, 85198, Note_on_c, 0, 62, 0
1, 85204, Note_on_c, 0, 56, 0
1, 85234, Note_on_c, 0, 48, 36
1, 85242, Note_on_c, 0, 62, 64
1, 85324, Note_on_c, 0, 68, 72
1, 85329, Note_on_c, 0, 53, 61
1, 85342, Note_on_c, 0, 48, 0
1, 85354, Note_on_c, 0, 62, 0
1, 85407, Note_on_c, 0, 74, 49
1, 85412, Note_on_c, 0, 60, 62
1, 85419, Note_on_c, 0, 68, 0
1, 85419, Note_on_c, 0, 53, 0
1, 85445, Note_on_c, 0, 60, 0
1, 85458, Note_on_c, 0, 74, 0
1, 85496, Note_on_c, 0, 60, 57
1, 85498, Note_on_c, 0, 74, 58
1, 85589, Note_on_c, 0, 80, 66
1, 85598, Note_on_c, 0, 65, 59
1, 85605, Note_on_c, 0, 60, 0
1, 85646, Note_on_c, 0, 74, 0
1, 85657, Note_on_c, 0, 80, 0
1, 85697, Note_on_c, 0, 65, 0
1, 85715, Note_on_c, 0, 86, 78
1, 85721, Note_on_c, 0, 72, 48
1, 85816, Note_on_c, 0, 65, 53
1, 85816, Note_on_c, 0, 80, 58
1, 85852, Note_on_c, 0, 72, 0
1, 85889, Note_on_c, 0, 86, 0
1, 85897, Note_on_c, 0, 74, 70
1, 85902, Note_on_c, 0, 60, 58
1, 85911, Note_on_c, 0, 80, 0
1, 85913, Note_on_c, 0, 65, 0
1, 85926, Note_on_c, 0, 74, 0
1, 85944, Note_on_c, 0, 60, 0
1, 85982, Note_on_c, 0, 74, 47
1, 85984, Note_on_c, 0, 60, 54
1, 86054, Note_on_c, 0, 74, 0
1, 86068, Note_on_c, 0, 53, 62
1, 86073, Note_on_c, 0, 68, 67
1, 86110, Note_on_c, 0, 60, 0
1, 86165, Note_on_c, 0, 62, 69
1, 86172, Note_on_c, 0, 48, 51
1, 86175, Note_on_c, 0, 68, 0
1, 86190, Note_on_c, 0, 53, 0
1, 86198, Note_on_c, 0, 62, 0
1, 86224, Note_on_c, 0, 48, 0
1, 86265, Note_on_c, 0, 48, 52
1, 86267, Note_on_c, 0, 62, 61
1, 86365, Note_on_c, 0, 62, 0
1, 86368, Note_on_c, 0, 56, 37
1, 86374, Note_on_c, 0, 41, 66
1, 86389, Note_on_c, 0, 48, 0
1, 86445, Note_on_c, 0, 41, 0
1, 86453, Note_on_c, 0, 36, 80
1, 86493, Note_on_c, 0, 56, 0
1, 86525, Control_c, 0, 64, 0
1, 86532, Note_on_c, 0, 51, 98
1, 86570, Control_c, 0, 64, 127
1, 86634, Note_on_c, 0, 41, 58
1, 86642, Note_on_c, 0, 56, 64
1, 86707, Note_on_c, 0, 51, 0
1, 86707, Note_on_c, 0, 36, 0
1, 86727, Note_on_c, 0, 63, 55
1, 86730, Note_on_c, 0, 47, 45
1, 86740, Note_on_c, 0, 41, 0
1, 86763, Note_on_c, 0, 47, 0
1, 86776, Note_on_c, 0, 63, 0
1, 86802, Note_on_c, 0, 56, 0
1, 86809, Note_on_c, 0, 63, 69
1, 86810, Note_on_c, 0, 48, 35
1, 86904, Note_on_c, 0, 68, 70
1, 86908, Note_on_c, 0, 53, 66
1, 86932, Note_on_c, 0, 48, 0
1, 86976, Note_on_c, 0, 63, 0
1, 86995, Note_on_c, 0, 75, 43
1, 86996, Note_on_c, 0, 59, 48
1, 87006, Note_on_c, 0, 53, 0
1, 87013, Note_on_c, 0, 68, 0
1, 87026, Note_on_c, 0, 59, 0
1, 87051, Note_on_c, 0, 75, 0
1, 87086, Note_on_c, 0, 75, 59
1, 87092, Note_on_c, 0, 60, 29
1, 87179, Note_on_c, 0, 60, 0
1, 87181, Note_on_c, 0, 80, 56
1, 87182, Note_on_c, 0, 65, 55
1, 87288, Note_on_c, 0, 75, 0
1, 87297, Note_on_c, 0, 80, 0
1, 87312, Note_on_c, 0, 65, 0
1, 87315, Note_on_c, 0, 87, 94
1, 87323, Note_on_c, 0, 71, 68
1, 87420, Note_on_c, 0, 80, 59
1, 87422, Note_on_c, 0, 65, 52
1, 87460, Note_on_c, 0, 71, 0
1, 87501, Note_on_c, 0, 87, 0
1, 87507, Note_on_c, 0, 75, 58
1, 87511, Note_on_c, 0, 60, 63
1, 87523, Note_on_c, 0, 80, 0
1, 87524, Note_on_c, 0, 65, 0
1, 87536, Note_on_c, 0, 75, 0
1, 87556, Note_on_c, 0, 60, 0
1, 87598, Note_on_c, 0, 75, 62
1, 87604, Note_on_c, 0, 59, 59
1, 87692, Note_on_c, 0, 75, 0
1, 87702, Note_on_c, 0, 53, 56
1, 87710, Note_on_c, 0, 68, 62
1, 87762, Note_on_c, 0, 59, 0
1, 87808, Note_on_c, 0, 63, 36
1, 87810, Note_on_c, 0, 48, 50
1, 87819, Note_on_c, 0, 68, 0
1, 87823, Note_on_c, 0, 53, 0
1, 87847, Note_on_c, 0, 63, 0
1, 87857, Note_on_c, 0, 48, 0
1, 87909, Note_on_c, 0, 47, 57
1, 87927, Note_on_c, 0, 63, 58
1, 88004, Note_on_c, 0, 63, 0
1, 88018, Note_on_c, 0, 56, 22
1, 88024, Note_on_c, 0, 41, 56
1, 88058, Note_on_c, 0, 47, 0
1, 88109, Note_on_c, 0, 41, 0
1, 88115, Note_on_c, 0, 24, 76
1, 88145, Note_on_c, 0, 56, 0
1, 88194, Control_c, 0, 64, 0
1, 88226, Note_on_c, 0, 48, 92
1, 88247, Control_c, 0, 64, 127
1, 88320, Note_on_c, 0, 48, 0
1, 88364, Note_on_c, 0, 51, 68
1, 88368, Note_on_c, 0, 43, 50
1, 88383, Note_on_c, 0, 24, 0
1, 88458, Note_on_c, 0, 51, 0
1, 88460, Note_on_c, 0, 60, 63
1, 88464, Note_on_c, 0, 48, 53
1, 88469, Note_on_c, 0, 43, 0
1, 88504, Note_on_c, 0, 48, 0
1, 88508, Note_on_c, 0, 60, 0
1, 88560, Note_on_c, 0, 48, 31
1, 88562, Note_on_c, 0, 60, 60
1, 88609, Note_on_c, 0, 60, 0
1, 88695, Note_on_c, 0, 63, 78
1, 88704, Note_on_c, 0, 55, 39
1, 88715, Note_on_c, 0, 48, 0
1, 88756, Note_on_c, 0, 63, 0
1, 88832, Note_on_c, 0, 55, 0
1, 88834, Note_on_c, 0, 72, 67
1, 88845, Note_on_c, 0, 60, 35
1, 88955, Note_on_c, 0, 60, 0
1, 88972, Note_on_c, 0, 55, 29
1, 88974, Note_on_c, 0, 63, 46
1, 89071, Note_on_c, 0, 55, 0
1, 89075, Note_on_c, 0, 63, 0
1, 89081, Note_on_c, 0, 72, 0
1, 89083, Note_on_c, 0, 60, 51
1, 89088, Note_on_c, 0, 48, 30
1, 89132, Note_on_c, 0, 60, 0
1, 89178, Note_on_c, 0, 63, 55
1, 89185, Note_on_c, 0, 48, 0
1, 89189, Note_on_c, 0, 55, 39
1, 89257, Note_on_c, 0, 63, 0
1, 89259, Note_on_c, 0, 70, 57
1, 89278, Note_on_c, 0, 60, 30
1, 89282, Note_on_c, 0, 55, 0
1, 89361, Note_on_c, 0, 63, 33
1, 89367, Note_on_c, 0, 60, 0
1, 89374, Note_on_c, 0, 55, 37
1, 89388, Note_on_c, 0, 55, 0
1, 89434, Note_on_c, 0, 63, 0
1, 89451, Note_on_c, 0, 60, 29
1, 89453, Note_on_c, 0, 48, 28
1, 89494, Note_on_c, 0, 60, 0
1, 89509, Note_on_c, 0, 70, 0
1, 89538, Note_on_c, 0, 63, 32
1, 89542, Note_on_c, 0, 48, 0
1, 89553, Note_on_c, 0, 55, 29
1, 89567, Note_on_c, 0, 55, 0
1, 89646, Note_on_c, 0, 63, 0
1, 89650, Note_on_c, 0, 68, 41
1, 89660, Note_on_c, 0, 60, 28
1, 89768, Note_on_c, 0, 63, 24
1, 89777, Note_on_c, 0, 55, 24
1, 89779, Note_on_c, 0, 60, 0
1, 89846, Note_on_c, 0, 63, 0
1, 89859, Note_on_c, 0, 55, 0
1, 89866, Note_on_c, 0, 60, 21
1, 89868, Note_on_c, 0, 48, 25
1, 89929, Note_on_c, 0, 68, 0
1, 89960, Note_on_c, 0, 62, 29
1, 89966, Note_on_c, 0, 48, 0
1, 89967, Note_on_c, 0, 55, 28
1, 89990, Note_on_c, 0, 60, 0
1, 90066, Note_on_c, 0, 62, 0
1, 90081, Note_on_c, 0, 67, 46
1, 90094, Note_on_c, 0, 59, 30
1, 90096, Note_on_c, 0, 55, 0
1, 90207, Note_on_c, 0, 62, 28
1, 90214, Note_on_c, 0, 55, 24
1, 90217, Note_on_c, 0, 59, 0
1, 90231, Note_on_c, 0, 67, 0
1, 90272, Note_on_c, 0, 55, 0
1, 90284, Note_on_c, 0, 62, 0
1, 90292, Note_on_c, 0, 48, 32
1, 90299, Note_on_c, 0, 59, 25
1, 90369, Note_on_c, 0, 48, 0
1, 90372, Note_on_c, 0, 55, 35
1, 90382, Note_on_c, 0, 61, 28
1, 90441, Note_on_c, 0, 59, 0
1, 90462, Note_on_c, 0, 61, 0
1, 90467, Note_on_c, 0, 55, 0
1, 90476, Note_on_c, 0, 58, 35
1, 90480, Note_on_c, 0, 67, 58
1, 90551, Note_on_c, 0, 55, 30
1, 90566, Note_on_c, 0, 58, 0
1, 90571, Note_on_c, 0, 61, 33
1, 90577, Note_on_c, 0, 67, 0
1, 90603, Note_on_c, 0, 55, 0
1, 90633, Note_on_c, 0, 61, 0
1, 90635, Note_on_c, 0, 48, 27
1, 90656, Note_on_c, 0, 58, 26
1, 90742, Note_on_c, 0, 60, 30
1, 90753, Note_on_c, 0, 53, 31
1, 90764, Note_on_c, 0, 48, 0
1, 90820, Control_c, 0, 64, 0
1, 90867, Note_on_c, 0, 60, 0
1, 90868, Note_on_c, 0, 57, 43
1, 90873, Note_on_c, 0, 65, 36
1, 90882, Note_on_c, 0, 57, 0
1, 90883, Control_c, 0, 64, 127
1, 90892, Note_on_c, 0, 57, 17
1, 90893, Note_on_c, 0, 53, 0
1, 90974, Note_on_c, 0, 58, 0
1, 90986, Note_on_c, 0, 60, 22
1, 90996, Note_on_c, 0, 53, 25
1, 91007, Note_on_c, 0, 57, 0
1, 91062, Note_on_c, 0, 60, 0
1, 91090, Note_on_c, 0, 53, 0
1, 91092, Note_on_c, 0, 57, 24
1, 91101, Note_on_c, 0, 48, 24
1, 91180, Note_on_c, 0, 65, 0
1, 91201, Note_on_c, 0, 48, 0
1, 91206, Note_on_c, 0, 53, 31
1, 91206, Note_on_c, 0, 59, 24
1, 91227, Note_on_c, 0, 57, 0
1, 91327, Note_on_c, 0, 59, 0
1, 91346, Note_on_c, 0, 65, 55
1, 91351, Note_on_c, 0, 53, 0
1, 91361, Note_on_c, 0, 56, 23
1, 91453, Note_on_c, 0, 53, 25
1, 91464, Note_on_c, 0, 56, 0
1, 91470, Note_on_c, 0, 59, 27
1, 91557, Note_on_c, 0, 53, 0
1, 91557, Note_on_c, 0, 48, 36
1, 91568, Note_on_c, 0, 56, 27
1, 91593, Note_on_c, 0, 48, 0
1, 91595, Note_on_c, 0, 59, 0
1, 91644, Note_on_c, 0, 65, 0
1, 91687, Note_on_c, 0, 36, 42
1, 91689, Note_on_c, 0, 56, 0
1, 91779, Control_c, 0, 64, 0
1, 91784, Note_on_c, 0, 51, 60
1, 91824, Control_c, 0, 64, 127
1, 91884, Note_on_c, 0, 43, 26
1, 91892, Note_on_c, 0, 55, 48
1, 91968, Note_on_c, 0, 36, 0
1, 91982, Note_on_c, 0, 48, 48
1, 91983, Note_on_c, 0, 63, 30
1, 91986, Note_on_c, 0, 51, 0
1, 91988, Note_on_c, 0, 55, 0
1, 91990, Note_on_c, 0, 43, 0
1, 92028, Note_on_c, 0, 48, 0
1, 92040, Note_on_c, 0, 63, 0
1, 92066, Note_on_c, 0, 48, 28
1, 92076, Note_on_c, 0, 63, 22
1, 92154, Note_on_c, 0, 67, 52
1, 92160, Note_on_c, 0, 48, 0
1, 92171, Note_on_c, 0, 55, 42
1, 92239, Note_on_c, 0, 63, 0
1, 92244, Note_on_c, 0, 75, 45
1, 92250, Note_on_c, 0, 60, 53
1, 92254, Note_on_c, 0, 55, 0
1, 92257, Note_on_c, 0, 67, 0
1, 92288, Note_on_c, 0, 60, 0
1, 92301, Note_on_c, 0, 75, 0
1, 92330, Note_on_c, 0, 75, 60
1, 92334, Note_on_c, 0, 60, 34
1, 92417, Note_on_c, 0, 79, 46
1, 92420, Note_on_c, 0, 67, 40
1, 92428, Note_on_c, 0, 60, 0
1, 92490, Note_on_c, 0, 75, 0
1, 92510, Note_on_c, 0, 79, 0
1, 92519, Note_on_c, 0, 87, 62
1, 92529, Note_on_c, 0, 67, 0
1, 92530, Note_on_c, 0, 72, 35
1, 92604, Note_on_c, 0, 79, 47
1, 92611, Note_on_c, 0, 67, 49
1, 92636, Note_on_c, 0, 72, 0
1, 92691, Note_on_c, 0, 75, 40
1, 92692, Note_on_c, 0, 87, 0
1, 92696, Note_on_c, 0, 60, 55
1, 92702, Note_on_c, 0, 79, 0
1, 92707, Note_on_c, 0, 67, 0
1, 92729, Note_on_c, 0, 75, 0
1, 92748, Note_on_c, 0, 60, 0
1, 92781, Note_on_c, 0, 60, 64
1, 92796, Note_on_c, 0, 75, 28
1, 92871, Note_on_c, 0, 75, 0
1, 92874, Note_on_c, 0, 55, 51
1, 92884, Note_on_c, 0, 67, 63
1, 92927, Note_on_c, 0, 60, 0
1, 92970, Note_on_c, 0, 63, 56
1, 92974, Note_on_c, 0, 67, 0
1, 92978, Note_on_c, 0, 48, 49
1, 92996, Note_on_c, 0, 55, 0
1, 93003, Note_on_c, 0, 63, 0
1, 93028, Note_on_c, 0, 48, 0
1, 93063, Note_on_c, 0, 48, 50
1, 93076, Note_on_c, 0, 63, 23
1, 93140, Note_on_c, 0, 43, 48
1, 93149, Note_on_c, 0, 55, 60
1, 93162, Note_on_c, 0, 63, 0
1, 93174, Note_on_c, 0, 48, 0
1, 93207, Note_on_c, 0, 55, 0
1, 93236, Note_on_c, 0, 43, 0
1, 93240, Note_on_c, 0, 36, 62
1, 93272, Note_on_c, 0, 50, 70
1, 93305, Control_c, 0, 64, 0
1, 93350, Control_c, 0, 64, 127
1, 93375, Note_on_c, 0, 41, 57
1, 93392, Note_on_c, 0, 56, 54
1, 93443, Note_on_c, 0, 36, 0
1, 93459, Note_on_c, 0, 50, 0
1, 93480, Note_on_c, 0, 62, 60
1, 93483, Note_on_c, 0, 48, 59
1, 93495, Note_on_c, 0, 41, 0
1, 93521, Note_on_c, 0, 48, 0
1, 93526, Note_on_c, 0, 62, 0
1, 93529, Note_on_c, 0, 56, 0
1, 93562, Note_on_c, 0, 48, 39
1, 93566, Note_on_c, 0, 62, 58
1, 93646, Note_on_c, 0, 62, 0
1, 93648, Note_on_c, 0, 53, 63
1, 93649, Note_on_c, 0, 68, 76
1, 93654, Note_on_c, 0, 48, 0
1, 93729, Note_on_c, 0, 74, 51
1, 93731, Note_on_c, 0, 60, 57
1, 93736, Note_on_c, 0, 53, 0
1, 93742, Note_on_c, 0, 68, 0
1, 93764, Note_on_c, 0, 60, 0
1, 93777, Note_on_c, 0, 74, 0
1, 93816, Note_on_c, 0, 74, 54
1, 93816, Note_on_c, 0, 60, 35
1, 93902, Note_on_c, 0, 80, 59
1, 93906, Note_on_c, 0, 65, 55
1, 93913, Note_on_c, 0, 60, 0
1, 93922, Note_on_c, 0, 74, 0
1, 93992, Note_on_c, 0, 80, 0
1, 93999, Note_on_c, 0, 65, 0
1, 94020, Note_on_c, 0, 86, 70
1, 94024, Note_on_c, 0, 72, 37
1, 94110, Note_on_c, 0, 80, 59
1, 94114, Note_on_c, 0, 65, 55
1, 94138, Note_on_c, 0, 72, 0
1, 94178, Note_on_c, 0, 86, 0
1, 94187, Note_on_c, 0, 74, 65
1, 94192, Note_on_c, 0, 60, 60
1, 94199, Note_on_c, 0, 80, 0
1, 94200, Note_on_c, 0, 65, 0
1, 94210, Note_on_c, 0, 74, 0
1, 94231, Note_on_c, 0, 60, 0
1, 94265, Note_on_c, 0, 60, 62
1, 94268, Note_on_c, 0, 74, 37
1, 94332, Note_on_c, 0, 74, 0
1, 94355, Note_on_c, 0, 53, 63
1, 94363, Note_on_c, 0, 68, 74
1, 94378, Note_on_c, 0, 60, 0
1, 94452, Note_on_c, 0, 48, 49
1, 94454, Note_on_c, 0, 68, 0
1, 94455, Note_on_c, 0, 62, 65
1, 94463, Note_on_c, 0, 53, 0
1, 94471, Note_on_c, 0, 62, 0
1, 94498, Note_on_c, 0, 48, 0
1, 94541, Note_on_c, 0, 48, 41
1, 94550, Note_on_c, 0, 62, 66
1, 94632, Note_on_c, 0, 62, 0
1, 94638, Note_on_c, 0, 56, 59
1, 94645, Note_on_c, 0, 41, 61
1, 94659, Note_on_c, 0, 48, 0
1, 94738, Note_on_c, 0, 41, 0
1, 94746, Note_on_c, 0, 36, 70
1, 94776, Note_on_c, 0, 56, 0
1, 94789, Control_c, 0, 64, 0
1, 94793, Note_on_c, 0, 52, 94
1, 94842, Control_c, 0, 64, 127
1, 94877, Note_on_c, 0, 52, 0
1, 94899, Note_on_c, 0, 43, 58
1, 94904, Note_on_c, 0, 55, 69
1, 94907, Note_on_c, 0, 36, 0
1, 94984, Note_on_c, 0, 55, 0
1, 94986, Note_on_c, 0, 48, 58
1, 94989, Note_on_c, 0, 43, 0
1, 94989, Note_on_c, 0, 64, 37
1, 95020, Note_on_c, 0, 48, 0
1, 95034, Note_on_c, 0, 64, 0
1, 95059, Note_on_c, 0, 48, 50
1, 95070, Note_on_c, 0, 64, 62
1, 95127, Note_on_c, 0, 64, 0
1, 95156, Note_on_c, 0, 67, 80
1, 95162, Note_on_c, 0, 55, 65
1, 95164, Note_on_c, 0, 48, 0
1, 95240, Note_on_c, 0, 60, 64
1, 95244, Note_on_c, 0, 67, 0
1, 95246, Note_on_c, 0, 55, 0
1, 95247, Note_on_c, 0, 76, 42
1, 95277, Note_on_c, 0, 60, 0
1, 95292, Note_on_c, 0, 76, 0
1, 95331, Note_on_c, 0, 60, 45
1, 95333, Note_on_c, 0, 76, 53
1, 95408, Note_on_c, 0, 76, 0
1, 95416, Note_on_c, 0, 79, 54
1, 95421, Note_on_c, 0, 60, 0
1, 95425, Note_on_c, 0, 67, 55
1, 95487, Note_on_c, 0, 79, 0
1, 95518, Note_on_c, 0, 88, 88
1, 95520, Note_on_c, 0, 67, 0
1, 95534, Note_on_c, 0, 72, 49
1, 95614, Note_on_c, 0, 79, 63
1, 95615, Note_on_c, 0, 67, 55
1, 95631, Note_on_c, 0, 72, 0
1, 95684, Note_on_c, 0, 88, 0
1, 95693, Note_on_c, 0, 76, 58
1, 95694, Note_on_c, 0, 60, 60
1, 95706, Note_on_c, 0, 67, 0
1, 95708, Note_on_c, 0, 79, 0
1, 95723, Note_on_c, 0, 76, 0
1, 95744, Note_on_c, 0, 60, 0
1, 95778, Note_on_c, 0, 60, 62
1, 95786, Note_on_c, 0, 76, 54
1, 95846, Note_on_c, 0, 76, 0
1, 95886, Note_on_c, 0, 67, 70
1, 95888, Note_on_c, 0, 55, 63
1, 95906, Note_on_c, 0, 60, 0
1, 95974, Note_on_c, 0, 64, 59
1, 95985, Note_on_c, 0, 48, 61
1, 95989, Note_on_c, 0, 67, 0
1, 96000, Note_on_c, 0, 55, 0
1, 96008, Note_on_c, 0, 64, 0
1, 96037, Note_on_c, 0, 48, 0
1, 96070, Note_on_c, 0, 48, 61
1, 96079, Note_on_c, 0, 64, 53
1, 96159, Note_on_c, 0, 43, 66
1, 96163, Note_on_c, 0, 55, 74
1, 96164, Note_on_c, 0, 64, 0
1, 96168, Note_on_c, 0, 48, 0
1, 96173, Note_on_c, 0, 43, 0
1, 96254, Note_on_c, 0, 55, 0
1, 96272, Note_on_c, 0, 37, 74
1, 96302, Control_c, 0, 64, 0
1, 96327, Note_on_c, 0, 53, 102
1, 96356, Control_c, 0, 64, 127
1, 96384, Note_on_c, 0, 53, 0
1, 96428, Note_on_c, 0, 44, 65
1, 96441, Note_on_c, 0, 56, 68
1, 96480, Note_on_c, 0, 37, 0
1, 96520, Note_on_c, 0, 49, 51
1, 96530, Note_on_c, 0, 65, 49
1, 96531, Note_on_c, 0, 44, 0
1, 96536, Note_on_c, 0, 56, 0
1, 96560, Note_on_c, 0, 65, 0
1, 96561, Note_on_c, 0, 49, 0
1, 96594, Note_on_c, 0, 49, 39
1, 96610, Note_on_c, 0, 65, 58
1, 96652, Note_on_c, 0, 65, 0
1, 96682, Note_on_c, 0, 56, 66
1, 96684, Note_on_c, 0, 68, 72
1, 96698, Note_on_c, 0, 49, 0
1, 96758, Note_on_c, 0, 68, 0
1, 96762, Note_on_c, 0, 61, 60
1, 96766, Note_on_c, 0, 56, 0
1, 96766, Note_on_c, 0, 77, 56
1, 96799, Note_on_c, 0, 61, 0
1, 96806, Note_on_c, 0, 77, 0
1, 96845, Note_on_c, 0, 61, 48
1, 96857, Note_on_c, 0, 77, 44
1, 96908, Note_on_c, 0, 77, 0
1, 96936, Note_on_c, 0, 80, 58
1, 96946, Note_on_c, 0, 68, 51
1, 96948, Note_on_c, 0, 61, 0
1, 96985, Note_on_c, 0, 80, 0
1, 97059, Note_on_c, 0, 68, 0
1, 97062, Note_on_c, 0, 89, 98
1, 97069, Note_on_c, 0, 73, 65
1, 97152, Note_on_c, 0, 68, 44
1, 97166, Note_on_c, 0, 80, 60
1, 97176, Note_on_c, 0, 73, 0
1, 97236, Note_on_c, 0, 61, 49
1, 97240, Note_on_c, 0, 89, 0
1, 97249, Note_on_c, 0, 77, 67
1, 97260, Note_on_c, 0, 68, 0
1, 97269, Note_on_c, 0, 80, 0
1, 97281, Note_on_c, 0, 77, 0
1, 97286, Note_on_c, 0, 61, 0
1, 97332, Note_on_c, 0, 61, 28
1, 97338, Note_on_c, 0, 77, 60
1, 97387, Note_on_c, 0, 77, 0
1, 97428, Note_on_c, 0, 56, 63
1, 97433, Note_on_c, 0, 68, 57
1, 97440, Note_on_c, 0, 61, 0
1, 97518, Note_on_c, 0, 49, 57
1, 97524, Note_on_c, 0, 65, 49
1, 97528, Note_on_c, 0, 68, 0
1, 97537, Note_on_c, 0, 65, 0
1, 97543, Note_on_c, 0, 56, 0
1, 97570, Note_on_c, 0, 49, 0
1, 97615, Note_on_c, 0, 49, 30
1, 97630, Note_on_c, 0, 65, 25
1, 97676, Note_on_c, 0, 65, 0
1, 97722, Note_on_c, 0, 56, 38
1, 97729, Note_on_c, 0, 44, 53
1, 97744, Note_on_c, 0, 49, 0
1, 97850, Note_on_c, 0, 37, 33
1, 97863, Note_on_c, 0, 44, 0
1, 97884, Note_on_c, 0, 56, 0
1, 97907, Control_c, 0, 64, 0
1, 97943, Note_on_c, 0, 53, 48
1, 97978, Control_c, 0, 64, 127
1, 98076, Note_on_c, 0, 44, 27
1, 98083, Note_on_c, 0, 56, 25
1, 98086, Note_on_c, 0, 53, 0
1, 98156, Note_on_c, 0, 37, 0
1, 98171, Note_on_c, 0, 65, 33
1, 98182, Note_on_c, 0, 44, 0
1, 98183, Note_on_c, 0, 49, 39
1, 98201, Note_on_c, 0, 56, 0
1, 98211, Note_on_c, 0, 65, 0
1, 98214, Note_on_c, 0, 49, 0
1, 98263, Note_on_c, 0, 49, 17
1, 98265, Note_on_c, 0, 65, 28
1, 98328, Note_on_c, 0, 65, 0
1, 98336, Note_on_c, 0, 68, 34
1, 98360, Note_on_c, 0, 56, 18
1, 98382, Note_on_c, 0, 49, 0
1, 98429, Note_on_c, 0, 77, 36
1, 98430, Note_on_c, 0, 68, 0
1, 98437, Note_on_c, 0, 61, 39
1, 98474, Note_on_c, 0, 61, 0
1, 98477, Note_on_c, 0, 77, 0
1, 98517, Note_on_c, 0, 56, 0
1, 98524, Note_on_c, 0, 77, 43
1, 98539, Note_on_c, 0, 77, 0
1, 98601, Note_on_c, 0, 68, 36
1, 98603, Note_on_c, 0, 80, 33
1, 98682, Note_on_c, 0, 80, 0
1, 98695, Note_on_c, 0, 89, 50
1, 98706, Note_on_c, 0, 73, 44
1, 98710, Note_on_c, 0, 68, 0
1, 98782, Note_on_c, 0, 68, 41
1, 98783, Note_on_c, 0, 80, 42
1, 98818, Note_on_c, 0, 73, 0
1, 98862, Note_on_c, 0, 89, 0
1, 98864, Note_on_c, 0, 61, 34
1, 98871, Note_on_c, 0, 77, 42
1, 98884, Note_on_c, 0, 77, 0
1, 98886, Note_on_c, 0, 68, 0
1, 98893, Note_on_c, 0, 80, 0
1, 98916, Note_on_c, 0, 61, 0
1, 98950, Note_on_c, 0, 61, 30
1, 98967, Note_on_c, 0, 77, 25
1, 99041, Note_on_c, 0, 77, 0
1, 99046, Note_on_c, 0, 56, 8
1, 99055, Note_on_c, 0, 68, 28
1, 99107, Note_on_c, 0, 61, 0
1, 99134, Note_on_c, 0, 49, 49
1, 99138, Note_on_c, 0, 65, 51
1, 99152, Note_on_c, 0, 65, 0
1, 99157, Note_on_c, 0, 68, 0
1, 99168, Note_on_c, 0, 56, 0
1, 99184, Note_on_c, 0, 49, 0
1, 99223, Note_on_c, 0, 49, 21
1, 99239, Note_on_c, 0, 65, 34
1, 99312, Note_on_c, 0, 65, 0
1, 99325, Note_on_c, 0, 44, 41
1, 99330, Note_on_c, 0, 56, 37
1, 99378, Note_on_c, 0, 49, 0
1, 99410, Note_on_c, 0, 44, 0
1, 99413, Note_on_c, 0, 37, 50
1, 99480, Note_on_c, 0, 52, 65
1, 99485, Control_c, 0, 64, 0
1, 99486, Note_on_c, 0, 56, 0
1, 99539, Control_c, 0, 64, 127
1, 99588, Note_on_c, 0, 58, 47
1, 99589, Note_on_c, 0, 43, 36
1, 99655, Note_on_c, 0, 52, 0
1, 99661, Note_on_c, 0, 37, 0
1, 99671, Note_on_c, 0, 64, 49
1, 99675, Note_on_c, 0, 43, 0
1, 99680, Note_on_c, 0, 49, 31
1, 99687, Note_on_c, 0, 58, 0
1, 99714, Note_on_c, 0, 49, 0
1, 99720, Note_on_c, 0, 64, 0
1, 99752, Note_on_c, 0, 49, 23
1, 99756, Note_on_c, 0, 64, 54
1, 99830, Note_on_c, 0, 70, 47
1, 99839, Note_on_c, 0, 55, 66
1, 99840, Note_on_c, 0, 49, 0
1, 99908, Note_on_c, 0, 64, 0
1, 99914, Note_on_c, 0, 76, 52
1, 99914, Note_on_c, 0, 61, 57
1, 99919, Note_on_c, 0, 55, 0
1, 99936, Note_on_c, 0, 70, 0
1, 99956, Note_on_c, 0, 61, 0
1, 99963, Note_on_c, 0, 76, 0
1, 99992, Note_on_c, 0, 61, 35
1, 99995, Note_on_c, 0, 76, 60
1, 100074, Note_on_c, 0, 82, 43
1, 100093, Note_on_c, 0, 67, 48
1, 100114, Note_on_c, 0, 61, 0
1, 100146, Note_on_c, 0, 76, 0
1, 100178, Note_on_c, 0, 82, 0
1, 100187, Note_on_c, 0, 88, 69
1, 100189, Note_on_c, 0, 73, 63
1, 100194, Note_on_c, 0, 67, 0
1, 100275, Note_on_c, 0, 67, 59
1, 100277, Note_on_c, 0, 82, 55
1, 100299, Note_on_c, 0, 73, 0
1, 100349, Note_on_c, 0, 88, 0
1, 100350, Note_on_c, 0, 61, 53
1, 100358, Note_on_c, 0, 67, 0
1, 100359, Note_on_c, 0, 76, 53
1, 100376, Note_on_c, 0, 76, 0
1, 100379, Note_on_c, 0, 82, 0
1, 100403, Note_on_c, 0, 61, 0
1, 100437, Note_on_c, 0, 61, 38
1, 100449, Note_on_c, 0, 76, 38
1, 100511, Note_on_c, 0, 76, 0
1, 100528, Note_on_c, 0, 55, 58
1, 100536, Note_on_c, 0, 70, 56
1, 100550, Note_on_c, 0, 61, 0
1, 100618, Note_on_c, 0, 64, 61
1, 100624, Note_on_c, 0, 49, 36
1, 100630, Note_on_c, 0, 70, 0
1, 100638, Note_on_c, 0, 55, 0
1, 100648, Note_on_c, 0, 64, 0
1, 100676, Note_on_c, 0, 49, 0
1, 100711, Note_on_c, 0, 49, 33
1, 100723, Note_on_c, 0, 64, 35
1, 100814, Note_on_c, 0, 58, 56
1, 100815, Note_on_c, 0, 64, 0
1, 100818, Note_on_c, 0, 43, 67
1, 100836, Note_on_c, 0, 49, 0
1, 100882, Note_on_c, 0, 43, 0
1, 100894, Note_on_c, 0, 37, 58
1, 100916, Note_on_c, 0, 58, 0
1, 100924, Control_c, 0, 64, 0
1, 100963, Note_on_c, 0, 53, 92
1, 100978, Control_c, 0, 64, 127
1, 101058, Note_on_c, 0, 44, 60
1, 101068, Note_on_c, 0, 53, 0
1, 101082, Note_on_c, 0, 59, 66
1, 101124, Note_on_c, 0, 37, 0
1, 101154, Note_on_c, 0, 49, 59
1, 101166, Note_on_c, 0, 65, 53
1, 101168, Note_on_c, 0, 44, 0
1, 101172, Note_on_c, 0, 59, 0
1, 101190, Note_on_c, 0, 49, 0
1, 101201, Note_on_c, 0, 65, 0
1, 101224, Note_on_c, 0, 49, 41
1, 101240, Note_on_c, 0, 65, 65
1, 101298, Note_on_c, 0, 65, 0
1, 101314, Note_on_c, 0, 71, 64
1, 101316, Note_on_c, 0, 56, 63
1, 101340, Note_on_c, 0, 49, 0
1, 101396, Note_on_c, 0, 77, 57
1, 101396, Note_on_c, 0, 61, 68
1, 101410, Note_on_c, 0, 71, 0
1, 101428, Note_on_c, 0, 56, 0
1, 101434, Note_on_c, 0, 61, 0
1, 101442, Note_on_c, 0, 77, 0
1, 101475, Note_on_c, 0, 61, 31
1, 101479, Note_on_c, 0, 77, 72
1, 101562, Note_on_c, 0, 68, 59
1, 101566, Note_on_c, 0, 83, 60
1, 101568, Note_on_c, 0, 77, 0
1, 101586, Note_on_c, 0, 61, 0
1, 101638, Note_on_c, 0, 83, 0
1, 101659, Note_on_c, 0, 68, 0
1, 101664, Note_on_c, 0, 73, 74
1, 101665, Note_on_c, 0, 89, 86
1, 101742, Note_on_c, 0, 68, 41
1, 101747, Note_on_c, 0, 83, 63
1, 101760, Note_on_c, 0, 73, 0
1, 101824, Note_on_c, 0, 61, 56
1, 101826, Note_on_c, 0, 89, 0
1, 101833, Note_on_c, 0, 77, 41
1, 101846, Note_on_c, 0, 83, 0
1, 101850, Note_on_c, 0, 68, 0
1, 101864, Note_on_c, 0, 77, 0
1, 101872, Note_on_c, 0, 61, 0
1, 101910, Note_on_c, 0, 61, 26
1, 101921, Note_on_c, 0, 77, 56
1, 101984, Note_on_c, 0, 77, 0
1, 102008, Note_on_c, 0, 56, 58
1, 102013, Note_on_c, 0, 71, 67
1, 102059, Note_on_c, 0, 61, 0
1, 102095, Note_on_c, 0, 49, 60
1, 102099, Note_on_c, 0, 65, 53
1, 102110, Note_on_c, 0, 71, 0
1, 102120, Note_on_c, 0, 56, 0
1, 102129, Note_on_c, 0, 65, 0
1, 102140, Note_on_c, 0, 49, 0
1, 102190, Note_on_c, 0, 49, 16
1, 102202, Note_on_c, 0, 65, 63
1, 102275, Note_on_c, 0, 65, 0
1, 102286, Note_on_c, 0, 59, 66
1, 102287, Note_on_c, 0, 44, 65
1, 102306, Note_on_c, 0, 49, 0
1, 102350, Note_on_c, 0, 44, 0
1, 102373, Note_on_c, 0, 38, 84
1, 102374, Note_on_c, 0, 59, 0
1, 102425, Control_c, 0, 64, 0
1, 102443, Note_on_c, 0, 55, 102
1, 102478, Control_c, 0, 64, 127
1, 102516, Note_on_c, 0, 55, 0
1, 102528, Note_on_c, 0, 43, 53
1, 102545, Note_on_c, 0, 59, 65
1, 102615, Note_on_c, 0, 38, 0
1, 102620, Note_on_c, 0, 50, 62
1, 102622, Note_on_c, 0, 67, 61
1, 102626, Note_on_c, 0, 59, 0
1, 102627, Note_on_c, 0, 43, 0
1, 102654, Note_on_c, 0, 50, 0
1, 102660, Note_on_c, 0, 67, 0
1, 102697, Note_on_c, 0, 50, 34
1, 102702, Note_on_c, 0, 67, 66
1, 102775, Note_on_c, 0, 67, 0
1, 102791, Note_on_c, 0, 55, 61
1, 102792, Note_on_c, 0, 71, 67
1, 102823, Note_on_c, 0, 50, 0
1, 102877, Note_on_c, 0, 71, 0
1, 102879, Note_on_c, 0, 62, 60
1, 102884, Note_on_c, 0, 79, 64
1, 102891, Note_on_c, 0, 55, 0
1, 102964, Note_on_c, 0, 55, 60
1, 102968, Note_on_c, 0, 71, 64
1, 103035, Note_on_c, 0, 62, 0
1, 103038, Note_on_c, 0, 50, 60
1, 103043, Note_on_c, 0, 55, 0
1, 103052, Note_on_c, 0, 79, 0
1, 103053, Note_on_c, 0, 67, 88
1, 103064, Note_on_c, 0, 71, 0
1, 103070, Note_on_c, 0, 50, 0
1, 103080, Note_on_c, 0, 67, 0
1, 103136, Note_on_c, 0, 38, 100
1, 103217, Control_c, 0, 64, 0
1, 103223, Note_on_c, 0, 56, 96
1, 103270, Control_c, 0, 64, 127
1, 103313, Note_on_c, 0, 41, 62
1, 103320, Note_on_c, 0, 59, 68
1, 103386, Note_on_c, 0, 38, 0
1, 103393, Note_on_c, 0, 50, 62
1, 103402, Note_on_c, 0, 68, 61
1, 103403, Note_on_c, 0, 41, 0
1, 103409, Note_on_c, 0, 59, 0
1, 103422, Note_on_c, 0, 50, 0
1, 103424, Note_on_c, 0, 56, 0
1, 103454, Note_on_c, 0, 68, 0
1, 103474, Note_on_c, 0, 50, 54
1, 103484, Note_on_c, 0, 68, 68
1, 103578, Note_on_c, 0, 53, 60
1, 103580, Note_on_c, 0, 71, 63
1, 103600, Note_on_c, 0, 50, 0
1, 103645, Note_on_c, 0, 68, 0
1, 103672, Note_on_c, 0, 53, 0
1, 103679, Note_on_c, 0, 62, 78
1, 103680, Note_on_c, 0, 71, 0
1, 103680, Note_on_c, 0, 80, 70
1, 103778, Note_on_c, 0, 71, 63
1, 103784, Note_on_c, 0, 53, 65
1, 103874, Note_on_c, 0, 62, 0
1, 103874, Note_on_c, 0, 50, 51
1, 103885, Note_on_c, 0, 68, 72
1, 103889, Note_on_c, 0, 53, 0
1, 103904, Note_on_c, 0, 80, 0
1, 103904, Note_on_c, 0, 71, 0
1, 103912, Note_on_c, 0, 50, 0
1, 103934, Note_on_c, 0, 68, 0
1, 104000, Note_on_c, 0, 39, 76
1, 104051, Control_c, 0, 64, 0
1, 104054, Note_on_c, 0, 55, 98
1, 104096, Control_c, 0, 64, 127
1, 104156, Note_on_c, 0, 48, 68
1, 104160, Note_on_c, 0, 60, 74
1, 104204, Note_on_c, 0, 39, 0
1, 104234, Note_on_c, 0, 55, 0
1, 104243, Note_on_c, 0, 51, 59
1, 104245, Note_on_c, 0, 67, 60
1, 104246, Note_on_c, 0, 48, 0
1, 104252, Note_on_c, 0, 60, 0
1, 104276, Note_on_c, 0, 51, 0
1, 104288, Note_on_c, 0, 67, 0
1, 104318, Note_on_c, 0, 51, 21
1, 104323, Note_on_c, 0, 67, 76
1, 104387, Note_on_c, 0, 67, 0
1, 104406, Note_on_c, 0, 72, 64
1, 104411, Note_on_c, 0, 60, 70
1, 104455, Note_on_c, 0, 51, 0
1, 104491, Note_on_c, 0, 79, 53
1, 104493, Note_on_c, 0, 63, 67
1, 104496, Note_on_c, 0, 72, 0
1, 104499, Note_on_c, 0, 60, 0
1, 104526, Note_on_c, 0, 79, 0
1, 104530, Note_on_c, 0, 63, 0
1, 104576, Note_on_c, 0, 79, 72
1, 104666, Note_on_c, 0, 84, 66
1, 104673, Note_on_c, 0, 72, 44
1, 104700, Note_on_c, 0, 79, 0
1, 104776, Note_on_c, 0, 84, 0
1, 104784, Note_on_c, 0, 72, 0
1, 104791, Note_on_c, 0, 75, 67
1, 104795, Note_on_c, 0, 91, 98
1, 104876, Note_on_c, 0, 72, 41
1, 104884, Note_on_c, 0, 84, 55
1, 104901, Note_on_c, 0, 75, 0
1, 104958, Note_on_c, 0, 63, 52
1, 104960, Note_on_c, 0, 91, 0
1, 104964, Note_on_c, 0, 72, 0
1, 104970, Note_on_c, 0, 79, 64
1, 104982, Note_on_c, 0, 84, 0
1, 104999, Note_on_c, 0, 79, 0
1, 105012, Note_on_c, 0, 63, 0
1, 105042, Note_on_c, 0, 63, 62
1, 105056, Note_on_c, 0, 79, 57
1, 105105, Note_on_c, 0, 79, 0
1, 105134, Note_on_c, 0, 63, 0
1, 105145, Note_on_c, 0, 60, 52
1, 105156, Note_on_c, 0, 72, 65
1, 105243, Note_on_c, 0, 67, 67
1, 105247, Note_on_c, 0, 51, 52
1, 105253, Note_on_c, 0, 72, 0
1, 105258, Note_on_c, 0, 60, 0
1, 105276, Note_on_c, 0, 67, 0
1, 105299, Note_on_c, 0, 51, 0
1, 105334, Note_on_c, 0, 51, 50
1, 105340, Note_on_c, 0, 67, 78
1, 105422, Note_on_c, 0, 67, 0
1, 105428, Note_on_c, 0, 60, 78
1, 105435, Note_on_c, 0, 48, 63
1, 105444, Note_on_c, 0, 51, 0
1, 105487, Note_on_c, 0, 60, 0
1, 105496, Note_on_c, 0, 48, 0
1, 105510, Note_on_c, 0, 40, 90
1, 105552, Control_c, 0, 64, 0
1, 105581, Note_on_c, 0, 60, 104
1, 105596, Control_c, 0, 64, 127
1, 105662, Note_on_c, 0, 60, 0
1, 105670, Note_on_c, 0, 48, 57
1, 105685, Note_on_c, 0, 67, 80
1, 105758, Note_on_c, 0, 40, 0
1, 105766, Note_on_c, 0, 52, 68
1, 105770, Note_on_c, 0, 48, 0
1, 105770, Note_on_c, 0, 72, 41
1, 105781, Note_on_c, 0, 67, 0
1, 105798, Note_on_c, 0, 52, 0
1, 105807, Note_on_c, 0, 72, 0
1, 105848, Note_on_c, 0, 72, 55
1, 105856, Note_on_c, 0, 50, 15
1, 105857, Note_on_c, 0, 52, 30
1, 105870, Note_on_c, 0, 50, 0
1, 105935, Note_on_c, 0, 79, 70
1, 105937, Note_on_c, 0, 60, 67
1, 106003, Note_on_c, 0, 72, 0
1, 106011, Note_on_c, 0, 52, 0
1, 106018, Note_on_c, 0, 84, 54
1, 106019, Note_on_c, 0, 64, 74
1, 106029, Note_on_c, 0, 79, 0
1, 106031, Note_on_c, 0, 60, 0
1, 106051, Note_on_c, 0, 64, 0
1, 106058, Note_on_c, 0, 84, 0
1, 106102, Note_on_c, 0, 84, 65
1, 106110, Note_on_c, 0, 64, 64
1, 106196, Note_on_c, 0, 91, 92
1, 106204, Note_on_c, 0, 72, 53
1, 106229, Note_on_c, 0, 64, 0
1, 106232, Note_on_c, 0, 84, 0
1, 106292, Note_on_c, 0, 91, 0
1, 106310, Note_on_c, 0, 72, 0
1, 106311, Note_on_c, 0, 96, 110
1, 106317, Note_on_c, 0, 76, 82
1, 106410, Note_on_c, 0, 91, 88
1, 106412, Note_on_c, 0, 72, 47
1, 106444, Note_on_c, 0, 76, 0
1, 106500, Note_on_c, 0, 96, 0
1, 106500, Note_on_c, 0, 84, 62
1, 106504, Note_on_c, 0, 64, 60
1, 106513, Note_on_c, 0, 91, 0
1, 106515, Note_on_c, 0, 72, 0
1, 106530, Note_on_c, 0, 84, 0
1, 106556, Note_on_c, 0, 64, 0
1, 106596, Note_on_c, 0, 64, 50
1, 106600, Note_on_c, 0, 84, 63
1, 106682, Note_on_c, 0, 84, 0
1, 106701, Note_on_c, 0, 60, 64
1, 106713, Note_on_c, 0, 79, 80
1, 106731, Note_on_c, 0, 64, 0
1, 106811, Note_on_c, 0, 52, 67
1, 106816, Note_on_c, 0, 72, 56
1, 106826, Note_on_c, 0, 60, 0
1, 106829, Note_on_c, 0, 79, 0
1, 106847, Note_on_c, 0, 72, 0
1, 106857, Note_on_c, 0, 52, 0
1, 106927, Note_on_c, 0, 52, 72
1, 106971, Note_on_c, 0, 72, 68
1, 107082, Note_on_c, 0, 48, 78
1, 107102, Note_on_c, 0, 52, 0
1, 107106, Note_on_c, 0, 67, 76
1, 107109, Note_on_c, 0, 72, 0
1, 107110, Note_on_c, 0, 48, 0
1, 107212, Note_on_c, 0, 41, 94
1, 107218, Note_on_c, 0, 67, 0
1, 107263, Control_c, 0, 64, 0
1, 107326, Control_c, 0, 64, 127
1, 107334, Note_on_c, 0, 58, 108
1, 107458, Note_on_c, 0, 48, 50
1, 107465, Note_on_c, 0, 60, 67
1, 107500, Note_on_c, 0, 58, 0
1, 107520, Note_on_c, 0, 41, 0
1, 107573, Note_on_c, 0, 53, 69
1, 107578, Note_on_c, 0, 70, 58
1, 107581, Note_on_c, 0, 48, 0
1, 107581, Note_on_c, 0, 60, 0
1, 107602, Note_on_c, 0, 53, 0
1, 107635, Note_on_c, 0, 70, 0
1, 107661, Note_on_c, 0, 53, 68
1, 107675, Note_on_c, 0, 70, 57
1, 107775, Note_on_c, 0, 72, 55
1, 107779, Note_on_c, 0, 60, 67
1, 107818, Note_on_c, 0, 70, 0
1, 107820, Note_on_c, 0, 53, 0
1, 107864, Note_on_c, 0, 72, 0
1, 107878, Note_on_c, 0, 82, 68
1, 107881, Note_on_c, 0, 65, 62
1, 107891, Note_on_c, 0, 60, 0
1, 107951, Note_on_c, 0, 60, 52
1, 107957, Note_on_c, 0, 72, 41
1, 107992, Note_on_c, 0, 65, 0
1, 108023, Note_on_c, 0, 53, 69
1, 108027, Note_on_c, 0, 60, 0
1, 108040, Note_on_c, 0, 70, 64
1, 108047, Note_on_c, 0, 82, 0
1, 108054, Note_on_c, 0, 53, 0
1, 108060, Note_on_c, 0, 72, 0
1, 108084, Note_on_c, 0, 70, 0
1, 108122, Note_on_c, 0, 39, 86
1, 108150, Control_c, 0, 64, 0
1, 108195, Control_c, 0, 64, 127
1, 108198, Note_on_c, 0, 56, 110
1, 108296, Note_on_c, 0, 48, 65
1, 108304, Note_on_c, 0, 60, 63
1, 108345, Note_on_c, 0, 39, 0
1, 108375, Note_on_c, 0, 51, 55
1, 108377, Note_on_c, 0, 48, 0
1, 108385, Note_on_c, 0, 68, 51
1, 108392, Note_on_c, 0, 60, 0
1, 108393, Note_on_c, 0, 56, 0
1, 108410, Note_on_c, 0, 51, 0
1, 108439, Note_on_c, 0, 68, 0
1, 108446, Note_on_c, 0, 51, 29
1, 108468, Note_on_c, 0, 68, 41
1, 108472, Note_on_c, 0, 66, 47
1, 108517, Note_on_c, 0, 66, 0
1, 108550, Note_on_c, 0, 60, 66
1, 108556, Note_on_c, 0, 72, 55
1, 108590, Note_on_c, 0, 51, 0
1, 108603, Note_on_c, 0, 68, 0
1, 108636, Note_on_c, 0, 63, 65
1, 108640, Note_on_c, 0, 60, 0
1, 108642, Note_on_c, 0, 72, 0
1, 108645, Note_on_c, 0, 80, 60
1, 108706, Note_on_c, 0, 60, 29
1, 108722, Note_on_c, 0, 72, 36
1, 108734, Note_on_c, 0, 63, 0
1, 108755, Note_on_c, 0, 51, 35
1, 108764, Note_on_c, 0, 60, 0
1, 108806, Note_on_c, 0, 68, 61
1, 108807, Note_on_c, 0, 51, 0
1, 108821, Note_on_c, 0, 80, 0
1, 108827, Note_on_c, 0, 72, 0
1, 108854, Note_on_c, 0, 68, 0
1, 108882, Note_on_c, 0, 38, 90
1, 108956, Control_c, 0, 64, 0
1, 108970, Note_on_c, 0, 53, 94
1, 109010, Control_c, 0, 64, 127
1, 109068, Note_on_c, 0, 60, 76
1, 109070, Note_on_c, 0, 44, 63
1, 109155, Note_on_c, 0, 53, 0
1, 109156, Note_on_c, 0, 38, 0
1, 109157, Note_on_c, 0, 50, 64
1, 109161, Note_on_c, 0, 65, 42
1, 109176, Note_on_c, 0, 60, 0
1, 109177, Note_on_c, 0, 44, 0
1, 109187, Note_on_c, 0, 50, 0
1, 109199, Note_on_c, 0, 65, 0
1, 109236, Note_on_c, 0, 50, 41
1, 109246, Note_on_c, 0, 65, 63
1, 109340, Note_on_c, 0, 72, 63
1, 109347, Note_on_c, 0, 56, 59
1, 109418, Note_on_c, 0, 50, 0
1, 109421, Note_on_c, 0, 65, 0
1, 109439, Note_on_c, 0, 72, 0
1, 109440, Note_on_c, 0, 56, 0
1, 109442, Note_on_c, 0, 62, 68
1, 109443, Note_on_c, 0, 77, 66
1, 109533, Note_on_c, 0, 56, 18
1, 109538, Note_on_c, 0, 72, 62
1, 109618, Note_on_c, 0, 62, 0
1, 109620, Note_on_c, 0, 50, 60
1, 109628, Note_on_c, 0, 77, 0
1, 109628, Note_on_c, 0, 65, 65
1, 109630, Note_on_c, 0, 56, 0
1, 109639, Note_on_c, 0, 72, 0
1, 109652, Note_on_c, 0, 50, 0
1, 109657, Note_on_c, 0, 65, 0
1, 109706, Note_on_c, 0, 41, 96
1, 109793, Note_on_c, 0, 50, 86
1, 109800, Control_c, 0, 64, 0
1, 109854, Control_c, 0, 64, 127
1, 109900, Note_on_c, 0, 56, 72
1, 109907, Note_on_c, 0, 48, 54
1, 109986, Note_on_c, 0, 62, 44
1, 109988, Note_on_c, 0, 50, 0
1, 109990, Note_on_c, 0, 41, 0
1, 109994, Note_on_c, 0, 53, 64
1, 110001, Note_on_c, 0, 48, 0
1, 110004, Note_on_c, 0, 56, 0
1, 110026, Note_on_c, 0, 53, 0
1, 110033, Note_on_c, 0, 62, 0
1, 110072, Note_on_c, 0, 62, 74
1, 110076, Note_on_c, 0, 53, 57
1, 110173, Note_on_c, 0, 68, 69
1, 110181, Note_on_c, 0, 60, 62
1, 110224, Note_on_c, 0, 53, 0
1, 110252, Note_on_c, 0, 62, 0
1, 110287, Note_on_c, 0, 68, 0
1, 110290, Note_on_c, 0, 60, 0
1, 110290, Note_on_c, 0, 74, 56
1, 110302, Note_on_c, 0, 65, 51
1, 110383, Note_on_c, 0, 65, 0
1, 110392, Note_on_c, 0, 60, 43
1, 110402, Note_on_c, 0, 68, 67
1, 110504, Note_on_c, 0, 53, 58
1, 110508, Note_on_c, 0, 60, 0
1, 110520, Note_on_c, 0, 62, 80
1, 110534, Note_on_c, 0, 53, 0
1, 110562, Note_on_c, 0, 74, 0
1, 110577, Note_on_c, 0, 68, 0
1, 110594, Note_on_c, 0, 62, 0
1, 110760, Note_on_c, 0, 43, 35
1, 110776, Control_c, 0, 64, 0
1, 110835, Note_on_c, 0, 55, 57
1, 110839, Control_c, 0, 64, 127
1, 110960, Note_on_c, 0, 51, 33
1, 110978, Note_on_c, 0, 60, 30
1, 111008, Note_on_c, 0, 55, 0
1, 111057, Note_on_c, 0, 43, 0
1, 111062, Note_on_c, 0, 67, 35
1, 111072, Note_on_c, 0, 60, 0
1, 111073, Note_on_c, 0, 55, 49
1, 111086, Note_on_c, 0, 51, 0
1, 111105, Note_on_c, 0, 55, 0
1, 111119, Note_on_c, 0, 67, 0
1, 111150, Note_on_c, 0, 55, 40
1, 111158, Note_on_c, 0, 67, 49
1, 111226, Note_on_c, 0, 67, 0
1, 111254, Note_on_c, 0, 72, 45
1, 111264, Note_on_c, 0, 63, 36
1, 111338, Note_on_c, 0, 55, 0
1, 111348, Note_on_c, 0, 79, 42
1, 111358, Note_on_c, 0, 67, 50
1, 111360, Note_on_c, 0, 63, 0
1, 111360, Note_on_c, 0, 72, 0
1, 111396, Note_on_c, 0, 67, 0
1, 111400, Note_on_c, 0, 79, 0
1, 111440, Note_on_c, 0, 79, 55
1, 111526, Note_on_c, 0, 79, 0
1, 111534, Note_on_c, 0, 84, 56
1, 111543, Note_on_c, 0, 75, 35
1, 111617, Note_on_c, 0, 84, 0
1, 111642, Note_on_c, 0, 91, 61
1, 111646, Note_on_c, 0, 75, 0
1, 111647, Note_on_c, 0, 79, 55
1, 111724, Note_on_c, 0, 75, 24
1, 111732, Note_on_c, 0, 84, 46
1, 111759, Note_on_c, 0, 79, 0
1, 111806, Note_on_c, 0, 91, 0
1, 111809, Note_on_c, 0, 67, 54
1, 111815, Note_on_c, 0, 79, 37
1, 111824, Note_on_c, 0, 84, 0
1, 111828, Note_on_c, 0, 75, 0
1, 111844, Note_on_c, 0, 79, 0
1, 111860, Note_on_c, 0, 67, 0
1, 111894, Note_on_c, 0, 67, 58
1, 111903, Note_on_c, 0, 79, 35
1, 111957, Note_on_c, 0, 79, 0
1, 111966, Note_on_c, 0, 67, 0
1, 111986, Note_on_c, 0, 63, 55
1, 111993, Note_on_c, 0, 72, 61
1, 112079, Note_on_c, 0, 55, 65
1, 112081, Note_on_c, 0, 67, 44
1, 112090, Note_on_c, 0, 72, 0
1, 112102, Note_on_c, 0, 63, 0
1, 112112, Note_on_c, 0, 67, 0
1, 112126, Note_on_c, 0, 55, 0
1, 112167, Note_on_c, 0, 55, 62
1, 112174, Note_on_c, 0, 67, 66
1, 112241, Note_on_c, 0, 55, 0
1, 112249, Note_on_c, 0, 67, 0
1, 112254, Note_on_c, 0, 60, 63
1, 112259, Note_on_c, 0, 51, 59
1, 112319, Note_on_c, 0, 60, 0
1, 112338, Note_on_c, 0, 51, 0
1, 112343, Note_on_c, 0, 43, 76
1, 112378, Control_c, 0, 64, 0
1, 112422, Note_on_c, 0, 56, 96
1, 112431, Control_c, 0, 64, 127
1, 112521, Note_on_c, 0, 51, 49
1, 112532, Note_on_c, 0, 60, 65
1, 112561, Note_on_c, 0, 56, 0
1, 112598, Note_on_c, 0, 43, 0
1, 112608, Note_on_c, 0, 55, 65
1, 112616, Note_on_c, 0, 68, 51
1, 112624, Note_on_c, 0, 60, 0
1, 112630, Note_on_c, 0, 51, 0
1, 112639, Note_on_c, 0, 55, 0
1, 112666, Note_on_c, 0, 68, 0
1, 112684, Note_on_c, 0, 55, 54
1, 112695, Note_on_c, 0, 68, 68
1, 112760, Note_on_c, 0, 68, 0
1, 112781, Note_on_c, 0, 72, 63
1, 112782, Note_on_c, 0, 63, 65
1, 112832, Note_on_c, 0, 55, 0
1, 112860, Note_on_c, 0, 67, 64
1, 112870, Note_on_c, 0, 80, 56
1, 112877, Note_on_c, 0, 72, 0
1, 112884, Note_on_c, 0, 63, 0
1, 112892, Note_on_c, 0, 67, 0
1, 112921, Note_on_c, 0, 80, 0
1, 112944, Note_on_c, 0, 67, 62
1, 112952, Note_on_c, 0, 80, 67
1, 113040, Note_on_c, 0, 75, 53
1, 113042, Note_on_c, 0, 84, 63
1, 113047, Note_on_c, 0, 67, 0
1, 113057, Note_on_c, 0, 80, 0
1, 113110, Note_on_c, 0, 84, 0
1, 113142, Note_on_c, 0, 75, 0
1, 113155, Note_on_c, 0, 92, 98
1, 113159, Note_on_c, 0, 79, 82
1, 113242, Note_on_c, 0, 75, 44
1, 113254, Note_on_c, 0, 84, 58
1, 113280, Note_on_c, 0, 79, 0
1, 113280, Note_on_c, 0, 92, 0
1, 113330, Note_on_c, 0, 67, 69
1, 113337, Note_on_c, 0, 80, 69
1, 113347, Note_on_c, 0, 75, 0
1, 113352, Note_on_c, 0, 84, 0
1, 113372, Note_on_c, 0, 67, 0
1, 113372, Note_on_c, 0, 80, 0
1, 113414, Note_on_c, 0, 67, 68
1, 113431, Note_on_c, 0, 80, 60
1, 113460, Note_on_c, 0, 80, 0
1, 113508, Note_on_c, 0, 63, 60
1, 113519, Note_on_c, 0, 72, 66
1, 113542, Note_on_c, 0, 67, 0
1, 113609, Note_on_c, 0, 55, 54
1, 113611, Note_on_c, 0, 68, 62
1, 113619, Note_on_c, 0, 72, 0
1, 113635, Note_on_c, 0, 63, 0
1, 113639, Note_on_c, 0, 68, 0
1, 113656, Note_on_c, 0, 55, 0
1, 113702, Note_on_c, 0, 53, 70
1, 113715, Note_on_c, 0, 68, 78
1, 113782, Note_on_c, 0, 68, 0
1, 113817, Note_on_c, 0, 51, 65
1, 113820, Note_on_c, 0, 60, 84
1, 113836, Note_on_c, 0, 53, 0
1, 113866, Note_on_c, 0, 51, 0
1, 113997, Note_on_c, 0, 60, 0
1, 114015, Note_on_c, 0, 31, 106
1, 114101, Note_on_c, 0, 56, 102
1, 114107, Note_on_c, 0, 31, 0
1, 114297, Note_on_c, 0, 59, 72
1, 114300, Note_on_c, 0, 50, 92
1, 114304, Note_on_c, 0, 56, 0
1, 114448, Note_on_c, 0, 68, 63
1, 114451, Note_on_c, 0, 59, 0
1, 114454, Note_on_c, 0, 53, 78
1, 114459, Note_on_c, 0, 50, 0
1, 114483, Note_on_c, 0, 53, 0
1, 114491, Note_on_c, 0, 68, 0
1, 114610, Note_on_c, 0, 68, 80
1, 114619, Note_on_c, 0, 55, 69
1, 114711, Note_on_c, 0, 71, 62
1, 114720, Note_on_c, 0, 62, 74
1, 114811, Note_on_c, 0, 55, 0
1, 114811, Note_on_c, 0, 80, 69
1, 114812, Note_on_c, 0, 68, 0
1, 114816, Note_on_c, 0, 65, 67
1, 114822, Note_on_c, 0, 62, 0
1, 114826, Note_on_c, 0, 71, 0
1, 114846, Note_on_c, 0, 65, 0
1, 114870, Note_on_c, 0, 80, 0
1, 114905, Note_on_c, 0, 80, 66
1, 114907, Note_on_c, 0, 67, 66
1, 114988, Note_on_c, 0, 80, 0
1, 115009, Note_on_c, 0, 83, 65
1, 115011, Note_on_c, 0, 74, 61
1, 115030, Note_on_c, 0, 67, 0
1, 115120, Note_on_c, 0, 83, 0
1, 115145, Note_on_c, 0, 74, 0
1, 115145, Note_on_c, 0, 92, 105
1, 115152, Note_on_c, 0, 77, 64
1, 115240, Note_on_c, 0, 74, 58
1, 115242, Note_on_c, 0, 83, 63
1, 115278, Note_on_c, 0, 77, 0
1, 115326, Note_on_c, 0, 92, 0
1, 115330, Note_on_c, 0, 80, 69
1, 115331, Note_on_c, 0, 67, 45
1, 115340, Note_on_c, 0, 83, 0
1, 115346, Note_on_c, 0, 74, 0
1, 115362, Note_on_c, 0, 80, 0
1, 115372, Note_on_c, 0, 67, 0
1, 115418, Note_on_c, 0, 65, 61
1, 115422, Note_on_c, 0, 80, 68
1, 115472, Note_on_c, 0, 80, 0
1, 115507, Note_on_c, 0, 65, 0
1, 115518, Note_on_c, 0, 62, 69
1, 115529, Note_on_c, 0, 71, 78
1, 115618, Note_on_c, 0, 55, 62
1, 115622, Note_on_c, 0, 68, 65
1, 115631, Note_on_c, 0, 71, 0
1, 115635, Note_on_c, 0, 62, 0
1, 115653, Note_on_c, 0, 68, 0
1, 115661, Note_on_c, 0, 55, 0
1, 115716, Note_on_c, 0, 53, 74
1, 115721, Note_on_c, 0, 68, 80
1, 115789, Note_on_c, 0, 68, 0
1, 115815, Note_on_c, 0, 59, 67
1, 115822, Note_on_c, 0, 50, 67
1, 115844, Note_on_c, 0, 53, 0
1, 115912, Note_on_c, 0, 43, 78
1, 115931, Note_on_c, 0, 50, 0
1, 115934, Note_on_c, 0, 59, 0
1, 115963, Note_on_c, 0, 55, 98
1, 115974, Control_c, 0, 64, 0
1, 115983, Control_c, 0, 64, 127
1, 116067, Note_on_c, 0, 50, 60
1, 116076, Note_on_c, 0, 59, 80
1, 116101, Note_on_c, 0, 55, 0
1, 116155, Note_on_c, 0, 43, 0
1, 116162, Note_on_c, 0, 59, 0
1, 116162, Note_on_c, 0, 53, 63
1, 116163, Note_on_c, 0, 67, 62
1, 116174, Note_on_c, 0, 50, 0
1, 116192, Note_on_c, 0, 53, 0
1, 116204, Note_on_c, 0, 67, 0
1, 116238, Note_on_c, 0, 55, 62
1, 116242, Note_on_c, 0, 67, 70
1, 116300, Note_on_c, 0, 67, 0
1, 116329, Note_on_c, 0, 71, 76
1, 116338, Note_on_c, 0, 62, 66
1, 116380, Note_on_c, 0, 55, 0
1, 116420, Note_on_c, 0, 79, 59
1, 116422, Note_on_c, 0, 65, 63
1, 116425, Note_on_c, 0, 71, 0
1, 116432, Note_on_c, 0, 62, 0
1, 116453, Note_on_c, 0, 65, 0
1, 116466, Note_on_c, 0, 79, 0
1, 116509, Note_on_c, 0, 67, 64
1, 116511, Note_on_c, 0, 79, 66
1, 116575, Note_on_c, 0, 79, 0
1, 116602, Note_on_c, 0, 83, 67
1, 116605, Note_on_c, 0, 74, 48
1, 116613, Note_on_c, 0, 67, 0
1, 116673, Note_on_c, 0, 83, 0
1, 116707, Note_on_c, 0, 74, 0
1, 116716, Note_on_c, 0, 91, 88
1, 116719, Note_on_c, 0, 77, 67
1, 116810, Note_on_c, 0, 74, 45
1, 116819, Note_on_c, 0, 83, 60
1, 116842, Note_on_c, 0, 77, 0
1, 116914, Note_on_c, 0, 91, 0
1, 116918, Note_on_c, 0, 67, 61
1, 116921, Note_on_c, 0, 79, 65
1, 116937, Note_on_c, 0, 74, 0
1, 116941, Note_on_c, 0, 83, 0
1, 116952, Note_on_c, 0, 79, 0
1, 116970, Note_on_c, 0, 67, 0
1, 117021, Note_on_c, 0, 65, 61
1, 117023, Note_on_c, 0, 79, 62
1, 117085, Note_on_c, 0, 79, 0
1, 117120, Note_on_c, 0, 65, 0
1, 117152, Note_on_c, 0, 62, 69
1, 117154, Note_on_c, 0, 71, 74
1, 117273, Note_on_c, 0, 55, 65
1, 117275, Note_on_c, 0, 67, 59
1, 117289, Note_on_c, 0, 71, 0
1, 117295, Note_on_c, 0, 62, 0
1, 117308, Note_on_c, 0, 67, 0
1, 117328, Note_on_c, 0, 55, 0
1, 117434, Note_on_c, 0, 53, 92
1, 117489, Note_on_c, 0, 67, 78
1, 117658, Note_on_c, 0, 67, 0
1, 117668, Note_on_c, 0, 50, 58
1, 117685, Note_on_c, 0, 53, 0
1, 117704, Note_on_c, 0, 59, 90
1, 117708, Note_on_c, 0, 50, 0
1, 117870, Note_on_c, 0, 59, 0
1, 117919, Note_on_c, 0, 24, 110
1, 117920, Note_on_c, 0, 36, 102
1, 117950, Control_c, 0, 64, 0
1, 117994, Note_on_c, 0, 52, 116
1, 118004, Control_c, 0, 64, 127
1, 118062, Note_on_c, 0, 24, 0
1, 118104, Note_on_c, 0, 36, 0
1, 118184, Note_on_c, 0, 52, 0
1, 118195, Note_on_c, 0, 55, 80
1, 118208, Note_on_c, 0, 43, 84
1, 118331, Note_on_c, 0, 64, 58
1, 118334, Note_on_c, 0, 48, 72
1, 118341, Note_on_c, 0, 55, 0
1, 118351, Note_on_c, 0, 43, 0
1, 118382, Note_on_c, 0, 48, 0
1, 118399, Note_on_c, 0, 64, 0
1, 118437, Note_on_c, 0, 64, 78
1, 118438, Note_on_c, 0, 48, 70
1, 118520, Note_on_c, 0, 64, 0
1, 118558, Note_on_c, 0, 67, 100
1, 118560, Note_on_c, 0, 55, 84
1, 118571, Note_on_c, 0, 48, 0
1, 118650, Note_on_c, 0, 60, 63
1, 118652, Note_on_c, 0, 76, 47
1, 118656, Note_on_c, 0, 55, 0
1, 118658, Note_on_c, 0, 67, 0
1, 118684, Note_on_c, 0, 60, 0
1, 118702, Note_on_c, 0, 76, 0
1, 118740, Note_on_c, 0, 76, 68
1, 118748, Note_on_c, 0, 60, 74
1, 118832, Note_on_c, 0, 76, 0
1, 118833, Note_on_c, 0, 79, 82
1, 118840, Note_on_c, 0, 67, 69
1, 118879, Note_on_c, 0, 60, 0
1, 118922, Note_on_c, 0, 88, 68
1, 118924, Note_on_c, 0, 72, 59
1, 118927, Note_on_c, 0, 67, 0
1, 118931, Note_on_c, 0, 79, 0
1, 118952, Note_on_c, 0, 72, 0
1, 118968, Note_on_c, 0, 88, 0
1, 119004, Note_on_c, 0, 88, 78
1, 119013, Note_on_c, 0, 72, 30
1, 119101, Note_on_c, 0, 91, 90
1, 119106, Note_on_c, 0, 79, 59
1, 119110, Note_on_c, 0, 88, 0
1, 119115, Note_on_c, 0, 72, 0
1, 119196, Note_on_c, 0, 100, 88
1, 119198, Note_on_c, 0, 91, 0
1, 119202, Note_on_c, 0, 84, 59
1, 119206, Note_on_c, 0, 79, 0
1, 119288, Note_on_c, 0, 91, 98
1, 119294, Note_on_c, 0, 79, 57
1, 119322, Note_on_c, 0, 84, 0
1, 119374, Note_on_c, 0, 88, 64
1, 119378, Note_on_c, 0, 100, 0
1, 119378, Note_on_c, 0, 72, 40
1, 119393, Note_on_c, 0, 79, 0
1, 119396, Note_on_c, 0, 91, 0
1, 119412, Note_on_c, 0, 88, 0
1, 119425, Note_on_c, 0, 72, 0
1, 119466, Note_on_c, 0, 72, 34
1, 119468, Note_on_c, 0, 88, 76
1, 119557, Note_on_c, 0, 88, 0
1, 119558, Note_on_c, 0, 79, 69
1, 119567, Note_on_c, 0, 67, 62
1, 119600, Note_on_c, 0, 72, 0
1, 119668, Note_on_c, 0, 76, 82
1, 119671, Note_on_c, 0, 60, 66
1, 119678, Note_on_c, 0, 79, 0
1, 119689, Note_on_c, 0, 67, 0
1, 119707, Note_on_c, 0, 76, 0
1, 119721, Note_on_c, 0, 60, 0
1, 119760, Note_on_c, 0, 60, 67
1, 119763, Note_on_c, 0, 76, 68
1, 119856, Note_on_c, 0, 67, 74
1, 119861, Note_on_c, 0, 55, 62
1, 119884, Note_on_c, 0, 76, 0
1, 119922, Note_on_c, 0, 60, 0
1, 119944, Note_on_c, 0, 64, 69
1, 119954, Note_on_c, 0, 48, 59
1, 119959, Note_on_c, 0, 67, 0
1, 119970, Note_on_c, 0, 55, 0
1, 119972, Note_on_c, 0, 64, 0
1, 119999, Note_on_c, 0, 48, 0
1, 120059, Note_on_c, 0, 48, 68
1, 120060, Note_on_c, 0, 64, 92
1, 120191, Note_on_c, 0, 43, 63
1, 120198, Note_on_c, 0, 55, 66
1, 120200, Note_on_c, 0, 48, 0
1, 120201, Note_on_c, 0, 64, 0
1, 120306, Note_on_c, 0, 55, 0
1, 120306, Note_on_c, 0, 36, 63
1, 120309, Note_on_c, 0, 52, 76
1, 120310, Note_on_c, 0, 43, 0
1, 120416, Note_on_c, 0, 55, 63
1, 120418, Note_on_c, 0, 43, 65
1, 120422, Note_on_c, 0, 52, 0
1, 120457, Note_on_c, 0, 36, 0
1, 120472, Note_on_c, 0, 55, 0
1, 120535, Note_on_c, 0, 50, 104
1, 120536, Note_on_c, 0, 47, 88
1, 120556, Note_on_c, 0, 43, 0
1, 120587, Control_c, 0, 64, 0
1, 120596, Control_c, 0, 64, 127
1, 120605, Control_c, 0, 64, 0
1, 120614, Control_c, 0, 64, 127
1, 120664, Note_on_c, 0, 50, 0
1, 120716, Note_on_c, 0, 43, 59
1, 120735, Note_on_c, 0, 55, 72
1, 120752, Note_on_c, 0, 47, 0
1, 120819, Note_on_c, 0, 36, 65
1, 120821, Note_on_c, 0, 62, 74
1, 120826, Note_on_c, 0, 43, 0
1, 120838, Note_on_c, 0, 55, 0
1, 120922, Note_on_c, 0, 55, 82
1, 120924, Note_on_c, 0, 43, 69
1, 120960, Note_on_c, 0, 36, 0
1, 120960, Note_on_c, 0, 62, 0
1, 121034, Note_on_c, 0, 55, 0
1, 121042, Note_on_c, 0, 50, 84
1, 121043, Note_on_c, 0, 53, 108
1, 121074, Note_on_c, 0, 43, 0
1, 121122, Note_on_c, 0, 53, 0
1, 121192, Note_on_c, 0, 55, 90
1, 121197, Note_on_c, 0, 43, 64
1, 121221, Note_on_c, 0, 50, 0
1, 121229, Note_on_c, 0, 55, 0
1, 121288, Note_on_c, 0, 36, 64
1, 121293, Note_on_c, 0, 43, 0
1, 121308, Note_on_c, 0, 67, 104
1, 121345, Note_on_c, 0, 67, 0
1, 121407, Note_on_c, 0, 43, 70
1, 121433, Note_on_c, 0, 36, 0
1, 121439, Note_on_c, 0, 55, 82
1, 121511, Note_on_c, 0, 36, 86
1, 121522, Note_on_c, 0, 43, 0
1, 121528, Note_on_c, 0, 55, 0
1, 121545, Control_c, 0, 64, 0
1, 121590, Note_on_c, 0, 52, 112
1, 121598, Control_c, 0, 64, 127
1, 121674, Note_on_c, 0, 52, 0
1, 121700, Note_on_c, 0, 43, 60
1, 121715, Note_on_c, 0, 55, 82
1, 121770, Note_on_c, 0, 36, 0
1, 121794, Note_on_c, 0, 48, 60
1, 121801, Note_on_c, 0, 64, 31
1, 121803, Note_on_c, 0, 55, 0
1, 121806, Note_on_c, 0, 43, 0
1, 121834, Note_on_c, 0, 48, 0
1, 121843, Note_on_c, 0, 64, 0
1, 121874, Note_on_c, 0, 64, 74
1, 121875, Note_on_c, 0, 48, 55
1, 121945, Note_on_c, 0, 64, 0
1, 121980, Note_on_c, 0, 67, 96
1, 121988, Note_on_c, 0, 55, 80
1, 122017, Note_on_c, 0, 48, 0
1, 122070, Note_on_c, 0, 60, 65
1, 122076, Note_on_c, 0, 76, 60
1, 122080, Note_on_c, 0, 67, 0
1, 122081, Note_on_c, 0, 55, 0
1, 122104, Note_on_c, 0, 60, 0
1, 122120, Note_on_c, 0, 76, 0
1, 122150, Note_on_c, 0, 60, 51
1, 122153, Note_on_c, 0, 76, 70
1, 122232, Note_on_c, 0, 79, 70
1, 122236, Note_on_c, 0, 67, 67
1, 122245, Note_on_c, 0, 76, 0
1, 122261, Note_on_c, 0, 60, 0
1, 122316, Note_on_c, 0, 72, 50
1, 122318, Note_on_c, 0, 88, 69
1, 122320, Note_on_c, 0, 67, 0
1, 122321, Note_on_c, 0, 79, 0
1, 122346, Note_on_c, 0, 72, 0
1, 122360, Note_on_c, 0, 88, 0
1, 122396, Note_on_c, 0, 88, 74
1, 122396, Note_on_c, 0, 72, 27
1, 122479, Note_on_c, 0, 79, 47
1, 122481, Note_on_c, 0, 72, 0
1, 122482, Note_on_c, 0, 91, 82
1, 122485, Note_on_c, 0, 88, 0
1, 122570, Note_on_c, 0, 79, 0
1, 122573, Note_on_c, 0, 91, 0
1, 122580, Note_on_c, 0, 100, 84
1, 122596, Note_on_c, 0, 84, 56
1, 122671, Note_on_c, 0, 91, 98
1, 122687, Note_on_c, 0, 79, 61
1, 122722, Note_on_c, 0, 84, 0
1, 122754, Note_on_c, 0, 100, 0
1, 122759, Note_on_c, 0, 88, 74
1, 122766, Note_on_c, 0, 72, 51
1, 122773, Note_on_c, 0, 91, 0
1, 122778, Note_on_c, 0, 79, 0
1, 122789, Note_on_c, 0, 88, 0
1, 122809, Note_on_c, 0, 72, 0
1, 122846, Note_on_c, 0, 72, 39
1, 122846, Note_on_c, 0, 88, 70
1, 122925, Note_on_c, 0, 88, 0
1, 122933, Note_on_c, 0, 79, 64
1, 122937, Note_on_c, 0, 67, 53
1, 122964, Note_on_c, 0, 72, 0
1, 123048, Note_on_c, 0, 60, 65
1, 123049, Note_on_c, 0, 76, 76
1, 123054, Note_on_c, 0, 79, 0
1, 123063, Note_on_c, 0, 67, 0
1, 123086, Note_on_c, 0, 76, 0
1, 123099, Note_on_c, 0, 60, 0
1, 123131, Note_on_c, 0, 60, 69
1, 123142, Note_on_c, 0, 76, 59
1, 123231, Note_on_c, 0, 67, 76
1, 123232, Note_on_c, 0, 55, 64
1, 123235, Note_on_c, 0, 76, 0
1, 123277, Note_on_c, 0, 60, 0
1, 123313, Note_on_c, 0, 64, 66
1, 123323, Note_on_c, 0, 48, 61
1, 123325, Note_on_c, 0, 67, 0
1, 123341, Note_on_c, 0, 55, 0
1, 123342, Note_on_c, 0, 64, 0
1, 123372, Note_on_c, 0, 48, 0
1, 123420, Note_on_c, 0, 48, 70
1, 123493, Note_on_c, 0, 64, 98
1, 123592, Note_on_c, 0, 43, 61
1, 123604, Note_on_c, 0, 48, 0
1, 123608, Note_on_c, 0, 55, 68
1, 123616, Note_on_c, 0, 64, 0
1, 123680, Note_on_c, 0, 43, 0
1, 123682, Note_on_c, 0, 36, 58
1, 123686, Note_on_c, 0, 55, 0
1, 123689, Note_on_c, 0, 52, 63
1, 123767, Note_on_c, 0, 52, 0
1, 123777, Note_on_c, 0, 55, 82
1, 123779, Note_on_c, 0, 43, 64
1, 123800, Note_on_c, 0, 36, 0
1, 123841, Note_on_c, 0, 55, 0
1, 123882, Note_on_c, 0, 47, 86
1, 123885, Note_on_c, 0, 50, 96
1, 123886, Note_on_c, 0, 43, 0
1, 123899, Note_on_c, 0, 50, 0
1, 124058, Note_on_c, 0, 43, 62
1, 124065, Note_on_c, 0, 55, 76
1, 124098, Note_on_c, 0, 47, 0
1, 124134, Note_on_c, 0, 55, 0
1, 124146, Note_on_c, 0, 43, 0
1, 124150, Note_on_c, 0, 36, 62
1, 124152, Note_on_c, 0, 62, 62
1, 124226, Note_on_c, 0, 55, 72
1, 124234, Note_on_c, 0, 43, 68
1, 124241, Note_on_c, 0, 62, 0
1, 124257, Note_on_c, 0, 36, 0
1, 124265, Note_on_c, 0, 55, 0
1, 124303, Note_on_c, 0, 45, 94
1, 124305, Note_on_c, 0, 48, 98
1, 124309, Note_on_c, 0, 43, 0
1, 124453, Note_on_c, 0, 55, 74
1, 124456, Note_on_c, 0, 43, 68
1, 124473, Note_on_c, 0, 48, 0
1, 124494, Note_on_c, 0, 45, 0
1, 124538, Note_on_c, 0, 55, 0
1, 124545, Note_on_c, 0, 60, 63
1, 124549, Note_on_c, 0, 36, 66
1, 124556, Note_on_c, 0, 43, 0
1, 124614, Note_on_c, 0, 60, 0
1, 124620, Note_on_c, 0, 55, 84
1, 124666, Note_on_c, 0, 36, 0
1, 124693, Note_on_c, 0, 55, 0
1, 124697, Note_on_c, 0, 36, 92
1, 124767, Control_c, 0, 64, 0
1, 124782, Note_on_c, 0, 50, 108
1, 124803, Control_c, 0, 64, 127
1, 124887, Note_on_c, 0, 43, 56
1, 124896, Note_on_c, 0, 55, 72
1, 124966, Note_on_c, 0, 50, 0
1, 124982, Note_on_c, 0, 62, 58
1, 124987, Note_on_c, 0, 36, 0
1, 124991, Note_on_c, 0, 55, 0
1, 124991, Note_on_c, 0, 47, 51
1, 125000, Note_on_c, 0, 43, 0
1, 125022, Note_on_c, 0, 47, 0
1, 125029, Note_on_c, 0, 62, 0
1, 125064, Note_on_c, 0, 62, 61
1, 125067, Note_on_c, 0, 48, 60
1, 125138, Note_on_c, 0, 62, 0
1, 125168, Note_on_c, 0, 67, 94
1, 125172, Note_on_c, 0, 55, 76
1, 125234, Note_on_c, 0, 48, 0
1, 125254, Note_on_c, 0, 59, 64
1, 125259, Note_on_c, 0, 74, 55
1, 125265, Note_on_c, 0, 55, 0
1, 125271, Note_on_c, 0, 67, 0
1, 125284, Note_on_c, 0, 59, 0
1, 125302, Note_on_c, 0, 74, 0
1, 125332, Note_on_c, 0, 60, 70
1, 125336, Note_on_c, 0, 74, 66
1, 125428, Note_on_c, 0, 79, 76
1, 125431, Note_on_c, 0, 67, 65
1, 125447, Note_on_c, 0, 74, 0
1, 125515, Note_on_c, 0, 60, 0
1, 125522, Note_on_c, 0, 71, 61
1, 125529, Note_on_c, 0, 86, 59
1, 125532, Note_on_c, 0, 67, 0
1, 125540, Note_on_c, 0, 79, 0
1, 125555, Note_on_c, 0, 71, 0
1, 125569, Note_on_c, 0, 86, 0
1, 125607, Note_on_c, 0, 86, 76
1, 125610, Note_on_c, 0, 72, 47
1, 125689, Note_on_c, 0, 79, 57
1, 125694, Note_on_c, 0, 91, 80
1, 125696, Note_on_c, 0, 72, 0
1, 125696, Note_on_c, 0, 86, 0
1, 125776, Note_on_c, 0, 91, 0
1, 125776, Note_on_c, 0, 98, 70
1, 125779, Note_on_c, 0, 79, 0
1, 125779, Note_on_c, 0, 83, 58
1, 125862, Note_on_c, 0, 91, 76
1, 125866, Note_on_c, 0, 79, 52
1, 125885, Note_on_c, 0, 83, 0
1, 125935, Note_on_c, 0, 98, 0
1, 125937, Note_on_c, 0, 86, 67
1, 125946, Note_on_c, 0, 72, 44
1, 125953, Note_on_c, 0, 91, 0
1, 125959, Note_on_c, 0, 79, 0
1, 125968, Note_on_c, 0, 86, 0
1, 125988, Note_on_c, 0, 72, 0
1, 126034, Note_on_c, 0, 71, 44
1, 126034, Note_on_c, 0, 86, 69
1, 126116, Note_on_c, 0, 79, 61
1, 126120, Note_on_c, 0, 86, 0
1, 126121, Note_on_c, 0, 67, 60
1, 126144, Note_on_c, 0, 71, 0
1, 126224, Note_on_c, 0, 74, 70
1, 126227, Note_on_c, 0, 60, 62
1, 126233, Note_on_c, 0, 79, 0
1, 126240, Note_on_c, 0, 67, 0
1, 126254, Note_on_c, 0, 74, 0
1, 126270, Note_on_c, 0, 60, 0
1, 126311, Note_on_c, 0, 59, 57
1, 126315, Note_on_c, 0, 74, 63
1, 126399, Note_on_c, 0, 55, 59
1, 126400, Note_on_c, 0, 67, 59
1, 126428, Note_on_c, 0, 59, 0
1, 126461, Note_on_c, 0, 74, 0
1, 126478, Note_on_c, 0, 62, 66
1, 126483, Note_on_c, 0, 48, 60
1, 126492, Note_on_c, 0, 67, 0
1, 126495, Note_on_c, 0, 55, 0
1, 126508, Note_on_c, 0, 62, 0
1, 126525, Note_on_c, 0, 48, 0
1, 126562, Note_on_c, 0, 48, 66
1, 126663, Note_on_c, 0, 62, 88
1, 126669, Note_on_c, 0, 43, 72
1, 126676, Note_on_c, 0, 48, 0
1, 126771, Note_on_c, 0, 55, 65
1, 126784, Note_on_c, 0, 36, 43
1, 126802, Note_on_c, 0, 43, 0
1, 126855, Note_on_c, 0, 55, 0
1, 126856, Note_on_c, 0, 50, 58
1, 126888, Note_on_c, 0, 43, 57
1, 126908, Note_on_c, 0, 62, 0
1, 126933, Note_on_c, 0, 55, 70
1, 126952, Note_on_c, 0, 36, 0
1, 126964, Note_on_c, 0, 50, 0
1, 126973, Note_on_c, 0, 55, 0
1, 126990, Note_on_c, 0, 43, 0
1, 127037, Note_on_c, 0, 45, 80
1, 127063, Note_on_c, 0, 48, 98
1, 127162, Note_on_c, 0, 48, 0
1, 127164, Note_on_c, 0, 41, 53
1, 127187, Note_on_c, 0, 53, 80
1, 127207, Note_on_c, 0, 45, 0
1, 127255, Note_on_c, 0, 41, 0
1, 127260, Note_on_c, 0, 36, 62
1, 127264, Note_on_c, 0, 53, 0
1, 127276, Note_on_c, 0, 60, 80
1, 127349, Note_on_c, 0, 41, 63
1, 127352, Note_on_c, 0, 36, 0
1, 127360, Note_on_c, 0, 53, 66
1, 127377, Note_on_c, 0, 60, 0
1, 127428, Note_on_c, 0, 53, 0
1, 127433, Note_on_c, 0, 41, 0
1, 127440, Note_on_c, 0, 48, 96
1, 127441, Note_on_c, 0, 45, 88
1, 127532, Note_on_c, 0, 41, 63
1, 127539, Note_on_c, 0, 53, 74
1, 127560, Note_on_c, 0, 45, 0
1, 127594, Note_on_c, 0, 48, 0
1, 127606, Note_on_c, 0, 41, 0
1, 127616, Note_on_c, 0, 36, 70
1, 127618, Note_on_c, 0, 53, 0
1, 127628, Note_on_c, 0, 57, 86
1, 127697, Note_on_c, 0, 57, 0
1, 127709, Note_on_c, 0, 41, 76
1, 127710, Note_on_c, 0, 36, 0
1, 127714, Note_on_c, 0, 53, 74
1, 127761, Note_on_c, 0, 41, 0
1, 127782, Note_on_c, 0, 36, 94
1, 127796, Note_on_c, 0, 53, 0
1, 127820, Control_c, 0, 64, 0
1, 127865, Control_c, 0, 64, 127
1, 127866, Note_on_c, 0, 48, 104
1, 127932, Note_on_c, 0, 48, 0
1, 127986, Note_on_c, 0, 44, 67
1, 127990, Note_on_c, 0, 53, 82
1, 128005, Note_on_c, 0, 36, 0
1, 128068, Note_on_c, 0, 48, 61
1, 128070, Note_on_c, 0, 53, 0
1, 128073, Note_on_c, 0, 60, 54
1, 128081, Note_on_c, 0, 44, 0
1, 128100, Note_on_c, 0, 48, 0
1, 128109, Note_on_c, 0, 60, 0
1, 128148, Note_on_c, 0, 48, 58
1, 128150, Note_on_c, 0, 60, 70
1, 128199, Note_on_c, 0, 60, 0
1, 128245, Note_on_c, 0, 65, 92
1, 128250, Note_on_c, 0, 56, 72
1, 128252, Note_on_c, 0, 48, 0
1, 128325, Note_on_c, 0, 65, 0
1, 128330, Note_on_c, 0, 60, 68
1, 128333, Note_on_c, 0, 72, 31
1, 128352, Note_on_c, 0, 56, 0
1, 128368, Note_on_c, 0, 60, 0
1, 128372, Note_on_c, 0, 72, 0
1, 128406, Note_on_c, 0, 60, 61
1, 128414, Note_on_c, 0, 72, 57
1, 128474, Note_on_c, 0, 72, 0
1, 128496, Note_on_c, 0, 77, 64
1, 128502, Note_on_c, 0, 68, 53
1, 128506, Note_on_c, 0, 60, 0
1, 128587, Note_on_c, 0, 72, 52
1, 128589, Note_on_c, 0, 84, 59
1, 128590, Note_on_c, 0, 77, 0
1, 128592, Note_on_c, 0, 68, 0
1, 128640, Note_on_c, 0, 72, 0
1, 128640, Note_on_c, 0, 84, 0
1, 128665, Note_on_c, 0, 84, 62
1, 128669, Note_on_c, 0, 72, 35
1, 128719, Note_on_c, 0, 84, 0
1, 128732, Note_on_c, 0, 72, 0
1, 128744, Note_on_c, 0, 89, 70
1, 128748, Note_on_c, 0, 80, 43
1, 128803, Note_on_c, 0, 89, 0
1, 128814, Note_on_c, 0, 80, 0
1, 128827, Note_on_c, 0, 96, 74
1, 128836, Note_on_c, 0, 84, 59
1, 128907, Note_on_c, 0, 84, 0
1, 128911, Note_on_c, 0, 89, 72
1, 128912, Note_on_c, 0, 80, 39
1, 128983, Note_on_c, 0, 96, 0
1, 128991, Note_on_c, 0, 84, 51
1, 128994, Note_on_c, 0, 72, 33
1, 129004, Note_on_c, 0, 89, 0
1, 129007, Note_on_c, 0, 80, 0
1, 129024, Note_on_c, 0, 84, 0
1, 129036, Note_on_c, 0, 72, 0
1, 129077, Note_on_c, 0, 72, 40
1, 129082, Note_on_c, 0, 84, 50
1, 129136, Note_on_c, 0, 84, 0
1, 129142, Note_on_c, 0, 72, 0
1, 129177, Note_on_c, 0, 77, 63
1, 129178, Note_on_c, 0, 68, 45
1, 129280, Note_on_c, 0, 72, 76
1, 129282, Note_on_c, 0, 60, 66
1, 129286, Note_on_c, 0, 77, 0
1, 129298, Note_on_c, 0, 68, 0
1, 129310, Note_on_c, 0, 72, 0
1, 129325, Note_on_c, 0, 60, 0
1, 129364, Note_on_c, 0, 60, 56
1, 129378, Note_on_c, 0, 72, 61
1, 129458, Note_on_c, 0, 56, 65
1, 129460, Note_on_c, 0, 65, 61
1, 129470, Note_on_c, 0, 60, 0
1, 129471, Note_on_c, 0, 72, 0
1, 129540, Note_on_c, 0, 48, 60
1, 129542, Note_on_c, 0, 60, 67
1, 129547, Note_on_c, 0, 65, 0
1, 129560, Note_on_c, 0, 56, 0
1, 129568, Note_on_c, 0, 60, 0
1, 129581, Note_on_c, 0, 48, 0
1, 129617, Note_on_c, 0, 48, 66
1, 129703, Note_on_c, 0, 60, 86
1, 129804, Note_on_c, 0, 48, 0
1, 129807, Note_on_c, 0, 53, 66
1, 129810, Note_on_c, 0, 44, 61
1, 129831, Note_on_c, 0, 60, 0
1, 129886, Note_on_c, 0, 44, 0
1, 129889, Note_on_c, 0, 53, 0
1, 129898, Note_on_c, 0, 36, 33
1, 129898, Note_on_c, 0, 48, 76
1, 129959, Note_on_c, 0, 48, 0
1, 129978, Note_on_c, 0, 44, 65
1, 129981, Note_on_c, 0, 53, 68
1, 129994, Note_on_c, 0, 36, 0
1, 130027, Note_on_c, 0, 53, 0
1, 130035, Note_on_c, 0, 44, 0
1, 130055, Note_on_c, 0, 36, 74
1, 130120, Note_on_c, 0, 48, 100
1, 130189, Note_on_c, 0, 48, 0
1, 130237, Note_on_c, 0, 44, 57
1, 130250, Note_on_c, 0, 53, 90
1, 130263, Note_on_c, 0, 36, 0
1, 130320, Note_on_c, 0, 53, 0
1, 130338, Note_on_c, 0, 48, 62
1, 130340, Note_on_c, 0, 44, 0
1, 130345, Note_on_c, 0, 60, 74
1, 130412, Note_on_c, 0, 60, 0
1, 130412, Note_on_c, 0, 44, 57
1, 130416, Note_on_c, 0, 48, 0
1, 130420, Note_on_c, 0, 53, 70
1, 130478, Note_on_c, 0, 44, 0
1, 130492, Note_on_c, 0, 36, 63
1, 130499, Note_on_c, 0, 53, 0
1, 130514, Note_on_c, 0, 48, 98
1, 130585, Note_on_c, 0, 48, 0
1, 130616, Note_on_c, 0, 44, 66
1, 130618, Note_on_c, 0, 53, 80
1, 130640, Note_on_c, 0, 36, 0
1, 130690, Note_on_c, 0, 53, 0
1, 130733, Note_on_c, 0, 48, 78
1, 130744, Note_on_c, 0, 62, 78
1, 130756, Note_on_c, 0, 44, 0
1, 130815, Note_on_c, 0, 62, 0
1, 130823, Note_on_c, 0, 44, 76
1, 130845, Note_on_c, 0, 48, 0
1, 130859, Note_on_c, 0, 53, 96
1, 130866, Note_on_c, 0, 44, 0
1, 130989, Note_on_c, 0, 36, 98
1, 130990, Note_on_c, 0, 24, 118
1, 131006, Control_c, 0, 64, 0
1, 131050, Control_c, 0, 64, 127
1, 131058, Note_on_c, 0, 53, 0
1, 131077, Note_on_c, 0, 48, 108
1, 131085, Note_on_c, 0, 24, 0
1, 131114, Note_on_c, 0, 36, 0
1, 131167, Note_on_c, 0, 48, 0
1, 131205, Note_on_c, 0, 44, 56
1, 131209, Note_on_c, 0, 53, 90
1, 131291, Note_on_c, 0, 48, 66
1, 131299, Note_on_c, 0, 60, 62
1, 131302, Note_on_c, 0, 53, 0
1, 131305, Note_on_c, 0, 44, 0
1, 131325, Note_on_c, 0, 48, 0
1, 131342, Note_on_c, 0, 60, 0
1, 131384, Note_on_c, 0, 60, 80
1, 131388, Note_on_c, 0, 48, 72
1, 131435, Note_on_c, 0, 60, 0
1, 131488, Note_on_c, 0, 65, 88
1, 131489, Note_on_c, 0, 56, 84
1, 131495, Note_on_c, 0, 48, 0
1, 131579, Note_on_c, 0, 60, 66
1, 131584, Note_on_c, 0, 72, 44
1, 131589, Note_on_c, 0, 65, 0
1, 131600, Note_on_c, 0, 56, 0
1, 131613, Note_on_c, 0, 60, 0
1, 131624, Note_on_c, 0, 72, 0
1, 131663, Note_on_c, 0, 72, 66
1, 131668, Note_on_c, 0, 60, 69
1, 131720, Note_on_c, 0, 72, 0
1, 131745, Note_on_c, 0, 68, 54
1, 131747, Note_on_c, 0, 77, 72
1, 131754, Note_on_c, 0, 60, 0
1, 131828, Note_on_c, 0, 72, 56
1, 131829, Note_on_c, 0, 68, 0
1, 131831, Note_on_c, 0, 77, 0
1, 131834, Note_on_c, 0, 84, 59
1, 131862, Note_on_c, 0, 72, 0
1, 131876, Note_on_c, 0, 84, 0
1, 131908, Note_on_c, 0, 72, 43
1, 131910, Note_on_c, 0, 84, 72
1, 131950, Note_on_c, 0, 84, 0
1, 131963, Note_on_c, 0, 72, 0
1, 131988, Note_on_c, 0, 80, 46
1, 131990, Note_on_c, 0, 89, 82
1, 132040, Note_on_c, 0, 89, 0
1, 132062, Note_on_c, 0, 80, 0
1, 132083, Note_on_c, 0, 96, 82
1, 132091, Note_on_c, 0, 84, 64
1, 132174, Note_on_c, 0, 80, 46
1, 132175, Note_on_c, 0, 89, 84
1, 132182, Note_on_c, 0, 84, 0
1, 132212, Note_on_c, 0, 96, 0
1, 132258, Note_on_c, 0, 72, 52
1, 132262, Note_on_c, 0, 84, 61
1, 132271, Note_on_c, 0, 89, 0
1, 132273, Note_on_c, 0, 80, 0
1, 132293, Note_on_c, 0, 84, 0
1, 132300, Note_on_c, 0, 72, 0
1, 132347, Note_on_c, 0, 72, 43
1, 132353, Note_on_c, 0, 84, 65
1, 132410, Note_on_c, 0, 84, 0
1, 132425, Note_on_c, 0, 72, 0
1, 132440, Note_on_c, 0, 68, 60
1, 132441, Note_on_c, 0, 77, 65
1, 132536, Note_on_c, 0, 60, 61
1, 132540, Note_on_c, 0, 72, 68
1, 132544, Note_on_c, 0, 77, 0
1, 132552, Note_on_c, 0, 68, 0
1, 132569, Note_on_c, 0, 72, 0
1, 132578, Note_on_c, 0, 60, 0
1, 132622, Note_on_c, 0, 60, 58
1, 132631, Note_on_c, 0, 72, 58
1, 132712, Note_on_c, 0, 72, 0
1, 132718, Note_on_c, 0, 56, 65
1, 132723, Note_on_c, 0, 65, 65
1, 132735, Note_on_c, 0, 60, 0
1, 132809, Note_on_c, 0, 48, 63
1, 132811, Note_on_c, 0, 60, 76
1, 132817, Note_on_c, 0, 65, 0
1, 132834, Note_on_c, 0, 56, 0
1, 132844, Note_on_c, 0, 60, 0
1, 132855, Note_on_c, 0, 48, 0
1, 132896, Note_on_c, 0, 48, 70
1, 132963, Note_on_c, 0, 60, 107
1, 133071, Note_on_c, 0, 60, 0
1, 133072, Note_on_c, 0, 48, 0
1, 133074, Note_on_c, 0, 44, 67
1, 133077, Note_on_c, 0, 53, 74
1, 133155, Note_on_c, 0, 44, 0
1, 133160, Note_on_c, 0, 53, 0
1, 133163, Note_on_c, 0, 36, 67
1, 133170, Note_on_c, 0, 48, 88
1, 133245, Note_on_c, 0, 48, 0
1, 133253, Note_on_c, 0, 44, 65
1, 133260, Note_on_c, 0, 36, 0
1, 133262, Note_on_c, 0, 53, 78
1, 133321, Note_on_c, 0, 53, 0
1, 133328, Note_on_c, 0, 44, 0
1, 133334, Note_on_c, 0, 36, 68
1, 133407, Note_on_c, 0, 48, 108
1, 133488, Note_on_c, 0, 48, 0
1, 133531, Note_on_c, 0, 44, 64
1, 133547, Note_on_c, 0, 53, 94
1, 133552, Note_on_c, 0, 36, 0
1, 133626, Note_on_c, 0, 53, 0
1, 133660, Note_on_c, 0, 60, 106
1, 133661, Note_on_c, 0, 48, 80
1, 133665, Note_on_c, 0, 44, 0
1, 133760, Note_on_c, 0, 44, 61
1, 133768, Note_on_c, 0, 53, 76
1, 133770, Note_on_c, 0, 60, 0
1, 133772, Note_on_c, 0, 48, 0
1, 133842, Note_on_c, 0, 44, 0
1, 133849, Note_on_c, 0, 36, 69
1, 133871, Control_c, 0, 64, 0
1, 133880, Control_c, 0, 64, 127
1, 133889, Note_on_c, 0, 53, 0
1, 133889, Control_c, 0, 64, 0
1, 133907, Control_c, 0, 64, 127
1, 133911, Note_on_c, 0, 48, 104
1, 133997, Note_on_c, 0, 48, 0
1, 134033, Note_on_c, 0, 44, 70
1, 134047, Note_on_c, 0, 53, 90
1, 134059, Note_on_c, 0, 36, 0
1, 134146, Note_on_c, 0, 53, 0
1, 134186, Note_on_c, 0, 48, 94
1, 134188, Note_on_c, 0, 62, 104
1, 134199, Note_on_c, 0, 44, 0
1, 134302, Note_on_c, 0, 62, 0
1, 134330, Note_on_c, 0, 44, 72
1, 134350, Note_on_c, 0, 48, 0
1, 134368, Note_on_c, 0, 53, 82
1, 134371, Note_on_c, 0, 44, 0
1, 134607, Note_on_c, 0, 53, 0
1, 134660, Note_on_c, 0, 36, 110
1, 134685, Control_c, 0, 64, 0
1, 134694, Control_c, 0, 64, 127
1, 134703, Control_c, 0, 64, 0
1, 134717, Note_on_c, 0, 52, 114
1, 134739, Control_c, 0, 64, 127
1, 134803, Note_on_c, 0, 52, 0
1, 134854, Note_on_c, 0, 43, 69
1, 134864, Note_on_c, 0, 55, 100
1, 134870, Note_on_c, 0, 36, 0
1, 134972, Note_on_c, 0, 48, 76
1, 134980, Note_on_c, 0, 64, 65
1, 134985, Note_on_c, 0, 55, 0
1, 135035, Note_on_c, 0, 48, 0
1, 135071, Note_on_c, 0, 43, 0
1, 135071, Note_on_c, 0, 64, 0
1, 135082, Note_on_c, 0, 55, 84
1, 135182, Note_on_c, 0, 31, 103
1, 135189, Note_on_c, 0, 52, 88
1, 135190, Note_on_c, 0, 55, 0
1, 135226, Note_on_c, 0, 31, 0
1, 135288, Note_on_c, 0, 43, 70
1, 135294, Note_on_c, 0, 55, 78
1, 135314, Note_on_c, 0, 52, 0
1, 135391, Note_on_c, 0, 55, 0
1, 135392, Note_on_c, 0, 48, 74
1, 135396, Note_on_c, 0, 43, 0
1, 135397, Note_on_c, 0, 64, 59
1, 135482, Note_on_c, 0, 43, 76
1, 135491, Note_on_c, 0, 64, 0
1, 135493, Note_on_c, 0, 55, 84
1, 135505, Note_on_c, 0, 48, 0
1, 135572, Note_on_c, 0, 43, 0
1, 135582, Note_on_c, 0, 36, 103
1, 135587, Note_on_c, 0, 55, 0
1, 135588, Note_on_c, 0, 52, 102
1, 135678, Note_on_c, 0, 43, 68
1, 135687, Note_on_c, 0, 52, 0
1, 135698, Note_on_c, 0, 55, 67
1, 135713, Note_on_c, 0, 36, 0
1, 135767, Note_on_c, 0, 55, 0
1, 135770, Note_on_c, 0, 48, 66
1, 135772, Note_on_c, 0, 43, 0
1, 135786, Note_on_c, 0, 64, 56
1, 135846, Note_on_c, 0, 43, 64
1, 135864, Note_on_c, 0, 55, 78
1, 135868, Note_on_c, 0, 48, 0
1, 135870, Note_on_c, 0, 64, 0
1, 135889, Note_on_c, 0, 43, 0
1, 135941, Note_on_c, 0, 52, 86
1, 135942, Note_on_c, 0, 31, 90
1, 135956, Note_on_c, 0, 55, 0
1, 135978, Note_on_c, 0, 31, 0
1, 136032, Note_on_c, 0, 55, 82
1, 136034, Note_on_c, 0, 43, 92
1, 136072, Note_on_c, 0, 52, 0
1, 136128, Note_on_c, 0, 55, 0
1, 136131, Note_on_c, 0, 48, 84
1, 136134, Note_on_c, 0, 64, 60
1, 136135, Note_on_c, 0, 43, 0
1, 136211, Note_on_c, 0, 43, 67
1, 136216, Note_on_c, 0, 55, 69
1, 136220, Note_on_c, 0, 64, 0
1, 136242, Note_on_c, 0, 48, 0
1, 136292, Note_on_c, 0, 43, 0
1, 136303, Note_on_c, 0, 36, 107
1, 136306, Note_on_c, 0, 55, 0
1, 136311, Note_on_c, 0, 52, 96
1, 136324, Control_c, 0, 64, 0
1, 136350, Control_c, 0, 64, 127
1, 136407, Note_on_c, 0, 43, 74
1, 136425, Note_on_c, 0, 55, 74
1, 136442, Note_on_c, 0, 36, 0
1, 136452, Note_on_c, 0, 52, 0
1, 136498, Note_on_c, 0, 48, 68
1, 136500, Note_on_c, 0, 55, 0
1, 136510, Note_on_c, 0, 43, 0
1, 136519, Note_on_c, 0, 64, 50
1, 136579, Note_on_c, 0, 43, 69
1, 136596, Note_on_c, 0, 55, 80
1, 136604, Note_on_c, 0, 48, 0
1, 136622, Note_on_c, 0, 43, 0
1, 136640, Note_on_c, 0, 64, 0
1, 136683, Note_on_c, 0, 31, 108
1, 136687, Note_on_c, 0, 52, 74
1, 136703, Note_on_c, 0, 55, 0
1, 136719, Note_on_c, 0, 31, 0
1, 136786, Note_on_c, 0, 43, 92
1, 136786, Note_on_c, 0, 55, 78
1, 136820, Note_on_c, 0, 52, 0
1, 136887, Note_on_c, 0, 55, 0
1, 136887, Note_on_c, 0, 43, 0
1, 136890, Note_on_c, 0, 48, 90
1, 136898, Note_on_c, 0, 64, 63
1, 136998, Note_on_c, 0, 43, 70
1, 137002, Note_on_c, 0, 55, 78
1, 137025, Note_on_c, 0, 48, 0
1, 137032, Note_on_c, 0, 64, 0
1, 137118, Note_on_c, 0, 43, 0
1, 137119, Note_on_c, 0, 52, 92
1, 137120, Note_on_c, 0, 36, 108
1, 137125, Note_on_c, 0, 55, 0
1, 137236, Note_on_c, 0, 43, 74
1, 137241, Note_on_c, 0, 55, 86
1, 137263, Note_on_c, 0, 36, 0
1, 137270, Note_on_c, 0, 52, 0
1, 137361, Note_on_c, 0, 55, 0
1, 137365, Note_on_c, 0, 48, 76
1, 137369, Note_on_c, 0, 64, 57
1, 137377, Note_on_c, 0, 43, 0
1, 137460, Note_on_c, 0, 43, 67
1, 137472, Note_on_c, 0, 55, 80
1, 137475, Note_on_c, 0, 64, 0
1, 137475, Note_on_c, 0, 48, 0
1, 137491, Note_on_c, 0, 43, 0
1, 137576, Note_on_c, 0, 31, 108
1, 137580, Note_on_c, 0, 52, 84
1, 137582, Note_on_c, 0, 55, 0
1, 137617, Note_on_c, 0, 31, 0
1, 137706, Note_on_c, 0, 43, 74
1, 137712, Note_on_c, 0, 55, 74
1, 137742, Note_on_c, 0, 52, 0
1, 137838, Note_on_c, 0, 55, 0
1, 137842, Note_on_c, 0, 48, 84
1, 137844, Note_on_c, 0, 43, 0
1, 137847, Note_on_c, 0, 64, 59
1, 137976, Note_on_c, 0, 43, 72
1, 137992, Note_on_c, 0, 48, 0
1, 137995, Note_on_c, 0, 64, 0
1, 137996, Note_on_c, 0, 55, 82
1, 138017, Note_on_c, 0, 43, 0
1, 138228, Note_on_c, 0, 24, 127
1, 138229, Note_on_c, 0, 36, 110
1, 138238, Note_on_c, 0, 55, 0
1, 138241, Note_on_c, 0, 52, 108
1, 138253, Control_c, 0, 64, 0
1, 138298, Control_c, 0, 64, 127
1, 140400, Note_on_c, 0, 48, 68
1, 140400, Note_on_c, 0, 55, 94
1, 140400, Note_on_c, 0, 60, 94
1, 140400, Note_on_c, 0, 64, 98
1, 140400, Note_on_c, 0, 67, 100
1, 140400, Note_on_c, 0, 72, 86
1, 140400, Note_on_c, 0, 76, 78
1, 142450, Control_c, 0, 64, 0
1, 144947, Note_on_c, 0, 24, 0
1, 144948, Note_on_c, 0, 36, 0
1, 144959, Note_on_c, 0, 67, 0
1, 144959, Note_on_c, 0, 48, 0
1, 144959, Note_on_c, 0, 60, 0
1, 144959, Note_on_c, 0, 55, 0
1, 144959, Note_on_c, 0, 76, 0
1, 144959, Note_on_c, 0, 72, 0
1, 144959, Note_on_c, 0, 64, 0
1, 144960, Note_on_c, 0, 52, 0
1, 144960, End_track
0, 0, End_of_file
