0, 0, Header, 1, 2, 480
1, 0, Start_track
1, 0, Time_signature, 4, 2, 24, 8
1, 0, Key_signature, 0, "major"
1, 0, Tempo, 500000
1, 0, End_track
2, 0, Start_track
2, 0, MIDI_port, 0
2, 0, Note_on_c, 0, 56, 86
2, 0, Note_on_c, 0, 63, 88
2, 4, Note_on_c, 0, 44, 77
2, 11, Note_on_c, 0, 51, 52
2, 12, Note_on_c, 0, 59, 78
2, 31, Note_on_c, 0, 56, 0
2, 48, Note_on_c, 0, 44, 0
2, 64, Control_c, 0, 64, 127
2, 76, Note_on_c, 0, 51, 0
2, 112, Note_on_c, 0, 64, 84
2, 129, Note_on_c, 0, 59, 0
2, 151, Note_on_c, 0, 64, 0
2, 156, Note_on_c, 0, 63, 0
2, 240, Note_on_c, 0, 63, 56
2, 242, Note_on_c, 0, 64, 73
2, 244, Note_on_c, 0, 59, 52
2, 244, Note_on_c, 0, 32, 85
2, 252, Note_on_c, 0, 44, 67
2, 280, Note_on_c, 0, 32, 0
2, 290, Note_on_c, 0, 44, 0
2, 340, Control_c, 0, 64, 0
2, 372, Note_on_c, 0, 59, 0
2, 372, Note_on_c, 0, 63, 0
2, 372, Note_on_c, 0, 65, 84
2, 386, Note_on_c, 0, 64, 0
2, 412, Note_on_c, 0, 65, 0
2, 477, Note_on_c, 0, 65, 93
2, 484, Note_on_c, 0, 59, 46
2, 492, Note_on_c, 0, 51, 78
2, 494, Note_on_c, 0, 39, 75
2, 506, Note_on_c, 0, 63, 30
2, 530, Note_on_c, 0, 39, 0
2, 532, Note_on_c, 0, 51, 0
2, 576, Note_on_c, 0, 63, 0
2, 595, Note_on_c, 0, 66, 89
2, 604, Note_on_c, 0, 59, 0
2, 624, Note_on_c, 0, 65, 0
2, 645, Note_on_c, 0, 66, 0
2, 720, Note_on_c, 0, 66, 86
2, 724, Note_on_c, 0, 56, 98
2, 734, Note_on_c, 0, 63, 72
2, 738, Note_on_c, 0, 51, 51
2, 739, Note_on_c, 0, 59, 60
2, 741, Note_on_c, 0, 44, 72
2, 756, Note_on_c, 0, 56, 0
2, 784, Note_on_c, 0, 44, 0
2, 787, Control_c, 0, 64, 127
2, 805, Note_on_c, 0, 51, 0
2, 830, Note_on_c, 0, 67, 87
2, 835, Note_on_c, 0, 63, 0
2, 844, Note_on_c, 0, 59, 0
2, 868, Note_on_c, 0, 67, 0
2, 876, Note_on_c, 0, 66, 0
2, 962, Note_on_c, 0, 67, 86
2, 968, Note_on_c, 0, 44, 44
2, 969, Note_on_c, 0, 32, 84
2, 979, Note_on_c, 0, 59, 60
2, 984, Note_on_c, 0, 63, 48
2, 1003, Note_on_c, 0, 32, 0
2, 1023, Note_on_c, 0, 44, 0
2, 1056, Note_on_c, 0, 63, 0
2, 1075, Note_on_c, 0, 59, 0
2, 1082, Note_on_c, 0, 68, 88
2, 1106, Note_on_c, 0, 67, 0
2, 1130, Note_on_c, 0, 68, 0
2, 1200, Note_on_c, 0, 68, 84
2, 1220, Note_on_c, 0, 51, 48
2, 1221, Note_on_c, 0, 39, 61
2, 1226, Note_on_c, 0, 63, 63
2, 1226, Note_on_c, 0, 59, 61
2, 1264, Note_on_c, 0, 39, 0
2, 1279, Control_c, 0, 64, 0
2, 1288, Note_on_c, 0, 59, 0
2, 1290, Note_on_c, 0, 51, 0
2, 1308, Note_on_c, 0, 69, 80
2, 1310, Note_on_c, 0, 63, 0
2, 1344, Note_on_c, 0, 69, 0
2, 1356, Note_on_c, 0, 68, 0
2, 1440, Note_on_c, 0, 69, 68
2, 1444, Note_on_c, 0, 56, 78
2, 1447, Note_on_c, 0, 51, 76
2, 1449, Note_on_c, 0, 63, 90
2, 1452, Note_on_c, 0, 59, 62
2, 1483, Note_on_c, 0, 56, 0
2, 1490, Note_on_c, 0, 59, 0
2, 1490, Note_on_c, 0, 51, 0
2, 1521, Note_on_c, 0, 70, 75
2, 1555, Note_on_c, 0, 63, 0
2, 1564, Note_on_c, 0, 69, 0
2, 1572, Control_c, 0, 64, 127
2, 1617, Note_on_c, 0, 70, 0
2, 1668, Note_on_c, 0, 63, 76
2, 1670, Note_on_c, 0, 70, 107
2, 1673, Note_on_c, 0, 32, 76
2, 1675, Note_on_c, 0, 44, 10
2, 1712, Note_on_c, 0, 32, 0
2, 1718, Note_on_c, 0, 44, 0
2, 1754, Note_on_c, 0, 71, 76
2, 1778, Note_on_c, 0, 63, 0
2, 1795, Note_on_c, 0, 71, 0
2, 1802, Note_on_c, 0, 70, 0
2, 1884, Note_on_c, 0, 71, 76
2, 1893, Note_on_c, 0, 51, 73
2, 1896, Note_on_c, 0, 39, 75
2, 1906, Note_on_c, 0, 63, 52
2, 1917, Note_on_c, 0, 68, 47
2, 1932, Note_on_c, 0, 39, 0
2, 1941, Note_on_c, 0, 51, 0
2, 1982, Note_on_c, 0, 68, 0
2, 1984, Note_on_c, 0, 72, 97
2, 1998, Note_on_c, 0, 63, 0
2, 2016, Control_c, 0, 64, 0
2, 2023, Note_on_c, 0, 72, 0
2, 2025, Note_on_c, 0, 71, 0
2, 2124, Note_on_c, 0, 72, 87
2, 2128, Note_on_c, 0, 56, 73
2, 2136, Note_on_c, 0, 59, 55
2, 2148, Note_on_c, 0, 63, 80
2, 2150, Note_on_c, 0, 51, 44
2, 2152, Note_on_c, 0, 68, 61
2, 2169, Note_on_c, 0, 56, 0
2, 2176, Note_on_c, 0, 59, 0
2, 2220, Note_on_c, 0, 51, 0
2, 2222, Note_on_c, 0, 68, 0
2, 2224, Note_on_c, 0, 73, 88
2, 2227, Note_on_c, 0, 63, 0
2, 2246, Note_on_c, 0, 72, 0
2, 2263, Control_c, 0, 64, 127
2, 2265, Note_on_c, 0, 73, 0
2, 2344, Note_on_c, 0, 73, 79
2, 2359, Note_on_c, 0, 32, 78
2, 2361, Note_on_c, 0, 63, 76
2, 2366, Note_on_c, 0, 44, 62
2, 2376, Note_on_c, 0, 68, 59
2, 2395, Note_on_c, 0, 32, 0
2, 2407, Note_on_c, 0, 44, 0
2, 2445, Note_on_c, 0, 68, 0
2, 2455, Note_on_c, 0, 74, 91
2, 2457, Note_on_c, 0, 63, 0
2, 2488, Note_on_c, 0, 74, 0
2, 2503, Note_on_c, 0, 73, 0
2, 2589, Note_on_c, 0, 74, 77
2, 2596, Note_on_c, 0, 39, 70
2, 2599, Note_on_c, 0, 51, 50
2, 2601, Note_on_c, 0, 68, 62
2, 2606, Note_on_c, 0, 63, 69
2, 2635, Note_on_c, 0, 39, 0
2, 2659, Note_on_c, 0, 63, 0
2, 2668, Note_on_c, 0, 51, 0
2, 2680, Note_on_c, 0, 68, 0
2, 2683, Note_on_c, 0, 75, 89
2, 2736, Note_on_c, 0, 75, 0
2, 2736, Note_on_c, 0, 74, 0
2, 2738, Control_c, 0, 64, 0
2, 2848, Note_on_c, 0, 75, 89
2, 2860, Note_on_c, 0, 63, 83
2, 2865, Note_on_c, 0, 58, 84
2, 2868, Note_on_c, 0, 51, 58
2, 2872, Note_on_c, 0, 70, 78
2, 2925, Note_on_c, 0, 51, 0
2, 2925, Note_on_c, 0, 58, 0
2, 2940, Note_on_c, 0, 70, 0
2, 2947, Note_on_c, 0, 76, 92
2, 2959, Note_on_c, 0, 63, 0
2, 2983, Note_on_c, 0, 76, 0
2, 2985, Control_c, 0, 64, 127
2, 3007, Note_on_c, 0, 75, 0
2, 3084, Note_on_c, 0, 76, 85
2, 3096, Note_on_c, 0, 51, 69
2, 3103, Note_on_c, 0, 70, 76
2, 3103, Note_on_c, 0, 43, 69
2, 3115, Note_on_c, 0, 63, 68
2, 3144, Note_on_c, 0, 43, 0
2, 3151, Note_on_c, 0, 51, 0
2, 3158, Note_on_c, 0, 63, 0
2, 3180, Note_on_c, 0, 70, 0
2, 3187, Note_on_c, 0, 75, 89
2, 3201, Note_on_c, 0, 76, 0
2, 3232, Note_on_c, 0, 75, 0
2, 3340, Note_on_c, 0, 63, 77
2, 3340, Note_on_c, 0, 75, 85
2, 3341, Note_on_c, 0, 58, 83
2, 3348, Note_on_c, 0, 70, 69
2, 3355, Note_on_c, 0, 51, 65
2, 3389, Note_on_c, 0, 58, 0
2, 3400, Note_on_c, 0, 51, 0
2, 3424, Note_on_c, 0, 73, 83
2, 3429, Note_on_c, 0, 70, 0
2, 3436, Note_on_c, 0, 63, 0
2, 3456, Note_on_c, 0, 75, 0
2, 3465, Note_on_c, 0, 73, 0
2, 3477, Control_c, 0, 64, 0
2, 3566, Note_on_c, 0, 63, 67
2, 3566, Note_on_c, 0, 73, 84
2, 3578, Note_on_c, 0, 44, 79
2, 3580, Note_on_c, 0, 51, 58
2, 3583, Note_on_c, 0, 68, 72
2, 3645, Note_on_c, 0, 68, 0
2, 3650, Note_on_c, 0, 51, 0
2, 3655, Note_on_c, 0, 71, 77
2, 3664, Note_on_c, 0, 44, 0
2, 3688, Note_on_c, 0, 63, 0
2, 3691, Control_c, 0, 64, 127
2, 3696, Note_on_c, 0, 71, 0
2, 3703, Note_on_c, 0, 73, 0
2, 3796, Note_on_c, 0, 63, 57
2, 3804, Note_on_c, 0, 68, 70
2, 3811, Note_on_c, 0, 59, 67
2, 3813, Note_on_c, 0, 51, 75
2, 3816, Note_on_c, 0, 71, 65
2, 3847, Note_on_c, 0, 59, 0
2, 3864, Note_on_c, 0, 51, 0
2, 3888, Note_on_c, 0, 68, 0
2, 3900, Note_on_c, 0, 63, 0
2, 3924, Note_on_c, 0, 73, 81
2, 3943, Note_on_c, 0, 71, 0
2, 3962, Note_on_c, 0, 73, 0
2, 4044, Note_on_c, 0, 73, 69
2, 4044, Note_on_c, 0, 68, 68
2, 4051, Note_on_c, 0, 44, 72
2, 4053, Note_on_c, 0, 51, 65
2, 4058, Note_on_c, 0, 63, 73
2, 4089, Note_on_c, 0, 44, 0
2, 4104, Note_on_c, 0, 51, 0
2, 4106, Note_on_c, 0, 68, 0
2, 4149, Note_on_c, 0, 75, 89
2, 4178, Note_on_c, 0, 63, 0
2, 4195, Note_on_c, 0, 75, 0
2, 4197, Note_on_c, 0, 73, 0
2, 4200, Control_c, 0, 64, 0
2, 4308, Note_on_c, 0, 75, 86
2, 4315, Note_on_c, 0, 56, 81
2, 4317, Note_on_c, 0, 49, 69
2, 4317, Note_on_c, 0, 68, 68
2, 4317, Note_on_c, 0, 64, 84
2, 4362, Note_on_c, 0, 49, 0
2, 4373, Note_on_c, 0, 56, 0
2, 4406, Note_on_c, 0, 68, 0
2, 4418, Note_on_c, 0, 73, 89
2, 4435, Note_on_c, 0, 64, 0
2, 4454, Note_on_c, 0, 75, 0
2, 4459, Control_c, 0, 64, 127
2, 4466, Note_on_c, 0, 73, 0
2, 4564, Note_on_c, 0, 73, 81
2, 4567, Note_on_c, 0, 37, 78
2, 4572, Note_on_c, 0, 49, 57
2, 4574, Note_on_c, 0, 68, 61
2, 4578, Note_on_c, 0, 64, 65
2, 4610, Note_on_c, 0, 37, 0
2, 4620, Note_on_c, 0, 49, 0
2, 4639, Note_on_c, 0, 68, 0
2, 4640, Note_on_c, 0, 64, 0
2, 4656, Note_on_c, 0, 71, 80
2, 4692, Note_on_c, 0, 71, 0
2, 4706, Note_on_c, 0, 73, 0
2, 4810, Note_on_c, 0, 56, 64
2, 4812, Note_on_c, 0, 71, 60
2, 4819, Note_on_c, 0, 61, 65
2, 4821, Note_on_c, 0, 49, 60
2, 4824, Note_on_c, 0, 64, 62
2, 4867, Note_on_c, 0, 56, 0
2, 4879, Note_on_c, 0, 49, 0
2, 4884, Note_on_c, 0, 64, 0
2, 4915, Note_on_c, 0, 61, 0
2, 4915, Note_on_c, 0, 70, 92
2, 4927, Note_on_c, 0, 71, 0
2, 4968, Control_c, 0, 64, 0
2, 4980, Note_on_c, 0, 70, 0
2, 5066, Note_on_c, 0, 55, 74
2, 5073, Note_on_c, 0, 51, 64
2, 5076, Note_on_c, 0, 61, 58
2, 5131, Note_on_c, 0, 55, 0
2, 5169, Note_on_c, 0, 51, 0
2, 5174, Note_on_c, 0, 71, 68
2, 5191, Note_on_c, 0, 61, 0
2, 5212, Note_on_c, 0, 71, 0
2, 5229, Control_c, 0, 64, 127
2, 5313, Note_on_c, 0, 61, 45
2, 5316, Note_on_c, 0, 71, 55
2, 5328, Note_on_c, 0, 39, 59
2, 5378, Note_on_c, 0, 39, 0
2, 5404, Note_on_c, 0, 61, 0
2, 5448, Note_on_c, 0, 71, 0
2, 5450, Note_on_c, 0, 70, 90
2, 5500, Note_on_c, 0, 70, 0
2, 5594, Note_on_c, 0, 70, 66
2, 5594, Note_on_c, 0, 55, 62
2, 5601, Note_on_c, 0, 61, 49
2, 5604, Note_on_c, 0, 51, 46
2, 5644, Note_on_c, 0, 55, 0
2, 5666, Note_on_c, 0, 51, 0
2, 5707, Note_on_c, 0, 63, 75
2, 5724, Note_on_c, 0, 70, 0
2, 5738, Note_on_c, 0, 61, 0
2, 5745, Note_on_c, 0, 63, 0
2, 5812, Control_c, 0, 64, 0
2, 5858, Note_on_c, 0, 63, 62
2, 5866, Note_on_c, 0, 56, 90
2, 5869, Note_on_c, 0, 51, 78
2, 5869, Note_on_c, 0, 44, 61
2, 5872, Note_on_c, 0, 59, 78
2, 5912, Note_on_c, 0, 51, 0
2, 5918, Note_on_c, 0, 56, 0
2, 5966, Note_on_c, 0, 64, 89
2, 5978, Note_on_c, 0, 59, 0
2, 5982, Note_on_c, 0, 44, 0
2, 6004, Note_on_c, 0, 64, 0
2, 6012, Control_c, 0, 64, 127
2, 6019, Note_on_c, 0, 63, 0
2, 6100, Note_on_c, 0, 63, 53
2, 6103, Note_on_c, 0, 32, 89
2, 6103, Note_on_c, 0, 64, 79
2, 6110, Note_on_c, 0, 44, 49
2, 6115, Note_on_c, 0, 59, 55
2, 6134, Note_on_c, 0, 32, 0
2, 6158, Note_on_c, 0, 44, 0
2, 6213, Note_on_c, 0, 63, 0
2, 6213, Note_on_c, 0, 65, 79
2, 6223, Note_on_c, 0, 59, 0
2, 6230, Note_on_c, 0, 64, 0
2, 6252, Note_on_c, 0, 65, 0
2, 6324, Note_on_c, 0, 65, 79
2, 6333, Note_on_c, 0, 59, 42
2, 6336, Note_on_c, 0, 51, 82
2, 6338, Note_on_c, 0, 63, 43
2, 6340, Note_on_c, 0, 39, 73
2, 6374, Note_on_c, 0, 51, 0
2, 6379, Note_on_c, 0, 39, 0
2, 6408, Note_on_c, 0, 63, 0
2, 6434, Note_on_c, 0, 66, 83
2, 6451, Note_on_c, 0, 59, 0
2, 6458, Note_on_c, 0, 65, 0
2, 6482, Note_on_c, 0, 66, 0
2, 6504, Control_c, 0, 64, 0
2, 6590, Note_on_c, 0, 66, 65
2, 6597, Note_on_c, 0, 56, 73
2, 6600, Note_on_c, 0, 44, 56
2, 6602, Note_on_c, 0, 51, 40
2, 6638, Note_on_c, 0, 56, 0
2, 6640, Note_on_c, 0, 59, 46
2, 6640, Note_on_c, 0, 63, 35
2, 6669, Note_on_c, 0, 51, 0
2, 6684, Note_on_c, 0, 67, 81
2, 6693, Note_on_c, 0, 44, 0
2, 6700, Note_on_c, 0, 59, 0
2, 6703, Note_on_c, 0, 63, 0
2, 6720, Control_c, 0, 64, 127
2, 6729, Note_on_c, 0, 67, 0
2, 6732, Note_on_c, 0, 66, 0
2, 6854, Note_on_c, 0, 67, 67
2, 6866, Note_on_c, 0, 32, 89
2, 6868, Note_on_c, 0, 44, 76
2, 6868, Note_on_c, 0, 59, 46
2, 6868, Note_on_c, 0, 63, 48
2, 6900, Note_on_c, 0, 32, 0
2, 6904, Note_on_c, 0, 44, 0
2, 6967, Note_on_c, 0, 68, 83
2, 6969, Note_on_c, 0, 59, 0
2, 6998, Note_on_c, 0, 63, 0
2, 7003, Note_on_c, 0, 67, 0
2, 7022, Note_on_c, 0, 68, 0
2, 7104, Note_on_c, 0, 68, 78
2, 7113, Note_on_c, 0, 51, 85
2, 7130, Note_on_c, 0, 39, 61
2, 7142, Note_on_c, 0, 63, 33
2, 7142, Note_on_c, 0, 59, 55
2, 7152, Note_on_c, 0, 51, 0
2, 7173, Note_on_c, 0, 39, 0
2, 7226, Note_on_c, 0, 69, 79
2, 7240, Note_on_c, 0, 59, 0
2, 7252, Note_on_c, 0, 63, 0
2, 7262, Note_on_c, 0, 69, 0
2, 7269, Note_on_c, 0, 68, 0
2, 7288, Control_c, 0, 64, 0
2, 7363, Note_on_c, 0, 69, 75
2, 7377, Note_on_c, 0, 55, 88
2, 7377, Note_on_c, 0, 52, 85
2, 7383, Note_on_c, 0, 43, 63
2, 7392, Note_on_c, 0, 59, 55
2, 7394, Note_on_c, 0, 64, 55
2, 7411, Note_on_c, 0, 55, 0
2, 7413, Note_on_c, 0, 52, 0
2, 7434, Note_on_c, 0, 43, 0
2, 7442, Note_on_c, 0, 59, 0
2, 7468, Note_on_c, 0, 70, 96
2, 7485, Note_on_c, 0, 64, 0
2, 7485, Control_c, 0, 64, 127
2, 7502, Note_on_c, 0, 69, 0
2, 7507, Note_on_c, 0, 70, 0
2, 7608, Note_on_c, 0, 70, 52
2, 7620, Note_on_c, 0, 64, 62
2, 7629, Note_on_c, 0, 31, 61
2, 7634, Note_on_c, 0, 43, 57
2, 7644, Note_on_c, 0, 59, 29
2, 7675, Note_on_c, 0, 31, 0
2, 7680, Note_on_c, 0, 43, 0
2, 7689, Note_on_c, 0, 71, 76
2, 7716, Note_on_c, 0, 59, 0
2, 7730, Note_on_c, 0, 71, 0
2, 7730, Note_on_c, 0, 64, 0
2, 7754, Note_on_c, 0, 70, 0
2, 7838, Note_on_c, 0, 71, 82
2, 7847, Note_on_c, 0, 52, 92
2, 7851, Note_on_c, 0, 40, 38
2, 7855, Note_on_c, 0, 64, 25
2, 7880, Note_on_c, 0, 52, 0
2, 7906, Note_on_c, 0, 40, 0
2, 7912, Note_on_c, 0, 64, 0
2, 7915, Note_on_c, 0, 71, 0
2, 7968, Note_on_c, 0, 72, 106
2, 8013, Note_on_c, 0, 72, 0
2, 8025, Control_c, 0, 64, 0
2, 8092, Note_on_c, 0, 72, 106
2, 8097, Note_on_c, 0, 50, 91
2, 8100, Note_on_c, 0, 59, 84
2, 8102, Note_on_c, 0, 55, 89
2, 8104, Note_on_c, 0, 65, 98
2, 8131, Note_on_c, 0, 59, 0
2, 8136, Note_on_c, 0, 55, 0
2, 8181, Note_on_c, 0, 50, 0
2, 8196, Note_on_c, 0, 65, 0
2, 8198, Note_on_c, 0, 73, 91
2, 8224, Control_c, 0, 64, 127
2, 8227, Note_on_c, 0, 72, 0
2, 8248, Note_on_c, 0, 73, 0
2, 8311, Note_on_c, 0, 73, 97
2, 8328, Note_on_c, 0, 31, 101
2, 8331, Note_on_c, 0, 43, 80
2, 8352, Note_on_c, 0, 65, 82
2, 8356, Note_on_c, 0, 31, 0
2, 8370, Note_on_c, 0, 43, 0
2, 8431, Note_on_c, 0, 74, 97
2, 8462, Note_on_c, 0, 65, 0
2, 8472, Note_on_c, 0, 74, 0
2, 8484, Note_on_c, 0, 73, 0
2, 8556, Note_on_c, 0, 71, 89
2, 8558, Note_on_c, 0, 65, 73
2, 8563, Note_on_c, 0, 55, 94
2, 8563, Note_on_c, 0, 43, 82
2, 8594, Note_on_c, 0, 55, 0
2, 8599, Note_on_c, 0, 43, 0
2, 8625, Note_on_c, 0, 74, 101
2, 8668, Note_on_c, 0, 65, 0
2, 8688, Note_on_c, 0, 71, 0
2, 8839, Control_c, 0, 64, 0
2, 8844, Note_on_c, 0, 75, 100
2, 8851, Note_on_c, 0, 54, 97
2, 8853, Note_on_c, 0, 42, 97
2, 8853, Note_on_c, 0, 66, 92
2, 8856, Note_on_c, 0, 71, 71
2, 8889, Note_on_c, 0, 74, 0
2, 8925, Note_on_c, 0, 71, 0
2, 8983, Note_on_c, 0, 76, 98
2, 9000, Note_on_c, 0, 42, 0
2, 9000, Note_on_c, 0, 54, 0
2, 9014, Note_on_c, 0, 66, 0
2, 9024, Control_c, 0, 64, 127
2, 9052, Note_on_c, 0, 76, 0
2, 9052, Note_on_c, 0, 75, 0
2, 9141, Note_on_c, 0, 76, 92
2, 9144, Note_on_c, 0, 71, 64
2, 9146, Note_on_c, 0, 63, 98
2, 9153, Note_on_c, 0, 54, 83
2, 9163, Note_on_c, 0, 66, 60
2, 9187, Note_on_c, 0, 63, 0
2, 9211, Note_on_c, 0, 54, 0
2, 9225, Note_on_c, 0, 66, 0
2, 9259, Note_on_c, 0, 71, 0
2, 9264, Note_on_c, 0, 75, 82
2, 9273, Note_on_c, 0, 76, 0
2, 9302, Note_on_c, 0, 75, 0
2, 9374, Note_on_c, 0, 75, 74
2, 9376, Note_on_c, 0, 71, 65
2, 9379, Note_on_c, 0, 42, 88
2, 9381, Note_on_c, 0, 54, 82
2, 9388, Note_on_c, 0, 66, 62
2, 9420, Note_on_c, 0, 42, 0
2, 9422, Note_on_c, 0, 54, 0
2, 9477, Note_on_c, 0, 71, 0
2, 9477, Note_on_c, 0, 78, 92
2, 9494, Note_on_c, 0, 66, 0
2, 9523, Note_on_c, 0, 78, 0
2, 9540, Note_on_c, 0, 75, 0
2, 9578, Control_c, 0, 64, 0
2, 9621, Note_on_c, 0, 78, 86
2, 9624, Note_on_c, 0, 70, 91
2, 9626, Note_on_c, 0, 66, 80
2, 9628, Note_on_c, 0, 54, 94
2, 9633, Note_on_c, 0, 64, 96
2, 9669, Note_on_c, 0, 64, 0
2, 9729, Note_on_c, 0, 73, 88
2, 9739, Note_on_c, 0, 54, 0
2, 9746, Control_c, 0, 64, 127
2, 9748, Note_on_c, 0, 66, 0
2, 9763, Note_on_c, 0, 70, 0
2, 9765, Note_on_c, 0, 78, 0
2, 9770, Note_on_c, 0, 73, 0
2, 9861, Note_on_c, 0, 66, 61
2, 9868, Note_on_c, 0, 73, 78
2, 9871, Note_on_c, 0, 42, 82
2, 9878, Note_on_c, 0, 54, 76
2, 9880, Note_on_c, 0, 70, 68
2, 9909, Note_on_c, 0, 42, 0
2, 9919, Note_on_c, 0, 54, 0
2, 9957, Note_on_c, 0, 75, 90
2, 9979, Note_on_c, 0, 70, 0
2, 9988, Note_on_c, 0, 66, 0
2, 10010, Note_on_c, 0, 75, 0
2, 10015, Note_on_c, 0, 73, 0
2, 10094, Note_on_c, 0, 75, 79
2, 10104, Note_on_c, 0, 70, 70
2, 10113, Note_on_c, 0, 54, 75
2, 10120, Note_on_c, 0, 66, 47
2, 10123, Note_on_c, 0, 64, 79
2, 10156, Note_on_c, 0, 64, 0
2, 10173, Note_on_c, 0, 54, 0
2, 10200, Note_on_c, 0, 76, 94
2, 10238, Note_on_c, 0, 66, 0
2, 10240, Note_on_c, 0, 76, 0
2, 10257, Note_on_c, 0, 75, 0
2, 10269, Note_on_c, 0, 70, 0
2, 10300, Control_c, 0, 64, 0
2, 10341, Note_on_c, 0, 76, 97
2, 10353, Note_on_c, 0, 66, 67
2, 10356, Note_on_c, 0, 42, 90
2, 10358, Note_on_c, 0, 54, 84
2, 10360, Note_on_c, 0, 71, 70
2, 10394, Note_on_c, 0, 42, 0
2, 10401, Note_on_c, 0, 54, 0
2, 10440, Note_on_c, 0, 75, 92
2, 10468, Note_on_c, 0, 66, 0
2, 10468, Control_c, 0, 64, 127
2, 10473, Note_on_c, 0, 76, 0
2, 10478, Note_on_c, 0, 71, 0
2, 10509, Note_on_c, 0, 75, 0
2, 10572, Note_on_c, 0, 71, 66
2, 10581, Note_on_c, 0, 75, 88
2, 10593, Note_on_c, 0, 63, 90
2, 10612, Note_on_c, 0, 54, 71
2, 10622, Note_on_c, 0, 66, 42
2, 10629, Note_on_c, 0, 63, 0
2, 10641, Note_on_c, 0, 71, 0
2, 10660, Note_on_c, 0, 54, 0
2, 10687, Note_on_c, 0, 66, 0
2, 10706, Note_on_c, 0, 80, 83
2, 10744, Note_on_c, 0, 80, 0
2, 10761, Note_on_c, 0, 75, 0
2, 10838, Note_on_c, 0, 42, 88
2, 10840, Note_on_c, 0, 80, 84
2, 10845, Note_on_c, 0, 54, 78
2, 10850, Note_on_c, 0, 66, 59
2, 10876, Note_on_c, 0, 42, 0
2, 10886, Note_on_c, 0, 54, 0
2, 10929, Note_on_c, 0, 66, 0
2, 10956, Note_on_c, 0, 78, 88
2, 10989, Note_on_c, 0, 80, 0
2, 11037, Note_on_c, 0, 78, 0
2, 11052, Control_c, 0, 64, 0
2, 11107, Note_on_c, 0, 78, 97
2, 11121, Note_on_c, 0, 64, 78
2, 11121, Note_on_c, 0, 66, 76
2, 11126, Note_on_c, 0, 54, 62
2, 11140, Note_on_c, 0, 70, 63
2, 11172, Note_on_c, 0, 64, 0
2, 11236, Control_c, 0, 64, 127
2, 11239, Note_on_c, 0, 73, 83
2, 11241, Note_on_c, 0, 54, 0
2, 11248, Note_on_c, 0, 66, 0
2, 11260, Note_on_c, 0, 78, 0
2, 11263, Note_on_c, 0, 70, 0
2, 11275, Note_on_c, 0, 73, 0
2, 11376, Note_on_c, 0, 73, 53
2, 11395, Note_on_c, 0, 70, 73
2, 11395, Note_on_c, 0, 54, 65
2, 11395, Note_on_c, 0, 42, 68
2, 11395, Note_on_c, 0, 64, 75
2, 11436, Note_on_c, 0, 42, 0
2, 11443, Note_on_c, 0, 54, 0
2, 11479, Note_on_c, 0, 64, 0
2, 11503, Note_on_c, 0, 75, 68
2, 11520, Note_on_c, 0, 70, 0
2, 11534, Note_on_c, 0, 73, 0
2, 11548, Note_on_c, 0, 75, 0
2, 11635, Note_on_c, 0, 75, 50
2, 11640, Note_on_c, 0, 70, 59
2, 11642, Note_on_c, 0, 61, 60
2, 11644, Note_on_c, 0, 54, 26
2, 11646, Note_on_c, 0, 64, 67
2, 11708, Note_on_c, 0, 54, 0
2, 11731, Note_on_c, 0, 61, 0
2, 11747, Note_on_c, 0, 64, 0
2, 11757, Note_on_c, 0, 76, 70
2, 11788, Note_on_c, 0, 75, 0
2, 11798, Note_on_c, 0, 76, 0
2, 11808, Note_on_c, 0, 70, 0
2, 11868, Control_c, 0, 64, 0
2, 11923, Note_on_c, 0, 76, 65
2, 11928, Note_on_c, 0, 59, 41
2, 11928, Note_on_c, 0, 71, 46
2, 11932, Note_on_c, 0, 54, 35
2, 11932, Note_on_c, 0, 47, 41
2, 11935, Note_on_c, 0, 63, 55
2, 12002, Note_on_c, 0, 63, 0
2, 12016, Note_on_c, 0, 54, 0
2, 12022, Note_on_c, 0, 59, 0
2, 12024, Note_on_c, 0, 47, 0
2, 12033, Note_on_c, 0, 76, 0
2, 12036, Control_c, 0, 64, 127
2, 12036, Note_on_c, 0, 75, 67
2, 12043, Note_on_c, 0, 71, 0
2, 12081, Note_on_c, 0, 75, 0
2, 12182, Note_on_c, 0, 75, 61
2, 12184, Note_on_c, 0, 63, 66
2, 12196, Note_on_c, 0, 59, 55
2, 12202, Note_on_c, 0, 47, 28
2, 12204, Note_on_c, 0, 54, 51
2, 12247, Note_on_c, 0, 59, 0
2, 12260, Note_on_c, 0, 47, 0
2, 12262, Note_on_c, 0, 54, 0
2, 12271, Note_on_c, 0, 63, 0
2, 12302, Note_on_c, 0, 71, 57
2, 12312, Note_on_c, 0, 75, 0
2, 12338, Note_on_c, 0, 71, 0
2, 12432, Note_on_c, 0, 71, 59
2, 12450, Note_on_c, 0, 55, 46
2, 12452, Note_on_c, 0, 47, 46
2, 12454, Note_on_c, 0, 59, 51
2, 12470, Note_on_c, 0, 64, 58
2, 12500, Note_on_c, 0, 47, 0
2, 12502, Note_on_c, 0, 59, 0
2, 12506, Note_on_c, 0, 55, 0
2, 12530, Note_on_c, 0, 64, 0
2, 12547, Note_on_c, 0, 71, 0
2, 12549, Note_on_c, 0, 67, 80
2, 12590, Note_on_c, 0, 67, 0
2, 12667, Control_c, 0, 64, 0
2, 12691, Note_on_c, 0, 67, 70
2, 12705, Note_on_c, 0, 59, 55
2, 12712, Note_on_c, 0, 63, 53
2, 12715, Note_on_c, 0, 54, 54
2, 12727, Note_on_c, 0, 47, 42
2, 12796, Note_on_c, 0, 47, 0
2, 12801, Note_on_c, 0, 59, 0
2, 12804, Note_on_c, 0, 66, 76
2, 12806, Note_on_c, 0, 54, 0
2, 12820, Note_on_c, 0, 67, 0
2, 12828, Note_on_c, 0, 63, 0
2, 12844, Note_on_c, 0, 66, 0
2, 12866, Control_c, 0, 64, 127
2, 12928, Note_on_c, 0, 66, 66
2, 12943, Note_on_c, 0, 63, 35
2, 12952, Note_on_c, 0, 59, 52
2, 12956, Note_on_c, 0, 54, 51
2, 12960, Note_on_c, 0, 47, 35
2, 13000, Note_on_c, 0, 59, 0
2, 13009, Note_on_c, 0, 54, 0
2, 13013, Note_on_c, 0, 47, 0
2, 13053, Note_on_c, 0, 71, 62
2, 13058, Note_on_c, 0, 66, 0
2, 13077, Note_on_c, 0, 63, 0
2, 13092, Note_on_c, 0, 71, 0
2, 13197, Note_on_c, 0, 71, 55
2, 13202, Note_on_c, 0, 47, 49
2, 13202, Note_on_c, 0, 59, 50
2, 13206, Note_on_c, 0, 55, 51
2, 13208, Note_on_c, 0, 64, 70
2, 13248, Note_on_c, 0, 47, 0
2, 13252, Note_on_c, 0, 59, 0
2, 13256, Note_on_c, 0, 55, 0
2, 13304, Note_on_c, 0, 64, 0
2, 13315, Note_on_c, 0, 71, 0
2, 13315, Note_on_c, 0, 67, 73
2, 13365, Note_on_c, 0, 67, 0
2, 13404, Control_c, 0, 64, 0
2, 13454, Note_on_c, 0, 63, 62
2, 13459, Note_on_c, 0, 59, 53
2, 13459, Note_on_c, 0, 66, 60
2, 13468, Note_on_c, 0, 54, 49
2, 13476, Note_on_c, 0, 47, 43
2, 13514, Note_on_c, 0, 59, 0
2, 13536, Note_on_c, 0, 54, 0
2, 13540, Note_on_c, 0, 47, 0
2, 13555, Note_on_c, 0, 71, 58
2, 13588, Control_c, 0, 64, 127
2, 13596, Note_on_c, 0, 66, 0
2, 13598, Note_on_c, 0, 63, 0
2, 13600, Note_on_c, 0, 71, 0
2, 13712, Note_on_c, 0, 59, 48
2, 13720, Note_on_c, 0, 71, 55
2, 13725, Note_on_c, 0, 52, 53
2, 13726, Note_on_c, 0, 55, 30
2, 13730, Note_on_c, 0, 64, 66
2, 13788, Note_on_c, 0, 55, 0
2, 13790, Note_on_c, 0, 52, 0
2, 13802, Note_on_c, 0, 64, 0
2, 13808, Note_on_c, 0, 59, 0
2, 13850, Note_on_c, 0, 71, 0
2, 13869, Note_on_c, 0, 67, 64
2, 13924, Note_on_c, 0, 67, 0
2, 13958, Control_c, 0, 64, 0
2, 13987, Note_on_c, 0, 59, 53
2, 13989, Note_on_c, 0, 63, 59
2, 13994, Note_on_c, 0, 66, 62
2, 13996, Note_on_c, 0, 54, 55
2, 14000, Note_on_c, 0, 47, 35
2, 14059, Note_on_c, 0, 59, 0
2, 14072, Note_on_c, 0, 47, 0
2, 14088, Note_on_c, 0, 54, 0
2, 14088, Note_on_c, 0, 66, 0
2, 14114, Note_on_c, 0, 63, 0
2, 14114, Note_on_c, 0, 71, 43
2, 14143, Control_c, 0, 64, 127
2, 14160, Note_on_c, 0, 71, 0
2, 14220, Control_c, 0, 64, 0
2, 14241, Note_on_c, 0, 71, 64
2, 14265, Note_on_c, 0, 64, 58
2, 14268, Note_on_c, 0, 52, 44
2, 14268, Note_on_c, 0, 59, 50
2, 14274, Note_on_c, 0, 55, 49
2, 14332, Note_on_c, 0, 55, 0
2, 14340, Note_on_c, 0, 52, 0
2, 14359, Note_on_c, 0, 59, 0
2, 14371, Note_on_c, 0, 64, 0
2, 14388, Note_on_c, 0, 71, 0
2, 14390, Control_c, 0, 64, 127
2, 14407, Note_on_c, 0, 67, 56
2, 14491, Note_on_c, 0, 67, 0
2, 14527, Control_c, 0, 64, 0
2, 14539, Note_on_c, 0, 66, 58
2, 14548, Note_on_c, 0, 59, 36
2, 14551, Note_on_c, 0, 62, 43
2, 14560, Note_on_c, 0, 54, 42
2, 14563, Note_on_c, 0, 47, 38
2, 14632, Note_on_c, 0, 47, 0
2, 14640, Note_on_c, 0, 59, 0
2, 14640, Note_on_c, 0, 54, 0
2, 14644, Note_on_c, 0, 62, 0
2, 14673, Note_on_c, 0, 66, 0
2, 14680, Control_c, 0, 64, 127
2, 14680, Note_on_c, 0, 71, 49
2, 14726, Note_on_c, 0, 71, 0
2, 14817, Control_c, 0, 64, 0
2, 14824, Note_on_c, 0, 71, 47
2, 14832, Note_on_c, 0, 59, 42
2, 14840, Note_on_c, 0, 64, 40
2, 14848, Note_on_c, 0, 55, 22
2, 14853, Note_on_c, 0, 52, 49
2, 14913, Note_on_c, 0, 52, 0
2, 14913, Note_on_c, 0, 59, 0
2, 14916, Note_on_c, 0, 64, 0
2, 14922, Note_on_c, 0, 55, 0
2, 14988, Control_c, 0, 64, 127
2, 15000, Note_on_c, 0, 71, 0
2, 15021, Note_on_c, 0, 67, 49
2, 15074, Note_on_c, 0, 67, 0
2, 15194, Note_on_c, 0, 71, 100
2, 15194, Note_on_c, 0, 64, 105
2, 15199, Note_on_c, 0, 67, 100
2, 15201, Note_on_c, 0, 59, 95
2, 15206, Note_on_c, 0, 54, 85
2, 15213, Note_on_c, 0, 47, 79
2, 15304, Note_on_c, 0, 59, 0
2, 15336, Note_on_c, 0, 64, 0
2, 15345, Note_on_c, 0, 54, 0
2, 15364, Note_on_c, 0, 47, 0
2, 15364, Note_on_c, 0, 62, 76
2, 15372, Note_on_c, 0, 66, 81
2, 15388, Note_on_c, 0, 67, 0
2, 15410, Note_on_c, 0, 62, 0
2, 15424, Note_on_c, 0, 66, 0
2, 15492, Note_on_c, 0, 67, 68
2, 15523, Note_on_c, 0, 62, 73
2, 15530, Note_on_c, 0, 35, 83
2, 15537, Note_on_c, 0, 47, 56
2, 15544, Note_on_c, 0, 66, 86
2, 15556, Note_on_c, 0, 35, 0
2, 15566, Note_on_c, 0, 62, 0
2, 15578, Note_on_c, 0, 47, 0
2, 15616, Control_c, 0, 64, 0
2, 15619, Note_on_c, 0, 67, 0
2, 15664, Note_on_c, 0, 66, 0
2, 15674, Note_on_c, 0, 64, 95
2, 15681, Note_on_c, 0, 61, 88
2, 15787, Note_on_c, 0, 61, 0
2, 15854, Note_on_c, 0, 66, 94
2, 15859, Note_on_c, 0, 62, 85
2, 15861, Note_on_c, 0, 54, 96
2, 15873, Note_on_c, 0, 64, 0
2, 15873, Note_on_c, 0, 47, 79
2, 16063, Control_c, 0, 64, 127
2, 16082, Note_on_c, 0, 71, 0
2, 16101, Note_on_c, 0, 62, 0
2, 16168, Note_on_c, 0, 66, 0
2, 16216, Control_c, 0, 64, 0
2, 16233, Note_on_c, 0, 71, 94
2, 16233, Note_on_c, 0, 67, 101
2, 16240, Note_on_c, 0, 64, 97
2, 16252, Note_on_c, 0, 59, 96
2, 16274, Note_on_c, 0, 64, 0
2, 16298, Note_on_c, 0, 54, 0
2, 16341, Note_on_c, 0, 67, 0
2, 16346, Note_on_c, 0, 59, 0
2, 16370, Control_c, 0, 64, 127
2, 16370, Note_on_c, 0, 66, 86
2, 16372, Note_on_c, 0, 47, 0
2, 16380, Note_on_c, 0, 62, 69
2, 16425, Note_on_c, 0, 62, 0
2, 16428, Note_on_c, 0, 66, 0
2, 16461, Control_c, 0, 64, 0
2, 16500, Note_on_c, 0, 67, 95
2, 16504, Note_on_c, 0, 62, 71
2, 16519, Note_on_c, 0, 35, 78
2, 16520, Note_on_c, 0, 47, 54
2, 16548, Note_on_c, 0, 35, 0
2, 16548, Note_on_c, 0, 66, 76
2, 16561, Note_on_c, 0, 47, 0
2, 16562, Note_on_c, 0, 62, 0
2, 16624, Note_on_c, 0, 67, 0
2, 16658, Note_on_c, 0, 66, 0
2, 16660, Note_on_c, 0, 64, 97
2, 16663, Note_on_c, 0, 61, 86
2, 16737, Note_on_c, 0, 61, 0
2, 16783, Note_on_c, 0, 64, 0
2, 16831, Note_on_c, 0, 66, 96
2, 16840, Note_on_c, 0, 62, 90
2, 16845, Note_on_c, 0, 54, 92
2, 16860, Note_on_c, 0, 47, 64
2, 16939, Control_c, 0, 64, 127
2, 17008, Note_on_c, 0, 62, 0
2, 17078, Note_on_c, 0, 71, 0
2, 17085, Note_on_c, 0, 54, 0
2, 17095, Note_on_c, 0, 66, 0
2, 17236, Note_on_c, 0, 71, 100
2, 17239, Note_on_c, 0, 47, 0
2, 17239, Note_on_c, 0, 68, 97
2, 17244, Note_on_c, 0, 62, 100
2, 17260, Note_on_c, 0, 59, 95
2, 17270, Note_on_c, 0, 52, 85
2, 17354, Control_c, 0, 64, 0
2, 17460, Note_on_c, 0, 62, 0
2, 17505, Note_on_c, 0, 71, 0
2, 17510, Note_on_c, 0, 73, 86
2, 17522, Note_on_c, 0, 59, 0
2, 17522, Control_c, 0, 64, 127
2, 17536, Note_on_c, 0, 64, 100
2, 17553, Note_on_c, 0, 52, 0
2, 17575, Note_on_c, 0, 68, 0
2, 17601, Note_on_c, 0, 73, 0
2, 17601, Note_on_c, 0, 64, 0
2, 17690, Note_on_c, 0, 73, 88
2, 17695, Note_on_c, 0, 64, 92
2, 17704, Note_on_c, 0, 68, 75
2, 17712, Note_on_c, 0, 40, 98
2, 17716, Note_on_c, 0, 52, 83
2, 17738, Note_on_c, 0, 40, 0
2, 17745, Note_on_c, 0, 68, 0
2, 17750, Note_on_c, 0, 64, 0
2, 17760, Note_on_c, 0, 52, 0
2, 17805, Note_on_c, 0, 73, 0
2, 17820, Note_on_c, 0, 68, 72
2, 17832, Note_on_c, 0, 62, 93
2, 17832, Note_on_c, 0, 71, 85
2, 17884, Note_on_c, 0, 62, 0
2, 17906, Note_on_c, 0, 71, 0
2, 17923, Note_on_c, 0, 68, 0
2, 17973, Note_on_c, 0, 62, 70
2, 17973, Note_on_c, 0, 59, 74
2, 17978, Note_on_c, 0, 71, 88
2, 17985, Note_on_c, 0, 68, 84
2, 17997, Note_on_c, 0, 52, 74
2, 18014, Note_on_c, 0, 59, 0
2, 18019, Note_on_c, 0, 62, 0
2, 18028, Note_on_c, 0, 68, 0
2, 18040, Note_on_c, 0, 52, 0
2, 18045, Note_on_c, 0, 71, 0
2, 18100, Note_on_c, 0, 73, 97
2, 18122, Note_on_c, 0, 64, 79
2, 18156, Note_on_c, 0, 73, 0
2, 18168, Control_c, 0, 64, 0
2, 18175, Note_on_c, 0, 64, 0
2, 18182, Note_on_c, 0, 45, 88
2, 18230, Note_on_c, 0, 52, 75
2, 18247, Note_on_c, 0, 57, 96
2, 18259, Note_on_c, 0, 69, 99
2, 18259, Note_on_c, 0, 62, 100
2, 18264, Note_on_c, 0, 65, 103
2, 18280, Note_on_c, 0, 57, 0
2, 18302, Note_on_c, 0, 52, 0
2, 18307, Note_on_c, 0, 62, 0
2, 18336, Note_on_c, 0, 45, 0
2, 18350, Note_on_c, 0, 65, 0
2, 18369, Control_c, 0, 64, 127
2, 18396, Note_on_c, 0, 60, 91
2, 18403, Note_on_c, 0, 64, 94
2, 18417, Note_on_c, 0, 60, 81
2, 18439, Note_on_c, 0, 60, 0
2, 18447, Note_on_c, 0, 64, 0
2, 18462, Note_on_c, 0, 60, 0
2, 18551, Note_on_c, 0, 65, 85
2, 18570, Control_c, 0, 64, 0
2, 18573, Note_on_c, 0, 60, 78
2, 18580, Note_on_c, 0, 69, 0
2, 18580, Note_on_c, 0, 45, 94
2, 18582, Note_on_c, 0, 33, 96
2, 18592, Note_on_c, 0, 64, 82
2, 18611, Note_on_c, 0, 33, 0
2, 18642, Note_on_c, 0, 60, 0
2, 18654, Note_on_c, 0, 45, 0
2, 18683, Note_on_c, 0, 65, 0
2, 18709, Control_c, 0, 64, 127
2, 18719, Note_on_c, 0, 62, 94
2, 18733, Note_on_c, 0, 59, 77
2, 18736, Note_on_c, 0, 64, 0
2, 18774, Note_on_c, 0, 59, 0
2, 18832, Note_on_c, 0, 62, 0
2, 18834, Control_c, 0, 64, 0
2, 18868, Note_on_c, 0, 64, 88
2, 18880, Note_on_c, 0, 52, 93
2, 18880, Note_on_c, 0, 45, 78
2, 18880, Note_on_c, 0, 60, 87
2, 19079, Control_c, 0, 64, 127
2, 19093, Note_on_c, 0, 60, 0
2, 19216, Control_c, 0, 64, 0
2, 19233, Note_on_c, 0, 64, 0
2, 19240, Note_on_c, 0, 69, 104
2, 19240, Note_on_c, 0, 65, 99
2, 19242, Note_on_c, 0, 62, 90
2, 19257, Note_on_c, 0, 57, 99
2, 19307, Note_on_c, 0, 62, 0
2, 19350, Note_on_c, 0, 52, 0
2, 19350, Note_on_c, 0, 57, 0
2, 19379, Note_on_c, 0, 65, 0
2, 19389, Note_on_c, 0, 64, 95
2, 19393, Note_on_c, 0, 60, 82
2, 19401, Control_c, 0, 64, 127
2, 19408, Note_on_c, 0, 45, 0
2, 19437, Note_on_c, 0, 60, 0
2, 19458, Note_on_c, 0, 64, 0
2, 19494, Control_c, 0, 64, 0
2, 19511, Note_on_c, 0, 65, 94
2, 19528, Note_on_c, 0, 60, 68
2, 19540, Note_on_c, 0, 45, 81
2, 19542, Note_on_c, 0, 33, 96
2, 19549, Note_on_c, 0, 64, 85
2, 19571, Note_on_c, 0, 33, 0
2, 19576, Note_on_c, 0, 45, 0
2, 19585, Note_on_c, 0, 60, 0
2, 19609, Note_on_c, 0, 65, 0
2, 19662, Control_c, 0, 64, 127
2, 19674, Note_on_c, 0, 62, 94
2, 19679, Note_on_c, 0, 59, 84
2, 19686, Note_on_c, 0, 64, 0
2, 19732, Note_on_c, 0, 59, 0
2, 19758, Note_on_c, 0, 62, 0
2, 19785, Control_c, 0, 64, 0
2, 19823, Note_on_c, 0, 64, 86
2, 19835, Note_on_c, 0, 52, 90
2, 19837, Note_on_c, 0, 60, 83
2, 19837, Note_on_c, 0, 45, 82
2, 20015, Control_c, 0, 64, 127
2, 20068, Note_on_c, 0, 60, 0
2, 20094, Note_on_c, 0, 69, 0
2, 20099, Note_on_c, 0, 64, 0
2, 20181, Note_on_c, 0, 52, 0
2, 20200, Control_c, 0, 64, 0
2, 20214, Note_on_c, 0, 69, 103
2, 20217, Note_on_c, 0, 66, 92
2, 20224, Note_on_c, 0, 57, 90
2, 20226, Note_on_c, 0, 60, 92
2, 20241, Note_on_c, 0, 50, 81
2, 20322, Note_on_c, 0, 60, 0
2, 20382, Note_on_c, 0, 69, 0
2, 20385, Control_c, 0, 64, 127
2, 20387, Note_on_c, 0, 57, 0
2, 20397, Note_on_c, 0, 66, 0
2, 20416, Note_on_c, 0, 71, 87
2, 20418, Note_on_c, 0, 50, 0
2, 20433, Note_on_c, 0, 62, 87
2, 20466, Note_on_c, 0, 45, 0
2, 20473, Note_on_c, 0, 62, 0
2, 20512, Note_on_c, 0, 71, 0
2, 20577, Note_on_c, 0, 71, 92
2, 20579, Note_on_c, 0, 62, 71
2, 20584, Note_on_c, 0, 66, 82
2, 20589, Note_on_c, 0, 50, 80
2, 20591, Note_on_c, 0, 38, 94
2, 20617, Note_on_c, 0, 71, 0
2, 20620, Note_on_c, 0, 38, 0
2, 20629, Note_on_c, 0, 50, 0
2, 20629, Note_on_c, 0, 66, 0
2, 20632, Note_on_c, 0, 62, 0
2, 20711, Note_on_c, 0, 66, 64
2, 20713, Note_on_c, 0, 69, 94
2, 20725, Note_on_c, 0, 60, 81
2, 20771, Note_on_c, 0, 60, 0
2, 20788, Note_on_c, 0, 69, 0
2, 20788, Note_on_c, 0, 66, 0
2, 20848, Note_on_c, 0, 57, 91
2, 20857, Note_on_c, 0, 60, 72
2, 20857, Note_on_c, 0, 69, 101
2, 20857, Note_on_c, 0, 50, 78
2, 20862, Note_on_c, 0, 66, 78
2, 20903, Note_on_c, 0, 60, 0
2, 20903, Note_on_c, 0, 57, 0
2, 20908, Note_on_c, 0, 69, 0
2, 20913, Note_on_c, 0, 66, 0
2, 20949, Note_on_c, 0, 50, 0
2, 20999, Note_on_c, 0, 71, 86
2, 21009, Note_on_c, 0, 62, 81
2, 21030, Note_on_c, 0, 71, 0
2, 21030, Control_c, 0, 64, 0
2, 21035, Note_on_c, 0, 43, 84
2, 21054, Note_on_c, 0, 62, 0
2, 21105, Note_on_c, 0, 50, 44
2, 21138, Note_on_c, 0, 55, 101
2, 21150, Note_on_c, 0, 60, 102
2, 21153, Note_on_c, 0, 67, 102
2, 21162, Note_on_c, 0, 64, 98
2, 21217, Note_on_c, 0, 60, 0
2, 21225, Note_on_c, 0, 55, 0
2, 21251, Note_on_c, 0, 50, 0
2, 21275, Control_c, 0, 64, 127
2, 21287, Note_on_c, 0, 64, 0
2, 21294, Note_on_c, 0, 43, 0
2, 21297, Note_on_c, 0, 59, 75
2, 21309, Note_on_c, 0, 62, 78
2, 21342, Note_on_c, 0, 59, 0
2, 21352, Note_on_c, 0, 62, 0
2, 21414, Control_c, 0, 64, 0
2, 21438, Note_on_c, 0, 64, 100
2, 21460, Note_on_c, 0, 31, 99
2, 21465, Note_on_c, 0, 43, 87
2, 21467, Note_on_c, 0, 59, 60
2, 21480, Note_on_c, 0, 62, 60
2, 21486, Note_on_c, 0, 31, 0
2, 21501, Note_on_c, 0, 43, 0
2, 21515, Note_on_c, 0, 59, 0
2, 21575, Note_on_c, 0, 64, 0
2, 21585, Control_c, 0, 64, 127
2, 21590, Note_on_c, 0, 62, 0
2, 21621, Note_on_c, 0, 60, 84
2, 21625, Note_on_c, 0, 57, 88
2, 21673, Note_on_c, 0, 57, 0
2, 21676, Control_c, 0, 64, 0
2, 21791, Note_on_c, 0, 60, 0
2, 21820, Note_on_c, 0, 62, 78
2, 21820, Note_on_c, 0, 43, 51
2, 21829, Note_on_c, 0, 59, 69
2, 21834, Note_on_c, 0, 55, 52
2, 21839, Note_on_c, 0, 50, 57
2, 21954, Note_on_c, 0, 59, 0
2, 21966, Note_on_c, 0, 43, 0
2, 21973, Note_on_c, 0, 50, 0
2, 21981, Note_on_c, 0, 62, 0
2, 21985, Note_on_c, 0, 55, 0
2, 21997, Control_c, 0, 64, 127
2, 22024, Note_on_c, 0, 67, 0
2, 22230, Note_on_c, 0, 67, 68
2, 22254, Note_on_c, 0, 64, 55
2, 22257, Note_on_c, 0, 55, 41
2, 22259, Note_on_c, 0, 48, 50
2, 22261, Control_c, 0, 64, 0
2, 22319, Note_on_c, 0, 64, 0
2, 22393, Note_on_c, 0, 69, 75
2, 22413, Note_on_c, 0, 67, 0
2, 22420, Note_on_c, 0, 48, 0
2, 22420, Note_on_c, 0, 55, 0
2, 22429, Control_c, 0, 64, 127
2, 22437, Note_on_c, 0, 69, 0
2, 22535, Note_on_c, 0, 69, 69
2, 22537, Control_c, 0, 64, 0
2, 22547, Note_on_c, 0, 64, 65
2, 22551, Note_on_c, 0, 60, 50
2, 22556, Note_on_c, 0, 48, 7
2, 22556, Note_on_c, 0, 55, 31
2, 22621, Note_on_c, 0, 60, 0
2, 22628, Note_on_c, 0, 48, 0
2, 22636, Note_on_c, 0, 64, 0
2, 22650, Note_on_c, 0, 55, 0
2, 22660, Control_c, 0, 64, 127
2, 22672, Note_on_c, 0, 71, 66
2, 22681, Note_on_c, 0, 69, 0
2, 22708, Note_on_c, 0, 71, 0
2, 22780, Note_on_c, 0, 71, 79
2, 22782, Control_c, 0, 64, 0
2, 22799, Note_on_c, 0, 60, 64
2, 22806, Note_on_c, 0, 64, 69
2, 22807, Note_on_c, 0, 55, 35
2, 22811, Note_on_c, 0, 48, 45
2, 22877, Note_on_c, 0, 55, 0
2, 22883, Note_on_c, 0, 60, 0
2, 22900, Note_on_c, 0, 48, 0
2, 22900, Note_on_c, 0, 72, 93
2, 22921, Control_c, 0, 64, 127
2, 22926, Note_on_c, 0, 64, 0
2, 22938, Note_on_c, 0, 72, 0
2, 22955, Note_on_c, 0, 71, 0
2, 23027, Control_c, 0, 64, 0
2, 23029, Note_on_c, 0, 72, 97
2, 23057, Note_on_c, 0, 60, 69
2, 23060, Note_on_c, 0, 48, 60
2, 23067, Note_on_c, 0, 55, 64
2, 23073, Note_on_c, 0, 64, 60
2, 23117, Note_on_c, 0, 48, 0
2, 23125, Note_on_c, 0, 55, 0
2, 23152, Note_on_c, 0, 74, 100
2, 23174, Note_on_c, 0, 60, 0
2, 23181, Control_c, 0, 64, 127
2, 23185, Note_on_c, 0, 64, 0
2, 23197, Note_on_c, 0, 74, 0
2, 23200, Note_on_c, 0, 72, 0
2, 23298, Note_on_c, 0, 74, 92
2, 23305, Control_c, 0, 64, 0
2, 23308, Note_on_c, 0, 64, 65
2, 23308, Note_on_c, 0, 69, 72
2, 23313, Note_on_c, 0, 60, 65
2, 23315, Note_on_c, 0, 48, 59
2, 23322, Note_on_c, 0, 54, 55
2, 23363, Note_on_c, 0, 69, 0
2, 23399, Note_on_c, 0, 60, 0
2, 23409, Note_on_c, 0, 76, 98
2, 23425, Note_on_c, 0, 64, 0
2, 23428, Note_on_c, 0, 54, 0
2, 23428, Note_on_c, 0, 48, 0
2, 23442, Control_c, 0, 64, 127
2, 23447, Note_on_c, 0, 76, 0
2, 23459, Note_on_c, 0, 74, 0
2, 23548, Note_on_c, 0, 76, 93
2, 23550, Control_c, 0, 64, 0
2, 23557, Note_on_c, 0, 64, 68
2, 23565, Note_on_c, 0, 69, 75
2, 23569, Note_on_c, 0, 47, 59
2, 23571, Note_on_c, 0, 59, 56
2, 23571, Note_on_c, 0, 54, 52
2, 23596, Note_on_c, 0, 64, 0
2, 23615, Note_on_c, 0, 69, 0
2, 23629, Note_on_c, 0, 59, 0
2, 23634, Note_on_c, 0, 76, 0
2, 23634, Note_on_c, 0, 54, 0
2, 23639, Note_on_c, 0, 47, 0
2, 23685, Note_on_c, 0, 75, 87
2, 23701, Note_on_c, 0, 63, 74
2, 23704, Control_c, 0, 64, 127
2, 23728, Note_on_c, 0, 75, 0
2, 23745, Note_on_c, 0, 63, 0
2, 23781, Control_c, 0, 64, 0
2, 23860, Note_on_c, 0, 67, 79
2, 23861, Note_on_c, 0, 59, 59
2, 23861, Note_on_c, 0, 64, 59
2, 23862, Note_on_c, 0, 52, 65
2, 23965, Note_on_c, 0, 67, 0
2, 23981, Note_on_c, 0, 64, 0
2, 23982, Note_on_c, 0, 69, 87
2, 23997, Control_c, 0, 64, 127
2, 24000, Note_on_c, 0, 59, 0
2, 24016, Note_on_c, 0, 52, 0
2, 24025, Note_on_c, 0, 69, 0
2, 24129, Note_on_c, 0, 69, 74
2, 24136, Control_c, 0, 64, 0
2, 24138, Note_on_c, 0, 60, 44
2, 24139, Note_on_c, 0, 55, 47
2, 24141, Note_on_c, 0, 48, 64
2, 24145, Note_on_c, 0, 64, 51
2, 24223, Note_on_c, 0, 55, 0
2, 24237, Note_on_c, 0, 48, 0
2, 24241, Control_c, 0, 64, 127
2, 24249, Note_on_c, 0, 60, 0
2, 24253, Note_on_c, 0, 71, 78
2, 24270, Note_on_c, 0, 64, 0
2, 24282, Note_on_c, 0, 69, 0
2, 24292, Note_on_c, 0, 71, 0
2, 24366, Control_c, 0, 64, 0
2, 24381, Note_on_c, 0, 71, 83
2, 24395, Note_on_c, 0, 64, 77
2, 24395, Note_on_c, 0, 60, 64
2, 24398, Note_on_c, 0, 48, 62
2, 24401, Note_on_c, 0, 55, 49
2, 24468, Note_on_c, 0, 55, 0
2, 24470, Note_on_c, 0, 48, 0
2, 24484, Note_on_c, 0, 60, 0
2, 24496, Note_on_c, 0, 72, 99
2, 24503, Control_c, 0, 64, 127
2, 24520, Note_on_c, 0, 64, 0
2, 24532, Note_on_c, 0, 71, 0
2, 24537, Note_on_c, 0, 72, 0
2, 24625, Note_on_c, 0, 72, 102
2, 24628, Control_c, 0, 64, 0
2, 24646, Note_on_c, 0, 60, 79
2, 24656, Note_on_c, 0, 55, 62
2, 24659, Note_on_c, 0, 48, 66
2, 24661, Note_on_c, 0, 64, 77
2, 24741, Note_on_c, 0, 74, 100
2, 24754, Note_on_c, 0, 55, 0
2, 24762, Note_on_c, 0, 48, 0
2, 24765, Control_c, 0, 64, 127
2, 24766, Note_on_c, 0, 60, 0
2, 24779, Note_on_c, 0, 64, 0
2, 24786, Note_on_c, 0, 74, 0
2, 24796, Note_on_c, 0, 72, 0
2, 24873, Control_c, 0, 64, 0
2, 24887, Note_on_c, 0, 74, 99
2, 24892, Note_on_c, 0, 69, 100
2, 24897, Note_on_c, 0, 64, 85
2, 24899, Note_on_c, 0, 60, 81
2, 24909, Note_on_c, 0, 54, 66
2, 24916, Note_on_c, 0, 48, 66
2, 24961, Note_on_c, 0, 60, 0
2, 24976, Note_on_c, 0, 48, 0
2, 24995, Note_on_c, 0, 76, 109
2, 24997, Note_on_c, 0, 54, 0
2, 25000, Note_on_c, 0, 64, 0
2, 25012, Control_c, 0, 64, 127
2, 25019, Note_on_c, 0, 69, 0
2, 25048, Note_on_c, 0, 74, 0
2, 25089, Note_on_c, 0, 76, 0
2, 25117, Control_c, 0, 64, 0
2, 25129, Note_on_c, 0, 76, 102
2, 25141, Note_on_c, 0, 47, 59
2, 25141, Note_on_c, 0, 59, 72
2, 25144, Note_on_c, 0, 69, 89
2, 25192, Note_on_c, 0, 59, 0
2, 25198, Note_on_c, 0, 47, 0
2, 25242, Control_c, 0, 64, 127
2, 25242, Note_on_c, 0, 78, 101
2, 25245, Note_on_c, 0, 75, 90
2, 25281, Note_on_c, 0, 69, 0
2, 25295, Note_on_c, 0, 76, 0
2, 25300, Note_on_c, 0, 75, 0
2, 25333, Control_c, 0, 64, 0
2, 25338, Note_on_c, 0, 78, 0
2, 25402, Note_on_c, 0, 76, 79
2, 25407, Note_on_c, 0, 59, 74
2, 25408, Note_on_c, 0, 79, 103
2, 25410, Note_on_c, 0, 67, 88
2, 25415, Note_on_c, 0, 52, 68
2, 25531, Note_on_c, 0, 59, 0
2, 25547, Note_on_c, 0, 67, 0
2, 25571, Note_on_c, 0, 52, 0
2, 25577, Note_on_c, 0, 76, 0
2, 25578, Control_c, 0, 64, 127
2, 25593, Note_on_c, 0, 79, 0
2, 25691, Note_on_c, 0, 79, 82
2, 25703, Note_on_c, 0, 59, 71
2, 25703, Note_on_c, 0, 76, 80
2, 25705, Note_on_c, 0, 69, 88
2, 25715, Note_on_c, 0, 47, 71
2, 25761, Note_on_c, 0, 76, 0
2, 25765, Note_on_c, 0, 69, 0
2, 25797, Note_on_c, 0, 47, 0
2, 25797, Note_on_c, 0, 59, 0
2, 25818, Note_on_c, 0, 78, 82
2, 25821, Note_on_c, 0, 75, 78
2, 25823, Note_on_c, 0, 79, 0
2, 25878, Note_on_c, 0, 75, 0
2, 25883, Note_on_c, 0, 78, 0
2, 25984, Note_on_c, 0, 78, 86
2, 25991, Note_on_c, 0, 59, 62
2, 25991, Note_on_c, 0, 75, 75
2, 25991, Note_on_c, 0, 67, 92
2, 25993, Control_c, 0, 64, 0
2, 25998, Note_on_c, 0, 52, 80
2, 26109, Note_on_c, 0, 59, 0
2, 26116, Note_on_c, 0, 52, 0
2, 26116, Note_on_c, 0, 79, 80
2, 26118, Note_on_c, 0, 76, 84
2, 26121, Note_on_c, 0, 67, 0
2, 26133, Control_c, 0, 64, 127
2, 26147, Note_on_c, 0, 75, 0
2, 26157, Note_on_c, 0, 79, 0
2, 26159, Note_on_c, 0, 76, 0
2, 26181, Note_on_c, 0, 78, 0
2, 26241, Control_c, 0, 64, 0
2, 26253, Note_on_c, 0, 76, 92
2, 26255, Note_on_c, 0, 79, 93
2, 26260, Note_on_c, 0, 69, 100
2, 26274, Note_on_c, 0, 47, 79
2, 26277, Note_on_c, 0, 59, 74
2, 26334, Note_on_c, 0, 47, 0
2, 26356, Note_on_c, 0, 78, 97
2, 26364, Note_on_c, 0, 75, 92
2, 26368, Note_on_c, 0, 59, 0
2, 26394, Control_c, 0, 64, 127
2, 26399, Note_on_c, 0, 69, 0
2, 26401, Note_on_c, 0, 76, 0
2, 26409, Note_on_c, 0, 75, 0
2, 26413, Note_on_c, 0, 79, 0
2, 26445, Note_on_c, 0, 78, 0
2, 26514, Note_on_c, 0, 75, 76
2, 26517, Note_on_c, 0, 78, 79
2, 26519, Note_on_c, 0, 67, 88
2, 26531, Control_c, 0, 64, 0
2, 26536, Note_on_c, 0, 59, 76
2, 26555, Note_on_c, 0, 52, 78
2, 26608, Control_c, 0, 64, 127
2, 26617, Note_on_c, 0, 76, 91
2, 26620, Note_on_c, 0, 79, 92
2, 26627, Note_on_c, 0, 59, 0
2, 26634, Note_on_c, 0, 75, 0
2, 26639, Note_on_c, 0, 67, 0
2, 26644, Note_on_c, 0, 52, 0
2, 26658, Note_on_c, 0, 76, 0
2, 26675, Note_on_c, 0, 79, 0
2, 26689, Note_on_c, 0, 78, 0
2, 26764, Control_c, 0, 64, 0
2, 26773, Note_on_c, 0, 76, 103
2, 26776, Note_on_c, 0, 79, 95
2, 26776, Note_on_c, 0, 67, 110
2, 26785, Note_on_c, 0, 59, 80
2, 26788, Note_on_c, 0, 47, 91
2, 26802, Note_on_c, 0, 67, 0
2, 26805, Note_on_c, 0, 79, 0
2, 26812, Note_on_c, 0, 59, 0
2, 26814, Note_on_c, 0, 76, 0
2, 26824, Note_on_c, 0, 47, 0
2, 26869, Control_c, 0, 64, 127
2, 26903, Note_on_c, 0, 77, 106
2, 26903, Note_on_c, 0, 68, 105
2, 26905, Note_on_c, 0, 80, 92
2, 26937, Note_on_c, 0, 80, 0
2, 26944, Note_on_c, 0, 77, 0
2, 26946, Note_on_c, 0, 68, 0
2, 26994, Control_c, 0, 64, 0
2, 27035, Note_on_c, 0, 68, 103
2, 27035, Note_on_c, 0, 80, 78
2, 27035, Note_on_c, 0, 77, 103
2, 27047, Note_on_c, 0, 47, 97
2, 27049, Note_on_c, 0, 35, 89
2, 27076, Note_on_c, 0, 35, 0
2, 27088, Note_on_c, 0, 47, 0
2, 27133, Note_on_c, 0, 80, 0
2, 27148, Note_on_c, 0, 68, 0
2, 27155, Note_on_c, 0, 78, 90
2, 27162, Control_c, 0, 64, 127
2, 27189, Note_on_c, 0, 69, 58
2, 27210, Note_on_c, 0, 77, 0
2, 27241, Note_on_c, 0, 69, 0
2, 27265, Note_on_c, 0, 78, 0
2, 27297, Note_on_c, 0, 69, 89
2, 27306, Note_on_c, 0, 81, 66
2, 27313, Note_on_c, 0, 62, 89
2, 27313, Note_on_c, 0, 53, 91
2, 27316, Note_on_c, 0, 78, 79
2, 27322, Note_on_c, 0, 59, 57
2, 27349, Note_on_c, 0, 81, 0
2, 27357, Note_on_c, 0, 78, 0
2, 27361, Note_on_c, 0, 53, 0
2, 27365, Note_on_c, 0, 59, 0
2, 27373, Note_on_c, 0, 62, 0
2, 27381, Note_on_c, 0, 69, 0
2, 27441, Note_on_c, 0, 77, 105
2, 27445, Note_on_c, 0, 68, 98
2, 27457, Note_on_c, 0, 80, 65
2, 27498, Note_on_c, 0, 68, 0
2, 27503, Note_on_c, 0, 80, 0
2, 27510, Note_on_c, 0, 77, 0
2, 27569, Note_on_c, 0, 63, 97
2, 27569, Note_on_c, 0, 54, 76
2, 27575, Note_on_c, 0, 68, 92
2, 27575, Note_on_c, 0, 59, 64
2, 27577, Note_on_c, 0, 77, 111
2, 27580, Note_on_c, 0, 80, 79
2, 27625, Note_on_c, 0, 80, 0
2, 27628, Note_on_c, 0, 59, 0
2, 27637, Note_on_c, 0, 77, 0
2, 27652, Note_on_c, 0, 68, 0
2, 27689, Note_on_c, 0, 63, 0
2, 27700, Note_on_c, 0, 78, 93
2, 27702, Note_on_c, 0, 69, 96
2, 27705, Note_on_c, 0, 81, 98
2, 27729, Note_on_c, 0, 54, 0
2, 27738, Note_on_c, 0, 81, 0
2, 27748, Note_on_c, 0, 69, 0
2, 27772, Note_on_c, 0, 78, 0
2, 27822, Control_c, 0, 64, 0
2, 27834, Note_on_c, 0, 59, 88
2, 27834, Note_on_c, 0, 69, 111
2, 27837, Note_on_c, 0, 78, 102
2, 27837, Note_on_c, 0, 81, 95
2, 27837, Note_on_c, 0, 53, 103
2, 27839, Note_on_c, 0, 62, 106
2, 27870, Note_on_c, 0, 81, 0
2, 27906, Note_on_c, 0, 69, 0
2, 27913, Note_on_c, 0, 78, 0
2, 27961, Control_c, 0, 64, 127
2, 27964, Note_on_c, 0, 68, 103
2, 27969, Note_on_c, 0, 53, 0
2, 27969, Note_on_c, 0, 77, 105
2, 27972, Note_on_c, 0, 80, 19
2, 27973, Note_on_c, 0, 62, 0
2, 28002, Note_on_c, 0, 59, 0
2, 28020, Note_on_c, 0, 80, 0
2, 28026, Note_on_c, 0, 77, 0
2, 28057, Note_on_c, 0, 68, 0
2, 28113, Note_on_c, 0, 63, 100
2, 28113, Note_on_c, 0, 68, 103
2, 28115, Note_on_c, 0, 77, 97
2, 28116, Note_on_c, 0, 59, 79
2, 28119, Note_on_c, 0, 54, 76
2, 28125, Note_on_c, 0, 80, 84
2, 28154, Note_on_c, 0, 59, 0
2, 28161, Note_on_c, 0, 63, 0
2, 28161, Note_on_c, 0, 80, 0
2, 28174, Note_on_c, 0, 54, 0
2, 28187, Note_on_c, 0, 77, 0
2, 28228, Note_on_c, 0, 68, 0
2, 28254, Note_on_c, 0, 81, 92
2, 28257, Note_on_c, 0, 78, 95
2, 28261, Note_on_c, 0, 69, 93
2, 28285, Note_on_c, 0, 81, 0
2, 28300, Note_on_c, 0, 69, 0
2, 28338, Note_on_c, 0, 78, 0
2, 28377, Control_c, 0, 64, 0
2, 28396, Note_on_c, 0, 81, 98
2, 28405, Note_on_c, 0, 69, 100
2, 28411, Note_on_c, 0, 71, 30
2, 28413, Note_on_c, 0, 78, 97
2, 28415, Note_on_c, 0, 35, 100
2, 28417, Note_on_c, 0, 47, 106
2, 28463, Note_on_c, 0, 81, 0
2, 28467, Note_on_c, 0, 71, 0
2, 28473, Note_on_c, 0, 69, 0
2, 28485, Control_c, 0, 64, 127
2, 28513, Note_on_c, 0, 78, 0
2, 28552, Note_on_c, 0, 70, 113
2, 28557, Note_on_c, 0, 82, 113
2, 28566, Note_on_c, 0, 47, 0
2, 28617, Note_on_c, 0, 35, 0
2, 28631, Note_on_c, 0, 70, 0
2, 28653, Note_on_c, 0, 82, 0
2, 28729, Control_c, 0, 64, 0
2, 28768, Note_on_c, 0, 82, 115
2, 28770, Note_on_c, 0, 70, 119
2, 28773, Note_on_c, 0, 78, 101
2, 28775, Note_on_c, 0, 46, 117
2, 28780, Note_on_c, 0, 34, 110
2, 28929, Note_on_c, 0, 34, 0
2, 28936, Note_on_c, 0, 46, 0
2, 28977, Control_c, 0, 64, 127
2, 28986, Note_on_c, 0, 70, 0
2, 28991, Note_on_c, 0, 82, 0
2, 29082, Note_on_c, 0, 78, 0
2, 29125, Note_on_c, 0, 82, 113
2, 29130, Note_on_c, 0, 63, 108
2, 29137, Note_on_c, 0, 78, 99
2, 29140, Note_on_c, 0, 54, 83
2, 29140, Note_on_c, 0, 70, 103
2, 29141, Note_on_c, 0, 58, 76
2, 29281, Note_on_c, 0, 63, 0
2, 29289, Note_on_c, 0, 80, 90
2, 29290, Note_on_c, 0, 58, 0
2, 29293, Note_on_c, 0, 77, 90
2, 29313, Note_on_c, 0, 54, 0
2, 29351, Note_on_c, 0, 78, 0
2, 29353, Note_on_c, 0, 82, 0
2, 29370, Note_on_c, 0, 70, 0
2, 29394, Note_on_c, 0, 80, 0
2, 29399, Note_on_c, 0, 77, 0
2, 29464, Note_on_c, 0, 63, 91
2, 29466, Note_on_c, 0, 82, 100
2, 29466, Note_on_c, 0, 80, 84
2, 29469, Note_on_c, 0, 70, 100
2, 29471, Note_on_c, 0, 66, 86
2, 29476, Note_on_c, 0, 77, 97
2, 29514, Note_on_c, 0, 66, 0
2, 29521, Note_on_c, 0, 77, 0
2, 29553, Note_on_c, 0, 63, 0
2, 29579, Note_on_c, 0, 82, 0
2, 29629, Note_on_c, 0, 78, 91
2, 29649, Note_on_c, 0, 75, 74
2, 29665, Note_on_c, 0, 80, 0
2, 29692, Note_on_c, 0, 70, 0
2, 29692, Note_on_c, 0, 75, 0
2, 29713, Control_c, 0, 64, 0
2, 29716, Note_on_c, 0, 78, 0
2, 29766, Note_on_c, 0, 82, 112
2, 29769, Note_on_c, 0, 70, 100
2, 29773, Note_on_c, 0, 58, 100
2, 29781, Note_on_c, 0, 80, 86
2, 29783, Note_on_c, 0, 77, 95
2, 29785, Note_on_c, 0, 46, 95
2, 29826, Note_on_c, 0, 58, 0
2, 29831, Note_on_c, 0, 46, 0
2, 29898, Control_c, 0, 64, 127
2, 29917, Note_on_c, 0, 82, 0
2, 29927, Note_on_c, 0, 70, 0
2, 29934, Note_on_c, 0, 77, 0
2, 29949, Note_on_c, 0, 80, 0
2, 30040, Note_on_c, 0, 82, 98
2, 30040, Note_on_c, 0, 80, 74
2, 30042, Note_on_c, 0, 77, 80
2, 30045, Note_on_c, 0, 70, 101
2, 30057, Note_on_c, 0, 53, 85
2, 30061, Note_on_c, 0, 62, 74
2, 30085, Note_on_c, 0, 77, 0
2, 30095, Note_on_c, 0, 53, 0
2, 30100, Note_on_c, 0, 62, 0
2, 30105, Note_on_c, 0, 70, 0
2, 30112, Note_on_c, 0, 82, 0
2, 30129, Note_on_c, 0, 80, 0
2, 30177, Note_on_c, 0, 70, 91
2, 30191, Note_on_c, 0, 78, 86
2, 30193, Note_on_c, 0, 75, 81
2, 30229, Note_on_c, 0, 75, 0
2, 30239, Note_on_c, 0, 78, 0
2, 30246, Note_on_c, 0, 70, 0
2, 30333, Note_on_c, 0, 58, 91
2, 30335, Note_on_c, 0, 78, 82
2, 30337, Note_on_c, 0, 70, 97
2, 30340, Note_on_c, 0, 68, 92
2, 30340, Note_on_c, 0, 65, 88
2, 30340, Note_on_c, 0, 75, 70
2, 30345, Note_on_c, 0, 82, 105
2, 30373, Note_on_c, 0, 65, 0
2, 30381, Note_on_c, 0, 68, 0
2, 30429, Note_on_c, 0, 70, 0
2, 30429, Note_on_c, 0, 75, 0
2, 30438, Note_on_c, 0, 58, 0
2, 30443, Note_on_c, 0, 78, 0
2, 30484, Note_on_c, 0, 74, 89
2, 30493, Note_on_c, 0, 77, 85
2, 30512, Note_on_c, 0, 82, 0
2, 30546, Note_on_c, 0, 74, 0
2, 30611, Note_on_c, 0, 77, 0
2, 30635, Control_c, 0, 64, 0
2, 30726, Note_on_c, 0, 70, 100
2, 30726, Note_on_c, 0, 82, 107
2, 30729, Note_on_c, 0, 78, 83
2, 30731, Note_on_c, 0, 51, 92
2, 30731, Note_on_c, 0, 75, 81
2, 30736, Note_on_c, 0, 39, 83
2, 30777, Note_on_c, 0, 39, 0
2, 30781, Note_on_c, 0, 51, 0
2, 30837, Note_on_c, 0, 82, 0
2, 30841, Note_on_c, 0, 75, 0
2, 30849, Note_on_c, 0, 70, 0
2, 30851, Control_c, 0, 64, 127
2, 30863, Note_on_c, 0, 78, 0
2, 31021, Note_on_c, 0, 70, 91
2, 31021, Note_on_c, 0, 78, 84
2, 31036, Note_on_c, 0, 58, 89
2, 31045, Note_on_c, 0, 51, 57
2, 31074, Note_on_c, 0, 70, 0
2, 31127, Note_on_c, 0, 78, 0
2, 31165, Note_on_c, 0, 68, 79
2, 31168, Note_on_c, 0, 77, 88
2, 31204, Note_on_c, 0, 77, 0
2, 31223, Note_on_c, 0, 68, 0
2, 31312, Note_on_c, 0, 68, 75
2, 31314, Note_on_c, 0, 77, 77
2, 31319, Note_on_c, 0, 62, 74
2, 31365, Note_on_c, 0, 68, 0
2, 31386, Note_on_c, 0, 62, 0
2, 31393, Note_on_c, 0, 77, 0
2, 31456, Note_on_c, 0, 75, 81
2, 31480, Note_on_c, 0, 67, 70
2, 31506, Note_on_c, 0, 75, 0
2, 31525, Note_on_c, 0, 67, 0
2, 31557, Control_c, 0, 64, 0
2, 31629, Note_on_c, 0, 63, 82
2, 31633, Note_on_c, 0, 75, 94
2, 31634, Note_on_c, 0, 67, 78
2, 31693, Note_on_c, 0, 63, 0
2, 31700, Note_on_c, 0, 75, 0
2, 31718, Note_on_c, 0, 67, 0
2, 31727, Control_c, 0, 64, 127
2, 31739, Note_on_c, 0, 58, 0
2, 31785, Note_on_c, 0, 51, 0
2, 31919, Note_on_c, 0, 70, 95
2, 31919, Note_on_c, 0, 67, 90
2, 31923, Note_on_c, 0, 39, 75
2, 31923, Note_on_c, 0, 51, 59
2, 31959, Note_on_c, 0, 39, 0
2, 31962, Note_on_c, 0, 67, 0
2, 31980, Note_on_c, 0, 51, 0
2, 32046, Note_on_c, 0, 64, 65
2, 32065, Note_on_c, 0, 70, 0
2, 32092, Note_on_c, 0, 64, 0
2, 32187, Note_on_c, 0, 64, 75
2, 32190, Note_on_c, 0, 71, 81
2, 32193, Note_on_c, 0, 61, 79
2, 32195, Note_on_c, 0, 67, 76
2, 32202, Note_on_c, 0, 51, 70
2, 32236, Note_on_c, 0, 61, 0
2, 32248, Note_on_c, 0, 67, 0
2, 32255, Note_on_c, 0, 51, 0
2, 32303, Note_on_c, 0, 63, 92
2, 32353, Note_on_c, 0, 64, 0
2, 32365, Note_on_c, 0, 71, 0
2, 32399, Note_on_c, 0, 63, 0
2, 32464, Control_c, 0, 64, 0
2, 32466, Note_on_c, 0, 44, 75
2, 32493, Note_on_c, 0, 51, 83
2, 32500, Note_on_c, 0, 63, 83
2, 32505, Note_on_c, 0, 59, 89
2, 32506, Note_on_c, 0, 56, 97
2, 32583, Note_on_c, 0, 56, 0
2, 32593, Note_on_c, 0, 51, 0
2, 32608, Note_on_c, 0, 64, 72
2, 32620, Note_on_c, 0, 59, 0
2, 32634, Control_c, 0, 64, 127
2, 32639, Note_on_c, 0, 44, 0
2, 32646, Note_on_c, 0, 64, 0
2, 32658, Note_on_c, 0, 63, 0
2, 32694, Control_c, 0, 64, 0
2, 32749, Note_on_c, 0, 63, 62
2, 32766, Note_on_c, 0, 32, 90
2, 32776, Note_on_c, 0, 64, 58
2, 32778, Note_on_c, 0, 59, 62
2, 32783, Note_on_c, 0, 44, 42
2, 32802, Note_on_c, 0, 32, 0
2, 32838, Note_on_c, 0, 44, 0
2, 32853, Note_on_c, 0, 65, 76
2, 32865, Control_c, 0, 64, 127
2, 32867, Note_on_c, 0, 59, 0
2, 32884, Note_on_c, 0, 64, 0
2, 32891, Note_on_c, 0, 63, 0
2, 32898, Note_on_c, 0, 65, 0
2, 32925, Control_c, 0, 64, 0
2, 33018, Note_on_c, 0, 65, 58
2, 33025, Note_on_c, 0, 63, 18
2, 33028, Note_on_c, 0, 51, 66
2, 33030, Note_on_c, 0, 39, 60
2, 33040, Note_on_c, 0, 59, 43
2, 33073, Note_on_c, 0, 39, 0
2, 33078, Note_on_c, 0, 51, 0
2, 33095, Control_c, 0, 64, 127
2, 33109, Note_on_c, 0, 63, 0
2, 33119, Note_on_c, 0, 59, 0
2, 33131, Note_on_c, 0, 66, 54
2, 33143, Note_on_c, 0, 65, 0
2, 33179, Note_on_c, 0, 66, 0
2, 33186, Control_c, 0, 64, 0
2, 33258, Note_on_c, 0, 66, 64
2, 33274, Note_on_c, 0, 56, 78
2, 33278, Note_on_c, 0, 51, 35
2, 33285, Note_on_c, 0, 44, 61
2, 33289, Note_on_c, 0, 63, 45
2, 33301, Note_on_c, 0, 59, 58
2, 33313, Note_on_c, 0, 56, 0
2, 33340, Control_c, 0, 64, 127
2, 33341, Note_on_c, 0, 51, 0
2, 33342, Note_on_c, 0, 44, 0
2, 33371, Note_on_c, 0, 67, 67
2, 33388, Note_on_c, 0, 59, 0
2, 33393, Note_on_c, 0, 63, 0
2, 33419, Note_on_c, 0, 66, 0
2, 33419, Note_on_c, 0, 67, 0
2, 33479, Control_c, 0, 64, 0
2, 33517, Note_on_c, 0, 67, 67
2, 33522, Note_on_c, 0, 32, 84
2, 33529, Note_on_c, 0, 44, 59
2, 33544, Note_on_c, 0, 59, 43
2, 33556, Note_on_c, 0, 63, 38
2, 33558, Note_on_c, 0, 32, 0
2, 33570, Note_on_c, 0, 44, 0
2, 33616, Control_c, 0, 64, 127
2, 33633, Note_on_c, 0, 68, 83
2, 33647, Note_on_c, 0, 59, 0
2, 33654, Note_on_c, 0, 63, 0
2, 33659, Note_on_c, 0, 67, 0
2, 33681, Note_on_c, 0, 68, 0
2, 33724, Control_c, 0, 64, 0
2, 33767, Note_on_c, 0, 68, 65
2, 33774, Note_on_c, 0, 51, 64
2, 33786, Note_on_c, 0, 63, 43
2, 33793, Note_on_c, 0, 59, 47
2, 33827, Note_on_c, 0, 51, 0
2, 33858, Note_on_c, 0, 59, 0
2, 33863, Control_c, 0, 64, 127
2, 33875, Note_on_c, 0, 69, 70
2, 33892, Note_on_c, 0, 63, 0
2, 33913, Note_on_c, 0, 69, 0
2, 33921, Note_on_c, 0, 68, 0
2, 33954, Control_c, 0, 64, 0
2, 34007, Note_on_c, 0, 69, 83
2, 34014, Note_on_c, 0, 56, 73
2, 34019, Note_on_c, 0, 63, 84
2, 34019, Note_on_c, 0, 51, 60
2, 34026, Note_on_c, 0, 59, 36
2, 34055, Note_on_c, 0, 56, 0
2, 34067, Note_on_c, 0, 51, 0
2, 34081, Note_on_c, 0, 59, 0
2, 34101, Note_on_c, 0, 70, 93
2, 34108, Control_c, 0, 64, 127
2, 34110, Note_on_c, 0, 63, 0
2, 34137, Note_on_c, 0, 69, 0
2, 34149, Note_on_c, 0, 70, 0
2, 34201, Control_c, 0, 64, 0
2, 34216, Note_on_c, 0, 70, 91
2, 34229, Note_on_c, 0, 63, 72
2, 34233, Note_on_c, 0, 32, 87
2, 34240, Note_on_c, 0, 44, 65
2, 34264, Note_on_c, 0, 32, 0
2, 34281, Note_on_c, 0, 44, 0
2, 34307, Note_on_c, 0, 71, 78
2, 34324, Control_c, 0, 64, 127
2, 34339, Note_on_c, 0, 63, 0
2, 34367, Note_on_c, 0, 71, 0
2, 34369, Note_on_c, 0, 70, 0
2, 34432, Control_c, 0, 64, 0
2, 34451, Note_on_c, 0, 71, 86
2, 34458, Note_on_c, 0, 51, 92
2, 34461, Note_on_c, 0, 39, 89
2, 34470, Note_on_c, 0, 63, 66
2, 34494, Note_on_c, 0, 39, 0
2, 34494, Note_on_c, 0, 51, 0
2, 34499, Note_on_c, 0, 68, 47
2, 34554, Control_c, 0, 64, 127
2, 34554, Note_on_c, 0, 72, 87
2, 34561, Note_on_c, 0, 68, 0
2, 34576, Note_on_c, 0, 63, 0
2, 34593, Note_on_c, 0, 72, 0
2, 34595, Note_on_c, 0, 71, 0
2, 34645, Control_c, 0, 64, 0
2, 34693, Note_on_c, 0, 72, 79
2, 34693, Note_on_c, 0, 56, 83
2, 34696, Note_on_c, 0, 59, 82
2, 34703, Note_on_c, 0, 63, 76
2, 34705, Note_on_c, 0, 51, 62
2, 34713, Note_on_c, 0, 68, 66
2, 34725, Note_on_c, 0, 59, 0
2, 34729, Note_on_c, 0, 56, 0
2, 34756, Note_on_c, 0, 51, 0
2, 34801, Control_c, 0, 64, 127
2, 34801, Note_on_c, 0, 73, 85
2, 34806, Note_on_c, 0, 68, 0
2, 34813, Note_on_c, 0, 63, 0
2, 34833, Note_on_c, 0, 72, 0
2, 34842, Note_on_c, 0, 73, 0
2, 34893, Control_c, 0, 64, 0
2, 34917, Note_on_c, 0, 73, 84
2, 34929, Note_on_c, 0, 32, 81
2, 34931, Note_on_c, 0, 68, 67
2, 34931, Note_on_c, 0, 63, 79
2, 34933, Note_on_c, 0, 44, 69
2, 34965, Note_on_c, 0, 32, 0
2, 34972, Note_on_c, 0, 44, 0
2, 35015, Control_c, 0, 64, 127
2, 35027, Note_on_c, 0, 68, 0
2, 35037, Note_on_c, 0, 63, 0
2, 35044, Note_on_c, 0, 74, 58
2, 35082, Note_on_c, 0, 73, 0
2, 35092, Note_on_c, 0, 74, 0
2, 35092, Control_c, 0, 64, 0
2, 35157, Note_on_c, 0, 68, 75
2, 35157, Note_on_c, 0, 51, 84
2, 35157, Note_on_c, 0, 74, 101
2, 35161, Note_on_c, 0, 39, 84
2, 35166, Note_on_c, 0, 63, 64
2, 35171, Note_on_c, 0, 73, 18
2, 35195, Note_on_c, 0, 39, 0
2, 35195, Note_on_c, 0, 51, 0
2, 35224, Note_on_c, 0, 73, 0
2, 35231, Control_c, 0, 64, 127
2, 35243, Note_on_c, 0, 63, 0
2, 35248, Note_on_c, 0, 75, 78
2, 35253, Note_on_c, 0, 68, 0
2, 35291, Note_on_c, 0, 75, 0
2, 35296, Note_on_c, 0, 74, 0
2, 35322, Control_c, 0, 64, 0
2, 35370, Note_on_c, 0, 75, 83
2, 35392, Note_on_c, 0, 63, 82
2, 35394, Note_on_c, 0, 58, 92
2, 35399, Note_on_c, 0, 51, 70
2, 35401, Note_on_c, 0, 70, 79
2, 35433, Note_on_c, 0, 63, 0
2, 35449, Note_on_c, 0, 51, 0
2, 35449, Note_on_c, 0, 58, 0
2, 35464, Note_on_c, 0, 70, 0
2, 35476, Control_c, 0, 64, 127
2, 35505, Note_on_c, 0, 76, 59
2, 35541, Note_on_c, 0, 75, 0
2, 35553, Note_on_c, 0, 76, 0
2, 35584, Control_c, 0, 64, 0
2, 35610, Note_on_c, 0, 51, 79
2, 35613, Note_on_c, 0, 76, 104
2, 35615, Note_on_c, 0, 70, 86
2, 35620, Note_on_c, 0, 43, 82
2, 35668, Note_on_c, 0, 43, 0
2, 35677, Note_on_c, 0, 51, 0
2, 35692, Note_on_c, 0, 70, 0
2, 35697, Note_on_c, 0, 75, 92
2, 35721, Note_on_c, 0, 76, 0
2, 35723, Control_c, 0, 64, 127
2, 35793, Note_on_c, 0, 75, 0
2, 35831, Control_c, 0, 64, 0
2, 35855, Note_on_c, 0, 75, 92
2, 35855, Note_on_c, 0, 58, 86
2, 35865, Note_on_c, 0, 63, 84
2, 35869, Note_on_c, 0, 51, 69
2, 35881, Note_on_c, 0, 70, 78
2, 35910, Note_on_c, 0, 58, 0
2, 35920, Note_on_c, 0, 51, 0
2, 35922, Control_c, 0, 64, 127
2, 35944, Note_on_c, 0, 73, 88
2, 35949, Note_on_c, 0, 70, 0
2, 35973, Note_on_c, 0, 63, 0
2, 35987, Note_on_c, 0, 75, 0
2, 35992, Note_on_c, 0, 73, 0
2, 36045, Control_c, 0, 64, 0
2, 36090, Note_on_c, 0, 63, 75
2, 36095, Note_on_c, 0, 73, 90
2, 36100, Note_on_c, 0, 44, 79
2, 36102, Note_on_c, 0, 51, 70
2, 36107, Note_on_c, 0, 68, 76
2, 36153, Note_on_c, 0, 51, 0
2, 36160, Note_on_c, 0, 44, 0
2, 36179, Note_on_c, 0, 68, 0
2, 36184, Control_c, 0, 64, 127
2, 36193, Note_on_c, 0, 71, 70
2, 36225, Note_on_c, 0, 63, 0
2, 36229, Note_on_c, 0, 71, 0
2, 36241, Note_on_c, 0, 73, 0
2, 36306, Control_c, 0, 64, 0
2, 36318, Note_on_c, 0, 71, 72
2, 36339, Note_on_c, 0, 59, 69
2, 36340, Note_on_c, 0, 63, 38
2, 36341, Note_on_c, 0, 51, 75
2, 36359, Note_on_c, 0, 68, 38
2, 36379, Note_on_c, 0, 59, 0
2, 36391, Note_on_c, 0, 51, 0
2, 36414, Control_c, 0, 64, 127
2, 36424, Note_on_c, 0, 68, 0
2, 36433, Note_on_c, 0, 73, 88
2, 36448, Note_on_c, 0, 63, 0
2, 36472, Note_on_c, 0, 71, 0
2, 36477, Note_on_c, 0, 73, 0
2, 36553, Control_c, 0, 64, 0
2, 36563, Note_on_c, 0, 73, 74
2, 36568, Note_on_c, 0, 63, 65
2, 36573, Note_on_c, 0, 68, 72
2, 36573, Note_on_c, 0, 51, 55
2, 36575, Note_on_c, 0, 44, 69
2, 36633, Note_on_c, 0, 44, 0
2, 36640, Note_on_c, 0, 51, 0
2, 36654, Note_on_c, 0, 68, 0
2, 36654, Note_on_c, 0, 75, 90
2, 36676, Control_c, 0, 64, 127
2, 36685, Note_on_c, 0, 63, 0
2, 36705, Note_on_c, 0, 75, 0
2, 36717, Note_on_c, 0, 73, 0
2, 36767, Control_c, 0, 64, 0
2, 36803, Note_on_c, 0, 75, 84
2, 36808, Note_on_c, 0, 68, 83
2, 36815, Note_on_c, 0, 56, 79
2, 36820, Note_on_c, 0, 49, 75
2, 36822, Note_on_c, 0, 64, 84
2, 36859, Note_on_c, 0, 56, 0
2, 36861, Note_on_c, 0, 49, 0
2, 36904, Note_on_c, 0, 73, 86
2, 36913, Note_on_c, 0, 68, 0
2, 36921, Control_c, 0, 64, 127
2, 36930, Note_on_c, 0, 64, 0
2, 36942, Note_on_c, 0, 75, 0
2, 36961, Note_on_c, 0, 73, 0
2, 37029, Control_c, 0, 64, 0
2, 37043, Note_on_c, 0, 37, 89
2, 37050, Note_on_c, 0, 68, 56
2, 37050, Note_on_c, 0, 49, 72
2, 37050, Note_on_c, 0, 73, 72
2, 37053, Note_on_c, 0, 64, 69
2, 37081, Note_on_c, 0, 37, 0
2, 37096, Note_on_c, 0, 49, 0
2, 37137, Control_c, 0, 64, 127
2, 37141, Note_on_c, 0, 68, 0
2, 37141, Note_on_c, 0, 71, 63
2, 37146, Note_on_c, 0, 64, 0
2, 37175, Note_on_c, 0, 71, 0
2, 37189, Note_on_c, 0, 73, 0
2, 37259, Control_c, 0, 64, 0
2, 37277, Note_on_c, 0, 49, 71
2, 37283, Note_on_c, 0, 71, 69
2, 37285, Note_on_c, 0, 56, 80
2, 37287, Note_on_c, 0, 61, 79
2, 37359, Note_on_c, 0, 49, 0
2, 37366, Note_on_c, 0, 61, 0
2, 37376, Note_on_c, 0, 56, 0
2, 37381, Control_c, 0, 64, 127
2, 37398, Note_on_c, 0, 70, 89
2, 37405, Note_on_c, 0, 71, 0
2, 37475, Control_c, 0, 64, 0
2, 37535, Note_on_c, 0, 55, 85
2, 37537, Note_on_c, 0, 61, 73
2, 37542, Note_on_c, 0, 51, 72
2, 37552, Note_on_c, 0, 70, 0
2, 37588, Note_on_c, 0, 55, 0
2, 37607, Note_on_c, 0, 51, 0
2, 37624, Note_on_c, 0, 71, 65
2, 37648, Note_on_c, 0, 61, 0
2, 37660, Control_c, 0, 64, 127
2, 37662, Note_on_c, 0, 71, 0
2, 37763, Note_on_c, 0, 39, 84
2, 37770, Note_on_c, 0, 71, 56
2, 37775, Note_on_c, 0, 61, 55
2, 37811, Note_on_c, 0, 39, 0
2, 37835, Note_on_c, 0, 61, 0
2, 37864, Note_on_c, 0, 70, 80
2, 37878, Note_on_c, 0, 71, 0
2, 37912, Note_on_c, 0, 70, 0
2, 37996, Note_on_c, 0, 70, 66
2, 38005, Note_on_c, 0, 61, 66
2, 38008, Note_on_c, 0, 51, 70
2, 38010, Note_on_c, 0, 55, 74
2, 38056, Note_on_c, 0, 55, 0
2, 38068, Note_on_c, 0, 51, 0
2, 38109, Note_on_c, 0, 63, 69
2, 38121, Note_on_c, 0, 70, 0
2, 38142, Note_on_c, 0, 61, 0
2, 38154, Note_on_c, 0, 63, 0
2, 38212, Control_c, 0, 64, 0
2, 38279, Note_on_c, 0, 63, 67
2, 38283, Note_on_c, 0, 44, 56
2, 38283, Note_on_c, 0, 51, 59
2, 38285, Note_on_c, 0, 59, 60
2, 38285, Note_on_c, 0, 56, 82
2, 38321, Note_on_c, 0, 56, 0
2, 38336, Note_on_c, 0, 51, 0
2, 38343, Note_on_c, 0, 44, 0
2, 38350, Note_on_c, 0, 59, 0
2, 38377, Note_on_c, 0, 64, 60
2, 38382, Control_c, 0, 64, 127
2, 38416, Note_on_c, 0, 63, 0
2, 38418, Note_on_c, 0, 64, 0
2, 38502, Note_on_c, 0, 32, 84
2, 38505, Note_on_c, 0, 63, 49
2, 38505, Note_on_c, 0, 44, 72
2, 38512, Note_on_c, 0, 64, 62
2, 38522, Note_on_c, 0, 59, 58
2, 38538, Note_on_c, 0, 32, 0
2, 38543, Note_on_c, 0, 44, 0
2, 38601, Note_on_c, 0, 59, 0
2, 38620, Note_on_c, 0, 65, 66
2, 38625, Note_on_c, 0, 63, 0
2, 38629, Note_on_c, 0, 64, 0
2, 38665, Note_on_c, 0, 65, 0
2, 38725, Note_on_c, 0, 65, 92
2, 38737, Note_on_c, 0, 51, 78
2, 38741, Note_on_c, 0, 59, 44
2, 38742, Note_on_c, 0, 63, 13
2, 38742, Note_on_c, 0, 39, 74
2, 38781, Note_on_c, 0, 51, 0
2, 38783, Note_on_c, 0, 39, 0
2, 38809, Note_on_c, 0, 63, 0
2, 38824, Note_on_c, 0, 66, 83
2, 38837, Note_on_c, 0, 59, 0
2, 38867, Note_on_c, 0, 65, 0
2, 38889, Control_c, 0, 64, 0
2, 38898, Note_on_c, 0, 66, 0
2, 38958, Note_on_c, 0, 66, 94
2, 38971, Note_on_c, 0, 56, 95
2, 38975, Note_on_c, 0, 59, 55
2, 38975, Note_on_c, 0, 51, 73
2, 38977, Note_on_c, 0, 63, 65
2, 38980, Note_on_c, 0, 44, 72
2, 39002, Note_on_c, 0, 56, 0
2, 39018, Note_on_c, 0, 51, 0
2, 39045, Note_on_c, 0, 67, 94
2, 39049, Note_on_c, 0, 44, 0
2, 39071, Note_on_c, 0, 59, 0
2, 39073, Control_c, 0, 64, 127
2, 39085, Note_on_c, 0, 63, 0
2, 39117, Note_on_c, 0, 66, 0
2, 39148, Note_on_c, 0, 67, 0
2, 39205, Note_on_c, 0, 30, 92
2, 39210, Note_on_c, 0, 42, 77
2, 39213, Note_on_c, 0, 59, 60
2, 39215, Note_on_c, 0, 67, 101
2, 39222, Note_on_c, 0, 63, 57
2, 39237, Note_on_c, 0, 30, 0
2, 39249, Note_on_c, 0, 42, 0
2, 39304, Note_on_c, 0, 68, 92
2, 39323, Note_on_c, 0, 59, 0
2, 39342, Note_on_c, 0, 63, 0
2, 39349, Note_on_c, 0, 67, 0
2, 39388, Note_on_c, 0, 68, 0
2, 39433, Note_on_c, 0, 42, 79
2, 39438, Note_on_c, 0, 63, 64
2, 39441, Note_on_c, 0, 51, 86
2, 39443, Note_on_c, 0, 68, 92
2, 39445, Note_on_c, 0, 59, 61
2, 39479, Note_on_c, 0, 42, 0
2, 39484, Note_on_c, 0, 51, 0
2, 39533, Note_on_c, 0, 59, 0
2, 39541, Note_on_c, 0, 69, 81
2, 39577, Note_on_c, 0, 69, 0
2, 39585, Note_on_c, 0, 63, 0
2, 39594, Control_c, 0, 64, 0
2, 39601, Note_on_c, 0, 68, 0
2, 39673, Note_on_c, 0, 69, 79
2, 39673, Note_on_c, 0, 64, 91
2, 39674, Note_on_c, 0, 56, 99
2, 39677, Note_on_c, 0, 52, 91
2, 39678, Note_on_c, 0, 63, 21
2, 39683, Note_on_c, 0, 59, 73
2, 39713, Note_on_c, 0, 52, 0
2, 39731, Note_on_c, 0, 63, 0
2, 39744, Note_on_c, 0, 56, 0
2, 39765, Note_on_c, 0, 70, 99
2, 39769, Note_on_c, 0, 59, 0
2, 39779, Control_c, 0, 64, 127
2, 39781, Note_on_c, 0, 64, 0
2, 39798, Note_on_c, 0, 69, 0
2, 39805, Note_on_c, 0, 70, 0
2, 39887, Note_on_c, 0, 70, 68
2, 39892, Note_on_c, 0, 64, 71
2, 39906, Note_on_c, 0, 59, 52
2, 39911, Note_on_c, 0, 28, 106
2, 39915, Note_on_c, 0, 40, 89
2, 39935, Note_on_c, 0, 28, 0
2, 39946, Note_on_c, 0, 40, 0
2, 39973, Note_on_c, 0, 59, 0
2, 39985, Note_on_c, 0, 71, 71
2, 40026, Note_on_c, 0, 64, 0
2, 40043, Note_on_c, 0, 71, 0
2, 40053, Note_on_c, 0, 70, 0
2, 40122, Note_on_c, 0, 71, 87
2, 40137, Note_on_c, 0, 64, 75
2, 40146, Note_on_c, 0, 52, 92
2, 40146, Note_on_c, 0, 56, 83
2, 40189, Note_on_c, 0, 52, 0
2, 40201, Note_on_c, 0, 56, 0
2, 40216, Note_on_c, 0, 72, 97
2, 40237, Note_on_c, 0, 64, 0
2, 40257, Note_on_c, 0, 72, 0
2, 40259, Note_on_c, 0, 71, 0
2, 40317, Control_c, 0, 64, 0
2, 40336, Note_on_c, 0, 72, 101
2, 40348, Note_on_c, 0, 63, 95
2, 40353, Note_on_c, 0, 59, 98
2, 40355, Note_on_c, 0, 56, 93
2, 40365, Note_on_c, 0, 51, 88
2, 40379, Note_on_c, 0, 59, 0
2, 40396, Note_on_c, 0, 56, 0
2, 40432, Note_on_c, 0, 51, 0
2, 40446, Note_on_c, 0, 73, 88
2, 40453, Note_on_c, 0, 63, 0
2, 40487, Note_on_c, 0, 73, 0
2, 40489, Note_on_c, 0, 72, 0
2, 40501, Control_c, 0, 64, 127
2, 40547, Note_on_c, 0, 73, 96
2, 40569, Note_on_c, 0, 27, 110
2, 40571, Note_on_c, 0, 39, 102
2, 40578, Note_on_c, 0, 63, 84
2, 40595, Note_on_c, 0, 27, 0
2, 40605, Note_on_c, 0, 39, 0
2, 40657, Note_on_c, 0, 74, 100
2, 40681, Note_on_c, 0, 63, 0
2, 40703, Note_on_c, 0, 74, 0
2, 40729, Note_on_c, 0, 73, 0
2, 40799, Note_on_c, 0, 68, 85
2, 40801, Note_on_c, 0, 56, 92
2, 40804, Note_on_c, 0, 73, 49
2, 40804, Note_on_c, 0, 63, 66
2, 40806, Note_on_c, 0, 74, 105
2, 40806, Note_on_c, 0, 51, 86
2, 40811, Note_on_c, 0, 59, 81
2, 40835, Note_on_c, 0, 56, 0
2, 40842, Note_on_c, 0, 59, 0
2, 40845, Note_on_c, 0, 51, 0
2, 40878, Note_on_c, 0, 73, 0
2, 40878, Note_on_c, 0, 75, 88
2, 40897, Note_on_c, 0, 63, 0
2, 40909, Note_on_c, 0, 68, 0
2, 40924, Note_on_c, 0, 75, 0
2, 40941, Note_on_c, 0, 74, 0
2, 40948, Control_c, 0, 64, 0
2, 41037, Note_on_c, 0, 75, 104
2, 41046, Note_on_c, 0, 64, 106
2, 41049, Note_on_c, 0, 59, 95
2, 41051, Note_on_c, 0, 56, 90
2, 41051, Note_on_c, 0, 49, 106
2, 41052, Note_on_c, 0, 68, 81
2, 41089, Note_on_c, 0, 56, 0
2, 41133, Note_on_c, 0, 73, 89
2, 41142, Note_on_c, 0, 59, 0
2, 41178, Control_c, 0, 64, 127
2, 41188, Note_on_c, 0, 49, 0
2, 41188, Note_on_c, 0, 75, 0
2, 41225, Note_on_c, 0, 68, 0
2, 41229, Note_on_c, 0, 64, 0
2, 41233, Note_on_c, 0, 73, 0
2, 41279, Note_on_c, 0, 73, 87
2, 41375, Note_on_c, 0, 71, 85
2, 41413, Note_on_c, 0, 71, 0
2, 41421, Note_on_c, 0, 73, 0
2, 41454, Control_c, 0, 64, 0
2, 41514, Note_on_c, 0, 71, 82
2, 41615, Note_on_c, 0, 70, 98
2, 41661, Note_on_c, 0, 71, 0
2, 41711, Note_on_c, 0, 70, 0
2, 41745, Note_on_c, 0, 73, 104
2, 41759, Note_on_c, 0, 63, 84
2, 41761, Note_on_c, 0, 68, 83
2, 41761, Note_on_c, 0, 59, 89
2, 41761, Note_on_c, 0, 51, 90
2, 41761, Note_on_c, 0, 56, 87
2, 41793, Control_c, 0, 64, 127
2, 41814, Note_on_c, 0, 56, 0
2, 41824, Note_on_c, 0, 51, 0
2, 41836, Note_on_c, 0, 59, 0
2, 41845, Note_on_c, 0, 71, 75
2, 41862, Note_on_c, 0, 63, 0
2, 41879, Note_on_c, 0, 68, 0
2, 41901, Note_on_c, 0, 71, 0
2, 41905, Note_on_c, 0, 73, 0
2, 41999, Note_on_c, 0, 71, 81
2, 42107, Note_on_c, 0, 70, 95
2, 42124, Note_on_c, 0, 71, 0
2, 42155, Note_on_c, 0, 70, 0
2, 42229, Note_on_c, 0, 70, 96
2, 42330, Note_on_c, 0, 68, 88
2, 42376, Control_c, 0, 64, 0
2, 42390, Note_on_c, 0, 70, 0
2, 42433, Note_on_c, 0, 68, 0
2, 42496, Note_on_c, 0, 75, 105
2, 42503, Note_on_c, 0, 68, 79
2, 42505, Note_on_c, 0, 49, 92
2, 42505, Note_on_c, 0, 59, 88
2, 42513, Note_on_c, 0, 64, 95
2, 42515, Note_on_c, 0, 56, 81
2, 42599, Note_on_c, 0, 73, 90
2, 42606, Control_c, 0, 64, 127
2, 42645, Note_on_c, 0, 59, 0
2, 42645, Note_on_c, 0, 75, 0
2, 42647, Note_on_c, 0, 64, 0
2, 42652, Note_on_c, 0, 68, 0
2, 42661, Note_on_c, 0, 49, 0
2, 42664, Note_on_c, 0, 56, 0
2, 42688, Note_on_c, 0, 73, 0
2, 42755, Note_on_c, 0, 73, 95
2, 42844, Note_on_c, 0, 71, 79
2, 42911, Note_on_c, 0, 71, 0
2, 42916, Note_on_c, 0, 73, 0
2, 43009, Note_on_c, 0, 71, 81
2, 43098, Control_c, 0, 64, 0
2, 43105, Note_on_c, 0, 70, 100
2, 43141, Note_on_c, 0, 71, 0
2, 43245, Note_on_c, 0, 70, 0
2, 43247, Note_on_c, 0, 73, 97
2, 43254, Note_on_c, 0, 63, 88
2, 43257, Note_on_c, 0, 59, 82
2, 43264, Note_on_c, 0, 68, 77
2, 43264, Note_on_c, 0, 51, 83
2, 43266, Note_on_c, 0, 56, 75
2, 43329, Control_c, 0, 64, 127
2, 43357, Note_on_c, 0, 71, 85
2, 43384, Note_on_c, 0, 59, 0
2, 43398, Note_on_c, 0, 68, 0
2, 43398, Note_on_c, 0, 63, 0
2, 43401, Note_on_c, 0, 71, 0
2, 43405, Note_on_c, 0, 56, 0
2, 43417, Note_on_c, 0, 73, 0
2, 43444, Note_on_c, 0, 51, 0
2, 43509, Note_on_c, 0, 71, 78
2, 43605, Note_on_c, 0, 70, 98
2, 43650, Note_on_c, 0, 71, 0
2, 43686, Note_on_c, 0, 70, 0
2, 43756, Note_on_c, 0, 70, 97
2, 43837, Control_c, 0, 64, 0
2, 43869, Note_on_c, 0, 68, 90
2, 43909, Note_on_c, 0, 70, 0
2, 43919, Note_on_c, 0, 68, 0
2, 44010, Note_on_c, 0, 61, 97
2, 44013, Note_on_c, 0, 68, 83
2, 44013, Note_on_c, 0, 71, 92
2, 44014, Note_on_c, 0, 56, 90
2, 44015, Note_on_c, 0, 52, 94
2, 44099, Control_c, 0, 64, 127
2, 44117, Note_on_c, 0, 56, 0
2, 44125, Note_on_c, 0, 70, 103
2, 44139, Note_on_c, 0, 52, 0
2, 44164, Note_on_c, 0, 61, 0
2, 44178, Note_on_c, 0, 71, 0
2, 44193, Note_on_c, 0, 68, 0
2, 44221, Note_on_c, 0, 70, 0
2, 44277, Note_on_c, 0, 70, 95
2, 44397, Note_on_c, 0, 71, 75
2, 44440, Note_on_c, 0, 71, 0
2, 44461, Note_on_c, 0, 70, 0
2, 44533, Note_on_c, 0, 71, 80
2, 44658, Note_on_c, 0, 70, 100
2, 44661, Note_on_c, 0, 71, 0
2, 44721, Note_on_c, 0, 70, 0
2, 44759, Control_c, 0, 64, 0
2, 44783, Note_on_c, 0, 70, 95
2, 44884, Note_on_c, 0, 71, 79
2, 44927, Note_on_c, 0, 71, 0
2, 44939, Note_on_c, 0, 70, 0
2, 44944, Control_c, 0, 64, 127
2, 45004, Note_on_c, 0, 71, 84
2, 45112, Note_on_c, 0, 71, 0
2, 45119, Note_on_c, 0, 70, 86
2, 45169, Note_on_c, 0, 70, 0
2, 45237, Note_on_c, 0, 70, 76
2, 45369, Note_on_c, 0, 71, 59
2, 45397, Note_on_c, 0, 70, 0
2, 45407, Note_on_c, 0, 71, 0
2, 45493, Note_on_c, 0, 71, 72
2, 45613, Note_on_c, 0, 70, 97
2, 45618, Note_on_c, 0, 71, 0
2, 45671, Note_on_c, 0, 70, 0
2, 45743, Note_on_c, 0, 70, 88
2, 45858, Note_on_c, 0, 71, 77
2, 45894, Note_on_c, 0, 71, 0
2, 45901, Note_on_c, 0, 70, 0
2, 45981, Note_on_c, 0, 71, 78
2, 46096, Note_on_c, 0, 70, 93
2, 46101, Note_on_c, 0, 71, 0
2, 46149, Note_on_c, 0, 70, 0
2, 46216, Note_on_c, 0, 70, 88
2, 46326, Note_on_c, 0, 71, 80
2, 46372, Note_on_c, 0, 71, 0
2, 46379, Note_on_c, 0, 70, 0
2, 46463, Note_on_c, 0, 71, 85
2, 46576, Note_on_c, 0, 70, 101
2, 46578, Note_on_c, 0, 71, 0
2, 46638, Note_on_c, 0, 70, 0
2, 46701, Note_on_c, 0, 70, 97
2, 46809, Note_on_c, 0, 71, 90
2, 46857, Note_on_c, 0, 70, 0
2, 46955, Note_on_c, 0, 70, 88
2, 46960, Note_on_c, 0, 68, 81
2, 46965, Note_on_c, 0, 64, 99
2, 46972, Control_c, 0, 64, 0
2, 46984, Note_on_c, 0, 71, 0
2, 47101, Note_on_c, 0, 63, 84
2, 47135, Note_on_c, 0, 64, 0
2, 47161, Note_on_c, 0, 63, 0
2, 47171, Control_c, 0, 64, 127
2, 47231, Note_on_c, 0, 63, 88
2, 47344, Note_on_c, 0, 63, 0
2, 47344, Note_on_c, 0, 61, 84
2, 47385, Note_on_c, 0, 61, 0
2, 47466, Note_on_c, 0, 61, 79
2, 47581, Note_on_c, 0, 59, 79
2, 47593, Note_on_c, 0, 61, 0
2, 47622, Note_on_c, 0, 59, 0
2, 47706, Note_on_c, 0, 59, 74
2, 47795, Note_on_c, 0, 59, 0
2, 47819, Note_on_c, 0, 58, 101
2, 47872, Note_on_c, 0, 58, 0
2, 47946, Note_on_c, 0, 58, 91
2, 48066, Note_on_c, 0, 56, 79
2, 48069, Note_on_c, 0, 58, 0
2, 48109, Note_on_c, 0, 56, 0
2, 48196, Note_on_c, 0, 56, 70
2, 48321, Note_on_c, 0, 56, 0
2, 48321, Note_on_c, 0, 54, 72
2, 48373, Note_on_c, 0, 54, 0
2, 48431, Control_c, 0, 64, 0
2, 48479, Note_on_c, 0, 54, 57
2, 48585, Control_c, 0, 64, 127
2, 48604, Note_on_c, 0, 52, 70
2, 48609, Note_on_c, 0, 54, 0
2, 48645, Note_on_c, 0, 52, 0
2, 48724, Note_on_c, 0, 52, 63
2, 48827, Note_on_c, 0, 52, 0
2, 48834, Note_on_c, 0, 51, 81
2, 48877, Note_on_c, 0, 51, 0
2, 48961, Note_on_c, 0, 51, 62
2, 48997, Note_on_c, 0, 68, 0
2, 49077, Note_on_c, 0, 51, 0
2, 49093, Note_on_c, 0, 49, 70
2, 49264, Note_on_c, 0, 49, 0
2, 49285, Note_on_c, 0, 61, 47
2, 49288, Note_on_c, 0, 51, 50
2, 49290, Note_on_c, 0, 67, 54
2, 49293, Control_c, 0, 64, 0
2, 49869, Note_on_c, 0, 39, 48
2, 49876, Note_on_c, 0, 71, 57
2, 49938, Note_on_c, 0, 70, 0
2, 50029, Control_c, 0, 64, 127
2, 50092, Note_on_c, 0, 67, 0
2, 50094, Note_on_c, 0, 61, 0
2, 50229, Note_on_c, 0, 39, 0
2, 50260, Control_c, 0, 64, 0
2, 50262, Note_on_c, 0, 71, 0
2, 50262, Note_on_c, 0, 68, 66
2, 50277, Note_on_c, 0, 44, 44
2, 50279, Note_on_c, 0, 59, 43
2, 50421, Note_on_c, 0, 59, 0
2, 50445, Note_on_c, 0, 51, 0
2, 50473, Note_on_c, 0, 68, 0
2, 50481, Note_on_c, 0, 44, 0
2, 50490, Control_c, 0, 64, 127
2, 50538, Control_c, 0, 64, 0
2, 50557, Note_on_c, 0, 68, 66
2, 50569, Note_on_c, 0, 61, 59
2, 50573, Note_on_c, 0, 64, 53
2, 50586, Note_on_c, 0, 49, 47
2, 50586, Note_on_c, 0, 37, 43
2, 50623, Note_on_c, 0, 64, 0
2, 50641, Note_on_c, 0, 49, 0
2, 50648, Note_on_c, 0, 37, 0
2, 50677, Note_on_c, 0, 71, 70
2, 50682, Note_on_c, 0, 61, 0
2, 50706, Control_c, 0, 64, 127
2, 50718, Note_on_c, 0, 71, 0
2, 50718, Note_on_c, 0, 68, 0
2, 50737, Control_c, 0, 64, 0
2, 50812, Note_on_c, 0, 71, 62
2, 50829, Note_on_c, 0, 67, 78
2, 50832, Note_on_c, 0, 61, 51
2, 50833, Note_on_c, 0, 51, 70
2, 50833, Note_on_c, 0, 39, 55
2, 50886, Note_on_c, 0, 39, 0
2, 50896, Note_on_c, 0, 67, 0
2, 50896, Note_on_c, 0, 51, 0
2, 50922, Control_c, 0, 64, 127
2, 50937, Note_on_c, 0, 70, 91
2, 50949, Note_on_c, 0, 71, 0
2, 50952, Note_on_c, 0, 61, 0
2, 50968, Control_c, 0, 64, 0
2, 50982, Note_on_c, 0, 70, 0
2, 51071, Note_on_c, 0, 70, 84
2, 51076, Note_on_c, 0, 56, 90
2, 51083, Note_on_c, 0, 59, 72
2, 51093, Note_on_c, 0, 44, 69
2, 51157, Note_on_c, 0, 56, 0
2, 51184, Control_c, 0, 64, 127
2, 51186, Note_on_c, 0, 59, 0
2, 51193, Note_on_c, 0, 68, 90
2, 51201, Note_on_c, 0, 44, 0
2, 51227, Note_on_c, 0, 70, 0
2, 51237, Note_on_c, 0, 68, 0
2, 51275, Control_c, 0, 64, 0
2, 51323, Note_on_c, 0, 68, 84
2, 51333, Note_on_c, 0, 61, 77
2, 51337, Note_on_c, 0, 49, 86
2, 51340, Note_on_c, 0, 37, 85
2, 51342, Note_on_c, 0, 64, 73
2, 51381, Note_on_c, 0, 37, 0
2, 51381, Note_on_c, 0, 49, 0
2, 51395, Note_on_c, 0, 64, 0
2, 51436, Note_on_c, 0, 71, 77
2, 51450, Note_on_c, 0, 61, 0
2, 51460, Control_c, 0, 64, 127
2, 51477, Note_on_c, 0, 71, 0
2, 51491, Note_on_c, 0, 68, 0
2, 51491, Control_c, 0, 64, 0
2, 51565, Note_on_c, 0, 71, 71
2, 51575, Note_on_c, 0, 67, 78
2, 51583, Note_on_c, 0, 61, 71
2, 51583, Note_on_c, 0, 51, 83
2, 51586, Note_on_c, 0, 39, 62
2, 51629, Note_on_c, 0, 51, 0
2, 51634, Note_on_c, 0, 39, 0
2, 51638, Note_on_c, 0, 67, 0
2, 51690, Control_c, 0, 64, 127
2, 51690, Note_on_c, 0, 70, 89
2, 51700, Note_on_c, 0, 71, 0
2, 51705, Note_on_c, 0, 61, 0
2, 51721, Control_c, 0, 64, 0
2, 51736, Note_on_c, 0, 70, 0
2, 51813, Note_on_c, 0, 70, 76
2, 51822, Note_on_c, 0, 59, 71
2, 51827, Note_on_c, 0, 40, 68
2, 51829, Note_on_c, 0, 52, 78
2, 51867, Note_on_c, 0, 52, 0
2, 51885, Note_on_c, 0, 40, 0
2, 51894, Note_on_c, 0, 59, 0
2, 51921, Control_c, 0, 64, 127
2, 51930, Note_on_c, 0, 68, 84
2, 51961, Note_on_c, 0, 70, 0
2, 51971, Note_on_c, 0, 68, 0
2, 52012, Control_c, 0, 64, 0
2, 52065, Note_on_c, 0, 63, 79
2, 52072, Note_on_c, 0, 66, 88
2, 52077, Note_on_c, 0, 47, 73
2, 52079, Note_on_c, 0, 35, 76
2, 52120, Note_on_c, 0, 47, 0
2, 52127, Note_on_c, 0, 35, 0
2, 52156, Note_on_c, 0, 75, 93
2, 52165, Control_c, 0, 64, 127
2, 52168, Note_on_c, 0, 63, 0
2, 52187, Note_on_c, 0, 66, 0
2, 52209, Note_on_c, 0, 75, 0
2, 52242, Control_c, 0, 64, 0
2, 52295, Note_on_c, 0, 75, 90
2, 52312, Note_on_c, 0, 49, 81
2, 52314, Note_on_c, 0, 64, 87
2, 52317, Note_on_c, 0, 37, 79
2, 52319, Note_on_c, 0, 70, 90
2, 52365, Note_on_c, 0, 37, 0
2, 52365, Note_on_c, 0, 49, 0
2, 52410, Note_on_c, 0, 73, 90
2, 52413, Control_c, 0, 64, 127
2, 52417, Note_on_c, 0, 64, 0
2, 52422, Note_on_c, 0, 70, 0
2, 52449, Note_on_c, 0, 75, 0
2, 52461, Note_on_c, 0, 73, 0
2, 52489, Control_c, 0, 64, 0
2, 52547, Note_on_c, 0, 73, 88
2, 52549, Note_on_c, 0, 51, 80
2, 52554, Note_on_c, 0, 63, 83
2, 52557, Note_on_c, 0, 39, 78
2, 52559, Note_on_c, 0, 68, 75
2, 52600, Note_on_c, 0, 51, 0
2, 52617, Note_on_c, 0, 39, 0
2, 52624, Note_on_c, 0, 68, 0
2, 52648, Note_on_c, 0, 71, 77
2, 52657, Control_c, 0, 64, 127
2, 52672, Note_on_c, 0, 63, 0
2, 52693, Note_on_c, 0, 71, 0
2, 52693, Note_on_c, 0, 73, 0
2, 52734, Control_c, 0, 64, 0
2, 52794, Note_on_c, 0, 51, 78
2, 52799, Note_on_c, 0, 63, 64
2, 52852, Note_on_c, 0, 51, 0
2, 52895, Note_on_c, 0, 71, 66
2, 52905, Control_c, 0, 64, 127
2, 52926, Note_on_c, 0, 63, 0
2, 52933, Note_on_c, 0, 71, 0
2, 52996, Control_c, 0, 64, 0
2, 53034, Note_on_c, 0, 71, 58
2, 53041, Note_on_c, 0, 61, 61
2, 53044, Note_on_c, 0, 67, 61
2, 53051, Note_on_c, 0, 39, 71
2, 53094, Note_on_c, 0, 39, 0
2, 53121, Note_on_c, 0, 67, 0
2, 53130, Note_on_c, 0, 61, 0
2, 53142, Note_on_c, 0, 71, 0
2, 53142, Note_on_c, 0, 70, 94
2, 53166, Control_c, 0, 64, 127
2, 53193, Note_on_c, 0, 70, 0
2, 53257, Control_c, 0, 64, 0
2, 53308, Note_on_c, 0, 51, 57
2, 53313, Note_on_c, 0, 68, 76
2, 53313, Note_on_c, 0, 59, 64
2, 53317, Note_on_c, 0, 44, 41
2, 53401, Note_on_c, 0, 51, 0
2, 53411, Note_on_c, 0, 59, 0
2, 53457, Control_c, 0, 64, 127
2, 53471, Note_on_c, 0, 44, 0
2, 53497, Note_on_c, 0, 68, 0
2, 53605, Note_on_c, 0, 68, 67
2, 53610, Control_c, 0, 64, 0
2, 53613, Note_on_c, 0, 61, 56
2, 53616, Note_on_c, 0, 64, 48
2, 53620, Note_on_c, 0, 49, 58
2, 53621, Note_on_c, 0, 37, 50
2, 53669, Note_on_c, 0, 64, 0
2, 53681, Note_on_c, 0, 37, 0
2, 53682, Note_on_c, 0, 49, 0
2, 53711, Note_on_c, 0, 71, 76
2, 53728, Note_on_c, 0, 61, 0
2, 53749, Control_c, 0, 64, 127
2, 53754, Note_on_c, 0, 71, 0
2, 53754, Note_on_c, 0, 68, 0
2, 53826, Control_c, 0, 64, 0
2, 53841, Note_on_c, 0, 71, 66
2, 53855, Note_on_c, 0, 61, 56
2, 53858, Note_on_c, 0, 67, 61
2, 53859, Note_on_c, 0, 51, 78
2, 53862, Note_on_c, 0, 39, 67
2, 53908, Note_on_c, 0, 39, 0
2, 53916, Note_on_c, 0, 51, 0
2, 53953, Note_on_c, 0, 70, 91
2, 53961, Note_on_c, 0, 67, 0
2, 53968, Note_on_c, 0, 71, 0
2, 53980, Control_c, 0, 64, 127
2, 53982, Note_on_c, 0, 61, 0
2, 53997, Note_on_c, 0, 70, 0
2, 54042, Control_c, 0, 64, 0
2, 54085, Note_on_c, 0, 70, 80
2, 54095, Note_on_c, 0, 59, 76
2, 54097, Note_on_c, 0, 56, 75
2, 54109, Note_on_c, 0, 44, 73
2, 54145, Note_on_c, 0, 56, 0
2, 54186, Note_on_c, 0, 44, 0
2, 54191, Note_on_c, 0, 68, 88
2, 54203, Note_on_c, 0, 59, 0
2, 54210, Control_c, 0, 64, 127
2, 54241, Note_on_c, 0, 70, 0
2, 54251, Note_on_c, 0, 68, 0
2, 54287, Control_c, 0, 64, 0
2, 54337, Note_on_c, 0, 68, 84
2, 54340, Note_on_c, 0, 49, 84
2, 54340, Note_on_c, 0, 61, 78
2, 54342, Note_on_c, 0, 64, 79
2, 54345, Note_on_c, 0, 37, 83
2, 54381, Note_on_c, 0, 49, 0
2, 54385, Note_on_c, 0, 37, 0
2, 54419, Note_on_c, 0, 64, 0
2, 54438, Note_on_c, 0, 71, 76
2, 54457, Control_c, 0, 64, 127
2, 54462, Note_on_c, 0, 61, 0
2, 54479, Note_on_c, 0, 71, 0
2, 54493, Note_on_c, 0, 68, 0
2, 54517, Control_c, 0, 64, 0
2, 54585, Note_on_c, 0, 71, 65
2, 54587, Note_on_c, 0, 51, 85
2, 54589, Note_on_c, 0, 67, 80
2, 54594, Note_on_c, 0, 61, 71
2, 54594, Note_on_c, 0, 39, 76
2, 54630, Note_on_c, 0, 51, 0
2, 54637, Note_on_c, 0, 39, 0
2, 54678, Note_on_c, 0, 67, 0
2, 54690, Note_on_c, 0, 70, 98
2, 54702, Control_c, 0, 64, 127
2, 54714, Note_on_c, 0, 71, 0
2, 54733, Note_on_c, 0, 70, 0
2, 54736, Note_on_c, 0, 61, 0
2, 54765, Control_c, 0, 64, 0
2, 54832, Note_on_c, 0, 70, 78
2, 54844, Note_on_c, 0, 52, 84
2, 54846, Note_on_c, 0, 40, 82
2, 54846, Note_on_c, 0, 59, 70
2, 54880, Note_on_c, 0, 52, 0
2, 54901, Note_on_c, 0, 40, 0
2, 54916, Note_on_c, 0, 59, 0
2, 54947, Control_c, 0, 64, 127
2, 54952, Note_on_c, 0, 68, 78
2, 54983, Note_on_c, 0, 70, 0
2, 54997, Note_on_c, 0, 68, 0
2, 55009, Control_c, 0, 64, 0
2, 55105, Note_on_c, 0, 61, 64
2, 55105, Note_on_c, 0, 64, 83
2, 55108, Note_on_c, 0, 45, 68
2, 55110, Note_on_c, 0, 33, 57
2, 55158, Note_on_c, 0, 61, 0
2, 55165, Note_on_c, 0, 33, 0
2, 55168, Note_on_c, 0, 45, 0
2, 55173, Note_on_c, 0, 64, 0
2, 55209, Control_c, 0, 64, 127
2, 55221, Note_on_c, 0, 73, 66
2, 55264, Note_on_c, 0, 73, 0
2, 55317, Control_c, 0, 64, 0
2, 55338, Note_on_c, 0, 73, 62
2, 55354, Note_on_c, 0, 68, 43
2, 55364, Note_on_c, 0, 62, 62
2, 55364, Note_on_c, 0, 47, 56
2, 55371, Note_on_c, 0, 35, 51
2, 55412, Note_on_c, 0, 47, 0
2, 55419, Note_on_c, 0, 68, 0
2, 55421, Note_on_c, 0, 35, 0
2, 55421, Note_on_c, 0, 62, 0
2, 55487, Control_c, 0, 64, 127
2, 55494, Note_on_c, 0, 73, 0
2, 55513, Note_on_c, 0, 71, 31
2, 55569, Note_on_c, 0, 71, 0
2, 55593, Control_c, 0, 64, 0
2, 55650, Note_on_c, 0, 49, 47
2, 55650, Note_on_c, 0, 71, 55
2, 55653, Note_on_c, 0, 37, 55
2, 55660, Note_on_c, 0, 61, 39
2, 55717, Note_on_c, 0, 49, 0
2, 55725, Note_on_c, 0, 37, 0
2, 55732, Note_on_c, 0, 61, 0
2, 55746, Control_c, 0, 64, 127
2, 55761, Note_on_c, 0, 71, 0
2, 55768, Note_on_c, 0, 69, 72
2, 55809, Note_on_c, 0, 69, 0
2, 55871, Control_c, 0, 64, 0
2, 55936, Note_on_c, 0, 59, 59
2, 55936, Note_on_c, 0, 39, 45
2, 55938, Note_on_c, 0, 51, 43
2, 55945, Note_on_c, 0, 63, 52
2, 56001, Note_on_c, 0, 51, 0
2, 56008, Note_on_c, 0, 39, 0
2, 56044, Note_on_c, 0, 59, 0
2, 56056, Control_c, 0, 64, 127
2, 56065, Note_on_c, 0, 63, 0
2, 56075, Note_on_c, 0, 68, 64
2, 56133, Note_on_c, 0, 68, 0
2, 56224, Control_c, 0, 64, 0
2, 56250, Note_on_c, 0, 68, 54
2, 56262, Note_on_c, 0, 58, 55
2, 56263, Note_on_c, 0, 63, 32
2, 56269, Note_on_c, 0, 27, 35
2, 56270, Note_on_c, 0, 39, 14
2, 56335, Note_on_c, 0, 63, 0
2, 56337, Note_on_c, 0, 27, 0
2, 56339, Note_on_c, 0, 39, 0
2, 56392, Control_c, 0, 64, 127
2, 56437, Note_on_c, 0, 68, 0
2, 56459, Note_on_c, 0, 58, 0
2, 56461, Note_on_c, 0, 67, 44
2, 56577, Control_c, 0, 64, 0
2, 56608, Note_on_c, 0, 67, 0
2, 56618, Note_on_c, 0, 63, 15
2, 56624, Note_on_c, 0, 68, 53
2, 56639, Note_on_c, 0, 32, 43
2, 56641, Note_on_c, 0, 44, 25
2, 56641, Note_on_c, 0, 59, 41
2, 56830, Note_on_c, 0, 44, 0
2, 56895, Note_on_c, 0, 32, 0
2, 56898, Note_on_c, 0, 59, 0
2, 56901, Control_c, 0, 64, 127
2, 56944, Note_on_c, 0, 63, 0
2, 56965, Note_on_c, 0, 68, 0
2, 57561, Control_c, 0, 64, 0
2, 57577, Note_on_c, 0, 63, 92
2, 57587, Note_on_c, 0, 51, 61
2, 57594, Note_on_c, 0, 39, 61
2, 57856, Note_on_c, 0, 56, 69
2, 57861, Note_on_c, 0, 59, 67
2, 57899, Control_c, 0, 64, 127
2, 57901, Note_on_c, 0, 56, 0
2, 57913, Note_on_c, 0, 59, 0
2, 57990, Note_on_c, 0, 55, 69
2, 57995, Note_on_c, 0, 58, 80
2, 58036, Note_on_c, 0, 55, 0
2, 58038, Control_c, 0, 64, 0
2, 58043, Note_on_c, 0, 58, 0
2, 58115, Note_on_c, 0, 58, 76
2, 58117, Note_on_c, 0, 55, 71
2, 58141, Note_on_c, 0, 51, 0
2, 58163, Note_on_c, 0, 55, 0
2, 58182, Note_on_c, 0, 58, 0
2, 58221, Control_c, 0, 64, 127
2, 58257, Note_on_c, 0, 61, 64
2, 58266, Note_on_c, 0, 58, 82
2, 58326, Note_on_c, 0, 58, 0
2, 58331, Control_c, 0, 64, 0
2, 58381, Note_on_c, 0, 44, 40
2, 58393, Note_on_c, 0, 61, 0
2, 58417, Note_on_c, 0, 51, 44
2, 58437, Note_on_c, 0, 59, 56
2, 58439, Note_on_c, 0, 56, 50
2, 58458, Note_on_c, 0, 39, 0
2, 58653, Note_on_c, 0, 51, 0
2, 58684, Control_c, 0, 64, 127
2, 58722, Note_on_c, 0, 44, 0
2, 58895, Note_on_c, 0, 56, 0
2, 59077, Note_on_c, 0, 59, 0
2, 59173, Note_on_c, 0, 64, 84
2, 59233, Note_on_c, 0, 63, 0
2, 59250, Control_c, 0, 64, 0
2, 59344, Control_c, 0, 64, 127
2, 59406, Note_on_c, 0, 64, 0
2, 59545, Note_on_c, 0, 63, 89
2, 59574, Note_on_c, 0, 51, 41
2, 59586, Note_on_c, 0, 39, 47
2, 59790, Control_c, 0, 64, 0
2, 59833, Note_on_c, 0, 56, 66
2, 59835, Note_on_c, 0, 59, 53
2, 59891, Note_on_c, 0, 56, 0
2, 59892, Note_on_c, 0, 59, 0
2, 59987, Note_on_c, 0, 58, 69
2, 59989, Control_c, 0, 64, 127
2, 59997, Note_on_c, 0, 55, 52
2, 60040, Note_on_c, 0, 58, 0
2, 60054, Note_on_c, 0, 55, 0
2, 60109, Note_on_c, 0, 51, 0
2, 60133, Note_on_c, 0, 58, 52
2, 60142, Note_on_c, 0, 55, 45
2, 60202, Note_on_c, 0, 55, 0
2, 60220, Note_on_c, 0, 58, 0
2, 60301, Note_on_c, 0, 61, 48
2, 60306, Note_on_c, 0, 58, 48
2, 60359, Note_on_c, 0, 61, 0
2, 60378, Note_on_c, 0, 58, 0
2, 60465, Control_c, 0, 64, 0
2, 60475, Note_on_c, 0, 51, 26
2, 60480, Note_on_c, 0, 44, 26
2, 60488, Note_on_c, 0, 56, 38
2, 60493, Note_on_c, 0, 59, 39
2, 60517, Note_on_c, 0, 39, 0
2, 60803, Control_c, 0, 64, 127
2, 60855, Note_on_c, 0, 56, 0
2, 60869, Note_on_c, 0, 51, 0
2, 60959, Note_on_c, 0, 66, 50
2, 60987, Note_on_c, 0, 59, 0
2, 61061, Note_on_c, 0, 44, 0
2, 61065, Control_c, 0, 64, 0
2, 61072, Note_on_c, 0, 63, 0
2, 61233, Control_c, 0, 64, 127
2, 61521, Note_on_c, 0, 64, 64
2, 61525, Control_c, 0, 64, 0
2, 61564, Note_on_c, 0, 66, 0
2, 61665, Control_c, 0, 64, 127
2, 61749, Note_on_c, 0, 64, 0
2, 61936, Note_on_c, 0, 51, 33
2, 61945, Note_on_c, 0, 39, 41
2, 61948, Note_on_c, 0, 63, 56
2, 62171, Control_c, 0, 64, 0
2, 62265, Note_on_c, 0, 56, 55
2, 62269, Note_on_c, 0, 59, 44
2, 62325, Note_on_c, 0, 56, 0
2, 62394, Note_on_c, 0, 59, 0
2, 62421, Note_on_c, 0, 55, 52
2, 62423, Note_on_c, 0, 58, 57
2, 62464, Control_c, 0, 64, 127
2, 62481, Note_on_c, 0, 58, 0
2, 62483, Note_on_c, 0, 55, 0
2, 62572, Note_on_c, 0, 58, 76
2, 62577, Note_on_c, 0, 55, 32
2, 62596, Note_on_c, 0, 51, 0
2, 62637, Note_on_c, 0, 58, 0
2, 62646, Note_on_c, 0, 55, 0
2, 62716, Note_on_c, 0, 61, 68
2, 62716, Note_on_c, 0, 58, 58
2, 62788, Note_on_c, 0, 61, 0
2, 62797, Note_on_c, 0, 58, 0
2, 62901, Note_on_c, 0, 44, 26
2, 62917, Note_on_c, 0, 51, 25
2, 62925, Control_c, 0, 64, 0
2, 62927, Note_on_c, 0, 59, 53
2, 62934, Note_on_c, 0, 56, 44
2, 62975, Note_on_c, 0, 39, 0
2, 63169, Control_c, 0, 64, 127
2, 63193, Note_on_c, 0, 56, 0
2, 63304, Note_on_c, 0, 59, 0
2, 63328, Note_on_c, 0, 68, 57
2, 63431, Note_on_c, 0, 63, 0
2, 63448, Control_c, 0, 64, 0
2, 63498, Note_on_c, 0, 44, 0
2, 63529, Note_on_c, 0, 51, 0
2, 63601, Control_c, 0, 64, 127
2, 63765, Note_on_c, 0, 66, 51
2, 63858, Note_on_c, 0, 68, 0
2, 63923, Control_c, 0, 64, 0
2, 64139, Control_c, 0, 64, 127
2, 64257, Note_on_c, 0, 64, 40
2, 64314, Note_on_c, 0, 66, 0
2, 64477, Control_c, 0, 64, 0
2, 64691, Control_c, 0, 64, 127
2, 64945, Note_on_c, 0, 63, 30
2, 64965, Note_on_c, 0, 64, 0
2, 65075, Control_c, 0, 64, 0
2, 65291, Control_c, 0, 64, 127
2, 65301, Note_on_c, 0, 63, 0
2, 65857, Note_on_c, 0, 39, 110
2, 65857, Note_on_c, 0, 51, 112
2, 65862, Note_on_c, 0, 27, 109
2, 65944, Note_on_c, 0, 39, 0
2, 65953, Note_on_c, 0, 27, 0
2, 65968, Note_on_c, 0, 51, 0
2, 66013, Control_c, 0, 64, 0
2, 66306, Note_on_c, 0, 56, 112
2, 66309, Note_on_c, 0, 44, 106
2, 66311, Note_on_c, 0, 32, 106
2, 66390, Note_on_c, 0, 44, 0
2, 66397, Control_c, 0, 64, 127
2, 66400, Note_on_c, 0, 32, 0
2, 66402, Note_on_c, 0, 56, 0
2, 66659, Control_c, 0, 64, 0
2, 66659, End_track
0, 0, End_of_file
