0, 0, Header, 1, 2, 120
1, 0, Start_track
1, 0, Time_signature, 4, 2, 24, 8
1, 0, Key_signature, 6, "major"
1, 0, Tempo, 500000
1, 0, End_track
2, 0, Start_track
2, 0, MIDI_port, 0
2, 0, Title_t, "  "
2, 0, Note_on_c, 0, 70, 46
2, 2, Note_on_c, 0, 61, 20
2, 5, Note_on_c, 0, 42, 23
2, 7, Note_on_c, 0, 66, 22
2, 40, Control_c, 0, 64, 127
2, 72, Note_on_c, 0, 42, 0
2, 100, Note_on_c, 0, 53, 16
2, 152, Note_on_c, 0, 53, 0
2, 168, Note_on_c, 0, 56, 28
2, 220, Note_on_c, 0, 56, 0
2, 231, Note_on_c, 0, 54, 32
2, 233, Control_c, 0, 64, 0
2, 279, Control_c, 0, 64, 127
2, 291, Note_on_c, 0, 54, 0
2, 301, Note_on_c, 0, 58, 35
2, 334, Note_on_c, 0, 58, 0
2, 341, Note_on_c, 0, 66, 0
2, 341, Note_on_c, 0, 61, 0
2, 345, Note_on_c, 0, 70, 0
2, 367, Note_on_c, 0, 49, 33
2, 404, Note_on_c, 0, 49, 0
2, 435, Note_on_c, 0, 70, 60
2, 437, Note_on_c, 0, 61, 29
2, 441, Note_on_c, 0, 42, 15
2, 445, Note_on_c, 0, 66, 29
2, 456, Control_c, 0, 64, 0
2, 495, Note_on_c, 0, 42, 0
2, 498, Control_c, 0, 64, 127
2, 503, Note_on_c, 0, 53, 29
2, 555, Note_on_c, 0, 53, 0
2, 565, Note_on_c, 0, 56, 29
2, 611, Note_on_c, 0, 56, 0
2, 625, Note_on_c, 0, 54, 29
2, 682, Note_on_c, 0, 54, 0
2, 698, Note_on_c, 0, 58, 33
2, 735, Note_on_c, 0, 58, 0
2, 745, Note_on_c, 0, 66, 0
2, 746, Note_on_c, 0, 61, 0
2, 747, Note_on_c, 0, 70, 0
2, 770, Note_on_c, 0, 49, 32
2, 815, Note_on_c, 0, 49, 0
2, 844, Note_on_c, 0, 70, 48
2, 847, Note_on_c, 0, 61, 28
2, 847, Note_on_c, 0, 42, 28
2, 853, Note_on_c, 0, 66, 25
2, 855, Control_c, 0, 64, 0
2, 909, Note_on_c, 0, 42, 0
2, 909, Control_c, 0, 64, 127
2, 921, Note_on_c, 0, 53, 29
2, 967, Note_on_c, 0, 53, 0
2, 984, Note_on_c, 0, 56, 35
2, 1040, Note_on_c, 0, 56, 0
2, 1042, Note_on_c, 0, 54, 28
2, 1099, Note_on_c, 0, 54, 0
2, 1105, Note_on_c, 0, 58, 42
2, 1123, Note_on_c, 0, 58, 0
2, 1145, Note_on_c, 0, 66, 0
2, 1170, Note_on_c, 0, 49, 35
2, 1173, Note_on_c, 0, 70, 0
2, 1191, Note_on_c, 0, 49, 0
2, 1251, Note_on_c, 0, 37, 42
2, 1256, Note_on_c, 0, 71, 48
2, 1258, Control_c, 0, 64, 0
2, 1261, Note_on_c, 0, 65, 33
2, 1308, Note_on_c, 0, 37, 0
2, 1309, Control_c, 0, 64, 127
2, 1361, Note_on_c, 0, 55, 43
2, 1412, Note_on_c, 0, 55, 0
2, 1435, Note_on_c, 0, 58, 50
2, 1499, Note_on_c, 0, 58, 0
2, 1506, Note_on_c, 0, 56, 47
2, 1577, Note_on_c, 0, 68, 48
2, 1581, Note_on_c, 0, 56, 0
2, 1584, Note_on_c, 0, 59, 29
2, 1589, Control_c, 0, 64, 0
2, 1610, Note_on_c, 0, 71, 0
2, 1631, Control_c, 0, 64, 127
2, 1640, Note_on_c, 0, 65, 0
2, 1645, Note_on_c, 0, 59, 0
2, 1654, Note_on_c, 0, 49, 32
2, 1657, Note_on_c, 0, 61, 0
2, 1683, Note_on_c, 0, 49, 0
2, 1725, Note_on_c, 0, 70, 48
2, 1729, Note_on_c, 0, 61, 29
2, 1729, Note_on_c, 0, 66, 23
2, 1734, Note_on_c, 0, 42, 29
2, 1735, Control_c, 0, 64, 0
2, 1751, Note_on_c, 0, 68, 0
2, 1795, Note_on_c, 0, 42, 0
2, 1797, Control_c, 0, 64, 127
2, 1810, Note_on_c, 0, 53, 31
2, 1849, Note_on_c, 0, 53, 0
2, 1872, Note_on_c, 0, 56, 36
2, 1917, Note_on_c, 0, 56, 0
2, 1934, Note_on_c, 0, 54, 38
2, 1965, Control_c, 0, 64, 0
2, 2001, Note_on_c, 0, 54, 0
2, 2003, Note_on_c, 0, 58, 35
2, 2008, Control_c, 0, 64, 127
2, 2054, Note_on_c, 0, 58, 0
2, 2067, Note_on_c, 0, 66, 0
2, 2068, Note_on_c, 0, 70, 0
2, 2071, Note_on_c, 0, 49, 41
2, 2072, Note_on_c, 0, 61, 0
2, 2109, Note_on_c, 0, 49, 0
2, 2139, Note_on_c, 0, 70, 65
2, 2142, Note_on_c, 0, 42, 29
2, 2143, Note_on_c, 0, 61, 35
2, 2147, Note_on_c, 0, 66, 32
2, 2190, Note_on_c, 0, 42, 0
2, 2210, Note_on_c, 0, 53, 44
2, 2267, Note_on_c, 0, 53, 0
2, 2274, Note_on_c, 0, 56, 46
2, 2315, Note_on_c, 0, 70, 0
2, 2318, Note_on_c, 0, 56, 0
2, 2332, Note_on_c, 0, 66, 0
2, 2333, Note_on_c, 0, 54, 31
2, 2402, Note_on_c, 0, 54, 0
2, 2419, Note_on_c, 0, 58, 35
2, 2422, Note_on_c, 0, 70, 73
2, 2431, Note_on_c, 0, 66, 34
2, 2455, Note_on_c, 0, 61, 0
2, 2470, Note_on_c, 0, 58, 0
2, 2483, Note_on_c, 0, 49, 42
2, 2492, Note_on_c, 0, 66, 0
2, 2496, Note_on_c, 0, 70, 0
2, 2526, Note_on_c, 0, 49, 0
2, 2538, Note_on_c, 0, 66, 61
2, 2539, Note_on_c, 0, 42, 36
2, 2539, Note_on_c, 0, 70, 63
2, 2547, Note_on_c, 0, 61, 31
2, 2561, Control_c, 0, 64, 0
2, 2611, Control_c, 0, 64, 127
2, 2615, Note_on_c, 0, 42, 0
2, 2625, Note_on_c, 0, 53, 35
2, 2626, Note_on_c, 0, 70, 0
2, 2631, Note_on_c, 0, 71, 58
2, 2634, Note_on_c, 0, 68, 54
2, 2640, Note_on_c, 0, 66, 0
2, 2679, Note_on_c, 0, 68, 0
2, 2680, Note_on_c, 0, 53, 0
2, 2688, Note_on_c, 0, 56, 44
2, 2714, Note_on_c, 0, 70, 69
2, 2716, Note_on_c, 0, 66, 56
2, 2726, Note_on_c, 0, 71, 0
2, 2747, Note_on_c, 0, 56, 0
2, 2756, Note_on_c, 0, 54, 35
2, 2758, Note_on_c, 0, 66, 0
2, 2784, Note_on_c, 0, 68, 66
2, 2787, Note_on_c, 0, 65, 65
2, 2799, Note_on_c, 0, 70, 0
2, 2811, Control_c, 0, 64, 0
2, 2815, Note_on_c, 0, 54, 0
2, 2829, Note_on_c, 0, 58, 45
2, 2841, Note_on_c, 0, 65, 0
2, 2845, Control_c, 0, 64, 127
2, 2868, Note_on_c, 0, 58, 0
2, 2869, Note_on_c, 0, 70, 69
2, 2876, Note_on_c, 0, 66, 53
2, 2884, Note_on_c, 0, 68, 0
2, 2898, Note_on_c, 0, 49, 29
2, 2925, Note_on_c, 0, 49, 0
2, 2931, Note_on_c, 0, 66, 0
2, 2943, Note_on_c, 0, 70, 0
2, 2980, Control_c, 0, 64, 0
2, 2982, Note_on_c, 0, 73, 51
2, 2988, Note_on_c, 0, 37, 31
2, 2989, Note_on_c, 0, 65, 31
2, 2990, Note_on_c, 0, 70, 49
2, 3032, Note_on_c, 0, 37, 0
2, 3045, Control_c, 0, 64, 127
2, 3093, Note_on_c, 0, 55, 27
2, 3120, Note_on_c, 0, 73, 0
2, 3147, Note_on_c, 0, 55, 0
2, 3169, Note_on_c, 0, 70, 0
2, 3171, Note_on_c, 0, 58, 29
2, 3171, Note_on_c, 0, 68, 29
2, 3176, Note_on_c, 0, 71, 36
2, 3241, Note_on_c, 0, 56, 32
2, 3244, Note_on_c, 0, 58, 0
2, 3245, Control_c, 0, 64, 0
2, 3292, Note_on_c, 0, 68, 0
2, 3295, Control_c, 0, 64, 127
2, 3307, Note_on_c, 0, 61, 0
2, 3309, Note_on_c, 0, 65, 0
2, 3310, Note_on_c, 0, 56, 0
2, 3314, Note_on_c, 0, 71, 0
2, 3322, Note_on_c, 0, 59, 26
2, 3374, Note_on_c, 0, 59, 0
2, 3403, Note_on_c, 0, 61, 23
2, 3403, Note_on_c, 0, 68, 37
2, 3408, Note_on_c, 0, 49, 22
2, 3447, Note_on_c, 0, 61, 0
2, 3485, Note_on_c, 0, 49, 0
2, 3495, Control_c, 0, 64, 0
2, 3495, Note_on_c, 0, 70, 48
2, 3496, Note_on_c, 0, 61, 23
2, 3499, Note_on_c, 0, 42, 23
2, 3503, Note_on_c, 0, 66, 30
2, 3507, Note_on_c, 0, 68, 0
2, 3552, Control_c, 0, 64, 127
2, 3553, Note_on_c, 0, 42, 0
2, 3569, Note_on_c, 0, 53, 34
2, 3620, Note_on_c, 0, 53, 0
2, 3629, Note_on_c, 0, 56, 41
2, 3685, Note_on_c, 0, 56, 0
2, 3693, Note_on_c, 0, 54, 41
2, 3745, Note_on_c, 0, 54, 0
2, 3756, Note_on_c, 0, 58, 54
2, 3786, Note_on_c, 0, 61, 0
2, 3790, Note_on_c, 0, 58, 0
2, 3822, Note_on_c, 0, 70, 0
2, 3822, Note_on_c, 0, 49, 54
2, 3873, Note_on_c, 0, 49, 0
2, 3889, Note_on_c, 0, 73, 73
2, 3890, Note_on_c, 0, 42, 40
2, 3895, Note_on_c, 0, 61, 50
2, 3899, Note_on_c, 0, 70, 42
2, 3910, Note_on_c, 0, 66, 0
2, 3910, Control_c, 0, 64, 0
2, 3952, Note_on_c, 0, 42, 0
2, 3952, Control_c, 0, 64, 127
2, 3955, Note_on_c, 0, 53, 48
2, 4017, Note_on_c, 0, 56, 50
2, 4027, Note_on_c, 0, 53, 0
2, 4033, Note_on_c, 0, 61, 0
2, 4073, Note_on_c, 0, 56, 0
2, 4074, Note_on_c, 0, 54, 51
2, 4088, Note_on_c, 0, 70, 0
2, 4135, Note_on_c, 0, 54, 0
2, 4141, Note_on_c, 0, 58, 67
2, 4183, Note_on_c, 0, 58, 0
2, 4212, Note_on_c, 0, 49, 54
2, 4230, Note_on_c, 0, 49, 0
2, 4293, Note_on_c, 0, 39, 55
2, 4297, Control_c, 0, 64, 0
2, 4314, Note_on_c, 0, 78, 77
2, 4316, Note_on_c, 0, 66, 60
2, 4320, Note_on_c, 0, 70, 58
2, 4331, Note_on_c, 0, 73, 0
2, 4352, Note_on_c, 0, 39, 0
2, 4355, Control_c, 0, 64, 127
2, 4398, Note_on_c, 0, 57, 56
2, 4462, Note_on_c, 0, 57, 0
2, 4467, Note_on_c, 0, 60, 60
2, 4530, Note_on_c, 0, 60, 0
2, 4531, Note_on_c, 0, 58, 62
2, 4604, Note_on_c, 0, 63, 43
2, 4613, Note_on_c, 0, 58, 0
2, 4671, Note_on_c, 0, 54, 44
2, 4673, Note_on_c, 0, 63, 0
2, 4684, Note_on_c, 0, 54, 0
2, 4690, Note_on_c, 0, 78, 0
2, 4691, Note_on_c, 0, 66, 0
2, 4734, Note_on_c, 0, 44, 42
2, 4737, Note_on_c, 0, 77, 61
2, 4739, Note_on_c, 0, 68, 48
2, 4740, Control_c, 0, 64, 0
2, 4744, Note_on_c, 0, 73, 35
2, 4757, Note_on_c, 0, 70, 0
2, 4800, Note_on_c, 0, 44, 0
2, 4800, Control_c, 0, 64, 127
2, 4807, Note_on_c, 0, 55, 48
2, 4851, Note_on_c, 0, 55, 0
2, 4859, Note_on_c, 0, 58, 48
2, 4920, Note_on_c, 0, 58, 0
2, 4921, Note_on_c, 0, 56, 45
2, 4951, Control_c, 0, 64, 0
2, 4989, Note_on_c, 0, 61, 46
2, 4991, Note_on_c, 0, 56, 0
2, 4997, Control_c, 0, 64, 127
2, 5020, Note_on_c, 0, 73, 0
2, 5029, Note_on_c, 0, 61, 0
2, 5030, Note_on_c, 0, 77, 0
2, 5039, Note_on_c, 0, 68, 0
2, 5061, Note_on_c, 0, 53, 34
2, 5075, Note_on_c, 0, 53, 0
2, 5077, Note_on_c, 0, 66, 46
2, 5104, Note_on_c, 0, 68, 46
2, 5135, Note_on_c, 0, 77, 48
2, 5142, Note_on_c, 0, 44, 29
2, 5158, Control_c, 0, 64, 0
2, 5174, Note_on_c, 0, 75, 55
2, 5187, Note_on_c, 0, 77, 0
2, 5226, Note_on_c, 0, 44, 0
2, 5231, Control_c, 0, 64, 127
2, 5240, Note_on_c, 0, 55, 35
2, 5274, Note_on_c, 0, 55, 0
2, 5301, Note_on_c, 0, 58, 39
2, 5367, Note_on_c, 0, 58, 0
2, 5371, Note_on_c, 0, 56, 32
2, 5439, Control_c, 0, 64, 0
2, 5461, Note_on_c, 0, 60, 23
2, 5465, Note_on_c, 0, 56, 0
2, 5500, Control_c, 0, 64, 127
2, 5524, Note_on_c, 0, 60, 0
2, 5525, Note_on_c, 0, 68, 0
2, 5557, Note_on_c, 0, 51, 19
2, 5571, Note_on_c, 0, 66, 0
2, 5590, Note_on_c, 0, 51, 0
2, 5627, Note_on_c, 0, 49, 29
2, 5630, Note_on_c, 0, 73, 29
2, 5631, Note_on_c, 0, 65, 26
2, 5633, Note_on_c, 0, 68, 21
2, 5642, Control_c, 0, 64, 0
2, 5669, Note_on_c, 0, 75, 0
2, 5711, Note_on_c, 0, 49, 0
2, 5714, Note_on_c, 0, 55, 28
2, 5727, Control_c, 0, 64, 127
2, 5768, Note_on_c, 0, 55, 0
2, 5779, Note_on_c, 0, 58, 35
2, 5800, Control_c, 0, 64, 0
2, 5838, Control_c, 0, 64, 127
2, 5842, Note_on_c, 0, 58, 0
2, 5844, Note_on_c, 0, 56, 35
2, 5865, Control_c, 0, 64, 0
2, 5911, Note_on_c, 0, 56, 0
2, 5911, Control_c, 0, 64, 127
2, 5913, Note_on_c, 0, 61, 34
2, 5938, Control_c, 0, 64, 0
2, 5984, Control_c, 0, 64, 127
2, 5985, Note_on_c, 0, 53, 30
2, 5991, Note_on_c, 0, 61, 0
2, 6007, Control_c, 0, 64, 0
2, 6048, Note_on_c, 0, 53, 0
2, 6054, Control_c, 0, 64, 127
2, 6054, Note_on_c, 0, 56, 34
2, 6069, Control_c, 0, 64, 0
2, 6070, Note_on_c, 0, 65, 0
2, 6084, Note_on_c, 0, 68, 0
2, 6089, Note_on_c, 0, 73, 0
2, 6117, Note_on_c, 0, 54, 40
2, 6123, Control_c, 0, 64, 127
2, 6134, Note_on_c, 0, 56, 0
2, 6142, Control_c, 0, 64, 0
2, 6188, Control_c, 0, 64, 127
2, 6189, Note_on_c, 0, 59, 35
2, 6190, Note_on_c, 0, 54, 0
2, 6211, Control_c, 0, 64, 0
2, 6253, Control_c, 0, 64, 127
2, 6254, Note_on_c, 0, 51, 38
2, 6260, Note_on_c, 0, 59, 0
2, 6273, Control_c, 0, 64, 0
2, 6317, Note_on_c, 0, 54, 37
2, 6322, Control_c, 0, 64, 127
2, 6328, Note_on_c, 0, 51, 0
2, 6338, Control_c, 0, 64, 0
2, 6386, Note_on_c, 0, 53, 40
2, 6388, Control_c, 0, 64, 127
2, 6390, Note_on_c, 0, 54, 0
2, 6403, Control_c, 0, 64, 0
2, 6449, Control_c, 0, 64, 127
2, 6453, Note_on_c, 0, 53, 0
2, 6454, Note_on_c, 0, 58, 43
2, 6476, Control_c, 0, 64, 0
2, 6522, Control_c, 0, 64, 127
2, 6526, Note_on_c, 0, 58, 0
2, 6526, Note_on_c, 0, 49, 35
2, 6541, Control_c, 0, 64, 0
2, 6588, Control_c, 0, 64, 127
2, 6602, Note_on_c, 0, 58, 40
2, 6604, Note_on_c, 0, 49, 0
2, 6607, Control_c, 0, 64, 0
2, 6657, Control_c, 0, 64, 127
2, 6689, Note_on_c, 0, 58, 0
2, 6696, Note_on_c, 0, 47, 23
2, 6726, Control_c, 0, 64, 0
2, 6768, Control_c, 0, 64, 127
2, 6786, Note_on_c, 0, 58, 28
2, 6790, Note_on_c, 0, 47, 0
2, 6866, Note_on_c, 0, 58, 0
2, 6889, Note_on_c, 0, 56, 27
2, 6939, Note_on_c, 0, 58, 42
2, 6952, Note_on_c, 0, 56, 0
2, 7036, Note_on_c, 0, 70, 57
2, 7038, Note_on_c, 0, 42, 27
2, 7039, Note_on_c, 0, 66, 23
2, 7048, Note_on_c, 0, 61, 17
2, 7060, Control_c, 0, 64, 0
2, 7122, Control_c, 0, 64, 127
2, 7126, Note_on_c, 0, 42, 0
2, 7141, Note_on_c, 0, 53, 20
2, 7158, Note_on_c, 0, 58, 0
2, 7190, Note_on_c, 0, 53, 0
2, 7216, Note_on_c, 0, 56, 29
2, 7270, Note_on_c, 0, 56, 0
2, 7282, Note_on_c, 0, 54, 26
2, 7321, Note_on_c, 0, 61, 0
2, 7322, Note_on_c, 0, 54, 0
2, 7347, Note_on_c, 0, 58, 29
2, 7357, Note_on_c, 0, 66, 0
2, 7368, Note_on_c, 0, 58, 0
2, 7393, Note_on_c, 0, 70, 0
2, 7409, Note_on_c, 0, 49, 29
2, 7428, Note_on_c, 0, 49, 0
2, 7471, Note_on_c, 0, 42, 18
2, 7477, Note_on_c, 0, 70, 56
2, 7479, Control_c, 0, 64, 0
2, 7483, Note_on_c, 0, 61, 15
2, 7488, Note_on_c, 0, 66, 19
2, 7527, Note_on_c, 0, 42, 0
2, 7529, Control_c, 0, 64, 127
2, 7546, Note_on_c, 0, 53, 29
2, 7580, Note_on_c, 0, 53, 0
2, 7608, Note_on_c, 0, 56, 29
2, 7649, Note_on_c, 0, 56, 0
2, 7663, Note_on_c, 0, 54, 29
2, 7669, Note_on_c, 0, 61, 0
2, 7709, Note_on_c, 0, 54, 0
2, 7725, Note_on_c, 0, 66, 0
2, 7725, Note_on_c, 0, 58, 48
2, 7731, Note_on_c, 0, 70, 0
2, 7758, Note_on_c, 0, 58, 0
2, 7785, Note_on_c, 0, 49, 43
2, 7823, Note_on_c, 0, 49, 0
2, 7850, Note_on_c, 0, 70, 67
2, 7850, Note_on_c, 0, 42, 25
2, 7852, Note_on_c, 0, 61, 37
2, 7857, Note_on_c, 0, 66, 34
2, 7882, Control_c, 0, 64, 0
2, 7913, Note_on_c, 0, 42, 0
2, 7918, Note_on_c, 0, 53, 33
2, 7924, Control_c, 0, 64, 127
2, 7965, Note_on_c, 0, 53, 0
2, 7990, Note_on_c, 0, 56, 34
2, 8043, Note_on_c, 0, 56, 0
2, 8058, Note_on_c, 0, 54, 24
2, 8074, Control_c, 0, 64, 0
2, 8109, Control_c, 0, 64, 127
2, 8120, Note_on_c, 0, 54, 0
2, 8125, Note_on_c, 0, 58, 31
2, 8164, Note_on_c, 0, 58, 0
2, 8195, Note_on_c, 0, 49, 28
2, 8213, Note_on_c, 0, 49, 0
2, 8277, Note_on_c, 0, 66, 0
2, 8278, Note_on_c, 0, 71, 54
2, 8278, Note_on_c, 0, 65, 42
2, 8278, Control_c, 0, 64, 0
2, 8280, Note_on_c, 0, 37, 25
2, 8297, Note_on_c, 0, 70, 0
2, 8326, Note_on_c, 0, 37, 0
2, 8335, Control_c, 0, 64, 127
2, 8380, Note_on_c, 0, 55, 38
2, 8431, Note_on_c, 0, 55, 0
2, 8455, Note_on_c, 0, 58, 46
2, 8485, Control_c, 0, 64, 0
2, 8512, Control_c, 0, 64, 127
2, 8521, Note_on_c, 0, 58, 0
2, 8525, Note_on_c, 0, 56, 35
2, 8559, Control_c, 0, 64, 0
2, 8610, Note_on_c, 0, 56, 0
2, 8616, Control_c, 0, 64, 127
2, 8622, Note_on_c, 0, 59, 22
2, 8639, Control_c, 0, 64, 0
2, 8674, Control_c, 0, 64, 127
2, 8680, Note_on_c, 0, 59, 0
2, 8701, Note_on_c, 0, 49, 18
2, 8719, Note_on_c, 0, 65, 0
2, 8727, Note_on_c, 0, 61, 0
2, 8739, Note_on_c, 0, 49, 0
2, 8739, Note_on_c, 0, 68, 37
2, 8790, Note_on_c, 0, 70, 50
2, 8793, Note_on_c, 0, 42, 24
2, 8796, Note_on_c, 0, 68, 0
2, 8796, Note_on_c, 0, 61, 24
2, 8797, Control_c, 0, 64, 0
2, 8797, Note_on_c, 0, 66, 22
2, 8804, Note_on_c, 0, 71, 0
2, 8858, Note_on_c, 0, 42, 0
2, 8858, Control_c, 0, 64, 127
2, 8872, Note_on_c, 0, 53, 27
2, 8912, Note_on_c, 0, 53, 0
2, 8935, Note_on_c, 0, 56, 35
2, 8989, Note_on_c, 0, 56, 0
2, 8999, Note_on_c, 0, 54, 31
2, 9016, Control_c, 0, 64, 0
2, 9054, Control_c, 0, 64, 127
2, 9060, Note_on_c, 0, 54, 0
2, 9063, Note_on_c, 0, 58, 34
2, 9107, Note_on_c, 0, 58, 0
2, 9123, Note_on_c, 0, 61, 0
2, 9130, Note_on_c, 0, 70, 0
2, 9131, Note_on_c, 0, 66, 0
2, 9133, Note_on_c, 0, 49, 36
2, 9183, Note_on_c, 0, 49, 0
2, 9210, Note_on_c, 0, 70, 56
2, 9212, Note_on_c, 0, 42, 25
2, 9215, Note_on_c, 0, 61, 37
2, 9219, Note_on_c, 0, 66, 36
2, 9261, Note_on_c, 0, 42, 0
2, 9286, Note_on_c, 0, 53, 36
2, 9332, Note_on_c, 0, 61, 0
2, 9357, Note_on_c, 0, 66, 0
2, 9363, Note_on_c, 0, 70, 0
2, 9368, Note_on_c, 0, 56, 42
2, 9384, Note_on_c, 0, 53, 0
2, 9407, Note_on_c, 0, 70, 73
2, 9408, Note_on_c, 0, 61, 62
2, 9411, Note_on_c, 0, 66, 51
2, 9435, Note_on_c, 0, 66, 0
2, 9440, Note_on_c, 0, 61, 0
2, 9454, Note_on_c, 0, 54, 36
2, 9456, Note_on_c, 0, 70, 0
2, 9456, Note_on_c, 0, 56, 0
2, 9480, Note_on_c, 0, 70, 59
2, 9485, Note_on_c, 0, 61, 49
2, 9486, Note_on_c, 0, 66, 58
2, 9510, Note_on_c, 0, 61, 0
2, 9525, Note_on_c, 0, 66, 0
2, 9526, Note_on_c, 0, 70, 0
2, 9544, Note_on_c, 0, 58, 48
2, 9547, Note_on_c, 0, 70, 61
2, 9548, Note_on_c, 0, 54, 0
2, 9549, Note_on_c, 0, 61, 62
2, 9550, Note_on_c, 0, 66, 42
2, 9577, Note_on_c, 0, 61, 0
2, 9584, Note_on_c, 0, 66, 0
2, 9587, Note_on_c, 0, 70, 0
2, 9603, Note_on_c, 0, 70, 73
2, 9605, Note_on_c, 0, 66, 51
2, 9607, Note_on_c, 0, 61, 54
2, 9608, Note_on_c, 0, 58, 0
2, 9627, Note_on_c, 0, 49, 47
2, 9630, Note_on_c, 0, 61, 0
2, 9635, Note_on_c, 0, 66, 0
2, 9637, Note_on_c, 0, 70, 0
2, 9652, Note_on_c, 0, 70, 81
2, 9653, Note_on_c, 0, 66, 60
2, 9655, Note_on_c, 0, 61, 57
2, 9678, Note_on_c, 0, 61, 0
2, 9680, Note_on_c, 0, 66, 0
2, 9687, Note_on_c, 0, 70, 0
2, 9690, Note_on_c, 0, 42, 35
2, 9692, Note_on_c, 0, 49, 0
2, 9704, Note_on_c, 0, 66, 55
2, 9704, Note_on_c, 0, 70, 76
2, 9706, Note_on_c, 0, 61, 49
2, 9742, Control_c, 0, 64, 0
2, 9769, Control_c, 0, 64, 127
2, 9772, Note_on_c, 0, 53, 46
2, 9774, Note_on_c, 0, 42, 0
2, 9835, Note_on_c, 0, 56, 53
2, 9837, Note_on_c, 0, 53, 0
2, 9837, Note_on_c, 0, 71, 69
2, 9838, Note_on_c, 0, 68, 62
2, 9847, Note_on_c, 0, 66, 0
2, 9853, Note_on_c, 0, 70, 0
2, 9884, Note_on_c, 0, 68, 0
2, 9904, Note_on_c, 0, 56, 0
2, 9906, Note_on_c, 0, 70, 87
2, 9910, Note_on_c, 0, 66, 60
2, 9913, Note_on_c, 0, 54, 44
2, 9925, Note_on_c, 0, 71, 0
2, 9946, Note_on_c, 0, 66, 0
2, 9971, Note_on_c, 0, 54, 0
2, 9980, Note_on_c, 0, 58, 59
2, 9982, Note_on_c, 0, 68, 80
2, 9983, Note_on_c, 0, 65, 71
2, 9999, Note_on_c, 0, 70, 0
2, 10014, Note_on_c, 0, 65, 0
2, 10026, Note_on_c, 0, 58, 0
2, 10057, Note_on_c, 0, 49, 41
2, 10063, Note_on_c, 0, 66, 65
2, 10064, Note_on_c, 0, 70, 83
2, 10080, Note_on_c, 0, 68, 0
2, 10096, Note_on_c, 0, 49, 0
2, 10132, Note_on_c, 0, 66, 0
2, 10134, Note_on_c, 0, 70, 0
2, 10156, Note_on_c, 0, 37, 38
2, 10168, Control_c, 0, 64, 0
2, 10179, Note_on_c, 0, 73, 70
2, 10182, Note_on_c, 0, 65, 42
2, 10183, Note_on_c, 0, 70, 54
2, 10225, Note_on_c, 0, 37, 0
2, 10230, Control_c, 0, 64, 127
2, 10294, Note_on_c, 0, 55, 31
2, 10314, Note_on_c, 0, 73, 0
2, 10352, Note_on_c, 0, 55, 0
2, 10371, Note_on_c, 0, 71, 46
2, 10372, Note_on_c, 0, 58, 29
2, 10378, Note_on_c, 0, 70, 0
2, 10379, Note_on_c, 0, 68, 29
2, 10441, Control_c, 0, 64, 0
2, 10442, Note_on_c, 0, 56, 36
2, 10444, Note_on_c, 0, 58, 0
2, 10474, Note_on_c, 0, 56, 0
2, 10483, Control_c, 0, 64, 127
2, 10506, Note_on_c, 0, 61, 0
2, 10509, Note_on_c, 0, 65, 0
2, 10517, Note_on_c, 0, 68, 0
2, 10528, Note_on_c, 0, 59, 19
2, 10569, Note_on_c, 0, 59, 0
2, 10615, Note_on_c, 0, 61, 34
2, 10617, Note_on_c, 0, 68, 38
2, 10618, Note_on_c, 0, 49, 19
2, 10656, Note_on_c, 0, 71, 0
2, 10686, Note_on_c, 0, 49, 0
2, 10710, Control_c, 0, 64, 0
2, 10711, Note_on_c, 0, 70, 52
2, 10713, Note_on_c, 0, 42, 22
2, 10720, Note_on_c, 0, 64, 32
2, 10748, Note_on_c, 0, 68, 0
2, 10775, Control_c, 0, 64, 127
2, 10780, Note_on_c, 0, 42, 0
2, 10794, Note_on_c, 0, 53, 24
2, 10848, Note_on_c, 0, 53, 0
2, 10860, Note_on_c, 0, 56, 33
2, 10910, Note_on_c, 0, 56, 0
2, 10929, Note_on_c, 0, 54, 43
2, 10986, Note_on_c, 0, 54, 0
2, 10992, Note_on_c, 0, 58, 53
2, 11010, Note_on_c, 0, 64, 0
2, 11011, Note_on_c, 0, 70, 0
2, 11043, Note_on_c, 0, 58, 0
2, 11056, Note_on_c, 0, 49, 46
2, 11113, Note_on_c, 0, 49, 0
2, 11121, Note_on_c, 0, 70, 73
2, 11130, Note_on_c, 0, 64, 42
2, 11132, Note_on_c, 0, 42, 29
2, 11177, Note_on_c, 0, 61, 0
2, 11184, Note_on_c, 0, 42, 0
2, 11196, Note_on_c, 0, 53, 35
2, 11266, Note_on_c, 0, 53, 0
2, 11269, Note_on_c, 0, 56, 33
2, 11320, Note_on_c, 0, 56, 0
2, 11327, Note_on_c, 0, 54, 28
2, 11375, Note_on_c, 0, 54, 0
2, 11394, Note_on_c, 0, 58, 48
2, 11429, Note_on_c, 0, 58, 0
2, 11458, Note_on_c, 0, 49, 38
2, 11461, Note_on_c, 0, 70, 0
2, 11472, Note_on_c, 0, 71, 72
2, 11491, Note_on_c, 0, 64, 0
2, 11508, Note_on_c, 0, 49, 0
2, 11521, Note_on_c, 0, 42, 33
2, 11530, Note_on_c, 0, 73, 80
2, 11535, Note_on_c, 0, 64, 54
2, 11536, Note_on_c, 0, 70, 63
2, 11547, Control_c, 0, 64, 0
2, 11550, Note_on_c, 0, 71, 0
2, 11597, Note_on_c, 0, 42, 0
2, 11605, Control_c, 0, 64, 127
2, 11606, Note_on_c, 0, 53, 31
2, 11653, Note_on_c, 0, 53, 0
2, 11679, Note_on_c, 0, 56, 52
2, 11734, Note_on_c, 0, 56, 0
2, 11742, Note_on_c, 0, 54, 42
2, 11801, Note_on_c, 0, 64, 0
2, 11802, Note_on_c, 0, 54, 0
2, 11805, Note_on_c, 0, 70, 0
2, 11807, Note_on_c, 0, 58, 51
2, 11847, Note_on_c, 0, 58, 0
2, 11870, Note_on_c, 0, 49, 44
2, 11915, Note_on_c, 0, 49, 0
2, 11928, Note_on_c, 0, 42, 50
2, 11930, Note_on_c, 0, 75, 76
2, 11935, Note_on_c, 0, 64, 47
2, 11936, Note_on_c, 0, 70, 51
2, 11947, Control_c, 0, 64, 0
2, 11957, Note_on_c, 0, 73, 0
2, 12004, Control_c, 0, 64, 127
2, 12009, Note_on_c, 0, 42, 0
2, 12015, Note_on_c, 0, 53, 34
2, 12049, Note_on_c, 0, 53, 0
2, 12067, Note_on_c, 0, 56, 42
2, 12114, Note_on_c, 0, 56, 0
2, 12125, Note_on_c, 0, 54, 38
2, 12133, Note_on_c, 0, 64, 0
2, 12182, Note_on_c, 0, 54, 0
2, 12188, Note_on_c, 0, 70, 0
2, 12191, Note_on_c, 0, 58, 51
2, 12246, Note_on_c, 0, 58, 0
2, 12264, Note_on_c, 0, 49, 38
2, 12277, Note_on_c, 0, 73, 69
2, 12302, Note_on_c, 0, 75, 0
2, 12319, Note_on_c, 0, 73, 0
2, 12330, Note_on_c, 0, 49, 0
2, 12335, Note_on_c, 0, 47, 45
2, 12340, Note_on_c, 0, 73, 54
2, 12349, Note_on_c, 0, 64, 46
2, 12350, Note_on_c, 0, 70, 40
2, 12362, Control_c, 0, 64, 0
2, 12427, Note_on_c, 0, 54, 35
2, 12442, Control_c, 0, 64, 127
2, 12476, Note_on_c, 0, 47, 0
2, 12485, Note_on_c, 0, 54, 0
2, 12496, Note_on_c, 0, 56, 38
2, 12542, Note_on_c, 0, 56, 0
2, 12561, Note_on_c, 0, 55, 35
2, 12596, Note_on_c, 0, 70, 0
2, 12605, Note_on_c, 0, 55, 0
2, 12618, Note_on_c, 0, 58, 43
2, 12639, Note_on_c, 0, 64, 0
2, 12662, Note_on_c, 0, 58, 0
2, 12681, Note_on_c, 0, 49, 43
2, 12730, Note_on_c, 0, 49, 0
2, 12750, Note_on_c, 0, 71, 48
2, 12754, Note_on_c, 0, 63, 31
2, 12756, Note_on_c, 0, 68, 34
2, 12762, Control_c, 0, 64, 0
2, 12762, Note_on_c, 0, 47, 34
2, 12786, Note_on_c, 0, 73, 0
2, 12823, Control_c, 0, 64, 127
2, 12824, Note_on_c, 0, 47, 0
2, 12831, Note_on_c, 0, 55, 28
2, 12863, Note_on_c, 0, 55, 0
2, 12891, Note_on_c, 0, 58, 36
2, 12949, Note_on_c, 0, 58, 0
2, 12960, Note_on_c, 0, 56, 34
2, 13019, Note_on_c, 0, 56, 0
2, 13038, Note_on_c, 0, 59, 27
2, 13050, Control_c, 0, 64, 0
2, 13092, Control_c, 0, 64, 127
2, 13105, Note_on_c, 0, 59, 0
2, 13116, Note_on_c, 0, 68, 0
2, 13120, Note_on_c, 0, 51, 24
2, 13138, Note_on_c, 0, 63, 0
2, 13151, Note_on_c, 0, 51, 0
2, 13218, Note_on_c, 0, 70, 58
2, 13219, Note_on_c, 0, 39, 37
2, 13220, Note_on_c, 0, 61, 26
2, 13230, Note_on_c, 0, 67, 27
2, 13230, Control_c, 0, 64, 0
2, 13249, Note_on_c, 0, 71, 0
2, 13296, Control_c, 0, 64, 127
2, 13298, Note_on_c, 0, 39, 0
2, 13308, Note_on_c, 0, 50, 35
2, 13348, Note_on_c, 0, 50, 0
2, 13374, Note_on_c, 0, 52, 42
2, 13427, Note_on_c, 0, 52, 0
2, 13432, Note_on_c, 0, 51, 41
2, 13486, Note_on_c, 0, 51, 0
2, 13506, Note_on_c, 0, 55, 32
2, 13512, Note_on_c, 0, 67, 0
2, 13528, Note_on_c, 0, 55, 0
2, 13557, Note_on_c, 0, 61, 0
2, 13574, Note_on_c, 0, 46, 44
2, 13605, Note_on_c, 0, 70, 0
2, 13626, Note_on_c, 0, 46, 0
2, 13644, Note_on_c, 0, 44, 30
2, 13644, Note_on_c, 0, 71, 60
2, 13648, Note_on_c, 0, 68, 43
2, 13650, Note_on_c, 0, 59, 27
2, 13665, Control_c, 0, 64, 0
2, 13708, Note_on_c, 0, 50, 43
2, 13749, Control_c, 0, 64, 127
2, 13779, Note_on_c, 0, 50, 0
2, 13783, Note_on_c, 0, 52, 40
2, 13822, Control_c, 0, 64, 0
2, 13852, Note_on_c, 0, 52, 0
2, 13857, Note_on_c, 0, 51, 36
2, 13864, Control_c, 0, 64, 127
2, 13872, Control_c, 0, 64, 0
2, 13920, Note_on_c, 0, 51, 0
2, 13922, Control_c, 0, 64, 127
2, 13945, Note_on_c, 0, 44, 0
2, 13945, Note_on_c, 0, 56, 25
2, 13967, Note_on_c, 0, 59, 0
2, 13970, Note_on_c, 0, 71, 0
2, 13993, Note_on_c, 0, 68, 0
2, 14005, Note_on_c, 0, 56, 0
2, 14034, Note_on_c, 0, 44, 29
2, 14071, Note_on_c, 0, 63, 44
2, 14111, Note_on_c, 0, 44, 0
2, 14149, Control_c, 0, 64, 0
2, 14152, Note_on_c, 0, 68, 51
2, 14155, Note_on_c, 0, 65, 43
2, 14155, Note_on_c, 0, 37, 25
2, 14160, Note_on_c, 0, 59, 31
2, 14174, Note_on_c, 0, 63, 0
2, 14224, Note_on_c, 0, 37, 0
2, 14226, Control_c, 0, 64, 127
2, 14244, Note_on_c, 0, 48, 33
2, 14294, Note_on_c, 0, 48, 0
2, 14313, Note_on_c, 0, 51, 31
2, 14374, Note_on_c, 0, 51, 0
2, 14374, Note_on_c, 0, 49, 35
2, 14402, Control_c, 0, 64, 0
2, 14437, Note_on_c, 0, 49, 0
2, 14440, Control_c, 0, 64, 127
2, 14448, Note_on_c, 0, 53, 29
2, 14465, Note_on_c, 0, 53, 0
2, 14504, Note_on_c, 0, 68, 0
2, 14507, Note_on_c, 0, 44, 27
2, 14525, Note_on_c, 0, 44, 0
2, 14573, Note_on_c, 0, 70, 42
2, 14577, Note_on_c, 0, 37, 24
2, 14581, Note_on_c, 0, 61, 28
2, 14605, Note_on_c, 0, 37, 0
2, 14643, Note_on_c, 0, 48, 27
2, 14677, Note_on_c, 0, 48, 0
2, 14709, Note_on_c, 0, 51, 29
2, 14728, Control_c, 0, 64, 0
2, 14767, Control_c, 0, 64, 127
2, 14775, Note_on_c, 0, 51, 0
2, 14779, Note_on_c, 0, 49, 29
2, 14841, Note_on_c, 0, 49, 0
2, 14866, Control_c, 0, 64, 0
2, 14871, Note_on_c, 0, 53, 13
2, 14905, Control_c, 0, 64, 127
2, 14914, Note_on_c, 0, 59, 0
2, 14927, Note_on_c, 0, 53, 0
2, 14952, Note_on_c, 0, 65, 0
2, 14958, Note_on_c, 0, 44, 16
2, 15012, Note_on_c, 0, 44, 0
2, 15054, Note_on_c, 0, 61, 0
2, 15054, Note_on_c, 0, 66, 28
2, 15054, Note_on_c, 0, 42, 20
2, 15055, Note_on_c, 0, 58, 29
2, 15086, Control_c, 0, 64, 0
2, 15124, Note_on_c, 0, 70, 0
2, 15151, Control_c, 0, 64, 127
2, 15153, Note_on_c, 0, 48, 26
2, 15174, Control_c, 0, 64, 0
2, 15217, Control_c, 0, 64, 127
2, 15219, Note_on_c, 0, 48, 0
2, 15222, Note_on_c, 0, 51, 26
2, 15251, Control_c, 0, 64, 0
2, 15282, Control_c, 0, 64, 127
2, 15285, Note_on_c, 0, 51, 0
2, 15296, Note_on_c, 0, 49, 27
2, 15305, Control_c, 0, 64, 0
2, 15336, Control_c, 0, 64, 127
2, 15342, Note_on_c, 0, 42, 0
2, 15356, Note_on_c, 0, 49, 0
2, 15376, Note_on_c, 0, 54, 11
2, 15396, Note_on_c, 0, 58, 0
2, 15398, Note_on_c, 0, 54, 0
2, 15417, Note_on_c, 0, 66, 0
2, 15455, Note_on_c, 0, 42, 29
2, 15476, Note_on_c, 0, 42, 0
2, 15555, Note_on_c, 0, 71, 57
2, 15557, Note_on_c, 0, 63, 41
2, 15559, Control_c, 0, 64, 0
2, 15562, Note_on_c, 0, 35, 26
2, 15589, Note_on_c, 0, 35, 0
2, 15597, Control_c, 0, 64, 127
2, 15658, Note_on_c, 0, 53, 25
2, 15707, Note_on_c, 0, 53, 0
2, 15744, Note_on_c, 0, 56, 26
2, 15801, Note_on_c, 0, 56, 0
2, 15812, Note_on_c, 0, 54, 35
2, 15888, Note_on_c, 0, 54, 0
2, 15891, Note_on_c, 0, 59, 27
2, 15911, Note_on_c, 0, 59, 0
2, 15943, Note_on_c, 0, 63, 0
2, 15974, Note_on_c, 0, 47, 19
2, 15996, Note_on_c, 0, 47, 0
2, 16075, Note_on_c, 0, 68, 54
2, 16079, Note_on_c, 0, 37, 32
2, 16081, Note_on_c, 0, 59, 15
2, 16083, Note_on_c, 0, 65, 34
2, 16089, Control_c, 0, 64, 0
2, 16105, Note_on_c, 0, 71, 0
2, 16150, Control_c, 0, 64, 127
2, 16152, Note_on_c, 0, 37, 0
2, 16177, Note_on_c, 0, 48, 26
2, 16222, Note_on_c, 0, 48, 0
2, 16244, Note_on_c, 0, 51, 31
2, 16305, Note_on_c, 0, 51, 0
2, 16309, Note_on_c, 0, 49, 38
2, 16355, Note_on_c, 0, 49, 0
2, 16386, Note_on_c, 0, 53, 36
2, 16410, Note_on_c, 0, 53, 0
2, 16450, Note_on_c, 0, 44, 33
2, 16474, Note_on_c, 0, 44, 0
2, 16482, Note_on_c, 0, 59, 0
2, 16542, Note_on_c, 0, 70, 43
2, 16554, Note_on_c, 0, 37, 29
2, 16556, Note_on_c, 0, 59, 10
2, 16556, Note_on_c, 0, 61, 30
2, 16569, Control_c, 0, 64, 0
2, 16627, Control_c, 0, 64, 127
2, 16632, Note_on_c, 0, 37, 0
2, 16637, Note_on_c, 0, 68, 0
2, 16658, Note_on_c, 0, 48, 27
2, 16691, Note_on_c, 0, 48, 0
2, 16729, Note_on_c, 0, 51, 29
2, 16735, Note_on_c, 0, 59, 0
2, 16792, Note_on_c, 0, 51, 0
2, 16795, Note_on_c, 0, 49, 33
2, 16855, Note_on_c, 0, 49, 0
2, 16863, Note_on_c, 0, 59, 31
2, 16873, Note_on_c, 0, 53, 25
2, 16891, Note_on_c, 0, 61, 0
2, 16896, Note_on_c, 0, 53, 0
2, 16935, Note_on_c, 0, 59, 0
2, 16948, Note_on_c, 0, 44, 29
2, 16987, Note_on_c, 0, 44, 0
2, 16995, Note_on_c, 0, 65, 0
2, 17041, Note_on_c, 0, 42, 26
2, 17047, Note_on_c, 0, 58, 34
2, 17049, Note_on_c, 0, 66, 42
2, 17073, Control_c, 0, 64, 0
2, 17101, Note_on_c, 0, 70, 0
2, 17139, Note_on_c, 0, 48, 28
2, 17157, Control_c, 0, 64, 127
2, 17168, Control_c, 0, 64, 0
2, 17203, Note_on_c, 0, 48, 0
2, 17205, Note_on_c, 0, 51, 32
2, 17211, Control_c, 0, 64, 127
2, 17260, Control_c, 0, 64, 0
2, 17271, Note_on_c, 0, 51, 0
2, 17272, Note_on_c, 0, 49, 37
2, 17299, Control_c, 0, 64, 127
2, 17312, Note_on_c, 0, 42, 0
2, 17315, Note_on_c, 0, 49, 0
2, 17352, Note_on_c, 0, 54, 35
2, 17369, Note_on_c, 0, 54, 0
2, 17422, Note_on_c, 0, 37, 34
2, 17497, Note_on_c, 0, 42, 42
2, 17518, Note_on_c, 0, 37, 0
2, 17518, Control_c, 0, 64, 0
2, 17556, Control_c, 0, 64, 127
2, 17569, Note_on_c, 0, 42, 0
2, 17572, Note_on_c, 0, 48, 40
2, 17643, Note_on_c, 0, 48, 0
2, 17644, Note_on_c, 0, 51, 43
2, 17676, Control_c, 0, 64, 0
2, 17698, Control_c, 0, 64, 127
2, 17719, Note_on_c, 0, 51, 0
2, 17719, Note_on_c, 0, 49, 33
2, 17756, Control_c, 0, 64, 0
2, 17787, Control_c, 0, 64, 127
2, 17817, Note_on_c, 0, 49, 0
2, 17824, Note_on_c, 0, 54, 17
2, 17826, Control_c, 0, 64, 0
2, 17864, Control_c, 0, 64, 127
2, 17898, Note_on_c, 0, 54, 0
2, 17953, Note_on_c, 0, 41, 27
2, 17962, Note_on_c, 0, 58, 0
2, 17989, Note_on_c, 0, 66, 0
2, 18070, Note_on_c, 0, 41, 0
2, 18195, Note_on_c, 0, 78, 45
2, 18202, Note_on_c, 0, 39, 20
2, 18205, Control_c, 0, 64, 0
2, 18263, Control_c, 0, 64, 127
2, 18272, Note_on_c, 0, 39, 0
2, 18411, Note_on_c, 0, 66, 16
2, 18418, Note_on_c, 0, 58, 20
2, 18422, Note_on_c, 0, 51, 19
2, 18456, Note_on_c, 0, 51, 0
2, 18462, Note_on_c, 0, 58, 0
2, 18465, Note_on_c, 0, 66, 0
2, 18537, Note_on_c, 0, 66, 25
2, 18542, Note_on_c, 0, 58, 29
2, 18546, Note_on_c, 0, 51, 19
2, 18569, Note_on_c, 0, 58, 0
2, 18571, Note_on_c, 0, 51, 0
2, 18574, Note_on_c, 0, 66, 0
2, 18636, Note_on_c, 0, 66, 29
2, 18637, Note_on_c, 0, 58, 30
2, 18644, Note_on_c, 0, 51, 31
2, 18660, Note_on_c, 0, 51, 0
2, 18664, Note_on_c, 0, 58, 0
2, 18664, Note_on_c, 0, 66, 0
2, 18757, Note_on_c, 0, 66, 17
2, 18765, Note_on_c, 0, 63, 19
2, 18765, Note_on_c, 0, 51, 10
2, 18802, Note_on_c, 0, 51, 0
2, 18807, Note_on_c, 0, 66, 0
2, 18810, Note_on_c, 0, 63, 0
2, 18888, Note_on_c, 0, 66, 18
2, 18892, Note_on_c, 0, 58, 27
2, 18895, Note_on_c, 0, 51, 21
2, 18926, Note_on_c, 0, 51, 0
2, 18937, Note_on_c, 0, 58, 0
2, 18938, Note_on_c, 0, 66, 0
2, 18980, Note_on_c, 0, 70, 58
2, 18992, Note_on_c, 0, 66, 21
2, 18996, Note_on_c, 0, 58, 29
2, 18999, Note_on_c, 0, 51, 16
2, 19012, Note_on_c, 0, 66, 0
2, 19023, Note_on_c, 0, 51, 0
2, 19035, Note_on_c, 0, 58, 0
2, 19041, Note_on_c, 0, 78, 0
2, 19083, Note_on_c, 0, 66, 27
2, 19087, Note_on_c, 0, 61, 31
2, 19092, Note_on_c, 0, 51, 28
2, 19109, Note_on_c, 0, 51, 0
2, 19121, Note_on_c, 0, 66, 0
2, 19125, Note_on_c, 0, 61, 0
2, 19175, Note_on_c, 0, 66, 33
2, 19176, Note_on_c, 0, 51, 28
2, 19179, Note_on_c, 0, 60, 35
2, 19205, Note_on_c, 0, 60, 0
2, 19214, Note_on_c, 0, 66, 0
2, 19218, Note_on_c, 0, 51, 0
2, 19255, Note_on_c, 0, 58, 52
2, 19259, Note_on_c, 0, 66, 36
2, 19272, Note_on_c, 0, 58, 0
2, 19275, Note_on_c, 0, 51, 26
2, 19294, Note_on_c, 0, 66, 0
2, 19297, Note_on_c, 0, 51, 0
2, 19343, Note_on_c, 0, 51, 10
2, 19352, Note_on_c, 0, 44, 22
2, 19374, Note_on_c, 0, 51, 0
2, 19394, Note_on_c, 0, 72, 64
2, 19398, Note_on_c, 0, 66, 27
2, 19399, Note_on_c, 0, 58, 35
2, 19423, Control_c, 0, 64, 0
2, 19429, Note_on_c, 0, 70, 0
2, 19466, Note_on_c, 0, 58, 0
2, 19466, Control_c, 0, 64, 127
2, 19467, Note_on_c, 0, 66, 0
2, 19469, Note_on_c, 0, 44, 0
2, 19511, Note_on_c, 0, 66, 35
2, 19518, Note_on_c, 0, 56, 24
2, 19521, Note_on_c, 0, 44, 17
2, 19536, Note_on_c, 0, 56, 0
2, 19546, Note_on_c, 0, 44, 0
2, 19559, Note_on_c, 0, 72, 0
2, 19567, Note_on_c, 0, 66, 0
2, 19608, Note_on_c, 0, 72, 74
2, 19614, Note_on_c, 0, 65, 35
2, 19618, Note_on_c, 0, 37, 23
2, 19619, Control_c, 0, 64, 0
2, 19666, Note_on_c, 0, 37, 0
2, 19669, Control_c, 0, 64, 127
2, 19678, Note_on_c, 0, 65, 0
2, 19752, Note_on_c, 0, 44, 28
2, 19759, Note_on_c, 0, 65, 34
2, 19763, Note_on_c, 0, 56, 24
2, 19791, Note_on_c, 0, 65, 0
2, 19800, Note_on_c, 0, 56, 0
2, 19858, Note_on_c, 0, 56, 27
2, 19861, Note_on_c, 0, 49, 45
2, 19864, Note_on_c, 0, 65, 35
2, 19886, Note_on_c, 0, 65, 0
2, 19892, Note_on_c, 0, 56, 0
2, 19901, Note_on_c, 0, 44, 0
2, 19954, Note_on_c, 0, 65, 38
2, 19955, Note_on_c, 0, 49, 0
2, 19955, Note_on_c, 0, 51, 34
2, 19956, Note_on_c, 0, 56, 28
2, 19972, Note_on_c, 0, 56, 0
2, 19983, Note_on_c, 0, 65, 0
2, 20037, Note_on_c, 0, 51, 0
2, 20037, Note_on_c, 0, 65, 25
2, 20040, Note_on_c, 0, 49, 32
2, 20044, Note_on_c, 0, 56, 24
2, 20061, Note_on_c, 0, 56, 0
2, 20091, Note_on_c, 0, 73, 50
2, 20095, Note_on_c, 0, 65, 0
2, 20104, Note_on_c, 0, 72, 0
2, 20168, Note_on_c, 0, 49, 0
2, 20169, Note_on_c, 0, 77, 48
2, 20172, Control_c, 0, 64, 0
2, 20173, Note_on_c, 0, 44, 20
2, 20174, Note_on_c, 0, 56, 19
2, 20179, Note_on_c, 0, 65, 20
2, 20186, Note_on_c, 0, 73, 0
2, 20211, Control_c, 0, 64, 127
2, 20219, Note_on_c, 0, 56, 0
2, 20231, Note_on_c, 0, 75, 40
2, 20238, Note_on_c, 0, 65, 0
2, 20254, Note_on_c, 0, 77, 0
2, 20294, Note_on_c, 0, 49, 21
2, 20295, Note_on_c, 0, 56, 17
2, 20296, Note_on_c, 0, 65, 18
2, 20296, Note_on_c, 0, 73, 29
2, 20300, Note_on_c, 0, 44, 0
2, 20318, Note_on_c, 0, 75, 0
2, 20329, Note_on_c, 0, 56, 0
2, 20332, Note_on_c, 0, 65, 0
2, 20361, Control_c, 0, 64, 0
2, 20388, Control_c, 0, 64, 127
2, 20394, Note_on_c, 0, 65, 29
2, 20396, Note_on_c, 0, 56, 20
2, 20402, Note_on_c, 0, 51, 29
2, 20406, Note_on_c, 0, 49, 0
2, 20417, Note_on_c, 0, 65, 0
2, 20420, Note_on_c, 0, 56, 0
2, 20482, Note_on_c, 0, 51, 0
2, 20485, Note_on_c, 0, 49, 31
2, 20491, Note_on_c, 0, 56, 23
2, 20493, Note_on_c, 0, 65, 26
2, 20503, Control_c, 0, 64, 0
2, 20514, Note_on_c, 0, 56, 0
2, 20522, Control_c, 0, 64, 127
2, 20523, Note_on_c, 0, 65, 0
2, 20576, Note_on_c, 0, 49, 0
2, 20581, Note_on_c, 0, 56, 27
2, 20583, Note_on_c, 0, 54, 23
2, 20584, Control_c, 0, 64, 0
2, 20586, Note_on_c, 0, 65, 14
2, 20604, Note_on_c, 0, 56, 0
2, 20615, Note_on_c, 0, 65, 0
2, 20618, Control_c, 0, 64, 127
2, 20644, Note_on_c, 0, 54, 0
2, 20667, Note_on_c, 0, 65, 27
2, 20674, Note_on_c, 0, 53, 25
2, 20701, Note_on_c, 0, 65, 0
2, 20703, Note_on_c, 0, 53, 0
2, 20784, Note_on_c, 0, 65, 24
2, 20787, Note_on_c, 0, 44, 19
2, 20788, Note_on_c, 0, 56, 22
2, 20809, Note_on_c, 0, 56, 0
2, 20822, Note_on_c, 0, 65, 0
2, 20855, Note_on_c, 0, 44, 0
2, 20991, Control_c, 0, 64, 0
2, 20992, Note_on_c, 0, 37, 22
2, 20994, Note_on_c, 0, 76, 57
2, 20998, Note_on_c, 0, 73, 0
2, 21058, Note_on_c, 0, 37, 0
2, 21060, Control_c, 0, 64, 127
2, 21170, Note_on_c, 0, 49, 16
2, 21171, Note_on_c, 0, 56, 16
2, 21172, Note_on_c, 0, 64, 26
2, 21217, Note_on_c, 0, 56, 0
2, 21218, Note_on_c, 0, 64, 0
2, 21222, Note_on_c, 0, 49, 0
2, 21286, Note_on_c, 0, 56, 32
2, 21289, Note_on_c, 0, 49, 31
2, 21291, Note_on_c, 0, 64, 29
2, 21323, Note_on_c, 0, 49, 0
2, 21325, Note_on_c, 0, 64, 0
2, 21329, Note_on_c, 0, 56, 0
2, 21389, Note_on_c, 0, 64, 28
2, 21390, Note_on_c, 0, 56, 38
2, 21394, Note_on_c, 0, 49, 30
2, 21415, Note_on_c, 0, 49, 0
2, 21424, Note_on_c, 0, 64, 0
2, 21435, Note_on_c, 0, 56, 0
2, 21511, Note_on_c, 0, 64, 22
2, 21514, Note_on_c, 0, 61, 27
2, 21520, Note_on_c, 0, 49, 20
2, 21549, Note_on_c, 0, 49, 0
2, 21556, Note_on_c, 0, 64, 0
2, 21569, Note_on_c, 0, 61, 0
2, 21634, Note_on_c, 0, 56, 31
2, 21634, Note_on_c, 0, 64, 28
2, 21637, Note_on_c, 0, 49, 23
2, 21674, Note_on_c, 0, 64, 0
2, 21675, Note_on_c, 0, 56, 0
2, 21677, Note_on_c, 0, 49, 0
2, 21721, Note_on_c, 0, 68, 60
2, 21728, Note_on_c, 0, 56, 28
2, 21733, Note_on_c, 0, 64, 11
2, 21738, Note_on_c, 0, 49, 18
2, 21765, Note_on_c, 0, 49, 0
2, 21766, Note_on_c, 0, 64, 0
2, 21783, Note_on_c, 0, 56, 0
2, 21789, Note_on_c, 0, 76, 0
2, 21857, Note_on_c, 0, 64, 35
2, 21858, Note_on_c, 0, 59, 28
2, 21864, Note_on_c, 0, 49, 23
2, 21880, Note_on_c, 0, 64, 0
2, 21909, Note_on_c, 0, 49, 0
2, 21928, Note_on_c, 0, 59, 0
2, 21962, Note_on_c, 0, 58, 48
2, 21968, Note_on_c, 0, 64, 29
2, 21969, Note_on_c, 0, 49, 23
2, 21991, Note_on_c, 0, 64, 0
2, 22003, Note_on_c, 0, 49, 0
2, 22020, Note_on_c, 0, 58, 0
2, 22057, Note_on_c, 0, 56, 45
2, 22060, Note_on_c, 0, 64, 42
2, 22065, Note_on_c, 0, 49, 32
2, 22084, Note_on_c, 0, 49, 0
2, 22096, Note_on_c, 0, 56, 0
2, 22108, Note_on_c, 0, 64, 0
2, 22153, Note_on_c, 0, 70, 73
2, 22162, Control_c, 0, 64, 0
2, 22163, Note_on_c, 0, 56, 46
2, 22164, Note_on_c, 0, 42, 30
2, 22177, Note_on_c, 0, 64, 15
2, 22219, Note_on_c, 0, 68, 0
2, 22220, Control_c, 0, 64, 127
2, 22226, Note_on_c, 0, 56, 0
2, 22227, Note_on_c, 0, 64, 0
2, 22230, Note_on_c, 0, 42, 0
2, 22283, Note_on_c, 0, 64, 35
2, 22287, Note_on_c, 0, 54, 29
2, 22298, Note_on_c, 0, 42, 19
2, 22320, Control_c, 0, 64, 0
2, 22359, Control_c, 0, 64, 127
2, 22361, Note_on_c, 0, 54, 0
2, 22374, Note_on_c, 0, 42, 0
2, 22384, Note_on_c, 0, 70, 0
2, 22444, Note_on_c, 0, 70, 61
2, 22454, Note_on_c, 0, 64, 0
2, 22461, Note_on_c, 0, 35, 18
2, 22462, Control_c, 0, 64, 0
2, 22524, Control_c, 0, 64, 127
2, 22529, Note_on_c, 0, 35, 0
2, 22624, Note_on_c, 0, 63, 24
2, 22625, Note_on_c, 0, 42, 27
2, 22629, Note_on_c, 0, 54, 16
2, 22667, Note_on_c, 0, 54, 0
2, 22678, Note_on_c, 0, 63, 0
2, 22738, Note_on_c, 0, 47, 34
2, 22739, Note_on_c, 0, 63, 24
2, 22768, Note_on_c, 0, 42, 0
2, 22777, Note_on_c, 0, 63, 0
2, 22791, Note_on_c, 0, 47, 0
2, 22831, Note_on_c, 0, 49, 33
2, 22835, Note_on_c, 0, 63, 25
2, 22846, Note_on_c, 0, 54, 10
2, 22862, Note_on_c, 0, 54, 0
2, 22866, Note_on_c, 0, 63, 0
2, 22910, Note_on_c, 0, 49, 0
2, 22918, Note_on_c, 0, 63, 21
2, 22923, Note_on_c, 0, 47, 29
2, 22927, Note_on_c, 0, 54, 18
2, 22954, Note_on_c, 0, 54, 0
2, 22977, Note_on_c, 0, 71, 32
2, 22980, Note_on_c, 0, 63, 0
2, 23007, Note_on_c, 0, 70, 0
2, 23042, Note_on_c, 0, 47, 0
2, 23050, Note_on_c, 0, 75, 34
2, 23056, Note_on_c, 0, 63, 16
2, 23057, Note_on_c, 0, 54, 12
2, 23058, Note_on_c, 0, 71, 0
2, 23058, Control_c, 0, 64, 0
2, 23058, Note_on_c, 0, 42, 18
2, 23096, Control_c, 0, 64, 127
2, 23105, Note_on_c, 0, 54, 0
2, 23121, Note_on_c, 0, 63, 0
2, 23124, Note_on_c, 0, 73, 29
2, 23136, Note_on_c, 0, 75, 0
2, 23197, Note_on_c, 0, 42, 0
2, 23198, Note_on_c, 0, 73, 0
2, 23203, Note_on_c, 0, 63, 10
2, 23203, Note_on_c, 0, 71, 30
2, 23208, Note_on_c, 0, 54, 10
2, 23214, Note_on_c, 0, 47, 20
2, 23235, Control_c, 0, 64, 0
2, 23266, Note_on_c, 0, 63, 0
2, 23268, Note_on_c, 0, 54, 0
2, 23269, Control_c, 0, 64, 127
2, 23315, Note_on_c, 0, 47, 0
2, 23323, Note_on_c, 0, 63, 16
2, 23327, Note_on_c, 0, 49, 28
2, 23328, Note_on_c, 0, 54, 11
2, 23355, Note_on_c, 0, 54, 0
2, 23365, Note_on_c, 0, 63, 0
2, 23423, Note_on_c, 0, 49, 0
2, 23427, Note_on_c, 0, 63, 29
2, 23430, Note_on_c, 0, 54, 17
2, 23434, Note_on_c, 0, 47, 23
2, 23438, Control_c, 0, 64, 0
2, 23459, Note_on_c, 0, 54, 0
2, 23469, Control_c, 0, 64, 127
2, 23475, Note_on_c, 0, 63, 0
2, 23516, Note_on_c, 0, 47, 0
2, 23525, Note_on_c, 0, 42, 31
2, 23525, Note_on_c, 0, 63, 27
2, 23526, Note_on_c, 0, 54, 21
2, 23549, Note_on_c, 0, 54, 0
2, 23564, Note_on_c, 0, 63, 0
2, 23631, Note_on_c, 0, 70, 51
2, 23636, Note_on_c, 0, 63, 22
2, 23637, Note_on_c, 0, 54, 14
2, 23640, Note_on_c, 0, 47, 25
2, 23652, Note_on_c, 0, 71, 0
2, 23653, Note_on_c, 0, 42, 0
2, 23676, Control_c, 0, 64, 0
2, 23706, Note_on_c, 0, 54, 0
2, 23711, Control_c, 0, 64, 127
2, 23715, Note_on_c, 0, 63, 0
2, 23767, Note_on_c, 0, 54, 20
2, 23767, Note_on_c, 0, 61, 40
2, 23770, Note_on_c, 0, 47, 0
2, 23776, Note_on_c, 0, 49, 26
2, 23807, Control_c, 0, 64, 0
2, 23838, Control_c, 0, 64, 127
2, 23842, Note_on_c, 0, 54, 0
2, 23853, Note_on_c, 0, 61, 0
2, 23854, Note_on_c, 0, 49, 0
2, 23856, Note_on_c, 0, 70, 0
2, 23907, Note_on_c, 0, 70, 67
2, 23914, Note_on_c, 0, 59, 24
2, 23916, Note_on_c, 0, 54, 24
2, 23922, Note_on_c, 0, 51, 31
2, 23949, Control_c, 0, 64, 0
2, 23988, Control_c, 0, 64, 127
2, 23990, Note_on_c, 0, 54, 0
2, 23991, Note_on_c, 0, 59, 0
2, 23998, Note_on_c, 0, 51, 0
2, 24045, Note_on_c, 0, 59, 26
2, 24046, Note_on_c, 0, 51, 29
2, 24049, Note_on_c, 0, 54, 29
2, 24069, Note_on_c, 0, 54, 0
2, 24095, Note_on_c, 0, 59, 0
2, 24098, Note_on_c, 0, 51, 0
2, 24149, Note_on_c, 0, 68, 60
2, 24160, Note_on_c, 0, 59, 22
2, 24162, Note_on_c, 0, 54, 19
2, 24165, Note_on_c, 0, 51, 22
2, 24172, Note_on_c, 0, 70, 0
2, 24180, Control_c, 0, 64, 0
2, 24210, Control_c, 0, 64, 127
2, 24211, Note_on_c, 0, 54, 0
2, 24214, Note_on_c, 0, 59, 0
2, 24216, Note_on_c, 0, 51, 0
2, 24258, Note_on_c, 0, 54, 25
2, 24262, Note_on_c, 0, 59, 29
2, 24267, Note_on_c, 0, 51, 29
2, 24280, Note_on_c, 0, 54, 0
2, 24289, Note_on_c, 0, 51, 0
2, 24291, Note_on_c, 0, 59, 0
2, 24399, Note_on_c, 0, 61, 34
2, 24405, Note_on_c, 0, 49, 20
2, 24408, Note_on_c, 0, 54, 19
2, 24418, Control_c, 0, 64, 0
2, 24460, Control_c, 0, 64, 127
2, 24470, Note_on_c, 0, 70, 64
2, 24472, Note_on_c, 0, 54, 0
2, 24487, Note_on_c, 0, 49, 0
2, 24492, Note_on_c, 0, 61, 0
2, 24511, Note_on_c, 0, 68, 0
2, 24543, Note_on_c, 0, 73, 61
2, 24544, Note_on_c, 0, 54, 22
2, 24550, Note_on_c, 0, 49, 35
2, 24552, Note_on_c, 0, 61, 23
2, 24561, Note_on_c, 0, 70, 0
2, 24580, Note_on_c, 0, 54, 0
2, 24586, Note_on_c, 0, 61, 0
2, 24589, Note_on_c, 0, 49, 0
2, 24604, Note_on_c, 0, 71, 61
2, 24628, Note_on_c, 0, 73, 0
2, 24680, Note_on_c, 0, 70, 61
2, 24684, Note_on_c, 0, 63, 22
2, 24689, Note_on_c, 0, 54, 19
2, 24696, Note_on_c, 0, 47, 16
2, 24701, Note_on_c, 0, 71, 0
2, 24702, Control_c, 0, 64, 0
2, 24763, Control_c, 0, 64, 127
2, 24768, Note_on_c, 0, 54, 0
2, 24771, Note_on_c, 0, 63, 0
2, 24777, Note_on_c, 0, 47, 0
2, 24837, Note_on_c, 0, 63, 29
2, 24844, Note_on_c, 0, 54, 21
2, 24844, Note_on_c, 0, 47, 16
2, 24884, Note_on_c, 0, 54, 0
2, 24889, Note_on_c, 0, 47, 0
2, 24892, Note_on_c, 0, 63, 0
2, 24955, Note_on_c, 0, 68, 36
2, 24960, Note_on_c, 0, 63, 13
2, 24961, Note_on_c, 0, 54, 18
2, 24967, Note_on_c, 0, 47, 16
2, 24974, Note_on_c, 0, 70, 0
2, 24975, Control_c, 0, 64, 0
2, 25016, Note_on_c, 0, 54, 0
2, 25017, Note_on_c, 0, 63, 0
2, 25017, Control_c, 0, 64, 127
2, 25018, Note_on_c, 0, 47, 0
2, 25077, Note_on_c, 0, 63, 22
2, 25082, Note_on_c, 0, 47, 10
2, 25083, Note_on_c, 0, 54, 13
2, 25111, Note_on_c, 0, 54, 0
2, 25124, Note_on_c, 0, 47, 0
2, 25126, Note_on_c, 0, 63, 0
2, 25191, Note_on_c, 0, 61, 30
2, 25198, Note_on_c, 0, 54, 16
2, 25202, Note_on_c, 0, 49, 16
2, 25209, Control_c, 0, 64, 0
2, 25255, Control_c, 0, 64, 127
2, 25263, Note_on_c, 0, 54, 0
2, 25265, Note_on_c, 0, 49, 0
2, 25266, Note_on_c, 0, 70, 44
2, 25278, Note_on_c, 0, 61, 0
2, 25300, Note_on_c, 0, 68, 0
2, 25362, Note_on_c, 0, 73, 29
2, 25374, Note_on_c, 0, 49, 23
2, 25374, Note_on_c, 0, 61, 19
2, 25374, Note_on_c, 0, 54, 10
2, 25382, Control_c, 0, 64, 0
2, 25385, Note_on_c, 0, 70, 0
2, 25420, Control_c, 0, 64, 127
2, 25431, Note_on_c, 0, 54, 0
2, 25434, Note_on_c, 0, 49, 0
2, 25455, Note_on_c, 0, 71, 33
2, 25464, Note_on_c, 0, 73, 0
2, 25487, Note_on_c, 0, 71, 0
2, 25498, Note_on_c, 0, 61, 0
2, 25565, Note_on_c, 0, 70, 48
2, 25572, Note_on_c, 0, 54, 10
2, 25574, Note_on_c, 0, 51, 26
2, 25579, Note_on_c, 0, 59, 10
2, 25593, Control_c, 0, 64, 0
2, 25647, Control_c, 0, 64, 127
2, 25649, Note_on_c, 0, 54, 0
2, 25651, Note_on_c, 0, 51, 0
2, 25654, Note_on_c, 0, 59, 0
2, 25736, Note_on_c, 0, 54, 10
2, 25738, Note_on_c, 0, 51, 22
2, 25738, Note_on_c, 0, 59, 19
2, 25770, Note_on_c, 0, 54, 0
2, 25771, Note_on_c, 0, 51, 0
2, 25861, Note_on_c, 0, 59, 0
2, 25872, Note_on_c, 0, 68, 38
2, 25874, Note_on_c, 0, 54, 16
2, 25885, Note_on_c, 0, 63, 14
2, 25886, Note_on_c, 0, 47, 21
2, 25894, Note_on_c, 0, 70, 0
2, 25900, Control_c, 0, 64, 0
2, 25938, Note_on_c, 0, 47, 0
2, 25939, Control_c, 0, 64, 127
2, 25941, Note_on_c, 0, 54, 0
2, 25945, Note_on_c, 0, 63, 0
2, 26009, Note_on_c, 0, 63, 31
2, 26013, Note_on_c, 0, 54, 14
2, 26016, Note_on_c, 0, 47, 16
2, 26037, Note_on_c, 0, 47, 0
2, 26041, Note_on_c, 0, 63, 0
2, 26054, Note_on_c, 0, 54, 0
2, 26133, Note_on_c, 0, 65, 41
2, 26139, Note_on_c, 0, 56, 30
2, 26149, Note_on_c, 0, 47, 13
2, 26193, Note_on_c, 0, 47, 0
2, 26200, Note_on_c, 0, 56, 0
2, 26244, Note_on_c, 0, 65, 0
2, 26254, Note_on_c, 0, 63, 39
2, 26256, Note_on_c, 0, 54, 29
2, 26260, Note_on_c, 0, 47, 22
2, 26308, Note_on_c, 0, 47, 0
2, 26319, Note_on_c, 0, 54, 0
2, 26367, Note_on_c, 0, 65, 46
2, 26370, Note_on_c, 0, 56, 32
2, 26379, Note_on_c, 0, 63, 0
2, 26380, Note_on_c, 0, 47, 28
2, 26392, Control_c, 0, 64, 0
2, 26427, Control_c, 0, 64, 127
2, 26439, Note_on_c, 0, 47, 0
2, 26448, Note_on_c, 0, 56, 0
2, 26493, Note_on_c, 0, 63, 42
2, 26494, Note_on_c, 0, 54, 35
2, 26495, Note_on_c, 0, 47, 30
2, 26509, Note_on_c, 0, 65, 0
2, 26547, Note_on_c, 0, 47, 0
2, 26565, Note_on_c, 0, 54, 0
2, 26604, Note_on_c, 0, 63, 0
2, 26608, Note_on_c, 0, 65, 38
2, 26612, Note_on_c, 0, 56, 34
2, 26616, Note_on_c, 0, 47, 29
2, 26631, Control_c, 0, 64, 0
2, 26661, Control_c, 0, 64, 127
2, 26675, Note_on_c, 0, 47, 0
2, 26693, Note_on_c, 0, 56, 0
2, 26719, Note_on_c, 0, 70, 69
2, 26721, Note_on_c, 0, 63, 46
2, 26726, Note_on_c, 0, 54, 35
2, 26728, Note_on_c, 0, 47, 29
2, 26729, Note_on_c, 0, 68, 0
2, 26738, Note_on_c, 0, 65, 0
2, 26809, Note_on_c, 0, 47, 0
2, 26843, Note_on_c, 0, 63, 0
2, 26876, Note_on_c, 0, 73, 63
2, 26878, Note_on_c, 0, 61, 33
2, 26882, Note_on_c, 0, 46, 45
2, 26887, Note_on_c, 0, 53, 29
2, 26888, Note_on_c, 0, 54, 0
2, 26905, Note_on_c, 0, 70, 0
2, 26911, Control_c, 0, 64, 0
2, 26957, Control_c, 0, 64, 127
2, 26972, Note_on_c, 0, 61, 0
2, 27014, Note_on_c, 0, 53, 0
2, 27014, Note_on_c, 0, 70, 68
2, 27015, Note_on_c, 0, 61, 46
2, 27019, Note_on_c, 0, 54, 42
2, 27021, Note_on_c, 0, 49, 42
2, 27037, Note_on_c, 0, 73, 0
2, 27049, Control_c, 0, 64, 0
2, 27071, Note_on_c, 0, 46, 0
2, 27088, Control_c, 0, 64, 127
2, 27101, Note_on_c, 0, 61, 0
2, 27106, Note_on_c, 0, 54, 0
2, 27141, Note_on_c, 0, 66, 67
2, 27143, Note_on_c, 0, 58, 57
2, 27150, Note_on_c, 0, 51, 41
2, 27151, Note_on_c, 0, 54, 38
2, 27156, Note_on_c, 0, 49, 0
2, 27158, Note_on_c, 0, 70, 0
2, 27169, Control_c, 0, 64, 0
2, 27214, Control_c, 0, 64, 127
2, 27221, Note_on_c, 0, 58, 0
2, 27224, Note_on_c, 0, 54, 0
2, 27229, Note_on_c, 0, 51, 0
2, 27262, Note_on_c, 0, 51, 22
2, 27262, Note_on_c, 0, 58, 54
2, 27262, Note_on_c, 0, 54, 29
2, 27326, Note_on_c, 0, 51, 0
2, 27328, Note_on_c, 0, 58, 0
2, 27333, Note_on_c, 0, 66, 0
2, 27370, Note_on_c, 0, 66, 68
2, 27370, Note_on_c, 0, 58, 48
2, 27372, Note_on_c, 0, 51, 35
2, 27373, Note_on_c, 0, 63, 51
2, 27374, Note_on_c, 0, 54, 0
2, 27433, Note_on_c, 0, 58, 0
2, 27440, Note_on_c, 0, 63, 0
2, 27441, Note_on_c, 0, 51, 0
2, 27483, Note_on_c, 0, 63, 42
2, 27486, Note_on_c, 0, 51, 33
2, 27489, Note_on_c, 0, 58, 34
2, 27548, Note_on_c, 0, 58, 0
2, 27559, Note_on_c, 0, 66, 0
2, 27562, Note_on_c, 0, 51, 0
2, 27563, Note_on_c, 0, 63, 0
2, 27587, Note_on_c, 0, 66, 68
2, 27588, Note_on_c, 0, 63, 46
2, 27591, Note_on_c, 0, 60, 62
2, 27592, Note_on_c, 0, 44, 50
2, 27594, Note_on_c, 0, 56, 38
2, 27599, Note_on_c, 0, 51, 18
2, 27618, Control_c, 0, 64, 0
2, 27660, Control_c, 0, 64, 127
2, 27664, Note_on_c, 0, 56, 0
2, 27668, Note_on_c, 0, 51, 0
2, 27671, Note_on_c, 0, 60, 0
2, 27671, Note_on_c, 0, 44, 0
2, 27726, Note_on_c, 0, 56, 40
2, 27726, Note_on_c, 0, 44, 33
2, 27726, Note_on_c, 0, 60, 58
2, 27733, Note_on_c, 0, 51, 35
2, 27770, Note_on_c, 0, 56, 0
2, 27775, Note_on_c, 0, 66, 0
2, 27775, Note_on_c, 0, 51, 0
2, 27791, Note_on_c, 0, 63, 0
2, 27796, Note_on_c, 0, 60, 0
2, 27804, Note_on_c, 0, 44, 0
2, 27837, Note_on_c, 0, 68, 73
2, 27837, Note_on_c, 0, 66, 72
2, 27840, Note_on_c, 0, 63, 61
2, 27840, Note_on_c, 0, 56, 45
2, 27841, Note_on_c, 0, 59, 53
2, 27844, Note_on_c, 0, 49, 40
2, 27860, Control_c, 0, 64, 0
2, 27910, Control_c, 0, 64, 127
2, 27913, Note_on_c, 0, 56, 0
2, 27923, Note_on_c, 0, 49, 0
2, 27924, Note_on_c, 0, 59, 0
2, 27965, Note_on_c, 0, 49, 48
2, 27967, Note_on_c, 0, 59, 48
2, 27970, Note_on_c, 0, 56, 39
2, 27996, Note_on_c, 0, 56, 0
2, 28005, Note_on_c, 0, 66, 0
2, 28020, Note_on_c, 0, 49, 0
2, 28027, Note_on_c, 0, 59, 0
2, 28031, Note_on_c, 0, 63, 0
2, 28068, Note_on_c, 0, 61, 57
2, 28068, Note_on_c, 0, 65, 67
2, 28072, Note_on_c, 0, 59, 48
2, 28074, Note_on_c, 0, 56, 32
2, 28077, Note_on_c, 0, 49, 36
2, 28090, Control_c, 0, 64, 0
2, 28133, Control_c, 0, 64, 127
2, 28136, Note_on_c, 0, 56, 0
2, 28138, Note_on_c, 0, 59, 0
2, 28145, Note_on_c, 0, 49, 0
2, 28180, Note_on_c, 0, 56, 38
2, 28183, Note_on_c, 0, 59, 57
2, 28187, Note_on_c, 0, 49, 33
2, 28233, Note_on_c, 0, 56, 0
2, 28239, Note_on_c, 0, 49, 0
2, 28249, Note_on_c, 0, 59, 0
2, 28250, Note_on_c, 0, 68, 0
2, 28251, Note_on_c, 0, 61, 0
2, 28287, Note_on_c, 0, 49, 35
2, 28295, Note_on_c, 0, 56, 29
2, 28297, Note_on_c, 0, 68, 76
2, 28299, Note_on_c, 0, 63, 53
2, 28303, Note_on_c, 0, 59, 26
2, 28333, Note_on_c, 0, 65, 0
2, 28364, Note_on_c, 0, 56, 0
2, 28368, Note_on_c, 0, 59, 0
2, 28371, Note_on_c, 0, 49, 0
2, 28408, Note_on_c, 0, 56, 40
2, 28410, Note_on_c, 0, 59, 45
2, 28414, Note_on_c, 0, 49, 35
2, 28454, Note_on_c, 0, 56, 0
2, 28465, Note_on_c, 0, 49, 0
2, 28471, Note_on_c, 0, 68, 0
2, 28473, Note_on_c, 0, 59, 0
2, 28479, Note_on_c, 0, 63, 0
2, 28521, Note_on_c, 0, 56, 34
2, 28524, Note_on_c, 0, 49, 30
2, 28537, Note_on_c, 0, 68, 71
2, 28542, Note_on_c, 0, 63, 56
2, 28544, Note_on_c, 0, 59, 41
2, 28571, Note_on_c, 0, 49, 0
2, 28619, Note_on_c, 0, 56, 0
2, 28680, Note_on_c, 0, 49, 50
2, 28683, Note_on_c, 0, 42, 36
2, 28700, Note_on_c, 0, 63, 0
2, 28721, Note_on_c, 0, 59, 0
2, 28758, Note_on_c, 0, 49, 0
2, 28758, Note_on_c, 0, 42, 0
2, 28803, Note_on_c, 0, 70, 63
2, 28803, Note_on_c, 0, 49, 38
2, 28804, Note_on_c, 0, 58, 54
2, 28806, Note_on_c, 0, 61, 48
2, 28807, Note_on_c, 0, 42, 25
2, 28825, Note_on_c, 0, 68, 0
2, 28836, Control_c, 0, 64, 0
2, 28878, Control_c, 0, 64, 127
2, 28881, Note_on_c, 0, 42, 0
2, 28884, Note_on_c, 0, 49, 0
2, 28924, Note_on_c, 0, 42, 42
2, 28925, Note_on_c, 0, 49, 51
2, 28949, Note_on_c, 0, 61, 0
2, 28980, Note_on_c, 0, 42, 0
2, 28988, Note_on_c, 0, 49, 0
2, 29005, Note_on_c, 0, 58, 0
2, 29046, Note_on_c, 0, 49, 27
2, 29049, Note_on_c, 0, 42, 19
2, 29052, Note_on_c, 0, 68, 65
2, 29059, Note_on_c, 0, 63, 42
2, 29060, Note_on_c, 0, 59, 29
2, 29079, Note_on_c, 0, 70, 0
2, 29143, Note_on_c, 0, 42, 0
2, 29187, Note_on_c, 0, 53, 48
2, 29190, Note_on_c, 0, 42, 29
2, 29235, Note_on_c, 0, 63, 0
2, 29239, Note_on_c, 0, 49, 0
2, 29264, Note_on_c, 0, 59, 0
2, 29280, Note_on_c, 0, 42, 0
2, 29290, Note_on_c, 0, 53, 0
2, 29371, Note_on_c, 0, 61, 25
2, 29373, Note_on_c, 0, 70, 44
2, 29373, Note_on_c, 0, 58, 29
2, 29376, Note_on_c, 0, 54, 19
2, 29392, Note_on_c, 0, 42, 12
2, 29416, Control_c, 0, 64, 0
2, 29427, Note_on_c, 0, 68, 0
2, 29481, Control_c, 0, 64, 127
2, 29507, Note_on_c, 0, 42, 0
2, 29542, Note_on_c, 0, 54, 0
2, 29547, Note_on_c, 0, 41, 35
2, 29628, Control_c, 0, 64, 0
2, 29654, Control_c, 0, 64, 127
2, 29670, Note_on_c, 0, 44, 36
2, 29694, Note_on_c, 0, 41, 0
2, 29724, Control_c, 0, 64, 0
2, 29758, Control_c, 0, 64, 127
2, 29769, Note_on_c, 0, 42, 35
2, 29781, Note_on_c, 0, 44, 0
2, 29804, Control_c, 0, 64, 0
2, 29839, Control_c, 0, 64, 127
2, 29866, Note_on_c, 0, 46, 41
2, 29874, Note_on_c, 0, 42, 0
2, 29904, Control_c, 0, 64, 0
2, 29938, Control_c, 0, 64, 127
2, 29982, Note_on_c, 0, 37, 34
2, 29985, Note_on_c, 0, 46, 0
2, 30016, Note_on_c, 0, 58, 0
2, 30017, Note_on_c, 0, 61, 0
2, 30046, Note_on_c, 0, 70, 0
2, 30164, Note_on_c, 0, 37, 0
2, 30168, Note_on_c, 0, 70, 48
2, 30172, Note_on_c, 0, 30, 28
2, 30177, Control_c, 0, 64, 0
2, 30177, Note_on_c, 0, 64, 30
2, 30230, Note_on_c, 0, 30, 0
2, 30234, Control_c, 0, 64, 127
2, 30316, Note_on_c, 0, 53, 29
2, 30391, Note_on_c, 0, 53, 0
2, 30403, Note_on_c, 0, 56, 30
2, 30472, Note_on_c, 0, 56, 0
2, 30484, Note_on_c, 0, 54, 17
2, 30515, Control_c, 0, 64, 0
2, 30534, Control_c, 0, 64, 127
2, 30550, Note_on_c, 0, 54, 0
2, 30558, Note_on_c, 0, 58, 29
2, 30604, Note_on_c, 0, 58, 0
2, 30627, Note_on_c, 0, 49, 22
2, 30635, Note_on_c, 0, 70, 0
2, 30636, Note_on_c, 0, 64, 0
2, 30676, Note_on_c, 0, 49, 0
2, 30694, Note_on_c, 0, 42, 23
2, 30715, Note_on_c, 0, 70, 63
2, 30721, Note_on_c, 0, 64, 35
2, 30750, Note_on_c, 0, 42, 0
2, 30787, Note_on_c, 0, 53, 33
2, 30853, Note_on_c, 0, 53, 0
2, 30856, Note_on_c, 0, 56, 40
2, 30913, Note_on_c, 0, 56, 0
2, 30921, Note_on_c, 0, 54, 29
2, 30978, Note_on_c, 0, 54, 0
2, 30988, Note_on_c, 0, 58, 42
2, 31024, Note_on_c, 0, 58, 0
2, 31047, Note_on_c, 0, 49, 42
2, 31066, Note_on_c, 0, 70, 0
2, 31071, Note_on_c, 0, 64, 0
2, 31073, Note_on_c, 0, 71, 67
2, 31084, Note_on_c, 0, 49, 0
2, 31107, Note_on_c, 0, 42, 36
2, 31118, Note_on_c, 0, 73, 74
2, 31122, Note_on_c, 0, 71, 0
2, 31125, Note_on_c, 0, 70, 50
2, 31126, Control_c, 0, 64, 0
2, 31126, Note_on_c, 0, 64, 35
2, 31186, Note_on_c, 0, 42, 0
2, 31187, Control_c, 0, 64, 127
2, 31194, Note_on_c, 0, 53, 35
2, 31261, Note_on_c, 0, 53, 0
2, 31269, Note_on_c, 0, 56, 41
2, 31325, Note_on_c, 0, 56, 0
2, 31335, Note_on_c, 0, 54, 36
2, 31385, Note_on_c, 0, 64, 0
2, 31389, Note_on_c, 0, 54, 0
2, 31396, Note_on_c, 0, 58, 54
2, 31404, Note_on_c, 0, 70, 0
2, 31438, Note_on_c, 0, 58, 0
2, 31457, Note_on_c, 0, 73, 0
2, 31461, Note_on_c, 0, 49, 48
2, 31504, Note_on_c, 0, 49, 0
2, 31518, Control_c, 0, 64, 0
2, 31518, Note_on_c, 0, 75, 71
2, 31519, Note_on_c, 0, 42, 36
2, 31521, Note_on_c, 0, 70, 57
2, 31524, Note_on_c, 0, 64, 44
2, 31560, Control_c, 0, 64, 127
2, 31566, Note_on_c, 0, 64, 0
2, 31598, Note_on_c, 0, 42, 0
2, 31602, Note_on_c, 0, 78, 63
2, 31617, Note_on_c, 0, 53, 35
2, 31686, Note_on_c, 0, 53, 0
2, 31698, Note_on_c, 0, 56, 33
2, 31758, Note_on_c, 0, 56, 0
2, 31765, Note_on_c, 0, 54, 33
2, 31824, Note_on_c, 0, 54, 0
2, 31835, Note_on_c, 0, 58, 48
2, 31886, Note_on_c, 0, 58, 0
2, 31904, Note_on_c, 0, 49, 41
2, 31905, Note_on_c, 0, 70, 0
2, 31927, Note_on_c, 0, 75, 0
2, 31933, Note_on_c, 0, 78, 0
2, 31936, Note_on_c, 0, 73, 64
2, 31939, Note_on_c, 0, 70, 25
2, 31960, Note_on_c, 0, 70, 0
2, 31984, Note_on_c, 0, 73, 0
2, 31989, Note_on_c, 0, 49, 0
2, 31991, Note_on_c, 0, 64, 60
2, 32018, Note_on_c, 0, 47, 25
2, 32025, Control_c, 0, 64, 0
2, 32034, Note_on_c, 0, 73, 61
2, 32063, Note_on_c, 0, 64, 0
2, 32067, Control_c, 0, 64, 127
2, 32107, Note_on_c, 0, 78, 55
2, 32160, Note_on_c, 0, 47, 0
2, 32164, Note_on_c, 0, 53, 21
2, 32221, Note_on_c, 0, 53, 0
2, 32236, Note_on_c, 0, 56, 29
2, 32285, Note_on_c, 0, 56, 0
2, 32307, Note_on_c, 0, 54, 25
2, 32361, Note_on_c, 0, 54, 0
2, 32371, Note_on_c, 0, 58, 32
2, 32386, Note_on_c, 0, 78, 0
2, 32410, Note_on_c, 0, 73, 0
2, 32415, Note_on_c, 0, 58, 0
2, 32440, Note_on_c, 0, 49, 30
2, 32491, Note_on_c, 0, 49, 0
2, 32510, Note_on_c, 0, 75, 32
2, 32512, Note_on_c, 0, 63, 26
2, 32518, Note_on_c, 0, 71, 24
2, 32521, Note_on_c, 0, 47, 22
2, 32555, Control_c, 0, 64, 0
2, 32593, Note_on_c, 0, 53, 32
2, 32617, Control_c, 0, 64, 127
2, 32655, Note_on_c, 0, 53, 0
2, 32662, Note_on_c, 0, 56, 34
2, 32697, Control_c, 0, 64, 0
2, 32726, Note_on_c, 0, 56, 0
2, 32727, Note_on_c, 0, 54, 29
2, 32732, Control_c, 0, 64, 127
2, 32744, Note_on_c, 0, 47, 0
2, 32764, Note_on_c, 0, 63, 0
2, 32770, Note_on_c, 0, 71, 0
2, 32781, Note_on_c, 0, 75, 0
2, 32785, Note_on_c, 0, 54, 0
2, 32795, Note_on_c, 0, 59, 29
2, 32818, Note_on_c, 0, 59, 0
2, 32870, Note_on_c, 0, 47, 29
2, 32915, Note_on_c, 0, 47, 0
2, 32982, Note_on_c, 0, 75, 52
2, 32988, Note_on_c, 0, 39, 30
2, 32988, Note_on_c, 0, 61, 22
2, 32991, Note_on_c, 0, 67, 35
2, 32992, Note_on_c, 0, 70, 46
2, 32997, Control_c, 0, 64, 0
2, 33058, Control_c, 0, 64, 127
2, 33061, Note_on_c, 0, 39, 0
2, 33082, Note_on_c, 0, 50, 34
2, 33130, Note_on_c, 0, 50, 0
2, 33154, Note_on_c, 0, 52, 37
2, 33215, Note_on_c, 0, 52, 0
2, 33218, Note_on_c, 0, 51, 43
2, 33285, Control_c, 0, 64, 0
2, 33289, Note_on_c, 0, 51, 0
2, 33289, Note_on_c, 0, 55, 41
2, 33319, Control_c, 0, 64, 127
2, 33343, Note_on_c, 0, 55, 0
2, 33343, Note_on_c, 0, 75, 0
2, 33349, Note_on_c, 0, 67, 0
2, 33355, Note_on_c, 0, 70, 0
2, 33358, Note_on_c, 0, 46, 47
2, 33367, Note_on_c, 0, 61, 0
2, 33406, Note_on_c, 0, 46, 0
2, 33425, Note_on_c, 0, 44, 31
2, 33433, Note_on_c, 0, 71, 54
2, 33435, Note_on_c, 0, 68, 39
2, 33436, Note_on_c, 0, 59, 28
2, 33493, Control_c, 0, 64, 0
2, 33504, Note_on_c, 0, 50, 45
2, 33546, Control_c, 0, 64, 127
2, 33574, Note_on_c, 0, 50, 0
2, 33577, Note_on_c, 0, 52, 32
2, 33604, Control_c, 0, 64, 0
2, 33642, Control_c, 0, 64, 127
2, 33653, Note_on_c, 0, 52, 0
2, 33656, Note_on_c, 0, 51, 33
2, 33661, Control_c, 0, 64, 0
2, 33704, Control_c, 0, 64, 127
2, 33720, Note_on_c, 0, 51, 0
2, 33737, Note_on_c, 0, 56, 29
2, 33751, Note_on_c, 0, 44, 0
2, 33751, Note_on_c, 0, 59, 0
2, 33776, Note_on_c, 0, 56, 0
2, 33802, Note_on_c, 0, 44, 41
2, 33808, Note_on_c, 0, 68, 0
2, 33826, Note_on_c, 0, 63, 63
2, 33868, Note_on_c, 0, 63, 0
2, 33871, Note_on_c, 0, 71, 0
2, 33874, Note_on_c, 0, 44, 0
2, 33888, Note_on_c, 0, 59, 48
2, 33922, Note_on_c, 0, 65, 62
2, 33938, Control_c, 0, 64, 0
2, 33941, Note_on_c, 0, 37, 30
2, 33961, Note_on_c, 0, 68, 67
2, 33990, Note_on_c, 0, 59, 0
2, 33992, Control_c, 0, 64, 127
2, 34003, Note_on_c, 0, 65, 0
2, 34021, Note_on_c, 0, 68, 0
2, 34066, Note_on_c, 0, 77, 78
2, 34164, Note_on_c, 0, 37, 0
2, 34182, Note_on_c, 0, 48, 29
2, 34242, Note_on_c, 0, 48, 0
2, 34254, Note_on_c, 0, 51, 32
2, 34311, Note_on_c, 0, 51, 0
2, 34316, Note_on_c, 0, 49, 31
2, 34373, Note_on_c, 0, 49, 0
2, 34390, Note_on_c, 0, 53, 34
2, 34404, Note_on_c, 0, 77, 0
2, 34426, Note_on_c, 0, 53, 0
2, 34451, Note_on_c, 0, 44, 30
2, 34490, Note_on_c, 0, 44, 0
2, 34513, Note_on_c, 0, 37, 26
2, 34522, Note_on_c, 0, 68, 57
2, 34534, Note_on_c, 0, 59, 27
2, 34541, Note_on_c, 0, 65, 21
2, 34556, Note_on_c, 0, 37, 0
2, 34594, Note_on_c, 0, 48, 29
2, 34624, Note_on_c, 0, 48, 0
2, 34633, Note_on_c, 0, 59, 0
2, 34659, Note_on_c, 0, 51, 38
2, 34716, Note_on_c, 0, 51, 0
2, 34726, Note_on_c, 0, 49, 39
2, 34776, Note_on_c, 0, 49, 0
2, 34819, Note_on_c, 0, 53, 27
2, 34841, Note_on_c, 0, 65, 0
2, 34846, Note_on_c, 0, 70, 48
2, 34852, Note_on_c, 0, 61, 30
2, 34861, Note_on_c, 0, 53, 0
2, 34861, Note_on_c, 0, 68, 0
2, 34891, Note_on_c, 0, 61, 0
2, 34906, Note_on_c, 0, 44, 29
2, 34957, Note_on_c, 0, 44, 0
2, 35002, Note_on_c, 0, 70, 0
2, 35002, Control_c, 0, 64, 0
2, 35002, Note_on_c, 0, 58, 34
2, 35004, Note_on_c, 0, 66, 42
2, 35007, Note_on_c, 0, 42, 31
2, 35048, Note_on_c, 0, 58, 0
2, 35052, Control_c, 0, 64, 127
2, 35066, Note_on_c, 0, 66, 0
2, 35105, Note_on_c, 0, 78, 50
2, 35175, Note_on_c, 0, 48, 27
2, 35250, Note_on_c, 0, 48, 0
2, 35260, Note_on_c, 0, 51, 22
2, 35315, Note_on_c, 0, 51, 0
2, 35329, Note_on_c, 0, 42, 0
2, 35332, Note_on_c, 0, 49, 28
2, 35386, Note_on_c, 0, 49, 0
2, 35387, Note_on_c, 0, 78, 0
2, 35403, Note_on_c, 0, 54, 34
2, 35439, Note_on_c, 0, 54, 0
2, 35478, Note_on_c, 0, 42, 39
2, 35500, Note_on_c, 0, 42, 0
2, 35587, Note_on_c, 0, 35, 25
2, 35598, Control_c, 0, 64, 0
2, 35623, Note_on_c, 0, 63, 29
2, 35625, Note_on_c, 0, 68, 34
2, 35625, Note_on_c, 0, 71, 48
2, 35652, Control_c, 0, 64, 127
2, 35655, Note_on_c, 0, 35, 0
2, 35670, Note_on_c, 0, 63, 0
2, 35680, Note_on_c, 0, 68, 0
2, 35687, Note_on_c, 0, 71, 0
2, 35736, Note_on_c, 0, 80, 61
2, 35799, Note_on_c, 0, 50, 35
2, 35888, Note_on_c, 0, 50, 0
2, 35893, Note_on_c, 0, 52, 35
2, 35949, Note_on_c, 0, 52, 0
2, 35962, Note_on_c, 0, 51, 35
2, 36015, Note_on_c, 0, 80, 0
2, 36036, Note_on_c, 0, 59, 42
2, 36048, Note_on_c, 0, 59, 0
2, 36111, Note_on_c, 0, 51, 0
2, 36112, Note_on_c, 0, 44, 37
2, 36141, Note_on_c, 0, 44, 0
2, 36146, Note_on_c, 0, 59, 39
2, 36186, Note_on_c, 0, 65, 46
2, 36205, Control_c, 0, 64, 0
2, 36214, Note_on_c, 0, 68, 55
2, 36232, Note_on_c, 0, 37, 35
2, 36234, Note_on_c, 0, 59, 0
2, 36247, Control_c, 0, 64, 127
2, 36250, Note_on_c, 0, 65, 0
2, 36262, Note_on_c, 0, 68, 0
2, 36303, Note_on_c, 0, 77, 76
2, 36406, Note_on_c, 0, 37, 0
2, 36418, Note_on_c, 0, 48, 36
2, 36486, Note_on_c, 0, 48, 0
2, 36496, Note_on_c, 0, 51, 43
2, 36560, Note_on_c, 0, 51, 0
2, 36567, Note_on_c, 0, 49, 36
2, 36624, Note_on_c, 0, 49, 0
2, 36642, Note_on_c, 0, 56, 24
2, 36684, Note_on_c, 0, 56, 0
2, 36727, Note_on_c, 0, 44, 39
2, 36752, Note_on_c, 0, 44, 0
2, 36814, Note_on_c, 0, 37, 32
2, 36815, Note_on_c, 0, 70, 49
2, 36850, Note_on_c, 0, 37, 0
2, 36892, Note_on_c, 0, 48, 28
2, 36941, Note_on_c, 0, 48, 0
2, 36961, Note_on_c, 0, 51, 34
2, 37032, Note_on_c, 0, 51, 0
2, 37041, Note_on_c, 0, 49, 25
2, 37139, Note_on_c, 0, 56, 22
2, 37164, Note_on_c, 0, 49, 0
2, 37176, Note_on_c, 0, 56, 0
2, 37224, Note_on_c, 0, 70, 0
2, 37275, Note_on_c, 0, 37, 24
2, 37342, Note_on_c, 0, 77, 0
2, 37345, Note_on_c, 0, 78, 36
2, 37396, Note_on_c, 0, 78, 0
2, 37455, Note_on_c, 0, 37, 0
2, 37458, Note_on_c, 0, 30, 26
2, 37503, Note_on_c, 0, 58, 38
2, 37507, Control_c, 0, 64, 0
2, 37569, Control_c, 0, 64, 127
2, 37578, Note_on_c, 0, 66, 27
2, 37582, Note_on_c, 0, 58, 0
2, 37609, Note_on_c, 0, 30, 0
2, 37621, Note_on_c, 0, 66, 0
2, 37681, Note_on_c, 0, 78, 43
2, 37807, Note_on_c, 0, 48, 18
2, 37876, Note_on_c, 0, 48, 0
2, 37889, Note_on_c, 0, 51, 19
2, 37944, Note_on_c, 0, 51, 0
2, 37959, Note_on_c, 0, 49, 26
2, 38014, Note_on_c, 0, 49, 0
2, 38049, Note_on_c, 0, 54, 22
2, 38070, Note_on_c, 0, 54, 0
2, 38127, Note_on_c, 0, 37, 27
2, 38193, Note_on_c, 0, 37, 0
2, 38213, Note_on_c, 0, 42, 29
2, 38280, Note_on_c, 0, 42, 0
2, 38288, Note_on_c, 0, 48, 39
2, 38357, Note_on_c, 0, 48, 0
2, 38365, Note_on_c, 0, 51, 33
2, 38391, Control_c, 0, 64, 0
2, 38422, Control_c, 0, 64, 127
2, 38446, Note_on_c, 0, 51, 0
2, 38449, Note_on_c, 0, 49, 29
2, 38499, Control_c, 0, 64, 0
2, 38537, Control_c, 0, 64, 127
2, 38547, Note_on_c, 0, 49, 0
2, 38559, Note_on_c, 0, 54, 24
2, 38602, Note_on_c, 0, 54, 0
2, 38672, Note_on_c, 0, 37, 27
2, 38716, Note_on_c, 0, 78, 0
2, 38790, Note_on_c, 0, 37, 0
2, 38862, Note_on_c, 0, 30, 32
2, 38883, Control_c, 0, 64, 0
2, 38933, Control_c, 0, 64, 127
2, 38954, Note_on_c, 0, 30, 0
2, 39148, Note_on_c, 0, 58, 34
2, 39157, Note_on_c, 0, 51, 15
2, 39160, Note_on_c, 0, 42, 16
2, 39199, Note_on_c, 0, 51, 0
2, 39205, Note_on_c, 0, 42, 0
2, 39218, Note_on_c, 0, 58, 0
2, 39301, Note_on_c, 0, 58, 45
2, 39308, Note_on_c, 0, 51, 19
2, 39308, Note_on_c, 0, 42, 10
2, 39332, Note_on_c, 0, 51, 0
2, 39344, Note_on_c, 0, 42, 0
2, 39358, Note_on_c, 0, 58, 0
2, 39411, Note_on_c, 0, 58, 35
2, 39419, Note_on_c, 0, 42, 20
2, 39424, Note_on_c, 0, 51, 17
2, 39447, Note_on_c, 0, 51, 0
2, 39454, Note_on_c, 0, 42, 0
2, 39513, Note_on_c, 0, 58, 0
2, 39516, Note_on_c, 0, 63, 34
2, 39522, Note_on_c, 0, 42, 16
2, 39525, Note_on_c, 0, 51, 21
2, 39547, Note_on_c, 0, 51, 0
2, 39556, Note_on_c, 0, 42, 0
2, 39624, Note_on_c, 0, 58, 48
2, 39626, Note_on_c, 0, 42, 20
2, 39627, Note_on_c, 0, 51, 25
2, 39629, Note_on_c, 0, 63, 0
2, 39650, Note_on_c, 0, 58, 0
2, 39657, Note_on_c, 0, 51, 0
2, 39665, Note_on_c, 0, 42, 0
2, 39735, Note_on_c, 0, 70, 60
2, 39738, Note_on_c, 0, 42, 11
2, 39740, Note_on_c, 0, 51, 23
2, 39742, Note_on_c, 0, 58, 33
2, 39771, Note_on_c, 0, 51, 0
2, 39784, Note_on_c, 0, 42, 0
2, 39857, Note_on_c, 0, 58, 0
2, 39867, Note_on_c, 0, 61, 27
2, 39870, Note_on_c, 0, 42, 11
2, 39873, Note_on_c, 0, 51, 17
2, 39882, Control_c, 0, 64, 0
2, 39921, Note_on_c, 0, 51, 0
2, 39924, Control_c, 0, 64, 127
2, 39934, Note_on_c, 0, 42, 0
2, 40004, Note_on_c, 0, 61, 0
2, 40007, Note_on_c, 0, 42, 11
2, 40008, Note_on_c, 0, 51, 22
2, 40014, Note_on_c, 0, 59, 16
2, 40020, Control_c, 0, 64, 0
2, 40059, Control_c, 0, 64, 127
2, 40067, Note_on_c, 0, 51, 0
2, 40073, Note_on_c, 0, 42, 0
2, 40078, Note_on_c, 0, 59, 0
2, 40198, Note_on_c, 0, 42, 13
2, 40203, Note_on_c, 0, 58, 21
2, 40204, Note_on_c, 0, 49, 21
2, 40220, Control_c, 0, 64, 0
2, 40266, Control_c, 0, 64, 127
2, 40267, Note_on_c, 0, 49, 0
2, 40270, Note_on_c, 0, 58, 0
2, 40273, Note_on_c, 0, 42, 0
2, 40279, Note_on_c, 0, 70, 0
2, 40442, Note_on_c, 0, 69, 32
2, 40447, Note_on_c, 0, 58, 15
2, 40456, Note_on_c, 0, 42, 10
2, 40457, Note_on_c, 0, 49, 11
2, 40495, Note_on_c, 0, 58, 0
2, 40497, Note_on_c, 0, 49, 0
2, 40502, Note_on_c, 0, 42, 0
2, 40540, Note_on_c, 0, 69, 0
2, 40540, Note_on_c, 0, 70, 37
2, 40582, Note_on_c, 0, 49, 24
2, 40584, Note_on_c, 0, 42, 19
2, 40614, Note_on_c, 0, 42, 0
2, 40659, Note_on_c, 0, 73, 36
2, 40664, Note_on_c, 0, 70, 0
2, 40695, Note_on_c, 0, 58, 30
2, 40696, Control_c, 0, 64, 0
2, 40727, Control_c, 0, 64, 127
2, 40817, Note_on_c, 0, 73, 0
2, 40821, Note_on_c, 0, 71, 25
2, 40832, Note_on_c, 0, 58, 0
2, 40859, Note_on_c, 0, 49, 0
2, 40916, Note_on_c, 0, 71, 0
2, 41127, Note_on_c, 0, 70, 28
2, 41133, Note_on_c, 0, 58, 26
2, 41135, Note_on_c, 0, 42, 10
2, 41139, Note_on_c, 0, 49, 15
2, 41307, Control_c, 0, 64, 0
2, 41338, Control_c, 0, 64, 127
2, 41373, Control_c, 0, 64, 0
2, 41422, Control_c, 0, 64, 127
2, 41542, Note_on_c, 0, 58, 0
2, 41634, Note_on_c, 0, 70, 0
2, 41671, Note_on_c, 0, 49, 0
2, 41672, Note_on_c, 0, 42, 0
2, 42087, Control_c, 0, 64, 0
2, 42087, End_track
0, 0, End_of_file
