0, 0, Header, 1, 2, 120
1, 0, Start_track
1, 0, Time_signature, 4, 2, 24, 8
1, 0, Key_signature, -5, "major"
1, 0, Tempo, 500000
1, 0, End_track
2, 0, Start_track
2, 0, MIDI_port, 0
2, 0, Title_t, "  "
2, 0, Note_on_c, 0, 63, 70
2, 10, Control_c, 0, 64, 127
2, 11, Note_on_c, 0, 63, 0
2, 30, Note_on_c, 0, 78, 109
2, 30, Note_on_c, 0, 29, 99
2, 37, Note_on_c, 0, 29, 0
2, 37, Note_on_c, 0, 69, 74
2, 51, Note_on_c, 0, 69, 0
2, 73, Note_on_c, 0, 78, 0
2, 117, Note_on_c, 0, 63, 55
2, 129, Note_on_c, 0, 63, 0
2, 157, Note_on_c, 0, 77, 110
2, 161, Note_on_c, 0, 69, 83
2, 162, Note_on_c, 0, 60, 81
2, 163, Note_on_c, 0, 53, 80
2, 165, Note_on_c, 0, 48, 54
2, 175, Note_on_c, 0, 77, 0
2, 179, Note_on_c, 0, 60, 0
2, 180, Note_on_c, 0, 48, 0
2, 186, Note_on_c, 0, 53, 0
2, 188, Note_on_c, 0, 69, 0
2, 235, Note_on_c, 0, 76, 99
2, 237, Note_on_c, 0, 63, 67
2, 238, Note_on_c, 0, 60, 75
2, 240, Note_on_c, 0, 53, 63
2, 242, Note_on_c, 0, 48, 53
2, 243, Note_on_c, 0, 69, 56
2, 249, Note_on_c, 0, 63, 0
2, 254, Note_on_c, 0, 60, 0
2, 255, Note_on_c, 0, 53, 0
2, 255, Note_on_c, 0, 48, 0
2, 256, Note_on_c, 0, 69, 0
2, 260, Note_on_c, 0, 76, 0
2, 304, Note_on_c, 0, 75, 100
2, 306, Note_on_c, 0, 63, 88
2, 306, Note_on_c, 0, 60, 84
2, 307, Note_on_c, 0, 69, 81
2, 309, Note_on_c, 0, 53, 61
2, 310, Note_on_c, 0, 48, 78
2, 318, Note_on_c, 0, 63, 0
2, 321, Note_on_c, 0, 69, 0
2, 321, Note_on_c, 0, 48, 0
2, 322, Note_on_c, 0, 60, 0
2, 323, Note_on_c, 0, 53, 0
2, 328, Note_on_c, 0, 75, 0
2, 375, Note_on_c, 0, 63, 87
2, 375, Note_on_c, 0, 73, 101
2, 376, Note_on_c, 0, 60, 86
2, 378, Note_on_c, 0, 69, 84
2, 378, Note_on_c, 0, 53, 73
2, 379, Note_on_c, 0, 48, 63
2, 385, Note_on_c, 0, 63, 0
2, 386, Note_on_c, 0, 60, 0
2, 387, Note_on_c, 0, 69, 0
2, 389, Note_on_c, 0, 53, 0
2, 390, Note_on_c, 0, 48, 0
2, 402, Note_on_c, 0, 73, 0
2, 471, Note_on_c, 0, 72, 112
2, 472, Note_on_c, 0, 63, 92
2, 473, Note_on_c, 0, 60, 92
2, 473, Note_on_c, 0, 69, 95
2, 477, Note_on_c, 0, 48, 76
2, 477, Note_on_c, 0, 53, 65
2, 481, Note_on_c, 0, 60, 0
2, 483, Note_on_c, 0, 63, 0
2, 485, Note_on_c, 0, 69, 0
2, 486, Note_on_c, 0, 48, 0
2, 490, Note_on_c, 0, 53, 0
2, 496, Note_on_c, 0, 72, 0
2, 859, Control_c, 0, 64, 0
2, 976, Note_on_c, 0, 77, 99
2, 982, Note_on_c, 0, 46, 78
2, 997, Control_c, 0, 64, 127
2, 1002, Note_on_c, 0, 72, 83
2, 1003, Note_on_c, 0, 46, 0
2, 1007, Note_on_c, 0, 77, 0
2, 1014, Note_on_c, 0, 72, 0
2, 1021, Note_on_c, 0, 75, 72
2, 1028, Note_on_c, 0, 61, 64
2, 1034, Note_on_c, 0, 53, 51
2, 1038, Note_on_c, 0, 61, 0
2, 1041, Note_on_c, 0, 73, 83
2, 1046, Note_on_c, 0, 53, 0
2, 1049, Note_on_c, 0, 75, 0
2, 1054, Note_on_c, 0, 73, 0
2, 1066, Note_on_c, 0, 65, 54
2, 1085, Note_on_c, 0, 65, 0
2, 1088, Note_on_c, 0, 69, 58
2, 1106, Note_on_c, 0, 69, 0
2, 1107, Note_on_c, 0, 41, 81
2, 1108, Note_on_c, 0, 70, 90
2, 1116, Note_on_c, 0, 41, 0
2, 1122, Note_on_c, 0, 70, 0
2, 1135, Note_on_c, 0, 72, 88
2, 1144, Control_c, 0, 64, 0
2, 1147, Note_on_c, 0, 72, 0
2, 1155, Note_on_c, 0, 46, 94
2, 1156, Note_on_c, 0, 73, 89
2, 1178, Note_on_c, 0, 75, 92
2, 1186, Note_on_c, 0, 46, 0
2, 1187, Note_on_c, 0, 73, 0
2, 1188, Note_on_c, 0, 75, 0
2, 1190, Control_c, 0, 64, 127
2, 1200, Note_on_c, 0, 61, 71
2, 1201, Note_on_c, 0, 77, 95
2, 1206, Note_on_c, 0, 53, 70
2, 1211, Note_on_c, 0, 61, 0
2, 1212, Note_on_c, 0, 77, 0
2, 1217, Note_on_c, 0, 53, 0
2, 1221, Note_on_c, 0, 79, 94
2, 1242, Note_on_c, 0, 81, 103
2, 1247, Note_on_c, 0, 79, 0
2, 1264, Note_on_c, 0, 82, 103
2, 1271, Note_on_c, 0, 81, 0
2, 1274, Note_on_c, 0, 82, 0
2, 1283, Note_on_c, 0, 84, 97
2, 1285, Note_on_c, 0, 41, 78
2, 1294, Note_on_c, 0, 41, 0
2, 1303, Note_on_c, 0, 85, 100
2, 1308, Note_on_c, 0, 84, 0
2, 1312, Control_c, 0, 64, 0
2, 1325, Note_on_c, 0, 87, 100
2, 1329, Note_on_c, 0, 46, 95
2, 1335, Note_on_c, 0, 85, 0
2, 1345, Note_on_c, 0, 87, 0
2, 1345, Note_on_c, 0, 89, 106
2, 1351, Control_c, 0, 64, 127
2, 1367, Note_on_c, 0, 46, 0
2, 1368, Note_on_c, 0, 91, 101
2, 1369, Note_on_c, 0, 89, 0
2, 1374, Note_on_c, 0, 61, 77
2, 1377, Note_on_c, 0, 53, 73
2, 1384, Note_on_c, 0, 61, 0
2, 1385, Note_on_c, 0, 93, 98
2, 1387, Note_on_c, 0, 53, 0
2, 1396, Note_on_c, 0, 91, 0
2, 1409, Note_on_c, 0, 94, 103
2, 1418, Note_on_c, 0, 93, 0
2, 1422, Note_on_c, 0, 94, 0
2, 1429, Note_on_c, 0, 96, 98
2, 1448, Note_on_c, 0, 97, 101
2, 1451, Note_on_c, 0, 41, 78
2, 1457, Note_on_c, 0, 96, 0
2, 1460, Note_on_c, 0, 41, 0
2, 1471, Note_on_c, 0, 99, 95
2, 1488, Note_on_c, 0, 97, 0
2, 1489, Note_on_c, 0, 100, 101
2, 1491, Note_on_c, 0, 46, 104
2, 1507, Note_on_c, 0, 99, 0
2, 1510, Note_on_c, 0, 101, 101
2, 1515, Note_on_c, 0, 46, 0
2, 1518, Note_on_c, 0, 100, 0
2, 1529, Note_on_c, 0, 99, 81
2, 1534, Note_on_c, 0, 61, 79
2, 1539, Note_on_c, 0, 53, 73
2, 1546, Note_on_c, 0, 61, 0
2, 1546, Note_on_c, 0, 101, 0
2, 1549, Note_on_c, 0, 53, 0
2, 1550, Note_on_c, 0, 97, 90
2, 1563, Note_on_c, 0, 99, 0
2, 1570, Note_on_c, 0, 96, 76
2, 1573, Note_on_c, 0, 97, 0
2, 1595, Note_on_c, 0, 94, 85
2, 1596, Note_on_c, 0, 96, 0
2, 1613, Note_on_c, 0, 93, 89
2, 1614, Note_on_c, 0, 94, 0
2, 1615, Note_on_c, 0, 41, 72
2, 1624, Note_on_c, 0, 93, 0
2, 1629, Note_on_c, 0, 41, 0
2, 1635, Note_on_c, 0, 94, 94
2, 1643, Control_c, 0, 64, 0
2, 1657, Note_on_c, 0, 46, 95
2, 1657, Note_on_c, 0, 92, 90
2, 1671, Note_on_c, 0, 94, 0
2, 1674, Control_c, 0, 64, 127
2, 1675, Note_on_c, 0, 90, 86
2, 1685, Note_on_c, 0, 46, 0
2, 1692, Note_on_c, 0, 92, 0
2, 1695, Note_on_c, 0, 89, 89
2, 1699, Note_on_c, 0, 61, 65
2, 1701, Note_on_c, 0, 90, 0
2, 1705, Note_on_c, 0, 53, 64
2, 1711, Note_on_c, 0, 61, 0
2, 1716, Note_on_c, 0, 53, 0
2, 1717, Note_on_c, 0, 88, 90
2, 1718, Note_on_c, 0, 89, 0
2, 1731, Note_on_c, 0, 88, 0
2, 1740, Note_on_c, 0, 89, 93
2, 1761, Note_on_c, 0, 87, 93
2, 1776, Note_on_c, 0, 89, 0
2, 1780, Note_on_c, 0, 41, 73
2, 1784, Note_on_c, 0, 85, 95
2, 1790, Note_on_c, 0, 41, 0
2, 1800, Note_on_c, 0, 87, 0
2, 1804, Note_on_c, 0, 84, 94
2, 1807, Note_on_c, 0, 85, 0
2, 1827, Note_on_c, 0, 82, 111
2, 1827, Note_on_c, 0, 46, 92
2, 1831, Note_on_c, 0, 84, 0
2, 1835, Control_c, 0, 64, 0
2, 1847, Note_on_c, 0, 81, 101
2, 1857, Note_on_c, 0, 82, 0
2, 1858, Note_on_c, 0, 46, 0
2, 1858, Control_c, 0, 64, 127
2, 1869, Note_on_c, 0, 82, 117
2, 1870, Note_on_c, 0, 81, 0
2, 1872, Note_on_c, 0, 61, 70
2, 1877, Note_on_c, 0, 53, 68
2, 1882, Note_on_c, 0, 61, 0
2, 1887, Note_on_c, 0, 53, 0
2, 1890, Note_on_c, 0, 80, 97
2, 1908, Note_on_c, 0, 82, 0
2, 1909, Note_on_c, 0, 78, 94
2, 1929, Note_on_c, 0, 80, 0
2, 1930, Note_on_c, 0, 77, 98
2, 1936, Note_on_c, 0, 78, 0
2, 1948, Note_on_c, 0, 41, 86
2, 1951, Note_on_c, 0, 75, 97
2, 1954, Note_on_c, 0, 77, 0
2, 1957, Note_on_c, 0, 41, 0
2, 1972, Note_on_c, 0, 73, 96
2, 1977, Control_c, 0, 64, 0
2, 1992, Note_on_c, 0, 75, 0
2, 1993, Note_on_c, 0, 46, 105
2, 1996, Note_on_c, 0, 72, 91
2, 1999, Note_on_c, 0, 73, 0
2, 2002, Note_on_c, 0, 46, 0
2, 2008, Note_on_c, 0, 74, 24
2, 2014, Note_on_c, 0, 73, 93
2, 2020, Note_on_c, 0, 74, 0
2, 2020, Note_on_c, 0, 72, 0
2, 2020, Control_c, 0, 64, 127
2, 2037, Note_on_c, 0, 63, 92
2, 2039, Note_on_c, 0, 75, 91
2, 2041, Note_on_c, 0, 51, 70
2, 2042, Note_on_c, 0, 54, 73
2, 2045, Note_on_c, 0, 63, 0
2, 2047, Note_on_c, 0, 73, 0
2, 2053, Note_on_c, 0, 54, 0
2, 2058, Note_on_c, 0, 75, 0
2, 2058, Note_on_c, 0, 51, 0
2, 2065, Note_on_c, 0, 77, 95
2, 2085, Note_on_c, 0, 78, 95
2, 2097, Note_on_c, 0, 77, 0
2, 2107, Note_on_c, 0, 80, 95
2, 2119, Note_on_c, 0, 78, 0
2, 2127, Note_on_c, 0, 34, 99
2, 2131, Note_on_c, 0, 82, 97
2, 2135, Note_on_c, 0, 34, 0
2, 2153, Note_on_c, 0, 80, 0
2, 2155, Note_on_c, 0, 84, 95
2, 2161, Note_on_c, 0, 82, 0
2, 2179, Note_on_c, 0, 46, 80
2, 2179, Note_on_c, 0, 82, 92
2, 2192, Note_on_c, 0, 46, 0
2, 2200, Note_on_c, 0, 84, 0
2, 2206, Note_on_c, 0, 80, 86
2, 2219, Note_on_c, 0, 82, 0
2, 2229, Note_on_c, 0, 78, 79
2, 2230, Note_on_c, 0, 63, 88
2, 2236, Note_on_c, 0, 54, 66
2, 2238, Note_on_c, 0, 51, 48
2, 2239, Note_on_c, 0, 63, 0
2, 2244, Note_on_c, 0, 80, 0
2, 2246, Note_on_c, 0, 54, 0
2, 2251, Note_on_c, 0, 51, 0
2, 2251, Note_on_c, 0, 77, 80
2, 2254, Note_on_c, 0, 78, 0
2, 2271, Note_on_c, 0, 75, 81
2, 2278, Note_on_c, 0, 77, 0
2, 2296, Note_on_c, 0, 73, 80
2, 2312, Note_on_c, 0, 34, 101
2, 2313, Note_on_c, 0, 75, 0
2, 2318, Note_on_c, 0, 72, 93
2, 2321, Note_on_c, 0, 73, 0
2, 2324, Note_on_c, 0, 34, 0
2, 2327, Control_c, 0, 64, 0
2, 2343, Note_on_c, 0, 75, 76
2, 2351, Note_on_c, 0, 72, 0
2, 2369, Control_c, 0, 64, 127
2, 2372, Note_on_c, 0, 46, 103
2, 2373, Note_on_c, 0, 78, 83
2, 2382, Note_on_c, 0, 75, 0
2, 2385, Note_on_c, 0, 46, 0
2, 2398, Note_on_c, 0, 74, 88
2, 2401, Note_on_c, 0, 78, 0
2, 2421, Note_on_c, 0, 74, 0
2, 2426, Note_on_c, 0, 77, 81
2, 2427, Note_on_c, 0, 63, 90
2, 2431, Note_on_c, 0, 54, 66
2, 2432, Note_on_c, 0, 51, 52
2, 2436, Note_on_c, 0, 63, 0
2, 2442, Note_on_c, 0, 54, 0
2, 2446, Note_on_c, 0, 75, 83
2, 2451, Note_on_c, 0, 77, 0
2, 2451, Note_on_c, 0, 51, 0
2, 2466, Note_on_c, 0, 72, 87
2, 2469, Note_on_c, 0, 75, 0
2, 2482, Note_on_c, 0, 72, 0
2, 2485, Note_on_c, 0, 66, 82
2, 2502, Note_on_c, 0, 34, 84
2, 2509, Note_on_c, 0, 71, 86
2, 2512, Note_on_c, 0, 34, 0
2, 2514, Note_on_c, 0, 66, 0
2, 2530, Note_on_c, 0, 72, 95
2, 2537, Note_on_c, 0, 71, 0
2, 2554, Note_on_c, 0, 73, 92
2, 2556, Note_on_c, 0, 46, 105
2, 2564, Note_on_c, 0, 72, 0
2, 2566, Note_on_c, 0, 46, 0
2, 2578, Note_on_c, 0, 72, 105
2, 2579, Note_on_c, 0, 73, 0
2, 2599, Note_on_c, 0, 74, 100
2, 2602, Note_on_c, 0, 63, 91
2, 2605, Note_on_c, 0, 51, 72
2, 2606, Note_on_c, 0, 72, 0
2, 2608, Note_on_c, 0, 54, 64
2, 2609, Note_on_c, 0, 63, 0
2, 2619, Note_on_c, 0, 54, 0
2, 2619, Note_on_c, 0, 75, 88
2, 2624, Note_on_c, 0, 74, 0
2, 2626, Note_on_c, 0, 51, 0
2, 2641, Note_on_c, 0, 77, 95
2, 2644, Note_on_c, 0, 75, 0
2, 2663, Note_on_c, 0, 75, 81
2, 2675, Note_on_c, 0, 77, 0
2, 2686, Note_on_c, 0, 34, 101
2, 2688, Note_on_c, 0, 76, 97
2, 2690, Note_on_c, 0, 75, 0
2, 2694, Note_on_c, 0, 34, 0
2, 2711, Note_on_c, 0, 77, 103
2, 2715, Note_on_c, 0, 76, 0
2, 2722, Control_c, 0, 64, 0
2, 2733, Note_on_c, 0, 80, 94
2, 2737, Note_on_c, 0, 46, 105
2, 2739, Note_on_c, 0, 77, 0
2, 2747, Note_on_c, 0, 46, 0
2, 2753, Note_on_c, 0, 78, 95
2, 2754, Control_c, 0, 64, 127
2, 2767, Note_on_c, 0, 80, 0
2, 2779, Note_on_c, 0, 78, 0
2, 2779, Note_on_c, 0, 81, 101
2, 2781, Note_on_c, 0, 63, 95
2, 2785, Note_on_c, 0, 51, 72
2, 2787, Note_on_c, 0, 54, 66
2, 2789, Note_on_c, 0, 63, 0
2, 2799, Note_on_c, 0, 54, 0
2, 2802, Note_on_c, 0, 82, 110
2, 2803, Note_on_c, 0, 51, 0
2, 2805, Note_on_c, 0, 81, 0
2, 2828, Note_on_c, 0, 85, 99
2, 2837, Note_on_c, 0, 82, 0
2, 2850, Note_on_c, 0, 84, 103
2, 2851, Note_on_c, 0, 85, 0
2, 2869, Note_on_c, 0, 85, 95
2, 2870, Note_on_c, 0, 34, 100
2, 2874, Note_on_c, 0, 84, 0
2, 2879, Note_on_c, 0, 34, 0
2, 2890, Note_on_c, 0, 85, 0
2, 2897, Note_on_c, 0, 86, 100
2, 2915, Note_on_c, 0, 89, 104
2, 2921, Note_on_c, 0, 46, 104
2, 2924, Note_on_c, 0, 86, 0
2, 2930, Note_on_c, 0, 46, 0
2, 2938, Note_on_c, 0, 87, 104
2, 2943, Note_on_c, 0, 89, 0
2, 2962, Note_on_c, 0, 87, 0
2, 2962, Note_on_c, 0, 63, 99
2, 2962, Note_on_c, 0, 88, 103
2, 2963, Note_on_c, 0, 51, 31
2, 2964, Note_on_c, 0, 54, 52
2, 2974, Note_on_c, 0, 63, 0
2, 2977, Note_on_c, 0, 54, 0
2, 2980, Note_on_c, 0, 51, 0
2, 2983, Note_on_c, 0, 89, 98
2, 2995, Note_on_c, 0, 88, 0
2, 3006, Note_on_c, 0, 92, 97
2, 3013, Note_on_c, 0, 89, 0
2, 3029, Note_on_c, 0, 94, 101
2, 3036, Note_on_c, 0, 92, 0
2, 3046, Note_on_c, 0, 46, 97
2, 3051, Note_on_c, 0, 92, 100
2, 3065, Note_on_c, 0, 94, 0
2, 3069, Note_on_c, 0, 46, 0
2, 3074, Note_on_c, 0, 91, 102
2, 3087, Note_on_c, 0, 92, 0
2, 3096, Control_c, 0, 64, 0
2, 3100, Note_on_c, 0, 45, 103
2, 3105, Note_on_c, 0, 90, 106
2, 3108, Note_on_c, 0, 91, 0
2, 3138, Note_on_c, 0, 90, 0
2, 3144, Note_on_c, 0, 101, 95
2, 3145, Control_c, 0, 64, 127
2, 3147, Note_on_c, 0, 45, 0
2, 3178, Note_on_c, 0, 101, 0
2, 3181, Note_on_c, 0, 99, 93
2, 3190, Note_on_c, 0, 63, 73
2, 3190, Note_on_c, 0, 54, 68
2, 3200, Note_on_c, 0, 63, 0
2, 3204, Note_on_c, 0, 87, 99
2, 3205, Note_on_c, 0, 54, 0
2, 3209, Note_on_c, 0, 99, 0
2, 3235, Note_on_c, 0, 97, 96
2, 3246, Note_on_c, 0, 87, 0
2, 3262, Note_on_c, 0, 96, 103
2, 3270, Note_on_c, 0, 97, 0
2, 3286, Note_on_c, 0, 96, 0
2, 3286, Note_on_c, 0, 84, 99
2, 3286, Note_on_c, 0, 33, 79
2, 3309, Note_on_c, 0, 94, 106
2, 3313, Note_on_c, 0, 84, 0
2, 3321, Note_on_c, 0, 33, 0
2, 3326, Note_on_c, 0, 45, 91
2, 3335, Note_on_c, 0, 45, 0
2, 3336, Note_on_c, 0, 93, 100
2, 3337, Note_on_c, 0, 94, 0
2, 3363, Note_on_c, 0, 81, 73
2, 3369, Note_on_c, 0, 93, 0
2, 3381, Note_on_c, 0, 92, 102
2, 3382, Note_on_c, 0, 63, 92
2, 3385, Note_on_c, 0, 54, 70
2, 3387, Note_on_c, 0, 81, 0
2, 3410, Note_on_c, 0, 63, 0
2, 3411, Note_on_c, 0, 90, 94
2, 3415, Note_on_c, 0, 54, 0
2, 3419, Note_on_c, 0, 92, 0
2, 3436, Note_on_c, 0, 78, 95
2, 3442, Note_on_c, 0, 90, 0
2, 3458, Note_on_c, 0, 78, 0
2, 3462, Note_on_c, 0, 89, 100
2, 3474, Note_on_c, 0, 45, 82
2, 3481, Note_on_c, 0, 87, 95
2, 3484, Note_on_c, 0, 45, 0
2, 3492, Note_on_c, 0, 89, 0
2, 3499, Note_on_c, 0, 78, 92
2, 3511, Note_on_c, 0, 87, 0
2, 3520, Note_on_c, 0, 46, 94
2, 3526, Note_on_c, 0, 78, 0
2, 3526, Note_on_c, 0, 77, 95
2, 3534, Control_c, 0, 64, 0
2, 3549, Note_on_c, 0, 87, 97
2, 3556, Note_on_c, 0, 77, 0
2, 3575, Note_on_c, 0, 61, 75
2, 3577, Note_on_c, 0, 85, 96
2, 3577, Note_on_c, 0, 53, 67
2, 3587, Control_c, 0, 64, 127
2, 3589, Note_on_c, 0, 46, 0
2, 3591, Note_on_c, 0, 87, 0
2, 3595, Note_on_c, 0, 53, 0
2, 3596, Note_on_c, 0, 77, 100
2, 3600, Note_on_c, 0, 61, 0
2, 3604, Note_on_c, 0, 85, 0
2, 3619, Note_on_c, 0, 77, 0
2, 3619, Note_on_c, 0, 85, 96
2, 3642, Note_on_c, 0, 84, 86
2, 3656, Note_on_c, 0, 85, 0
2, 3658, Note_on_c, 0, 46, 87
2, 3661, Note_on_c, 0, 75, 90
2, 3667, Note_on_c, 0, 84, 0
2, 3670, Note_on_c, 0, 46, 0
2, 3684, Note_on_c, 0, 84, 99
2, 3686, Note_on_c, 0, 75, 0
2, 3699, Control_c, 0, 64, 0
2, 3706, Note_on_c, 0, 73, 93
2, 3708, Note_on_c, 0, 84, 0
2, 3708, Note_on_c, 0, 49, 78
2, 3720, Note_on_c, 0, 49, 0
2, 3730, Note_on_c, 0, 82, 99
2, 3733, Note_on_c, 0, 73, 0
2, 3737, Control_c, 0, 64, 127
2, 3756, Note_on_c, 0, 80, 83
2, 3759, Note_on_c, 0, 58, 58
2, 3759, Note_on_c, 0, 53, 62
2, 3760, Note_on_c, 0, 65, 63
2, 3766, Note_on_c, 0, 82, 0
2, 3774, Note_on_c, 0, 80, 0
2, 3775, Note_on_c, 0, 65, 0
2, 3775, Note_on_c, 0, 72, 89
2, 3779, Note_on_c, 0, 53, 0
2, 3783, Note_on_c, 0, 58, 0
2, 3795, Note_on_c, 0, 72, 0
2, 3799, Note_on_c, 0, 80, 74
2, 3820, Note_on_c, 0, 78, 81
2, 3826, Note_on_c, 0, 80, 0
2, 3833, Note_on_c, 0, 78, 0
2, 3834, Note_on_c, 0, 49, 65
2, 3841, Note_on_c, 0, 70, 85
2, 3847, Note_on_c, 0, 49, 0
2, 3858, Note_on_c, 0, 70, 0
2, 3862, Note_on_c, 0, 78, 71
2, 3875, Note_on_c, 0, 78, 0
2, 3893, Note_on_c, 0, 51, 67
2, 3899, Note_on_c, 0, 69, 84
2, 3906, Control_c, 0, 64, 0
2, 3926, Note_on_c, 0, 69, 0
2, 3927, Note_on_c, 0, 70, 89
2, 3954, Note_on_c, 0, 70, 0
2, 3956, Control_c, 0, 64, 127
2, 3957, Note_on_c, 0, 72, 94
2, 3960, Note_on_c, 0, 66, 51
2, 3963, Note_on_c, 0, 57, 59
2, 3973, Note_on_c, 0, 66, 0
2, 3977, Note_on_c, 0, 57, 0
2, 3978, Note_on_c, 0, 51, 0
2, 3982, Note_on_c, 0, 73, 91
2, 3984, Note_on_c, 0, 72, 0
2, 4005, Note_on_c, 0, 75, 82
2, 4015, Note_on_c, 0, 73, 0
2, 4018, Note_on_c, 0, 75, 0
2, 4025, Note_on_c, 0, 76, 97
2, 4031, Note_on_c, 0, 51, 73
2, 4048, Note_on_c, 0, 77, 103
2, 4052, Note_on_c, 0, 76, 0
2, 4061, Note_on_c, 0, 51, 0
2, 4068, Note_on_c, 0, 78, 95
2, 4071, Note_on_c, 0, 77, 0
2, 4071, Control_c, 0, 64, 0
2, 4076, Note_on_c, 0, 49, 96
2, 4087, Note_on_c, 0, 76, 105
2, 4092, Note_on_c, 0, 78, 0
2, 4106, Control_c, 0, 64, 127
2, 4107, Note_on_c, 0, 49, 0
2, 4108, Note_on_c, 0, 77, 100
2, 4111, Note_on_c, 0, 76, 0
2, 4128, Note_on_c, 0, 74, 89
2, 4131, Note_on_c, 0, 65, 85
2, 4131, Note_on_c, 0, 58, 81
2, 4134, Note_on_c, 0, 53, 34
2, 4138, Note_on_c, 0, 77, 0
2, 4143, Note_on_c, 0, 65, 0
2, 4150, Note_on_c, 0, 75, 90
2, 4157, Note_on_c, 0, 74, 0
2, 4159, Note_on_c, 0, 53, 0
2, 4161, Note_on_c, 0, 58, 0
2, 4166, Note_on_c, 0, 75, 0
2, 4168, Note_on_c, 0, 72, 93
2, 4189, Note_on_c, 0, 72, 0
2, 4192, Note_on_c, 0, 73, 90
2, 4209, Note_on_c, 0, 72, 90
2, 4212, Note_on_c, 0, 49, 85
2, 4224, Note_on_c, 0, 49, 0
2, 4226, Note_on_c, 0, 73, 0
2, 4235, Note_on_c, 0, 70, 100
2, 4241, Note_on_c, 0, 72, 0
2, 4252, Control_c, 0, 64, 0
2, 4257, Note_on_c, 0, 69, 92
2, 4259, Note_on_c, 0, 70, 0
2, 4262, Note_on_c, 0, 51, 78
2, 4272, Note_on_c, 0, 69, 0
2, 4277, Note_on_c, 0, 70, 89
2, 4292, Note_on_c, 0, 70, 0
2, 4298, Control_c, 0, 64, 127
2, 4304, Note_on_c, 0, 72, 94
2, 4313, Note_on_c, 0, 51, 0
2, 4318, Note_on_c, 0, 66, 49
2, 4319, Note_on_c, 0, 57, 57
2, 4326, Note_on_c, 0, 72, 0
2, 4329, Note_on_c, 0, 73, 76
2, 4332, Note_on_c, 0, 57, 0
2, 4332, Note_on_c, 0, 66, 0
2, 4349, Note_on_c, 0, 73, 0
2, 4349, Note_on_c, 0, 75, 70
2, 4360, Note_on_c, 0, 75, 0
2, 4377, Note_on_c, 0, 76, 51
2, 4390, Note_on_c, 0, 76, 0
2, 4390, Note_on_c, 0, 51, 66
2, 4392, Note_on_c, 0, 77, 54
2, 4404, Note_on_c, 0, 51, 0
2, 4410, Note_on_c, 0, 78, 79
2, 4414, Note_on_c, 0, 77, 0
2, 4422, Note_on_c, 0, 78, 0
2, 4429, Control_c, 0, 64, 0
2, 4433, Note_on_c, 0, 49, 83
2, 4434, Note_on_c, 0, 76, 83
2, 4446, Note_on_c, 0, 76, 0
2, 4450, Note_on_c, 0, 49, 0
2, 4459, Note_on_c, 0, 77, 71
2, 4463, Control_c, 0, 64, 127
2, 4477, Note_on_c, 0, 74, 67
2, 4481, Note_on_c, 0, 77, 0
2, 4484, Note_on_c, 0, 65, 73
2, 4486, Note_on_c, 0, 58, 62
2, 4488, Note_on_c, 0, 53, 38
2, 4496, Note_on_c, 0, 65, 0
2, 4501, Note_on_c, 0, 75, 67
2, 4505, Note_on_c, 0, 74, 0
2, 4506, Note_on_c, 0, 53, 0
2, 4506, Note_on_c, 0, 58, 0
2, 4513, Note_on_c, 0, 75, 0
2, 4521, Note_on_c, 0, 72, 79
2, 4546, Note_on_c, 0, 72, 0
2, 4546, Note_on_c, 0, 73, 78
2, 4559, Note_on_c, 0, 49, 77
2, 4564, Note_on_c, 0, 72, 97
2, 4572, Note_on_c, 0, 49, 0
2, 4579, Note_on_c, 0, 73, 0
2, 4590, Note_on_c, 0, 72, 0
2, 4590, Note_on_c, 0, 70, 95
2, 4613, Control_c, 0, 64, 0
2, 4616, Note_on_c, 0, 53, 90
2, 4619, Note_on_c, 0, 71, 89
2, 4622, Note_on_c, 0, 70, 0
2, 4645, Note_on_c, 0, 72, 102
2, 4650, Note_on_c, 0, 71, 0
2, 4655, Control_c, 0, 64, 127
2, 4656, Note_on_c, 0, 53, 0
2, 4669, Note_on_c, 0, 74, 99
2, 4672, Note_on_c, 0, 72, 0
2, 4678, Note_on_c, 0, 68, 85
2, 4683, Note_on_c, 0, 59, 61
2, 4695, Note_on_c, 0, 75, 89
2, 4697, Note_on_c, 0, 59, 0
2, 4701, Note_on_c, 0, 74, 0
2, 4704, Note_on_c, 0, 68, 0
2, 4717, Note_on_c, 0, 76, 100
2, 4718, Note_on_c, 0, 75, 0
2, 4738, Note_on_c, 0, 77, 94
2, 4747, Note_on_c, 0, 76, 0
2, 4753, Note_on_c, 0, 53, 89
2, 4759, Note_on_c, 0, 79, 98
2, 4769, Note_on_c, 0, 77, 0
2, 4770, Note_on_c, 0, 53, 0
2, 4783, Note_on_c, 0, 79, 0
2, 4783, Note_on_c, 0, 80, 85
2, 4801, Control_c, 0, 64, 0
2, 4806, Note_on_c, 0, 51, 97
2, 4812, Note_on_c, 0, 78, 95
2, 4816, Note_on_c, 0, 80, 0
2, 4839, Note_on_c, 0, 51, 0
2, 4840, Control_c, 0, 64, 127
2, 4842, Note_on_c, 0, 79, 84
2, 4853, Note_on_c, 0, 78, 0
2, 4865, Note_on_c, 0, 76, 85
2, 4872, Note_on_c, 0, 79, 0
2, 4874, Note_on_c, 0, 67, 66
2, 4879, Note_on_c, 0, 60, 51
2, 4880, Note_on_c, 0, 55, 47
2, 4884, Note_on_c, 0, 67, 0
2, 4887, Note_on_c, 0, 77, 84
2, 4892, Note_on_c, 0, 76, 0
2, 4892, Note_on_c, 0, 60, 0
2, 4895, Note_on_c, 0, 55, 0
2, 4899, Note_on_c, 0, 77, 0
2, 4912, Note_on_c, 0, 74, 85
2, 4933, Note_on_c, 0, 74, 0
2, 4937, Note_on_c, 0, 75, 60
2, 4950, Note_on_c, 0, 51, 76
2, 4958, Note_on_c, 0, 75, 0
2, 4959, Note_on_c, 0, 74, 54
2, 4966, Note_on_c, 0, 51, 0
2, 4970, Note_on_c, 0, 74, 0
2, 4973, Note_on_c, 0, 72, 49
2, 4986, Note_on_c, 0, 72, 0
2, 4993, Control_c, 0, 64, 0
2, 4993, Note_on_c, 0, 53, 99
2, 4996, Note_on_c, 0, 71, 79
2, 5007, Note_on_c, 0, 71, 0
2, 5017, Note_on_c, 0, 72, 83
2, 5030, Note_on_c, 0, 53, 0
2, 5035, Control_c, 0, 64, 127
2, 5041, Note_on_c, 0, 68, 88
2, 5043, Note_on_c, 0, 74, 95
2, 5047, Note_on_c, 0, 59, 64
2, 5050, Note_on_c, 0, 72, 0
2, 5064, Note_on_c, 0, 75, 88
2, 5066, Note_on_c, 0, 74, 0
2, 5067, Note_on_c, 0, 68, 0
2, 5085, Note_on_c, 0, 76, 101
2, 5086, Note_on_c, 0, 59, 0
2, 5088, Note_on_c, 0, 75, 0
2, 5107, Note_on_c, 0, 77, 96
2, 5113, Note_on_c, 0, 76, 0
2, 5128, Note_on_c, 0, 79, 97
2, 5129, Note_on_c, 0, 53, 75
2, 5138, Note_on_c, 0, 77, 0
2, 5140, Note_on_c, 0, 53, 0
2, 5152, Note_on_c, 0, 80, 90
2, 5153, Note_on_c, 0, 79, 0
2, 5170, Control_c, 0, 64, 0
2, 5175, Note_on_c, 0, 51, 96
2, 5178, Note_on_c, 0, 78, 99
2, 5180, Note_on_c, 0, 80, 0
2, 5188, Note_on_c, 0, 51, 0
2, 5205, Control_c, 0, 64, 127
2, 5206, Note_on_c, 0, 79, 87
2, 5215, Note_on_c, 0, 78, 0
2, 5226, Note_on_c, 0, 76, 94
2, 5227, Note_on_c, 0, 67, 78
2, 5230, Note_on_c, 0, 60, 68
2, 5235, Note_on_c, 0, 79, 0
2, 5236, Note_on_c, 0, 55, 44
2, 5237, Note_on_c, 0, 67, 0
2, 5248, Note_on_c, 0, 77, 91
2, 5250, Note_on_c, 0, 76, 0
2, 5251, Note_on_c, 0, 60, 0
2, 5252, Note_on_c, 0, 55, 0
2, 5259, Note_on_c, 0, 77, 0
2, 5273, Note_on_c, 0, 74, 86
2, 5285, Note_on_c, 0, 74, 0
2, 5295, Note_on_c, 0, 75, 75
2, 5309, Note_on_c, 0, 51, 70
2, 5313, Note_on_c, 0, 74, 79
2, 5324, Note_on_c, 0, 75, 0
2, 5325, Note_on_c, 0, 51, 0
2, 5335, Note_on_c, 0, 74, 0
2, 5336, Note_on_c, 0, 72, 85
2, 5358, Control_c, 0, 64, 0
2, 5367, Note_on_c, 0, 53, 73
2, 5369, Note_on_c, 0, 72, 0
2, 5370, Note_on_c, 0, 73, 70
2, 5397, Note_on_c, 0, 75, 70
2, 5404, Note_on_c, 0, 73, 0
2, 5422, Note_on_c, 0, 75, 0
2, 5424, Control_c, 0, 64, 127
2, 5425, Note_on_c, 0, 77, 88
2, 5431, Note_on_c, 0, 68, 62
2, 5433, Note_on_c, 0, 56, 60
2, 5436, Note_on_c, 0, 61, 48
2, 5443, Note_on_c, 0, 53, 0
2, 5449, Note_on_c, 0, 78, 92
2, 5451, Note_on_c, 0, 68, 0
2, 5454, Note_on_c, 0, 61, 0
2, 5454, Note_on_c, 0, 77, 0
2, 5472, Note_on_c, 0, 80, 88
2, 5478, Note_on_c, 0, 78, 0
2, 5484, Note_on_c, 0, 56, 0
2, 5493, Note_on_c, 0, 82, 101
2, 5505, Note_on_c, 0, 80, 0
2, 5508, Note_on_c, 0, 82, 0
2, 5511, Note_on_c, 0, 53, 83
2, 5512, Note_on_c, 0, 83, 92
2, 5521, Note_on_c, 0, 53, 0
2, 5532, Note_on_c, 0, 84, 105
2, 5547, Control_c, 0, 64, 0
2, 5551, Note_on_c, 0, 83, 0
2, 5551, Note_on_c, 0, 85, 98
2, 5554, Note_on_c, 0, 54, 83
2, 5566, Note_on_c, 0, 84, 0
2, 5576, Note_on_c, 0, 86, 95
2, 5587, Note_on_c, 0, 54, 0
2, 5589, Control_c, 0, 64, 127
2, 5597, Note_on_c, 0, 85, 0
2, 5598, Note_on_c, 0, 89, 104
2, 5601, Note_on_c, 0, 86, 0
2, 5612, Note_on_c, 0, 57, 41
2, 5614, Note_on_c, 0, 69, 39
2, 5614, Note_on_c, 0, 60, 29
2, 5623, Note_on_c, 0, 87, 95
2, 5628, Note_on_c, 0, 89, 0
2, 5629, Note_on_c, 0, 69, 0
2, 5632, Note_on_c, 0, 60, 0
2, 5645, Note_on_c, 0, 84, 100
2, 5654, Note_on_c, 0, 57, 0
2, 5656, Note_on_c, 0, 87, 0
2, 5664, Note_on_c, 0, 84, 0
2, 5667, Note_on_c, 0, 81, 90
2, 5676, Note_on_c, 0, 81, 0
2, 5689, Note_on_c, 0, 78, 90
2, 5692, Note_on_c, 0, 54, 70
2, 5711, Note_on_c, 0, 75, 81
2, 5716, Note_on_c, 0, 54, 0
2, 5726, Note_on_c, 0, 78, 0
2, 5733, Note_on_c, 0, 73, 97
2, 5737, Note_on_c, 0, 53, 95
2, 5738, Note_on_c, 0, 75, 0
2, 5754, Note_on_c, 0, 75, 89
2, 5765, Note_on_c, 0, 73, 0
2, 5776, Note_on_c, 0, 75, 0
2, 5778, Note_on_c, 0, 77, 101
2, 5781, Control_c, 0, 64, 0
2, 5785, Note_on_c, 0, 68, 88
2, 5788, Note_on_c, 0, 56, 81
2, 5791, Note_on_c, 0, 61, 66
2, 5800, Note_on_c, 0, 79, 105
2, 5807, Note_on_c, 0, 77, 0
2, 5814, Note_on_c, 0, 53, 0
2, 5819, Note_on_c, 0, 68, 0
2, 5821, Note_on_c, 0, 80, 97
2, 5823, Control_c, 0, 64, 127
2, 5835, Note_on_c, 0, 79, 0
2, 5845, Note_on_c, 0, 82, 108
2, 5851, Note_on_c, 0, 56, 0
2, 5851, Note_on_c, 0, 61, 0
2, 5860, Note_on_c, 0, 80, 0
2, 5865, Note_on_c, 0, 82, 0
2, 5865, Note_on_c, 0, 53, 83
2, 5871, Note_on_c, 0, 83, 97
2, 5885, Note_on_c, 0, 53, 0
2, 5890, Note_on_c, 0, 84, 106
2, 5899, Note_on_c, 0, 83, 0
2, 5900, Control_c, 0, 64, 0
2, 5910, Note_on_c, 0, 85, 94
2, 5911, Note_on_c, 0, 84, 0
2, 5913, Note_on_c, 0, 52, 100
2, 5929, Note_on_c, 0, 84, 91
2, 5940, Note_on_c, 0, 52, 0
2, 5941, Note_on_c, 0, 85, 0
2, 5946, Control_c, 0, 64, 127
2, 5953, Note_on_c, 0, 87, 99
2, 5954, Note_on_c, 0, 84, 0
2, 5963, Note_on_c, 0, 67, 81
2, 5964, Note_on_c, 0, 58, 79
2, 5970, Note_on_c, 0, 61, 57
2, 5974, Note_on_c, 0, 85, 87
2, 5976, Note_on_c, 0, 67, 0
2, 5983, Note_on_c, 0, 61, 0
2, 5989, Note_on_c, 0, 87, 0
2, 5991, Note_on_c, 0, 58, 0
2, 5994, Note_on_c, 0, 82, 100
2, 6008, Note_on_c, 0, 85, 0
2, 6016, Note_on_c, 0, 82, 0
2, 6016, Note_on_c, 0, 79, 95
2, 6025, Note_on_c, 0, 79, 0
2, 6040, Note_on_c, 0, 76, 95
2, 6044, Note_on_c, 0, 52, 78
2, 6054, Note_on_c, 0, 52, 0
2, 6063, Note_on_c, 0, 73, 96
2, 6068, Note_on_c, 0, 76, 0
2, 6081, Control_c, 0, 64, 0
2, 6084, Note_on_c, 0, 72, 93
2, 6085, Note_on_c, 0, 51, 92
2, 6087, Note_on_c, 0, 73, 0
2, 6103, Note_on_c, 0, 73, 88
2, 6104, Note_on_c, 0, 72, 0
2, 6119, Control_c, 0, 64, 127
2, 6126, Note_on_c, 0, 51, 0
2, 6130, Note_on_c, 0, 73, 0
2, 6130, Note_on_c, 0, 74, 100
2, 6136, Note_on_c, 0, 66, 75
2, 6144, Note_on_c, 0, 60, 57
2, 6145, Note_on_c, 0, 57, 41
2, 6149, Note_on_c, 0, 75, 94
2, 6150, Note_on_c, 0, 66, 0
2, 6151, Note_on_c, 0, 74, 0
2, 6156, Note_on_c, 0, 60, 0
2, 6158, Note_on_c, 0, 57, 0
2, 6161, Note_on_c, 0, 75, 0
2, 6174, Note_on_c, 0, 76, 106
2, 6195, Note_on_c, 0, 77, 102
2, 6201, Note_on_c, 0, 76, 0
2, 6216, Note_on_c, 0, 78, 89
2, 6217, Note_on_c, 0, 51, 79
2, 6224, Note_on_c, 0, 77, 0
2, 6228, Note_on_c, 0, 78, 0
2, 6235, Note_on_c, 0, 79, 95
2, 6238, Note_on_c, 0, 51, 0
2, 6249, Note_on_c, 0, 79, 0
2, 6253, Control_c, 0, 64, 0
2, 6259, Note_on_c, 0, 80, 90
2, 6262, Note_on_c, 0, 49, 86
2, 6276, Note_on_c, 0, 81, 91
2, 6279, Note_on_c, 0, 80, 0
2, 6289, Note_on_c, 0, 49, 0
2, 6292, Control_c, 0, 64, 127
2, 6300, Note_on_c, 0, 81, 0
2, 6300, Note_on_c, 0, 84, 100
2, 6311, Note_on_c, 0, 65, 90
2, 6313, Note_on_c, 0, 58, 68
2, 6315, Note_on_c, 0, 53, 70
2, 6324, Note_on_c, 0, 82, 103
2, 6332, Note_on_c, 0, 53, 0
2, 6334, Note_on_c, 0, 65, 0
2, 6336, Note_on_c, 0, 84, 0
2, 6344, Note_on_c, 0, 58, 0
2, 6348, Note_on_c, 0, 78, 89
2, 6363, Note_on_c, 0, 82, 0
2, 6368, Note_on_c, 0, 77, 95
2, 6371, Note_on_c, 0, 78, 0
2, 6389, Note_on_c, 0, 75, 92
2, 6394, Note_on_c, 0, 77, 0
2, 6411, Note_on_c, 0, 73, 92
2, 6429, Note_on_c, 0, 75, 0
2, 6430, Control_c, 0, 64, 0
2, 6432, Note_on_c, 0, 72, 100
2, 6437, Note_on_c, 0, 41, 96
2, 6438, Note_on_c, 0, 73, 0
2, 6454, Note_on_c, 0, 70, 99
2, 6458, Note_on_c, 0, 41, 0
2, 6459, Note_on_c, 0, 72, 0
2, 6469, Control_c, 0, 64, 127
2, 6476, Note_on_c, 0, 69, 96
2, 6481, Note_on_c, 0, 70, 0
2, 6497, Note_on_c, 0, 48, 83
2, 6498, Note_on_c, 0, 72, 100
2, 6501, Note_on_c, 0, 69, 0
2, 6511, Note_on_c, 0, 53, 85
2, 6518, Note_on_c, 0, 48, 0
2, 6522, Note_on_c, 0, 66, 95
2, 6531, Note_on_c, 0, 72, 0
2, 6542, Note_on_c, 0, 57, 83
2, 6545, Note_on_c, 0, 65, 94
2, 6558, Note_on_c, 0, 63, 97
2, 6561, Note_on_c, 0, 66, 0
2, 6568, Note_on_c, 0, 64, 100
2, 6569, Note_on_c, 0, 65, 0
2, 6581, Note_on_c, 0, 53, 0
2, 6586, Note_on_c, 0, 63, 0
2, 6589, Note_on_c, 0, 57, 0
2, 6591, Note_on_c, 0, 65, 79
2, 6598, Note_on_c, 0, 64, 0
2, 6615, Note_on_c, 0, 66, 90
2, 6621, Note_on_c, 0, 65, 0
2, 6635, Note_on_c, 0, 65, 103
2, 6641, Note_on_c, 0, 66, 0
2, 6660, Note_on_c, 0, 65, 0
2, 6661, Note_on_c, 0, 70, 103
2, 6681, Note_on_c, 0, 70, 0
2, 6687, Note_on_c, 0, 69, 103
2, 6710, Note_on_c, 0, 69, 0
2, 6715, Note_on_c, 0, 73, 103
2, 6742, Note_on_c, 0, 72, 112
2, 6748, Note_on_c, 0, 73, 0
2, 6769, Note_on_c, 0, 80, 105
2, 6790, Note_on_c, 0, 72, 0
2, 6797, Note_on_c, 0, 78, 102
2, 6811, Note_on_c, 0, 80, 0
2, 6817, Note_on_c, 0, 78, 0
2, 6830, Control_c, 0, 64, 0
2, 6835, Note_on_c, 0, 77, 117
2, 6835, Note_on_c, 0, 46, 124
2, 6835, Note_on_c, 0, 34, 121
2, 6852, Note_on_c, 0, 34, 0
2, 6858, Note_on_c, 0, 46, 0
2, 6869, Note_on_c, 0, 72, 96
2, 6872, Control_c, 0, 64, 127
2, 6885, Note_on_c, 0, 77, 0
2, 6897, Note_on_c, 0, 75, 80
2, 6901, Note_on_c, 0, 61, 106
2, 6901, Note_on_c, 0, 49, 88
2, 6903, Note_on_c, 0, 72, 0
2, 6903, Note_on_c, 0, 53, 88
2, 6911, Note_on_c, 0, 61, 0
2, 6916, Note_on_c, 0, 53, 0
2, 6922, Note_on_c, 0, 73, 86
2, 6935, Note_on_c, 0, 75, 0
2, 6944, Note_on_c, 0, 49, 0
2, 6946, Note_on_c, 0, 65, 94
2, 6951, Note_on_c, 0, 73, 0
2, 6973, Note_on_c, 0, 69, 100
2, 6976, Note_on_c, 0, 65, 0
2, 6999, Note_on_c, 0, 70, 96
2, 6999, Note_on_c, 0, 29, 94
2, 7000, Note_on_c, 0, 41, 89
2, 7004, Note_on_c, 0, 69, 0
2, 7007, Note_on_c, 0, 29, 0
2, 7008, Note_on_c, 0, 70, 0
2, 7010, Note_on_c, 0, 41, 0
2, 7021, Note_on_c, 0, 72, 100
2, 7030, Control_c, 0, 64, 0
2, 7043, Note_on_c, 0, 73, 97
2, 7044, Note_on_c, 0, 46, 119
2, 7045, Note_on_c, 0, 34, 110
2, 7047, Note_on_c, 0, 72, 0
2, 7054, Note_on_c, 0, 34, 0
2, 7064, Control_c, 0, 64, 127
2, 7067, Note_on_c, 0, 46, 0
2, 7067, Note_on_c, 0, 75, 94
2, 7077, Note_on_c, 0, 75, 0
2, 7077, Note_on_c, 0, 73, 0
2, 7092, Note_on_c, 0, 77, 106
2, 7093, Note_on_c, 0, 49, 86
2, 7093, Note_on_c, 0, 61, 100
2, 7096, Note_on_c, 0, 53, 78
2, 7101, Note_on_c, 0, 61, 0
2, 7105, Note_on_c, 0, 49, 0
2, 7106, Note_on_c, 0, 53, 0
2, 7116, Note_on_c, 0, 79, 99
2, 7121, Note_on_c, 0, 77, 0
2, 7138, Note_on_c, 0, 81, 99
2, 7148, Note_on_c, 0, 79, 0
2, 7164, Note_on_c, 0, 82, 103
2, 7170, Note_on_c, 0, 81, 0
2, 7172, Note_on_c, 0, 82, 0
2, 7185, Note_on_c, 0, 29, 100
2, 7185, Note_on_c, 0, 84, 100
2, 7186, Note_on_c, 0, 41, 96
2, 7192, Note_on_c, 0, 29, 0
2, 7195, Note_on_c, 0, 41, 0
2, 7208, Note_on_c, 0, 85, 100
2, 7213, Note_on_c, 0, 84, 0
2, 7218, Control_c, 0, 64, 0
2, 7231, Note_on_c, 0, 34, 110
2, 7231, Note_on_c, 0, 87, 99
2, 7231, Note_on_c, 0, 46, 110
2, 7238, Note_on_c, 0, 34, 0
2, 7239, Note_on_c, 0, 46, 0
2, 7242, Note_on_c, 0, 85, 0
2, 7254, Note_on_c, 0, 89, 101
2, 7255, Note_on_c, 0, 87, 0
2, 7256, Control_c, 0, 64, 127
2, 7281, Note_on_c, 0, 61, 103
2, 7281, Note_on_c, 0, 91, 98
2, 7283, Note_on_c, 0, 53, 88
2, 7284, Note_on_c, 0, 49, 62
2, 7285, Note_on_c, 0, 89, 0
2, 7288, Note_on_c, 0, 61, 0
2, 7293, Note_on_c, 0, 53, 0
2, 7300, Note_on_c, 0, 49, 0
2, 7302, Note_on_c, 0, 93, 95
2, 7311, Note_on_c, 0, 91, 0
2, 7326, Note_on_c, 0, 94, 97
2, 7331, Note_on_c, 0, 93, 0
2, 7335, Note_on_c, 0, 94, 0
2, 7345, Note_on_c, 0, 96, 100
2, 7367, Note_on_c, 0, 29, 104
2, 7368, Note_on_c, 0, 97, 102
2, 7369, Note_on_c, 0, 41, 99
2, 7374, Note_on_c, 0, 29, 0
2, 7376, Note_on_c, 0, 96, 0
2, 7381, Note_on_c, 0, 41, 0
2, 7389, Note_on_c, 0, 99, 92
2, 7406, Control_c, 0, 64, 0
2, 7409, Note_on_c, 0, 100, 100
2, 7411, Note_on_c, 0, 46, 115
2, 7411, Note_on_c, 0, 34, 111
2, 7412, Note_on_c, 0, 97, 0
2, 7418, Note_on_c, 0, 34, 0
2, 7419, Note_on_c, 0, 46, 0
2, 7431, Note_on_c, 0, 99, 0
2, 7432, Note_on_c, 0, 101, 98
2, 7433, Control_c, 0, 64, 127
2, 7445, Note_on_c, 0, 100, 0
2, 7451, Note_on_c, 0, 99, 75
2, 7456, Note_on_c, 0, 61, 106
2, 7461, Note_on_c, 0, 53, 81
2, 7461, Note_on_c, 0, 49, 68
2, 7463, Note_on_c, 0, 61, 0
2, 7471, Note_on_c, 0, 53, 0
2, 7471, Note_on_c, 0, 101, 0
2, 7474, Note_on_c, 0, 97, 88
2, 7493, Note_on_c, 0, 99, 0
2, 7494, Note_on_c, 0, 49, 0
2, 7494, Note_on_c, 0, 96, 91
2, 7500, Note_on_c, 0, 97, 0
2, 7519, Note_on_c, 0, 94, 95
2, 7522, Note_on_c, 0, 96, 0
2, 7539, Note_on_c, 0, 29, 102
2, 7540, Note_on_c, 0, 93, 98
2, 7541, Note_on_c, 0, 41, 86
2, 7546, Note_on_c, 0, 29, 0
2, 7551, Note_on_c, 0, 41, 0
2, 7552, Note_on_c, 0, 94, 0
2, 7563, Note_on_c, 0, 93, 0
2, 7566, Note_on_c, 0, 94, 106
2, 7575, Control_c, 0, 64, 0
2, 7584, Note_on_c, 0, 46, 118
2, 7584, Note_on_c, 0, 34, 116
2, 7587, Note_on_c, 0, 92, 103
2, 7593, Note_on_c, 0, 34, 0
2, 7596, Note_on_c, 0, 46, 0
2, 7606, Control_c, 0, 64, 127
2, 7608, Note_on_c, 0, 90, 88
2, 7611, Note_on_c, 0, 94, 0
2, 7630, Note_on_c, 0, 89, 99
2, 7632, Note_on_c, 0, 92, 0
2, 7632, Note_on_c, 0, 61, 102
2, 7636, Note_on_c, 0, 53, 87
2, 7636, Note_on_c, 0, 49, 61
2, 7640, Note_on_c, 0, 61, 0
2, 7641, Note_on_c, 0, 90, 0
2, 7645, Note_on_c, 0, 53, 0
2, 7649, Note_on_c, 0, 49, 0
2, 7653, Note_on_c, 0, 88, 101
2, 7657, Note_on_c, 0, 89, 0
2, 7681, Note_on_c, 0, 89, 86
2, 7686, Note_on_c, 0, 88, 0
2, 7705, Note_on_c, 0, 87, 97
2, 7722, Note_on_c, 0, 89, 0
2, 7726, Note_on_c, 0, 41, 93
2, 7727, Note_on_c, 0, 29, 67
2, 7728, Note_on_c, 0, 85, 97
2, 7735, Note_on_c, 0, 41, 0
2, 7738, Note_on_c, 0, 29, 0
2, 7747, Note_on_c, 0, 87, 0
2, 7750, Note_on_c, 0, 84, 89
2, 7756, Note_on_c, 0, 85, 0
2, 7764, Control_c, 0, 64, 0
2, 7772, Note_on_c, 0, 34, 115
2, 7772, Note_on_c, 0, 46, 117
2, 7773, Note_on_c, 0, 82, 112
2, 7779, Note_on_c, 0, 84, 0
2, 7784, Note_on_c, 0, 34, 0
2, 7784, Note_on_c, 0, 46, 0
2, 7796, Note_on_c, 0, 81, 96
2, 7798, Control_c, 0, 64, 127
2, 7811, Note_on_c, 0, 82, 0
2, 7818, Note_on_c, 0, 81, 0
2, 7823, Note_on_c, 0, 61, 100
2, 7824, Note_on_c, 0, 82, 107
2, 7825, Note_on_c, 0, 49, 81
2, 7826, Note_on_c, 0, 53, 84
2, 7830, Note_on_c, 0, 61, 0
2, 7836, Note_on_c, 0, 53, 0
2, 7840, Note_on_c, 0, 49, 0
2, 7843, Note_on_c, 0, 80, 92
2, 7863, Note_on_c, 0, 82, 0
2, 7869, Note_on_c, 0, 78, 83
2, 7888, Note_on_c, 0, 80, 0
2, 7891, Note_on_c, 0, 77, 91
2, 7896, Note_on_c, 0, 78, 0
2, 7908, Note_on_c, 0, 41, 76
2, 7909, Note_on_c, 0, 29, 80
2, 7912, Note_on_c, 0, 75, 92
2, 7913, Note_on_c, 0, 77, 0
2, 7917, Note_on_c, 0, 41, 0
2, 7917, Note_on_c, 0, 29, 0
2, 7935, Note_on_c, 0, 73, 92
2, 7940, Control_c, 0, 64, 0
2, 7957, Note_on_c, 0, 75, 0
2, 7957, Note_on_c, 0, 46, 109
2, 7958, Note_on_c, 0, 34, 105
2, 7958, Note_on_c, 0, 72, 103
2, 7964, Note_on_c, 0, 73, 0
2, 7965, Note_on_c, 0, 46, 0
2, 7965, Note_on_c, 0, 34, 0
2, 7980, Note_on_c, 0, 73, 82
2, 7983, Control_c, 0, 64, 127
2, 7990, Note_on_c, 0, 72, 0
2, 8008, Note_on_c, 0, 75, 81
2, 8011, Note_on_c, 0, 51, 89
2, 8011, Note_on_c, 0, 63, 84
2, 8013, Note_on_c, 0, 54, 75
2, 8015, Note_on_c, 0, 73, 0
2, 8020, Note_on_c, 0, 63, 0
2, 8020, Note_on_c, 0, 51, 0
2, 8022, Note_on_c, 0, 54, 0
2, 8026, Note_on_c, 0, 75, 0
2, 8033, Note_on_c, 0, 77, 100
2, 8058, Note_on_c, 0, 78, 100
2, 8071, Note_on_c, 0, 77, 0
2, 8080, Note_on_c, 0, 80, 88
2, 8096, Note_on_c, 0, 78, 0
2, 8100, Note_on_c, 0, 82, 96
2, 8100, Note_on_c, 0, 29, 82
2, 8101, Note_on_c, 0, 41, 81
2, 8109, Note_on_c, 0, 29, 0
2, 8110, Note_on_c, 0, 41, 0
2, 8121, Note_on_c, 0, 80, 0
2, 8124, Note_on_c, 0, 84, 94
2, 8125, Note_on_c, 0, 82, 0
2, 8128, Control_c, 0, 64, 0
2, 8143, Note_on_c, 0, 34, 104
2, 8143, Note_on_c, 0, 82, 92
2, 8144, Note_on_c, 0, 46, 94
2, 8150, Note_on_c, 0, 34, 0
2, 8154, Note_on_c, 0, 46, 0
2, 8163, Control_c, 0, 64, 127
2, 8168, Note_on_c, 0, 80, 88
2, 8170, Note_on_c, 0, 84, 0
2, 8188, Note_on_c, 0, 82, 0
2, 8188, Note_on_c, 0, 78, 83
2, 8191, Note_on_c, 0, 63, 100
2, 8196, Note_on_c, 0, 51, 75
2, 8197, Note_on_c, 0, 54, 69
2, 8198, Note_on_c, 0, 63, 0
2, 8205, Note_on_c, 0, 80, 0
2, 8208, Note_on_c, 0, 54, 0
2, 8209, Note_on_c, 0, 51, 0
2, 8210, Note_on_c, 0, 77, 85
2, 8213, Note_on_c, 0, 78, 0
2, 8231, Note_on_c, 0, 75, 85
2, 8232, Note_on_c, 0, 77, 0
2, 8252, Note_on_c, 0, 73, 74
2, 8253, Note_on_c, 0, 75, 0
2, 8273, Note_on_c, 0, 73, 0
2, 8281, Note_on_c, 0, 72, 92
2, 8283, Note_on_c, 0, 41, 77
2, 8283, Note_on_c, 0, 29, 81
2, 8295, Note_on_c, 0, 41, 0
2, 8297, Note_on_c, 0, 29, 0
2, 8304, Note_on_c, 0, 75, 52
2, 8307, Note_on_c, 0, 72, 0
2, 8313, Control_c, 0, 64, 0
2, 8321, Note_on_c, 0, 78, 87
2, 8329, Note_on_c, 0, 45, 86
2, 8330, Note_on_c, 0, 33, 101
2, 8331, Note_on_c, 0, 75, 0
2, 8336, Note_on_c, 0, 33, 0
2, 8338, Note_on_c, 0, 45, 0
2, 8348, Note_on_c, 0, 78, 0
2, 8348, Note_on_c, 0, 74, 59
2, 8359, Control_c, 0, 64, 127
2, 8360, Note_on_c, 0, 74, 0
2, 8365, Note_on_c, 0, 77, 77
2, 8368, Note_on_c, 0, 51, 82
2, 8370, Note_on_c, 0, 63, 86
2, 8371, Note_on_c, 0, 54, 76
2, 8379, Note_on_c, 0, 63, 0
2, 8381, Note_on_c, 0, 54, 0
2, 8382, Note_on_c, 0, 51, 0
2, 8391, Note_on_c, 0, 75, 81
2, 8393, Note_on_c, 0, 77, 0
2, 8418, Note_on_c, 0, 72, 81
2, 8420, Note_on_c, 0, 75, 0
2, 8432, Note_on_c, 0, 72, 0
2, 8437, Note_on_c, 0, 66, 81
2, 8464, Note_on_c, 0, 39, 73
2, 8465, Note_on_c, 0, 66, 0
2, 8466, Note_on_c, 0, 27, 76
2, 8467, Note_on_c, 0, 71, 69
2, 8473, Note_on_c, 0, 39, 0
2, 8475, Note_on_c, 0, 27, 0
2, 8487, Note_on_c, 0, 72, 88
2, 8493, Note_on_c, 0, 71, 0
2, 8501, Control_c, 0, 64, 0
2, 8512, Note_on_c, 0, 73, 93
2, 8515, Note_on_c, 0, 45, 97
2, 8515, Note_on_c, 0, 33, 98
2, 8522, Note_on_c, 0, 33, 0
2, 8522, Note_on_c, 0, 45, 0
2, 8523, Note_on_c, 0, 72, 0
2, 8525, Note_on_c, 0, 73, 0
2, 8532, Control_c, 0, 64, 127
2, 8538, Note_on_c, 0, 72, 103
2, 8560, Note_on_c, 0, 74, 89
2, 8567, Note_on_c, 0, 63, 97
2, 8568, Note_on_c, 0, 72, 0
2, 8571, Note_on_c, 0, 51, 67
2, 8572, Note_on_c, 0, 54, 66
2, 8574, Note_on_c, 0, 63, 0
2, 8577, Note_on_c, 0, 75, 79
2, 8584, Note_on_c, 0, 54, 0
2, 8585, Note_on_c, 0, 51, 0
2, 8589, Note_on_c, 0, 74, 0
2, 8598, Note_on_c, 0, 76, 89
2, 8605, Note_on_c, 0, 75, 0
2, 8620, Note_on_c, 0, 75, 83
2, 8631, Note_on_c, 0, 76, 0
2, 8645, Note_on_c, 0, 39, 91
2, 8646, Note_on_c, 0, 27, 98
2, 8647, Note_on_c, 0, 76, 107
2, 8651, Note_on_c, 0, 75, 0
2, 8653, Note_on_c, 0, 27, 0
2, 8655, Note_on_c, 0, 39, 0
2, 8671, Note_on_c, 0, 77, 97
2, 8680, Note_on_c, 0, 76, 0
2, 8682, Control_c, 0, 64, 0
2, 8694, Note_on_c, 0, 80, 92
2, 8696, Note_on_c, 0, 77, 0
2, 8698, Note_on_c, 0, 45, 70
2, 8700, Note_on_c, 0, 33, 82
2, 8708, Note_on_c, 0, 45, 0
2, 8709, Note_on_c, 0, 33, 0
2, 8717, Note_on_c, 0, 78, 91
2, 8720, Control_c, 0, 64, 127
2, 8732, Note_on_c, 0, 80, 0
2, 8743, Note_on_c, 0, 78, 0
2, 8749, Note_on_c, 0, 83, 89
2, 8757, Note_on_c, 0, 54, 44
2, 8758, Note_on_c, 0, 63, 90
2, 8758, Note_on_c, 0, 51, 21
2, 8764, Note_on_c, 0, 51, 0
2, 8766, Note_on_c, 0, 63, 0
2, 8768, Note_on_c, 0, 54, 0
2, 8776, Note_on_c, 0, 84, 105
2, 8782, Note_on_c, 0, 83, 0
2, 8797, Note_on_c, 0, 85, 96
2, 8802, Note_on_c, 0, 84, 0
2, 8820, Note_on_c, 0, 85, 0
2, 8820, Note_on_c, 0, 84, 101
2, 8832, Note_on_c, 0, 39, 95
2, 8834, Note_on_c, 0, 27, 100
2, 8841, Note_on_c, 0, 27, 0
2, 8843, Note_on_c, 0, 39, 0
2, 8843, Note_on_c, 0, 86, 95
2, 8855, Note_on_c, 0, 84, 0
2, 8863, Note_on_c, 0, 87, 76
2, 8870, Control_c, 0, 64, 0
2, 8876, Note_on_c, 0, 86, 0
2, 8881, Note_on_c, 0, 33, 116
2, 8882, Note_on_c, 0, 45, 114
2, 8883, Note_on_c, 0, 89, 97
2, 8887, Note_on_c, 0, 87, 0
2, 8888, Note_on_c, 0, 33, 0
2, 8903, Note_on_c, 0, 87, 87
2, 8905, Note_on_c, 0, 45, 0
2, 8912, Control_c, 0, 64, 127
2, 8918, Note_on_c, 0, 89, 0
2, 8932, Note_on_c, 0, 87, 0
2, 8932, Note_on_c, 0, 88, 75
2, 8941, Note_on_c, 0, 51, 95
2, 8942, Note_on_c, 0, 63, 105
2, 8945, Note_on_c, 0, 54, 78
2, 8949, Note_on_c, 0, 63, 0
2, 8951, Note_on_c, 0, 51, 0
2, 8955, Note_on_c, 0, 54, 0
2, 8957, Note_on_c, 0, 89, 76
2, 8968, Note_on_c, 0, 88, 0
2, 8983, Note_on_c, 0, 92, 92
2, 8996, Note_on_c, 0, 89, 0
2, 9004, Note_on_c, 0, 94, 98
2, 9016, Note_on_c, 0, 92, 0
2, 9031, Note_on_c, 0, 39, 92
2, 9033, Note_on_c, 0, 92, 95
2, 9036, Note_on_c, 0, 30, 65
2, 9038, Note_on_c, 0, 39, 0
2, 9046, Note_on_c, 0, 30, 0
2, 9052, Note_on_c, 0, 94, 0
2, 9066, Note_on_c, 0, 91, 95
2, 9078, Note_on_c, 0, 92, 0
2, 9081, Control_c, 0, 64, 0
2, 9091, Note_on_c, 0, 44, 101
2, 9093, Note_on_c, 0, 32, 101
2, 9097, Note_on_c, 0, 90, 104
2, 9100, Note_on_c, 0, 32, 0
2, 9100, Note_on_c, 0, 44, 0
2, 9102, Note_on_c, 0, 91, 0
2, 9127, Control_c, 0, 64, 127
2, 9132, Note_on_c, 0, 101, 111
2, 9140, Note_on_c, 0, 90, 0
2, 9160, Note_on_c, 0, 51, 89
2, 9172, Note_on_c, 0, 99, 93
2, 9177, Note_on_c, 0, 101, 0
2, 9181, Note_on_c, 0, 60, 81
2, 9183, Note_on_c, 0, 51, 0
2, 9200, Note_on_c, 0, 66, 99
2, 9201, Note_on_c, 0, 90, 98
2, 9206, Note_on_c, 0, 99, 0
2, 9214, Note_on_c, 0, 60, 0
2, 9217, Note_on_c, 0, 66, 0
2, 9225, Note_on_c, 0, 90, 0
2, 9240, Note_on_c, 0, 99, 100
2, 9275, Note_on_c, 0, 97, 88
2, 9284, Note_on_c, 0, 99, 0
2, 9292, Note_on_c, 0, 39, 95
2, 9292, Note_on_c, 0, 87, 105
2, 9295, Note_on_c, 0, 27, 83
2, 9301, Note_on_c, 0, 97, 0
2, 9304, Note_on_c, 0, 27, 0
2, 9314, Note_on_c, 0, 87, 0
2, 9316, Note_on_c, 0, 39, 0
2, 9318, Note_on_c, 0, 97, 94
2, 9331, Control_c, 0, 64, 0
2, 9340, Note_on_c, 0, 44, 94
2, 9340, Note_on_c, 0, 32, 93
2, 9341, Note_on_c, 0, 96, 100
2, 9350, Note_on_c, 0, 32, 0
2, 9356, Note_on_c, 0, 44, 0
2, 9364, Note_on_c, 0, 97, 0
2, 9364, Note_on_c, 0, 87, 98
2, 9369, Control_c, 0, 64, 127
2, 9372, Note_on_c, 0, 96, 0
2, 9387, Note_on_c, 0, 96, 104
2, 9388, Note_on_c, 0, 87, 0
2, 9394, Note_on_c, 0, 51, 81
2, 9406, Note_on_c, 0, 51, 0
2, 9414, Note_on_c, 0, 60, 81
2, 9418, Note_on_c, 0, 94, 101
2, 9424, Note_on_c, 0, 96, 0
2, 9432, Note_on_c, 0, 66, 56
2, 9438, Note_on_c, 0, 68, 46
2, 9439, Note_on_c, 0, 60, 0
2, 9444, Note_on_c, 0, 85, 98
2, 9445, Note_on_c, 0, 66, 0
2, 9452, Note_on_c, 0, 94, 0
2, 9454, Note_on_c, 0, 68, 0
2, 9469, Note_on_c, 0, 85, 0
2, 9470, Note_on_c, 0, 94, 96
2, 9498, Note_on_c, 0, 32, 84
2, 9499, Note_on_c, 0, 92, 88
2, 9515, Note_on_c, 0, 94, 0
2, 9519, Note_on_c, 0, 84, 95
2, 9525, Note_on_c, 0, 92, 0
2, 9531, Control_c, 0, 64, 0
2, 9534, Note_on_c, 0, 84, 0
2, 9543, Note_on_c, 0, 32, 0
2, 9543, Note_on_c, 0, 92, 91
2, 9544, Note_on_c, 0, 44, 98
2, 9553, Note_on_c, 0, 44, 0
2, 9569, Control_c, 0, 64, 127
2, 9571, Note_on_c, 0, 90, 83
2, 9586, Note_on_c, 0, 92, 0
2, 9590, Note_on_c, 0, 82, 106
2, 9599, Note_on_c, 0, 90, 0
2, 9603, Note_on_c, 0, 65, 90
2, 9604, Note_on_c, 0, 61, 81
2, 9613, Note_on_c, 0, 65, 0
2, 9613, Note_on_c, 0, 82, 0
2, 9616, Note_on_c, 0, 90, 90
2, 9619, Note_on_c, 0, 61, 0
2, 9635, Note_on_c, 0, 89, 96
2, 9655, Note_on_c, 0, 90, 0
2, 9658, Note_on_c, 0, 80, 97
2, 9663, Note_on_c, 0, 89, 0
2, 9683, Note_on_c, 0, 80, 0
2, 9686, Note_on_c, 0, 32, 86
2, 9686, Note_on_c, 0, 89, 98
2, 9709, Note_on_c, 0, 87, 95
2, 9712, Note_on_c, 0, 89, 0
2, 9723, Note_on_c, 0, 32, 0
2, 9724, Note_on_c, 0, 44, 86
2, 9732, Note_on_c, 0, 78, 94
2, 9733, Note_on_c, 0, 44, 0
2, 9742, Note_on_c, 0, 87, 0
2, 9756, Note_on_c, 0, 78, 0
2, 9756, Note_on_c, 0, 87, 100
2, 9781, Note_on_c, 0, 85, 88
2, 9781, Note_on_c, 0, 61, 76
2, 9786, Note_on_c, 0, 53, 63
2, 9797, Note_on_c, 0, 87, 0
2, 9801, Note_on_c, 0, 77, 100
2, 9805, Note_on_c, 0, 61, 0
2, 9811, Note_on_c, 0, 53, 0
2, 9813, Note_on_c, 0, 85, 0
2, 9817, Note_on_c, 0, 77, 0
2, 9830, Note_on_c, 0, 82, 101
2, 9849, Note_on_c, 0, 80, 89
2, 9864, Note_on_c, 0, 32, 51
2, 9872, Note_on_c, 0, 82, 0
2, 9879, Note_on_c, 0, 77, 88
2, 9894, Note_on_c, 0, 80, 0
2, 9897, Note_on_c, 0, 73, 81
2, 9904, Note_on_c, 0, 77, 0
2, 9922, Control_c, 0, 64, 0
2, 9925, Note_on_c, 0, 73, 0
2, 9929, Note_on_c, 0, 44, 69
2, 9930, Note_on_c, 0, 72, 73
2, 9936, Note_on_c, 0, 32, 0
2, 9939, Note_on_c, 0, 44, 0
2, 9957, Note_on_c, 0, 73, 65
2, 9961, Control_c, 0, 64, 127
2, 9962, Note_on_c, 0, 72, 0
2, 9985, Note_on_c, 0, 75, 62
2, 9988, Note_on_c, 0, 73, 0
2, 9991, Note_on_c, 0, 60, 75
2, 9996, Note_on_c, 0, 51, 38
2, 10001, Note_on_c, 0, 60, 0
2, 10002, Note_on_c, 0, 54, 21
2, 10003, Note_on_c, 0, 75, 0
2, 10008, Note_on_c, 0, 76, 88
2, 10015, Note_on_c, 0, 51, 0
2, 10018, Note_on_c, 0, 54, 0
2, 10036, Note_on_c, 0, 77, 93
2, 10041, Note_on_c, 0, 76, 0
2, 10055, Note_on_c, 0, 78, 85
2, 10067, Note_on_c, 0, 77, 0
2, 10077, Note_on_c, 0, 32, 36
2, 10078, Note_on_c, 0, 80, 83
2, 10104, Note_on_c, 0, 78, 0
2, 10106, Note_on_c, 0, 81, 93
2, 10111, Control_c, 0, 64, 0
2, 10113, Note_on_c, 0, 80, 0
2, 10126, Note_on_c, 0, 32, 0
2, 10126, Note_on_c, 0, 44, 77
2, 10128, Note_on_c, 0, 81, 0
2, 10131, Note_on_c, 0, 79, 91
2, 10134, Note_on_c, 0, 44, 0
2, 10138, Control_c, 0, 64, 127
2, 10156, Note_on_c, 0, 80, 87
2, 10161, Note_on_c, 0, 79, 0
2, 10183, Note_on_c, 0, 80, 0
2, 10184, Note_on_c, 0, 75, 69
2, 10189, Note_on_c, 0, 61, 59
2, 10191, Note_on_c, 0, 52, 59
2, 10202, Note_on_c, 0, 52, 0
2, 10203, Note_on_c, 0, 61, 0
2, 10204, Note_on_c, 0, 76, 100
2, 10211, Note_on_c, 0, 75, 0
2, 10231, Note_on_c, 0, 76, 0
2, 10233, Note_on_c, 0, 68, 94
2, 10255, Note_on_c, 0, 76, 80
2, 10258, Note_on_c, 0, 68, 0
2, 10266, Note_on_c, 0, 32, 70
2, 10278, Note_on_c, 0, 75, 81
2, 10292, Note_on_c, 0, 76, 0
2, 10296, Note_on_c, 0, 73, 86
2, 10299, Control_c, 0, 64, 0
2, 10314, Note_on_c, 0, 75, 0
2, 10317, Note_on_c, 0, 44, 83
2, 10319, Note_on_c, 0, 32, 0
2, 10321, Note_on_c, 0, 72, 100
2, 10323, Note_on_c, 0, 73, 0
2, 10326, Note_on_c, 0, 44, 0
2, 10334, Control_c, 0, 64, 127
2, 10343, Note_on_c, 0, 73, 70
2, 10350, Note_on_c, 0, 72, 0
2, 10370, Note_on_c, 0, 75, 68
2, 10374, Note_on_c, 0, 60, 76
2, 10376, Note_on_c, 0, 73, 0
2, 10377, Note_on_c, 0, 51, 54
2, 10380, Note_on_c, 0, 54, 41
2, 10383, Note_on_c, 0, 75, 0
2, 10389, Note_on_c, 0, 60, 0
2, 10392, Note_on_c, 0, 77, 96
2, 10401, Note_on_c, 0, 54, 0
2, 10408, Note_on_c, 0, 51, 0
2, 10417, Note_on_c, 0, 78, 100
2, 10423, Note_on_c, 0, 77, 0
2, 10440, Note_on_c, 0, 79, 81
2, 10454, Note_on_c, 0, 78, 0
2, 10456, Note_on_c, 0, 80, 89
2, 10465, Note_on_c, 0, 44, 58
2, 10480, Note_on_c, 0, 79, 0
2, 10480, Note_on_c, 0, 81, 91
2, 10492, Note_on_c, 0, 80, 0
2, 10499, Control_c, 0, 64, 0
2, 10505, Note_on_c, 0, 79, 83
2, 10507, Note_on_c, 0, 81, 0
2, 10515, Note_on_c, 0, 49, 62
2, 10526, Note_on_c, 0, 44, 0
2, 10528, Note_on_c, 0, 80, 84
2, 10534, Note_on_c, 0, 79, 0
2, 10534, Control_c, 0, 64, 127
2, 10546, Note_on_c, 0, 80, 0
2, 10555, Note_on_c, 0, 75, 73
2, 10566, Note_on_c, 0, 61, 61
2, 10570, Note_on_c, 0, 52, 65
2, 10579, Note_on_c, 0, 61, 0
2, 10582, Note_on_c, 0, 75, 0
2, 10584, Note_on_c, 0, 49, 0
2, 10584, Note_on_c, 0, 76, 86
2, 10588, Note_on_c, 0, 52, 0
2, 10610, Note_on_c, 0, 76, 0
2, 10611, Note_on_c, 0, 68, 96
2, 10636, Note_on_c, 0, 68, 0
2, 10639, Note_on_c, 0, 76, 66
2, 10650, Note_on_c, 0, 43, 79
2, 10661, Note_on_c, 0, 73, 81
2, 10674, Note_on_c, 0, 76, 0
2, 10676, Note_on_c, 0, 43, 0
2, 10683, Note_on_c, 0, 71, 83
2, 10689, Note_on_c, 0, 73, 0
2, 10695, Control_c, 0, 64, 0
2, 10706, Note_on_c, 0, 71, 0
2, 10707, Note_on_c, 0, 70, 103
2, 10710, Note_on_c, 0, 42, 81
2, 10729, Note_on_c, 0, 71, 73
2, 10735, Note_on_c, 0, 70, 0
2, 10737, Control_c, 0, 64, 127
2, 10738, Note_on_c, 0, 42, 0
2, 10757, Note_on_c, 0, 73, 88
2, 10760, Note_on_c, 0, 58, 84
2, 10760, Note_on_c, 0, 54, 84
2, 10760, Note_on_c, 0, 64, 86
2, 10764, Note_on_c, 0, 71, 0
2, 10767, Note_on_c, 0, 64, 0
2, 10772, Note_on_c, 0, 54, 0
2, 10772, Note_on_c, 0, 58, 0
2, 10776, Note_on_c, 0, 74, 94
2, 10791, Note_on_c, 0, 73, 0
2, 10802, Note_on_c, 0, 75, 90
2, 10811, Note_on_c, 0, 74, 0
2, 10815, Note_on_c, 0, 75, 0
2, 10824, Note_on_c, 0, 76, 74
2, 10848, Note_on_c, 0, 78, 79
2, 10852, Note_on_c, 0, 76, 0
2, 10863, Note_on_c, 0, 30, 78
2, 10871, Note_on_c, 0, 79, 94
2, 10876, Note_on_c, 0, 78, 0
2, 10879, Control_c, 0, 64, 0
2, 10883, Note_on_c, 0, 79, 0
2, 10894, Note_on_c, 0, 42, 82
2, 10894, Note_on_c, 0, 77, 95
2, 10898, Note_on_c, 0, 30, 0
2, 10902, Note_on_c, 0, 42, 0
2, 10914, Control_c, 0, 64, 127
2, 10914, Note_on_c, 0, 78, 90
2, 10918, Note_on_c, 0, 77, 0
2, 10939, Note_on_c, 0, 78, 0
2, 10940, Note_on_c, 0, 75, 82
2, 10950, Note_on_c, 0, 54, 55
2, 10953, Note_on_c, 0, 59, 55
2, 10954, Note_on_c, 0, 62, 65
2, 10956, Note_on_c, 0, 75, 0
2, 10961, Note_on_c, 0, 76, 85
2, 10963, Note_on_c, 0, 54, 0
2, 10964, Note_on_c, 0, 62, 0
2, 10966, Note_on_c, 0, 59, 0
2, 10988, Note_on_c, 0, 76, 0
2, 10988, Note_on_c, 0, 73, 80
2, 11011, Note_on_c, 0, 74, 81
2, 11011, Note_on_c, 0, 42, 29
2, 11029, Note_on_c, 0, 73, 0
2, 11032, Note_on_c, 0, 71, 75
2, 11035, Note_on_c, 0, 42, 0
2, 11038, Note_on_c, 0, 74, 0
2, 11039, Note_on_c, 0, 41, 85
2, 11055, Note_on_c, 0, 71, 0
2, 11056, Note_on_c, 0, 69, 83
2, 11067, Note_on_c, 0, 41, 0
2, 11071, Control_c, 0, 64, 0
2, 11082, Note_on_c, 0, 68, 90
2, 11083, Note_on_c, 0, 69, 0
2, 11083, Note_on_c, 0, 40, 98
2, 11105, Note_on_c, 0, 69, 81
2, 11110, Note_on_c, 0, 68, 0
2, 11111, Note_on_c, 0, 40, 0
2, 11115, Control_c, 0, 64, 127
2, 11128, Note_on_c, 0, 71, 75
2, 11130, Note_on_c, 0, 69, 0
2, 11145, Note_on_c, 0, 56, 60
2, 11145, Note_on_c, 0, 62, 61
2, 11150, Note_on_c, 0, 52, 46
2, 11152, Note_on_c, 0, 72, 86
2, 11157, Note_on_c, 0, 62, 0
2, 11157, Note_on_c, 0, 56, 0
2, 11159, Note_on_c, 0, 71, 0
2, 11162, Note_on_c, 0, 52, 0
2, 11178, Note_on_c, 0, 73, 83
2, 11182, Note_on_c, 0, 72, 0
2, 11187, Note_on_c, 0, 73, 0
2, 11200, Note_on_c, 0, 74, 83
2, 11221, Note_on_c, 0, 76, 53
2, 11225, Note_on_c, 0, 74, 0
2, 11225, Note_on_c, 0, 28, 110
2, 11239, Note_on_c, 0, 77, 90
2, 11247, Note_on_c, 0, 76, 0
2, 11253, Note_on_c, 0, 77, 0
2, 11256, Control_c, 0, 64, 0
2, 11269, Note_on_c, 0, 75, 75
2, 11272, Note_on_c, 0, 40, 105
2, 11275, Note_on_c, 0, 28, 0
2, 11281, Note_on_c, 0, 40, 0
2, 11293, Note_on_c, 0, 76, 85
2, 11294, Control_c, 0, 64, 127
2, 11299, Note_on_c, 0, 75, 0
2, 11321, Note_on_c, 0, 73, 83
2, 11323, Note_on_c, 0, 76, 0
2, 11329, Note_on_c, 0, 60, 90
2, 11331, Note_on_c, 0, 57, 78
2, 11334, Note_on_c, 0, 52, 61
2, 11337, Note_on_c, 0, 60, 0
2, 11340, Note_on_c, 0, 57, 0
2, 11345, Note_on_c, 0, 74, 87
2, 11346, Note_on_c, 0, 52, 0
2, 11361, Note_on_c, 0, 73, 0
2, 11371, Note_on_c, 0, 71, 76
2, 11373, Note_on_c, 0, 74, 0
2, 11392, Note_on_c, 0, 72, 93
2, 11396, Note_on_c, 0, 71, 0
2, 11415, Note_on_c, 0, 71, 74
2, 11420, Note_on_c, 0, 40, 90
2, 11422, Note_on_c, 0, 28, 74
2, 11425, Note_on_c, 0, 72, 0
2, 11432, Note_on_c, 0, 28, 0
2, 11436, Note_on_c, 0, 71, 0
2, 11437, Note_on_c, 0, 69, 89
2, 11444, Note_on_c, 0, 40, 0
2, 11455, Control_c, 0, 64, 0
2, 11463, Note_on_c, 0, 69, 0
2, 11464, Note_on_c, 0, 41, 101
2, 11465, Note_on_c, 0, 29, 103
2, 11465, Note_on_c, 0, 68, 96
2, 11485, Note_on_c, 0, 29, 0
2, 11490, Note_on_c, 0, 69, 87
2, 11494, Note_on_c, 0, 41, 0
2, 11498, Note_on_c, 0, 68, 0
2, 11498, Control_c, 0, 64, 127
2, 11511, Note_on_c, 0, 73, 88
2, 11521, Note_on_c, 0, 69, 0
2, 11534, Note_on_c, 0, 48, 80
2, 11535, Note_on_c, 0, 72, 104
2, 11542, Note_on_c, 0, 73, 0
2, 11548, Note_on_c, 0, 53, 80
2, 11553, Note_on_c, 0, 48, 0
2, 11560, Note_on_c, 0, 70, 103
2, 11568, Note_on_c, 0, 72, 0
2, 11572, Note_on_c, 0, 63, 105
2, 11585, Note_on_c, 0, 70, 0
2, 11585, Note_on_c, 0, 69, 98
2, 11599, Note_on_c, 0, 63, 0
2, 11599, Note_on_c, 0, 53, 0
2, 11601, Note_on_c, 0, 69, 0
2, 11613, Note_on_c, 0, 78, 92
2, 11625, Note_on_c, 0, 46, 105
2, 11636, Control_c, 0, 64, 0
2, 11640, Note_on_c, 0, 77, 72
2, 11641, Note_on_c, 0, 53, 79
2, 11653, Note_on_c, 0, 78, 0
2, 11656, Note_on_c, 0, 75, 97
2, 11660, Note_on_c, 0, 61, 105
2, 11667, Note_on_c, 0, 46, 0
2, 11667, Note_on_c, 0, 77, 0
2, 11681, Note_on_c, 0, 73, 92
2, 11682, Control_c, 0, 64, 127
2, 11683, Note_on_c, 0, 53, 0
2, 11688, Note_on_c, 0, 75, 0
2, 11696, Note_on_c, 0, 73, 0
2, 11698, Note_on_c, 0, 61, 0
2, 11708, Note_on_c, 0, 84, 103
2, 11738, Note_on_c, 0, 82, 95
2, 11751, Note_on_c, 0, 51, 90
2, 11752, Note_on_c, 0, 84, 0
2, 11760, Note_on_c, 0, 51, 0
2, 11760, Note_on_c, 0, 58, 94
2, 11766, Note_on_c, 0, 80, 92
2, 11768, Note_on_c, 0, 54, 34
2, 11770, Control_c, 0, 64, 0
2, 11779, Note_on_c, 0, 66, 103
2, 11786, Note_on_c, 0, 82, 0
2, 11786, Control_c, 0, 64, 127
2, 11787, Note_on_c, 0, 54, 0
2, 11795, Note_on_c, 0, 78, 83
2, 11808, Note_on_c, 0, 66, 0
2, 11814, Note_on_c, 0, 58, 0
2, 11817, Note_on_c, 0, 80, 0
2, 11821, Note_on_c, 0, 77, 91
2, 11826, Note_on_c, 0, 78, 0
2, 11844, Note_on_c, 0, 44, 86
2, 11848, Note_on_c, 0, 75, 84
2, 11850, Note_on_c, 0, 77, 0
2, 11854, Note_on_c, 0, 46, 46
2, 11858, Note_on_c, 0, 51, 62
2, 11860, Note_on_c, 0, 44, 0
2, 11871, Control_c, 0, 64, 0
2, 11872, Note_on_c, 0, 46, 0
2, 11875, Note_on_c, 0, 60, 111
2, 11875, Note_on_c, 0, 73, 95
2, 11897, Note_on_c, 0, 75, 0
2, 11903, Note_on_c, 0, 72, 106
2, 11905, Control_c, 0, 64, 127
2, 11908, Note_on_c, 0, 73, 0
2, 11916, Note_on_c, 0, 60, 0
2, 11924, Note_on_c, 0, 51, 0
2, 11928, Note_on_c, 0, 72, 0
2, 11928, Note_on_c, 0, 49, 88
2, 11930, Note_on_c, 0, 82, 101
2, 11950, Note_on_c, 0, 56, 88
2, 11955, Control_c, 0, 64, 0
2, 11957, Note_on_c, 0, 80, 93
2, 11961, Note_on_c, 0, 49, 0
2, 11976, Note_on_c, 0, 65, 108
2, 11981, Note_on_c, 0, 82, 0
2, 11984, Note_on_c, 0, 78, 89
2, 11989, Control_c, 0, 64, 127
2, 11999, Note_on_c, 0, 65, 0
2, 12002, Note_on_c, 0, 80, 0
2, 12004, Note_on_c, 0, 77, 93
2, 12007, Note_on_c, 0, 78, 0
2, 12013, Note_on_c, 0, 56, 0
2, 12015, Note_on_c, 0, 77, 0
2, 12027, Note_on_c, 0, 75, 95
2, 12035, Note_on_c, 0, 42, 98
2, 12049, Note_on_c, 0, 49, 50
2, 12049, Note_on_c, 0, 73, 93
2, 12059, Note_on_c, 0, 42, 0
2, 12063, Control_c, 0, 64, 0
2, 12073, Note_on_c, 0, 72, 88
2, 12075, Note_on_c, 0, 75, 0
2, 12075, Note_on_c, 0, 58, 115
2, 12086, Note_on_c, 0, 49, 0
2, 12091, Note_on_c, 0, 73, 0
2, 12091, Note_on_c, 0, 70, 100
2, 12095, Note_on_c, 0, 72, 0
2, 12097, Control_c, 0, 64, 127
2, 12114, Note_on_c, 0, 58, 0
2, 12116, Note_on_c, 0, 70, 0
2, 12123, Note_on_c, 0, 80, 91
2, 12132, Note_on_c, 0, 48, 96
2, 12148, Note_on_c, 0, 78, 89
2, 12150, Note_on_c, 0, 54, 87
2, 12151, Control_c, 0, 64, 0
2, 12159, Note_on_c, 0, 48, 0
2, 12165, Note_on_c, 0, 80, 0
2, 12172, Note_on_c, 0, 77, 92
2, 12174, Control_c, 0, 64, 127
2, 12177, Note_on_c, 0, 63, 108
2, 12180, Note_on_c, 0, 78, 0
2, 12184, Note_on_c, 0, 77, 0
2, 12198, Note_on_c, 0, 75, 91
2, 12201, Note_on_c, 0, 54, 0
2, 12211, Note_on_c, 0, 63, 0
2, 12223, Note_on_c, 0, 73, 86
2, 12225, Note_on_c, 0, 49, 88
2, 12229, Note_on_c, 0, 53, 77
2, 12238, Note_on_c, 0, 72, 89
2, 12241, Note_on_c, 0, 75, 0
2, 12250, Note_on_c, 0, 73, 0
2, 12254, Note_on_c, 0, 58, 91
2, 12259, Control_c, 0, 64, 0
2, 12263, Note_on_c, 0, 72, 0
2, 12263, Note_on_c, 0, 61, 112
2, 12264, Note_on_c, 0, 70, 105
2, 12288, Note_on_c, 0, 69, 94
2, 12291, Note_on_c, 0, 49, 0
2, 12297, Control_c, 0, 64, 127
2, 12316, Note_on_c, 0, 68, 91
2, 12320, Note_on_c, 0, 58, 0
2, 12322, Note_on_c, 0, 70, 0
2, 12324, Note_on_c, 0, 61, 0
2, 12327, Note_on_c, 0, 53, 0
2, 12328, Note_on_c, 0, 51, 89
2, 12330, Note_on_c, 0, 69, 0
2, 12335, Note_on_c, 0, 67, 94
2, 12339, Note_on_c, 0, 68, 0
2, 12341, Note_on_c, 0, 54, 83
2, 12350, Note_on_c, 0, 58, 86
2, 12351, Control_c, 0, 64, 0
2, 12354, Note_on_c, 0, 68, 97
2, 12355, Note_on_c, 0, 60, 111
2, 12359, Note_on_c, 0, 67, 0
2, 12377, Note_on_c, 0, 67, 98
2, 12389, Control_c, 0, 64, 127
2, 12399, Note_on_c, 0, 66, 90
2, 12406, Note_on_c, 0, 51, 0
2, 12410, Note_on_c, 0, 58, 0
2, 12412, Note_on_c, 0, 68, 0
2, 12413, Note_on_c, 0, 60, 0
2, 12415, Note_on_c, 0, 67, 0
2, 12417, Note_on_c, 0, 54, 0
2, 12419, Note_on_c, 0, 65, 94
2, 12429, Note_on_c, 0, 66, 0
2, 12442, Note_on_c, 0, 67, 98
2, 12446, Note_on_c, 0, 65, 0
2, 12457, Note_on_c, 0, 66, 75
2, 12485, Note_on_c, 0, 67, 0
2, 12485, Note_on_c, 0, 65, 79
2, 12504, Note_on_c, 0, 66, 0
2, 12504, Note_on_c, 0, 64, 95
2, 12510, Note_on_c, 0, 65, 0
2, 12523, Control_c, 0, 64, 0
2, 12524, Note_on_c, 0, 64, 0
2, 12527, Note_on_c, 0, 66, 87
2, 12528, Note_on_c, 0, 54, 96
2, 12545, Note_on_c, 0, 65, 75
2, 12551, Note_on_c, 0, 53, 89
2, 12566, Note_on_c, 0, 64, 10
2, 12567, Note_on_c, 0, 54, 0
2, 12570, Control_c, 0, 64, 127
2, 12573, Note_on_c, 0, 66, 0
2, 12573, Note_on_c, 0, 52, 88
2, 12584, Note_on_c, 0, 65, 0
2, 12586, Note_on_c, 0, 63, 90
2, 12590, Note_on_c, 0, 53, 0
2, 12591, Note_on_c, 0, 64, 0
2, 12593, Note_on_c, 0, 51, 84
2, 12603, Note_on_c, 0, 52, 0
2, 12604, Note_on_c, 0, 63, 0
2, 12610, Note_on_c, 0, 65, 83
2, 12615, Note_on_c, 0, 53, 76
2, 12616, Control_c, 0, 64, 0
2, 12624, Note_on_c, 0, 51, 0
2, 12627, Note_on_c, 0, 64, 85
2, 12637, Note_on_c, 0, 52, 76
2, 12650, Note_on_c, 0, 53, 0
2, 12650, Note_on_c, 0, 63, 93
2, 12651, Note_on_c, 0, 51, 70
2, 12654, Note_on_c, 0, 65, 0
2, 12658, Control_c, 0, 64, 127
2, 12665, Note_on_c, 0, 64, 0
2, 12668, Note_on_c, 0, 52, 0
2, 12670, Note_on_c, 0, 62, 83
2, 12674, Note_on_c, 0, 50, 85
2, 12675, Note_on_c, 0, 63, 0
2, 12681, Note_on_c, 0, 51, 0
2, 12686, Note_on_c, 0, 50, 0
2, 12688, Note_on_c, 0, 62, 0
2, 12689, Control_c, 0, 64, 0
2, 12691, Note_on_c, 0, 52, 81
2, 12692, Note_on_c, 0, 64, 88
2, 12708, Note_on_c, 0, 63, 76
2, 12712, Note_on_c, 0, 51, 86
2, 12722, Note_on_c, 0, 52, 0
2, 12729, Note_on_c, 0, 62, 83
2, 12732, Note_on_c, 0, 64, 0
2, 12734, Note_on_c, 0, 50, 74
2, 12739, Control_c, 0, 64, 127
2, 12747, Note_on_c, 0, 63, 0
2, 12749, Note_on_c, 0, 51, 0
2, 12751, Note_on_c, 0, 61, 86
2, 12754, Note_on_c, 0, 62, 0
2, 12754, Note_on_c, 0, 49, 84
2, 12760, Note_on_c, 0, 50, 0
2, 12767, Note_on_c, 0, 49, 0
2, 12772, Note_on_c, 0, 63, 70
2, 12774, Note_on_c, 0, 61, 0
2, 12777, Control_c, 0, 64, 0
2, 12777, Note_on_c, 0, 51, 70
2, 12792, Note_on_c, 0, 50, 59
2, 12796, Note_on_c, 0, 62, 75
2, 12805, Note_on_c, 0, 51, 0
2, 12810, Note_on_c, 0, 49, 67
2, 12815, Note_on_c, 0, 61, 86
2, 12818, Note_on_c, 0, 63, 0
2, 12825, Note_on_c, 0, 50, 0
2, 12827, Note_on_c, 0, 62, 0
2, 12827, Control_c, 0, 64, 127
2, 12834, Note_on_c, 0, 48, 73
2, 12838, Note_on_c, 0, 49, 0
2, 12838, Note_on_c, 0, 60, 74
2, 12840, Note_on_c, 0, 61, 0
2, 12847, Note_on_c, 0, 48, 0
2, 12854, Control_c, 0, 64, 0
2, 12856, Note_on_c, 0, 51, 70
2, 12859, Note_on_c, 0, 60, 0
2, 12859, Note_on_c, 0, 63, 73
2, 12874, Note_on_c, 0, 49, 57
2, 12874, Note_on_c, 0, 61, 58
2, 12885, Note_on_c, 0, 51, 0
2, 12890, Note_on_c, 0, 63, 0
2, 12892, Note_on_c, 0, 48, 52
2, 12899, Note_on_c, 0, 60, 66
2, 12900, Control_c, 0, 64, 127
2, 12907, Note_on_c, 0, 61, 0
2, 12911, Note_on_c, 0, 49, 0
2, 12915, Note_on_c, 0, 60, 0
2, 12916, Note_on_c, 0, 48, 0
2, 12918, Note_on_c, 0, 46, 76
2, 12925, Note_on_c, 0, 58, 71
2, 12930, Note_on_c, 0, 46, 0
2, 12946, Control_c, 0, 64, 0
2, 12956, Note_on_c, 0, 58, 0
2, 12960, Note_on_c, 0, 57, 66
2, 12963, Note_on_c, 0, 39, 58
2, 12978, Note_on_c, 0, 57, 0
2, 12983, Note_on_c, 0, 58, 59
2, 12993, Control_c, 0, 64, 127
2, 12998, Note_on_c, 0, 39, 0
2, 13008, Note_on_c, 0, 58, 0
2, 13015, Note_on_c, 0, 60, 72
2, 13029, Note_on_c, 0, 54, 31
2, 13033, Note_on_c, 0, 60, 0
2, 13036, Note_on_c, 0, 45, 39
2, 13044, Note_on_c, 0, 61, 62
2, 13050, Note_on_c, 0, 54, 0
2, 13056, Note_on_c, 0, 45, 0
2, 13064, Note_on_c, 0, 63, 65
2, 13072, Note_on_c, 0, 61, 0
2, 13075, Note_on_c, 0, 63, 0
2, 13085, Note_on_c, 0, 64, 84
2, 13108, Note_on_c, 0, 64, 0
2, 13113, Note_on_c, 0, 65, 83
2, 13114, Note_on_c, 0, 39, 51
2, 13128, Note_on_c, 0, 39, 0
2, 13134, Note_on_c, 0, 66, 75
2, 13138, Note_on_c, 0, 65, 0
2, 13149, Note_on_c, 0, 66, 0
2, 13150, Control_c, 0, 64, 0
2, 13155, Note_on_c, 0, 64, 88
2, 13159, Note_on_c, 0, 37, 73
2, 13165, Note_on_c, 0, 64, 0
2, 13182, Note_on_c, 0, 65, 73
2, 13186, Note_on_c, 0, 37, 0
2, 13188, Control_c, 0, 64, 127
2, 13196, Note_on_c, 0, 62, 69
2, 13204, Note_on_c, 0, 65, 0
2, 13209, Note_on_c, 0, 53, 35
2, 13214, Note_on_c, 0, 46, 54
2, 13219, Note_on_c, 0, 63, 79
2, 13225, Note_on_c, 0, 62, 0
2, 13229, Note_on_c, 0, 53, 0
2, 13236, Note_on_c, 0, 60, 76
2, 13237, Note_on_c, 0, 63, 0
2, 13249, Note_on_c, 0, 46, 0
2, 13255, Note_on_c, 0, 60, 0
2, 13264, Note_on_c, 0, 61, 68
2, 13279, Note_on_c, 0, 60, 74
2, 13285, Note_on_c, 0, 37, 77
2, 13296, Note_on_c, 0, 37, 0
2, 13297, Note_on_c, 0, 61, 0
2, 13297, Note_on_c, 0, 58, 92
2, 13300, Control_c, 0, 64, 0
2, 13309, Note_on_c, 0, 60, 0
2, 13320, Note_on_c, 0, 57, 84
2, 13323, Note_on_c, 0, 58, 0
2, 13323, Note_on_c, 0, 39, 78
2, 13335, Note_on_c, 0, 57, 0
2, 13337, Note_on_c, 0, 58, 92
2, 13355, Note_on_c, 0, 58, 0
2, 13361, Control_c, 0, 64, 127
2, 13366, Note_on_c, 0, 60, 94
2, 13377, Note_on_c, 0, 39, 0
2, 13377, Note_on_c, 0, 54, 56
2, 13381, Note_on_c, 0, 45, 74
2, 13390, Note_on_c, 0, 60, 0
2, 13390, Note_on_c, 0, 61, 83
2, 13393, Note_on_c, 0, 54, 0
2, 13404, Note_on_c, 0, 45, 0
2, 13413, Note_on_c, 0, 63, 90
2, 13421, Note_on_c, 0, 61, 0
2, 13438, Note_on_c, 0, 63, 0
2, 13441, Note_on_c, 0, 64, 76
2, 13459, Note_on_c, 0, 39, 67
2, 13464, Note_on_c, 0, 65, 73
2, 13466, Note_on_c, 0, 64, 0
2, 13476, Note_on_c, 0, 39, 0
2, 13480, Note_on_c, 0, 66, 84
2, 13485, Note_on_c, 0, 65, 0
2, 13488, Control_c, 0, 64, 0
2, 13503, Note_on_c, 0, 64, 100
2, 13503, Note_on_c, 0, 37, 84
2, 13506, Note_on_c, 0, 66, 0
2, 13525, Note_on_c, 0, 65, 86
2, 13526, Note_on_c, 0, 64, 0
2, 13534, Note_on_c, 0, 37, 0
2, 13538, Control_c, 0, 64, 127
2, 13546, Note_on_c, 0, 62, 77
2, 13558, Note_on_c, 0, 53, 83
2, 13559, Note_on_c, 0, 46, 89
2, 13564, Note_on_c, 0, 65, 0
2, 13570, Note_on_c, 0, 63, 82
2, 13577, Note_on_c, 0, 62, 0
2, 13579, Note_on_c, 0, 53, 0
2, 13588, Note_on_c, 0, 60, 73
2, 13590, Note_on_c, 0, 63, 0
2, 13594, Note_on_c, 0, 46, 0
2, 13614, Note_on_c, 0, 60, 0
2, 13614, Note_on_c, 0, 61, 91
2, 13632, Note_on_c, 0, 37, 81
2, 13633, Note_on_c, 0, 60, 91
2, 13639, Note_on_c, 0, 61, 0
2, 13653, Note_on_c, 0, 58, 94
2, 13657, Note_on_c, 0, 37, 0
2, 13658, Note_on_c, 0, 60, 0
2, 13676, Control_c, 0, 64, 0
2, 13678, Note_on_c, 0, 58, 0
2, 13681, Note_on_c, 0, 60, 67
2, 13686, Note_on_c, 0, 39, 83
2, 13706, Note_on_c, 0, 61, 82
2, 13714, Note_on_c, 0, 60, 0
2, 13728, Note_on_c, 0, 63, 81
2, 13729, Note_on_c, 0, 39, 0
2, 13734, Control_c, 0, 64, 127
2, 13737, Note_on_c, 0, 61, 0
2, 13738, Note_on_c, 0, 63, 0
2, 13752, Note_on_c, 0, 54, 52
2, 13753, Note_on_c, 0, 65, 92
2, 13756, Note_on_c, 0, 46, 75
2, 13768, Note_on_c, 0, 65, 0
2, 13774, Note_on_c, 0, 54, 0
2, 13777, Note_on_c, 0, 46, 0
2, 13779, Note_on_c, 0, 66, 81
2, 13797, Note_on_c, 0, 72, 82
2, 13803, Note_on_c, 0, 66, 0
2, 13819, Note_on_c, 0, 39, 72
2, 13821, Note_on_c, 0, 70, 94
2, 13827, Note_on_c, 0, 72, 0
2, 13829, Note_on_c, 0, 39, 0
2, 13832, Note_on_c, 0, 70, 0
2, 13840, Note_on_c, 0, 60, 94
2, 13853, Control_c, 0, 64, 0
2, 13860, Note_on_c, 0, 41, 106
2, 13861, Note_on_c, 0, 60, 0
2, 13865, Note_on_c, 0, 58, 103
2, 13893, Note_on_c, 0, 58, 0
2, 13896, Note_on_c, 0, 60, 84
2, 13897, Note_on_c, 0, 41, 0
2, 13899, Control_c, 0, 64, 127
2, 13910, Note_on_c, 0, 60, 0
2, 13917, Note_on_c, 0, 61, 72
2, 13924, Note_on_c, 0, 58, 100
2, 13926, Note_on_c, 0, 49, 77
2, 13936, Note_on_c, 0, 58, 0
2, 13938, Note_on_c, 0, 49, 0
2, 13941, Note_on_c, 0, 63, 84
2, 13950, Note_on_c, 0, 61, 0
2, 13952, Note_on_c, 0, 63, 0
2, 13968, Note_on_c, 0, 65, 94
2, 13986, Note_on_c, 0, 65, 0
2, 13990, Note_on_c, 0, 72, 96
2, 14013, Note_on_c, 0, 70, 97
2, 14020, Note_on_c, 0, 29, 98
2, 14028, Note_on_c, 0, 72, 0
2, 14030, Control_c, 0, 64, 0
2, 14031, Note_on_c, 0, 66, 88
2, 14051, Note_on_c, 0, 70, 0
2, 14056, Note_on_c, 0, 64, 96
2, 14061, Note_on_c, 0, 41, 93
2, 14063, Note_on_c, 0, 66, 0
2, 14066, Note_on_c, 0, 29, 0
2, 14071, Note_on_c, 0, 41, 0
2, 14079, Note_on_c, 0, 65, 105
2, 14083, Control_c, 0, 64, 127
2, 14088, Note_on_c, 0, 64, 0
2, 14105, Note_on_c, 0, 66, 74
2, 14112, Note_on_c, 0, 65, 0
2, 14117, Note_on_c, 0, 66, 0
2, 14122, Note_on_c, 0, 51, 72
2, 14123, Note_on_c, 0, 57, 76
2, 14127, Note_on_c, 0, 65, 94
2, 14136, Note_on_c, 0, 57, 0
2, 14140, Note_on_c, 0, 51, 0
2, 14149, Note_on_c, 0, 65, 0
2, 14151, Note_on_c, 0, 70, 94
2, 14173, Note_on_c, 0, 70, 0
2, 14175, Note_on_c, 0, 69, 97
2, 14198, Note_on_c, 0, 41, 63
2, 14205, Note_on_c, 0, 69, 0
2, 14208, Note_on_c, 0, 78, 85
2, 14238, Note_on_c, 0, 77, 76
2, 14240, Note_on_c, 0, 78, 0
2, 14246, Note_on_c, 0, 41, 0
2, 14250, Control_c, 0, 64, 0
2, 14255, Note_on_c, 0, 46, 80
2, 14260, Note_on_c, 0, 75, 79
2, 14268, Note_on_c, 0, 77, 0
2, 14286, Note_on_c, 0, 73, 74
2, 14289, Note_on_c, 0, 46, 0
2, 14297, Note_on_c, 0, 75, 0
2, 14300, Control_c, 0, 64, 127
2, 14309, Note_on_c, 0, 70, 91
2, 14324, Note_on_c, 0, 73, 0
2, 14326, Note_on_c, 0, 53, 45
2, 14326, Note_on_c, 0, 61, 58
2, 14331, Note_on_c, 0, 70, 0
2, 14331, Note_on_c, 0, 65, 85
2, 14337, Note_on_c, 0, 61, 0
2, 14342, Note_on_c, 0, 65, 0
2, 14342, Note_on_c, 0, 53, 0
2, 14358, Note_on_c, 0, 63, 78
2, 14380, Note_on_c, 0, 61, 79
2, 14385, Note_on_c, 0, 63, 0
2, 14388, Note_on_c, 0, 37, 77
2, 14396, Note_on_c, 0, 58, 87
2, 14402, Note_on_c, 0, 37, 0
2, 14409, Note_on_c, 0, 61, 0
2, 14419, Note_on_c, 0, 53, 64
2, 14424, Note_on_c, 0, 58, 0
2, 14431, Control_c, 0, 64, 0
2, 14435, Note_on_c, 0, 53, 0
2, 14436, Note_on_c, 0, 39, 83
2, 14441, Note_on_c, 0, 57, 91
2, 14462, Note_on_c, 0, 58, 93
2, 14466, Note_on_c, 0, 57, 0
2, 14472, Note_on_c, 0, 58, 0
2, 14489, Control_c, 0, 64, 127
2, 14489, Note_on_c, 0, 60, 82
2, 14493, Note_on_c, 0, 54, 54
2, 14498, Note_on_c, 0, 45, 63
2, 14508, Note_on_c, 0, 54, 0
2, 14510, Note_on_c, 0, 39, 0
2, 14511, Note_on_c, 0, 61, 67
2, 14515, Note_on_c, 0, 60, 0
2, 14523, Note_on_c, 0, 45, 0
2, 14528, Note_on_c, 0, 63, 78
2, 14536, Note_on_c, 0, 61, 0
2, 14538, Note_on_c, 0, 63, 0
2, 14552, Note_on_c, 0, 64, 85
2, 14569, Note_on_c, 0, 64, 0
2, 14570, Note_on_c, 0, 39, 73
2, 14574, Note_on_c, 0, 65, 80
2, 14586, Note_on_c, 0, 39, 0
2, 14592, Note_on_c, 0, 66, 76
2, 14598, Note_on_c, 0, 65, 0
2, 14606, Note_on_c, 0, 66, 0
2, 14610, Note_on_c, 0, 64, 93
2, 14612, Control_c, 0, 64, 0
2, 14615, Note_on_c, 0, 37, 90
2, 14626, Note_on_c, 0, 64, 0
2, 14637, Note_on_c, 0, 65, 71
2, 14645, Note_on_c, 0, 37, 0
2, 14651, Note_on_c, 0, 62, 78
2, 14654, Control_c, 0, 64, 127
2, 14665, Note_on_c, 0, 65, 0
2, 14667, Note_on_c, 0, 53, 87
2, 14669, Note_on_c, 0, 46, 89
2, 14677, Note_on_c, 0, 63, 79
2, 14681, Note_on_c, 0, 62, 0
2, 14692, Note_on_c, 0, 53, 0
2, 14697, Note_on_c, 0, 60, 73
2, 14698, Note_on_c, 0, 63, 0
2, 14705, Note_on_c, 0, 46, 0
2, 14713, Note_on_c, 0, 60, 0
2, 14724, Note_on_c, 0, 61, 62
2, 14739, Note_on_c, 0, 60, 69
2, 14742, Note_on_c, 0, 37, 79
2, 14754, Note_on_c, 0, 37, 0
2, 14762, Note_on_c, 0, 61, 0
2, 14762, Note_on_c, 0, 58, 92
2, 14769, Note_on_c, 0, 60, 0
2, 14777, Control_c, 0, 64, 0
2, 14785, Note_on_c, 0, 39, 95
2, 14786, Note_on_c, 0, 57, 83
2, 14788, Note_on_c, 0, 58, 0
2, 14804, Note_on_c, 0, 58, 89
2, 14805, Note_on_c, 0, 57, 0
2, 14828, Note_on_c, 0, 58, 0
2, 14831, Control_c, 0, 64, 127
2, 14833, Note_on_c, 0, 39, 0
2, 14837, Note_on_c, 0, 60, 86
2, 14837, Note_on_c, 0, 54, 70
2, 14840, Note_on_c, 0, 45, 72
2, 14858, Note_on_c, 0, 60, 0
2, 14863, Note_on_c, 0, 61, 60
2, 14864, Note_on_c, 0, 54, 0
2, 14874, Note_on_c, 0, 45, 0
2, 14881, Note_on_c, 0, 63, 84
2, 14884, Note_on_c, 0, 61, 0
2, 14890, Note_on_c, 0, 63, 0
2, 14906, Note_on_c, 0, 64, 79
2, 14920, Note_on_c, 0, 39, 70
2, 14924, Note_on_c, 0, 64, 0
2, 14928, Note_on_c, 0, 65, 78
2, 14945, Note_on_c, 0, 39, 0
2, 14945, Note_on_c, 0, 66, 75
2, 14946, Control_c, 0, 64, 0
2, 14951, Note_on_c, 0, 65, 0
2, 14960, Note_on_c, 0, 66, 0
2, 14964, Note_on_c, 0, 64, 91
2, 14966, Note_on_c, 0, 37, 95
2, 14983, Note_on_c, 0, 64, 0
2, 14990, Note_on_c, 0, 65, 81
2, 14992, Control_c, 0, 64, 127
2, 14997, Note_on_c, 0, 37, 0
2, 15007, Note_on_c, 0, 62, 70
2, 15021, Note_on_c, 0, 65, 0
2, 15022, Note_on_c, 0, 46, 96
2, 15022, Note_on_c, 0, 53, 87
2, 15030, Note_on_c, 0, 63, 84
2, 15036, Note_on_c, 0, 62, 0
2, 15037, Note_on_c, 0, 53, 0
2, 15051, Note_on_c, 0, 60, 79
2, 15052, Note_on_c, 0, 46, 0
2, 15055, Note_on_c, 0, 63, 0
2, 15074, Note_on_c, 0, 60, 0
2, 15079, Note_on_c, 0, 61, 34
2, 15083, Note_on_c, 0, 37, 91
2, 15095, Note_on_c, 0, 60, 87
2, 15098, Note_on_c, 0, 61, 0
2, 15102, Note_on_c, 0, 37, 0
2, 15113, Note_on_c, 0, 58, 98
2, 15124, Note_on_c, 0, 60, 0
2, 15130, Control_c, 0, 64, 0
2, 15133, Note_on_c, 0, 39, 97
2, 15137, Note_on_c, 0, 58, 0
2, 15148, Note_on_c, 0, 59, 86
2, 15153, Note_on_c, 0, 47, 78
2, 15163, Note_on_c, 0, 39, 0
2, 15170, Note_on_c, 0, 54, 99
2, 15174, Note_on_c, 0, 61, 79
2, 15182, Note_on_c, 0, 59, 0
2, 15192, Control_c, 0, 64, 127
2, 15193, Note_on_c, 0, 47, 0
2, 15195, Note_on_c, 0, 63, 84
2, 15200, Note_on_c, 0, 54, 0
2, 15207, Note_on_c, 0, 63, 0
2, 15207, Note_on_c, 0, 61, 0
2, 15224, Note_on_c, 0, 64, 93
2, 15243, Note_on_c, 0, 66, 87
2, 15246, Note_on_c, 0, 64, 0
2, 15263, Note_on_c, 0, 68, 84
2, 15278, Note_on_c, 0, 66, 0
2, 15280, Note_on_c, 0, 70, 100
2, 15288, Note_on_c, 0, 51, 86
2, 15293, Note_on_c, 0, 70, 0
2, 15293, Note_on_c, 0, 68, 0
2, 15306, Note_on_c, 0, 54, 82
2, 15306, Note_on_c, 0, 71, 86
2, 15307, Control_c, 0, 64, 0
2, 15320, Note_on_c, 0, 51, 0
2, 15320, Note_on_c, 0, 59, 70
2, 15326, Note_on_c, 0, 73, 88
2, 15333, Note_on_c, 0, 66, 106
2, 15334, Note_on_c, 0, 71, 0
2, 15341, Control_c, 0, 64, 127
2, 15345, Note_on_c, 0, 75, 88
2, 15355, Note_on_c, 0, 66, 0
2, 15357, Note_on_c, 0, 75, 0
2, 15357, Note_on_c, 0, 59, 0
2, 15359, Note_on_c, 0, 73, 0
2, 15366, Note_on_c, 0, 54, 0
2, 15373, Note_on_c, 0, 76, 98
2, 15383, Note_on_c, 0, 49, 99
2, 15391, Note_on_c, 0, 78, 91
2, 15400, Note_on_c, 0, 76, 0
2, 15402, Note_on_c, 0, 54, 75
2, 15407, Note_on_c, 0, 49, 0
2, 15408, Note_on_c, 0, 58, 95
2, 15410, Note_on_c, 0, 80, 79
2, 15419, Note_on_c, 0, 64, 103
2, 15429, Note_on_c, 0, 82, 101
2, 15431, Note_on_c, 0, 78, 0
2, 15438, Note_on_c, 0, 64, 0
2, 15441, Note_on_c, 0, 80, 0
2, 15441, Note_on_c, 0, 82, 0
2, 15444, Note_on_c, 0, 54, 0
2, 15446, Note_on_c, 0, 58, 0
2, 15453, Note_on_c, 0, 83, 92
2, 15467, Note_on_c, 0, 47, 102
2, 15479, Note_on_c, 0, 85, 99
2, 15488, Note_on_c, 0, 85, 0
2, 15488, Note_on_c, 0, 83, 0
2, 15491, Control_c, 0, 64, 0
2, 15493, Note_on_c, 0, 54, 94
2, 15506, Note_on_c, 0, 47, 0
2, 15520, Note_on_c, 0, 88, 113
2, 15532, Note_on_c, 0, 63, 110
2, 15537, Control_c, 0, 64, 127
2, 15554, Note_on_c, 0, 87, 86
2, 15560, Note_on_c, 0, 63, 0
2, 15560, Note_on_c, 0, 54, 0
2, 15575, Note_on_c, 0, 88, 0
2, 15576, Note_on_c, 0, 83, 86
2, 15587, Note_on_c, 0, 87, 0
2, 15608, Note_on_c, 0, 80, 99
2, 15609, Note_on_c, 0, 83, 0
2, 15629, Note_on_c, 0, 78, 86
2, 15657, Note_on_c, 0, 80, 0
2, 15661, Note_on_c, 0, 75, 81
2, 15674, Note_on_c, 0, 78, 0
2, 15677, Note_on_c, 0, 71, 92
2, 15680, Note_on_c, 0, 75, 0
2, 15689, Note_on_c, 0, 71, 0
2, 15704, Note_on_c, 0, 68, 98
2, 15726, Note_on_c, 0, 66, 76
2, 15745, Note_on_c, 0, 68, 0
2, 15751, Note_on_c, 0, 63, 92
2, 15761, Note_on_c, 0, 66, 0
2, 15770, Note_on_c, 0, 59, 92
2, 15772, Note_on_c, 0, 63, 0
2, 15783, Note_on_c, 0, 59, 0
2, 15795, Note_on_c, 0, 56, 96
2, 15816, Note_on_c, 0, 54, 72
2, 15834, Note_on_c, 0, 56, 0
2, 15843, Note_on_c, 0, 51, 92
2, 15852, Note_on_c, 0, 54, 0
2, 15865, Note_on_c, 0, 51, 0
2, 15866, Note_on_c, 0, 47, 105
2, 15879, Note_on_c, 0, 47, 0
2, 15891, Note_on_c, 0, 44, 94
2, 15924, Note_on_c, 0, 28, 102
2, 15925, Note_on_c, 0, 40, 99
2, 15926, Control_c, 0, 64, 0
2, 15941, Note_on_c, 0, 44, 0
2, 15942, Note_on_c, 0, 29, 93
2, 15945, Note_on_c, 0, 41, 38
2, 15956, Note_on_c, 0, 40, 0
2, 15963, Note_on_c, 0, 28, 0
2, 15968, Note_on_c, 0, 41, 0
2, 15969, Note_on_c, 0, 34, 94
2, 15974, Note_on_c, 0, 46, 98
2, 15986, Note_on_c, 0, 29, 0
2, 15987, Control_c, 0, 64, 127
2, 15992, Note_on_c, 0, 33, 93
2, 15996, Note_on_c, 0, 45, 67
2, 16010, Note_on_c, 0, 34, 0
2, 16013, Note_on_c, 0, 30, 93
2, 16016, Note_on_c, 0, 42, 84
2, 16019, Note_on_c, 0, 46, 0
2, 16021, Note_on_c, 0, 45, 0
2, 16028, Note_on_c, 0, 33, 0
2, 16033, Note_on_c, 0, 41, 73
2, 16035, Note_on_c, 0, 29, 82
2, 16040, Note_on_c, 0, 42, 0
2, 16047, Note_on_c, 0, 30, 0
2, 16054, Note_on_c, 0, 41, 0
2, 16054, Note_on_c, 0, 37, 84
2, 16057, Note_on_c, 0, 49, 92
2, 16064, Note_on_c, 0, 29, 0
2, 16071, Control_c, 0, 64, 0
2, 16073, Note_on_c, 0, 48, 74
2, 16074, Note_on_c, 0, 36, 91
2, 16094, Note_on_c, 0, 49, 0
2, 16095, Note_on_c, 0, 34, 94
2, 16095, Note_on_c, 0, 46, 110
2, 16099, Note_on_c, 0, 37, 0
2, 16102, Note_on_c, 0, 48, 0
2, 16110, Note_on_c, 0, 36, 0
2, 16116, Note_on_c, 0, 45, 91
2, 16119, Note_on_c, 0, 33, 88
2, 16120, Control_c, 0, 64, 127
2, 16126, Note_on_c, 0, 45, 0
2, 16126, Note_on_c, 0, 46, 0
2, 16130, Note_on_c, 0, 34, 0
2, 16143, Note_on_c, 0, 42, 87
2, 16143, Note_on_c, 0, 54, 90
2, 16149, Note_on_c, 0, 33, 0
2, 16162, Note_on_c, 0, 41, 94
2, 16163, Note_on_c, 0, 53, 80
2, 16182, Note_on_c, 0, 37, 83
2, 16184, Note_on_c, 0, 49, 86
2, 16187, Note_on_c, 0, 54, 0
2, 16189, Note_on_c, 0, 42, 0
2, 16198, Note_on_c, 0, 41, 0
2, 16202, Note_on_c, 0, 53, 0
2, 16202, Note_on_c, 0, 36, 70
2, 16204, Note_on_c, 0, 48, 43
2, 16209, Note_on_c, 0, 49, 0
2, 16211, Note_on_c, 0, 37, 0
2, 16219, Note_on_c, 0, 48, 0
2, 16221, Note_on_c, 0, 36, 0
2, 16223, Note_on_c, 0, 46, 106
2, 16231, Note_on_c, 0, 58, 82
2, 16243, Note_on_c, 0, 45, 109
2, 16248, Note_on_c, 0, 57, 43
2, 16254, Note_on_c, 0, 46, 0
2, 16263, Note_on_c, 0, 57, 0
2, 16263, Control_c, 0, 64, 0
2, 16266, Note_on_c, 0, 42, 90
2, 16267, Note_on_c, 0, 58, 0
2, 16268, Note_on_c, 0, 54, 89
2, 16279, Note_on_c, 0, 45, 0
2, 16285, Note_on_c, 0, 41, 84
2, 16288, Note_on_c, 0, 53, 61
2, 16291, Note_on_c, 0, 54, 0
2, 16302, Control_c, 0, 64, 127
2, 16304, Note_on_c, 0, 53, 0
2, 16309, Note_on_c, 0, 49, 100
2, 16311, Note_on_c, 0, 61, 94
2, 16312, Note_on_c, 0, 41, 0
2, 16315, Note_on_c, 0, 42, 0
2, 16328, Note_on_c, 0, 60, 85
2, 16330, Note_on_c, 0, 48, 96
2, 16333, Note_on_c, 0, 61, 0
2, 16346, Note_on_c, 0, 58, 110
2, 16347, Note_on_c, 0, 46, 101
2, 16354, Note_on_c, 0, 49, 0
2, 16356, Note_on_c, 0, 60, 0
2, 16363, Note_on_c, 0, 48, 0
2, 16368, Note_on_c, 0, 57, 77
2, 16369, Note_on_c, 0, 45, 88
2, 16371, Note_on_c, 0, 58, 0
2, 16380, Note_on_c, 0, 57, 0
2, 16385, Note_on_c, 0, 46, 0
2, 16385, Note_on_c, 0, 45, 0
2, 16393, Note_on_c, 0, 66, 97
2, 16394, Note_on_c, 0, 54, 90
2, 16412, Note_on_c, 0, 65, 81
2, 16413, Note_on_c, 0, 53, 98
2, 16424, Note_on_c, 0, 66, 0
2, 16425, Control_c, 0, 64, 0
2, 16427, Note_on_c, 0, 49, 92
2, 16428, Note_on_c, 0, 54, 0
2, 16430, Note_on_c, 0, 61, 97
2, 16446, Note_on_c, 0, 65, 0
2, 16450, Note_on_c, 0, 61, 0
2, 16451, Note_on_c, 0, 53, 0
2, 16454, Note_on_c, 0, 60, 67
2, 16455, Note_on_c, 0, 48, 59
2, 16455, Control_c, 0, 64, 127
2, 16467, Note_on_c, 0, 48, 0
2, 16469, Note_on_c, 0, 60, 0
2, 16475, Note_on_c, 0, 58, 100
2, 16479, Note_on_c, 0, 70, 101
2, 16487, Note_on_c, 0, 49, 0
2, 16494, Note_on_c, 0, 57, 98
2, 16497, Note_on_c, 0, 70, 0
2, 16497, Note_on_c, 0, 69, 95
2, 16511, Note_on_c, 0, 58, 0
2, 16513, Note_on_c, 0, 54, 90
2, 16516, Note_on_c, 0, 66, 96
2, 16525, Note_on_c, 0, 69, 0
2, 16530, Note_on_c, 0, 57, 0
2, 16536, Note_on_c, 0, 65, 90
2, 16538, Note_on_c, 0, 53, 79
2, 16544, Note_on_c, 0, 66, 0
2, 16555, Note_on_c, 0, 65, 0
2, 16557, Note_on_c, 0, 54, 0
2, 16558, Note_on_c, 0, 53, 0
2, 16558, Note_on_c, 0, 61, 97
2, 16562, Note_on_c, 0, 73, 96
2, 16579, Note_on_c, 0, 60, 95
2, 16579, Note_on_c, 0, 72, 89
2, 16580, Note_on_c, 0, 73, 0
2, 16586, Control_c, 0, 64, 0
2, 16598, Note_on_c, 0, 58, 101
2, 16598, Note_on_c, 0, 70, 110
2, 16604, Note_on_c, 0, 61, 0
2, 16606, Note_on_c, 0, 72, 0
2, 16615, Note_on_c, 0, 60, 0
2, 16620, Note_on_c, 0, 57, 56
2, 16620, Control_c, 0, 64, 127
2, 16625, Note_on_c, 0, 69, 78
2, 16628, Note_on_c, 0, 70, 0
2, 16629, Note_on_c, 0, 58, 0
2, 16632, Note_on_c, 0, 57, 0
2, 16635, Note_on_c, 0, 69, 0
2, 16646, Note_on_c, 0, 66, 87
2, 16648, Note_on_c, 0, 78, 99
2, 16661, Note_on_c, 0, 66, 0
2, 16662, Note_on_c, 0, 65, 88
2, 16665, Note_on_c, 0, 77, 86
2, 16676, Note_on_c, 0, 78, 0
2, 16683, Note_on_c, 0, 61, 78
2, 16685, Note_on_c, 0, 73, 90
2, 16697, Note_on_c, 0, 65, 0
2, 16701, Note_on_c, 0, 77, 0
2, 16703, Note_on_c, 0, 60, 72
2, 16705, Note_on_c, 0, 72, 85
2, 16713, Note_on_c, 0, 61, 0
2, 16713, Note_on_c, 0, 73, 0
2, 16716, Note_on_c, 0, 60, 0
2, 16718, Note_on_c, 0, 72, 0
2, 16725, Note_on_c, 0, 82, 110
2, 16725, Note_on_c, 0, 70, 98
2, 16745, Note_on_c, 0, 81, 84
2, 16745, Note_on_c, 0, 69, 105
2, 16752, Note_on_c, 0, 82, 0
2, 16755, Note_on_c, 0, 70, 0
2, 16764, Note_on_c, 0, 66, 86
2, 16768, Note_on_c, 0, 78, 96
2, 16776, Note_on_c, 0, 81, 0
2, 16780, Note_on_c, 0, 69, 0
2, 16787, Note_on_c, 0, 65, 64
2, 16789, Note_on_c, 0, 77, 87
2, 16796, Note_on_c, 0, 66, 0
2, 16797, Note_on_c, 0, 78, 0
2, 16798, Note_on_c, 0, 65, 0
2, 16805, Note_on_c, 0, 73, 102
2, 16807, Note_on_c, 0, 77, 0
2, 16811, Note_on_c, 0, 85, 100
2, 16823, Note_on_c, 0, 72, 95
2, 16832, Note_on_c, 0, 84, 79
2, 16833, Note_on_c, 0, 85, 0
2, 16841, Note_on_c, 0, 70, 98
2, 16848, Note_on_c, 0, 82, 108
2, 16850, Note_on_c, 0, 73, 0
2, 16854, Note_on_c, 0, 84, 0
2, 16857, Note_on_c, 0, 72, 0
2, 16871, Note_on_c, 0, 69, 55
2, 16872, Note_on_c, 0, 81, 83
2, 16877, Note_on_c, 0, 82, 0
2, 16878, Note_on_c, 0, 70, 0
2, 16881, Note_on_c, 0, 81, 0
2, 16884, Note_on_c, 0, 69, 0
2, 16889, Note_on_c, 0, 90, 101
2, 16889, Note_on_c, 0, 78, 97
2, 16912, Note_on_c, 0, 89, 47
2, 16914, Note_on_c, 0, 90, 0
2, 16917, Note_on_c, 0, 77, 99
2, 16927, Note_on_c, 0, 85, 99
2, 16928, Note_on_c, 0, 78, 0
2, 16934, Note_on_c, 0, 89, 0
2, 16934, Note_on_c, 0, 73, 24
2, 16940, Note_on_c, 0, 77, 0
2, 16948, Note_on_c, 0, 84, 83
2, 16948, Note_on_c, 0, 72, 78
2, 16956, Note_on_c, 0, 85, 0
2, 16958, Note_on_c, 0, 73, 0
2, 16961, Note_on_c, 0, 84, 0
2, 16961, Note_on_c, 0, 94, 95
2, 16963, Note_on_c, 0, 72, 0
2, 16963, Note_on_c, 0, 82, 113
2, 16980, Note_on_c, 0, 93, 81
2, 16985, Note_on_c, 0, 94, 0
2, 16987, Note_on_c, 0, 81, 99
2, 16988, Note_on_c, 0, 82, 0
2, 17007, Note_on_c, 0, 78, 88
2, 17008, Note_on_c, 0, 90, 88
2, 17014, Note_on_c, 0, 93, 0
2, 17018, Note_on_c, 0, 81, 0
2, 17025, Note_on_c, 0, 89, 72
2, 17028, Note_on_c, 0, 77, 95
2, 17034, Note_on_c, 0, 78, 0
2, 17035, Note_on_c, 0, 90, 0
2, 17038, Note_on_c, 0, 89, 0
2, 17049, Note_on_c, 0, 85, 94
2, 17051, Note_on_c, 0, 97, 100
2, 17063, Note_on_c, 0, 77, 0
2, 17072, Note_on_c, 0, 84, 97
2, 17077, Note_on_c, 0, 85, 0
2, 17081, Note_on_c, 0, 96, 64
2, 17090, Note_on_c, 0, 97, 0
2, 17105, Note_on_c, 0, 84, 0
2, 17105, Note_on_c, 0, 101, 118
2, 17107, Note_on_c, 0, 96, 0
2, 17108, Note_on_c, 0, 89, 101
2, 17118, Note_on_c, 0, 101, 0
2, 17124, Note_on_c, 0, 89, 0
2, 17217, Note_on_c, 0, 63, 86
2, 17242, Note_on_c, 0, 63, 0
2, 17253, Note_on_c, 0, 53, 112
2, 17253, Note_on_c, 0, 77, 119
2, 17253, Note_on_c, 0, 41, 112
2, 17255, Note_on_c, 0, 48, 101
2, 17256, Note_on_c, 0, 69, 89
2, 17295, Note_on_c, 0, 53, 0
2, 17302, Note_on_c, 0, 41, 0
2, 17304, Note_on_c, 0, 69, 0
2, 17314, Note_on_c, 0, 48, 0
2, 17331, Control_c, 0, 64, 0
2, 17333, Note_on_c, 0, 77, 0
2, 17339, Note_on_c, 0, 46, 122
2, 17339, Note_on_c, 0, 34, 118
2, 17370, Note_on_c, 0, 34, 0
2, 17372, Note_on_c, 0, 46, 0
2, 17374, Control_c, 0, 64, 127
2, 17417, Note_on_c, 0, 82, 122
2, 17417, Note_on_c, 0, 70, 118
2, 17418, Note_on_c, 0, 61, 109
2, 17420, Note_on_c, 0, 53, 100
2, 17429, Note_on_c, 0, 53, 0
2, 17436, Note_on_c, 0, 61, 0
2, 17456, Note_on_c, 0, 70, 0
2, 17503, Note_on_c, 0, 82, 0
2, 17624, Control_c, 0, 64, 0
2, 17624, End_track
0, 0, End_of_file
