0, 0, Header, 1, 2, 120
1, 0, Start_track
1, 0, Time_signature, 4, 2, 24, 8
1, 0, Key_signature, -4, "major"
1, 0, Tempo, 500000
1, 0, End_track
2, 0, Start_track
2, 0, MIDI_port, 0
2, 0, Title_t, "  "
2, 0, Control_c, 0, 64, 127
2, 194, Note_on_c, 0, 56, 29
2, 195, Note_on_c, 0, 51, 13
2, 196, Note_on_c, 0, 60, 23
2, 198, Note_on_c, 0, 63, 13
2, 220, Note_on_c, 0, 63, 0
2, 223, Note_on_c, 0, 51, 0
2, 227, Note_on_c, 0, 56, 0
2, 238, Note_on_c, 0, 60, 0
2, 295, Note_on_c, 0, 60, 30
2, 299, Note_on_c, 0, 56, 22
2, 300, Note_on_c, 0, 63, 16
2, 300, Note_on_c, 0, 51, 17
2, 318, Note_on_c, 0, 51, 0
2, 324, Note_on_c, 0, 56, 0
2, 325, Note_on_c, 0, 63, 0
2, 328, Note_on_c, 0, 60, 0
2, 377, Note_on_c, 0, 63, 14
2, 379, Note_on_c, 0, 60, 39
2, 382, Note_on_c, 0, 51, 20
2, 384, Note_on_c, 0, 56, 29
2, 404, Note_on_c, 0, 56, 0
2, 404, Note_on_c, 0, 60, 0
2, 405, Note_on_c, 0, 51, 0
2, 407, Note_on_c, 0, 63, 0
2, 448, Note_on_c, 0, 60, 46
2, 453, Note_on_c, 0, 51, 25
2, 453, Note_on_c, 0, 63, 30
2, 460, Note_on_c, 0, 56, 38
2, 475, Note_on_c, 0, 63, 0
2, 475, Note_on_c, 0, 60, 0
2, 476, Note_on_c, 0, 56, 0
2, 477, Note_on_c, 0, 51, 0
2, 516, Note_on_c, 0, 60, 58
2, 519, Note_on_c, 0, 63, 30
2, 521, Note_on_c, 0, 51, 35
2, 525, Note_on_c, 0, 56, 56
2, 539, Note_on_c, 0, 51, 0
2, 541, Note_on_c, 0, 63, 0
2, 542, Note_on_c, 0, 56, 0
2, 546, Note_on_c, 0, 60, 0
2, 581, Note_on_c, 0, 60, 58
2, 582, Note_on_c, 0, 63, 50
2, 584, Note_on_c, 0, 51, 50
2, 586, Note_on_c, 0, 56, 55
2, 606, Note_on_c, 0, 51, 0
2, 607, Note_on_c, 0, 63, 0
2, 608, Note_on_c, 0, 56, 0
2, 613, Note_on_c, 0, 60, 0
2, 643, Note_on_c, 0, 60, 61
2, 649, Note_on_c, 0, 63, 34
2, 652, Note_on_c, 0, 51, 22
2, 655, Note_on_c, 0, 56, 48
2, 670, Note_on_c, 0, 56, 0
2, 670, Note_on_c, 0, 63, 0
2, 673, Note_on_c, 0, 60, 0
2, 675, Note_on_c, 0, 51, 0
2, 719, Note_on_c, 0, 60, 52
2, 721, Note_on_c, 0, 51, 10
2, 723, Note_on_c, 0, 56, 41
2, 723, Note_on_c, 0, 63, 10
2, 735, Note_on_c, 0, 63, 0
2, 739, Note_on_c, 0, 56, 0
2, 739, Note_on_c, 0, 51, 0
2, 741, Note_on_c, 0, 60, 0
2, 779, Note_on_c, 0, 60, 26
2, 782, Note_on_c, 0, 51, 14
2, 783, Note_on_c, 0, 63, 10
2, 783, Note_on_c, 0, 56, 33
2, 805, Note_on_c, 0, 60, 0
2, 806, Note_on_c, 0, 51, 0
2, 808, Note_on_c, 0, 63, 0
2, 809, Note_on_c, 0, 56, 0
2, 852, Note_on_c, 0, 63, 19
2, 854, Note_on_c, 0, 60, 26
2, 855, Note_on_c, 0, 56, 39
2, 858, Note_on_c, 0, 51, 12
2, 879, Note_on_c, 0, 51, 0
2, 879, Note_on_c, 0, 63, 0
2, 884, Note_on_c, 0, 56, 0
2, 884, Note_on_c, 0, 60, 0
2, 927, Note_on_c, 0, 60, 19
2, 933, Note_on_c, 0, 63, 10
2, 935, Note_on_c, 0, 51, 14
2, 937, Note_on_c, 0, 56, 39
2, 955, Note_on_c, 0, 63, 0
2, 957, Note_on_c, 0, 60, 0
2, 957, Note_on_c, 0, 51, 0
2, 960, Note_on_c, 0, 56, 0
2, 1008, Note_on_c, 0, 60, 38
2, 1013, Note_on_c, 0, 51, 41
2, 1014, Note_on_c, 0, 56, 30
2, 1017, Note_on_c, 0, 63, 14
2, 1025, Note_on_c, 0, 60, 0
2, 1028, Note_on_c, 0, 56, 0
2, 1029, Note_on_c, 0, 63, 0
2, 1032, Note_on_c, 0, 51, 0
2, 1125, Control_c, 0, 64, 0
2, 1128, Note_on_c, 0, 61, 50
2, 1128, Note_on_c, 0, 39, 41
2, 1177, Note_on_c, 0, 39, 0
2, 1178, Control_c, 0, 64, 127
2, 1185, Note_on_c, 0, 61, 0
2, 1239, Note_on_c, 0, 67, 62
2, 1255, Note_on_c, 0, 51, 23
2, 1256, Note_on_c, 0, 63, 23
2, 1262, Note_on_c, 0, 58, 52
2, 1273, Note_on_c, 0, 51, 0
2, 1274, Note_on_c, 0, 63, 0
2, 1278, Note_on_c, 0, 58, 0
2, 1296, Note_on_c, 0, 67, 0
2, 1329, Note_on_c, 0, 72, 84
2, 1332, Note_on_c, 0, 61, 43
2, 1335, Note_on_c, 0, 51, 37
2, 1338, Note_on_c, 0, 63, 32
2, 1351, Note_on_c, 0, 58, 31
2, 1356, Note_on_c, 0, 63, 0
2, 1356, Note_on_c, 0, 61, 0
2, 1359, Note_on_c, 0, 51, 0
2, 1366, Note_on_c, 0, 72, 0
2, 1368, Note_on_c, 0, 58, 0
2, 1402, Note_on_c, 0, 73, 78
2, 1404, Note_on_c, 0, 51, 41
2, 1406, Note_on_c, 0, 61, 39
2, 1407, Note_on_c, 0, 63, 22
2, 1414, Note_on_c, 0, 58, 30
2, 1421, Note_on_c, 0, 61, 0
2, 1426, Note_on_c, 0, 63, 0
2, 1426, Note_on_c, 0, 51, 0
2, 1432, Note_on_c, 0, 58, 0
2, 1444, Note_on_c, 0, 73, 0
2, 1465, Note_on_c, 0, 65, 71
2, 1467, Note_on_c, 0, 51, 41
2, 1467, Note_on_c, 0, 61, 49
2, 1473, Note_on_c, 0, 58, 35
2, 1482, Note_on_c, 0, 61, 0
2, 1490, Note_on_c, 0, 58, 0
2, 1490, Note_on_c, 0, 51, 0
2, 1525, Note_on_c, 0, 58, 35
2, 1530, Note_on_c, 0, 51, 44
2, 1532, Note_on_c, 0, 67, 69
2, 1533, Note_on_c, 0, 61, 47
2, 1535, Note_on_c, 0, 65, 0
2, 1542, Note_on_c, 0, 58, 0
2, 1548, Note_on_c, 0, 51, 0
2, 1553, Note_on_c, 0, 61, 0
2, 1597, Control_c, 0, 64, 0
2, 1598, Note_on_c, 0, 44, 58
2, 1599, Note_on_c, 0, 70, 63
2, 1616, Note_on_c, 0, 67, 0
2, 1648, Note_on_c, 0, 44, 0
2, 1651, Control_c, 0, 64, 127
2, 1689, Note_on_c, 0, 66, 32
2, 1689, Note_on_c, 0, 63, 29
2, 1692, Note_on_c, 0, 60, 32
2, 1693, Note_on_c, 0, 56, 38
2, 1709, Note_on_c, 0, 56, 0
2, 1712, Note_on_c, 0, 60, 0
2, 1714, Note_on_c, 0, 66, 0
2, 1715, Note_on_c, 0, 63, 0
2, 1752, Note_on_c, 0, 60, 39
2, 1752, Note_on_c, 0, 66, 35
2, 1757, Note_on_c, 0, 56, 33
2, 1758, Note_on_c, 0, 63, 33
2, 1774, Note_on_c, 0, 63, 0
2, 1775, Note_on_c, 0, 56, 0
2, 1779, Note_on_c, 0, 60, 0
2, 1784, Note_on_c, 0, 66, 0
2, 1814, Note_on_c, 0, 60, 32
2, 1816, Note_on_c, 0, 63, 28
2, 1816, Note_on_c, 0, 68, 59
2, 1816, Note_on_c, 0, 66, 19
2, 1821, Note_on_c, 0, 56, 43
2, 1834, Note_on_c, 0, 56, 0
2, 1834, Note_on_c, 0, 70, 0
2, 1834, Note_on_c, 0, 63, 0
2, 1838, Note_on_c, 0, 66, 0
2, 1841, Note_on_c, 0, 60, 0
2, 1870, Note_on_c, 0, 60, 55
2, 1878, Note_on_c, 0, 66, 26
2, 1881, Note_on_c, 0, 63, 21
2, 1886, Note_on_c, 0, 56, 38
2, 1890, Note_on_c, 0, 60, 0
2, 1894, Note_on_c, 0, 66, 0
2, 1900, Note_on_c, 0, 63, 0
2, 1901, Note_on_c, 0, 56, 0
2, 1938, Note_on_c, 0, 60, 45
2, 1940, Note_on_c, 0, 66, 40
2, 1942, Note_on_c, 0, 63, 28
2, 1945, Note_on_c, 0, 56, 24
2, 1953, Note_on_c, 0, 60, 0
2, 1957, Note_on_c, 0, 63, 0
2, 1959, Note_on_c, 0, 66, 0
2, 1961, Note_on_c, 0, 56, 0
2, 2007, Note_on_c, 0, 49, 58
2, 2016, Control_c, 0, 64, 0
2, 2039, Note_on_c, 0, 68, 0
2, 2054, Control_c, 0, 64, 127
2, 2063, Note_on_c, 0, 49, 0
2, 2116, Note_on_c, 0, 73, 64
2, 2121, Note_on_c, 0, 68, 41
2, 2123, Note_on_c, 0, 56, 28
2, 2127, Note_on_c, 0, 65, 26
2, 2131, Note_on_c, 0, 61, 27
2, 2146, Note_on_c, 0, 73, 0
2, 2148, Note_on_c, 0, 65, 0
2, 2149, Note_on_c, 0, 68, 0
2, 2151, Note_on_c, 0, 61, 0
2, 2153, Note_on_c, 0, 56, 0
2, 2190, Note_on_c, 0, 68, 55
2, 2190, Note_on_c, 0, 79, 91
2, 2194, Note_on_c, 0, 65, 47
2, 2200, Note_on_c, 0, 61, 32
2, 2202, Note_on_c, 0, 56, 30
2, 2203, Note_on_c, 0, 68, 0
2, 2208, Note_on_c, 0, 65, 0
2, 2214, Note_on_c, 0, 79, 0
2, 2216, Note_on_c, 0, 61, 0
2, 2219, Note_on_c, 0, 56, 0
2, 2250, Note_on_c, 0, 68, 40
2, 2268, Note_on_c, 0, 82, 97
2, 2274, Note_on_c, 0, 68, 0
2, 2274, Note_on_c, 0, 56, 25
2, 2276, Note_on_c, 0, 61, 33
2, 2282, Note_on_c, 0, 65, 23
2, 2294, Note_on_c, 0, 61, 0
2, 2294, Note_on_c, 0, 56, 0
2, 2300, Note_on_c, 0, 82, 0
2, 2300, Note_on_c, 0, 65, 0
2, 2335, Note_on_c, 0, 80, 83
2, 2339, Note_on_c, 0, 68, 31
2, 2341, Note_on_c, 0, 56, 40
2, 2343, Note_on_c, 0, 61, 33
2, 2345, Note_on_c, 0, 65, 53
2, 2358, Note_on_c, 0, 65, 0
2, 2359, Note_on_c, 0, 56, 0
2, 2361, Note_on_c, 0, 61, 0
2, 2361, Note_on_c, 0, 68, 0
2, 2376, Note_on_c, 0, 80, 0
2, 2398, Note_on_c, 0, 77, 94
2, 2401, Note_on_c, 0, 61, 33
2, 2403, Note_on_c, 0, 56, 46
2, 2404, Note_on_c, 0, 65, 40
2, 2404, Note_on_c, 0, 68, 31
2, 2418, Note_on_c, 0, 56, 0
2, 2419, Note_on_c, 0, 61, 0
2, 2420, Note_on_c, 0, 65, 0
2, 2426, Note_on_c, 0, 68, 0
2, 2427, Note_on_c, 0, 77, 0
2, 2450, Control_c, 0, 64, 0
2, 2463, Note_on_c, 0, 51, 64
2, 2464, Note_on_c, 0, 75, 78
2, 2492, Control_c, 0, 64, 127
2, 2496, Note_on_c, 0, 51, 0
2, 2521, Note_on_c, 0, 67, 59
2, 2523, Note_on_c, 0, 70, 55
2, 2524, Note_on_c, 0, 58, 56
2, 2526, Note_on_c, 0, 63, 35
2, 2527, Note_on_c, 0, 61, 40
2, 2534, Note_on_c, 0, 67, 0
2, 2539, Note_on_c, 0, 70, 0
2, 2540, Note_on_c, 0, 58, 0
2, 2541, Note_on_c, 0, 61, 0
2, 2544, Note_on_c, 0, 63, 0
2, 2581, Note_on_c, 0, 67, 51
2, 2581, Note_on_c, 0, 70, 55
2, 2583, Note_on_c, 0, 63, 44
2, 2586, Note_on_c, 0, 58, 39
2, 2586, Note_on_c, 0, 61, 44
2, 2593, Note_on_c, 0, 67, 0
2, 2597, Note_on_c, 0, 63, 0
2, 2597, Note_on_c, 0, 70, 0
2, 2600, Note_on_c, 0, 61, 0
2, 2602, Note_on_c, 0, 58, 0
2, 2605, Note_on_c, 0, 75, 0
2, 2634, Control_c, 0, 64, 0
2, 2637, Note_on_c, 0, 49, 70
2, 2637, Note_on_c, 0, 77, 94
2, 2669, Note_on_c, 0, 49, 0
2, 2673, Control_c, 0, 64, 127
2, 2698, Note_on_c, 0, 68, 70
2, 2698, Note_on_c, 0, 73, 47
2, 2700, Note_on_c, 0, 65, 40
2, 2700, Note_on_c, 0, 56, 60
2, 2706, Note_on_c, 0, 61, 46
2, 2710, Note_on_c, 0, 68, 0
2, 2714, Note_on_c, 0, 56, 0
2, 2714, Note_on_c, 0, 65, 0
2, 2717, Note_on_c, 0, 73, 0
2, 2719, Note_on_c, 0, 61, 0
2, 2757, Note_on_c, 0, 65, 60
2, 2757, Note_on_c, 0, 68, 59
2, 2758, Note_on_c, 0, 73, 56
2, 2761, Note_on_c, 0, 56, 32
2, 2769, Note_on_c, 0, 68, 0
2, 2769, Note_on_c, 0, 61, 25
2, 2770, Note_on_c, 0, 65, 0
2, 2777, Note_on_c, 0, 56, 0
2, 2777, Note_on_c, 0, 73, 0
2, 2784, Note_on_c, 0, 61, 0
2, 2815, Control_c, 0, 64, 0
2, 2820, Note_on_c, 0, 51, 73
2, 2857, Control_c, 0, 64, 127
2, 2865, Note_on_c, 0, 51, 0
2, 2868, Note_on_c, 0, 77, 0
2, 2884, Note_on_c, 0, 70, 83
2, 2892, Note_on_c, 0, 67, 56
2, 2893, Note_on_c, 0, 58, 48
2, 2895, Note_on_c, 0, 61, 39
2, 2907, Note_on_c, 0, 67, 0
2, 2908, Note_on_c, 0, 70, 0
2, 2910, Note_on_c, 0, 61, 0
2, 2911, Note_on_c, 0, 58, 0
2, 2946, Note_on_c, 0, 75, 86
2, 2954, Note_on_c, 0, 67, 46
2, 2955, Note_on_c, 0, 63, 15
2, 2958, Note_on_c, 0, 58, 41
2, 2959, Note_on_c, 0, 61, 36
2, 2962, Note_on_c, 0, 70, 10
2, 2968, Note_on_c, 0, 63, 0
2, 2971, Note_on_c, 0, 67, 0
2, 2973, Note_on_c, 0, 61, 0
2, 2976, Note_on_c, 0, 70, 0
2, 2977, Note_on_c, 0, 58, 0
2, 3021, Note_on_c, 0, 75, 0
2, 3028, Note_on_c, 0, 70, 51
2, 3029, Note_on_c, 0, 79, 75
2, 3033, Note_on_c, 0, 67, 40
2, 3037, Note_on_c, 0, 61, 34
2, 3040, Note_on_c, 0, 58, 18
2, 3046, Note_on_c, 0, 70, 0
2, 3049, Note_on_c, 0, 67, 0
2, 3052, Note_on_c, 0, 61, 0
2, 3059, Note_on_c, 0, 79, 0
2, 3060, Note_on_c, 0, 58, 0
2, 3098, Note_on_c, 0, 77, 77
2, 3100, Note_on_c, 0, 70, 60
2, 3105, Note_on_c, 0, 67, 39
2, 3110, Note_on_c, 0, 58, 37
2, 3113, Note_on_c, 0, 61, 10
2, 3115, Note_on_c, 0, 70, 0
2, 3121, Note_on_c, 0, 67, 0
2, 3123, Note_on_c, 0, 77, 0
2, 3128, Note_on_c, 0, 58, 0
2, 3129, Note_on_c, 0, 61, 0
2, 3156, Note_on_c, 0, 73, 69
2, 3162, Note_on_c, 0, 58, 32
2, 3163, Note_on_c, 0, 67, 39
2, 3163, Note_on_c, 0, 70, 53
2, 3166, Note_on_c, 0, 61, 10
2, 3170, Note_on_c, 0, 73, 0
2, 3179, Note_on_c, 0, 67, 0
2, 3180, Note_on_c, 0, 58, 0
2, 3180, Note_on_c, 0, 70, 0
2, 3183, Note_on_c, 0, 61, 0
2, 3216, Note_on_c, 0, 72, 80
2, 3223, Note_on_c, 0, 53, 62
2, 3238, Control_c, 0, 64, 0
2, 3273, Note_on_c, 0, 63, 52
2, 3276, Note_on_c, 0, 65, 52
2, 3277, Note_on_c, 0, 60, 24
2, 3288, Control_c, 0, 64, 127
2, 3288, Note_on_c, 0, 69, 22
2, 3289, Note_on_c, 0, 63, 0
2, 3292, Note_on_c, 0, 65, 0
2, 3295, Note_on_c, 0, 60, 0
2, 3303, Note_on_c, 0, 69, 0
2, 3309, Note_on_c, 0, 53, 0
2, 3330, Note_on_c, 0, 69, 40
2, 3336, Note_on_c, 0, 63, 39
2, 3337, Note_on_c, 0, 65, 51
2, 3342, Note_on_c, 0, 60, 22
2, 3350, Note_on_c, 0, 65, 0
2, 3351, Note_on_c, 0, 63, 0
2, 3356, Note_on_c, 0, 60, 0
2, 3365, Note_on_c, 0, 69, 0
2, 3387, Control_c, 0, 64, 0
2, 3393, Note_on_c, 0, 46, 68
2, 3394, Note_on_c, 0, 73, 70
2, 3403, Note_on_c, 0, 72, 0
2, 3427, Note_on_c, 0, 46, 0
2, 3430, Control_c, 0, 64, 127
2, 3457, Note_on_c, 0, 65, 66
2, 3461, Note_on_c, 0, 53, 52
2, 3463, Note_on_c, 0, 61, 42
2, 3465, Note_on_c, 0, 58, 31
2, 3470, Note_on_c, 0, 65, 0
2, 3472, Note_on_c, 0, 68, 29
2, 3474, Note_on_c, 0, 53, 0
2, 3479, Note_on_c, 0, 61, 0
2, 3483, Note_on_c, 0, 58, 0
2, 3489, Note_on_c, 0, 68, 0
2, 3526, Note_on_c, 0, 61, 38
2, 3527, Note_on_c, 0, 65, 37
2, 3530, Note_on_c, 0, 68, 16
2, 3531, Note_on_c, 0, 58, 44
2, 3532, Note_on_c, 0, 53, 52
2, 3541, Note_on_c, 0, 61, 0
2, 3543, Note_on_c, 0, 65, 0
2, 3545, Note_on_c, 0, 53, 0
2, 3547, Note_on_c, 0, 58, 0
2, 3554, Note_on_c, 0, 68, 0
2, 3586, Note_on_c, 0, 51, 68
2, 3591, Control_c, 0, 64, 0
2, 3622, Control_c, 0, 64, 127
2, 3632, Note_on_c, 0, 51, 0
2, 3659, Note_on_c, 0, 65, 48
2, 3659, Note_on_c, 0, 68, 76
2, 3661, Note_on_c, 0, 61, 42
2, 3666, Note_on_c, 0, 58, 36
2, 3669, Note_on_c, 0, 73, 0
2, 3678, Note_on_c, 0, 65, 0
2, 3682, Note_on_c, 0, 61, 0
2, 3685, Note_on_c, 0, 58, 0
2, 3747, Note_on_c, 0, 70, 76
2, 3750, Note_on_c, 0, 63, 38
2, 3755, Note_on_c, 0, 58, 53
2, 3763, Note_on_c, 0, 67, 28
2, 3764, Note_on_c, 0, 68, 0
2, 3766, Note_on_c, 0, 63, 0
2, 3771, Note_on_c, 0, 58, 0
2, 3781, Note_on_c, 0, 67, 0
2, 3825, Control_c, 0, 64, 0
2, 3825, Note_on_c, 0, 73, 64
2, 3830, Note_on_c, 0, 44, 48
2, 3832, Note_on_c, 0, 70, 0
2, 3868, Control_c, 0, 64, 127
2, 3869, Note_on_c, 0, 44, 0
2, 3890, Note_on_c, 0, 73, 0
2, 3907, Note_on_c, 0, 63, 34
2, 3907, Note_on_c, 0, 72, 64
2, 3914, Note_on_c, 0, 68, 30
2, 3915, Note_on_c, 0, 60, 14
2, 3922, Note_on_c, 0, 56, 35
2, 3933, Note_on_c, 0, 60, 0
2, 3933, Note_on_c, 0, 68, 0
2, 3937, Note_on_c, 0, 63, 0
2, 3940, Note_on_c, 0, 56, 0
2, 3979, Note_on_c, 0, 72, 0
2, 3997, Note_on_c, 0, 68, 53
2, 4004, Note_on_c, 0, 63, 36
2, 4005, Note_on_c, 0, 60, 25
2, 4007, Note_on_c, 0, 65, 23
2, 4012, Note_on_c, 0, 56, 30
2, 4020, Note_on_c, 0, 63, 0
2, 4027, Note_on_c, 0, 56, 0
2, 4031, Note_on_c, 0, 65, 0
2, 4036, Note_on_c, 0, 60, 0
2, 4107, Note_on_c, 0, 70, 47
2, 4110, Control_c, 0, 64, 0
2, 4116, Note_on_c, 0, 68, 0
2, 4119, Note_on_c, 0, 39, 30
2, 4158, Note_on_c, 0, 39, 0
2, 4164, Control_c, 0, 64, 127
2, 4227, Note_on_c, 0, 63, 10
2, 4228, Note_on_c, 0, 58, 44
2, 4236, Note_on_c, 0, 67, 29
2, 4238, Note_on_c, 0, 51, 41
2, 4251, Note_on_c, 0, 58, 0
2, 4256, Note_on_c, 0, 51, 0
2, 4263, Note_on_c, 0, 63, 0
2, 4268, Note_on_c, 0, 67, 0
2, 4311, Note_on_c, 0, 63, 34
2, 4314, Note_on_c, 0, 51, 40
2, 4314, Note_on_c, 0, 58, 46
2, 4320, Note_on_c, 0, 67, 32
2, 4333, Note_on_c, 0, 58, 0
2, 4336, Note_on_c, 0, 67, 0
2, 4339, Note_on_c, 0, 51, 0
2, 4339, Note_on_c, 0, 63, 0
2, 4380, Note_on_c, 0, 58, 40
2, 4384, Note_on_c, 0, 67, 46
2, 4386, Note_on_c, 0, 63, 25
2, 4386, Note_on_c, 0, 51, 33
2, 4402, Note_on_c, 0, 58, 0
2, 4403, Note_on_c, 0, 67, 0
2, 4405, Note_on_c, 0, 63, 0
2, 4406, Note_on_c, 0, 51, 0
2, 4445, Note_on_c, 0, 58, 47
2, 4447, Note_on_c, 0, 67, 31
2, 4452, Note_on_c, 0, 63, 19
2, 4455, Note_on_c, 0, 51, 35
2, 4465, Note_on_c, 0, 58, 0
2, 4473, Note_on_c, 0, 63, 0
2, 4473, Note_on_c, 0, 67, 0
2, 4474, Note_on_c, 0, 51, 0
2, 4515, Note_on_c, 0, 58, 39
2, 4516, Note_on_c, 0, 67, 31
2, 4516, Note_on_c, 0, 63, 35
2, 4520, Note_on_c, 0, 51, 35
2, 4531, Note_on_c, 0, 63, 0
2, 4535, Note_on_c, 0, 58, 0
2, 4541, Note_on_c, 0, 51, 0
2, 4542, Note_on_c, 0, 67, 0
2, 4587, Note_on_c, 0, 39, 70
2, 4598, Note_on_c, 0, 39, 0
2, 4605, Note_on_c, 0, 70, 0
2, 4660, Note_on_c, 0, 70, 83
2, 4662, Note_on_c, 0, 61, 44
2, 4666, Note_on_c, 0, 58, 43
2, 4668, Note_on_c, 0, 63, 35
2, 4669, Note_on_c, 0, 67, 44
2, 4672, Note_on_c, 0, 51, 16
2, 4681, Note_on_c, 0, 61, 0
2, 4684, Note_on_c, 0, 67, 0
2, 4687, Note_on_c, 0, 63, 0
2, 4690, Note_on_c, 0, 58, 0
2, 4695, Note_on_c, 0, 51, 0
2, 4725, Note_on_c, 0, 51, 49
2, 4725, Note_on_c, 0, 72, 98
2, 4726, Note_on_c, 0, 63, 64
2, 4731, Note_on_c, 0, 61, 40
2, 4732, Note_on_c, 0, 67, 57
2, 4737, Note_on_c, 0, 58, 68
2, 4746, Note_on_c, 0, 67, 0
2, 4746, Note_on_c, 0, 51, 0
2, 4746, Note_on_c, 0, 61, 0
2, 4749, Note_on_c, 0, 63, 0
2, 4750, Note_on_c, 0, 58, 0
2, 4775, Note_on_c, 0, 70, 0
2, 4797, Note_on_c, 0, 73, 93
2, 4800, Note_on_c, 0, 51, 49
2, 4800, Note_on_c, 0, 61, 58
2, 4801, Note_on_c, 0, 63, 60
2, 4802, Note_on_c, 0, 67, 57
2, 4805, Note_on_c, 0, 58, 42
2, 4806, Note_on_c, 0, 72, 0
2, 4813, Note_on_c, 0, 61, 0
2, 4816, Note_on_c, 0, 67, 0
2, 4820, Note_on_c, 0, 63, 0
2, 4820, Note_on_c, 0, 51, 0
2, 4821, Note_on_c, 0, 58, 0
2, 4867, Note_on_c, 0, 65, 97
2, 4869, Note_on_c, 0, 63, 58
2, 4870, Note_on_c, 0, 61, 63
2, 4873, Note_on_c, 0, 51, 48
2, 4876, Note_on_c, 0, 73, 0
2, 4880, Note_on_c, 0, 58, 57
2, 4887, Note_on_c, 0, 61, 0
2, 4894, Note_on_c, 0, 51, 0
2, 4895, Note_on_c, 0, 58, 0
2, 4895, Note_on_c, 0, 63, 0
2, 4936, Note_on_c, 0, 67, 95
2, 4936, Note_on_c, 0, 63, 59
2, 4939, Note_on_c, 0, 61, 68
2, 4941, Note_on_c, 0, 51, 61
2, 4945, Note_on_c, 0, 58, 41
2, 4948, Note_on_c, 0, 65, 0
2, 4950, Note_on_c, 0, 63, 0
2, 4961, Note_on_c, 0, 58, 0
2, 4970, Note_on_c, 0, 51, 0
2, 4980, Note_on_c, 0, 61, 0
2, 4995, Note_on_c, 0, 67, 0
2, 5001, Control_c, 0, 64, 0
2, 5002, Note_on_c, 0, 70, 93
2, 5007, Note_on_c, 0, 44, 84
2, 5051, Control_c, 0, 64, 127
2, 5057, Note_on_c, 0, 44, 0
2, 5082, Note_on_c, 0, 66, 54
2, 5086, Note_on_c, 0, 60, 43
2, 5088, Note_on_c, 0, 63, 73
2, 5089, Note_on_c, 0, 51, 62
2, 5094, Note_on_c, 0, 56, 55
2, 5100, Note_on_c, 0, 63, 0
2, 5106, Note_on_c, 0, 66, 0
2, 5106, Note_on_c, 0, 60, 0
2, 5106, Note_on_c, 0, 56, 0
2, 5114, Note_on_c, 0, 51, 0
2, 5143, Note_on_c, 0, 66, 70
2, 5143, Note_on_c, 0, 60, 56
2, 5146, Note_on_c, 0, 63, 62
2, 5151, Note_on_c, 0, 51, 37
2, 5153, Note_on_c, 0, 56, 48
2, 5161, Note_on_c, 0, 63, 0
2, 5163, Note_on_c, 0, 60, 0
2, 5166, Note_on_c, 0, 56, 0
2, 5169, Note_on_c, 0, 51, 0
2, 5170, Note_on_c, 0, 66, 0
2, 5197, Note_on_c, 0, 68, 95
2, 5202, Note_on_c, 0, 60, 59
2, 5202, Note_on_c, 0, 66, 55
2, 5205, Note_on_c, 0, 63, 58
2, 5209, Note_on_c, 0, 51, 60
2, 5216, Note_on_c, 0, 70, 0
2, 5217, Note_on_c, 0, 56, 37
2, 5219, Note_on_c, 0, 63, 0
2, 5221, Note_on_c, 0, 60, 0
2, 5223, Note_on_c, 0, 66, 0
2, 5226, Note_on_c, 0, 51, 0
2, 5232, Note_on_c, 0, 56, 0
2, 5260, Note_on_c, 0, 63, 63
2, 5262, Note_on_c, 0, 66, 70
2, 5263, Note_on_c, 0, 60, 59
2, 5264, Note_on_c, 0, 56, 22
2, 5266, Note_on_c, 0, 51, 55
2, 5275, Note_on_c, 0, 66, 0
2, 5275, Note_on_c, 0, 63, 0
2, 5277, Note_on_c, 0, 60, 0
2, 5279, Note_on_c, 0, 56, 0
2, 5282, Note_on_c, 0, 51, 0
2, 5317, Note_on_c, 0, 66, 64
2, 5319, Note_on_c, 0, 60, 67
2, 5319, Note_on_c, 0, 63, 73
2, 5320, Note_on_c, 0, 51, 69
2, 5329, Note_on_c, 0, 63, 0
2, 5331, Note_on_c, 0, 60, 0
2, 5331, Note_on_c, 0, 56, 15
2, 5339, Note_on_c, 0, 51, 0
2, 5343, Note_on_c, 0, 56, 0
2, 5352, Note_on_c, 0, 66, 0
2, 5405, Note_on_c, 0, 37, 100
2, 5408, Control_c, 0, 64, 0
2, 5448, Note_on_c, 0, 37, 0
2, 5451, Control_c, 0, 64, 127
2, 5464, Note_on_c, 0, 68, 0
2, 5494, Note_on_c, 0, 73, 100
2, 5497, Note_on_c, 0, 65, 80
2, 5500, Note_on_c, 0, 56, 56
2, 5500, Note_on_c, 0, 53, 59
2, 5503, Note_on_c, 0, 61, 46
2, 5506, Note_on_c, 0, 68, 49
2, 5509, Note_on_c, 0, 65, 0
2, 5516, Note_on_c, 0, 53, 0
2, 5518, Note_on_c, 0, 61, 0
2, 5518, Note_on_c, 0, 56, 0
2, 5521, Note_on_c, 0, 68, 0
2, 5537, Note_on_c, 0, 73, 0
2, 5560, Note_on_c, 0, 79, 109
2, 5560, Note_on_c, 0, 65, 83
2, 5561, Note_on_c, 0, 53, 55
2, 5565, Note_on_c, 0, 73, 52
2, 5566, Note_on_c, 0, 61, 46
2, 5566, Note_on_c, 0, 56, 50
2, 5571, Note_on_c, 0, 68, 22
2, 5575, Note_on_c, 0, 65, 0
2, 5579, Note_on_c, 0, 73, 0
2, 5580, Note_on_c, 0, 53, 0
2, 5580, Note_on_c, 0, 56, 0
2, 5581, Note_on_c, 0, 61, 0
2, 5588, Note_on_c, 0, 79, 0
2, 5603, Note_on_c, 0, 68, 0
2, 5620, Note_on_c, 0, 82, 112
2, 5626, Note_on_c, 0, 65, 68
2, 5628, Note_on_c, 0, 53, 46
2, 5630, Note_on_c, 0, 61, 42
2, 5631, Note_on_c, 0, 56, 40
2, 5643, Note_on_c, 0, 65, 0
2, 5644, Note_on_c, 0, 53, 0
2, 5645, Note_on_c, 0, 61, 0
2, 5646, Note_on_c, 0, 56, 0
2, 5659, Note_on_c, 0, 82, 0
2, 5685, Note_on_c, 0, 80, 103
2, 5688, Note_on_c, 0, 53, 62
2, 5689, Note_on_c, 0, 65, 62
2, 5692, Note_on_c, 0, 56, 44
2, 5692, Note_on_c, 0, 61, 35
2, 5692, Note_on_c, 0, 73, 39
2, 5702, Note_on_c, 0, 65, 0
2, 5706, Note_on_c, 0, 56, 0
2, 5707, Note_on_c, 0, 61, 0
2, 5709, Note_on_c, 0, 53, 0
2, 5709, Note_on_c, 0, 73, 0
2, 5723, Note_on_c, 0, 80, 0
2, 5743, Note_on_c, 0, 77, 108
2, 5745, Note_on_c, 0, 68, 82
2, 5749, Note_on_c, 0, 65, 61
2, 5751, Note_on_c, 0, 53, 62
2, 5751, Note_on_c, 0, 56, 44
2, 5756, Note_on_c, 0, 61, 31
2, 5759, Note_on_c, 0, 68, 0
2, 5761, Note_on_c, 0, 65, 0
2, 5766, Note_on_c, 0, 53, 0
2, 5771, Note_on_c, 0, 61, 0
2, 5775, Note_on_c, 0, 56, 0
2, 5779, Note_on_c, 0, 77, 0
2, 5808, Control_c, 0, 64, 0
2, 5808, Note_on_c, 0, 75, 101
2, 5810, Note_on_c, 0, 51, 89
2, 5850, Control_c, 0, 64, 127
2, 5853, Note_on_c, 0, 51, 0
2, 5868, Note_on_c, 0, 70, 75
2, 5869, Note_on_c, 0, 63, 62
2, 5872, Note_on_c, 0, 58, 87
2, 5872, Note_on_c, 0, 67, 82
2, 5874, Note_on_c, 0, 61, 66
2, 5883, Note_on_c, 0, 70, 0
2, 5884, Note_on_c, 0, 67, 0
2, 5884, Note_on_c, 0, 63, 0
2, 5886, Note_on_c, 0, 58, 0
2, 5887, Note_on_c, 0, 61, 0
2, 5925, Note_on_c, 0, 63, 62
2, 5926, Note_on_c, 0, 70, 68
2, 5930, Note_on_c, 0, 67, 60
2, 5932, Note_on_c, 0, 58, 81
2, 5932, Note_on_c, 0, 61, 50
2, 5936, Note_on_c, 0, 63, 0
2, 5941, Note_on_c, 0, 67, 0
2, 5944, Note_on_c, 0, 61, 0
2, 5945, Note_on_c, 0, 58, 0
2, 5953, Note_on_c, 0, 70, 0
2, 5956, Note_on_c, 0, 75, 0
2, 5985, Control_c, 0, 64, 0
2, 5985, Note_on_c, 0, 77, 106
2, 5991, Note_on_c, 0, 49, 72
2, 6021, Note_on_c, 0, 49, 0
2, 6031, Control_c, 0, 64, 127
2, 6051, Note_on_c, 0, 65, 46
2, 6052, Note_on_c, 0, 73, 57
2, 6055, Note_on_c, 0, 56, 65
2, 6055, Note_on_c, 0, 68, 61
2, 6061, Note_on_c, 0, 61, 48
2, 6066, Note_on_c, 0, 65, 0
2, 6069, Note_on_c, 0, 68, 0
2, 6071, Note_on_c, 0, 56, 0
2, 6074, Note_on_c, 0, 61, 0
2, 6076, Note_on_c, 0, 73, 0
2, 6119, Note_on_c, 0, 73, 57
2, 6120, Note_on_c, 0, 68, 57
2, 6124, Note_on_c, 0, 61, 34
2, 6125, Note_on_c, 0, 65, 33
2, 6129, Note_on_c, 0, 56, 20
2, 6132, Note_on_c, 0, 68, 0
2, 6138, Note_on_c, 0, 61, 0
2, 6140, Note_on_c, 0, 73, 0
2, 6141, Note_on_c, 0, 65, 0
2, 6145, Note_on_c, 0, 56, 0
2, 6169, Control_c, 0, 64, 0
2, 6181, Note_on_c, 0, 51, 67
2, 6207, Control_c, 0, 64, 127
2, 6210, Note_on_c, 0, 77, 0
2, 6216, Note_on_c, 0, 51, 0
2, 6261, Note_on_c, 0, 70, 64
2, 6265, Note_on_c, 0, 61, 36
2, 6267, Note_on_c, 0, 58, 50
2, 6267, Note_on_c, 0, 67, 45
2, 6268, Note_on_c, 0, 63, 41
2, 6282, Note_on_c, 0, 67, 0
2, 6282, Note_on_c, 0, 70, 0
2, 6283, Note_on_c, 0, 61, 0
2, 6283, Note_on_c, 0, 63, 0
2, 6284, Note_on_c, 0, 58, 0
2, 6331, Note_on_c, 0, 75, 72
2, 6334, Note_on_c, 0, 70, 55
2, 6337, Note_on_c, 0, 58, 35
2, 6339, Note_on_c, 0, 67, 38
2, 6340, Note_on_c, 0, 61, 36
2, 6350, Note_on_c, 0, 70, 0
2, 6354, Note_on_c, 0, 67, 0
2, 6354, Note_on_c, 0, 61, 0
2, 6355, Note_on_c, 0, 58, 0
2, 6374, Note_on_c, 0, 75, 0
2, 6392, Note_on_c, 0, 79, 85
2, 6395, Note_on_c, 0, 70, 44
2, 6400, Note_on_c, 0, 67, 35
2, 6404, Note_on_c, 0, 58, 21
2, 6408, Note_on_c, 0, 63, 20
2, 6412, Note_on_c, 0, 70, 0
2, 6415, Note_on_c, 0, 79, 0
2, 6417, Note_on_c, 0, 67, 0
2, 6418, Note_on_c, 0, 58, 0
2, 6423, Note_on_c, 0, 63, 0
2, 6448, Note_on_c, 0, 77, 85
2, 6450, Note_on_c, 0, 67, 48
2, 6451, Note_on_c, 0, 70, 68
2, 6453, Note_on_c, 0, 58, 39
2, 6454, Note_on_c, 0, 63, 21
2, 6454, Note_on_c, 0, 61, 18
2, 6465, Note_on_c, 0, 70, 0
2, 6465, Note_on_c, 0, 67, 0
2, 6470, Note_on_c, 0, 77, 0
2, 6470, Note_on_c, 0, 61, 0
2, 6472, Note_on_c, 0, 63, 0
2, 6473, Note_on_c, 0, 58, 0
2, 6505, Note_on_c, 0, 73, 83
2, 6506, Note_on_c, 0, 63, 21
2, 6506, Note_on_c, 0, 58, 39
2, 6507, Note_on_c, 0, 61, 18
2, 6508, Note_on_c, 0, 67, 48
2, 6512, Note_on_c, 0, 70, 18
2, 6517, Note_on_c, 0, 73, 0
2, 6523, Note_on_c, 0, 67, 0
2, 6523, Note_on_c, 0, 61, 0
2, 6524, Note_on_c, 0, 63, 0
2, 6524, Note_on_c, 0, 70, 0
2, 6526, Note_on_c, 0, 58, 0
2, 6561, Control_c, 0, 64, 0
2, 6566, Note_on_c, 0, 72, 98
2, 6573, Note_on_c, 0, 41, 73
2, 6594, Note_on_c, 0, 41, 0
2, 6603, Control_c, 0, 64, 127
2, 6626, Note_on_c, 0, 63, 46
2, 6631, Note_on_c, 0, 69, 54
2, 6634, Note_on_c, 0, 65, 66
2, 6634, Note_on_c, 0, 53, 66
2, 6637, Note_on_c, 0, 60, 10
2, 6642, Note_on_c, 0, 63, 0
2, 6644, Note_on_c, 0, 69, 0
2, 6646, Note_on_c, 0, 65, 0
2, 6647, Note_on_c, 0, 60, 0
2, 6648, Note_on_c, 0, 53, 0
2, 6687, Note_on_c, 0, 63, 46
2, 6688, Note_on_c, 0, 60, 10
2, 6689, Note_on_c, 0, 69, 67
2, 6689, Note_on_c, 0, 53, 63
2, 6691, Note_on_c, 0, 65, 34
2, 6698, Note_on_c, 0, 60, 0
2, 6702, Note_on_c, 0, 63, 0
2, 6704, Note_on_c, 0, 53, 0
2, 6706, Note_on_c, 0, 65, 0
2, 6707, Note_on_c, 0, 69, 0
2, 6738, Control_c, 0, 64, 0
2, 6744, Note_on_c, 0, 46, 87
2, 6746, Note_on_c, 0, 73, 76
2, 6753, Note_on_c, 0, 72, 0
2, 6772, Note_on_c, 0, 46, 0
2, 6780, Control_c, 0, 64, 127
2, 6805, Note_on_c, 0, 65, 80
2, 6807, Note_on_c, 0, 61, 30
2, 6809, Note_on_c, 0, 53, 51
2, 6810, Note_on_c, 0, 68, 36
2, 6811, Note_on_c, 0, 58, 54
2, 6817, Note_on_c, 0, 65, 0
2, 6824, Note_on_c, 0, 61, 0
2, 6825, Note_on_c, 0, 58, 0
2, 6826, Note_on_c, 0, 68, 0
2, 6826, Note_on_c, 0, 53, 0
2, 6867, Note_on_c, 0, 65, 47
2, 6870, Note_on_c, 0, 68, 56
2, 6870, Note_on_c, 0, 61, 36
2, 6873, Note_on_c, 0, 53, 51
2, 6873, Note_on_c, 0, 58, 55
2, 6882, Note_on_c, 0, 65, 0
2, 6885, Note_on_c, 0, 68, 0
2, 6886, Note_on_c, 0, 61, 0
2, 6887, Note_on_c, 0, 58, 0
2, 6890, Note_on_c, 0, 53, 0
2, 6926, Control_c, 0, 64, 0
2, 6930, Note_on_c, 0, 51, 67
2, 6964, Control_c, 0, 64, 127
2, 6970, Note_on_c, 0, 51, 0
2, 7007, Note_on_c, 0, 61, 66
2, 7010, Note_on_c, 0, 58, 43
2, 7012, Note_on_c, 0, 65, 41
2, 7016, Note_on_c, 0, 53, 37
2, 7030, Note_on_c, 0, 65, 0
2, 7032, Note_on_c, 0, 53, 0
2, 7038, Note_on_c, 0, 58, 0
2, 7040, Note_on_c, 0, 61, 0
2, 7054, Note_on_c, 0, 73, 0
2, 7081, Note_on_c, 0, 68, 81
2, 7086, Note_on_c, 0, 61, 38
2, 7088, Note_on_c, 0, 65, 30
2, 7089, Note_on_c, 0, 53, 25
2, 7089, Note_on_c, 0, 58, 28
2, 7101, Note_on_c, 0, 65, 0
2, 7105, Note_on_c, 0, 58, 0
2, 7109, Note_on_c, 0, 53, 0
2, 7117, Note_on_c, 0, 61, 0
2, 7172, Control_c, 0, 64, 0
2, 7182, Note_on_c, 0, 72, 66
2, 7185, Note_on_c, 0, 39, 36
2, 7192, Note_on_c, 0, 68, 0
2, 7219, Note_on_c, 0, 39, 0
2, 7222, Control_c, 0, 64, 127
2, 7306, Note_on_c, 0, 70, 54
2, 7309, Note_on_c, 0, 61, 31
2, 7314, Note_on_c, 0, 63, 42
2, 7316, Note_on_c, 0, 58, 39
2, 7317, Note_on_c, 0, 72, 0
2, 7317, Note_on_c, 0, 67, 29
2, 7321, Note_on_c, 0, 51, 13
2, 7335, Note_on_c, 0, 58, 0
2, 7339, Note_on_c, 0, 67, 0
2, 7340, Note_on_c, 0, 63, 0
2, 7343, Note_on_c, 0, 61, 0
2, 7343, Note_on_c, 0, 51, 0
2, 7405, Note_on_c, 0, 61, 29
2, 7409, Note_on_c, 0, 51, 26
2, 7410, Control_c, 0, 64, 0
2, 7411, Note_on_c, 0, 63, 12
2, 7416, Note_on_c, 0, 67, 17
2, 7417, Note_on_c, 0, 58, 39
2, 7436, Note_on_c, 0, 58, 0
2, 7437, Note_on_c, 0, 63, 0
2, 7437, Control_c, 0, 64, 127
2, 7448, Note_on_c, 0, 67, 0
2, 7450, Note_on_c, 0, 61, 0
2, 7467, Note_on_c, 0, 51, 0
2, 7468, Note_on_c, 0, 68, 52
2, 7475, Note_on_c, 0, 70, 0
2, 7483, Note_on_c, 0, 68, 0
2, 7506, Note_on_c, 0, 68, 52
2, 7521, Note_on_c, 0, 44, 32
2, 7521, Control_c, 0, 64, 0
2, 7559, Note_on_c, 0, 44, 0
2, 7564, Control_c, 0, 64, 127
2, 7611, Note_on_c, 0, 63, 30
2, 7612, Note_on_c, 0, 60, 29
2, 7615, Note_on_c, 0, 51, 24
2, 7618, Note_on_c, 0, 56, 33
2, 7633, Note_on_c, 0, 63, 0
2, 7634, Note_on_c, 0, 56, 0
2, 7639, Note_on_c, 0, 51, 0
2, 7646, Note_on_c, 0, 60, 0
2, 7686, Note_on_c, 0, 63, 37
2, 7687, Note_on_c, 0, 60, 34
2, 7687, Note_on_c, 0, 51, 28
2, 7692, Note_on_c, 0, 56, 30
2, 7704, Note_on_c, 0, 63, 0
2, 7706, Note_on_c, 0, 60, 0
2, 7708, Note_on_c, 0, 56, 0
2, 7709, Note_on_c, 0, 51, 0
2, 7749, Note_on_c, 0, 60, 26
2, 7750, Note_on_c, 0, 63, 34
2, 7760, Note_on_c, 0, 51, 20
2, 7769, Note_on_c, 0, 63, 0
2, 7770, Note_on_c, 0, 60, 0
2, 7770, Note_on_c, 0, 56, 10
2, 7778, Note_on_c, 0, 51, 0
2, 7784, Note_on_c, 0, 56, 0
2, 7821, Note_on_c, 0, 63, 41
2, 7822, Note_on_c, 0, 60, 36
2, 7823, Note_on_c, 0, 51, 40
2, 7825, Note_on_c, 0, 56, 10
2, 7840, Note_on_c, 0, 63, 0
2, 7843, Note_on_c, 0, 51, 0
2, 7843, Note_on_c, 0, 60, 0
2, 7845, Note_on_c, 0, 56, 0
2, 7912, Note_on_c, 0, 60, 24
2, 7914, Note_on_c, 0, 51, 19
2, 7920, Note_on_c, 0, 63, 10
2, 7920, Note_on_c, 0, 56, 34
2, 7933, Note_on_c, 0, 63, 0
2, 7937, Note_on_c, 0, 68, 0
2, 7941, Note_on_c, 0, 56, 0
2, 7962, Note_on_c, 0, 51, 0
2, 7973, Note_on_c, 0, 60, 0
2, 8069, Note_on_c, 0, 68, 51
2, 8071, Control_c, 0, 64, 0
2, 8081, Note_on_c, 0, 40, 40
2, 8111, Note_on_c, 0, 40, 0
2, 8121, Control_c, 0, 64, 127
2, 8174, Note_on_c, 0, 56, 36
2, 8177, Note_on_c, 0, 52, 40
2, 8181, Note_on_c, 0, 62, 32
2, 8185, Note_on_c, 0, 64, 10
2, 8189, Note_on_c, 0, 59, 10
2, 8192, Note_on_c, 0, 56, 0
2, 8194, Note_on_c, 0, 52, 0
2, 8198, Note_on_c, 0, 62, 0
2, 8202, Note_on_c, 0, 64, 0
2, 8205, Note_on_c, 0, 59, 0
2, 8244, Note_on_c, 0, 64, 25
2, 8244, Note_on_c, 0, 59, 10
2, 8247, Note_on_c, 0, 68, 0
2, 8247, Note_on_c, 0, 52, 20
2, 8249, Note_on_c, 0, 56, 16
2, 8252, Note_on_c, 0, 62, 41
2, 8260, Note_on_c, 0, 64, 0
2, 8262, Note_on_c, 0, 59, 0
2, 8265, Note_on_c, 0, 56, 0
2, 8268, Note_on_c, 0, 62, 0
2, 8271, Note_on_c, 0, 52, 0
2, 8299, Note_on_c, 0, 68, 65
2, 8305, Note_on_c, 0, 56, 23
2, 8311, Note_on_c, 0, 52, 20
2, 8311, Note_on_c, 0, 64, 33
2, 8311, Note_on_c, 0, 62, 11
2, 8317, Note_on_c, 0, 59, 24
2, 8324, Note_on_c, 0, 56, 0
2, 8329, Note_on_c, 0, 64, 0
2, 8331, Note_on_c, 0, 62, 0
2, 8332, Note_on_c, 0, 59, 0
2, 8335, Note_on_c, 0, 52, 0
2, 8353, Note_on_c, 0, 68, 0
2, 8385, Note_on_c, 0, 66, 68
2, 8391, Note_on_c, 0, 56, 18
2, 8392, Note_on_c, 0, 52, 40
2, 8395, Note_on_c, 0, 64, 22
2, 8397, Note_on_c, 0, 59, 11
2, 8408, Note_on_c, 0, 56, 0
2, 8409, Note_on_c, 0, 52, 0
2, 8412, Note_on_c, 0, 64, 0
2, 8413, Note_on_c, 0, 59, 0
2, 8430, Note_on_c, 0, 66, 0
2, 8460, Note_on_c, 0, 64, 73
2, 8461, Note_on_c, 0, 59, 27
2, 8466, Note_on_c, 0, 52, 27
2, 8467, Note_on_c, 0, 56, 27
2, 8476, Note_on_c, 0, 59, 0
2, 8486, Note_on_c, 0, 56, 0
2, 8493, Note_on_c, 0, 52, 0
2, 8521, Note_on_c, 0, 64, 0
2, 8562, Note_on_c, 0, 45, 39
2, 8563, Control_c, 0, 64, 0
2, 8563, Note_on_c, 0, 73, 68
2, 8607, Note_on_c, 0, 45, 0
2, 8613, Control_c, 0, 64, 127
2, 8662, Note_on_c, 0, 52, 45
2, 8662, Note_on_c, 0, 64, 45
2, 8667, Note_on_c, 0, 69, 49
2, 8667, Note_on_c, 0, 61, 24
2, 8674, Note_on_c, 0, 57, 10
2, 8685, Note_on_c, 0, 61, 0
2, 8688, Note_on_c, 0, 69, 0
2, 8690, Note_on_c, 0, 57, 0
2, 8691, Note_on_c, 0, 52, 0
2, 8692, Note_on_c, 0, 64, 0
2, 8735, Note_on_c, 0, 65, 78
2, 8737, Note_on_c, 0, 61, 27
2, 8737, Note_on_c, 0, 53, 61
2, 8740, Note_on_c, 0, 69, 44
2, 8740, Note_on_c, 0, 57, 41
2, 8755, Note_on_c, 0, 57, 0
2, 8755, Note_on_c, 0, 61, 0
2, 8758, Note_on_c, 0, 69, 0
2, 8762, Note_on_c, 0, 65, 0
2, 8763, Note_on_c, 0, 53, 0
2, 8803, Note_on_c, 0, 65, 73
2, 8806, Note_on_c, 0, 61, 44
2, 8806, Note_on_c, 0, 53, 47
2, 8808, Note_on_c, 0, 69, 46
2, 8809, Note_on_c, 0, 57, 60
2, 8821, Note_on_c, 0, 61, 0
2, 8825, Note_on_c, 0, 53, 0
2, 8828, Note_on_c, 0, 69, 0
2, 8829, Note_on_c, 0, 57, 0
2, 8830, Note_on_c, 0, 65, 0
2, 8870, Note_on_c, 0, 66, 89
2, 8872, Note_on_c, 0, 61, 54
2, 8873, Note_on_c, 0, 54, 62
2, 8874, Note_on_c, 0, 69, 56
2, 8874, Note_on_c, 0, 57, 61
2, 8886, Note_on_c, 0, 61, 0
2, 8891, Note_on_c, 0, 57, 0
2, 8892, Note_on_c, 0, 54, 0
2, 8894, Note_on_c, 0, 69, 0
2, 8896, Note_on_c, 0, 66, 0
2, 8929, Note_on_c, 0, 67, 81
2, 8933, Note_on_c, 0, 61, 47
2, 8938, Note_on_c, 0, 69, 59
2, 8939, Note_on_c, 0, 55, 45
2, 8940, Note_on_c, 0, 57, 39
2, 8944, Note_on_c, 0, 67, 0
2, 8949, Note_on_c, 0, 73, 0
2, 8953, Note_on_c, 0, 57, 0
2, 8955, Note_on_c, 0, 61, 0
2, 8955, Note_on_c, 0, 55, 0
2, 9004, Control_c, 0, 64, 0
2, 9009, Note_on_c, 0, 73, 84
2, 9011, Note_on_c, 0, 44, 73
2, 9025, Note_on_c, 0, 69, 0
2, 9047, Note_on_c, 0, 44, 0
2, 9051, Control_c, 0, 64, 127
2, 9086, Note_on_c, 0, 68, 56
2, 9087, Note_on_c, 0, 66, 52
2, 9090, Note_on_c, 0, 61, 49
2, 9096, Note_on_c, 0, 63, 40
2, 9099, Note_on_c, 0, 56, 44
2, 9113, Note_on_c, 0, 63, 0
2, 9119, Note_on_c, 0, 68, 0
2, 9121, Note_on_c, 0, 66, 0
2, 9121, Note_on_c, 0, 56, 0
2, 9124, Note_on_c, 0, 61, 0
2, 9150, Note_on_c, 0, 73, 0
2, 9163, Note_on_c, 0, 66, 35
2, 9163, Note_on_c, 0, 72, 101
2, 9169, Note_on_c, 0, 68, 55
2, 9169, Note_on_c, 0, 56, 36
2, 9170, Note_on_c, 0, 60, 45
2, 9173, Note_on_c, 0, 63, 50
2, 9188, Note_on_c, 0, 68, 0
2, 9189, Note_on_c, 0, 63, 0
2, 9190, Note_on_c, 0, 56, 0
2, 9193, Note_on_c, 0, 66, 0
2, 9197, Note_on_c, 0, 60, 0
2, 9210, Note_on_c, 0, 72, 0
2, 9227, Note_on_c, 0, 72, 89
2, 9232, Note_on_c, 0, 68, 72
2, 9232, Note_on_c, 0, 66, 48
2, 9237, Note_on_c, 0, 56, 41
2, 9238, Note_on_c, 0, 60, 53
2, 9238, Note_on_c, 0, 63, 39
2, 9244, Note_on_c, 0, 68, 0
2, 9252, Note_on_c, 0, 60, 0
2, 9256, Note_on_c, 0, 66, 0
2, 9256, Note_on_c, 0, 63, 0
2, 9258, Note_on_c, 0, 56, 0
2, 9300, Note_on_c, 0, 66, 42
2, 9301, Note_on_c, 0, 69, 96
2, 9302, Note_on_c, 0, 63, 46
2, 9303, Note_on_c, 0, 60, 36
2, 9306, Note_on_c, 0, 56, 41
2, 9315, Note_on_c, 0, 72, 0
2, 9320, Note_on_c, 0, 63, 0
2, 9321, Note_on_c, 0, 66, 0
2, 9322, Note_on_c, 0, 60, 0
2, 9323, Note_on_c, 0, 56, 0
2, 9375, Note_on_c, 0, 56, 35
2, 9377, Note_on_c, 0, 66, 31
2, 9378, Note_on_c, 0, 68, 90
2, 9379, Note_on_c, 0, 63, 42
2, 9383, Note_on_c, 0, 60, 56
2, 9387, Note_on_c, 0, 69, 0
2, 9395, Note_on_c, 0, 63, 0
2, 9395, Note_on_c, 0, 66, 0
2, 9399, Note_on_c, 0, 60, 0
2, 9412, Note_on_c, 0, 56, 0
2, 9426, Note_on_c, 0, 68, 0
2, 9454, Note_on_c, 0, 49, 49
2, 9457, Note_on_c, 0, 76, 93
2, 9462, Control_c, 0, 64, 0
2, 9508, Control_c, 0, 64, 127
2, 9509, Note_on_c, 0, 49, 0
2, 9553, Note_on_c, 0, 73, 68
2, 9559, Note_on_c, 0, 67, 57
2, 9560, Note_on_c, 0, 61, 35
2, 9561, Note_on_c, 0, 64, 34
2, 9574, Note_on_c, 0, 55, 52
2, 9581, Note_on_c, 0, 67, 0
2, 9582, Note_on_c, 0, 64, 0
2, 9587, Note_on_c, 0, 61, 0
2, 9590, Note_on_c, 0, 73, 0
2, 9594, Note_on_c, 0, 55, 0
2, 9622, Note_on_c, 0, 68, 87
2, 9623, Note_on_c, 0, 73, 55
2, 9627, Note_on_c, 0, 56, 69
2, 9630, Note_on_c, 0, 64, 44
2, 9633, Note_on_c, 0, 61, 69
2, 9644, Note_on_c, 0, 64, 0
2, 9647, Note_on_c, 0, 61, 0
2, 9653, Note_on_c, 0, 68, 0
2, 9655, Note_on_c, 0, 56, 0
2, 9655, Note_on_c, 0, 73, 0
2, 9683, Note_on_c, 0, 68, 89
2, 9684, Note_on_c, 0, 73, 65
2, 9686, Note_on_c, 0, 56, 67
2, 9689, Note_on_c, 0, 61, 60
2, 9691, Note_on_c, 0, 64, 54
2, 9705, Note_on_c, 0, 64, 0
2, 9708, Note_on_c, 0, 61, 0
2, 9716, Note_on_c, 0, 73, 0
2, 9716, Note_on_c, 0, 68, 0
2, 9717, Note_on_c, 0, 56, 0
2, 9744, Note_on_c, 0, 73, 59
2, 9746, Note_on_c, 0, 69, 97
2, 9748, Note_on_c, 0, 57, 90
2, 9753, Note_on_c, 0, 64, 44
2, 9753, Note_on_c, 0, 61, 49
2, 9769, Note_on_c, 0, 64, 0
2, 9770, Note_on_c, 0, 69, 0
2, 9770, Note_on_c, 0, 61, 0
2, 9774, Note_on_c, 0, 57, 0
2, 9776, Note_on_c, 0, 73, 0
2, 9818, Note_on_c, 0, 58, 87
2, 9821, Note_on_c, 0, 72, 79
2, 9821, Note_on_c, 0, 70, 102
2, 9822, Note_on_c, 0, 64, 55
2, 9823, Note_on_c, 0, 61, 61
2, 9834, Note_on_c, 0, 61, 0
2, 9839, Note_on_c, 0, 58, 0
2, 9841, Note_on_c, 0, 70, 0
2, 9856, Note_on_c, 0, 72, 0
2, 9872, Note_on_c, 0, 64, 0
2, 9879, Note_on_c, 0, 76, 0
2, 9903, Control_c, 0, 64, 0
2, 9906, Note_on_c, 0, 76, 98
2, 9909, Note_on_c, 0, 47, 72
2, 9931, Note_on_c, 0, 47, 0
2, 9946, Control_c, 0, 64, 127
2, 9999, Note_on_c, 0, 71, 57
2, 10000, Note_on_c, 0, 69, 73
2, 10005, Note_on_c, 0, 66, 35
2, 10006, Note_on_c, 0, 59, 56
2, 10013, Note_on_c, 0, 69, 0
2, 10023, Note_on_c, 0, 66, 0
2, 10023, Note_on_c, 0, 59, 0
2, 10031, Note_on_c, 0, 71, 0
2, 10065, Note_on_c, 0, 75, 97
2, 10069, Note_on_c, 0, 69, 81
2, 10069, Note_on_c, 0, 59, 66
2, 10072, Note_on_c, 0, 71, 77
2, 10074, Note_on_c, 0, 66, 63
2, 10078, Note_on_c, 0, 76, 0
2, 10084, Note_on_c, 0, 71, 0
2, 10090, Note_on_c, 0, 66, 0
2, 10095, Note_on_c, 0, 69, 0
2, 10096, Note_on_c, 0, 59, 0
2, 10104, Note_on_c, 0, 75, 0
2, 10130, Note_on_c, 0, 75, 86
2, 10137, Note_on_c, 0, 71, 73
2, 10137, Note_on_c, 0, 69, 87
2, 10141, Note_on_c, 0, 59, 58
2, 10142, Note_on_c, 0, 66, 54
2, 10153, Note_on_c, 0, 71, 0
2, 10155, Note_on_c, 0, 66, 0
2, 10159, Note_on_c, 0, 69, 0
2, 10165, Note_on_c, 0, 59, 0
2, 10196, Note_on_c, 0, 73, 103
2, 10198, Note_on_c, 0, 69, 88
2, 10198, Note_on_c, 0, 61, 84
2, 10203, Note_on_c, 0, 71, 65
2, 10203, Note_on_c, 0, 59, 42
2, 10212, Note_on_c, 0, 75, 0
2, 10213, Note_on_c, 0, 71, 0
2, 10216, Note_on_c, 0, 59, 0
2, 10219, Note_on_c, 0, 69, 0
2, 10234, Note_on_c, 0, 61, 0
2, 10242, Note_on_c, 0, 73, 0
2, 10263, Note_on_c, 0, 69, 92
2, 10263, Note_on_c, 0, 71, 103
2, 10264, Note_on_c, 0, 63, 84
2, 10267, Note_on_c, 0, 59, 58
2, 10267, Note_on_c, 0, 66, 62
2, 10272, Note_on_c, 0, 69, 0
2, 10277, Note_on_c, 0, 66, 0
2, 10278, Note_on_c, 0, 59, 0
2, 10280, Note_on_c, 0, 63, 0
2, 10330, Control_c, 0, 64, 0
2, 10331, Note_on_c, 0, 71, 0
2, 10333, Note_on_c, 0, 80, 105
2, 10336, Note_on_c, 0, 52, 93
2, 10366, Note_on_c, 0, 52, 0
2, 10376, Control_c, 0, 64, 127
2, 10398, Note_on_c, 0, 68, 85
2, 10400, Note_on_c, 0, 74, 97
2, 10404, Note_on_c, 0, 71, 61
2, 10404, Note_on_c, 0, 59, 41
2, 10406, Note_on_c, 0, 64, 65
2, 10422, Note_on_c, 0, 80, 0
2, 10425, Note_on_c, 0, 68, 0
2, 10429, Note_on_c, 0, 71, 0
2, 10441, Note_on_c, 0, 59, 0
2, 10446, Note_on_c, 0, 74, 0
2, 10447, Note_on_c, 0, 64, 0
2, 10484, Note_on_c, 0, 80, 105
2, 10488, Note_on_c, 0, 68, 71
2, 10489, Note_on_c, 0, 74, 83
2, 10489, Note_on_c, 0, 70, 94
2, 10490, Note_on_c, 0, 58, 90
2, 10491, Note_on_c, 0, 64, 84
2, 10502, Note_on_c, 0, 74, 0
2, 10506, Note_on_c, 0, 70, 0
2, 10512, Note_on_c, 0, 64, 0
2, 10517, Note_on_c, 0, 68, 0
2, 10527, Note_on_c, 0, 58, 0
2, 10535, Note_on_c, 0, 80, 0
2, 10549, Control_c, 0, 64, 0
2, 10552, Note_on_c, 0, 80, 92
2, 10561, Note_on_c, 0, 51, 84
2, 10588, Note_on_c, 0, 51, 0
2, 10591, Control_c, 0, 64, 127
2, 10610, Note_on_c, 0, 80, 0
2, 10620, Note_on_c, 0, 79, 101
2, 10620, Note_on_c, 0, 70, 87
2, 10623, Note_on_c, 0, 75, 49
2, 10626, Note_on_c, 0, 63, 50
2, 10626, Note_on_c, 0, 67, 43
2, 10628, Note_on_c, 0, 58, 61
2, 10636, Note_on_c, 0, 75, 0
2, 10641, Note_on_c, 0, 67, 0
2, 10642, Note_on_c, 0, 70, 0
2, 10643, Note_on_c, 0, 63, 0
2, 10647, Note_on_c, 0, 58, 0
2, 10687, Note_on_c, 0, 70, 88
2, 10689, Note_on_c, 0, 75, 93
2, 10689, Note_on_c, 0, 58, 70
2, 10693, Note_on_c, 0, 63, 67
2, 10694, Note_on_c, 0, 67, 71
2, 10699, Note_on_c, 0, 70, 0
2, 10699, Note_on_c, 0, 79, 0
2, 10705, Note_on_c, 0, 63, 0
2, 10707, Note_on_c, 0, 58, 0
2, 10709, Note_on_c, 0, 67, 0
2, 10753, Control_c, 0, 64, 0
2, 10767, Note_on_c, 0, 78, 88
2, 10770, Note_on_c, 0, 50, 67
2, 10777, Note_on_c, 0, 75, 0
2, 10804, Note_on_c, 0, 50, 0
2, 10814, Control_c, 0, 64, 127
2, 10844, Note_on_c, 0, 66, 38
2, 10846, Note_on_c, 0, 72, 63
2, 10847, Note_on_c, 0, 69, 78
2, 10853, Note_on_c, 0, 62, 34
2, 10859, Note_on_c, 0, 57, 36
2, 10863, Note_on_c, 0, 66, 0
2, 10864, Note_on_c, 0, 72, 0
2, 10868, Note_on_c, 0, 69, 0
2, 10869, Note_on_c, 0, 62, 0
2, 10877, Note_on_c, 0, 57, 0
2, 10890, Note_on_c, 0, 78, 0
2, 10933, Note_on_c, 0, 78, 73
2, 10941, Note_on_c, 0, 56, 47
2, 10942, Note_on_c, 0, 72, 56
2, 10944, Note_on_c, 0, 68, 41
2, 10944, Note_on_c, 0, 66, 28
2, 10946, Note_on_c, 0, 62, 39
2, 10959, Note_on_c, 0, 62, 0
2, 10959, Note_on_c, 0, 72, 0
2, 10960, Note_on_c, 0, 68, 0
2, 10963, Note_on_c, 0, 66, 0
2, 10975, Note_on_c, 0, 56, 0
2, 10980, Note_on_c, 0, 78, 0
2, 11017, Note_on_c, 0, 49, 46
2, 11020, Note_on_c, 0, 78, 76
2, 11025, Control_c, 0, 64, 0
2, 11062, Note_on_c, 0, 49, 0
2, 11064, Control_c, 0, 64, 127
2, 11106, Note_on_c, 0, 78, 0
2, 11110, Note_on_c, 0, 77, 80
2, 11115, Note_on_c, 0, 68, 34
2, 11121, Note_on_c, 0, 65, 18
2, 11122, Note_on_c, 0, 56, 20
2, 11127, Note_on_c, 0, 61, 39
2, 11139, Note_on_c, 0, 68, 0
2, 11142, Note_on_c, 0, 61, 0
2, 11143, Note_on_c, 0, 56, 0
2, 11144, Note_on_c, 0, 65, 0
2, 11190, Note_on_c, 0, 77, 0
2, 11190, Note_on_c, 0, 73, 72
2, 11192, Note_on_c, 0, 68, 64
2, 11194, Note_on_c, 0, 65, 37
2, 11198, Note_on_c, 0, 56, 36
2, 11199, Note_on_c, 0, 61, 45
2, 11204, Note_on_c, 0, 68, 0
2, 11211, Note_on_c, 0, 61, 0
2, 11213, Note_on_c, 0, 56, 0
2, 11215, Note_on_c, 0, 65, 0
2, 11263, Control_c, 0, 64, 0
2, 11267, Note_on_c, 0, 76, 91
2, 11269, Note_on_c, 0, 48, 74
2, 11275, Note_on_c, 0, 73, 0
2, 11291, Note_on_c, 0, 48, 0
2, 11302, Control_c, 0, 64, 127
2, 11335, Note_on_c, 0, 76, 0
2, 11349, Note_on_c, 0, 67, 58
2, 11349, Note_on_c, 0, 75, 97
2, 11353, Note_on_c, 0, 63, 71
2, 11353, Note_on_c, 0, 60, 50
2, 11355, Note_on_c, 0, 70, 71
2, 11355, Note_on_c, 0, 55, 44
2, 11363, Note_on_c, 0, 67, 0
2, 11366, Note_on_c, 0, 60, 0
2, 11368, Note_on_c, 0, 63, 0
2, 11371, Note_on_c, 0, 70, 0
2, 11372, Note_on_c, 0, 55, 0
2, 11432, Note_on_c, 0, 76, 110
2, 11438, Note_on_c, 0, 66, 68
2, 11439, Note_on_c, 0, 54, 54
2, 11439, Note_on_c, 0, 64, 49
2, 11440, Note_on_c, 0, 70, 51
2, 11442, Note_on_c, 0, 75, 0
2, 11446, Note_on_c, 0, 60, 34
2, 11451, Note_on_c, 0, 64, 0
2, 11451, Note_on_c, 0, 66, 0
2, 11456, Note_on_c, 0, 70, 0
2, 11461, Note_on_c, 0, 54, 0
2, 11463, Note_on_c, 0, 60, 0
2, 11496, Note_on_c, 0, 76, 0
2, 11528, Note_on_c, 0, 80, 99
2, 11536, Control_c, 0, 64, 0
2, 11536, Note_on_c, 0, 47, 55
2, 11574, Note_on_c, 0, 47, 0
2, 11578, Control_c, 0, 64, 127
2, 11673, Note_on_c, 0, 68, 38
2, 11676, Note_on_c, 0, 76, 51
2, 11681, Note_on_c, 0, 64, 37
2, 11681, Note_on_c, 0, 71, 38
2, 11682, Note_on_c, 0, 59, 26
2, 11708, Note_on_c, 0, 71, 0
2, 11709, Note_on_c, 0, 64, 0
2, 11713, Note_on_c, 0, 76, 0
2, 11717, Note_on_c, 0, 80, 0
2, 11719, Note_on_c, 0, 59, 0
2, 11721, Note_on_c, 0, 68, 0
2, 11770, Control_c, 0, 64, 0
2, 11772, Note_on_c, 0, 78, 70
2, 11778, Note_on_c, 0, 69, 47
2, 11779, Note_on_c, 0, 66, 24
2, 11781, Note_on_c, 0, 59, 21
2, 11782, Note_on_c, 0, 63, 43
2, 11796, Note_on_c, 0, 69, 0
2, 11801, Note_on_c, 0, 63, 0
2, 11804, Note_on_c, 0, 59, 0
2, 11809, Control_c, 0, 64, 127
2, 11820, Note_on_c, 0, 66, 0
2, 11850, Note_on_c, 0, 78, 0
2, 11896, Note_on_c, 0, 76, 62
2, 11904, Note_on_c, 0, 40, 36
2, 11913, Control_c, 0, 64, 0
2, 11952, Note_on_c, 0, 40, 0
2, 11955, Control_c, 0, 64, 127
2, 12037, Note_on_c, 0, 68, 34
2, 12037, Note_on_c, 0, 71, 21
2, 12038, Note_on_c, 0, 56, 28
2, 12042, Note_on_c, 0, 64, 10
2, 12049, Note_on_c, 0, 59, 28
2, 12057, Note_on_c, 0, 68, 0
2, 12059, Note_on_c, 0, 64, 0
2, 12060, Note_on_c, 0, 56, 0
2, 12063, Note_on_c, 0, 59, 0
2, 12073, Note_on_c, 0, 71, 0
2, 12114, Note_on_c, 0, 68, 41
2, 12116, Note_on_c, 0, 64, 10
2, 12120, Note_on_c, 0, 59, 17
2, 12123, Note_on_c, 0, 71, 29
2, 12127, Note_on_c, 0, 56, 21
2, 12132, Note_on_c, 0, 68, 0
2, 12133, Note_on_c, 0, 64, 0
2, 12136, Note_on_c, 0, 59, 0
2, 12140, Note_on_c, 0, 71, 0
2, 12146, Note_on_c, 0, 56, 0
2, 12183, Note_on_c, 0, 71, 28
2, 12185, Note_on_c, 0, 68, 34
2, 12187, Note_on_c, 0, 59, 32
2, 12187, Note_on_c, 0, 64, 10
2, 12189, Note_on_c, 0, 56, 21
2, 12203, Note_on_c, 0, 68, 0
2, 12204, Note_on_c, 0, 64, 0
2, 12205, Note_on_c, 0, 59, 0
2, 12207, Note_on_c, 0, 71, 0
2, 12207, Note_on_c, 0, 56, 0
2, 12253, Note_on_c, 0, 68, 31
2, 12255, Note_on_c, 0, 71, 16
2, 12256, Note_on_c, 0, 56, 37
2, 12261, Note_on_c, 0, 59, 20
2, 12261, Note_on_c, 0, 64, 10
2, 12272, Note_on_c, 0, 68, 0
2, 12274, Note_on_c, 0, 56, 0
2, 12277, Note_on_c, 0, 59, 0
2, 12278, Note_on_c, 0, 64, 0
2, 12280, Note_on_c, 0, 71, 0
2, 12328, Note_on_c, 0, 68, 30
2, 12330, Note_on_c, 0, 71, 19
2, 12331, Note_on_c, 0, 56, 33
2, 12333, Note_on_c, 0, 59, 17
2, 12336, Note_on_c, 0, 64, 15
2, 12345, Note_on_c, 0, 68, 0
2, 12348, Note_on_c, 0, 59, 0
2, 12350, Note_on_c, 0, 56, 0
2, 12353, Note_on_c, 0, 64, 0
2, 12365, Note_on_c, 0, 71, 0
2, 12393, Control_c, 0, 64, 0
2, 12400, Note_on_c, 0, 52, 58
2, 12422, Note_on_c, 0, 52, 0
2, 12427, Note_on_c, 0, 76, 0
2, 12427, Control_c, 0, 64, 127
2, 12469, Note_on_c, 0, 76, 89
2, 12471, Note_on_c, 0, 72, 62
2, 12471, Note_on_c, 0, 69, 41
2, 12477, Note_on_c, 0, 64, 33
2, 12477, Note_on_c, 0, 57, 19
2, 12479, Note_on_c, 0, 60, 38
2, 12484, Note_on_c, 0, 72, 0
2, 12492, Note_on_c, 0, 64, 0
2, 12492, Note_on_c, 0, 69, 0
2, 12494, Note_on_c, 0, 60, 0
2, 12503, Note_on_c, 0, 57, 0
2, 12538, Note_on_c, 0, 75, 87
2, 12543, Note_on_c, 0, 69, 47
2, 12546, Note_on_c, 0, 72, 54
2, 12549, Note_on_c, 0, 63, 33
2, 12550, Note_on_c, 0, 60, 32
2, 12550, Note_on_c, 0, 57, 15
2, 12552, Note_on_c, 0, 76, 0
2, 12559, Note_on_c, 0, 72, 0
2, 12561, Note_on_c, 0, 69, 0
2, 12564, Note_on_c, 0, 63, 0
2, 12568, Note_on_c, 0, 60, 0
2, 12572, Note_on_c, 0, 57, 0
2, 12629, Note_on_c, 0, 78, 76
2, 12631, Note_on_c, 0, 66, 42
2, 12634, Note_on_c, 0, 57, 22
2, 12639, Note_on_c, 0, 75, 0
2, 12639, Control_c, 0, 64, 0
2, 12642, Note_on_c, 0, 69, 31
2, 12642, Note_on_c, 0, 60, 25
2, 12666, Note_on_c, 0, 60, 0
2, 12666, Note_on_c, 0, 69, 0
2, 12670, Control_c, 0, 64, 127
2, 12672, Note_on_c, 0, 57, 0
2, 12685, Note_on_c, 0, 78, 0
2, 12693, Note_on_c, 0, 66, 0
2, 12719, Note_on_c, 0, 76, 73
2, 12721, Note_on_c, 0, 69, 39
2, 12726, Note_on_c, 0, 64, 36
2, 12728, Note_on_c, 0, 57, 10
2, 12729, Note_on_c, 0, 60, 22
2, 12749, Note_on_c, 0, 60, 0
2, 12750, Note_on_c, 0, 64, 0
2, 12751, Note_on_c, 0, 69, 0
2, 12758, Note_on_c, 0, 76, 0
2, 12758, Note_on_c, 0, 57, 0
2, 12806, Note_on_c, 0, 64, 36
2, 12807, Note_on_c, 0, 72, 78
2, 12809, Note_on_c, 0, 60, 22
2, 12809, Note_on_c, 0, 69, 38
2, 12815, Note_on_c, 0, 57, 17
2, 12823, Note_on_c, 0, 69, 0
2, 12829, Note_on_c, 0, 60, 0
2, 12830, Note_on_c, 0, 64, 0
2, 12834, Note_on_c, 0, 57, 0
2, 12916, Control_c, 0, 64, 0
2, 12919, Note_on_c, 0, 72, 0
2, 12919, Note_on_c, 0, 40, 53
2, 12921, Note_on_c, 0, 76, 76
2, 12954, Note_on_c, 0, 40, 0
2, 12961, Control_c, 0, 64, 127
2, 13027, Note_on_c, 0, 71, 25
2, 13029, Note_on_c, 0, 64, 29
2, 13032, Note_on_c, 0, 68, 27
2, 13033, Note_on_c, 0, 56, 26
2, 13037, Note_on_c, 0, 59, 30
2, 13050, Note_on_c, 0, 71, 0
2, 13053, Note_on_c, 0, 59, 0
2, 13054, Note_on_c, 0, 68, 0
2, 13056, Note_on_c, 0, 64, 0
2, 13057, Note_on_c, 0, 56, 0
2, 13099, Note_on_c, 0, 71, 25
2, 13099, Note_on_c, 0, 68, 30
2, 13102, Note_on_c, 0, 64, 23
2, 13108, Note_on_c, 0, 56, 14
2, 13108, Note_on_c, 0, 59, 18
2, 13118, Note_on_c, 0, 64, 0
2, 13120, Note_on_c, 0, 68, 0
2, 13122, Note_on_c, 0, 71, 0
2, 13124, Note_on_c, 0, 59, 0
2, 13129, Note_on_c, 0, 56, 0
2, 13157, Note_on_c, 0, 71, 32
2, 13158, Note_on_c, 0, 56, 17
2, 13161, Note_on_c, 0, 59, 14
2, 13162, Note_on_c, 0, 68, 30
2, 13162, Note_on_c, 0, 64, 25
2, 13181, Note_on_c, 0, 64, 0
2, 13186, Note_on_c, 0, 68, 0
2, 13188, Note_on_c, 0, 56, 0
2, 13188, Note_on_c, 0, 71, 0
2, 13197, Note_on_c, 0, 59, 0
2, 13225, Note_on_c, 0, 71, 16
2, 13227, Note_on_c, 0, 59, 21
2, 13231, Note_on_c, 0, 68, 35
2, 13231, Note_on_c, 0, 64, 31
2, 13233, Note_on_c, 0, 56, 23
2, 13248, Note_on_c, 0, 64, 0
2, 13252, Note_on_c, 0, 68, 0
2, 13255, Note_on_c, 0, 56, 0
2, 13260, Note_on_c, 0, 71, 0
2, 13260, Note_on_c, 0, 59, 0
2, 13299, Note_on_c, 0, 59, 21
2, 13300, Note_on_c, 0, 68, 28
2, 13303, Note_on_c, 0, 64, 39
2, 13303, Note_on_c, 0, 56, 27
2, 13305, Note_on_c, 0, 71, 10
2, 13317, Note_on_c, 0, 68, 0
2, 13319, Note_on_c, 0, 64, 0
2, 13322, Note_on_c, 0, 59, 0
2, 13326, Note_on_c, 0, 56, 0
2, 13329, Note_on_c, 0, 71, 0
2, 13369, Control_c, 0, 64, 0
2, 13375, Note_on_c, 0, 52, 58
2, 13402, Note_on_c, 0, 52, 0
2, 13404, Control_c, 0, 64, 127
2, 13413, Note_on_c, 0, 76, 0
2, 13453, Note_on_c, 0, 76, 69
2, 13459, Note_on_c, 0, 72, 42
2, 13459, Note_on_c, 0, 69, 20
2, 13463, Note_on_c, 0, 57, 28
2, 13464, Note_on_c, 0, 64, 22
2, 13472, Note_on_c, 0, 60, 24
2, 13474, Note_on_c, 0, 72, 0
2, 13480, Note_on_c, 0, 64, 0
2, 13482, Note_on_c, 0, 69, 0
2, 13489, Note_on_c, 0, 60, 0
2, 13493, Note_on_c, 0, 57, 0
2, 13527, Note_on_c, 0, 72, 36
2, 13530, Note_on_c, 0, 75, 64
2, 13539, Note_on_c, 0, 63, 41
2, 13543, Note_on_c, 0, 76, 0
2, 13544, Note_on_c, 0, 69, 37
2, 13546, Note_on_c, 0, 60, 19
2, 13549, Note_on_c, 0, 72, 0
2, 13552, Note_on_c, 0, 57, 11
2, 13554, Note_on_c, 0, 63, 0
2, 13561, Note_on_c, 0, 69, 0
2, 13567, Note_on_c, 0, 60, 0
2, 13573, Note_on_c, 0, 57, 0
2, 13623, Note_on_c, 0, 78, 51
2, 13624, Note_on_c, 0, 75, 0
2, 13629, Note_on_c, 0, 66, 20
2, 13632, Note_on_c, 0, 57, 18
2, 13637, Note_on_c, 0, 69, 24
2, 13640, Note_on_c, 0, 60, 26
2, 13642, Control_c, 0, 64, 0
2, 13665, Note_on_c, 0, 60, 0
2, 13669, Control_c, 0, 64, 127
2, 13670, Note_on_c, 0, 69, 0
2, 13671, Note_on_c, 0, 57, 0
2, 13682, Note_on_c, 0, 78, 0
2, 13692, Note_on_c, 0, 66, 0
2, 13725, Note_on_c, 0, 76, 51
2, 13730, Note_on_c, 0, 69, 24
2, 13732, Note_on_c, 0, 57, 16
2, 13734, Note_on_c, 0, 64, 24
2, 13738, Note_on_c, 0, 60, 33
2, 13754, Note_on_c, 0, 60, 0
2, 13755, Note_on_c, 0, 69, 0
2, 13755, Note_on_c, 0, 64, 0
2, 13758, Note_on_c, 0, 57, 0
2, 13768, Note_on_c, 0, 76, 0
2, 13813, Note_on_c, 0, 72, 54
2, 13819, Note_on_c, 0, 57, 16
2, 13821, Note_on_c, 0, 69, 27
2, 13824, Note_on_c, 0, 64, 36
2, 13829, Note_on_c, 0, 60, 22
2, 13836, Note_on_c, 0, 69, 0
2, 13839, Note_on_c, 0, 64, 0
2, 13849, Note_on_c, 0, 60, 0
2, 13853, Note_on_c, 0, 57, 0
2, 13941, Control_c, 0, 64, 0
2, 13946, Note_on_c, 0, 72, 0
2, 13947, Note_on_c, 0, 40, 50
2, 13947, Note_on_c, 0, 76, 70
2, 13980, Note_on_c, 0, 40, 0
2, 13987, Control_c, 0, 64, 127
2, 14079, Note_on_c, 0, 68, 35
2, 14080, Note_on_c, 0, 71, 29
2, 14085, Note_on_c, 0, 56, 23
2, 14085, Note_on_c, 0, 64, 10
2, 14092, Note_on_c, 0, 59, 16
2, 14106, Note_on_c, 0, 64, 0
2, 14107, Note_on_c, 0, 56, 0
2, 14109, Note_on_c, 0, 68, 0
2, 14109, Note_on_c, 0, 59, 0
2, 14112, Note_on_c, 0, 71, 0
2, 14144, Note_on_c, 0, 71, 16
2, 14152, Note_on_c, 0, 64, 34
2, 14154, Note_on_c, 0, 68, 28
2, 14155, Note_on_c, 0, 56, 31
2, 14164, Note_on_c, 0, 59, 10
2, 14168, Note_on_c, 0, 64, 0
2, 14173, Note_on_c, 0, 56, 0
2, 14175, Note_on_c, 0, 68, 0
2, 14177, Note_on_c, 0, 71, 0
2, 14181, Note_on_c, 0, 59, 0
2, 14210, Note_on_c, 0, 59, 19
2, 14211, Note_on_c, 0, 71, 14
2, 14213, Note_on_c, 0, 68, 28
2, 14216, Note_on_c, 0, 56, 22
2, 14225, Note_on_c, 0, 64, 15
2, 14238, Note_on_c, 0, 68, 0
2, 14239, Note_on_c, 0, 64, 0
2, 14240, Note_on_c, 0, 56, 0
2, 14241, Note_on_c, 0, 71, 0
2, 14243, Note_on_c, 0, 59, 0
2, 14272, Note_on_c, 0, 71, 16
2, 14274, Note_on_c, 0, 64, 24
2, 14276, Note_on_c, 0, 59, 15
2, 14277, Note_on_c, 0, 68, 37
2, 14281, Note_on_c, 0, 56, 20
2, 14294, Note_on_c, 0, 64, 0
2, 14301, Note_on_c, 0, 68, 0
2, 14301, Note_on_c, 0, 56, 0
2, 14302, Note_on_c, 0, 71, 0
2, 14307, Note_on_c, 0, 59, 0
2, 14341, Note_on_c, 0, 68, 38
2, 14341, Note_on_c, 0, 56, 32
2, 14342, Note_on_c, 0, 59, 13
2, 14342, Note_on_c, 0, 71, 16
2, 14344, Note_on_c, 0, 64, 24
2, 14360, Note_on_c, 0, 64, 0
2, 14361, Note_on_c, 0, 68, 0
2, 14361, Note_on_c, 0, 56, 0
2, 14361, Note_on_c, 0, 59, 0
2, 14367, Note_on_c, 0, 71, 0
2, 14403, Note_on_c, 0, 71, 26
2, 14404, Note_on_c, 0, 68, 36
2, 14406, Note_on_c, 0, 64, 44
2, 14407, Note_on_c, 0, 56, 35
2, 14413, Note_on_c, 0, 59, 44
2, 14423, Note_on_c, 0, 64, 0
2, 14424, Note_on_c, 0, 68, 0
2, 14425, Note_on_c, 0, 56, 0
2, 14425, Note_on_c, 0, 59, 0
2, 14430, Note_on_c, 0, 71, 0
2, 14466, Note_on_c, 0, 68, 49
2, 14467, Note_on_c, 0, 71, 24
2, 14469, Note_on_c, 0, 64, 52
2, 14470, Note_on_c, 0, 56, 41
2, 14475, Note_on_c, 0, 59, 47
2, 14483, Note_on_c, 0, 64, 0
2, 14487, Note_on_c, 0, 56, 0
2, 14487, Note_on_c, 0, 59, 0
2, 14489, Note_on_c, 0, 68, 0
2, 14493, Note_on_c, 0, 71, 0
2, 14527, Note_on_c, 0, 68, 56
2, 14529, Note_on_c, 0, 64, 62
2, 14531, Note_on_c, 0, 71, 36
2, 14532, Note_on_c, 0, 56, 36
2, 14535, Note_on_c, 0, 59, 49
2, 14544, Note_on_c, 0, 76, 0
2, 14548, Note_on_c, 0, 56, 0
2, 14549, Note_on_c, 0, 59, 0
2, 14554, Note_on_c, 0, 68, 0
2, 14557, Note_on_c, 0, 64, 0
2, 14565, Note_on_c, 0, 71, 0
2, 14593, Note_on_c, 0, 68, 71
2, 14593, Note_on_c, 0, 75, 89
2, 14597, Note_on_c, 0, 71, 32
2, 14599, Note_on_c, 0, 63, 66
2, 14601, Note_on_c, 0, 56, 46
2, 14607, Note_on_c, 0, 59, 33
2, 14625, Note_on_c, 0, 68, 0
2, 14626, Note_on_c, 0, 63, 0
2, 14630, Note_on_c, 0, 71, 0
2, 14630, Note_on_c, 0, 59, 0
2, 14631, Note_on_c, 0, 56, 0
2, 14674, Note_on_c, 0, 71, 64
2, 14674, Note_on_c, 0, 68, 62
2, 14676, Note_on_c, 0, 63, 57
2, 14677, Note_on_c, 0, 56, 42
2, 14681, Note_on_c, 0, 59, 61
2, 14715, Note_on_c, 0, 56, 0
2, 14716, Note_on_c, 0, 63, 0
2, 14716, Note_on_c, 0, 68, 0
2, 14719, Note_on_c, 0, 59, 0
2, 14723, Note_on_c, 0, 75, 0
2, 14726, Note_on_c, 0, 71, 0
2, 14741, Note_on_c, 0, 75, 90
2, 14743, Note_on_c, 0, 68, 76
2, 14745, Note_on_c, 0, 56, 61
2, 14745, Note_on_c, 0, 63, 75
2, 14746, Note_on_c, 0, 71, 73
2, 14748, Note_on_c, 0, 59, 41
2, 14752, Control_c, 0, 64, 0
2, 14788, Note_on_c, 0, 71, 0
2, 14789, Note_on_c, 0, 56, 0
2, 14789, Note_on_c, 0, 68, 0
2, 14796, Note_on_c, 0, 59, 0
2, 14796, Note_on_c, 0, 63, 0
2, 14798, Control_c, 0, 64, 127
2, 14801, Note_on_c, 0, 75, 0
2, 14815, Note_on_c, 0, 75, 100
2, 14817, Note_on_c, 0, 68, 78
2, 14820, Note_on_c, 0, 63, 60
2, 14820, Note_on_c, 0, 56, 60
2, 14824, Note_on_c, 0, 59, 29
2, 14838, Note_on_c, 0, 71, 14
2, 14850, Note_on_c, 0, 56, 0
2, 14850, Note_on_c, 0, 68, 0
2, 14853, Note_on_c, 0, 63, 0
2, 14853, Note_on_c, 0, 71, 0
2, 14855, Note_on_c, 0, 59, 0
2, 14888, Note_on_c, 0, 68, 59
2, 14892, Note_on_c, 0, 63, 62
2, 14892, Note_on_c, 0, 71, 52
2, 14893, Note_on_c, 0, 56, 41
2, 14895, Note_on_c, 0, 59, 37
2, 14910, Note_on_c, 0, 59, 0
2, 14910, Note_on_c, 0, 56, 0
2, 14911, Note_on_c, 0, 63, 0
2, 14915, Note_on_c, 0, 68, 0
2, 14923, Note_on_c, 0, 71, 0
2, 14946, Note_on_c, 0, 71, 59
2, 14947, Note_on_c, 0, 68, 69
2, 14949, Note_on_c, 0, 63, 74
2, 14952, Note_on_c, 0, 56, 41
2, 14956, Note_on_c, 0, 59, 62
2, 14966, Note_on_c, 0, 63, 0
2, 14968, Note_on_c, 0, 56, 0
2, 14969, Note_on_c, 0, 59, 0
2, 14973, Note_on_c, 0, 68, 0
2, 14982, Note_on_c, 0, 71, 0
2, 15005, Note_on_c, 0, 63, 80
2, 15006, Note_on_c, 0, 68, 68
2, 15007, Note_on_c, 0, 71, 56
2, 15009, Note_on_c, 0, 56, 55
2, 15015, Note_on_c, 0, 59, 63
2, 15027, Note_on_c, 0, 59, 0
2, 15029, Note_on_c, 0, 56, 0
2, 15033, Note_on_c, 0, 63, 0
2, 15034, Note_on_c, 0, 68, 0
2, 15043, Note_on_c, 0, 71, 0
2, 15064, Note_on_c, 0, 68, 79
2, 15064, Note_on_c, 0, 71, 66
2, 15067, Note_on_c, 0, 63, 79
2, 15069, Note_on_c, 0, 56, 62
2, 15070, Note_on_c, 0, 59, 64
2, 15084, Note_on_c, 0, 56, 0
2, 15089, Note_on_c, 0, 63, 0
2, 15089, Note_on_c, 0, 68, 0
2, 15089, Note_on_c, 0, 59, 0
2, 15095, Note_on_c, 0, 71, 0
2, 15124, Note_on_c, 0, 71, 68
2, 15124, Note_on_c, 0, 68, 76
2, 15126, Note_on_c, 0, 63, 84
2, 15126, Note_on_c, 0, 59, 50
2, 15127, Note_on_c, 0, 56, 54
2, 15141, Note_on_c, 0, 56, 0
2, 15148, Note_on_c, 0, 71, 0
2, 15151, Note_on_c, 0, 68, 0
2, 15152, Note_on_c, 0, 63, 0
2, 15154, Note_on_c, 0, 59, 0
2, 15157, Note_on_c, 0, 75, 0
2, 15184, Note_on_c, 0, 59, 22
2, 15186, Control_c, 0, 64, 0
2, 15190, Note_on_c, 0, 68, 74
2, 15192, Note_on_c, 0, 74, 111
2, 15195, Note_on_c, 0, 56, 72
2, 15195, Note_on_c, 0, 62, 90
2, 15198, Note_on_c, 0, 71, 63
2, 15212, Note_on_c, 0, 62, 0
2, 15217, Note_on_c, 0, 59, 0
2, 15219, Note_on_c, 0, 68, 0
2, 15222, Note_on_c, 0, 56, 0
2, 15225, Control_c, 0, 64, 127
2, 15226, Note_on_c, 0, 71, 0
2, 15279, Note_on_c, 0, 53, 97
2, 15279, Note_on_c, 0, 68, 69
2, 15279, Note_on_c, 0, 62, 71
2, 15279, Note_on_c, 0, 41, 78
2, 15280, Note_on_c, 0, 71, 67
2, 15307, Note_on_c, 0, 62, 0
2, 15315, Note_on_c, 0, 53, 0
2, 15317, Note_on_c, 0, 68, 0
2, 15319, Note_on_c, 0, 71, 0
2, 15323, Note_on_c, 0, 41, 0
2, 15352, Note_on_c, 0, 50, 103
2, 15353, Note_on_c, 0, 38, 102
2, 15354, Note_on_c, 0, 62, 78
2, 15357, Note_on_c, 0, 71, 66
2, 15358, Note_on_c, 0, 68, 68
2, 15384, Note_on_c, 0, 68, 0
2, 15384, Note_on_c, 0, 62, 0
2, 15385, Note_on_c, 0, 50, 0
2, 15395, Note_on_c, 0, 38, 0
2, 15396, Note_on_c, 0, 71, 0
2, 15417, Note_on_c, 0, 47, 103
2, 15417, Note_on_c, 0, 71, 60
2, 15418, Note_on_c, 0, 35, 102
2, 15420, Note_on_c, 0, 62, 79
2, 15420, Note_on_c, 0, 68, 62
2, 15448, Note_on_c, 0, 62, 0
2, 15452, Note_on_c, 0, 47, 0
2, 15453, Note_on_c, 0, 68, 0
2, 15457, Note_on_c, 0, 71, 0
2, 15460, Note_on_c, 0, 35, 0
2, 15480, Note_on_c, 0, 44, 113
2, 15481, Note_on_c, 0, 32, 106
2, 15483, Note_on_c, 0, 62, 82
2, 15483, Note_on_c, 0, 68, 60
2, 15484, Note_on_c, 0, 71, 57
2, 15516, Note_on_c, 0, 62, 0
2, 15520, Note_on_c, 0, 68, 0
2, 15523, Note_on_c, 0, 71, 0
2, 15524, Note_on_c, 0, 44, 0
2, 15544, Note_on_c, 0, 32, 0
2, 15552, Note_on_c, 0, 29, 117
2, 15553, Note_on_c, 0, 41, 113
2, 15555, Note_on_c, 0, 62, 94
2, 15557, Note_on_c, 0, 68, 90
2, 15558, Note_on_c, 0, 71, 71
2, 15582, Note_on_c, 0, 74, 0
2, 15595, Note_on_c, 0, 62, 0
2, 15601, Note_on_c, 0, 41, 0
2, 15603, Note_on_c, 0, 29, 0
2, 15620, Note_on_c, 0, 68, 0
2, 15663, Note_on_c, 0, 39, 116
2, 15663, Note_on_c, 0, 27, 115
2, 15665, Note_on_c, 0, 61, 84
2, 15667, Note_on_c, 0, 67, 91
2, 15669, Note_on_c, 0, 71, 0
2, 15670, Control_c, 0, 64, 0
2, 15727, Note_on_c, 0, 27, 0
2, 15732, Note_on_c, 0, 39, 0
2, 15735, Note_on_c, 0, 67, 0
2, 15735, Note_on_c, 0, 61, 0
2, 15739, Control_c, 0, 64, 127
2, 15781, Note_on_c, 0, 61, 92
2, 15781, Note_on_c, 0, 67, 104
2, 15784, Note_on_c, 0, 58, 81
2, 15785, Note_on_c, 0, 51, 71
2, 15786, Note_on_c, 0, 63, 74
2, 15806, Note_on_c, 0, 63, 0
2, 15808, Note_on_c, 0, 61, 0
2, 15811, Note_on_c, 0, 51, 0
2, 15818, Note_on_c, 0, 58, 0
2, 15844, Note_on_c, 0, 67, 0
2, 15870, Note_on_c, 0, 72, 110
2, 15871, Note_on_c, 0, 67, 75
2, 15873, Note_on_c, 0, 63, 78
2, 15873, Note_on_c, 0, 61, 76
2, 15874, Note_on_c, 0, 51, 74
2, 15877, Note_on_c, 0, 58, 70
2, 15905, Note_on_c, 0, 63, 0
2, 15906, Note_on_c, 0, 61, 0
2, 15907, Note_on_c, 0, 67, 0
2, 15912, Note_on_c, 0, 51, 0
2, 15922, Note_on_c, 0, 58, 0
2, 15931, Note_on_c, 0, 72, 0
2, 15952, Note_on_c, 0, 73, 104
2, 15955, Note_on_c, 0, 63, 79
2, 15957, Note_on_c, 0, 51, 76
2, 15958, Note_on_c, 0, 61, 66
2, 15960, Note_on_c, 0, 67, 66
2, 15962, Note_on_c, 0, 58, 63
2, 15970, Note_on_c, 0, 67, 0
2, 15983, Note_on_c, 0, 63, 0
2, 15985, Note_on_c, 0, 61, 0
2, 15989, Note_on_c, 0, 58, 0
2, 15994, Note_on_c, 0, 51, 0
2, 16009, Note_on_c, 0, 73, 0
2, 16026, Note_on_c, 0, 63, 77
2, 16027, Note_on_c, 0, 65, 103
2, 16028, Note_on_c, 0, 61, 86
2, 16029, Note_on_c, 0, 51, 76
2, 16037, Note_on_c, 0, 58, 59
2, 16044, Note_on_c, 0, 61, 0
2, 16052, Note_on_c, 0, 58, 0
2, 16053, Note_on_c, 0, 63, 0
2, 16056, Note_on_c, 0, 51, 0
2, 16092, Note_on_c, 0, 51, 69
2, 16092, Note_on_c, 0, 67, 100
2, 16094, Note_on_c, 0, 61, 66
2, 16094, Note_on_c, 0, 58, 76
2, 16105, Note_on_c, 0, 58, 0
2, 16107, Note_on_c, 0, 65, 0
2, 16119, Note_on_c, 0, 51, 0
2, 16158, Control_c, 0, 64, 0
2, 16161, Note_on_c, 0, 70, 103
2, 16163, Note_on_c, 0, 32, 103
2, 16163, Note_on_c, 0, 44, 96
2, 16177, Note_on_c, 0, 67, 0
2, 16181, Note_on_c, 0, 61, 0
2, 16201, Note_on_c, 0, 32, 0
2, 16202, Note_on_c, 0, 44, 0
2, 16212, Control_c, 0, 64, 127
2, 16239, Note_on_c, 0, 66, 68
2, 16239, Note_on_c, 0, 63, 95
2, 16240, Note_on_c, 0, 60, 65
2, 16244, Note_on_c, 0, 51, 60
2, 16254, Note_on_c, 0, 56, 53
2, 16264, Note_on_c, 0, 60, 0
2, 16266, Note_on_c, 0, 63, 0
2, 16268, Note_on_c, 0, 56, 0
2, 16270, Note_on_c, 0, 66, 0
2, 16273, Note_on_c, 0, 51, 0
2, 16293, Note_on_c, 0, 66, 60
2, 16297, Note_on_c, 0, 60, 71
2, 16299, Note_on_c, 0, 51, 48
2, 16300, Note_on_c, 0, 63, 73
2, 16308, Note_on_c, 0, 56, 67
2, 16321, Note_on_c, 0, 56, 0
2, 16324, Note_on_c, 0, 60, 0
2, 16326, Note_on_c, 0, 66, 0
2, 16327, Note_on_c, 0, 63, 0
2, 16329, Note_on_c, 0, 51, 0
2, 16351, Note_on_c, 0, 68, 106
2, 16354, Note_on_c, 0, 60, 81
2, 16355, Note_on_c, 0, 66, 64
2, 16358, Note_on_c, 0, 63, 67
2, 16359, Note_on_c, 0, 51, 60
2, 16362, Note_on_c, 0, 56, 65
2, 16368, Note_on_c, 0, 60, 0
2, 16369, Note_on_c, 0, 66, 0
2, 16377, Note_on_c, 0, 70, 0
2, 16378, Note_on_c, 0, 56, 0
2, 16381, Note_on_c, 0, 63, 0
2, 16383, Note_on_c, 0, 51, 0
2, 16412, Note_on_c, 0, 66, 78
2, 16412, Note_on_c, 0, 60, 75
2, 16413, Note_on_c, 0, 63, 78
2, 16413, Note_on_c, 0, 51, 74
2, 16420, Note_on_c, 0, 56, 56
2, 16430, Note_on_c, 0, 63, 0
2, 16432, Note_on_c, 0, 56, 0
2, 16434, Note_on_c, 0, 60, 0
2, 16436, Note_on_c, 0, 51, 0
2, 16442, Note_on_c, 0, 66, 0
2, 16465, Note_on_c, 0, 66, 63
2, 16470, Note_on_c, 0, 60, 78
2, 16470, Note_on_c, 0, 63, 66
2, 16474, Note_on_c, 0, 51, 75
2, 16476, Note_on_c, 0, 56, 54
2, 16482, Note_on_c, 0, 63, 0
2, 16486, Note_on_c, 0, 51, 0
2, 16488, Note_on_c, 0, 56, 0
2, 16492, Note_on_c, 0, 66, 0
2, 16500, Note_on_c, 0, 60, 0
2, 16527, Control_c, 0, 64, 0
2, 16536, Note_on_c, 0, 37, 110
2, 16536, Note_on_c, 0, 25, 112
2, 16540, Note_on_c, 0, 65, 91
2, 16553, Note_on_c, 0, 65, 0
2, 16558, Note_on_c, 0, 25, 0
2, 16558, Note_on_c, 0, 37, 0
2, 16561, Note_on_c, 0, 68, 0
2, 16566, Control_c, 0, 64, 127
2, 16622, Note_on_c, 0, 68, 68
2, 16625, Note_on_c, 0, 65, 91
2, 16627, Note_on_c, 0, 53, 76
2, 16629, Note_on_c, 0, 56, 68
2, 16635, Note_on_c, 0, 73, 68
2, 16639, Note_on_c, 0, 61, 33
2, 16646, Note_on_c, 0, 68, 0
2, 16650, Note_on_c, 0, 53, 0
2, 16655, Note_on_c, 0, 65, 0
2, 16656, Note_on_c, 0, 61, 0
2, 16665, Note_on_c, 0, 56, 0
2, 16682, Note_on_c, 0, 73, 0
2, 16701, Note_on_c, 0, 65, 79
2, 16702, Note_on_c, 0, 79, 110
2, 16702, Note_on_c, 0, 68, 78
2, 16703, Note_on_c, 0, 73, 68
2, 16707, Note_on_c, 0, 53, 31
2, 16708, Note_on_c, 0, 56, 53
2, 16710, Note_on_c, 0, 61, 52
2, 16712, Note_on_c, 0, 68, 0
2, 16720, Note_on_c, 0, 73, 0
2, 16723, Note_on_c, 0, 56, 0
2, 16724, Note_on_c, 0, 61, 0
2, 16725, Note_on_c, 0, 53, 0
2, 16729, Note_on_c, 0, 65, 0
2, 16740, Note_on_c, 0, 79, 0
2, 16740, Note_on_c, 0, 68, 71
2, 16752, Note_on_c, 0, 68, 0
2, 16773, Note_on_c, 0, 82, 112
2, 16778, Note_on_c, 0, 65, 57
2, 16779, Note_on_c, 0, 73, 68
2, 16782, Note_on_c, 0, 56, 42
2, 16783, Note_on_c, 0, 53, 40
2, 16788, Note_on_c, 0, 61, 37
2, 16796, Note_on_c, 0, 73, 0
2, 16799, Note_on_c, 0, 53, 0
2, 16800, Note_on_c, 0, 56, 0
2, 16802, Note_on_c, 0, 65, 0
2, 16803, Note_on_c, 0, 61, 0
2, 16807, Note_on_c, 0, 82, 0
2, 16836, Note_on_c, 0, 80, 104
2, 16842, Note_on_c, 0, 53, 54
2, 16843, Note_on_c, 0, 56, 57
2, 16843, Note_on_c, 0, 65, 64
2, 16844, Note_on_c, 0, 73, 68
2, 16853, Note_on_c, 0, 61, 32
2, 16856, Note_on_c, 0, 65, 0
2, 16857, Note_on_c, 0, 56, 0
2, 16857, Note_on_c, 0, 53, 0
2, 16861, Note_on_c, 0, 73, 0
2, 16869, Note_on_c, 0, 61, 0
2, 16874, Note_on_c, 0, 80, 0
2, 16893, Note_on_c, 0, 77, 107
2, 16899, Note_on_c, 0, 61, 43
2, 16899, Note_on_c, 0, 53, 72
2, 16900, Note_on_c, 0, 73, 42
2, 16901, Note_on_c, 0, 56, 54
2, 16901, Note_on_c, 0, 65, 43
2, 16902, Note_on_c, 0, 68, 42
2, 16912, Note_on_c, 0, 61, 0
2, 16913, Note_on_c, 0, 56, 0
2, 16913, Note_on_c, 0, 53, 0
2, 16914, Note_on_c, 0, 65, 0
2, 16916, Note_on_c, 0, 73, 0
2, 16918, Note_on_c, 0, 68, 0
2, 16929, Note_on_c, 0, 77, 0
2, 16957, Control_c, 0, 64, 0
2, 16958, Note_on_c, 0, 75, 106
2, 16961, Note_on_c, 0, 27, 104
2, 16961, Note_on_c, 0, 39, 96
2, 16982, Note_on_c, 0, 39, 0
2, 16982, Note_on_c, 0, 27, 0
2, 16996, Control_c, 0, 64, 127
2, 17025, Note_on_c, 0, 70, 82
2, 17026, Note_on_c, 0, 63, 62
2, 17031, Note_on_c, 0, 55, 74
2, 17033, Note_on_c, 0, 67, 79
2, 17037, Note_on_c, 0, 58, 68
2, 17041, Note_on_c, 0, 70, 0
2, 17042, Note_on_c, 0, 67, 0
2, 17042, Note_on_c, 0, 63, 0
2, 17045, Note_on_c, 0, 55, 0
2, 17051, Note_on_c, 0, 58, 0
2, 17086, Note_on_c, 0, 63, 68
2, 17088, Note_on_c, 0, 70, 83
2, 17089, Note_on_c, 0, 58, 86
2, 17089, Note_on_c, 0, 55, 78
2, 17093, Note_on_c, 0, 67, 31
2, 17099, Note_on_c, 0, 55, 0
2, 17099, Note_on_c, 0, 58, 0
2, 17101, Note_on_c, 0, 63, 0
2, 17107, Note_on_c, 0, 67, 0
2, 17112, Note_on_c, 0, 75, 0
2, 17146, Control_c, 0, 64, 0
2, 17154, Note_on_c, 0, 77, 108
2, 17155, Note_on_c, 0, 25, 105
2, 17156, Note_on_c, 0, 37, 90
2, 17157, Note_on_c, 0, 70, 0
2, 17187, Note_on_c, 0, 37, 0
2, 17187, Note_on_c, 0, 25, 0
2, 17192, Control_c, 0, 64, 127
2, 17237, Note_on_c, 0, 65, 65
2, 17238, Note_on_c, 0, 73, 73
2, 17238, Note_on_c, 0, 56, 81
2, 17239, Note_on_c, 0, 61, 55
2, 17242, Note_on_c, 0, 68, 60
2, 17249, Note_on_c, 0, 56, 0
2, 17251, Note_on_c, 0, 61, 0
2, 17255, Note_on_c, 0, 65, 0
2, 17259, Note_on_c, 0, 68, 0
2, 17270, Note_on_c, 0, 73, 0
2, 17307, Note_on_c, 0, 68, 76
2, 17308, Note_on_c, 0, 65, 75
2, 17308, Note_on_c, 0, 73, 74
2, 17311, Note_on_c, 0, 56, 56
2, 17313, Note_on_c, 0, 61, 55
2, 17317, Note_on_c, 0, 68, 0
2, 17325, Note_on_c, 0, 65, 0
2, 17325, Note_on_c, 0, 61, 0
2, 17326, Note_on_c, 0, 56, 0
2, 17330, Note_on_c, 0, 73, 0
2, 17368, Control_c, 0, 64, 0
2, 17381, Note_on_c, 0, 27, 107
2, 17382, Note_on_c, 0, 39, 93
2, 17399, Note_on_c, 0, 27, 0
2, 17407, Note_on_c, 0, 77, 0
2, 17407, Control_c, 0, 64, 127
2, 17409, Note_on_c, 0, 39, 0
2, 17452, Note_on_c, 0, 70, 100
2, 17459, Note_on_c, 0, 67, 91
2, 17460, Note_on_c, 0, 63, 55
2, 17462, Note_on_c, 0, 55, 64
2, 17463, Note_on_c, 0, 58, 60
2, 17466, Note_on_c, 0, 61, 48
2, 17468, Note_on_c, 0, 67, 0
2, 17472, Note_on_c, 0, 63, 0
2, 17474, Note_on_c, 0, 55, 0
2, 17479, Note_on_c, 0, 58, 0
2, 17479, Note_on_c, 0, 61, 0
2, 17485, Note_on_c, 0, 70, 0
2, 17509, Note_on_c, 0, 75, 100
2, 17514, Note_on_c, 0, 63, 69
2, 17515, Note_on_c, 0, 67, 88
2, 17515, Note_on_c, 0, 70, 66
2, 17515, Note_on_c, 0, 55, 67
2, 17518, Note_on_c, 0, 58, 76
2, 17522, Note_on_c, 0, 61, 62
2, 17524, Note_on_c, 0, 63, 0
2, 17527, Note_on_c, 0, 67, 0
2, 17528, Note_on_c, 0, 55, 0
2, 17530, Note_on_c, 0, 70, 0
2, 17532, Note_on_c, 0, 58, 0
2, 17533, Note_on_c, 0, 61, 0
2, 17540, Note_on_c, 0, 75, 0
2, 17566, Note_on_c, 0, 79, 113
2, 17567, Note_on_c, 0, 70, 85
2, 17569, Note_on_c, 0, 67, 89
2, 17570, Note_on_c, 0, 55, 68
2, 17573, Note_on_c, 0, 58, 62
2, 17575, Note_on_c, 0, 63, 48
2, 17582, Note_on_c, 0, 70, 0
2, 17584, Note_on_c, 0, 61, 36
2, 17585, Note_on_c, 0, 55, 0
2, 17586, Note_on_c, 0, 67, 0
2, 17589, Note_on_c, 0, 58, 0
2, 17591, Note_on_c, 0, 63, 0
2, 17598, Note_on_c, 0, 79, 0
2, 17600, Note_on_c, 0, 61, 0
2, 17626, Note_on_c, 0, 77, 107
2, 17630, Note_on_c, 0, 67, 91
2, 17631, Note_on_c, 0, 70, 92
2, 17634, Note_on_c, 0, 55, 71
2, 17638, Note_on_c, 0, 58, 50
2, 17640, Note_on_c, 0, 67, 0
2, 17640, Note_on_c, 0, 63, 32
2, 17646, Note_on_c, 0, 70, 0
2, 17647, Note_on_c, 0, 55, 0
2, 17652, Note_on_c, 0, 77, 0
2, 17653, Note_on_c, 0, 58, 0
2, 17656, Note_on_c, 0, 63, 0
2, 17685, Note_on_c, 0, 63, 79
2, 17687, Note_on_c, 0, 73, 98
2, 17690, Note_on_c, 0, 61, 51
2, 17690, Note_on_c, 0, 58, 50
2, 17692, Note_on_c, 0, 55, 60
2, 17694, Note_on_c, 0, 67, 91
2, 17695, Note_on_c, 0, 70, 69
2, 17702, Note_on_c, 0, 55, 0
2, 17702, Note_on_c, 0, 61, 0
2, 17704, Note_on_c, 0, 67, 0
2, 17705, Note_on_c, 0, 58, 0
2, 17708, Note_on_c, 0, 70, 0
2, 17712, Note_on_c, 0, 63, 0
2, 17724, Note_on_c, 0, 73, 0
2, 17757, Control_c, 0, 64, 0
2, 17761, Note_on_c, 0, 72, 111
2, 17763, Note_on_c, 0, 29, 105
2, 17766, Note_on_c, 0, 41, 94
2, 17787, Note_on_c, 0, 29, 0
2, 17792, Note_on_c, 0, 41, 0
2, 17803, Control_c, 0, 64, 127
2, 17836, Note_on_c, 0, 63, 61
2, 17838, Note_on_c, 0, 69, 71
2, 17841, Note_on_c, 0, 65, 77
2, 17842, Note_on_c, 0, 53, 63
2, 17844, Note_on_c, 0, 60, 59
2, 17850, Note_on_c, 0, 63, 0
2, 17852, Note_on_c, 0, 65, 0
2, 17852, Note_on_c, 0, 69, 0
2, 17857, Note_on_c, 0, 60, 0
2, 17857, Note_on_c, 0, 53, 0
2, 17893, Note_on_c, 0, 63, 55
2, 17895, Note_on_c, 0, 65, 49
2, 17895, Note_on_c, 0, 69, 73
2, 17898, Note_on_c, 0, 60, 48
2, 17906, Note_on_c, 0, 53, 30
2, 17910, Note_on_c, 0, 65, 0
2, 17911, Note_on_c, 0, 69, 0
2, 17913, Note_on_c, 0, 60, 0
2, 17915, Note_on_c, 0, 63, 0
2, 17921, Note_on_c, 0, 53, 0
2, 17941, Control_c, 0, 64, 0
2, 17951, Note_on_c, 0, 73, 90
2, 17954, Note_on_c, 0, 34, 100
2, 17956, Note_on_c, 0, 46, 87
2, 17962, Note_on_c, 0, 72, 0
2, 17969, Note_on_c, 0, 34, 0
2, 17973, Note_on_c, 0, 46, 0
2, 17983, Control_c, 0, 64, 127
2, 18019, Note_on_c, 0, 68, 64
2, 18020, Note_on_c, 0, 65, 26
2, 18021, Note_on_c, 0, 61, 47
2, 18027, Note_on_c, 0, 58, 43
2, 18028, Note_on_c, 0, 53, 33
2, 18033, Note_on_c, 0, 65, 0
2, 18040, Note_on_c, 0, 61, 0
2, 18040, Note_on_c, 0, 68, 0
2, 18043, Note_on_c, 0, 58, 0
2, 18046, Note_on_c, 0, 53, 0
2, 18081, Note_on_c, 0, 61, 55
2, 18081, Note_on_c, 0, 58, 57
2, 18084, Note_on_c, 0, 68, 59
2, 18085, Note_on_c, 0, 65, 26
2, 18089, Note_on_c, 0, 53, 24
2, 18096, Note_on_c, 0, 58, 0
2, 18097, Note_on_c, 0, 61, 0
2, 18098, Note_on_c, 0, 65, 0
2, 18101, Note_on_c, 0, 68, 0
2, 18102, Note_on_c, 0, 53, 0
2, 18145, Control_c, 0, 64, 0
2, 18159, Note_on_c, 0, 39, 73
2, 18160, Note_on_c, 0, 51, 70
2, 18183, Note_on_c, 0, 39, 0
2, 18187, Control_c, 0, 64, 127
2, 18188, Note_on_c, 0, 51, 0
2, 18212, Note_on_c, 0, 73, 0
2, 18236, Note_on_c, 0, 68, 92
2, 18239, Note_on_c, 0, 61, 64
2, 18240, Note_on_c, 0, 65, 69
2, 18243, Note_on_c, 0, 58, 83
2, 18244, Note_on_c, 0, 53, 40
2, 18251, Note_on_c, 0, 61, 0
2, 18252, Note_on_c, 0, 65, 0
2, 18261, Note_on_c, 0, 53, 0
2, 18265, Note_on_c, 0, 58, 0
2, 18301, Note_on_c, 0, 70, 100
2, 18303, Note_on_c, 0, 61, 76
2, 18304, Note_on_c, 0, 51, 65
2, 18307, Note_on_c, 0, 67, 72
2, 18309, Note_on_c, 0, 58, 53
2, 18314, Note_on_c, 0, 68, 0
2, 18315, Note_on_c, 0, 51, 0
2, 18315, Note_on_c, 0, 61, 0
2, 18319, Note_on_c, 0, 67, 0
2, 18323, Note_on_c, 0, 58, 0
2, 18376, Note_on_c, 0, 61, 83
2, 18376, Note_on_c, 0, 68, 69
2, 18376, Note_on_c, 0, 73, 86
2, 18379, Control_c, 0, 64, 0
2, 18381, Note_on_c, 0, 44, 57
2, 18385, Note_on_c, 0, 70, 0
2, 18396, Note_on_c, 0, 68, 0
2, 18398, Note_on_c, 0, 61, 0
2, 18424, Note_on_c, 0, 44, 0
2, 18425, Control_c, 0, 64, 127
2, 18445, Note_on_c, 0, 73, 0
2, 18467, Note_on_c, 0, 72, 87
2, 18474, Note_on_c, 0, 63, 36
2, 18478, Note_on_c, 0, 60, 10
2, 18480, Note_on_c, 0, 51, 32
2, 18480, Note_on_c, 0, 56, 32
2, 18489, Note_on_c, 0, 63, 0
2, 18493, Note_on_c, 0, 60, 0
2, 18495, Note_on_c, 0, 56, 0
2, 18495, Note_on_c, 0, 51, 0
2, 18512, Note_on_c, 0, 72, 0
2, 18537, Note_on_c, 0, 68, 81
2, 18538, Note_on_c, 0, 60, 47
2, 18540, Note_on_c, 0, 63, 24
2, 18541, Note_on_c, 0, 51, 45
2, 18544, Note_on_c, 0, 65, 43
2, 18544, Note_on_c, 0, 56, 46
2, 18555, Note_on_c, 0, 63, 0
2, 18556, Note_on_c, 0, 56, 0
2, 18557, Note_on_c, 0, 51, 0
2, 18563, Note_on_c, 0, 65, 0
2, 18573, Note_on_c, 0, 60, 0
2, 18611, Note_on_c, 0, 68, 0
2, 18618, Note_on_c, 0, 70, 65
2, 18618, Note_on_c, 0, 39, 50
2, 18621, Control_c, 0, 64, 0
2, 18667, Control_c, 0, 64, 127
2, 18685, Note_on_c, 0, 39, 0
2, 18695, Note_on_c, 0, 58, 47
2, 18696, Note_on_c, 0, 70, 0
2, 18698, Note_on_c, 0, 51, 38
2, 18699, Note_on_c, 0, 63, 35
2, 18700, Note_on_c, 0, 67, 50
2, 18711, Note_on_c, 0, 58, 0
2, 18714, Note_on_c, 0, 51, 0
2, 18715, Note_on_c, 0, 63, 0
2, 18716, Note_on_c, 0, 67, 0
2, 18765, Note_on_c, 0, 51, 48
2, 18768, Note_on_c, 0, 58, 48
2, 18769, Note_on_c, 0, 63, 27
2, 18782, Note_on_c, 0, 67, 29
2, 18783, Note_on_c, 0, 51, 0
2, 18786, Note_on_c, 0, 58, 0
2, 18787, Note_on_c, 0, 63, 0
2, 18798, Note_on_c, 0, 67, 0
2, 18843, Note_on_c, 0, 51, 60
2, 18843, Note_on_c, 0, 58, 60
2, 18847, Note_on_c, 0, 63, 23
2, 18851, Note_on_c, 0, 67, 46
2, 18861, Note_on_c, 0, 58, 0
2, 18861, Note_on_c, 0, 51, 0
2, 18865, Note_on_c, 0, 67, 0
2, 18866, Note_on_c, 0, 63, 0
2, 18909, Note_on_c, 0, 51, 66
2, 18919, Note_on_c, 0, 63, 38
2, 18920, Note_on_c, 0, 58, 36
2, 18924, Note_on_c, 0, 67, 34
2, 18928, Note_on_c, 0, 51, 0
2, 18937, Note_on_c, 0, 63, 0
2, 18939, Note_on_c, 0, 58, 0
2, 18942, Note_on_c, 0, 67, 0
2, 18991, Note_on_c, 0, 58, 40
2, 18995, Note_on_c, 0, 63, 21
2, 18996, Note_on_c, 0, 51, 48
2, 18999, Note_on_c, 0, 67, 48
2, 19011, Note_on_c, 0, 58, 0
2, 19019, Note_on_c, 0, 51, 0
2, 19022, Note_on_c, 0, 63, 0
2, 19106, Note_on_c, 0, 71, 62
2, 19113, Control_c, 0, 64, 0
2, 19119, Note_on_c, 0, 67, 0
2, 19119, Note_on_c, 0, 39, 35
2, 19149, Note_on_c, 0, 39, 0
2, 19159, Control_c, 0, 64, 127
2, 19228, Note_on_c, 0, 66, 33
2, 19234, Note_on_c, 0, 63, 28
2, 19234, Note_on_c, 0, 59, 16
2, 19237, Note_on_c, 0, 51, 10
2, 19238, Note_on_c, 0, 57, 10
2, 19250, Note_on_c, 0, 51, 0
2, 19252, Note_on_c, 0, 57, 0
2, 19255, Note_on_c, 0, 63, 0
2, 19263, Note_on_c, 0, 59, 0
2, 19264, Note_on_c, 0, 66, 0
2, 19303, Note_on_c, 0, 66, 47
2, 19305, Note_on_c, 0, 71, 0
2, 19310, Note_on_c, 0, 59, 22
2, 19311, Note_on_c, 0, 63, 30
2, 19316, Note_on_c, 0, 66, 0
2, 19317, Note_on_c, 0, 51, 31
2, 19317, Note_on_c, 0, 57, 10
2, 19325, Note_on_c, 0, 59, 0
2, 19329, Note_on_c, 0, 63, 0
2, 19337, Note_on_c, 0, 51, 0
2, 19340, Note_on_c, 0, 57, 0
2, 19372, Note_on_c, 0, 71, 56
2, 19386, Note_on_c, 0, 71, 0
2, 19386, Note_on_c, 0, 73, 76
2, 19400, Note_on_c, 0, 73, 0
2, 19426, Note_on_c, 0, 71, 69
2, 19428, Note_on_c, 0, 59, 58
2, 19429, Note_on_c, 0, 51, 37
2, 19429, Note_on_c, 0, 63, 36
2, 19433, Note_on_c, 0, 66, 55
2, 19434, Note_on_c, 0, 57, 28
2, 19440, Note_on_c, 0, 59, 0
2, 19448, Note_on_c, 0, 63, 0
2, 19449, Note_on_c, 0, 66, 0
2, 19450, Note_on_c, 0, 57, 0
2, 19451, Note_on_c, 0, 51, 0
2, 19489, Note_on_c, 0, 71, 0
2, 19506, Note_on_c, 0, 70, 94
2, 19513, Note_on_c, 0, 63, 40
2, 19513, Note_on_c, 0, 66, 57
2, 19514, Note_on_c, 0, 58, 89
2, 19517, Note_on_c, 0, 57, 22
2, 19519, Note_on_c, 0, 51, 26
2, 19528, Note_on_c, 0, 66, 0
2, 19531, Note_on_c, 0, 63, 0
2, 19532, Note_on_c, 0, 58, 0
2, 19534, Note_on_c, 0, 57, 0
2, 19537, Note_on_c, 0, 51, 0
2, 19570, Note_on_c, 0, 70, 0
2, 19576, Note_on_c, 0, 71, 88
2, 19578, Note_on_c, 0, 57, 22
2, 19579, Note_on_c, 0, 63, 45
2, 19581, Note_on_c, 0, 51, 51
2, 19581, Note_on_c, 0, 66, 62
2, 19582, Note_on_c, 0, 59, 55
2, 19591, Note_on_c, 0, 63, 0
2, 19595, Note_on_c, 0, 57, 0
2, 19596, Note_on_c, 0, 59, 0
2, 19599, Note_on_c, 0, 51, 0
2, 19622, Note_on_c, 0, 71, 0
2, 19626, Note_on_c, 0, 66, 0
2, 19647, Control_c, 0, 64, 0
2, 19651, Note_on_c, 0, 73, 89
2, 19656, Note_on_c, 0, 40, 69
2, 19680, Note_on_c, 0, 40, 0
2, 19685, Control_c, 0, 64, 127
2, 19716, Note_on_c, 0, 68, 65
2, 19717, Note_on_c, 0, 61, 49
2, 19719, Note_on_c, 0, 64, 84
2, 19728, Note_on_c, 0, 52, 34
2, 19729, Note_on_c, 0, 56, 33
2, 19731, Note_on_c, 0, 68, 0
2, 19732, Note_on_c, 0, 61, 0
2, 19733, Note_on_c, 0, 64, 0
2, 19742, Note_on_c, 0, 52, 0
2, 19744, Note_on_c, 0, 56, 0
2, 19774, Note_on_c, 0, 61, 64
2, 19778, Note_on_c, 0, 64, 85
2, 19782, Note_on_c, 0, 68, 54
2, 19783, Note_on_c, 0, 56, 56
2, 19784, Note_on_c, 0, 52, 31
2, 19787, Note_on_c, 0, 64, 0
2, 19787, Note_on_c, 0, 61, 0
2, 19795, Note_on_c, 0, 68, 0
2, 19795, Note_on_c, 0, 56, 0
2, 19800, Note_on_c, 0, 52, 0
2, 19800, Note_on_c, 0, 73, 0
2, 19828, Note_on_c, 0, 52, 44
2, 19847, Note_on_c, 0, 56, 55
2, 19854, Note_on_c, 0, 71, 76
2, 19858, Note_on_c, 0, 68, 31
2, 19859, Note_on_c, 0, 59, 53
2, 19864, Note_on_c, 0, 64, 88
2, 19874, Note_on_c, 0, 52, 0
2, 19876, Note_on_c, 0, 68, 0
2, 19878, Control_c, 0, 64, 0
2, 19896, Note_on_c, 0, 56, 0
2, 19904, Note_on_c, 0, 59, 0
2, 19907, Note_on_c, 0, 64, 0
2, 19908, Control_c, 0, 64, 127
2, 19941, Note_on_c, 0, 68, 69
2, 19944, Note_on_c, 0, 63, 84
2, 19947, Note_on_c, 0, 52, 47
2, 19947, Note_on_c, 0, 59, 32
2, 19955, Note_on_c, 0, 56, 57
2, 19966, Note_on_c, 0, 59, 0
2, 19968, Note_on_c, 0, 56, 0
2, 19970, Note_on_c, 0, 68, 0
2, 19977, Note_on_c, 0, 52, 0
2, 19980, Note_on_c, 0, 63, 0
2, 20014, Note_on_c, 0, 61, 88
2, 20017, Note_on_c, 0, 68, 69
2, 20021, Note_on_c, 0, 59, 54
2, 20022, Note_on_c, 0, 52, 50
2, 20023, Note_on_c, 0, 56, 50
2, 20027, Note_on_c, 0, 61, 0
2, 20034, Note_on_c, 0, 52, 0
2, 20035, Note_on_c, 0, 59, 0
2, 20035, Note_on_c, 0, 56, 0
2, 20055, Note_on_c, 0, 68, 0
2, 20081, Control_c, 0, 64, 0
2, 20088, Note_on_c, 0, 35, 90
2, 20089, Note_on_c, 0, 47, 86
2, 20103, Note_on_c, 0, 35, 0
2, 20106, Note_on_c, 0, 71, 0
2, 20112, Note_on_c, 0, 47, 0
2, 20112, Control_c, 0, 64, 127
2, 20157, Note_on_c, 0, 71, 88
2, 20166, Note_on_c, 0, 66, 30
2, 20166, Note_on_c, 0, 59, 58
2, 20167, Note_on_c, 0, 69, 72
2, 20175, Note_on_c, 0, 63, 51
2, 20178, Note_on_c, 0, 59, 0
2, 20180, Note_on_c, 0, 69, 0
2, 20181, Note_on_c, 0, 66, 0
2, 20188, Note_on_c, 0, 63, 0
2, 20200, Note_on_c, 0, 71, 0
2, 20222, Note_on_c, 0, 73, 100
2, 20223, Note_on_c, 0, 71, 73
2, 20227, Note_on_c, 0, 69, 74
2, 20229, Note_on_c, 0, 63, 63
2, 20231, Note_on_c, 0, 59, 48
2, 20231, Note_on_c, 0, 66, 29
2, 20235, Note_on_c, 0, 71, 0
2, 20242, Note_on_c, 0, 69, 0
2, 20243, Note_on_c, 0, 59, 0
2, 20246, Note_on_c, 0, 66, 0
2, 20249, Note_on_c, 0, 63, 0
2, 20269, Note_on_c, 0, 73, 0
2, 20280, Note_on_c, 0, 75, 100
2, 20286, Note_on_c, 0, 69, 68
2, 20288, Note_on_c, 0, 71, 73
2, 20289, Note_on_c, 0, 59, 55
2, 20289, Note_on_c, 0, 63, 76
2, 20291, Note_on_c, 0, 66, 26
2, 20299, Note_on_c, 0, 69, 0
2, 20300, Note_on_c, 0, 71, 0
2, 20302, Note_on_c, 0, 59, 0
2, 20305, Note_on_c, 0, 63, 0
2, 20307, Note_on_c, 0, 66, 0
2, 20338, Note_on_c, 0, 76, 113
2, 20342, Note_on_c, 0, 69, 84
2, 20343, Note_on_c, 0, 59, 72
2, 20344, Note_on_c, 0, 75, 0
2, 20346, Note_on_c, 0, 61, 78
2, 20346, Note_on_c, 0, 66, 55
2, 20347, Note_on_c, 0, 71, 37
2, 20352, Note_on_c, 0, 69, 0
2, 20354, Note_on_c, 0, 59, 0
2, 20359, Note_on_c, 0, 61, 0
2, 20360, Note_on_c, 0, 66, 0
2, 20360, Note_on_c, 0, 71, 0
2, 20376, Note_on_c, 0, 76, 0
2, 20400, Note_on_c, 0, 78, 109
2, 20401, Note_on_c, 0, 69, 63
2, 20402, Note_on_c, 0, 63, 67
2, 20402, Note_on_c, 0, 66, 59
2, 20403, Note_on_c, 0, 71, 19
2, 20404, Note_on_c, 0, 59, 44
2, 20412, Note_on_c, 0, 63, 0
2, 20413, Note_on_c, 0, 69, 0
2, 20414, Note_on_c, 0, 59, 0
2, 20415, Note_on_c, 0, 66, 0
2, 20419, Note_on_c, 0, 71, 0
2, 20455, Note_on_c, 0, 78, 0
2, 20465, Control_c, 0, 64, 0
2, 20470, Note_on_c, 0, 80, 105
2, 20472, Note_on_c, 0, 40, 91
2, 20473, Note_on_c, 0, 52, 83
2, 20491, Note_on_c, 0, 40, 0
2, 20499, Note_on_c, 0, 52, 0
2, 20508, Control_c, 0, 64, 127
2, 20545, Note_on_c, 0, 59, 67
2, 20547, Note_on_c, 0, 68, 69
2, 20548, Note_on_c, 0, 71, 52
2, 20550, Note_on_c, 0, 76, 85
2, 20551, Note_on_c, 0, 64, 45
2, 20563, Note_on_c, 0, 71, 0
2, 20564, Note_on_c, 0, 59, 0
2, 20568, Note_on_c, 0, 68, 0
2, 20574, Note_on_c, 0, 64, 0
2, 20583, Note_on_c, 0, 76, 0
2, 20610, Note_on_c, 0, 76, 63
2, 20613, Note_on_c, 0, 64, 73
2, 20613, Note_on_c, 0, 68, 67
2, 20613, Note_on_c, 0, 71, 52
2, 20615, Note_on_c, 0, 59, 35
2, 20628, Note_on_c, 0, 71, 0
2, 20630, Note_on_c, 0, 68, 0
2, 20633, Note_on_c, 0, 59, 0
2, 20634, Note_on_c, 0, 64, 0
2, 20644, Note_on_c, 0, 76, 0
2, 20675, Note_on_c, 0, 68, 75
2, 20676, Note_on_c, 0, 71, 60
2, 20676, Note_on_c, 0, 76, 57
2, 20679, Note_on_c, 0, 64, 63
2, 20680, Note_on_c, 0, 59, 50
2, 20685, Note_on_c, 0, 71, 0
2, 20688, Note_on_c, 0, 64, 0
2, 20693, Note_on_c, 0, 76, 0
2, 20693, Note_on_c, 0, 59, 0
2, 20695, Note_on_c, 0, 68, 0
2, 20740, Note_on_c, 0, 39, 86
2, 20741, Note_on_c, 0, 51, 86
2, 20746, Note_on_c, 0, 68, 65
2, 20748, Note_on_c, 0, 71, 49
2, 20751, Note_on_c, 0, 76, 62
2, 20758, Note_on_c, 0, 68, 0
2, 20760, Note_on_c, 0, 71, 0
2, 20765, Note_on_c, 0, 51, 0
2, 20766, Note_on_c, 0, 76, 0
2, 20774, Note_on_c, 0, 39, 0
2, 20797, Note_on_c, 0, 50, 97
2, 20797, Note_on_c, 0, 38, 98
2, 20802, Note_on_c, 0, 68, 49
2, 20808, Note_on_c, 0, 71, 52
2, 20809, Note_on_c, 0, 76, 60
2, 20817, Note_on_c, 0, 68, 0
2, 20821, Note_on_c, 0, 71, 0
2, 20822, Note_on_c, 0, 50, 0
2, 20824, Note_on_c, 0, 38, 0
2, 20832, Note_on_c, 0, 76, 0
2, 20850, Control_c, 0, 64, 0
2, 20855, Note_on_c, 0, 49, 110
2, 20857, Note_on_c, 0, 37, 101
2, 20886, Note_on_c, 0, 49, 0
2, 20887, Note_on_c, 0, 37, 0
2, 20887, Note_on_c, 0, 80, 0
2, 20892, Control_c, 0, 64, 127
2, 20931, Note_on_c, 0, 53, 69
2, 20932, Note_on_c, 0, 61, 100
2, 20934, Note_on_c, 0, 65, 82
2, 20941, Note_on_c, 0, 59, 61
2, 20952, Note_on_c, 0, 53, 0
2, 20953, Note_on_c, 0, 59, 0
2, 20955, Note_on_c, 0, 61, 0
2, 20956, Note_on_c, 0, 65, 0
2, 20980, Note_on_c, 0, 61, 82
2, 20982, Note_on_c, 0, 73, 99
2, 20986, Note_on_c, 0, 68, 68
2, 20987, Note_on_c, 0, 65, 75
2, 20988, Note_on_c, 0, 59, 34
2, 20991, Note_on_c, 0, 53, 59
2, 20997, Note_on_c, 0, 68, 0
2, 21002, Note_on_c, 0, 59, 0
2, 21003, Note_on_c, 0, 61, 0
2, 21003, Note_on_c, 0, 73, 0
2, 21004, Note_on_c, 0, 65, 0
2, 21008, Note_on_c, 0, 53, 0
2, 21025, Note_on_c, 0, 73, 70
2, 21043, Note_on_c, 0, 75, 83
2, 21054, Note_on_c, 0, 73, 0
2, 21071, Note_on_c, 0, 73, 90
2, 21071, Note_on_c, 0, 65, 79
2, 21076, Note_on_c, 0, 53, 47
2, 21078, Note_on_c, 0, 59, 51
2, 21079, Note_on_c, 0, 61, 83
2, 21089, Note_on_c, 0, 75, 0
2, 21092, Note_on_c, 0, 65, 0
2, 21093, Note_on_c, 0, 59, 0
2, 21094, Note_on_c, 0, 53, 0
2, 21104, Note_on_c, 0, 61, 0
2, 21131, Note_on_c, 0, 73, 0
2, 21143, Note_on_c, 0, 72, 111
2, 21147, Note_on_c, 0, 65, 69
2, 21148, Note_on_c, 0, 53, 57
2, 21151, Note_on_c, 0, 60, 43
2, 21152, Note_on_c, 0, 68, 48
2, 21154, Note_on_c, 0, 59, 41
2, 21162, Note_on_c, 0, 65, 0
2, 21166, Note_on_c, 0, 59, 0
2, 21167, Note_on_c, 0, 68, 0
2, 21167, Note_on_c, 0, 53, 0
2, 21168, Note_on_c, 0, 60, 0
2, 21170, Note_on_c, 0, 72, 0
2, 21199, Note_on_c, 0, 73, 109
2, 21201, Note_on_c, 0, 61, 91
2, 21207, Note_on_c, 0, 53, 64
2, 21208, Note_on_c, 0, 59, 45
2, 21214, Note_on_c, 0, 61, 0
2, 21214, Note_on_c, 0, 68, 32
2, 21218, Note_on_c, 0, 59, 0
2, 21219, Note_on_c, 0, 53, 0
2, 21229, Note_on_c, 0, 68, 0
2, 21236, Note_on_c, 0, 73, 0
2, 21253, Control_c, 0, 64, 0
2, 21258, Note_on_c, 0, 75, 106
2, 21259, Note_on_c, 0, 42, 96
2, 21291, Note_on_c, 0, 42, 0
2, 21291, Control_c, 0, 64, 127
2, 21301, Note_on_c, 0, 75, 0
2, 21323, Note_on_c, 0, 70, 85
2, 21325, Note_on_c, 0, 54, 78
2, 21326, Note_on_c, 0, 61, 62
2, 21328, Note_on_c, 0, 66, 89
2, 21334, Note_on_c, 0, 58, 64
2, 21339, Note_on_c, 0, 61, 0
2, 21343, Note_on_c, 0, 66, 0
2, 21348, Note_on_c, 0, 58, 0
2, 21350, Note_on_c, 0, 70, 0
2, 21356, Note_on_c, 0, 54, 0
2, 21384, Note_on_c, 0, 61, 55
2, 21384, Note_on_c, 0, 70, 85
2, 21385, Note_on_c, 0, 66, 103
2, 21387, Note_on_c, 0, 54, 67
2, 21390, Note_on_c, 0, 58, 65
2, 21399, Note_on_c, 0, 61, 0
2, 21405, Note_on_c, 0, 58, 0
2, 21406, Note_on_c, 0, 70, 0
2, 21415, Note_on_c, 0, 54, 0
2, 21420, Note_on_c, 0, 66, 0
2, 21447, Note_on_c, 0, 73, 88
2, 21453, Note_on_c, 0, 61, 42
2, 21454, Note_on_c, 0, 66, 105
2, 21457, Note_on_c, 0, 54, 67
2, 21465, Note_on_c, 0, 58, 73
2, 21467, Note_on_c, 0, 61, 0
2, 21480, Note_on_c, 0, 58, 0
2, 21490, Note_on_c, 0, 54, 0
2, 21496, Note_on_c, 0, 66, 0
2, 21520, Note_on_c, 0, 61, 88
2, 21521, Note_on_c, 0, 65, 102
2, 21521, Note_on_c, 0, 54, 75
2, 21522, Note_on_c, 0, 70, 79
2, 21526, Note_on_c, 0, 58, 69
2, 21532, Note_on_c, 0, 61, 0
2, 21537, Note_on_c, 0, 70, 0
2, 21545, Note_on_c, 0, 65, 0
2, 21551, Note_on_c, 0, 58, 0
2, 21551, Note_on_c, 0, 54, 0
2, 21580, Note_on_c, 0, 61, 100
2, 21581, Note_on_c, 0, 63, 89
2, 21586, Note_on_c, 0, 70, 82
2, 21587, Note_on_c, 0, 54, 59
2, 21587, Note_on_c, 0, 58, 64
2, 21594, Note_on_c, 0, 63, 0
2, 21599, Note_on_c, 0, 58, 0
2, 21603, Note_on_c, 0, 54, 0
2, 21604, Note_on_c, 0, 61, 0
2, 21617, Note_on_c, 0, 70, 0
2, 21637, Control_c, 0, 64, 0
2, 21641, Note_on_c, 0, 49, 103
2, 21642, Note_on_c, 0, 37, 107
2, 21654, Note_on_c, 0, 37, 0
2, 21662, Note_on_c, 0, 49, 0
2, 21672, Control_c, 0, 64, 127
2, 21681, Note_on_c, 0, 73, 0
2, 21698, Note_on_c, 0, 73, 97
2, 21703, Note_on_c, 0, 71, 70
2, 21704, Note_on_c, 0, 56, 90
2, 21705, Note_on_c, 0, 68, 102
2, 21708, Note_on_c, 0, 65, 60
2, 21712, Note_on_c, 0, 71, 0
2, 21714, Note_on_c, 0, 56, 0
2, 21720, Note_on_c, 0, 68, 0
2, 21722, Note_on_c, 0, 65, 0
2, 21723, Note_on_c, 0, 59, 20
2, 21737, Note_on_c, 0, 59, 0
2, 21747, Note_on_c, 0, 73, 0
2, 21757, Note_on_c, 0, 75, 106
2, 21759, Note_on_c, 0, 68, 95
2, 21759, Note_on_c, 0, 59, 54
2, 21760, Note_on_c, 0, 56, 81
2, 21763, Note_on_c, 0, 65, 77
2, 21768, Note_on_c, 0, 73, 57
2, 21768, Note_on_c, 0, 61, 71
2, 21772, Note_on_c, 0, 56, 0
2, 21777, Note_on_c, 0, 65, 0
2, 21780, Note_on_c, 0, 61, 0
2, 21781, Note_on_c, 0, 73, 0
2, 21783, Note_on_c, 0, 68, 0
2, 21789, Note_on_c, 0, 59, 0
2, 21805, Note_on_c, 0, 75, 0
2, 21816, Note_on_c, 0, 77, 114
2, 21819, Note_on_c, 0, 68, 92
2, 21821, Note_on_c, 0, 59, 41
2, 21822, Note_on_c, 0, 65, 90
2, 21822, Note_on_c, 0, 71, 64
2, 21823, Note_on_c, 0, 56, 74
2, 21827, Note_on_c, 0, 61, 62
2, 21831, Note_on_c, 0, 71, 0
2, 21834, Note_on_c, 0, 65, 0
2, 21838, Note_on_c, 0, 68, 0
2, 21852, Note_on_c, 0, 59, 0
2, 21853, Note_on_c, 0, 77, 0
2, 21854, Note_on_c, 0, 61, 0
2, 21856, Note_on_c, 0, 56, 0
2, 21874, Note_on_c, 0, 56, 78
2, 21874, Note_on_c, 0, 78, 107
2, 21876, Note_on_c, 0, 63, 95
2, 21877, Note_on_c, 0, 66, 96
2, 21877, Note_on_c, 0, 59, 36
2, 21879, Note_on_c, 0, 71, 58
2, 21880, Note_on_c, 0, 61, 44
2, 21899, Note_on_c, 0, 61, 0
2, 21899, Note_on_c, 0, 71, 0
2, 21900, Note_on_c, 0, 66, 0
2, 21901, Note_on_c, 0, 63, 0
2, 21902, Note_on_c, 0, 59, 0
2, 21904, Note_on_c, 0, 56, 0
2, 21910, Note_on_c, 0, 78, 0
2, 21928, Note_on_c, 0, 80, 112
2, 21930, Note_on_c, 0, 73, 82
2, 21931, Note_on_c, 0, 71, 86
2, 21931, Note_on_c, 0, 59, 49
2, 21933, Note_on_c, 0, 56, 72
2, 21933, Note_on_c, 0, 68, 91
2, 21933, Note_on_c, 0, 65, 103
2, 21934, Note_on_c, 0, 61, 72
2, 21940, Note_on_c, 0, 65, 0
2, 21946, Note_on_c, 0, 61, 0
2, 21948, Note_on_c, 0, 59, 0
2, 21955, Note_on_c, 0, 71, 0
2, 21957, Note_on_c, 0, 56, 0
2, 21957, Note_on_c, 0, 68, 0
2, 21964, Note_on_c, 0, 73, 0
2, 21973, Note_on_c, 0, 80, 0
2, 21987, Control_c, 0, 64, 0
2, 21991, Note_on_c, 0, 82, 119
2, 21992, Note_on_c, 0, 54, 92
2, 21993, Note_on_c, 0, 42, 98
2, 22023, Note_on_c, 0, 42, 0
2, 22024, Note_on_c, 0, 54, 0
2, 22029, Control_c, 0, 64, 127
2, 22050, Note_on_c, 0, 70, 103
2, 22050, Note_on_c, 0, 66, 103
2, 22051, Note_on_c, 0, 78, 96
2, 22053, Note_on_c, 0, 61, 87
2, 22059, Note_on_c, 0, 54, 28
2, 22068, Note_on_c, 0, 61, 0
2, 22071, Note_on_c, 0, 70, 0
2, 22077, Note_on_c, 0, 66, 0
2, 22077, Note_on_c, 0, 54, 0
2, 22085, Note_on_c, 0, 78, 0
2, 22104, Note_on_c, 0, 66, 92
2, 22105, Note_on_c, 0, 78, 83
2, 22107, Note_on_c, 0, 70, 102
2, 22108, Note_on_c, 0, 54, 80
2, 22110, Note_on_c, 0, 61, 84
2, 22123, Note_on_c, 0, 70, 0
2, 22128, Note_on_c, 0, 66, 0
2, 22130, Note_on_c, 0, 54, 0
2, 22131, Note_on_c, 0, 61, 0
2, 22139, Note_on_c, 0, 78, 0
2, 22168, Note_on_c, 0, 70, 98
2, 22168, Note_on_c, 0, 78, 79
2, 22171, Note_on_c, 0, 73, 76
2, 22172, Note_on_c, 0, 54, 100
2, 22174, Note_on_c, 0, 42, 100
2, 22190, Note_on_c, 0, 42, 0
2, 22195, Note_on_c, 0, 70, 0
2, 22196, Note_on_c, 0, 54, 0
2, 22201, Note_on_c, 0, 73, 0
2, 22207, Note_on_c, 0, 78, 0
2, 22231, Note_on_c, 0, 70, 98
2, 22232, Note_on_c, 0, 78, 76
2, 22234, Note_on_c, 0, 41, 100
2, 22234, Note_on_c, 0, 53, 110
2, 22236, Note_on_c, 0, 73, 75
2, 22248, Note_on_c, 0, 73, 0
2, 22253, Note_on_c, 0, 70, 0
2, 22253, Note_on_c, 0, 41, 0
2, 22255, Note_on_c, 0, 53, 0
2, 22268, Note_on_c, 0, 78, 0
2, 22289, Note_on_c, 0, 70, 99
2, 22289, Note_on_c, 0, 78, 79
2, 22290, Note_on_c, 0, 52, 112
2, 22290, Note_on_c, 0, 40, 102
2, 22291, Note_on_c, 0, 73, 78
2, 22304, Note_on_c, 0, 73, 0
2, 22317, Note_on_c, 0, 70, 0
2, 22321, Note_on_c, 0, 52, 0
2, 22323, Note_on_c, 0, 40, 0
2, 22324, Note_on_c, 0, 82, 0
2, 22332, Note_on_c, 0, 78, 0
2, 22363, Control_c, 0, 64, 0
2, 22366, Note_on_c, 0, 83, 111
2, 22370, Note_on_c, 0, 51, 110
2, 22371, Note_on_c, 0, 39, 110
2, 22410, Note_on_c, 0, 39, 0
2, 22412, Note_on_c, 0, 51, 0
2, 22417, Control_c, 0, 64, 127
2, 22445, Note_on_c, 0, 59, 80
2, 22448, Note_on_c, 0, 78, 81
2, 22450, Note_on_c, 0, 71, 46
2, 22450, Note_on_c, 0, 66, 80
2, 22452, Note_on_c, 0, 69, 78
2, 22468, Note_on_c, 0, 69, 0
2, 22470, Note_on_c, 0, 59, 0
2, 22473, Note_on_c, 0, 71, 0
2, 22475, Note_on_c, 0, 66, 0
2, 22476, Note_on_c, 0, 78, 0
2, 22503, Note_on_c, 0, 78, 88
2, 22504, Note_on_c, 0, 66, 84
2, 22506, Note_on_c, 0, 59, 57
2, 22507, Note_on_c, 0, 71, 46
2, 22508, Note_on_c, 0, 69, 86
2, 22510, Note_on_c, 0, 83, 0
2, 22525, Note_on_c, 0, 71, 0
2, 22526, Note_on_c, 0, 69, 0
2, 22530, Note_on_c, 0, 66, 0
2, 22537, Note_on_c, 0, 59, 0
2, 22537, Note_on_c, 0, 78, 0
2, 22552, Note_on_c, 0, 52, 98
2, 22555, Control_c, 0, 64, 0
2, 22558, Note_on_c, 0, 80, 111
2, 22588, Note_on_c, 0, 52, 0
2, 22597, Control_c, 0, 64, 127
2, 22615, Note_on_c, 0, 68, 85
2, 22617, Note_on_c, 0, 76, 87
2, 22620, Note_on_c, 0, 59, 63
2, 22621, Note_on_c, 0, 71, 81
2, 22628, Note_on_c, 0, 64, 51
2, 22633, Note_on_c, 0, 59, 0
2, 22636, Note_on_c, 0, 71, 0
2, 22639, Note_on_c, 0, 68, 0
2, 22643, Note_on_c, 0, 64, 0
2, 22647, Note_on_c, 0, 76, 0
2, 22670, Note_on_c, 0, 68, 88
2, 22670, Note_on_c, 0, 71, 69
2, 22670, Note_on_c, 0, 76, 75
2, 22671, Note_on_c, 0, 64, 68
2, 22678, Note_on_c, 0, 71, 0
2, 22678, Note_on_c, 0, 59, 58
2, 22685, Note_on_c, 0, 64, 0
2, 22686, Note_on_c, 0, 68, 0
2, 22689, Note_on_c, 0, 59, 0
2, 22701, Note_on_c, 0, 80, 0
2, 22702, Note_on_c, 0, 76, 0
2, 22720, Control_c, 0, 64, 0
2, 22728, Note_on_c, 0, 82, 115
2, 22737, Note_on_c, 0, 50, 69
2, 22759, Control_c, 0, 64, 127
2, 22761, Note_on_c, 0, 50, 0
2, 22782, Note_on_c, 0, 82, 0
2, 22793, Note_on_c, 0, 77, 89
2, 22797, Note_on_c, 0, 68, 84
2, 22798, Note_on_c, 0, 70, 85
2, 22798, Note_on_c, 0, 65, 11
2, 22800, Note_on_c, 0, 58, 70
2, 22809, Note_on_c, 0, 65, 0
2, 22809, Note_on_c, 0, 70, 0
2, 22813, Note_on_c, 0, 68, 0
2, 22815, Note_on_c, 0, 58, 0
2, 22824, Note_on_c, 0, 77, 0
2, 22845, Note_on_c, 0, 77, 85
2, 22847, Note_on_c, 0, 68, 75
2, 22849, Note_on_c, 0, 70, 60
2, 22851, Note_on_c, 0, 65, 40
2, 22857, Note_on_c, 0, 68, 0
2, 22857, Note_on_c, 0, 58, 63
2, 22865, Note_on_c, 0, 70, 0
2, 22866, Note_on_c, 0, 65, 0
2, 22870, Note_on_c, 0, 58, 0
2, 22872, Note_on_c, 0, 77, 0
2, 22893, Control_c, 0, 64, 0
2, 22898, Note_on_c, 0, 79, 97
2, 22902, Note_on_c, 0, 51, 81
2, 22932, Note_on_c, 0, 51, 0
2, 22932, Control_c, 0, 64, 127
2, 22953, Note_on_c, 0, 75, 64
2, 22955, Note_on_c, 0, 70, 72
2, 22960, Note_on_c, 0, 67, 44
2, 22961, Note_on_c, 0, 58, 50
2, 22963, Note_on_c, 0, 63, 48
2, 22971, Note_on_c, 0, 70, 0
2, 22975, Note_on_c, 0, 67, 0
2, 22975, Note_on_c, 0, 75, 0
2, 22977, Note_on_c, 0, 63, 0
2, 22979, Note_on_c, 0, 58, 0
2, 23017, Note_on_c, 0, 75, 61
2, 23018, Note_on_c, 0, 70, 71
2, 23019, Note_on_c, 0, 67, 64
2, 23022, Note_on_c, 0, 58, 54
2, 23023, Note_on_c, 0, 63, 43
2, 23031, Note_on_c, 0, 70, 0
2, 23037, Note_on_c, 0, 63, 0
2, 23039, Note_on_c, 0, 67, 0
2, 23043, Note_on_c, 0, 58, 0
2, 23050, Note_on_c, 0, 75, 0
2, 23051, Note_on_c, 0, 79, 0
2, 23089, Control_c, 0, 64, 0
2, 23092, Note_on_c, 0, 49, 56
2, 23096, Note_on_c, 0, 81, 78
2, 23128, Control_c, 0, 64, 127
2, 23132, Note_on_c, 0, 81, 0
2, 23134, Note_on_c, 0, 49, 0
2, 23201, Note_on_c, 0, 57, 33
2, 23202, Note_on_c, 0, 76, 49
2, 23203, Note_on_c, 0, 67, 33
2, 23204, Note_on_c, 0, 64, 35
2, 23205, Note_on_c, 0, 69, 36
2, 23218, Note_on_c, 0, 69, 0
2, 23225, Note_on_c, 0, 64, 0
2, 23226, Note_on_c, 0, 57, 0
2, 23228, Note_on_c, 0, 67, 0
2, 23231, Note_on_c, 0, 76, 0
2, 23287, Note_on_c, 0, 76, 25
2, 23287, Note_on_c, 0, 64, 35
2, 23288, Note_on_c, 0, 69, 35
2, 23289, Note_on_c, 0, 67, 17
2, 23289, Note_on_c, 0, 57, 36
2, 23301, Note_on_c, 0, 69, 0
2, 23302, Note_on_c, 0, 57, 0
2, 23306, Note_on_c, 0, 67, 0
2, 23308, Note_on_c, 0, 64, 0
2, 23318, Note_on_c, 0, 76, 0
2, 23362, Control_c, 0, 64, 0
2, 23365, Note_on_c, 0, 78, 49
2, 23371, Note_on_c, 0, 50, 34
2, 23402, Note_on_c, 0, 50, 0
2, 23404, Control_c, 0, 64, 127
2, 23452, Note_on_c, 0, 66, 47
2, 23457, Note_on_c, 0, 74, 47
2, 23463, Note_on_c, 0, 62, 35
2, 23464, Note_on_c, 0, 69, 35
2, 23468, Note_on_c, 0, 57, 25
2, 23477, Note_on_c, 0, 66, 0
2, 23484, Note_on_c, 0, 62, 0
2, 23484, Note_on_c, 0, 57, 0
2, 23485, Note_on_c, 0, 69, 0
2, 23493, Note_on_c, 0, 74, 0
2, 23531, Note_on_c, 0, 73, 61
2, 23533, Note_on_c, 0, 69, 51
2, 23536, Note_on_c, 0, 66, 35
2, 23536, Note_on_c, 0, 62, 32
2, 23537, Note_on_c, 0, 57, 25
2, 23550, Note_on_c, 0, 69, 0
2, 23552, Note_on_c, 0, 62, 0
2, 23555, Note_on_c, 0, 57, 0
2, 23557, Note_on_c, 0, 66, 0
2, 23562, Note_on_c, 0, 73, 0
2, 23600, Note_on_c, 0, 62, 32
2, 23601, Note_on_c, 0, 57, 25
2, 23602, Note_on_c, 0, 66, 66
2, 23605, Note_on_c, 0, 72, 63
2, 23614, Note_on_c, 0, 78, 0
2, 23615, Note_on_c, 0, 72, 0
2, 23616, Note_on_c, 0, 62, 0
2, 23619, Note_on_c, 0, 57, 0
2, 23623, Note_on_c, 0, 66, 0
2, 23669, Note_on_c, 0, 72, 88
2, 23671, Note_on_c, 0, 38, 66
2, 23671, Note_on_c, 0, 66, 58
2, 23672, Note_on_c, 0, 68, 13
2, 23673, Note_on_c, 0, 50, 66
2, 23683, Note_on_c, 0, 68, 0
2, 23683, Note_on_c, 0, 38, 0
2, 23685, Note_on_c, 0, 50, 0
2, 23685, Note_on_c, 0, 66, 0
2, 23718, Note_on_c, 0, 72, 0
2, 23734, Note_on_c, 0, 73, 83
2, 23734, Note_on_c, 0, 66, 66
2, 23734, Note_on_c, 0, 49, 80
2, 23736, Note_on_c, 0, 37, 83
2, 23736, Note_on_c, 0, 69, 75
2, 23750, Note_on_c, 0, 69, 0
2, 23753, Note_on_c, 0, 66, 0
2, 23776, Note_on_c, 0, 37, 0
2, 23776, Note_on_c, 0, 49, 0
2, 23794, Note_on_c, 0, 48, 92
2, 23794, Note_on_c, 0, 36, 82
2, 23796, Note_on_c, 0, 73, 0
2, 23796, Note_on_c, 0, 66, 75
2, 23796, Note_on_c, 0, 74, 95
2, 23797, Note_on_c, 0, 69, 69
2, 23812, Note_on_c, 0, 69, 0
2, 23819, Note_on_c, 0, 66, 0
2, 23823, Note_on_c, 0, 36, 0
2, 23824, Note_on_c, 0, 48, 0
2, 23829, Note_on_c, 0, 74, 0
2, 23854, Note_on_c, 0, 74, 89
2, 23857, Note_on_c, 0, 48, 97
2, 23857, Note_on_c, 0, 66, 76
2, 23857, Note_on_c, 0, 36, 100
2, 23857, Note_on_c, 0, 69, 79
2, 23876, Note_on_c, 0, 69, 0
2, 23880, Note_on_c, 0, 48, 0
2, 23884, Note_on_c, 0, 66, 0
2, 23887, Note_on_c, 0, 74, 0
2, 23887, Note_on_c, 0, 36, 0
2, 23923, Note_on_c, 0, 47, 96
2, 23924, Note_on_c, 0, 35, 89
2, 23924, Note_on_c, 0, 75, 100
2, 23926, Note_on_c, 0, 66, 80
2, 23929, Note_on_c, 0, 69, 68
2, 23949, Note_on_c, 0, 69, 0
2, 23954, Note_on_c, 0, 66, 0
2, 23966, Note_on_c, 0, 75, 0
2, 23977, Note_on_c, 0, 47, 0
2, 23981, Note_on_c, 0, 35, 0
2, 23990, Note_on_c, 0, 75, 24
2, 24006, Note_on_c, 0, 75, 0
2, 24012, Control_c, 0, 64, 0
2, 24019, Note_on_c, 0, 46, 124
2, 24020, Note_on_c, 0, 34, 112
2, 24022, Note_on_c, 0, 79, 108
2, 24070, Note_on_c, 0, 34, 0
2, 24076, Note_on_c, 0, 46, 0
2, 24084, Control_c, 0, 64, 127
2, 24124, Note_on_c, 0, 75, 79
2, 24125, Note_on_c, 0, 67, 60
2, 24127, Note_on_c, 0, 70, 97
2, 24128, Note_on_c, 0, 63, 49
2, 24128, Note_on_c, 0, 58, 86
2, 24143, Note_on_c, 0, 58, 0
2, 24143, Note_on_c, 0, 70, 0
2, 24146, Note_on_c, 0, 67, 0
2, 24157, Note_on_c, 0, 63, 0
2, 24165, Note_on_c, 0, 75, 0
2, 24200, Note_on_c, 0, 70, 85
2, 24201, Note_on_c, 0, 75, 94
2, 24203, Note_on_c, 0, 67, 75
2, 24203, Note_on_c, 0, 58, 68
2, 24204, Note_on_c, 0, 63, 64
2, 24220, Note_on_c, 0, 58, 0
2, 24224, Note_on_c, 0, 70, 0
2, 24229, Note_on_c, 0, 67, 0
2, 24235, Note_on_c, 0, 63, 0
2, 24245, Note_on_c, 0, 75, 0
2, 24263, Note_on_c, 0, 70, 91
2, 24264, Note_on_c, 0, 73, 102
2, 24264, Note_on_c, 0, 58, 79
2, 24267, Note_on_c, 0, 67, 84
2, 24268, Note_on_c, 0, 64, 75
2, 24284, Control_c, 0, 64, 0
2, 24311, Note_on_c, 0, 70, 0
2, 24313, Note_on_c, 0, 67, 0
2, 24313, Note_on_c, 0, 58, 0
2, 24314, Note_on_c, 0, 79, 0
2, 24315, Control_c, 0, 64, 127
2, 24318, Note_on_c, 0, 64, 0
2, 24325, Note_on_c, 0, 73, 0
2, 24339, Note_on_c, 0, 80, 106
2, 24340, Note_on_c, 0, 70, 88
2, 24341, Note_on_c, 0, 64, 64
2, 24342, Note_on_c, 0, 58, 66
2, 24342, Note_on_c, 0, 73, 75
2, 24363, Note_on_c, 0, 73, 0
2, 24367, Note_on_c, 0, 70, 0
2, 24372, Note_on_c, 0, 58, 0
2, 24378, Note_on_c, 0, 64, 0
2, 24390, Note_on_c, 0, 80, 0
2, 24417, Note_on_c, 0, 76, 112
2, 24419, Note_on_c, 0, 70, 81
2, 24421, Note_on_c, 0, 73, 67
2, 24424, Note_on_c, 0, 58, 70
2, 24424, Note_on_c, 0, 67, 45
2, 24425, Note_on_c, 0, 64, 65
2, 24430, Note_on_c, 0, 70, 0
2, 24434, Note_on_c, 0, 64, 0
2, 24436, Note_on_c, 0, 73, 0
2, 24439, Note_on_c, 0, 67, 0
2, 24446, Note_on_c, 0, 58, 0
2, 24468, Note_on_c, 0, 76, 0
2, 24476, Control_c, 0, 64, 0
2, 24480, Note_on_c, 0, 79, 101
2, 24484, Note_on_c, 0, 46, 93
2, 24511, Control_c, 0, 64, 127
2, 24514, Note_on_c, 0, 79, 0
2, 24521, Note_on_c, 0, 46, 0
2, 24523, Note_on_c, 0, 77, 85
2, 24535, Note_on_c, 0, 77, 0
2, 24539, Note_on_c, 0, 79, 58
2, 24557, Note_on_c, 0, 77, 97
2, 24562, Note_on_c, 0, 68, 54
2, 24564, Note_on_c, 0, 70, 79
2, 24569, Note_on_c, 0, 58, 53
2, 24570, Note_on_c, 0, 74, 36
2, 24575, Note_on_c, 0, 65, 36
2, 24578, Note_on_c, 0, 79, 0
2, 24581, Note_on_c, 0, 70, 0
2, 24584, Note_on_c, 0, 68, 0
2, 24585, Note_on_c, 0, 74, 0
2, 24587, Note_on_c, 0, 58, 0
2, 24591, Note_on_c, 0, 65, 0
2, 24625, Note_on_c, 0, 76, 102
2, 24628, Note_on_c, 0, 68, 68
2, 24628, Note_on_c, 0, 70, 62
2, 24628, Note_on_c, 0, 58, 53
2, 24632, Note_on_c, 0, 77, 0
2, 24635, Note_on_c, 0, 74, 44
2, 24637, Note_on_c, 0, 65, 56
2, 24646, Note_on_c, 0, 70, 0
2, 24648, Note_on_c, 0, 74, 0
2, 24648, Note_on_c, 0, 58, 0
2, 24649, Note_on_c, 0, 65, 0
2, 24650, Note_on_c, 0, 68, 0
2, 24690, Note_on_c, 0, 77, 100
2, 24692, Note_on_c, 0, 58, 74
2, 24693, Note_on_c, 0, 70, 70
2, 24693, Note_on_c, 0, 68, 60
2, 24693, Note_on_c, 0, 74, 56
2, 24700, Note_on_c, 0, 65, 41
2, 24704, Note_on_c, 0, 74, 0
2, 24706, Note_on_c, 0, 68, 0
2, 24708, Note_on_c, 0, 76, 0
2, 24711, Note_on_c, 0, 70, 0
2, 24714, Note_on_c, 0, 65, 0
2, 24716, Note_on_c, 0, 58, 0
2, 24752, Note_on_c, 0, 79, 95
2, 24754, Note_on_c, 0, 68, 69
2, 24755, Note_on_c, 0, 58, 66
2, 24755, Note_on_c, 0, 70, 65
2, 24761, Note_on_c, 0, 74, 59
2, 24764, Note_on_c, 0, 65, 34
2, 24765, Note_on_c, 0, 77, 0
2, 24771, Note_on_c, 0, 70, 0
2, 24771, Note_on_c, 0, 68, 0
2, 24771, Note_on_c, 0, 74, 0
2, 24773, Note_on_c, 0, 58, 0
2, 24780, Note_on_c, 0, 65, 0
2, 24795, Note_on_c, 0, 79, 0
2, 24817, Note_on_c, 0, 70, 62
2, 24822, Note_on_c, 0, 58, 65
2, 24830, Note_on_c, 0, 65, 48
2, 24833, Note_on_c, 0, 70, 0
2, 24834, Note_on_c, 0, 74, 94
2, 24835, Note_on_c, 0, 68, 56
2, 24843, Note_on_c, 0, 65, 0
2, 24856, Note_on_c, 0, 68, 0
2, 24861, Note_on_c, 0, 58, 0
2, 24890, Note_on_c, 0, 68, 10
2, 24892, Note_on_c, 0, 74, 0
2, 24930, Note_on_c, 0, 68, 0
2, 24932, Note_on_c, 0, 39, 64
2, 24943, Note_on_c, 0, 75, 82
2, 24945, Control_c, 0, 64, 0
2, 24986, Note_on_c, 0, 39, 0
2, 24987, Control_c, 0, 64, 127
2, 25042, Note_on_c, 0, 63, 33
2, 25046, Note_on_c, 0, 70, 51
2, 25048, Note_on_c, 0, 67, 32
2, 25050, Note_on_c, 0, 58, 54
2, 25052, Note_on_c, 0, 55, 17
2, 25066, Note_on_c, 0, 67, 0
2, 25067, Note_on_c, 0, 58, 0
2, 25070, Note_on_c, 0, 70, 0
2, 25071, Note_on_c, 0, 63, 0
2, 25071, Note_on_c, 0, 55, 0
2, 25112, Note_on_c, 0, 70, 59
2, 25115, Note_on_c, 0, 63, 42
2, 25115, Note_on_c, 0, 58, 48
2, 25118, Note_on_c, 0, 67, 32
2, 25119, Note_on_c, 0, 55, 13
2, 25130, Note_on_c, 0, 63, 0
2, 25132, Note_on_c, 0, 70, 0
2, 25133, Note_on_c, 0, 58, 0
2, 25136, Note_on_c, 0, 67, 0
2, 25139, Note_on_c, 0, 55, 0
2, 25172, Note_on_c, 0, 55, 33
2, 25173, Note_on_c, 0, 67, 36
2, 25174, Note_on_c, 0, 70, 59
2, 25174, Note_on_c, 0, 63, 44
2, 25175, Note_on_c, 0, 58, 61
2, 25191, Note_on_c, 0, 58, 0
2, 25191, Note_on_c, 0, 63, 0
2, 25195, Note_on_c, 0, 70, 0
2, 25197, Note_on_c, 0, 55, 0
2, 25198, Note_on_c, 0, 67, 0
2, 25237, Note_on_c, 0, 63, 37
2, 25237, Note_on_c, 0, 70, 58
2, 25238, Note_on_c, 0, 67, 42
2, 25244, Note_on_c, 0, 55, 26
2, 25246, Note_on_c, 0, 58, 51
2, 25254, Note_on_c, 0, 63, 0
2, 25255, Note_on_c, 0, 70, 0
2, 25256, Note_on_c, 0, 67, 0
2, 25261, Note_on_c, 0, 58, 0
2, 25262, Note_on_c, 0, 55, 0
2, 25303, Note_on_c, 0, 70, 47
2, 25306, Note_on_c, 0, 67, 33
2, 25308, Note_on_c, 0, 63, 30
2, 25310, Note_on_c, 0, 58, 48
2, 25311, Note_on_c, 0, 55, 18
2, 25322, Note_on_c, 0, 67, 0
2, 25325, Note_on_c, 0, 58, 0
2, 25326, Note_on_c, 0, 63, 0
2, 25326, Note_on_c, 0, 70, 0
2, 25329, Note_on_c, 0, 55, 0
2, 25390, Note_on_c, 0, 51, 37
2, 25393, Note_on_c, 0, 71, 48
2, 25394, Note_on_c, 0, 63, 28
2, 25398, Control_c, 0, 64, 0
2, 25437, Note_on_c, 0, 75, 0
2, 25437, Control_c, 0, 64, 127
2, 25443, Note_on_c, 0, 51, 0
2, 25445, Note_on_c, 0, 63, 0
2, 25447, Note_on_c, 0, 71, 0
2, 25476, Note_on_c, 0, 75, 71
2, 25480, Note_on_c, 0, 63, 33
2, 25485, Note_on_c, 0, 71, 27
2, 25486, Note_on_c, 0, 68, 48
2, 25494, Note_on_c, 0, 59, 44
2, 25497, Note_on_c, 0, 56, 23
2, 25501, Note_on_c, 0, 71, 0
2, 25502, Note_on_c, 0, 68, 0
2, 25507, Note_on_c, 0, 59, 0
2, 25512, Note_on_c, 0, 63, 0
2, 25514, Note_on_c, 0, 56, 0
2, 25534, Note_on_c, 0, 75, 0
2, 25546, Note_on_c, 0, 74, 94
2, 25549, Note_on_c, 0, 62, 54
2, 25551, Note_on_c, 0, 68, 50
2, 25553, Note_on_c, 0, 56, 37
2, 25562, Note_on_c, 0, 59, 30
2, 25563, Note_on_c, 0, 71, 10
2, 25567, Note_on_c, 0, 62, 0
2, 25573, Note_on_c, 0, 68, 0
2, 25573, Note_on_c, 0, 71, 0
2, 25574, Note_on_c, 0, 56, 0
2, 25575, Note_on_c, 0, 59, 0
2, 25581, Note_on_c, 0, 74, 0
2, 25613, Note_on_c, 0, 77, 93
2, 25617, Note_on_c, 0, 68, 45
2, 25617, Note_on_c, 0, 56, 32
2, 25619, Note_on_c, 0, 71, 10
2, 25619, Note_on_c, 0, 65, 54
2, 25625, Note_on_c, 0, 59, 42
2, 25629, Note_on_c, 0, 71, 0
2, 25635, Note_on_c, 0, 68, 0
2, 25636, Note_on_c, 0, 65, 0
2, 25636, Note_on_c, 0, 56, 0
2, 25637, Note_on_c, 0, 59, 0
2, 25643, Note_on_c, 0, 77, 0
2, 25681, Note_on_c, 0, 75, 81
2, 25685, Note_on_c, 0, 56, 37
2, 25686, Note_on_c, 0, 71, 28
2, 25686, Note_on_c, 0, 68, 41
2, 25688, Note_on_c, 0, 59, 44
2, 25689, Note_on_c, 0, 63, 35
2, 25698, Note_on_c, 0, 71, 0
2, 25700, Note_on_c, 0, 59, 0
2, 25701, Note_on_c, 0, 56, 0
2, 25702, Note_on_c, 0, 68, 0
2, 25707, Note_on_c, 0, 63, 0
2, 25725, Note_on_c, 0, 75, 0
2, 25750, Note_on_c, 0, 71, 72
2, 25754, Note_on_c, 0, 68, 57
2, 25755, Note_on_c, 0, 63, 40
2, 25758, Note_on_c, 0, 59, 30
2, 25761, Note_on_c, 0, 56, 39
2, 25766, Note_on_c, 0, 68, 0
2, 25770, Note_on_c, 0, 63, 0
2, 25772, Note_on_c, 0, 59, 0
2, 25781, Note_on_c, 0, 56, 0
2, 25844, Note_on_c, 0, 39, 60
2, 25848, Control_c, 0, 64, 0
2, 25852, Note_on_c, 0, 75, 55
2, 25861, Note_on_c, 0, 71, 0
2, 25894, Control_c, 0, 64, 127
2, 25896, Note_on_c, 0, 39, 0
2, 25953, Note_on_c, 0, 70, 41
2, 25957, Note_on_c, 0, 63, 29
2, 25957, Note_on_c, 0, 55, 16
2, 25963, Note_on_c, 0, 58, 52
2, 25970, Note_on_c, 0, 67, 20
2, 25979, Note_on_c, 0, 63, 0
2, 25983, Note_on_c, 0, 67, 0
2, 25984, Note_on_c, 0, 58, 0
2, 25987, Note_on_c, 0, 70, 0
2, 25993, Note_on_c, 0, 55, 0
2, 26020, Note_on_c, 0, 70, 49
2, 26024, Note_on_c, 0, 63, 36
2, 26028, Note_on_c, 0, 67, 51
2, 26029, Note_on_c, 0, 55, 10
2, 26029, Note_on_c, 0, 58, 52
2, 26042, Note_on_c, 0, 63, 0
2, 26044, Note_on_c, 0, 67, 0
2, 26044, Note_on_c, 0, 70, 0
2, 26047, Note_on_c, 0, 58, 0
2, 26049, Note_on_c, 0, 55, 0
2, 26084, Note_on_c, 0, 70, 57
2, 26086, Note_on_c, 0, 67, 44
2, 26086, Note_on_c, 0, 63, 38
2, 26091, Note_on_c, 0, 58, 59
2, 26091, Note_on_c, 0, 55, 23
2, 26101, Note_on_c, 0, 63, 0
2, 26102, Note_on_c, 0, 70, 0
2, 26106, Note_on_c, 0, 58, 0
2, 26106, Note_on_c, 0, 67, 0
2, 26109, Note_on_c, 0, 55, 0
2, 26144, Note_on_c, 0, 70, 54
2, 26149, Note_on_c, 0, 55, 33
2, 26150, Note_on_c, 0, 63, 24
2, 26151, Note_on_c, 0, 67, 34
2, 26153, Note_on_c, 0, 58, 47
2, 26163, Note_on_c, 0, 70, 0
2, 26167, Note_on_c, 0, 63, 0
2, 26167, Note_on_c, 0, 55, 0
2, 26169, Note_on_c, 0, 58, 0
2, 26169, Note_on_c, 0, 67, 0
2, 26208, Note_on_c, 0, 70, 47
2, 26213, Note_on_c, 0, 67, 24
2, 26214, Note_on_c, 0, 55, 44
2, 26216, Note_on_c, 0, 63, 24
2, 26217, Note_on_c, 0, 58, 50
2, 26227, Note_on_c, 0, 70, 0
2, 26230, Note_on_c, 0, 55, 0
2, 26231, Note_on_c, 0, 67, 0
2, 26234, Note_on_c, 0, 63, 0
2, 26235, Note_on_c, 0, 58, 0
2, 26278, Control_c, 0, 64, 0
2, 26284, Note_on_c, 0, 51, 58
2, 26286, Note_on_c, 0, 71, 41
2, 26286, Note_on_c, 0, 63, 24
2, 26310, Note_on_c, 0, 63, 0
2, 26313, Control_c, 0, 64, 127
2, 26315, Note_on_c, 0, 51, 0
2, 26318, Note_on_c, 0, 75, 0
2, 26320, Note_on_c, 0, 71, 0
2, 26353, Note_on_c, 0, 63, 55
2, 26354, Note_on_c, 0, 75, 63
2, 26356, Note_on_c, 0, 71, 27
2, 26358, Note_on_c, 0, 56, 47
2, 26366, Note_on_c, 0, 68, 38
2, 26370, Note_on_c, 0, 59, 36
2, 26371, Note_on_c, 0, 71, 0
2, 26376, Note_on_c, 0, 63, 0
2, 26382, Note_on_c, 0, 56, 0
2, 26382, Note_on_c, 0, 68, 0
2, 26382, Note_on_c, 0, 59, 0
2, 26397, Note_on_c, 0, 75, 0
2, 26422, Note_on_c, 0, 74, 80
2, 26425, Note_on_c, 0, 62, 54
2, 26428, Note_on_c, 0, 68, 22
2, 26431, Note_on_c, 0, 56, 13
2, 26437, Note_on_c, 0, 59, 35
2, 26439, Note_on_c, 0, 62, 0
2, 26446, Note_on_c, 0, 68, 0
2, 26449, Note_on_c, 0, 59, 0
2, 26449, Note_on_c, 0, 56, 0
2, 26451, Note_on_c, 0, 74, 0
2, 26501, Note_on_c, 0, 56, 34
2, 26507, Note_on_c, 0, 59, 28
2, 26512, Note_on_c, 0, 77, 61
2, 26516, Note_on_c, 0, 68, 31
2, 26520, Note_on_c, 0, 65, 30
2, 26534, Note_on_c, 0, 59, 0
2, 26535, Note_on_c, 0, 68, 0
2, 26536, Note_on_c, 0, 77, 0
2, 26537, Note_on_c, 0, 56, 0
2, 26538, Note_on_c, 0, 65, 0
2, 26595, Note_on_c, 0, 68, 28
2, 26595, Note_on_c, 0, 75, 58
2, 26602, Note_on_c, 0, 63, 35
2, 26603, Note_on_c, 0, 56, 10
2, 26605, Note_on_c, 0, 59, 28
2, 26616, Note_on_c, 0, 75, 0
2, 26616, Note_on_c, 0, 68, 0
2, 26619, Note_on_c, 0, 56, 0
2, 26619, Note_on_c, 0, 63, 0
2, 26620, Note_on_c, 0, 59, 0
2, 26675, Note_on_c, 0, 59, 35
2, 26676, Note_on_c, 0, 68, 10
2, 26676, Note_on_c, 0, 56, 35
2, 26680, Note_on_c, 0, 71, 44
2, 26680, Note_on_c, 0, 63, 44
2, 26689, Note_on_c, 0, 68, 0
2, 26691, Note_on_c, 0, 59, 0
2, 26692, Note_on_c, 0, 56, 0
2, 26695, Note_on_c, 0, 63, 0
2, 26756, Note_on_c, 0, 71, 0
2, 26793, Note_on_c, 0, 39, 50
2, 26800, Control_c, 0, 64, 0
2, 26815, Note_on_c, 0, 75, 54
2, 26841, Note_on_c, 0, 39, 0
2, 26843, Control_c, 0, 64, 127
2, 26920, Note_on_c, 0, 63, 33
2, 26922, Note_on_c, 0, 70, 35
2, 26927, Note_on_c, 0, 67, 38
2, 26928, Note_on_c, 0, 58, 46
2, 26929, Note_on_c, 0, 55, 30
2, 26938, Note_on_c, 0, 63, 0
2, 26943, Note_on_c, 0, 67, 0
2, 26943, Note_on_c, 0, 70, 0
2, 26944, Note_on_c, 0, 58, 0
2, 26947, Note_on_c, 0, 55, 0
2, 26990, Note_on_c, 0, 63, 27
2, 26991, Note_on_c, 0, 70, 37
2, 26992, Note_on_c, 0, 67, 35
2, 26994, Note_on_c, 0, 58, 48
2, 26997, Note_on_c, 0, 55, 14
2, 27008, Note_on_c, 0, 63, 0
2, 27010, Note_on_c, 0, 58, 0
2, 27010, Note_on_c, 0, 67, 0
2, 27011, Note_on_c, 0, 70, 0
2, 27016, Note_on_c, 0, 55, 0
2, 27048, Note_on_c, 0, 55, 23
2, 27048, Note_on_c, 0, 70, 26
2, 27052, Note_on_c, 0, 63, 28
2, 27054, Note_on_c, 0, 67, 27
2, 27054, Note_on_c, 0, 58, 40
2, 27069, Note_on_c, 0, 63, 0
2, 27070, Note_on_c, 0, 70, 0
2, 27072, Note_on_c, 0, 67, 0
2, 27072, Note_on_c, 0, 58, 0
2, 27075, Note_on_c, 0, 55, 0
2, 27102, Note_on_c, 0, 63, 31
2, 27104, Note_on_c, 0, 70, 24
2, 27106, Note_on_c, 0, 55, 29
2, 27109, Note_on_c, 0, 58, 37
2, 27112, Note_on_c, 0, 67, 15
2, 27123, Note_on_c, 0, 63, 0
2, 27128, Note_on_c, 0, 58, 0
2, 27129, Note_on_c, 0, 70, 0
2, 27131, Note_on_c, 0, 55, 0
2, 27133, Note_on_c, 0, 67, 0
2, 27164, Note_on_c, 0, 67, 43
2, 27164, Note_on_c, 0, 70, 30
2, 27165, Note_on_c, 0, 63, 37
2, 27170, Note_on_c, 0, 55, 19
2, 27171, Note_on_c, 0, 58, 50
2, 27184, Note_on_c, 0, 63, 0
2, 27188, Note_on_c, 0, 70, 0
2, 27189, Note_on_c, 0, 58, 0
2, 27191, Note_on_c, 0, 55, 0
2, 27192, Note_on_c, 0, 67, 0
2, 27223, Note_on_c, 0, 55, 36
2, 27225, Note_on_c, 0, 67, 36
2, 27225, Note_on_c, 0, 70, 31
2, 27226, Note_on_c, 0, 63, 38
2, 27228, Note_on_c, 0, 58, 44
2, 27243, Note_on_c, 0, 63, 0
2, 27246, Note_on_c, 0, 58, 0
2, 27248, Note_on_c, 0, 70, 0
2, 27249, Note_on_c, 0, 67, 0
2, 27251, Note_on_c, 0, 55, 0
2, 27280, Note_on_c, 0, 55, 34
2, 27283, Note_on_c, 0, 70, 33
2, 27283, Note_on_c, 0, 63, 47
2, 27283, Note_on_c, 0, 67, 35
2, 27286, Note_on_c, 0, 58, 58
2, 27302, Note_on_c, 0, 63, 0
2, 27306, Note_on_c, 0, 58, 0
2, 27308, Note_on_c, 0, 70, 0
2, 27308, Note_on_c, 0, 67, 0
2, 27309, Note_on_c, 0, 55, 0
2, 27340, Note_on_c, 0, 55, 40
2, 27343, Note_on_c, 0, 63, 55
2, 27343, Note_on_c, 0, 70, 47
2, 27343, Note_on_c, 0, 67, 44
2, 27346, Note_on_c, 0, 58, 66
2, 27364, Note_on_c, 0, 63, 0
2, 27366, Note_on_c, 0, 58, 0
2, 27367, Note_on_c, 0, 55, 0
2, 27368, Note_on_c, 0, 67, 0
2, 27373, Note_on_c, 0, 70, 0
2, 27399, Note_on_c, 0, 70, 57
2, 27403, Note_on_c, 0, 67, 51
2, 27403, Note_on_c, 0, 63, 53
2, 27405, Note_on_c, 0, 58, 51
2, 27405, Note_on_c, 0, 55, 39
2, 27420, Note_on_c, 0, 63, 0
2, 27425, Note_on_c, 0, 55, 0
2, 27426, Note_on_c, 0, 67, 0
2, 27426, Note_on_c, 0, 58, 0
2, 27433, Note_on_c, 0, 70, 0
2, 27453, Note_on_c, 0, 70, 59
2, 27460, Note_on_c, 0, 67, 51
2, 27460, Note_on_c, 0, 55, 40
2, 27460, Note_on_c, 0, 63, 55
2, 27465, Note_on_c, 0, 58, 59
2, 27476, Note_on_c, 0, 63, 0
2, 27479, Note_on_c, 0, 58, 0
2, 27482, Note_on_c, 0, 55, 0
2, 27483, Note_on_c, 0, 67, 0
2, 27487, Note_on_c, 0, 70, 0
2, 27513, Note_on_c, 0, 70, 46
2, 27514, Note_on_c, 0, 67, 51
2, 27516, Note_on_c, 0, 55, 36
2, 27517, Note_on_c, 0, 63, 58
2, 27523, Note_on_c, 0, 58, 59
2, 27532, Note_on_c, 0, 63, 0
2, 27534, Note_on_c, 0, 67, 0
2, 27537, Note_on_c, 0, 58, 0
2, 27540, Note_on_c, 0, 55, 0
2, 27542, Note_on_c, 0, 70, 0
2, 27567, Note_on_c, 0, 55, 38
2, 27574, Note_on_c, 0, 70, 40
2, 27574, Note_on_c, 0, 63, 45
2, 27576, Note_on_c, 0, 67, 38
2, 27576, Note_on_c, 0, 58, 42
2, 27590, Note_on_c, 0, 63, 0
2, 27593, Note_on_c, 0, 58, 0
2, 27594, Note_on_c, 0, 67, 0
2, 27595, Note_on_c, 0, 70, 0
2, 27597, Note_on_c, 0, 55, 0
2, 27628, Note_on_c, 0, 55, 21
2, 27635, Note_on_c, 0, 67, 17
2, 27636, Note_on_c, 0, 58, 43
2, 27636, Note_on_c, 0, 70, 34
2, 27639, Note_on_c, 0, 63, 21
2, 27654, Note_on_c, 0, 63, 0
2, 27654, Note_on_c, 0, 67, 0
2, 27654, Note_on_c, 0, 58, 0
2, 27655, Note_on_c, 0, 55, 0
2, 27655, Note_on_c, 0, 70, 0
2, 27685, Note_on_c, 0, 55, 24
2, 27688, Note_on_c, 0, 63, 26
2, 27689, Note_on_c, 0, 70, 19
2, 27690, Note_on_c, 0, 67, 21
2, 27691, Note_on_c, 0, 58, 34
2, 27707, Note_on_c, 0, 63, 0
2, 27713, Note_on_c, 0, 67, 0
2, 27713, Note_on_c, 0, 58, 0
2, 27714, Note_on_c, 0, 70, 0
2, 27715, Note_on_c, 0, 55, 0
2, 27745, Note_on_c, 0, 70, 32
2, 27749, Note_on_c, 0, 55, 34
2, 27750, Note_on_c, 0, 58, 37
2, 27753, Note_on_c, 0, 63, 21
2, 27754, Note_on_c, 0, 67, 10
2, 27771, Note_on_c, 0, 63, 0
2, 27771, Note_on_c, 0, 58, 0
2, 27773, Note_on_c, 0, 55, 0
2, 27775, Note_on_c, 0, 70, 0
2, 27776, Note_on_c, 0, 67, 0
2, 27804, Note_on_c, 0, 70, 36
2, 27804, Note_on_c, 0, 63, 24
2, 27805, Note_on_c, 0, 55, 45
2, 27808, Note_on_c, 0, 58, 34
2, 27811, Note_on_c, 0, 67, 31
2, 27824, Note_on_c, 0, 63, 0
2, 27830, Note_on_c, 0, 70, 0
2, 27830, Note_on_c, 0, 55, 0
2, 27830, Note_on_c, 0, 58, 0
2, 27830, Note_on_c, 0, 67, 0
2, 27860, Note_on_c, 0, 67, 31
2, 27862, Note_on_c, 0, 63, 28
2, 27865, Note_on_c, 0, 70, 24
2, 27866, Note_on_c, 0, 55, 38
2, 27867, Note_on_c, 0, 58, 42
2, 27879, Note_on_c, 0, 67, 0
2, 27882, Note_on_c, 0, 63, 0
2, 27884, Note_on_c, 0, 55, 0
2, 27886, Note_on_c, 0, 70, 0
2, 27886, Note_on_c, 0, 58, 0
2, 27921, Note_on_c, 0, 55, 26
2, 27922, Note_on_c, 0, 58, 33
2, 27923, Note_on_c, 0, 63, 20
2, 27928, Note_on_c, 0, 70, 23
2, 27931, Note_on_c, 0, 67, 10
2, 27946, Note_on_c, 0, 63, 0
2, 27947, Note_on_c, 0, 67, 0
2, 27949, Note_on_c, 0, 58, 0
2, 27949, Note_on_c, 0, 55, 0
2, 27950, Note_on_c, 0, 70, 0
2, 27984, Note_on_c, 0, 63, 23
2, 27986, Note_on_c, 0, 55, 31
2, 27986, Note_on_c, 0, 70, 21
2, 27987, Note_on_c, 0, 58, 35
2, 27992, Note_on_c, 0, 67, 11
2, 28005, Note_on_c, 0, 63, 0
2, 28010, Note_on_c, 0, 70, 0
2, 28011, Note_on_c, 0, 55, 0
2, 28016, Note_on_c, 0, 67, 0
2, 28022, Note_on_c, 0, 58, 0
2, 28039, Note_on_c, 0, 70, 37
2, 28040, Note_on_c, 0, 58, 10
2, 28040, Note_on_c, 0, 67, 10
2, 28041, Note_on_c, 0, 55, 31
2, 28041, Note_on_c, 0, 63, 22
2, 28062, Note_on_c, 0, 63, 0
2, 28066, Note_on_c, 0, 55, 0
2, 28070, Note_on_c, 0, 70, 0
2, 28070, Note_on_c, 0, 67, 0
2, 28074, Note_on_c, 0, 58, 0
2, 28101, Note_on_c, 0, 70, 37
2, 28102, Note_on_c, 0, 63, 21
2, 28105, Note_on_c, 0, 58, 44
2, 28106, Note_on_c, 0, 55, 11
2, 28111, Note_on_c, 0, 67, 10
2, 28124, Note_on_c, 0, 63, 0
2, 28131, Note_on_c, 0, 70, 0
2, 28133, Note_on_c, 0, 55, 0
2, 28133, Note_on_c, 0, 67, 0
2, 28134, Note_on_c, 0, 58, 0
2, 28176, Note_on_c, 0, 55, 19
2, 28176, Note_on_c, 0, 70, 13
2, 28177, Note_on_c, 0, 58, 42
2, 28179, Note_on_c, 0, 67, 16
2, 28180, Note_on_c, 0, 63, 10
2, 28196, Note_on_c, 0, 63, 0
2, 28198, Note_on_c, 0, 58, 0
2, 28200, Note_on_c, 0, 70, 0
2, 28200, Note_on_c, 0, 67, 0
2, 28200, Note_on_c, 0, 55, 0
2, 28269, Note_on_c, 0, 70, 45
2, 28274, Note_on_c, 0, 63, 16
2, 28282, Note_on_c, 0, 55, 10
2, 28285, Note_on_c, 0, 58, 23
2, 28298, Note_on_c, 0, 55, 0
2, 28301, Note_on_c, 0, 58, 0
2, 28353, Note_on_c, 0, 75, 0
2, 28395, Control_c, 0, 64, 0
2, 28396, Note_on_c, 0, 32, 49
2, 28434, Control_c, 0, 64, 127
2, 28439, Note_on_c, 0, 32, 0
2, 28443, Note_on_c, 0, 63, 0
2, 28449, Note_on_c, 0, 70, 0
2, 28509, Note_on_c, 0, 70, 58
2, 28518, Note_on_c, 0, 63, 23
2, 28523, Note_on_c, 0, 51, 26
2, 28525, Note_on_c, 0, 44, 38
2, 28538, Note_on_c, 0, 63, 0
2, 28542, Note_on_c, 0, 51, 0
2, 28544, Note_on_c, 0, 44, 0
2, 28623, Note_on_c, 0, 51, 28
2, 28624, Note_on_c, 0, 72, 49
2, 28630, Note_on_c, 0, 44, 18
2, 28632, Note_on_c, 0, 70, 0
2, 28634, Note_on_c, 0, 63, 10
2, 28643, Note_on_c, 0, 51, 0
2, 28646, Note_on_c, 0, 44, 0
2, 28648, Note_on_c, 0, 63, 0
2, 28702, Note_on_c, 0, 44, 17
2, 28703, Note_on_c, 0, 72, 0
2, 28724, Note_on_c, 0, 73, 46
2, 28724, Note_on_c, 0, 58, 41
2, 28737, Note_on_c, 0, 61, 10
2, 28748, Note_on_c, 0, 58, 0
2, 28756, Note_on_c, 0, 61, 0
2, 28757, Note_on_c, 0, 44, 0
2, 28819, Note_on_c, 0, 58, 41
2, 28821, Note_on_c, 0, 51, 33
2, 28825, Note_on_c, 0, 65, 37
2, 28826, Note_on_c, 0, 61, 16
2, 28829, Note_on_c, 0, 73, 0
2, 28839, Note_on_c, 0, 51, 0
2, 28840, Note_on_c, 0, 58, 0
2, 28841, Note_on_c, 0, 61, 0
2, 28895, Note_on_c, 0, 61, 32
2, 28897, Note_on_c, 0, 58, 43
2, 28899, Note_on_c, 0, 65, 0
2, 28900, Note_on_c, 0, 51, 46
2, 28903, Note_on_c, 0, 67, 39
2, 28917, Note_on_c, 0, 51, 0
2, 28918, Note_on_c, 0, 58, 0
2, 28935, Note_on_c, 0, 61, 0
2, 28974, Note_on_c, 0, 70, 54
2, 28979, Control_c, 0, 64, 0
2, 28980, Note_on_c, 0, 51, 20
2, 28981, Note_on_c, 0, 60, 42
2, 28984, Note_on_c, 0, 63, 18
2, 28986, Note_on_c, 0, 67, 0
2, 28987, Note_on_c, 0, 56, 38
2, 29008, Note_on_c, 0, 63, 0
2, 29014, Note_on_c, 0, 60, 0
2, 29020, Note_on_c, 0, 51, 0
2, 29022, Note_on_c, 0, 56, 0
2, 29022, Control_c, 0, 64, 127
2, 29053, Note_on_c, 0, 60, 41
2, 29053, Note_on_c, 0, 63, 44
2, 29054, Note_on_c, 0, 56, 18
2, 29056, Note_on_c, 0, 51, 14
2, 29069, Note_on_c, 0, 60, 0
2, 29071, Note_on_c, 0, 63, 0
2, 29078, Note_on_c, 0, 51, 0
2, 29078, Note_on_c, 0, 56, 0
2, 29115, Note_on_c, 0, 63, 43
2, 29117, Note_on_c, 0, 60, 34
2, 29119, Note_on_c, 0, 51, 21
2, 29124, Note_on_c, 0, 56, 21
2, 29130, Note_on_c, 0, 63, 0
2, 29134, Note_on_c, 0, 60, 0
2, 29135, Note_on_c, 0, 51, 0
2, 29140, Note_on_c, 0, 56, 0
2, 29175, Note_on_c, 0, 68, 67
2, 29176, Note_on_c, 0, 56, 10
2, 29176, Note_on_c, 0, 63, 41
2, 29179, Note_on_c, 0, 51, 30
2, 29182, Note_on_c, 0, 60, 26
2, 29194, Note_on_c, 0, 63, 0
2, 29199, Note_on_c, 0, 51, 0
2, 29200, Note_on_c, 0, 70, 0
2, 29200, Note_on_c, 0, 60, 0
2, 29203, Note_on_c, 0, 56, 0
2, 29238, Note_on_c, 0, 63, 43
2, 29239, Note_on_c, 0, 60, 39
2, 29241, Note_on_c, 0, 51, 41
2, 29251, Note_on_c, 0, 56, 31
2, 29254, Note_on_c, 0, 63, 0
2, 29256, Note_on_c, 0, 60, 0
2, 29262, Note_on_c, 0, 51, 0
2, 29266, Note_on_c, 0, 56, 0
2, 29307, Note_on_c, 0, 63, 47
2, 29308, Note_on_c, 0, 56, 49
2, 29308, Note_on_c, 0, 60, 49
2, 29310, Note_on_c, 0, 51, 36
2, 29322, Note_on_c, 0, 63, 0
2, 29323, Note_on_c, 0, 60, 0
2, 29323, Note_on_c, 0, 56, 0
2, 29328, Note_on_c, 0, 51, 0
2, 29413, Note_on_c, 0, 32, 69
2, 29421, Control_c, 0, 64, 0
2, 29452, Note_on_c, 0, 68, 0
2, 29455, Control_c, 0, 64, 127
2, 29460, Note_on_c, 0, 32, 0
2, 29546, Note_on_c, 0, 73, 65
2, 29553, Note_on_c, 0, 68, 41
2, 29556, Note_on_c, 0, 53, 27
2, 29557, Note_on_c, 0, 56, 30
2, 29560, Note_on_c, 0, 65, 39
2, 29565, Note_on_c, 0, 61, 30
2, 29572, Note_on_c, 0, 68, 0
2, 29574, Note_on_c, 0, 53, 0
2, 29575, Note_on_c, 0, 56, 0
2, 29578, Note_on_c, 0, 65, 0
2, 29580, Note_on_c, 0, 61, 0
2, 29581, Note_on_c, 0, 73, 0
2, 29622, Note_on_c, 0, 79, 82
2, 29623, Note_on_c, 0, 68, 52
2, 29626, Note_on_c, 0, 65, 43
2, 29632, Note_on_c, 0, 73, 28
2, 29634, Note_on_c, 0, 53, 25
2, 29635, Note_on_c, 0, 79, 0
2, 29635, Note_on_c, 0, 61, 40
2, 29637, Note_on_c, 0, 68, 0
2, 29639, Note_on_c, 0, 56, 18
2, 29642, Note_on_c, 0, 65, 0
2, 29646, Note_on_c, 0, 73, 0
2, 29649, Note_on_c, 0, 61, 0
2, 29650, Note_on_c, 0, 53, 0
2, 29655, Note_on_c, 0, 56, 0
2, 29658, Note_on_c, 0, 68, 55
2, 29672, Note_on_c, 0, 68, 0
2, 29703, Note_on_c, 0, 82, 80
2, 29714, Note_on_c, 0, 53, 16
2, 29716, Note_on_c, 0, 56, 33
2, 29716, Note_on_c, 0, 61, 29
2, 29718, Note_on_c, 0, 65, 24
2, 29736, Note_on_c, 0, 56, 0
2, 29737, Note_on_c, 0, 61, 0
2, 29738, Note_on_c, 0, 53, 0
2, 29739, Note_on_c, 0, 65, 0
2, 29742, Note_on_c, 0, 82, 0
2, 29785, Note_on_c, 0, 80, 64
2, 29787, Note_on_c, 0, 65, 39
2, 29793, Note_on_c, 0, 61, 26
2, 29794, Note_on_c, 0, 53, 33
2, 29795, Note_on_c, 0, 68, 11
2, 29798, Note_on_c, 0, 56, 34
2, 29808, Note_on_c, 0, 68, 0
2, 29808, Note_on_c, 0, 65, 0
2, 29811, Note_on_c, 0, 61, 0
2, 29812, Note_on_c, 0, 53, 0
2, 29813, Note_on_c, 0, 56, 0
2, 29820, Note_on_c, 0, 80, 0
2, 29856, Note_on_c, 0, 77, 71
2, 29858, Note_on_c, 0, 65, 25
2, 29863, Note_on_c, 0, 68, 24
2, 29864, Note_on_c, 0, 53, 22
2, 29866, Note_on_c, 0, 56, 40
2, 29866, Note_on_c, 0, 61, 28
2, 29879, Note_on_c, 0, 68, 0
2, 29880, Note_on_c, 0, 53, 0
2, 29880, Note_on_c, 0, 65, 0
2, 29883, Note_on_c, 0, 56, 0
2, 29884, Note_on_c, 0, 61, 0
2, 29886, Note_on_c, 0, 77, 0
2, 29926, Note_on_c, 0, 75, 66
2, 29928, Control_c, 0, 64, 0
2, 29931, Note_on_c, 0, 63, 36
2, 29931, Note_on_c, 0, 55, 35
2, 29934, Note_on_c, 0, 58, 50
2, 29935, Note_on_c, 0, 70, 40
2, 29935, Note_on_c, 0, 67, 24
2, 29938, Note_on_c, 0, 61, 35
2, 29947, Note_on_c, 0, 63, 0
2, 29952, Note_on_c, 0, 58, 0
2, 29954, Note_on_c, 0, 70, 0
2, 29955, Note_on_c, 0, 61, 0
2, 29956, Note_on_c, 0, 67, 0
2, 29959, Control_c, 0, 64, 127
2, 29960, Note_on_c, 0, 55, 0
2, 29984, Note_on_c, 0, 70, 40
2, 29987, Note_on_c, 0, 55, 40
2, 29990, Note_on_c, 0, 67, 39
2, 29992, Note_on_c, 0, 63, 42
2, 29994, Note_on_c, 0, 58, 53
2, 29997, Note_on_c, 0, 61, 34
2, 30003, Note_on_c, 0, 70, 0
2, 30009, Note_on_c, 0, 63, 0
2, 30010, Note_on_c, 0, 67, 0
2, 30010, Note_on_c, 0, 58, 0
2, 30012, Note_on_c, 0, 55, 0
2, 30012, Note_on_c, 0, 61, 0
2, 30047, Note_on_c, 0, 67, 39
2, 30051, Note_on_c, 0, 70, 60
2, 30052, Note_on_c, 0, 55, 40
2, 30053, Note_on_c, 0, 63, 41
2, 30055, Note_on_c, 0, 61, 39
2, 30055, Note_on_c, 0, 58, 53
2, 30061, Note_on_c, 0, 75, 0
2, 30066, Note_on_c, 0, 70, 0
2, 30067, Note_on_c, 0, 67, 0
2, 30068, Note_on_c, 0, 63, 0
2, 30070, Note_on_c, 0, 61, 0
2, 30071, Note_on_c, 0, 58, 0
2, 30077, Note_on_c, 0, 55, 0
2, 30113, Note_on_c, 0, 73, 10
2, 30113, Note_on_c, 0, 77, 81
2, 30116, Note_on_c, 0, 56, 57
2, 30117, Control_c, 0, 64, 0
2, 30118, Note_on_c, 0, 65, 52
2, 30120, Note_on_c, 0, 61, 52
2, 30123, Note_on_c, 0, 68, 37
2, 30137, Note_on_c, 0, 61, 0
2, 30146, Note_on_c, 0, 68, 0
2, 30148, Note_on_c, 0, 65, 0
2, 30151, Control_c, 0, 64, 127
2, 30152, Note_on_c, 0, 56, 0
2, 30153, Note_on_c, 0, 73, 0
2, 30178, Note_on_c, 0, 56, 49
2, 30178, Note_on_c, 0, 73, 43
2, 30180, Note_on_c, 0, 61, 46
2, 30182, Note_on_c, 0, 65, 50
2, 30183, Note_on_c, 0, 68, 53
2, 30196, Note_on_c, 0, 68, 0
2, 30199, Note_on_c, 0, 56, 0
2, 30199, Note_on_c, 0, 61, 0
2, 30200, Note_on_c, 0, 65, 0
2, 30212, Note_on_c, 0, 73, 0
2, 30240, Note_on_c, 0, 73, 43
2, 30247, Note_on_c, 0, 65, 44
2, 30250, Note_on_c, 0, 68, 48
2, 30252, Note_on_c, 0, 61, 23
2, 30252, Note_on_c, 0, 56, 48
2, 30264, Note_on_c, 0, 56, 0
2, 30264, Note_on_c, 0, 65, 0
2, 30264, Note_on_c, 0, 68, 0
2, 30265, Note_on_c, 0, 61, 0
2, 30283, Note_on_c, 0, 73, 0
2, 30330, Note_on_c, 0, 32, 80
2, 30335, Control_c, 0, 64, 0
2, 30374, Control_c, 0, 64, 127
2, 30375, Note_on_c, 0, 77, 0
2, 30378, Note_on_c, 0, 32, 0
2, 30439, Note_on_c, 0, 63, 49
2, 30440, Note_on_c, 0, 70, 55
2, 30444, Note_on_c, 0, 67, 49
2, 30445, Note_on_c, 0, 58, 53
2, 30453, Note_on_c, 0, 55, 47
2, 30465, Note_on_c, 0, 67, 0
2, 30467, Note_on_c, 0, 55, 0
2, 30469, Note_on_c, 0, 58, 0
2, 30469, Note_on_c, 0, 63, 0
2, 30479, Note_on_c, 0, 70, 0
2, 30514, Note_on_c, 0, 75, 79
2, 30518, Note_on_c, 0, 67, 56
2, 30520, Note_on_c, 0, 55, 39
2, 30520, Note_on_c, 0, 70, 72
2, 30522, Note_on_c, 0, 58, 42
2, 30526, Note_on_c, 0, 61, 39
2, 30532, Note_on_c, 0, 70, 0
2, 30535, Note_on_c, 0, 67, 0
2, 30537, Note_on_c, 0, 55, 0
2, 30539, Note_on_c, 0, 58, 0
2, 30540, Note_on_c, 0, 61, 0
2, 30540, Note_on_c, 0, 75, 0
2, 30583, Note_on_c, 0, 79, 95
2, 30585, Note_on_c, 0, 67, 66
2, 30587, Note_on_c, 0, 70, 54
2, 30587, Note_on_c, 0, 61, 45
2, 30588, Note_on_c, 0, 55, 44
2, 30589, Note_on_c, 0, 58, 35
2, 30603, Note_on_c, 0, 61, 0
2, 30603, Note_on_c, 0, 70, 0
2, 30604, Note_on_c, 0, 67, 0
2, 30606, Note_on_c, 0, 55, 0
2, 30607, Note_on_c, 0, 58, 0
2, 30613, Note_on_c, 0, 79, 0
2, 30643, Note_on_c, 0, 77, 94
2, 30647, Note_on_c, 0, 67, 55
2, 30649, Note_on_c, 0, 70, 55
2, 30650, Note_on_c, 0, 58, 55
2, 30654, Note_on_c, 0, 55, 42
2, 30655, Note_on_c, 0, 61, 21
2, 30664, Note_on_c, 0, 70, 0
2, 30664, Note_on_c, 0, 67, 0
2, 30668, Note_on_c, 0, 58, 0
2, 30668, Note_on_c, 0, 55, 0
2, 30670, Note_on_c, 0, 77, 0
2, 30671, Note_on_c, 0, 61, 0
2, 30703, Note_on_c, 0, 73, 94
2, 30706, Note_on_c, 0, 67, 50
2, 30708, Note_on_c, 0, 70, 49
2, 30711, Note_on_c, 0, 61, 14
2, 30712, Note_on_c, 0, 55, 55
2, 30712, Note_on_c, 0, 58, 55
2, 30720, Note_on_c, 0, 67, 0
2, 30724, Note_on_c, 0, 70, 0
2, 30726, Note_on_c, 0, 61, 0
2, 30726, Note_on_c, 0, 73, 0
2, 30726, Note_on_c, 0, 58, 0
2, 30726, Note_on_c, 0, 55, 0
2, 30772, Note_on_c, 0, 72, 96
2, 30773, Control_c, 0, 64, 0
2, 30784, Note_on_c, 0, 56, 43
2, 30785, Note_on_c, 0, 66, 42
2, 30787, Note_on_c, 0, 68, 42
2, 30787, Note_on_c, 0, 60, 44
2, 30790, Note_on_c, 0, 63, 37
2, 30803, Note_on_c, 0, 60, 0
2, 30805, Note_on_c, 0, 63, 0
2, 30806, Note_on_c, 0, 66, 0
2, 30807, Note_on_c, 0, 56, 0
2, 30808, Note_on_c, 0, 68, 0
2, 30816, Control_c, 0, 64, 127
2, 30838, Note_on_c, 0, 68, 36
2, 30840, Note_on_c, 0, 66, 50
2, 30841, Note_on_c, 0, 63, 25
2, 30848, Note_on_c, 0, 56, 21
2, 30849, Note_on_c, 0, 60, 33
2, 30855, Note_on_c, 0, 66, 0
2, 30855, Note_on_c, 0, 68, 0
2, 30859, Note_on_c, 0, 63, 0
2, 30865, Note_on_c, 0, 60, 0
2, 30866, Note_on_c, 0, 56, 0
2, 30897, Note_on_c, 0, 63, 68
2, 30900, Note_on_c, 0, 66, 68
2, 30902, Note_on_c, 0, 68, 48
2, 30903, Note_on_c, 0, 60, 10
2, 30909, Note_on_c, 0, 63, 0
2, 30909, Note_on_c, 0, 56, 20
2, 30912, Note_on_c, 0, 66, 0
2, 30918, Note_on_c, 0, 60, 0
2, 30918, Note_on_c, 0, 68, 0
2, 30925, Note_on_c, 0, 56, 0
2, 30969, Control_c, 0, 64, 0
2, 30976, Note_on_c, 0, 53, 30
2, 30977, Note_on_c, 0, 73, 64
2, 30978, Note_on_c, 0, 56, 31
2, 30983, Note_on_c, 0, 61, 28
2, 30988, Note_on_c, 0, 65, 28
2, 30991, Note_on_c, 0, 68, 10
2, 31001, Note_on_c, 0, 72, 0
2, 31007, Note_on_c, 0, 61, 0
2, 31011, Note_on_c, 0, 56, 0
2, 31012, Note_on_c, 0, 65, 0
2, 31012, Control_c, 0, 64, 127
2, 31014, Note_on_c, 0, 53, 0
2, 31014, Note_on_c, 0, 68, 0
2, 31036, Note_on_c, 0, 53, 43
2, 31040, Note_on_c, 0, 65, 44
2, 31041, Note_on_c, 0, 56, 40
2, 31048, Note_on_c, 0, 68, 21
2, 31050, Note_on_c, 0, 61, 33
2, 31057, Note_on_c, 0, 56, 0
2, 31058, Note_on_c, 0, 53, 0
2, 31059, Note_on_c, 0, 65, 0
2, 31068, Note_on_c, 0, 61, 0
2, 31068, Note_on_c, 0, 68, 0
2, 31102, Note_on_c, 0, 65, 48
2, 31111, Note_on_c, 0, 68, 40
2, 31113, Note_on_c, 0, 61, 29
2, 31113, Note_on_c, 0, 53, 33
2, 31113, Note_on_c, 0, 56, 33
2, 31117, Note_on_c, 0, 65, 0
2, 31127, Note_on_c, 0, 68, 0
2, 31129, Note_on_c, 0, 53, 0
2, 31129, Note_on_c, 0, 56, 0
2, 31130, Note_on_c, 0, 61, 0
2, 31200, Note_on_c, 0, 32, 62
2, 31211, Control_c, 0, 64, 0
2, 31249, Note_on_c, 0, 32, 0
2, 31249, Control_c, 0, 64, 127
2, 31266, Note_on_c, 0, 73, 0
2, 31333, Note_on_c, 0, 63, 36
2, 31335, Note_on_c, 0, 61, 48
2, 31339, Note_on_c, 0, 51, 32
2, 31342, Note_on_c, 0, 56, 32
2, 31352, Note_on_c, 0, 63, 0
2, 31355, Note_on_c, 0, 61, 0
2, 31355, Note_on_c, 0, 51, 0
2, 31358, Note_on_c, 0, 56, 0
2, 31407, Note_on_c, 0, 70, 63
2, 31408, Note_on_c, 0, 51, 39
2, 31410, Note_on_c, 0, 63, 29
2, 31413, Note_on_c, 0, 61, 36
2, 31413, Note_on_c, 0, 56, 31
2, 31428, Note_on_c, 0, 56, 0
2, 31428, Note_on_c, 0, 51, 0
2, 31429, Note_on_c, 0, 63, 0
2, 31430, Note_on_c, 0, 61, 0
2, 31489, Note_on_c, 0, 51, 23
2, 31490, Note_on_c, 0, 70, 0
2, 31492, Note_on_c, 0, 73, 53
2, 31497, Note_on_c, 0, 56, 27
2, 31499, Note_on_c, 0, 60, 23
2, 31501, Note_on_c, 0, 63, 23
2, 31503, Control_c, 0, 64, 0
2, 31511, Note_on_c, 0, 68, 42
2, 31526, Note_on_c, 0, 68, 0
2, 31531, Note_on_c, 0, 63, 0
2, 31532, Note_on_c, 0, 51, 0
2, 31536, Note_on_c, 0, 56, 0
2, 31538, Control_c, 0, 64, 127
2, 31543, Note_on_c, 0, 60, 0
2, 31573, Note_on_c, 0, 73, 0
2, 31588, Note_on_c, 0, 72, 76
2, 31590, Note_on_c, 0, 63, 23
2, 31591, Note_on_c, 0, 60, 44
2, 31594, Note_on_c, 0, 51, 20
2, 31595, Note_on_c, 0, 56, 26
2, 31596, Note_on_c, 0, 68, 28
2, 31611, Note_on_c, 0, 56, 0
2, 31612, Note_on_c, 0, 63, 0
2, 31614, Note_on_c, 0, 51, 0
2, 31617, Note_on_c, 0, 68, 0
2, 31619, Note_on_c, 0, 72, 0
2, 31619, Note_on_c, 0, 60, 0
2, 31660, Note_on_c, 0, 68, 55
2, 31663, Note_on_c, 0, 51, 31
2, 31663, Note_on_c, 0, 56, 26
2, 31666, Note_on_c, 0, 63, 12
2, 31666, Note_on_c, 0, 60, 23
2, 31670, Note_on_c, 0, 65, 17
2, 31679, Note_on_c, 0, 56, 0
2, 31682, Note_on_c, 0, 51, 0
2, 31682, Note_on_c, 0, 63, 0
2, 31682, Note_on_c, 0, 65, 0
2, 31688, Note_on_c, 0, 60, 0
2, 31693, Note_on_c, 0, 68, 0
2, 31730, Control_c, 0, 64, 0
2, 31731, Note_on_c, 0, 70, 69
2, 31732, Note_on_c, 0, 51, 38
2, 31732, Note_on_c, 0, 63, 28
2, 31735, Note_on_c, 0, 58, 59
2, 31738, Note_on_c, 0, 67, 11
2, 31753, Note_on_c, 0, 67, 0
2, 31758, Note_on_c, 0, 58, 0
2, 31762, Note_on_c, 0, 63, 0
2, 31764, Note_on_c, 0, 51, 0
2, 31768, Control_c, 0, 64, 127
2, 31800, Note_on_c, 0, 51, 41
2, 31801, Note_on_c, 0, 58, 48
2, 31802, Note_on_c, 0, 63, 31
2, 31803, Note_on_c, 0, 67, 34
2, 31824, Note_on_c, 0, 67, 0
2, 31824, Note_on_c, 0, 58, 0
2, 31824, Note_on_c, 0, 63, 0
2, 31828, Note_on_c, 0, 51, 0
2, 31867, Note_on_c, 0, 58, 48
2, 31869, Note_on_c, 0, 63, 35
2, 31871, Note_on_c, 0, 51, 40
2, 31875, Note_on_c, 0, 67, 43
2, 31889, Note_on_c, 0, 58, 0
2, 31890, Note_on_c, 0, 67, 0
2, 31892, Note_on_c, 0, 51, 0
2, 31894, Note_on_c, 0, 63, 0
2, 31935, Note_on_c, 0, 58, 42
2, 31939, Note_on_c, 0, 51, 29
2, 31939, Note_on_c, 0, 63, 23
2, 31944, Note_on_c, 0, 67, 43
2, 31960, Note_on_c, 0, 67, 0
2, 31960, Note_on_c, 0, 58, 0
2, 31960, Note_on_c, 0, 63, 0
2, 31963, Note_on_c, 0, 51, 0
2, 32008, Note_on_c, 0, 51, 28
2, 32008, Note_on_c, 0, 67, 29
2, 32008, Note_on_c, 0, 58, 42
2, 32014, Note_on_c, 0, 63, 10
2, 32031, Note_on_c, 0, 67, 0
2, 32032, Note_on_c, 0, 58, 0
2, 32032, Note_on_c, 0, 63, 0
2, 32032, Note_on_c, 0, 51, 0
2, 32076, Note_on_c, 0, 51, 40
2, 32077, Note_on_c, 0, 58, 32
2, 32079, Note_on_c, 0, 63, 10
2, 32082, Note_on_c, 0, 67, 30
2, 32096, Note_on_c, 0, 51, 0
2, 32097, Note_on_c, 0, 63, 0
2, 32098, Note_on_c, 0, 58, 0
2, 32105, Note_on_c, 0, 67, 0
2, 32172, Note_on_c, 0, 32, 66
2, 32180, Note_on_c, 0, 70, 0
2, 32205, Note_on_c, 0, 32, 0
2, 32271, Note_on_c, 0, 70, 71
2, 32274, Note_on_c, 0, 67, 37
2, 32277, Note_on_c, 0, 61, 38
2, 32278, Note_on_c, 0, 63, 37
2, 32282, Note_on_c, 0, 51, 40
2, 32294, Note_on_c, 0, 61, 0
2, 32295, Note_on_c, 0, 67, 0
2, 32298, Note_on_c, 0, 51, 0
2, 32299, Note_on_c, 0, 63, 0
2, 32346, Note_on_c, 0, 72, 79
2, 32348, Note_on_c, 0, 61, 47
2, 32349, Note_on_c, 0, 51, 57
2, 32351, Note_on_c, 0, 63, 53
2, 32352, Note_on_c, 0, 67, 46
2, 32367, Note_on_c, 0, 67, 0
2, 32370, Note_on_c, 0, 70, 0
2, 32370, Note_on_c, 0, 61, 0
2, 32372, Note_on_c, 0, 63, 0
2, 32374, Note_on_c, 0, 51, 0
2, 32416, Note_on_c, 0, 73, 78
2, 32419, Note_on_c, 0, 72, 0
2, 32422, Note_on_c, 0, 61, 27
2, 32423, Note_on_c, 0, 51, 35
2, 32424, Note_on_c, 0, 63, 35
2, 32441, Note_on_c, 0, 61, 0
2, 32448, Note_on_c, 0, 63, 0
2, 32448, Note_on_c, 0, 51, 0
2, 32485, Note_on_c, 0, 61, 57
2, 32487, Note_on_c, 0, 65, 78
2, 32491, Note_on_c, 0, 63, 44
2, 32493, Note_on_c, 0, 51, 34
2, 32500, Note_on_c, 0, 73, 0
2, 32504, Note_on_c, 0, 61, 0
2, 32512, Note_on_c, 0, 63, 0
2, 32514, Note_on_c, 0, 51, 0
2, 32553, Note_on_c, 0, 61, 56
2, 32554, Note_on_c, 0, 63, 48
2, 32555, Note_on_c, 0, 51, 50
2, 32556, Note_on_c, 0, 67, 84
2, 32563, Note_on_c, 0, 65, 0
2, 32574, Note_on_c, 0, 63, 0
2, 32577, Note_on_c, 0, 51, 0
2, 32580, Note_on_c, 0, 61, 0
2, 32616, Note_on_c, 0, 70, 88
2, 32617, Control_c, 0, 64, 0
2, 32618, Note_on_c, 0, 63, 42
2, 32622, Note_on_c, 0, 51, 41
2, 32623, Note_on_c, 0, 61, 53
2, 32625, Note_on_c, 0, 66, 47
2, 32629, Note_on_c, 0, 56, 47
2, 32633, Note_on_c, 0, 67, 0
2, 32644, Note_on_c, 0, 66, 0
2, 32646, Note_on_c, 0, 56, 0
2, 32648, Note_on_c, 0, 63, 0
2, 32649, Note_on_c, 0, 61, 0
2, 32652, Note_on_c, 0, 51, 0
2, 32660, Control_c, 0, 64, 127
2, 32685, Note_on_c, 0, 66, 58
2, 32689, Note_on_c, 0, 61, 53
2, 32689, Note_on_c, 0, 63, 40
2, 32697, Note_on_c, 0, 51, 15
2, 32697, Note_on_c, 0, 56, 45
2, 32707, Note_on_c, 0, 66, 0
2, 32708, Note_on_c, 0, 61, 0
2, 32709, Note_on_c, 0, 63, 0
2, 32711, Note_on_c, 0, 56, 0
2, 32714, Note_on_c, 0, 51, 0
2, 32754, Note_on_c, 0, 61, 49
2, 32756, Note_on_c, 0, 51, 52
2, 32757, Note_on_c, 0, 66, 46
2, 32760, Note_on_c, 0, 63, 35
2, 32764, Note_on_c, 0, 56, 26
2, 32773, Note_on_c, 0, 66, 0
2, 32777, Note_on_c, 0, 51, 0
2, 32778, Note_on_c, 0, 63, 0
2, 32781, Note_on_c, 0, 56, 0
2, 32788, Note_on_c, 0, 61, 0
2, 32832, Note_on_c, 0, 51, 35
2, 32833, Control_c, 0, 64, 0
2, 32840, Note_on_c, 0, 63, 28
2, 32841, Note_on_c, 0, 68, 63
2, 32841, Note_on_c, 0, 56, 26
2, 32842, Note_on_c, 0, 60, 41
2, 32847, Note_on_c, 0, 66, 35
2, 32860, Note_on_c, 0, 70, 0
2, 32875, Note_on_c, 0, 56, 0
2, 32877, Note_on_c, 0, 51, 0
2, 32877, Note_on_c, 0, 63, 0
2, 32880, Note_on_c, 0, 66, 0
2, 32881, Control_c, 0, 64, 127
2, 32884, Note_on_c, 0, 60, 0
2, 32907, Note_on_c, 0, 51, 40
2, 32910, Note_on_c, 0, 63, 37
2, 32910, Note_on_c, 0, 60, 64
2, 32911, Note_on_c, 0, 66, 38
2, 32917, Note_on_c, 0, 56, 22
2, 32929, Note_on_c, 0, 63, 0
2, 32931, Note_on_c, 0, 60, 0
2, 32933, Note_on_c, 0, 66, 0
2, 32934, Note_on_c, 0, 56, 0
2, 32935, Note_on_c, 0, 51, 0
2, 32976, Note_on_c, 0, 51, 64
2, 32977, Note_on_c, 0, 56, 22
2, 32978, Note_on_c, 0, 63, 48
2, 32982, Note_on_c, 0, 66, 29
2, 32985, Note_on_c, 0, 60, 30
2, 32991, Note_on_c, 0, 51, 0
2, 32993, Note_on_c, 0, 63, 0
2, 32994, Note_on_c, 0, 56, 0
2, 33000, Note_on_c, 0, 66, 0
2, 33001, Note_on_c, 0, 60, 0
2, 33055, Note_on_c, 0, 32, 78
2, 33069, Note_on_c, 0, 68, 0
2, 33083, Note_on_c, 0, 32, 0
2, 33135, Note_on_c, 0, 73, 81
2, 33136, Note_on_c, 0, 65, 77
2, 33139, Note_on_c, 0, 61, 26
2, 33139, Note_on_c, 0, 68, 47
2, 33141, Note_on_c, 0, 56, 38
2, 33143, Note_on_c, 0, 53, 39
2, 33155, Note_on_c, 0, 68, 0
2, 33155, Note_on_c, 0, 61, 0
2, 33160, Note_on_c, 0, 65, 0
2, 33163, Note_on_c, 0, 56, 0
2, 33164, Note_on_c, 0, 73, 0
2, 33165, Note_on_c, 0, 53, 0
2, 33196, Note_on_c, 0, 79, 95
2, 33197, Note_on_c, 0, 68, 60
2, 33201, Note_on_c, 0, 65, 66
2, 33202, Note_on_c, 0, 73, 41
2, 33202, Note_on_c, 0, 56, 43
2, 33202, Note_on_c, 0, 61, 21
2, 33204, Note_on_c, 0, 53, 33
2, 33213, Note_on_c, 0, 68, 0
2, 33216, Note_on_c, 0, 65, 0
2, 33217, Note_on_c, 0, 73, 0
2, 33220, Note_on_c, 0, 56, 0
2, 33220, Note_on_c, 0, 61, 0
2, 33220, Note_on_c, 0, 53, 0
2, 33225, Note_on_c, 0, 79, 0
2, 33226, Note_on_c, 0, 68, 43
2, 33254, Note_on_c, 0, 68, 0
2, 33274, Note_on_c, 0, 82, 101
2, 33278, Note_on_c, 0, 65, 46
2, 33279, Note_on_c, 0, 73, 41
2, 33280, Note_on_c, 0, 53, 36
2, 33283, Note_on_c, 0, 61, 39
2, 33286, Note_on_c, 0, 56, 47
2, 33294, Note_on_c, 0, 73, 0
2, 33301, Note_on_c, 0, 61, 0
2, 33301, Note_on_c, 0, 56, 0
2, 33302, Note_on_c, 0, 53, 0
2, 33304, Note_on_c, 0, 65, 0
2, 33310, Note_on_c, 0, 82, 0
2, 33348, Note_on_c, 0, 80, 84
2, 33352, Note_on_c, 0, 65, 50
2, 33355, Note_on_c, 0, 53, 46
2, 33357, Note_on_c, 0, 61, 39
2, 33358, Note_on_c, 0, 68, 38
2, 33360, Note_on_c, 0, 73, 38
2, 33362, Note_on_c, 0, 56, 41
2, 33369, Note_on_c, 0, 65, 0
2, 33373, Note_on_c, 0, 61, 0
2, 33373, Note_on_c, 0, 53, 0
2, 33374, Note_on_c, 0, 68, 0
2, 33375, Note_on_c, 0, 56, 0
2, 33376, Note_on_c, 0, 73, 0
2, 33390, Note_on_c, 0, 80, 0
2, 33420, Note_on_c, 0, 77, 87
2, 33420, Note_on_c, 0, 65, 41
2, 33421, Note_on_c, 0, 73, 32
2, 33424, Note_on_c, 0, 68, 32
2, 33424, Note_on_c, 0, 61, 32
2, 33425, Note_on_c, 0, 53, 24
2, 33425, Note_on_c, 0, 56, 45
2, 33439, Note_on_c, 0, 73, 0
2, 33441, Note_on_c, 0, 65, 0
2, 33441, Note_on_c, 0, 61, 0
2, 33441, Note_on_c, 0, 56, 0
2, 33442, Note_on_c, 0, 68, 0
2, 33443, Note_on_c, 0, 53, 0
2, 33447, Note_on_c, 0, 77, 0
2, 33489, Note_on_c, 0, 75, 76
2, 33490, Control_c, 0, 64, 0
2, 33493, Note_on_c, 0, 55, 45
2, 33495, Note_on_c, 0, 67, 44
2, 33495, Note_on_c, 0, 63, 44
2, 33499, Note_on_c, 0, 58, 55
2, 33500, Note_on_c, 0, 70, 36
2, 33502, Note_on_c, 0, 61, 50
2, 33509, Note_on_c, 0, 63, 0
2, 33516, Note_on_c, 0, 58, 0
2, 33517, Note_on_c, 0, 61, 0
2, 33519, Note_on_c, 0, 67, 0
2, 33519, Note_on_c, 0, 70, 0
2, 33521, Note_on_c, 0, 55, 0
2, 33528, Control_c, 0, 64, 127
2, 33551, Note_on_c, 0, 67, 51
2, 33553, Note_on_c, 0, 63, 47
2, 33553, Note_on_c, 0, 70, 41
2, 33556, Note_on_c, 0, 55, 20
2, 33559, Note_on_c, 0, 58, 62
2, 33560, Note_on_c, 0, 61, 37
2, 33568, Note_on_c, 0, 63, 0
2, 33569, Note_on_c, 0, 70, 0
2, 33570, Note_on_c, 0, 67, 0
2, 33572, Note_on_c, 0, 58, 0
2, 33573, Note_on_c, 0, 61, 0
2, 33576, Note_on_c, 0, 55, 0
2, 33620, Note_on_c, 0, 67, 54
2, 33621, Note_on_c, 0, 63, 47
2, 33623, Note_on_c, 0, 70, 49
2, 33625, Note_on_c, 0, 55, 50
2, 33626, Note_on_c, 0, 58, 58
2, 33628, Note_on_c, 0, 61, 47
2, 33632, Note_on_c, 0, 67, 0
2, 33632, Note_on_c, 0, 75, 0
2, 33634, Note_on_c, 0, 63, 0
2, 33637, Note_on_c, 0, 70, 0
2, 33640, Note_on_c, 0, 61, 0
2, 33642, Note_on_c, 0, 58, 0
2, 33648, Note_on_c, 0, 55, 0
2, 33686, Note_on_c, 0, 77, 85
2, 33688, Note_on_c, 0, 61, 48
2, 33690, Control_c, 0, 64, 0
2, 33690, Note_on_c, 0, 56, 61
2, 33693, Note_on_c, 0, 65, 48
2, 33698, Note_on_c, 0, 68, 30
2, 33700, Note_on_c, 0, 73, 14
2, 33717, Note_on_c, 0, 68, 0
2, 33719, Note_on_c, 0, 73, 0
2, 33720, Note_on_c, 0, 65, 0
2, 33721, Note_on_c, 0, 61, 0
2, 33728, Control_c, 0, 64, 127
2, 33730, Note_on_c, 0, 56, 0
2, 33750, Note_on_c, 0, 56, 59
2, 33754, Note_on_c, 0, 61, 47
2, 33754, Note_on_c, 0, 65, 37
2, 33754, Note_on_c, 0, 73, 42
2, 33755, Note_on_c, 0, 68, 47
2, 33769, Note_on_c, 0, 68, 0
2, 33772, Note_on_c, 0, 61, 0
2, 33774, Note_on_c, 0, 65, 0
2, 33779, Note_on_c, 0, 73, 0
2, 33781, Note_on_c, 0, 56, 0
2, 33818, Note_on_c, 0, 73, 50
2, 33819, Note_on_c, 0, 65, 45
2, 33820, Note_on_c, 0, 68, 47
2, 33823, Note_on_c, 0, 61, 34
2, 33824, Note_on_c, 0, 56, 61
2, 33834, Note_on_c, 0, 56, 0
2, 33836, Note_on_c, 0, 68, 0
2, 33837, Note_on_c, 0, 65, 0
2, 33838, Note_on_c, 0, 61, 0
2, 33855, Note_on_c, 0, 73, 0
2, 33896, Note_on_c, 0, 32, 94
2, 33917, Note_on_c, 0, 77, 0
2, 33919, Note_on_c, 0, 32, 0
2, 33984, Note_on_c, 0, 70, 88
2, 33991, Note_on_c, 0, 63, 47
2, 33994, Note_on_c, 0, 58, 54
2, 33995, Note_on_c, 0, 55, 51
2, 33996, Note_on_c, 0, 61, 37
2, 33996, Note_on_c, 0, 67, 33
2, 34007, Note_on_c, 0, 63, 0
2, 34011, Note_on_c, 0, 61, 0
2, 34014, Note_on_c, 0, 55, 0
2, 34014, Note_on_c, 0, 67, 0
2, 34016, Note_on_c, 0, 58, 0
2, 34019, Note_on_c, 0, 70, 0
2, 34054, Note_on_c, 0, 75, 84
2, 34060, Note_on_c, 0, 63, 67
2, 34061, Note_on_c, 0, 70, 58
2, 34062, Note_on_c, 0, 67, 66
2, 34062, Note_on_c, 0, 58, 47
2, 34064, Note_on_c, 0, 61, 56
2, 34065, Note_on_c, 0, 55, 43
2, 34071, Note_on_c, 0, 63, 0
2, 34076, Note_on_c, 0, 67, 0
2, 34076, Note_on_c, 0, 70, 0
2, 34079, Note_on_c, 0, 61, 0
2, 34080, Note_on_c, 0, 55, 0
2, 34083, Note_on_c, 0, 75, 0
2, 34085, Note_on_c, 0, 58, 0
2, 34130, Note_on_c, 0, 79, 97
2, 34132, Note_on_c, 0, 67, 75
2, 34134, Note_on_c, 0, 55, 62
2, 34134, Note_on_c, 0, 70, 68
2, 34137, Note_on_c, 0, 58, 46
2, 34141, Note_on_c, 0, 63, 58
2, 34143, Note_on_c, 0, 61, 43
2, 34149, Note_on_c, 0, 70, 0
2, 34153, Note_on_c, 0, 55, 0
2, 34154, Note_on_c, 0, 63, 0
2, 34156, Note_on_c, 0, 58, 0
2, 34156, Note_on_c, 0, 61, 0
2, 34158, Note_on_c, 0, 67, 0
2, 34160, Note_on_c, 0, 79, 0
2, 34195, Note_on_c, 0, 77, 98
2, 34198, Note_on_c, 0, 67, 85
2, 34200, Note_on_c, 0, 70, 71
2, 34203, Note_on_c, 0, 55, 62
2, 34203, Note_on_c, 0, 58, 54
2, 34204, Note_on_c, 0, 61, 35
2, 34207, Note_on_c, 0, 63, 44
2, 34213, Note_on_c, 0, 70, 0
2, 34213, Note_on_c, 0, 67, 0
2, 34217, Note_on_c, 0, 55, 0
2, 34219, Note_on_c, 0, 58, 0
2, 34219, Note_on_c, 0, 61, 0
2, 34220, Note_on_c, 0, 63, 0
2, 34228, Note_on_c, 0, 77, 0
2, 34262, Note_on_c, 0, 73, 97
2, 34264, Note_on_c, 0, 67, 80
2, 34267, Note_on_c, 0, 70, 72
2, 34269, Note_on_c, 0, 63, 53
2, 34270, Note_on_c, 0, 58, 51
2, 34272, Note_on_c, 0, 55, 50
2, 34274, Note_on_c, 0, 67, 0
2, 34279, Note_on_c, 0, 70, 0
2, 34282, Note_on_c, 0, 63, 0
2, 34285, Note_on_c, 0, 55, 0
2, 34289, Note_on_c, 0, 73, 0
2, 34289, Note_on_c, 0, 58, 0
2, 34338, Note_on_c, 0, 72, 103
2, 34339, Control_c, 0, 64, 0
2, 34342, Note_on_c, 0, 66, 67
2, 34343, Note_on_c, 0, 56, 56
2, 34345, Note_on_c, 0, 60, 44
2, 34345, Note_on_c, 0, 68, 53
2, 34348, Note_on_c, 0, 63, 41
2, 34359, Note_on_c, 0, 68, 0
2, 34365, Note_on_c, 0, 63, 0
2, 34366, Note_on_c, 0, 60, 0
2, 34367, Note_on_c, 0, 66, 0
2, 34372, Note_on_c, 0, 56, 0
2, 34381, Control_c, 0, 64, 127
2, 34403, Note_on_c, 0, 66, 53
2, 34404, Note_on_c, 0, 68, 48
2, 34406, Note_on_c, 0, 56, 26
2, 34407, Note_on_c, 0, 63, 54
2, 34408, Note_on_c, 0, 60, 21
2, 34417, Note_on_c, 0, 66, 0
2, 34419, Note_on_c, 0, 63, 0
2, 34419, Note_on_c, 0, 68, 0
2, 34423, Note_on_c, 0, 60, 0
2, 34426, Note_on_c, 0, 56, 0
2, 34465, Note_on_c, 0, 63, 51
2, 34468, Note_on_c, 0, 66, 61
2, 34468, Note_on_c, 0, 60, 10
2, 34474, Note_on_c, 0, 68, 52
2, 34474, Note_on_c, 0, 56, 37
2, 34477, Note_on_c, 0, 63, 0
2, 34482, Note_on_c, 0, 66, 0
2, 34485, Note_on_c, 0, 60, 0
2, 34488, Note_on_c, 0, 68, 0
2, 34488, Note_on_c, 0, 56, 0
2, 34550, Control_c, 0, 64, 0
2, 34551, Note_on_c, 0, 73, 66
2, 34552, Note_on_c, 0, 53, 34
2, 34553, Note_on_c, 0, 65, 42
2, 34557, Note_on_c, 0, 61, 15
2, 34557, Note_on_c, 0, 56, 31
2, 34559, Note_on_c, 0, 68, 18
2, 34564, Note_on_c, 0, 72, 0
2, 34579, Note_on_c, 0, 61, 0
2, 34579, Note_on_c, 0, 56, 0
2, 34580, Note_on_c, 0, 68, 0
2, 34582, Note_on_c, 0, 65, 0
2, 34590, Note_on_c, 0, 53, 0
2, 34592, Control_c, 0, 64, 127
2, 34616, Note_on_c, 0, 53, 31
2, 34620, Note_on_c, 0, 65, 32
2, 34621, Note_on_c, 0, 56, 52
2, 34624, Note_on_c, 0, 61, 28
2, 34626, Note_on_c, 0, 68, 27
2, 34634, Note_on_c, 0, 56, 0
2, 34640, Note_on_c, 0, 53, 0
2, 34641, Note_on_c, 0, 65, 0
2, 34644, Note_on_c, 0, 68, 0
2, 34645, Note_on_c, 0, 61, 0
2, 34684, Note_on_c, 0, 65, 59
2, 34686, Note_on_c, 0, 53, 42
2, 34689, Note_on_c, 0, 61, 40
2, 34692, Note_on_c, 0, 68, 47
2, 34693, Note_on_c, 0, 56, 49
2, 34696, Note_on_c, 0, 65, 0
2, 34705, Note_on_c, 0, 53, 0
2, 34705, Note_on_c, 0, 61, 0
2, 34705, Note_on_c, 0, 56, 0
2, 34708, Note_on_c, 0, 68, 0
2, 34765, Control_c, 0, 64, 0
2, 34768, Note_on_c, 0, 32, 76
2, 34800, Control_c, 0, 64, 127
2, 34806, Note_on_c, 0, 32, 0
2, 34825, Note_on_c, 0, 73, 0
2, 34891, Note_on_c, 0, 61, 57
2, 34892, Note_on_c, 0, 52, 32
2, 34896, Note_on_c, 0, 56, 19
2, 34897, Note_on_c, 0, 64, 47
2, 34907, Note_on_c, 0, 52, 0
2, 34909, Note_on_c, 0, 64, 0
2, 34909, Note_on_c, 0, 56, 0
2, 34913, Note_on_c, 0, 61, 0
2, 34963, Note_on_c, 0, 68, 68
2, 34963, Note_on_c, 0, 61, 40
2, 34966, Note_on_c, 0, 52, 44
2, 34966, Note_on_c, 0, 56, 44
2, 34973, Note_on_c, 0, 64, 14
2, 34980, Note_on_c, 0, 61, 0
2, 34983, Note_on_c, 0, 56, 0
2, 34983, Note_on_c, 0, 52, 0
2, 34989, Note_on_c, 0, 64, 0
2, 35035, Note_on_c, 0, 72, 63
2, 35040, Note_on_c, 0, 61, 35
2, 35041, Note_on_c, 0, 64, 29
2, 35041, Note_on_c, 0, 52, 47
2, 35044, Note_on_c, 0, 56, 28
2, 35046, Note_on_c, 0, 68, 0
2, 35055, Note_on_c, 0, 52, 0
2, 35056, Note_on_c, 0, 61, 0
2, 35059, Note_on_c, 0, 56, 0
2, 35059, Note_on_c, 0, 64, 0
2, 35101, Note_on_c, 0, 61, 38
2, 35103, Note_on_c, 0, 70, 69
2, 35106, Note_on_c, 0, 72, 0
2, 35106, Note_on_c, 0, 64, 33
2, 35107, Note_on_c, 0, 52, 32
2, 35109, Note_on_c, 0, 56, 34
2, 35121, Note_on_c, 0, 61, 0
2, 35123, Note_on_c, 0, 64, 0
2, 35124, Note_on_c, 0, 52, 0
2, 35125, Note_on_c, 0, 56, 0
2, 35175, Note_on_c, 0, 56, 36
2, 35175, Note_on_c, 0, 61, 35
2, 35177, Note_on_c, 0, 68, 64
2, 35178, Note_on_c, 0, 64, 32
2, 35178, Note_on_c, 0, 52, 51
2, 35179, Note_on_c, 0, 70, 0
2, 35193, Note_on_c, 0, 52, 0
2, 35194, Note_on_c, 0, 64, 0
2, 35196, Note_on_c, 0, 61, 0
2, 35207, Note_on_c, 0, 56, 0
2, 35276, Note_on_c, 0, 60, 45
2, 35278, Note_on_c, 0, 72, 68
2, 35281, Note_on_c, 0, 51, 39
2, 35281, Note_on_c, 0, 63, 32
2, 35282, Note_on_c, 0, 56, 29
2, 35284, Control_c, 0, 64, 0
2, 35298, Note_on_c, 0, 68, 0
2, 35317, Note_on_c, 0, 56, 0
2, 35323, Note_on_c, 0, 63, 0
2, 35329, Note_on_c, 0, 51, 0
2, 35332, Note_on_c, 0, 60, 0
2, 35334, Control_c, 0, 64, 127
2, 35371, Note_on_c, 0, 63, 33
2, 35378, Note_on_c, 0, 51, 40
2, 35380, Note_on_c, 0, 60, 16
2, 35386, Note_on_c, 0, 56, 28
2, 35392, Note_on_c, 0, 63, 0
2, 35397, Note_on_c, 0, 51, 0
2, 35398, Note_on_c, 0, 60, 0
2, 35403, Note_on_c, 0, 56, 0
2, 35438, Note_on_c, 0, 60, 34
2, 35443, Note_on_c, 0, 63, 40
2, 35443, Note_on_c, 0, 51, 32
2, 35455, Note_on_c, 0, 56, 10
2, 35458, Note_on_c, 0, 60, 0
2, 35460, Note_on_c, 0, 63, 0
2, 35464, Note_on_c, 0, 51, 0
2, 35471, Note_on_c, 0, 56, 0
2, 35500, Note_on_c, 0, 56, 21
2, 35503, Note_on_c, 0, 60, 32
2, 35505, Note_on_c, 0, 63, 37
2, 35511, Note_on_c, 0, 51, 36
2, 35521, Note_on_c, 0, 60, 0
2, 35522, Note_on_c, 0, 63, 0
2, 35523, Note_on_c, 0, 56, 0
2, 35529, Note_on_c, 0, 51, 0
2, 35565, Note_on_c, 0, 60, 44
2, 35566, Note_on_c, 0, 63, 37
2, 35568, Note_on_c, 0, 56, 44
2, 35574, Note_on_c, 0, 51, 30
2, 35584, Note_on_c, 0, 60, 0
2, 35585, Note_on_c, 0, 63, 0
2, 35587, Note_on_c, 0, 56, 0
2, 35592, Note_on_c, 0, 51, 0
2, 35625, Note_on_c, 0, 63, 51
2, 35626, Note_on_c, 0, 60, 51
2, 35628, Note_on_c, 0, 51, 49
2, 35630, Note_on_c, 0, 56, 51
2, 35639, Note_on_c, 0, 63, 0
2, 35641, Note_on_c, 0, 60, 0
2, 35643, Note_on_c, 0, 51, 0
2, 35645, Note_on_c, 0, 56, 0
2, 35699, Control_c, 0, 64, 0
2, 35700, Note_on_c, 0, 32, 70
2, 35703, Note_on_c, 0, 61, 42
2, 35736, Note_on_c, 0, 61, 0
2, 35737, Control_c, 0, 64, 127
2, 35741, Note_on_c, 0, 32, 0
2, 35788, Note_on_c, 0, 61, 52
2, 35799, Note_on_c, 0, 64, 48
2, 35800, Note_on_c, 0, 52, 57
2, 35804, Note_on_c, 0, 56, 47
2, 35810, Note_on_c, 0, 61, 0
2, 35812, Note_on_c, 0, 64, 0
2, 35818, Note_on_c, 0, 56, 0
2, 35818, Note_on_c, 0, 52, 0
2, 35861, Note_on_c, 0, 68, 75
2, 35864, Note_on_c, 0, 64, 50
2, 35865, Note_on_c, 0, 56, 47
2, 35865, Note_on_c, 0, 52, 49
2, 35868, Note_on_c, 0, 61, 38
2, 35869, Note_on_c, 0, 72, 0
2, 35880, Note_on_c, 0, 52, 0
2, 35882, Note_on_c, 0, 56, 0
2, 35882, Note_on_c, 0, 64, 0
2, 35884, Note_on_c, 0, 61, 0
2, 35946, Note_on_c, 0, 56, 33
2, 35947, Note_on_c, 0, 64, 20
2, 35950, Note_on_c, 0, 72, 76
2, 35950, Note_on_c, 0, 52, 15
2, 35951, Note_on_c, 0, 61, 39
2, 35964, Note_on_c, 0, 56, 0
2, 35965, Note_on_c, 0, 64, 0
2, 35966, Note_on_c, 0, 68, 0
2, 35966, Note_on_c, 0, 52, 0
2, 35968, Note_on_c, 0, 61, 0
2, 36016, Note_on_c, 0, 64, 43
2, 36017, Note_on_c, 0, 61, 39
2, 36018, Note_on_c, 0, 70, 80
2, 36019, Note_on_c, 0, 52, 34
2, 36022, Note_on_c, 0, 56, 36
2, 36026, Note_on_c, 0, 72, 0
2, 36032, Note_on_c, 0, 64, 0
2, 36036, Note_on_c, 0, 52, 0
2, 36036, Note_on_c, 0, 61, 0
2, 36037, Note_on_c, 0, 56, 0
2, 36080, Note_on_c, 0, 61, 53
2, 36081, Note_on_c, 0, 68, 78
2, 36082, Note_on_c, 0, 64, 48
2, 36082, Note_on_c, 0, 52, 51
2, 36086, Note_on_c, 0, 56, 51
2, 36094, Note_on_c, 0, 64, 0
2, 36097, Note_on_c, 0, 52, 0
2, 36097, Note_on_c, 0, 70, 0
2, 36098, Note_on_c, 0, 56, 0
2, 36100, Note_on_c, 0, 61, 0
2, 36148, Control_c, 0, 64, 0
2, 36149, Note_on_c, 0, 60, 48
2, 36150, Note_on_c, 0, 72, 88
2, 36151, Note_on_c, 0, 51, 55
2, 36151, Note_on_c, 0, 63, 55
2, 36160, Note_on_c, 0, 56, 40
2, 36168, Note_on_c, 0, 68, 0
2, 36179, Note_on_c, 0, 63, 0
2, 36183, Note_on_c, 0, 60, 0
2, 36183, Note_on_c, 0, 56, 0
2, 36186, Note_on_c, 0, 51, 0
2, 36190, Control_c, 0, 64, 127
2, 36211, Note_on_c, 0, 51, 51
2, 36213, Note_on_c, 0, 63, 58
2, 36213, Note_on_c, 0, 60, 58
2, 36218, Note_on_c, 0, 56, 42
2, 36229, Note_on_c, 0, 60, 0
2, 36230, Note_on_c, 0, 63, 0
2, 36231, Note_on_c, 0, 56, 0
2, 36244, Note_on_c, 0, 51, 0
2, 36274, Note_on_c, 0, 51, 49
2, 36275, Note_on_c, 0, 63, 56
2, 36276, Note_on_c, 0, 60, 50
2, 36279, Note_on_c, 0, 56, 45
2, 36289, Note_on_c, 0, 51, 0
2, 36290, Note_on_c, 0, 63, 0
2, 36291, Note_on_c, 0, 60, 0
2, 36294, Note_on_c, 0, 56, 0
2, 36337, Control_c, 0, 64, 0
2, 36338, Note_on_c, 0, 64, 58
2, 36340, Note_on_c, 0, 56, 40
2, 36342, Note_on_c, 0, 61, 67
2, 36348, Note_on_c, 0, 52, 48
2, 36368, Note_on_c, 0, 61, 0
2, 36371, Note_on_c, 0, 64, 0
2, 36372, Note_on_c, 0, 52, 0
2, 36375, Note_on_c, 0, 56, 0
2, 36375, Control_c, 0, 64, 127
2, 36403, Note_on_c, 0, 56, 40
2, 36404, Note_on_c, 0, 70, 78
2, 36406, Note_on_c, 0, 64, 43
2, 36408, Note_on_c, 0, 52, 36
2, 36408, Note_on_c, 0, 61, 38
2, 36413, Note_on_c, 0, 72, 0
2, 36421, Note_on_c, 0, 64, 0
2, 36422, Note_on_c, 0, 56, 0
2, 36424, Note_on_c, 0, 61, 0
2, 36426, Note_on_c, 0, 52, 0
2, 36469, Note_on_c, 0, 68, 79
2, 36473, Note_on_c, 0, 52, 43
2, 36476, Note_on_c, 0, 64, 33
2, 36476, Note_on_c, 0, 61, 33
2, 36477, Note_on_c, 0, 56, 46
2, 36480, Note_on_c, 0, 70, 0
2, 36491, Note_on_c, 0, 52, 0
2, 36491, Note_on_c, 0, 64, 0
2, 36491, Note_on_c, 0, 61, 0
2, 36491, Note_on_c, 0, 56, 0
2, 36564, Note_on_c, 0, 60, 45
2, 36566, Note_on_c, 0, 72, 68
2, 36568, Note_on_c, 0, 51, 40
2, 36569, Note_on_c, 0, 63, 34
2, 36571, Control_c, 0, 64, 0
2, 36580, Note_on_c, 0, 56, 38
2, 36585, Note_on_c, 0, 68, 0
2, 36600, Note_on_c, 0, 56, 0
2, 36602, Note_on_c, 0, 63, 0
2, 36613, Control_c, 0, 64, 127
2, 36614, Note_on_c, 0, 51, 0
2, 36616, Note_on_c, 0, 60, 0
2, 36647, Note_on_c, 0, 60, 48
2, 36651, Note_on_c, 0, 63, 31
2, 36655, Note_on_c, 0, 51, 22
2, 36657, Note_on_c, 0, 56, 34
2, 36668, Note_on_c, 0, 60, 0
2, 36672, Note_on_c, 0, 63, 0
2, 36673, Note_on_c, 0, 56, 0
2, 36678, Note_on_c, 0, 51, 0
2, 36716, Note_on_c, 0, 60, 31
2, 36720, Note_on_c, 0, 63, 20
2, 36723, Note_on_c, 0, 51, 24
2, 36726, Note_on_c, 0, 56, 29
2, 36736, Note_on_c, 0, 60, 0
2, 36740, Note_on_c, 0, 63, 0
2, 36742, Note_on_c, 0, 56, 0
2, 36744, Note_on_c, 0, 51, 0
2, 36784, Note_on_c, 0, 60, 41
2, 36788, Note_on_c, 0, 63, 25
2, 36789, Note_on_c, 0, 56, 29
2, 36790, Note_on_c, 0, 51, 30
2, 36805, Note_on_c, 0, 56, 0
2, 36807, Note_on_c, 0, 63, 0
2, 36809, Note_on_c, 0, 60, 0
2, 36811, Note_on_c, 0, 51, 0
2, 36859, Note_on_c, 0, 70, 65
2, 36862, Note_on_c, 0, 60, 23
2, 36865, Note_on_c, 0, 63, 15
2, 36866, Note_on_c, 0, 56, 11
2, 36866, Note_on_c, 0, 51, 18
2, 36873, Note_on_c, 0, 72, 0
2, 36882, Note_on_c, 0, 56, 0
2, 36886, Note_on_c, 0, 63, 0
2, 36890, Note_on_c, 0, 60, 0
2, 36893, Note_on_c, 0, 51, 0
2, 36953, Note_on_c, 0, 63, 25
2, 36954, Note_on_c, 0, 51, 26
2, 36958, Note_on_c, 0, 60, 15
2, 36960, Note_on_c, 0, 56, 13
2, 36960, Note_on_c, 0, 68, 67
2, 36961, Note_on_c, 0, 70, 0
2, 36969, Note_on_c, 0, 63, 0
2, 36979, Note_on_c, 0, 56, 0
2, 36983, Note_on_c, 0, 60, 0
2, 36988, Note_on_c, 0, 51, 0
2, 37009, Note_on_c, 0, 68, 0
2, 37072, Note_on_c, 0, 68, 65
2, 37077, Note_on_c, 0, 32, 66
2, 37119, Note_on_c, 0, 32, 0
2, 37191, Note_on_c, 0, 60, 41
2, 37192, Note_on_c, 0, 63, 40
2, 37195, Note_on_c, 0, 51, 34
2, 37197, Note_on_c, 0, 56, 40
2, 37209, Note_on_c, 0, 63, 0
2, 37211, Note_on_c, 0, 56, 0
2, 37211, Note_on_c, 0, 60, 0
2, 37215, Note_on_c, 0, 51, 0
2, 37272, Note_on_c, 0, 63, 41
2, 37278, Note_on_c, 0, 60, 43
2, 37278, Note_on_c, 0, 56, 18
2, 37279, Note_on_c, 0, 51, 23
2, 37290, Note_on_c, 0, 63, 0
2, 37294, Note_on_c, 0, 60, 0
2, 37295, Note_on_c, 0, 56, 0
2, 37298, Note_on_c, 0, 51, 0
2, 37346, Note_on_c, 0, 63, 44
2, 37346, Note_on_c, 0, 51, 44
2, 37347, Note_on_c, 0, 60, 51
2, 37354, Note_on_c, 0, 56, 25
2, 37362, Note_on_c, 0, 63, 0
2, 37364, Note_on_c, 0, 60, 0
2, 37369, Note_on_c, 0, 56, 0
2, 37369, Note_on_c, 0, 51, 0
2, 37417, Note_on_c, 0, 58, 70
2, 37417, Note_on_c, 0, 61, 41
2, 37418, Note_on_c, 0, 51, 23
2, 37422, Note_on_c, 0, 56, 33
2, 37433, Note_on_c, 0, 61, 0
2, 37435, Note_on_c, 0, 58, 0
2, 37437, Note_on_c, 0, 56, 0
2, 37438, Note_on_c, 0, 51, 0
2, 37483, Note_on_c, 0, 65, 70
2, 37484, Note_on_c, 0, 61, 41
2, 37485, Note_on_c, 0, 56, 41
2, 37486, Note_on_c, 0, 51, 34
2, 37493, Note_on_c, 0, 68, 0
2, 37500, Note_on_c, 0, 56, 0
2, 37500, Note_on_c, 0, 61, 0
2, 37504, Note_on_c, 0, 51, 0
2, 37546, Note_on_c, 0, 63, 36
2, 37547, Control_c, 0, 64, 0
2, 37547, Note_on_c, 0, 51, 40
2, 37555, Note_on_c, 0, 56, 35
2, 37557, Note_on_c, 0, 68, 67
2, 37559, Note_on_c, 0, 60, 52
2, 37564, Note_on_c, 0, 65, 0
2, 37582, Note_on_c, 0, 63, 0
2, 37585, Control_c, 0, 64, 127
2, 37586, Note_on_c, 0, 60, 0
2, 37587, Note_on_c, 0, 51, 0
2, 37588, Note_on_c, 0, 56, 0
2, 37615, Note_on_c, 0, 60, 43
2, 37617, Note_on_c, 0, 63, 38
2, 37617, Note_on_c, 0, 51, 41
2, 37622, Note_on_c, 0, 56, 25
2, 37636, Note_on_c, 0, 63, 0
2, 37636, Note_on_c, 0, 60, 0
2, 37638, Note_on_c, 0, 51, 0
2, 37640, Note_on_c, 0, 56, 0
2, 37680, Note_on_c, 0, 63, 37
2, 37682, Note_on_c, 0, 60, 46
2, 37685, Note_on_c, 0, 51, 21
2, 37688, Note_on_c, 0, 56, 43
2, 37698, Note_on_c, 0, 60, 0
2, 37699, Note_on_c, 0, 63, 0
2, 37701, Note_on_c, 0, 56, 0
2, 37705, Note_on_c, 0, 51, 0
2, 37746, Note_on_c, 0, 60, 42
2, 37747, Note_on_c, 0, 63, 21
2, 37751, Note_on_c, 0, 51, 30
2, 37758, Note_on_c, 0, 56, 23
2, 37761, Note_on_c, 0, 60, 0
2, 37763, Note_on_c, 0, 63, 0
2, 37770, Note_on_c, 0, 51, 0
2, 37774, Note_on_c, 0, 56, 0
2, 37806, Note_on_c, 0, 58, 69
2, 37818, Note_on_c, 0, 56, 13
2, 37819, Note_on_c, 0, 51, 13
2, 37824, Note_on_c, 0, 61, 10
2, 37835, Note_on_c, 0, 56, 0
2, 37836, Note_on_c, 0, 51, 0
2, 37836, Note_on_c, 0, 58, 0
2, 37837, Note_on_c, 0, 61, 0
2, 37870, Note_on_c, 0, 65, 64
2, 37870, Note_on_c, 0, 61, 35
2, 37872, Note_on_c, 0, 68, 0
2, 37877, Note_on_c, 0, 51, 29
2, 37885, Note_on_c, 0, 56, 10
2, 37892, Note_on_c, 0, 61, 0
2, 37895, Note_on_c, 0, 51, 0
2, 37896, Note_on_c, 0, 56, 0
2, 37935, Control_c, 0, 64, 0
2, 37938, Note_on_c, 0, 63, 30
2, 37938, Note_on_c, 0, 51, 33
2, 37941, Note_on_c, 0, 68, 73
2, 37945, Note_on_c, 0, 60, 53
2, 37950, Note_on_c, 0, 56, 30
2, 37953, Note_on_c, 0, 65, 0
2, 37962, Note_on_c, 0, 63, 0
2, 37963, Note_on_c, 0, 51, 0
2, 37966, Note_on_c, 0, 56, 0
2, 37969, Note_on_c, 0, 60, 0
2, 37969, Control_c, 0, 64, 127
2, 38005, Note_on_c, 0, 63, 33
2, 38008, Note_on_c, 0, 60, 31
2, 38009, Note_on_c, 0, 51, 27
2, 38013, Note_on_c, 0, 56, 36
2, 38021, Note_on_c, 0, 63, 0
2, 38024, Note_on_c, 0, 60, 0
2, 38027, Note_on_c, 0, 56, 0
2, 38028, Note_on_c, 0, 51, 0
2, 38076, Note_on_c, 0, 58, 61
2, 38082, Note_on_c, 0, 51, 43
2, 38085, Note_on_c, 0, 63, 18
2, 38088, Note_on_c, 0, 55, 32
2, 38092, Note_on_c, 0, 68, 0
2, 38097, Note_on_c, 0, 58, 0
2, 38098, Note_on_c, 0, 51, 0
2, 38100, Note_on_c, 0, 63, 0
2, 38105, Note_on_c, 0, 55, 0
2, 38139, Control_c, 0, 64, 0
2, 38142, Note_on_c, 0, 60, 62
2, 38143, Note_on_c, 0, 68, 62
2, 38144, Note_on_c, 0, 63, 34
2, 38145, Note_on_c, 0, 51, 37
2, 38145, Note_on_c, 0, 56, 46
2, 38163, Note_on_c, 0, 63, 0
2, 38164, Note_on_c, 0, 56, 0
2, 38165, Note_on_c, 0, 51, 0
2, 38173, Control_c, 0, 64, 127
2, 38197, Note_on_c, 0, 51, 39
2, 38197, Note_on_c, 0, 63, 35
2, 38199, Note_on_c, 0, 56, 36
2, 38205, Note_on_c, 0, 60, 0
2, 38216, Note_on_c, 0, 51, 0
2, 38218, Note_on_c, 0, 63, 0
2, 38222, Note_on_c, 0, 56, 0
2, 38263, Note_on_c, 0, 68, 0
2, 38266, Note_on_c, 0, 58, 59
2, 38268, Note_on_c, 0, 51, 34
2, 38269, Note_on_c, 0, 63, 23
2, 38280, Note_on_c, 0, 55, 22
2, 38285, Note_on_c, 0, 58, 0
2, 38288, Note_on_c, 0, 51, 0
2, 38290, Note_on_c, 0, 63, 0
2, 38298, Note_on_c, 0, 55, 0
2, 38334, Control_c, 0, 64, 0
2, 38337, Note_on_c, 0, 51, 33
2, 38337, Note_on_c, 0, 63, 33
2, 38339, Note_on_c, 0, 68, 59
2, 38342, Note_on_c, 0, 60, 39
2, 38344, Note_on_c, 0, 56, 47
2, 38362, Note_on_c, 0, 63, 0
2, 38367, Note_on_c, 0, 51, 0
2, 38367, Note_on_c, 0, 56, 0
2, 38373, Control_c, 0, 64, 127
2, 38393, Note_on_c, 0, 60, 0
2, 38402, Note_on_c, 0, 63, 36
2, 38403, Note_on_c, 0, 51, 29
2, 38406, Note_on_c, 0, 56, 34
2, 38422, Note_on_c, 0, 51, 0
2, 38423, Note_on_c, 0, 63, 0
2, 38425, Note_on_c, 0, 56, 0
2, 38451, Note_on_c, 0, 68, 0
2, 38473, Note_on_c, 0, 63, 36
2, 38476, Note_on_c, 0, 58, 38
2, 38484, Note_on_c, 0, 55, 12
2, 38485, Note_on_c, 0, 51, 21
2, 38494, Note_on_c, 0, 63, 0
2, 38497, Note_on_c, 0, 58, 0
2, 38500, Note_on_c, 0, 55, 0
2, 38501, Note_on_c, 0, 51, 0
2, 38553, Control_c, 0, 64, 0
2, 38555, Note_on_c, 0, 63, 26
2, 38558, Note_on_c, 0, 51, 16
2, 38559, Note_on_c, 0, 60, 34
2, 38560, Note_on_c, 0, 68, 38
2, 38562, Note_on_c, 0, 56, 43
2, 38580, Note_on_c, 0, 56, 0
2, 38582, Note_on_c, 0, 63, 0
2, 38585, Note_on_c, 0, 51, 0
2, 38592, Control_c, 0, 64, 127
2, 38620, Note_on_c, 0, 60, 0
2, 38629, Note_on_c, 0, 63, 28
2, 38631, Note_on_c, 0, 51, 30
2, 38632, Note_on_c, 0, 56, 36
2, 38649, Note_on_c, 0, 63, 0
2, 38650, Note_on_c, 0, 56, 0
2, 38651, Note_on_c, 0, 51, 0
2, 38722, Note_on_c, 0, 58, 36
2, 38727, Note_on_c, 0, 51, 18
2, 38728, Note_on_c, 0, 55, 36
2, 38735, Note_on_c, 0, 63, 28
2, 38746, Note_on_c, 0, 55, 0
2, 38760, Note_on_c, 0, 63, 0
2, 38764, Note_on_c, 0, 51, 0
2, 38777, Note_on_c, 0, 58, 0
2, 38850, Note_on_c, 0, 32, 70
2, 38860, Note_on_c, 0, 68, 0
2, 38868, Control_c, 0, 64, 0
2, 38914, Control_c, 0, 64, 127
2, 38916, Note_on_c, 0, 32, 0
2, 39019, Note_on_c, 0, 51, 28
2, 39022, Note_on_c, 0, 63, 27
2, 39022, Note_on_c, 0, 60, 55
2, 39027, Note_on_c, 0, 56, 43
2, 39045, Note_on_c, 0, 56, 0
2, 39055, Note_on_c, 0, 63, 0
2, 39064, Note_on_c, 0, 51, 0
2, 39065, Note_on_c, 0, 60, 0
2, 39133, Note_on_c, 0, 63, 34
2, 39136, Note_on_c, 0, 51, 29
2, 39138, Note_on_c, 0, 60, 49
2, 39142, Note_on_c, 0, 56, 32
2, 39159, Note_on_c, 0, 56, 0
2, 39165, Note_on_c, 0, 60, 0
2, 39165, Note_on_c, 0, 63, 0
2, 39172, Note_on_c, 0, 51, 0
2, 39237, Note_on_c, 0, 60, 51
2, 39237, Note_on_c, 0, 63, 18
2, 39240, Note_on_c, 0, 56, 33
2, 39241, Note_on_c, 0, 51, 15
2, 39258, Note_on_c, 0, 56, 0
2, 39261, Note_on_c, 0, 51, 0
2, 39261, Note_on_c, 0, 63, 0
2, 39268, Note_on_c, 0, 60, 0
2, 39315, Note_on_c, 0, 63, 25
2, 39317, Note_on_c, 0, 51, 23
2, 39319, Note_on_c, 0, 60, 44
2, 39325, Note_on_c, 0, 56, 36
2, 39338, Note_on_c, 0, 63, 0
2, 39341, Note_on_c, 0, 56, 0
2, 39342, Note_on_c, 0, 51, 0
2, 39346, Note_on_c, 0, 60, 0
2, 39394, Note_on_c, 0, 63, 29
2, 39396, Note_on_c, 0, 60, 37
2, 39400, Note_on_c, 0, 56, 30
2, 39400, Note_on_c, 0, 51, 25
2, 39419, Note_on_c, 0, 63, 0
2, 39421, Note_on_c, 0, 56, 0
2, 39422, Note_on_c, 0, 51, 0
2, 39425, Note_on_c, 0, 60, 0
2, 39474, Note_on_c, 0, 56, 28
2, 39474, Note_on_c, 0, 51, 18
2, 39475, Note_on_c, 0, 60, 31
2, 39477, Note_on_c, 0, 63, 22
2, 39498, Note_on_c, 0, 63, 0
2, 39501, Note_on_c, 0, 56, 0
2, 39502, Note_on_c, 0, 51, 0
2, 39504, Note_on_c, 0, 60, 0
2, 39567, Note_on_c, 0, 63, 10
2, 39570, Note_on_c, 0, 51, 18
2, 39571, Note_on_c, 0, 60, 17
2, 39573, Note_on_c, 0, 56, 27
2, 39591, Note_on_c, 0, 56, 0
2, 39592, Note_on_c, 0, 63, 0
2, 39594, Note_on_c, 0, 51, 0
2, 39595, Note_on_c, 0, 60, 0
2, 39658, Note_on_c, 0, 60, 29
2, 39663, Note_on_c, 0, 56, 20
2, 39664, Note_on_c, 0, 63, 10
2, 39666, Note_on_c, 0, 51, 21
2, 39683, Note_on_c, 0, 56, 0
2, 39691, Note_on_c, 0, 63, 0
2, 39692, Note_on_c, 0, 51, 0
2, 39695, Note_on_c, 0, 60, 0
2, 39763, Note_on_c, 0, 60, 31
2, 39765, Note_on_c, 0, 63, 10
2, 39769, Note_on_c, 0, 51, 18
2, 39783, Note_on_c, 0, 56, 14
2, 39794, Note_on_c, 0, 63, 0
2, 39802, Note_on_c, 0, 51, 0
2, 39803, Note_on_c, 0, 56, 0
2, 39815, Note_on_c, 0, 60, 0
2, 39871, Note_on_c, 0, 63, 27
2, 39896, Note_on_c, 0, 63, 0
2, 39904, Note_on_c, 0, 61, 28
2, 39916, Note_on_c, 0, 56, 24
2, 39921, Note_on_c, 0, 51, 24
2, 39954, Note_on_c, 0, 51, 0
2, 39960, Note_on_c, 0, 56, 0
2, 39975, Note_on_c, 0, 61, 0
2, 40091, Note_on_c, 0, 51, 14
2, 40093, Note_on_c, 0, 60, 25
2, 40101, Note_on_c, 0, 63, 10
2, 40106, Note_on_c, 0, 56, 13
2, 40141, Note_on_c, 0, 63, 0
2, 40143, Note_on_c, 0, 56, 0
2, 40147, Note_on_c, 0, 60, 0
2, 40206, Note_on_c, 0, 51, 0
2, 40449, Note_on_c, 0, 63, 23
2, 40453, Note_on_c, 0, 51, 12
2, 40454, Note_on_c, 0, 60, 20
2, 40456, Note_on_c, 0, 56, 17
2, 40462, Note_on_c, 0, 32, 10
2, 40720, Control_c, 0, 64, 0
2, 40762, Control_c, 0, 64, 127
2, 40847, Control_c, 0, 64, 0
2, 40909, Control_c, 0, 64, 127
2, 41031, Control_c, 0, 64, 0
2, 41654, Note_on_c, 0, 51, 0
2, 41701, Note_on_c, 0, 56, 0
2, 41702, Note_on_c, 0, 60, 0
2, 41706, Note_on_c, 0, 32, 0
2, 41712, Note_on_c, 0, 63, 0
2, 41712, End_track
0, 0, End_of_file
