0, 0, Header, 1, 2, 120
1, 0, Start_track
1, 0, Time_signature, 4, 2, 24, 8
1, 0, Key_signature, -4, "major"
1, 0, Tempo, 500000
1, 0, End_track
2, 0, Start_track
2, 0, MIDI_port, 0
2, 0, Title_t, "  "
2, 0, Note_on_c, 0, 60, 42
2, 25, Note_on_c, 0, 61, 66
2, 36, Note_on_c, 0, 60, 0
2, 58, Note_on_c, 0, 57, 61
2, 62, Note_on_c, 0, 61, 0
2, 79, Note_on_c, 0, 58, 87
2, 88, Note_on_c, 0, 57, 0
2, 112, Note_on_c, 0, 58, 0
2, 113, Note_on_c, 0, 55, 89
2, 140, Note_on_c, 0, 58, 74
2, 149, Note_on_c, 0, 55, 0
2, 164, Control_c, 0, 64, 127
2, 167, Note_on_c, 0, 58, 0
2, 171, Note_on_c, 0, 67, 83
2, 196, Note_on_c, 0, 65, 89
2, 198, Note_on_c, 0, 67, 0
2, 205, Note_on_c, 0, 65, 0
2, 225, Note_on_c, 0, 65, 66
2, 276, Control_c, 0, 64, 0
2, 288, Note_on_c, 0, 58, 63
2, 293, Note_on_c, 0, 49, 41
2, 293, Note_on_c, 0, 36, 43
2, 295, Note_on_c, 0, 55, 55
2, 313, Note_on_c, 0, 58, 0
2, 319, Note_on_c, 0, 55, 0
2, 323, Note_on_c, 0, 36, 0
2, 324, Note_on_c, 0, 49, 0
2, 333, Control_c, 0, 64, 127
2, 375, Note_on_c, 0, 55, 36
2, 376, Note_on_c, 0, 58, 60
2, 378, Note_on_c, 0, 49, 45
2, 385, Note_on_c, 0, 36, 34
2, 400, Note_on_c, 0, 58, 0
2, 402, Note_on_c, 0, 55, 0
2, 406, Note_on_c, 0, 36, 0
2, 411, Note_on_c, 0, 49, 0
2, 452, Note_on_c, 0, 64, 59
2, 456, Note_on_c, 0, 65, 0
2, 471, Note_on_c, 0, 64, 0
2, 509, Note_on_c, 0, 60, 74
2, 533, Control_c, 0, 64, 0
2, 537, Note_on_c, 0, 61, 84
2, 551, Note_on_c, 0, 60, 0
2, 565, Note_on_c, 0, 57, 89
2, 572, Note_on_c, 0, 61, 0
2, 591, Note_on_c, 0, 58, 101
2, 594, Note_on_c, 0, 57, 0
2, 621, Note_on_c, 0, 55, 98
2, 622, Note_on_c, 0, 58, 0
2, 647, Note_on_c, 0, 58, 87
2, 649, Note_on_c, 0, 55, 0
2, 669, Note_on_c, 0, 58, 0
2, 672, Control_c, 0, 64, 127
2, 683, Note_on_c, 0, 67, 89
2, 713, Note_on_c, 0, 67, 0
2, 714, Note_on_c, 0, 65, 91
2, 723, Note_on_c, 0, 65, 0
2, 750, Note_on_c, 0, 65, 85
2, 798, Control_c, 0, 64, 0
2, 810, Note_on_c, 0, 58, 65
2, 810, Note_on_c, 0, 55, 61
2, 813, Note_on_c, 0, 49, 44
2, 816, Note_on_c, 0, 36, 40
2, 828, Note_on_c, 0, 58, 0
2, 842, Note_on_c, 0, 49, 0
2, 843, Note_on_c, 0, 36, 0
2, 847, Note_on_c, 0, 55, 0
2, 848, Control_c, 0, 64, 127
2, 888, Note_on_c, 0, 58, 59
2, 888, Note_on_c, 0, 49, 49
2, 889, Note_on_c, 0, 36, 46
2, 892, Note_on_c, 0, 55, 44
2, 906, Note_on_c, 0, 55, 0
2, 910, Note_on_c, 0, 58, 0
2, 911, Note_on_c, 0, 49, 0
2, 914, Note_on_c, 0, 36, 0
2, 972, Note_on_c, 0, 64, 75
2, 985, Note_on_c, 0, 65, 0
2, 1027, Note_on_c, 0, 64, 0
2, 1041, Note_on_c, 0, 60, 80
2, 1059, Control_c, 0, 64, 0
2, 1070, Note_on_c, 0, 61, 83
2, 1080, Note_on_c, 0, 60, 0
2, 1104, Note_on_c, 0, 57, 53
2, 1105, Note_on_c, 0, 61, 0
2, 1113, Control_c, 0, 64, 127
2, 1128, Note_on_c, 0, 57, 0
2, 1128, Note_on_c, 0, 58, 91
2, 1148, Control_c, 0, 64, 0
2, 1157, Note_on_c, 0, 58, 0
2, 1158, Note_on_c, 0, 55, 93
2, 1177, Note_on_c, 0, 58, 74
2, 1185, Note_on_c, 0, 55, 0
2, 1201, Control_c, 0, 64, 127
2, 1205, Note_on_c, 0, 58, 0
2, 1208, Note_on_c, 0, 67, 87
2, 1232, Note_on_c, 0, 65, 95
2, 1240, Control_c, 0, 64, 0
2, 1241, Note_on_c, 0, 67, 0
2, 1261, Note_on_c, 0, 65, 0
2, 1261, Note_on_c, 0, 63, 92
2, 1286, Control_c, 0, 64, 127
2, 1288, Note_on_c, 0, 63, 0
2, 1288, Note_on_c, 0, 64, 98
2, 1311, Note_on_c, 0, 70, 102
2, 1312, Note_on_c, 0, 64, 0
2, 1312, Note_on_c, 0, 58, 84
2, 1317, Control_c, 0, 64, 0
2, 1341, Note_on_c, 0, 68, 92
2, 1341, Note_on_c, 0, 56, 81
2, 1344, Note_on_c, 0, 58, 0
2, 1356, Note_on_c, 0, 70, 0
2, 1364, Note_on_c, 0, 66, 95
2, 1370, Note_on_c, 0, 54, 60
2, 1374, Note_on_c, 0, 68, 0
2, 1374, Control_c, 0, 64, 127
2, 1375, Note_on_c, 0, 56, 0
2, 1385, Note_on_c, 0, 54, 0
2, 1390, Note_on_c, 0, 67, 97
2, 1391, Note_on_c, 0, 55, 73
2, 1393, Note_on_c, 0, 66, 0
2, 1408, Note_on_c, 0, 55, 0
2, 1414, Note_on_c, 0, 67, 0
2, 1414, Note_on_c, 0, 61, 85
2, 1416, Note_on_c, 0, 73, 97
2, 1439, Note_on_c, 0, 60, 86
2, 1440, Control_c, 0, 64, 0
2, 1440, Note_on_c, 0, 72, 94
2, 1455, Note_on_c, 0, 61, 0
2, 1456, Note_on_c, 0, 73, 0
2, 1464, Note_on_c, 0, 69, 103
2, 1465, Note_on_c, 0, 57, 76
2, 1468, Note_on_c, 0, 72, 0
2, 1471, Note_on_c, 0, 60, 0
2, 1488, Note_on_c, 0, 57, 0
2, 1488, Note_on_c, 0, 58, 98
2, 1489, Note_on_c, 0, 69, 0
2, 1492, Note_on_c, 0, 70, 106
2, 1494, Control_c, 0, 64, 127
2, 1497, Note_on_c, 0, 58, 0
2, 1499, Note_on_c, 0, 70, 0
2, 1530, Note_on_c, 0, 85, 107
2, 1531, Note_on_c, 0, 73, 94
2, 1555, Note_on_c, 0, 73, 0
2, 1561, Note_on_c, 0, 79, 100
2, 1563, Note_on_c, 0, 67, 94
2, 1573, Note_on_c, 0, 85, 0
2, 1582, Control_c, 0, 64, 0
2, 1594, Note_on_c, 0, 72, 92
2, 1594, Note_on_c, 0, 84, 108
2, 1601, Note_on_c, 0, 79, 0
2, 1602, Note_on_c, 0, 67, 0
2, 1618, Note_on_c, 0, 70, 96
2, 1621, Note_on_c, 0, 72, 0
2, 1624, Note_on_c, 0, 82, 108
2, 1641, Note_on_c, 0, 84, 0
2, 1646, Note_on_c, 0, 68, 83
2, 1647, Control_c, 0, 64, 127
2, 1650, Note_on_c, 0, 80, 92
2, 1653, Note_on_c, 0, 70, 0
2, 1667, Note_on_c, 0, 82, 0
2, 1671, Note_on_c, 0, 68, 0
2, 1676, Note_on_c, 0, 79, 96
2, 1680, Note_on_c, 0, 67, 68
2, 1686, Control_c, 0, 64, 0
2, 1689, Note_on_c, 0, 80, 0
2, 1692, Note_on_c, 0, 67, 0
2, 1701, Note_on_c, 0, 79, 0
2, 1701, Note_on_c, 0, 77, 100
2, 1701, Note_on_c, 0, 65, 87
2, 1722, Note_on_c, 0, 65, 0
2, 1725, Note_on_c, 0, 77, 0
2, 1726, Note_on_c, 0, 64, 77
2, 1728, Note_on_c, 0, 76, 98
2, 1735, Note_on_c, 0, 64, 0
2, 1735, Control_c, 0, 64, 127
2, 1741, Note_on_c, 0, 76, 0
2, 1747, Note_on_c, 0, 67, 86
2, 1753, Note_on_c, 0, 79, 91
2, 1762, Note_on_c, 0, 67, 0
2, 1776, Note_on_c, 0, 58, 91
2, 1781, Note_on_c, 0, 70, 98
2, 1785, Note_on_c, 0, 79, 0
2, 1789, Control_c, 0, 64, 0
2, 1801, Note_on_c, 0, 71, 86
2, 1803, Note_on_c, 0, 59, 76
2, 1806, Note_on_c, 0, 70, 0
2, 1813, Note_on_c, 0, 58, 0
2, 1824, Note_on_c, 0, 72, 100
2, 1827, Note_on_c, 0, 59, 0
2, 1827, Note_on_c, 0, 60, 84
2, 1828, Note_on_c, 0, 71, 0
2, 1843, Note_on_c, 0, 60, 0
2, 1843, Control_c, 0, 64, 127
2, 1848, Note_on_c, 0, 73, 88
2, 1849, Note_on_c, 0, 61, 78
2, 1851, Note_on_c, 0, 72, 0
2, 1866, Note_on_c, 0, 61, 0
2, 1870, Control_c, 0, 64, 0
2, 1873, Note_on_c, 0, 73, 0
2, 1874, Note_on_c, 0, 67, 97
2, 1880, Note_on_c, 0, 55, 80
2, 1892, Note_on_c, 0, 55, 0
2, 1896, Note_on_c, 0, 67, 0
2, 1899, Note_on_c, 0, 72, 92
2, 1902, Note_on_c, 0, 60, 74
2, 1921, Note_on_c, 0, 60, 0
2, 1933, Note_on_c, 0, 72, 0
2, 1933, Note_on_c, 0, 70, 81
2, 1936, Note_on_c, 0, 58, 73
2, 1966, Note_on_c, 0, 58, 0
2, 1970, Note_on_c, 0, 69, 73
2, 1974, Note_on_c, 0, 70, 0
2, 1978, Note_on_c, 0, 57, 44
2, 1989, Control_c, 0, 64, 127
2, 1991, Note_on_c, 0, 69, 0
2, 1997, Note_on_c, 0, 65, 73
2, 2012, Note_on_c, 0, 65, 0
2, 2020, Control_c, 0, 64, 0
2, 2020, Note_on_c, 0, 66, 79
2, 2027, Note_on_c, 0, 57, 0
2, 2047, Note_on_c, 0, 62, 87
2, 2049, Note_on_c, 0, 66, 0
2, 2075, Note_on_c, 0, 62, 0
2, 2075, Note_on_c, 0, 63, 89
2, 2106, Note_on_c, 0, 63, 0
2, 2109, Note_on_c, 0, 72, 91
2, 2120, Control_c, 0, 64, 127
2, 2143, Note_on_c, 0, 70, 89
2, 2149, Note_on_c, 0, 72, 0
2, 2155, Note_on_c, 0, 70, 0
2, 2185, Note_on_c, 0, 70, 75
2, 2247, Control_c, 0, 64, 0
2, 2249, Note_on_c, 0, 63, 44
2, 2251, Note_on_c, 0, 60, 43
2, 2253, Note_on_c, 0, 54, 38
2, 2254, Note_on_c, 0, 41, 41
2, 2267, Note_on_c, 0, 63, 0
2, 2283, Note_on_c, 0, 54, 0
2, 2283, Note_on_c, 0, 41, 0
2, 2283, Note_on_c, 0, 60, 0
2, 2289, Control_c, 0, 64, 127
2, 2322, Note_on_c, 0, 60, 48
2, 2324, Note_on_c, 0, 41, 38
2, 2325, Note_on_c, 0, 63, 43
2, 2325, Note_on_c, 0, 54, 42
2, 2358, Note_on_c, 0, 41, 0
2, 2361, Note_on_c, 0, 70, 0
2, 2362, Note_on_c, 0, 54, 0
2, 2364, Note_on_c, 0, 60, 0
2, 2381, Note_on_c, 0, 69, 75
2, 2403, Note_on_c, 0, 63, 0
2, 2437, Note_on_c, 0, 65, 89
2, 2438, Note_on_c, 0, 69, 0
2, 2454, Control_c, 0, 64, 0
2, 2467, Note_on_c, 0, 66, 88
2, 2475, Note_on_c, 0, 65, 0
2, 2496, Note_on_c, 0, 62, 86
2, 2506, Note_on_c, 0, 66, 0
2, 2508, Control_c, 0, 64, 127
2, 2520, Note_on_c, 0, 63, 82
2, 2521, Note_on_c, 0, 62, 0
2, 2551, Note_on_c, 0, 63, 0
2, 2551, Note_on_c, 0, 60, 91
2, 2581, Note_on_c, 0, 63, 78
2, 2584, Note_on_c, 0, 60, 0
2, 2584, Control_c, 0, 64, 0
2, 2616, Note_on_c, 0, 63, 0
2, 2616, Note_on_c, 0, 72, 84
2, 2635, Control_c, 0, 64, 127
2, 2654, Note_on_c, 0, 70, 84
2, 2658, Note_on_c, 0, 72, 0
2, 2665, Note_on_c, 0, 70, 0
2, 2704, Note_on_c, 0, 70, 71
2, 2766, Note_on_c, 0, 54, 29
2, 2768, Note_on_c, 0, 60, 51
2, 2769, Note_on_c, 0, 63, 42
2, 2769, Note_on_c, 0, 41, 35
2, 2787, Note_on_c, 0, 63, 0
2, 2792, Note_on_c, 0, 60, 0
2, 2793, Note_on_c, 0, 41, 0
2, 2796, Note_on_c, 0, 54, 0
2, 2846, Note_on_c, 0, 60, 41
2, 2847, Note_on_c, 0, 63, 36
2, 2848, Note_on_c, 0, 54, 21
2, 2852, Note_on_c, 0, 41, 36
2, 2854, Control_c, 0, 64, 0
2, 2885, Note_on_c, 0, 41, 0
2, 2894, Note_on_c, 0, 54, 0
2, 2896, Control_c, 0, 64, 127
2, 2899, Note_on_c, 0, 70, 0
2, 2919, Note_on_c, 0, 69, 55
2, 2930, Note_on_c, 0, 60, 0
2, 2954, Note_on_c, 0, 63, 0
2, 2974, Note_on_c, 0, 69, 0
2, 2979, Note_on_c, 0, 65, 67
2, 3013, Note_on_c, 0, 66, 73
2, 3018, Note_on_c, 0, 65, 0
2, 3050, Note_on_c, 0, 62, 44
2, 3053, Note_on_c, 0, 66, 0
2, 3069, Note_on_c, 0, 62, 0
2, 3073, Control_c, 0, 64, 0
2, 3074, Note_on_c, 0, 63, 71
2, 3103, Note_on_c, 0, 63, 0
2, 3103, Note_on_c, 0, 60, 80
2, 3123, Control_c, 0, 64, 127
2, 3124, Note_on_c, 0, 63, 62
2, 3128, Note_on_c, 0, 60, 0
2, 3150, Note_on_c, 0, 63, 0
2, 3153, Note_on_c, 0, 60, 51
2, 3154, Note_on_c, 0, 72, 85
2, 3178, Note_on_c, 0, 70, 95
2, 3181, Note_on_c, 0, 72, 0
2, 3185, Note_on_c, 0, 58, 82
2, 3190, Note_on_c, 0, 60, 0
2, 3192, Control_c, 0, 64, 0
2, 3207, Note_on_c, 0, 68, 92
2, 3214, Note_on_c, 0, 70, 0
2, 3217, Note_on_c, 0, 58, 0
2, 3217, Note_on_c, 0, 56, 57
2, 3229, Note_on_c, 0, 68, 0
2, 3232, Note_on_c, 0, 69, 92
2, 3235, Note_on_c, 0, 56, 0
2, 3235, Note_on_c, 0, 57, 61
2, 3238, Control_c, 0, 64, 127
2, 3246, Note_on_c, 0, 57, 0
2, 3247, Note_on_c, 0, 69, 0
2, 3261, Note_on_c, 0, 78, 92
2, 3262, Note_on_c, 0, 66, 93
2, 3286, Note_on_c, 0, 77, 100
2, 3287, Note_on_c, 0, 65, 98
2, 3299, Control_c, 0, 64, 0
2, 3300, Note_on_c, 0, 78, 0
2, 3306, Note_on_c, 0, 66, 0
2, 3312, Note_on_c, 0, 74, 97
2, 3316, Note_on_c, 0, 77, 0
2, 3316, Note_on_c, 0, 62, 82
2, 3321, Note_on_c, 0, 65, 0
2, 3331, Note_on_c, 0, 63, 85
2, 3332, Note_on_c, 0, 62, 0
2, 3333, Note_on_c, 0, 74, 0
2, 3337, Note_on_c, 0, 75, 89
2, 3341, Note_on_c, 0, 63, 0
2, 3342, Control_c, 0, 64, 127
2, 3345, Note_on_c, 0, 75, 0
2, 3368, Note_on_c, 0, 85, 95
2, 3368, Note_on_c, 0, 73, 90
2, 3395, Note_on_c, 0, 72, 96
2, 3396, Note_on_c, 0, 73, 0
2, 3399, Note_on_c, 0, 84, 101
2, 3405, Note_on_c, 0, 85, 0
2, 3411, Control_c, 0, 64, 0
2, 3423, Note_on_c, 0, 70, 81
2, 3424, Note_on_c, 0, 84, 0
2, 3424, Note_on_c, 0, 82, 101
2, 3433, Note_on_c, 0, 72, 0
2, 3445, Note_on_c, 0, 70, 0
2, 3446, Note_on_c, 0, 82, 0
2, 3451, Note_on_c, 0, 81, 103
2, 3452, Note_on_c, 0, 69, 100
2, 3465, Control_c, 0, 64, 127
2, 3469, Note_on_c, 0, 81, 0
2, 3473, Note_on_c, 0, 87, 100
2, 3474, Note_on_c, 0, 69, 0
2, 3474, Note_on_c, 0, 75, 90
2, 3486, Note_on_c, 0, 75, 0
2, 3495, Note_on_c, 0, 87, 0
2, 3502, Note_on_c, 0, 76, 108
2, 3504, Note_on_c, 0, 64, 104
2, 3524, Note_on_c, 0, 76, 0
2, 3528, Note_on_c, 0, 77, 105
2, 3531, Note_on_c, 0, 65, 97
2, 3542, Note_on_c, 0, 64, 0
2, 3554, Note_on_c, 0, 77, 0
2, 3555, Note_on_c, 0, 78, 97
2, 3556, Note_on_c, 0, 66, 91
2, 3558, Note_on_c, 0, 65, 0
2, 3577, Note_on_c, 0, 72, 103
2, 3579, Note_on_c, 0, 78, 0
2, 3582, Note_on_c, 0, 60, 83
2, 3583, Note_on_c, 0, 66, 0
2, 3599, Control_c, 0, 64, 0
2, 3599, Note_on_c, 0, 61, 93
2, 3600, Note_on_c, 0, 73, 97
2, 3602, Note_on_c, 0, 60, 0
2, 3610, Note_on_c, 0, 72, 0
2, 3626, Note_on_c, 0, 77, 103
2, 3628, Note_on_c, 0, 65, 88
2, 3632, Note_on_c, 0, 61, 0
2, 3632, Note_on_c, 0, 73, 0
2, 3654, Note_on_c, 0, 75, 88
2, 3657, Control_c, 0, 64, 127
2, 3657, Note_on_c, 0, 63, 85
2, 3661, Note_on_c, 0, 65, 0
2, 3666, Note_on_c, 0, 77, 0
2, 3678, Note_on_c, 0, 61, 78
2, 3680, Note_on_c, 0, 73, 95
2, 3686, Note_on_c, 0, 63, 0
2, 3690, Note_on_c, 0, 75, 0
2, 3696, Note_on_c, 0, 61, 0
2, 3703, Note_on_c, 0, 60, 87
2, 3706, Note_on_c, 0, 73, 0
2, 3706, Note_on_c, 0, 72, 92
2, 3729, Note_on_c, 0, 58, 101
2, 3730, Note_on_c, 0, 70, 101
2, 3732, Note_on_c, 0, 60, 0
2, 3733, Note_on_c, 0, 72, 0
2, 3752, Note_on_c, 0, 57, 78
2, 3755, Note_on_c, 0, 58, 0
2, 3757, Note_on_c, 0, 69, 100
2, 3760, Control_c, 0, 64, 0
2, 3764, Note_on_c, 0, 70, 0
2, 3776, Note_on_c, 0, 57, 0
2, 3777, Note_on_c, 0, 60, 89
2, 3779, Note_on_c, 0, 72, 78
2, 3780, Note_on_c, 0, 69, 0
2, 3795, Control_c, 0, 64, 127
2, 3796, Note_on_c, 0, 60, 0
2, 3800, Note_on_c, 0, 72, 0
2, 3801, Note_on_c, 0, 64, 94
2, 3801, Note_on_c, 0, 52, 96
2, 3821, Note_on_c, 0, 65, 95
2, 3822, Note_on_c, 0, 53, 87
2, 3825, Note_on_c, 0, 52, 0
2, 3837, Note_on_c, 0, 64, 0
2, 3844, Note_on_c, 0, 66, 92
2, 3844, Note_on_c, 0, 54, 93
2, 3849, Note_on_c, 0, 65, 0
2, 3849, Note_on_c, 0, 53, 0
2, 3867, Note_on_c, 0, 60, 100
2, 3869, Note_on_c, 0, 54, 0
2, 3870, Note_on_c, 0, 66, 0
2, 3872, Note_on_c, 0, 48, 97
2, 3889, Note_on_c, 0, 65, 100
2, 3896, Note_on_c, 0, 53, 89
2, 3897, Note_on_c, 0, 48, 0
2, 3897, Note_on_c, 0, 60, 0
2, 3909, Note_on_c, 0, 63, 95
2, 3910, Control_c, 0, 64, 0
2, 3913, Note_on_c, 0, 51, 95
2, 3920, Note_on_c, 0, 65, 0
2, 3921, Note_on_c, 0, 53, 0
2, 3933, Control_c, 0, 64, 127
2, 3933, Note_on_c, 0, 61, 99
2, 3937, Note_on_c, 0, 49, 98
2, 3943, Note_on_c, 0, 63, 0
2, 3945, Note_on_c, 0, 51, 0
2, 3962, Note_on_c, 0, 60, 118
2, 3965, Note_on_c, 0, 48, 115
2, 3969, Note_on_c, 0, 61, 0
2, 3969, Note_on_c, 0, 49, 0
2, 4021, Control_c, 0, 64, 0
2, 4030, Note_on_c, 0, 58, 115
2, 4033, Note_on_c, 0, 46, 116
2, 4041, Note_on_c, 0, 48, 0
2, 4042, Note_on_c, 0, 60, 0
2, 4072, Control_c, 0, 64, 127
2, 4074, Note_on_c, 0, 46, 0
2, 4081, Note_on_c, 0, 58, 0
2, 4119, Note_on_c, 0, 58, 110
2, 4120, Note_on_c, 0, 65, 115
2, 4120, Note_on_c, 0, 53, 110
2, 4120, Note_on_c, 0, 61, 100
2, 4120, Note_on_c, 0, 55, 114
2, 4123, Note_on_c, 0, 34, 113
2, 4123, Note_on_c, 0, 46, 120
2, 4129, Note_on_c, 0, 46, 0
2, 4129, Note_on_c, 0, 34, 0
2, 4171, Note_on_c, 0, 53, 0
2, 4172, Note_on_c, 0, 55, 0
2, 4184, Note_on_c, 0, 58, 0
2, 4192, Note_on_c, 0, 61, 0
2, 4197, Note_on_c, 0, 65, 0
2, 4294, Control_c, 0, 64, 0
2, 4308, Note_on_c, 0, 73, 97
2, 4311, Note_on_c, 0, 61, 92
2, 4338, Note_on_c, 0, 61, 0
2, 4339, Note_on_c, 0, 55, 95
2, 4342, Note_on_c, 0, 67, 98
2, 4352, Note_on_c, 0, 73, 0
2, 4364, Note_on_c, 0, 56, 92
2, 4368, Note_on_c, 0, 68, 103
2, 4379, Note_on_c, 0, 55, 0
2, 4381, Note_on_c, 0, 67, 0
2, 4389, Note_on_c, 0, 57, 91
2, 4393, Note_on_c, 0, 69, 99
2, 4415, Note_on_c, 0, 56, 0
2, 4416, Note_on_c, 0, 68, 0
2, 4416, Note_on_c, 0, 60, 101
2, 4417, Note_on_c, 0, 72, 109
2, 4421, Note_on_c, 0, 57, 0
2, 4423, Note_on_c, 0, 69, 0
2, 4441, Note_on_c, 0, 58, 110
2, 4445, Note_on_c, 0, 70, 108
2, 4452, Note_on_c, 0, 60, 0
2, 4462, Note_on_c, 0, 56, 96
2, 4467, Note_on_c, 0, 68, 103
2, 4471, Note_on_c, 0, 72, 0
2, 4474, Note_on_c, 0, 58, 0
2, 4492, Note_on_c, 0, 70, 0
2, 4492, Note_on_c, 0, 55, 106
2, 4495, Note_on_c, 0, 67, 108
2, 4501, Note_on_c, 0, 56, 0
2, 4508, Note_on_c, 0, 68, 0
2, 4524, Note_on_c, 0, 53, 111
2, 4525, Note_on_c, 0, 65, 118
2, 4533, Note_on_c, 0, 55, 0
2, 4539, Note_on_c, 0, 67, 0
2, 4549, Note_on_c, 0, 52, 110
2, 4555, Note_on_c, 0, 64, 113
2, 4558, Note_on_c, 0, 53, 0
2, 4563, Note_on_c, 0, 65, 0
2, 4568, Note_on_c, 0, 52, 0
2, 4571, Control_c, 0, 64, 127
2, 4574, Note_on_c, 0, 64, 0
2, 4606, Control_c, 0, 64, 0
2, 4650, Note_on_c, 0, 58, 112
2, 4650, Note_on_c, 0, 55, 105
2, 4650, Note_on_c, 0, 64, 118
2, 4651, Note_on_c, 0, 61, 107
2, 4651, Note_on_c, 0, 46, 118
2, 4652, Note_on_c, 0, 34, 113
2, 4675, Control_c, 0, 64, 127
2, 4694, Note_on_c, 0, 34, 0
2, 4696, Note_on_c, 0, 46, 0
2, 4704, Note_on_c, 0, 55, 0
2, 4727, Note_on_c, 0, 58, 0
2, 4733, Note_on_c, 0, 61, 0
2, 4736, Note_on_c, 0, 64, 0
2, 4790, Control_c, 0, 64, 0
2, 4822, Note_on_c, 0, 80, 110
2, 4825, Note_on_c, 0, 68, 111
2, 4867, Note_on_c, 0, 58, 109
2, 4869, Note_on_c, 0, 70, 110
2, 4873, Note_on_c, 0, 68, 0
2, 4880, Note_on_c, 0, 80, 0
2, 4905, Note_on_c, 0, 70, 0
2, 4906, Note_on_c, 0, 80, 96
2, 4909, Control_c, 0, 64, 127
2, 4913, Note_on_c, 0, 68, 99
2, 4929, Note_on_c, 0, 58, 0
2, 4941, Note_on_c, 0, 68, 0
2, 4943, Note_on_c, 0, 80, 0
2, 4944, Note_on_c, 0, 67, 87
2, 4944, Note_on_c, 0, 79, 103
2, 4963, Control_c, 0, 64, 0
2, 4975, Note_on_c, 0, 64, 100
2, 4978, Note_on_c, 0, 76, 103
2, 4982, Note_on_c, 0, 67, 0
2, 4992, Note_on_c, 0, 79, 0
2, 4999, Note_on_c, 0, 73, 102
2, 5001, Note_on_c, 0, 61, 89
2, 5011, Note_on_c, 0, 64, 0
2, 5014, Note_on_c, 0, 76, 0
2, 5025, Note_on_c, 0, 58, 88
2, 5030, Note_on_c, 0, 70, 107
2, 5044, Control_c, 0, 64, 127
2, 5046, Note_on_c, 0, 73, 0
2, 5047, Note_on_c, 0, 55, 95
2, 5049, Note_on_c, 0, 61, 0
2, 5054, Note_on_c, 0, 58, 0
2, 5056, Note_on_c, 0, 67, 103
2, 5060, Note_on_c, 0, 55, 0
2, 5062, Note_on_c, 0, 70, 0
2, 5082, Note_on_c, 0, 67, 0
2, 5086, Note_on_c, 0, 64, 113
2, 5088, Note_on_c, 0, 52, 117
2, 5105, Control_c, 0, 64, 0
2, 5116, Note_on_c, 0, 65, 110
2, 5121, Note_on_c, 0, 53, 109
2, 5124, Note_on_c, 0, 52, 0
2, 5124, Note_on_c, 0, 64, 0
2, 5146, Note_on_c, 0, 65, 0
2, 5147, Control_c, 0, 64, 127
2, 5150, Note_on_c, 0, 53, 0
2, 5182, Control_c, 0, 64, 0
2, 5232, Note_on_c, 0, 65, 116
2, 5233, Note_on_c, 0, 53, 117
2, 5233, Note_on_c, 0, 60, 108
2, 5234, Note_on_c, 0, 44, 115
2, 5235, Note_on_c, 0, 32, 108
2, 5263, Control_c, 0, 64, 127
2, 5269, Note_on_c, 0, 44, 0
2, 5272, Note_on_c, 0, 53, 0
2, 5273, Note_on_c, 0, 32, 0
2, 5284, Note_on_c, 0, 60, 0
2, 5296, Note_on_c, 0, 65, 0
2, 5412, Control_c, 0, 64, 0
2, 5418, Note_on_c, 0, 84, 117
2, 5421, Note_on_c, 0, 72, 110
2, 5458, Note_on_c, 0, 77, 112
2, 5459, Note_on_c, 0, 65, 100
2, 5467, Note_on_c, 0, 72, 0
2, 5485, Control_c, 0, 64, 127
2, 5490, Note_on_c, 0, 78, 103
2, 5491, Note_on_c, 0, 66, 96
2, 5495, Note_on_c, 0, 77, 0
2, 5505, Note_on_c, 0, 65, 0
2, 5508, Note_on_c, 0, 84, 0
2, 5519, Note_on_c, 0, 79, 109
2, 5520, Note_on_c, 0, 67, 95
2, 5532, Note_on_c, 0, 78, 0
2, 5533, Note_on_c, 0, 66, 0
2, 5543, Control_c, 0, 64, 0
2, 5551, Note_on_c, 0, 70, 110
2, 5553, Note_on_c, 0, 67, 0
2, 5553, Note_on_c, 0, 82, 115
2, 5562, Note_on_c, 0, 79, 0
2, 5583, Note_on_c, 0, 68, 95
2, 5586, Note_on_c, 0, 80, 101
2, 5590, Note_on_c, 0, 70, 0
2, 5591, Note_on_c, 0, 68, 0
2, 5593, Control_c, 0, 64, 127
2, 5610, Note_on_c, 0, 82, 0
2, 5613, Note_on_c, 0, 65, 100
2, 5617, Note_on_c, 0, 77, 92
2, 5632, Note_on_c, 0, 80, 0
2, 5639, Note_on_c, 0, 62, 97
2, 5643, Note_on_c, 0, 65, 0
2, 5643, Note_on_c, 0, 74, 102
2, 5647, Note_on_c, 0, 77, 0
2, 5664, Note_on_c, 0, 74, 0
2, 5667, Note_on_c, 0, 62, 0
2, 5667, Note_on_c, 0, 60, 97
2, 5673, Note_on_c, 0, 72, 65
2, 5676, Note_on_c, 0, 60, 0
2, 5685, Note_on_c, 0, 72, 0
2, 5697, Note_on_c, 0, 60, 88
2, 5699, Note_on_c, 0, 72, 108
2, 5720, Control_c, 0, 64, 0
2, 5744, Note_on_c, 0, 60, 0
2, 5745, Note_on_c, 0, 71, 103
2, 5747, Note_on_c, 0, 59, 100
2, 5754, Note_on_c, 0, 72, 0
2, 5762, Control_c, 0, 64, 127
2, 5763, Note_on_c, 0, 59, 0
2, 5769, Note_on_c, 0, 71, 0
2, 5842, Control_c, 0, 64, 0
2, 5880, Note_on_c, 0, 68, 113
2, 5881, Note_on_c, 0, 56, 111
2, 5881, Note_on_c, 0, 62, 105
2, 5881, Note_on_c, 0, 59, 99
2, 5883, Note_on_c, 0, 29, 118
2, 5884, Note_on_c, 0, 41, 110
2, 5910, Note_on_c, 0, 29, 0
2, 5912, Note_on_c, 0, 41, 0
2, 5912, Control_c, 0, 64, 127
2, 5923, Note_on_c, 0, 56, 0
2, 5934, Note_on_c, 0, 59, 0
2, 5947, Note_on_c, 0, 62, 0
2, 5961, Note_on_c, 0, 68, 0
2, 6110, Note_on_c, 0, 92, 114
2, 6112, Note_on_c, 0, 80, 117
2, 6141, Note_on_c, 0, 80, 0
2, 6158, Note_on_c, 0, 92, 0
2, 6166, Note_on_c, 0, 86, 110
2, 6169, Note_on_c, 0, 74, 100
2, 6193, Note_on_c, 0, 87, 106
2, 6198, Note_on_c, 0, 75, 91
2, 6204, Note_on_c, 0, 86, 0
2, 6218, Note_on_c, 0, 74, 0
2, 6220, Note_on_c, 0, 88, 106
2, 6222, Note_on_c, 0, 76, 101
2, 6230, Note_on_c, 0, 87, 0
2, 6238, Note_on_c, 0, 75, 0
2, 6249, Note_on_c, 0, 91, 111
2, 6251, Note_on_c, 0, 76, 0
2, 6252, Note_on_c, 0, 79, 106
2, 6256, Note_on_c, 0, 88, 0
2, 6272, Note_on_c, 0, 79, 0
2, 6279, Note_on_c, 0, 89, 106
2, 6280, Note_on_c, 0, 77, 106
2, 6295, Note_on_c, 0, 91, 0
2, 6307, Note_on_c, 0, 77, 0
2, 6307, Note_on_c, 0, 74, 97
2, 6308, Note_on_c, 0, 86, 103
2, 6316, Note_on_c, 0, 74, 0
2, 6319, Note_on_c, 0, 89, 0
2, 6333, Note_on_c, 0, 83, 89
2, 6335, Note_on_c, 0, 86, 0
2, 6337, Note_on_c, 0, 71, 92
2, 6356, Note_on_c, 0, 83, 0
2, 6358, Note_on_c, 0, 79, 108
2, 6360, Note_on_c, 0, 67, 101
2, 6361, Note_on_c, 0, 71, 0
2, 6385, Note_on_c, 0, 67, 0
2, 6385, Note_on_c, 0, 80, 99
2, 6385, Note_on_c, 0, 68, 92
2, 6395, Note_on_c, 0, 79, 0
2, 6411, Note_on_c, 0, 65, 99
2, 6411, Note_on_c, 0, 77, 99
2, 6412, Note_on_c, 0, 68, 0
2, 6427, Note_on_c, 0, 80, 0
2, 6435, Note_on_c, 0, 62, 101
2, 6435, Note_on_c, 0, 74, 104
2, 6438, Note_on_c, 0, 65, 0
2, 6438, Note_on_c, 0, 77, 0
2, 6444, Note_on_c, 0, 74, 0
2, 6456, Note_on_c, 0, 59, 89
2, 6460, Note_on_c, 0, 62, 0
2, 6462, Note_on_c, 0, 71, 66
2, 6479, Note_on_c, 0, 59, 0
2, 6479, Note_on_c, 0, 55, 81
2, 6484, Note_on_c, 0, 67, 101
2, 6488, Note_on_c, 0, 71, 0
2, 6495, Note_on_c, 0, 55, 0
2, 6500, Note_on_c, 0, 56, 101
2, 6504, Note_on_c, 0, 67, 0
2, 6507, Note_on_c, 0, 68, 99
2, 6524, Note_on_c, 0, 56, 0
2, 6529, Note_on_c, 0, 53, 91
2, 6532, Note_on_c, 0, 65, 89
2, 6541, Note_on_c, 0, 68, 0
2, 6548, Note_on_c, 0, 50, 108
2, 6553, Note_on_c, 0, 65, 0
2, 6553, Note_on_c, 0, 62, 85
2, 6559, Note_on_c, 0, 53, 0
2, 6568, Note_on_c, 0, 62, 0
2, 6574, Note_on_c, 0, 47, 98
2, 6575, Note_on_c, 0, 59, 104
2, 6581, Note_on_c, 0, 50, 0
2, 6603, Note_on_c, 0, 60, 108
2, 6604, Note_on_c, 0, 48, 106
2, 6612, Note_on_c, 0, 59, 0
2, 6617, Note_on_c, 0, 47, 0
2, 6631, Note_on_c, 0, 65, 103
2, 6634, Note_on_c, 0, 48, 0
2, 6635, Note_on_c, 0, 53, 100
2, 6637, Note_on_c, 0, 60, 0
2, 6662, Note_on_c, 0, 51, 83
2, 6663, Note_on_c, 0, 63, 108
2, 6667, Note_on_c, 0, 53, 0
2, 6668, Note_on_c, 0, 65, 0
2, 6673, Note_on_c, 0, 51, 0
2, 6683, Note_on_c, 0, 63, 0
2, 6715, Control_c, 0, 64, 0
2, 6718, Note_on_c, 0, 72, 124
2, 6719, Note_on_c, 0, 63, 111
2, 6719, Note_on_c, 0, 51, 117
2, 6720, Note_on_c, 0, 60, 118
2, 6720, Note_on_c, 0, 44, 105
2, 6720, Note_on_c, 0, 68, 106
2, 6720, Note_on_c, 0, 39, 103
2, 6777, Note_on_c, 0, 60, 0
2, 6782, Note_on_c, 0, 63, 0
2, 6786, Note_on_c, 0, 39, 0
2, 6787, Control_c, 0, 64, 127
2, 6790, Note_on_c, 0, 68, 0
2, 6790, Note_on_c, 0, 51, 0
2, 6792, Note_on_c, 0, 44, 0
2, 6793, Note_on_c, 0, 72, 0
2, 6856, Note_on_c, 0, 86, 117
2, 6856, Note_on_c, 0, 62, 103
2, 6858, Note_on_c, 0, 74, 112
2, 6858, Note_on_c, 0, 50, 100
2, 6861, Control_c, 0, 64, 0
2, 6903, Control_c, 0, 64, 127
2, 6906, Note_on_c, 0, 62, 0
2, 6907, Note_on_c, 0, 74, 0
2, 6922, Note_on_c, 0, 50, 0
2, 6930, Note_on_c, 0, 61, 98
2, 6930, Note_on_c, 0, 73, 103
2, 6931, Note_on_c, 0, 85, 103
2, 6934, Note_on_c, 0, 49, 95
2, 6951, Note_on_c, 0, 86, 0
2, 6967, Note_on_c, 0, 73, 0
2, 6973, Note_on_c, 0, 61, 0
2, 6977, Note_on_c, 0, 85, 0
2, 6985, Note_on_c, 0, 49, 0
2, 6985, Note_on_c, 0, 84, 110
2, 6986, Note_on_c, 0, 48, 105
2, 6986, Note_on_c, 0, 72, 112
2, 6986, Note_on_c, 0, 60, 103
2, 7006, Note_on_c, 0, 72, 0
2, 7006, Note_on_c, 0, 48, 0
2, 7007, Note_on_c, 0, 60, 0
2, 7012, Note_on_c, 0, 84, 0
2, 7030, Note_on_c, 0, 60, 74
2, 7030, Note_on_c, 0, 84, 106
2, 7032, Note_on_c, 0, 72, 103
2, 7032, Note_on_c, 0, 48, 92
2, 7046, Note_on_c, 0, 84, 0
2, 7050, Note_on_c, 0, 72, 0
2, 7051, Note_on_c, 0, 60, 0
2, 7056, Note_on_c, 0, 48, 0
2, 7070, Note_on_c, 0, 60, 81
2, 7071, Note_on_c, 0, 84, 103
2, 7072, Note_on_c, 0, 48, 103
2, 7072, Note_on_c, 0, 72, 104
2, 7091, Note_on_c, 0, 72, 0
2, 7091, Note_on_c, 0, 60, 0
2, 7093, Note_on_c, 0, 48, 0
2, 7093, Note_on_c, 0, 84, 0
2, 7105, Note_on_c, 0, 72, 114
2, 7105, Note_on_c, 0, 60, 101
2, 7106, Note_on_c, 0, 84, 106
2, 7108, Note_on_c, 0, 48, 106
2, 7112, Note_on_c, 0, 84, 0
2, 7114, Note_on_c, 0, 60, 0
2, 7117, Note_on_c, 0, 48, 0
2, 7122, Note_on_c, 0, 72, 0
2, 7149, Note_on_c, 0, 47, 100
2, 7153, Note_on_c, 0, 59, 100
2, 7174, Note_on_c, 0, 60, 104
2, 7174, Note_on_c, 0, 48, 106
2, 7185, Note_on_c, 0, 59, 0
2, 7186, Note_on_c, 0, 47, 0
2, 7200, Note_on_c, 0, 53, 97
2, 7201, Note_on_c, 0, 65, 83
2, 7204, Note_on_c, 0, 48, 0
2, 7207, Note_on_c, 0, 60, 0
2, 7225, Note_on_c, 0, 64, 108
2, 7226, Note_on_c, 0, 52, 89
2, 7228, Note_on_c, 0, 65, 0
2, 7231, Note_on_c, 0, 53, 0
2, 7237, Note_on_c, 0, 64, 0
2, 7247, Note_on_c, 0, 52, 0
2, 7257, Control_c, 0, 64, 0
2, 7259, Note_on_c, 0, 72, 123
2, 7259, Note_on_c, 0, 64, 110
2, 7260, Note_on_c, 0, 68, 107
2, 7260, Note_on_c, 0, 48, 111
2, 7260, Note_on_c, 0, 60, 125
2, 7260, Note_on_c, 0, 52, 121
2, 7261, Note_on_c, 0, 40, 111
2, 7306, Note_on_c, 0, 40, 0
2, 7306, Note_on_c, 0, 60, 0
2, 7309, Note_on_c, 0, 64, 0
2, 7311, Note_on_c, 0, 52, 0
2, 7314, Control_c, 0, 64, 127
2, 7315, Note_on_c, 0, 48, 0
2, 7320, Note_on_c, 0, 68, 0
2, 7322, Note_on_c, 0, 72, 0
2, 7396, Note_on_c, 0, 86, 119
2, 7396, Note_on_c, 0, 62, 110
2, 7396, Note_on_c, 0, 74, 122
2, 7398, Note_on_c, 0, 50, 110
2, 7402, Control_c, 0, 64, 0
2, 7451, Note_on_c, 0, 74, 0
2, 7452, Note_on_c, 0, 62, 0
2, 7452, Control_c, 0, 64, 127
2, 7473, Note_on_c, 0, 50, 0
2, 7473, Note_on_c, 0, 73, 109
2, 7473, Note_on_c, 0, 85, 105
2, 7475, Note_on_c, 0, 61, 106
2, 7477, Note_on_c, 0, 49, 99
2, 7494, Note_on_c, 0, 86, 0
2, 7509, Note_on_c, 0, 73, 0
2, 7514, Note_on_c, 0, 61, 0
2, 7520, Note_on_c, 0, 85, 0
2, 7528, Note_on_c, 0, 49, 0
2, 7534, Note_on_c, 0, 72, 119
2, 7534, Note_on_c, 0, 84, 115
2, 7535, Note_on_c, 0, 60, 104
2, 7535, Note_on_c, 0, 48, 107
2, 7541, Control_c, 0, 64, 0
2, 7563, Note_on_c, 0, 72, 0
2, 7566, Note_on_c, 0, 48, 0
2, 7568, Note_on_c, 0, 60, 0
2, 7571, Note_on_c, 0, 84, 0
2, 7575, Control_c, 0, 64, 127
2, 7593, Note_on_c, 0, 84, 107
2, 7594, Note_on_c, 0, 72, 113
2, 7595, Note_on_c, 0, 60, 92
2, 7596, Note_on_c, 0, 48, 101
2, 7606, Note_on_c, 0, 48, 0
2, 7610, Note_on_c, 0, 60, 0
2, 7611, Note_on_c, 0, 84, 0
2, 7614, Note_on_c, 0, 72, 0
2, 7635, Note_on_c, 0, 60, 92
2, 7635, Note_on_c, 0, 84, 105
2, 7636, Note_on_c, 0, 72, 106
2, 7636, Note_on_c, 0, 48, 101
2, 7645, Note_on_c, 0, 48, 0
2, 7652, Note_on_c, 0, 72, 0
2, 7653, Note_on_c, 0, 60, 0
2, 7656, Note_on_c, 0, 84, 0
2, 7669, Note_on_c, 0, 72, 100
2, 7669, Note_on_c, 0, 60, 94
2, 7671, Note_on_c, 0, 48, 83
2, 7672, Note_on_c, 0, 84, 105
2, 7678, Note_on_c, 0, 84, 0
2, 7681, Note_on_c, 0, 72, 0
2, 7683, Note_on_c, 0, 48, 0
2, 7684, Note_on_c, 0, 60, 0
2, 7701, Note_on_c, 0, 84, 83
2, 7703, Note_on_c, 0, 60, 88
2, 7704, Note_on_c, 0, 72, 97
2, 7707, Note_on_c, 0, 48, 79
2, 7708, Note_on_c, 0, 84, 0
2, 7712, Note_on_c, 0, 60, 0
2, 7718, Note_on_c, 0, 72, 0
2, 7720, Note_on_c, 0, 48, 0
2, 7755, Note_on_c, 0, 59, 105
2, 7755, Note_on_c, 0, 47, 92
2, 7780, Note_on_c, 0, 48, 100
2, 7780, Note_on_c, 0, 60, 109
2, 7785, Note_on_c, 0, 59, 0
2, 7789, Note_on_c, 0, 47, 0
2, 7804, Note_on_c, 0, 55, 92
2, 7806, Note_on_c, 0, 48, 0
2, 7806, Note_on_c, 0, 67, 91
2, 7808, Note_on_c, 0, 60, 0
2, 7824, Note_on_c, 0, 65, 101
2, 7824, Note_on_c, 0, 53, 98
2, 7832, Note_on_c, 0, 53, 0
2, 7833, Note_on_c, 0, 55, 0
2, 7836, Note_on_c, 0, 65, 0
2, 7838, Note_on_c, 0, 67, 0
2, 7845, Control_c, 0, 64, 0
2, 7856, Note_on_c, 0, 41, 111
2, 7868, Note_on_c, 0, 65, 98
2, 7869, Note_on_c, 0, 72, 123
2, 7870, Note_on_c, 0, 60, 121
2, 7871, Note_on_c, 0, 68, 101
2, 7873, Note_on_c, 0, 41, 0
2, 7873, Note_on_c, 0, 47, 34
2, 7875, Note_on_c, 0, 48, 100
2, 7882, Note_on_c, 0, 56, 103
2, 7886, Note_on_c, 0, 47, 0
2, 7887, Note_on_c, 0, 48, 0
2, 7890, Control_c, 0, 64, 127
2, 7898, Note_on_c, 0, 72, 0
2, 7899, Note_on_c, 0, 65, 0
2, 7907, Note_on_c, 0, 68, 0
2, 7921, Note_on_c, 0, 56, 0
2, 7933, Note_on_c, 0, 60, 0
2, 7960, Control_c, 0, 64, 0
2, 7961, Note_on_c, 0, 47, 99
2, 7962, Note_on_c, 0, 59, 94
2, 7983, Note_on_c, 0, 48, 88
2, 7987, Note_on_c, 0, 60, 102
2, 7988, Note_on_c, 0, 59, 0
2, 8002, Control_c, 0, 64, 127
2, 8004, Note_on_c, 0, 47, 0
2, 8011, Note_on_c, 0, 58, 103
2, 8012, Note_on_c, 0, 60, 0
2, 8013, Note_on_c, 0, 70, 110
2, 8014, Note_on_c, 0, 48, 0
2, 8034, Note_on_c, 0, 56, 78
2, 8035, Note_on_c, 0, 58, 0
2, 8038, Note_on_c, 0, 68, 103
2, 8048, Note_on_c, 0, 56, 0
2, 8053, Note_on_c, 0, 70, 0
2, 8062, Note_on_c, 0, 68, 0
2, 8071, Control_c, 0, 64, 0
2, 8077, Note_on_c, 0, 68, 103
2, 8078, Note_on_c, 0, 49, 111
2, 8079, Note_on_c, 0, 72, 122
2, 8079, Note_on_c, 0, 54, 114
2, 8080, Note_on_c, 0, 60, 115
2, 8080, Note_on_c, 0, 42, 100
2, 8080, Note_on_c, 0, 63, 103
2, 8084, Note_on_c, 0, 44, 88
2, 8133, Control_c, 0, 64, 127
2, 8143, Note_on_c, 0, 49, 0
2, 8146, Note_on_c, 0, 63, 0
2, 8148, Note_on_c, 0, 60, 0
2, 8149, Note_on_c, 0, 72, 0
2, 8154, Note_on_c, 0, 54, 0
2, 8155, Note_on_c, 0, 42, 0
2, 8160, Control_c, 0, 64, 0
2, 8161, Note_on_c, 0, 44, 0
2, 8162, Note_on_c, 0, 68, 0
2, 8185, Note_on_c, 0, 72, 121
2, 8185, Note_on_c, 0, 68, 87
2, 8186, Note_on_c, 0, 54, 116
2, 8186, Note_on_c, 0, 60, 119
2, 8187, Note_on_c, 0, 63, 104
2, 8187, Note_on_c, 0, 44, 83
2, 8190, Note_on_c, 0, 42, 89
2, 8190, Note_on_c, 0, 48, 91
2, 8198, Note_on_c, 0, 48, 0
2, 8198, Note_on_c, 0, 63, 0
2, 8199, Note_on_c, 0, 42, 0
2, 8206, Note_on_c, 0, 60, 0
2, 8209, Note_on_c, 0, 68, 0
2, 8209, Control_c, 0, 64, 127
2, 8213, Note_on_c, 0, 54, 0
2, 8213, Note_on_c, 0, 44, 0
2, 8216, Note_on_c, 0, 72, 0
2, 8281, Note_on_c, 0, 72, 124
2, 8281, Note_on_c, 0, 84, 118
2, 8283, Note_on_c, 0, 60, 115
2, 8284, Note_on_c, 0, 48, 113
2, 8297, Note_on_c, 0, 72, 0
2, 8299, Note_on_c, 0, 84, 0
2, 8299, Note_on_c, 0, 60, 0
2, 8308, Note_on_c, 0, 48, 0
2, 8344, Control_c, 0, 64, 0
2, 8355, Note_on_c, 0, 76, 115
2, 8355, Note_on_c, 0, 64, 120
2, 8355, Note_on_c, 0, 70, 111
2, 8356, Note_on_c, 0, 55, 116
2, 8357, Note_on_c, 0, 73, 100
2, 8357, Note_on_c, 0, 43, 108
2, 8358, Note_on_c, 0, 49, 101
2, 8370, Note_on_c, 0, 64, 0
2, 8379, Note_on_c, 0, 70, 0
2, 8380, Note_on_c, 0, 49, 0
2, 8382, Note_on_c, 0, 76, 0
2, 8385, Note_on_c, 0, 73, 0
2, 8386, Note_on_c, 0, 55, 0
2, 8387, Note_on_c, 0, 43, 0
2, 8390, Control_c, 0, 64, 127
2, 8431, Note_on_c, 0, 85, 115
2, 8431, Note_on_c, 0, 73, 118
2, 8431, Note_on_c, 0, 61, 117
2, 8434, Note_on_c, 0, 49, 107
2, 8442, Note_on_c, 0, 49, 0
2, 8447, Note_on_c, 0, 61, 0
2, 8452, Note_on_c, 0, 85, 0
2, 8455, Note_on_c, 0, 73, 0
2, 8505, Control_c, 0, 64, 0
2, 8512, Note_on_c, 0, 77, 117
2, 8512, Note_on_c, 0, 56, 111
2, 8512, Note_on_c, 0, 68, 108
2, 8512, Note_on_c, 0, 65, 121
2, 8512, Note_on_c, 0, 73, 103
2, 8513, Note_on_c, 0, 44, 104
2, 8517, Note_on_c, 0, 49, 88
2, 8538, Note_on_c, 0, 49, 0
2, 8538, Note_on_c, 0, 44, 0
2, 8539, Note_on_c, 0, 65, 0
2, 8545, Note_on_c, 0, 68, 0
2, 8545, Note_on_c, 0, 56, 0
2, 8547, Control_c, 0, 64, 127
2, 8551, Note_on_c, 0, 77, 0
2, 8551, Note_on_c, 0, 73, 0
2, 8629, Note_on_c, 0, 80, 115
2, 8629, Note_on_c, 0, 92, 114
2, 8629, Note_on_c, 0, 68, 111
2, 8632, Note_on_c, 0, 56, 98
2, 8653, Note_on_c, 0, 92, 0
2, 8656, Note_on_c, 0, 80, 0
2, 8656, Note_on_c, 0, 68, 0
2, 8670, Note_on_c, 0, 56, 0
2, 8728, Note_on_c, 0, 67, 120
2, 8728, Note_on_c, 0, 58, 118
2, 8729, Note_on_c, 0, 79, 112
2, 8729, Note_on_c, 0, 73, 105
2, 8730, Note_on_c, 0, 77, 107
2, 8730, Note_on_c, 0, 46, 113
2, 8731, Control_c, 0, 64, 0
2, 8733, Note_on_c, 0, 75, 10
2, 8733, Note_on_c, 0, 49, 94
2, 8758, Note_on_c, 0, 75, 0
2, 8769, Note_on_c, 0, 67, 0
2, 8773, Note_on_c, 0, 73, 0
2, 8776, Note_on_c, 0, 49, 0
2, 8776, Note_on_c, 0, 46, 0
2, 8778, Control_c, 0, 64, 127
2, 8779, Note_on_c, 0, 77, 0
2, 8781, Note_on_c, 0, 58, 0
2, 8783, Note_on_c, 0, 79, 0
2, 8847, Note_on_c, 0, 91, 117
2, 8848, Note_on_c, 0, 79, 121
2, 8848, Note_on_c, 0, 67, 113
2, 8850, Note_on_c, 0, 55, 103
2, 8860, Note_on_c, 0, 55, 0
2, 8860, Note_on_c, 0, 91, 0
2, 8864, Note_on_c, 0, 67, 0
2, 8867, Note_on_c, 0, 79, 0
2, 9021, Note_on_c, 0, 71, 107
2, 9022, Note_on_c, 0, 59, 108
2, 9023, Control_c, 0, 64, 0
2, 9025, Note_on_c, 0, 35, 103
2, 9025, Note_on_c, 0, 47, 105
2, 9064, Note_on_c, 0, 35, 0
2, 9067, Note_on_c, 0, 59, 0
2, 9069, Control_c, 0, 64, 127
2, 9074, Note_on_c, 0, 47, 0
2, 9085, Note_on_c, 0, 71, 0
2, 9184, Note_on_c, 0, 59, 83
2, 9198, Note_on_c, 0, 61, 97
2, 9218, Note_on_c, 0, 59, 0
2, 9231, Note_on_c, 0, 65, 87
2, 9242, Note_on_c, 0, 61, 0
2, 9255, Note_on_c, 0, 65, 0
2, 9267, Note_on_c, 0, 101, 124
2, 9270, Note_on_c, 0, 89, 115
2, 9274, Note_on_c, 0, 73, 71
2, 9281, Note_on_c, 0, 89, 0
2, 9282, Note_on_c, 0, 73, 0
2, 9460, Note_on_c, 0, 99, 100
2, 9477, Note_on_c, 0, 101, 0
2, 9502, Note_on_c, 0, 97, 100
2, 9511, Note_on_c, 0, 99, 0
2, 9535, Note_on_c, 0, 92, 103
2, 9543, Note_on_c, 0, 97, 0
2, 9565, Note_on_c, 0, 89, 103
2, 9569, Note_on_c, 0, 92, 0
2, 9589, Note_on_c, 0, 89, 0
2, 9592, Note_on_c, 0, 87, 100
2, 9615, Note_on_c, 0, 85, 91
2, 9626, Note_on_c, 0, 87, 0
2, 9639, Note_on_c, 0, 80, 99
2, 9645, Note_on_c, 0, 85, 0
2, 9660, Note_on_c, 0, 77, 105
2, 9664, Note_on_c, 0, 80, 0
2, 9668, Note_on_c, 0, 77, 0
2, 9682, Note_on_c, 0, 75, 96
2, 9699, Note_on_c, 0, 73, 87
2, 9717, Note_on_c, 0, 75, 0
2, 9722, Note_on_c, 0, 68, 100
2, 9731, Note_on_c, 0, 73, 0
2, 9740, Note_on_c, 0, 65, 103
2, 9741, Note_on_c, 0, 68, 0
2, 9749, Note_on_c, 0, 65, 0
2, 9760, Note_on_c, 0, 63, 98
2, 9777, Note_on_c, 0, 61, 90
2, 9794, Note_on_c, 0, 63, 0
2, 9799, Note_on_c, 0, 56, 100
2, 9807, Note_on_c, 0, 61, 0
2, 9819, Note_on_c, 0, 53, 108
2, 9823, Note_on_c, 0, 56, 0
2, 9835, Note_on_c, 0, 53, 0
2, 9840, Note_on_c, 0, 51, 102
2, 9858, Note_on_c, 0, 49, 90
2, 9874, Note_on_c, 0, 51, 0
2, 9876, Note_on_c, 0, 44, 106
2, 9887, Note_on_c, 0, 49, 0
2, 9895, Note_on_c, 0, 44, 0
2, 9907, Control_c, 0, 64, 0
2, 9909, Note_on_c, 0, 41, 114
2, 9909, Note_on_c, 0, 29, 123
2, 9912, Note_on_c, 0, 43, 107
2, 9918, Note_on_c, 0, 43, 0
2, 9963, Note_on_c, 0, 29, 0
2, 9963, Note_on_c, 0, 41, 0
2, 9964, Note_on_c, 0, 43, 87
2, 9965, Note_on_c, 0, 31, 102
2, 9976, Note_on_c, 0, 43, 0
2, 9976, Control_c, 0, 64, 127
2, 9979, Note_on_c, 0, 31, 0
2, 9984, Note_on_c, 0, 41, 86
2, 9984, Note_on_c, 0, 29, 92
2, 10006, Note_on_c, 0, 43, 79
2, 10009, Note_on_c, 0, 41, 0
2, 10010, Note_on_c, 0, 31, 91
2, 10012, Note_on_c, 0, 29, 0
2, 10019, Note_on_c, 0, 43, 0
2, 10023, Note_on_c, 0, 31, 0
2, 10026, Note_on_c, 0, 41, 75
2, 10027, Note_on_c, 0, 29, 93
2, 10038, Note_on_c, 0, 41, 0
2, 10038, Note_on_c, 0, 43, 87
2, 10044, Note_on_c, 0, 31, 92
2, 10050, Note_on_c, 0, 29, 0
2, 10060, Note_on_c, 0, 41, 79
2, 10063, Note_on_c, 0, 43, 0
2, 10066, Note_on_c, 0, 31, 0
2, 10068, Note_on_c, 0, 29, 92
2, 10078, Note_on_c, 0, 43, 86
2, 10079, Note_on_c, 0, 41, 0
2, 10083, Note_on_c, 0, 31, 92
2, 10089, Note_on_c, 0, 29, 0
2, 10094, Note_on_c, 0, 43, 0
2, 10096, Note_on_c, 0, 41, 83
2, 10102, Note_on_c, 0, 31, 0
2, 10106, Note_on_c, 0, 29, 91
2, 10112, Note_on_c, 0, 41, 0
2, 10113, Note_on_c, 0, 43, 85
2, 10126, Note_on_c, 0, 31, 92
2, 10128, Note_on_c, 0, 29, 0
2, 10134, Note_on_c, 0, 41, 90
2, 10141, Note_on_c, 0, 43, 0
2, 10144, Note_on_c, 0, 29, 96
2, 10150, Note_on_c, 0, 31, 0
2, 10163, Note_on_c, 0, 40, 111
2, 10164, Control_c, 0, 64, 0
2, 10165, Note_on_c, 0, 41, 0
2, 10167, Note_on_c, 0, 28, 111
2, 10174, Note_on_c, 0, 29, 0
2, 10189, Note_on_c, 0, 29, 104
2, 10193, Note_on_c, 0, 41, 85
2, 10198, Note_on_c, 0, 28, 0
2, 10201, Note_on_c, 0, 42, 40
2, 10203, Note_on_c, 0, 40, 0
2, 10210, Control_c, 0, 64, 127
2, 10213, Note_on_c, 0, 41, 0
2, 10215, Note_on_c, 0, 29, 0
2, 10216, Note_on_c, 0, 42, 0
2, 10218, Note_on_c, 0, 37, 106
2, 10219, Note_on_c, 0, 49, 93
2, 10243, Note_on_c, 0, 36, 83
2, 10245, Note_on_c, 0, 37, 0
2, 10249, Note_on_c, 0, 48, 73
2, 10260, Note_on_c, 0, 48, 0
2, 10262, Note_on_c, 0, 49, 0
2, 10264, Note_on_c, 0, 43, 95
2, 10268, Note_on_c, 0, 31, 111
2, 10274, Note_on_c, 0, 36, 0
2, 10291, Note_on_c, 0, 43, 0
2, 10291, Control_c, 0, 64, 0
2, 10293, Note_on_c, 0, 47, 84
2, 10293, Note_on_c, 0, 35, 95
2, 10301, Note_on_c, 0, 31, 0
2, 10315, Note_on_c, 0, 42, 92
2, 10317, Note_on_c, 0, 30, 108
2, 10325, Note_on_c, 0, 35, 0
2, 10326, Note_on_c, 0, 47, 0
2, 10326, Control_c, 0, 64, 127
2, 10336, Note_on_c, 0, 46, 110
2, 10341, Note_on_c, 0, 34, 92
2, 10345, Note_on_c, 0, 42, 0
2, 10345, Control_c, 0, 64, 0
2, 10354, Note_on_c, 0, 30, 0
2, 10359, Note_on_c, 0, 34, 0
2, 10359, Note_on_c, 0, 41, 99
2, 10360, Note_on_c, 0, 46, 0
2, 10363, Note_on_c, 0, 29, 105
2, 10372, Control_c, 0, 64, 127
2, 10381, Note_on_c, 0, 45, 106
2, 10383, Note_on_c, 0, 33, 110
2, 10389, Note_on_c, 0, 41, 0
2, 10391, Control_c, 0, 64, 0
2, 10394, Note_on_c, 0, 29, 0
2, 10405, Note_on_c, 0, 41, 96
2, 10409, Note_on_c, 0, 29, 105
2, 10414, Note_on_c, 0, 45, 0
2, 10422, Note_on_c, 0, 33, 0
2, 10429, Note_on_c, 0, 44, 103
2, 10429, Control_c, 0, 64, 127
2, 10429, Note_on_c, 0, 32, 103
2, 10437, Note_on_c, 0, 41, 0
2, 10444, Note_on_c, 0, 29, 0
2, 10451, Note_on_c, 0, 44, 0
2, 10456, Note_on_c, 0, 32, 0
2, 10466, Note_on_c, 0, 36, 124
2, 10470, Note_on_c, 0, 24, 125
2, 10510, Control_c, 0, 64, 0
2, 10531, Note_on_c, 0, 24, 0
2, 10563, Note_on_c, 0, 36, 0
2, 10877, Note_on_c, 0, 60, 115
2, 10878, Note_on_c, 0, 55, 111
2, 10878, Note_on_c, 0, 48, 118
2, 10881, Note_on_c, 0, 43, 115
2, 10881, Note_on_c, 0, 36, 120
2, 11059, Control_c, 0, 64, 127
2, 11122, Note_on_c, 0, 60, 0
2, 11166, Note_on_c, 0, 48, 0
2, 11178, Note_on_c, 0, 43, 0
2, 11190, Note_on_c, 0, 36, 0
2, 11232, Note_on_c, 0, 60, 114
2, 11233, Note_on_c, 0, 56, 101
2, 11233, Note_on_c, 0, 53, 106
2, 11233, Note_on_c, 0, 48, 120
2, 11235, Note_on_c, 0, 55, 0
2, 11235, Note_on_c, 0, 29, 117
2, 11236, Note_on_c, 0, 41, 109
2, 11240, Control_c, 0, 64, 0
2, 11532, Control_c, 0, 64, 127
2, 12085, Note_on_c, 0, 48, 0
2, 12090, Note_on_c, 0, 29, 0
2, 12090, Note_on_c, 0, 53, 0
2, 12097, Note_on_c, 0, 41, 0
2, 12104, Note_on_c, 0, 60, 0
2, 12104, Note_on_c, 0, 56, 0
2, 12132, Control_c, 0, 64, 0
2, 12132, End_track
0, 0, End_of_file
