0, 0, Header, 1, 2, 120
1, 0, Start_track
1, 0, Time_signature, 4, 2, 24, 8
1, 0, Key_signature, -1, "major"
1, 0, Tempo, 500000
1, 0, End_track
2, 0, Start_track
2, 0, MIDI_port, 0
2, 0, Title_t, "  "
2, 0, Note_on_c, 0, 41, 38
2, 41, Note_on_c, 0, 48, 46
2, 46, Control_c, 0, 64, 127
2, 99, Note_on_c, 0, 72, 39
2, 108, Note_on_c, 0, 57, 17
2, 138, Note_on_c, 0, 72, 0
2, 142, Note_on_c, 0, 69, 34
2, 189, Note_on_c, 0, 65, 54
2, 190, Note_on_c, 0, 69, 0
2, 217, Note_on_c, 0, 65, 0
2, 226, Note_on_c, 0, 62, 39
2, 257, Note_on_c, 0, 62, 0
2, 258, Note_on_c, 0, 60, 57
2, 271, Note_on_c, 0, 60, 0
2, 297, Note_on_c, 0, 65, 47
2, 312, Note_on_c, 0, 65, 0
2, 326, Note_on_c, 0, 77, 70
2, 360, Note_on_c, 0, 74, 69
2, 362, Note_on_c, 0, 77, 0
2, 393, Note_on_c, 0, 74, 0
2, 393, Note_on_c, 0, 72, 73
2, 423, Note_on_c, 0, 72, 0
2, 424, Note_on_c, 0, 69, 62
2, 448, Note_on_c, 0, 69, 0
2, 457, Note_on_c, 0, 65, 73
2, 471, Note_on_c, 0, 65, 0
2, 489, Note_on_c, 0, 62, 60
2, 498, Note_on_c, 0, 57, 0
2, 505, Note_on_c, 0, 62, 0
2, 507, Note_on_c, 0, 48, 0
2, 511, Note_on_c, 0, 41, 0
2, 518, Note_on_c, 0, 60, 73
2, 529, Note_on_c, 0, 60, 0
2, 552, Note_on_c, 0, 65, 70
2, 569, Note_on_c, 0, 65, 0
2, 584, Note_on_c, 0, 77, 73
2, 618, Note_on_c, 0, 74, 67
2, 619, Note_on_c, 0, 77, 0
2, 626, Control_c, 0, 64, 0
2, 634, Note_on_c, 0, 36, 73
2, 649, Note_on_c, 0, 74, 0
2, 649, Note_on_c, 0, 72, 69
2, 676, Note_on_c, 0, 36, 0
2, 676, Control_c, 0, 64, 127
2, 683, Note_on_c, 0, 72, 0
2, 688, Note_on_c, 0, 69, 61
2, 708, Note_on_c, 0, 69, 0
2, 717, Note_on_c, 0, 65, 73
2, 730, Note_on_c, 0, 65, 0
2, 741, Note_on_c, 0, 47, 62
2, 746, Note_on_c, 0, 62, 62
2, 764, Note_on_c, 0, 62, 0
2, 766, Note_on_c, 0, 48, 65
2, 767, Note_on_c, 0, 47, 0
2, 778, Note_on_c, 0, 48, 0
2, 780, Note_on_c, 0, 60, 73
2, 784, Note_on_c, 0, 50, 66
2, 794, Note_on_c, 0, 60, 0
2, 796, Note_on_c, 0, 50, 0
2, 807, Note_on_c, 0, 48, 68
2, 815, Note_on_c, 0, 65, 71
2, 826, Note_on_c, 0, 48, 0
2, 828, Note_on_c, 0, 65, 0
2, 831, Note_on_c, 0, 50, 52
2, 843, Note_on_c, 0, 50, 0
2, 848, Note_on_c, 0, 48, 56
2, 860, Note_on_c, 0, 48, 0
2, 863, Note_on_c, 0, 47, 69
2, 864, Note_on_c, 0, 77, 73
2, 898, Note_on_c, 0, 77, 0
2, 898, Note_on_c, 0, 74, 67
2, 898, Note_on_c, 0, 48, 59
2, 908, Note_on_c, 0, 47, 0
2, 939, Note_on_c, 0, 72, 73
2, 942, Note_on_c, 0, 74, 0
2, 945, Control_c, 0, 64, 0
2, 947, Note_on_c, 0, 57, 65
2, 976, Note_on_c, 0, 72, 0
2, 981, Note_on_c, 0, 69, 63
2, 999, Control_c, 0, 64, 127
2, 1003, Note_on_c, 0, 69, 0
2, 1012, Note_on_c, 0, 65, 68
2, 1030, Note_on_c, 0, 65, 0
2, 1042, Note_on_c, 0, 62, 46
2, 1058, Note_on_c, 0, 62, 0
2, 1074, Note_on_c, 0, 57, 0
2, 1077, Note_on_c, 0, 55, 72
2, 1083, Note_on_c, 0, 60, 73
2, 1099, Control_c, 0, 64, 0
2, 1114, Note_on_c, 0, 64, 61
2, 1142, Note_on_c, 0, 64, 0
2, 1145, Note_on_c, 0, 70, 64
2, 1146, Note_on_c, 0, 48, 0
2, 1149, Control_c, 0, 64, 127
2, 1177, Note_on_c, 0, 55, 0
2, 1177, Note_on_c, 0, 67, 51
2, 1181, Note_on_c, 0, 70, 0
2, 1188, Note_on_c, 0, 60, 0
2, 1204, Note_on_c, 0, 41, 73
2, 1210, Control_c, 0, 64, 0
2, 1211, Note_on_c, 0, 69, 65
2, 1219, Note_on_c, 0, 67, 0
2, 1249, Note_on_c, 0, 69, 0
2, 1249, Note_on_c, 0, 65, 63
2, 1264, Control_c, 0, 64, 127
2, 1267, Note_on_c, 0, 65, 0
2, 1272, Note_on_c, 0, 48, 73
2, 1275, Note_on_c, 0, 60, 70
2, 1284, Note_on_c, 0, 48, 0
2, 1284, Note_on_c, 0, 41, 0
2, 1288, Note_on_c, 0, 60, 0
2, 1302, Note_on_c, 0, 53, 63
2, 1303, Note_on_c, 0, 57, 73
2, 1313, Note_on_c, 0, 57, 0
2, 1330, Note_on_c, 0, 53, 0
2, 1334, Note_on_c, 0, 57, 63
2, 1345, Note_on_c, 0, 60, 19
2, 1365, Note_on_c, 0, 60, 0
2, 1376, Note_on_c, 0, 65, 52
2, 1391, Note_on_c, 0, 57, 0
2, 1402, Note_on_c, 0, 65, 0
2, 1407, Note_on_c, 0, 70, 67
2, 1408, Note_on_c, 0, 55, 54
2, 1411, Note_on_c, 0, 48, 45
2, 1412, Note_on_c, 0, 64, 50
2, 1425, Note_on_c, 0, 48, 0
2, 1433, Note_on_c, 0, 64, 0
2, 1440, Note_on_c, 0, 67, 50
2, 1442, Note_on_c, 0, 55, 0
2, 1443, Note_on_c, 0, 70, 0
2, 1467, Note_on_c, 0, 41, 55
2, 1468, Control_c, 0, 64, 0
2, 1474, Note_on_c, 0, 69, 65
2, 1488, Note_on_c, 0, 67, 0
2, 1509, Note_on_c, 0, 69, 0
2, 1510, Note_on_c, 0, 65, 51
2, 1521, Control_c, 0, 64, 127
2, 1525, Note_on_c, 0, 48, 51
2, 1531, Note_on_c, 0, 65, 0
2, 1533, Note_on_c, 0, 41, 0
2, 1537, Note_on_c, 0, 60, 56
2, 1540, Note_on_c, 0, 48, 0
2, 1552, Note_on_c, 0, 60, 0
2, 1565, Note_on_c, 0, 57, 72
2, 1567, Note_on_c, 0, 53, 44
2, 1575, Note_on_c, 0, 57, 0
2, 1584, Note_on_c, 0, 53, 0
2, 1597, Note_on_c, 0, 60, 73
2, 1599, Note_on_c, 0, 57, 38
2, 1611, Note_on_c, 0, 60, 0
2, 1626, Note_on_c, 0, 57, 0
2, 1635, Note_on_c, 0, 65, 72
2, 1665, Note_on_c, 0, 70, 73
2, 1668, Note_on_c, 0, 48, 67
2, 1671, Note_on_c, 0, 65, 0
2, 1672, Note_on_c, 0, 55, 54
2, 1674, Note_on_c, 0, 64, 57
2, 1681, Note_on_c, 0, 48, 0
2, 1687, Note_on_c, 0, 55, 0
2, 1696, Note_on_c, 0, 64, 0
2, 1703, Note_on_c, 0, 67, 62
2, 1705, Note_on_c, 0, 70, 0
2, 1737, Control_c, 0, 64, 0
2, 1738, Note_on_c, 0, 41, 55
2, 1740, Note_on_c, 0, 69, 68
2, 1766, Note_on_c, 0, 67, 0
2, 1774, Note_on_c, 0, 65, 65
2, 1780, Note_on_c, 0, 69, 0
2, 1786, Control_c, 0, 64, 127
2, 1799, Note_on_c, 0, 65, 0
2, 1804, Note_on_c, 0, 48, 57
2, 1804, Note_on_c, 0, 60, 71
2, 1807, Note_on_c, 0, 41, 0
2, 1815, Note_on_c, 0, 48, 0
2, 1819, Note_on_c, 0, 60, 0
2, 1830, Note_on_c, 0, 53, 61
2, 1832, Note_on_c, 0, 57, 73
2, 1842, Note_on_c, 0, 57, 0
2, 1845, Note_on_c, 0, 53, 0
2, 1860, Note_on_c, 0, 57, 69
2, 1860, Note_on_c, 0, 60, 73
2, 1881, Note_on_c, 0, 60, 0
2, 1891, Note_on_c, 0, 57, 0
2, 1891, Note_on_c, 0, 65, 71
2, 1896, Note_on_c, 0, 53, 73
2, 1918, Note_on_c, 0, 70, 73
2, 1923, Note_on_c, 0, 65, 0
2, 1924, Note_on_c, 0, 62, 73
2, 1936, Note_on_c, 0, 62, 0
2, 1944, Note_on_c, 0, 53, 0
2, 1949, Note_on_c, 0, 68, 73
2, 1951, Note_on_c, 0, 59, 70
2, 1951, Control_c, 0, 64, 0
2, 1962, Note_on_c, 0, 59, 0
2, 1962, Note_on_c, 0, 70, 0
2, 1975, Note_on_c, 0, 60, 73
2, 1978, Note_on_c, 0, 68, 0
2, 1980, Note_on_c, 0, 69, 73
2, 1989, Note_on_c, 0, 60, 0
2, 1998, Control_c, 0, 64, 127
2, 2008, Note_on_c, 0, 70, 73
2, 2010, Note_on_c, 0, 69, 0
2, 2030, Note_on_c, 0, 70, 0
2, 2038, Note_on_c, 0, 74, 73
2, 2043, Note_on_c, 0, 70, 69
2, 2058, Note_on_c, 0, 70, 0
2, 2059, Control_c, 0, 64, 0
2, 2067, Note_on_c, 0, 74, 0
2, 2068, Note_on_c, 0, 68, 73
2, 2070, Note_on_c, 0, 71, 73
2, 2097, Note_on_c, 0, 68, 0
2, 2098, Control_c, 0, 64, 127
2, 2100, Note_on_c, 0, 71, 0
2, 2104, Note_on_c, 0, 72, 73
2, 2109, Control_c, 0, 64, 0
2, 2112, Note_on_c, 0, 69, 60
2, 2127, Note_on_c, 0, 69, 0
2, 2132, Note_on_c, 0, 72, 0
2, 2139, Note_on_c, 0, 76, 73
2, 2155, Control_c, 0, 64, 127
2, 2175, Note_on_c, 0, 76, 0
2, 2175, Note_on_c, 0, 77, 73
2, 2194, Control_c, 0, 64, 0
2, 2204, Note_on_c, 0, 77, 0
2, 2211, Note_on_c, 0, 81, 69
2, 2215, Note_on_c, 0, 48, 60
2, 2232, Note_on_c, 0, 81, 0
2, 2244, Control_c, 0, 64, 127
2, 2247, Note_on_c, 0, 55, 44
2, 2249, Note_on_c, 0, 48, 0
2, 2256, Note_on_c, 0, 79, 66
2, 2259, Note_on_c, 0, 55, 0
2, 2281, Note_on_c, 0, 64, 53
2, 2295, Note_on_c, 0, 79, 0
2, 2299, Note_on_c, 0, 76, 66
2, 2322, Note_on_c, 0, 76, 0
2, 2335, Note_on_c, 0, 72, 63
2, 2353, Note_on_c, 0, 72, 0
2, 2368, Note_on_c, 0, 69, 57
2, 2384, Note_on_c, 0, 69, 0
2, 2399, Note_on_c, 0, 67, 72
2, 2409, Note_on_c, 0, 67, 0
2, 2431, Note_on_c, 0, 72, 71
2, 2454, Note_on_c, 0, 72, 0
2, 2469, Note_on_c, 0, 84, 73
2, 2499, Note_on_c, 0, 84, 0
2, 2502, Note_on_c, 0, 81, 73
2, 2535, Note_on_c, 0, 79, 73
2, 2537, Note_on_c, 0, 81, 0
2, 2553, Note_on_c, 0, 64, 0
2, 2566, Note_on_c, 0, 79, 0
2, 2571, Note_on_c, 0, 76, 73
2, 2590, Note_on_c, 0, 76, 0
2, 2604, Note_on_c, 0, 72, 73
2, 2618, Note_on_c, 0, 72, 0
2, 2631, Note_on_c, 0, 69, 48
2, 2645, Note_on_c, 0, 69, 0
2, 2658, Note_on_c, 0, 67, 73
2, 2667, Note_on_c, 0, 67, 0
2, 2686, Note_on_c, 0, 72, 73
2, 2707, Note_on_c, 0, 72, 0
2, 2720, Note_on_c, 0, 84, 73
2, 2753, Note_on_c, 0, 84, 0
2, 2757, Note_on_c, 0, 81, 73
2, 2778, Note_on_c, 0, 43, 73
2, 2782, Control_c, 0, 64, 0
2, 2793, Note_on_c, 0, 79, 73
2, 2794, Note_on_c, 0, 81, 0
2, 2822, Note_on_c, 0, 43, 0
2, 2823, Note_on_c, 0, 79, 0
2, 2824, Control_c, 0, 64, 127
2, 2835, Note_on_c, 0, 76, 64
2, 2850, Note_on_c, 0, 76, 0
2, 2872, Note_on_c, 0, 72, 54
2, 2888, Note_on_c, 0, 72, 0
2, 2900, Note_on_c, 0, 54, 61
2, 2903, Note_on_c, 0, 69, 52
2, 2916, Note_on_c, 0, 54, 0
2, 2924, Note_on_c, 0, 69, 0
2, 2926, Note_on_c, 0, 55, 35
2, 2938, Note_on_c, 0, 57, 64
2, 2940, Note_on_c, 0, 67, 59
2, 2942, Note_on_c, 0, 55, 0
2, 2951, Note_on_c, 0, 67, 0
2, 2954, Note_on_c, 0, 57, 0
2, 2966, Note_on_c, 0, 55, 49
2, 2973, Note_on_c, 0, 72, 63
2, 2978, Note_on_c, 0, 57, 73
2, 2979, Note_on_c, 0, 55, 0
2, 3000, Note_on_c, 0, 55, 62
2, 3002, Note_on_c, 0, 57, 0
2, 3005, Note_on_c, 0, 72, 0
2, 3015, Note_on_c, 0, 84, 73
2, 3042, Note_on_c, 0, 55, 0
2, 3042, Note_on_c, 0, 54, 70
2, 3065, Note_on_c, 0, 84, 0
2, 3066, Note_on_c, 0, 81, 64
2, 3072, Note_on_c, 0, 55, 58
2, 3078, Note_on_c, 0, 54, 0
2, 3105, Note_on_c, 0, 81, 0
2, 3108, Note_on_c, 0, 79, 64
2, 3115, Note_on_c, 0, 64, 73
2, 3123, Control_c, 0, 64, 0
2, 3151, Note_on_c, 0, 79, 0
2, 3160, Note_on_c, 0, 76, 53
2, 3174, Control_c, 0, 64, 127
2, 3190, Note_on_c, 0, 76, 0
2, 3196, Note_on_c, 0, 72, 62
2, 3209, Note_on_c, 0, 72, 0
2, 3234, Note_on_c, 0, 69, 62
2, 3247, Note_on_c, 0, 69, 0
2, 3264, Note_on_c, 0, 64, 0
2, 3273, Note_on_c, 0, 62, 52
2, 3276, Note_on_c, 0, 67, 63
2, 3297, Control_c, 0, 64, 0
2, 3300, Note_on_c, 0, 67, 0
2, 3307, Note_on_c, 0, 71, 51
2, 3329, Note_on_c, 0, 71, 0
2, 3335, Control_c, 0, 64, 127
2, 3340, Note_on_c, 0, 77, 59
2, 3342, Note_on_c, 0, 55, 0
2, 3368, Note_on_c, 0, 77, 0
2, 3368, Note_on_c, 0, 62, 0
2, 3370, Note_on_c, 0, 74, 63
2, 3385, Note_on_c, 0, 74, 0
2, 3399, Note_on_c, 0, 48, 46
2, 3405, Note_on_c, 0, 76, 65
2, 3408, Control_c, 0, 64, 0
2, 3435, Note_on_c, 0, 76, 0
2, 3437, Note_on_c, 0, 72, 66
2, 3446, Control_c, 0, 64, 127
2, 3451, Note_on_c, 0, 72, 0
2, 3465, Note_on_c, 0, 67, 58
2, 3476, Note_on_c, 0, 48, 0
2, 3477, Note_on_c, 0, 55, 37
2, 3480, Note_on_c, 0, 67, 0
2, 3491, Note_on_c, 0, 55, 0
2, 3495, Note_on_c, 0, 64, 63
2, 3503, Note_on_c, 0, 60, 64
2, 3505, Note_on_c, 0, 64, 0
2, 3525, Note_on_c, 0, 60, 0
2, 3527, Note_on_c, 0, 67, 72
2, 3538, Note_on_c, 0, 64, 50
2, 3541, Note_on_c, 0, 67, 0
2, 3559, Note_on_c, 0, 72, 73
2, 3574, Note_on_c, 0, 64, 0
2, 3597, Note_on_c, 0, 77, 72
2, 3598, Note_on_c, 0, 72, 0
2, 3600, Note_on_c, 0, 62, 65
2, 3600, Note_on_c, 0, 71, 55
2, 3605, Note_on_c, 0, 55, 42
2, 3618, Note_on_c, 0, 55, 0
2, 3629, Note_on_c, 0, 77, 0
2, 3631, Note_on_c, 0, 74, 70
2, 3640, Note_on_c, 0, 62, 0
2, 3642, Note_on_c, 0, 71, 0
2, 3662, Note_on_c, 0, 48, 64
2, 3664, Note_on_c, 0, 76, 73
2, 3669, Note_on_c, 0, 74, 0
2, 3669, Control_c, 0, 64, 0
2, 3695, Note_on_c, 0, 76, 0
2, 3695, Note_on_c, 0, 72, 73
2, 3713, Note_on_c, 0, 72, 0
2, 3715, Control_c, 0, 64, 127
2, 3723, Note_on_c, 0, 67, 58
2, 3730, Note_on_c, 0, 48, 0
2, 3732, Note_on_c, 0, 55, 54
2, 3738, Note_on_c, 0, 67, 0
2, 3744, Note_on_c, 0, 55, 0
2, 3751, Note_on_c, 0, 64, 66
2, 3758, Note_on_c, 0, 60, 55
2, 3761, Note_on_c, 0, 64, 0
2, 3774, Note_on_c, 0, 60, 0
2, 3782, Note_on_c, 0, 67, 51
2, 3789, Note_on_c, 0, 64, 38
2, 3797, Note_on_c, 0, 67, 0
2, 3806, Note_on_c, 0, 64, 0
2, 3809, Note_on_c, 0, 72, 73
2, 3835, Note_on_c, 0, 72, 0
2, 3847, Note_on_c, 0, 62, 57
2, 3849, Note_on_c, 0, 55, 62
2, 3851, Note_on_c, 0, 77, 59
2, 3853, Note_on_c, 0, 71, 36
2, 3864, Note_on_c, 0, 55, 0
2, 3864, Note_on_c, 0, 62, 0
2, 3879, Note_on_c, 0, 71, 0
2, 3885, Note_on_c, 0, 77, 0
2, 3888, Note_on_c, 0, 74, 56
2, 3925, Note_on_c, 0, 48, 59
2, 3927, Control_c, 0, 64, 0
2, 3931, Note_on_c, 0, 76, 57
2, 3936, Note_on_c, 0, 74, 0
2, 3968, Note_on_c, 0, 76, 0
2, 3970, Note_on_c, 0, 72, 67
2, 3973, Control_c, 0, 64, 127
2, 3985, Note_on_c, 0, 72, 0
2, 3994, Note_on_c, 0, 55, 37
2, 4005, Note_on_c, 0, 67, 63
2, 4008, Note_on_c, 0, 48, 0
2, 4013, Note_on_c, 0, 55, 0
2, 4018, Note_on_c, 0, 67, 0
2, 4035, Note_on_c, 0, 64, 60
2, 4045, Note_on_c, 0, 64, 0
2, 4045, Note_on_c, 0, 60, 39
2, 4063, Note_on_c, 0, 60, 0
2, 4063, Note_on_c, 0, 67, 73
2, 4078, Note_on_c, 0, 67, 0
2, 4096, Note_on_c, 0, 72, 73
2, 4098, Note_on_c, 0, 64, 50
2, 4114, Note_on_c, 0, 64, 0
2, 4126, Note_on_c, 0, 76, 69
2, 4127, Note_on_c, 0, 72, 0
2, 4136, Note_on_c, 0, 76, 0
2, 4150, Note_on_c, 0, 79, 73
2, 4164, Note_on_c, 0, 70, 52
2, 4171, Note_on_c, 0, 64, 10
2, 4195, Note_on_c, 0, 79, 0
2, 4197, Note_on_c, 0, 84, 73
2, 4231, Note_on_c, 0, 84, 0
2, 4236, Note_on_c, 0, 88, 67
2, 4267, Note_on_c, 0, 88, 0
2, 4272, Note_on_c, 0, 86, 67
2, 4284, Note_on_c, 0, 86, 0
2, 4301, Note_on_c, 0, 79, 70
2, 4311, Note_on_c, 0, 79, 0
2, 4313, Note_on_c, 0, 64, 0
2, 4323, Note_on_c, 0, 70, 0
2, 4329, Note_on_c, 0, 74, 73
2, 4348, Note_on_c, 0, 74, 0
2, 4360, Note_on_c, 0, 79, 66
2, 4387, Note_on_c, 0, 79, 0
2, 4396, Note_on_c, 0, 74, 64
2, 4409, Note_on_c, 0, 74, 0
2, 4425, Note_on_c, 0, 76, 47
2, 4433, Note_on_c, 0, 53, 51
2, 4453, Note_on_c, 0, 76, 0
2, 4460, Note_on_c, 0, 60, 43
2, 4460, Note_on_c, 0, 84, 71
2, 4464, Control_c, 0, 64, 0
2, 4492, Note_on_c, 0, 69, 41
2, 4498, Note_on_c, 0, 81, 66
2, 4514, Note_on_c, 0, 84, 0
2, 4522, Control_c, 0, 64, 127
2, 4532, Note_on_c, 0, 77, 71
2, 4536, Note_on_c, 0, 81, 0
2, 4556, Note_on_c, 0, 77, 0
2, 4562, Note_on_c, 0, 74, 70
2, 4578, Note_on_c, 0, 74, 0
2, 4592, Note_on_c, 0, 72, 69
2, 4604, Note_on_c, 0, 72, 0
2, 4620, Note_on_c, 0, 77, 58
2, 4639, Note_on_c, 0, 77, 0
2, 4657, Note_on_c, 0, 89, 69
2, 4675, Control_c, 0, 64, 0
2, 4698, Note_on_c, 0, 86, 68
2, 4707, Note_on_c, 0, 89, 0
2, 4714, Control_c, 0, 64, 127
2, 4729, Note_on_c, 0, 86, 0
2, 4730, Note_on_c, 0, 84, 73
2, 4764, Note_on_c, 0, 84, 0
2, 4767, Note_on_c, 0, 81, 73
2, 4780, Note_on_c, 0, 81, 0
2, 4799, Note_on_c, 0, 77, 66
2, 4809, Note_on_c, 0, 77, 0
2, 4818, Note_on_c, 0, 69, 0
2, 4830, Note_on_c, 0, 74, 49
2, 4842, Note_on_c, 0, 74, 0
2, 4856, Note_on_c, 0, 72, 73
2, 4865, Note_on_c, 0, 72, 0
2, 4880, Note_on_c, 0, 60, 0
2, 4886, Note_on_c, 0, 53, 0
2, 4891, Note_on_c, 0, 77, 48
2, 4904, Note_on_c, 0, 77, 0
2, 4916, Note_on_c, 0, 89, 73
2, 4950, Note_on_c, 0, 89, 0
2, 4950, Note_on_c, 0, 86, 73
2, 4977, Note_on_c, 0, 48, 70
2, 4978, Note_on_c, 0, 84, 73
2, 4981, Note_on_c, 0, 86, 0
2, 4989, Note_on_c, 0, 48, 0
2, 5011, Note_on_c, 0, 84, 0
2, 5011, Note_on_c, 0, 81, 73
2, 5039, Note_on_c, 0, 81, 0
2, 5042, Note_on_c, 0, 77, 73
2, 5054, Note_on_c, 0, 77, 0
2, 5056, Note_on_c, 0, 59, 73
2, 5067, Note_on_c, 0, 74, 73
2, 5083, Note_on_c, 0, 60, 73
2, 5085, Note_on_c, 0, 59, 0
2, 5095, Note_on_c, 0, 74, 0
2, 5097, Note_on_c, 0, 60, 0
2, 5103, Note_on_c, 0, 62, 73
2, 5103, Note_on_c, 0, 72, 73
2, 5113, Note_on_c, 0, 72, 0
2, 5119, Note_on_c, 0, 62, 0
2, 5123, Note_on_c, 0, 60, 71
2, 5135, Note_on_c, 0, 77, 70
2, 5146, Note_on_c, 0, 62, 73
2, 5148, Note_on_c, 0, 60, 0
2, 5162, Note_on_c, 0, 77, 0
2, 5164, Note_on_c, 0, 60, 73
2, 5169, Note_on_c, 0, 62, 0
2, 5170, Note_on_c, 0, 89, 73
2, 5192, Note_on_c, 0, 60, 0
2, 5195, Note_on_c, 0, 59, 73
2, 5217, Note_on_c, 0, 86, 69
2, 5221, Note_on_c, 0, 60, 73
2, 5222, Note_on_c, 0, 89, 0
2, 5235, Note_on_c, 0, 59, 0
2, 5261, Note_on_c, 0, 86, 0
2, 5264, Note_on_c, 0, 84, 71
2, 5271, Note_on_c, 0, 69, 73
2, 5290, Control_c, 0, 64, 0
2, 5307, Note_on_c, 0, 84, 0
2, 5315, Note_on_c, 0, 81, 67
2, 5340, Control_c, 0, 64, 127
2, 5348, Note_on_c, 0, 81, 0
2, 5355, Note_on_c, 0, 77, 69
2, 5366, Note_on_c, 0, 77, 0
2, 5389, Note_on_c, 0, 74, 62
2, 5404, Note_on_c, 0, 74, 0
2, 5429, Note_on_c, 0, 69, 0
2, 5430, Note_on_c, 0, 67, 73
2, 5431, Note_on_c, 0, 72, 73
2, 5444, Control_c, 0, 64, 0
2, 5464, Note_on_c, 0, 76, 68
2, 5494, Control_c, 0, 64, 127
2, 5498, Note_on_c, 0, 76, 0
2, 5500, Note_on_c, 0, 82, 73
2, 5504, Note_on_c, 0, 60, 0
2, 5536, Note_on_c, 0, 82, 0
2, 5536, Note_on_c, 0, 79, 56
2, 5547, Note_on_c, 0, 67, 0
2, 5555, Note_on_c, 0, 72, 0
2, 5562, Note_on_c, 0, 79, 0
2, 5566, Note_on_c, 0, 53, 73
2, 5569, Note_on_c, 0, 81, 71
2, 5578, Control_c, 0, 64, 0
2, 5611, Note_on_c, 0, 81, 0
2, 5612, Note_on_c, 0, 77, 53
2, 5625, Control_c, 0, 64, 127
2, 5633, Note_on_c, 0, 77, 0
2, 5635, Note_on_c, 0, 60, 55
2, 5641, Note_on_c, 0, 72, 63
2, 5642, Note_on_c, 0, 53, 0
2, 5648, Note_on_c, 0, 60, 0
2, 5653, Note_on_c, 0, 72, 0
2, 5667, Note_on_c, 0, 69, 73
2, 5667, Note_on_c, 0, 65, 62
2, 5677, Note_on_c, 0, 69, 0
2, 5695, Note_on_c, 0, 65, 0
2, 5703, Note_on_c, 0, 72, 69
2, 5704, Note_on_c, 0, 69, 71
2, 5722, Note_on_c, 0, 72, 0
2, 5737, Note_on_c, 0, 77, 60
2, 5756, Note_on_c, 0, 69, 0
2, 5768, Note_on_c, 0, 77, 0
2, 5772, Note_on_c, 0, 67, 65
2, 5774, Note_on_c, 0, 82, 73
2, 5776, Note_on_c, 0, 60, 55
2, 5781, Note_on_c, 0, 76, 44
2, 5790, Note_on_c, 0, 60, 0
2, 5808, Note_on_c, 0, 76, 0
2, 5809, Note_on_c, 0, 79, 42
2, 5812, Note_on_c, 0, 82, 0
2, 5821, Note_on_c, 0, 67, 0
2, 5839, Note_on_c, 0, 53, 60
2, 5840, Control_c, 0, 64, 0
2, 5845, Note_on_c, 0, 81, 64
2, 5865, Note_on_c, 0, 79, 0
2, 5877, Note_on_c, 0, 81, 0
2, 5877, Note_on_c, 0, 77, 57
2, 5890, Control_c, 0, 64, 127
2, 5899, Note_on_c, 0, 60, 29
2, 5902, Note_on_c, 0, 77, 0
2, 5907, Note_on_c, 0, 72, 70
2, 5908, Note_on_c, 0, 53, 0
2, 5916, Note_on_c, 0, 60, 0
2, 5920, Note_on_c, 0, 72, 0
2, 5936, Note_on_c, 0, 65, 55
2, 5940, Note_on_c, 0, 69, 70
2, 5953, Note_on_c, 0, 69, 0
2, 5955, Note_on_c, 0, 65, 0
2, 5969, Note_on_c, 0, 72, 57
2, 5976, Note_on_c, 0, 69, 58
2, 5984, Note_on_c, 0, 72, 0
2, 5999, Note_on_c, 0, 77, 63
2, 6004, Note_on_c, 0, 69, 0
2, 6024, Note_on_c, 0, 77, 0
2, 6035, Note_on_c, 0, 82, 73
2, 6037, Note_on_c, 0, 67, 63
2, 6039, Note_on_c, 0, 60, 52
2, 6044, Note_on_c, 0, 76, 31
2, 6053, Note_on_c, 0, 60, 0
2, 6063, Note_on_c, 0, 76, 0
2, 6073, Note_on_c, 0, 82, 0
2, 6073, Note_on_c, 0, 79, 44
2, 6082, Note_on_c, 0, 67, 0
2, 6108, Note_on_c, 0, 53, 58
2, 6109, Control_c, 0, 64, 0
2, 6109, Note_on_c, 0, 81, 72
2, 6123, Note_on_c, 0, 79, 0
2, 6146, Note_on_c, 0, 81, 0
2, 6147, Note_on_c, 0, 77, 70
2, 6155, Control_c, 0, 64, 127
2, 6159, Note_on_c, 0, 60, 48
2, 6170, Note_on_c, 0, 77, 0
2, 6171, Note_on_c, 0, 53, 0
2, 6176, Note_on_c, 0, 60, 0
2, 6178, Note_on_c, 0, 72, 70
2, 6191, Note_on_c, 0, 72, 0
2, 6205, Note_on_c, 0, 65, 48
2, 6210, Note_on_c, 0, 69, 72
2, 6219, Note_on_c, 0, 65, 0
2, 6220, Note_on_c, 0, 69, 0
2, 6242, Note_on_c, 0, 72, 73
2, 6260, Note_on_c, 0, 72, 0
2, 6273, Note_on_c, 0, 69, 48
2, 6274, Note_on_c, 0, 77, 73
2, 6308, Note_on_c, 0, 77, 0
2, 6311, Note_on_c, 0, 81, 71
2, 6320, Note_on_c, 0, 81, 0
2, 6330, Note_on_c, 0, 75, 54
2, 6340, Note_on_c, 0, 84, 68
2, 6364, Note_on_c, 0, 84, 0
2, 6381, Note_on_c, 0, 89, 73
2, 6391, Note_on_c, 0, 65, 10
2, 6413, Note_on_c, 0, 89, 0
2, 6423, Note_on_c, 0, 93, 56
2, 6457, Note_on_c, 0, 91, 63
2, 6458, Note_on_c, 0, 93, 0
2, 6483, Note_on_c, 0, 91, 0
2, 6498, Note_on_c, 0, 84, 48
2, 6524, Note_on_c, 0, 84, 0
2, 6538, Note_on_c, 0, 79, 52
2, 6539, Note_on_c, 0, 69, 0
2, 6560, Note_on_c, 0, 75, 0
2, 6566, Note_on_c, 0, 79, 0
2, 6567, Note_on_c, 0, 65, 0
2, 6585, Note_on_c, 0, 84, 49
2, 6607, Note_on_c, 0, 84, 0
2, 6627, Note_on_c, 0, 79, 41
2, 6647, Note_on_c, 0, 79, 0
2, 6665, Note_on_c, 0, 81, 51
2, 6690, Note_on_c, 0, 81, 0
2, 6708, Note_on_c, 0, 89, 63
2, 6708, Note_on_c, 0, 58, 40
2, 6716, Control_c, 0, 64, 0
2, 6744, Note_on_c, 0, 89, 0
2, 6747, Note_on_c, 0, 86, 57
2, 6762, Control_c, 0, 64, 127
2, 6775, Note_on_c, 0, 86, 0
2, 6778, Note_on_c, 0, 82, 68
2, 6780, Note_on_c, 0, 65, 28
2, 6786, Note_on_c, 0, 58, 0
2, 6795, Note_on_c, 0, 65, 0
2, 6803, Note_on_c, 0, 82, 0
2, 6810, Note_on_c, 0, 79, 69
2, 6826, Note_on_c, 0, 79, 0
2, 6841, Note_on_c, 0, 74, 46
2, 6843, Note_on_c, 0, 77, 72
2, 6853, Note_on_c, 0, 77, 0
2, 6875, Note_on_c, 0, 82, 73
2, 6900, Note_on_c, 0, 82, 0
2, 6910, Note_on_c, 0, 94, 73
2, 6949, Note_on_c, 0, 94, 0
2, 6957, Note_on_c, 0, 91, 57
2, 6987, Note_on_c, 0, 89, 73
2, 6990, Note_on_c, 0, 91, 0
2, 7014, Note_on_c, 0, 89, 0
2, 7020, Note_on_c, 0, 86, 71
2, 7035, Note_on_c, 0, 86, 0
2, 7053, Note_on_c, 0, 82, 73
2, 7057, Note_on_c, 0, 74, 0
2, 7081, Note_on_c, 0, 79, 70
2, 7087, Note_on_c, 0, 82, 0
2, 7114, Note_on_c, 0, 79, 0
2, 7129, Note_on_c, 0, 77, 72
2, 7139, Note_on_c, 0, 77, 0
2, 7160, Note_on_c, 0, 82, 71
2, 7179, Note_on_c, 0, 82, 0
2, 7192, Note_on_c, 0, 94, 73
2, 7224, Note_on_c, 0, 94, 0
2, 7230, Note_on_c, 0, 91, 54
2, 7264, Note_on_c, 0, 55, 48
2, 7268, Note_on_c, 0, 91, 0
2, 7269, Control_c, 0, 64, 0
2, 7272, Note_on_c, 0, 89, 63
2, 7306, Note_on_c, 0, 89, 0
2, 7315, Control_c, 0, 64, 127
2, 7315, Note_on_c, 0, 86, 56
2, 7316, Note_on_c, 0, 55, 0
2, 7330, Note_on_c, 0, 86, 0
2, 7347, Note_on_c, 0, 65, 32
2, 7352, Note_on_c, 0, 83, 35
2, 7364, Note_on_c, 0, 83, 0
2, 7377, Note_on_c, 0, 65, 0
2, 7377, Note_on_c, 0, 79, 67
2, 7394, Note_on_c, 0, 79, 0
2, 7415, Note_on_c, 0, 74, 49
2, 7419, Note_on_c, 0, 77, 64
2, 7434, Note_on_c, 0, 77, 0
2, 7459, Note_on_c, 0, 79, 42
2, 7474, Note_on_c, 0, 79, 0
2, 7501, Note_on_c, 0, 95, 57
2, 7534, Note_on_c, 0, 95, 0
2, 7543, Note_on_c, 0, 91, 54
2, 7559, Note_on_c, 0, 74, 0
2, 7563, Note_on_c, 0, 91, 0
2, 7570, Note_on_c, 0, 89, 73
2, 7588, Note_on_c, 0, 89, 0
2, 7607, Note_on_c, 0, 86, 59
2, 7623, Note_on_c, 0, 86, 0
2, 7638, Note_on_c, 0, 83, 46
2, 7648, Note_on_c, 0, 83, 0
2, 7663, Note_on_c, 0, 79, 73
2, 7686, Note_on_c, 0, 79, 0
2, 7697, Note_on_c, 0, 77, 73
2, 7713, Note_on_c, 0, 77, 0
2, 7726, Note_on_c, 0, 79, 73
2, 7734, Note_on_c, 0, 79, 0
2, 7759, Note_on_c, 0, 95, 73
2, 7792, Note_on_c, 0, 95, 0
2, 7792, Note_on_c, 0, 91, 73
2, 7821, Note_on_c, 0, 60, 63
2, 7822, Control_c, 0, 64, 0
2, 7824, Note_on_c, 0, 89, 73
2, 7828, Note_on_c, 0, 91, 0
2, 7859, Note_on_c, 0, 86, 73
2, 7860, Note_on_c, 0, 89, 0
2, 7864, Control_c, 0, 64, 127
2, 7866, Note_on_c, 0, 60, 0
2, 7872, Note_on_c, 0, 67, 54
2, 7885, Note_on_c, 0, 86, 0
2, 7893, Note_on_c, 0, 84, 73
2, 7901, Note_on_c, 0, 67, 0
2, 7906, Note_on_c, 0, 84, 0
2, 7911, Note_on_c, 0, 72, 69
2, 7920, Note_on_c, 0, 81, 73
2, 7930, Note_on_c, 0, 72, 0
2, 7944, Note_on_c, 0, 81, 0
2, 7953, Note_on_c, 0, 79, 73
2, 7962, Note_on_c, 0, 77, 73
2, 7965, Note_on_c, 0, 79, 0
2, 7993, Note_on_c, 0, 84, 53
2, 7995, Note_on_c, 0, 83, 22
2, 8005, Note_on_c, 0, 84, 0
2, 8008, Note_on_c, 0, 83, 0
2, 8023, Note_on_c, 0, 96, 73
2, 8058, Note_on_c, 0, 93, 73
2, 8062, Note_on_c, 0, 96, 0
2, 8091, Note_on_c, 0, 89, 73
2, 8093, Note_on_c, 0, 93, 0
2, 8116, Note_on_c, 0, 89, 0
2, 8122, Note_on_c, 0, 86, 73
2, 8136, Note_on_c, 0, 86, 0
2, 8142, Note_on_c, 0, 77, 0
2, 8154, Note_on_c, 0, 84, 73
2, 8184, Note_on_c, 0, 81, 73
2, 8187, Note_on_c, 0, 84, 0
2, 8212, Note_on_c, 0, 81, 0
2, 8216, Note_on_c, 0, 79, 73
2, 8229, Note_on_c, 0, 79, 0
2, 8249, Note_on_c, 0, 84, 73
2, 8258, Note_on_c, 0, 84, 0
2, 8284, Note_on_c, 0, 60, 65
2, 8284, Note_on_c, 0, 96, 73
2, 8287, Control_c, 0, 64, 0
2, 8308, Note_on_c, 0, 60, 0
2, 8314, Note_on_c, 0, 67, 67
2, 8317, Note_on_c, 0, 96, 0
2, 8322, Note_on_c, 0, 93, 62
2, 8329, Control_c, 0, 64, 127
2, 8335, Note_on_c, 0, 70, 73
2, 8358, Note_on_c, 0, 93, 0
2, 8364, Note_on_c, 0, 89, 65
2, 8377, Note_on_c, 0, 77, 73
2, 8393, Note_on_c, 0, 89, 0
2, 8408, Note_on_c, 0, 86, 58
2, 8427, Note_on_c, 0, 86, 0
2, 8443, Note_on_c, 0, 84, 73
2, 8476, Note_on_c, 0, 84, 0
2, 8478, Note_on_c, 0, 81, 73
2, 8485, Note_on_c, 0, 77, 0
2, 8508, Note_on_c, 0, 81, 0
2, 8515, Note_on_c, 0, 79, 73
2, 8520, Note_on_c, 0, 76, 73
2, 8525, Note_on_c, 0, 79, 0
2, 8547, Note_on_c, 0, 84, 73
2, 8589, Note_on_c, 0, 84, 0
2, 8593, Note_on_c, 0, 96, 71
2, 8625, Note_on_c, 0, 96, 0
2, 8633, Note_on_c, 0, 93, 50
2, 8656, Note_on_c, 0, 93, 0
2, 8668, Note_on_c, 0, 91, 52
2, 8675, Control_c, 0, 64, 0
2, 8682, Note_on_c, 0, 81, 64
2, 8697, Note_on_c, 0, 91, 0
2, 8710, Note_on_c, 0, 67, 0
2, 8712, Note_on_c, 0, 88, 49
2, 8713, Control_c, 0, 64, 127
2, 8722, Note_on_c, 0, 81, 0
2, 8723, Note_on_c, 0, 70, 0
2, 8731, Note_on_c, 0, 88, 0
2, 8733, Note_on_c, 0, 76, 0
2, 8746, Note_on_c, 0, 84, 61
2, 8758, Note_on_c, 0, 84, 0
2, 8773, Note_on_c, 0, 81, 55
2, 8788, Note_on_c, 0, 81, 0
2, 8806, Note_on_c, 0, 79, 67
2, 8819, Note_on_c, 0, 79, 0
2, 8846, Note_on_c, 0, 84, 63
2, 8858, Note_on_c, 0, 84, 0
2, 8892, Note_on_c, 0, 96, 69
2, 8911, Note_on_c, 0, 96, 0
2, 8935, Note_on_c, 0, 91, 50
2, 8948, Note_on_c, 0, 53, 31
2, 8967, Note_on_c, 0, 60, 50
2, 8990, Control_c, 0, 64, 0
2, 8995, Note_on_c, 0, 91, 0
2, 8999, Note_on_c, 0, 96, 42
2, 9001, Note_on_c, 0, 69, 52
2, 9033, Note_on_c, 0, 96, 0
2, 9039, Note_on_c, 0, 93, 54
2, 9044, Control_c, 0, 64, 127
2, 9073, Note_on_c, 0, 93, 0
2, 9079, Note_on_c, 0, 89, 50
2, 9101, Note_on_c, 0, 89, 0
2, 9109, Note_on_c, 0, 86, 54
2, 9132, Note_on_c, 0, 86, 0
2, 9145, Note_on_c, 0, 84, 62
2, 9155, Note_on_c, 0, 84, 0
2, 9178, Note_on_c, 0, 89, 57
2, 9192, Note_on_c, 0, 89, 0
2, 9219, Note_on_c, 0, 101, 59
2, 9235, Note_on_c, 0, 101, 0
2, 9261, Note_on_c, 0, 98, 35
2, 9280, Note_on_c, 0, 98, 0
2, 9288, Note_on_c, 0, 96, 66
2, 9312, Note_on_c, 0, 96, 0
2, 9323, Note_on_c, 0, 93, 68
2, 9349, Note_on_c, 0, 93, 0
2, 9352, Note_on_c, 0, 89, 73
2, 9371, Note_on_c, 0, 89, 0
2, 9382, Note_on_c, 0, 86, 70
2, 9399, Note_on_c, 0, 86, 0
2, 9415, Note_on_c, 0, 84, 73
2, 9424, Note_on_c, 0, 84, 0
2, 9433, Note_on_c, 0, 69, 0
2, 9445, Note_on_c, 0, 89, 73
2, 9459, Note_on_c, 0, 89, 0
2, 9477, Note_on_c, 0, 60, 0
2, 9485, Note_on_c, 0, 53, 0
2, 9485, Note_on_c, 0, 101, 67
2, 9525, Note_on_c, 0, 101, 0
2, 9525, Note_on_c, 0, 98, 55
2, 9562, Note_on_c, 0, 48, 53
2, 9564, Note_on_c, 0, 98, 0
2, 9567, Note_on_c, 0, 96, 55
2, 9585, Note_on_c, 0, 96, 0
2, 9602, Note_on_c, 0, 48, 0
2, 9607, Note_on_c, 0, 93, 42
2, 9620, Note_on_c, 0, 93, 0
2, 9636, Note_on_c, 0, 89, 53
2, 9648, Note_on_c, 0, 89, 0
2, 9660, Note_on_c, 0, 86, 68
2, 9676, Note_on_c, 0, 59, 59
2, 9681, Note_on_c, 0, 86, 0
2, 9697, Note_on_c, 0, 60, 73
2, 9698, Note_on_c, 0, 84, 69
2, 9702, Note_on_c, 0, 59, 0
2, 9707, Note_on_c, 0, 84, 0
2, 9711, Note_on_c, 0, 60, 0
2, 9720, Note_on_c, 0, 62, 57
2, 9732, Note_on_c, 0, 89, 69
2, 9736, Note_on_c, 0, 62, 0
2, 9741, Note_on_c, 0, 60, 65
2, 9753, Note_on_c, 0, 89, 0
2, 9755, Note_on_c, 0, 60, 0
2, 9761, Note_on_c, 0, 62, 70
2, 9775, Note_on_c, 0, 101, 62
2, 9780, Note_on_c, 0, 62, 0
2, 9781, Note_on_c, 0, 60, 66
2, 9804, Note_on_c, 0, 60, 0
2, 9811, Note_on_c, 0, 59, 69
2, 9816, Note_on_c, 0, 101, 0
2, 9818, Note_on_c, 0, 98, 54
2, 9842, Note_on_c, 0, 59, 0
2, 9846, Note_on_c, 0, 60, 58
2, 9860, Note_on_c, 0, 98, 0
2, 9867, Note_on_c, 0, 96, 51
2, 9885, Control_c, 0, 64, 0
2, 9897, Note_on_c, 0, 69, 73
2, 9903, Note_on_c, 0, 96, 0
2, 9921, Note_on_c, 0, 93, 57
2, 9939, Control_c, 0, 64, 127
2, 9957, Note_on_c, 0, 93, 0
2, 9960, Note_on_c, 0, 89, 71
2, 9970, Note_on_c, 0, 89, 0
2, 9997, Note_on_c, 0, 86, 72
2, 10011, Note_on_c, 0, 86, 0
2, 10024, Note_on_c, 0, 69, 0
2, 10033, Note_on_c, 0, 84, 72
2, 10044, Note_on_c, 0, 67, 64
2, 10071, Note_on_c, 0, 88, 65
2, 10092, Note_on_c, 0, 88, 0
2, 10106, Note_on_c, 0, 94, 73
2, 10108, Note_on_c, 0, 60, 0
2, 10121, Note_on_c, 0, 84, 0
2, 10137, Note_on_c, 0, 94, 0
2, 10141, Note_on_c, 0, 67, 0
2, 10145, Note_on_c, 0, 91, 48
2, 10160, Note_on_c, 0, 91, 0
2, 10176, Note_on_c, 0, 93, 64
2, 10177, Note_on_c, 0, 53, 54
2, 10185, Control_c, 0, 64, 0
2, 10207, Note_on_c, 0, 89, 63
2, 10208, Note_on_c, 0, 93, 0
2, 10227, Control_c, 0, 64, 127
2, 10238, Note_on_c, 0, 89, 0
2, 10239, Note_on_c, 0, 60, 40
2, 10246, Note_on_c, 0, 84, 42
2, 10251, Note_on_c, 0, 53, 0
2, 10255, Note_on_c, 0, 60, 0
2, 10259, Note_on_c, 0, 84, 0
2, 10271, Note_on_c, 0, 81, 56
2, 10273, Note_on_c, 0, 65, 66
2, 10282, Note_on_c, 0, 81, 0
2, 10290, Note_on_c, 0, 65, 0
2, 10304, Note_on_c, 0, 77, 73
2, 10309, Note_on_c, 0, 69, 61
2, 10315, Note_on_c, 0, 77, 0
2, 10322, Note_on_c, 0, 69, 0
2, 10342, Note_on_c, 0, 72, 41
2, 10363, Note_on_c, 0, 72, 0
2, 10369, Note_on_c, 0, 67, 72
2, 10372, Note_on_c, 0, 60, 65
2, 10373, Note_on_c, 0, 82, 70
2, 10378, Note_on_c, 0, 67, 0
2, 10382, Note_on_c, 0, 60, 0
2, 10393, Note_on_c, 0, 76, 13
2, 10411, Note_on_c, 0, 79, 51
2, 10416, Note_on_c, 0, 76, 0
2, 10417, Note_on_c, 0, 82, 0
2, 10458, Note_on_c, 0, 41, 48
2, 10459, Note_on_c, 0, 81, 69
2, 10464, Note_on_c, 0, 79, 0
2, 10465, Control_c, 0, 64, 0
2, 10498, Note_on_c, 0, 81, 0
2, 10501, Note_on_c, 0, 77, 62
2, 10512, Control_c, 0, 64, 127
2, 10521, Note_on_c, 0, 48, 47
2, 10528, Note_on_c, 0, 77, 0
2, 10536, Note_on_c, 0, 72, 68
2, 10537, Note_on_c, 0, 48, 0
2, 10540, Note_on_c, 0, 41, 0
2, 10546, Note_on_c, 0, 72, 0
2, 10564, Note_on_c, 0, 53, 61
2, 10566, Note_on_c, 0, 69, 73
2, 10588, Note_on_c, 0, 53, 0
2, 10594, Note_on_c, 0, 69, 0
2, 10600, Note_on_c, 0, 65, 73
2, 10605, Note_on_c, 0, 57, 73
2, 10612, Note_on_c, 0, 65, 0
2, 10623, Note_on_c, 0, 57, 0
2, 10630, Note_on_c, 0, 60, 64
2, 10663, Note_on_c, 0, 70, 73
2, 10666, Note_on_c, 0, 60, 0
2, 10669, Note_on_c, 0, 55, 69
2, 10669, Note_on_c, 0, 48, 62
2, 10669, Note_on_c, 0, 64, 59
2, 10681, Note_on_c, 0, 48, 0
2, 10685, Note_on_c, 0, 64, 0
2, 10700, Note_on_c, 0, 67, 67
2, 10701, Note_on_c, 0, 55, 0
2, 10702, Note_on_c, 0, 70, 0
2, 10731, Control_c, 0, 64, 0
2, 10733, Note_on_c, 0, 41, 63
2, 10734, Note_on_c, 0, 69, 73
2, 10745, Note_on_c, 0, 67, 0
2, 10764, Note_on_c, 0, 69, 0
2, 10767, Note_on_c, 0, 65, 67
2, 10779, Note_on_c, 0, 65, 0
2, 10785, Control_c, 0, 64, 127
2, 10790, Note_on_c, 0, 60, 64
2, 10801, Note_on_c, 0, 48, 56
2, 10809, Note_on_c, 0, 60, 0
2, 10810, Note_on_c, 0, 41, 0
2, 10816, Note_on_c, 0, 48, 0
2, 10820, Note_on_c, 0, 57, 71
2, 10829, Note_on_c, 0, 53, 63
2, 10830, Note_on_c, 0, 57, 0
2, 10851, Note_on_c, 0, 53, 0
2, 10855, Note_on_c, 0, 60, 63
2, 10865, Note_on_c, 0, 57, 67
2, 10872, Note_on_c, 0, 60, 0
2, 10886, Note_on_c, 0, 57, 0
2, 10901, Note_on_c, 0, 65, 48
2, 10918, Note_on_c, 0, 65, 0
2, 10930, Note_on_c, 0, 70, 63
2, 10932, Note_on_c, 0, 55, 55
2, 10933, Note_on_c, 0, 48, 51
2, 10937, Note_on_c, 0, 64, 10
2, 10946, Note_on_c, 0, 48, 0
2, 10954, Note_on_c, 0, 70, 0
2, 10955, Note_on_c, 0, 64, 0
2, 10962, Note_on_c, 0, 67, 44
2, 10967, Note_on_c, 0, 55, 0
2, 10996, Control_c, 0, 64, 0
2, 11000, Note_on_c, 0, 41, 46
2, 11007, Note_on_c, 0, 69, 63
2, 11013, Note_on_c, 0, 67, 0
2, 11032, Note_on_c, 0, 69, 0
2, 11040, Note_on_c, 0, 65, 53
2, 11050, Control_c, 0, 64, 127
2, 11055, Note_on_c, 0, 65, 0
2, 11068, Note_on_c, 0, 48, 38
2, 11070, Note_on_c, 0, 60, 61
2, 11074, Note_on_c, 0, 41, 0
2, 11082, Note_on_c, 0, 60, 0
2, 11088, Note_on_c, 0, 48, 0
2, 11101, Note_on_c, 0, 57, 54
2, 11109, Note_on_c, 0, 53, 35
2, 11114, Note_on_c, 0, 57, 0
2, 11137, Note_on_c, 0, 60, 45
2, 11145, Note_on_c, 0, 53, 0
2, 11154, Note_on_c, 0, 60, 0
2, 11156, Note_on_c, 0, 57, 44
2, 11169, Note_on_c, 0, 57, 0
2, 11178, Note_on_c, 0, 65, 36
2, 11196, Note_on_c, 0, 65, 0
2, 11217, Note_on_c, 0, 70, 49
2, 11219, Note_on_c, 0, 64, 10
2, 11229, Note_on_c, 0, 55, 41
2, 11232, Note_on_c, 0, 48, 34
2, 11236, Note_on_c, 0, 70, 0
2, 11237, Note_on_c, 0, 64, 0
2, 11249, Note_on_c, 0, 48, 0
2, 11257, Note_on_c, 0, 67, 48
2, 11296, Note_on_c, 0, 55, 0
2, 11326, Note_on_c, 0, 67, 0
2, 11332, Note_on_c, 0, 41, 46
2, 11339, Note_on_c, 0, 69, 44
2, 11346, Control_c, 0, 64, 0
2, 11401, Note_on_c, 0, 65, 38
2, 11404, Note_on_c, 0, 69, 0
2, 11418, Control_c, 0, 64, 127
2, 11441, Note_on_c, 0, 65, 0
2, 11451, Note_on_c, 0, 60, 51
2, 11470, Note_on_c, 0, 60, 0
2, 11502, Note_on_c, 0, 57, 49
2, 11503, Note_on_c, 0, 41, 0
2, 11510, Note_on_c, 0, 48, 36
2, 11520, Note_on_c, 0, 57, 0
2, 11526, Note_on_c, 0, 48, 0
2, 11551, Note_on_c, 0, 60, 41
2, 11559, Note_on_c, 0, 53, 44
2, 11572, Note_on_c, 0, 53, 0
2, 11576, Note_on_c, 0, 60, 0
2, 11598, Note_on_c, 0, 65, 58
2, 11604, Note_on_c, 0, 57, 44
2, 11617, Note_on_c, 0, 65, 0
2, 11631, Note_on_c, 0, 57, 0
2, 11649, Note_on_c, 0, 69, 70
2, 11650, Note_on_c, 0, 60, 48
2, 11659, Note_on_c, 0, 69, 0
2, 11665, Note_on_c, 0, 60, 0
2, 11700, Note_on_c, 0, 72, 50
2, 11705, Note_on_c, 0, 65, 59
2, 11715, Note_on_c, 0, 72, 0
2, 11717, Note_on_c, 0, 65, 0
2, 11770, Note_on_c, 0, 77, 52
2, 11771, Note_on_c, 0, 69, 55
2, 11785, Note_on_c, 0, 77, 0
2, 11817, Note_on_c, 0, 69, 0
2, 11856, Note_on_c, 0, 75, 66
2, 11856, Note_on_c, 0, 81, 55
2, 11867, Note_on_c, 0, 81, 0
2, 11890, Note_on_c, 0, 75, 0
2, 11940, Note_on_c, 0, 69, 53
2, 11942, Note_on_c, 0, 84, 38
2, 11958, Note_on_c, 0, 69, 0
2, 11971, Note_on_c, 0, 84, 0
2, 12009, Note_on_c, 0, 65, 52
2, 12012, Note_on_c, 0, 89, 42
2, 12027, Note_on_c, 0, 65, 0
2, 12033, Note_on_c, 0, 89, 0
2, 12084, Note_on_c, 0, 60, 33
2, 12088, Note_on_c, 0, 93, 37
2, 12105, Note_on_c, 0, 60, 0
2, 12150, Note_on_c, 0, 93, 0
2, 12165, Note_on_c, 0, 84, 36
2, 12174, Note_on_c, 0, 57, 21
2, 12192, Note_on_c, 0, 57, 0
2, 12244, Note_on_c, 0, 84, 0
2, 12260, Note_on_c, 0, 89, 34
2, 12262, Note_on_c, 0, 53, 31
2, 12301, Note_on_c, 0, 53, 0
2, 12305, Note_on_c, 0, 89, 0
2, 12382, Note_on_c, 0, 81, 41
2, 12384, Note_on_c, 0, 48, 22
2, 12408, Note_on_c, 0, 81, 0
2, 12468, Note_on_c, 0, 48, 0
2, 12694, Note_on_c, 0, 101, 24
2, 12694, Note_on_c, 0, 41, 20
2, 12760, Note_on_c, 0, 41, 0
2, 12804, Note_on_c, 0, 101, 0
2, 14131, Control_c, 0, 64, 0
2, 14131, End_track
0, 0, End_of_file
