0, 0, Header, 1, 5, 240
1, 0, Start_track
1, 0, Time_signature, 4, 2, 24, 8
1, 0, Tempo, 500000
1, 0, Marker_t, "Chopin: Mazurka, Op. 6 No. 1"
1, 73920, Tempo, 600000
1, 73920, Marker_t, "Chopin: Mazurka, Op. 6 No. 2"
1, 121920, Tempo, 500000
1, 122880, Marker_t, "Chopin: Mazurka, Op. 6 No. 3 -Vivace"
1, 166080, Marker_t, "Chopin: Mazurka, Op. 6 No. 4 -Presto ma non troppo"
1, 188160, Marker_t, "Chopin: Mazurka, Op. 7 No. 1 -Vivace"
1, 245760, Marker_t, "Chopin: Mazurka, Op. 7 No. 2 -Vivo ma non troppo"
1, 332160, Marker_t, "Chopin: Mazurka, Op. 7 No. 3"
1, 388800, Marker_t, "Chopin: Mazurka, Op. 7 No. 4 -Presto ma non troppo"
1, 415688, Marker_t, "Chopin: Mazurka, Op. 7 No. 5 -Vivo"
1, 432960, Marker_t, "Chopin: Mazurka, Op. 17 No. 1 -Vivo e risoluto"
1, 502056, Marker_t, "Chopin: Mazurka, Op. 17 No. 2 -Lento ma non troppo"
1, 664344, Marker_t, "Chopin: Mazurka, Op. 17 No. 4 -Lento ma non troppo"
1, 664344, End_track
2, 0, Start_track
2, 0, Title_t, "Chopin: Mazurkas 1-13"
2, 0, Program_c, 0, 0
2, 0, Control_c, 0, 7, 127
2, 107, Control_c, 0, 64, 0
2, 135, Note_on_c, 0, 66, 63
2, 166, Control_c, 0, 64, 127
2, 355, Note_on_c, 0, 37, 61
2, 371, Control_c, 0, 64, 0
2, 403, Control_c, 0, 64, 127
2, 501, Note_on_c, 0, 68, 52
2, 519, Note_off_c, 0, 66, 64
2, 536, Note_on_c, 0, 66, 62
2, 557, Note_off_c, 0, 68, 64
2, 564, Note_on_c, 0, 49, 55
2, 566, Note_off_c, 0, 37, 64
2, 576, Note_on_c, 0, 65, 63
2, 589, Note_on_c, 0, 59, 42
2, 591, Note_off_c, 0, 66, 64
2, 597, Control_c, 0, 64, 0
2, 618, Control_c, 0, 64, 127
2, 648, Note_off_c, 0, 49, 64
2, 658, Note_off_c, 0, 59, 64
2, 672, Note_off_c, 0, 65, 64
2, 672, Note_on_c, 0, 66, 70
2, 771, Control_c, 0, 64, 0
2, 776, Note_on_c, 0, 68, 55
2, 778, Note_on_c, 0, 49, 53
2, 786, Note_on_c, 0, 59, 48
2, 789, Note_off_c, 0, 66, 64
2, 789, Note_on_c, 0, 53, 53
2, 805, Control_c, 0, 64, 127
2, 817, Note_off_c, 0, 53, 64
2, 817, Note_off_c, 0, 59, 64
2, 831, Note_off_c, 0, 49, 64
2, 917, Note_on_c, 0, 62, 58
2, 936, Note_off_c, 0, 68, 64
2, 975, Note_on_c, 0, 61, 66
2, 975, Control_c, 0, 64, 0
2, 982, Note_on_c, 0, 42, 50
2, 999, Note_off_c, 0, 62, 64
2, 1031, Control_c, 0, 64, 127
2, 1128, Note_on_c, 0, 66, 55
2, 1148, Note_off_c, 0, 61, 64
2, 1164, Note_on_c, 0, 61, 55
2, 1165, Note_on_c, 0, 69, 66
2, 1171, Note_on_c, 0, 54, 57
2, 1175, Control_c, 0, 64, 0
2, 1193, Note_off_c, 0, 42, 64
2, 1205, Note_off_c, 0, 66, 64
2, 1208, Note_off_c, 0, 61, 64
2, 1215, Note_off_c, 0, 54, 64
2, 1233, Control_c, 0, 64, 127
2, 1264, Control_c, 0, 64, 127
2, 1364, Note_off_c, 0, 69, 64
2, 1369, Control_c, 0, 64, 0
2, 1384, Note_on_c, 0, 66, 61
2, 1384, Note_on_c, 0, 54, 53
2, 1387, Note_on_c, 0, 69, 61
2, 1387, Note_on_c, 0, 61, 23
2, 1425, Note_off_c, 0, 54, 64
2, 1428, Note_off_c, 0, 61, 64
2, 1433, Control_c, 0, 64, 127
2, 1606, Note_on_c, 0, 40, 58
2, 1606, Control_c, 0, 64, 0
2, 1633, Control_c, 0, 64, 127
2, 1725, Note_on_c, 0, 71, 55
2, 1741, Note_off_c, 0, 69, 64
2, 1755, Note_off_c, 0, 66, 64
2, 1767, Note_on_c, 0, 69, 55
2, 1786, Note_off_c, 0, 71, 64
2, 1800, Note_on_c, 0, 68, 61
2, 1800, Note_on_c, 0, 64, 50
2, 1800, Note_on_c, 0, 52, 48
2, 1807, Note_on_c, 0, 62, 52
2, 1817, Note_off_c, 0, 40, 64
2, 1818, Note_off_c, 0, 69, 64
2, 1819, Control_c, 0, 64, 0
2, 1852, Note_off_c, 0, 52, 64
2, 1857, Note_off_c, 0, 62, 64
2, 1858, Control_c, 0, 64, 127
2, 1904, Note_on_c, 0, 69, 58
2, 1917, Note_off_c, 0, 64, 64
2, 1927, Note_off_c, 0, 68, 64
2, 1994, Note_on_c, 0, 62, 61
2, 1998, Control_c, 0, 64, 0
2, 2004, Note_on_c, 0, 71, 61
2, 2004, Note_on_c, 0, 52, 58
2, 2009, Note_on_c, 0, 59, 55
2, 2020, Note_off_c, 0, 69, 64
2, 2032, Control_c, 0, 64, 127
2, 2042, Note_off_c, 0, 59, 64
2, 2055, Note_off_c, 0, 52, 64
2, 2148, Note_on_c, 0, 66, 44
2, 2156, Note_off_c, 0, 71, 64
2, 2192, Note_on_c, 0, 45, 61
2, 2195, Note_on_c, 0, 64, 53
2, 2203, Control_c, 0, 64, 0
2, 2228, Note_off_c, 0, 66, 64
2, 2251, Control_c, 0, 64, 127
2, 2351, Note_on_c, 0, 69, 37
2, 2370, Note_off_c, 0, 64, 64
2, 2375, Note_off_c, 0, 62, 64
2, 2389, Note_on_c, 0, 73, 74
2, 2392, Note_on_c, 0, 61, 37
2, 2392, Note_on_c, 0, 57, 58
2, 2392, Control_c, 0, 64, 0
2, 2411, Note_off_c, 0, 69, 64
2, 2419, Note_off_c, 0, 45, 64
2, 2421, Control_c, 0, 64, 127
2, 2436, Note_off_c, 0, 57, 64
2, 2436, Note_off_c, 0, 61, 64
2, 2576, Note_off_c, 0, 73, 64
2, 2592, Note_on_c, 0, 73, 70
2, 2596, Note_on_c, 0, 64, 58
2, 2599, Note_on_c, 0, 57, 57
2, 2615, Control_c, 0, 64, 0
2, 2645, Control_c, 0, 64, 127
2, 2684, Note_off_c, 0, 57, 64
2, 2684, Note_off_c, 0, 64, 64
2, 2803, Note_on_c, 0, 57, 54
2, 2808, Note_on_c, 0, 63, 22
2, 2810, Note_on_c, 0, 66, 52
2, 2828, Control_c, 0, 64, 0
2, 2851, Control_c, 0, 64, 127
2, 2928, Note_on_c, 0, 75, 46
2, 2931, Note_off_c, 0, 73, 64
2, 2971, Note_on_c, 0, 73, 54
2, 2985, Note_off_c, 0, 75, 64
2, 3010, Note_on_c, 0, 56, 55
2, 3012, Note_on_c, 0, 72, 57
2, 3022, Note_off_c, 0, 57, 64
2, 3026, Control_c, 0, 64, 0
2, 3029, Note_off_c, 0, 73, 64
2, 3048, Control_c, 0, 64, 127
2, 3148, Note_on_c, 0, 68, 54
2, 3151, Note_off_c, 0, 72, 64
2, 3213, Note_on_c, 0, 71, 55
2, 3213, Note_on_c, 0, 65, 45
2, 3216, Note_on_c, 0, 61, 52
2, 3222, Note_off_c, 0, 63, 64
2, 3223, Note_off_c, 0, 68, 64
2, 3224, Note_off_c, 0, 66, 64
2, 3226, Control_c, 0, 64, 0
2, 3259, Control_c, 0, 64, 127
2, 3404, Note_off_c, 0, 61, 64
2, 3415, Note_on_c, 0, 55, 27
2, 3420, Note_on_c, 0, 64, 32
2, 3424, Note_off_c, 0, 65, 64
2, 3426, Note_on_c, 0, 61, 26
2, 3429, Note_off_c, 0, 56, 64
2, 3433, Control_c, 0, 64, 0
2, 3456, Control_c, 0, 64, 127
2, 3541, Note_on_c, 0, 73, 45
2, 3559, Note_off_c, 0, 71, 64
2, 3590, Note_on_c, 0, 71, 48
2, 3606, Note_off_c, 0, 73, 64
2, 3613, Note_on_c, 0, 54, 44
2, 3626, Note_off_c, 0, 55, 64
2, 3630, Note_on_c, 0, 70, 54
2, 3637, Control_c, 0, 64, 0
2, 3643, Note_off_c, 0, 71, 64
2, 3672, Control_c, 0, 64, 127
2, 3747, Note_off_c, 0, 70, 64
2, 3750, Note_on_c, 0, 66, 50
2, 3815, Note_on_c, 0, 63, 40
2, 3816, Note_on_c, 0, 69, 55
2, 3819, Note_on_c, 0, 60, 39
2, 3823, Note_off_c, 0, 64, 64
2, 3829, Note_off_c, 0, 66, 64
2, 3829, Note_off_c, 0, 61, 64
2, 3839, Control_c, 0, 64, 0
2, 3862, Control_c, 0, 64, 127
2, 4025, Note_on_c, 0, 53, 39
2, 4028, Note_on_c, 0, 62, 41
2, 4028, Note_on_c, 0, 59, 42
2, 4034, Note_off_c, 0, 54, 64
2, 4036, Note_off_c, 0, 63, 64
2, 4040, Note_off_c, 0, 60, 64
2, 4049, Control_c, 0, 64, 0
2, 4061, Control_c, 0, 64, 127
2, 4166, Note_on_c, 0, 71, 39
2, 4176, Note_off_c, 0, 69, 64
2, 4202, Note_on_c, 0, 69, 39
2, 4225, Note_off_c, 0, 71, 64
2, 4226, Note_on_c, 0, 52, 39
2, 4232, Note_off_c, 0, 53, 64
2, 4234, Note_on_c, 0, 68, 37
2, 4255, Control_c, 0, 64, 0
2, 4264, Note_off_c, 0, 69, 64
2, 4278, Control_c, 0, 64, 127
2, 4368, Note_on_c, 0, 64, 48
2, 4369, Note_off_c, 0, 68, 64
2, 4431, Note_on_c, 0, 67, 57
2, 4437, Note_on_c, 0, 61, 39
2, 4437, Note_on_c, 0, 58, 45
2, 4447, Note_off_c, 0, 59, 64
2, 4447, Note_off_c, 0, 62, 64
2, 4452, Control_c, 0, 64, 0
2, 4456, Note_off_c, 0, 64, 64
2, 4476, Control_c, 0, 64, 127
2, 4642, Note_off_c, 0, 61, 64
2, 4644, Note_on_c, 0, 61, 36
2, 4644, Note_on_c, 0, 51, 36
2, 4648, Note_on_c, 0, 57, 24
2, 4657, Note_off_c, 0, 58, 64
2, 4658, Control_c, 0, 64, 0
2, 4663, Note_off_c, 0, 52, 64
2, 4674, Control_c, 0, 64, 127
2, 4784, Note_on_c, 0, 69, 37
2, 4802, Note_off_c, 0, 67, 64
2, 4822, Note_on_c, 0, 67, 46
2, 4840, Note_off_c, 0, 69, 64
2, 4852, Note_on_c, 0, 50, 39
2, 4857, Note_off_c, 0, 51, 64
2, 4860, Control_c, 0, 64, 0
2, 4866, Note_on_c, 0, 66, 48
2, 4884, Note_off_c, 0, 67, 64
2, 4899, Control_c, 0, 64, 127
2, 4981, Note_on_c, 0, 62, 42
2, 4990, Note_off_c, 0, 66, 64
2, 5099, Note_on_c, 0, 66, 52
2, 5109, Note_on_c, 0, 56, 40
2, 5112, Note_on_c, 0, 59, 37
2, 5112, Control_c, 0, 64, 0
2, 5123, Note_off_c, 0, 61, 64
2, 5126, Note_off_c, 0, 62, 64
2, 5127, Note_off_c, 0, 57, 64
2, 5140, Control_c, 0, 64, 127
2, 5349, Note_off_c, 0, 56, 64
2, 5352, Note_off_c, 0, 59, 64
2, 5355, Control_c, 0, 64, 0
2, 5363, Note_on_c, 0, 49, 59
2, 5363, Note_on_c, 0, 37, 61
2, 5389, Note_off_c, 0, 50, 64
2, 5396, Control_c, 0, 64, 127
2, 5532, Note_off_c, 0, 66, 64
2, 5542, Note_on_c, 0, 68, 44
2, 5574, Note_off_c, 0, 37, 64
2, 5574, Note_off_c, 0, 49, 64
2, 5579, Note_on_c, 0, 66, 70
2, 5599, Note_on_c, 0, 49, 42
2, 5603, Note_off_c, 0, 68, 64
2, 5605, Note_on_c, 0, 56, 45
2, 5611, Note_on_c, 0, 65, 61
2, 5611, Note_on_c, 0, 59, 48
2, 5627, Control_c, 0, 64, 0
2, 5631, Note_off_c, 0, 66, 64
2, 5650, Control_c, 0, 64, 127
2, 5681, Note_off_c, 0, 49, 64
2, 5687, Note_off_c, 0, 59, 64
2, 5696, Note_off_c, 0, 56, 64
2, 5717, Note_on_c, 0, 66, 72
2, 5719, Note_off_c, 0, 65, 64
2, 5813, Control_c, 0, 64, 0
2, 5822, Note_on_c, 0, 68, 66
2, 5822, Note_on_c, 0, 49, 55
2, 5825, Note_on_c, 0, 59, 61
2, 5832, Note_on_c, 0, 53, 55
2, 5837, Note_off_c, 0, 66, 64
2, 5856, Control_c, 0, 64, 127
2, 5867, Note_off_c, 0, 53, 64
2, 5867, Note_off_c, 0, 59, 64
2, 5880, Note_off_c, 0, 49, 64
2, 5979, Note_on_c, 0, 62, 52
2, 5988, Note_off_c, 0, 68, 64
2, 6016, Note_on_c, 0, 42, 59
2, 6018, Control_c, 0, 64, 0
2, 6028, Note_on_c, 0, 61, 65
2, 6056, Note_off_c, 0, 62, 64
2, 6068, Control_c, 0, 64, 127
2, 6180, Note_on_c, 0, 66, 54
2, 6198, Note_off_c, 0, 61, 64
2, 6220, Note_on_c, 0, 54, 66
2, 6221, Control_c, 0, 64, 0
2, 6227, Note_off_c, 0, 42, 64
2, 6228, Note_on_c, 0, 69, 65
2, 6232, Note_on_c, 0, 61, 55
2, 6259, Note_off_c, 0, 66, 64
2, 6273, Note_off_c, 0, 54, 64
2, 6276, Note_off_c, 0, 61, 64
2, 6376, Control_c, 0, 64, 127
2, 6427, Note_off_c, 0, 69, 64
2, 6444, Note_on_c, 0, 54, 61
2, 6448, Note_on_c, 0, 66, 72
2, 6451, Note_on_c, 0, 69, 70
2, 6451, Note_on_c, 0, 61, 55
2, 6472, Control_c, 0, 64, 127
2, 6480, Note_off_c, 0, 54, 64
2, 6486, Note_off_c, 0, 61, 64
2, 6660, Note_on_c, 0, 40, 65
2, 6670, Control_c, 0, 64, 0
2, 6702, Control_c, 0, 64, 127
2, 6780, Note_on_c, 0, 71, 48
2, 6803, Note_off_c, 0, 69, 64
2, 6809, Note_off_c, 0, 66, 64
2, 6820, Note_on_c, 0, 69, 57
2, 6833, Note_off_c, 0, 71, 64
2, 6856, Note_on_c, 0, 68, 66
2, 6859, Note_on_c, 0, 52, 52
2, 6864, Note_on_c, 0, 59, 50
2, 6869, Note_on_c, 0, 64, 28
2, 6871, Note_off_c, 0, 40, 64
2, 6875, Note_off_c, 0, 69, 64
2, 6879, Control_c, 0, 64, 0
2, 6911, Note_off_c, 0, 59, 64
2, 6911, Control_c, 0, 64, 127
2, 6917, Note_off_c, 0, 52, 64
2, 6950, Note_off_c, 0, 64, 64
2, 6963, Note_on_c, 0, 69, 61
2, 6984, Note_off_c, 0, 68, 64
2, 7050, Control_c, 0, 64, 0
2, 7057, Note_on_c, 0, 71, 66
2, 7057, Note_on_c, 0, 62, 57
2, 7057, Note_on_c, 0, 52, 58
2, 7069, Note_off_c, 0, 69, 64
2, 7098, Control_c, 0, 64, 127
2, 7109, Note_off_c, 0, 52, 64
2, 7203, Note_on_c, 0, 66, 49
2, 7218, Note_off_c, 0, 71, 64
2, 7241, Note_on_c, 0, 45, 58
2, 7242, Note_on_c, 0, 64, 66
2, 7252, Control_c, 0, 64, 0
2, 7275, Note_off_c, 0, 66, 64
2, 7288, Control_c, 0, 64, 127
2, 7388, Note_on_c, 0, 69, 54
2, 7415, Control_c, 0, 64, 0
2, 7419, Note_off_c, 0, 64, 64
2, 7424, Note_off_c, 0, 62, 64
2, 7424, Note_on_c, 0, 61, 53
2, 7424, Note_on_c, 0, 57, 58
2, 7428, Note_on_c, 0, 73, 79
2, 7451, Note_off_c, 0, 45, 64
2, 7453, Note_off_c, 0, 69, 64
2, 7468, Note_off_c, 0, 57, 64
2, 7468, Note_off_c, 0, 61, 64
2, 7627, Note_off_c, 0, 73, 64
2, 7657, Note_on_c, 0, 73, 66
2, 7659, Note_on_c, 0, 57, 58
2, 7665, Note_on_c, 0, 64, 57
2, 7681, Control_c, 0, 64, 127
2, 7798, Note_off_c, 0, 64, 64
2, 7885, Note_on_c, 0, 76, 61
2, 7893, Note_on_c, 0, 65, 52
2, 7893, Note_on_c, 0, 50, 46
2, 7898, Note_off_c, 0, 73, 64
2, 7914, Control_c, 0, 64, 0
2, 7955, Control_c, 0, 64, 127
2, 7983, Note_off_c, 0, 50, 64
2, 7989, Note_off_c, 0, 57, 64
2, 8028, Note_off_c, 0, 76, 64
2, 8038, Note_off_c, 0, 65, 64
2, 8042, Note_on_c, 0, 74, 52
2, 8067, Note_on_c, 0, 73, 55
2, 8097, Note_off_c, 0, 74, 64
2, 8112, Note_on_c, 0, 71, 53
2, 8116, Note_on_c, 0, 50, 46
2, 8121, Note_on_c, 0, 65, 29
2, 8121, Note_on_c, 0, 57, 40
2, 8129, Control_c, 0, 64, 0
2, 8141, Note_off_c, 0, 73, 64
2, 8171, Control_c, 0, 64, 127
2, 8184, Note_off_c, 0, 57, 64
2, 8185, Note_off_c, 0, 50, 64
2, 8217, Note_off_c, 0, 65, 64
2, 8337, Note_on_c, 0, 73, 55
2, 8341, Note_on_c, 0, 64, 49
2, 8345, Note_on_c, 0, 45, 46
2, 8348, Control_c, 0, 64, 0
2, 8356, Note_off_c, 0, 71, 64
2, 8358, Note_on_c, 0, 57, 29
2, 8407, Control_c, 0, 64, 127
2, 8461, Note_off_c, 0, 64, 64
2, 8482, Note_off_c, 0, 45, 64
2, 8559, Note_on_c, 0, 65, 57
2, 8559, Note_on_c, 0, 76, 58
2, 8566, Note_on_c, 0, 50, 52
2, 8574, Note_off_c, 0, 73, 64
2, 8584, Control_c, 0, 64, 0
2, 8620, Control_c, 0, 64, 127
2, 8621, Note_off_c, 0, 57, 64
2, 8636, Note_off_c, 0, 50, 64
2, 8700, Note_off_c, 0, 76, 64
2, 8705, Note_on_c, 0, 74, 50
2, 8711, Note_off_c, 0, 65, 64
2, 8738, Note_on_c, 0, 73, 70
2, 8762, Note_off_c, 0, 74, 64
2, 8786, Note_on_c, 0, 57, 49
2, 8786, Note_on_c, 0, 50, 28
2, 8787, Note_on_c, 0, 71, 55
2, 8793, Note_on_c, 0, 65, 50
2, 8799, Control_c, 0, 64, 0
2, 8809, Note_off_c, 0, 73, 64
2, 8845, Control_c, 0, 64, 127
2, 8878, Note_off_c, 0, 50, 64
2, 8900, Note_off_c, 0, 65, 64
2, 8940, Note_off_c, 0, 57, 64
2, 9003, Note_on_c, 0, 73, 58
2, 9016, Note_on_c, 0, 64, 52
2, 9016, Note_on_c, 0, 45, 53
2, 9022, Note_off_c, 0, 71, 64
2, 9024, Note_on_c, 0, 57, 57
2, 9034, Control_c, 0, 64, 0
2, 9066, Control_c, 0, 64, 127
2, 9109, Note_off_c, 0, 64, 64
2, 9163, Note_off_c, 0, 45, 64
2, 9261, Note_on_c, 0, 66, 58
2, 9261, Note_on_c, 0, 76, 59
2, 9268, Note_on_c, 0, 50, 52
2, 9281, Control_c, 0, 64, 0
2, 9285, Note_off_c, 0, 73, 64
2, 9328, Control_c, 0, 64, 127
2, 9333, Note_off_c, 0, 50, 64
2, 9408, Note_on_c, 0, 74, 57
2, 9430, Note_off_c, 0, 76, 64
2, 9456, Note_on_c, 0, 73, 58
2, 9461, Note_off_c, 0, 57, 64
2, 9464, Note_off_c, 0, 74, 64
2, 9500, Note_on_c, 0, 56, 46
2, 9504, Note_on_c, 0, 71, 62
2, 9517, Control_c, 0, 64, 0
2, 9529, Note_off_c, 0, 73, 64
2, 9564, Control_c, 0, 64, 127
2, 9678, Note_off_c, 0, 66, 64
2, 9760, Note_on_c, 0, 73, 62
2, 9763, Note_on_c, 0, 49, 46
2, 9767, Note_on_c, 0, 61, 44
2, 9769, Note_off_c, 0, 56, 64
2, 9772, Note_on_c, 0, 65, 50
2, 9778, Control_c, 0, 64, 0
2, 9786, Note_off_c, 0, 71, 64
2, 9812, Control_c, 0, 64, 127
2, 9844, Note_off_c, 0, 49, 64
2, 9878, Note_off_c, 0, 61, 64
2, 9880, Note_off_c, 0, 65, 64
2, 10027, Note_on_c, 0, 54, 28
2, 10032, Note_on_c, 0, 71, 55
2, 10032, Note_on_c, 0, 66, 44
2, 10045, Note_on_c, 0, 62, 36
2, 10059, Control_c, 0, 64, 0
2, 10062, Note_off_c, 0, 73, 64
2, 10092, Control_c, 0, 64, 127
2, 10140, Note_off_c, 0, 71, 64
2, 10146, Note_on_c, 0, 69, 54
2, 10146, Note_on_c, 0, 61, 44
2, 10202, Note_off_c, 0, 62, 64
2, 10227, Note_off_c, 0, 66, 64
2, 10229, Note_on_c, 0, 68, 55
2, 10235, Note_off_c, 0, 69, 64
2, 10238, Note_on_c, 0, 59, 44
2, 10250, Note_off_c, 0, 61, 64
2, 10328, Note_on_c, 0, 66, 53
2, 10338, Note_on_c, 0, 57, 41
2, 10342, Note_off_c, 0, 68, 64
2, 10349, Note_off_c, 0, 59, 64
2, 10349, Control_c, 0, 64, 0
2, 10423, Control_c, 0, 64, 127
2, 10502, Note_off_c, 0, 66, 64
2, 10538, Note_off_c, 0, 54, 64
2, 10618, Note_off_c, 0, 57, 64
2, 10662, Control_c, 0, 64, 0
2, 10668, Note_on_c, 0, 66, 65
2, 10701, Control_c, 0, 64, 127
2, 10912, Note_on_c, 0, 37, 57
2, 10927, Control_c, 0, 64, 0
2, 10953, Control_c, 0, 64, 127
2, 11041, Note_on_c, 0, 68, 48
2, 11050, Note_off_c, 0, 66, 64
2, 11076, Note_on_c, 0, 66, 66
2, 11091, Note_off_c, 0, 68, 64
2, 11113, Note_on_c, 0, 65, 58
2, 11120, Note_on_c, 0, 49, 37
2, 11123, Note_off_c, 0, 37, 64
2, 11127, Note_on_c, 0, 59, 40
2, 11129, Note_off_c, 0, 66, 64
2, 11138, Control_c, 0, 64, 0
2, 11173, Control_c, 0, 64, 127
2, 11189, Note_off_c, 0, 59, 64
2, 11194, Note_off_c, 0, 49, 64
2, 11218, Note_on_c, 0, 66, 55
2, 11221, Note_off_c, 0, 65, 64
2, 11320, Note_on_c, 0, 68, 63
2, 11324, Note_on_c, 0, 49, 55
2, 11327, Note_off_c, 0, 66, 64
2, 11331, Control_c, 0, 64, 0
2, 11336, Note_on_c, 0, 53, 36
2, 11340, Note_on_c, 0, 59, 29
2, 11356, Control_c, 0, 64, 127
2, 11366, Note_off_c, 0, 59, 64
2, 11366, Note_off_c, 0, 53, 64
2, 11392, Note_off_c, 0, 49, 64
2, 11468, Note_on_c, 0, 62, 48
2, 11481, Note_off_c, 0, 68, 64
2, 11515, Note_on_c, 0, 61, 59
2, 11520, Note_on_c, 0, 42, 49
2, 11525, Control_c, 0, 64, 0
2, 11546, Note_off_c, 0, 62, 64
2, 11580, Control_c, 0, 64, 127
2, 11673, Note_on_c, 0, 66, 52
2, 11690, Note_off_c, 0, 61, 64
2, 11708, Note_on_c, 0, 61, 55
2, 11712, Note_on_c, 0, 54, 58
2, 11713, Note_on_c, 0, 69, 66
2, 11713, Control_c, 0, 64, 0
2, 11731, Note_off_c, 0, 42, 64
2, 11742, Note_off_c, 0, 66, 64
2, 11752, Note_off_c, 0, 61, 64
2, 11756, Note_off_c, 0, 54, 64
2, 11828, Control_c, 0, 64, 127
2, 11912, Note_off_c, 0, 69, 64
2, 11940, Note_on_c, 0, 69, 70
2, 11940, Note_on_c, 0, 61, 49
2, 11945, Note_on_c, 0, 66, 70
2, 11951, Note_on_c, 0, 54, 58
2, 11960, Control_c, 0, 64, 127
2, 11980, Note_off_c, 0, 61, 64
2, 11992, Note_off_c, 0, 54, 64
2, 12155, Note_on_c, 0, 40, 54
2, 12167, Control_c, 0, 64, 0
2, 12180, Control_c, 0, 64, 127
2, 12239, Note_off_c, 0, 69, 64
2, 12264, Note_on_c, 0, 71, 55
2, 12304, Note_on_c, 0, 69, 52
2, 12313, Note_off_c, 0, 66, 64
2, 12334, Note_off_c, 0, 71, 64
2, 12342, Note_on_c, 0, 68, 63
2, 12342, Note_on_c, 0, 64, 26
2, 12344, Note_on_c, 0, 59, 44
2, 12346, Note_on_c, 0, 52, 54
2, 12348, Note_off_c, 0, 69, 64
2, 12361, Control_c, 0, 64, 0
2, 12366, Note_off_c, 0, 40, 64
2, 12398, Note_off_c, 0, 59, 64
2, 12405, Control_c, 0, 64, 127
2, 12408, Note_off_c, 0, 52, 64
2, 12434, Note_off_c, 0, 64, 64
2, 12446, Note_on_c, 0, 69, 57
2, 12472, Note_off_c, 0, 68, 64
2, 12533, Control_c, 0, 64, 0
2, 12540, Note_on_c, 0, 71, 63
2, 12540, Note_on_c, 0, 62, 52
2, 12546, Note_on_c, 0, 52, 58
2, 12558, Note_off_c, 0, 69, 64
2, 12576, Control_c, 0, 64, 127
2, 12596, Note_off_c, 0, 52, 64
2, 12684, Note_on_c, 0, 66, 48
2, 12700, Note_off_c, 0, 71, 64
2, 12717, Control_c, 0, 64, 0
2, 12724, Note_on_c, 0, 45, 57
2, 12729, Note_on_c, 0, 64, 55
2, 12768, Note_off_c, 0, 66, 64
2, 12777, Control_c, 0, 64, 127
2, 12868, Note_on_c, 0, 69, 48
2, 12898, Note_off_c, 0, 64, 64
2, 12898, Control_c, 0, 64, 0
2, 12912, Note_on_c, 0, 73, 71
2, 12912, Note_on_c, 0, 61, 55
2, 12912, Note_on_c, 0, 57, 61
2, 12928, Note_off_c, 0, 62, 64
2, 12930, Note_off_c, 0, 45, 64
2, 12936, Note_off_c, 0, 69, 64
2, 12956, Note_off_c, 0, 57, 64
2, 12956, Note_off_c, 0, 61, 64
2, 13099, Note_off_c, 0, 73, 64
2, 13126, Note_on_c, 0, 73, 66
2, 13133, Note_on_c, 0, 57, 58
2, 13139, Note_on_c, 0, 64, 58
2, 13162, Control_c, 0, 64, 127
2, 13208, Note_off_c, 0, 57, 64
2, 13221, Note_off_c, 0, 64, 64
2, 13332, Note_on_c, 0, 57, 57
2, 13332, Note_on_c, 0, 66, 45
2, 13336, Note_on_c, 0, 63, 28
2, 13359, Control_c, 0, 64, 0
2, 13405, Control_c, 0, 64, 127
2, 13452, Note_on_c, 0, 75, 52
2, 13457, Note_off_c, 0, 73, 64
2, 13500, Note_on_c, 0, 73, 55
2, 13513, Note_off_c, 0, 75, 64
2, 13540, Note_on_c, 0, 56, 55
2, 13544, Note_on_c, 0, 72, 59
2, 13554, Note_off_c, 0, 57, 64
2, 13555, Note_off_c, 0, 73, 64
2, 13555, Control_c, 0, 64, 0
2, 13601, Control_c, 0, 64, 127
2, 13670, Note_off_c, 0, 72, 64
2, 13670, Note_on_c, 0, 68, 62
2, 13729, Note_on_c, 0, 71, 62
2, 13736, Note_off_c, 0, 66, 64
2, 13738, Note_on_c, 0, 65, 57
2, 13738, Note_on_c, 0, 61, 53
2, 13740, Note_off_c, 0, 63, 64
2, 13745, Note_off_c, 0, 68, 64
2, 13745, Control_c, 0, 64, 0
2, 13790, Control_c, 0, 64, 127
2, 13925, Note_off_c, 0, 61, 64
2, 13926, Note_on_c, 0, 55, 49
2, 13933, Note_on_c, 0, 61, 37
2, 13936, Note_on_c, 0, 64, 41
2, 13947, Note_off_c, 0, 65, 64
2, 13948, Control_c, 0, 64, 0
2, 13957, Note_off_c, 0, 56, 64
2, 14000, Control_c, 0, 64, 127
2, 14048, Note_on_c, 0, 73, 52
2, 14073, Note_off_c, 0, 71, 64
2, 14093, Note_on_c, 0, 71, 53
2, 14113, Note_off_c, 0, 73, 64
2, 14131, Note_on_c, 0, 54, 52
2, 14134, Control_c, 0, 64, 0
2, 14141, Note_on_c, 0, 70, 55
2, 14147, Note_off_c, 0, 55, 64
2, 14154, Note_off_c, 0, 71, 64
2, 14191, Control_c, 0, 64, 127
2, 14255, Note_on_c, 0, 66, 59
2, 14268, Note_off_c, 0, 70, 64
2, 14316, Note_on_c, 0, 69, 58
2, 14320, Note_on_c, 0, 63, 49
2, 14326, Note_on_c, 0, 60, 50
2, 14329, Note_off_c, 0, 66, 64
2, 14337, Control_c, 0, 64, 0
2, 14342, Note_off_c, 0, 61, 64
2, 14345, Note_off_c, 0, 64, 64
2, 14378, Control_c, 0, 64, 127
2, 14508, Note_on_c, 0, 59, 37
2, 14509, Note_on_c, 0, 62, 48
2, 14511, Note_on_c, 0, 53, 46
2, 14515, Note_off_c, 0, 63, 64
2, 14518, Note_off_c, 0, 54, 64
2, 14521, Note_off_c, 0, 60, 64
2, 14532, Control_c, 0, 64, 0
2, 14579, Control_c, 0, 64, 127
2, 14638, Note_on_c, 0, 71, 49
2, 14642, Note_off_c, 0, 69, 64
2, 14667, Note_on_c, 0, 69, 52
2, 14688, Note_off_c, 0, 71, 64
2, 14703, Note_on_c, 0, 52, 50
2, 14705, Note_on_c, 0, 68, 46
2, 14707, Control_c, 0, 64, 0
2, 14716, Note_off_c, 0, 53, 64
2, 14728, Note_off_c, 0, 69, 64
2, 14763, Control_c, 0, 64, 127
2, 14820, Note_on_c, 0, 64, 44
2, 14825, Note_off_c, 0, 68, 64
2, 14888, Control_c, 0, 64, 0
2, 14895, Note_on_c, 0, 67, 61
2, 14895, Note_on_c, 0, 61, 45
2, 14902, Note_on_c, 0, 58, 48
2, 14911, Note_off_c, 0, 59, 64
2, 14912, Note_off_c, 0, 62, 64
2, 14914, Note_off_c, 0, 64, 64
2, 14950, Control_c, 0, 64, 127
2, 15082, Note_off_c, 0, 61, 64
2, 15085, Note_on_c, 0, 51, 46
2, 15092, Note_on_c, 0, 57, 39
2, 15093, Note_on_c, 0, 61, 44
2, 15094, Control_c, 0, 64, 0
2, 15100, Note_off_c, 0, 52, 64
2, 15131, Note_off_c, 0, 58, 64
2, 15154, Control_c, 0, 64, 127
2, 15220, Note_on_c, 0, 69, 40
2, 15234, Note_off_c, 0, 67, 64
2, 15260, Note_on_c, 0, 67, 48
2, 15280, Note_off_c, 0, 69, 64
2, 15285, Note_on_c, 0, 50, 48
2, 15290, Control_c, 0, 64, 0
2, 15300, Note_on_c, 0, 66, 48
2, 15301, Note_off_c, 0, 51, 64
2, 15329, Note_off_c, 0, 67, 64
2, 15337, Control_c, 0, 64, 127
2, 15399, Note_on_c, 0, 62, 50
2, 15408, Note_off_c, 0, 66, 64
2, 15528, Note_on_c, 0, 66, 59
2, 15535, Note_on_c, 0, 56, 45
2, 15538, Note_on_c, 0, 59, 45
2, 15542, Control_c, 0, 64, 0
2, 15543, Note_off_c, 0, 57, 64
2, 15544, Note_off_c, 0, 61, 64
2, 15551, Note_off_c, 0, 62, 64
2, 15588, Control_c, 0, 64, 127
2, 15755, Control_c, 0, 64, 0
2, 15768, Note_on_c, 0, 37, 63
2, 15771, Note_on_c, 0, 49, 66
2, 15774, Note_off_c, 0, 56, 64
2, 15777, Note_off_c, 0, 59, 64
2, 15795, Note_off_c, 0, 50, 64
2, 15824, Control_c, 0, 64, 127
2, 15925, Note_on_c, 0, 68, 57
2, 15928, Note_off_c, 0, 66, 64
2, 15950, Note_off_c, 0, 49, 64
2, 15958, Note_on_c, 0, 66, 70
2, 15979, Note_off_c, 0, 37, 64
2, 15980, Note_on_c, 0, 49, 46
2, 15983, Note_off_c, 0, 68, 64
2, 15987, Note_on_c, 0, 56, 52
2, 15989, Control_c, 0, 64, 0
2, 15996, Note_on_c, 0, 65, 63
2, 15996, Note_on_c, 0, 59, 48
2, 16010, Note_off_c, 0, 66, 64
2, 16030, Control_c, 0, 64, 127
2, 16056, Note_off_c, 0, 49, 64
2, 16057, Note_off_c, 0, 59, 64
2, 16067, Note_off_c, 0, 56, 64
2, 16089, Note_on_c, 0, 66, 72
2, 16100, Note_off_c, 0, 65, 64
2, 16172, Control_c, 0, 64, 0
2, 16187, Note_on_c, 0, 68, 66
2, 16193, Note_on_c, 0, 59, 58
2, 16195, Note_on_c, 0, 49, 61
2, 16199, Note_on_c, 0, 53, 59
2, 16200, Note_off_c, 0, 66, 64
2, 16229, Control_c, 0, 64, 127
2, 16238, Note_off_c, 0, 59, 64
2, 16239, Note_off_c, 0, 53, 64
2, 16253, Note_off_c, 0, 49, 64
2, 16330, Note_on_c, 0, 62, 58
2, 16345, Note_off_c, 0, 68, 64
2, 16360, Control_c, 0, 64, 0
2, 16375, Note_on_c, 0, 61, 66
2, 16381, Note_on_c, 0, 42, 55
2, 16404, Note_off_c, 0, 62, 64
2, 16419, Control_c, 0, 64, 127
2, 16518, Note_on_c, 0, 66, 54
2, 16532, Note_off_c, 0, 61, 64
2, 16556, Note_on_c, 0, 69, 66
2, 16556, Note_on_c, 0, 61, 55
2, 16556, Note_on_c, 0, 54, 66
2, 16557, Control_c, 0, 64, 0
2, 16587, Note_off_c, 0, 66, 64
2, 16592, Note_off_c, 0, 42, 64
2, 16600, Note_off_c, 0, 54, 64
2, 16600, Note_off_c, 0, 61, 64
2, 16672, Control_c, 0, 64, 127
2, 16755, Note_off_c, 0, 69, 64
2, 16783, Note_on_c, 0, 61, 70
2, 16783, Note_on_c, 0, 54, 71
2, 16786, Note_on_c, 0, 69, 72
2, 16791, Note_on_c, 0, 66, 70
2, 16800, Control_c, 0, 64, 127
2, 16820, Note_off_c, 0, 61, 64
2, 16830, Note_off_c, 0, 54, 64
2, 16983, Note_on_c, 0, 40, 67
2, 16988, Control_c, 0, 64, 0
2, 17019, Control_c, 0, 64, 127
2, 17116, Note_on_c, 0, 71, 52
2, 17122, Note_off_c, 0, 69, 64
2, 17149, Note_off_c, 0, 66, 64
2, 17152, Note_on_c, 0, 69, 55
2, 17169, Note_off_c, 0, 71, 64
2, 17176, Note_on_c, 0, 64, 41
2, 17178, Note_on_c, 0, 52, 52
2, 17186, Note_on_c, 0, 59, 44
2, 17191, Note_on_c, 0, 68, 70
2, 17194, Note_off_c, 0, 40, 64
2, 17195, Control_c, 0, 64, 0
2, 17198, Note_off_c, 0, 69, 64
2, 17229, Control_c, 0, 64, 127
2, 17244, Note_off_c, 0, 59, 64
2, 17245, Note_off_c, 0, 52, 64
2, 17257, Note_off_c, 0, 64, 64
2, 17289, Note_on_c, 0, 69, 58
2, 17306, Note_off_c, 0, 68, 64
2, 17361, Control_c, 0, 64, 0
2, 17372, Note_on_c, 0, 71, 66
2, 17376, Note_on_c, 0, 62, 58
2, 17381, Note_off_c, 0, 69, 64
2, 17381, Note_on_c, 0, 52, 58
2, 17417, Control_c, 0, 64, 127
2, 17431, Note_off_c, 0, 52, 64
2, 17500, Note_on_c, 0, 66, 58
2, 17519, Note_off_c, 0, 71, 64
2, 17545, Note_on_c, 0, 64, 59
2, 17547, Control_c, 0, 64, 0
2, 17555, Note_on_c, 0, 45, 55
2, 17560, Note_off_c, 0, 66, 64
2, 17561, Note_off_c, 0, 62, 64
2, 17607, Control_c, 0, 64, 127
2, 17700, Note_on_c, 0, 69, 44
2, 17715, Note_off_c, 0, 64, 64
2, 17725, Control_c, 0, 64, 0
2, 17736, Note_on_c, 0, 61, 49
2, 17736, Note_on_c, 0, 57, 58
2, 17740, Note_on_c, 0, 73, 76
2, 17750, Note_off_c, 0, 69, 64
2, 17759, Note_off_c, 0, 45, 64
2, 17780, Note_off_c, 0, 57, 64
2, 17780, Note_off_c, 0, 61, 64
2, 17927, Note_off_c, 0, 73, 64
2, 17945, Note_on_c, 0, 73, 80
2, 17954, Note_on_c, 0, 57, 55
2, 17954, Note_on_c, 0, 64, 70
2, 17977, Control_c, 0, 64, 127
2, 18111, Note_off_c, 0, 64, 64
2, 18189, Note_on_c, 0, 76, 59
2, 18199, Note_on_c, 0, 50, 37
2, 18202, Note_on_c, 0, 65, 44
2, 18212, Note_off_c, 0, 73, 64
2, 18226, Control_c, 0, 64, 0
2, 18291, Control_c, 0, 64, 127
2, 18315, Note_off_c, 0, 57, 64
2, 18317, Note_off_c, 0, 50, 64
2, 18343, Note_on_c, 0, 74, 52
2, 18354, Note_off_c, 0, 76, 64
2, 18354, Note_off_c, 0, 65, 64
2, 18371, Note_on_c, 0, 73, 53
2, 18405, Note_off_c, 0, 74, 64
2, 18422, Note_on_c, 0, 71, 61
2, 18432, Note_on_c, 0, 65, 46
2, 18432, Note_on_c, 0, 57, 52
2, 18432, Note_on_c, 0, 50, 52
2, 18446, Control_c, 0, 64, 0
2, 18451, Note_off_c, 0, 73, 64
2, 18491, Control_c, 0, 64, 127
2, 18500, Note_off_c, 0, 50, 64
2, 18500, Note_off_c, 0, 57, 64
2, 18533, Note_off_c, 0, 65, 64
2, 18636, Note_on_c, 0, 73, 59
2, 18638, Note_on_c, 0, 64, 48
2, 18651, Note_on_c, 0, 57, 44
2, 18651, Note_on_c, 0, 45, 44
2, 18654, Control_c, 0, 64, 0
2, 18660, Note_off_c, 0, 71, 64
2, 18720, Control_c, 0, 64, 127
2, 18765, Note_off_c, 0, 64, 64
2, 18856, Note_off_c, 0, 45, 64
2, 18857, Note_on_c, 0, 76, 61
2, 18857, Note_on_c, 0, 65, 53
2, 18864, Note_on_c, 0, 50, 57
2, 18864, Control_c, 0, 64, 0
2, 18873, Note_off_c, 0, 73, 64
2, 18914, Note_off_c, 0, 50, 64
2, 18923, Control_c, 0, 64, 127
2, 18961, Note_off_c, 0, 57, 64
2, 18982, Note_on_c, 0, 74, 58
2, 18986, Note_off_c, 0, 76, 64
2, 18991, Note_off_c, 0, 65, 64
2, 19020, Note_on_c, 0, 73, 61
2, 19047, Note_off_c, 0, 74, 64
2, 19065, Note_on_c, 0, 71, 57
2, 19068, Note_on_c, 0, 57, 37
2, 19068, Note_on_c, 0, 65, 44
2, 19074, Note_on_c, 0, 50, 36
2, 19074, Control_c, 0, 64, 0
2, 19096, Note_off_c, 0, 73, 64
2, 19122, Control_c, 0, 64, 127
2, 19151, Note_off_c, 0, 50, 64
2, 19167, Note_off_c, 0, 65, 64
2, 19217, Note_off_c, 0, 57, 64
2, 19286, Note_on_c, 0, 73, 53
2, 19292, Note_on_c, 0, 64, 44
2, 19295, Note_on_c, 0, 57, 44
2, 19297, Note_on_c, 0, 45, 42
2, 19302, Note_off_c, 0, 71, 64
2, 19308, Control_c, 0, 64, 0
2, 19368, Control_c, 0, 64, 127
2, 19398, Note_off_c, 0, 64, 64
2, 19476, Note_off_c, 0, 45, 64
2, 19548, Note_on_c, 0, 66, 58
2, 19550, Note_on_c, 0, 76, 54
2, 19557, Note_off_c, 0, 73, 64
2, 19558, Note_on_c, 0, 50, 49
2, 19583, Control_c, 0, 64, 0
2, 19627, Control_c, 0, 64, 127
2, 19701, Note_on_c, 0, 74, 45
2, 19709, Note_off_c, 0, 76, 64
2, 19717, Note_off_c, 0, 50, 64
2, 19734, Note_on_c, 0, 73, 45
2, 19754, Note_off_c, 0, 74, 64
2, 19774, Note_off_c, 0, 57, 64
2, 19777, Note_on_c, 0, 71, 55
2, 19790, Note_on_c, 0, 56, 54
2, 19800, Note_off_c, 0, 73, 64
2, 19816, Control_c, 0, 64, 0
2, 19847, Control_c, 0, 64, 127
2, 19918, Note_off_c, 0, 66, 64
2, 19943, Note_off_c, 0, 56, 64
2, 20037, Note_on_c, 0, 73, 50
2, 20043, Note_on_c, 0, 49, 40
2, 20048, Note_on_c, 0, 61, 31
2, 20052, Note_on_c, 0, 65, 44
2, 20053, Note_off_c, 0, 71, 64
2, 20073, Control_c, 0, 64, 0
2, 20110, Control_c, 0, 64, 127
2, 20147, Note_off_c, 0, 49, 64
2, 20188, Note_off_c, 0, 65, 64
2, 20192, Note_off_c, 0, 61, 64
2, 20246, Note_off_c, 0, 73, 64
2, 20307, Note_on_c, 0, 66, 37
2, 20310, Note_on_c, 0, 54, 33
2, 20311, Note_on_c, 0, 71, 48
2, 20320, Note_on_c, 0, 62, 33
2, 20336, Control_c, 0, 64, 0
2, 20360, Control_c, 0, 64, 127
2, 20388, Note_off_c, 0, 71, 64
2, 20402, Note_on_c, 0, 61, 44
2, 20406, Note_on_c, 0, 69, 33
2, 20449, Note_off_c, 0, 62, 64
2, 20458, Note_off_c, 0, 66, 64
2, 20480, Note_on_c, 0, 68, 49
2, 20488, Note_off_c, 0, 69, 64
2, 20492, Note_on_c, 0, 59, 44
2, 20504, Note_off_c, 0, 61, 64
2, 20563, Note_on_c, 0, 66, 40
2, 20572, Note_on_c, 0, 57, 33
2, 20575, Note_off_c, 0, 59, 64
2, 20579, Control_c, 0, 64, 0
2, 20585, Note_off_c, 0, 68, 64
2, 20623, Note_off_c, 0, 54, 64
2, 20655, Control_c, 0, 64, 127
2, 20703, Note_off_c, 0, 66, 64
2, 20750, Note_off_c, 0, 57, 64
2, 20812, Note_on_c, 0, 73, 65
2, 21072, Control_c, 0, 64, 0
2, 21080, Note_off_c, 0, 73, 64
2, 21092, Note_on_c, 0, 73, 83
2, 21095, Note_on_c, 0, 37, 76
2, 21095, Note_on_c, 0, 85, 83
2, 21099, Note_on_c, 0, 49, 79
2, 21123, Control_c, 0, 64, 127
2, 21203, Control_c, 0, 64, 127
2, 21248, Note_off_c, 0, 73, 64
2, 21298, Note_on_c, 0, 56, 44
2, 21305, Note_on_c, 0, 73, 66
2, 21372, Note_off_c, 0, 73, 64
2, 21390, Note_on_c, 0, 68, 80
2, 21395, Note_on_c, 0, 61, 58
2, 21470, Note_off_c, 0, 61, 64
2, 21478, Note_on_c, 0, 72, 66
2, 21478, Note_on_c, 0, 63, 44
2, 21544, Note_on_c, 0, 66, 63
2, 21555, Note_on_c, 0, 74, 66
2, 21561, Note_off_c, 0, 72, 64
2, 21575, Note_off_c, 0, 63, 64
2, 21601, Note_off_c, 0, 68, 64
2, 21638, Control_c, 0, 64, 0
2, 21644, Note_off_c, 0, 66, 64
2, 21646, Note_on_c, 0, 73, 63
2, 21653, Note_on_c, 0, 65, 67
2, 21668, Note_off_c, 0, 74, 64
2, 21692, Control_c, 0, 64, 127
2, 21709, Note_off_c, 0, 49, 64
2, 21722, Note_off_c, 0, 37, 64
2, 21731, Note_off_c, 0, 85, 64
2, 21790, Note_on_c, 0, 72, 63
2, 21796, Note_on_c, 0, 63, 58
2, 21799, Note_off_c, 0, 65, 64
2, 21804, Note_off_c, 0, 73, 64
2, 21842, Note_on_c, 0, 71, 62
2, 21842, Note_on_c, 0, 62, 65
2, 21846, Control_c, 0, 64, 0
2, 21854, Note_off_c, 0, 72, 64
2, 21856, Note_off_c, 0, 63, 64
2, 21884, Control_c, 0, 64, 127
2, 21916, Note_off_c, 0, 71, 64
2, 22018, Note_off_c, 0, 56, 64
2, 22046, Note_on_c, 0, 59, 59
2, 22048, Note_on_c, 0, 71, 67
2, 22050, Note_off_c, 0, 62, 64
2, 22077, Note_off_c, 0, 59, 64
2, 22091, Note_off_c, 0, 71, 64
2, 22266, Control_c, 0, 64, 0
2, 22275, Note_on_c, 0, 85, 80
2, 22282, Note_on_c, 0, 37, 71
2, 22283, Note_on_c, 0, 73, 85
2, 22283, Note_on_c, 0, 49, 83
2, 22311, Control_c, 0, 64, 127
2, 22439, Note_off_c, 0, 73, 64
2, 22500, Note_on_c, 0, 56, 62
2, 22507, Note_on_c, 0, 73, 66
2, 22590, Note_off_c, 0, 73, 64
2, 22596, Note_on_c, 0, 68, 80
2, 22603, Note_on_c, 0, 61, 59
2, 22673, Note_off_c, 0, 61, 64
2, 22679, Note_on_c, 0, 63, 61
2, 22683, Note_on_c, 0, 72, 66
2, 22696, Note_off_c, 0, 68, 64
2, 22755, Note_on_c, 0, 66, 66
2, 22764, Note_on_c, 0, 74, 66
2, 22779, Note_off_c, 0, 72, 64
2, 22781, Note_off_c, 0, 63, 64
2, 22799, Note_off_c, 0, 37, 64
2, 22804, Note_off_c, 0, 49, 64
2, 22806, Note_off_c, 0, 85, 64
2, 22849, Note_off_c, 0, 66, 64
2, 22857, Control_c, 0, 64, 0
2, 22863, Note_on_c, 0, 73, 72
2, 22867, Note_on_c, 0, 65, 65
2, 22878, Note_off_c, 0, 74, 64
2, 22905, Control_c, 0, 64, 127
2, 22945, Note_on_c, 0, 72, 48
2, 22948, Note_on_c, 0, 63, 54
2, 22954, Note_off_c, 0, 73, 64
2, 22974, Note_off_c, 0, 65, 64
2, 23039, Note_on_c, 0, 62, 53
2, 23040, Note_off_c, 0, 72, 64
2, 23045, Note_on_c, 0, 80, 81
2, 23045, Note_on_c, 0, 71, 66
2, 23052, Note_off_c, 0, 63, 64
2, 23056, Control_c, 0, 64, 0
2, 23089, Control_c, 0, 64, 127
2, 23200, Note_off_c, 0, 56, 64
2, 23237, Note_on_c, 0, 59, 65
2, 23247, Note_off_c, 0, 62, 64
2, 23268, Note_off_c, 0, 59, 64
2, 23333, Note_on_c, 0, 78, 57
2, 23340, Note_off_c, 0, 71, 64
2, 23341, Note_off_c, 0, 80, 64
2, 23472, Note_on_c, 0, 85, 88
2, 23476, Note_on_c, 0, 77, 80
2, 23476, Note_on_c, 0, 73, 80
2, 23478, Control_c, 0, 64, 0
2, 23485, Note_on_c, 0, 37, 72
2, 23485, Note_on_c, 0, 49, 80
2, 23492, Note_off_c, 0, 78, 64
2, 23520, Control_c, 0, 64, 127
2, 23632, Note_off_c, 0, 73, 64
2, 23709, Note_on_c, 0, 56, 61
2, 23711, Note_on_c, 0, 73, 62
2, 23733, Control_c, 0, 64, 0
2, 23757, Control_c, 0, 64, 127
2, 23803, Note_on_c, 0, 68, 79
2, 23807, Note_on_c, 0, 61, 62
2, 23812, Note_off_c, 0, 73, 64
2, 23884, Note_on_c, 0, 63, 50
2, 23885, Note_off_c, 0, 61, 64
2, 23890, Note_on_c, 0, 72, 66
2, 23911, Note_off_c, 0, 68, 64
2, 23965, Note_on_c, 0, 66, 67
2, 23972, Note_on_c, 0, 74, 66
2, 23988, Note_off_c, 0, 72, 64
2, 23988, Note_off_c, 0, 63, 64
2, 23994, Note_off_c, 0, 85, 64
2, 24006, Note_off_c, 0, 37, 64
2, 24007, Note_off_c, 0, 49, 64
2, 24011, Note_off_c, 0, 77, 64
2, 24057, Note_off_c, 0, 66, 64
2, 24062, Note_on_c, 0, 73, 70
2, 24078, Note_on_c, 0, 65, 66
2, 24081, Control_c, 0, 64, 0
2, 24088, Note_off_c, 0, 74, 64
2, 24116, Control_c, 0, 64, 127
2, 24202, Note_on_c, 0, 63, 63
2, 24207, Note_off_c, 0, 65, 64
2, 24216, Note_on_c, 0, 72, 66
2, 24238, Note_off_c, 0, 73, 64
2, 24252, Note_on_c, 0, 71, 70
2, 24260, Note_on_c, 0, 62, 67
2, 24261, Control_c, 0, 64, 0
2, 24267, Note_off_c, 0, 63, 64
2, 24269, Note_off_c, 0, 72, 64
2, 24307, Control_c, 0, 64, 127
2, 24313, Note_off_c, 0, 71, 64
2, 24468, Note_off_c, 0, 62, 64
2, 24473, Note_on_c, 0, 59, 65
2, 24474, Note_on_c, 0, 71, 66
2, 24486, Control_c, 0, 64, 0
2, 24490, Note_off_c, 0, 56, 64
2, 24516, Control_c, 0, 64, 127
2, 24524, Note_off_c, 0, 71, 64
2, 24576, Note_off_c, 0, 59, 64
2, 24708, Note_on_c, 0, 85, 79
2, 24713, Note_on_c, 0, 37, 66
2, 24713, Note_on_c, 0, 73, 79
2, 24718, Note_on_c, 0, 49, 81
2, 24729, Control_c, 0, 64, 0
2, 24743, Control_c, 0, 64, 127
2, 24869, Note_off_c, 0, 73, 64
2, 24948, Note_on_c, 0, 56, 59
2, 24954, Note_on_c, 0, 73, 67
2, 25055, Note_off_c, 0, 73, 64
2, 25057, Note_on_c, 0, 68, 79
2, 25057, Note_on_c, 0, 61, 59
2, 25141, Note_off_c, 0, 61, 64
2, 25144, Note_on_c, 0, 63, 55
2, 25148, Note_on_c, 0, 72, 66
2, 25160, Note_off_c, 0, 68, 64
2, 25228, Note_on_c, 0, 66, 65
2, 25234, Note_on_c, 0, 74, 63
2, 25235, Note_off_c, 0, 37, 64
2, 25243, Note_off_c, 0, 72, 64
2, 25246, Note_off_c, 0, 63, 64
2, 25247, Note_off_c, 0, 49, 64
2, 25250, Note_off_c, 0, 85, 64
2, 25345, Note_on_c, 0, 73, 63
2, 25350, Note_on_c, 0, 65, 58
2, 25356, Note_off_c, 0, 74, 64
2, 25359, Note_off_c, 0, 66, 64
2, 25373, Control_c, 0, 64, 0
2, 25417, Control_c, 0, 64, 127
2, 25471, Note_on_c, 0, 63, 57
2, 25484, Note_on_c, 0, 72, 61
2, 25491, Note_off_c, 0, 65, 64
2, 25523, Note_off_c, 0, 73, 64
2, 25630, Note_on_c, 0, 71, 57
2, 25630, Note_on_c, 0, 62, 39
2, 25636, Note_off_c, 0, 72, 64
2, 25636, Note_off_c, 0, 63, 64
2, 25826, Note_on_c, 0, 61, 42
2, 25829, Note_on_c, 0, 69, 57
2, 25833, Note_off_c, 0, 56, 64
2, 25848, Note_off_c, 0, 62, 64
2, 25865, Note_off_c, 0, 71, 64
2, 25865, Control_c, 0, 64, 0
2, 25878, Control_c, 0, 64, 127
2, 25992, Note_on_c, 0, 59, 46
2, 25998, Note_off_c, 0, 61, 64
2, 26052, Note_on_c, 0, 68, 58
2, 26074, Note_off_c, 0, 69, 64
2, 26081, Control_c, 0, 64, 0
2, 26126, Note_on_c, 0, 66, 59
2, 26135, Note_on_c, 0, 57, 59
2, 26146, Note_off_c, 0, 68, 64
2, 26157, Note_off_c, 0, 59, 64
2, 26176, Control_c, 0, 64, 127
2, 26277, Note_on_c, 0, 68, 37
2, 26283, Note_off_c, 0, 66, 64
2, 26309, Note_on_c, 0, 66, 61
2, 26329, Note_off_c, 0, 68, 64
2, 26339, Note_on_c, 0, 56, 58
2, 26349, Note_on_c, 0, 65, 55
2, 26350, Note_off_c, 0, 57, 64
2, 26361, Control_c, 0, 64, 0
2, 26371, Note_off_c, 0, 66, 64
2, 26398, Control_c, 0, 64, 127
2, 26454, Note_on_c, 0, 66, 67
2, 26468, Note_off_c, 0, 65, 64
2, 26551, Note_on_c, 0, 68, 67
2, 26552, Note_on_c, 0, 49, 52
2, 26558, Control_c, 0, 64, 0
2, 26561, Note_off_c, 0, 66, 64
2, 26561, Note_on_c, 0, 53, 52
2, 26567, Note_on_c, 0, 59, 50
2, 26568, Note_off_c, 0, 56, 64
2, 26596, Note_off_c, 0, 59, 64
2, 26600, Control_c, 0, 64, 127
2, 26604, Note_off_c, 0, 53, 64
2, 26614, Note_off_c, 0, 49, 64
2, 26718, Note_on_c, 0, 62, 55
2, 26727, Note_off_c, 0, 68, 64
2, 26757, Note_on_c, 0, 61, 66
2, 26762, Note_on_c, 0, 42, 57
2, 26764, Control_c, 0, 64, 0
2, 26787, Note_off_c, 0, 62, 64
2, 26829, Control_c, 0, 64, 127
2, 26916, Note_on_c, 0, 66, 52
2, 26937, Note_off_c, 0, 61, 64
2, 26956, Note_on_c, 0, 61, 55
2, 26958, Note_on_c, 0, 54, 59
2, 26958, Control_c, 0, 64, 0
2, 26963, Note_on_c, 0, 69, 65
2, 26973, Note_off_c, 0, 42, 64
2, 26987, Note_off_c, 0, 66, 64
2, 27000, Note_off_c, 0, 61, 64
2, 27002, Note_off_c, 0, 54, 64
2, 27072, Control_c, 0, 64, 127
2, 27162, Note_off_c, 0, 69, 64
2, 27180, Note_on_c, 0, 54, 58
2, 27184, Note_on_c, 0, 66, 61
2, 27187, Note_on_c, 0, 69, 62
2, 27187, Note_on_c, 0, 61, 57
2, 27212, Note_off_c, 0, 54, 64
2, 27212, Control_c, 0, 64, 127
2, 27216, Note_off_c, 0, 61, 64
2, 27386, Control_c, 0, 64, 0
2, 27396, Note_on_c, 0, 40, 59
2, 27434, Control_c, 0, 64, 127
2, 27510, Note_on_c, 0, 71, 55
2, 27524, Note_off_c, 0, 69, 64
2, 27544, Note_off_c, 0, 66, 64
2, 27557, Note_on_c, 0, 69, 45
2, 27572, Note_off_c, 0, 71, 64
2, 27589, Note_on_c, 0, 64, 36
2, 27595, Note_on_c, 0, 52, 39
2, 27596, Note_on_c, 0, 68, 66
2, 27596, Note_on_c, 0, 59, 54
2, 27607, Note_off_c, 0, 40, 64
2, 27610, Note_off_c, 0, 69, 64
2, 27613, Control_c, 0, 64, 0
2, 27647, Note_off_c, 0, 59, 64
2, 27648, Note_off_c, 0, 52, 64
2, 27648, Control_c, 0, 64, 127
2, 27672, Note_off_c, 0, 64, 64
2, 27703, Note_on_c, 0, 69, 58
2, 27730, Note_off_c, 0, 68, 64
2, 27785, Note_on_c, 0, 62, 49
2, 27789, Note_on_c, 0, 71, 58
2, 27792, Control_c, 0, 64, 0
2, 27800, Note_on_c, 0, 52, 61
2, 27812, Note_off_c, 0, 69, 64
2, 27824, Control_c, 0, 64, 127
2, 27844, Note_off_c, 0, 52, 64
2, 27919, Note_on_c, 0, 66, 63
2, 27926, Note_off_c, 0, 71, 64
2, 27955, Note_off_c, 0, 62, 64
2, 27964, Control_c, 0, 64, 0
2, 27973, Note_on_c, 0, 64, 58
2, 27975, Note_on_c, 0, 45, 59
2, 28012, Control_c, 0, 64, 127
2, 28020, Note_off_c, 0, 66, 64
2, 28119, Note_on_c, 0, 69, 36
2, 28138, Note_off_c, 0, 64, 64
2, 28145, Control_c, 0, 64, 0
2, 28156, Note_on_c, 0, 73, 72
2, 28156, Note_on_c, 0, 61, 35
2, 28160, Note_on_c, 0, 57, 58
2, 28170, Note_off_c, 0, 45, 64
2, 28178, Note_off_c, 0, 69, 64
2, 28185, Control_c, 0, 64, 127
2, 28200, Note_off_c, 0, 61, 64
2, 28204, Note_off_c, 0, 57, 64
2, 28345, Control_c, 0, 64, 0
2, 28355, Note_off_c, 0, 73, 64
2, 28375, Note_on_c, 0, 73, 80
2, 28378, Note_on_c, 0, 57, 57
2, 28380, Note_on_c, 0, 64, 55
2, 28434, Control_c, 0, 64, 127
2, 28486, Note_off_c, 0, 57, 64
2, 28508, Note_off_c, 0, 64, 64
2, 28577, Note_on_c, 0, 57, 57
2, 28580, Note_on_c, 0, 63, 48
2, 28587, Note_on_c, 0, 66, 44
2, 28600, Control_c, 0, 64, 0
2, 28642, Control_c, 0, 64, 127
2, 28699, Note_on_c, 0, 75, 53
2, 28705, Note_off_c, 0, 73, 64
2, 28744, Note_on_c, 0, 73, 65
2, 28761, Note_off_c, 0, 75, 64
2, 28792, Note_on_c, 0, 72, 61
2, 28793, Note_on_c, 0, 56, 61
2, 28797, Note_off_c, 0, 57, 64
2, 28803, Control_c, 0, 64, 0
2, 28806, Note_off_c, 0, 73, 64
2, 28855, Control_c, 0, 64, 127
2, 28911, Note_off_c, 0, 72, 64
2, 28920, Note_on_c, 0, 68, 57
2, 28979, Note_on_c, 0, 71, 66
2, 28985, Note_on_c, 0, 65, 54
2, 28985, Note_on_c, 0, 61, 58
2, 28989, Note_off_c, 0, 63, 64
2, 28993, Note_off_c, 0, 68, 64
2, 28996, Note_off_c, 0, 66, 64
2, 29003, Control_c, 0, 64, 0
2, 29038, Control_c, 0, 64, 127
2, 29177, Note_off_c, 0, 61, 64
2, 29182, Note_on_c, 0, 55, 54
2, 29190, Note_on_c, 0, 64, 57
2, 29190, Note_on_c, 0, 61, 52
2, 29199, Control_c, 0, 64, 0
2, 29201, Note_off_c, 0, 65, 64
2, 29210, Note_off_c, 0, 56, 64
2, 29244, Control_c, 0, 64, 127
2, 29310, Note_on_c, 0, 73, 57
2, 29321, Note_off_c, 0, 71, 64
2, 29344, Note_on_c, 0, 71, 59
2, 29364, Note_off_c, 0, 73, 64
2, 29376, Control_c, 0, 64, 0
2, 29387, Note_on_c, 0, 54, 58
2, 29387, Note_on_c, 0, 70, 52
2, 29401, Note_off_c, 0, 71, 64
2, 29401, Note_off_c, 0, 55, 64
2, 29449, Control_c, 0, 64, 127
2, 29522, Note_on_c, 0, 66, 66
2, 29533, Note_off_c, 0, 70, 64
2, 29572, Note_on_c, 0, 69, 63
2, 29576, Note_on_c, 0, 60, 54
2, 29578, Note_off_c, 0, 66, 64
2, 29578, Note_on_c, 0, 63, 48
2, 29597, Control_c, 0, 64, 0
2, 29600, Note_off_c, 0, 61, 64
2, 29600, Note_off_c, 0, 64, 64
2, 29630, Control_c, 0, 64, 127
2, 29778, Control_c, 0, 64, 0
2, 29783, Note_on_c, 0, 59, 45
2, 29783, Note_on_c, 0, 53, 52
2, 29784, Note_on_c, 0, 62, 55
2, 29789, Note_off_c, 0, 60, 64
2, 29791, Note_off_c, 0, 63, 64
2, 29794, Note_off_c, 0, 54, 64
2, 29835, Control_c, 0, 64, 127
2, 29906, Note_on_c, 0, 71, 55
2, 29920, Note_off_c, 0, 69, 64
2, 29945, Note_on_c, 0, 69, 54
2, 29965, Note_off_c, 0, 71, 64
2, 29978, Note_on_c, 0, 68, 63
2, 29984, Note_on_c, 0, 52, 61
2, 29991, Control_c, 0, 64, 0
2, 29996, Note_off_c, 0, 53, 64
2, 30006, Note_off_c, 0, 69, 64
2, 30027, Control_c, 0, 64, 127
2, 30113, Note_off_c, 0, 68, 64
2, 30113, Note_on_c, 0, 64, 54
2, 30174, Note_on_c, 0, 67, 70
2, 30175, Note_on_c, 0, 61, 61
2, 30176, Note_on_c, 0, 58, 65
2, 30181, Note_off_c, 0, 62, 64
2, 30189, Control_c, 0, 64, 0
2, 30195, Note_off_c, 0, 64, 64
2, 30196, Note_off_c, 0, 59, 64
2, 30223, Control_c, 0, 64, 127
2, 30374, Note_on_c, 0, 51, 65
2, 30379, Note_off_c, 0, 61, 64
2, 30383, Note_off_c, 0, 52, 64
2, 30383, Note_on_c, 0, 61, 70
2, 30384, Note_on_c, 0, 57, 66
2, 30391, Note_off_c, 0, 58, 64
2, 30396, Control_c, 0, 64, 0
2, 30429, Control_c, 0, 64, 127
2, 30521, Note_on_c, 0, 69, 52
2, 30529, Note_off_c, 0, 67, 64
2, 30559, Note_on_c, 0, 67, 62
2, 30577, Note_off_c, 0, 69, 64
2, 30591, Note_on_c, 0, 50, 66
2, 30597, Note_on_c, 0, 66, 72
2, 30603, Control_c, 0, 64, 0
2, 30619, Note_off_c, 0, 51, 64
2, 30622, Note_off_c, 0, 67, 64
2, 30645, Control_c, 0, 64, 127
2, 30714, Note_on_c, 0, 62, 61
2, 30726, Note_off_c, 0, 66, 64
2, 30823, Control_c, 0, 64, 0
2, 30830, Note_on_c, 0, 66, 76
2, 30833, Note_off_c, 0, 62, 64
2, 30838, Note_on_c, 0, 59, 61
2, 30838, Note_on_c, 0, 56, 65
2, 30843, Note_off_c, 0, 57, 64
2, 30844, Note_off_c, 0, 61, 64
2, 30866, Control_c, 0, 64, 127
2, 31098, Note_on_c, 0, 37, 66
2, 31103, Note_off_c, 0, 56, 64
2, 31103, Note_off_c, 0, 59, 64
2, 31103, Note_on_c, 0, 49, 72
2, 31109, Note_off_c, 0, 50, 64
2, 31113, Control_c, 0, 64, 0
2, 31162, Control_c, 0, 64, 127
2, 31267, Note_on_c, 0, 68, 52
2, 31276, Note_off_c, 0, 66, 64
2, 31298, Note_on_c, 0, 66, 66
2, 31309, Note_off_c, 0, 37, 64
2, 31314, Note_off_c, 0, 49, 64
2, 31327, Note_off_c, 0, 68, 64
2, 31337, Note_on_c, 0, 56, 65
2, 31343, Note_on_c, 0, 49, 58
2, 31349, Note_on_c, 0, 65, 66
2, 31349, Note_on_c, 0, 59, 59
2, 31359, Note_off_c, 0, 66, 64
2, 31360, Control_c, 0, 64, 0
2, 31395, Control_c, 0, 64, 127
2, 31405, Note_off_c, 0, 49, 64
2, 31422, Note_off_c, 0, 59, 64
2, 31427, Note_off_c, 0, 56, 64
2, 31452, Note_on_c, 0, 66, 55
2, 31460, Note_off_c, 0, 65, 64
2, 31560, Note_on_c, 0, 68, 70
2, 31560, Note_on_c, 0, 49, 59
2, 31560, Control_c, 0, 64, 0
2, 31569, Note_off_c, 0, 66, 64
2, 31569, Note_on_c, 0, 59, 66
2, 31569, Note_on_c, 0, 53, 59
2, 31601, Control_c, 0, 64, 127
2, 31607, Note_off_c, 0, 59, 64
2, 31616, Note_off_c, 0, 53, 64
2, 31627, Note_off_c, 0, 49, 64
2, 31706, Note_on_c, 0, 62, 57
2, 31729, Note_off_c, 0, 68, 64
2, 31753, Control_c, 0, 64, 0
2, 31759, Note_on_c, 0, 61, 70
2, 31764, Note_on_c, 0, 42, 58
2, 31785, Note_off_c, 0, 62, 64
2, 31823, Control_c, 0, 64, 127
2, 31919, Note_on_c, 0, 66, 58
2, 31941, Note_off_c, 0, 61, 64
2, 31951, Control_c, 0, 64, 0
2, 31952, Note_on_c, 0, 61, 55
2, 31957, Note_on_c, 0, 54, 63
2, 31959, Note_on_c, 0, 69, 66
2, 31975, Note_off_c, 0, 42, 64
2, 31990, Note_off_c, 0, 66, 64
2, 31996, Note_off_c, 0, 61, 64
2, 32001, Note_off_c, 0, 54, 64
2, 32001, Control_c, 0, 64, 127
2, 32056, Control_c, 0, 64, 0
2, 32080, Control_c, 0, 64, 127
2, 32158, Note_off_c, 0, 69, 64
2, 32185, Note_on_c, 0, 69, 66
2, 32185, Note_on_c, 0, 66, 65
2, 32190, Note_on_c, 0, 61, 65
2, 32194, Note_on_c, 0, 54, 62
2, 32208, Control_c, 0, 64, 127
2, 32224, Note_off_c, 0, 61, 64
2, 32236, Note_off_c, 0, 54, 64
2, 32397, Note_on_c, 0, 40, 70
2, 32401, Control_c, 0, 64, 0
2, 32442, Control_c, 0, 64, 127
2, 32525, Note_on_c, 0, 71, 50
2, 32545, Note_off_c, 0, 69, 64
2, 32561, Note_off_c, 0, 66, 64
2, 32563, Note_on_c, 0, 69, 62
2, 32583, Note_off_c, 0, 71, 64
2, 32596, Control_c, 0, 64, 0
2, 32602, Note_on_c, 0, 64, 35
2, 32603, Note_on_c, 0, 68, 70
2, 32608, Note_off_c, 0, 40, 64
2, 32608, Note_on_c, 0, 52, 42
2, 32609, Note_on_c, 0, 59, 52
2, 32617, Note_off_c, 0, 69, 64
2, 32649, Control_c, 0, 64, 127
2, 32658, Note_off_c, 0, 59, 64
2, 32662, Note_off_c, 0, 52, 64
2, 32706, Note_off_c, 0, 64, 64
2, 32706, Note_on_c, 0, 69, 53
2, 32714, Note_off_c, 0, 68, 64
2, 32783, Control_c, 0, 64, 0
2, 32796, Note_on_c, 0, 71, 63
2, 32796, Note_on_c, 0, 62, 61
2, 32806, Note_on_c, 0, 52, 58
2, 32812, Note_off_c, 0, 69, 64
2, 32849, Note_off_c, 0, 52, 64
2, 32851, Control_c, 0, 64, 127
2, 32928, Note_on_c, 0, 66, 52
2, 32956, Note_off_c, 0, 71, 64
2, 32976, Note_on_c, 0, 64, 66
2, 32989, Note_on_c, 0, 45, 59
2, 32995, Control_c, 0, 64, 0
2, 33012, Note_off_c, 0, 66, 64
2, 33040, Control_c, 0, 64, 127
2, 33134, Note_on_c, 0, 69, 48
2, 33145, Control_c, 0, 64, 0
2, 33152, Note_off_c, 0, 64, 64
2, 33164, Note_on_c, 0, 61, 31
2, 33164, Note_on_c, 0, 57, 58
2, 33167, Note_on_c, 0, 73, 71
2, 33179, Note_off_c, 0, 62, 64
2, 33186, Control_c, 0, 64, 127
2, 33192, Note_off_c, 0, 45, 64
2, 33195, Note_off_c, 0, 69, 64
2, 33203, Control_c, 0, 64, 0
2, 33208, Note_off_c, 0, 57, 64
2, 33208, Note_off_c, 0, 61, 64
2, 33250, Control_c, 0, 64, 127
2, 33294, Control_c, 0, 64, 0
2, 33366, Note_off_c, 0, 73, 64
2, 33384, Note_on_c, 0, 64, 58
2, 33386, Note_on_c, 0, 73, 66
2, 33390, Note_on_c, 0, 57, 59
2, 33417, Control_c, 0, 64, 127
2, 33538, Note_off_c, 0, 64, 64
2, 33644, Note_on_c, 0, 50, 39
2, 33647, Note_on_c, 0, 76, 65
2, 33656, Note_on_c, 0, 65, 44
2, 33669, Note_off_c, 0, 73, 64
2, 33675, Control_c, 0, 64, 0
2, 33728, Control_c, 0, 64, 127
2, 33772, Note_off_c, 0, 50, 64
2, 33800, Note_off_c, 0, 76, 64
2, 33803, Note_on_c, 0, 74, 55
2, 33823, Note_off_c, 0, 65, 64
2, 33839, Note_off_c, 0, 57, 64
2, 33840, Note_on_c, 0, 73, 55
2, 33868, Note_off_c, 0, 74, 64
2, 33885, Note_on_c, 0, 57, 44
2, 33888, Note_on_c, 0, 71, 58
2, 33888, Note_on_c, 0, 65, 42
2, 33888, Note_on_c, 0, 50, 37
2, 33905, Control_c, 0, 64, 0
2, 33916, Note_off_c, 0, 73, 64
2, 33948, Control_c, 0, 64, 127
2, 33960, Note_off_c, 0, 50, 64
2, 33966, Note_off_c, 0, 57, 64
2, 33999, Note_off_c, 0, 65, 64
2, 34105, Note_on_c, 0, 73, 59
2, 34114, Note_on_c, 0, 64, 50
2, 34120, Note_off_c, 0, 71, 64
2, 34120, Note_on_c, 0, 57, 52
2, 34120, Note_on_c, 0, 45, 55
2, 34136, Control_c, 0, 64, 0
2, 34190, Control_c, 0, 64, 127
2, 34248, Note_off_c, 0, 64, 64
2, 34284, Note_off_c, 0, 45, 64
2, 34348, Note_on_c, 0, 65, 55
2, 34356, Note_on_c, 0, 76, 59
2, 34361, Note_on_c, 0, 50, 52
2, 34365, Control_c, 0, 64, 0
2, 34370, Note_off_c, 0, 73, 64
2, 34409, Control_c, 0, 64, 127
2, 34464, Note_off_c, 0, 57, 64
2, 34465, Note_off_c, 0, 50, 64
2, 34500, Note_off_c, 0, 76, 64
2, 34510, Note_on_c, 0, 74, 48
2, 34529, Note_off_c, 0, 65, 64
2, 34541, Note_on_c, 0, 73, 66
2, 34574, Note_off_c, 0, 74, 64
2, 34597, Note_on_c, 0, 71, 53
2, 34597, Note_on_c, 0, 65, 53
2, 34603, Note_on_c, 0, 57, 55
2, 34603, Note_on_c, 0, 50, 58
2, 34619, Note_off_c, 0, 73, 64
2, 34620, Control_c, 0, 64, 0
2, 34651, Control_c, 0, 64, 127
2, 34692, Note_off_c, 0, 50, 64
2, 34701, Note_off_c, 0, 65, 64
2, 34821, Note_on_c, 0, 73, 61
2, 34824, Note_on_c, 0, 64, 55
2, 34829, Note_on_c, 0, 45, 52
2, 34834, Note_off_c, 0, 71, 64
2, 34851, Control_c, 0, 64, 0
2, 34896, Control_c, 0, 64, 127
2, 34930, Note_off_c, 0, 64, 64
2, 35095, Note_off_c, 0, 45, 64
2, 35100, Note_on_c, 0, 66, 44
2, 35107, Note_off_c, 0, 73, 64
2, 35107, Note_on_c, 0, 76, 65
2, 35120, Note_on_c, 0, 50, 27
2, 35140, Control_c, 0, 64, 0
2, 35185, Control_c, 0, 64, 127
2, 35247, Note_off_c, 0, 50, 64
2, 35276, Note_on_c, 0, 74, 46
2, 35288, Note_off_c, 0, 76, 64
2, 35313, Note_on_c, 0, 73, 55
2, 35329, Note_off_c, 0, 74, 64
2, 35362, Note_on_c, 0, 56, 53
2, 35368, Note_on_c, 0, 71, 58
2, 35384, Note_off_c, 0, 73, 64
2, 35391, Control_c, 0, 64, 0
2, 35422, Note_off_c, 0, 57, 64
2, 35436, Control_c, 0, 64, 127
2, 35532, Note_off_c, 0, 56, 64
2, 35541, Note_off_c, 0, 66, 64
2, 35630, Note_on_c, 0, 73, 46
2, 35636, Note_on_c, 0, 61, 27
2, 35636, Note_on_c, 0, 49, 39
2, 35641, Note_on_c, 0, 65, 44
2, 35646, Note_off_c, 0, 71, 64
2, 35663, Control_c, 0, 64, 0
2, 35706, Control_c, 0, 64, 127
2, 35728, Note_off_c, 0, 49, 64
2, 35769, Note_off_c, 0, 61, 64
2, 35787, Note_off_c, 0, 65, 64
2, 35914, Note_on_c, 0, 54, 26
2, 35915, Note_on_c, 0, 71, 46
2, 35915, Note_on_c, 0, 66, 37
2, 35921, Note_off_c, 0, 73, 64
2, 35927, Note_on_c, 0, 62, 29
2, 35943, Control_c, 0, 64, 0
2, 35974, Control_c, 0, 64, 127
2, 36031, Note_on_c, 0, 69, 29
2, 36033, Note_on_c, 0, 61, 33
2, 36041, Note_off_c, 0, 71, 64
2, 36098, Note_off_c, 0, 66, 64
2, 36108, Note_on_c, 0, 68, 39
2, 36116, Note_off_c, 0, 69, 64
2, 36130, Note_on_c, 0, 59, 37
2, 36137, Note_off_c, 0, 61, 64
2, 36137, Note_off_c, 0, 62, 64
2, 36192, Note_on_c, 0, 66, 39
2, 36201, Control_c, 0, 64, 0
2, 36212, Note_off_c, 0, 68, 64
2, 36215, Note_off_c, 0, 59, 64
2, 36216, Note_on_c, 0, 57, 22
2, 36222, Note_off_c, 0, 54, 64
2, 36291, Control_c, 0, 64, 127
2, 36341, Note_off_c, 0, 66, 64
2, 36480, Note_off_c, 0, 57, 64
2, 36487, Note_on_c, 0, 73, 79
2, 36697, Control_c, 0, 64, 0
2, 36703, Note_off_c, 0, 73, 64
2, 36709, Note_on_c, 0, 37, 71
2, 36716, Note_on_c, 0, 85, 74
2, 36716, Note_on_c, 0, 49, 76
2, 36719, Note_on_c, 0, 73, 71
2, 36755, Control_c, 0, 64, 127
2, 36875, Note_off_c, 0, 73, 64
2, 36925, Note_on_c, 0, 56, 55
2, 36927, Note_on_c, 0, 73, 72
2, 37017, Note_off_c, 0, 73, 64
2, 37018, Note_on_c, 0, 61, 46
2, 37024, Note_on_c, 0, 68, 83
2, 37094, Note_on_c, 0, 63, 66
2, 37106, Note_on_c, 0, 72, 66
2, 37115, Note_off_c, 0, 61, 64
2, 37131, Note_off_c, 0, 68, 64
2, 37180, Note_on_c, 0, 66, 70
2, 37188, Note_on_c, 0, 74, 66
2, 37199, Note_off_c, 0, 63, 64
2, 37200, Note_off_c, 0, 72, 64
2, 37227, Note_off_c, 0, 37, 64
2, 37232, Note_off_c, 0, 49, 64
2, 37242, Note_off_c, 0, 85, 64
2, 37259, Note_off_c, 0, 66, 64
2, 37272, Note_on_c, 0, 73, 72
2, 37276, Note_on_c, 0, 65, 70
2, 37286, Control_c, 0, 64, 0
2, 37293, Note_off_c, 0, 74, 64
2, 37320, Control_c, 0, 64, 127
2, 37401, Note_on_c, 0, 63, 66
2, 37409, Note_off_c, 0, 65, 64
2, 37411, Note_on_c, 0, 72, 58
2, 37424, Note_off_c, 0, 73, 64
2, 37453, Note_on_c, 0, 71, 71
2, 37459, Note_off_c, 0, 63, 64
2, 37463, Note_on_c, 0, 62, 71
2, 37466, Note_off_c, 0, 72, 64
2, 37469, Control_c, 0, 64, 0
2, 37502, Control_c, 0, 64, 127
2, 37508, Note_off_c, 0, 71, 64
2, 37590, Note_off_c, 0, 62, 64
2, 37649, Note_off_c, 0, 56, 64
2, 37659, Note_on_c, 0, 59, 61
2, 37660, Note_on_c, 0, 71, 74
2, 37672, Control_c, 0, 64, 0
2, 37685, Control_c, 0, 64, 127
2, 37698, Note_off_c, 0, 59, 64
2, 37705, Note_off_c, 0, 71, 64
2, 37866, Note_on_c, 0, 85, 80
2, 37866, Control_c, 0, 64, 0
2, 37873, Note_on_c, 0, 73, 74
2, 37873, Note_on_c, 0, 49, 80
2, 37873, Note_on_c, 0, 37, 66
2, 37896, Control_c, 0, 64, 127
2, 38029, Note_off_c, 0, 73, 64
2, 38052, Note_on_c, 0, 56, 27
2, 38068, Note_on_c, 0, 73, 67
2, 38145, Note_off_c, 0, 73, 64
2, 38147, Note_on_c, 0, 61, 55
2, 38158, Note_on_c, 0, 68, 80
2, 38225, Note_on_c, 0, 63, 65
2, 38229, Note_off_c, 0, 61, 64
2, 38244, Note_on_c, 0, 72, 67
2, 38264, Note_off_c, 0, 68, 64
2, 38323, Note_on_c, 0, 66, 63
2, 38326, Note_on_c, 0, 74, 66
2, 38340, Note_off_c, 0, 72, 64
2, 38343, Note_off_c, 0, 63, 64
2, 38387, Note_off_c, 0, 37, 64
2, 38389, Note_off_c, 0, 49, 64
2, 38389, Note_off_c, 0, 85, 64
2, 38408, Note_off_c, 0, 66, 64
2, 38412, Note_on_c, 0, 73, 67
2, 38422, Note_on_c, 0, 65, 63
2, 38431, Note_off_c, 0, 74, 64
2, 38493, Note_on_c, 0, 72, 55
2, 38498, Note_on_c, 0, 63, 65
2, 38505, Note_off_c, 0, 73, 64
2, 38521, Note_off_c, 0, 65, 64
2, 38580, Control_c, 0, 64, 0
2, 38584, Note_on_c, 0, 80, 70
2, 38590, Note_off_c, 0, 72, 64
2, 38593, Note_off_c, 0, 63, 64
2, 38593, Note_on_c, 0, 71, 66
2, 38598, Note_on_c, 0, 62, 63
2, 38651, Control_c, 0, 64, 127
2, 38757, Note_off_c, 0, 56, 64
2, 38780, Note_on_c, 0, 59, 59
2, 38792, Note_off_c, 0, 62, 64
2, 38815, Note_off_c, 0, 59, 64
2, 38871, Note_on_c, 0, 78, 61
2, 38876, Note_off_c, 0, 80, 64
2, 38884, Note_off_c, 0, 71, 64
2, 39010, Control_c, 0, 64, 0
2, 39015, Note_on_c, 0, 85, 83
2, 39021, Note_on_c, 0, 37, 71
2, 39023, Note_on_c, 0, 49, 79
2, 39023, Note_on_c, 0, 77, 71
2, 39023, Note_on_c, 0, 73, 76
2, 39036, Note_off_c, 0, 78, 64
2, 39055, Control_c, 0, 64, 127
2, 39179, Note_off_c, 0, 73, 64
2, 39240, Note_on_c, 0, 56, 53
2, 39244, Note_on_c, 0, 73, 67
2, 39336, Note_on_c, 0, 61, 61
2, 39341, Note_off_c, 0, 73, 64
2, 39345, Note_on_c, 0, 68, 80
2, 39414, Note_on_c, 0, 63, 50
2, 39423, Note_off_c, 0, 61, 64
2, 39423, Note_on_c, 0, 72, 66
2, 39429, Note_off_c, 0, 68, 64
2, 39506, Note_on_c, 0, 74, 65
2, 39508, Note_on_c, 0, 66, 72
2, 39522, Note_off_c, 0, 72, 64
2, 39527, Note_off_c, 0, 63, 64
2, 39539, Note_off_c, 0, 37, 64
2, 39546, Note_off_c, 0, 49, 64
2, 39552, Note_off_c, 0, 85, 64
2, 39559, Note_off_c, 0, 77, 64
2, 39581, Note_off_c, 0, 66, 64
2, 39597, Note_on_c, 0, 73, 70
2, 39599, Control_c, 0, 64, 0
2, 39608, Note_on_c, 0, 65, 67
2, 39624, Note_off_c, 0, 74, 64
2, 39650, Control_c, 0, 64, 127
2, 39730, Note_off_c, 0, 65, 64
2, 39730, Note_on_c, 0, 63, 55
2, 39743, Note_on_c, 0, 72, 66
2, 39765, Note_off_c, 0, 73, 64
2, 39784, Note_on_c, 0, 71, 70
2, 39784, Note_on_c, 0, 62, 66
2, 39793, Note_off_c, 0, 63, 64
2, 39797, Note_off_c, 0, 72, 64
2, 39799, Control_c, 0, 64, 0
2, 39828, Control_c, 0, 64, 127
2, 39839, Note_off_c, 0, 71, 64
2, 39867, Note_off_c, 0, 62, 64
2, 39966, Note_off_c, 0, 56, 64
2, 39980, Note_on_c, 0, 59, 65
2, 39982, Note_on_c, 0, 71, 70
2, 40012, Note_off_c, 0, 59, 64
2, 40025, Note_off_c, 0, 71, 64
2, 40180, Control_c, 0, 64, 0
2, 40190, Note_on_c, 0, 37, 66
2, 40190, Note_on_c, 0, 85, 79
2, 40196, Note_on_c, 0, 49, 80
2, 40196, Note_on_c, 0, 73, 83
2, 40215, Control_c, 0, 64, 127
2, 40352, Note_off_c, 0, 73, 64
2, 40395, Note_on_c, 0, 56, 59
2, 40405, Note_on_c, 0, 73, 66
2, 40435, Control_c, 0, 64, 0
2, 40450, Control_c, 0, 64, 127
2, 40493, Note_off_c, 0, 73, 64
2, 40500, Note_on_c, 0, 68, 80
2, 40503, Note_on_c, 0, 61, 58
2, 40585, Note_on_c, 0, 63, 66
2, 40588, Note_on_c, 0, 72, 66
2, 40593, Note_off_c, 0, 61, 64
2, 40593, Note_off_c, 0, 68, 64
2, 40674, Note_on_c, 0, 66, 70
2, 40681, Note_on_c, 0, 74, 66
2, 40692, Note_off_c, 0, 72, 64
2, 40697, Note_off_c, 0, 63, 64
2, 40711, Note_off_c, 0, 37, 64
2, 40713, Note_off_c, 0, 85, 64
2, 40716, Note_off_c, 0, 49, 64
2, 40785, Note_on_c, 0, 73, 61
2, 40791, Note_on_c, 0, 65, 49
2, 40799, Note_off_c, 0, 74, 64
2, 40805, Note_off_c, 0, 66, 64
2, 40812, Control_c, 0, 64, 0
2, 40834, Control_c, 0, 64, 127
2, 40893, Note_on_c, 0, 63, 55
2, 40897, Note_on_c, 0, 72, 63
2, 40909, Note_off_c, 0, 65, 64
2, 40924, Note_off_c, 0, 73, 64
2, 41011, Note_on_c, 0, 71, 58
2, 41018, Note_off_c, 0, 72, 64
2, 41018, Note_on_c, 0, 62, 40
2, 41031, Note_off_c, 0, 63, 64
2, 41033, Control_c, 0, 64, 0
2, 41056, Control_c, 0, 64, 127
2, 41180, Note_on_c, 0, 61, 42
2, 41190, Note_on_c, 0, 69, 55
2, 41207, Note_off_c, 0, 62, 64
2, 41213, Note_off_c, 0, 56, 64
2, 41226, Note_off_c, 0, 71, 64
2, 41337, Note_on_c, 0, 59, 48
2, 41357, Note_off_c, 0, 61, 64
2, 41412, Note_on_c, 0, 68, 54
2, 41440, Note_off_c, 0, 69, 64
2, 41479, Control_c, 0, 64, 0
2, 41501, Note_on_c, 0, 66, 57
2, 41501, Note_on_c, 0, 57, 50
2, 41514, Note_off_c, 0, 68, 64
2, 41523, Note_off_c, 0, 59, 64
2, 41539, Control_c, 0, 64, 127
2, 41650, Note_on_c, 0, 68, 44
2, 41653, Note_off_c, 0, 66, 64
2, 41685, Note_on_c, 0, 66, 62
2, 41704, Note_off_c, 0, 68, 64
2, 41720, Note_on_c, 0, 56, 48
2, 41724, Note_on_c, 0, 65, 57
2, 41725, Note_off_c, 0, 57, 64
2, 41737, Control_c, 0, 64, 0
2, 41744, Note_off_c, 0, 66, 64
2, 41770, Control_c, 0, 64, 127
2, 41825, Note_on_c, 0, 66, 67
2, 41832, Note_off_c, 0, 65, 64
2, 41923, Control_c, 0, 64, 0
2, 41928, Note_on_c, 0, 68, 67
2, 41928, Note_on_c, 0, 49, 58
2, 41936, Note_off_c, 0, 66, 64
2, 41936, Note_on_c, 0, 53, 55
2, 41940, Note_on_c, 0, 59, 52
2, 41955, Note_off_c, 0, 56, 64
2, 41962, Control_c, 0, 64, 127
2, 41972, Note_off_c, 0, 59, 64
2, 41973, Note_off_c, 0, 53, 64
2, 41985, Note_off_c, 0, 49, 64
2, 42084, Note_on_c, 0, 62, 52
2, 42089, Note_off_c, 0, 68, 64
2, 42124, Note_on_c, 0, 61, 58
2, 42134, Note_on_c, 0, 42, 58
2, 42143, Control_c, 0, 64, 0
2, 42165, Note_off_c, 0, 62, 64
2, 42196, Control_c, 0, 64, 127
2, 42284, Note_on_c, 0, 66, 53
2, 42301, Note_off_c, 0, 61, 64
2, 42317, Note_on_c, 0, 54, 58
2, 42319, Note_on_c, 0, 69, 66
2, 42320, Note_on_c, 0, 61, 55
2, 42332, Control_c, 0, 64, 0
2, 42345, Note_off_c, 0, 42, 64
2, 42355, Note_off_c, 0, 66, 64
2, 42361, Note_off_c, 0, 54, 64
2, 42364, Note_off_c, 0, 61, 64
2, 42432, Control_c, 0, 64, 127
2, 42518, Note_off_c, 0, 69, 64
2, 42552, Note_on_c, 0, 69, 66
2, 42552, Note_on_c, 0, 66, 63
2, 42558, Note_on_c, 0, 61, 58
2, 42565, Note_on_c, 0, 54, 48
2, 42576, Control_c, 0, 64, 127
2, 42585, Note_off_c, 0, 61, 64
2, 42589, Note_off_c, 0, 54, 64
2, 42752, Note_on_c, 0, 40, 63
2, 42752, Control_c, 0, 64, 0
2, 42794, Control_c, 0, 64, 127
2, 42875, Note_on_c, 0, 71, 53
2, 42888, Note_off_c, 0, 69, 64
2, 42906, Note_off_c, 0, 66, 64
2, 42915, Note_on_c, 0, 69, 48
2, 42922, Note_off_c, 0, 71, 64
2, 42945, Note_on_c, 0, 68, 66
2, 42961, Note_on_c, 0, 64, 29
2, 42961, Note_on_c, 0, 52, 52
2, 42963, Note_off_c, 0, 40, 64
2, 42967, Note_off_c, 0, 69, 64
2, 42968, Note_on_c, 0, 59, 49
2, 42977, Control_c, 0, 64, 0
2, 43001, Note_off_c, 0, 52, 64
2, 43006, Note_off_c, 0, 59, 64
2, 43013, Control_c, 0, 64, 127
2, 43060, Note_off_c, 0, 64, 64
2, 43062, Note_on_c, 0, 69, 55
2, 43082, Note_off_c, 0, 68, 64
2, 43150, Control_c, 0, 64, 0
2, 43158, Note_on_c, 0, 52, 55
2, 43158, Note_on_c, 0, 62, 58
2, 43158, Note_on_c, 0, 71, 63
2, 43165, Note_off_c, 0, 69, 64
2, 43185, Control_c, 0, 64, 127
2, 43206, Note_off_c, 0, 52, 64
2, 43288, Note_off_c, 0, 71, 64
2, 43300, Note_on_c, 0, 66, 48
2, 43331, Note_on_c, 0, 64, 62
2, 43336, Control_c, 0, 64, 0
2, 43345, Note_on_c, 0, 45, 58
2, 43377, Note_off_c, 0, 66, 64
2, 43384, Control_c, 0, 64, 127
2, 43464, Note_on_c, 0, 69, 48
2, 43491, Note_off_c, 0, 64, 64
2, 43507, Control_c, 0, 64, 0
2, 43512, Note_on_c, 0, 61, 58
2, 43516, Note_on_c, 0, 57, 55
2, 43517, Note_on_c, 0, 73, 74
2, 43518, Note_off_c, 0, 69, 64
2, 43525, Note_off_c, 0, 62, 64
2, 43540, Note_off_c, 0, 45, 64
2, 43556, Note_off_c, 0, 61, 64
2, 43557, Control_c, 0, 64, 127
2, 43560, Note_off_c, 0, 57, 64
2, 43651, Control_c, 0, 64, 0
2, 43701, Control_c, 0, 64, 127
2, 43712, Note_on_c, 0, 64, 58
2, 43715, Control_c, 0, 64, 0
2, 43716, Note_off_c, 0, 73, 64
2, 43716, Note_on_c, 0, 57, 55
2, 43723, Note_on_c, 0, 73, 85
2, 43770, Control_c, 0, 64, 127
2, 43919, Note_off_c, 0, 57, 64
2, 43933, Note_off_c, 0, 64, 64
2, 43933, Note_on_c, 0, 57, 59
2, 43935, Note_on_c, 0, 63, 58
2, 43940, Note_on_c, 0, 66, 59
2, 43950, Control_c, 0, 64, 0
2, 43993, Control_c, 0, 64, 127
2, 44034, Note_off_c, 0, 73, 64
2, 44044, Note_on_c, 0, 75, 55
2, 44086, Note_on_c, 0, 73, 61
2, 44103, Note_off_c, 0, 75, 64
2, 44126, Note_on_c, 0, 72, 66
2, 44132, Note_on_c, 0, 56, 66
2, 44144, Note_off_c, 0, 57, 64
2, 44147, Note_off_c, 0, 73, 64
2, 44154, Control_c, 0, 64, 0
2, 44198, Control_c, 0, 64, 127
2, 44257, Note_off_c, 0, 72, 64
2, 44260, Note_on_c, 0, 68, 63
2, 44320, Note_on_c, 0, 71, 63
2, 44328, Note_on_c, 0, 65, 58
2, 44328, Note_on_c, 0, 61, 58
2, 44335, Note_off_c, 0, 68, 64
2, 44342, Note_off_c, 0, 63, 64
2, 44345, Control_c, 0, 64, 0
2, 44347, Note_off_c, 0, 66, 64
2, 44376, Control_c, 0, 64, 127
2, 44519, Note_off_c, 0, 61, 64
2, 44525, Note_on_c, 0, 55, 59
2, 44530, Note_on_c, 0, 64, 58
2, 44530, Note_on_c, 0, 61, 50
2, 44537, Note_off_c, 0, 65, 64
2, 44542, Control_c, 0, 64, 0
2, 44554, Note_off_c, 0, 56, 64
2, 44587, Control_c, 0, 64, 127
2, 44646, Note_off_c, 0, 71, 64
2, 44646, Note_on_c, 0, 73, 57
2, 44685, Note_on_c, 0, 71, 58
2, 44707, Note_off_c, 0, 73, 64
2, 44719, Control_c, 0, 64, 0
2, 44722, Note_on_c, 0, 54, 61
2, 44729, Note_on_c, 0, 70, 53
2, 44735, Note_off_c, 0, 55, 64
2, 44744, Note_off_c, 0, 71, 64
2, 44782, Control_c, 0, 64, 127
2, 44856, Note_on_c, 0, 66, 66
2, 44864, Note_off_c, 0, 70, 64
2, 44914, Note_on_c, 0, 63, 54
2, 44914, Note_on_c, 0, 69, 57
2, 44919, Note_on_c, 0, 60, 57
2, 44924, Control_c, 0, 64, 0
2, 44925, Note_off_c, 0, 61, 64
2, 44925, Note_off_c, 0, 64, 64
2, 44928, Note_off_c, 0, 66, 64
2, 44978, Control_c, 0, 64, 127
2, 45108, Note_on_c, 0, 62, 53
2, 45114, Note_on_c, 0, 53, 48
2, 45115, Note_on_c, 0, 59, 50
2, 45121, Note_off_c, 0, 63, 64
2, 45123, Note_off_c, 0, 54, 64
2, 45126, Note_off_c, 0, 60, 64
2, 45131, Control_c, 0, 64, 0
2, 45177, Control_c, 0, 64, 127
2, 45232, Note_on_c, 0, 71, 53
2, 45241, Note_off_c, 0, 69, 64
2, 45265, Note_on_c, 0, 69, 58
2, 45279, Note_off_c, 0, 71, 64
2, 45291, Note_on_c, 0, 68, 63
2, 45305, Note_on_c, 0, 52, 58
2, 45311, Note_off_c, 0, 53, 64
2, 45316, Control_c, 0, 64, 0
2, 45320, Note_off_c, 0, 69, 64
2, 45367, Control_c, 0, 64, 127
2, 45418, Note_on_c, 0, 64, 48
2, 45420, Note_off_c, 0, 68, 64
2, 45490, Note_on_c, 0, 67, 72
2, 45492, Note_on_c, 0, 58, 58
2, 45495, Note_on_c, 0, 61, 58
2, 45500, Note_off_c, 0, 62, 64
2, 45501, Control_c, 0, 64, 0
2, 45507, Note_off_c, 0, 59, 64
2, 45515, Note_off_c, 0, 64, 64
2, 45559, Control_c, 0, 64, 127
2, 45671, Note_off_c, 0, 61, 64
2, 45683, Note_on_c, 0, 61, 57
2, 45684, Note_on_c, 0, 57, 55
2, 45685, Note_on_c, 0, 51, 53
2, 45701, Note_off_c, 0, 58, 64
2, 45705, Control_c, 0, 64, 0
2, 45718, Note_off_c, 0, 52, 64
2, 45759, Control_c, 0, 64, 127
2, 45816, Note_on_c, 0, 69, 54
2, 45832, Note_off_c, 0, 67, 64
2, 45857, Note_on_c, 0, 67, 55
2, 45871, Note_off_c, 0, 69, 64
2, 45886, Control_c, 0, 64, 0
2, 45892, Note_on_c, 0, 50, 58
2, 45894, Note_on_c, 0, 66, 70
2, 45904, Note_off_c, 0, 51, 64
2, 45913, Note_off_c, 0, 67, 64
2, 45955, Control_c, 0, 64, 127
2, 45998, Note_on_c, 0, 62, 57
2, 46006, Note_off_c, 0, 66, 64
2, 46111, Note_on_c, 0, 66, 76
2, 46113, Control_c, 0, 64, 0
2, 46119, Note_on_c, 0, 56, 65
2, 46120, Note_off_c, 0, 61, 64
2, 46120, Note_on_c, 0, 59, 62
2, 46121, Note_off_c, 0, 57, 64
2, 46132, Note_off_c, 0, 62, 64
2, 46145, Control_c, 0, 64, 127
2, 46329, Note_off_c, 0, 56, 64
2, 46330, Note_off_c, 0, 59, 64
2, 46342, Control_c, 0, 64, 0
2, 46346, Note_on_c, 0, 37, 66
2, 46350, Note_on_c, 0, 49, 72
2, 46360, Note_off_c, 0, 50, 64
2, 46400, Control_c, 0, 64, 127
2, 46500, Note_off_c, 0, 66, 64
2, 46506, Note_on_c, 0, 68, 54
2, 46543, Note_on_c, 0, 66, 70
2, 46557, Note_off_c, 0, 37, 64
2, 46561, Note_off_c, 0, 49, 64
2, 46566, Note_off_c, 0, 68, 64
2, 46573, Note_on_c, 0, 49, 59
2, 46574, Note_on_c, 0, 59, 62
2, 46577, Note_on_c, 0, 56, 61
2, 46578, Control_c, 0, 64, 0
2, 46584, Note_on_c, 0, 65, 63
2, 46595, Note_off_c, 0, 66, 64
2, 46628, Control_c, 0, 64, 127
2, 46636, Note_off_c, 0, 49, 64
2, 46640, Note_off_c, 0, 56, 64
2, 46642, Note_off_c, 0, 59, 64
2, 46678, Note_on_c, 0, 66, 71
2, 46688, Note_off_c, 0, 65, 64
2, 46771, Control_c, 0, 64, 0
2, 46777, Note_on_c, 0, 68, 63
2, 46777, Note_on_c, 0, 49, 58
2, 46786, Note_on_c, 0, 59, 62
2, 46786, Note_on_c, 0, 53, 58
2, 46789, Note_off_c, 0, 66, 64
2, 46824, Note_off_c, 0, 59, 64
2, 46826, Note_off_c, 0, 53, 64
2, 46827, Control_c, 0, 64, 127
2, 46838, Note_off_c, 0, 49, 64
2, 46919, Note_on_c, 0, 62, 54
2, 46932, Note_off_c, 0, 68, 64
2, 46967, Note_on_c, 0, 61, 63
2, 46976, Note_on_c, 0, 42, 59
2, 46980, Control_c, 0, 64, 0
2, 46999, Note_off_c, 0, 62, 64
2, 47035, Control_c, 0, 64, 127
2, 47115, Note_on_c, 0, 66, 54
2, 47138, Note_off_c, 0, 61, 64
2, 47151, Control_c, 0, 64, 0
2, 47156, Note_on_c, 0, 61, 55
2, 47157, Note_on_c, 0, 69, 63
2, 47157, Note_on_c, 0, 54, 66
2, 47184, Note_off_c, 0, 66, 64
2, 47187, Note_off_c, 0, 42, 64
2, 47200, Note_off_c, 0, 61, 64
2, 47201, Note_off_c, 0, 54, 64
2, 47276, Control_c, 0, 64, 127
2, 47356, Note_off_c, 0, 69, 64
2, 47383, Note_on_c, 0, 69, 62
2, 47383, Note_on_c, 0, 66, 62
2, 47392, Note_on_c, 0, 61, 58
2, 47392, Note_on_c, 0, 54, 63
2, 47408, Control_c, 0, 64, 127
2, 47421, Note_off_c, 0, 61, 64
2, 47429, Note_off_c, 0, 54, 64
2, 47580, Control_c, 0, 64, 0
2, 47588, Note_on_c, 0, 40, 61
2, 47595, Note_on_c, 0, 52, 58
2, 47631, Control_c, 0, 64, 127
2, 47647, Note_off_c, 0, 52, 64
2, 47670, Note_off_c, 0, 69, 64
2, 47694, Note_on_c, 0, 71, 55
2, 47745, Note_on_c, 0, 69, 55
2, 47748, Note_off_c, 0, 66, 64
2, 47755, Note_off_c, 0, 71, 64
2, 47775, Control_c, 0, 64, 0
2, 47780, Note_on_c, 0, 68, 59
2, 47780, Note_on_c, 0, 52, 48
2, 47786, Note_on_c, 0, 59, 52
2, 47794, Note_on_c, 0, 64, 44
2, 47799, Note_off_c, 0, 69, 64
2, 47799, Note_off_c, 0, 40, 64
2, 47824, Note_off_c, 0, 52, 64
2, 47828, Note_off_c, 0, 59, 64
2, 47831, Control_c, 0, 64, 127
2, 47889, Note_off_c, 0, 64, 64
2, 47889, Note_on_c, 0, 69, 58
2, 47919, Note_off_c, 0, 68, 64
2, 47965, Control_c, 0, 64, 0
2, 47971, Note_on_c, 0, 62, 65
2, 47972, Note_on_c, 0, 71, 66
2, 47976, Note_on_c, 0, 52, 62
2, 47986, Note_off_c, 0, 69, 64
2, 48009, Control_c, 0, 64, 127
2, 48020, Note_off_c, 0, 52, 64
2, 48110, Note_off_c, 0, 71, 64
2, 48113, Note_on_c, 0, 66, 50
2, 48148, Control_c, 0, 64, 0
2, 48154, Note_on_c, 0, 64, 59
2, 48156, Note_on_c, 0, 45, 63
2, 48184, Note_off_c, 0, 66, 64
2, 48219, Control_c, 0, 64, 127
2, 48293, Note_on_c, 0, 69, 37
2, 48312, Note_off_c, 0, 64, 64
2, 48334, Control_c, 0, 64, 0
2, 48347, Note_on_c, 0, 73, 76
2, 48347, Note_on_c, 0, 61, 28
2, 48351, Note_on_c, 0, 57, 63
2, 48364, Note_off_c, 0, 62, 64
2, 48368, Note_off_c, 0, 69, 64
2, 48371, Note_off_c, 0, 45, 64
2, 48391, Note_off_c, 0, 61, 64
2, 48395, Note_off_c, 0, 57, 64
2, 48546, Note_off_c, 0, 73, 64
2, 48570, Note_on_c, 0, 73, 66
2, 48575, Note_on_c, 0, 57, 62
2, 48577, Note_on_c, 0, 64, 61
2, 48595, Control_c, 0, 64, 127
2, 48743, Note_off_c, 0, 64, 64
2, 48840, Note_on_c, 0, 50, 55
2, 48841, Note_on_c, 0, 76, 61
2, 48845, Note_on_c, 0, 65, 54
2, 48851, Note_off_c, 0, 73, 64
2, 48864, Control_c, 0, 64, 0
2, 48918, Control_c, 0, 64, 127
2, 48967, Note_off_c, 0, 57, 64
2, 48969, Note_off_c, 0, 50, 64
2, 49002, Note_off_c, 0, 76, 64
2, 49003, Note_on_c, 0, 74, 52
2, 49018, Note_off_c, 0, 65, 64
2, 49038, Note_on_c, 0, 73, 58
2, 49070, Note_off_c, 0, 74, 64
2, 49083, Note_on_c, 0, 71, 57
2, 49088, Note_on_c, 0, 57, 53
2, 49092, Note_on_c, 0, 50, 53
2, 49094, Note_on_c, 0, 65, 44
2, 49101, Control_c, 0, 64, 0
2, 49110, Note_off_c, 0, 73, 64
2, 49139, Control_c, 0, 64, 127
2, 49147, Note_off_c, 0, 57, 64
2, 49153, Note_off_c, 0, 50, 64
2, 49178, Note_off_c, 0, 65, 64
2, 49287, Note_on_c, 0, 73, 62
2, 49294, Note_on_c, 0, 64, 53
2, 49303, Note_on_c, 0, 57, 52
2, 49303, Note_on_c, 0, 45, 50
2, 49311, Note_off_c, 0, 71, 64
2, 49316, Control_c, 0, 64, 0
2, 49356, Control_c, 0, 64, 127
2, 49421, Note_off_c, 0, 64, 64
2, 49476, Note_off_c, 0, 45, 64
2, 49499, Note_on_c, 0, 65, 66
2, 49503, Note_on_c, 0, 76, 59
2, 49509, Note_on_c, 0, 50, 53
2, 49513, Control_c, 0, 64, 0
2, 49523, Note_off_c, 0, 73, 64
2, 49546, Control_c, 0, 64, 127
2, 49578, Note_off_c, 0, 50, 64
2, 49600, Note_off_c, 0, 57, 64
2, 49629, Note_on_c, 0, 74, 61
2, 49634, Note_off_c, 0, 76, 64
2, 49643, Note_off_c, 0, 65, 64
2, 49663, Note_on_c, 0, 73, 66
2, 49694, Note_off_c, 0, 74, 64
2, 49704, Note_on_c, 0, 50, 48
2, 49710, Note_on_c, 0, 71, 66
2, 49710, Note_on_c, 0, 65, 58
2, 49710, Note_on_c, 0, 57, 53
2, 49721, Control_c, 0, 64, 0
2, 49742, Note_off_c, 0, 73, 64
2, 49758, Control_c, 0, 64, 127
2, 49823, Note_off_c, 0, 50, 64
2, 49830, Note_off_c, 0, 65, 64
2, 49885, Note_off_c, 0, 57, 64
2, 49938, Note_on_c, 0, 73, 61
2, 49946, Note_on_c, 0, 64, 50
2, 49949, Note_on_c, 0, 45, 44
2, 49956, Note_on_c, 0, 57, 44
2, 49961, Note_off_c, 0, 71, 64
2, 49975, Control_c, 0, 64, 0
2, 50020, Control_c, 0, 64, 127
2, 50044, Note_off_c, 0, 64, 64
2, 50144, Note_off_c, 0, 45, 64
2, 50212, Note_on_c, 0, 76, 57
2, 50216, Note_on_c, 0, 66, 41
2, 50220, Note_off_c, 0, 73, 64
2, 50220, Note_on_c, 0, 50, 39
2, 50250, Control_c, 0, 64, 0
2, 50285, Control_c, 0, 64, 127
2, 50296, Note_off_c, 0, 50, 64
2, 50376, Note_on_c, 0, 74, 45
2, 50406, Note_off_c, 0, 76, 64
2, 50415, Note_on_c, 0, 73, 52
2, 50435, Note_off_c, 0, 74, 64
2, 50459, Note_on_c, 0, 56, 49
2, 50463, Note_off_c, 0, 57, 64
2, 50467, Note_on_c, 0, 71, 55
2, 50484, Note_off_c, 0, 73, 64
2, 50492, Control_c, 0, 64, 0
2, 50526, Control_c, 0, 64, 127
2, 50628, Note_off_c, 0, 66, 64
2, 50649, Note_off_c, 0, 56, 64
2, 50724, Note_on_c, 0, 73, 50
2, 50730, Note_on_c, 0, 49, 35
2, 50735, Note_on_c, 0, 61, 27
2, 50740, Note_on_c, 0, 65, 44
2, 50741, Note_off_c, 0, 71, 64
2, 50754, Control_c, 0, 64, 0
2, 50787, Control_c, 0, 64, 127
2, 50831, Note_off_c, 0, 49, 64
2, 50861, Note_off_c, 0, 65, 64
2, 50867, Note_off_c, 0, 61, 64
2, 51009, Note_on_c, 0, 54, 24
2, 51011, Note_on_c, 0, 66, 37
2, 51014, Note_on_c, 0, 71, 45
2, 51020, Note_on_c, 0, 62, 29
2, 51028, Note_off_c, 0, 73, 64
2, 51033, Control_c, 0, 64, 0
2, 51058, Control_c, 0, 64, 127
2, 51107, Note_off_c, 0, 71, 64
2, 51113, Note_on_c, 0, 61, 44
2, 51118, Note_on_c, 0, 69, 32
2, 51193, Note_off_c, 0, 66, 64
2, 51201, Note_on_c, 0, 68, 46
2, 51207, Note_on_c, 0, 59, 37
2, 51218, Note_off_c, 0, 69, 64
2, 51224, Note_off_c, 0, 61, 64
2, 51274, Note_off_c, 0, 62, 64
2, 51288, Note_on_c, 0, 66, 46
2, 51301, Note_on_c, 0, 57, 24
2, 51301, Control_c, 0, 64, 0
2, 51309, Note_off_c, 0, 59, 64
2, 51313, Note_off_c, 0, 68, 64
2, 51336, Note_off_c, 0, 54, 64
2, 51360, Control_c, 0, 64, 127
2, 51375, Note_off_c, 0, 66, 64
2, 51555, Note_on_c, 0, 80, 65
2, 51563, Note_on_c, 0, 85, 61
2, 51568, Note_on_c, 0, 78, 58
2, 51571, Note_off_c, 0, 57, 64
2, 51589, Note_off_c, 0, 80, 64
2, 51684, Note_off_c, 0, 78, 64
2, 51795, Note_off_c, 0, 85, 64
2, 51796, Note_on_c, 0, 42, 65
2, 51798, Note_on_c, 0, 78, 66
2, 51799, Note_on_c, 0, 86, 70
2, 51805, Note_on_c, 0, 80, 63
2, 51837, Note_off_c, 0, 80, 64
2, 51844, Note_off_c, 0, 78, 64
2, 51910, Note_on_c, 0, 54, 66
2, 51912, Note_on_c, 0, 78, 66
2, 51914, Note_on_c, 0, 85, 65
2, 51921, Note_on_c, 0, 80, 55
2, 51925, Note_off_c, 0, 42, 64
2, 51928, Note_off_c, 0, 86, 64
2, 51947, Note_off_c, 0, 80, 64
2, 51951, Note_off_c, 0, 54, 64
2, 51956, Note_off_c, 0, 78, 64
2, 52024, Note_on_c, 0, 80, 62
2, 52024, Note_on_c, 0, 78, 66
2, 52024, Note_on_c, 0, 66, 70
2, 52027, Note_on_c, 0, 62, 63
2, 52033, Note_on_c, 0, 83, 57
2, 52045, Note_off_c, 0, 85, 64
2, 52047, Control_c, 0, 64, 0
2, 52080, Control_c, 0, 64, 127
2, 52121, Note_off_c, 0, 78, 64
2, 52140, Note_off_c, 0, 80, 64
2, 52216, Note_off_c, 0, 83, 64
2, 52218, Note_on_c, 0, 86, 67
2, 52222, Note_on_c, 0, 78, 70
2, 52223, Note_on_c, 0, 80, 65
2, 52229, Note_on_c, 0, 71, 76
2, 52250, Note_off_c, 0, 80, 64
2, 52259, Note_off_c, 0, 62, 64
2, 52283, Note_off_c, 0, 78, 64
2, 52416, Note_on_c, 0, 80, 65
2, 52416, Note_on_c, 0, 61, 54
2, 52420, Note_on_c, 0, 69, 48
2, 52422, Note_on_c, 0, 85, 62
2, 52422, Note_on_c, 0, 78, 67
2, 52428, Note_off_c, 0, 71, 64
2, 52428, Note_off_c, 0, 86, 64
2, 52460, Note_off_c, 0, 80, 64
2, 52463, Note_off_c, 0, 78, 64
2, 52504, Note_on_c, 0, 59, 57
2, 52514, Note_on_c, 0, 86, 65
2, 52518, Note_on_c, 0, 68, 57
2, 52520, Note_on_c, 0, 78, 70
2, 52521, Note_off_c, 0, 61, 64
2, 52522, Note_off_c, 0, 69, 64
2, 52524, Note_on_c, 0, 80, 66
2, 52529, Note_off_c, 0, 85, 64
2, 52553, Note_off_c, 0, 80, 64
2, 52569, Note_off_c, 0, 78, 64
2, 52610, Control_c, 0, 64, 0
2, 52620, Note_on_c, 0, 80, 66
2, 52624, Note_on_c, 0, 85, 71
2, 52625, Note_on_c, 0, 78, 70
2, 52625, Note_on_c, 0, 61, 58
2, 52635, Note_off_c, 0, 59, 64
2, 52635, Note_on_c, 0, 69, 44
2, 52636, Note_off_c, 0, 86, 64
2, 52648, Control_c, 0, 64, 127
2, 52649, Note_off_c, 0, 68, 64
2, 52657, Note_off_c, 0, 78, 64
2, 52657, Note_off_c, 0, 80, 64
2, 52768, Note_off_c, 0, 61, 64
2, 52778, Note_off_c, 0, 69, 64
2, 52792, Note_off_c, 0, 66, 64
2, 52806, Note_off_c, 0, 85, 64
2, 52808, Note_on_c, 0, 78, 70
2, 52812, Note_on_c, 0, 90, 72
2, 52812, Note_on_c, 0, 54, 55
2, 52818, Note_on_c, 0, 80, 55
2, 52832, Note_off_c, 0, 80, 64
2, 52864, Note_off_c, 0, 78, 64
2, 52993, Note_off_c, 0, 54, 64
2, 53000, Note_on_c, 0, 80, 65
2, 53008, Note_on_c, 0, 86, 67
2, 53014, Note_on_c, 0, 42, 63
2, 53015, Note_on_c, 0, 78, 59
2, 53021, Control_c, 0, 64, 0
2, 53022, Note_off_c, 0, 90, 64
2, 53039, Note_off_c, 0, 80, 64
2, 53052, Control_c, 0, 64, 127
2, 53056, Note_off_c, 0, 78, 64
2, 53096, Note_on_c, 0, 80, 63
2, 53104, Note_on_c, 0, 85, 74
2, 53107, Note_off_c, 0, 86, 64
2, 53110, Note_on_c, 0, 78, 66
2, 53112, Note_on_c, 0, 54, 66
2, 53129, Note_off_c, 0, 42, 64
2, 53132, Note_off_c, 0, 80, 64
2, 53150, Note_off_c, 0, 78, 64
2, 53152, Note_off_c, 0, 54, 64
2, 53207, Note_on_c, 0, 78, 55
2, 53209, Note_off_c, 0, 85, 64
2, 53211, Note_on_c, 0, 80, 61
2, 53218, Note_on_c, 0, 62, 67
2, 53222, Note_on_c, 0, 83, 50
2, 53224, Note_on_c, 0, 66, 70
2, 53264, Note_off_c, 0, 78, 64
2, 53267, Note_off_c, 0, 80, 64
2, 53388, Note_on_c, 0, 86, 66
2, 53394, Note_on_c, 0, 78, 70
2, 53400, Note_off_c, 0, 62, 64
2, 53400, Note_on_c, 0, 71, 66
2, 53420, Note_off_c, 0, 83, 64
2, 53427, Note_off_c, 0, 78, 64
2, 53514, Note_off_c, 0, 86, 64
2, 53526, Note_on_c, 0, 85, 76
2, 53533, Note_on_c, 0, 78, 70
2, 53567, Note_off_c, 0, 85, 64
2, 53586, Note_off_c, 0, 71, 64
2, 53590, Note_on_c, 0, 97, 83
2, 53590, Note_on_c, 0, 69, 58
2, 53597, Note_on_c, 0, 61, 61
2, 53686, Note_on_c, 0, 68, 66
2, 53693, Note_on_c, 0, 59, 70
2, 53700, Note_off_c, 0, 69, 64
2, 53707, Note_off_c, 0, 61, 64
2, 53748, Note_off_c, 0, 97, 64
2, 53780, Note_on_c, 0, 73, 83
2, 53785, Note_on_c, 0, 61, 70
2, 53787, Note_on_c, 0, 69, 61
2, 53790, Note_off_c, 0, 68, 64
2, 53797, Note_off_c, 0, 59, 64
2, 53927, Note_off_c, 0, 78, 64
2, 53938, Note_off_c, 0, 73, 64
2, 53955, Note_off_c, 0, 61, 64
2, 53957, Note_off_c, 0, 69, 64
2, 53978, Note_on_c, 0, 49, 78
2, 53992, Note_off_c, 0, 66, 64
2, 54158, Control_c, 0, 64, 0
2, 54159, Note_off_c, 0, 49, 64
2, 54160, Note_on_c, 0, 74, 57
2, 54167, Note_on_c, 0, 73, 65
2, 54167, Note_on_c, 0, 37, 67
2, 54173, Note_on_c, 0, 80, 58
2, 54194, Control_c, 0, 64, 127
2, 54197, Note_off_c, 0, 74, 64
2, 54204, Note_off_c, 0, 73, 64
2, 54244, Note_on_c, 0, 74, 57
2, 54259, Note_off_c, 0, 80, 64
2, 54261, Note_on_c, 0, 49, 74
2, 54268, Note_on_c, 0, 83, 66
2, 54271, Note_on_c, 0, 73, 66
2, 54281, Note_off_c, 0, 74, 64
2, 54282, Control_c, 0, 64, 0
2, 54291, Note_on_c, 0, 73, 65
2, 54305, Note_off_c, 0, 49, 64
2, 54307, Note_off_c, 0, 73, 64
2, 54308, Note_off_c, 0, 37, 64
2, 54328, Note_off_c, 0, 73, 64
2, 54356, Note_on_c, 0, 74, 57
2, 54364, Note_on_c, 0, 59, 55
2, 54366, Note_on_c, 0, 61, 79
2, 54369, Note_on_c, 0, 81, 58
2, 54369, Note_on_c, 0, 73, 71
2, 54385, Note_off_c, 0, 83, 64
2, 54393, Note_off_c, 0, 74, 64
2, 54420, Note_off_c, 0, 73, 64
2, 54536, Note_on_c, 0, 74, 57
2, 54544, Note_on_c, 0, 68, 70
2, 54544, Note_on_c, 0, 80, 66
2, 54550, Note_on_c, 0, 73, 72
2, 54559, Note_off_c, 0, 81, 64
2, 54568, Control_c, 0, 64, 0
2, 54573, Note_off_c, 0, 74, 64
2, 54585, Control_c, 0, 64, 127
2, 54598, Note_off_c, 0, 73, 64
2, 54716, Note_on_c, 0, 74, 57
2, 54724, Note_on_c, 0, 78, 71
2, 54724, Note_on_c, 0, 73, 66
2, 54724, Note_on_c, 0, 66, 53
2, 54733, Note_on_c, 0, 57, 65
2, 54739, Note_off_c, 0, 80, 64
2, 54742, Note_off_c, 0, 68, 64
2, 54746, Note_off_c, 0, 59, 64
2, 54753, Note_off_c, 0, 74, 64
2, 54766, Note_off_c, 0, 73, 64
2, 54812, Note_on_c, 0, 74, 57
2, 54820, Note_on_c, 0, 80, 70
2, 54822, Note_on_c, 0, 73, 66
2, 54826, Note_off_c, 0, 78, 64
2, 54831, Note_on_c, 0, 65, 54
2, 54832, Note_on_c, 0, 56, 58
2, 54838, Note_off_c, 0, 66, 64
2, 54847, Note_off_c, 0, 57, 64
2, 54849, Note_off_c, 0, 74, 64
2, 54860, Note_off_c, 0, 73, 64
2, 54904, Note_on_c, 0, 74, 57
2, 54913, Control_c, 0, 64, 0
2, 54915, Note_off_c, 0, 80, 64
2, 54919, Note_on_c, 0, 78, 80
2, 54919, Note_on_c, 0, 73, 79
2, 54924, Note_on_c, 0, 57, 61
2, 54929, Note_on_c, 0, 66, 70
2, 54936, Control_c, 0, 64, 127
2, 54941, Note_off_c, 0, 74, 64
2, 54948, Note_off_c, 0, 65, 64
2, 54949, Note_off_c, 0, 56, 64
2, 54959, Note_off_c, 0, 73, 64
2, 55080, Note_on_c, 0, 74, 57
2, 55092, Note_on_c, 0, 85, 80
2, 55093, Note_on_c, 0, 73, 70
2, 55094, Note_off_c, 0, 78, 64
2, 55099, Note_off_c, 0, 57, 64
2, 55101, Note_off_c, 0, 61, 64
2, 55104, Note_off_c, 0, 66, 64
2, 55109, Note_on_c, 0, 49, 80
2, 55117, Note_off_c, 0, 74, 64
2, 55135, Note_off_c, 0, 73, 64
2, 55271, Note_off_c, 0, 49, 64
2, 55272, Note_on_c, 0, 74, 58
2, 55276, Control_c, 0, 64, 0
2, 55281, Note_on_c, 0, 80, 66
2, 55282, Note_off_c, 0, 85, 64
2, 55286, Note_on_c, 0, 73, 72
2, 55290, Note_on_c, 0, 37, 53
2, 55306, Control_c, 0, 64, 127
2, 55317, Note_off_c, 0, 74, 64
2, 55321, Note_off_c, 0, 73, 64
2, 55372, Note_on_c, 0, 74, 57
2, 55375, Note_on_c, 0, 83, 66
2, 55376, Note_off_c, 0, 80, 64
2, 55380, Note_on_c, 0, 49, 79
2, 55385, Note_on_c, 0, 73, 71
2, 55409, Note_off_c, 0, 74, 64
2, 55412, Note_off_c, 0, 49, 64
2, 55418, Note_off_c, 0, 73, 64
2, 55454, Note_off_c, 0, 37, 64
2, 55456, Note_on_c, 0, 74, 57
2, 55468, Note_on_c, 0, 59, 58
2, 55471, Note_on_c, 0, 61, 76
2, 55473, Note_on_c, 0, 73, 74
2, 55480, Note_on_c, 0, 81, 66
2, 55493, Note_off_c, 0, 74, 64
2, 55497, Note_off_c, 0, 83, 64
2, 55528, Note_off_c, 0, 73, 64
2, 55624, Note_on_c, 0, 74, 57
2, 55636, Note_on_c, 0, 73, 59
2, 55641, Note_on_c, 0, 80, 66
2, 55647, Note_on_c, 0, 68, 83
2, 55661, Note_off_c, 0, 74, 64
2, 55669, Note_off_c, 0, 73, 64
2, 55675, Note_off_c, 0, 81, 64
2, 55774, Note_on_c, 0, 78, 70
2, 55792, Note_off_c, 0, 80, 64
2, 55826, Note_on_c, 0, 90, 88
2, 55829, Note_on_c, 0, 66, 72
2, 55830, Note_off_c, 0, 68, 64
2, 55835, Note_on_c, 0, 57, 63
2, 55847, Note_off_c, 0, 59, 64
2, 55911, Note_off_c, 0, 90, 64
2, 55940, Note_on_c, 0, 56, 58
2, 55943, Note_off_c, 0, 78, 64
2, 55947, Note_on_c, 0, 65, 71
2, 55950, Note_off_c, 0, 66, 64
2, 55956, Note_off_c, 0, 57, 64
2, 56023, Control_c, 0, 64, 0
2, 56028, Note_off_c, 0, 61, 64
2, 56034, Note_on_c, 0, 42, 88
2, 56039, Note_on_c, 0, 57, 61
2, 56045, Control_c, 0, 64, 127
2, 56049, Note_on_c, 0, 66, 79
2, 56061, Note_off_c, 0, 56, 64
2, 56068, Note_off_c, 0, 65, 64
2, 56163, Note_off_c, 0, 66, 64
2, 56180, Note_off_c, 0, 57, 64
2, 56233, Note_off_c, 0, 42, 64
2, 56265, Note_on_c, 0, 42, 80
2, 56461, Note_on_c, 0, 80, 66
2, 56465, Note_on_c, 0, 30, 70
2, 56465, Control_c, 0, 64, 0
2, 56468, Note_off_c, 0, 42, 64
2, 56472, Note_on_c, 0, 86, 70
2, 56472, Note_on_c, 0, 78, 70
2, 56494, Control_c, 0, 64, 127
2, 56502, Note_off_c, 0, 78, 64
2, 56508, Note_off_c, 0, 80, 64
2, 56555, Note_on_c, 0, 54, 72
2, 56556, Note_on_c, 0, 80, 74
2, 56561, Note_on_c, 0, 85, 74
2, 56566, Note_on_c, 0, 78, 72
2, 56573, Note_off_c, 0, 86, 64
2, 56581, Note_off_c, 0, 80, 64
2, 56583, Note_off_c, 0, 54, 64
2, 56598, Note_off_c, 0, 78, 64
2, 56648, Note_on_c, 0, 80, 76
2, 56660, Note_on_c, 0, 83, 70
2, 56660, Note_on_c, 0, 78, 71
2, 56660, Note_on_c, 0, 66, 72
2, 56660, Note_on_c, 0, 62, 67
2, 56677, Control_c, 0, 64, 0
2, 56678, Note_off_c, 0, 85, 64
2, 56690, Control_c, 0, 64, 127
2, 56721, Note_off_c, 0, 80, 64
2, 56735, Note_off_c, 0, 78, 64
2, 56770, Note_off_c, 0, 30, 64
2, 56832, Note_on_c, 0, 71, 66
2, 56840, Note_on_c, 0, 80, 71
2, 56850, Note_on_c, 0, 86, 66
2, 56854, Note_on_c, 0, 78, 72
2, 56855, Note_off_c, 0, 83, 64
2, 56862, Note_off_c, 0, 80, 64
2, 56901, Note_off_c, 0, 78, 64
2, 57024, Note_on_c, 0, 80, 79
2, 57029, Note_on_c, 0, 85, 66
2, 57029, Note_on_c, 0, 61, 57
2, 57033, Note_on_c, 0, 69, 55
2, 57034, Note_off_c, 0, 71, 64
2, 57035, Control_c, 0, 64, 0
2, 57040, Note_on_c, 0, 78, 74
2, 57042, Note_off_c, 0, 86, 64
2, 57053, Control_c, 0, 64, 127
2, 57056, Note_off_c, 0, 80, 64
2, 57063, Note_off_c, 0, 62, 64
2, 57069, Note_off_c, 0, 78, 64
2, 57120, Note_on_c, 0, 80, 72
2, 57120, Note_on_c, 0, 59, 66
2, 57125, Note_on_c, 0, 68, 66
2, 57126, Note_on_c, 0, 86, 66
2, 57132, Note_off_c, 0, 61, 64
2, 57132, Note_on_c, 0, 78, 70
2, 57136, Note_off_c, 0, 69, 64
2, 57139, Note_off_c, 0, 85, 64
2, 57154, Note_off_c, 0, 80, 64
2, 57172, Note_off_c, 0, 78, 64
2, 57212, Note_on_c, 0, 80, 80
2, 57215, Note_off_c, 0, 59, 64
2, 57218, Note_on_c, 0, 61, 58
2, 57220, Note_off_c, 0, 68, 64
2, 57220, Note_on_c, 0, 69, 54
2, 57224, Note_on_c, 0, 85, 79
2, 57227, Control_c, 0, 64, 0
2, 57234, Note_on_c, 0, 78, 72
2, 57239, Note_off_c, 0, 86, 64
2, 57244, Control_c, 0, 64, 127
2, 57250, Note_off_c, 0, 80, 64
2, 57257, Note_off_c, 0, 78, 64
2, 57390, Note_on_c, 0, 78, 57
2, 57393, Note_on_c, 0, 80, 65
2, 57394, Note_off_c, 0, 66, 64
2, 57395, Note_off_c, 0, 69, 64
2, 57400, Note_on_c, 0, 90, 74
2, 57400, Note_on_c, 0, 54, 88
2, 57416, Control_c, 0, 64, 0
2, 57421, Note_off_c, 0, 61, 64
2, 57423, Note_off_c, 0, 85, 64
2, 57429, Note_off_c, 0, 80, 64
2, 57439, Control_c, 0, 64, 127
2, 57444, Note_off_c, 0, 78, 64
2, 57583, Note_on_c, 0, 80, 63
2, 57592, Note_on_c, 0, 78, 61
2, 57596, Note_on_c, 0, 42, 66
2, 57599, Note_off_c, 0, 54, 64
2, 57604, Note_on_c, 0, 86, 66
2, 57606, Note_off_c, 0, 90, 64
2, 57617, Note_off_c, 0, 80, 64
2, 57636, Note_off_c, 0, 78, 64
2, 57672, Note_on_c, 0, 80, 70
2, 57681, Note_on_c, 0, 85, 72
2, 57681, Note_on_c, 0, 54, 74
2, 57686, Note_on_c, 0, 78, 66
2, 57691, Note_off_c, 0, 86, 64
2, 57701, Note_off_c, 0, 80, 64
2, 57718, Note_off_c, 0, 78, 64
2, 57724, Note_off_c, 0, 54, 64
2, 57764, Note_on_c, 0, 80, 70
2, 57776, Note_on_c, 0, 78, 67
2, 57779, Note_on_c, 0, 83, 66
2, 57780, Note_on_c, 0, 66, 67
2, 57783, Note_on_c, 0, 62, 65
2, 57787, Note_off_c, 0, 85, 64
2, 57807, Note_off_c, 0, 42, 64
2, 57819, Note_off_c, 0, 80, 64
2, 57823, Note_off_c, 0, 78, 64
2, 57932, Note_on_c, 0, 80, 67
2, 57944, Note_on_c, 0, 71, 72
2, 57946, Note_on_c, 0, 86, 66
2, 57950, Note_on_c, 0, 78, 70
2, 57969, Note_off_c, 0, 80, 64
2, 57969, Note_off_c, 0, 83, 64
2, 57989, Note_off_c, 0, 78, 64
2, 58066, Note_on_c, 0, 85, 80
2, 58072, Note_on_c, 0, 78, 79
2, 58084, Note_off_c, 0, 86, 64
2, 58101, Note_off_c, 0, 85, 64
2, 58118, Note_on_c, 0, 69, 61
2, 58123, Note_on_c, 0, 61, 66
2, 58130, Note_on_c, 0, 97, 88
2, 58131, Note_off_c, 0, 71, 64
2, 58171, Note_off_c, 0, 62, 64
2, 58215, Note_on_c, 0, 68, 70
2, 58215, Note_on_c, 0, 59, 70
2, 58220, Note_off_c, 0, 69, 64
2, 58225, Note_off_c, 0, 61, 64
2, 58291, Note_off_c, 0, 97, 64
2, 58293, Note_off_c, 0, 59, 64
2, 58313, Note_on_c, 0, 61, 67
2, 58314, Note_off_c, 0, 68, 64
2, 58319, Note_on_c, 0, 69, 70
2, 58320, Note_on_c, 0, 73, 88
2, 58327, Note_off_c, 0, 66, 64
2, 58412, Note_off_c, 0, 73, 64
2, 58443, Note_off_c, 0, 78, 64
2, 58494, Control_c, 0, 64, 0
2, 58496, Note_off_c, 0, 61, 64
2, 58498, Note_on_c, 0, 49, 80
2, 58502, Note_off_c, 0, 69, 64
2, 58529, Control_c, 0, 64, 127
2, 58672, Note_on_c, 0, 74, 46
2, 58693, Note_on_c, 0, 73, 72
2, 58697, Note_on_c, 0, 80, 65
2, 58697, Note_on_c, 0, 37, 66
2, 58697, Control_c, 0, 64, 0
2, 58704, Note_off_c, 0, 49, 64
2, 58709, Note_off_c, 0, 74, 64
2, 58716, Control_c, 0, 64, 127
2, 58730, Note_off_c, 0, 73, 64
2, 58768, Note_on_c, 0, 74, 46
2, 58790, Note_on_c, 0, 49, 80
2, 58791, Note_on_c, 0, 73, 66
2, 58795, Note_off_c, 0, 80, 64
2, 58795, Note_on_c, 0, 83, 62
2, 58805, Note_off_c, 0, 74, 64
2, 58824, Note_off_c, 0, 73, 64
2, 58844, Note_off_c, 0, 49, 64
2, 58868, Note_on_c, 0, 74, 46
2, 58882, Note_on_c, 0, 81, 61
2, 58884, Note_on_c, 0, 73, 76
2, 58888, Note_on_c, 0, 59, 52
2, 58891, Note_on_c, 0, 61, 76
2, 58905, Note_off_c, 0, 74, 64
2, 58908, Note_off_c, 0, 37, 64
2, 58911, Note_off_c, 0, 83, 64
2, 58937, Note_off_c, 0, 73, 64
2, 59040, Note_on_c, 0, 74, 46
2, 59056, Note_on_c, 0, 80, 66
2, 59060, Note_on_c, 0, 68, 80
2, 59064, Note_on_c, 0, 73, 79
2, 59077, Note_off_c, 0, 74, 64
2, 59081, Note_off_c, 0, 81, 64
2, 59106, Note_off_c, 0, 73, 64
2, 59208, Note_on_c, 0, 74, 46
2, 59231, Note_on_c, 0, 73, 71
2, 59236, Note_on_c, 0, 66, 54
2, 59239, Note_off_c, 0, 80, 64
2, 59239, Note_on_c, 0, 78, 74
2, 59243, Note_off_c, 0, 68, 64
2, 59245, Note_off_c, 0, 74, 64
2, 59248, Note_on_c, 0, 57, 61
2, 59275, Note_off_c, 0, 73, 64
2, 59275, Note_off_c, 0, 59, 64
2, 59324, Note_on_c, 0, 74, 46
2, 59327, Note_on_c, 0, 80, 70
2, 59334, Note_on_c, 0, 73, 66
2, 59335, Note_on_c, 0, 65, 55
2, 59338, Note_off_c, 0, 78, 64
2, 59348, Note_off_c, 0, 66, 64
2, 59350, Note_on_c, 0, 56, 55
2, 59360, Note_off_c, 0, 57, 64
2, 59361, Note_off_c, 0, 74, 64
2, 59364, Note_off_c, 0, 73, 64
2, 59404, Note_on_c, 0, 74, 46
2, 59422, Note_on_c, 0, 73, 71
2, 59426, Note_on_c, 0, 78, 76
2, 59431, Note_off_c, 0, 65, 64
2, 59435, Note_on_c, 0, 57, 63
2, 59437, Note_on_c, 0, 66, 72
2, 59441, Note_off_c, 0, 74, 64
2, 59446, Note_off_c, 0, 56, 64
2, 59452, Note_off_c, 0, 80, 64
2, 59456, Note_off_c, 0, 73, 64
2, 59503, Note_off_c, 0, 61, 64
2, 59592, Note_on_c, 0, 74, 46
2, 59593, Note_on_c, 0, 49, 72
2, 59595, Note_off_c, 0, 78, 64
2, 59605, Note_off_c, 0, 57, 64
2, 59606, Note_on_c, 0, 73, 80
2, 59607, Note_off_c, 0, 66, 64
2, 59621, Note_on_c, 0, 85, 76
2, 59629, Note_off_c, 0, 74, 64
2, 59645, Note_off_c, 0, 73, 64
2, 59756, Note_off_c, 0, 49, 64
2, 59777, Note_off_c, 0, 85, 64
2, 59788, Note_on_c, 0, 74, 46
2, 59802, Note_on_c, 0, 73, 70
2, 59810, Note_on_c, 0, 80, 83
2, 59810, Note_on_c, 0, 37, 66
2, 59825, Note_off_c, 0, 74, 64
2, 59848, Note_off_c, 0, 73, 64
2, 59892, Note_on_c, 0, 74, 46
2, 59900, Note_on_c, 0, 49, 76
2, 59904, Note_on_c, 0, 83, 66
2, 59905, Note_on_c, 0, 73, 70
2, 59913, Note_off_c, 0, 80, 64
2, 59929, Note_off_c, 0, 74, 64
2, 59945, Note_off_c, 0, 49, 64
2, 59964, Note_off_c, 0, 73, 64
2, 59992, Note_on_c, 0, 74, 46
2, 59998, Note_on_c, 0, 61, 79
2, 60003, Note_on_c, 0, 73, 66
2, 60004, Note_on_c, 0, 81, 80
2, 60012, Note_off_c, 0, 83, 64
2, 60021, Note_off_c, 0, 37, 64
2, 60029, Note_off_c, 0, 74, 64
2, 60104, Note_off_c, 0, 73, 64
2, 60192, Note_on_c, 0, 74, 46
2, 60192, Note_on_c, 0, 61, 2
2, 60196, Note_on_c, 0, 80, 70
2, 60200, Note_on_c, 0, 68, 67
2, 60204, Note_on_c, 0, 73, 70
2, 60210, Note_off_c, 0, 81, 64
2, 60229, Note_off_c, 0, 74, 64
2, 60278, Note_off_c, 0, 61, 64
2, 60287, Note_off_c, 0, 61, 64
2, 60302, Note_off_c, 0, 73, 64
2, 60371, Note_off_c, 0, 80, 64
2, 60389, Note_on_c, 0, 73, 67
2, 60395, Note_on_c, 0, 72, 67
2, 60397, Note_on_c, 0, 66, 58
2, 60402, Note_on_c, 0, 80, 66
2, 60407, Note_on_c, 0, 56, 66
2, 60407, Note_on_c, 0, 63, 54
2, 60410, Note_off_c, 0, 68, 64
2, 60430, Note_off_c, 0, 73, 64
2, 60462, Note_off_c, 0, 72, 64
2, 60474, Note_off_c, 0, 80, 64
2, 60510, Note_on_c, 0, 73, 70
2, 60515, Note_on_c, 0, 80, 67
2, 60520, Note_on_c, 0, 75, 71
2, 60522, Note_on_c, 0, 72, 66
2, 60552, Note_off_c, 0, 73, 64
2, 60554, Note_off_c, 0, 75, 64
2, 60574, Note_off_c, 0, 72, 64
2, 60588, Note_off_c, 0, 80, 64
2, 60605, Note_off_c, 0, 63, 64
2, 60606, Note_off_c, 0, 56, 64
2, 60607, Note_off_c, 0, 66, 64
2, 60641, Note_on_c, 0, 73, 70
2, 60648, Note_on_c, 0, 71, 59
2, 60660, Note_on_c, 0, 80, 72
2, 60660, Note_on_c, 0, 65, 67
2, 60660, Note_on_c, 0, 61, 59
2, 60684, Note_off_c, 0, 73, 64
2, 60699, Control_c, 0, 64, 0
2, 60735, Control_c, 0, 64, 127
2, 60777, Note_off_c, 0, 80, 64
2, 60830, Note_off_c, 0, 71, 64
2, 60833, Note_off_c, 0, 61, 64
2, 60833, Note_off_c, 0, 65, 64
2, 60896, Note_on_c, 0, 69, 65
2, 60932, Note_on_c, 0, 73, 65
2, 60934, Note_on_c, 0, 68, 80
2, 60946, Note_off_c, 0, 69, 64
2, 60948, Control_c, 0, 64, 0
2, 61000, Control_c, 0, 64, 127
2, 61211, Note_off_c, 0, 73, 64
2, 61254, Note_on_c, 0, 66, 76
2, 61264, Note_on_c, 0, 37, 58
2, 61280, Note_off_c, 0, 68, 64
2, 61287, Control_c, 0, 64, 0
2, 61330, Control_c, 0, 64, 127
2, 61406, Note_on_c, 0, 68, 50
2, 61412, Note_off_c, 0, 66, 64
2, 61439, Note_on_c, 0, 66, 55
2, 61468, Note_off_c, 0, 68, 64
2, 61475, Note_off_c, 0, 37, 64
2, 61480, Note_on_c, 0, 65, 66
2, 61492, Note_on_c, 0, 49, 61
2, 61497, Note_on_c, 0, 59, 44
2, 61497, Control_c, 0, 64, 0
2, 61501, Note_off_c, 0, 66, 64
2, 61539, Control_c, 0, 64, 127
2, 61586, Note_off_c, 0, 49, 64
2, 61595, Note_on_c, 0, 66, 63
2, 61596, Note_off_c, 0, 59, 64
2, 61597, Note_off_c, 0, 65, 64
2, 61694, Note_on_c, 0, 68, 70
2, 61703, Note_on_c, 0, 53, 57
2, 61710, Note_off_c, 0, 66, 64
2, 61710, Note_on_c, 0, 59, 42
2, 61716, Note_on_c, 0, 49, 29
2, 61717, Control_c, 0, 64, 0
2, 61739, Note_off_c, 0, 59, 64
2, 61741, Control_c, 0, 64, 127
2, 61749, Note_off_c, 0, 53, 64
2, 61770, Note_off_c, 0, 49, 64
2, 61851, Note_on_c, 0, 62, 58
2, 61862, Note_off_c, 0, 68, 64
2, 61899, Note_on_c, 0, 61, 67
2, 61912, Note_on_c, 0, 42, 58
2, 61920, Control_c, 0, 64, 0
2, 61928, Note_off_c, 0, 62, 64
2, 61973, Control_c, 0, 64, 127
2, 62052, Note_on_c, 0, 66, 48
2, 62083, Note_off_c, 0, 61, 64
2, 62090, Control_c, 0, 64, 0
2, 62096, Note_on_c, 0, 54, 62
2, 62100, Note_on_c, 0, 61, 55
2, 62101, Note_on_c, 0, 69, 65
2, 62120, Note_off_c, 0, 66, 64
2, 62123, Note_off_c, 0, 42, 64
2, 62140, Note_off_c, 0, 54, 64
2, 62144, Note_off_c, 0, 61, 64
2, 62208, Control_c, 0, 64, 127
2, 62300, Note_off_c, 0, 69, 64
2, 62315, Note_on_c, 0, 66, 62
2, 62319, Note_on_c, 0, 69, 62
2, 62323, Note_on_c, 0, 54, 61
2, 62335, Control_c, 0, 64, 127
2, 62364, Note_off_c, 0, 54, 64
2, 62506, Control_c, 0, 64, 0
2, 62518, Note_on_c, 0, 40, 63
2, 62554, Control_c, 0, 64, 127
2, 62639, Note_on_c, 0, 71, 55
2, 62644, Note_off_c, 0, 69, 64
2, 62670, Note_off_c, 0, 66, 64
2, 62683, Note_on_c, 0, 69, 57
2, 62698, Note_off_c, 0, 71, 64
2, 62716, Control_c, 0, 64, 0
2, 62724, Note_on_c, 0, 64, 41
2, 62724, Note_on_c, 0, 59, 54
2, 62724, Note_on_c, 0, 52, 53
2, 62725, Note_on_c, 0, 68, 62
2, 62729, Note_off_c, 0, 40, 64
2, 62739, Note_off_c, 0, 69, 64
2, 62760, Control_c, 0, 64, 127
2, 62770, Note_off_c, 0, 59, 64
2, 62773, Note_off_c, 0, 52, 64
2, 62808, Note_off_c, 0, 64, 64
2, 62822, Note_on_c, 0, 69, 57
2, 62851, Note_off_c, 0, 68, 64
2, 62896, Note_on_c, 0, 62, 55
2, 62896, Note_on_c, 0, 52, 57
2, 62900, Note_on_c, 0, 71, 58
2, 62918, Control_c, 0, 64, 0
2, 62927, Note_off_c, 0, 69, 64
2, 62946, Control_c, 0, 64, 127
2, 62948, Note_off_c, 0, 52, 64
2, 63044, Note_on_c, 0, 66, 44
2, 63059, Note_off_c, 0, 71, 64
2, 63086, Note_on_c, 0, 64, 55
2, 63098, Control_c, 0, 64, 0
2, 63101, Note_on_c, 0, 45, 55
2, 63122, Note_off_c, 0, 66, 64
2, 63156, Control_c, 0, 64, 127
2, 63228, Note_on_c, 0, 69, 40
2, 63245, Note_off_c, 0, 64, 64
2, 63268, Note_on_c, 0, 57, 58
2, 63273, Note_on_c, 0, 73, 72
2, 63276, Note_on_c, 0, 61, 55
2, 63287, Control_c, 0, 64, 0
2, 63289, Note_off_c, 0, 69, 64
2, 63294, Note_off_c, 0, 45, 64
2, 63299, Note_off_c, 0, 62, 64
2, 63312, Note_off_c, 0, 57, 64
2, 63313, Control_c, 0, 64, 127
2, 63320, Note_off_c, 0, 61, 64
2, 63384, Control_c, 0, 64, 127
2, 63460, Note_off_c, 0, 73, 64
2, 63480, Note_on_c, 0, 73, 71
2, 63486, Control_c, 0, 64, 0
2, 63492, Note_on_c, 0, 57, 59
2, 63496, Note_on_c, 0, 64, 57
2, 63534, Control_c, 0, 64, 127
2, 63560, Note_off_c, 0, 57, 64
2, 63576, Note_off_c, 0, 64, 64
2, 63680, Note_on_c, 0, 63, 1
2, 63687, Note_on_c, 0, 66, 55
2, 63687, Note_on_c, 0, 57, 58
2, 63707, Control_c, 0, 64, 0
2, 63737, Control_c, 0, 64, 127
2, 63795, Note_on_c, 0, 75, 46
2, 63806, Note_off_c, 0, 73, 64
2, 63839, Note_on_c, 0, 73, 54
2, 63854, Note_off_c, 0, 75, 64
2, 63874, Note_on_c, 0, 72, 62
2, 63886, Note_on_c, 0, 56, 58
2, 63890, Note_off_c, 0, 73, 64
2, 63893, Note_off_c, 0, 57, 64
2, 63897, Control_c, 0, 64, 0
2, 63933, Control_c, 0, 64, 127
2, 63999, Note_off_c, 0, 72, 64
2, 64005, Note_on_c, 0, 68, 57
2, 64066, Note_on_c, 0, 71, 65
2, 64076, Note_on_c, 0, 65, 55
2, 64076, Note_on_c, 0, 61, 55
2, 64083, Note_off_c, 0, 68, 64
2, 64085, Note_off_c, 0, 63, 64
2, 64090, Control_c, 0, 64, 0
2, 64092, Note_off_c, 0, 66, 64
2, 64126, Control_c, 0, 64, 127
2, 64274, Note_off_c, 0, 61, 64
2, 64280, Note_on_c, 0, 61, 36
2, 64286, Note_on_c, 0, 55, 44
2, 64286, Note_on_c, 0, 64, 49
2, 64296, Control_c, 0, 64, 0
2, 64302, Note_off_c, 0, 56, 64
2, 64312, Note_off_c, 0, 65, 64
2, 64342, Control_c, 0, 64, 127
2, 64399, Note_off_c, 0, 71, 64
2, 64400, Note_on_c, 0, 73, 48
2, 64444, Note_on_c, 0, 71, 53
2, 64463, Note_off_c, 0, 73, 64
2, 64482, Note_on_c, 0, 70, 49
2, 64485, Note_on_c, 0, 54, 49
2, 64491, Control_c, 0, 64, 0
2, 64492, Note_off_c, 0, 55, 64
2, 64505, Note_off_c, 0, 71, 64
2, 64539, Control_c, 0, 64, 127
2, 64609, Note_on_c, 0, 66, 50
2, 64617, Note_off_c, 0, 70, 64
2, 64672, Note_on_c, 0, 69, 58
2, 64673, Note_on_c, 0, 63, 42
2, 64678, Note_on_c, 0, 60, 53
2, 64679, Note_off_c, 0, 66, 64
2, 64694, Control_c, 0, 64, 0
2, 64703, Note_off_c, 0, 61, 64
2, 64709, Note_off_c, 0, 64, 64
2, 64725, Control_c, 0, 64, 127
2, 64875, Note_on_c, 0, 62, 46
2, 64879, Note_on_c, 0, 53, 39
2, 64881, Note_on_c, 0, 59, 45
2, 64882, Note_off_c, 0, 63, 64
2, 64887, Note_off_c, 0, 60, 64
2, 64889, Note_off_c, 0, 54, 64
2, 64899, Control_c, 0, 64, 0
2, 64943, Control_c, 0, 64, 127
2, 64996, Note_on_c, 0, 71, 48
2, 65012, Note_off_c, 0, 69, 64
2, 65024, Note_on_c, 0, 69, 50
2, 65049, Note_off_c, 0, 71, 64
2, 65059, Note_on_c, 0, 68, 49
2, 65071, Note_on_c, 0, 52, 52
2, 65085, Note_off_c, 0, 69, 64
2, 65090, Note_off_c, 0, 53, 64
2, 65095, Control_c, 0, 64, 0
2, 65128, Control_c, 0, 64, 127
2, 65187, Note_on_c, 0, 64, 45
2, 65193, Note_off_c, 0, 68, 64
2, 65262, Note_on_c, 0, 61, 46
2, 65262, Note_on_c, 0, 67, 59
2, 65269, Note_on_c, 0, 58, 49
2, 65270, Note_off_c, 0, 62, 64
2, 65276, Note_off_c, 0, 59, 64
2, 65280, Control_c, 0, 64, 0
2, 65287, Note_off_c, 0, 64, 64
2, 65316, Control_c, 0, 64, 127
2, 65437, Note_off_c, 0, 61, 64
2, 65468, Note_on_c, 0, 51, 44
2, 65469, Note_off_c, 0, 52, 64
2, 65480, Note_on_c, 0, 57, 46
2, 65486, Note_off_c, 0, 58, 64
2, 65488, Note_on_c, 0, 61, 48
2, 65488, Control_c, 0, 64, 0
2, 65515, Control_c, 0, 64, 127
2, 65606, Note_on_c, 0, 69, 42
2, 65619, Note_off_c, 0, 67, 64
2, 65642, Note_on_c, 0, 67, 45
2, 65669, Note_off_c, 0, 69, 64
2, 65671, Note_on_c, 0, 50, 48
2, 65678, Note_on_c, 0, 66, 48
2, 65684, Control_c, 0, 64, 0
2, 65698, Note_off_c, 0, 51, 64
2, 65707, Note_off_c, 0, 67, 64
2, 65730, Control_c, 0, 64, 127
2, 65794, Note_on_c, 0, 62, 53
2, 65799, Note_off_c, 0, 66, 64
2, 65897, Control_c, 0, 64, 0
2, 65910, Note_on_c, 0, 66, 65
2, 65919, Note_on_c, 0, 56, 53
2, 65921, Note_on_c, 0, 59, 46
2, 65925, Note_off_c, 0, 57, 64
2, 65928, Control_c, 0, 64, 127
2, 65933, Note_off_c, 0, 61, 64
2, 65935, Note_off_c, 0, 62, 64
2, 66190, Note_on_c, 0, 49, 76
2, 66192, Note_on_c, 0, 37, 66
2, 66193, Note_off_c, 0, 56, 64
2, 66195, Note_off_c, 0, 59, 64
2, 66201, Control_c, 0, 64, 0
2, 66223, Note_off_c, 0, 50, 64
2, 66244, Control_c, 0, 64, 127
2, 66368, Note_off_c, 0, 66, 64
2, 66371, Note_on_c, 0, 68, 53
2, 66401, Note_off_c, 0, 49, 64
2, 66403, Note_off_c, 0, 37, 64
2, 66408, Note_on_c, 0, 66, 70
2, 66433, Note_off_c, 0, 68, 64
2, 66449, Note_on_c, 0, 49, 65
2, 66452, Note_on_c, 0, 65, 70
2, 66452, Note_on_c, 0, 56, 58
2, 66456, Note_on_c, 0, 59, 63
2, 66465, Note_off_c, 0, 66, 64
2, 66465, Control_c, 0, 64, 0
2, 66490, Control_c, 0, 64, 127
2, 66508, Note_off_c, 0, 49, 64
2, 66524, Note_off_c, 0, 59, 64
2, 66560, Note_off_c, 0, 56, 64
2, 66567, Note_on_c, 0, 66, 66
2, 66568, Note_off_c, 0, 65, 64
2, 66659, Control_c, 0, 64, 0
2, 66671, Note_on_c, 0, 68, 71
2, 66671, Note_on_c, 0, 49, 63
2, 66676, Note_on_c, 0, 59, 66
2, 66676, Note_on_c, 0, 53, 66
2, 66681, Note_off_c, 0, 66, 64
2, 66708, Control_c, 0, 64, 127
2, 66720, Note_off_c, 0, 59, 64
2, 66738, Note_off_c, 0, 53, 64
2, 66743, Note_off_c, 0, 49, 64
2, 66828, Note_on_c, 0, 62, 53
2, 66843, Note_off_c, 0, 68, 64
2, 66868, Control_c, 0, 64, 0
2, 66876, Note_on_c, 0, 61, 70
2, 66881, Note_on_c, 0, 42, 65
2, 66901, Note_off_c, 0, 62, 64
2, 66938, Control_c, 0, 64, 127
2, 67025, Note_on_c, 0, 66, 53
2, 67052, Note_off_c, 0, 61, 64
2, 67064, Control_c, 0, 64, 0
2, 67069, Note_on_c, 0, 69, 63
2, 67071, Note_on_c, 0, 54, 67
2, 67072, Note_on_c, 0, 61, 55
2, 67092, Note_off_c, 0, 42, 64
2, 67102, Note_off_c, 0, 66, 64
2, 67115, Note_off_c, 0, 54, 64
2, 67116, Note_off_c, 0, 61, 64
2, 67180, Control_c, 0, 64, 127
2, 67268, Note_off_c, 0, 69, 64
2, 67297, Note_on_c, 0, 61, 61
2, 67303, Note_on_c, 0, 69, 65
2, 67304, Note_on_c, 0, 66, 65
2, 67308, Note_on_c, 0, 54, 63
2, 67319, Control_c, 0, 64, 127
2, 67337, Note_off_c, 0, 61, 64
2, 67347, Note_off_c, 0, 54, 64
2, 67507, Note_on_c, 0, 40, 70
2, 67517, Control_c, 0, 64, 0
2, 67539, Control_c, 0, 64, 127
2, 67637, Note_on_c, 0, 71, 52
2, 67659, Note_off_c, 0, 69, 64
2, 67669, Note_off_c, 0, 66, 64
2, 67676, Note_on_c, 0, 69, 55
2, 67689, Note_off_c, 0, 71, 64
2, 67711, Note_on_c, 0, 68, 67
2, 67715, Note_on_c, 0, 64, 44
2, 67718, Note_off_c, 0, 40, 64
2, 67720, Note_on_c, 0, 52, 58
2, 67724, Note_on_c, 0, 59, 66
2, 67724, Control_c, 0, 64, 0
2, 67738, Note_off_c, 0, 69, 64
2, 67763, Note_off_c, 0, 59, 64
2, 67771, Control_c, 0, 64, 127
2, 67778, Note_off_c, 0, 52, 64
2, 67820, Note_off_c, 0, 64, 64
2, 67828, Note_on_c, 0, 69, 55
2, 67857, Note_off_c, 0, 68, 64
2, 67918, Note_on_c, 0, 62, 61
2, 67918, Note_on_c, 0, 71, 66
2, 67924, Note_on_c, 0, 52, 65
2, 67934, Control_c, 0, 64, 0
2, 67945, Note_off_c, 0, 69, 64
2, 67949, Control_c, 0, 64, 127
2, 67974, Note_off_c, 0, 52, 64
2, 68053, Note_on_c, 0, 66, 50
2, 68065, Note_off_c, 0, 71, 64
2, 68108, Note_on_c, 0, 45, 66
2, 68109, Control_c, 0, 64, 0
2, 68118, Note_on_c, 0, 64, 50
2, 68158, Note_off_c, 0, 66, 64
2, 68168, Control_c, 0, 64, 127
2, 68255, Note_on_c, 0, 69, 52
2, 68289, Note_off_c, 0, 64, 64
2, 68296, Control_c, 0, 64, 0
2, 68297, Note_off_c, 0, 62, 64
2, 68306, Note_on_c, 0, 73, 74
2, 68308, Note_on_c, 0, 61, 58
2, 68308, Note_on_c, 0, 57, 59
2, 68334, Note_off_c, 0, 69, 64
2, 68338, Control_c, 0, 64, 127
2, 68346, Note_off_c, 0, 45, 64
2, 68352, Note_off_c, 0, 57, 64
2, 68352, Note_off_c, 0, 61, 64
2, 68505, Note_off_c, 0, 73, 64
2, 68537, Note_on_c, 0, 73, 61
2, 68537, Note_on_c, 0, 57, 61
2, 68541, Note_on_c, 0, 64, 61
2, 68554, Control_c, 0, 64, 0
2, 68618, Control_c, 0, 64, 127
2, 68697, Note_off_c, 0, 64, 64
2, 68808, Note_off_c, 0, 73, 64
2, 68817, Note_on_c, 0, 76, 52
2, 68826, Note_on_c, 0, 50, 28
2, 68830, Note_on_c, 0, 65, 26
2, 68854, Control_c, 0, 64, 0
2, 68888, Control_c, 0, 64, 127
2, 68930, Note_off_c, 0, 57, 64
2, 68940, Note_off_c, 0, 50, 64
2, 68965, Note_on_c, 0, 74, 52
2, 68973, Note_off_c, 0, 76, 64
2, 68992, Note_off_c, 0, 65, 64
2, 68999, Note_on_c, 0, 73, 61
2, 69030, Note_off_c, 0, 74, 64
2, 69050, Note_on_c, 0, 71, 57
2, 69055, Note_on_c, 0, 57, 46
2, 69057, Note_on_c, 0, 50, 40
2, 69065, Note_on_c, 0, 65, 42
2, 69071, Control_c, 0, 64, 0
2, 69080, Note_off_c, 0, 73, 64
2, 69097, Control_c, 0, 64, 127
2, 69132, Note_off_c, 0, 50, 64
2, 69139, Note_off_c, 0, 57, 64
2, 69155, Note_off_c, 0, 65, 64
2, 69270, Note_on_c, 0, 73, 58
2, 69277, Note_on_c, 0, 64, 44
2, 69285, Note_on_c, 0, 45, 44
2, 69288, Note_on_c, 0, 57, 46
2, 69293, Note_off_c, 0, 71, 64
2, 69304, Control_c, 0, 64, 0
2, 69346, Control_c, 0, 64, 127
2, 69419, Note_off_c, 0, 64, 64
2, 69464, Note_off_c, 0, 45, 64
2, 69520, Note_on_c, 0, 65, 52
2, 69527, Note_on_c, 0, 76, 57
2, 69532, Note_off_c, 0, 73, 64
2, 69532, Note_on_c, 0, 50, 44
2, 69551, Control_c, 0, 64, 0
2, 69574, Control_c, 0, 64, 127
2, 69628, Note_off_c, 0, 57, 64
2, 69654, Note_off_c, 0, 50, 64
2, 69677, Note_on_c, 0, 74, 52
2, 69692, Note_off_c, 0, 65, 64
2, 69705, Note_off_c, 0, 76, 64
2, 69716, Note_on_c, 0, 73, 63
2, 69752, Note_on_c, 0, 57, 40
2, 69755, Note_on_c, 0, 50, 35
2, 69761, Note_off_c, 0, 74, 64
2, 69763, Note_on_c, 0, 71, 42
2, 69768, Note_on_c, 0, 65, 39
2, 69785, Control_c, 0, 64, 0
2, 69792, Note_off_c, 0, 73, 64
2, 69811, Control_c, 0, 64, 127
2, 69866, Note_off_c, 0, 65, 64
2, 69869, Note_off_c, 0, 50, 64
2, 69941, Note_off_c, 0, 57, 64
2, 70010, Note_on_c, 0, 73, 55
2, 70013, Note_on_c, 0, 64, 42
2, 70019, Note_on_c, 0, 45, 35
2, 70024, Note_off_c, 0, 71, 64
2, 70029, Note_on_c, 0, 57, 31
2, 70049, Control_c, 0, 64, 0
2, 70085, Control_c, 0, 64, 127
2, 70131, Note_off_c, 0, 64, 64
2, 70199, Note_off_c, 0, 45, 64
2, 70312, Note_on_c, 0, 76, 57
2, 70320, Note_on_c, 0, 66, 48
2, 70320, Note_on_c, 0, 50, 48
2, 70327, Note_off_c, 0, 73, 64
2, 70352, Control_c, 0, 64, 0
2, 70383, Control_c, 0, 64, 127
2, 70403, Note_off_c, 0, 50, 64
2, 70478, Note_on_c, 0, 74, 52
2, 70506, Note_off_c, 0, 76, 64
2, 70508, Note_on_c, 0, 73, 58
2, 70529, Note_off_c, 0, 74, 64
2, 70563, Note_on_c, 0, 71, 61
2, 70566, Note_on_c, 0, 56, 52
2, 70580, Note_off_c, 0, 73, 64
2, 70600, Control_c, 0, 64, 0
2, 70622, Note_off_c, 0, 57, 64
2, 70638, Control_c, 0, 64, 127
2, 70782, Note_off_c, 0, 66, 64
2, 70864, Note_off_c, 0, 56, 64
2, 70887, Note_on_c, 0, 73, 57
2, 70892, Note_on_c, 0, 61, 29
2, 70892, Note_on_c, 0, 49, 39
2, 70893, Note_off_c, 0, 71, 64
2, 70899, Note_on_c, 0, 65, 53
2, 70923, Control_c, 0, 64, 0
2, 70957, Control_c, 0, 64, 127
2, 71029, Note_off_c, 0, 49, 64
2, 71066, Note_off_c, 0, 61, 64
2, 71086, Note_off_c, 0, 65, 64
2, 71279, Note_on_c, 0, 54, 42
2, 71287, Note_on_c, 0, 66, 39
2, 71290, Note_on_c, 0, 71, 46
2, 71295, Note_on_c, 0, 62, 31
2, 71316, Note_off_c, 0, 73, 64
2, 71316, Control_c, 0, 64, 0
2, 71350, Control_c, 0, 64, 127
2, 71415, Note_off_c, 0, 71, 64
2, 71418, Note_on_c, 0, 61, 52
2, 71423, Note_on_c, 0, 69, 52
2, 71471, Note_off_c, 0, 62, 64
2, 71523, Note_on_c, 0, 68, 54
2, 71531, Note_off_c, 0, 66, 64
2, 71531, Note_on_c, 0, 59, 50
2, 71534, Note_off_c, 0, 61, 64
2, 71536, Note_off_c, 0, 69, 64
2, 71652, Note_on_c, 0, 66, 48
2, 71654, Note_off_c, 0, 59, 64
2, 71659, Note_on_c, 0, 57, 40
2, 71666, Note_off_c, 0, 68, 64
2, 71705, Control_c, 0, 64, 0
2, 72687, Note_off_c, 0, 54, 64
2, 72704, Note_off_c, 0, 57, 64
2, 72716, Note_off_c, 0, 66, 64
2, 73956, Control_c, 0, 64, 127
2, 73969, Control_c, 0, 64, 0
2, 74446, Control_c, 0, 64, 0
2, 74513, Note_on_c, 0, 68, 36
2, 74513, Note_on_c, 0, 51, 27
2, 74521, Note_on_c, 0, 60, 31
2, 74523, Note_on_c, 0, 44, 16
2, 74530, Control_c, 0, 64, 127
2, 74574, Note_off_c, 0, 51, 64
2, 74581, Note_off_c, 0, 68, 64
2, 74588, Note_off_c, 0, 44, 64
2, 74617, Note_off_c, 0, 60, 64
2, 74679, Note_on_c, 0, 68, 35
2, 74682, Note_on_c, 0, 58, 39
2, 74686, Note_on_c, 0, 51, 31
2, 74689, Note_on_c, 0, 44, 31
2, 74696, Control_c, 0, 64, 0
2, 74739, Note_off_c, 0, 58, 64
2, 74741, Control_c, 0, 64, 127
2, 74820, Note_off_c, 0, 68, 64
2, 74835, Note_on_c, 0, 60, 36
2, 74868, Note_off_c, 0, 51, 64
2, 74882, Note_off_c, 0, 44, 64
2, 74895, Note_on_c, 0, 61, 49
2, 74912, Note_off_c, 0, 60, 64
2, 74972, Note_on_c, 0, 68, 44
2, 74977, Note_on_c, 0, 51, 35
2, 74983, Note_on_c, 0, 63, 41
2, 74983, Note_on_c, 0, 44, 35
2, 74990, Control_c, 0, 64, 0
2, 74998, Note_off_c, 0, 61, 64
2, 75019, Control_c, 0, 64, 127
2, 75042, Note_off_c, 0, 51, 64
2, 75043, Note_off_c, 0, 44, 64
2, 75050, Note_off_c, 0, 68, 64
2, 75050, Note_on_c, 0, 60, 40
2, 75067, Note_off_c, 0, 63, 64
2, 75122, Note_on_c, 0, 68, 40
2, 75122, Note_on_c, 0, 61, 48
2, 75132, Note_on_c, 0, 51, 35
2, 75137, Note_on_c, 0, 44, 33
2, 75145, Note_off_c, 0, 60, 64
2, 75150, Control_c, 0, 64, 0
2, 75192, Control_c, 0, 64, 127
2, 75252, Note_off_c, 0, 68, 64
2, 75308, Note_off_c, 0, 61, 64
2, 75327, Note_off_c, 0, 44, 64
2, 75330, Note_off_c, 0, 51, 64
2, 75358, Note_on_c, 0, 58, 32
2, 75396, Note_off_c, 0, 58, 64
2, 75456, Control_c, 0, 64, 0
2, 75460, Note_on_c, 0, 51, 31
2, 75462, Note_on_c, 0, 68, 33
2, 75462, Note_on_c, 0, 60, 45
2, 75462, Note_on_c, 0, 44, 33
2, 75491, Control_c, 0, 64, 127
2, 75500, Note_on_c, 0, 61, 45
2, 75511, Note_off_c, 0, 60, 64
2, 75512, Note_off_c, 0, 44, 64
2, 75515, Note_off_c, 0, 51, 64
2, 75542, Note_on_c, 0, 60, 45
2, 75548, Note_off_c, 0, 68, 64
2, 75550, Note_off_c, 0, 61, 64
2, 75586, Control_c, 0, 64, 0
2, 75590, Note_on_c, 0, 58, 50
2, 75594, Note_on_c, 0, 68, 29
2, 75597, Note_on_c, 0, 51, 29
2, 75603, Note_on_c, 0, 44, 33
2, 75609, Note_off_c, 0, 60, 64
2, 75631, Control_c, 0, 64, 127
2, 75670, Note_off_c, 0, 58, 64
2, 75679, Note_off_c, 0, 68, 64
2, 75730, Note_on_c, 0, 60, 37
2, 75736, Note_on_c, 0, 68, 37
2, 75785, Note_off_c, 0, 51, 64
2, 75795, Note_off_c, 0, 44, 64
2, 75798, Note_on_c, 0, 61, 46
2, 75802, Note_off_c, 0, 60, 64
2, 75824, Note_off_c, 0, 68, 64
2, 75865, Note_off_c, 0, 61, 64
2, 75875, Control_c, 0, 64, 0
2, 75882, Note_on_c, 0, 63, 44
2, 75884, Note_on_c, 0, 51, 35
2, 75884, Note_on_c, 0, 44, 35
2, 75895, Note_on_c, 0, 68, 37
2, 75918, Control_c, 0, 64, 127
2, 75927, Note_off_c, 0, 63, 64
2, 75939, Note_on_c, 0, 66, 33
2, 75949, Note_off_c, 0, 51, 64
2, 75962, Note_off_c, 0, 44, 64
2, 75965, Note_off_c, 0, 68, 64
2, 75980, Note_on_c, 0, 64, 32
2, 76034, Note_off_c, 0, 66, 64
2, 76045, Note_on_c, 0, 63, 29
2, 76054, Note_on_c, 0, 51, 32
2, 76054, Note_on_c, 0, 44, 35
2, 76055, Note_off_c, 0, 64, 64
2, 76057, Note_on_c, 0, 68, 45
2, 76073, Control_c, 0, 64, 0
2, 76139, Control_c, 0, 64, 127
2, 76185, Note_off_c, 0, 68, 64
2, 76245, Note_off_c, 0, 63, 64
2, 76267, Note_off_c, 0, 51, 64
2, 76274, Note_off_c, 0, 44, 64
2, 76350, Note_on_c, 0, 60, 29
2, 76353, Note_on_c, 0, 68, 35
2, 76358, Note_on_c, 0, 51, 32
2, 76358, Note_on_c, 0, 44, 35
2, 76365, Control_c, 0, 64, 0
2, 76380, Control_c, 0, 64, 127
2, 76395, Note_on_c, 0, 61, 41
2, 76405, Note_off_c, 0, 60, 64
2, 76411, Note_off_c, 0, 51, 64
2, 76415, Note_off_c, 0, 44, 64
2, 76434, Note_off_c, 0, 68, 64
2, 76448, Note_off_c, 0, 61, 64
2, 76448, Note_on_c, 0, 60, 41
2, 76483, Control_c, 0, 64, 0
2, 76488, Note_on_c, 0, 58, 46
2, 76489, Note_on_c, 0, 68, 26
2, 76496, Note_on_c, 0, 51, 29
2, 76504, Note_on_c, 0, 44, 27
2, 76505, Note_off_c, 0, 60, 64
2, 76531, Control_c, 0, 64, 127
2, 76545, Note_off_c, 0, 58, 64
2, 76555, Note_off_c, 0, 44, 64
2, 76555, Note_off_c, 0, 51, 64
2, 76575, Note_off_c, 0, 68, 64
2, 76633, Note_on_c, 0, 68, 31
2, 76638, Note_on_c, 0, 60, 37
2, 76640, Note_on_c, 0, 51, 23
2, 76655, Note_on_c, 0, 44, 16
2, 76682, Note_off_c, 0, 51, 64
2, 76685, Note_off_c, 0, 44, 64
2, 76690, Note_on_c, 0, 61, 37
2, 76694, Note_off_c, 0, 60, 64
2, 76723, Note_off_c, 0, 68, 64
2, 76758, Note_off_c, 0, 61, 64
2, 76771, Note_on_c, 0, 68, 37
2, 76778, Note_on_c, 0, 51, 27
2, 76784, Note_on_c, 0, 44, 20
2, 76784, Note_on_c, 0, 63, 22
2, 76784, Control_c, 0, 64, 0
2, 76813, Control_c, 0, 64, 127
2, 76826, Note_off_c, 0, 63, 64
2, 76832, Note_off_c, 0, 51, 64
2, 76839, Note_off_c, 0, 68, 64
2, 76842, Note_off_c, 0, 44, 64
2, 76842, Note_on_c, 0, 60, 37
2, 76889, Note_on_c, 0, 63, 33
2, 76899, Note_on_c, 0, 68, 36
2, 76904, Note_off_c, 0, 60, 64
2, 76912, Note_on_c, 0, 61, 32
2, 76921, Note_on_c, 0, 51, 28
2, 76921, Control_c, 0, 64, 0
2, 76933, Note_on_c, 0, 44, 20
2, 76954, Note_off_c, 0, 63, 64
2, 76968, Control_c, 0, 64, 127
2, 76976, Note_off_c, 0, 51, 64
2, 76978, Note_off_c, 0, 44, 64
2, 76986, Note_on_c, 0, 60, 44
2, 76987, Note_off_c, 0, 61, 64
2, 77024, Note_off_c, 0, 68, 64
2, 77045, Note_off_c, 0, 60, 64
2, 77045, Note_on_c, 0, 61, 46
2, 77055, Note_on_c, 0, 68, 35
2, 77060, Note_on_c, 0, 51, 26
2, 77068, Note_on_c, 0, 44, 23
2, 77071, Control_c, 0, 64, 0
2, 77094, Control_c, 0, 64, 127
2, 77105, Note_off_c, 0, 61, 64
2, 77114, Note_off_c, 0, 51, 64
2, 77120, Note_off_c, 0, 44, 64
2, 77120, Note_on_c, 0, 58, 46
2, 77124, Note_off_c, 0, 68, 64
2, 77151, Note_off_c, 0, 58, 64
2, 77206, Note_on_c, 0, 68, 28
2, 77206, Control_c, 0, 64, 0
2, 77220, Note_on_c, 0, 51, 18
2, 77220, Note_on_c, 0, 44, 27
2, 77222, Note_on_c, 0, 60, 41
2, 77241, Control_c, 0, 64, 127
2, 77256, Note_on_c, 0, 61, 36
2, 77265, Note_off_c, 0, 60, 64
2, 77265, Note_off_c, 0, 44, 64
2, 77265, Note_off_c, 0, 51, 64
2, 77302, Note_on_c, 0, 60, 44
2, 77305, Note_off_c, 0, 61, 64
2, 77324, Note_off_c, 0, 68, 64
2, 77349, Note_on_c, 0, 68, 35
2, 77356, Note_on_c, 0, 51, 32
2, 77358, Note_on_c, 0, 58, 46
2, 77359, Note_on_c, 0, 44, 26
2, 77364, Control_c, 0, 64, 0
2, 77370, Note_off_c, 0, 60, 64
2, 77387, Control_c, 0, 64, 127
2, 77395, Note_off_c, 0, 58, 64
2, 77410, Note_off_c, 0, 51, 64
2, 77417, Note_off_c, 0, 44, 64
2, 77417, Note_off_c, 0, 68, 64
2, 77509, Note_on_c, 0, 68, 36
2, 77509, Note_on_c, 0, 60, 37
2, 77513, Note_on_c, 0, 51, 27
2, 77520, Note_on_c, 0, 44, 20
2, 77559, Note_off_c, 0, 44, 64
2, 77562, Note_off_c, 0, 51, 64
2, 77562, Note_off_c, 0, 60, 64
2, 77566, Note_off_c, 0, 68, 64
2, 77575, Note_on_c, 0, 61, 44
2, 77627, Note_off_c, 0, 61, 64
2, 77675, Note_on_c, 0, 63, 41
2, 77682, Note_on_c, 0, 68, 44
2, 77694, Note_on_c, 0, 51, 24
2, 77694, Note_on_c, 0, 44, 27
2, 77710, Note_off_c, 0, 63, 64
2, 77723, Note_off_c, 0, 68, 64
2, 77739, Note_off_c, 0, 51, 64
2, 77739, Note_on_c, 0, 66, 35
2, 77744, Note_off_c, 0, 44, 64
2, 77746, Note_on_c, 0, 68, 40
2, 77779, Note_off_c, 0, 68, 64
2, 77782, Note_off_c, 0, 66, 64
2, 77801, Note_on_c, 0, 64, 41
2, 77811, Note_on_c, 0, 68, 32
2, 77840, Note_off_c, 0, 68, 64
2, 77855, Note_off_c, 0, 64, 64
2, 77877, Note_on_c, 0, 68, 40
2, 77883, Note_on_c, 0, 63, 44
2, 77891, Note_on_c, 0, 51, 27
2, 77893, Note_on_c, 0, 44, 23
2, 77904, Control_c, 0, 64, 0
2, 77956, Control_c, 0, 64, 127
2, 77969, Note_off_c, 0, 63, 64
2, 77987, Note_off_c, 0, 68, 64
2, 78050, Note_off_c, 0, 44, 64
2, 78064, Note_off_c, 0, 51, 64
2, 78151, Note_on_c, 0, 68, 53
2, 78386, Note_on_c, 0, 80, 50
2, 78390, Note_off_c, 0, 68, 64
2, 78394, Note_on_c, 0, 48, 50
2, 78400, Control_c, 0, 64, 0
2, 78456, Control_c, 0, 64, 127
2, 78526, Note_on_c, 0, 81, 46
2, 78561, Note_off_c, 0, 80, 64
2, 78561, Control_c, 0, 64, 0
2, 78567, Note_on_c, 0, 56, 36
2, 78571, Note_on_c, 0, 78, 57
2, 78578, Note_on_c, 0, 66, 40
2, 78582, Note_off_c, 0, 81, 64
2, 78587, Note_on_c, 0, 63, 23
2, 78611, Note_off_c, 0, 56, 64
2, 78617, Note_off_c, 0, 63, 64
2, 78619, Control_c, 0, 64, 127
2, 78626, Note_off_c, 0, 66, 64
2, 78634, Note_off_c, 0, 48, 64
2, 78728, Note_on_c, 0, 56, 44
2, 78732, Note_on_c, 0, 66, 39
2, 78734, Note_on_c, 0, 63, 44
2, 78763, Note_off_c, 0, 63, 64
2, 78763, Note_off_c, 0, 66, 64
2, 78769, Note_off_c, 0, 56, 64
2, 78783, Note_off_c, 0, 78, 64
2, 78803, Note_on_c, 0, 80, 50
2, 78868, Note_on_c, 0, 76, 52
2, 78868, Note_on_c, 0, 49, 50
2, 78878, Control_c, 0, 64, 0
2, 78884, Note_off_c, 0, 80, 64
2, 78922, Control_c, 0, 64, 127
2, 78975, Note_on_c, 0, 80, 49
2, 78982, Note_off_c, 0, 76, 64
2, 79009, Note_on_c, 0, 73, 49
2, 79012, Control_c, 0, 64, 0
2, 79017, Note_on_c, 0, 56, 45
2, 79022, Note_on_c, 0, 64, 36
2, 79027, Note_on_c, 0, 61, 46
2, 79035, Note_off_c, 0, 80, 64
2, 79053, Control_c, 0, 64, 127
2, 79065, Note_off_c, 0, 56, 64
2, 79069, Note_off_c, 0, 61, 64
2, 79078, Note_off_c, 0, 64, 64
2, 79108, Note_off_c, 0, 49, 64
2, 79125, Note_off_c, 0, 73, 64
2, 79154, Note_on_c, 0, 64, 36
2, 79158, Note_on_c, 0, 76, 65
2, 79158, Note_on_c, 0, 61, 49
2, 79163, Note_on_c, 0, 56, 44
2, 79187, Note_off_c, 0, 64, 64
2, 79192, Note_off_c, 0, 61, 64
2, 79193, Note_off_c, 0, 56, 64
2, 79290, Note_off_c, 0, 76, 64
2, 79294, Note_on_c, 0, 80, 54
2, 79298, Control_c, 0, 64, 0
2, 79307, Note_on_c, 0, 48, 50
2, 79341, Control_c, 0, 64, 127
2, 79393, Note_off_c, 0, 80, 64
2, 79398, Note_on_c, 0, 81, 49
2, 79427, Control_c, 0, 64, 0
2, 79436, Note_on_c, 0, 78, 50
2, 79436, Note_on_c, 0, 56, 40
2, 79439, Note_on_c, 0, 63, 36
2, 79443, Note_on_c, 0, 66, 40
2, 79447, Note_off_c, 0, 81, 64
2, 79475, Note_off_c, 0, 63, 64
2, 79478, Note_off_c, 0, 56, 64
2, 79482, Control_c, 0, 64, 127
2, 79497, Note_off_c, 0, 66, 64
2, 79547, Note_off_c, 0, 48, 64
2, 79578, Note_on_c, 0, 66, 36
2, 79579, Note_on_c, 0, 56, 40
2, 79582, Note_off_c, 0, 78, 64
2, 79583, Note_on_c, 0, 80, 55
2, 79588, Note_on_c, 0, 63, 23
2, 79605, Note_off_c, 0, 63, 64
2, 79616, Note_off_c, 0, 66, 64
2, 79621, Note_off_c, 0, 56, 64
2, 79713, Note_on_c, 0, 76, 50
2, 79714, Control_c, 0, 64, 0
2, 79722, Note_off_c, 0, 80, 64
2, 79724, Note_on_c, 0, 49, 44
2, 79771, Control_c, 0, 64, 127
2, 79782, Note_on_c, 0, 78, 41
2, 79791, Note_off_c, 0, 76, 64
2, 79814, Note_on_c, 0, 80, 59
2, 79831, Note_off_c, 0, 78, 64
2, 79850, Note_off_c, 0, 80, 64
2, 79873, Note_on_c, 0, 80, 58
2, 79893, Note_on_c, 0, 61, 46
2, 79906, Note_on_c, 0, 56, 24
2, 79911, Note_on_c, 0, 73, 55
2, 79915, Note_on_c, 0, 64, 22
2, 79918, Control_c, 0, 64, 0
2, 79932, Note_off_c, 0, 80, 64
2, 79964, Note_off_c, 0, 49, 64
2, 79974, Control_c, 0, 64, 127
2, 79994, Note_off_c, 0, 61, 64
2, 79997, Note_off_c, 0, 64, 64
2, 80008, Note_off_c, 0, 56, 64
2, 80123, Note_off_c, 0, 73, 64
2, 80161, Note_on_c, 0, 74, 55
2, 80260, Note_on_c, 0, 75, 66
2, 80262, Note_on_c, 0, 43, 42
2, 80266, Note_off_c, 0, 74, 64
2, 80269, Control_c, 0, 64, 0
2, 80322, Control_c, 0, 64, 127
2, 80368, Note_on_c, 0, 76, 59
2, 80381, Note_off_c, 0, 75, 64
2, 80389, Control_c, 0, 64, 0
2, 80410, Note_on_c, 0, 58, 39
2, 80412, Note_on_c, 0, 73, 72
2, 80412, Note_on_c, 0, 61, 39
2, 80416, Note_on_c, 0, 51, 20
2, 80432, Note_off_c, 0, 76, 64
2, 80447, Note_off_c, 0, 61, 64
2, 80458, Note_off_c, 0, 51, 64
2, 80459, Note_off_c, 0, 58, 64
2, 80469, Control_c, 0, 64, 127
2, 80495, Control_c, 0, 64, 127
2, 80502, Note_off_c, 0, 43, 64
2, 80514, Control_c, 0, 64, 0
2, 80542, Note_on_c, 0, 61, 58
2, 80548, Note_on_c, 0, 51, 57
2, 80550, Note_on_c, 0, 58, 41
2, 80578, Note_off_c, 0, 58, 64
2, 80588, Note_off_c, 0, 61, 64
2, 80594, Note_off_c, 0, 51, 64
2, 80614, Note_on_c, 0, 75, 61
2, 80622, Note_off_c, 0, 73, 64
2, 80671, Note_on_c, 0, 72, 63
2, 80689, Control_c, 0, 64, 0
2, 80691, Note_on_c, 0, 44, 61
2, 80694, Note_off_c, 0, 75, 64
2, 80732, Control_c, 0, 64, 127
2, 80782, Note_off_c, 0, 72, 64
2, 80782, Note_on_c, 0, 75, 46
2, 80813, Control_c, 0, 64, 0
2, 80822, Note_on_c, 0, 68, 59
2, 80833, Note_off_c, 0, 75, 64
2, 80833, Note_on_c, 0, 54, 50
2, 80838, Note_on_c, 0, 60, 52
2, 80838, Note_on_c, 0, 51, 46
2, 80855, Control_c, 0, 64, 127
2, 80871, Note_off_c, 0, 51, 64
2, 80876, Note_off_c, 0, 54, 64
2, 80879, Note_off_c, 0, 60, 64
2, 80913, Note_off_c, 0, 68, 64
2, 80931, Note_off_c, 0, 44, 64
2, 80966, Note_on_c, 0, 71, 59
2, 80984, Note_on_c, 0, 60, 61
2, 80988, Note_on_c, 0, 54, 48
2, 80988, Note_on_c, 0, 51, 59
2, 81002, Note_on_c, 0, 69, 48
2, 81003, Note_off_c, 0, 71, 64
2, 81028, Note_off_c, 0, 51, 64
2, 81030, Note_on_c, 0, 71, 71
2, 81033, Note_off_c, 0, 54, 64
2, 81036, Note_off_c, 0, 60, 64
2, 81038, Note_off_c, 0, 69, 64
2, 81061, Note_on_c, 0, 69, 63
2, 81063, Note_off_c, 0, 71, 64
2, 81092, Note_on_c, 0, 71, 68
2, 81100, Note_off_c, 0, 69, 64
2, 81116, Note_on_c, 0, 69, 62
2, 81125, Note_off_c, 0, 71, 64
2, 81143, Note_on_c, 0, 68, 76
2, 81148, Control_c, 0, 64, 0
2, 81156, Note_off_c, 0, 69, 64
2, 81156, Note_on_c, 0, 44, 48
2, 81177, Note_off_c, 0, 68, 64
2, 81207, Control_c, 0, 64, 127
2, 81263, Note_on_c, 0, 66, 49
2, 81283, Control_c, 0, 64, 0
2, 81303, Note_on_c, 0, 54, 49
2, 81304, Note_on_c, 0, 60, 57
2, 81304, Note_on_c, 0, 51, 54
2, 81307, Note_on_c, 0, 63, 80
2, 81313, Note_off_c, 0, 66, 64
2, 81348, Note_off_c, 0, 51, 64
2, 81349, Note_off_c, 0, 54, 64
2, 81350, Control_c, 0, 64, 127
2, 81359, Note_off_c, 0, 60, 64
2, 81396, Note_off_c, 0, 44, 64
2, 81457, Note_on_c, 0, 68, 70
2, 81460, Note_on_c, 0, 54, 37
2, 81463, Note_on_c, 0, 60, 42
2, 81464, Note_on_c, 0, 51, 49
2, 81476, Note_off_c, 0, 63, 64
2, 81500, Note_off_c, 0, 68, 64
2, 81505, Note_off_c, 0, 60, 64
2, 81508, Note_off_c, 0, 51, 64
2, 81508, Note_off_c, 0, 54, 64
2, 81609, Note_on_c, 0, 68, 54
2, 81629, Note_on_c, 0, 37, 57
2, 81637, Control_c, 0, 64, 0
2, 81644, Note_on_c, 0, 61, 66
2, 81657, Note_off_c, 0, 68, 64
2, 81686, Control_c, 0, 64, 127
2, 81808, Note_on_c, 0, 49, 57
2, 81848, Note_on_c, 0, 56, 46
2, 81869, Note_off_c, 0, 37, 64
2, 81873, Note_off_c, 0, 61, 64
2, 81879, Note_on_c, 0, 64, 65
2, 82048, Note_off_c, 0, 49, 64
2, 82077, Note_on_c, 0, 68, 57
2, 82089, Note_off_c, 0, 64, 64
2, 82103, Note_off_c, 0, 56, 64
2, 82257, Note_on_c, 0, 80, 58
2, 82257, Note_on_c, 0, 48, 61
2, 82263, Control_c, 0, 64, 0
2, 82325, Control_c, 0, 64, 127
2, 82360, Note_on_c, 0, 81, 58
2, 82369, Note_off_c, 0, 68, 64
2, 82371, Note_off_c, 0, 80, 64
2, 82375, Control_c, 0, 64, 0
2, 82408, Note_on_c, 0, 78, 65
2, 82408, Note_on_c, 0, 56, 58
2, 82412, Note_on_c, 0, 66, 29
2, 82412, Note_on_c, 0, 63, 44
2, 82422, Note_off_c, 0, 81, 64
2, 82438, Control_c, 0, 64, 127
2, 82450, Note_off_c, 0, 63, 64
2, 82458, Note_off_c, 0, 66, 64
2, 82463, Note_off_c, 0, 56, 64
2, 82497, Note_off_c, 0, 48, 64
2, 82548, Note_on_c, 0, 56, 36
2, 82548, Note_on_c, 0, 63, 61
2, 82548, Note_on_c, 0, 66, 66
2, 82583, Note_off_c, 0, 63, 64
2, 82587, Note_off_c, 0, 66, 64
2, 82592, Note_off_c, 0, 56, 64
2, 82625, Note_on_c, 0, 80, 52
2, 82636, Note_off_c, 0, 78, 64
2, 82681, Note_on_c, 0, 76, 59
2, 82681, Note_on_c, 0, 49, 63
2, 82689, Control_c, 0, 64, 0
2, 82697, Note_off_c, 0, 80, 64
2, 82754, Control_c, 0, 64, 127
2, 82787, Note_on_c, 0, 80, 54
2, 82799, Note_off_c, 0, 76, 64
2, 82799, Control_c, 0, 64, 0
2, 82820, Note_on_c, 0, 64, 55
2, 82822, Note_on_c, 0, 73, 70
2, 82825, Note_on_c, 0, 61, 48
2, 82825, Note_on_c, 0, 56, 36
2, 82847, Note_off_c, 0, 80, 64
2, 82860, Note_off_c, 0, 64, 64
2, 82860, Control_c, 0, 64, 127
2, 82868, Note_off_c, 0, 56, 64
2, 82881, Note_off_c, 0, 61, 64
2, 82921, Note_off_c, 0, 49, 64
2, 82960, Note_on_c, 0, 76, 61
2, 82960, Note_on_c, 0, 61, 58
2, 82966, Note_off_c, 0, 73, 64
2, 82966, Note_on_c, 0, 64, 58
2, 82966, Note_on_c, 0, 56, 48
2, 82995, Note_off_c, 0, 56, 64
2, 82998, Note_off_c, 0, 64, 64
2, 82998, Note_off_c, 0, 61, 64
2, 83099, Note_on_c, 0, 80, 65
2, 83107, Note_off_c, 0, 76, 64
2, 83113, Control_c, 0, 64, 0
2, 83119, Note_on_c, 0, 48, 53
2, 83162, Control_c, 0, 64, 127
2, 83193, Note_off_c, 0, 80, 64
2, 83193, Note_on_c, 0, 81, 63
2, 83240, Control_c, 0, 64, 0
2, 83252, Note_on_c, 0, 63, 42
2, 83255, Note_off_c, 0, 81, 64
2, 83260, Note_on_c, 0, 66, 55
2, 83261, Note_on_c, 0, 56, 53
2, 83270, Note_on_c, 0, 78, 71
2, 83294, Note_off_c, 0, 63, 64
2, 83306, Note_off_c, 0, 56, 64
2, 83309, Note_off_c, 0, 66, 64
2, 83313, Control_c, 0, 64, 127
2, 83359, Note_off_c, 0, 48, 64
2, 83397, Note_off_c, 0, 78, 64
2, 83421, Note_on_c, 0, 80, 57
2, 83431, Note_on_c, 0, 66, 58
2, 83431, Note_on_c, 0, 63, 57
2, 83431, Note_on_c, 0, 56, 50
2, 83461, Note_off_c, 0, 66, 64
2, 83467, Note_off_c, 0, 63, 64
2, 83471, Note_off_c, 0, 56, 64
2, 83523, Note_off_c, 0, 80, 64
2, 83594, Note_on_c, 0, 49, 53
2, 83595, Note_on_c, 0, 76, 58
2, 83605, Control_c, 0, 64, 0
2, 83640, Control_c, 0, 64, 127
2, 83661, Note_on_c, 0, 78, 66
2, 83683, Note_off_c, 0, 76, 64
2, 83713, Note_on_c, 0, 80, 66
2, 83732, Note_off_c, 0, 78, 64
2, 83735, Note_off_c, 0, 80, 64
2, 83749, Control_c, 0, 64, 0
2, 83756, Note_on_c, 0, 80, 76
2, 83792, Note_on_c, 0, 73, 70
2, 83792, Note_on_c, 0, 64, 55
2, 83796, Note_on_c, 0, 61, 55
2, 83796, Note_on_c, 0, 56, 27
2, 83801, Note_off_c, 0, 80, 64
2, 83827, Control_c, 0, 64, 127
2, 83834, Note_off_c, 0, 49, 64
2, 83876, Note_off_c, 0, 64, 64
2, 83884, Note_off_c, 0, 56, 64
2, 83897, Note_off_c, 0, 61, 64
2, 84049, Note_on_c, 0, 74, 65
2, 84053, Note_off_c, 0, 73, 64
2, 84131, Note_on_c, 0, 43, 52
2, 84138, Note_on_c, 0, 75, 61
2, 84168, Note_off_c, 0, 74, 64
2, 84245, Note_off_c, 0, 75, 64
2, 84245, Note_on_c, 0, 76, 55
2, 84262, Control_c, 0, 64, 0
2, 84275, Note_on_c, 0, 61, 57
2, 84281, Note_on_c, 0, 51, 29
2, 84285, Note_on_c, 0, 73, 74
2, 84285, Note_on_c, 0, 58, 57
2, 84308, Note_off_c, 0, 76, 64
2, 84334, Note_off_c, 0, 58, 64
2, 84334, Note_off_c, 0, 61, 64
2, 84335, Note_off_c, 0, 51, 64
2, 84371, Note_off_c, 0, 43, 64
2, 84417, Note_on_c, 0, 61, 59
2, 84425, Note_on_c, 0, 51, 52
2, 84428, Note_on_c, 0, 58, 29
2, 84457, Note_off_c, 0, 58, 64
2, 84458, Control_c, 0, 64, 127
2, 84464, Note_off_c, 0, 61, 64
2, 84474, Note_off_c, 0, 51, 64
2, 84492, Note_on_c, 0, 75, 63
2, 84507, Note_off_c, 0, 73, 64
2, 84518, Control_c, 0, 64, 0
2, 84553, Note_on_c, 0, 72, 62
2, 84561, Note_on_c, 0, 44, 66
2, 84572, Note_off_c, 0, 75, 64
2, 84598, Control_c, 0, 64, 127
2, 84654, Note_on_c, 0, 75, 62
2, 84661, Note_off_c, 0, 72, 64
2, 84675, Control_c, 0, 64, 0
2, 84698, Control_c, 0, 64, 127
2, 84705, Note_on_c, 0, 68, 55
2, 84705, Note_on_c, 0, 51, 49
2, 84710, Note_on_c, 0, 60, 37
2, 84715, Note_off_c, 0, 75, 64
2, 84746, Note_off_c, 0, 51, 64
2, 84752, Note_off_c, 0, 60, 64
2, 84775, Note_off_c, 0, 68, 64
2, 84801, Note_off_c, 0, 44, 64
2, 84841, Note_on_c, 0, 71, 66
2, 84852, Note_on_c, 0, 54, 54
2, 84858, Note_on_c, 0, 60, 50
2, 84858, Note_on_c, 0, 51, 50
2, 84880, Note_on_c, 0, 69, 55
2, 84883, Note_off_c, 0, 71, 64
2, 84897, Note_off_c, 0, 51, 64
2, 84902, Note_off_c, 0, 60, 64
2, 84906, Note_off_c, 0, 54, 64
2, 84910, Note_on_c, 0, 71, 70
2, 84918, Note_off_c, 0, 69, 64
2, 84939, Note_off_c, 0, 71, 64
2, 84941, Note_on_c, 0, 69, 63
2, 84968, Note_on_c, 0, 71, 61
2, 84995, Note_off_c, 0, 71, 64
2, 85015, Note_on_c, 0, 68, 87
2, 85023, Note_off_c, 0, 69, 64
2, 85027, Note_on_c, 0, 44, 61
2, 85027, Control_c, 0, 64, 0
2, 85051, Note_off_c, 0, 68, 64
2, 85071, Control_c, 0, 64, 127
2, 85132, Note_on_c, 0, 66, 63
2, 85150, Control_c, 0, 64, 0
2, 85153, Note_off_c, 0, 66, 64
2, 85166, Note_on_c, 0, 54, 57
2, 85168, Note_on_c, 0, 51, 62
2, 85175, Note_on_c, 0, 60, 52
2, 85182, Note_on_c, 0, 63, 68
2, 85213, Control_c, 0, 64, 127
2, 85218, Note_off_c, 0, 51, 64
2, 85221, Note_off_c, 0, 54, 64
2, 85230, Note_off_c, 0, 60, 64
2, 85267, Note_off_c, 0, 44, 64
2, 85325, Note_on_c, 0, 60, 53
2, 85333, Note_on_c, 0, 68, 75
2, 85339, Note_on_c, 0, 51, 39
2, 85341, Note_on_c, 0, 54, 39
2, 85359, Note_off_c, 0, 60, 64
2, 85363, Note_off_c, 0, 51, 64
2, 85364, Note_off_c, 0, 54, 64
2, 85364, Note_off_c, 0, 63, 64
2, 85381, Note_off_c, 0, 68, 64
2, 85470, Note_on_c, 0, 68, 50
2, 85497, Note_on_c, 0, 61, 72
2, 85503, Control_c, 0, 64, 0
2, 85511, Note_on_c, 0, 37, 61
2, 85517, Note_off_c, 0, 68, 64
2, 85554, Control_c, 0, 64, 127
2, 85667, Note_on_c, 0, 49, 48
2, 85726, Note_on_c, 0, 64, 59
2, 85728, Note_on_c, 0, 56, 65
2, 85748, Note_off_c, 0, 49, 64
2, 85751, Note_off_c, 0, 37, 64
2, 85808, Note_off_c, 0, 61, 64
2, 85826, Note_off_c, 0, 64, 64
2, 85842, Note_off_c, 0, 56, 64
2, 85875, Note_on_c, 0, 62, 50
2, 86012, Control_c, 0, 64, 0
2, 86023, Note_on_c, 0, 63, 53
2, 86029, Note_on_c, 0, 44, 53
2, 86036, Note_off_c, 0, 62, 64
2, 86065, Control_c, 0, 64, 127
2, 86150, Note_on_c, 0, 67, 46
2, 86164, Control_c, 0, 64, 0
2, 86180, Note_off_c, 0, 63, 64
2, 86192, Note_on_c, 0, 51, 35
2, 86196, Note_on_c, 0, 60, 37
2, 86197, Note_off_c, 0, 67, 64
2, 86200, Note_on_c, 0, 56, 36
2, 86204, Note_on_c, 0, 68, 46
2, 86217, Note_off_c, 0, 56, 64
2, 86217, Control_c, 0, 64, 127
2, 86220, Control_c, 0, 64, 0
2, 86254, Note_off_c, 0, 51, 64
2, 86258, Note_off_c, 0, 60, 64
2, 86261, Control_c, 0, 64, 127
2, 86269, Note_off_c, 0, 44, 64
2, 86317, Note_off_c, 0, 68, 64
2, 86324, Note_on_c, 0, 72, 50
2, 86328, Note_on_c, 0, 60, 31
2, 86328, Note_on_c, 0, 51, 35
2, 86335, Note_on_c, 0, 56, 36
2, 86364, Note_off_c, 0, 60, 64
2, 86369, Note_off_c, 0, 56, 64
2, 86370, Note_off_c, 0, 51, 64
2, 86402, Note_off_c, 0, 72, 64
2, 86408, Note_on_c, 0, 75, 55
2, 86461, Note_off_c, 0, 75, 64
2, 86467, Control_c, 0, 64, 0
2, 86478, Note_on_c, 0, 63, 55
2, 86478, Note_on_c, 0, 44, 57
2, 86498, Control_c, 0, 64, 127
2, 86513, Note_off_c, 0, 63, 64
2, 86580, Note_on_c, 0, 67, 54
2, 86613, Note_on_c, 0, 68, 52
2, 86619, Note_on_c, 0, 56, 33
2, 86619, Note_on_c, 0, 51, 37
2, 86624, Note_on_c, 0, 60, 24
2, 86647, Note_off_c, 0, 67, 64
2, 86663, Note_off_c, 0, 51, 64
2, 86664, Note_off_c, 0, 60, 64
2, 86672, Note_off_c, 0, 56, 64
2, 86705, Note_off_c, 0, 68, 64
2, 86705, Note_on_c, 0, 72, 49
2, 86718, Note_off_c, 0, 44, 64
2, 86752, Note_on_c, 0, 60, 31
2, 86756, Note_on_c, 0, 56, 40
2, 86763, Note_on_c, 0, 75, 55
2, 86765, Note_on_c, 0, 51, 27
2, 86780, Note_off_c, 0, 72, 64
2, 86795, Note_off_c, 0, 60, 64
2, 86796, Note_off_c, 0, 51, 64
2, 86814, Note_off_c, 0, 56, 64
2, 86853, Note_off_c, 0, 75, 64
2, 86891, Control_c, 0, 64, 0
2, 86899, Note_on_c, 0, 74, 48
2, 86899, Note_on_c, 0, 58, 46
2, 86899, Note_on_c, 0, 56, 46
2, 86900, Note_on_c, 0, 53, 44
2, 86942, Control_c, 0, 64, 127
2, 86959, Note_off_c, 0, 56, 64
2, 86981, Note_off_c, 0, 74, 64
2, 86990, Note_off_c, 0, 53, 64
2, 87000, Note_on_c, 0, 70, 46
2, 87021, Control_c, 0, 64, 0
2, 87035, Note_on_c, 0, 73, 46
2, 87035, Note_on_c, 0, 51, 44
2, 87043, Note_on_c, 0, 55, 44
2, 87076, Note_off_c, 0, 70, 64
2, 87083, Control_c, 0, 64, 127
2, 87097, Note_off_c, 0, 51, 64
2, 87100, Note_off_c, 0, 55, 64
2, 87162, Note_off_c, 0, 73, 64
2, 87179, Note_on_c, 0, 72, 50
2, 87181, Control_c, 0, 64, 0
2, 87187, Note_on_c, 0, 56, 50
2, 87191, Note_on_c, 0, 44, 55
2, 87194, Note_off_c, 0, 58, 64
2, 87218, Control_c, 0, 64, 127
2, 87225, Note_off_c, 0, 44, 64
2, 87237, Note_off_c, 0, 56, 64
2, 87250, Note_on_c, 0, 68, 62
2, 87253, Note_off_c, 0, 72, 64
2, 87306, Note_off_c, 0, 68, 64
2, 87322, Control_c, 0, 64, 0
2, 87332, Note_on_c, 0, 56, 44
2, 87332, Note_on_c, 0, 74, 49
2, 87341, Note_on_c, 0, 58, 40
2, 87348, Note_on_c, 0, 53, 31
2, 87368, Control_c, 0, 64, 127
2, 87392, Note_on_c, 0, 70, 58
2, 87394, Note_off_c, 0, 74, 64
2, 87396, Note_off_c, 0, 56, 64
2, 87420, Note_on_c, 0, 72, 50
2, 87451, Note_off_c, 0, 70, 64
2, 87451, Note_on_c, 0, 55, 45
2, 87462, Note_on_c, 0, 73, 59
2, 87466, Control_c, 0, 64, 0
2, 87470, Note_off_c, 0, 53, 64
2, 87481, Note_off_c, 0, 72, 64
2, 87484, Note_on_c, 0, 51, 42
2, 87522, Control_c, 0, 64, 127
2, 87552, Note_off_c, 0, 51, 64
2, 87552, Note_off_c, 0, 55, 64
2, 87619, Control_c, 0, 64, 0
2, 87626, Note_on_c, 0, 72, 49
2, 87630, Note_on_c, 0, 56, 36
2, 87636, Note_off_c, 0, 58, 64
2, 87638, Note_on_c, 0, 44, 58
2, 87647, Note_off_c, 0, 73, 64
2, 87651, Control_c, 0, 64, 127
2, 87669, Note_off_c, 0, 56, 64
2, 87680, Note_off_c, 0, 44, 64
2, 87685, Note_off_c, 0, 72, 64
2, 87711, Note_on_c, 0, 68, 55
2, 87736, Note_off_c, 0, 68, 64
2, 87776, Note_on_c, 0, 32, 53
2, 87776, Control_c, 0, 64, 0
2, 87783, Note_on_c, 0, 44, 24
2, 87791, Note_on_c, 0, 63, 68
2, 87808, Control_c, 0, 64, 0
2, 87824, Control_c, 0, 64, 127
2, 87849, Control_c, 0, 64, 127
2, 87904, Note_on_c, 0, 67, 54
2, 87920, Note_on_c, 0, 51, 36
2, 87923, Control_c, 0, 64, 0
2, 87931, Note_on_c, 0, 60, 40
2, 87931, Note_on_c, 0, 56, 22
2, 87938, Note_off_c, 0, 63, 64
2, 87938, Note_on_c, 0, 68, 55
2, 87963, Note_off_c, 0, 67, 64
2, 87966, Control_c, 0, 64, 127
2, 87973, Note_off_c, 0, 51, 64
2, 87976, Note_off_c, 0, 60, 64
2, 87979, Note_off_c, 0, 56, 64
2, 88016, Note_off_c, 0, 32, 64
2, 88023, Note_off_c, 0, 44, 64
2, 88052, Control_c, 0, 64, 0
2, 88064, Note_off_c, 0, 68, 64
2, 88071, Note_on_c, 0, 72, 50
2, 88071, Note_on_c, 0, 60, 42
2, 88078, Note_on_c, 0, 56, 28
2, 88081, Note_on_c, 0, 51, 35
2, 88096, Control_c, 0, 64, 127
2, 88111, Note_off_c, 0, 56, 64
2, 88113, Note_off_c, 0, 60, 64
2, 88117, Note_off_c, 0, 51, 64
2, 88138, Note_on_c, 0, 75, 58
2, 88141, Note_off_c, 0, 72, 64
2, 88194, Control_c, 0, 64, 0
2, 88209, Note_on_c, 0, 44, 58
2, 88213, Note_on_c, 0, 63, 61
2, 88235, Control_c, 0, 64, 127
2, 88244, Note_off_c, 0, 75, 64
2, 88245, Note_off_c, 0, 63, 64
2, 88301, Note_on_c, 0, 67, 58
2, 88336, Control_c, 0, 64, 0
2, 88343, Note_on_c, 0, 68, 55
2, 88346, Note_on_c, 0, 51, 40
2, 88350, Note_on_c, 0, 60, 37
2, 88350, Note_on_c, 0, 56, 36
2, 88372, Note_off_c, 0, 67, 64
2, 88380, Control_c, 0, 64, 127
2, 88395, Note_off_c, 0, 51, 64
2, 88400, Note_off_c, 0, 56, 64
2, 88402, Note_off_c, 0, 60, 64
2, 88422, Note_on_c, 0, 72, 53
2, 88434, Note_off_c, 0, 68, 64
2, 88449, Note_off_c, 0, 44, 64
2, 88460, Control_c, 0, 64, 0
2, 88484, Note_on_c, 0, 56, 40
2, 88487, Note_on_c, 0, 51, 31
2, 88491, Note_on_c, 0, 75, 66
2, 88493, Note_on_c, 0, 60, 28
2, 88503, Control_c, 0, 64, 127
2, 88508, Note_off_c, 0, 72, 64
2, 88534, Note_off_c, 0, 60, 64
2, 88542, Note_off_c, 0, 51, 64
2, 88542, Note_off_c, 0, 56, 64
2, 88598, Note_off_c, 0, 75, 64
2, 88611, Control_c, 0, 64, 0
2, 88631, Note_on_c, 0, 74, 50
2, 88631, Note_on_c, 0, 56, 49
2, 88635, Note_on_c, 0, 58, 58
2, 88644, Note_on_c, 0, 53, 31
2, 88668, Control_c, 0, 64, 127
2, 88698, Note_off_c, 0, 56, 64
2, 88712, Note_on_c, 0, 70, 67
2, 88724, Note_off_c, 0, 74, 64
2, 88734, Note_off_c, 0, 53, 64
2, 88760, Control_c, 0, 64, 0
2, 88768, Note_on_c, 0, 73, 50
2, 88769, Note_on_c, 0, 55, 49
2, 88772, Note_on_c, 0, 51, 45
2, 88787, Note_off_c, 0, 70, 64
2, 88804, Control_c, 0, 64, 127
2, 88837, Note_off_c, 0, 55, 64
2, 88840, Note_off_c, 0, 51, 64
2, 88874, Note_off_c, 0, 73, 64
2, 88902, Control_c, 0, 64, 0
2, 88918, Note_on_c, 0, 72, 50
2, 88918, Note_on_c, 0, 56, 53
2, 88922, Note_on_c, 0, 44, 55
2, 88930, Note_off_c, 0, 58, 64
2, 88972, Control_c, 0, 64, 127
2, 89000, Note_on_c, 0, 68, 53
2, 89001, Note_off_c, 0, 44, 64
2, 89004, Note_off_c, 0, 56, 64
2, 89023, Note_off_c, 0, 72, 64
2, 89042, Control_c, 0, 64, 0
2, 89060, Note_on_c, 0, 80, 65
2, 89069, Note_off_c, 0, 68, 64
2, 89097, Control_c, 0, 64, 127
2, 89184, Note_off_c, 0, 80, 64
2, 89184, Note_on_c, 0, 68, 66
2, 89197, Control_c, 0, 64, 0
2, 89230, Note_on_c, 0, 80, 59
2, 89256, Note_off_c, 0, 68, 64
2, 89264, Control_c, 0, 64, 127
2, 89372, Note_off_c, 0, 80, 64
2, 89381, Note_on_c, 0, 68, 58
2, 89431, Note_on_c, 0, 80, 62
2, 89462, Note_off_c, 0, 68, 64
2, 89613, Note_off_c, 0, 80, 64
2, 89616, Note_on_c, 0, 68, 48
2, 89714, Note_on_c, 0, 48, 50
2, 89720, Control_c, 0, 64, 0
2, 89725, Note_on_c, 0, 80, 49
2, 89743, Note_off_c, 0, 68, 64
2, 89768, Control_c, 0, 64, 127
2, 89888, Note_off_c, 0, 80, 64
2, 89889, Note_on_c, 0, 81, 44
2, 89918, Note_on_c, 0, 56, 32
2, 89923, Control_c, 0, 64, 0
2, 89927, Note_on_c, 0, 66, 36
2, 89937, Note_on_c, 0, 78, 59
2, 89937, Note_on_c, 0, 63, 24
2, 89949, Note_off_c, 0, 81, 64
2, 89954, Note_off_c, 0, 48, 64
2, 89966, Control_c, 0, 64, 127
2, 89974, Note_off_c, 0, 63, 64
2, 89977, Note_off_c, 0, 56, 64
2, 89984, Note_off_c, 0, 66, 64
2, 90074, Note_on_c, 0, 66, 44
2, 90074, Note_on_c, 0, 56, 46
2, 90078, Note_on_c, 0, 63, 44
2, 90104, Note_off_c, 0, 63, 64
2, 90105, Note_off_c, 0, 66, 64
2, 90111, Note_off_c, 0, 56, 64
2, 90128, Note_off_c, 0, 78, 64
2, 90128, Note_on_c, 0, 80, 44
2, 90188, Control_c, 0, 64, 0
2, 90195, Note_on_c, 0, 76, 54
2, 90196, Note_on_c, 0, 49, 58
2, 90211, Note_off_c, 0, 80, 64
2, 90236, Control_c, 0, 64, 127
2, 90284, Note_on_c, 0, 80, 55
2, 90305, Control_c, 0, 64, 0
2, 90309, Note_off_c, 0, 76, 64
2, 90317, Note_on_c, 0, 64, 36
2, 90324, Note_on_c, 0, 56, 29
2, 90329, Note_on_c, 0, 61, 40
2, 90331, Note_on_c, 0, 73, 62
2, 90336, Note_off_c, 0, 80, 64
2, 90369, Note_off_c, 0, 56, 64
2, 90380, Control_c, 0, 64, 127
2, 90385, Note_off_c, 0, 61, 64
2, 90386, Note_off_c, 0, 64, 64
2, 90436, Note_off_c, 0, 49, 64
2, 90437, Control_c, 0, 64, 0
2, 90455, Note_on_c, 0, 76, 54
2, 90461, Note_on_c, 0, 64, 53
2, 90465, Note_on_c, 0, 61, 49
2, 90467, Note_off_c, 0, 73, 64
2, 90470, Note_on_c, 0, 56, 31
2, 90490, Note_off_c, 0, 56, 64
2, 90490, Note_off_c, 0, 61, 64
2, 90493, Control_c, 0, 64, 127
2, 90502, Note_off_c, 0, 64, 64
2, 90589, Control_c, 0, 64, 0
2, 90595, Note_off_c, 0, 76, 64
2, 90595, Note_on_c, 0, 80, 54
2, 90600, Note_on_c, 0, 48, 40
2, 90640, Control_c, 0, 64, 127
2, 90689, Note_off_c, 0, 80, 64
2, 90694, Note_on_c, 0, 81, 53
2, 90716, Control_c, 0, 64, 0
2, 90736, Note_on_c, 0, 56, 46
2, 90738, Note_on_c, 0, 78, 55
2, 90738, Note_on_c, 0, 66, 58
2, 90740, Note_on_c, 0, 63, 50
2, 90754, Note_off_c, 0, 81, 64
2, 90768, Control_c, 0, 64, 127
2, 90774, Note_off_c, 0, 56, 64
2, 90775, Note_off_c, 0, 63, 64
2, 90777, Note_off_c, 0, 66, 64
2, 90785, Control_c, 0, 64, 127
2, 90830, Control_c, 0, 64, 0
2, 90840, Note_off_c, 0, 48, 64
2, 90856, Note_off_c, 0, 78, 64
2, 90868, Note_on_c, 0, 80, 50
2, 90872, Note_on_c, 0, 66, 45
2, 90872, Note_on_c, 0, 63, 46
2, 90877, Note_on_c, 0, 56, 42
2, 90904, Note_off_c, 0, 66, 64
2, 90912, Note_off_c, 0, 63, 64
2, 90915, Note_off_c, 0, 56, 64
2, 90976, Note_off_c, 0, 80, 64
2, 91005, Note_on_c, 0, 76, 49
2, 91011, Control_c, 0, 64, 0
2, 91017, Note_on_c, 0, 49, 50
2, 91059, Control_c, 0, 64, 127
2, 91073, Note_on_c, 0, 78, 46
2, 91088, Note_off_c, 0, 76, 64
2, 91120, Note_on_c, 0, 80, 48
2, 91134, Note_off_c, 0, 78, 64
2, 91147, Note_off_c, 0, 80, 64
2, 91168, Note_on_c, 0, 80, 48
2, 91171, Control_c, 0, 64, 0
2, 91190, Note_on_c, 0, 56, 33
2, 91205, Note_on_c, 0, 73, 58
2, 91205, Note_on_c, 0, 64, 24
2, 91210, Note_on_c, 0, 61, 29
2, 91235, Control_c, 0, 64, 127
2, 91237, Note_off_c, 0, 80, 64
2, 91247, Note_off_c, 0, 64, 64
2, 91249, Note_off_c, 0, 61, 64
2, 91253, Note_off_c, 0, 56, 64
2, 91257, Note_off_c, 0, 49, 64
2, 91527, Note_on_c, 0, 74, 61
2, 91547, Note_off_c, 0, 73, 64
2, 91635, Note_on_c, 0, 75, 62
2, 91646, Note_off_c, 0, 74, 64
2, 91653, Note_on_c, 0, 43, 63
2, 91655, Control_c, 0, 64, 0
2, 91710, Control_c, 0, 64, 127
2, 91720, Note_on_c, 0, 76, 72
2, 91741, Note_off_c, 0, 75, 64
2, 91777, Control_c, 0, 64, 0
2, 91796, Note_on_c, 0, 73, 84
2, 91800, Note_on_c, 0, 61, 52
2, 91802, Note_on_c, 0, 51, 48
2, 91816, Note_off_c, 0, 76, 64
2, 91838, Control_c, 0, 64, 127
2, 91843, Note_off_c, 0, 61, 64
2, 91844, Note_off_c, 0, 51, 64
2, 91862, Note_off_c, 0, 73, 64
2, 91928, Note_on_c, 0, 75, 70
2, 91928, Note_on_c, 0, 51, 70
2, 91932, Note_on_c, 0, 61, 53
2, 91967, Note_off_c, 0, 51, 64
2, 91971, Note_off_c, 0, 61, 64
2, 91994, Note_off_c, 0, 75, 64
2, 92070, Control_c, 0, 64, 0
2, 92076, Note_on_c, 0, 72, 66
2, 92080, Note_on_c, 0, 44, 66
2, 92092, Note_off_c, 0, 43, 64
2, 92110, Control_c, 0, 64, 127
2, 92169, Note_on_c, 0, 75, 57
2, 92182, Note_off_c, 0, 72, 64
2, 92198, Control_c, 0, 64, 0
2, 92216, Note_on_c, 0, 51, 37
2, 92222, Note_on_c, 0, 68, 80
2, 92222, Note_on_c, 0, 54, 35
2, 92224, Note_on_c, 0, 60, 52
2, 92233, Note_off_c, 0, 75, 64
2, 92234, Control_c, 0, 64, 127
2, 92260, Note_off_c, 0, 51, 64
2, 92267, Note_off_c, 0, 60, 64
2, 92274, Note_off_c, 0, 54, 64
2, 92319, Note_off_c, 0, 68, 64
2, 92320, Note_off_c, 0, 44, 64
2, 92334, Note_on_c, 0, 71, 59
2, 92370, Note_on_c, 0, 69, 48
2, 92371, Note_off_c, 0, 71, 64
2, 92398, Note_on_c, 0, 71, 71
2, 92406, Note_off_c, 0, 69, 64
2, 92429, Note_on_c, 0, 69, 63
2, 92431, Note_off_c, 0, 71, 64
2, 92460, Note_on_c, 0, 71, 68
2, 92468, Note_off_c, 0, 69, 64
2, 92484, Note_on_c, 0, 69, 62
2, 92493, Note_off_c, 0, 71, 64
2, 92503, Note_on_c, 0, 68, 80
2, 92512, Control_c, 0, 64, 0
2, 92518, Note_on_c, 0, 44, 52
2, 92524, Note_off_c, 0, 69, 64
2, 92525, Note_off_c, 0, 68, 64
2, 92555, Control_c, 0, 64, 127
2, 92623, Note_on_c, 0, 66, 48
2, 92646, Control_c, 0, 64, 0
2, 92656, Note_on_c, 0, 51, 44
2, 92661, Note_on_c, 0, 54, 46
2, 92665, Note_on_c, 0, 63, 66
2, 92666, Note_off_c, 0, 66, 64
2, 92666, Note_on_c, 0, 60, 53
2, 92689, Control_c, 0, 64, 127
2, 92713, Note_off_c, 0, 51, 64
2, 92716, Note_off_c, 0, 54, 64
2, 92720, Note_off_c, 0, 60, 64
2, 92758, Note_off_c, 0, 44, 64
2, 92805, Note_on_c, 0, 60, 52
2, 92808, Note_on_c, 0, 51, 33
2, 92811, Note_on_c, 0, 54, 48
2, 92815, Note_on_c, 0, 68, 58
2, 92827, Note_off_c, 0, 60, 64
2, 92835, Note_off_c, 0, 51, 64
2, 92838, Note_off_c, 0, 54, 64
2, 92841, Note_off_c, 0, 63, 64
2, 92864, Note_off_c, 0, 68, 64
2, 92948, Note_on_c, 0, 68, 53
2, 92979, Note_on_c, 0, 37, 58
2, 92985, Control_c, 0, 64, 0
2, 92990, Note_on_c, 0, 61, 61
2, 93010, Note_off_c, 0, 68, 64
2, 93032, Control_c, 0, 64, 127
2, 93157, Note_on_c, 0, 49, 26
2, 93201, Note_on_c, 0, 56, 49
2, 93219, Note_off_c, 0, 37, 64
2, 93230, Note_off_c, 0, 49, 64
2, 93233, Note_on_c, 0, 64, 44
2, 93287, Note_off_c, 0, 61, 64
2, 93356, Note_off_c, 0, 64, 64
2, 93356, Note_off_c, 0, 56, 64
2, 93421, Note_on_c, 0, 62, 55
2, 93606, Note_on_c, 0, 63, 55
2, 93616, Control_c, 0, 64, 0
2, 93623, Note_on_c, 0, 44, 28
2, 93644, Note_off_c, 0, 62, 64
2, 93670, Control_c, 0, 64, 127
2, 93724, Note_on_c, 0, 67, 40
2, 93729, Note_off_c, 0, 63, 64
2, 93751, Control_c, 0, 64, 0
2, 93766, Note_on_c, 0, 68, 55
2, 93771, Note_on_c, 0, 60, 44
2, 93773, Note_on_c, 0, 56, 37
2, 93780, Note_on_c, 0, 51, 20
2, 93788, Note_off_c, 0, 67, 64
2, 93796, Control_c, 0, 64, 127
2, 93813, Note_off_c, 0, 51, 64
2, 93826, Note_off_c, 0, 56, 64
2, 93828, Note_off_c, 0, 60, 64
2, 93863, Note_off_c, 0, 44, 64
2, 93881, Note_off_c, 0, 68, 64
2, 93899, Note_on_c, 0, 72, 49
2, 93910, Note_on_c, 0, 51, 44
2, 93911, Note_on_c, 0, 60, 54
2, 93922, Note_on_c, 0, 56, 24
2, 93940, Note_off_c, 0, 56, 64
2, 93947, Note_off_c, 0, 60, 64
2, 93950, Note_off_c, 0, 51, 64
2, 93992, Note_on_c, 0, 75, 59
2, 93999, Note_off_c, 0, 72, 64
2, 94040, Control_c, 0, 64, 0
2, 94048, Note_on_c, 0, 44, 50
2, 94062, Note_on_c, 0, 63, 63
2, 94064, Note_off_c, 0, 75, 64
2, 94079, Control_c, 0, 64, 127
2, 94172, Note_on_c, 0, 67, 29
2, 94191, Note_off_c, 0, 63, 64
2, 94193, Control_c, 0, 64, 0
2, 94198, Note_on_c, 0, 60, 33
2, 94205, Note_on_c, 0, 68, 67
2, 94205, Note_on_c, 0, 56, 45
2, 94208, Note_on_c, 0, 51, 44
2, 94217, Note_off_c, 0, 67, 64
2, 94250, Control_c, 0, 64, 127
2, 94258, Note_off_c, 0, 51, 64
2, 94258, Note_off_c, 0, 56, 64
2, 94263, Note_off_c, 0, 60, 64
2, 94287, Note_on_c, 0, 72, 49
2, 94288, Note_off_c, 0, 44, 64
2, 94291, Note_off_c, 0, 68, 64
2, 94327, Control_c, 0, 64, 0
2, 94335, Note_on_c, 0, 56, 48
2, 94343, Note_on_c, 0, 60, 29
2, 94349, Note_on_c, 0, 51, 36
2, 94350, Note_on_c, 0, 75, 63
2, 94366, Note_off_c, 0, 72, 64
2, 94372, Control_c, 0, 64, 127
2, 94386, Note_off_c, 0, 60, 64
2, 94393, Note_off_c, 0, 51, 64
2, 94400, Note_off_c, 0, 56, 64
2, 94480, Note_off_c, 0, 75, 64
2, 94481, Control_c, 0, 64, 0
2, 94488, Note_on_c, 0, 74, 55
2, 94488, Note_on_c, 0, 58, 49
2, 94488, Note_on_c, 0, 56, 46
2, 94488, Note_on_c, 0, 53, 46
2, 94524, Control_c, 0, 64, 127
2, 94556, Note_off_c, 0, 56, 64
2, 94566, Note_off_c, 0, 74, 64
2, 94569, Note_on_c, 0, 70, 58
2, 94589, Note_off_c, 0, 53, 64
2, 94612, Control_c, 0, 64, 0
2, 94621, Note_on_c, 0, 55, 50
2, 94621, Note_on_c, 0, 51, 44
2, 94624, Note_on_c, 0, 73, 41
2, 94650, Note_off_c, 0, 70, 64
2, 94667, Control_c, 0, 64, 127
2, 94676, Note_off_c, 0, 51, 64
2, 94684, Note_off_c, 0, 55, 64
2, 94755, Control_c, 0, 64, 0
2, 94770, Note_on_c, 0, 72, 49
2, 94772, Note_on_c, 0, 44, 54
2, 94776, Note_on_c, 0, 56, 36
2, 94783, Note_off_c, 0, 58, 64
2, 94797, Note_off_c, 0, 73, 64
2, 94808, Control_c, 0, 64, 127
2, 94840, Note_on_c, 0, 68, 54
2, 94841, Note_off_c, 0, 72, 64
2, 94879, Note_off_c, 0, 68, 64
2, 94892, Note_off_c, 0, 56, 64
2, 94896, Control_c, 0, 64, 0
2, 94914, Note_on_c, 0, 56, 36
2, 94915, Note_off_c, 0, 44, 64
2, 94918, Note_on_c, 0, 58, 48
2, 94918, Note_on_c, 0, 74, 49
2, 94925, Note_on_c, 0, 53, 28
2, 94949, Control_c, 0, 64, 127
2, 94956, Note_on_c, 0, 70, 58
2, 94971, Note_off_c, 0, 74, 64
2, 95007, Note_on_c, 0, 72, 55
2, 95014, Note_off_c, 0, 56, 64
2, 95016, Note_off_c, 0, 53, 64
2, 95017, Note_off_c, 0, 70, 64
2, 95041, Control_c, 0, 64, 0
2, 95046, Note_on_c, 0, 73, 58
2, 95051, Note_on_c, 0, 55, 35
2, 95063, Note_off_c, 0, 72, 64
2, 95066, Note_on_c, 0, 51, 45
2, 95096, Note_off_c, 0, 73, 64
2, 95106, Control_c, 0, 64, 127
2, 95112, Note_off_c, 0, 55, 64
2, 95119, Note_off_c, 0, 51, 64
2, 95204, Note_on_c, 0, 44, 50
2, 95212, Note_on_c, 0, 56, 41
2, 95213, Note_off_c, 0, 58, 64
2, 95218, Note_on_c, 0, 72, 59
2, 95233, Note_off_c, 0, 44, 64
2, 95233, Control_c, 0, 64, 0
2, 95257, Control_c, 0, 64, 127
2, 95284, Note_off_c, 0, 56, 64
2, 95285, Note_off_c, 0, 72, 64
2, 95324, Note_on_c, 0, 68, 45
2, 95360, Control_c, 0, 64, 0
2, 95370, Note_off_c, 0, 68, 64
2, 95372, Note_on_c, 0, 63, 62
2, 95378, Note_on_c, 0, 44, 58
2, 95380, Note_on_c, 0, 32, 74
2, 95401, Control_c, 0, 64, 127
2, 95408, Control_c, 0, 64, 127
2, 95446, Control_c, 0, 64, 0
2, 95498, Note_on_c, 0, 67, 40
2, 95502, Note_off_c, 0, 63, 64
2, 95508, Control_c, 0, 64, 0
2, 95514, Note_on_c, 0, 60, 48
2, 95514, Note_on_c, 0, 51, 42
2, 95521, Note_on_c, 0, 56, 29
2, 95528, Note_on_c, 0, 68, 62
2, 95550, Control_c, 0, 64, 127
2, 95556, Note_off_c, 0, 51, 64
2, 95560, Note_off_c, 0, 60, 64
2, 95560, Note_off_c, 0, 67, 64
2, 95564, Note_off_c, 0, 56, 64
2, 95618, Note_off_c, 0, 44, 64
2, 95620, Note_off_c, 0, 32, 64
2, 95633, Note_off_c, 0, 68, 64
2, 95648, Note_on_c, 0, 72, 44
2, 95654, Note_on_c, 0, 60, 53
2, 95663, Note_on_c, 0, 51, 44
2, 95695, Note_off_c, 0, 60, 64
2, 95701, Note_off_c, 0, 51, 64
2, 95727, Note_on_c, 0, 75, 50
2, 95731, Note_off_c, 0, 72, 64
2, 95778, Note_off_c, 0, 75, 64
2, 95783, Control_c, 0, 64, 0
2, 95787, Note_on_c, 0, 44, 55
2, 95793, Note_on_c, 0, 63, 58
2, 95800, Control_c, 0, 64, 127
2, 95822, Note_off_c, 0, 63, 64
2, 95888, Note_on_c, 0, 67, 57
2, 95914, Note_on_c, 0, 68, 53
2, 95916, Note_on_c, 0, 60, 36
2, 95918, Control_c, 0, 64, 0
2, 95928, Note_on_c, 0, 56, 36
2, 95928, Note_on_c, 0, 51, 32
2, 95957, Control_c, 0, 64, 127
2, 95961, Note_off_c, 0, 67, 64
2, 95968, Note_off_c, 0, 51, 64
2, 95968, Note_off_c, 0, 56, 64
2, 95982, Note_off_c, 0, 60, 64
2, 95991, Note_on_c, 0, 72, 50
2, 96005, Note_off_c, 0, 68, 64
2, 96027, Note_off_c, 0, 44, 64
2, 96051, Control_c, 0, 64, 0
2, 96056, Note_on_c, 0, 60, 36
2, 96058, Note_on_c, 0, 56, 40
2, 96062, Note_on_c, 0, 51, 36
2, 96064, Note_on_c, 0, 75, 62
2, 96072, Note_off_c, 0, 72, 64
2, 96081, Control_c, 0, 64, 127
2, 96100, Note_off_c, 0, 60, 64
2, 96110, Note_off_c, 0, 51, 64
2, 96110, Note_off_c, 0, 56, 64
2, 96116, Note_off_c, 0, 75, 64
2, 96224, Note_on_c, 0, 74, 50
2, 96228, Note_on_c, 0, 56, 45
2, 96228, Note_on_c, 0, 53, 48
2, 96232, Note_on_c, 0, 58, 55
2, 96260, Control_c, 0, 64, 0
2, 96284, Note_off_c, 0, 74, 64
2, 96291, Control_c, 0, 64, 127
2, 96312, Note_off_c, 0, 56, 64
2, 96312, Note_on_c, 0, 70, 49
2, 96333, Note_off_c, 0, 53, 64
2, 96376, Note_on_c, 0, 73, 49
2, 96382, Note_on_c, 0, 51, 46
2, 96386, Note_on_c, 0, 55, 54
2, 96391, Control_c, 0, 64, 0
2, 96411, Note_off_c, 0, 70, 64
2, 96425, Control_c, 0, 64, 127
2, 96448, Note_off_c, 0, 55, 64
2, 96449, Note_off_c, 0, 51, 64
2, 96492, Note_off_c, 0, 73, 64
2, 96520, Note_on_c, 0, 72, 55
2, 96525, Note_on_c, 0, 56, 50
2, 96527, Note_off_c, 0, 58, 64
2, 96531, Note_on_c, 0, 44, 58
2, 96533, Control_c, 0, 64, 0
2, 96573, Control_c, 0, 64, 127
2, 96589, Note_off_c, 0, 44, 64
2, 96606, Note_off_c, 0, 56, 64
2, 96608, Note_on_c, 0, 68, 52
2, 96617, Note_off_c, 0, 72, 64
2, 96651, Note_on_c, 0, 80, 52
2, 96659, Control_c, 0, 64, 0
2, 96680, Note_off_c, 0, 68, 64
2, 96701, Control_c, 0, 64, 127
2, 96762, Note_on_c, 0, 68, 58
2, 96769, Note_off_c, 0, 80, 64
2, 96789, Control_c, 0, 64, 0
2, 96812, Note_on_c, 0, 80, 66
2, 96835, Control_c, 0, 64, 127
2, 96839, Note_off_c, 0, 68, 64
2, 96929, Note_off_c, 0, 80, 64
2, 96949, Note_on_c, 0, 68, 58
2, 96992, Note_on_c, 0, 80, 59
2, 97027, Note_off_c, 0, 68, 64
2, 97148, Note_off_c, 0, 80, 64
2, 97159, Note_on_c, 0, 68, 49
2, 97230, Note_on_c, 0, 80, 49
2, 97234, Note_on_c, 0, 48, 53
2, 97235, Control_c, 0, 64, 0
2, 97258, Note_off_c, 0, 68, 64
2, 97281, Control_c, 0, 64, 127
2, 97355, Note_off_c, 0, 80, 64
2, 97355, Note_on_c, 0, 81, 50
2, 97378, Control_c, 0, 64, 0
2, 97385, Note_on_c, 0, 56, 31
2, 97402, Note_on_c, 0, 63, 44
2, 97404, Note_on_c, 0, 78, 54
2, 97410, Note_on_c, 0, 66, 44
2, 97431, Note_off_c, 0, 81, 64
2, 97433, Note_off_c, 0, 56, 64
2, 97436, Control_c, 0, 64, 127
2, 97453, Note_off_c, 0, 63, 64
2, 97457, Note_off_c, 0, 66, 64
2, 97474, Note_off_c, 0, 48, 64
2, 97538, Note_on_c, 0, 56, 48
2, 97541, Note_on_c, 0, 66, 46
2, 97545, Note_on_c, 0, 63, 44
2, 97572, Note_off_c, 0, 63, 64
2, 97577, Note_off_c, 0, 66, 64
2, 97577, Note_off_c, 0, 56, 64
2, 97610, Note_on_c, 0, 80, 44
2, 97616, Note_off_c, 0, 78, 64
2, 97666, Note_on_c, 0, 49, 55
2, 97669, Control_c, 0, 64, 0
2, 97677, Note_on_c, 0, 76, 50
2, 97688, Note_off_c, 0, 80, 64
2, 97719, Control_c, 0, 64, 127
2, 97772, Note_on_c, 0, 80, 53
2, 97781, Note_off_c, 0, 76, 64
2, 97796, Control_c, 0, 64, 0
2, 97803, Note_on_c, 0, 64, 36
2, 97804, Note_on_c, 0, 56, 24
2, 97808, Note_on_c, 0, 61, 48
2, 97812, Note_on_c, 0, 73, 59
2, 97833, Note_off_c, 0, 80, 64
2, 97850, Note_off_c, 0, 56, 64
2, 97850, Control_c, 0, 64, 127
2, 97856, Note_off_c, 0, 64, 64
2, 97858, Note_off_c, 0, 61, 64
2, 97906, Note_off_c, 0, 49, 64
2, 97926, Control_c, 0, 64, 0
2, 97938, Note_off_c, 0, 73, 64
2, 97941, Note_on_c, 0, 76, 53
2, 97944, Note_on_c, 0, 64, 44
2, 97948, Note_on_c, 0, 61, 32
2, 97948, Note_on_c, 0, 56, 36
2, 97957, Control_c, 0, 64, 127
2, 97972, Note_off_c, 0, 56, 64
2, 97977, Note_off_c, 0, 61, 64
2, 97987, Note_off_c, 0, 64, 64
2, 98072, Note_off_c, 0, 76, 64
2, 98076, Control_c, 0, 64, 0
2, 98083, Note_on_c, 0, 80, 48
2, 98088, Note_on_c, 0, 48, 44
2, 98127, Control_c, 0, 64, 127
2, 98166, Note_off_c, 0, 80, 64
2, 98174, Note_on_c, 0, 81, 54
2, 98232, Note_on_c, 0, 63, 50
2, 98233, Note_on_c, 0, 78, 52
2, 98233, Note_on_c, 0, 66, 55
2, 98237, Note_on_c, 0, 56, 39
2, 98242, Control_c, 0, 64, 0
2, 98251, Note_off_c, 0, 81, 64
2, 98267, Note_off_c, 0, 63, 64
2, 98276, Note_off_c, 0, 56, 64
2, 98279, Control_c, 0, 64, 127
2, 98285, Note_off_c, 0, 66, 64
2, 98328, Note_off_c, 0, 48, 64
2, 98338, Note_off_c, 0, 78, 64
2, 98364, Note_on_c, 0, 80, 62
2, 98380, Note_on_c, 0, 63, 50
2, 98385, Note_on_c, 0, 66, 40
2, 98386, Note_on_c, 0, 56, 46
2, 98408, Note_off_c, 0, 66, 64
2, 98415, Note_off_c, 0, 63, 64
2, 98426, Note_off_c, 0, 56, 64
2, 98486, Note_off_c, 0, 80, 64
2, 98552, Note_on_c, 0, 49, 39
2, 98553, Control_c, 0, 64, 0
2, 98557, Note_on_c, 0, 76, 49
2, 98602, Control_c, 0, 64, 127
2, 98628, Note_on_c, 0, 78, 50
2, 98644, Note_off_c, 0, 76, 64
2, 98681, Note_on_c, 0, 80, 55
2, 98704, Note_off_c, 0, 78, 64
2, 98729, Note_off_c, 0, 80, 64
2, 98740, Note_on_c, 0, 80, 62
2, 98772, Note_on_c, 0, 61, 23
2, 98775, Note_on_c, 0, 64, 39
2, 98778, Note_on_c, 0, 56, 22
2, 98786, Note_on_c, 0, 73, 54
2, 98788, Control_c, 0, 64, 0
2, 98792, Note_off_c, 0, 49, 64
2, 98796, Note_off_c, 0, 80, 64
2, 98835, Control_c, 0, 64, 127
2, 99011, Note_off_c, 0, 61, 64
2, 99014, Note_off_c, 0, 64, 64
2, 99017, Note_off_c, 0, 56, 64
2, 99025, Note_off_c, 0, 73, 64
2, 99136, Note_on_c, 0, 74, 58
2, 99203, Note_off_c, 0, 74, 64
2, 99213, Note_on_c, 0, 75, 70
2, 99217, Note_on_c, 0, 43, 57
2, 99220, Control_c, 0, 64, 0
2, 99255, Control_c, 0, 64, 127
2, 99292, Note_on_c, 0, 76, 67
2, 99301, Note_off_c, 0, 75, 64
2, 99343, Control_c, 0, 64, 0
2, 99353, Note_off_c, 0, 76, 64
2, 99353, Note_on_c, 0, 61, 67
2, 99358, Note_on_c, 0, 51, 44
2, 99361, Note_on_c, 0, 73, 72
2, 99365, Note_on_c, 0, 58, 27
2, 99406, Note_off_c, 0, 51, 64
2, 99410, Note_off_c, 0, 58, 64
2, 99415, Note_off_c, 0, 61, 64
2, 99424, Control_c, 0, 64, 127
2, 99455, Note_off_c, 0, 73, 64
2, 99457, Note_off_c, 0, 43, 64
2, 99475, Control_c, 0, 64, 0
2, 99488, Note_on_c, 0, 75, 66
2, 99488, Note_on_c, 0, 58, 36
2, 99491, Note_on_c, 0, 61, 55
2, 99495, Note_on_c, 0, 51, 58
2, 99505, Control_c, 0, 64, 127
2, 99516, Note_off_c, 0, 58, 64
2, 99526, Note_off_c, 0, 61, 64
2, 99531, Note_off_c, 0, 51, 64
2, 99557, Note_off_c, 0, 75, 64
2, 99620, Control_c, 0, 64, 0
2, 99629, Note_on_c, 0, 44, 59
2, 99632, Note_on_c, 0, 72, 50
2, 99665, Control_c, 0, 64, 127
2, 99716, Note_on_c, 0, 75, 44
2, 99731, Note_off_c, 0, 72, 64
2, 99746, Control_c, 0, 64, 0
2, 99764, Note_on_c, 0, 68, 72
2, 99770, Note_on_c, 0, 60, 52
2, 99772, Note_on_c, 0, 51, 48
2, 99777, Note_off_c, 0, 75, 64
2, 99777, Note_on_c, 0, 54, 46
2, 99777, Control_c, 0, 64, 127
2, 99810, Note_off_c, 0, 51, 64
2, 99819, Note_off_c, 0, 60, 64
2, 99821, Note_off_c, 0, 54, 64
2, 99865, Note_off_c, 0, 68, 64
2, 99869, Note_off_c, 0, 44, 64
2, 99894, Note_on_c, 0, 71, 59
2, 99930, Note_on_c, 0, 69, 48
2, 99931, Note_off_c, 0, 71, 64
2, 99958, Note_on_c, 0, 71, 71
2, 99966, Note_off_c, 0, 69, 64
2, 99989, Note_on_c, 0, 69, 63
2, 99991, Note_off_c, 0, 71, 64
2, 100020, Note_on_c, 0, 71, 68
2, 100028, Note_off_c, 0, 69, 64
2, 100044, Note_on_c, 0, 69, 62
2, 100053, Note_off_c, 0, 71, 64
2, 100068, Note_on_c, 0, 68, 59
2, 100078, Note_on_c, 0, 44, 57
2, 100084, Note_off_c, 0, 69, 64
2, 100090, Control_c, 0, 64, 0
2, 100124, Control_c, 0, 64, 127
2, 100149, Note_off_c, 0, 68, 64
2, 100193, Note_on_c, 0, 66, 53
2, 100232, Control_c, 0, 64, 0
2, 100241, Note_off_c, 0, 66, 64
2, 100241, Note_on_c, 0, 54, 49
2, 100241, Note_on_c, 0, 51, 55
2, 100247, Note_on_c, 0, 63, 62
2, 100247, Note_on_c, 0, 60, 55
2, 100256, Control_c, 0, 64, 127
2, 100300, Note_off_c, 0, 60, 64
2, 100300, Note_off_c, 0, 54, 64
2, 100303, Note_off_c, 0, 51, 64
2, 100318, Note_off_c, 0, 44, 64
2, 100396, Note_off_c, 0, 63, 64
2, 100421, Note_on_c, 0, 60, 44
2, 100425, Note_on_c, 0, 68, 66
2, 100428, Note_on_c, 0, 54, 50
2, 100428, Note_on_c, 0, 51, 50
2, 100450, Note_off_c, 0, 60, 64
2, 100457, Note_off_c, 0, 54, 64
2, 100459, Note_off_c, 0, 51, 64
2, 100478, Note_off_c, 0, 68, 64
2, 100601, Note_on_c, 0, 68, 55
2, 100634, Note_on_c, 0, 37, 54
2, 100647, Control_c, 0, 64, 0
2, 100653, Note_on_c, 0, 61, 70
2, 100662, Note_off_c, 0, 68, 64
2, 100693, Control_c, 0, 64, 127
2, 100874, Note_off_c, 0, 37, 64
2, 100880, Note_on_c, 0, 49, 28
2, 100924, Note_on_c, 0, 56, 44
2, 100956, Note_on_c, 0, 64, 42
2, 100964, Note_off_c, 0, 49, 64
2, 101070, Note_off_c, 0, 61, 64
2, 101140, Note_off_c, 0, 64, 64
2, 101153, Note_off_c, 0, 56, 64
2, 101181, Note_on_c, 0, 61, 44
2, 101337, Note_off_c, 0, 61, 64
2, 101363, Note_on_c, 0, 45, 42
2, 101364, Note_on_c, 0, 73, 50
2, 101372, Control_c, 0, 64, 0
2, 101415, Control_c, 0, 64, 127
2, 101435, Note_on_c, 0, 75, 41
2, 101469, Note_off_c, 0, 73, 64
2, 101501, Control_c, 0, 64, 0
2, 101530, Note_on_c, 0, 61, 35
2, 101531, Note_on_c, 0, 76, 44
2, 101531, Note_on_c, 0, 52, 44
2, 101539, Control_c, 0, 64, 127
2, 101552, Note_off_c, 0, 75, 64
2, 101589, Note_off_c, 0, 52, 64
2, 101597, Note_off_c, 0, 61, 64
2, 101605, Note_off_c, 0, 45, 64
2, 101676, Note_on_c, 0, 61, 41
2, 101683, Note_on_c, 0, 52, 37
2, 101716, Note_off_c, 0, 61, 64
2, 101723, Note_off_c, 0, 52, 64
2, 101733, Note_on_c, 0, 73, 46
2, 101770, Note_off_c, 0, 76, 64
2, 101811, Note_on_c, 0, 71, 44
2, 101818, Note_on_c, 0, 40, 44
2, 101824, Control_c, 0, 64, 0
2, 101834, Note_off_c, 0, 73, 64
2, 101878, Note_on_c, 0, 68, 44
2, 101911, Note_off_c, 0, 71, 64
2, 101946, Note_on_c, 0, 52, 40
2, 101952, Note_on_c, 0, 64, 48
2, 101955, Note_on_c, 0, 59, 22
2, 101957, Note_off_c, 0, 68, 64
2, 101985, Note_off_c, 0, 59, 64
2, 101999, Note_off_c, 0, 52, 64
2, 102058, Note_off_c, 0, 40, 64
2, 102071, Control_c, 0, 64, 127
2, 102091, Note_on_c, 0, 52, 40
2, 102104, Note_on_c, 0, 59, 41
2, 102165, Note_off_c, 0, 52, 64
2, 102167, Note_off_c, 0, 59, 64
2, 102191, Note_off_c, 0, 64, 64
2, 102227, Control_c, 0, 64, 0
2, 102235, Note_on_c, 0, 73, 29
2, 102237, Note_on_c, 0, 45, 41
2, 102247, Control_c, 0, 64, 127
2, 102341, Note_on_c, 0, 75, 33
2, 102380, Note_off_c, 0, 73, 64
2, 102397, Note_on_c, 0, 76, 40
2, 102403, Note_on_c, 0, 52, 44
2, 102410, Control_c, 0, 64, 0
2, 102417, Note_off_c, 0, 75, 64
2, 102422, Note_on_c, 0, 61, 20
2, 102424, Control_c, 0, 64, 127
2, 102462, Note_off_c, 0, 61, 64
2, 102463, Note_off_c, 0, 52, 64
2, 102477, Note_off_c, 0, 45, 64
2, 102500, Note_on_c, 0, 78, 50
2, 102526, Note_off_c, 0, 76, 64
2, 102536, Note_on_c, 0, 76, 41
2, 102543, Note_on_c, 0, 61, 35
2, 102545, Note_on_c, 0, 52, 44
2, 102551, Control_c, 0, 64, 0
2, 102557, Note_off_c, 0, 78, 64
2, 102565, Note_off_c, 0, 61, 64
2, 102565, Control_c, 0, 64, 127
2, 102583, Note_off_c, 0, 52, 64
2, 102610, Note_on_c, 0, 73, 44
2, 102626, Note_off_c, 0, 76, 64
2, 102675, Note_on_c, 0, 40, 44
2, 102675, Note_on_c, 0, 71, 44
2, 102682, Control_c, 0, 64, 0
2, 102698, Note_off_c, 0, 73, 64
2, 102704, Control_c, 0, 64, 127
2, 102741, Note_on_c, 0, 68, 44
2, 102769, Note_off_c, 0, 71, 64
2, 102796, Control_c, 0, 64, 0
2, 102815, Note_on_c, 0, 59, 37
2, 102818, Note_on_c, 0, 52, 44
2, 102819, Note_on_c, 0, 64, 41
2, 102832, Note_off_c, 0, 68, 64
2, 102839, Control_c, 0, 64, 127
2, 102865, Note_off_c, 0, 59, 64
2, 102869, Note_off_c, 0, 52, 64
2, 102915, Note_off_c, 0, 40, 64
2, 102948, Note_on_c, 0, 52, 44
2, 102953, Note_on_c, 0, 59, 44
2, 103000, Note_off_c, 0, 59, 64
2, 103005, Note_off_c, 0, 52, 64
2, 103074, Control_c, 0, 64, 0
2, 103081, Note_on_c, 0, 61, 45
2, 103087, Note_on_c, 0, 52, 42
2, 103091, Note_on_c, 0, 45, 40
2, 103113, Control_c, 0, 64, 127
2, 103127, Note_off_c, 0, 52, 64
2, 103135, Note_off_c, 0, 45, 64
2, 103140, Note_on_c, 0, 69, 32
2, 103156, Note_off_c, 0, 61, 64
2, 103197, Control_c, 0, 64, 0
2, 103202, Note_off_c, 0, 64, 64
2, 103220, Note_on_c, 0, 40, 50
2, 103224, Note_on_c, 0, 59, 50
2, 103228, Note_on_c, 0, 68, 50
2, 103228, Note_on_c, 0, 52, 42
2, 103242, Note_off_c, 0, 69, 64
2, 103253, Note_off_c, 0, 40, 64
2, 103254, Note_off_c, 0, 52, 64
2, 103266, Note_off_c, 0, 59, 64
2, 103348, Note_on_c, 0, 52, 53
2, 103349, Note_on_c, 0, 59, 45
2, 103364, Note_on_c, 0, 40, 45
2, 103388, Note_off_c, 0, 52, 64
2, 103395, Note_off_c, 0, 40, 64
2, 103400, Note_off_c, 0, 59, 64
2, 103426, Control_c, 0, 64, 0
2, 103464, Control_c, 0, 64, 127
2, 103480, Note_on_c, 0, 64, 44
2, 103483, Note_on_c, 0, 61, 50
2, 103484, Note_on_c, 0, 52, 50
2, 103484, Note_on_c, 0, 45, 44
2, 103486, Note_off_c, 0, 68, 64
2, 103497, Control_c, 0, 64, 127
2, 103555, Note_on_c, 0, 71, 32
2, 103572, Note_off_c, 0, 61, 64
2, 103574, Note_off_c, 0, 45, 64
2, 103575, Note_off_c, 0, 64, 64
2, 103588, Note_on_c, 0, 69, 54
2, 103595, Note_off_c, 0, 52, 64
2, 103609, Control_c, 0, 64, 0
2, 103617, Note_off_c, 0, 71, 64
2, 103620, Note_on_c, 0, 68, 42
2, 103626, Note_off_c, 0, 69, 64
2, 103626, Note_on_c, 0, 59, 35
2, 103631, Note_on_c, 0, 40, 42
2, 103634, Note_on_c, 0, 52, 41
2, 103671, Note_off_c, 0, 52, 64
2, 103671, Note_off_c, 0, 40, 64
2, 103702, Note_off_c, 0, 59, 64
2, 103776, Note_on_c, 0, 59, 46
2, 103776, Note_on_c, 0, 52, 44
2, 103781, Note_on_c, 0, 40, 41
2, 103791, Control_c, 0, 64, 127
2, 103821, Note_off_c, 0, 40, 64
2, 103827, Note_off_c, 0, 52, 64
2, 103827, Note_off_c, 0, 59, 64
2, 103838, Note_off_c, 0, 68, 64
2, 103922, Note_on_c, 0, 64, 44
2, 103922, Note_on_c, 0, 61, 54
2, 103929, Note_on_c, 0, 52, 50
2, 103929, Note_on_c, 0, 45, 50
2, 103930, Control_c, 0, 64, 0
2, 103967, Note_off_c, 0, 45, 64
2, 103968, Control_c, 0, 64, 127
2, 103975, Note_off_c, 0, 52, 64
2, 103987, Note_off_c, 0, 61, 64
2, 103991, Note_on_c, 0, 69, 41
2, 104017, Note_off_c, 0, 64, 64
2, 104026, Control_c, 0, 64, 0
2, 104043, Note_on_c, 0, 68, 50
2, 104058, Note_on_c, 0, 59, 50
2, 104060, Note_on_c, 0, 52, 44
2, 104060, Note_on_c, 0, 40, 45
2, 104066, Note_off_c, 0, 69, 64
2, 104095, Note_off_c, 0, 40, 64
2, 104096, Note_off_c, 0, 59, 64
2, 104102, Note_off_c, 0, 52, 64
2, 104111, Note_off_c, 0, 68, 64
2, 104186, Control_c, 0, 64, 127
2, 104192, Note_on_c, 0, 68, 50
2, 104192, Note_on_c, 0, 59, 44
2, 104198, Note_on_c, 0, 40, 44
2, 104205, Note_on_c, 0, 52, 42
2, 104243, Note_off_c, 0, 59, 64
2, 104246, Note_off_c, 0, 52, 64
2, 104259, Note_off_c, 0, 40, 64
2, 104260, Note_off_c, 0, 68, 64
2, 104324, Note_on_c, 0, 52, 33
2, 104324, Control_c, 0, 64, 0
2, 104329, Note_on_c, 0, 64, 44
2, 104329, Note_on_c, 0, 61, 53
2, 104338, Note_on_c, 0, 45, 32
2, 104356, Control_c, 0, 64, 127
2, 104448, Note_on_c, 0, 69, 41
2, 104474, Note_off_c, 0, 64, 64
2, 104500, Note_on_c, 0, 47, 32
2, 104504, Note_off_c, 0, 61, 64
2, 104504, Note_off_c, 0, 52, 64
2, 104517, Note_off_c, 0, 45, 64
2, 104535, Control_c, 0, 64, 0
2, 104564, Note_on_c, 0, 49, 54
2, 104564, Note_on_c, 0, 56, 50
2, 104564, Note_on_c, 0, 68, 41
2, 104579, Note_off_c, 0, 69, 64
2, 104590, Note_off_c, 0, 47, 64
2, 104603, Control_c, 0, 64, 127
2, 104780, Note_on_c, 0, 37, 54
2, 104796, Note_off_c, 0, 68, 64
2, 104796, Note_off_c, 0, 56, 64
2, 104804, Note_off_c, 0, 49, 64
2, 104964, Note_on_c, 0, 77, 52
2, 105020, Note_off_c, 0, 37, 64
2, 105040, Note_on_c, 0, 79, 58
2, 105054, Note_off_c, 0, 77, 64
2, 105102, Note_on_c, 0, 80, 65
2, 105102, Control_c, 0, 64, 0
2, 105121, Note_on_c, 0, 61, 37
2, 105124, Note_off_c, 0, 79, 64
2, 105125, Note_on_c, 0, 53, 35
2, 105128, Note_on_c, 0, 56, 31
2, 105132, Note_on_c, 0, 65, 36
2, 105150, Control_c, 0, 64, 127
2, 105162, Note_off_c, 0, 56, 64
2, 105163, Note_off_c, 0, 53, 64
2, 105173, Note_off_c, 0, 61, 64
2, 105176, Note_off_c, 0, 65, 64
2, 105248, Note_on_c, 0, 61, 40
2, 105248, Note_on_c, 0, 53, 40
2, 105252, Note_on_c, 0, 65, 31
2, 105252, Note_on_c, 0, 56, 44
2, 105281, Note_off_c, 0, 65, 64
2, 105283, Note_off_c, 0, 61, 64
2, 105290, Note_off_c, 0, 56, 64
2, 105290, Note_off_c, 0, 53, 64
2, 105329, Note_on_c, 0, 77, 32
2, 105341, Note_off_c, 0, 80, 64
2, 105400, Note_on_c, 0, 44, 49
2, 105400, Note_on_c, 0, 75, 55
2, 105420, Note_off_c, 0, 77, 64
2, 105423, Control_c, 0, 64, 0
2, 105466, Control_c, 0, 64, 127
2, 105484, Note_on_c, 0, 72, 49
2, 105507, Note_off_c, 0, 75, 64
2, 105548, Control_c, 0, 64, 0
2, 105552, Note_on_c, 0, 51, 35
2, 105552, Note_on_c, 0, 68, 58
2, 105556, Note_on_c, 0, 56, 46
2, 105560, Note_on_c, 0, 60, 37
2, 105566, Note_off_c, 0, 72, 64
2, 105589, Control_c, 0, 64, 127
2, 105614, Note_off_c, 0, 51, 64
2, 105622, Note_off_c, 0, 60, 64
2, 105640, Note_off_c, 0, 44, 64
2, 105642, Note_off_c, 0, 68, 64
2, 105646, Note_off_c, 0, 56, 64
2, 105708, Note_on_c, 0, 51, 35
2, 105716, Note_on_c, 0, 60, 37
2, 105718, Note_on_c, 0, 56, 16
2, 105732, Control_c, 0, 64, 0
2, 105741, Note_off_c, 0, 56, 64
2, 105770, Note_off_c, 0, 51, 64
2, 105773, Control_c, 0, 64, 127
2, 105778, Note_off_c, 0, 60, 64
2, 105847, Note_on_c, 0, 77, 55
2, 105858, Note_on_c, 0, 49, 44
2, 105864, Control_c, 0, 64, 0
2, 105899, Control_c, 0, 64, 127
2, 105964, Note_on_c, 0, 79, 31
2, 105992, Note_off_c, 0, 77, 64
2, 106003, Note_on_c, 0, 80, 55
2, 106004, Note_on_c, 0, 61, 39
2, 106004, Note_on_c, 0, 56, 37
2, 106004, Note_on_c, 0, 53, 35
2, 106007, Note_on_c, 0, 65, 18
2, 106028, Control_c, 0, 64, 0
2, 106031, Note_off_c, 0, 79, 64
2, 106066, Note_off_c, 0, 65, 64
2, 106066, Note_off_c, 0, 53, 64
2, 106066, Note_off_c, 0, 56, 64
2, 106069, Control_c, 0, 64, 127
2, 106083, Note_off_c, 0, 80, 64
2, 106089, Note_on_c, 0, 82, 65
2, 106093, Note_off_c, 0, 61, 64
2, 106098, Note_off_c, 0, 49, 64
2, 106130, Note_on_c, 0, 80, 65
2, 106136, Note_on_c, 0, 65, 36
2, 106136, Note_on_c, 0, 61, 37
2, 106136, Note_on_c, 0, 56, 36
2, 106136, Note_on_c, 0, 53, 31
2, 106145, Note_off_c, 0, 82, 64
2, 106171, Note_off_c, 0, 65, 64
2, 106178, Note_off_c, 0, 61, 64
2, 106180, Note_off_c, 0, 56, 64
2, 106181, Note_off_c, 0, 53, 64
2, 106203, Note_on_c, 0, 77, 55
2, 106217, Note_off_c, 0, 80, 64
2, 106253, Control_c, 0, 64, 127
2, 106266, Control_c, 0, 64, 0
2, 106268, Note_on_c, 0, 75, 58
2, 106272, Note_on_c, 0, 44, 54
2, 106279, Note_off_c, 0, 77, 64
2, 106288, Control_c, 0, 64, 127
2, 106298, Control_c, 0, 64, 0
2, 106333, Note_on_c, 0, 72, 57
2, 106364, Note_off_c, 0, 75, 64
2, 106394, Control_c, 0, 64, 0
2, 106408, Control_c, 0, 64, 127
2, 106412, Note_on_c, 0, 68, 67
2, 106412, Note_on_c, 0, 56, 41
2, 106412, Note_on_c, 0, 51, 41
2, 106416, Note_on_c, 0, 60, 41
2, 106427, Note_off_c, 0, 72, 64
2, 106447, Note_off_c, 0, 56, 64
2, 106467, Note_off_c, 0, 60, 64
2, 106475, Note_off_c, 0, 51, 64
2, 106512, Note_off_c, 0, 44, 64
2, 106556, Note_on_c, 0, 51, 41
2, 106556, Note_on_c, 0, 56, 41
2, 106560, Note_on_c, 0, 60, 41
2, 106595, Note_off_c, 0, 60, 64
2, 106596, Note_off_c, 0, 56, 64
2, 106604, Note_off_c, 0, 51, 64
2, 106696, Note_on_c, 0, 65, 53
2, 106700, Note_on_c, 0, 49, 45
2, 106704, Note_on_c, 0, 61, 55
2, 106704, Note_on_c, 0, 56, 52
2, 106721, Note_off_c, 0, 68, 64
2, 106734, Control_c, 0, 64, 0
2, 106739, Note_off_c, 0, 56, 64
2, 106742, Note_off_c, 0, 61, 64
2, 106745, Note_off_c, 0, 49, 64
2, 106762, Control_c, 0, 64, 127
2, 106782, Note_on_c, 0, 73, 46
2, 106786, Note_off_c, 0, 65, 64
2, 106847, Control_c, 0, 64, 0
2, 106855, Note_on_c, 0, 72, 55
2, 106857, Note_on_c, 0, 63, 70
2, 106862, Note_off_c, 0, 73, 64
2, 106862, Note_on_c, 0, 56, 55
2, 106866, Note_on_c, 0, 44, 53
2, 106886, Note_off_c, 0, 44, 64
2, 106889, Note_off_c, 0, 56, 64
2, 106892, Note_off_c, 0, 63, 64
2, 106995, Note_on_c, 0, 56, 57
2, 107001, Note_on_c, 0, 44, 52
2, 107005, Note_on_c, 0, 63, 59
2, 107033, Note_off_c, 0, 44, 64
2, 107033, Note_off_c, 0, 56, 64
2, 107048, Note_off_c, 0, 63, 64
2, 107080, Note_off_c, 0, 72, 64
2, 107131, Note_on_c, 0, 68, 52
2, 107133, Note_on_c, 0, 56, 49
2, 107141, Note_on_c, 0, 65, 35
2, 107141, Note_on_c, 0, 49, 20
2, 107155, Control_c, 0, 64, 127
2, 107185, Note_off_c, 0, 49, 64
2, 107192, Note_off_c, 0, 56, 64
2, 107200, Note_off_c, 0, 65, 64
2, 107201, Note_on_c, 0, 75, 26
2, 107225, Note_off_c, 0, 68, 64
2, 107237, Note_on_c, 0, 73, 49
2, 107247, Control_c, 0, 64, 0
2, 107253, Note_off_c, 0, 75, 64
2, 107265, Note_on_c, 0, 63, 53
2, 107272, Note_on_c, 0, 56, 44
2, 107272, Note_on_c, 0, 44, 44
2, 107279, Note_on_c, 0, 72, 55
2, 107300, Note_off_c, 0, 44, 64
2, 107300, Note_off_c, 0, 73, 64
2, 107301, Note_off_c, 0, 56, 64
2, 107328, Note_off_c, 0, 63, 64
2, 107411, Note_on_c, 0, 63, 57
2, 107420, Note_on_c, 0, 56, 48
2, 107420, Note_on_c, 0, 44, 45
2, 107457, Note_off_c, 0, 44, 64
2, 107457, Note_off_c, 0, 56, 64
2, 107461, Note_off_c, 0, 63, 64
2, 107531, Note_off_c, 0, 72, 64
2, 107552, Note_on_c, 0, 49, 39
2, 107557, Note_on_c, 0, 56, 42
2, 107558, Note_on_c, 0, 68, 41
2, 107564, Note_on_c, 0, 65, 36
2, 107578, Control_c, 0, 64, 127
2, 107592, Note_off_c, 0, 49, 64
2, 107603, Note_off_c, 0, 56, 64
2, 107608, Note_off_c, 0, 65, 64
2, 107629, Note_on_c, 0, 73, 50
2, 107638, Note_off_c, 0, 68, 64
2, 107669, Control_c, 0, 64, 0
2, 107677, Note_on_c, 0, 72, 49
2, 107683, Note_on_c, 0, 63, 53
2, 107687, Note_on_c, 0, 56, 41
2, 107687, Note_on_c, 0, 44, 39
2, 107694, Note_off_c, 0, 73, 64
2, 107714, Note_off_c, 0, 63, 64
2, 107721, Note_off_c, 0, 44, 64
2, 107722, Note_off_c, 0, 56, 64
2, 107734, Note_off_c, 0, 72, 64
2, 107812, Note_on_c, 0, 72, 37
2, 107814, Note_on_c, 0, 63, 50
2, 107824, Note_on_c, 0, 44, 41
2, 107831, Note_on_c, 0, 56, 41
2, 107843, Control_c, 0, 64, 127
2, 107862, Note_off_c, 0, 56, 64
2, 107862, Note_off_c, 0, 63, 64
2, 107865, Note_off_c, 0, 72, 64
2, 107866, Note_off_c, 0, 44, 64
2, 107930, Control_c, 0, 64, 0
2, 107959, Note_on_c, 0, 68, 42
2, 107959, Note_on_c, 0, 49, 39
2, 107964, Note_on_c, 0, 65, 37
2, 107964, Note_on_c, 0, 56, 40
2, 107995, Control_c, 0, 64, 127
2, 108013, Note_off_c, 0, 65, 64
2, 108026, Note_off_c, 0, 49, 64
2, 108041, Note_on_c, 0, 73, 37
2, 108048, Note_off_c, 0, 68, 64
2, 108072, Note_off_c, 0, 56, 64
2, 108085, Control_c, 0, 64, 0
2, 108095, Note_on_c, 0, 72, 40
2, 108100, Note_on_c, 0, 63, 48
2, 108101, Note_off_c, 0, 73, 64
2, 108104, Note_on_c, 0, 56, 27
2, 108104, Note_on_c, 0, 44, 32
2, 108130, Control_c, 0, 64, 127
2, 108156, Note_off_c, 0, 56, 64
2, 108161, Note_off_c, 0, 63, 64
2, 108168, Note_off_c, 0, 44, 64
2, 108222, Note_off_c, 0, 72, 64
2, 108267, Note_on_c, 0, 44, 27
2, 108274, Note_on_c, 0, 63, 31
2, 108276, Note_on_c, 0, 63, 28
2, 108282, Note_on_c, 0, 56, 26
2, 108311, Note_off_c, 0, 63, 64
2, 108320, Note_off_c, 0, 44, 64
2, 108322, Note_off_c, 0, 56, 64
2, 108326, Note_off_c, 0, 63, 64
2, 108352, Note_on_c, 0, 61, 42
2, 108448, Note_on_c, 0, 68, 40
2, 108455, Note_on_c, 0, 60, 35
2, 108459, Note_on_c, 0, 44, 40
2, 108464, Note_off_c, 0, 61, 64
2, 108475, Control_c, 0, 64, 0
2, 108517, Control_c, 0, 64, 127
2, 108531, Note_off_c, 0, 44, 64
2, 108553, Note_off_c, 0, 60, 64
2, 108583, Note_off_c, 0, 68, 64
2, 108629, Note_on_c, 0, 68, 40
2, 108632, Note_on_c, 0, 58, 50
2, 108638, Note_on_c, 0, 51, 36
2, 108640, Note_on_c, 0, 44, 31
2, 108641, Control_c, 0, 64, 0
2, 108677, Control_c, 0, 64, 127
2, 108698, Note_off_c, 0, 58, 64
2, 108735, Note_off_c, 0, 68, 64
2, 108779, Note_on_c, 0, 60, 39
2, 108817, Note_off_c, 0, 51, 64
2, 108827, Note_off_c, 0, 44, 64
2, 108841, Note_on_c, 0, 61, 48
2, 108870, Note_off_c, 0, 60, 64
2, 108903, Note_on_c, 0, 68, 48
2, 108909, Control_c, 0, 64, 0
2, 108913, Note_on_c, 0, 44, 40
2, 108916, Note_on_c, 0, 51, 36
2, 108918, Note_on_c, 0, 63, 49
2, 108941, Control_c, 0, 64, 127
2, 108945, Note_off_c, 0, 61, 64
2, 108961, Note_off_c, 0, 51, 64
2, 108977, Note_off_c, 0, 44, 64
2, 108980, Note_off_c, 0, 68, 64
2, 108984, Note_on_c, 0, 60, 44
2, 109007, Note_off_c, 0, 63, 64
2, 109082, Control_c, 0, 64, 0
2, 109090, Note_on_c, 0, 44, 18
2, 109092, Note_on_c, 0, 51, 22
2, 109105, Note_on_c, 0, 68, 41
2, 109108, Note_on_c, 0, 61, 42
2, 109136, Note_off_c, 0, 60, 64
2, 109154, Control_c, 0, 64, 127
2, 109288, Note_off_c, 0, 68, 64
2, 109325, Note_off_c, 0, 51, 64
2, 109327, Note_off_c, 0, 44, 64
2, 109329, Note_on_c, 0, 58, 40
2, 109335, Note_off_c, 0, 61, 64
2, 109377, Note_off_c, 0, 58, 64
2, 109416, Note_on_c, 0, 44, 36
2, 109416, Note_on_c, 0, 51, 31
2, 109421, Note_on_c, 0, 68, 36
2, 109426, Note_on_c, 0, 60, 44
2, 109435, Control_c, 0, 64, 0
2, 109457, Control_c, 0, 64, 127
2, 109476, Note_off_c, 0, 51, 64
2, 109490, Note_off_c, 0, 44, 64
2, 109490, Note_on_c, 0, 61, 49
2, 109507, Note_off_c, 0, 60, 64
2, 109538, Note_off_c, 0, 61, 64
2, 109543, Note_on_c, 0, 60, 48
2, 109567, Control_c, 0, 64, 0
2, 109576, Note_on_c, 0, 51, 39
2, 109583, Note_on_c, 0, 58, 49
2, 109583, Note_on_c, 0, 44, 36
2, 109599, Note_off_c, 0, 60, 64
2, 109605, Control_c, 0, 64, 127
2, 109639, Note_off_c, 0, 51, 64
2, 109644, Note_off_c, 0, 44, 64
2, 109652, Note_off_c, 0, 68, 64
2, 109680, Note_off_c, 0, 58, 64
2, 109718, Note_on_c, 0, 60, 42
2, 109726, Note_on_c, 0, 68, 36
2, 109779, Note_on_c, 0, 61, 44
2, 109786, Note_off_c, 0, 60, 64
2, 109789, Note_off_c, 0, 68, 64
2, 109838, Note_off_c, 0, 61, 64
2, 109861, Note_on_c, 0, 63, 36
2, 109866, Note_on_c, 0, 68, 42
2, 109866, Note_on_c, 0, 51, 36
2, 109871, Control_c, 0, 64, 0
2, 109878, Note_on_c, 0, 44, 31
2, 109887, Control_c, 0, 64, 127
2, 109910, Note_off_c, 0, 63, 64
2, 109913, Note_on_c, 0, 66, 28
2, 109923, Note_off_c, 0, 51, 64
2, 109931, Note_off_c, 0, 44, 64
2, 109931, Note_off_c, 0, 68, 64
2, 109967, Note_on_c, 0, 64, 39
2, 110012, Note_on_c, 0, 51, 32
2, 110015, Note_on_c, 0, 68, 44
2, 110016, Note_on_c, 0, 44, 36
2, 110028, Note_on_c, 0, 63, 42
2, 110033, Control_c, 0, 64, 0
2, 110039, Note_off_c, 0, 66, 64
2, 110045, Note_off_c, 0, 64, 64
2, 110079, Control_c, 0, 64, 127
2, 110137, Note_off_c, 0, 68, 64
2, 110205, Note_off_c, 0, 63, 64
2, 110231, Note_off_c, 0, 44, 64
2, 110234, Note_off_c, 0, 51, 64
2, 110316, Note_on_c, 0, 51, 36
2, 110320, Control_c, 0, 64, 0
2, 110326, Note_on_c, 0, 60, 46
2, 110326, Note_on_c, 0, 44, 36
2, 110332, Note_on_c, 0, 68, 31
2, 110340, Control_c, 0, 64, 127
2, 110378, Note_on_c, 0, 61, 36
2, 110385, Note_off_c, 0, 44, 64
2, 110385, Note_off_c, 0, 51, 64
2, 110388, Note_off_c, 0, 60, 64
2, 110422, Note_off_c, 0, 68, 64
2, 110422, Note_on_c, 0, 60, 46
2, 110428, Note_off_c, 0, 61, 64
2, 110450, Note_on_c, 0, 68, 40
2, 110456, Control_c, 0, 64, 0
2, 110466, Note_on_c, 0, 58, 49
2, 110466, Note_on_c, 0, 51, 28
2, 110473, Note_on_c, 0, 44, 31
2, 110477, Note_off_c, 0, 60, 64
2, 110486, Control_c, 0, 64, 127
2, 110520, Note_off_c, 0, 44, 64
2, 110523, Note_off_c, 0, 51, 64
2, 110534, Note_off_c, 0, 68, 64
2, 110544, Note_off_c, 0, 58, 64
2, 110602, Note_on_c, 0, 60, 44
2, 110605, Note_on_c, 0, 68, 44
2, 110610, Note_on_c, 0, 51, 29
2, 110617, Note_on_c, 0, 44, 23
2, 110661, Note_on_c, 0, 61, 49
2, 110663, Note_off_c, 0, 51, 64
2, 110665, Note_off_c, 0, 44, 64
2, 110672, Note_off_c, 0, 68, 64
2, 110672, Note_off_c, 0, 60, 64
2, 110725, Note_off_c, 0, 61, 64
2, 110738, Note_on_c, 0, 63, 44
2, 110745, Note_on_c, 0, 68, 48
2, 110747, Note_on_c, 0, 51, 24
2, 110751, Control_c, 0, 64, 0
2, 110757, Note_on_c, 0, 44, 29
2, 110777, Control_c, 0, 64, 127
2, 110800, Note_off_c, 0, 63, 64
2, 110805, Note_off_c, 0, 51, 64
2, 110808, Note_off_c, 0, 44, 64
2, 110813, Note_on_c, 0, 60, 46
2, 110846, Note_off_c, 0, 68, 64
2, 110880, Note_on_c, 0, 63, 37
2, 110889, Note_off_c, 0, 60, 64
2, 110894, Note_on_c, 0, 61, 49
2, 110899, Note_on_c, 0, 68, 23
2, 110899, Note_on_c, 0, 51, 28
2, 110902, Note_on_c, 0, 44, 22
2, 110911, Note_off_c, 0, 63, 64
2, 110967, Note_off_c, 0, 44, 64
2, 110971, Note_off_c, 0, 51, 64
2, 110977, Note_on_c, 0, 60, 49
2, 110980, Note_off_c, 0, 61, 64
2, 110983, Note_off_c, 0, 68, 64
2, 111035, Note_on_c, 0, 61, 49
2, 111039, Note_off_c, 0, 60, 64
2, 111048, Note_on_c, 0, 68, 18
2, 111050, Note_on_c, 0, 51, 36
2, 111065, Note_on_c, 0, 44, 19
2, 111094, Note_off_c, 0, 68, 64
2, 111108, Note_off_c, 0, 44, 64
2, 111111, Note_off_c, 0, 61, 64
2, 111127, Note_off_c, 0, 51, 64
2, 111128, Note_on_c, 0, 58, 55
2, 111169, Note_off_c, 0, 58, 64
2, 111216, Note_on_c, 0, 51, 36
2, 111222, Note_on_c, 0, 44, 36
2, 111224, Note_on_c, 0, 68, 36
2, 111224, Note_on_c, 0, 60, 49
2, 111229, Control_c, 0, 64, 0
2, 111254, Note_on_c, 0, 61, 46
2, 111265, Control_c, 0, 64, 127
2, 111268, Note_off_c, 0, 60, 64
2, 111281, Note_off_c, 0, 44, 64
2, 111285, Note_off_c, 0, 51, 64
2, 111301, Note_on_c, 0, 60, 48
2, 111307, Note_off_c, 0, 61, 64
2, 111327, Note_off_c, 0, 68, 64
2, 111347, Note_on_c, 0, 68, 40
2, 111352, Note_on_c, 0, 58, 53
2, 111358, Note_on_c, 0, 51, 29
2, 111363, Note_off_c, 0, 60, 64
2, 111363, Control_c, 0, 64, 0
2, 111376, Note_on_c, 0, 44, 22
2, 111380, Control_c, 0, 64, 127
2, 111428, Note_off_c, 0, 44, 64
2, 111442, Note_off_c, 0, 51, 64
2, 111449, Note_off_c, 0, 68, 64
2, 111451, Note_off_c, 0, 58, 64
2, 111488, Note_on_c, 0, 51, 31
2, 111491, Note_on_c, 0, 60, 42
2, 111492, Note_on_c, 0, 68, 36
2, 111492, Note_on_c, 0, 44, 36
2, 111573, Note_on_c, 0, 61, 46
2, 111576, Note_off_c, 0, 51, 64
2, 111578, Note_off_c, 0, 44, 64
2, 111586, Note_off_c, 0, 60, 64
2, 111593, Note_off_c, 0, 68, 64
2, 111631, Note_off_c, 0, 61, 64
2, 111669, Note_on_c, 0, 51, 24
2, 111672, Control_c, 0, 64, 0
2, 111680, Note_on_c, 0, 44, 20
2, 111684, Note_on_c, 0, 63, 36
2, 111695, Note_on_c, 0, 68, 35
2, 111708, Control_c, 0, 64, 127
2, 111722, Note_off_c, 0, 68, 64
2, 111722, Note_off_c, 0, 63, 64
2, 111731, Note_off_c, 0, 51, 64
2, 111737, Note_off_c, 0, 44, 64
2, 111753, Note_on_c, 0, 68, 37
2, 111753, Note_on_c, 0, 66, 44
2, 111786, Note_off_c, 0, 68, 64
2, 111806, Note_off_c, 0, 66, 64
2, 111821, Note_on_c, 0, 64, 42
2, 111826, Note_on_c, 0, 68, 42
2, 111870, Note_off_c, 0, 68, 64
2, 111872, Note_off_c, 0, 64, 64
2, 111904, Note_on_c, 0, 68, 44
2, 111914, Note_on_c, 0, 63, 40
2, 111934, Note_on_c, 0, 44, 19
2, 111938, Note_on_c, 0, 51, 16
2, 111939, Control_c, 0, 64, 0
2, 111986, Control_c, 0, 64, 127
2, 112016, Note_off_c, 0, 63, 64
2, 112031, Note_off_c, 0, 68, 64
2, 112125, Note_off_c, 0, 44, 64
2, 112142, Note_off_c, 0, 51, 64
2, 112198, Note_on_c, 0, 68, 55
2, 112402, Note_on_c, 0, 48, 52
2, 112404, Control_c, 0, 64, 0
2, 112420, Note_on_c, 0, 80, 59
2, 112461, Control_c, 0, 64, 127
2, 112472, Note_off_c, 0, 68, 64
2, 112570, Note_on_c, 0, 81, 46
2, 112574, Note_off_c, 0, 80, 64
2, 112600, Note_on_c, 0, 56, 37
2, 112600, Control_c, 0, 64, 0
2, 112614, Note_on_c, 0, 78, 55
2, 112614, Note_on_c, 0, 63, 42
2, 112620, Note_on_c, 0, 66, 28
2, 112628, Note_off_c, 0, 81, 64
2, 112642, Note_off_c, 0, 48, 64
2, 112652, Control_c, 0, 64, 127
2, 112660, Note_off_c, 0, 56, 64
2, 112668, Note_off_c, 0, 66, 64
2, 112670, Note_off_c, 0, 63, 64
2, 112753, Note_on_c, 0, 56, 41
2, 112759, Note_on_c, 0, 66, 50
2, 112766, Note_on_c, 0, 63, 33
2, 112783, Note_off_c, 0, 63, 64
2, 112790, Note_off_c, 0, 66, 64
2, 112796, Note_off_c, 0, 56, 64
2, 112833, Note_on_c, 0, 80, 46
2, 112836, Note_off_c, 0, 78, 64
2, 112885, Control_c, 0, 64, 0
2, 112890, Note_on_c, 0, 49, 48
2, 112892, Note_on_c, 0, 76, 55
2, 112902, Note_off_c, 0, 80, 64
2, 112924, Control_c, 0, 64, 127
2, 112993, Note_on_c, 0, 80, 44
2, 112996, Note_off_c, 0, 76, 64
2, 113021, Note_on_c, 0, 56, 31
2, 113023, Note_on_c, 0, 73, 57
2, 113026, Control_c, 0, 64, 0
2, 113032, Note_on_c, 0, 61, 44
2, 113039, Note_on_c, 0, 64, 23
2, 113045, Control_c, 0, 64, 127
2, 113053, Note_off_c, 0, 80, 64
2, 113072, Note_off_c, 0, 56, 64
2, 113082, Note_off_c, 0, 61, 64
2, 113091, Note_off_c, 0, 64, 64
2, 113130, Note_off_c, 0, 49, 64
2, 113168, Note_off_c, 0, 73, 64
2, 113168, Note_on_c, 0, 76, 46
2, 113168, Note_on_c, 0, 61, 40
2, 113172, Note_on_c, 0, 64, 33
2, 113172, Note_on_c, 0, 56, 44
2, 113192, Note_off_c, 0, 61, 64
2, 113207, Note_off_c, 0, 64, 64
2, 113212, Note_off_c, 0, 56, 64
2, 113297, Note_off_c, 0, 76, 64
2, 113300, Note_on_c, 0, 80, 52
2, 113307, Note_on_c, 0, 48, 46
2, 113312, Control_c, 0, 64, 0
2, 113336, Control_c, 0, 64, 127
2, 113397, Note_off_c, 0, 80, 64
2, 113402, Note_on_c, 0, 81, 52
2, 113438, Control_c, 0, 64, 0
2, 113439, Note_on_c, 0, 56, 50
2, 113445, Note_on_c, 0, 78, 52
2, 113450, Note_on_c, 0, 66, 35
2, 113450, Note_on_c, 0, 63, 22
2, 113460, Note_off_c, 0, 81, 64
2, 113478, Control_c, 0, 64, 127
2, 113485, Note_off_c, 0, 56, 64
2, 113492, Note_off_c, 0, 63, 64
2, 113504, Note_off_c, 0, 66, 64
2, 113547, Note_off_c, 0, 48, 64
2, 113584, Note_on_c, 0, 63, 48
2, 113588, Note_on_c, 0, 66, 41
2, 113589, Note_on_c, 0, 56, 44
2, 113591, Note_on_c, 0, 80, 52
2, 113598, Note_off_c, 0, 78, 64
2, 113619, Note_off_c, 0, 63, 64
2, 113621, Note_off_c, 0, 66, 64
2, 113635, Note_off_c, 0, 56, 64
2, 113719, Note_on_c, 0, 76, 44
2, 113724, Note_on_c, 0, 49, 44
2, 113734, Note_off_c, 0, 80, 64
2, 113741, Control_c, 0, 64, 0
2, 113764, Control_c, 0, 64, 127
2, 113791, Note_on_c, 0, 78, 44
2, 113795, Note_off_c, 0, 76, 64
2, 113825, Note_on_c, 0, 80, 41
2, 113840, Note_off_c, 0, 78, 64
2, 113859, Note_off_c, 0, 80, 64
2, 113886, Note_on_c, 0, 80, 55
2, 113900, Control_c, 0, 64, 0
2, 113916, Note_on_c, 0, 64, 37
2, 113917, Note_on_c, 0, 61, 35
2, 113921, Note_on_c, 0, 73, 55
2, 113921, Note_on_c, 0, 56, 27
2, 113939, Note_off_c, 0, 80, 64
2, 113960, Control_c, 0, 64, 127
2, 113964, Note_off_c, 0, 49, 64
2, 114012, Note_off_c, 0, 61, 64
2, 114017, Note_off_c, 0, 56, 64
2, 114022, Note_off_c, 0, 64, 64
2, 114136, Note_off_c, 0, 73, 64
2, 114157, Note_on_c, 0, 74, 58
2, 114248, Note_on_c, 0, 75, 58
2, 114248, Note_on_c, 0, 43, 55
2, 114253, Control_c, 0, 64, 0
2, 114267, Note_off_c, 0, 74, 64
2, 114301, Control_c, 0, 64, 127
2, 114346, Control_c, 0, 64, 0
2, 114354, Note_on_c, 0, 76, 61
2, 114368, Note_off_c, 0, 75, 64
2, 114383, Note_on_c, 0, 58, 55
2, 114386, Note_on_c, 0, 61, 55
2, 114392, Note_on_c, 0, 51, 44
2, 114400, Note_on_c, 0, 73, 70
2, 114408, Note_off_c, 0, 58, 64
2, 114417, Note_off_c, 0, 51, 64
2, 114423, Note_off_c, 0, 76, 64
2, 114428, Note_off_c, 0, 61, 64
2, 114488, Note_off_c, 0, 43, 64
2, 114516, Note_on_c, 0, 61, 48
2, 114521, Note_on_c, 0, 51, 52
2, 114531, Note_on_c, 0, 58, 57
2, 114546, Control_c, 0, 64, 127
2, 114554, Note_off_c, 0, 58, 64
2, 114564, Note_off_c, 0, 61, 64
2, 114567, Note_off_c, 0, 51, 64
2, 114602, Note_on_c, 0, 75, 52
2, 114610, Note_off_c, 0, 73, 64
2, 114627, Control_c, 0, 64, 0
2, 114647, Note_on_c, 0, 72, 58
2, 114663, Note_off_c, 0, 75, 64
2, 114666, Note_on_c, 0, 44, 66
2, 114696, Control_c, 0, 64, 127
2, 114748, Note_on_c, 0, 75, 59
2, 114755, Note_off_c, 0, 72, 64
2, 114773, Control_c, 0, 64, 0
2, 114793, Note_on_c, 0, 68, 66
2, 114796, Note_on_c, 0, 51, 53
2, 114800, Note_on_c, 0, 54, 52
2, 114808, Note_off_c, 0, 75, 64
2, 114808, Note_on_c, 0, 60, 52
2, 114818, Control_c, 0, 64, 127
2, 114843, Note_off_c, 0, 51, 64
2, 114854, Note_off_c, 0, 60, 64
2, 114854, Note_off_c, 0, 54, 64
2, 114906, Note_off_c, 0, 44, 64
2, 114917, Note_off_c, 0, 68, 64
2, 114931, Note_on_c, 0, 71, 57
2, 114945, Note_on_c, 0, 54, 53
2, 114948, Note_on_c, 0, 60, 57
2, 114956, Note_on_c, 0, 51, 45
2, 114967, Note_on_c, 0, 69, 58
2, 114968, Note_off_c, 0, 71, 64
2, 114989, Note_off_c, 0, 51, 64
2, 114990, Note_off_c, 0, 60, 64
2, 114992, Note_off_c, 0, 54, 64
2, 114997, Note_on_c, 0, 71, 70
2, 115000, Note_off_c, 0, 69, 64
2, 115031, Note_off_c, 0, 71, 64
2, 115035, Note_on_c, 0, 69, 70
2, 115058, Note_on_c, 0, 71, 70
2, 115064, Note_off_c, 0, 69, 64
2, 115094, Note_on_c, 0, 69, 63
2, 115097, Note_off_c, 0, 71, 64
2, 115117, Note_on_c, 0, 44, 44
2, 115120, Note_on_c, 0, 68, 58
2, 115120, Control_c, 0, 64, 0
2, 115127, Note_off_c, 0, 69, 64
2, 115169, Control_c, 0, 64, 127
2, 115199, Note_off_c, 0, 68, 64
2, 115245, Note_on_c, 0, 66, 54
2, 115265, Control_c, 0, 64, 0
2, 115277, Note_on_c, 0, 51, 49
2, 115282, Note_on_c, 0, 54, 48
2, 115285, Note_on_c, 0, 63, 79
2, 115293, Note_on_c, 0, 60, 53
2, 115294, Note_off_c, 0, 66, 64
2, 115310, Control_c, 0, 64, 127
2, 115338, Note_off_c, 0, 54, 64
2, 115338, Note_off_c, 0, 51, 64
2, 115340, Note_off_c, 0, 60, 64
2, 115357, Note_off_c, 0, 44, 64
2, 115435, Note_on_c, 0, 68, 70
2, 115442, Note_on_c, 0, 60, 48
2, 115444, Note_on_c, 0, 54, 44
2, 115444, Note_on_c, 0, 51, 55
2, 115464, Note_off_c, 0, 63, 64
2, 115478, Note_off_c, 0, 54, 64
2, 115480, Note_off_c, 0, 60, 64
2, 115484, Note_off_c, 0, 51, 64
2, 115487, Note_off_c, 0, 68, 64
2, 115497, Control_c, 0, 64, 127
2, 115542, Control_c, 0, 64, 0
2, 115586, Note_on_c, 0, 68, 57
2, 115625, Note_on_c, 0, 61, 67
2, 115625, Note_on_c, 0, 37, 50
2, 115639, Control_c, 0, 64, 0
2, 115652, Note_off_c, 0, 68, 64
2, 115685, Control_c, 0, 64, 127
2, 115807, Note_on_c, 0, 49, 23
2, 115822, Note_off_c, 0, 61, 64
2, 115851, Note_on_c, 0, 56, 48
2, 115865, Note_off_c, 0, 37, 64
2, 115880, Note_on_c, 0, 64, 35
2, 115883, Note_off_c, 0, 49, 64
2, 116024, Note_on_c, 0, 68, 50
2, 116036, Note_off_c, 0, 64, 64
2, 116040, Note_off_c, 0, 56, 64
2, 116172, Control_c, 0, 64, 0
2, 116178, Note_on_c, 0, 80, 46
2, 116181, Note_on_c, 0, 48, 48
2, 116222, Control_c, 0, 64, 127
2, 116240, Note_off_c, 0, 68, 64
2, 116252, Note_on_c, 0, 81, 46
2, 116275, Note_off_c, 0, 80, 64
2, 116289, Control_c, 0, 64, 0
2, 116312, Note_on_c, 0, 78, 52
2, 116318, Note_on_c, 0, 56, 35
2, 116321, Note_off_c, 0, 81, 64
2, 116328, Note_on_c, 0, 63, 35
2, 116331, Note_on_c, 0, 66, 18
2, 116358, Note_off_c, 0, 56, 64
2, 116365, Control_c, 0, 64, 127
2, 116372, Note_off_c, 0, 66, 64
2, 116372, Note_off_c, 0, 63, 64
2, 116421, Note_off_c, 0, 48, 64
2, 116449, Control_c, 0, 64, 0
2, 116465, Note_on_c, 0, 56, 39
2, 116468, Note_on_c, 0, 80, 46
2, 116468, Note_on_c, 0, 66, 28
2, 116468, Control_c, 0, 64, 127
2, 116472, Note_on_c, 0, 63, 35
2, 116480, Note_off_c, 0, 78, 64
2, 116495, Note_off_c, 0, 66, 64
2, 116502, Note_off_c, 0, 63, 64
2, 116509, Note_off_c, 0, 56, 64
2, 116598, Note_on_c, 0, 76, 46
2, 116603, Note_off_c, 0, 80, 64
2, 116603, Note_on_c, 0, 49, 50
2, 116609, Control_c, 0, 64, 0
2, 116628, Control_c, 0, 64, 127
2, 116667, Note_on_c, 0, 80, 55
2, 116678, Note_off_c, 0, 76, 64
2, 116707, Control_c, 0, 64, 0
2, 116722, Note_on_c, 0, 73, 57
2, 116722, Note_on_c, 0, 64, 37
2, 116722, Note_on_c, 0, 56, 44
2, 116724, Note_on_c, 0, 61, 44
2, 116735, Note_off_c, 0, 80, 64
2, 116750, Note_off_c, 0, 56, 64
2, 116754, Note_off_c, 0, 61, 64
2, 116754, Note_off_c, 0, 64, 64
2, 116754, Control_c, 0, 64, 127
2, 116843, Note_off_c, 0, 49, 64
2, 116856, Note_on_c, 0, 64, 33
2, 116864, Note_on_c, 0, 76, 50
2, 116864, Note_on_c, 0, 56, 27
2, 116870, Note_on_c, 0, 61, 33
2, 116887, Note_off_c, 0, 73, 64
2, 116901, Note_off_c, 0, 61, 64
2, 116902, Note_off_c, 0, 56, 64
2, 116902, Note_off_c, 0, 64, 64
2, 116985, Note_off_c, 0, 76, 64
2, 117002, Note_on_c, 0, 80, 44
2, 117018, Note_on_c, 0, 48, 42
2, 117020, Control_c, 0, 64, 0
2, 117033, Control_c, 0, 64, 127
2, 117056, Note_off_c, 0, 80, 64
2, 117059, Note_on_c, 0, 83, 52
2, 117093, Note_on_c, 0, 81, 48
2, 117118, Note_off_c, 0, 83, 64
2, 117136, Note_on_c, 0, 80, 61
2, 117156, Note_off_c, 0, 81, 64
2, 117160, Note_on_c, 0, 63, 50
2, 117160, Note_on_c, 0, 56, 46
2, 117162, Note_on_c, 0, 66, 52
2, 117176, Control_c, 0, 64, 0
2, 117183, Note_on_c, 0, 75, 55
2, 117204, Note_off_c, 0, 56, 64
2, 117206, Note_off_c, 0, 63, 64
2, 117206, Note_off_c, 0, 80, 64
2, 117212, Note_off_c, 0, 66, 64
2, 117215, Control_c, 0, 64, 127
2, 117258, Note_off_c, 0, 48, 64
2, 117344, Note_on_c, 0, 63, 44
2, 117352, Note_on_c, 0, 66, 44
2, 117352, Note_on_c, 0, 56, 42
2, 117353, Note_on_c, 0, 80, 49
2, 117380, Note_off_c, 0, 66, 64
2, 117384, Note_off_c, 0, 63, 64
2, 117388, Note_off_c, 0, 56, 64
2, 117388, Note_off_c, 0, 75, 64
2, 117445, Note_off_c, 0, 80, 64
2, 117450, Note_on_c, 0, 80, 39
2, 117492, Note_on_c, 0, 76, 36
2, 117506, Note_off_c, 0, 80, 64
2, 117516, Note_on_c, 0, 49, 35
2, 117526, Control_c, 0, 64, 0
2, 117568, Note_on_c, 0, 78, 46
2, 117569, Control_c, 0, 64, 127
2, 117584, Note_off_c, 0, 76, 64
2, 117612, Note_on_c, 0, 80, 48
2, 117632, Note_off_c, 0, 78, 64
2, 117653, Note_off_c, 0, 80, 64
2, 117679, Note_on_c, 0, 80, 53
2, 117715, Note_on_c, 0, 61, 22
2, 117716, Note_on_c, 0, 73, 55
2, 117716, Note_on_c, 0, 64, 23
2, 117716, Note_on_c, 0, 56, 22
2, 117728, Control_c, 0, 64, 0
2, 117742, Note_off_c, 0, 80, 64
2, 117756, Note_off_c, 0, 49, 64
2, 117761, Control_c, 0, 64, 127
2, 117803, Note_off_c, 0, 64, 64
2, 117803, Note_off_c, 0, 61, 64
2, 117806, Note_off_c, 0, 56, 64
2, 117917, Note_off_c, 0, 73, 64
2, 117963, Note_on_c, 0, 74, 63
2, 118059, Note_on_c, 0, 75, 62
2, 118063, Note_on_c, 0, 43, 66
2, 118082, Note_off_c, 0, 74, 64
2, 118193, Note_on_c, 0, 76, 66
2, 118197, Note_off_c, 0, 75, 64
2, 118211, Control_c, 0, 64, 0
2, 118218, Note_on_c, 0, 51, 58
2, 118220, Note_on_c, 0, 61, 29
2, 118225, Note_on_c, 0, 58, 62
2, 118228, Note_on_c, 0, 73, 79
2, 118249, Note_off_c, 0, 76, 64
2, 118265, Control_c, 0, 64, 127
2, 118270, Note_off_c, 0, 61, 64
2, 118273, Note_off_c, 0, 58, 64
2, 118277, Note_off_c, 0, 51, 64
2, 118303, Note_off_c, 0, 43, 64
2, 118370, Note_on_c, 0, 61, 49
2, 118372, Note_on_c, 0, 51, 62
2, 118379, Note_on_c, 0, 75, 70
2, 118383, Note_on_c, 0, 58, 66
2, 118390, Note_off_c, 0, 73, 64
2, 118406, Note_off_c, 0, 58, 64
2, 118411, Note_off_c, 0, 61, 64
2, 118420, Note_off_c, 0, 51, 64
2, 118521, Note_on_c, 0, 72, 71
2, 118528, Note_on_c, 0, 44, 66
2, 118532, Note_off_c, 0, 75, 64
2, 118535, Control_c, 0, 64, 0
2, 118599, Control_c, 0, 64, 127
2, 118650, Note_on_c, 0, 75, 75
2, 118657, Note_off_c, 0, 72, 64
2, 118681, Note_on_c, 0, 51, 59
2, 118687, Note_on_c, 0, 54, 62
2, 118693, Note_on_c, 0, 68, 79
2, 118696, Note_on_c, 0, 60, 44
2, 118709, Note_off_c, 0, 75, 64
2, 118732, Note_off_c, 0, 51, 64
2, 118736, Note_off_c, 0, 60, 64
2, 118738, Note_off_c, 0, 54, 64
2, 118768, Note_off_c, 0, 44, 64
2, 118794, Note_off_c, 0, 68, 64
2, 118871, Note_on_c, 0, 71, 57
2, 118907, Note_on_c, 0, 69, 58
2, 118908, Note_off_c, 0, 71, 64
2, 118937, Note_on_c, 0, 71, 70
2, 118940, Note_off_c, 0, 69, 64
2, 118971, Note_off_c, 0, 71, 64
2, 118975, Note_on_c, 0, 69, 70
2, 118998, Note_on_c, 0, 71, 70
2, 119004, Note_off_c, 0, 69, 64
2, 119037, Note_off_c, 0, 71, 64
2, 119044, Note_on_c, 0, 69, 63
2, 119067, Control_c, 0, 64, 0
2, 119073, Note_on_c, 0, 68, 89
2, 119075, Note_on_c, 0, 44, 66
2, 119077, Note_off_c, 0, 69, 64
2, 119127, Control_c, 0, 64, 127
2, 119147, Note_off_c, 0, 68, 64
2, 119233, Note_on_c, 0, 66, 66
2, 119264, Control_c, 0, 64, 0
2, 119285, Note_on_c, 0, 54, 57
2, 119286, Note_on_c, 0, 63, 79
2, 119289, Note_on_c, 0, 51, 52
2, 119290, Note_on_c, 0, 60, 59
2, 119297, Note_off_c, 0, 66, 64
2, 119315, Note_off_c, 0, 44, 64
2, 119318, Control_c, 0, 64, 127
2, 119337, Note_off_c, 0, 51, 64
2, 119347, Note_off_c, 0, 54, 64
2, 119352, Note_off_c, 0, 60, 64
2, 119512, Note_on_c, 0, 68, 74
2, 119513, Note_on_c, 0, 54, 44
2, 119519, Note_on_c, 0, 51, 45
2, 119522, Note_on_c, 0, 60, 48
2, 119526, Note_off_c, 0, 63, 64
2, 119563, Note_off_c, 0, 60, 64
2, 119565, Note_off_c, 0, 54, 64
2, 119566, Note_off_c, 0, 51, 64
2, 119581, Note_off_c, 0, 68, 64
2, 119761, Note_on_c, 0, 37, 66
2, 119794, Control_c, 0, 64, 0
2, 119807, Note_on_c, 0, 68, 70
2, 119861, Control_c, 0, 64, 127
2, 119880, Note_on_c, 0, 61, 79
2, 119895, Note_off_c, 0, 68, 64
2, 120065, Note_on_c, 0, 49, 41
2, 120131, Note_on_c, 0, 56, 48
2, 120200, Note_on_c, 0, 64, 54
2, 120268, Note_off_c, 0, 49, 64
2, 120273, Note_off_c, 0, 56, 64
2, 120275, Note_off_c, 0, 64, 64
2, 120465, Note_off_c, 0, 61, 64
2, 120597, Note_off_c, 0, 37, 64
2, 123004, Control_c, 0, 64, 0
2, 123016, Control_c, 0, 64, 127
2, 123370, Note_on_c, 0, 59, 66
2, 123370, Note_on_c, 0, 52, 62
2, 123391, Note_off_c, 0, 52, 64
2, 123393, Note_off_c, 0, 59, 64
2, 123522, Note_on_c, 0, 59, 63
2, 123522, Note_on_c, 0, 52, 67
2, 123541, Note_off_c, 0, 59, 64
2, 123545, Note_off_c, 0, 52, 64
2, 123609, Control_c, 0, 64, 0
2, 123670, Note_on_c, 0, 59, 88
2, 123672, Note_on_c, 0, 52, 88
2, 123676, Control_c, 0, 64, 127
2, 123691, Note_off_c, 0, 59, 64
2, 123693, Note_off_c, 0, 52, 64
2, 123812, Note_on_c, 0, 59, 65
2, 123812, Note_on_c, 0, 52, 62
2, 123834, Note_off_c, 0, 59, 64
2, 123836, Note_off_c, 0, 52, 64
2, 123965, Note_on_c, 0, 59, 70
2, 123966, Note_on_c, 0, 52, 67
2, 123986, Note_off_c, 0, 59, 64
2, 123988, Note_off_c, 0, 52, 64
2, 124108, Note_on_c, 0, 59, 89
2, 124110, Note_on_c, 0, 52, 88
2, 124132, Note_off_c, 0, 59, 64
2, 124135, Note_off_c, 0, 52, 64
2, 124246, Note_on_c, 0, 59, 70
2, 124248, Note_on_c, 0, 52, 66
2, 124268, Note_off_c, 0, 59, 64
2, 124271, Note_off_c, 0, 52, 64
2, 124340, Control_c, 0, 64, 0
2, 124373, Control_c, 0, 64, 127
2, 124385, Note_on_c, 0, 59, 92
2, 124389, Note_on_c, 0, 52, 88
2, 124409, Note_off_c, 0, 59, 64
2, 124412, Note_off_c, 0, 52, 64
2, 124525, Note_on_c, 0, 59, 66
2, 124525, Note_on_c, 0, 52, 61
2, 124544, Note_off_c, 0, 59, 64
2, 124546, Note_off_c, 0, 52, 64
2, 124635, Control_c, 0, 64, 0
2, 124660, Note_on_c, 0, 59, 92
2, 124662, Note_on_c, 0, 52, 88
2, 124673, Control_c, 0, 64, 127
2, 124684, Note_off_c, 0, 59, 64
2, 124685, Note_off_c, 0, 52, 64
2, 124803, Note_on_c, 0, 52, 58
2, 124805, Note_on_c, 0, 59, 63
2, 124826, Note_off_c, 0, 52, 64
2, 124827, Note_off_c, 0, 59, 64
2, 124938, Note_on_c, 0, 52, 83
2, 124941, Note_on_c, 0, 59, 88
2, 124966, Note_off_c, 0, 52, 64
2, 124967, Note_off_c, 0, 59, 64
2, 125064, Note_on_c, 0, 49, 74
2, 125069, Note_on_c, 0, 52, 61
2, 125072, Note_on_c, 0, 59, 57
2, 125098, Note_off_c, 0, 52, 64
2, 125104, Note_off_c, 0, 59, 64
2, 125140, Note_on_c, 0, 47, 76
2, 125147, Control_c, 0, 64, 0
2, 125149, Note_off_c, 0, 49, 64
2, 125192, Note_on_c, 0, 59, 55
2, 125192, Note_on_c, 0, 52, 57
2, 125197, Note_on_c, 0, 45, 72
2, 125207, Note_off_c, 0, 47, 64
2, 125209, Control_c, 0, 64, 127
2, 125217, Note_off_c, 0, 52, 64
2, 125217, Note_off_c, 0, 59, 64
2, 125243, Note_off_c, 0, 45, 64
2, 125319, Note_on_c, 0, 52, 74
2, 125325, Note_on_c, 0, 59, 66
2, 125332, Note_on_c, 0, 44, 98
2, 125344, Note_off_c, 0, 52, 64
2, 125347, Note_off_c, 0, 59, 64
2, 125356, Control_c, 0, 64, 0
2, 125378, Note_off_c, 0, 44, 64
2, 125425, Note_on_c, 0, 44, 88
2, 125449, Note_on_c, 0, 42, 80
2, 125458, Note_on_c, 0, 52, 58
2, 125462, Note_on_c, 0, 59, 48
2, 125469, Note_off_c, 0, 44, 64
2, 125485, Note_on_c, 0, 40, 72
2, 125487, Note_off_c, 0, 52, 64
2, 125488, Note_off_c, 0, 59, 64
2, 125497, Note_off_c, 0, 42, 64
2, 125599, Note_on_c, 0, 59, 57
2, 125599, Note_on_c, 0, 52, 57
2, 125622, Note_off_c, 0, 59, 64
2, 125626, Note_off_c, 0, 52, 64
2, 125716, Control_c, 0, 64, 127
2, 125722, Note_on_c, 0, 59, 70
2, 125722, Note_on_c, 0, 52, 72
2, 125750, Note_off_c, 0, 52, 64
2, 125751, Note_off_c, 0, 59, 64
2, 125857, Note_on_c, 0, 59, 55
2, 125857, Note_on_c, 0, 52, 63
2, 125857, Note_on_c, 0, 49, 75
2, 125866, Control_c, 0, 64, 0
2, 125877, Note_off_c, 0, 40, 64
2, 125886, Note_off_c, 0, 59, 64
2, 125889, Note_off_c, 0, 52, 64
2, 125953, Note_on_c, 0, 47, 79
2, 125962, Note_off_c, 0, 49, 64
2, 125985, Note_on_c, 0, 52, 58
2, 125986, Note_on_c, 0, 59, 57
2, 125999, Note_on_c, 0, 45, 74
2, 126007, Note_off_c, 0, 47, 64
2, 126011, Note_off_c, 0, 59, 64
2, 126011, Note_off_c, 0, 52, 64
2, 126045, Note_off_c, 0, 45, 64
2, 126112, Note_on_c, 0, 59, 66
2, 126114, Note_on_c, 0, 52, 76
2, 126120, Note_on_c, 0, 44, 96
2, 126133, Note_off_c, 0, 59, 64
2, 126139, Note_off_c, 0, 52, 64
2, 126166, Note_off_c, 0, 44, 64
2, 126213, Note_on_c, 0, 44, 79
2, 126237, Note_on_c, 0, 42, 81
2, 126252, Note_on_c, 0, 59, 52
2, 126253, Note_off_c, 0, 44, 64
2, 126253, Note_on_c, 0, 52, 58
2, 126266, Note_on_c, 0, 40, 75
2, 126278, Note_off_c, 0, 59, 64
2, 126288, Note_off_c, 0, 52, 64
2, 126288, Note_off_c, 0, 42, 64
2, 126290, Control_c, 0, 64, 127
2, 126348, Control_c, 0, 64, 0
2, 126378, Control_c, 0, 64, 127
2, 126401, Note_on_c, 0, 59, 62
2, 126403, Note_on_c, 0, 52, 62
2, 126434, Note_off_c, 0, 59, 64
2, 126435, Note_off_c, 0, 52, 64
2, 126529, Note_on_c, 0, 52, 65
2, 126531, Note_on_c, 0, 59, 63
2, 126563, Note_off_c, 0, 40, 64
2, 126645, Note_off_c, 0, 52, 64
2, 126647, Note_off_c, 0, 59, 64
2, 126682, Note_on_c, 0, 40, 84
2, 126684, Note_on_c, 0, 56, 78
2, 126687, Note_on_c, 0, 59, 68
2, 126734, Note_off_c, 0, 59, 64
2, 126739, Note_off_c, 0, 56, 64
2, 126784, Note_on_c, 0, 59, 61
2, 126785, Note_on_c, 0, 64, 55
2, 126807, Note_off_c, 0, 59, 64
2, 126808, Note_off_c, 0, 64, 64
2, 126832, Note_on_c, 0, 59, 55
2, 126834, Note_on_c, 0, 68, 104
2, 126834, Note_on_c, 0, 52, 68
2, 126836, Note_on_c, 0, 64, 80
2, 126875, Note_off_c, 0, 52, 64
2, 126878, Note_off_c, 0, 59, 64
2, 126897, Note_off_c, 0, 68, 64
2, 126909, Note_off_c, 0, 64, 64
2, 126960, Note_on_c, 0, 68, 81
2, 126967, Note_on_c, 0, 71, 102
2, 126970, Note_on_c, 0, 59, 58
2, 126970, Note_on_c, 0, 52, 65
2, 127006, Note_off_c, 0, 59, 64
2, 127019, Note_off_c, 0, 52, 64
2, 127021, Note_off_c, 0, 68, 64
2, 127026, Note_off_c, 0, 71, 64
2, 127034, Note_off_c, 0, 40, 64
2, 127091, Control_c, 0, 64, 0
2, 127096, Note_on_c, 0, 76, 91
2, 127097, Note_on_c, 0, 71, 83
2, 127108, Note_on_c, 0, 59, 61
2, 127111, Note_on_c, 0, 52, 71
2, 127112, Control_c, 0, 64, 127
2, 127151, Note_off_c, 0, 59, 64
2, 127155, Note_off_c, 0, 76, 64
2, 127156, Note_off_c, 0, 52, 64
2, 127156, Note_off_c, 0, 71, 64
2, 127208, Note_on_c, 0, 68, 76
2, 127208, Note_on_c, 0, 64, 70
2, 127231, Note_off_c, 0, 64, 64
2, 127231, Note_off_c, 0, 68, 64
2, 127238, Note_on_c, 0, 59, 67
2, 127238, Note_on_c, 0, 52, 67
2, 127252, Note_on_c, 0, 68, 84
2, 127253, Note_on_c, 0, 71, 104
2, 127291, Note_off_c, 0, 52, 64
2, 127292, Note_off_c, 0, 59, 64
2, 127315, Note_off_c, 0, 68, 64
2, 127316, Note_off_c, 0, 71, 64
2, 127367, Control_c, 0, 64, 0
2, 127384, Note_on_c, 0, 76, 96
2, 127384, Note_on_c, 0, 71, 76
2, 127388, Note_on_c, 0, 64, 67
2, 127388, Note_on_c, 0, 59, 65
2, 127388, Note_on_c, 0, 56, 59
2, 127388, Note_on_c, 0, 52, 59
2, 127399, Control_c, 0, 64, 127
2, 127432, Note_off_c, 0, 64, 64
2, 127440, Note_off_c, 0, 71, 64
2, 127442, Note_off_c, 0, 59, 64
2, 127445, Note_off_c, 0, 76, 64
2, 127450, Note_off_c, 0, 52, 64
2, 127450, Note_off_c, 0, 56, 64
2, 127504, Note_on_c, 0, 78, 89
2, 127504, Note_on_c, 0, 75, 67
2, 127512, Note_on_c, 0, 63, 48
2, 127512, Note_on_c, 0, 59, 40
2, 127512, Note_on_c, 0, 57, 41
2, 127512, Note_on_c, 0, 52, 37
2, 127540, Note_on_c, 0, 80, 83
2, 127546, Note_off_c, 0, 78, 64
2, 127564, Note_off_c, 0, 52, 64
2, 127564, Note_off_c, 0, 57, 64
2, 127564, Note_off_c, 0, 59, 64
2, 127571, Note_off_c, 0, 63, 64
2, 127590, Note_on_c, 0, 78, 87
2, 127595, Note_off_c, 0, 80, 64
2, 127660, Note_on_c, 0, 57, 41
2, 127660, Note_on_c, 0, 59, 40
2, 127661, Note_on_c, 0, 52, 37
2, 127661, Note_on_c, 0, 63, 45
2, 127665, Note_on_c, 0, 74, 66
2, 127668, Note_on_c, 0, 77, 68
2, 127679, Note_off_c, 0, 75, 64
2, 127682, Note_off_c, 0, 78, 64
2, 127701, Note_off_c, 0, 57, 64
2, 127701, Note_off_c, 0, 52, 64
2, 127708, Note_off_c, 0, 59, 64
2, 127710, Note_off_c, 0, 63, 64
2, 127731, Note_on_c, 0, 78, 72
2, 127732, Note_on_c, 0, 75, 66
2, 127734, Note_off_c, 0, 77, 64
2, 127735, Note_off_c, 0, 74, 64
2, 127800, Note_on_c, 0, 76, 70
2, 127800, Note_on_c, 0, 63, 55
2, 127804, Note_on_c, 0, 59, 46
2, 127804, Note_on_c, 0, 57, 46
2, 127804, Note_on_c, 0, 52, 33
2, 127805, Note_on_c, 0, 80, 75
2, 127810, Note_off_c, 0, 78, 64
2, 127814, Note_off_c, 0, 75, 64
2, 127839, Note_off_c, 0, 57, 64
2, 127840, Note_off_c, 0, 52, 64
2, 127845, Note_off_c, 0, 59, 64
2, 127851, Note_off_c, 0, 63, 64
2, 127872, Note_on_c, 0, 78, 67
2, 127878, Note_off_c, 0, 80, 64
2, 127878, Note_on_c, 0, 81, 81
2, 127880, Note_off_c, 0, 76, 64
2, 127928, Note_off_c, 0, 81, 64
2, 127932, Control_c, 0, 64, 0
2, 127937, Note_on_c, 0, 81, 80
2, 127938, Note_off_c, 0, 78, 64
2, 127942, Note_on_c, 0, 85, 98
2, 127943, Note_on_c, 0, 56, 54
2, 127944, Note_on_c, 0, 64, 62
2, 127944, Note_on_c, 0, 59, 54
2, 127944, Note_on_c, 0, 52, 52
2, 127972, Control_c, 0, 64, 127
2, 127980, Note_off_c, 0, 64, 64
2, 127985, Note_off_c, 0, 59, 64
2, 127992, Note_off_c, 0, 52, 64
2, 127995, Note_off_c, 0, 56, 64
2, 128052, Note_on_c, 0, 83, 83
2, 128052, Note_on_c, 0, 80, 70
2, 128055, Note_off_c, 0, 81, 64
2, 128060, Note_off_c, 0, 85, 64
2, 128064, Control_c, 0, 64, 0
2, 128072, Note_off_c, 0, 80, 64
2, 128080, Note_on_c, 0, 80, 100
2, 128080, Note_on_c, 0, 76, 74
2, 128080, Note_on_c, 0, 64, 49
2, 128087, Note_on_c, 0, 56, 41
2, 128088, Note_on_c, 0, 59, 70
2, 128090, Note_on_c, 0, 52, 52
2, 128101, Note_off_c, 0, 83, 64
2, 128110, Control_c, 0, 64, 127
2, 128115, Note_off_c, 0, 64, 64
2, 128116, Note_off_c, 0, 59, 64
2, 128125, Note_off_c, 0, 56, 64
2, 128126, Note_off_c, 0, 52, 64
2, 128212, Note_on_c, 0, 59, 62
2, 128215, Note_on_c, 0, 64, 66
2, 128215, Note_on_c, 0, 56, 62
2, 128218, Note_on_c, 0, 52, 66
2, 128252, Note_off_c, 0, 59, 64
2, 128260, Note_off_c, 0, 52, 64
2, 128263, Note_off_c, 0, 56, 64
2, 128268, Note_off_c, 0, 64, 64
2, 128331, Control_c, 0, 64, 0
2, 128334, Note_off_c, 0, 76, 64
2, 128339, Note_off_c, 0, 80, 64
2, 128351, Note_on_c, 0, 78, 79
2, 128355, Note_on_c, 0, 75, 80
2, 128355, Note_on_c, 0, 52, 27
2, 128362, Note_on_c, 0, 63, 44
2, 128362, Control_c, 0, 64, 127
2, 128369, Note_on_c, 0, 59, 35
2, 128369, Note_on_c, 0, 57, 36
2, 128387, Note_on_c, 0, 80, 71
2, 128397, Note_off_c, 0, 59, 64
2, 128397, Note_off_c, 0, 78, 64
2, 128399, Note_off_c, 0, 57, 64
2, 128403, Note_off_c, 0, 52, 64
2, 128404, Note_off_c, 0, 63, 64
2, 128424, Note_on_c, 0, 78, 70
2, 128436, Note_off_c, 0, 80, 64
2, 128488, Note_on_c, 0, 77, 80
2, 128488, Note_on_c, 0, 74, 80
2, 128488, Note_on_c, 0, 52, 33
2, 128492, Note_off_c, 0, 75, 64
2, 128494, Note_on_c, 0, 63, 44
2, 128497, Note_on_c, 0, 59, 39
2, 128497, Note_on_c, 0, 57, 39
2, 128504, Note_off_c, 0, 78, 64
2, 128525, Note_off_c, 0, 59, 64
2, 128526, Note_off_c, 0, 57, 64
2, 128528, Note_off_c, 0, 63, 64
2, 128532, Note_off_c, 0, 52, 64
2, 128552, Note_on_c, 0, 78, 87
2, 128555, Note_on_c, 0, 75, 80
2, 128557, Note_off_c, 0, 74, 64
2, 128559, Note_off_c, 0, 77, 64
2, 128620, Note_on_c, 0, 76, 83
2, 128620, Note_on_c, 0, 80, 87
2, 128626, Note_off_c, 0, 75, 64
2, 128626, Note_on_c, 0, 63, 54
2, 128632, Note_on_c, 0, 57, 50
2, 128633, Note_off_c, 0, 78, 64
2, 128638, Note_on_c, 0, 52, 46
2, 128638, Note_on_c, 0, 59, 46
2, 128667, Note_off_c, 0, 59, 64
2, 128667, Note_off_c, 0, 52, 64
2, 128673, Note_off_c, 0, 57, 64
2, 128683, Note_off_c, 0, 63, 64
2, 128695, Note_off_c, 0, 76, 64
2, 128700, Note_on_c, 0, 81, 83
2, 128700, Note_on_c, 0, 78, 75
2, 128703, Note_off_c, 0, 80, 64
2, 128756, Note_off_c, 0, 81, 64
2, 128762, Note_off_c, 0, 78, 64
2, 128763, Control_c, 0, 64, 0
2, 128769, Note_on_c, 0, 81, 85
2, 128772, Note_on_c, 0, 85, 98
2, 128776, Note_on_c, 0, 64, 63
2, 128776, Note_on_c, 0, 56, 58
2, 128778, Note_on_c, 0, 59, 54
2, 128778, Note_on_c, 0, 52, 63
2, 128791, Control_c, 0, 64, 127
2, 128813, Note_off_c, 0, 59, 64
2, 128813, Note_off_c, 0, 56, 64
2, 128813, Note_off_c, 0, 64, 64
2, 128817, Note_off_c, 0, 52, 64
2, 128872, Control_c, 0, 64, 0
2, 128876, Note_on_c, 0, 80, 85
2, 128879, Note_on_c, 0, 83, 78
2, 128881, Note_off_c, 0, 81, 64
2, 128884, Note_off_c, 0, 85, 64
2, 128896, Control_c, 0, 64, 127
2, 128910, Note_off_c, 0, 80, 64
2, 128915, Note_on_c, 0, 59, 59
2, 128920, Note_on_c, 0, 80, 92
2, 128920, Note_on_c, 0, 76, 74
2, 128920, Note_on_c, 0, 64, 61
2, 128920, Note_on_c, 0, 56, 57
2, 128927, Note_on_c, 0, 52, 46
2, 128946, Note_off_c, 0, 83, 64
2, 128948, Note_off_c, 0, 56, 64
2, 128950, Note_off_c, 0, 52, 64
2, 128951, Note_off_c, 0, 59, 64
2, 128954, Note_off_c, 0, 64, 64
2, 129042, Note_on_c, 0, 64, 59
2, 129042, Note_on_c, 0, 59, 50
2, 129046, Note_on_c, 0, 56, 66
2, 129050, Note_on_c, 0, 52, 44
2, 129068, Note_off_c, 0, 59, 64
2, 129069, Note_off_c, 0, 52, 64
2, 129076, Note_off_c, 0, 64, 64
2, 129078, Note_off_c, 0, 56, 64
2, 129173, Control_c, 0, 64, 0
2, 129176, Note_on_c, 0, 75, 81
2, 129179, Note_on_c, 0, 78, 80
2, 129183, Note_off_c, 0, 76, 64
2, 129183, Note_off_c, 0, 80, 64
2, 129192, Note_on_c, 0, 42, 88
2, 129197, Control_c, 0, 64, 127
2, 129284, Note_on_c, 0, 73, 72
2, 129287, Note_on_c, 0, 76, 88
2, 129290, Note_off_c, 0, 75, 64
2, 129293, Note_off_c, 0, 78, 64
2, 129301, Control_c, 0, 64, 0
2, 129313, Note_off_c, 0, 73, 64
2, 129320, Note_on_c, 0, 73, 88
2, 129324, Note_on_c, 0, 64, 71
2, 129324, Note_on_c, 0, 61, 71
2, 129328, Note_on_c, 0, 54, 74
2, 129331, Note_on_c, 0, 66, 96
2, 129336, Note_off_c, 0, 76, 64
2, 129344, Control_c, 0, 64, 127
2, 129367, Note_off_c, 0, 61, 64
2, 129369, Note_off_c, 0, 64, 64
2, 129377, Note_off_c, 0, 54, 64
2, 129453, Note_on_c, 0, 61, 67
2, 129457, Note_on_c, 0, 64, 75
2, 129457, Note_on_c, 0, 54, 80
2, 129489, Note_off_c, 0, 64, 64
2, 129493, Note_off_c, 0, 61, 64
2, 129495, Note_off_c, 0, 54, 64
2, 129591, Note_on_c, 0, 47, 68
2, 129591, Note_on_c, 0, 75, 83
2, 129592, Note_on_c, 0, 71, 80
2, 129596, Note_on_c, 0, 59, 72
2, 129596, Control_c, 0, 64, 0
2, 129597, Note_off_c, 0, 73, 64
2, 129599, Note_off_c, 0, 42, 64
2, 129603, Note_on_c, 0, 54, 67
2, 129608, Note_off_c, 0, 66, 64
2, 129614, Control_c, 0, 64, 127
2, 129630, Note_off_c, 0, 54, 64
2, 129630, Note_off_c, 0, 59, 64
2, 129636, Note_off_c, 0, 47, 64
2, 129697, Note_off_c, 0, 71, 64
2, 129702, Note_on_c, 0, 66, 80
2, 129705, Note_on_c, 0, 71, 80
2, 129719, Note_off_c, 0, 75, 64
2, 129729, Control_c, 0, 64, 0
2, 129737, Note_on_c, 0, 54, 84
2, 129746, Note_on_c, 0, 59, 88
2, 129746, Note_on_c, 0, 47, 78
2, 129752, Control_c, 0, 64, 127
2, 129759, Note_off_c, 0, 66, 64
2, 129778, Note_off_c, 0, 54, 64
2, 129786, Note_off_c, 0, 47, 64
2, 129841, Control_c, 0, 64, 0
2, 129877, Note_on_c, 0, 54, 84
2, 129877, Note_on_c, 0, 47, 78
2, 129888, Control_c, 0, 64, 127
2, 129923, Note_off_c, 0, 54, 64
2, 129929, Note_off_c, 0, 47, 64
2, 129985, Note_off_c, 0, 59, 64
2, 130005, Note_on_c, 0, 44, 94
2, 130012, Note_on_c, 0, 54, 52
2, 130013, Note_on_c, 0, 47, 48
2, 130023, Note_on_c, 0, 59, 83
2, 130024, Control_c, 0, 64, 0
2, 130030, Note_off_c, 0, 71, 64
2, 130038, Control_c, 0, 64, 127
2, 130058, Note_off_c, 0, 59, 64
2, 130060, Note_off_c, 0, 54, 64
2, 130066, Note_on_c, 0, 42, 83
2, 130069, Note_off_c, 0, 47, 64
2, 130092, Note_off_c, 0, 44, 64
2, 130100, Control_c, 0, 64, 0
2, 130128, Note_on_c, 0, 40, 80
2, 130136, Note_on_c, 0, 54, 55
2, 130141, Note_off_c, 0, 42, 64
2, 130141, Note_on_c, 0, 47, 45
2, 130173, Note_off_c, 0, 40, 64
2, 130174, Note_off_c, 0, 54, 64
2, 130177, Note_off_c, 0, 47, 64
2, 130269, Note_on_c, 0, 39, 96
2, 130272, Note_on_c, 0, 54, 85
2, 130272, Note_on_c, 0, 47, 80
2, 130300, Note_off_c, 0, 39, 64
2, 130301, Note_off_c, 0, 54, 64
2, 130308, Note_off_c, 0, 47, 64
2, 130370, Note_on_c, 0, 39, 74
2, 130385, Note_on_c, 0, 37, 75
2, 130406, Note_on_c, 0, 47, 46
2, 130407, Note_off_c, 0, 39, 64
2, 130407, Note_on_c, 0, 54, 52
2, 130416, Control_c, 0, 64, 127
2, 130426, Note_on_c, 0, 35, 80
2, 130437, Note_off_c, 0, 37, 64
2, 130444, Note_off_c, 0, 54, 64
2, 130449, Note_off_c, 0, 47, 64
2, 130551, Note_on_c, 0, 47, 52
2, 130551, Note_on_c, 0, 54, 55
2, 130588, Note_off_c, 0, 47, 64
2, 130590, Note_off_c, 0, 54, 64
2, 130643, Control_c, 0, 64, 0
2, 130685, Note_on_c, 0, 54, 96
2, 130685, Note_on_c, 0, 47, 88
2, 130689, Note_off_c, 0, 35, 64
2, 130699, Control_c, 0, 64, 127
2, 130726, Note_off_c, 0, 54, 64
2, 130731, Note_off_c, 0, 47, 64
2, 130806, Note_on_c, 0, 44, 88
2, 130806, Control_c, 0, 64, 0
2, 130815, Note_on_c, 0, 47, 55
2, 130816, Note_on_c, 0, 54, 57
2, 130822, Control_c, 0, 64, 127
2, 130856, Note_off_c, 0, 54, 64
2, 130860, Note_off_c, 0, 47, 64
2, 130871, Note_on_c, 0, 42, 74
2, 130898, Note_off_c, 0, 44, 64
2, 130923, Control_c, 0, 64, 0
2, 130937, Note_on_c, 0, 40, 66
2, 130946, Note_off_c, 0, 42, 64
2, 130950, Note_on_c, 0, 54, 57
2, 130951, Note_on_c, 0, 47, 52
2, 130984, Note_off_c, 0, 47, 64
2, 130984, Note_off_c, 0, 54, 64
2, 130990, Note_off_c, 0, 40, 64
2, 131078, Note_on_c, 0, 39, 105
2, 131086, Note_on_c, 0, 47, 88
2, 131088, Note_on_c, 0, 54, 98
2, 131113, Note_off_c, 0, 39, 64
2, 131118, Note_off_c, 0, 54, 64
2, 131118, Note_off_c, 0, 47, 64
2, 131178, Note_on_c, 0, 39, 79
2, 131202, Note_on_c, 0, 37, 83
2, 131215, Note_off_c, 0, 39, 64
2, 131216, Note_on_c, 0, 47, 55
2, 131222, Note_on_c, 0, 54, 61
2, 131225, Note_on_c, 0, 35, 71
2, 131241, Control_c, 0, 64, 127
2, 131246, Note_off_c, 0, 37, 64
2, 131255, Note_off_c, 0, 54, 64
2, 131261, Note_off_c, 0, 47, 64
2, 131292, Control_c, 0, 64, 0
2, 131333, Control_c, 0, 64, 127
2, 131352, Note_on_c, 0, 47, 52
2, 131353, Note_on_c, 0, 54, 57
2, 131395, Note_off_c, 0, 54, 64
2, 131396, Note_off_c, 0, 47, 64
2, 131463, Note_off_c, 0, 35, 64
2, 131476, Note_on_c, 0, 54, 89
2, 131480, Note_on_c, 0, 47, 88
2, 131569, Note_off_c, 0, 54, 64
2, 131585, Note_off_c, 0, 47, 64
2, 131600, Note_on_c, 0, 56, 72
2, 131600, Note_on_c, 0, 40, 79
2, 131602, Note_on_c, 0, 59, 58
2, 131648, Note_off_c, 0, 56, 64
2, 131650, Note_off_c, 0, 59, 64
2, 131700, Note_on_c, 0, 64, 74
2, 131704, Note_on_c, 0, 59, 68
2, 131728, Note_off_c, 0, 64, 64
2, 131732, Note_off_c, 0, 59, 64
2, 131732, Note_on_c, 0, 68, 100
2, 131732, Note_on_c, 0, 64, 80
2, 131740, Note_on_c, 0, 59, 70
2, 131743, Note_on_c, 0, 52, 71
2, 131786, Note_off_c, 0, 52, 64
2, 131794, Note_off_c, 0, 59, 64
2, 131795, Note_off_c, 0, 68, 64
2, 131798, Note_off_c, 0, 64, 64
2, 131852, Control_c, 0, 64, 0
2, 131864, Note_on_c, 0, 68, 89
2, 131867, Note_on_c, 0, 71, 94
2, 131872, Note_off_c, 0, 40, 64
2, 131876, Note_on_c, 0, 59, 66
2, 131876, Note_on_c, 0, 52, 72
2, 131902, Control_c, 0, 64, 127
2, 131920, Note_off_c, 0, 59, 64
2, 131922, Note_off_c, 0, 52, 64
2, 131929, Note_off_c, 0, 71, 64
2, 131931, Note_off_c, 0, 68, 64
2, 131987, Control_c, 0, 64, 0
2, 132003, Note_on_c, 0, 71, 66
2, 132005, Note_on_c, 0, 76, 74
2, 132009, Note_on_c, 0, 59, 70
2, 132013, Note_on_c, 0, 52, 72
2, 132030, Control_c, 0, 64, 127
2, 132055, Note_off_c, 0, 59, 64
2, 132062, Note_off_c, 0, 52, 64
2, 132062, Note_off_c, 0, 71, 64
2, 132064, Note_off_c, 0, 76, 64
2, 132104, Note_on_c, 0, 68, 79
2, 132104, Note_on_c, 0, 64, 72
2, 132112, Control_c, 0, 64, 0
2, 132132, Note_off_c, 0, 64, 64
2, 132132, Note_off_c, 0, 68, 64
2, 132144, Note_on_c, 0, 71, 87
2, 132144, Note_on_c, 0, 68, 78
2, 132144, Note_on_c, 0, 52, 68
2, 132146, Note_on_c, 0, 59, 71
2, 132153, Control_c, 0, 64, 127
2, 132188, Note_off_c, 0, 59, 64
2, 132192, Note_off_c, 0, 52, 64
2, 132204, Note_off_c, 0, 71, 64
2, 132207, Note_off_c, 0, 68, 64
2, 132250, Control_c, 0, 64, 0
2, 132280, Note_on_c, 0, 76, 104
2, 132280, Note_on_c, 0, 71, 93
2, 132280, Note_on_c, 0, 56, 72
2, 132282, Note_on_c, 0, 59, 65
2, 132282, Note_on_c, 0, 52, 63
2, 132284, Note_on_c, 0, 64, 71
2, 132295, Control_c, 0, 64, 127
2, 132320, Note_off_c, 0, 64, 64
2, 132324, Note_off_c, 0, 56, 64
2, 132341, Note_off_c, 0, 52, 64
2, 132342, Note_off_c, 0, 59, 64
2, 132354, Note_off_c, 0, 71, 64
2, 132354, Note_off_c, 0, 76, 64
2, 132398, Control_c, 0, 64, 0
2, 132410, Control_c, 0, 64, 127
2, 132416, Note_on_c, 0, 75, 91
2, 132418, Note_on_c, 0, 78, 97
2, 132418, Note_on_c, 0, 52, 71
2, 132426, Note_on_c, 0, 59, 42
2, 132429, Note_on_c, 0, 57, 41
2, 132433, Note_on_c, 0, 63, 41
2, 132449, Note_on_c, 0, 80, 72
2, 132459, Note_off_c, 0, 52, 64
2, 132460, Note_off_c, 0, 78, 64
2, 132463, Note_off_c, 0, 63, 64
2, 132465, Note_off_c, 0, 57, 64
2, 132465, Note_off_c, 0, 59, 64
2, 132485, Note_on_c, 0, 78, 78
2, 132501, Note_off_c, 0, 80, 64
2, 132547, Note_on_c, 0, 52, 32
2, 132548, Note_on_c, 0, 77, 78
2, 132550, Note_on_c, 0, 74, 81
2, 132556, Note_off_c, 0, 75, 64
2, 132556, Note_on_c, 0, 57, 41
2, 132561, Note_on_c, 0, 63, 36
2, 132564, Note_on_c, 0, 59, 37
2, 132568, Note_off_c, 0, 78, 64
2, 132585, Note_off_c, 0, 59, 64
2, 132592, Note_off_c, 0, 52, 64
2, 132593, Note_off_c, 0, 57, 64
2, 132594, Note_off_c, 0, 63, 64
2, 132621, Note_on_c, 0, 75, 79
2, 132624, Note_on_c, 0, 78, 85
2, 132629, Note_off_c, 0, 74, 64
2, 132637, Note_off_c, 0, 77, 64
2, 132688, Note_on_c, 0, 76, 44
2, 132692, Note_on_c, 0, 80, 83
2, 132695, Note_off_c, 0, 75, 64
2, 132697, Note_on_c, 0, 63, 58
2, 132700, Note_on_c, 0, 57, 50
2, 132706, Note_on_c, 0, 59, 49
2, 132708, Note_on_c, 0, 52, 40
2, 132710, Note_off_c, 0, 78, 64
2, 132730, Note_off_c, 0, 59, 64
2, 132732, Note_off_c, 0, 52, 64
2, 132736, Note_off_c, 0, 57, 64
2, 132737, Note_off_c, 0, 63, 64
2, 132764, Note_on_c, 0, 81, 87
2, 132768, Note_on_c, 0, 78, 75
2, 132770, Note_off_c, 0, 80, 64
2, 132773, Note_off_c, 0, 76, 64
2, 132813, Control_c, 0, 64, 0
2, 132832, Note_off_c, 0, 81, 64
2, 132832, Note_on_c, 0, 85, 97
2, 132835, Note_on_c, 0, 56, 53
2, 132837, Note_on_c, 0, 81, 80
2, 132837, Note_on_c, 0, 64, 61
2, 132837, Note_on_c, 0, 59, 57
2, 132837, Note_on_c, 0, 52, 53
2, 132847, Note_off_c, 0, 78, 64
2, 132862, Control_c, 0, 64, 127
2, 132871, Note_off_c, 0, 64, 64
2, 132875, Note_off_c, 0, 52, 64
2, 132875, Note_off_c, 0, 59, 64
2, 132875, Note_off_c, 0, 56, 64
2, 132938, Note_off_c, 0, 85, 64
2, 132939, Note_on_c, 0, 83, 81
2, 132940, Note_on_c, 0, 80, 78
2, 132943, Note_off_c, 0, 81, 64
2, 132954, Control_c, 0, 64, 0
2, 132964, Note_off_c, 0, 80, 64
2, 132968, Note_on_c, 0, 76, 78
2, 132975, Note_on_c, 0, 80, 96
2, 132979, Note_on_c, 0, 56, 70
2, 132985, Note_on_c, 0, 59, 62
2, 132989, Note_on_c, 0, 64, 62
2, 132989, Note_on_c, 0, 52, 67
2, 132997, Note_off_c, 0, 83, 64
2, 133002, Control_c, 0, 64, 127
2, 133012, Note_off_c, 0, 52, 64
2, 133016, Note_off_c, 0, 59, 64
2, 133021, Note_off_c, 0, 64, 64
2, 133021, Note_off_c, 0, 56, 64
2, 133105, Note_on_c, 0, 64, 68
2, 133109, Note_on_c, 0, 52, 54
2, 133113, Note_on_c, 0, 56, 45
2, 133116, Note_on_c, 0, 59, 52
2, 133151, Note_off_c, 0, 59, 64
2, 133152, Note_off_c, 0, 56, 64
2, 133156, Note_off_c, 0, 64, 64
2, 133163, Note_off_c, 0, 52, 64
2, 133229, Control_c, 0, 64, 0
2, 133240, Note_on_c, 0, 78, 80
2, 133243, Note_on_c, 0, 75, 80
2, 133252, Note_on_c, 0, 63, 42
2, 133252, Note_on_c, 0, 57, 37
2, 133257, Note_off_c, 0, 80, 64
2, 133257, Note_on_c, 0, 59, 37
2, 133260, Note_on_c, 0, 52, 15
2, 133262, Note_off_c, 0, 76, 64
2, 133264, Control_c, 0, 64, 127
2, 133280, Note_on_c, 0, 80, 75
2, 133287, Note_off_c, 0, 52, 64
2, 133287, Note_off_c, 0, 78, 64
2, 133293, Note_off_c, 0, 59, 64
2, 133297, Note_off_c, 0, 57, 64
2, 133297, Note_off_c, 0, 63, 64
2, 133317, Note_on_c, 0, 78, 70
2, 133326, Note_off_c, 0, 80, 64
2, 133378, Note_on_c, 0, 74, 81
2, 133378, Note_on_c, 0, 77, 84
2, 133381, Note_on_c, 0, 63, 49
2, 133388, Note_on_c, 0, 59, 44
2, 133388, Note_on_c, 0, 57, 41
2, 133388, Note_on_c, 0, 52, 44
2, 133390, Note_off_c, 0, 78, 64
2, 133392, Note_off_c, 0, 75, 64
2, 133410, Note_off_c, 0, 52, 64
2, 133417, Note_off_c, 0, 59, 64
2, 133419, Note_off_c, 0, 63, 64
2, 133420, Note_off_c, 0, 57, 64
2, 133449, Note_on_c, 0, 75, 89
2, 133451, Note_on_c, 0, 78, 91
2, 133456, Note_off_c, 0, 77, 64
2, 133456, Note_off_c, 0, 74, 64
2, 133512, Note_on_c, 0, 76, 81
2, 133512, Note_on_c, 0, 63, 54
2, 133516, Note_on_c, 0, 80, 91
2, 133516, Note_on_c, 0, 57, 48
2, 133522, Note_on_c, 0, 59, 42
2, 133524, Note_on_c, 0, 52, 58
2, 133526, Note_off_c, 0, 78, 64
2, 133531, Note_off_c, 0, 75, 64
2, 133556, Note_off_c, 0, 52, 64
2, 133560, Note_off_c, 0, 59, 64
2, 133560, Note_off_c, 0, 57, 64
2, 133565, Note_off_c, 0, 63, 64
2, 133582, Note_on_c, 0, 81, 75
2, 133587, Note_on_c, 0, 78, 74
2, 133594, Note_off_c, 0, 76, 64
2, 133598, Note_off_c, 0, 80, 64
2, 133640, Control_c, 0, 64, 0
2, 133642, Note_off_c, 0, 81, 64
2, 133652, Note_on_c, 0, 59, 54
2, 133653, Note_on_c, 0, 64, 63
2, 133653, Note_on_c, 0, 56, 52
2, 133653, Note_on_c, 0, 52, 58
2, 133660, Note_on_c, 0, 85, 100
2, 133660, Note_on_c, 0, 81, 85
2, 133675, Control_c, 0, 64, 127
2, 133683, Note_off_c, 0, 78, 64
2, 133691, Note_off_c, 0, 56, 64
2, 133691, Note_off_c, 0, 59, 64
2, 133692, Note_off_c, 0, 52, 64
2, 133696, Note_off_c, 0, 64, 64
2, 133756, Note_on_c, 0, 80, 48
2, 133762, Note_on_c, 0, 83, 72
2, 133765, Note_off_c, 0, 81, 64
2, 133765, Note_off_c, 0, 85, 64
2, 133772, Control_c, 0, 64, 0
2, 133782, Note_off_c, 0, 80, 64
2, 133785, Control_c, 0, 64, 127
2, 133792, Note_on_c, 0, 80, 94
2, 133792, Note_on_c, 0, 76, 67
2, 133800, Note_on_c, 0, 59, 46
2, 133800, Note_on_c, 0, 56, 66
2, 133804, Note_on_c, 0, 64, 71
2, 133805, Note_on_c, 0, 52, 66
2, 133816, Note_off_c, 0, 83, 64
2, 133835, Note_off_c, 0, 59, 64
2, 133839, Note_off_c, 0, 56, 64
2, 133840, Note_off_c, 0, 64, 64
2, 133841, Note_off_c, 0, 52, 64
2, 133928, Note_on_c, 0, 56, 65
2, 133931, Note_on_c, 0, 59, 58
2, 133932, Note_on_c, 0, 64, 79
2, 133932, Note_on_c, 0, 52, 65
2, 133954, Note_off_c, 0, 59, 64
2, 133960, Note_off_c, 0, 64, 64
2, 133967, Note_off_c, 0, 52, 64
2, 133967, Note_off_c, 0, 56, 64
2, 134052, Control_c, 0, 64, 0
2, 134060, Note_on_c, 0, 75, 72
2, 134062, Note_on_c, 0, 78, 83
2, 134062, Note_on_c, 0, 42, 96
2, 134076, Note_off_c, 0, 76, 64
2, 134076, Note_off_c, 0, 80, 64
2, 134083, Control_c, 0, 64, 127
2, 134164, Note_on_c, 0, 76, 83
2, 134164, Note_on_c, 0, 73, 92
2, 134177, Note_off_c, 0, 75, 64
2, 134179, Note_off_c, 0, 78, 64
2, 134180, Control_c, 0, 64, 0
2, 134197, Note_off_c, 0, 73, 64
2, 134201, Note_on_c, 0, 61, 80
2, 134201, Note_on_c, 0, 54, 80
2, 134204, Note_on_c, 0, 73, 84
2, 134209, Note_on_c, 0, 66, 89
2, 134209, Note_on_c, 0, 64, 66
2, 134211, Note_off_c, 0, 76, 64
2, 134223, Control_c, 0, 64, 127
2, 134251, Note_off_c, 0, 54, 64
2, 134256, Note_off_c, 0, 64, 64
2, 134258, Note_off_c, 0, 61, 64
2, 134330, Note_off_c, 0, 42, 64
2, 134332, Note_on_c, 0, 64, 85
2, 134332, Note_on_c, 0, 61, 78
2, 134337, Note_on_c, 0, 54, 80
2, 134365, Note_off_c, 0, 64, 64
2, 134368, Note_off_c, 0, 54, 64
2, 134371, Note_off_c, 0, 61, 64
2, 134456, Note_on_c, 0, 71, 72
2, 134463, Note_on_c, 0, 75, 94
2, 134467, Control_c, 0, 64, 0
2, 134474, Note_on_c, 0, 59, 67
2, 134474, Note_on_c, 0, 54, 75
2, 134474, Note_on_c, 0, 47, 74
2, 134478, Note_off_c, 0, 73, 64
2, 134483, Note_off_c, 0, 66, 64
2, 134488, Control_c, 0, 64, 127
2, 134504, Note_off_c, 0, 59, 64
2, 134505, Note_off_c, 0, 54, 64
2, 134513, Note_off_c, 0, 47, 64
2, 134565, Note_off_c, 0, 71, 64
2, 134576, Note_on_c, 0, 71, 57
2, 134580, Note_on_c, 0, 66, 75
2, 134608, Note_on_c, 0, 54, 84
2, 134608, Note_on_c, 0, 47, 83
2, 134616, Note_off_c, 0, 75, 64
2, 134623, Note_on_c, 0, 59, 101
2, 134637, Note_off_c, 0, 66, 64
2, 134646, Note_off_c, 0, 54, 64
2, 134650, Note_off_c, 0, 47, 64
2, 134717, Control_c, 0, 64, 0
2, 134740, Note_on_c, 0, 54, 88
2, 134740, Note_on_c, 0, 47, 78
2, 134769, Control_c, 0, 64, 127
2, 134794, Note_off_c, 0, 54, 64
2, 134800, Note_off_c, 0, 47, 64
2, 134820, Note_off_c, 0, 71, 64
2, 134874, Control_c, 0, 64, 0
2, 134879, Note_on_c, 0, 44, 80
2, 134884, Note_on_c, 0, 54, 52
2, 134885, Note_on_c, 0, 47, 49
2, 134891, Note_on_c, 0, 59, 81
2, 134900, Note_off_c, 0, 59, 64
2, 134906, Control_c, 0, 64, 127
2, 134929, Note_off_c, 0, 59, 64
2, 134935, Note_off_c, 0, 54, 64
2, 134943, Note_off_c, 0, 47, 64
2, 134943, Note_on_c, 0, 42, 65
2, 134958, Note_off_c, 0, 44, 64
2, 135004, Note_on_c, 0, 40, 84
2, 135006, Control_c, 0, 64, 0
2, 135016, Note_off_c, 0, 42, 64
2, 135019, Note_on_c, 0, 54, 52
2, 135024, Note_on_c, 0, 47, 46
2, 135047, Note_off_c, 0, 40, 64
2, 135055, Note_off_c, 0, 54, 64
2, 135057, Note_off_c, 0, 47, 64
2, 135063, Control_c, 0, 64, 127
2, 135088, Control_c, 0, 64, 0
2, 135149, Note_on_c, 0, 47, 88
2, 135154, Note_on_c, 0, 54, 88
2, 135155, Note_on_c, 0, 39, 98
2, 135176, Note_off_c, 0, 39, 64
2, 135186, Note_off_c, 0, 54, 64
2, 135186, Note_off_c, 0, 47, 64
2, 135253, Note_on_c, 0, 39, 92
2, 135277, Note_on_c, 0, 37, 96
2, 135291, Note_on_c, 0, 47, 67
2, 135293, Note_on_c, 0, 54, 70
2, 135297, Note_off_c, 0, 39, 64
2, 135312, Note_on_c, 0, 35, 75
2, 135324, Note_off_c, 0, 37, 64
2, 135329, Note_off_c, 0, 54, 64
2, 135332, Note_off_c, 0, 47, 64
2, 135434, Note_on_c, 0, 54, 70
2, 135434, Note_on_c, 0, 47, 66
2, 135448, Control_c, 0, 64, 127
2, 135474, Note_off_c, 0, 54, 64
2, 135478, Note_off_c, 0, 47, 64
2, 135563, Note_on_c, 0, 54, 84
2, 135565, Note_on_c, 0, 47, 79
2, 135586, Note_off_c, 0, 35, 64
2, 135607, Note_off_c, 0, 54, 64
2, 135610, Note_off_c, 0, 47, 64
2, 135682, Note_on_c, 0, 44, 92
2, 135686, Note_on_c, 0, 47, 63
2, 135695, Note_on_c, 0, 54, 66
2, 135700, Control_c, 0, 64, 0
2, 135746, Note_off_c, 0, 54, 64
2, 135751, Note_off_c, 0, 47, 64
2, 135781, Note_on_c, 0, 42, 88
2, 135798, Note_off_c, 0, 44, 64
2, 135820, Note_on_c, 0, 54, 66
2, 135821, Note_on_c, 0, 47, 66
2, 135824, Note_on_c, 0, 40, 85
2, 135834, Note_off_c, 0, 42, 64
2, 135859, Note_off_c, 0, 47, 64
2, 135862, Note_off_c, 0, 54, 64
2, 135865, Note_off_c, 0, 40, 64
2, 135946, Note_on_c, 0, 39, 101
2, 135950, Note_on_c, 0, 54, 89
2, 135957, Note_on_c, 0, 47, 83
2, 135973, Note_off_c, 0, 39, 64
2, 135983, Note_off_c, 0, 54, 64
2, 135986, Note_off_c, 0, 47, 64
2, 136042, Note_on_c, 0, 39, 89
2, 136060, Note_on_c, 0, 37, 98
2, 136075, Note_off_c, 0, 39, 64
2, 136085, Note_on_c, 0, 47, 66
2, 136089, Note_on_c, 0, 54, 70
2, 136094, Note_on_c, 0, 35, 85
2, 136108, Note_off_c, 0, 37, 64
2, 136130, Note_off_c, 0, 54, 64
2, 136131, Note_off_c, 0, 47, 64
2, 136138, Control_c, 0, 64, 127
2, 136220, Note_off_c, 0, 35, 64
2, 136220, Note_on_c, 0, 54, 70
2, 136226, Note_on_c, 0, 47, 66
2, 136271, Note_off_c, 0, 54, 64
2, 136272, Note_off_c, 0, 47, 64
2, 136356, Note_on_c, 0, 54, 75
2, 136363, Note_on_c, 0, 47, 74
2, 136409, Note_off_c, 0, 47, 64
2, 136418, Note_off_c, 0, 54, 64
2, 136478, Control_c, 0, 64, 0
2, 136488, Note_on_c, 0, 78, 89
2, 136488, Note_on_c, 0, 75, 83
2, 136488, Note_on_c, 0, 66, 85
2, 136493, Note_on_c, 0, 35, 83
2, 136495, Note_on_c, 0, 71, 88
2, 136496, Note_on_c, 0, 47, 74
2, 136514, Control_c, 0, 64, 127
2, 136519, Note_off_c, 0, 75, 64
2, 136526, Note_off_c, 0, 66, 64
2, 136528, Note_off_c, 0, 71, 64
2, 136540, Note_off_c, 0, 78, 64
2, 136594, Note_on_c, 0, 78, 92
2, 136596, Note_on_c, 0, 75, 89
2, 136602, Note_on_c, 0, 71, 78
2, 136628, Note_off_c, 0, 78, 64
2, 136630, Note_off_c, 0, 75, 64
2, 136636, Note_off_c, 0, 71, 64
2, 136645, Note_on_c, 0, 78, 88
2, 136648, Note_on_c, 0, 59, 72
2, 136649, Note_on_c, 0, 71, 101
2, 136654, Note_on_c, 0, 66, 84
2, 136655, Note_on_c, 0, 74, 96
2, 136667, Control_c, 0, 64, 0
2, 136688, Note_off_c, 0, 35, 64
2, 136693, Note_off_c, 0, 47, 64
2, 136756, Control_c, 0, 64, 127
2, 136789, Note_off_c, 0, 78, 64
2, 136796, Note_off_c, 0, 71, 64
2, 136800, Note_off_c, 0, 66, 64
2, 136803, Note_off_c, 0, 59, 64
2, 136805, Note_off_c, 0, 74, 64
2, 136988, Note_on_c, 0, 81, 88
2, 136992, Note_on_c, 0, 69, 78
2, 136993, Note_on_c, 0, 73, 92
2, 136996, Note_on_c, 0, 42, 88
2, 136997, Note_on_c, 0, 54, 96
2, 137008, Control_c, 0, 64, 127
2, 137035, Note_off_c, 0, 69, 64
2, 137036, Note_off_c, 0, 73, 64
2, 137044, Note_off_c, 0, 81, 64
2, 137092, Note_on_c, 0, 81, 36
2, 137096, Note_on_c, 0, 73, 101
2, 137115, Note_off_c, 0, 81, 64
2, 137118, Note_off_c, 0, 42, 64
2, 137119, Note_off_c, 0, 73, 64
2, 137121, Note_off_c, 0, 54, 64
2, 137140, Note_on_c, 0, 61, 83
2, 137140, Note_on_c, 0, 81, 96
2, 137144, Note_on_c, 0, 54, 70
2, 137146, Note_on_c, 0, 73, 87
2, 137148, Note_on_c, 0, 66, 91
2, 137283, Note_on_c, 0, 80, 67
2, 137292, Note_on_c, 0, 71, 63
2, 137293, Note_off_c, 0, 81, 64
2, 137297, Note_off_c, 0, 61, 64
2, 137299, Note_off_c, 0, 73, 64
2, 137301, Note_off_c, 0, 54, 64
2, 137301, Note_off_c, 0, 66, 64
2, 137348, Note_on_c, 0, 78, 72
2, 137353, Note_on_c, 0, 69, 62
2, 137363, Note_off_c, 0, 80, 64
2, 137372, Note_off_c, 0, 71, 64
2, 137409, Control_c, 0, 64, 0
2, 137419, Note_on_c, 0, 37, 76
2, 137425, Note_on_c, 0, 49, 70
2, 137429, Note_on_c, 0, 68, 83
2, 137429, Control_c, 0, 64, 127
2, 137435, Note_on_c, 0, 76, 76
2, 137441, Note_off_c, 0, 78, 64
2, 137450, Note_off_c, 0, 69, 64
2, 137508, Note_on_c, 0, 66, 70
2, 137511, Note_off_c, 0, 68, 64
2, 137512, Note_on_c, 0, 75, 66
2, 137517, Note_off_c, 0, 76, 64
2, 137533, Control_c, 0, 64, 0
2, 137535, Note_off_c, 0, 37, 64
2, 137536, Note_off_c, 0, 49, 64
2, 137553, Note_on_c, 0, 73, 70
2, 137559, Note_on_c, 0, 49, 66
2, 137560, Note_on_c, 0, 64, 58
2, 137560, Note_on_c, 0, 61, 70
2, 137560, Note_on_c, 0, 56, 58
2, 137569, Note_off_c, 0, 66, 64
2, 137573, Note_off_c, 0, 75, 64
2, 137579, Control_c, 0, 64, 127
2, 137596, Note_off_c, 0, 56, 64
2, 137607, Note_off_c, 0, 61, 64
2, 137612, Note_off_c, 0, 49, 64
2, 137681, Control_c, 0, 64, 0
2, 137697, Note_on_c, 0, 76, 66
2, 137697, Note_on_c, 0, 68, 72
2, 137697, Note_on_c, 0, 49, 63
2, 137703, Note_on_c, 0, 56, 58
2, 137705, Note_off_c, 0, 73, 64
2, 137707, Note_on_c, 0, 61, 72
2, 137712, Note_off_c, 0, 64, 64
2, 137717, Control_c, 0, 64, 127
2, 137733, Note_off_c, 0, 49, 64
2, 137734, Note_off_c, 0, 56, 64
2, 137740, Note_off_c, 0, 61, 64
2, 137812, Note_off_c, 0, 76, 64
2, 137816, Control_c, 0, 64, 0
2, 137817, Note_off_c, 0, 68, 64
2, 137831, Note_on_c, 0, 76, 72
2, 137831, Note_on_c, 0, 68, 79
2, 137838, Note_on_c, 0, 56, 70
2, 137847, Note_on_c, 0, 61, 74
2, 137847, Note_on_c, 0, 49, 63
2, 137851, Control_c, 0, 64, 127
2, 137877, Note_off_c, 0, 49, 64
2, 137880, Note_off_c, 0, 61, 64
2, 137880, Note_off_c, 0, 56, 64
2, 137928, Note_on_c, 0, 66, 71
2, 137932, Note_on_c, 0, 75, 66
2, 137943, Note_off_c, 0, 68, 64
2, 137947, Note_off_c, 0, 76, 64
2, 137949, Control_c, 0, 64, 0
2, 137966, Note_on_c, 0, 73, 52
2, 137969, Note_on_c, 0, 49, 66
2, 137974, Note_on_c, 0, 61, 71
2, 137975, Note_on_c, 0, 64, 74
2, 137975, Note_on_c, 0, 56, 48
2, 137982, Note_off_c, 0, 66, 64
2, 137984, Control_c, 0, 64, 127
2, 137986, Note_off_c, 0, 75, 64
2, 138008, Note_off_c, 0, 49, 64
2, 138013, Note_off_c, 0, 61, 64
2, 138014, Note_off_c, 0, 56, 64
2, 138092, Note_on_c, 0, 68, 53
2, 138096, Note_on_c, 0, 61, 46
2, 138096, Note_on_c, 0, 56, 57
2, 138096, Note_on_c, 0, 49, 58
2, 138098, Note_on_c, 0, 76, 67
2, 138111, Note_off_c, 0, 73, 64
2, 138117, Note_off_c, 0, 56, 64
2, 138119, Note_off_c, 0, 61, 64
2, 138120, Note_off_c, 0, 64, 64
2, 138134, Note_off_c, 0, 49, 64
2, 138229, Note_off_c, 0, 68, 64
2, 138241, Control_c, 0, 64, 0
2, 138245, Note_off_c, 0, 76, 64
2, 138247, Note_on_c, 0, 78, 94
2, 138248, Note_on_c, 0, 73, 81
2, 138248, Note_on_c, 0, 69, 85
2, 138248, Note_on_c, 0, 66, 89
2, 138254, Note_on_c, 0, 42, 80
2, 138260, Note_on_c, 0, 54, 80
2, 138279, Control_c, 0, 64, 127
2, 138281, Note_off_c, 0, 73, 64
2, 138284, Note_off_c, 0, 66, 64
2, 138287, Note_off_c, 0, 69, 64
2, 138308, Note_off_c, 0, 78, 64
2, 138369, Note_on_c, 0, 69, 88
2, 138372, Note_on_c, 0, 78, 89
2, 138372, Note_on_c, 0, 73, 88
2, 138388, Note_off_c, 0, 69, 64
2, 138390, Note_off_c, 0, 42, 64
2, 138394, Note_off_c, 0, 78, 64
2, 138397, Note_off_c, 0, 73, 64
2, 138397, Note_off_c, 0, 54, 64
2, 138420, Note_on_c, 0, 69, 93
2, 138421, Note_on_c, 0, 78, 91
2, 138424, Note_on_c, 0, 73, 91
2, 138424, Note_on_c, 0, 66, 79
2, 138424, Note_on_c, 0, 61, 70
2, 138424, Note_on_c, 0, 54, 58
2, 138430, Control_c, 0, 64, 0
2, 138468, Control_c, 0, 64, 127
2, 138588, Note_off_c, 0, 66, 64
2, 138592, Note_off_c, 0, 54, 64
2, 138592, Note_off_c, 0, 61, 64
2, 138594, Note_off_c, 0, 73, 64
2, 138599, Note_off_c, 0, 78, 64
2, 138602, Note_off_c, 0, 69, 64
2, 138620, Control_c, 0, 64, 0
2, 138736, Note_on_c, 0, 73, 92
2, 138738, Note_on_c, 0, 81, 88
2, 138743, Note_on_c, 0, 35, 88
2, 138748, Note_on_c, 0, 47, 80
2, 138761, Control_c, 0, 64, 127
2, 138817, Note_off_c, 0, 73, 64
2, 138819, Note_off_c, 0, 81, 64
2, 138844, Note_on_c, 0, 81, 88
2, 138847, Note_on_c, 0, 73, 89
2, 138879, Note_off_c, 0, 47, 64
2, 138881, Note_off_c, 0, 81, 64
2, 138884, Note_off_c, 0, 73, 64
2, 138884, Note_on_c, 0, 81, 85
2, 138888, Note_on_c, 0, 73, 81
2, 138891, Note_off_c, 0, 35, 64
2, 138896, Note_on_c, 0, 63, 72
2, 138896, Note_on_c, 0, 59, 72
2, 138898, Note_on_c, 0, 54, 89
2, 138998, Note_off_c, 0, 63, 64
2, 139000, Note_off_c, 0, 54, 64
2, 139007, Note_off_c, 0, 59, 64
2, 139034, Note_on_c, 0, 75, 66
2, 139034, Note_on_c, 0, 71, 71
2, 139036, Note_on_c, 0, 80, 65
2, 139044, Note_on_c, 0, 47, 59
2, 139045, Note_off_c, 0, 81, 64
2, 139049, Note_off_c, 0, 73, 64
2, 139094, Note_on_c, 0, 78, 66
2, 139097, Note_on_c, 0, 69, 52
2, 139100, Note_off_c, 0, 71, 64
2, 139102, Note_off_c, 0, 80, 64
2, 139165, Control_c, 0, 64, 0
2, 139173, Note_on_c, 0, 68, 45
2, 139179, Note_on_c, 0, 76, 70
2, 139183, Note_off_c, 0, 75, 64
2, 139184, Note_on_c, 0, 52, 52
2, 139188, Note_off_c, 0, 78, 64
2, 139188, Note_on_c, 0, 40, 44
2, 139189, Control_c, 0, 64, 127
2, 139191, Note_off_c, 0, 69, 64
2, 139201, Note_off_c, 0, 47, 64
2, 139264, Note_on_c, 0, 69, 27
2, 139267, Note_on_c, 0, 73, 50
2, 139272, Note_off_c, 0, 68, 64
2, 139278, Note_off_c, 0, 76, 64
2, 139291, Control_c, 0, 64, 0
2, 139304, Note_off_c, 0, 52, 64
2, 139308, Note_on_c, 0, 68, 62
2, 139312, Note_on_c, 0, 52, 44
2, 139313, Note_on_c, 0, 71, 61
2, 139313, Note_on_c, 0, 59, 44
2, 139325, Note_off_c, 0, 69, 64
2, 139325, Control_c, 0, 64, 127
2, 139327, Note_off_c, 0, 40, 64
2, 139328, Note_off_c, 0, 73, 64
2, 139346, Note_off_c, 0, 52, 64
2, 139357, Note_off_c, 0, 59, 64
2, 139441, Control_c, 0, 64, 0
2, 139450, Note_on_c, 0, 76, 62
2, 139456, Note_on_c, 0, 52, 57
2, 139458, Note_on_c, 0, 59, 48
2, 139459, Note_on_c, 0, 64, 58
2, 139463, Note_off_c, 0, 68, 64
2, 139468, Note_off_c, 0, 71, 64
2, 139474, Control_c, 0, 64, 127
2, 139491, Note_off_c, 0, 59, 64
2, 139497, Note_off_c, 0, 52, 64
2, 139542, Note_off_c, 0, 76, 64
2, 139551, Note_off_c, 0, 64, 64
2, 139580, Control_c, 0, 64, 0
2, 139592, Note_on_c, 0, 64, 71
2, 139596, Note_on_c, 0, 76, 66
2, 139598, Note_on_c, 0, 59, 62
2, 139598, Note_on_c, 0, 52, 65
2, 139609, Control_c, 0, 64, 127
2, 139631, Note_off_c, 0, 59, 64
2, 139636, Note_off_c, 0, 52, 64
2, 139672, Note_off_c, 0, 76, 64
2, 139674, Note_off_c, 0, 64, 64
2, 139688, Note_on_c, 0, 73, 58
2, 139692, Note_on_c, 0, 69, 58
2, 139716, Note_on_c, 0, 71, 63
2, 139716, Note_on_c, 0, 68, 61
2, 139729, Note_on_c, 0, 59, 61
2, 139735, Note_on_c, 0, 52, 54
2, 139746, Note_off_c, 0, 73, 64
2, 139749, Note_off_c, 0, 69, 64
2, 139783, Note_off_c, 0, 52, 64
2, 139785, Note_off_c, 0, 59, 64
2, 139856, Note_on_c, 0, 76, 65
2, 139860, Note_on_c, 0, 64, 22
2, 139864, Note_on_c, 0, 52, 66
2, 139868, Note_on_c, 0, 59, 65
2, 139871, Note_off_c, 0, 68, 64
2, 139871, Note_off_c, 0, 71, 64
2, 139903, Note_off_c, 0, 52, 64
2, 139907, Note_off_c, 0, 59, 64
2, 139936, Note_off_c, 0, 76, 64
2, 139940, Note_off_c, 0, 64, 64
2, 140001, Control_c, 0, 64, 0
2, 140010, Note_on_c, 0, 78, 74
2, 140011, Note_on_c, 0, 71, 66
2, 140012, Note_on_c, 0, 47, 58
2, 140012, Note_on_c, 0, 35, 63
2, 140015, Note_on_c, 0, 75, 65
2, 140016, Note_on_c, 0, 66, 70
2, 140039, Control_c, 0, 64, 127
2, 140094, Note_off_c, 0, 75, 64
2, 140096, Note_off_c, 0, 71, 64
2, 140112, Note_off_c, 0, 66, 64
2, 140112, Note_off_c, 0, 78, 64
2, 140128, Note_on_c, 0, 75, 58
2, 140129, Note_on_c, 0, 78, 70
2, 140132, Note_on_c, 0, 71, 70
2, 140152, Note_off_c, 0, 35, 64
2, 140155, Note_off_c, 0, 75, 64
2, 140156, Note_off_c, 0, 78, 64
2, 140158, Note_off_c, 0, 47, 64
2, 140159, Note_off_c, 0, 71, 64
2, 140168, Note_on_c, 0, 78, 70
2, 140168, Note_on_c, 0, 74, 80
2, 140168, Note_on_c, 0, 59, 65
2, 140171, Note_on_c, 0, 71, 71
2, 140172, Note_on_c, 0, 66, 83
2, 140192, Control_c, 0, 64, 0
2, 140289, Control_c, 0, 64, 127
2, 140299, Note_off_c, 0, 66, 64
2, 140303, Note_off_c, 0, 59, 64
2, 140310, Note_off_c, 0, 71, 64
2, 140311, Note_off_c, 0, 74, 64
2, 140322, Note_off_c, 0, 78, 64
2, 140477, Control_c, 0, 64, 0
2, 140513, Note_on_c, 0, 81, 71
2, 140513, Note_on_c, 0, 73, 80
2, 140518, Note_on_c, 0, 42, 70
2, 140519, Note_on_c, 0, 54, 72
2, 140548, Control_c, 0, 64, 127
2, 140557, Note_off_c, 0, 73, 64
2, 140567, Note_off_c, 0, 81, 64
2, 140608, Note_off_c, 0, 54, 64
2, 140611, Note_off_c, 0, 42, 64
2, 140632, Note_on_c, 0, 81, 55
2, 140634, Note_on_c, 0, 73, 71
2, 140661, Control_c, 0, 64, 0
2, 140666, Note_off_c, 0, 81, 64
2, 140668, Note_off_c, 0, 73, 64
2, 140668, Note_on_c, 0, 54, 55
2, 140672, Note_on_c, 0, 81, 71
2, 140672, Note_on_c, 0, 66, 70
2, 140672, Note_on_c, 0, 61, 50
2, 140673, Note_on_c, 0, 73, 66
2, 140685, Control_c, 0, 64, 127
2, 140771, Note_off_c, 0, 54, 64
2, 140774, Note_off_c, 0, 61, 64
2, 140782, Note_off_c, 0, 66, 64
2, 140812, Note_on_c, 0, 71, 70
2, 140816, Note_on_c, 0, 80, 67
2, 140829, Note_off_c, 0, 81, 64
2, 140830, Note_off_c, 0, 73, 64
2, 140876, Note_on_c, 0, 69, 66
2, 140880, Note_on_c, 0, 78, 71
2, 140887, Note_off_c, 0, 71, 64
2, 140891, Note_off_c, 0, 80, 64
2, 140927, Control_c, 0, 64, 0
2, 140938, Note_on_c, 0, 37, 57
2, 140940, Note_on_c, 0, 49, 48
2, 140947, Note_off_c, 0, 69, 64
2, 140947, Note_on_c, 0, 76, 61
2, 140947, Note_on_c, 0, 68, 66
2, 140951, Note_off_c, 0, 78, 64
2, 140961, Control_c, 0, 64, 127
2, 141036, Note_on_c, 0, 66, 58
2, 141038, Note_on_c, 0, 75, 46
2, 141042, Note_off_c, 0, 68, 64
2, 141042, Note_off_c, 0, 76, 64
2, 141064, Note_off_c, 0, 49, 64
2, 141064, Control_c, 0, 64, 0
2, 141072, Note_on_c, 0, 64, 53
2, 141072, Note_on_c, 0, 61, 50
2, 141074, Note_on_c, 0, 73, 52
2, 141080, Note_on_c, 0, 56, 37
2, 141081, Note_on_c, 0, 49, 48
2, 141082, Note_off_c, 0, 37, 64
2, 141083, Note_off_c, 0, 66, 64
2, 141085, Note_off_c, 0, 75, 64
2, 141092, Control_c, 0, 64, 127
2, 141100, Note_off_c, 0, 61, 64
2, 141106, Note_off_c, 0, 56, 64
2, 141133, Note_off_c, 0, 49, 64
2, 141203, Control_c, 0, 64, 0
2, 141225, Note_on_c, 0, 76, 52
2, 141226, Note_on_c, 0, 68, 55
2, 141230, Note_off_c, 0, 73, 64
2, 141230, Note_on_c, 0, 49, 53
2, 141231, Note_on_c, 0, 61, 58
2, 141231, Note_on_c, 0, 56, 55
2, 141238, Control_c, 0, 64, 127
2, 141241, Note_off_c, 0, 64, 64
2, 141263, Note_off_c, 0, 49, 64
2, 141265, Note_off_c, 0, 56, 64
2, 141267, Note_off_c, 0, 61, 64
2, 141343, Note_off_c, 0, 76, 64
2, 141349, Control_c, 0, 64, 0
2, 141354, Note_off_c, 0, 68, 64
2, 141355, Note_on_c, 0, 76, 55
2, 141359, Note_on_c, 0, 68, 61
2, 141366, Control_c, 0, 64, 127
2, 141373, Note_on_c, 0, 56, 55
2, 141378, Note_on_c, 0, 61, 57
2, 141378, Note_on_c, 0, 49, 50
2, 141399, Note_off_c, 0, 56, 64
2, 141400, Note_off_c, 0, 49, 64
2, 141408, Note_off_c, 0, 61, 64
2, 141456, Note_on_c, 0, 75, 46
2, 141456, Note_on_c, 0, 66, 52
2, 141488, Note_off_c, 0, 76, 64
2, 141488, Note_on_c, 0, 73, 49
2, 141488, Note_on_c, 0, 64, 57
2, 141490, Note_off_c, 0, 68, 64
2, 141494, Note_on_c, 0, 56, 53
2, 141496, Note_off_c, 0, 66, 64
2, 141496, Note_off_c, 0, 75, 64
2, 141499, Note_on_c, 0, 61, 58
2, 141499, Note_on_c, 0, 49, 50
2, 141536, Note_off_c, 0, 49, 64
2, 141536, Note_off_c, 0, 61, 64
2, 141536, Note_off_c, 0, 56, 64
2, 141619, Note_on_c, 0, 76, 57
2, 141620, Note_on_c, 0, 68, 44
2, 141624, Note_on_c, 0, 56, 50
2, 141625, Note_on_c, 0, 61, 48
2, 141626, Note_off_c, 0, 73, 64
2, 141627, Note_on_c, 0, 49, 53
2, 141632, Note_off_c, 0, 64, 64
2, 141658, Note_off_c, 0, 61, 64
2, 141663, Note_off_c, 0, 49, 64
2, 141668, Note_off_c, 0, 56, 64
2, 141744, Note_off_c, 0, 68, 64
2, 141750, Control_c, 0, 64, 0
2, 141763, Note_on_c, 0, 69, 66
2, 141764, Note_on_c, 0, 73, 66
2, 141765, Note_on_c, 0, 78, 74
2, 141765, Note_on_c, 0, 66, 76
2, 141769, Note_off_c, 0, 76, 64
2, 141771, Note_on_c, 0, 54, 66
2, 141771, Note_on_c, 0, 42, 71
2, 141805, Control_c, 0, 64, 127
2, 141821, Note_off_c, 0, 73, 64
2, 141828, Note_off_c, 0, 66, 64
2, 141829, Note_off_c, 0, 69, 64
2, 141851, Note_off_c, 0, 78, 64
2, 141872, Note_on_c, 0, 69, 44
2, 141877, Note_on_c, 0, 73, 70
2, 141880, Note_on_c, 0, 78, 70
2, 141899, Note_off_c, 0, 69, 64
2, 141904, Note_off_c, 0, 73, 64
2, 141904, Control_c, 0, 64, 0
2, 141907, Note_off_c, 0, 78, 64
2, 141911, Note_off_c, 0, 54, 64
2, 141914, Note_on_c, 0, 73, 80
2, 141916, Note_on_c, 0, 69, 83
2, 141916, Note_on_c, 0, 66, 70
2, 141916, Note_on_c, 0, 61, 59
2, 141916, Note_on_c, 0, 54, 66
2, 141919, Note_on_c, 0, 78, 79
2, 141932, Note_off_c, 0, 42, 64
2, 141952, Control_c, 0, 64, 127
2, 142042, Note_off_c, 0, 61, 64
2, 142043, Note_off_c, 0, 73, 64
2, 142047, Note_off_c, 0, 54, 64
2, 142047, Note_off_c, 0, 69, 64
2, 142054, Note_off_c, 0, 78, 64
2, 142055, Note_off_c, 0, 66, 64
2, 142151, Control_c, 0, 64, 0
2, 142256, Note_on_c, 0, 35, 66
2, 142260, Note_on_c, 0, 81, 70
2, 142264, Note_on_c, 0, 73, 70
2, 142264, Note_on_c, 0, 47, 63
2, 142277, Control_c, 0, 64, 127
2, 142326, Note_off_c, 0, 73, 64
2, 142335, Note_off_c, 0, 81, 64
2, 142354, Note_on_c, 0, 73, 72
2, 142356, Note_on_c, 0, 81, 71
2, 142374, Note_off_c, 0, 73, 64
2, 142377, Note_off_c, 0, 81, 64
2, 142399, Note_on_c, 0, 73, 79
2, 142400, Note_off_c, 0, 47, 64
2, 142400, Note_off_c, 0, 35, 64
2, 142401, Note_on_c, 0, 81, 72
2, 142401, Note_on_c, 0, 66, 70
2, 142404, Note_on_c, 0, 59, 50
2, 142442, Note_off_c, 0, 59, 64
2, 142449, Note_off_c, 0, 66, 64
2, 142541, Note_on_c, 0, 80, 58
2, 142541, Note_on_c, 0, 71, 53
2, 142546, Note_on_c, 0, 75, 44
2, 142547, Note_off_c, 0, 73, 64
2, 142549, Note_off_c, 0, 81, 64
2, 142601, Note_on_c, 0, 78, 52
2, 142605, Note_on_c, 0, 69, 46
2, 142610, Note_off_c, 0, 80, 64
2, 142612, Note_off_c, 0, 71, 64
2, 142675, Note_on_c, 0, 68, 62
2, 142680, Note_on_c, 0, 76, 66
2, 142680, Note_on_c, 0, 40, 50
2, 142691, Note_off_c, 0, 78, 64
2, 142691, Note_on_c, 0, 52, 29
2, 142695, Note_off_c, 0, 69, 64
2, 142696, Note_off_c, 0, 75, 64
2, 142696, Control_c, 0, 64, 0
2, 142711, Control_c, 0, 64, 127
2, 142717, Note_off_c, 0, 52, 64
2, 142745, Note_off_c, 0, 40, 64
2, 142784, Note_on_c, 0, 73, 44
2, 142784, Note_on_c, 0, 69, 18
2, 142792, Note_off_c, 0, 68, 64
2, 142793, Note_off_c, 0, 76, 64
2, 142812, Control_c, 0, 64, 0
2, 142816, Note_on_c, 0, 68, 50
2, 142824, Note_on_c, 0, 71, 52
2, 142825, Note_on_c, 0, 59, 40
2, 142827, Note_on_c, 0, 64, 53
2, 142828, Note_off_c, 0, 69, 64
2, 142830, Note_on_c, 0, 52, 42
2, 142840, Note_off_c, 0, 73, 64
2, 142852, Note_off_c, 0, 52, 64
2, 142852, Control_c, 0, 64, 127
2, 142859, Note_off_c, 0, 64, 64
2, 142859, Note_off_c, 0, 59, 64
2, 142965, Control_c, 0, 64, 0
2, 142971, Note_off_c, 0, 68, 64
2, 142971, Note_on_c, 0, 76, 53
2, 142974, Note_on_c, 0, 64, 45
2, 142979, Note_off_c, 0, 71, 64
2, 142979, Note_on_c, 0, 59, 44
2, 142979, Note_on_c, 0, 52, 45
2, 142988, Control_c, 0, 64, 127
2, 143009, Note_off_c, 0, 52, 64
2, 143009, Note_off_c, 0, 59, 64
2, 143082, Note_off_c, 0, 76, 64
2, 143085, Note_off_c, 0, 64, 64
2, 143104, Note_on_c, 0, 76, 52
2, 143104, Note_on_c, 0, 64, 52
2, 143108, Note_on_c, 0, 59, 48
2, 143108, Note_on_c, 0, 52, 52
2, 143131, Note_off_c, 0, 59, 64
2, 143150, Note_off_c, 0, 52, 64
2, 143188, Note_on_c, 0, 73, 44
2, 143192, Note_on_c, 0, 69, 55
2, 143209, Note_off_c, 0, 64, 64
2, 143209, Note_off_c, 0, 76, 64
2, 143228, Note_on_c, 0, 71, 48
2, 143228, Note_on_c, 0, 68, 35
2, 143234, Note_off_c, 0, 73, 64
2, 143237, Note_off_c, 0, 69, 64
2, 143243, Note_on_c, 0, 59, 50
2, 143245, Control_c, 0, 64, 0
2, 143252, Note_on_c, 0, 64, 52
2, 143252, Note_on_c, 0, 52, 48
2, 143264, Control_c, 0, 64, 127
2, 143288, Note_off_c, 0, 64, 64
2, 143290, Note_off_c, 0, 59, 64
2, 143295, Note_off_c, 0, 52, 64
2, 143382, Note_on_c, 0, 76, 48
2, 143383, Note_off_c, 0, 68, 64
2, 143383, Note_off_c, 0, 71, 64
2, 143391, Note_on_c, 0, 64, 44
2, 143396, Note_on_c, 0, 52, 50
2, 143399, Note_on_c, 0, 59, 28
2, 143444, Note_off_c, 0, 52, 64
2, 143448, Note_off_c, 0, 59, 64
2, 143507, Note_on_c, 0, 71, 79
2, 143513, Note_off_c, 0, 76, 64
2, 143522, Note_off_c, 0, 64, 64
2, 143532, Control_c, 0, 64, 0
2, 143564, Note_on_c, 0, 83, 67
2, 143568, Note_on_c, 0, 59, 50
2, 143568, Note_on_c, 0, 57, 48
2, 143571, Note_on_c, 0, 63, 50
2, 143574, Note_on_c, 0, 52, 28
2, 143584, Control_c, 0, 64, 127
2, 143622, Note_off_c, 0, 52, 64
2, 143622, Note_off_c, 0, 57, 64
2, 143624, Note_off_c, 0, 63, 64
2, 143629, Note_off_c, 0, 59, 64
2, 143648, Note_on_c, 0, 82, 83
2, 143655, Note_off_c, 0, 83, 64
2, 143718, Note_on_c, 0, 63, 49
2, 143718, Note_on_c, 0, 52, 46
2, 143724, Note_on_c, 0, 81, 76
2, 143724, Note_on_c, 0, 59, 54
2, 143729, Note_on_c, 0, 57, 46
2, 143737, Note_off_c, 0, 82, 64
2, 143745, Note_off_c, 0, 71, 64
2, 143765, Note_off_c, 0, 63, 64
2, 143768, Note_off_c, 0, 57, 64
2, 143768, Note_off_c, 0, 52, 64
2, 143784, Note_off_c, 0, 59, 64
2, 143794, Note_on_c, 0, 71, 83
2, 143856, Note_on_c, 0, 80, 80
2, 143856, Note_on_c, 0, 63, 53
2, 143860, Note_on_c, 0, 59, 54
2, 143862, Note_on_c, 0, 57, 46
2, 143866, Note_off_c, 0, 81, 64
2, 143867, Note_on_c, 0, 52, 36
2, 143896, Note_off_c, 0, 57, 64
2, 143900, Note_off_c, 0, 59, 64
2, 143900, Note_off_c, 0, 63, 64
2, 143901, Note_off_c, 0, 52, 64
2, 143917, Note_on_c, 0, 78, 71
2, 143931, Note_off_c, 0, 80, 64
2, 143976, Note_off_c, 0, 71, 64
2, 143981, Control_c, 0, 64, 0
2, 143988, Note_on_c, 0, 76, 83
2, 144004, Note_on_c, 0, 64, 50
2, 144012, Note_on_c, 0, 59, 41
2, 144012, Note_on_c, 0, 56, 44
2, 144012, Note_on_c, 0, 52, 50
2, 144013, Note_off_c, 0, 78, 64
2, 144024, Control_c, 0, 64, 127
2, 144039, Note_off_c, 0, 56, 64
2, 144039, Note_off_c, 0, 59, 64
2, 144040, Note_off_c, 0, 64, 64
2, 144046, Note_off_c, 0, 52, 64
2, 144059, Note_on_c, 0, 71, 80
2, 144073, Note_off_c, 0, 76, 64
2, 144114, Control_c, 0, 64, 0
2, 144138, Note_on_c, 0, 80, 83
2, 144144, Note_on_c, 0, 56, 53
2, 144148, Note_on_c, 0, 52, 49
2, 144152, Note_on_c, 0, 64, 50
2, 144152, Note_on_c, 0, 59, 40
2, 144158, Control_c, 0, 64, 127
2, 144181, Note_off_c, 0, 59, 64
2, 144183, Note_off_c, 0, 56, 64
2, 144186, Note_off_c, 0, 64, 64
2, 144186, Note_off_c, 0, 52, 64
2, 144216, Note_on_c, 0, 82, 81
2, 144236, Note_off_c, 0, 80, 64
2, 144259, Control_c, 0, 64, 0
2, 144280, Note_on_c, 0, 83, 89
2, 144289, Note_on_c, 0, 64, 44
2, 144294, Note_on_c, 0, 52, 32
2, 144296, Note_on_c, 0, 56, 40
2, 144298, Note_off_c, 0, 82, 64
2, 144298, Note_on_c, 0, 59, 36
2, 144306, Control_c, 0, 64, 127
2, 144325, Note_off_c, 0, 59, 64
2, 144329, Note_off_c, 0, 52, 64
2, 144335, Note_off_c, 0, 56, 64
2, 144340, Note_off_c, 0, 64, 64
2, 144414, Control_c, 0, 64, 0
2, 144423, Note_on_c, 0, 52, 49
2, 144424, Note_on_c, 0, 59, 46
2, 144429, Note_on_c, 0, 57, 46
2, 144430, Note_on_c, 0, 63, 55
2, 144435, Control_c, 0, 64, 127
2, 144460, Note_off_c, 0, 59, 64
2, 144462, Note_off_c, 0, 63, 64
2, 144471, Note_off_c, 0, 57, 64
2, 144481, Note_off_c, 0, 52, 64
2, 144487, Note_on_c, 0, 82, 75
2, 144508, Note_off_c, 0, 83, 64
2, 144564, Note_on_c, 0, 59, 54
2, 144566, Note_on_c, 0, 81, 72
2, 144566, Note_on_c, 0, 63, 40
2, 144568, Note_on_c, 0, 52, 32
2, 144573, Note_on_c, 0, 57, 40
2, 144578, Note_off_c, 0, 82, 64
2, 144589, Note_off_c, 0, 71, 64
2, 144609, Note_off_c, 0, 57, 64
2, 144612, Note_off_c, 0, 52, 64
2, 144612, Note_off_c, 0, 63, 64
2, 144612, Note_off_c, 0, 59, 64
2, 144641, Note_on_c, 0, 71, 83
2, 144656, Note_off_c, 0, 81, 64
2, 144700, Note_on_c, 0, 59, 54
2, 144703, Note_on_c, 0, 63, 46
2, 144703, Note_on_c, 0, 52, 36
2, 144704, Note_on_c, 0, 57, 36
2, 144711, Note_on_c, 0, 80, 88
2, 144740, Note_off_c, 0, 59, 64
2, 144745, Note_off_c, 0, 57, 64
2, 144747, Note_off_c, 0, 52, 64
2, 144750, Note_off_c, 0, 63, 64
2, 144782, Note_on_c, 0, 78, 83
2, 144808, Note_off_c, 0, 80, 64
2, 144818, Note_off_c, 0, 71, 64
2, 144851, Note_on_c, 0, 59, 49
2, 144855, Note_on_c, 0, 56, 44
2, 144858, Note_on_c, 0, 52, 44
2, 144859, Note_on_c, 0, 64, 46
2, 144864, Note_on_c, 0, 76, 81
2, 144880, Note_off_c, 0, 78, 64
2, 144900, Note_off_c, 0, 64, 64
2, 144903, Note_off_c, 0, 52, 64
2, 144903, Note_off_c, 0, 59, 64
2, 144908, Note_off_c, 0, 56, 64
2, 144923, Note_on_c, 0, 71, 81
2, 144939, Note_off_c, 0, 76, 64
2, 145000, Note_on_c, 0, 75, 79
2, 145008, Note_on_c, 0, 52, 46
2, 145012, Note_on_c, 0, 56, 48
2, 145013, Note_off_c, 0, 71, 64
2, 145015, Note_on_c, 0, 64, 49
2, 145016, Note_on_c, 0, 59, 49
2, 145051, Note_off_c, 0, 56, 64
2, 145054, Note_off_c, 0, 59, 64
2, 145054, Note_off_c, 0, 52, 64
2, 145060, Note_off_c, 0, 64, 64
2, 145084, Note_off_c, 0, 75, 64
2, 145086, Note_on_c, 0, 73, 84
2, 145108, Note_on_c, 0, 75, 54
2, 145124, Note_off_c, 0, 73, 64
2, 145136, Note_on_c, 0, 73, 80
2, 145146, Control_c, 0, 64, 0
2, 145152, Note_off_c, 0, 75, 64
2, 145153, Note_on_c, 0, 64, 48
2, 145153, Note_on_c, 0, 52, 46
2, 145159, Note_on_c, 0, 71, 88
2, 145159, Note_on_c, 0, 59, 44
2, 145160, Note_on_c, 0, 56, 36
2, 145175, Control_c, 0, 64, 127
2, 145179, Note_off_c, 0, 73, 64
2, 145188, Note_off_c, 0, 56, 64
2, 145189, Note_off_c, 0, 59, 64
2, 145191, Note_off_c, 0, 64, 64
2, 145196, Note_off_c, 0, 52, 64
2, 145296, Note_on_c, 0, 63, 55
2, 145296, Note_on_c, 0, 57, 49
2, 145296, Note_on_c, 0, 52, 39
2, 145300, Note_on_c, 0, 83, 76
2, 145300, Note_on_c, 0, 59, 46
2, 145338, Note_off_c, 0, 63, 64
2, 145340, Note_off_c, 0, 57, 64
2, 145341, Note_off_c, 0, 59, 64
2, 145341, Note_off_c, 0, 52, 64
2, 145345, Note_off_c, 0, 71, 64
2, 145396, Note_on_c, 0, 82, 89
2, 145405, Note_off_c, 0, 83, 64
2, 145436, Note_on_c, 0, 57, 46
2, 145439, Note_on_c, 0, 63, 50
2, 145440, Note_on_c, 0, 59, 48
2, 145440, Note_on_c, 0, 52, 24
2, 145444, Note_on_c, 0, 81, 88
2, 145455, Note_off_c, 0, 82, 64
2, 145467, Note_off_c, 0, 52, 64
2, 145477, Note_off_c, 0, 59, 64
2, 145481, Note_off_c, 0, 57, 64
2, 145489, Note_off_c, 0, 63, 64
2, 145506, Note_on_c, 0, 71, 83
2, 145525, Note_off_c, 0, 81, 64
2, 145568, Control_c, 0, 64, 0
2, 145578, Note_on_c, 0, 63, 49
2, 145582, Note_on_c, 0, 52, 40
2, 145584, Note_on_c, 0, 59, 44
2, 145584, Note_on_c, 0, 57, 44
2, 145589, Note_on_c, 0, 80, 94
2, 145589, Control_c, 0, 64, 127
2, 145615, Note_off_c, 0, 59, 64
2, 145618, Note_off_c, 0, 57, 64
2, 145623, Note_off_c, 0, 52, 64
2, 145627, Note_off_c, 0, 63, 64
2, 145649, Note_on_c, 0, 78, 88
2, 145659, Note_off_c, 0, 80, 64
2, 145685, Note_off_c, 0, 71, 64
2, 145719, Control_c, 0, 64, 0
2, 145724, Note_on_c, 0, 64, 50
2, 145724, Note_on_c, 0, 52, 54
2, 145728, Note_on_c, 0, 59, 1
2, 145728, Note_on_c, 0, 56, 54
2, 145731, Note_on_c, 0, 76, 78
2, 145739, Note_off_c, 0, 78, 64
2, 145764, Control_c, 0, 64, 127
2, 145799, Note_on_c, 0, 71, 83
2, 145806, Note_off_c, 0, 76, 64
2, 145872, Note_on_c, 0, 68, 79
2, 145876, Note_off_c, 0, 64, 64
2, 145877, Note_on_c, 0, 80, 88
2, 145880, Note_off_c, 0, 59, 64
2, 145880, Note_off_c, 0, 52, 64
2, 145884, Note_off_c, 0, 56, 64
2, 145897, Note_off_c, 0, 71, 64
2, 145952, Control_c, 0, 64, 0
2, 145956, Note_on_c, 0, 70, 70
2, 145958, Note_on_c, 0, 82, 74
2, 145969, Note_off_c, 0, 68, 64
2, 145974, Note_off_c, 0, 80, 64
2, 146029, Note_on_c, 0, 83, 62
2, 146029, Note_on_c, 0, 71, 76
2, 146040, Note_off_c, 0, 70, 64
2, 146042, Note_off_c, 0, 82, 64
2, 146238, Note_on_c, 0, 70, 66
2, 146245, Note_on_c, 0, 82, 67
2, 146271, Note_off_c, 0, 83, 64
2, 146276, Note_off_c, 0, 71, 64
2, 146308, Note_on_c, 0, 78, 66
2, 146315, Note_on_c, 0, 66, 58
2, 146330, Note_off_c, 0, 70, 64
2, 146337, Note_off_c, 0, 82, 64
2, 146388, Note_on_c, 0, 69, 59
2, 146389, Note_on_c, 0, 81, 76
2, 146406, Note_off_c, 0, 78, 64
2, 146413, Note_off_c, 0, 66, 64
2, 146456, Note_on_c, 0, 68, 44
2, 146458, Note_on_c, 0, 80, 83
2, 146476, Note_off_c, 0, 69, 64
2, 146477, Note_off_c, 0, 81, 64
2, 146525, Note_on_c, 0, 76, 65
2, 146527, Note_on_c, 0, 64, 40
2, 146533, Control_c, 0, 64, 127
2, 146544, Note_off_c, 0, 68, 64
2, 146546, Note_off_c, 0, 80, 64
2, 146608, Note_on_c, 0, 78, 75
2, 146608, Note_on_c, 0, 66, 75
2, 146623, Note_off_c, 0, 76, 64
2, 146625, Note_off_c, 0, 64, 64
2, 146675, Note_on_c, 0, 75, 79
2, 146676, Note_on_c, 0, 63, 27
2, 146690, Note_off_c, 0, 66, 64
2, 146690, Note_off_c, 0, 78, 64
2, 146752, Note_on_c, 0, 64, 61
2, 146753, Note_on_c, 0, 76, 70
2, 146764, Note_off_c, 0, 75, 64
2, 146765, Note_off_c, 0, 63, 64
2, 146816, Note_on_c, 0, 61, 50
2, 146821, Note_on_c, 0, 73, 61
2, 146836, Note_off_c, 0, 64, 64
2, 146837, Note_off_c, 0, 76, 64
2, 146904, Note_on_c, 0, 76, 66
2, 146906, Note_on_c, 0, 64, 52
2, 146910, Note_off_c, 0, 61, 64
2, 146915, Note_off_c, 0, 73, 64
2, 146974, Note_on_c, 0, 72, 53
2, 146976, Note_on_c, 0, 60, 44
2, 146991, Note_off_c, 0, 76, 64
2, 146993, Note_off_c, 0, 64, 64
2, 147068, Note_on_c, 0, 59, 36
2, 147070, Note_on_c, 0, 71, 48
2, 147082, Note_off_c, 0, 72, 64
2, 147084, Note_off_c, 0, 60, 64
2, 147162, Note_off_c, 0, 59, 64
2, 147182, Note_on_c, 0, 68, 57
2, 147201, Control_c, 0, 64, 0
2, 147210, Note_off_c, 0, 71, 64
2, 147212, Note_on_c, 0, 62, 40
2, 147212, Note_on_c, 0, 59, 42
2, 147216, Note_on_c, 0, 52, 40
2, 147219, Note_on_c, 0, 64, 70
2, 147243, Note_off_c, 0, 68, 64
2, 147265, Note_off_c, 0, 59, 64
2, 147265, Note_off_c, 0, 62, 64
2, 147280, Note_off_c, 0, 52, 64
2, 147284, Control_c, 0, 64, 127
2, 147353, Control_c, 0, 64, 0
2, 147376, Note_on_c, 0, 62, 36
2, 147376, Note_on_c, 0, 59, 36
2, 147376, Note_on_c, 0, 52, 37
2, 147378, Note_on_c, 0, 66, 72
2, 147395, Note_off_c, 0, 64, 64
2, 147397, Control_c, 0, 64, 127
2, 147418, Note_off_c, 0, 52, 64
2, 147421, Note_off_c, 0, 59, 64
2, 147427, Note_off_c, 0, 62, 64
2, 147442, Note_on_c, 0, 68, 67
2, 147459, Note_off_c, 0, 66, 64
2, 147512, Note_on_c, 0, 57, 39
2, 147515, Note_on_c, 0, 69, 74
2, 147515, Note_on_c, 0, 61, 44
2, 147522, Control_c, 0, 64, 0
2, 147526, Note_off_c, 0, 68, 64
2, 147550, Control_c, 0, 64, 127
2, 147575, Note_off_c, 0, 57, 64
2, 147583, Note_off_c, 0, 61, 64
2, 147584, Note_on_c, 0, 73, 59
2, 147616, Note_off_c, 0, 69, 64
2, 147660, Control_c, 0, 64, 0
2, 147668, Note_on_c, 0, 56, 46
2, 147669, Note_on_c, 0, 76, 66
2, 147669, Note_on_c, 0, 59, 41
2, 147672, Note_on_c, 0, 64, 29
2, 147678, Note_off_c, 0, 73, 64
2, 147693, Control_c, 0, 64, 127
2, 147731, Note_off_c, 0, 56, 64
2, 147735, Note_off_c, 0, 59, 64
2, 147744, Note_off_c, 0, 64, 64
2, 147814, Control_c, 0, 64, 0
2, 147823, Note_on_c, 0, 64, 33
2, 147827, Note_on_c, 0, 55, 40
2, 147827, Note_on_c, 0, 59, 39
2, 147843, Control_c, 0, 64, 127
2, 147872, Note_off_c, 0, 59, 64
2, 147876, Note_off_c, 0, 64, 64
2, 147882, Note_off_c, 0, 55, 64
2, 147887, Note_on_c, 0, 77, 61
2, 147917, Note_off_c, 0, 76, 64
2, 147957, Control_c, 0, 64, 0
2, 147968, Note_on_c, 0, 61, 49
2, 147968, Note_on_c, 0, 54, 46
2, 147970, Note_on_c, 0, 78, 74
2, 147973, Note_on_c, 0, 64, 40
2, 147982, Note_off_c, 0, 77, 64
2, 147988, Control_c, 0, 64, 127
2, 148023, Note_off_c, 0, 54, 64
2, 148029, Note_off_c, 0, 64, 64
2, 148031, Note_on_c, 0, 70, 58
2, 148041, Note_off_c, 0, 61, 64
2, 148046, Note_off_c, 0, 78, 64
2, 148099, Control_c, 0, 64, 0
2, 148108, Note_on_c, 0, 62, 42
2, 148114, Note_on_c, 0, 71, 63
2, 148114, Note_on_c, 0, 59, 46
2, 148127, Note_off_c, 0, 70, 64
2, 148129, Control_c, 0, 64, 127
2, 148164, Note_off_c, 0, 62, 64
2, 148171, Note_off_c, 0, 59, 64
2, 148252, Note_on_c, 0, 62, 37
2, 148252, Note_on_c, 0, 59, 36
2, 148252, Note_on_c, 0, 53, 36
2, 148258, Note_on_c, 0, 73, 58
2, 148264, Control_c, 0, 64, 0
2, 148272, Note_off_c, 0, 71, 64
2, 148278, Control_c, 0, 64, 127
2, 148302, Note_off_c, 0, 59, 64
2, 148303, Note_off_c, 0, 53, 64
2, 148304, Note_off_c, 0, 62, 64
2, 148323, Note_on_c, 0, 74, 57
2, 148340, Note_off_c, 0, 73, 64
2, 148402, Note_on_c, 0, 59, 39
2, 148403, Note_on_c, 0, 76, 68
2, 148403, Note_on_c, 0, 62, 41
2, 148403, Control_c, 0, 64, 0
2, 148404, Note_on_c, 0, 52, 41
2, 148428, Control_c, 0, 64, 127
2, 148435, Note_off_c, 0, 74, 64
2, 148446, Note_off_c, 0, 52, 64
2, 148447, Note_off_c, 0, 62, 64
2, 148451, Note_off_c, 0, 59, 64
2, 148474, Note_on_c, 0, 68, 67
2, 148491, Note_off_c, 0, 76, 64
2, 148540, Control_c, 0, 64, 0
2, 148548, Note_on_c, 0, 61, 48
2, 148552, Note_on_c, 0, 57, 41
2, 148555, Note_on_c, 0, 69, 62
2, 148560, Control_c, 0, 64, 127
2, 148570, Note_off_c, 0, 68, 64
2, 148618, Note_off_c, 0, 61, 64
2, 148622, Note_off_c, 0, 57, 64
2, 148688, Note_on_c, 0, 57, 40
2, 148692, Note_on_c, 0, 45, 41
2, 148694, Note_on_c, 0, 71, 66
2, 148706, Note_off_c, 0, 69, 64
2, 148757, Note_on_c, 0, 73, 70
2, 148772, Note_off_c, 0, 71, 64
2, 148832, Note_on_c, 0, 71, 55
2, 148836, Note_off_c, 0, 73, 64
2, 148858, Control_c, 0, 64, 0
2, 148864, Note_on_c, 0, 73, 61
2, 148870, Note_off_c, 0, 57, 64
2, 148874, Note_off_c, 0, 45, 64
2, 148875, Note_off_c, 0, 71, 64
2, 148876, Note_on_c, 0, 52, 24
2, 148876, Note_on_c, 0, 40, 49
2, 148890, Control_c, 0, 64, 127
2, 148894, Note_on_c, 0, 71, 78
2, 148931, Note_off_c, 0, 73, 64
2, 148988, Note_on_c, 0, 68, 74
2, 148992, Note_off_c, 0, 40, 64
2, 148998, Note_off_c, 0, 71, 64
2, 149002, Note_off_c, 0, 52, 64
2, 149006, Control_c, 0, 64, 0
2, 149021, Note_on_c, 0, 64, 62
2, 149024, Note_on_c, 0, 62, 42
2, 149024, Note_on_c, 0, 59, 41
2, 149024, Note_on_c, 0, 52, 36
2, 149040, Note_off_c, 0, 68, 64
2, 149050, Control_c, 0, 64, 127
2, 149061, Note_off_c, 0, 62, 64
2, 149062, Note_off_c, 0, 59, 64
2, 149067, Note_off_c, 0, 52, 64
2, 149158, Control_c, 0, 64, 0
2, 149164, Note_on_c, 0, 66, 71
2, 149164, Note_on_c, 0, 62, 36
2, 149165, Note_on_c, 0, 59, 33
2, 149171, Note_on_c, 0, 52, 36
2, 149179, Note_off_c, 0, 64, 64
2, 149192, Control_c, 0, 64, 127
2, 149210, Note_off_c, 0, 59, 64
2, 149215, Note_off_c, 0, 52, 64
2, 149218, Note_on_c, 0, 68, 74
2, 149221, Note_off_c, 0, 62, 64
2, 149240, Note_off_c, 0, 66, 64
2, 149291, Note_on_c, 0, 69, 75
2, 149296, Note_on_c, 0, 61, 41
2, 149298, Note_off_c, 0, 68, 64
2, 149300, Note_on_c, 0, 57, 32
2, 149307, Control_c, 0, 64, 0
2, 149333, Control_c, 0, 64, 127
2, 149352, Note_off_c, 0, 57, 64
2, 149355, Note_on_c, 0, 73, 71
2, 149361, Note_off_c, 0, 61, 64
2, 149384, Note_off_c, 0, 69, 64
2, 149438, Note_on_c, 0, 76, 74
2, 149440, Note_on_c, 0, 64, 23
2, 149440, Note_on_c, 0, 59, 36
2, 149442, Note_on_c, 0, 56, 42
2, 149447, Control_c, 0, 64, 0
2, 149452, Note_off_c, 0, 73, 64
2, 149467, Control_c, 0, 64, 127
2, 149498, Note_off_c, 0, 56, 64
2, 149503, Note_off_c, 0, 59, 64
2, 149503, Note_off_c, 0, 64, 64
2, 149578, Note_on_c, 0, 59, 39
2, 149580, Control_c, 0, 64, 0
2, 149587, Note_on_c, 0, 64, 42
2, 149587, Note_on_c, 0, 55, 41
2, 149597, Control_c, 0, 64, 127
2, 149632, Note_off_c, 0, 59, 64
2, 149635, Note_off_c, 0, 55, 64
2, 149636, Note_off_c, 0, 64, 64
2, 149647, Note_on_c, 0, 77, 61
2, 149665, Note_off_c, 0, 76, 64
2, 149709, Control_c, 0, 64, 0
2, 149718, Note_on_c, 0, 61, 42
2, 149723, Note_on_c, 0, 64, 33
2, 149723, Note_on_c, 0, 78, 80
2, 149727, Note_on_c, 0, 54, 46
2, 149737, Note_off_c, 0, 77, 64
2, 149742, Control_c, 0, 64, 127
2, 149780, Note_off_c, 0, 64, 64
2, 149786, Note_off_c, 0, 54, 64
2, 149788, Note_off_c, 0, 61, 64
2, 149791, Note_on_c, 0, 70, 67
2, 149811, Note_off_c, 0, 78, 64
2, 149868, Note_on_c, 0, 71, 67
2, 149868, Note_on_c, 0, 62, 39
2, 149868, Note_on_c, 0, 59, 41
2, 149868, Control_c, 0, 64, 0
2, 149883, Note_off_c, 0, 70, 64
2, 149885, Control_c, 0, 64, 127
2, 149912, Note_off_c, 0, 59, 64
2, 149919, Note_off_c, 0, 62, 64
2, 149992, Control_c, 0, 64, 0
2, 150012, Note_on_c, 0, 59, 29
2, 150016, Note_on_c, 0, 52, 36
2, 150020, Note_on_c, 0, 73, 58
2, 150020, Note_on_c, 0, 62, 39
2, 150029, Control_c, 0, 64, 127
2, 150032, Note_off_c, 0, 71, 64
2, 150071, Note_off_c, 0, 62, 64
2, 150079, Note_off_c, 0, 59, 64
2, 150082, Note_off_c, 0, 52, 64
2, 150087, Note_on_c, 0, 68, 71
2, 150092, Note_off_c, 0, 73, 64
2, 150160, Note_on_c, 0, 69, 74
2, 150160, Note_on_c, 0, 61, 36
2, 150164, Note_on_c, 0, 57, 29
2, 150178, Note_off_c, 0, 68, 64
2, 150223, Note_off_c, 0, 61, 64
2, 150224, Note_off_c, 0, 57, 64
2, 150300, Note_on_c, 0, 81, 74
2, 150300, Note_on_c, 0, 57, 42
2, 150300, Note_on_c, 0, 45, 46
2, 150301, Control_c, 0, 64, 0
2, 150318, Control_c, 0, 64, 127
2, 150331, Note_off_c, 0, 69, 64
2, 150366, Note_off_c, 0, 45, 64
2, 150368, Note_off_c, 0, 57, 64
2, 150440, Note_on_c, 0, 45, 55
2, 150444, Note_on_c, 0, 33, 58
2, 150503, Note_off_c, 0, 81, 64
2, 150518, Note_on_c, 0, 70, 50
2, 150577, Note_off_c, 0, 45, 64
2, 150581, Note_off_c, 0, 33, 64
2, 150585, Control_c, 0, 64, 0
2, 150589, Note_on_c, 0, 71, 54
2, 150595, Note_on_c, 0, 40, 41
2, 150602, Note_on_c, 0, 52, 49
2, 150607, Note_off_c, 0, 70, 64
2, 150624, Control_c, 0, 64, 127
2, 150692, Note_on_c, 0, 68, 50
2, 150717, Control_c, 0, 64, 0
2, 150718, Note_off_c, 0, 71, 64
2, 150723, Note_off_c, 0, 52, 64
2, 150736, Note_on_c, 0, 64, 50
2, 150741, Note_off_c, 0, 40, 64
2, 150742, Note_on_c, 0, 62, 41
2, 150742, Note_on_c, 0, 59, 42
2, 150742, Note_on_c, 0, 52, 42
2, 150756, Note_off_c, 0, 68, 64
2, 150760, Control_c, 0, 64, 127
2, 150776, Note_off_c, 0, 59, 64
2, 150780, Note_off_c, 0, 62, 64
2, 150781, Note_off_c, 0, 52, 64
2, 150868, Control_c, 0, 64, 0
2, 150876, Note_on_c, 0, 62, 37
2, 150881, Note_on_c, 0, 66, 55
2, 150881, Note_on_c, 0, 59, 19
2, 150884, Note_on_c, 0, 52, 39
2, 150889, Control_c, 0, 64, 127
2, 150894, Note_off_c, 0, 64, 64
2, 150926, Note_off_c, 0, 52, 64
2, 150928, Note_off_c, 0, 62, 64
2, 150930, Note_off_c, 0, 59, 64
2, 150940, Note_on_c, 0, 68, 62
2, 150957, Note_off_c, 0, 66, 64
2, 151000, Note_on_c, 0, 61, 33
2, 151004, Note_on_c, 0, 57, 27
2, 151006, Control_c, 0, 64, 0
2, 151011, Note_on_c, 0, 69, 62
2, 151019, Note_off_c, 0, 68, 64
2, 151031, Control_c, 0, 64, 127
2, 151065, Note_off_c, 0, 57, 64
2, 151072, Note_off_c, 0, 61, 64
2, 151076, Note_on_c, 0, 73, 62
2, 151108, Note_off_c, 0, 69, 64
2, 151148, Control_c, 0, 64, 0
2, 151156, Note_on_c, 0, 76, 61
2, 151156, Note_on_c, 0, 59, 36
2, 151156, Note_on_c, 0, 56, 44
2, 151163, Note_on_c, 0, 64, 33
2, 151170, Note_off_c, 0, 73, 64
2, 151171, Control_c, 0, 64, 127
2, 151208, Note_off_c, 0, 56, 64
2, 151212, Note_off_c, 0, 64, 64
2, 151216, Note_off_c, 0, 59, 64
2, 151288, Note_on_c, 0, 64, 40
2, 151292, Note_on_c, 0, 59, 36
2, 151292, Note_on_c, 0, 55, 41
2, 151292, Control_c, 0, 64, 0
2, 151311, Control_c, 0, 64, 127
2, 151331, Note_off_c, 0, 55, 64
2, 151337, Note_off_c, 0, 59, 64
2, 151347, Note_off_c, 0, 64, 64
2, 151350, Note_on_c, 0, 77, 55
2, 151370, Note_off_c, 0, 76, 64
2, 151433, Note_on_c, 0, 78, 67
2, 151433, Note_on_c, 0, 54, 46
2, 151435, Note_on_c, 0, 64, 29
2, 151436, Note_on_c, 0, 61, 36
2, 151452, Note_off_c, 0, 77, 64
2, 151485, Note_off_c, 0, 54, 64
2, 151492, Note_off_c, 0, 61, 64
2, 151498, Note_on_c, 0, 70, 63
2, 151502, Note_off_c, 0, 64, 64
2, 151522, Note_off_c, 0, 78, 64
2, 151561, Control_c, 0, 64, 0
2, 151566, Note_on_c, 0, 63, 18
2, 151572, Note_on_c, 0, 57, 57
2, 151572, Note_on_c, 0, 54, 36
2, 151573, Note_on_c, 0, 71, 54
2, 151590, Note_off_c, 0, 70, 64
2, 151590, Control_c, 0, 64, 127
2, 151634, Note_off_c, 0, 54, 64
2, 151638, Note_off_c, 0, 57, 64
2, 151642, Note_off_c, 0, 63, 64
2, 151704, Note_on_c, 0, 57, 19
2, 151704, Note_on_c, 0, 53, 36
2, 151711, Note_on_c, 0, 73, 55
2, 151711, Note_on_c, 0, 62, 35
2, 151724, Control_c, 0, 64, 0
2, 151728, Note_off_c, 0, 71, 64
2, 151737, Control_c, 0, 64, 127
2, 151752, Note_off_c, 0, 57, 64
2, 151757, Note_off_c, 0, 53, 64
2, 151766, Note_off_c, 0, 62, 64
2, 151779, Note_on_c, 0, 74, 55
2, 151789, Note_off_c, 0, 73, 64
2, 151849, Note_on_c, 0, 62, 42
2, 151849, Note_on_c, 0, 59, 36
2, 151852, Note_on_c, 0, 52, 41
2, 151858, Note_on_c, 0, 76, 57
2, 151858, Control_c, 0, 64, 0
2, 151872, Control_c, 0, 64, 127
2, 151878, Note_off_c, 0, 74, 64
2, 151896, Note_off_c, 0, 52, 64
2, 151896, Note_off_c, 0, 59, 64
2, 151900, Note_off_c, 0, 62, 64
2, 151923, Note_on_c, 0, 68, 62
2, 151930, Note_off_c, 0, 76, 64
2, 151986, Control_c, 0, 64, 0
2, 151988, Note_on_c, 0, 55, 23
2, 151992, Note_on_c, 0, 52, 22
2, 151993, Note_on_c, 0, 61, 45
2, 151999, Note_on_c, 0, 69, 55
2, 152010, Note_off_c, 0, 68, 64
2, 152017, Control_c, 0, 64, 127
2, 152036, Note_off_c, 0, 55, 64
2, 152039, Note_off_c, 0, 52, 64
2, 152046, Note_off_c, 0, 61, 64
2, 152136, Note_on_c, 0, 71, 52
2, 152136, Note_on_c, 0, 55, 57
2, 152136, Note_on_c, 0, 51, 49
2, 152143, Note_on_c, 0, 61, 14
2, 152152, Note_off_c, 0, 69, 64
2, 152173, Note_off_c, 0, 51, 64
2, 152173, Note_off_c, 0, 55, 64
2, 152184, Note_off_c, 0, 61, 64
2, 152198, Note_on_c, 0, 73, 50
2, 152212, Note_off_c, 0, 71, 64
2, 152228, Note_on_c, 0, 71, 48
2, 152248, Note_off_c, 0, 73, 64
2, 152260, Note_on_c, 0, 73, 49
2, 152279, Control_c, 0, 64, 0
2, 152284, Note_on_c, 0, 54, 42
2, 152284, Note_on_c, 0, 50, 40
2, 152287, Note_on_c, 0, 62, 36
2, 152288, Note_off_c, 0, 71, 64
2, 152296, Note_on_c, 0, 71, 62
2, 152301, Control_c, 0, 64, 127
2, 152319, Note_off_c, 0, 50, 64
2, 152323, Note_off_c, 0, 73, 64
2, 152326, Note_off_c, 0, 54, 64
2, 152335, Note_off_c, 0, 62, 64
2, 152357, Note_off_c, 0, 71, 64
2, 152388, Note_on_c, 0, 68, 49
2, 152416, Note_on_c, 0, 64, 55
2, 152420, Note_on_c, 0, 59, 28
2, 152420, Note_on_c, 0, 50, 29
2, 152421, Note_on_c, 0, 56, 27
2, 152428, Control_c, 0, 64, 0
2, 152447, Control_c, 0, 64, 127
2, 152452, Note_off_c, 0, 68, 64
2, 152478, Note_off_c, 0, 50, 64
2, 152478, Note_off_c, 0, 59, 64
2, 152479, Note_off_c, 0, 56, 64
2, 152556, Note_on_c, 0, 59, 42
2, 152560, Note_off_c, 0, 64, 64
2, 152560, Note_on_c, 0, 66, 59
2, 152560, Note_on_c, 0, 50, 36
2, 152566, Note_on_c, 0, 52, 19
2, 152612, Note_off_c, 0, 59, 64
2, 152617, Note_off_c, 0, 50, 64
2, 152620, Note_off_c, 0, 52, 64
2, 152621, Note_on_c, 0, 68, 63
2, 152637, Note_off_c, 0, 66, 64
2, 152693, Note_on_c, 0, 69, 66
2, 152702, Note_on_c, 0, 61, 46
2, 152703, Note_off_c, 0, 68, 64
2, 152704, Note_on_c, 0, 52, 29
2, 152704, Note_on_c, 0, 49, 35
2, 152755, Note_on_c, 0, 73, 62
2, 152764, Note_off_c, 0, 49, 64
2, 152765, Note_off_c, 0, 52, 64
2, 152765, Note_off_c, 0, 69, 64
2, 152770, Note_off_c, 0, 61, 64
2, 152840, Note_on_c, 0, 57, 49
2, 152840, Note_on_c, 0, 49, 42
2, 152842, Note_on_c, 0, 76, 58
2, 152844, Note_on_c, 0, 52, 19
2, 152850, Note_off_c, 0, 73, 64
2, 152899, Note_off_c, 0, 49, 64
2, 152899, Note_off_c, 0, 57, 64
2, 152903, Note_off_c, 0, 52, 64
2, 152984, Note_on_c, 0, 57, 39
2, 152988, Note_on_c, 0, 52, 40
2, 152990, Note_on_c, 0, 48, 40
2, 153003, Control_c, 0, 64, 0
2, 153014, Control_c, 0, 64, 127
2, 153034, Note_off_c, 0, 57, 64
2, 153035, Note_off_c, 0, 52, 64
2, 153046, Note_off_c, 0, 48, 64
2, 153046, Note_on_c, 0, 77, 58
2, 153072, Note_off_c, 0, 76, 64
2, 153128, Note_on_c, 0, 78, 67
2, 153129, Note_on_c, 0, 51, 29
2, 153134, Note_on_c, 0, 57, 37
2, 153136, Note_on_c, 0, 47, 36
2, 153145, Control_c, 0, 64, 0
2, 153148, Note_off_c, 0, 77, 64
2, 153158, Control_c, 0, 64, 127
2, 153196, Note_on_c, 0, 70, 52
2, 153216, Note_off_c, 0, 78, 64
2, 153219, Note_off_c, 0, 57, 64
2, 153229, Note_off_c, 0, 47, 64
2, 153235, Note_off_c, 0, 51, 64
2, 153270, Note_on_c, 0, 40, 42
2, 153273, Note_on_c, 0, 71, 57
2, 153279, Control_c, 0, 64, 0
2, 153288, Note_off_c, 0, 70, 64
2, 153302, Control_c, 0, 64, 127
2, 153419, Note_on_c, 0, 62, 36
2, 153419, Note_on_c, 0, 52, 40
2, 153425, Note_on_c, 0, 59, 41
2, 153426, Note_on_c, 0, 73, 55
2, 153428, Note_off_c, 0, 40, 64
2, 153429, Control_c, 0, 64, 0
2, 153438, Note_off_c, 0, 71, 64
2, 153445, Control_c, 0, 64, 127
2, 153460, Note_off_c, 0, 62, 64
2, 153463, Note_off_c, 0, 59, 64
2, 153473, Note_off_c, 0, 52, 64
2, 153484, Note_on_c, 0, 68, 52
2, 153501, Note_off_c, 0, 73, 64
2, 153556, Note_on_c, 0, 57, 42
2, 153560, Note_on_c, 0, 61, 45
2, 153561, Control_c, 0, 64, 0
2, 153568, Note_on_c, 0, 69, 63
2, 153584, Note_off_c, 0, 68, 64
2, 153589, Control_c, 0, 64, 127
2, 153611, Note_off_c, 0, 61, 64
2, 153614, Note_off_c, 0, 57, 64
2, 153684, Control_c, 0, 64, 0
2, 153704, Note_on_c, 0, 81, 62
2, 153710, Control_c, 0, 64, 127
2, 153716, Note_on_c, 0, 64, 40
2, 153716, Note_on_c, 0, 57, 55
2, 153775, Note_off_c, 0, 81, 64
2, 153778, Note_off_c, 0, 57, 64
2, 153778, Note_off_c, 0, 64, 64
2, 153831, Note_off_c, 0, 69, 64
2, 153848, Note_on_c, 0, 57, 66
2, 153852, Note_on_c, 0, 64, 63
2, 153904, Note_off_c, 0, 64, 64
2, 153916, Note_off_c, 0, 57, 64
2, 153991, Control_c, 0, 64, 0
2, 154002, Note_on_c, 0, 54, 84
2, 154009, Note_on_c, 0, 57, 50
2, 154014, Note_on_c, 0, 64, 49
2, 154025, Control_c, 0, 64, 127
2, 154049, Note_off_c, 0, 64, 64
2, 154065, Note_off_c, 0, 57, 64
2, 154070, Note_off_c, 0, 54, 64
2, 154072, Note_on_c, 0, 52, 61
2, 154118, Control_c, 0, 64, 0
2, 154132, Note_on_c, 0, 50, 66
2, 154139, Note_off_c, 0, 52, 64
2, 154139, Note_on_c, 0, 57, 44
2, 154140, Note_on_c, 0, 64, 52
2, 154176, Note_off_c, 0, 64, 64
2, 154176, Note_off_c, 0, 50, 64
2, 154183, Note_off_c, 0, 57, 64
2, 154273, Note_on_c, 0, 49, 83
2, 154281, Note_on_c, 0, 64, 63
2, 154281, Note_on_c, 0, 57, 61
2, 154307, Note_off_c, 0, 57, 64
2, 154312, Note_off_c, 0, 49, 64
2, 154314, Note_off_c, 0, 64, 64
2, 154375, Note_on_c, 0, 49, 70
2, 154396, Note_on_c, 0, 47, 70
2, 154414, Note_off_c, 0, 49, 64
2, 154425, Note_on_c, 0, 57, 48
2, 154427, Note_on_c, 0, 64, 48
2, 154430, Note_on_c, 0, 45, 63
2, 154444, Note_off_c, 0, 47, 64
2, 154465, Note_off_c, 0, 64, 64
2, 154465, Note_off_c, 0, 57, 64
2, 154553, Control_c, 0, 64, 127
2, 154558, Note_on_c, 0, 57, 42
2, 154568, Note_on_c, 0, 64, 28
2, 154614, Note_off_c, 0, 64, 64
2, 154615, Note_off_c, 0, 57, 64
2, 154669, Note_off_c, 0, 45, 64
2, 154699, Note_on_c, 0, 64, 63
2, 154702, Note_on_c, 0, 57, 66
2, 154750, Note_off_c, 0, 64, 64
2, 154752, Note_off_c, 0, 57, 64
2, 154821, Note_on_c, 0, 54, 74
2, 154828, Note_on_c, 0, 57, 53
2, 154831, Note_on_c, 0, 64, 46
2, 154845, Control_c, 0, 64, 0
2, 154880, Note_off_c, 0, 64, 64
2, 154888, Note_off_c, 0, 57, 64
2, 154926, Note_on_c, 0, 52, 63
2, 154945, Note_off_c, 0, 54, 64
2, 154955, Note_on_c, 0, 64, 46
2, 154955, Note_on_c, 0, 57, 50
2, 154968, Note_on_c, 0, 50, 65
2, 154977, Note_off_c, 0, 52, 64
2, 155007, Note_off_c, 0, 64, 64
2, 155008, Note_off_c, 0, 57, 64
2, 155010, Note_off_c, 0, 50, 64
2, 155091, Note_on_c, 0, 57, 65
2, 155091, Note_on_c, 0, 49, 83
2, 155095, Note_on_c, 0, 64, 50
2, 155128, Note_off_c, 0, 49, 64
2, 155135, Note_off_c, 0, 64, 64
2, 155135, Note_off_c, 0, 57, 64
2, 155189, Note_on_c, 0, 49, 66
2, 155213, Note_on_c, 0, 47, 68
2, 155234, Note_on_c, 0, 57, 46
2, 155241, Note_off_c, 0, 49, 64
2, 155242, Note_on_c, 0, 45, 61
2, 155246, Note_on_c, 0, 64, 32
2, 155262, Note_off_c, 0, 47, 64
2, 155293, Control_c, 0, 64, 127
2, 155298, Note_off_c, 0, 64, 64
2, 155304, Note_off_c, 0, 57, 64
2, 155320, Control_c, 0, 64, 0
2, 155356, Control_c, 0, 64, 127
2, 155374, Note_on_c, 0, 64, 54
2, 155378, Note_on_c, 0, 57, 57
2, 155438, Note_off_c, 0, 64, 64
2, 155442, Note_off_c, 0, 57, 64
2, 155507, Note_on_c, 0, 57, 80
2, 155507, Note_on_c, 0, 64, 79
2, 155575, Note_off_c, 0, 64, 64
2, 155575, Note_off_c, 0, 57, 64
2, 155623, Note_off_c, 0, 45, 64
2, 155656, Note_on_c, 0, 59, 83
2, 155658, Note_on_c, 0, 56, 101
2, 155663, Note_on_c, 0, 40, 66
2, 155695, Note_off_c, 0, 59, 64
2, 155713, Note_off_c, 0, 56, 64
2, 155752, Note_on_c, 0, 64, 80
2, 155752, Note_on_c, 0, 59, 67
2, 155778, Note_off_c, 0, 64, 64
2, 155784, Note_off_c, 0, 59, 64
2, 155788, Note_on_c, 0, 64, 74
2, 155793, Note_on_c, 0, 68, 102
2, 155796, Note_on_c, 0, 59, 63
2, 155796, Note_on_c, 0, 52, 71
2, 155827, Note_off_c, 0, 59, 64
2, 155838, Note_off_c, 0, 52, 64
2, 155856, Note_off_c, 0, 68, 64
2, 155857, Note_off_c, 0, 64, 64
2, 155929, Note_on_c, 0, 71, 117
2, 155931, Note_on_c, 0, 59, 58
2, 155932, Note_on_c, 0, 68, 92
2, 155933, Note_on_c, 0, 52, 53
2, 155972, Note_off_c, 0, 59, 64
2, 155985, Note_off_c, 0, 52, 64
2, 155985, Note_off_c, 0, 71, 64
2, 155997, Note_off_c, 0, 68, 64
2, 156056, Note_on_c, 0, 76, 87
2, 156057, Note_on_c, 0, 71, 84
2, 156060, Control_c, 0, 64, 0
2, 156067, Note_on_c, 0, 59, 61
2, 156071, Note_on_c, 0, 52, 74
2, 156083, Control_c, 0, 64, 127
2, 156106, Note_off_c, 0, 71, 64
2, 156106, Note_off_c, 0, 76, 64
2, 156110, Note_off_c, 0, 59, 64
2, 156119, Note_off_c, 0, 52, 64
2, 156164, Note_on_c, 0, 68, 72
2, 156164, Note_on_c, 0, 64, 74
2, 156177, Note_off_c, 0, 40, 64
2, 156190, Note_off_c, 0, 64, 64
2, 156190, Note_off_c, 0, 68, 64
2, 156191, Control_c, 0, 64, 0
2, 156204, Note_on_c, 0, 68, 76
2, 156204, Note_on_c, 0, 59, 63
2, 156204, Note_on_c, 0, 52, 65
2, 156207, Note_on_c, 0, 71, 119
2, 156220, Control_c, 0, 64, 127
2, 156263, Note_off_c, 0, 52, 64
2, 156264, Note_off_c, 0, 59, 64
2, 156273, Note_off_c, 0, 68, 64
2, 156277, Note_off_c, 0, 71, 64
2, 156330, Note_on_c, 0, 76, 111
2, 156332, Note_on_c, 0, 71, 105
2, 156332, Note_on_c, 0, 59, 63
2, 156336, Note_on_c, 0, 52, 52
2, 156392, Note_off_c, 0, 52, 64
2, 156392, Note_off_c, 0, 59, 64
2, 156407, Note_off_c, 0, 76, 64
2, 156409, Note_off_c, 0, 71, 64
2, 156472, Note_on_c, 0, 63, 44
2, 156474, Note_on_c, 0, 52, 37
2, 156474, Note_on_c, 0, 75, 63
2, 156476, Note_on_c, 0, 57, 41
2, 156476, Note_on_c, 0, 59, 40
2, 156476, Note_on_c, 0, 78, 70
2, 156505, Note_on_c, 0, 80, 57
2, 156509, Note_off_c, 0, 59, 64
2, 156511, Note_off_c, 0, 63, 64
2, 156522, Note_off_c, 0, 78, 64
2, 156523, Note_off_c, 0, 57, 64
2, 156529, Note_off_c, 0, 52, 64
2, 156549, Note_on_c, 0, 78, 63
2, 156559, Note_off_c, 0, 80, 64
2, 156610, Note_on_c, 0, 52, 42
2, 156616, Note_on_c, 0, 59, 41
2, 156617, Note_on_c, 0, 63, 44
2, 156619, Note_on_c, 0, 57, 42
2, 156623, Note_on_c, 0, 77, 70
2, 156623, Note_on_c, 0, 74, 71
2, 156631, Note_off_c, 0, 75, 64
2, 156635, Note_off_c, 0, 78, 64
2, 156653, Note_off_c, 0, 59, 64
2, 156656, Note_off_c, 0, 63, 64
2, 156661, Note_off_c, 0, 57, 64
2, 156662, Note_off_c, 0, 52, 64
2, 156700, Note_on_c, 0, 75, 83
2, 156702, Note_on_c, 0, 78, 79
2, 156708, Note_off_c, 0, 74, 64
2, 156708, Note_off_c, 0, 77, 64
2, 156760, Note_on_c, 0, 76, 76
2, 156760, Note_on_c, 0, 63, 49
2, 156760, Note_on_c, 0, 59, 70
2, 156760, Note_on_c, 0, 52, 46
2, 156764, Note_on_c, 0, 80, 81
2, 156764, Note_on_c, 0, 57, 62
2, 156783, Note_off_c, 0, 59, 64
2, 156784, Note_off_c, 0, 57, 64
2, 156788, Note_off_c, 0, 75, 64
2, 156790, Note_off_c, 0, 78, 64
2, 156800, Note_off_c, 0, 52, 64
2, 156835, Note_off_c, 0, 63, 64
2, 156836, Note_on_c, 0, 78, 61
2, 156838, Note_on_c, 0, 81, 81
2, 156841, Note_off_c, 0, 76, 64
2, 156847, Note_off_c, 0, 80, 64
2, 156889, Note_off_c, 0, 81, 64
2, 156904, Note_on_c, 0, 81, 89
2, 156905, Control_c, 0, 64, 0
2, 156910, Note_on_c, 0, 85, 94
2, 156915, Note_on_c, 0, 59, 57
2, 156915, Note_on_c, 0, 56, 44
2, 156916, Note_off_c, 0, 78, 64
2, 156916, Note_on_c, 0, 64, 66
2, 156916, Note_on_c, 0, 52, 52
2, 156934, Control_c, 0, 64, 127
2, 156947, Note_off_c, 0, 59, 64
2, 156950, Note_off_c, 0, 64, 64
2, 156950, Note_off_c, 0, 56, 64
2, 156960, Note_off_c, 0, 52, 64
2, 157012, Note_on_c, 0, 83, 83
2, 157012, Note_on_c, 0, 80, 59
2, 157015, Note_off_c, 0, 81, 64
2, 157021, Note_off_c, 0, 85, 64
2, 157029, Control_c, 0, 64, 0
2, 157044, Note_off_c, 0, 80, 64
2, 157048, Note_on_c, 0, 80, 102
2, 157048, Note_on_c, 0, 64, 71
2, 157048, Note_on_c, 0, 59, 70
2, 157049, Note_on_c, 0, 56, 72
2, 157052, Note_on_c, 0, 76, 74
2, 157058, Note_on_c, 0, 52, 72
2, 157064, Note_off_c, 0, 59, 64
2, 157067, Note_off_c, 0, 83, 64
2, 157072, Control_c, 0, 64, 127
2, 157078, Note_off_c, 0, 64, 64
2, 157082, Note_off_c, 0, 56, 64
2, 157085, Note_off_c, 0, 52, 64
2, 157180, Note_on_c, 0, 56, 40
2, 157180, Note_on_c, 0, 52, 49
2, 157181, Note_on_c, 0, 64, 76
2, 157184, Note_on_c, 0, 59, 75
2, 157200, Note_off_c, 0, 59, 64
2, 157222, Note_off_c, 0, 56, 64
2, 157230, Note_off_c, 0, 64, 64
2, 157232, Note_off_c, 0, 52, 64
2, 157300, Control_c, 0, 64, 0
2, 157314, Note_on_c, 0, 78, 75
2, 157316, Note_on_c, 0, 75, 55
2, 157322, Note_off_c, 0, 80, 64
2, 157322, Note_on_c, 0, 52, 27
2, 157324, Control_c, 0, 64, 127
2, 157326, Note_off_c, 0, 76, 64
2, 157328, Note_on_c, 0, 59, 40
2, 157328, Note_on_c, 0, 57, 32
2, 157332, Note_on_c, 0, 63, 33
2, 157344, Note_off_c, 0, 59, 64
2, 157350, Note_on_c, 0, 80, 70
2, 157357, Note_off_c, 0, 57, 64
2, 157365, Note_off_c, 0, 78, 64
2, 157368, Note_off_c, 0, 63, 64
2, 157369, Note_off_c, 0, 52, 64
2, 157390, Note_on_c, 0, 78, 70
2, 157403, Note_off_c, 0, 80, 64
2, 157451, Note_on_c, 0, 63, 44
2, 157456, Note_on_c, 0, 77, 79
2, 157456, Note_on_c, 0, 74, 81
2, 157459, Note_on_c, 0, 59, 42
2, 157459, Note_on_c, 0, 57, 41
2, 157460, Note_on_c, 0, 52, 54
2, 157469, Note_off_c, 0, 78, 64
2, 157471, Note_off_c, 0, 75, 64
2, 157490, Note_off_c, 0, 59, 64
2, 157491, Note_off_c, 0, 52, 64
2, 157494, Note_off_c, 0, 63, 64
2, 157495, Note_off_c, 0, 57, 64
2, 157521, Note_on_c, 0, 75, 80
2, 157527, Note_on_c, 0, 78, 92
2, 157531, Note_off_c, 0, 74, 64
2, 157534, Note_off_c, 0, 77, 64
2, 157593, Note_on_c, 0, 80, 92
2, 157598, Note_on_c, 0, 63, 48
2, 157601, Note_on_c, 0, 76, 80
2, 157608, Note_on_c, 0, 57, 44
2, 157608, Note_on_c, 0, 52, 55
2, 157614, Note_off_c, 0, 75, 64
2, 157618, Note_on_c, 0, 59, 36
2, 157620, Note_off_c, 0, 78, 64
2, 157624, Note_off_c, 0, 52, 64
2, 157637, Note_off_c, 0, 59, 64
2, 157641, Note_off_c, 0, 57, 64
2, 157660, Note_on_c, 0, 78, 84
2, 157662, Note_off_c, 0, 63, 64
2, 157662, Note_on_c, 0, 81, 79
2, 157666, Note_off_c, 0, 80, 64
2, 157674, Note_off_c, 0, 76, 64
2, 157718, Note_off_c, 0, 81, 64
2, 157723, Control_c, 0, 64, 0
2, 157724, Note_on_c, 0, 81, 89
2, 157727, Note_off_c, 0, 78, 64
2, 157730, Note_on_c, 0, 85, 96
2, 157730, Note_on_c, 0, 59, 58
2, 157732, Note_on_c, 0, 64, 67
2, 157732, Note_on_c, 0, 56, 58
2, 157738, Note_on_c, 0, 52, 65
2, 157746, Control_c, 0, 64, 127
2, 157765, Note_off_c, 0, 56, 64
2, 157768, Note_off_c, 0, 64, 64
2, 157768, Note_off_c, 0, 59, 64
2, 157775, Note_off_c, 0, 52, 64
2, 157836, Note_on_c, 0, 80, 83
2, 157837, Note_on_c, 0, 83, 67
2, 157851, Note_off_c, 0, 81, 64
2, 157857, Note_off_c, 0, 85, 64
2, 157873, Note_off_c, 0, 80, 64
2, 157880, Note_on_c, 0, 80, 94
2, 157880, Note_on_c, 0, 76, 78
2, 157890, Note_off_c, 0, 83, 64
2, 157899, Note_on_c, 0, 59, 55
2, 157900, Note_on_c, 0, 64, 46
2, 157903, Note_on_c, 0, 56, 27
2, 157904, Note_on_c, 0, 52, 72
2, 157920, Note_off_c, 0, 52, 64
2, 157928, Note_off_c, 0, 56, 64
2, 157929, Note_off_c, 0, 59, 64
2, 157940, Note_off_c, 0, 64, 64
2, 158002, Note_on_c, 0, 56, 58
2, 158007, Note_on_c, 0, 59, 46
2, 158008, Note_on_c, 0, 52, 67
2, 158012, Note_on_c, 0, 64, 84
2, 158031, Note_off_c, 0, 59, 64
2, 158040, Note_off_c, 0, 64, 64
2, 158040, Note_off_c, 0, 52, 64
2, 158042, Note_off_c, 0, 56, 64
2, 158116, Control_c, 0, 64, 0
2, 158130, Note_on_c, 0, 78, 85
2, 158131, Note_on_c, 0, 42, 92
2, 158138, Note_on_c, 0, 75, 81
2, 158154, Note_off_c, 0, 76, 64
2, 158154, Note_off_c, 0, 80, 64
2, 158159, Control_c, 0, 64, 127
2, 158184, Note_off_c, 0, 75, 64
2, 158204, Note_off_c, 0, 78, 64
2, 158228, Note_on_c, 0, 73, 80
2, 158231, Note_on_c, 0, 76, 81
2, 158251, Control_c, 0, 64, 0
2, 158264, Note_off_c, 0, 73, 64
2, 158275, Note_on_c, 0, 54, 68
2, 158276, Note_on_c, 0, 61, 74
2, 158280, Note_on_c, 0, 73, 66
2, 158283, Note_on_c, 0, 66, 98
2, 158283, Note_on_c, 0, 64, 71
2, 158293, Control_c, 0, 64, 127
2, 158314, Note_off_c, 0, 54, 64
2, 158320, Note_off_c, 0, 76, 64
2, 158322, Note_off_c, 0, 61, 64
2, 158327, Note_off_c, 0, 64, 64
2, 158402, Note_off_c, 0, 42, 64
2, 158406, Note_on_c, 0, 61, 81
2, 158410, Note_on_c, 0, 64, 79
2, 158410, Note_on_c, 0, 54, 83
2, 158441, Note_off_c, 0, 64, 64
2, 158441, Note_off_c, 0, 61, 64
2, 158449, Note_off_c, 0, 54, 64
2, 158538, Note_on_c, 0, 75, 88
2, 158538, Control_c, 0, 64, 0
2, 158540, Note_on_c, 0, 71, 74
2, 158547, Note_on_c, 0, 47, 74
2, 158548, Note_on_c, 0, 59, 74
2, 158548, Note_on_c, 0, 54, 74
2, 158554, Note_off_c, 0, 73, 64
2, 158557, Note_off_c, 0, 66, 64
2, 158561, Control_c, 0, 64, 127
2, 158583, Note_off_c, 0, 59, 64
2, 158593, Note_off_c, 0, 54, 64
2, 158593, Note_off_c, 0, 47, 64
2, 158597, Note_off_c, 0, 71, 64
2, 158632, Note_off_c, 0, 75, 64
2, 158660, Note_on_c, 0, 66, 67
2, 158664, Note_on_c, 0, 71, 66
2, 158675, Control_c, 0, 64, 0
2, 158689, Note_on_c, 0, 54, 72
2, 158689, Note_on_c, 0, 47, 80
2, 158693, Note_on_c, 0, 59, 88
2, 158693, Control_c, 0, 64, 127
2, 158735, Note_off_c, 0, 47, 64
2, 158735, Note_off_c, 0, 54, 64
2, 158739, Note_off_c, 0, 66, 64
2, 158807, Control_c, 0, 64, 0
2, 158826, Note_on_c, 0, 54, 75
2, 158826, Note_on_c, 0, 47, 68
2, 158835, Control_c, 0, 64, 127
2, 158875, Note_off_c, 0, 54, 64
2, 158880, Note_off_c, 0, 47, 64
2, 158932, Note_off_c, 0, 59, 64
2, 158936, Note_off_c, 0, 71, 64
2, 158963, Note_on_c, 0, 44, 85
2, 158966, Note_on_c, 0, 47, 58
2, 158970, Note_on_c, 0, 54, 63
2, 158983, Control_c, 0, 64, 0
2, 158993, Control_c, 0, 64, 127
2, 159015, Note_off_c, 0, 54, 64
2, 159023, Note_off_c, 0, 47, 64
2, 159023, Note_on_c, 0, 42, 83
2, 159035, Control_c, 0, 64, 0
2, 159046, Note_off_c, 0, 44, 64
2, 159082, Note_on_c, 0, 40, 80
2, 159092, Note_off_c, 0, 42, 64
2, 159097, Note_on_c, 0, 54, 70
2, 159100, Note_on_c, 0, 47, 63
2, 159130, Note_off_c, 0, 40, 64
2, 159136, Note_off_c, 0, 47, 64
2, 159136, Note_off_c, 0, 54, 64
2, 159221, Note_on_c, 0, 39, 89
2, 159228, Note_on_c, 0, 54, 88
2, 159228, Note_on_c, 0, 47, 80
2, 159259, Note_off_c, 0, 54, 64
2, 159263, Note_off_c, 0, 39, 64
2, 159264, Note_off_c, 0, 47, 64
2, 159326, Note_on_c, 0, 39, 88
2, 159342, Note_on_c, 0, 37, 92
2, 159359, Note_off_c, 0, 39, 64
2, 159364, Note_on_c, 0, 47, 66
2, 159366, Note_on_c, 0, 54, 70
2, 159375, Note_on_c, 0, 35, 59
2, 159387, Note_off_c, 0, 37, 64
2, 159408, Note_off_c, 0, 54, 64
2, 159411, Note_off_c, 0, 47, 64
2, 159500, Note_on_c, 0, 54, 70
2, 159501, Control_c, 0, 64, 127
2, 159507, Note_on_c, 0, 47, 61
2, 159552, Note_off_c, 0, 54, 64
2, 159554, Note_off_c, 0, 47, 64
2, 159568, Note_off_c, 0, 35, 64
2, 159629, Note_on_c, 0, 54, 81
2, 159633, Note_on_c, 0, 47, 78
2, 159677, Note_off_c, 0, 54, 64
2, 159681, Note_off_c, 0, 47, 64
2, 159755, Note_on_c, 0, 44, 89
2, 159761, Note_on_c, 0, 54, 55
2, 159766, Note_on_c, 0, 47, 63
2, 159776, Control_c, 0, 64, 0
2, 159815, Note_off_c, 0, 54, 64
2, 159820, Note_off_c, 0, 47, 64
2, 159861, Note_on_c, 0, 42, 67
2, 159886, Note_off_c, 0, 44, 64
2, 159897, Note_on_c, 0, 54, 58
2, 159900, Note_on_c, 0, 47, 59
2, 159902, Note_on_c, 0, 40, 88
2, 159916, Note_off_c, 0, 42, 64
2, 159938, Note_off_c, 0, 54, 64
2, 159943, Note_off_c, 0, 40, 64
2, 159943, Note_off_c, 0, 47, 64
2, 160027, Note_on_c, 0, 39, 102
2, 160034, Note_on_c, 0, 54, 92
2, 160034, Note_on_c, 0, 47, 83
2, 160067, Note_off_c, 0, 39, 64
2, 160072, Note_off_c, 0, 54, 64
2, 160073, Note_off_c, 0, 47, 64
2, 160128, Note_on_c, 0, 39, 94
2, 160148, Note_on_c, 0, 37, 92
2, 160169, Note_off_c, 0, 39, 64
2, 160171, Note_on_c, 0, 47, 67
2, 160171, Note_on_c, 0, 35, 89
2, 160177, Note_on_c, 0, 54, 71
2, 160194, Note_off_c, 0, 37, 64
2, 160223, Note_off_c, 0, 54, 64
2, 160226, Note_off_c, 0, 47, 64
2, 160300, Note_on_c, 0, 54, 70
2, 160309, Note_off_c, 0, 35, 64
2, 160309, Note_on_c, 0, 47, 66
2, 160321, Control_c, 0, 64, 127
2, 160354, Note_off_c, 0, 47, 64
2, 160360, Note_off_c, 0, 54, 64
2, 160436, Note_on_c, 0, 47, 89
2, 160437, Note_on_c, 0, 54, 102
2, 160473, Note_off_c, 0, 54, 64
2, 160476, Note_off_c, 0, 47, 64
2, 160558, Note_on_c, 0, 59, 67
2, 160560, Note_on_c, 0, 56, 78
2, 160573, Note_on_c, 0, 40, 70
2, 160579, Control_c, 0, 64, 0
2, 160590, Control_c, 0, 64, 127
2, 160598, Note_off_c, 0, 59, 64
2, 160604, Note_off_c, 0, 56, 64
2, 160648, Note_on_c, 0, 59, 71
2, 160654, Note_on_c, 0, 64, 59
2, 160699, Note_off_c, 0, 59, 64
2, 160701, Note_on_c, 0, 68, 92
2, 160705, Note_off_c, 0, 64, 64
2, 160708, Note_on_c, 0, 64, 81
2, 160711, Note_on_c, 0, 52, 72
2, 160712, Note_on_c, 0, 59, 61
2, 160747, Note_off_c, 0, 52, 64
2, 160749, Note_off_c, 0, 59, 64
2, 160767, Note_off_c, 0, 68, 64
2, 160777, Note_off_c, 0, 64, 64
2, 160820, Control_c, 0, 64, 0
2, 160836, Note_on_c, 0, 68, 76
2, 160838, Note_on_c, 0, 71, 87
2, 160841, Note_on_c, 0, 59, 74
2, 160845, Note_on_c, 0, 52, 71
2, 160861, Control_c, 0, 64, 127
2, 160894, Note_off_c, 0, 59, 64
2, 160894, Note_off_c, 0, 71, 64
2, 160898, Note_off_c, 0, 52, 64
2, 160904, Note_off_c, 0, 68, 64
2, 160964, Note_on_c, 0, 71, 80
2, 160972, Note_on_c, 0, 76, 93
2, 160973, Note_on_c, 0, 59, 72
2, 160975, Control_c, 0, 64, 0
2, 160980, Note_on_c, 0, 52, 72
2, 160990, Control_c, 0, 64, 127
2, 161022, Note_off_c, 0, 59, 64
2, 161022, Note_off_c, 0, 71, 64
2, 161026, Note_off_c, 0, 52, 64
2, 161030, Note_off_c, 0, 76, 64
2, 161072, Note_on_c, 0, 68, 83
2, 161072, Note_on_c, 0, 64, 71
2, 161087, Note_off_c, 0, 40, 64
2, 161100, Note_off_c, 0, 64, 64
2, 161100, Note_off_c, 0, 68, 64
2, 161102, Control_c, 0, 64, 0
2, 161108, Note_on_c, 0, 52, 70
2, 161111, Note_on_c, 0, 71, 92
2, 161111, Note_on_c, 0, 59, 71
2, 161112, Note_on_c, 0, 68, 80
2, 161120, Control_c, 0, 64, 127
2, 161162, Note_off_c, 0, 59, 64
2, 161167, Note_off_c, 0, 52, 64
2, 161174, Note_off_c, 0, 71, 64
2, 161184, Note_off_c, 0, 68, 64
2, 161232, Control_c, 0, 64, 0
2, 161240, Note_on_c, 0, 71, 75
2, 161240, Note_on_c, 0, 76, 91
2, 161242, Note_on_c, 0, 52, 62
2, 161242, Note_on_c, 0, 59, 62
2, 161244, Note_on_c, 0, 56, 71
2, 161251, Note_on_c, 0, 64, 68
2, 161252, Control_c, 0, 64, 127
2, 161288, Note_off_c, 0, 64, 64
2, 161296, Note_off_c, 0, 56, 64
2, 161299, Note_off_c, 0, 59, 64
2, 161300, Note_off_c, 0, 52, 64
2, 161306, Note_off_c, 0, 76, 64
2, 161306, Note_off_c, 0, 71, 64
2, 161366, Note_on_c, 0, 78, 91
2, 161368, Note_on_c, 0, 75, 83
2, 161373, Note_on_c, 0, 52, 40
2, 161380, Note_on_c, 0, 63, 46
2, 161382, Note_on_c, 0, 57, 42
2, 161383, Note_on_c, 0, 59, 44
2, 161396, Note_on_c, 0, 80, 83
2, 161414, Note_off_c, 0, 78, 64
2, 161428, Note_off_c, 0, 59, 64
2, 161429, Note_off_c, 0, 63, 64
2, 161434, Note_off_c, 0, 57, 64
2, 161437, Note_off_c, 0, 52, 64
2, 161442, Note_on_c, 0, 78, 75
2, 161448, Note_off_c, 0, 80, 64
2, 161496, Note_on_c, 0, 77, 81
2, 161500, Note_on_c, 0, 74, 83
2, 161509, Note_off_c, 0, 75, 64
2, 161509, Note_on_c, 0, 63, 54
2, 161509, Note_on_c, 0, 52, 35
2, 161511, Note_off_c, 0, 78, 64
2, 161513, Note_on_c, 0, 59, 46
2, 161513, Note_on_c, 0, 57, 45
2, 161544, Note_off_c, 0, 59, 64
2, 161546, Note_off_c, 0, 63, 64
2, 161549, Note_off_c, 0, 57, 64
2, 161550, Note_off_c, 0, 52, 64
2, 161571, Note_on_c, 0, 75, 83
2, 161575, Note_off_c, 0, 77, 64
2, 161575, Note_on_c, 0, 78, 96
2, 161579, Note_off_c, 0, 74, 64
2, 161644, Note_on_c, 0, 80, 84
2, 161644, Note_on_c, 0, 76, 81
2, 161648, Note_on_c, 0, 63, 62
2, 161650, Note_off_c, 0, 75, 64
2, 161654, Note_off_c, 0, 78, 64
2, 161654, Note_on_c, 0, 57, 54
2, 161658, Note_on_c, 0, 52, 42
2, 161662, Note_on_c, 0, 59, 48
2, 161685, Note_off_c, 0, 59, 64
2, 161692, Note_off_c, 0, 52, 64
2, 161692, Note_off_c, 0, 57, 64
2, 161693, Note_off_c, 0, 63, 64
2, 161714, Note_on_c, 0, 81, 88
2, 161719, Note_off_c, 0, 76, 64
2, 161722, Note_on_c, 0, 78, 79
2, 161727, Note_off_c, 0, 80, 64
2, 161762, Control_c, 0, 64, 0
2, 161765, Note_off_c, 0, 81, 64
2, 161784, Note_on_c, 0, 85, 100
2, 161784, Note_on_c, 0, 81, 88
2, 161787, Note_on_c, 0, 56, 48
2, 161791, Note_on_c, 0, 59, 54
2, 161791, Note_on_c, 0, 52, 54
2, 161792, Note_on_c, 0, 64, 67
2, 161793, Note_off_c, 0, 78, 64
2, 161811, Control_c, 0, 64, 127
2, 161827, Note_off_c, 0, 56, 64
2, 161831, Note_off_c, 0, 64, 64
2, 161834, Note_off_c, 0, 52, 64
2, 161834, Note_off_c, 0, 59, 64
2, 161887, Note_off_c, 0, 81, 64
2, 161887, Note_off_c, 0, 85, 64
2, 161889, Note_on_c, 0, 83, 92
2, 161892, Note_on_c, 0, 80, 74
2, 161910, Control_c, 0, 64, 0
2, 161912, Note_off_c, 0, 80, 64
2, 161924, Note_on_c, 0, 56, 67
2, 161927, Note_on_c, 0, 80, 101
2, 161928, Note_on_c, 0, 76, 81
2, 161933, Note_on_c, 0, 64, 66
2, 161935, Note_on_c, 0, 52, 63
2, 161939, Note_on_c, 0, 59, 48
2, 161948, Control_c, 0, 64, 127
2, 161955, Note_off_c, 0, 83, 64
2, 161967, Note_off_c, 0, 64, 64
2, 161968, Note_off_c, 0, 56, 64
2, 161971, Note_off_c, 0, 52, 64
2, 161977, Note_off_c, 0, 59, 64
2, 162052, Note_on_c, 0, 52, 61
2, 162055, Note_on_c, 0, 64, 75
2, 162055, Note_on_c, 0, 56, 65
2, 162064, Note_on_c, 0, 59, 67
2, 162099, Note_off_c, 0, 64, 64
2, 162106, Note_off_c, 0, 59, 64
2, 162106, Note_off_c, 0, 56, 64
2, 162108, Note_off_c, 0, 52, 64
2, 162175, Control_c, 0, 64, 0
2, 162182, Note_on_c, 0, 78, 71
2, 162188, Note_on_c, 0, 75, 62
2, 162190, Note_on_c, 0, 52, 26
2, 162200, Control_c, 0, 64, 127
2, 162201, Note_off_c, 0, 80, 64
2, 162202, Note_off_c, 0, 76, 64
2, 162206, Note_on_c, 0, 63, 41
2, 162206, Note_on_c, 0, 59, 35
2, 162207, Note_on_c, 0, 57, 39
2, 162222, Note_on_c, 0, 80, 72
2, 162236, Note_off_c, 0, 59, 64
2, 162239, Note_off_c, 0, 57, 64
2, 162240, Note_off_c, 0, 78, 64
2, 162242, Note_off_c, 0, 63, 64
2, 162244, Note_off_c, 0, 52, 64
2, 162265, Note_on_c, 0, 78, 67
2, 162274, Note_off_c, 0, 80, 64
2, 162316, Note_on_c, 0, 77, 79
2, 162318, Note_on_c, 0, 74, 84
2, 162328, Note_on_c, 0, 63, 48
2, 162328, Note_on_c, 0, 57, 41
2, 162329, Note_off_c, 0, 75, 64
2, 162332, Note_on_c, 0, 52, 48
2, 162334, Note_on_c, 0, 59, 41
2, 162337, Note_off_c, 0, 78, 64
2, 162356, Note_off_c, 0, 52, 64
2, 162358, Note_off_c, 0, 59, 64
2, 162361, Note_off_c, 0, 63, 64
2, 162364, Note_off_c, 0, 57, 64
2, 162388, Note_on_c, 0, 75, 85
2, 162391, Note_off_c, 0, 77, 64
2, 162393, Note_off_c, 0, 74, 64
2, 162394, Note_on_c, 0, 78, 89
2, 162465, Note_on_c, 0, 80, 87
2, 162465, Note_on_c, 0, 63, 48
2, 162472, Note_off_c, 0, 75, 64
2, 162472, Note_on_c, 0, 76, 78
2, 162476, Note_on_c, 0, 57, 41
2, 162478, Note_off_c, 0, 78, 64
2, 162480, Note_on_c, 0, 59, 45
2, 162485, Note_on_c, 0, 52, 27
2, 162503, Note_off_c, 0, 59, 64
2, 162503, Note_off_c, 0, 57, 64
2, 162508, Note_off_c, 0, 52, 64
2, 162509, Note_off_c, 0, 63, 64
2, 162532, Note_on_c, 0, 81, 89
2, 162538, Note_on_c, 0, 78, 83
2, 162545, Note_off_c, 0, 80, 64
2, 162552, Note_off_c, 0, 76, 64
2, 162612, Note_off_c, 0, 81, 64
2, 162615, Note_on_c, 0, 85, 100
2, 162615, Control_c, 0, 64, 0
2, 162616, Note_on_c, 0, 81, 89
2, 162622, Note_on_c, 0, 64, 67
2, 162622, Note_on_c, 0, 56, 58
2, 162625, Note_on_c, 0, 59, 53
2, 162625, Note_on_c, 0, 52, 52
2, 162626, Note_off_c, 0, 78, 64
2, 162638, Control_c, 0, 64, 127
2, 162651, Note_off_c, 0, 56, 64
2, 162657, Note_off_c, 0, 59, 64
2, 162660, Note_off_c, 0, 64, 64
2, 162669, Note_off_c, 0, 52, 64
2, 162724, Note_on_c, 0, 83, 80
2, 162724, Note_on_c, 0, 80, 80
2, 162729, Note_off_c, 0, 85, 64
2, 162730, Note_off_c, 0, 81, 64
2, 162738, Control_c, 0, 64, 0
2, 162760, Note_off_c, 0, 80, 64
2, 162764, Note_on_c, 0, 80, 96
2, 162766, Control_c, 0, 64, 127
2, 162772, Note_on_c, 0, 76, 59
2, 162774, Note_on_c, 0, 56, 62
2, 162776, Note_on_c, 0, 59, 71
2, 162781, Note_on_c, 0, 52, 61
2, 162782, Note_on_c, 0, 64, 62
2, 162800, Note_off_c, 0, 83, 64
2, 162809, Note_off_c, 0, 64, 64
2, 162813, Note_off_c, 0, 59, 64
2, 162813, Note_off_c, 0, 56, 64
2, 162818, Note_off_c, 0, 52, 64
2, 162895, Note_on_c, 0, 56, 36
2, 162900, Note_on_c, 0, 59, 46
2, 162900, Note_on_c, 0, 52, 59
2, 162904, Note_on_c, 0, 64, 76
2, 162931, Note_off_c, 0, 59, 64
2, 162940, Note_off_c, 0, 52, 64
2, 162948, Note_off_c, 0, 56, 64
2, 162953, Note_off_c, 0, 64, 64
2, 163038, Note_off_c, 0, 80, 64
2, 163038, Note_on_c, 0, 78, 70
2, 163041, Note_on_c, 0, 73, 66
2, 163045, Control_c, 0, 64, 0
2, 163046, Note_off_c, 0, 76, 64
2, 163051, Note_on_c, 0, 64, 59
2, 163054, Note_on_c, 0, 57, 58
2, 163062, Control_c, 0, 64, 127
2, 163083, Note_off_c, 0, 78, 64
2, 163089, Note_off_c, 0, 57, 64
2, 163099, Note_off_c, 0, 64, 64
2, 163112, Note_on_c, 0, 72, 70
2, 163113, Note_on_c, 0, 78, 71
2, 163120, Note_off_c, 0, 73, 64
2, 163143, Note_off_c, 0, 78, 64
2, 163179, Note_on_c, 0, 78, 70
2, 163183, Note_on_c, 0, 71, 65
2, 163191, Note_off_c, 0, 72, 64
2, 163192, Note_on_c, 0, 59, 58
2, 163192, Note_on_c, 0, 63, 59
2, 163227, Note_off_c, 0, 59, 64
2, 163240, Note_off_c, 0, 63, 64
2, 163256, Note_off_c, 0, 78, 64
2, 163330, Note_on_c, 0, 80, 72
2, 163330, Control_c, 0, 64, 0
2, 163336, Note_on_c, 0, 69, 63
2, 163337, Note_on_c, 0, 63, 67
2, 163342, Note_on_c, 0, 59, 57
2, 163356, Note_off_c, 0, 71, 64
2, 163361, Control_c, 0, 64, 127
2, 163385, Note_off_c, 0, 59, 64
2, 163385, Note_off_c, 0, 63, 64
2, 163470, Note_on_c, 0, 68, 70
2, 163471, Control_c, 0, 64, 0
2, 163478, Note_on_c, 0, 76, 62
2, 163480, Note_on_c, 0, 52, 66
2, 163482, Note_on_c, 0, 59, 67
2, 163485, Note_on_c, 0, 64, 66
2, 163499, Note_off_c, 0, 80, 64
2, 163504, Control_c, 0, 64, 127
2, 163525, Note_off_c, 0, 69, 64
2, 163532, Note_off_c, 0, 52, 64
2, 163549, Note_off_c, 0, 64, 64
2, 163551, Note_off_c, 0, 59, 64
2, 163619, Note_on_c, 0, 59, 57
2, 163623, Note_on_c, 0, 64, 66
2, 163624, Note_on_c, 0, 52, 62
2, 163686, Note_off_c, 0, 52, 64
2, 163686, Note_off_c, 0, 64, 64
2, 163701, Note_off_c, 0, 59, 64
2, 163778, Note_off_c, 0, 76, 64
2, 163779, Note_off_c, 0, 68, 64
2, 163780, Note_on_c, 0, 88, 70
2, 163780, Note_on_c, 0, 76, 58
2, 163787, Note_on_c, 0, 56, 66
2, 163790, Note_on_c, 0, 64, 55
2, 163839, Note_off_c, 0, 64, 64
2, 163858, Note_off_c, 0, 56, 64
2, 163890, Note_off_c, 0, 88, 64
2, 163911, Note_off_c, 0, 76, 64
2, 163943, Note_on_c, 0, 78, 42
2, 163947, Note_on_c, 0, 73, 46
2, 163947, Note_on_c, 0, 64, 44
2, 163948, Note_on_c, 0, 57, 44
2, 163984, Note_off_c, 0, 78, 64
2, 163987, Note_off_c, 0, 57, 64
2, 163993, Note_off_c, 0, 73, 64
2, 163994, Note_off_c, 0, 64, 64
2, 164020, Note_on_c, 0, 73, 53
2, 164023, Note_on_c, 0, 78, 53
2, 164057, Note_off_c, 0, 78, 64
2, 164101, Note_on_c, 0, 72, 50
2, 164101, Note_on_c, 0, 78, 55
2, 164106, Note_on_c, 0, 57, 44
2, 164108, Note_off_c, 0, 73, 64
2, 164112, Note_on_c, 0, 64, 42
2, 164163, Note_off_c, 0, 64, 64
2, 164165, Note_off_c, 0, 57, 64
2, 164223, Note_off_c, 0, 72, 64
2, 164232, Note_off_c, 0, 78, 64
2, 164286, Note_on_c, 0, 80, 52
2, 164286, Note_on_c, 0, 71, 44
2, 164286, Note_on_c, 0, 63, 41
2, 164288, Note_on_c, 0, 59, 44
2, 164302, Control_c, 0, 64, 0
2, 164314, Control_c, 0, 64, 127
2, 164335, Note_off_c, 0, 63, 64
2, 164344, Note_off_c, 0, 59, 64
2, 164382, Note_on_c, 0, 69, 44
2, 164400, Note_off_c, 0, 71, 64
2, 164504, Note_on_c, 0, 68, 52
2, 164510, Note_off_c, 0, 80, 64
2, 164510, Note_on_c, 0, 76, 44
2, 164512, Note_on_c, 0, 64, 29
2, 164514, Note_off_c, 0, 69, 64
2, 164514, Note_on_c, 0, 59, 41
2, 164516, Note_on_c, 0, 52, 28
2, 164533, Control_c, 0, 64, 0
2, 164569, Control_c, 0, 64, 127
2, 164816, Note_off_c, 0, 68, 64
2, 164822, Note_off_c, 0, 76, 64
2, 164824, Note_off_c, 0, 64, 64
2, 164826, Note_off_c, 0, 59, 64
2, 164828, Note_off_c, 0, 52, 64
2, 164850, Note_on_c, 0, 76, 35
2, 164851, Note_on_c, 0, 40, 35
2, 164854, Note_on_c, 0, 88, 41
2, 164854, Note_on_c, 0, 52, 29
2, 164876, Control_c, 0, 64, 0
2, 164911, Control_c, 0, 64, 127
2, 164980, Note_off_c, 0, 52, 64
2, 164988, Note_off_c, 0, 40, 64
2, 164990, Note_off_c, 0, 76, 64
2, 164996, Note_off_c, 0, 88, 64
2, 165490, Control_c, 0, 64, 0
2, 166309, Control_c, 0, 64, 127
2, 166564, Note_on_c, 0, 70, 52
2, 166752, Note_on_c, 0, 39, 52
2, 166752, Note_on_c, 0, 66, 46
2, 166756, Control_c, 0, 64, 0
2, 166796, Control_c, 0, 64, 127
2, 166839, Note_on_c, 0, 75, 46
2, 166876, Note_off_c, 0, 70, 64
2, 166882, Note_off_c, 0, 66, 64
2, 166932, Note_on_c, 0, 51, 42
2, 166935, Note_on_c, 0, 73, 53
2, 166938, Note_on_c, 0, 67, 59
2, 166942, Note_on_c, 0, 58, 46
2, 166946, Note_off_c, 0, 75, 64
2, 166997, Note_off_c, 0, 73, 64
2, 167071, Note_off_c, 0, 67, 64
2, 167089, Note_on_c, 0, 71, 44
2, 167096, Note_on_c, 0, 59, 41
2, 167109, Note_off_c, 0, 58, 64
2, 167166, Note_on_c, 0, 70, 65
2, 167170, Note_on_c, 0, 61, 46
2, 167172, Note_off_c, 0, 59, 64
2, 167179, Note_off_c, 0, 71, 64
2, 167236, Note_on_c, 0, 68, 62
2, 167238, Note_on_c, 0, 59, 46
2, 167242, Note_off_c, 0, 70, 64
2, 167248, Note_off_c, 0, 61, 64
2, 167276, Note_off_c, 0, 39, 64
2, 167305, Note_on_c, 0, 71, 54
2, 167310, Note_on_c, 0, 56, 53
2, 167313, Note_off_c, 0, 68, 64
2, 167317, Note_off_c, 0, 59, 64
2, 167357, Control_c, 0, 64, 0
2, 167380, Note_on_c, 0, 65, 53
2, 167380, Note_on_c, 0, 62, 53
2, 167388, Note_off_c, 0, 71, 64
2, 167399, Note_off_c, 0, 56, 64
2, 167429, Control_c, 0, 64, 127
2, 167495, Control_c, 0, 64, 0
2, 167520, Note_on_c, 0, 58, 62
2, 167527, Note_on_c, 0, 70, 62
2, 167548, Control_c, 0, 64, 127
2, 167555, Note_off_c, 0, 65, 64
2, 167570, Note_off_c, 0, 62, 64
2, 167664, Note_on_c, 0, 66, 46
2, 167664, Note_on_c, 0, 63, 44
2, 167718, Note_off_c, 0, 70, 64
2, 167721, Note_off_c, 0, 58, 64
2, 167722, Control_c, 0, 64, 0
2, 167745, Control_c, 0, 64, 127
2, 167752, Note_on_c, 0, 75, 52
2, 167771, Control_c, 0, 64, 0
2, 167792, Control_c, 0, 64, 127
2, 167824, Note_on_c, 0, 73, 59
2, 167832, Note_on_c, 0, 67, 59
2, 167832, Note_on_c, 0, 58, 32
2, 167834, Note_off_c, 0, 75, 64
2, 167843, Note_off_c, 0, 66, 64
2, 167853, Note_off_c, 0, 63, 64
2, 167895, Control_c, 0, 64, 0
2, 167948, Control_c, 0, 64, 127
2, 167984, Note_on_c, 0, 63, 53
2, 167987, Note_off_c, 0, 73, 64
2, 167992, Note_on_c, 0, 71, 46
2, 167995, Note_off_c, 0, 58, 64
2, 167995, Note_off_c, 0, 67, 64
2, 168056, Note_on_c, 0, 70, 55
2, 168064, Note_on_c, 0, 61, 41
2, 168069, Note_off_c, 0, 63, 64
2, 168077, Note_off_c, 0, 71, 64
2, 168140, Note_off_c, 0, 70, 64
2, 168144, Note_on_c, 0, 59, 41
2, 168145, Note_on_c, 0, 68, 59
2, 168148, Note_off_c, 0, 61, 64
2, 168153, Control_c, 0, 64, 0
2, 168169, Control_c, 0, 64, 127
2, 168220, Note_on_c, 0, 56, 53
2, 168221, Note_on_c, 0, 65, 52
2, 168240, Note_off_c, 0, 59, 64
2, 168241, Note_off_c, 0, 68, 64
2, 168276, Control_c, 0, 64, 0
2, 168294, Note_on_c, 0, 62, 65
2, 168303, Control_c, 0, 64, 127
2, 168318, Note_off_c, 0, 56, 64
2, 168319, Note_off_c, 0, 65, 64
2, 168444, Note_on_c, 0, 63, 59
2, 168447, Note_on_c, 0, 54, 44
2, 168459, Note_off_c, 0, 62, 64
2, 168533, Note_off_c, 0, 51, 64
2, 168596, Note_on_c, 0, 51, 46
2, 168596, Note_on_c, 0, 70, 55
2, 168596, Note_on_c, 0, 66, 52
2, 168603, Control_c, 0, 64, 0
2, 168621, Note_off_c, 0, 63, 64
2, 168624, Note_off_c, 0, 54, 64
2, 168625, Control_c, 0, 64, 127
2, 168665, Note_on_c, 0, 75, 52
2, 168696, Note_off_c, 0, 70, 64
2, 168720, Note_on_c, 0, 58, 46
2, 168724, Note_on_c, 0, 73, 46
2, 168724, Note_on_c, 0, 67, 59
2, 168751, Note_off_c, 0, 75, 64
2, 168753, Note_off_c, 0, 66, 64
2, 168876, Note_on_c, 0, 59, 24
2, 168877, Note_off_c, 0, 67, 64
2, 168877, Note_on_c, 0, 71, 46
2, 168879, Note_off_c, 0, 58, 64
2, 168883, Note_off_c, 0, 73, 64
2, 168940, Note_on_c, 0, 61, 52
2, 168946, Note_on_c, 0, 70, 61
2, 168951, Note_off_c, 0, 59, 64
2, 168952, Note_off_c, 0, 71, 64
2, 169003, Control_c, 0, 64, 0
2, 169008, Note_on_c, 0, 68, 63
2, 169014, Note_on_c, 0, 59, 48
2, 169019, Note_off_c, 0, 61, 64
2, 169025, Note_off_c, 0, 70, 64
2, 169046, Control_c, 0, 64, 127
2, 169082, Note_on_c, 0, 71, 59
2, 169084, Note_on_c, 0, 56, 29
2, 169093, Note_off_c, 0, 68, 64
2, 169099, Note_off_c, 0, 59, 64
2, 169147, Control_c, 0, 64, 0
2, 169156, Note_on_c, 0, 62, 53
2, 169158, Note_on_c, 0, 65, 53
2, 169170, Note_off_c, 0, 71, 64
2, 169172, Note_off_c, 0, 56, 64
2, 169183, Control_c, 0, 64, 127
2, 169292, Control_c, 0, 64, 0
2, 169298, Note_on_c, 0, 70, 55
2, 169309, Note_on_c, 0, 58, 52
2, 169340, Control_c, 0, 64, 127
2, 169440, Control_c, 0, 64, 0
2, 169448, Note_on_c, 0, 66, 53
2, 169452, Note_on_c, 0, 63, 53
2, 169469, Note_off_c, 0, 65, 64
2, 169473, Note_off_c, 0, 62, 64
2, 169475, Control_c, 0, 64, 127
2, 169489, Note_off_c, 0, 58, 64
2, 169491, Control_c, 0, 64, 0
2, 169512, Control_c, 0, 64, 127
2, 169527, Note_on_c, 0, 75, 46
2, 169538, Note_off_c, 0, 70, 64
2, 169545, Note_off_c, 0, 51, 64
2, 169556, Note_off_c, 0, 66, 64
2, 169596, Note_on_c, 0, 73, 52
2, 169600, Note_on_c, 0, 51, 46
2, 169604, Note_on_c, 0, 67, 61
2, 169615, Control_c, 0, 64, 0
2, 169623, Note_off_c, 0, 75, 64
2, 169668, Control_c, 0, 64, 127
2, 169742, Note_off_c, 0, 63, 64
2, 169746, Note_on_c, 0, 71, 48
2, 169748, Note_on_c, 0, 63, 46
2, 169751, Note_off_c, 0, 73, 64
2, 169759, Note_off_c, 0, 67, 64
2, 169820, Note_on_c, 0, 70, 61
2, 169820, Note_on_c, 0, 61, 41
2, 169832, Note_off_c, 0, 71, 64
2, 169834, Note_off_c, 0, 63, 64
2, 169888, Note_on_c, 0, 59, 44
2, 169889, Note_on_c, 0, 68, 55
2, 169910, Note_off_c, 0, 61, 64
2, 169910, Note_off_c, 0, 70, 64
2, 169965, Note_on_c, 0, 65, 52
2, 169968, Note_on_c, 0, 56, 40
2, 169982, Note_off_c, 0, 59, 64
2, 169983, Note_off_c, 0, 68, 64
2, 170036, Control_c, 0, 64, 0
2, 170058, Note_on_c, 0, 62, 52
2, 170070, Note_off_c, 0, 56, 64
2, 170089, Control_c, 0, 64, 127
2, 170160, Note_off_c, 0, 65, 64
2, 170208, Note_on_c, 0, 63, 53
2, 170298, Note_off_c, 0, 62, 64
2, 170320, Note_off_c, 0, 51, 64
2, 170360, Note_on_c, 0, 51, 46
2, 170364, Control_c, 0, 64, 0
2, 170370, Note_on_c, 0, 70, 55
2, 170371, Note_on_c, 0, 66, 53
2, 170398, Control_c, 0, 64, 127
2, 170447, Control_c, 0, 64, 127
2, 170510, Note_on_c, 0, 72, 52
2, 170512, Note_on_c, 0, 56, 53
2, 170518, Control_c, 0, 64, 0
2, 170527, Note_off_c, 0, 70, 64
2, 170528, Note_off_c, 0, 66, 64
2, 170548, Control_c, 0, 64, 127
2, 170555, Note_on_c, 0, 73, 53
2, 170557, Note_off_c, 0, 72, 64
2, 170598, Note_on_c, 0, 72, 53
2, 170624, Note_off_c, 0, 73, 64
2, 170638, Control_c, 0, 64, 0
2, 170647, Note_on_c, 0, 70, 46
2, 170654, Note_off_c, 0, 72, 64
2, 170656, Note_on_c, 0, 44, 55
2, 170692, Control_c, 0, 64, 127
2, 170708, Note_on_c, 0, 72, 48
2, 170715, Note_off_c, 0, 70, 64
2, 170743, Note_off_c, 0, 63, 64
2, 170776, Note_on_c, 0, 49, 53
2, 170780, Note_on_c, 0, 65, 52
2, 170782, Note_on_c, 0, 75, 53
2, 170782, Control_c, 0, 64, 0
2, 170788, Note_off_c, 0, 44, 64
2, 170789, Note_off_c, 0, 72, 64
2, 170791, Note_off_c, 0, 51, 64
2, 170827, Control_c, 0, 64, 127
2, 170843, Note_on_c, 0, 73, 53
2, 170852, Note_off_c, 0, 75, 64
2, 170852, Note_off_c, 0, 65, 64
2, 170887, Note_off_c, 0, 56, 64
2, 170905, Note_off_c, 0, 73, 64
2, 170908, Note_on_c, 0, 56, 46
2, 170912, Note_on_c, 0, 64, 46
2, 170915, Note_on_c, 0, 68, 59
2, 171011, Note_on_c, 0, 70, 57
2, 171025, Note_off_c, 0, 68, 64
2, 171028, Note_off_c, 0, 64, 64
2, 171056, Note_on_c, 0, 71, 52
2, 171063, Note_on_c, 0, 42, 46
2, 171068, Note_on_c, 0, 54, 53
2, 171072, Note_off_c, 0, 70, 64
2, 171082, Note_off_c, 0, 49, 64
2, 171092, Note_on_c, 0, 70, 62
2, 171101, Note_off_c, 0, 56, 64
2, 171102, Note_off_c, 0, 71, 64
2, 171140, Note_on_c, 0, 68, 63
2, 171157, Note_off_c, 0, 70, 64
2, 171185, Note_on_c, 0, 70, 62
2, 171193, Note_off_c, 0, 68, 64
2, 171214, Note_on_c, 0, 47, 50
2, 171223, Control_c, 0, 64, 0
2, 171232, Note_on_c, 0, 73, 65
2, 171237, Note_off_c, 0, 70, 64
2, 171237, Note_on_c, 0, 63, 63
2, 171243, Note_off_c, 0, 42, 64
2, 171268, Control_c, 0, 64, 127
2, 171294, Note_on_c, 0, 71, 46
2, 171298, Note_off_c, 0, 73, 64
2, 171319, Note_off_c, 0, 54, 64
2, 171354, Control_c, 0, 64, 0
2, 171360, Note_off_c, 0, 71, 64
2, 171368, Note_on_c, 0, 66, 44
2, 171380, Note_on_c, 0, 54, 50
2, 171409, Control_c, 0, 64, 127
2, 171425, Note_off_c, 0, 66, 64
2, 171466, Note_on_c, 0, 68, 66
2, 171493, Note_off_c, 0, 63, 64
2, 171508, Note_on_c, 0, 70, 59
2, 171516, Note_off_c, 0, 68, 64
2, 171520, Note_on_c, 0, 41, 46
2, 171524, Note_on_c, 0, 53, 46
2, 171524, Note_on_c, 0, 68, 61
2, 171541, Note_off_c, 0, 54, 64
2, 171542, Note_off_c, 0, 47, 64
2, 171543, Note_off_c, 0, 70, 64
2, 171560, Note_on_c, 0, 70, 59
2, 171585, Note_off_c, 0, 68, 64
2, 171588, Note_on_c, 0, 68, 61
2, 171606, Note_off_c, 0, 70, 64
2, 171620, Note_on_c, 0, 66, 53
2, 171633, Note_off_c, 0, 68, 64
2, 171646, Note_on_c, 0, 68, 53
2, 171654, Note_off_c, 0, 66, 64
2, 171680, Control_c, 0, 64, 0
2, 171688, Note_on_c, 0, 62, 55
2, 171690, Note_on_c, 0, 71, 59
2, 171692, Note_off_c, 0, 68, 64
2, 171728, Note_on_c, 0, 46, 53
2, 171743, Control_c, 0, 64, 127
2, 171773, Note_on_c, 0, 70, 59
2, 171785, Note_off_c, 0, 71, 64
2, 171787, Note_off_c, 0, 62, 64
2, 171819, Control_c, 0, 64, 0
2, 171838, Note_off_c, 0, 41, 64
2, 171842, Note_off_c, 0, 53, 64
2, 171842, Note_on_c, 0, 65, 53
2, 171842, Note_on_c, 0, 56, 46
2, 171860, Note_off_c, 0, 70, 64
2, 171867, Control_c, 0, 64, 127
2, 171986, Note_on_c, 0, 63, 57
2, 171986, Control_c, 0, 64, 0
2, 171992, Note_off_c, 0, 65, 64
2, 171995, Note_on_c, 0, 54, 42
2, 171995, Note_on_c, 0, 51, 46
2, 172020, Note_off_c, 0, 46, 64
2, 172025, Note_off_c, 0, 56, 64
2, 172033, Control_c, 0, 64, 127
2, 172136, Control_c, 0, 64, 0
2, 172151, Note_off_c, 0, 63, 64
2, 172153, Note_on_c, 0, 66, 48
2, 172153, Note_on_c, 0, 63, 46
2, 172156, Note_on_c, 0, 70, 45
2, 172173, Control_c, 0, 64, 127
2, 172198, Note_off_c, 0, 51, 64
2, 172198, Note_off_c, 0, 54, 64
2, 172246, Note_off_c, 0, 66, 64
2, 172296, Control_c, 0, 64, 0
2, 172306, Note_on_c, 0, 56, 24
2, 172310, Note_on_c, 0, 72, 29
2, 172327, Note_off_c, 0, 70, 64
2, 172329, Control_c, 0, 64, 127
2, 172339, Note_on_c, 0, 73, 40
2, 172350, Note_off_c, 0, 72, 64
2, 172387, Note_on_c, 0, 72, 36
2, 172392, Note_off_c, 0, 63, 64
2, 172399, Note_off_c, 0, 73, 64
2, 172430, Note_on_c, 0, 70, 50
2, 172440, Note_on_c, 0, 44, 45
2, 172448, Note_off_c, 0, 72, 64
2, 172500, Note_on_c, 0, 72, 41
2, 172515, Note_off_c, 0, 56, 64
2, 172516, Note_off_c, 0, 70, 64
2, 172536, Note_on_c, 0, 49, 53
2, 172576, Note_on_c, 0, 75, 42
2, 172577, Note_on_c, 0, 65, 53
2, 172585, Note_off_c, 0, 44, 64
2, 172588, Note_off_c, 0, 72, 64
2, 172590, Control_c, 0, 64, 0
2, 172610, Control_c, 0, 64, 127
2, 172672, Note_on_c, 0, 73, 40
2, 172686, Note_off_c, 0, 75, 64
2, 172708, Note_on_c, 0, 64, 32
2, 172708, Note_on_c, 0, 68, 53
2, 172712, Note_on_c, 0, 54, 36
2, 172712, Control_c, 0, 64, 0
2, 172714, Note_off_c, 0, 65, 64
2, 172723, Note_off_c, 0, 49, 64
2, 172733, Note_off_c, 0, 73, 64
2, 172748, Control_c, 0, 64, 127
2, 172795, Note_on_c, 0, 70, 52
2, 172799, Note_off_c, 0, 68, 64
2, 172862, Note_on_c, 0, 68, 53
2, 172870, Note_on_c, 0, 42, 41
2, 172875, Control_c, 0, 64, 0
2, 172880, Note_off_c, 0, 70, 64
2, 172888, Control_c, 0, 64, 127
2, 172889, Note_off_c, 0, 64, 64
2, 172937, Note_on_c, 0, 70, 52
2, 172952, Note_off_c, 0, 68, 64
2, 172960, Note_on_c, 0, 47, 46
2, 172980, Note_on_c, 0, 59, 32
2, 172984, Note_on_c, 0, 73, 46
2, 172984, Note_on_c, 0, 63, 53
2, 172996, Note_off_c, 0, 42, 64
2, 173001, Note_off_c, 0, 70, 64
2, 173015, Control_c, 0, 64, 0
2, 173023, Note_off_c, 0, 54, 64
2, 173034, Control_c, 0, 64, 127
2, 173080, Note_on_c, 0, 71, 46
2, 173082, Control_c, 0, 64, 127
2, 173087, Note_off_c, 0, 73, 64
2, 173123, Note_off_c, 0, 47, 64
2, 173152, Note_on_c, 0, 53, 41
2, 173160, Note_on_c, 0, 66, 57
2, 173175, Note_off_c, 0, 71, 64
2, 173232, Note_on_c, 0, 68, 53
2, 173255, Note_off_c, 0, 66, 64
2, 173283, Note_off_c, 0, 59, 64
2, 173296, Note_on_c, 0, 41, 45
2, 173304, Note_on_c, 0, 66, 44
2, 173316, Note_off_c, 0, 68, 64
2, 173317, Control_c, 0, 64, 0
2, 173368, Note_on_c, 0, 68, 52
2, 173371, Control_c, 0, 64, 127
2, 173386, Note_off_c, 0, 66, 64
2, 173432, Note_on_c, 0, 46, 53
2, 173440, Note_on_c, 0, 71, 46
2, 173440, Note_on_c, 0, 62, 50
2, 173461, Control_c, 0, 64, 0
2, 173462, Note_off_c, 0, 68, 64
2, 173463, Note_off_c, 0, 41, 64
2, 173488, Note_off_c, 0, 63, 64
2, 173516, Control_c, 0, 64, 127
2, 173519, Note_off_c, 0, 53, 64
2, 173572, Note_on_c, 0, 70, 52
2, 173576, Note_off_c, 0, 71, 64
2, 173598, Control_c, 0, 64, 0
2, 173614, Note_on_c, 0, 65, 46
2, 173616, Note_on_c, 0, 56, 41
2, 173655, Control_c, 0, 64, 127
2, 173657, Note_off_c, 0, 70, 64
2, 173736, Note_off_c, 0, 62, 64
2, 173749, Note_off_c, 0, 46, 64
2, 173756, Control_c, 0, 64, 0
2, 173760, Note_on_c, 0, 54, 41
2, 173760, Note_on_c, 0, 51, 41
2, 173765, Note_on_c, 0, 63, 50
2, 173778, Note_off_c, 0, 65, 64
2, 173781, Note_off_c, 0, 56, 64
2, 173812, Control_c, 0, 64, 127
2, 173906, Note_off_c, 0, 63, 64
2, 173906, Control_c, 0, 64, 0
2, 173922, Note_on_c, 0, 66, 53
2, 173924, Note_on_c, 0, 70, 48
2, 173927, Note_on_c, 0, 58, 42
2, 173939, Note_off_c, 0, 54, 64
2, 173953, Control_c, 0, 64, 127
2, 173997, Note_on_c, 0, 75, 44
2, 174021, Note_off_c, 0, 70, 64
2, 174038, Note_off_c, 0, 51, 64
2, 174051, Note_on_c, 0, 73, 41
2, 174056, Note_on_c, 0, 67, 53
2, 174057, Note_on_c, 0, 51, 55
2, 174065, Note_off_c, 0, 66, 64
2, 174066, Control_c, 0, 64, 0
2, 174070, Note_off_c, 0, 75, 64
2, 174097, Control_c, 0, 64, 127
2, 174127, Note_off_c, 0, 58, 64
2, 174208, Note_on_c, 0, 59, 35
2, 174209, Note_on_c, 0, 71, 40
2, 174215, Control_c, 0, 64, 0
2, 174224, Note_off_c, 0, 73, 64
2, 174235, Control_c, 0, 64, 127
2, 174276, Note_on_c, 0, 70, 53
2, 174280, Note_on_c, 0, 61, 44
2, 174295, Note_off_c, 0, 59, 64
2, 174296, Note_off_c, 0, 71, 64
2, 174336, Control_c, 0, 64, 0
2, 174341, Note_off_c, 0, 67, 64
2, 174352, Note_on_c, 0, 59, 41
2, 174354, Note_on_c, 0, 68, 61
2, 174367, Note_off_c, 0, 70, 64
2, 174371, Note_off_c, 0, 61, 64
2, 174371, Control_c, 0, 64, 127
2, 174427, Note_on_c, 0, 71, 46
2, 174438, Note_on_c, 0, 56, 31
2, 174441, Note_off_c, 0, 59, 64
2, 174443, Note_off_c, 0, 68, 64
2, 174482, Control_c, 0, 64, 0
2, 174504, Note_on_c, 0, 62, 53
2, 174508, Note_on_c, 0, 65, 61
2, 174519, Note_off_c, 0, 71, 64
2, 174530, Note_off_c, 0, 56, 64
2, 174535, Control_c, 0, 64, 127
2, 174627, Control_c, 0, 64, 0
2, 174649, Note_on_c, 0, 70, 62
2, 174662, Note_on_c, 0, 58, 61
2, 174668, Note_off_c, 0, 62, 64
2, 174672, Note_off_c, 0, 65, 64
2, 174692, Control_c, 0, 64, 127
2, 174776, Control_c, 0, 64, 0
2, 174784, Note_on_c, 0, 63, 41
2, 174786, Note_on_c, 0, 66, 62
2, 174837, Control_c, 0, 64, 127
2, 174860, Note_on_c, 0, 75, 52
2, 174862, Note_off_c, 0, 58, 64
2, 174868, Note_off_c, 0, 70, 64
2, 174928, Note_on_c, 0, 58, 52
2, 174932, Note_on_c, 0, 67, 59
2, 174935, Note_on_c, 0, 73, 48
2, 174943, Note_off_c, 0, 75, 64
2, 174955, Note_off_c, 0, 63, 64
2, 174957, Note_off_c, 0, 66, 64
2, 175072, Note_on_c, 0, 63, 53
2, 175078, Note_on_c, 0, 71, 48
2, 175081, Note_off_c, 0, 58, 64
2, 175085, Note_off_c, 0, 67, 64
2, 175088, Note_off_c, 0, 73, 64
2, 175148, Note_on_c, 0, 61, 40
2, 175153, Note_on_c, 0, 70, 59
2, 175170, Note_off_c, 0, 63, 64
2, 175176, Note_off_c, 0, 71, 64
2, 175228, Note_on_c, 0, 68, 65
2, 175228, Note_on_c, 0, 59, 45
2, 175254, Note_off_c, 0, 61, 64
2, 175259, Note_off_c, 0, 70, 64
2, 175267, Control_c, 0, 64, 0
2, 175286, Control_c, 0, 64, 127
2, 175288, Note_on_c, 0, 65, 55
2, 175308, Note_on_c, 0, 56, 36
2, 175331, Note_off_c, 0, 59, 64
2, 175331, Note_off_c, 0, 68, 64
2, 175359, Control_c, 0, 64, 0
2, 175379, Note_off_c, 0, 65, 64
2, 175384, Note_on_c, 0, 62, 74
2, 175419, Control_c, 0, 64, 127
2, 175519, Control_c, 0, 64, 0
2, 175532, Note_on_c, 0, 54, 44
2, 175533, Note_on_c, 0, 63, 53
2, 175535, Note_off_c, 0, 56, 64
2, 175541, Note_off_c, 0, 62, 64
2, 175554, Control_c, 0, 64, 127
2, 175639, Note_off_c, 0, 51, 64
2, 175688, Control_c, 0, 64, 0
2, 175694, Note_on_c, 0, 70, 54
2, 175694, Note_on_c, 0, 66, 59
2, 175696, Note_on_c, 0, 51, 48
2, 175703, Note_off_c, 0, 54, 64
2, 175704, Note_off_c, 0, 63, 64
2, 175714, Control_c, 0, 64, 127
2, 175758, Note_on_c, 0, 75, 52
2, 175776, Note_off_c, 0, 70, 64
2, 175828, Note_on_c, 0, 73, 52
2, 175828, Note_on_c, 0, 67, 61
2, 175828, Note_on_c, 0, 58, 46
2, 175845, Note_off_c, 0, 66, 64
2, 175846, Note_off_c, 0, 75, 64
2, 175972, Note_on_c, 0, 71, 53
2, 175974, Note_on_c, 0, 59, 52
2, 175989, Note_off_c, 0, 58, 64
2, 175989, Note_off_c, 0, 67, 64
2, 175989, Note_off_c, 0, 73, 64
2, 176047, Note_on_c, 0, 70, 63
2, 176048, Note_on_c, 0, 61, 53
2, 176056, Note_off_c, 0, 71, 64
2, 176058, Note_off_c, 0, 59, 64
2, 176100, Control_c, 0, 64, 0
2, 176109, Note_on_c, 0, 68, 63
2, 176112, Note_on_c, 0, 59, 41
2, 176124, Note_off_c, 0, 70, 64
2, 176125, Note_off_c, 0, 61, 64
2, 176128, Control_c, 0, 64, 127
2, 176182, Note_on_c, 0, 71, 57
2, 176184, Note_on_c, 0, 56, 41
2, 176191, Note_off_c, 0, 68, 64
2, 176197, Note_off_c, 0, 59, 64
2, 176236, Control_c, 0, 64, 0
2, 176260, Note_on_c, 0, 62, 59
2, 176264, Note_on_c, 0, 65, 61
2, 176283, Note_off_c, 0, 71, 64
2, 176289, Control_c, 0, 64, 127
2, 176390, Control_c, 0, 64, 0
2, 176396, Note_on_c, 0, 58, 61
2, 176401, Note_on_c, 0, 70, 63
2, 176413, Note_off_c, 0, 56, 64
2, 176436, Control_c, 0, 64, 127
2, 176540, Control_c, 0, 64, 0
2, 176544, Note_on_c, 0, 63, 63
2, 176544, Note_on_c, 0, 66, 61
2, 176558, Note_off_c, 0, 62, 64
2, 176562, Note_off_c, 0, 65, 64
2, 176575, Note_off_c, 0, 58, 64
2, 176583, Control_c, 0, 64, 127
2, 176606, Note_on_c, 0, 75, 53
2, 176620, Note_off_c, 0, 70, 64
2, 176627, Note_off_c, 0, 51, 64
2, 176676, Note_on_c, 0, 67, 59
2, 176678, Note_on_c, 0, 73, 55
2, 176680, Note_on_c, 0, 51, 59
2, 176684, Note_off_c, 0, 75, 64
2, 176695, Note_off_c, 0, 66, 64
2, 176820, Note_off_c, 0, 63, 64
2, 176825, Note_on_c, 0, 71, 44
2, 176833, Note_on_c, 0, 63, 41
2, 176839, Note_off_c, 0, 73, 64
2, 176901, Note_on_c, 0, 61, 48
2, 176902, Note_on_c, 0, 70, 65
2, 176930, Note_off_c, 0, 71, 64
2, 176938, Note_off_c, 0, 63, 64
2, 176968, Note_on_c, 0, 59, 36
2, 176969, Note_on_c, 0, 68, 62
2, 176978, Note_off_c, 0, 67, 64
2, 176992, Note_off_c, 0, 70, 64
2, 176998, Note_off_c, 0, 61, 64
2, 177052, Note_on_c, 0, 65, 55
2, 177056, Note_on_c, 0, 56, 55
2, 177067, Note_off_c, 0, 59, 64
2, 177068, Note_off_c, 0, 68, 64
2, 177113, Control_c, 0, 64, 0
2, 177128, Note_on_c, 0, 62, 65
2, 177154, Control_c, 0, 64, 127
2, 177155, Note_off_c, 0, 65, 64
2, 177159, Note_off_c, 0, 56, 64
2, 177271, Note_on_c, 0, 63, 63
2, 177325, Note_off_c, 0, 62, 64
2, 177421, Note_on_c, 0, 66, 59
2, 177425, Note_on_c, 0, 70, 36
2, 177430, Control_c, 0, 64, 0
2, 177441, Control_c, 0, 64, 127
2, 177565, Note_on_c, 0, 56, 52
2, 177565, Note_on_c, 0, 72, 48
2, 177571, Control_c, 0, 64, 0
2, 177580, Note_off_c, 0, 70, 64
2, 177592, Control_c, 0, 64, 127
2, 177605, Note_off_c, 0, 51, 64
2, 177605, Note_on_c, 0, 73, 52
2, 177620, Note_off_c, 0, 72, 64
2, 177655, Note_on_c, 0, 72, 53
2, 177679, Note_on_c, 0, 44, 27
2, 177680, Note_off_c, 0, 73, 64
2, 177688, Note_on_c, 0, 70, 52
2, 177695, Control_c, 0, 64, 0
2, 177702, Note_off_c, 0, 72, 64
2, 177743, Note_on_c, 0, 72, 53
2, 177748, Control_c, 0, 64, 127
2, 177751, Note_off_c, 0, 70, 64
2, 177826, Control_c, 0, 64, 0
2, 177832, Note_on_c, 0, 75, 53
2, 177833, Note_on_c, 0, 65, 42
2, 177840, Note_off_c, 0, 66, 64
2, 177841, Note_on_c, 0, 49, 35
2, 177843, Note_off_c, 0, 72, 64
2, 177880, Control_c, 0, 64, 127
2, 177884, Note_off_c, 0, 44, 64
2, 177889, Note_on_c, 0, 73, 46
2, 177900, Note_off_c, 0, 75, 64
2, 177914, Note_off_c, 0, 63, 64
2, 177940, Note_off_c, 0, 56, 64
2, 177964, Note_on_c, 0, 68, 53
2, 177968, Note_on_c, 0, 64, 36
2, 177968, Note_on_c, 0, 56, 32
2, 177972, Note_off_c, 0, 65, 64
2, 177975, Note_off_c, 0, 73, 64
2, 178052, Note_on_c, 0, 70, 46
2, 178072, Note_off_c, 0, 68, 64
2, 178105, Note_on_c, 0, 71, 46
2, 178114, Note_off_c, 0, 70, 64
2, 178116, Note_on_c, 0, 42, 46
2, 178117, Note_on_c, 0, 54, 52
2, 178123, Control_c, 0, 64, 0
2, 178131, Note_off_c, 0, 49, 64
2, 178139, Note_off_c, 0, 56, 64
2, 178144, Control_c, 0, 64, 127
2, 178147, Note_on_c, 0, 70, 52
2, 178159, Note_off_c, 0, 71, 64
2, 178189, Note_on_c, 0, 68, 45
2, 178204, Note_off_c, 0, 70, 64
2, 178226, Note_on_c, 0, 70, 53
2, 178232, Note_off_c, 0, 68, 64
2, 178247, Control_c, 0, 64, 0
2, 178265, Control_c, 0, 64, 0
2, 178273, Note_on_c, 0, 47, 42
2, 178276, Note_on_c, 0, 73, 57
2, 178279, Note_on_c, 0, 63, 55
2, 178286, Note_off_c, 0, 70, 64
2, 178296, Note_off_c, 0, 42, 64
2, 178296, Note_off_c, 0, 64, 64
2, 178300, Control_c, 0, 64, 127
2, 178303, Control_c, 0, 64, 127
2, 178335, Note_on_c, 0, 71, 46
2, 178347, Note_off_c, 0, 73, 64
2, 178362, Note_off_c, 0, 54, 64
2, 178400, Control_c, 0, 64, 0
2, 178408, Note_on_c, 0, 66, 48
2, 178421, Note_on_c, 0, 54, 52
2, 178424, Note_off_c, 0, 71, 64
2, 178427, Control_c, 0, 64, 0
2, 178429, Control_c, 0, 64, 127
2, 178448, Control_c, 0, 64, 127
2, 178503, Note_on_c, 0, 68, 46
2, 178510, Note_off_c, 0, 66, 64
2, 178532, Note_on_c, 0, 70, 55
2, 178544, Note_on_c, 0, 41, 46
2, 178544, Note_on_c, 0, 53, 46
2, 178546, Note_off_c, 0, 68, 64
2, 178551, Control_c, 0, 64, 0
2, 178558, Note_off_c, 0, 54, 64
2, 178568, Note_off_c, 0, 47, 64
2, 178568, Note_on_c, 0, 68, 52
2, 178573, Note_off_c, 0, 70, 64
2, 178604, Control_c, 0, 64, 127
2, 178617, Note_on_c, 0, 66, 53
2, 178620, Note_off_c, 0, 68, 64
2, 178657, Note_on_c, 0, 68, 50
2, 178664, Note_off_c, 0, 66, 64
2, 178696, Note_on_c, 0, 62, 53
2, 178700, Note_on_c, 0, 71, 53
2, 178701, Note_on_c, 0, 46, 46
2, 178702, Note_off_c, 0, 68, 64
2, 178710, Control_c, 0, 64, 0
2, 178726, Note_off_c, 0, 63, 64
2, 178731, Note_off_c, 0, 41, 64
2, 178750, Control_c, 0, 64, 127
2, 178784, Note_on_c, 0, 70, 52
2, 178800, Note_off_c, 0, 71, 64
2, 178811, Note_off_c, 0, 53, 64
2, 178838, Control_c, 0, 64, 0
2, 178852, Note_on_c, 0, 65, 46
2, 178852, Note_on_c, 0, 56, 46
2, 178868, Note_off_c, 0, 70, 64
2, 178892, Control_c, 0, 64, 127
2, 178984, Control_c, 0, 64, 0
2, 178996, Note_on_c, 0, 63, 52
2, 178996, Note_on_c, 0, 54, 41
2, 178996, Note_on_c, 0, 51, 41
2, 179012, Note_off_c, 0, 56, 64
2, 179012, Note_off_c, 0, 65, 64
2, 179014, Note_off_c, 0, 62, 64
2, 179016, Note_off_c, 0, 46, 64
2, 179031, Control_c, 0, 64, 127
2, 179143, Control_c, 0, 64, 0
2, 179147, Note_off_c, 0, 63, 64
2, 179151, Note_on_c, 0, 66, 53
2, 179151, Note_on_c, 0, 70, 52
2, 179152, Note_on_c, 0, 63, 23
2, 179161, Control_c, 0, 64, 127
2, 179221, Note_off_c, 0, 54, 64
2, 179285, Note_on_c, 0, 72, 55
2, 179295, Note_on_c, 0, 56, 59
2, 179296, Note_off_c, 0, 70, 64
2, 179297, Note_off_c, 0, 63, 64
2, 179300, Control_c, 0, 64, 0
2, 179323, Control_c, 0, 64, 127
2, 179329, Note_on_c, 0, 73, 54
2, 179342, Note_off_c, 0, 72, 64
2, 179373, Note_on_c, 0, 72, 54
2, 179399, Note_off_c, 0, 73, 64
2, 179416, Note_on_c, 0, 44, 45
2, 179418, Note_on_c, 0, 70, 55
2, 179430, Note_off_c, 0, 72, 64
2, 179433, Note_off_c, 0, 51, 64
2, 179434, Control_c, 0, 64, 0
2, 179466, Control_c, 0, 64, 127
2, 179479, Note_on_c, 0, 72, 44
2, 179481, Note_off_c, 0, 70, 64
2, 179504, Note_on_c, 0, 49, 48
2, 179536, Note_off_c, 0, 56, 64
2, 179556, Note_on_c, 0, 65, 48
2, 179560, Note_on_c, 0, 61, 55
2, 179561, Note_on_c, 0, 75, 52
2, 179566, Control_c, 0, 64, 0
2, 179567, Note_off_c, 0, 72, 64
2, 179580, Note_off_c, 0, 44, 64
2, 179584, Note_off_c, 0, 66, 64
2, 179602, Control_c, 0, 64, 127
2, 179664, Note_on_c, 0, 73, 54
2, 179680, Note_off_c, 0, 75, 64
2, 179697, Control_c, 0, 64, 0
2, 179708, Note_on_c, 0, 64, 46
2, 179708, Note_on_c, 0, 54, 44
2, 179728, Note_on_c, 0, 68, 61
2, 179730, Note_off_c, 0, 65, 64
2, 179734, Note_off_c, 0, 61, 64
2, 179736, Control_c, 0, 64, 127
2, 179740, Note_off_c, 0, 73, 64
2, 179792, Note_on_c, 0, 70, 59
2, 179801, Note_off_c, 0, 68, 64
2, 179816, Note_off_c, 0, 49, 64
2, 179844, Control_c, 0, 64, 0
2, 179852, Note_on_c, 0, 68, 65
2, 179855, Note_on_c, 0, 42, 50
2, 179860, Note_off_c, 0, 70, 64
2, 179872, Control_c, 0, 64, 127
2, 179897, Note_off_c, 0, 54, 64
2, 179922, Note_on_c, 0, 70, 59
2, 179927, Note_off_c, 0, 68, 64
2, 179928, Note_on_c, 0, 47, 41
2, 179992, Note_on_c, 0, 59, 46
2, 179996, Note_on_c, 0, 73, 65
2, 179996, Note_on_c, 0, 63, 59
2, 179997, Control_c, 0, 64, 0
2, 180004, Note_off_c, 0, 42, 64
2, 180006, Note_off_c, 0, 70, 64
2, 180010, Note_off_c, 0, 64, 64
2, 180013, Control_c, 0, 64, 127
2, 180070, Note_on_c, 0, 71, 46
2, 180075, Note_off_c, 0, 73, 64
2, 180128, Control_c, 0, 64, 0
2, 180146, Note_on_c, 0, 66, 52
2, 180152, Control_c, 0, 64, 127
2, 180156, Note_off_c, 0, 71, 64
2, 180160, Note_on_c, 0, 53, 46
2, 180185, Note_off_c, 0, 59, 64
2, 180212, Note_on_c, 0, 68, 53
2, 180228, Note_off_c, 0, 66, 64
2, 180242, Note_off_c, 0, 47, 64
2, 180268, Control_c, 0, 64, 0
2, 180279, Note_on_c, 0, 66, 54
2, 180284, Note_on_c, 0, 41, 46
2, 180287, Note_off_c, 0, 68, 64
2, 180312, Control_c, 0, 64, 127
2, 180339, Note_on_c, 0, 68, 55
2, 180356, Note_off_c, 0, 66, 64
2, 180420, Control_c, 0, 64, 0
2, 180425, Note_on_c, 0, 71, 53
2, 180428, Note_on_c, 0, 62, 52
2, 180431, Note_on_c, 0, 46, 52
2, 180433, Note_off_c, 0, 53, 64
2, 180441, Note_off_c, 0, 68, 64
2, 180441, Note_off_c, 0, 63, 64
2, 180453, Note_off_c, 0, 41, 64
2, 180477, Control_c, 0, 64, 127
2, 180525, Note_on_c, 0, 70, 59
2, 180533, Note_off_c, 0, 71, 64
2, 180564, Control_c, 0, 64, 0
2, 180572, Note_on_c, 0, 65, 55
2, 180576, Note_on_c, 0, 56, 53
2, 180590, Note_off_c, 0, 70, 64
2, 180621, Control_c, 0, 64, 127
2, 180670, Note_off_c, 0, 46, 64
2, 180714, Control_c, 0, 64, 0
2, 180724, Note_on_c, 0, 54, 53
2, 180724, Note_on_c, 0, 51, 53
2, 180728, Note_on_c, 0, 63, 59
2, 180735, Note_off_c, 0, 62, 64
2, 180737, Note_off_c, 0, 65, 64
2, 180739, Note_off_c, 0, 56, 64
2, 180769, Control_c, 0, 64, 127
2, 180872, Control_c, 0, 64, 0
2, 180887, Note_on_c, 0, 70, 52
2, 180887, Note_on_c, 0, 66, 55
2, 180890, Note_on_c, 0, 58, 54
2, 180901, Note_off_c, 0, 54, 64
2, 180905, Note_off_c, 0, 63, 64
2, 180910, Control_c, 0, 64, 127
2, 180963, Note_off_c, 0, 51, 64
2, 180963, Note_on_c, 0, 75, 46
2, 180992, Note_off_c, 0, 70, 64
2, 181008, Note_off_c, 0, 58, 64
2, 181028, Note_on_c, 0, 67, 59
2, 181028, Control_c, 0, 64, 0
2, 181031, Note_on_c, 0, 73, 53
2, 181032, Note_on_c, 0, 51, 63
2, 181038, Note_off_c, 0, 75, 64
2, 181058, Note_off_c, 0, 66, 64
2, 181059, Control_c, 0, 64, 0
2, 181064, Control_c, 0, 64, 127
2, 181080, Control_c, 0, 64, 127
2, 181183, Control_c, 0, 64, 0
2, 181188, Note_on_c, 0, 71, 52
2, 181191, Note_on_c, 0, 59, 52
2, 181205, Note_off_c, 0, 67, 64
2, 181208, Note_off_c, 0, 73, 64
2, 181236, Control_c, 0, 64, 127
2, 181260, Note_on_c, 0, 61, 65
2, 181264, Note_on_c, 0, 70, 53
2, 181289, Note_off_c, 0, 71, 64
2, 181292, Note_off_c, 0, 59, 64
2, 181328, Note_on_c, 0, 59, 54
2, 181330, Note_on_c, 0, 68, 61
2, 181345, Note_off_c, 0, 61, 64
2, 181349, Note_off_c, 0, 70, 64
2, 181375, Control_c, 0, 64, 0
2, 181400, Note_on_c, 0, 56, 35
2, 181402, Note_on_c, 0, 71, 53
2, 181407, Control_c, 0, 64, 127
2, 181421, Note_off_c, 0, 59, 64
2, 181423, Note_off_c, 0, 68, 64
2, 181476, Note_on_c, 0, 62, 65
2, 181479, Note_on_c, 0, 65, 59
2, 181492, Control_c, 0, 64, 0
2, 181504, Note_off_c, 0, 56, 64
2, 181506, Note_off_c, 0, 71, 64
2, 181531, Control_c, 0, 64, 127
2, 181613, Control_c, 0, 64, 0
2, 181627, Note_on_c, 0, 70, 53
2, 181628, Note_on_c, 0, 58, 55
2, 181643, Note_off_c, 0, 65, 64
2, 181658, Note_off_c, 0, 62, 64
2, 181659, Control_c, 0, 64, 127
2, 181762, Control_c, 0, 64, 0
2, 181768, Note_on_c, 0, 63, 55
2, 181771, Note_on_c, 0, 66, 65
2, 181805, Control_c, 0, 64, 127
2, 181846, Note_on_c, 0, 75, 52
2, 181853, Note_off_c, 0, 58, 64
2, 181866, Note_off_c, 0, 70, 64
2, 181920, Note_on_c, 0, 73, 52
2, 181924, Note_on_c, 0, 67, 54
2, 181929, Note_on_c, 0, 58, 62
2, 181934, Note_off_c, 0, 75, 64
2, 181947, Note_off_c, 0, 63, 64
2, 181950, Note_off_c, 0, 66, 64
2, 182022, Note_off_c, 0, 58, 64
2, 182068, Note_on_c, 0, 71, 52
2, 182068, Note_on_c, 0, 63, 63
2, 182083, Note_off_c, 0, 73, 64
2, 182147, Note_on_c, 0, 70, 65
2, 182150, Note_on_c, 0, 61, 52
2, 182167, Note_off_c, 0, 63, 64
2, 182167, Note_off_c, 0, 71, 64
2, 182218, Note_on_c, 0, 68, 65
2, 182220, Note_on_c, 0, 59, 59
2, 182225, Note_off_c, 0, 67, 64
2, 182241, Note_off_c, 0, 70, 64
2, 182244, Note_off_c, 0, 61, 64
2, 182292, Note_on_c, 0, 65, 62
2, 182307, Note_on_c, 0, 56, 50
2, 182313, Note_off_c, 0, 68, 64
2, 182315, Note_off_c, 0, 59, 64
2, 182360, Control_c, 0, 64, 0
2, 182383, Note_on_c, 0, 62, 65
2, 182408, Note_off_c, 0, 65, 64
2, 182412, Control_c, 0, 64, 127
2, 182423, Note_off_c, 0, 56, 64
2, 182534, Note_on_c, 0, 63, 53
2, 182542, Note_on_c, 0, 54, 52
2, 182552, Note_off_c, 0, 62, 64
2, 182608, Note_off_c, 0, 51, 64
2, 182688, Control_c, 0, 64, 0
2, 182696, Note_on_c, 0, 51, 50
2, 182702, Note_on_c, 0, 70, 57
2, 182703, Note_on_c, 0, 66, 62
2, 182705, Note_off_c, 0, 63, 64
2, 182713, Note_off_c, 0, 54, 64
2, 182717, Control_c, 0, 64, 127
2, 182783, Note_on_c, 0, 75, 46
2, 182788, Note_off_c, 0, 70, 64
2, 182852, Note_on_c, 0, 73, 52
2, 182852, Note_on_c, 0, 58, 52
2, 182855, Note_on_c, 0, 67, 55
2, 182865, Note_off_c, 0, 75, 64
2, 182866, Note_off_c, 0, 66, 64
2, 183003, Note_on_c, 0, 59, 37
2, 183010, Note_on_c, 0, 71, 45
2, 183027, Note_off_c, 0, 58, 64
2, 183027, Note_off_c, 0, 73, 64
2, 183084, Note_on_c, 0, 61, 53
2, 183087, Note_on_c, 0, 70, 67
2, 183110, Note_off_c, 0, 59, 64
2, 183117, Note_off_c, 0, 71, 64
2, 183161, Note_on_c, 0, 68, 67
2, 183164, Note_on_c, 0, 59, 45
2, 183175, Note_off_c, 0, 61, 64
2, 183176, Note_off_c, 0, 67, 64
2, 183178, Note_off_c, 0, 70, 64
2, 183191, Control_c, 0, 64, 0
2, 183223, Control_c, 0, 64, 127
2, 183228, Note_on_c, 0, 71, 50
2, 183228, Note_on_c, 0, 56, 29
2, 183259, Note_off_c, 0, 68, 64
2, 183262, Note_off_c, 0, 59, 64
2, 183312, Control_c, 0, 64, 0
2, 183316, Note_on_c, 0, 62, 62
2, 183318, Note_on_c, 0, 65, 59
2, 183330, Note_off_c, 0, 56, 64
2, 183330, Note_off_c, 0, 71, 64
2, 183365, Control_c, 0, 64, 127
2, 183476, Note_on_c, 0, 70, 55
2, 183484, Note_on_c, 0, 58, 53
2, 183632, Note_on_c, 0, 63, 41
2, 183639, Note_on_c, 0, 66, 66
2, 183650, Note_off_c, 0, 65, 64
2, 183679, Note_off_c, 0, 62, 64
2, 183729, Note_on_c, 0, 75, 52
2, 183762, Note_off_c, 0, 51, 64
2, 183777, Note_off_c, 0, 70, 64
2, 183810, Note_off_c, 0, 58, 64
2, 183820, Note_on_c, 0, 51, 44
2, 183821, Note_on_c, 0, 73, 52
2, 183821, Note_on_c, 0, 63, 67
2, 183824, Note_on_c, 0, 67, 62
2, 183835, Note_off_c, 0, 75, 64
2, 183854, Note_off_c, 0, 66, 64
2, 183872, Note_off_c, 0, 63, 64
2, 183947, Note_off_c, 0, 67, 64
2, 183954, Note_off_c, 0, 63, 64
2, 183999, Note_on_c, 0, 71, 52
2, 184000, Note_on_c, 0, 63, 53
2, 184006, Note_off_c, 0, 73, 64
2, 184092, Note_on_c, 0, 61, 46
2, 184093, Note_on_c, 0, 70, 66
2, 184115, Note_off_c, 0, 71, 64
2, 184186, Note_on_c, 0, 68, 61
2, 184188, Note_on_c, 0, 59, 59
2, 184206, Note_off_c, 0, 61, 64
2, 184207, Note_off_c, 0, 70, 64
2, 184284, Note_on_c, 0, 56, 24
2, 184289, Note_on_c, 0, 65, 50
2, 184305, Control_c, 0, 64, 0
2, 184311, Note_off_c, 0, 68, 64
2, 184313, Note_off_c, 0, 59, 64
2, 184345, Control_c, 0, 64, 127
2, 184400, Note_on_c, 0, 62, 61
2, 184405, Control_c, 0, 64, 0
2, 184419, Note_off_c, 0, 56, 64
2, 184419, Note_off_c, 0, 63, 64
2, 184424, Note_off_c, 0, 65, 64
2, 184472, Control_c, 0, 64, 127
2, 184721, Note_on_c, 0, 63, 63
2, 184729, Control_c, 0, 64, 0
2, 184734, Note_off_c, 0, 62, 64
2, 184886, Control_c, 0, 64, 127
2, 185623, Note_off_c, 0, 51, 64
2, 185629, Note_off_c, 0, 63, 64
2, 188291, Control_c, 0, 64, 127
2, 188321, Note_on_c, 0, 41, 58
2, 188327, Note_on_c, 0, 65, 58
2, 188383, Note_off_c, 0, 65, 64
2, 188408, Note_off_c, 0, 41, 64
2, 188468, Note_on_c, 0, 65, 53
2, 188501, Note_on_c, 0, 67, 63
2, 188511, Note_on_c, 0, 53, 54
2, 188517, Note_on_c, 0, 60, 58
2, 188518, Note_on_c, 0, 63, 61
2, 188522, Note_off_c, 0, 65, 64
2, 188553, Note_off_c, 0, 53, 64
2, 188559, Note_off_c, 0, 63, 64
2, 188561, Note_off_c, 0, 60, 64
2, 188678, Control_c, 0, 64, 0
2, 188693, Note_on_c, 0, 69, 62
2, 188693, Note_on_c, 0, 63, 35
2, 188701, Note_on_c, 0, 60, 59
2, 188701, Note_on_c, 0, 53, 55
2, 188708, Note_off_c, 0, 67, 64
2, 188727, Note_off_c, 0, 60, 64
2, 188728, Note_off_c, 0, 63, 64
2, 188732, Note_off_c, 0, 53, 64
2, 188736, Control_c, 0, 64, 127
2, 188879, Note_on_c, 0, 70, 66
2, 188879, Note_on_c, 0, 46, 66
2, 188890, Control_c, 0, 64, 0
2, 188903, Control_c, 0, 64, 127
2, 188913, Note_off_c, 0, 69, 64
2, 188959, Note_off_c, 0, 70, 64
2, 188966, Note_off_c, 0, 46, 64
2, 189005, Note_on_c, 0, 72, 61
2, 189041, Control_c, 0, 64, 0
2, 189046, Note_on_c, 0, 58, 63
2, 189050, Note_on_c, 0, 53, 61
2, 189054, Note_on_c, 0, 62, 49
2, 189057, Note_on_c, 0, 74, 72
2, 189072, Note_off_c, 0, 72, 64
2, 189085, Note_off_c, 0, 62, 64
2, 189091, Note_off_c, 0, 58, 64
2, 189097, Control_c, 0, 64, 127
2, 189100, Note_off_c, 0, 53, 64
2, 189219, Control_c, 0, 64, 0
2, 189225, Note_on_c, 0, 46, 67
2, 189229, Note_on_c, 0, 75, 67
2, 189246, Note_off_c, 0, 74, 64
2, 189260, Control_c, 0, 64, 127
2, 189312, Note_off_c, 0, 46, 64
2, 189333, Note_on_c, 0, 77, 65
2, 189345, Note_off_c, 0, 75, 64
2, 189400, Note_on_c, 0, 39, 71
2, 189407, Note_on_c, 0, 79, 78
2, 189408, Note_on_c, 0, 51, 67
2, 189413, Control_c, 0, 64, 0
2, 189420, Note_off_c, 0, 77, 64
2, 189456, Control_c, 0, 64, 127
2, 189536, Note_on_c, 0, 81, 67
2, 189544, Note_on_c, 0, 55, 62
2, 189545, Note_off_c, 0, 79, 64
2, 189608, Note_on_c, 0, 58, 53
2, 189640, Note_off_c, 0, 39, 64
2, 189648, Note_off_c, 0, 51, 64
2, 189656, Note_on_c, 0, 63, 45
2, 189675, Note_on_c, 0, 84, 78
2, 189682, Note_off_c, 0, 81, 64
2, 189685, Control_c, 0, 64, 0
2, 189704, Note_on_c, 0, 67, 53
2, 189706, Note_on_c, 0, 82, 83
2, 189712, Control_c, 0, 64, 127
2, 189716, Note_off_c, 0, 84, 64
2, 189745, Note_on_c, 0, 84, 79
2, 189755, Note_off_c, 0, 82, 64
2, 189755, Note_off_c, 0, 55, 64
2, 189776, Note_on_c, 0, 82, 74
2, 189789, Note_off_c, 0, 84, 64
2, 189796, Note_off_c, 0, 58, 64
2, 189808, Note_off_c, 0, 82, 64
2, 189808, Note_on_c, 0, 84, 70
2, 189829, Note_off_c, 0, 63, 64
2, 189832, Note_on_c, 0, 82, 71
2, 189837, Note_off_c, 0, 67, 64
2, 189856, Note_off_c, 0, 84, 64
2, 189896, Note_on_c, 0, 81, 72
2, 189904, Note_off_c, 0, 82, 64
2, 189962, Note_on_c, 0, 79, 72
2, 189986, Note_off_c, 0, 81, 64
2, 190055, Note_on_c, 0, 77, 66
2, 190072, Note_off_c, 0, 79, 64
2, 190091, Note_on_c, 0, 82, 72
2, 190096, Note_on_c, 0, 46, 57
2, 190100, Note_off_c, 0, 77, 64
2, 190104, Control_c, 0, 64, 0
2, 190124, Note_off_c, 0, 82, 64
2, 190162, Control_c, 0, 64, 127
2, 190180, Control_c, 0, 64, 127
2, 190183, Note_off_c, 0, 46, 64
2, 190226, Note_on_c, 0, 82, 52
2, 190256, Control_c, 0, 64, 0
2, 190265, Note_on_c, 0, 74, 62
2, 190273, Note_on_c, 0, 62, 45
2, 190280, Note_on_c, 0, 58, 42
2, 190280, Note_on_c, 0, 53, 41
2, 190302, Note_off_c, 0, 58, 64
2, 190304, Note_off_c, 0, 82, 64
2, 190310, Note_off_c, 0, 53, 64
2, 190319, Note_off_c, 0, 62, 64
2, 190439, Note_on_c, 0, 62, 39
2, 190447, Note_on_c, 0, 58, 41
2, 190448, Note_on_c, 0, 53, 39
2, 190450, Control_c, 0, 64, 127
2, 190469, Note_off_c, 0, 58, 64
2, 190469, Note_off_c, 0, 62, 64
2, 190478, Note_off_c, 0, 53, 64
2, 190569, Note_on_c, 0, 75, 49
2, 190584, Note_off_c, 0, 74, 64
2, 190607, Note_on_c, 0, 41, 52
2, 190612, Note_on_c, 0, 79, 53
2, 190620, Control_c, 0, 64, 0
2, 190629, Note_off_c, 0, 75, 64
2, 190649, Note_off_c, 0, 79, 64
2, 190694, Note_off_c, 0, 41, 64
2, 190732, Note_on_c, 0, 79, 41
2, 190772, Note_on_c, 0, 69, 46
2, 190775, Note_on_c, 0, 53, 31
2, 190784, Note_off_c, 0, 79, 64
2, 190786, Note_on_c, 0, 60, 45
2, 190788, Note_on_c, 0, 63, 24
2, 190818, Note_off_c, 0, 53, 64
2, 190825, Note_off_c, 0, 60, 64
2, 190827, Note_off_c, 0, 63, 64
2, 190832, Control_c, 0, 64, 127
2, 190936, Note_on_c, 0, 63, 32
2, 190940, Note_on_c, 0, 60, 36
2, 190940, Note_on_c, 0, 53, 36
2, 190975, Note_off_c, 0, 63, 64
2, 190979, Note_off_c, 0, 53, 64
2, 190979, Note_off_c, 0, 60, 64
2, 191059, Note_on_c, 0, 70, 41
2, 191072, Note_off_c, 0, 69, 64
2, 191090, Note_on_c, 0, 46, 41
2, 191098, Note_on_c, 0, 74, 45
2, 191110, Control_c, 0, 64, 0
2, 191115, Note_off_c, 0, 70, 64
2, 191135, Note_off_c, 0, 74, 64
2, 191177, Note_off_c, 0, 46, 64
2, 191224, Note_on_c, 0, 74, 39
2, 191256, Note_on_c, 0, 58, 32
2, 191258, Note_on_c, 0, 64, 42
2, 191264, Note_on_c, 0, 53, 33
2, 191270, Note_on_c, 0, 62, 20
2, 191286, Note_off_c, 0, 74, 64
2, 191299, Note_off_c, 0, 58, 64
2, 191301, Note_off_c, 0, 53, 64
2, 191306, Note_off_c, 0, 62, 64
2, 191408, Note_on_c, 0, 58, 31
2, 191414, Note_on_c, 0, 62, 31
2, 191414, Note_on_c, 0, 53, 32
2, 191430, Control_c, 0, 64, 127
2, 191437, Note_off_c, 0, 58, 64
2, 191443, Note_off_c, 0, 62, 64
2, 191451, Note_off_c, 0, 53, 64
2, 191558, Control_c, 0, 64, 127
2, 191580, Note_on_c, 0, 41, 48
2, 191587, Note_on_c, 0, 65, 52
2, 191594, Control_c, 0, 64, 0
2, 191600, Note_off_c, 0, 64, 64
2, 191637, Control_c, 0, 64, 127
2, 191667, Note_off_c, 0, 41, 64
2, 191704, Note_on_c, 0, 69, 58
2, 191706, Note_off_c, 0, 65, 64
2, 191752, Control_c, 0, 64, 0
2, 191756, Note_on_c, 0, 63, 26
2, 191760, Note_on_c, 0, 53, 48
2, 191768, Note_on_c, 0, 72, 62
2, 191779, Control_c, 0, 64, 127
2, 191784, Note_off_c, 0, 69, 64
2, 191821, Note_off_c, 0, 53, 64
2, 191824, Note_on_c, 0, 75, 53
2, 191830, Note_off_c, 0, 63, 64
2, 191888, Note_off_c, 0, 72, 64
2, 191900, Note_on_c, 0, 79, 41
2, 191904, Note_on_c, 0, 63, 52
2, 191907, Note_on_c, 0, 53, 44
2, 191922, Note_off_c, 0, 75, 64
2, 191956, Note_off_c, 0, 63, 64
2, 191971, Note_off_c, 0, 53, 64
2, 191996, Note_on_c, 0, 77, 65
2, 192026, Note_off_c, 0, 79, 64
2, 192042, Note_off_c, 0, 77, 64
2, 192048, Note_on_c, 0, 77, 74
2, 192066, Control_c, 0, 64, 0
2, 192072, Note_on_c, 0, 46, 66
2, 192087, Note_on_c, 0, 86, 67
2, 192096, Note_off_c, 0, 77, 64
2, 192112, Control_c, 0, 64, 127
2, 192159, Note_off_c, 0, 46, 64
2, 192189, Note_on_c, 0, 84, 67
2, 192216, Note_off_c, 0, 86, 64
2, 192248, Note_on_c, 0, 53, 41
2, 192249, Note_on_c, 0, 82, 74
2, 192258, Note_on_c, 0, 62, 39
2, 192259, Note_on_c, 0, 58, 29
2, 192261, Note_off_c, 0, 84, 64
2, 192266, Control_c, 0, 64, 0
2, 192279, Note_on_c, 0, 84, 65
2, 192286, Note_off_c, 0, 58, 64
2, 192292, Note_off_c, 0, 82, 64
2, 192294, Control_c, 0, 64, 127
2, 192301, Note_off_c, 0, 53, 64
2, 192304, Note_off_c, 0, 62, 64
2, 192314, Note_on_c, 0, 82, 59
2, 192337, Note_off_c, 0, 84, 64
2, 192372, Note_on_c, 0, 79, 54
2, 192389, Note_off_c, 0, 82, 64
2, 192420, Control_c, 0, 64, 0
2, 192427, Note_on_c, 0, 62, 46
2, 192427, Note_on_c, 0, 53, 45
2, 192428, Note_on_c, 0, 58, 44
2, 192431, Note_on_c, 0, 77, 54
2, 192451, Note_off_c, 0, 53, 64
2, 192452, Note_off_c, 0, 58, 64
2, 192452, Note_off_c, 0, 62, 64
2, 192454, Note_off_c, 0, 79, 64
2, 192456, Control_c, 0, 64, 127
2, 192576, Note_on_c, 0, 79, 66
2, 192582, Control_c, 0, 64, 0
2, 192590, Note_off_c, 0, 77, 64
2, 192616, Note_on_c, 0, 82, 67
2, 192616, Note_on_c, 0, 46, 58
2, 192630, Note_off_c, 0, 79, 64
2, 192634, Control_c, 0, 64, 127
2, 192649, Note_off_c, 0, 82, 64
2, 192703, Note_off_c, 0, 46, 64
2, 192768, Note_on_c, 0, 82, 59
2, 192789, Control_c, 0, 64, 0
2, 192816, Note_on_c, 0, 60, 45
2, 192816, Note_on_c, 0, 53, 35
2, 192817, Note_off_c, 0, 82, 64
2, 192820, Note_on_c, 0, 69, 58
2, 192820, Note_on_c, 0, 63, 49
2, 192848, Note_off_c, 0, 60, 64
2, 192855, Note_off_c, 0, 53, 64
2, 192862, Note_off_c, 0, 63, 64
2, 192933, Control_c, 0, 64, 0
2, 192972, Note_on_c, 0, 60, 45
2, 192978, Note_on_c, 0, 63, 41
2, 192985, Note_on_c, 0, 53, 39
2, 192993, Control_c, 0, 64, 127
2, 193004, Note_off_c, 0, 60, 64
2, 193012, Note_off_c, 0, 63, 64
2, 193022, Note_off_c, 0, 53, 64
2, 193091, Note_on_c, 0, 70, 46
2, 193100, Note_off_c, 0, 69, 64
2, 193114, Note_on_c, 0, 74, 41
2, 193128, Note_off_c, 0, 70, 64
2, 193144, Note_on_c, 0, 46, 52
2, 193147, Control_c, 0, 64, 0
2, 193152, Note_on_c, 0, 77, 59
2, 193171, Note_off_c, 0, 74, 64
2, 193192, Note_off_c, 0, 77, 64
2, 193231, Note_off_c, 0, 46, 64
2, 193267, Note_on_c, 0, 77, 54
2, 193305, Note_on_c, 0, 53, 35
2, 193310, Note_off_c, 0, 77, 64
2, 193310, Note_on_c, 0, 58, 42
2, 193313, Note_on_c, 0, 64, 62
2, 193314, Note_on_c, 0, 62, 41
2, 193352, Note_off_c, 0, 58, 64
2, 193356, Note_off_c, 0, 53, 64
2, 193359, Note_off_c, 0, 62, 64
2, 193478, Note_on_c, 0, 62, 41
2, 193478, Note_on_c, 0, 53, 45
2, 193480, Note_on_c, 0, 58, 45
2, 193493, Control_c, 0, 64, 127
2, 193512, Note_off_c, 0, 58, 64
2, 193521, Note_off_c, 0, 62, 64
2, 193525, Note_off_c, 0, 53, 64
2, 193653, Note_on_c, 0, 41, 44
2, 193654, Note_on_c, 0, 65, 62
2, 193654, Control_c, 0, 64, 0
2, 193683, Note_off_c, 0, 64, 64
2, 193698, Control_c, 0, 64, 127
2, 193740, Note_off_c, 0, 41, 64
2, 193768, Note_on_c, 0, 69, 53
2, 193794, Note_off_c, 0, 65, 64
2, 193807, Control_c, 0, 64, 0
2, 193817, Note_on_c, 0, 63, 53
2, 193821, Note_on_c, 0, 72, 53
2, 193824, Note_on_c, 0, 53, 36
2, 193847, Control_c, 0, 64, 127
2, 193884, Note_off_c, 0, 53, 64
2, 193887, Note_off_c, 0, 69, 64
2, 193895, Note_off_c, 0, 63, 64
2, 193899, Note_on_c, 0, 75, 37
2, 193910, Note_off_c, 0, 72, 64
2, 193995, Note_on_c, 0, 74, 55
2, 194004, Note_on_c, 0, 57, 41
2, 194007, Note_on_c, 0, 53, 55
2, 194008, Note_on_c, 0, 63, 46
2, 194014, Note_off_c, 0, 75, 64
2, 194021, Note_on_c, 0, 75, 53
2, 194033, Note_off_c, 0, 57, 64
2, 194040, Note_off_c, 0, 74, 64
2, 194050, Note_off_c, 0, 63, 64
2, 194059, Note_off_c, 0, 53, 64
2, 194066, Note_on_c, 0, 74, 37
2, 194075, Note_off_c, 0, 75, 64
2, 194129, Note_on_c, 0, 72, 57
2, 194146, Note_off_c, 0, 74, 64
2, 194154, Control_c, 0, 64, 127
2, 194197, Note_on_c, 0, 74, 66
2, 194197, Note_on_c, 0, 46, 57
2, 194200, Note_off_c, 0, 72, 64
2, 194207, Control_c, 0, 64, 0
2, 194242, Control_c, 0, 64, 127
2, 194303, Note_on_c, 0, 65, 59
2, 194360, Control_c, 0, 64, 0
2, 194364, Note_on_c, 0, 70, 66
2, 194367, Note_off_c, 0, 74, 64
2, 194370, Note_on_c, 0, 62, 41
2, 194370, Note_on_c, 0, 58, 41
2, 194372, Note_on_c, 0, 53, 45
2, 194377, Note_off_c, 0, 65, 64
2, 194392, Note_off_c, 0, 46, 64
2, 194416, Control_c, 0, 64, 127
2, 194526, Note_off_c, 0, 58, 64
2, 194528, Note_off_c, 0, 53, 64
2, 194540, Note_off_c, 0, 62, 64
2, 194543, Note_on_c, 0, 69, 49
2, 194547, Note_off_c, 0, 70, 64
2, 194564, Control_c, 0, 64, 0
2, 194577, Control_c, 0, 64, 127
2, 194660, Note_on_c, 0, 67, 45
2, 194676, Note_off_c, 0, 69, 64
2, 194711, Note_on_c, 0, 65, 66
2, 194719, Control_c, 0, 64, 0
2, 194725, Note_on_c, 0, 41, 57
2, 194733, Note_off_c, 0, 67, 64
2, 194768, Control_c, 0, 64, 127
2, 194773, Note_off_c, 0, 65, 64
2, 194812, Note_off_c, 0, 41, 64
2, 194833, Note_on_c, 0, 65, 63
2, 194864, Control_c, 0, 64, 0
2, 194884, Note_on_c, 0, 67, 75
2, 194884, Note_on_c, 0, 53, 44
2, 194892, Note_on_c, 0, 63, 66
2, 194892, Note_on_c, 0, 60, 37
2, 194900, Note_off_c, 0, 65, 64
2, 194916, Note_off_c, 0, 53, 64
2, 194920, Note_off_c, 0, 60, 64
2, 194939, Note_off_c, 0, 63, 64
2, 195039, Note_on_c, 0, 69, 55
2, 195044, Note_on_c, 0, 53, 44
2, 195045, Note_on_c, 0, 63, 44
2, 195058, Note_off_c, 0, 67, 64
2, 195058, Note_on_c, 0, 60, 35
2, 195070, Control_c, 0, 64, 127
2, 195079, Note_off_c, 0, 53, 64
2, 195080, Note_off_c, 0, 60, 64
2, 195080, Note_off_c, 0, 63, 64
2, 195150, Control_c, 0, 64, 127
2, 195208, Note_on_c, 0, 46, 59
2, 195208, Control_c, 0, 64, 0
2, 195212, Note_on_c, 0, 70, 65
2, 195237, Note_off_c, 0, 69, 64
2, 195247, Control_c, 0, 64, 127
2, 195260, Note_off_c, 0, 70, 64
2, 195295, Note_off_c, 0, 46, 64
2, 195322, Note_on_c, 0, 72, 57
2, 195359, Note_on_c, 0, 58, 45
2, 195364, Note_on_c, 0, 62, 36
2, 195368, Control_c, 0, 64, 0
2, 195376, Note_on_c, 0, 74, 68
2, 195376, Note_on_c, 0, 53, 55
2, 195396, Note_off_c, 0, 72, 64
2, 195398, Control_c, 0, 64, 127
2, 195405, Note_off_c, 0, 62, 64
2, 195407, Note_off_c, 0, 58, 64
2, 195411, Note_off_c, 0, 53, 64
2, 195520, Control_c, 0, 64, 0
2, 195527, Note_on_c, 0, 75, 72
2, 195529, Note_on_c, 0, 46, 72
2, 195553, Note_off_c, 0, 74, 64
2, 195558, Control_c, 0, 64, 127
2, 195616, Note_off_c, 0, 46, 64
2, 195633, Note_on_c, 0, 77, 67
2, 195654, Note_off_c, 0, 75, 64
2, 195690, Control_c, 0, 64, 0
2, 195700, Note_on_c, 0, 39, 74
2, 195703, Note_on_c, 0, 79, 63
2, 195704, Note_on_c, 0, 51, 71
2, 195731, Note_off_c, 0, 77, 64
2, 195731, Control_c, 0, 64, 127
2, 195810, Note_on_c, 0, 81, 70
2, 195816, Note_on_c, 0, 55, 63
2, 195823, Note_off_c, 0, 79, 64
2, 195856, Note_on_c, 0, 58, 54
2, 195888, Note_on_c, 0, 63, 46
2, 195927, Note_on_c, 0, 84, 78
2, 195928, Note_off_c, 0, 81, 64
2, 195937, Control_c, 0, 64, 0
2, 195940, Note_off_c, 0, 39, 64
2, 195944, Note_off_c, 0, 51, 64
2, 195952, Note_on_c, 0, 67, 53
2, 195958, Note_on_c, 0, 82, 84
2, 195964, Control_c, 0, 64, 127
2, 195968, Note_off_c, 0, 84, 64
2, 195995, Note_off_c, 0, 82, 64
2, 195997, Note_on_c, 0, 84, 79
2, 196027, Note_off_c, 0, 55, 64
2, 196030, Note_off_c, 0, 84, 64
2, 196041, Note_on_c, 0, 82, 74
2, 196044, Note_off_c, 0, 58, 64
2, 196060, Note_on_c, 0, 84, 70
2, 196061, Note_off_c, 0, 63, 64
2, 196065, Note_off_c, 0, 82, 64
2, 196085, Note_off_c, 0, 67, 64
2, 196088, Note_on_c, 0, 82, 71
2, 196108, Note_off_c, 0, 84, 64
2, 196141, Note_on_c, 0, 81, 72
2, 196142, Note_off_c, 0, 82, 64
2, 196191, Note_off_c, 0, 81, 64
2, 196213, Note_on_c, 0, 79, 76
2, 196260, Note_off_c, 0, 79, 64
2, 196268, Note_on_c, 0, 77, 62
2, 196285, Control_c, 0, 64, 0
2, 196292, Note_on_c, 0, 46, 66
2, 196297, Note_on_c, 0, 82, 66
2, 196311, Note_off_c, 0, 77, 64
2, 196328, Note_off_c, 0, 82, 64
2, 196379, Note_off_c, 0, 46, 64
2, 196420, Note_on_c, 0, 82, 50
2, 196443, Note_on_c, 0, 58, 22
2, 196449, Note_on_c, 0, 53, 36
2, 196451, Note_on_c, 0, 74, 62
2, 196457, Note_on_c, 0, 62, 35
2, 196476, Note_off_c, 0, 82, 64
2, 196493, Note_off_c, 0, 58, 64
2, 196494, Note_off_c, 0, 53, 64
2, 196500, Note_off_c, 0, 62, 64
2, 196602, Note_on_c, 0, 62, 49
2, 196608, Note_on_c, 0, 58, 52
2, 196608, Note_on_c, 0, 53, 46
2, 196618, Control_c, 0, 64, 127
2, 196628, Note_off_c, 0, 58, 64
2, 196635, Note_off_c, 0, 62, 64
2, 196640, Note_off_c, 0, 53, 64
2, 196739, Note_on_c, 0, 75, 52
2, 196755, Note_off_c, 0, 74, 64
2, 196763, Note_on_c, 0, 41, 42
2, 196763, Control_c, 0, 64, 0
2, 196773, Note_on_c, 0, 79, 57
2, 196790, Note_off_c, 0, 75, 64
2, 196813, Note_off_c, 0, 79, 64
2, 196850, Note_off_c, 0, 41, 64
2, 196903, Note_on_c, 0, 79, 45
2, 196923, Note_on_c, 0, 53, 39
2, 196932, Note_on_c, 0, 63, 41
2, 196932, Note_on_c, 0, 60, 32
2, 196934, Note_on_c, 0, 69, 49
2, 196939, Note_off_c, 0, 79, 64
2, 196971, Note_off_c, 0, 60, 64
2, 196976, Note_off_c, 0, 53, 64
2, 196978, Note_off_c, 0, 63, 64
2, 196989, Control_c, 0, 64, 127
2, 197084, Note_on_c, 0, 60, 36
2, 197084, Note_on_c, 0, 53, 36
2, 197085, Note_on_c, 0, 63, 49
2, 197113, Note_off_c, 0, 53, 64
2, 197113, Note_off_c, 0, 60, 64
2, 197122, Note_off_c, 0, 63, 64
2, 197204, Note_on_c, 0, 70, 50
2, 197231, Note_off_c, 0, 69, 64
2, 197241, Note_on_c, 0, 74, 57
2, 197241, Note_on_c, 0, 46, 52
2, 197249, Control_c, 0, 64, 0
2, 197260, Note_off_c, 0, 70, 64
2, 197283, Note_off_c, 0, 74, 64
2, 197328, Note_off_c, 0, 46, 64
2, 197356, Note_on_c, 0, 74, 52
2, 197387, Note_on_c, 0, 58, 44
2, 197394, Note_on_c, 0, 53, 41
2, 197401, Note_on_c, 0, 62, 46
2, 197404, Note_on_c, 0, 64, 53
2, 197431, Note_off_c, 0, 74, 64
2, 197445, Note_off_c, 0, 58, 64
2, 197448, Note_off_c, 0, 62, 64
2, 197448, Note_off_c, 0, 53, 64
2, 197564, Note_on_c, 0, 58, 40
2, 197567, Note_on_c, 0, 62, 46
2, 197571, Note_on_c, 0, 53, 41
2, 197590, Control_c, 0, 64, 127
2, 197593, Note_off_c, 0, 58, 64
2, 197598, Note_off_c, 0, 62, 64
2, 197600, Note_off_c, 0, 53, 64
2, 197725, Note_on_c, 0, 41, 66
2, 197734, Control_c, 0, 64, 0
2, 197738, Note_on_c, 0, 65, 54
2, 197755, Note_off_c, 0, 64, 64
2, 197780, Control_c, 0, 64, 127
2, 197812, Note_off_c, 0, 41, 64
2, 197849, Note_on_c, 0, 69, 54
2, 197869, Note_off_c, 0, 65, 64
2, 197878, Control_c, 0, 64, 0
2, 197892, Note_on_c, 0, 72, 50
2, 197894, Note_on_c, 0, 63, 49
2, 197901, Note_on_c, 0, 53, 19
2, 197928, Control_c, 0, 64, 127
2, 197938, Note_off_c, 0, 53, 64
2, 197940, Note_off_c, 0, 63, 64
2, 197954, Note_off_c, 0, 69, 64
2, 197976, Note_on_c, 0, 75, 39
2, 198021, Note_off_c, 0, 72, 64
2, 198048, Note_on_c, 0, 79, 55
2, 198049, Note_on_c, 0, 53, 44
2, 198052, Note_on_c, 0, 63, 46
2, 198060, Note_on_c, 0, 57, 22
2, 198080, Note_off_c, 0, 75, 64
2, 198088, Note_off_c, 0, 57, 64
2, 198091, Note_off_c, 0, 63, 64
2, 198092, Note_off_c, 0, 53, 64
2, 198103, Note_off_c, 0, 79, 64
2, 198128, Note_on_c, 0, 77, 71
2, 198158, Note_off_c, 0, 77, 64
2, 198176, Note_on_c, 0, 77, 67
2, 198208, Note_on_c, 0, 46, 67
2, 198218, Control_c, 0, 64, 0
2, 198227, Note_on_c, 0, 86, 74
2, 198232, Note_off_c, 0, 77, 64
2, 198252, Control_c, 0, 64, 127
2, 198295, Note_off_c, 0, 46, 64
2, 198310, Note_off_c, 0, 86, 64
2, 198330, Note_on_c, 0, 84, 62
2, 198369, Note_off_c, 0, 84, 64
2, 198383, Note_on_c, 0, 82, 63
2, 198390, Note_on_c, 0, 53, 41
2, 198391, Note_on_c, 0, 58, 45
2, 198395, Note_on_c, 0, 62, 50
2, 198403, Control_c, 0, 64, 0
2, 198422, Note_off_c, 0, 58, 64
2, 198423, Note_on_c, 0, 84, 59
2, 198425, Note_off_c, 0, 82, 64
2, 198437, Note_off_c, 0, 62, 64
2, 198438, Note_off_c, 0, 53, 64
2, 198443, Control_c, 0, 64, 127
2, 198460, Note_on_c, 0, 82, 58
2, 198471, Note_off_c, 0, 84, 64
2, 198497, Note_off_c, 0, 82, 64
2, 198506, Note_on_c, 0, 79, 44
2, 198541, Control_c, 0, 64, 0
2, 198553, Note_on_c, 0, 58, 46
2, 198560, Note_on_c, 0, 62, 42
2, 198560, Note_on_c, 0, 53, 41
2, 198562, Note_on_c, 0, 77, 46
2, 198568, Note_off_c, 0, 79, 64
2, 198585, Note_off_c, 0, 58, 64
2, 198588, Note_off_c, 0, 62, 64
2, 198589, Note_off_c, 0, 53, 64
2, 198598, Control_c, 0, 64, 127
2, 198612, Note_off_c, 0, 77, 64
2, 198689, Note_on_c, 0, 79, 58
2, 198696, Control_c, 0, 64, 0
2, 198712, Note_on_c, 0, 46, 63
2, 198713, Note_on_c, 0, 82, 66
2, 198730, Note_off_c, 0, 79, 64
2, 198747, Note_off_c, 0, 82, 64
2, 198779, Control_c, 0, 64, 0
2, 198799, Note_off_c, 0, 46, 64
2, 198844, Note_on_c, 0, 82, 62
2, 198881, Note_off_c, 0, 82, 64
2, 198886, Note_on_c, 0, 69, 66
2, 198889, Note_on_c, 0, 63, 57
2, 198889, Note_on_c, 0, 53, 48
2, 198899, Note_on_c, 0, 60, 44
2, 198919, Note_off_c, 0, 60, 64
2, 198922, Note_off_c, 0, 53, 64
2, 198924, Note_off_c, 0, 63, 64
2, 198959, Control_c, 0, 64, 127
2, 198975, Control_c, 0, 64, 0
2, 198999, Control_c, 0, 64, 127
2, 199044, Note_on_c, 0, 60, 37
2, 199050, Note_on_c, 0, 63, 37
2, 199058, Note_on_c, 0, 53, 23
2, 199063, Control_c, 0, 64, 127
2, 199069, Note_off_c, 0, 60, 64
2, 199075, Note_off_c, 0, 63, 64
2, 199083, Note_off_c, 0, 53, 64
2, 199148, Note_on_c, 0, 70, 45
2, 199172, Note_off_c, 0, 69, 64
2, 199177, Note_on_c, 0, 74, 50
2, 199194, Note_off_c, 0, 70, 64
2, 199196, Control_c, 0, 64, 0
2, 199202, Note_on_c, 0, 46, 52
2, 199213, Note_on_c, 0, 77, 44
2, 199235, Note_off_c, 0, 74, 64
2, 199253, Note_off_c, 0, 77, 64
2, 199289, Note_off_c, 0, 46, 64
2, 199340, Note_on_c, 0, 77, 46
2, 199368, Note_on_c, 0, 58, 27
2, 199368, Note_on_c, 0, 53, 27
2, 199369, Note_on_c, 0, 62, 31
2, 199377, Note_off_c, 0, 77, 64
2, 199380, Note_on_c, 0, 64, 59
2, 199408, Control_c, 0, 64, 127
2, 199416, Note_off_c, 0, 58, 64
2, 199420, Note_off_c, 0, 62, 64
2, 199420, Note_off_c, 0, 53, 64
2, 199530, Note_on_c, 0, 62, 35
2, 199535, Note_on_c, 0, 58, 35
2, 199538, Note_on_c, 0, 53, 26
2, 199563, Note_off_c, 0, 58, 64
2, 199567, Note_off_c, 0, 62, 64
2, 199573, Note_off_c, 0, 53, 64
2, 199663, Control_c, 0, 64, 127
2, 199689, Control_c, 0, 64, 0
2, 199695, Note_on_c, 0, 65, 58
2, 199695, Note_on_c, 0, 41, 46
2, 199702, Note_off_c, 0, 64, 64
2, 199750, Control_c, 0, 64, 127
2, 199782, Note_off_c, 0, 41, 64
2, 199792, Note_on_c, 0, 69, 55
2, 199824, Note_off_c, 0, 65, 64
2, 199843, Control_c, 0, 64, 0
2, 199851, Note_on_c, 0, 72, 53
2, 199852, Note_on_c, 0, 53, 27
2, 199858, Note_on_c, 0, 63, 54
2, 199875, Control_c, 0, 64, 127
2, 199877, Note_off_c, 0, 53, 64
2, 199912, Note_off_c, 0, 63, 64
2, 199916, Note_off_c, 0, 69, 64
2, 199929, Note_on_c, 0, 75, 54
2, 199949, Note_off_c, 0, 72, 64
2, 200020, Note_on_c, 0, 74, 48
2, 200025, Note_on_c, 0, 63, 54
2, 200032, Note_off_c, 0, 75, 64
2, 200036, Note_on_c, 0, 57, 44
2, 200036, Note_on_c, 0, 53, 44
2, 200041, Note_on_c, 0, 75, 55
2, 200053, Note_off_c, 0, 74, 64
2, 200056, Note_off_c, 0, 63, 64
2, 200061, Note_off_c, 0, 57, 64
2, 200063, Note_off_c, 0, 53, 64
2, 200086, Note_on_c, 0, 74, 48
2, 200093, Note_off_c, 0, 75, 64
2, 200133, Note_on_c, 0, 72, 63
2, 200155, Note_off_c, 0, 74, 64
2, 200223, Note_on_c, 0, 74, 63
2, 200226, Note_on_c, 0, 46, 58
2, 200235, Note_off_c, 0, 72, 64
2, 200236, Control_c, 0, 64, 0
2, 200292, Control_c, 0, 64, 127
2, 200313, Note_off_c, 0, 46, 64
2, 200340, Note_on_c, 0, 65, 59
2, 200354, Note_off_c, 0, 74, 64
2, 200406, Control_c, 0, 64, 0
2, 200412, Note_on_c, 0, 70, 72
2, 200419, Note_on_c, 0, 62, 58
2, 200424, Note_on_c, 0, 58, 54
2, 200425, Note_on_c, 0, 53, 55
2, 200444, Note_off_c, 0, 65, 64
2, 200449, Control_c, 0, 64, 127
2, 200481, Note_off_c, 0, 58, 64
2, 200523, Note_off_c, 0, 62, 64
2, 200527, Note_off_c, 0, 53, 64
2, 200583, Note_on_c, 0, 69, 63
2, 200599, Note_off_c, 0, 70, 64
2, 200713, Note_on_c, 0, 70, 53
2, 200735, Note_off_c, 0, 69, 64
2, 200766, Note_off_c, 0, 70, 64
2, 200768, Note_on_c, 0, 72, 63
2, 200768, Note_on_c, 0, 41, 45
2, 200782, Control_c, 0, 64, 0
2, 200835, Control_c, 0, 64, 127
2, 200886, Note_off_c, 0, 72, 64
2, 200901, Control_c, 0, 64, 0
2, 200906, Note_on_c, 0, 74, 39
2, 200935, Note_on_c, 0, 57, 42
2, 200935, Note_on_c, 0, 48, 36
2, 200940, Note_on_c, 0, 72, 58
2, 200947, Note_off_c, 0, 74, 64
2, 200991, Note_off_c, 0, 41, 64
2, 201013, Note_off_c, 0, 57, 64
2, 201016, Note_off_c, 0, 48, 64
2, 201109, Note_on_c, 0, 76, 46
2, 201109, Note_on_c, 0, 57, 32
2, 201109, Note_on_c, 0, 48, 37
2, 201208, Note_off_c, 0, 48, 64
2, 201208, Note_off_c, 0, 57, 64
2, 201220, Note_on_c, 0, 77, 35
2, 201238, Note_off_c, 0, 76, 64
2, 201265, Note_off_c, 0, 72, 64
2, 201279, Control_c, 0, 64, 127
2, 201288, Note_on_c, 0, 41, 48
2, 201289, Note_on_c, 0, 79, 49
2, 201295, Note_off_c, 0, 77, 64
2, 201420, Control_c, 0, 64, 0
2, 201432, Note_on_c, 0, 81, 48
2, 201434, Note_off_c, 0, 79, 64
2, 201472, Note_on_c, 0, 79, 55
2, 201472, Note_on_c, 0, 58, 40
2, 201472, Note_on_c, 0, 50, 32
2, 201487, Note_off_c, 0, 81, 64
2, 201511, Note_off_c, 0, 41, 64
2, 201547, Note_off_c, 0, 50, 64
2, 201565, Note_off_c, 0, 58, 64
2, 201609, Control_c, 0, 64, 127
2, 201656, Note_on_c, 0, 77, 55
2, 201656, Note_on_c, 0, 58, 36
2, 201656, Note_on_c, 0, 50, 29
2, 201677, Note_off_c, 0, 79, 64
2, 201730, Note_off_c, 0, 50, 64
2, 201747, Note_off_c, 0, 58, 64
2, 201748, Note_off_c, 0, 77, 64
2, 201756, Note_on_c, 0, 74, 31
2, 201811, Control_c, 0, 64, 0
2, 201817, Note_on_c, 0, 41, 48
2, 201824, Note_on_c, 0, 72, 50
2, 201840, Note_off_c, 0, 74, 64
2, 201870, Control_c, 0, 64, 127
2, 201936, Note_off_c, 0, 72, 64
2, 201938, Note_on_c, 0, 74, 36
2, 201947, Control_c, 0, 64, 0
2, 201980, Note_on_c, 0, 57, 27
2, 201980, Note_on_c, 0, 48, 40
2, 201991, Note_on_c, 0, 72, 53
2, 202000, Note_off_c, 0, 74, 64
2, 202040, Note_off_c, 0, 41, 64
2, 202065, Note_off_c, 0, 48, 64
2, 202094, Note_off_c, 0, 57, 64
2, 202141, Note_on_c, 0, 57, 28
2, 202144, Note_on_c, 0, 76, 44
2, 202144, Note_on_c, 0, 48, 36
2, 202161, Control_c, 0, 64, 127
2, 202218, Note_off_c, 0, 48, 64
2, 202255, Note_off_c, 0, 72, 64
2, 202262, Note_on_c, 0, 77, 35
2, 202266, Note_off_c, 0, 76, 64
2, 202274, Note_off_c, 0, 57, 64
2, 202308, Note_on_c, 0, 79, 52
2, 202314, Note_on_c, 0, 41, 52
2, 202318, Control_c, 0, 64, 0
2, 202324, Note_off_c, 0, 77, 64
2, 202332, Control_c, 0, 64, 127
2, 202377, Note_on_c, 0, 81, 58
2, 202386, Note_off_c, 0, 79, 64
2, 202421, Note_on_c, 0, 79, 63
2, 202438, Note_off_c, 0, 81, 64
2, 202467, Note_on_c, 0, 58, 29
2, 202471, Note_on_c, 0, 50, 24
2, 202471, Note_on_c, 0, 77, 67
2, 202482, Control_c, 0, 64, 0
2, 202488, Note_off_c, 0, 79, 64
2, 202527, Control_c, 0, 64, 127
2, 202537, Note_off_c, 0, 41, 64
2, 202575, Note_off_c, 0, 50, 64
2, 202612, Note_off_c, 0, 58, 64
2, 202631, Control_c, 0, 64, 0
2, 202636, Note_on_c, 0, 41, 37
2, 202677, Control_c, 0, 64, 127
2, 202725, Note_on_c, 0, 74, 55
2, 202763, Note_off_c, 0, 41, 64
2, 202763, Note_off_c, 0, 77, 64
2, 202795, Control_c, 0, 64, 0
2, 202813, Note_on_c, 0, 57, 31
2, 202816, Note_on_c, 0, 72, 61
2, 202816, Note_on_c, 0, 48, 32
2, 202831, Note_off_c, 0, 74, 64
2, 202851, Control_c, 0, 64, 127
2, 202898, Note_on_c, 0, 74, 57
2, 202916, Note_off_c, 0, 72, 64
2, 202957, Note_off_c, 0, 57, 64
2, 202968, Control_c, 0, 64, 0
2, 202974, Note_off_c, 0, 48, 64
2, 202974, Note_on_c, 0, 41, 55
2, 202988, Note_on_c, 0, 72, 59
2, 202990, Note_off_c, 0, 74, 64
2, 203018, Control_c, 0, 64, 127
2, 203119, Note_off_c, 0, 41, 64
2, 203132, Note_on_c, 0, 76, 49
2, 203135, Note_on_c, 0, 57, 46
2, 203135, Note_on_c, 0, 48, 49
2, 203149, Control_c, 0, 64, 0
2, 203171, Control_c, 0, 64, 127
2, 203178, Note_off_c, 0, 72, 64
2, 203217, Note_on_c, 0, 77, 57
2, 203244, Note_off_c, 0, 76, 64
2, 203251, Note_off_c, 0, 48, 64
2, 203293, Control_c, 0, 64, 0
2, 203299, Note_on_c, 0, 79, 58
2, 203306, Note_on_c, 0, 41, 45
2, 203328, Note_off_c, 0, 77, 64
2, 203332, Note_off_c, 0, 57, 64
2, 203338, Control_c, 0, 64, 127
2, 203372, Note_on_c, 0, 81, 55
2, 203384, Note_off_c, 0, 79, 64
2, 203410, Note_off_c, 0, 41, 64
2, 203444, Note_on_c, 0, 79, 55
2, 203453, Note_off_c, 0, 81, 64
2, 203459, Note_on_c, 0, 58, 54
2, 203471, Note_on_c, 0, 50, 44
2, 203476, Control_c, 0, 64, 0
2, 203480, Control_c, 0, 64, 127
2, 203489, Control_c, 0, 64, 127
2, 203496, Control_c, 0, 64, 127
2, 203500, Note_on_c, 0, 81, 59
2, 203506, Note_off_c, 0, 79, 64
2, 203524, Note_on_c, 0, 79, 48
2, 203545, Note_off_c, 0, 81, 64
2, 203568, Note_on_c, 0, 81, 57
2, 203575, Note_off_c, 0, 79, 64
2, 203592, Note_off_c, 0, 58, 64
2, 203593, Note_off_c, 0, 50, 64
2, 203594, Note_on_c, 0, 79, 44
2, 203609, Note_off_c, 0, 81, 64
2, 203625, Note_on_c, 0, 41, 41
2, 203626, Control_c, 0, 64, 0
2, 203628, Control_c, 0, 64, 0
2, 203632, Note_on_c, 0, 77, 79
2, 203632, Note_on_c, 0, 41, 48
2, 203640, Note_off_c, 0, 79, 64
2, 203641, Note_on_c, 0, 41, 41
2, 203644, Control_c, 0, 64, 0
2, 203676, Control_c, 0, 64, 127
2, 203698, Note_on_c, 0, 74, 49
2, 203722, Note_off_c, 0, 77, 64
2, 203772, Note_off_c, 0, 41, 64
2, 203775, Note_off_c, 0, 41, 64
2, 203783, Note_on_c, 0, 57, 49
2, 203783, Note_on_c, 0, 48, 49
2, 203790, Note_on_c, 0, 72, 66
2, 203791, Note_off_c, 0, 41, 64
2, 203793, Note_off_c, 0, 74, 64
2, 203800, Control_c, 0, 64, 0
2, 203833, Control_c, 0, 64, 127
2, 203872, Note_on_c, 0, 74, 44
2, 203881, Note_off_c, 0, 72, 64
2, 203950, Note_off_c, 0, 48, 64
2, 203950, Note_on_c, 0, 72, 58
2, 203956, Note_on_c, 0, 41, 52
2, 203957, Control_c, 0, 64, 0
2, 203964, Note_off_c, 0, 74, 64
2, 203983, Control_c, 0, 64, 127
2, 203993, Note_off_c, 0, 57, 64
2, 204077, Note_off_c, 0, 41, 64
2, 204122, Note_on_c, 0, 76, 55
2, 204122, Note_on_c, 0, 48, 49
2, 204135, Note_on_c, 0, 57, 48
2, 204147, Note_off_c, 0, 72, 64
2, 204230, Note_off_c, 0, 48, 64
2, 204236, Note_on_c, 0, 77, 58
2, 204243, Note_off_c, 0, 57, 64
2, 204249, Note_off_c, 0, 76, 64
2, 204326, Note_off_c, 0, 77, 64
2, 204353, Note_on_c, 0, 48, 24
2, 204353, Note_on_c, 0, 58, 44
2, 204357, Note_on_c, 0, 52, 46
2, 204363, Note_on_c, 0, 79, 44
2, 204457, Note_on_c, 0, 81, 58
2, 204464, Note_off_c, 0, 79, 64
2, 204526, Note_off_c, 0, 52, 64
2, 204530, Note_on_c, 0, 79, 70
2, 204537, Note_off_c, 0, 81, 64
2, 204539, Note_off_c, 0, 58, 64
2, 204605, Note_on_c, 0, 77, 66
2, 204621, Note_on_c, 0, 53, 35
2, 204629, Note_off_c, 0, 79, 64
2, 204632, Note_on_c, 0, 57, 28
2, 204645, Control_c, 0, 64, 0
2, 204707, Control_c, 0, 64, 127
2, 204772, Note_off_c, 0, 77, 64
2, 204779, Note_on_c, 0, 67, 62
2, 204863, Note_on_c, 0, 77, 62
2, 204880, Note_off_c, 0, 67, 64
2, 204880, Note_off_c, 0, 57, 64
2, 204888, Note_off_c, 0, 53, 64
2, 204903, Note_off_c, 0, 48, 64
2, 204949, Note_off_c, 0, 77, 64
2, 204954, Note_on_c, 0, 66, 75
2, 205029, Note_on_c, 0, 77, 66
2, 205047, Note_off_c, 0, 66, 64
2, 205066, Note_off_c, 0, 77, 64
2, 205092, Note_on_c, 0, 77, 72
2, 205137, Note_on_c, 0, 65, 74
2, 205137, Control_c, 0, 64, 0
2, 205145, Note_off_c, 0, 77, 64
2, 205150, Note_on_c, 0, 41, 66
2, 205188, Control_c, 0, 64, 127
2, 205212, Note_off_c, 0, 65, 64
2, 205237, Note_off_c, 0, 41, 64
2, 205283, Note_on_c, 0, 65, 74
2, 205295, Control_c, 0, 64, 0
2, 205325, Note_on_c, 0, 67, 87
2, 205332, Note_on_c, 0, 63, 48
2, 205332, Note_on_c, 0, 53, 44
2, 205339, Note_on_c, 0, 60, 50
2, 205345, Note_off_c, 0, 65, 64
2, 205370, Note_off_c, 0, 53, 64
2, 205370, Note_off_c, 0, 63, 64
2, 205377, Note_off_c, 0, 60, 64
2, 205381, Control_c, 0, 64, 127
2, 205478, Control_c, 0, 64, 0
2, 205493, Note_on_c, 0, 69, 83
2, 205497, Note_on_c, 0, 53, 36
2, 205502, Note_on_c, 0, 63, 46
2, 205502, Note_on_c, 0, 60, 46
2, 205515, Note_off_c, 0, 67, 64
2, 205526, Note_off_c, 0, 60, 64
2, 205531, Note_off_c, 0, 53, 64
2, 205536, Note_off_c, 0, 63, 64
2, 205538, Control_c, 0, 64, 127
2, 205642, Note_on_c, 0, 46, 78
2, 205651, Note_on_c, 0, 70, 78
2, 205656, Control_c, 0, 64, 0
2, 205680, Note_off_c, 0, 69, 64
2, 205680, Control_c, 0, 64, 127
2, 205720, Note_off_c, 0, 70, 64
2, 205729, Note_off_c, 0, 46, 64
2, 205766, Note_on_c, 0, 72, 72
2, 205804, Note_on_c, 0, 58, 55
2, 205804, Note_on_c, 0, 53, 53
2, 205809, Note_on_c, 0, 62, 40
2, 205813, Note_on_c, 0, 74, 84
2, 205819, Control_c, 0, 64, 0
2, 205830, Note_off_c, 0, 72, 64
2, 205838, Note_off_c, 0, 62, 64
2, 205845, Control_c, 0, 64, 127
2, 205849, Note_off_c, 0, 53, 64
2, 205850, Note_off_c, 0, 58, 64
2, 205967, Note_on_c, 0, 75, 75
2, 205968, Note_on_c, 0, 46, 70
2, 205975, Control_c, 0, 64, 0
2, 205989, Note_off_c, 0, 74, 64
2, 206006, Control_c, 0, 64, 127
2, 206055, Note_off_c, 0, 46, 64
2, 206065, Note_on_c, 0, 77, 71
2, 206078, Note_off_c, 0, 75, 64
2, 206122, Note_on_c, 0, 39, 75
2, 206128, Note_on_c, 0, 51, 75
2, 206128, Control_c, 0, 64, 0
2, 206136, Note_on_c, 0, 79, 84
2, 206161, Note_off_c, 0, 77, 64
2, 206173, Control_c, 0, 64, 127
2, 206231, Note_on_c, 0, 81, 70
2, 206232, Note_on_c, 0, 55, 50
2, 206252, Note_off_c, 0, 79, 64
2, 206280, Note_on_c, 0, 58, 57
2, 206328, Note_on_c, 0, 63, 55
2, 206346, Note_on_c, 0, 84, 84
2, 206349, Control_c, 0, 64, 0
2, 206361, Note_off_c, 0, 81, 64
2, 206362, Note_off_c, 0, 39, 64
2, 206366, Note_off_c, 0, 55, 64
2, 206368, Note_off_c, 0, 51, 64
2, 206375, Control_c, 0, 64, 127
2, 206376, Note_on_c, 0, 67, 63
2, 206380, Note_on_c, 0, 82, 88
2, 206385, Note_off_c, 0, 84, 64
2, 206402, Note_off_c, 0, 58, 64
2, 206404, Note_on_c, 0, 84, 72
2, 206413, Note_off_c, 0, 82, 64
2, 206428, Note_off_c, 0, 63, 64
2, 206428, Note_on_c, 0, 82, 78
2, 206432, Note_off_c, 0, 84, 64
2, 206452, Note_on_c, 0, 84, 70
2, 206453, Note_off_c, 0, 67, 64
2, 206458, Note_off_c, 0, 82, 64
2, 206480, Note_on_c, 0, 82, 71
2, 206500, Note_off_c, 0, 84, 64
2, 206520, Note_on_c, 0, 81, 78
2, 206534, Note_off_c, 0, 82, 64
2, 206577, Note_off_c, 0, 81, 64
2, 206604, Note_on_c, 0, 79, 78
2, 206658, Note_off_c, 0, 79, 64
2, 206666, Note_on_c, 0, 77, 70
2, 206671, Control_c, 0, 64, 0
2, 206684, Note_on_c, 0, 46, 70
2, 206693, Note_on_c, 0, 82, 70
2, 206712, Note_off_c, 0, 77, 64
2, 206718, Note_off_c, 0, 82, 64
2, 206723, Control_c, 0, 64, 127
2, 206771, Note_off_c, 0, 46, 64
2, 206807, Note_on_c, 0, 82, 67
2, 206830, Control_c, 0, 64, 0
2, 206839, Note_off_c, 0, 82, 64
2, 206840, Note_on_c, 0, 58, 46
2, 206844, Note_on_c, 0, 74, 72
2, 206845, Note_on_c, 0, 62, 44
2, 206845, Note_on_c, 0, 53, 29
2, 206882, Note_off_c, 0, 58, 64
2, 206884, Control_c, 0, 64, 127
2, 206889, Note_off_c, 0, 53, 64
2, 206896, Note_off_c, 0, 62, 64
2, 206996, Note_on_c, 0, 62, 41
2, 206996, Note_on_c, 0, 53, 35
2, 206997, Note_on_c, 0, 58, 45
2, 207021, Note_off_c, 0, 62, 64
2, 207026, Note_off_c, 0, 58, 64
2, 207026, Note_off_c, 0, 53, 64
2, 207118, Note_on_c, 0, 75, 71
2, 207135, Note_off_c, 0, 74, 64
2, 207142, Control_c, 0, 64, 0
2, 207150, Note_on_c, 0, 41, 71
2, 207161, Note_on_c, 0, 79, 78
2, 207178, Note_off_c, 0, 75, 64
2, 207191, Note_off_c, 0, 79, 64
2, 207192, Control_c, 0, 64, 127
2, 207237, Note_off_c, 0, 41, 64
2, 207284, Note_on_c, 0, 79, 66
2, 207290, Control_c, 0, 64, 0
2, 207315, Note_on_c, 0, 53, 41
2, 207320, Note_off_c, 0, 79, 64
2, 207320, Note_on_c, 0, 69, 62
2, 207323, Note_on_c, 0, 60, 50
2, 207323, Note_on_c, 0, 63, 66
2, 207346, Control_c, 0, 64, 127
2, 207358, Note_off_c, 0, 53, 64
2, 207360, Note_off_c, 0, 63, 64
2, 207360, Note_off_c, 0, 60, 64
2, 207464, Note_on_c, 0, 53, 52
2, 207472, Note_on_c, 0, 63, 52
2, 207473, Note_on_c, 0, 60, 48
2, 207479, Control_c, 0, 64, 0
2, 207495, Control_c, 0, 64, 127
2, 207504, Note_off_c, 0, 53, 64
2, 207512, Note_off_c, 0, 60, 64
2, 207515, Note_off_c, 0, 63, 64
2, 207579, Note_on_c, 0, 70, 58
2, 207593, Note_off_c, 0, 69, 64
2, 207612, Note_on_c, 0, 46, 67
2, 207617, Control_c, 0, 64, 0
2, 207625, Note_on_c, 0, 74, 91
2, 207646, Note_off_c, 0, 70, 64
2, 207651, Note_off_c, 0, 74, 64
2, 207663, Control_c, 0, 64, 127
2, 207699, Note_off_c, 0, 46, 64
2, 207736, Note_on_c, 0, 74, 50
2, 207757, Control_c, 0, 64, 0
2, 207768, Note_off_c, 0, 74, 64
2, 207768, Note_on_c, 0, 58, 37
2, 207772, Note_on_c, 0, 62, 22
2, 207772, Note_on_c, 0, 53, 28
2, 207776, Note_on_c, 0, 64, 75
2, 207820, Control_c, 0, 64, 127
2, 207823, Note_off_c, 0, 58, 64
2, 207825, Note_off_c, 0, 53, 64
2, 207827, Note_off_c, 0, 62, 64
2, 207923, Note_on_c, 0, 62, 32
2, 207927, Note_on_c, 0, 58, 40
2, 207933, Note_on_c, 0, 53, 28
2, 207956, Note_off_c, 0, 62, 64
2, 207960, Note_off_c, 0, 53, 64
2, 207960, Note_off_c, 0, 58, 64
2, 208080, Note_on_c, 0, 65, 66
2, 208081, Control_c, 0, 64, 0
2, 208090, Note_on_c, 0, 41, 66
2, 208104, Note_off_c, 0, 64, 64
2, 208133, Control_c, 0, 64, 127
2, 208177, Note_off_c, 0, 41, 64
2, 208188, Note_on_c, 0, 69, 72
2, 208203, Note_off_c, 0, 65, 64
2, 208222, Control_c, 0, 64, 0
2, 208228, Note_on_c, 0, 53, 37
2, 208236, Note_on_c, 0, 72, 83
2, 208236, Note_on_c, 0, 63, 41
2, 208236, Note_on_c, 0, 60, 41
2, 208261, Control_c, 0, 64, 127
2, 208264, Note_off_c, 0, 60, 64
2, 208268, Note_off_c, 0, 63, 64
2, 208268, Note_off_c, 0, 53, 64
2, 208320, Note_on_c, 0, 75, 49
2, 208323, Note_off_c, 0, 69, 64
2, 208357, Note_off_c, 0, 72, 64
2, 208380, Note_on_c, 0, 79, 83
2, 208382, Note_on_c, 0, 53, 28
2, 208386, Note_on_c, 0, 63, 32
2, 208392, Note_on_c, 0, 60, 27
2, 208411, Note_off_c, 0, 63, 64
2, 208412, Note_off_c, 0, 75, 64
2, 208413, Note_off_c, 0, 60, 64
2, 208415, Note_off_c, 0, 53, 64
2, 208456, Note_on_c, 0, 77, 83
2, 208464, Note_off_c, 0, 79, 64
2, 208486, Note_off_c, 0, 77, 64
2, 208510, Note_on_c, 0, 77, 83
2, 208536, Note_on_c, 0, 46, 72
2, 208539, Control_c, 0, 64, 0
2, 208553, Note_on_c, 0, 86, 76
2, 208575, Control_c, 0, 64, 127
2, 208589, Note_off_c, 0, 77, 64
2, 208623, Note_off_c, 0, 46, 64
2, 208653, Note_on_c, 0, 84, 72
2, 208665, Note_off_c, 0, 86, 64
2, 208700, Note_on_c, 0, 58, 23
2, 208704, Note_on_c, 0, 62, 48
2, 208704, Note_on_c, 0, 53, 33
2, 208710, Note_on_c, 0, 82, 78
2, 208712, Control_c, 0, 64, 0
2, 208721, Note_off_c, 0, 84, 64
2, 208732, Note_on_c, 0, 84, 76
2, 208736, Note_off_c, 0, 62, 64
2, 208740, Note_off_c, 0, 53, 64
2, 208741, Control_c, 0, 64, 127
2, 208743, Note_off_c, 0, 58, 64
2, 208756, Note_off_c, 0, 82, 64
2, 208771, Note_on_c, 0, 82, 50
2, 208788, Note_off_c, 0, 84, 64
2, 208804, Note_on_c, 0, 79, 78
2, 208838, Note_off_c, 0, 82, 64
2, 208870, Note_on_c, 0, 77, 84
2, 208881, Control_c, 0, 64, 0
2, 208886, Note_off_c, 0, 79, 64
2, 208886, Note_on_c, 0, 53, 46
2, 208887, Note_on_c, 0, 62, 46
2, 208887, Note_on_c, 0, 58, 46
2, 208915, Note_off_c, 0, 58, 64
2, 208915, Note_off_c, 0, 62, 64
2, 208915, Control_c, 0, 64, 127
2, 208921, Note_off_c, 0, 53, 64
2, 208990, Note_on_c, 0, 79, 71
2, 208993, Note_off_c, 0, 77, 64
2, 209020, Control_c, 0, 64, 0
2, 209024, Note_on_c, 0, 46, 74
2, 209026, Note_on_c, 0, 82, 84
2, 209037, Note_off_c, 0, 79, 64
2, 209050, Note_off_c, 0, 82, 64
2, 209070, Control_c, 0, 64, 127
2, 209111, Note_off_c, 0, 46, 64
2, 209137, Note_on_c, 0, 82, 83
2, 209167, Note_off_c, 0, 82, 64
2, 209175, Control_c, 0, 64, 0
2, 209185, Note_on_c, 0, 69, 75
2, 209199, Note_on_c, 0, 63, 52
2, 209200, Note_on_c, 0, 60, 46
2, 209200, Note_on_c, 0, 53, 37
2, 209229, Control_c, 0, 64, 127
2, 209231, Note_off_c, 0, 60, 64
2, 209243, Note_off_c, 0, 53, 64
2, 209244, Note_off_c, 0, 63, 64
2, 209338, Control_c, 0, 64, 0
2, 209342, Note_on_c, 0, 63, 45
2, 209344, Note_on_c, 0, 60, 35
2, 209347, Note_on_c, 0, 53, 37
2, 209373, Note_off_c, 0, 60, 64
2, 209376, Note_off_c, 0, 63, 64
2, 209378, Note_off_c, 0, 53, 64
2, 209380, Control_c, 0, 64, 127
2, 209436, Note_on_c, 0, 70, 65
2, 209462, Note_on_c, 0, 74, 70
2, 209472, Note_off_c, 0, 69, 64
2, 209478, Note_off_c, 0, 70, 64
2, 209490, Control_c, 0, 64, 0
2, 209492, Note_on_c, 0, 77, 80
2, 209492, Note_on_c, 0, 46, 71
2, 209514, Note_off_c, 0, 74, 64
2, 209516, Note_off_c, 0, 77, 64
2, 209569, Control_c, 0, 64, 127
2, 209579, Note_off_c, 0, 46, 64
2, 209612, Control_c, 0, 64, 0
2, 209630, Note_on_c, 0, 77, 70
2, 209660, Note_on_c, 0, 58, 26
2, 209664, Note_off_c, 0, 77, 64
2, 209664, Note_on_c, 0, 64, 74
2, 209664, Note_on_c, 0, 53, 41
2, 209668, Note_on_c, 0, 62, 20
2, 209683, Note_off_c, 0, 58, 64
2, 209687, Note_off_c, 0, 53, 64
2, 209693, Note_off_c, 0, 62, 64
2, 209696, Control_c, 0, 64, 127
2, 209818, Note_on_c, 0, 62, 41
2, 209819, Note_on_c, 0, 58, 52
2, 209825, Note_on_c, 0, 53, 41
2, 209844, Note_off_c, 0, 62, 64
2, 209847, Note_off_c, 0, 58, 64
2, 209848, Note_off_c, 0, 53, 64
2, 209975, Note_on_c, 0, 65, 76
2, 209979, Note_off_c, 0, 64, 64
2, 209989, Control_c, 0, 64, 0
2, 209993, Note_on_c, 0, 41, 65
2, 210026, Control_c, 0, 64, 127
2, 210067, Note_on_c, 0, 69, 67
2, 210080, Note_off_c, 0, 41, 64
2, 210106, Note_off_c, 0, 65, 64
2, 210112, Note_on_c, 0, 63, 41
2, 210120, Note_on_c, 0, 53, 52
2, 210124, Note_on_c, 0, 72, 57
2, 210138, Note_off_c, 0, 63, 64
2, 210148, Note_off_c, 0, 53, 64
2, 210179, Note_off_c, 0, 69, 64
2, 210188, Note_on_c, 0, 75, 70
2, 210215, Note_off_c, 0, 72, 64
2, 210274, Note_on_c, 0, 74, 62
2, 210287, Note_on_c, 0, 63, 26
2, 210291, Note_on_c, 0, 53, 52
2, 210293, Note_off_c, 0, 75, 64
2, 210296, Note_on_c, 0, 57, 52
2, 210300, Note_on_c, 0, 75, 70
2, 210307, Note_off_c, 0, 74, 64
2, 210319, Note_off_c, 0, 63, 64
2, 210324, Note_off_c, 0, 57, 64
2, 210332, Note_off_c, 0, 53, 64
2, 210344, Note_on_c, 0, 74, 59
2, 210362, Note_off_c, 0, 75, 64
2, 210383, Note_on_c, 0, 72, 76
2, 210396, Note_off_c, 0, 74, 64
2, 210459, Note_on_c, 0, 74, 84
2, 210462, Note_off_c, 0, 72, 64
2, 210463, Note_on_c, 0, 46, 66
2, 210476, Control_c, 0, 64, 0
2, 210519, Control_c, 0, 64, 127
2, 210563, Note_on_c, 0, 65, 63
2, 210601, Note_off_c, 0, 74, 64
2, 210624, Note_on_c, 0, 70, 84
2, 210632, Control_c, 0, 64, 0
2, 210638, Note_on_c, 0, 62, 55
2, 210638, Note_on_c, 0, 58, 57
2, 210638, Note_on_c, 0, 53, 57
2, 210658, Note_off_c, 0, 46, 64
2, 210681, Control_c, 0, 64, 127
2, 210692, Note_off_c, 0, 65, 64
2, 210760, Note_off_c, 0, 62, 64
2, 210761, Note_off_c, 0, 58, 64
2, 210768, Note_off_c, 0, 53, 64
2, 210800, Note_on_c, 0, 69, 53
2, 210810, Note_off_c, 0, 70, 64
2, 210915, Note_on_c, 0, 70, 52
2, 210941, Note_off_c, 0, 69, 64
2, 210979, Control_c, 0, 64, 0
2, 210991, Note_on_c, 0, 41, 61
2, 210991, Note_on_c, 0, 72, 58
2, 211017, Note_off_c, 0, 70, 64
2, 211047, Control_c, 0, 64, 127
2, 211116, Note_on_c, 0, 74, 52
2, 211130, Note_off_c, 0, 72, 64
2, 211151, Control_c, 0, 64, 0
2, 211156, Note_on_c, 0, 48, 44
2, 211156, Note_on_c, 0, 57, 41
2, 211163, Note_off_c, 0, 74, 64
2, 211163, Note_on_c, 0, 72, 57
2, 211191, Control_c, 0, 64, 127
2, 211214, Note_off_c, 0, 41, 64
2, 211224, Note_off_c, 0, 48, 64
2, 211235, Note_off_c, 0, 57, 64
2, 211312, Note_on_c, 0, 76, 55
2, 211318, Note_on_c, 0, 57, 27
2, 211320, Control_c, 0, 64, 0
2, 211322, Note_on_c, 0, 48, 41
2, 211330, Note_off_c, 0, 72, 64
2, 211347, Control_c, 0, 64, 127
2, 211425, Note_on_c, 0, 77, 49
2, 211438, Note_off_c, 0, 57, 64
2, 211438, Note_off_c, 0, 76, 64
2, 211442, Note_off_c, 0, 48, 64
2, 211474, Control_c, 0, 64, 0
2, 211480, Note_on_c, 0, 79, 57
2, 211481, Note_on_c, 0, 41, 57
2, 211494, Note_off_c, 0, 77, 64
2, 211524, Control_c, 0, 64, 127
2, 211579, Note_on_c, 0, 81, 45
2, 211589, Note_off_c, 0, 79, 64
2, 211625, Note_on_c, 0, 79, 57
2, 211635, Note_on_c, 0, 58, 55
2, 211639, Note_off_c, 0, 81, 64
2, 211639, Note_on_c, 0, 50, 44
2, 211639, Control_c, 0, 64, 0
2, 211673, Control_c, 0, 64, 127
2, 211704, Note_off_c, 0, 41, 64
2, 211720, Note_off_c, 0, 50, 64
2, 211726, Note_off_c, 0, 58, 64
2, 211792, Control_c, 0, 64, 0
2, 211798, Note_on_c, 0, 77, 53
2, 211798, Note_on_c, 0, 58, 32
2, 211806, Note_on_c, 0, 50, 42
2, 211834, Note_off_c, 0, 79, 64
2, 211835, Control_c, 0, 64, 127
2, 211884, Note_off_c, 0, 50, 64
2, 211896, Note_off_c, 0, 58, 64
2, 211916, Note_on_c, 0, 74, 48
2, 211939, Note_off_c, 0, 77, 64
2, 211950, Note_on_c, 0, 41, 55
2, 211965, Control_c, 0, 64, 0
2, 211972, Note_on_c, 0, 72, 59
2, 211985, Note_off_c, 0, 74, 64
2, 212002, Control_c, 0, 64, 127
2, 212077, Note_on_c, 0, 74, 49
2, 212083, Note_off_c, 0, 72, 64
2, 212113, Note_on_c, 0, 48, 48
2, 212114, Control_c, 0, 64, 0
2, 212122, Note_on_c, 0, 57, 31
2, 212136, Note_on_c, 0, 72, 53
2, 212152, Note_off_c, 0, 74, 64
2, 212153, Control_c, 0, 64, 127
2, 212173, Note_off_c, 0, 41, 64
2, 212187, Note_off_c, 0, 48, 64
2, 212203, Note_off_c, 0, 57, 64
2, 212280, Note_on_c, 0, 76, 45
2, 212280, Note_on_c, 0, 57, 37
2, 212284, Note_on_c, 0, 48, 42
2, 212303, Note_off_c, 0, 72, 64
2, 212374, Note_on_c, 0, 77, 50
2, 212375, Note_off_c, 0, 48, 64
2, 212388, Note_off_c, 0, 76, 64
2, 212389, Note_off_c, 0, 57, 64
2, 212438, Control_c, 0, 64, 0
2, 212444, Note_on_c, 0, 79, 44
2, 212456, Note_on_c, 0, 41, 50
2, 212464, Note_off_c, 0, 77, 64
2, 212479, Control_c, 0, 64, 127
2, 212500, Note_on_c, 0, 81, 48
2, 212514, Note_off_c, 0, 79, 64
2, 212549, Note_on_c, 0, 79, 50
2, 212564, Note_off_c, 0, 81, 64
2, 212597, Note_on_c, 0, 58, 50
2, 212601, Control_c, 0, 64, 0
2, 212604, Note_on_c, 0, 50, 42
2, 212607, Note_on_c, 0, 77, 49
2, 212620, Note_off_c, 0, 79, 64
2, 212638, Control_c, 0, 64, 127
2, 212679, Note_off_c, 0, 41, 64
2, 212690, Note_off_c, 0, 58, 64
2, 212695, Note_off_c, 0, 50, 64
2, 212757, Note_on_c, 0, 41, 41
2, 212846, Note_on_c, 0, 74, 52
2, 212869, Note_off_c, 0, 77, 64
2, 212908, Note_off_c, 0, 41, 64
2, 212938, Note_on_c, 0, 72, 55
2, 212941, Note_on_c, 0, 57, 41
2, 212946, Note_off_c, 0, 74, 64
2, 212947, Control_c, 0, 64, 0
2, 212954, Note_on_c, 0, 48, 28
2, 212982, Control_c, 0, 64, 127
2, 213030, Note_on_c, 0, 74, 41
2, 213048, Note_off_c, 0, 72, 64
2, 213081, Note_off_c, 0, 57, 64
2, 213092, Control_c, 0, 64, 0
2, 213099, Note_off_c, 0, 48, 64
2, 213105, Note_on_c, 0, 41, 45
2, 213105, Note_on_c, 0, 72, 57
2, 213114, Note_off_c, 0, 74, 64
2, 213150, Control_c, 0, 64, 127
2, 213253, Note_off_c, 0, 41, 64
2, 213264, Note_on_c, 0, 76, 55
2, 213268, Note_on_c, 0, 57, 29
2, 213268, Note_on_c, 0, 48, 40
2, 213282, Note_off_c, 0, 72, 64
2, 213348, Note_on_c, 0, 77, 52
2, 213372, Note_off_c, 0, 76, 64
2, 213423, Note_off_c, 0, 48, 64
2, 213431, Note_on_c, 0, 79, 53
2, 213435, Control_c, 0, 64, 0
2, 213439, Note_on_c, 0, 41, 52
2, 213445, Note_off_c, 0, 57, 64
2, 213454, Note_off_c, 0, 77, 64
2, 213483, Control_c, 0, 64, 127
2, 213507, Note_on_c, 0, 81, 52
2, 213525, Note_off_c, 0, 79, 64
2, 213571, Note_off_c, 0, 41, 64
2, 213591, Note_on_c, 0, 79, 36
2, 213595, Control_c, 0, 64, 0
2, 213599, Note_on_c, 0, 58, 50
2, 213605, Note_off_c, 0, 81, 64
2, 213608, Note_on_c, 0, 50, 28
2, 213624, Control_c, 0, 64, 127
2, 213644, Note_on_c, 0, 81, 59
2, 213647, Note_off_c, 0, 79, 64
2, 213668, Note_on_c, 0, 79, 48
2, 213689, Note_off_c, 0, 81, 64
2, 213712, Note_off_c, 0, 50, 64
2, 213712, Note_on_c, 0, 81, 57
2, 213719, Note_off_c, 0, 79, 64
2, 213723, Note_off_c, 0, 58, 64
2, 213738, Note_on_c, 0, 79, 44
2, 213753, Note_off_c, 0, 81, 64
2, 213769, Note_on_c, 0, 41, 41
2, 213772, Note_on_c, 0, 77, 52
2, 213772, Control_c, 0, 64, 0
2, 213784, Note_off_c, 0, 79, 64
2, 213806, Control_c, 0, 64, 127
2, 213852, Note_on_c, 0, 74, 41
2, 213878, Note_off_c, 0, 77, 64
2, 213919, Note_off_c, 0, 41, 64
2, 213942, Note_on_c, 0, 72, 61
2, 213945, Note_on_c, 0, 48, 39
2, 213945, Note_on_c, 0, 57, 39
2, 213945, Control_c, 0, 64, 0
2, 213953, Note_off_c, 0, 74, 64
2, 213984, Control_c, 0, 64, 127
2, 214038, Note_on_c, 0, 74, 48
2, 214050, Note_off_c, 0, 72, 64
2, 214093, Note_off_c, 0, 48, 64
2, 214117, Note_on_c, 0, 72, 53
2, 214119, Note_on_c, 0, 41, 57
2, 214123, Note_off_c, 0, 57, 64
2, 214132, Note_off_c, 0, 74, 64
2, 214138, Control_c, 0, 64, 0
2, 214159, Control_c, 0, 64, 127
2, 214286, Note_off_c, 0, 41, 64
2, 214295, Note_on_c, 0, 76, 50
2, 214300, Note_on_c, 0, 48, 44
2, 214309, Note_on_c, 0, 57, 29
2, 214314, Control_c, 0, 64, 0
2, 214318, Note_off_c, 0, 72, 64
2, 214329, Control_c, 0, 64, 127
2, 214390, Note_on_c, 0, 77, 44
2, 214392, Note_off_c, 0, 48, 64
2, 214401, Note_off_c, 0, 57, 64
2, 214420, Note_off_c, 0, 76, 64
2, 214488, Note_on_c, 0, 48, 41
2, 214493, Note_on_c, 0, 79, 61
2, 214495, Note_on_c, 0, 58, 42
2, 214501, Note_on_c, 0, 52, 33
2, 214512, Note_off_c, 0, 77, 64
2, 214542, Control_c, 0, 64, 0
2, 214573, Control_c, 0, 64, 127
2, 214608, Note_on_c, 0, 81, 52
2, 214620, Note_off_c, 0, 79, 64
2, 214678, Note_off_c, 0, 52, 64
2, 214686, Note_off_c, 0, 58, 64
2, 214686, Note_on_c, 0, 79, 50
2, 214701, Note_off_c, 0, 81, 64
2, 214766, Note_on_c, 0, 77, 53
2, 214783, Note_off_c, 0, 79, 64
2, 214783, Note_on_c, 0, 53, 29
2, 214797, Note_on_c, 0, 57, 22
2, 214814, Control_c, 0, 64, 0
2, 214857, Control_c, 0, 64, 127
2, 214896, Note_on_c, 0, 67, 57
2, 214930, Note_off_c, 0, 77, 64
2, 214988, Note_on_c, 0, 77, 76
2, 215011, Note_off_c, 0, 67, 64
2, 215074, Note_off_c, 0, 48, 64
2, 215080, Note_on_c, 0, 66, 87
2, 215092, Note_off_c, 0, 53, 64
2, 215097, Note_off_c, 0, 57, 64
2, 215106, Note_off_c, 0, 77, 64
2, 215141, Note_on_c, 0, 77, 78
2, 215158, Note_off_c, 0, 66, 64
2, 215184, Note_off_c, 0, 77, 64
2, 215215, Note_on_c, 0, 77, 76
2, 215256, Note_on_c, 0, 65, 72
2, 215256, Note_on_c, 0, 41, 66
2, 215263, Note_off_c, 0, 77, 64
2, 215291, Control_c, 0, 64, 0
2, 215336, Control_c, 0, 64, 127
2, 215343, Note_off_c, 0, 41, 64
2, 215346, Note_off_c, 0, 65, 64
2, 215415, Note_on_c, 0, 65, 67
2, 215462, Note_on_c, 0, 67, 80
2, 215466, Control_c, 0, 64, 0
2, 215472, Note_on_c, 0, 63, 67
2, 215472, Note_on_c, 0, 53, 57
2, 215479, Note_off_c, 0, 65, 64
2, 215485, Note_on_c, 0, 60, 63
2, 215508, Note_off_c, 0, 53, 64
2, 215516, Note_off_c, 0, 63, 64
2, 215518, Note_off_c, 0, 60, 64
2, 215524, Control_c, 0, 64, 127
2, 215629, Note_on_c, 0, 53, 55
2, 215631, Control_c, 0, 64, 0
2, 215638, Note_on_c, 0, 69, 83
2, 215638, Note_on_c, 0, 63, 59
2, 215642, Note_on_c, 0, 60, 55
2, 215658, Note_off_c, 0, 67, 64
2, 215663, Note_off_c, 0, 60, 64
2, 215668, Note_off_c, 0, 63, 64
2, 215671, Note_off_c, 0, 53, 64
2, 215674, Control_c, 0, 64, 127
2, 215781, Control_c, 0, 64, 0
2, 215788, Note_on_c, 0, 46, 70
2, 215789, Note_on_c, 0, 70, 66
2, 215818, Note_off_c, 0, 69, 64
2, 215830, Control_c, 0, 64, 127
2, 215863, Note_off_c, 0, 70, 64
2, 215875, Note_off_c, 0, 46, 64
2, 215903, Note_on_c, 0, 72, 70
2, 215936, Control_c, 0, 64, 0
2, 215940, Note_on_c, 0, 58, 36
2, 215943, Note_on_c, 0, 62, 37
2, 215943, Note_on_c, 0, 53, 48
2, 215953, Note_on_c, 0, 74, 83
2, 215974, Note_off_c, 0, 72, 64
2, 215978, Note_off_c, 0, 62, 64
2, 215984, Control_c, 0, 64, 127
2, 215989, Note_off_c, 0, 58, 64
2, 215993, Note_off_c, 0, 53, 64
2, 216108, Note_on_c, 0, 75, 75
2, 216110, Note_on_c, 0, 46, 72
2, 216115, Control_c, 0, 64, 0
2, 216130, Note_off_c, 0, 74, 64
2, 216151, Control_c, 0, 64, 127
2, 216197, Note_off_c, 0, 46, 64
2, 216213, Note_on_c, 0, 77, 76
2, 216223, Note_off_c, 0, 75, 64
2, 216256, Note_on_c, 0, 39, 78
2, 216259, Note_on_c, 0, 51, 78
2, 216272, Control_c, 0, 64, 0
2, 216278, Note_on_c, 0, 79, 87
2, 216296, Note_off_c, 0, 77, 64
2, 216301, Control_c, 0, 64, 127
2, 216368, Note_on_c, 0, 55, 36
2, 216371, Note_on_c, 0, 81, 83
2, 216386, Note_off_c, 0, 79, 64
2, 216400, Note_on_c, 0, 58, 46
2, 216456, Note_on_c, 0, 63, 48
2, 216476, Note_on_c, 0, 84, 87
2, 216482, Note_off_c, 0, 55, 64
2, 216488, Note_on_c, 0, 67, 65
2, 216496, Note_off_c, 0, 39, 64
2, 216497, Note_off_c, 0, 81, 64
2, 216499, Note_off_c, 0, 51, 64
2, 216508, Note_on_c, 0, 82, 91
2, 216513, Note_off_c, 0, 84, 64
2, 216524, Note_off_c, 0, 58, 64
2, 216536, Note_on_c, 0, 84, 45
2, 216552, Note_off_c, 0, 82, 64
2, 216567, Note_off_c, 0, 84, 64
2, 216568, Note_off_c, 0, 63, 64
2, 216568, Note_on_c, 0, 82, 79
2, 216591, Note_off_c, 0, 67, 64
2, 216592, Note_on_c, 0, 84, 76
2, 216603, Note_off_c, 0, 82, 64
2, 216632, Note_on_c, 0, 82, 83
2, 216648, Note_off_c, 0, 84, 64
2, 216679, Note_on_c, 0, 81, 84
2, 216688, Note_off_c, 0, 82, 64
2, 216733, Note_on_c, 0, 79, 83
2, 216754, Note_off_c, 0, 81, 64
2, 216800, Note_on_c, 0, 77, 66
2, 216802, Control_c, 0, 64, 0
2, 216804, Note_off_c, 0, 79, 64
2, 216839, Note_off_c, 0, 77, 64
2, 216840, Note_on_c, 0, 46, 62
2, 216842, Control_c, 0, 64, 127
2, 216848, Note_on_c, 0, 82, 85
2, 216881, Note_off_c, 0, 82, 64
2, 216927, Note_off_c, 0, 46, 64
2, 216980, Note_on_c, 0, 82, 63
2, 217004, Note_off_c, 0, 82, 64
2, 217012, Note_on_c, 0, 74, 71
2, 217012, Note_on_c, 0, 58, 57
2, 217016, Note_on_c, 0, 62, 39
2, 217016, Note_on_c, 0, 53, 46
2, 217022, Control_c, 0, 64, 0
2, 217040, Note_off_c, 0, 53, 64
2, 217046, Note_off_c, 0, 58, 64
2, 217072, Control_c, 0, 64, 127
2, 217075, Note_off_c, 0, 62, 64
2, 217182, Note_on_c, 0, 62, 52
2, 217182, Note_on_c, 0, 58, 57
2, 217188, Note_on_c, 0, 53, 46
2, 217209, Note_off_c, 0, 62, 64
2, 217212, Note_off_c, 0, 53, 64
2, 217216, Note_off_c, 0, 58, 64
2, 217301, Note_on_c, 0, 75, 53
2, 217319, Note_off_c, 0, 74, 64
2, 217337, Note_on_c, 0, 41, 50
2, 217341, Note_on_c, 0, 79, 81
2, 217345, Control_c, 0, 64, 0
2, 217361, Note_off_c, 0, 75, 64
2, 217371, Note_off_c, 0, 79, 64
2, 217380, Control_c, 0, 64, 127
2, 217424, Note_off_c, 0, 41, 64
2, 217468, Note_on_c, 0, 79, 57
2, 217475, Control_c, 0, 64, 0
2, 217492, Note_off_c, 0, 79, 64
2, 217496, Note_on_c, 0, 60, 50
2, 217496, Note_on_c, 0, 53, 41
2, 217497, Note_on_c, 0, 63, 52
2, 217505, Note_on_c, 0, 69, 62
2, 217533, Control_c, 0, 64, 127
2, 217540, Note_off_c, 0, 60, 64
2, 217550, Note_off_c, 0, 63, 64
2, 217556, Note_off_c, 0, 53, 64
2, 217636, Note_on_c, 0, 60, 49
2, 217640, Note_on_c, 0, 53, 52
2, 217645, Note_on_c, 0, 63, 52
2, 217680, Note_off_c, 0, 60, 64
2, 217684, Note_off_c, 0, 53, 64
2, 217689, Note_off_c, 0, 63, 64
2, 217757, Note_on_c, 0, 70, 57
2, 217769, Note_off_c, 0, 69, 64
2, 217792, Note_on_c, 0, 46, 57
2, 217795, Note_on_c, 0, 74, 71
2, 217805, Control_c, 0, 64, 0
2, 217816, Note_off_c, 0, 70, 64
2, 217825, Note_off_c, 0, 74, 64
2, 217843, Control_c, 0, 64, 127
2, 217879, Note_off_c, 0, 46, 64
2, 217924, Note_on_c, 0, 74, 59
2, 217937, Control_c, 0, 64, 0
2, 217950, Note_off_c, 0, 74, 64
2, 217950, Note_on_c, 0, 53, 31
2, 217952, Note_on_c, 0, 58, 41
2, 217956, Note_on_c, 0, 64, 72
2, 217966, Note_on_c, 0, 62, 36
2, 217991, Control_c, 0, 64, 127
2, 218004, Note_off_c, 0, 58, 64
2, 218005, Note_off_c, 0, 53, 64
2, 218009, Note_off_c, 0, 62, 64
2, 218104, Note_on_c, 0, 62, 35
2, 218104, Note_on_c, 0, 58, 52
2, 218109, Note_on_c, 0, 53, 35
2, 218132, Note_off_c, 0, 62, 64
2, 218135, Note_off_c, 0, 53, 64
2, 218135, Note_off_c, 0, 58, 64
2, 218148, Note_off_c, 0, 64, 64
2, 218253, Note_on_c, 0, 41, 57
2, 218259, Note_on_c, 0, 65, 70
2, 218264, Control_c, 0, 64, 0
2, 218306, Control_c, 0, 64, 127
2, 218340, Note_off_c, 0, 41, 64
2, 218359, Note_on_c, 0, 69, 63
2, 218388, Note_off_c, 0, 65, 64
2, 218404, Control_c, 0, 64, 0
2, 218407, Note_on_c, 0, 72, 80
2, 218408, Note_on_c, 0, 53, 55
2, 218413, Note_on_c, 0, 63, 61
2, 218430, Control_c, 0, 64, 127
2, 218443, Note_off_c, 0, 53, 64
2, 218451, Note_off_c, 0, 63, 64
2, 218473, Note_on_c, 0, 75, 45
2, 218482, Note_off_c, 0, 69, 64
2, 218534, Note_off_c, 0, 72, 64
2, 218541, Note_on_c, 0, 79, 83
2, 218563, Note_on_c, 0, 63, 55
2, 218569, Note_on_c, 0, 53, 52
2, 218574, Note_off_c, 0, 75, 64
2, 218594, Note_off_c, 0, 63, 64
2, 218603, Note_off_c, 0, 53, 64
2, 218638, Note_on_c, 0, 77, 87
2, 218653, Note_off_c, 0, 79, 64
2, 218662, Note_off_c, 0, 77, 64
2, 218692, Note_on_c, 0, 77, 83
2, 218717, Control_c, 0, 64, 0
2, 218728, Note_on_c, 0, 46, 71
2, 218735, Note_on_c, 0, 86, 83
2, 218758, Note_off_c, 0, 77, 64
2, 218758, Control_c, 0, 64, 127
2, 218815, Note_off_c, 0, 46, 64
2, 218827, Note_on_c, 0, 84, 66
2, 218832, Note_off_c, 0, 86, 64
2, 218891, Control_c, 0, 64, 0
2, 218898, Note_on_c, 0, 82, 84
2, 218901, Note_off_c, 0, 84, 64
2, 218903, Note_on_c, 0, 58, 26
2, 218903, Note_on_c, 0, 53, 24
2, 218904, Note_on_c, 0, 62, 53
2, 218928, Note_on_c, 0, 84, 78
2, 218934, Note_off_c, 0, 58, 64
2, 218937, Note_off_c, 0, 62, 64
2, 218937, Control_c, 0, 64, 127
2, 218944, Note_off_c, 0, 53, 64
2, 218950, Note_off_c, 0, 82, 64
2, 218962, Note_on_c, 0, 82, 70
2, 218985, Note_off_c, 0, 84, 64
2, 219009, Note_on_c, 0, 79, 78
2, 219027, Note_off_c, 0, 82, 64
2, 219056, Note_on_c, 0, 53, 58
2, 219062, Note_on_c, 0, 62, 63
2, 219062, Note_on_c, 0, 58, 55
2, 219068, Note_on_c, 0, 77, 84
2, 219068, Control_c, 0, 64, 0
2, 219085, Note_off_c, 0, 53, 64
2, 219085, Note_off_c, 0, 79, 64
2, 219086, Note_off_c, 0, 58, 64
2, 219087, Note_off_c, 0, 62, 64
2, 219091, Control_c, 0, 64, 127
2, 219186, Note_on_c, 0, 79, 65
2, 219198, Note_off_c, 0, 77, 64
2, 219212, Note_on_c, 0, 46, 71
2, 219220, Control_c, 0, 64, 0
2, 219226, Note_on_c, 0, 82, 80
2, 219237, Note_off_c, 0, 79, 64
2, 219256, Note_off_c, 0, 82, 64
2, 219257, Control_c, 0, 64, 127
2, 219299, Note_off_c, 0, 46, 64
2, 219343, Note_on_c, 0, 82, 70
2, 219373, Control_c, 0, 64, 0
2, 219386, Note_on_c, 0, 53, 59
2, 219389, Note_off_c, 0, 82, 64
2, 219389, Note_on_c, 0, 63, 55
2, 219395, Note_on_c, 0, 69, 70
2, 219396, Note_on_c, 0, 60, 52
2, 219428, Control_c, 0, 64, 127
2, 219433, Note_off_c, 0, 63, 64
2, 219433, Note_off_c, 0, 53, 64
2, 219436, Note_off_c, 0, 60, 64
2, 219540, Note_on_c, 0, 60, 59
2, 219546, Note_on_c, 0, 63, 50
2, 219549, Note_on_c, 0, 53, 44
2, 219574, Note_off_c, 0, 60, 64
2, 219577, Note_off_c, 0, 63, 64
2, 219584, Note_off_c, 0, 53, 64
2, 219629, Note_on_c, 0, 70, 65
2, 219650, Note_off_c, 0, 69, 64
2, 219654, Note_on_c, 0, 74, 68
2, 219677, Note_off_c, 0, 70, 64
2, 219697, Note_on_c, 0, 77, 92
2, 219701, Note_on_c, 0, 46, 70
2, 219701, Control_c, 0, 64, 0
2, 219716, Note_off_c, 0, 74, 64
2, 219727, Note_off_c, 0, 77, 64
2, 219749, Control_c, 0, 64, 127
2, 219788, Note_off_c, 0, 46, 64
2, 219820, Note_on_c, 0, 77, 74
2, 219858, Control_c, 0, 64, 0
2, 219864, Note_on_c, 0, 64, 83
2, 219867, Note_on_c, 0, 58, 48
2, 219869, Note_off_c, 0, 77, 64
2, 219873, Note_on_c, 0, 53, 29
2, 219879, Note_on_c, 0, 62, 27
2, 219915, Note_off_c, 0, 53, 64
2, 219916, Note_off_c, 0, 58, 64
2, 219916, Control_c, 0, 64, 127
2, 219922, Note_off_c, 0, 62, 64
2, 220021, Note_on_c, 0, 62, 48
2, 220027, Note_on_c, 0, 58, 48
2, 220030, Note_on_c, 0, 53, 41
2, 220052, Note_off_c, 0, 58, 64
2, 220053, Note_off_c, 0, 62, 64
2, 220057, Note_off_c, 0, 53, 64
2, 220181, Note_on_c, 0, 65, 78
2, 220188, Control_c, 0, 64, 0
2, 220195, Note_on_c, 0, 41, 76
2, 220220, Note_off_c, 0, 64, 64
2, 220240, Control_c, 0, 64, 127
2, 220270, Note_on_c, 0, 69, 65
2, 220282, Note_off_c, 0, 41, 64
2, 220318, Note_off_c, 0, 65, 64
2, 220346, Note_on_c, 0, 72, 45
2, 220358, Note_on_c, 0, 53, 52
2, 220362, Note_on_c, 0, 63, 66
2, 220364, Note_on_c, 0, 57, 52
2, 220400, Note_off_c, 0, 69, 64
2, 220416, Note_on_c, 0, 75, 70
2, 220417, Note_off_c, 0, 53, 64
2, 220423, Note_off_c, 0, 57, 64
2, 220433, Note_off_c, 0, 72, 64
2, 220444, Note_off_c, 0, 63, 64
2, 220513, Note_on_c, 0, 74, 67
2, 220522, Note_off_c, 0, 75, 64
2, 220528, Note_on_c, 0, 57, 57
2, 220531, Note_on_c, 0, 53, 57
2, 220537, Note_on_c, 0, 63, 55
2, 220549, Note_on_c, 0, 75, 70
2, 220560, Note_off_c, 0, 74, 64
2, 220576, Note_on_c, 0, 74, 57
2, 220581, Note_off_c, 0, 63, 64
2, 220583, Note_off_c, 0, 57, 64
2, 220597, Note_off_c, 0, 75, 64
2, 220597, Note_off_c, 0, 53, 64
2, 220649, Note_on_c, 0, 72, 67
2, 220665, Note_off_c, 0, 74, 64
2, 220755, Note_on_c, 0, 74, 70
2, 220769, Note_on_c, 0, 46, 63
2, 220786, Note_off_c, 0, 72, 64
2, 220793, Control_c, 0, 64, 0
2, 220836, Control_c, 0, 64, 127
2, 220906, Note_on_c, 0, 65, 67
2, 220964, Note_off_c, 0, 46, 64
2, 220975, Note_off_c, 0, 74, 64
2, 220977, Note_on_c, 0, 70, 70
2, 220998, Note_on_c, 0, 62, 46
2, 221002, Note_on_c, 0, 53, 48
2, 221013, Control_c, 0, 64, 0
2, 221022, Note_off_c, 0, 65, 64
2, 221045, Control_c, 0, 64, 127
2, 221068, Note_off_c, 0, 62, 64
2, 221078, Note_off_c, 0, 53, 64
2, 221264, Note_on_c, 0, 46, 58
2, 221295, Note_off_c, 0, 46, 64
2, 221298, Note_on_c, 0, 48, 58
2, 221308, Note_off_c, 0, 70, 64
2, 221334, Note_on_c, 0, 46, 72
2, 221341, Note_off_c, 0, 48, 64
2, 221359, Note_off_c, 0, 46, 64
2, 221364, Note_on_c, 0, 48, 62
2, 221399, Note_off_c, 0, 48, 64
2, 221402, Note_on_c, 0, 46, 65
2, 221426, Note_off_c, 0, 46, 64
2, 221434, Note_on_c, 0, 48, 53
2, 221460, Note_off_c, 0, 48, 64
2, 221461, Note_on_c, 0, 46, 58
2, 221488, Note_on_c, 0, 48, 50
2, 221492, Note_off_c, 0, 46, 64
2, 221513, Note_on_c, 0, 46, 52
2, 221521, Note_off_c, 0, 48, 64
2, 221543, Note_off_c, 0, 46, 64
2, 221552, Note_on_c, 0, 42, 46
2, 221559, Note_on_c, 0, 77, 70
2, 221565, Note_on_c, 0, 49, 42
2, 221568, Control_c, 0, 64, 0
2, 221585, Control_c, 0, 64, 0
2, 221625, Control_c, 0, 64, 127
2, 221640, Note_off_c, 0, 77, 64
2, 221670, Note_off_c, 0, 42, 64
2, 221686, Note_off_c, 0, 49, 64
2, 221724, Note_on_c, 0, 77, 71
2, 221759, Note_on_c, 0, 49, 57
2, 221765, Note_on_c, 0, 42, 63
2, 221775, Note_on_c, 0, 76, 67
2, 221785, Control_c, 0, 64, 0
2, 221790, Note_off_c, 0, 77, 64
2, 221824, Note_off_c, 0, 49, 64
2, 221830, Note_off_c, 0, 42, 64
2, 221830, Control_c, 0, 64, 127
2, 221948, Note_on_c, 0, 49, 57
2, 221954, Note_on_c, 0, 42, 55
2, 221961, Note_on_c, 0, 73, 66
2, 221988, Note_off_c, 0, 76, 64
2, 222009, Note_off_c, 0, 49, 64
2, 222011, Note_off_c, 0, 42, 64
2, 222056, Note_on_c, 0, 72, 55
2, 222067, Note_off_c, 0, 73, 64
2, 222132, Note_on_c, 0, 49, 45
2, 222135, Note_on_c, 0, 70, 66
2, 222140, Note_on_c, 0, 42, 36
2, 222148, Note_off_c, 0, 72, 64
2, 222149, Control_c, 0, 64, 0
2, 222171, Control_c, 0, 64, 127
2, 222200, Note_off_c, 0, 42, 64
2, 222216, Note_off_c, 0, 49, 64
2, 222248, Note_on_c, 0, 73, 52
2, 222288, Note_off_c, 0, 70, 64
2, 222309, Note_on_c, 0, 72, 50
2, 222320, Note_off_c, 0, 73, 64
2, 222334, Note_on_c, 0, 73, 62
2, 222337, Note_on_c, 0, 49, 44
2, 222343, Note_off_c, 0, 72, 64
2, 222343, Note_on_c, 0, 42, 46
2, 222365, Note_on_c, 0, 72, 62
2, 222367, Control_c, 0, 64, 0
2, 222373, Note_off_c, 0, 73, 64
2, 222381, Control_c, 0, 64, 127
2, 222412, Note_off_c, 0, 42, 64
2, 222419, Note_off_c, 0, 49, 64
2, 222543, Note_on_c, 0, 49, 45
2, 222547, Note_on_c, 0, 70, 74
2, 222550, Note_on_c, 0, 42, 55
2, 222557, Note_off_c, 0, 72, 64
2, 222614, Note_off_c, 0, 42, 64
2, 222620, Note_off_c, 0, 49, 64
2, 222637, Note_on_c, 0, 64, 61
2, 222646, Note_off_c, 0, 70, 64
2, 222727, Note_on_c, 0, 77, 72
2, 222732, Note_on_c, 0, 49, 48
2, 222743, Note_on_c, 0, 42, 35
2, 222747, Control_c, 0, 64, 0
2, 222766, Note_off_c, 0, 64, 64
2, 222790, Note_off_c, 0, 77, 64
2, 222793, Note_off_c, 0, 49, 64
2, 222794, Note_off_c, 0, 42, 64
2, 222794, Control_c, 0, 64, 127
2, 222864, Note_on_c, 0, 77, 65
2, 222901, Note_on_c, 0, 76, 72
2, 222905, Note_on_c, 0, 49, 59
2, 222909, Note_on_c, 0, 42, 50
2, 222917, Note_off_c, 0, 77, 64
2, 222934, Control_c, 0, 64, 0
2, 222959, Control_c, 0, 64, 127
2, 222965, Note_off_c, 0, 49, 64
2, 222969, Note_off_c, 0, 42, 64
2, 223079, Note_on_c, 0, 73, 55
2, 223088, Note_on_c, 0, 49, 62
2, 223094, Note_off_c, 0, 76, 64
2, 223097, Note_on_c, 0, 42, 33
2, 223140, Note_off_c, 0, 49, 64
2, 223144, Note_off_c, 0, 42, 64
2, 223171, Note_on_c, 0, 72, 70
2, 223190, Note_off_c, 0, 73, 64
2, 223260, Note_on_c, 0, 70, 67
2, 223266, Note_off_c, 0, 72, 64
2, 223267, Note_on_c, 0, 49, 57
2, 223273, Note_on_c, 0, 42, 46
2, 223319, Note_on_c, 0, 72, 72
2, 223329, Note_off_c, 0, 49, 64
2, 223332, Note_off_c, 0, 70, 64
2, 223334, Note_off_c, 0, 42, 64
2, 223385, Note_on_c, 0, 70, 62
2, 223408, Note_off_c, 0, 72, 64
2, 223445, Note_on_c, 0, 49, 57
2, 223450, Note_on_c, 0, 64, 66
2, 223450, Note_on_c, 0, 42, 46
2, 223454, Note_off_c, 0, 70, 64
2, 223457, Control_c, 0, 64, 0
2, 223488, Control_c, 0, 64, 127
2, 223506, Note_off_c, 0, 49, 64
2, 223509, Note_off_c, 0, 42, 64
2, 223625, Note_on_c, 0, 49, 53
2, 223628, Control_c, 0, 64, 0
2, 223634, Note_on_c, 0, 42, 44
2, 223657, Control_c, 0, 64, 127
2, 223689, Note_off_c, 0, 49, 64
2, 223696, Note_off_c, 0, 42, 64
2, 223810, Note_on_c, 0, 77, 66
2, 223815, Note_off_c, 0, 64, 64
2, 223816, Note_on_c, 0, 49, 53
2, 223816, Note_on_c, 0, 42, 52
2, 223879, Note_off_c, 0, 49, 64
2, 223886, Note_off_c, 0, 77, 64
2, 223893, Note_off_c, 0, 42, 64
2, 223954, Note_on_c, 0, 77, 53
2, 223993, Note_on_c, 0, 42, 45
2, 223994, Note_on_c, 0, 76, 65
2, 223994, Note_on_c, 0, 49, 46
2, 224017, Note_off_c, 0, 77, 64
2, 224020, Control_c, 0, 64, 0
2, 224036, Control_c, 0, 64, 127
2, 224062, Note_off_c, 0, 49, 64
2, 224067, Note_off_c, 0, 42, 64
2, 224171, Note_on_c, 0, 73, 70
2, 224175, Note_on_c, 0, 49, 57
2, 224180, Note_on_c, 0, 42, 45
2, 224196, Note_off_c, 0, 76, 64
2, 224242, Note_off_c, 0, 49, 64
2, 224249, Note_off_c, 0, 42, 64
2, 224272, Note_on_c, 0, 72, 53
2, 224306, Note_off_c, 0, 73, 64
2, 224347, Note_on_c, 0, 70, 70
2, 224350, Note_on_c, 0, 49, 57
2, 224361, Note_on_c, 0, 42, 42
2, 224380, Note_off_c, 0, 72, 64
2, 224421, Note_off_c, 0, 49, 64
2, 224422, Note_off_c, 0, 42, 64
2, 224460, Note_on_c, 0, 73, 45
2, 224498, Note_off_c, 0, 70, 64
2, 224534, Note_on_c, 0, 42, 66
2, 224536, Note_on_c, 0, 72, 48
2, 224542, Note_off_c, 0, 73, 64
2, 224545, Note_on_c, 0, 49, 42
2, 224562, Note_on_c, 0, 42, 50
2, 224567, Note_on_c, 0, 73, 50
2, 224574, Note_on_c, 0, 49, 40
2, 224577, Note_off_c, 0, 72, 64
2, 224602, Note_on_c, 0, 72, 52
2, 224604, Note_off_c, 0, 49, 64
2, 224610, Note_off_c, 0, 73, 64
2, 224612, Note_off_c, 0, 42, 64
2, 224631, Note_on_c, 0, 73, 55
2, 224635, Note_off_c, 0, 42, 64
2, 224641, Note_off_c, 0, 72, 64
2, 224641, Note_off_c, 0, 49, 64
2, 224657, Note_on_c, 0, 72, 57
2, 224675, Note_off_c, 0, 73, 64
2, 224706, Note_on_c, 0, 73, 44
2, 224715, Note_off_c, 0, 72, 64
2, 224733, Note_on_c, 0, 70, 65
2, 224742, Note_off_c, 0, 73, 64
2, 224743, Note_on_c, 0, 49, 59
2, 224743, Note_on_c, 0, 42, 52
2, 224773, Control_c, 0, 64, 0
2, 224795, Control_c, 0, 64, 127
2, 224814, Note_off_c, 0, 49, 64
2, 224815, Note_off_c, 0, 42, 64
2, 224844, Note_on_c, 0, 64, 67
2, 224876, Note_off_c, 0, 70, 64
2, 224933, Note_on_c, 0, 77, 67
2, 224941, Note_on_c, 0, 42, 53
2, 224943, Note_on_c, 0, 49, 58
2, 224953, Control_c, 0, 64, 0
2, 224973, Note_off_c, 0, 64, 64
2, 224977, Control_c, 0, 64, 127
2, 224996, Note_off_c, 0, 49, 64
2, 224996, Note_off_c, 0, 77, 64
2, 224998, Note_off_c, 0, 42, 64
2, 225080, Note_on_c, 0, 77, 52
2, 225126, Note_on_c, 0, 76, 66
2, 225126, Note_on_c, 0, 49, 79
2, 225126, Note_on_c, 0, 42, 67
2, 225140, Note_off_c, 0, 77, 64
2, 225157, Control_c, 0, 64, 0
2, 225172, Control_c, 0, 64, 127
2, 225227, Note_off_c, 0, 49, 64
2, 225246, Note_off_c, 0, 42, 64
2, 225322, Note_on_c, 0, 42, 45
2, 225328, Note_on_c, 0, 49, 52
2, 225331, Note_on_c, 0, 73, 70
2, 225366, Note_off_c, 0, 76, 64
2, 225424, Note_off_c, 0, 42, 64
2, 225428, Note_off_c, 0, 49, 64
2, 225484, Note_on_c, 0, 72, 70
2, 225494, Note_off_c, 0, 73, 64
2, 225575, Note_on_c, 0, 41, 63
2, 225575, Note_on_c, 0, 49, 53
2, 225575, Note_on_c, 0, 70, 76
2, 225590, Note_off_c, 0, 72, 64
2, 225623, Control_c, 0, 64, 0
2, 225646, Control_c, 0, 64, 127
2, 225709, Note_on_c, 0, 72, 63
2, 225732, Note_off_c, 0, 70, 64
2, 225784, Note_on_c, 0, 70, 83
2, 225813, Note_off_c, 0, 72, 64
2, 225876, Note_off_c, 0, 49, 64
2, 225900, Note_on_c, 0, 69, 71
2, 225908, Note_on_c, 0, 48, 66
2, 225911, Note_off_c, 0, 70, 64
2, 225956, Control_c, 0, 64, 0
2, 226036, Control_c, 0, 64, 127
2, 226069, Note_off_c, 0, 41, 64
2, 226342, Note_on_c, 0, 67, 46
2, 226352, Note_off_c, 0, 69, 64
2, 226426, Note_off_c, 0, 48, 64
2, 226429, Control_c, 0, 64, 0
2, 226436, Note_on_c, 0, 41, 63
2, 226441, Note_on_c, 0, 65, 67
2, 226468, Note_off_c, 0, 67, 64
2, 226481, Control_c, 0, 64, 127
2, 226505, Note_off_c, 0, 65, 64
2, 226523, Note_off_c, 0, 41, 64
2, 226526, Control_c, 0, 64, 0
2, 226586, Note_on_c, 0, 65, 68
2, 226622, Note_on_c, 0, 67, 66
2, 226622, Note_on_c, 0, 53, 33
2, 226629, Note_on_c, 0, 63, 31
2, 226638, Note_on_c, 0, 60, 50
2, 226638, Control_c, 0, 64, 0
2, 226658, Note_off_c, 0, 65, 64
2, 226663, Control_c, 0, 64, 127
2, 226668, Note_off_c, 0, 53, 64
2, 226677, Note_off_c, 0, 60, 64
2, 226677, Note_off_c, 0, 63, 64
2, 226790, Control_c, 0, 64, 0
2, 226796, Note_on_c, 0, 60, 49
2, 226798, Note_on_c, 0, 69, 78
2, 226798, Note_on_c, 0, 63, 49
2, 226798, Note_on_c, 0, 53, 42
2, 226819, Note_off_c, 0, 67, 64
2, 226823, Control_c, 0, 64, 127
2, 226829, Note_off_c, 0, 60, 64
2, 226831, Note_off_c, 0, 63, 64
2, 226838, Note_off_c, 0, 53, 64
2, 226957, Note_on_c, 0, 70, 76
2, 226960, Note_on_c, 0, 46, 72
2, 226962, Control_c, 0, 64, 0
2, 226992, Note_off_c, 0, 69, 64
2, 226996, Control_c, 0, 64, 127
2, 227047, Note_off_c, 0, 46, 64
2, 227070, Note_on_c, 0, 72, 70
2, 227078, Note_off_c, 0, 70, 64
2, 227114, Note_on_c, 0, 58, 57
2, 227116, Note_on_c, 0, 62, 41
2, 227116, Note_on_c, 0, 53, 62
2, 227120, Note_on_c, 0, 74, 87
2, 227130, Control_c, 0, 64, 0
2, 227143, Note_off_c, 0, 72, 64
2, 227156, Note_off_c, 0, 53, 64
2, 227159, Note_off_c, 0, 62, 64
2, 227161, Note_off_c, 0, 58, 64
2, 227166, Control_c, 0, 64, 127
2, 227279, Note_on_c, 0, 46, 75
2, 227282, Note_on_c, 0, 75, 78
2, 227290, Control_c, 0, 64, 0
2, 227306, Note_off_c, 0, 74, 64
2, 227315, Control_c, 0, 64, 127
2, 227366, Note_off_c, 0, 46, 64
2, 227381, Note_on_c, 0, 77, 71
2, 227401, Note_off_c, 0, 75, 64
2, 227441, Note_on_c, 0, 39, 78
2, 227441, Note_on_c, 0, 51, 83
2, 227446, Control_c, 0, 64, 0
2, 227451, Note_on_c, 0, 79, 83
2, 227472, Control_c, 0, 64, 127
2, 227522, Note_off_c, 0, 77, 64
2, 227556, Note_on_c, 0, 55, 41
2, 227559, Note_on_c, 0, 81, 72
2, 227576, Note_off_c, 0, 79, 64
2, 227604, Note_on_c, 0, 58, 41
2, 227652, Note_on_c, 0, 63, 78
2, 227666, Note_on_c, 0, 84, 87
2, 227681, Note_off_c, 0, 81, 64
2, 227681, Note_off_c, 0, 51, 64
2, 227681, Note_off_c, 0, 39, 64
2, 227697, Note_off_c, 0, 55, 64
2, 227700, Note_on_c, 0, 67, 37
2, 227704, Note_on_c, 0, 82, 87
2, 227724, Note_off_c, 0, 84, 64
2, 227742, Note_on_c, 0, 84, 70
2, 227745, Note_off_c, 0, 58, 64
2, 227749, Note_off_c, 0, 82, 64
2, 227757, Note_off_c, 0, 63, 64
2, 227777, Note_on_c, 0, 82, 83
2, 227786, Note_off_c, 0, 67, 64
2, 227793, Note_off_c, 0, 84, 64
2, 227798, Note_on_c, 0, 84, 63
2, 227808, Note_off_c, 0, 82, 64
2, 227827, Note_on_c, 0, 82, 79
2, 227844, Note_off_c, 0, 84, 64
2, 227878, Note_on_c, 0, 81, 83
2, 227886, Note_off_c, 0, 82, 64
2, 227935, Note_on_c, 0, 79, 80
2, 227961, Note_off_c, 0, 81, 64
2, 228008, Note_on_c, 0, 77, 62
2, 228020, Control_c, 0, 64, 0
2, 228028, Note_off_c, 0, 79, 64
2, 228035, Note_on_c, 0, 46, 52
2, 228038, Note_on_c, 0, 82, 75
2, 228049, Note_off_c, 0, 77, 64
2, 228073, Note_off_c, 0, 82, 64
2, 228082, Control_c, 0, 64, 127
2, 228122, Note_off_c, 0, 46, 64
2, 228158, Note_on_c, 0, 82, 57
2, 228194, Note_on_c, 0, 58, 52
2, 228194, Note_on_c, 0, 53, 23
2, 228196, Control_c, 0, 64, 0
2, 228206, Note_on_c, 0, 74, 71
2, 228206, Note_on_c, 0, 62, 53
2, 228217, Note_off_c, 0, 82, 64
2, 228229, Control_c, 0, 64, 127
2, 228240, Note_off_c, 0, 58, 64
2, 228247, Note_off_c, 0, 62, 64
2, 228258, Note_off_c, 0, 53, 64
2, 228353, Note_on_c, 0, 62, 32
2, 228356, Note_on_c, 0, 58, 55
2, 228359, Note_on_c, 0, 53, 45
2, 228388, Note_off_c, 0, 62, 64
2, 228393, Note_off_c, 0, 58, 64
2, 228398, Note_off_c, 0, 53, 64
2, 228472, Note_on_c, 0, 75, 50
2, 228492, Note_off_c, 0, 74, 64
2, 228500, Note_on_c, 0, 41, 61
2, 228507, Note_on_c, 0, 79, 66
2, 228515, Control_c, 0, 64, 0
2, 228534, Note_off_c, 0, 75, 64
2, 228535, Note_off_c, 0, 79, 64
2, 228552, Control_c, 0, 64, 127
2, 228587, Note_off_c, 0, 41, 64
2, 228632, Note_on_c, 0, 79, 49
2, 228659, Control_c, 0, 64, 0
2, 228664, Note_on_c, 0, 53, 41
2, 228666, Note_on_c, 0, 69, 63
2, 228672, Note_on_c, 0, 60, 44
2, 228674, Note_on_c, 0, 63, 63
2, 228686, Note_off_c, 0, 79, 64
2, 228705, Note_off_c, 0, 60, 64
2, 228710, Note_off_c, 0, 53, 64
2, 228717, Note_off_c, 0, 63, 64
2, 228717, Control_c, 0, 64, 127
2, 228825, Note_on_c, 0, 63, 46
2, 228830, Note_on_c, 0, 60, 52
2, 228830, Note_on_c, 0, 53, 52
2, 228857, Note_off_c, 0, 60, 64
2, 228863, Note_off_c, 0, 53, 64
2, 228870, Note_off_c, 0, 63, 64
2, 228928, Note_on_c, 0, 70, 50
2, 228952, Note_off_c, 0, 69, 64
2, 228973, Note_on_c, 0, 74, 62
2, 228973, Note_on_c, 0, 46, 61
2, 228984, Control_c, 0, 64, 0
2, 228996, Note_off_c, 0, 70, 64
2, 229003, Note_off_c, 0, 74, 64
2, 229019, Control_c, 0, 64, 127
2, 229060, Note_off_c, 0, 46, 64
2, 229100, Note_on_c, 0, 74, 57
2, 229116, Control_c, 0, 64, 0
2, 229134, Note_on_c, 0, 58, 24
2, 229134, Note_on_c, 0, 53, 33
2, 229135, Note_on_c, 0, 64, 65
2, 229136, Note_on_c, 0, 62, 26
2, 229143, Note_off_c, 0, 74, 64
2, 229170, Control_c, 0, 64, 127
2, 229187, Note_off_c, 0, 58, 64
2, 229191, Note_off_c, 0, 62, 64
2, 229192, Note_off_c, 0, 53, 64
2, 229292, Note_on_c, 0, 53, 46
2, 229293, Note_on_c, 0, 62, 44
2, 229298, Note_on_c, 0, 58, 46
2, 229333, Note_off_c, 0, 53, 64
2, 229339, Note_off_c, 0, 58, 64
2, 229341, Note_off_c, 0, 62, 64
2, 229446, Note_on_c, 0, 65, 72
2, 229446, Control_c, 0, 64, 0
2, 229452, Note_on_c, 0, 41, 42
2, 229483, Control_c, 0, 64, 127
2, 229499, Note_off_c, 0, 64, 64
2, 229539, Note_off_c, 0, 41, 64
2, 229540, Note_on_c, 0, 69, 71
2, 229570, Note_off_c, 0, 65, 64
2, 229589, Note_on_c, 0, 63, 58
2, 229596, Note_on_c, 0, 72, 67
2, 229596, Note_on_c, 0, 53, 46
2, 229623, Note_off_c, 0, 53, 64
2, 229646, Note_off_c, 0, 69, 64
2, 229647, Note_off_c, 0, 63, 64
2, 229676, Note_on_c, 0, 75, 48
2, 229724, Note_on_c, 0, 79, 72
2, 229733, Note_off_c, 0, 72, 64
2, 229736, Note_on_c, 0, 53, 35
2, 229740, Note_on_c, 0, 63, 46
2, 229740, Note_on_c, 0, 57, 42
2, 229755, Note_off_c, 0, 75, 64
2, 229763, Note_off_c, 0, 57, 64
2, 229768, Note_off_c, 0, 63, 64
2, 229770, Note_off_c, 0, 53, 64
2, 229813, Note_on_c, 0, 77, 84
2, 229829, Note_off_c, 0, 79, 64
2, 229842, Note_off_c, 0, 77, 64
2, 229880, Note_on_c, 0, 77, 71
2, 229909, Note_on_c, 0, 46, 74
2, 229911, Control_c, 0, 64, 0
2, 229919, Note_on_c, 0, 86, 67
2, 229942, Control_c, 0, 64, 127
2, 229947, Note_off_c, 0, 77, 64
2, 229996, Note_off_c, 0, 46, 64
2, 230002, Note_on_c, 0, 84, 76
2, 230009, Note_off_c, 0, 86, 64
2, 230074, Note_on_c, 0, 82, 84
2, 230078, Note_on_c, 0, 58, 52
2, 230079, Note_on_c, 0, 58, 22
2, 230079, Note_on_c, 0, 53, 20
2, 230080, Note_off_c, 0, 84, 64
2, 230080, Note_on_c, 0, 62, 44
2, 230081, Note_on_c, 0, 62, 52
2, 230081, Note_on_c, 0, 53, 29
2, 230094, Control_c, 0, 64, 0
2, 230104, Note_on_c, 0, 84, 78
2, 230110, Note_off_c, 0, 58, 64
2, 230113, Note_off_c, 0, 62, 64
2, 230113, Control_c, 0, 64, 127
2, 230117, Control_c, 0, 64, 127
2, 230120, Note_off_c, 0, 53, 64
2, 230124, Note_off_c, 0, 62, 64
2, 230124, Note_off_c, 0, 58, 64
2, 230126, Note_off_c, 0, 82, 64
2, 230130, Note_off_c, 0, 53, 64
2, 230138, Note_on_c, 0, 82, 70
2, 230161, Note_off_c, 0, 84, 64
2, 230183, Note_on_c, 0, 79, 65
2, 230203, Note_off_c, 0, 82, 64
2, 230238, Note_on_c, 0, 62, 55
2, 230238, Note_on_c, 0, 53, 49
2, 230240, Note_on_c, 0, 58, 52
2, 230246, Note_on_c, 0, 77, 83
2, 230248, Control_c, 0, 64, 0
2, 230265, Note_off_c, 0, 79, 64
2, 230265, Control_c, 0, 64, 127
2, 230279, Note_off_c, 0, 62, 64
2, 230281, Note_off_c, 0, 58, 64
2, 230287, Note_off_c, 0, 53, 64
2, 230359, Note_on_c, 0, 79, 57
2, 230367, Note_off_c, 0, 77, 64
2, 230388, Note_on_c, 0, 46, 78
2, 230390, Note_on_c, 0, 82, 83
2, 230398, Control_c, 0, 64, 0
2, 230413, Note_off_c, 0, 79, 64
2, 230418, Note_off_c, 0, 82, 64
2, 230426, Control_c, 0, 64, 127
2, 230475, Note_off_c, 0, 46, 64
2, 230504, Note_on_c, 0, 82, 66
2, 230555, Control_c, 0, 64, 0
2, 230563, Note_on_c, 0, 69, 75
2, 230568, Note_on_c, 0, 63, 48
2, 230571, Note_off_c, 0, 82, 64
2, 230572, Note_on_c, 0, 53, 29
2, 230583, Note_on_c, 0, 60, 45
2, 230598, Control_c, 0, 64, 127
2, 230614, Note_off_c, 0, 60, 64
2, 230622, Note_off_c, 0, 53, 64
2, 230622, Note_off_c, 0, 63, 64
2, 230730, Note_on_c, 0, 53, 45
2, 230732, Note_on_c, 0, 60, 59
2, 230737, Note_on_c, 0, 63, 36
2, 230755, Note_off_c, 0, 60, 64
2, 230758, Note_off_c, 0, 63, 64
2, 230765, Note_off_c, 0, 53, 64
2, 230820, Note_on_c, 0, 70, 54
2, 230838, Note_off_c, 0, 69, 64
2, 230840, Note_on_c, 0, 74, 67
2, 230863, Note_off_c, 0, 70, 64
2, 230879, Note_on_c, 0, 77, 78
2, 230883, Note_on_c, 0, 46, 70
2, 230893, Control_c, 0, 64, 0
2, 230908, Note_off_c, 0, 74, 64
2, 230913, Note_off_c, 0, 77, 64
2, 230932, Control_c, 0, 64, 127
2, 230970, Note_off_c, 0, 46, 64
2, 230998, Note_on_c, 0, 77, 72
2, 231040, Control_c, 0, 64, 0
2, 231048, Note_on_c, 0, 64, 80
2, 231048, Note_on_c, 0, 53, 36
2, 231053, Note_off_c, 0, 77, 64
2, 231053, Note_on_c, 0, 58, 45
2, 231054, Note_on_c, 0, 62, 53
2, 231073, Control_c, 0, 64, 127
2, 231097, Note_off_c, 0, 58, 64
2, 231097, Note_off_c, 0, 53, 64
2, 231099, Note_off_c, 0, 62, 64
2, 231210, Note_on_c, 0, 62, 48
2, 231212, Note_on_c, 0, 58, 29
2, 231213, Note_on_c, 0, 53, 29
2, 231240, Note_off_c, 0, 58, 64
2, 231244, Note_off_c, 0, 53, 64
2, 231254, Note_off_c, 0, 62, 64
2, 231363, Note_on_c, 0, 65, 78
2, 231365, Note_on_c, 0, 41, 55
2, 231375, Note_off_c, 0, 64, 64
2, 231377, Control_c, 0, 64, 0
2, 231410, Control_c, 0, 64, 127
2, 231452, Note_off_c, 0, 41, 64
2, 231460, Note_on_c, 0, 69, 67
2, 231493, Note_off_c, 0, 65, 64
2, 231529, Note_on_c, 0, 72, 46
2, 231532, Note_on_c, 0, 53, 44
2, 231533, Note_on_c, 0, 63, 65
2, 231569, Note_off_c, 0, 53, 64
2, 231583, Note_off_c, 0, 63, 64
2, 231603, Note_off_c, 0, 69, 64
2, 231606, Note_on_c, 0, 75, 72
2, 231639, Note_off_c, 0, 72, 64
2, 231684, Note_on_c, 0, 63, 57
2, 231685, Note_on_c, 0, 53, 48
2, 231692, Note_on_c, 0, 57, 36
2, 231701, Note_on_c, 0, 74, 63
2, 231712, Note_off_c, 0, 75, 64
2, 231717, Note_off_c, 0, 63, 64
2, 231720, Note_off_c, 0, 57, 64
2, 231720, Note_off_c, 0, 53, 64
2, 231727, Note_on_c, 0, 75, 83
2, 231740, Note_off_c, 0, 74, 64
2, 231763, Note_on_c, 0, 74, 68
2, 231770, Note_off_c, 0, 75, 64
2, 231814, Note_on_c, 0, 72, 72
2, 231834, Note_off_c, 0, 74, 64
2, 231887, Note_on_c, 0, 46, 66
2, 231893, Note_on_c, 0, 74, 84
2, 231900, Control_c, 0, 64, 0
2, 231905, Note_off_c, 0, 72, 64
2, 231945, Control_c, 0, 64, 127
2, 232020, Note_on_c, 0, 65, 46
2, 232077, Note_on_c, 0, 70, 75
2, 232082, Note_off_c, 0, 46, 64
2, 232084, Control_c, 0, 64, 0
2, 232091, Note_off_c, 0, 74, 64
2, 232095, Note_on_c, 0, 62, 57
2, 232096, Note_on_c, 0, 58, 36
2, 232096, Note_on_c, 0, 53, 36
2, 232120, Control_c, 0, 64, 127
2, 232144, Note_off_c, 0, 53, 64
2, 232146, Note_off_c, 0, 62, 64
2, 232151, Note_off_c, 0, 58, 64
2, 232320, Note_on_c, 0, 46, 49
2, 232351, Note_off_c, 0, 46, 64
2, 232354, Note_on_c, 0, 48, 48
2, 232355, Note_off_c, 0, 65, 64
2, 232386, Note_off_c, 0, 70, 64
2, 232390, Note_on_c, 0, 46, 58
2, 232397, Note_off_c, 0, 48, 64
2, 232415, Note_off_c, 0, 46, 64
2, 232420, Note_on_c, 0, 48, 49
2, 232455, Note_off_c, 0, 48, 64
2, 232458, Note_on_c, 0, 46, 49
2, 232482, Note_off_c, 0, 46, 64
2, 232490, Note_on_c, 0, 48, 40
2, 232516, Note_off_c, 0, 48, 64
2, 232517, Note_on_c, 0, 46, 42
2, 232544, Note_on_c, 0, 48, 36
2, 232548, Note_off_c, 0, 46, 64
2, 232569, Note_on_c, 0, 46, 36
2, 232577, Note_off_c, 0, 48, 64
2, 232599, Note_off_c, 0, 46, 64
2, 232614, Note_on_c, 0, 42, 53
2, 232619, Note_on_c, 0, 49, 57
2, 232624, Control_c, 0, 64, 0
2, 232628, Note_on_c, 0, 77, 57
2, 232657, Control_c, 0, 64, 0
2, 232699, Control_c, 0, 64, 127
2, 232704, Note_off_c, 0, 77, 64
2, 232778, Note_on_c, 0, 77, 53
2, 232784, Note_off_c, 0, 42, 64
2, 232791, Note_off_c, 0, 49, 64
2, 232831, Note_on_c, 0, 76, 54
2, 232840, Note_on_c, 0, 49, 44
2, 232846, Control_c, 0, 64, 0
2, 232852, Note_off_c, 0, 77, 64
2, 232853, Note_on_c, 0, 42, 40
2, 232882, Control_c, 0, 64, 127
2, 232915, Note_off_c, 0, 42, 64
2, 232920, Note_off_c, 0, 49, 64
2, 233004, Note_on_c, 0, 73, 54
2, 233010, Note_on_c, 0, 49, 37
2, 233018, Note_on_c, 0, 42, 31
2, 233024, Control_c, 0, 64, 0
2, 233029, Note_off_c, 0, 76, 64
2, 233040, Control_c, 0, 64, 127
2, 233070, Note_off_c, 0, 42, 64
2, 233070, Note_off_c, 0, 49, 64
2, 233096, Note_on_c, 0, 72, 52
2, 233098, Note_off_c, 0, 73, 64
2, 233178, Note_on_c, 0, 70, 52
2, 233184, Note_on_c, 0, 49, 46
2, 233193, Note_on_c, 0, 42, 37
2, 233200, Note_off_c, 0, 72, 64
2, 233260, Note_off_c, 0, 42, 64
2, 233270, Note_on_c, 0, 73, 52
2, 233274, Note_off_c, 0, 49, 64
2, 233282, Note_off_c, 0, 70, 64
2, 233317, Note_on_c, 0, 72, 40
2, 233330, Note_off_c, 0, 73, 64
2, 233342, Note_on_c, 0, 73, 49
2, 233351, Note_off_c, 0, 72, 64
2, 233373, Note_on_c, 0, 72, 49
2, 233375, Control_c, 0, 64, 0
2, 233381, Note_off_c, 0, 73, 64
2, 233382, Note_on_c, 0, 42, 33
2, 233383, Note_on_c, 0, 49, 36
2, 233389, Control_c, 0, 64, 127
2, 233466, Note_off_c, 0, 42, 64
2, 233471, Note_off_c, 0, 49, 64
2, 233570, Note_on_c, 0, 70, 57
2, 233573, Note_on_c, 0, 49, 36
2, 233577, Note_off_c, 0, 72, 64
2, 233579, Note_on_c, 0, 42, 44
2, 233597, Control_c, 0, 64, 0
2, 233622, Control_c, 0, 64, 127
2, 233646, Note_off_c, 0, 42, 64
2, 233656, Note_on_c, 0, 64, 42
2, 233664, Note_off_c, 0, 49, 64
2, 233684, Note_off_c, 0, 70, 64
2, 233753, Note_on_c, 0, 49, 45
2, 233755, Note_on_c, 0, 77, 52
2, 233759, Note_on_c, 0, 42, 45
2, 233776, Control_c, 0, 64, 0
2, 233780, Note_off_c, 0, 64, 64
2, 233803, Control_c, 0, 64, 127
2, 233829, Note_off_c, 0, 77, 64
2, 233834, Note_off_c, 0, 42, 64
2, 233841, Note_off_c, 0, 49, 64
2, 233888, Note_on_c, 0, 77, 41
2, 233914, Note_on_c, 0, 76, 59
2, 233920, Note_on_c, 0, 49, 50
2, 233928, Note_on_c, 0, 42, 41
2, 233933, Note_off_c, 0, 77, 64
2, 233952, Control_c, 0, 64, 0
2, 233982, Control_c, 0, 64, 127
2, 233995, Note_off_c, 0, 49, 64
2, 234005, Note_off_c, 0, 42, 64
2, 234093, Note_on_c, 0, 73, 55
2, 234099, Note_on_c, 0, 42, 52
2, 234102, Note_on_c, 0, 49, 50
2, 234115, Note_off_c, 0, 76, 64
2, 234159, Note_off_c, 0, 49, 64
2, 234174, Note_off_c, 0, 42, 64
2, 234174, Note_on_c, 0, 72, 53
2, 234207, Note_off_c, 0, 73, 64
2, 234275, Note_on_c, 0, 49, 50
2, 234276, Note_on_c, 0, 70, 48
2, 234276, Note_on_c, 0, 42, 41
2, 234293, Control_c, 0, 64, 0
2, 234311, Note_off_c, 0, 72, 64
2, 234326, Control_c, 0, 64, 127
2, 234332, Note_on_c, 0, 72, 46
2, 234342, Note_off_c, 0, 49, 64
2, 234348, Note_off_c, 0, 42, 64
2, 234351, Note_off_c, 0, 70, 64
2, 234379, Note_on_c, 0, 70, 66
2, 234394, Note_off_c, 0, 72, 64
2, 234443, Control_c, 0, 64, 0
2, 234444, Note_on_c, 0, 64, 52
2, 234451, Note_on_c, 0, 49, 49
2, 234453, Note_off_c, 0, 70, 64
2, 234453, Note_on_c, 0, 42, 52
2, 234484, Control_c, 0, 64, 127
2, 234510, Note_off_c, 0, 49, 64
2, 234523, Note_off_c, 0, 42, 64
2, 234609, Note_on_c, 0, 49, 48
2, 234611, Note_on_c, 0, 42, 49
2, 234624, Control_c, 0, 64, 0
2, 234650, Control_c, 0, 64, 127
2, 234683, Note_off_c, 0, 49, 64
2, 234690, Note_off_c, 0, 42, 64
2, 234784, Note_on_c, 0, 77, 55
2, 234791, Note_on_c, 0, 49, 46
2, 234791, Note_on_c, 0, 42, 44
2, 234805, Note_off_c, 0, 64, 64
2, 234842, Note_off_c, 0, 77, 64
2, 234852, Note_off_c, 0, 49, 64
2, 234856, Note_off_c, 0, 42, 64
2, 234911, Note_on_c, 0, 77, 39
2, 234947, Note_on_c, 0, 76, 57
2, 234948, Note_on_c, 0, 49, 45
2, 234956, Note_on_c, 0, 42, 36
2, 234963, Note_off_c, 0, 77, 64
2, 234991, Control_c, 0, 64, 0
2, 235002, Control_c, 0, 64, 127
2, 235014, Note_off_c, 0, 49, 64
2, 235016, Note_off_c, 0, 42, 64
2, 235118, Note_on_c, 0, 73, 49
2, 235119, Note_on_c, 0, 49, 42
2, 235129, Note_on_c, 0, 42, 35
2, 235138, Note_off_c, 0, 76, 64
2, 235195, Note_off_c, 0, 49, 64
2, 235197, Note_off_c, 0, 42, 64
2, 235208, Note_on_c, 0, 72, 50
2, 235232, Note_off_c, 0, 73, 64
2, 235288, Note_on_c, 0, 49, 42
2, 235293, Note_on_c, 0, 70, 40
2, 235296, Note_on_c, 0, 42, 32
2, 235316, Note_off_c, 0, 72, 64
2, 235354, Note_off_c, 0, 49, 64
2, 235357, Note_off_c, 0, 42, 64
2, 235367, Note_on_c, 0, 73, 44
2, 235386, Note_off_c, 0, 70, 64
2, 235448, Note_on_c, 0, 72, 45
2, 235468, Note_off_c, 0, 73, 64
2, 235474, Note_on_c, 0, 42, 40
2, 235479, Note_on_c, 0, 73, 46
2, 235486, Note_on_c, 0, 49, 31
2, 235489, Note_off_c, 0, 72, 64
2, 235514, Note_on_c, 0, 72, 49
2, 235522, Note_off_c, 0, 73, 64
2, 235543, Note_on_c, 0, 73, 52
2, 235547, Note_off_c, 0, 42, 64
2, 235553, Note_off_c, 0, 72, 64
2, 235553, Note_off_c, 0, 49, 64
2, 235569, Note_on_c, 0, 72, 53
2, 235587, Note_off_c, 0, 73, 64
2, 235618, Note_on_c, 0, 73, 41
2, 235627, Note_off_c, 0, 72, 64
2, 235668, Note_on_c, 0, 49, 44
2, 235672, Note_on_c, 0, 70, 45
2, 235676, Note_on_c, 0, 42, 48
2, 235682, Note_off_c, 0, 73, 64
2, 235696, Control_c, 0, 64, 0
2, 235728, Control_c, 0, 64, 127
2, 235741, Note_off_c, 0, 49, 64
2, 235748, Note_off_c, 0, 42, 64
2, 235765, Note_on_c, 0, 64, 46
2, 235792, Note_off_c, 0, 70, 64
2, 235857, Note_on_c, 0, 77, 54
2, 235863, Note_on_c, 0, 49, 49
2, 235867, Note_on_c, 0, 42, 45
2, 235871, Control_c, 0, 64, 0
2, 235887, Control_c, 0, 64, 127
2, 235898, Note_off_c, 0, 64, 64
2, 235917, Note_off_c, 0, 77, 64
2, 235922, Note_off_c, 0, 49, 64
2, 235929, Note_off_c, 0, 42, 64
2, 236001, Note_on_c, 0, 77, 45
2, 236044, Note_on_c, 0, 49, 65
2, 236045, Note_on_c, 0, 42, 65
2, 236050, Note_on_c, 0, 76, 57
2, 236059, Note_off_c, 0, 77, 64
2, 236161, Note_off_c, 0, 49, 64
2, 236170, Note_off_c, 0, 42, 64
2, 236253, Note_on_c, 0, 42, 40
2, 236257, Note_on_c, 0, 73, 58
2, 236261, Note_on_c, 0, 49, 36
2, 236293, Note_off_c, 0, 76, 64
2, 236394, Note_off_c, 0, 42, 64
2, 236400, Note_off_c, 0, 49, 64
2, 236406, Note_on_c, 0, 72, 52
2, 236440, Note_off_c, 0, 73, 64
2, 236473, Note_on_c, 0, 70, 55
2, 236478, Note_on_c, 0, 49, 44
2, 236482, Note_on_c, 0, 41, 37
2, 236492, Note_off_c, 0, 72, 64
2, 236505, Control_c, 0, 64, 0
2, 236535, Control_c, 0, 64, 127
2, 236567, Note_on_c, 0, 72, 54
2, 236572, Note_off_c, 0, 70, 64
2, 236636, Note_on_c, 0, 70, 41
2, 236656, Note_off_c, 0, 72, 64
2, 236711, Note_off_c, 0, 49, 64
2, 236752, Note_on_c, 0, 69, 54
2, 236767, Note_on_c, 0, 48, 46
2, 236790, Control_c, 0, 64, 0
2, 236796, Note_off_c, 0, 70, 64
2, 236901, Control_c, 0, 64, 127
2, 237027, Note_off_c, 0, 41, 64
2, 237205, Note_on_c, 0, 67, 58
2, 237227, Note_off_c, 0, 69, 64
2, 237369, Note_on_c, 0, 65, 57
2, 237370, Control_c, 0, 64, 0
2, 237376, Note_on_c, 0, 41, 57
2, 237382, Note_off_c, 0, 67, 64
2, 237389, Note_off_c, 0, 48, 64
2, 237408, Note_off_c, 0, 41, 64
2, 237410, Control_c, 0, 64, 127
2, 237469, Note_off_c, 0, 65, 64
2, 237548, Note_on_c, 0, 65, 54
2, 237576, Note_on_c, 0, 67, 54
2, 237587, Note_on_c, 0, 63, 57
2, 237593, Note_on_c, 0, 53, 22
2, 237595, Note_on_c, 0, 60, 52
2, 237595, Control_c, 0, 64, 0
2, 237616, Note_off_c, 0, 65, 64
2, 237626, Note_off_c, 0, 63, 64
2, 237630, Note_off_c, 0, 53, 64
2, 237632, Note_off_c, 0, 60, 64
2, 237638, Control_c, 0, 64, 127
2, 237756, Note_on_c, 0, 69, 62
2, 237756, Control_c, 0, 64, 0
2, 237762, Note_on_c, 0, 63, 54
2, 237766, Note_on_c, 0, 53, 45
2, 237768, Note_on_c, 0, 60, 36
2, 237776, Note_off_c, 0, 67, 64
2, 237780, Control_c, 0, 64, 127
2, 237797, Note_off_c, 0, 60, 64
2, 237797, Note_off_c, 0, 53, 64
2, 237801, Note_off_c, 0, 63, 64
2, 237909, Note_on_c, 0, 70, 62
2, 237911, Note_on_c, 0, 46, 54
2, 237919, Control_c, 0, 64, 0
2, 237940, Note_off_c, 0, 69, 64
2, 237943, Control_c, 0, 64, 127
2, 237958, Note_off_c, 0, 46, 64
2, 238020, Note_on_c, 0, 72, 65
2, 238023, Note_off_c, 0, 70, 64
2, 238060, Note_on_c, 0, 58, 37
2, 238063, Note_on_c, 0, 62, 28
2, 238068, Note_on_c, 0, 74, 71
2, 238076, Note_on_c, 0, 53, 52
2, 238080, Control_c, 0, 64, 0
2, 238089, Note_off_c, 0, 72, 64
2, 238096, Control_c, 0, 64, 127
2, 238102, Note_off_c, 0, 62, 64
2, 238106, Note_off_c, 0, 58, 64
2, 238106, Note_off_c, 0, 53, 64
2, 238220, Note_on_c, 0, 46, 67
2, 238221, Note_on_c, 0, 75, 70
2, 238246, Note_off_c, 0, 74, 64
2, 238273, Note_off_c, 0, 46, 64
2, 238319, Note_on_c, 0, 77, 61
2, 238326, Note_off_c, 0, 75, 64
2, 238381, Control_c, 0, 64, 0
2, 238388, Note_on_c, 0, 79, 72
2, 238388, Note_on_c, 0, 39, 67
2, 238392, Note_on_c, 0, 51, 68
2, 238410, Note_off_c, 0, 77, 64
2, 238420, Control_c, 0, 64, 127
2, 238532, Note_on_c, 0, 81, 68
2, 238540, Note_on_c, 0, 55, 52
2, 238550, Note_off_c, 0, 79, 64
2, 238580, Note_on_c, 0, 58, 54
2, 238620, Note_on_c, 0, 63, 76
2, 238628, Note_off_c, 0, 39, 64
2, 238632, Note_off_c, 0, 51, 64
2, 238634, Note_on_c, 0, 84, 85
2, 238641, Note_off_c, 0, 81, 64
2, 238652, Note_off_c, 0, 55, 64
2, 238660, Note_on_c, 0, 67, 36
2, 238672, Note_on_c, 0, 82, 87
2, 238677, Note_off_c, 0, 84, 64
2, 238700, Note_off_c, 0, 58, 64
2, 238710, Note_on_c, 0, 84, 70
2, 238717, Note_off_c, 0, 82, 64
2, 238744, Note_off_c, 0, 63, 64
2, 238745, Note_on_c, 0, 82, 83
2, 238761, Note_off_c, 0, 84, 64
2, 238761, Note_off_c, 0, 67, 64
2, 238772, Note_on_c, 0, 84, 63
2, 238776, Note_off_c, 0, 82, 64
2, 238795, Note_on_c, 0, 82, 79
2, 238818, Note_off_c, 0, 84, 64
2, 238826, Note_on_c, 0, 81, 84
2, 238839, Note_off_c, 0, 82, 64
2, 238912, Note_on_c, 0, 79, 63
2, 238939, Note_off_c, 0, 81, 64
2, 238992, Note_on_c, 0, 77, 59
2, 238999, Note_off_c, 0, 79, 64
2, 239015, Note_on_c, 0, 46, 62
2, 239020, Note_on_c, 0, 82, 80
2, 239025, Control_c, 0, 64, 0
2, 239033, Note_off_c, 0, 77, 64
2, 239040, Control_c, 0, 64, 127
2, 239051, Note_off_c, 0, 82, 64
2, 239102, Note_off_c, 0, 46, 64
2, 239157, Note_on_c, 0, 82, 59
2, 239180, Note_on_c, 0, 58, 53
2, 239183, Note_on_c, 0, 53, 48
2, 239187, Note_off_c, 0, 82, 64
2, 239187, Note_on_c, 0, 62, 52
2, 239189, Note_on_c, 0, 74, 66
2, 239199, Control_c, 0, 64, 0
2, 239222, Note_off_c, 0, 62, 64
2, 239225, Note_off_c, 0, 58, 64
2, 239226, Control_c, 0, 64, 127
2, 239231, Note_off_c, 0, 53, 64
2, 239344, Note_on_c, 0, 62, 52
2, 239348, Note_on_c, 0, 58, 55
2, 239348, Note_on_c, 0, 53, 40
2, 239372, Note_off_c, 0, 53, 64
2, 239372, Note_off_c, 0, 58, 64
2, 239376, Note_off_c, 0, 62, 64
2, 239468, Note_on_c, 0, 75, 55
2, 239488, Note_on_c, 0, 41, 57
2, 239491, Note_off_c, 0, 74, 64
2, 239498, Control_c, 0, 64, 0
2, 239504, Note_on_c, 0, 79, 59
2, 239523, Note_off_c, 0, 75, 64
2, 239536, Note_off_c, 0, 79, 64
2, 239547, Control_c, 0, 64, 127
2, 239575, Note_off_c, 0, 41, 64
2, 239628, Note_on_c, 0, 79, 54
2, 239644, Control_c, 0, 64, 0
2, 239656, Note_on_c, 0, 53, 45
2, 239660, Note_off_c, 0, 79, 64
2, 239660, Note_on_c, 0, 69, 61
2, 239664, Note_on_c, 0, 63, 57
2, 239667, Note_on_c, 0, 60, 41
2, 239697, Control_c, 0, 64, 127
2, 239710, Note_off_c, 0, 60, 64
2, 239712, Note_off_c, 0, 53, 64
2, 239717, Note_off_c, 0, 63, 64
2, 239810, Note_on_c, 0, 63, 52
2, 239816, Note_on_c, 0, 60, 41
2, 239817, Note_on_c, 0, 53, 48
2, 239849, Note_off_c, 0, 63, 64
2, 239855, Note_off_c, 0, 60, 64
2, 239864, Note_off_c, 0, 53, 64
2, 239930, Note_on_c, 0, 70, 57
2, 239935, Note_off_c, 0, 69, 64
2, 239962, Note_on_c, 0, 46, 66
2, 239975, Control_c, 0, 64, 0
2, 239983, Note_on_c, 0, 74, 35
2, 239992, Note_off_c, 0, 70, 64
2, 240004, Control_c, 0, 64, 127
2, 240007, Note_off_c, 0, 74, 64
2, 240049, Note_off_c, 0, 46, 64
2, 240096, Note_on_c, 0, 74, 55
2, 240110, Control_c, 0, 64, 0
2, 240120, Note_on_c, 0, 58, 44
2, 240121, Note_on_c, 0, 64, 62
2, 240124, Note_off_c, 0, 74, 64
2, 240128, Note_on_c, 0, 62, 45
2, 240129, Note_on_c, 0, 53, 32
2, 240163, Control_c, 0, 64, 127
2, 240177, Note_off_c, 0, 62, 64
2, 240180, Note_off_c, 0, 53, 64
2, 240180, Note_off_c, 0, 58, 64
2, 240277, Note_on_c, 0, 58, 50
2, 240282, Note_on_c, 0, 62, 44
2, 240285, Note_on_c, 0, 53, 37
2, 240316, Note_off_c, 0, 53, 64
2, 240322, Note_off_c, 0, 58, 64
2, 240326, Note_off_c, 0, 62, 64
2, 240428, Note_on_c, 0, 65, 57
2, 240432, Note_on_c, 0, 41, 45
2, 240432, Control_c, 0, 64, 0
2, 240454, Note_off_c, 0, 64, 64
2, 240474, Control_c, 0, 64, 127
2, 240519, Note_off_c, 0, 41, 64
2, 240540, Note_on_c, 0, 69, 52
2, 240557, Note_off_c, 0, 65, 64
2, 240565, Note_on_c, 0, 72, 66
2, 240575, Note_on_c, 0, 63, 53
2, 240580, Note_on_c, 0, 60, 41
2, 240584, Note_on_c, 0, 53, 29
2, 240611, Note_off_c, 0, 53, 64
2, 240612, Note_off_c, 0, 60, 64
2, 240624, Note_off_c, 0, 63, 64
2, 240658, Note_on_c, 0, 75, 44
2, 240675, Note_off_c, 0, 69, 64
2, 240708, Note_on_c, 0, 79, 65
2, 240722, Note_on_c, 0, 63, 50
2, 240725, Note_off_c, 0, 72, 64
2, 240730, Note_on_c, 0, 60, 48
2, 240734, Note_on_c, 0, 53, 35
2, 240740, Note_off_c, 0, 75, 64
2, 240761, Note_off_c, 0, 53, 64
2, 240762, Note_off_c, 0, 60, 64
2, 240762, Note_off_c, 0, 63, 64
2, 240803, Note_off_c, 0, 79, 64
2, 240806, Note_on_c, 0, 77, 70
2, 240837, Note_off_c, 0, 77, 64
2, 240867, Note_on_c, 0, 77, 80
2, 240884, Note_on_c, 0, 46, 76
2, 240890, Control_c, 0, 64, 0
2, 240904, Note_on_c, 0, 86, 92
2, 240928, Note_off_c, 0, 77, 64
2, 240940, Control_c, 0, 64, 127
2, 240971, Note_off_c, 0, 46, 64
2, 240984, Note_on_c, 0, 84, 72
2, 241041, Note_off_c, 0, 86, 64
2, 241060, Note_on_c, 0, 82, 58
2, 241064, Note_on_c, 0, 62, 59
2, 241064, Note_on_c, 0, 53, 62
2, 241067, Note_off_c, 0, 84, 64
2, 241068, Note_on_c, 0, 58, 67
2, 241084, Note_on_c, 0, 84, 78
2, 241084, Control_c, 0, 64, 0
2, 241095, Note_off_c, 0, 82, 64
2, 241096, Note_off_c, 0, 53, 64
2, 241105, Note_off_c, 0, 62, 64
2, 241112, Note_off_c, 0, 58, 64
2, 241116, Note_on_c, 0, 82, 78
2, 241116, Control_c, 0, 64, 127
2, 241141, Note_off_c, 0, 84, 64
2, 241168, Note_on_c, 0, 79, 76
2, 241183, Note_off_c, 0, 82, 64
2, 241231, Note_off_c, 0, 79, 64
2, 241245, Note_on_c, 0, 77, 84
2, 241245, Note_on_c, 0, 62, 62
2, 241245, Note_on_c, 0, 58, 66
2, 241251, Note_on_c, 0, 53, 53
2, 241284, Note_off_c, 0, 58, 64
2, 241287, Note_off_c, 0, 53, 64
2, 241292, Note_off_c, 0, 62, 64
2, 241375, Note_on_c, 0, 79, 75
2, 241397, Note_off_c, 0, 77, 64
2, 241403, Note_on_c, 0, 46, 76
2, 241408, Note_on_c, 0, 82, 87
2, 241412, Control_c, 0, 64, 0
2, 241422, Note_off_c, 0, 79, 64
2, 241436, Control_c, 0, 64, 127
2, 241440, Note_off_c, 0, 82, 64
2, 241490, Note_off_c, 0, 46, 64
2, 241539, Note_on_c, 0, 82, 70
2, 241571, Note_off_c, 0, 82, 64
2, 241573, Control_c, 0, 64, 0
2, 241586, Note_on_c, 0, 53, 65
2, 241594, Note_on_c, 0, 69, 85
2, 241594, Note_on_c, 0, 63, 70
2, 241596, Note_on_c, 0, 60, 66
2, 241631, Control_c, 0, 64, 127
2, 241632, Note_off_c, 0, 60, 64
2, 241637, Note_off_c, 0, 63, 64
2, 241640, Note_off_c, 0, 53, 64
2, 241776, Note_on_c, 0, 53, 62
2, 241781, Note_on_c, 0, 63, 67
2, 241784, Note_on_c, 0, 60, 66
2, 241807, Note_off_c, 0, 60, 64
2, 241812, Note_off_c, 0, 63, 64
2, 241814, Note_off_c, 0, 53, 64
2, 241917, Note_on_c, 0, 70, 74
2, 241937, Note_off_c, 0, 69, 64
2, 241946, Note_on_c, 0, 74, 76
2, 241964, Note_off_c, 0, 70, 64
2, 241964, Note_on_c, 0, 46, 76
2, 241965, Control_c, 0, 64, 0
2, 241974, Note_on_c, 0, 77, 83
2, 242000, Note_off_c, 0, 77, 64
2, 242000, Note_off_c, 0, 74, 64
2, 242014, Control_c, 0, 64, 127
2, 242051, Note_off_c, 0, 46, 64
2, 242115, Note_on_c, 0, 77, 70
2, 242144, Note_on_c, 0, 58, 70
2, 242148, Note_on_c, 0, 64, 87
2, 242148, Note_on_c, 0, 62, 67
2, 242148, Note_on_c, 0, 53, 52
2, 242149, Note_off_c, 0, 77, 64
2, 242149, Control_c, 0, 64, 0
2, 242185, Note_off_c, 0, 53, 64
2, 242187, Note_off_c, 0, 58, 64
2, 242190, Note_off_c, 0, 62, 64
2, 242193, Control_c, 0, 64, 127
2, 242355, Note_on_c, 0, 62, 67
2, 242358, Note_on_c, 0, 58, 67
2, 242358, Note_on_c, 0, 53, 66
2, 242387, Note_off_c, 0, 58, 64
2, 242398, Note_off_c, 0, 62, 64
2, 242401, Note_off_c, 0, 53, 64
2, 242561, Note_on_c, 0, 41, 72
2, 242564, Note_on_c, 0, 65, 91
2, 242570, Control_c, 0, 64, 0
2, 242584, Note_off_c, 0, 64, 64
2, 242607, Control_c, 0, 64, 127
2, 242648, Note_off_c, 0, 41, 64
2, 242708, Note_on_c, 0, 69, 72
2, 242761, Note_off_c, 0, 65, 64
2, 242763, Note_on_c, 0, 72, 70
2, 242772, Note_on_c, 0, 63, 57
2, 242779, Note_on_c, 0, 53, 45
2, 242802, Note_off_c, 0, 69, 64
2, 242812, Note_off_c, 0, 53, 64
2, 242825, Note_off_c, 0, 63, 64
2, 242863, Note_on_c, 0, 75, 70
2, 242888, Note_off_c, 0, 72, 64
2, 242962, Note_on_c, 0, 74, 67
2, 242969, Note_on_c, 0, 63, 67
2, 242969, Note_on_c, 0, 53, 65
2, 242972, Note_on_c, 0, 57, 57
2, 242985, Note_off_c, 0, 75, 64
2, 242987, Note_on_c, 0, 75, 66
2, 243000, Note_off_c, 0, 74, 64
2, 243005, Note_off_c, 0, 63, 64
2, 243013, Note_off_c, 0, 53, 64
2, 243023, Note_on_c, 0, 74, 62
2, 243025, Note_off_c, 0, 57, 64
2, 243035, Note_off_c, 0, 75, 64
2, 243090, Note_on_c, 0, 72, 62
2, 243113, Note_off_c, 0, 74, 64
2, 243206, Note_on_c, 0, 74, 79
2, 243208, Note_on_c, 0, 46, 83
2, 243218, Note_off_c, 0, 72, 64
2, 243222, Control_c, 0, 64, 0
2, 243244, Control_c, 0, 64, 127
2, 243320, Note_on_c, 0, 65, 79
2, 243324, Note_off_c, 0, 74, 64
2, 243332, Note_off_c, 0, 46, 64
2, 243485, Note_on_c, 0, 62, 83
2, 243489, Note_on_c, 0, 46, 66
2, 243489, Note_on_c, 0, 70, 101
2, 243494, Note_on_c, 0, 53, 74
2, 243494, Note_on_c, 0, 82, 101
2, 243526, Note_off_c, 0, 65, 64
2, 243547, Control_c, 0, 64, 0
2, 244124, Control_c, 0, 64, 127
2, 244648, Note_off_c, 0, 46, 64
2, 244654, Note_off_c, 0, 70, 64
2, 244655, Note_off_c, 0, 62, 64
2, 244659, Note_off_c, 0, 82, 64
2, 244659, Note_off_c, 0, 53, 64
2, 244694, Control_c, 0, 64, 0
2, 246148, Control_c, 0, 64, 127
2, 246362, Control_c, 0, 64, 0
2, 246465, Note_on_c, 0, 76, 50
2, 246501, Control_c, 0, 64, 127
2, 246636, Control_c, 0, 64, 0
2, 246659, Note_on_c, 0, 77, 59
2, 246673, Note_off_c, 0, 76, 64
2, 246712, Control_c, 0, 64, 127
2, 246797, Note_on_c, 0, 76, 55
2, 246815, Note_off_c, 0, 77, 64
2, 246842, Note_on_c, 0, 57, 29
2, 246848, Note_on_c, 0, 65, 33
2, 246849, Note_on_c, 0, 62, 35
2, 246853, Control_c, 0, 64, 0
2, 246858, Note_on_c, 0, 74, 59
2, 246873, Note_off_c, 0, 76, 64
2, 246924, Control_c, 0, 64, 127
2, 247020, Note_off_c, 0, 74, 64
2, 247020, Note_off_c, 0, 62, 64
2, 247020, Note_off_c, 0, 65, 64
2, 247020, Note_off_c, 0, 57, 64
2, 247092, Note_on_c, 0, 77, 58
2, 247092, Note_on_c, 0, 62, 28
2, 247092, Note_on_c, 0, 57, 37
2, 247108, Note_on_c, 0, 65, 31
2, 247178, Control_c, 0, 64, 0
2, 247234, Control_c, 0, 64, 127
2, 247275, Note_off_c, 0, 57, 64
2, 247276, Note_off_c, 0, 62, 64
2, 247293, Note_off_c, 0, 65, 64
2, 247306, Note_off_c, 0, 77, 64
2, 247354, Note_on_c, 0, 77, 57
2, 247540, Note_on_c, 0, 57, 29
2, 247545, Note_on_c, 0, 60, 28
2, 247553, Note_on_c, 0, 65, 37
2, 247571, Control_c, 0, 64, 0
2, 247626, Control_c, 0, 64, 127
2, 247725, Note_off_c, 0, 57, 64
2, 247730, Note_off_c, 0, 60, 64
2, 247738, Note_off_c, 0, 65, 64
2, 247793, Note_on_c, 0, 76, 44
2, 247799, Note_on_c, 0, 60, 24
2, 247807, Note_on_c, 0, 57, 22
2, 247809, Note_on_c, 0, 64, 27
2, 247812, Note_off_c, 0, 77, 64
2, 247823, Control_c, 0, 64, 0
2, 247880, Control_c, 0, 64, 127
2, 247956, Note_off_c, 0, 76, 64
2, 247966, Note_off_c, 0, 64, 64
2, 247970, Note_off_c, 0, 60, 64
2, 247980, Note_off_c, 0, 57, 64
2, 247993, Note_on_c, 0, 74, 49
2, 248032, Note_off_c, 0, 74, 64
2, 248040, Note_on_c, 0, 76, 50
2, 248072, Note_on_c, 0, 74, 52
2, 248080, Note_off_c, 0, 76, 64
2, 248124, Note_on_c, 0, 73, 53
2, 248130, Note_off_c, 0, 74, 64
2, 248170, Control_c, 0, 64, 0
2, 248177, Note_on_c, 0, 62, 57
2, 248181, Note_on_c, 0, 56, 41
2, 248182, Note_on_c, 0, 52, 55
2, 248190, Note_off_c, 0, 73, 64
2, 248190, Note_on_c, 0, 74, 55
2, 248223, Control_c, 0, 64, 127
2, 248268, Note_on_c, 0, 75, 58
2, 248304, Note_off_c, 0, 74, 64
2, 248337, Note_off_c, 0, 62, 64
2, 248341, Note_off_c, 0, 56, 64
2, 248342, Note_off_c, 0, 52, 64
2, 248352, Note_on_c, 0, 62, 53
2, 248352, Note_on_c, 0, 56, 36
2, 248357, Note_on_c, 0, 76, 62
2, 248357, Note_on_c, 0, 52, 50
2, 248365, Note_off_c, 0, 75, 64
2, 248366, Control_c, 0, 64, 0
2, 248400, Control_c, 0, 64, 127
2, 248434, Note_on_c, 0, 71, 63
2, 248451, Note_off_c, 0, 76, 64
2, 248503, Note_off_c, 0, 56, 64
2, 248505, Note_off_c, 0, 62, 64
2, 248510, Control_c, 0, 64, 0
2, 248516, Note_off_c, 0, 52, 64
2, 248525, Note_on_c, 0, 74, 70
2, 248546, Note_off_c, 0, 71, 64
2, 248558, Control_c, 0, 64, 127
2, 248731, Note_on_c, 0, 45, 44
2, 248971, Note_on_c, 0, 72, 53
2, 248971, Note_on_c, 0, 52, 33
2, 248975, Note_on_c, 0, 60, 33
2, 248991, Note_off_c, 0, 74, 64
2, 248995, Control_c, 0, 64, 0
2, 249038, Control_c, 0, 64, 127
2, 249092, Note_off_c, 0, 45, 64
2, 249198, Note_off_c, 0, 72, 64
2, 249215, Note_off_c, 0, 52, 64
2, 249220, Note_on_c, 0, 69, 52
2, 249224, Note_off_c, 0, 60, 64
2, 249290, Note_on_c, 0, 71, 36
2, 249296, Note_off_c, 0, 69, 64
2, 249333, Note_on_c, 0, 69, 58
2, 249345, Note_off_c, 0, 71, 64
2, 249375, Note_on_c, 0, 52, 46
2, 249381, Note_on_c, 0, 60, 40
2, 249384, Note_on_c, 0, 68, 72
2, 249390, Note_off_c, 0, 69, 64
2, 249397, Control_c, 0, 64, 0
2, 249426, Control_c, 0, 64, 127
2, 249554, Note_on_c, 0, 69, 65
2, 249558, Note_on_c, 0, 45, 49
2, 249564, Control_c, 0, 64, 0
2, 249568, Note_off_c, 0, 68, 64
2, 249604, Note_off_c, 0, 52, 64
2, 249606, Control_c, 0, 64, 127
2, 249614, Note_off_c, 0, 60, 64
2, 249683, Note_off_c, 0, 45, 64
2, 249718, Note_on_c, 0, 71, 79
2, 249742, Note_off_c, 0, 69, 64
2, 249880, Note_on_c, 0, 76, 75
2, 249886, Note_on_c, 0, 55, 26
2, 249888, Note_on_c, 0, 52, 26
2, 249892, Note_off_c, 0, 71, 64
2, 249892, Note_on_c, 0, 59, 24
2, 249910, Control_c, 0, 64, 0
2, 249984, Control_c, 0, 64, 127
2, 250071, Note_off_c, 0, 76, 64
2, 250076, Note_on_c, 0, 47, 24
2, 250219, Note_off_c, 0, 47, 64
2, 250232, Note_off_c, 0, 55, 64
2, 250234, Note_off_c, 0, 52, 64
2, 250236, Note_off_c, 0, 59, 64
2, 250278, Control_c, 0, 64, 0
2, 250283, Note_on_c, 0, 71, 70
2, 250311, Control_c, 0, 64, 127
2, 250363, Note_on_c, 0, 67, 74
2, 250386, Note_off_c, 0, 71, 64
2, 250456, Note_on_c, 0, 47, 61
2, 250457, Note_off_c, 0, 67, 64
2, 250457, Note_on_c, 0, 59, 58
2, 250457, Note_on_c, 0, 64, 78
2, 250463, Note_on_c, 0, 55, 58
2, 250469, Control_c, 0, 64, 0
2, 250502, Control_c, 0, 64, 127
2, 250538, Note_on_c, 0, 71, 72
2, 250558, Note_off_c, 0, 64, 64
2, 250621, Note_off_c, 0, 47, 64
2, 250622, Note_off_c, 0, 59, 64
2, 250628, Note_off_c, 0, 55, 64
2, 250631, Note_on_c, 0, 54, 62
2, 250633, Note_on_c, 0, 59, 66
2, 250637, Note_on_c, 0, 63, 81
2, 250637, Note_on_c, 0, 47, 62
2, 250644, Note_off_c, 0, 71, 64
2, 250653, Control_c, 0, 64, 0
2, 250717, Control_c, 0, 64, 127
2, 250796, Note_off_c, 0, 54, 64
2, 250798, Note_off_c, 0, 59, 64
2, 250802, Note_off_c, 0, 47, 64
2, 250870, Note_on_c, 0, 64, 70
2, 250876, Note_off_c, 0, 63, 64
2, 250878, Note_on_c, 0, 59, 57
2, 250878, Note_on_c, 0, 52, 62
2, 250879, Note_on_c, 0, 55, 61
2, 250886, Control_c, 0, 64, 0
2, 250953, Control_c, 0, 64, 127
2, 251043, Note_off_c, 0, 52, 64
2, 251043, Note_off_c, 0, 59, 64
2, 251044, Note_off_c, 0, 55, 64
2, 251184, Note_on_c, 0, 40, 68
2, 251202, Control_c, 0, 64, 0
2, 251246, Control_c, 0, 64, 127
2, 251294, Note_off_c, 0, 64, 64
2, 251469, Note_off_c, 0, 40, 64
2, 251475, Note_on_c, 0, 76, 53
2, 251646, Note_on_c, 0, 77, 55
2, 251658, Control_c, 0, 64, 0
2, 251665, Note_off_c, 0, 76, 64
2, 251722, Control_c, 0, 64, 127
2, 251776, Note_on_c, 0, 76, 48
2, 251782, Note_off_c, 0, 77, 64
2, 251812, Note_on_c, 0, 65, 37
2, 251812, Note_on_c, 0, 62, 41
2, 251812, Note_on_c, 0, 57, 53
2, 251820, Note_on_c, 0, 74, 52
2, 251841, Note_off_c, 0, 76, 64
2, 251848, Control_c, 0, 64, 0
2, 251881, Control_c, 0, 64, 127
2, 251995, Note_on_c, 0, 77, 59
2, 251997, Note_off_c, 0, 57, 64
2, 251997, Note_off_c, 0, 62, 64
2, 251997, Note_off_c, 0, 65, 64
2, 252003, Control_c, 0, 64, 0
2, 252009, Note_off_c, 0, 74, 64
2, 252012, Note_on_c, 0, 65, 42
2, 252012, Note_on_c, 0, 62, 33
2, 252012, Note_on_c, 0, 57, 48
2, 252055, Control_c, 0, 64, 127
2, 252074, Note_off_c, 0, 77, 64
2, 252162, Note_off_c, 0, 62, 64
2, 252163, Note_off_c, 0, 57, 64
2, 252169, Note_off_c, 0, 65, 64
2, 252175, Note_on_c, 0, 77, 67
2, 252178, Control_c, 0, 64, 0
2, 252222, Control_c, 0, 64, 127
2, 252340, Note_on_c, 0, 57, 35
2, 252344, Note_on_c, 0, 60, 40
2, 252355, Note_on_c, 0, 65, 36
2, 252362, Control_c, 0, 64, 0
2, 252386, Control_c, 0, 64, 127
2, 252525, Note_off_c, 0, 57, 64
2, 252529, Note_off_c, 0, 60, 64
2, 252534, Note_on_c, 0, 76, 52
2, 252535, Note_on_c, 0, 57, 41
2, 252540, Note_off_c, 0, 65, 64
2, 252540, Note_on_c, 0, 60, 33
2, 252546, Note_on_c, 0, 64, 29
2, 252562, Note_off_c, 0, 77, 64
2, 252564, Control_c, 0, 64, 0
2, 252608, Control_c, 0, 64, 127
2, 252656, Note_off_c, 0, 76, 64
2, 252690, Note_off_c, 0, 60, 64
2, 252693, Note_off_c, 0, 64, 64
2, 252696, Note_off_c, 0, 57, 64
2, 252723, Note_on_c, 0, 74, 53
2, 252759, Note_on_c, 0, 76, 41
2, 252766, Note_off_c, 0, 74, 64
2, 252796, Note_on_c, 0, 74, 59
2, 252807, Note_off_c, 0, 76, 64
2, 252850, Note_off_c, 0, 74, 64
2, 252850, Note_on_c, 0, 73, 67
2, 252868, Note_on_c, 0, 52, 57
2, 252876, Note_on_c, 0, 62, 57
2, 252876, Note_on_c, 0, 56, 45
2, 252889, Control_c, 0, 64, 0
2, 252913, Note_on_c, 0, 74, 62
2, 252926, Note_off_c, 0, 73, 64
2, 252942, Control_c, 0, 64, 127
2, 252979, Note_on_c, 0, 75, 55
2, 253016, Note_off_c, 0, 74, 64
2, 253033, Note_off_c, 0, 52, 64
2, 253041, Note_off_c, 0, 56, 64
2, 253041, Note_off_c, 0, 62, 64
2, 253046, Control_c, 0, 64, 0
2, 253054, Note_on_c, 0, 56, 33
2, 253055, Note_on_c, 0, 62, 44
2, 253059, Note_on_c, 0, 76, 59
2, 253062, Note_on_c, 0, 52, 45
2, 253069, Note_off_c, 0, 75, 64
2, 253089, Control_c, 0, 64, 127
2, 253124, Note_on_c, 0, 71, 62
2, 253143, Note_off_c, 0, 76, 64
2, 253177, Note_off_c, 0, 71, 64
2, 253209, Note_on_c, 0, 71, 59
2, 253222, Note_off_c, 0, 52, 64
2, 253236, Note_off_c, 0, 56, 64
2, 253244, Control_c, 0, 64, 0
2, 253253, Note_off_c, 0, 62, 64
2, 253265, Note_on_c, 0, 74, 62
2, 253272, Note_off_c, 0, 71, 64
2, 253294, Control_c, 0, 64, 127
2, 253556, Note_on_c, 0, 57, 31
2, 253560, Note_on_c, 0, 53, 31
2, 253560, Control_c, 0, 64, 0
2, 253564, Note_on_c, 0, 62, 32
2, 253606, Control_c, 0, 64, 127
2, 253746, Note_off_c, 0, 57, 64
2, 253750, Note_off_c, 0, 53, 64
2, 253754, Note_off_c, 0, 62, 64
2, 253815, Note_on_c, 0, 72, 46
2, 253838, Note_on_c, 0, 57, 29
2, 253848, Note_off_c, 0, 74, 64
2, 253848, Note_on_c, 0, 53, 24
2, 253849, Note_on_c, 0, 60, 32
2, 253886, Control_c, 0, 64, 0
2, 253939, Control_c, 0, 64, 127
2, 254032, Note_off_c, 0, 53, 64
2, 254058, Note_off_c, 0, 57, 64
2, 254063, Note_off_c, 0, 72, 64
2, 254065, Note_on_c, 0, 69, 59
2, 254075, Note_off_c, 0, 60, 64
2, 254150, Note_on_c, 0, 70, 75
2, 254173, Note_off_c, 0, 69, 64
2, 254217, Note_on_c, 0, 69, 61
2, 254232, Note_off_c, 0, 70, 64
2, 254285, Note_on_c, 0, 63, 40
2, 254289, Note_on_c, 0, 53, 40
2, 254289, Note_on_c, 0, 67, 70
2, 254296, Note_off_c, 0, 69, 64
2, 254296, Note_on_c, 0, 60, 36
2, 254306, Control_c, 0, 64, 0
2, 254353, Control_c, 0, 64, 127
2, 254475, Note_off_c, 0, 63, 64
2, 254479, Note_off_c, 0, 53, 64
2, 254486, Note_off_c, 0, 60, 64
2, 254516, Note_on_c, 0, 69, 65
2, 254531, Note_on_c, 0, 63, 37
2, 254537, Note_on_c, 0, 60, 50
2, 254542, Note_off_c, 0, 67, 64
2, 254542, Note_on_c, 0, 53, 36
2, 254551, Control_c, 0, 64, 0
2, 254592, Control_c, 0, 64, 127
2, 254721, Note_off_c, 0, 63, 64
2, 254727, Note_off_c, 0, 60, 64
2, 254732, Note_off_c, 0, 53, 64
2, 254823, Note_on_c, 0, 70, 66
2, 254826, Note_on_c, 0, 58, 35
2, 254827, Note_on_c, 0, 62, 41
2, 254834, Note_off_c, 0, 69, 64
2, 254876, Control_c, 0, 64, 0
2, 254938, Control_c, 0, 64, 127
2, 255212, Note_on_c, 0, 74, 41
2, 255220, Note_on_c, 0, 65, 28
2, 255228, Note_off_c, 0, 70, 64
2, 255232, Note_off_c, 0, 62, 64
2, 255245, Control_c, 0, 64, 0
2, 255346, Control_c, 0, 64, 127
2, 255514, Note_off_c, 0, 58, 64
2, 255652, Note_off_c, 0, 65, 64
2, 255684, Note_off_c, 0, 74, 64
2, 255949, Note_on_c, 0, 69, 55
2, 256048, Control_c, 0, 64, 0
2, 256092, Note_on_c, 0, 68, 66
2, 256104, Note_off_c, 0, 69, 64
2, 256151, Note_on_c, 0, 64, 44
2, 256159, Note_on_c, 0, 62, 57
2, 256166, Note_off_c, 0, 68, 64
2, 256166, Note_on_c, 0, 52, 40
2, 256166, Note_on_c, 0, 59, 45
2, 256213, Control_c, 0, 64, 127
2, 256319, Note_off_c, 0, 62, 64
2, 256326, Note_off_c, 0, 59, 64
2, 256326, Note_off_c, 0, 52, 64
2, 256342, Note_on_c, 0, 52, 48
2, 256347, Note_on_c, 0, 68, 66
2, 256350, Note_on_c, 0, 62, 54
2, 256355, Note_on_c, 0, 59, 36
2, 256357, Note_off_c, 0, 64, 64
2, 256362, Control_c, 0, 64, 0
2, 256396, Control_c, 0, 64, 127
2, 256502, Note_off_c, 0, 52, 64
2, 256510, Note_off_c, 0, 62, 64
2, 256515, Note_off_c, 0, 59, 64
2, 256552, Note_on_c, 0, 69, 67
2, 256553, Note_on_c, 0, 60, 65
2, 256560, Note_on_c, 0, 45, 36
2, 256561, Note_off_c, 0, 68, 64
2, 256566, Note_on_c, 0, 52, 33
2, 256573, Control_c, 0, 64, 0
2, 256617, Control_c, 0, 64, 127
2, 256770, Note_off_c, 0, 52, 64
2, 256818, Note_off_c, 0, 45, 64
2, 256850, Note_on_c, 0, 33, 44
2, 256871, Control_c, 0, 64, 0
2, 256908, Note_off_c, 0, 60, 64
2, 256915, Control_c, 0, 64, 127
2, 256954, Note_off_c, 0, 69, 64
2, 257115, Note_on_c, 0, 76, 45
2, 257122, Control_c, 0, 64, 0
2, 257131, Note_off_c, 0, 33, 64
2, 257178, Control_c, 0, 64, 127
2, 257292, Note_on_c, 0, 77, 44
2, 257307, Note_off_c, 0, 76, 64
2, 257416, Note_on_c, 0, 76, 36
2, 257420, Note_off_c, 0, 77, 64
2, 257452, Note_on_c, 0, 57, 39
2, 257459, Note_on_c, 0, 62, 32
2, 257462, Control_c, 0, 64, 0
2, 257468, Note_on_c, 0, 65, 26
2, 257472, Note_on_c, 0, 74, 41
2, 257482, Note_off_c, 0, 76, 64
2, 257521, Control_c, 0, 64, 127
2, 257612, Note_off_c, 0, 57, 64
2, 257619, Note_off_c, 0, 62, 64
2, 257628, Note_off_c, 0, 65, 64
2, 257634, Note_on_c, 0, 77, 45
2, 257643, Note_on_c, 0, 62, 28
2, 257643, Control_c, 0, 64, 0
2, 257650, Note_on_c, 0, 57, 27
2, 257651, Note_on_c, 0, 65, 24
2, 257664, Note_off_c, 0, 74, 64
2, 257694, Control_c, 0, 64, 127
2, 257717, Note_off_c, 0, 77, 64
2, 257800, Note_off_c, 0, 57, 64
2, 257809, Note_off_c, 0, 62, 64
2, 257815, Note_off_c, 0, 65, 64
2, 257815, Note_on_c, 0, 77, 49
2, 257974, Note_on_c, 0, 60, 35
2, 257979, Note_on_c, 0, 57, 24
2, 257983, Control_c, 0, 64, 0
2, 257988, Note_on_c, 0, 65, 28
2, 258027, Control_c, 0, 64, 127
2, 258134, Note_off_c, 0, 60, 64
2, 258139, Note_off_c, 0, 57, 64
2, 258148, Note_off_c, 0, 65, 64
2, 258164, Note_on_c, 0, 60, 26
2, 258166, Note_on_c, 0, 57, 31
2, 258168, Note_on_c, 0, 64, 26
2, 258168, Note_on_c, 0, 76, 36
2, 258185, Note_off_c, 0, 77, 64
2, 258186, Control_c, 0, 64, 0
2, 258217, Control_c, 0, 64, 127
2, 258285, Note_off_c, 0, 76, 64
2, 258312, Note_on_c, 0, 74, 36
2, 258326, Note_off_c, 0, 60, 64
2, 258328, Note_off_c, 0, 64, 64
2, 258336, Note_off_c, 0, 57, 64
2, 258339, Control_c, 0, 64, 0
2, 258349, Note_on_c, 0, 76, 37
2, 258371, Note_off_c, 0, 74, 64
2, 258374, Control_c, 0, 64, 127
2, 258391, Note_on_c, 0, 74, 44
2, 258397, Note_off_c, 0, 76, 64
2, 258441, Note_on_c, 0, 73, 52
2, 258449, Note_off_c, 0, 74, 64
2, 258489, Note_on_c, 0, 56, 40
2, 258493, Note_on_c, 0, 62, 31
2, 258499, Note_on_c, 0, 52, 23
2, 258503, Control_c, 0, 64, 0
2, 258513, Note_on_c, 0, 74, 49
2, 258531, Note_off_c, 0, 73, 64
2, 258536, Control_c, 0, 64, 127
2, 258574, Note_on_c, 0, 75, 42
2, 258594, Note_off_c, 0, 74, 64
2, 258649, Note_off_c, 0, 56, 64
2, 258653, Note_off_c, 0, 62, 64
2, 258656, Note_on_c, 0, 56, 29
2, 258657, Note_on_c, 0, 76, 44
2, 258657, Control_c, 0, 64, 0
2, 258659, Note_off_c, 0, 52, 64
2, 258665, Note_on_c, 0, 62, 36
2, 258665, Note_on_c, 0, 52, 36
2, 258667, Note_off_c, 0, 75, 64
2, 258720, Control_c, 0, 64, 127
2, 258728, Note_on_c, 0, 71, 41
2, 258746, Note_off_c, 0, 76, 64
2, 258782, Note_off_c, 0, 62, 64
2, 258790, Note_off_c, 0, 56, 64
2, 258799, Note_off_c, 0, 52, 64
2, 258801, Control_c, 0, 64, 0
2, 258812, Note_on_c, 0, 74, 46
2, 258838, Note_off_c, 0, 71, 64
2, 258846, Control_c, 0, 64, 127
2, 258974, Note_on_c, 0, 45, 36
2, 259008, Control_c, 0, 64, 0
2, 259049, Control_c, 0, 64, 127
2, 259173, Note_on_c, 0, 72, 41
2, 259183, Note_on_c, 0, 52, 24
2, 259191, Note_on_c, 0, 60, 19
2, 259201, Control_c, 0, 64, 0
2, 259206, Note_off_c, 0, 74, 64
2, 259245, Control_c, 0, 64, 127
2, 259259, Note_off_c, 0, 45, 64
2, 259371, Note_off_c, 0, 72, 64
2, 259371, Note_on_c, 0, 69, 45
2, 259404, Note_off_c, 0, 52, 64
2, 259419, Note_off_c, 0, 60, 64
2, 259426, Note_on_c, 0, 71, 39
2, 259433, Note_off_c, 0, 69, 64
2, 259481, Note_off_c, 0, 71, 64
2, 259481, Note_on_c, 0, 69, 46
2, 259524, Note_on_c, 0, 60, 32
2, 259524, Note_on_c, 0, 52, 32
2, 259525, Control_c, 0, 64, 0
2, 259532, Note_on_c, 0, 68, 48
2, 259557, Note_off_c, 0, 69, 64
2, 259572, Control_c, 0, 64, 127
2, 259695, Note_on_c, 0, 69, 48
2, 259703, Note_on_c, 0, 45, 27
2, 259707, Control_c, 0, 64, 0
2, 259711, Note_off_c, 0, 68, 64
2, 259759, Control_c, 0, 64, 127
2, 259764, Note_off_c, 0, 52, 64
2, 259764, Note_off_c, 0, 60, 64
2, 259857, Note_on_c, 0, 71, 52
2, 259863, Note_off_c, 0, 45, 64
2, 259877, Note_off_c, 0, 69, 64
2, 260045, Note_on_c, 0, 76, 57
2, 260048, Note_on_c, 0, 59, 27
2, 260054, Note_on_c, 0, 52, 33
2, 260054, Note_on_c, 0, 55, 33
2, 260057, Note_off_c, 0, 71, 64
2, 260063, Control_c, 0, 64, 0
2, 260119, Control_c, 0, 64, 127
2, 260268, Note_off_c, 0, 52, 64
2, 260273, Control_c, 0, 64, 0
2, 260279, Note_on_c, 0, 47, 44
2, 260310, Control_c, 0, 64, 127
2, 260325, Note_off_c, 0, 76, 64
2, 260452, Note_off_c, 0, 47, 64
2, 260459, Note_off_c, 0, 55, 64
2, 260470, Note_off_c, 0, 59, 64
2, 260515, Note_on_c, 0, 71, 54
2, 260581, Note_on_c, 0, 67, 52
2, 260606, Note_off_c, 0, 71, 64
2, 260641, Control_c, 0, 64, 0
2, 260651, Note_on_c, 0, 64, 62
2, 260658, Note_on_c, 0, 59, 52
2, 260658, Note_on_c, 0, 47, 49
2, 260659, Note_on_c, 0, 55, 52
2, 260666, Note_off_c, 0, 67, 64
2, 260695, Control_c, 0, 64, 127
2, 260734, Note_on_c, 0, 71, 58
2, 260758, Note_off_c, 0, 64, 64
2, 260761, Note_off_c, 0, 55, 64
2, 260761, Note_off_c, 0, 47, 64
2, 260763, Note_off_c, 0, 59, 64
2, 260813, Note_on_c, 0, 63, 62
2, 260816, Note_on_c, 0, 59, 54
2, 260816, Note_on_c, 0, 54, 54
2, 260823, Note_on_c, 0, 47, 49
2, 260833, Note_off_c, 0, 71, 64
2, 260837, Control_c, 0, 64, 0
2, 260891, Control_c, 0, 64, 127
2, 260946, Note_off_c, 0, 47, 64
2, 260963, Note_off_c, 0, 54, 64
2, 260987, Note_off_c, 0, 59, 64
2, 261040, Note_on_c, 0, 64, 54
2, 261042, Control_c, 0, 64, 0
2, 261048, Note_on_c, 0, 52, 50
2, 261048, Note_on_c, 0, 59, 46
2, 261049, Note_on_c, 0, 55, 49
2, 261052, Note_off_c, 0, 63, 64
2, 261104, Control_c, 0, 64, 127
2, 261291, Note_off_c, 0, 59, 64
2, 261307, Note_off_c, 0, 55, 64
2, 261331, Note_off_c, 0, 52, 64
2, 261331, Note_on_c, 0, 40, 55
2, 261346, Control_c, 0, 64, 0
2, 261390, Control_c, 0, 64, 127
2, 261473, Note_off_c, 0, 64, 64
2, 261574, Note_on_c, 0, 76, 41
2, 261606, Control_c, 0, 64, 0
2, 261616, Note_off_c, 0, 40, 64
2, 261653, Control_c, 0, 64, 127
2, 261746, Control_c, 0, 64, 0
2, 261751, Note_on_c, 0, 77, 41
2, 261770, Note_off_c, 0, 76, 64
2, 261783, Control_c, 0, 64, 127
2, 261869, Note_on_c, 0, 76, 36
2, 261889, Note_off_c, 0, 77, 64
2, 261899, Note_on_c, 0, 57, 29
2, 261906, Note_on_c, 0, 65, 26
2, 261912, Note_on_c, 0, 62, 23
2, 261914, Note_on_c, 0, 74, 32
2, 261922, Control_c, 0, 64, 0
2, 261934, Note_off_c, 0, 76, 64
2, 261964, Control_c, 0, 64, 127
2, 262069, Note_off_c, 0, 57, 64
2, 262076, Note_off_c, 0, 65, 64
2, 262078, Note_on_c, 0, 77, 41
2, 262082, Note_off_c, 0, 62, 64
2, 262084, Control_c, 0, 64, 0
2, 262089, Note_on_c, 0, 65, 23
2, 262089, Note_on_c, 0, 62, 24
2, 262090, Note_on_c, 0, 57, 24
2, 262102, Note_off_c, 0, 74, 64
2, 262128, Control_c, 0, 64, 127
2, 262157, Note_off_c, 0, 77, 64
2, 262248, Note_on_c, 0, 77, 45
2, 262259, Note_off_c, 0, 57, 64
2, 262263, Note_off_c, 0, 65, 64
2, 262267, Note_off_c, 0, 62, 64
2, 262398, Note_on_c, 0, 60, 28
2, 262400, Note_on_c, 0, 57, 27
2, 262404, Note_on_c, 0, 65, 26
2, 262418, Control_c, 0, 64, 0
2, 262452, Control_c, 0, 64, 127
2, 262568, Note_off_c, 0, 60, 64
2, 262570, Note_off_c, 0, 57, 64
2, 262574, Note_off_c, 0, 65, 64
2, 262577, Control_c, 0, 64, 0
2, 262585, Note_on_c, 0, 64, 29
2, 262585, Note_on_c, 0, 60, 28
2, 262585, Note_on_c, 0, 57, 28
2, 262590, Note_on_c, 0, 76, 45
2, 262608, Note_off_c, 0, 77, 64
2, 262631, Control_c, 0, 64, 127
2, 262694, Note_off_c, 0, 76, 64
2, 262738, Note_on_c, 0, 74, 31
2, 262746, Control_c, 0, 64, 0
2, 262755, Note_off_c, 0, 57, 64
2, 262755, Note_off_c, 0, 60, 64
2, 262755, Note_off_c, 0, 64, 64
2, 262773, Note_on_c, 0, 76, 40
2, 262787, Control_c, 0, 64, 127
2, 262793, Note_off_c, 0, 74, 64
2, 262810, Note_on_c, 0, 74, 41
2, 262819, Note_off_c, 0, 76, 64
2, 262856, Note_on_c, 0, 73, 46
2, 262865, Note_off_c, 0, 74, 64
2, 262909, Note_on_c, 0, 52, 26
2, 262909, Note_on_c, 0, 56, 24
2, 262915, Note_on_c, 0, 62, 28
2, 262915, Note_on_c, 0, 74, 42
2, 262920, Control_c, 0, 64, 0
2, 262941, Note_off_c, 0, 73, 64
2, 262951, Control_c, 0, 64, 127
2, 262984, Note_on_c, 0, 75, 41
2, 263006, Note_off_c, 0, 74, 64
2, 263059, Note_off_c, 0, 56, 64
2, 263059, Note_off_c, 0, 52, 64
2, 263065, Note_off_c, 0, 62, 64
2, 263071, Note_on_c, 0, 76, 40
2, 263071, Note_on_c, 0, 62, 26
2, 263076, Note_on_c, 0, 56, 20
2, 263078, Control_c, 0, 64, 0
2, 263085, Note_off_c, 0, 75, 64
2, 263085, Note_on_c, 0, 52, 24
2, 263105, Control_c, 0, 64, 127
2, 263124, Note_on_c, 0, 71, 46
2, 263150, Note_off_c, 0, 76, 64
2, 263161, Note_off_c, 0, 71, 64
2, 263195, Note_on_c, 0, 71, 45
2, 263221, Note_off_c, 0, 62, 64
2, 263226, Note_off_c, 0, 56, 64
2, 263235, Note_off_c, 0, 52, 64
2, 263239, Control_c, 0, 64, 0
2, 263249, Note_on_c, 0, 74, 46
2, 263258, Note_off_c, 0, 71, 64
2, 263287, Control_c, 0, 64, 127
2, 263490, Note_on_c, 0, 53, 19
2, 263500, Note_on_c, 0, 62, 19
2, 263500, Note_on_c, 0, 57, 26
2, 263510, Control_c, 0, 64, 0
2, 263550, Control_c, 0, 64, 127
2, 263675, Note_off_c, 0, 53, 64
2, 263685, Note_off_c, 0, 57, 64
2, 263685, Note_off_c, 0, 62, 64
2, 263744, Note_on_c, 0, 72, 41
2, 263765, Note_on_c, 0, 57, 18
2, 263769, Note_off_c, 0, 74, 64
2, 263769, Note_on_c, 0, 60, 22
2, 263769, Note_on_c, 0, 53, 16
2, 263801, Control_c, 0, 64, 0
2, 263863, Control_c, 0, 64, 127
2, 263975, Note_off_c, 0, 53, 64
2, 263983, Note_off_c, 0, 57, 64
2, 263983, Note_off_c, 0, 72, 64
2, 263985, Note_on_c, 0, 69, 46
2, 263991, Note_off_c, 0, 60, 64
2, 264046, Note_on_c, 0, 70, 49
2, 264064, Note_off_c, 0, 69, 64
2, 264115, Note_on_c, 0, 69, 46
2, 264126, Note_off_c, 0, 70, 64
2, 264172, Note_on_c, 0, 63, 31
2, 264174, Control_c, 0, 64, 0
2, 264180, Note_on_c, 0, 60, 33
2, 264180, Note_on_c, 0, 53, 39
2, 264181, Note_on_c, 0, 67, 49
2, 264187, Note_off_c, 0, 69, 64
2, 264224, Control_c, 0, 64, 127
2, 264357, Note_off_c, 0, 63, 64
2, 264365, Note_off_c, 0, 53, 64
2, 264365, Note_off_c, 0, 60, 64
2, 264380, Note_on_c, 0, 60, 26
2, 264384, Note_on_c, 0, 69, 52
2, 264388, Note_on_c, 0, 53, 31
2, 264389, Note_on_c, 0, 63, 31
2, 264409, Note_off_c, 0, 67, 64
2, 264419, Control_c, 0, 64, 0
2, 264475, Control_c, 0, 64, 127
2, 264565, Note_off_c, 0, 60, 64
2, 264573, Note_off_c, 0, 53, 64
2, 264574, Note_off_c, 0, 63, 64
2, 264660, Note_on_c, 0, 58, 26
2, 264660, Note_on_c, 0, 62, 32
2, 264663, Note_on_c, 0, 70, 49
2, 264688, Note_off_c, 0, 69, 64
2, 264720, Control_c, 0, 64, 0
2, 264773, Control_c, 0, 64, 127
2, 265044, Note_on_c, 0, 65, 23
2, 265050, Note_on_c, 0, 74, 41
2, 265068, Note_off_c, 0, 70, 64
2, 265075, Note_off_c, 0, 62, 64
2, 265113, Control_c, 0, 64, 0
2, 265179, Control_c, 0, 64, 127
2, 265380, Note_off_c, 0, 74, 64
2, 265380, Note_off_c, 0, 65, 64
2, 265380, Note_off_c, 0, 58, 64
2, 265555, Control_c, 0, 64, 0
2, 265729, Note_on_c, 0, 69, 57
2, 265761, Control_c, 0, 64, 0
2, 265804, Control_c, 0, 64, 127
2, 265865, Note_on_c, 0, 68, 41
2, 265875, Note_off_c, 0, 69, 64
2, 265906, Note_on_c, 0, 64, 57
2, 265912, Note_on_c, 0, 52, 48
2, 265917, Note_on_c, 0, 59, 44
2, 265921, Control_c, 0, 64, 0
2, 265927, Note_off_c, 0, 68, 64
2, 265927, Note_on_c, 0, 62, 36
2, 265970, Control_c, 0, 64, 127
2, 266062, Note_off_c, 0, 52, 64
2, 266067, Note_off_c, 0, 59, 64
2, 266077, Note_off_c, 0, 62, 64
2, 266100, Note_on_c, 0, 68, 55
2, 266101, Note_on_c, 0, 52, 52
2, 266109, Note_on_c, 0, 62, 39
2, 266109, Note_on_c, 0, 59, 41
2, 266115, Control_c, 0, 64, 0
2, 266121, Note_off_c, 0, 64, 64
2, 266146, Control_c, 0, 64, 127
2, 266251, Note_off_c, 0, 52, 64
2, 266259, Note_off_c, 0, 59, 64
2, 266259, Note_off_c, 0, 62, 64
2, 266284, Note_on_c, 0, 69, 57
2, 266284, Note_on_c, 0, 60, 52
2, 266288, Note_on_c, 0, 52, 55
2, 266294, Note_on_c, 0, 45, 57
2, 266305, Control_c, 0, 64, 0
2, 266312, Note_off_c, 0, 68, 64
2, 266356, Control_c, 0, 64, 127
2, 266473, Note_off_c, 0, 52, 64
2, 266479, Note_off_c, 0, 45, 64
2, 266540, Note_on_c, 0, 33, 66
2, 266556, Control_c, 0, 64, 0
2, 266575, Note_off_c, 0, 60, 64
2, 266593, Control_c, 0, 64, 127
2, 266631, Note_off_c, 0, 69, 64
2, 266749, Note_off_c, 0, 33, 64
2, 266820, Note_on_c, 0, 71, 53
2, 266967, Control_c, 0, 64, 0
2, 266981, Note_off_c, 0, 71, 64
2, 266984, Note_on_c, 0, 72, 57
2, 267002, Control_c, 0, 64, 127
2, 267091, Note_on_c, 0, 74, 53
2, 267117, Note_off_c, 0, 72, 64
2, 267174, Note_on_c, 0, 75, 62
2, 267180, Note_on_c, 0, 60, 35
2, 267180, Note_on_c, 0, 56, 45
2, 267185, Note_on_c, 0, 66, 41
2, 267195, Note_off_c, 0, 74, 64
2, 267204, Control_c, 0, 64, 0
2, 267207, Control_c, 0, 64, 0
2, 267241, Control_c, 0, 64, 127
2, 267247, Control_c, 0, 64, 127
2, 267300, Note_off_c, 0, 75, 64
2, 267350, Note_off_c, 0, 56, 64
2, 267350, Note_off_c, 0, 60, 64
2, 267354, Note_on_c, 0, 75, 63
2, 267355, Note_off_c, 0, 66, 64
2, 267357, Note_on_c, 0, 56, 45
2, 267362, Note_on_c, 0, 66, 32
2, 267362, Note_on_c, 0, 60, 41
2, 267364, Control_c, 0, 64, 0
2, 267407, Control_c, 0, 64, 127
2, 267486, Note_off_c, 0, 75, 64
2, 267488, Note_on_c, 0, 77, 54
2, 267522, Note_on_c, 0, 75, 63
2, 267524, Control_c, 0, 64, 0
2, 267527, Note_off_c, 0, 56, 64
2, 267532, Note_off_c, 0, 60, 64
2, 267532, Note_off_c, 0, 66, 64
2, 267538, Control_c, 0, 64, 127
2, 267545, Note_off_c, 0, 77, 64
2, 267692, Note_on_c, 0, 66, 44
2, 267696, Note_on_c, 0, 55, 41
2, 267696, Note_on_c, 0, 60, 45
2, 267711, Control_c, 0, 64, 0
2, 267732, Control_c, 0, 64, 127
2, 267862, Note_off_c, 0, 66, 64
2, 267866, Note_off_c, 0, 60, 64
2, 267866, Note_off_c, 0, 55, 64
2, 267867, Note_on_c, 0, 74, 53
2, 267883, Note_on_c, 0, 55, 36
2, 267887, Note_on_c, 0, 67, 36
2, 267891, Note_off_c, 0, 75, 64
2, 267896, Note_on_c, 0, 59, 35
2, 267901, Control_c, 0, 64, 0
2, 267935, Control_c, 0, 64, 127
2, 268041, Control_c, 0, 64, 0
2, 268046, Note_off_c, 0, 59, 64
2, 268046, Note_on_c, 0, 72, 58
2, 268058, Note_off_c, 0, 74, 64
2, 268059, Note_off_c, 0, 67, 64
2, 268071, Control_c, 0, 64, 127
2, 268075, Note_off_c, 0, 55, 64
2, 268117, Note_on_c, 0, 74, 52
2, 268140, Note_off_c, 0, 72, 64
2, 268180, Note_on_c, 0, 66, 36
2, 268188, Note_on_c, 0, 60, 36
2, 268195, Note_on_c, 0, 75, 62
2, 268195, Note_on_c, 0, 56, 37
2, 268218, Control_c, 0, 64, 0
2, 268226, Note_off_c, 0, 74, 64
2, 268254, Control_c, 0, 64, 127
2, 268300, Note_off_c, 0, 75, 64
2, 268350, Note_off_c, 0, 66, 64
2, 268358, Note_off_c, 0, 60, 64
2, 268359, Note_on_c, 0, 75, 62
2, 268363, Note_on_c, 0, 66, 44
2, 268365, Note_off_c, 0, 56, 64
2, 268373, Note_on_c, 0, 56, 41
2, 268375, Note_on_c, 0, 60, 42
2, 268377, Control_c, 0, 64, 0
2, 268421, Control_c, 0, 64, 127
2, 268474, Note_off_c, 0, 56, 64
2, 268481, Note_off_c, 0, 60, 64
2, 268483, Note_on_c, 0, 77, 53
2, 268488, Note_off_c, 0, 75, 64
2, 268526, Note_off_c, 0, 66, 64
2, 268532, Note_on_c, 0, 75, 66
2, 268551, Note_off_c, 0, 77, 64
2, 268693, Note_on_c, 0, 56, 32
2, 268702, Note_on_c, 0, 59, 41
2, 268705, Note_on_c, 0, 65, 32
2, 268711, Control_c, 0, 64, 0
2, 268748, Control_c, 0, 64, 127
2, 268858, Note_off_c, 0, 56, 64
2, 268867, Note_off_c, 0, 59, 64
2, 268870, Note_off_c, 0, 65, 64
2, 268874, Note_on_c, 0, 56, 45
2, 268878, Note_on_c, 0, 74, 53
2, 268879, Note_on_c, 0, 58, 42
2, 268884, Note_on_c, 0, 65, 36
2, 268888, Note_off_c, 0, 75, 64
2, 268896, Control_c, 0, 64, 0
2, 268927, Control_c, 0, 64, 127
2, 269023, Note_off_c, 0, 58, 64
2, 269034, Control_c, 0, 64, 0
2, 269040, Note_off_c, 0, 56, 64
2, 269049, Note_off_c, 0, 65, 64
2, 269050, Note_on_c, 0, 82, 76
2, 269057, Note_off_c, 0, 74, 64
2, 269086, Control_c, 0, 64, 127
2, 269206, Note_on_c, 0, 55, 41
2, 269210, Note_on_c, 0, 65, 53
2, 269211, Note_on_c, 0, 58, 57
2, 269227, Control_c, 0, 64, 0
2, 269239, Control_c, 0, 64, 127
2, 269366, Note_off_c, 0, 55, 64
2, 269370, Note_off_c, 0, 65, 64
2, 269371, Note_off_c, 0, 58, 64
2, 269386, Note_on_c, 0, 64, 36
2, 269390, Note_on_c, 0, 73, 50
2, 269390, Note_on_c, 0, 55, 31
2, 269395, Note_on_c, 0, 58, 31
2, 269403, Control_c, 0, 64, 0
2, 269416, Note_off_c, 0, 82, 64
2, 269449, Control_c, 0, 64, 127
2, 269480, Note_off_c, 0, 58, 64
2, 269486, Note_off_c, 0, 55, 64
2, 269509, Note_off_c, 0, 64, 64
2, 269557, Note_off_c, 0, 73, 64
2, 269557, Note_on_c, 0, 81, 65
2, 269558, Control_c, 0, 64, 0
2, 269592, Control_c, 0, 64, 127
2, 269708, Note_on_c, 0, 55, 40
2, 269708, Note_on_c, 0, 64, 41
2, 269712, Note_on_c, 0, 57, 41
2, 269868, Note_off_c, 0, 64, 64
2, 269868, Note_off_c, 0, 55, 64
2, 269872, Note_off_c, 0, 57, 64
2, 269887, Note_on_c, 0, 72, 46
2, 269887, Note_on_c, 0, 54, 35
2, 269890, Note_on_c, 0, 63, 32
2, 269894, Note_on_c, 0, 57, 27
2, 269903, Note_off_c, 0, 81, 64
2, 269908, Control_c, 0, 64, 0
2, 269941, Control_c, 0, 64, 127
2, 270039, Note_off_c, 0, 54, 64
2, 270048, Note_on_c, 0, 80, 53
2, 270054, Note_off_c, 0, 57, 64
2, 270067, Note_off_c, 0, 63, 64
2, 270085, Note_off_c, 0, 72, 64
2, 270211, Note_on_c, 0, 53, 41
2, 270214, Note_on_c, 0, 63, 46
2, 270216, Note_on_c, 0, 56, 42
2, 270234, Control_c, 0, 64, 0
2, 270260, Control_c, 0, 64, 127
2, 270371, Note_off_c, 0, 53, 64
2, 270374, Note_off_c, 0, 63, 64
2, 270376, Note_off_c, 0, 56, 64
2, 270393, Note_on_c, 0, 71, 49
2, 270405, Note_on_c, 0, 56, 27
2, 270405, Note_on_c, 0, 53, 32
2, 270411, Note_off_c, 0, 80, 64
2, 270411, Note_on_c, 0, 62, 27
2, 270417, Control_c, 0, 64, 0
2, 270470, Control_c, 0, 64, 127
2, 270543, Note_off_c, 0, 56, 64
2, 270545, Note_off_c, 0, 53, 64
2, 270558, Note_off_c, 0, 62, 64
2, 270567, Note_on_c, 0, 79, 52
2, 270576, Note_off_c, 0, 71, 64
2, 270755, Note_on_c, 0, 62, 29
2, 270755, Note_on_c, 0, 55, 29
2, 270756, Note_on_c, 0, 52, 29
2, 270766, Control_c, 0, 64, 0
2, 270824, Control_c, 0, 64, 127
2, 270859, Note_on_c, 0, 70, 46
2, 270892, Note_off_c, 0, 79, 64
2, 270915, Note_off_c, 0, 55, 64
2, 270915, Note_off_c, 0, 62, 64
2, 270916, Note_off_c, 0, 52, 64
2, 270980, Note_on_c, 0, 52, 27
2, 270987, Note_on_c, 0, 55, 32
2, 270991, Note_on_c, 0, 69, 40
2, 270991, Note_on_c, 0, 61, 31
2, 271000, Control_c, 0, 64, 0
2, 271004, Note_off_c, 0, 70, 64
2, 271044, Control_c, 0, 64, 127
2, 271091, Note_on_c, 0, 76, 54
2, 271107, Note_off_c, 0, 69, 64
2, 271145, Note_off_c, 0, 52, 64
2, 271152, Note_off_c, 0, 55, 64
2, 271156, Note_off_c, 0, 61, 64
2, 271194, Note_on_c, 0, 77, 49
2, 271201, Note_on_c, 0, 53, 39
2, 271206, Note_on_c, 0, 62, 44
2, 271206, Note_on_c, 0, 50, 44
2, 271216, Note_off_c, 0, 76, 64
2, 271217, Control_c, 0, 64, 0
2, 271249, Control_c, 0, 64, 127
2, 271298, Note_on_c, 0, 76, 52
2, 271320, Note_off_c, 0, 77, 64
2, 271381, Note_off_c, 0, 53, 64
2, 271383, Note_on_c, 0, 74, 59
2, 271383, Control_c, 0, 64, 0
2, 271386, Note_off_c, 0, 50, 64
2, 271386, Note_off_c, 0, 62, 64
2, 271388, Note_on_c, 0, 62, 2
2, 271389, Note_on_c, 0, 65, 40
2, 271389, Note_on_c, 0, 57, 50
2, 271396, Control_c, 0, 64, 0
2, 271399, Note_off_c, 0, 76, 64
2, 271422, Control_c, 0, 64, 127
2, 271439, Control_c, 0, 64, 127
2, 271502, Note_off_c, 0, 62, 64
2, 271526, Note_off_c, 0, 57, 64
2, 271529, Note_off_c, 0, 65, 64
2, 271550, Note_on_c, 0, 62, 44
2, 271553, Note_on_c, 0, 65, 44
2, 271554, Note_on_c, 0, 57, 41
2, 271563, Note_on_c, 0, 77, 62
2, 271567, Control_c, 0, 64, 0
2, 271586, Note_off_c, 0, 74, 64
2, 271602, Control_c, 0, 64, 127
2, 271643, Note_off_c, 0, 77, 64
2, 271741, Note_on_c, 0, 77, 65
2, 271748, Control_c, 0, 64, 0
2, 271776, Note_off_c, 0, 57, 64
2, 271779, Note_off_c, 0, 62, 64
2, 271782, Note_off_c, 0, 65, 64
2, 271785, Control_c, 0, 64, 127
2, 271900, Note_on_c, 0, 60, 33
2, 271901, Note_on_c, 0, 65, 39
2, 271913, Note_on_c, 0, 57, 32
2, 272050, Note_off_c, 0, 60, 64
2, 272051, Note_off_c, 0, 65, 64
2, 272063, Note_off_c, 0, 57, 64
2, 272066, Note_on_c, 0, 60, 36
2, 272068, Note_on_c, 0, 76, 50
2, 272073, Note_on_c, 0, 57, 37
2, 272076, Note_on_c, 0, 64, 29
2, 272083, Control_c, 0, 64, 0
2, 272095, Note_off_c, 0, 77, 64
2, 272118, Control_c, 0, 64, 127
2, 272194, Note_off_c, 0, 76, 64
2, 272227, Note_off_c, 0, 64, 64
2, 272230, Note_off_c, 0, 60, 64
2, 272238, Note_off_c, 0, 57, 64
2, 272238, Note_on_c, 0, 74, 61
2, 272276, Note_on_c, 0, 76, 54
2, 272292, Note_off_c, 0, 74, 64
2, 272325, Note_on_c, 0, 74, 63
2, 272335, Note_off_c, 0, 76, 64
2, 272381, Note_on_c, 0, 73, 67
2, 272398, Note_off_c, 0, 74, 64
2, 272426, Control_c, 0, 64, 0
2, 272430, Note_on_c, 0, 74, 49
2, 272436, Note_on_c, 0, 62, 29
2, 272436, Note_on_c, 0, 56, 55
2, 272437, Note_on_c, 0, 52, 35
2, 272448, Note_off_c, 0, 73, 64
2, 272466, Control_c, 0, 64, 127
2, 272515, Note_on_c, 0, 75, 59
2, 272532, Note_off_c, 0, 74, 64
2, 272586, Note_off_c, 0, 56, 64
2, 272586, Note_off_c, 0, 62, 64
2, 272587, Note_off_c, 0, 52, 64
2, 272604, Note_on_c, 0, 52, 49
2, 272604, Note_on_c, 0, 56, 44
2, 272605, Note_on_c, 0, 76, 57
2, 272613, Note_on_c, 0, 62, 39
2, 272627, Control_c, 0, 64, 0
2, 272628, Note_off_c, 0, 75, 64
2, 272659, Control_c, 0, 64, 127
2, 272702, Note_on_c, 0, 71, 44
2, 272752, Note_off_c, 0, 76, 64
2, 272819, Note_on_c, 0, 74, 53
2, 272831, Note_off_c, 0, 71, 64
2, 272835, Note_off_c, 0, 52, 64
2, 272842, Control_c, 0, 64, 0
2, 272844, Note_off_c, 0, 56, 64
2, 272862, Note_off_c, 0, 62, 64
2, 272875, Control_c, 0, 64, 127
2, 273009, Note_on_c, 0, 62, 36
2, 273009, Note_on_c, 0, 57, 35
2, 273020, Note_on_c, 0, 53, 29
2, 273038, Control_c, 0, 64, 0
2, 273071, Control_c, 0, 64, 127
2, 273174, Note_off_c, 0, 57, 64
2, 273174, Note_off_c, 0, 62, 64
2, 273185, Note_off_c, 0, 53, 64
2, 273244, Note_on_c, 0, 72, 36
2, 273247, Note_on_c, 0, 53, 27
2, 273252, Note_on_c, 0, 57, 27
2, 273255, Note_on_c, 0, 60, 35
2, 273266, Note_off_c, 0, 74, 64
2, 273276, Control_c, 0, 64, 0
2, 273313, Control_c, 0, 64, 127
2, 273449, Note_off_c, 0, 53, 64
2, 273461, Note_off_c, 0, 57, 64
2, 273464, Note_off_c, 0, 72, 64
2, 273464, Note_on_c, 0, 69, 58
2, 273471, Note_off_c, 0, 60, 64
2, 273550, Note_on_c, 0, 70, 66
2, 273573, Note_off_c, 0, 69, 64
2, 273622, Note_on_c, 0, 69, 55
2, 273628, Note_off_c, 0, 70, 64
2, 273674, Note_on_c, 0, 63, 40
2, 273681, Note_on_c, 0, 53, 31
2, 273684, Note_on_c, 0, 60, 36
2, 273688, Note_on_c, 0, 67, 66
2, 273700, Control_c, 0, 64, 0
2, 273713, Note_off_c, 0, 69, 64
2, 273737, Control_c, 0, 64, 127
2, 273859, Note_off_c, 0, 63, 64
2, 273866, Note_off_c, 0, 53, 64
2, 273869, Note_off_c, 0, 60, 64
2, 273917, Note_on_c, 0, 69, 63
2, 273923, Note_on_c, 0, 53, 37
2, 273926, Note_on_c, 0, 63, 41
2, 273926, Note_on_c, 0, 60, 39
2, 273941, Control_c, 0, 64, 0
2, 273946, Note_off_c, 0, 67, 64
2, 273964, Control_c, 0, 64, 127
2, 274108, Note_off_c, 0, 53, 64
2, 274111, Note_off_c, 0, 60, 64
2, 274111, Note_off_c, 0, 63, 64
2, 274202, Note_on_c, 0, 70, 70
2, 274207, Note_on_c, 0, 62, 49
2, 274214, Note_on_c, 0, 58, 40
2, 274224, Note_off_c, 0, 69, 64
2, 274233, Control_c, 0, 64, 0
2, 274287, Control_c, 0, 64, 127
2, 274529, Note_on_c, 0, 74, 53
2, 274540, Note_on_c, 0, 65, 28
2, 274547, Note_off_c, 0, 70, 64
2, 274567, Control_c, 0, 64, 0
2, 274591, Note_off_c, 0, 62, 64
2, 274623, Control_c, 0, 64, 127
2, 274665, Note_off_c, 0, 58, 64
2, 274877, Note_off_c, 0, 65, 64
2, 274895, Note_off_c, 0, 74, 64
2, 275289, Note_on_c, 0, 69, 66
2, 275335, Control_c, 0, 64, 0
2, 275358, Control_c, 0, 64, 127
2, 275443, Note_on_c, 0, 68, 62
2, 275466, Note_off_c, 0, 69, 64
2, 275497, Note_on_c, 0, 64, 70
2, 275508, Note_on_c, 0, 62, 71
2, 275517, Note_on_c, 0, 52, 65
2, 275520, Note_off_c, 0, 68, 64
2, 275525, Control_c, 0, 64, 0
2, 275558, Control_c, 0, 64, 127
2, 275658, Note_off_c, 0, 62, 64
2, 275667, Note_off_c, 0, 52, 64
2, 275672, Note_on_c, 0, 68, 67
2, 275678, Note_on_c, 0, 62, 70
2, 275678, Note_on_c, 0, 52, 62
2, 275687, Note_off_c, 0, 64, 64
2, 275692, Control_c, 0, 64, 0
2, 275715, Control_c, 0, 64, 127
2, 275828, Note_off_c, 0, 52, 64
2, 275828, Note_off_c, 0, 62, 64
2, 275845, Note_on_c, 0, 69, 72
2, 275851, Note_on_c, 0, 60, 63
2, 275851, Note_on_c, 0, 45, 54
2, 275858, Note_off_c, 0, 68, 64
2, 275860, Note_on_c, 0, 52, 37
2, 275860, Control_c, 0, 64, 0
2, 275901, Control_c, 0, 64, 127
2, 275999, Note_off_c, 0, 60, 64
2, 276032, Note_on_c, 0, 33, 67
2, 276049, Note_off_c, 0, 69, 64
2, 276091, Note_off_c, 0, 45, 64
2, 276100, Note_off_c, 0, 52, 64
2, 276188, Note_off_c, 0, 33, 64
2, 276222, Note_on_c, 0, 71, 45
2, 276245, Control_c, 0, 64, 0
2, 276260, Control_c, 0, 64, 127
2, 276435, Note_on_c, 0, 72, 44
2, 276443, Note_off_c, 0, 71, 64
2, 276528, Note_on_c, 0, 74, 41
2, 276550, Note_off_c, 0, 72, 64
2, 276606, Control_c, 0, 64, 0
2, 276612, Note_on_c, 0, 75, 46
2, 276612, Note_on_c, 0, 56, 28
2, 276617, Note_on_c, 0, 66, 24
2, 276620, Note_on_c, 0, 60, 31
2, 276630, Note_off_c, 0, 74, 64
2, 276669, Control_c, 0, 64, 127
2, 276739, Note_off_c, 0, 75, 64
2, 276762, Note_off_c, 0, 56, 64
2, 276767, Note_off_c, 0, 66, 64
2, 276770, Note_off_c, 0, 60, 64
2, 276781, Note_on_c, 0, 75, 49
2, 276784, Note_on_c, 0, 56, 31
2, 276790, Note_on_c, 0, 66, 26
2, 276794, Note_on_c, 0, 60, 31
2, 276804, Control_c, 0, 64, 0
2, 276835, Control_c, 0, 64, 127
2, 276919, Note_off_c, 0, 75, 64
2, 276924, Note_off_c, 0, 60, 64
2, 276924, Note_on_c, 0, 77, 41
2, 276934, Note_off_c, 0, 56, 64
2, 276944, Note_off_c, 0, 66, 64
2, 276965, Note_on_c, 0, 75, 49
2, 276990, Note_off_c, 0, 77, 64
2, 277129, Note_on_c, 0, 55, 26
2, 277140, Note_on_c, 0, 60, 31
2, 277143, Note_on_c, 0, 66, 15
2, 277151, Control_c, 0, 64, 0
2, 277186, Control_c, 0, 64, 127
2, 277279, Note_off_c, 0, 55, 64
2, 277290, Note_off_c, 0, 60, 64
2, 277293, Note_off_c, 0, 66, 64
2, 277322, Note_on_c, 0, 55, 26
2, 277327, Note_on_c, 0, 59, 39
2, 277327, Note_on_c, 0, 74, 46
2, 277343, Note_on_c, 0, 67, 36
2, 277348, Note_off_c, 0, 75, 64
2, 277356, Control_c, 0, 64, 0
2, 277384, Control_c, 0, 64, 127
2, 277447, Note_off_c, 0, 67, 64
2, 277509, Note_on_c, 0, 72, 41
2, 277512, Control_c, 0, 64, 0
2, 277517, Note_off_c, 0, 74, 64
2, 277523, Note_off_c, 0, 55, 64
2, 277528, Note_off_c, 0, 59, 64
2, 277540, Control_c, 0, 64, 127
2, 277587, Note_on_c, 0, 74, 36
2, 277613, Note_off_c, 0, 72, 64
2, 277664, Note_on_c, 0, 60, 33
2, 277667, Note_on_c, 0, 56, 31
2, 277669, Note_on_c, 0, 75, 46
2, 277669, Note_on_c, 0, 66, 26
2, 277688, Control_c, 0, 64, 0
2, 277720, Note_off_c, 0, 74, 64
2, 277721, Control_c, 0, 64, 127
2, 277763, Note_off_c, 0, 75, 64
2, 277814, Note_off_c, 0, 60, 64
2, 277817, Note_off_c, 0, 56, 64
2, 277819, Note_off_c, 0, 66, 64
2, 277831, Note_on_c, 0, 75, 49
2, 277838, Note_on_c, 0, 66, 36
2, 277838, Note_on_c, 0, 56, 36
2, 277842, Note_on_c, 0, 60, 36
2, 277849, Control_c, 0, 64, 0
2, 277892, Control_c, 0, 64, 127
2, 277952, Note_off_c, 0, 60, 64
2, 277959, Note_off_c, 0, 75, 64
2, 277959, Note_on_c, 0, 77, 41
2, 277974, Note_off_c, 0, 56, 64
2, 277989, Note_off_c, 0, 66, 64
2, 278002, Note_on_c, 0, 75, 46
2, 278018, Note_off_c, 0, 77, 64
2, 278166, Note_on_c, 0, 56, 31
2, 278173, Note_on_c, 0, 59, 37
2, 278177, Note_on_c, 0, 65, 27
2, 278188, Control_c, 0, 64, 0
2, 278220, Control_c, 0, 64, 127
2, 278316, Note_off_c, 0, 56, 64
2, 278323, Note_off_c, 0, 59, 64
2, 278327, Note_off_c, 0, 65, 64
2, 278348, Note_on_c, 0, 56, 28
2, 278349, Note_on_c, 0, 58, 31
2, 278349, Note_on_c, 0, 74, 40
2, 278357, Note_off_c, 0, 75, 64
2, 278361, Note_on_c, 0, 65, 26
2, 278368, Control_c, 0, 64, 0
2, 278411, Control_c, 0, 64, 127
2, 278521, Note_off_c, 0, 58, 64
2, 278526, Note_off_c, 0, 56, 64
2, 278526, Control_c, 0, 64, 0
2, 278532, Note_on_c, 0, 82, 63
2, 278535, Note_off_c, 0, 65, 64
2, 278558, Note_off_c, 0, 74, 64
2, 278564, Control_c, 0, 64, 127
2, 278686, Note_on_c, 0, 65, 32
2, 278686, Note_on_c, 0, 58, 28
2, 278686, Note_on_c, 0, 55, 35
2, 278703, Control_c, 0, 64, 0
2, 278738, Control_c, 0, 64, 127
2, 278836, Note_off_c, 0, 55, 64
2, 278836, Note_off_c, 0, 58, 64
2, 278836, Note_off_c, 0, 65, 64
2, 278855, Note_on_c, 0, 73, 41
2, 278861, Note_on_c, 0, 58, 29
2, 278867, Note_on_c, 0, 55, 32
2, 278868, Note_on_c, 0, 64, 27
2, 278877, Note_off_c, 0, 82, 64
2, 278887, Control_c, 0, 64, 0
2, 278930, Control_c, 0, 64, 127
2, 279017, Note_off_c, 0, 55, 64
2, 279027, Note_off_c, 0, 58, 64
2, 279036, Note_on_c, 0, 81, 55
2, 279041, Note_off_c, 0, 64, 64
2, 279045, Note_off_c, 0, 73, 64
2, 279187, Note_on_c, 0, 55, 27
2, 279189, Note_on_c, 0, 64, 28
2, 279189, Note_on_c, 0, 57, 33
2, 279210, Control_c, 0, 64, 0
2, 279240, Control_c, 0, 64, 127
2, 279337, Note_off_c, 0, 55, 64
2, 279339, Note_off_c, 0, 57, 64
2, 279339, Note_off_c, 0, 64, 64
2, 279368, Note_on_c, 0, 63, 35
2, 279372, Note_on_c, 0, 57, 1
2, 279373, Note_on_c, 0, 72, 35
2, 279373, Note_on_c, 0, 54, 28
2, 279380, Note_off_c, 0, 81, 64
2, 279390, Control_c, 0, 64, 0
2, 279435, Control_c, 0, 64, 127
2, 279461, Note_off_c, 0, 57, 64
2, 279526, Note_off_c, 0, 54, 64
2, 279534, Note_off_c, 0, 63, 64
2, 279538, Note_on_c, 0, 80, 45
2, 279569, Note_off_c, 0, 72, 64
2, 279703, Note_on_c, 0, 63, 26
2, 279703, Note_on_c, 0, 56, 31
2, 279703, Note_on_c, 0, 53, 31
2, 279713, Control_c, 0, 64, 0
2, 279759, Control_c, 0, 64, 127
2, 279853, Note_off_c, 0, 53, 64
2, 279853, Note_off_c, 0, 56, 64
2, 279853, Note_off_c, 0, 63, 64
2, 279871, Note_on_c, 0, 71, 44
2, 279886, Note_off_c, 0, 80, 64
2, 279886, Note_on_c, 0, 56, 26
2, 279892, Note_on_c, 0, 53, 26
2, 279893, Note_on_c, 0, 62, 28
2, 279909, Control_c, 0, 64, 0
2, 279960, Control_c, 0, 64, 127
2, 280025, Note_off_c, 0, 53, 64
2, 280037, Note_off_c, 0, 56, 64
2, 280044, Note_on_c, 0, 79, 46
2, 280053, Note_off_c, 0, 62, 64
2, 280060, Note_off_c, 0, 71, 64
2, 280228, Note_on_c, 0, 52, 24
2, 280228, Note_on_c, 0, 55, 28
2, 280228, Note_on_c, 0, 62, 26
2, 280250, Control_c, 0, 64, 0
2, 280299, Control_c, 0, 64, 127
2, 280341, Note_on_c, 0, 70, 42
2, 280366, Note_off_c, 0, 79, 64
2, 280418, Note_off_c, 0, 62, 64
2, 280418, Note_off_c, 0, 55, 64
2, 280418, Note_off_c, 0, 52, 64
2, 280460, Note_on_c, 0, 52, 24
2, 280463, Note_on_c, 0, 69, 36
2, 280469, Note_off_c, 0, 70, 64
2, 280469, Note_on_c, 0, 61, 23
2, 280473, Note_on_c, 0, 55, 24
2, 280483, Control_c, 0, 64, 0
2, 280516, Control_c, 0, 64, 127
2, 280544, Note_off_c, 0, 52, 64
2, 280552, Note_off_c, 0, 55, 64
2, 280560, Note_on_c, 0, 76, 41
2, 280566, Note_off_c, 0, 69, 64
2, 280568, Note_off_c, 0, 61, 64
2, 280659, Note_on_c, 0, 77, 41
2, 280674, Note_off_c, 0, 76, 64
2, 280676, Note_on_c, 0, 62, 31
2, 280676, Note_on_c, 0, 53, 27
2, 280682, Note_on_c, 0, 50, 29
2, 280689, Control_c, 0, 64, 0
2, 280722, Control_c, 0, 64, 127
2, 280761, Note_on_c, 0, 76, 52
2, 280791, Note_off_c, 0, 77, 64
2, 280826, Note_off_c, 0, 53, 64
2, 280826, Note_off_c, 0, 62, 64
2, 280832, Note_off_c, 0, 50, 64
2, 280847, Note_on_c, 0, 74, 52
2, 280848, Note_on_c, 0, 62, 37
2, 280852, Note_on_c, 0, 57, 26
2, 280855, Note_on_c, 0, 65, 39
2, 280856, Control_c, 0, 64, 0
2, 280865, Note_off_c, 0, 76, 64
2, 280875, Control_c, 0, 64, 127
2, 280998, Note_off_c, 0, 62, 64
2, 281002, Note_off_c, 0, 57, 64
2, 281005, Note_off_c, 0, 65, 64
2, 281015, Note_on_c, 0, 62, 35
2, 281015, Note_on_c, 0, 57, 40
2, 281019, Note_on_c, 0, 77, 52
2, 281019, Note_on_c, 0, 65, 35
2, 281028, Control_c, 0, 64, 0
2, 281038, Note_off_c, 0, 74, 64
2, 281052, Control_c, 0, 64, 127
2, 281084, Note_off_c, 0, 77, 64
2, 281186, Control_c, 0, 64, 0
2, 281196, Note_on_c, 0, 77, 62
2, 281208, Note_off_c, 0, 57, 64
2, 281209, Note_off_c, 0, 65, 64
2, 281220, Note_off_c, 0, 62, 64
2, 281235, Control_c, 0, 64, 127
2, 281354, Note_on_c, 0, 65, 36
2, 281358, Note_on_c, 0, 60, 37
2, 281362, Note_on_c, 0, 57, 35
2, 281504, Note_off_c, 0, 65, 64
2, 281508, Note_off_c, 0, 60, 64
2, 281512, Note_off_c, 0, 57, 64
2, 281534, Note_on_c, 0, 76, 41
2, 281537, Note_on_c, 0, 64, 28
2, 281537, Note_on_c, 0, 60, 27
2, 281542, Note_on_c, 0, 57, 28
2, 281553, Note_off_c, 0, 77, 64
2, 281553, Control_c, 0, 64, 0
2, 281587, Control_c, 0, 64, 127
2, 281643, Note_off_c, 0, 76, 64
2, 281679, Note_on_c, 0, 74, 46
2, 281691, Note_off_c, 0, 64, 64
2, 281694, Note_off_c, 0, 60, 64
2, 281701, Note_off_c, 0, 57, 64
2, 281727, Note_on_c, 0, 76, 41
2, 281750, Note_off_c, 0, 74, 64
2, 281760, Note_on_c, 0, 74, 46
2, 281775, Note_off_c, 0, 76, 64
2, 281814, Note_on_c, 0, 73, 55
2, 281833, Note_off_c, 0, 74, 64
2, 281840, Note_on_c, 0, 56, 27
2, 281844, Note_on_c, 0, 52, 18
2, 281845, Note_on_c, 0, 62, 27
2, 281851, Control_c, 0, 64, 0
2, 281868, Note_on_c, 0, 74, 45
2, 281886, Note_off_c, 0, 73, 64
2, 281901, Control_c, 0, 64, 127
2, 281947, Note_on_c, 0, 75, 46
2, 281968, Note_off_c, 0, 74, 64
2, 281980, Note_off_c, 0, 56, 64
2, 281984, Note_off_c, 0, 52, 64
2, 281985, Note_off_c, 0, 62, 64
2, 282017, Note_on_c, 0, 56, 18
2, 282022, Note_on_c, 0, 62, 22
2, 282024, Note_on_c, 0, 52, 23
2, 282037, Control_c, 0, 64, 0
2, 282043, Note_on_c, 0, 76, 39
2, 282064, Control_c, 0, 64, 127
2, 282070, Note_off_c, 0, 75, 64
2, 282123, Note_on_c, 0, 71, 41
2, 282168, Note_off_c, 0, 76, 64
2, 282180, Note_off_c, 0, 71, 64
2, 282218, Note_off_c, 0, 52, 64
2, 282226, Note_on_c, 0, 74, 44
2, 282238, Note_off_c, 0, 56, 64
2, 282267, Note_off_c, 0, 62, 64
2, 282473, Note_on_c, 0, 57, 22
2, 282480, Note_on_c, 0, 62, 22
2, 282482, Note_on_c, 0, 53, 22
2, 282505, Control_c, 0, 64, 0
2, 282551, Control_c, 0, 64, 127
2, 282668, Note_off_c, 0, 57, 64
2, 282675, Note_off_c, 0, 62, 64
2, 282677, Note_off_c, 0, 53, 64
2, 282778, Note_on_c, 0, 72, 32
2, 282788, Note_on_c, 0, 57, 26
2, 282795, Note_on_c, 0, 60, 27
2, 282795, Note_on_c, 0, 53, 20
2, 282803, Note_off_c, 0, 74, 64
2, 282828, Control_c, 0, 64, 0
2, 282875, Control_c, 0, 64, 127
2, 282967, Note_off_c, 0, 57, 64
2, 283016, Note_off_c, 0, 53, 64
2, 283028, Note_off_c, 0, 72, 64
2, 283032, Note_on_c, 0, 69, 48
2, 283038, Note_off_c, 0, 60, 64
2, 283098, Note_on_c, 0, 70, 59
2, 283115, Note_off_c, 0, 69, 64
2, 283164, Note_on_c, 0, 69, 45
2, 283181, Note_off_c, 0, 70, 64
2, 283215, Note_on_c, 0, 63, 41
2, 283222, Note_on_c, 0, 67, 52
2, 283224, Note_on_c, 0, 53, 33
2, 283225, Note_on_c, 0, 60, 32
2, 283232, Control_c, 0, 64, 0
2, 283248, Note_off_c, 0, 69, 64
2, 283274, Control_c, 0, 64, 127
2, 283405, Note_off_c, 0, 63, 64
2, 283414, Note_off_c, 0, 53, 64
2, 283415, Note_off_c, 0, 60, 64
2, 283455, Note_on_c, 0, 69, 52
2, 283463, Note_on_c, 0, 63, 32
2, 283465, Note_on_c, 0, 53, 28
2, 283470, Note_on_c, 0, 60, 31
2, 283488, Note_off_c, 0, 67, 64
2, 283493, Control_c, 0, 64, 0
2, 283508, Control_c, 0, 64, 127
2, 283653, Note_off_c, 0, 63, 64
2, 283655, Note_off_c, 0, 53, 64
2, 283660, Note_off_c, 0, 60, 64
2, 283743, Note_on_c, 0, 70, 48
2, 283750, Note_on_c, 0, 58, 32
2, 283751, Note_on_c, 0, 62, 36
2, 283765, Note_off_c, 0, 69, 64
2, 283788, Control_c, 0, 64, 0
2, 283840, Control_c, 0, 64, 127
2, 284130, Note_on_c, 0, 74, 41
2, 284139, Note_on_c, 0, 65, 23
2, 284149, Note_off_c, 0, 70, 64
2, 284191, Control_c, 0, 64, 0
2, 284204, Note_off_c, 0, 62, 64
2, 284242, Control_c, 0, 64, 127
2, 284430, Note_off_c, 0, 58, 64
2, 284547, Note_off_c, 0, 65, 64
2, 284559, Note_off_c, 0, 74, 64
2, 284664, Note_on_c, 0, 69, 45
2, 284687, Control_c, 0, 64, 0
2, 284725, Control_c, 0, 64, 127
2, 284805, Note_on_c, 0, 68, 49
2, 284814, Note_off_c, 0, 69, 64
2, 284850, Note_on_c, 0, 64, 46
2, 284858, Note_on_c, 0, 52, 52
2, 284861, Note_on_c, 0, 62, 53
2, 284864, Note_on_c, 0, 59, 49
2, 284865, Note_off_c, 0, 68, 64
2, 284881, Control_c, 0, 64, 0
2, 284903, Control_c, 0, 64, 127
2, 285008, Note_off_c, 0, 52, 64
2, 285011, Note_off_c, 0, 62, 64
2, 285014, Note_off_c, 0, 59, 64
2, 285036, Note_on_c, 0, 68, 55
2, 285043, Note_on_c, 0, 52, 46
2, 285045, Note_on_c, 0, 62, 55
2, 285050, Note_on_c, 0, 59, 41
2, 285052, Note_off_c, 0, 64, 64
2, 285058, Control_c, 0, 64, 0
2, 285083, Control_c, 0, 64, 127
2, 285193, Note_off_c, 0, 52, 64
2, 285195, Note_off_c, 0, 62, 64
2, 285200, Note_off_c, 0, 59, 64
2, 285233, Note_on_c, 0, 69, 61
2, 285245, Note_off_c, 0, 68, 64
2, 285250, Control_c, 0, 64, 0
2, 285281, Control_c, 0, 64, 127
2, 285417, Note_on_c, 0, 45, 35
2, 285420, Note_on_c, 0, 57, 28
2, 285428, Note_on_c, 0, 61, 39
2, 285430, Note_on_c, 0, 64, 41
2, 285567, Note_off_c, 0, 45, 64
2, 285570, Note_off_c, 0, 57, 64
2, 285573, Note_off_c, 0, 61, 64
2, 285575, Note_off_c, 0, 64, 64
2, 285604, Note_on_c, 0, 61, 39
2, 285610, Note_off_c, 0, 69, 64
2, 285611, Note_on_c, 0, 45, 29
2, 285612, Note_on_c, 0, 64, 39
2, 285616, Note_on_c, 0, 57, 28
2, 285749, Note_off_c, 0, 61, 64
2, 285757, Note_off_c, 0, 64, 64
2, 285792, Note_on_c, 0, 67, 46
2, 285794, Note_on_c, 0, 73, 52
2, 285840, Note_off_c, 0, 67, 64
2, 285844, Note_off_c, 0, 73, 64
2, 285921, Note_on_c, 0, 67, 39
2, 285923, Note_on_c, 0, 73, 48
2, 285956, Note_off_c, 0, 67, 64
2, 285979, Note_on_c, 0, 74, 52
2, 285980, Note_off_c, 0, 73, 64
2, 285981, Note_on_c, 0, 66, 50
2, 285988, Note_on_c, 0, 50, 48
2, 285994, Note_off_c, 0, 57, 64
2, 286011, Note_off_c, 0, 45, 64
2, 286128, Note_off_c, 0, 66, 64
2, 286140, Note_off_c, 0, 74, 64
2, 286163, Note_on_c, 0, 71, 45
2, 286163, Note_on_c, 0, 65, 39
2, 286163, Note_on_c, 0, 38, 52
2, 286173, Control_c, 0, 64, 0
2, 286178, Note_off_c, 0, 50, 64
2, 286200, Control_c, 0, 64, 127
2, 286337, Note_on_c, 0, 68, 50
2, 286340, Note_off_c, 0, 65, 64
2, 286340, Note_off_c, 0, 71, 64
2, 286345, Note_on_c, 0, 40, 46
2, 286350, Note_on_c, 0, 62, 46
2, 286362, Control_c, 0, 64, 0
2, 286378, Note_off_c, 0, 38, 64
2, 286397, Control_c, 0, 64, 127
2, 286438, Note_off_c, 0, 62, 64
2, 286479, Note_off_c, 0, 68, 64
2, 286485, Note_on_c, 0, 64, 36
2, 286525, Note_on_c, 0, 69, 46
2, 286525, Note_on_c, 0, 61, 46
2, 286525, Note_on_c, 0, 45, 45
2, 286546, Control_c, 0, 64, 0
2, 286551, Note_off_c, 0, 64, 64
2, 286560, Note_off_c, 0, 40, 64
2, 286596, Control_c, 0, 64, 127
2, 286631, Note_off_c, 0, 61, 64
2, 286649, Note_off_c, 0, 69, 64
2, 286721, Note_on_c, 0, 52, 36
2, 286740, Note_off_c, 0, 45, 64
2, 286806, Note_on_c, 0, 71, 37
2, 286808, Note_on_c, 0, 68, 45
2, 286903, Note_on_c, 0, 73, 46
2, 286903, Control_c, 0, 64, 0
2, 286908, Note_on_c, 0, 57, 46
2, 286913, Note_off_c, 0, 68, 64
2, 286913, Note_on_c, 0, 67, 50
2, 286924, Note_off_c, 0, 52, 64
2, 286926, Note_off_c, 0, 71, 64
2, 286944, Control_c, 0, 64, 127
2, 286985, Note_off_c, 0, 73, 64
2, 287032, Note_off_c, 0, 67, 64
2, 287040, Note_on_c, 0, 76, 36
2, 287087, Note_on_c, 0, 74, 44
2, 287087, Control_c, 0, 64, 0
2, 287096, Note_on_c, 0, 66, 57
2, 287100, Note_on_c, 0, 50, 49
2, 287103, Note_off_c, 0, 76, 64
2, 287119, Control_c, 0, 64, 127
2, 287123, Note_off_c, 0, 57, 64
2, 287188, Note_off_c, 0, 66, 64
2, 287244, Note_off_c, 0, 74, 64
2, 287271, Note_on_c, 0, 38, 39
2, 287276, Note_on_c, 0, 71, 46
2, 287276, Note_on_c, 0, 65, 41
2, 287279, Control_c, 0, 64, 0
2, 287315, Note_off_c, 0, 50, 64
2, 287319, Control_c, 0, 64, 127
2, 287453, Note_off_c, 0, 65, 64
2, 287453, Note_off_c, 0, 71, 64
2, 287455, Note_on_c, 0, 68, 48
2, 287457, Note_on_c, 0, 62, 36
2, 287463, Note_on_c, 0, 40, 50
2, 287472, Control_c, 0, 64, 0
2, 287486, Note_off_c, 0, 38, 64
2, 287506, Control_c, 0, 64, 127
2, 287515, Note_on_c, 0, 66, 45
2, 287520, Note_off_c, 0, 68, 64
2, 287536, Note_off_c, 0, 62, 64
2, 287574, Note_on_c, 0, 64, 37
2, 287584, Note_off_c, 0, 66, 64
2, 287639, Note_on_c, 0, 69, 50
2, 287640, Note_on_c, 0, 61, 49
2, 287645, Note_on_c, 0, 45, 36
2, 287649, Control_c, 0, 64, 0
2, 287659, Note_off_c, 0, 64, 64
2, 287678, Note_off_c, 0, 40, 64
2, 287705, Control_c, 0, 64, 127
2, 287811, Note_on_c, 0, 52, 42
2, 287816, Note_off_c, 0, 69, 64
2, 287817, Note_off_c, 0, 61, 64
2, 287860, Note_off_c, 0, 45, 64
2, 287908, Note_on_c, 0, 71, 28
2, 287911, Note_on_c, 0, 68, 31
2, 287951, Note_off_c, 0, 71, 64
2, 287975, Note_off_c, 0, 68, 64
2, 288001, Control_c, 0, 64, 0
2, 288010, Note_on_c, 0, 73, 53
2, 288010, Note_on_c, 0, 67, 57
2, 288015, Note_on_c, 0, 57, 44
2, 288022, Note_off_c, 0, 52, 64
2, 288036, Note_off_c, 0, 73, 64
2, 288042, Note_off_c, 0, 67, 64
2, 288045, Control_c, 0, 64, 127
2, 288079, Note_on_c, 0, 67, 50
2, 288084, Note_on_c, 0, 73, 53
2, 288111, Note_off_c, 0, 67, 64
2, 288113, Note_off_c, 0, 73, 64
2, 288136, Note_on_c, 0, 73, 50
2, 288144, Note_on_c, 0, 67, 45
2, 288174, Note_off_c, 0, 67, 64
2, 288174, Note_off_c, 0, 73, 64
2, 288210, Control_c, 0, 64, 0
2, 288214, Note_on_c, 0, 74, 54
2, 288217, Note_on_c, 0, 66, 58
2, 288220, Note_off_c, 0, 57, 64
2, 288227, Note_on_c, 0, 50, 46
2, 288230, Control_c, 0, 64, 127
2, 288295, Note_off_c, 0, 66, 64
2, 288373, Note_off_c, 0, 74, 64
2, 288396, Note_on_c, 0, 71, 52
2, 288400, Note_on_c, 0, 65, 50
2, 288400, Note_on_c, 0, 38, 41
2, 288409, Control_c, 0, 64, 0
2, 288431, Control_c, 0, 64, 127
2, 288435, Note_off_c, 0, 71, 64
2, 288442, Note_off_c, 0, 50, 64
2, 288452, Note_off_c, 0, 65, 64
2, 288568, Note_on_c, 0, 62, 36
2, 288574, Note_on_c, 0, 68, 53
2, 288587, Note_on_c, 0, 40, 41
2, 288598, Note_off_c, 0, 62, 64
2, 288615, Note_off_c, 0, 38, 64
2, 288616, Note_off_c, 0, 68, 64
2, 288632, Note_on_c, 0, 62, 37
2, 288633, Note_on_c, 0, 66, 59
2, 288684, Note_off_c, 0, 66, 64
2, 288686, Note_off_c, 0, 62, 64
2, 288696, Note_on_c, 0, 62, 37
2, 288700, Note_on_c, 0, 64, 50
2, 288746, Note_off_c, 0, 64, 64
2, 288750, Note_off_c, 0, 62, 64
2, 288766, Note_on_c, 0, 69, 52
2, 288766, Note_on_c, 0, 61, 58
2, 288770, Note_on_c, 0, 45, 37
2, 288778, Control_c, 0, 64, 0
2, 288802, Note_off_c, 0, 40, 64
2, 288822, Control_c, 0, 64, 127
2, 288882, Note_off_c, 0, 61, 64
2, 288886, Note_off_c, 0, 69, 64
2, 288947, Note_on_c, 0, 52, 41
2, 288985, Note_off_c, 0, 45, 64
2, 289028, Note_on_c, 0, 68, 46
2, 289030, Note_on_c, 0, 71, 50
2, 289067, Note_off_c, 0, 71, 64
2, 289073, Note_off_c, 0, 68, 64
2, 289128, Note_on_c, 0, 67, 48
2, 289128, Control_c, 0, 64, 0
2, 289135, Note_on_c, 0, 73, 65
2, 289135, Note_on_c, 0, 57, 48
2, 289148, Control_c, 0, 64, 127
2, 289151, Note_off_c, 0, 67, 64
2, 289162, Note_off_c, 0, 52, 64
2, 289170, Note_off_c, 0, 73, 64
2, 289207, Note_on_c, 0, 74, 52
2, 289208, Note_on_c, 0, 67, 42
2, 289242, Note_off_c, 0, 67, 64
2, 289261, Note_off_c, 0, 74, 64
2, 289272, Note_on_c, 0, 76, 57
2, 289276, Note_on_c, 0, 67, 50
2, 289322, Note_off_c, 0, 76, 64
2, 289327, Note_off_c, 0, 67, 64
2, 289345, Note_on_c, 0, 66, 62
2, 289346, Note_on_c, 0, 74, 52
2, 289350, Note_off_c, 0, 57, 64
2, 289355, Note_on_c, 0, 50, 45
2, 289355, Control_c, 0, 64, 0
2, 289369, Control_c, 0, 64, 127
2, 289423, Note_off_c, 0, 74, 64
2, 289427, Note_off_c, 0, 66, 64
2, 289532, Note_on_c, 0, 65, 50
2, 289538, Note_on_c, 0, 71, 45
2, 289549, Note_on_c, 0, 38, 29
2, 289552, Control_c, 0, 64, 0
2, 289565, Note_off_c, 0, 50, 64
2, 289587, Note_off_c, 0, 71, 64
2, 289590, Control_c, 0, 64, 127
2, 289597, Note_off_c, 0, 65, 64
2, 289737, Note_on_c, 0, 68, 52
2, 289737, Control_c, 0, 64, 0
2, 289742, Note_on_c, 0, 40, 55
2, 289742, Note_on_c, 0, 62, 45
2, 289755, Control_c, 0, 64, 127
2, 289764, Note_off_c, 0, 38, 64
2, 289785, Note_off_c, 0, 62, 64
2, 289797, Note_on_c, 0, 66, 59
2, 289805, Note_on_c, 0, 62, 35
2, 289808, Note_off_c, 0, 68, 64
2, 289855, Note_off_c, 0, 62, 64
2, 289855, Note_off_c, 0, 66, 64
2, 289868, Note_on_c, 0, 62, 45
2, 289868, Note_on_c, 0, 64, 45
2, 289914, Note_off_c, 0, 64, 64
2, 289919, Note_on_c, 0, 61, 50
2, 289922, Note_off_c, 0, 62, 64
2, 289922, Note_on_c, 0, 69, 53
2, 289928, Note_on_c, 0, 45, 45
2, 289937, Control_c, 0, 64, 0
2, 289957, Note_off_c, 0, 40, 64
2, 289990, Control_c, 0, 64, 127
2, 290079, Note_off_c, 0, 61, 64
2, 290093, Note_off_c, 0, 69, 64
2, 290126, Note_on_c, 0, 57, 49
2, 290143, Note_off_c, 0, 45, 64
2, 290308, Note_on_c, 0, 61, 61
2, 290311, Note_on_c, 0, 73, 63
2, 290311, Note_on_c, 0, 54, 55
2, 290312, Note_on_c, 0, 69, 54
2, 290328, Control_c, 0, 64, 0
2, 290341, Note_off_c, 0, 57, 64
2, 290348, Note_off_c, 0, 69, 64
2, 290363, Note_off_c, 0, 73, 64
2, 290363, Note_off_c, 0, 61, 64
2, 290367, Control_c, 0, 64, 127
2, 290431, Note_on_c, 0, 73, 61
2, 290432, Note_on_c, 0, 69, 54
2, 290435, Note_on_c, 0, 61, 53
2, 290463, Note_off_c, 0, 69, 64
2, 290464, Note_off_c, 0, 73, 64
2, 290484, Note_on_c, 0, 71, 66
2, 290486, Note_on_c, 0, 74, 57
2, 290494, Note_on_c, 0, 62, 67
2, 290497, Note_off_c, 0, 61, 64
2, 290515, Control_c, 0, 64, 0
2, 290545, Note_off_c, 0, 71, 64
2, 290548, Control_c, 0, 64, 127
2, 290676, Note_on_c, 0, 59, 55
2, 290680, Note_on_c, 0, 68, 59
2, 290681, Note_off_c, 0, 74, 64
2, 290683, Note_on_c, 0, 71, 49
2, 290690, Control_c, 0, 64, 0
2, 290710, Note_off_c, 0, 62, 64
2, 290714, Control_c, 0, 64, 127
2, 290731, Note_off_c, 0, 68, 64
2, 290741, Note_off_c, 0, 59, 64
2, 290754, Note_off_c, 0, 71, 64
2, 290766, Note_off_c, 0, 54, 64
2, 290844, Note_on_c, 0, 54, 33
2, 290857, Note_on_c, 0, 61, 62
2, 290857, Note_on_c, 0, 73, 57
2, 290862, Note_on_c, 0, 69, 62
2, 290910, Note_off_c, 0, 73, 64
2, 290916, Note_on_c, 0, 68, 57
2, 290917, Note_off_c, 0, 69, 64
2, 290917, Note_on_c, 0, 59, 57
2, 290920, Note_off_c, 0, 61, 64
2, 290920, Note_on_c, 0, 71, 53
2, 290962, Note_off_c, 0, 68, 64
2, 290976, Note_on_c, 0, 57, 53
2, 290978, Note_on_c, 0, 69, 57
2, 290980, Note_on_c, 0, 66, 59
2, 290981, Note_off_c, 0, 71, 64
2, 290989, Note_off_c, 0, 59, 64
2, 291008, Note_off_c, 0, 66, 64
2, 291017, Note_off_c, 0, 69, 64
2, 291040, Note_on_c, 0, 74, 66
2, 291040, Note_on_c, 0, 71, 53
2, 291047, Note_on_c, 0, 62, 59
2, 291048, Control_c, 0, 64, 0
2, 291064, Note_off_c, 0, 57, 64
2, 291095, Control_c, 0, 64, 127
2, 291108, Note_off_c, 0, 71, 64
2, 291231, Note_off_c, 0, 74, 64
2, 291236, Note_on_c, 0, 71, 55
2, 291236, Note_on_c, 0, 68, 57
2, 291236, Note_on_c, 0, 59, 57
2, 291267, Note_off_c, 0, 62, 64
2, 291280, Note_off_c, 0, 68, 64
2, 291289, Note_off_c, 0, 59, 64
2, 291291, Note_off_c, 0, 71, 64
2, 291299, Note_off_c, 0, 54, 64
2, 291407, Note_on_c, 0, 54, 61
2, 291408, Note_on_c, 0, 73, 62
2, 291411, Note_on_c, 0, 69, 66
2, 291411, Note_on_c, 0, 61, 62
2, 291423, Control_c, 0, 64, 0
2, 291454, Note_off_c, 0, 73, 64
2, 291456, Note_off_c, 0, 69, 64
2, 291462, Control_c, 0, 64, 127
2, 291468, Note_off_c, 0, 61, 64
2, 291528, Note_on_c, 0, 69, 61
2, 291531, Note_on_c, 0, 73, 52
2, 291538, Note_on_c, 0, 61, 59
2, 291567, Note_off_c, 0, 69, 64
2, 291570, Note_off_c, 0, 73, 64
2, 291596, Note_on_c, 0, 74, 66
2, 291596, Note_on_c, 0, 71, 59
2, 291605, Note_on_c, 0, 62, 68
2, 291609, Note_off_c, 0, 61, 64
2, 291614, Control_c, 0, 64, 0
2, 291627, Control_c, 0, 64, 127
2, 291650, Note_off_c, 0, 71, 64
2, 291780, Note_on_c, 0, 71, 59
2, 291781, Note_off_c, 0, 74, 64
2, 291784, Note_on_c, 0, 59, 55
2, 291786, Note_on_c, 0, 68, 63
2, 291797, Note_off_c, 0, 62, 64
2, 291832, Note_off_c, 0, 59, 64
2, 291838, Note_off_c, 0, 68, 64
2, 291846, Note_off_c, 0, 71, 64
2, 291862, Note_off_c, 0, 54, 64
2, 291944, Note_on_c, 0, 54, 46
2, 291946, Note_on_c, 0, 73, 57
2, 291946, Note_on_c, 0, 69, 58
2, 291946, Note_on_c, 0, 61, 63
2, 291962, Control_c, 0, 64, 0
2, 291986, Note_on_c, 0, 68, 22
2, 291986, Control_c, 0, 64, 127
2, 291988, Note_on_c, 0, 71, 49
2, 291988, Note_on_c, 0, 59, 53
2, 292005, Note_off_c, 0, 73, 64
2, 292010, Note_off_c, 0, 69, 64
2, 292030, Note_off_c, 0, 61, 64
2, 292046, Note_on_c, 0, 69, 59
2, 292046, Note_on_c, 0, 66, 62
2, 292046, Note_on_c, 0, 57, 57
2, 292072, Note_off_c, 0, 68, 64
2, 292073, Note_off_c, 0, 54, 64
2, 292074, Note_off_c, 0, 59, 64
2, 292074, Note_off_c, 0, 71, 64
2, 292102, Control_c, 0, 64, 127
2, 292108, Note_on_c, 0, 90, 94
2, 292108, Note_on_c, 0, 78, 62
2, 292108, Note_on_c, 0, 54, 68
2, 292108, Note_on_c, 0, 42, 62
2, 292206, Note_off_c, 0, 57, 64
2, 292206, Note_off_c, 0, 66, 64
2, 292206, Note_off_c, 0, 69, 64
2, 292260, Note_off_c, 0, 42, 64
2, 292260, Note_off_c, 0, 54, 64
2, 292260, Note_off_c, 0, 78, 64
2, 292260, Note_off_c, 0, 90, 64
2, 292340, Note_on_c, 0, 78, 55
2, 292342, Note_on_c, 0, 90, 91
2, 292342, Note_on_c, 0, 42, 68
2, 292343, Note_on_c, 0, 54, 58
2, 292520, Note_off_c, 0, 78, 64
2, 292522, Note_off_c, 0, 42, 64
2, 292522, Note_off_c, 0, 90, 64
2, 292523, Note_off_c, 0, 54, 64
2, 292552, Note_on_c, 0, 54, 57
2, 292552, Note_on_c, 0, 73, 63
2, 292552, Note_on_c, 0, 61, 57
2, 292553, Note_on_c, 0, 69, 61
2, 292570, Control_c, 0, 64, 0
2, 292595, Note_off_c, 0, 69, 64
2, 292598, Note_off_c, 0, 73, 64
2, 292603, Note_off_c, 0, 61, 64
2, 292604, Control_c, 0, 64, 127
2, 292679, Note_on_c, 0, 61, 50
2, 292684, Note_on_c, 0, 69, 55
2, 292688, Note_on_c, 0, 73, 50
2, 292717, Note_on_c, 0, 74, 57
2, 292723, Note_off_c, 0, 73, 64
2, 292730, Note_on_c, 0, 62, 66
2, 292734, Note_on_c, 0, 71, 52
2, 292740, Note_off_c, 0, 61, 64
2, 292745, Note_off_c, 0, 69, 64
2, 292748, Control_c, 0, 64, 0
2, 292787, Note_off_c, 0, 71, 64
2, 292794, Control_c, 0, 64, 127
2, 292921, Note_on_c, 0, 71, 57
2, 292921, Note_on_c, 0, 59, 61
2, 292922, Note_on_c, 0, 68, 57
2, 292929, Note_off_c, 0, 74, 64
2, 292946, Note_off_c, 0, 62, 64
2, 292966, Note_off_c, 0, 68, 64
2, 292974, Note_off_c, 0, 71, 64
2, 292981, Note_off_c, 0, 59, 64
2, 293007, Note_off_c, 0, 54, 64
2, 293103, Note_on_c, 0, 54, 55
2, 293103, Note_on_c, 0, 73, 62
2, 293103, Note_on_c, 0, 69, 62
2, 293103, Note_on_c, 0, 61, 66
2, 293144, Note_on_c, 0, 68, 57
2, 293150, Note_off_c, 0, 69, 64
2, 293156, Note_off_c, 0, 73, 64
2, 293162, Note_on_c, 0, 59, 57
2, 293170, Note_on_c, 0, 71, 50
2, 293174, Note_off_c, 0, 61, 64
2, 293191, Note_off_c, 0, 68, 64
2, 293218, Note_on_c, 0, 69, 53
2, 293221, Note_on_c, 0, 66, 66
2, 293223, Note_off_c, 0, 71, 64
2, 293239, Note_off_c, 0, 59, 64
2, 293239, Note_on_c, 0, 57, 52
2, 293252, Note_off_c, 0, 66, 64
2, 293262, Note_off_c, 0, 69, 64
2, 293282, Note_on_c, 0, 74, 63
2, 293287, Note_on_c, 0, 62, 66
2, 293289, Note_on_c, 0, 71, 62
2, 293301, Control_c, 0, 64, 0
2, 293311, Note_off_c, 0, 57, 64
2, 293339, Control_c, 0, 64, 127
2, 293345, Note_off_c, 0, 71, 64
2, 293464, Note_off_c, 0, 74, 64
2, 293468, Note_on_c, 0, 68, 62
2, 293474, Note_on_c, 0, 59, 54
2, 293475, Note_on_c, 0, 71, 61
2, 293504, Note_off_c, 0, 68, 64
2, 293508, Note_off_c, 0, 71, 64
2, 293514, Note_off_c, 0, 62, 64
2, 293595, Note_off_c, 0, 59, 64
2, 293640, Note_on_c, 0, 61, 50
2, 293644, Note_on_c, 0, 69, 55
2, 293646, Note_on_c, 0, 73, 57
2, 293739, Note_off_c, 0, 61, 64
2, 293744, Note_on_c, 0, 75, 59
2, 293750, Note_on_c, 0, 59, 40
2, 293759, Note_off_c, 0, 73, 64
2, 293791, Note_off_c, 0, 69, 64
2, 293861, Note_on_c, 0, 76, 59
2, 293861, Note_on_c, 0, 68, 63
2, 293867, Note_on_c, 0, 52, 52
2, 293875, Note_off_c, 0, 75, 64
2, 293887, Note_off_c, 0, 54, 64
2, 293918, Control_c, 0, 64, 0
2, 294031, Control_c, 0, 64, 127
2, 294100, Note_off_c, 0, 59, 64
2, 294116, Note_off_c, 0, 68, 64
2, 294168, Note_off_c, 0, 76, 64
2, 294246, Note_on_c, 0, 73, 53
2, 294246, Note_on_c, 0, 69, 52
2, 294254, Note_on_c, 0, 61, 49
2, 294352, Note_on_c, 0, 75, 36
2, 294357, Note_on_c, 0, 59, 36
2, 294366, Note_off_c, 0, 73, 64
2, 294368, Note_off_c, 0, 69, 64
2, 294375, Note_off_c, 0, 61, 64
2, 294472, Note_off_c, 0, 52, 64
2, 294484, Note_off_c, 0, 75, 64
2, 294487, Note_on_c, 0, 78, 54
2, 294494, Note_on_c, 0, 68, 40
2, 294496, Note_on_c, 0, 52, 26
2, 294552, Note_on_c, 0, 76, 52
2, 294555, Note_off_c, 0, 78, 64
2, 294564, Control_c, 0, 64, 0
2, 294697, Control_c, 0, 64, 127
2, 294730, Note_off_c, 0, 76, 64
2, 294841, Note_off_c, 0, 59, 64
2, 294962, Note_on_c, 0, 74, 41
2, 294987, Note_off_c, 0, 68, 64
2, 295101, Note_off_c, 0, 52, 64
2, 295121, Note_on_c, 0, 73, 50
2, 295125, Note_off_c, 0, 74, 64
2, 295125, Note_on_c, 0, 67, 46
2, 295130, Note_on_c, 0, 57, 49
2, 295137, Control_c, 0, 64, 0
2, 295177, Note_off_c, 0, 67, 64
2, 295183, Control_c, 0, 64, 127
2, 295190, Note_off_c, 0, 73, 64
2, 295260, Note_on_c, 0, 73, 45
2, 295266, Note_on_c, 0, 67, 36
2, 295294, Note_off_c, 0, 67, 64
2, 295317, Note_on_c, 0, 74, 50
2, 295323, Note_on_c, 0, 66, 45
2, 295325, Note_off_c, 0, 73, 64
2, 295339, Note_on_c, 0, 50, 27
2, 295341, Control_c, 0, 64, 0
2, 295345, Note_off_c, 0, 57, 64
2, 295386, Control_c, 0, 64, 127
2, 295477, Note_off_c, 0, 66, 64
2, 295491, Note_off_c, 0, 74, 64
2, 295523, Note_on_c, 0, 71, 52
2, 295525, Note_on_c, 0, 65, 50
2, 295535, Note_on_c, 0, 38, 45
2, 295554, Note_off_c, 0, 50, 64
2, 295568, Note_off_c, 0, 71, 64
2, 295590, Note_off_c, 0, 65, 64
2, 295728, Note_on_c, 0, 62, 49
2, 295732, Note_on_c, 0, 68, 53
2, 295737, Note_on_c, 0, 40, 52
2, 295750, Note_off_c, 0, 38, 64
2, 295752, Control_c, 0, 64, 0
2, 295796, Control_c, 0, 64, 127
2, 295830, Note_off_c, 0, 62, 64
2, 295870, Note_on_c, 0, 64, 41
2, 295877, Note_off_c, 0, 68, 64
2, 295913, Note_on_c, 0, 69, 46
2, 295924, Note_on_c, 0, 61, 58
2, 295929, Note_on_c, 0, 45, 36
2, 295930, Control_c, 0, 64, 0
2, 295940, Note_off_c, 0, 64, 64
2, 295951, Control_c, 0, 64, 127
2, 295952, Note_off_c, 0, 40, 64
2, 295982, Note_off_c, 0, 61, 64
2, 296021, Note_off_c, 0, 69, 64
2, 296117, Note_on_c, 0, 52, 49
2, 296144, Note_off_c, 0, 45, 64
2, 296202, Note_on_c, 0, 71, 52
2, 296202, Note_on_c, 0, 68, 52
2, 296296, Note_on_c, 0, 73, 46
2, 296303, Note_on_c, 0, 67, 46
2, 296303, Note_on_c, 0, 57, 50
2, 296310, Note_off_c, 0, 68, 64
2, 296319, Control_c, 0, 64, 0
2, 296325, Note_off_c, 0, 71, 64
2, 296332, Note_off_c, 0, 52, 64
2, 296354, Control_c, 0, 64, 127
2, 296369, Note_off_c, 0, 73, 64
2, 296412, Note_off_c, 0, 67, 64
2, 296443, Note_on_c, 0, 76, 45
2, 296476, Note_on_c, 0, 50, 46
2, 296484, Note_on_c, 0, 74, 49
2, 296491, Note_on_c, 0, 66, 50
2, 296499, Note_off_c, 0, 76, 64
2, 296505, Control_c, 0, 64, 0
2, 296518, Note_off_c, 0, 57, 64
2, 296527, Control_c, 0, 64, 127
2, 296603, Note_off_c, 0, 66, 64
2, 296641, Note_off_c, 0, 74, 64
2, 296670, Note_on_c, 0, 71, 49
2, 296676, Note_on_c, 0, 38, 36
2, 296677, Note_on_c, 0, 65, 46
2, 296684, Control_c, 0, 64, 0
2, 296691, Note_off_c, 0, 50, 64
2, 296715, Note_off_c, 0, 71, 64
2, 296718, Control_c, 0, 64, 127
2, 296736, Note_off_c, 0, 65, 64
2, 296868, Note_on_c, 0, 68, 50
2, 296868, Note_on_c, 0, 40, 52
2, 296870, Note_on_c, 0, 62, 49
2, 296882, Control_c, 0, 64, 0
2, 296891, Note_off_c, 0, 38, 64
2, 296897, Control_c, 0, 64, 127
2, 296920, Note_on_c, 0, 66, 46
2, 296941, Note_off_c, 0, 62, 64
2, 296943, Note_off_c, 0, 68, 64
2, 296982, Note_on_c, 0, 64, 39
2, 296995, Note_off_c, 0, 66, 64
2, 297048, Note_on_c, 0, 69, 53
2, 297052, Note_on_c, 0, 45, 36
2, 297055, Note_on_c, 0, 61, 57
2, 297064, Control_c, 0, 64, 0
2, 297068, Note_off_c, 0, 64, 64
2, 297083, Note_off_c, 0, 40, 64
2, 297101, Control_c, 0, 64, 127
2, 297118, Note_off_c, 0, 61, 64
2, 297132, Note_off_c, 0, 69, 64
2, 297235, Note_on_c, 0, 52, 48
2, 297267, Note_off_c, 0, 45, 64
2, 297316, Note_on_c, 0, 68, 46
2, 297318, Note_on_c, 0, 71, 46
2, 297352, Note_off_c, 0, 71, 64
2, 297361, Note_off_c, 0, 68, 64
2, 297412, Control_c, 0, 64, 0
2, 297419, Note_on_c, 0, 73, 50
2, 297422, Note_on_c, 0, 67, 50
2, 297425, Note_on_c, 0, 57, 46
2, 297444, Control_c, 0, 64, 127
2, 297448, Note_off_c, 0, 73, 64
2, 297450, Note_off_c, 0, 52, 64
2, 297451, Note_off_c, 0, 67, 64
2, 297488, Note_on_c, 0, 73, 46
2, 297488, Note_on_c, 0, 67, 45
2, 297512, Note_off_c, 0, 67, 64
2, 297517, Note_off_c, 0, 73, 64
2, 297540, Note_on_c, 0, 67, 53
2, 297548, Note_on_c, 0, 73, 46
2, 297579, Note_off_c, 0, 73, 64
2, 297591, Note_off_c, 0, 67, 64
2, 297615, Control_c, 0, 64, 0
2, 297621, Note_on_c, 0, 74, 49
2, 297621, Note_on_c, 0, 66, 52
2, 297628, Note_on_c, 0, 50, 50
2, 297640, Note_off_c, 0, 57, 64
2, 297643, Control_c, 0, 64, 127
2, 297749, Note_off_c, 0, 66, 64
2, 297782, Note_off_c, 0, 74, 64
2, 297800, Note_on_c, 0, 71, 49
2, 297800, Note_on_c, 0, 38, 46
2, 297806, Note_on_c, 0, 65, 49
2, 297808, Control_c, 0, 64, 0
2, 297834, Control_c, 0, 64, 127
2, 297838, Note_off_c, 0, 71, 64
2, 297843, Note_off_c, 0, 50, 64
2, 297850, Note_off_c, 0, 65, 64
2, 297973, Note_on_c, 0, 68, 46
2, 297978, Note_on_c, 0, 62, 45
2, 297985, Note_on_c, 0, 40, 46
2, 298004, Note_off_c, 0, 62, 64
2, 298011, Note_off_c, 0, 68, 64
2, 298015, Note_off_c, 0, 38, 64
2, 298034, Note_on_c, 0, 66, 53
2, 298043, Note_on_c, 0, 62, 41
2, 298063, Note_off_c, 0, 62, 64
2, 298070, Note_off_c, 0, 66, 64
2, 298092, Note_on_c, 0, 62, 41
2, 298099, Note_on_c, 0, 64, 45
2, 298116, Note_off_c, 0, 62, 64
2, 298136, Note_off_c, 0, 64, 64
2, 298168, Note_on_c, 0, 45, 46
2, 298170, Note_on_c, 0, 69, 49
2, 298175, Note_on_c, 0, 61, 52
2, 298184, Control_c, 0, 64, 0
2, 298200, Note_off_c, 0, 40, 64
2, 298216, Control_c, 0, 64, 127
2, 298286, Note_off_c, 0, 61, 64
2, 298299, Note_off_c, 0, 69, 64
2, 298351, Note_on_c, 0, 52, 45
2, 298383, Note_off_c, 0, 45, 64
2, 298444, Note_on_c, 0, 68, 41
2, 298448, Note_on_c, 0, 71, 50
2, 298476, Note_off_c, 0, 68, 64
2, 298484, Note_off_c, 0, 71, 64
2, 298539, Note_on_c, 0, 73, 57
2, 298545, Note_on_c, 0, 57, 46
2, 298548, Note_on_c, 0, 67, 41
2, 298566, Note_off_c, 0, 52, 64
2, 298567, Note_off_c, 0, 67, 64
2, 298570, Note_off_c, 0, 73, 64
2, 298611, Note_on_c, 0, 67, 45
2, 298616, Note_on_c, 0, 74, 46
2, 298635, Note_off_c, 0, 67, 64
2, 298653, Note_off_c, 0, 74, 64
2, 298676, Note_on_c, 0, 67, 46
2, 298681, Note_on_c, 0, 76, 48
2, 298727, Note_off_c, 0, 67, 64
2, 298729, Note_off_c, 0, 76, 64
2, 298750, Note_on_c, 0, 74, 41
2, 298750, Note_on_c, 0, 66, 54
2, 298760, Note_off_c, 0, 57, 64
2, 298764, Control_c, 0, 64, 0
2, 298769, Note_on_c, 0, 50, 45
2, 298788, Control_c, 0, 64, 127
2, 298849, Note_off_c, 0, 74, 64
2, 298855, Note_off_c, 0, 66, 64
2, 298940, Note_on_c, 0, 65, 45
2, 298946, Note_on_c, 0, 71, 49
2, 298957, Control_c, 0, 64, 0
2, 298967, Note_on_c, 0, 38, 26
2, 298982, Note_off_c, 0, 50, 64
2, 298995, Control_c, 0, 64, 127
2, 299002, Note_off_c, 0, 71, 64
2, 299016, Note_off_c, 0, 65, 64
2, 299159, Note_on_c, 0, 68, 46
2, 299160, Note_on_c, 0, 62, 46
2, 299164, Note_on_c, 0, 40, 39
2, 299182, Note_off_c, 0, 38, 64
2, 299202, Note_off_c, 0, 68, 64
2, 299218, Note_on_c, 0, 66, 58
2, 299269, Note_off_c, 0, 62, 64
2, 299281, Note_on_c, 0, 64, 41
2, 299287, Note_off_c, 0, 66, 64
2, 299343, Note_on_c, 0, 69, 50
2, 299343, Control_c, 0, 64, 0
2, 299351, Note_on_c, 0, 61, 58
2, 299352, Note_on_c, 0, 45, 48
2, 299357, Note_off_c, 0, 64, 64
2, 299379, Note_off_c, 0, 40, 64
2, 299395, Control_c, 0, 64, 127
2, 299446, Note_off_c, 0, 61, 64
2, 299461, Note_off_c, 0, 69, 64
2, 299523, Note_on_c, 0, 57, 52
2, 299567, Note_off_c, 0, 45, 64
2, 299694, Control_c, 0, 64, 0
2, 299716, Note_on_c, 0, 54, 52
2, 299717, Note_on_c, 0, 73, 61
2, 299717, Note_on_c, 0, 61, 66
2, 299722, Note_on_c, 0, 69, 61
2, 299738, Note_off_c, 0, 57, 64
2, 299763, Note_off_c, 0, 69, 64
2, 299769, Note_off_c, 0, 61, 64
2, 299772, Note_off_c, 0, 73, 64
2, 299779, Control_c, 0, 64, 127
2, 299844, Note_on_c, 0, 73, 52
2, 299847, Note_on_c, 0, 69, 57
2, 299847, Note_on_c, 0, 61, 66
2, 299876, Note_off_c, 0, 69, 64
2, 299881, Note_off_c, 0, 73, 64
2, 299896, Note_on_c, 0, 74, 62
2, 299900, Note_on_c, 0, 71, 57
2, 299902, Control_c, 0, 64, 0
2, 299908, Note_on_c, 0, 62, 72
2, 299910, Note_off_c, 0, 61, 64
2, 299961, Note_off_c, 0, 71, 64
2, 299971, Control_c, 0, 64, 127
2, 300096, Note_on_c, 0, 59, 52
2, 300099, Note_on_c, 0, 71, 52
2, 300099, Note_on_c, 0, 68, 62
2, 300112, Note_off_c, 0, 62, 64
2, 300112, Note_off_c, 0, 74, 64
2, 300155, Note_off_c, 0, 68, 64
2, 300162, Note_off_c, 0, 71, 64
2, 300165, Note_off_c, 0, 59, 64
2, 300171, Note_off_c, 0, 54, 64
2, 300261, Note_on_c, 0, 69, 62
2, 300262, Note_on_c, 0, 54, 59
2, 300263, Note_on_c, 0, 73, 61
2, 300267, Note_on_c, 0, 61, 66
2, 300277, Control_c, 0, 64, 0
2, 300304, Control_c, 0, 64, 127
2, 300318, Note_on_c, 0, 68, 67
2, 300322, Note_on_c, 0, 59, 62
2, 300325, Note_on_c, 0, 71, 57
2, 300330, Note_off_c, 0, 73, 64
2, 300332, Note_off_c, 0, 69, 64
2, 300337, Note_off_c, 0, 61, 64
2, 300361, Note_off_c, 0, 68, 64
2, 300382, Note_on_c, 0, 69, 57
2, 300388, Note_off_c, 0, 71, 64
2, 300388, Note_on_c, 0, 66, 55
2, 300398, Note_on_c, 0, 57, 50
2, 300401, Note_off_c, 0, 59, 64
2, 300420, Note_off_c, 0, 69, 64
2, 300433, Note_off_c, 0, 66, 64
2, 300446, Note_on_c, 0, 74, 62
2, 300452, Note_on_c, 0, 62, 67
2, 300453, Note_on_c, 0, 71, 58
2, 300466, Note_off_c, 0, 57, 64
2, 300468, Control_c, 0, 64, 0
2, 300512, Note_off_c, 0, 71, 64
2, 300514, Control_c, 0, 64, 127
2, 300642, Note_on_c, 0, 68, 59
2, 300648, Note_on_c, 0, 59, 61
2, 300652, Note_off_c, 0, 74, 64
2, 300652, Note_on_c, 0, 71, 57
2, 300675, Note_off_c, 0, 62, 64
2, 300692, Note_off_c, 0, 68, 64
2, 300694, Note_off_c, 0, 59, 64
2, 300707, Note_off_c, 0, 71, 64
2, 300717, Note_off_c, 0, 54, 64
2, 300820, Note_on_c, 0, 54, 39
2, 300823, Note_on_c, 0, 69, 66
2, 300823, Note_on_c, 0, 61, 57
2, 300825, Note_on_c, 0, 73, 63
2, 300836, Control_c, 0, 64, 0
2, 300867, Note_off_c, 0, 69, 64
2, 300874, Note_off_c, 0, 73, 64
2, 300875, Control_c, 0, 64, 127
2, 300881, Note_off_c, 0, 61, 64
2, 300940, Note_on_c, 0, 73, 41
2, 300946, Note_on_c, 0, 61, 62
2, 300947, Note_on_c, 0, 69, 53
2, 300975, Note_off_c, 0, 73, 64
2, 300977, Note_off_c, 0, 69, 64
2, 301000, Note_on_c, 0, 74, 62
2, 301000, Note_on_c, 0, 71, 62
2, 301005, Note_off_c, 0, 61, 64
2, 301009, Note_on_c, 0, 62, 70
2, 301012, Control_c, 0, 64, 0
2, 301046, Control_c, 0, 64, 127
2, 301064, Note_off_c, 0, 71, 64
2, 301181, Control_c, 0, 64, 0
2, 301188, Note_on_c, 0, 71, 62
2, 301188, Note_on_c, 0, 68, 63
2, 301193, Note_on_c, 0, 59, 52
2, 301195, Note_off_c, 0, 74, 64
2, 301205, Note_off_c, 0, 62, 64
2, 301208, Control_c, 0, 64, 127
2, 301235, Note_off_c, 0, 68, 64
2, 301244, Note_off_c, 0, 71, 64
2, 301247, Note_off_c, 0, 59, 64
2, 301275, Note_off_c, 0, 54, 64
2, 301344, Note_on_c, 0, 54, 59
2, 301349, Note_on_c, 0, 61, 61
2, 301349, Control_c, 0, 64, 0
2, 301352, Note_on_c, 0, 69, 57
2, 301355, Note_on_c, 0, 73, 52
2, 301357, Note_on_c, 0, 66, 67
2, 301374, Control_c, 0, 64, 127
2, 301408, Note_off_c, 0, 66, 64
2, 301408, Note_on_c, 0, 68, 45
2, 301412, Note_off_c, 0, 73, 64
2, 301412, Note_on_c, 0, 59, 36
2, 301414, Note_on_c, 0, 71, 52
2, 301418, Note_off_c, 0, 61, 64
2, 301428, Note_off_c, 0, 69, 64
2, 301450, Note_off_c, 0, 68, 64
2, 301456, Note_on_c, 0, 69, 54
2, 301456, Note_on_c, 0, 66, 52
2, 301456, Note_on_c, 0, 57, 40
2, 301467, Note_off_c, 0, 71, 64
2, 301470, Note_off_c, 0, 59, 64
2, 301483, Note_off_c, 0, 54, 64
2, 301500, Note_off_c, 0, 66, 64
2, 301504, Note_off_c, 0, 69, 64
2, 301510, Note_off_c, 0, 57, 64
2, 301540, Note_on_c, 0, 42, 65
2, 301546, Note_on_c, 0, 90, 102
2, 301546, Note_on_c, 0, 78, 62
2, 301548, Note_on_c, 0, 54, 68
2, 301720, Note_off_c, 0, 42, 64
2, 301726, Note_off_c, 0, 78, 64
2, 301726, Note_off_c, 0, 90, 64
2, 301728, Note_off_c, 0, 54, 64
2, 301730, Note_on_c, 0, 90, 100
2, 301730, Note_on_c, 0, 78, 62
2, 301730, Note_on_c, 0, 42, 68
2, 301732, Note_on_c, 0, 54, 67
2, 301910, Note_off_c, 0, 42, 64
2, 301910, Note_off_c, 0, 78, 64
2, 301910, Note_off_c, 0, 90, 64
2, 301912, Note_off_c, 0, 54, 64
2, 301924, Note_on_c, 0, 69, 66
2, 301924, Note_on_c, 0, 61, 36
2, 301924, Note_on_c, 0, 54, 58
2, 301926, Note_on_c, 0, 73, 50
2, 301946, Note_off_c, 0, 61, 64
2, 301946, Control_c, 0, 64, 0
2, 301965, Note_off_c, 0, 69, 64
2, 301984, Note_off_c, 0, 73, 64
2, 301985, Control_c, 0, 64, 127
2, 302068, Note_on_c, 0, 61, 62
2, 302069, Note_on_c, 0, 73, 53
2, 302069, Note_on_c, 0, 69, 70
2, 302100, Note_off_c, 0, 69, 64
2, 302100, Note_off_c, 0, 73, 64
2, 302112, Note_off_c, 0, 61, 64
2, 302121, Note_on_c, 0, 62, 63
2, 302125, Note_on_c, 0, 74, 66
2, 302125, Note_on_c, 0, 71, 62
2, 302174, Note_off_c, 0, 71, 64
2, 302314, Note_on_c, 0, 71, 62
2, 302318, Note_on_c, 0, 59, 57
2, 302319, Note_on_c, 0, 68, 63
2, 302327, Control_c, 0, 64, 0
2, 302332, Note_off_c, 0, 74, 64
2, 302334, Note_off_c, 0, 62, 64
2, 302342, Control_c, 0, 64, 127
2, 302379, Note_off_c, 0, 54, 64
2, 302409, Note_off_c, 0, 68, 64
2, 302447, Note_off_c, 0, 71, 64
2, 302447, Note_off_c, 0, 59, 64
2, 302488, Note_on_c, 0, 73, 62
2, 302488, Note_on_c, 0, 69, 63
2, 302492, Note_on_c, 0, 54, 59
2, 302495, Note_on_c, 0, 61, 62
2, 302534, Note_off_c, 0, 73, 64
2, 302535, Note_off_c, 0, 69, 64
2, 302548, Note_on_c, 0, 68, 55
2, 302551, Note_on_c, 0, 59, 52
2, 302553, Note_on_c, 0, 71, 62
2, 302560, Note_off_c, 0, 61, 64
2, 302588, Note_off_c, 0, 68, 64
2, 302612, Note_on_c, 0, 66, 61
2, 302612, Note_on_c, 0, 57, 26
2, 302614, Note_on_c, 0, 69, 55
2, 302620, Note_off_c, 0, 71, 64
2, 302635, Note_off_c, 0, 59, 64
2, 302652, Note_off_c, 0, 69, 64
2, 302661, Note_off_c, 0, 57, 64
2, 302671, Note_off_c, 0, 66, 64
2, 302672, Note_on_c, 0, 74, 66
2, 302681, Note_on_c, 0, 71, 62
2, 302681, Note_on_c, 0, 62, 66
2, 302689, Control_c, 0, 64, 0
2, 302726, Control_c, 0, 64, 127
2, 302745, Note_off_c, 0, 71, 64
2, 302865, Note_on_c, 0, 59, 50
2, 302867, Note_on_c, 0, 71, 58
2, 302871, Note_on_c, 0, 68, 61
2, 302878, Note_off_c, 0, 74, 64
2, 302897, Note_off_c, 0, 62, 64
2, 302939, Note_off_c, 0, 68, 64
2, 303010, Note_off_c, 0, 59, 64
2, 303023, Note_off_c, 0, 71, 64
2, 303045, Note_on_c, 0, 73, 61
2, 303045, Note_on_c, 0, 69, 63
2, 303048, Note_on_c, 0, 61, 41
2, 303083, Note_off_c, 0, 73, 64
2, 303144, Note_off_c, 0, 61, 64
2, 303144, Note_on_c, 0, 59, 55
2, 303150, Note_on_c, 0, 75, 66
2, 303195, Note_off_c, 0, 54, 64
2, 303206, Note_off_c, 0, 69, 64
2, 303269, Note_off_c, 0, 75, 64
2, 303279, Note_on_c, 0, 52, 36
2, 303279, Note_on_c, 0, 68, 63
2, 303283, Note_on_c, 0, 76, 57
2, 303325, Control_c, 0, 64, 0
2, 303476, Control_c, 0, 64, 127
2, 303577, Note_off_c, 0, 76, 64
2, 303597, Note_off_c, 0, 59, 64
2, 303663, Note_off_c, 0, 68, 64
2, 303720, Note_on_c, 0, 73, 61
2, 303720, Note_on_c, 0, 69, 55
2, 303726, Note_on_c, 0, 61, 55
2, 303748, Control_c, 0, 64, 0
2, 303771, Control_c, 0, 64, 127
2, 303830, Note_on_c, 0, 59, 55
2, 303840, Note_on_c, 0, 75, 57
2, 303846, Note_off_c, 0, 73, 64
2, 303875, Note_off_c, 0, 69, 64
2, 303892, Note_off_c, 0, 61, 64
2, 303904, Note_off_c, 0, 52, 64
2, 304003, Note_on_c, 0, 52, 52
2, 304028, Note_on_c, 0, 68, 45
2, 304033, Note_on_c, 0, 78, 52
2, 304043, Note_off_c, 0, 75, 64
2, 304080, Control_c, 0, 64, 0
2, 304086, Note_on_c, 0, 76, 57
2, 304096, Note_off_c, 0, 78, 64
2, 304249, Control_c, 0, 64, 127
2, 304306, Note_off_c, 0, 76, 64
2, 304431, Note_off_c, 0, 59, 64
2, 304585, Note_on_c, 0, 74, 50
2, 304694, Note_off_c, 0, 68, 64
2, 304698, Note_off_c, 0, 52, 64
2, 304721, Note_off_c, 0, 74, 64
2, 304811, Note_on_c, 0, 67, 41
2, 304814, Note_on_c, 0, 73, 46
2, 304821, Note_on_c, 0, 57, 31
2, 304849, Control_c, 0, 64, 0
2, 304883, Note_off_c, 0, 73, 64
2, 304884, Control_c, 0, 64, 127
2, 304920, Note_off_c, 0, 67, 64
2, 304980, Note_on_c, 0, 73, 41
2, 305016, Note_on_c, 0, 74, 46
2, 305020, Note_on_c, 0, 66, 31
2, 305030, Note_off_c, 0, 73, 64
2, 305038, Note_off_c, 0, 57, 64
2, 305040, Note_on_c, 0, 50, 45
2, 305048, Control_c, 0, 64, 0
2, 305093, Control_c, 0, 64, 127
2, 305179, Note_off_c, 0, 74, 64
2, 305191, Note_off_c, 0, 66, 64
2, 305222, Note_on_c, 0, 71, 48
2, 305231, Note_on_c, 0, 65, 41
2, 305237, Note_on_c, 0, 38, 44
2, 305245, Control_c, 0, 64, 0
2, 305255, Note_off_c, 0, 50, 64
2, 305270, Control_c, 0, 64, 127
2, 305287, Note_off_c, 0, 71, 64
2, 305334, Note_off_c, 0, 65, 64
2, 305426, Note_on_c, 0, 68, 41
2, 305433, Note_on_c, 0, 40, 44
2, 305434, Note_on_c, 0, 62, 46
2, 305446, Control_c, 0, 64, 0
2, 305452, Note_off_c, 0, 38, 64
2, 305479, Control_c, 0, 64, 127
2, 305538, Note_off_c, 0, 62, 64
2, 305568, Note_off_c, 0, 68, 64
2, 305584, Note_on_c, 0, 64, 37
2, 305617, Note_on_c, 0, 69, 49
2, 305623, Note_on_c, 0, 45, 39
2, 305630, Note_on_c, 0, 61, 54
2, 305637, Control_c, 0, 64, 0
2, 305643, Note_off_c, 0, 64, 64
2, 305648, Note_off_c, 0, 40, 64
2, 305690, Control_c, 0, 64, 127
2, 305744, Note_off_c, 0, 61, 64
2, 305761, Note_off_c, 0, 69, 64
2, 305813, Note_on_c, 0, 52, 40
2, 305830, Note_off_c, 0, 45, 64
2, 305908, Note_on_c, 0, 68, 45
2, 305917, Note_on_c, 0, 71, 49
2, 306010, Note_on_c, 0, 73, 53
2, 306014, Note_on_c, 0, 57, 44
2, 306018, Note_on_c, 0, 67, 41
2, 306023, Note_off_c, 0, 68, 64
2, 306028, Note_off_c, 0, 52, 64
2, 306032, Control_c, 0, 64, 0
2, 306043, Note_off_c, 0, 71, 64
2, 306057, Control_c, 0, 64, 127
2, 306099, Note_off_c, 0, 73, 64
2, 306168, Note_off_c, 0, 67, 64
2, 306168, Note_on_c, 0, 76, 52
2, 306210, Note_on_c, 0, 50, 48
2, 306215, Note_on_c, 0, 74, 46
2, 306220, Note_on_c, 0, 66, 58
2, 306229, Note_off_c, 0, 76, 64
2, 306229, Note_off_c, 0, 57, 64
2, 306348, Note_off_c, 0, 66, 64
2, 306378, Note_off_c, 0, 74, 64
2, 306408, Note_on_c, 0, 71, 50
2, 306413, Note_on_c, 0, 65, 45
2, 306420, Control_c, 0, 64, 0
2, 306424, Note_on_c, 0, 38, 20
2, 306435, Note_off_c, 0, 50, 64
2, 306447, Control_c, 0, 64, 127
2, 306467, Note_off_c, 0, 71, 64
2, 306501, Note_off_c, 0, 65, 64
2, 306598, Note_on_c, 0, 68, 46
2, 306605, Note_on_c, 0, 62, 46
2, 306612, Note_on_c, 0, 40, 37
2, 306622, Control_c, 0, 64, 0
2, 306635, Control_c, 0, 64, 127
2, 306639, Note_off_c, 0, 38, 64
2, 306657, Note_on_c, 0, 66, 40
2, 306674, Note_off_c, 0, 68, 64
2, 306680, Note_off_c, 0, 62, 64
2, 306710, Note_on_c, 0, 64, 48
2, 306727, Note_off_c, 0, 66, 64
2, 306778, Note_on_c, 0, 69, 45
2, 306779, Note_on_c, 0, 61, 50
2, 306790, Note_on_c, 0, 45, 31
2, 306795, Note_off_c, 0, 64, 64
2, 306799, Control_c, 0, 64, 0
2, 306827, Note_off_c, 0, 40, 64
2, 306839, Control_c, 0, 64, 127
2, 306878, Note_off_c, 0, 61, 64
2, 306931, Note_off_c, 0, 69, 64
2, 306960, Note_on_c, 0, 52, 39
2, 307005, Note_off_c, 0, 45, 64
2, 307060, Note_on_c, 0, 71, 37
2, 307066, Note_on_c, 0, 68, 50
2, 307128, Note_off_c, 0, 68, 64
2, 307133, Note_off_c, 0, 71, 64
2, 307158, Note_on_c, 0, 73, 58
2, 307164, Note_on_c, 0, 57, 41
2, 307166, Note_on_c, 0, 67, 55
2, 307175, Note_off_c, 0, 52, 64
2, 307193, Note_off_c, 0, 73, 64
2, 307195, Note_off_c, 0, 67, 64
2, 307228, Note_on_c, 0, 67, 50
2, 307233, Note_on_c, 0, 73, 54
2, 307252, Note_off_c, 0, 67, 64
2, 307263, Note_off_c, 0, 73, 64
2, 307286, Note_on_c, 0, 73, 52
2, 307288, Note_on_c, 0, 67, 59
2, 307312, Note_off_c, 0, 67, 64
2, 307320, Note_off_c, 0, 73, 64
2, 307359, Note_on_c, 0, 74, 54
2, 307364, Control_c, 0, 64, 0
2, 307370, Note_on_c, 0, 66, 57
2, 307374, Note_on_c, 0, 50, 45
2, 307379, Note_off_c, 0, 57, 64
2, 307382, Control_c, 0, 64, 127
2, 307482, Note_off_c, 0, 66, 64
2, 307509, Note_off_c, 0, 74, 64
2, 307554, Note_on_c, 0, 71, 48
2, 307559, Note_on_c, 0, 65, 46
2, 307559, Note_on_c, 0, 38, 45
2, 307565, Control_c, 0, 64, 0
2, 307587, Control_c, 0, 64, 127
2, 307589, Note_off_c, 0, 50, 64
2, 307592, Note_off_c, 0, 71, 64
2, 307611, Note_off_c, 0, 65, 64
2, 307737, Note_on_c, 0, 68, 52
2, 307738, Note_on_c, 0, 62, 50
2, 307745, Note_on_c, 0, 40, 49
2, 307774, Note_off_c, 0, 38, 64
2, 307776, Note_off_c, 0, 62, 64
2, 307780, Note_off_c, 0, 68, 64
2, 307799, Note_on_c, 0, 66, 62
2, 307806, Note_on_c, 0, 62, 45
2, 307860, Note_on_c, 0, 64, 45
2, 307862, Note_off_c, 0, 66, 64
2, 307884, Note_off_c, 0, 62, 64
2, 307907, Note_off_c, 0, 64, 64
2, 307927, Note_on_c, 0, 69, 52
2, 307932, Note_on_c, 0, 61, 58
2, 307942, Note_on_c, 0, 45, 31
2, 307951, Control_c, 0, 64, 0
2, 307960, Note_off_c, 0, 40, 64
2, 307994, Control_c, 0, 64, 127
2, 308049, Note_off_c, 0, 61, 64
2, 308061, Note_off_c, 0, 69, 64
2, 308118, Note_on_c, 0, 52, 32
2, 308157, Note_off_c, 0, 45, 64
2, 308213, Note_on_c, 0, 68, 41
2, 308216, Note_on_c, 0, 71, 45
2, 308253, Note_off_c, 0, 68, 64
2, 308254, Note_off_c, 0, 71, 64
2, 308316, Note_on_c, 0, 67, 46
2, 308318, Note_on_c, 0, 73, 58
2, 308323, Note_on_c, 0, 57, 41
2, 308330, Note_off_c, 0, 67, 64
2, 308333, Note_off_c, 0, 52, 64
2, 308351, Note_off_c, 0, 73, 64
2, 308396, Note_on_c, 0, 74, 53
2, 308398, Note_on_c, 0, 67, 52
2, 308424, Note_off_c, 0, 67, 64
2, 308432, Note_off_c, 0, 74, 64
2, 308456, Note_on_c, 0, 67, 59
2, 308460, Note_on_c, 0, 76, 57
2, 308480, Note_off_c, 0, 67, 64
2, 308508, Note_off_c, 0, 76, 64
2, 308528, Note_on_c, 0, 50, 48
2, 308532, Note_on_c, 0, 66, 57
2, 308533, Note_on_c, 0, 74, 57
2, 308538, Note_off_c, 0, 57, 64
2, 308576, Note_off_c, 0, 74, 64
2, 308614, Note_off_c, 0, 66, 64
2, 308732, Note_on_c, 0, 65, 45
2, 308736, Note_on_c, 0, 71, 46
2, 308740, Note_on_c, 0, 38, 32
2, 308743, Note_off_c, 0, 50, 64
2, 308757, Control_c, 0, 64, 0
2, 308788, Control_c, 0, 64, 127
2, 308812, Note_off_c, 0, 71, 64
2, 308843, Note_off_c, 0, 65, 64
2, 308955, Note_off_c, 0, 38, 64
2, 308956, Note_on_c, 0, 68, 48
2, 308961, Note_on_c, 0, 62, 53
2, 308964, Note_on_c, 0, 40, 45
2, 308995, Note_off_c, 0, 62, 64
2, 309004, Note_off_c, 0, 68, 64
2, 309024, Note_on_c, 0, 66, 58
2, 309024, Note_on_c, 0, 62, 42
2, 309066, Note_off_c, 0, 62, 64
2, 309096, Note_off_c, 0, 66, 64
2, 309096, Note_on_c, 0, 62, 53
2, 309099, Note_on_c, 0, 64, 45
2, 309150, Note_off_c, 0, 62, 64
2, 309167, Note_off_c, 0, 64, 64
2, 309179, Note_off_c, 0, 40, 64
2, 309184, Note_on_c, 0, 69, 50
2, 309190, Note_on_c, 0, 61, 52
2, 309196, Note_on_c, 0, 33, 31
2, 309198, Note_on_c, 0, 45, 31
2, 309208, Control_c, 0, 64, 0
2, 309243, Control_c, 0, 64, 127
2, 309294, Note_off_c, 0, 61, 64
2, 309316, Note_off_c, 0, 69, 64
2, 309436, Note_off_c, 0, 33, 64
2, 309438, Note_off_c, 0, 45, 64
2, 309527, Note_on_c, 0, 76, 57
2, 309559, Control_c, 0, 64, 0
2, 309593, Control_c, 0, 64, 127
2, 309708, Control_c, 0, 64, 0
2, 309743, Control_c, 0, 64, 127
2, 309768, Note_on_c, 0, 77, 50
2, 309779, Note_off_c, 0, 76, 64
2, 309933, Note_off_c, 0, 77, 64
2, 309946, Note_on_c, 0, 76, 52
2, 309976, Note_on_c, 0, 62, 41
2, 309976, Note_on_c, 0, 65, 36
2, 309984, Note_on_c, 0, 57, 24
2, 309989, Note_on_c, 0, 74, 48
2, 309997, Control_c, 0, 64, 0
2, 310009, Note_off_c, 0, 76, 64
2, 310041, Control_c, 0, 64, 127
2, 310141, Note_off_c, 0, 65, 64
2, 310141, Note_off_c, 0, 62, 64
2, 310149, Note_off_c, 0, 57, 64
2, 310173, Note_on_c, 0, 77, 52
2, 310182, Note_on_c, 0, 62, 28
2, 310182, Note_on_c, 0, 57, 44
2, 310184, Note_on_c, 0, 65, 41
2, 310190, Note_off_c, 0, 74, 64
2, 310199, Control_c, 0, 64, 0
2, 310240, Control_c, 0, 64, 127
2, 310277, Note_off_c, 0, 77, 64
2, 310355, Note_on_c, 0, 77, 50
2, 310363, Control_c, 0, 64, 0
2, 310369, Note_off_c, 0, 65, 64
2, 310369, Note_off_c, 0, 57, 64
2, 310378, Note_off_c, 0, 62, 64
2, 310401, Control_c, 0, 64, 127
2, 310529, Note_on_c, 0, 65, 36
2, 310530, Note_on_c, 0, 60, 36
2, 310537, Note_on_c, 0, 57, 31
2, 310552, Control_c, 0, 64, 0
2, 310595, Control_c, 0, 64, 127
2, 310694, Note_off_c, 0, 65, 64
2, 310695, Note_off_c, 0, 60, 64
2, 310702, Note_off_c, 0, 57, 64
2, 310710, Note_on_c, 0, 76, 45
2, 310712, Control_c, 0, 64, 0
2, 310720, Note_on_c, 0, 64, 35
2, 310720, Note_on_c, 0, 60, 32
2, 310720, Note_on_c, 0, 57, 35
2, 310726, Note_off_c, 0, 77, 64
2, 310765, Control_c, 0, 64, 127
2, 310833, Note_off_c, 0, 76, 64
2, 310860, Note_off_c, 0, 64, 64
2, 310862, Note_off_c, 0, 60, 64
2, 310870, Note_on_c, 0, 74, 55
2, 310874, Note_off_c, 0, 57, 64
2, 310892, Note_on_c, 0, 76, 52
2, 310905, Note_off_c, 0, 74, 64
2, 310935, Note_on_c, 0, 74, 59
2, 310952, Note_off_c, 0, 76, 64
2, 310988, Note_on_c, 0, 73, 63
2, 310993, Note_off_c, 0, 74, 64
2, 311041, Note_off_c, 0, 73, 64
2, 311046, Note_on_c, 0, 74, 59
2, 311049, Note_on_c, 0, 56, 36
2, 311053, Note_on_c, 0, 52, 37
2, 311057, Note_on_c, 0, 62, 40
2, 311066, Control_c, 0, 64, 0
2, 311102, Control_c, 0, 64, 127
2, 311134, Note_on_c, 0, 75, 54
2, 311155, Note_off_c, 0, 74, 64
2, 311214, Note_off_c, 0, 56, 64
2, 311218, Note_off_c, 0, 52, 64
2, 311221, Note_on_c, 0, 56, 39
2, 311222, Note_off_c, 0, 62, 64
2, 311226, Note_off_c, 0, 75, 64
2, 311229, Note_on_c, 0, 76, 55
2, 311231, Note_on_c, 0, 52, 41
2, 311234, Note_on_c, 0, 62, 35
2, 311242, Control_c, 0, 64, 0
2, 311275, Control_c, 0, 64, 127
2, 311305, Note_on_c, 0, 71, 66
2, 311334, Note_off_c, 0, 76, 64
2, 311358, Note_off_c, 0, 62, 64
2, 311358, Note_off_c, 0, 56, 64
2, 311367, Note_off_c, 0, 52, 64
2, 311404, Note_on_c, 0, 74, 59
2, 311426, Note_off_c, 0, 71, 64
2, 311608, Note_on_c, 0, 45, 36
2, 311655, Control_c, 0, 64, 0
2, 311695, Control_c, 0, 64, 127
2, 311844, Note_on_c, 0, 52, 39
2, 311857, Note_on_c, 0, 72, 49
2, 311859, Note_on_c, 0, 60, 26
2, 311868, Control_c, 0, 64, 0
2, 311889, Control_c, 0, 64, 127
2, 311895, Note_off_c, 0, 74, 64
2, 312055, Note_off_c, 0, 72, 64
2, 312061, Note_off_c, 0, 45, 64
2, 312064, Note_on_c, 0, 69, 49
2, 312070, Note_off_c, 0, 52, 64
2, 312072, Note_off_c, 0, 60, 64
2, 312117, Note_off_c, 0, 69, 64
2, 312117, Note_on_c, 0, 71, 48
2, 312148, Note_on_c, 0, 69, 68
2, 312162, Note_off_c, 0, 71, 64
2, 312201, Note_off_c, 0, 69, 64
2, 312208, Note_on_c, 0, 52, 50
2, 312209, Note_on_c, 0, 60, 44
2, 312212, Note_on_c, 0, 68, 76
2, 312222, Control_c, 0, 64, 0
2, 312267, Control_c, 0, 64, 127
2, 312380, Note_on_c, 0, 45, 49
2, 312384, Note_on_c, 0, 69, 63
2, 312395, Note_off_c, 0, 68, 64
2, 312396, Control_c, 0, 64, 0
2, 312429, Control_c, 0, 64, 127
2, 312465, Note_off_c, 0, 52, 64
2, 312477, Note_off_c, 0, 60, 64
2, 312516, Note_off_c, 0, 45, 64
2, 312546, Note_on_c, 0, 71, 66
2, 312548, Note_off_c, 0, 69, 64
2, 312729, Note_on_c, 0, 55, 58
2, 312732, Note_on_c, 0, 76, 70
2, 312738, Note_on_c, 0, 52, 58
2, 312743, Note_on_c, 0, 59, 49
2, 312744, Note_off_c, 0, 71, 64
2, 312754, Control_c, 0, 64, 0
2, 312807, Control_c, 0, 64, 127
2, 312886, Note_off_c, 0, 76, 64
2, 312922, Note_on_c, 0, 47, 55
2, 312924, Note_off_c, 0, 55, 64
2, 312933, Note_off_c, 0, 52, 64
2, 312938, Note_off_c, 0, 59, 64
2, 313075, Note_off_c, 0, 47, 64
2, 313129, Control_c, 0, 64, 0
2, 313137, Note_on_c, 0, 71, 70
2, 313165, Control_c, 0, 64, 127
2, 313223, Note_on_c, 0, 67, 62
2, 313240, Note_off_c, 0, 71, 64
2, 313312, Note_on_c, 0, 64, 78
2, 313317, Note_on_c, 0, 59, 63
2, 313320, Note_off_c, 0, 67, 64
2, 313320, Note_on_c, 0, 55, 66
2, 313320, Note_on_c, 0, 47, 65
2, 313332, Control_c, 0, 64, 0
2, 313364, Control_c, 0, 64, 127
2, 313392, Note_on_c, 0, 71, 63
2, 313417, Note_off_c, 0, 64, 64
2, 313467, Note_off_c, 0, 59, 64
2, 313470, Note_off_c, 0, 47, 64
2, 313470, Note_off_c, 0, 55, 64
2, 313478, Note_on_c, 0, 54, 58
2, 313479, Note_on_c, 0, 63, 78
2, 313479, Note_on_c, 0, 59, 62
2, 313479, Note_on_c, 0, 47, 62
2, 313507, Control_c, 0, 64, 0
2, 313514, Note_off_c, 0, 71, 64
2, 313549, Control_c, 0, 64, 127
2, 313643, Note_off_c, 0, 54, 64
2, 313644, Note_off_c, 0, 47, 64
2, 313644, Note_off_c, 0, 59, 64
2, 313695, Note_on_c, 0, 64, 71
2, 313698, Note_off_c, 0, 63, 64
2, 313704, Note_on_c, 0, 52, 61
2, 313705, Note_on_c, 0, 59, 54
2, 313710, Note_on_c, 0, 55, 61
2, 313720, Control_c, 0, 64, 0
2, 313753, Control_c, 0, 64, 127
2, 313951, Note_off_c, 0, 52, 64
2, 313952, Note_off_c, 0, 59, 64
2, 313957, Note_off_c, 0, 55, 64
2, 313966, Note_on_c, 0, 40, 62
2, 313979, Control_c, 0, 64, 0
2, 314015, Control_c, 0, 64, 127
2, 314103, Note_off_c, 0, 64, 64
2, 314202, Note_on_c, 0, 76, 49
2, 314204, Note_off_c, 0, 40, 64
2, 314216, Control_c, 0, 64, 0
2, 314249, Control_c, 0, 64, 127
2, 314375, Note_on_c, 0, 77, 57
2, 314395, Note_off_c, 0, 76, 64
2, 314499, Note_on_c, 0, 76, 53
2, 314505, Note_off_c, 0, 77, 64
2, 314535, Note_on_c, 0, 57, 54
2, 314540, Note_on_c, 0, 65, 48
2, 314540, Note_on_c, 0, 62, 53
2, 314546, Note_on_c, 0, 74, 59
2, 314559, Control_c, 0, 64, 0
2, 314564, Note_off_c, 0, 76, 64
2, 314601, Control_c, 0, 64, 127
2, 314685, Note_off_c, 0, 57, 64
2, 314690, Note_off_c, 0, 62, 64
2, 314690, Note_off_c, 0, 65, 64
2, 314709, Note_on_c, 0, 77, 59
2, 314715, Note_off_c, 0, 74, 64
2, 314724, Note_on_c, 0, 65, 36
2, 314725, Note_on_c, 0, 57, 45
2, 314732, Note_on_c, 0, 62, 31
2, 314732, Control_c, 0, 64, 0
2, 314769, Control_c, 0, 64, 127
2, 314803, Note_off_c, 0, 77, 64
2, 314871, Note_off_c, 0, 57, 64
2, 314884, Note_off_c, 0, 65, 64
2, 314885, Note_on_c, 0, 77, 70
2, 314892, Note_off_c, 0, 62, 64
2, 315056, Note_on_c, 0, 65, 39
2, 315060, Note_on_c, 0, 60, 36
2, 315060, Note_on_c, 0, 57, 36
2, 315085, Control_c, 0, 64, 0
2, 315110, Control_c, 0, 64, 127
2, 315206, Note_off_c, 0, 65, 64
2, 315210, Note_off_c, 0, 57, 64
2, 315210, Note_off_c, 0, 60, 64
2, 315239, Note_on_c, 0, 76, 53
2, 315243, Note_on_c, 0, 64, 40
2, 315245, Note_on_c, 0, 57, 45
2, 315252, Note_on_c, 0, 60, 40
2, 315255, Control_c, 0, 64, 0
2, 315262, Note_off_c, 0, 77, 64
2, 315288, Control_c, 0, 64, 127
2, 315354, Note_off_c, 0, 76, 64
2, 315396, Note_on_c, 0, 74, 54
2, 315399, Note_off_c, 0, 64, 64
2, 315402, Note_off_c, 0, 60, 64
2, 315408, Note_off_c, 0, 57, 64
2, 315420, Control_c, 0, 64, 0
2, 315428, Note_on_c, 0, 76, 54
2, 315438, Note_off_c, 0, 74, 64
2, 315451, Control_c, 0, 64, 127
2, 315467, Note_on_c, 0, 74, 65
2, 315480, Note_off_c, 0, 76, 64
2, 315514, Note_on_c, 0, 73, 67
2, 315520, Note_off_c, 0, 74, 64
2, 315588, Note_on_c, 0, 62, 52
2, 315588, Note_on_c, 0, 56, 52
2, 315588, Note_on_c, 0, 52, 52
2, 315589, Note_on_c, 0, 74, 63
2, 315596, Note_off_c, 0, 73, 64
2, 315600, Control_c, 0, 64, 0
2, 315632, Control_c, 0, 64, 127
2, 315678, Note_on_c, 0, 75, 55
2, 315705, Note_off_c, 0, 74, 64
2, 315738, Note_off_c, 0, 52, 64
2, 315738, Note_off_c, 0, 56, 64
2, 315738, Note_off_c, 0, 62, 64
2, 315780, Note_on_c, 0, 76, 44
2, 315786, Note_on_c, 0, 52, 50
2, 315786, Note_on_c, 0, 56, 46
2, 315786, Note_on_c, 0, 62, 50
2, 315793, Note_off_c, 0, 75, 64
2, 315808, Control_c, 0, 64, 0
2, 315831, Control_c, 0, 64, 127
2, 315865, Note_off_c, 0, 76, 64
2, 315873, Note_on_c, 0, 71, 66
2, 315917, Note_off_c, 0, 71, 64
2, 315945, Note_on_c, 0, 71, 57
2, 315963, Note_off_c, 0, 52, 64
2, 315988, Note_off_c, 0, 56, 64
2, 315994, Control_c, 0, 64, 0
2, 316001, Note_off_c, 0, 62, 64
2, 316004, Note_on_c, 0, 74, 59
2, 316017, Note_off_c, 0, 71, 64
2, 316050, Control_c, 0, 64, 127
2, 316191, Note_on_c, 0, 57, 48
2, 316197, Note_on_c, 0, 62, 31
2, 316200, Note_on_c, 0, 53, 35
2, 316212, Control_c, 0, 64, 0
2, 316244, Control_c, 0, 64, 127
2, 316341, Note_off_c, 0, 57, 64
2, 316347, Note_off_c, 0, 62, 64
2, 316350, Note_off_c, 0, 53, 64
2, 316431, Note_on_c, 0, 72, 53
2, 316437, Note_on_c, 0, 57, 36
2, 316447, Note_on_c, 0, 60, 36
2, 316462, Note_on_c, 0, 53, 20
2, 316464, Note_off_c, 0, 74, 64
2, 316464, Control_c, 0, 64, 0
2, 316510, Control_c, 0, 64, 127
2, 316614, Note_off_c, 0, 53, 64
2, 316616, Note_off_c, 0, 57, 64
2, 316622, Note_off_c, 0, 72, 64
2, 316626, Note_off_c, 0, 60, 64
2, 316668, Note_on_c, 0, 69, 48
2, 316772, Note_on_c, 0, 70, 62
2, 316788, Note_off_c, 0, 69, 64
2, 316824, Note_on_c, 0, 69, 70
2, 316830, Note_off_c, 0, 70, 64
2, 316893, Note_off_c, 0, 69, 64
2, 316900, Note_on_c, 0, 67, 72
2, 316900, Note_on_c, 0, 60, 39
2, 316904, Note_on_c, 0, 63, 42
2, 316904, Note_on_c, 0, 53, 32
2, 316919, Control_c, 0, 64, 0
2, 316934, Control_c, 0, 64, 127
2, 317041, Note_off_c, 0, 67, 64
2, 317065, Note_off_c, 0, 60, 64
2, 317069, Note_off_c, 0, 53, 64
2, 317069, Note_off_c, 0, 63, 64
2, 317119, Note_on_c, 0, 69, 58
2, 317127, Note_on_c, 0, 63, 52
2, 317130, Note_on_c, 0, 53, 53
2, 317136, Note_on_c, 0, 60, 57
2, 317176, Control_c, 0, 64, 0
2, 317189, Control_c, 0, 64, 127
2, 317292, Note_off_c, 0, 63, 64
2, 317295, Note_off_c, 0, 53, 64
2, 317301, Note_off_c, 0, 60, 64
2, 317363, Note_on_c, 0, 62, 50
2, 317363, Note_on_c, 0, 70, 80
2, 317373, Note_on_c, 0, 58, 40
2, 317385, Note_off_c, 0, 69, 64
2, 317400, Control_c, 0, 64, 0
2, 317467, Control_c, 0, 64, 127
2, 317742, Note_on_c, 0, 74, 54
2, 317757, Note_on_c, 0, 65, 29
2, 317763, Note_off_c, 0, 70, 64
2, 317787, Control_c, 0, 64, 0
2, 318033, Control_c, 0, 64, 127
2, 318211, Note_off_c, 0, 62, 64
2, 318223, Note_off_c, 0, 58, 64
2, 318282, Note_off_c, 0, 74, 64
2, 318297, Note_off_c, 0, 65, 64
2, 318421, Note_on_c, 0, 69, 72
2, 318432, Control_c, 0, 64, 0
2, 318556, Note_on_c, 0, 68, 66
2, 318558, Note_off_c, 0, 69, 64
2, 318608, Note_on_c, 0, 52, 68
2, 318608, Note_on_c, 0, 59, 33
2, 318608, Note_on_c, 0, 62, 67
2, 318609, Note_on_c, 0, 64, 66
2, 318632, Control_c, 0, 64, 127
2, 318640, Note_off_c, 0, 68, 64
2, 318695, Note_off_c, 0, 64, 64
2, 318758, Note_off_c, 0, 62, 64
2, 318758, Note_off_c, 0, 59, 64
2, 318758, Note_off_c, 0, 52, 64
2, 318784, Note_on_c, 0, 68, 71
2, 318784, Note_on_c, 0, 52, 54
2, 318788, Note_on_c, 0, 59, 52
2, 318790, Note_on_c, 0, 62, 67
2, 318807, Control_c, 0, 64, 0
2, 318842, Control_c, 0, 64, 127
2, 318934, Note_off_c, 0, 52, 64
2, 318938, Note_off_c, 0, 59, 64
2, 318940, Note_off_c, 0, 62, 64
2, 318957, Note_on_c, 0, 52, 53
2, 318966, Note_on_c, 0, 69, 72
2, 318967, Note_on_c, 0, 45, 53
2, 318973, Note_on_c, 0, 60, 65
2, 318984, Note_off_c, 0, 68, 64
2, 318989, Control_c, 0, 64, 0
2, 319047, Control_c, 0, 64, 127
2, 319157, Note_off_c, 0, 60, 64
2, 319171, Note_on_c, 0, 33, 70
2, 319197, Note_off_c, 0, 52, 64
2, 319207, Note_off_c, 0, 45, 64
2, 319238, Note_off_c, 0, 69, 64
2, 319344, Note_off_c, 0, 33, 64
2, 319369, Note_on_c, 0, 71, 52
2, 319369, Control_c, 0, 64, 0
2, 319405, Control_c, 0, 64, 127
2, 319539, Note_off_c, 0, 71, 64
2, 319545, Note_on_c, 0, 72, 57
2, 319621, Note_on_c, 0, 74, 52
2, 319624, Note_off_c, 0, 72, 64
2, 319699, Note_on_c, 0, 75, 62
2, 319707, Note_on_c, 0, 56, 41
2, 319713, Note_on_c, 0, 60, 44
2, 319715, Note_on_c, 0, 66, 39
2, 319728, Control_c, 0, 64, 0
2, 319733, Note_off_c, 0, 74, 64
2, 319772, Control_c, 0, 64, 127
2, 319818, Note_off_c, 0, 75, 64
2, 319857, Note_off_c, 0, 56, 64
2, 319863, Note_off_c, 0, 60, 64
2, 319865, Note_off_c, 0, 66, 64
2, 319877, Note_on_c, 0, 75, 66
2, 319882, Note_on_c, 0, 66, 46
2, 319883, Note_on_c, 0, 60, 49
2, 319883, Note_on_c, 0, 56, 49
2, 319898, Control_c, 0, 64, 0
2, 319942, Control_c, 0, 64, 127
2, 320024, Note_off_c, 0, 75, 64
2, 320026, Note_on_c, 0, 77, 53
2, 320036, Note_off_c, 0, 60, 64
2, 320046, Note_off_c, 0, 56, 64
2, 320070, Note_on_c, 0, 75, 66
2, 320076, Note_off_c, 0, 66, 64
2, 320086, Note_off_c, 0, 77, 64
2, 320230, Note_on_c, 0, 66, 46
2, 320230, Note_on_c, 0, 55, 50
2, 320238, Note_on_c, 0, 60, 46
2, 320249, Control_c, 0, 64, 0
2, 320285, Control_c, 0, 64, 127
2, 320380, Note_off_c, 0, 55, 64
2, 320380, Note_off_c, 0, 66, 64
2, 320388, Note_off_c, 0, 60, 64
2, 320425, Note_on_c, 0, 74, 53
2, 320428, Note_on_c, 0, 67, 35
2, 320428, Note_on_c, 0, 59, 42
2, 320434, Note_on_c, 0, 55, 22
2, 320448, Note_off_c, 0, 75, 64
2, 320450, Control_c, 0, 64, 0
2, 320493, Control_c, 0, 64, 127
2, 320543, Note_off_c, 0, 74, 64
2, 320605, Note_on_c, 0, 72, 57
2, 320628, Note_off_c, 0, 59, 64
2, 320636, Note_off_c, 0, 67, 64
2, 320644, Note_off_c, 0, 55, 64
2, 320676, Note_on_c, 0, 74, 53
2, 320699, Note_off_c, 0, 72, 64
2, 320760, Note_on_c, 0, 66, 49
2, 320760, Note_on_c, 0, 56, 49
2, 320766, Note_on_c, 0, 75, 62
2, 320769, Note_on_c, 0, 60, 48
2, 320773, Control_c, 0, 64, 0
2, 320806, Note_off_c, 0, 74, 64
2, 320810, Control_c, 0, 64, 127
2, 320860, Note_off_c, 0, 75, 64
2, 320910, Note_off_c, 0, 56, 64
2, 320910, Note_off_c, 0, 66, 64
2, 320919, Note_off_c, 0, 60, 64
2, 320926, Note_on_c, 0, 75, 66
2, 320930, Note_on_c, 0, 66, 46
2, 320937, Note_on_c, 0, 60, 42
2, 320940, Note_on_c, 0, 56, 41
2, 320940, Control_c, 0, 64, 0
2, 320985, Control_c, 0, 64, 127
2, 321044, Note_off_c, 0, 75, 64
2, 321050, Note_on_c, 0, 77, 52
2, 321059, Note_off_c, 0, 60, 64
2, 321061, Note_off_c, 0, 56, 64
2, 321079, Note_off_c, 0, 66, 64
2, 321096, Control_c, 0, 64, 0
2, 321099, Note_on_c, 0, 75, 71
2, 321119, Note_off_c, 0, 77, 64
2, 321133, Control_c, 0, 64, 127
2, 321261, Note_on_c, 0, 59, 41
2, 321265, Note_on_c, 0, 65, 36
2, 321265, Note_on_c, 0, 56, 29
2, 321284, Control_c, 0, 64, 0
2, 321296, Control_c, 0, 64, 127
2, 321411, Note_off_c, 0, 59, 64
2, 321415, Note_off_c, 0, 56, 64
2, 321415, Note_off_c, 0, 65, 64
2, 321432, Note_on_c, 0, 58, 48
2, 321438, Note_on_c, 0, 74, 50
2, 321438, Note_on_c, 0, 56, 40
2, 321443, Note_on_c, 0, 65, 36
2, 321456, Control_c, 0, 64, 0
2, 321463, Note_off_c, 0, 75, 64
2, 321500, Control_c, 0, 64, 127
2, 321591, Note_off_c, 0, 58, 64
2, 321594, Note_off_c, 0, 56, 64
2, 321611, Note_on_c, 0, 82, 76
2, 321614, Note_off_c, 0, 65, 64
2, 321620, Control_c, 0, 64, 0
2, 321638, Note_off_c, 0, 74, 64
2, 321657, Control_c, 0, 64, 127
2, 321775, Note_on_c, 0, 65, 45
2, 321776, Note_on_c, 0, 58, 40
2, 321779, Note_on_c, 0, 55, 36
2, 321925, Note_off_c, 0, 65, 64
2, 321926, Note_off_c, 0, 58, 64
2, 321929, Note_off_c, 0, 55, 64
2, 321950, Note_on_c, 0, 73, 59
2, 321950, Note_on_c, 0, 58, 42
2, 321956, Note_on_c, 0, 64, 48
2, 321960, Note_on_c, 0, 55, 42
2, 321962, Note_off_c, 0, 82, 64
2, 321969, Control_c, 0, 64, 0
2, 322013, Control_c, 0, 64, 127
2, 322118, Note_off_c, 0, 55, 64
2, 322123, Note_on_c, 0, 81, 66
2, 322127, Note_off_c, 0, 58, 64
2, 322127, Note_off_c, 0, 73, 64
2, 322141, Note_off_c, 0, 64, 64
2, 322264, Note_on_c, 0, 55, 46
2, 322265, Note_on_c, 0, 57, 46
2, 322271, Note_on_c, 0, 64, 46
2, 322291, Control_c, 0, 64, 0
2, 322324, Control_c, 0, 64, 127
2, 322414, Note_off_c, 0, 55, 64
2, 322415, Note_off_c, 0, 57, 64
2, 322421, Note_off_c, 0, 64, 64
2, 322452, Note_on_c, 0, 72, 54
2, 322466, Note_on_c, 0, 57, 32
2, 322466, Note_on_c, 0, 63, 41
2, 322468, Note_off_c, 0, 81, 64
2, 322468, Note_on_c, 0, 54, 41
2, 322484, Control_c, 0, 64, 0
2, 322528, Control_c, 0, 64, 127
2, 322625, Note_off_c, 0, 57, 64
2, 322626, Note_off_c, 0, 54, 64
2, 322631, Note_on_c, 0, 80, 58
2, 322654, Note_off_c, 0, 63, 64
2, 322655, Note_off_c, 0, 72, 64
2, 322806, Note_on_c, 0, 63, 41
2, 322812, Note_on_c, 0, 56, 37
2, 322817, Note_on_c, 0, 53, 24
2, 322834, Control_c, 0, 64, 0
2, 322875, Control_c, 0, 64, 127
2, 322956, Note_off_c, 0, 63, 64
2, 322962, Note_off_c, 0, 56, 64
2, 322967, Note_off_c, 0, 53, 64
2, 323018, Note_on_c, 0, 71, 48
2, 323024, Note_on_c, 0, 53, 28
2, 323025, Note_on_c, 0, 62, 35
2, 323025, Note_on_c, 0, 56, 29
2, 323033, Note_off_c, 0, 80, 64
2, 323047, Control_c, 0, 64, 0
2, 323110, Control_c, 0, 64, 127
2, 323204, Note_off_c, 0, 53, 64
2, 323215, Note_off_c, 0, 56, 64
2, 323215, Note_on_c, 0, 79, 50
2, 323227, Note_off_c, 0, 62, 64
2, 323235, Note_off_c, 0, 71, 64
2, 323420, Note_on_c, 0, 55, 20
2, 323420, Note_on_c, 0, 62, 26
2, 323427, Note_on_c, 0, 52, 20
2, 323446, Control_c, 0, 64, 0
2, 323502, Control_c, 0, 64, 127
2, 323541, Note_on_c, 0, 70, 42
2, 323554, Note_off_c, 0, 79, 64
2, 323570, Note_off_c, 0, 62, 64
2, 323570, Note_off_c, 0, 55, 64
2, 323577, Note_off_c, 0, 52, 64
2, 323683, Note_off_c, 0, 70, 64
2, 323688, Note_on_c, 0, 55, 35
2, 323689, Note_on_c, 0, 61, 37
2, 323689, Note_on_c, 0, 52, 40
2, 323690, Note_on_c, 0, 69, 53
2, 323708, Control_c, 0, 64, 0
2, 323751, Control_c, 0, 64, 127
2, 323810, Note_on_c, 0, 76, 57
2, 323838, Note_off_c, 0, 55, 64
2, 323839, Note_off_c, 0, 52, 64
2, 323839, Note_off_c, 0, 61, 64
2, 323849, Note_off_c, 0, 69, 64
2, 323927, Note_on_c, 0, 77, 62
2, 323932, Note_on_c, 0, 53, 48
2, 323942, Note_off_c, 0, 76, 64
2, 323942, Note_on_c, 0, 62, 37
2, 323942, Note_on_c, 0, 50, 48
2, 323951, Control_c, 0, 64, 0
2, 323993, Control_c, 0, 64, 127
2, 324030, Note_on_c, 0, 76, 66
2, 324059, Note_off_c, 0, 77, 64
2, 324097, Note_off_c, 0, 53, 64
2, 324107, Note_off_c, 0, 50, 64
2, 324107, Note_off_c, 0, 62, 64
2, 324121, Note_on_c, 0, 74, 78
2, 324124, Note_on_c, 0, 62, 48
2, 324129, Note_on_c, 0, 65, 52
2, 324137, Note_off_c, 0, 76, 64
2, 324138, Note_on_c, 0, 57, 36
2, 324144, Control_c, 0, 64, 0
2, 324171, Control_c, 0, 64, 127
2, 324274, Note_off_c, 0, 62, 64
2, 324279, Note_off_c, 0, 65, 64
2, 324288, Note_off_c, 0, 57, 64
2, 324293, Note_on_c, 0, 77, 71
2, 324297, Note_on_c, 0, 57, 44
2, 324301, Note_on_c, 0, 65, 45
2, 324304, Note_on_c, 0, 62, 48
2, 324317, Control_c, 0, 64, 0
2, 324321, Note_off_c, 0, 74, 64
2, 324348, Control_c, 0, 64, 127
2, 324364, Note_off_c, 0, 77, 64
2, 324474, Note_on_c, 0, 77, 67
2, 324477, Note_off_c, 0, 57, 64
2, 324486, Control_c, 0, 64, 0
2, 324495, Note_off_c, 0, 65, 64
2, 324500, Note_off_c, 0, 62, 64
2, 324516, Control_c, 0, 64, 127
2, 324635, Note_on_c, 0, 65, 44
2, 324636, Note_on_c, 0, 60, 44
2, 324644, Note_on_c, 0, 57, 31
2, 324668, Control_c, 0, 64, 0
2, 324682, Control_c, 0, 64, 127
2, 324785, Note_off_c, 0, 65, 64
2, 324786, Note_off_c, 0, 60, 64
2, 324794, Note_off_c, 0, 57, 64
2, 324818, Note_on_c, 0, 76, 62
2, 324824, Note_on_c, 0, 60, 42
2, 324827, Note_on_c, 0, 64, 35
2, 324828, Note_on_c, 0, 57, 42
2, 324838, Control_c, 0, 64, 0
2, 324845, Note_off_c, 0, 77, 64
2, 324883, Control_c, 0, 64, 127
2, 324945, Note_off_c, 0, 76, 64
2, 324991, Note_on_c, 0, 74, 63
2, 324992, Note_off_c, 0, 64, 64
2, 324992, Note_off_c, 0, 60, 64
2, 324998, Note_off_c, 0, 57, 64
2, 325030, Note_on_c, 0, 76, 50
2, 325038, Note_off_c, 0, 74, 64
2, 325073, Note_on_c, 0, 74, 65
2, 325083, Note_off_c, 0, 76, 64
2, 325128, Note_on_c, 0, 73, 78
2, 325132, Note_off_c, 0, 74, 64
2, 325166, Note_on_c, 0, 62, 44
2, 325173, Note_on_c, 0, 56, 42
2, 325175, Control_c, 0, 64, 0
2, 325181, Note_on_c, 0, 52, 35
2, 325186, Note_on_c, 0, 74, 70
2, 325191, Note_off_c, 0, 73, 64
2, 325225, Control_c, 0, 64, 127
2, 325269, Note_on_c, 0, 75, 68
2, 325292, Note_off_c, 0, 74, 64
2, 325316, Note_off_c, 0, 62, 64
2, 325323, Note_off_c, 0, 56, 64
2, 325331, Note_off_c, 0, 52, 64
2, 325359, Note_on_c, 0, 52, 36
2, 325359, Note_on_c, 0, 56, 39
2, 325361, Note_on_c, 0, 76, 66
2, 325367, Note_on_c, 0, 62, 36
2, 325369, Note_off_c, 0, 75, 64
2, 325382, Control_c, 0, 64, 0
2, 325426, Control_c, 0, 64, 127
2, 325453, Note_on_c, 0, 71, 76
2, 325483, Note_off_c, 0, 76, 64
2, 325554, Note_on_c, 0, 74, 70
2, 325565, Control_c, 0, 64, 0
2, 325580, Note_off_c, 0, 52, 64
2, 325584, Note_off_c, 0, 71, 64
2, 325596, Note_off_c, 0, 56, 64
2, 325604, Note_off_c, 0, 62, 64
2, 325613, Control_c, 0, 64, 127
2, 325784, Note_on_c, 0, 62, 37
2, 325786, Note_on_c, 0, 57, 29
2, 325797, Note_on_c, 0, 53, 36
2, 325818, Control_c, 0, 64, 0
2, 325849, Control_c, 0, 64, 127
2, 326009, Note_off_c, 0, 62, 64
2, 326011, Note_off_c, 0, 57, 64
2, 326022, Note_off_c, 0, 53, 64
2, 326048, Note_on_c, 0, 72, 53
2, 326062, Note_on_c, 0, 60, 28
2, 326068, Note_on_c, 0, 57, 28
2, 326068, Note_on_c, 0, 53, 22
2, 326074, Note_off_c, 0, 74, 64
2, 326098, Control_c, 0, 64, 0
2, 326161, Control_c, 0, 64, 127
2, 326326, Note_off_c, 0, 53, 64
2, 326328, Note_off_c, 0, 57, 64
2, 326330, Note_off_c, 0, 72, 64
2, 326330, Note_on_c, 0, 69, 66
2, 326346, Note_off_c, 0, 60, 64
2, 326428, Note_on_c, 0, 70, 79
2, 326444, Note_off_c, 0, 69, 64
2, 326498, Note_on_c, 0, 69, 59
2, 326510, Note_off_c, 0, 70, 64
2, 326568, Note_on_c, 0, 67, 78
2, 326572, Note_on_c, 0, 63, 48
2, 326575, Note_off_c, 0, 69, 64
2, 326581, Note_on_c, 0, 60, 37
2, 326582, Note_on_c, 0, 53, 36
2, 326588, Control_c, 0, 64, 0
2, 326631, Control_c, 0, 64, 127
2, 326762, Note_off_c, 0, 63, 64
2, 326771, Note_off_c, 0, 60, 64
2, 326772, Note_off_c, 0, 53, 64
2, 326857, Note_on_c, 0, 69, 72
2, 326860, Note_on_c, 0, 63, 54
2, 326866, Note_on_c, 0, 53, 36
2, 326868, Note_on_c, 0, 60, 44
2, 326878, Note_off_c, 0, 67, 64
2, 326913, Control_c, 0, 64, 0
2, 326948, Control_c, 0, 64, 127
2, 327055, Note_off_c, 0, 63, 64
2, 327061, Note_off_c, 0, 53, 64
2, 327063, Note_off_c, 0, 60, 64
2, 327200, Note_on_c, 0, 70, 67
2, 327214, Note_on_c, 0, 58, 36
2, 327214, Note_on_c, 0, 62, 46
2, 327220, Note_off_c, 0, 69, 64
2, 327270, Control_c, 0, 64, 0
2, 327319, Control_c, 0, 64, 127
2, 327707, Note_on_c, 0, 74, 41
2, 327713, Note_on_c, 0, 65, 31
2, 327721, Note_off_c, 0, 70, 64
2, 327756, Note_off_c, 0, 62, 64
2, 327784, Control_c, 0, 64, 0
2, 327828, Control_c, 0, 64, 127
2, 328080, Note_off_c, 0, 58, 64
2, 328232, Note_off_c, 0, 65, 64
2, 328298, Note_off_c, 0, 74, 64
2, 328615, Note_on_c, 0, 69, 78
2, 328632, Control_c, 0, 64, 0
2, 328668, Control_c, 0, 64, 127
2, 328771, Note_on_c, 0, 68, 74
2, 328779, Note_off_c, 0, 69, 64
2, 328824, Note_on_c, 0, 64, 70
2, 328834, Note_on_c, 0, 62, 80
2, 328840, Note_on_c, 0, 52, 67
2, 328848, Note_on_c, 0, 59, 52
2, 328853, Note_off_c, 0, 68, 64
2, 328863, Control_c, 0, 64, 0
2, 328889, Control_c, 0, 64, 127
2, 328937, Note_off_c, 0, 62, 64
2, 329030, Note_off_c, 0, 52, 64
2, 329038, Note_off_c, 0, 59, 64
2, 329058, Note_on_c, 0, 68, 79
2, 329064, Note_on_c, 0, 62, 78
2, 329064, Note_on_c, 0, 52, 70
2, 329069, Note_off_c, 0, 64, 64
2, 329069, Note_on_c, 0, 59, 65
2, 329081, Control_c, 0, 64, 0
2, 329112, Control_c, 0, 64, 127
2, 329211, Note_off_c, 0, 62, 64
2, 329254, Note_off_c, 0, 52, 64
2, 329259, Note_off_c, 0, 59, 64
2, 329297, Note_off_c, 0, 68, 64
2, 329324, Note_on_c, 0, 69, 83
2, 329324, Note_on_c, 0, 52, 67
2, 329330, Note_on_c, 0, 60, 78
2, 329334, Note_on_c, 0, 45, 61
2, 329351, Control_c, 0, 64, 0
2, 329383, Control_c, 0, 64, 127
2, 329514, Note_off_c, 0, 52, 64
2, 329524, Note_off_c, 0, 45, 64
2, 329712, Note_on_c, 0, 33, 84
2, 329776, Control_c, 0, 64, 0
2, 329850, Control_c, 0, 64, 127
2, 329913, Note_off_c, 0, 33, 64
2, 329992, Note_off_c, 0, 69, 64
2, 330002, Note_off_c, 0, 60, 64
2, 330097, Control_c, 0, 64, 0
2, 332516, Control_c, 0, 64, 0
2, 332740, Control_c, 0, 64, 127
2, 332916, Note_on_c, 0, 41, 61
2, 332921, Note_on_c, 0, 48, 48
2, 333012, Note_on_c, 0, 40, 71
2, 333030, Note_off_c, 0, 41, 64
2, 333112, Note_on_c, 0, 36, 59
2, 333131, Control_c, 0, 64, 0
2, 333136, Note_off_c, 0, 40, 64
2, 333603, Note_on_c, 0, 41, 54
2, 333625, Note_off_c, 0, 36, 64
2, 333636, Control_c, 0, 64, 127
2, 333828, Note_on_c, 0, 49, 46
2, 333874, Note_off_c, 0, 48, 64
2, 334067, Note_on_c, 0, 47, 45
2, 334105, Note_off_c, 0, 49, 64
2, 334332, Note_on_c, 0, 48, 41
2, 334341, Note_off_c, 0, 47, 64
2, 334456, Note_on_c, 0, 40, 41
2, 334480, Note_off_c, 0, 41, 64
2, 334541, Control_c, 0, 64, 0
2, 334561, Note_on_c, 0, 36, 48
2, 334596, Note_off_c, 0, 40, 64
2, 334767, Control_c, 0, 64, 127
2, 335023, Note_on_c, 0, 41, 61
2, 335055, Note_off_c, 0, 36, 64
2, 335274, Note_on_c, 0, 49, 41
2, 335326, Note_off_c, 0, 48, 64
2, 335495, Note_on_c, 0, 47, 46
2, 335513, Note_off_c, 0, 49, 64
2, 335748, Note_on_c, 0, 48, 52
2, 335781, Note_off_c, 0, 47, 64
2, 335860, Note_on_c, 0, 40, 48
2, 335905, Note_off_c, 0, 41, 64
2, 335980, Note_on_c, 0, 36, 41
2, 336002, Note_off_c, 0, 40, 64
2, 336249, Control_c, 0, 64, 0
2, 336471, Note_on_c, 0, 41, 48
2, 336478, Control_c, 0, 64, 127
2, 336516, Note_off_c, 0, 36, 64
2, 336567, Note_off_c, 0, 41, 64
2, 336672, Note_on_c, 0, 41, 46
2, 336727, Control_c, 0, 64, 0
2, 336786, Note_on_c, 0, 40, 54
2, 336804, Note_off_c, 0, 41, 64
2, 336887, Note_on_c, 0, 36, 45
2, 336914, Note_off_c, 0, 40, 64
2, 337107, Note_on_c, 0, 41, 53
2, 337118, Control_c, 0, 64, 127
2, 337147, Note_off_c, 0, 36, 64
2, 337218, Note_on_c, 0, 40, 61
2, 337231, Note_off_c, 0, 41, 64
2, 337317, Control_c, 0, 64, 0
2, 337324, Note_on_c, 0, 36, 48
2, 337353, Note_off_c, 0, 40, 64
2, 337445, Control_c, 0, 64, 127
2, 337477, Note_off_c, 0, 36, 64
2, 337558, Note_on_c, 0, 36, 48
2, 337783, Note_on_c, 0, 41, 52
2, 337814, Note_off_c, 0, 36, 64
2, 337825, Note_off_c, 0, 41, 64
2, 337912, Note_on_c, 0, 40, 33
2, 337954, Note_off_c, 0, 40, 64
2, 338004, Note_on_c, 0, 41, 61
2, 338034, Control_c, 0, 64, 0
2, 338046, Note_off_c, 0, 41, 64
2, 338125, Note_on_c, 0, 40, 65
2, 338144, Control_c, 0, 64, 127
2, 338167, Note_off_c, 0, 40, 64
2, 338246, Note_on_c, 0, 36, 62
2, 338288, Note_off_c, 0, 36, 64
2, 338367, Note_on_c, 0, 36, 62
2, 338385, Note_off_c, 0, 48, 64
2, 338409, Note_off_c, 0, 36, 64
2, 338480, Control_c, 0, 64, 127
2, 338520, Note_on_c, 0, 65, 45
2, 338528, Note_on_c, 0, 41, 27
2, 338530, Control_c, 0, 64, 0
2, 338593, Note_off_c, 0, 41, 64
2, 338598, Control_c, 0, 64, 127
2, 338712, Note_on_c, 0, 67, 35
2, 338736, Note_off_c, 0, 65, 64
2, 338753, Note_on_c, 0, 41, 33
2, 338759, Note_on_c, 0, 48, 37
2, 338776, Note_on_c, 0, 68, 46
2, 338779, Note_on_c, 0, 56, 46
2, 338786, Control_c, 0, 64, 0
2, 338812, Note_off_c, 0, 67, 64
2, 338822, Control_c, 0, 64, 127
2, 338835, Note_off_c, 0, 48, 64
2, 338835, Note_off_c, 0, 41, 64
2, 338836, Note_off_c, 0, 56, 64
2, 338868, Note_on_c, 0, 70, 48
2, 338895, Note_off_c, 0, 68, 64
2, 338949, Note_on_c, 0, 41, 39
2, 338956, Note_on_c, 0, 56, 33
2, 338964, Note_on_c, 0, 72, 52
2, 338966, Note_on_c, 0, 48, 20
2, 338987, Note_off_c, 0, 70, 64
2, 339041, Note_on_c, 0, 68, 62
2, 339077, Note_off_c, 0, 72, 64
2, 339097, Note_off_c, 0, 41, 64
2, 339114, Note_off_c, 0, 48, 64
2, 339118, Note_off_c, 0, 56, 64
2, 339121, Note_off_c, 0, 68, 64
2, 339134, Note_on_c, 0, 67, 44
2, 339159, Note_on_c, 0, 68, 50
2, 339189, Note_off_c, 0, 67, 64
2, 339208, Note_on_c, 0, 67, 48
2, 339230, Note_off_c, 0, 68, 64
2, 339270, Control_c, 0, 64, 0
2, 339277, Note_on_c, 0, 56, 41
2, 339283, Note_on_c, 0, 48, 31
2, 339283, Note_on_c, 0, 41, 27
2, 339305, Note_on_c, 0, 65, 44
2, 339317, Note_off_c, 0, 67, 64
2, 339324, Control_c, 0, 64, 127
2, 339343, Note_off_c, 0, 41, 64
2, 339348, Note_off_c, 0, 48, 64
2, 339364, Note_off_c, 0, 56, 64
2, 339466, Note_on_c, 0, 56, 36
2, 339469, Note_on_c, 0, 41, 40
2, 339473, Note_on_c, 0, 77, 52
2, 339478, Note_on_c, 0, 48, 35
2, 339538, Note_off_c, 0, 48, 64
2, 339551, Note_off_c, 0, 65, 64
2, 339552, Note_off_c, 0, 41, 64
2, 339600, Note_off_c, 0, 56, 64
2, 339636, Note_on_c, 0, 70, 57
2, 339640, Control_c, 0, 64, 0
2, 339648, Note_off_c, 0, 77, 64
2, 339653, Control_c, 0, 64, 127
2, 339760, Note_on_c, 0, 46, 46
2, 339767, Note_on_c, 0, 72, 53
2, 339789, Note_off_c, 0, 70, 64
2, 339794, Control_c, 0, 64, 0
2, 339808, Note_on_c, 0, 53, 27
2, 339810, Note_on_c, 0, 61, 46
2, 339816, Note_on_c, 0, 73, 62
2, 339848, Control_c, 0, 64, 127
2, 339852, Note_off_c, 0, 46, 64
2, 339852, Note_off_c, 0, 72, 64
2, 339902, Note_off_c, 0, 61, 64
2, 339908, Note_on_c, 0, 75, 54
2, 339924, Note_off_c, 0, 53, 64
2, 339942, Note_off_c, 0, 73, 64
2, 339961, Note_on_c, 0, 61, 63
2, 339968, Note_on_c, 0, 46, 55
2, 339975, Note_on_c, 0, 77, 61
2, 339976, Note_on_c, 0, 53, 27
2, 339983, Control_c, 0, 64, 0
2, 340004, Control_c, 0, 64, 127
2, 340013, Note_off_c, 0, 75, 64
2, 340052, Note_on_c, 0, 73, 68
2, 340062, Note_off_c, 0, 61, 64
2, 340072, Note_off_c, 0, 77, 64
2, 340088, Note_off_c, 0, 73, 64
2, 340092, Note_off_c, 0, 53, 64
2, 340092, Note_off_c, 0, 46, 64
2, 340127, Control_c, 0, 64, 0
2, 340134, Note_on_c, 0, 73, 67
2, 340151, Control_c, 0, 64, 127
2, 340175, Note_off_c, 0, 73, 64
2, 340176, Note_on_c, 0, 75, 58
2, 340213, Note_on_c, 0, 73, 66
2, 340250, Note_off_c, 0, 75, 64
2, 340281, Control_c, 0, 64, 0
2, 340289, Note_on_c, 0, 72, 58
2, 340293, Note_on_c, 0, 41, 28
2, 340294, Note_on_c, 0, 48, 52
2, 340299, Note_off_c, 0, 73, 64
2, 340299, Note_on_c, 0, 56, 55
2, 340325, Note_off_c, 0, 41, 64
2, 340332, Note_off_c, 0, 48, 64
2, 340334, Control_c, 0, 64, 127
2, 340341, Note_off_c, 0, 56, 64
2, 340439, Note_off_c, 0, 72, 64
2, 340448, Note_on_c, 0, 68, 59
2, 340448, Note_on_c, 0, 41, 55
2, 340455, Note_on_c, 0, 56, 61
2, 340455, Control_c, 0, 64, 0
2, 340462, Note_on_c, 0, 48, 44
2, 340492, Control_c, 0, 64, 127
2, 340606, Control_c, 0, 64, 0
2, 340612, Note_off_c, 0, 48, 64
2, 340612, Note_on_c, 0, 65, 58
2, 340620, Note_off_c, 0, 41, 64
2, 340622, Note_off_c, 0, 56, 64
2, 340640, Note_off_c, 0, 68, 64
2, 340645, Control_c, 0, 64, 127
2, 340740, Note_on_c, 0, 67, 58
2, 340749, Note_on_c, 0, 41, 58
2, 340761, Note_off_c, 0, 65, 64
2, 340770, Note_on_c, 0, 48, 28
2, 340777, Note_on_c, 0, 68, 61
2, 340779, Control_c, 0, 64, 0
2, 340785, Note_on_c, 0, 56, 62
2, 340799, Control_c, 0, 64, 127
2, 340817, Note_off_c, 0, 41, 64
2, 340820, Note_off_c, 0, 67, 64
2, 340820, Note_off_c, 0, 56, 64
2, 340821, Note_off_c, 0, 48, 64
2, 340867, Note_on_c, 0, 70, 54
2, 340897, Note_off_c, 0, 68, 64
2, 340932, Note_on_c, 0, 56, 67
2, 340933, Control_c, 0, 64, 0
2, 340939, Note_on_c, 0, 48, 55
2, 340939, Note_on_c, 0, 41, 54
2, 340946, Note_on_c, 0, 72, 57
2, 340963, Control_c, 0, 64, 127
2, 340974, Note_off_c, 0, 70, 64
2, 341005, Note_on_c, 0, 68, 74
2, 341034, Note_off_c, 0, 72, 64
2, 341050, Note_off_c, 0, 48, 64
2, 341073, Note_off_c, 0, 68, 64
2, 341084, Note_on_c, 0, 67, 58
2, 341097, Control_c, 0, 64, 0
2, 341103, Note_off_c, 0, 41, 64
2, 341108, Note_on_c, 0, 68, 67
2, 341111, Note_off_c, 0, 56, 64
2, 341114, Control_c, 0, 64, 127
2, 341129, Note_off_c, 0, 67, 64
2, 341155, Note_on_c, 0, 67, 63
2, 341166, Note_off_c, 0, 68, 64
2, 341242, Note_on_c, 0, 65, 55
2, 341246, Control_c, 0, 64, 0
2, 341250, Note_on_c, 0, 56, 66
2, 341251, Note_on_c, 0, 41, 57
2, 341257, Note_on_c, 0, 48, 52
2, 341283, Note_off_c, 0, 67, 64
2, 341286, Control_c, 0, 64, 127
2, 341293, Note_off_c, 0, 48, 64
2, 341294, Note_off_c, 0, 41, 64
2, 341299, Note_off_c, 0, 56, 64
2, 341402, Note_on_c, 0, 72, 65
2, 341402, Note_on_c, 0, 56, 52
2, 341404, Control_c, 0, 64, 0
2, 341411, Note_on_c, 0, 41, 53
2, 341423, Note_on_c, 0, 48, 40
2, 341430, Control_c, 0, 64, 127
2, 341437, Note_off_c, 0, 65, 64
2, 341461, Note_off_c, 0, 72, 64
2, 341476, Note_off_c, 0, 41, 64
2, 341489, Note_off_c, 0, 48, 64
2, 341508, Note_off_c, 0, 56, 64
2, 341538, Note_on_c, 0, 72, 68
2, 341567, Note_on_c, 0, 60, 70
2, 341573, Control_c, 0, 64, 0
2, 341580, Note_off_c, 0, 72, 64
2, 341587, Control_c, 0, 64, 127
2, 341670, Note_on_c, 0, 62, 55
2, 341695, Note_off_c, 0, 60, 64
2, 341724, Note_on_c, 0, 51, 57
2, 341725, Note_on_c, 0, 55, 46
2, 341725, Note_on_c, 0, 63, 61
2, 341730, Note_on_c, 0, 43, 46
2, 341732, Control_c, 0, 64, 0
2, 341754, Control_c, 0, 64, 127
2, 341768, Note_off_c, 0, 43, 64
2, 341770, Note_off_c, 0, 62, 64
2, 341772, Note_off_c, 0, 55, 64
2, 341777, Note_off_c, 0, 51, 64
2, 341806, Note_on_c, 0, 65, 63
2, 341845, Note_off_c, 0, 63, 64
2, 341885, Note_on_c, 0, 43, 54
2, 341891, Control_c, 0, 64, 0
2, 341897, Note_on_c, 0, 67, 68
2, 341897, Note_on_c, 0, 55, 48
2, 341898, Note_on_c, 0, 50, 33
2, 341919, Note_off_c, 0, 65, 64
2, 341926, Control_c, 0, 64, 127
2, 341942, Note_off_c, 0, 50, 64
2, 341942, Note_off_c, 0, 43, 64
2, 341963, Note_on_c, 0, 59, 68
2, 341965, Note_off_c, 0, 55, 64
2, 341980, Note_off_c, 0, 67, 64
2, 342035, Control_c, 0, 64, 0
2, 342052, Note_on_c, 0, 60, 70
2, 342071, Note_off_c, 0, 59, 64
2, 342074, Control_c, 0, 64, 127
2, 342193, Note_on_c, 0, 48, 61
2, 342213, Note_on_c, 0, 55, 62
2, 342230, Control_c, 0, 64, 0
2, 342238, Note_on_c, 0, 64, 65
2, 342268, Control_c, 0, 64, 127
2, 342271, Note_off_c, 0, 48, 64
2, 342283, Note_off_c, 0, 55, 64
2, 342291, Note_off_c, 0, 60, 64
2, 342297, Note_off_c, 0, 64, 64
2, 342342, Note_on_c, 0, 60, 63
2, 342404, Note_off_c, 0, 60, 64
2, 342411, Note_on_c, 0, 48, 27
2, 342419, Note_on_c, 0, 61, 67
2, 342419, Note_on_c, 0, 58, 55
2, 342432, Note_on_c, 0, 64, 45
2, 342449, Note_on_c, 0, 63, 67
2, 342458, Note_off_c, 0, 61, 64
2, 342460, Control_c, 0, 64, 0
2, 342482, Note_on_c, 0, 61, 65
2, 342487, Control_c, 0, 64, 127
2, 342503, Note_off_c, 0, 63, 64
2, 342510, Note_off_c, 0, 64, 64
2, 342534, Note_off_c, 0, 58, 64
2, 342557, Note_off_c, 0, 48, 64
2, 342572, Note_on_c, 0, 60, 65
2, 342598, Note_off_c, 0, 61, 64
2, 342648, Note_off_c, 0, 60, 64
2, 342653, Note_on_c, 0, 65, 50
2, 342773, Note_on_c, 0, 67, 54
2, 342788, Note_off_c, 0, 65, 64
2, 342795, Note_on_c, 0, 41, 40
2, 342795, Control_c, 0, 64, 0
2, 342806, Note_on_c, 0, 68, 53
2, 342812, Note_on_c, 0, 48, 48
2, 342819, Note_on_c, 0, 56, 57
2, 342837, Note_off_c, 0, 67, 64
2, 342850, Control_c, 0, 64, 127
2, 342860, Note_off_c, 0, 41, 64
2, 342864, Note_off_c, 0, 48, 64
2, 342871, Note_off_c, 0, 56, 64
2, 342895, Note_on_c, 0, 70, 46
2, 342927, Note_off_c, 0, 68, 64
2, 342971, Note_on_c, 0, 41, 46
2, 342974, Control_c, 0, 64, 0
2, 342978, Note_on_c, 0, 72, 54
2, 342978, Note_on_c, 0, 56, 33
2, 342988, Note_on_c, 0, 48, 31
2, 343011, Note_off_c, 0, 70, 64
2, 343020, Control_c, 0, 64, 127
2, 343033, Note_on_c, 0, 68, 63
2, 343057, Note_off_c, 0, 72, 64
2, 343092, Note_off_c, 0, 68, 64
2, 343120, Note_on_c, 0, 67, 59
2, 343129, Control_c, 0, 64, 0
2, 343135, Note_off_c, 0, 41, 64
2, 343135, Note_on_c, 0, 68, 65
2, 343140, Note_off_c, 0, 48, 64
2, 343143, Note_off_c, 0, 67, 64
2, 343151, Note_off_c, 0, 56, 64
2, 343171, Note_on_c, 0, 67, 58
2, 343175, Control_c, 0, 64, 127
2, 343201, Note_off_c, 0, 68, 64
2, 343290, Note_on_c, 0, 41, 40
2, 343296, Note_on_c, 0, 65, 50
2, 343302, Note_on_c, 0, 56, 37
2, 343307, Control_c, 0, 64, 0
2, 343312, Note_on_c, 0, 48, 26
2, 343320, Note_off_c, 0, 67, 64
2, 343333, Control_c, 0, 64, 127
2, 343358, Note_off_c, 0, 48, 64
2, 343358, Note_off_c, 0, 41, 64
2, 343368, Note_off_c, 0, 56, 64
2, 343469, Note_on_c, 0, 56, 50
2, 343470, Note_on_c, 0, 41, 52
2, 343472, Note_on_c, 0, 77, 59
2, 343472, Control_c, 0, 64, 0
2, 343480, Note_on_c, 0, 48, 49
2, 343503, Control_c, 0, 64, 127
2, 343529, Note_off_c, 0, 77, 64
2, 343531, Note_off_c, 0, 41, 64
2, 343539, Note_off_c, 0, 48, 64
2, 343552, Note_off_c, 0, 65, 64
2, 343608, Note_off_c, 0, 56, 64
2, 343621, Note_on_c, 0, 70, 61
2, 343750, Note_on_c, 0, 72, 57
2, 343757, Note_off_c, 0, 70, 64
2, 343765, Note_on_c, 0, 46, 53
2, 343781, Note_on_c, 0, 61, 46
2, 343785, Note_on_c, 0, 53, 46
2, 343791, Note_on_c, 0, 73, 63
2, 343802, Control_c, 0, 64, 0
2, 343826, Note_off_c, 0, 72, 64
2, 343831, Note_off_c, 0, 46, 64
2, 343836, Control_c, 0, 64, 127
2, 343843, Note_off_c, 0, 53, 64
2, 343849, Note_off_c, 0, 61, 64
2, 343871, Note_on_c, 0, 75, 63
2, 343900, Note_off_c, 0, 73, 64
2, 343946, Note_on_c, 0, 77, 62
2, 343947, Control_c, 0, 64, 0
2, 343955, Note_on_c, 0, 61, 52
2, 343957, Note_on_c, 0, 53, 50
2, 343957, Note_on_c, 0, 46, 57
2, 343970, Note_off_c, 0, 75, 64
2, 343980, Control_c, 0, 64, 127
2, 344023, Note_off_c, 0, 77, 64
2, 344023, Note_on_c, 0, 73, 65
2, 344029, Note_off_c, 0, 53, 64
2, 344035, Note_off_c, 0, 61, 64
2, 344058, Note_off_c, 0, 73, 64
2, 344075, Note_off_c, 0, 46, 64
2, 344093, Control_c, 0, 64, 0
2, 344099, Note_on_c, 0, 73, 68
2, 344122, Note_on_c, 0, 75, 66
2, 344134, Control_c, 0, 64, 127
2, 344143, Note_off_c, 0, 73, 64
2, 344166, Note_on_c, 0, 73, 55
2, 344183, Note_off_c, 0, 75, 64
2, 344253, Control_c, 0, 64, 0
2, 344261, Note_on_c, 0, 72, 58
2, 344261, Note_on_c, 0, 56, 54
2, 344261, Note_on_c, 0, 41, 50
2, 344271, Note_on_c, 0, 48, 40
2, 344284, Note_off_c, 0, 73, 64
2, 344297, Note_off_c, 0, 41, 64
2, 344297, Control_c, 0, 64, 127
2, 344307, Note_off_c, 0, 48, 64
2, 344310, Note_off_c, 0, 56, 64
2, 344431, Note_on_c, 0, 68, 59
2, 344436, Note_on_c, 0, 41, 55
2, 344436, Control_c, 0, 64, 0
2, 344440, Note_on_c, 0, 56, 49
2, 344447, Note_on_c, 0, 48, 37
2, 344448, Note_off_c, 0, 72, 64
2, 344467, Control_c, 0, 64, 127
2, 344497, Note_off_c, 0, 48, 64
2, 344595, Note_on_c, 0, 65, 58
2, 344604, Control_c, 0, 64, 0
2, 344608, Note_off_c, 0, 68, 64
2, 344612, Note_off_c, 0, 41, 64
2, 344614, Note_off_c, 0, 56, 64
2, 344629, Control_c, 0, 64, 127
2, 344720, Note_on_c, 0, 67, 62
2, 344742, Note_off_c, 0, 65, 64
2, 344755, Control_c, 0, 64, 0
2, 344760, Note_on_c, 0, 56, 72
2, 344760, Note_on_c, 0, 41, 40
2, 344765, Note_on_c, 0, 68, 62
2, 344765, Note_on_c, 0, 48, 58
2, 344785, Control_c, 0, 64, 127
2, 344790, Note_off_c, 0, 41, 64
2, 344792, Note_off_c, 0, 48, 64
2, 344796, Note_off_c, 0, 56, 64
2, 344796, Note_off_c, 0, 67, 64
2, 344847, Note_on_c, 0, 70, 62
2, 344875, Note_off_c, 0, 68, 64
2, 344915, Note_on_c, 0, 41, 59
2, 344919, Note_on_c, 0, 56, 70
2, 344919, Control_c, 0, 64, 0
2, 344925, Note_on_c, 0, 48, 35
2, 344929, Note_on_c, 0, 72, 65
2, 344940, Note_on_c, 0, 65, 24
2, 344951, Control_c, 0, 64, 127
2, 344964, Note_off_c, 0, 70, 64
2, 344983, Note_off_c, 0, 48, 64
2, 344991, Note_on_c, 0, 68, 68
2, 345014, Note_off_c, 0, 72, 64
2, 345020, Note_off_c, 0, 65, 64
2, 345050, Note_off_c, 0, 68, 64
2, 345073, Note_on_c, 0, 67, 52
2, 345083, Note_off_c, 0, 41, 64
2, 345087, Note_off_c, 0, 56, 64
2, 345090, Note_on_c, 0, 68, 75
2, 345110, Note_off_c, 0, 67, 64
2, 345133, Note_on_c, 0, 67, 67
2, 345151, Note_off_c, 0, 68, 64
2, 345240, Note_on_c, 0, 56, 52
2, 345247, Note_on_c, 0, 65, 62
2, 345247, Note_on_c, 0, 41, 57
2, 345255, Control_c, 0, 64, 0
2, 345259, Note_on_c, 0, 48, 40
2, 345264, Note_off_c, 0, 67, 64
2, 345270, Control_c, 0, 64, 127
2, 345300, Note_off_c, 0, 48, 64
2, 345300, Note_off_c, 0, 41, 64
2, 345314, Note_off_c, 0, 56, 64
2, 345413, Note_on_c, 0, 56, 62
2, 345413, Note_on_c, 0, 41, 62
2, 345420, Note_on_c, 0, 72, 68
2, 345421, Note_on_c, 0, 48, 65
2, 345442, Note_off_c, 0, 65, 64
2, 345466, Note_off_c, 0, 72, 64
2, 345468, Note_off_c, 0, 41, 64
2, 345472, Note_off_c, 0, 48, 64
2, 345511, Note_off_c, 0, 56, 64
2, 345548, Note_on_c, 0, 72, 74
2, 345567, Control_c, 0, 64, 0
2, 345588, Note_on_c, 0, 60, 75
2, 345593, Note_off_c, 0, 72, 64
2, 345623, Control_c, 0, 64, 127
2, 345705, Note_on_c, 0, 62, 59
2, 345723, Note_off_c, 0, 60, 64
2, 345738, Note_on_c, 0, 51, 61
2, 345742, Control_c, 0, 64, 0
2, 345746, Note_on_c, 0, 55, 49
2, 345748, Note_on_c, 0, 43, 57
2, 345754, Note_on_c, 0, 63, 63
2, 345783, Control_c, 0, 64, 127
2, 345796, Note_off_c, 0, 51, 64
2, 345799, Note_off_c, 0, 43, 64
2, 345800, Note_off_c, 0, 55, 64
2, 345810, Note_off_c, 0, 62, 64
2, 345836, Note_on_c, 0, 65, 62
2, 345848, Note_off_c, 0, 63, 64
2, 345914, Control_c, 0, 64, 0
2, 345923, Note_on_c, 0, 43, 55
2, 345927, Note_on_c, 0, 67, 71
2, 345927, Note_on_c, 0, 55, 45
2, 345927, Note_on_c, 0, 50, 57
2, 345957, Note_off_c, 0, 65, 64
2, 345965, Note_off_c, 0, 50, 64
2, 345967, Note_off_c, 0, 43, 64
2, 345972, Control_c, 0, 64, 127
2, 345997, Note_on_c, 0, 59, 67
2, 346003, Note_off_c, 0, 55, 64
2, 346020, Note_off_c, 0, 67, 64
2, 346080, Control_c, 0, 64, 0
2, 346094, Note_on_c, 0, 60, 72
2, 346108, Note_off_c, 0, 59, 64
2, 346157, Control_c, 0, 64, 127
2, 346262, Control_c, 0, 64, 0
2, 346274, Note_on_c, 0, 48, 79
2, 346298, Control_c, 0, 64, 127
2, 346467, Note_on_c, 0, 72, 37
2, 346627, Note_on_c, 0, 70, 35
2, 346638, Note_off_c, 0, 72, 64
2, 346668, Note_off_c, 0, 60, 64
2, 346709, Note_on_c, 0, 68, 28
2, 346751, Note_off_c, 0, 70, 64
2, 346774, Control_c, 0, 64, 0
2, 346786, Note_on_c, 0, 67, 40
2, 346789, Note_on_c, 0, 60, 39
2, 346804, Note_off_c, 0, 68, 64
2, 346805, Note_off_c, 0, 48, 64
2, 346824, Control_c, 0, 64, 127
2, 346863, Note_off_c, 0, 60, 64
2, 346941, Note_off_c, 0, 67, 64
2, 346952, Note_on_c, 0, 60, 35
2, 346952, Control_c, 0, 64, 0
2, 346961, Note_on_c, 0, 67, 37
2, 346971, Control_c, 0, 64, 127
2, 347025, Note_off_c, 0, 60, 64
2, 347026, Note_on_c, 0, 68, 39
2, 347054, Note_off_c, 0, 67, 64
2, 347111, Note_on_c, 0, 65, 35
2, 347111, Note_on_c, 0, 60, 32
2, 347115, Note_on_c, 0, 53, 31
2, 347118, Note_on_c, 0, 56, 24
2, 347128, Control_c, 0, 64, 0
2, 347145, Note_off_c, 0, 68, 64
2, 347151, Control_c, 0, 64, 127
2, 347163, Note_off_c, 0, 56, 64
2, 347167, Note_off_c, 0, 53, 64
2, 347173, Note_off_c, 0, 60, 64
2, 347191, Note_on_c, 0, 67, 33
2, 347219, Note_off_c, 0, 65, 64
2, 347266, Note_on_c, 0, 56, 26
2, 347269, Note_on_c, 0, 68, 42
2, 347273, Note_on_c, 0, 60, 28
2, 347275, Note_on_c, 0, 53, 32
2, 347280, Control_c, 0, 64, 0
2, 347292, Control_c, 0, 64, 127
2, 347311, Note_off_c, 0, 67, 64
2, 347312, Note_off_c, 0, 56, 64
2, 347315, Note_off_c, 0, 53, 64
2, 347325, Note_off_c, 0, 60, 64
2, 347418, Note_off_c, 0, 68, 64
2, 347439, Note_on_c, 0, 68, 44
2, 347443, Note_on_c, 0, 56, 22
2, 347448, Note_on_c, 0, 60, 26
2, 347450, Note_on_c, 0, 53, 22
2, 347495, Note_off_c, 0, 53, 64
2, 347504, Note_off_c, 0, 56, 64
2, 347507, Note_off_c, 0, 60, 64
2, 347516, Note_on_c, 0, 72, 37
2, 347541, Note_off_c, 0, 68, 64
2, 347599, Note_on_c, 0, 70, 33
2, 347602, Note_on_c, 0, 53, 28
2, 347606, Note_on_c, 0, 60, 29
2, 347607, Note_on_c, 0, 55, 32
2, 347615, Control_c, 0, 64, 0
2, 347622, Note_off_c, 0, 72, 64
2, 347651, Note_off_c, 0, 53, 64
2, 347653, Control_c, 0, 64, 127
2, 347667, Note_off_c, 0, 55, 64
2, 347674, Note_on_c, 0, 68, 39
2, 347676, Note_off_c, 0, 60, 64
2, 347693, Note_off_c, 0, 70, 64
2, 347712, Note_on_c, 0, 67, 28
2, 347726, Note_off_c, 0, 68, 64
2, 347740, Note_on_c, 0, 68, 50
2, 347750, Note_off_c, 0, 67, 64
2, 347768, Note_on_c, 0, 60, 32
2, 347772, Note_on_c, 0, 67, 37
2, 347772, Note_on_c, 0, 53, 26
2, 347776, Note_on_c, 0, 58, 37
2, 347798, Note_off_c, 0, 68, 64
2, 347817, Note_off_c, 0, 53, 64
2, 347834, Note_off_c, 0, 58, 64
2, 347845, Note_off_c, 0, 60, 64
2, 347870, Note_on_c, 0, 65, 42
2, 347886, Note_off_c, 0, 67, 64
2, 347925, Control_c, 0, 64, 0
2, 347930, Note_on_c, 0, 67, 42
2, 347934, Note_on_c, 0, 58, 37
2, 347940, Note_on_c, 0, 60, 33
2, 347940, Note_on_c, 0, 53, 31
2, 347962, Note_off_c, 0, 65, 64
2, 347967, Control_c, 0, 64, 127
2, 347990, Note_off_c, 0, 53, 64
2, 347990, Note_off_c, 0, 58, 64
2, 347993, Note_off_c, 0, 60, 64
2, 348011, Note_on_c, 0, 68, 42
2, 348036, Note_off_c, 0, 67, 64
2, 348083, Control_c, 0, 64, 0
2, 348091, Note_on_c, 0, 65, 46
2, 348091, Note_on_c, 0, 53, 37
2, 348097, Note_on_c, 0, 60, 26
2, 348104, Note_on_c, 0, 56, 28
2, 348121, Note_off_c, 0, 68, 64
2, 348136, Control_c, 0, 64, 127
2, 348153, Note_off_c, 0, 56, 64
2, 348159, Note_off_c, 0, 53, 64
2, 348172, Note_off_c, 0, 60, 64
2, 348196, Note_on_c, 0, 67, 37
2, 348220, Note_off_c, 0, 65, 64
2, 348243, Note_on_c, 0, 68, 48
2, 348257, Note_on_c, 0, 56, 42
2, 348257, Note_on_c, 0, 53, 39
2, 348264, Note_on_c, 0, 60, 39
2, 348288, Note_off_c, 0, 67, 64
2, 348310, Note_off_c, 0, 56, 64
2, 348312, Note_off_c, 0, 53, 64
2, 348325, Note_off_c, 0, 60, 64
2, 348325, Note_on_c, 0, 70, 41
2, 348362, Note_off_c, 0, 68, 64
2, 348408, Note_on_c, 0, 58, 37
2, 348416, Note_on_c, 0, 56, 18
2, 348416, Note_on_c, 0, 53, 35
2, 348418, Note_on_c, 0, 72, 45
2, 348436, Note_off_c, 0, 70, 64
2, 348457, Note_off_c, 0, 53, 64
2, 348493, Note_on_c, 0, 73, 48
2, 348507, Note_off_c, 0, 58, 64
2, 348519, Note_off_c, 0, 56, 64
2, 348528, Note_off_c, 0, 72, 64
2, 348537, Note_off_c, 0, 73, 64
2, 348579, Note_on_c, 0, 73, 50
2, 348614, Control_c, 0, 64, 0
2, 348621, Note_on_c, 0, 39, 53
2, 348627, Note_on_c, 0, 77, 45
2, 348633, Note_off_c, 0, 73, 64
2, 348643, Control_c, 0, 64, 127
2, 348705, Note_on_c, 0, 75, 54
2, 348748, Note_off_c, 0, 77, 64
2, 348776, Note_on_c, 0, 61, 40
2, 348780, Note_on_c, 0, 55, 35
2, 348780, Note_on_c, 0, 51, 42
2, 348785, Note_on_c, 0, 73, 58
2, 348793, Note_off_c, 0, 75, 64
2, 348795, Control_c, 0, 64, 0
2, 348817, Note_on_c, 0, 75, 53
2, 348830, Note_off_c, 0, 73, 64
2, 348832, Note_off_c, 0, 55, 64
2, 348833, Control_c, 0, 64, 127
2, 348846, Note_off_c, 0, 51, 64
2, 348847, Note_off_c, 0, 61, 64
2, 348850, Note_on_c, 0, 73, 49
2, 348873, Note_off_c, 0, 75, 64
2, 348906, Note_off_c, 0, 39, 64
2, 348934, Note_on_c, 0, 72, 49
2, 348936, Note_off_c, 0, 73, 64
2, 348947, Note_on_c, 0, 61, 40
2, 348953, Note_on_c, 0, 55, 35
2, 348955, Note_on_c, 0, 51, 36
2, 349005, Note_off_c, 0, 55, 64
2, 349013, Note_off_c, 0, 51, 64
2, 349014, Note_on_c, 0, 70, 58
2, 349018, Note_off_c, 0, 61, 64
2, 349040, Note_off_c, 0, 72, 64
2, 349109, Note_on_c, 0, 44, 46
2, 349111, Note_on_c, 0, 68, 55
2, 349115, Note_off_c, 0, 70, 64
2, 349125, Control_c, 0, 64, 0
2, 349148, Control_c, 0, 64, 127
2, 349187, Note_on_c, 0, 70, 55
2, 349209, Note_off_c, 0, 68, 64
2, 349269, Note_on_c, 0, 72, 50
2, 349277, Note_on_c, 0, 56, 36
2, 349279, Note_on_c, 0, 51, 31
2, 349282, Note_on_c, 0, 60, 28
2, 349289, Control_c, 0, 64, 0
2, 349301, Note_off_c, 0, 70, 64
2, 349307, Control_c, 0, 64, 127
2, 349327, Note_off_c, 0, 51, 64
2, 349330, Note_off_c, 0, 60, 64
2, 349330, Note_off_c, 0, 56, 64
2, 349396, Note_off_c, 0, 44, 64
2, 349408, Note_off_c, 0, 72, 64
2, 349438, Note_on_c, 0, 60, 39
2, 349438, Note_on_c, 0, 72, 48
2, 349446, Note_on_c, 0, 56, 35
2, 349446, Note_on_c, 0, 51, 42
2, 349481, Note_off_c, 0, 60, 64
2, 349489, Note_off_c, 0, 51, 64
2, 349495, Note_off_c, 0, 56, 64
2, 349504, Note_on_c, 0, 73, 48
2, 349550, Note_off_c, 0, 72, 64
2, 349590, Note_on_c, 0, 77, 49
2, 349590, Note_on_c, 0, 39, 54
2, 349602, Note_off_c, 0, 73, 64
2, 349606, Control_c, 0, 64, 0
2, 349629, Control_c, 0, 64, 127
2, 349692, Note_on_c, 0, 75, 49
2, 349704, Note_off_c, 0, 77, 64
2, 349740, Note_on_c, 0, 73, 65
2, 349754, Note_on_c, 0, 51, 41
2, 349754, Control_c, 0, 64, 0
2, 349756, Note_off_c, 0, 75, 64
2, 349769, Note_on_c, 0, 61, 24
2, 349770, Note_on_c, 0, 55, 27
2, 349776, Note_on_c, 0, 75, 57
2, 349788, Control_c, 0, 64, 127
2, 349792, Note_off_c, 0, 73, 64
2, 349803, Note_on_c, 0, 73, 58
2, 349810, Note_off_c, 0, 55, 64
2, 349811, Note_off_c, 0, 51, 64
2, 349812, Note_off_c, 0, 61, 64
2, 349821, Note_off_c, 0, 75, 64
2, 349866, Note_off_c, 0, 39, 64
2, 349889, Note_on_c, 0, 72, 54
2, 349893, Note_on_c, 0, 61, 41
2, 349900, Note_on_c, 0, 55, 36
2, 349905, Note_on_c, 0, 51, 39
2, 349916, Note_off_c, 0, 73, 64
2, 349928, Note_off_c, 0, 61, 64
2, 349934, Note_off_c, 0, 55, 64
2, 349943, Note_off_c, 0, 51, 64
2, 349966, Note_on_c, 0, 70, 62
2, 349982, Note_off_c, 0, 72, 64
2, 350040, Note_on_c, 0, 68, 53
2, 350045, Note_on_c, 0, 44, 49
2, 350062, Note_off_c, 0, 70, 64
2, 350067, Control_c, 0, 64, 0
2, 350080, Control_c, 0, 64, 127
2, 350107, Note_on_c, 0, 70, 46
2, 350128, Note_off_c, 0, 68, 64
2, 350192, Note_on_c, 0, 72, 50
2, 350204, Note_on_c, 0, 51, 54
2, 350214, Note_on_c, 0, 56, 36
2, 350215, Note_on_c, 0, 60, 35
2, 350217, Note_off_c, 0, 70, 64
2, 350280, Note_on_c, 0, 52, 54
2, 350328, Note_off_c, 0, 56, 64
2, 350329, Note_off_c, 0, 60, 64
2, 350329, Note_off_c, 0, 44, 64
2, 350332, Note_off_c, 0, 51, 64
2, 350360, Note_on_c, 0, 53, 49
2, 350364, Note_on_c, 0, 56, 35
2, 350364, Note_on_c, 0, 60, 54
2, 350378, Note_off_c, 0, 52, 64
2, 350382, Control_c, 0, 64, 0
2, 350423, Note_off_c, 0, 56, 64
2, 350424, Note_off_c, 0, 60, 64
2, 350433, Control_c, 0, 64, 127
2, 350437, Note_off_c, 0, 53, 64
2, 350479, Note_off_c, 0, 72, 64
2, 350542, Note_on_c, 0, 60, 35
2, 350554, Note_on_c, 0, 70, 41
2, 350554, Control_c, 0, 64, 0
2, 350561, Note_on_c, 0, 53, 31
2, 350564, Note_on_c, 0, 55, 22
2, 350584, Control_c, 0, 64, 127
2, 350626, Note_off_c, 0, 55, 64
2, 350631, Note_off_c, 0, 60, 64
2, 350633, Note_off_c, 0, 53, 64
2, 350640, Note_on_c, 0, 68, 33
2, 350670, Note_off_c, 0, 70, 64
2, 350706, Note_on_c, 0, 58, 37
2, 350711, Note_on_c, 0, 60, 33
2, 350715, Note_on_c, 0, 67, 42
2, 350718, Note_on_c, 0, 53, 28
2, 350724, Control_c, 0, 64, 0
2, 350739, Note_off_c, 0, 68, 64
2, 350746, Note_off_c, 0, 53, 64
2, 350748, Note_off_c, 0, 58, 64
2, 350748, Control_c, 0, 64, 127
2, 350757, Note_off_c, 0, 60, 64
2, 350858, Note_off_c, 0, 67, 64
2, 350859, Control_c, 0, 64, 0
2, 350870, Note_on_c, 0, 58, 40
2, 350875, Note_on_c, 0, 60, 36
2, 350880, Note_on_c, 0, 67, 46
2, 350880, Note_on_c, 0, 53, 28
2, 350904, Control_c, 0, 64, 127
2, 350916, Note_off_c, 0, 60, 64
2, 350919, Note_off_c, 0, 58, 64
2, 350927, Note_off_c, 0, 53, 64
2, 350948, Note_on_c, 0, 68, 40
2, 350973, Note_off_c, 0, 67, 64
2, 351023, Control_c, 0, 64, 0
2, 351032, Note_on_c, 0, 65, 41
2, 351035, Note_on_c, 0, 56, 33
2, 351036, Note_on_c, 0, 60, 22
2, 351042, Note_on_c, 0, 53, 28
2, 351049, Note_off_c, 0, 68, 64
2, 351076, Control_c, 0, 64, 127
2, 351080, Note_off_c, 0, 53, 64
2, 351080, Note_off_c, 0, 56, 64
2, 351085, Note_off_c, 0, 60, 64
2, 351108, Note_on_c, 0, 67, 42
2, 351144, Note_off_c, 0, 65, 64
2, 351176, Control_c, 0, 64, 0
2, 351193, Note_on_c, 0, 60, 28
2, 351194, Note_on_c, 0, 56, 28
2, 351199, Note_on_c, 0, 68, 45
2, 351199, Note_on_c, 0, 53, 28
2, 351216, Control_c, 0, 64, 127
2, 351228, Note_off_c, 0, 67, 64
2, 351241, Note_off_c, 0, 53, 64
2, 351241, Note_off_c, 0, 56, 64
2, 351243, Note_off_c, 0, 60, 64
2, 351336, Note_off_c, 0, 68, 64
2, 351351, Note_on_c, 0, 68, 52
2, 351356, Note_on_c, 0, 56, 32
2, 351360, Note_on_c, 0, 53, 27
2, 351364, Note_on_c, 0, 60, 23
2, 351366, Control_c, 0, 64, 0
2, 351381, Control_c, 0, 64, 127
2, 351409, Note_off_c, 0, 53, 64
2, 351409, Note_off_c, 0, 56, 64
2, 351419, Note_off_c, 0, 60, 64
2, 351432, Note_on_c, 0, 72, 44
2, 351441, Note_off_c, 0, 68, 64
2, 351501, Note_on_c, 0, 70, 45
2, 351507, Note_on_c, 0, 60, 20
2, 351508, Note_on_c, 0, 53, 14
2, 351509, Note_on_c, 0, 55, 24
2, 351515, Note_off_c, 0, 72, 64
2, 351525, Control_c, 0, 64, 0
2, 351538, Control_c, 0, 64, 127
2, 351550, Note_off_c, 0, 53, 64
2, 351561, Note_off_c, 0, 55, 64
2, 351568, Note_off_c, 0, 60, 64
2, 351579, Note_on_c, 0, 68, 48
2, 351584, Note_off_c, 0, 70, 64
2, 351624, Note_on_c, 0, 67, 40
2, 351640, Note_off_c, 0, 68, 64
2, 351648, Note_on_c, 0, 68, 66
2, 351666, Note_off_c, 0, 67, 64
2, 351668, Note_on_c, 0, 60, 29
2, 351668, Note_on_c, 0, 58, 28
2, 351671, Note_on_c, 0, 53, 27
2, 351680, Note_on_c, 0, 67, 59
2, 351681, Control_c, 0, 64, 0
2, 351703, Control_c, 0, 64, 127
2, 351711, Note_off_c, 0, 68, 64
2, 351713, Note_off_c, 0, 53, 64
2, 351714, Note_off_c, 0, 58, 64
2, 351730, Note_off_c, 0, 60, 64
2, 351767, Note_on_c, 0, 65, 44
2, 351790, Note_off_c, 0, 67, 64
2, 351827, Note_on_c, 0, 58, 29
2, 351828, Note_on_c, 0, 60, 24
2, 351829, Note_on_c, 0, 67, 46
2, 351829, Note_on_c, 0, 53, 24
2, 351862, Note_off_c, 0, 65, 64
2, 351877, Note_off_c, 0, 58, 64
2, 351878, Note_off_c, 0, 60, 64
2, 351885, Note_off_c, 0, 53, 64
2, 351915, Note_on_c, 0, 68, 52
2, 351939, Note_off_c, 0, 67, 64
2, 351985, Note_on_c, 0, 60, 28
2, 351991, Note_on_c, 0, 65, 50
2, 351991, Note_on_c, 0, 53, 29
2, 351995, Note_on_c, 0, 56, 31
2, 352009, Note_off_c, 0, 68, 64
2, 352009, Control_c, 0, 64, 0
2, 352037, Note_off_c, 0, 56, 64
2, 352039, Note_off_c, 0, 53, 64
2, 352043, Control_c, 0, 64, 127
2, 352054, Note_off_c, 0, 60, 64
2, 352090, Note_on_c, 0, 67, 41
2, 352118, Note_off_c, 0, 65, 64
2, 352139, Note_on_c, 0, 68, 46
2, 352151, Note_on_c, 0, 56, 35
2, 352152, Note_on_c, 0, 60, 26
2, 352155, Note_on_c, 0, 53, 28
2, 352156, Note_off_c, 0, 67, 64
2, 352161, Control_c, 0, 64, 0
2, 352174, Control_c, 0, 64, 127
2, 352210, Note_off_c, 0, 53, 64
2, 352210, Note_off_c, 0, 56, 64
2, 352212, Note_on_c, 0, 70, 39
2, 352216, Note_off_c, 0, 60, 64
2, 352241, Note_off_c, 0, 68, 64
2, 352295, Note_on_c, 0, 72, 42
2, 352301, Note_on_c, 0, 58, 35
2, 352303, Note_on_c, 0, 56, 36
2, 352304, Note_on_c, 0, 53, 18
2, 352320, Note_off_c, 0, 70, 64
2, 352357, Note_off_c, 0, 56, 64
2, 352358, Note_off_c, 0, 58, 64
2, 352363, Note_on_c, 0, 73, 48
2, 352366, Note_off_c, 0, 53, 64
2, 352377, Note_off_c, 0, 72, 64
2, 352411, Note_off_c, 0, 73, 64
2, 352412, Control_c, 0, 64, 0
2, 352424, Note_on_c, 0, 73, 48
2, 352426, Control_c, 0, 64, 127
2, 352452, Note_on_c, 0, 77, 44
2, 352455, Note_on_c, 0, 39, 52
2, 352464, Note_off_c, 0, 73, 64
2, 352468, Control_c, 0, 64, 0
2, 352507, Control_c, 0, 64, 127
2, 352552, Note_on_c, 0, 75, 52
2, 352572, Note_off_c, 0, 77, 64
2, 352611, Note_on_c, 0, 61, 45
2, 352612, Note_on_c, 0, 55, 29
2, 352613, Note_on_c, 0, 51, 39
2, 352617, Note_on_c, 0, 73, 53
2, 352633, Note_off_c, 0, 75, 64
2, 352642, Control_c, 0, 64, 0
2, 352649, Note_on_c, 0, 75, 46
2, 352652, Note_off_c, 0, 55, 64
2, 352655, Note_off_c, 0, 51, 64
2, 352657, Note_off_c, 0, 73, 64
2, 352659, Control_c, 0, 64, 127
2, 352671, Note_on_c, 0, 73, 46
2, 352673, Note_off_c, 0, 61, 64
2, 352691, Note_off_c, 0, 75, 64
2, 352739, Note_off_c, 0, 39, 64
2, 352760, Note_on_c, 0, 72, 50
2, 352768, Note_on_c, 0, 51, 37
2, 352771, Note_on_c, 0, 61, 37
2, 352772, Note_on_c, 0, 55, 29
2, 352780, Note_off_c, 0, 73, 64
2, 352796, Control_c, 0, 64, 0
2, 352810, Control_c, 0, 64, 127
2, 352834, Note_off_c, 0, 55, 64
2, 352840, Note_on_c, 0, 70, 62
2, 352843, Note_off_c, 0, 51, 64
2, 352846, Note_off_c, 0, 61, 64
2, 352856, Note_off_c, 0, 72, 64
2, 352918, Note_on_c, 0, 68, 55
2, 352922, Note_on_c, 0, 44, 49
2, 352932, Note_off_c, 0, 70, 64
2, 352936, Control_c, 0, 64, 0
2, 352948, Control_c, 0, 64, 127
2, 352983, Note_on_c, 0, 70, 57
2, 353008, Note_off_c, 0, 68, 64
2, 353051, Note_off_c, 0, 70, 64
2, 353058, Note_on_c, 0, 72, 49
2, 353066, Note_on_c, 0, 60, 37
2, 353073, Note_on_c, 0, 56, 39
2, 353074, Note_on_c, 0, 51, 39
2, 353081, Control_c, 0, 64, 0
2, 353092, Control_c, 0, 64, 127
2, 353111, Note_off_c, 0, 51, 64
2, 353111, Note_off_c, 0, 56, 64
2, 353116, Note_off_c, 0, 60, 64
2, 353213, Note_off_c, 0, 72, 64
2, 353213, Note_off_c, 0, 44, 64
2, 353228, Note_on_c, 0, 60, 29
2, 353233, Note_on_c, 0, 72, 48
2, 353236, Note_on_c, 0, 51, 35
2, 353236, Note_on_c, 0, 56, 35
2, 353280, Note_off_c, 0, 60, 64
2, 353284, Note_off_c, 0, 56, 64
2, 353289, Note_on_c, 0, 73, 45
2, 353294, Note_off_c, 0, 51, 64
2, 353313, Note_off_c, 0, 72, 64
2, 353369, Note_on_c, 0, 77, 52
2, 353369, Note_on_c, 0, 39, 49
2, 353376, Note_off_c, 0, 73, 64
2, 353382, Control_c, 0, 64, 0
2, 353406, Control_c, 0, 64, 127
2, 353464, Note_on_c, 0, 75, 59
2, 353481, Note_off_c, 0, 77, 64
2, 353504, Note_on_c, 0, 73, 49
2, 353515, Note_off_c, 0, 75, 64
2, 353532, Note_on_c, 0, 75, 54
2, 353536, Note_on_c, 0, 61, 46
2, 353544, Note_off_c, 0, 73, 64
2, 353544, Control_c, 0, 64, 0
2, 353549, Note_on_c, 0, 51, 19
2, 353550, Note_on_c, 0, 55, 28
2, 353560, Control_c, 0, 64, 127
2, 353569, Note_on_c, 0, 73, 59
2, 353580, Note_off_c, 0, 75, 64
2, 353596, Note_off_c, 0, 61, 64
2, 353621, Note_off_c, 0, 55, 64
2, 353623, Note_off_c, 0, 51, 64
2, 353656, Note_off_c, 0, 39, 64
2, 353680, Note_on_c, 0, 72, 46
2, 353680, Note_on_c, 0, 61, 41
2, 353684, Note_on_c, 0, 55, 41
2, 353695, Note_on_c, 0, 51, 39
2, 353696, Note_off_c, 0, 73, 64
2, 353717, Note_off_c, 0, 61, 64
2, 353721, Note_off_c, 0, 55, 64
2, 353735, Note_off_c, 0, 51, 64
2, 353752, Note_on_c, 0, 70, 63
2, 353771, Note_off_c, 0, 72, 64
2, 353844, Note_on_c, 0, 68, 63
2, 353847, Note_on_c, 0, 44, 54
2, 353854, Control_c, 0, 64, 0
2, 353859, Note_off_c, 0, 70, 64
2, 353880, Control_c, 0, 64, 127
2, 353943, Note_on_c, 0, 70, 57
2, 353975, Note_off_c, 0, 68, 64
2, 353991, Note_on_c, 0, 51, 50
2, 353998, Note_on_c, 0, 72, 61
2, 353998, Note_on_c, 0, 60, 49
2, 354005, Control_c, 0, 64, 0
2, 354017, Note_off_c, 0, 70, 64
2, 354021, Control_c, 0, 64, 127
2, 354107, Note_off_c, 0, 51, 64
2, 354125, Note_off_c, 0, 60, 64
2, 354133, Note_off_c, 0, 44, 64
2, 354145, Note_on_c, 0, 44, 78
2, 354146, Note_on_c, 0, 68, 84
2, 354165, Note_off_c, 0, 72, 64
2, 354231, Note_off_c, 0, 44, 64
2, 354231, Note_on_c, 0, 72, 67
2, 354264, Note_off_c, 0, 68, 64
2, 354270, Note_on_c, 0, 44, 78
2, 354292, Note_on_c, 0, 56, 70
2, 354292, Note_on_c, 0, 51, 42
2, 354293, Note_on_c, 0, 75, 62
2, 354299, Note_on_c, 0, 60, 74
2, 354303, Note_on_c, 0, 66, 74
2, 354304, Note_on_c, 0, 68, 70
2, 354315, Control_c, 0, 64, 0
2, 354317, Note_off_c, 0, 72, 64
2, 354331, Note_off_c, 0, 66, 64
2, 354339, Control_c, 0, 64, 127
2, 354341, Note_off_c, 0, 68, 64
2, 354356, Control_c, 0, 64, 0
2, 354377, Note_off_c, 0, 51, 64
2, 354382, Note_off_c, 0, 60, 64
2, 354392, Control_c, 0, 64, 127
2, 354402, Note_off_c, 0, 56, 64
2, 354405, Note_off_c, 0, 75, 64
2, 354416, Note_on_c, 0, 68, 70
2, 354416, Note_on_c, 0, 66, 58
2, 354421, Note_on_c, 0, 75, 46
2, 354444, Note_off_c, 0, 66, 64
2, 354453, Note_off_c, 0, 68, 64
2, 354460, Control_c, 0, 64, 0
2, 354472, Note_on_c, 0, 77, 70
2, 354472, Note_on_c, 0, 66, 65
2, 354475, Note_on_c, 0, 56, 70
2, 354476, Note_on_c, 0, 68, 57
2, 354479, Note_on_c, 0, 60, 70
2, 354480, Note_on_c, 0, 77, 70
2, 354487, Note_off_c, 0, 77, 64
2, 354488, Note_on_c, 0, 51, 58
2, 354492, Note_off_c, 0, 75, 64
2, 354496, Control_c, 0, 64, 127
2, 354536, Note_off_c, 0, 68, 64
2, 354537, Note_off_c, 0, 66, 64
2, 354567, Note_off_c, 0, 60, 64
2, 354585, Note_off_c, 0, 56, 64
2, 354590, Note_off_c, 0, 51, 64
2, 354635, Note_on_c, 0, 66, 74
2, 354636, Note_on_c, 0, 68, 70
2, 354639, Note_on_c, 0, 75, 67
2, 354652, Note_on_c, 0, 60, 58
2, 354652, Note_on_c, 0, 56, 59
2, 354656, Note_on_c, 0, 51, 58
2, 354657, Note_off_c, 0, 77, 64
2, 354682, Note_off_c, 0, 68, 64
2, 354685, Note_off_c, 0, 66, 64
2, 354758, Note_off_c, 0, 51, 64
2, 354763, Note_off_c, 0, 60, 64
2, 354771, Note_off_c, 0, 56, 64
2, 354792, Note_on_c, 0, 49, 59
2, 354793, Note_off_c, 0, 44, 64
2, 354800, Note_on_c, 0, 68, 70
2, 354801, Control_c, 0, 64, 0
2, 354807, Note_on_c, 0, 73, 70
2, 354807, Note_on_c, 0, 65, 68
2, 354808, Note_on_c, 0, 56, 55
2, 354812, Note_off_c, 0, 75, 64
2, 354813, Note_on_c, 0, 61, 74
2, 354835, Control_c, 0, 64, 127
2, 354837, Note_off_c, 0, 68, 64
2, 354840, Note_off_c, 0, 65, 64
2, 354865, Note_off_c, 0, 56, 64
2, 354870, Note_off_c, 0, 61, 64
2, 354924, Note_off_c, 0, 49, 64
2, 354944, Note_on_c, 0, 77, 70
2, 354948, Note_on_c, 0, 65, 70
2, 354949, Note_on_c, 0, 68, 36
2, 354962, Note_off_c, 0, 73, 64
2, 354963, Note_on_c, 0, 49, 41
2, 354978, Note_off_c, 0, 68, 64
2, 354992, Note_on_c, 0, 56, 3
2, 354994, Note_off_c, 0, 65, 64
2, 355002, Note_on_c, 0, 68, 75
2, 355005, Note_on_c, 0, 80, 78
2, 355006, Note_on_c, 0, 73, 78
2, 355022, Control_c, 0, 64, 0
2, 355032, Note_on_c, 0, 65, 84
2, 355055, Note_off_c, 0, 77, 64
2, 355091, Control_c, 0, 64, 127
2, 355188, Control_c, 0, 64, 0
2, 355200, Control_c, 0, 64, 0
2, 355224, Control_c, 0, 64, 127
2, 355236, Control_c, 0, 64, 127
2, 355323, Control_c, 0, 64, 0
2, 355327, Note_off_c, 0, 49, 64
2, 355328, Note_off_c, 0, 56, 64
2, 355332, Note_off_c, 0, 68, 64
2, 355335, Note_off_c, 0, 80, 64
2, 355336, Note_off_c, 0, 73, 64
2, 355341, Note_off_c, 0, 65, 64
2, 355353, Note_on_c, 0, 66, 49
2, 355356, Note_on_c, 0, 58, 41
2, 355356, Note_on_c, 0, 54, 40
2, 355357, Note_on_c, 0, 70, 41
2, 355357, Note_on_c, 0, 61, 32
2, 355375, Control_c, 0, 64, 127
2, 355384, Note_off_c, 0, 58, 64
2, 355387, Note_off_c, 0, 70, 64
2, 355388, Note_off_c, 0, 54, 64
2, 355391, Note_off_c, 0, 66, 64
2, 355398, Note_off_c, 0, 61, 64
2, 355456, Note_on_c, 0, 66, 45
2, 355456, Note_on_c, 0, 58, 46
2, 355456, Note_on_c, 0, 54, 27
2, 355457, Note_on_c, 0, 72, 41
2, 355460, Note_on_c, 0, 61, 44
2, 355479, Note_off_c, 0, 72, 64
2, 355479, Note_off_c, 0, 54, 64
2, 355485, Note_off_c, 0, 66, 64
2, 355488, Note_off_c, 0, 58, 64
2, 355496, Control_c, 0, 64, 0
2, 355501, Note_on_c, 0, 56, 44
2, 355504, Note_on_c, 0, 73, 52
2, 355506, Note_on_c, 0, 65, 52
2, 355508, Note_on_c, 0, 49, 49
2, 355542, Control_c, 0, 64, 127
2, 355552, Note_off_c, 0, 61, 64
2, 355676, Note_on_c, 0, 37, 50
2, 355680, Note_on_c, 0, 68, 53
2, 355705, Note_off_c, 0, 73, 64
2, 355777, Note_off_c, 0, 56, 64
2, 355782, Note_off_c, 0, 65, 64
2, 355784, Note_off_c, 0, 49, 64
2, 355802, Note_off_c, 0, 37, 64
2, 355816, Note_off_c, 0, 68, 64
2, 355840, Note_on_c, 0, 70, 44
2, 355844, Note_on_c, 0, 66, 52
2, 355844, Note_on_c, 0, 61, 41
2, 355844, Note_on_c, 0, 58, 41
2, 355844, Note_on_c, 0, 54, 20
2, 355850, Control_c, 0, 64, 0
2, 355879, Control_c, 0, 64, 127
2, 355910, Note_off_c, 0, 66, 64
2, 355914, Note_off_c, 0, 54, 64
2, 355925, Note_off_c, 0, 70, 64
2, 355933, Note_off_c, 0, 58, 64
2, 355935, Note_off_c, 0, 61, 64
2, 355940, Note_on_c, 0, 58, 37
2, 355941, Note_on_c, 0, 66, 52
2, 355944, Note_on_c, 0, 54, 39
2, 355947, Note_on_c, 0, 72, 45
2, 355947, Note_on_c, 0, 61, 49
2, 355969, Note_off_c, 0, 58, 64
2, 355974, Note_off_c, 0, 66, 64
2, 355985, Note_off_c, 0, 72, 64
2, 355985, Control_c, 0, 64, 0
2, 355989, Note_off_c, 0, 54, 64
2, 355992, Note_on_c, 0, 65, 50
2, 355992, Note_on_c, 0, 73, 49
2, 355996, Note_on_c, 0, 49, 49
2, 355998, Note_on_c, 0, 56, 39
2, 356030, Control_c, 0, 64, 127
2, 356038, Note_off_c, 0, 61, 64
2, 356151, Note_on_c, 0, 37, 53
2, 356159, Note_on_c, 0, 68, 49
2, 356173, Note_off_c, 0, 73, 64
2, 356267, Note_off_c, 0, 37, 64
2, 356276, Note_off_c, 0, 65, 64
2, 356279, Note_off_c, 0, 68, 64
2, 356280, Note_off_c, 0, 49, 64
2, 356282, Note_off_c, 0, 56, 64
2, 356284, Note_on_c, 0, 44, 59
2, 356317, Note_on_c, 0, 51, 66
2, 356321, Note_on_c, 0, 68, 79
2, 356321, Note_on_c, 0, 66, 83
2, 356325, Note_on_c, 0, 75, 78
2, 356334, Note_on_c, 0, 60, 83
2, 356337, Control_c, 0, 64, 0
2, 356359, Note_off_c, 0, 66, 64
2, 356359, Note_off_c, 0, 68, 64
2, 356362, Note_off_c, 0, 44, 64
2, 356367, Control_c, 0, 64, 127
2, 356389, Note_off_c, 0, 75, 64
2, 356390, Note_off_c, 0, 60, 64
2, 356398, Note_off_c, 0, 51, 64
2, 356425, Note_on_c, 0, 75, 72
2, 356429, Note_on_c, 0, 66, 83
2, 356430, Note_on_c, 0, 68, 83
2, 356435, Note_on_c, 0, 44, 80
2, 356455, Note_off_c, 0, 66, 64
2, 356456, Note_off_c, 0, 68, 64
2, 356464, Note_on_c, 0, 56, 72
2, 356464, Note_on_c, 0, 51, 72
2, 356468, Control_c, 0, 64, 0
2, 356472, Note_on_c, 0, 60, 78
2, 356476, Note_on_c, 0, 77, 80
2, 356483, Note_on_c, 0, 66, 78
2, 356488, Note_on_c, 0, 68, 62
2, 356499, Note_off_c, 0, 75, 64
2, 356517, Control_c, 0, 64, 127
2, 356529, Note_off_c, 0, 56, 64
2, 356531, Note_off_c, 0, 66, 64
2, 356532, Note_off_c, 0, 51, 64
2, 356534, Note_off_c, 0, 60, 64
2, 356538, Note_off_c, 0, 68, 64
2, 356622, Control_c, 0, 64, 0
2, 356632, Note_on_c, 0, 66, 80
2, 356632, Note_on_c, 0, 56, 78
2, 356636, Note_on_c, 0, 68, 78
2, 356637, Note_on_c, 0, 51, 57
2, 356638, Note_on_c, 0, 75, 76
2, 356646, Note_on_c, 0, 60, 71
2, 356656, Note_off_c, 0, 77, 64
2, 356659, Control_c, 0, 64, 127
2, 356672, Note_off_c, 0, 66, 64
2, 356673, Note_off_c, 0, 68, 64
2, 356700, Note_off_c, 0, 56, 64
2, 356704, Control_c, 0, 64, 0
2, 356712, Note_off_c, 0, 51, 64
2, 356720, Note_off_c, 0, 60, 64
2, 356723, Note_off_c, 0, 44, 64
2, 356740, Control_c, 0, 64, 127
2, 356805, Note_on_c, 0, 61, 83
2, 356808, Control_c, 0, 64, 0
2, 356816, Note_on_c, 0, 73, 78
2, 356816, Note_on_c, 0, 65, 76
2, 356816, Note_on_c, 0, 49, 65
2, 356820, Note_on_c, 0, 68, 65
2, 356820, Note_on_c, 0, 56, 70
2, 356834, Note_off_c, 0, 75, 64
2, 356842, Control_c, 0, 64, 127
2, 356875, Note_off_c, 0, 65, 64
2, 356886, Note_off_c, 0, 68, 64
2, 356895, Note_off_c, 0, 73, 64
2, 356901, Note_off_c, 0, 56, 64
2, 356907, Note_off_c, 0, 49, 64
2, 356925, Note_off_c, 0, 61, 64
2, 356952, Note_on_c, 0, 56, 71
2, 356956, Note_on_c, 0, 65, 78
2, 356959, Note_on_c, 0, 77, 80
2, 356959, Note_on_c, 0, 68, 72
2, 356962, Note_on_c, 0, 49, 62
2, 356991, Note_off_c, 0, 68, 64
2, 357002, Note_off_c, 0, 65, 64
2, 357008, Note_on_c, 0, 65, 55
2, 357013, Note_on_c, 0, 80, 83
2, 357016, Note_on_c, 0, 68, 93
2, 357016, Note_on_c, 0, 73, 87
2, 357031, Control_c, 0, 64, 0
2, 357038, Note_off_c, 0, 77, 64
2, 357067, Control_c, 0, 64, 127
2, 357076, Note_on_c, 0, 68, 63
2, 357096, Control_c, 0, 64, 127
2, 357136, Note_off_c, 0, 68, 64
2, 357248, Control_c, 0, 64, 0
2, 357269, Note_off_c, 0, 56, 64
2, 357284, Control_c, 0, 64, 127
2, 357305, Note_off_c, 0, 65, 64
2, 357313, Note_off_c, 0, 49, 64
2, 357316, Note_off_c, 0, 80, 64
2, 357319, Note_off_c, 0, 73, 64
2, 357319, Note_off_c, 0, 68, 64
2, 357339, Control_c, 0, 64, 0
2, 357360, Note_on_c, 0, 39, 66
2, 357362, Note_on_c, 0, 63, 62
2, 357362, Note_on_c, 0, 51, 58
2, 357369, Note_on_c, 0, 67, 41
2, 357372, Note_on_c, 0, 72, 41
2, 357383, Control_c, 0, 64, 127
2, 357402, Note_off_c, 0, 67, 64
2, 357413, Note_off_c, 0, 63, 64
2, 357443, Note_off_c, 0, 51, 64
2, 357445, Note_off_c, 0, 39, 64
2, 357467, Note_on_c, 0, 61, 66
2, 357468, Note_on_c, 0, 67, 62
2, 357475, Note_on_c, 0, 70, 35
2, 357479, Note_on_c, 0, 51, 59
2, 357483, Note_off_c, 0, 72, 64
2, 357496, Note_off_c, 0, 61, 64
2, 357505, Note_off_c, 0, 67, 64
2, 357515, Control_c, 0, 64, 0
2, 357525, Note_on_c, 0, 72, 62
2, 357526, Note_on_c, 0, 63, 66
2, 357535, Note_off_c, 0, 70, 64
2, 357535, Note_on_c, 0, 44, 53
2, 357558, Control_c, 0, 64, 127
2, 357647, Note_off_c, 0, 51, 64
2, 357686, Note_on_c, 0, 51, 59
2, 357693, Note_on_c, 0, 68, 53
2, 357695, Note_on_c, 0, 60, 62
2, 357702, Control_c, 0, 64, 0
2, 357703, Note_off_c, 0, 72, 64
2, 357704, Note_off_c, 0, 63, 64
2, 357714, Control_c, 0, 64, 127
2, 357784, Note_off_c, 0, 60, 64
2, 357788, Note_off_c, 0, 68, 64
2, 357795, Note_off_c, 0, 51, 64
2, 357796, Note_off_c, 0, 44, 64
2, 357855, Note_on_c, 0, 72, 52
2, 357855, Note_on_c, 0, 63, 62
2, 357860, Note_on_c, 0, 67, 52
2, 357860, Note_on_c, 0, 51, 41
2, 357860, Note_on_c, 0, 39, 50
2, 357891, Note_off_c, 0, 67, 64
2, 357897, Note_off_c, 0, 63, 64
2, 357924, Note_off_c, 0, 51, 64
2, 357939, Note_off_c, 0, 39, 64
2, 357960, Note_on_c, 0, 70, 49
2, 357964, Note_on_c, 0, 67, 52
2, 357966, Note_on_c, 0, 61, 66
2, 357971, Note_on_c, 0, 51, 62
2, 357992, Note_off_c, 0, 67, 64
2, 357992, Note_off_c, 0, 72, 64
2, 357993, Note_off_c, 0, 61, 64
2, 358000, Control_c, 0, 64, 0
2, 358023, Note_on_c, 0, 44, 62
2, 358023, Note_on_c, 0, 72, 66
2, 358024, Note_on_c, 0, 63, 66
2, 358039, Control_c, 0, 64, 127
2, 358042, Note_off_c, 0, 70, 64
2, 358160, Note_off_c, 0, 51, 64
2, 358177, Control_c, 0, 64, 0
2, 358188, Note_on_c, 0, 51, 66
2, 358189, Note_on_c, 0, 60, 66
2, 358193, Note_on_c, 0, 68, 59
2, 358202, Note_off_c, 0, 72, 64
2, 358203, Note_off_c, 0, 63, 64
2, 358205, Control_c, 0, 64, 127
2, 358240, Note_off_c, 0, 44, 64
2, 358270, Note_off_c, 0, 60, 64
2, 358278, Note_off_c, 0, 68, 64
2, 358287, Note_off_c, 0, 51, 64
2, 358307, Note_on_c, 0, 44, 58
2, 358345, Note_on_c, 0, 51, 68
2, 358357, Control_c, 0, 64, 0
2, 358366, Note_on_c, 0, 75, 81
2, 358370, Note_on_c, 0, 66, 83
2, 358370, Note_on_c, 0, 60, 74
2, 358371, Note_on_c, 0, 68, 85
2, 358392, Control_c, 0, 64, 127
2, 358393, Note_off_c, 0, 44, 64
2, 358404, Note_off_c, 0, 66, 64
2, 358406, Note_off_c, 0, 68, 64
2, 358417, Note_off_c, 0, 51, 64
2, 358428, Note_off_c, 0, 60, 64
2, 358457, Note_off_c, 0, 75, 64
2, 358467, Note_on_c, 0, 75, 58
2, 358475, Note_on_c, 0, 66, 74
2, 358475, Note_on_c, 0, 44, 68
2, 358480, Note_on_c, 0, 68, 81
2, 358505, Note_off_c, 0, 66, 64
2, 358513, Note_off_c, 0, 68, 64
2, 358520, Control_c, 0, 64, 0
2, 358527, Note_on_c, 0, 60, 71
2, 358528, Note_on_c, 0, 56, 42
2, 358528, Note_on_c, 0, 51, 50
2, 358533, Note_on_c, 0, 68, 68
2, 358533, Note_on_c, 0, 66, 62
2, 358535, Note_off_c, 0, 75, 64
2, 358537, Note_on_c, 0, 77, 78
2, 358552, Control_c, 0, 64, 127
2, 358583, Note_off_c, 0, 68, 64
2, 358586, Note_off_c, 0, 66, 64
2, 358600, Note_off_c, 0, 51, 64
2, 358600, Note_off_c, 0, 56, 64
2, 358608, Note_off_c, 0, 60, 64
2, 358688, Note_on_c, 0, 56, 58
2, 358688, Note_on_c, 0, 51, 58
2, 358690, Control_c, 0, 64, 0
2, 358692, Note_on_c, 0, 68, 74
2, 358695, Note_on_c, 0, 75, 68
2, 358695, Note_on_c, 0, 66, 75
2, 358696, Note_on_c, 0, 60, 78
2, 358702, Note_off_c, 0, 77, 64
2, 358727, Note_off_c, 0, 56, 64
2, 358731, Note_off_c, 0, 51, 64
2, 358735, Control_c, 0, 64, 127
2, 358739, Note_off_c, 0, 60, 64
2, 358750, Note_off_c, 0, 68, 64
2, 358751, Note_off_c, 0, 66, 64
2, 358767, Note_off_c, 0, 44, 64
2, 358785, Control_c, 0, 64, 127
2, 358852, Control_c, 0, 64, 0
2, 358860, Note_on_c, 0, 68, 41
2, 358860, Note_on_c, 0, 65, 74
2, 358864, Note_on_c, 0, 73, 71
2, 358867, Note_on_c, 0, 49, 67
2, 358872, Note_on_c, 0, 61, 78
2, 358874, Note_on_c, 0, 56, 58
2, 358886, Note_off_c, 0, 75, 64
2, 358896, Control_c, 0, 64, 127
2, 358920, Control_c, 0, 64, 0
2, 358923, Note_off_c, 0, 65, 64
2, 358929, Note_off_c, 0, 56, 64
2, 358932, Note_off_c, 0, 68, 64
2, 358935, Note_off_c, 0, 49, 64
2, 358940, Note_off_c, 0, 61, 64
2, 358956, Control_c, 0, 64, 127
2, 359001, Note_on_c, 0, 77, 68
2, 359005, Note_off_c, 0, 73, 64
2, 359006, Note_on_c, 0, 49, 74
2, 359012, Note_on_c, 0, 65, 70
2, 359016, Note_on_c, 0, 68, 62
2, 359034, Note_on_c, 0, 56, 65
2, 359040, Note_off_c, 0, 68, 64
2, 359049, Note_off_c, 0, 65, 64
2, 359064, Note_on_c, 0, 73, 83
2, 359064, Note_on_c, 0, 68, 84
2, 359064, Note_on_c, 0, 65, 79
2, 359077, Note_on_c, 0, 80, 78
2, 359084, Note_off_c, 0, 77, 64
2, 359086, Control_c, 0, 64, 0
2, 359141, Control_c, 0, 64, 127
2, 359228, Note_off_c, 0, 56, 64
2, 359313, Control_c, 0, 64, 127
2, 359333, Control_c, 0, 64, 0
2, 359341, Control_c, 0, 64, 0
2, 359366, Control_c, 0, 64, 127
2, 359374, Control_c, 0, 64, 127
2, 359401, Control_c, 0, 64, 0
2, 359402, Note_off_c, 0, 65, 64
2, 359402, Note_off_c, 0, 68, 64
2, 359402, Note_off_c, 0, 73, 64
2, 359402, Note_off_c, 0, 49, 64
2, 359415, Note_off_c, 0, 80, 64
2, 359420, Note_on_c, 0, 54, 49
2, 359424, Note_on_c, 0, 70, 59
2, 359424, Note_on_c, 0, 66, 57
2, 359424, Note_on_c, 0, 58, 45
2, 359426, Note_on_c, 0, 61, 49
2, 359441, Control_c, 0, 64, 127
2, 359463, Note_off_c, 0, 58, 64
2, 359471, Note_off_c, 0, 54, 64
2, 359473, Note_off_c, 0, 61, 64
2, 359476, Note_off_c, 0, 66, 64
2, 359508, Note_on_c, 0, 61, 26
2, 359508, Note_on_c, 0, 54, 55
2, 359512, Note_on_c, 0, 58, 52
2, 359513, Note_on_c, 0, 66, 52
2, 359525, Note_on_c, 0, 72, 52
2, 359538, Note_off_c, 0, 70, 64
2, 359555, Note_off_c, 0, 58, 64
2, 359559, Note_off_c, 0, 54, 64
2, 359560, Note_off_c, 0, 66, 64
2, 359575, Note_on_c, 0, 73, 63
2, 359579, Control_c, 0, 64, 0
2, 359580, Note_off_c, 0, 72, 64
2, 359580, Note_on_c, 0, 49, 52
2, 359584, Note_on_c, 0, 56, 37
2, 359586, Note_on_c, 0, 65, 61
2, 359613, Control_c, 0, 64, 127
2, 359620, Note_off_c, 0, 61, 64
2, 359742, Note_on_c, 0, 68, 66
2, 359747, Note_on_c, 0, 37, 61
2, 359750, Note_off_c, 0, 49, 64
2, 359754, Note_off_c, 0, 56, 64
2, 359756, Note_off_c, 0, 65, 64
2, 359760, Control_c, 0, 64, 0
2, 359768, Note_off_c, 0, 73, 64
2, 359775, Control_c, 0, 64, 127
2, 359872, Note_off_c, 0, 68, 64
2, 359873, Note_off_c, 0, 37, 64
2, 359901, Control_c, 0, 64, 0
2, 359910, Note_on_c, 0, 61, 53
2, 359910, Note_on_c, 0, 54, 49
2, 359914, Note_on_c, 0, 70, 59
2, 359914, Note_on_c, 0, 66, 55
2, 359919, Note_on_c, 0, 58, 45
2, 359934, Control_c, 0, 64, 127
2, 359948, Note_off_c, 0, 58, 64
2, 359948, Note_off_c, 0, 54, 64
2, 359952, Note_off_c, 0, 66, 64
2, 359952, Note_off_c, 0, 61, 64
2, 359993, Note_on_c, 0, 66, 46
2, 360008, Note_on_c, 0, 72, 49
2, 360008, Note_on_c, 0, 58, 49
2, 360010, Note_on_c, 0, 54, 41
2, 360014, Note_on_c, 0, 61, 45
2, 360019, Note_off_c, 0, 70, 64
2, 360027, Note_off_c, 0, 66, 64
2, 360046, Note_off_c, 0, 58, 64
2, 360048, Note_off_c, 0, 54, 64
2, 360054, Control_c, 0, 64, 0
2, 360060, Note_on_c, 0, 73, 62
2, 360062, Note_on_c, 0, 65, 63
2, 360065, Note_on_c, 0, 49, 67
2, 360067, Note_off_c, 0, 72, 64
2, 360072, Note_on_c, 0, 56, 37
2, 360072, Control_c, 0, 64, 127
2, 360123, Note_off_c, 0, 61, 64
2, 360209, Note_on_c, 0, 37, 59
2, 360221, Note_off_c, 0, 49, 64
2, 360226, Note_on_c, 0, 68, 59
2, 360228, Note_off_c, 0, 56, 64
2, 360246, Note_off_c, 0, 65, 64
2, 360246, Note_off_c, 0, 73, 64
2, 360297, Control_c, 0, 64, 127
2, 360320, Note_off_c, 0, 68, 64
2, 360323, Note_off_c, 0, 37, 64
2, 360336, Note_on_c, 0, 44, 78
2, 360372, Note_on_c, 0, 51, 71
2, 360386, Note_on_c, 0, 75, 83
2, 360387, Control_c, 0, 64, 0
2, 360395, Note_on_c, 0, 68, 78
2, 360395, Note_on_c, 0, 66, 84
2, 360401, Note_on_c, 0, 60, 84
2, 360429, Control_c, 0, 64, 127
2, 360433, Note_off_c, 0, 66, 64
2, 360440, Note_off_c, 0, 68, 64
2, 360452, Note_off_c, 0, 44, 64
2, 360469, Note_off_c, 0, 75, 64
2, 360482, Note_off_c, 0, 51, 64
2, 360491, Note_on_c, 0, 75, 71
2, 360495, Note_off_c, 0, 60, 64
2, 360500, Note_on_c, 0, 66, 83
2, 360507, Note_on_c, 0, 68, 93
2, 360514, Note_on_c, 0, 44, 76
2, 360528, Note_off_c, 0, 66, 64
2, 360536, Note_off_c, 0, 68, 64
2, 360548, Note_on_c, 0, 51, 70
2, 360553, Control_c, 0, 64, 0
2, 360560, Note_on_c, 0, 60, 87
2, 360560, Note_on_c, 0, 56, 48
2, 360564, Note_on_c, 0, 77, 93
2, 360564, Note_on_c, 0, 68, 24
2, 360564, Note_on_c, 0, 66, 80
2, 360580, Note_off_c, 0, 75, 64
2, 360586, Control_c, 0, 64, 127
2, 360590, Note_off_c, 0, 56, 64
2, 360597, Note_off_c, 0, 51, 64
2, 360598, Note_off_c, 0, 60, 64
2, 360622, Note_off_c, 0, 68, 64
2, 360654, Note_off_c, 0, 66, 64
2, 360721, Control_c, 0, 64, 0
2, 360724, Note_on_c, 0, 51, 67
2, 360729, Note_on_c, 0, 75, 78
2, 360730, Note_off_c, 0, 77, 64
2, 360732, Note_on_c, 0, 68, 65
2, 360733, Note_on_c, 0, 66, 97
2, 360736, Note_on_c, 0, 56, 48
2, 360737, Note_on_c, 0, 60, 91
2, 360763, Note_off_c, 0, 51, 64
2, 360765, Control_c, 0, 64, 127
2, 360766, Note_off_c, 0, 56, 64
2, 360778, Note_off_c, 0, 60, 64
2, 360791, Note_off_c, 0, 68, 64
2, 360804, Note_off_c, 0, 44, 64
2, 360805, Note_off_c, 0, 66, 64
2, 360894, Control_c, 0, 64, 0
2, 360900, Note_on_c, 0, 68, 83
2, 360901, Note_on_c, 0, 49, 62
2, 360901, Note_on_c, 0, 65, 78
2, 360901, Note_on_c, 0, 73, 83
2, 360904, Note_off_c, 0, 75, 64
2, 360909, Note_on_c, 0, 56, 79
2, 360909, Note_on_c, 0, 61, 87
2, 360932, Control_c, 0, 64, 127
2, 360987, Note_off_c, 0, 65, 64
2, 360987, Note_off_c, 0, 49, 64
2, 360989, Note_off_c, 0, 68, 64
2, 360995, Note_off_c, 0, 56, 64
2, 361008, Note_off_c, 0, 61, 64
2, 361037, Note_on_c, 0, 49, 70
2, 361044, Note_on_c, 0, 77, 78
2, 361044, Note_on_c, 0, 68, 75
2, 361044, Note_on_c, 0, 65, 65
2, 361048, Note_off_c, 0, 73, 64
2, 361075, Note_on_c, 0, 56, 70
2, 361080, Note_off_c, 0, 68, 64
2, 361083, Note_off_c, 0, 65, 64
2, 361096, Note_on_c, 0, 65, 71
2, 361104, Note_on_c, 0, 80, 83
2, 361109, Note_on_c, 0, 73, 87
2, 361109, Note_on_c, 0, 68, 94
2, 361110, Note_off_c, 0, 77, 64
2, 361123, Control_c, 0, 64, 0
2, 361156, Control_c, 0, 64, 127
2, 361261, Control_c, 0, 64, 127
2, 361329, Control_c, 0, 64, 127
2, 361382, Note_off_c, 0, 49, 64
2, 361399, Note_off_c, 0, 65, 64
2, 361401, Note_off_c, 0, 80, 64
2, 361405, Note_off_c, 0, 56, 64
2, 361412, Note_off_c, 0, 68, 64
2, 361412, Note_off_c, 0, 73, 64
2, 361420, Note_on_c, 0, 63, 50
2, 361420, Note_on_c, 0, 51, 57
2, 361420, Note_on_c, 0, 39, 55
2, 361424, Note_on_c, 0, 72, 49
2, 361424, Note_on_c, 0, 67, 44
2, 361439, Control_c, 0, 64, 0
2, 361444, Note_on_c, 0, 51, 55
2, 361452, Note_off_c, 0, 67, 64
2, 361465, Note_off_c, 0, 63, 64
2, 361470, Control_c, 0, 64, 127
2, 361492, Note_off_c, 0, 51, 64
2, 361508, Note_off_c, 0, 51, 64
2, 361509, Note_off_c, 0, 39, 64
2, 361556, Note_on_c, 0, 51, 54
2, 361564, Note_on_c, 0, 70, 40
2, 361564, Note_on_c, 0, 61, 66
2, 361568, Note_on_c, 0, 67, 37
2, 361577, Note_off_c, 0, 72, 64
2, 361587, Note_off_c, 0, 61, 64
2, 361598, Note_off_c, 0, 67, 64
2, 361600, Note_off_c, 0, 70, 64
2, 361603, Control_c, 0, 64, 0
2, 361610, Note_on_c, 0, 72, 62
2, 361614, Note_on_c, 0, 63, 66
2, 361616, Note_on_c, 0, 44, 55
2, 361637, Control_c, 0, 64, 127
2, 361743, Note_off_c, 0, 51, 64
2, 361764, Control_c, 0, 64, 0
2, 361777, Note_on_c, 0, 51, 55
2, 361784, Note_on_c, 0, 60, 61
2, 361786, Note_on_c, 0, 68, 54
2, 361798, Note_off_c, 0, 72, 64
2, 361802, Note_off_c, 0, 63, 64
2, 361806, Control_c, 0, 64, 127
2, 361836, Note_off_c, 0, 44, 64
2, 361899, Note_off_c, 0, 51, 64
2, 361906, Note_off_c, 0, 60, 64
2, 361908, Note_off_c, 0, 68, 64
2, 361937, Note_on_c, 0, 63, 63
2, 361940, Note_on_c, 0, 72, 52
2, 361943, Note_on_c, 0, 39, 53
2, 361947, Note_on_c, 0, 67, 50
2, 361947, Note_on_c, 0, 51, 36
2, 361959, Control_c, 0, 64, 0
2, 361973, Note_off_c, 0, 67, 64
2, 361973, Control_c, 0, 64, 127
2, 361976, Note_off_c, 0, 63, 64
2, 362037, Note_off_c, 0, 51, 64
2, 362044, Note_off_c, 0, 39, 64
2, 362064, Note_on_c, 0, 67, 52
2, 362064, Note_on_c, 0, 61, 66
2, 362064, Note_on_c, 0, 51, 45
2, 362066, Note_off_c, 0, 72, 64
2, 362068, Note_on_c, 0, 70, 40
2, 362087, Note_off_c, 0, 61, 64
2, 362103, Note_off_c, 0, 67, 64
2, 362104, Note_off_c, 0, 70, 64
2, 362108, Note_on_c, 0, 72, 44
2, 362112, Note_on_c, 0, 44, 52
2, 362115, Note_on_c, 0, 63, 63
2, 362254, Note_off_c, 0, 51, 64
2, 362303, Note_on_c, 0, 56, 44
2, 362310, Note_on_c, 0, 68, 49
2, 362310, Note_on_c, 0, 60, 41
2, 362326, Control_c, 0, 64, 0
2, 362329, Note_off_c, 0, 72, 64
2, 362333, Note_off_c, 0, 44, 64
2, 362336, Note_off_c, 0, 63, 64
2, 362347, Control_c, 0, 64, 127
2, 362408, Note_off_c, 0, 68, 64
2, 362412, Note_on_c, 0, 54, 61
2, 362421, Note_off_c, 0, 60, 64
2, 362427, Note_off_c, 0, 56, 64
2, 362490, Note_on_c, 0, 53, 66
2, 362498, Note_on_c, 0, 70, 45
2, 362503, Note_off_c, 0, 54, 64
2, 362503, Note_on_c, 0, 68, 28
2, 362503, Note_on_c, 0, 62, 49
2, 362516, Control_c, 0, 64, 0
2, 362551, Note_off_c, 0, 68, 64
2, 362570, Note_off_c, 0, 70, 64
2, 362572, Note_off_c, 0, 62, 64
2, 362582, Control_c, 0, 64, 127
2, 362676, Note_on_c, 0, 70, 41
2, 362677, Note_on_c, 0, 68, 36
2, 362678, Note_on_c, 0, 62, 53
2, 362714, Note_off_c, 0, 68, 64
2, 362723, Note_off_c, 0, 70, 64
2, 362724, Note_off_c, 0, 62, 64
2, 362737, Note_on_c, 0, 46, 48
2, 362750, Note_off_c, 0, 53, 64
2, 362828, Note_on_c, 0, 48, 57
2, 362836, Note_on_c, 0, 70, 53
2, 362837, Note_on_c, 0, 65, 57
2, 362840, Note_off_c, 0, 46, 64
2, 362845, Note_on_c, 0, 68, 62
2, 362860, Control_c, 0, 64, 0
2, 362883, Control_c, 0, 64, 127
2, 362889, Note_off_c, 0, 68, 64
2, 362889, Note_off_c, 0, 70, 64
2, 362892, Note_off_c, 0, 65, 64
2, 362920, Note_on_c, 0, 50, 57
2, 362932, Note_off_c, 0, 48, 64
2, 362985, Note_on_c, 0, 51, 66
2, 363000, Note_on_c, 0, 63, 57
2, 363004, Note_off_c, 0, 50, 64
2, 363010, Note_on_c, 0, 66, 26
2, 363013, Note_on_c, 0, 70, 26
2, 363018, Control_c, 0, 64, 0
2, 363054, Control_c, 0, 64, 127
2, 363067, Note_off_c, 0, 66, 64
2, 363069, Note_on_c, 0, 53, 57
2, 363074, Note_off_c, 0, 63, 64
2, 363085, Note_off_c, 0, 51, 64
2, 363093, Note_off_c, 0, 70, 64
2, 363146, Note_on_c, 0, 54, 70
2, 363164, Control_c, 0, 64, 0
2, 363171, Note_off_c, 0, 53, 64
2, 363171, Note_on_c, 0, 63, 50
2, 363172, Note_on_c, 0, 70, 52
2, 363203, Control_c, 0, 64, 127
2, 363239, Note_off_c, 0, 63, 64
2, 363261, Note_off_c, 0, 70, 64
2, 363298, Control_c, 0, 64, 0
2, 363316, Note_on_c, 0, 70, 26
2, 363318, Note_on_c, 0, 63, 45
2, 363368, Note_off_c, 0, 70, 64
2, 363372, Note_off_c, 0, 63, 64
2, 363400, Note_on_c, 0, 56, 58
2, 363424, Note_off_c, 0, 54, 64
2, 363444, Note_on_c, 0, 54, 66
2, 363469, Note_off_c, 0, 56, 64
2, 363484, Note_on_c, 0, 68, 29
2, 363484, Note_on_c, 0, 62, 52
2, 363487, Note_on_c, 0, 53, 50
2, 363492, Note_on_c, 0, 70, 2
2, 363505, Control_c, 0, 64, 0
2, 363508, Note_off_c, 0, 54, 64
2, 363539, Note_off_c, 0, 68, 64
2, 363544, Note_off_c, 0, 70, 64
2, 363564, Control_c, 0, 64, 127
2, 363573, Note_off_c, 0, 62, 64
2, 363630, Note_on_c, 0, 52, 62
2, 363649, Note_off_c, 0, 53, 64
2, 363652, Note_on_c, 0, 62, 52
2, 363660, Note_on_c, 0, 68, 41
2, 363664, Control_c, 0, 64, 0
2, 363669, Note_on_c, 0, 70, 28
2, 363672, Note_on_c, 0, 53, 54
2, 363688, Note_off_c, 0, 52, 64
2, 363717, Control_c, 0, 64, 127
2, 363741, Note_off_c, 0, 62, 64
2, 363744, Note_off_c, 0, 70, 64
2, 363753, Note_off_c, 0, 68, 64
2, 363832, Control_c, 0, 64, 0
2, 363838, Note_on_c, 0, 46, 61
2, 363843, Note_on_c, 0, 70, 48
2, 363843, Note_on_c, 0, 68, 50
2, 363843, Note_on_c, 0, 62, 46
2, 363863, Note_off_c, 0, 53, 64
2, 363874, Control_c, 0, 64, 127
2, 363911, Note_off_c, 0, 68, 64
2, 363914, Note_off_c, 0, 62, 64
2, 363926, Note_off_c, 0, 70, 64
2, 363992, Note_on_c, 0, 51, 55
2, 364008, Note_on_c, 0, 63, 55
2, 364014, Note_on_c, 0, 66, 37
2, 364022, Control_c, 0, 64, 0
2, 364024, Note_off_c, 0, 46, 64
2, 364025, Note_on_c, 0, 70, 26
2, 364062, Control_c, 0, 64, 127
2, 364065, Note_off_c, 0, 66, 64
2, 364069, Note_off_c, 0, 63, 64
2, 364074, Note_off_c, 0, 70, 64
2, 364108, Note_on_c, 0, 53, 61
2, 364131, Note_off_c, 0, 51, 64
2, 364166, Note_on_c, 0, 54, 67
2, 364172, Note_on_c, 0, 63, 50
2, 364175, Note_on_c, 0, 66, 49
2, 364176, Note_on_c, 0, 70, 52
2, 364177, Control_c, 0, 64, 0
2, 364190, Note_off_c, 0, 53, 64
2, 364220, Note_off_c, 0, 70, 64
2, 364228, Note_off_c, 0, 63, 64
2, 364228, Control_c, 0, 64, 127
2, 364230, Note_off_c, 0, 66, 64
2, 364333, Note_on_c, 0, 61, 52
2, 364333, Control_c, 0, 64, 0
2, 364340, Note_on_c, 0, 69, 66
2, 364340, Note_on_c, 0, 63, 57
2, 364386, Note_off_c, 0, 63, 64
2, 364395, Note_off_c, 0, 61, 64
2, 364395, Control_c, 0, 64, 127
2, 364402, Note_off_c, 0, 69, 64
2, 364509, Note_on_c, 0, 63, 49
2, 364509, Note_on_c, 0, 60, 45
2, 364519, Note_on_c, 0, 68, 44
2, 364524, Control_c, 0, 64, 0
2, 364552, Note_off_c, 0, 60, 64
2, 364555, Note_off_c, 0, 63, 64
2, 364560, Control_c, 0, 64, 127
2, 364568, Note_off_c, 0, 68, 64
2, 364646, Control_c, 0, 64, 0
2, 364684, Note_on_c, 0, 60, 57
2, 364689, Note_on_c, 0, 63, 54
2, 364695, Note_on_c, 0, 68, 45
2, 364704, Control_c, 0, 64, 0
2, 364725, Control_c, 0, 64, 127
2, 364732, Note_off_c, 0, 60, 64
2, 364733, Note_off_c, 0, 63, 64
2, 364743, Note_off_c, 0, 68, 64
2, 364771, Note_on_c, 0, 44, 63
2, 364791, Note_off_c, 0, 54, 64
2, 364851, Note_on_c, 0, 46, 50
2, 364856, Note_on_c, 0, 68, 52
2, 364863, Note_on_c, 0, 66, 41
2, 364863, Note_on_c, 0, 63, 49
2, 364874, Note_off_c, 0, 44, 64
2, 364874, Control_c, 0, 64, 0
2, 364899, Control_c, 0, 64, 127
2, 364903, Note_off_c, 0, 63, 64
2, 364908, Note_off_c, 0, 66, 64
2, 364915, Note_off_c, 0, 68, 64
2, 364916, Note_on_c, 0, 48, 61
2, 364933, Note_off_c, 0, 46, 64
2, 365020, Note_on_c, 0, 49, 58
2, 365021, Control_c, 0, 64, 0
2, 365031, Note_on_c, 0, 68, 40
2, 365031, Note_on_c, 0, 61, 37
2, 365037, Note_off_c, 0, 48, 64
2, 365039, Note_on_c, 0, 65, 35
2, 365070, Note_off_c, 0, 65, 64
2, 365075, Note_off_c, 0, 68, 64
2, 365080, Control_c, 0, 64, 127
2, 365085, Note_off_c, 0, 61, 64
2, 365111, Note_on_c, 0, 51, 55
2, 365128, Note_off_c, 0, 49, 64
2, 365178, Control_c, 0, 64, 0
2, 365194, Note_on_c, 0, 68, 46
2, 365200, Note_on_c, 0, 61, 32
2, 365203, Note_on_c, 0, 53, 44
2, 365211, Note_off_c, 0, 51, 64
2, 365234, Control_c, 0, 64, 127
2, 365266, Note_off_c, 0, 61, 64
2, 365269, Note_off_c, 0, 68, 64
2, 365341, Note_on_c, 0, 54, 58
2, 365355, Control_c, 0, 64, 0
2, 365360, Note_on_c, 0, 68, 26
2, 365361, Note_off_c, 0, 53, 64
2, 365364, Note_on_c, 0, 61, 26
2, 365370, Control_c, 0, 64, 127
2, 365412, Note_off_c, 0, 61, 64
2, 365412, Note_off_c, 0, 68, 64
2, 365423, Note_on_c, 0, 53, 58
2, 365430, Note_off_c, 0, 54, 64
2, 365463, Note_off_c, 0, 53, 64
2, 365492, Note_on_c, 0, 53, 66
2, 365504, Note_on_c, 0, 51, 55
2, 365515, Note_on_c, 0, 66, 52
2, 365527, Note_on_c, 0, 68, 32
2, 365527, Note_on_c, 0, 60, 52
2, 365530, Control_c, 0, 64, 0
2, 365547, Note_off_c, 0, 53, 64
2, 365578, Note_off_c, 0, 60, 64
2, 365579, Note_off_c, 0, 68, 64
2, 365582, Note_off_c, 0, 66, 64
2, 365590, Control_c, 0, 64, 127
2, 365661, Note_on_c, 0, 50, 55
2, 365680, Note_off_c, 0, 51, 64
2, 365697, Control_c, 0, 64, 0
2, 365704, Note_on_c, 0, 60, 41
2, 365708, Note_on_c, 0, 51, 67
2, 365708, Note_on_c, 0, 68, 36
2, 365708, Note_on_c, 0, 66, 40
2, 365730, Note_off_c, 0, 50, 64
2, 365748, Note_off_c, 0, 60, 64
2, 365753, Note_off_c, 0, 68, 64
2, 365754, Note_off_c, 0, 66, 64
2, 365766, Control_c, 0, 64, 127
2, 365879, Control_c, 0, 64, 0
2, 365884, Note_on_c, 0, 44, 54
2, 365888, Note_off_c, 0, 51, 64
2, 365888, Note_on_c, 0, 60, 44
2, 365894, Note_on_c, 0, 68, 36
2, 365903, Note_on_c, 0, 66, 24
2, 365926, Control_c, 0, 64, 127
2, 365933, Note_off_c, 0, 60, 64
2, 365947, Note_off_c, 0, 66, 64
2, 365949, Note_off_c, 0, 68, 64
2, 365986, Control_c, 0, 64, 0
2, 366050, Note_on_c, 0, 53, 54
2, 366057, Note_on_c, 0, 61, 31
2, 366060, Note_on_c, 0, 65, 57
2, 366061, Note_on_c, 0, 68, 37
2, 366067, Control_c, 0, 64, 0
2, 366096, Note_off_c, 0, 44, 64
2, 366108, Note_off_c, 0, 65, 64
2, 366111, Note_off_c, 0, 68, 64
2, 366124, Note_off_c, 0, 61, 64
2, 366126, Control_c, 0, 64, 127
2, 366132, Note_on_c, 0, 51, 58
2, 366146, Note_off_c, 0, 53, 64
2, 366224, Control_c, 0, 64, 0
2, 366229, Note_on_c, 0, 49, 58
2, 366231, Note_on_c, 0, 61, 41
2, 366235, Note_on_c, 0, 68, 41
2, 366235, Note_on_c, 0, 65, 50
2, 366242, Note_off_c, 0, 51, 64
2, 366270, Control_c, 0, 64, 127
2, 366276, Note_off_c, 0, 65, 64
2, 366278, Note_off_c, 0, 61, 64
2, 366283, Note_off_c, 0, 68, 64
2, 366405, Note_on_c, 0, 63, 62
2, 366405, Note_on_c, 0, 48, 55
2, 366409, Note_on_c, 0, 69, 66
2, 366409, Note_on_c, 0, 65, 62
2, 366417, Note_off_c, 0, 49, 64
2, 366417, Control_c, 0, 64, 0
2, 366473, Control_c, 0, 64, 127
2, 366484, Note_off_c, 0, 65, 64
2, 366488, Note_off_c, 0, 63, 64
2, 366495, Note_on_c, 0, 47, 42
2, 366498, Note_off_c, 0, 69, 64
2, 366518, Note_off_c, 0, 48, 64
2, 366569, Note_on_c, 0, 70, 57
2, 366580, Note_on_c, 0, 46, 59
2, 366580, Note_on_c, 0, 65, 46
2, 366580, Note_on_c, 0, 63, 52
2, 366588, Control_c, 0, 64, 0
2, 366603, Note_off_c, 0, 47, 64
2, 366634, Control_c, 0, 64, 127
2, 366642, Note_off_c, 0, 65, 64
2, 366664, Note_off_c, 0, 63, 64
2, 366664, Note_off_c, 0, 70, 64
2, 366751, Control_c, 0, 64, 0
2, 366764, Note_on_c, 0, 62, 45
2, 366767, Note_on_c, 0, 70, 46
2, 366769, Note_on_c, 0, 65, 52
2, 366801, Control_c, 0, 64, 127
2, 366815, Note_off_c, 0, 46, 64
2, 366837, Note_off_c, 0, 65, 64
2, 366846, Note_off_c, 0, 62, 64
2, 366853, Note_off_c, 0, 70, 64
2, 366865, Note_on_c, 0, 46, 66
2, 366918, Control_c, 0, 64, 0
2, 366935, Note_on_c, 0, 70, 50
2, 366940, Note_on_c, 0, 48, 57
2, 366944, Note_on_c, 0, 68, 50
2, 366944, Note_on_c, 0, 65, 41
2, 366966, Note_off_c, 0, 46, 64
2, 366972, Control_c, 0, 64, 127
2, 366994, Note_off_c, 0, 70, 64
2, 367006, Note_off_c, 0, 68, 64
2, 367010, Note_off_c, 0, 65, 64
2, 367018, Note_on_c, 0, 50, 55
2, 367028, Note_off_c, 0, 48, 64
2, 367092, Note_on_c, 0, 51, 71
2, 367103, Control_c, 0, 64, 0
2, 367111, Note_on_c, 0, 66, 49
2, 367111, Note_on_c, 0, 65, 48
2, 367112, Note_off_c, 0, 50, 64
2, 367117, Note_on_c, 0, 70, 36
2, 367160, Control_c, 0, 64, 127
2, 367183, Note_on_c, 0, 53, 70
2, 367196, Note_off_c, 0, 70, 64
2, 367197, Note_off_c, 0, 51, 64
2, 367199, Note_off_c, 0, 66, 64
2, 367208, Note_off_c, 0, 65, 64
2, 367255, Control_c, 0, 64, 0
2, 367260, Note_on_c, 0, 54, 72
2, 367269, Note_on_c, 0, 63, 48
2, 367275, Note_on_c, 0, 66, 46
2, 367276, Note_on_c, 0, 70, 41
2, 367288, Note_off_c, 0, 53, 64
2, 367301, Control_c, 0, 64, 127
2, 367344, Note_off_c, 0, 66, 64
2, 367358, Note_off_c, 0, 63, 64
2, 367362, Note_off_c, 0, 70, 64
2, 367417, Note_on_c, 0, 56, 68
2, 367424, Note_on_c, 0, 70, 53
2, 367424, Note_on_c, 0, 63, 53
2, 367425, Control_c, 0, 64, 0
2, 367437, Note_off_c, 0, 54, 64
2, 367461, Control_c, 0, 64, 127
2, 367479, Note_on_c, 0, 54, 44
2, 367507, Note_off_c, 0, 56, 64
2, 367515, Note_off_c, 0, 63, 64
2, 367521, Note_off_c, 0, 70, 64
2, 367541, Note_off_c, 0, 54, 64
2, 367560, Note_on_c, 0, 54, 80
2, 367592, Note_on_c, 0, 68, 49
2, 367597, Note_on_c, 0, 63, 50
2, 367597, Note_on_c, 0, 70, 46
2, 367601, Control_c, 0, 64, 0
2, 367609, Note_on_c, 0, 53, 63
2, 367623, Note_off_c, 0, 54, 64
2, 367652, Control_c, 0, 64, 127
2, 367675, Note_off_c, 0, 70, 64
2, 367685, Note_off_c, 0, 68, 64
2, 367692, Note_off_c, 0, 63, 64
2, 367723, Note_on_c, 0, 52, 66
2, 367739, Note_off_c, 0, 53, 64
2, 367749, Control_c, 0, 64, 0
2, 367757, Note_on_c, 0, 53, 61
2, 367761, Note_on_c, 0, 62, 53
2, 367767, Note_on_c, 0, 70, 35
2, 367768, Note_on_c, 0, 68, 26
2, 367776, Note_off_c, 0, 52, 64
2, 367820, Control_c, 0, 64, 127
2, 367841, Note_off_c, 0, 70, 64
2, 367841, Note_off_c, 0, 62, 64
2, 367856, Note_off_c, 0, 68, 64
2, 367936, Control_c, 0, 64, 0
2, 367942, Note_on_c, 0, 46, 66
2, 367946, Note_on_c, 0, 62, 36
2, 367949, Note_on_c, 0, 70, 35
2, 367958, Note_off_c, 0, 53, 64
2, 367962, Note_on_c, 0, 68, 26
2, 367993, Control_c, 0, 64, 127
2, 368020, Note_off_c, 0, 68, 64
2, 368029, Note_off_c, 0, 70, 64
2, 368032, Note_off_c, 0, 62, 64
2, 368042, Control_c, 0, 64, 0
2, 368099, Note_on_c, 0, 51, 57
2, 368099, Control_c, 0, 64, 0
2, 368107, Note_on_c, 0, 70, 45
2, 368107, Note_on_c, 0, 66, 52
2, 368107, Note_on_c, 0, 63, 53
2, 368118, Note_off_c, 0, 46, 64
2, 368162, Control_c, 0, 64, 127
2, 368175, Note_off_c, 0, 63, 64
2, 368175, Note_off_c, 0, 66, 64
2, 368184, Note_off_c, 0, 70, 64
2, 368229, Note_on_c, 0, 53, 57
2, 368253, Note_off_c, 0, 51, 64
2, 368266, Control_c, 0, 64, 0
2, 368271, Note_on_c, 0, 70, 49
2, 368271, Note_on_c, 0, 63, 52
2, 368287, Note_on_c, 0, 54, 65
2, 368302, Note_off_c, 0, 53, 64
2, 368317, Control_c, 0, 64, 127
2, 368326, Note_off_c, 0, 70, 64
2, 368335, Note_off_c, 0, 63, 64
2, 368426, Control_c, 0, 64, 0
2, 368440, Note_on_c, 0, 63, 53
2, 368440, Note_on_c, 0, 61, 50
2, 368449, Note_on_c, 0, 69, 55
2, 368487, Control_c, 0, 64, 127
2, 368495, Note_off_c, 0, 63, 64
2, 368499, Note_off_c, 0, 61, 64
2, 368507, Note_off_c, 0, 69, 64
2, 368605, Control_c, 0, 64, 0
2, 368614, Note_on_c, 0, 63, 41
2, 368614, Note_on_c, 0, 68, 45
2, 368622, Note_on_c, 0, 61, 28
2, 368652, Note_off_c, 0, 63, 64
2, 368657, Control_c, 0, 64, 127
2, 368662, Note_off_c, 0, 68, 64
2, 368662, Note_off_c, 0, 61, 64
2, 368772, Control_c, 0, 64, 0
2, 368780, Note_on_c, 0, 60, 49
2, 368783, Note_on_c, 0, 63, 41
2, 368787, Note_on_c, 0, 68, 44
2, 368824, Control_c, 0, 64, 127
2, 368829, Note_off_c, 0, 63, 64
2, 368829, Note_off_c, 0, 60, 64
2, 368832, Note_off_c, 0, 68, 64
2, 368878, Note_on_c, 0, 44, 58
2, 368908, Note_off_c, 0, 54, 64
2, 368931, Control_c, 0, 64, 0
2, 368947, Note_on_c, 0, 68, 49
2, 368948, Note_on_c, 0, 46, 55
2, 368955, Note_on_c, 0, 66, 45
2, 368957, Note_on_c, 0, 63, 46
2, 368978, Note_off_c, 0, 44, 64
2, 368986, Control_c, 0, 64, 127
2, 368993, Note_off_c, 0, 66, 64
2, 368999, Note_off_c, 0, 63, 64
2, 369006, Note_off_c, 0, 68, 64
2, 369027, Note_on_c, 0, 48, 54
2, 369047, Note_off_c, 0, 46, 64
2, 369101, Control_c, 0, 64, 0
2, 369109, Note_on_c, 0, 49, 65
2, 369115, Note_on_c, 0, 63, 52
2, 369120, Note_on_c, 0, 68, 37
2, 369122, Note_on_c, 0, 65, 52
2, 369127, Note_off_c, 0, 48, 64
2, 369152, Note_off_c, 0, 65, 64
2, 369157, Note_off_c, 0, 63, 64
2, 369158, Note_off_c, 0, 68, 64
2, 369167, Control_c, 0, 64, 127
2, 369189, Note_on_c, 0, 51, 63
2, 369210, Note_off_c, 0, 49, 64
2, 369264, Control_c, 0, 64, 0
2, 369271, Note_on_c, 0, 53, 37
2, 369279, Note_on_c, 0, 61, 45
2, 369282, Note_on_c, 0, 68, 41
2, 369282, Note_on_c, 0, 65, 50
2, 369293, Note_off_c, 0, 51, 64
2, 369318, Control_c, 0, 64, 127
2, 369324, Note_off_c, 0, 65, 64
2, 369330, Note_off_c, 0, 68, 64
2, 369331, Note_off_c, 0, 61, 64
2, 369420, Note_on_c, 0, 54, 70
2, 369429, Control_c, 0, 64, 0
2, 369438, Note_off_c, 0, 53, 64
2, 369446, Note_on_c, 0, 61, 41
2, 369453, Note_on_c, 0, 68, 32
2, 369466, Control_c, 0, 64, 127
2, 369490, Note_off_c, 0, 68, 64
2, 369500, Note_off_c, 0, 61, 64
2, 369500, Note_on_c, 0, 53, 63
2, 369519, Note_off_c, 0, 54, 64
2, 369557, Note_off_c, 0, 53, 64
2, 369572, Note_on_c, 0, 53, 72
2, 369592, Control_c, 0, 64, 0
2, 369599, Note_on_c, 0, 66, 41
2, 369599, Note_on_c, 0, 68, 52
2, 369600, Note_on_c, 0, 61, 55
2, 369606, Note_on_c, 0, 51, 58
2, 369625, Note_off_c, 0, 53, 64
2, 369639, Note_off_c, 0, 61, 64
2, 369647, Note_off_c, 0, 68, 64
2, 369649, Note_off_c, 0, 66, 64
2, 369664, Control_c, 0, 64, 127
2, 369733, Note_on_c, 0, 50, 55
2, 369750, Note_off_c, 0, 51, 64
2, 369751, Control_c, 0, 64, 0
2, 369775, Note_on_c, 0, 60, 44
2, 369779, Note_on_c, 0, 68, 28
2, 369779, Note_on_c, 0, 66, 26
2, 369785, Note_on_c, 0, 51, 74
2, 369796, Note_off_c, 0, 50, 64
2, 369809, Note_off_c, 0, 66, 64
2, 369814, Note_off_c, 0, 68, 64
2, 369816, Control_c, 0, 64, 127
2, 369824, Note_off_c, 0, 60, 64
2, 369943, Control_c, 0, 64, 0
2, 369952, Note_on_c, 0, 44, 54
2, 369959, Note_on_c, 0, 66, 48
2, 369959, Note_on_c, 0, 60, 42
2, 369962, Note_on_c, 0, 68, 48
2, 369974, Note_off_c, 0, 51, 64
2, 369996, Note_off_c, 0, 66, 64
2, 369999, Control_c, 0, 64, 127
2, 370008, Note_off_c, 0, 60, 64
2, 370014, Note_off_c, 0, 68, 64
2, 370100, Control_c, 0, 64, 0
2, 370122, Note_on_c, 0, 61, 26
2, 370126, Note_on_c, 0, 53, 58
2, 370130, Note_on_c, 0, 68, 28
2, 370134, Note_on_c, 0, 65, 26
2, 370142, Note_off_c, 0, 44, 64
2, 370174, Note_off_c, 0, 65, 64
2, 370176, Note_off_c, 0, 61, 64
2, 370179, Control_c, 0, 64, 127
2, 370182, Note_off_c, 0, 68, 64
2, 370197, Note_on_c, 0, 51, 59
2, 370214, Note_off_c, 0, 53, 64
2, 370270, Control_c, 0, 64, 0
2, 370286, Note_on_c, 0, 61, 42
2, 370292, Note_on_c, 0, 49, 58
2, 370292, Note_on_c, 0, 68, 36
2, 370303, Note_on_c, 0, 65, 35
2, 370309, Note_off_c, 0, 51, 64
2, 370336, Control_c, 0, 64, 127
2, 370341, Note_off_c, 0, 61, 64
2, 370343, Note_off_c, 0, 65, 64
2, 370350, Note_off_c, 0, 68, 64
2, 370400, Control_c, 0, 64, 0
2, 370443, Control_c, 0, 64, 127
2, 370450, Note_on_c, 0, 61, 49
2, 370456, Note_on_c, 0, 68, 41
2, 370456, Note_on_c, 0, 65, 26
2, 370495, Note_off_c, 0, 61, 64
2, 370496, Note_off_c, 0, 68, 64
2, 370513, Note_off_c, 0, 65, 64
2, 370546, Control_c, 0, 64, 0
2, 370618, Note_off_c, 0, 49, 64
2, 370619, Note_on_c, 0, 61, 28
2, 370619, Control_c, 0, 64, 0
2, 370625, Note_on_c, 0, 41, 52
2, 370631, Note_on_c, 0, 68, 26
2, 370631, Note_on_c, 0, 65, 26
2, 370656, Control_c, 0, 64, 127
2, 370670, Note_off_c, 0, 65, 64
2, 370679, Note_off_c, 0, 68, 64
2, 370679, Note_off_c, 0, 61, 64
2, 370687, Note_on_c, 0, 39, 55
2, 370711, Note_off_c, 0, 41, 64
2, 370777, Note_on_c, 0, 37, 61
2, 370780, Note_on_c, 0, 68, 40
2, 370784, Note_on_c, 0, 61, 40
2, 370789, Note_on_c, 0, 65, 39
2, 370791, Control_c, 0, 64, 0
2, 370800, Note_off_c, 0, 39, 64
2, 370824, Note_off_c, 0, 65, 64
2, 370829, Note_off_c, 0, 61, 64
2, 370836, Note_off_c, 0, 68, 64
2, 370842, Control_c, 0, 64, 127
2, 370964, Note_on_c, 0, 65, 36
2, 370964, Note_on_c, 0, 61, 28
2, 370967, Note_on_c, 0, 68, 26
2, 371015, Note_off_c, 0, 65, 64
2, 371018, Note_off_c, 0, 61, 64
2, 371021, Note_off_c, 0, 68, 64
2, 371124, Note_on_c, 0, 56, 57
2, 371133, Control_c, 0, 64, 0
2, 371136, Note_on_c, 0, 64, 49
2, 371140, Note_on_c, 0, 68, 53
2, 371172, Control_c, 0, 64, 127
2, 371197, Note_off_c, 0, 68, 64
2, 371197, Note_off_c, 0, 56, 64
2, 371207, Note_off_c, 0, 64, 64
2, 371301, Note_on_c, 0, 56, 26
2, 371307, Note_on_c, 0, 64, 35
2, 371311, Note_on_c, 0, 68, 20
2, 371346, Note_off_c, 0, 64, 64
2, 371350, Note_off_c, 0, 56, 64
2, 371357, Note_off_c, 0, 68, 64
2, 371464, Note_on_c, 0, 56, 39
2, 371468, Note_on_c, 0, 64, 36
2, 371477, Note_on_c, 0, 68, 20
2, 371525, Note_off_c, 0, 56, 64
2, 371539, Note_off_c, 0, 68, 64
2, 371540, Note_off_c, 0, 64, 64
2, 371648, Note_on_c, 0, 56, 49
2, 371652, Note_on_c, 0, 36, 66
2, 371652, Note_on_c, 0, 68, 48
2, 371654, Note_on_c, 0, 64, 62
2, 371699, Note_off_c, 0, 37, 64
2, 371704, Note_off_c, 0, 64, 64
2, 371719, Note_off_c, 0, 56, 64
2, 371728, Note_off_c, 0, 68, 64
2, 371798, Control_c, 0, 64, 0
2, 371817, Note_on_c, 0, 56, 45
2, 371820, Note_on_c, 0, 68, 36
2, 371824, Note_on_c, 0, 64, 36
2, 371866, Control_c, 0, 64, 127
2, 371877, Note_off_c, 0, 56, 64
2, 371896, Note_off_c, 0, 64, 64
2, 371920, Note_off_c, 0, 68, 64
2, 371990, Note_on_c, 0, 56, 32
2, 371991, Note_on_c, 0, 64, 36
2, 371992, Note_on_c, 0, 68, 26
2, 372044, Note_off_c, 0, 68, 64
2, 372052, Note_off_c, 0, 56, 64
2, 372065, Note_off_c, 0, 64, 64
2, 372156, Note_on_c, 0, 48, 66
2, 372160, Note_on_c, 0, 55, 31
2, 372164, Note_on_c, 0, 67, 29
2, 372168, Note_on_c, 0, 64, 20
2, 372231, Note_off_c, 0, 55, 64
2, 372233, Note_off_c, 0, 64, 64
2, 372240, Note_off_c, 0, 67, 64
2, 372344, Note_on_c, 0, 64, 36
2, 372348, Note_on_c, 0, 55, 31
2, 372349, Note_on_c, 0, 67, 29
2, 372416, Note_off_c, 0, 64, 64
2, 372419, Note_off_c, 0, 55, 64
2, 372425, Note_off_c, 0, 67, 64
2, 372536, Note_on_c, 0, 67, 29
2, 372540, Note_on_c, 0, 64, 36
2, 372544, Note_on_c, 0, 55, 35
2, 372611, Note_off_c, 0, 36, 64
2, 372612, Note_off_c, 0, 64, 64
2, 372612, Note_off_c, 0, 67, 64
2, 372620, Note_off_c, 0, 55, 64
2, 372633, Note_off_c, 0, 48, 64
2, 372741, Note_on_c, 0, 41, 67
2, 372750, Note_on_c, 0, 55, 40
2, 372752, Note_on_c, 0, 60, 46
2, 372763, Note_on_c, 0, 48, 20
2, 372823, Control_c, 0, 64, 0
2, 372833, Note_on_c, 0, 40, 53
2, 372840, Control_c, 0, 64, 127
2, 372845, Note_off_c, 0, 41, 64
2, 372924, Control_c, 0, 64, 0
2, 372947, Note_on_c, 0, 36, 46
2, 372963, Note_off_c, 0, 40, 64
2, 373091, Control_c, 0, 64, 127
2, 373167, Note_off_c, 0, 60, 64
2, 373167, Note_off_c, 0, 55, 64
2, 373209, Note_off_c, 0, 48, 64
2, 373391, Note_on_c, 0, 65, 52
2, 373395, Note_on_c, 0, 41, 57
2, 373395, Note_on_c, 0, 56, 57
2, 373409, Note_off_c, 0, 36, 64
2, 373446, Control_c, 0, 64, 0
2, 373477, Control_c, 0, 64, 127
2, 373598, Note_on_c, 0, 49, 53
2, 373607, Control_c, 0, 64, 0
2, 373620, Control_c, 0, 64, 127
2, 373628, Note_off_c, 0, 56, 64
2, 373760, Note_off_c, 0, 65, 64
2, 373769, Note_off_c, 0, 49, 64
2, 373787, Note_on_c, 0, 47, 54
2, 373817, Note_off_c, 0, 41, 64
2, 373970, Note_on_c, 0, 55, 41
2, 373977, Note_on_c, 0, 60, 37
2, 373982, Note_on_c, 0, 48, 37
2, 373985, Note_off_c, 0, 47, 64
2, 374074, Note_on_c, 0, 40, 52
2, 374137, Control_c, 0, 64, 0
2, 374164, Note_on_c, 0, 36, 52
2, 374178, Note_off_c, 0, 40, 64
2, 374293, Control_c, 0, 64, 127
2, 374368, Note_off_c, 0, 55, 64
2, 374389, Note_off_c, 0, 60, 64
2, 374416, Note_off_c, 0, 48, 64
2, 374541, Note_off_c, 0, 36, 64
2, 374563, Note_on_c, 0, 56, 46
2, 374566, Note_on_c, 0, 41, 65
2, 374568, Note_on_c, 0, 65, 24
2, 374607, Control_c, 0, 64, 0
2, 374743, Note_on_c, 0, 49, 54
2, 374767, Control_c, 0, 64, 127
2, 374894, Note_off_c, 0, 56, 64
2, 374899, Note_off_c, 0, 65, 64
2, 374904, Note_off_c, 0, 49, 64
2, 374943, Note_on_c, 0, 47, 36
2, 375093, Note_off_c, 0, 47, 64
2, 375123, Note_on_c, 0, 55, 29
2, 375129, Note_on_c, 0, 60, 29
2, 375134, Note_on_c, 0, 48, 20
2, 375209, Note_off_c, 0, 41, 64
2, 375215, Note_on_c, 0, 40, 52
2, 375303, Note_on_c, 0, 36, 53
2, 375313, Control_c, 0, 64, 0
2, 375322, Note_off_c, 0, 40, 64
2, 375615, Control_c, 0, 64, 127
2, 375678, Note_on_c, 0, 41, 63
2, 375700, Note_off_c, 0, 36, 64
2, 375742, Note_off_c, 0, 41, 64
2, 375856, Note_on_c, 0, 41, 36
2, 375872, Control_c, 0, 64, 0
2, 375941, Note_on_c, 0, 40, 53
2, 375957, Note_off_c, 0, 41, 64
2, 376042, Note_on_c, 0, 36, 37
2, 376049, Control_c, 0, 64, 127
2, 376076, Note_off_c, 0, 40, 64
2, 376150, Note_off_c, 0, 36, 64
2, 376215, Note_off_c, 0, 55, 64
2, 376215, Note_off_c, 0, 48, 64
2, 376234, Note_off_c, 0, 60, 64
2, 376244, Note_on_c, 0, 41, 61
2, 376248, Note_on_c, 0, 48, 26
2, 376248, Note_on_c, 0, 60, 26
2, 376259, Control_c, 0, 64, 0
2, 376260, Note_on_c, 0, 55, 27
2, 376295, Control_c, 0, 64, 127
2, 376348, Note_on_c, 0, 40, 37
2, 376363, Note_off_c, 0, 41, 64
2, 376431, Note_on_c, 0, 36, 37
2, 376445, Control_c, 0, 64, 0
2, 376472, Note_off_c, 0, 40, 64
2, 376478, Control_c, 0, 64, 127
2, 376508, Note_off_c, 0, 36, 64
2, 376537, Control_c, 0, 64, 0
2, 376635, Note_on_c, 0, 36, 40
2, 376842, Note_off_c, 0, 36, 64
2, 376847, Note_on_c, 0, 41, 50
2, 376859, Control_c, 0, 64, 0
2, 376871, Control_c, 0, 64, 127
2, 376876, Note_off_c, 0, 55, 64
2, 376886, Note_off_c, 0, 60, 64
2, 376889, Note_off_c, 0, 41, 64
2, 376955, Note_on_c, 0, 40, 31
2, 376997, Note_off_c, 0, 40, 64
2, 377038, Control_c, 0, 64, 0
2, 377060, Note_on_c, 0, 41, 40
2, 377065, Control_c, 0, 64, 127
2, 377102, Note_off_c, 0, 41, 64
2, 377178, Note_on_c, 0, 40, 31
2, 377220, Note_off_c, 0, 40, 64
2, 377261, Note_on_c, 0, 36, 29
2, 377289, Note_off_c, 0, 48, 64
2, 377303, Note_off_c, 0, 36, 64
2, 377388, Note_on_c, 0, 36, 40
2, 377430, Note_off_c, 0, 36, 64
2, 377584, Note_on_c, 0, 41, 39
2, 377595, Note_on_c, 0, 65, 42
2, 377614, Control_c, 0, 64, 0
2, 377639, Note_off_c, 0, 41, 64
2, 377660, Control_c, 0, 64, 127
2, 377748, Note_on_c, 0, 67, 49
2, 377780, Note_on_c, 0, 41, 37
2, 377785, Note_off_c, 0, 65, 64
2, 377810, Note_on_c, 0, 68, 48
2, 377810, Note_on_c, 0, 56, 52
2, 377810, Note_on_c, 0, 48, 29
2, 377826, Control_c, 0, 64, 0
2, 377844, Note_off_c, 0, 67, 64
2, 377849, Control_c, 0, 64, 127
2, 377862, Note_off_c, 0, 56, 64
2, 377863, Note_off_c, 0, 41, 64
2, 377870, Note_off_c, 0, 48, 64
2, 377884, Note_on_c, 0, 70, 39
2, 377917, Note_off_c, 0, 68, 64
2, 377940, Note_on_c, 0, 72, 53
2, 377960, Note_on_c, 0, 41, 45
2, 377961, Note_on_c, 0, 56, 53
2, 377962, Note_off_c, 0, 70, 64
2, 377972, Note_on_c, 0, 48, 39
2, 377973, Control_c, 0, 64, 0
2, 377996, Control_c, 0, 64, 127
2, 378012, Note_on_c, 0, 68, 62
2, 378038, Note_off_c, 0, 72, 64
2, 378040, Note_off_c, 0, 48, 64
2, 378063, Note_off_c, 0, 56, 64
2, 378068, Note_off_c, 0, 41, 64
2, 378098, Note_on_c, 0, 67, 63
2, 378108, Note_off_c, 0, 68, 64
2, 378132, Note_on_c, 0, 68, 59
2, 378148, Note_off_c, 0, 67, 64
2, 378172, Note_on_c, 0, 67, 58
2, 378187, Note_off_c, 0, 68, 64
2, 378215, Note_on_c, 0, 41, 42
2, 378236, Note_on_c, 0, 48, 48
2, 378253, Note_on_c, 0, 65, 58
2, 378253, Note_on_c, 0, 56, 65
2, 378259, Control_c, 0, 64, 0
2, 378270, Note_off_c, 0, 67, 64
2, 378285, Note_off_c, 0, 41, 64
2, 378285, Control_c, 0, 64, 127
2, 378294, Note_off_c, 0, 48, 64
2, 378311, Note_off_c, 0, 56, 64
2, 378382, Note_on_c, 0, 41, 50
2, 378403, Note_on_c, 0, 48, 41
2, 378413, Note_on_c, 0, 77, 61
2, 378413, Note_on_c, 0, 56, 66
2, 378422, Control_c, 0, 64, 0
2, 378444, Note_off_c, 0, 41, 64
2, 378445, Note_off_c, 0, 48, 64
2, 378451, Control_c, 0, 64, 127
2, 378467, Note_off_c, 0, 56, 64
2, 378472, Note_off_c, 0, 65, 64
2, 378569, Note_on_c, 0, 70, 58
2, 378583, Control_c, 0, 64, 0
2, 378584, Note_off_c, 0, 77, 64
2, 378605, Control_c, 0, 64, 127
2, 378684, Note_on_c, 0, 72, 58
2, 378688, Note_on_c, 0, 46, 54
2, 378700, Note_off_c, 0, 70, 64
2, 378716, Note_on_c, 0, 53, 42
2, 378721, Note_on_c, 0, 61, 65
2, 378726, Note_on_c, 0, 73, 70
2, 378732, Control_c, 0, 64, 0
2, 378756, Note_off_c, 0, 46, 64
2, 378758, Note_off_c, 0, 72, 64
2, 378762, Note_off_c, 0, 53, 64
2, 378770, Note_off_c, 0, 61, 64
2, 378770, Control_c, 0, 64, 127
2, 378815, Note_on_c, 0, 75, 55
2, 378836, Note_off_c, 0, 73, 64
2, 378883, Note_on_c, 0, 77, 63
2, 378885, Note_on_c, 0, 46, 57
2, 378889, Note_on_c, 0, 61, 57
2, 378892, Note_on_c, 0, 53, 54
2, 378893, Control_c, 0, 64, 0
2, 378894, Note_off_c, 0, 75, 64
2, 378912, Control_c, 0, 64, 127
2, 378927, Note_off_c, 0, 53, 64
2, 378929, Note_off_c, 0, 61, 64
2, 378959, Note_on_c, 0, 73, 74
2, 378963, Note_off_c, 0, 46, 64
2, 378972, Note_off_c, 0, 77, 64
2, 378995, Note_off_c, 0, 73, 64
2, 379035, Note_on_c, 0, 73, 78
2, 379047, Control_c, 0, 64, 0
2, 379062, Control_c, 0, 64, 127
2, 379070, Note_on_c, 0, 75, 74
2, 379078, Note_off_c, 0, 73, 64
2, 379104, Note_on_c, 0, 73, 62
2, 379124, Note_off_c, 0, 75, 64
2, 379168, Note_on_c, 0, 41, 48
2, 379185, Note_on_c, 0, 48, 53
2, 379185, Note_on_c, 0, 72, 61
2, 379185, Control_c, 0, 64, 0
2, 379194, Note_on_c, 0, 56, 66
2, 379202, Note_off_c, 0, 73, 64
2, 379215, Note_off_c, 0, 41, 64
2, 379215, Note_off_c, 0, 48, 64
2, 379217, Control_c, 0, 64, 127
2, 379228, Note_off_c, 0, 56, 64
2, 379344, Note_on_c, 0, 41, 63
2, 379346, Note_on_c, 0, 68, 62
2, 379352, Note_on_c, 0, 48, 59
2, 379358, Note_on_c, 0, 56, 71
2, 379361, Control_c, 0, 64, 0
2, 379367, Note_off_c, 0, 72, 64
2, 379382, Control_c, 0, 64, 127
2, 379411, Note_off_c, 0, 48, 64
2, 379420, Note_off_c, 0, 41, 64
2, 379488, Note_off_c, 0, 56, 64
2, 379495, Note_off_c, 0, 68, 64
2, 379502, Note_on_c, 0, 65, 67
2, 379508, Control_c, 0, 64, 0
2, 379542, Control_c, 0, 64, 127
2, 379617, Note_on_c, 0, 67, 61
2, 379633, Note_off_c, 0, 65, 64
2, 379644, Note_on_c, 0, 41, 45
2, 379649, Note_on_c, 0, 68, 67
2, 379655, Note_on_c, 0, 48, 61
2, 379655, Control_c, 0, 64, 0
2, 379662, Note_on_c, 0, 56, 70
2, 379682, Control_c, 0, 64, 127
2, 379692, Note_off_c, 0, 41, 64
2, 379693, Note_off_c, 0, 48, 64
2, 379693, Note_off_c, 0, 67, 64
2, 379698, Note_off_c, 0, 56, 64
2, 379729, Note_on_c, 0, 70, 66
2, 379753, Note_off_c, 0, 68, 64
2, 379806, Note_on_c, 0, 48, 62
2, 379806, Control_c, 0, 64, 0
2, 379813, Note_on_c, 0, 56, 74
2, 379814, Note_on_c, 0, 72, 68
2, 379814, Note_on_c, 0, 41, 67
2, 379836, Note_off_c, 0, 70, 64
2, 379837, Control_c, 0, 64, 127
2, 379856, Note_off_c, 0, 48, 64
2, 379873, Note_on_c, 0, 68, 75
2, 379888, Note_off_c, 0, 72, 64
2, 379944, Note_on_c, 0, 67, 74
2, 379952, Note_off_c, 0, 41, 64
2, 379955, Note_off_c, 0, 56, 64
2, 379963, Note_off_c, 0, 68, 64
2, 379963, Control_c, 0, 64, 0
2, 379978, Note_on_c, 0, 68, 71
2, 379987, Control_c, 0, 64, 127
2, 379993, Note_off_c, 0, 67, 64
2, 380015, Note_on_c, 0, 67, 63
2, 380031, Note_off_c, 0, 68, 64
2, 380094, Control_c, 0, 64, 0
2, 380105, Note_on_c, 0, 65, 57
2, 380112, Note_on_c, 0, 56, 71
2, 380115, Note_on_c, 0, 48, 63
2, 380115, Note_on_c, 0, 41, 49
2, 380127, Note_off_c, 0, 67, 64
2, 380139, Control_c, 0, 64, 127
2, 380156, Note_off_c, 0, 41, 64
2, 380156, Note_off_c, 0, 48, 64
2, 380163, Note_off_c, 0, 56, 64
2, 380261, Note_on_c, 0, 56, 66
2, 380262, Note_on_c, 0, 72, 74
2, 380267, Note_on_c, 0, 41, 66
2, 380271, Note_on_c, 0, 48, 54
2, 380279, Note_off_c, 0, 65, 64
2, 380303, Note_off_c, 0, 48, 64
2, 380307, Note_off_c, 0, 72, 64
2, 380311, Note_off_c, 0, 41, 64
2, 380311, Note_off_c, 0, 56, 64
2, 380382, Note_on_c, 0, 72, 68
2, 380418, Control_c, 0, 64, 0
2, 380425, Note_on_c, 0, 60, 78
2, 380431, Note_off_c, 0, 72, 64
2, 380465, Control_c, 0, 64, 127
2, 380525, Note_on_c, 0, 62, 62
2, 380552, Note_off_c, 0, 60, 64
2, 380565, Control_c, 0, 64, 0
2, 380569, Note_on_c, 0, 51, 52
2, 380578, Note_on_c, 0, 55, 59
2, 380579, Note_on_c, 0, 43, 58
2, 380588, Note_on_c, 0, 63, 65
2, 380616, Control_c, 0, 64, 127
2, 380627, Note_off_c, 0, 51, 64
2, 380628, Note_off_c, 0, 62, 64
2, 380629, Note_off_c, 0, 43, 64
2, 380629, Note_off_c, 0, 55, 64
2, 380665, Note_on_c, 0, 65, 66
2, 380676, Note_off_c, 0, 63, 64
2, 380742, Control_c, 0, 64, 0
2, 380748, Note_on_c, 0, 50, 63
2, 380749, Note_on_c, 0, 43, 59
2, 380752, Note_on_c, 0, 67, 74
2, 380756, Note_on_c, 0, 55, 53
2, 380779, Note_off_c, 0, 65, 64
2, 380786, Control_c, 0, 64, 127
2, 380796, Note_off_c, 0, 43, 64
2, 380796, Note_off_c, 0, 50, 64
2, 380819, Note_on_c, 0, 59, 68
2, 380830, Note_off_c, 0, 55, 64
2, 380843, Note_off_c, 0, 67, 64
2, 380915, Note_on_c, 0, 60, 74
2, 380935, Note_off_c, 0, 59, 64
2, 381037, Note_on_c, 0, 48, 57
2, 381063, Note_on_c, 0, 55, 66
2, 381074, Control_c, 0, 64, 0
2, 381077, Note_on_c, 0, 64, 52
2, 381135, Note_off_c, 0, 60, 64
2, 381142, Note_off_c, 0, 48, 64
2, 381142, Control_c, 0, 64, 127
2, 381153, Note_off_c, 0, 55, 64
2, 381158, Note_off_c, 0, 64, 64
2, 381190, Note_on_c, 0, 60, 62
2, 381249, Note_off_c, 0, 60, 64
2, 381262, Note_on_c, 0, 61, 68
2, 381270, Note_on_c, 0, 48, 37
2, 381272, Note_on_c, 0, 58, 58
2, 381279, Note_on_c, 0, 64, 54
2, 381289, Note_on_c, 0, 63, 76
2, 381293, Control_c, 0, 64, 0
2, 381298, Note_off_c, 0, 61, 64
2, 381325, Note_on_c, 0, 61, 70
2, 381339, Note_off_c, 0, 63, 64
2, 381339, Note_off_c, 0, 64, 64
2, 381342, Control_c, 0, 64, 127
2, 381374, Note_off_c, 0, 58, 64
2, 381400, Note_off_c, 0, 48, 64
2, 381422, Note_off_c, 0, 61, 64
2, 381434, Note_on_c, 0, 60, 65
2, 381514, Note_off_c, 0, 60, 64
2, 381522, Note_on_c, 0, 65, 41
2, 381648, Note_on_c, 0, 67, 46
2, 381660, Note_off_c, 0, 65, 64
2, 381663, Note_on_c, 0, 41, 41
2, 381681, Note_on_c, 0, 48, 40
2, 381686, Note_on_c, 0, 68, 49
2, 381686, Note_on_c, 0, 56, 45
2, 381688, Control_c, 0, 64, 0
2, 381717, Note_off_c, 0, 67, 64
2, 381727, Note_off_c, 0, 41, 64
2, 381732, Note_off_c, 0, 56, 64
2, 381734, Control_c, 0, 64, 127
2, 381743, Note_off_c, 0, 48, 64
2, 381765, Note_on_c, 0, 70, 45
2, 381800, Note_off_c, 0, 68, 64
2, 381838, Note_on_c, 0, 41, 39
2, 381839, Control_c, 0, 64, 0
2, 381850, Note_on_c, 0, 72, 48
2, 381855, Note_on_c, 0, 56, 45
2, 381855, Note_on_c, 0, 48, 39
2, 381877, Note_off_c, 0, 70, 64
2, 381882, Control_c, 0, 64, 127
2, 381918, Note_off_c, 0, 48, 64
2, 381923, Note_on_c, 0, 68, 55
2, 381937, Note_off_c, 0, 72, 64
2, 381962, Note_off_c, 0, 56, 64
2, 381966, Note_off_c, 0, 41, 64
2, 381993, Control_c, 0, 64, 0
2, 381999, Note_on_c, 0, 67, 46
2, 382003, Note_off_c, 0, 68, 64
2, 382021, Note_on_c, 0, 68, 52
2, 382031, Control_c, 0, 64, 127
2, 382045, Note_off_c, 0, 67, 64
2, 382058, Note_on_c, 0, 67, 41
2, 382075, Note_off_c, 0, 68, 64
2, 382142, Note_on_c, 0, 65, 35
2, 382150, Note_on_c, 0, 56, 45
2, 382153, Note_on_c, 0, 41, 39
2, 382154, Note_off_c, 0, 67, 64
2, 382159, Note_on_c, 0, 48, 41
2, 382169, Control_c, 0, 64, 0
2, 382192, Control_c, 0, 64, 127
2, 382196, Note_off_c, 0, 48, 64
2, 382196, Note_off_c, 0, 41, 64
2, 382204, Note_off_c, 0, 56, 64
2, 382300, Note_on_c, 0, 41, 40
2, 382308, Note_on_c, 0, 77, 49
2, 382308, Note_on_c, 0, 56, 41
2, 382314, Note_on_c, 0, 48, 41
2, 382329, Control_c, 0, 64, 0
2, 382346, Note_off_c, 0, 65, 64
2, 382351, Note_off_c, 0, 77, 64
2, 382353, Note_off_c, 0, 48, 64
2, 382353, Control_c, 0, 64, 127
2, 382363, Note_off_c, 0, 41, 64
2, 382404, Note_off_c, 0, 56, 64
2, 382428, Note_on_c, 0, 77, 45
2, 382456, Note_on_c, 0, 70, 48
2, 382467, Control_c, 0, 64, 0
2, 382489, Note_off_c, 0, 77, 64
2, 382503, Control_c, 0, 64, 127
2, 382568, Note_on_c, 0, 72, 45
2, 382594, Note_off_c, 0, 70, 64
2, 382602, Note_on_c, 0, 46, 28
2, 382611, Control_c, 0, 64, 0
2, 382618, Note_on_c, 0, 73, 42
2, 382618, Note_on_c, 0, 61, 41
2, 382618, Note_on_c, 0, 53, 36
2, 382643, Note_off_c, 0, 72, 64
2, 382655, Control_c, 0, 64, 127
2, 382658, Note_off_c, 0, 46, 64
2, 382665, Note_off_c, 0, 53, 64
2, 382665, Note_off_c, 0, 61, 64
2, 382699, Note_on_c, 0, 75, 44
2, 382726, Note_off_c, 0, 73, 64
2, 382764, Note_on_c, 0, 77, 46
2, 382764, Control_c, 0, 64, 0
2, 382778, Note_on_c, 0, 61, 41
2, 382780, Note_on_c, 0, 46, 41
2, 382784, Note_off_c, 0, 75, 64
2, 382791, Note_on_c, 0, 53, 32
2, 382800, Control_c, 0, 64, 127
2, 382821, Note_off_c, 0, 61, 64
2, 382823, Note_off_c, 0, 53, 64
2, 382850, Note_on_c, 0, 73, 55
2, 382855, Note_off_c, 0, 46, 64
2, 382863, Note_off_c, 0, 77, 64
2, 382882, Note_off_c, 0, 73, 64
2, 382915, Control_c, 0, 64, 0
2, 382922, Note_on_c, 0, 73, 57
2, 382952, Note_on_c, 0, 75, 53
2, 382964, Note_off_c, 0, 73, 64
2, 382965, Control_c, 0, 64, 127
2, 382988, Note_on_c, 0, 73, 48
2, 383003, Note_off_c, 0, 75, 64
2, 383070, Note_on_c, 0, 72, 45
2, 383076, Note_on_c, 0, 41, 41
2, 383079, Note_on_c, 0, 56, 41
2, 383080, Control_c, 0, 64, 0
2, 383082, Note_off_c, 0, 73, 64
2, 383087, Note_on_c, 0, 48, 41
2, 383115, Note_off_c, 0, 41, 64
2, 383116, Control_c, 0, 64, 127
2, 383117, Note_off_c, 0, 56, 64
2, 383125, Note_off_c, 0, 48, 64
2, 383230, Note_off_c, 0, 72, 64
2, 383244, Control_c, 0, 64, 0
2, 383249, Note_on_c, 0, 68, 62
2, 383256, Note_on_c, 0, 41, 36
2, 383262, Note_on_c, 0, 56, 50
2, 383268, Note_on_c, 0, 48, 32
2, 383306, Control_c, 0, 64, 127
2, 383406, Note_off_c, 0, 48, 64
2, 383412, Note_on_c, 0, 65, 48
2, 383413, Control_c, 0, 64, 0
2, 383429, Note_off_c, 0, 41, 64
2, 383434, Note_off_c, 0, 56, 64
2, 383437, Note_off_c, 0, 68, 64
2, 383439, Control_c, 0, 64, 127
2, 383527, Note_on_c, 0, 67, 42
2, 383541, Note_off_c, 0, 65, 64
2, 383548, Note_on_c, 0, 41, 41
2, 383566, Note_on_c, 0, 68, 49
2, 383572, Note_on_c, 0, 48, 28
2, 383577, Note_on_c, 0, 56, 50
2, 383577, Control_c, 0, 64, 0
2, 383601, Control_c, 0, 64, 127
2, 383610, Note_off_c, 0, 67, 64
2, 383614, Note_off_c, 0, 56, 64
2, 383615, Note_off_c, 0, 41, 64
2, 383618, Note_off_c, 0, 48, 64
2, 383652, Note_on_c, 0, 70, 41
2, 383694, Note_off_c, 0, 68, 64
2, 383714, Control_c, 0, 64, 0
2, 383727, Note_on_c, 0, 41, 41
2, 383736, Note_on_c, 0, 72, 48
2, 383736, Note_on_c, 0, 56, 49
2, 383736, Note_on_c, 0, 48, 41
2, 383747, Note_on_c, 0, 65, 20
2, 383760, Control_c, 0, 64, 127
2, 383767, Note_off_c, 0, 70, 64
2, 383815, Note_on_c, 0, 68, 54
2, 383819, Note_off_c, 0, 72, 64
2, 383841, Note_off_c, 0, 65, 64
2, 383851, Note_off_c, 0, 48, 64
2, 383864, Note_off_c, 0, 56, 64
2, 383865, Note_off_c, 0, 68, 64
2, 383867, Note_off_c, 0, 41, 64
2, 383880, Note_on_c, 0, 67, 49
2, 383886, Control_c, 0, 64, 0
2, 383902, Note_on_c, 0, 68, 49
2, 383913, Control_c, 0, 64, 127
2, 383920, Note_off_c, 0, 67, 64
2, 383941, Note_on_c, 0, 67, 48
2, 383957, Note_off_c, 0, 68, 64
2, 384041, Note_on_c, 0, 65, 42
2, 384046, Note_on_c, 0, 41, 37
2, 384048, Note_on_c, 0, 56, 40
2, 384049, Control_c, 0, 64, 0
2, 384056, Note_on_c, 0, 48, 39
2, 384060, Note_off_c, 0, 67, 64
2, 384068, Control_c, 0, 64, 127
2, 384083, Note_off_c, 0, 41, 64
2, 384085, Note_off_c, 0, 48, 64
2, 384086, Note_off_c, 0, 56, 64
2, 384196, Control_c, 0, 64, 0
2, 384199, Note_on_c, 0, 72, 49
2, 384206, Note_on_c, 0, 56, 52
2, 384209, Note_on_c, 0, 41, 45
2, 384214, Note_on_c, 0, 48, 44
2, 384219, Note_off_c, 0, 65, 64
2, 384238, Control_c, 0, 64, 127
2, 384269, Note_off_c, 0, 72, 64
2, 384319, Note_off_c, 0, 48, 64
2, 384341, Note_off_c, 0, 41, 64
2, 384356, Control_c, 0, 64, 0
2, 384360, Note_on_c, 0, 60, 41
2, 384381, Note_off_c, 0, 56, 64
2, 384394, Control_c, 0, 64, 127
2, 384473, Note_on_c, 0, 64, 42
2, 384493, Note_off_c, 0, 60, 64
2, 384509, Note_on_c, 0, 41, 36
2, 384510, Note_on_c, 0, 67, 37
2, 384510, Control_c, 0, 64, 0
2, 384519, Note_on_c, 0, 55, 27
2, 384519, Note_on_c, 0, 48, 36
2, 384539, Control_c, 0, 64, 127
2, 384548, Note_off_c, 0, 64, 64
2, 384554, Note_off_c, 0, 55, 64
2, 384554, Note_off_c, 0, 41, 64
2, 384560, Note_off_c, 0, 48, 64
2, 384610, Note_on_c, 0, 70, 41
2, 384627, Note_off_c, 0, 67, 64
2, 384660, Control_c, 0, 64, 0
2, 384668, Note_on_c, 0, 48, 39
2, 384669, Note_on_c, 0, 55, 48
2, 384673, Note_on_c, 0, 41, 41
2, 384676, Note_on_c, 0, 73, 48
2, 384684, Note_off_c, 0, 70, 64
2, 384692, Control_c, 0, 64, 127
2, 384728, Note_off_c, 0, 41, 64
2, 384751, Note_off_c, 0, 48, 64
2, 384780, Note_off_c, 0, 55, 64
2, 384787, Note_on_c, 0, 72, 44
2, 384796, Note_off_c, 0, 73, 64
2, 384823, Note_on_c, 0, 68, 57
2, 384833, Control_c, 0, 64, 0
2, 384840, Note_off_c, 0, 72, 64
2, 384859, Control_c, 0, 64, 127
2, 384869, Note_on_c, 0, 70, 54
2, 384875, Note_off_c, 0, 68, 64
2, 384902, Note_on_c, 0, 68, 49
2, 384924, Note_off_c, 0, 70, 64
2, 384960, Note_on_c, 0, 65, 49
2, 384968, Note_on_c, 0, 56, 45
2, 384970, Note_on_c, 0, 48, 41
2, 384970, Note_on_c, 0, 41, 36
2, 384980, Control_c, 0, 64, 0
2, 384983, Note_off_c, 0, 68, 64
2, 385006, Control_c, 0, 64, 127
2, 385010, Note_off_c, 0, 56, 64
2, 385011, Note_off_c, 0, 48, 64
2, 385017, Note_off_c, 0, 41, 64
2, 385122, Note_on_c, 0, 77, 55
2, 385131, Note_on_c, 0, 56, 45
2, 385131, Note_on_c, 0, 41, 39
2, 385140, Note_on_c, 0, 48, 41
2, 385150, Note_off_c, 0, 65, 64
2, 385157, Note_off_c, 0, 77, 64
2, 385212, Note_off_c, 0, 48, 64
2, 385226, Note_off_c, 0, 41, 64
2, 385272, Note_off_c, 0, 56, 64
2, 385278, Note_on_c, 0, 60, 48
2, 385285, Control_c, 0, 64, 0
2, 385324, Control_c, 0, 64, 127
2, 385385, Note_on_c, 0, 64, 33
2, 385408, Note_off_c, 0, 60, 64
2, 385420, Note_on_c, 0, 67, 41
2, 385431, Note_on_c, 0, 55, 44
2, 385431, Note_on_c, 0, 41, 41
2, 385433, Note_on_c, 0, 48, 44
2, 385440, Control_c, 0, 64, 0
2, 385454, Control_c, 0, 64, 127
2, 385460, Note_off_c, 0, 64, 64
2, 385469, Note_off_c, 0, 48, 64
2, 385469, Note_off_c, 0, 55, 64
2, 385475, Note_off_c, 0, 41, 64
2, 385535, Note_on_c, 0, 70, 41
2, 385546, Note_off_c, 0, 67, 64
2, 385567, Control_c, 0, 64, 0
2, 385581, Note_on_c, 0, 73, 48
2, 385582, Note_on_c, 0, 55, 49
2, 385589, Note_on_c, 0, 48, 32
2, 385589, Note_on_c, 0, 41, 42
2, 385595, Note_off_c, 0, 70, 64
2, 385598, Control_c, 0, 64, 127
2, 385660, Note_off_c, 0, 41, 64
2, 385672, Note_on_c, 0, 72, 45
2, 385684, Note_off_c, 0, 48, 64
2, 385688, Note_off_c, 0, 73, 64
2, 385724, Control_c, 0, 64, 0
2, 385733, Note_on_c, 0, 68, 48
2, 385740, Note_off_c, 0, 55, 64
2, 385740, Control_c, 0, 64, 127
2, 385743, Note_off_c, 0, 72, 64
2, 385792, Note_on_c, 0, 70, 53
2, 385804, Note_off_c, 0, 68, 64
2, 385825, Note_on_c, 0, 68, 45
2, 385838, Note_off_c, 0, 70, 64
2, 385876, Note_on_c, 0, 65, 36
2, 385884, Note_on_c, 0, 56, 44
2, 385885, Control_c, 0, 64, 0
2, 385894, Note_off_c, 0, 68, 64
2, 385894, Note_on_c, 0, 41, 33
2, 385899, Note_on_c, 0, 48, 39
2, 385907, Control_c, 0, 64, 127
2, 385935, Note_off_c, 0, 41, 64
2, 385937, Note_off_c, 0, 48, 64
2, 385942, Note_off_c, 0, 56, 64
2, 386047, Note_on_c, 0, 80, 59
2, 386052, Note_on_c, 0, 56, 44
2, 386057, Note_on_c, 0, 41, 45
2, 386059, Note_off_c, 0, 65, 64
2, 386060, Note_on_c, 0, 48, 41
2, 386088, Note_off_c, 0, 80, 64
2, 386112, Note_off_c, 0, 56, 64
2, 386165, Note_off_c, 0, 48, 64
2, 386192, Note_off_c, 0, 41, 64
2, 386224, Control_c, 0, 64, 0
2, 386227, Note_on_c, 0, 60, 54
2, 386260, Control_c, 0, 64, 127
2, 386339, Note_on_c, 0, 64, 41
2, 386361, Note_off_c, 0, 60, 64
2, 386378, Note_on_c, 0, 55, 41
2, 386378, Note_on_c, 0, 41, 36
2, 386386, Note_on_c, 0, 48, 37
2, 386391, Note_on_c, 0, 67, 41
2, 386407, Note_off_c, 0, 64, 64
2, 386423, Note_off_c, 0, 55, 64
2, 386428, Note_off_c, 0, 48, 64
2, 386428, Note_off_c, 0, 41, 64
2, 386450, Note_on_c, 0, 70, 20
2, 386469, Note_off_c, 0, 67, 64
2, 386528, Note_on_c, 0, 55, 44
2, 386529, Note_on_c, 0, 41, 41
2, 386535, Note_on_c, 0, 48, 36
2, 386542, Note_on_c, 0, 73, 49
2, 386562, Note_off_c, 0, 70, 64
2, 386607, Note_off_c, 0, 41, 64
2, 386616, Note_off_c, 0, 55, 64
2, 386624, Note_on_c, 0, 72, 41
2, 386631, Note_off_c, 0, 48, 64
2, 386643, Note_off_c, 0, 73, 64
2, 386676, Note_on_c, 0, 68, 57
2, 386681, Control_c, 0, 64, 0
2, 386692, Note_off_c, 0, 72, 64
2, 386706, Control_c, 0, 64, 127
2, 386719, Note_on_c, 0, 70, 52
2, 386736, Note_off_c, 0, 68, 64
2, 386760, Note_on_c, 0, 68, 48
2, 386777, Note_off_c, 0, 70, 64
2, 386829, Control_c, 0, 64, 0
2, 386832, Note_on_c, 0, 48, 50
2, 386839, Note_on_c, 0, 41, 48
2, 386839, Note_on_c, 0, 56, 48
2, 386839, Note_on_c, 0, 65, 67
2, 386851, Note_off_c, 0, 68, 64
2, 386862, Control_c, 0, 64, 127
2, 387019, Note_on_c, 0, 58, 41
2, 387024, Note_on_c, 0, 77, 52
2, 387027, Note_on_c, 0, 49, 57
2, 387031, Note_off_c, 0, 41, 64
2, 387035, Note_off_c, 0, 48, 64
2, 387048, Note_off_c, 0, 65, 64
2, 387068, Note_off_c, 0, 56, 64
2, 387189, Note_off_c, 0, 58, 64
2, 387197, Note_off_c, 0, 49, 64
2, 387233, Note_on_c, 0, 56, 58
2, 387233, Note_on_c, 0, 89, 50
2, 387240, Note_on_c, 0, 41, 1
2, 387240, Note_on_c, 0, 48, 50
2, 387248, Control_c, 0, 64, 0
2, 387263, Note_off_c, 0, 77, 64
2, 387295, Control_c, 0, 64, 127
2, 387555, Note_on_c, 0, 101, 70
2, 387587, Note_off_c, 0, 89, 64
2, 387940, Note_off_c, 0, 101, 64
2, 388066, Note_off_c, 0, 56, 64
2, 388073, Note_off_c, 0, 48, 64
2, 388073, Note_off_c, 0, 41, 64
2, 388226, Control_c, 0, 64, 0
2, 389060, Note_on_c, 0, 63, 42
2, 389072, Control_c, 0, 64, 127
2, 389170, Control_c, 0, 64, 0
2, 389172, Note_off_c, 0, 63, 64
2, 389176, Note_on_c, 0, 63, 46
2, 389176, Note_on_c, 0, 60, 36
2, 389176, Note_on_c, 0, 56, 31
2, 389177, Note_on_c, 0, 68, 42
2, 389208, Control_c, 0, 64, 127
2, 389222, Note_off_c, 0, 56, 64
2, 389222, Note_off_c, 0, 60, 64
2, 389222, Note_off_c, 0, 63, 64
2, 389229, Note_off_c, 0, 68, 64
2, 389230, Note_on_c, 0, 70, 28
2, 389266, Note_on_c, 0, 68, 49
2, 389276, Note_off_c, 0, 70, 64
2, 389297, Control_c, 0, 64, 0
2, 389318, Note_on_c, 0, 64, 37
2, 389318, Note_on_c, 0, 61, 36
2, 389320, Note_on_c, 0, 56, 23
2, 389321, Note_on_c, 0, 67, 49
2, 389324, Note_off_c, 0, 68, 64
2, 389340, Control_c, 0, 64, 127
2, 389364, Note_off_c, 0, 61, 64
2, 389364, Note_off_c, 0, 64, 64
2, 389366, Note_off_c, 0, 56, 64
2, 389369, Note_on_c, 0, 68, 53
2, 389388, Note_off_c, 0, 67, 64
2, 389412, Control_c, 0, 64, 0
2, 389432, Note_on_c, 0, 56, 22
2, 389433, Note_on_c, 0, 70, 52
2, 389433, Note_on_c, 0, 61, 29
2, 389436, Note_on_c, 0, 64, 28
2, 389446, Note_off_c, 0, 68, 64
2, 389456, Control_c, 0, 64, 127
2, 389478, Note_off_c, 0, 56, 64
2, 389479, Note_off_c, 0, 61, 64
2, 389482, Note_off_c, 0, 64, 64
2, 389492, Note_on_c, 0, 72, 50
2, 389499, Note_off_c, 0, 70, 64
2, 389538, Control_c, 0, 64, 0
2, 389552, Note_on_c, 0, 58, 35
2, 389552, Note_on_c, 0, 55, 37
2, 389556, Note_on_c, 0, 64, 44
2, 389557, Note_on_c, 0, 73, 57
2, 389579, Note_off_c, 0, 72, 64
2, 389590, Control_c, 0, 64, 127
2, 389598, Note_off_c, 0, 55, 64
2, 389598, Note_off_c, 0, 58, 64
2, 389600, Note_on_c, 0, 75, 54
2, 389602, Note_off_c, 0, 64, 64
2, 389607, Note_off_c, 0, 73, 64
2, 389646, Note_on_c, 0, 73, 55
2, 389653, Note_off_c, 0, 75, 64
2, 389676, Note_on_c, 0, 63, 46
2, 389676, Note_on_c, 0, 60, 41
2, 389676, Note_on_c, 0, 56, 40
2, 389676, Control_c, 0, 64, 0
2, 389687, Note_on_c, 0, 72, 54
2, 389695, Note_off_c, 0, 73, 64
2, 389718, Control_c, 0, 64, 127
2, 389722, Note_off_c, 0, 56, 64
2, 389722, Note_off_c, 0, 60, 64
2, 389722, Note_off_c, 0, 63, 64
2, 389731, Note_on_c, 0, 73, 57
2, 389743, Note_off_c, 0, 72, 64
2, 389796, Control_c, 0, 64, 0
2, 389800, Note_on_c, 0, 55, 36
2, 389803, Note_off_c, 0, 73, 64
2, 389804, Note_on_c, 0, 75, 55
2, 389804, Note_on_c, 0, 63, 48
2, 389804, Note_on_c, 0, 58, 40
2, 389830, Control_c, 0, 64, 127
2, 389831, Control_c, 0, 64, 127
2, 389846, Note_off_c, 0, 55, 64
2, 389850, Note_off_c, 0, 58, 64
2, 389850, Note_off_c, 0, 63, 64
2, 389965, Control_c, 0, 64, 0
2, 389974, Note_on_c, 0, 65, 44
2, 389974, Note_on_c, 0, 56, 41
2, 389975, Note_off_c, 0, 75, 64
2, 389976, Note_on_c, 0, 61, 49
2, 389976, Note_on_c, 0, 53, 46
2, 389977, Note_on_c, 0, 80, 67
2, 390003, Note_off_c, 0, 65, 64
2, 390010, Note_off_c, 0, 53, 64
2, 390012, Note_off_c, 0, 61, 64
2, 390013, Note_off_c, 0, 56, 64
2, 390014, Control_c, 0, 64, 127
2, 390014, Control_c, 0, 64, 127
2, 390043, Note_off_c, 0, 80, 64
2, 390072, Note_on_c, 0, 73, 50
2, 390076, Note_off_c, 0, 73, 64
2, 390076, Note_on_c, 0, 73, 54
2, 390105, Control_c, 0, 64, 0
2, 390124, Note_on_c, 0, 72, 41
2, 390124, Note_on_c, 0, 56, 27
2, 390124, Note_on_c, 0, 51, 40
2, 390126, Note_on_c, 0, 63, 40
2, 390138, Note_off_c, 0, 73, 64
2, 390150, Control_c, 0, 64, 127
2, 390170, Note_off_c, 0, 51, 64
2, 390170, Note_off_c, 0, 56, 64
2, 390172, Note_off_c, 0, 63, 64
2, 390184, Note_on_c, 0, 75, 48
2, 390192, Note_off_c, 0, 72, 64
2, 390220, Control_c, 0, 64, 0
2, 390242, Note_on_c, 0, 68, 55
2, 390242, Note_on_c, 0, 63, 37
2, 390242, Note_on_c, 0, 60, 31
2, 390242, Note_on_c, 0, 51, 36
2, 390250, Note_off_c, 0, 75, 64
2, 390265, Control_c, 0, 64, 127
2, 390288, Note_off_c, 0, 51, 64
2, 390288, Note_off_c, 0, 60, 64
2, 390288, Note_off_c, 0, 63, 64
2, 390301, Note_on_c, 0, 69, 50
2, 390312, Note_off_c, 0, 68, 64
2, 390344, Control_c, 0, 64, 0
2, 390370, Note_on_c, 0, 70, 50
2, 390370, Note_on_c, 0, 63, 40
2, 390370, Note_on_c, 0, 61, 31
2, 390370, Note_on_c, 0, 51, 31
2, 390377, Note_off_c, 0, 69, 64
2, 390387, Control_c, 0, 64, 127
2, 390416, Note_off_c, 0, 51, 64
2, 390416, Note_off_c, 0, 61, 64
2, 390416, Note_off_c, 0, 63, 64
2, 390429, Note_on_c, 0, 73, 55
2, 390436, Note_off_c, 0, 70, 64
2, 390480, Control_c, 0, 64, 0
2, 390482, Note_on_c, 0, 51, 36
2, 390484, Note_on_c, 0, 63, 36
2, 390485, Note_on_c, 0, 65, 55
2, 390486, Note_on_c, 0, 61, 36
2, 390493, Note_off_c, 0, 73, 64
2, 390510, Control_c, 0, 64, 127
2, 390528, Note_off_c, 0, 51, 64
2, 390530, Note_off_c, 0, 63, 64
2, 390532, Note_off_c, 0, 61, 64
2, 390544, Note_on_c, 0, 67, 52
2, 390553, Note_off_c, 0, 65, 64
2, 390593, Control_c, 0, 64, 0
2, 390604, Note_on_c, 0, 56, 20
2, 390605, Note_on_c, 0, 68, 54
2, 390606, Note_on_c, 0, 63, 40
2, 390606, Note_on_c, 0, 60, 27
2, 390624, Note_off_c, 0, 67, 64
2, 390636, Control_c, 0, 64, 127
2, 390650, Note_off_c, 0, 56, 64
2, 390652, Note_off_c, 0, 60, 64
2, 390652, Note_off_c, 0, 63, 64
2, 390754, Control_c, 0, 64, 0
2, 390762, Note_on_c, 0, 63, 41
2, 390762, Note_on_c, 0, 60, 36
2, 390762, Note_on_c, 0, 56, 22
2, 390785, Control_c, 0, 64, 127
2, 390804, Note_on_c, 0, 70, 44
2, 390808, Note_off_c, 0, 56, 64
2, 390808, Note_off_c, 0, 60, 64
2, 390808, Note_off_c, 0, 63, 64
2, 390823, Note_off_c, 0, 68, 64
2, 390840, Note_on_c, 0, 68, 58
2, 390860, Note_off_c, 0, 70, 64
2, 390870, Control_c, 0, 64, 0
2, 390882, Note_on_c, 0, 64, 36
2, 390882, Note_on_c, 0, 56, 31
2, 390884, Note_on_c, 0, 67, 53
2, 390886, Note_on_c, 0, 61, 28
2, 390888, Note_off_c, 0, 68, 64
2, 390916, Control_c, 0, 64, 127
2, 390928, Note_off_c, 0, 56, 64
2, 390928, Note_off_c, 0, 64, 64
2, 390932, Note_off_c, 0, 61, 64
2, 390946, Note_on_c, 0, 68, 55
2, 390959, Note_off_c, 0, 67, 64
2, 390988, Control_c, 0, 64, 0
2, 391004, Note_on_c, 0, 61, 41
2, 391006, Note_on_c, 0, 70, 44
2, 391006, Note_on_c, 0, 64, 40
2, 391006, Note_on_c, 0, 56, 40
2, 391015, Note_off_c, 0, 68, 64
2, 391019, Control_c, 0, 64, 127
2, 391050, Note_off_c, 0, 61, 64
2, 391052, Note_off_c, 0, 56, 64
2, 391052, Note_off_c, 0, 64, 64
2, 391052, Note_on_c, 0, 72, 55
2, 391078, Note_off_c, 0, 70, 64
2, 391111, Note_on_c, 0, 73, 53
2, 391116, Note_on_c, 0, 55, 41
2, 391116, Control_c, 0, 64, 0
2, 391118, Note_on_c, 0, 64, 44
2, 391118, Note_on_c, 0, 58, 44
2, 391133, Note_off_c, 0, 72, 64
2, 391146, Control_c, 0, 64, 127
2, 391158, Note_on_c, 0, 75, 55
2, 391162, Note_off_c, 0, 55, 64
2, 391164, Note_off_c, 0, 58, 64
2, 391164, Note_off_c, 0, 64, 64
2, 391165, Note_off_c, 0, 73, 64
2, 391194, Note_on_c, 0, 73, 52
2, 391208, Note_off_c, 0, 75, 64
2, 391221, Control_c, 0, 64, 0
2, 391239, Note_on_c, 0, 72, 53
2, 391240, Note_on_c, 0, 63, 39
2, 391240, Note_on_c, 0, 60, 46
2, 391242, Note_on_c, 0, 56, 49
2, 391250, Control_c, 0, 64, 127
2, 391252, Note_off_c, 0, 73, 64
2, 391284, Note_on_c, 0, 73, 61
2, 391286, Note_off_c, 0, 60, 64
2, 391286, Note_off_c, 0, 63, 64
2, 391288, Note_off_c, 0, 56, 64
2, 391291, Note_off_c, 0, 72, 64
2, 391336, Note_on_c, 0, 74, 55
2, 391340, Note_on_c, 0, 63, 41
2, 391340, Note_on_c, 0, 58, 36
2, 391340, Note_on_c, 0, 55, 44
2, 391346, Control_c, 0, 64, 0
2, 391350, Note_off_c, 0, 73, 64
2, 391375, Control_c, 0, 64, 127
2, 391386, Note_off_c, 0, 55, 64
2, 391386, Note_off_c, 0, 58, 64
2, 391386, Note_off_c, 0, 63, 64
2, 391389, Note_on_c, 0, 75, 63
2, 391410, Note_off_c, 0, 74, 64
2, 391414, Note_off_c, 0, 75, 64
2, 391444, Control_c, 0, 64, 127
2, 391458, Note_on_c, 0, 75, 62
2, 391470, Control_c, 0, 64, 0
2, 391498, Note_on_c, 0, 53, 46
2, 391500, Note_on_c, 0, 65, 24
2, 391500, Note_on_c, 0, 61, 36
2, 391503, Note_on_c, 0, 80, 67
2, 391512, Note_off_c, 0, 75, 64
2, 391521, Control_c, 0, 64, 127
2, 391544, Note_off_c, 0, 53, 64
2, 391546, Note_off_c, 0, 61, 64
2, 391546, Note_off_c, 0, 65, 64
2, 391554, Note_off_c, 0, 80, 64
2, 391611, Note_on_c, 0, 73, 54
2, 391633, Control_c, 0, 64, 0
2, 391666, Note_on_c, 0, 51, 28
2, 391666, Note_on_c, 0, 56, 32
2, 391667, Note_on_c, 0, 63, 36
2, 391669, Note_on_c, 0, 72, 46
2, 391681, Note_off_c, 0, 73, 64
2, 391685, Control_c, 0, 64, 127
2, 391712, Note_off_c, 0, 56, 64
2, 391712, Note_off_c, 0, 51, 64
2, 391713, Note_off_c, 0, 63, 64
2, 391718, Note_on_c, 0, 75, 42
2, 391727, Note_off_c, 0, 72, 64
2, 391755, Control_c, 0, 64, 0
2, 391778, Control_c, 0, 64, 127
2, 391780, Note_on_c, 0, 68, 55
2, 391780, Note_on_c, 0, 63, 40
2, 391780, Note_on_c, 0, 60, 36
2, 391780, Note_on_c, 0, 51, 36
2, 391786, Note_off_c, 0, 75, 64
2, 391826, Note_off_c, 0, 51, 64
2, 391826, Note_off_c, 0, 60, 64
2, 391826, Note_off_c, 0, 63, 64
2, 391842, Note_on_c, 0, 69, 49
2, 391846, Note_off_c, 0, 68, 64
2, 391878, Control_c, 0, 64, 0
2, 391900, Note_on_c, 0, 63, 41
2, 391900, Note_on_c, 0, 61, 28
2, 391900, Note_on_c, 0, 51, 36
2, 391901, Note_on_c, 0, 70, 49
2, 391906, Note_off_c, 0, 69, 64
2, 391921, Control_c, 0, 64, 127
2, 391946, Note_off_c, 0, 51, 64
2, 391946, Note_off_c, 0, 61, 64
2, 391946, Note_off_c, 0, 63, 64
2, 391964, Note_on_c, 0, 73, 50
2, 391971, Note_off_c, 0, 70, 64
2, 392012, Note_on_c, 0, 63, 36
2, 392012, Note_on_c, 0, 61, 36
2, 392012, Note_on_c, 0, 51, 36
2, 392014, Note_on_c, 0, 65, 50
2, 392014, Control_c, 0, 64, 0
2, 392020, Note_off_c, 0, 73, 64
2, 392030, Control_c, 0, 64, 127
2, 392058, Note_off_c, 0, 51, 64
2, 392058, Note_off_c, 0, 61, 64
2, 392058, Note_off_c, 0, 63, 64
2, 392079, Note_on_c, 0, 67, 48
2, 392094, Note_off_c, 0, 65, 64
2, 392125, Control_c, 0, 64, 0
2, 392138, Note_on_c, 0, 68, 54
2, 392140, Note_on_c, 0, 63, 40
2, 392140, Note_on_c, 0, 60, 36
2, 392140, Note_on_c, 0, 56, 36
2, 392161, Note_off_c, 0, 67, 64
2, 392176, Control_c, 0, 64, 127
2, 392186, Note_off_c, 0, 56, 64
2, 392186, Note_off_c, 0, 60, 64
2, 392186, Note_off_c, 0, 63, 64
2, 392194, Note_off_c, 0, 68, 64
2, 392300, Note_on_c, 0, 71, 41
2, 392335, Control_c, 0, 64, 0
2, 392340, Note_on_c, 0, 48, 58
2, 392345, Note_on_c, 0, 72, 57
2, 392357, Note_off_c, 0, 71, 64
2, 392389, Control_c, 0, 64, 127
2, 392481, Note_off_c, 0, 48, 64
2, 392481, Control_c, 0, 64, 0
2, 392486, Note_on_c, 0, 55, 31
2, 392487, Note_on_c, 0, 84, 57
2, 392488, Note_on_c, 0, 64, 36
2, 392488, Note_on_c, 0, 60, 39
2, 392495, Note_off_c, 0, 72, 64
2, 392526, Control_c, 0, 64, 127
2, 392532, Note_off_c, 0, 55, 64
2, 392534, Note_off_c, 0, 60, 64
2, 392534, Note_off_c, 0, 64, 64
2, 392563, Note_off_c, 0, 84, 64
2, 392576, Note_on_c, 0, 82, 54
2, 392595, Control_c, 0, 64, 0
2, 392606, Note_on_c, 0, 65, 48
2, 392609, Note_on_c, 0, 53, 46
2, 392609, Note_on_c, 0, 80, 66
2, 392610, Note_on_c, 0, 60, 46
2, 392620, Note_off_c, 0, 82, 64
2, 392626, Control_c, 0, 64, 127
2, 392652, Note_off_c, 0, 65, 64
2, 392655, Note_off_c, 0, 53, 64
2, 392656, Note_off_c, 0, 60, 64
2, 392726, Control_c, 0, 64, 0
2, 392736, Note_on_c, 0, 59, 40
2, 392736, Note_on_c, 0, 55, 46
2, 392739, Note_on_c, 0, 65, 46
2, 392762, Control_c, 0, 64, 127
2, 392782, Note_off_c, 0, 55, 64
2, 392782, Note_off_c, 0, 59, 64
2, 392785, Note_off_c, 0, 65, 64
2, 392793, Note_on_c, 0, 79, 49
2, 392802, Note_off_c, 0, 80, 64
2, 392826, Note_on_c, 0, 82, 55
2, 392835, Note_off_c, 0, 79, 64
2, 392852, Control_c, 0, 64, 0
2, 392858, Note_on_c, 0, 80, 74
2, 392860, Note_on_c, 0, 65, 42
2, 392860, Note_on_c, 0, 59, 44
2, 392860, Note_on_c, 0, 55, 42
2, 392884, Note_off_c, 0, 82, 64
2, 392884, Control_c, 0, 64, 127
2, 392906, Note_off_c, 0, 55, 64
2, 392906, Note_off_c, 0, 59, 64
2, 392906, Note_off_c, 0, 65, 64
2, 392910, Note_on_c, 0, 79, 59
2, 392932, Note_off_c, 0, 80, 64
2, 392965, Control_c, 0, 64, 0
2, 392979, Note_on_c, 0, 74, 50
2, 392982, Note_on_c, 0, 59, 44
2, 392982, Note_on_c, 0, 55, 42
2, 392986, Note_on_c, 0, 65, 45
2, 392994, Note_off_c, 0, 79, 64
2, 393009, Control_c, 0, 64, 127
2, 393028, Note_off_c, 0, 55, 64
2, 393028, Note_off_c, 0, 59, 64
2, 393032, Note_off_c, 0, 65, 64
2, 393076, Note_off_c, 0, 74, 64
2, 393100, Control_c, 0, 64, 0
2, 393104, Note_on_c, 0, 56, 45
2, 393106, Note_on_c, 0, 72, 59
2, 393106, Note_on_c, 0, 60, 41
2, 393109, Note_on_c, 0, 63, 49
2, 393132, Control_c, 0, 64, 127
2, 393138, Note_off_c, 0, 72, 64
2, 393150, Note_off_c, 0, 56, 64
2, 393152, Note_off_c, 0, 60, 64
2, 393155, Note_off_c, 0, 63, 64
2, 393178, Note_on_c, 0, 72, 58
2, 393214, Control_c, 0, 64, 0
2, 393230, Note_on_c, 0, 84, 58
2, 393230, Note_on_c, 0, 55, 45
2, 393234, Note_on_c, 0, 64, 39
2, 393234, Note_on_c, 0, 60, 35
2, 393269, Control_c, 0, 64, 127
2, 393276, Note_off_c, 0, 55, 64
2, 393280, Note_off_c, 0, 60, 64
2, 393280, Note_off_c, 0, 64, 64
2, 393290, Note_off_c, 0, 72, 64
2, 393312, Note_off_c, 0, 84, 64
2, 393328, Note_on_c, 0, 82, 58
2, 393341, Control_c, 0, 64, 0
2, 393352, Note_on_c, 0, 80, 62
2, 393352, Note_on_c, 0, 53, 45
2, 393354, Note_on_c, 0, 65, 44
2, 393354, Note_on_c, 0, 60, 42
2, 393372, Note_off_c, 0, 82, 64
2, 393382, Control_c, 0, 64, 127
2, 393398, Note_off_c, 0, 53, 64
2, 393400, Note_off_c, 0, 60, 64
2, 393400, Note_off_c, 0, 65, 64
2, 393472, Control_c, 0, 64, 0
2, 393484, Note_on_c, 0, 65, 46
2, 393484, Note_on_c, 0, 55, 45
2, 393486, Note_on_c, 0, 59, 49
2, 393511, Control_c, 0, 64, 127
2, 393519, Note_off_c, 0, 80, 64
2, 393530, Note_off_c, 0, 55, 64
2, 393530, Note_off_c, 0, 65, 64
2, 393532, Note_off_c, 0, 59, 64
2, 393542, Note_on_c, 0, 79, 50
2, 393578, Note_on_c, 0, 82, 61
2, 393582, Note_off_c, 0, 79, 64
2, 393604, Note_on_c, 0, 80, 58
2, 393606, Note_on_c, 0, 59, 45
2, 393606, Note_on_c, 0, 55, 40
2, 393606, Control_c, 0, 64, 0
2, 393608, Note_on_c, 0, 65, 39
2, 393627, Control_c, 0, 64, 127
2, 393634, Note_off_c, 0, 82, 64
2, 393652, Note_off_c, 0, 55, 64
2, 393652, Note_off_c, 0, 59, 64
2, 393654, Note_off_c, 0, 65, 64
2, 393673, Note_off_c, 0, 80, 64
2, 393694, Note_on_c, 0, 79, 49
2, 393718, Control_c, 0, 64, 0
2, 393726, Note_on_c, 0, 55, 42
2, 393731, Note_on_c, 0, 74, 58
2, 393731, Note_on_c, 0, 65, 46
2, 393734, Note_off_c, 0, 79, 64
2, 393761, Control_c, 0, 64, 127
2, 393772, Note_off_c, 0, 55, 64
2, 393777, Note_off_c, 0, 65, 64
2, 393852, Note_off_c, 0, 74, 64
2, 393852, Note_on_c, 0, 63, 32
2, 393852, Note_on_c, 0, 56, 28
2, 393853, Note_on_c, 0, 72, 37
2, 393853, Note_on_c, 0, 60, 26
2, 393865, Control_c, 0, 64, 0
2, 393881, Control_c, 0, 64, 127
2, 393898, Note_off_c, 0, 56, 64
2, 393898, Note_off_c, 0, 63, 64
2, 393899, Note_off_c, 0, 60, 64
2, 393971, Control_c, 0, 64, 0
2, 393977, Note_on_c, 0, 73, 40
2, 393984, Note_on_c, 0, 53, 33
2, 393986, Note_on_c, 0, 61, 36
2, 393986, Note_on_c, 0, 56, 24
2, 393987, Note_off_c, 0, 72, 64
2, 394010, Control_c, 0, 64, 127
2, 394030, Note_off_c, 0, 53, 64
2, 394032, Note_off_c, 0, 56, 64
2, 394032, Note_off_c, 0, 61, 64
2, 394066, Note_off_c, 0, 73, 64
2, 394074, Note_on_c, 0, 77, 33
2, 394105, Control_c, 0, 64, 0
2, 394112, Note_on_c, 0, 72, 44
2, 394112, Note_on_c, 0, 53, 28
2, 394114, Note_on_c, 0, 62, 36
2, 394114, Note_on_c, 0, 56, 35
2, 394118, Note_off_c, 0, 77, 64
2, 394135, Control_c, 0, 64, 127
2, 394158, Note_off_c, 0, 53, 64
2, 394160, Note_off_c, 0, 56, 64
2, 394160, Note_off_c, 0, 62, 64
2, 394230, Note_on_c, 0, 55, 28
2, 394232, Note_on_c, 0, 65, 28
2, 394232, Note_on_c, 0, 62, 36
2, 394233, Note_on_c, 0, 71, 41
2, 394234, Note_on_c, 0, 62, 24
2, 394241, Control_c, 0, 64, 0
2, 394249, Note_off_c, 0, 72, 64
2, 394253, Control_c, 0, 64, 127
2, 394274, Control_c, 0, 64, 127
2, 394276, Note_off_c, 0, 55, 64
2, 394278, Note_off_c, 0, 62, 64
2, 394278, Note_off_c, 0, 65, 64
2, 394280, Note_off_c, 0, 62, 64
2, 394315, Note_off_c, 0, 71, 64
2, 394334, Note_on_c, 0, 67, 37
2, 394370, Note_on_c, 0, 65, 31
2, 394372, Note_on_c, 0, 71, 41
2, 394372, Note_on_c, 0, 62, 28
2, 394372, Note_on_c, 0, 55, 33
2, 394373, Control_c, 0, 64, 0
2, 394380, Note_off_c, 0, 67, 64
2, 394402, Control_c, 0, 64, 127
2, 394416, Note_off_c, 0, 65, 64
2, 394418, Note_off_c, 0, 55, 64
2, 394418, Note_off_c, 0, 62, 64
2, 394438, Note_on_c, 0, 74, 39
2, 394452, Note_off_c, 0, 71, 64
2, 394494, Control_c, 0, 64, 0
2, 394510, Note_on_c, 0, 63, 28
2, 394511, Note_on_c, 0, 72, 39
2, 394512, Note_on_c, 0, 60, 32
2, 394514, Note_off_c, 0, 74, 64
2, 394539, Control_c, 0, 64, 127
2, 394558, Note_off_c, 0, 60, 64
2, 394636, Note_on_c, 0, 56, 33
2, 394637, Note_on_c, 0, 60, 33
2, 394642, Control_c, 0, 64, 0
2, 394664, Control_c, 0, 64, 127
2, 394682, Note_off_c, 0, 56, 64
2, 394683, Note_off_c, 0, 60, 64
2, 394703, Note_off_c, 0, 63, 64
2, 394776, Note_on_c, 0, 61, 36
2, 394778, Note_on_c, 0, 73, 44
2, 394778, Note_on_c, 0, 56, 33
2, 394778, Note_on_c, 0, 53, 33
2, 394792, Control_c, 0, 64, 0
2, 394806, Note_off_c, 0, 72, 64
2, 394818, Control_c, 0, 64, 127
2, 394824, Note_off_c, 0, 53, 64
2, 394824, Note_off_c, 0, 56, 64
2, 394860, Note_off_c, 0, 73, 64
2, 394861, Note_on_c, 0, 77, 39
2, 394906, Control_c, 0, 64, 0
2, 394914, Note_on_c, 0, 53, 33
2, 394916, Note_on_c, 0, 72, 42
2, 394916, Note_on_c, 0, 62, 33
2, 394916, Note_on_c, 0, 56, 35
2, 394921, Note_off_c, 0, 61, 64
2, 394939, Control_c, 0, 64, 127
2, 394942, Note_off_c, 0, 77, 64
2, 394960, Note_off_c, 0, 53, 64
2, 394962, Note_off_c, 0, 56, 64
2, 395066, Note_on_c, 0, 58, 39
2, 395066, Note_on_c, 0, 55, 37
2, 395072, Control_c, 0, 64, 0
2, 395097, Control_c, 0, 64, 127
2, 395114, Note_off_c, 0, 55, 64
2, 395133, Note_off_c, 0, 58, 64
2, 395230, Note_on_c, 0, 58, 39
2, 395231, Note_on_c, 0, 63, 40
2, 395231, Note_on_c, 0, 55, 36
2, 395238, Note_off_c, 0, 62, 64
2, 395241, Control_c, 0, 64, 0
2, 395264, Control_c, 0, 64, 127
2, 395305, Note_off_c, 0, 58, 64
2, 395306, Note_off_c, 0, 55, 64
2, 395331, Note_on_c, 0, 70, 53
2, 395343, Note_off_c, 0, 72, 64
2, 395408, Note_on_c, 0, 64, 36
2, 395410, Note_on_c, 0, 61, 32
2, 395410, Note_on_c, 0, 55, 32
2, 395411, Note_on_c, 0, 72, 50
2, 395422, Note_off_c, 0, 70, 64
2, 395429, Control_c, 0, 64, 0
2, 395432, Note_off_c, 0, 63, 64
2, 395473, Control_c, 0, 64, 127
2, 395477, Note_off_c, 0, 61, 64
2, 395488, Note_off_c, 0, 55, 64
2, 395538, Note_on_c, 0, 70, 54
2, 395556, Note_off_c, 0, 72, 64
2, 395609, Control_c, 0, 64, 0
2, 395615, Note_off_c, 0, 64, 64
2, 395620, Note_on_c, 0, 60, 33
2, 395620, Note_on_c, 0, 56, 24
2, 395622, Note_on_c, 0, 68, 52
2, 395622, Note_on_c, 0, 63, 35
2, 395628, Note_off_c, 0, 70, 64
2, 395639, Control_c, 0, 64, 127
2, 395650, Note_on_c, 0, 70, 49
2, 395663, Note_off_c, 0, 68, 64
2, 395666, Note_off_c, 0, 56, 64
2, 395666, Note_off_c, 0, 60, 64
2, 395668, Note_off_c, 0, 63, 64
2, 395698, Note_on_c, 0, 68, 48
2, 395708, Note_off_c, 0, 70, 64
2, 395722, Control_c, 0, 64, 0
2, 395744, Note_on_c, 0, 61, 18
2, 395744, Note_on_c, 0, 56, 23
2, 395745, Note_on_c, 0, 67, 46
2, 395746, Note_on_c, 0, 64, 35
2, 395767, Control_c, 0, 64, 127
2, 395768, Note_off_c, 0, 68, 64
2, 395790, Note_off_c, 0, 56, 64
2, 395790, Note_off_c, 0, 61, 64
2, 395792, Note_off_c, 0, 64, 64
2, 395800, Note_on_c, 0, 68, 53
2, 395820, Note_off_c, 0, 67, 64
2, 395846, Control_c, 0, 64, 0
2, 395860, Note_on_c, 0, 64, 37
2, 395860, Note_on_c, 0, 61, 37
2, 395860, Note_on_c, 0, 56, 36
2, 395861, Note_on_c, 0, 70, 55
2, 395875, Note_off_c, 0, 68, 64
2, 395875, Control_c, 0, 64, 127
2, 395906, Note_off_c, 0, 56, 64
2, 395906, Note_off_c, 0, 61, 64
2, 395906, Note_off_c, 0, 64, 64
2, 395921, Note_on_c, 0, 72, 49
2, 395927, Note_off_c, 0, 70, 64
2, 395973, Control_c, 0, 64, 0
2, 395978, Note_on_c, 0, 55, 40
2, 395980, Note_on_c, 0, 73, 55
2, 395980, Note_on_c, 0, 64, 42
2, 395980, Note_on_c, 0, 58, 40
2, 395994, Note_off_c, 0, 72, 64
2, 396012, Control_c, 0, 64, 127
2, 396020, Note_on_c, 0, 75, 53
2, 396024, Note_off_c, 0, 55, 64
2, 396026, Note_off_c, 0, 58, 64
2, 396026, Note_off_c, 0, 64, 64
2, 396029, Note_off_c, 0, 73, 64
2, 396064, Note_on_c, 0, 73, 52
2, 396069, Note_off_c, 0, 75, 64
2, 396095, Control_c, 0, 64, 0
2, 396111, Note_on_c, 0, 72, 55
2, 396111, Control_c, 0, 64, 127
2, 396112, Note_on_c, 0, 60, 45
2, 396112, Note_on_c, 0, 56, 36
2, 396114, Note_on_c, 0, 63, 44
2, 396114, Note_on_c, 0, 56, 42
2, 396115, Note_off_c, 0, 73, 64
2, 396135, Control_c, 0, 64, 127
2, 396157, Note_on_c, 0, 73, 55
2, 396158, Note_off_c, 0, 56, 64
2, 396158, Note_off_c, 0, 60, 64
2, 396160, Note_off_c, 0, 56, 64
2, 396160, Note_off_c, 0, 63, 64
2, 396167, Note_off_c, 0, 72, 64
2, 396226, Note_on_c, 0, 75, 53
2, 396226, Note_on_c, 0, 63, 40
2, 396228, Note_on_c, 0, 58, 35
2, 396228, Note_on_c, 0, 55, 28
2, 396237, Note_off_c, 0, 73, 64
2, 396272, Note_off_c, 0, 63, 64
2, 396274, Note_off_c, 0, 55, 64
2, 396274, Note_off_c, 0, 58, 64
2, 396343, Control_c, 0, 64, 0
2, 396356, Note_on_c, 0, 65, 48
2, 396356, Note_on_c, 0, 61, 49
2, 396356, Note_on_c, 0, 53, 42
2, 396359, Note_on_c, 0, 80, 72
2, 396373, Note_off_c, 0, 75, 64
2, 396382, Control_c, 0, 64, 127
2, 396402, Note_off_c, 0, 53, 64
2, 396402, Note_off_c, 0, 61, 64
2, 396402, Note_off_c, 0, 65, 64
2, 396424, Note_off_c, 0, 80, 64
2, 396450, Note_on_c, 0, 73, 58
2, 396471, Control_c, 0, 64, 0
2, 396502, Note_on_c, 0, 51, 44
2, 396504, Note_on_c, 0, 72, 55
2, 396504, Note_on_c, 0, 63, 48
2, 396504, Note_on_c, 0, 56, 15
2, 396517, Note_off_c, 0, 73, 64
2, 396517, Control_c, 0, 64, 127
2, 396548, Note_off_c, 0, 51, 64
2, 396549, Note_on_c, 0, 75, 49
2, 396550, Note_off_c, 0, 56, 64
2, 396550, Note_off_c, 0, 63, 64
2, 396555, Note_off_c, 0, 72, 64
2, 396588, Control_c, 0, 64, 0
2, 396604, Control_c, 0, 64, 127
2, 396616, Note_on_c, 0, 63, 49
2, 396616, Note_on_c, 0, 60, 48
2, 396618, Note_on_c, 0, 68, 62
2, 396618, Note_on_c, 0, 51, 44
2, 396627, Note_off_c, 0, 75, 64
2, 396662, Note_off_c, 0, 60, 64
2, 396662, Note_off_c, 0, 63, 64
2, 396664, Note_off_c, 0, 51, 64
2, 396664, Note_on_c, 0, 69, 52
2, 396680, Note_off_c, 0, 68, 64
2, 396704, Control_c, 0, 64, 0
2, 396722, Note_on_c, 0, 70, 55
2, 396724, Note_on_c, 0, 63, 49
2, 396724, Note_on_c, 0, 61, 44
2, 396724, Note_on_c, 0, 51, 42
2, 396730, Note_off_c, 0, 69, 64
2, 396748, Control_c, 0, 64, 127
2, 396770, Note_off_c, 0, 51, 64
2, 396770, Note_off_c, 0, 61, 64
2, 396770, Note_off_c, 0, 63, 64
2, 396777, Note_on_c, 0, 73, 61
2, 396788, Note_off_c, 0, 70, 64
2, 396828, Control_c, 0, 64, 0
2, 396832, Note_on_c, 0, 63, 37
2, 396834, Note_on_c, 0, 65, 57
2, 396834, Note_on_c, 0, 61, 40
2, 396836, Note_on_c, 0, 51, 36
2, 396845, Note_off_c, 0, 73, 64
2, 396864, Control_c, 0, 64, 127
2, 396877, Note_off_c, 0, 61, 64
2, 396878, Note_off_c, 0, 63, 64
2, 396882, Note_off_c, 0, 51, 64
2, 396889, Note_on_c, 0, 67, 54
2, 396903, Note_off_c, 0, 65, 64
2, 396948, Note_on_c, 0, 63, 45
2, 396952, Note_on_c, 0, 60, 48
2, 396954, Note_on_c, 0, 56, 27
2, 396955, Note_on_c, 0, 68, 58
2, 396955, Control_c, 0, 64, 0
2, 396974, Note_off_c, 0, 67, 64
2, 396994, Note_off_c, 0, 63, 64
2, 396995, Control_c, 0, 64, 127
2, 396998, Note_off_c, 0, 60, 64
2, 397000, Note_off_c, 0, 56, 64
2, 397124, Note_on_c, 0, 63, 35
2, 397124, Note_on_c, 0, 60, 29
2, 397124, Note_on_c, 0, 56, 31
2, 397143, Control_c, 0, 64, 0
2, 397160, Control_c, 0, 64, 127
2, 397170, Note_off_c, 0, 56, 64
2, 397170, Note_off_c, 0, 60, 64
2, 397170, Note_off_c, 0, 63, 64
2, 397177, Control_c, 0, 64, 127
2, 397199, Note_on_c, 0, 70, 26
2, 397215, Note_off_c, 0, 68, 64
2, 397228, Note_on_c, 0, 68, 41
2, 397242, Note_off_c, 0, 70, 64
2, 397251, Control_c, 0, 64, 0
2, 397260, Note_on_c, 0, 61, 48
2, 397260, Note_on_c, 0, 56, 36
2, 397266, Note_on_c, 0, 67, 41
2, 397266, Note_on_c, 0, 64, 45
2, 397278, Note_off_c, 0, 68, 64
2, 397290, Control_c, 0, 64, 127
2, 397306, Note_off_c, 0, 56, 64
2, 397306, Note_off_c, 0, 61, 64
2, 397312, Note_off_c, 0, 64, 64
2, 397337, Note_off_c, 0, 67, 64
2, 397359, Control_c, 0, 64, 0
2, 397362, Note_on_c, 0, 68, 42
2, 397372, Control_c, 0, 64, 127
2, 397378, Note_on_c, 0, 70, 36
2, 397382, Note_on_c, 0, 64, 29
2, 397382, Note_on_c, 0, 61, 36
2, 397382, Note_on_c, 0, 56, 33
2, 397392, Note_off_c, 0, 68, 64
2, 397428, Note_off_c, 0, 56, 64
2, 397428, Note_off_c, 0, 61, 64
2, 397428, Note_off_c, 0, 64, 64
2, 397443, Note_on_c, 0, 72, 41
2, 397448, Note_off_c, 0, 70, 64
2, 397486, Note_on_c, 0, 64, 52
2, 397486, Note_on_c, 0, 58, 46
2, 397486, Note_on_c, 0, 55, 48
2, 397486, Control_c, 0, 64, 0
2, 397497, Note_on_c, 0, 73, 48
2, 397516, Note_off_c, 0, 72, 64
2, 397526, Control_c, 0, 64, 127
2, 397532, Note_off_c, 0, 55, 64
2, 397532, Note_off_c, 0, 58, 64
2, 397532, Note_off_c, 0, 64, 64
2, 397538, Note_on_c, 0, 75, 48
2, 397548, Note_off_c, 0, 73, 64
2, 397577, Note_on_c, 0, 73, 41
2, 397582, Note_off_c, 0, 75, 64
2, 397608, Note_on_c, 0, 63, 41
2, 397608, Note_on_c, 0, 60, 36
2, 397608, Note_on_c, 0, 56, 36
2, 397613, Note_on_c, 0, 72, 48
2, 397620, Control_c, 0, 64, 0
2, 397626, Note_off_c, 0, 73, 64
2, 397637, Control_c, 0, 64, 127
2, 397654, Note_off_c, 0, 56, 64
2, 397654, Note_off_c, 0, 60, 64
2, 397654, Note_off_c, 0, 63, 64
2, 397663, Note_off_c, 0, 72, 64
2, 397666, Note_on_c, 0, 73, 44
2, 397676, Note_off_c, 0, 73, 64
2, 397686, Note_on_c, 0, 73, 46
2, 397704, Note_off_c, 0, 73, 64
2, 397710, Note_on_c, 0, 74, 45
2, 397714, Note_on_c, 0, 63, 40
2, 397714, Note_on_c, 0, 60, 33
2, 397714, Note_on_c, 0, 56, 35
2, 397749, Note_on_c, 0, 75, 59
2, 397760, Note_off_c, 0, 56, 64
2, 397760, Note_off_c, 0, 60, 64
2, 397760, Note_off_c, 0, 63, 64
2, 397771, Note_off_c, 0, 74, 64
2, 397774, Note_off_c, 0, 75, 64
2, 397812, Note_on_c, 0, 75, 58
2, 397856, Note_on_c, 0, 80, 62
2, 397856, Note_on_c, 0, 61, 48
2, 397856, Note_on_c, 0, 56, 55
2, 397856, Note_on_c, 0, 53, 49
2, 397858, Note_on_c, 0, 65, 40
2, 397866, Control_c, 0, 64, 0
2, 397872, Note_off_c, 0, 75, 64
2, 397912, Note_off_c, 0, 65, 64
2, 397921, Note_off_c, 0, 61, 64
2, 397921, Control_c, 0, 64, 127
2, 397937, Note_off_c, 0, 53, 64
2, 397944, Note_off_c, 0, 80, 64
2, 397945, Note_off_c, 0, 56, 64
2, 397975, Note_on_c, 0, 73, 58
2, 398006, Control_c, 0, 64, 0
2, 398020, Note_on_c, 0, 72, 53
2, 398024, Note_on_c, 0, 63, 45
2, 398026, Note_on_c, 0, 56, 32
2, 398026, Note_on_c, 0, 51, 40
2, 398029, Note_off_c, 0, 73, 64
2, 398049, Control_c, 0, 64, 127
2, 398070, Note_off_c, 0, 63, 64
2, 398072, Note_off_c, 0, 51, 64
2, 398072, Note_off_c, 0, 56, 64
2, 398085, Note_on_c, 0, 75, 48
2, 398092, Note_off_c, 0, 72, 64
2, 398130, Control_c, 0, 64, 0
2, 398144, Control_c, 0, 64, 127
2, 398150, Note_on_c, 0, 68, 65
2, 398150, Note_on_c, 0, 63, 44
2, 398152, Note_on_c, 0, 60, 40
2, 398152, Note_on_c, 0, 51, 36
2, 398161, Note_off_c, 0, 75, 64
2, 398196, Note_off_c, 0, 63, 64
2, 398198, Note_off_c, 0, 51, 64
2, 398198, Note_off_c, 0, 60, 64
2, 398203, Note_on_c, 0, 69, 46
2, 398210, Note_off_c, 0, 68, 64
2, 398255, Control_c, 0, 64, 0
2, 398262, Note_on_c, 0, 63, 45
2, 398264, Note_on_c, 0, 61, 40
2, 398265, Note_on_c, 0, 70, 58
2, 398266, Note_on_c, 0, 51, 44
2, 398281, Note_off_c, 0, 69, 64
2, 398285, Control_c, 0, 64, 127
2, 398308, Note_off_c, 0, 63, 64
2, 398310, Note_off_c, 0, 61, 64
2, 398312, Note_off_c, 0, 51, 64
2, 398333, Note_on_c, 0, 73, 59
2, 398340, Note_off_c, 0, 70, 64
2, 398388, Note_on_c, 0, 51, 37
2, 398388, Note_on_c, 0, 63, 41
2, 398390, Note_on_c, 0, 61, 36
2, 398390, Note_on_c, 0, 65, 58
2, 398407, Note_off_c, 0, 73, 64
2, 398434, Note_off_c, 0, 63, 64
2, 398434, Note_off_c, 0, 51, 64
2, 398436, Note_off_c, 0, 61, 64
2, 398466, Note_on_c, 0, 67, 54
2, 398478, Note_off_c, 0, 65, 64
2, 398487, Control_c, 0, 64, 0
2, 398522, Note_on_c, 0, 63, 49
2, 398522, Note_on_c, 0, 60, 48
2, 398522, Note_on_c, 0, 56, 36
2, 398523, Note_on_c, 0, 68, 65
2, 398541, Control_c, 0, 64, 127
2, 398546, Note_off_c, 0, 67, 64
2, 398568, Note_off_c, 0, 56, 64
2, 398568, Note_off_c, 0, 60, 64
2, 398568, Note_off_c, 0, 63, 64
2, 398623, Note_off_c, 0, 68, 64
2, 398745, Control_c, 0, 64, 0
2, 398755, Note_on_c, 0, 72, 58
2, 398755, Note_on_c, 0, 48, 58
2, 398797, Control_c, 0, 64, 127
2, 398872, Control_c, 0, 64, 0
2, 398884, Note_on_c, 0, 84, 49
2, 398884, Note_on_c, 0, 64, 36
2, 398884, Note_on_c, 0, 60, 24
2, 398886, Note_on_c, 0, 55, 36
2, 398902, Note_off_c, 0, 48, 64
2, 398915, Control_c, 0, 64, 127
2, 398930, Note_off_c, 0, 60, 64
2, 398930, Note_off_c, 0, 64, 64
2, 398932, Note_off_c, 0, 55, 64
2, 398946, Note_off_c, 0, 72, 64
2, 398957, Note_off_c, 0, 84, 64
2, 398980, Note_on_c, 0, 82, 58
2, 399010, Note_on_c, 0, 65, 49
2, 399010, Note_on_c, 0, 60, 48
2, 399010, Note_on_c, 0, 53, 36
2, 399014, Note_on_c, 0, 80, 59
2, 399015, Control_c, 0, 64, 0
2, 399028, Note_off_c, 0, 82, 64
2, 399045, Control_c, 0, 64, 127
2, 399056, Note_off_c, 0, 53, 64
2, 399056, Note_off_c, 0, 60, 64
2, 399056, Note_off_c, 0, 65, 64
2, 399123, Control_c, 0, 64, 0
2, 399134, Note_on_c, 0, 65, 46
2, 399134, Note_on_c, 0, 55, 42
2, 399136, Note_on_c, 0, 59, 49
2, 399150, Control_c, 0, 64, 127
2, 399180, Note_off_c, 0, 55, 64
2, 399180, Note_off_c, 0, 65, 64
2, 399182, Note_off_c, 0, 59, 64
2, 399192, Note_on_c, 0, 79, 52
2, 399198, Note_off_c, 0, 80, 64
2, 399229, Note_on_c, 0, 82, 61
2, 399232, Note_off_c, 0, 79, 64
2, 399242, Control_c, 0, 64, 0
2, 399258, Note_on_c, 0, 55, 36
2, 399260, Note_on_c, 0, 65, 40
2, 399260, Note_on_c, 0, 59, 42
2, 399262, Note_on_c, 0, 80, 55
2, 399277, Control_c, 0, 64, 127
2, 399281, Note_off_c, 0, 82, 64
2, 399304, Note_off_c, 0, 55, 64
2, 399306, Note_off_c, 0, 59, 64
2, 399306, Note_off_c, 0, 65, 64
2, 399308, Note_on_c, 0, 79, 55
2, 399331, Note_off_c, 0, 80, 64
2, 399357, Control_c, 0, 64, 0
2, 399370, Note_on_c, 0, 74, 46
2, 399370, Note_on_c, 0, 65, 36
2, 399372, Note_on_c, 0, 59, 49
2, 399372, Note_on_c, 0, 55, 39
2, 399393, Note_off_c, 0, 79, 64
2, 399399, Control_c, 0, 64, 127
2, 399416, Note_off_c, 0, 65, 64
2, 399418, Note_off_c, 0, 55, 64
2, 399418, Note_off_c, 0, 59, 64
2, 399487, Control_c, 0, 64, 0
2, 399496, Note_on_c, 0, 60, 36
2, 399496, Note_on_c, 0, 72, 48
2, 399496, Note_on_c, 0, 56, 40
2, 399497, Note_on_c, 0, 63, 42
2, 399506, Note_off_c, 0, 74, 64
2, 399533, Control_c, 0, 64, 127
2, 399542, Note_off_c, 0, 56, 64
2, 399542, Note_off_c, 0, 60, 64
2, 399543, Note_off_c, 0, 63, 64
2, 399572, Note_off_c, 0, 72, 64
2, 399579, Note_on_c, 0, 72, 55
2, 399611, Control_c, 0, 64, 0
2, 399627, Note_on_c, 0, 64, 42
2, 399628, Note_on_c, 0, 84, 58
2, 399628, Note_on_c, 0, 60, 37
2, 399628, Note_on_c, 0, 55, 49
2, 399653, Control_c, 0, 64, 127
2, 399665, Note_off_c, 0, 72, 64
2, 399673, Note_off_c, 0, 64, 64
2, 399674, Note_off_c, 0, 55, 64
2, 399674, Note_off_c, 0, 60, 64
2, 399704, Note_off_c, 0, 84, 64
2, 399722, Note_on_c, 0, 82, 61
2, 399748, Note_on_c, 0, 53, 48
2, 399750, Note_on_c, 0, 80, 59
2, 399750, Note_on_c, 0, 65, 46
2, 399750, Control_c, 0, 64, 0
2, 399752, Note_on_c, 0, 60, 45
2, 399764, Note_off_c, 0, 82, 64
2, 399768, Control_c, 0, 64, 127
2, 399794, Note_off_c, 0, 53, 64
2, 399796, Note_off_c, 0, 65, 64
2, 399798, Note_off_c, 0, 60, 64
2, 399864, Control_c, 0, 64, 0
2, 399876, Note_on_c, 0, 65, 48
2, 399876, Note_on_c, 0, 59, 50
2, 399877, Note_on_c, 0, 55, 49
2, 399886, Control_c, 0, 64, 127
2, 399922, Note_off_c, 0, 59, 64
2, 399922, Note_off_c, 0, 65, 64
2, 399923, Note_off_c, 0, 55, 64
2, 399925, Note_on_c, 0, 79, 54
2, 399934, Note_off_c, 0, 80, 64
2, 399958, Note_on_c, 0, 82, 58
2, 399965, Note_off_c, 0, 79, 64
2, 399979, Control_c, 0, 64, 0
2, 399992, Note_on_c, 0, 80, 61
2, 399992, Note_on_c, 0, 65, 48
2, 399992, Note_on_c, 0, 59, 49
2, 399994, Note_on_c, 0, 55, 42
2, 400010, Note_off_c, 0, 82, 64
2, 400014, Control_c, 0, 64, 127
2, 400038, Note_off_c, 0, 59, 64
2, 400038, Note_off_c, 0, 65, 64
2, 400040, Note_off_c, 0, 55, 64
2, 400052, Note_off_c, 0, 80, 64
2, 400080, Note_on_c, 0, 79, 58
2, 400098, Control_c, 0, 64, 0
2, 400114, Note_on_c, 0, 65, 49
2, 400114, Note_on_c, 0, 55, 45
2, 400119, Note_on_c, 0, 74, 49
2, 400119, Note_on_c, 0, 59, 44
2, 400126, Note_off_c, 0, 79, 64
2, 400131, Control_c, 0, 64, 127
2, 400160, Note_off_c, 0, 55, 64
2, 400160, Note_off_c, 0, 65, 64
2, 400165, Note_off_c, 0, 59, 64
2, 400231, Control_c, 0, 64, 0
2, 400236, Note_on_c, 0, 63, 32
2, 400236, Note_on_c, 0, 56, 28
2, 400237, Note_on_c, 0, 72, 39
2, 400237, Note_on_c, 0, 60, 22
2, 400240, Note_off_c, 0, 74, 64
2, 400282, Note_off_c, 0, 56, 64
2, 400282, Note_off_c, 0, 63, 64
2, 400283, Note_off_c, 0, 60, 64
2, 400283, Control_c, 0, 64, 127
2, 400360, Note_on_c, 0, 73, 36
2, 400361, Control_c, 0, 64, 0
2, 400362, Note_on_c, 0, 61, 31
2, 400362, Note_on_c, 0, 53, 28
2, 400364, Note_on_c, 0, 56, 28
2, 400386, Note_off_c, 0, 72, 64
2, 400402, Control_c, 0, 64, 127
2, 400408, Note_off_c, 0, 53, 64
2, 400408, Note_off_c, 0, 61, 64
2, 400410, Note_off_c, 0, 56, 64
2, 400450, Note_on_c, 0, 77, 31
2, 400455, Note_off_c, 0, 73, 64
2, 400486, Note_on_c, 0, 62, 28
2, 400490, Note_on_c, 0, 56, 29
2, 400492, Control_c, 0, 64, 0
2, 400494, Note_on_c, 0, 53, 28
2, 400504, Note_on_c, 0, 72, 37
2, 400516, Note_off_c, 0, 77, 64
2, 400517, Control_c, 0, 64, 127
2, 400532, Note_off_c, 0, 62, 64
2, 400536, Note_off_c, 0, 56, 64
2, 400540, Note_off_c, 0, 53, 64
2, 400616, Control_c, 0, 64, 0
2, 400622, Note_on_c, 0, 65, 32
2, 400622, Note_on_c, 0, 71, 39
2, 400622, Note_on_c, 0, 62, 31
2, 400622, Note_on_c, 0, 55, 28
2, 400627, Note_off_c, 0, 72, 64
2, 400655, Control_c, 0, 64, 127
2, 400668, Note_off_c, 0, 55, 64
2, 400668, Note_off_c, 0, 62, 64
2, 400668, Note_off_c, 0, 65, 64
2, 400698, Note_off_c, 0, 71, 64
2, 400710, Note_on_c, 0, 67, 31
2, 400744, Control_c, 0, 64, 0
2, 400760, Note_on_c, 0, 71, 39
2, 400760, Note_on_c, 0, 65, 24
2, 400760, Note_on_c, 0, 62, 16
2, 400762, Note_on_c, 0, 55, 28
2, 400779, Note_off_c, 0, 67, 64
2, 400789, Control_c, 0, 64, 127
2, 400806, Note_off_c, 0, 62, 64
2, 400806, Note_off_c, 0, 65, 64
2, 400808, Note_off_c, 0, 55, 64
2, 400834, Note_on_c, 0, 74, 28
2, 400848, Note_off_c, 0, 71, 64
2, 400878, Control_c, 0, 64, 0
2, 400884, Note_on_c, 0, 63, 26
2, 400884, Note_on_c, 0, 60, 28
2, 400888, Note_on_c, 0, 72, 39
2, 400906, Note_off_c, 0, 74, 64
2, 400918, Control_c, 0, 64, 127
2, 400930, Note_off_c, 0, 60, 64
2, 400950, Note_off_c, 0, 72, 64
2, 401062, Note_on_c, 0, 56, 27
2, 401064, Note_on_c, 0, 60, 22
2, 401082, Control_c, 0, 64, 0
2, 401096, Control_c, 0, 64, 127
2, 401111, Note_off_c, 0, 60, 64
2, 401115, Note_off_c, 0, 56, 64
2, 401192, Note_on_c, 0, 61, 26
2, 401194, Note_on_c, 0, 73, 39
2, 401194, Note_on_c, 0, 56, 18
2, 401194, Note_on_c, 0, 53, 26
2, 401196, Note_off_c, 0, 63, 64
2, 401203, Control_c, 0, 64, 0
2, 401229, Note_off_c, 0, 53, 64
2, 401230, Control_c, 0, 64, 127
2, 401232, Note_off_c, 0, 56, 64
2, 401285, Note_on_c, 0, 77, 33
2, 401288, Note_off_c, 0, 73, 64
2, 401324, Note_on_c, 0, 72, 36
2, 401324, Note_on_c, 0, 56, 27
2, 401324, Note_on_c, 0, 53, 27
2, 401325, Note_on_c, 0, 62, 27
2, 401337, Note_off_c, 0, 61, 64
2, 401342, Control_c, 0, 64, 0
2, 401355, Note_off_c, 0, 53, 64
2, 401366, Note_off_c, 0, 77, 64
2, 401366, Control_c, 0, 64, 127
2, 401370, Note_off_c, 0, 56, 64
2, 401446, Note_off_c, 0, 62, 64
2, 401477, Note_on_c, 0, 62, 36
2, 401477, Note_on_c, 0, 58, 36
2, 401481, Note_on_c, 0, 55, 32
2, 401490, Control_c, 0, 64, 0
2, 401513, Control_c, 0, 64, 127
2, 401543, Note_off_c, 0, 55, 64
2, 401545, Note_off_c, 0, 58, 64
2, 401631, Note_on_c, 0, 63, 37
2, 401635, Note_on_c, 0, 58, 31
2, 401640, Note_off_c, 0, 62, 64
2, 401641, Note_on_c, 0, 55, 24
2, 401645, Control_c, 0, 64, 0
2, 401658, Note_off_c, 0, 72, 64
2, 401670, Control_c, 0, 64, 127
2, 401704, Note_off_c, 0, 55, 64
2, 401708, Note_off_c, 0, 58, 64
2, 401733, Note_on_c, 0, 70, 57
2, 401824, Note_on_c, 0, 72, 46
2, 401824, Note_on_c, 0, 55, 32
2, 401828, Note_off_c, 0, 70, 64
2, 401828, Note_on_c, 0, 61, 31
2, 401832, Note_off_c, 0, 63, 64
2, 401833, Note_on_c, 0, 64, 33
2, 401841, Control_c, 0, 64, 0
2, 401875, Control_c, 0, 64, 127
2, 401891, Note_off_c, 0, 64, 64
2, 401897, Note_off_c, 0, 61, 64
2, 401898, Note_off_c, 0, 55, 64
2, 401930, Note_on_c, 0, 70, 57
2, 401940, Note_off_c, 0, 72, 64
2, 401966, Note_off_c, 0, 70, 64
2, 402005, Control_c, 0, 64, 0
2, 402018, Note_on_c, 0, 63, 36
2, 402020, Note_on_c, 0, 60, 29
2, 402021, Note_on_c, 0, 68, 52
2, 402021, Note_on_c, 0, 56, 24
2, 402040, Control_c, 0, 64, 127
2, 402057, Note_on_c, 0, 70, 55
2, 402060, Note_off_c, 0, 68, 64
2, 402064, Note_off_c, 0, 63, 64
2, 402066, Note_off_c, 0, 60, 64
2, 402067, Note_off_c, 0, 56, 64
2, 402102, Note_on_c, 0, 68, 50
2, 402112, Note_off_c, 0, 70, 64
2, 402113, Control_c, 0, 64, 0
2, 402154, Note_on_c, 0, 67, 50
2, 402156, Note_on_c, 0, 61, 18
2, 402158, Note_on_c, 0, 64, 35
2, 402158, Note_on_c, 0, 56, 28
2, 402166, Note_off_c, 0, 68, 64
2, 402169, Control_c, 0, 64, 127
2, 402199, Note_on_c, 0, 68, 50
2, 402202, Note_off_c, 0, 61, 64
2, 402204, Note_off_c, 0, 56, 64
2, 402204, Note_off_c, 0, 64, 64
2, 402226, Note_off_c, 0, 67, 64
2, 402240, Control_c, 0, 64, 0
2, 402253, Control_c, 0, 64, 127
2, 402260, Note_on_c, 0, 70, 55
2, 402260, Note_on_c, 0, 64, 36
2, 402262, Note_on_c, 0, 56, 33
2, 402263, Note_on_c, 0, 61, 37
2, 402274, Note_off_c, 0, 68, 64
2, 402306, Note_off_c, 0, 64, 64
2, 402308, Note_off_c, 0, 56, 64
2, 402309, Note_off_c, 0, 61, 64
2, 402316, Note_on_c, 0, 72, 52
2, 402318, Note_off_c, 0, 70, 64
2, 402369, Control_c, 0, 64, 0
2, 402372, Note_on_c, 0, 73, 55
2, 402376, Note_on_c, 0, 64, 42
2, 402378, Note_on_c, 0, 58, 44
2, 402379, Note_on_c, 0, 55, 42
2, 402391, Note_off_c, 0, 72, 64
2, 402400, Control_c, 0, 64, 127
2, 402405, Note_on_c, 0, 75, 55
2, 402422, Note_off_c, 0, 64, 64
2, 402422, Note_off_c, 0, 73, 64
2, 402424, Note_off_c, 0, 58, 64
2, 402425, Note_off_c, 0, 55, 64
2, 402447, Note_on_c, 0, 73, 49
2, 402454, Note_off_c, 0, 75, 64
2, 402464, Control_c, 0, 64, 0
2, 402479, Control_c, 0, 64, 127
2, 402496, Note_on_c, 0, 63, 45
2, 402496, Note_on_c, 0, 60, 16
2, 402498, Note_on_c, 0, 72, 48
2, 402498, Note_on_c, 0, 56, 48
2, 402504, Note_off_c, 0, 73, 64
2, 402542, Note_off_c, 0, 60, 64
2, 402542, Note_off_c, 0, 63, 64
2, 402544, Note_off_c, 0, 56, 64
2, 402544, Note_on_c, 0, 73, 36
2, 402549, Note_off_c, 0, 72, 64
2, 402577, Control_c, 0, 64, 0
2, 402588, Control_c, 0, 64, 127
2, 402597, Note_on_c, 0, 75, 54
2, 402608, Note_on_c, 0, 63, 44
2, 402608, Note_on_c, 0, 55, 36
2, 402609, Note_off_c, 0, 73, 64
2, 402610, Note_on_c, 0, 58, 28
2, 402654, Note_off_c, 0, 55, 64
2, 402654, Note_off_c, 0, 63, 64
2, 402656, Note_off_c, 0, 58, 64
2, 402712, Note_on_c, 0, 61, 49
2, 402712, Note_on_c, 0, 56, 45
2, 402714, Note_on_c, 0, 80, 61
2, 402714, Note_on_c, 0, 53, 49
2, 402716, Note_on_c, 0, 65, 45
2, 402729, Note_off_c, 0, 75, 64
2, 402734, Control_c, 0, 64, 0
2, 402747, Control_c, 0, 64, 127
2, 402788, Note_off_c, 0, 56, 64
2, 402788, Note_off_c, 0, 61, 64
2, 402790, Note_off_c, 0, 53, 64
2, 402790, Note_off_c, 0, 80, 64
2, 402792, Note_off_c, 0, 65, 64
2, 402823, Note_on_c, 0, 73, 52
2, 402840, Control_c, 0, 64, 0
2, 402860, Note_on_c, 0, 72, 48
2, 402860, Note_on_c, 0, 63, 40
2, 402862, Note_on_c, 0, 56, 24
2, 402865, Note_on_c, 0, 51, 36
2, 402876, Note_off_c, 0, 73, 64
2, 402883, Control_c, 0, 64, 127
2, 402906, Note_off_c, 0, 63, 64
2, 402908, Note_off_c, 0, 56, 64
2, 402911, Note_off_c, 0, 51, 64
2, 402925, Note_on_c, 0, 75, 45
2, 402930, Note_off_c, 0, 72, 64
2, 402948, Control_c, 0, 64, 0
2, 402960, Control_c, 0, 64, 127
2, 402976, Note_on_c, 0, 60, 15
2, 402976, Note_on_c, 0, 51, 28
2, 402978, Note_on_c, 0, 63, 36
2, 402980, Note_on_c, 0, 68, 50
2, 402989, Note_off_c, 0, 75, 64
2, 403022, Note_off_c, 0, 51, 64
2, 403022, Note_off_c, 0, 60, 64
2, 403024, Note_off_c, 0, 63, 64
2, 403039, Note_on_c, 0, 69, 48
2, 403054, Note_off_c, 0, 68, 64
2, 403063, Control_c, 0, 64, 0
2, 403092, Note_on_c, 0, 51, 32
2, 403095, Note_on_c, 0, 70, 50
2, 403095, Note_on_c, 0, 63, 41
2, 403096, Note_on_c, 0, 61, 15
2, 403102, Control_c, 0, 64, 127
2, 403107, Note_off_c, 0, 69, 64
2, 403138, Note_off_c, 0, 51, 64
2, 403141, Note_off_c, 0, 63, 64
2, 403142, Note_off_c, 0, 61, 64
2, 403160, Note_on_c, 0, 73, 54
2, 403172, Note_off_c, 0, 70, 64
2, 403199, Control_c, 0, 64, 0
2, 403214, Note_on_c, 0, 65, 50
2, 403216, Note_on_c, 0, 61, 36
2, 403216, Note_on_c, 0, 63, 37
2, 403216, Note_on_c, 0, 51, 36
2, 403223, Note_off_c, 0, 73, 64
2, 403230, Control_c, 0, 64, 127
2, 403262, Note_off_c, 0, 51, 64
2, 403262, Note_off_c, 0, 63, 64
2, 403262, Note_off_c, 0, 61, 64
2, 403266, Note_on_c, 0, 67, 50
2, 403279, Note_off_c, 0, 65, 64
2, 403311, Control_c, 0, 64, 0
2, 403328, Note_on_c, 0, 68, 50
2, 403330, Note_on_c, 0, 63, 36
2, 403330, Note_on_c, 0, 60, 35
2, 403330, Note_on_c, 0, 56, 28
2, 403344, Note_off_c, 0, 67, 64
2, 403353, Control_c, 0, 64, 127
2, 403376, Note_off_c, 0, 56, 64
2, 403376, Note_off_c, 0, 60, 64
2, 403376, Note_off_c, 0, 63, 64
2, 403492, Control_c, 0, 64, 0
2, 403498, Note_on_c, 0, 63, 31
2, 403498, Note_on_c, 0, 60, 29
2, 403498, Note_on_c, 0, 56, 31
2, 403508, Control_c, 0, 64, 127
2, 403544, Note_off_c, 0, 56, 64
2, 403544, Note_off_c, 0, 60, 64
2, 403544, Note_off_c, 0, 63, 64
2, 403554, Note_on_c, 0, 70, 37
2, 403568, Note_off_c, 0, 68, 64
2, 403588, Note_on_c, 0, 68, 55
2, 403593, Control_c, 0, 64, 0
2, 403613, Note_off_c, 0, 70, 64
2, 403620, Control_c, 0, 64, 127
2, 403628, Note_on_c, 0, 67, 50
2, 403628, Note_on_c, 0, 64, 37
2, 403628, Note_on_c, 0, 61, 35
2, 403628, Note_on_c, 0, 56, 40
2, 403647, Note_off_c, 0, 68, 64
2, 403674, Note_off_c, 0, 56, 64
2, 403674, Note_off_c, 0, 61, 64
2, 403674, Note_off_c, 0, 64, 64
2, 403704, Note_off_c, 0, 67, 64
2, 403706, Note_on_c, 0, 68, 66
2, 403734, Note_on_c, 0, 56, 24
2, 403738, Note_on_c, 0, 70, 46
2, 403738, Note_on_c, 0, 64, 19
2, 403738, Note_on_c, 0, 61, 28
2, 403740, Note_off_c, 0, 68, 64
2, 403780, Note_off_c, 0, 56, 64
2, 403784, Note_off_c, 0, 61, 64
2, 403784, Note_off_c, 0, 64, 64
2, 403798, Note_on_c, 0, 72, 54
2, 403800, Note_off_c, 0, 70, 64
2, 403826, Control_c, 0, 64, 0
2, 403850, Note_on_c, 0, 73, 55
2, 403850, Note_on_c, 0, 64, 40
2, 403850, Note_on_c, 0, 58, 42
2, 403850, Note_on_c, 0, 55, 42
2, 403856, Control_c, 0, 64, 127
2, 403870, Note_off_c, 0, 72, 64
2, 403890, Note_on_c, 0, 75, 61
2, 403896, Note_off_c, 0, 55, 64
2, 403896, Note_off_c, 0, 58, 64
2, 403896, Note_off_c, 0, 64, 64
2, 403896, Note_off_c, 0, 73, 64
2, 403918, Control_c, 0, 64, 0
2, 403926, Note_on_c, 0, 73, 50
2, 403937, Control_c, 0, 64, 127
2, 403944, Note_off_c, 0, 75, 64
2, 403966, Note_on_c, 0, 72, 55
2, 403966, Note_on_c, 0, 63, 32
2, 403966, Note_on_c, 0, 60, 31
2, 403966, Note_on_c, 0, 56, 32
2, 403982, Note_off_c, 0, 73, 64
2, 404010, Note_on_c, 0, 73, 55
2, 404012, Note_off_c, 0, 56, 64
2, 404012, Note_off_c, 0, 60, 64
2, 404012, Note_off_c, 0, 63, 64
2, 404029, Note_off_c, 0, 72, 64
2, 404034, Note_off_c, 0, 73, 64
2, 404042, Note_on_c, 0, 73, 55
2, 404062, Note_off_c, 0, 73, 64
2, 404074, Note_on_c, 0, 74, 55
2, 404078, Note_on_c, 0, 63, 26
2, 404078, Note_on_c, 0, 58, 26
2, 404082, Note_on_c, 0, 55, 23
2, 404114, Note_on_c, 0, 75, 61
2, 404124, Note_off_c, 0, 58, 64
2, 404124, Note_off_c, 0, 63, 64
2, 404128, Note_off_c, 0, 55, 64
2, 404132, Note_off_c, 0, 74, 64
2, 404140, Note_off_c, 0, 75, 64
2, 404157, Note_on_c, 0, 75, 55
2, 404198, Control_c, 0, 64, 0
2, 404202, Note_on_c, 0, 61, 46
2, 404205, Note_on_c, 0, 80, 76
2, 404205, Note_on_c, 0, 53, 50
2, 404206, Note_on_c, 0, 56, 55
2, 404208, Note_on_c, 0, 65, 33
2, 404216, Note_off_c, 0, 75, 64
2, 404245, Control_c, 0, 64, 127
2, 404252, Note_off_c, 0, 56, 64
2, 404320, Note_on_c, 0, 73, 50
2, 404326, Note_off_c, 0, 61, 64
2, 404329, Note_off_c, 0, 53, 64
2, 404329, Note_off_c, 0, 80, 64
2, 404332, Note_off_c, 0, 65, 64
2, 404354, Control_c, 0, 64, 0
2, 404365, Note_on_c, 0, 72, 45
2, 404376, Note_on_c, 0, 63, 36
2, 404379, Note_on_c, 0, 56, 36
2, 404383, Note_off_c, 0, 73, 64
2, 404385, Note_on_c, 0, 51, 36
2, 404398, Control_c, 0, 64, 127
2, 404422, Note_off_c, 0, 63, 64
2, 404425, Note_off_c, 0, 56, 64
2, 404427, Note_off_c, 0, 72, 64
2, 404431, Note_off_c, 0, 51, 64
2, 404431, Note_on_c, 0, 75, 44
2, 404473, Note_off_c, 0, 75, 64
2, 404494, Note_on_c, 0, 68, 55
2, 404502, Note_on_c, 0, 63, 40
2, 404503, Note_on_c, 0, 60, 27
2, 404507, Note_on_c, 0, 51, 36
2, 404548, Note_off_c, 0, 63, 64
2, 404549, Note_off_c, 0, 60, 64
2, 404552, Note_on_c, 0, 69, 48
2, 404553, Note_off_c, 0, 51, 64
2, 404562, Note_off_c, 0, 68, 64
2, 404611, Note_on_c, 0, 51, 36
2, 404612, Note_on_c, 0, 70, 50
2, 404614, Note_on_c, 0, 61, 41
2, 404617, Note_off_c, 0, 69, 64
2, 404617, Note_on_c, 0, 63, 42
2, 404657, Note_off_c, 0, 51, 64
2, 404660, Note_off_c, 0, 61, 64
2, 404663, Note_off_c, 0, 63, 64
2, 404680, Note_on_c, 0, 73, 54
2, 404690, Note_off_c, 0, 70, 64
2, 404707, Control_c, 0, 64, 0
2, 404728, Note_off_c, 0, 73, 64
2, 404733, Control_c, 0, 64, 127
2, 404741, Note_on_c, 0, 65, 50
2, 404741, Note_on_c, 0, 51, 37
2, 404743, Note_on_c, 0, 63, 36
2, 404743, Note_on_c, 0, 61, 36
2, 404787, Note_off_c, 0, 51, 64
2, 404789, Note_off_c, 0, 61, 64
2, 404789, Note_off_c, 0, 63, 64
2, 404810, Note_on_c, 0, 67, 50
2, 404833, Note_off_c, 0, 65, 64
2, 404862, Note_on_c, 0, 68, 59
2, 404863, Control_c, 0, 64, 0
2, 404866, Note_on_c, 0, 56, 35
2, 404870, Note_on_c, 0, 63, 48
2, 404870, Note_on_c, 0, 60, 45
2, 404894, Note_off_c, 0, 67, 64
2, 404958, Control_c, 0, 64, 127
2, 405006, Note_off_c, 0, 68, 64
2, 405010, Note_off_c, 0, 56, 64
2, 405014, Note_off_c, 0, 60, 64
2, 405014, Note_off_c, 0, 63, 64
2, 405200, Note_on_c, 0, 78, 50
2, 405203, Note_on_c, 0, 66, 52
2, 405209, Note_on_c, 0, 49, 40
2, 405212, Note_on_c, 0, 60, 39
2, 405212, Note_on_c, 0, 56, 36
2, 405236, Note_off_c, 0, 49, 64
2, 405236, Control_c, 0, 64, 127
2, 405239, Note_off_c, 0, 56, 64
2, 405239, Note_off_c, 0, 60, 64
2, 405255, Note_on_c, 0, 77, 46
2, 405268, Note_off_c, 0, 66, 64
2, 405286, Note_off_c, 0, 78, 64
2, 405298, Control_c, 0, 64, 0
2, 405321, Note_on_c, 0, 75, 28
2, 405325, Control_c, 0, 64, 127
2, 405331, Note_off_c, 0, 77, 64
2, 405334, Note_on_c, 0, 56, 35
2, 405336, Note_on_c, 0, 60, 44
2, 405337, Note_on_c, 0, 49, 39
2, 405344, Note_on_c, 0, 66, 54
2, 405361, Note_off_c, 0, 56, 64
2, 405363, Note_off_c, 0, 60, 64
2, 405364, Note_off_c, 0, 49, 64
2, 405383, Note_on_c, 0, 77, 49
2, 405392, Note_off_c, 0, 75, 64
2, 405401, Note_off_c, 0, 66, 64
2, 405445, Control_c, 0, 64, 0
2, 405452, Note_on_c, 0, 73, 65
2, 405453, Note_off_c, 0, 77, 64
2, 405458, Note_on_c, 0, 65, 74
2, 405458, Note_on_c, 0, 61, 46
2, 405458, Note_on_c, 0, 56, 27
2, 405458, Note_on_c, 0, 49, 42
2, 405480, Control_c, 0, 64, 127
2, 405485, Note_off_c, 0, 49, 64
2, 405485, Note_off_c, 0, 56, 64
2, 405485, Note_off_c, 0, 61, 64
2, 405487, Note_off_c, 0, 65, 64
2, 405534, Note_off_c, 0, 73, 64
2, 405572, Control_c, 0, 64, 0
2, 405579, Note_on_c, 0, 70, 62
2, 405579, Note_on_c, 0, 67, 62
2, 405582, Note_on_c, 0, 63, 44
2, 405589, Note_on_c, 0, 58, 49
2, 405592, Note_on_c, 0, 49, 23
2, 405608, Control_c, 0, 64, 127
2, 405609, Note_off_c, 0, 63, 64
2, 405616, Note_off_c, 0, 58, 64
2, 405619, Note_off_c, 0, 49, 64
2, 405625, Note_off_c, 0, 67, 64
2, 405634, Note_on_c, 0, 75, 58
2, 405650, Note_off_c, 0, 70, 64
2, 405689, Control_c, 0, 64, 0
2, 405694, Note_on_c, 0, 66, 62
2, 405698, Note_on_c, 0, 63, 44
2, 405699, Note_on_c, 0, 70, 65
2, 405702, Note_on_c, 0, 57, 58
2, 405703, Note_on_c, 0, 49, 39
2, 405706, Note_off_c, 0, 75, 64
2, 405709, Control_c, 0, 64, 127
2, 405725, Note_off_c, 0, 63, 64
2, 405729, Note_off_c, 0, 57, 64
2, 405730, Note_off_c, 0, 49, 64
2, 405748, Note_off_c, 0, 66, 64
2, 405762, Note_on_c, 0, 72, 54
2, 405775, Note_off_c, 0, 70, 64
2, 405816, Control_c, 0, 64, 0
2, 405822, Note_on_c, 0, 66, 58
2, 405824, Note_on_c, 0, 68, 70
2, 405826, Note_on_c, 0, 60, 44
2, 405826, Note_on_c, 0, 49, 36
2, 405828, Note_on_c, 0, 56, 58
2, 405833, Note_off_c, 0, 72, 64
2, 405848, Control_c, 0, 64, 127
2, 405853, Note_off_c, 0, 49, 64
2, 405853, Note_off_c, 0, 60, 64
2, 405855, Note_off_c, 0, 56, 64
2, 405867, Note_off_c, 0, 66, 64
2, 405890, Note_off_c, 0, 68, 64
2, 405942, Control_c, 0, 64, 0
2, 405956, Note_on_c, 0, 49, 44
2, 405959, Note_on_c, 0, 56, 49
2, 405961, Note_on_c, 0, 78, 50
2, 405961, Note_on_c, 0, 66, 67
2, 405961, Note_on_c, 0, 60, 46
2, 405972, Control_c, 0, 64, 127
2, 405983, Note_off_c, 0, 49, 64
2, 405986, Note_off_c, 0, 56, 64
2, 405988, Note_off_c, 0, 60, 64
2, 406017, Note_on_c, 0, 77, 49
2, 406027, Note_off_c, 0, 66, 64
2, 406047, Note_off_c, 0, 78, 64
2, 406060, Control_c, 0, 64, 0
2, 406074, Note_on_c, 0, 56, 35
2, 406077, Note_on_c, 0, 75, 40
2, 406078, Note_on_c, 0, 60, 44
2, 406078, Note_on_c, 0, 66, 71
2, 406079, Control_c, 0, 64, 127
2, 406082, Note_on_c, 0, 49, 44
2, 406097, Note_off_c, 0, 77, 64
2, 406101, Note_off_c, 0, 56, 64
2, 406105, Note_off_c, 0, 60, 64
2, 406109, Note_off_c, 0, 49, 64
2, 406125, Note_off_c, 0, 66, 64
2, 406126, Note_on_c, 0, 77, 53
2, 406165, Note_off_c, 0, 75, 64
2, 406180, Control_c, 0, 64, 0
2, 406200, Note_on_c, 0, 65, 74
2, 406204, Note_on_c, 0, 73, 58
2, 406204, Note_on_c, 0, 49, 44
2, 406206, Note_on_c, 0, 61, 39
2, 406208, Note_on_c, 0, 56, 46
2, 406210, Note_off_c, 0, 77, 64
2, 406214, Control_c, 0, 64, 127
2, 406231, Note_off_c, 0, 49, 64
2, 406233, Note_off_c, 0, 61, 64
2, 406235, Note_off_c, 0, 56, 64
2, 406243, Note_off_c, 0, 65, 64
2, 406286, Note_off_c, 0, 73, 64
2, 406313, Control_c, 0, 64, 0
2, 406325, Note_on_c, 0, 70, 55
2, 406326, Note_on_c, 0, 67, 58
2, 406326, Note_on_c, 0, 58, 44
2, 406328, Note_on_c, 0, 63, 50
2, 406330, Note_on_c, 0, 49, 19
2, 406350, Control_c, 0, 64, 127
2, 406353, Note_off_c, 0, 58, 64
2, 406355, Note_off_c, 0, 63, 64
2, 406357, Note_off_c, 0, 49, 64
2, 406376, Note_off_c, 0, 67, 64
2, 406383, Note_on_c, 0, 75, 58
2, 406399, Note_off_c, 0, 70, 64
2, 406432, Control_c, 0, 64, 0
2, 406442, Note_on_c, 0, 68, 65
2, 406443, Note_on_c, 0, 66, 61
2, 406446, Note_on_c, 0, 63, 46
2, 406446, Note_on_c, 0, 56, 28
2, 406447, Note_on_c, 0, 49, 40
2, 406459, Note_off_c, 0, 75, 64
2, 406463, Control_c, 0, 64, 127
2, 406473, Note_off_c, 0, 56, 64
2, 406473, Note_off_c, 0, 63, 64
2, 406474, Note_off_c, 0, 49, 64
2, 406488, Note_off_c, 0, 66, 64
2, 406502, Note_on_c, 0, 72, 52
2, 406524, Note_off_c, 0, 68, 64
2, 406554, Control_c, 0, 64, 0
2, 406570, Note_on_c, 0, 61, 46
2, 406570, Note_on_c, 0, 56, 28
2, 406570, Note_on_c, 0, 49, 41
2, 406571, Note_on_c, 0, 73, 54
2, 406571, Note_on_c, 0, 65, 55
2, 406586, Note_off_c, 0, 72, 64
2, 406597, Note_off_c, 0, 49, 64
2, 406597, Note_off_c, 0, 56, 64
2, 406597, Note_off_c, 0, 61, 64
2, 406600, Control_c, 0, 64, 127
2, 406611, Note_off_c, 0, 65, 64
2, 406660, Note_off_c, 0, 73, 64
2, 406754, Control_c, 0, 64, 0
2, 406771, Note_on_c, 0, 78, 48
2, 406772, Note_on_c, 0, 60, 44
2, 406774, Note_on_c, 0, 56, 46
2, 406774, Note_on_c, 0, 49, 42
2, 406775, Note_on_c, 0, 66, 44
2, 406793, Note_off_c, 0, 78, 64
2, 406842, Note_on_c, 0, 77, 53
2, 406864, Note_off_c, 0, 77, 64
2, 406902, Control_c, 0, 64, 127
2, 406903, Note_off_c, 0, 60, 64
2, 406905, Note_off_c, 0, 49, 64
2, 406905, Note_off_c, 0, 56, 64
2, 406908, Note_on_c, 0, 56, 40
2, 406910, Note_on_c, 0, 60, 42
2, 406913, Note_on_c, 0, 49, 35
2, 406916, Note_off_c, 0, 66, 64
2, 406919, Note_on_c, 0, 66, 46
2, 406919, Note_on_c, 0, 75, 37
2, 406941, Note_off_c, 0, 75, 64
2, 406966, Note_on_c, 0, 77, 45
2, 406988, Note_off_c, 0, 77, 64
2, 407007, Control_c, 0, 64, 0
2, 407020, Note_off_c, 0, 49, 64
2, 407023, Note_off_c, 0, 56, 64
2, 407029, Note_on_c, 0, 49, 40
2, 407031, Note_on_c, 0, 65, 42
2, 407032, Note_on_c, 0, 56, 46
2, 407034, Note_on_c, 0, 61, 46
2, 407040, Note_off_c, 0, 66, 64
2, 407043, Note_off_c, 0, 60, 64
2, 407044, Note_on_c, 0, 73, 29
2, 407052, Control_c, 0, 64, 127
2, 407066, Note_off_c, 0, 73, 64
2, 407086, Note_on_c, 0, 68, 58
2, 407108, Note_off_c, 0, 68, 64
2, 407131, Note_off_c, 0, 49, 64
2, 407146, Note_on_c, 0, 63, 48
2, 407147, Note_off_c, 0, 56, 64
2, 407150, Note_on_c, 0, 67, 35
2, 407150, Note_on_c, 0, 58, 31
2, 407150, Note_on_c, 0, 49, 44
2, 407153, Note_on_c, 0, 70, 62
2, 407153, Control_c, 0, 64, 0
2, 407165, Note_off_c, 0, 61, 64
2, 407166, Note_off_c, 0, 65, 64
2, 407175, Note_off_c, 0, 70, 64
2, 407183, Control_c, 0, 64, 127
2, 407212, Note_on_c, 0, 75, 58
2, 407234, Note_off_c, 0, 75, 64
2, 407255, Control_c, 0, 64, 0
2, 407256, Note_off_c, 0, 49, 64
2, 407267, Note_off_c, 0, 63, 64
2, 407268, Note_on_c, 0, 70, 61
2, 407269, Note_on_c, 0, 66, 50
2, 407270, Note_on_c, 0, 63, 54
2, 407270, Note_on_c, 0, 57, 22
2, 407270, Note_on_c, 0, 49, 32
2, 407281, Note_off_c, 0, 58, 64
2, 407281, Note_off_c, 0, 67, 64
2, 407288, Control_c, 0, 64, 127
2, 407290, Note_off_c, 0, 70, 64
2, 407331, Note_on_c, 0, 72, 48
2, 407353, Note_off_c, 0, 72, 64
2, 407387, Note_off_c, 0, 66, 64
2, 407391, Note_off_c, 0, 63, 64
2, 407393, Control_c, 0, 64, 0
2, 407396, Note_off_c, 0, 49, 64
2, 407400, Note_on_c, 0, 68, 70
2, 407400, Note_on_c, 0, 66, 48
2, 407400, Note_on_c, 0, 49, 42
2, 407403, Note_on_c, 0, 56, 46
2, 407404, Note_on_c, 0, 63, 44
2, 407407, Note_off_c, 0, 57, 64
2, 407416, Control_c, 0, 64, 127
2, 407422, Note_off_c, 0, 68, 64
2, 407468, Note_on_c, 0, 80, 62
2, 407490, Note_off_c, 0, 80, 64
2, 407530, Note_off_c, 0, 49, 64
2, 407534, Note_off_c, 0, 56, 64
2, 407535, Note_off_c, 0, 63, 64
2, 407538, Note_on_c, 0, 49, 40
2, 407540, Note_on_c, 0, 60, 44
2, 407540, Note_on_c, 0, 56, 44
2, 407542, Note_on_c, 0, 78, 66
2, 407547, Note_off_c, 0, 66, 64
2, 407549, Note_on_c, 0, 66, 52
2, 407564, Note_off_c, 0, 78, 64
2, 407604, Note_on_c, 0, 77, 53
2, 407626, Note_off_c, 0, 77, 64
2, 407659, Note_off_c, 0, 49, 64
2, 407661, Note_off_c, 0, 56, 64
2, 407661, Note_off_c, 0, 60, 64
2, 407662, Note_on_c, 0, 49, 44
2, 407663, Note_off_c, 0, 66, 64
2, 407664, Note_on_c, 0, 56, 44
2, 407665, Note_on_c, 0, 75, 49
2, 407665, Note_on_c, 0, 60, 46
2, 407668, Note_on_c, 0, 66, 44
2, 407687, Note_off_c, 0, 75, 64
2, 407730, Note_on_c, 0, 77, 58
2, 407752, Note_off_c, 0, 77, 64
2, 407772, Control_c, 0, 64, 0
2, 407783, Note_off_c, 0, 49, 64
2, 407784, Note_on_c, 0, 49, 40
2, 407785, Note_off_c, 0, 56, 64
2, 407786, Note_off_c, 0, 60, 64
2, 407788, Note_on_c, 0, 65, 40
2, 407788, Note_on_c, 0, 61, 46
2, 407788, Note_on_c, 0, 56, 46
2, 407789, Note_off_c, 0, 66, 64
2, 407790, Note_on_c, 0, 73, 55
2, 407809, Control_c, 0, 64, 127
2, 407812, Note_off_c, 0, 73, 64
2, 407868, Note_on_c, 0, 68, 62
2, 407890, Note_off_c, 0, 68, 64
2, 407905, Note_off_c, 0, 49, 64
2, 407909, Note_off_c, 0, 56, 64
2, 407909, Note_off_c, 0, 61, 64
2, 407909, Note_off_c, 0, 65, 64
2, 407948, Note_on_c, 0, 63, 50
2, 407948, Note_on_c, 0, 67, 50
2, 407950, Note_on_c, 0, 49, 39
2, 407950, Note_on_c, 0, 58, 39
2, 407952, Note_on_c, 0, 70, 74
2, 407974, Note_off_c, 0, 70, 64
2, 408010, Control_c, 0, 64, 0
2, 408026, Note_on_c, 0, 75, 66
2, 408034, Control_c, 0, 64, 127
2, 408048, Note_off_c, 0, 75, 64
2, 408050, Note_off_c, 0, 49, 64
2, 408069, Note_off_c, 0, 67, 64
2, 408069, Note_off_c, 0, 63, 64
2, 408071, Note_off_c, 0, 58, 64
2, 408092, Note_on_c, 0, 68, 80
2, 408092, Note_on_c, 0, 66, 57
2, 408092, Note_on_c, 0, 49, 41
2, 408094, Note_on_c, 0, 63, 53
2, 408094, Note_on_c, 0, 56, 42
2, 408114, Note_off_c, 0, 68, 64
2, 408196, Note_on_c, 0, 72, 52
2, 408213, Note_off_c, 0, 49, 64
2, 408213, Note_off_c, 0, 66, 64
2, 408215, Note_off_c, 0, 56, 64
2, 408215, Note_off_c, 0, 63, 64
2, 408218, Note_off_c, 0, 72, 64
2, 408255, Control_c, 0, 64, 127
2, 408305, Note_on_c, 0, 65, 48
2, 408306, Note_on_c, 0, 49, 52
2, 408308, Note_on_c, 0, 73, 78
2, 408308, Note_on_c, 0, 56, 45
2, 408330, Control_c, 0, 64, 0
2, 408353, Control_c, 0, 64, 127
2, 408373, Note_off_c, 0, 65, 64
2, 408374, Note_off_c, 0, 49, 64
2, 408376, Note_off_c, 0, 56, 64
2, 408376, Note_off_c, 0, 73, 64
2, 408622, Note_on_c, 0, 64, 44
2, 408622, Note_on_c, 0, 73, 39
2, 408627, Note_on_c, 0, 45, 44
2, 408627, Note_on_c, 0, 57, 44
2, 408628, Note_on_c, 0, 76, 44
2, 408655, Control_c, 0, 64, 0
2, 408700, Control_c, 0, 64, 127
2, 408707, Note_on_c, 0, 71, 39
2, 408715, Note_on_c, 0, 74, 39
2, 408716, Note_off_c, 0, 76, 64
2, 408728, Note_off_c, 0, 73, 64
2, 408784, Note_on_c, 0, 69, 39
2, 408791, Note_on_c, 0, 73, 44
2, 408804, Note_off_c, 0, 71, 64
2, 408807, Note_off_c, 0, 74, 64
2, 408807, Control_c, 0, 64, 0
2, 408851, Control_c, 0, 64, 127
2, 408977, Note_off_c, 0, 57, 64
2, 409001, Note_off_c, 0, 69, 64
2, 409006, Note_on_c, 0, 50, 39
2, 409011, Note_on_c, 0, 57, 39
2, 409013, Note_off_c, 0, 64, 64
2, 409017, Note_off_c, 0, 45, 64
2, 409017, Note_on_c, 0, 69, 44
2, 409017, Note_on_c, 0, 66, 45
2, 409018, Note_on_c, 0, 78, 39
2, 409030, Note_off_c, 0, 73, 64
2, 409060, Control_c, 0, 64, 0
2, 409092, Control_c, 0, 64, 127
2, 409251, Note_off_c, 0, 57, 64
2, 409266, Note_on_c, 0, 57, 37
2, 409267, Note_on_c, 0, 64, 39
2, 409270, Note_on_c, 0, 73, 40
2, 409273, Note_on_c, 0, 76, 40
2, 409273, Note_on_c, 0, 45, 35
2, 409301, Note_off_c, 0, 50, 64
2, 409312, Note_off_c, 0, 66, 64
2, 409312, Note_off_c, 0, 69, 64
2, 409313, Note_off_c, 0, 78, 64
2, 409318, Control_c, 0, 64, 0
2, 409380, Control_c, 0, 64, 127
2, 409727, Note_off_c, 0, 73, 64
2, 409757, Note_on_c, 0, 73, 42
2, 409757, Note_on_c, 0, 69, 39
2, 409776, Note_off_c, 0, 76, 64
2, 409862, Note_off_c, 0, 45, 64
2, 409866, Note_off_c, 0, 57, 64
2, 409900, Note_off_c, 0, 69, 64
2, 409902, Note_off_c, 0, 73, 64
2, 409911, Note_off_c, 0, 64, 64
2, 410066, Note_on_c, 0, 76, 39
2, 410066, Note_on_c, 0, 73, 39
2, 410070, Note_on_c, 0, 57, 37
2, 410074, Note_on_c, 0, 64, 37
2, 410142, Note_on_c, 0, 74, 39
2, 410142, Note_on_c, 0, 71, 42
2, 410157, Note_off_c, 0, 73, 64
2, 410160, Note_off_c, 0, 76, 64
2, 410216, Note_on_c, 0, 69, 39
2, 410221, Note_on_c, 0, 73, 48
2, 410235, Control_c, 0, 64, 0
2, 410241, Note_off_c, 0, 71, 64
2, 410241, Note_off_c, 0, 74, 64
2, 410251, Control_c, 0, 64, 127
2, 410501, Note_off_c, 0, 57, 64
2, 410505, Note_off_c, 0, 69, 64
2, 410514, Note_on_c, 0, 66, 37
2, 410514, Note_on_c, 0, 69, 39
2, 410522, Note_on_c, 0, 78, 35
2, 410525, Note_on_c, 0, 57, 28
2, 410526, Note_on_c, 0, 50, 35
2, 410530, Note_off_c, 0, 64, 64
2, 410537, Note_off_c, 0, 73, 64
2, 410568, Control_c, 0, 64, 0
2, 410604, Control_c, 0, 64, 127
2, 411004, Note_off_c, 0, 69, 64
2, 411006, Note_on_c, 0, 73, 35
2, 411007, Note_on_c, 0, 64, 35
2, 411010, Note_on_c, 0, 76, 39
2, 411011, Note_off_c, 0, 57, 64
2, 411016, Note_on_c, 0, 69, 39
2, 411016, Note_on_c, 0, 57, 32
2, 411021, Note_on_c, 0, 45, 26
2, 411030, Note_off_c, 0, 66, 64
2, 411038, Note_off_c, 0, 78, 64
2, 411042, Note_off_c, 0, 50, 64
2, 411118, Control_c, 0, 64, 0
2, 411211, Control_c, 0, 64, 127
2, 411727, Note_off_c, 0, 64, 64
2, 411744, Note_on_c, 0, 70, 57
2, 411746, Note_on_c, 0, 55, 48
2, 411746, Note_on_c, 0, 61, 45
2, 411748, Note_on_c, 0, 64, 49
2, 411772, Note_off_c, 0, 73, 64
2, 411774, Control_c, 0, 64, 0
2, 411778, Note_off_c, 0, 76, 64
2, 411782, Note_off_c, 0, 57, 64
2, 411782, Note_off_c, 0, 69, 64
2, 411787, Note_off_c, 0, 45, 64
2, 411829, Control_c, 0, 64, 127
2, 411968, Note_on_c, 0, 56, 32
2, 411970, Note_on_c, 0, 63, 37
2, 411970, Note_on_c, 0, 60, 31
2, 411973, Note_on_c, 0, 68, 48
2, 411975, Control_c, 0, 64, 0
2, 411993, Control_c, 0, 64, 127
2, 411996, Note_off_c, 0, 70, 64
2, 411998, Note_off_c, 0, 61, 64
2, 411998, Note_off_c, 0, 55, 64
2, 412000, Note_off_c, 0, 64, 64
2, 412014, Note_off_c, 0, 56, 64
2, 412016, Note_off_c, 0, 60, 64
2, 412016, Note_off_c, 0, 63, 64
2, 412021, Note_on_c, 0, 70, 49
2, 412027, Note_off_c, 0, 68, 64
2, 412065, Note_on_c, 0, 68, 50
2, 412075, Control_c, 0, 64, 0
2, 412080, Note_off_c, 0, 70, 64
2, 412100, Note_on_c, 0, 67, 42
2, 412100, Note_on_c, 0, 64, 44
2, 412103, Note_on_c, 0, 61, 45
2, 412103, Note_on_c, 0, 56, 44
2, 412117, Note_off_c, 0, 68, 64
2, 412122, Control_c, 0, 64, 127
2, 412146, Note_off_c, 0, 64, 64
2, 412149, Note_off_c, 0, 56, 64
2, 412149, Note_off_c, 0, 61, 64
2, 412165, Note_on_c, 0, 68, 50
2, 412174, Note_off_c, 0, 67, 64
2, 412192, Control_c, 0, 64, 0
2, 412215, Control_c, 0, 64, 127
2, 412218, Note_on_c, 0, 56, 28
2, 412222, Note_on_c, 0, 64, 35
2, 412222, Note_on_c, 0, 61, 28
2, 412230, Note_on_c, 0, 70, 44
2, 412249, Note_off_c, 0, 68, 64
2, 412264, Note_off_c, 0, 56, 64
2, 412268, Note_off_c, 0, 61, 64
2, 412268, Note_off_c, 0, 64, 64
2, 412276, Note_on_c, 0, 72, 50
2, 412298, Note_off_c, 0, 70, 64
2, 412316, Control_c, 0, 64, 0
2, 412326, Note_on_c, 0, 55, 44
2, 412330, Note_on_c, 0, 64, 44
2, 412330, Note_on_c, 0, 58, 44
2, 412338, Note_on_c, 0, 73, 55
2, 412349, Note_off_c, 0, 72, 64
2, 412349, Control_c, 0, 64, 127
2, 412372, Note_off_c, 0, 55, 64
2, 412376, Note_off_c, 0, 58, 64
2, 412376, Note_off_c, 0, 64, 64
2, 412376, Note_on_c, 0, 75, 54
2, 412388, Note_off_c, 0, 73, 64
2, 412402, Note_on_c, 0, 73, 54
2, 412424, Control_c, 0, 64, 0
2, 412425, Note_off_c, 0, 75, 64
2, 412451, Note_on_c, 0, 72, 61
2, 412451, Note_on_c, 0, 56, 44
2, 412453, Control_c, 0, 64, 127
2, 412458, Note_on_c, 0, 63, 45
2, 412458, Note_on_c, 0, 60, 44
2, 412463, Note_off_c, 0, 73, 64
2, 412497, Note_off_c, 0, 56, 64
2, 412504, Note_off_c, 0, 60, 64
2, 412504, Note_off_c, 0, 63, 64
2, 412510, Note_on_c, 0, 73, 58
2, 412517, Note_off_c, 0, 72, 64
2, 412532, Control_c, 0, 64, 0
2, 412555, Control_c, 0, 64, 127
2, 412586, Note_on_c, 0, 75, 65
2, 412586, Note_on_c, 0, 63, 44
2, 412586, Note_on_c, 0, 58, 36
2, 412586, Note_on_c, 0, 55, 40
2, 412593, Note_off_c, 0, 73, 64
2, 412632, Note_off_c, 0, 55, 64
2, 412632, Note_off_c, 0, 58, 64
2, 412632, Note_off_c, 0, 63, 64
2, 412672, Note_off_c, 0, 75, 64
2, 412708, Note_on_c, 0, 56, 54
2, 412714, Note_on_c, 0, 53, 50
2, 412714, Note_on_c, 0, 61, 54
2, 412714, Note_on_c, 0, 65, 53
2, 412714, Note_on_c, 0, 80, 65
2, 412716, Control_c, 0, 64, 0
2, 412762, Control_c, 0, 64, 127
2, 412794, Note_off_c, 0, 56, 64
2, 412800, Note_off_c, 0, 80, 64
2, 412800, Note_off_c, 0, 65, 64
2, 412800, Note_off_c, 0, 61, 64
2, 412800, Note_off_c, 0, 53, 64
2, 412832, Note_on_c, 0, 73, 52
2, 412855, Control_c, 0, 64, 0
2, 412866, Note_on_c, 0, 63, 36
2, 412866, Note_on_c, 0, 56, 32
2, 412866, Note_on_c, 0, 51, 37
2, 412876, Note_on_c, 0, 72, 49
2, 412895, Note_off_c, 0, 73, 64
2, 412897, Control_c, 0, 64, 127
2, 412912, Note_off_c, 0, 51, 64
2, 412912, Note_off_c, 0, 56, 64
2, 412912, Note_off_c, 0, 63, 64
2, 412946, Note_on_c, 0, 75, 42
2, 412952, Note_off_c, 0, 72, 64
2, 412959, Control_c, 0, 64, 0
2, 412984, Control_c, 0, 64, 127
2, 412996, Note_on_c, 0, 51, 41
2, 412998, Note_on_c, 0, 60, 32
2, 413000, Note_on_c, 0, 68, 55
2, 413000, Note_on_c, 0, 63, 40
2, 413008, Note_off_c, 0, 75, 64
2, 413042, Note_off_c, 0, 51, 64
2, 413044, Note_off_c, 0, 60, 64
2, 413046, Note_off_c, 0, 63, 64
2, 413051, Note_on_c, 0, 69, 49
2, 413059, Note_off_c, 0, 68, 64
2, 413077, Control_c, 0, 64, 0
2, 413100, Control_c, 0, 64, 127
2, 413106, Note_on_c, 0, 51, 37
2, 413109, Note_on_c, 0, 63, 40
2, 413109, Note_on_c, 0, 61, 37
2, 413110, Note_on_c, 0, 70, 50
2, 413120, Note_off_c, 0, 69, 64
2, 413152, Note_off_c, 0, 51, 64
2, 413155, Note_off_c, 0, 61, 64
2, 413155, Note_off_c, 0, 63, 64
2, 413165, Note_on_c, 0, 73, 50
2, 413171, Note_off_c, 0, 70, 64
2, 413202, Control_c, 0, 64, 0
2, 413224, Note_on_c, 0, 51, 32
2, 413228, Note_on_c, 0, 65, 55
2, 413228, Note_on_c, 0, 63, 37
2, 413228, Note_on_c, 0, 61, 36
2, 413236, Control_c, 0, 64, 127
2, 413246, Note_off_c, 0, 73, 64
2, 413270, Note_off_c, 0, 51, 64
2, 413274, Note_off_c, 0, 61, 64
2, 413274, Note_off_c, 0, 63, 64
2, 413282, Note_on_c, 0, 67, 54
2, 413293, Note_off_c, 0, 65, 64
2, 413325, Control_c, 0, 64, 0
2, 413341, Note_on_c, 0, 68, 67
2, 413344, Note_on_c, 0, 60, 28
2, 413346, Note_on_c, 0, 63, 44
2, 413346, Note_on_c, 0, 56, 36
2, 413364, Note_off_c, 0, 67, 64
2, 413370, Control_c, 0, 64, 127
2, 413390, Note_off_c, 0, 60, 64
2, 413392, Note_off_c, 0, 56, 64
2, 413392, Note_off_c, 0, 63, 64
2, 413444, Control_c, 0, 64, 0
2, 413490, Note_on_c, 0, 63, 36
2, 413490, Note_on_c, 0, 60, 26
2, 413490, Note_on_c, 0, 56, 36
2, 413499, Control_c, 0, 64, 127
2, 413532, Note_on_c, 0, 70, 45
2, 413536, Note_off_c, 0, 56, 64
2, 413536, Note_off_c, 0, 60, 64
2, 413536, Note_off_c, 0, 63, 64
2, 413552, Note_off_c, 0, 68, 64
2, 413572, Note_on_c, 0, 68, 66
2, 413584, Control_c, 0, 64, 0
2, 413598, Note_off_c, 0, 70, 64
2, 413604, Note_on_c, 0, 67, 61
2, 413608, Note_on_c, 0, 64, 50
2, 413608, Note_on_c, 0, 61, 45
2, 413608, Note_on_c, 0, 56, 41
2, 413613, Control_c, 0, 64, 127
2, 413628, Note_off_c, 0, 68, 64
2, 413654, Note_off_c, 0, 56, 64
2, 413654, Note_off_c, 0, 61, 64
2, 413654, Note_off_c, 0, 64, 64
2, 413669, Note_off_c, 0, 67, 64
2, 413673, Note_on_c, 0, 68, 62
2, 413698, Control_c, 0, 64, 0
2, 413722, Note_on_c, 0, 61, 39
2, 413722, Note_on_c, 0, 64, 35
2, 413722, Note_on_c, 0, 70, 59
2, 413725, Note_on_c, 0, 56, 36
2, 413726, Control_c, 0, 64, 127
2, 413739, Note_off_c, 0, 68, 64
2, 413768, Note_off_c, 0, 64, 64
2, 413768, Note_off_c, 0, 61, 64
2, 413771, Note_off_c, 0, 56, 64
2, 413778, Note_on_c, 0, 72, 63
2, 413787, Note_off_c, 0, 70, 64
2, 413813, Control_c, 0, 64, 0
2, 413832, Note_on_c, 0, 64, 52
2, 413832, Note_on_c, 0, 55, 50
2, 413833, Note_on_c, 0, 58, 52
2, 413834, Note_on_c, 0, 73, 63
2, 413843, Control_c, 0, 64, 127
2, 413853, Note_off_c, 0, 72, 64
2, 413869, Note_on_c, 0, 75, 66
2, 413878, Note_off_c, 0, 55, 64
2, 413878, Note_off_c, 0, 64, 64
2, 413879, Note_off_c, 0, 58, 64
2, 413891, Note_off_c, 0, 73, 64
2, 413910, Note_on_c, 0, 73, 62
2, 413924, Note_off_c, 0, 75, 64
2, 413934, Note_on_c, 0, 56, 36
2, 413935, Note_on_c, 0, 63, 39
2, 413936, Note_on_c, 0, 72, 63
2, 413936, Note_on_c, 0, 60, 37
2, 413952, Note_off_c, 0, 73, 64
2, 413980, Note_off_c, 0, 56, 64
2, 413981, Note_off_c, 0, 63, 64
2, 413982, Note_off_c, 0, 60, 64
2, 413985, Note_off_c, 0, 72, 64
2, 413988, Note_on_c, 0, 73, 66
2, 414004, Note_off_c, 0, 73, 64
2, 414016, Note_on_c, 0, 73, 63
2, 414027, Control_c, 0, 64, 0
2, 414038, Note_off_c, 0, 73, 64
2, 414046, Note_on_c, 0, 58, 27
2, 414046, Note_on_c, 0, 55, 39
2, 414048, Note_on_c, 0, 74, 65
2, 414048, Note_on_c, 0, 63, 40
2, 414073, Control_c, 0, 64, 127
2, 414085, Note_on_c, 0, 75, 71
2, 414092, Note_off_c, 0, 74, 64
2, 414092, Note_off_c, 0, 55, 64
2, 414092, Note_off_c, 0, 58, 64
2, 414094, Note_off_c, 0, 63, 64
2, 414104, Note_off_c, 0, 75, 64
2, 414148, Note_on_c, 0, 75, 74
2, 414190, Note_on_c, 0, 65, 57
2, 414192, Note_on_c, 0, 80, 94
2, 414192, Note_on_c, 0, 61, 57
2, 414192, Note_on_c, 0, 56, 50
2, 414192, Note_on_c, 0, 53, 61
2, 414207, Note_off_c, 0, 75, 64
2, 414220, Control_c, 0, 64, 0
2, 414248, Control_c, 0, 64, 127
2, 414314, Note_off_c, 0, 65, 64
2, 414316, Note_off_c, 0, 53, 64
2, 414316, Note_off_c, 0, 56, 64
2, 414316, Note_off_c, 0, 61, 64
2, 414316, Note_off_c, 0, 80, 64
2, 414428, Note_on_c, 0, 73, 40
2, 414444, Control_c, 0, 64, 0
2, 414468, Note_on_c, 0, 72, 57
2, 414468, Note_on_c, 0, 63, 49
2, 414468, Note_on_c, 0, 56, 45
2, 414468, Note_on_c, 0, 51, 49
2, 414492, Note_off_c, 0, 73, 64
2, 414498, Control_c, 0, 64, 127
2, 414501, Note_off_c, 0, 51, 64
2, 414502, Note_off_c, 0, 63, 64
2, 414514, Note_off_c, 0, 56, 64
2, 414525, Note_on_c, 0, 75, 50
2, 414556, Note_off_c, 0, 72, 64
2, 414588, Note_on_c, 0, 68, 70
2, 414596, Note_on_c, 0, 60, 52
2, 414599, Note_on_c, 0, 63, 53
2, 414604, Note_on_c, 0, 51, 49
2, 414607, Note_off_c, 0, 75, 64
2, 414630, Note_off_c, 0, 51, 64
2, 414633, Note_off_c, 0, 63, 64
2, 414637, Note_off_c, 0, 60, 64
2, 414639, Note_on_c, 0, 69, 62
2, 414656, Note_off_c, 0, 68, 64
2, 414685, Control_c, 0, 64, 0
2, 414707, Note_on_c, 0, 51, 49
2, 414707, Note_on_c, 0, 70, 58
2, 414711, Note_on_c, 0, 61, 53
2, 414711, Note_on_c, 0, 63, 54
2, 414717, Note_off_c, 0, 69, 64
2, 414727, Control_c, 0, 64, 127
2, 414745, Note_off_c, 0, 63, 64
2, 414747, Note_off_c, 0, 51, 64
2, 414753, Note_off_c, 0, 61, 64
2, 414767, Note_on_c, 0, 73, 67
2, 414781, Note_off_c, 0, 70, 64
2, 414823, Control_c, 0, 64, 0
2, 414828, Note_on_c, 0, 63, 54
2, 414828, Note_on_c, 0, 51, 52
2, 414829, Note_on_c, 0, 65, 75
2, 414831, Note_on_c, 0, 61, 49
2, 414845, Control_c, 0, 64, 127
2, 414853, Note_off_c, 0, 73, 64
2, 414865, Note_off_c, 0, 63, 64
2, 414873, Note_off_c, 0, 51, 64
2, 414881, Note_off_c, 0, 61, 64
2, 414891, Note_on_c, 0, 67, 61
2, 414904, Note_off_c, 0, 65, 64
2, 414964, Note_on_c, 0, 60, 59
2, 414967, Note_on_c, 0, 68, 80
2, 414968, Note_on_c, 0, 63, 71
2, 414972, Note_on_c, 0, 56, 59
2, 414983, Note_off_c, 0, 67, 64
2, 414995, Control_c, 0, 64, 0
2, 415229, Note_off_c, 0, 56, 64
2, 415234, Note_off_c, 0, 63, 64
2, 415241, Note_off_c, 0, 60, 64
2, 415247, Note_off_c, 0, 68, 64
2, 415416, Control_c, 0, 64, 0
2, 415450, Control_c, 0, 64, 0
2, 415496, Control_c, 0, 64, 127
2, 415801, Control_c, 0, 64, 127
2, 416109, Note_on_c, 0, 43, 66
2, 416115, Note_on_c, 0, 55, 66
2, 416139, Note_off_c, 0, 43, 64
2, 416145, Note_off_c, 0, 55, 64
2, 416244, Note_on_c, 0, 55, 66
2, 416244, Note_on_c, 0, 43, 66
2, 416274, Note_off_c, 0, 43, 64
2, 416274, Note_off_c, 0, 55, 64
2, 416379, Note_on_c, 0, 55, 66
2, 416380, Note_on_c, 0, 43, 66
2, 416409, Note_off_c, 0, 55, 64
2, 416410, Note_off_c, 0, 43, 64
2, 416515, Note_on_c, 0, 55, 63
2, 416515, Note_on_c, 0, 43, 63
2, 416545, Note_off_c, 0, 43, 64
2, 416545, Note_off_c, 0, 55, 64
2, 416651, Note_on_c, 0, 43, 57
2, 416655, Note_on_c, 0, 55, 57
2, 416681, Note_off_c, 0, 43, 64
2, 416685, Note_off_c, 0, 55, 64
2, 416792, Note_on_c, 0, 55, 50
2, 416792, Note_on_c, 0, 43, 50
2, 416822, Note_off_c, 0, 43, 64
2, 416822, Note_off_c, 0, 55, 64
2, 416925, Note_on_c, 0, 55, 46
2, 416928, Note_on_c, 0, 43, 46
2, 416955, Note_off_c, 0, 55, 64
2, 416958, Note_off_c, 0, 43, 64
2, 417062, Note_on_c, 0, 55, 41
2, 417075, Note_on_c, 0, 43, 41
2, 417092, Note_off_c, 0, 55, 64
2, 417105, Note_off_c, 0, 43, 64
2, 417204, Note_on_c, 0, 55, 35
2, 417206, Note_on_c, 0, 43, 35
2, 417234, Note_off_c, 0, 55, 64
2, 417236, Note_off_c, 0, 43, 64
2, 417335, Note_on_c, 0, 43, 32
2, 417336, Note_on_c, 0, 55, 32
2, 417365, Note_off_c, 0, 43, 64
2, 417366, Note_off_c, 0, 55, 64
2, 417467, Note_on_c, 0, 55, 26
2, 417473, Note_on_c, 0, 43, 26
2, 417497, Note_off_c, 0, 55, 64
2, 417503, Note_off_c, 0, 43, 64
2, 417584, Note_on_c, 0, 43, 24
2, 417596, Note_on_c, 0, 55, 24
2, 417614, Note_off_c, 0, 43, 64
2, 417626, Note_off_c, 0, 55, 64
2, 417710, Note_on_c, 0, 74, 36
2, 417719, Note_on_c, 0, 59, 31
2, 417722, Note_on_c, 0, 65, 35
2, 417728, Note_on_c, 0, 55, 27
2, 417755, Note_off_c, 0, 74, 64
2, 417757, Note_on_c, 0, 76, 20
2, 417774, Note_off_c, 0, 65, 64
2, 417777, Note_off_c, 0, 55, 64
2, 417778, Note_off_c, 0, 59, 64
2, 417802, Note_on_c, 0, 74, 42
2, 417809, Note_off_c, 0, 76, 64
2, 417827, Control_c, 0, 64, 0
2, 417840, Note_on_c, 0, 67, 44
2, 417840, Note_on_c, 0, 64, 29
2, 417843, Note_on_c, 0, 60, 24
2, 417843, Note_on_c, 0, 55, 16
2, 417855, Note_off_c, 0, 74, 64
2, 417861, Control_c, 0, 64, 127
2, 417884, Note_off_c, 0, 55, 64
2, 417885, Note_off_c, 0, 60, 64
2, 417892, Note_off_c, 0, 64, 64
2, 417961, Note_on_c, 0, 60, 40
2, 417964, Note_on_c, 0, 72, 33
2, 417971, Note_on_c, 0, 64, 35
2, 417975, Note_on_c, 0, 55, 31
2, 417997, Note_off_c, 0, 67, 64
2, 418008, Note_off_c, 0, 55, 64
2, 418020, Note_off_c, 0, 60, 64
2, 418023, Note_off_c, 0, 64, 64
2, 418040, Note_off_c, 0, 72, 64
2, 418046, Note_on_c, 0, 76, 36
2, 418076, Control_c, 0, 64, 0
2, 418081, Note_on_c, 0, 74, 41
2, 418091, Note_off_c, 0, 76, 64
2, 418091, Note_on_c, 0, 55, 29
2, 418095, Note_on_c, 0, 59, 29
2, 418099, Note_on_c, 0, 65, 27
2, 418108, Control_c, 0, 64, 127
2, 418129, Note_off_c, 0, 74, 64
2, 418129, Note_on_c, 0, 76, 40
2, 418141, Note_off_c, 0, 59, 64
2, 418146, Note_off_c, 0, 55, 64
2, 418150, Note_off_c, 0, 65, 64
2, 418168, Note_on_c, 0, 74, 40
2, 418180, Note_off_c, 0, 76, 64
2, 418193, Control_c, 0, 64, 0
2, 418210, Note_on_c, 0, 67, 53
2, 418214, Note_off_c, 0, 74, 64
2, 418219, Note_on_c, 0, 60, 20
2, 418220, Note_on_c, 0, 55, 11
2, 418223, Control_c, 0, 64, 127
2, 418229, Note_on_c, 0, 64, 18
2, 418258, Note_off_c, 0, 55, 64
2, 418262, Note_off_c, 0, 60, 64
2, 418265, Note_off_c, 0, 64, 64
2, 418317, Control_c, 0, 64, 0
2, 418331, Note_on_c, 0, 72, 41
2, 418331, Note_on_c, 0, 60, 45
2, 418334, Note_on_c, 0, 64, 40
2, 418344, Note_on_c, 0, 55, 31
2, 418347, Control_c, 0, 64, 127
2, 418366, Note_off_c, 0, 67, 64
2, 418377, Note_off_c, 0, 55, 64
2, 418383, Note_off_c, 0, 60, 64
2, 418387, Note_off_c, 0, 64, 64
2, 418424, Note_on_c, 0, 76, 40
2, 418432, Note_off_c, 0, 72, 64
2, 418451, Note_on_c, 0, 55, 41
2, 418458, Note_on_c, 0, 65, 44
2, 418458, Note_on_c, 0, 59, 41
2, 418461, Note_on_c, 0, 81, 46
2, 418471, Note_off_c, 0, 76, 64
2, 418497, Note_off_c, 0, 59, 64
2, 418501, Note_off_c, 0, 65, 64
2, 418501, Note_off_c, 0, 55, 64
2, 418570, Note_on_c, 0, 79, 41
2, 418583, Note_on_c, 0, 65, 27
2, 418583, Note_on_c, 0, 59, 31
2, 418587, Note_on_c, 0, 55, 31
2, 418588, Note_off_c, 0, 81, 64
2, 418629, Note_off_c, 0, 59, 64
2, 418633, Note_off_c, 0, 55, 64
2, 418642, Note_off_c, 0, 65, 64
2, 418645, Note_off_c, 0, 79, 64
2, 418684, Note_on_c, 0, 76, 24
2, 418716, Note_on_c, 0, 65, 20
2, 418717, Note_on_c, 0, 77, 46
2, 418720, Note_on_c, 0, 59, 23
2, 418720, Note_on_c, 0, 55, 26
2, 418742, Note_off_c, 0, 76, 64
2, 418750, Note_off_c, 0, 59, 64
2, 418753, Note_off_c, 0, 65, 64
2, 418758, Note_off_c, 0, 55, 64
2, 418778, Note_off_c, 0, 77, 64
2, 418796, Note_on_c, 0, 74, 41
2, 418826, Control_c, 0, 64, 0
2, 418848, Note_on_c, 0, 72, 37
2, 418848, Note_on_c, 0, 48, 36
2, 418850, Note_off_c, 0, 74, 64
2, 418856, Control_c, 0, 64, 127
2, 418884, Note_off_c, 0, 48, 64
2, 418939, Note_off_c, 0, 72, 64
2, 418940, Note_on_c, 0, 76, 35
2, 418956, Note_on_c, 0, 64, 23
2, 418964, Note_on_c, 0, 79, 32
2, 418964, Note_on_c, 0, 60, 27
2, 418964, Note_on_c, 0, 55, 31
2, 418990, Note_off_c, 0, 55, 64
2, 418992, Note_off_c, 0, 76, 64
2, 419003, Note_off_c, 0, 60, 64
2, 419004, Note_off_c, 0, 64, 64
2, 419041, Note_off_c, 0, 79, 64
2, 419044, Note_on_c, 0, 83, 31
2, 419068, Note_on_c, 0, 60, 31
2, 419071, Note_on_c, 0, 86, 55
2, 419076, Note_on_c, 0, 64, 31
2, 419076, Note_on_c, 0, 55, 31
2, 419093, Note_off_c, 0, 83, 64
2, 419111, Note_off_c, 0, 55, 64
2, 419111, Note_off_c, 0, 60, 64
2, 419122, Note_off_c, 0, 64, 64
2, 419133, Note_off_c, 0, 86, 64
2, 419148, Note_on_c, 0, 84, 59
2, 419186, Control_c, 0, 64, 0
2, 419193, Note_off_c, 0, 84, 64
2, 419200, Note_on_c, 0, 59, 36
2, 419200, Note_on_c, 0, 55, 36
2, 419202, Note_on_c, 0, 74, 44
2, 419204, Note_on_c, 0, 65, 33
2, 419208, Control_c, 0, 64, 127
2, 419231, Note_off_c, 0, 59, 64
2, 419239, Note_off_c, 0, 55, 64
2, 419240, Note_off_c, 0, 65, 64
2, 419240, Note_on_c, 0, 76, 41
2, 419244, Note_off_c, 0, 74, 64
2, 419286, Note_on_c, 0, 74, 29
2, 419293, Note_off_c, 0, 76, 64
2, 419303, Control_c, 0, 64, 0
2, 419314, Note_on_c, 0, 55, 18
2, 419316, Note_on_c, 0, 67, 50
2, 419316, Note_on_c, 0, 64, 23
2, 419316, Note_on_c, 0, 60, 23
2, 419331, Note_off_c, 0, 74, 64
2, 419338, Control_c, 0, 64, 127
2, 419355, Note_off_c, 0, 55, 64
2, 419374, Note_off_c, 0, 64, 64
2, 419376, Note_off_c, 0, 60, 64
2, 419452, Note_on_c, 0, 72, 46
2, 419456, Note_on_c, 0, 64, 36
2, 419456, Note_on_c, 0, 60, 37
2, 419456, Note_on_c, 0, 55, 32
2, 419466, Note_off_c, 0, 67, 64
2, 419487, Note_off_c, 0, 55, 64
2, 419506, Note_off_c, 0, 60, 64
2, 419513, Note_off_c, 0, 64, 64
2, 419528, Note_off_c, 0, 72, 64
2, 419528, Note_on_c, 0, 76, 41
2, 419558, Control_c, 0, 64, 0
2, 419560, Note_on_c, 0, 55, 32
2, 419564, Note_on_c, 0, 65, 33
2, 419564, Note_on_c, 0, 59, 32
2, 419565, Note_on_c, 0, 74, 42
2, 419567, Note_off_c, 0, 76, 64
2, 419591, Control_c, 0, 64, 127
2, 419608, Note_on_c, 0, 76, 46
2, 419609, Note_off_c, 0, 65, 64
2, 419610, Note_off_c, 0, 59, 64
2, 419610, Note_off_c, 0, 55, 64
2, 419617, Note_off_c, 0, 74, 64
2, 419649, Note_on_c, 0, 74, 45
2, 419657, Note_off_c, 0, 76, 64
2, 419678, Control_c, 0, 64, 0
2, 419684, Note_on_c, 0, 64, 31
2, 419688, Note_on_c, 0, 55, 16
2, 419689, Note_on_c, 0, 67, 53
2, 419689, Note_on_c, 0, 60, 27
2, 419700, Note_off_c, 0, 74, 64
2, 419711, Control_c, 0, 64, 127
2, 419725, Note_off_c, 0, 55, 64
2, 419733, Note_off_c, 0, 64, 64
2, 419738, Note_off_c, 0, 60, 64
2, 419796, Note_on_c, 0, 64, 41
2, 419797, Control_c, 0, 64, 0
2, 419808, Note_on_c, 0, 72, 36
2, 419808, Note_on_c, 0, 60, 46
2, 419812, Note_on_c, 0, 55, 41
2, 419820, Control_c, 0, 64, 127
2, 419844, Note_off_c, 0, 67, 64
2, 419855, Note_off_c, 0, 55, 64
2, 419856, Note_off_c, 0, 64, 64
2, 419863, Note_off_c, 0, 60, 64
2, 419898, Note_on_c, 0, 76, 36
2, 419907, Note_off_c, 0, 72, 64
2, 419914, Control_c, 0, 64, 0
2, 419940, Note_on_c, 0, 65, 27
2, 419940, Note_on_c, 0, 55, 29
2, 419944, Note_on_c, 0, 81, 46
2, 419944, Note_on_c, 0, 59, 29
2, 419948, Control_c, 0, 64, 127
2, 419954, Note_off_c, 0, 76, 64
2, 419984, Note_off_c, 0, 65, 64
2, 419989, Note_off_c, 0, 59, 64
2, 419989, Note_off_c, 0, 55, 64
2, 420060, Note_on_c, 0, 79, 41
2, 420060, Note_on_c, 0, 65, 26
2, 420061, Note_off_c, 0, 81, 64
2, 420064, Note_on_c, 0, 59, 27
2, 420064, Note_on_c, 0, 55, 31
2, 420099, Note_off_c, 0, 59, 64
2, 420110, Note_off_c, 0, 55, 64
2, 420114, Note_off_c, 0, 65, 64
2, 420144, Note_off_c, 0, 79, 64
2, 420152, Note_on_c, 0, 76, 40
2, 420192, Note_on_c, 0, 65, 20
2, 420193, Note_on_c, 0, 77, 41
2, 420196, Note_on_c, 0, 59, 29
2, 420196, Note_on_c, 0, 55, 31
2, 420214, Note_off_c, 0, 76, 64
2, 420232, Note_off_c, 0, 59, 64
2, 420236, Note_off_c, 0, 55, 64
2, 420236, Note_off_c, 0, 65, 64
2, 420246, Note_off_c, 0, 77, 64
2, 420276, Note_on_c, 0, 74, 41
2, 420292, Control_c, 0, 64, 0
2, 420300, Note_on_c, 0, 72, 40
2, 420300, Note_on_c, 0, 48, 40
2, 420312, Note_off_c, 0, 74, 64
2, 420312, Control_c, 0, 64, 127
2, 420336, Note_off_c, 0, 48, 64
2, 420379, Note_off_c, 0, 72, 64
2, 420384, Note_on_c, 0, 74, 41
2, 420424, Note_on_c, 0, 60, 24
2, 420428, Note_on_c, 0, 76, 45
2, 420428, Note_on_c, 0, 64, 22
2, 420428, Note_on_c, 0, 55, 27
2, 420459, Note_off_c, 0, 55, 64
2, 420465, Note_off_c, 0, 74, 64
2, 420466, Note_off_c, 0, 60, 64
2, 420474, Note_off_c, 0, 64, 64
2, 420508, Note_on_c, 0, 71, 35
2, 420516, Note_off_c, 0, 76, 64
2, 420540, Note_on_c, 0, 64, 41
2, 420540, Note_on_c, 0, 60, 45
2, 420544, Note_on_c, 0, 55, 40
2, 420556, Note_on_c, 0, 74, 41
2, 420566, Note_off_c, 0, 71, 64
2, 420582, Note_off_c, 0, 55, 64
2, 420582, Note_off_c, 0, 64, 64
2, 420586, Note_off_c, 0, 60, 64
2, 420614, Note_off_c, 0, 74, 64
2, 420628, Note_on_c, 0, 72, 44
2, 420652, Note_on_c, 0, 50, 46
2, 420660, Note_on_c, 0, 54, 48
2, 420661, Note_on_c, 0, 60, 44
2, 420661, Control_c, 0, 64, 0
2, 420667, Note_on_c, 0, 69, 63
2, 420677, Control_c, 0, 64, 127
2, 420680, Note_off_c, 0, 72, 64
2, 420706, Note_off_c, 0, 60, 64
2, 420708, Note_off_c, 0, 54, 64
2, 420708, Note_off_c, 0, 50, 64
2, 420714, Note_on_c, 0, 71, 61
2, 420721, Note_off_c, 0, 69, 64
2, 420750, Note_on_c, 0, 69, 54
2, 420753, Control_c, 0, 64, 0
2, 420762, Note_off_c, 0, 71, 64
2, 420780, Note_on_c, 0, 55, 31
2, 420781, Note_on_c, 0, 50, 13
2, 420784, Note_on_c, 0, 59, 33
2, 420791, Note_on_c, 0, 62, 66
2, 420799, Note_off_c, 0, 69, 64
2, 420799, Control_c, 0, 64, 127
2, 420822, Note_off_c, 0, 59, 64
2, 420834, Note_off_c, 0, 50, 64
2, 420837, Note_off_c, 0, 55, 64
2, 420897, Control_c, 0, 64, 0
2, 420903, Note_on_c, 0, 67, 57
2, 420904, Note_on_c, 0, 50, 50
2, 420905, Note_on_c, 0, 55, 50
2, 420908, Note_on_c, 0, 59, 59
2, 420922, Control_c, 0, 64, 127
2, 420927, Note_off_c, 0, 62, 64
2, 420937, Note_off_c, 0, 50, 64
2, 420954, Note_off_c, 0, 59, 64
2, 420957, Note_off_c, 0, 55, 64
2, 420984, Note_off_c, 0, 67, 64
2, 420984, Note_on_c, 0, 71, 48
2, 421017, Note_on_c, 0, 69, 59
2, 421021, Note_off_c, 0, 71, 64
2, 421024, Note_on_c, 0, 60, 46
2, 421024, Note_on_c, 0, 54, 46
2, 421024, Note_on_c, 0, 50, 46
2, 421028, Control_c, 0, 64, 0
2, 421053, Note_on_c, 0, 71, 57
2, 421059, Note_off_c, 0, 60, 64
2, 421063, Control_c, 0, 64, 127
2, 421068, Note_off_c, 0, 50, 64
2, 421068, Note_off_c, 0, 54, 64
2, 421068, Note_off_c, 0, 69, 64
2, 421101, Note_on_c, 0, 69, 54
2, 421113, Note_off_c, 0, 71, 64
2, 421136, Note_on_c, 0, 59, 35
2, 421136, Note_on_c, 0, 55, 35
2, 421140, Note_on_c, 0, 50, 32
2, 421143, Note_on_c, 0, 62, 59
2, 421145, Control_c, 0, 64, 0
2, 421153, Note_off_c, 0, 69, 64
2, 421165, Control_c, 0, 64, 127
2, 421174, Note_off_c, 0, 50, 64
2, 421179, Note_off_c, 0, 55, 64
2, 421182, Note_off_c, 0, 59, 64
2, 421272, Note_on_c, 0, 59, 27
2, 421272, Note_on_c, 0, 55, 54
2, 421272, Note_on_c, 0, 50, 31
2, 421274, Note_on_c, 0, 67, 53
2, 421302, Note_off_c, 0, 59, 64
2, 421304, Note_off_c, 0, 62, 64
2, 421312, Note_off_c, 0, 55, 64
2, 421314, Note_off_c, 0, 50, 64
2, 421359, Note_on_c, 0, 71, 59
2, 421369, Note_off_c, 0, 67, 64
2, 421386, Control_c, 0, 64, 0
2, 421396, Note_on_c, 0, 50, 44
2, 421402, Note_on_c, 0, 54, 46
2, 421404, Note_on_c, 0, 60, 44
2, 421405, Note_on_c, 0, 76, 61
2, 421417, Note_off_c, 0, 71, 64
2, 421420, Control_c, 0, 64, 127
2, 421437, Note_off_c, 0, 54, 64
2, 421440, Note_off_c, 0, 50, 64
2, 421447, Note_off_c, 0, 60, 64
2, 421499, Control_c, 0, 64, 0
2, 421515, Note_on_c, 0, 74, 57
2, 421523, Note_on_c, 0, 54, 40
2, 421524, Control_c, 0, 64, 127
2, 421531, Note_on_c, 0, 60, 33
2, 421531, Note_on_c, 0, 50, 40
2, 421536, Note_off_c, 0, 76, 64
2, 421572, Note_off_c, 0, 50, 64
2, 421574, Note_off_c, 0, 54, 64
2, 421577, Note_off_c, 0, 60, 64
2, 421597, Note_off_c, 0, 74, 64
2, 421620, Note_on_c, 0, 71, 42
2, 421627, Control_c, 0, 64, 0
2, 421649, Note_on_c, 0, 54, 46
2, 421649, Note_on_c, 0, 50, 37
2, 421652, Note_on_c, 0, 60, 31
2, 421654, Note_on_c, 0, 72, 57
2, 421659, Control_c, 0, 64, 127
2, 421670, Note_off_c, 0, 71, 64
2, 421686, Note_off_c, 0, 60, 64
2, 421688, Note_off_c, 0, 54, 64
2, 421695, Note_off_c, 0, 50, 64
2, 421711, Note_off_c, 0, 72, 64
2, 421732, Note_on_c, 0, 69, 44
2, 421750, Control_c, 0, 64, 0
2, 421756, Note_on_c, 0, 43, 41
2, 421758, Note_on_c, 0, 67, 50
2, 421780, Control_c, 0, 64, 127
2, 421784, Note_off_c, 0, 43, 64
2, 421784, Note_off_c, 0, 69, 64
2, 421843, Note_on_c, 0, 71, 40
2, 421880, Note_off_c, 0, 67, 64
2, 421884, Note_on_c, 0, 55, 40
2, 421887, Note_on_c, 0, 59, 35
2, 421887, Note_on_c, 0, 50, 37
2, 421888, Note_on_c, 0, 74, 54
2, 421915, Note_off_c, 0, 50, 64
2, 421922, Note_off_c, 0, 59, 64
2, 421925, Note_off_c, 0, 55, 64
2, 421930, Note_off_c, 0, 71, 64
2, 421955, Note_on_c, 0, 78, 45
2, 421985, Note_off_c, 0, 74, 64
2, 422000, Note_on_c, 0, 59, 48
2, 422000, Note_on_c, 0, 55, 57
2, 422000, Note_on_c, 0, 50, 50
2, 422006, Note_on_c, 0, 81, 65
2, 422020, Note_off_c, 0, 78, 64
2, 422036, Note_off_c, 0, 50, 64
2, 422044, Note_off_c, 0, 59, 64
2, 422049, Note_off_c, 0, 55, 64
2, 422065, Note_off_c, 0, 81, 64
2, 422076, Note_on_c, 0, 79, 66
2, 422110, Control_c, 0, 64, 0
2, 422124, Note_off_c, 0, 79, 64
2, 422132, Note_on_c, 0, 69, 59
2, 422140, Note_on_c, 0, 50, 46
2, 422143, Control_c, 0, 64, 127
2, 422144, Note_on_c, 0, 54, 42
2, 422152, Note_on_c, 0, 60, 36
2, 422157, Note_off_c, 0, 69, 64
2, 422172, Note_on_c, 0, 71, 54
2, 422175, Note_off_c, 0, 60, 64
2, 422190, Note_off_c, 0, 50, 64
2, 422193, Note_off_c, 0, 54, 64
2, 422223, Note_off_c, 0, 71, 64
2, 422224, Note_on_c, 0, 69, 50
2, 422229, Control_c, 0, 64, 0
2, 422244, Note_on_c, 0, 59, 20
2, 422248, Note_on_c, 0, 55, 31
2, 422248, Note_on_c, 0, 50, 27
2, 422254, Note_on_c, 0, 62, 59
2, 422256, Note_off_c, 0, 69, 64
2, 422265, Note_off_c, 0, 59, 64
2, 422280, Control_c, 0, 64, 127
2, 422293, Note_off_c, 0, 55, 64
2, 422307, Note_off_c, 0, 50, 64
2, 422356, Control_c, 0, 64, 0
2, 422363, Note_off_c, 0, 62, 64
2, 422376, Note_on_c, 0, 50, 31
2, 422376, Note_on_c, 0, 59, 59
2, 422378, Note_on_c, 0, 67, 48
2, 422380, Note_on_c, 0, 55, 59
2, 422389, Control_c, 0, 64, 127
2, 422418, Note_off_c, 0, 50, 64
2, 422422, Note_off_c, 0, 59, 64
2, 422440, Note_off_c, 0, 55, 64
2, 422447, Note_off_c, 0, 67, 64
2, 422447, Note_on_c, 0, 71, 53
2, 422480, Note_on_c, 0, 60, 41
2, 422481, Note_on_c, 0, 69, 57
2, 422484, Note_on_c, 0, 54, 45
2, 422484, Note_on_c, 0, 50, 42
2, 422488, Note_off_c, 0, 71, 64
2, 422488, Control_c, 0, 64, 0
2, 422509, Control_c, 0, 64, 127
2, 422526, Note_off_c, 0, 60, 64
2, 422536, Note_on_c, 0, 71, 50
2, 422540, Note_off_c, 0, 54, 64
2, 422544, Note_off_c, 0, 69, 64
2, 422545, Note_off_c, 0, 50, 64
2, 422573, Note_on_c, 0, 69, 42
2, 422589, Note_off_c, 0, 71, 64
2, 422595, Control_c, 0, 64, 0
2, 422604, Note_on_c, 0, 59, 40
2, 422604, Note_on_c, 0, 55, 33
2, 422604, Note_on_c, 0, 50, 15
2, 422610, Note_on_c, 0, 62, 55
2, 422611, Control_c, 0, 64, 127
2, 422619, Note_off_c, 0, 69, 64
2, 422644, Note_off_c, 0, 55, 64
2, 422646, Note_off_c, 0, 50, 64
2, 422647, Note_off_c, 0, 59, 64
2, 422702, Control_c, 0, 64, 0
2, 422726, Control_c, 0, 64, 127
2, 422732, Note_on_c, 0, 50, 36
2, 422733, Note_on_c, 0, 67, 53
2, 422736, Note_on_c, 0, 59, 36
2, 422738, Note_on_c, 0, 55, 59
2, 422762, Note_off_c, 0, 59, 64
2, 422762, Note_off_c, 0, 62, 64
2, 422763, Note_off_c, 0, 50, 64
2, 422779, Note_off_c, 0, 55, 64
2, 422807, Note_off_c, 0, 67, 64
2, 422821, Note_on_c, 0, 71, 42
2, 422840, Control_c, 0, 64, 0
2, 422852, Note_on_c, 0, 54, 50
2, 422854, Note_on_c, 0, 60, 46
2, 422856, Note_off_c, 0, 71, 64
2, 422860, Note_on_c, 0, 50, 45
2, 422863, Note_on_c, 0, 78, 66
2, 422867, Control_c, 0, 64, 127
2, 422890, Note_off_c, 0, 60, 64
2, 422892, Note_off_c, 0, 54, 64
2, 422903, Note_off_c, 0, 50, 64
2, 422915, Note_off_c, 0, 78, 64
2, 422954, Control_c, 0, 64, 0
2, 422974, Note_on_c, 0, 54, 50
2, 422975, Note_on_c, 0, 60, 42
2, 422978, Note_on_c, 0, 76, 59
2, 422978, Note_on_c, 0, 50, 46
2, 422987, Control_c, 0, 64, 127
2, 423012, Note_off_c, 0, 50, 64
2, 423012, Note_off_c, 0, 54, 64
2, 423015, Note_off_c, 0, 60, 64
2, 423043, Note_off_c, 0, 76, 64
2, 423060, Note_on_c, 0, 71, 50
2, 423070, Control_c, 0, 64, 0
2, 423096, Note_on_c, 0, 72, 42
2, 423096, Note_on_c, 0, 50, 40
2, 423100, Note_on_c, 0, 60, 31
2, 423104, Note_on_c, 0, 54, 42
2, 423112, Control_c, 0, 64, 127
2, 423117, Note_off_c, 0, 71, 64
2, 423128, Note_off_c, 0, 50, 64
2, 423137, Note_off_c, 0, 54, 64
2, 423142, Note_off_c, 0, 60, 64
2, 423153, Note_off_c, 0, 72, 64
2, 423180, Note_on_c, 0, 69, 45
2, 423194, Control_c, 0, 64, 0
2, 423216, Note_on_c, 0, 43, 46
2, 423222, Note_off_c, 0, 69, 64
2, 423223, Note_on_c, 0, 67, 53
2, 423241, Control_c, 0, 64, 127
2, 423255, Note_off_c, 0, 43, 64
2, 423298, Note_on_c, 0, 71, 46
2, 423322, Note_off_c, 0, 67, 64
2, 423344, Note_on_c, 0, 50, 40
2, 423345, Note_on_c, 0, 74, 57
2, 423348, Note_on_c, 0, 55, 33
2, 423352, Note_on_c, 0, 59, 33
2, 423374, Note_off_c, 0, 71, 64
2, 423389, Note_off_c, 0, 55, 64
2, 423393, Note_off_c, 0, 59, 64
2, 423405, Note_off_c, 0, 50, 64
2, 423413, Note_off_c, 0, 74, 64
2, 423428, Note_on_c, 0, 78, 42
2, 423452, Note_on_c, 0, 59, 59
2, 423456, Note_off_c, 0, 78, 64
2, 423456, Note_on_c, 0, 81, 72
2, 423456, Note_on_c, 0, 55, 59
2, 423456, Note_on_c, 0, 50, 59
2, 423488, Note_off_c, 0, 50, 64
2, 423495, Note_off_c, 0, 59, 64
2, 423496, Note_off_c, 0, 55, 64
2, 423508, Note_off_c, 0, 81, 64
2, 423524, Note_on_c, 0, 79, 41
2, 423565, Control_c, 0, 64, 0
2, 423568, Note_on_c, 0, 74, 75
2, 423568, Note_on_c, 0, 59, 63
2, 423568, Note_on_c, 0, 55, 63
2, 423572, Note_on_c, 0, 65, 63
2, 423584, Note_off_c, 0, 79, 64
2, 423596, Control_c, 0, 64, 127
2, 423608, Note_on_c, 0, 76, 70
2, 423610, Note_off_c, 0, 65, 64
2, 423610, Note_off_c, 0, 59, 64
2, 423612, Note_off_c, 0, 55, 64
2, 423635, Note_off_c, 0, 74, 64
2, 423648, Note_on_c, 0, 74, 74
2, 423660, Note_off_c, 0, 76, 64
2, 423668, Control_c, 0, 64, 0
2, 423680, Note_on_c, 0, 55, 22
2, 423685, Note_on_c, 0, 60, 50
2, 423689, Note_off_c, 0, 74, 64
2, 423694, Note_on_c, 0, 67, 87
2, 423694, Note_on_c, 0, 64, 53
2, 423711, Control_c, 0, 64, 127
2, 423722, Note_off_c, 0, 55, 64
2, 423730, Note_off_c, 0, 60, 64
2, 423734, Note_off_c, 0, 64, 64
2, 423808, Note_on_c, 0, 72, 63
2, 423808, Note_on_c, 0, 60, 80
2, 423808, Note_on_c, 0, 55, 40
2, 423813, Note_on_c, 0, 64, 72
2, 423838, Note_off_c, 0, 67, 64
2, 423850, Note_off_c, 0, 55, 64
2, 423860, Note_off_c, 0, 60, 64
2, 423866, Note_off_c, 0, 64, 64
2, 423881, Note_off_c, 0, 72, 64
2, 423887, Note_on_c, 0, 76, 62
2, 423918, Control_c, 0, 64, 0
2, 423933, Note_on_c, 0, 74, 66
2, 423936, Note_on_c, 0, 65, 57
2, 423936, Note_on_c, 0, 59, 59
2, 423941, Note_off_c, 0, 76, 64
2, 423943, Note_on_c, 0, 55, 57
2, 423948, Control_c, 0, 64, 127
2, 423981, Note_off_c, 0, 65, 64
2, 423981, Note_on_c, 0, 76, 75
2, 423983, Note_off_c, 0, 59, 64
2, 423989, Note_off_c, 0, 74, 64
2, 423992, Note_off_c, 0, 55, 64
2, 424020, Note_on_c, 0, 74, 61
2, 424032, Control_c, 0, 64, 0
2, 424039, Note_off_c, 0, 76, 64
2, 424048, Note_on_c, 0, 60, 41
2, 424054, Note_on_c, 0, 67, 84
2, 424056, Note_on_c, 0, 64, 46
2, 424058, Note_on_c, 0, 55, 23
2, 424064, Note_off_c, 0, 74, 64
2, 424067, Control_c, 0, 64, 127
2, 424080, Note_off_c, 0, 55, 64
2, 424099, Note_off_c, 0, 60, 64
2, 424110, Note_off_c, 0, 64, 64
2, 424154, Control_c, 0, 64, 0
2, 424172, Note_on_c, 0, 64, 75
2, 424174, Note_on_c, 0, 60, 75
2, 424179, Note_on_c, 0, 72, 61
2, 424180, Note_on_c, 0, 55, 41
2, 424185, Control_c, 0, 64, 127
2, 424202, Note_off_c, 0, 55, 64
2, 424206, Note_off_c, 0, 67, 64
2, 424228, Note_off_c, 0, 60, 64
2, 424231, Note_off_c, 0, 64, 64
2, 424240, Control_c, 0, 64, 0
2, 424261, Note_on_c, 0, 76, 65
2, 424272, Note_off_c, 0, 72, 64
2, 424275, Control_c, 0, 64, 127
2, 424277, Control_c, 0, 64, 0
2, 424297, Note_on_c, 0, 59, 57
2, 424297, Note_on_c, 0, 65, 54
2, 424301, Note_on_c, 0, 55, 57
2, 424306, Note_on_c, 0, 81, 76
2, 424320, Note_off_c, 0, 76, 64
2, 424323, Control_c, 0, 64, 127
2, 424345, Note_off_c, 0, 59, 64
2, 424349, Note_off_c, 0, 65, 64
2, 424349, Note_off_c, 0, 55, 64
2, 424402, Control_c, 0, 64, 0
2, 424413, Control_c, 0, 64, 127
2, 424418, Note_on_c, 0, 79, 65
2, 424420, Note_on_c, 0, 65, 50
2, 424427, Note_on_c, 0, 59, 57
2, 424428, Note_on_c, 0, 55, 53
2, 424432, Note_off_c, 0, 81, 64
2, 424469, Note_off_c, 0, 55, 64
2, 424474, Note_off_c, 0, 65, 64
2, 424476, Note_off_c, 0, 59, 64
2, 424499, Note_off_c, 0, 79, 64
2, 424516, Note_on_c, 0, 76, 40
2, 424538, Note_on_c, 0, 65, 37
2, 424544, Note_on_c, 0, 77, 61
2, 424549, Note_on_c, 0, 59, 57
2, 424549, Note_on_c, 0, 55, 50
2, 424558, Note_off_c, 0, 76, 64
2, 424584, Note_off_c, 0, 65, 64
2, 424588, Note_off_c, 0, 59, 64
2, 424592, Note_off_c, 0, 55, 64
2, 424602, Note_off_c, 0, 77, 64
2, 424628, Note_on_c, 0, 74, 71
2, 424632, Control_c, 0, 64, 0
2, 424661, Note_on_c, 0, 72, 57
2, 424661, Note_on_c, 0, 48, 57
2, 424676, Control_c, 0, 64, 127
2, 424681, Note_off_c, 0, 74, 64
2, 424692, Note_off_c, 0, 48, 64
2, 424732, Note_on_c, 0, 76, 57
2, 424743, Control_c, 0, 64, 0
2, 424766, Note_off_c, 0, 72, 64
2, 424772, Note_on_c, 0, 79, 50
2, 424780, Note_on_c, 0, 60, 50
2, 424782, Note_on_c, 0, 55, 44
2, 424784, Note_on_c, 0, 64, 46
2, 424791, Control_c, 0, 64, 127
2, 424817, Note_off_c, 0, 55, 64
2, 424818, Note_off_c, 0, 76, 64
2, 424820, Note_off_c, 0, 64, 64
2, 424822, Note_off_c, 0, 60, 64
2, 424832, Note_off_c, 0, 79, 64
2, 424852, Note_on_c, 0, 83, 35
2, 424894, Note_off_c, 0, 83, 64
2, 424894, Note_on_c, 0, 86, 70
2, 424895, Note_on_c, 0, 64, 76
2, 424899, Note_on_c, 0, 60, 71
2, 424899, Note_on_c, 0, 55, 71
2, 424934, Note_off_c, 0, 55, 64
2, 424940, Note_off_c, 0, 60, 64
2, 424941, Note_off_c, 0, 64, 64
2, 424946, Note_off_c, 0, 86, 64
2, 424980, Note_on_c, 0, 84, 61
2, 424994, Control_c, 0, 64, 0
2, 425016, Note_on_c, 0, 59, 59
2, 425023, Note_on_c, 0, 55, 57
2, 425024, Note_on_c, 0, 74, 81
2, 425024, Note_on_c, 0, 65, 57
2, 425025, Note_off_c, 0, 84, 64
2, 425036, Control_c, 0, 64, 127
2, 425060, Note_off_c, 0, 59, 64
2, 425060, Note_on_c, 0, 76, 52
2, 425063, Note_off_c, 0, 65, 64
2, 425064, Note_off_c, 0, 74, 64
2, 425074, Note_off_c, 0, 55, 64
2, 425098, Note_on_c, 0, 74, 66
2, 425102, Control_c, 0, 64, 0
2, 425120, Note_off_c, 0, 76, 64
2, 425138, Note_on_c, 0, 67, 89
2, 425138, Note_on_c, 0, 64, 48
2, 425138, Note_on_c, 0, 55, 29
2, 425140, Note_on_c, 0, 60, 41
2, 425145, Note_off_c, 0, 74, 64
2, 425158, Control_c, 0, 64, 127
2, 425177, Note_off_c, 0, 55, 64
2, 425189, Note_off_c, 0, 64, 64
2, 425191, Note_off_c, 0, 60, 64
2, 425227, Control_c, 0, 64, 0
2, 425257, Note_on_c, 0, 60, 75
2, 425257, Note_on_c, 0, 72, 70
2, 425260, Note_on_c, 0, 55, 45
2, 425260, Note_on_c, 0, 64, 80
2, 425265, Control_c, 0, 64, 127
2, 425288, Note_off_c, 0, 67, 64
2, 425292, Note_off_c, 0, 55, 64
2, 425306, Note_off_c, 0, 60, 64
2, 425312, Note_off_c, 0, 64, 64
2, 425331, Note_off_c, 0, 72, 64
2, 425344, Note_on_c, 0, 76, 67
2, 425368, Control_c, 0, 64, 0
2, 425386, Note_on_c, 0, 59, 53
2, 425389, Note_on_c, 0, 55, 50
2, 425390, Note_on_c, 0, 74, 71
2, 425390, Note_on_c, 0, 65, 54
2, 425395, Note_off_c, 0, 76, 64
2, 425401, Control_c, 0, 64, 127
2, 425432, Note_off_c, 0, 65, 64
2, 425432, Note_off_c, 0, 59, 64
2, 425432, Note_on_c, 0, 76, 62
2, 425435, Note_off_c, 0, 55, 64
2, 425437, Note_off_c, 0, 74, 64
2, 425478, Note_on_c, 0, 74, 57
2, 425484, Note_off_c, 0, 76, 64
2, 425488, Control_c, 0, 64, 0
2, 425505, Note_on_c, 0, 67, 84
2, 425505, Note_on_c, 0, 64, 45
2, 425508, Note_on_c, 0, 60, 41
2, 425512, Note_on_c, 0, 55, 42
2, 425516, Note_off_c, 0, 74, 64
2, 425522, Control_c, 0, 64, 127
2, 425550, Note_off_c, 0, 55, 64
2, 425557, Note_off_c, 0, 60, 64
2, 425558, Note_off_c, 0, 64, 64
2, 425624, Note_on_c, 0, 60, 81
2, 425625, Note_on_c, 0, 72, 59
2, 425629, Note_on_c, 0, 64, 81
2, 425632, Note_on_c, 0, 55, 72
2, 425663, Note_off_c, 0, 67, 64
2, 425672, Note_off_c, 0, 55, 64
2, 425681, Note_off_c, 0, 64, 64
2, 425682, Note_off_c, 0, 60, 64
2, 425711, Note_on_c, 0, 76, 66
2, 425712, Note_off_c, 0, 72, 64
2, 425727, Control_c, 0, 64, 0
2, 425750, Note_on_c, 0, 55, 53
2, 425756, Note_on_c, 0, 65, 54
2, 425756, Note_on_c, 0, 59, 55
2, 425757, Note_on_c, 0, 81, 76
2, 425769, Note_off_c, 0, 76, 64
2, 425770, Control_c, 0, 64, 127
2, 425796, Note_off_c, 0, 55, 64
2, 425802, Note_off_c, 0, 59, 64
2, 425804, Note_off_c, 0, 65, 64
2, 425864, Note_on_c, 0, 79, 70
2, 425868, Note_on_c, 0, 65, 53
2, 425868, Note_on_c, 0, 59, 57
2, 425868, Note_on_c, 0, 55, 54
2, 425887, Note_off_c, 0, 81, 64
2, 425912, Note_off_c, 0, 59, 64
2, 425915, Note_off_c, 0, 55, 64
2, 425918, Note_off_c, 0, 65, 64
2, 425944, Note_on_c, 0, 76, 67
2, 425962, Note_off_c, 0, 79, 64
2, 425980, Note_on_c, 0, 77, 70
2, 425988, Note_on_c, 0, 59, 50
2, 425988, Note_on_c, 0, 55, 44
2, 425990, Note_on_c, 0, 65, 41
2, 425997, Note_off_c, 0, 76, 64
2, 426023, Note_off_c, 0, 59, 64
2, 426027, Note_off_c, 0, 65, 64
2, 426031, Note_off_c, 0, 55, 64
2, 426039, Note_off_c, 0, 77, 64
2, 426074, Note_on_c, 0, 74, 33
2, 426098, Note_off_c, 0, 74, 64
2, 426104, Control_c, 0, 64, 0
2, 426111, Note_on_c, 0, 48, 61
2, 426115, Note_on_c, 0, 72, 59
2, 426134, Control_c, 0, 64, 127
2, 426146, Note_off_c, 0, 48, 64
2, 426181, Note_off_c, 0, 72, 64
2, 426188, Note_on_c, 0, 74, 67
2, 426219, Control_c, 0, 64, 0
2, 426220, Note_on_c, 0, 76, 57
2, 426227, Note_on_c, 0, 60, 50
2, 426228, Note_on_c, 0, 64, 45
2, 426233, Note_on_c, 0, 55, 46
2, 426241, Control_c, 0, 64, 127
2, 426263, Note_off_c, 0, 74, 64
2, 426263, Note_off_c, 0, 55, 64
2, 426264, Note_off_c, 0, 60, 64
2, 426270, Note_off_c, 0, 64, 64
2, 426290, Note_off_c, 0, 76, 64
2, 426300, Note_on_c, 0, 71, 70
2, 426346, Note_on_c, 0, 64, 72
2, 426346, Note_on_c, 0, 60, 75
2, 426350, Note_on_c, 0, 55, 72
2, 426355, Note_on_c, 0, 74, 78
2, 426360, Note_off_c, 0, 71, 64
2, 426377, Note_off_c, 0, 64, 64
2, 426380, Note_off_c, 0, 60, 64
2, 426391, Note_off_c, 0, 55, 64
2, 426408, Note_off_c, 0, 74, 64
2, 426428, Note_on_c, 0, 72, 66
2, 426460, Note_on_c, 0, 60, 50
2, 426460, Note_on_c, 0, 50, 50
2, 426463, Note_on_c, 0, 54, 50
2, 426468, Note_off_c, 0, 72, 64
2, 426468, Note_on_c, 0, 69, 54
2, 426473, Control_c, 0, 64, 0
2, 426497, Control_c, 0, 64, 127
2, 426499, Note_off_c, 0, 60, 64
2, 426505, Note_off_c, 0, 50, 64
2, 426511, Note_off_c, 0, 69, 64
2, 426512, Note_off_c, 0, 54, 64
2, 426516, Note_on_c, 0, 71, 63
2, 426548, Note_on_c, 0, 69, 50
2, 426568, Note_off_c, 0, 71, 64
2, 426574, Control_c, 0, 64, 0
2, 426592, Note_on_c, 0, 59, 41
2, 426594, Note_on_c, 0, 50, 35
2, 426596, Note_on_c, 0, 55, 35
2, 426598, Note_on_c, 0, 62, 67
2, 426603, Note_off_c, 0, 69, 64
2, 426610, Control_c, 0, 64, 127
2, 426628, Note_off_c, 0, 50, 64
2, 426632, Note_off_c, 0, 59, 64
2, 426642, Note_off_c, 0, 55, 64
2, 426689, Control_c, 0, 64, 0
2, 426702, Control_c, 0, 64, 127
2, 426704, Note_on_c, 0, 59, 50
2, 426704, Note_on_c, 0, 55, 63
2, 426707, Note_on_c, 0, 67, 54
2, 426712, Note_on_c, 0, 50, 31
2, 426737, Note_off_c, 0, 62, 64
2, 426752, Note_off_c, 0, 55, 64
2, 426752, Note_off_c, 0, 59, 64
2, 426754, Note_off_c, 0, 50, 64
2, 426787, Note_off_c, 0, 67, 64
2, 426794, Note_on_c, 0, 71, 53
2, 426817, Control_c, 0, 64, 0
2, 426828, Note_on_c, 0, 69, 48
2, 426833, Note_on_c, 0, 54, 50
2, 426839, Note_on_c, 0, 60, 45
2, 426840, Note_on_c, 0, 50, 46
2, 426846, Note_off_c, 0, 71, 64
2, 426853, Control_c, 0, 64, 127
2, 426874, Note_on_c, 0, 71, 57
2, 426876, Note_off_c, 0, 60, 64
2, 426877, Note_off_c, 0, 50, 64
2, 426877, Note_off_c, 0, 54, 64
2, 426884, Note_off_c, 0, 69, 64
2, 426917, Note_on_c, 0, 69, 46
2, 426924, Control_c, 0, 64, 0
2, 426935, Note_off_c, 0, 71, 64
2, 426946, Note_on_c, 0, 62, 66
2, 426948, Note_on_c, 0, 59, 40
2, 426948, Note_on_c, 0, 55, 37
2, 426948, Note_on_c, 0, 50, 15
2, 426958, Control_c, 0, 64, 127
2, 426965, Note_off_c, 0, 69, 64
2, 426990, Note_off_c, 0, 50, 64
2, 426992, Note_off_c, 0, 55, 64
2, 426993, Note_off_c, 0, 59, 64
2, 427064, Note_on_c, 0, 59, 66
2, 427065, Note_on_c, 0, 67, 53
2, 427068, Note_on_c, 0, 55, 62
2, 427072, Note_on_c, 0, 50, 31
2, 427102, Note_off_c, 0, 62, 64
2, 427110, Note_off_c, 0, 59, 64
2, 427114, Note_off_c, 0, 50, 64
2, 427115, Note_off_c, 0, 55, 64
2, 427155, Note_on_c, 0, 71, 50
2, 427162, Note_off_c, 0, 67, 64
2, 427180, Control_c, 0, 64, 0
2, 427184, Note_on_c, 0, 76, 59
2, 427188, Note_on_c, 0, 54, 50
2, 427193, Note_on_c, 0, 50, 46
2, 427196, Note_on_c, 0, 60, 46
2, 427207, Note_off_c, 0, 71, 64
2, 427212, Control_c, 0, 64, 127
2, 427229, Note_off_c, 0, 54, 64
2, 427229, Note_off_c, 0, 60, 64
2, 427232, Note_off_c, 0, 50, 64
2, 427312, Note_off_c, 0, 76, 64
2, 427316, Note_on_c, 0, 74, 63
2, 427321, Note_on_c, 0, 60, 45
2, 427321, Note_on_c, 0, 54, 50
2, 427322, Note_on_c, 0, 50, 46
2, 427357, Note_off_c, 0, 54, 64
2, 427360, Note_off_c, 0, 50, 64
2, 427366, Note_off_c, 0, 60, 64
2, 427396, Note_on_c, 0, 71, 57
2, 427402, Note_off_c, 0, 74, 64
2, 427435, Note_on_c, 0, 72, 54
2, 427435, Note_on_c, 0, 60, 40
2, 427438, Note_on_c, 0, 50, 44
2, 427443, Note_on_c, 0, 54, 48
2, 427447, Note_off_c, 0, 71, 64
2, 427472, Note_off_c, 0, 54, 64
2, 427472, Note_off_c, 0, 60, 64
2, 427474, Note_off_c, 0, 50, 64
2, 427497, Note_off_c, 0, 72, 64
2, 427508, Note_on_c, 0, 69, 57
2, 427527, Control_c, 0, 64, 0
2, 427545, Note_on_c, 0, 67, 57
2, 427548, Note_on_c, 0, 43, 50
2, 427560, Note_off_c, 0, 69, 64
2, 427577, Control_c, 0, 64, 127
2, 427590, Note_off_c, 0, 43, 64
2, 427636, Note_on_c, 0, 71, 50
2, 427648, Note_off_c, 0, 67, 64
2, 427660, Note_on_c, 0, 59, 41
2, 427662, Note_on_c, 0, 50, 40
2, 427664, Note_on_c, 0, 55, 41
2, 427666, Note_on_c, 0, 74, 48
2, 427692, Note_off_c, 0, 50, 64
2, 427694, Note_off_c, 0, 59, 64
2, 427702, Note_off_c, 0, 55, 64
2, 427725, Note_off_c, 0, 71, 64
2, 427736, Note_off_c, 0, 74, 64
2, 427740, Note_on_c, 0, 78, 53
2, 427764, Note_on_c, 0, 81, 57
2, 427768, Note_on_c, 0, 59, 66
2, 427768, Note_on_c, 0, 50, 62
2, 427769, Note_on_c, 0, 55, 71
2, 427790, Note_off_c, 0, 78, 64
2, 427794, Note_off_c, 0, 50, 64
2, 427801, Note_off_c, 0, 59, 64
2, 427809, Note_off_c, 0, 55, 64
2, 427815, Note_off_c, 0, 81, 64
2, 427844, Note_on_c, 0, 79, 57
2, 427874, Control_c, 0, 64, 0
2, 427881, Note_off_c, 0, 79, 64
2, 427884, Note_on_c, 0, 69, 63
2, 427884, Note_on_c, 0, 60, 50
2, 427884, Note_on_c, 0, 54, 50
2, 427884, Note_on_c, 0, 50, 46
2, 427913, Control_c, 0, 64, 127
2, 427924, Note_off_c, 0, 54, 64
2, 427924, Note_off_c, 0, 60, 64
2, 427931, Note_off_c, 0, 50, 64
2, 427932, Note_on_c, 0, 71, 59
2, 427934, Note_off_c, 0, 69, 64
2, 427980, Note_on_c, 0, 69, 50
2, 427985, Note_off_c, 0, 71, 64
2, 427999, Control_c, 0, 64, 0
2, 428012, Note_on_c, 0, 59, 41
2, 428012, Note_on_c, 0, 55, 40
2, 428012, Note_on_c, 0, 50, 15
2, 428020, Note_on_c, 0, 62, 70
2, 428032, Note_off_c, 0, 69, 64
2, 428037, Control_c, 0, 64, 127
2, 428054, Note_off_c, 0, 50, 64
2, 428055, Note_off_c, 0, 59, 64
2, 428058, Note_off_c, 0, 55, 64
2, 428128, Note_on_c, 0, 59, 63
2, 428132, Note_on_c, 0, 55, 63
2, 428132, Note_on_c, 0, 67, 66
2, 428136, Note_on_c, 0, 50, 31
2, 428168, Note_off_c, 0, 62, 64
2, 428178, Note_off_c, 0, 50, 64
2, 428180, Note_off_c, 0, 59, 64
2, 428181, Note_off_c, 0, 55, 64
2, 428207, Note_off_c, 0, 67, 64
2, 428230, Note_on_c, 0, 71, 59
2, 428240, Control_c, 0, 64, 0
2, 428260, Note_on_c, 0, 50, 46
2, 428264, Note_on_c, 0, 54, 50
2, 428265, Note_on_c, 0, 60, 46
2, 428267, Note_on_c, 0, 69, 63
2, 428279, Control_c, 0, 64, 127
2, 428284, Note_off_c, 0, 71, 64
2, 428293, Note_off_c, 0, 60, 64
2, 428296, Note_on_c, 0, 71, 54
2, 428298, Note_off_c, 0, 50, 64
2, 428303, Note_off_c, 0, 54, 64
2, 428317, Note_off_c, 0, 69, 64
2, 428329, Control_c, 0, 64, 0
2, 428340, Note_on_c, 0, 69, 57
2, 428349, Note_off_c, 0, 71, 64
2, 428364, Note_on_c, 0, 50, 15
2, 428367, Note_on_c, 0, 55, 40
2, 428368, Note_on_c, 0, 62, 75
2, 428371, Note_on_c, 0, 59, 41
2, 428378, Note_off_c, 0, 69, 64
2, 428382, Control_c, 0, 64, 127
2, 428406, Note_off_c, 0, 50, 64
2, 428413, Note_off_c, 0, 55, 64
2, 428417, Note_off_c, 0, 59, 64
2, 428493, Note_on_c, 0, 59, 63
2, 428495, Note_on_c, 0, 67, 50
2, 428496, Note_on_c, 0, 55, 71
2, 428496, Note_on_c, 0, 50, 31
2, 428516, Note_off_c, 0, 62, 64
2, 428537, Note_off_c, 0, 59, 64
2, 428538, Note_off_c, 0, 50, 64
2, 428543, Note_off_c, 0, 55, 64
2, 428568, Note_off_c, 0, 67, 64
2, 428577, Note_on_c, 0, 71, 42
2, 428596, Control_c, 0, 64, 0
2, 428607, Note_off_c, 0, 71, 64
2, 428608, Note_on_c, 0, 54, 50
2, 428610, Note_on_c, 0, 50, 50
2, 428614, Note_on_c, 0, 60, 50
2, 428619, Note_on_c, 0, 78, 67
2, 428629, Note_off_c, 0, 54, 64
2, 428633, Control_c, 0, 64, 127
2, 428646, Note_off_c, 0, 60, 64
2, 428646, Note_off_c, 0, 50, 64
2, 428670, Note_off_c, 0, 78, 64
2, 428712, Control_c, 0, 64, 0
2, 428736, Note_on_c, 0, 76, 59
2, 428736, Note_on_c, 0, 54, 50
2, 428736, Note_on_c, 0, 50, 46
2, 428742, Note_on_c, 0, 60, 48
2, 428756, Control_c, 0, 64, 127
2, 428760, Note_off_c, 0, 54, 64
2, 428761, Note_off_c, 0, 50, 64
2, 428778, Note_off_c, 0, 60, 64
2, 428814, Note_off_c, 0, 76, 64
2, 428828, Note_on_c, 0, 71, 53
2, 428860, Note_on_c, 0, 72, 59
2, 428860, Note_on_c, 0, 50, 44
2, 428864, Note_on_c, 0, 60, 40
2, 428864, Note_on_c, 0, 54, 46
2, 428892, Note_off_c, 0, 71, 64
2, 428896, Note_off_c, 0, 54, 64
2, 428904, Note_off_c, 0, 50, 64
2, 428905, Note_off_c, 0, 60, 64
2, 428913, Note_off_c, 0, 72, 64
2, 428940, Note_on_c, 0, 69, 48
2, 428959, Control_c, 0, 64, 0
2, 428975, Note_off_c, 0, 69, 64
2, 428976, Note_on_c, 0, 67, 63
2, 428976, Note_on_c, 0, 43, 46
2, 428996, Control_c, 0, 64, 127
2, 429009, Note_off_c, 0, 43, 64
2, 429051, Note_off_c, 0, 67, 64
2, 429052, Note_on_c, 0, 71, 53
2, 429084, Note_on_c, 0, 74, 41
2, 429086, Note_on_c, 0, 50, 41
2, 429086, Note_on_c, 0, 55, 41
2, 429086, Note_on_c, 0, 59, 41
2, 429104, Note_off_c, 0, 71, 64
2, 429121, Note_off_c, 0, 50, 64
2, 429126, Note_off_c, 0, 74, 64
2, 429127, Note_off_c, 0, 55, 64
2, 429128, Note_off_c, 0, 59, 64
2, 429164, Note_on_c, 0, 78, 50
2, 429188, Note_on_c, 0, 50, 72
2, 429190, Note_on_c, 0, 81, 57
2, 429192, Note_on_c, 0, 59, 66
2, 429192, Note_on_c, 0, 55, 71
2, 429209, Note_off_c, 0, 78, 64
2, 429224, Note_off_c, 0, 50, 64
2, 429227, Note_off_c, 0, 59, 64
2, 429229, Note_off_c, 0, 55, 64
2, 429261, Note_off_c, 0, 81, 64
2, 429276, Note_on_c, 0, 79, 45
2, 429304, Control_c, 0, 64, 0
2, 429315, Note_on_c, 0, 55, 87
2, 429315, Note_on_c, 0, 43, 81
2, 429325, Note_off_c, 0, 79, 64
2, 429333, Control_c, 0, 64, 127
2, 429345, Note_off_c, 0, 43, 64
2, 429345, Note_off_c, 0, 55, 64
2, 429410, Control_c, 0, 64, 0
2, 429440, Note_on_c, 0, 43, 83
2, 429445, Note_on_c, 0, 55, 81
2, 429459, Control_c, 0, 64, 127
2, 429470, Note_off_c, 0, 43, 64
2, 429475, Note_off_c, 0, 55, 64
2, 429569, Note_on_c, 0, 55, 75
2, 429572, Note_on_c, 0, 43, 76
2, 429599, Note_off_c, 0, 55, 64
2, 429602, Note_off_c, 0, 43, 64
2, 429687, Note_on_c, 0, 55, 70
2, 429692, Note_on_c, 0, 43, 72
2, 429717, Note_off_c, 0, 55, 64
2, 429722, Note_off_c, 0, 43, 64
2, 429808, Note_on_c, 0, 55, 66
2, 429810, Note_on_c, 0, 43, 66
2, 429838, Note_off_c, 0, 55, 64
2, 429840, Note_off_c, 0, 43, 64
2, 429931, Note_on_c, 0, 43, 63
2, 429935, Note_on_c, 0, 55, 62
2, 429961, Note_off_c, 0, 43, 64
2, 429965, Note_off_c, 0, 55, 64
2, 430057, Note_on_c, 0, 55, 50
2, 430063, Note_on_c, 0, 43, 50
2, 430087, Note_off_c, 0, 55, 64
2, 430093, Note_off_c, 0, 43, 64
2, 430191, Note_on_c, 0, 55, 48
2, 430191, Note_on_c, 0, 43, 50
2, 430239, Note_off_c, 0, 43, 64
2, 430239, Note_off_c, 0, 55, 64
2, 430325, Note_on_c, 0, 55, 41
2, 430325, Note_on_c, 0, 43, 41
2, 430385, Note_off_c, 0, 43, 64
2, 430385, Note_off_c, 0, 55, 64
2, 430460, Note_on_c, 0, 43, 32
2, 430462, Note_on_c, 0, 55, 32
2, 430523, Note_off_c, 0, 43, 64
2, 430525, Note_off_c, 0, 55, 64
2, 430604, Note_on_c, 0, 55, 32
2, 430608, Note_on_c, 0, 43, 29
2, 430678, Note_off_c, 0, 55, 64
2, 430682, Note_off_c, 0, 43, 64
2, 430760, Note_on_c, 0, 43, 24
2, 430761, Note_on_c, 0, 55, 26
2, 430983, Control_c, 0, 64, 0
2, 431052, Note_off_c, 0, 43, 64
2, 431053, Note_off_c, 0, 55, 64
2, 433160, Control_c, 0, 64, 127
2, 433191, Control_c, 0, 64, 0
2, 433223, Note_on_c, 0, 65, 74
2, 433262, Control_c, 0, 64, 127
2, 433485, Note_on_c, 0, 74, 78
2, 433488, Note_on_c, 0, 77, 83
2, 433492, Note_on_c, 0, 34, 46
2, 433493, Note_on_c, 0, 46, 72
2, 433494, Note_off_c, 0, 65, 64
2, 433496, Note_on_c, 0, 58, 46
2, 433511, Control_c, 0, 64, 0
2, 433520, Control_c, 0, 64, 127
2, 433551, Control_c, 0, 64, 0
2, 433564, Control_c, 0, 64, 127
2, 433597, Note_off_c, 0, 58, 64
2, 433732, Note_off_c, 0, 34, 64
2, 433733, Note_off_c, 0, 46, 64
2, 433754, Note_on_c, 0, 58, 61
2, 433757, Note_on_c, 0, 53, 53
2, 433761, Note_on_c, 0, 62, 53
2, 433827, Note_off_c, 0, 53, 64
2, 433835, Note_off_c, 0, 58, 64
2, 433849, Note_off_c, 0, 62, 64
2, 433892, Note_off_c, 0, 74, 64
2, 433894, Note_on_c, 0, 76, 75
2, 433896, Note_on_c, 0, 73, 79
2, 433926, Note_off_c, 0, 77, 64
2, 433992, Note_on_c, 0, 74, 58
2, 433997, Note_on_c, 0, 77, 74
2, 434006, Note_off_c, 0, 76, 64
2, 434008, Note_off_c, 0, 73, 64
2, 434038, Note_on_c, 0, 79, 76
2, 434044, Note_off_c, 0, 74, 64
2, 434053, Note_off_c, 0, 77, 64
2, 434064, Note_on_c, 0, 74, 80
2, 434064, Note_on_c, 0, 58, 36
2, 434066, Note_on_c, 0, 62, 42
2, 434067, Note_on_c, 0, 77, 80
2, 434072, Note_on_c, 0, 53, 45
2, 434088, Note_off_c, 0, 79, 64
2, 434110, Note_off_c, 0, 58, 64
2, 434115, Note_off_c, 0, 62, 64
2, 434121, Note_off_c, 0, 53, 64
2, 434182, Note_on_c, 0, 76, 83
2, 434187, Note_on_c, 0, 73, 88
2, 434194, Note_off_c, 0, 74, 64
2, 434197, Note_off_c, 0, 77, 64
2, 434305, Note_on_c, 0, 77, 81
2, 434307, Note_on_c, 0, 74, 88
2, 434313, Note_off_c, 0, 76, 64
2, 434314, Note_off_c, 0, 73, 64
2, 434317, Note_on_c, 0, 58, 62
2, 434320, Note_on_c, 0, 46, 68
2, 434326, Control_c, 0, 64, 0
2, 434359, Control_c, 0, 64, 127
2, 434413, Note_off_c, 0, 46, 64
2, 434430, Note_off_c, 0, 58, 64
2, 434491, Note_on_c, 0, 70, 84
2, 434523, Note_off_c, 0, 70, 64
2, 434544, Note_on_c, 0, 75, 83
2, 434546, Note_on_c, 0, 67, 88
2, 434552, Note_on_c, 0, 70, 96
2, 434559, Note_on_c, 0, 58, 67
2, 434562, Note_on_c, 0, 51, 74
2, 434567, Note_off_c, 0, 74, 64
2, 434573, Control_c, 0, 64, 0
2, 434577, Note_off_c, 0, 77, 64
2, 434606, Control_c, 0, 64, 127
2, 434665, Note_off_c, 0, 51, 64
2, 434697, Note_off_c, 0, 58, 64
2, 434794, Note_on_c, 0, 65, 78
2, 434795, Note_on_c, 0, 74, 85
2, 434804, Note_on_c, 0, 58, 59
2, 434807, Note_on_c, 0, 46, 72
2, 434818, Note_off_c, 0, 75, 64
2, 434820, Note_off_c, 0, 67, 64
2, 434820, Control_c, 0, 64, 0
2, 434826, Note_off_c, 0, 70, 64
2, 434851, Control_c, 0, 64, 127
2, 434868, Note_off_c, 0, 58, 64
2, 434880, Note_off_c, 0, 46, 64
2, 435059, Note_on_c, 0, 72, 80
2, 435059, Note_on_c, 0, 41, 65
2, 435061, Note_on_c, 0, 63, 88
2, 435061, Note_on_c, 0, 29, 66
2, 435081, Note_off_c, 0, 65, 64
2, 435082, Note_off_c, 0, 74, 64
2, 435082, Control_c, 0, 64, 0
2, 435123, Control_c, 0, 64, 127
2, 435299, Note_off_c, 0, 41, 64
2, 435301, Note_off_c, 0, 29, 64
2, 435312, Note_on_c, 0, 53, 63
2, 435316, Note_on_c, 0, 57, 57
2, 435332, Control_c, 0, 64, 0
2, 435361, Control_c, 0, 64, 127
2, 435414, Note_on_c, 0, 75, 74
2, 435420, Note_on_c, 0, 67, 72
2, 435441, Note_off_c, 0, 63, 64
2, 435447, Note_off_c, 0, 72, 64
2, 435528, Note_on_c, 0, 74, 75
2, 435528, Note_on_c, 0, 65, 70
2, 435540, Note_off_c, 0, 67, 64
2, 435554, Note_off_c, 0, 75, 64
2, 435587, Note_off_c, 0, 57, 64
2, 435591, Note_off_c, 0, 53, 64
2, 435635, Note_on_c, 0, 72, 63
2, 435636, Note_on_c, 0, 63, 84
2, 435655, Note_off_c, 0, 65, 64
2, 435655, Note_off_c, 0, 74, 64
2, 435750, Note_on_c, 0, 65, 81
2, 435752, Note_on_c, 0, 74, 71
2, 435754, Note_on_c, 0, 34, 68
2, 435761, Note_on_c, 0, 46, 59
2, 435768, Control_c, 0, 64, 0
2, 435776, Note_off_c, 0, 63, 64
2, 435782, Note_off_c, 0, 72, 64
2, 435810, Control_c, 0, 64, 127
2, 435910, Note_off_c, 0, 65, 64
2, 435948, Note_on_c, 0, 65, 79
2, 435972, Note_off_c, 0, 46, 64
2, 435984, Note_on_c, 0, 46, 62
2, 435988, Note_on_c, 0, 62, 83
2, 435990, Note_on_c, 0, 70, 84
2, 435990, Note_on_c, 0, 58, 68
2, 435994, Note_off_c, 0, 65, 64
2, 435994, Note_off_c, 0, 34, 64
2, 435995, Note_on_c, 0, 53, 58
2, 435999, Control_c, 0, 64, 0
2, 436029, Note_off_c, 0, 74, 64
2, 436033, Control_c, 0, 64, 127
2, 436072, Note_off_c, 0, 46, 64
2, 436088, Note_off_c, 0, 58, 64
2, 436091, Note_off_c, 0, 53, 64
2, 436222, Note_on_c, 0, 74, 71
2, 436222, Note_on_c, 0, 65, 68
2, 436225, Note_off_c, 0, 70, 64
2, 436225, Note_on_c, 0, 46, 61
2, 436231, Note_on_c, 0, 58, 66
2, 436234, Note_on_c, 0, 53, 59
2, 436241, Note_off_c, 0, 62, 64
2, 436274, Note_off_c, 0, 53, 64
2, 436284, Note_off_c, 0, 58, 64
2, 436287, Note_off_c, 0, 46, 64
2, 436448, Note_off_c, 0, 65, 64
2, 436448, Note_off_c, 0, 74, 64
2, 436457, Note_on_c, 0, 77, 85
2, 436463, Note_on_c, 0, 74, 80
2, 436463, Note_on_c, 0, 34, 76
2, 436467, Note_on_c, 0, 46, 72
2, 436474, Control_c, 0, 64, 0
2, 436507, Control_c, 0, 64, 127
2, 436638, Note_off_c, 0, 77, 64
2, 436644, Note_off_c, 0, 74, 64
2, 436644, Note_on_c, 0, 77, 83
2, 436645, Note_on_c, 0, 74, 71
2, 436668, Note_off_c, 0, 74, 64
2, 436670, Note_off_c, 0, 77, 64
2, 436690, Note_on_c, 0, 77, 88
2, 436695, Note_on_c, 0, 74, 79
2, 436695, Note_on_c, 0, 62, 58
2, 436696, Note_on_c, 0, 58, 67
2, 436702, Note_on_c, 0, 53, 48
2, 436703, Note_off_c, 0, 34, 64
2, 436707, Note_off_c, 0, 46, 64
2, 436751, Note_off_c, 0, 58, 64
2, 436759, Note_off_c, 0, 53, 64
2, 436762, Note_off_c, 0, 62, 64
2, 436817, Note_off_c, 0, 77, 64
2, 436851, Note_off_c, 0, 74, 64
2, 436859, Note_on_c, 0, 77, 84
2, 436860, Note_on_c, 0, 74, 76
2, 436889, Note_on_c, 0, 79, 74
2, 436906, Note_off_c, 0, 77, 64
2, 436907, Note_off_c, 0, 74, 64
2, 436922, Note_on_c, 0, 74, 80
2, 436924, Note_on_c, 0, 77, 83
2, 436925, Note_on_c, 0, 62, 70
2, 436927, Note_on_c, 0, 58, 74
2, 436927, Note_on_c, 0, 53, 70
2, 436949, Note_off_c, 0, 79, 64
2, 436968, Note_off_c, 0, 62, 64
2, 436971, Note_off_c, 0, 58, 64
2, 436980, Note_off_c, 0, 53, 64
2, 437036, Note_on_c, 0, 73, 89
2, 437038, Note_off_c, 0, 74, 64
2, 437039, Note_on_c, 0, 76, 83
2, 437040, Note_off_c, 0, 77, 64
2, 437152, Note_on_c, 0, 77, 88
2, 437155, Note_on_c, 0, 74, 96
2, 437155, Note_on_c, 0, 46, 74
2, 437159, Note_off_c, 0, 73, 64
2, 437160, Note_on_c, 0, 58, 72
2, 437162, Note_off_c, 0, 76, 64
2, 437187, Control_c, 0, 64, 0
2, 437198, Control_c, 0, 64, 127
2, 437306, Note_off_c, 0, 46, 64
2, 437319, Note_off_c, 0, 58, 64
2, 437321, Note_on_c, 0, 70, 101
2, 437339, Note_off_c, 0, 77, 64
2, 437351, Note_off_c, 0, 74, 64
2, 437354, Note_off_c, 0, 70, 64
2, 437372, Note_on_c, 0, 70, 98
2, 437378, Note_on_c, 0, 67, 94
2, 437383, Note_on_c, 0, 75, 92
2, 437387, Note_on_c, 0, 58, 66
2, 437391, Note_on_c, 0, 51, 63
2, 437400, Control_c, 0, 64, 0
2, 437455, Control_c, 0, 64, 127
2, 437501, Note_off_c, 0, 51, 64
2, 437515, Note_off_c, 0, 58, 64
2, 437631, Note_off_c, 0, 70, 64
2, 437632, Note_on_c, 0, 58, 74
2, 437632, Note_on_c, 0, 46, 79
2, 437633, Note_on_c, 0, 74, 88
2, 437639, Note_on_c, 0, 70, 79
2, 437640, Note_on_c, 0, 65, 83
2, 437645, Note_off_c, 0, 67, 64
2, 437648, Control_c, 0, 64, 0
2, 437650, Note_off_c, 0, 75, 64
2, 437676, Note_off_c, 0, 58, 64
2, 437689, Control_c, 0, 64, 127
2, 437698, Note_off_c, 0, 46, 64
2, 437845, Note_off_c, 0, 70, 64
2, 437872, Note_on_c, 0, 70, 80
2, 437872, Note_on_c, 0, 63, 74
2, 437878, Note_on_c, 0, 72, 83
2, 437885, Note_on_c, 0, 41, 71
2, 437885, Note_on_c, 0, 29, 75
2, 437890, Note_off_c, 0, 74, 64
2, 437903, Control_c, 0, 64, 0
2, 437906, Note_off_c, 0, 65, 64
2, 437947, Control_c, 0, 64, 127
2, 438045, Note_off_c, 0, 70, 64
2, 438121, Note_on_c, 0, 60, 62
2, 438125, Note_off_c, 0, 29, 64
2, 438125, Note_off_c, 0, 41, 64
2, 438126, Note_on_c, 0, 53, 53
2, 438130, Note_on_c, 0, 69, 74
2, 438136, Note_off_c, 0, 63, 64
2, 438144, Control_c, 0, 64, 0
2, 438166, Control_c, 0, 64, 127
2, 438202, Note_off_c, 0, 72, 64
2, 438241, Note_on_c, 0, 75, 74
2, 438241, Note_on_c, 0, 67, 76
2, 438251, Note_off_c, 0, 69, 64
2, 438358, Note_on_c, 0, 65, 81
2, 438363, Note_on_c, 0, 74, 71
2, 438367, Note_off_c, 0, 75, 64
2, 438382, Note_off_c, 0, 67, 64
2, 438386, Note_off_c, 0, 60, 64
2, 438408, Note_off_c, 0, 53, 64
2, 438456, Note_on_c, 0, 72, 68
2, 438460, Note_off_c, 0, 65, 64
2, 438460, Note_on_c, 0, 63, 83
2, 438483, Note_off_c, 0, 74, 64
2, 438572, Note_on_c, 0, 46, 62
2, 438574, Note_on_c, 0, 65, 81
2, 438576, Note_on_c, 0, 74, 70
2, 438576, Note_on_c, 0, 34, 71
2, 438577, Note_off_c, 0, 72, 64
2, 438578, Control_c, 0, 64, 0
2, 438586, Note_off_c, 0, 63, 64
2, 438628, Control_c, 0, 64, 127
2, 438702, Note_off_c, 0, 65, 64
2, 438751, Note_off_c, 0, 74, 64
2, 438760, Note_on_c, 0, 65, 74
2, 438799, Note_off_c, 0, 65, 64
2, 438804, Note_on_c, 0, 65, 68
2, 438804, Note_on_c, 0, 62, 80
2, 438810, Note_on_c, 0, 70, 79
2, 438810, Control_c, 0, 64, 0
2, 438812, Note_off_c, 0, 46, 64
2, 438816, Note_off_c, 0, 34, 64
2, 438818, Note_on_c, 0, 58, 72
2, 438818, Note_on_c, 0, 53, 65
2, 438818, Note_on_c, 0, 46, 52
2, 438842, Control_c, 0, 64, 127
2, 438855, Note_off_c, 0, 46, 64
2, 438863, Note_off_c, 0, 58, 64
2, 438872, Note_off_c, 0, 53, 64
2, 439020, Note_off_c, 0, 65, 64
2, 439028, Note_off_c, 0, 62, 64
2, 439029, Note_on_c, 0, 74, 72
2, 439029, Note_on_c, 0, 58, 61
2, 439032, Note_on_c, 0, 62, 55
2, 439034, Note_on_c, 0, 65, 70
2, 439034, Note_on_c, 0, 46, 66
2, 439036, Note_off_c, 0, 70, 64
2, 439065, Note_off_c, 0, 58, 64
2, 439082, Note_off_c, 0, 46, 64
2, 439233, Control_c, 0, 64, 0
2, 439259, Note_off_c, 0, 74, 64
2, 439262, Note_off_c, 0, 62, 64
2, 439262, Note_on_c, 0, 60, 111
2, 439264, Note_off_c, 0, 65, 64
2, 439266, Note_on_c, 0, 48, 104
2, 439266, Note_on_c, 0, 36, 115
2, 439312, Control_c, 0, 64, 127
2, 439502, Note_off_c, 0, 60, 64
2, 439550, Note_on_c, 0, 76, 71
2, 439552, Note_on_c, 0, 82, 115
2, 439552, Note_on_c, 0, 70, 81
2, 439553, Note_on_c, 0, 67, 59
2, 439553, Note_on_c, 0, 60, 58
2, 439590, Control_c, 0, 64, 0
2, 439633, Control_c, 0, 64, 127
2, 439791, Note_off_c, 0, 67, 64
2, 439800, Note_off_c, 0, 60, 64
2, 439887, Note_off_c, 0, 70, 64
2, 439896, Note_off_c, 0, 76, 64
2, 439911, Note_on_c, 0, 81, 96
2, 439911, Note_on_c, 0, 70, 80
2, 439912, Note_on_c, 0, 67, 65
2, 439916, Note_on_c, 0, 76, 66
2, 439916, Note_on_c, 0, 60, 62
2, 439926, Note_off_c, 0, 82, 64
2, 439970, Note_off_c, 0, 67, 64
2, 439975, Note_off_c, 0, 70, 64
2, 439978, Note_off_c, 0, 60, 64
2, 439980, Note_off_c, 0, 76, 64
2, 440024, Note_on_c, 0, 76, 71
2, 440024, Note_on_c, 0, 67, 66
2, 440025, Note_on_c, 0, 78, 89
2, 440027, Note_on_c, 0, 70, 101
2, 440029, Note_on_c, 0, 60, 63
2, 440032, Note_off_c, 0, 81, 64
2, 440041, Control_c, 0, 64, 0
2, 440057, Control_c, 0, 64, 127
2, 440103, Note_off_c, 0, 67, 64
2, 440129, Note_off_c, 0, 60, 64
2, 440165, Note_off_c, 0, 70, 64
2, 440167, Note_off_c, 0, 76, 64
2, 440188, Note_on_c, 0, 67, 101
2, 440192, Note_on_c, 0, 70, 92
2, 440192, Note_on_c, 0, 60, 66
2, 440198, Note_on_c, 0, 76, 76
2, 440201, Note_on_c, 0, 79, 81
2, 440202, Note_off_c, 0, 78, 64
2, 440211, Note_off_c, 0, 60, 64
2, 440220, Note_off_c, 0, 70, 64
2, 440222, Note_off_c, 0, 76, 64
2, 440225, Note_off_c, 0, 67, 64
2, 440232, Note_on_c, 0, 60, 62
2, 440240, Note_on_c, 0, 76, 75
2, 440240, Note_on_c, 0, 70, 102
2, 440240, Note_on_c, 0, 67, 61
2, 440241, Note_on_c, 0, 81, 111
2, 440248, Note_off_c, 0, 79, 64
2, 440397, Control_c, 0, 64, 0
2, 440430, Note_off_c, 0, 67, 64
2, 440433, Control_c, 0, 64, 127
2, 440436, Note_off_c, 0, 76, 64
2, 440451, Note_off_c, 0, 70, 64
2, 440456, Note_off_c, 0, 60, 64
2, 440472, Note_on_c, 0, 70, 102
2, 440474, Note_on_c, 0, 79, 111
2, 440476, Note_off_c, 0, 81, 64
2, 440476, Note_on_c, 0, 76, 70
2, 440476, Note_on_c, 0, 67, 74
2, 440477, Note_on_c, 0, 60, 66
2, 440481, Note_off_c, 0, 36, 64
2, 440481, Note_off_c, 0, 48, 64
2, 440593, Note_off_c, 0, 67, 64
2, 440598, Note_off_c, 0, 60, 64
2, 440605, Note_off_c, 0, 76, 64
2, 440605, Note_off_c, 0, 79, 64
2, 440614, Note_off_c, 0, 70, 64
2, 440702, Note_on_c, 0, 60, 88
2, 440706, Note_on_c, 0, 36, 88
2, 440709, Note_on_c, 0, 48, 88
2, 440715, Control_c, 0, 64, 0
2, 440751, Control_c, 0, 64, 127
2, 440942, Note_off_c, 0, 60, 64
2, 440957, Note_on_c, 0, 76, 92
2, 440957, Note_on_c, 0, 70, 89
2, 440964, Note_on_c, 0, 81, 107
2, 440965, Note_on_c, 0, 67, 84
2, 440965, Note_on_c, 0, 60, 80
2, 441012, Control_c, 0, 64, 0
2, 441048, Control_c, 0, 64, 127
2, 441274, Note_off_c, 0, 70, 64
2, 441274, Note_off_c, 0, 76, 64
2, 441282, Note_off_c, 0, 60, 64
2, 441282, Note_off_c, 0, 67, 64
2, 441302, Note_on_c, 0, 70, 80
2, 441304, Note_on_c, 0, 76, 101
2, 441305, Note_on_c, 0, 79, 96
2, 441306, Note_on_c, 0, 60, 76
2, 441311, Note_on_c, 0, 67, 76
2, 441328, Note_off_c, 0, 81, 64
2, 441351, Note_off_c, 0, 36, 64
2, 441354, Note_off_c, 0, 48, 64
2, 441369, Note_off_c, 0, 67, 64
2, 441375, Note_off_c, 0, 76, 64
2, 441381, Note_off_c, 0, 70, 64
2, 441388, Note_off_c, 0, 60, 64
2, 441409, Note_on_c, 0, 69, 92
2, 441409, Note_on_c, 0, 65, 84
2, 441412, Note_on_c, 0, 60, 72
2, 441416, Note_on_c, 0, 77, 115
2, 441419, Note_on_c, 0, 53, 81
2, 441426, Note_off_c, 0, 79, 64
2, 441435, Control_c, 0, 64, 0
2, 441448, Control_c, 0, 64, 127
2, 441484, Note_off_c, 0, 60, 64
2, 441505, Note_off_c, 0, 77, 64
2, 441521, Note_off_c, 0, 53, 64
2, 441529, Note_off_c, 0, 65, 64
2, 441530, Note_off_c, 0, 69, 64
2, 441596, Note_on_c, 0, 70, 94
2, 441596, Note_on_c, 0, 65, 93
2, 441596, Note_on_c, 0, 62, 83
2, 441600, Note_on_c, 0, 74, 89
2, 441627, Note_off_c, 0, 65, 64
2, 441632, Control_c, 0, 64, 0
2, 441641, Note_on_c, 0, 60, 74
2, 441642, Note_on_c, 0, 69, 94
2, 441644, Note_on_c, 0, 65, 72
2, 441648, Note_on_c, 0, 72, 94
2, 441648, Note_on_c, 0, 53, 68
2, 441660, Note_off_c, 0, 70, 64
2, 441670, Note_off_c, 0, 62, 64
2, 441672, Note_off_c, 0, 74, 64
2, 441677, Control_c, 0, 64, 127
2, 441844, Note_off_c, 0, 53, 64
2, 441845, Note_off_c, 0, 69, 64
2, 441863, Note_off_c, 0, 60, 64
2, 441866, Note_off_c, 0, 72, 64
2, 441885, Note_off_c, 0, 65, 64
2, 441886, Note_on_c, 0, 77, 94
2, 441888, Note_on_c, 0, 69, 94
2, 441888, Control_c, 0, 64, 0
2, 441896, Note_on_c, 0, 60, 72
2, 441897, Note_on_c, 0, 65, 87
2, 441897, Note_on_c, 0, 53, 80
2, 441922, Control_c, 0, 64, 127
2, 442001, Control_c, 0, 64, 0
2, 442037, Control_c, 0, 64, 127
2, 442065, Note_off_c, 0, 65, 64
2, 442090, Note_off_c, 0, 69, 64
2, 442093, Note_off_c, 0, 60, 64
2, 442099, Note_off_c, 0, 77, 64
2, 442118, Note_off_c, 0, 53, 64
2, 442126, Note_on_c, 0, 60, 96
2, 442132, Note_on_c, 0, 36, 101
2, 442136, Note_on_c, 0, 48, 101
2, 442149, Control_c, 0, 64, 0
2, 442161, Control_c, 0, 64, 127
2, 442366, Note_off_c, 0, 60, 64
2, 442377, Note_on_c, 0, 82, 126
2, 442380, Note_on_c, 0, 76, 93
2, 442380, Note_on_c, 0, 70, 93
2, 442381, Note_on_c, 0, 67, 85
2, 442381, Note_on_c, 0, 60, 74
2, 442402, Control_c, 0, 64, 0
2, 442453, Control_c, 0, 64, 127
2, 442594, Note_off_c, 0, 70, 64
2, 442617, Note_off_c, 0, 67, 64
2, 442619, Note_off_c, 0, 60, 64
2, 442661, Note_off_c, 0, 76, 64
2, 442704, Note_on_c, 0, 70, 75
2, 442709, Note_on_c, 0, 81, 87
2, 442709, Note_on_c, 0, 76, 75
2, 442714, Note_on_c, 0, 60, 50
2, 442718, Note_on_c, 0, 67, 61
2, 442723, Note_off_c, 0, 82, 64
2, 442747, Note_off_c, 0, 70, 64
2, 442755, Note_off_c, 0, 76, 64
2, 442761, Note_off_c, 0, 67, 64
2, 442761, Note_off_c, 0, 60, 64
2, 442770, Note_off_c, 0, 81, 64
2, 442803, Control_c, 0, 64, 0
2, 442808, Note_on_c, 0, 67, 54
2, 442809, Note_on_c, 0, 60, 55
2, 442817, Note_on_c, 0, 78, 96
2, 442817, Note_on_c, 0, 70, 92
2, 442820, Note_on_c, 0, 76, 101
2, 442846, Control_c, 0, 64, 127
2, 442893, Control_c, 0, 64, 0
2, 442929, Control_c, 0, 64, 127
2, 442945, Note_off_c, 0, 76, 64
2, 442966, Note_on_c, 0, 70, 94
2, 442969, Note_off_c, 0, 60, 64
2, 442971, Note_off_c, 0, 67, 64
2, 442971, Note_on_c, 0, 79, 92
2, 442975, Note_off_c, 0, 70, 64
2, 442975, Note_off_c, 0, 78, 64
2, 442976, Note_on_c, 0, 76, 85
2, 442976, Note_on_c, 0, 67, 80
2, 442979, Note_on_c, 0, 60, 74
2, 442996, Note_off_c, 0, 70, 64
2, 443008, Note_off_c, 0, 76, 64
2, 443017, Note_off_c, 0, 67, 64
2, 443020, Note_off_c, 0, 60, 64
2, 443021, Note_off_c, 0, 79, 64
2, 443022, Note_on_c, 0, 81, 115
2, 443026, Note_on_c, 0, 76, 93
2, 443026, Note_on_c, 0, 70, 105
2, 443026, Control_c, 0, 64, 0
2, 443036, Note_on_c, 0, 67, 72
2, 443036, Note_on_c, 0, 60, 67
2, 443048, Control_c, 0, 64, 127
2, 443166, Note_off_c, 0, 76, 64
2, 443189, Note_off_c, 0, 60, 64
2, 443196, Note_off_c, 0, 70, 64
2, 443213, Note_off_c, 0, 67, 64
2, 443241, Note_on_c, 0, 70, 97
2, 443246, Note_on_c, 0, 79, 111
2, 443249, Note_on_c, 0, 67, 65
2, 443251, Note_on_c, 0, 60, 66
2, 443258, Control_c, 0, 64, 0
2, 443264, Note_off_c, 0, 81, 64
2, 443271, Control_c, 0, 64, 127
2, 443347, Note_off_c, 0, 36, 64
2, 443351, Note_off_c, 0, 48, 64
2, 443401, Note_off_c, 0, 60, 64
2, 443417, Note_off_c, 0, 67, 64
2, 443449, Note_off_c, 0, 70, 64
2, 443454, Note_off_c, 0, 79, 64
2, 443460, Note_on_c, 0, 84, 83
2, 443465, Note_on_c, 0, 69, 70
2, 443467, Note_on_c, 0, 75, 81
2, 443467, Note_on_c, 0, 65, 80
2, 443480, Control_c, 0, 64, 0
2, 443514, Control_c, 0, 64, 127
2, 443586, Note_off_c, 0, 84, 64
2, 443593, Note_off_c, 0, 65, 64
2, 443593, Note_off_c, 0, 75, 64
2, 443601, Note_off_c, 0, 69, 64
2, 443610, Note_on_c, 0, 68, 72
2, 443616, Note_on_c, 0, 58, 66
2, 443621, Note_on_c, 0, 77, 79
2, 443621, Note_on_c, 0, 74, 78
2, 443670, Note_on_c, 0, 63, 78
2, 443671, Note_off_c, 0, 58, 64
2, 443675, Note_off_c, 0, 68, 64
2, 443678, Note_on_c, 0, 67, 81
2, 443680, Note_on_c, 0, 82, 88
2, 443687, Note_off_c, 0, 77, 64
2, 443687, Note_on_c, 0, 73, 84
2, 443687, Control_c, 0, 64, 0
2, 443696, Note_off_c, 0, 74, 64
2, 443723, Control_c, 0, 64, 127
2, 443820, Note_off_c, 0, 67, 64
2, 443857, Note_off_c, 0, 63, 64
2, 443890, Note_off_c, 0, 73, 64
2, 443899, Note_on_c, 0, 75, 76
2, 443903, Note_on_c, 0, 72, 75
2, 443906, Note_on_c, 0, 56, 72
2, 443911, Note_on_c, 0, 66, 70
2, 443920, Control_c, 0, 64, 0
2, 443946, Note_off_c, 0, 82, 64
2, 443962, Control_c, 0, 64, 127
2, 444051, Note_off_c, 0, 56, 64
2, 444093, Note_off_c, 0, 66, 64
2, 444110, Note_off_c, 0, 72, 64
2, 444119, Control_c, 0, 64, 0
2, 444126, Note_on_c, 0, 62, 67
2, 444128, Note_on_c, 0, 80, 74
2, 444128, Note_on_c, 0, 72, 71
2, 444133, Note_on_c, 0, 65, 67
2, 444138, Note_off_c, 0, 75, 64
2, 444154, Control_c, 0, 64, 127
2, 444221, Note_off_c, 0, 62, 64
2, 444224, Note_off_c, 0, 65, 64
2, 444232, Note_off_c, 0, 72, 64
2, 444273, Note_off_c, 0, 80, 64
2, 444277, Note_on_c, 0, 55, 59
2, 444283, Note_on_c, 0, 65, 63
2, 444289, Note_on_c, 0, 71, 53
2, 444290, Note_on_c, 0, 74, 63
2, 444319, Note_off_c, 0, 71, 64
2, 444322, Note_off_c, 0, 55, 64
2, 444336, Note_off_c, 0, 74, 64
2, 444342, Note_on_c, 0, 70, 79
2, 444351, Note_on_c, 0, 79, 62
2, 444351, Control_c, 0, 64, 0
2, 444358, Note_on_c, 0, 60, 58
2, 444360, Note_off_c, 0, 65, 64
2, 444360, Note_on_c, 0, 64, 57
2, 444398, Control_c, 0, 64, 127
2, 444576, Note_on_c, 0, 72, 71
2, 444578, Note_on_c, 0, 69, 66
2, 444580, Note_on_c, 0, 63, 55
2, 444584, Note_off_c, 0, 60, 64
2, 444587, Note_on_c, 0, 53, 57
2, 444590, Note_off_c, 0, 64, 64
2, 444596, Control_c, 0, 64, 0
2, 444614, Note_off_c, 0, 70, 64
2, 444633, Control_c, 0, 64, 127
2, 444648, Note_off_c, 0, 79, 64
2, 444823, Note_off_c, 0, 63, 64
2, 444828, Note_off_c, 0, 72, 64
2, 444836, Note_off_c, 0, 69, 64
2, 444846, Note_off_c, 0, 53, 64
2, 444851, Note_on_c, 0, 77, 78
2, 444851, Note_on_c, 0, 74, 75
2, 444851, Note_on_c, 0, 68, 66
2, 444855, Note_on_c, 0, 46, 75
2, 444859, Note_on_c, 0, 34, 70
2, 444874, Control_c, 0, 64, 0
2, 444938, Control_c, 0, 64, 127
2, 445002, Note_off_c, 0, 68, 64
2, 445075, Note_on_c, 0, 68, 85
2, 445076, Note_on_c, 0, 65, 71
2, 445080, Note_on_c, 0, 58, 67
2, 445095, Note_off_c, 0, 46, 64
2, 445099, Note_off_c, 0, 34, 64
2, 445107, Note_off_c, 0, 65, 64
2, 445113, Note_off_c, 0, 58, 64
2, 445166, Note_off_c, 0, 68, 64
2, 445199, Note_on_c, 0, 79, 78
2, 445232, Note_off_c, 0, 77, 64
2, 445272, Note_off_c, 0, 74, 64
2, 445295, Note_on_c, 0, 77, 72
2, 445307, Note_off_c, 0, 79, 64
2, 445324, Note_on_c, 0, 79, 83
2, 445331, Note_off_c, 0, 77, 64
2, 445343, Note_on_c, 0, 58, 49
2, 445347, Note_on_c, 0, 65, 48
2, 445353, Note_on_c, 0, 77, 89
2, 445359, Note_on_c, 0, 74, 88
2, 445359, Note_on_c, 0, 68, 83
2, 445359, Control_c, 0, 64, 0
2, 445376, Note_off_c, 0, 79, 64
2, 445386, Control_c, 0, 64, 127
2, 445408, Note_off_c, 0, 58, 64
2, 445416, Note_off_c, 0, 65, 64
2, 445496, Note_on_c, 0, 73, 74
2, 445499, Note_on_c, 0, 76, 79
2, 445501, Note_off_c, 0, 68, 64
2, 445515, Note_off_c, 0, 77, 64
2, 445524, Note_off_c, 0, 74, 64
2, 445605, Note_on_c, 0, 77, 74
2, 445605, Note_on_c, 0, 74, 75
2, 445609, Note_off_c, 0, 73, 64
2, 445614, Note_on_c, 0, 58, 49
2, 445614, Note_on_c, 0, 46, 70
2, 445616, Note_off_c, 0, 76, 64
2, 445621, Note_on_c, 0, 68, 67
2, 445637, Control_c, 0, 64, 0
2, 445673, Control_c, 0, 64, 127
2, 445719, Note_off_c, 0, 46, 64
2, 445732, Note_off_c, 0, 58, 64
2, 445743, Note_off_c, 0, 68, 64
2, 445772, Note_on_c, 0, 70, 88
2, 445800, Note_off_c, 0, 70, 64
2, 445823, Note_on_c, 0, 75, 81
2, 445831, Note_off_c, 0, 74, 64
2, 445834, Note_on_c, 0, 70, 94
2, 445834, Note_on_c, 0, 58, 68
2, 445834, Note_on_c, 0, 51, 67
2, 445839, Note_on_c, 0, 66, 89
2, 445840, Note_off_c, 0, 77, 64
2, 445859, Control_c, 0, 64, 0
2, 445902, Control_c, 0, 64, 127
2, 445932, Note_off_c, 0, 51, 64
2, 445955, Note_off_c, 0, 58, 64
2, 446005, Note_off_c, 0, 70, 64
2, 446036, Note_off_c, 0, 66, 64
2, 446066, Note_on_c, 0, 74, 83
2, 446066, Note_on_c, 0, 70, 80
2, 446066, Note_on_c, 0, 65, 74
2, 446072, Note_on_c, 0, 58, 66
2, 446072, Note_on_c, 0, 53, 74
2, 446078, Note_off_c, 0, 75, 64
2, 446092, Control_c, 0, 64, 0
2, 446136, Control_c, 0, 64, 127
2, 446193, Note_off_c, 0, 58, 64
2, 446197, Note_off_c, 0, 65, 64
2, 446213, Note_off_c, 0, 70, 64
2, 446220, Note_off_c, 0, 53, 64
2, 446293, Note_on_c, 0, 58, 70
2, 446296, Note_on_c, 0, 63, 89
2, 446301, Note_on_c, 0, 72, 74
2, 446305, Note_off_c, 0, 74, 64
2, 446305, Note_on_c, 0, 70, 80
2, 446309, Note_on_c, 0, 54, 55
2, 446325, Control_c, 0, 64, 0
2, 446368, Control_c, 0, 64, 127
2, 446373, Note_off_c, 0, 63, 64
2, 446528, Note_on_c, 0, 66, 84
2, 446532, Note_on_c, 0, 51, 70
2, 446538, Control_c, 0, 64, 0
2, 446551, Note_off_c, 0, 54, 64
2, 446584, Control_c, 0, 64, 127
2, 446609, Note_off_c, 0, 70, 64
2, 446626, Note_on_c, 0, 75, 79
2, 446635, Note_off_c, 0, 72, 64
2, 446687, Note_off_c, 0, 66, 64
2, 446739, Note_off_c, 0, 51, 64
2, 446744, Note_on_c, 0, 53, 72
2, 446747, Note_on_c, 0, 65, 71
2, 446750, Note_on_c, 0, 74, 80
2, 446751, Note_on_c, 0, 69, 70
2, 446763, Note_off_c, 0, 75, 64
2, 446764, Control_c, 0, 64, 0
2, 446800, Note_off_c, 0, 58, 64
2, 446802, Control_c, 0, 64, 127
2, 446834, Note_off_c, 0, 65, 64
2, 446845, Note_on_c, 0, 72, 68
2, 446855, Note_on_c, 0, 63, 88
2, 446865, Note_off_c, 0, 69, 64
2, 446886, Note_off_c, 0, 74, 64
2, 446898, Note_off_c, 0, 53, 64
2, 446939, Note_off_c, 0, 63, 64
2, 446966, Note_on_c, 0, 65, 83
2, 446969, Note_on_c, 0, 74, 75
2, 446974, Note_off_c, 0, 72, 64
2, 446977, Note_on_c, 0, 46, 80
2, 446977, Note_on_c, 0, 34, 70
2, 446990, Control_c, 0, 64, 0
2, 447036, Control_c, 0, 64, 127
2, 447083, Note_off_c, 0, 65, 64
2, 447133, Note_on_c, 0, 65, 88
2, 447137, Note_off_c, 0, 74, 64
2, 447168, Note_off_c, 0, 65, 64
2, 447180, Note_off_c, 0, 46, 64
2, 447192, Note_on_c, 0, 53, 83
2, 447192, Note_on_c, 0, 58, 92
2, 447195, Note_on_c, 0, 70, 89
2, 447196, Note_on_c, 0, 65, 74
2, 447196, Note_on_c, 0, 46, 70
2, 447200, Note_on_c, 0, 62, 88
2, 447204, Control_c, 0, 64, 0
2, 447217, Note_off_c, 0, 34, 64
2, 447244, Control_c, 0, 64, 127
2, 447321, Note_off_c, 0, 62, 64
2, 447341, Note_off_c, 0, 65, 64
2, 447352, Note_off_c, 0, 58, 64
2, 447356, Note_off_c, 0, 46, 64
2, 447363, Note_off_c, 0, 53, 64
2, 447404, Note_on_c, 0, 62, 46
2, 447404, Note_on_c, 0, 53, 72
2, 447405, Note_on_c, 0, 65, 80
2, 447405, Note_on_c, 0, 46, 83
2, 447406, Note_off_c, 0, 70, 64
2, 447408, Note_on_c, 0, 74, 81
2, 447410, Note_on_c, 0, 58, 88
2, 447424, Control_c, 0, 64, 127
2, 447455, Control_c, 0, 64, 0
2, 447541, Note_off_c, 0, 62, 64
2, 447594, Note_off_c, 0, 65, 64
2, 447624, Note_on_c, 0, 77, 81
2, 447625, Note_off_c, 0, 74, 64
2, 447632, Note_off_c, 0, 53, 64
2, 447639, Note_on_c, 0, 56, 72
2, 447640, Note_on_c, 0, 72, 80
2, 447640, Note_on_c, 0, 65, 71
2, 447640, Note_on_c, 0, 60, 75
2, 447648, Note_off_c, 0, 46, 64
2, 447648, Control_c, 0, 64, 0
2, 447657, Note_off_c, 0, 58, 64
2, 447722, Control_c, 0, 64, 127
2, 447746, Note_off_c, 0, 56, 64
2, 447751, Note_off_c, 0, 72, 64
2, 447778, Note_off_c, 0, 65, 64
2, 447782, Note_off_c, 0, 60, 64
2, 447853, Note_on_c, 0, 72, 57
2, 447858, Note_on_c, 0, 60, 68
2, 447863, Note_on_c, 0, 65, 66
2, 447863, Note_on_c, 0, 56, 61
2, 447902, Note_off_c, 0, 56, 64
2, 447909, Note_off_c, 0, 72, 64
2, 447918, Note_off_c, 0, 60, 64
2, 447920, Note_off_c, 0, 65, 64
2, 447965, Note_on_c, 0, 79, 71
2, 447978, Note_off_c, 0, 77, 64
2, 448032, Note_on_c, 0, 77, 75
2, 448047, Note_off_c, 0, 79, 64
2, 448060, Note_on_c, 0, 79, 74
2, 448069, Note_off_c, 0, 77, 64
2, 448084, Note_on_c, 0, 77, 89
2, 448084, Note_on_c, 0, 72, 74
2, 448085, Note_on_c, 0, 60, 44
2, 448092, Note_on_c, 0, 65, 58
2, 448093, Note_on_c, 0, 56, 57
2, 448093, Control_c, 0, 64, 0
2, 448103, Note_off_c, 0, 79, 64
2, 448132, Control_c, 0, 64, 127
2, 448160, Note_off_c, 0, 56, 64
2, 448160, Note_off_c, 0, 60, 64
2, 448178, Note_off_c, 0, 65, 64
2, 448199, Note_on_c, 0, 76, 76
2, 448202, Note_off_c, 0, 77, 64
2, 448212, Note_off_c, 0, 72, 64
2, 448304, Note_on_c, 0, 77, 84
2, 448308, Note_on_c, 0, 71, 74
2, 448311, Note_on_c, 0, 62, 72
2, 448315, Note_on_c, 0, 55, 67
2, 448322, Note_off_c, 0, 76, 64
2, 448325, Control_c, 0, 64, 0
2, 448382, Control_c, 0, 64, 127
2, 448400, Note_off_c, 0, 55, 64
2, 448425, Note_off_c, 0, 62, 64
2, 448444, Note_off_c, 0, 71, 64
2, 448457, Note_off_c, 0, 77, 64
2, 448464, Note_on_c, 0, 71, 83
2, 448471, Note_on_c, 0, 62, 70
2, 448479, Note_on_c, 0, 55, 58
2, 448498, Note_off_c, 0, 71, 64
2, 448510, Note_on_c, 0, 75, 89
2, 448517, Note_on_c, 0, 71, 83
2, 448520, Note_on_c, 0, 67, 75
2, 448533, Control_c, 0, 64, 0
2, 448537, Note_off_c, 0, 62, 64
2, 448577, Control_c, 0, 64, 127
2, 448592, Note_off_c, 0, 55, 64
2, 448741, Note_off_c, 0, 67, 64
2, 448743, Note_off_c, 0, 71, 64
2, 448747, Note_on_c, 0, 65, 70
2, 448747, Note_on_c, 0, 55, 68
2, 448749, Note_on_c, 0, 74, 80
2, 448753, Note_on_c, 0, 71, 74
2, 448759, Note_off_c, 0, 75, 64
2, 448766, Control_c, 0, 64, 0
2, 448809, Control_c, 0, 64, 127
2, 448841, Note_off_c, 0, 55, 64
2, 448893, Note_off_c, 0, 65, 64
2, 448924, Note_off_c, 0, 71, 64
2, 448978, Note_on_c, 0, 72, 78
2, 448978, Note_on_c, 0, 70, 78
2, 448982, Note_on_c, 0, 60, 66
2, 448985, Note_on_c, 0, 64, 70
2, 448988, Note_off_c, 0, 74, 64
2, 448999, Control_c, 0, 64, 0
2, 449042, Control_c, 0, 64, 127
2, 449060, Note_off_c, 0, 64, 64
2, 449060, Note_off_c, 0, 60, 64
2, 449189, Note_off_c, 0, 70, 64
2, 449196, Note_on_c, 0, 69, 72
2, 449196, Note_on_c, 0, 63, 65
2, 449204, Note_on_c, 0, 53, 72
2, 449211, Control_c, 0, 64, 0
2, 449244, Control_c, 0, 64, 127
2, 449303, Note_on_c, 0, 75, 74
2, 449303, Note_on_c, 0, 67, 72
2, 449308, Note_off_c, 0, 72, 64
2, 449315, Note_off_c, 0, 63, 64
2, 449317, Note_off_c, 0, 53, 64
2, 449414, Note_on_c, 0, 65, 65
2, 449416, Control_c, 0, 64, 0
2, 449423, Note_on_c, 0, 74, 76
2, 449431, Control_c, 0, 64, 127
2, 449436, Note_off_c, 0, 75, 64
2, 449438, Note_off_c, 0, 67, 64
2, 449509, Note_on_c, 0, 72, 74
2, 449516, Note_off_c, 0, 65, 64
2, 449516, Note_on_c, 0, 63, 75
2, 449536, Note_off_c, 0, 69, 64
2, 449544, Note_off_c, 0, 74, 64
2, 449624, Note_on_c, 0, 58, 81
2, 449627, Note_on_c, 0, 62, 63
2, 449630, Note_on_c, 0, 74, 75
2, 449632, Note_on_c, 0, 70, 96
2, 449644, Control_c, 0, 64, 0
2, 449645, Note_off_c, 0, 63, 64
2, 449665, Note_off_c, 0, 72, 64
2, 449669, Control_c, 0, 64, 127
2, 449679, Note_off_c, 0, 58, 64
2, 449684, Note_off_c, 0, 70, 64
2, 449713, Note_off_c, 0, 62, 64
2, 449781, Note_on_c, 0, 53, 83
2, 449784, Note_on_c, 0, 65, 76
2, 449784, Note_on_c, 0, 60, 70
2, 449790, Note_on_c, 0, 72, 57
2, 449796, Note_off_c, 0, 74, 64
2, 449812, Note_off_c, 0, 65, 64
2, 449816, Control_c, 0, 64, 0
2, 449820, Note_off_c, 0, 60, 64
2, 449820, Note_off_c, 0, 53, 64
2, 449823, Note_off_c, 0, 72, 64
2, 449830, Note_on_c, 0, 62, 88
2, 449832, Note_on_c, 0, 70, 96
2, 449832, Note_on_c, 0, 58, 98
2, 449832, Note_on_c, 0, 46, 53
2, 449856, Control_c, 0, 64, 127
2, 449856, Control_c, 0, 64, 127
2, 449887, Control_c, 0, 64, 0
2, 450047, Note_off_c, 0, 62, 64
2, 450049, Note_off_c, 0, 46, 64
2, 450049, Note_off_c, 0, 58, 64
2, 450049, Note_off_c, 0, 70, 64
2, 450059, Note_on_c, 0, 82, 102
2, 450059, Note_on_c, 0, 46, 89
2, 450062, Note_on_c, 0, 70, 92
2, 450062, Note_on_c, 0, 34, 101
2, 450073, Control_c, 0, 64, 0
2, 450088, Control_c, 0, 64, 127
2, 450239, Note_off_c, 0, 46, 64
2, 450239, Note_off_c, 0, 82, 64
2, 450242, Note_off_c, 0, 34, 64
2, 450242, Note_off_c, 0, 70, 64
2, 450281, Note_on_c, 0, 60, 88
2, 450287, Note_on_c, 0, 48, 84
2, 450287, Note_on_c, 0, 36, 84
2, 450296, Control_c, 0, 64, 0
2, 450340, Control_c, 0, 64, 127
2, 450521, Note_off_c, 0, 60, 64
2, 450539, Note_on_c, 0, 82, 76
2, 450539, Note_on_c, 0, 70, 70
2, 450543, Note_on_c, 0, 76, 67
2, 450543, Note_on_c, 0, 67, 54
2, 450550, Note_on_c, 0, 60, 46
2, 450579, Control_c, 0, 64, 0
2, 450621, Control_c, 0, 64, 127
2, 450778, Note_off_c, 0, 60, 64
2, 450788, Note_off_c, 0, 67, 64
2, 450833, Note_off_c, 0, 70, 64
2, 450834, Note_off_c, 0, 76, 64
2, 450867, Note_on_c, 0, 81, 63
2, 450870, Note_on_c, 0, 70, 63
2, 450870, Note_on_c, 0, 60, 42
2, 450871, Note_on_c, 0, 76, 65
2, 450877, Note_on_c, 0, 67, 50
2, 450885, Note_off_c, 0, 82, 64
2, 450943, Note_off_c, 0, 70, 64
2, 450965, Note_off_c, 0, 67, 64
2, 450966, Note_off_c, 0, 76, 64
2, 450971, Note_off_c, 0, 60, 64
2, 450975, Note_on_c, 0, 78, 59
2, 450977, Note_on_c, 0, 60, 41
2, 450984, Note_on_c, 0, 76, 58
2, 450984, Note_on_c, 0, 70, 66
2, 450985, Note_on_c, 0, 67, 52
2, 451012, Note_off_c, 0, 81, 64
2, 451024, Note_off_c, 0, 76, 64
2, 451044, Note_off_c, 0, 70, 64
2, 451048, Note_off_c, 0, 67, 64
2, 451056, Note_off_c, 0, 60, 64
2, 451117, Note_off_c, 0, 78, 64
2, 451132, Note_on_c, 0, 76, 65
2, 451135, Note_on_c, 0, 79, 59
2, 451136, Note_on_c, 0, 70, 70
2, 451136, Note_on_c, 0, 67, 58
2, 451136, Note_on_c, 0, 60, 49
2, 451156, Note_off_c, 0, 76, 64
2, 451159, Note_off_c, 0, 67, 64
2, 451162, Note_off_c, 0, 70, 64
2, 451168, Note_off_c, 0, 60, 64
2, 451185, Note_on_c, 0, 81, 67
2, 451185, Note_on_c, 0, 76, 62
2, 451185, Note_on_c, 0, 70, 72
2, 451189, Note_on_c, 0, 60, 48
2, 451191, Note_off_c, 0, 79, 64
2, 451191, Note_on_c, 0, 67, 54
2, 451197, Control_c, 0, 64, 0
2, 451220, Control_c, 0, 64, 127
2, 451257, Note_off_c, 0, 67, 64
2, 451295, Note_off_c, 0, 60, 64
2, 451298, Note_off_c, 0, 76, 64
2, 451303, Note_off_c, 0, 70, 64
2, 451405, Note_on_c, 0, 70, 70
2, 451413, Note_on_c, 0, 79, 63
2, 451413, Note_on_c, 0, 76, 65
2, 451416, Note_on_c, 0, 67, 54
2, 451416, Note_on_c, 0, 60, 46
2, 451438, Note_off_c, 0, 81, 64
2, 451502, Note_off_c, 0, 36, 64
2, 451502, Note_off_c, 0, 48, 64
2, 451616, Note_off_c, 0, 67, 64
2, 451624, Note_off_c, 0, 60, 64
2, 451634, Note_on_c, 0, 36, 67
2, 451639, Note_on_c, 0, 60, 70
2, 451640, Note_on_c, 0, 48, 74
2, 451655, Control_c, 0, 64, 0
2, 451657, Note_off_c, 0, 79, 64
2, 451671, Note_off_c, 0, 70, 64
2, 451680, Control_c, 0, 64, 127
2, 451685, Note_off_c, 0, 76, 64
2, 451879, Note_off_c, 0, 60, 64
2, 451905, Note_on_c, 0, 70, 65
2, 451905, Note_on_c, 0, 67, 63
2, 451905, Note_on_c, 0, 60, 63
2, 451911, Note_on_c, 0, 81, 66
2, 451911, Note_on_c, 0, 76, 63
2, 451960, Control_c, 0, 64, 0
2, 451981, Control_c, 0, 64, 127
2, 452107, Note_off_c, 0, 60, 64
2, 452120, Note_off_c, 0, 67, 64
2, 452180, Note_off_c, 0, 76, 64
2, 452204, Note_off_c, 0, 70, 64
2, 452232, Note_on_c, 0, 79, 65
2, 452235, Note_on_c, 0, 70, 59
2, 452242, Note_on_c, 0, 67, 57
2, 452242, Note_on_c, 0, 60, 59
2, 452249, Note_off_c, 0, 36, 64
2, 452255, Note_off_c, 0, 48, 64
2, 452259, Note_off_c, 0, 81, 64
2, 452317, Note_off_c, 0, 67, 64
2, 452325, Note_off_c, 0, 70, 64
2, 452339, Note_off_c, 0, 60, 64
2, 452340, Note_on_c, 0, 69, 66
2, 452342, Note_on_c, 0, 65, 63
2, 452344, Note_on_c, 0, 60, 66
2, 452346, Note_on_c, 0, 53, 66
2, 452347, Note_on_c, 0, 77, 65
2, 452359, Control_c, 0, 64, 0
2, 452360, Note_off_c, 0, 79, 64
2, 452372, Control_c, 0, 64, 127
2, 452419, Note_off_c, 0, 60, 64
2, 452444, Note_off_c, 0, 53, 64
2, 452455, Note_off_c, 0, 65, 64
2, 452496, Note_on_c, 0, 65, 67
2, 452500, Note_on_c, 0, 70, 62
2, 452500, Note_on_c, 0, 62, 58
2, 452504, Note_on_c, 0, 53, 62
2, 452506, Note_on_c, 0, 74, 65
2, 452519, Note_off_c, 0, 77, 64
2, 452521, Note_off_c, 0, 69, 64
2, 452524, Control_c, 0, 64, 127
2, 452531, Note_off_c, 0, 53, 64
2, 452532, Note_off_c, 0, 62, 64
2, 452532, Note_off_c, 0, 65, 64
2, 452546, Note_off_c, 0, 70, 64
2, 452546, Note_on_c, 0, 69, 58
2, 452553, Note_on_c, 0, 72, 76
2, 452553, Note_on_c, 0, 60, 62
2, 452555, Control_c, 0, 64, 0
2, 452556, Note_on_c, 0, 65, 36
2, 452561, Note_off_c, 0, 74, 64
2, 452566, Control_c, 0, 64, 0
2, 452568, Note_on_c, 0, 53, 62
2, 452591, Control_c, 0, 64, 127
2, 452687, Note_off_c, 0, 69, 64
2, 452736, Note_off_c, 0, 60, 64
2, 452751, Note_off_c, 0, 53, 64
2, 452774, Note_on_c, 0, 77, 67
2, 452774, Note_on_c, 0, 60, 55
2, 452779, Note_off_c, 0, 72, 64
2, 452781, Note_on_c, 0, 69, 67
2, 452781, Note_on_c, 0, 65, 58
2, 452784, Note_on_c, 0, 53, 62
2, 452803, Note_off_c, 0, 65, 64
2, 452867, Note_off_c, 0, 65, 64
2, 452972, Note_off_c, 0, 77, 64
2, 452984, Note_off_c, 0, 60, 64
2, 452984, Control_c, 0, 64, 0
2, 452994, Note_off_c, 0, 53, 64
2, 452999, Note_off_c, 0, 69, 64
2, 453001, Note_on_c, 0, 36, 70
2, 453001, Note_on_c, 0, 60, 66
2, 453002, Note_on_c, 0, 48, 70
2, 453033, Control_c, 0, 64, 127
2, 453241, Note_off_c, 0, 60, 64
2, 453264, Note_on_c, 0, 70, 67
2, 453267, Note_on_c, 0, 82, 66
2, 453269, Note_on_c, 0, 60, 50
2, 453273, Note_on_c, 0, 76, 65
2, 453273, Note_on_c, 0, 67, 53
2, 453313, Control_c, 0, 64, 0
2, 453348, Control_c, 0, 64, 127
2, 453508, Note_off_c, 0, 60, 64
2, 453536, Note_off_c, 0, 70, 64
2, 453576, Note_off_c, 0, 76, 64
2, 453578, Note_off_c, 0, 67, 64
2, 453596, Note_on_c, 0, 70, 59
2, 453600, Note_on_c, 0, 81, 65
2, 453604, Note_on_c, 0, 76, 58
2, 453606, Note_on_c, 0, 67, 48
2, 453606, Note_on_c, 0, 60, 41
2, 453626, Note_off_c, 0, 82, 64
2, 453679, Note_off_c, 0, 70, 64
2, 453683, Note_off_c, 0, 76, 64
2, 453700, Note_off_c, 0, 60, 64
2, 453701, Note_off_c, 0, 67, 64
2, 453708, Note_on_c, 0, 76, 62
2, 453709, Control_c, 0, 64, 0
2, 453715, Note_on_c, 0, 78, 45
2, 453715, Note_on_c, 0, 70, 65
2, 453715, Note_on_c, 0, 60, 41
2, 453720, Note_on_c, 0, 67, 41
2, 453730, Note_off_c, 0, 81, 64
2, 453741, Control_c, 0, 64, 127
2, 453845, Note_off_c, 0, 67, 64
2, 453848, Note_off_c, 0, 60, 64
2, 453858, Note_off_c, 0, 70, 64
2, 453864, Note_off_c, 0, 76, 64
2, 453868, Note_on_c, 0, 76, 63
2, 453868, Note_on_c, 0, 70, 63
2, 453872, Note_on_c, 0, 76, 57
2, 453878, Note_on_c, 0, 67, 57
2, 453878, Note_on_c, 0, 60, 46
2, 453898, Note_off_c, 0, 78, 64
2, 453905, Note_off_c, 0, 70, 64
2, 453920, Note_off_c, 0, 67, 64
2, 453921, Note_on_c, 0, 81, 67
2, 453922, Note_off_c, 0, 60, 64
2, 453923, Note_on_c, 0, 70, 71
2, 453925, Note_on_c, 0, 76, 48
2, 453930, Note_on_c, 0, 67, 57
2, 453933, Note_on_c, 0, 60, 46
2, 453970, Note_off_c, 0, 76, 64
2, 453970, Note_off_c, 0, 76, 64
2, 454032, Note_off_c, 0, 67, 64
2, 454081, Note_off_c, 0, 60, 64
2, 454088, Note_off_c, 0, 76, 64
2, 454113, Note_off_c, 0, 70, 64
2, 454138, Note_on_c, 0, 70, 71
2, 454140, Note_on_c, 0, 67, 54
2, 454141, Note_on_c, 0, 79, 67
2, 454144, Note_on_c, 0, 60, 41
2, 454157, Note_off_c, 0, 81, 64
2, 454216, Note_off_c, 0, 36, 64
2, 454217, Note_off_c, 0, 48, 64
2, 454351, Note_off_c, 0, 70, 64
2, 454368, Note_on_c, 0, 84, 55
2, 454372, Note_on_c, 0, 75, 63
2, 454372, Note_on_c, 0, 65, 54
2, 454376, Note_on_c, 0, 69, 53
2, 454385, Note_off_c, 0, 79, 64
2, 454389, Control_c, 0, 64, 0
2, 454393, Note_off_c, 0, 67, 64
2, 454402, Note_off_c, 0, 60, 64
2, 454419, Control_c, 0, 64, 127
2, 454488, Note_off_c, 0, 69, 64
2, 454508, Note_off_c, 0, 65, 64
2, 454512, Note_on_c, 0, 58, 55
2, 454513, Note_off_c, 0, 75, 64
2, 454517, Note_on_c, 0, 68, 55
2, 454520, Note_off_c, 0, 84, 64
2, 454524, Note_on_c, 0, 77, 62
2, 454524, Note_on_c, 0, 74, 55
2, 454553, Note_off_c, 0, 68, 64
2, 454558, Note_off_c, 0, 58, 64
2, 454572, Note_on_c, 0, 63, 62
2, 454578, Note_on_c, 0, 67, 67
2, 454581, Note_on_c, 0, 82, 70
2, 454581, Note_on_c, 0, 73, 71
2, 454587, Note_off_c, 0, 77, 64
2, 454594, Control_c, 0, 64, 0
2, 454597, Note_off_c, 0, 74, 64
2, 454626, Control_c, 0, 64, 127
2, 454703, Note_off_c, 0, 67, 64
2, 454751, Note_off_c, 0, 63, 64
2, 454760, Note_off_c, 0, 73, 64
2, 454801, Note_on_c, 0, 56, 58
2, 454802, Note_on_c, 0, 66, 58
2, 454808, Note_on_c, 0, 75, 62
2, 454808, Note_on_c, 0, 72, 58
2, 454815, Control_c, 0, 64, 0
2, 454829, Note_off_c, 0, 82, 64
2, 454860, Control_c, 0, 64, 127
2, 454949, Note_off_c, 0, 56, 64
2, 454983, Note_off_c, 0, 72, 64
2, 454984, Note_off_c, 0, 66, 64
2, 455027, Note_on_c, 0, 62, 58
2, 455030, Control_c, 0, 64, 0
2, 455036, Note_on_c, 0, 80, 62
2, 455036, Note_on_c, 0, 72, 59
2, 455040, Note_on_c, 0, 65, 52
2, 455067, Note_off_c, 0, 75, 64
2, 455072, Control_c, 0, 64, 127
2, 455092, Note_off_c, 0, 62, 64
2, 455141, Note_off_c, 0, 65, 64
2, 455164, Note_off_c, 0, 72, 64
2, 455183, Note_on_c, 0, 71, 55
2, 455184, Note_on_c, 0, 55, 58
2, 455185, Note_on_c, 0, 74, 59
2, 455192, Note_off_c, 0, 80, 64
2, 455193, Note_on_c, 0, 65, 55
2, 455244, Note_on_c, 0, 70, 70
2, 455247, Note_off_c, 0, 55, 64
2, 455251, Note_off_c, 0, 71, 64
2, 455252, Control_c, 0, 64, 0
2, 455255, Note_off_c, 0, 74, 64
2, 455256, Note_on_c, 0, 79, 53
2, 455263, Note_on_c, 0, 60, 53
2, 455268, Note_off_c, 0, 65, 64
2, 455269, Note_on_c, 0, 64, 36
2, 455306, Control_c, 0, 64, 127
2, 455383, Note_off_c, 0, 64, 64
2, 455404, Note_off_c, 0, 60, 64
2, 455449, Note_off_c, 0, 70, 64
2, 455484, Note_on_c, 0, 72, 62
2, 455484, Note_on_c, 0, 69, 57
2, 455492, Note_on_c, 0, 63, 46
2, 455494, Note_on_c, 0, 53, 42
2, 455496, Note_off_c, 0, 79, 64
2, 455502, Control_c, 0, 64, 0
2, 455535, Control_c, 0, 64, 127
2, 455718, Note_off_c, 0, 63, 64
2, 455735, Note_off_c, 0, 53, 64
2, 455746, Note_on_c, 0, 68, 72
2, 455746, Note_on_c, 0, 34, 72
2, 455753, Note_on_c, 0, 46, 68
2, 455754, Note_on_c, 0, 77, 75
2, 455754, Note_on_c, 0, 74, 74
2, 455768, Note_off_c, 0, 69, 64
2, 455770, Control_c, 0, 64, 0
2, 455787, Note_off_c, 0, 72, 64
2, 455826, Control_c, 0, 64, 127
2, 455910, Note_off_c, 0, 68, 64
2, 455977, Note_on_c, 0, 58, 67
2, 455986, Note_off_c, 0, 34, 64
2, 455986, Note_on_c, 0, 68, 80
2, 455993, Note_off_c, 0, 46, 64
2, 456000, Note_on_c, 0, 65, 40
2, 456063, Note_off_c, 0, 58, 64
2, 456070, Note_off_c, 0, 65, 64
2, 456071, Note_off_c, 0, 68, 64
2, 456082, Note_off_c, 0, 74, 64
2, 456098, Note_on_c, 0, 79, 70
2, 456121, Note_off_c, 0, 77, 64
2, 456176, Note_on_c, 0, 77, 68
2, 456181, Note_off_c, 0, 79, 64
2, 456215, Note_off_c, 0, 77, 64
2, 456215, Note_on_c, 0, 79, 71
2, 456232, Note_on_c, 0, 58, 63
2, 456237, Note_on_c, 0, 65, 66
2, 456244, Note_on_c, 0, 68, 66
2, 456245, Note_on_c, 0, 77, 80
2, 456250, Note_on_c, 0, 74, 78
2, 456260, Note_off_c, 0, 79, 64
2, 456288, Note_off_c, 0, 58, 64
2, 456289, Note_off_c, 0, 65, 64
2, 456366, Note_off_c, 0, 68, 64
2, 456368, Note_on_c, 0, 73, 67
2, 456369, Note_on_c, 0, 76, 74
2, 456372, Note_off_c, 0, 74, 64
2, 456375, Note_off_c, 0, 77, 64
2, 456480, Note_on_c, 0, 77, 74
2, 456480, Note_on_c, 0, 46, 80
2, 456485, Note_off_c, 0, 73, 64
2, 456486, Note_on_c, 0, 74, 74
2, 456486, Note_on_c, 0, 68, 74
2, 456489, Note_on_c, 0, 58, 70
2, 456494, Note_off_c, 0, 76, 64
2, 456499, Control_c, 0, 64, 0
2, 456523, Control_c, 0, 64, 127
2, 456543, Note_off_c, 0, 46, 64
2, 456561, Note_off_c, 0, 58, 64
2, 456637, Note_off_c, 0, 74, 64
2, 456639, Note_off_c, 0, 68, 64
2, 456646, Note_on_c, 0, 70, 84
2, 456673, Note_off_c, 0, 77, 64
2, 456683, Note_off_c, 0, 70, 64
2, 456696, Note_on_c, 0, 75, 88
2, 456700, Note_on_c, 0, 66, 92
2, 456703, Note_on_c, 0, 70, 96
2, 456705, Note_on_c, 0, 51, 66
2, 456708, Note_on_c, 0, 58, 58
2, 456728, Control_c, 0, 64, 0
2, 456781, Control_c, 0, 64, 127
2, 456824, Note_off_c, 0, 51, 64
2, 456833, Note_off_c, 0, 58, 64
2, 456928, Note_off_c, 0, 70, 64
2, 456932, Note_on_c, 0, 65, 80
2, 456934, Note_on_c, 0, 74, 83
2, 456934, Note_on_c, 0, 70, 79
2, 456940, Note_on_c, 0, 58, 52
2, 456941, Note_on_c, 0, 53, 49
2, 456955, Control_c, 0, 64, 0
2, 456968, Note_off_c, 0, 75, 64
2, 456979, Note_off_c, 0, 66, 64
2, 457010, Control_c, 0, 64, 127
2, 457017, Note_off_c, 0, 65, 64
2, 457080, Note_off_c, 0, 58, 64
2, 457141, Note_off_c, 0, 53, 64
2, 457147, Note_off_c, 0, 70, 64
2, 457151, Note_on_c, 0, 63, 79
2, 457155, Note_on_c, 0, 70, 79
2, 457160, Note_on_c, 0, 72, 75
2, 457165, Note_on_c, 0, 58, 72
2, 457167, Note_on_c, 0, 54, 75
2, 457190, Control_c, 0, 64, 0
2, 457193, Note_off_c, 0, 74, 64
2, 457243, Control_c, 0, 64, 127
2, 457269, Note_off_c, 0, 63, 64
2, 457383, Note_on_c, 0, 66, 85
2, 457386, Note_on_c, 0, 51, 70
2, 457402, Control_c, 0, 64, 0
2, 457438, Control_c, 0, 64, 127
2, 457485, Note_on_c, 0, 75, 74
2, 457495, Note_off_c, 0, 72, 64
2, 457528, Note_off_c, 0, 70, 64
2, 457530, Note_off_c, 0, 66, 64
2, 457550, Note_off_c, 0, 54, 64
2, 457576, Note_off_c, 0, 51, 64
2, 457599, Note_on_c, 0, 53, 68
2, 457605, Note_on_c, 0, 74, 81
2, 457605, Note_on_c, 0, 65, 67
2, 457609, Note_off_c, 0, 58, 64
2, 457609, Note_on_c, 0, 69, 75
2, 457618, Note_off_c, 0, 75, 64
2, 457622, Control_c, 0, 64, 0
2, 457660, Note_off_c, 0, 65, 64
2, 457667, Control_c, 0, 64, 127
2, 457688, Note_off_c, 0, 69, 64
2, 457697, Note_on_c, 0, 72, 71
2, 457706, Note_off_c, 0, 74, 64
2, 457708, Note_on_c, 0, 63, 84
2, 457770, Note_off_c, 0, 53, 64
2, 457797, Note_off_c, 0, 63, 64
2, 457824, Note_on_c, 0, 74, 78
2, 457825, Note_on_c, 0, 65, 81
2, 457828, Note_on_c, 0, 22, 72
2, 457829, Note_off_c, 0, 72, 64
2, 457832, Note_on_c, 0, 34, 75
2, 457843, Control_c, 0, 64, 0
2, 457890, Control_c, 0, 64, 127
2, 457924, Note_off_c, 0, 65, 64
2, 457983, Note_on_c, 0, 65, 88
2, 458006, Note_off_c, 0, 74, 64
2, 458022, Note_off_c, 0, 65, 64
2, 458041, Note_on_c, 0, 62, 85
2, 458041, Control_c, 0, 64, 0
2, 458050, Note_on_c, 0, 70, 89
2, 458052, Note_on_c, 0, 65, 66
2, 458052, Note_on_c, 0, 58, 88
2, 458052, Note_on_c, 0, 53, 67
2, 458058, Note_on_c, 0, 46, 67
2, 458068, Note_off_c, 0, 22, 64
2, 458072, Note_off_c, 0, 34, 64
2, 458096, Control_c, 0, 64, 127
2, 458230, Note_off_c, 0, 62, 64
2, 458241, Note_off_c, 0, 53, 64
2, 458241, Note_off_c, 0, 58, 64
2, 458241, Note_off_c, 0, 65, 64
2, 458247, Note_off_c, 0, 46, 64
2, 458254, Control_c, 0, 64, 0
2, 458260, Note_on_c, 0, 65, 78
2, 458263, Note_on_c, 0, 74, 80
2, 458263, Note_on_c, 0, 46, 88
2, 458267, Note_off_c, 0, 70, 64
2, 458268, Note_on_c, 0, 58, 80
2, 458268, Note_on_c, 0, 53, 46
2, 458286, Control_c, 0, 64, 127
2, 458292, Control_c, 0, 64, 127
2, 458323, Control_c, 0, 64, 0
2, 458485, Note_off_c, 0, 65, 64
2, 458493, Note_off_c, 0, 58, 64
2, 458497, Note_on_c, 0, 77, 81
2, 458497, Note_on_c, 0, 62, 68
2, 458500, Note_on_c, 0, 56, 66
2, 458502, Note_on_c, 0, 72, 78
2, 458507, Note_on_c, 0, 65, 67
2, 458521, Note_off_c, 0, 46, 64
2, 458526, Note_off_c, 0, 53, 64
2, 458526, Control_c, 0, 64, 0
2, 458536, Note_off_c, 0, 74, 64
2, 458594, Control_c, 0, 64, 127
2, 458665, Note_off_c, 0, 72, 64
2, 458677, Note_off_c, 0, 56, 64
2, 458686, Note_off_c, 0, 62, 64
2, 458699, Note_off_c, 0, 65, 64
2, 458721, Note_on_c, 0, 72, 74
2, 458724, Note_on_c, 0, 56, 46
2, 458734, Note_on_c, 0, 62, 63
2, 458741, Note_on_c, 0, 65, 46
2, 458748, Control_c, 0, 64, 127
2, 458779, Control_c, 0, 64, 0
2, 458827, Note_on_c, 0, 79, 72
2, 458831, Note_off_c, 0, 77, 64
2, 458861, Note_off_c, 0, 72, 64
2, 458895, Note_off_c, 0, 65, 64
2, 458895, Note_on_c, 0, 77, 89
2, 458902, Note_off_c, 0, 79, 64
2, 458906, Note_off_c, 0, 56, 64
2, 458912, Note_off_c, 0, 62, 64
2, 458922, Note_on_c, 0, 79, 78
2, 458929, Note_off_c, 0, 77, 64
2, 458950, Note_on_c, 0, 72, 58
2, 458958, Note_on_c, 0, 77, 80
2, 458958, Note_on_c, 0, 65, 50
2, 458958, Note_on_c, 0, 56, 57
2, 458964, Note_on_c, 0, 62, 39
2, 458965, Control_c, 0, 64, 0
2, 458980, Note_off_c, 0, 79, 64
2, 459001, Control_c, 0, 64, 127
2, 459056, Note_on_c, 0, 76, 88
2, 459064, Note_off_c, 0, 77, 64
2, 459144, Note_off_c, 0, 72, 64
2, 459146, Note_off_c, 0, 62, 64
2, 459146, Note_off_c, 0, 56, 64
2, 459162, Note_off_c, 0, 65, 64
2, 459176, Note_on_c, 0, 71, 72
2, 459179, Note_on_c, 0, 77, 80
2, 459181, Note_on_c, 0, 62, 70
2, 459181, Note_on_c, 0, 55, 58
2, 459194, Control_c, 0, 64, 0
2, 459207, Note_off_c, 0, 76, 64
2, 459232, Control_c, 0, 64, 127
2, 459295, Note_off_c, 0, 55, 64
2, 459324, Note_off_c, 0, 71, 64
2, 459332, Note_off_c, 0, 62, 64
2, 459334, Note_on_c, 0, 71, 78
2, 459336, Note_on_c, 0, 62, 75
2, 459340, Note_on_c, 0, 55, 50
2, 459352, Note_off_c, 0, 62, 64
2, 459360, Note_off_c, 0, 55, 64
2, 459360, Note_off_c, 0, 71, 64
2, 459382, Note_on_c, 0, 75, 89
2, 459384, Note_on_c, 0, 55, 50
2, 459390, Note_on_c, 0, 71, 88
2, 459390, Note_on_c, 0, 67, 70
2, 459390, Control_c, 0, 64, 0
2, 459415, Note_off_c, 0, 77, 64
2, 459448, Control_c, 0, 64, 127
2, 459512, Note_off_c, 0, 71, 64
2, 459542, Note_off_c, 0, 67, 64
2, 459566, Note_off_c, 0, 55, 64
2, 459608, Note_on_c, 0, 74, 80
2, 459618, Note_on_c, 0, 71, 70
2, 459618, Note_on_c, 0, 55, 71
2, 459619, Note_off_c, 0, 75, 64
2, 459620, Note_on_c, 0, 65, 70
2, 459634, Control_c, 0, 64, 0
2, 459677, Control_c, 0, 64, 127
2, 459708, Note_off_c, 0, 55, 64
2, 459757, Note_off_c, 0, 65, 64
2, 459801, Note_off_c, 0, 71, 64
2, 459831, Note_off_c, 0, 74, 64
2, 459841, Note_on_c, 0, 72, 76
2, 459844, Note_on_c, 0, 70, 78
2, 459848, Note_on_c, 0, 60, 68
2, 459851, Note_on_c, 0, 64, 70
2, 459857, Control_c, 0, 64, 0
2, 459910, Control_c, 0, 64, 127
2, 459930, Note_off_c, 0, 64, 64
2, 459942, Note_off_c, 0, 60, 64
2, 460070, Note_on_c, 0, 69, 70
2, 460070, Note_on_c, 0, 53, 72
2, 460073, Note_off_c, 0, 70, 64
2, 460074, Note_off_c, 0, 72, 64
2, 460077, Note_on_c, 0, 63, 65
2, 460084, Control_c, 0, 64, 0
2, 460129, Control_c, 0, 64, 127
2, 460152, Note_off_c, 0, 53, 64
2, 460175, Note_on_c, 0, 67, 78
2, 460176, Note_off_c, 0, 63, 64
2, 460178, Note_on_c, 0, 75, 75
2, 460273, Control_c, 0, 64, 0
2, 460279, Note_on_c, 0, 65, 70
2, 460286, Note_on_c, 0, 74, 67
2, 460295, Note_off_c, 0, 67, 64
2, 460303, Control_c, 0, 64, 127
2, 460310, Note_off_c, 0, 75, 64
2, 460381, Note_on_c, 0, 72, 67
2, 460381, Note_on_c, 0, 63, 81
2, 460387, Note_off_c, 0, 65, 64
2, 460392, Note_off_c, 0, 74, 64
2, 460416, Note_off_c, 0, 69, 64
2, 460486, Note_on_c, 0, 70, 89
2, 460492, Note_on_c, 0, 58, 68
2, 460495, Note_on_c, 0, 74, 88
2, 460495, Note_on_c, 0, 62, 71
2, 460497, Note_off_c, 0, 72, 64
2, 460511, Note_off_c, 0, 63, 64
2, 460516, Control_c, 0, 64, 0
2, 460551, Control_c, 0, 64, 127
2, 460572, Note_off_c, 0, 70, 64
2, 460574, Note_off_c, 0, 58, 64
2, 460613, Note_off_c, 0, 62, 64
2, 460629, Note_on_c, 0, 53, 85
2, 460630, Note_on_c, 0, 60, 74
2, 460637, Note_on_c, 0, 65, 83
2, 460644, Note_on_c, 0, 72, 72
2, 460657, Note_off_c, 0, 60, 64
2, 460659, Note_off_c, 0, 74, 64
2, 460670, Note_off_c, 0, 53, 64
2, 460680, Control_c, 0, 64, 0
2, 460683, Note_off_c, 0, 65, 64
2, 460684, Note_on_c, 0, 70, 96
2, 460689, Note_on_c, 0, 62, 88
2, 460689, Note_on_c, 0, 58, 101
2, 460691, Note_off_c, 0, 72, 64
2, 460692, Note_on_c, 0, 46, 66
2, 460725, Control_c, 0, 64, 127
2, 460864, Note_off_c, 0, 70, 64
2, 460869, Note_off_c, 0, 58, 64
2, 460869, Note_off_c, 0, 62, 64
2, 460872, Note_off_c, 0, 46, 64
2, 460922, Control_c, 0, 64, 0
2, 460934, Note_on_c, 0, 82, 107
2, 460934, Note_on_c, 0, 70, 98
2, 460934, Note_on_c, 0, 34, 94
2, 460935, Note_on_c, 0, 46, 96
2, 460956, Control_c, 0, 64, 127
2, 461172, Note_off_c, 0, 46, 64
2, 461172, Note_off_c, 0, 34, 64
2, 461172, Note_off_c, 0, 70, 64
2, 461172, Note_off_c, 0, 82, 64
2, 461325, Note_on_c, 0, 39, 70
2, 461336, Control_c, 0, 64, 0
2, 461366, Control_c, 0, 64, 127
2, 461548, Note_on_c, 0, 55, 45
2, 461555, Note_on_c, 0, 46, 27
2, 461565, Note_off_c, 0, 39, 64
2, 461616, Note_off_c, 0, 55, 64
2, 461624, Note_off_c, 0, 46, 64
2, 461742, Note_on_c, 0, 39, 42
2, 461934, Note_on_c, 0, 46, 58
2, 461940, Note_on_c, 0, 55, 31
2, 461982, Note_off_c, 0, 39, 64
2, 461990, Note_off_c, 0, 46, 64
2, 462000, Note_off_c, 0, 55, 64
2, 462035, Note_on_c, 0, 46, 58
2, 462045, Note_on_c, 0, 55, 31
2, 462079, Note_off_c, 0, 55, 64
2, 462089, Note_off_c, 0, 46, 64
2, 462150, Note_on_c, 0, 39, 53
2, 462348, Note_on_c, 0, 46, 53
2, 462359, Note_on_c, 0, 55, 28
2, 462390, Note_off_c, 0, 39, 64
2, 462428, Note_off_c, 0, 46, 64
2, 462431, Note_off_c, 0, 55, 64
2, 462559, Note_on_c, 0, 39, 44
2, 462749, Note_on_c, 0, 46, 52
2, 462757, Note_on_c, 0, 55, 28
2, 462799, Note_off_c, 0, 39, 64
2, 462822, Note_off_c, 0, 55, 64
2, 462827, Note_off_c, 0, 46, 64
2, 462960, Note_on_c, 0, 39, 37
2, 463155, Note_on_c, 0, 46, 40
2, 463172, Note_on_c, 0, 55, 16
2, 463200, Note_off_c, 0, 39, 64
2, 463210, Note_off_c, 0, 46, 64
2, 463221, Note_off_c, 0, 55, 64
2, 463260, Note_on_c, 0, 46, 23
2, 463267, Note_on_c, 0, 55, 23
2, 463294, Note_off_c, 0, 46, 64
2, 463307, Note_off_c, 0, 55, 64
2, 463368, Note_on_c, 0, 39, 42
2, 463555, Note_on_c, 0, 46, 32
2, 463564, Note_on_c, 0, 55, 22
2, 463608, Note_off_c, 0, 39, 64
2, 463632, Note_off_c, 0, 55, 64
2, 463649, Note_off_c, 0, 46, 64
2, 463760, Note_on_c, 0, 67, 41
2, 463764, Note_on_c, 0, 39, 45
2, 463776, Control_c, 0, 64, 0
2, 463814, Control_c, 0, 64, 127
2, 463843, Note_on_c, 0, 68, 36
2, 463845, Note_off_c, 0, 67, 64
2, 463881, Note_off_c, 0, 68, 64
2, 463907, Note_on_c, 0, 68, 63
2, 463973, Note_on_c, 0, 46, 35
2, 463974, Note_on_c, 0, 79, 57
2, 463974, Note_on_c, 0, 56, 36
2, 463980, Note_off_c, 0, 68, 64
2, 464004, Note_off_c, 0, 39, 64
2, 464039, Note_off_c, 0, 56, 64
2, 464057, Note_off_c, 0, 46, 64
2, 464154, Note_on_c, 0, 39, 55
2, 464255, Note_on_c, 0, 77, 52
2, 464267, Note_off_c, 0, 79, 64
2, 464343, Note_on_c, 0, 56, 53
2, 464346, Note_on_c, 0, 46, 37
2, 464352, Note_on_c, 0, 76, 53
2, 464366, Note_off_c, 0, 77, 64
2, 464388, Note_off_c, 0, 46, 64
2, 464390, Note_off_c, 0, 56, 64
2, 464394, Note_off_c, 0, 39, 64
2, 464455, Note_on_c, 0, 56, 53
2, 464494, Note_off_c, 0, 56, 64
2, 464501, Note_on_c, 0, 77, 55
2, 464520, Note_off_c, 0, 76, 64
2, 464539, Note_on_c, 0, 39, 63
2, 464540, Note_on_c, 0, 80, 55
2, 464546, Control_c, 0, 64, 0
2, 464556, Note_off_c, 0, 77, 64
2, 464586, Control_c, 0, 64, 127
2, 464727, Note_on_c, 0, 84, 62
2, 464735, Note_on_c, 0, 46, 46
2, 464739, Note_on_c, 0, 56, 36
2, 464763, Note_off_c, 0, 80, 64
2, 464779, Note_off_c, 0, 39, 64
2, 464796, Note_off_c, 0, 56, 64
2, 464848, Note_off_c, 0, 46, 64
2, 464922, Note_on_c, 0, 39, 49
2, 464926, Note_on_c, 0, 67, 48
2, 464936, Control_c, 0, 64, 0
2, 464950, Note_off_c, 0, 84, 64
2, 464966, Control_c, 0, 64, 127
2, 465008, Note_on_c, 0, 68, 37
2, 465014, Note_off_c, 0, 67, 64
2, 465044, Note_off_c, 0, 68, 64
2, 465083, Note_on_c, 0, 68, 54
2, 465128, Note_on_c, 0, 56, 48
2, 465131, Note_on_c, 0, 46, 41
2, 465136, Control_c, 0, 64, 0
2, 465148, Note_on_c, 0, 79, 70
2, 465161, Control_c, 0, 64, 127
2, 465162, Note_off_c, 0, 39, 64
2, 465166, Note_off_c, 0, 68, 64
2, 465185, Note_off_c, 0, 56, 64
2, 465204, Note_off_c, 0, 46, 64
2, 465332, Note_on_c, 0, 39, 40
2, 465421, Note_on_c, 0, 77, 52
2, 465437, Note_off_c, 0, 79, 64
2, 465514, Note_on_c, 0, 75, 45
2, 465518, Note_on_c, 0, 46, 48
2, 465525, Note_on_c, 0, 55, 31
2, 465534, Note_off_c, 0, 77, 64
2, 465567, Note_off_c, 0, 55, 64
2, 465568, Note_off_c, 0, 46, 64
2, 465572, Note_off_c, 0, 39, 64
2, 465591, Note_on_c, 0, 46, 53
2, 465601, Note_on_c, 0, 55, 28
2, 465635, Note_off_c, 0, 55, 64
2, 465645, Note_off_c, 0, 46, 64
2, 465673, Note_on_c, 0, 72, 55
2, 465695, Note_off_c, 0, 75, 64
2, 465705, Control_c, 0, 64, 0
2, 465718, Note_on_c, 0, 39, 58
2, 465729, Note_on_c, 0, 69, 48
2, 465747, Note_off_c, 0, 72, 64
2, 465750, Control_c, 0, 64, 127
2, 465912, Note_on_c, 0, 46, 55
2, 465921, Note_on_c, 0, 70, 54
2, 465924, Note_on_c, 0, 55, 41
2, 465948, Note_off_c, 0, 69, 64
2, 465958, Note_off_c, 0, 39, 64
2, 466012, Note_off_c, 0, 55, 64
2, 466074, Note_off_c, 0, 46, 64
2, 466111, Note_on_c, 0, 39, 39
2, 466113, Note_on_c, 0, 67, 46
2, 466124, Note_off_c, 0, 70, 64
2, 466126, Control_c, 0, 64, 0
2, 466137, Control_c, 0, 64, 127
2, 466193, Note_on_c, 0, 68, 46
2, 466196, Note_off_c, 0, 67, 64
2, 466231, Note_off_c, 0, 68, 64
2, 466234, Note_off_c, 0, 39, 64
2, 466261, Note_on_c, 0, 68, 70
2, 466302, Note_on_c, 0, 56, 46
2, 466307, Note_on_c, 0, 46, 41
2, 466326, Note_on_c, 0, 79, 54
2, 466351, Note_off_c, 0, 68, 64
2, 466376, Note_off_c, 0, 56, 64
2, 466426, Note_off_c, 0, 46, 64
2, 466497, Note_on_c, 0, 39, 58
2, 466560, Note_off_c, 0, 39, 64
2, 466589, Note_on_c, 0, 77, 55
2, 466607, Note_off_c, 0, 79, 64
2, 466671, Note_on_c, 0, 56, 53
2, 466677, Note_on_c, 0, 46, 52
2, 466685, Note_on_c, 0, 76, 54
2, 466705, Note_off_c, 0, 77, 64
2, 466712, Note_off_c, 0, 56, 64
2, 466717, Note_off_c, 0, 46, 64
2, 466780, Note_on_c, 0, 46, 28
2, 466782, Note_on_c, 0, 56, 57
2, 466814, Note_off_c, 0, 46, 64
2, 466821, Note_off_c, 0, 56, 64
2, 466836, Note_on_c, 0, 77, 54
2, 466847, Note_off_c, 0, 76, 64
2, 466869, Note_on_c, 0, 39, 63
2, 466883, Note_on_c, 0, 80, 63
2, 466899, Note_off_c, 0, 77, 64
2, 466982, Note_off_c, 0, 39, 64
2, 467059, Note_on_c, 0, 84, 54
2, 467067, Note_on_c, 0, 46, 54
2, 467070, Note_on_c, 0, 56, 52
2, 467088, Note_on_c, 0, 89, 65
2, 467089, Control_c, 0, 64, 0
2, 467102, Note_off_c, 0, 84, 64
2, 467115, Note_off_c, 0, 56, 64
2, 467124, Control_c, 0, 64, 127
2, 467141, Note_off_c, 0, 46, 64
2, 467152, Note_off_c, 0, 80, 64
2, 467288, Note_on_c, 0, 83, 58
2, 467293, Note_off_c, 0, 89, 64
2, 467312, Note_on_c, 0, 39, 58
2, 467319, Note_on_c, 0, 84, 53
2, 467321, Control_c, 0, 64, 0
2, 467324, Note_off_c, 0, 83, 64
2, 467336, Note_on_c, 0, 83, 57
2, 467342, Control_c, 0, 64, 127
2, 467351, Note_off_c, 0, 84, 64
2, 467518, Note_on_c, 0, 56, 40
2, 467527, Note_off_c, 0, 83, 64
2, 467528, Note_on_c, 0, 82, 62
2, 467530, Note_on_c, 0, 62, 28
2, 467548, Control_c, 0, 64, 0
2, 467552, Note_off_c, 0, 39, 64
2, 467572, Control_c, 0, 64, 127
2, 467598, Note_off_c, 0, 56, 64
2, 467605, Note_off_c, 0, 62, 64
2, 467638, Note_on_c, 0, 79, 54
2, 467659, Note_off_c, 0, 82, 64
2, 467732, Note_on_c, 0, 82, 50
2, 467738, Note_on_c, 0, 56, 40
2, 467743, Note_on_c, 0, 62, 26
2, 467756, Note_on_c, 0, 83, 50
2, 467762, Note_off_c, 0, 82, 64
2, 467774, Note_off_c, 0, 79, 64
2, 467780, Note_on_c, 0, 82, 50
2, 467812, Note_off_c, 0, 83, 64
2, 467831, Note_off_c, 0, 56, 64
2, 467832, Note_off_c, 0, 62, 64
2, 467940, Note_on_c, 0, 39, 42
2, 467947, Note_on_c, 0, 81, 49
2, 467971, Note_off_c, 0, 82, 64
2, 468071, Note_on_c, 0, 78, 39
2, 468106, Note_off_c, 0, 81, 64
2, 468132, Note_on_c, 0, 81, 44
2, 468148, Note_on_c, 0, 82, 42
2, 468163, Note_off_c, 0, 81, 64
2, 468168, Note_on_c, 0, 56, 44
2, 468172, Note_off_c, 0, 78, 64
2, 468172, Note_on_c, 0, 62, 32
2, 468175, Note_on_c, 0, 81, 42
2, 468180, Note_off_c, 0, 39, 64
2, 468189, Note_off_c, 0, 82, 64
2, 468254, Note_off_c, 0, 56, 64
2, 468258, Note_off_c, 0, 62, 64
2, 468396, Note_on_c, 0, 62, 36
2, 468400, Note_on_c, 0, 80, 39
2, 468404, Note_on_c, 0, 56, 33
2, 468441, Note_off_c, 0, 81, 64
2, 468482, Note_off_c, 0, 62, 64
2, 468490, Note_off_c, 0, 56, 64
2, 468492, Note_on_c, 0, 77, 48
2, 468500, Note_off_c, 0, 80, 64
2, 468613, Note_off_c, 0, 77, 64
2, 468630, Note_on_c, 0, 39, 54
2, 468644, Control_c, 0, 64, 0
2, 468656, Note_on_c, 0, 67, 55
2, 468667, Control_c, 0, 64, 127
2, 468729, Note_on_c, 0, 68, 46
2, 468733, Note_off_c, 0, 67, 64
2, 468764, Note_off_c, 0, 68, 64
2, 468798, Note_on_c, 0, 68, 62
2, 468840, Note_on_c, 0, 79, 58
2, 468844, Note_on_c, 0, 46, 36
2, 468850, Note_on_c, 0, 56, 27
2, 468863, Note_off_c, 0, 68, 64
2, 468870, Note_off_c, 0, 39, 64
2, 468876, Note_off_c, 0, 46, 64
2, 468886, Note_off_c, 0, 56, 64
2, 469016, Note_on_c, 0, 39, 52
2, 469029, Control_c, 0, 64, 0
2, 469057, Control_c, 0, 64, 127
2, 469114, Note_on_c, 0, 77, 48
2, 469134, Note_off_c, 0, 79, 64
2, 469212, Note_on_c, 0, 76, 57
2, 469216, Note_on_c, 0, 46, 44
2, 469226, Note_on_c, 0, 56, 44
2, 469247, Note_off_c, 0, 77, 64
2, 469256, Note_off_c, 0, 39, 64
2, 469258, Note_off_c, 0, 56, 64
2, 469261, Note_off_c, 0, 46, 64
2, 469304, Note_on_c, 0, 46, 44
2, 469307, Note_on_c, 0, 56, 44
2, 469343, Note_off_c, 0, 56, 64
2, 469357, Note_on_c, 0, 77, 54
2, 469358, Note_off_c, 0, 46, 64
2, 469363, Note_off_c, 0, 76, 64
2, 469386, Control_c, 0, 64, 0
2, 469397, Note_on_c, 0, 39, 63
2, 469410, Note_on_c, 0, 80, 55
2, 469428, Control_c, 0, 64, 127
2, 469436, Note_off_c, 0, 77, 64
2, 469591, Note_on_c, 0, 46, 41
2, 469593, Note_on_c, 0, 84, 62
2, 469593, Note_on_c, 0, 56, 36
2, 469612, Note_off_c, 0, 80, 64
2, 469637, Note_off_c, 0, 39, 64
2, 469648, Note_off_c, 0, 56, 64
2, 469672, Note_off_c, 0, 46, 64
2, 469800, Note_on_c, 0, 67, 53
2, 469804, Note_on_c, 0, 39, 49
2, 469833, Note_off_c, 0, 84, 64
2, 469846, Control_c, 0, 64, 0
2, 469878, Control_c, 0, 64, 127
2, 469896, Note_on_c, 0, 68, 66
2, 469912, Note_off_c, 0, 67, 64
2, 469929, Note_off_c, 0, 68, 64
2, 469983, Note_on_c, 0, 68, 65
2, 470022, Note_on_c, 0, 56, 52
2, 470029, Note_on_c, 0, 46, 54
2, 470030, Note_off_c, 0, 68, 64
2, 470035, Note_on_c, 0, 79, 58
2, 470044, Note_off_c, 0, 39, 64
2, 470046, Control_c, 0, 64, 0
2, 470066, Control_c, 0, 64, 127
2, 470084, Note_off_c, 0, 56, 64
2, 470117, Note_off_c, 0, 46, 64
2, 470223, Note_on_c, 0, 39, 58
2, 470300, Note_on_c, 0, 77, 53
2, 470330, Note_off_c, 0, 79, 64
2, 470392, Note_on_c, 0, 46, 58
2, 470398, Note_on_c, 0, 55, 46
2, 470400, Note_on_c, 0, 75, 52
2, 470406, Control_c, 0, 64, 0
2, 470422, Note_off_c, 0, 77, 64
2, 470438, Control_c, 0, 64, 127
2, 470442, Note_off_c, 0, 46, 64
2, 470442, Note_off_c, 0, 55, 64
2, 470463, Note_off_c, 0, 39, 64
2, 470503, Note_on_c, 0, 55, 52
2, 470508, Note_on_c, 0, 46, 40
2, 470536, Note_off_c, 0, 46, 64
2, 470540, Note_on_c, 0, 72, 55
2, 470542, Note_off_c, 0, 55, 64
2, 470559, Note_off_c, 0, 75, 64
2, 470579, Control_c, 0, 64, 0
2, 470588, Note_on_c, 0, 69, 52
2, 470588, Note_on_c, 0, 39, 70
2, 470612, Note_off_c, 0, 72, 64
2, 470622, Control_c, 0, 64, 127
2, 470777, Control_c, 0, 64, 0
2, 470785, Note_on_c, 0, 70, 57
2, 470789, Note_on_c, 0, 46, 55
2, 470798, Note_on_c, 0, 55, 41
2, 470807, Control_c, 0, 64, 127
2, 470820, Note_off_c, 0, 69, 64
2, 470828, Note_off_c, 0, 39, 64
2, 470862, Note_off_c, 0, 55, 64
2, 470896, Note_off_c, 0, 46, 64
2, 471016, Note_on_c, 0, 67, 36
2, 471020, Note_on_c, 0, 39, 53
2, 471024, Note_off_c, 0, 70, 64
2, 471034, Control_c, 0, 64, 0
2, 471069, Control_c, 0, 64, 127
2, 471112, Note_on_c, 0, 68, 59
2, 471119, Note_off_c, 0, 67, 64
2, 471145, Note_off_c, 0, 68, 64
2, 471184, Note_on_c, 0, 68, 70
2, 471228, Note_on_c, 0, 56, 58
2, 471228, Note_on_c, 0, 46, 52
2, 471233, Note_off_c, 0, 68, 64
2, 471237, Control_c, 0, 64, 0
2, 471240, Note_on_c, 0, 79, 54
2, 471260, Note_off_c, 0, 39, 64
2, 471260, Control_c, 0, 64, 127
2, 471299, Note_off_c, 0, 56, 64
2, 471342, Note_off_c, 0, 46, 64
2, 471412, Note_on_c, 0, 39, 57
2, 471503, Note_on_c, 0, 77, 54
2, 471519, Note_off_c, 0, 79, 64
2, 471585, Note_on_c, 0, 56, 57
2, 471585, Note_on_c, 0, 46, 55
2, 471591, Note_on_c, 0, 76, 57
2, 471607, Note_off_c, 0, 77, 64
2, 471636, Note_off_c, 0, 56, 64
2, 471637, Note_off_c, 0, 46, 64
2, 471652, Note_off_c, 0, 39, 64
2, 471695, Note_on_c, 0, 56, 48
2, 471699, Note_on_c, 0, 46, 46
2, 471735, Note_on_c, 0, 77, 45
2, 471738, Note_off_c, 0, 56, 64
2, 471745, Note_off_c, 0, 46, 64
2, 471751, Note_off_c, 0, 76, 64
2, 471788, Note_on_c, 0, 80, 66
2, 471794, Note_on_c, 0, 39, 57
2, 471803, Note_off_c, 0, 77, 64
2, 471955, Note_on_c, 0, 96, 57
2, 471977, Note_off_c, 0, 80, 64
2, 471996, Note_on_c, 0, 46, 45
2, 472000, Note_on_c, 0, 101, 67
2, 472001, Note_on_c, 0, 56, 31
2, 472034, Note_off_c, 0, 39, 64
2, 472057, Note_off_c, 0, 96, 64
2, 472097, Note_off_c, 0, 56, 64
2, 472120, Note_off_c, 0, 46, 64
2, 472239, Note_off_c, 0, 101, 64
2, 472292, Note_on_c, 0, 39, 50
2, 472300, Note_on_c, 0, 84, 63
2, 472472, Note_on_c, 0, 83, 65
2, 472492, Note_off_c, 0, 84, 64
2, 472532, Note_off_c, 0, 39, 64
2, 472576, Note_on_c, 0, 65, 35
2, 472580, Note_on_c, 0, 82, 54
2, 472580, Note_on_c, 0, 68, 28
2, 472580, Note_on_c, 0, 58, 26
2, 472594, Note_off_c, 0, 83, 64
2, 472653, Note_off_c, 0, 65, 64
2, 472668, Note_off_c, 0, 58, 64
2, 472671, Note_off_c, 0, 68, 64
2, 472696, Note_on_c, 0, 81, 61
2, 472713, Note_off_c, 0, 82, 64
2, 472820, Note_on_c, 0, 80, 57
2, 472822, Note_on_c, 0, 58, 49
2, 472828, Note_on_c, 0, 65, 53
2, 472830, Note_on_c, 0, 68, 40
2, 472882, Note_off_c, 0, 68, 64
2, 472884, Note_off_c, 0, 81, 64
2, 472905, Note_off_c, 0, 58, 64
2, 472911, Note_off_c, 0, 65, 64
2, 472966, Note_on_c, 0, 70, 46
2, 473000, Note_off_c, 0, 80, 64
2, 473088, Note_on_c, 0, 51, 31
2, 473091, Note_off_c, 0, 70, 64
2, 473094, Note_on_c, 0, 77, 54
2, 473118, Control_c, 0, 64, 0
2, 473166, Control_c, 0, 64, 127
2, 473284, Note_on_c, 0, 79, 44
2, 473295, Note_off_c, 0, 77, 64
2, 473328, Note_off_c, 0, 51, 64
2, 473336, Note_on_c, 0, 75, 54
2, 473353, Note_on_c, 0, 58, 19
2, 473356, Control_c, 0, 64, 0
2, 473363, Note_on_c, 0, 67, 23
2, 473366, Note_off_c, 0, 79, 64
2, 473369, Note_on_c, 0, 63, 24
2, 473408, Control_c, 0, 64, 127
2, 473625, Note_off_c, 0, 63, 64
2, 473625, Note_off_c, 0, 67, 64
2, 473625, Note_off_c, 0, 58, 64
2, 473628, Note_off_c, 0, 75, 64
2, 473739, Control_c, 0, 64, 0
2, 473762, Note_on_c, 0, 65, 74
2, 473797, Control_c, 0, 64, 127
2, 474006, Control_c, 0, 64, 0
2, 474012, Note_on_c, 0, 77, 83
2, 474013, Note_on_c, 0, 74, 79
2, 474019, Note_off_c, 0, 65, 64
2, 474020, Note_on_c, 0, 34, 72
2, 474026, Note_on_c, 0, 46, 58
2, 474063, Control_c, 0, 64, 127
2, 474150, Note_off_c, 0, 74, 64
2, 474158, Note_off_c, 0, 77, 64
2, 474260, Note_off_c, 0, 34, 64
2, 474261, Note_on_c, 0, 58, 36
2, 474264, Note_on_c, 0, 53, 54
2, 474266, Note_off_c, 0, 46, 64
2, 474272, Note_on_c, 0, 62, 36
2, 474323, Note_off_c, 0, 58, 64
2, 474327, Note_off_c, 0, 62, 64
2, 474331, Note_off_c, 0, 53, 64
2, 474360, Note_on_c, 0, 73, 67
2, 474367, Note_on_c, 0, 76, 62
2, 474405, Note_off_c, 0, 73, 64
2, 474415, Note_off_c, 0, 76, 64
2, 474452, Note_on_c, 0, 74, 46
2, 474453, Note_on_c, 0, 77, 72
2, 474472, Note_on_c, 0, 77, 67
2, 474491, Note_off_c, 0, 77, 64
2, 474492, Note_on_c, 0, 79, 57
2, 474501, Note_off_c, 0, 74, 64
2, 474505, Note_on_c, 0, 53, 57
2, 474507, Note_off_c, 0, 77, 64
2, 474508, Note_on_c, 0, 74, 55
2, 474508, Note_on_c, 0, 58, 46
2, 474518, Note_on_c, 0, 62, 35
2, 474521, Note_on_c, 0, 77, 72
2, 474528, Note_off_c, 0, 79, 64
2, 474540, Note_off_c, 0, 62, 64
2, 474557, Note_off_c, 0, 58, 64
2, 474559, Note_off_c, 0, 77, 64
2, 474560, Note_off_c, 0, 53, 64
2, 474575, Note_off_c, 0, 74, 64
2, 474632, Note_on_c, 0, 76, 76
2, 474635, Note_on_c, 0, 73, 89
2, 474678, Note_off_c, 0, 73, 64
2, 474689, Note_off_c, 0, 76, 64
2, 474744, Note_on_c, 0, 74, 78
2, 474747, Note_on_c, 0, 77, 79
2, 474755, Note_on_c, 0, 58, 52
2, 474755, Note_on_c, 0, 46, 57
2, 474763, Control_c, 0, 64, 0
2, 474795, Control_c, 0, 64, 127
2, 474805, Note_off_c, 0, 74, 64
2, 474812, Note_off_c, 0, 77, 64
2, 474829, Note_off_c, 0, 58, 64
2, 474842, Note_off_c, 0, 46, 64
2, 474900, Note_on_c, 0, 70, 81
2, 474927, Note_off_c, 0, 70, 64
2, 474953, Note_on_c, 0, 67, 85
2, 474959, Note_on_c, 0, 70, 88
2, 474961, Note_on_c, 0, 75, 83
2, 474961, Note_on_c, 0, 51, 66
2, 474972, Note_on_c, 0, 58, 32
2, 474975, Control_c, 0, 64, 0
2, 474996, Control_c, 0, 64, 127
2, 475020, Note_off_c, 0, 51, 64
2, 475056, Note_off_c, 0, 58, 64
2, 475125, Note_off_c, 0, 70, 64
2, 475164, Note_off_c, 0, 75, 64
2, 475179, Note_off_c, 0, 67, 64
2, 475179, Note_on_c, 0, 70, 35
2, 475187, Note_on_c, 0, 74, 80
2, 475187, Note_on_c, 0, 46, 66
2, 475192, Note_on_c, 0, 58, 52
2, 475196, Note_on_c, 0, 65, 71
2, 475204, Control_c, 0, 64, 0
2, 475224, Note_off_c, 0, 58, 64
2, 475225, Control_c, 0, 64, 127
2, 475238, Note_off_c, 0, 46, 64
2, 475266, Note_off_c, 0, 65, 64
2, 475299, Note_off_c, 0, 70, 64
2, 475335, Note_off_c, 0, 74, 64
2, 475411, Note_on_c, 0, 72, 81
2, 475412, Note_on_c, 0, 29, 72
2, 475416, Note_on_c, 0, 63, 79
2, 475421, Note_on_c, 0, 41, 37
2, 475437, Control_c, 0, 64, 0
2, 475479, Control_c, 0, 64, 127
2, 475647, Note_on_c, 0, 53, 61
2, 475652, Note_off_c, 0, 29, 64
2, 475655, Note_on_c, 0, 57, 63
2, 475655, Control_c, 0, 64, 0
2, 475661, Note_off_c, 0, 41, 64
2, 475668, Control_c, 0, 64, 127
2, 475685, Note_off_c, 0, 63, 64
2, 475692, Note_off_c, 0, 72, 64
2, 475737, Note_on_c, 0, 75, 75
2, 475744, Note_on_c, 0, 67, 70
2, 475790, Note_off_c, 0, 75, 64
2, 475796, Note_off_c, 0, 67, 64
2, 475823, Note_off_c, 0, 57, 64
2, 475846, Note_on_c, 0, 65, 74
2, 475850, Note_on_c, 0, 74, 70
2, 475886, Note_off_c, 0, 65, 64
2, 475888, Note_off_c, 0, 53, 64
2, 475909, Note_off_c, 0, 74, 64
2, 475944, Note_on_c, 0, 63, 85
2, 475948, Note_on_c, 0, 72, 68
2, 475994, Note_off_c, 0, 63, 64
2, 475997, Note_off_c, 0, 72, 64
2, 476048, Note_on_c, 0, 34, 70
2, 476055, Note_on_c, 0, 46, 65
2, 476055, Note_on_c, 0, 74, 78
2, 476055, Note_on_c, 0, 65, 88
2, 476055, Control_c, 0, 64, 0
2, 476088, Control_c, 0, 64, 127
2, 476108, Note_off_c, 0, 65, 64
2, 476121, Note_off_c, 0, 74, 64
2, 476212, Note_on_c, 0, 65, 79
2, 476220, Note_off_c, 0, 46, 64
2, 476237, Note_off_c, 0, 65, 64
2, 476258, Note_on_c, 0, 65, 70
2, 476259, Note_on_c, 0, 70, 89
2, 476264, Note_on_c, 0, 62, 88
2, 476264, Note_on_c, 0, 58, 71
2, 476264, Note_on_c, 0, 46, 63
2, 476269, Note_on_c, 0, 53, 63
2, 476271, Control_c, 0, 64, 0
2, 476280, Note_off_c, 0, 65, 64
2, 476288, Note_off_c, 0, 34, 64
2, 476295, Control_c, 0, 64, 127
2, 476313, Note_off_c, 0, 46, 64
2, 476321, Note_off_c, 0, 53, 64
2, 476330, Note_off_c, 0, 58, 64
2, 476349, Note_off_c, 0, 70, 64
2, 476426, Note_off_c, 0, 62, 64
2, 476468, Note_on_c, 0, 65, 80
2, 476471, Note_on_c, 0, 74, 80
2, 476475, Note_on_c, 0, 58, 67
2, 476480, Note_on_c, 0, 46, 67
2, 476485, Note_on_c, 0, 53, 61
2, 476527, Note_off_c, 0, 53, 64
2, 476530, Note_off_c, 0, 46, 64
2, 476532, Note_off_c, 0, 58, 64
2, 476599, Note_off_c, 0, 65, 64
2, 476655, Note_off_c, 0, 74, 64
2, 476683, Note_on_c, 0, 77, 80
2, 476683, Note_on_c, 0, 34, 72
2, 476690, Note_on_c, 0, 74, 74
2, 476690, Note_on_c, 0, 46, 66
2, 476703, Control_c, 0, 64, 0
2, 476733, Control_c, 0, 64, 127
2, 476737, Note_off_c, 0, 74, 64
2, 476743, Note_off_c, 0, 77, 64
2, 476828, Note_on_c, 0, 77, 83
2, 476832, Note_on_c, 0, 74, 75
2, 476856, Note_off_c, 0, 77, 64
2, 476857, Note_off_c, 0, 74, 64
2, 476879, Note_on_c, 0, 77, 80
2, 476881, Control_c, 0, 64, 0
2, 476887, Note_on_c, 0, 74, 74
2, 476887, Note_on_c, 0, 53, 44
2, 476892, Note_on_c, 0, 62, 39
2, 476895, Note_on_c, 0, 58, 29
2, 476902, Control_c, 0, 64, 127
2, 476923, Note_off_c, 0, 77, 64
2, 476923, Note_off_c, 0, 34, 64
2, 476930, Note_off_c, 0, 46, 64
2, 476933, Note_off_c, 0, 74, 64
2, 476946, Note_off_c, 0, 62, 64
2, 476952, Note_off_c, 0, 53, 64
2, 476954, Note_off_c, 0, 58, 64
2, 477021, Note_on_c, 0, 77, 83
2, 477053, Note_on_c, 0, 79, 71
2, 477060, Note_off_c, 0, 77, 64
2, 477082, Note_on_c, 0, 77, 83
2, 477090, Note_on_c, 0, 74, 70
2, 477090, Note_on_c, 0, 58, 67
2, 477095, Note_on_c, 0, 62, 50
2, 477095, Note_on_c, 0, 53, 66
2, 477112, Note_off_c, 0, 79, 64
2, 477121, Note_off_c, 0, 77, 64
2, 477133, Note_off_c, 0, 62, 64
2, 477138, Note_off_c, 0, 58, 64
2, 477142, Note_off_c, 0, 74, 64
2, 477149, Note_off_c, 0, 53, 64
2, 477195, Note_on_c, 0, 76, 80
2, 477199, Note_on_c, 0, 73, 92
2, 477236, Note_off_c, 0, 73, 64
2, 477244, Note_off_c, 0, 76, 64
2, 477296, Note_on_c, 0, 77, 75
2, 477302, Note_on_c, 0, 74, 78
2, 477305, Note_on_c, 0, 46, 67
2, 477324, Control_c, 0, 64, 0
2, 477342, Control_c, 0, 64, 127
2, 477354, Note_off_c, 0, 74, 64
2, 477357, Note_off_c, 0, 77, 64
2, 477387, Note_off_c, 0, 46, 64
2, 477464, Note_on_c, 0, 70, 67
2, 477493, Note_off_c, 0, 70, 64
2, 477511, Note_on_c, 0, 67, 89
2, 477515, Note_on_c, 0, 70, 88
2, 477515, Note_on_c, 0, 58, 63
2, 477516, Note_on_c, 0, 75, 89
2, 477516, Note_on_c, 0, 51, 67
2, 477534, Control_c, 0, 64, 0
2, 477561, Control_c, 0, 64, 127
2, 477577, Note_off_c, 0, 51, 64
2, 477597, Note_off_c, 0, 58, 64
2, 477624, Note_off_c, 0, 70, 64
2, 477691, Note_off_c, 0, 75, 64
2, 477725, Note_off_c, 0, 67, 64
2, 477741, Note_on_c, 0, 74, 85
2, 477744, Note_on_c, 0, 46, 74
2, 477748, Note_on_c, 0, 58, 67
2, 477750, Note_on_c, 0, 65, 80
2, 477757, Note_on_c, 0, 70, 57
2, 477760, Control_c, 0, 64, 0
2, 477777, Note_off_c, 0, 70, 64
2, 477792, Note_off_c, 0, 58, 64
2, 477793, Control_c, 0, 64, 127
2, 477809, Note_off_c, 0, 46, 64
2, 477838, Note_off_c, 0, 65, 64
2, 477900, Note_off_c, 0, 74, 64
2, 477977, Note_on_c, 0, 63, 80
2, 477979, Note_on_c, 0, 72, 80
2, 477979, Note_on_c, 0, 70, 80
2, 477989, Note_on_c, 0, 29, 72
2, 477992, Note_on_c, 0, 41, 62
2, 478006, Control_c, 0, 64, 0
2, 478044, Control_c, 0, 64, 127
2, 478117, Note_off_c, 0, 70, 64
2, 478209, Note_off_c, 0, 63, 64
2, 478225, Note_on_c, 0, 69, 76
2, 478225, Note_on_c, 0, 53, 71
2, 478229, Note_off_c, 0, 29, 64
2, 478229, Note_on_c, 0, 60, 68
2, 478232, Note_off_c, 0, 41, 64
2, 478306, Note_off_c, 0, 72, 64
2, 478330, Note_on_c, 0, 75, 70
2, 478332, Note_on_c, 0, 67, 59
2, 478352, Note_off_c, 0, 69, 64
2, 478378, Note_off_c, 0, 67, 64
2, 478387, Note_off_c, 0, 75, 64
2, 478431, Note_on_c, 0, 74, 78
2, 478437, Note_on_c, 0, 65, 80
2, 478458, Note_off_c, 0, 60, 64
2, 478481, Note_off_c, 0, 65, 64
2, 478481, Note_off_c, 0, 53, 64
2, 478499, Note_off_c, 0, 74, 64
2, 478526, Note_on_c, 0, 72, 67
2, 478535, Note_on_c, 0, 63, 83
2, 478581, Note_off_c, 0, 63, 64
2, 478589, Note_off_c, 0, 72, 64
2, 478631, Note_on_c, 0, 74, 74
2, 478640, Note_on_c, 0, 65, 88
2, 478641, Note_on_c, 0, 46, 66
2, 478651, Note_on_c, 0, 58, 49
2, 478653, Control_c, 0, 64, 0
2, 478684, Control_c, 0, 64, 127
2, 478696, Note_off_c, 0, 65, 64
2, 478707, Note_off_c, 0, 58, 64
2, 478716, Note_off_c, 0, 46, 64
2, 478717, Note_off_c, 0, 74, 64
2, 478798, Note_on_c, 0, 65, 81
2, 478837, Note_off_c, 0, 65, 64
2, 478847, Control_c, 0, 64, 0
2, 478853, Note_on_c, 0, 65, 72
2, 478854, Note_on_c, 0, 70, 89
2, 478854, Note_on_c, 0, 62, 85
2, 478860, Note_on_c, 0, 46, 70
2, 478861, Note_on_c, 0, 58, 80
2, 478863, Note_on_c, 0, 53, 72
2, 478883, Control_c, 0, 64, 127
2, 479033, Note_off_c, 0, 53, 64
2, 479054, Note_off_c, 0, 58, 64
2, 479064, Note_off_c, 0, 62, 64
2, 479066, Note_off_c, 0, 46, 64
2, 479071, Note_off_c, 0, 65, 64
2, 479073, Note_on_c, 0, 74, 85
2, 479076, Note_on_c, 0, 65, 83
2, 479076, Note_on_c, 0, 62, 81
2, 479076, Note_on_c, 0, 58, 71
2, 479076, Note_on_c, 0, 53, 66
2, 479080, Note_on_c, 0, 46, 79
2, 479106, Note_off_c, 0, 70, 64
2, 479227, Note_off_c, 0, 46, 64
2, 479266, Note_off_c, 0, 53, 64
2, 479269, Note_off_c, 0, 58, 64
2, 479282, Note_off_c, 0, 65, 64
2, 479305, Note_off_c, 0, 62, 64
2, 479322, Note_on_c, 0, 60, 96
2, 479324, Control_c, 0, 64, 0
2, 479329, Note_off_c, 0, 74, 64
2, 479331, Note_on_c, 0, 48, 97
2, 479331, Note_on_c, 0, 36, 97
2, 479377, Control_c, 0, 64, 127
2, 479562, Note_off_c, 0, 60, 64
2, 479640, Note_on_c, 0, 82, 101
2, 479640, Note_on_c, 0, 70, 76
2, 479646, Note_on_c, 0, 67, 66
2, 479646, Note_on_c, 0, 60, 75
2, 479649, Note_on_c, 0, 76, 80
2, 479678, Control_c, 0, 64, 0
2, 479717, Control_c, 0, 64, 127
2, 479797, Note_off_c, 0, 82, 64
2, 479815, Note_off_c, 0, 76, 64
2, 479851, Note_off_c, 0, 70, 64
2, 479867, Note_off_c, 0, 60, 64
2, 479871, Note_off_c, 0, 67, 64
2, 479966, Note_on_c, 0, 70, 74
2, 479967, Note_on_c, 0, 81, 92
2, 479967, Note_on_c, 0, 76, 76
2, 479972, Note_on_c, 0, 60, 71
2, 479976, Note_on_c, 0, 67, 55
2, 480013, Note_off_c, 0, 70, 64
2, 480019, Note_off_c, 0, 76, 64
2, 480025, Note_off_c, 0, 60, 64
2, 480031, Note_off_c, 0, 67, 64
2, 480052, Note_off_c, 0, 81, 64
2, 480070, Note_on_c, 0, 78, 74
2, 480070, Note_on_c, 0, 70, 84
2, 480072, Note_on_c, 0, 67, 66
2, 480072, Note_on_c, 0, 60, 75
2, 480080, Control_c, 0, 64, 0
2, 480085, Note_on_c, 0, 76, 66
2, 480093, Control_c, 0, 64, 127
2, 480121, Note_off_c, 0, 76, 64
2, 480131, Note_off_c, 0, 78, 64
2, 480132, Note_off_c, 0, 67, 64
2, 480136, Note_off_c, 0, 60, 64
2, 480139, Note_off_c, 0, 70, 64
2, 480219, Note_on_c, 0, 70, 75
2, 480222, Note_on_c, 0, 76, 72
2, 480228, Note_on_c, 0, 60, 72
2, 480231, Note_on_c, 0, 79, 80
2, 480232, Note_on_c, 0, 67, 67
2, 480247, Note_off_c, 0, 70, 64
2, 480251, Note_off_c, 0, 76, 64
2, 480252, Note_off_c, 0, 79, 64
2, 480263, Note_off_c, 0, 60, 64
2, 480271, Note_on_c, 0, 76, 80
2, 480272, Note_on_c, 0, 70, 84
2, 480277, Note_on_c, 0, 81, 85
2, 480277, Note_on_c, 0, 60, 83
2, 480322, Note_off_c, 0, 67, 64
2, 480326, Note_off_c, 0, 70, 64
2, 480326, Note_off_c, 0, 76, 64
2, 480329, Note_off_c, 0, 60, 64
2, 480476, Note_off_c, 0, 81, 64
2, 480486, Note_on_c, 0, 70, 83
2, 480487, Note_on_c, 0, 79, 97
2, 480492, Note_on_c, 0, 76, 78
2, 480493, Note_on_c, 0, 60, 76
2, 480493, Control_c, 0, 64, 0
2, 480500, Note_on_c, 0, 67, 76
2, 480509, Control_c, 0, 64, 127
2, 480520, Note_off_c, 0, 67, 64
2, 480523, Note_off_c, 0, 60, 64
2, 480528, Note_off_c, 0, 79, 64
2, 480531, Note_off_c, 0, 76, 64
2, 480546, Note_off_c, 0, 36, 64
2, 480546, Note_off_c, 0, 48, 64
2, 480551, Note_off_c, 0, 70, 64
2, 480720, Note_on_c, 0, 60, 107
2, 480720, Note_on_c, 0, 48, 93
2, 480720, Note_on_c, 0, 36, 102
2, 480728, Control_c, 0, 64, 0
2, 480749, Control_c, 0, 64, 127
2, 480960, Note_off_c, 0, 60, 64
2, 480980, Note_on_c, 0, 70, 94
2, 480984, Note_on_c, 0, 81, 92
2, 480988, Note_on_c, 0, 76, 85
2, 480988, Note_on_c, 0, 67, 84
2, 480988, Note_on_c, 0, 60, 92
2, 481033, Control_c, 0, 64, 0
2, 481062, Control_c, 0, 64, 127
2, 481119, Note_off_c, 0, 81, 64
2, 481155, Note_off_c, 0, 76, 64
2, 481165, Note_off_c, 0, 70, 64
2, 481173, Note_off_c, 0, 60, 64
2, 481187, Note_off_c, 0, 67, 64
2, 481302, Note_on_c, 0, 79, 92
2, 481304, Note_on_c, 0, 70, 94
2, 481308, Note_on_c, 0, 76, 93
2, 481308, Note_on_c, 0, 67, 83
2, 481311, Note_on_c, 0, 60, 84
2, 481335, Note_off_c, 0, 36, 64
2, 481335, Note_off_c, 0, 48, 64
2, 481347, Note_off_c, 0, 67, 64
2, 481347, Note_off_c, 0, 76, 64
2, 481347, Note_off_c, 0, 79, 64
2, 481350, Note_off_c, 0, 70, 64
2, 481361, Note_off_c, 0, 60, 64
2, 481400, Note_on_c, 0, 69, 89
2, 481402, Note_on_c, 0, 60, 83
2, 481408, Note_on_c, 0, 65, 83
2, 481410, Note_on_c, 0, 77, 97
2, 481410, Note_on_c, 0, 53, 89
2, 481416, Control_c, 0, 64, 0
2, 481445, Control_c, 0, 64, 127
2, 481468, Note_off_c, 0, 60, 64
2, 481489, Note_off_c, 0, 53, 64
2, 481491, Note_off_c, 0, 65, 64
2, 481500, Note_off_c, 0, 69, 64
2, 481512, Note_off_c, 0, 77, 64
2, 481552, Note_on_c, 0, 65, 93
2, 481552, Note_on_c, 0, 53, 93
2, 481554, Note_on_c, 0, 70, 94
2, 481554, Note_on_c, 0, 62, 92
2, 481559, Note_on_c, 0, 74, 91
2, 481591, Note_off_c, 0, 53, 64
2, 481591, Note_off_c, 0, 65, 64
2, 481596, Control_c, 0, 64, 0
2, 481603, Note_off_c, 0, 62, 64
2, 481603, Note_on_c, 0, 60, 80
2, 481606, Note_off_c, 0, 70, 64
2, 481606, Note_on_c, 0, 69, 97
2, 481608, Note_on_c, 0, 72, 101
2, 481608, Note_on_c, 0, 65, 85
2, 481608, Note_on_c, 0, 53, 93
2, 481625, Note_off_c, 0, 74, 64
2, 481644, Control_c, 0, 64, 127
2, 481687, Note_off_c, 0, 72, 64
2, 481694, Note_off_c, 0, 69, 64
2, 481694, Note_off_c, 0, 60, 64
2, 481700, Note_off_c, 0, 53, 64
2, 481739, Note_off_c, 0, 65, 64
2, 481811, Note_on_c, 0, 77, 94
2, 481816, Note_on_c, 0, 69, 97
2, 481816, Note_on_c, 0, 60, 75
2, 481821, Note_on_c, 0, 65, 80
2, 481824, Note_on_c, 0, 53, 87
2, 481908, Note_off_c, 0, 77, 64
2, 481918, Note_off_c, 0, 65, 64
2, 481930, Note_off_c, 0, 60, 64
2, 481940, Note_off_c, 0, 69, 64
2, 481955, Note_off_c, 0, 53, 64
2, 482028, Note_on_c, 0, 60, 110
2, 482031, Note_on_c, 0, 36, 94
2, 482035, Note_on_c, 0, 48, 94
2, 482040, Control_c, 0, 64, 0
2, 482060, Control_c, 0, 64, 127
2, 482268, Note_off_c, 0, 60, 64
2, 482279, Note_on_c, 0, 82, 115
2, 482279, Note_on_c, 0, 70, 96
2, 482283, Note_on_c, 0, 76, 94
2, 482283, Note_on_c, 0, 67, 85
2, 482289, Note_on_c, 0, 60, 76
2, 482319, Control_c, 0, 64, 0
2, 482358, Control_c, 0, 64, 127
2, 482440, Note_off_c, 0, 82, 64
2, 482460, Note_off_c, 0, 76, 64
2, 482460, Note_off_c, 0, 70, 64
2, 482496, Note_off_c, 0, 60, 64
2, 482505, Note_off_c, 0, 67, 64
2, 482592, Note_on_c, 0, 70, 66
2, 482595, Note_on_c, 0, 81, 84
2, 482595, Note_on_c, 0, 60, 71
2, 482600, Note_on_c, 0, 76, 70
2, 482600, Note_on_c, 0, 67, 65
2, 482639, Note_off_c, 0, 70, 64
2, 482640, Note_off_c, 0, 60, 64
2, 482644, Note_off_c, 0, 67, 64
2, 482647, Note_off_c, 0, 76, 64
2, 482663, Note_off_c, 0, 81, 64
2, 482686, Control_c, 0, 64, 0
2, 482692, Note_on_c, 0, 78, 83
2, 482695, Note_on_c, 0, 67, 71
2, 482695, Note_on_c, 0, 60, 71
2, 482700, Note_on_c, 0, 76, 78
2, 482700, Note_on_c, 0, 70, 85
2, 482708, Control_c, 0, 64, 127
2, 482745, Note_off_c, 0, 70, 64
2, 482760, Note_off_c, 0, 78, 64
2, 482762, Note_off_c, 0, 67, 64
2, 482767, Note_off_c, 0, 60, 64
2, 482768, Note_off_c, 0, 76, 64
2, 482832, Note_on_c, 0, 79, 93
2, 482834, Note_on_c, 0, 76, 75
2, 482834, Note_on_c, 0, 70, 72
2, 482839, Note_on_c, 0, 60, 76
2, 482842, Note_on_c, 0, 67, 78
2, 482859, Note_off_c, 0, 70, 64
2, 482866, Note_off_c, 0, 76, 64
2, 482871, Note_off_c, 0, 79, 64
2, 482872, Note_off_c, 0, 67, 64
2, 482875, Note_off_c, 0, 60, 64
2, 482880, Note_on_c, 0, 81, 94
2, 482882, Note_on_c, 0, 70, 81
2, 482886, Note_on_c, 0, 76, 80
2, 482893, Control_c, 0, 64, 0
2, 482898, Note_on_c, 0, 60, 76
2, 482899, Note_on_c, 0, 67, 75
2, 482909, Control_c, 0, 64, 127
2, 482938, Note_off_c, 0, 70, 64
2, 482942, Note_off_c, 0, 67, 64
2, 482942, Note_off_c, 0, 76, 64
2, 482947, Note_off_c, 0, 60, 64
2, 483062, Note_off_c, 0, 81, 64
2, 483079, Control_c, 0, 64, 0
2, 483084, Note_on_c, 0, 76, 78
2, 483086, Note_on_c, 0, 70, 84
2, 483088, Note_on_c, 0, 60, 75
2, 483094, Note_on_c, 0, 67, 66
2, 483095, Note_on_c, 0, 79, 85
2, 483109, Control_c, 0, 64, 127
2, 483117, Note_off_c, 0, 70, 64
2, 483120, Note_off_c, 0, 79, 64
2, 483123, Note_off_c, 0, 76, 64
2, 483125, Note_off_c, 0, 60, 64
2, 483138, Note_off_c, 0, 67, 64
2, 483246, Note_off_c, 0, 36, 64
2, 483250, Note_off_c, 0, 48, 64
2, 483294, Note_on_c, 0, 84, 80
2, 483294, Note_on_c, 0, 75, 75
2, 483294, Note_on_c, 0, 69, 72
2, 483300, Note_on_c, 0, 65, 75
2, 483312, Control_c, 0, 64, 0
2, 483323, Control_c, 0, 64, 127
2, 483346, Note_off_c, 0, 84, 64
2, 483350, Note_off_c, 0, 69, 64
2, 483353, Note_off_c, 0, 65, 64
2, 483364, Note_off_c, 0, 75, 64
2, 483434, Note_on_c, 0, 68, 71
2, 483434, Note_on_c, 0, 58, 66
2, 483441, Note_on_c, 0, 74, 76
2, 483442, Note_on_c, 0, 77, 78
2, 483478, Note_off_c, 0, 58, 64
2, 483480, Note_off_c, 0, 77, 64
2, 483492, Note_on_c, 0, 82, 85
2, 483495, Note_off_c, 0, 68, 64
2, 483495, Control_c, 0, 64, 0
2, 483503, Note_on_c, 0, 73, 84
2, 483503, Note_on_c, 0, 63, 65
2, 483504, Note_on_c, 0, 67, 76
2, 483511, Note_off_c, 0, 74, 64
2, 483524, Control_c, 0, 64, 127
2, 483563, Note_off_c, 0, 67, 64
2, 483570, Note_off_c, 0, 63, 64
2, 483578, Note_off_c, 0, 82, 64
2, 483609, Note_off_c, 0, 73, 64
2, 483698, Note_on_c, 0, 75, 78
2, 483700, Note_on_c, 0, 72, 74
2, 483704, Note_on_c, 0, 56, 61
2, 483708, Note_on_c, 0, 66, 46
2, 483708, Control_c, 0, 64, 0
2, 483757, Control_c, 0, 64, 127
2, 483788, Note_off_c, 0, 75, 64
2, 483791, Note_off_c, 0, 56, 64
2, 483796, Note_off_c, 0, 66, 64
2, 483796, Note_off_c, 0, 72, 64
2, 483909, Control_c, 0, 64, 0
2, 483914, Note_on_c, 0, 80, 74
2, 483914, Note_on_c, 0, 72, 72
2, 483914, Note_on_c, 0, 62, 59
2, 483922, Note_on_c, 0, 65, 57
2, 483946, Control_c, 0, 64, 127
2, 483969, Note_off_c, 0, 62, 64
2, 483976, Note_off_c, 0, 65, 64
2, 483978, Note_off_c, 0, 72, 64
2, 483984, Note_off_c, 0, 80, 64
2, 484061, Note_on_c, 0, 74, 66
2, 484061, Note_on_c, 0, 71, 63
2, 484068, Note_on_c, 0, 65, 63
2, 484068, Note_on_c, 0, 55, 63
2, 484106, Note_off_c, 0, 71, 64
2, 484106, Note_off_c, 0, 74, 64
2, 484115, Note_off_c, 0, 55, 64
2, 484115, Note_on_c, 0, 70, 78
2, 484116, Note_off_c, 0, 65, 64
2, 484119, Control_c, 0, 64, 0
2, 484120, Note_on_c, 0, 64, 49
2, 484123, Note_on_c, 0, 60, 63
2, 484125, Note_on_c, 0, 79, 62
2, 484148, Control_c, 0, 64, 127
2, 484181, Note_off_c, 0, 64, 64
2, 484197, Note_off_c, 0, 60, 64
2, 484260, Note_off_c, 0, 79, 64
2, 484273, Note_off_c, 0, 70, 64
2, 484333, Note_on_c, 0, 72, 68
2, 484336, Note_on_c, 0, 69, 67
2, 484341, Note_on_c, 0, 63, 55
2, 484344, Note_on_c, 0, 53, 62
2, 484351, Control_c, 0, 64, 0
2, 484371, Control_c, 0, 64, 127
2, 484403, Note_off_c, 0, 53, 64
2, 484407, Note_off_c, 0, 69, 64
2, 484409, Note_off_c, 0, 72, 64
2, 484410, Note_off_c, 0, 63, 64
2, 484588, Note_on_c, 0, 68, 61
2, 484591, Note_on_c, 0, 77, 88
2, 484593, Note_on_c, 0, 46, 70
2, 484593, Note_on_c, 0, 74, 83
2, 484598, Note_on_c, 0, 34, 74
2, 484611, Control_c, 0, 64, 0
2, 484653, Control_c, 0, 64, 127
2, 484717, Note_off_c, 0, 68, 64
2, 484784, Note_off_c, 0, 74, 64
2, 484803, Note_on_c, 0, 68, 66
2, 484808, Note_on_c, 0, 65, 3
2, 484816, Note_on_c, 0, 58, 41
2, 484833, Note_off_c, 0, 46, 64
2, 484838, Note_off_c, 0, 34, 64
2, 484868, Note_off_c, 0, 58, 64
2, 484868, Note_off_c, 0, 65, 64
2, 484869, Note_off_c, 0, 68, 64
2, 484908, Note_on_c, 0, 79, 79
2, 484922, Note_off_c, 0, 77, 64
2, 484961, Note_off_c, 0, 79, 64
2, 484988, Note_on_c, 0, 77, 41
2, 485012, Note_on_c, 0, 79, 81
2, 485015, Note_off_c, 0, 77, 64
2, 485048, Note_on_c, 0, 58, 57
2, 485051, Note_on_c, 0, 68, 72
2, 485051, Control_c, 0, 64, 0
2, 485052, Note_on_c, 0, 74, 70
2, 485052, Note_on_c, 0, 65, 42
2, 485058, Note_on_c, 0, 77, 75
2, 485059, Note_off_c, 0, 79, 64
2, 485068, Control_c, 0, 64, 127
2, 485088, Note_off_c, 0, 74, 64
2, 485097, Note_off_c, 0, 65, 64
2, 485101, Note_off_c, 0, 77, 64
2, 485117, Note_off_c, 0, 58, 64
2, 485141, Note_off_c, 0, 68, 64
2, 485168, Note_on_c, 0, 73, 70
2, 485174, Note_on_c, 0, 76, 79
2, 485246, Note_off_c, 0, 76, 64
2, 485254, Note_off_c, 0, 73, 64
2, 485274, Note_on_c, 0, 74, 71
2, 485280, Note_on_c, 0, 77, 74
2, 485280, Note_on_c, 0, 68, 81
2, 485284, Note_on_c, 0, 58, 80
2, 485288, Note_on_c, 0, 46, 80
2, 485301, Control_c, 0, 64, 0
2, 485321, Control_c, 0, 64, 127
2, 485362, Note_off_c, 0, 46, 64
2, 485366, Note_off_c, 0, 58, 64
2, 485390, Note_off_c, 0, 68, 64
2, 485402, Note_off_c, 0, 77, 64
2, 485407, Note_off_c, 0, 74, 64
2, 485429, Note_on_c, 0, 70, 88
2, 485458, Note_off_c, 0, 70, 64
2, 485484, Note_on_c, 0, 70, 89
2, 485485, Note_on_c, 0, 66, 92
2, 485490, Note_on_c, 0, 75, 85
2, 485493, Note_on_c, 0, 58, 66
2, 485495, Note_on_c, 0, 51, 71
2, 485512, Control_c, 0, 64, 0
2, 485553, Control_c, 0, 64, 127
2, 485577, Note_off_c, 0, 51, 64
2, 485589, Note_off_c, 0, 58, 64
2, 485591, Note_off_c, 0, 75, 64
2, 485595, Note_off_c, 0, 70, 64
2, 485624, Note_off_c, 0, 66, 64
2, 485703, Note_on_c, 0, 70, 75
2, 485706, Note_on_c, 0, 65, 75
2, 485712, Note_on_c, 0, 74, 83
2, 485712, Note_on_c, 0, 58, 70
2, 485712, Note_on_c, 0, 53, 70
2, 485724, Control_c, 0, 64, 0
2, 485762, Control_c, 0, 64, 127
2, 485765, Note_off_c, 0, 65, 64
2, 485792, Note_off_c, 0, 53, 64
2, 485799, Note_off_c, 0, 58, 64
2, 485801, Note_off_c, 0, 70, 64
2, 485818, Note_off_c, 0, 74, 64
2, 485920, Note_on_c, 0, 63, 80
2, 485923, Note_on_c, 0, 70, 78
2, 485928, Note_on_c, 0, 72, 80
2, 485930, Note_on_c, 0, 58, 68
2, 485930, Note_on_c, 0, 54, 74
2, 485939, Control_c, 0, 64, 0
2, 485988, Control_c, 0, 64, 127
2, 486027, Note_off_c, 0, 63, 64
2, 486133, Control_c, 0, 64, 0
2, 486142, Note_on_c, 0, 66, 88
2, 486142, Note_on_c, 0, 51, 65
2, 486161, Note_off_c, 0, 54, 64
2, 486162, Control_c, 0, 64, 127
2, 486178, Note_off_c, 0, 70, 64
2, 486240, Note_off_c, 0, 72, 64
2, 486240, Note_on_c, 0, 75, 74
2, 486290, Note_off_c, 0, 66, 64
2, 486298, Note_off_c, 0, 75, 64
2, 486314, Note_off_c, 0, 51, 64
2, 486325, Note_off_c, 0, 58, 64
2, 486343, Note_on_c, 0, 53, 74
2, 486350, Note_on_c, 0, 69, 78
2, 486351, Note_on_c, 0, 65, 74
2, 486354, Note_on_c, 0, 74, 80
2, 486360, Control_c, 0, 64, 0
2, 486373, Control_c, 0, 64, 127
2, 486393, Note_off_c, 0, 65, 64
2, 486400, Note_off_c, 0, 69, 64
2, 486416, Note_off_c, 0, 53, 64
2, 486420, Note_off_c, 0, 74, 64
2, 486449, Note_on_c, 0, 72, 74
2, 486452, Note_on_c, 0, 63, 92
2, 486495, Note_off_c, 0, 63, 64
2, 486499, Note_off_c, 0, 72, 64
2, 486548, Note_on_c, 0, 74, 83
2, 486550, Note_on_c, 0, 65, 92
2, 486558, Note_on_c, 0, 46, 68
2, 486561, Note_on_c, 0, 34, 71
2, 486570, Control_c, 0, 64, 0
2, 486597, Control_c, 0, 64, 127
2, 486604, Note_off_c, 0, 65, 64
2, 486640, Note_off_c, 0, 74, 64
2, 486688, Note_off_c, 0, 46, 64
2, 486724, Note_on_c, 0, 65, 81
2, 486744, Control_c, 0, 64, 0
2, 486768, Note_off_c, 0, 65, 64
2, 486776, Note_on_c, 0, 70, 85
2, 486776, Note_on_c, 0, 65, 81
2, 486776, Note_on_c, 0, 62, 81
2, 486780, Note_on_c, 0, 58, 53
2, 486784, Note_on_c, 0, 53, 46
2, 486784, Control_c, 0, 64, 127
2, 486788, Note_on_c, 0, 46, 46
2, 486837, Note_off_c, 0, 34, 64
2, 486859, Note_off_c, 0, 62, 64
2, 486875, Note_off_c, 0, 65, 64
2, 486882, Note_off_c, 0, 58, 64
2, 486886, Note_off_c, 0, 53, 64
2, 486890, Note_off_c, 0, 46, 64
2, 486895, Note_off_c, 0, 70, 64
2, 486966, Control_c, 0, 64, 0
2, 486992, Note_on_c, 0, 74, 83
2, 486992, Note_on_c, 0, 65, 81
2, 486992, Note_on_c, 0, 62, 81
2, 486992, Control_c, 0, 64, 127
2, 486996, Note_on_c, 0, 58, 33
2, 486996, Note_on_c, 0, 53, 36
2, 486996, Note_on_c, 0, 46, 37
2, 487085, Note_off_c, 0, 62, 64
2, 487098, Note_off_c, 0, 46, 64
2, 487098, Note_off_c, 0, 53, 64
2, 487098, Note_off_c, 0, 58, 64
2, 487106, Note_off_c, 0, 65, 64
2, 487119, Note_off_c, 0, 74, 64
2, 487128, Control_c, 0, 64, 127
2, 487232, Note_on_c, 0, 77, 75
2, 487242, Note_on_c, 0, 72, 75
2, 487242, Note_on_c, 0, 62, 74
2, 487248, Note_on_c, 0, 65, 58
2, 487248, Note_on_c, 0, 56, 59
2, 487258, Control_c, 0, 64, 0
2, 487314, Control_c, 0, 64, 127
2, 487335, Note_off_c, 0, 56, 64
2, 487341, Note_off_c, 0, 72, 64
2, 487379, Note_off_c, 0, 65, 64
2, 487379, Note_off_c, 0, 62, 64
2, 487453, Note_on_c, 0, 72, 76
2, 487458, Note_on_c, 0, 62, 63
2, 487462, Note_on_c, 0, 65, 58
2, 487465, Note_on_c, 0, 56, 48
2, 487476, Note_off_c, 0, 77, 64
2, 487510, Note_off_c, 0, 56, 64
2, 487514, Note_off_c, 0, 62, 64
2, 487517, Note_off_c, 0, 65, 64
2, 487521, Note_off_c, 0, 72, 64
2, 487553, Note_on_c, 0, 79, 78
2, 487600, Note_on_c, 0, 77, 63
2, 487600, Note_on_c, 0, 72, 58
2, 487615, Note_off_c, 0, 79, 64
2, 487622, Note_off_c, 0, 72, 64
2, 487632, Note_on_c, 0, 79, 57
2, 487639, Note_off_c, 0, 77, 64
2, 487672, Note_on_c, 0, 65, 67
2, 487674, Note_on_c, 0, 56, 57
2, 487676, Note_on_c, 0, 62, 66
2, 487680, Note_on_c, 0, 77, 83
2, 487680, Note_on_c, 0, 72, 72
2, 487685, Control_c, 0, 64, 0
2, 487694, Note_off_c, 0, 79, 64
2, 487707, Control_c, 0, 64, 127
2, 487729, Note_off_c, 0, 77, 64
2, 487742, Note_off_c, 0, 56, 64
2, 487743, Note_off_c, 0, 62, 64
2, 487750, Note_off_c, 0, 65, 64
2, 487785, Note_on_c, 0, 76, 83
2, 487820, Note_off_c, 0, 72, 64
2, 487826, Note_off_c, 0, 76, 64
2, 487885, Note_on_c, 0, 77, 81
2, 487885, Note_on_c, 0, 71, 70
2, 487890, Note_on_c, 0, 62, 70
2, 487893, Note_on_c, 0, 55, 58
2, 487908, Control_c, 0, 64, 0
2, 487928, Control_c, 0, 64, 127
2, 487934, Note_off_c, 0, 55, 64
2, 487946, Note_off_c, 0, 62, 64
2, 487953, Note_off_c, 0, 77, 64
2, 487957, Note_off_c, 0, 71, 64
2, 488024, Note_on_c, 0, 71, 83
2, 488024, Note_on_c, 0, 62, 70
2, 488031, Note_on_c, 0, 55, 70
2, 488052, Note_off_c, 0, 71, 64
2, 488076, Note_on_c, 0, 75, 85
2, 488077, Note_on_c, 0, 71, 81
2, 488081, Note_on_c, 0, 67, 70
2, 488093, Note_off_c, 0, 62, 64
2, 488093, Control_c, 0, 64, 0
2, 488122, Control_c, 0, 64, 127
2, 488165, Note_off_c, 0, 67, 64
2, 488172, Note_off_c, 0, 75, 64
2, 488173, Note_off_c, 0, 71, 64
2, 488195, Note_off_c, 0, 55, 64
2, 488290, Note_on_c, 0, 74, 80
2, 488296, Note_on_c, 0, 71, 78
2, 488296, Note_on_c, 0, 65, 68
2, 488303, Note_on_c, 0, 55, 66
2, 488309, Control_c, 0, 64, 0
2, 488338, Control_c, 0, 64, 127
2, 488343, Note_off_c, 0, 74, 64
2, 488356, Note_off_c, 0, 55, 64
2, 488400, Note_off_c, 0, 65, 64
2, 488440, Note_off_c, 0, 71, 64
2, 488520, Note_on_c, 0, 64, 70
2, 488524, Note_on_c, 0, 60, 55
2, 488528, Note_on_c, 0, 72, 78
2, 488528, Note_on_c, 0, 70, 74
2, 488575, Control_c, 0, 64, 0
2, 488601, Note_off_c, 0, 64, 64
2, 488604, Control_c, 0, 64, 127
2, 488612, Note_off_c, 0, 60, 64
2, 488748, Note_off_c, 0, 70, 64
2, 488749, Note_off_c, 0, 72, 64
2, 488766, Note_on_c, 0, 53, 58
2, 488771, Note_on_c, 0, 69, 70
2, 488785, Note_on_c, 0, 63, 48
2, 488788, Control_c, 0, 64, 0
2, 488818, Control_c, 0, 64, 127
2, 488845, Note_off_c, 0, 53, 64
2, 488870, Note_off_c, 0, 63, 64
2, 488870, Note_on_c, 0, 67, 61
2, 488873, Note_on_c, 0, 75, 78
2, 488936, Note_off_c, 0, 75, 64
2, 488968, Note_on_c, 0, 74, 66
2, 488972, Note_on_c, 0, 65, 48
2, 488982, Note_off_c, 0, 67, 64
2, 489064, Note_off_c, 0, 74, 64
2, 489066, Note_on_c, 0, 72, 74
2, 489067, Note_on_c, 0, 63, 74
2, 489072, Note_off_c, 0, 65, 64
2, 489095, Note_off_c, 0, 72, 64
2, 489097, Note_off_c, 0, 69, 64
2, 489105, Note_off_c, 0, 63, 64
2, 489161, Note_on_c, 0, 58, 85
2, 489162, Note_on_c, 0, 70, 92
2, 489165, Note_on_c, 0, 74, 88
2, 489169, Note_on_c, 0, 62, 74
2, 489216, Note_off_c, 0, 58, 64
2, 489218, Note_off_c, 0, 70, 64
2, 489239, Note_off_c, 0, 62, 64
2, 489269, Note_off_c, 0, 74, 64
2, 489306, Note_on_c, 0, 72, 67
2, 489308, Note_on_c, 0, 60, 72
2, 489311, Note_on_c, 0, 65, 74
2, 489312, Note_on_c, 0, 53, 88
2, 489338, Note_off_c, 0, 60, 64
2, 489339, Note_off_c, 0, 53, 64
2, 489348, Control_c, 0, 64, 0
2, 489352, Note_on_c, 0, 58, 81
2, 489354, Note_off_c, 0, 65, 64
2, 489360, Note_on_c, 0, 70, 88
2, 489360, Note_on_c, 0, 62, 83
2, 489360, Note_on_c, 0, 46, 102
2, 489367, Note_off_c, 0, 72, 64
2, 489377, Control_c, 0, 64, 127
2, 489517, Note_off_c, 0, 58, 64
2, 489540, Note_off_c, 0, 46, 64
2, 489540, Note_off_c, 0, 62, 64
2, 489540, Note_off_c, 0, 70, 64
2, 489578, Control_c, 0, 64, 0
2, 489580, Note_on_c, 0, 46, 110
2, 489580, Note_on_c, 0, 34, 74
2, 489583, Note_on_c, 0, 82, 96
2, 489584, Note_on_c, 0, 70, 110
2, 489592, Control_c, 0, 64, 127
2, 489804, Note_on_c, 0, 36, 71
2, 489812, Note_on_c, 0, 60, 75
2, 489816, Note_on_c, 0, 48, 98
2, 489820, Note_off_c, 0, 34, 64
2, 489820, Note_off_c, 0, 46, 64
2, 489823, Note_off_c, 0, 82, 64
2, 489824, Note_off_c, 0, 70, 64
2, 489853, Control_c, 0, 64, 0
2, 489901, Control_c, 0, 64, 127
2, 490029, Note_off_c, 0, 60, 64
2, 490069, Note_on_c, 0, 82, 72
2, 490072, Note_on_c, 0, 70, 58
2, 490076, Note_on_c, 0, 76, 58
2, 490076, Note_on_c, 0, 60, 52
2, 490081, Note_on_c, 0, 67, 49
2, 490103, Control_c, 0, 64, 0
2, 490131, Control_c, 0, 64, 127
2, 490231, Note_off_c, 0, 82, 64
2, 490265, Note_off_c, 0, 76, 64
2, 490275, Note_off_c, 0, 70, 64
2, 490304, Note_off_c, 0, 67, 64
2, 490315, Note_off_c, 0, 60, 64
2, 490376, Note_on_c, 0, 81, 66
2, 490376, Note_on_c, 0, 70, 50
2, 490383, Note_on_c, 0, 76, 52
2, 490383, Note_on_c, 0, 60, 49
2, 490388, Note_on_c, 0, 67, 50
2, 490415, Note_off_c, 0, 70, 64
2, 490421, Note_off_c, 0, 60, 64
2, 490425, Note_off_c, 0, 76, 64
2, 490428, Note_off_c, 0, 67, 64
2, 490445, Note_off_c, 0, 81, 64
2, 490467, Note_on_c, 0, 78, 52
2, 490470, Note_on_c, 0, 70, 59
2, 490474, Note_on_c, 0, 76, 49
2, 490474, Note_on_c, 0, 67, 50
2, 490474, Note_on_c, 0, 60, 52
2, 490509, Note_off_c, 0, 76, 64
2, 490524, Note_off_c, 0, 70, 64
2, 490528, Note_off_c, 0, 60, 64
2, 490528, Note_off_c, 0, 78, 64
2, 490533, Note_off_c, 0, 67, 64
2, 490594, Note_on_c, 0, 70, 57
2, 490599, Note_on_c, 0, 79, 61
2, 490599, Note_on_c, 0, 76, 49
2, 490605, Note_on_c, 0, 67, 50
2, 490605, Note_on_c, 0, 60, 58
2, 490622, Note_off_c, 0, 70, 64
2, 490630, Note_off_c, 0, 76, 64
2, 490631, Note_off_c, 0, 79, 64
2, 490632, Note_off_c, 0, 60, 64
2, 490641, Control_c, 0, 64, 0
2, 490645, Note_on_c, 0, 81, 66
2, 490650, Note_on_c, 0, 60, 54
2, 490654, Note_on_c, 0, 76, 46
2, 490654, Note_on_c, 0, 70, 59
2, 490671, Control_c, 0, 64, 127
2, 490704, Note_off_c, 0, 76, 64
2, 490706, Note_off_c, 0, 67, 64
2, 490712, Note_off_c, 0, 70, 64
2, 490716, Note_off_c, 0, 60, 64
2, 490817, Note_off_c, 0, 81, 64
2, 490857, Note_on_c, 0, 79, 66
2, 490857, Note_on_c, 0, 70, 59
2, 490861, Note_on_c, 0, 60, 54
2, 490864, Note_on_c, 0, 67, 45
2, 490884, Note_off_c, 0, 67, 64
2, 490887, Note_off_c, 0, 79, 64
2, 490895, Note_off_c, 0, 60, 64
2, 490896, Note_off_c, 0, 70, 64
2, 491019, Note_off_c, 0, 36, 64
2, 491031, Note_off_c, 0, 48, 64
2, 491062, Note_on_c, 0, 60, 76
2, 491067, Note_on_c, 0, 36, 70
2, 491069, Note_on_c, 0, 48, 72
2, 491073, Control_c, 0, 64, 0
2, 491093, Control_c, 0, 64, 127
2, 491296, Note_on_c, 0, 81, 63
2, 491296, Note_on_c, 0, 70, 66
2, 491302, Note_off_c, 0, 60, 64
2, 491304, Note_on_c, 0, 76, 52
2, 491304, Note_on_c, 0, 67, 63
2, 491306, Note_on_c, 0, 60, 55
2, 491327, Control_c, 0, 64, 0
2, 491355, Control_c, 0, 64, 127
2, 491414, Note_off_c, 0, 81, 64
2, 491436, Note_off_c, 0, 76, 64
2, 491442, Note_off_c, 0, 60, 64
2, 491442, Note_off_c, 0, 70, 64
2, 491462, Note_off_c, 0, 67, 64
2, 491583, Note_on_c, 0, 79, 62
2, 491589, Note_on_c, 0, 70, 59
2, 491593, Note_on_c, 0, 67, 55
2, 491596, Note_on_c, 0, 60, 58
2, 491629, Note_off_c, 0, 70, 64
2, 491630, Note_off_c, 0, 79, 64
2, 491635, Note_off_c, 0, 67, 64
2, 491649, Note_off_c, 0, 60, 64
2, 491681, Note_on_c, 0, 69, 59
2, 491681, Note_on_c, 0, 60, 57
2, 491682, Note_off_c, 0, 36, 64
2, 491682, Note_on_c, 0, 65, 57
2, 491682, Control_c, 0, 64, 0
2, 491684, Note_off_c, 0, 48, 64
2, 491692, Note_on_c, 0, 77, 65
2, 491692, Note_on_c, 0, 53, 65
2, 491712, Control_c, 0, 64, 127
2, 491733, Note_off_c, 0, 60, 64
2, 491744, Note_off_c, 0, 65, 64
2, 491748, Note_off_c, 0, 53, 64
2, 491756, Note_off_c, 0, 77, 64
2, 491760, Note_off_c, 0, 69, 64
2, 491823, Note_on_c, 0, 62, 58
2, 491825, Note_on_c, 0, 74, 63
2, 491825, Note_on_c, 0, 70, 67
2, 491832, Note_on_c, 0, 65, 50
2, 491861, Note_off_c, 0, 70, 64
2, 491862, Note_off_c, 0, 62, 64
2, 491871, Note_on_c, 0, 69, 70
2, 491875, Note_on_c, 0, 72, 71
2, 491875, Note_on_c, 0, 60, 66
2, 491880, Control_c, 0, 64, 0
2, 491891, Note_off_c, 0, 74, 64
2, 491920, Control_c, 0, 64, 127
2, 491931, Note_off_c, 0, 65, 64
2, 491944, Note_off_c, 0, 69, 64
2, 491959, Note_off_c, 0, 72, 64
2, 491962, Note_off_c, 0, 60, 64
2, 492081, Control_c, 0, 64, 0
2, 492084, Note_on_c, 0, 77, 67
2, 492086, Note_on_c, 0, 69, 63
2, 492087, Note_on_c, 0, 65, 62
2, 492093, Note_on_c, 0, 60, 61
2, 492093, Note_on_c, 0, 53, 63
2, 492103, Control_c, 0, 64, 127
2, 492116, Note_off_c, 0, 65, 64
2, 492119, Note_off_c, 0, 60, 64
2, 492126, Note_off_c, 0, 77, 64
2, 492127, Note_off_c, 0, 53, 64
2, 492144, Note_off_c, 0, 69, 64
2, 492304, Note_on_c, 0, 60, 66
2, 492309, Control_c, 0, 64, 0
2, 492316, Note_on_c, 0, 48, 72
2, 492316, Note_on_c, 0, 36, 67
2, 492343, Control_c, 0, 64, 127
2, 492544, Note_off_c, 0, 60, 64
2, 492565, Note_on_c, 0, 70, 53
2, 492566, Note_on_c, 0, 82, 72
2, 492568, Note_on_c, 0, 67, 54
2, 492574, Note_on_c, 0, 76, 55
2, 492574, Note_on_c, 0, 60, 58
2, 492591, Control_c, 0, 64, 0
2, 492621, Control_c, 0, 64, 127
2, 492722, Note_off_c, 0, 82, 64
2, 492732, Note_off_c, 0, 76, 64
2, 492733, Note_off_c, 0, 70, 64
2, 492769, Note_off_c, 0, 60, 64
2, 492774, Note_off_c, 0, 67, 64
2, 492875, Note_on_c, 0, 81, 62
2, 492875, Note_on_c, 0, 70, 53
2, 492879, Note_on_c, 0, 76, 53
2, 492879, Note_on_c, 0, 60, 50
2, 492880, Note_on_c, 0, 67, 49
2, 492909, Note_off_c, 0, 70, 64
2, 492922, Note_off_c, 0, 76, 64
2, 492924, Note_off_c, 0, 60, 64
2, 492926, Note_off_c, 0, 67, 64
2, 492936, Note_off_c, 0, 81, 64
2, 492960, Note_on_c, 0, 78, 59
2, 492964, Note_on_c, 0, 60, 50
2, 492965, Note_on_c, 0, 70, 58
2, 492965, Note_on_c, 0, 67, 45
2, 492974, Control_c, 0, 64, 0
2, 492982, Note_on_c, 0, 76, 33
2, 492996, Note_off_c, 0, 76, 64
2, 493010, Control_c, 0, 64, 127
2, 493021, Note_off_c, 0, 70, 64
2, 493027, Note_off_c, 0, 78, 64
2, 493034, Note_off_c, 0, 67, 64
2, 493042, Note_off_c, 0, 60, 64
2, 493095, Note_on_c, 0, 76, 52
2, 493095, Note_on_c, 0, 70, 54
2, 493102, Note_on_c, 0, 79, 52
2, 493107, Note_on_c, 0, 67, 57
2, 493107, Note_on_c, 0, 60, 57
2, 493124, Note_off_c, 0, 70, 64
2, 493125, Note_off_c, 0, 79, 64
2, 493127, Note_off_c, 0, 76, 64
2, 493135, Control_c, 0, 64, 0
2, 493142, Note_off_c, 0, 67, 64
2, 493145, Note_on_c, 0, 81, 66
2, 493148, Note_on_c, 0, 70, 58
2, 493155, Note_on_c, 0, 76, 46
2, 493160, Note_on_c, 0, 67, 48
2, 493177, Control_c, 0, 64, 127
2, 493184, Note_off_c, 0, 76, 64
2, 493196, Note_off_c, 0, 70, 64
2, 493206, Note_off_c, 0, 67, 64
2, 493212, Note_off_c, 0, 60, 64
2, 493317, Note_off_c, 0, 81, 64
2, 493328, Control_c, 0, 64, 0
2, 493351, Note_on_c, 0, 70, 58
2, 493355, Note_on_c, 0, 60, 50
2, 493358, Note_on_c, 0, 79, 63
2, 493362, Note_on_c, 0, 67, 35
2, 493366, Control_c, 0, 64, 127
2, 493383, Note_off_c, 0, 70, 64
2, 493386, Note_off_c, 0, 79, 64
2, 493392, Note_off_c, 0, 60, 64
2, 493413, Note_off_c, 0, 67, 64
2, 493531, Note_off_c, 0, 36, 64
2, 493531, Note_off_c, 0, 48, 64
2, 493558, Note_on_c, 0, 69, 55
2, 493558, Note_on_c, 0, 65, 55
2, 493559, Note_on_c, 0, 84, 58
2, 493563, Note_on_c, 0, 75, 54
2, 493579, Control_c, 0, 64, 0
2, 493589, Control_c, 0, 64, 127
2, 493609, Note_off_c, 0, 75, 64
2, 493610, Note_off_c, 0, 84, 64
2, 493615, Note_off_c, 0, 69, 64
2, 493625, Note_off_c, 0, 65, 64
2, 493708, Note_on_c, 0, 77, 58
2, 493708, Note_on_c, 0, 58, 52
2, 493712, Note_on_c, 0, 74, 65
2, 493712, Note_on_c, 0, 68, 57
2, 493752, Note_on_c, 0, 82, 71
2, 493754, Note_on_c, 0, 73, 67
2, 493756, Control_c, 0, 64, 0
2, 493758, Note_off_c, 0, 58, 64
2, 493760, Note_on_c, 0, 67, 59
2, 493760, Note_on_c, 0, 63, 52
2, 493761, Note_off_c, 0, 77, 64
2, 493766, Note_off_c, 0, 68, 64
2, 493766, Note_off_c, 0, 74, 64
2, 493783, Control_c, 0, 64, 127
2, 493820, Note_off_c, 0, 82, 64
2, 493822, Note_off_c, 0, 67, 64
2, 493838, Note_off_c, 0, 63, 64
2, 493878, Note_off_c, 0, 73, 64
2, 493963, Note_on_c, 0, 75, 59
2, 493966, Note_on_c, 0, 72, 57
2, 493972, Note_on_c, 0, 56, 54
2, 493976, Note_on_c, 0, 66, 54
2, 493986, Control_c, 0, 64, 0
2, 494016, Control_c, 0, 64, 127
2, 494057, Note_off_c, 0, 66, 64
2, 494061, Note_off_c, 0, 56, 64
2, 494064, Note_off_c, 0, 72, 64
2, 494064, Note_off_c, 0, 75, 64
2, 494176, Note_on_c, 0, 62, 52
2, 494185, Note_on_c, 0, 80, 61
2, 494185, Note_on_c, 0, 72, 58
2, 494188, Note_on_c, 0, 65, 54
2, 494192, Control_c, 0, 64, 0
2, 494214, Control_c, 0, 64, 127
2, 494230, Note_off_c, 0, 62, 64
2, 494240, Note_off_c, 0, 65, 64
2, 494244, Note_off_c, 0, 72, 64
2, 494260, Note_off_c, 0, 80, 64
2, 494328, Note_on_c, 0, 65, 55
2, 494329, Note_on_c, 0, 55, 55
2, 494330, Note_on_c, 0, 74, 52
2, 494336, Note_on_c, 0, 71, 52
2, 494358, Note_off_c, 0, 71, 64
2, 494366, Note_off_c, 0, 55, 64
2, 494368, Note_off_c, 0, 74, 64
2, 494376, Note_on_c, 0, 79, 58
2, 494376, Note_on_c, 0, 64, 52
2, 494376, Note_on_c, 0, 60, 45
2, 494382, Note_on_c, 0, 70, 66
2, 494387, Control_c, 0, 64, 0
2, 494417, Note_off_c, 0, 65, 64
2, 494424, Control_c, 0, 64, 127
2, 494443, Note_off_c, 0, 64, 64
2, 494451, Note_off_c, 0, 60, 64
2, 494476, Note_off_c, 0, 79, 64
2, 494515, Note_off_c, 0, 70, 64
2, 494614, Note_on_c, 0, 72, 63
2, 494614, Note_on_c, 0, 63, 46
2, 494618, Note_on_c, 0, 69, 58
2, 494623, Note_on_c, 0, 53, 52
2, 494626, Control_c, 0, 64, 0
2, 494655, Control_c, 0, 64, 127
2, 494705, Note_off_c, 0, 63, 64
2, 494706, Note_off_c, 0, 53, 64
2, 494710, Note_off_c, 0, 72, 64
2, 494714, Note_off_c, 0, 69, 64
2, 494857, Note_on_c, 0, 68, 61
2, 494868, Note_on_c, 0, 77, 68
2, 494872, Note_on_c, 0, 46, 74
2, 494876, Note_on_c, 0, 74, 62
2, 494876, Note_on_c, 0, 58, 66
2, 494888, Control_c, 0, 64, 0
2, 494918, Control_c, 0, 64, 127
2, 494934, Note_off_c, 0, 46, 64
2, 494945, Note_off_c, 0, 58, 64
2, 495000, Note_off_c, 0, 74, 64
2, 495012, Note_off_c, 0, 68, 64
2, 495017, Note_off_c, 0, 77, 64
2, 495072, Note_on_c, 0, 65, 63
2, 495078, Note_on_c, 0, 58, 63
2, 495084, Note_on_c, 0, 68, 63
2, 495146, Note_off_c, 0, 65, 64
2, 495150, Note_off_c, 0, 58, 64
2, 495158, Note_off_c, 0, 68, 64
2, 495189, Note_on_c, 0, 79, 78
2, 495251, Note_off_c, 0, 79, 64
2, 495266, Note_on_c, 0, 77, 66
2, 495302, Note_on_c, 0, 79, 80
2, 495315, Note_off_c, 0, 77, 64
2, 495318, Note_on_c, 0, 58, 67
2, 495321, Control_c, 0, 64, 0
2, 495327, Note_on_c, 0, 65, 53
2, 495328, Note_on_c, 0, 77, 68
2, 495328, Note_on_c, 0, 68, 66
2, 495328, Note_on_c, 0, 74, 80
2, 495340, Control_c, 0, 64, 127
2, 495347, Note_off_c, 0, 79, 64
2, 495351, Note_off_c, 0, 74, 64
2, 495363, Note_off_c, 0, 65, 64
2, 495379, Note_off_c, 0, 58, 64
2, 495379, Note_off_c, 0, 77, 64
2, 495418, Note_off_c, 0, 68, 64
2, 495439, Note_on_c, 0, 76, 80
2, 495448, Note_on_c, 0, 73, 32
2, 495494, Note_off_c, 0, 73, 64
2, 495500, Note_off_c, 0, 76, 64
2, 495536, Note_on_c, 0, 77, 78
2, 495543, Note_on_c, 0, 74, 72
2, 495546, Note_on_c, 0, 68, 75
2, 495547, Note_on_c, 0, 58, 74
2, 495547, Note_on_c, 0, 46, 75
2, 495566, Control_c, 0, 64, 0
2, 495592, Control_c, 0, 64, 127
2, 495599, Note_off_c, 0, 74, 64
2, 495602, Note_off_c, 0, 46, 64
2, 495603, Note_off_c, 0, 58, 64
2, 495603, Note_off_c, 0, 77, 64
2, 495655, Note_off_c, 0, 68, 64
2, 495696, Note_on_c, 0, 70, 94
2, 495721, Note_off_c, 0, 70, 64
2, 495757, Note_on_c, 0, 75, 88
2, 495757, Note_on_c, 0, 70, 89
2, 495757, Note_on_c, 0, 66, 89
2, 495757, Note_on_c, 0, 58, 72
2, 495757, Note_on_c, 0, 51, 74
2, 495778, Control_c, 0, 64, 0
2, 495816, Control_c, 0, 64, 127
2, 495824, Note_off_c, 0, 51, 64
2, 495871, Note_off_c, 0, 70, 64
2, 495875, Note_off_c, 0, 58, 64
2, 495877, Note_off_c, 0, 75, 64
2, 495899, Note_off_c, 0, 66, 64
2, 495980, Note_on_c, 0, 74, 76
2, 495980, Note_on_c, 0, 53, 70
2, 495984, Note_on_c, 0, 70, 74
2, 495984, Note_on_c, 0, 65, 79
2, 495984, Note_on_c, 0, 58, 59
2, 496045, Control_c, 0, 64, 0
2, 496058, Note_off_c, 0, 65, 64
2, 496084, Control_c, 0, 64, 127
2, 496095, Note_off_c, 0, 58, 64
2, 496107, Note_off_c, 0, 70, 64
2, 496140, Note_off_c, 0, 53, 64
2, 496167, Note_off_c, 0, 74, 64
2, 496228, Note_on_c, 0, 72, 75
2, 496228, Note_on_c, 0, 70, 68
2, 496228, Note_on_c, 0, 58, 70
2, 496228, Note_on_c, 0, 54, 74
2, 496235, Note_on_c, 0, 63, 81
2, 496264, Control_c, 0, 64, 0
2, 496321, Control_c, 0, 64, 127
2, 496352, Note_off_c, 0, 63, 64
2, 496451, Control_c, 0, 64, 0
2, 496457, Note_on_c, 0, 66, 89
2, 496457, Note_on_c, 0, 51, 74
2, 496460, Note_off_c, 0, 54, 64
2, 496475, Note_off_c, 0, 70, 64
2, 496504, Control_c, 0, 64, 127
2, 496526, Note_off_c, 0, 72, 64
2, 496543, Note_on_c, 0, 75, 74
2, 496577, Note_off_c, 0, 58, 64
2, 496592, Note_off_c, 0, 66, 64
2, 496602, Note_off_c, 0, 75, 64
2, 496647, Note_off_c, 0, 51, 64
2, 496654, Note_on_c, 0, 65, 72
2, 496656, Note_on_c, 0, 74, 79
2, 496656, Note_on_c, 0, 69, 75
2, 496660, Note_on_c, 0, 53, 68
2, 496666, Control_c, 0, 64, 0
2, 496694, Control_c, 0, 64, 127
2, 496699, Note_off_c, 0, 65, 64
2, 496709, Note_off_c, 0, 69, 64
2, 496722, Note_off_c, 0, 74, 64
2, 496755, Note_off_c, 0, 53, 64
2, 496755, Note_on_c, 0, 63, 88
2, 496756, Note_on_c, 0, 72, 67
2, 496796, Note_off_c, 0, 72, 64
2, 496798, Note_off_c, 0, 63, 64
2, 496884, Note_on_c, 0, 65, 92
2, 496884, Note_on_c, 0, 46, 76
2, 496884, Note_on_c, 0, 34, 76
2, 496888, Note_on_c, 0, 74, 80
2, 496913, Control_c, 0, 64, 0
2, 496931, Note_off_c, 0, 65, 64
2, 496960, Control_c, 0, 64, 127
2, 496980, Note_off_c, 0, 74, 64
2, 497064, Note_on_c, 0, 65, 84
2, 497069, Note_off_c, 0, 46, 64
2, 497108, Note_off_c, 0, 65, 64
2, 497117, Control_c, 0, 64, 0
2, 497124, Note_off_c, 0, 34, 64
2, 497124, Note_on_c, 0, 70, 88
2, 497124, Note_on_c, 0, 58, 85
2, 497126, Note_on_c, 0, 65, 62
2, 497128, Note_on_c, 0, 62, 83
2, 497128, Note_on_c, 0, 53, 39
2, 497128, Note_on_c, 0, 46, 74
2, 497160, Control_c, 0, 64, 127
2, 497208, Note_off_c, 0, 65, 64
2, 497216, Note_off_c, 0, 53, 64
2, 497251, Note_off_c, 0, 58, 64
2, 497263, Note_off_c, 0, 70, 64
2, 497264, Note_off_c, 0, 46, 64
2, 497291, Note_off_c, 0, 62, 64
2, 497356, Note_on_c, 0, 53, 65
2, 497360, Note_on_c, 0, 65, 75
2, 497364, Note_on_c, 0, 74, 80
2, 497364, Note_on_c, 0, 62, 81
2, 497364, Note_on_c, 0, 58, 58
2, 497364, Note_on_c, 0, 46, 58
2, 497424, Note_off_c, 0, 62, 64
2, 497444, Note_off_c, 0, 46, 64
2, 497449, Note_off_c, 0, 53, 64
2, 497466, Note_off_c, 0, 58, 64
2, 497470, Note_off_c, 0, 74, 64
2, 497484, Note_off_c, 0, 65, 64
2, 497596, Note_on_c, 0, 77, 80
2, 497600, Note_on_c, 0, 72, 83
2, 497600, Note_on_c, 0, 56, 80
2, 497604, Note_on_c, 0, 65, 78
2, 497604, Note_on_c, 0, 62, 80
2, 497654, Control_c, 0, 64, 0
2, 497676, Control_c, 0, 64, 0
2, 497723, Control_c, 0, 64, 127
2, 497792, Note_off_c, 0, 56, 64
2, 497792, Note_off_c, 0, 72, 64
2, 497796, Note_off_c, 0, 62, 64
2, 497796, Note_off_c, 0, 65, 64
2, 497815, Note_off_c, 0, 77, 64
2, 497855, Note_on_c, 0, 72, 62
2, 497864, Note_on_c, 0, 62, 67
2, 497867, Note_on_c, 0, 65, 52
2, 497875, Note_on_c, 0, 56, 57
2, 497901, Note_off_c, 0, 72, 64
2, 497907, Note_off_c, 0, 56, 64
2, 497911, Note_off_c, 0, 62, 64
2, 497917, Note_off_c, 0, 65, 64
2, 497960, Note_on_c, 0, 79, 70
2, 498009, Note_off_c, 0, 79, 64
2, 498022, Note_on_c, 0, 77, 80
2, 498051, Note_on_c, 0, 79, 85
2, 498061, Note_off_c, 0, 77, 64
2, 498075, Note_on_c, 0, 62, 48
2, 498077, Control_c, 0, 64, 0
2, 498083, Note_on_c, 0, 72, 70
2, 498084, Note_on_c, 0, 65, 45
2, 498087, Note_on_c, 0, 77, 80
2, 498087, Note_on_c, 0, 56, 39
2, 498098, Control_c, 0, 64, 127
2, 498108, Note_off_c, 0, 79, 64
2, 498127, Note_off_c, 0, 77, 64
2, 498134, Note_off_c, 0, 62, 64
2, 498144, Note_off_c, 0, 56, 64
2, 498154, Note_off_c, 0, 65, 64
2, 498175, Note_on_c, 0, 76, 78
2, 498198, Note_off_c, 0, 72, 64
2, 498211, Note_off_c, 0, 76, 64
2, 498274, Note_on_c, 0, 71, 75
2, 498276, Note_on_c, 0, 77, 83
2, 498281, Note_on_c, 0, 62, 74
2, 498287, Note_on_c, 0, 55, 63
2, 498291, Control_c, 0, 64, 0
2, 498320, Control_c, 0, 64, 127
2, 498327, Note_off_c, 0, 71, 64
2, 498330, Note_off_c, 0, 55, 64
2, 498339, Note_off_c, 0, 62, 64
2, 498346, Note_off_c, 0, 77, 64
2, 498420, Note_on_c, 0, 71, 81
2, 498424, Note_on_c, 0, 62, 78
2, 498431, Note_on_c, 0, 55, 74
2, 498445, Note_off_c, 0, 71, 64
2, 498446, Note_off_c, 0, 62, 64
2, 498455, Note_off_c, 0, 55, 64
2, 498470, Control_c, 0, 64, 0
2, 498476, Note_on_c, 0, 75, 92
2, 498476, Note_on_c, 0, 71, 85
2, 498483, Note_on_c, 0, 67, 72
2, 498488, Note_on_c, 0, 55, 74
2, 498507, Control_c, 0, 64, 127
2, 498582, Note_off_c, 0, 71, 64
2, 498592, Note_off_c, 0, 67, 64
2, 498624, Note_off_c, 0, 55, 64
2, 498651, Note_off_c, 0, 75, 64
2, 498683, Note_on_c, 0, 65, 70
2, 498686, Note_on_c, 0, 74, 83
2, 498687, Note_on_c, 0, 71, 81
2, 498692, Note_on_c, 0, 55, 66
2, 498702, Control_c, 0, 64, 0
2, 498722, Control_c, 0, 64, 127
2, 498792, Note_off_c, 0, 65, 64
2, 498818, Note_off_c, 0, 71, 64
2, 498823, Note_off_c, 0, 74, 64
2, 498837, Note_off_c, 0, 55, 64
2, 498928, Note_on_c, 0, 60, 61
2, 498932, Note_on_c, 0, 72, 75
2, 498932, Note_on_c, 0, 70, 74
2, 498932, Note_on_c, 0, 64, 70
2, 498959, Control_c, 0, 64, 0
2, 498998, Control_c, 0, 64, 127
2, 499030, Note_off_c, 0, 64, 64
2, 499035, Note_off_c, 0, 60, 64
2, 499152, Note_off_c, 0, 70, 64
2, 499156, Note_on_c, 0, 53, 70
2, 499161, Note_on_c, 0, 69, 68
2, 499161, Note_on_c, 0, 63, 67
2, 499171, Control_c, 0, 64, 0
2, 499210, Control_c, 0, 64, 127
2, 499231, Note_off_c, 0, 53, 64
2, 499246, Note_off_c, 0, 63, 64
2, 499248, Note_on_c, 0, 67, 70
2, 499254, Note_on_c, 0, 75, 76
2, 499274, Note_off_c, 0, 72, 64
2, 499318, Note_off_c, 0, 75, 64
2, 499346, Control_c, 0, 64, 0
2, 499352, Note_on_c, 0, 74, 67
2, 499359, Control_c, 0, 64, 127
2, 499367, Note_on_c, 0, 65, 61
2, 499391, Note_off_c, 0, 67, 64
2, 499439, Note_off_c, 0, 74, 64
2, 499449, Note_off_c, 0, 69, 64
2, 499450, Note_on_c, 0, 72, 75
2, 499454, Note_on_c, 0, 63, 67
2, 499459, Note_off_c, 0, 65, 64
2, 499548, Note_on_c, 0, 70, 89
2, 499548, Note_on_c, 0, 62, 74
2, 499551, Note_on_c, 0, 58, 80
2, 499554, Note_on_c, 0, 74, 83
2, 499566, Note_off_c, 0, 72, 64
2, 499568, Note_off_c, 0, 63, 64
2, 499636, Note_off_c, 0, 58, 64
2, 499636, Note_off_c, 0, 62, 64
2, 499648, Note_off_c, 0, 70, 64
2, 499668, Note_off_c, 0, 74, 64
2, 499704, Note_on_c, 0, 72, 88
2, 499704, Note_on_c, 0, 65, 61
2, 499708, Note_on_c, 0, 53, 88
2, 499712, Note_on_c, 0, 60, 83
2, 499725, Control_c, 0, 64, 0
2, 499752, Note_off_c, 0, 65, 64
2, 499752, Note_off_c, 0, 72, 64
2, 499756, Note_off_c, 0, 53, 64
2, 499756, Note_on_c, 0, 62, 72
2, 499756, Note_on_c, 0, 58, 102
2, 499760, Note_off_c, 0, 60, 64
2, 499761, Control_c, 0, 64, 127
2, 499764, Note_on_c, 0, 70, 88
2, 499764, Note_on_c, 0, 46, 80
2, 499805, Control_c, 0, 64, 0
2, 499841, Control_c, 0, 64, 127
2, 499892, Note_off_c, 0, 58, 64
2, 499917, Note_off_c, 0, 46, 64
2, 499928, Note_off_c, 0, 62, 64
2, 499943, Note_off_c, 0, 70, 64
2, 499946, Control_c, 0, 64, 0
2, 499958, Control_c, 0, 64, 0
2, 499971, Note_on_c, 0, 82, 101
2, 499976, Note_on_c, 0, 70, 110
2, 499977, Note_on_c, 0, 34, 107
2, 499984, Note_on_c, 0, 46, 92
2, 500319, Note_off_c, 0, 82, 64
2, 500324, Note_off_c, 0, 70, 64
2, 500325, Note_off_c, 0, 34, 64
2, 500332, Note_off_c, 0, 46, 64
2, 502621, Note_on_c, 0, 71, 61
2, 502629, Control_c, 0, 64, 0
2, 502709, Control_c, 0, 64, 127
2, 502827, Note_on_c, 0, 40, 57
2, 502865, Control_c, 0, 64, 0
2, 502878, Note_on_c, 0, 69, 65
2, 502902, Control_c, 0, 64, 127
2, 502912, Note_off_c, 0, 71, 64
2, 503098, Note_on_c, 0, 67, 55
2, 503121, Note_off_c, 0, 69, 64
2, 503134, Note_off_c, 0, 40, 64
2, 503144, Note_on_c, 0, 66, 66
2, 503144, Control_c, 0, 64, 0
2, 503151, Note_on_c, 0, 55, 41
2, 503159, Note_on_c, 0, 59, 29
2, 503167, Control_c, 0, 64, 127
2, 503176, Note_off_c, 0, 67, 64
2, 503236, Note_off_c, 0, 55, 64
2, 503252, Note_off_c, 0, 59, 64
2, 503359, Note_on_c, 0, 64, 66
2, 503359, Note_on_c, 0, 59, 35
2, 503359, Note_on_c, 0, 55, 36
2, 503378, Note_off_c, 0, 66, 64
2, 503555, Note_on_c, 0, 45, 46
2, 503598, Note_off_c, 0, 55, 64
2, 503598, Note_off_c, 0, 59, 64
2, 503621, Note_on_c, 0, 74, 70
2, 503637, Note_off_c, 0, 64, 64
2, 503638, Control_c, 0, 64, 0
2, 503654, Control_c, 0, 64, 127
2, 503870, Note_on_c, 0, 64, 22
2, 503870, Note_on_c, 0, 60, 31
2, 503870, Note_on_c, 0, 57, 35
2, 503877, Note_off_c, 0, 45, 64
2, 503945, Note_off_c, 0, 57, 64
2, 503946, Note_off_c, 0, 60, 64
2, 503952, Note_off_c, 0, 64, 64
2, 504073, Note_on_c, 0, 72, 57
2, 504074, Note_on_c, 0, 57, 33
2, 504082, Note_on_c, 0, 64, 31
2, 504084, Note_on_c, 0, 60, 28
2, 504090, Note_off_c, 0, 74, 64
2, 504200, Note_off_c, 0, 57, 64
2, 504202, Note_off_c, 0, 60, 64
2, 504238, Note_off_c, 0, 64, 64
2, 504294, Note_on_c, 0, 50, 53
2, 504300, Note_on_c, 0, 60, 44
2, 504303, Note_on_c, 0, 64, 35
2, 504308, Note_on_c, 0, 71, 66
2, 504310, Note_off_c, 0, 72, 64
2, 504315, Control_c, 0, 64, 0
2, 504361, Control_c, 0, 64, 127
2, 504415, Note_off_c, 0, 64, 64
2, 504436, Note_off_c, 0, 60, 64
2, 504454, Note_on_c, 0, 69, 57
2, 504489, Note_off_c, 0, 71, 64
2, 504521, Note_on_c, 0, 64, 57
2, 504521, Control_c, 0, 64, 0
2, 504528, Note_on_c, 0, 62, 23
2, 504535, Note_on_c, 0, 59, 36
2, 504551, Note_off_c, 0, 69, 64
2, 504552, Control_c, 0, 64, 127
2, 504626, Note_off_c, 0, 59, 64
2, 504626, Note_off_c, 0, 62, 64
2, 504632, Note_on_c, 0, 66, 55
2, 504648, Note_off_c, 0, 64, 64
2, 504743, Note_on_c, 0, 62, 61
2, 504747, Note_on_c, 0, 57, 33
2, 504751, Note_on_c, 0, 60, 37
2, 504757, Note_off_c, 0, 66, 64
2, 504812, Note_off_c, 0, 50, 64
2, 504867, Note_off_c, 0, 57, 64
2, 504878, Note_off_c, 0, 60, 64
2, 504891, Note_on_c, 0, 67, 59
2, 504918, Note_off_c, 0, 62, 64
2, 504923, Note_off_c, 0, 67, 64
2, 504947, Note_on_c, 0, 67, 66
2, 504973, Control_c, 0, 64, 0
2, 504976, Note_on_c, 0, 43, 58
2, 504986, Note_on_c, 0, 72, 66
2, 505003, Note_off_c, 0, 67, 64
2, 505009, Control_c, 0, 64, 127
2, 505199, Note_on_c, 0, 62, 39
2, 505204, Note_on_c, 0, 55, 39
2, 505274, Note_off_c, 0, 43, 64
2, 505346, Note_off_c, 0, 62, 64
2, 505360, Note_off_c, 0, 55, 64
2, 505476, Note_on_c, 0, 71, 61
2, 505503, Note_off_c, 0, 72, 64
2, 505715, Note_on_c, 0, 47, 41
2, 505731, Control_c, 0, 64, 0
2, 505753, Control_c, 0, 64, 127
2, 505824, Note_off_c, 0, 71, 64
2, 505887, Note_on_c, 0, 72, 53
2, 505938, Note_on_c, 0, 66, 36
2, 505941, Note_on_c, 0, 69, 19
2, 505945, Note_on_c, 0, 59, 40
2, 505951, Note_on_c, 0, 73, 62
2, 505956, Note_on_c, 0, 71, 39
2, 505961, Note_off_c, 0, 72, 64
2, 505994, Note_off_c, 0, 71, 64
2, 505998, Note_off_c, 0, 73, 64
2, 506008, Note_off_c, 0, 59, 64
2, 506008, Note_off_c, 0, 66, 64
2, 506014, Note_off_c, 0, 69, 64
2, 506018, Note_off_c, 0, 47, 64
2, 506056, Note_on_c, 0, 74, 67
2, 506056, Note_on_c, 0, 71, 55
2, 506098, Note_off_c, 0, 74, 64
2, 506160, Note_on_c, 0, 75, 70
2, 506160, Note_on_c, 0, 66, 40
2, 506162, Note_on_c, 0, 69, 37
2, 506164, Note_on_c, 0, 59, 39
2, 506335, Note_off_c, 0, 71, 64
2, 506343, Note_off_c, 0, 69, 64
2, 506344, Note_off_c, 0, 75, 64
2, 506350, Note_off_c, 0, 66, 64
2, 506366, Note_off_c, 0, 59, 64
2, 506373, Note_on_c, 0, 76, 63
2, 506378, Note_on_c, 0, 52, 46
2, 506383, Control_c, 0, 64, 0
2, 506419, Control_c, 0, 64, 127
2, 506496, Note_off_c, 0, 76, 64
2, 506515, Note_on_c, 0, 78, 49
2, 506577, Note_on_c, 0, 79, 57
2, 506577, Note_on_c, 0, 67, 37
2, 506577, Note_on_c, 0, 59, 45
2, 506579, Note_off_c, 0, 78, 64
2, 506646, Note_off_c, 0, 59, 64
2, 506652, Note_off_c, 0, 67, 64
2, 506707, Note_on_c, 0, 84, 59
2, 506769, Note_off_c, 0, 79, 64
2, 506777, Note_off_c, 0, 52, 64
2, 506803, Note_on_c, 0, 83, 62
2, 506813, Note_on_c, 0, 67, 31
2, 506818, Note_on_c, 0, 59, 41
2, 506819, Note_off_c, 0, 84, 64
2, 506888, Note_off_c, 0, 59, 64
2, 506894, Note_off_c, 0, 67, 64
2, 507022, Note_on_c, 0, 82, 62
2, 507028, Note_on_c, 0, 52, 41
2, 507034, Note_off_c, 0, 83, 64
2, 507036, Control_c, 0, 64, 0
2, 507056, Note_off_c, 0, 82, 64
2, 507068, Control_c, 0, 64, 127
2, 507181, Note_on_c, 0, 78, 49
2, 507228, Note_on_c, 0, 66, 41
2, 507230, Note_on_c, 0, 82, 74
2, 507235, Note_on_c, 0, 61, 28
2, 507235, Note_on_c, 0, 58, 31
2, 507249, Note_off_c, 0, 78, 64
2, 507301, Note_off_c, 0, 61, 64
2, 507301, Note_off_c, 0, 82, 64
2, 507304, Note_off_c, 0, 66, 64
2, 507332, Note_off_c, 0, 58, 64
2, 507394, Note_on_c, 0, 81, 54
2, 507440, Note_on_c, 0, 78, 66
2, 507444, Note_on_c, 0, 57, 41
2, 507445, Note_on_c, 0, 66, 46
2, 507445, Note_on_c, 0, 60, 45
2, 507460, Note_off_c, 0, 81, 64
2, 507546, Note_off_c, 0, 57, 64
2, 507559, Note_off_c, 0, 66, 64
2, 507566, Note_off_c, 0, 60, 64
2, 507604, Note_off_c, 0, 78, 64
2, 507643, Note_off_c, 0, 52, 64
2, 507660, Note_on_c, 0, 81, 61
2, 507666, Note_on_c, 0, 52, 45
2, 507679, Control_c, 0, 64, 0
2, 507694, Note_off_c, 0, 81, 64
2, 507720, Control_c, 0, 64, 127
2, 507818, Note_on_c, 0, 78, 66
2, 507857, Control_c, 0, 64, 0
2, 507863, Note_on_c, 0, 63, 45
2, 507869, Note_on_c, 0, 57, 46
2, 507876, Note_on_c, 0, 81, 57
2, 507883, Note_off_c, 0, 78, 64
2, 507899, Control_c, 0, 64, 127
2, 507913, Note_off_c, 0, 63, 64
2, 507916, Note_off_c, 0, 57, 64
2, 508040, Note_off_c, 0, 81, 64
2, 508048, Note_on_c, 0, 79, 50
2, 508089, Note_on_c, 0, 64, 45
2, 508095, Note_on_c, 0, 76, 61
2, 508095, Note_on_c, 0, 55, 37
2, 508118, Note_off_c, 0, 79, 64
2, 508131, Note_off_c, 0, 64, 64
2, 508134, Note_off_c, 0, 55, 64
2, 508145, Note_off_c, 0, 52, 64
2, 508148, Note_off_c, 0, 76, 64
2, 508308, Note_on_c, 0, 71, 52
2, 508314, Note_on_c, 0, 47, 57
2, 508317, Control_c, 0, 64, 0
2, 508353, Control_c, 0, 64, 127
2, 508423, Note_off_c, 0, 71, 64
2, 508460, Note_on_c, 0, 71, 36
2, 508461, Note_on_c, 0, 72, 54
2, 508502, Note_off_c, 0, 72, 64
2, 508502, Note_off_c, 0, 71, 64
2, 508520, Note_on_c, 0, 66, 36
2, 508520, Note_on_c, 0, 59, 37
2, 508527, Note_on_c, 0, 73, 66
2, 508527, Note_on_c, 0, 71, 58
2, 508530, Note_on_c, 0, 69, 44
2, 508566, Note_off_c, 0, 71, 64
2, 508572, Note_off_c, 0, 73, 64
2, 508573, Note_off_c, 0, 69, 64
2, 508576, Note_off_c, 0, 66, 64
2, 508579, Note_off_c, 0, 59, 64
2, 508608, Note_off_c, 0, 47, 64
2, 508622, Note_on_c, 0, 74, 66
2, 508624, Note_on_c, 0, 71, 52
2, 508662, Note_off_c, 0, 74, 64
2, 508667, Note_off_c, 0, 71, 64
2, 508723, Note_on_c, 0, 75, 72
2, 508724, Note_on_c, 0, 71, 52
2, 508724, Note_on_c, 0, 66, 45
2, 508728, Note_on_c, 0, 69, 36
2, 508731, Note_on_c, 0, 59, 36
2, 508912, Note_off_c, 0, 59, 64
2, 508919, Note_off_c, 0, 66, 64
2, 508930, Note_off_c, 0, 69, 64
2, 508943, Note_on_c, 0, 76, 57
2, 508949, Note_on_c, 0, 52, 45
2, 508954, Note_off_c, 0, 75, 64
2, 508955, Note_off_c, 0, 71, 64
2, 508963, Control_c, 0, 64, 0
2, 508988, Control_c, 0, 64, 127
2, 509073, Note_on_c, 0, 91, 58
2, 509090, Note_off_c, 0, 76, 64
2, 509095, Note_off_c, 0, 91, 64
2, 509164, Note_on_c, 0, 90, 55
2, 509200, Note_on_c, 0, 91, 55
2, 509220, Note_off_c, 0, 90, 64
2, 509225, Control_c, 0, 64, 0
2, 509228, Note_on_c, 0, 90, 74
2, 509232, Note_on_c, 0, 67, 33
2, 509232, Note_on_c, 0, 59, 41
2, 509241, Control_c, 0, 64, 127
2, 509254, Note_off_c, 0, 91, 64
2, 509329, Note_on_c, 0, 88, 50
2, 509360, Note_off_c, 0, 90, 64
2, 509419, Note_off_c, 0, 67, 64
2, 509425, Note_off_c, 0, 59, 64
2, 509430, Note_off_c, 0, 52, 64
2, 509436, Note_on_c, 0, 84, 57
2, 509456, Note_off_c, 0, 88, 64
2, 509546, Note_on_c, 0, 83, 37
2, 509562, Note_off_c, 0, 84, 64
2, 509654, Note_on_c, 0, 42, 52
2, 509660, Note_on_c, 0, 82, 62
2, 509672, Note_off_c, 0, 83, 64
2, 509679, Control_c, 0, 64, 0
2, 509705, Control_c, 0, 64, 127
2, 509775, Note_on_c, 0, 85, 58
2, 509788, Note_off_c, 0, 82, 64
2, 509888, Note_on_c, 0, 83, 61
2, 509888, Note_on_c, 0, 54, 23
2, 509889, Note_on_c, 0, 87, 70
2, 509895, Note_on_c, 0, 61, 31
2, 509898, Note_on_c, 0, 64, 20
2, 509920, Note_off_c, 0, 85, 64
2, 509985, Note_off_c, 0, 61, 64
2, 509994, Note_on_c, 0, 80, 37
2, 509995, Note_off_c, 0, 64, 64
2, 510010, Note_off_c, 0, 83, 64
2, 510011, Note_off_c, 0, 87, 64
2, 510027, Note_off_c, 0, 54, 64
2, 510111, Note_off_c, 0, 80, 64
2, 510112, Note_on_c, 0, 61, 41
2, 510115, Note_on_c, 0, 76, 54
2, 510116, Note_on_c, 0, 64, 37
2, 510117, Note_on_c, 0, 54, 44
2, 510172, Note_off_c, 0, 42, 64
2, 510188, Note_off_c, 0, 64, 64
2, 510203, Note_off_c, 0, 61, 64
2, 510216, Note_off_c, 0, 54, 64
2, 510259, Note_off_c, 0, 76, 64
2, 510281, Note_on_c, 0, 82, 58
2, 510281, Note_on_c, 0, 78, 53
2, 510295, Note_off_c, 0, 82, 64
2, 510302, Note_off_c, 0, 78, 64
2, 510324, Note_on_c, 0, 82, 67
2, 510328, Note_on_c, 0, 78, 70
2, 510334, Note_on_c, 0, 47, 40
2, 510353, Control_c, 0, 64, 0
2, 510384, Control_c, 0, 64, 127
2, 510461, Note_on_c, 0, 83, 55
2, 510464, Note_on_c, 0, 75, 66
2, 510465, Note_off_c, 0, 82, 64
2, 510469, Note_off_c, 0, 78, 64
2, 510590, Note_on_c, 0, 66, 50
2, 510592, Note_on_c, 0, 59, 50
2, 510672, Note_off_c, 0, 47, 64
2, 510678, Note_off_c, 0, 83, 64
2, 510681, Note_off_c, 0, 75, 64
2, 510751, Note_off_c, 0, 59, 64
2, 510770, Note_off_c, 0, 66, 64
2, 510805, Note_on_c, 0, 71, 52
2, 511018, Note_on_c, 0, 40, 46
2, 511067, Note_on_c, 0, 69, 52
2, 511079, Control_c, 0, 64, 0
2, 511085, Note_off_c, 0, 71, 64
2, 511102, Control_c, 0, 64, 127
2, 511250, Note_on_c, 0, 67, 41
2, 511264, Note_off_c, 0, 69, 64
2, 511296, Note_on_c, 0, 59, 35
2, 511303, Note_on_c, 0, 55, 39
2, 511310, Note_on_c, 0, 66, 46
2, 511325, Note_off_c, 0, 67, 64
2, 511379, Note_off_c, 0, 40, 64
2, 511383, Note_off_c, 0, 59, 64
2, 511390, Note_off_c, 0, 55, 64
2, 511498, Note_on_c, 0, 64, 50
2, 511499, Note_on_c, 0, 55, 33
2, 511505, Note_off_c, 0, 66, 64
2, 511506, Note_on_c, 0, 59, 33
2, 511696, Note_on_c, 0, 45, 41
2, 511733, Note_off_c, 0, 55, 64
2, 511740, Note_off_c, 0, 59, 64
2, 511740, Note_on_c, 0, 74, 52
2, 511751, Control_c, 0, 64, 0
2, 511757, Note_off_c, 0, 64, 64
2, 511797, Control_c, 0, 64, 127
2, 511958, Note_on_c, 0, 64, 26
2, 511961, Note_on_c, 0, 60, 18
2, 511961, Note_on_c, 0, 57, 22
2, 512026, Note_off_c, 0, 60, 64
2, 512028, Note_off_c, 0, 57, 64
2, 512035, Note_off_c, 0, 64, 64
2, 512057, Note_off_c, 0, 45, 64
2, 512141, Note_off_c, 0, 74, 64
2, 512151, Note_on_c, 0, 72, 45
2, 512156, Note_on_c, 0, 57, 28
2, 512161, Note_on_c, 0, 64, 32
2, 512166, Note_on_c, 0, 60, 31
2, 512202, Note_off_c, 0, 57, 64
2, 512219, Note_off_c, 0, 60, 64
2, 512225, Note_off_c, 0, 64, 64
2, 512360, Note_on_c, 0, 50, 33
2, 512367, Note_on_c, 0, 60, 32
2, 512370, Note_on_c, 0, 71, 52
2, 512373, Note_on_c, 0, 64, 28
2, 512376, Note_off_c, 0, 72, 64
2, 512386, Control_c, 0, 64, 0
2, 512431, Control_c, 0, 64, 127
2, 512461, Note_off_c, 0, 64, 64
2, 512488, Note_off_c, 0, 60, 64
2, 512503, Note_on_c, 0, 69, 46
2, 512533, Note_off_c, 0, 71, 64
2, 512580, Note_on_c, 0, 64, 46
2, 512582, Note_off_c, 0, 69, 64
2, 512585, Control_c, 0, 64, 0
2, 512592, Note_on_c, 0, 62, 28
2, 512592, Note_on_c, 0, 59, 28
2, 512612, Control_c, 0, 64, 127
2, 512655, Note_off_c, 0, 62, 64
2, 512670, Note_off_c, 0, 59, 64
2, 512680, Note_on_c, 0, 66, 46
2, 512694, Note_off_c, 0, 64, 64
2, 512785, Note_on_c, 0, 62, 52
2, 512785, Note_on_c, 0, 57, 29
2, 512789, Note_on_c, 0, 60, 31
2, 512793, Note_off_c, 0, 66, 64
2, 512831, Note_off_c, 0, 57, 64
2, 512832, Note_off_c, 0, 60, 64
2, 512850, Note_off_c, 0, 50, 64
2, 512922, Note_on_c, 0, 67, 52
2, 512942, Note_off_c, 0, 62, 64
2, 512961, Note_off_c, 0, 67, 64
2, 512982, Note_on_c, 0, 67, 52
2, 513010, Note_on_c, 0, 72, 52
2, 513018, Control_c, 0, 64, 0
2, 513024, Note_on_c, 0, 43, 31
2, 513038, Note_off_c, 0, 67, 64
2, 513077, Control_c, 0, 64, 127
2, 513246, Note_on_c, 0, 55, 31
2, 513247, Note_on_c, 0, 62, 35
2, 513332, Note_off_c, 0, 43, 64
2, 513419, Note_off_c, 0, 62, 64
2, 513427, Note_off_c, 0, 55, 64
2, 513488, Note_on_c, 0, 71, 42
2, 513512, Note_off_c, 0, 72, 64
2, 513692, Control_c, 0, 64, 0
2, 513698, Note_on_c, 0, 47, 41
2, 513730, Control_c, 0, 64, 127
2, 513843, Note_on_c, 0, 72, 41
2, 513848, Note_off_c, 0, 71, 64
2, 513882, Note_off_c, 0, 72, 64
2, 513894, Note_on_c, 0, 66, 40
2, 513897, Note_on_c, 0, 69, 35
2, 513900, Note_on_c, 0, 71, 31
2, 513902, Note_on_c, 0, 59, 39
2, 513905, Note_on_c, 0, 73, 50
2, 513944, Note_off_c, 0, 71, 64
2, 513948, Note_off_c, 0, 73, 64
2, 513954, Note_off_c, 0, 66, 64
2, 513956, Note_off_c, 0, 59, 64
2, 513959, Note_off_c, 0, 69, 64
2, 514000, Note_off_c, 0, 47, 64
2, 514006, Note_on_c, 0, 74, 48
2, 514008, Note_on_c, 0, 71, 31
2, 514035, Note_off_c, 0, 71, 64
2, 514041, Note_off_c, 0, 74, 64
2, 514092, Note_on_c, 0, 75, 57
2, 514092, Note_on_c, 0, 71, 31
2, 514092, Note_on_c, 0, 69, 28
2, 514092, Note_on_c, 0, 59, 28
2, 514095, Note_on_c, 0, 66, 36
2, 514284, Note_off_c, 0, 59, 64
2, 514284, Note_off_c, 0, 69, 64
2, 514284, Note_off_c, 0, 71, 64
2, 514287, Note_off_c, 0, 66, 64
2, 514301, Note_on_c, 0, 76, 52
2, 514310, Control_c, 0, 64, 0
2, 514312, Note_off_c, 0, 75, 64
2, 514314, Note_on_c, 0, 52, 40
2, 514365, Control_c, 0, 64, 127
2, 514427, Note_off_c, 0, 76, 64
2, 514441, Note_on_c, 0, 78, 39
2, 514493, Note_off_c, 0, 78, 64
2, 514493, Note_on_c, 0, 59, 35
2, 514496, Note_on_c, 0, 79, 41
2, 514501, Note_on_c, 0, 67, 22
2, 514566, Note_off_c, 0, 59, 64
2, 514573, Note_off_c, 0, 67, 64
2, 514607, Note_on_c, 0, 84, 46
2, 514654, Note_off_c, 0, 79, 64
2, 514704, Note_off_c, 0, 84, 64
2, 514713, Note_on_c, 0, 83, 52
2, 514713, Note_on_c, 0, 67, 31
2, 514719, Note_on_c, 0, 59, 36
2, 514746, Note_off_c, 0, 52, 64
2, 514831, Note_off_c, 0, 67, 64
2, 514909, Control_c, 0, 64, 0
2, 514916, Note_off_c, 0, 59, 64
2, 514916, Note_on_c, 0, 82, 46
2, 514929, Note_on_c, 0, 52, 42
2, 514944, Note_off_c, 0, 83, 64
2, 514950, Note_off_c, 0, 82, 64
2, 514978, Control_c, 0, 64, 127
2, 515076, Note_on_c, 0, 78, 46
2, 515124, Note_on_c, 0, 58, 33
2, 515129, Note_on_c, 0, 61, 33
2, 515131, Note_on_c, 0, 82, 57
2, 515131, Note_on_c, 0, 66, 35
2, 515148, Note_off_c, 0, 78, 64
2, 515203, Note_off_c, 0, 66, 64
2, 515206, Note_off_c, 0, 61, 64
2, 515208, Note_off_c, 0, 82, 64
2, 515226, Note_off_c, 0, 58, 64
2, 515301, Note_on_c, 0, 81, 46
2, 515340, Note_on_c, 0, 78, 52
2, 515340, Note_on_c, 0, 66, 31
2, 515347, Note_on_c, 0, 60, 35
2, 515354, Note_on_c, 0, 57, 28
2, 515365, Note_off_c, 0, 81, 64
2, 515515, Note_off_c, 0, 66, 64
2, 515522, Note_off_c, 0, 60, 64
2, 515529, Note_off_c, 0, 57, 64
2, 515541, Note_off_c, 0, 78, 64
2, 515542, Note_off_c, 0, 52, 64
2, 515544, Control_c, 0, 64, 0
2, 515556, Note_on_c, 0, 81, 48
2, 515561, Note_on_c, 0, 52, 45
2, 515590, Note_off_c, 0, 81, 64
2, 515590, Control_c, 0, 64, 127
2, 515702, Note_on_c, 0, 78, 46
2, 515748, Note_on_c, 0, 63, 37
2, 515753, Note_on_c, 0, 57, 37
2, 515757, Note_on_c, 0, 81, 49
2, 515764, Control_c, 0, 64, 0
2, 515770, Note_off_c, 0, 78, 64
2, 515777, Control_c, 0, 64, 127
2, 515849, Note_off_c, 0, 63, 64
2, 515854, Note_off_c, 0, 57, 64
2, 515920, Note_off_c, 0, 81, 64
2, 515923, Note_on_c, 0, 79, 46
2, 515939, Control_c, 0, 64, 0
2, 515964, Note_on_c, 0, 64, 29
2, 515969, Note_on_c, 0, 76, 44
2, 515969, Note_on_c, 0, 55, 35
2, 515982, Control_c, 0, 64, 127
2, 515998, Note_off_c, 0, 79, 64
2, 516012, Note_off_c, 0, 64, 64
2, 516016, Note_off_c, 0, 55, 64
2, 516034, Note_off_c, 0, 76, 64
2, 516040, Note_off_c, 0, 52, 64
2, 516172, Note_on_c, 0, 71, 49
2, 516173, Control_c, 0, 64, 0
2, 516191, Note_on_c, 0, 47, 44
2, 516199, Control_c, 0, 64, 127
2, 516294, Note_off_c, 0, 71, 64
2, 516323, Note_on_c, 0, 72, 45
2, 516324, Note_on_c, 0, 71, 31
2, 516344, Note_off_c, 0, 71, 64
2, 516362, Note_off_c, 0, 72, 64
2, 516376, Control_c, 0, 64, 0
2, 516383, Note_on_c, 0, 66, 31
2, 516385, Note_on_c, 0, 59, 35
2, 516391, Note_on_c, 0, 73, 57
2, 516391, Note_on_c, 0, 71, 45
2, 516394, Note_on_c, 0, 69, 26
2, 516398, Control_c, 0, 64, 127
2, 516422, Note_off_c, 0, 71, 64
2, 516432, Note_off_c, 0, 73, 64
2, 516441, Note_off_c, 0, 59, 64
2, 516444, Note_off_c, 0, 66, 64
2, 516450, Note_off_c, 0, 69, 64
2, 516480, Note_off_c, 0, 47, 64
2, 516488, Note_on_c, 0, 74, 44
2, 516492, Note_on_c, 0, 71, 42
2, 516525, Note_off_c, 0, 74, 64
2, 516534, Note_off_c, 0, 71, 64
2, 516566, Control_c, 0, 64, 0
2, 516581, Note_on_c, 0, 66, 39
2, 516588, Note_on_c, 0, 69, 31
2, 516589, Note_on_c, 0, 59, 33
2, 516595, Note_on_c, 0, 71, 48
2, 516596, Note_on_c, 0, 75, 62
2, 516602, Control_c, 0, 64, 127
2, 516773, Note_off_c, 0, 66, 64
2, 516780, Note_off_c, 0, 69, 64
2, 516781, Note_off_c, 0, 59, 64
2, 516787, Note_off_c, 0, 71, 64
2, 516811, Control_c, 0, 64, 0
2, 516820, Note_on_c, 0, 76, 46
2, 516823, Note_on_c, 0, 52, 46
2, 516835, Note_off_c, 0, 75, 64
2, 516837, Control_c, 0, 64, 127
2, 516980, Note_on_c, 0, 91, 48
2, 516999, Note_off_c, 0, 76, 64
2, 517035, Note_off_c, 0, 91, 64
2, 517063, Note_on_c, 0, 90, 52
2, 517102, Note_on_c, 0, 91, 52
2, 517105, Note_off_c, 0, 90, 64
2, 517114, Note_on_c, 0, 67, 23
2, 517118, Note_on_c, 0, 59, 28
2, 517134, Note_on_c, 0, 90, 52
2, 517163, Note_off_c, 0, 91, 64
2, 517229, Note_on_c, 0, 88, 41
2, 517250, Note_off_c, 0, 90, 64
2, 517289, Note_off_c, 0, 67, 64
2, 517320, Note_on_c, 0, 84, 45
2, 517328, Note_off_c, 0, 59, 64
2, 517335, Note_off_c, 0, 52, 64
2, 517372, Note_off_c, 0, 88, 64
2, 517440, Note_on_c, 0, 83, 44
2, 517467, Note_off_c, 0, 84, 64
2, 517548, Note_on_c, 0, 82, 42
2, 517562, Note_on_c, 0, 47, 41
2, 517577, Control_c, 0, 64, 0
2, 517580, Note_off_c, 0, 83, 64
2, 517592, Control_c, 0, 64, 127
2, 517681, Note_on_c, 0, 78, 42
2, 517687, Note_off_c, 0, 82, 64
2, 517796, Note_off_c, 0, 78, 64
2, 517800, Note_on_c, 0, 69, 32
2, 517802, Note_on_c, 0, 84, 42
2, 517803, Note_on_c, 0, 63, 18
2, 517809, Note_on_c, 0, 59, 32
2, 517855, Note_off_c, 0, 47, 64
2, 517880, Note_on_c, 0, 82, 32
2, 517882, Note_off_c, 0, 84, 64
2, 517892, Note_off_c, 0, 69, 64
2, 517895, Note_off_c, 0, 63, 64
2, 517901, Note_off_c, 0, 59, 64
2, 517943, Note_off_c, 0, 82, 64
2, 517946, Note_on_c, 0, 83, 42
2, 518004, Note_on_c, 0, 69, 16
2, 518016, Note_on_c, 0, 81, 32
2, 518020, Note_on_c, 0, 59, 28
2, 518022, Note_on_c, 0, 63, 32
2, 518038, Note_off_c, 0, 83, 64
2, 518088, Note_on_c, 0, 82, 37
2, 518102, Note_off_c, 0, 81, 64
2, 518170, Note_off_c, 0, 69, 64
2, 518172, Note_on_c, 0, 80, 39
2, 518178, Note_off_c, 0, 59, 64
2, 518183, Note_off_c, 0, 82, 64
2, 518188, Note_off_c, 0, 63, 64
2, 518251, Note_on_c, 0, 81, 39
2, 518264, Note_off_c, 0, 80, 64
2, 518267, Note_on_c, 0, 52, 39
2, 518348, Note_on_c, 0, 79, 37
2, 518360, Note_off_c, 0, 81, 64
2, 518438, Note_on_c, 0, 78, 35
2, 518454, Note_off_c, 0, 79, 64
2, 518580, Note_on_c, 0, 55, 20
2, 518584, Note_on_c, 0, 76, 42
2, 518587, Note_on_c, 0, 59, 20
2, 518597, Note_on_c, 0, 67, 10
2, 518600, Note_off_c, 0, 78, 64
2, 518653, Control_c, 0, 64, 0
2, 518697, Control_c, 0, 64, 127
2, 518849, Note_off_c, 0, 55, 64
2, 518856, Note_off_c, 0, 59, 64
2, 518866, Note_off_c, 0, 67, 64
2, 518886, Note_off_c, 0, 52, 64
2, 519148, Note_on_c, 0, 43, 35
2, 519158, Note_on_c, 0, 65, 31
2, 519304, Note_on_c, 0, 74, 33
2, 519329, Note_off_c, 0, 76, 64
2, 519423, Note_on_c, 0, 71, 37
2, 519423, Note_on_c, 0, 55, 33
2, 519429, Note_on_c, 0, 62, 31
2, 519448, Note_off_c, 0, 74, 64
2, 519450, Note_off_c, 0, 43, 64
2, 519495, Note_off_c, 0, 62, 64
2, 519497, Note_off_c, 0, 55, 64
2, 519508, Note_off_c, 0, 65, 64
2, 519641, Note_on_c, 0, 69, 40
2, 519645, Note_on_c, 0, 62, 36
2, 519645, Note_on_c, 0, 55, 36
2, 519658, Note_on_c, 0, 65, 19
2, 519662, Note_off_c, 0, 71, 64
2, 519711, Note_off_c, 0, 62, 64
2, 519724, Note_off_c, 0, 65, 64
2, 519798, Note_on_c, 0, 71, 32
2, 519800, Note_off_c, 0, 69, 64
2, 519816, Note_on_c, 0, 69, 40
2, 519836, Note_on_c, 0, 48, 27
2, 519845, Note_off_c, 0, 71, 64
2, 519848, Note_on_c, 0, 64, 41
2, 519851, Note_on_c, 0, 67, 40
2, 519873, Note_off_c, 0, 69, 64
2, 519877, Control_c, 0, 64, 0
2, 519884, Note_off_c, 0, 55, 64
2, 519903, Note_off_c, 0, 48, 64
2, 519903, Control_c, 0, 64, 127
2, 519956, Note_off_c, 0, 64, 64
2, 520063, Note_on_c, 0, 64, 40
2, 520067, Note_on_c, 0, 55, 36
2, 520071, Note_on_c, 0, 48, 31
2, 520146, Note_off_c, 0, 48, 64
2, 520154, Note_off_c, 0, 55, 64
2, 520171, Note_off_c, 0, 64, 64
2, 520187, Note_off_c, 0, 67, 64
2, 520256, Note_on_c, 0, 76, 46
2, 520256, Note_on_c, 0, 64, 41
2, 520264, Note_on_c, 0, 55, 27
2, 520268, Note_on_c, 0, 48, 20
2, 520317, Note_off_c, 0, 55, 64
2, 520364, Note_off_c, 0, 64, 64
2, 520428, Note_on_c, 0, 56, 36
2, 520479, Note_on_c, 0, 55, 39
2, 520495, Note_on_c, 0, 65, 37
2, 520502, Note_off_c, 0, 56, 64
2, 520580, Note_off_c, 0, 55, 64
2, 520601, Note_on_c, 0, 74, 37
2, 520620, Note_off_c, 0, 76, 64
2, 520640, Note_off_c, 0, 48, 64
2, 520654, Note_off_c, 0, 65, 64
2, 520686, Note_off_c, 0, 74, 64
2, 520692, Note_on_c, 0, 71, 39
2, 520702, Note_on_c, 0, 65, 37
2, 520702, Note_on_c, 0, 55, 35
2, 520711, Note_on_c, 0, 48, 27
2, 520712, Control_c, 0, 64, 0
2, 520731, Control_c, 0, 64, 127
2, 520813, Note_off_c, 0, 48, 64
2, 520826, Note_off_c, 0, 65, 64
2, 520828, Note_off_c, 0, 55, 64
2, 520902, Note_on_c, 0, 69, 35
2, 520905, Note_on_c, 0, 65, 36
2, 520905, Note_on_c, 0, 55, 36
2, 520912, Note_on_c, 0, 48, 36
2, 520923, Note_off_c, 0, 71, 64
2, 520989, Note_off_c, 0, 48, 64
2, 521021, Note_off_c, 0, 55, 64
2, 521040, Note_on_c, 0, 71, 29
2, 521048, Note_off_c, 0, 65, 64
2, 521049, Note_off_c, 0, 69, 64
2, 521072, Note_on_c, 0, 69, 40
2, 521089, Note_off_c, 0, 71, 64
2, 521096, Note_on_c, 0, 64, 29
2, 521100, Note_on_c, 0, 67, 53
2, 521101, Note_on_c, 0, 55, 33
2, 521107, Note_on_c, 0, 48, 31
2, 521114, Note_off_c, 0, 69, 64
2, 521199, Note_off_c, 0, 48, 64
2, 521205, Note_off_c, 0, 55, 64
2, 521239, Note_off_c, 0, 64, 64
2, 521311, Note_on_c, 0, 64, 41
2, 521320, Note_on_c, 0, 55, 31
2, 521327, Note_on_c, 0, 48, 33
2, 521393, Note_off_c, 0, 48, 64
2, 521400, Note_off_c, 0, 55, 64
2, 521419, Note_off_c, 0, 64, 64
2, 521521, Note_on_c, 0, 72, 40
2, 521530, Note_on_c, 0, 64, 36
2, 521534, Note_off_c, 0, 67, 64
2, 521534, Note_on_c, 0, 48, 39
2, 521540, Note_on_c, 0, 57, 24
2, 521566, Control_c, 0, 64, 0
2, 521578, Control_c, 0, 64, 127
2, 521654, Note_off_c, 0, 64, 64
2, 521660, Note_off_c, 0, 57, 64
2, 521693, Note_off_c, 0, 48, 64
2, 521742, Note_on_c, 0, 50, 40
2, 521743, Note_on_c, 0, 65, 42
2, 521753, Note_on_c, 0, 57, 36
2, 521827, Note_off_c, 0, 50, 64
2, 521871, Note_off_c, 0, 72, 64
2, 521886, Note_off_c, 0, 65, 64
2, 521893, Note_on_c, 0, 71, 41
2, 521948, Note_on_c, 0, 52, 39
2, 521955, Note_on_c, 0, 64, 37
2, 521955, Note_on_c, 0, 45, 41
2, 521955, Note_on_c, 0, 74, 46
2, 521965, Note_off_c, 0, 71, 64
2, 521987, Control_c, 0, 64, 0
2, 521994, Note_off_c, 0, 57, 64
2, 522001, Control_c, 0, 64, 127
2, 522076, Note_off_c, 0, 74, 64
2, 522077, Note_on_c, 0, 72, 40
2, 522168, Note_on_c, 0, 60, 41
2, 522175, Note_on_c, 0, 69, 42
2, 522182, Control_c, 0, 64, 0
2, 522191, Note_off_c, 0, 72, 64
2, 522197, Control_c, 0, 64, 127
2, 522277, Note_off_c, 0, 60, 64
2, 522309, Note_off_c, 0, 64, 64
2, 522380, Note_off_c, 0, 45, 64
2, 522387, Note_on_c, 0, 50, 35
2, 522391, Note_on_c, 0, 72, 41
2, 522391, Note_on_c, 0, 65, 41
2, 522393, Note_on_c, 0, 57, 39
2, 522401, Note_off_c, 0, 52, 64
2, 522408, Note_off_c, 0, 69, 64
2, 522414, Control_c, 0, 64, 0
2, 522436, Control_c, 0, 64, 127
2, 522522, Note_off_c, 0, 57, 64
2, 522529, Note_off_c, 0, 72, 64
2, 522537, Note_off_c, 0, 65, 64
2, 522542, Note_on_c, 0, 71, 23
2, 522554, Note_off_c, 0, 50, 64
2, 522588, Note_on_c, 0, 52, 35
2, 522593, Note_on_c, 0, 45, 36
2, 522597, Note_on_c, 0, 74, 46
2, 522600, Note_on_c, 0, 64, 33
2, 522610, Note_off_c, 0, 71, 64
2, 522620, Control_c, 0, 64, 0
2, 522653, Control_c, 0, 64, 127
2, 522721, Note_on_c, 0, 72, 41
2, 522727, Note_off_c, 0, 74, 64
2, 522807, Note_on_c, 0, 69, 40
2, 522816, Note_on_c, 0, 60, 35
2, 522817, Note_off_c, 0, 45, 64
2, 522846, Note_off_c, 0, 72, 64
2, 522895, Note_off_c, 0, 69, 64
2, 522907, Note_off_c, 0, 64, 64
2, 522914, Note_off_c, 0, 60, 64
2, 523016, Note_off_c, 0, 52, 64
2, 523035, Note_on_c, 0, 47, 41
2, 523036, Note_on_c, 0, 68, 33
2, 523036, Note_on_c, 0, 63, 35
2, 523044, Note_on_c, 0, 59, 19
2, 523067, Control_c, 0, 64, 0
2, 523080, Control_c, 0, 64, 127
2, 523114, Note_off_c, 0, 47, 64
2, 523169, Note_off_c, 0, 59, 64
2, 523186, Note_on_c, 0, 66, 29
2, 523188, Note_on_c, 0, 57, 36
2, 523190, Note_off_c, 0, 63, 64
2, 523195, Note_off_c, 0, 68, 64
2, 523241, Note_on_c, 0, 69, 41
2, 523251, Note_on_c, 0, 61, 36
2, 523254, Note_off_c, 0, 66, 64
2, 523272, Note_off_c, 0, 57, 64
2, 523375, Note_off_c, 0, 61, 64
2, 523392, Note_off_c, 0, 69, 64
2, 523404, Note_on_c, 0, 68, 36
2, 523406, Note_on_c, 0, 59, 31
2, 523465, Note_on_c, 0, 64, 41
2, 523468, Note_on_c, 0, 56, 39
2, 523468, Note_on_c, 0, 52, 36
2, 523488, Control_c, 0, 64, 0
2, 523496, Note_off_c, 0, 68, 64
2, 523512, Note_off_c, 0, 59, 64
2, 523514, Control_c, 0, 64, 127
2, 523533, Note_off_c, 0, 64, 64
2, 523702, Note_on_c, 0, 76, 42
2, 523709, Note_on_c, 0, 64, 41
2, 523729, Control_c, 0, 64, 0
2, 523742, Control_c, 0, 64, 127
2, 523807, Note_off_c, 0, 76, 64
2, 523830, Note_off_c, 0, 64, 64
2, 523863, Note_off_c, 0, 52, 64
2, 523935, Note_on_c, 0, 64, 36
2, 523936, Note_on_c, 0, 76, 46
2, 523944, Note_off_c, 0, 56, 64
2, 523945, Control_c, 0, 64, 0
2, 523981, Control_c, 0, 64, 127
2, 524005, Note_off_c, 0, 76, 64
2, 524036, Note_off_c, 0, 64, 64
2, 524191, Note_on_c, 0, 76, 57
2, 524200, Note_on_c, 0, 64, 41
2, 524379, Note_off_c, 0, 64, 64
2, 524481, Note_on_c, 0, 65, 35
2, 524609, Note_on_c, 0, 74, 20
2, 524624, Note_off_c, 0, 76, 64
2, 524691, Note_off_c, 0, 65, 64
2, 524725, Note_off_c, 0, 74, 64
2, 524728, Note_on_c, 0, 71, 36
2, 524731, Note_on_c, 0, 55, 36
2, 524733, Note_on_c, 0, 65, 35
2, 524740, Control_c, 0, 64, 0
2, 524761, Control_c, 0, 64, 127
2, 524799, Note_off_c, 0, 55, 64
2, 524845, Note_off_c, 0, 71, 64
2, 524858, Note_off_c, 0, 65, 64
2, 524949, Note_on_c, 0, 69, 36
2, 524950, Note_on_c, 0, 65, 31
2, 524956, Note_on_c, 0, 55, 37
2, 525058, Note_off_c, 0, 69, 64
2, 525101, Note_on_c, 0, 71, 27
2, 525114, Note_off_c, 0, 65, 64
2, 525132, Note_on_c, 0, 69, 36
2, 525153, Note_off_c, 0, 71, 64
2, 525159, Note_on_c, 0, 64, 31
2, 525160, Note_on_c, 0, 67, 31
2, 525168, Note_on_c, 0, 48, 33
2, 525178, Control_c, 0, 64, 0
2, 525192, Note_off_c, 0, 69, 64
2, 525224, Control_c, 0, 64, 127
2, 525265, Note_off_c, 0, 64, 64
2, 525290, Note_off_c, 0, 48, 64
2, 525328, Note_off_c, 0, 55, 64
2, 525378, Note_on_c, 0, 64, 40
2, 525388, Note_on_c, 0, 48, 29
2, 525392, Note_on_c, 0, 55, 27
2, 525400, Note_off_c, 0, 67, 64
2, 525441, Note_off_c, 0, 55, 64
2, 525458, Note_off_c, 0, 48, 64
2, 525509, Note_off_c, 0, 64, 64
2, 525605, Note_on_c, 0, 64, 40
2, 525608, Note_on_c, 0, 55, 31
2, 525610, Note_on_c, 0, 76, 46
2, 525617, Note_on_c, 0, 48, 27
2, 525667, Note_off_c, 0, 55, 64
2, 525696, Note_off_c, 0, 64, 64
2, 525768, Note_on_c, 0, 56, 36
2, 525818, Note_on_c, 0, 65, 42
2, 525818, Note_on_c, 0, 55, 39
2, 525830, Note_off_c, 0, 76, 64
2, 525836, Control_c, 0, 64, 0
2, 525841, Note_off_c, 0, 56, 64
2, 525860, Control_c, 0, 64, 127
2, 525941, Note_on_c, 0, 74, 37
2, 525954, Note_off_c, 0, 55, 64
2, 525972, Note_off_c, 0, 65, 64
2, 525989, Note_off_c, 0, 48, 64
2, 526032, Note_off_c, 0, 74, 64
2, 526043, Note_on_c, 0, 71, 36
2, 526043, Note_on_c, 0, 55, 37
2, 526046, Note_on_c, 0, 65, 36
2, 526047, Note_on_c, 0, 48, 31
2, 526111, Note_off_c, 0, 48, 64
2, 526121, Note_off_c, 0, 55, 64
2, 526155, Note_off_c, 0, 65, 64
2, 526194, Note_off_c, 0, 71, 64
2, 526250, Note_on_c, 0, 69, 41
2, 526252, Note_on_c, 0, 65, 35
2, 526258, Note_on_c, 0, 55, 31
2, 526262, Note_on_c, 0, 48, 24
2, 526318, Note_off_c, 0, 48, 64
2, 526318, Note_off_c, 0, 55, 64
2, 526325, Note_off_c, 0, 69, 64
2, 526386, Note_off_c, 0, 65, 64
2, 526393, Note_on_c, 0, 71, 41
2, 526428, Note_on_c, 0, 69, 41
2, 526439, Note_off_c, 0, 71, 64
2, 526453, Note_on_c, 0, 67, 41
2, 526453, Note_on_c, 0, 64, 46
2, 526465, Note_on_c, 0, 55, 31
2, 526471, Note_off_c, 0, 69, 64
2, 526472, Note_on_c, 0, 48, 31
2, 526482, Control_c, 0, 64, 0
2, 526524, Control_c, 0, 64, 127
2, 526536, Note_off_c, 0, 64, 64
2, 526573, Note_off_c, 0, 48, 64
2, 526592, Note_off_c, 0, 55, 64
2, 526682, Note_on_c, 0, 64, 41
2, 526688, Note_on_c, 0, 55, 36
2, 526698, Note_on_c, 0, 48, 24
2, 526741, Note_off_c, 0, 48, 64
2, 526747, Note_off_c, 0, 55, 64
2, 526769, Note_off_c, 0, 64, 64
2, 526917, Note_on_c, 0, 72, 44
2, 526917, Note_on_c, 0, 55, 37
2, 526917, Note_on_c, 0, 48, 36
2, 526921, Note_on_c, 0, 64, 45
2, 526962, Note_off_c, 0, 67, 64
2, 526975, Note_off_c, 0, 64, 64
2, 527050, Note_off_c, 0, 55, 64
2, 527094, Note_off_c, 0, 48, 64
2, 527140, Note_on_c, 0, 71, 39
2, 527146, Note_on_c, 0, 60, 36
2, 527148, Note_off_c, 0, 72, 64
2, 527150, Note_on_c, 0, 54, 31
2, 527150, Note_on_c, 0, 50, 36
2, 527166, Control_c, 0, 64, 0
2, 527189, Control_c, 0, 64, 127
2, 527231, Note_off_c, 0, 50, 64
2, 527241, Note_off_c, 0, 54, 64
2, 527290, Note_on_c, 0, 69, 41
2, 527322, Note_off_c, 0, 60, 64
2, 527323, Note_off_c, 0, 71, 64
2, 527358, Control_c, 0, 64, 0
2, 527363, Note_on_c, 0, 71, 46
2, 527363, Note_on_c, 0, 60, 36
2, 527363, Note_on_c, 0, 54, 36
2, 527371, Note_on_c, 0, 50, 35
2, 527372, Note_off_c, 0, 69, 64
2, 527381, Control_c, 0, 64, 127
2, 527480, Note_on_c, 0, 69, 41
2, 527489, Note_off_c, 0, 54, 64
2, 527492, Note_off_c, 0, 50, 64
2, 527515, Note_off_c, 0, 60, 64
2, 527528, Note_off_c, 0, 71, 64
2, 527585, Note_on_c, 0, 62, 42
2, 527590, Note_on_c, 0, 59, 41
2, 527595, Note_on_c, 0, 43, 31
2, 527595, Note_on_c, 0, 55, 31
2, 527604, Note_on_c, 0, 50, 20
2, 527611, Control_c, 0, 64, 0
2, 527621, Note_off_c, 0, 69, 64
2, 527626, Control_c, 0, 64, 127
2, 527677, Note_off_c, 0, 59, 64
2, 527777, Note_off_c, 0, 55, 64
2, 527808, Note_on_c, 0, 71, 41
2, 527808, Note_on_c, 0, 60, 40
2, 527808, Note_on_c, 0, 54, 20
2, 527824, Control_c, 0, 64, 0
2, 527850, Control_c, 0, 64, 127
2, 527861, Note_off_c, 0, 62, 64
2, 527949, Note_off_c, 0, 54, 64
2, 527949, Note_off_c, 0, 50, 64
2, 527965, Note_on_c, 0, 69, 41
2, 527978, Note_off_c, 0, 60, 64
2, 527988, Note_off_c, 0, 71, 64
2, 528006, Note_off_c, 0, 43, 64
2, 528024, Note_on_c, 0, 71, 41
2, 528024, Note_on_c, 0, 54, 33
2, 528027, Note_on_c, 0, 60, 41
2, 528029, Note_on_c, 0, 43, 35
2, 528035, Note_on_c, 0, 50, 35
2, 528062, Note_off_c, 0, 69, 64
2, 528150, Note_on_c, 0, 69, 39
2, 528155, Note_off_c, 0, 50, 64
2, 528165, Note_off_c, 0, 43, 64
2, 528181, Note_off_c, 0, 71, 64
2, 528186, Note_off_c, 0, 54, 64
2, 528194, Note_off_c, 0, 60, 64
2, 528255, Note_on_c, 0, 71, 45
2, 528259, Note_on_c, 0, 50, 36
2, 528259, Note_on_c, 0, 43, 33
2, 528265, Note_on_c, 0, 60, 39
2, 528265, Note_on_c, 0, 54, 33
2, 528301, Note_off_c, 0, 69, 64
2, 528364, Note_on_c, 0, 69, 35
2, 528373, Note_off_c, 0, 60, 64
2, 528380, Note_off_c, 0, 71, 64
2, 528416, Note_off_c, 0, 43, 64
2, 528423, Note_off_c, 0, 50, 64
2, 528449, Note_off_c, 0, 54, 64
2, 528472, Note_on_c, 0, 67, 41
2, 528472, Note_on_c, 0, 59, 26
2, 528477, Note_on_c, 0, 50, 29
2, 528485, Note_on_c, 0, 43, 26
2, 528500, Control_c, 0, 64, 0
2, 528505, Note_off_c, 0, 69, 64
2, 528523, Control_c, 0, 64, 127
2, 528661, Note_off_c, 0, 43, 64
2, 528698, Note_on_c, 0, 68, 57
2, 528700, Note_on_c, 0, 60, 39
2, 528703, Note_on_c, 0, 51, 36
2, 528707, Note_on_c, 0, 43, 32
2, 528722, Note_off_c, 0, 59, 64
2, 528731, Control_c, 0, 64, 0
2, 528733, Note_off_c, 0, 50, 64
2, 528737, Note_off_c, 0, 67, 64
2, 528753, Control_c, 0, 64, 127
2, 528832, Note_off_c, 0, 43, 64
2, 528914, Note_on_c, 0, 61, 41
2, 528920, Note_on_c, 0, 52, 39
2, 528924, Note_on_c, 0, 43, 29
2, 528928, Note_off_c, 0, 60, 64
2, 528929, Note_off_c, 0, 51, 64
2, 528948, Control_c, 0, 64, 0
2, 528972, Control_c, 0, 64, 127
2, 529054, Note_off_c, 0, 43, 64
2, 529138, Note_on_c, 0, 62, 40
2, 529143, Note_on_c, 0, 43, 41
2, 529145, Note_on_c, 0, 53, 41
2, 529153, Note_off_c, 0, 61, 64
2, 529155, Control_c, 0, 64, 0
2, 529161, Note_off_c, 0, 52, 64
2, 529179, Control_c, 0, 64, 127
2, 529292, Note_off_c, 0, 43, 64
2, 529349, Note_on_c, 0, 61, 39
2, 529359, Note_on_c, 0, 52, 37
2, 529360, Note_on_c, 0, 43, 20
2, 529367, Control_c, 0, 64, 0
2, 529375, Note_off_c, 0, 62, 64
2, 529383, Control_c, 0, 64, 127
2, 529388, Note_off_c, 0, 53, 64
2, 529398, Control_c, 0, 64, 0
2, 529421, Control_c, 0, 64, 127
2, 529501, Note_off_c, 0, 43, 64
2, 529565, Note_on_c, 0, 51, 29
2, 529568, Note_on_c, 0, 43, 20
2, 529571, Note_on_c, 0, 60, 28
2, 529606, Control_c, 0, 64, 0
2, 529614, Note_off_c, 0, 61, 64
2, 529624, Note_off_c, 0, 52, 64
2, 529629, Control_c, 0, 64, 127
2, 529670, Note_off_c, 0, 68, 64
2, 529695, Note_off_c, 0, 60, 64
2, 529697, Note_off_c, 0, 51, 64
2, 529709, Note_off_c, 0, 43, 64
2, 529790, Note_on_c, 0, 70, 39
2, 529796, Note_on_c, 0, 51, 35
2, 529797, Note_on_c, 0, 60, 31
2, 529797, Note_on_c, 0, 43, 36
2, 529917, Note_off_c, 0, 70, 64
2, 529925, Note_off_c, 0, 60, 64
2, 529928, Note_on_c, 0, 68, 36
2, 529944, Note_off_c, 0, 51, 64
2, 529982, Note_off_c, 0, 43, 64
2, 529992, Note_on_c, 0, 70, 46
2, 529993, Note_on_c, 0, 51, 36
2, 530006, Note_on_c, 0, 60, 35
2, 530007, Note_on_c, 0, 43, 27
2, 530026, Note_off_c, 0, 68, 64
2, 530104, Note_on_c, 0, 68, 39
2, 530124, Note_off_c, 0, 60, 64
2, 530134, Note_off_c, 0, 51, 64
2, 530142, Note_off_c, 0, 70, 64
2, 530195, Note_off_c, 0, 43, 64
2, 530204, Note_off_c, 0, 68, 64
2, 530212, Note_on_c, 0, 62, 41
2, 530218, Note_on_c, 0, 59, 31
2, 530221, Note_on_c, 0, 50, 36
2, 530222, Note_on_c, 0, 43, 39
2, 530244, Control_c, 0, 64, 0
2, 530269, Control_c, 0, 64, 127
2, 530310, Note_off_c, 0, 59, 64
2, 530381, Note_off_c, 0, 50, 64
2, 530428, Note_off_c, 0, 43, 64
2, 530436, Note_on_c, 0, 70, 39
2, 530437, Note_off_c, 0, 62, 64
2, 530444, Note_on_c, 0, 60, 39
2, 530444, Note_on_c, 0, 51, 37
2, 530448, Note_on_c, 0, 43, 31
2, 530454, Control_c, 0, 64, 0
2, 530481, Control_c, 0, 64, 127
2, 530586, Note_on_c, 0, 68, 42
2, 530591, Note_off_c, 0, 70, 64
2, 530598, Note_off_c, 0, 60, 64
2, 530608, Note_off_c, 0, 51, 64
2, 530635, Note_off_c, 0, 43, 64
2, 530651, Note_on_c, 0, 70, 52
2, 530654, Note_on_c, 0, 60, 41
2, 530654, Note_on_c, 0, 51, 37
2, 530660, Note_on_c, 0, 43, 35
2, 530664, Note_off_c, 0, 68, 64
2, 530668, Control_c, 0, 64, 0
2, 530687, Control_c, 0, 64, 127
2, 530763, Note_on_c, 0, 68, 44
2, 530772, Note_off_c, 0, 70, 64
2, 530816, Note_off_c, 0, 51, 64
2, 530825, Note_off_c, 0, 60, 64
2, 530866, Note_off_c, 0, 43, 64
2, 530868, Note_on_c, 0, 70, 49
2, 530871, Note_on_c, 0, 51, 35
2, 530876, Note_on_c, 0, 60, 45
2, 530880, Note_off_c, 0, 68, 64
2, 530886, Note_on_c, 0, 43, 23
2, 530972, Note_on_c, 0, 68, 31
2, 530994, Note_off_c, 0, 70, 64
2, 531002, Note_off_c, 0, 60, 64
2, 531012, Note_off_c, 0, 51, 64
2, 531064, Note_on_c, 0, 67, 37
2, 531073, Note_on_c, 0, 59, 33
2, 531074, Note_off_c, 0, 43, 64
2, 531079, Note_on_c, 0, 50, 36
2, 531082, Note_off_c, 0, 68, 64
2, 531090, Note_on_c, 0, 43, 26
2, 531106, Control_c, 0, 64, 0
2, 531139, Control_c, 0, 64, 127
2, 531238, Note_off_c, 0, 59, 64
2, 531255, Note_off_c, 0, 50, 64
2, 531262, Note_off_c, 0, 43, 64
2, 531285, Note_off_c, 0, 67, 64
2, 531296, Note_on_c, 0, 43, 22
2, 531302, Note_on_c, 0, 60, 35
2, 531308, Note_on_c, 0, 51, 31
2, 531309, Note_on_c, 0, 69, 54
2, 531329, Control_c, 0, 64, 0
2, 531360, Control_c, 0, 64, 127
2, 531452, Note_off_c, 0, 43, 64
2, 531504, Note_on_c, 0, 43, 20
2, 531516, Note_on_c, 0, 52, 35
2, 531525, Note_on_c, 0, 61, 40
2, 531530, Note_off_c, 0, 51, 64
2, 531551, Note_off_c, 0, 60, 64
2, 531582, Control_c, 0, 64, 0
2, 531605, Control_c, 0, 64, 127
2, 531645, Note_off_c, 0, 43, 64
2, 531728, Note_on_c, 0, 53, 36
2, 531732, Note_on_c, 0, 62, 41
2, 531735, Note_off_c, 0, 61, 64
2, 531735, Note_on_c, 0, 43, 26
2, 531740, Note_off_c, 0, 52, 64
2, 531894, Note_off_c, 0, 43, 64
2, 531940, Note_on_c, 0, 61, 39
2, 531944, Note_on_c, 0, 52, 35
2, 531951, Control_c, 0, 64, 0
2, 531952, Note_on_c, 0, 43, 20
2, 531957, Note_off_c, 0, 62, 64
2, 531975, Control_c, 0, 64, 127
2, 531980, Note_off_c, 0, 53, 64
2, 531990, Control_c, 0, 64, 0
2, 532013, Control_c, 0, 64, 127
2, 532093, Note_off_c, 0, 43, 64
2, 532154, Note_on_c, 0, 51, 35
2, 532159, Note_on_c, 0, 60, 29
2, 532160, Note_on_c, 0, 43, 20
2, 532166, Note_off_c, 0, 52, 64
2, 532178, Note_off_c, 0, 61, 64
2, 532198, Control_c, 0, 64, 0
2, 532221, Control_c, 0, 64, 127
2, 532301, Note_off_c, 0, 43, 64
2, 532372, Note_on_c, 0, 67, 37
2, 532373, Note_on_c, 0, 59, 40
2, 532378, Note_on_c, 0, 50, 36
2, 532381, Note_off_c, 0, 60, 64
2, 532382, Note_on_c, 0, 43, 35
2, 532388, Control_c, 0, 64, 0
2, 532391, Note_off_c, 0, 69, 64
2, 532396, Note_off_c, 0, 51, 64
2, 532416, Control_c, 0, 64, 127
2, 532527, Note_off_c, 0, 43, 64
2, 532578, Note_on_c, 0, 51, 36
2, 532581, Note_on_c, 0, 68, 53
2, 532586, Note_on_c, 0, 60, 39
2, 532588, Note_on_c, 0, 43, 32
2, 532595, Note_off_c, 0, 59, 64
2, 532600, Note_off_c, 0, 50, 64
2, 532611, Control_c, 0, 64, 0
2, 532614, Note_off_c, 0, 67, 64
2, 532637, Control_c, 0, 64, 127
2, 532794, Note_off_c, 0, 43, 64
2, 532794, Note_on_c, 0, 52, 36
2, 532798, Note_on_c, 0, 61, 46
2, 532813, Note_off_c, 0, 51, 64
2, 532813, Control_c, 0, 64, 0
2, 532821, Note_off_c, 0, 60, 64
2, 532824, Note_on_c, 0, 43, 20
2, 532831, Control_c, 0, 64, 127
2, 532862, Control_c, 0, 64, 0
2, 532885, Control_c, 0, 64, 127
2, 532965, Note_off_c, 0, 43, 64
2, 532997, Note_on_c, 0, 62, 40
2, 533001, Note_on_c, 0, 53, 42
2, 533016, Note_on_c, 0, 43, 20
2, 533023, Note_off_c, 0, 61, 64
2, 533027, Note_off_c, 0, 52, 64
2, 533054, Control_c, 0, 64, 0
2, 533077, Control_c, 0, 64, 127
2, 533157, Note_off_c, 0, 43, 64
2, 533200, Note_on_c, 0, 43, 31
2, 533206, Note_on_c, 0, 69, 58
2, 533207, Note_on_c, 0, 61, 46
2, 533214, Note_on_c, 0, 52, 37
2, 533236, Note_off_c, 0, 62, 64
2, 533240, Note_off_c, 0, 53, 64
2, 533249, Control_c, 0, 64, 0
2, 533268, Control_c, 0, 64, 127
2, 533274, Note_off_c, 0, 68, 64
2, 533391, Note_off_c, 0, 43, 64
2, 533423, Note_on_c, 0, 60, 37
2, 533429, Note_on_c, 0, 51, 36
2, 533448, Note_on_c, 0, 43, 20
2, 533456, Note_off_c, 0, 61, 64
2, 533463, Note_off_c, 0, 52, 64
2, 533486, Control_c, 0, 64, 0
2, 533509, Control_c, 0, 64, 127
2, 533589, Note_off_c, 0, 43, 64
2, 533632, Note_on_c, 0, 43, 20
2, 533637, Note_on_c, 0, 59, 26
2, 533644, Note_on_c, 0, 50, 28
2, 533645, Note_off_c, 0, 60, 64
2, 533645, Note_on_c, 0, 67, 31
2, 533651, Note_off_c, 0, 51, 64
2, 533665, Control_c, 0, 64, 0
2, 533677, Note_off_c, 0, 69, 64
2, 533678, Control_c, 0, 64, 127
2, 533805, Note_off_c, 0, 43, 64
2, 533840, Note_on_c, 0, 43, 15
2, 533845, Note_on_c, 0, 51, 27
2, 533856, Note_on_c, 0, 69, 41
2, 533858, Note_on_c, 0, 60, 24
2, 533866, Note_off_c, 0, 50, 64
2, 533870, Note_off_c, 0, 67, 64
2, 533892, Note_off_c, 0, 59, 64
2, 533894, Control_c, 0, 64, 0
2, 533917, Control_c, 0, 64, 127
2, 534026, Note_off_c, 0, 43, 64
2, 534056, Note_on_c, 0, 43, 15
2, 534062, Note_off_c, 0, 51, 64
2, 534063, Note_on_c, 0, 61, 31
2, 534067, Note_on_c, 0, 52, 18
2, 534075, Note_off_c, 0, 60, 64
2, 534118, Control_c, 0, 64, 0
2, 534141, Control_c, 0, 64, 127
2, 534242, Note_off_c, 0, 43, 64
2, 534280, Note_on_c, 0, 62, 28
2, 534280, Note_on_c, 0, 53, 26
2, 534280, Note_on_c, 0, 43, 15
2, 534284, Note_off_c, 0, 52, 64
2, 534287, Note_off_c, 0, 61, 64
2, 534300, Control_c, 0, 64, 0
2, 534322, Control_c, 0, 64, 127
2, 534342, Control_c, 0, 64, 0
2, 534365, Control_c, 0, 64, 127
2, 534466, Note_off_c, 0, 43, 64
2, 534484, Note_on_c, 0, 61, 33
2, 534488, Note_on_c, 0, 43, 15
2, 534492, Note_on_c, 0, 52, 29
2, 534513, Note_off_c, 0, 62, 64
2, 534528, Note_off_c, 0, 53, 64
2, 534550, Control_c, 0, 64, 0
2, 534573, Control_c, 0, 64, 127
2, 534674, Note_off_c, 0, 43, 64
2, 534696, Note_on_c, 0, 43, 15
2, 534697, Note_on_c, 0, 68, 32
2, 534702, Note_off_c, 0, 69, 64
2, 534702, Note_on_c, 0, 51, 29
2, 534705, Note_on_c, 0, 60, 31
2, 534709, Note_off_c, 0, 52, 64
2, 534713, Control_c, 0, 64, 0
2, 534718, Note_off_c, 0, 61, 64
2, 534748, Control_c, 0, 64, 127
2, 534882, Note_off_c, 0, 43, 64
2, 534894, Control_c, 0, 64, 0
2, 534915, Note_on_c, 0, 59, 33
2, 534916, Note_off_c, 0, 60, 64
2, 534917, Control_c, 0, 64, 127
2, 534919, Note_off_c, 0, 68, 64
2, 534919, Note_on_c, 0, 67, 35
2, 534928, Note_on_c, 0, 50, 31
2, 534928, Note_on_c, 0, 43, 23
2, 534936, Note_off_c, 0, 51, 64
2, 534944, Control_c, 0, 64, 0
2, 534957, Control_c, 0, 64, 127
2, 535114, Note_off_c, 0, 43, 64
2, 535120, Note_off_c, 0, 67, 64
2, 535132, Note_off_c, 0, 59, 64
2, 535132, Note_on_c, 0, 51, 36
2, 535135, Note_on_c, 0, 60, 31
2, 535140, Note_on_c, 0, 68, 36
2, 535144, Note_off_c, 0, 50, 64
2, 535145, Note_on_c, 0, 43, 23
2, 535333, Note_off_c, 0, 68, 64
2, 535340, Note_off_c, 0, 51, 64
2, 535345, Note_off_c, 0, 43, 64
2, 535353, Note_off_c, 0, 60, 64
2, 535354, Note_on_c, 0, 60, 40
2, 535354, Note_on_c, 0, 51, 33
2, 535356, Note_on_c, 0, 68, 46
2, 535360, Note_on_c, 0, 43, 31
2, 535514, Note_off_c, 0, 68, 64
2, 535522, Note_off_c, 0, 51, 64
2, 535536, Note_off_c, 0, 60, 64
2, 535548, Note_off_c, 0, 43, 64
2, 535551, Note_on_c, 0, 60, 45
2, 535554, Note_on_c, 0, 68, 50
2, 535563, Note_on_c, 0, 51, 39
2, 535567, Note_on_c, 0, 43, 36
2, 535761, Note_off_c, 0, 43, 64
2, 535766, Note_off_c, 0, 60, 64
2, 535770, Note_off_c, 0, 68, 64
2, 535777, Note_on_c, 0, 61, 44
2, 535777, Note_on_c, 0, 43, 37
2, 535782, Note_on_c, 0, 69, 42
2, 535782, Note_on_c, 0, 52, 37
2, 535783, Note_off_c, 0, 51, 64
2, 535948, Note_off_c, 0, 52, 64
2, 535950, Note_off_c, 0, 61, 64
2, 535955, Note_off_c, 0, 69, 64
2, 535957, Note_off_c, 0, 43, 64
2, 535987, Note_on_c, 0, 69, 42
2, 535989, Note_on_c, 0, 61, 48
2, 535989, Note_on_c, 0, 43, 44
2, 535991, Note_on_c, 0, 52, 42
2, 536147, Note_off_c, 0, 61, 64
2, 536170, Note_off_c, 0, 69, 64
2, 536192, Note_off_c, 0, 52, 64
2, 536201, Note_off_c, 0, 43, 64
2, 536205, Note_on_c, 0, 69, 49
2, 536209, Note_on_c, 0, 61, 49
2, 536215, Note_on_c, 0, 43, 41
2, 536217, Note_on_c, 0, 52, 41
2, 536406, Note_off_c, 0, 61, 64
2, 536412, Note_off_c, 0, 52, 64
2, 536424, Note_off_c, 0, 43, 64
2, 536431, Note_on_c, 0, 70, 48
2, 536431, Note_on_c, 0, 61, 49
2, 536436, Note_on_c, 0, 52, 41
2, 536440, Note_off_c, 0, 69, 64
2, 536441, Note_on_c, 0, 42, 55
2, 536448, Control_c, 0, 64, 0
2, 536482, Control_c, 0, 64, 127
2, 536609, Note_off_c, 0, 70, 64
2, 536614, Note_off_c, 0, 42, 64
2, 536626, Note_off_c, 0, 52, 64
2, 536628, Note_off_c, 0, 61, 64
2, 536646, Note_on_c, 0, 70, 53
2, 536649, Note_on_c, 0, 61, 59
2, 536654, Note_on_c, 0, 52, 50
2, 536654, Note_on_c, 0, 42, 50
2, 536667, Control_c, 0, 64, 0
2, 536692, Control_c, 0, 64, 127
2, 536847, Note_off_c, 0, 61, 64
2, 536852, Note_off_c, 0, 42, 64
2, 536861, Note_off_c, 0, 52, 64
2, 536879, Note_on_c, 0, 52, 45
2, 536885, Note_on_c, 0, 42, 53
2, 536887, Note_off_c, 0, 70, 64
2, 536889, Note_on_c, 0, 70, 57
2, 536889, Note_on_c, 0, 61, 54
2, 536916, Control_c, 0, 64, 0
2, 536927, Control_c, 0, 64, 127
2, 537130, Note_off_c, 0, 52, 64
2, 537135, Note_off_c, 0, 42, 64
2, 537145, Note_on_c, 0, 53, 45
2, 537151, Note_on_c, 0, 47, 52
2, 537155, Note_on_c, 0, 71, 57
2, 537155, Note_on_c, 0, 62, 57
2, 537167, Note_off_c, 0, 61, 64
2, 537184, Control_c, 0, 64, 0
2, 537185, Note_off_c, 0, 70, 64
2, 537219, Control_c, 0, 64, 127
2, 537388, Note_off_c, 0, 71, 64
2, 537393, Note_off_c, 0, 47, 64
2, 537393, Note_off_c, 0, 53, 64
2, 537421, Note_off_c, 0, 62, 64
2, 537438, Note_on_c, 0, 71, 53
2, 537446, Note_on_c, 0, 63, 58
2, 537452, Note_on_c, 0, 54, 50
2, 537454, Note_on_c, 0, 47, 54
2, 537717, Note_on_c, 0, 59, 50
2, 537734, Note_off_c, 0, 47, 64
2, 537752, Note_on_c, 0, 64, 55
2, 537761, Note_off_c, 0, 54, 64
2, 537791, Note_off_c, 0, 63, 64
2, 537796, Note_on_c, 0, 52, 54
2, 537800, Note_off_c, 0, 71, 64
2, 537801, Note_on_c, 0, 69, 67
2, 537801, Note_on_c, 0, 40, 57
2, 537818, Note_off_c, 0, 59, 64
2, 537825, Control_c, 0, 64, 0
2, 537855, Control_c, 0, 64, 127
2, 537865, Note_off_c, 0, 64, 64
2, 538060, Note_off_c, 0, 69, 64
2, 538061, Note_on_c, 0, 67, 61
2, 538102, Note_on_c, 0, 55, 45
2, 538104, Note_on_c, 0, 59, 45
2, 538110, Note_on_c, 0, 66, 67
2, 538142, Note_off_c, 0, 67, 64
2, 538176, Note_off_c, 0, 52, 64
2, 538201, Note_off_c, 0, 55, 64
2, 538217, Note_off_c, 0, 59, 64
2, 538238, Note_off_c, 0, 40, 64
2, 538326, Note_off_c, 0, 66, 64
2, 538331, Note_on_c, 0, 64, 65
2, 538331, Note_on_c, 0, 55, 42
2, 538335, Note_on_c, 0, 59, 46
2, 538544, Note_on_c, 0, 45, 37
2, 538558, Note_on_c, 0, 74, 48
2, 538568, Note_off_c, 0, 64, 64
2, 538573, Note_off_c, 0, 55, 64
2, 538577, Note_off_c, 0, 59, 64
2, 538581, Control_c, 0, 64, 0
2, 538593, Control_c, 0, 64, 127
2, 538768, Note_on_c, 0, 60, 24
2, 538771, Note_on_c, 0, 57, 24
2, 538776, Note_on_c, 0, 64, 23
2, 538852, Note_off_c, 0, 57, 64
2, 538857, Note_off_c, 0, 60, 64
2, 538863, Note_off_c, 0, 64, 64
2, 538867, Note_off_c, 0, 45, 64
2, 538960, Note_off_c, 0, 74, 64
2, 538967, Note_on_c, 0, 72, 46
2, 538980, Note_on_c, 0, 57, 29
2, 538983, Note_on_c, 0, 64, 29
2, 538984, Note_on_c, 0, 60, 32
2, 539035, Note_off_c, 0, 57, 64
2, 539058, Note_off_c, 0, 64, 64
2, 539059, Note_off_c, 0, 60, 64
2, 539181, Note_off_c, 0, 72, 64
2, 539181, Note_on_c, 0, 50, 29
2, 539186, Note_on_c, 0, 71, 41
2, 539190, Note_on_c, 0, 60, 32
2, 539195, Note_on_c, 0, 64, 29
2, 539203, Control_c, 0, 64, 0
2, 539225, Control_c, 0, 64, 127
2, 539290, Note_off_c, 0, 64, 64
2, 539314, Note_off_c, 0, 60, 64
2, 539337, Note_on_c, 0, 69, 42
2, 539372, Note_off_c, 0, 71, 64
2, 539398, Note_on_c, 0, 62, 29
2, 539399, Note_on_c, 0, 64, 39
2, 539400, Note_on_c, 0, 59, 24
2, 539405, Note_off_c, 0, 69, 64
2, 539413, Control_c, 0, 64, 0
2, 539426, Control_c, 0, 64, 127
2, 539472, Note_off_c, 0, 62, 64
2, 539488, Note_off_c, 0, 59, 64
2, 539494, Note_on_c, 0, 66, 42
2, 539511, Note_off_c, 0, 64, 64
2, 539608, Note_on_c, 0, 60, 31
2, 539608, Note_on_c, 0, 57, 29
2, 539609, Note_on_c, 0, 62, 42
2, 539612, Note_off_c, 0, 66, 64
2, 539654, Note_off_c, 0, 50, 64
2, 539683, Note_off_c, 0, 57, 64
2, 539696, Note_off_c, 0, 60, 64
2, 539768, Note_on_c, 0, 67, 42
2, 539784, Note_off_c, 0, 62, 64
2, 539807, Note_on_c, 0, 43, 41
2, 539820, Note_on_c, 0, 72, 46
2, 539827, Control_c, 0, 64, 0
2, 539850, Control_c, 0, 64, 127
2, 539866, Note_off_c, 0, 67, 64
2, 540027, Note_on_c, 0, 55, 36
2, 540031, Note_on_c, 0, 62, 32
2, 540098, Note_off_c, 0, 43, 64
2, 540151, Note_off_c, 0, 62, 64
2, 540161, Note_off_c, 0, 55, 64
2, 540239, Note_on_c, 0, 71, 36
2, 540257, Note_off_c, 0, 72, 64
2, 540414, Control_c, 0, 64, 0
2, 540424, Note_on_c, 0, 47, 49
2, 540442, Control_c, 0, 64, 127
2, 540495, Note_off_c, 0, 71, 64
2, 540580, Note_on_c, 0, 72, 42
2, 540591, Note_on_c, 0, 71, 27
2, 540622, Note_off_c, 0, 71, 64
2, 540622, Note_on_c, 0, 66, 23
2, 540624, Note_off_c, 0, 72, 64
2, 540632, Note_on_c, 0, 69, 23
2, 540636, Note_on_c, 0, 59, 23
2, 540640, Note_on_c, 0, 73, 49
2, 540653, Note_on_c, 0, 71, 29
2, 540678, Note_off_c, 0, 71, 64
2, 540689, Note_off_c, 0, 73, 64
2, 540691, Note_off_c, 0, 59, 64
2, 540701, Note_off_c, 0, 69, 64
2, 540707, Note_off_c, 0, 66, 64
2, 540718, Note_off_c, 0, 47, 64
2, 540743, Note_on_c, 0, 74, 46
2, 540744, Note_on_c, 0, 71, 41
2, 540786, Note_off_c, 0, 74, 64
2, 540789, Note_off_c, 0, 71, 64
2, 540843, Note_on_c, 0, 66, 36
2, 540848, Note_on_c, 0, 75, 50
2, 540848, Note_on_c, 0, 59, 32
2, 540853, Note_on_c, 0, 69, 29
2, 540856, Note_on_c, 0, 71, 20
2, 541052, Note_on_c, 0, 76, 45
2, 541055, Note_on_c, 0, 52, 44
2, 541059, Note_off_c, 0, 66, 64
2, 541062, Control_c, 0, 64, 0
2, 541064, Note_off_c, 0, 59, 64
2, 541064, Note_off_c, 0, 75, 64
2, 541069, Note_off_c, 0, 69, 64
2, 541072, Note_off_c, 0, 71, 64
2, 541077, Control_c, 0, 64, 127
2, 541198, Note_on_c, 0, 78, 36
2, 541213, Note_off_c, 0, 76, 64
2, 541242, Note_on_c, 0, 67, 29
2, 541248, Note_off_c, 0, 78, 64
2, 541249, Note_on_c, 0, 59, 40
2, 541257, Note_on_c, 0, 79, 44
2, 541310, Note_off_c, 0, 67, 64
2, 541314, Note_off_c, 0, 59, 64
2, 541366, Note_on_c, 0, 84, 42
2, 541416, Note_off_c, 0, 79, 64
2, 541461, Note_on_c, 0, 67, 29
2, 541465, Note_on_c, 0, 83, 45
2, 541471, Note_on_c, 0, 59, 40
2, 541499, Note_off_c, 0, 52, 64
2, 541575, Note_off_c, 0, 84, 64
2, 541578, Note_off_c, 0, 67, 64
2, 541645, Note_off_c, 0, 83, 64
2, 541654, Note_on_c, 0, 82, 53
2, 541664, Control_c, 0, 64, 0
2, 541672, Note_on_c, 0, 52, 41
2, 541675, Note_off_c, 0, 59, 64
2, 541694, Control_c, 0, 64, 127
2, 541703, Note_off_c, 0, 82, 64
2, 541812, Note_on_c, 0, 78, 41
2, 541863, Note_on_c, 0, 82, 50
2, 541863, Note_on_c, 0, 61, 36
2, 541863, Note_on_c, 0, 58, 36
2, 541870, Note_on_c, 0, 66, 32
2, 541879, Note_off_c, 0, 78, 64
2, 541884, Control_c, 0, 64, 0
2, 541898, Control_c, 0, 64, 127
2, 541931, Note_off_c, 0, 82, 64
2, 541936, Note_off_c, 0, 66, 64
2, 541938, Note_off_c, 0, 61, 64
2, 541967, Note_off_c, 0, 58, 64
2, 542031, Note_on_c, 0, 81, 40
2, 542072, Note_on_c, 0, 66, 39
2, 542075, Note_on_c, 0, 78, 49
2, 542075, Note_on_c, 0, 60, 39
2, 542083, Note_on_c, 0, 57, 32
2, 542088, Control_c, 0, 64, 0
2, 542096, Note_off_c, 0, 81, 64
2, 542112, Control_c, 0, 64, 127
2, 542181, Note_off_c, 0, 57, 64
2, 542194, Note_off_c, 0, 66, 64
2, 542262, Note_off_c, 0, 60, 64
2, 542268, Note_off_c, 0, 78, 64
2, 542270, Note_off_c, 0, 52, 64
2, 542278, Note_on_c, 0, 81, 44
2, 542280, Note_on_c, 0, 52, 41
2, 542304, Control_c, 0, 64, 0
2, 542312, Note_off_c, 0, 81, 64
2, 542327, Control_c, 0, 64, 127
2, 542432, Note_on_c, 0, 78, 46
2, 542482, Note_on_c, 0, 57, 40
2, 542484, Note_on_c, 0, 81, 45
2, 542486, Note_on_c, 0, 63, 28
2, 542495, Note_off_c, 0, 78, 64
2, 542505, Control_c, 0, 64, 0
2, 542518, Control_c, 0, 64, 127
2, 542580, Note_off_c, 0, 57, 64
2, 542594, Note_off_c, 0, 63, 64
2, 542640, Note_off_c, 0, 81, 64
2, 542653, Note_on_c, 0, 79, 41
2, 542694, Note_on_c, 0, 64, 29
2, 542699, Note_on_c, 0, 55, 29
2, 542701, Note_on_c, 0, 76, 42
2, 542724, Note_off_c, 0, 79, 64
2, 542747, Note_off_c, 0, 55, 64
2, 542747, Note_off_c, 0, 64, 64
2, 542768, Note_off_c, 0, 52, 64
2, 542769, Note_off_c, 0, 76, 64
2, 542914, Note_on_c, 0, 71, 44
2, 542918, Note_on_c, 0, 47, 49
2, 543035, Note_off_c, 0, 71, 64
2, 543072, Note_on_c, 0, 72, 41
2, 543077, Note_on_c, 0, 71, 39
2, 543113, Note_off_c, 0, 71, 64
2, 543117, Note_off_c, 0, 72, 64
2, 543123, Note_on_c, 0, 66, 19
2, 543124, Note_on_c, 0, 59, 33
2, 543134, Note_on_c, 0, 73, 50
2, 543134, Note_on_c, 0, 69, 20
2, 543136, Note_on_c, 0, 71, 28
2, 543162, Note_off_c, 0, 71, 64
2, 543178, Note_off_c, 0, 73, 64
2, 543185, Note_off_c, 0, 59, 64
2, 543192, Note_off_c, 0, 66, 64
2, 543202, Note_off_c, 0, 69, 64
2, 543206, Note_off_c, 0, 47, 64
2, 543222, Note_on_c, 0, 74, 48
2, 543225, Note_on_c, 0, 71, 42
2, 543263, Note_off_c, 0, 74, 64
2, 543267, Note_off_c, 0, 71, 64
2, 543332, Note_on_c, 0, 75, 57
2, 543333, Note_on_c, 0, 66, 41
2, 543333, Note_on_c, 0, 59, 39
2, 543339, Note_on_c, 0, 69, 36
2, 543525, Note_off_c, 0, 59, 64
2, 543525, Note_off_c, 0, 66, 64
2, 543531, Note_off_c, 0, 69, 64
2, 543536, Note_on_c, 0, 76, 42
2, 543548, Note_on_c, 0, 52, 45
2, 543551, Note_off_c, 0, 75, 64
2, 543581, Note_off_c, 0, 76, 64
2, 543657, Note_on_c, 0, 91, 58
2, 543713, Note_off_c, 0, 91, 64
2, 543741, Note_on_c, 0, 90, 58
2, 543754, Note_on_c, 0, 91, 65
2, 543767, Note_on_c, 0, 67, 46
2, 543769, Note_on_c, 0, 59, 57
2, 543775, Note_off_c, 0, 90, 64
2, 543782, Control_c, 0, 64, 0
2, 543792, Note_on_c, 0, 90, 63
2, 543805, Control_c, 0, 64, 127
2, 543814, Note_off_c, 0, 91, 64
2, 543883, Note_on_c, 0, 88, 27
2, 543905, Note_off_c, 0, 59, 64
2, 543927, Note_off_c, 0, 90, 64
2, 543938, Note_off_c, 0, 67, 64
2, 543965, Note_off_c, 0, 52, 64
2, 543987, Note_on_c, 0, 84, 57
2, 544003, Note_off_c, 0, 88, 64
2, 544083, Note_on_c, 0, 83, 54
2, 544114, Note_off_c, 0, 84, 64
2, 544194, Note_on_c, 0, 52, 32
2, 544199, Note_on_c, 0, 82, 37
2, 544206, Control_c, 0, 64, 0
2, 544223, Note_off_c, 0, 83, 64
2, 544232, Control_c, 0, 64, 127
2, 544296, Note_on_c, 0, 83, 39
2, 544324, Note_off_c, 0, 82, 64
2, 544394, Note_on_c, 0, 63, 15
2, 544399, Note_on_c, 0, 84, 35
2, 544403, Note_on_c, 0, 59, 26
2, 544410, Note_off_c, 0, 83, 64
2, 544410, Note_on_c, 0, 71, 13
2, 544419, Control_c, 0, 64, 0
2, 544435, Control_c, 0, 64, 127
2, 544481, Note_off_c, 0, 59, 64
2, 544481, Note_off_c, 0, 63, 64
2, 544489, Note_on_c, 0, 82, 44
2, 544493, Note_off_c, 0, 52, 64
2, 544516, Note_off_c, 0, 84, 64
2, 544518, Note_off_c, 0, 71, 64
2, 544583, Note_off_c, 0, 82, 64
2, 544586, Note_on_c, 0, 83, 36
2, 544608, Note_on_c, 0, 63, 24
2, 544617, Note_on_c, 0, 71, 18
2, 544618, Note_on_c, 0, 59, 23
2, 544658, Note_on_c, 0, 78, 44
2, 544669, Note_off_c, 0, 83, 64
2, 544725, Note_off_c, 0, 71, 64
2, 544726, Note_on_c, 0, 81, 37
2, 544735, Note_off_c, 0, 63, 64
2, 544736, Note_off_c, 0, 59, 64
2, 544754, Note_off_c, 0, 78, 64
2, 544809, Note_on_c, 0, 79, 39
2, 544816, Note_on_c, 0, 52, 26
2, 544828, Control_c, 0, 64, 0
2, 544834, Note_off_c, 0, 81, 64
2, 544851, Control_c, 0, 64, 127
2, 544920, Note_off_c, 0, 79, 64
2, 544937, Note_on_c, 0, 91, 33
2, 545005, Note_off_c, 0, 91, 64
2, 545015, Note_on_c, 0, 90, 36
2, 545054, Note_off_c, 0, 90, 64
2, 545063, Note_on_c, 0, 91, 39
2, 545083, Note_on_c, 0, 59, 20
2, 545084, Note_on_c, 0, 67, 14
2, 545091, Note_on_c, 0, 90, 36
2, 545096, Control_c, 0, 64, 0
2, 545108, Control_c, 0, 64, 127
2, 545120, Note_off_c, 0, 91, 64
2, 545184, Note_on_c, 0, 88, 28
2, 545209, Note_off_c, 0, 90, 64
2, 545213, Note_off_c, 0, 52, 64
2, 545299, Note_on_c, 0, 84, 32
2, 545320, Note_off_c, 0, 88, 64
2, 545333, Note_off_c, 0, 67, 64
2, 545387, Note_on_c, 0, 83, 28
2, 545407, Note_off_c, 0, 59, 64
2, 545415, Note_off_c, 0, 84, 64
2, 545499, Note_on_c, 0, 52, 26
2, 545506, Note_on_c, 0, 82, 29
2, 545512, Control_c, 0, 64, 0
2, 545523, Control_c, 0, 64, 127
2, 545533, Note_off_c, 0, 83, 64
2, 545620, Note_on_c, 0, 83, 32
2, 545633, Note_off_c, 0, 82, 64
2, 545728, Note_on_c, 0, 59, 19
2, 545732, Note_on_c, 0, 84, 29
2, 545732, Note_on_c, 0, 71, 11
2, 545736, Note_on_c, 0, 63, 9
2, 545739, Note_on_c, 0, 69, 13
2, 545764, Note_off_c, 0, 83, 64
2, 545805, Note_off_c, 0, 52, 64
2, 545807, Note_on_c, 0, 82, 36
2, 545830, Note_off_c, 0, 59, 64
2, 545843, Note_off_c, 0, 84, 64
2, 545851, Note_off_c, 0, 63, 64
2, 545855, Note_off_c, 0, 69, 64
2, 545865, Note_off_c, 0, 71, 64
2, 545921, Note_on_c, 0, 83, 32
2, 545933, Note_on_c, 0, 63, 20
2, 545936, Note_off_c, 0, 82, 64
2, 545937, Note_on_c, 0, 59, 20
2, 545940, Note_on_c, 0, 71, 11
2, 545944, Note_on_c, 0, 69, 13
2, 546004, Note_on_c, 0, 78, 32
2, 546026, Note_off_c, 0, 83, 64
2, 546031, Note_off_c, 0, 69, 64
2, 546039, Note_off_c, 0, 63, 64
2, 546048, Note_off_c, 0, 71, 64
2, 546050, Note_off_c, 0, 59, 64
2, 546096, Note_on_c, 0, 81, 23
2, 546132, Note_off_c, 0, 78, 64
2, 546180, Note_on_c, 0, 52, 35
2, 546186, Note_on_c, 0, 79, 39
2, 546210, Note_off_c, 0, 81, 64
2, 546302, Note_on_c, 0, 100, 52
2, 546357, Note_off_c, 0, 79, 64
2, 546365, Note_off_c, 0, 100, 64
2, 546393, Note_on_c, 0, 96, 58
2, 546418, Note_on_c, 0, 98, 67
2, 546440, Note_on_c, 0, 64, 46
2, 546446, Note_on_c, 0, 59, 46
2, 546448, Note_on_c, 0, 71, 29
2, 546449, Note_off_c, 0, 96, 64
2, 546451, Note_on_c, 0, 67, 29
2, 546458, Note_on_c, 0, 96, 42
2, 546480, Note_off_c, 0, 98, 64
2, 546534, Note_on_c, 0, 95, 54
2, 546569, Note_off_c, 0, 96, 64
2, 546639, Note_on_c, 0, 91, 63
2, 546673, Note_off_c, 0, 95, 64
2, 546726, Note_on_c, 0, 88, 54
2, 546790, Note_off_c, 0, 91, 64
2, 546801, Note_off_c, 0, 52, 64
2, 546812, Note_on_c, 0, 84, 44
2, 546827, Note_off_c, 0, 64, 64
2, 546833, Note_off_c, 0, 59, 64
2, 546848, Note_off_c, 0, 88, 64
2, 546854, Note_off_c, 0, 71, 64
2, 546857, Note_off_c, 0, 67, 64
2, 546888, Note_on_c, 0, 83, 39
2, 546925, Note_off_c, 0, 84, 64
2, 546981, Note_on_c, 0, 52, 46
2, 546986, Note_on_c, 0, 82, 45
2, 547020, Note_off_c, 0, 83, 64
2, 547128, Note_on_c, 0, 78, 27
2, 547140, Note_off_c, 0, 82, 64
2, 547237, Note_on_c, 0, 84, 48
2, 547246, Note_on_c, 0, 71, 23
2, 547246, Note_on_c, 0, 63, 26
2, 547246, Note_on_c, 0, 59, 27
2, 547250, Note_on_c, 0, 69, 20
2, 547276, Control_c, 0, 64, 0
2, 547278, Note_off_c, 0, 78, 64
2, 547292, Control_c, 0, 64, 127
2, 547316, Note_on_c, 0, 82, 52
2, 547354, Note_off_c, 0, 84, 64
2, 547397, Note_off_c, 0, 59, 64
2, 547411, Note_on_c, 0, 83, 42
2, 547421, Note_off_c, 0, 63, 64
2, 547427, Note_off_c, 0, 69, 64
2, 547427, Note_off_c, 0, 71, 64
2, 547477, Note_off_c, 0, 82, 64
2, 547515, Note_on_c, 0, 81, 44
2, 547526, Note_on_c, 0, 71, 15
2, 547526, Note_on_c, 0, 69, 15
2, 547526, Note_on_c, 0, 63, 19
2, 547535, Note_on_c, 0, 59, 11
2, 547555, Note_off_c, 0, 83, 64
2, 547607, Note_on_c, 0, 82, 46
2, 547648, Note_off_c, 0, 81, 64
2, 547708, Note_off_c, 0, 63, 64
2, 547709, Note_off_c, 0, 69, 64
2, 547711, Note_on_c, 0, 80, 37
2, 547716, Note_off_c, 0, 71, 64
2, 547732, Note_off_c, 0, 59, 64
2, 547747, Note_off_c, 0, 82, 64
2, 547757, Note_off_c, 0, 52, 64
2, 547826, Note_on_c, 0, 81, 37
2, 547836, Note_on_c, 0, 52, 36
2, 547856, Note_off_c, 0, 80, 64
2, 547952, Note_on_c, 0, 79, 35
2, 547983, Note_off_c, 0, 81, 64
2, 548078, Note_on_c, 0, 78, 35
2, 548105, Note_off_c, 0, 79, 64
2, 548259, Note_on_c, 0, 76, 32
2, 548267, Note_off_c, 0, 78, 64
2, 548267, Note_on_c, 0, 59, 18
2, 548274, Note_on_c, 0, 67, 11
2, 548334, Control_c, 0, 64, 0
2, 548389, Control_c, 0, 64, 127
2, 548452, Control_c, 0, 64, 0
2, 548529, Control_c, 0, 64, 127
2, 548860, Control_c, 0, 64, 0
2, 548964, Control_c, 0, 64, 127
2, 549623, Note_off_c, 0, 76, 64
2, 549623, Note_off_c, 0, 59, 64
2, 549623, Note_off_c, 0, 52, 64
2, 549629, Note_off_c, 0, 67, 64
2, 549666, Control_c, 0, 64, 0
2, 551117, Note_on_c, 0, 72, 39
2, 551416, Note_on_c, 0, 55, 19
2, 551420, Note_on_c, 0, 61, 16
2, 551423, Note_on_c, 0, 64, 19
2, 551453, Control_c, 0, 64, 0
2, 551486, Control_c, 0, 64, 127
2, 551545, Note_off_c, 0, 64, 64
2, 551557, Note_off_c, 0, 61, 64
2, 551637, Note_off_c, 0, 55, 64
2, 551650, Note_on_c, 0, 70, 33
2, 551664, Note_off_c, 0, 72, 64
2, 551695, Note_on_c, 0, 68, 39
2, 551709, Note_off_c, 0, 70, 64
2, 551711, Note_on_c, 0, 56, 1
2, 551715, Note_on_c, 0, 63, 15
2, 551739, Note_on_c, 0, 60, 18
2, 551757, Control_c, 0, 64, 0
2, 551794, Control_c, 0, 64, 127
2, 551830, Note_off_c, 0, 56, 64
2, 551833, Note_on_c, 0, 70, 37
2, 551863, Note_off_c, 0, 68, 64
2, 551880, Note_off_c, 0, 60, 64
2, 551931, Note_on_c, 0, 72, 42
2, 551940, Note_on_c, 0, 51, 22
2, 551947, Note_off_c, 0, 70, 64
2, 551968, Control_c, 0, 64, 0
2, 551981, Control_c, 0, 64, 127
2, 552022, Note_off_c, 0, 63, 64
2, 552027, Note_off_c, 0, 51, 64
2, 552151, Note_on_c, 0, 64, 22
2, 552151, Note_on_c, 0, 55, 16
2, 552156, Note_on_c, 0, 61, 16
2, 552183, Control_c, 0, 64, 0
2, 552228, Control_c, 0, 64, 127
2, 552248, Note_off_c, 0, 64, 64
2, 552265, Note_off_c, 0, 61, 64
2, 552302, Note_on_c, 0, 70, 37
2, 552316, Note_off_c, 0, 72, 64
2, 552330, Note_off_c, 0, 55, 64
2, 552348, Note_on_c, 0, 68, 42
2, 552360, Note_on_c, 0, 63, 23
2, 552361, Note_off_c, 0, 70, 64
2, 552366, Note_on_c, 0, 56, 23
2, 552376, Note_on_c, 0, 60, 19
2, 552380, Control_c, 0, 64, 0
2, 552416, Control_c, 0, 64, 127
2, 552465, Note_on_c, 0, 77, 39
2, 552481, Note_off_c, 0, 68, 64
2, 552538, Note_off_c, 0, 56, 64
2, 552566, Note_on_c, 0, 75, 32
2, 552572, Note_on_c, 0, 51, 31
2, 552573, Note_off_c, 0, 77, 64
2, 552576, Control_c, 0, 64, 0
2, 552586, Note_off_c, 0, 60, 64
2, 552602, Control_c, 0, 64, 127
2, 552641, Note_off_c, 0, 75, 64
2, 552645, Note_off_c, 0, 51, 64
2, 552661, Note_off_c, 0, 63, 64
2, 552762, Note_on_c, 0, 72, 35
2, 552769, Note_on_c, 0, 61, 22
2, 552769, Note_on_c, 0, 55, 23
2, 552776, Note_on_c, 0, 64, 22
2, 552806, Control_c, 0, 64, 0
2, 552831, Control_c, 0, 64, 127
2, 552860, Note_off_c, 0, 64, 64
2, 552881, Note_off_c, 0, 61, 64
2, 552907, Note_on_c, 0, 70, 28
2, 552914, Note_off_c, 0, 72, 64
2, 552935, Note_off_c, 0, 55, 64
2, 552959, Note_on_c, 0, 68, 31
2, 552969, Note_off_c, 0, 70, 64
2, 552973, Note_on_c, 0, 63, 26
2, 552979, Note_on_c, 0, 60, 23
2, 552979, Note_on_c, 0, 56, 9
2, 552996, Control_c, 0, 64, 0
2, 553043, Control_c, 0, 64, 127
2, 553058, Note_on_c, 0, 70, 36
2, 553083, Note_off_c, 0, 68, 64
2, 553148, Note_off_c, 0, 60, 64
2, 553149, Note_off_c, 0, 56, 64
2, 553161, Note_on_c, 0, 72, 35
2, 553169, Note_off_c, 0, 70, 64
2, 553169, Note_on_c, 0, 51, 28
2, 553178, Note_off_c, 0, 63, 64
2, 553187, Control_c, 0, 64, 0
2, 553208, Control_c, 0, 64, 127
2, 553308, Note_off_c, 0, 51, 64
2, 553397, Note_on_c, 0, 63, 27
2, 553398, Note_on_c, 0, 61, 16
2, 553401, Note_on_c, 0, 56, 26
2, 553435, Note_off_c, 0, 72, 64
2, 553436, Control_c, 0, 64, 0
2, 553489, Control_c, 0, 64, 127
2, 553558, Note_on_c, 0, 55, 23
2, 553562, Note_off_c, 0, 56, 64
2, 553620, Note_on_c, 0, 53, 14
2, 553624, Note_off_c, 0, 55, 64
2, 553662, Control_c, 0, 64, 0
2, 553728, Note_on_c, 0, 55, 26
2, 553733, Note_off_c, 0, 53, 64
2, 553873, Note_on_c, 0, 51, 14
2, 553918, Note_off_c, 0, 55, 64
2, 553930, Control_c, 0, 64, 127
2, 554000, Note_off_c, 0, 51, 64
2, 554004, Note_off_c, 0, 63, 64
2, 554004, Note_off_c, 0, 61, 64
2, 554202, Note_on_c, 0, 72, 39
2, 554208, Note_on_c, 0, 61, 23
2, 554208, Note_on_c, 0, 55, 28
2, 554215, Note_on_c, 0, 64, 28
2, 554238, Control_c, 0, 64, 0
2, 554268, Control_c, 0, 64, 127
2, 554303, Note_off_c, 0, 64, 64
2, 554318, Note_off_c, 0, 61, 64
2, 554364, Note_off_c, 0, 55, 64
2, 554372, Note_on_c, 0, 70, 40
2, 554375, Note_off_c, 0, 72, 64
2, 554424, Note_on_c, 0, 63, 32
2, 554428, Note_on_c, 0, 68, 44
2, 554428, Note_on_c, 0, 56, 16
2, 554435, Note_off_c, 0, 70, 64
2, 554450, Control_c, 0, 64, 0
2, 554457, Note_on_c, 0, 60, 22
2, 554487, Control_c, 0, 64, 127
2, 554530, Note_on_c, 0, 70, 36
2, 554544, Note_off_c, 0, 68, 64
2, 554609, Note_off_c, 0, 60, 64
2, 554622, Note_on_c, 0, 72, 42
2, 554629, Note_off_c, 0, 70, 64
2, 554629, Note_on_c, 0, 51, 37
2, 554632, Note_off_c, 0, 56, 64
2, 554645, Control_c, 0, 64, 0
2, 554676, Control_c, 0, 64, 127
2, 554713, Note_off_c, 0, 63, 64
2, 554722, Note_off_c, 0, 51, 64
2, 554818, Note_on_c, 0, 64, 31
2, 554818, Note_on_c, 0, 55, 29
2, 554821, Note_on_c, 0, 61, 28
2, 554841, Control_c, 0, 64, 0
2, 554861, Control_c, 0, 64, 127
2, 554900, Note_off_c, 0, 64, 64
2, 554926, Note_off_c, 0, 61, 64
2, 554984, Note_on_c, 0, 70, 39
2, 554994, Note_off_c, 0, 55, 64
2, 555003, Note_off_c, 0, 72, 64
2, 555020, Note_on_c, 0, 56, 29
2, 555024, Note_on_c, 0, 63, 29
2, 555027, Note_on_c, 0, 68, 40
2, 555031, Note_off_c, 0, 70, 64
2, 555040, Control_c, 0, 64, 0
2, 555063, Control_c, 0, 64, 127
2, 555152, Note_on_c, 0, 79, 44
2, 555257, Note_off_c, 0, 56, 64
2, 555260, Note_on_c, 0, 77, 39
2, 555270, Note_on_c, 0, 59, 32
2, 555287, Note_off_c, 0, 79, 64
2, 555298, Control_c, 0, 64, 0
2, 555342, Control_c, 0, 64, 127
2, 555406, Note_off_c, 0, 59, 64
2, 555437, Note_off_c, 0, 63, 64
2, 555506, Note_off_c, 0, 68, 64
2, 555519, Note_off_c, 0, 77, 64
2, 555541, Note_on_c, 0, 70, 42
2, 555545, Note_on_c, 0, 51, 28
2, 555545, Note_on_c, 0, 63, 22
2, 555547, Note_on_c, 0, 67, 26
2, 555552, Note_on_c, 0, 58, 28
2, 555596, Control_c, 0, 64, 0
2, 555627, Control_c, 0, 64, 127
2, 555678, Note_off_c, 0, 58, 64
2, 555696, Note_off_c, 0, 67, 64
2, 555707, Note_off_c, 0, 63, 64
2, 555794, Note_on_c, 0, 68, 40
2, 555800, Note_off_c, 0, 70, 64
2, 555800, Note_on_c, 0, 59, 29
2, 555807, Note_on_c, 0, 62, 26
2, 555817, Control_c, 0, 64, 0
2, 555830, Control_c, 0, 64, 127
2, 555843, Note_off_c, 0, 51, 64
2, 555989, Note_on_c, 0, 79, 37
2, 556044, Note_on_c, 0, 77, 35
2, 556046, Note_on_c, 0, 51, 33
2, 556063, Note_off_c, 0, 79, 64
2, 556088, Note_off_c, 0, 59, 64
2, 556110, Note_off_c, 0, 62, 64
2, 556235, Note_off_c, 0, 68, 64
2, 556280, Note_on_c, 0, 68, 37
2, 556294, Note_on_c, 0, 62, 27
2, 556294, Note_on_c, 0, 59, 31
2, 556301, Note_off_c, 0, 77, 64
2, 556303, Note_off_c, 0, 51, 64
2, 556324, Control_c, 0, 64, 0
2, 556370, Control_c, 0, 64, 127
2, 556504, Note_on_c, 0, 79, 28
2, 556566, Note_on_c, 0, 51, 26
2, 556568, Note_on_c, 0, 77, 39
2, 556594, Note_off_c, 0, 79, 64
2, 556601, Control_c, 0, 64, 0
2, 556628, Note_off_c, 0, 59, 64
2, 556638, Control_c, 0, 64, 127
2, 556663, Note_off_c, 0, 62, 64
2, 556888, Note_off_c, 0, 68, 64
2, 556914, Note_on_c, 0, 63, 16
2, 556915, Note_on_c, 0, 67, 18
2, 556922, Note_on_c, 0, 70, 27
2, 556928, Note_on_c, 0, 58, 16
2, 556935, Note_off_c, 0, 77, 64
2, 556975, Control_c, 0, 64, 0
2, 557017, Control_c, 0, 64, 127
2, 557141, Note_off_c, 0, 51, 64
2, 557155, Note_off_c, 0, 58, 64
2, 557162, Note_off_c, 0, 63, 64
2, 557171, Note_off_c, 0, 70, 64
2, 557233, Note_off_c, 0, 67, 64
2, 557342, Note_on_c, 0, 72, 41
2, 557344, Note_on_c, 0, 61, 36
2, 557354, Note_on_c, 0, 64, 27
2, 557358, Note_on_c, 0, 55, 28
2, 557380, Control_c, 0, 64, 0
2, 557413, Control_c, 0, 64, 127
2, 557456, Note_off_c, 0, 64, 64
2, 557465, Note_off_c, 0, 61, 64
2, 557521, Note_off_c, 0, 55, 64
2, 557532, Note_on_c, 0, 70, 32
2, 557553, Note_off_c, 0, 72, 64
2, 557574, Note_on_c, 0, 56, 22
2, 557576, Note_on_c, 0, 63, 41
2, 557586, Note_on_c, 0, 68, 40
2, 557600, Note_on_c, 0, 60, 20
2, 557602, Note_off_c, 0, 70, 64
2, 557616, Control_c, 0, 64, 0
2, 557645, Control_c, 0, 64, 127
2, 557692, Note_on_c, 0, 70, 46
2, 557720, Note_off_c, 0, 68, 64
2, 557792, Note_on_c, 0, 72, 44
2, 557802, Note_on_c, 0, 51, 41
2, 557806, Note_off_c, 0, 70, 64
2, 557813, Control_c, 0, 64, 0
2, 557819, Note_off_c, 0, 60, 64
2, 557822, Note_off_c, 0, 56, 64
2, 557829, Control_c, 0, 64, 127
2, 557882, Note_off_c, 0, 51, 64
2, 557908, Note_off_c, 0, 63, 64
2, 557986, Note_on_c, 0, 55, 40
2, 557989, Note_on_c, 0, 64, 36
2, 557993, Note_on_c, 0, 61, 37
2, 558002, Control_c, 0, 64, 0
2, 558026, Control_c, 0, 64, 127
2, 558068, Note_off_c, 0, 64, 64
2, 558078, Note_off_c, 0, 61, 64
2, 558130, Note_off_c, 0, 55, 64
2, 558133, Note_on_c, 0, 70, 41
2, 558148, Note_off_c, 0, 72, 64
2, 558178, Note_on_c, 0, 68, 40
2, 558183, Note_on_c, 0, 63, 44
2, 558186, Note_off_c, 0, 70, 64
2, 558186, Note_on_c, 0, 60, 42
2, 558192, Note_on_c, 0, 56, 23
2, 558205, Control_c, 0, 64, 0
2, 558229, Control_c, 0, 64, 127
2, 558286, Note_on_c, 0, 77, 44
2, 558317, Note_off_c, 0, 68, 64
2, 558385, Note_on_c, 0, 75, 44
2, 558394, Note_on_c, 0, 51, 28
2, 558398, Note_off_c, 0, 77, 64
2, 558399, Control_c, 0, 64, 0
2, 558411, Note_off_c, 0, 56, 64
2, 558412, Control_c, 0, 64, 127
2, 558427, Note_off_c, 0, 60, 64
2, 558440, Note_off_c, 0, 75, 64
2, 558453, Note_off_c, 0, 51, 64
2, 558482, Note_off_c, 0, 63, 64
2, 558592, Note_on_c, 0, 72, 48
2, 558598, Note_on_c, 0, 61, 24
2, 558604, Note_on_c, 0, 55, 28
2, 558607, Note_on_c, 0, 64, 22
2, 558623, Control_c, 0, 64, 0
2, 558659, Control_c, 0, 64, 127
2, 558697, Note_off_c, 0, 64, 64
2, 558722, Note_off_c, 0, 61, 64
2, 558744, Note_on_c, 0, 70, 40
2, 558768, Note_off_c, 0, 72, 64
2, 558772, Note_off_c, 0, 55, 64
2, 558819, Note_on_c, 0, 67, 44
2, 558826, Note_on_c, 0, 63, 35
2, 558831, Note_off_c, 0, 70, 64
2, 558839, Note_on_c, 0, 60, 36
2, 558839, Note_on_c, 0, 56, 19
2, 558852, Control_c, 0, 64, 0
2, 558873, Control_c, 0, 64, 127
2, 558906, Note_on_c, 0, 68, 40
2, 558931, Note_off_c, 0, 67, 64
2, 558991, Note_on_c, 0, 70, 41
2, 559003, Note_off_c, 0, 56, 64
2, 559003, Note_off_c, 0, 60, 64
2, 559006, Note_off_c, 0, 68, 64
2, 559072, Note_on_c, 0, 51, 23
2, 559091, Note_on_c, 0, 71, 33
2, 559105, Note_off_c, 0, 70, 64
2, 559115, Control_c, 0, 64, 0
2, 559128, Note_off_c, 0, 63, 64
2, 559128, Control_c, 0, 64, 127
2, 559178, Note_on_c, 0, 73, 52
2, 559184, Note_off_c, 0, 71, 64
2, 559248, Note_off_c, 0, 73, 64
2, 559311, Note_on_c, 0, 72, 49
2, 559321, Note_off_c, 0, 51, 64
2, 559345, Note_off_c, 0, 72, 64
2, 559374, Note_on_c, 0, 72, 49
2, 559416, Note_on_c, 0, 63, 45
2, 559416, Note_on_c, 0, 56, 32
2, 559423, Note_on_c, 0, 61, 28
2, 559425, Note_off_c, 0, 72, 64
2, 559482, Control_c, 0, 64, 0
2, 559609, Note_on_c, 0, 55, 40
2, 559613, Note_off_c, 0, 56, 64
2, 559671, Note_on_c, 0, 53, 39
2, 559691, Note_off_c, 0, 55, 64
2, 559793, Note_on_c, 0, 55, 41
2, 559795, Note_off_c, 0, 53, 64
2, 559952, Note_on_c, 0, 51, 20
2, 559982, Note_off_c, 0, 55, 64
2, 560064, Control_c, 0, 64, 127
2, 560165, Note_off_c, 0, 51, 64
2, 560166, Note_off_c, 0, 63, 64
2, 560186, Note_off_c, 0, 61, 64
2, 560323, Note_on_c, 0, 72, 40
2, 560328, Note_on_c, 0, 61, 29
2, 560333, Note_on_c, 0, 64, 27
2, 560338, Note_on_c, 0, 55, 27
2, 560352, Control_c, 0, 64, 0
2, 560384, Control_c, 0, 64, 127
2, 560412, Note_off_c, 0, 64, 64
2, 560430, Note_off_c, 0, 61, 64
2, 560479, Note_off_c, 0, 55, 64
2, 560497, Note_off_c, 0, 72, 64
2, 560508, Note_on_c, 0, 70, 27
2, 560535, Note_on_c, 0, 63, 33
2, 560538, Note_on_c, 0, 56, 23
2, 560542, Note_on_c, 0, 68, 36
2, 560545, Note_off_c, 0, 70, 64
2, 560555, Note_on_c, 0, 60, 18
2, 560567, Control_c, 0, 64, 0
2, 560588, Control_c, 0, 64, 127
2, 560641, Note_on_c, 0, 70, 58
2, 560656, Note_off_c, 0, 68, 64
2, 560731, Note_off_c, 0, 60, 64
2, 560745, Note_off_c, 0, 56, 64
2, 560745, Note_on_c, 0, 72, 50
2, 560760, Note_off_c, 0, 70, 64
2, 560761, Note_on_c, 0, 51, 26
2, 560764, Control_c, 0, 64, 0
2, 560800, Control_c, 0, 64, 127
2, 560826, Note_off_c, 0, 51, 64
2, 560855, Note_off_c, 0, 63, 64
2, 560951, Note_on_c, 0, 61, 32
2, 560958, Note_on_c, 0, 64, 23
2, 560964, Note_on_c, 0, 55, 27
2, 561029, Note_on_c, 0, 70, 45
2, 561041, Note_off_c, 0, 55, 64
2, 561041, Note_off_c, 0, 64, 64
2, 561043, Note_off_c, 0, 61, 64
2, 561046, Note_off_c, 0, 72, 64
2, 561076, Note_on_c, 0, 72, 46
2, 561084, Note_off_c, 0, 70, 64
2, 561114, Note_on_c, 0, 70, 62
2, 561127, Note_off_c, 0, 72, 64
2, 561154, Note_on_c, 0, 68, 61
2, 561162, Note_off_c, 0, 70, 64
2, 561168, Note_on_c, 0, 63, 36
2, 561168, Note_on_c, 0, 56, 36
2, 561177, Note_on_c, 0, 60, 42
2, 561192, Control_c, 0, 64, 0
2, 561206, Note_off_c, 0, 56, 64
2, 561209, Note_off_c, 0, 60, 64
2, 561217, Control_c, 0, 64, 127
2, 561229, Note_off_c, 0, 63, 64
2, 561295, Note_off_c, 0, 68, 64
2, 561387, Note_on_c, 0, 80, 57
2, 561432, Note_on_c, 0, 71, 32
2, 561433, Note_on_c, 0, 62, 40
2, 561440, Note_on_c, 0, 68, 36
2, 561444, Note_on_c, 0, 77, 58
2, 561463, Note_off_c, 0, 80, 64
2, 561474, Control_c, 0, 64, 0
2, 561487, Control_c, 0, 64, 127
2, 561530, Note_off_c, 0, 71, 64
2, 561549, Note_off_c, 0, 62, 64
2, 561564, Note_off_c, 0, 68, 64
2, 561712, Note_on_c, 0, 67, 32
2, 561712, Note_on_c, 0, 63, 36
2, 561716, Note_on_c, 0, 70, 53
2, 561748, Note_off_c, 0, 77, 64
2, 561757, Control_c, 0, 64, 0
2, 561768, Control_c, 0, 64, 127
2, 561815, Note_off_c, 0, 67, 64
2, 561909, Note_on_c, 0, 72, 49
2, 561919, Note_off_c, 0, 70, 64
2, 561941, Note_off_c, 0, 63, 64
2, 561958, Note_on_c, 0, 73, 58
2, 561960, Note_on_c, 0, 65, 28
2, 561960, Note_on_c, 0, 58, 40
2, 561973, Control_c, 0, 64, 0
2, 561979, Note_off_c, 0, 72, 64
2, 561996, Control_c, 0, 64, 127
2, 562039, Note_off_c, 0, 65, 64
2, 562185, Note_off_c, 0, 58, 64
2, 562191, Note_on_c, 0, 51, 29
2, 562192, Note_on_c, 0, 67, 49
2, 562192, Note_on_c, 0, 63, 46
2, 562194, Note_on_c, 0, 72, 53
2, 562197, Note_off_c, 0, 73, 64
2, 562371, Note_on_c, 0, 70, 36
2, 562371, Note_on_c, 0, 61, 36
2, 562378, Note_off_c, 0, 63, 64
2, 562379, Note_off_c, 0, 72, 64
2, 562394, Note_off_c, 0, 67, 64
2, 562447, Note_on_c, 0, 65, 48
2, 562449, Note_off_c, 0, 51, 64
2, 562450, Note_on_c, 0, 68, 53
2, 562450, Note_on_c, 0, 56, 27
2, 562452, Note_on_c, 0, 73, 44
2, 562464, Note_off_c, 0, 61, 64
2, 562468, Note_off_c, 0, 70, 64
2, 562498, Control_c, 0, 64, 0
2, 562541, Control_c, 0, 64, 127
2, 562692, Note_on_c, 0, 63, 29
2, 562698, Note_off_c, 0, 68, 64
2, 562699, Note_on_c, 0, 72, 44
2, 562715, Note_off_c, 0, 73, 64
2, 562751, Note_off_c, 0, 65, 64
2, 562760, Note_on_c, 0, 60, 36
2, 562767, Note_on_c, 0, 68, 35
2, 562774, Note_off_c, 0, 72, 64
2, 562775, Note_off_c, 0, 63, 64
2, 562797, Control_c, 0, 64, 0
2, 562912, Control_c, 0, 64, 127
2, 563088, Note_off_c, 0, 60, 64
2, 563092, Note_on_c, 0, 65, 48
2, 563097, Note_off_c, 0, 68, 64
2, 563120, Note_off_c, 0, 56, 64
2, 563334, Note_on_c, 0, 73, 55
2, 563349, Control_c, 0, 64, 0
2, 563364, Note_off_c, 0, 65, 64
2, 563373, Control_c, 0, 64, 127
2, 563410, Note_off_c, 0, 73, 64
2, 563544, Note_on_c, 0, 70, 53
2, 563553, Note_on_c, 0, 46, 24
2, 563555, Note_on_c, 0, 61, 41
2, 563577, Control_c, 0, 64, 0
2, 563609, Control_c, 0, 64, 127
2, 563642, Note_off_c, 0, 61, 64
2, 563655, Note_off_c, 0, 46, 64
2, 563723, Note_on_c, 0, 73, 42
2, 563762, Note_off_c, 0, 70, 64
2, 563778, Note_on_c, 0, 65, 50
2, 563781, Note_on_c, 0, 77, 50
2, 563785, Note_on_c, 0, 61, 52
2, 563792, Note_on_c, 0, 53, 40
2, 563792, Note_on_c, 0, 46, 36
2, 563795, Note_off_c, 0, 73, 64
2, 563821, Control_c, 0, 64, 0
2, 563863, Control_c, 0, 64, 127
2, 563868, Note_off_c, 0, 65, 64
2, 563989, Note_on_c, 0, 76, 58
2, 563996, Note_off_c, 0, 77, 64
2, 564011, Note_off_c, 0, 53, 64
2, 564014, Note_off_c, 0, 61, 64
2, 564018, Note_off_c, 0, 46, 64
2, 564132, Note_on_c, 0, 72, 36
2, 564151, Note_off_c, 0, 76, 64
2, 564178, Note_on_c, 0, 46, 49
2, 564185, Note_on_c, 0, 60, 42
2, 564188, Note_on_c, 0, 75, 49
2, 564197, Note_on_c, 0, 53, 42
2, 564203, Note_off_c, 0, 72, 64
2, 564208, Control_c, 0, 64, 0
2, 564234, Control_c, 0, 64, 127
2, 564254, Note_off_c, 0, 46, 64
2, 564262, Note_off_c, 0, 53, 64
2, 564267, Note_off_c, 0, 60, 64
2, 564290, Note_on_c, 0, 73, 54
2, 564296, Note_off_c, 0, 75, 64
2, 564377, Note_on_c, 0, 82, 57
2, 564384, Note_on_c, 0, 70, 55
2, 564384, Note_on_c, 0, 46, 49
2, 564390, Note_on_c, 0, 61, 50
2, 564394, Note_off_c, 0, 73, 64
2, 564394, Note_on_c, 0, 53, 44
2, 564419, Control_c, 0, 64, 0
2, 564443, Control_c, 0, 64, 127
2, 564479, Note_off_c, 0, 82, 64
2, 564527, Note_on_c, 0, 73, 49
2, 564534, Note_off_c, 0, 70, 64
2, 564557, Note_on_c, 0, 75, 50
2, 564558, Note_off_c, 0, 73, 64
2, 564593, Note_on_c, 0, 73, 55
2, 564603, Note_off_c, 0, 46, 64
2, 564604, Note_off_c, 0, 75, 64
2, 564604, Note_off_c, 0, 53, 64
2, 564610, Note_off_c, 0, 61, 64
2, 564805, Note_on_c, 0, 70, 49
2, 564806, Note_on_c, 0, 61, 49
2, 564806, Note_on_c, 0, 46, 50
2, 564810, Note_on_c, 0, 53, 42
2, 564815, Note_off_c, 0, 73, 64
2, 564825, Control_c, 0, 64, 0
2, 564836, Control_c, 0, 64, 127
2, 564868, Note_off_c, 0, 46, 64
2, 564869, Note_off_c, 0, 53, 64
2, 564875, Note_off_c, 0, 61, 64
2, 564902, Note_on_c, 0, 73, 49
2, 564905, Note_off_c, 0, 70, 64
2, 565000, Note_on_c, 0, 77, 58
2, 565006, Note_on_c, 0, 65, 46
2, 565006, Note_on_c, 0, 61, 50
2, 565006, Note_on_c, 0, 46, 50
2, 565012, Note_off_c, 0, 73, 64
2, 565012, Note_on_c, 0, 53, 48
2, 565031, Control_c, 0, 64, 0
2, 565065, Note_off_c, 0, 65, 64
2, 565078, Control_c, 0, 64, 127
2, 565192, Note_on_c, 0, 76, 50
2, 565206, Note_off_c, 0, 53, 64
2, 565211, Note_off_c, 0, 46, 64
2, 565221, Note_off_c, 0, 61, 64
2, 565275, Note_on_c, 0, 72, 57
2, 565283, Note_off_c, 0, 76, 64
2, 565360, Note_on_c, 0, 75, 57
2, 565365, Note_on_c, 0, 46, 49
2, 565372, Note_on_c, 0, 60, 42
2, 565373, Note_on_c, 0, 53, 46
2, 565379, Note_off_c, 0, 72, 64
2, 565380, Control_c, 0, 64, 0
2, 565404, Control_c, 0, 64, 127
2, 565427, Note_off_c, 0, 46, 64
2, 565432, Note_off_c, 0, 53, 64
2, 565433, Note_off_c, 0, 60, 64
2, 565441, Note_on_c, 0, 73, 62
2, 565447, Note_off_c, 0, 75, 64
2, 565544, Note_off_c, 0, 77, 64
2, 565545, Note_on_c, 0, 82, 57
2, 565549, Note_on_c, 0, 70, 62
2, 565556, Note_off_c, 0, 73, 64
2, 565558, Note_on_c, 0, 46, 50
2, 565562, Note_on_c, 0, 61, 58
2, 565563, Note_on_c, 0, 53, 44
2, 565581, Control_c, 0, 64, 0
2, 565615, Control_c, 0, 64, 127
2, 565719, Note_off_c, 0, 70, 64
2, 565729, Note_on_c, 0, 76, 50
2, 565751, Note_off_c, 0, 53, 64
2, 565758, Note_off_c, 0, 61, 64
2, 565765, Note_off_c, 0, 46, 64
2, 565808, Note_off_c, 0, 76, 64
2, 565811, Note_on_c, 0, 72, 58
2, 565909, Note_on_c, 0, 75, 66
2, 565909, Note_on_c, 0, 46, 50
2, 565917, Note_on_c, 0, 60, 46
2, 565925, Note_off_c, 0, 72, 64
2, 565925, Note_on_c, 0, 53, 49
2, 565928, Control_c, 0, 64, 0
2, 565949, Control_c, 0, 64, 127
2, 565972, Note_off_c, 0, 46, 64
2, 565985, Note_off_c, 0, 53, 64
2, 565991, Note_on_c, 0, 73, 62
2, 566000, Note_off_c, 0, 60, 64
2, 566004, Note_off_c, 0, 75, 64
2, 566082, Note_off_c, 0, 82, 64
2, 566090, Note_on_c, 0, 82, 62
2, 566090, Note_on_c, 0, 70, 63
2, 566102, Note_off_c, 0, 73, 64
2, 566103, Note_on_c, 0, 61, 55
2, 566106, Note_on_c, 0, 46, 45
2, 566108, Note_on_c, 0, 53, 49
2, 566135, Control_c, 0, 64, 0
2, 566184, Control_c, 0, 64, 127
2, 566270, Note_off_c, 0, 70, 64
2, 566273, Note_on_c, 0, 76, 58
2, 566355, Note_on_c, 0, 72, 62
2, 566363, Note_off_c, 0, 76, 64
2, 566364, Note_off_c, 0, 53, 64
2, 566387, Note_off_c, 0, 46, 64
2, 566387, Note_off_c, 0, 61, 64
2, 566469, Note_on_c, 0, 75, 62
2, 566480, Note_on_c, 0, 60, 49
2, 566481, Note_on_c, 0, 46, 49
2, 566485, Note_on_c, 0, 53, 48
2, 566491, Note_off_c, 0, 72, 64
2, 566508, Control_c, 0, 64, 0
2, 566543, Control_c, 0, 64, 127
2, 566576, Note_on_c, 0, 73, 63
2, 566584, Note_off_c, 0, 75, 64
2, 566586, Note_off_c, 0, 46, 64
2, 566599, Note_off_c, 0, 60, 64
2, 566605, Note_off_c, 0, 53, 64
2, 566696, Note_off_c, 0, 82, 64
2, 566718, Note_on_c, 0, 70, 58
2, 566725, Note_on_c, 0, 82, 58
2, 566734, Note_on_c, 0, 61, 48
2, 566736, Note_on_c, 0, 46, 48
2, 566738, Note_off_c, 0, 73, 64
2, 566743, Note_on_c, 0, 53, 40
2, 566787, Control_c, 0, 64, 0
2, 566841, Control_c, 0, 64, 127
2, 567068, Note_on_c, 0, 73, 58
2, 567083, Note_off_c, 0, 70, 64
2, 567089, Note_off_c, 0, 82, 64
2, 567094, Note_off_c, 0, 53, 64
2, 567103, Note_off_c, 0, 46, 64
2, 567133, Note_off_c, 0, 61, 64
2, 567355, Note_on_c, 0, 64, 28
2, 567355, Note_on_c, 0, 58, 37
2, 567362, Note_on_c, 0, 55, 18
2, 567399, Control_c, 0, 64, 0
2, 567412, Control_c, 0, 64, 127
2, 567506, Note_off_c, 0, 58, 64
2, 567516, Note_off_c, 0, 64, 64
2, 567552, Note_off_c, 0, 55, 64
2, 567634, Note_on_c, 0, 71, 50
2, 567637, Note_on_c, 0, 56, 36
2, 567646, Note_off_c, 0, 73, 64
2, 567646, Note_on_c, 0, 64, 39
2, 567646, Note_on_c, 0, 59, 36
2, 567691, Control_c, 0, 64, 0
2, 567715, Control_c, 0, 64, 127
2, 567830, Note_off_c, 0, 56, 64
2, 567862, Note_off_c, 0, 64, 64
2, 567863, Note_off_c, 0, 59, 64
2, 567945, Note_on_c, 0, 73, 48
2, 567954, Note_on_c, 0, 55, 23
2, 567961, Note_off_c, 0, 71, 64
2, 567961, Note_on_c, 0, 64, 32
2, 567961, Note_on_c, 0, 58, 36
2, 568004, Control_c, 0, 64, 0
2, 568026, Control_c, 0, 64, 127
2, 568177, Note_off_c, 0, 64, 64
2, 568187, Note_off_c, 0, 55, 64
2, 568191, Note_off_c, 0, 58, 64
2, 568307, Note_on_c, 0, 71, 37
2, 568307, Note_on_c, 0, 59, 35
2, 568312, Note_on_c, 0, 56, 26
2, 568317, Note_off_c, 0, 73, 64
2, 568322, Note_on_c, 0, 64, 28
2, 568371, Control_c, 0, 64, 0
2, 568419, Control_c, 0, 64, 127
2, 568551, Note_off_c, 0, 59, 64
2, 568593, Note_off_c, 0, 56, 64
2, 568610, Note_off_c, 0, 64, 64
2, 568760, Note_on_c, 0, 61, 20
2, 568762, Note_on_c, 0, 70, 37
2, 568764, Note_on_c, 0, 55, 23
2, 568767, Note_on_c, 0, 64, 18
2, 568785, Note_off_c, 0, 71, 64
2, 568854, Control_c, 0, 64, 0
2, 568892, Control_c, 0, 64, 127
2, 569212, Note_off_c, 0, 70, 64
2, 569220, Note_on_c, 0, 72, 29
2, 569251, Control_c, 0, 64, 0
2, 569261, Control_c, 0, 64, 127
2, 569343, Note_off_c, 0, 64, 64
2, 569352, Note_off_c, 0, 61, 64
2, 569356, Note_off_c, 0, 55, 64
2, 569492, Note_on_c, 0, 70, 40
2, 569502, Note_off_c, 0, 72, 64
2, 569538, Note_on_c, 0, 56, 16
2, 569545, Note_on_c, 0, 63, 20
2, 569546, Note_on_c, 0, 68, 40
2, 569554, Note_on_c, 0, 60, 27
2, 569556, Note_off_c, 0, 70, 64
2, 569595, Control_c, 0, 64, 0
2, 569607, Control_c, 0, 64, 127
2, 569675, Note_off_c, 0, 56, 64
2, 569682, Note_on_c, 0, 70, 40
2, 569722, Note_off_c, 0, 68, 64
2, 569788, Note_on_c, 0, 72, 44
2, 569793, Note_off_c, 0, 70, 64
2, 569803, Note_on_c, 0, 51, 22
2, 569829, Note_off_c, 0, 60, 64
2, 569836, Control_c, 0, 64, 0
2, 569848, Control_c, 0, 64, 127
2, 569891, Note_off_c, 0, 51, 64
2, 569925, Note_off_c, 0, 63, 64
2, 569994, Note_on_c, 0, 64, 29
2, 569999, Note_on_c, 0, 61, 32
2, 570009, Note_on_c, 0, 55, 19
2, 570033, Control_c, 0, 64, 0
2, 570046, Control_c, 0, 64, 127
2, 570098, Note_off_c, 0, 64, 64
2, 570121, Note_off_c, 0, 61, 64
2, 570157, Note_on_c, 0, 70, 44
2, 570160, Note_off_c, 0, 55, 64
2, 570167, Note_off_c, 0, 72, 64
2, 570199, Note_on_c, 0, 68, 42
2, 570207, Note_on_c, 0, 56, 28
2, 570216, Note_on_c, 0, 63, 28
2, 570219, Note_off_c, 0, 70, 64
2, 570242, Note_on_c, 0, 60, 13
2, 570377, Note_on_c, 0, 77, 44
2, 570386, Note_off_c, 0, 56, 64
2, 570400, Note_off_c, 0, 60, 64
2, 570406, Note_off_c, 0, 68, 64
2, 570432, Note_on_c, 0, 75, 44
2, 570444, Note_off_c, 0, 77, 64
2, 570446, Note_on_c, 0, 51, 22
2, 570468, Control_c, 0, 64, 0
2, 570492, Control_c, 0, 64, 127
2, 570547, Note_off_c, 0, 51, 64
2, 570549, Note_off_c, 0, 75, 64
2, 570560, Note_off_c, 0, 63, 64
2, 570674, Note_on_c, 0, 64, 29
2, 570680, Note_on_c, 0, 61, 24
2, 570684, Note_on_c, 0, 72, 49
2, 570689, Note_on_c, 0, 55, 26
2, 570733, Control_c, 0, 64, 0
2, 570747, Control_c, 0, 64, 127
2, 570782, Note_off_c, 0, 64, 64
2, 570824, Note_off_c, 0, 61, 64
2, 570850, Note_on_c, 0, 70, 53
2, 570855, Note_off_c, 0, 72, 64
2, 570896, Note_off_c, 0, 55, 64
2, 570932, Note_on_c, 0, 68, 36
2, 570940, Note_off_c, 0, 70, 64
2, 570948, Note_on_c, 0, 63, 32
2, 570948, Note_on_c, 0, 56, 32
2, 570966, Note_on_c, 0, 60, 24
2, 571061, Note_on_c, 0, 70, 46
2, 571083, Note_off_c, 0, 68, 64
2, 571135, Note_off_c, 0, 56, 64
2, 571165, Note_off_c, 0, 60, 64
2, 571185, Note_on_c, 0, 71, 53
2, 571189, Note_on_c, 0, 51, 32
2, 571200, Note_off_c, 0, 70, 64
2, 571241, Note_off_c, 0, 63, 64
2, 571263, Note_on_c, 0, 73, 48
2, 571272, Note_off_c, 0, 71, 64
2, 571346, Note_off_c, 0, 73, 64
2, 571395, Note_on_c, 0, 72, 49
2, 571437, Note_off_c, 0, 72, 64
2, 571467, Note_on_c, 0, 72, 42
2, 571513, Note_on_c, 0, 56, 36
2, 571520, Note_on_c, 0, 63, 49
2, 571526, Note_on_c, 0, 61, 29
2, 571532, Note_off_c, 0, 72, 64
2, 571542, Note_off_c, 0, 51, 64
2, 571574, Control_c, 0, 64, 0
2, 571655, Control_c, 0, 64, 127
2, 571728, Note_on_c, 0, 55, 36
2, 571740, Note_off_c, 0, 56, 64
2, 571793, Note_on_c, 0, 53, 35
2, 571799, Note_off_c, 0, 55, 64
2, 571816, Control_c, 0, 64, 0
2, 571911, Note_off_c, 0, 53, 64
2, 571915, Note_on_c, 0, 55, 36
2, 572035, Note_on_c, 0, 51, 35
2, 572066, Control_c, 0, 64, 127
2, 572095, Note_off_c, 0, 55, 64
2, 572124, Note_off_c, 0, 51, 64
2, 572140, Note_off_c, 0, 63, 64
2, 572144, Note_off_c, 0, 61, 64
2, 572335, Note_on_c, 0, 61, 23
2, 572337, Note_on_c, 0, 72, 42
2, 572342, Note_on_c, 0, 64, 29
2, 572345, Note_on_c, 0, 55, 26
2, 572367, Control_c, 0, 64, 0
2, 572390, Control_c, 0, 64, 127
2, 572419, Note_off_c, 0, 64, 64
2, 572433, Note_off_c, 0, 61, 64
2, 572472, Note_off_c, 0, 55, 64
2, 572494, Note_on_c, 0, 70, 20
2, 572496, Note_off_c, 0, 72, 64
2, 572535, Note_on_c, 0, 68, 44
2, 572542, Note_off_c, 0, 70, 64
2, 572543, Note_on_c, 0, 56, 22
2, 572547, Note_on_c, 0, 63, 27
2, 572548, Note_on_c, 0, 60, 29
2, 572561, Control_c, 0, 64, 0
2, 572603, Control_c, 0, 64, 127
2, 572668, Note_on_c, 0, 70, 33
2, 572705, Note_off_c, 0, 68, 64
2, 572721, Note_off_c, 0, 56, 64
2, 572746, Note_on_c, 0, 72, 48
2, 572748, Note_off_c, 0, 70, 64
2, 572751, Note_off_c, 0, 60, 64
2, 572759, Note_on_c, 0, 51, 29
2, 572767, Control_c, 0, 64, 0
2, 572802, Control_c, 0, 64, 127
2, 572842, Note_off_c, 0, 51, 64
2, 572849, Note_off_c, 0, 63, 64
2, 572950, Note_on_c, 0, 61, 29
2, 572957, Note_on_c, 0, 64, 28
2, 572963, Note_on_c, 0, 55, 24
2, 572977, Control_c, 0, 64, 0
2, 572998, Control_c, 0, 64, 127
2, 573039, Note_off_c, 0, 64, 64
2, 573057, Note_off_c, 0, 61, 64
2, 573093, Note_off_c, 0, 55, 64
2, 573121, Note_on_c, 0, 70, 42
2, 573127, Note_off_c, 0, 72, 64
2, 573162, Note_on_c, 0, 63, 29
2, 573162, Note_on_c, 0, 56, 22
2, 573163, Note_on_c, 0, 68, 49
2, 573173, Note_off_c, 0, 70, 64
2, 573175, Note_on_c, 0, 60, 22
2, 573191, Control_c, 0, 64, 0
2, 573202, Control_c, 0, 64, 127
2, 573274, Note_off_c, 0, 60, 64
2, 573287, Note_on_c, 0, 79, 42
2, 573396, Note_on_c, 0, 77, 44
2, 573402, Note_on_c, 0, 59, 33
2, 573424, Control_c, 0, 64, 0
2, 573434, Note_off_c, 0, 79, 64
2, 573435, Control_c, 0, 64, 127
2, 573448, Note_off_c, 0, 56, 64
2, 573491, Note_off_c, 0, 59, 64
2, 573535, Note_off_c, 0, 68, 64
2, 573621, Note_off_c, 0, 77, 64
2, 573630, Note_on_c, 0, 70, 44
2, 573631, Note_on_c, 0, 67, 40
2, 573640, Note_on_c, 0, 51, 29
2, 573647, Note_on_c, 0, 58, 16
2, 573661, Control_c, 0, 64, 0
2, 573708, Control_c, 0, 64, 127
2, 573733, Note_off_c, 0, 58, 64
2, 573742, Note_off_c, 0, 67, 64
2, 573788, Note_off_c, 0, 63, 64
2, 573864, Note_on_c, 0, 68, 42
2, 573864, Note_on_c, 0, 62, 15
2, 573879, Note_on_c, 0, 59, 28
2, 573882, Note_off_c, 0, 70, 64
2, 573885, Note_off_c, 0, 51, 64
2, 573899, Control_c, 0, 64, 0
2, 573925, Control_c, 0, 64, 127
2, 574039, Note_on_c, 0, 79, 41
2, 574096, Note_on_c, 0, 77, 48
2, 574104, Note_on_c, 0, 51, 29
2, 574118, Control_c, 0, 64, 0
2, 574125, Note_off_c, 0, 79, 64
2, 574125, Note_off_c, 0, 59, 64
2, 574143, Control_c, 0, 64, 127
2, 574146, Note_off_c, 0, 62, 64
2, 574289, Note_off_c, 0, 68, 64
2, 574334, Note_on_c, 0, 68, 42
2, 574340, Note_off_c, 0, 51, 64
2, 574347, Note_on_c, 0, 59, 31
2, 574348, Note_off_c, 0, 77, 64
2, 574354, Note_on_c, 0, 62, 24
2, 574390, Control_c, 0, 64, 0
2, 574413, Control_c, 0, 64, 127
2, 574574, Note_on_c, 0, 79, 33
2, 574635, Note_on_c, 0, 77, 48
2, 574642, Note_on_c, 0, 51, 22
2, 574656, Note_off_c, 0, 79, 64
2, 574680, Control_c, 0, 64, 0
2, 574690, Control_c, 0, 64, 127
2, 574718, Note_off_c, 0, 59, 64
2, 574767, Note_off_c, 0, 62, 64
2, 574982, Note_off_c, 0, 68, 64
2, 575018, Note_on_c, 0, 70, 40
2, 575025, Note_on_c, 0, 63, 18
2, 575029, Note_on_c, 0, 67, 20
2, 575031, Note_on_c, 0, 58, 16
2, 575038, Note_off_c, 0, 77, 64
2, 575095, Control_c, 0, 64, 0
2, 575116, Control_c, 0, 64, 127
2, 575191, Note_off_c, 0, 51, 64
2, 575227, Note_off_c, 0, 58, 64
2, 575254, Note_off_c, 0, 63, 64
2, 575285, Note_off_c, 0, 70, 64
2, 575376, Note_off_c, 0, 67, 64
2, 575474, Note_on_c, 0, 72, 42
2, 575478, Note_on_c, 0, 61, 27
2, 575490, Note_on_c, 0, 55, 22
2, 575492, Note_on_c, 0, 64, 24
2, 575533, Control_c, 0, 64, 0
2, 575555, Control_c, 0, 64, 127
2, 575597, Note_off_c, 0, 61, 64
2, 575603, Note_off_c, 0, 64, 64
2, 575670, Note_on_c, 0, 70, 40
2, 575673, Note_off_c, 0, 55, 64
2, 575688, Note_off_c, 0, 72, 64
2, 575708, Note_on_c, 0, 56, 29
2, 575719, Note_on_c, 0, 63, 27
2, 575726, Note_on_c, 0, 60, 27
2, 575731, Note_on_c, 0, 68, 44
2, 575744, Note_off_c, 0, 70, 64
2, 575748, Control_c, 0, 64, 0
2, 575794, Control_c, 0, 64, 127
2, 575836, Note_on_c, 0, 70, 49
2, 575862, Note_off_c, 0, 68, 64
2, 575937, Note_off_c, 0, 56, 64
2, 575942, Note_off_c, 0, 60, 64
2, 575944, Note_on_c, 0, 72, 45
2, 575945, Note_off_c, 0, 70, 64
2, 575946, Note_on_c, 0, 51, 35
2, 575958, Control_c, 0, 64, 0
2, 575981, Control_c, 0, 64, 127
2, 576017, Note_off_c, 0, 63, 64
2, 576029, Note_off_c, 0, 51, 64
2, 576147, Note_on_c, 0, 61, 33
2, 576153, Note_on_c, 0, 64, 32
2, 576154, Note_on_c, 0, 55, 28
2, 576163, Control_c, 0, 64, 0
2, 576200, Control_c, 0, 64, 127
2, 576233, Note_off_c, 0, 64, 64
2, 576243, Note_off_c, 0, 61, 64
2, 576307, Note_on_c, 0, 70, 44
2, 576314, Note_off_c, 0, 55, 64
2, 576314, Note_off_c, 0, 72, 64
2, 576350, Note_on_c, 0, 68, 40
2, 576359, Note_on_c, 0, 56, 18
2, 576360, Note_off_c, 0, 70, 64
2, 576363, Note_on_c, 0, 63, 29
2, 576366, Note_on_c, 0, 60, 23
2, 576377, Control_c, 0, 64, 0
2, 576390, Control_c, 0, 64, 127
2, 576467, Note_on_c, 0, 77, 39
2, 576523, Note_off_c, 0, 56, 64
2, 576534, Note_off_c, 0, 60, 64
2, 576562, Note_on_c, 0, 51, 28
2, 576566, Note_on_c, 0, 75, 40
2, 576576, Note_off_c, 0, 77, 64
2, 576577, Control_c, 0, 64, 0
2, 576600, Control_c, 0, 64, 127
2, 576638, Note_off_c, 0, 75, 64
2, 576638, Note_off_c, 0, 51, 64
2, 576674, Note_off_c, 0, 63, 64
2, 576684, Note_off_c, 0, 68, 64
2, 576798, Note_on_c, 0, 61, 23
2, 576804, Note_on_c, 0, 72, 45
2, 576811, Note_on_c, 0, 55, 28
2, 576815, Note_on_c, 0, 64, 22
2, 576883, Note_on_c, 0, 71, 41
2, 576890, Note_off_c, 0, 64, 64
2, 576910, Note_off_c, 0, 61, 64
2, 576926, Note_off_c, 0, 72, 64
2, 576949, Note_on_c, 0, 70, 49
2, 576972, Note_off_c, 0, 71, 64
2, 576974, Note_off_c, 0, 55, 64
2, 577031, Note_on_c, 0, 67, 42
2, 577041, Note_on_c, 0, 63, 32
2, 577047, Note_on_c, 0, 56, 23
2, 577048, Note_on_c, 0, 60, 29
2, 577050, Note_off_c, 0, 70, 64
2, 577068, Control_c, 0, 64, 0
2, 577093, Control_c, 0, 64, 127
2, 577115, Note_on_c, 0, 68, 33
2, 577132, Note_off_c, 0, 67, 64
2, 577168, Note_off_c, 0, 60, 64
2, 577192, Note_off_c, 0, 56, 64
2, 577204, Note_on_c, 0, 70, 44
2, 577220, Note_off_c, 0, 68, 64
2, 577260, Note_off_c, 0, 63, 64
2, 577297, Note_on_c, 0, 51, 28
2, 577306, Note_on_c, 0, 71, 36
2, 577320, Note_off_c, 0, 70, 64
2, 577381, Note_on_c, 0, 73, 42
2, 577390, Note_off_c, 0, 71, 64
2, 577454, Note_off_c, 0, 73, 64
2, 577518, Note_on_c, 0, 72, 44
2, 577551, Note_off_c, 0, 72, 64
2, 577591, Note_on_c, 0, 72, 52
2, 577644, Note_on_c, 0, 63, 42
2, 577650, Note_on_c, 0, 56, 29
2, 577653, Note_off_c, 0, 72, 64
2, 577653, Note_on_c, 0, 61, 24
2, 577660, Note_off_c, 0, 51, 64
2, 577692, Control_c, 0, 64, 0
2, 577840, Note_on_c, 0, 55, 31
2, 577842, Note_off_c, 0, 56, 64
2, 577856, Control_c, 0, 64, 127
2, 577901, Note_on_c, 0, 53, 28
2, 577908, Note_off_c, 0, 55, 64
2, 578038, Note_off_c, 0, 53, 64
2, 578046, Note_on_c, 0, 55, 29
2, 578138, Control_c, 0, 64, 0
2, 578205, Note_on_c, 0, 51, 28
2, 578251, Note_off_c, 0, 55, 64
2, 578355, Control_c, 0, 64, 127
2, 578426, Note_off_c, 0, 51, 64
2, 578452, Note_off_c, 0, 61, 64
2, 578472, Note_off_c, 0, 63, 64
2, 578612, Note_on_c, 0, 61, 39
2, 578618, Note_on_c, 0, 72, 52
2, 578622, Note_on_c, 0, 64, 42
2, 578628, Note_on_c, 0, 55, 29
2, 578651, Control_c, 0, 64, 0
2, 578683, Control_c, 0, 64, 127
2, 578709, Note_off_c, 0, 64, 64
2, 578724, Note_off_c, 0, 61, 64
2, 578785, Note_off_c, 0, 72, 64
2, 578786, Note_on_c, 0, 70, 28
2, 578794, Note_off_c, 0, 55, 64
2, 578834, Note_on_c, 0, 56, 42
2, 578835, Note_on_c, 0, 68, 58
2, 578844, Note_on_c, 0, 63, 44
2, 578847, Note_off_c, 0, 70, 64
2, 578853, Note_on_c, 0, 60, 29
2, 578866, Control_c, 0, 64, 0
2, 578902, Control_c, 0, 64, 127
2, 578940, Note_on_c, 0, 70, 58
2, 578966, Note_off_c, 0, 68, 64
2, 578991, Note_off_c, 0, 60, 64
2, 578995, Note_off_c, 0, 56, 64
2, 579051, Note_on_c, 0, 72, 58
2, 579051, Note_on_c, 0, 51, 37
2, 579057, Control_c, 0, 64, 0
2, 579066, Note_off_c, 0, 70, 64
2, 579071, Control_c, 0, 64, 127
2, 579125, Note_off_c, 0, 51, 64
2, 579136, Note_off_c, 0, 63, 64
2, 579252, Note_on_c, 0, 64, 44
2, 579252, Note_on_c, 0, 61, 31
2, 579252, Note_on_c, 0, 55, 44
2, 579312, Note_on_c, 0, 70, 50
2, 579319, Note_off_c, 0, 72, 64
2, 579320, Note_off_c, 0, 64, 64
2, 579322, Note_off_c, 0, 61, 64
2, 579339, Note_off_c, 0, 70, 64
2, 579344, Note_on_c, 0, 72, 48
2, 579356, Note_off_c, 0, 55, 64
2, 579385, Note_on_c, 0, 70, 59
2, 579396, Note_off_c, 0, 72, 64
2, 579430, Note_on_c, 0, 68, 57
2, 579442, Note_off_c, 0, 70, 64
2, 579452, Note_on_c, 0, 56, 44
2, 579453, Note_on_c, 0, 63, 44
2, 579460, Note_on_c, 0, 60, 42
2, 579511, Note_off_c, 0, 56, 64
2, 579512, Note_off_c, 0, 60, 64
2, 579559, Note_off_c, 0, 63, 64
2, 579593, Note_off_c, 0, 68, 64
2, 579626, Note_on_c, 0, 80, 50
2, 579685, Note_on_c, 0, 68, 52
2, 579688, Note_on_c, 0, 71, 50
2, 579689, Note_on_c, 0, 77, 62
2, 579689, Note_on_c, 0, 62, 52
2, 579710, Note_off_c, 0, 80, 64
2, 579756, Note_off_c, 0, 71, 64
2, 579779, Note_off_c, 0, 62, 64
2, 579784, Note_off_c, 0, 68, 64
2, 579951, Note_on_c, 0, 63, 48
2, 579952, Note_on_c, 0, 67, 48
2, 579954, Note_on_c, 0, 70, 63
2, 579980, Control_c, 0, 64, 0
2, 579984, Note_off_c, 0, 77, 64
2, 580016, Control_c, 0, 64, 127
2, 580075, Note_off_c, 0, 67, 64
2, 580162, Note_on_c, 0, 72, 52
2, 580176, Note_off_c, 0, 70, 64
2, 580200, Note_on_c, 0, 65, 48
2, 580200, Note_on_c, 0, 58, 58
2, 580202, Note_on_c, 0, 73, 70
2, 580215, Note_off_c, 0, 63, 64
2, 580222, Note_off_c, 0, 72, 64
2, 580236, Control_c, 0, 64, 0
2, 580259, Control_c, 0, 64, 127
2, 580405, Note_off_c, 0, 73, 64
2, 580420, Note_off_c, 0, 58, 64
2, 580441, Note_off_c, 0, 65, 64
2, 580452, Note_on_c, 0, 72, 63
2, 580452, Note_on_c, 0, 51, 45
2, 580457, Note_on_c, 0, 67, 58
2, 580457, Note_on_c, 0, 63, 52
2, 580483, Control_c, 0, 64, 0
2, 580497, Control_c, 0, 64, 127
2, 580604, Note_off_c, 0, 72, 64
2, 580616, Note_on_c, 0, 70, 36
2, 580616, Note_on_c, 0, 61, 48
2, 580618, Note_off_c, 0, 63, 64
2, 580634, Note_off_c, 0, 67, 64
2, 580642, Note_off_c, 0, 51, 64
2, 580668, Note_on_c, 0, 73, 63
2, 580670, Note_on_c, 0, 68, 70
2, 580672, Note_on_c, 0, 65, 59
2, 580677, Note_on_c, 0, 56, 44
2, 580695, Note_off_c, 0, 70, 64
2, 580697, Note_off_c, 0, 61, 64
2, 580722, Control_c, 0, 64, 0
2, 580756, Control_c, 0, 64, 127
2, 580892, Note_on_c, 0, 72, 62
2, 580892, Note_on_c, 0, 63, 52
2, 580913, Note_off_c, 0, 73, 64
2, 580915, Note_off_c, 0, 68, 64
2, 580952, Note_on_c, 0, 60, 53
2, 580954, Note_on_c, 0, 68, 65
2, 580957, Note_off_c, 0, 65, 64
2, 580979, Note_off_c, 0, 63, 64
2, 580981, Note_off_c, 0, 72, 64
2, 581004, Control_c, 0, 64, 0
2, 581088, Control_c, 0, 64, 127
2, 581234, Control_c, 0, 64, 0
2, 581280, Note_on_c, 0, 65, 72
2, 581288, Note_off_c, 0, 68, 64
2, 581295, Note_off_c, 0, 60, 64
2, 581318, Note_off_c, 0, 56, 64
2, 581355, Control_c, 0, 64, 127
2, 581515, Note_on_c, 0, 73, 58
2, 581538, Control_c, 0, 64, 0
2, 581545, Note_off_c, 0, 65, 64
2, 581553, Control_c, 0, 64, 127
2, 581595, Note_off_c, 0, 73, 64
2, 581746, Note_on_c, 0, 70, 54
2, 581750, Note_on_c, 0, 61, 50
2, 581750, Note_on_c, 0, 46, 53
2, 581752, Note_on_c, 0, 53, 29
2, 581861, Note_off_c, 0, 61, 64
2, 581872, Note_off_c, 0, 46, 64
2, 581874, Note_off_c, 0, 53, 64
2, 581930, Note_on_c, 0, 73, 49
2, 581966, Note_off_c, 0, 70, 64
2, 581970, Note_on_c, 0, 61, 53
2, 581979, Note_on_c, 0, 46, 42
2, 581983, Note_on_c, 0, 77, 57
2, 581985, Note_on_c, 0, 53, 41
2, 581988, Note_on_c, 0, 65, 58
2, 581993, Note_off_c, 0, 73, 64
2, 582011, Control_c, 0, 64, 0
2, 582052, Control_c, 0, 64, 127
2, 582074, Note_off_c, 0, 65, 64
2, 582195, Note_off_c, 0, 77, 64
2, 582199, Note_on_c, 0, 76, 54
2, 582216, Note_off_c, 0, 53, 64
2, 582227, Note_off_c, 0, 46, 64
2, 582232, Note_off_c, 0, 61, 64
2, 582356, Note_on_c, 0, 72, 48
2, 582371, Note_off_c, 0, 76, 64
2, 582392, Note_on_c, 0, 46, 49
2, 582400, Note_on_c, 0, 60, 44
2, 582401, Note_on_c, 0, 75, 62
2, 582411, Note_on_c, 0, 53, 44
2, 582411, Control_c, 0, 64, 0
2, 582422, Note_off_c, 0, 72, 64
2, 582438, Control_c, 0, 64, 127
2, 582497, Note_off_c, 0, 60, 64
2, 582506, Note_off_c, 0, 46, 64
2, 582509, Note_off_c, 0, 53, 64
2, 582542, Note_on_c, 0, 73, 55
2, 582552, Note_off_c, 0, 75, 64
2, 582610, Note_on_c, 0, 70, 57
2, 582612, Note_on_c, 0, 82, 63
2, 582618, Note_off_c, 0, 73, 64
2, 582623, Note_on_c, 0, 61, 53
2, 582623, Note_on_c, 0, 46, 36
2, 582624, Note_on_c, 0, 53, 48
2, 582659, Control_c, 0, 64, 0
2, 582703, Control_c, 0, 64, 127
2, 582756, Note_off_c, 0, 82, 64
2, 582797, Note_on_c, 0, 73, 50
2, 582807, Note_off_c, 0, 70, 64
2, 582830, Note_off_c, 0, 73, 64
2, 582830, Note_on_c, 0, 75, 52
2, 582854, Note_off_c, 0, 53, 64
2, 582862, Note_on_c, 0, 73, 55
2, 582867, Note_off_c, 0, 46, 64
2, 582870, Note_off_c, 0, 75, 64
2, 582873, Note_off_c, 0, 61, 64
2, 583062, Note_on_c, 0, 61, 53
2, 583065, Note_on_c, 0, 70, 49
2, 583065, Control_c, 0, 64, 0
2, 583073, Note_off_c, 0, 73, 64
2, 583073, Note_on_c, 0, 46, 49
2, 583076, Note_on_c, 0, 53, 41
2, 583105, Control_c, 0, 64, 127
2, 583163, Note_off_c, 0, 53, 64
2, 583164, Note_off_c, 0, 46, 64
2, 583165, Note_off_c, 0, 61, 64
2, 583174, Note_off_c, 0, 70, 64
2, 583174, Note_on_c, 0, 73, 55
2, 583272, Note_on_c, 0, 61, 55
2, 583273, Note_on_c, 0, 77, 58
2, 583278, Note_on_c, 0, 46, 50
2, 583279, Note_on_c, 0, 65, 55
2, 583284, Note_off_c, 0, 73, 64
2, 583286, Note_on_c, 0, 53, 48
2, 583312, Control_c, 0, 64, 0
2, 583345, Control_c, 0, 64, 127
2, 583413, Note_off_c, 0, 65, 64
2, 583465, Note_on_c, 0, 76, 53
2, 583495, Note_off_c, 0, 53, 64
2, 583503, Note_off_c, 0, 46, 64
2, 583518, Note_off_c, 0, 61, 64
2, 583548, Note_on_c, 0, 72, 41
2, 583567, Note_off_c, 0, 76, 64
2, 583646, Note_on_c, 0, 75, 62
2, 583656, Note_on_c, 0, 60, 49
2, 583659, Note_on_c, 0, 46, 49
2, 583662, Note_on_c, 0, 53, 49
2, 583669, Note_off_c, 0, 72, 64
2, 583672, Control_c, 0, 64, 0
2, 583685, Control_c, 0, 64, 127
2, 583727, Note_on_c, 0, 73, 63
2, 583730, Note_off_c, 0, 46, 64
2, 583733, Note_off_c, 0, 75, 64
2, 583736, Note_off_c, 0, 60, 64
2, 583740, Note_off_c, 0, 53, 64
2, 583831, Note_off_c, 0, 77, 64
2, 583836, Note_on_c, 0, 70, 62
2, 583839, Note_on_c, 0, 82, 52
2, 583844, Note_off_c, 0, 73, 64
2, 583847, Note_on_c, 0, 46, 53
2, 583854, Note_on_c, 0, 61, 58
2, 583854, Note_on_c, 0, 53, 49
2, 583877, Control_c, 0, 64, 0
2, 583911, Control_c, 0, 64, 127
2, 584014, Note_off_c, 0, 70, 64
2, 584025, Note_on_c, 0, 76, 55
2, 584065, Note_off_c, 0, 53, 64
2, 584065, Note_off_c, 0, 61, 64
2, 584076, Note_off_c, 0, 46, 64
2, 584100, Note_off_c, 0, 76, 64
2, 584107, Note_on_c, 0, 72, 58
2, 584199, Note_on_c, 0, 75, 57
2, 584212, Note_on_c, 0, 46, 48
2, 584214, Note_on_c, 0, 60, 54
2, 584217, Note_on_c, 0, 53, 50
2, 584224, Note_off_c, 0, 72, 64
2, 584231, Control_c, 0, 64, 0
2, 584244, Control_c, 0, 64, 127
2, 584281, Note_on_c, 0, 73, 62
2, 584283, Note_off_c, 0, 60, 64
2, 584292, Note_off_c, 0, 53, 64
2, 584292, Note_off_c, 0, 46, 64
2, 584292, Note_off_c, 0, 75, 64
2, 584358, Note_off_c, 0, 82, 64
2, 584387, Note_on_c, 0, 82, 59
2, 584389, Note_off_c, 0, 73, 64
2, 584389, Note_on_c, 0, 70, 61
2, 584395, Note_on_c, 0, 61, 58
2, 584400, Note_on_c, 0, 53, 49
2, 584400, Note_on_c, 0, 46, 42
2, 584431, Control_c, 0, 64, 0
2, 584453, Control_c, 0, 64, 127
2, 584596, Note_off_c, 0, 70, 64
2, 584603, Note_on_c, 0, 76, 55
2, 584650, Note_off_c, 0, 46, 64
2, 584653, Note_off_c, 0, 61, 64
2, 584653, Note_off_c, 0, 53, 64
2, 584695, Note_off_c, 0, 76, 64
2, 584706, Note_on_c, 0, 72, 53
2, 584820, Note_on_c, 0, 75, 53
2, 584821, Note_on_c, 0, 60, 48
2, 584823, Note_on_c, 0, 46, 49
2, 584827, Note_on_c, 0, 53, 44
2, 584842, Note_off_c, 0, 72, 64
2, 584849, Control_c, 0, 64, 0
2, 584872, Control_c, 0, 64, 127
2, 584941, Note_on_c, 0, 73, 62
2, 584947, Note_off_c, 0, 75, 64
2, 584950, Note_off_c, 0, 46, 64
2, 584950, Note_off_c, 0, 60, 64
2, 584961, Note_off_c, 0, 53, 64
2, 585105, Note_off_c, 0, 82, 64
2, 585120, Note_on_c, 0, 70, 61
2, 585120, Note_on_c, 0, 61, 42
2, 585120, Note_on_c, 0, 46, 42
2, 585128, Note_on_c, 0, 82, 72
2, 585131, Note_on_c, 0, 53, 36
2, 585137, Note_off_c, 0, 73, 64
2, 585186, Control_c, 0, 64, 0
2, 585219, Control_c, 0, 64, 127
2, 585399, Note_off_c, 0, 53, 64
2, 585423, Note_off_c, 0, 46, 64
2, 585445, Note_on_c, 0, 73, 58
2, 585454, Note_off_c, 0, 82, 64
2, 585461, Note_off_c, 0, 70, 64
2, 585465, Note_off_c, 0, 61, 64
2, 585719, Note_on_c, 0, 64, 32
2, 585723, Note_on_c, 0, 55, 29
2, 585726, Note_on_c, 0, 58, 24
2, 585763, Control_c, 0, 64, 0
2, 585774, Control_c, 0, 64, 127
2, 585871, Note_off_c, 0, 58, 64
2, 585873, Note_off_c, 0, 64, 64
2, 585884, Note_off_c, 0, 55, 64
2, 586001, Note_on_c, 0, 56, 35
2, 586002, Note_on_c, 0, 71, 52
2, 586009, Note_on_c, 0, 64, 33
2, 586014, Note_on_c, 0, 59, 29
2, 586015, Note_off_c, 0, 73, 64
2, 586181, Note_off_c, 0, 56, 64
2, 586197, Note_off_c, 0, 59, 64
2, 586210, Note_off_c, 0, 64, 64
2, 586309, Note_on_c, 0, 73, 45
2, 586318, Note_on_c, 0, 55, 23
2, 586325, Note_on_c, 0, 64, 22
2, 586332, Note_on_c, 0, 58, 32
2, 586339, Note_off_c, 0, 71, 64
2, 586387, Control_c, 0, 64, 0
2, 586400, Control_c, 0, 64, 127
2, 586542, Note_off_c, 0, 64, 64
2, 586574, Note_off_c, 0, 58, 64
2, 586583, Note_off_c, 0, 55, 64
2, 586650, Note_on_c, 0, 71, 36
2, 586656, Note_on_c, 0, 64, 28
2, 586659, Note_on_c, 0, 56, 22
2, 586663, Note_off_c, 0, 73, 64
2, 586666, Note_on_c, 0, 59, 28
2, 586712, Control_c, 0, 64, 0
2, 586734, Control_c, 0, 64, 127
2, 586914, Note_off_c, 0, 59, 64
2, 586951, Note_off_c, 0, 56, 64
2, 586958, Note_off_c, 0, 64, 64
2, 587095, Note_on_c, 0, 70, 36
2, 587105, Note_on_c, 0, 61, 18
2, 587105, Note_on_c, 0, 55, 22
2, 587110, Note_on_c, 0, 64, 18
2, 587134, Note_off_c, 0, 71, 64
2, 587183, Control_c, 0, 64, 0
2, 587223, Control_c, 0, 64, 127
2, 587532, Note_on_c, 0, 72, 40
2, 587546, Note_off_c, 0, 70, 64
2, 587592, Note_off_c, 0, 64, 64
2, 587598, Note_off_c, 0, 61, 64
2, 587611, Note_off_c, 0, 55, 64
2, 587785, Note_on_c, 0, 70, 37
2, 587801, Note_off_c, 0, 72, 64
2, 587830, Note_on_c, 0, 63, 33
2, 587830, Note_on_c, 0, 56, 27
2, 587835, Note_on_c, 0, 68, 45
2, 587840, Note_on_c, 0, 60, 32
2, 587851, Note_off_c, 0, 70, 64
2, 587972, Note_on_c, 0, 70, 27
2, 588010, Note_off_c, 0, 68, 64
2, 588012, Note_off_c, 0, 56, 64
2, 588059, Note_off_c, 0, 60, 64
2, 588060, Note_on_c, 0, 72, 48
2, 588070, Note_on_c, 0, 51, 23
2, 588076, Note_off_c, 0, 70, 64
2, 588133, Note_off_c, 0, 63, 64
2, 588154, Note_off_c, 0, 51, 64
2, 588266, Note_on_c, 0, 61, 28
2, 588275, Note_on_c, 0, 64, 31
2, 588275, Note_on_c, 0, 55, 27
2, 588349, Note_off_c, 0, 64, 64
2, 588364, Note_off_c, 0, 61, 64
2, 588403, Note_off_c, 0, 55, 64
2, 588436, Note_on_c, 0, 70, 36
2, 588448, Note_off_c, 0, 72, 64
2, 588478, Note_on_c, 0, 63, 40
2, 588480, Note_on_c, 0, 68, 41
2, 588480, Note_on_c, 0, 56, 22
2, 588494, Note_off_c, 0, 70, 64
2, 588498, Note_on_c, 0, 60, 23
2, 588509, Control_c, 0, 64, 0
2, 588531, Control_c, 0, 64, 127
2, 588640, Note_off_c, 0, 60, 64
2, 588648, Note_on_c, 0, 77, 41
2, 588649, Note_off_c, 0, 56, 64
2, 588673, Note_off_c, 0, 68, 64
2, 588684, Note_on_c, 0, 51, 28
2, 588695, Note_on_c, 0, 75, 40
2, 588705, Note_off_c, 0, 77, 64
2, 588767, Note_off_c, 0, 75, 64
2, 588774, Note_off_c, 0, 51, 64
2, 588792, Note_off_c, 0, 63, 64
2, 588924, Note_on_c, 0, 64, 22
2, 588924, Note_on_c, 0, 55, 32
2, 588925, Note_on_c, 0, 72, 44
2, 588925, Note_on_c, 0, 61, 27
2, 589024, Note_off_c, 0, 64, 64
2, 589067, Note_off_c, 0, 61, 64
2, 589118, Note_off_c, 0, 55, 64
2, 589120, Note_on_c, 0, 70, 35
2, 589142, Note_off_c, 0, 72, 64
2, 589200, Note_on_c, 0, 63, 36
2, 589200, Note_on_c, 0, 60, 22
2, 589200, Note_on_c, 0, 56, 24
2, 589204, Note_on_c, 0, 68, 40
2, 589227, Note_off_c, 0, 70, 64
2, 589327, Note_on_c, 0, 70, 42
2, 589334, Note_off_c, 0, 60, 64
2, 589357, Note_off_c, 0, 68, 64
2, 589384, Note_off_c, 0, 56, 64
2, 589440, Note_on_c, 0, 71, 35
2, 589441, Note_on_c, 0, 51, 29
2, 589452, Note_off_c, 0, 70, 64
2, 589479, Note_off_c, 0, 63, 64
2, 589552, Note_on_c, 0, 73, 36
2, 589559, Note_off_c, 0, 71, 64
2, 589651, Note_off_c, 0, 73, 64
2, 589676, Note_on_c, 0, 72, 36
2, 589719, Note_off_c, 0, 72, 64
2, 589748, Note_on_c, 0, 72, 50
2, 589771, Note_on_c, 0, 61, 23
2, 589771, Note_on_c, 0, 56, 29
2, 589787, Note_on_c, 0, 63, 45
2, 589800, Note_off_c, 0, 72, 64
2, 589811, Note_off_c, 0, 51, 64
2, 589815, Control_c, 0, 64, 0
2, 589869, Control_c, 0, 64, 127
2, 589975, Note_on_c, 0, 55, 37
2, 589989, Note_off_c, 0, 56, 64
2, 590036, Note_on_c, 0, 53, 36
2, 590043, Control_c, 0, 64, 0
2, 590070, Note_off_c, 0, 55, 64
2, 590175, Note_on_c, 0, 55, 29
2, 590190, Note_off_c, 0, 53, 64
2, 590319, Note_on_c, 0, 51, 31
2, 590330, Note_off_c, 0, 55, 64
2, 590391, Control_c, 0, 64, 127
2, 590481, Note_off_c, 0, 51, 64
2, 590505, Note_off_c, 0, 61, 64
2, 590512, Note_off_c, 0, 63, 64
2, 590672, Note_on_c, 0, 61, 29
2, 590678, Note_on_c, 0, 72, 44
2, 590681, Note_on_c, 0, 55, 32
2, 590688, Note_on_c, 0, 64, 27
2, 590710, Control_c, 0, 64, 0
2, 590733, Control_c, 0, 64, 127
2, 590779, Note_off_c, 0, 64, 64
2, 590786, Note_off_c, 0, 61, 64
2, 590851, Note_off_c, 0, 55, 64
2, 590861, Note_on_c, 0, 70, 23
2, 590862, Note_off_c, 0, 72, 64
2, 590898, Note_on_c, 0, 56, 24
2, 590905, Note_on_c, 0, 68, 42
2, 590908, Note_on_c, 0, 63, 40
2, 590918, Note_off_c, 0, 70, 64
2, 590923, Note_on_c, 0, 60, 32
2, 590933, Control_c, 0, 64, 0
2, 590975, Control_c, 0, 64, 127
2, 591015, Note_on_c, 0, 70, 36
2, 591036, Note_off_c, 0, 68, 64
2, 591074, Note_off_c, 0, 60, 64
2, 591088, Note_off_c, 0, 56, 64
2, 591116, Note_on_c, 0, 72, 44
2, 591128, Note_on_c, 0, 51, 22
2, 591139, Note_off_c, 0, 70, 64
2, 591139, Control_c, 0, 64, 0
2, 591150, Control_c, 0, 64, 127
2, 591192, Note_off_c, 0, 63, 64
2, 591202, Note_off_c, 0, 51, 64
2, 591314, Note_on_c, 0, 64, 31
2, 591314, Note_on_c, 0, 61, 36
2, 591320, Note_on_c, 0, 55, 28
2, 591345, Control_c, 0, 64, 0
2, 591356, Control_c, 0, 64, 127
2, 591405, Note_off_c, 0, 64, 64
2, 591412, Note_off_c, 0, 61, 64
2, 591470, Note_off_c, 0, 55, 64
2, 591473, Note_on_c, 0, 70, 44
2, 591481, Note_off_c, 0, 72, 64
2, 591519, Note_on_c, 0, 56, 33
2, 591523, Note_on_c, 0, 63, 36
2, 591528, Note_on_c, 0, 68, 36
2, 591528, Note_on_c, 0, 60, 36
2, 591553, Note_off_c, 0, 70, 64
2, 591610, Note_off_c, 0, 60, 64
2, 591640, Note_on_c, 0, 79, 41
2, 591659, Note_off_c, 0, 68, 64
2, 591729, Note_on_c, 0, 77, 44
2, 591736, Note_off_c, 0, 79, 64
2, 591739, Note_on_c, 0, 59, 41
2, 591758, Control_c, 0, 64, 0
2, 591782, Note_off_c, 0, 56, 64
2, 591782, Control_c, 0, 64, 127
2, 591841, Note_off_c, 0, 59, 64
2, 591941, Note_off_c, 0, 77, 64
2, 591944, Note_on_c, 0, 70, 44
2, 591954, Note_on_c, 0, 67, 36
2, 591957, Note_on_c, 0, 51, 32
2, 591967, Note_on_c, 0, 58, 20
2, 591980, Control_c, 0, 64, 0
2, 592019, Control_c, 0, 64, 127
2, 592068, Note_off_c, 0, 67, 64
2, 592070, Note_off_c, 0, 58, 64
2, 592098, Note_off_c, 0, 63, 64
2, 592173, Note_on_c, 0, 68, 49
2, 592177, Note_on_c, 0, 59, 36
2, 592178, Note_on_c, 0, 62, 27
2, 592184, Note_off_c, 0, 51, 64
2, 592187, Note_off_c, 0, 70, 64
2, 592191, Control_c, 0, 64, 0
2, 592213, Control_c, 0, 64, 127
2, 592358, Note_on_c, 0, 79, 33
2, 592404, Note_on_c, 0, 51, 33
2, 592407, Note_on_c, 0, 77, 44
2, 592416, Note_off_c, 0, 79, 64
2, 592432, Note_off_c, 0, 59, 64
2, 592436, Control_c, 0, 64, 0
2, 592462, Control_c, 0, 64, 127
2, 592495, Note_off_c, 0, 62, 64
2, 592600, Note_off_c, 0, 68, 64
2, 592667, Note_on_c, 0, 68, 44
2, 592673, Note_on_c, 0, 59, 32
2, 592674, Note_off_c, 0, 51, 64
2, 592677, Note_off_c, 0, 77, 64
2, 592677, Note_on_c, 0, 62, 28
2, 592713, Control_c, 0, 64, 0
2, 592749, Control_c, 0, 64, 127
2, 592924, Note_on_c, 0, 79, 23
2, 592969, Note_on_c, 0, 51, 31
2, 592970, Note_on_c, 0, 77, 40
2, 592990, Note_off_c, 0, 79, 64
2, 593005, Control_c, 0, 64, 0
2, 593025, Note_off_c, 0, 59, 64
2, 593029, Control_c, 0, 64, 127
2, 593072, Note_off_c, 0, 62, 64
2, 593349, Note_off_c, 0, 77, 64
2, 593355, Note_off_c, 0, 68, 64
2, 593355, Note_on_c, 0, 63, 19
2, 593356, Note_on_c, 0, 70, 39
2, 593356, Note_on_c, 0, 58, 22
2, 593366, Note_on_c, 0, 67, 20
2, 593420, Control_c, 0, 64, 0
2, 593441, Control_c, 0, 64, 127
2, 593528, Note_off_c, 0, 51, 64
2, 593569, Note_off_c, 0, 58, 64
2, 593569, Note_off_c, 0, 63, 64
2, 593597, Note_off_c, 0, 70, 64
2, 593664, Note_off_c, 0, 67, 64
2, 593748, Note_on_c, 0, 72, 29
2, 593757, Note_on_c, 0, 61, 27
2, 593767, Note_on_c, 0, 64, 23
2, 593767, Note_on_c, 0, 55, 22
2, 593809, Control_c, 0, 64, 0
2, 593833, Control_c, 0, 64, 127
2, 593885, Note_off_c, 0, 64, 64
2, 593887, Note_off_c, 0, 61, 64
2, 593932, Note_on_c, 0, 70, 20
2, 593951, Note_off_c, 0, 72, 64
2, 593965, Note_off_c, 0, 55, 64
2, 593984, Note_on_c, 0, 68, 36
2, 593988, Note_on_c, 0, 56, 23
2, 593997, Note_off_c, 0, 70, 64
2, 594000, Note_on_c, 0, 63, 19
2, 594017, Note_on_c, 0, 60, 14
2, 594035, Control_c, 0, 64, 0
2, 594049, Control_c, 0, 64, 127
2, 594100, Note_on_c, 0, 70, 41
2, 594127, Note_off_c, 0, 68, 64
2, 594171, Note_off_c, 0, 60, 64
2, 594190, Note_off_c, 0, 56, 64
2, 594196, Note_on_c, 0, 72, 36
2, 594204, Note_off_c, 0, 70, 64
2, 594209, Note_on_c, 0, 51, 33
2, 594213, Control_c, 0, 64, 0
2, 594248, Control_c, 0, 64, 127
2, 594292, Note_off_c, 0, 51, 64
2, 594294, Note_off_c, 0, 63, 64
2, 594406, Note_on_c, 0, 61, 22
2, 594409, Note_on_c, 0, 64, 24
2, 594413, Note_on_c, 0, 55, 19
2, 594432, Control_c, 0, 64, 0
2, 594446, Control_c, 0, 64, 127
2, 594490, Note_off_c, 0, 64, 64
2, 594503, Note_off_c, 0, 61, 64
2, 594550, Note_on_c, 0, 70, 36
2, 594557, Note_off_c, 0, 72, 64
2, 594580, Note_off_c, 0, 55, 64
2, 594592, Note_on_c, 0, 60, 24
2, 594598, Note_on_c, 0, 68, 33
2, 594600, Note_on_c, 0, 63, 29
2, 594600, Note_on_c, 0, 56, 23
2, 594614, Note_off_c, 0, 70, 64
2, 594723, Note_off_c, 0, 60, 64
2, 594724, Note_on_c, 0, 77, 35
2, 594729, Note_off_c, 0, 56, 64
2, 594774, Note_off_c, 0, 68, 64
2, 594815, Note_on_c, 0, 75, 29
2, 594820, Note_off_c, 0, 77, 64
2, 594829, Note_on_c, 0, 51, 28
2, 594904, Note_off_c, 0, 75, 64
2, 594919, Note_off_c, 0, 51, 64
2, 594932, Note_off_c, 0, 63, 64
2, 595089, Note_on_c, 0, 55, 18
2, 595094, Note_on_c, 0, 61, 16
2, 595103, Note_on_c, 0, 72, 35
2, 595103, Note_on_c, 0, 64, 16
2, 595142, Control_c, 0, 64, 0
2, 595156, Control_c, 0, 64, 127
2, 595212, Note_on_c, 0, 71, 28
2, 595240, Note_off_c, 0, 64, 64
2, 595240, Note_off_c, 0, 72, 64
2, 595256, Note_off_c, 0, 61, 64
2, 595283, Note_on_c, 0, 70, 27
2, 595299, Note_off_c, 0, 71, 64
2, 595335, Note_off_c, 0, 55, 64
2, 595369, Note_on_c, 0, 67, 36
2, 595376, Note_on_c, 0, 60, 14
2, 595380, Note_on_c, 0, 56, 1
2, 595382, Note_on_c, 0, 63, 24
2, 595391, Note_off_c, 0, 70, 64
2, 595430, Control_c, 0, 64, 0
2, 595443, Control_c, 0, 64, 127
2, 595457, Note_on_c, 0, 68, 39
2, 595485, Note_off_c, 0, 67, 64
2, 595518, Note_off_c, 0, 60, 64
2, 595548, Note_on_c, 0, 70, 36
2, 595565, Note_off_c, 0, 68, 64
2, 595617, Note_off_c, 0, 56, 64
2, 595655, Note_on_c, 0, 71, 35
2, 595655, Note_on_c, 0, 51, 26
2, 595664, Note_off_c, 0, 70, 64
2, 595686, Control_c, 0, 64, 0
2, 595699, Note_off_c, 0, 63, 64
2, 595714, Control_c, 0, 64, 127
2, 595738, Note_on_c, 0, 73, 35
2, 595760, Note_off_c, 0, 71, 64
2, 595824, Note_off_c, 0, 73, 64
2, 595884, Note_on_c, 0, 72, 36
2, 595917, Note_off_c, 0, 72, 64
2, 595943, Note_on_c, 0, 72, 42
2, 595980, Note_on_c, 0, 63, 37
2, 595980, Note_on_c, 0, 56, 27
2, 595989, Note_off_c, 0, 72, 64
2, 595989, Note_on_c, 0, 61, 23
2, 596009, Note_off_c, 0, 51, 64
2, 596035, Control_c, 0, 64, 0
2, 596120, Control_c, 0, 64, 127
2, 596163, Note_on_c, 0, 55, 27
2, 596167, Note_off_c, 0, 56, 64
2, 596223, Note_on_c, 0, 53, 28
2, 596229, Note_off_c, 0, 55, 64
2, 596341, Control_c, 0, 64, 0
2, 596349, Note_off_c, 0, 53, 64
2, 596363, Note_on_c, 0, 55, 28
2, 596523, Note_on_c, 0, 51, 18
2, 596601, Note_off_c, 0, 55, 64
2, 596605, Control_c, 0, 64, 127
2, 596706, Note_off_c, 0, 51, 64
2, 596729, Note_off_c, 0, 61, 64
2, 596743, Note_off_c, 0, 63, 64
2, 596903, Note_on_c, 0, 61, 31
2, 596910, Note_on_c, 0, 72, 48
2, 596916, Note_on_c, 0, 64, 24
2, 596916, Note_on_c, 0, 55, 36
2, 596940, Control_c, 0, 64, 0
2, 596963, Control_c, 0, 64, 127
2, 597010, Note_off_c, 0, 61, 64
2, 597015, Note_off_c, 0, 64, 64
2, 597060, Note_off_c, 0, 55, 64
2, 597076, Note_on_c, 0, 70, 44
2, 597084, Note_off_c, 0, 72, 64
2, 597131, Note_on_c, 0, 56, 20
2, 597136, Note_on_c, 0, 68, 39
2, 597136, Note_on_c, 0, 63, 31
2, 597145, Note_on_c, 0, 60, 29
2, 597148, Note_off_c, 0, 70, 64
2, 597154, Control_c, 0, 64, 0
2, 597197, Control_c, 0, 64, 127
2, 597247, Note_on_c, 0, 70, 29
2, 597272, Note_off_c, 0, 68, 64
2, 597286, Note_off_c, 0, 56, 64
2, 597290, Note_off_c, 0, 60, 64
2, 597349, Note_on_c, 0, 72, 45
2, 597357, Note_on_c, 0, 51, 29
2, 597364, Note_off_c, 0, 70, 64
2, 597368, Control_c, 0, 64, 0
2, 597378, Control_c, 0, 64, 127
2, 597423, Note_off_c, 0, 51, 64
2, 597433, Note_off_c, 0, 63, 64
2, 597565, Note_on_c, 0, 64, 28
2, 597568, Note_on_c, 0, 61, 22
2, 597581, Note_on_c, 0, 55, 22
2, 597636, Note_on_c, 0, 70, 45
2, 597642, Note_off_c, 0, 64, 64
2, 597643, Note_off_c, 0, 61, 64
2, 597653, Note_off_c, 0, 72, 64
2, 597672, Note_off_c, 0, 55, 64
2, 597673, Note_off_c, 0, 70, 64
2, 597679, Note_on_c, 0, 72, 44
2, 597718, Note_on_c, 0, 70, 53
2, 597728, Note_off_c, 0, 72, 64
2, 597766, Note_on_c, 0, 68, 53
2, 597771, Note_off_c, 0, 70, 64
2, 597774, Note_on_c, 0, 56, 29
2, 597776, Note_on_c, 0, 63, 42
2, 597776, Note_on_c, 0, 60, 44
2, 597777, Control_c, 0, 64, 0
2, 597802, Control_c, 0, 64, 127
2, 597816, Note_off_c, 0, 60, 64
2, 597816, Note_off_c, 0, 56, 64
2, 597833, Note_off_c, 0, 68, 64
2, 597839, Note_off_c, 0, 63, 64
2, 597954, Note_on_c, 0, 80, 44
2, 598010, Note_on_c, 0, 62, 42
2, 598013, Note_on_c, 0, 68, 44
2, 598020, Note_on_c, 0, 71, 39
2, 598022, Note_on_c, 0, 77, 45
2, 598022, Control_c, 0, 64, 0
2, 598034, Note_off_c, 0, 80, 64
2, 598048, Control_c, 0, 64, 127
2, 598103, Note_off_c, 0, 77, 64
2, 598117, Note_off_c, 0, 71, 64
2, 598151, Note_off_c, 0, 62, 64
2, 598152, Note_off_c, 0, 68, 64
2, 598264, Note_on_c, 0, 67, 28
2, 598267, Note_on_c, 0, 70, 52
2, 598271, Note_on_c, 0, 63, 39
2, 598281, Control_c, 0, 64, 0
2, 598303, Control_c, 0, 64, 127
2, 598339, Note_off_c, 0, 67, 64
2, 598455, Note_off_c, 0, 63, 64
2, 598474, Note_on_c, 0, 72, 37
2, 598482, Note_off_c, 0, 70, 64
2, 598520, Note_on_c, 0, 73, 54
2, 598520, Note_on_c, 0, 58, 45
2, 598522, Note_on_c, 0, 65, 39
2, 598536, Note_off_c, 0, 72, 64
2, 598543, Control_c, 0, 64, 0
2, 598558, Control_c, 0, 64, 127
2, 598709, Note_off_c, 0, 58, 64
2, 598717, Note_off_c, 0, 73, 64
2, 598728, Note_off_c, 0, 65, 64
2, 598768, Note_on_c, 0, 51, 22
2, 598772, Note_on_c, 0, 72, 48
2, 598776, Note_on_c, 0, 63, 42
2, 598778, Note_on_c, 0, 67, 44
2, 598949, Note_off_c, 0, 72, 64
2, 598959, Note_on_c, 0, 70, 33
2, 598960, Note_on_c, 0, 61, 45
2, 598972, Note_off_c, 0, 63, 64
2, 599003, Note_off_c, 0, 67, 64
2, 599009, Note_off_c, 0, 51, 64
2, 599020, Note_on_c, 0, 73, 53
2, 599034, Note_on_c, 0, 56, 22
2, 599041, Note_on_c, 0, 65, 44
2, 599048, Note_off_c, 0, 61, 64
2, 599049, Note_off_c, 0, 70, 64
2, 599090, Control_c, 0, 64, 0
2, 599122, Control_c, 0, 64, 127
2, 599272, Note_off_c, 0, 73, 64
2, 599276, Note_on_c, 0, 72, 48
2, 599289, Note_on_c, 0, 63, 29
2, 599328, Note_off_c, 0, 65, 64
2, 599328, Note_on_c, 0, 60, 29
2, 599337, Note_on_c, 0, 68, 44
2, 599358, Note_off_c, 0, 72, 64
2, 599376, Note_off_c, 0, 63, 64
2, 599381, Control_c, 0, 64, 0
2, 599446, Control_c, 0, 64, 127
2, 599568, Note_off_c, 0, 68, 64
2, 599568, Note_off_c, 0, 56, 64
2, 599602, Note_off_c, 0, 60, 64
2, 599628, Note_on_c, 0, 59, 39
2, 599631, Control_c, 0, 64, 0
2, 599667, Control_c, 0, 64, 127
2, 599879, Note_off_c, 0, 59, 64
2, 599944, Note_on_c, 0, 47, 32
2, 600100, Note_off_c, 0, 47, 64
2, 600123, Note_on_c, 0, 69, 31
2, 600180, Note_on_c, 0, 66, 33
2, 600182, Note_off_c, 0, 69, 64
2, 600187, Note_on_c, 0, 51, 19
2, 600187, Note_on_c, 0, 47, 24
2, 600192, Note_on_c, 0, 57, 22
2, 600224, Control_c, 0, 64, 0
2, 600237, Control_c, 0, 64, 127
2, 600295, Note_off_c, 0, 47, 64
2, 600295, Note_off_c, 0, 51, 64
2, 600301, Note_off_c, 0, 57, 64
2, 600414, Note_on_c, 0, 57, 22
2, 600429, Note_on_c, 0, 51, 14
2, 600430, Note_on_c, 0, 47, 15
2, 600528, Note_off_c, 0, 51, 64
2, 600546, Note_off_c, 0, 47, 64
2, 600547, Note_on_c, 0, 71, 44
2, 600555, Note_off_c, 0, 57, 64
2, 600578, Note_off_c, 0, 66, 64
2, 600639, Note_on_c, 0, 68, 44
2, 600648, Note_on_c, 0, 40, 32
2, 600655, Control_c, 0, 64, 0
2, 600660, Note_off_c, 0, 71, 64
2, 600678, Control_c, 0, 64, 127
2, 600799, Note_on_c, 0, 59, 32
2, 600807, Note_off_c, 0, 68, 64
2, 600849, Note_on_c, 0, 56, 33
2, 600856, Note_on_c, 0, 64, 49
2, 600865, Note_off_c, 0, 59, 64
2, 600871, Note_on_c, 0, 52, 20
2, 600983, Note_off_c, 0, 52, 64
2, 600990, Note_off_c, 0, 56, 64
2, 601056, Note_on_c, 0, 68, 49
2, 601064, Note_off_c, 0, 64, 64
2, 601065, Note_on_c, 0, 59, 28
2, 601068, Note_on_c, 0, 52, 22
2, 601072, Note_on_c, 0, 56, 28
2, 601174, Note_off_c, 0, 40, 64
2, 601215, Note_off_c, 0, 52, 64
2, 601268, Note_off_c, 0, 68, 64
2, 601274, Note_on_c, 0, 51, 29
2, 601277, Note_on_c, 0, 71, 46
2, 601287, Control_c, 0, 64, 0
2, 601319, Control_c, 0, 64, 127
2, 601323, Note_off_c, 0, 59, 64
2, 601343, Note_off_c, 0, 56, 64
2, 601422, Note_off_c, 0, 51, 64
2, 601427, Note_off_c, 0, 71, 64
2, 601430, Note_on_c, 0, 73, 29
2, 601480, Note_on_c, 0, 70, 61
2, 601480, Note_on_c, 0, 63, 22
2, 601480, Note_on_c, 0, 55, 32
2, 601484, Note_on_c, 0, 51, 27
2, 601494, Control_c, 0, 64, 0
2, 601500, Note_off_c, 0, 73, 64
2, 601517, Control_c, 0, 64, 127
2, 601623, Note_off_c, 0, 55, 64
2, 601625, Note_off_c, 0, 51, 64
2, 601632, Note_off_c, 0, 63, 64
2, 601677, Note_on_c, 0, 61, 32
2, 601680, Note_on_c, 0, 51, 26
2, 601687, Note_on_c, 0, 55, 22
2, 601766, Note_on_c, 0, 75, 52
2, 601778, Note_off_c, 0, 70, 64
2, 601803, Note_off_c, 0, 55, 64
2, 601813, Note_off_c, 0, 61, 64
2, 601858, Note_off_c, 0, 51, 64
2, 601863, Note_on_c, 0, 44, 36
2, 601883, Note_on_c, 0, 71, 55
2, 601887, Control_c, 0, 64, 0
2, 601888, Note_off_c, 0, 75, 64
2, 601912, Control_c, 0, 64, 127
2, 601964, Note_off_c, 0, 71, 64
2, 602013, Note_on_c, 0, 63, 40
2, 602057, Note_on_c, 0, 56, 19
2, 602063, Note_on_c, 0, 59, 36
2, 602068, Note_on_c, 0, 68, 52
2, 602077, Note_off_c, 0, 63, 64
2, 602077, Control_c, 0, 64, 0
2, 602103, Control_c, 0, 64, 127
2, 602193, Note_off_c, 0, 56, 64
2, 602219, Note_off_c, 0, 59, 64
2, 602232, Note_off_c, 0, 68, 64
2, 602249, Note_on_c, 0, 56, 36
2, 602253, Note_on_c, 0, 71, 57
2, 602253, Note_on_c, 0, 63, 29
2, 602257, Note_on_c, 0, 59, 36
2, 602268, Control_c, 0, 64, 0
2, 602280, Control_c, 0, 64, 127
2, 602340, Note_off_c, 0, 71, 64
2, 602382, Note_off_c, 0, 56, 64
2, 602402, Note_off_c, 0, 59, 64
2, 602403, Note_off_c, 0, 44, 64
2, 602407, Note_off_c, 0, 63, 64
2, 602430, Note_on_c, 0, 75, 63
2, 602580, Note_on_c, 0, 76, 41
2, 602595, Note_off_c, 0, 75, 64
2, 602636, Note_on_c, 0, 59, 28
2, 602640, Note_on_c, 0, 64, 33
2, 602640, Note_on_c, 0, 55, 32
2, 602643, Note_on_c, 0, 73, 44
2, 602666, Note_off_c, 0, 76, 64
2, 602762, Note_off_c, 0, 55, 64
2, 602768, Note_off_c, 0, 59, 64
2, 602783, Note_off_c, 0, 64, 64
2, 602808, Note_on_c, 0, 58, 32
2, 602810, Note_on_c, 0, 54, 32
2, 602824, Note_on_c, 0, 64, 39
2, 602897, Note_on_c, 0, 78, 57
2, 602900, Note_off_c, 0, 73, 64
2, 602928, Note_off_c, 0, 58, 64
2, 602940, Note_off_c, 0, 64, 64
2, 602953, Note_off_c, 0, 54, 64
2, 602965, Control_c, 0, 64, 0
2, 602991, Note_on_c, 0, 75, 54
2, 602998, Note_off_c, 0, 78, 64
2, 603003, Note_on_c, 0, 47, 36
2, 603016, Control_c, 0, 64, 0
2, 603039, Control_c, 0, 64, 127
2, 603057, Control_c, 0, 64, 0
2, 603080, Note_on_c, 0, 71, 52
2, 603126, Note_off_c, 0, 75, 64
2, 603168, Note_on_c, 0, 69, 54
2, 603178, Note_on_c, 0, 69, 54
2, 603178, Note_on_c, 0, 63, 33
2, 603183, Note_on_c, 0, 54, 32
2, 603188, Note_on_c, 0, 57, 29
2, 603190, Note_off_c, 0, 71, 64
2, 603209, Control_c, 0, 64, 0
2, 603222, Control_c, 0, 64, 127
2, 603240, Note_off_c, 0, 69, 64
2, 603274, Note_off_c, 0, 54, 64
2, 603278, Note_off_c, 0, 57, 64
2, 603303, Note_off_c, 0, 63, 64
2, 603372, Note_on_c, 0, 57, 28
2, 603376, Note_on_c, 0, 63, 32
2, 603376, Note_on_c, 0, 54, 23
2, 603443, Note_on_c, 0, 73, 42
2, 603462, Note_off_c, 0, 57, 64
2, 603467, Note_off_c, 0, 63, 64
2, 603482, Note_off_c, 0, 54, 64
2, 603525, Note_off_c, 0, 69, 64
2, 603543, Note_on_c, 0, 47, 36
2, 603544, Note_off_c, 0, 47, 64
2, 603551, Note_on_c, 0, 71, 48
2, 603563, Note_off_c, 0, 73, 64
2, 603565, Control_c, 0, 64, 0
2, 603578, Control_c, 0, 64, 127
2, 603618, Note_on_c, 0, 68, 50
2, 603625, Note_off_c, 0, 47, 64
2, 603633, Note_off_c, 0, 71, 64
2, 603699, Note_on_c, 0, 66, 27
2, 603712, Note_off_c, 0, 68, 64
2, 603712, Note_on_c, 0, 54, 35
2, 603717, Note_on_c, 0, 57, 35
2, 603731, Note_on_c, 0, 63, 36
2, 603785, Note_on_c, 0, 69, 37
2, 603793, Note_off_c, 0, 66, 64
2, 603837, Note_off_c, 0, 54, 64
2, 603838, Note_off_c, 0, 57, 64
2, 603868, Note_off_c, 0, 63, 64
2, 603876, Note_on_c, 0, 75, 44
2, 603880, Note_on_c, 0, 54, 16
2, 603888, Note_off_c, 0, 69, 64
2, 603888, Note_on_c, 0, 57, 32
2, 603889, Note_on_c, 0, 63, 26
2, 603958, Note_off_c, 0, 75, 64
2, 603960, Note_on_c, 0, 71, 49
2, 604051, Note_off_c, 0, 63, 64
2, 604051, Note_off_c, 0, 54, 64
2, 604055, Note_on_c, 0, 47, 26
2, 604056, Note_off_c, 0, 57, 64
2, 604057, Note_on_c, 0, 69, 48
2, 604059, Note_off_c, 0, 71, 64
2, 604140, Note_on_c, 0, 73, 48
2, 604156, Note_off_c, 0, 69, 64
2, 604224, Note_on_c, 0, 63, 33
2, 604225, Note_off_c, 0, 73, 64
2, 604229, Note_on_c, 0, 54, 27
2, 604234, Note_on_c, 0, 57, 28
2, 604237, Note_on_c, 0, 71, 44
2, 604308, Note_on_c, 0, 68, 44
2, 604334, Note_off_c, 0, 71, 64
2, 604338, Note_off_c, 0, 54, 64
2, 604339, Note_off_c, 0, 57, 64
2, 604369, Note_off_c, 0, 63, 64
2, 604392, Note_on_c, 0, 66, 45
2, 604396, Note_on_c, 0, 63, 22
2, 604398, Note_off_c, 0, 68, 64
2, 604419, Note_on_c, 0, 57, 22
2, 604420, Note_on_c, 0, 54, 14
2, 604475, Note_on_c, 0, 69, 39
2, 604484, Note_off_c, 0, 66, 64
2, 604514, Note_off_c, 0, 54, 64
2, 604532, Note_off_c, 0, 63, 64
2, 604536, Note_off_c, 0, 57, 64
2, 604561, Note_on_c, 0, 68, 48
2, 604575, Note_off_c, 0, 69, 64
2, 604580, Control_c, 0, 64, 0
2, 604593, Control_c, 0, 64, 127
2, 604596, Note_off_c, 0, 47, 64
2, 604648, Note_on_c, 0, 69, 42
2, 604662, Note_off_c, 0, 68, 64
2, 604730, Note_on_c, 0, 66, 42
2, 604733, Note_on_c, 0, 51, 28
2, 604737, Note_on_c, 0, 57, 24
2, 604740, Note_on_c, 0, 47, 23
2, 604815, Note_off_c, 0, 69, 64
2, 604837, Note_off_c, 0, 47, 64
2, 604863, Note_off_c, 0, 57, 64
2, 604866, Note_off_c, 0, 51, 64
2, 604908, Note_on_c, 0, 57, 29
2, 604913, Note_on_c, 0, 51, 22
2, 604913, Note_on_c, 0, 47, 29
2, 605007, Note_off_c, 0, 51, 64
2, 605008, Note_on_c, 0, 71, 44
2, 605022, Note_off_c, 0, 57, 64
2, 605028, Note_off_c, 0, 66, 64
2, 605029, Note_off_c, 0, 47, 64
2, 605078, Note_on_c, 0, 68, 44
2, 605084, Note_on_c, 0, 40, 28
2, 605094, Note_off_c, 0, 71, 64
2, 605094, Control_c, 0, 64, 0
2, 605117, Control_c, 0, 64, 127
2, 605214, Note_on_c, 0, 59, 27
2, 605222, Note_off_c, 0, 68, 64
2, 605245, Note_on_c, 0, 52, 28
2, 605251, Note_on_c, 0, 56, 29
2, 605260, Note_on_c, 0, 64, 46
2, 605266, Note_off_c, 0, 59, 64
2, 605361, Note_off_c, 0, 56, 64
2, 605375, Note_off_c, 0, 52, 64
2, 605418, Note_on_c, 0, 68, 49
2, 605424, Note_off_c, 0, 64, 64
2, 605425, Note_on_c, 0, 56, 27
2, 605428, Note_on_c, 0, 52, 20
2, 605447, Note_on_c, 0, 59, 13
2, 605536, Note_off_c, 0, 52, 64
2, 605584, Note_off_c, 0, 68, 64
2, 605590, Note_on_c, 0, 71, 46
2, 605603, Note_on_c, 0, 51, 33
2, 605615, Note_off_c, 0, 40, 64
2, 605664, Note_off_c, 0, 59, 64
2, 605673, Note_off_c, 0, 56, 64
2, 605705, Note_off_c, 0, 51, 64
2, 605711, Note_on_c, 0, 73, 52
2, 605724, Note_off_c, 0, 71, 64
2, 605765, Note_on_c, 0, 70, 57
2, 605771, Note_on_c, 0, 55, 36
2, 605772, Note_on_c, 0, 63, 36
2, 605778, Note_off_c, 0, 73, 64
2, 605781, Note_on_c, 0, 51, 28
2, 605783, Control_c, 0, 64, 0
2, 605806, Control_c, 0, 64, 127
2, 605856, Note_off_c, 0, 55, 64
2, 605860, Note_off_c, 0, 51, 64
2, 605875, Note_off_c, 0, 63, 64
2, 605945, Note_on_c, 0, 61, 36
2, 605951, Note_on_c, 0, 51, 36
2, 605954, Note_on_c, 0, 55, 36
2, 606026, Note_off_c, 0, 55, 64
2, 606036, Note_on_c, 0, 75, 53
2, 606039, Note_off_c, 0, 70, 64
2, 606044, Note_off_c, 0, 61, 64
2, 606056, Note_off_c, 0, 51, 64
2, 606114, Note_on_c, 0, 44, 39
2, 606117, Note_off_c, 0, 75, 64
2, 606125, Note_on_c, 0, 71, 58
2, 606138, Control_c, 0, 64, 0
2, 606150, Control_c, 0, 64, 127
2, 606240, Note_on_c, 0, 63, 48
2, 606242, Note_off_c, 0, 71, 64
2, 606272, Note_on_c, 0, 59, 36
2, 606285, Note_on_c, 0, 68, 57
2, 606285, Note_on_c, 0, 56, 18
2, 606294, Note_off_c, 0, 63, 64
2, 606308, Control_c, 0, 64, 0
2, 606323, Control_c, 0, 64, 127
2, 606380, Note_off_c, 0, 56, 64
2, 606411, Note_off_c, 0, 59, 64
2, 606433, Note_off_c, 0, 68, 64
2, 606451, Note_on_c, 0, 63, 41
2, 606454, Note_on_c, 0, 71, 58
2, 606454, Note_on_c, 0, 59, 36
2, 606461, Note_on_c, 0, 56, 32
2, 606564, Note_off_c, 0, 71, 64
2, 606593, Note_off_c, 0, 59, 64
2, 606598, Note_off_c, 0, 56, 64
2, 606618, Note_off_c, 0, 63, 64
2, 606625, Note_on_c, 0, 75, 63
2, 606641, Note_off_c, 0, 44, 64
2, 606744, Note_on_c, 0, 76, 61
2, 606755, Note_off_c, 0, 75, 64
2, 606793, Note_on_c, 0, 64, 35
2, 606800, Note_on_c, 0, 55, 37
2, 606802, Note_on_c, 0, 73, 75
2, 606805, Note_on_c, 0, 59, 24
2, 606806, Control_c, 0, 64, 0
2, 606816, Note_off_c, 0, 76, 64
2, 606822, Control_c, 0, 64, 127
2, 606905, Note_off_c, 0, 55, 64
2, 606911, Note_off_c, 0, 59, 64
2, 606915, Note_off_c, 0, 64, 64
2, 606953, Note_on_c, 0, 58, 36
2, 606953, Note_on_c, 0, 54, 39
2, 606961, Note_on_c, 0, 64, 37
2, 607039, Note_off_c, 0, 73, 64
2, 607052, Note_off_c, 0, 64, 64
2, 607059, Note_off_c, 0, 54, 64
2, 607061, Note_on_c, 0, 78, 67
2, 607083, Note_off_c, 0, 58, 64
2, 607133, Note_off_c, 0, 78, 64
2, 607139, Note_on_c, 0, 75, 66
2, 607143, Note_on_c, 0, 47, 41
2, 607159, Control_c, 0, 64, 0
2, 607172, Control_c, 0, 64, 127
2, 607224, Note_on_c, 0, 71, 57
2, 607242, Note_off_c, 0, 75, 64
2, 607299, Note_on_c, 0, 69, 66
2, 607308, Note_on_c, 0, 63, 42
2, 607309, Note_on_c, 0, 54, 44
2, 607312, Note_on_c, 0, 57, 24
2, 607318, Control_c, 0, 64, 0
2, 607326, Note_off_c, 0, 71, 64
2, 607360, Control_c, 0, 64, 127
2, 607417, Note_off_c, 0, 63, 64
2, 607421, Note_off_c, 0, 57, 64
2, 607421, Note_off_c, 0, 54, 64
2, 607455, Note_off_c, 0, 69, 64
2, 607456, Note_on_c, 0, 57, 42
2, 607460, Note_on_c, 0, 63, 37
2, 607464, Note_on_c, 0, 54, 32
2, 607541, Note_on_c, 0, 73, 55
2, 607550, Note_off_c, 0, 54, 64
2, 607565, Note_off_c, 0, 57, 64
2, 607576, Note_off_c, 0, 63, 64
2, 607633, Note_on_c, 0, 71, 54
2, 607640, Control_c, 0, 64, 0
2, 607649, Note_off_c, 0, 73, 64
2, 607655, Control_c, 0, 64, 127
2, 607675, Note_off_c, 0, 47, 64
2, 607701, Note_on_c, 0, 68, 55
2, 607726, Note_off_c, 0, 71, 64
2, 607777, Note_on_c, 0, 66, 57
2, 607783, Note_on_c, 0, 47, 26
2, 607786, Note_on_c, 0, 51, 19
2, 607788, Note_on_c, 0, 57, 22
2, 607799, Note_off_c, 0, 68, 64
2, 607876, Note_off_c, 0, 51, 64
2, 607890, Note_off_c, 0, 57, 64
2, 607908, Note_off_c, 0, 47, 64
2, 607936, Note_on_c, 0, 57, 44
2, 607937, Note_on_c, 0, 51, 33
2, 607947, Note_on_c, 0, 47, 24
2, 607956, Note_on_c, 0, 69, 50
2, 607970, Note_off_c, 0, 66, 64
2, 608009, Note_off_c, 0, 51, 64
2, 608010, Note_off_c, 0, 47, 64
2, 608019, Note_off_c, 0, 57, 64
2, 608030, Control_c, 0, 64, 0
2, 608072, Control_c, 0, 64, 127
2, 608130, Note_on_c, 0, 68, 58
2, 608131, Note_on_c, 0, 40, 31
2, 608135, Note_off_c, 0, 69, 64
2, 608141, Control_c, 0, 64, 0
2, 608153, Control_c, 0, 64, 127
2, 608252, Note_on_c, 0, 59, 33
2, 608277, Note_off_c, 0, 68, 64
2, 608301, Note_on_c, 0, 56, 28
2, 608305, Note_off_c, 0, 59, 64
2, 608305, Note_on_c, 0, 64, 39
2, 608308, Note_on_c, 0, 52, 11
2, 608331, Control_c, 0, 64, 0
2, 608344, Control_c, 0, 64, 127
2, 608419, Note_off_c, 0, 40, 64
2, 608434, Note_off_c, 0, 52, 64
2, 608461, Note_off_c, 0, 56, 64
2, 608472, Note_off_c, 0, 64, 64
2, 608472, Note_on_c, 0, 68, 61
2, 608646, Note_on_c, 0, 54, 20
2, 608648, Note_on_c, 0, 64, 22
2, 608652, Note_on_c, 0, 59, 28
2, 608688, Note_off_c, 0, 68, 64
2, 608691, Note_on_c, 0, 70, 15
2, 608693, Note_off_c, 0, 54, 64
2, 608706, Note_off_c, 0, 64, 64
2, 608707, Note_off_c, 0, 59, 64
2, 608718, Note_off_c, 0, 70, 64
2, 608730, Note_on_c, 0, 71, 36
2, 608785, Note_off_c, 0, 71, 64
2, 608789, Note_on_c, 0, 73, 48
2, 608796, Note_on_c, 0, 64, 35
2, 608796, Note_on_c, 0, 59, 33
2, 608799, Note_on_c, 0, 54, 33
2, 608851, Note_off_c, 0, 59, 64
2, 608853, Note_off_c, 0, 64, 64
2, 608856, Note_off_c, 0, 54, 64
2, 608935, Note_off_c, 0, 73, 64
2, 608951, Note_on_c, 0, 75, 26
2, 608956, Note_on_c, 0, 64, 29
2, 608964, Note_on_c, 0, 54, 26
2, 608971, Note_off_c, 0, 75, 64
2, 608973, Note_on_c, 0, 58, 19
2, 608988, Note_on_c, 0, 76, 49
2, 609007, Note_off_c, 0, 64, 64
2, 609010, Note_off_c, 0, 58, 64
2, 609017, Note_off_c, 0, 54, 64
2, 609037, Note_on_c, 0, 78, 61
2, 609051, Note_off_c, 0, 76, 64
2, 609102, Note_on_c, 0, 80, 58
2, 609106, Note_on_c, 0, 61, 37
2, 609112, Note_off_c, 0, 78, 64
2, 609115, Note_on_c, 0, 54, 31
2, 609118, Note_on_c, 0, 64, 36
2, 609156, Note_on_c, 0, 82, 61
2, 609162, Note_off_c, 0, 80, 64
2, 609167, Note_off_c, 0, 61, 64
2, 609169, Note_off_c, 0, 54, 64
2, 609175, Note_off_c, 0, 64, 64
2, 609191, Note_off_c, 0, 82, 64
2, 609203, Note_on_c, 0, 83, 55
2, 609249, Note_on_c, 0, 85, 74
2, 609252, Note_on_c, 0, 54, 50
2, 609257, Note_on_c, 0, 58, 40
2, 609264, Note_on_c, 0, 64, 36
2, 609267, Note_off_c, 0, 83, 64
2, 609305, Note_off_c, 0, 58, 64
2, 609309, Note_off_c, 0, 54, 64
2, 609322, Note_off_c, 0, 64, 64
2, 609391, Note_off_c, 0, 85, 64
2, 609408, Note_on_c, 0, 87, 66
2, 609410, Note_on_c, 0, 54, 57
2, 609420, Note_on_c, 0, 64, 37
2, 609420, Note_on_c, 0, 59, 57
2, 609447, Note_off_c, 0, 54, 64
2, 609449, Note_off_c, 0, 59, 64
2, 609467, Note_off_c, 0, 64, 64
2, 609523, Note_off_c, 0, 87, 64
2, 609568, Note_on_c, 0, 68, 29
2, 609583, Note_on_c, 0, 59, 27
2, 609588, Note_on_c, 0, 54, 19
2, 609593, Note_on_c, 0, 64, 18
2, 609614, Note_on_c, 0, 70, 37
2, 609622, Note_off_c, 0, 68, 64
2, 609630, Note_off_c, 0, 59, 64
2, 609630, Note_off_c, 0, 54, 64
2, 609633, Note_off_c, 0, 64, 64
2, 609658, Note_off_c, 0, 70, 64
2, 609673, Note_on_c, 0, 71, 32
2, 609721, Note_on_c, 0, 73, 50
2, 609730, Note_on_c, 0, 59, 26
2, 609730, Note_on_c, 0, 54, 31
2, 609734, Note_on_c, 0, 64, 31
2, 609743, Note_off_c, 0, 71, 64
2, 609779, Note_off_c, 0, 64, 64
2, 609783, Note_off_c, 0, 59, 64
2, 609787, Note_off_c, 0, 54, 64
2, 609810, Note_off_c, 0, 73, 64
2, 609817, Note_on_c, 0, 75, 35
2, 609862, Note_off_c, 0, 75, 64
2, 609868, Note_on_c, 0, 76, 45
2, 609888, Note_on_c, 0, 58, 36
2, 609895, Note_on_c, 0, 54, 28
2, 609907, Note_on_c, 0, 64, 22
2, 609923, Note_on_c, 0, 78, 59
2, 609931, Note_off_c, 0, 64, 64
2, 609933, Note_off_c, 0, 76, 64
2, 609937, Note_off_c, 0, 58, 64
2, 609939, Note_off_c, 0, 54, 64
2, 609977, Note_on_c, 0, 80, 48
2, 609984, Note_off_c, 0, 78, 64
2, 610018, Note_off_c, 0, 80, 64
2, 610032, Note_on_c, 0, 82, 48
2, 610036, Note_on_c, 0, 54, 62
2, 610045, Note_on_c, 0, 64, 59
2, 610067, Note_off_c, 0, 82, 64
2, 610081, Note_on_c, 0, 83, 22
2, 610088, Note_off_c, 0, 64, 64
2, 610095, Note_off_c, 0, 54, 64
2, 610127, Note_on_c, 0, 85, 66
2, 610149, Note_off_c, 0, 83, 64
2, 610195, Note_off_c, 0, 85, 64
2, 610205, Note_on_c, 0, 87, 74
2, 610205, Control_c, 0, 64, 0
2, 610212, Note_on_c, 0, 59, 50
2, 610213, Note_on_c, 0, 63, 50
2, 610213, Note_on_c, 0, 54, 39
2, 610236, Control_c, 0, 64, 127
2, 610255, Note_off_c, 0, 54, 64
2, 610258, Note_off_c, 0, 63, 64
2, 610258, Note_off_c, 0, 59, 64
2, 610320, Note_off_c, 0, 87, 64
2, 610388, Note_on_c, 0, 59, 44
2, 610392, Note_on_c, 0, 63, 42
2, 610393, Note_on_c, 0, 54, 40
2, 610437, Note_off_c, 0, 54, 64
2, 610437, Note_off_c, 0, 63, 64
2, 610438, Note_off_c, 0, 59, 64
2, 610542, Control_c, 0, 64, 0
2, 610546, Note_on_c, 0, 68, 33
2, 610553, Note_on_c, 0, 64, 28
2, 610553, Note_on_c, 0, 59, 31
2, 610553, Note_on_c, 0, 54, 26
2, 610562, Control_c, 0, 64, 127
2, 610591, Note_on_c, 0, 70, 33
2, 610596, Note_off_c, 0, 59, 64
2, 610599, Note_off_c, 0, 64, 64
2, 610601, Note_off_c, 0, 54, 64
2, 610607, Note_off_c, 0, 68, 64
2, 610632, Note_off_c, 0, 70, 64
2, 610647, Note_on_c, 0, 71, 35
2, 610693, Note_on_c, 0, 73, 52
2, 610697, Note_on_c, 0, 59, 29
2, 610702, Note_on_c, 0, 64, 33
2, 610702, Note_on_c, 0, 54, 33
2, 610712, Note_off_c, 0, 71, 64
2, 610740, Note_off_c, 0, 64, 64
2, 610740, Note_off_c, 0, 59, 64
2, 610743, Note_off_c, 0, 54, 64
2, 610824, Note_off_c, 0, 73, 64
2, 610848, Note_on_c, 0, 58, 29
2, 610856, Note_on_c, 0, 75, 50
2, 610856, Note_on_c, 0, 64, 28
2, 610860, Note_on_c, 0, 54, 26
2, 610882, Note_off_c, 0, 58, 64
2, 610894, Note_off_c, 0, 75, 64
2, 610896, Note_on_c, 0, 76, 36
2, 610907, Note_off_c, 0, 54, 64
2, 610914, Note_off_c, 0, 64, 64
2, 610940, Note_on_c, 0, 78, 58
2, 610967, Note_off_c, 0, 76, 64
2, 611000, Note_on_c, 0, 80, 49
2, 611000, Note_on_c, 0, 64, 40
2, 611004, Note_on_c, 0, 61, 44
2, 611005, Note_on_c, 0, 54, 36
2, 611010, Note_off_c, 0, 78, 64
2, 611044, Note_off_c, 0, 64, 64
2, 611044, Note_on_c, 0, 82, 46
2, 611047, Note_off_c, 0, 61, 64
2, 611050, Note_off_c, 0, 54, 64
2, 611068, Note_off_c, 0, 80, 64
2, 611080, Note_on_c, 0, 83, 58
2, 611089, Note_off_c, 0, 82, 64
2, 611141, Note_off_c, 0, 83, 64
2, 611160, Note_on_c, 0, 85, 74
2, 611160, Note_on_c, 0, 64, 50
2, 611160, Note_on_c, 0, 54, 52
2, 611162, Note_on_c, 0, 58, 18
2, 611205, Note_off_c, 0, 58, 64
2, 611205, Note_off_c, 0, 54, 64
2, 611206, Note_off_c, 0, 64, 64
2, 611298, Note_on_c, 0, 87, 66
2, 611305, Note_on_c, 0, 63, 44
2, 611306, Note_on_c, 0, 59, 50
2, 611311, Note_on_c, 0, 54, 40
2, 611315, Note_off_c, 0, 85, 64
2, 611347, Note_off_c, 0, 54, 64
2, 611351, Note_off_c, 0, 59, 64
2, 611357, Note_off_c, 0, 63, 64
2, 611413, Note_off_c, 0, 87, 64
2, 611466, Note_on_c, 0, 68, 28
2, 611472, Note_on_c, 0, 59, 29
2, 611472, Note_on_c, 0, 54, 28
2, 611476, Note_on_c, 0, 64, 28
2, 611508, Note_on_c, 0, 70, 33
2, 611512, Note_off_c, 0, 54, 64
2, 611515, Note_off_c, 0, 59, 64
2, 611520, Note_off_c, 0, 64, 64
2, 611520, Note_off_c, 0, 68, 64
2, 611548, Note_off_c, 0, 70, 64
2, 611556, Note_on_c, 0, 71, 32
2, 611612, Note_on_c, 0, 73, 48
2, 611616, Note_off_c, 0, 71, 64
2, 611619, Note_on_c, 0, 54, 33
2, 611623, Note_on_c, 0, 64, 28
2, 611626, Note_on_c, 0, 59, 27
2, 611663, Note_off_c, 0, 64, 64
2, 611668, Note_off_c, 0, 59, 64
2, 611684, Note_off_c, 0, 54, 64
2, 611704, Note_on_c, 0, 75, 48
2, 611707, Note_off_c, 0, 73, 64
2, 611740, Note_off_c, 0, 75, 64
2, 611760, Note_on_c, 0, 76, 50
2, 611772, Note_on_c, 0, 58, 37
2, 611776, Note_on_c, 0, 64, 24
2, 611783, Note_on_c, 0, 54, 33
2, 611816, Note_on_c, 0, 78, 52
2, 611820, Note_off_c, 0, 54, 64
2, 611823, Note_off_c, 0, 58, 64
2, 611828, Note_off_c, 0, 64, 64
2, 611836, Note_off_c, 0, 76, 64
2, 611872, Note_on_c, 0, 80, 45
2, 611897, Note_off_c, 0, 78, 64
2, 611927, Note_on_c, 0, 54, 54
2, 611931, Note_on_c, 0, 64, 50
2, 611948, Note_on_c, 0, 82, 45
2, 611949, Note_off_c, 0, 80, 64
2, 611984, Note_on_c, 0, 83, 57
2, 611993, Note_off_c, 0, 82, 64
2, 611993, Note_on_c, 0, 83, 44
2, 612049, Note_on_c, 0, 85, 67
2, 612114, Note_off_c, 0, 64, 64
2, 612126, Note_on_c, 0, 87, 70
2, 612130, Note_on_c, 0, 63, 39
2, 612133, Note_off_c, 0, 54, 64
2, 612139, Note_on_c, 0, 59, 48
2, 612140, Note_off_c, 0, 83, 64
2, 612140, Note_off_c, 0, 83, 64
2, 612143, Note_off_c, 0, 85, 64
2, 612150, Control_c, 0, 64, 0
2, 612162, Control_c, 0, 64, 127
2, 612241, Note_off_c, 0, 87, 64
2, 612396, Note_on_c, 0, 71, 44
2, 612411, Note_off_c, 0, 63, 64
2, 612421, Control_c, 0, 64, 0
2, 612444, Note_off_c, 0, 59, 64
2, 612444, Control_c, 0, 64, 127
2, 612607, Note_on_c, 0, 68, 41
2, 612624, Note_off_c, 0, 71, 64
2, 612729, Note_off_c, 0, 68, 64
2, 612738, Note_on_c, 0, 69, 36
2, 612780, Note_on_c, 0, 66, 50
2, 612782, Note_on_c, 0, 57, 23
2, 612790, Note_on_c, 0, 51, 23
2, 612797, Note_off_c, 0, 69, 64
2, 612798, Note_on_c, 0, 47, 14
2, 612858, Note_off_c, 0, 47, 64
2, 612869, Note_off_c, 0, 51, 64
2, 612872, Note_off_c, 0, 57, 64
2, 612955, Note_on_c, 0, 57, 23
2, 612955, Note_on_c, 0, 47, 23
2, 612960, Note_on_c, 0, 51, 19
2, 613033, Note_off_c, 0, 66, 64
2, 613040, Note_on_c, 0, 71, 44
2, 613046, Note_off_c, 0, 51, 64
2, 613049, Note_off_c, 0, 47, 64
2, 613054, Note_off_c, 0, 57, 64
2, 613108, Note_on_c, 0, 68, 48
2, 613121, Note_off_c, 0, 71, 64
2, 613122, Note_on_c, 0, 40, 28
2, 613235, Note_on_c, 0, 59, 31
2, 613237, Note_off_c, 0, 68, 64
2, 613272, Note_on_c, 0, 56, 36
2, 613275, Note_on_c, 0, 52, 31
2, 613284, Note_on_c, 0, 64, 50
2, 613291, Note_off_c, 0, 59, 64
2, 613302, Control_c, 0, 64, 0
2, 613314, Control_c, 0, 64, 127
2, 613347, Note_off_c, 0, 52, 64
2, 613350, Note_off_c, 0, 56, 64
2, 613428, Note_off_c, 0, 64, 64
2, 613433, Note_on_c, 0, 56, 27
2, 613439, Note_on_c, 0, 68, 50
2, 613439, Note_on_c, 0, 52, 27
2, 613448, Control_c, 0, 64, 0
2, 613453, Note_on_c, 0, 59, 26
2, 613471, Control_c, 0, 64, 127
2, 613537, Note_off_c, 0, 52, 64
2, 613590, Note_off_c, 0, 68, 64
2, 613597, Note_on_c, 0, 51, 32
2, 613607, Note_on_c, 0, 71, 42
2, 613647, Note_off_c, 0, 40, 64
2, 613648, Note_off_c, 0, 59, 64
2, 613674, Note_off_c, 0, 56, 64
2, 613681, Note_off_c, 0, 51, 64
2, 613710, Note_off_c, 0, 71, 64
2, 613714, Note_on_c, 0, 73, 49
2, 613763, Note_on_c, 0, 63, 35
2, 613770, Note_on_c, 0, 70, 61
2, 613770, Note_on_c, 0, 55, 28
2, 613776, Note_on_c, 0, 51, 28
2, 613780, Control_c, 0, 64, 0
2, 613788, Note_off_c, 0, 73, 64
2, 613795, Control_c, 0, 64, 127
2, 613844, Note_off_c, 0, 55, 64
2, 613848, Note_off_c, 0, 63, 64
2, 613851, Note_off_c, 0, 51, 64
2, 613930, Note_on_c, 0, 61, 35
2, 613930, Note_on_c, 0, 51, 39
2, 613937, Note_on_c, 0, 55, 36
2, 613989, Note_off_c, 0, 70, 64
2, 613998, Note_on_c, 0, 75, 52
2, 614008, Note_off_c, 0, 61, 64
2, 614016, Note_off_c, 0, 55, 64
2, 614035, Note_off_c, 0, 51, 64
2, 614074, Note_off_c, 0, 75, 64
2, 614088, Note_on_c, 0, 44, 40
2, 614090, Note_on_c, 0, 71, 55
2, 614106, Control_c, 0, 64, 0
2, 614129, Control_c, 0, 64, 127
2, 614158, Note_off_c, 0, 71, 64
2, 614204, Note_on_c, 0, 63, 40
2, 614243, Note_on_c, 0, 56, 24
2, 614247, Note_on_c, 0, 68, 63
2, 614250, Note_on_c, 0, 59, 14
2, 614256, Note_off_c, 0, 63, 64
2, 614307, Note_off_c, 0, 56, 64
2, 614319, Note_off_c, 0, 59, 64
2, 614368, Note_off_c, 0, 68, 64
2, 614401, Note_on_c, 0, 59, 36
2, 614407, Note_on_c, 0, 71, 53
2, 614411, Note_on_c, 0, 56, 41
2, 614414, Note_on_c, 0, 63, 41
2, 614519, Note_off_c, 0, 71, 64
2, 614542, Note_off_c, 0, 56, 64
2, 614556, Note_off_c, 0, 59, 64
2, 614561, Control_c, 0, 64, 0
2, 614567, Note_on_c, 0, 75, 59
2, 614572, Note_off_c, 0, 63, 64
2, 614577, Control_c, 0, 64, 127
2, 614623, Note_off_c, 0, 44, 64
2, 614653, Note_off_c, 0, 75, 64
2, 614686, Note_on_c, 0, 76, 46
2, 614720, Note_on_c, 0, 59, 29
2, 614722, Note_on_c, 0, 55, 29
2, 614725, Note_on_c, 0, 64, 29
2, 614731, Note_on_c, 0, 73, 74
2, 614739, Control_c, 0, 64, 0
2, 614751, Note_off_c, 0, 76, 64
2, 614774, Control_c, 0, 64, 127
2, 614782, Note_off_c, 0, 59, 64
2, 614785, Note_off_c, 0, 55, 64
2, 614807, Note_off_c, 0, 64, 64
2, 614912, Note_on_c, 0, 64, 36
2, 614914, Note_on_c, 0, 54, 39
2, 614921, Note_on_c, 0, 58, 33
2, 614987, Note_off_c, 0, 64, 64
2, 614991, Note_off_c, 0, 58, 64
2, 615009, Note_off_c, 0, 54, 64
2, 615010, Note_off_c, 0, 73, 64
2, 615013, Note_on_c, 0, 78, 57
2, 615109, Note_on_c, 0, 75, 62
2, 615114, Note_off_c, 0, 78, 64
2, 615114, Note_on_c, 0, 47, 29
2, 615121, Control_c, 0, 64, 0
2, 615134, Control_c, 0, 64, 127
2, 615200, Note_on_c, 0, 71, 55
2, 615223, Note_off_c, 0, 75, 64
2, 615276, Note_on_c, 0, 69, 57
2, 615284, Note_on_c, 0, 63, 36
2, 615284, Note_on_c, 0, 57, 39
2, 615289, Note_on_c, 0, 54, 22
2, 615294, Control_c, 0, 64, 0
2, 615301, Note_off_c, 0, 71, 64
2, 615310, Control_c, 0, 64, 127
2, 615352, Note_off_c, 0, 54, 64
2, 615354, Note_off_c, 0, 57, 64
2, 615359, Note_off_c, 0, 63, 64
2, 615404, Note_off_c, 0, 47, 64
2, 615440, Note_on_c, 0, 73, 50
2, 615441, Note_off_c, 0, 69, 64
2, 615449, Note_on_c, 0, 63, 29
2, 615456, Note_on_c, 0, 57, 24
2, 615458, Note_on_c, 0, 54, 29
2, 615507, Note_off_c, 0, 63, 64
2, 615516, Note_off_c, 0, 57, 64
2, 615539, Note_off_c, 0, 54, 64
2, 615608, Control_c, 0, 64, 0
2, 615613, Note_on_c, 0, 47, 36
2, 615622, Note_on_c, 0, 71, 50
2, 615634, Control_c, 0, 64, 127
2, 615635, Note_off_c, 0, 73, 64
2, 615687, Note_on_c, 0, 68, 52
2, 615693, Note_off_c, 0, 71, 64
2, 615750, Note_on_c, 0, 54, 31
2, 615753, Note_off_c, 0, 68, 64
2, 615755, Note_on_c, 0, 66, 61
2, 615762, Note_on_c, 0, 57, 31
2, 615765, Note_on_c, 0, 63, 40
2, 615828, Note_on_c, 0, 69, 53
2, 615840, Note_off_c, 0, 66, 64
2, 615844, Note_off_c, 0, 54, 64
2, 615851, Note_off_c, 0, 57, 64
2, 615879, Note_off_c, 0, 63, 64
2, 615900, Note_on_c, 0, 75, 55
2, 615904, Note_off_c, 0, 47, 64
2, 615904, Note_on_c, 0, 63, 23
2, 615904, Note_on_c, 0, 54, 18
2, 615912, Note_on_c, 0, 57, 44
2, 615920, Note_on_c, 0, 66, 23
2, 615927, Note_off_c, 0, 69, 64
2, 615972, Note_off_c, 0, 75, 64
2, 615975, Note_off_c, 0, 66, 64
2, 615978, Note_on_c, 0, 71, 50
2, 616009, Note_off_c, 0, 63, 64
2, 616024, Note_off_c, 0, 57, 64
2, 616030, Note_off_c, 0, 54, 64
2, 616048, Note_off_c, 0, 71, 64
2, 616054, Note_on_c, 0, 47, 28
2, 616054, Note_on_c, 0, 69, 49
2, 616066, Control_c, 0, 64, 0
2, 616080, Control_c, 0, 64, 127
2, 616128, Note_off_c, 0, 69, 64
2, 616132, Note_on_c, 0, 73, 48
2, 616197, Note_on_c, 0, 71, 50
2, 616201, Note_off_c, 0, 73, 64
2, 616202, Note_on_c, 0, 57, 24
2, 616210, Note_on_c, 0, 63, 29
2, 616214, Note_on_c, 0, 54, 13
2, 616269, Note_on_c, 0, 68, 28
2, 616273, Note_off_c, 0, 71, 64
2, 616286, Note_off_c, 0, 54, 64
2, 616291, Note_off_c, 0, 57, 64
2, 616295, Note_off_c, 0, 63, 64
2, 616326, Note_off_c, 0, 68, 64
2, 616338, Note_on_c, 0, 66, 41
2, 616338, Note_on_c, 0, 63, 19
2, 616350, Note_off_c, 0, 47, 64
2, 616351, Note_on_c, 0, 57, 24
2, 616357, Note_on_c, 0, 54, 19
2, 616395, Note_off_c, 0, 66, 64
2, 616411, Note_on_c, 0, 69, 40
2, 616417, Note_off_c, 0, 63, 64
2, 616436, Note_off_c, 0, 57, 64
2, 616448, Note_off_c, 0, 54, 64
2, 616479, Note_on_c, 0, 68, 45
2, 616489, Control_c, 0, 64, 0
2, 616510, Note_off_c, 0, 69, 64
2, 616524, Control_c, 0, 64, 127
2, 616573, Note_on_c, 0, 69, 41
2, 616581, Note_off_c, 0, 68, 64
2, 616637, Note_on_c, 0, 51, 23
2, 616640, Note_on_c, 0, 47, 27
2, 616646, Note_on_c, 0, 57, 22
2, 616655, Note_on_c, 0, 66, 40
2, 616668, Note_off_c, 0, 69, 64
2, 616721, Note_off_c, 0, 47, 64
2, 616729, Note_off_c, 0, 57, 64
2, 616731, Note_off_c, 0, 51, 64
2, 616819, Note_on_c, 0, 57, 26
2, 616822, Note_on_c, 0, 47, 28
2, 616824, Note_on_c, 0, 51, 28
2, 616892, Note_off_c, 0, 66, 64
2, 616895, Note_on_c, 0, 71, 44
2, 616924, Note_off_c, 0, 57, 64
2, 616929, Note_off_c, 0, 51, 64
2, 616931, Note_off_c, 0, 47, 64
2, 616942, Control_c, 0, 64, 0
2, 616984, Control_c, 0, 64, 127
2, 616988, Note_on_c, 0, 68, 48
2, 616992, Note_on_c, 0, 40, 31
2, 616996, Note_off_c, 0, 71, 64
2, 617003, Control_c, 0, 64, 0
2, 617039, Control_c, 0, 64, 127
2, 617112, Note_on_c, 0, 59, 33
2, 617118, Note_off_c, 0, 68, 64
2, 617156, Note_on_c, 0, 52, 35
2, 617160, Note_on_c, 0, 56, 37
2, 617164, Note_on_c, 0, 64, 42
2, 617169, Note_off_c, 0, 59, 64
2, 617176, Control_c, 0, 64, 0
2, 617189, Control_c, 0, 64, 127
2, 617257, Note_off_c, 0, 52, 64
2, 617266, Note_off_c, 0, 56, 64
2, 617296, Note_on_c, 0, 59, 15
2, 617308, Note_on_c, 0, 56, 28
2, 617313, Note_off_c, 0, 64, 64
2, 617318, Note_on_c, 0, 68, 48
2, 617318, Note_on_c, 0, 52, 24
2, 617458, Note_off_c, 0, 52, 64
2, 617468, Note_off_c, 0, 68, 64
2, 617471, Note_on_c, 0, 71, 48
2, 617478, Note_on_c, 0, 51, 35
2, 617485, Control_c, 0, 64, 0
2, 617520, Control_c, 0, 64, 127
2, 617533, Note_off_c, 0, 40, 64
2, 617535, Note_off_c, 0, 59, 64
2, 617547, Note_off_c, 0, 56, 64
2, 617568, Note_off_c, 0, 51, 64
2, 617569, Note_off_c, 0, 71, 64
2, 617573, Note_on_c, 0, 73, 48
2, 617628, Note_on_c, 0, 70, 52
2, 617637, Note_off_c, 0, 73, 64
2, 617637, Note_on_c, 0, 63, 41
2, 617638, Note_on_c, 0, 55, 32
2, 617644, Note_on_c, 0, 51, 32
2, 617650, Control_c, 0, 64, 0
2, 617661, Control_c, 0, 64, 127
2, 617719, Note_off_c, 0, 55, 64
2, 617746, Note_off_c, 0, 51, 64
2, 617753, Note_off_c, 0, 63, 64
2, 617802, Note_on_c, 0, 61, 36
2, 617811, Note_on_c, 0, 55, 37
2, 617811, Note_on_c, 0, 51, 36
2, 617871, Note_off_c, 0, 55, 64
2, 617872, Note_off_c, 0, 61, 64
2, 617892, Note_off_c, 0, 51, 64
2, 617899, Note_on_c, 0, 75, 50
2, 617903, Note_off_c, 0, 70, 64
2, 617982, Control_c, 0, 64, 0
2, 618008, Note_on_c, 0, 44, 39
2, 618012, Note_off_c, 0, 75, 64
2, 618017, Control_c, 0, 64, 0
2, 618023, Note_on_c, 0, 71, 55
2, 618024, Control_c, 0, 64, 127
2, 618051, Control_c, 0, 64, 127
2, 618097, Note_off_c, 0, 71, 64
2, 618152, Note_on_c, 0, 63, 50
2, 618192, Note_on_c, 0, 59, 20
2, 618204, Note_on_c, 0, 68, 54
2, 618207, Note_off_c, 0, 63, 64
2, 618207, Note_on_c, 0, 56, 33
2, 618285, Note_off_c, 0, 59, 64
2, 618297, Note_off_c, 0, 56, 64
2, 618315, Note_off_c, 0, 68, 64
2, 618354, Note_on_c, 0, 59, 40
2, 618355, Note_on_c, 0, 71, 55
2, 618360, Note_on_c, 0, 63, 18
2, 618367, Note_on_c, 0, 56, 22
2, 618370, Control_c, 0, 64, 0
2, 618394, Control_c, 0, 64, 127
2, 618456, Note_off_c, 0, 71, 64
2, 618474, Note_off_c, 0, 63, 64
2, 618483, Note_off_c, 0, 59, 64
2, 618488, Note_off_c, 0, 56, 64
2, 618504, Note_on_c, 0, 75, 58
2, 618556, Note_off_c, 0, 44, 64
2, 618581, Note_off_c, 0, 75, 64
2, 618624, Note_on_c, 0, 76, 49
2, 618656, Note_on_c, 0, 55, 36
2, 618663, Note_on_c, 0, 64, 32
2, 618669, Note_on_c, 0, 73, 67
2, 618673, Note_on_c, 0, 59, 35
2, 618696, Note_off_c, 0, 76, 64
2, 618735, Note_off_c, 0, 55, 64
2, 618752, Note_off_c, 0, 59, 64
2, 618756, Note_off_c, 0, 64, 64
2, 618832, Note_on_c, 0, 58, 40
2, 618832, Note_on_c, 0, 54, 39
2, 618839, Note_on_c, 0, 64, 36
2, 618904, Note_off_c, 0, 58, 64
2, 618911, Note_off_c, 0, 64, 64
2, 618920, Note_off_c, 0, 73, 64
2, 618920, Note_on_c, 0, 78, 58
2, 618921, Note_off_c, 0, 54, 64
2, 619012, Note_on_c, 0, 75, 66
2, 619018, Note_off_c, 0, 78, 64
2, 619018, Note_on_c, 0, 47, 28
2, 619022, Control_c, 0, 64, 0
2, 619036, Control_c, 0, 64, 127
2, 619088, Note_on_c, 0, 71, 62
2, 619095, Note_off_c, 0, 75, 64
2, 619162, Note_on_c, 0, 69, 57
2, 619164, Note_off_c, 0, 71, 64
2, 619173, Note_on_c, 0, 54, 36
2, 619178, Note_on_c, 0, 63, 36
2, 619182, Note_on_c, 0, 57, 36
2, 619189, Control_c, 0, 64, 0
2, 619203, Control_c, 0, 64, 127
2, 619267, Note_off_c, 0, 57, 64
2, 619275, Note_off_c, 0, 63, 64
2, 619279, Note_off_c, 0, 54, 64
2, 619329, Note_on_c, 0, 63, 32
2, 619344, Note_on_c, 0, 57, 32
2, 619344, Note_on_c, 0, 54, 44
2, 619398, Note_on_c, 0, 73, 44
2, 619401, Note_off_c, 0, 63, 64
2, 619414, Note_off_c, 0, 57, 64
2, 619424, Note_off_c, 0, 69, 64
2, 619427, Note_off_c, 0, 54, 64
2, 619473, Note_off_c, 0, 73, 64
2, 619494, Note_on_c, 0, 71, 48
2, 619538, Note_off_c, 0, 47, 64
2, 619555, Note_off_c, 0, 71, 64
2, 619556, Note_on_c, 0, 68, 52
2, 619644, Note_off_c, 0, 68, 64
2, 619647, Note_on_c, 0, 51, 29
2, 619648, Note_on_c, 0, 66, 53
2, 619657, Note_on_c, 0, 47, 24
2, 619661, Note_on_c, 0, 57, 24
2, 619723, Note_off_c, 0, 47, 64
2, 619730, Note_off_c, 0, 51, 64
2, 619740, Note_off_c, 0, 57, 64
2, 619784, Note_on_c, 0, 47, 42
2, 619797, Note_off_c, 0, 66, 64
2, 619805, Note_on_c, 0, 51, 32
2, 619808, Note_on_c, 0, 57, 28
2, 619865, Note_off_c, 0, 47, 64
2, 619872, Note_off_c, 0, 57, 64
2, 619874, Note_on_c, 0, 69, 33
2, 619894, Note_off_c, 0, 51, 64
2, 619951, Note_on_c, 0, 68, 50
2, 619956, Note_off_c, 0, 69, 64
2, 619969, Note_on_c, 0, 40, 32
2, 620040, Note_on_c, 0, 59, 42
2, 620064, Note_off_c, 0, 68, 64
2, 620115, Note_off_c, 0, 59, 64
2, 620122, Note_on_c, 0, 64, 46
2, 620139, Note_on_c, 0, 56, 28
2, 620141, Note_on_c, 0, 52, 18
2, 620151, Control_c, 0, 64, 0
2, 620201, Control_c, 0, 64, 127
2, 620264, Note_off_c, 0, 40, 64
2, 620302, Note_on_c, 0, 68, 61
2, 620304, Note_off_c, 0, 64, 64
2, 620304, Note_off_c, 0, 52, 64
2, 620319, Note_off_c, 0, 56, 64
2, 620452, Note_on_c, 0, 54, 23
2, 620463, Note_on_c, 0, 59, 28
2, 620478, Note_on_c, 0, 64, 14
2, 620496, Note_on_c, 0, 70, 16
2, 620501, Note_off_c, 0, 68, 64
2, 620524, Note_off_c, 0, 59, 64
2, 620524, Note_off_c, 0, 54, 64
2, 620525, Note_off_c, 0, 64, 64
2, 620531, Note_off_c, 0, 70, 64
2, 620545, Note_on_c, 0, 71, 32
2, 620600, Note_off_c, 0, 71, 64
2, 620600, Note_on_c, 0, 73, 45
2, 620606, Note_on_c, 0, 54, 36
2, 620613, Note_on_c, 0, 64, 29
2, 620623, Note_on_c, 0, 59, 27
2, 620666, Note_off_c, 0, 64, 64
2, 620668, Note_off_c, 0, 59, 64
2, 620669, Note_off_c, 0, 54, 64
2, 620737, Note_off_c, 0, 73, 64
2, 620746, Note_on_c, 0, 75, 36
2, 620751, Note_on_c, 0, 54, 39
2, 620760, Note_on_c, 0, 58, 37
2, 620764, Note_on_c, 0, 64, 20
2, 620779, Note_off_c, 0, 75, 64
2, 620795, Note_on_c, 0, 76, 45
2, 620809, Note_off_c, 0, 64, 64
2, 620815, Note_off_c, 0, 58, 64
2, 620819, Note_off_c, 0, 54, 64
2, 620841, Note_on_c, 0, 78, 54
2, 620858, Note_off_c, 0, 76, 64
2, 620900, Note_on_c, 0, 80, 55
2, 620913, Note_on_c, 0, 54, 41
2, 620917, Note_off_c, 0, 78, 64
2, 620920, Note_on_c, 0, 64, 44
2, 620920, Note_on_c, 0, 61, 45
2, 620957, Note_off_c, 0, 61, 64
2, 620960, Note_on_c, 0, 82, 24
2, 620964, Note_off_c, 0, 64, 64
2, 620970, Note_off_c, 0, 54, 64
2, 620970, Note_off_c, 0, 80, 64
2, 620990, Note_off_c, 0, 82, 64
2, 621001, Note_on_c, 0, 83, 58
2, 621051, Note_on_c, 0, 85, 74
2, 621051, Note_on_c, 0, 58, 44
2, 621057, Note_on_c, 0, 64, 37
2, 621067, Note_on_c, 0, 54, 29
2, 621070, Note_off_c, 0, 83, 64
2, 621101, Note_off_c, 0, 64, 64
2, 621108, Note_off_c, 0, 54, 64
2, 621108, Note_off_c, 0, 58, 64
2, 621199, Note_on_c, 0, 87, 68
2, 621205, Note_off_c, 0, 85, 64
2, 621212, Note_on_c, 0, 63, 53
2, 621214, Note_on_c, 0, 54, 52
2, 621218, Note_on_c, 0, 59, 57
2, 621250, Note_off_c, 0, 54, 64
2, 621257, Note_off_c, 0, 59, 64
2, 621258, Note_off_c, 0, 63, 64
2, 621314, Note_off_c, 0, 87, 64
2, 621343, Note_on_c, 0, 68, 26
2, 621363, Note_on_c, 0, 54, 28
2, 621369, Note_on_c, 0, 64, 22
2, 621372, Note_on_c, 0, 59, 23
2, 621396, Note_on_c, 0, 70, 29
2, 621401, Note_off_c, 0, 59, 64
2, 621407, Note_off_c, 0, 68, 64
2, 621409, Note_off_c, 0, 64, 64
2, 621412, Note_off_c, 0, 54, 64
2, 621434, Note_off_c, 0, 70, 64
2, 621454, Note_on_c, 0, 71, 32
2, 621499, Note_on_c, 0, 73, 48
2, 621507, Note_on_c, 0, 64, 36
2, 621509, Note_on_c, 0, 54, 36
2, 621516, Note_off_c, 0, 71, 64
2, 621517, Note_on_c, 0, 59, 35
2, 621545, Note_off_c, 0, 59, 64
2, 621551, Note_off_c, 0, 54, 64
2, 621558, Note_off_c, 0, 64, 64
2, 621592, Note_off_c, 0, 73, 64
2, 621597, Note_on_c, 0, 75, 29
2, 621627, Note_off_c, 0, 75, 64
2, 621644, Note_on_c, 0, 58, 35
2, 621650, Note_on_c, 0, 76, 41
2, 621653, Note_on_c, 0, 54, 27
2, 621660, Note_on_c, 0, 64, 31
2, 621683, Note_off_c, 0, 54, 64
2, 621689, Note_on_c, 0, 78, 52
2, 621692, Note_off_c, 0, 64, 64
2, 621692, Note_off_c, 0, 58, 64
2, 621705, Note_off_c, 0, 76, 64
2, 621733, Note_on_c, 0, 80, 48
2, 621752, Note_off_c, 0, 78, 64
2, 621792, Note_on_c, 0, 82, 35
2, 621803, Note_off_c, 0, 80, 64
2, 621803, Note_on_c, 0, 54, 62
2, 621810, Note_on_c, 0, 64, 44
2, 621821, Note_off_c, 0, 82, 64
2, 621839, Note_on_c, 0, 83, 52
2, 621850, Note_off_c, 0, 64, 64
2, 621862, Note_off_c, 0, 54, 64
2, 621892, Note_on_c, 0, 85, 52
2, 621903, Note_off_c, 0, 83, 64
2, 621939, Note_on_c, 0, 59, 53
2, 621941, Note_on_c, 0, 63, 61
2, 621949, Note_on_c, 0, 87, 72
2, 621949, Note_on_c, 0, 54, 50
2, 621958, Note_off_c, 0, 85, 64
2, 621967, Note_off_c, 0, 54, 64
2, 621975, Note_off_c, 0, 63, 64
2, 621975, Note_off_c, 0, 59, 64
2, 622064, Note_off_c, 0, 87, 64
2, 622106, Note_on_c, 0, 59, 53
2, 622112, Note_on_c, 0, 63, 57
2, 622119, Note_on_c, 0, 54, 46
2, 622147, Note_off_c, 0, 54, 64
2, 622160, Note_off_c, 0, 59, 64
2, 622165, Note_off_c, 0, 63, 64
2, 622262, Control_c, 0, 64, 0
2, 622265, Note_on_c, 0, 68, 37
2, 622269, Note_on_c, 0, 54, 29
2, 622273, Note_on_c, 0, 64, 26
2, 622273, Note_on_c, 0, 59, 23
2, 622285, Control_c, 0, 64, 127
2, 622308, Note_on_c, 0, 70, 39
2, 622314, Note_off_c, 0, 59, 64
2, 622317, Note_off_c, 0, 54, 64
2, 622319, Note_off_c, 0, 64, 64
2, 622330, Note_off_c, 0, 68, 64
2, 622355, Note_off_c, 0, 70, 64
2, 622367, Note_on_c, 0, 71, 36
2, 622407, Note_on_c, 0, 54, 33
2, 622413, Note_on_c, 0, 73, 52
2, 622413, Note_on_c, 0, 64, 28
2, 622413, Note_on_c, 0, 59, 29
2, 622428, Note_off_c, 0, 71, 64
2, 622453, Note_off_c, 0, 64, 64
2, 622455, Note_off_c, 0, 59, 64
2, 622459, Note_off_c, 0, 54, 64
2, 622546, Note_off_c, 0, 73, 64
2, 622551, Note_on_c, 0, 75, 48
2, 622563, Note_on_c, 0, 58, 44
2, 622566, Note_on_c, 0, 64, 41
2, 622582, Note_on_c, 0, 54, 26
2, 622596, Note_off_c, 0, 75, 64
2, 622602, Note_off_c, 0, 54, 64
2, 622609, Note_on_c, 0, 76, 48
2, 622613, Note_off_c, 0, 64, 64
2, 622616, Note_off_c, 0, 58, 64
2, 622656, Note_on_c, 0, 78, 57
2, 622672, Note_off_c, 0, 76, 64
2, 622700, Note_on_c, 0, 80, 24
2, 622703, Note_on_c, 0, 61, 48
2, 622703, Note_on_c, 0, 54, 45
2, 622708, Note_on_c, 0, 64, 50
2, 622717, Note_off_c, 0, 78, 64
2, 622734, Note_on_c, 0, 82, 52
2, 622740, Note_off_c, 0, 54, 64
2, 622744, Note_off_c, 0, 61, 64
2, 622749, Note_off_c, 0, 64, 64
2, 622760, Note_off_c, 0, 80, 64
2, 622789, Note_off_c, 0, 82, 64
2, 622799, Note_on_c, 0, 83, 57
2, 622845, Note_on_c, 0, 64, 52
2, 622849, Note_on_c, 0, 85, 74
2, 622849, Note_on_c, 0, 54, 50
2, 622854, Note_on_c, 0, 58, 36
2, 622865, Note_off_c, 0, 83, 64
2, 622894, Note_off_c, 0, 58, 64
2, 622894, Note_off_c, 0, 54, 64
2, 622897, Note_off_c, 0, 64, 64
2, 623004, Note_on_c, 0, 87, 70
2, 623009, Note_off_c, 0, 85, 64
2, 623012, Note_on_c, 0, 59, 52
2, 623014, Note_on_c, 0, 63, 50
2, 623024, Note_on_c, 0, 54, 33
2, 623044, Note_off_c, 0, 54, 64
2, 623057, Note_off_c, 0, 59, 64
2, 623064, Note_off_c, 0, 63, 64
2, 623119, Note_off_c, 0, 87, 64
2, 623160, Note_on_c, 0, 68, 36
2, 623163, Note_on_c, 0, 64, 29
2, 623169, Note_on_c, 0, 54, 28
2, 623176, Note_on_c, 0, 59, 37
2, 623207, Note_off_c, 0, 64, 64
2, 623214, Note_off_c, 0, 54, 64
2, 623217, Note_off_c, 0, 59, 64
2, 623217, Note_on_c, 0, 70, 39
2, 623228, Note_off_c, 0, 68, 64
2, 623254, Note_off_c, 0, 70, 64
2, 623268, Note_on_c, 0, 71, 39
2, 623313, Note_on_c, 0, 54, 42
2, 623315, Note_on_c, 0, 73, 54
2, 623319, Note_on_c, 0, 59, 36
2, 623323, Note_on_c, 0, 64, 31
2, 623330, Note_off_c, 0, 71, 64
2, 623353, Note_off_c, 0, 59, 64
2, 623356, Note_off_c, 0, 54, 64
2, 623358, Note_off_c, 0, 64, 64
2, 623404, Note_on_c, 0, 75, 48
2, 623417, Note_off_c, 0, 73, 64
2, 623450, Note_off_c, 0, 75, 64
2, 623459, Note_on_c, 0, 64, 50
2, 623464, Note_on_c, 0, 76, 48
2, 623467, Note_on_c, 0, 54, 44
2, 623473, Note_on_c, 0, 58, 57
2, 623503, Note_off_c, 0, 64, 64
2, 623509, Note_off_c, 0, 58, 64
2, 623509, Note_off_c, 0, 54, 64
2, 623513, Note_on_c, 0, 78, 59
2, 623535, Note_off_c, 0, 76, 64
2, 623564, Note_on_c, 0, 80, 44
2, 623588, Note_off_c, 0, 78, 64
2, 623618, Note_on_c, 0, 54, 70
2, 623623, Note_on_c, 0, 64, 71
2, 623626, Note_on_c, 0, 82, 62
2, 623641, Note_off_c, 0, 80, 64
2, 623669, Note_off_c, 0, 82, 64
2, 623683, Note_on_c, 0, 83, 65
2, 623752, Note_on_c, 0, 85, 57
2, 623767, Note_off_c, 0, 83, 64
2, 623807, Note_on_c, 0, 59, 54
2, 623811, Note_off_c, 0, 54, 64
2, 623816, Note_off_c, 0, 64, 64
2, 623822, Note_on_c, 0, 63, 36
2, 623827, Note_on_c, 0, 87, 79
2, 623836, Control_c, 0, 64, 0
2, 623842, Note_off_c, 0, 85, 64
2, 623859, Control_c, 0, 64, 127
2, 623942, Note_off_c, 0, 87, 64
2, 624105, Note_on_c, 0, 71, 36
2, 624131, Control_c, 0, 64, 0
2, 624153, Note_off_c, 0, 63, 64
2, 624167, Control_c, 0, 64, 127
2, 624171, Note_off_c, 0, 59, 64
2, 624307, Note_on_c, 0, 68, 32
2, 624327, Note_off_c, 0, 71, 64
2, 624461, Note_off_c, 0, 68, 64
2, 624471, Note_on_c, 0, 69, 32
2, 624511, Note_on_c, 0, 51, 15
2, 624511, Note_on_c, 0, 47, 16
2, 624517, Note_on_c, 0, 66, 35
2, 624517, Note_on_c, 0, 57, 18
2, 624530, Note_off_c, 0, 69, 64
2, 624537, Control_c, 0, 64, 0
2, 624556, Control_c, 0, 64, 127
2, 624589, Note_off_c, 0, 47, 64
2, 624590, Note_off_c, 0, 51, 64
2, 624596, Note_off_c, 0, 57, 64
2, 624691, Note_on_c, 0, 51, 23
2, 624693, Note_on_c, 0, 47, 23
2, 624697, Note_on_c, 0, 57, 20
2, 624777, Note_off_c, 0, 51, 64
2, 624782, Note_off_c, 0, 57, 64
2, 624786, Note_off_c, 0, 66, 64
2, 624791, Note_on_c, 0, 71, 36
2, 624798, Note_off_c, 0, 47, 64
2, 624911, Note_on_c, 0, 68, 41
2, 624911, Note_on_c, 0, 40, 32
2, 624923, Note_off_c, 0, 71, 64
2, 624930, Control_c, 0, 64, 0
2, 624952, Control_c, 0, 64, 127
2, 625074, Note_on_c, 0, 59, 28
2, 625079, Note_off_c, 0, 68, 64
2, 625111, Note_on_c, 0, 52, 18
2, 625114, Note_on_c, 0, 56, 23
2, 625118, Note_on_c, 0, 64, 40
2, 625129, Note_off_c, 0, 59, 64
2, 625198, Note_off_c, 0, 52, 64
2, 625213, Note_off_c, 0, 56, 64
2, 625263, Note_on_c, 0, 56, 15
2, 625264, Note_on_c, 0, 59, 23
2, 625270, Note_off_c, 0, 64, 64
2, 625274, Note_on_c, 0, 52, 22
2, 625280, Note_on_c, 0, 68, 39
2, 625368, Note_off_c, 0, 52, 64
2, 625434, Note_off_c, 0, 68, 64
2, 625440, Note_on_c, 0, 51, 26
2, 625444, Note_on_c, 0, 71, 37
2, 625466, Note_off_c, 0, 40, 64
2, 625503, Note_off_c, 0, 59, 64
2, 625515, Note_off_c, 0, 56, 64
2, 625522, Note_off_c, 0, 51, 64
2, 625560, Note_off_c, 0, 71, 64
2, 625560, Note_on_c, 0, 73, 37
2, 625607, Note_on_c, 0, 63, 33
2, 625613, Note_on_c, 0, 55, 27
2, 625616, Note_on_c, 0, 70, 41
2, 625617, Note_on_c, 0, 51, 23
2, 625627, Control_c, 0, 64, 0
2, 625630, Note_off_c, 0, 73, 64
2, 625640, Control_c, 0, 64, 127
2, 625687, Note_off_c, 0, 55, 64
2, 625706, Note_off_c, 0, 51, 64
2, 625709, Note_off_c, 0, 63, 64
2, 625777, Note_on_c, 0, 61, 29
2, 625786, Note_on_c, 0, 55, 29
2, 625787, Note_on_c, 0, 51, 31
2, 625858, Note_off_c, 0, 55, 64
2, 625862, Note_off_c, 0, 61, 64
2, 625870, Note_off_c, 0, 51, 64
2, 625898, Note_on_c, 0, 75, 41
2, 625909, Note_off_c, 0, 70, 64
2, 625981, Note_on_c, 0, 44, 31
2, 625990, Note_off_c, 0, 75, 64
2, 625992, Note_on_c, 0, 71, 48
2, 625997, Control_c, 0, 64, 0
2, 626033, Control_c, 0, 64, 127
2, 626072, Note_off_c, 0, 71, 64
2, 626111, Note_on_c, 0, 63, 37
2, 626157, Note_on_c, 0, 56, 31
2, 626160, Note_on_c, 0, 68, 45
2, 626166, Note_on_c, 0, 59, 26
2, 626170, Note_off_c, 0, 63, 64
2, 626216, Note_off_c, 0, 56, 64
2, 626232, Note_off_c, 0, 59, 64
2, 626288, Note_off_c, 0, 68, 64
2, 626316, Note_on_c, 0, 59, 28
2, 626318, Note_on_c, 0, 56, 28
2, 626321, Note_on_c, 0, 71, 46
2, 626330, Note_on_c, 0, 63, 36
2, 626337, Control_c, 0, 64, 0
2, 626349, Control_c, 0, 64, 127
2, 626405, Note_off_c, 0, 71, 64
2, 626445, Note_off_c, 0, 56, 64
2, 626451, Note_off_c, 0, 59, 64
2, 626460, Note_off_c, 0, 63, 64
2, 626475, Note_on_c, 0, 75, 45
2, 626522, Note_off_c, 0, 44, 64
2, 626557, Note_off_c, 0, 75, 64
2, 626588, Note_on_c, 0, 76, 45
2, 626635, Note_on_c, 0, 64, 22
2, 626640, Note_on_c, 0, 55, 26
2, 626642, Note_on_c, 0, 58, 26
2, 626645, Note_on_c, 0, 73, 49
2, 626655, Note_off_c, 0, 76, 64
2, 626718, Note_off_c, 0, 55, 64
2, 626725, Note_off_c, 0, 58, 64
2, 626726, Note_off_c, 0, 64, 64
2, 626807, Note_on_c, 0, 58, 20
2, 626811, Note_on_c, 0, 64, 31
2, 626812, Note_on_c, 0, 54, 35
2, 626883, Note_off_c, 0, 64, 64
2, 626883, Note_off_c, 0, 73, 64
2, 626886, Note_off_c, 0, 58, 64
2, 626886, Note_off_c, 0, 54, 64
2, 626890, Note_on_c, 0, 78, 46
2, 626981, Note_on_c, 0, 75, 52
2, 626981, Note_on_c, 0, 47, 31
2, 626988, Note_off_c, 0, 78, 64
2, 626988, Control_c, 0, 64, 0
2, 627012, Control_c, 0, 64, 127
2, 627059, Note_off_c, 0, 75, 64
2, 627059, Note_on_c, 0, 71, 45
2, 627131, Note_on_c, 0, 69, 45
2, 627136, Note_off_c, 0, 71, 64
2, 627140, Note_on_c, 0, 54, 26
2, 627146, Note_on_c, 0, 57, 29
2, 627155, Note_on_c, 0, 63, 24
2, 627158, Control_c, 0, 64, 0
2, 627171, Control_c, 0, 64, 127
2, 627221, Note_off_c, 0, 54, 64
2, 627228, Note_off_c, 0, 57, 64
2, 627237, Note_off_c, 0, 63, 64
2, 627268, Note_off_c, 0, 47, 64
2, 627288, Note_on_c, 0, 73, 32
2, 627295, Note_on_c, 0, 63, 26
2, 627296, Note_on_c, 0, 57, 26
2, 627296, Note_on_c, 0, 54, 26
2, 627346, Note_off_c, 0, 69, 64
2, 627367, Note_off_c, 0, 63, 64
2, 627368, Note_off_c, 0, 54, 64
2, 627368, Note_off_c, 0, 57, 64
2, 627462, Note_on_c, 0, 47, 24
2, 627480, Note_on_c, 0, 71, 27
2, 627495, Note_off_c, 0, 73, 64
2, 627542, Note_off_c, 0, 71, 64
2, 627547, Note_on_c, 0, 68, 40
2, 627610, Note_off_c, 0, 68, 64
2, 627613, Note_on_c, 0, 66, 32
2, 627619, Note_on_c, 0, 57, 23
2, 627619, Note_on_c, 0, 54, 23
2, 627630, Note_on_c, 0, 63, 31
2, 627691, Note_on_c, 0, 69, 32
2, 627693, Note_off_c, 0, 54, 64
2, 627698, Note_off_c, 0, 57, 64
2, 627698, Note_off_c, 0, 66, 64
2, 627724, Note_off_c, 0, 63, 64
2, 627761, Note_on_c, 0, 63, 20
2, 627768, Note_on_c, 0, 75, 37
2, 627772, Note_off_c, 0, 47, 64
2, 627774, Note_off_c, 0, 69, 64
2, 627774, Note_on_c, 0, 57, 24
2, 627783, Note_on_c, 0, 54, 15
2, 627790, Note_on_c, 0, 66, 16
2, 627840, Note_off_c, 0, 75, 64
2, 627842, Note_on_c, 0, 71, 37
2, 627846, Note_off_c, 0, 63, 64
2, 627846, Note_off_c, 0, 66, 64
2, 627871, Note_off_c, 0, 57, 64
2, 627878, Note_off_c, 0, 54, 64
2, 627918, Note_on_c, 0, 69, 37
2, 627920, Note_off_c, 0, 71, 64
2, 627920, Note_on_c, 0, 47, 28
2, 627995, Note_on_c, 0, 73, 37
2, 628017, Note_off_c, 0, 69, 64
2, 628056, Note_on_c, 0, 71, 41
2, 628064, Note_on_c, 0, 63, 29
2, 628064, Note_on_c, 0, 57, 26
2, 628068, Note_off_c, 0, 73, 64
2, 628068, Note_on_c, 0, 54, 16
2, 628126, Note_on_c, 0, 68, 28
2, 628138, Note_off_c, 0, 57, 64
2, 628139, Note_off_c, 0, 71, 64
2, 628142, Note_off_c, 0, 63, 64
2, 628146, Note_off_c, 0, 54, 64
2, 628193, Note_off_c, 0, 68, 64
2, 628198, Note_on_c, 0, 66, 39
2, 628198, Note_on_c, 0, 63, 23
2, 628204, Note_off_c, 0, 47, 64
2, 628204, Note_on_c, 0, 57, 23
2, 628208, Note_on_c, 0, 54, 20
2, 628267, Note_off_c, 0, 66, 64
2, 628268, Note_off_c, 0, 63, 64
2, 628271, Note_on_c, 0, 69, 37
2, 628286, Note_off_c, 0, 57, 64
2, 628298, Note_off_c, 0, 54, 64
2, 628337, Note_on_c, 0, 68, 52
2, 628348, Control_c, 0, 64, 0
2, 628353, Note_off_c, 0, 69, 64
2, 628363, Control_c, 0, 64, 127
2, 628415, Note_on_c, 0, 69, 31
2, 628424, Note_off_c, 0, 68, 64
2, 628486, Note_on_c, 0, 51, 22
2, 628493, Note_on_c, 0, 66, 41
2, 628493, Note_on_c, 0, 47, 22
2, 628496, Note_on_c, 0, 57, 19
2, 628501, Note_off_c, 0, 69, 64
2, 628501, Control_c, 0, 64, 0
2, 628517, Control_c, 0, 64, 127
2, 628558, Note_off_c, 0, 51, 64
2, 628568, Note_off_c, 0, 47, 64
2, 628581, Note_off_c, 0, 57, 64
2, 628645, Note_on_c, 0, 57, 22
2, 628647, Note_on_c, 0, 51, 19
2, 628653, Note_on_c, 0, 47, 14
2, 628711, Note_off_c, 0, 51, 64
2, 628717, Note_off_c, 0, 47, 64
2, 628719, Note_off_c, 0, 57, 64
2, 628720, Note_on_c, 0, 71, 36
2, 628728, Note_off_c, 0, 66, 64
2, 628813, Note_on_c, 0, 40, 18
2, 628817, Note_on_c, 0, 68, 39
2, 628824, Note_off_c, 0, 71, 64
2, 628843, Control_c, 0, 64, 0
2, 628858, Control_c, 0, 64, 127
2, 628938, Note_on_c, 0, 59, 28
2, 628946, Note_off_c, 0, 68, 64
2, 628977, Note_on_c, 0, 64, 37
2, 628980, Note_on_c, 0, 56, 26
2, 628985, Note_on_c, 0, 52, 23
2, 628992, Note_off_c, 0, 59, 64
2, 629044, Note_off_c, 0, 52, 64
2, 629044, Note_off_c, 0, 56, 64
2, 629129, Note_off_c, 0, 64, 64
2, 629136, Note_on_c, 0, 68, 39
2, 629136, Note_on_c, 0, 56, 16
2, 629139, Note_on_c, 0, 52, 16
2, 629144, Note_on_c, 0, 59, 18
2, 629239, Note_off_c, 0, 52, 64
2, 629282, Note_off_c, 0, 68, 64
2, 629289, Note_on_c, 0, 71, 33
2, 629293, Note_on_c, 0, 51, 28
2, 629354, Note_off_c, 0, 59, 64
2, 629357, Note_off_c, 0, 40, 64
2, 629376, Note_off_c, 0, 56, 64
2, 629387, Note_off_c, 0, 51, 64
2, 629394, Note_off_c, 0, 71, 64
2, 629394, Note_on_c, 0, 73, 35
2, 629452, Note_on_c, 0, 70, 29
2, 629455, Note_on_c, 0, 55, 28
2, 629456, Note_on_c, 0, 51, 26
2, 629459, Note_off_c, 0, 73, 64
2, 629459, Note_on_c, 0, 63, 31
2, 629469, Control_c, 0, 64, 0
2, 629485, Control_c, 0, 64, 127
2, 629550, Note_off_c, 0, 55, 64
2, 629553, Note_off_c, 0, 51, 64
2, 629560, Note_off_c, 0, 63, 64
2, 629646, Note_on_c, 0, 61, 27
2, 629656, Note_on_c, 0, 51, 23
2, 629661, Note_on_c, 0, 55, 14
2, 629669, Control_c, 0, 64, 0
2, 629684, Control_c, 0, 64, 127
2, 629751, Note_off_c, 0, 61, 64
2, 629754, Note_off_c, 0, 70, 64
2, 629761, Note_off_c, 0, 51, 64
2, 629762, Note_off_c, 0, 55, 64
2, 629767, Note_on_c, 0, 75, 40
2, 629869, Note_off_c, 0, 75, 64
2, 629871, Note_on_c, 0, 44, 31
2, 629884, Note_on_c, 0, 71, 41
2, 629908, Control_c, 0, 64, 0
2, 629931, Control_c, 0, 64, 127
2, 629954, Note_off_c, 0, 71, 64
2, 629996, Note_on_c, 0, 63, 36
2, 630048, Note_on_c, 0, 68, 48
2, 630057, Note_on_c, 0, 56, 28
2, 630062, Note_off_c, 0, 63, 64
2, 630065, Note_on_c, 0, 59, 26
2, 630067, Control_c, 0, 64, 0
2, 630081, Control_c, 0, 64, 127
2, 630138, Note_off_c, 0, 56, 64
2, 630151, Note_off_c, 0, 59, 64
2, 630157, Note_off_c, 0, 68, 64
2, 630208, Note_on_c, 0, 63, 26
2, 630209, Note_on_c, 0, 71, 46
2, 630209, Note_on_c, 0, 59, 28
2, 630216, Note_on_c, 0, 56, 26
2, 630227, Control_c, 0, 64, 0
2, 630241, Control_c, 0, 64, 127
2, 630306, Note_off_c, 0, 71, 64
2, 630338, Note_off_c, 0, 63, 64
2, 630339, Note_off_c, 0, 59, 64
2, 630345, Note_off_c, 0, 56, 64
2, 630360, Note_on_c, 0, 75, 50
2, 630427, Note_off_c, 0, 44, 64
2, 630475, Note_on_c, 0, 76, 46
2, 630477, Note_off_c, 0, 75, 64
2, 630512, Note_on_c, 0, 55, 28
2, 630519, Note_on_c, 0, 73, 42
2, 630522, Note_on_c, 0, 64, 23
2, 630523, Note_on_c, 0, 59, 28
2, 630542, Note_off_c, 0, 76, 64
2, 630597, Note_off_c, 0, 55, 64
2, 630635, Note_off_c, 0, 59, 64
2, 630639, Note_off_c, 0, 64, 64
2, 630686, Note_on_c, 0, 58, 31
2, 630686, Note_on_c, 0, 54, 31
2, 630689, Note_on_c, 0, 64, 31
2, 630747, Note_off_c, 0, 73, 64
2, 630759, Note_on_c, 0, 78, 46
2, 630767, Note_off_c, 0, 64, 64
2, 630769, Note_off_c, 0, 58, 64
2, 630776, Note_off_c, 0, 54, 64
2, 630856, Note_off_c, 0, 78, 64
2, 630856, Note_on_c, 0, 75, 50
2, 630863, Note_on_c, 0, 47, 28
2, 630875, Control_c, 0, 64, 0
2, 630886, Control_c, 0, 64, 127
2, 630934, Note_on_c, 0, 71, 49
2, 630936, Note_off_c, 0, 75, 64
2, 631008, Note_on_c, 0, 69, 41
2, 631008, Note_on_c, 0, 57, 24
2, 631008, Note_on_c, 0, 54, 24
2, 631012, Note_on_c, 0, 63, 26
2, 631027, Control_c, 0, 64, 0
2, 631033, Note_off_c, 0, 71, 64
2, 631043, Control_c, 0, 64, 127
2, 631091, Note_off_c, 0, 57, 64
2, 631093, Note_off_c, 0, 54, 64
2, 631117, Note_off_c, 0, 63, 64
2, 631184, Note_on_c, 0, 63, 37
2, 631188, Note_on_c, 0, 57, 24
2, 631193, Note_on_c, 0, 54, 29
2, 631256, Note_off_c, 0, 63, 64
2, 631263, Note_off_c, 0, 54, 64
2, 631271, Note_off_c, 0, 57, 64
2, 631276, Note_on_c, 0, 73, 41
2, 631281, Note_off_c, 0, 69, 64
2, 631368, Note_on_c, 0, 71, 46
2, 631374, Note_off_c, 0, 73, 64
2, 631385, Note_off_c, 0, 47, 64
2, 631442, Note_on_c, 0, 68, 42
2, 631448, Note_off_c, 0, 71, 64
2, 631517, Note_off_c, 0, 68, 64
2, 631524, Note_on_c, 0, 66, 42
2, 631531, Note_on_c, 0, 57, 16
2, 631535, Note_on_c, 0, 47, 19
2, 631538, Note_on_c, 0, 51, 16
2, 631604, Note_off_c, 0, 51, 64
2, 631610, Note_off_c, 0, 57, 64
2, 631613, Note_off_c, 0, 47, 64
2, 631704, Note_on_c, 0, 57, 22
2, 631713, Note_on_c, 0, 51, 22
2, 631713, Note_on_c, 0, 47, 26
2, 631772, Note_off_c, 0, 51, 64
2, 631775, Note_off_c, 0, 47, 64
2, 631783, Note_off_c, 0, 57, 64
2, 631795, Note_off_c, 0, 66, 64
2, 631828, Note_on_c, 0, 69, 32
2, 631939, Note_on_c, 0, 40, 28
2, 631943, Note_on_c, 0, 68, 45
2, 631957, Control_c, 0, 64, 0
2, 631959, Note_off_c, 0, 69, 64
2, 631970, Control_c, 0, 64, 127
2, 632097, Note_off_c, 0, 68, 64
2, 632104, Note_on_c, 0, 59, 37
2, 632175, Note_on_c, 0, 56, 26
2, 632178, Note_on_c, 0, 64, 39
2, 632182, Note_on_c, 0, 52, 24
2, 632215, Control_c, 0, 64, 0
2, 632227, Control_c, 0, 64, 127
2, 632243, Note_off_c, 0, 59, 64
2, 632447, Note_off_c, 0, 64, 64
2, 632504, Note_on_c, 0, 64, 42
2, 632532, Control_c, 0, 64, 0
2, 632555, Control_c, 0, 64, 127
2, 632712, Note_off_c, 0, 40, 64
2, 632824, Note_off_c, 0, 52, 64
2, 632870, Note_on_c, 0, 72, 33
2, 632872, Note_on_c, 0, 55, 15
2, 632875, Control_c, 0, 64, 0
2, 632878, Note_off_c, 0, 56, 64
2, 632883, Note_on_c, 0, 61, 14
2, 632899, Control_c, 0, 64, 127
2, 632921, Control_c, 0, 64, 0
2, 632954, Control_c, 0, 64, 127
2, 633020, Note_off_c, 0, 61, 64
2, 633093, Note_off_c, 0, 55, 64
2, 633114, Note_on_c, 0, 70, 26
2, 633132, Note_off_c, 0, 72, 64
2, 633160, Note_on_c, 0, 60, 16
2, 633160, Note_on_c, 0, 56, 1
2, 633180, Note_on_c, 0, 68, 33
2, 633183, Note_on_c, 0, 63, 11
2, 633187, Note_off_c, 0, 64, 64
2, 633224, Note_off_c, 0, 70, 64
2, 633225, Control_c, 0, 64, 0
2, 633262, Control_c, 0, 64, 127
2, 633292, Note_on_c, 0, 70, 35
2, 633323, Note_off_c, 0, 68, 64
2, 633432, Note_on_c, 0, 51, 15
2, 633436, Note_on_c, 0, 72, 36
2, 633451, Note_off_c, 0, 70, 64
2, 633482, Note_off_c, 0, 60, 64
2, 633490, Note_off_c, 0, 63, 64
2, 633494, Note_off_c, 0, 56, 64
2, 633622, Note_off_c, 0, 51, 64
2, 633692, Note_on_c, 0, 64, 27
2, 633696, Note_on_c, 0, 61, 18
2, 633696, Note_on_c, 0, 55, 18
2, 633765, Control_c, 0, 64, 0
2, 633779, Control_c, 0, 64, 127
2, 633793, Note_off_c, 0, 64, 64
2, 633812, Note_off_c, 0, 61, 64
2, 633870, Note_off_c, 0, 55, 64
2, 633893, Note_on_c, 0, 70, 41
2, 633899, Note_off_c, 0, 72, 64
2, 633940, Note_on_c, 0, 68, 49
2, 633953, Note_on_c, 0, 63, 33
2, 633958, Note_off_c, 0, 70, 64
2, 633966, Note_on_c, 0, 60, 18
2, 633972, Note_on_c, 0, 56, 14
2, 633994, Control_c, 0, 64, 0
2, 634016, Control_c, 0, 64, 127
2, 634044, Note_off_c, 0, 68, 64
2, 634064, Note_on_c, 0, 77, 49
2, 634112, Note_off_c, 0, 60, 64
2, 634155, Note_off_c, 0, 56, 64
2, 634184, Note_on_c, 0, 75, 44
2, 634188, Note_on_c, 0, 51, 28
2, 634201, Note_off_c, 0, 77, 64
2, 634256, Note_off_c, 0, 75, 64
2, 634269, Note_off_c, 0, 51, 64
2, 634292, Note_off_c, 0, 63, 64
2, 634428, Note_on_c, 0, 61, 20
2, 634430, Note_on_c, 0, 72, 44
2, 634434, Note_on_c, 0, 64, 24
2, 634439, Note_on_c, 0, 55, 23
2, 634524, Note_off_c, 0, 64, 64
2, 634536, Note_off_c, 0, 61, 64
2, 634601, Note_off_c, 0, 55, 64
2, 634608, Note_off_c, 0, 72, 64
2, 634608, Note_on_c, 0, 70, 27
2, 634665, Note_on_c, 0, 63, 33
2, 634670, Note_on_c, 0, 60, 28
2, 634672, Note_off_c, 0, 70, 64
2, 634678, Note_on_c, 0, 56, 15
2, 634680, Note_on_c, 0, 68, 44
2, 634692, Control_c, 0, 64, 0
2, 634714, Control_c, 0, 64, 127
2, 634794, Note_on_c, 0, 70, 36
2, 634801, Note_off_c, 0, 60, 64
2, 634814, Note_off_c, 0, 56, 64
2, 634828, Note_off_c, 0, 68, 64
2, 634904, Note_on_c, 0, 72, 44
2, 634914, Note_off_c, 0, 70, 64
2, 634921, Note_on_c, 0, 51, 19
2, 634924, Note_off_c, 0, 63, 64
2, 635176, Note_on_c, 0, 63, 29
2, 635176, Note_on_c, 0, 56, 33
2, 635180, Note_on_c, 0, 61, 18
2, 635197, Note_off_c, 0, 51, 64
2, 635200, Note_off_c, 0, 72, 64
2, 635229, Control_c, 0, 64, 0
2, 635261, Control_c, 0, 64, 127
2, 635379, Note_on_c, 0, 55, 29
2, 635385, Note_off_c, 0, 56, 64
2, 635441, Note_on_c, 0, 53, 24
2, 635468, Note_off_c, 0, 55, 64
2, 635599, Note_on_c, 0, 55, 20
2, 635606, Note_off_c, 0, 53, 64
2, 635621, Control_c, 0, 64, 0
2, 635781, Note_on_c, 0, 51, 22
2, 635850, Note_off_c, 0, 55, 64
2, 635863, Control_c, 0, 64, 127
2, 635925, Note_off_c, 0, 51, 64
2, 635939, Note_off_c, 0, 61, 64
2, 635955, Note_off_c, 0, 63, 64
2, 636161, Note_on_c, 0, 72, 36
2, 636167, Note_on_c, 0, 55, 24
2, 636168, Note_on_c, 0, 61, 22
2, 636169, Note_on_c, 0, 64, 22
2, 636191, Control_c, 0, 64, 0
2, 636224, Control_c, 0, 64, 127
2, 636279, Note_off_c, 0, 64, 64
2, 636283, Note_off_c, 0, 61, 64
2, 636303, Note_off_c, 0, 55, 64
2, 636339, Note_on_c, 0, 70, 36
2, 636357, Note_off_c, 0, 72, 64
2, 636393, Note_on_c, 0, 63, 18
2, 636396, Note_on_c, 0, 68, 50
2, 636401, Note_on_c, 0, 56, 16
2, 636410, Note_off_c, 0, 70, 64
2, 636506, Note_on_c, 0, 70, 49
2, 636531, Note_off_c, 0, 56, 64
2, 636532, Note_off_c, 0, 68, 64
2, 636613, Note_on_c, 0, 72, 44
2, 636617, Note_off_c, 0, 70, 64
2, 636617, Note_on_c, 0, 51, 29
2, 636632, Control_c, 0, 64, 0
2, 636655, Control_c, 0, 64, 127
2, 636689, Note_off_c, 0, 51, 64
2, 636691, Note_off_c, 0, 63, 64
2, 636825, Note_on_c, 0, 64, 29
2, 636825, Note_on_c, 0, 61, 29
2, 636832, Note_on_c, 0, 55, 28
2, 636900, Note_off_c, 0, 64, 64
2, 636907, Note_off_c, 0, 61, 64
2, 636933, Note_off_c, 0, 55, 64
2, 636992, Note_on_c, 0, 70, 41
2, 637008, Note_off_c, 0, 72, 64
2, 637036, Note_on_c, 0, 63, 36
2, 637039, Note_on_c, 0, 60, 36
2, 637046, Note_on_c, 0, 68, 39
2, 637049, Note_on_c, 0, 56, 16
2, 637058, Note_off_c, 0, 70, 64
2, 637104, Note_off_c, 0, 60, 64
2, 637157, Note_on_c, 0, 79, 46
2, 637248, Note_off_c, 0, 56, 64
2, 637262, Note_on_c, 0, 77, 44
2, 637274, Note_off_c, 0, 79, 64
2, 637278, Note_on_c, 0, 59, 35
2, 637280, Control_c, 0, 64, 0
2, 637307, Control_c, 0, 64, 127
2, 637328, Note_off_c, 0, 68, 64
2, 637355, Note_off_c, 0, 59, 64
2, 637486, Note_on_c, 0, 70, 46
2, 637491, Note_on_c, 0, 67, 41
2, 637499, Note_off_c, 0, 77, 64
2, 637500, Note_on_c, 0, 51, 29
2, 637520, Note_on_c, 0, 58, 11
2, 637523, Control_c, 0, 64, 0
2, 637546, Control_c, 0, 64, 127
2, 637579, Note_off_c, 0, 58, 64
2, 637604, Note_off_c, 0, 67, 64
2, 637625, Note_off_c, 0, 63, 64
2, 637681, Note_off_c, 0, 51, 64
2, 637709, Note_off_c, 0, 70, 64
2, 637712, Note_on_c, 0, 68, 49
2, 637717, Note_on_c, 0, 62, 24
2, 637720, Note_on_c, 0, 59, 29
2, 637732, Control_c, 0, 64, 0
2, 637765, Control_c, 0, 64, 127
2, 637893, Note_on_c, 0, 79, 35
2, 637944, Note_on_c, 0, 77, 45
2, 637944, Note_on_c, 0, 51, 22
2, 637968, Control_c, 0, 64, 0
2, 637971, Note_off_c, 0, 79, 64
2, 637988, Note_off_c, 0, 59, 64
2, 637991, Note_off_c, 0, 62, 64
2, 637997, Control_c, 0, 64, 127
2, 637999, Note_off_c, 0, 68, 64
2, 638193, Note_off_c, 0, 51, 64
2, 638193, Note_on_c, 0, 68, 44
2, 638197, Note_off_c, 0, 77, 64
2, 638203, Note_on_c, 0, 59, 29
2, 638206, Note_on_c, 0, 62, 24
2, 638239, Control_c, 0, 64, 0
2, 638262, Control_c, 0, 64, 127
2, 638422, Note_on_c, 0, 79, 28
2, 638479, Note_on_c, 0, 51, 24
2, 638481, Note_on_c, 0, 77, 31
2, 638496, Note_off_c, 0, 79, 64
2, 638519, Control_c, 0, 64, 0
2, 638536, Note_off_c, 0, 59, 64
2, 638542, Control_c, 0, 64, 127
2, 638552, Note_off_c, 0, 62, 64
2, 638582, Note_off_c, 0, 68, 64
2, 638866, Note_off_c, 0, 77, 64
2, 638868, Note_on_c, 0, 70, 33
2, 638874, Note_on_c, 0, 63, 14
2, 638884, Note_on_c, 0, 67, 27
2, 638884, Note_on_c, 0, 58, 14
2, 638934, Control_c, 0, 64, 0
2, 638980, Control_c, 0, 64, 127
2, 639110, Note_off_c, 0, 51, 64
2, 639153, Note_off_c, 0, 58, 64
2, 639170, Note_off_c, 0, 63, 64
2, 639219, Note_off_c, 0, 67, 64
2, 639222, Note_off_c, 0, 70, 64
2, 639435, Note_on_c, 0, 72, 41
2, 639437, Note_on_c, 0, 61, 23
2, 639444, Note_on_c, 0, 55, 24
2, 639447, Note_on_c, 0, 64, 24
2, 639480, Control_c, 0, 64, 0
2, 639528, Control_c, 0, 64, 127
2, 639555, Note_off_c, 0, 61, 64
2, 639556, Note_off_c, 0, 64, 64
2, 639614, Note_off_c, 0, 55, 64
2, 639616, Note_on_c, 0, 70, 27
2, 639623, Note_off_c, 0, 72, 64
2, 639666, Note_on_c, 0, 68, 42
2, 639677, Note_on_c, 0, 63, 28
2, 639683, Note_off_c, 0, 70, 64
2, 639689, Note_on_c, 0, 56, 13
2, 639691, Note_on_c, 0, 60, 22
2, 639710, Control_c, 0, 64, 0
2, 639733, Control_c, 0, 64, 127
2, 639775, Note_on_c, 0, 70, 44
2, 639782, Note_off_c, 0, 68, 64
2, 639844, Note_off_c, 0, 56, 64
2, 639850, Note_off_c, 0, 60, 64
2, 639886, Note_on_c, 0, 72, 36
2, 639898, Note_on_c, 0, 51, 16
2, 639904, Note_off_c, 0, 70, 64
2, 639908, Control_c, 0, 64, 0
2, 639932, Control_c, 0, 64, 127
2, 639978, Note_off_c, 0, 63, 64
2, 639980, Note_off_c, 0, 51, 64
2, 640092, Note_on_c, 0, 61, 28
2, 640101, Note_on_c, 0, 64, 29
2, 640114, Note_on_c, 0, 55, 16
2, 640122, Control_c, 0, 64, 0
2, 640138, Control_c, 0, 64, 127
2, 640173, Note_off_c, 0, 64, 64
2, 640190, Note_off_c, 0, 61, 64
2, 640226, Note_off_c, 0, 72, 64
2, 640229, Note_off_c, 0, 55, 64
2, 640232, Note_on_c, 0, 70, 42
2, 640286, Note_on_c, 0, 68, 41
2, 640291, Note_off_c, 0, 70, 64
2, 640296, Note_on_c, 0, 63, 29
2, 640302, Note_on_c, 0, 60, 27
2, 640304, Note_on_c, 0, 56, 16
2, 640393, Note_on_c, 0, 77, 36
2, 640448, Note_off_c, 0, 56, 64
2, 640471, Note_off_c, 0, 60, 64
2, 640500, Note_on_c, 0, 75, 36
2, 640501, Note_on_c, 0, 51, 33
2, 640502, Note_off_c, 0, 68, 64
2, 640512, Note_off_c, 0, 77, 64
2, 640559, Note_off_c, 0, 75, 64
2, 640564, Note_off_c, 0, 51, 64
2, 640600, Note_off_c, 0, 63, 64
2, 640733, Note_on_c, 0, 72, 36
2, 640733, Note_on_c, 0, 61, 29
2, 640739, Note_on_c, 0, 55, 27
2, 640743, Note_on_c, 0, 64, 22
2, 640825, Note_off_c, 0, 64, 64
2, 640864, Note_off_c, 0, 61, 64
2, 640891, Note_on_c, 0, 70, 36
2, 640908, Note_off_c, 0, 72, 64
2, 640946, Note_off_c, 0, 55, 64
2, 640993, Note_on_c, 0, 67, 33
2, 640998, Note_on_c, 0, 63, 33
2, 641005, Note_on_c, 0, 56, 20
2, 641009, Note_off_c, 0, 70, 64
2, 641009, Note_on_c, 0, 60, 24
2, 641034, Control_c, 0, 64, 0
2, 641047, Control_c, 0, 64, 127
2, 641081, Note_on_c, 0, 68, 28
2, 641104, Note_off_c, 0, 67, 64
2, 641126, Note_off_c, 0, 60, 64
2, 641158, Note_on_c, 0, 70, 28
2, 641166, Note_off_c, 0, 56, 64
2, 641178, Note_off_c, 0, 68, 64
2, 641240, Note_off_c, 0, 63, 64
2, 641250, Note_on_c, 0, 51, 33
2, 641261, Note_on_c, 0, 71, 29
2, 641263, Control_c, 0, 64, 0
2, 641297, Note_off_c, 0, 70, 64
2, 641316, Control_c, 0, 64, 127
2, 641329, Note_on_c, 0, 73, 36
2, 641339, Note_off_c, 0, 71, 64
2, 641407, Note_off_c, 0, 73, 64
2, 641461, Note_on_c, 0, 72, 22
2, 641483, Note_off_c, 0, 72, 64
2, 641522, Note_on_c, 0, 72, 36
2, 641558, Note_on_c, 0, 63, 36
2, 641565, Note_off_c, 0, 72, 64
2, 641582, Note_on_c, 0, 61, 16
2, 641588, Note_on_c, 0, 56, 23
2, 641611, Note_off_c, 0, 51, 64
2, 641618, Control_c, 0, 64, 0
2, 641748, Note_on_c, 0, 55, 29
2, 641752, Note_off_c, 0, 56, 64
2, 641756, Control_c, 0, 64, 127
2, 641814, Note_on_c, 0, 53, 32
2, 641819, Note_off_c, 0, 55, 64
2, 641958, Note_on_c, 0, 55, 23
2, 641958, Control_c, 0, 64, 0
2, 641965, Note_off_c, 0, 53, 64
2, 642118, Note_on_c, 0, 51, 29
2, 642157, Note_off_c, 0, 55, 64
2, 642246, Control_c, 0, 64, 127
2, 642292, Note_off_c, 0, 51, 64
2, 642328, Note_off_c, 0, 61, 64
2, 642328, Note_off_c, 0, 63, 64
2, 642492, Note_on_c, 0, 64, 37
2, 642495, Note_on_c, 0, 61, 36
2, 642501, Note_on_c, 0, 55, 37
2, 642503, Note_on_c, 0, 72, 45
2, 642521, Control_c, 0, 64, 0
2, 642557, Control_c, 0, 64, 127
2, 642570, Note_off_c, 0, 64, 64
2, 642595, Note_off_c, 0, 61, 64
2, 642661, Note_off_c, 0, 55, 64
2, 642664, Note_on_c, 0, 70, 33
2, 642671, Note_off_c, 0, 72, 64
2, 642713, Note_on_c, 0, 56, 20
2, 642717, Note_on_c, 0, 68, 45
2, 642720, Note_on_c, 0, 63, 33
2, 642733, Note_off_c, 0, 70, 64
2, 642733, Note_on_c, 0, 60, 31
2, 642746, Control_c, 0, 64, 0
2, 642760, Control_c, 0, 64, 127
2, 642824, Note_on_c, 0, 70, 35
2, 642835, Note_off_c, 0, 68, 64
2, 642837, Note_off_c, 0, 60, 64
2, 642884, Note_off_c, 0, 56, 64
2, 642913, Note_on_c, 0, 72, 46
2, 642919, Note_off_c, 0, 70, 64
2, 642932, Note_on_c, 0, 51, 31
2, 642940, Control_c, 0, 64, 0
2, 642963, Control_c, 0, 64, 127
2, 642979, Note_off_c, 0, 51, 64
2, 643001, Note_off_c, 0, 63, 64
2, 643117, Note_on_c, 0, 61, 26
2, 643125, Note_on_c, 0, 64, 27
2, 643136, Note_on_c, 0, 55, 18
2, 643184, Note_off_c, 0, 61, 64
2, 643189, Note_off_c, 0, 64, 64
2, 643201, Note_on_c, 0, 70, 39
2, 643202, Note_off_c, 0, 72, 64
2, 643207, Note_off_c, 0, 55, 64
2, 643244, Note_on_c, 0, 72, 44
2, 643263, Note_off_c, 0, 70, 64
2, 643273, Note_on_c, 0, 70, 50
2, 643287, Note_off_c, 0, 72, 64
2, 643320, Note_on_c, 0, 68, 50
2, 643327, Note_on_c, 0, 56, 28
2, 643329, Note_on_c, 0, 63, 31
2, 643331, Note_on_c, 0, 60, 36
2, 643336, Note_off_c, 0, 70, 64
2, 643338, Control_c, 0, 64, 0
2, 643351, Control_c, 0, 64, 127
2, 643365, Note_off_c, 0, 56, 64
2, 643368, Note_off_c, 0, 60, 64
2, 643380, Note_off_c, 0, 68, 64
2, 643390, Note_off_c, 0, 63, 64
2, 643486, Note_on_c, 0, 80, 50
2, 643531, Note_on_c, 0, 62, 50
2, 643535, Note_on_c, 0, 77, 54
2, 643539, Note_on_c, 0, 71, 46
2, 643539, Note_on_c, 0, 68, 46
2, 643547, Note_off_c, 0, 80, 64
2, 643638, Note_off_c, 0, 71, 64
2, 643656, Note_off_c, 0, 77, 64
2, 643660, Note_off_c, 0, 68, 64
2, 643668, Note_off_c, 0, 62, 64
2, 643744, Note_on_c, 0, 70, 50
2, 643748, Note_on_c, 0, 63, 54
2, 643758, Note_on_c, 0, 67, 45
2, 643765, Control_c, 0, 64, 0
2, 643798, Control_c, 0, 64, 127
2, 643827, Note_off_c, 0, 67, 64
2, 643902, Note_on_c, 0, 72, 50
2, 643908, Note_off_c, 0, 63, 64
2, 643908, Note_off_c, 0, 70, 64
2, 643935, Note_on_c, 0, 58, 55
2, 643943, Note_on_c, 0, 73, 65
2, 643943, Note_on_c, 0, 65, 52
2, 643963, Note_off_c, 0, 72, 64
2, 643987, Note_off_c, 0, 65, 64
2, 644000, Note_off_c, 0, 58, 64
2, 644099, Note_off_c, 0, 73, 64
2, 644138, Note_on_c, 0, 72, 58
2, 644138, Note_on_c, 0, 67, 55
2, 644138, Note_on_c, 0, 51, 24
2, 644147, Note_on_c, 0, 63, 52
2, 644210, Note_off_c, 0, 51, 64
2, 644258, Note_off_c, 0, 72, 64
2, 644281, Note_on_c, 0, 70, 45
2, 644282, Note_on_c, 0, 61, 52
2, 644290, Note_off_c, 0, 63, 64
2, 644304, Note_off_c, 0, 67, 64
2, 644333, Note_on_c, 0, 73, 59
2, 644336, Note_on_c, 0, 65, 62
2, 644336, Note_on_c, 0, 56, 29
2, 644357, Note_off_c, 0, 70, 64
2, 644363, Note_off_c, 0, 61, 64
2, 644374, Control_c, 0, 64, 0
2, 644406, Control_c, 0, 64, 127
2, 644516, Note_on_c, 0, 72, 42
2, 644516, Note_on_c, 0, 63, 42
2, 644520, Note_off_c, 0, 73, 64
2, 644555, Note_off_c, 0, 65, 64
2, 644570, Note_on_c, 0, 68, 42
2, 644572, Note_on_c, 0, 60, 36
2, 644580, Note_off_c, 0, 72, 64
2, 644594, Note_off_c, 0, 63, 64
2, 644726, Control_c, 0, 64, 0
2, 644857, Note_on_c, 0, 65, 48
2, 644877, Note_off_c, 0, 68, 64
2, 644952, Control_c, 0, 64, 127
2, 644991, Note_off_c, 0, 56, 64
2, 645004, Note_off_c, 0, 60, 64
2, 645156, Note_on_c, 0, 73, 57
2, 645175, Control_c, 0, 64, 0
2, 645197, Note_off_c, 0, 65, 64
2, 645220, Control_c, 0, 64, 127
2, 645368, Note_on_c, 0, 70, 57
2, 645372, Note_on_c, 0, 61, 44
2, 645372, Note_on_c, 0, 46, 44
2, 645383, Note_on_c, 0, 53, 46
2, 645390, Note_off_c, 0, 73, 64
2, 645393, Control_c, 0, 64, 0
2, 645414, Control_c, 0, 64, 127
2, 645444, Note_off_c, 0, 46, 64
2, 645444, Note_off_c, 0, 61, 64
2, 645447, Note_off_c, 0, 53, 64
2, 645511, Note_on_c, 0, 73, 44
2, 645548, Note_off_c, 0, 70, 64
2, 645564, Note_on_c, 0, 61, 54
2, 645567, Note_on_c, 0, 46, 49
2, 645571, Note_on_c, 0, 65, 55
2, 645574, Note_on_c, 0, 77, 53
2, 645576, Note_on_c, 0, 53, 40
2, 645583, Note_off_c, 0, 73, 64
2, 645598, Control_c, 0, 64, 0
2, 645640, Control_c, 0, 64, 127
2, 645675, Note_off_c, 0, 65, 64
2, 645755, Note_off_c, 0, 77, 64
2, 645770, Note_on_c, 0, 76, 57
2, 645774, Note_off_c, 0, 53, 64
2, 645780, Note_off_c, 0, 61, 64
2, 645786, Note_off_c, 0, 46, 64
2, 645900, Note_on_c, 0, 72, 55
2, 645907, Note_off_c, 0, 76, 64
2, 645936, Note_on_c, 0, 46, 46
2, 645940, Note_on_c, 0, 60, 48
2, 645944, Note_on_c, 0, 53, 49
2, 645951, Note_on_c, 0, 75, 53
2, 645964, Control_c, 0, 64, 0
2, 645969, Note_off_c, 0, 72, 64
2, 645987, Control_c, 0, 64, 127
2, 646006, Note_off_c, 0, 60, 64
2, 646018, Note_off_c, 0, 53, 64
2, 646019, Note_off_c, 0, 46, 64
2, 646051, Note_on_c, 0, 73, 62
2, 646062, Note_off_c, 0, 75, 64
2, 646118, Note_on_c, 0, 61, 53
2, 646118, Note_on_c, 0, 46, 49
2, 646126, Note_on_c, 0, 82, 62
2, 646126, Note_on_c, 0, 53, 48
2, 646128, Note_on_c, 0, 70, 57
2, 646136, Note_off_c, 0, 73, 64
2, 646144, Control_c, 0, 64, 0
2, 646177, Control_c, 0, 64, 127
2, 646201, Note_off_c, 0, 82, 64
2, 646245, Note_on_c, 0, 73, 62
2, 646252, Note_off_c, 0, 70, 64
2, 646277, Note_on_c, 0, 75, 58
2, 646281, Note_off_c, 0, 73, 64
2, 646306, Note_off_c, 0, 53, 64
2, 646308, Note_on_c, 0, 73, 62
2, 646316, Note_off_c, 0, 61, 64
2, 646320, Note_off_c, 0, 46, 64
2, 646321, Note_off_c, 0, 75, 64
2, 646479, Note_on_c, 0, 70, 58
2, 646480, Note_on_c, 0, 61, 63
2, 646480, Note_on_c, 0, 53, 48
2, 646481, Note_off_c, 0, 73, 64
2, 646481, Note_on_c, 0, 46, 62
2, 646499, Control_c, 0, 64, 0
2, 646517, Note_off_c, 0, 53, 64
2, 646517, Note_off_c, 0, 61, 64
2, 646519, Note_off_c, 0, 46, 64
2, 646522, Control_c, 0, 64, 127
2, 646571, Note_on_c, 0, 73, 48
2, 646579, Note_off_c, 0, 70, 64
2, 646654, Note_off_c, 0, 73, 64
2, 646657, Note_on_c, 0, 77, 57
2, 646658, Note_on_c, 0, 65, 61
2, 646663, Note_on_c, 0, 46, 58
2, 646664, Note_on_c, 0, 61, 63
2, 646669, Note_on_c, 0, 53, 48
2, 646671, Control_c, 0, 64, 0
2, 646707, Control_c, 0, 64, 127
2, 646752, Note_off_c, 0, 65, 64
2, 646833, Note_on_c, 0, 76, 53
2, 646867, Note_off_c, 0, 53, 64
2, 646867, Note_off_c, 0, 61, 64
2, 646869, Note_off_c, 0, 46, 64
2, 646905, Note_on_c, 0, 72, 54
2, 646921, Note_off_c, 0, 76, 64
2, 646987, Note_on_c, 0, 75, 63
2, 646995, Note_on_c, 0, 53, 50
2, 646997, Note_off_c, 0, 72, 64
2, 647001, Note_on_c, 0, 60, 55
2, 647001, Note_on_c, 0, 46, 50
2, 647011, Control_c, 0, 64, 0
2, 647026, Control_c, 0, 64, 127
2, 647046, Note_off_c, 0, 46, 64
2, 647058, Note_off_c, 0, 60, 64
2, 647062, Note_off_c, 0, 53, 64
2, 647062, Note_on_c, 0, 73, 66
2, 647066, Note_off_c, 0, 75, 64
2, 647148, Note_on_c, 0, 82, 70
2, 647154, Note_off_c, 0, 73, 64
2, 647158, Note_on_c, 0, 70, 66
2, 647162, Note_on_c, 0, 61, 62
2, 647170, Note_on_c, 0, 46, 58
2, 647174, Note_on_c, 0, 53, 50
2, 647175, Note_off_c, 0, 77, 64
2, 647181, Control_c, 0, 64, 0
2, 647206, Control_c, 0, 64, 127
2, 647295, Note_off_c, 0, 70, 64
2, 647313, Note_on_c, 0, 76, 55
2, 647351, Note_off_c, 0, 53, 64
2, 647355, Note_off_c, 0, 61, 64
2, 647364, Note_off_c, 0, 46, 64
2, 647380, Note_off_c, 0, 76, 64
2, 647380, Note_on_c, 0, 72, 58
2, 647466, Note_on_c, 0, 75, 63
2, 647473, Note_on_c, 0, 46, 49
2, 647478, Note_on_c, 0, 60, 58
2, 647480, Note_on_c, 0, 53, 49
2, 647484, Note_off_c, 0, 72, 64
2, 647494, Control_c, 0, 64, 0
2, 647505, Control_c, 0, 64, 127
2, 647532, Note_off_c, 0, 60, 64
2, 647534, Note_off_c, 0, 46, 64
2, 647538, Note_off_c, 0, 53, 64
2, 647541, Note_on_c, 0, 73, 66
2, 647547, Note_off_c, 0, 75, 64
2, 647619, Note_off_c, 0, 82, 64
2, 647639, Note_on_c, 0, 82, 66
2, 647643, Note_on_c, 0, 70, 66
2, 647645, Note_off_c, 0, 73, 64
2, 647655, Note_on_c, 0, 61, 55
2, 647658, Note_on_c, 0, 46, 39
2, 647664, Note_on_c, 0, 53, 40
2, 647676, Control_c, 0, 64, 0
2, 647691, Control_c, 0, 64, 127
2, 647815, Note_off_c, 0, 70, 64
2, 647815, Note_on_c, 0, 76, 58
2, 647874, Note_off_c, 0, 53, 64
2, 647878, Note_off_c, 0, 61, 64
2, 647887, Note_off_c, 0, 46, 64
2, 647900, Note_off_c, 0, 76, 64
2, 647903, Note_on_c, 0, 72, 62
2, 648001, Note_on_c, 0, 75, 66
2, 648011, Note_on_c, 0, 46, 46
2, 648015, Note_on_c, 0, 60, 54
2, 648018, Note_on_c, 0, 53, 49
2, 648024, Note_off_c, 0, 72, 64
2, 648031, Control_c, 0, 64, 0
2, 648041, Control_c, 0, 64, 127
2, 648093, Note_on_c, 0, 73, 63
2, 648094, Note_off_c, 0, 75, 64
2, 648101, Note_off_c, 0, 53, 64
2, 648106, Note_off_c, 0, 60, 64
2, 648107, Note_off_c, 0, 46, 64
2, 648178, Note_off_c, 0, 82, 64
2, 648227, Note_on_c, 0, 70, 53
2, 648229, Note_on_c, 0, 82, 62
2, 648234, Note_off_c, 0, 73, 64
2, 648234, Note_on_c, 0, 61, 50
2, 648240, Note_on_c, 0, 46, 41
2, 648242, Note_on_c, 0, 53, 33
2, 648283, Control_c, 0, 64, 0
2, 648310, Control_c, 0, 64, 127
2, 648472, Note_off_c, 0, 82, 64
2, 648474, Note_off_c, 0, 53, 64
2, 648477, Note_on_c, 0, 73, 59
2, 648484, Note_off_c, 0, 70, 64
2, 648486, Note_off_c, 0, 46, 64
2, 648520, Note_off_c, 0, 61, 64
2, 648726, Note_on_c, 0, 55, 26
2, 648729, Note_on_c, 0, 64, 36
2, 648729, Note_on_c, 0, 58, 36
2, 648751, Control_c, 0, 64, 0
2, 648785, Control_c, 0, 64, 127
2, 648879, Note_off_c, 0, 64, 64
2, 648883, Note_off_c, 0, 58, 64
2, 648909, Note_off_c, 0, 55, 64
2, 649052, Note_on_c, 0, 56, 26
2, 649060, Note_on_c, 0, 71, 48
2, 649066, Note_on_c, 0, 64, 32
2, 649073, Note_off_c, 0, 73, 64
2, 649080, Note_on_c, 0, 59, 22
2, 649230, Note_off_c, 0, 56, 64
2, 649235, Note_off_c, 0, 59, 64
2, 649255, Note_off_c, 0, 64, 64
2, 649332, Note_on_c, 0, 73, 49
2, 649347, Note_on_c, 0, 55, 27
2, 649348, Note_on_c, 0, 58, 22
2, 649353, Note_on_c, 0, 64, 27
2, 649356, Note_off_c, 0, 71, 64
2, 649384, Control_c, 0, 64, 0
2, 649413, Control_c, 0, 64, 127
2, 649501, Note_off_c, 0, 64, 64
2, 649530, Note_off_c, 0, 58, 64
2, 649595, Note_off_c, 0, 55, 64
2, 649619, Note_on_c, 0, 71, 40
2, 649626, Note_on_c, 0, 64, 24
2, 649626, Note_on_c, 0, 56, 23
2, 649631, Note_on_c, 0, 59, 40
2, 649636, Note_off_c, 0, 73, 64
2, 649682, Control_c, 0, 64, 0
2, 649695, Control_c, 0, 64, 127
2, 649844, Note_off_c, 0, 59, 64
2, 649914, Note_off_c, 0, 64, 64
2, 649917, Note_off_c, 0, 56, 64
2, 649960, Note_on_c, 0, 64, 19
2, 649960, Note_on_c, 0, 55, 27
2, 649968, Note_on_c, 0, 61, 27
2, 649981, Note_on_c, 0, 70, 37
2, 650009, Note_off_c, 0, 71, 64
2, 650071, Control_c, 0, 64, 0
2, 650120, Control_c, 0, 64, 127
2, 650472, Note_on_c, 0, 72, 42
2, 650492, Note_off_c, 0, 70, 64
2, 650495, Control_c, 0, 64, 0
2, 650510, Note_off_c, 0, 64, 64
2, 650512, Control_c, 0, 64, 127
2, 650518, Note_off_c, 0, 55, 64
2, 650525, Note_off_c, 0, 61, 64
2, 650712, Note_on_c, 0, 70, 44
2, 650745, Note_off_c, 0, 72, 64
2, 650765, Note_off_c, 0, 70, 64
2, 650770, Note_on_c, 0, 56, 24
2, 650780, Note_on_c, 0, 63, 29
2, 650782, Note_on_c, 0, 68, 45
2, 650790, Note_on_c, 0, 60, 36
2, 650912, Note_off_c, 0, 56, 64
2, 650925, Note_on_c, 0, 70, 50
2, 650938, Note_off_c, 0, 68, 64
2, 651017, Note_off_c, 0, 60, 64
2, 651030, Note_off_c, 0, 70, 64
2, 651032, Note_on_c, 0, 72, 55
2, 651039, Note_on_c, 0, 51, 40
2, 651063, Control_c, 0, 64, 0
2, 651078, Control_c, 0, 64, 127
2, 651124, Note_off_c, 0, 51, 64
2, 651145, Note_off_c, 0, 63, 64
2, 651252, Note_on_c, 0, 61, 32
2, 651258, Note_on_c, 0, 64, 36
2, 651265, Note_on_c, 0, 55, 24
2, 651291, Control_c, 0, 64, 0
2, 651304, Control_c, 0, 64, 127
2, 651328, Note_off_c, 0, 72, 64
2, 651337, Note_off_c, 0, 64, 64
2, 651364, Note_off_c, 0, 61, 64
2, 651380, Note_off_c, 0, 55, 64
2, 651425, Note_on_c, 0, 70, 53
2, 651471, Note_on_c, 0, 68, 55
2, 651471, Note_on_c, 0, 56, 40
2, 651474, Note_on_c, 0, 63, 48
2, 651484, Note_off_c, 0, 70, 64
2, 651494, Note_on_c, 0, 60, 24
2, 651629, Note_on_c, 0, 77, 40
2, 651631, Note_off_c, 0, 56, 64
2, 651654, Note_off_c, 0, 60, 64
2, 651685, Note_on_c, 0, 75, 52
2, 651688, Note_off_c, 0, 77, 64
2, 651691, Note_on_c, 0, 51, 42
2, 651743, Note_off_c, 0, 75, 64
2, 651757, Note_off_c, 0, 51, 64
2, 651757, Note_off_c, 0, 68, 64
2, 651772, Note_off_c, 0, 63, 64
2, 651924, Note_on_c, 0, 61, 32
2, 651926, Note_on_c, 0, 55, 39
2, 651930, Note_on_c, 0, 72, 53
2, 651935, Note_on_c, 0, 64, 29
2, 651955, Control_c, 0, 64, 0
2, 651968, Control_c, 0, 64, 127
2, 652008, Note_off_c, 0, 64, 64
2, 652032, Note_off_c, 0, 61, 64
2, 652081, Note_on_c, 0, 70, 50
2, 652097, Note_off_c, 0, 72, 64
2, 652106, Note_off_c, 0, 55, 64
2, 652181, Note_on_c, 0, 68, 45
2, 652188, Note_on_c, 0, 63, 28
2, 652192, Note_on_c, 0, 56, 22
2, 652197, Note_on_c, 0, 60, 32
2, 652198, Note_off_c, 0, 70, 64
2, 652205, Control_c, 0, 64, 0
2, 652218, Control_c, 0, 64, 127
2, 652287, Note_off_c, 0, 68, 64
2, 652295, Note_on_c, 0, 70, 32
2, 652299, Note_off_c, 0, 60, 64
2, 652346, Note_off_c, 0, 70, 64
2, 652352, Note_off_c, 0, 63, 64
2, 652384, Note_off_c, 0, 56, 64
2, 652408, Note_on_c, 0, 71, 46
2, 652416, Note_on_c, 0, 51, 29
2, 652485, Note_on_c, 0, 73, 49
2, 652488, Note_off_c, 0, 71, 64
2, 652545, Note_off_c, 0, 73, 64
2, 652619, Note_on_c, 0, 72, 52
2, 652644, Note_off_c, 0, 72, 64
2, 652679, Note_on_c, 0, 72, 57
2, 652714, Note_on_c, 0, 63, 53
2, 652722, Note_on_c, 0, 56, 40
2, 652725, Note_off_c, 0, 72, 64
2, 652727, Note_on_c, 0, 61, 32
2, 652735, Note_off_c, 0, 51, 64
2, 652790, Control_c, 0, 64, 0
2, 652901, Note_on_c, 0, 55, 44
2, 652904, Note_off_c, 0, 56, 64
2, 652956, Note_on_c, 0, 53, 40
2, 652960, Note_off_c, 0, 55, 64
2, 653068, Note_off_c, 0, 53, 64
2, 653087, Note_on_c, 0, 55, 32
2, 653242, Note_on_c, 0, 51, 35
2, 653308, Control_c, 0, 64, 127
2, 653352, Note_off_c, 0, 55, 64
2, 653383, Note_off_c, 0, 51, 64
2, 653392, Note_off_c, 0, 63, 64
2, 653415, Note_off_c, 0, 61, 64
2, 653618, Note_on_c, 0, 72, 53
2, 653621, Note_on_c, 0, 61, 42
2, 653627, Note_on_c, 0, 55, 42
2, 653629, Note_on_c, 0, 64, 40
2, 653637, Control_c, 0, 64, 0
2, 653680, Control_c, 0, 64, 127
2, 653719, Note_off_c, 0, 64, 64
2, 653719, Note_off_c, 0, 61, 64
2, 653791, Note_off_c, 0, 55, 64
2, 653799, Note_on_c, 0, 70, 50
2, 653808, Note_off_c, 0, 72, 64
2, 653832, Note_on_c, 0, 56, 29
2, 653843, Note_on_c, 0, 63, 44
2, 653848, Note_on_c, 0, 68, 58
2, 653867, Note_off_c, 0, 70, 64
2, 653870, Note_on_c, 0, 60, 23
2, 653893, Control_c, 0, 64, 0
2, 653907, Control_c, 0, 64, 127
2, 653951, Note_on_c, 0, 70, 41
2, 653953, Note_off_c, 0, 56, 64
2, 653956, Note_off_c, 0, 68, 64
2, 653996, Note_off_c, 0, 60, 64
2, 654057, Note_on_c, 0, 72, 54
2, 654057, Note_on_c, 0, 51, 40
2, 654073, Control_c, 0, 64, 0
2, 654080, Note_off_c, 0, 70, 64
2, 654086, Control_c, 0, 64, 127
2, 654132, Note_off_c, 0, 51, 64
2, 654139, Note_off_c, 0, 63, 64
2, 654253, Note_on_c, 0, 61, 41
2, 654259, Note_on_c, 0, 64, 40
2, 654260, Note_on_c, 0, 55, 36
2, 654277, Control_c, 0, 64, 0
2, 654290, Control_c, 0, 64, 127
2, 654328, Note_off_c, 0, 64, 64
2, 654336, Note_off_c, 0, 61, 64
2, 654404, Note_off_c, 0, 55, 64
2, 654411, Note_on_c, 0, 70, 54
2, 654431, Note_off_c, 0, 72, 64
2, 654456, Note_on_c, 0, 63, 49
2, 654460, Note_on_c, 0, 56, 32
2, 654466, Note_on_c, 0, 60, 40
2, 654468, Note_on_c, 0, 68, 48
2, 654492, Note_off_c, 0, 70, 64
2, 654542, Note_off_c, 0, 60, 64
2, 654571, Note_on_c, 0, 79, 52
2, 654619, Note_off_c, 0, 68, 64
2, 654666, Note_on_c, 0, 77, 50
2, 654678, Note_on_c, 0, 59, 49
2, 654688, Note_off_c, 0, 79, 64
2, 654688, Note_off_c, 0, 56, 64
2, 654761, Note_off_c, 0, 59, 64
2, 654871, Note_off_c, 0, 77, 64
2, 654882, Note_on_c, 0, 70, 55
2, 654884, Note_on_c, 0, 67, 45
2, 654889, Note_on_c, 0, 51, 36
2, 654917, Control_c, 0, 64, 0
2, 654931, Control_c, 0, 64, 127
2, 654973, Note_off_c, 0, 67, 64
2, 655032, Note_off_c, 0, 63, 64
2, 655105, Note_off_c, 0, 51, 64
2, 655110, Note_on_c, 0, 68, 58
2, 655110, Note_on_c, 0, 62, 50
2, 655114, Note_on_c, 0, 59, 48
2, 655116, Note_off_c, 0, 70, 64
2, 655130, Control_c, 0, 64, 0
2, 655163, Control_c, 0, 64, 127
2, 655290, Note_on_c, 0, 79, 42
2, 655350, Note_on_c, 0, 77, 58
2, 655368, Note_off_c, 0, 79, 64
2, 655368, Note_on_c, 0, 51, 35
2, 655383, Control_c, 0, 64, 0
2, 655405, Note_off_c, 0, 59, 64
2, 655411, Control_c, 0, 64, 127
2, 655440, Note_off_c, 0, 62, 64
2, 655555, Note_off_c, 0, 68, 64
2, 655604, Note_on_c, 0, 68, 58
2, 655607, Note_off_c, 0, 51, 64
2, 655608, Note_off_c, 0, 77, 64
2, 655617, Note_on_c, 0, 59, 48
2, 655622, Note_on_c, 0, 62, 36
2, 655645, Control_c, 0, 64, 0
2, 655668, Control_c, 0, 64, 127
2, 655836, Note_on_c, 0, 79, 36
2, 655908, Note_on_c, 0, 77, 49
2, 655909, Note_on_c, 0, 51, 27
2, 655932, Note_off_c, 0, 79, 64
2, 655949, Control_c, 0, 64, 0
2, 655975, Note_off_c, 0, 59, 64
2, 655977, Control_c, 0, 64, 127
2, 656007, Note_off_c, 0, 62, 64
2, 656222, Note_off_c, 0, 68, 64
2, 656301, Note_off_c, 0, 77, 64
2, 656311, Note_on_c, 0, 70, 44
2, 656312, Note_on_c, 0, 67, 23
2, 656318, Note_on_c, 0, 63, 29
2, 656318, Note_on_c, 0, 58, 27
2, 656394, Control_c, 0, 64, 0
2, 656426, Control_c, 0, 64, 127
2, 656528, Note_off_c, 0, 51, 64
2, 656567, Note_off_c, 0, 63, 64
2, 656576, Note_off_c, 0, 58, 64
2, 656620, Note_off_c, 0, 70, 64
2, 656702, Note_off_c, 0, 67, 64
2, 656783, Note_on_c, 0, 72, 40
2, 656795, Note_on_c, 0, 61, 19
2, 656803, Note_on_c, 0, 64, 20
2, 656812, Note_on_c, 0, 55, 16
2, 656845, Control_c, 0, 64, 0
2, 656878, Control_c, 0, 64, 127
2, 656921, Note_off_c, 0, 64, 64
2, 656959, Note_off_c, 0, 61, 64
2, 657000, Note_on_c, 0, 70, 39
2, 657012, Note_off_c, 0, 72, 64
2, 657027, Note_off_c, 0, 55, 64
2, 657048, Note_on_c, 0, 63, 20
2, 657049, Note_on_c, 0, 68, 41
2, 657052, Note_on_c, 0, 56, 32
2, 657056, Note_on_c, 0, 60, 15
2, 657064, Note_off_c, 0, 70, 64
2, 657110, Control_c, 0, 64, 0
2, 657132, Control_c, 0, 64, 127
2, 657143, Note_off_c, 0, 60, 64
2, 657165, Note_on_c, 0, 70, 35
2, 657188, Note_off_c, 0, 68, 64
2, 657257, Note_off_c, 0, 56, 64
2, 657276, Note_on_c, 0, 72, 41
2, 657278, Note_off_c, 0, 70, 64
2, 657287, Note_on_c, 0, 51, 39
2, 657339, Note_off_c, 0, 63, 64
2, 657363, Note_off_c, 0, 51, 64
2, 657483, Note_on_c, 0, 61, 27
2, 657486, Note_on_c, 0, 55, 35
2, 657492, Note_on_c, 0, 64, 28
2, 657571, Note_off_c, 0, 64, 64
2, 657587, Note_off_c, 0, 61, 64
2, 657647, Note_on_c, 0, 70, 44
2, 657650, Note_off_c, 0, 72, 64
2, 657664, Note_off_c, 0, 55, 64
2, 657684, Note_on_c, 0, 68, 44
2, 657693, Note_off_c, 0, 70, 64
2, 657693, Note_on_c, 0, 56, 29
2, 657700, Note_on_c, 0, 63, 33
2, 657703, Note_on_c, 0, 60, 28
2, 657816, Note_on_c, 0, 77, 42
2, 657835, Note_off_c, 0, 68, 64
2, 657872, Note_off_c, 0, 60, 64
2, 657876, Note_off_c, 0, 56, 64
2, 657905, Note_on_c, 0, 75, 44
2, 657915, Note_on_c, 0, 51, 32
2, 657921, Note_off_c, 0, 77, 64
2, 657922, Control_c, 0, 64, 0
2, 657935, Control_c, 0, 64, 127
2, 657957, Note_off_c, 0, 75, 64
2, 657981, Note_off_c, 0, 51, 64
2, 658003, Note_off_c, 0, 63, 64
2, 658155, Note_on_c, 0, 72, 40
2, 658155, Note_on_c, 0, 61, 28
2, 658163, Note_on_c, 0, 64, 29
2, 658163, Note_on_c, 0, 55, 32
2, 658248, Note_off_c, 0, 64, 64
2, 658248, Note_on_c, 0, 71, 44
2, 658249, Note_off_c, 0, 61, 64
2, 658260, Note_off_c, 0, 72, 64
2, 658315, Note_on_c, 0, 70, 42
2, 658328, Note_off_c, 0, 71, 64
2, 658351, Note_off_c, 0, 55, 64
2, 658396, Note_on_c, 0, 67, 40
2, 658406, Note_on_c, 0, 63, 36
2, 658407, Note_off_c, 0, 70, 64
2, 658416, Note_on_c, 0, 60, 24
2, 658420, Note_on_c, 0, 56, 19
2, 658435, Control_c, 0, 64, 0
2, 658472, Control_c, 0, 64, 127
2, 658476, Note_on_c, 0, 68, 49
2, 658497, Note_off_c, 0, 67, 64
2, 658550, Note_off_c, 0, 60, 64
2, 658554, Note_off_c, 0, 56, 64
2, 658564, Note_on_c, 0, 70, 36
2, 658585, Note_off_c, 0, 68, 64
2, 658654, Note_on_c, 0, 51, 32
2, 658656, Note_on_c, 0, 71, 45
2, 658666, Note_off_c, 0, 70, 64
2, 658678, Note_off_c, 0, 63, 64
2, 658690, Control_c, 0, 64, 0
2, 658713, Control_c, 0, 64, 127
2, 658730, Note_on_c, 0, 73, 40
2, 658736, Note_off_c, 0, 71, 64
2, 658785, Note_off_c, 0, 73, 64
2, 658858, Note_on_c, 0, 72, 46
2, 658893, Note_off_c, 0, 72, 64
2, 658921, Note_on_c, 0, 72, 40
2, 658949, Note_on_c, 0, 63, 44
2, 658955, Note_off_c, 0, 72, 64
2, 658958, Note_on_c, 0, 56, 39
2, 658965, Note_on_c, 0, 61, 28
2, 658973, Note_off_c, 0, 51, 64
2, 659021, Control_c, 0, 64, 0
2, 659130, Note_off_c, 0, 56, 64
2, 659135, Note_on_c, 0, 55, 28
2, 659185, Note_on_c, 0, 53, 39
2, 659189, Note_off_c, 0, 55, 64
2, 659306, Note_off_c, 0, 53, 64
2, 659319, Note_on_c, 0, 55, 32
2, 659459, Note_on_c, 0, 51, 31
2, 659531, Control_c, 0, 64, 127
2, 659561, Note_off_c, 0, 55, 64
2, 659592, Note_off_c, 0, 63, 64
2, 659613, Note_off_c, 0, 51, 64
2, 659631, Note_off_c, 0, 61, 64
2, 659817, Note_on_c, 0, 72, 67
2, 659824, Note_on_c, 0, 61, 42
2, 659826, Note_on_c, 0, 64, 42
2, 659826, Note_on_c, 0, 55, 40
2, 659849, Control_c, 0, 64, 0
2, 659862, Control_c, 0, 64, 127
2, 659909, Note_off_c, 0, 64, 64
2, 659916, Note_off_c, 0, 61, 64
2, 659986, Note_off_c, 0, 72, 64
2, 659986, Note_on_c, 0, 70, 39
2, 659991, Note_off_c, 0, 55, 64
2, 660032, Note_on_c, 0, 63, 50
2, 660033, Note_on_c, 0, 68, 52
2, 660050, Note_on_c, 0, 56, 19
2, 660055, Note_off_c, 0, 70, 64
2, 660056, Note_on_c, 0, 60, 24
2, 660062, Control_c, 0, 64, 0
2, 660075, Control_c, 0, 64, 127
2, 660128, Note_on_c, 0, 70, 53
2, 660148, Note_off_c, 0, 60, 64
2, 660157, Note_off_c, 0, 68, 64
2, 660187, Note_off_c, 0, 56, 64
2, 660233, Note_on_c, 0, 72, 58
2, 660245, Note_on_c, 0, 51, 42
2, 660252, Note_off_c, 0, 70, 64
2, 660308, Note_off_c, 0, 51, 64
2, 660321, Note_off_c, 0, 63, 64
2, 660445, Note_on_c, 0, 64, 44
2, 660447, Note_on_c, 0, 61, 35
2, 660451, Note_on_c, 0, 55, 44
2, 660497, Note_on_c, 0, 70, 44
2, 660500, Note_off_c, 0, 61, 64
2, 660504, Note_off_c, 0, 64, 64
2, 660509, Note_off_c, 0, 72, 64
2, 660537, Note_on_c, 0, 72, 54
2, 660550, Note_off_c, 0, 70, 64
2, 660557, Note_off_c, 0, 55, 64
2, 660580, Note_on_c, 0, 70, 44
2, 660586, Note_off_c, 0, 72, 64
2, 660628, Note_on_c, 0, 68, 68
2, 660628, Note_on_c, 0, 56, 48
2, 660635, Note_off_c, 0, 70, 64
2, 660635, Note_on_c, 0, 60, 52
2, 660636, Note_on_c, 0, 63, 48
2, 660662, Note_off_c, 0, 68, 64
2, 660693, Note_off_c, 0, 60, 64
2, 660694, Note_off_c, 0, 56, 64
2, 660730, Note_off_c, 0, 63, 64
2, 660804, Note_on_c, 0, 80, 57
2, 660854, Note_on_c, 0, 77, 63
2, 660861, Note_off_c, 0, 80, 64
2, 660864, Note_on_c, 0, 71, 54
2, 660864, Note_on_c, 0, 68, 57
2, 660864, Note_on_c, 0, 62, 53
2, 660942, Note_off_c, 0, 71, 64
2, 660953, Note_off_c, 0, 62, 64
2, 660959, Note_off_c, 0, 77, 64
2, 660965, Note_off_c, 0, 68, 64
2, 661090, Note_on_c, 0, 70, 58
2, 661094, Note_on_c, 0, 63, 58
2, 661103, Note_on_c, 0, 67, 42
2, 661126, Control_c, 0, 64, 0
2, 661136, Control_c, 0, 64, 127
2, 661187, Note_off_c, 0, 67, 64
2, 661291, Note_on_c, 0, 72, 54
2, 661307, Note_off_c, 0, 70, 64
2, 661329, Note_on_c, 0, 73, 68
2, 661333, Note_off_c, 0, 63, 64
2, 661333, Note_on_c, 0, 58, 50
2, 661344, Note_on_c, 0, 65, 44
2, 661345, Note_off_c, 0, 72, 64
2, 661356, Control_c, 0, 64, 0
2, 661369, Control_c, 0, 64, 127
2, 661536, Note_off_c, 0, 58, 64
2, 661542, Note_off_c, 0, 65, 64
2, 661588, Note_on_c, 0, 51, 26
2, 661590, Note_on_c, 0, 72, 58
2, 661594, Note_on_c, 0, 67, 57
2, 661597, Note_on_c, 0, 63, 45
2, 661601, Note_off_c, 0, 73, 64
2, 661618, Control_c, 0, 64, 0
2, 661644, Control_c, 0, 64, 127
2, 661813, Note_on_c, 0, 70, 54
2, 661820, Note_off_c, 0, 72, 64
2, 661822, Note_on_c, 0, 61, 52
2, 661828, Note_off_c, 0, 51, 64
2, 661843, Note_off_c, 0, 63, 64
2, 661852, Note_off_c, 0, 67, 64
2, 661896, Note_on_c, 0, 56, 37
2, 661896, Note_on_c, 0, 65, 58
2, 661898, Note_on_c, 0, 73, 61
2, 661898, Note_on_c, 0, 68, 63
2, 661909, Note_off_c, 0, 61, 64
2, 661914, Note_off_c, 0, 70, 64
2, 661971, Control_c, 0, 64, 0
2, 662013, Control_c, 0, 64, 127
2, 662239, Note_on_c, 0, 63, 39
2, 662245, Note_on_c, 0, 72, 52
2, 662246, Note_off_c, 0, 68, 64
2, 662251, Note_off_c, 0, 73, 64
2, 662334, Note_on_c, 0, 68, 52
2, 662336, Note_on_c, 0, 60, 19
2, 662382, Control_c, 0, 64, 0
2, 662386, Note_off_c, 0, 72, 64
2, 662388, Note_off_c, 0, 65, 64
2, 662391, Note_off_c, 0, 63, 64
2, 663572, Note_off_c, 0, 68, 64
2, 663574, Note_off_c, 0, 60, 64
2, 663576, Note_off_c, 0, 56, 64
2, 664744, Control_c, 0, 64, 0
2, 664800, Control_c, 0, 64, 127
2, 664928, Note_on_c, 0, 57, 24
2, 664930, Note_on_c, 0, 59, 28
2, 664934, Note_on_c, 0, 65, 22
2, 665231, Note_off_c, 0, 57, 64
2, 665237, Note_off_c, 0, 65, 64
2, 665248, Note_on_c, 0, 57, 22
2, 665251, Note_on_c, 0, 60, 26
2, 665254, Note_on_c, 0, 65, 22
2, 665301, Note_off_c, 0, 59, 64
2, 665551, Note_off_c, 0, 57, 64
2, 665557, Note_off_c, 0, 65, 64
2, 665562, Note_on_c, 0, 62, 22
2, 665565, Note_on_c, 0, 65, 22
2, 665571, Note_on_c, 0, 57, 22
2, 665627, Note_off_c, 0, 60, 64
2, 665868, Note_off_c, 0, 65, 64
2, 665874, Note_off_c, 0, 57, 64
2, 665889, Note_on_c, 0, 65, 29
2, 665899, Note_on_c, 0, 59, 37
2, 665899, Note_on_c, 0, 57, 29
2, 665979, Note_off_c, 0, 62, 64
2, 666189, Note_off_c, 0, 65, 64
2, 666199, Note_off_c, 0, 57, 64
2, 666226, Note_on_c, 0, 65, 28
2, 666228, Note_on_c, 0, 60, 33
2, 666228, Note_on_c, 0, 57, 32
2, 666299, Note_off_c, 0, 59, 64
2, 666526, Note_off_c, 0, 65, 64
2, 666528, Note_off_c, 0, 57, 64
2, 666559, Note_on_c, 0, 65, 36
2, 666559, Note_on_c, 0, 62, 36
2, 666565, Note_on_c, 0, 57, 36
2, 666632, Note_off_c, 0, 60, 64
2, 666859, Note_off_c, 0, 65, 64
2, 666865, Note_off_c, 0, 57, 64
2, 666891, Note_on_c, 0, 65, 35
2, 666898, Note_on_c, 0, 59, 39
2, 666900, Note_on_c, 0, 57, 35
2, 666982, Note_off_c, 0, 62, 64
2, 667287, Note_off_c, 0, 65, 64
2, 667296, Note_off_c, 0, 57, 64
2, 667300, Note_on_c, 0, 65, 40
2, 667301, Note_on_c, 0, 57, 40
2, 667303, Note_on_c, 0, 60, 37
2, 667362, Control_c, 0, 64, 0
2, 667381, Note_off_c, 0, 59, 64
2, 667393, Control_c, 0, 64, 127
2, 667776, Note_on_c, 0, 62, 29
2, 667850, Note_off_c, 0, 65, 64
2, 667851, Note_off_c, 0, 57, 64
2, 667853, Note_off_c, 0, 60, 64
2, 667996, Note_on_c, 0, 64, 28
2, 668025, Note_off_c, 0, 62, 64
2, 668155, Note_on_c, 0, 62, 26
2, 668172, Note_off_c, 0, 64, 64
2, 668414, Note_on_c, 0, 65, 18
2, 668418, Note_on_c, 0, 60, 24
2, 668418, Note_on_c, 0, 57, 20
2, 668465, Note_off_c, 0, 62, 64
2, 668504, Control_c, 0, 64, 0
2, 668630, Control_c, 0, 64, 127
2, 669832, Note_on_c, 0, 71, 36
2, 669839, Note_on_c, 0, 62, 15
2, 669983, Note_off_c, 0, 57, 64
2, 669983, Note_off_c, 0, 60, 64
2, 670016, Note_off_c, 0, 65, 64
2, 670101, Note_on_c, 0, 72, 33
2, 670122, Note_off_c, 0, 71, 64
2, 670139, Note_off_c, 0, 62, 64
2, 670175, Note_on_c, 0, 74, 40
2, 670186, Note_on_c, 0, 65, 22
2, 670186, Note_on_c, 0, 62, 23
2, 670192, Note_on_c, 0, 57, 24
2, 670197, Note_off_c, 0, 72, 64
2, 670486, Note_off_c, 0, 62, 64
2, 670486, Note_off_c, 0, 65, 64
2, 670492, Note_off_c, 0, 57, 64
2, 670520, Note_on_c, 0, 65, 22
2, 670520, Note_on_c, 0, 62, 23
2, 670521, Note_on_c, 0, 69, 48
2, 670524, Note_on_c, 0, 57, 22
2, 670560, Note_off_c, 0, 74, 64
2, 670701, Note_off_c, 0, 69, 64
2, 670783, Note_on_c, 0, 69, 49
2, 670820, Note_off_c, 0, 62, 64
2, 670820, Note_off_c, 0, 65, 64
2, 670824, Note_off_c, 0, 57, 64
2, 670831, Note_on_c, 0, 72, 44
2, 670845, Note_on_c, 0, 65, 23
2, 670845, Note_on_c, 0, 60, 29
2, 670853, Note_on_c, 0, 57, 22
2, 670855, Note_off_c, 0, 69, 64
2, 670900, Control_c, 0, 64, 0
2, 670913, Control_c, 0, 64, 127
2, 671125, Note_off_c, 0, 60, 64
2, 671125, Note_off_c, 0, 65, 64
2, 671133, Note_off_c, 0, 57, 64
2, 671134, Note_on_c, 0, 65, 27
2, 671139, Note_on_c, 0, 57, 23
2, 671140, Note_on_c, 0, 60, 27
2, 671414, Note_off_c, 0, 65, 64
2, 671419, Note_off_c, 0, 57, 64
2, 671420, Note_off_c, 0, 60, 64
2, 671438, Note_on_c, 0, 71, 49
2, 671438, Note_on_c, 0, 65, 27
2, 671443, Note_on_c, 0, 57, 23
2, 671446, Note_on_c, 0, 60, 24
2, 671453, Note_off_c, 0, 72, 64
2, 671597, Note_off_c, 0, 71, 64
2, 671602, Note_on_c, 0, 72, 52
2, 671718, Note_off_c, 0, 65, 64
2, 671723, Note_off_c, 0, 57, 64
2, 671726, Note_off_c, 0, 60, 64
2, 671761, Note_on_c, 0, 65, 27
2, 671761, Note_on_c, 0, 60, 33
2, 671764, Note_on_c, 0, 74, 50
2, 671768, Note_on_c, 0, 55, 24
2, 671777, Note_off_c, 0, 72, 64
2, 671808, Control_c, 0, 64, 0
2, 671822, Control_c, 0, 64, 127
2, 671913, Note_on_c, 0, 76, 45
2, 671934, Note_off_c, 0, 74, 64
2, 672041, Note_off_c, 0, 60, 64
2, 672041, Note_off_c, 0, 65, 64
2, 672048, Note_off_c, 0, 55, 64
2, 672051, Note_on_c, 0, 77, 45
2, 672051, Note_on_c, 0, 59, 44
2, 672059, Note_on_c, 0, 65, 29
2, 672062, Note_on_c, 0, 55, 33
2, 672070, Note_off_c, 0, 76, 64
2, 672107, Control_c, 0, 64, 0
2, 672132, Control_c, 0, 64, 127
2, 672371, Note_off_c, 0, 59, 64
2, 672379, Note_off_c, 0, 65, 64
2, 672382, Note_off_c, 0, 55, 64
2, 672411, Note_on_c, 0, 65, 18
2, 672411, Note_on_c, 0, 59, 24
2, 672418, Note_on_c, 0, 55, 18
2, 672428, Note_on_c, 0, 79, 59
2, 672441, Note_off_c, 0, 77, 64
2, 672720, Note_on_c, 0, 74, 50
2, 672734, Note_off_c, 0, 79, 64
2, 672761, Note_off_c, 0, 59, 64
2, 672761, Note_off_c, 0, 65, 64
2, 672768, Note_off_c, 0, 55, 64
2, 672788, Note_on_c, 0, 76, 52
2, 672795, Note_on_c, 0, 55, 22
2, 672798, Note_on_c, 0, 64, 22
2, 672802, Note_off_c, 0, 74, 64
2, 672804, Note_on_c, 0, 59, 22
2, 672838, Control_c, 0, 64, 0
2, 672881, Control_c, 0, 64, 127
2, 673035, Note_off_c, 0, 55, 64
2, 673038, Note_off_c, 0, 64, 64
2, 673044, Note_off_c, 0, 59, 64
2, 673070, Note_on_c, 0, 64, 24
2, 673077, Note_on_c, 0, 55, 18
2, 673089, Note_on_c, 0, 59, 15
2, 673310, Note_off_c, 0, 64, 64
2, 673317, Note_off_c, 0, 55, 64
2, 673329, Note_off_c, 0, 59, 64
2, 673344, Note_on_c, 0, 64, 24
2, 673354, Note_on_c, 0, 59, 22
2, 673356, Note_on_c, 0, 55, 22
2, 673644, Note_off_c, 0, 64, 64
2, 673648, Note_on_c, 0, 58, 15
2, 673654, Note_off_c, 0, 59, 64
2, 673656, Note_off_c, 0, 55, 64
2, 673664, Note_on_c, 0, 64, 22
2, 673664, Note_on_c, 0, 54, 15
2, 673679, Note_on_c, 0, 78, 50
2, 673702, Note_off_c, 0, 76, 64
2, 673948, Note_off_c, 0, 58, 64
2, 673954, Note_on_c, 0, 58, 15
2, 673964, Note_off_c, 0, 54, 64
2, 673964, Note_off_c, 0, 64, 64
2, 673968, Note_on_c, 0, 75, 29
2, 673968, Note_on_c, 0, 63, 15
2, 673968, Note_on_c, 0, 54, 15
2, 673990, Note_off_c, 0, 78, 64
2, 674194, Note_off_c, 0, 58, 64
2, 674208, Note_off_c, 0, 54, 64
2, 674208, Note_off_c, 0, 63, 64
2, 674210, Note_on_c, 0, 58, 23
2, 674218, Note_on_c, 0, 54, 15
2, 674220, Note_on_c, 0, 63, 15
2, 674470, Note_off_c, 0, 58, 64
2, 674478, Note_off_c, 0, 54, 64
2, 674480, Note_off_c, 0, 63, 64
2, 674510, Note_on_c, 0, 63, 23
2, 674512, Note_on_c, 0, 57, 22
2, 674519, Note_on_c, 0, 77, 48
2, 674519, Note_on_c, 0, 53, 15
2, 674523, Note_off_c, 0, 75, 64
2, 674810, Note_off_c, 0, 63, 64
2, 674812, Note_off_c, 0, 57, 64
2, 674819, Note_off_c, 0, 53, 64
2, 674830, Note_on_c, 0, 74, 41
2, 674836, Note_on_c, 0, 62, 22
2, 674837, Note_on_c, 0, 57, 15
2, 674847, Note_on_c, 0, 53, 15
2, 674858, Note_off_c, 0, 77, 64
2, 674867, Control_c, 0, 64, 0
2, 674922, Control_c, 0, 64, 127
2, 675086, Note_off_c, 0, 62, 64
2, 675087, Note_off_c, 0, 57, 64
2, 675097, Note_off_c, 0, 53, 64
2, 675102, Note_on_c, 0, 53, 15
2, 675110, Note_on_c, 0, 62, 15
2, 675115, Note_on_c, 0, 57, 15
2, 675402, Note_off_c, 0, 53, 64
2, 675410, Note_off_c, 0, 62, 64
2, 675415, Note_off_c, 0, 57, 64
2, 675432, Note_on_c, 0, 56, 32
2, 675433, Note_on_c, 0, 52, 22
2, 675441, Note_on_c, 0, 62, 15
2, 675463, Control_c, 0, 64, 0
2, 675472, Note_on_c, 0, 76, 42
2, 675486, Note_off_c, 0, 74, 64
2, 675508, Control_c, 0, 64, 127
2, 675532, Note_on_c, 0, 71, 49
2, 675547, Note_off_c, 0, 76, 64
2, 675672, Note_off_c, 0, 56, 64
2, 675673, Note_off_c, 0, 52, 64
2, 675681, Note_off_c, 0, 62, 64
2, 675717, Note_on_c, 0, 56, 32
2, 675720, Note_on_c, 0, 52, 33
2, 675726, Note_on_c, 0, 62, 22
2, 675745, Control_c, 0, 64, 0
2, 675766, Control_c, 0, 64, 127
2, 675957, Note_off_c, 0, 56, 64
2, 675960, Note_off_c, 0, 52, 64
2, 675966, Note_off_c, 0, 62, 64
2, 675979, Note_on_c, 0, 56, 40
2, 675984, Note_on_c, 0, 62, 23
2, 675995, Note_on_c, 0, 52, 24
2, 676219, Note_off_c, 0, 56, 64
2, 676224, Note_off_c, 0, 62, 64
2, 676235, Note_off_c, 0, 52, 64
2, 676273, Note_on_c, 0, 57, 32
2, 676273, Note_on_c, 0, 52, 22
2, 676274, Note_on_c, 0, 62, 22
2, 676312, Note_off_c, 0, 71, 64
2, 676318, Note_on_c, 0, 72, 42
2, 676362, Control_c, 0, 64, 0
2, 676391, Note_on_c, 0, 68, 52
2, 676406, Note_off_c, 0, 72, 64
2, 676408, Control_c, 0, 64, 127
2, 676603, Note_off_c, 0, 52, 64
2, 676603, Note_off_c, 0, 57, 64
2, 676604, Note_off_c, 0, 62, 64
2, 676633, Note_on_c, 0, 62, 24
2, 676634, Note_on_c, 0, 52, 27
2, 676638, Note_on_c, 0, 59, 32
2, 676683, Control_c, 0, 64, 0
2, 676706, Control_c, 0, 64, 127
2, 676913, Note_off_c, 0, 62, 64
2, 676914, Note_off_c, 0, 52, 64
2, 676918, Note_off_c, 0, 59, 64
2, 676968, Note_on_c, 0, 62, 22
2, 676968, Note_on_c, 0, 59, 32
2, 676969, Note_on_c, 0, 52, 22
2, 676982, Note_off_c, 0, 68, 64
2, 677387, Note_on_c, 0, 45, 40
2, 677393, Note_off_c, 0, 59, 64
2, 677393, Note_off_c, 0, 62, 64
2, 677394, Note_off_c, 0, 52, 64
2, 677424, Note_on_c, 0, 71, 42
2, 677471, Control_c, 0, 64, 0
2, 677527, Control_c, 0, 64, 127
2, 677633, Note_on_c, 0, 72, 32
2, 677659, Note_off_c, 0, 71, 64
2, 677740, Note_on_c, 0, 71, 36
2, 677772, Note_off_c, 0, 72, 64
2, 677800, Note_off_c, 0, 45, 64
2, 677843, Note_on_c, 0, 69, 48
2, 677849, Note_on_c, 0, 57, 24
2, 677852, Note_on_c, 0, 62, 24
2, 677856, Note_on_c, 0, 65, 22
2, 677862, Note_off_c, 0, 71, 64
2, 677981, Note_on_c, 0, 71, 45
2, 678015, Note_off_c, 0, 69, 64
2, 678087, Note_on_c, 0, 72, 44
2, 678105, Note_off_c, 0, 71, 64
2, 678166, Note_off_c, 0, 57, 64
2, 678169, Note_off_c, 0, 62, 64
2, 678173, Note_off_c, 0, 65, 64
2, 678201, Note_on_c, 0, 62, 24
2, 678206, Note_on_c, 0, 76, 49
2, 678206, Note_on_c, 0, 65, 24
2, 678210, Note_on_c, 0, 57, 24
2, 678217, Control_c, 0, 64, 0
2, 678232, Note_off_c, 0, 72, 64
2, 678232, Control_c, 0, 64, 127
2, 678375, Note_off_c, 0, 76, 64
2, 678399, Note_on_c, 0, 74, 49
2, 678448, Note_off_c, 0, 74, 64
2, 678453, Note_on_c, 0, 69, 50
2, 678496, Note_off_c, 0, 69, 64
2, 678518, Note_off_c, 0, 62, 64
2, 678520, Note_on_c, 0, 69, 52
2, 678523, Note_off_c, 0, 65, 64
2, 678527, Note_off_c, 0, 57, 64
2, 678571, Note_on_c, 0, 65, 24
2, 678574, Note_on_c, 0, 72, 52
2, 678575, Note_on_c, 0, 60, 32
2, 678579, Note_on_c, 0, 57, 24
2, 678581, Note_off_c, 0, 69, 64
2, 678602, Control_c, 0, 64, 0
2, 678638, Control_c, 0, 64, 127
2, 678847, Note_off_c, 0, 65, 64
2, 678851, Note_off_c, 0, 60, 64
2, 678855, Note_off_c, 0, 57, 64
2, 678880, Note_on_c, 0, 65, 35
2, 678882, Note_on_c, 0, 57, 37
2, 678889, Note_on_c, 0, 60, 40
2, 679016, Note_off_c, 0, 72, 64
2, 679156, Note_off_c, 0, 65, 64
2, 679158, Note_off_c, 0, 57, 64
2, 679165, Note_off_c, 0, 60, 64
2, 679188, Note_on_c, 0, 65, 22
2, 679188, Note_on_c, 0, 60, 22
2, 679198, Note_on_c, 0, 71, 42
2, 679207, Note_on_c, 0, 57, 18
2, 679313, Note_on_c, 0, 72, 42
2, 679327, Note_off_c, 0, 71, 64
2, 679428, Note_off_c, 0, 60, 64
2, 679428, Note_off_c, 0, 65, 64
2, 679447, Note_off_c, 0, 57, 64
2, 679452, Note_on_c, 0, 74, 52
2, 679456, Note_on_c, 0, 65, 24
2, 679462, Note_off_c, 0, 72, 64
2, 679463, Note_on_c, 0, 60, 24
2, 679464, Note_on_c, 0, 55, 23
2, 679542, Control_c, 0, 64, 0
2, 679556, Control_c, 0, 64, 127
2, 679569, Note_on_c, 0, 76, 50
2, 679594, Note_off_c, 0, 74, 64
2, 679621, Note_on_c, 0, 74, 50
2, 679638, Note_off_c, 0, 76, 64
2, 679677, Note_on_c, 0, 73, 50
2, 679701, Note_off_c, 0, 74, 64
2, 679737, Note_on_c, 0, 74, 49
2, 679743, Note_off_c, 0, 73, 64
2, 679774, Note_on_c, 0, 75, 48
2, 679776, Note_off_c, 0, 65, 64
2, 679783, Note_off_c, 0, 60, 64
2, 679784, Note_off_c, 0, 55, 64
2, 679788, Note_off_c, 0, 74, 64
2, 679821, Note_on_c, 0, 55, 22
2, 679824, Note_on_c, 0, 65, 24
2, 679824, Note_on_c, 0, 60, 24
2, 679844, Note_on_c, 0, 76, 48
2, 679850, Note_off_c, 0, 75, 64
2, 679896, Note_on_c, 0, 77, 45
2, 679907, Note_off_c, 0, 76, 64
2, 679964, Note_on_c, 0, 79, 44
2, 679986, Note_off_c, 0, 77, 64
2, 680025, Note_on_c, 0, 80, 44
2, 680048, Note_off_c, 0, 79, 64
2, 680061, Note_off_c, 0, 55, 64
2, 680064, Note_off_c, 0, 60, 64
2, 680064, Note_off_c, 0, 65, 64
2, 680080, Note_on_c, 0, 65, 35
2, 680086, Note_on_c, 0, 83, 44
2, 680088, Note_on_c, 0, 59, 42
2, 680092, Note_on_c, 0, 55, 22
2, 680100, Note_off_c, 0, 80, 64
2, 680146, Note_on_c, 0, 81, 42
2, 680155, Note_off_c, 0, 83, 64
2, 680182, Control_c, 0, 64, 0
2, 680204, Control_c, 0, 64, 127
2, 680214, Note_on_c, 0, 79, 42
2, 680220, Note_off_c, 0, 81, 64
2, 680289, Note_on_c, 0, 77, 40
2, 680303, Note_off_c, 0, 79, 64
2, 680340, Note_off_c, 0, 65, 64
2, 680348, Note_off_c, 0, 59, 64
2, 680352, Note_off_c, 0, 55, 64
2, 680365, Note_on_c, 0, 76, 45
2, 680368, Note_on_c, 0, 64, 35
2, 680374, Note_on_c, 0, 59, 28
2, 680379, Note_off_c, 0, 77, 64
2, 680379, Note_on_c, 0, 55, 20
2, 680432, Control_c, 0, 64, 0
2, 680461, Control_c, 0, 64, 127
2, 680556, Control_c, 0, 64, 0
2, 680598, Control_c, 0, 64, 127
2, 680644, Note_off_c, 0, 64, 64
2, 680650, Note_off_c, 0, 59, 64
2, 680652, Note_on_c, 0, 64, 35
2, 680655, Note_off_c, 0, 55, 64
2, 680673, Note_on_c, 0, 59, 28
2, 680675, Note_on_c, 0, 55, 28
2, 680708, Control_c, 0, 64, 0
2, 680750, Control_c, 0, 64, 127
2, 680928, Note_off_c, 0, 64, 64
2, 680949, Note_off_c, 0, 59, 64
2, 680950, Note_on_c, 0, 64, 36
2, 680951, Note_off_c, 0, 55, 64
2, 680952, Note_on_c, 0, 55, 40
2, 680956, Note_on_c, 0, 59, 28
2, 680977, Control_c, 0, 64, 0
2, 681000, Control_c, 0, 64, 127
2, 681226, Note_off_c, 0, 64, 64
2, 681228, Note_off_c, 0, 55, 64
2, 681232, Note_off_c, 0, 59, 64
2, 681240, Note_on_c, 0, 58, 28
2, 681249, Note_on_c, 0, 54, 33
2, 681262, Note_on_c, 0, 64, 35
2, 681272, Control_c, 0, 64, 0
2, 681287, Note_off_c, 0, 76, 64
2, 681317, Control_c, 0, 64, 127
2, 681516, Note_off_c, 0, 58, 64
2, 681525, Note_off_c, 0, 54, 64
2, 681538, Note_off_c, 0, 64, 64
2, 681539, Note_on_c, 0, 58, 20
2, 681539, Note_on_c, 0, 54, 20
2, 681556, Note_on_c, 0, 63, 27
2, 681598, Note_on_c, 0, 78, 54
2, 681619, Control_c, 0, 64, 0
2, 681657, Note_on_c, 0, 75, 45
2, 681664, Control_c, 0, 64, 127
2, 681678, Note_off_c, 0, 78, 64
2, 681856, Note_off_c, 0, 54, 64
2, 681856, Note_off_c, 0, 58, 64
2, 681873, Note_off_c, 0, 63, 64
2, 681874, Note_on_c, 0, 58, 22
2, 681880, Note_on_c, 0, 63, 22
2, 681881, Note_on_c, 0, 54, 22
2, 681921, Control_c, 0, 64, 0
2, 681945, Control_c, 0, 64, 127
2, 682150, Note_off_c, 0, 58, 64
2, 682156, Note_off_c, 0, 63, 64
2, 682157, Note_off_c, 0, 54, 64
2, 682184, Note_on_c, 0, 53, 19
2, 682188, Note_off_c, 0, 75, 64
2, 682195, Note_on_c, 0, 63, 22
2, 682198, Note_on_c, 0, 57, 18
2, 682233, Control_c, 0, 64, 0
2, 682250, Note_on_c, 0, 76, 31
2, 682256, Control_c, 0, 64, 127
2, 682292, Note_on_c, 0, 77, 36
2, 682320, Note_off_c, 0, 76, 64
2, 682335, Note_on_c, 0, 80, 31
2, 682354, Note_off_c, 0, 77, 64
2, 682384, Note_on_c, 0, 79, 32
2, 682390, Note_off_c, 0, 80, 64
2, 682436, Note_on_c, 0, 78, 48
2, 682445, Note_off_c, 0, 79, 64
2, 682472, Note_on_c, 0, 77, 45
2, 682482, Note_off_c, 0, 78, 64
2, 682501, Note_off_c, 0, 53, 64
2, 682512, Note_off_c, 0, 63, 64
2, 682515, Note_off_c, 0, 57, 64
2, 682526, Note_on_c, 0, 74, 49
2, 682541, Note_on_c, 0, 57, 14
2, 682541, Note_on_c, 0, 53, 13
2, 682543, Note_on_c, 0, 62, 18
2, 682549, Note_off_c, 0, 77, 64
2, 682561, Control_c, 0, 64, 0
2, 682594, Control_c, 0, 64, 127
2, 682817, Note_off_c, 0, 53, 64
2, 682817, Note_off_c, 0, 57, 64
2, 682819, Note_off_c, 0, 62, 64
2, 682827, Note_on_c, 0, 57, 22
2, 682832, Note_on_c, 0, 53, 24
2, 682837, Note_on_c, 0, 62, 13
2, 683085, Note_on_c, 0, 80, 48
2, 683129, Note_off_c, 0, 74, 64
2, 683144, Note_off_c, 0, 57, 64
2, 683149, Note_off_c, 0, 53, 64
2, 683154, Note_off_c, 0, 62, 64
2, 683162, Note_on_c, 0, 84, 66
2, 683176, Note_on_c, 0, 52, 44
2, 683185, Note_off_c, 0, 80, 64
2, 683186, Note_on_c, 0, 40, 39
2, 683198, Control_c, 0, 64, 0
2, 683229, Control_c, 0, 64, 127
2, 683326, Note_off_c, 0, 84, 64
2, 683418, Note_on_c, 0, 83, 44
2, 683453, Note_on_c, 0, 84, 48
2, 683462, Note_off_c, 0, 83, 64
2, 683493, Note_off_c, 0, 52, 64
2, 683496, Note_on_c, 0, 83, 49
2, 683508, Note_off_c, 0, 84, 64
2, 683537, Note_on_c, 0, 62, 33
2, 683542, Note_on_c, 0, 80, 58
2, 683542, Note_on_c, 0, 59, 24
2, 683549, Note_on_c, 0, 52, 32
2, 683550, Note_off_c, 0, 40, 64
2, 683563, Note_off_c, 0, 83, 64
2, 683565, Control_c, 0, 64, 0
2, 683614, Control_c, 0, 64, 127
2, 683641, Note_off_c, 0, 80, 64
2, 683854, Note_off_c, 0, 62, 64
2, 683859, Note_off_c, 0, 59, 64
2, 683866, Note_off_c, 0, 52, 64
2, 683902, Note_on_c, 0, 68, 44
2, 683918, Note_on_c, 0, 59, 24
2, 683918, Note_on_c, 0, 52, 24
2, 683919, Note_on_c, 0, 62, 24
2, 683935, Control_c, 0, 64, 0
2, 683962, Control_c, 0, 64, 127
2, 684296, Note_on_c, 0, 45, 33
2, 684304, Note_on_c, 0, 69, 40
2, 684327, Note_off_c, 0, 68, 64
2, 684336, Note_off_c, 0, 52, 64
2, 684336, Note_off_c, 0, 59, 64
2, 684337, Note_off_c, 0, 62, 64
2, 684341, Control_c, 0, 64, 0
2, 684384, Control_c, 0, 64, 127
2, 684666, Note_on_c, 0, 60, 26
2, 684672, Note_on_c, 0, 52, 1
2, 684673, Note_on_c, 0, 57, 33
2, 684718, Note_off_c, 0, 45, 64
2, 684942, Note_off_c, 0, 60, 64
2, 684948, Note_off_c, 0, 52, 64
2, 684949, Note_off_c, 0, 57, 64
2, 684986, Note_on_c, 0, 64, 16
2, 684986, Note_on_c, 0, 60, 16
2, 684986, Note_on_c, 0, 57, 27
2, 685215, Note_off_c, 0, 69, 64
2, 685286, Note_off_c, 0, 57, 64
2, 685286, Note_off_c, 0, 60, 64
2, 685286, Note_off_c, 0, 64, 64
2, 685294, Note_on_c, 0, 71, 36
2, 685309, Note_on_c, 0, 57, 16
2, 685315, Note_on_c, 0, 65, 20
2, 685323, Note_on_c, 0, 62, 14
2, 685362, Control_c, 0, 64, 0
2, 685386, Control_c, 0, 64, 127
2, 685554, Note_on_c, 0, 72, 29
2, 685585, Note_off_c, 0, 57, 64
2, 685588, Note_off_c, 0, 71, 64
2, 685591, Note_off_c, 0, 65, 64
2, 685599, Note_off_c, 0, 62, 64
2, 685612, Note_on_c, 0, 74, 29
2, 685620, Note_on_c, 0, 62, 16
2, 685620, Note_on_c, 0, 57, 16
2, 685629, Note_on_c, 0, 65, 20
2, 685641, Note_off_c, 0, 72, 64
2, 685656, Control_c, 0, 64, 0
2, 685679, Control_c, 0, 64, 127
2, 685896, Note_off_c, 0, 57, 64
2, 685896, Note_off_c, 0, 62, 64
2, 685901, Note_on_c, 0, 69, 36
2, 685905, Note_off_c, 0, 65, 64
2, 685907, Note_on_c, 0, 57, 16
2, 685909, Note_on_c, 0, 62, 18
2, 685915, Note_on_c, 0, 65, 20
2, 685939, Control_c, 0, 64, 0
2, 685945, Note_off_c, 0, 74, 64
2, 685967, Control_c, 0, 64, 127
2, 686075, Note_off_c, 0, 69, 64
2, 686132, Note_on_c, 0, 69, 41
2, 686178, Note_on_c, 0, 72, 36
2, 686183, Note_off_c, 0, 57, 64
2, 686185, Note_off_c, 0, 62, 64
2, 686191, Note_off_c, 0, 65, 64
2, 686199, Note_on_c, 0, 65, 31
2, 686201, Note_on_c, 0, 57, 16
2, 686205, Note_on_c, 0, 60, 20
2, 686206, Note_off_c, 0, 69, 64
2, 686239, Control_c, 0, 64, 0
2, 686261, Control_c, 0, 64, 127
2, 686439, Note_off_c, 0, 65, 64
2, 686441, Note_off_c, 0, 57, 64
2, 686445, Note_off_c, 0, 60, 64
2, 686449, Note_on_c, 0, 65, 33
2, 686450, Note_on_c, 0, 57, 16
2, 686455, Note_on_c, 0, 60, 20
2, 686496, Control_c, 0, 64, 0
2, 686511, Control_c, 0, 64, 127
2, 686725, Note_off_c, 0, 65, 64
2, 686726, Note_off_c, 0, 57, 64
2, 686731, Note_off_c, 0, 60, 64
2, 686752, Note_on_c, 0, 60, 20
2, 686752, Note_on_c, 0, 57, 20
2, 686759, Note_on_c, 0, 65, 20
2, 686800, Note_on_c, 0, 71, 36
2, 686816, Note_off_c, 0, 72, 64
2, 686924, Note_on_c, 0, 72, 41
2, 686946, Note_off_c, 0, 71, 64
2, 687042, Note_off_c, 0, 57, 64
2, 687042, Note_off_c, 0, 60, 64
2, 687049, Note_off_c, 0, 65, 64
2, 687072, Note_on_c, 0, 60, 18
2, 687072, Note_on_c, 0, 55, 20
2, 687084, Note_on_c, 0, 65, 20
2, 687101, Note_on_c, 0, 74, 18
2, 687134, Note_off_c, 0, 72, 64
2, 687139, Note_on_c, 0, 76, 36
2, 687151, Note_off_c, 0, 74, 64
2, 687176, Note_on_c, 0, 74, 41
2, 687198, Note_off_c, 0, 76, 64
2, 687254, Note_on_c, 0, 73, 35
2, 687267, Note_off_c, 0, 74, 64
2, 687372, Note_off_c, 0, 55, 64
2, 687372, Note_off_c, 0, 60, 64
2, 687384, Note_off_c, 0, 65, 64
2, 687390, Note_on_c, 0, 74, 41
2, 687390, Note_on_c, 0, 65, 20
2, 687392, Note_on_c, 0, 55, 1
2, 687395, Note_on_c, 0, 59, 20
2, 687405, Note_off_c, 0, 73, 64
2, 687486, Note_on_c, 0, 76, 41
2, 687507, Note_off_c, 0, 74, 64
2, 687565, Note_on_c, 0, 77, 36
2, 687576, Note_off_c, 0, 76, 64
2, 687660, Note_off_c, 0, 65, 64
2, 687662, Note_off_c, 0, 55, 64
2, 687665, Note_off_c, 0, 59, 64
2, 687676, Note_on_c, 0, 79, 36
2, 687682, Note_on_c, 0, 59, 18
2, 687684, Note_off_c, 0, 77, 64
2, 687690, Note_on_c, 0, 65, 20
2, 687690, Note_on_c, 0, 55, 16
2, 687712, Control_c, 0, 64, 0
2, 687745, Control_c, 0, 64, 127
2, 687939, Note_off_c, 0, 79, 64
2, 687948, Note_on_c, 0, 74, 41
2, 687972, Note_off_c, 0, 59, 64
2, 687980, Note_off_c, 0, 55, 64
2, 687980, Note_off_c, 0, 65, 64
2, 688010, Note_on_c, 0, 59, 20
2, 688014, Note_on_c, 0, 55, 18
2, 688018, Note_on_c, 0, 64, 16
2, 688019, Note_on_c, 0, 76, 41
2, 688045, Note_off_c, 0, 74, 64
2, 688047, Control_c, 0, 64, 0
2, 688082, Control_c, 0, 64, 127
2, 688250, Note_off_c, 0, 59, 64
2, 688254, Note_off_c, 0, 55, 64
2, 688258, Note_off_c, 0, 64, 64
2, 688282, Note_on_c, 0, 64, 16
2, 688288, Note_on_c, 0, 59, 16
2, 688295, Note_on_c, 0, 55, 16
2, 688522, Note_off_c, 0, 64, 64
2, 688528, Note_off_c, 0, 59, 64
2, 688535, Note_off_c, 0, 55, 64
2, 688543, Note_on_c, 0, 64, 18
2, 688547, Note_on_c, 0, 59, 20
2, 688547, Note_on_c, 0, 55, 16
2, 688819, Note_off_c, 0, 64, 64
2, 688823, Note_off_c, 0, 55, 64
2, 688823, Note_off_c, 0, 59, 64
2, 688846, Note_on_c, 0, 58, 16
2, 688854, Note_on_c, 0, 54, 16
2, 688855, Note_on_c, 0, 78, 46
2, 688858, Note_on_c, 0, 64, 18
2, 688870, Note_off_c, 0, 76, 64
2, 688886, Control_c, 0, 64, 0
2, 688916, Control_c, 0, 64, 127
2, 689122, Note_off_c, 0, 58, 64
2, 689130, Note_off_c, 0, 54, 64
2, 689134, Note_off_c, 0, 64, 64
2, 689135, Note_on_c, 0, 58, 16
2, 689137, Note_on_c, 0, 54, 16
2, 689155, Note_on_c, 0, 75, 33
2, 689156, Note_on_c, 0, 63, 16
2, 689175, Note_off_c, 0, 78, 64
2, 689375, Note_off_c, 0, 58, 64
2, 689377, Note_off_c, 0, 54, 64
2, 689396, Note_off_c, 0, 63, 64
2, 689399, Note_on_c, 0, 58, 20
2, 689399, Note_on_c, 0, 54, 18
2, 689412, Note_on_c, 0, 63, 18
2, 689639, Note_off_c, 0, 54, 64
2, 689639, Note_off_c, 0, 58, 64
2, 689652, Note_off_c, 0, 63, 64
2, 689678, Note_on_c, 0, 77, 40
2, 689685, Note_on_c, 0, 63, 18
2, 689692, Note_on_c, 0, 57, 20
2, 689692, Note_on_c, 0, 53, 16
2, 689698, Note_off_c, 0, 75, 64
2, 689715, Control_c, 0, 64, 0
2, 689738, Control_c, 0, 64, 127
2, 689925, Note_off_c, 0, 63, 64
2, 689932, Note_off_c, 0, 53, 64
2, 689932, Note_off_c, 0, 57, 64
2, 689960, Note_on_c, 0, 62, 18
2, 689960, Note_on_c, 0, 57, 16
2, 689964, Note_on_c, 0, 53, 14
2, 689975, Control_c, 0, 64, 0
2, 689976, Note_on_c, 0, 74, 26
2, 690007, Control_c, 0, 64, 127
2, 690030, Note_off_c, 0, 77, 64
2, 690180, Note_off_c, 0, 57, 64
2, 690180, Note_off_c, 0, 62, 64
2, 690184, Note_off_c, 0, 53, 64
2, 690196, Note_on_c, 0, 53, 18
2, 690197, Note_on_c, 0, 57, 20
2, 690200, Note_on_c, 0, 62, 20
2, 690472, Note_off_c, 0, 53, 64
2, 690473, Note_off_c, 0, 57, 64
2, 690476, Note_off_c, 0, 62, 64
2, 690480, Note_on_c, 0, 56, 20
2, 690481, Note_on_c, 0, 62, 16
2, 690487, Note_on_c, 0, 52, 16
2, 690532, Note_on_c, 0, 76, 46
2, 690570, Control_c, 0, 64, 0
2, 690584, Note_off_c, 0, 74, 64
2, 690597, Note_on_c, 0, 71, 35
2, 690605, Control_c, 0, 64, 127
2, 690721, Note_off_c, 0, 76, 64
2, 690756, Note_off_c, 0, 56, 64
2, 690757, Note_off_c, 0, 62, 64
2, 690763, Note_off_c, 0, 52, 64
2, 690776, Note_on_c, 0, 56, 31
2, 690792, Note_on_c, 0, 62, 26
2, 690792, Note_on_c, 0, 52, 26
2, 691016, Note_off_c, 0, 56, 64
2, 691032, Note_off_c, 0, 52, 64
2, 691032, Note_off_c, 0, 62, 64
2, 691038, Note_on_c, 0, 56, 46
2, 691046, Note_on_c, 0, 62, 33
2, 691053, Note_on_c, 0, 52, 20
2, 691075, Control_c, 0, 64, 0
2, 691086, Control_c, 0, 64, 127
2, 691278, Note_off_c, 0, 56, 64
2, 691286, Note_off_c, 0, 62, 64
2, 691293, Note_off_c, 0, 52, 64
2, 691312, Note_on_c, 0, 52, 20
2, 691315, Note_on_c, 0, 62, 18
2, 691315, Note_on_c, 0, 57, 35
2, 691326, Note_off_c, 0, 71, 64
2, 691328, Note_on_c, 0, 72, 46
2, 691366, Control_c, 0, 64, 0
2, 691387, Control_c, 0, 64, 127
2, 691398, Note_on_c, 0, 68, 53
2, 691546, Note_off_c, 0, 72, 64
2, 691588, Note_off_c, 0, 52, 64
2, 691591, Note_off_c, 0, 57, 64
2, 691591, Note_off_c, 0, 62, 64
2, 691623, Note_on_c, 0, 52, 33
2, 691629, Note_on_c, 0, 59, 35
2, 691632, Note_on_c, 0, 62, 26
2, 691666, Control_c, 0, 64, 0
2, 691699, Control_c, 0, 64, 127
2, 691899, Note_off_c, 0, 52, 64
2, 691905, Note_off_c, 0, 59, 64
2, 691908, Note_off_c, 0, 62, 64
2, 691942, Note_on_c, 0, 52, 20
2, 691945, Note_on_c, 0, 59, 35
2, 691947, Note_on_c, 0, 62, 20
2, 692102, Note_off_c, 0, 68, 64
2, 692218, Note_on_c, 0, 71, 36
2, 692289, Note_off_c, 0, 71, 64
2, 692328, Note_on_c, 0, 71, 36
2, 692337, Note_on_c, 0, 45, 33
2, 692360, Note_off_c, 0, 52, 64
2, 692363, Note_off_c, 0, 59, 64
2, 692365, Note_off_c, 0, 62, 64
2, 692376, Control_c, 0, 64, 0
2, 692387, Note_off_c, 0, 71, 64
2, 692400, Control_c, 0, 64, 127
2, 692416, Note_on_c, 0, 71, 45
2, 692452, Note_off_c, 0, 71, 64
2, 692480, Note_on_c, 0, 71, 45
2, 692516, Note_off_c, 0, 71, 64
2, 692544, Note_on_c, 0, 71, 41
2, 692600, Note_off_c, 0, 71, 64
2, 692621, Note_on_c, 0, 72, 45
2, 692686, Note_on_c, 0, 71, 45
2, 692700, Note_off_c, 0, 72, 64
2, 692740, Note_on_c, 0, 57, 32
2, 692749, Note_on_c, 0, 65, 22
2, 692755, Note_on_c, 0, 62, 22
2, 692764, Note_on_c, 0, 69, 41
2, 692769, Note_off_c, 0, 71, 64
2, 692772, Note_off_c, 0, 45, 64
2, 692772, Control_c, 0, 64, 0
2, 692804, Control_c, 0, 64, 127
2, 692868, Note_on_c, 0, 71, 41
2, 692886, Note_off_c, 0, 69, 64
2, 692945, Note_on_c, 0, 72, 41
2, 692959, Note_off_c, 0, 71, 64
2, 693016, Note_off_c, 0, 57, 64
2, 693025, Note_off_c, 0, 65, 64
2, 693031, Note_off_c, 0, 62, 64
2, 693042, Note_on_c, 0, 76, 36
2, 693050, Note_on_c, 0, 62, 22
2, 693053, Note_on_c, 0, 65, 14
2, 693062, Note_on_c, 0, 57, 14
2, 693066, Note_off_c, 0, 72, 64
2, 693087, Control_c, 0, 64, 0
2, 693118, Control_c, 0, 64, 127
2, 693157, Note_off_c, 0, 76, 64
2, 693161, Note_on_c, 0, 74, 36
2, 693255, Note_on_c, 0, 69, 42
2, 693257, Note_off_c, 0, 74, 64
2, 693284, Note_off_c, 0, 69, 64
2, 693311, Note_on_c, 0, 69, 41
2, 693350, Note_off_c, 0, 62, 64
2, 693353, Note_off_c, 0, 65, 64
2, 693360, Note_on_c, 0, 72, 41
2, 693362, Note_off_c, 0, 57, 64
2, 693369, Note_off_c, 0, 69, 64
2, 693371, Note_on_c, 0, 65, 28
2, 693375, Note_on_c, 0, 60, 28
2, 693379, Note_on_c, 0, 57, 16
2, 693404, Control_c, 0, 64, 0
2, 693429, Control_c, 0, 64, 127
2, 693611, Note_off_c, 0, 65, 64
2, 693615, Note_off_c, 0, 60, 64
2, 693619, Note_off_c, 0, 57, 64
2, 693627, Note_on_c, 0, 65, 28
2, 693631, Note_on_c, 0, 60, 26
2, 693636, Note_on_c, 0, 57, 26
2, 693927, Note_off_c, 0, 65, 64
2, 693927, Note_off_c, 0, 72, 64
2, 693931, Note_off_c, 0, 60, 64
2, 693936, Note_off_c, 0, 57, 64
2, 693936, Note_on_c, 0, 65, 16
2, 693944, Note_on_c, 0, 56, 16
2, 693949, Note_on_c, 0, 60, 16
2, 693956, Note_on_c, 0, 71, 32
2, 694087, Note_on_c, 0, 72, 36
2, 694088, Note_off_c, 0, 71, 64
2, 694212, Note_off_c, 0, 65, 64
2, 694220, Note_off_c, 0, 56, 64
2, 694225, Note_off_c, 0, 60, 64
2, 694232, Note_on_c, 0, 65, 16
2, 694232, Note_on_c, 0, 55, 26
2, 694260, Note_on_c, 0, 74, 32
2, 694260, Note_on_c, 0, 60, 28
2, 694270, Note_off_c, 0, 72, 64
2, 694298, Control_c, 0, 64, 0
2, 694320, Control_c, 0, 64, 127
2, 694388, Note_off_c, 0, 74, 64
2, 694388, Note_on_c, 0, 76, 33
2, 694457, Note_on_c, 0, 74, 33
2, 694493, Note_off_c, 0, 76, 64
2, 694500, Control_c, 0, 64, 0
2, 694519, Note_on_c, 0, 73, 20
2, 694537, Note_off_c, 0, 74, 64
2, 694542, Control_c, 0, 64, 127
2, 694549, Note_off_c, 0, 55, 64
2, 694549, Note_off_c, 0, 65, 64
2, 694577, Note_off_c, 0, 60, 64
2, 694578, Note_on_c, 0, 55, 28
2, 694584, Note_on_c, 0, 65, 16
2, 694584, Note_on_c, 0, 59, 28
2, 694606, Note_off_c, 0, 73, 64
2, 694608, Note_on_c, 0, 74, 36
2, 694685, Note_on_c, 0, 83, 20
2, 694744, Note_off_c, 0, 74, 64
2, 694745, Note_on_c, 0, 77, 26
2, 694758, Note_off_c, 0, 83, 64
2, 694806, Note_on_c, 0, 81, 29
2, 694824, Note_off_c, 0, 77, 64
2, 694869, Note_on_c, 0, 76, 32
2, 694895, Note_off_c, 0, 55, 64
2, 694899, Note_off_c, 0, 81, 64
2, 694901, Note_off_c, 0, 59, 64
2, 694901, Note_off_c, 0, 65, 64
2, 694920, Note_on_c, 0, 65, 33
2, 694920, Note_on_c, 0, 55, 14
2, 694925, Note_on_c, 0, 59, 16
2, 694932, Note_on_c, 0, 79, 36
2, 694944, Note_off_c, 0, 76, 64
2, 694985, Note_on_c, 0, 74, 37
2, 694988, Note_off_c, 0, 79, 64
2, 695040, Note_off_c, 0, 74, 64
2, 695054, Note_on_c, 0, 77, 32
2, 695102, Note_on_c, 0, 69, 32
2, 695134, Note_off_c, 0, 77, 64
2, 695161, Note_on_c, 0, 67, 31
2, 695187, Note_off_c, 0, 69, 64
2, 695219, Note_on_c, 0, 74, 29
2, 695235, Note_off_c, 0, 67, 64
2, 695237, Note_off_c, 0, 55, 64
2, 695237, Note_off_c, 0, 65, 64
2, 695242, Note_off_c, 0, 59, 64
2, 695256, Note_on_c, 0, 64, 14
2, 695258, Note_on_c, 0, 59, 16
2, 695262, Note_on_c, 0, 55, 16
2, 695273, Note_on_c, 0, 76, 42
2, 695288, Control_c, 0, 64, 0
2, 695296, Note_off_c, 0, 74, 64
2, 695332, Control_c, 0, 64, 127
2, 695532, Note_off_c, 0, 64, 64
2, 695534, Note_off_c, 0, 59, 64
2, 695538, Note_off_c, 0, 55, 64
2, 695554, Note_on_c, 0, 64, 28
2, 695554, Note_on_c, 0, 55, 28
2, 695561, Note_on_c, 0, 59, 16
2, 695584, Control_c, 0, 64, 0
2, 695607, Control_c, 0, 64, 127
2, 695830, Note_off_c, 0, 55, 64
2, 695830, Note_off_c, 0, 64, 64
2, 695837, Note_off_c, 0, 59, 64
2, 695846, Note_on_c, 0, 64, 26
2, 695850, Note_on_c, 0, 55, 16
2, 695854, Note_on_c, 0, 59, 26
2, 696122, Note_off_c, 0, 64, 64
2, 696126, Note_off_c, 0, 55, 64
2, 696130, Note_off_c, 0, 59, 64
2, 696141, Note_on_c, 0, 58, 16
2, 696146, Note_on_c, 0, 64, 22
2, 696151, Note_on_c, 0, 54, 16
2, 696258, Note_off_c, 0, 76, 64
2, 696381, Note_off_c, 0, 58, 64
2, 696386, Note_off_c, 0, 64, 64
2, 696391, Note_off_c, 0, 54, 64
2, 696407, Note_on_c, 0, 54, 16
2, 696416, Note_on_c, 0, 63, 28
2, 696417, Note_on_c, 0, 58, 28
2, 696493, Note_on_c, 0, 78, 36
2, 696542, Control_c, 0, 64, 0
2, 696562, Note_on_c, 0, 75, 45
2, 696565, Control_c, 0, 64, 127
2, 696575, Note_off_c, 0, 78, 64
2, 696771, Note_off_c, 0, 54, 64
2, 696780, Note_off_c, 0, 63, 64
2, 696781, Note_off_c, 0, 58, 64
2, 696794, Note_on_c, 0, 58, 16
2, 696796, Note_on_c, 0, 54, 26
2, 696802, Note_on_c, 0, 63, 28
2, 697111, Note_off_c, 0, 58, 64
2, 697113, Note_off_c, 0, 54, 64
2, 697119, Note_off_c, 0, 63, 64
2, 697136, Note_on_c, 0, 57, 14
2, 697140, Note_on_c, 0, 53, 14
2, 697144, Note_on_c, 0, 63, 22
2, 697177, Note_off_c, 0, 75, 64
2, 697202, Control_c, 0, 64, 0
2, 697209, Note_on_c, 0, 76, 32
2, 697232, Control_c, 0, 64, 127
2, 697260, Note_on_c, 0, 77, 23
2, 697277, Note_off_c, 0, 76, 64
2, 697315, Note_on_c, 0, 80, 28
2, 697323, Note_off_c, 0, 77, 64
2, 697364, Note_on_c, 0, 79, 24
2, 697383, Note_off_c, 0, 80, 64
2, 697415, Note_on_c, 0, 78, 28
2, 697420, Note_off_c, 0, 79, 64
2, 697451, Note_on_c, 0, 77, 40
2, 697462, Note_off_c, 0, 78, 64
2, 697500, Note_off_c, 0, 57, 64
2, 697501, Note_on_c, 0, 74, 42
2, 697504, Note_off_c, 0, 53, 64
2, 697508, Note_off_c, 0, 63, 64
2, 697517, Note_on_c, 0, 53, 16
2, 697518, Note_on_c, 0, 62, 16
2, 697522, Note_on_c, 0, 57, 16
2, 697523, Note_off_c, 0, 77, 64
2, 697540, Control_c, 0, 64, 0
2, 697585, Control_c, 0, 64, 127
2, 697793, Note_off_c, 0, 53, 64
2, 697794, Note_off_c, 0, 62, 64
2, 697798, Note_off_c, 0, 57, 64
2, 697815, Note_on_c, 0, 62, 28
2, 697822, Note_on_c, 0, 53, 14
2, 697826, Note_on_c, 0, 57, 23
2, 698107, Note_on_c, 0, 80, 41
2, 698125, Note_off_c, 0, 74, 64
2, 698162, Note_on_c, 0, 84, 36
2, 698176, Note_on_c, 0, 40, 36
2, 698179, Note_off_c, 0, 62, 64
2, 698179, Note_on_c, 0, 52, 40
2, 698183, Note_off_c, 0, 80, 64
2, 698186, Note_off_c, 0, 53, 64
2, 698190, Note_off_c, 0, 57, 64
2, 698194, Control_c, 0, 64, 0
2, 698217, Control_c, 0, 64, 127
2, 698304, Note_off_c, 0, 84, 64
2, 698405, Note_on_c, 0, 83, 36
2, 698441, Note_on_c, 0, 84, 41
2, 698453, Note_off_c, 0, 83, 64
2, 698479, Note_on_c, 0, 83, 41
2, 698496, Note_off_c, 0, 52, 64
2, 698497, Note_off_c, 0, 84, 64
2, 698515, Note_on_c, 0, 59, 33
2, 698519, Note_on_c, 0, 80, 50
2, 698524, Note_on_c, 0, 62, 20
2, 698528, Note_on_c, 0, 52, 1
2, 698537, Note_off_c, 0, 83, 64
2, 698547, Control_c, 0, 64, 0
2, 698581, Control_c, 0, 64, 127
2, 698594, Note_off_c, 0, 40, 64
2, 698604, Note_off_c, 0, 80, 64
2, 698832, Note_off_c, 0, 59, 64
2, 698841, Note_off_c, 0, 62, 64
2, 698845, Note_off_c, 0, 52, 64
2, 698872, Note_on_c, 0, 68, 42
2, 698872, Note_on_c, 0, 62, 20
2, 698880, Note_on_c, 0, 52, 20
2, 698883, Note_on_c, 0, 59, 20
2, 699251, Note_on_c, 0, 69, 32
2, 699256, Note_on_c, 0, 45, 27
2, 699274, Note_off_c, 0, 68, 64
2, 699290, Note_off_c, 0, 62, 64
2, 699298, Note_off_c, 0, 52, 64
2, 699301, Note_off_c, 0, 59, 64
2, 699301, Control_c, 0, 64, 0
2, 699342, Control_c, 0, 64, 127
2, 699569, Note_on_c, 0, 52, 23
2, 699577, Note_on_c, 0, 60, 14
2, 699867, Note_on_c, 0, 64, 48
2, 699873, Note_off_c, 0, 69, 64
2, 699911, Note_off_c, 0, 45, 64
2, 699933, Note_off_c, 0, 52, 64
2, 699934, Note_off_c, 0, 60, 64
2, 700132, Note_on_c, 0, 76, 40
2, 700132, Note_on_c, 0, 56, 28
2, 700151, Note_off_c, 0, 64, 64
2, 700151, Note_on_c, 0, 47, 22
2, 700159, Control_c, 0, 64, 0
2, 700190, Control_c, 0, 64, 127
2, 700384, Note_on_c, 0, 75, 39
2, 700392, Note_on_c, 0, 40, 29
2, 700406, Control_c, 0, 64, 0
2, 700409, Note_off_c, 0, 76, 64
2, 700430, Control_c, 0, 64, 127
2, 700456, Note_off_c, 0, 56, 64
2, 700475, Note_off_c, 0, 47, 64
2, 700475, Note_on_c, 0, 71, 40
2, 700481, Note_off_c, 0, 75, 64
2, 700590, Note_off_c, 0, 40, 64
2, 700596, Note_on_c, 0, 74, 35
2, 700600, Note_on_c, 0, 40, 39
2, 700619, Note_off_c, 0, 71, 64
2, 700682, Note_off_c, 0, 74, 64
2, 700685, Note_on_c, 0, 71, 44
2, 700793, Note_on_c, 0, 74, 39
2, 700802, Note_on_c, 0, 48, 36
2, 700808, Note_on_c, 0, 57, 22
2, 700820, Control_c, 0, 64, 0
2, 700822, Note_off_c, 0, 71, 64
2, 700845, Control_c, 0, 64, 127
2, 700860, Note_on_c, 0, 76, 39
2, 700886, Note_off_c, 0, 74, 64
2, 700917, Note_on_c, 0, 74, 42
2, 700945, Note_off_c, 0, 76, 64
2, 700950, Note_off_c, 0, 40, 64
2, 700982, Note_on_c, 0, 72, 42
2, 700991, Note_on_c, 0, 40, 24
2, 700996, Note_off_c, 0, 74, 64
2, 701012, Control_c, 0, 64, 0
2, 701036, Control_c, 0, 64, 127
2, 701126, Note_off_c, 0, 48, 64
2, 701132, Note_off_c, 0, 57, 64
2, 701170, Note_off_c, 0, 40, 64
2, 701175, Note_on_c, 0, 81, 45
2, 701187, Note_off_c, 0, 72, 64
2, 701206, Note_on_c, 0, 40, 33
2, 701215, Control_c, 0, 64, 0
2, 701219, Note_on_c, 0, 69, 37
2, 701242, Control_c, 0, 64, 127
2, 701257, Note_off_c, 0, 81, 64
2, 701406, Note_on_c, 0, 56, 36
2, 701415, Note_on_c, 0, 76, 44
2, 701415, Note_on_c, 0, 47, 45
2, 701434, Control_c, 0, 64, 0
2, 701444, Note_off_c, 0, 69, 64
2, 701451, Control_c, 0, 64, 127
2, 701465, Note_on_c, 0, 77, 44
2, 701491, Note_off_c, 0, 76, 64
2, 701503, Note_on_c, 0, 76, 48
2, 701520, Note_off_c, 0, 77, 64
2, 701616, Note_on_c, 0, 75, 48
2, 701617, Note_off_c, 0, 40, 64
2, 701624, Note_on_c, 0, 40, 45
2, 701638, Control_c, 0, 64, 0
2, 701641, Note_off_c, 0, 76, 64
2, 701652, Control_c, 0, 64, 127
2, 701671, Note_on_c, 0, 71, 40
2, 701696, Note_off_c, 0, 75, 64
2, 701730, Note_off_c, 0, 56, 64
2, 701739, Note_off_c, 0, 47, 64
2, 701814, Note_off_c, 0, 40, 64
2, 701824, Note_on_c, 0, 74, 58
2, 701824, Note_on_c, 0, 40, 44
2, 701830, Control_c, 0, 64, 0
2, 701844, Control_c, 0, 64, 127
2, 701849, Note_off_c, 0, 71, 64
2, 701901, Note_off_c, 0, 74, 64
2, 701916, Note_on_c, 0, 71, 48
2, 702008, Note_on_c, 0, 45, 22
2, 702010, Note_on_c, 0, 54, 28
2, 702018, Note_on_c, 0, 74, 45
2, 702022, Note_off_c, 0, 71, 64
2, 702076, Note_on_c, 0, 76, 44
2, 702086, Note_off_c, 0, 74, 64
2, 702122, Note_on_c, 0, 74, 52
2, 702142, Note_off_c, 0, 76, 64
2, 702176, Note_off_c, 0, 40, 64
2, 702185, Note_on_c, 0, 73, 61
2, 702195, Note_off_c, 0, 74, 64
2, 702205, Note_on_c, 0, 40, 52
2, 702318, Note_off_c, 0, 73, 64
2, 702332, Note_off_c, 0, 45, 64
2, 702334, Note_off_c, 0, 54, 64
2, 702349, Note_on_c, 0, 72, 53
2, 702380, Note_off_c, 0, 40, 64
2, 702397, Note_on_c, 0, 63, 62
2, 702405, Note_on_c, 0, 40, 44
2, 702413, Note_off_c, 0, 72, 64
2, 702420, Control_c, 0, 64, 0
2, 702433, Control_c, 0, 64, 127
2, 702502, Note_off_c, 0, 63, 64
2, 702558, Note_on_c, 0, 64, 44
2, 702586, Note_on_c, 0, 56, 35
2, 702599, Note_on_c, 0, 47, 50
2, 702602, Note_on_c, 0, 76, 54
2, 702617, Control_c, 0, 64, 0
2, 702652, Note_off_c, 0, 64, 64
2, 702652, Control_c, 0, 64, 127
2, 702717, Note_off_c, 0, 56, 64
2, 702721, Note_off_c, 0, 47, 64
2, 702787, Note_off_c, 0, 40, 64
2, 702789, Note_on_c, 0, 75, 57
2, 702799, Note_on_c, 0, 40, 57
2, 702804, Note_off_c, 0, 76, 64
2, 702804, Control_c, 0, 64, 0
2, 702828, Control_c, 0, 64, 127
2, 702861, Note_on_c, 0, 71, 52
2, 702884, Note_off_c, 0, 75, 64
2, 702974, Note_off_c, 0, 40, 64
2, 702975, Note_on_c, 0, 74, 52
2, 702978, Note_on_c, 0, 40, 53
2, 702984, Note_off_c, 0, 71, 64
2, 702985, Control_c, 0, 64, 0
2, 702999, Control_c, 0, 64, 127
2, 703018, Note_on_c, 0, 71, 57
2, 703048, Note_off_c, 0, 74, 64
2, 703169, Note_on_c, 0, 54, 35
2, 703175, Note_on_c, 0, 74, 53
2, 703181, Note_on_c, 0, 45, 50
2, 703185, Note_off_c, 0, 71, 64
2, 703195, Control_c, 0, 64, 0
2, 703207, Control_c, 0, 64, 127
2, 703227, Note_on_c, 0, 76, 44
2, 703230, Note_off_c, 0, 74, 64
2, 703264, Note_on_c, 0, 74, 58
2, 703289, Note_off_c, 0, 45, 64
2, 703295, Note_off_c, 0, 76, 64
2, 703301, Note_off_c, 0, 54, 64
2, 703304, Note_off_c, 0, 40, 64
2, 703339, Note_on_c, 0, 72, 33
2, 703353, Note_on_c, 0, 40, 58
2, 703355, Note_off_c, 0, 74, 64
2, 703379, Note_off_c, 0, 72, 64
2, 703506, Note_on_c, 0, 76, 59
2, 703507, Note_on_c, 0, 84, 61
2, 703541, Note_off_c, 0, 40, 64
2, 703568, Note_on_c, 0, 69, 63
2, 703581, Note_on_c, 0, 40, 67
2, 703588, Control_c, 0, 64, 0
2, 703594, Note_off_c, 0, 84, 64
2, 703608, Note_off_c, 0, 76, 64
2, 703611, Control_c, 0, 64, 127
2, 703815, Note_on_c, 0, 70, 68
2, 703820, Note_on_c, 0, 67, 62
2, 703831, Control_c, 0, 64, 0
2, 703839, Note_off_c, 0, 40, 64
2, 703856, Note_off_c, 0, 69, 64
2, 703865, Control_c, 0, 64, 127
2, 703890, Note_on_c, 0, 76, 67
2, 703894, Note_on_c, 0, 66, 67
2, 703909, Note_off_c, 0, 67, 64
2, 703927, Note_off_c, 0, 70, 64
2, 703962, Note_on_c, 0, 74, 65
2, 703971, Note_on_c, 0, 69, 62
2, 703971, Note_on_c, 0, 65, 68
2, 703977, Note_off_c, 0, 66, 64
2, 703982, Note_off_c, 0, 76, 64
2, 704046, Note_on_c, 0, 71, 65
2, 704052, Note_on_c, 0, 68, 67
2, 704052, Note_on_c, 0, 64, 68
2, 704062, Note_off_c, 0, 65, 64
2, 704067, Note_off_c, 0, 74, 64
2, 704068, Note_off_c, 0, 69, 64
2, 704069, Control_c, 0, 64, 0
2, 704121, Control_c, 0, 64, 127
2, 704286, Note_off_c, 0, 71, 64
2, 704292, Note_off_c, 0, 64, 64
2, 704292, Note_off_c, 0, 68, 64
2, 704417, Note_on_c, 0, 71, 58
2, 704417, Note_on_c, 0, 68, 57
2, 704417, Note_on_c, 0, 64, 58
2, 704464, Control_c, 0, 64, 0
2, 704489, Control_c, 0, 64, 127
2, 704822, Note_off_c, 0, 68, 64
2, 704828, Note_on_c, 0, 70, 44
2, 704832, Note_on_c, 0, 67, 37
2, 704836, Note_off_c, 0, 64, 64
2, 704836, Note_off_c, 0, 71, 64
2, 704852, Control_c, 0, 64, 0
2, 704874, Control_c, 0, 64, 127
2, 704950, Note_on_c, 0, 76, 42
2, 704953, Note_off_c, 0, 67, 64
2, 704960, Note_on_c, 0, 66, 29
2, 704971, Note_off_c, 0, 70, 64
2, 705057, Note_on_c, 0, 74, 35
2, 705070, Note_on_c, 0, 65, 36
2, 705079, Note_on_c, 0, 69, 26
2, 705092, Note_off_c, 0, 76, 64
2, 705098, Note_off_c, 0, 66, 64
2, 705211, Note_on_c, 0, 68, 39
2, 705216, Note_on_c, 0, 71, 37
2, 705216, Note_on_c, 0, 64, 24
2, 705229, Note_off_c, 0, 69, 64
2, 705231, Note_off_c, 0, 74, 64
2, 705237, Note_off_c, 0, 65, 64
2, 705307, Control_c, 0, 64, 0
2, 705421, Control_c, 0, 64, 127
2, 705474, Control_c, 0, 64, 0
2, 705538, Control_c, 0, 64, 127
2, 706659, Note_on_c, 0, 62, 9
2, 706661, Note_on_c, 0, 65, 9
2, 706673, Note_on_c, 0, 57, 9
2, 706682, Note_off_c, 0, 64, 64
2, 706726, Control_c, 0, 64, 0
2, 706749, Control_c, 0, 64, 127
2, 706961, Note_on_c, 0, 72, 24
2, 706976, Note_off_c, 0, 71, 64
2, 707023, Note_off_c, 0, 62, 64
2, 707025, Note_off_c, 0, 65, 64
2, 707037, Note_off_c, 0, 57, 64
2, 707037, Note_on_c, 0, 74, 24
2, 707040, Note_on_c, 0, 65, 20
2, 707053, Note_on_c, 0, 62, 16
2, 707061, Note_off_c, 0, 72, 64
2, 707061, Note_on_c, 0, 57, 13
2, 707280, Note_off_c, 0, 65, 64
2, 707293, Note_off_c, 0, 62, 64
2, 707301, Note_off_c, 0, 57, 64
2, 707320, Note_on_c, 0, 65, 20
2, 707334, Note_on_c, 0, 62, 20
2, 707336, Note_on_c, 0, 57, 16
2, 707490, Note_off_c, 0, 74, 64
2, 707528, Note_on_c, 0, 69, 33
2, 707548, Note_off_c, 0, 68, 64
2, 707565, Note_off_c, 0, 69, 64
2, 707587, Note_on_c, 0, 69, 36
2, 707596, Note_off_c, 0, 65, 64
2, 707610, Note_off_c, 0, 62, 64
2, 707612, Note_off_c, 0, 57, 64
2, 707635, Note_on_c, 0, 65, 14
2, 707643, Note_on_c, 0, 72, 40
2, 707643, Note_on_c, 0, 60, 14
2, 707652, Note_on_c, 0, 57, 14
2, 707658, Note_off_c, 0, 69, 64
2, 707689, Control_c, 0, 64, 0
2, 707711, Control_c, 0, 64, 127
2, 707875, Note_off_c, 0, 65, 64
2, 707883, Note_off_c, 0, 60, 64
2, 707892, Note_off_c, 0, 57, 64
2, 707912, Note_on_c, 0, 65, 20
2, 707920, Note_on_c, 0, 57, 20
2, 707921, Note_off_c, 0, 72, 64
2, 707924, Note_on_c, 0, 60, 20
2, 708188, Note_off_c, 0, 65, 64
2, 708196, Note_off_c, 0, 57, 64
2, 708200, Note_off_c, 0, 60, 64
2, 708200, Note_on_c, 0, 65, 20
2, 708220, Note_on_c, 0, 71, 36
2, 708220, Note_on_c, 0, 60, 14
2, 708220, Note_on_c, 0, 57, 16
2, 708372, Note_off_c, 0, 71, 64
2, 708376, Note_on_c, 0, 72, 40
2, 708440, Note_off_c, 0, 65, 64
2, 708460, Note_off_c, 0, 57, 64
2, 708460, Note_off_c, 0, 60, 64
2, 708477, Note_on_c, 0, 55, 13
2, 708489, Note_on_c, 0, 60, 20
2, 708494, Note_off_c, 0, 72, 64
2, 708496, Note_on_c, 0, 65, 22
2, 708534, Note_on_c, 0, 74, 31
2, 708566, Note_on_c, 0, 76, 36
2, 708573, Note_off_c, 0, 74, 64
2, 708609, Note_on_c, 0, 74, 42
2, 708629, Note_off_c, 0, 76, 64
2, 708744, Note_on_c, 0, 73, 36
2, 708752, Note_off_c, 0, 74, 64
2, 708794, Note_off_c, 0, 55, 64
2, 708806, Note_off_c, 0, 60, 64
2, 708813, Note_off_c, 0, 65, 64
2, 708840, Note_on_c, 0, 65, 9
2, 708840, Note_on_c, 0, 55, 14
2, 708852, Note_on_c, 0, 59, 20
2, 708866, Note_on_c, 0, 74, 36
2, 708874, Note_off_c, 0, 73, 64
2, 708956, Note_on_c, 0, 76, 44
2, 708981, Note_off_c, 0, 74, 64
2, 709033, Note_on_c, 0, 77, 36
2, 709051, Note_off_c, 0, 76, 64
2, 709116, Note_off_c, 0, 55, 64
2, 709116, Note_off_c, 0, 65, 64
2, 709128, Note_off_c, 0, 59, 64
2, 709128, Note_on_c, 0, 79, 40
2, 709138, Note_on_c, 0, 59, 20
2, 709140, Note_on_c, 0, 55, 13
2, 709147, Note_on_c, 0, 65, 13
2, 709149, Note_off_c, 0, 77, 64
2, 709163, Control_c, 0, 64, 0
2, 709199, Control_c, 0, 64, 127
2, 709260, Note_off_c, 0, 79, 64
2, 709407, Note_on_c, 0, 74, 40
2, 709455, Note_off_c, 0, 59, 64
2, 709457, Note_off_c, 0, 55, 64
2, 709464, Note_off_c, 0, 65, 64
2, 709479, Note_on_c, 0, 76, 40
2, 709479, Note_on_c, 0, 59, 20
2, 709484, Note_on_c, 0, 64, 14
2, 709484, Note_on_c, 0, 55, 13
2, 709490, Note_off_c, 0, 74, 64
2, 709509, Control_c, 0, 64, 0
2, 709544, Control_c, 0, 64, 127
2, 709719, Note_off_c, 0, 59, 64
2, 709724, Note_off_c, 0, 55, 64
2, 709724, Note_off_c, 0, 64, 64
2, 709752, Note_on_c, 0, 64, 14
2, 709762, Note_on_c, 0, 59, 20
2, 709764, Note_on_c, 0, 55, 13
2, 709992, Note_off_c, 0, 64, 64
2, 710002, Note_off_c, 0, 59, 64
2, 710004, Note_off_c, 0, 55, 64
2, 710020, Note_on_c, 0, 64, 16
2, 710022, Note_on_c, 0, 55, 14
2, 710028, Note_on_c, 0, 59, 20
2, 710260, Note_off_c, 0, 64, 64
2, 710262, Note_off_c, 0, 55, 64
2, 710268, Note_off_c, 0, 59, 64
2, 710305, Note_on_c, 0, 54, 11
2, 710307, Note_on_c, 0, 58, 11
2, 710311, Note_on_c, 0, 78, 44
2, 710317, Note_on_c, 0, 64, 13
2, 710339, Note_off_c, 0, 76, 64
2, 710341, Control_c, 0, 64, 0
2, 710377, Control_c, 0, 64, 127
2, 710545, Note_off_c, 0, 54, 64
2, 710547, Note_off_c, 0, 58, 64
2, 710557, Note_off_c, 0, 64, 64
2, 710586, Note_on_c, 0, 54, 10
2, 710592, Note_on_c, 0, 75, 23
2, 710592, Note_on_c, 0, 58, 14
2, 710607, Note_on_c, 0, 63, 5
2, 710621, Note_off_c, 0, 78, 64
2, 710632, Control_c, 0, 64, 0
2, 710661, Control_c, 0, 64, 127
2, 710826, Note_off_c, 0, 54, 64
2, 710832, Note_off_c, 0, 58, 64
2, 710847, Note_off_c, 0, 63, 64
2, 710848, Note_on_c, 0, 58, 9
2, 710851, Note_on_c, 0, 54, 10
2, 710857, Note_on_c, 0, 63, 9
2, 711088, Note_off_c, 0, 58, 64
2, 711091, Note_off_c, 0, 54, 64
2, 711097, Note_off_c, 0, 63, 64
2, 711131, Note_off_c, 0, 75, 64
2, 711139, Note_on_c, 0, 63, 10
2, 711144, Note_on_c, 0, 77, 45
2, 711148, Note_on_c, 0, 53, 10
2, 711149, Note_on_c, 0, 57, 14
2, 711168, Control_c, 0, 64, 0
2, 711203, Control_c, 0, 64, 127
2, 711379, Note_off_c, 0, 63, 64
2, 711388, Note_off_c, 0, 53, 64
2, 711389, Note_off_c, 0, 57, 64
2, 711410, Note_on_c, 0, 74, 24
2, 711416, Note_on_c, 0, 57, 20
2, 711423, Note_on_c, 0, 62, 14
2, 711423, Note_on_c, 0, 53, 14
2, 711432, Note_off_c, 0, 77, 64
2, 711461, Control_c, 0, 64, 0
2, 711475, Control_c, 0, 64, 127
2, 711636, Note_off_c, 0, 57, 64
2, 711643, Note_off_c, 0, 53, 64
2, 711643, Note_off_c, 0, 62, 64
2, 711655, Note_on_c, 0, 57, 14
2, 711655, Note_on_c, 0, 53, 11
2, 711658, Note_on_c, 0, 62, 11
2, 711895, Note_off_c, 0, 53, 64
2, 711895, Note_off_c, 0, 57, 64
2, 711898, Note_off_c, 0, 62, 64
2, 711920, Note_on_c, 0, 52, 16
2, 711927, Note_on_c, 0, 56, 22
2, 711936, Note_on_c, 0, 62, 16
2, 711974, Note_on_c, 0, 76, 32
2, 711974, Control_c, 0, 64, 0
2, 711988, Note_off_c, 0, 74, 64
2, 711999, Control_c, 0, 64, 127
2, 712026, Note_on_c, 0, 71, 36
2, 712037, Note_off_c, 0, 76, 64
2, 712160, Note_off_c, 0, 52, 64
2, 712167, Note_off_c, 0, 56, 64
2, 712176, Note_off_c, 0, 62, 64
2, 712176, Note_on_c, 0, 56, 14
2, 712200, Note_on_c, 0, 52, 16
2, 712200, Note_on_c, 0, 62, 20
2, 712247, Control_c, 0, 64, 0
2, 712268, Control_c, 0, 64, 127
2, 712416, Note_off_c, 0, 56, 64
2, 712440, Note_off_c, 0, 62, 64
2, 712440, Note_off_c, 0, 52, 64
2, 712454, Note_on_c, 0, 56, 44
2, 712464, Note_on_c, 0, 62, 26
2, 712472, Note_on_c, 0, 52, 10
2, 712694, Note_off_c, 0, 56, 64
2, 712704, Note_off_c, 0, 62, 64
2, 712712, Note_off_c, 0, 52, 64
2, 712738, Note_on_c, 0, 62, 16
2, 712741, Note_on_c, 0, 52, 20
2, 712742, Note_on_c, 0, 57, 39
2, 712787, Control_c, 0, 64, 0
2, 712791, Note_off_c, 0, 71, 64
2, 712791, Note_on_c, 0, 72, 36
2, 712823, Control_c, 0, 64, 127
2, 712850, Note_on_c, 0, 68, 58
2, 712874, Note_off_c, 0, 72, 64
2, 713014, Note_off_c, 0, 62, 64
2, 713017, Note_off_c, 0, 52, 64
2, 713018, Note_off_c, 0, 57, 64
2, 713034, Note_on_c, 0, 59, 28
2, 713039, Note_on_c, 0, 62, 22
2, 713046, Note_on_c, 0, 52, 20
2, 713063, Control_c, 0, 64, 0
2, 713107, Control_c, 0, 64, 127
2, 713310, Note_off_c, 0, 59, 64
2, 713315, Note_off_c, 0, 62, 64
2, 713322, Note_off_c, 0, 52, 64
2, 713331, Control_c, 0, 64, 0
2, 713339, Note_on_c, 0, 59, 28
2, 713340, Note_on_c, 0, 62, 22
2, 713346, Note_on_c, 0, 52, 20
2, 713352, Control_c, 0, 64, 127
2, 713462, Note_off_c, 0, 68, 64
2, 713594, Note_on_c, 0, 71, 36
2, 713645, Note_off_c, 0, 71, 64
2, 713723, Note_on_c, 0, 71, 36
2, 713728, Note_on_c, 0, 45, 50
2, 713757, Note_off_c, 0, 59, 64
2, 713758, Note_off_c, 0, 62, 64
2, 713762, Control_c, 0, 64, 0
2, 713764, Note_off_c, 0, 52, 64
2, 713774, Control_c, 0, 64, 127
2, 713782, Note_off_c, 0, 71, 64
2, 713842, Note_on_c, 0, 71, 36
2, 713944, Note_on_c, 0, 72, 36
2, 713949, Note_off_c, 0, 71, 64
2, 714016, Note_off_c, 0, 45, 64
2, 714034, Note_on_c, 0, 71, 36
2, 714069, Note_off_c, 0, 72, 64
2, 714113, Note_on_c, 0, 57, 22
2, 714120, Note_on_c, 0, 65, 16
2, 714123, Note_on_c, 0, 62, 22
2, 714136, Note_on_c, 0, 69, 40
2, 714150, Note_off_c, 0, 71, 64
2, 714161, Control_c, 0, 64, 0
2, 714177, Control_c, 0, 64, 127
2, 714267, Note_on_c, 0, 71, 36
2, 714349, Note_on_c, 0, 72, 40
2, 714356, Note_off_c, 0, 69, 64
2, 714372, Note_off_c, 0, 71, 64
2, 714403, Note_off_c, 0, 57, 64
2, 714410, Note_off_c, 0, 65, 64
2, 714413, Note_off_c, 0, 62, 64
2, 714444, Note_on_c, 0, 76, 36
2, 714454, Note_on_c, 0, 65, 26
2, 714454, Note_on_c, 0, 62, 22
2, 714454, Note_on_c, 0, 57, 22
2, 714468, Note_off_c, 0, 72, 64
2, 714479, Control_c, 0, 64, 0
2, 714492, Control_c, 0, 64, 127
2, 714616, Note_off_c, 0, 76, 64
2, 714623, Note_on_c, 0, 74, 40
2, 714679, Note_off_c, 0, 74, 64
2, 714696, Note_on_c, 0, 69, 29
2, 714732, Note_off_c, 0, 69, 64
2, 714744, Note_on_c, 0, 69, 40
2, 714787, Note_off_c, 0, 57, 64
2, 714787, Note_off_c, 0, 62, 64
2, 714787, Note_off_c, 0, 65, 64
2, 714794, Note_on_c, 0, 72, 40
2, 714800, Note_off_c, 0, 69, 64
2, 714804, Note_on_c, 0, 60, 14
2, 714804, Note_on_c, 0, 57, 22
2, 714811, Control_c, 0, 64, 0
2, 714816, Note_on_c, 0, 65, 14
2, 714845, Control_c, 0, 64, 127
2, 715024, Note_off_c, 0, 57, 64
2, 715024, Note_off_c, 0, 60, 64
2, 715036, Note_off_c, 0, 65, 64
2, 715046, Note_on_c, 0, 57, 22
2, 715052, Note_on_c, 0, 65, 16
2, 715052, Note_on_c, 0, 60, 22
2, 715083, Control_c, 0, 64, 0
2, 715097, Control_c, 0, 64, 127
2, 715224, Note_off_c, 0, 72, 64
2, 715286, Note_off_c, 0, 57, 64
2, 715292, Note_off_c, 0, 60, 64
2, 715292, Note_off_c, 0, 65, 64
2, 715328, Note_on_c, 0, 56, 11
2, 715331, Note_on_c, 0, 65, 22
2, 715332, Note_on_c, 0, 60, 22
2, 715346, Note_on_c, 0, 71, 28
2, 715451, Note_on_c, 0, 72, 28
2, 715460, Note_off_c, 0, 71, 64
2, 715525, Note_on_c, 0, 73, 28
2, 715560, Note_off_c, 0, 72, 64
2, 715604, Note_off_c, 0, 56, 64
2, 715607, Note_off_c, 0, 65, 64
2, 715608, Note_off_c, 0, 60, 64
2, 715633, Note_on_c, 0, 74, 36
2, 715641, Note_on_c, 0, 60, 14
2, 715643, Note_off_c, 0, 73, 64
2, 715648, Note_on_c, 0, 65, 14
2, 715654, Note_on_c, 0, 55, 11
2, 715674, Control_c, 0, 64, 0
2, 715690, Control_c, 0, 64, 127
2, 715748, Note_off_c, 0, 74, 64
2, 715749, Note_on_c, 0, 76, 14
2, 715799, Note_on_c, 0, 74, 29
2, 715826, Note_off_c, 0, 76, 64
2, 715851, Note_on_c, 0, 73, 23
2, 715854, Note_off_c, 0, 74, 64
2, 715881, Note_off_c, 0, 60, 64
2, 715888, Note_off_c, 0, 65, 64
2, 715894, Note_off_c, 0, 55, 64
2, 715905, Note_off_c, 0, 73, 64
2, 715906, Note_on_c, 0, 74, 36
2, 715929, Note_on_c, 0, 65, 14
2, 715936, Note_on_c, 0, 60, 14
2, 715945, Note_on_c, 0, 55, 14
2, 715963, Note_off_c, 0, 74, 64
2, 715965, Note_on_c, 0, 75, 32
2, 716027, Note_on_c, 0, 76, 36
2, 716028, Note_off_c, 0, 75, 64
2, 716077, Note_off_c, 0, 76, 64
2, 716078, Note_on_c, 0, 77, 28
2, 716141, Note_off_c, 0, 77, 64
2, 716143, Note_on_c, 0, 79, 23
2, 716204, Note_on_c, 0, 80, 28
2, 716205, Note_off_c, 0, 65, 64
2, 716207, Note_off_c, 0, 79, 64
2, 716212, Note_off_c, 0, 60, 64
2, 716221, Note_off_c, 0, 55, 64
2, 716232, Note_on_c, 0, 59, 14
2, 716248, Note_on_c, 0, 55, 14
2, 716255, Note_on_c, 0, 65, 14
2, 716265, Note_on_c, 0, 83, 28
2, 716286, Note_off_c, 0, 80, 64
2, 716321, Note_on_c, 0, 81, 24
2, 716339, Note_off_c, 0, 83, 64
2, 716385, Note_on_c, 0, 79, 24
2, 716400, Note_off_c, 0, 81, 64
2, 716457, Note_on_c, 0, 77, 26
2, 716485, Note_off_c, 0, 79, 64
2, 716508, Note_off_c, 0, 59, 64
2, 716524, Note_off_c, 0, 55, 64
2, 716531, Note_off_c, 0, 65, 64
2, 716536, Note_on_c, 0, 76, 37
2, 716536, Note_on_c, 0, 64, 14
2, 716542, Note_on_c, 0, 59, 20
2, 716549, Note_on_c, 0, 55, 11
2, 716558, Note_off_c, 0, 77, 64
2, 716572, Control_c, 0, 64, 0
2, 716608, Control_c, 0, 64, 127
2, 716776, Note_off_c, 0, 64, 64
2, 716782, Note_off_c, 0, 59, 64
2, 716789, Note_off_c, 0, 55, 64
2, 716819, Note_on_c, 0, 55, 20
2, 716820, Note_on_c, 0, 64, 14
2, 716821, Note_on_c, 0, 59, 14
2, 717059, Note_off_c, 0, 55, 64
2, 717060, Note_off_c, 0, 64, 64
2, 717061, Note_off_c, 0, 59, 64
2, 717089, Note_on_c, 0, 64, 14
2, 717089, Note_on_c, 0, 55, 14
2, 717095, Note_on_c, 0, 59, 16
2, 717329, Note_off_c, 0, 55, 64
2, 717329, Note_off_c, 0, 64, 64
2, 717335, Note_off_c, 0, 59, 64
2, 717366, Note_on_c, 0, 58, 24
2, 717366, Note_on_c, 0, 54, 24
2, 717373, Note_on_c, 0, 64, 20
2, 717408, Control_c, 0, 64, 0
2, 717432, Control_c, 0, 64, 127
2, 717577, Note_off_c, 0, 76, 64
2, 717606, Note_off_c, 0, 54, 64
2, 717606, Note_off_c, 0, 58, 64
2, 717613, Note_off_c, 0, 64, 64
2, 717631, Note_on_c, 0, 54, 15
2, 717636, Note_on_c, 0, 58, 16
2, 717650, Note_on_c, 0, 63, 16
2, 717673, Note_on_c, 0, 78, 36
2, 717723, Note_on_c, 0, 75, 44
2, 717729, Control_c, 0, 64, 0
2, 717749, Note_off_c, 0, 78, 64
2, 717754, Control_c, 0, 64, 127
2, 717907, Note_off_c, 0, 54, 64
2, 717912, Note_off_c, 0, 58, 64
2, 717926, Note_off_c, 0, 63, 64
2, 717956, Note_on_c, 0, 58, 16
2, 717963, Note_on_c, 0, 54, 27
2, 717971, Note_on_c, 0, 63, 16
2, 718166, Note_off_c, 0, 75, 64
2, 718232, Note_off_c, 0, 58, 64
2, 718239, Note_off_c, 0, 54, 64
2, 718247, Note_off_c, 0, 63, 64
2, 718264, Note_on_c, 0, 57, 15
2, 718272, Note_on_c, 0, 53, 1
2, 718273, Note_on_c, 0, 63, 18
2, 718331, Note_on_c, 0, 76, 28
2, 718361, Note_on_c, 0, 77, 40
2, 718394, Note_off_c, 0, 76, 64
2, 718414, Note_on_c, 0, 80, 33
2, 718418, Note_off_c, 0, 77, 64
2, 718464, Note_on_c, 0, 79, 36
2, 718475, Note_off_c, 0, 80, 64
2, 718514, Note_on_c, 0, 78, 31
2, 718522, Note_off_c, 0, 79, 64
2, 718552, Note_on_c, 0, 77, 44
2, 718560, Note_off_c, 0, 78, 64
2, 718581, Note_off_c, 0, 57, 64
2, 718589, Note_off_c, 0, 53, 64
2, 718590, Note_off_c, 0, 63, 64
2, 718605, Note_on_c, 0, 74, 48
2, 718616, Note_on_c, 0, 53, 16
2, 718621, Note_on_c, 0, 57, 24
2, 718626, Note_off_c, 0, 77, 64
2, 718628, Note_on_c, 0, 62, 16
2, 718657, Control_c, 0, 64, 0
2, 718691, Control_c, 0, 64, 127
2, 718892, Note_off_c, 0, 53, 64
2, 718897, Note_off_c, 0, 57, 64
2, 718904, Note_off_c, 0, 62, 64
2, 718938, Note_on_c, 0, 62, 20
2, 718942, Note_on_c, 0, 57, 27
2, 718942, Note_on_c, 0, 53, 16
2, 719215, Note_on_c, 0, 80, 52
2, 719255, Note_off_c, 0, 62, 64
2, 719259, Note_off_c, 0, 53, 64
2, 719259, Note_off_c, 0, 57, 64
2, 719260, Note_off_c, 0, 74, 64
2, 719288, Note_on_c, 0, 84, 52
2, 719299, Note_on_c, 0, 40, 35
2, 719306, Note_off_c, 0, 80, 64
2, 719310, Control_c, 0, 64, 0
2, 719331, Control_c, 0, 64, 127
2, 719444, Note_off_c, 0, 84, 64
2, 719540, Note_on_c, 0, 83, 42
2, 719575, Note_on_c, 0, 84, 42
2, 719581, Note_off_c, 0, 83, 64
2, 719618, Note_on_c, 0, 83, 50
2, 719631, Note_off_c, 0, 84, 64
2, 719647, Note_on_c, 0, 59, 32
2, 719654, Note_on_c, 0, 62, 24
2, 719661, Note_on_c, 0, 80, 52
2, 719664, Note_on_c, 0, 52, 24
2, 719677, Control_c, 0, 64, 0
2, 719681, Note_off_c, 0, 83, 64
2, 719700, Control_c, 0, 64, 127
2, 719717, Note_off_c, 0, 40, 64
2, 719762, Note_off_c, 0, 80, 64
2, 720011, Note_off_c, 0, 59, 64
2, 720018, Note_off_c, 0, 62, 64
2, 720028, Note_off_c, 0, 52, 64
2, 720042, Note_on_c, 0, 68, 44
2, 720056, Note_on_c, 0, 62, 15
2, 720056, Note_on_c, 0, 52, 15
2, 720057, Note_on_c, 0, 59, 15
2, 720087, Control_c, 0, 64, 0
2, 720099, Control_c, 0, 64, 127
2, 720435, Note_on_c, 0, 69, 27
2, 720436, Note_on_c, 0, 45, 29
2, 720450, Note_off_c, 0, 68, 64
2, 720452, Control_c, 0, 64, 0
2, 720474, Note_off_c, 0, 52, 64
2, 720474, Note_off_c, 0, 62, 64
2, 720475, Note_off_c, 0, 59, 64
2, 720508, Control_c, 0, 64, 127
2, 720775, Note_on_c, 0, 61, 20
2, 720780, Note_on_c, 0, 57, 15
2, 720783, Note_on_c, 0, 52, 15
2, 721139, Note_off_c, 0, 61, 64
2, 721144, Note_off_c, 0, 57, 64
2, 721147, Note_off_c, 0, 52, 64
2, 721152, Note_on_c, 0, 61, 15
2, 721173, Note_on_c, 0, 57, 14
2, 721175, Note_on_c, 0, 52, 14
2, 721229, Note_off_c, 0, 69, 64
2, 721235, Note_off_c, 0, 45, 64
2, 721428, Note_off_c, 0, 61, 64
2, 721449, Note_off_c, 0, 57, 64
2, 721451, Note_off_c, 0, 52, 64
2, 721520, Note_on_c, 0, 61, 19
2, 721524, Note_on_c, 0, 45, 29
2, 721527, Note_on_c, 0, 73, 31
2, 721533, Note_on_c, 0, 52, 20
2, 721638, Note_off_c, 0, 45, 64
2, 721657, Note_off_c, 0, 52, 64
2, 721661, Note_on_c, 0, 71, 16
2, 721683, Note_off_c, 0, 73, 64
2, 721772, Note_off_c, 0, 61, 64
2, 721772, Note_on_c, 0, 52, 22
2, 721776, Note_on_c, 0, 69, 29
2, 721778, Note_on_c, 0, 61, 31
2, 721784, Note_on_c, 0, 45, 16
2, 721800, Note_off_c, 0, 71, 64
2, 721841, Note_off_c, 0, 45, 64
2, 721846, Note_off_c, 0, 52, 64
2, 721999, Note_on_c, 0, 66, 39
2, 722001, Note_off_c, 0, 61, 64
2, 722006, Note_off_c, 0, 69, 64
2, 722008, Note_on_c, 0, 61, 33
2, 722008, Note_on_c, 0, 52, 29
2, 722008, Note_on_c, 0, 45, 26
2, 722076, Note_off_c, 0, 52, 64
2, 722083, Note_off_c, 0, 45, 64
2, 722148, Note_on_c, 0, 68, 35
2, 722166, Note_off_c, 0, 66, 64
2, 722182, Note_off_c, 0, 61, 64
2, 722190, Note_on_c, 0, 66, 39
2, 722226, Note_on_c, 0, 64, 42
2, 722233, Note_off_c, 0, 68, 64
2, 722233, Note_on_c, 0, 45, 31
2, 722234, Note_on_c, 0, 52, 33
2, 722236, Note_on_c, 0, 62, 39
2, 722275, Note_off_c, 0, 66, 64
2, 722279, Note_off_c, 0, 62, 64
2, 722302, Note_off_c, 0, 52, 64
2, 722304, Note_off_c, 0, 45, 64
2, 722350, Note_on_c, 0, 62, 37
2, 722377, Note_off_c, 0, 62, 64
2, 722442, Note_on_c, 0, 62, 39
2, 722448, Note_on_c, 0, 52, 33
2, 722449, Note_on_c, 0, 45, 29
2, 722507, Note_off_c, 0, 45, 64
2, 722507, Note_off_c, 0, 52, 64
2, 722652, Note_on_c, 0, 52, 33
2, 722652, Note_on_c, 0, 45, 33
2, 722658, Note_on_c, 0, 61, 37
2, 722666, Note_off_c, 0, 62, 64
2, 722710, Note_off_c, 0, 52, 64
2, 722718, Note_off_c, 0, 45, 64
2, 722743, Note_on_c, 0, 59, 42
2, 722794, Note_off_c, 0, 61, 64
2, 722848, Note_on_c, 0, 61, 45
2, 722852, Note_off_c, 0, 59, 64
2, 722854, Note_on_c, 0, 73, 48
2, 722861, Note_on_c, 0, 52, 28
2, 722862, Note_on_c, 0, 45, 22
2, 722875, Note_off_c, 0, 64, 64
2, 722930, Note_off_c, 0, 45, 64
2, 722938, Note_off_c, 0, 52, 64
2, 722951, Note_on_c, 0, 71, 35
2, 722984, Note_off_c, 0, 73, 64
2, 723025, Note_off_c, 0, 61, 64
2, 723055, Note_on_c, 0, 52, 29
2, 723060, Note_on_c, 0, 61, 48
2, 723064, Note_on_c, 0, 69, 42
2, 723069, Note_on_c, 0, 45, 26
2, 723077, Control_c, 0, 64, 0
2, 723090, Control_c, 0, 64, 127
2, 723119, Note_off_c, 0, 71, 64
2, 723126, Note_off_c, 0, 45, 64
2, 723127, Note_off_c, 0, 52, 64
2, 723251, Note_off_c, 0, 61, 64
2, 723259, Note_on_c, 0, 66, 35
2, 723263, Note_on_c, 0, 61, 39
2, 723264, Note_off_c, 0, 69, 64
2, 723265, Note_on_c, 0, 52, 33
2, 723271, Note_on_c, 0, 45, 29
2, 723319, Note_off_c, 0, 52, 64
2, 723324, Note_off_c, 0, 45, 64
2, 723390, Note_off_c, 0, 61, 64
2, 723390, Note_on_c, 0, 68, 35
2, 723407, Note_off_c, 0, 66, 64
2, 723428, Note_on_c, 0, 66, 35
2, 723463, Note_on_c, 0, 64, 37
2, 723469, Note_on_c, 0, 62, 42
2, 723473, Note_on_c, 0, 45, 31
2, 723474, Note_on_c, 0, 52, 37
2, 723501, Note_off_c, 0, 68, 64
2, 723505, Note_off_c, 0, 62, 64
2, 723513, Note_off_c, 0, 66, 64
2, 723530, Note_off_c, 0, 52, 64
2, 723535, Note_off_c, 0, 45, 64
2, 723552, Note_on_c, 0, 62, 42
2, 723579, Note_off_c, 0, 62, 64
2, 723625, Note_on_c, 0, 62, 48
2, 723667, Note_off_c, 0, 62, 64
2, 723670, Note_on_c, 0, 52, 26
2, 723675, Note_on_c, 0, 45, 22
2, 723683, Note_on_c, 0, 62, 44
2, 723733, Note_off_c, 0, 45, 64
2, 723733, Note_off_c, 0, 52, 64
2, 723877, Note_on_c, 0, 61, 40
2, 723884, Note_on_c, 0, 52, 37
2, 723887, Note_on_c, 0, 45, 33
2, 723899, Note_off_c, 0, 62, 64
2, 723941, Note_off_c, 0, 45, 64
2, 723944, Note_off_c, 0, 52, 64
2, 723972, Note_on_c, 0, 59, 48
2, 724008, Note_off_c, 0, 61, 64
2, 724069, Note_off_c, 0, 64, 64
2, 724075, Note_on_c, 0, 52, 31
2, 724075, Note_on_c, 0, 45, 22
2, 724077, Note_on_c, 0, 62, 31
2, 724078, Note_on_c, 0, 64, 36
2, 724122, Note_off_c, 0, 59, 64
2, 724142, Note_off_c, 0, 52, 64
2, 724150, Note_off_c, 0, 45, 64
2, 724161, Note_on_c, 0, 66, 35
2, 724193, Note_off_c, 0, 64, 64
2, 724195, Note_off_c, 0, 62, 64
2, 724261, Note_on_c, 0, 68, 40
2, 724263, Note_on_c, 0, 45, 28
2, 724269, Note_on_c, 0, 62, 37
2, 724269, Note_on_c, 0, 52, 33
2, 724271, Note_on_c, 0, 64, 35
2, 724271, Note_on_c, 0, 59, 24
2, 724307, Note_off_c, 0, 66, 64
2, 724314, Note_off_c, 0, 64, 64
2, 724315, Note_off_c, 0, 62, 64
2, 724329, Note_off_c, 0, 59, 64
2, 724330, Note_off_c, 0, 52, 64
2, 724332, Note_off_c, 0, 45, 64
2, 724458, Note_on_c, 0, 69, 42
2, 724464, Note_on_c, 0, 62, 39
2, 724465, Note_on_c, 0, 64, 37
2, 724466, Note_off_c, 0, 68, 64
2, 724473, Note_on_c, 0, 52, 31
2, 724473, Note_on_c, 0, 45, 31
2, 724475, Note_on_c, 0, 59, 26
2, 724520, Note_off_c, 0, 52, 64
2, 724526, Note_off_c, 0, 59, 64
2, 724528, Note_off_c, 0, 45, 64
2, 724528, Note_off_c, 0, 64, 64
2, 724533, Note_off_c, 0, 62, 64
2, 724660, Note_on_c, 0, 64, 1
2, 724663, Note_on_c, 0, 59, 29
2, 724663, Note_on_c, 0, 45, 29
2, 724668, Note_on_c, 0, 62, 39
2, 724669, Note_on_c, 0, 52, 35
2, 724672, Note_on_c, 0, 71, 44
2, 724696, Note_off_c, 0, 69, 64
2, 724711, Note_off_c, 0, 52, 64
2, 724714, Note_off_c, 0, 45, 64
2, 724716, Note_off_c, 0, 62, 64
2, 724717, Note_off_c, 0, 59, 64
2, 724722, Note_off_c, 0, 64, 64
2, 724759, Note_on_c, 0, 73, 61
2, 724827, Note_off_c, 0, 71, 64
2, 724844, Note_on_c, 0, 64, 31
2, 724851, Note_on_c, 0, 68, 37
2, 724851, Note_on_c, 0, 62, 50
2, 724856, Note_on_c, 0, 74, 52
2, 724856, Note_on_c, 0, 59, 37
2, 724856, Note_on_c, 0, 45, 37
2, 724862, Note_on_c, 0, 52, 40
2, 724886, Note_off_c, 0, 73, 64
2, 724895, Note_off_c, 0, 62, 64
2, 724895, Note_off_c, 0, 64, 64
2, 724904, Note_off_c, 0, 52, 64
2, 724913, Note_off_c, 0, 45, 64
2, 724913, Note_off_c, 0, 59, 64
2, 724958, Note_off_c, 0, 68, 64
2, 725051, Note_on_c, 0, 75, 50
2, 725053, Note_on_c, 0, 68, 52
2, 725060, Note_on_c, 0, 62, 50
2, 725060, Note_on_c, 0, 59, 45
2, 725060, Note_on_c, 0, 52, 52
2, 725066, Note_on_c, 0, 45, 35
2, 725068, Note_on_c, 0, 64, 40
2, 725076, Note_off_c, 0, 74, 64
2, 725099, Note_off_c, 0, 45, 64
2, 725100, Note_off_c, 0, 68, 64
2, 725106, Note_off_c, 0, 59, 64
2, 725107, Note_off_c, 0, 52, 64
2, 725110, Note_off_c, 0, 64, 64
2, 725126, Note_off_c, 0, 62, 64
2, 725244, Note_on_c, 0, 64, 36
2, 725247, Note_on_c, 0, 68, 57
2, 725247, Note_on_c, 0, 62, 58
2, 725260, Note_on_c, 0, 76, 54
2, 725260, Note_on_c, 0, 59, 44
2, 725260, Note_on_c, 0, 52, 50
2, 725260, Note_on_c, 0, 45, 36
2, 725288, Note_off_c, 0, 68, 64
2, 725295, Note_off_c, 0, 75, 64
2, 725298, Note_off_c, 0, 64, 64
2, 725303, Note_off_c, 0, 45, 64
2, 725305, Note_off_c, 0, 52, 64
2, 725311, Note_off_c, 0, 59, 64
2, 725315, Note_off_c, 0, 62, 64
2, 725328, Note_on_c, 0, 74, 52
2, 725345, Note_off_c, 0, 76, 64
2, 725425, Note_on_c, 0, 71, 37
2, 725427, Note_on_c, 0, 62, 37
2, 725428, Note_on_c, 0, 64, 44
2, 725433, Note_on_c, 0, 68, 42
2, 725437, Note_on_c, 0, 59, 44
2, 725442, Note_on_c, 0, 45, 37
2, 725443, Note_on_c, 0, 52, 44
2, 725455, Note_off_c, 0, 74, 64
2, 725476, Note_off_c, 0, 64, 64
2, 725487, Note_off_c, 0, 68, 64
2, 725487, Note_off_c, 0, 62, 64
2, 725492, Note_off_c, 0, 52, 64
2, 725493, Note_off_c, 0, 45, 64
2, 725495, Note_off_c, 0, 59, 64
2, 725620, Note_on_c, 0, 68, 35
2, 725628, Note_on_c, 0, 64, 1
2, 725636, Note_on_c, 0, 62, 42
2, 725639, Note_on_c, 0, 73, 50
2, 725639, Note_on_c, 0, 59, 40
2, 725644, Note_on_c, 0, 52, 40
2, 725644, Note_on_c, 0, 45, 39
2, 725678, Note_off_c, 0, 68, 64
2, 725690, Note_off_c, 0, 64, 64
2, 725692, Note_off_c, 0, 59, 64
2, 725696, Note_off_c, 0, 52, 64
2, 725697, Note_off_c, 0, 71, 64
2, 725699, Note_off_c, 0, 62, 64
2, 725703, Note_off_c, 0, 45, 64
2, 725840, Note_on_c, 0, 69, 50
2, 725840, Note_on_c, 0, 52, 48
2, 725844, Note_on_c, 0, 61, 57
2, 725848, Note_on_c, 0, 45, 48
2, 725849, Control_c, 0, 64, 0
2, 725864, Note_off_c, 0, 73, 64
2, 725865, Control_c, 0, 64, 127
2, 725882, Note_off_c, 0, 52, 64
2, 725900, Note_off_c, 0, 45, 64
2, 725934, Note_on_c, 0, 73, 50
2, 725965, Note_off_c, 0, 69, 64
2, 725981, Note_off_c, 0, 61, 64
2, 726046, Note_on_c, 0, 68, 53
2, 726048, Note_on_c, 0, 71, 54
2, 726054, Note_on_c, 0, 59, 57
2, 726060, Note_on_c, 0, 52, 57
2, 726062, Note_on_c, 0, 64, 57
2, 726062, Note_on_c, 0, 40, 54
2, 726074, Note_off_c, 0, 73, 64
2, 726100, Control_c, 0, 64, 0
2, 726225, Control_c, 0, 64, 127
2, 726316, Note_on_c, 0, 62, 39
2, 726318, Note_on_c, 0, 66, 37
2, 726350, Note_off_c, 0, 68, 64
2, 726358, Note_off_c, 0, 59, 64
2, 726366, Note_off_c, 0, 64, 64
2, 726527, Note_off_c, 0, 71, 64
2, 726528, Note_off_c, 0, 62, 64
2, 726530, Note_off_c, 0, 66, 64
2, 726539, Note_off_c, 0, 52, 64
2, 726541, Note_off_c, 0, 40, 64
2, 726605, Note_on_c, 0, 61, 44
2, 726606, Note_on_c, 0, 73, 44
2, 726613, Note_on_c, 0, 52, 33
2, 726618, Note_on_c, 0, 45, 35
2, 726649, Control_c, 0, 64, 0
2, 726661, Control_c, 0, 64, 127
2, 726710, Note_on_c, 0, 71, 35
2, 726744, Note_off_c, 0, 52, 64
2, 726744, Note_off_c, 0, 45, 64
2, 726762, Note_off_c, 0, 73, 64
2, 726789, Note_off_c, 0, 61, 64
2, 726825, Note_on_c, 0, 52, 42
2, 726825, Note_on_c, 0, 45, 42
2, 726831, Note_on_c, 0, 61, 52
2, 726834, Note_on_c, 0, 69, 44
2, 726840, Control_c, 0, 64, 0
2, 726855, Control_c, 0, 64, 127
2, 726888, Note_off_c, 0, 71, 64
2, 726892, Note_off_c, 0, 52, 64
2, 726899, Note_off_c, 0, 45, 64
2, 727010, Note_off_c, 0, 61, 64
2, 727024, Note_on_c, 0, 66, 44
2, 727029, Note_on_c, 0, 61, 52
2, 727031, Note_on_c, 0, 52, 42
2, 727037, Note_on_c, 0, 45, 33
2, 727077, Note_off_c, 0, 69, 64
2, 727084, Note_off_c, 0, 45, 64
2, 727090, Note_off_c, 0, 52, 64
2, 727156, Note_off_c, 0, 61, 64
2, 727158, Note_on_c, 0, 68, 44
2, 727174, Note_off_c, 0, 66, 64
2, 727193, Note_on_c, 0, 66, 39
2, 727227, Note_on_c, 0, 64, 44
2, 727233, Note_on_c, 0, 62, 53
2, 727239, Note_on_c, 0, 52, 44
2, 727239, Note_on_c, 0, 45, 39
2, 727243, Note_off_c, 0, 68, 64
2, 727270, Note_off_c, 0, 62, 64
2, 727278, Note_off_c, 0, 66, 64
2, 727293, Note_off_c, 0, 45, 64
2, 727294, Note_off_c, 0, 52, 64
2, 727332, Note_on_c, 0, 62, 42
2, 727366, Note_off_c, 0, 62, 64
2, 727421, Note_on_c, 0, 62, 54
2, 727423, Note_on_c, 0, 52, 44
2, 727429, Note_on_c, 0, 45, 39
2, 727481, Note_off_c, 0, 52, 64
2, 727489, Note_off_c, 0, 45, 64
2, 727617, Note_on_c, 0, 52, 44
2, 727617, Note_on_c, 0, 45, 42
2, 727619, Note_on_c, 0, 61, 45
2, 727633, Control_c, 0, 64, 0
2, 727642, Note_off_c, 0, 62, 64
2, 727647, Control_c, 0, 64, 127
2, 727676, Note_off_c, 0, 52, 64
2, 727678, Note_off_c, 0, 45, 64
2, 727701, Note_on_c, 0, 59, 53
2, 727730, Note_off_c, 0, 61, 64
2, 727800, Note_on_c, 0, 73, 50
2, 727803, Note_on_c, 0, 61, 57
2, 727809, Note_on_c, 0, 52, 42
2, 727809, Note_on_c, 0, 45, 39
2, 727816, Control_c, 0, 64, 0
2, 727829, Control_c, 0, 64, 127
2, 727832, Note_off_c, 0, 59, 64
2, 727837, Note_off_c, 0, 64, 64
2, 727873, Note_off_c, 0, 52, 64
2, 727875, Note_off_c, 0, 45, 64
2, 727897, Note_on_c, 0, 71, 29
2, 727903, Note_off_c, 0, 73, 64
2, 727992, Note_on_c, 0, 52, 44
2, 727996, Note_on_c, 0, 45, 44
2, 727999, Note_on_c, 0, 69, 50
2, 728002, Note_off_c, 0, 61, 64
2, 728004, Note_on_c, 0, 61, 54
2, 728006, Control_c, 0, 64, 0
2, 728023, Control_c, 0, 64, 127
2, 728056, Note_off_c, 0, 45, 64
2, 728056, Note_off_c, 0, 52, 64
2, 728065, Note_off_c, 0, 71, 64
2, 728166, Note_off_c, 0, 61, 64
2, 728172, Note_on_c, 0, 66, 50
2, 728183, Note_on_c, 0, 61, 54
2, 728188, Note_on_c, 0, 52, 44
2, 728191, Note_on_c, 0, 45, 40
2, 728203, Note_off_c, 0, 69, 64
2, 728241, Note_off_c, 0, 45, 64
2, 728241, Note_off_c, 0, 52, 64
2, 728265, Note_off_c, 0, 66, 64
2, 728300, Note_on_c, 0, 68, 62
2, 728332, Note_on_c, 0, 66, 39
2, 728372, Note_off_c, 0, 68, 64
2, 728372, Note_on_c, 0, 62, 52
2, 728380, Note_on_c, 0, 64, 44
2, 728382, Note_on_c, 0, 52, 45
2, 728383, Note_on_c, 0, 45, 44
2, 728386, Note_off_c, 0, 61, 64
2, 728406, Note_off_c, 0, 66, 64
2, 728411, Note_off_c, 0, 62, 64
2, 728436, Note_off_c, 0, 45, 64
2, 728436, Note_off_c, 0, 52, 64
2, 728452, Note_on_c, 0, 62, 53
2, 728485, Note_off_c, 0, 62, 64
2, 728526, Note_on_c, 0, 62, 50
2, 728546, Note_off_c, 0, 62, 64
2, 728579, Note_on_c, 0, 62, 57
2, 728582, Note_on_c, 0, 52, 48
2, 728582, Note_on_c, 0, 45, 44
2, 728622, Note_off_c, 0, 52, 64
2, 728624, Note_off_c, 0, 45, 64
2, 728766, Note_on_c, 0, 61, 50
2, 728774, Note_on_c, 0, 52, 44
2, 728774, Note_on_c, 0, 45, 44
2, 728796, Note_off_c, 0, 62, 64
2, 728827, Note_off_c, 0, 45, 64
2, 728828, Note_off_c, 0, 52, 64
2, 728842, Note_on_c, 0, 59, 53
2, 728868, Note_off_c, 0, 61, 64
2, 728915, Note_off_c, 0, 59, 64
2, 728930, Note_off_c, 0, 64, 64
2, 728948, Note_on_c, 0, 62, 55
2, 728951, Note_on_c, 0, 64, 49
2, 728952, Note_on_c, 0, 59, 35
2, 728952, Note_on_c, 0, 45, 45
2, 728956, Note_on_c, 0, 52, 46
2, 729004, Note_off_c, 0, 45, 64
2, 729017, Note_off_c, 0, 59, 64
2, 729017, Note_off_c, 0, 62, 64
2, 729021, Note_off_c, 0, 52, 64
2, 729030, Note_on_c, 0, 66, 54
2, 729060, Note_off_c, 0, 64, 64
2, 729120, Note_on_c, 0, 68, 50
2, 729129, Note_on_c, 0, 64, 50
2, 729131, Note_on_c, 0, 62, 50
2, 729132, Note_on_c, 0, 59, 36
2, 729132, Note_on_c, 0, 52, 50
2, 729134, Note_on_c, 0, 45, 50
2, 729151, Note_off_c, 0, 66, 64
2, 729174, Note_off_c, 0, 62, 64
2, 729184, Note_off_c, 0, 64, 64
2, 729189, Note_off_c, 0, 45, 64
2, 729192, Note_off_c, 0, 52, 64
2, 729197, Note_off_c, 0, 59, 64
2, 729304, Note_on_c, 0, 59, 37
2, 729312, Note_off_c, 0, 68, 64
2, 729313, Note_on_c, 0, 69, 50
2, 729313, Note_on_c, 0, 62, 50
2, 729319, Note_on_c, 0, 64, 52
2, 729319, Note_on_c, 0, 52, 52
2, 729324, Note_on_c, 0, 45, 49
2, 729363, Note_off_c, 0, 62, 64
2, 729367, Note_off_c, 0, 64, 64
2, 729369, Note_off_c, 0, 59, 64
2, 729370, Note_off_c, 0, 45, 64
2, 729372, Note_off_c, 0, 52, 64
2, 729484, Note_on_c, 0, 64, 46
2, 729486, Note_on_c, 0, 71, 55
2, 729489, Note_on_c, 0, 62, 50
2, 729492, Note_on_c, 0, 68, 39
2, 729492, Note_on_c, 0, 45, 45
2, 729495, Note_on_c, 0, 52, 46
2, 729496, Note_on_c, 0, 59, 39
2, 729509, Note_off_c, 0, 69, 64
2, 729538, Note_off_c, 0, 64, 64
2, 729543, Note_off_c, 0, 62, 64
2, 729544, Note_off_c, 0, 52, 64
2, 729545, Note_off_c, 0, 45, 64
2, 729546, Note_off_c, 0, 68, 64
2, 729561, Note_off_c, 0, 59, 64
2, 729583, Note_on_c, 0, 72, 54
2, 729623, Note_off_c, 0, 71, 64
2, 729672, Control_c, 0, 64, 0
2, 729680, Note_on_c, 0, 57, 40
2, 729681, Note_on_c, 0, 52, 57
2, 729681, Note_on_c, 0, 45, 54
2, 729682, Note_on_c, 0, 61, 67
2, 729688, Note_on_c, 0, 69, 52
2, 729698, Control_c, 0, 64, 127
2, 729700, Note_on_c, 0, 73, 63
2, 729720, Note_off_c, 0, 61, 64
2, 729727, Note_off_c, 0, 72, 64
2, 729740, Note_off_c, 0, 52, 64
2, 729744, Note_off_c, 0, 45, 64
2, 729745, Note_off_c, 0, 57, 64
2, 729756, Note_off_c, 0, 69, 64
2, 729871, Note_on_c, 0, 61, 71
2, 729878, Note_on_c, 0, 69, 59
2, 729888, Note_on_c, 0, 57, 41
2, 729888, Note_on_c, 0, 45, 48
2, 729889, Note_on_c, 0, 52, 50
2, 729909, Note_off_c, 0, 61, 64
2, 729911, Note_off_c, 0, 69, 64
2, 729940, Note_off_c, 0, 45, 64
2, 729946, Note_off_c, 0, 52, 64
2, 729953, Note_off_c, 0, 57, 64
2, 729956, Note_on_c, 0, 66, 70
2, 729960, Note_on_c, 0, 78, 70
2, 729977, Note_off_c, 0, 73, 64
2, 730009, Note_off_c, 0, 66, 64
2, 730064, Note_on_c, 0, 59, 48
2, 730064, Note_on_c, 0, 45, 39
2, 730065, Note_on_c, 0, 52, 57
2, 730068, Note_on_c, 0, 64, 57
2, 730070, Note_on_c, 0, 68, 62
2, 730071, Note_on_c, 0, 76, 65
2, 730078, Note_off_c, 0, 78, 64
2, 730126, Note_off_c, 0, 59, 64
2, 730131, Note_off_c, 0, 52, 64
2, 730136, Note_off_c, 0, 45, 64
2, 730140, Note_off_c, 0, 64, 64
2, 730156, Note_on_c, 0, 71, 62
2, 730164, Note_off_c, 0, 68, 64
2, 730181, Note_off_c, 0, 76, 64
2, 730240, Note_on_c, 0, 45, 52
2, 730242, Note_on_c, 0, 73, 62
2, 730248, Note_on_c, 0, 69, 62
2, 730248, Note_on_c, 0, 61, 72
2, 730251, Note_on_c, 0, 52, 54
2, 730257, Control_c, 0, 64, 0
2, 730264, Note_off_c, 0, 71, 64
2, 730296, Control_c, 0, 64, 127
2, 730299, Note_off_c, 0, 45, 64
2, 730318, Note_off_c, 0, 52, 64
2, 730336, Note_off_c, 0, 69, 64
2, 730359, Note_off_c, 0, 61, 64
2, 730432, Note_on_c, 0, 69, 67
2, 730436, Note_on_c, 0, 52, 57
2, 730436, Note_on_c, 0, 45, 40
2, 730437, Note_on_c, 0, 61, 62
2, 730491, Note_off_c, 0, 52, 64
2, 730499, Note_off_c, 0, 61, 64
2, 730500, Note_off_c, 0, 69, 64
2, 730507, Note_off_c, 0, 45, 64
2, 730524, Note_on_c, 0, 66, 71
2, 730526, Note_on_c, 0, 78, 67
2, 730550, Note_off_c, 0, 73, 64
2, 730577, Note_off_c, 0, 66, 64
2, 730604, Note_on_c, 0, 62, 66
2, 730605, Note_on_c, 0, 64, 54
2, 730612, Note_on_c, 0, 68, 54
2, 730614, Note_on_c, 0, 45, 41
2, 730623, Note_on_c, 0, 76, 48
2, 730627, Note_on_c, 0, 59, 32
2, 730634, Note_on_c, 0, 52, 20
2, 730647, Note_off_c, 0, 78, 64
2, 730689, Note_off_c, 0, 59, 64
2, 730712, Note_off_c, 0, 52, 64
2, 730719, Note_on_c, 0, 75, 50
2, 730724, Note_off_c, 0, 45, 64
2, 730742, Note_off_c, 0, 68, 64
2, 730758, Note_off_c, 0, 76, 64
2, 730764, Note_off_c, 0, 62, 64
2, 730765, Note_off_c, 0, 64, 64
2, 730812, Note_on_c, 0, 52, 42
2, 730817, Note_on_c, 0, 59, 33
2, 730817, Note_on_c, 0, 45, 31
2, 730818, Note_on_c, 0, 74, 50
2, 730820, Note_on_c, 0, 62, 54
2, 730824, Note_on_c, 0, 68, 48
2, 730824, Note_on_c, 0, 64, 32
2, 730837, Control_c, 0, 64, 0
2, 730856, Note_off_c, 0, 75, 64
2, 730862, Control_c, 0, 64, 127
2, 730892, Note_off_c, 0, 59, 64
2, 730893, Note_off_c, 0, 45, 64
2, 730896, Note_off_c, 0, 52, 64
2, 730902, Note_off_c, 0, 62, 64
2, 730907, Note_off_c, 0, 64, 64
2, 730952, Note_off_c, 0, 68, 64
2, 731015, Note_on_c, 0, 52, 35
2, 731020, Note_on_c, 0, 59, 27
2, 731020, Note_on_c, 0, 45, 23
2, 731021, Note_on_c, 0, 64, 35
2, 731075, Note_off_c, 0, 59, 64
2, 731079, Note_off_c, 0, 52, 64
2, 731086, Note_off_c, 0, 45, 64
2, 731112, Note_on_c, 0, 72, 35
2, 731131, Note_off_c, 0, 74, 64
2, 731132, Note_off_c, 0, 64, 64
2, 731234, Note_on_c, 0, 61, 44
2, 731236, Note_on_c, 0, 69, 58
2, 731239, Note_on_c, 0, 73, 48
2, 731246, Note_on_c, 0, 52, 35
2, 731248, Note_off_c, 0, 72, 64
2, 731249, Note_on_c, 0, 45, 29
2, 731270, Control_c, 0, 64, 0
2, 731284, Control_c, 0, 64, 127
2, 731318, Note_off_c, 0, 52, 64
2, 731323, Note_off_c, 0, 45, 64
2, 731328, Note_on_c, 0, 71, 42
2, 731347, Note_off_c, 0, 73, 64
2, 731363, Note_off_c, 0, 69, 64
2, 731408, Note_off_c, 0, 61, 64
2, 731422, Note_on_c, 0, 69, 52
2, 731422, Note_on_c, 0, 52, 44
2, 731428, Note_on_c, 0, 45, 42
2, 731432, Control_c, 0, 64, 0
2, 731436, Note_on_c, 0, 61, 44
2, 731444, Note_off_c, 0, 71, 64
2, 731468, Control_c, 0, 64, 127
2, 731478, Note_off_c, 0, 52, 64
2, 731481, Note_off_c, 0, 45, 64
2, 731592, Note_off_c, 0, 61, 64
2, 731609, Note_on_c, 0, 52, 44
2, 731610, Note_on_c, 0, 66, 50
2, 731615, Note_on_c, 0, 61, 44
2, 731620, Note_on_c, 0, 45, 39
2, 731622, Note_off_c, 0, 69, 64
2, 731626, Control_c, 0, 64, 0
2, 731639, Control_c, 0, 64, 127
2, 731654, Note_off_c, 0, 45, 64
2, 731661, Note_off_c, 0, 52, 64
2, 731712, Note_on_c, 0, 68, 48
2, 731744, Note_off_c, 0, 66, 64
2, 731746, Note_on_c, 0, 66, 35
2, 731778, Note_off_c, 0, 61, 64
2, 731783, Control_c, 0, 64, 0
2, 731797, Note_off_c, 0, 68, 64
2, 731804, Note_on_c, 0, 64, 44
2, 731806, Note_on_c, 0, 62, 44
2, 731813, Note_on_c, 0, 52, 39
2, 731815, Note_on_c, 0, 45, 39
2, 731828, Control_c, 0, 64, 127
2, 731831, Note_off_c, 0, 66, 64
2, 731843, Note_off_c, 0, 62, 64
2, 731858, Note_off_c, 0, 52, 64
2, 731864, Note_off_c, 0, 45, 64
2, 731885, Note_on_c, 0, 62, 50
2, 731920, Note_off_c, 0, 62, 64
2, 731966, Note_on_c, 0, 62, 53
2, 731975, Note_on_c, 0, 52, 50
2, 731980, Note_on_c, 0, 45, 44
2, 731988, Control_c, 0, 64, 0
2, 732000, Control_c, 0, 64, 127
2, 732018, Note_off_c, 0, 45, 64
2, 732024, Note_off_c, 0, 52, 64
2, 732145, Note_on_c, 0, 61, 48
2, 732149, Control_c, 0, 64, 0
2, 732155, Note_on_c, 0, 52, 53
2, 732157, Note_on_c, 0, 45, 48
2, 732178, Control_c, 0, 64, 127
2, 732184, Note_off_c, 0, 62, 64
2, 732205, Note_off_c, 0, 52, 64
2, 732207, Note_off_c, 0, 45, 64
2, 732240, Note_on_c, 0, 59, 54
2, 732267, Note_off_c, 0, 61, 64
2, 732327, Note_on_c, 0, 73, 53
2, 732327, Note_on_c, 0, 45, 37
2, 732332, Note_on_c, 0, 61, 53
2, 732332, Note_on_c, 0, 52, 22
2, 732337, Control_c, 0, 64, 0
2, 732349, Note_off_c, 0, 64, 64
2, 732353, Control_c, 0, 64, 127
2, 732357, Note_off_c, 0, 59, 64
2, 732389, Note_off_c, 0, 52, 64
2, 732396, Note_off_c, 0, 45, 64
2, 732407, Note_on_c, 0, 71, 39
2, 732426, Note_off_c, 0, 73, 64
2, 732488, Note_off_c, 0, 61, 64
2, 732504, Note_on_c, 0, 52, 44
2, 732509, Note_on_c, 0, 45, 42
2, 732512, Note_on_c, 0, 69, 50
2, 732522, Note_on_c, 0, 61, 50
2, 732527, Note_off_c, 0, 71, 64
2, 732532, Control_c, 0, 64, 0
2, 732545, Control_c, 0, 64, 127
2, 732561, Note_off_c, 0, 52, 64
2, 732563, Note_off_c, 0, 45, 64
2, 732680, Note_off_c, 0, 61, 64
2, 732689, Note_on_c, 0, 66, 53
2, 732689, Note_on_c, 0, 61, 57
2, 732696, Note_on_c, 0, 52, 45
2, 732700, Note_on_c, 0, 45, 44
2, 732705, Note_off_c, 0, 69, 64
2, 732738, Note_off_c, 0, 52, 64
2, 732745, Note_off_c, 0, 45, 64
2, 732784, Note_on_c, 0, 68, 53
2, 732799, Note_off_c, 0, 66, 64
2, 732820, Note_off_c, 0, 61, 64
2, 732828, Note_on_c, 0, 66, 50
2, 732853, Note_off_c, 0, 68, 64
2, 732868, Note_on_c, 0, 64, 44
2, 732872, Note_on_c, 0, 62, 53
2, 732885, Note_off_c, 0, 66, 64
2, 732886, Note_on_c, 0, 45, 42
2, 732893, Note_on_c, 0, 52, 36
2, 732902, Note_off_c, 0, 62, 64
2, 732942, Note_off_c, 0, 52, 64
2, 732942, Note_on_c, 0, 62, 54
2, 732946, Note_off_c, 0, 45, 64
2, 732974, Note_off_c, 0, 62, 64
2, 733004, Note_on_c, 0, 62, 48
2, 733032, Note_off_c, 0, 62, 64
2, 733059, Note_on_c, 0, 62, 58
2, 733069, Note_on_c, 0, 52, 48
2, 733072, Note_on_c, 0, 45, 44
2, 733106, Note_off_c, 0, 45, 64
2, 733114, Note_off_c, 0, 52, 64
2, 733235, Control_c, 0, 64, 0
2, 733242, Note_on_c, 0, 61, 50
2, 733245, Note_on_c, 0, 52, 44
2, 733245, Note_on_c, 0, 45, 42
2, 733262, Note_off_c, 0, 62, 64
2, 733264, Control_c, 0, 64, 127
2, 733299, Note_off_c, 0, 52, 64
2, 733301, Note_off_c, 0, 45, 64
2, 733319, Note_on_c, 0, 59, 54
2, 733336, Note_off_c, 0, 61, 64
2, 733388, Note_off_c, 0, 64, 64
2, 733410, Note_on_c, 0, 64, 40
2, 733410, Note_on_c, 0, 62, 44
2, 733410, Note_on_c, 0, 52, 31
2, 733418, Note_on_c, 0, 45, 35
2, 733425, Control_c, 0, 64, 0
2, 733435, Note_off_c, 0, 59, 64
2, 733439, Control_c, 0, 64, 127
2, 733467, Note_off_c, 0, 45, 64
2, 733470, Note_off_c, 0, 52, 64
2, 733487, Note_on_c, 0, 66, 36
2, 733516, Note_off_c, 0, 62, 64
2, 733520, Note_off_c, 0, 64, 64
2, 733574, Note_on_c, 0, 68, 40
2, 733582, Note_on_c, 0, 64, 42
2, 733582, Note_on_c, 0, 52, 37
2, 733586, Note_on_c, 0, 62, 42
2, 733586, Note_on_c, 0, 45, 37
2, 733622, Note_off_c, 0, 66, 64
2, 733635, Note_off_c, 0, 45, 64
2, 733638, Note_off_c, 0, 62, 64
2, 733638, Note_off_c, 0, 52, 64
2, 733642, Note_off_c, 0, 64, 64
2, 733757, Note_on_c, 0, 69, 44
2, 733757, Note_on_c, 0, 64, 44
2, 733757, Note_on_c, 0, 62, 44
2, 733767, Note_on_c, 0, 52, 40
2, 733768, Note_off_c, 0, 68, 64
2, 733773, Note_on_c, 0, 45, 36
2, 733808, Note_off_c, 0, 64, 64
2, 733810, Note_off_c, 0, 45, 64
2, 733811, Note_off_c, 0, 52, 64
2, 733815, Note_off_c, 0, 62, 64
2, 733938, Note_on_c, 0, 71, 50
2, 733940, Note_on_c, 0, 64, 22
2, 733943, Note_on_c, 0, 62, 44
2, 733943, Note_on_c, 0, 52, 42
2, 733943, Note_on_c, 0, 45, 44
2, 733960, Note_off_c, 0, 69, 64
2, 733983, Note_off_c, 0, 64, 64
2, 733990, Note_off_c, 0, 45, 64
2, 733992, Note_off_c, 0, 52, 64
2, 734003, Note_off_c, 0, 62, 64
2, 734024, Note_on_c, 0, 73, 67
2, 734054, Note_off_c, 0, 71, 64
2, 734108, Note_on_c, 0, 74, 57
2, 734108, Note_on_c, 0, 64, 62
2, 734112, Note_on_c, 0, 62, 58
2, 734116, Note_on_c, 0, 68, 59
2, 734119, Note_on_c, 0, 52, 50
2, 734119, Note_on_c, 0, 45, 48
2, 734130, Note_off_c, 0, 73, 64
2, 734160, Note_off_c, 0, 45, 64
2, 734161, Note_off_c, 0, 64, 64
2, 734162, Note_off_c, 0, 68, 64
2, 734165, Note_off_c, 0, 52, 64
2, 734167, Note_off_c, 0, 62, 64
2, 734292, Note_on_c, 0, 75, 61
2, 734292, Note_on_c, 0, 68, 67
2, 734296, Note_on_c, 0, 45, 50
2, 734303, Note_on_c, 0, 52, 53
2, 734304, Note_on_c, 0, 64, 67
2, 734308, Note_on_c, 0, 62, 45
2, 734318, Note_off_c, 0, 74, 64
2, 734345, Note_off_c, 0, 68, 64
2, 734349, Note_off_c, 0, 62, 64
2, 734349, Note_off_c, 0, 45, 64
2, 734354, Note_off_c, 0, 52, 64
2, 734357, Note_off_c, 0, 64, 64
2, 734469, Note_on_c, 0, 68, 53
2, 734476, Note_on_c, 0, 64, 57
2, 734480, Note_on_c, 0, 62, 50
2, 734482, Note_on_c, 0, 52, 57
2, 734485, Note_on_c, 0, 45, 53
2, 734489, Note_on_c, 0, 76, 53
2, 734509, Note_off_c, 0, 75, 64
2, 734522, Note_off_c, 0, 64, 64
2, 734531, Note_off_c, 0, 62, 64
2, 734532, Note_off_c, 0, 52, 64
2, 734536, Note_off_c, 0, 45, 64
2, 734557, Note_on_c, 0, 74, 57
2, 734591, Note_off_c, 0, 76, 64
2, 734591, Note_off_c, 0, 68, 64
2, 734660, Note_on_c, 0, 64, 62
2, 734660, Note_on_c, 0, 62, 54
2, 734664, Note_on_c, 0, 71, 62
2, 734666, Note_on_c, 0, 68, 61
2, 734666, Note_on_c, 0, 52, 50
2, 734666, Note_on_c, 0, 45, 50
2, 734690, Note_off_c, 0, 74, 64
2, 734742, Note_off_c, 0, 64, 64
2, 734746, Note_off_c, 0, 52, 64
2, 734748, Note_off_c, 0, 68, 64
2, 734749, Note_off_c, 0, 45, 64
2, 734759, Note_off_c, 0, 62, 64
2, 734852, Note_on_c, 0, 68, 54
2, 734852, Note_on_c, 0, 64, 54
2, 734852, Note_on_c, 0, 62, 48
2, 734855, Note_on_c, 0, 73, 50
2, 734862, Note_off_c, 0, 71, 64
2, 734867, Note_on_c, 0, 45, 44
2, 734870, Note_on_c, 0, 52, 44
2, 734919, Note_off_c, 0, 52, 64
2, 734932, Note_off_c, 0, 45, 64
2, 734942, Note_on_c, 0, 71, 39
2, 734955, Note_off_c, 0, 73, 64
2, 734968, Note_off_c, 0, 62, 64
2, 734979, Note_off_c, 0, 64, 64
2, 734979, Note_off_c, 0, 68, 64
2, 735049, Note_on_c, 0, 69, 54
2, 735053, Note_on_c, 0, 61, 63
2, 735058, Note_on_c, 0, 52, 50
2, 735058, Note_on_c, 0, 45, 48
2, 735067, Control_c, 0, 64, 0
2, 735073, Note_off_c, 0, 71, 64
2, 735082, Control_c, 0, 64, 127
2, 735102, Note_off_c, 0, 52, 64
2, 735118, Note_off_c, 0, 45, 64
2, 735146, Note_on_c, 0, 73, 52
2, 735148, Note_off_c, 0, 69, 64
2, 735189, Note_off_c, 0, 61, 64
2, 735244, Note_on_c, 0, 68, 61
2, 735248, Note_on_c, 0, 64, 58
2, 735248, Note_on_c, 0, 52, 61
2, 735250, Note_on_c, 0, 71, 61
2, 735250, Note_on_c, 0, 59, 62
2, 735252, Note_on_c, 0, 40, 58
2, 735272, Note_off_c, 0, 73, 64
2, 735294, Control_c, 0, 64, 0
2, 735528, Control_c, 0, 64, 127
2, 735585, Note_off_c, 0, 59, 64
2, 735624, Note_on_c, 0, 66, 44
2, 735624, Note_on_c, 0, 62, 57
2, 735644, Note_off_c, 0, 68, 64
2, 735648, Note_off_c, 0, 64, 64
2, 735795, Note_off_c, 0, 62, 64
2, 735795, Note_off_c, 0, 66, 64
2, 735798, Note_off_c, 0, 52, 64
2, 735800, Note_off_c, 0, 71, 64
2, 735802, Note_off_c, 0, 40, 64
2, 735831, Note_on_c, 0, 61, 35
2, 735838, Note_on_c, 0, 64, 39
2, 735845, Note_on_c, 0, 73, 44
2, 735847, Note_on_c, 0, 52, 37
2, 735847, Note_on_c, 0, 45, 35
2, 735858, Control_c, 0, 64, 0
2, 735890, Control_c, 0, 64, 127
2, 735910, Note_off_c, 0, 52, 64
2, 735927, Note_off_c, 0, 45, 64
2, 735934, Note_on_c, 0, 71, 44
2, 735940, Note_off_c, 0, 73, 64
2, 735940, Note_off_c, 0, 64, 64
2, 736025, Note_off_c, 0, 61, 64
2, 736040, Note_on_c, 0, 61, 58
2, 736042, Note_on_c, 0, 52, 42
2, 736043, Note_on_c, 0, 69, 44
2, 736043, Note_on_c, 0, 45, 42
2, 736050, Note_off_c, 0, 71, 64
2, 736060, Control_c, 0, 64, 0
2, 736083, Control_c, 0, 64, 127
2, 736100, Note_off_c, 0, 52, 64
2, 736106, Note_off_c, 0, 45, 64
2, 736207, Note_off_c, 0, 61, 64
2, 736227, Note_on_c, 0, 61, 44
2, 736230, Note_on_c, 0, 66, 44
2, 736231, Note_on_c, 0, 45, 35
2, 736236, Note_on_c, 0, 52, 31
2, 736258, Note_off_c, 0, 69, 64
2, 736286, Note_off_c, 0, 52, 64
2, 736289, Note_off_c, 0, 45, 64
2, 736345, Note_on_c, 0, 68, 35
2, 736355, Note_off_c, 0, 66, 64
2, 736367, Note_on_c, 0, 66, 39
2, 736377, Note_off_c, 0, 61, 64
2, 736412, Note_on_c, 0, 64, 44
2, 736422, Note_on_c, 0, 62, 48
2, 736426, Note_on_c, 0, 52, 42
2, 736426, Control_c, 0, 64, 0
2, 736436, Note_off_c, 0, 66, 64
2, 736436, Note_on_c, 0, 45, 35
2, 736447, Control_c, 0, 64, 127
2, 736457, Note_off_c, 0, 62, 64
2, 736476, Note_off_c, 0, 52, 64
2, 736479, Note_off_c, 0, 45, 64
2, 736500, Note_on_c, 0, 62, 48
2, 736502, Note_off_c, 0, 68, 64
2, 736531, Note_off_c, 0, 62, 64
2, 736590, Control_c, 0, 64, 0
2, 736596, Note_on_c, 0, 52, 44
2, 736596, Note_on_c, 0, 45, 44
2, 736604, Note_on_c, 0, 62, 53
2, 736629, Control_c, 0, 64, 127
2, 736642, Note_off_c, 0, 52, 64
2, 736645, Note_off_c, 0, 45, 64
2, 736770, Note_on_c, 0, 61, 50
2, 736774, Note_on_c, 0, 45, 44
2, 736776, Note_on_c, 0, 52, 50
2, 736776, Control_c, 0, 64, 0
2, 736803, Control_c, 0, 64, 127
2, 736816, Note_off_c, 0, 62, 64
2, 736819, Note_off_c, 0, 45, 64
2, 736824, Note_off_c, 0, 52, 64
2, 736862, Note_on_c, 0, 59, 57
2, 736890, Note_off_c, 0, 61, 64
2, 736956, Note_on_c, 0, 52, 42
2, 736956, Note_on_c, 0, 45, 44
2, 736956, Control_c, 0, 64, 0
2, 736964, Note_on_c, 0, 73, 54
2, 736964, Note_on_c, 0, 61, 54
2, 736974, Control_c, 0, 64, 127
2, 736999, Note_off_c, 0, 59, 64
2, 737014, Note_off_c, 0, 64, 64
2, 737016, Note_off_c, 0, 45, 64
2, 737016, Note_off_c, 0, 52, 64
2, 737036, Note_on_c, 0, 71, 48
2, 737064, Note_off_c, 0, 73, 64
2, 737129, Note_off_c, 0, 61, 64
2, 737130, Note_on_c, 0, 52, 44
2, 737137, Note_on_c, 0, 69, 44
2, 737137, Note_on_c, 0, 45, 44
2, 737138, Control_c, 0, 64, 0
2, 737146, Note_on_c, 0, 61, 57
2, 737167, Control_c, 0, 64, 127
2, 737174, Note_off_c, 0, 71, 64
2, 737186, Note_off_c, 0, 52, 64
2, 737196, Note_off_c, 0, 45, 64
2, 737301, Note_off_c, 0, 61, 64
2, 737307, Note_on_c, 0, 66, 50
2, 737307, Note_on_c, 0, 61, 53
2, 737316, Note_on_c, 0, 52, 44
2, 737317, Note_on_c, 0, 45, 44
2, 737326, Note_off_c, 0, 69, 64
2, 737362, Note_off_c, 0, 52, 64
2, 737369, Note_off_c, 0, 45, 64
2, 737422, Note_on_c, 0, 68, 44
2, 737430, Note_off_c, 0, 66, 64
2, 737439, Note_on_c, 0, 66, 35
2, 737480, Note_off_c, 0, 61, 64
2, 737480, Note_on_c, 0, 64, 50
2, 737497, Note_on_c, 0, 62, 52
2, 737502, Control_c, 0, 64, 0
2, 737507, Note_off_c, 0, 68, 64
2, 737510, Note_off_c, 0, 66, 64
2, 737510, Note_on_c, 0, 52, 44
2, 737515, Note_on_c, 0, 45, 44
2, 737521, Control_c, 0, 64, 127
2, 737530, Note_off_c, 0, 62, 64
2, 737566, Note_off_c, 0, 45, 64
2, 737566, Note_off_c, 0, 52, 64
2, 737566, Note_on_c, 0, 62, 54
2, 737598, Note_off_c, 0, 62, 64
2, 737619, Note_on_c, 0, 62, 54
2, 737654, Note_off_c, 0, 62, 64
2, 737681, Note_on_c, 0, 62, 57
2, 737687, Note_on_c, 0, 52, 44
2, 737689, Note_on_c, 0, 45, 44
2, 737735, Note_off_c, 0, 52, 64
2, 737739, Note_off_c, 0, 45, 64
2, 737853, Control_c, 0, 64, 0
2, 737868, Note_on_c, 0, 61, 48
2, 737868, Note_on_c, 0, 52, 39
2, 737868, Note_on_c, 0, 45, 42
2, 737880, Control_c, 0, 64, 127
2, 737897, Note_off_c, 0, 62, 64
2, 737923, Note_off_c, 0, 45, 64
2, 737928, Note_off_c, 0, 52, 64
2, 737946, Note_on_c, 0, 59, 50
2, 737956, Note_off_c, 0, 61, 64
2, 738030, Note_off_c, 0, 64, 64
2, 738036, Note_on_c, 0, 64, 50
2, 738039, Note_on_c, 0, 62, 53
2, 738039, Note_on_c, 0, 52, 48
2, 738048, Note_on_c, 0, 45, 40
2, 738062, Note_off_c, 0, 59, 64
2, 738099, Note_off_c, 0, 52, 64
2, 738108, Note_off_c, 0, 62, 64
2, 738120, Note_off_c, 0, 45, 64
2, 738120, Note_on_c, 0, 66, 37
2, 738149, Note_off_c, 0, 64, 64
2, 738203, Note_on_c, 0, 68, 37
2, 738210, Note_on_c, 0, 64, 42
2, 738211, Note_on_c, 0, 62, 37
2, 738211, Note_on_c, 0, 52, 35
2, 738217, Note_on_c, 0, 59, 33
2, 738218, Note_on_c, 0, 45, 40
2, 738247, Note_off_c, 0, 66, 64
2, 738247, Note_off_c, 0, 62, 64
2, 738259, Note_off_c, 0, 64, 64
2, 738265, Note_off_c, 0, 59, 64
2, 738269, Note_off_c, 0, 45, 64
2, 738272, Note_off_c, 0, 52, 64
2, 738394, Note_on_c, 0, 69, 40
2, 738394, Note_on_c, 0, 64, 39
2, 738400, Note_on_c, 0, 62, 39
2, 738404, Note_on_c, 0, 52, 39
2, 738404, Note_on_c, 0, 45, 41
2, 738409, Note_on_c, 0, 59, 29
2, 738422, Note_off_c, 0, 68, 64
2, 738444, Note_off_c, 0, 45, 64
2, 738446, Note_off_c, 0, 62, 64
2, 738446, Note_off_c, 0, 64, 64
2, 738452, Note_off_c, 0, 59, 64
2, 738452, Note_off_c, 0, 52, 64
2, 738574, Note_on_c, 0, 62, 41
2, 738574, Note_on_c, 0, 45, 48
2, 738576, Note_on_c, 0, 68, 39
2, 738576, Note_on_c, 0, 64, 39
2, 738576, Note_on_c, 0, 52, 44
2, 738577, Note_on_c, 0, 71, 52
2, 738583, Note_on_c, 0, 59, 44
2, 738599, Note_off_c, 0, 69, 64
2, 738619, Note_off_c, 0, 59, 64
2, 738624, Note_off_c, 0, 52, 64
2, 738624, Note_off_c, 0, 45, 64
2, 738633, Note_off_c, 0, 62, 64
2, 738644, Note_off_c, 0, 64, 64
2, 738650, Note_off_c, 0, 68, 64
2, 738658, Note_on_c, 0, 73, 61
2, 738673, Note_off_c, 0, 71, 64
2, 738741, Note_on_c, 0, 68, 54
2, 738741, Note_on_c, 0, 45, 52
2, 738747, Note_on_c, 0, 74, 54
2, 738748, Note_on_c, 0, 64, 58
2, 738748, Note_on_c, 0, 62, 57
2, 738748, Note_on_c, 0, 59, 46
2, 738748, Note_on_c, 0, 52, 49
2, 738776, Note_off_c, 0, 73, 64
2, 738784, Note_off_c, 0, 62, 64
2, 738786, Note_off_c, 0, 68, 64
2, 738792, Note_off_c, 0, 59, 64
2, 738796, Note_off_c, 0, 45, 64
2, 738800, Note_off_c, 0, 52, 64
2, 738801, Note_off_c, 0, 64, 64
2, 738936, Note_on_c, 0, 76, 57
2, 738936, Note_on_c, 0, 68, 57
2, 738936, Note_on_c, 0, 64, 63
2, 738943, Note_on_c, 0, 62, 50
2, 738948, Note_on_c, 0, 59, 55
2, 738948, Note_on_c, 0, 52, 53
2, 738954, Note_on_c, 0, 45, 54
2, 738963, Note_off_c, 0, 74, 64
2, 738981, Note_off_c, 0, 68, 64
2, 738987, Note_off_c, 0, 45, 64
2, 738989, Note_off_c, 0, 64, 64
2, 738995, Note_off_c, 0, 52, 64
2, 738996, Note_off_c, 0, 59, 64
2, 738999, Note_off_c, 0, 62, 64
2, 739124, Control_c, 0, 64, 0
2, 739138, Note_on_c, 0, 68, 58
2, 739140, Note_on_c, 0, 62, 68
2, 739141, Note_on_c, 0, 77, 62
2, 739149, Note_on_c, 0, 59, 62
2, 739149, Note_on_c, 0, 52, 63
2, 739149, Note_on_c, 0, 45, 65
2, 739158, Note_off_c, 0, 76, 64
2, 739169, Note_off_c, 0, 68, 64
2, 739172, Control_c, 0, 64, 127
2, 739178, Note_off_c, 0, 45, 64
2, 739184, Note_off_c, 0, 52, 64
2, 739192, Note_off_c, 0, 59, 64
2, 739193, Note_off_c, 0, 62, 64
2, 739290, Note_off_c, 0, 77, 64
2, 739320, Note_on_c, 0, 76, 45
2, 739322, Note_on_c, 0, 64, 63
2, 739393, Note_on_c, 0, 67, 46
2, 739398, Note_off_c, 0, 76, 64
2, 739420, Note_on_c, 0, 79, 65
2, 739432, Note_off_c, 0, 64, 64
2, 739435, Note_on_c, 0, 77, 72
2, 739442, Note_on_c, 0, 65, 65
2, 739457, Note_off_c, 0, 67, 64
2, 739463, Note_off_c, 0, 79, 64
2, 739488, Control_c, 0, 64, 0
2, 739521, Control_c, 0, 64, 127
2, 739858, Note_on_c, 0, 76, 62
2, 739860, Note_on_c, 0, 64, 58
2, 739881, Note_off_c, 0, 77, 64
2, 739902, Note_off_c, 0, 65, 64
2, 739962, Note_off_c, 0, 76, 64
2, 739962, Note_on_c, 0, 67, 59
2, 739971, Note_on_c, 0, 79, 68
2, 739977, Note_off_c, 0, 64, 64
2, 739977, Note_on_c, 0, 77, 71
2, 739993, Note_on_c, 0, 65, 58
2, 740017, Note_off_c, 0, 67, 64
2, 740019, Note_off_c, 0, 79, 64
2, 740041, Control_c, 0, 64, 0
2, 740066, Control_c, 0, 64, 127
2, 740303, Note_on_c, 0, 76, 70
2, 740305, Note_on_c, 0, 64, 63
2, 740316, Note_off_c, 0, 77, 64
2, 740328, Note_off_c, 0, 65, 64
2, 740386, Note_on_c, 0, 77, 78
2, 740390, Note_on_c, 0, 65, 76
2, 740405, Note_off_c, 0, 64, 64
2, 740410, Note_off_c, 0, 76, 64
2, 740416, Control_c, 0, 64, 0
2, 740478, Control_c, 0, 64, 127
2, 741251, Note_on_c, 0, 71, 42
2, 741311, Note_off_c, 0, 77, 64
2, 741460, Note_on_c, 0, 62, 20
2, 741468, Note_on_c, 0, 57, 16
2, 741748, Note_on_c, 0, 72, 35
2, 741777, Note_off_c, 0, 62, 64
2, 741785, Note_off_c, 0, 57, 64
2, 741801, Note_off_c, 0, 71, 64
2, 741804, Note_on_c, 0, 74, 44
2, 741817, Note_on_c, 0, 57, 27
2, 741820, Note_on_c, 0, 62, 20
2, 741831, Note_off_c, 0, 72, 64
2, 742134, Note_off_c, 0, 57, 64
2, 742137, Note_off_c, 0, 62, 64
2, 742152, Note_on_c, 0, 57, 16
2, 742160, Note_on_c, 0, 69, 44
2, 742160, Note_on_c, 0, 62, 27
2, 742384, Note_off_c, 0, 74, 64
2, 742434, Note_off_c, 0, 69, 64
2, 742460, Note_off_c, 0, 57, 64
2, 742468, Note_off_c, 0, 62, 64
2, 742512, Note_on_c, 0, 60, 27
2, 742512, Note_on_c, 0, 57, 13
2, 742528, Note_on_c, 0, 69, 44
2, 742592, Note_on_c, 0, 72, 52
2, 742618, Control_c, 0, 64, 0
2, 742636, Note_off_c, 0, 69, 64
2, 742641, Control_c, 0, 64, 127
2, 742752, Note_off_c, 0, 57, 64
2, 742752, Note_off_c, 0, 60, 64
2, 742848, Note_on_c, 0, 60, 27
2, 742848, Note_on_c, 0, 57, 27
2, 743088, Note_off_c, 0, 57, 64
2, 743088, Note_off_c, 0, 60, 64
2, 743131, Note_on_c, 0, 57, 16
2, 743138, Note_on_c, 0, 60, 36
2, 743166, Note_on_c, 0, 71, 42
2, 743191, Note_off_c, 0, 72, 64
2, 743291, Note_on_c, 0, 72, 37
2, 743371, Note_off_c, 0, 57, 64
2, 743378, Note_off_c, 0, 60, 64
2, 743387, Note_off_c, 0, 71, 64
2, 743396, Note_off_c, 0, 65, 64
2, 743400, Note_on_c, 0, 60, 27
2, 743404, Note_on_c, 0, 55, 36
2, 743423, Note_on_c, 0, 65, 35
2, 743463, Note_on_c, 0, 74, 37
2, 743476, Note_off_c, 0, 72, 64
2, 743495, Note_on_c, 0, 76, 44
2, 743510, Note_off_c, 0, 74, 64
2, 743547, Note_on_c, 0, 74, 48
2, 743564, Note_off_c, 0, 76, 64
2, 743652, Note_on_c, 0, 73, 35
2, 743680, Note_off_c, 0, 74, 64
2, 743764, Note_off_c, 0, 60, 64
2, 743768, Note_off_c, 0, 55, 64
2, 743772, Note_on_c, 0, 74, 45
2, 743789, Note_off_c, 0, 73, 64
2, 743790, Note_on_c, 0, 59, 15
2, 743800, Note_on_c, 0, 55, 1
2, 743863, Note_on_c, 0, 76, 53
2, 743894, Note_off_c, 0, 74, 64
2, 743938, Note_on_c, 0, 77, 50
2, 743958, Note_off_c, 0, 76, 64
2, 744010, Note_off_c, 0, 59, 64
2, 744020, Note_off_c, 0, 55, 64
2, 744025, Note_on_c, 0, 79, 45
2, 744039, Note_on_c, 0, 59, 33
2, 744039, Note_on_c, 0, 55, 27
2, 744054, Note_off_c, 0, 77, 64
2, 744072, Control_c, 0, 64, 0
2, 744088, Control_c, 0, 64, 127
2, 744121, Note_off_c, 0, 79, 64
2, 744175, Note_off_c, 0, 65, 64
2, 744274, Note_on_c, 0, 74, 44
2, 744292, Note_off_c, 0, 55, 64
2, 744292, Note_off_c, 0, 59, 64
2, 744324, Note_on_c, 0, 64, 16
2, 744336, Note_on_c, 0, 76, 48
2, 744343, Note_on_c, 0, 59, 27
2, 744343, Note_on_c, 0, 55, 16
2, 744356, Note_off_c, 0, 74, 64
2, 744371, Control_c, 0, 64, 0
2, 744402, Control_c, 0, 64, 127
2, 744564, Note_off_c, 0, 64, 64
2, 744583, Note_off_c, 0, 55, 64
2, 744583, Note_off_c, 0, 59, 64
2, 744590, Note_on_c, 0, 64, 27
2, 744598, Note_on_c, 0, 59, 27
2, 744598, Note_on_c, 0, 55, 20
2, 744830, Note_off_c, 0, 64, 64
2, 744838, Note_off_c, 0, 55, 64
2, 744838, Note_off_c, 0, 59, 64
2, 744840, Note_on_c, 0, 64, 16
2, 744848, Note_on_c, 0, 59, 27
2, 744852, Note_on_c, 0, 55, 16
2, 745080, Note_off_c, 0, 64, 64
2, 745082, Note_on_c, 0, 54, 14
2, 745088, Note_off_c, 0, 59, 64
2, 745089, Note_on_c, 0, 58, 22
2, 745092, Note_off_c, 0, 55, 64
2, 745096, Note_on_c, 0, 64, 16
2, 745125, Note_on_c, 0, 78, 52
2, 745142, Control_c, 0, 64, 0
2, 745151, Note_off_c, 0, 76, 64
2, 745165, Control_c, 0, 64, 127
2, 745322, Note_off_c, 0, 54, 64
2, 745329, Note_off_c, 0, 58, 64
2, 745336, Note_off_c, 0, 64, 64
2, 745364, Note_on_c, 0, 63, 14
2, 745372, Note_on_c, 0, 58, 20
2, 745378, Note_on_c, 0, 54, 14
2, 745392, Note_on_c, 0, 75, 36
2, 745423, Note_off_c, 0, 78, 64
2, 745604, Note_off_c, 0, 63, 64
2, 745612, Note_off_c, 0, 58, 64
2, 745618, Note_off_c, 0, 54, 64
2, 745621, Note_on_c, 0, 54, 16
2, 745626, Note_on_c, 0, 58, 16
2, 745630, Note_on_c, 0, 63, 16
2, 745861, Note_off_c, 0, 54, 64
2, 745866, Note_off_c, 0, 58, 64
2, 745870, Note_off_c, 0, 63, 64
2, 745879, Note_on_c, 0, 53, 22
2, 745886, Note_on_c, 0, 63, 16
2, 745886, Note_on_c, 0, 57, 22
2, 745905, Note_on_c, 0, 77, 45
2, 745917, Note_off_c, 0, 75, 64
2, 745945, Control_c, 0, 64, 0
2, 745968, Control_c, 0, 64, 127
2, 746119, Note_off_c, 0, 53, 64
2, 746126, Note_off_c, 0, 57, 64
2, 746126, Note_off_c, 0, 63, 64
2, 746151, Note_on_c, 0, 74, 35
2, 746157, Note_on_c, 0, 62, 26
2, 746157, Note_on_c, 0, 57, 22
2, 746164, Note_on_c, 0, 53, 14
2, 746185, Note_off_c, 0, 77, 64
2, 746377, Note_off_c, 0, 57, 64
2, 746377, Note_off_c, 0, 62, 64
2, 746384, Note_off_c, 0, 53, 64
2, 746392, Note_on_c, 0, 57, 22
2, 746398, Note_on_c, 0, 62, 22
2, 746401, Note_on_c, 0, 53, 14
2, 746645, Note_off_c, 0, 57, 64
2, 746650, Note_on_c, 0, 52, 22
2, 746651, Note_off_c, 0, 62, 64
2, 746654, Note_off_c, 0, 53, 64
2, 746654, Note_on_c, 0, 56, 14
2, 746670, Note_on_c, 0, 62, 14
2, 746726, Note_on_c, 0, 76, 48
2, 746738, Note_off_c, 0, 74, 64
2, 746773, Control_c, 0, 64, 0
2, 746785, Control_c, 0, 64, 127
2, 746792, Note_on_c, 0, 71, 48
2, 746806, Note_off_c, 0, 76, 64
2, 746914, Note_off_c, 0, 52, 64
2, 746918, Note_off_c, 0, 56, 64
2, 746934, Note_off_c, 0, 62, 64
2, 746964, Note_on_c, 0, 56, 29
2, 746972, Note_on_c, 0, 62, 22
2, 746978, Note_on_c, 0, 52, 22
2, 747164, Note_off_c, 0, 56, 64
2, 747172, Note_off_c, 0, 62, 64
2, 747178, Note_off_c, 0, 52, 64
2, 747180, Note_on_c, 0, 52, 29
2, 747187, Note_on_c, 0, 56, 31
2, 747192, Note_on_c, 0, 62, 29
2, 747331, Note_off_c, 0, 71, 64
2, 747410, Note_off_c, 0, 52, 64
2, 747417, Note_off_c, 0, 56, 64
2, 747422, Note_off_c, 0, 62, 64
2, 747428, Note_on_c, 0, 62, 14
2, 747429, Note_on_c, 0, 52, 22
2, 747433, Note_on_c, 0, 57, 42
2, 747500, Note_on_c, 0, 72, 50
2, 747541, Control_c, 0, 64, 0
2, 747549, Note_on_c, 0, 68, 53
2, 747569, Note_off_c, 0, 72, 64
2, 747578, Control_c, 0, 64, 127
2, 747731, Note_off_c, 0, 62, 64
2, 747732, Note_off_c, 0, 52, 64
2, 747736, Note_off_c, 0, 57, 64
2, 747767, Note_on_c, 0, 62, 20
2, 747767, Note_on_c, 0, 59, 31
2, 747770, Note_on_c, 0, 52, 22
2, 747812, Control_c, 0, 64, 0
2, 747823, Control_c, 0, 64, 127
2, 747997, Note_off_c, 0, 59, 64
2, 747997, Note_off_c, 0, 62, 64
2, 748000, Note_off_c, 0, 52, 64
2, 748039, Note_on_c, 0, 62, 28
2, 748044, Note_on_c, 0, 59, 42
2, 748054, Note_on_c, 0, 52, 14
2, 748137, Note_off_c, 0, 68, 64
2, 748307, Note_on_c, 0, 71, 48
2, 748352, Note_off_c, 0, 71, 64
2, 748387, Note_off_c, 0, 62, 64
2, 748392, Note_off_c, 0, 59, 64
2, 748402, Note_off_c, 0, 52, 64
2, 748408, Note_on_c, 0, 45, 50
2, 748411, Note_on_c, 0, 71, 44
2, 748454, Control_c, 0, 64, 0
2, 748467, Control_c, 0, 64, 127
2, 748562, Note_on_c, 0, 72, 48
2, 748581, Note_off_c, 0, 71, 64
2, 748666, Note_on_c, 0, 71, 39
2, 748699, Note_off_c, 0, 72, 64
2, 748758, Note_on_c, 0, 57, 16
2, 748769, Note_on_c, 0, 65, 16
2, 748769, Note_on_c, 0, 62, 14
2, 748774, Note_on_c, 0, 69, 44
2, 748804, Note_off_c, 0, 71, 64
2, 748826, Note_off_c, 0, 45, 64
2, 748887, Note_on_c, 0, 71, 35
2, 748915, Note_off_c, 0, 69, 64
2, 748977, Note_on_c, 0, 72, 44
2, 749001, Note_off_c, 0, 71, 64
2, 749059, Note_off_c, 0, 72, 64
2, 749069, Note_on_c, 0, 72, 36
2, 749075, Note_off_c, 0, 57, 64
2, 749078, Note_off_c, 0, 65, 64
2, 749086, Note_off_c, 0, 62, 64
2, 749089, Note_on_c, 0, 57, 22
2, 749095, Note_on_c, 0, 65, 22
2, 749098, Note_on_c, 0, 62, 16
2, 749104, Note_on_c, 0, 76, 50
2, 749119, Note_off_c, 0, 72, 64
2, 749216, Note_on_c, 0, 74, 42
2, 749233, Note_off_c, 0, 76, 64
2, 749360, Note_off_c, 0, 74, 64
2, 749376, Note_on_c, 0, 69, 48
2, 749413, Note_off_c, 0, 69, 64
2, 749436, Note_on_c, 0, 69, 50
2, 749453, Note_off_c, 0, 57, 64
2, 749459, Note_off_c, 0, 65, 64
2, 749462, Note_off_c, 0, 62, 64
2, 749491, Note_on_c, 0, 72, 50
2, 749499, Note_on_c, 0, 65, 28
2, 749505, Note_on_c, 0, 60, 36
2, 749505, Note_on_c, 0, 57, 29
2, 749511, Note_off_c, 0, 69, 64
2, 749534, Control_c, 0, 64, 0
2, 749567, Control_c, 0, 64, 127
2, 749739, Note_off_c, 0, 65, 64
2, 749745, Note_off_c, 0, 57, 64
2, 749745, Note_off_c, 0, 60, 64
2, 749755, Note_on_c, 0, 57, 22
2, 749759, Note_on_c, 0, 65, 26
2, 749759, Note_on_c, 0, 60, 22
2, 749848, Note_off_c, 0, 72, 64
2, 749995, Note_off_c, 0, 57, 64
2, 749999, Note_off_c, 0, 60, 64
2, 749999, Note_off_c, 0, 65, 64
2, 750007, Note_on_c, 0, 56, 29
2, 750017, Note_on_c, 0, 65, 22
2, 750023, Note_on_c, 0, 60, 22
2, 750028, Note_on_c, 0, 71, 40
2, 750127, Note_on_c, 0, 72, 40
2, 750159, Note_off_c, 0, 71, 64
2, 750208, Note_on_c, 0, 73, 44
2, 750240, Note_off_c, 0, 72, 64
2, 750247, Note_off_c, 0, 56, 64
2, 750257, Note_off_c, 0, 65, 64
2, 750263, Note_off_c, 0, 60, 64
2, 750303, Note_on_c, 0, 60, 22
2, 750310, Note_on_c, 0, 65, 22
2, 750310, Note_on_c, 0, 55, 22
2, 750313, Note_on_c, 0, 74, 42
2, 750331, Note_off_c, 0, 73, 64
2, 750404, Note_on_c, 0, 84, 45
2, 750443, Note_off_c, 0, 74, 64
2, 750481, Note_on_c, 0, 83, 42
2, 750503, Note_off_c, 0, 84, 64
2, 750533, Note_off_c, 0, 60, 64
2, 750540, Note_off_c, 0, 55, 64
2, 750540, Note_off_c, 0, 65, 64
2, 750548, Note_on_c, 0, 55, 14
2, 750556, Note_on_c, 0, 65, 22
2, 750556, Note_on_c, 0, 59, 31
2, 750558, Note_on_c, 0, 72, 44
2, 750579, Note_off_c, 0, 83, 64
2, 750633, Note_on_c, 0, 71, 40
2, 750663, Note_off_c, 0, 72, 64
2, 750724, Note_on_c, 0, 81, 37
2, 750761, Note_off_c, 0, 71, 64
2, 750764, Note_off_c, 0, 55, 64
2, 750772, Note_off_c, 0, 59, 64
2, 750772, Note_off_c, 0, 65, 64
2, 750780, Note_on_c, 0, 65, 20
2, 750795, Note_on_c, 0, 59, 36
2, 750796, Note_on_c, 0, 55, 16
2, 750800, Note_on_c, 0, 79, 44
2, 750813, Note_off_c, 0, 81, 64
2, 750864, Note_on_c, 0, 69, 24
2, 750890, Note_off_c, 0, 79, 64
2, 750941, Note_on_c, 0, 67, 44
2, 750953, Note_off_c, 0, 69, 64
2, 751020, Note_off_c, 0, 65, 64
2, 751034, Note_on_c, 0, 76, 48
2, 751035, Note_off_c, 0, 59, 64
2, 751036, Note_off_c, 0, 55, 64
2, 751047, Note_on_c, 0, 59, 29
2, 751052, Note_off_c, 0, 67, 64
2, 751054, Note_on_c, 0, 55, 22
2, 751055, Note_on_c, 0, 64, 26
2, 751085, Control_c, 0, 64, 0
2, 751117, Control_c, 0, 64, 127
2, 751300, Note_off_c, 0, 59, 64
2, 751307, Note_off_c, 0, 55, 64
2, 751308, Note_off_c, 0, 64, 64
2, 751324, Note_on_c, 0, 55, 14
2, 751328, Note_on_c, 0, 64, 22
2, 751337, Note_on_c, 0, 59, 22
2, 751544, Note_off_c, 0, 55, 64
2, 751548, Note_off_c, 0, 64, 64
2, 751554, Note_on_c, 0, 64, 22
2, 751554, Note_on_c, 0, 55, 22
2, 751557, Note_off_c, 0, 59, 64
2, 751563, Note_on_c, 0, 59, 22
2, 751804, Note_on_c, 0, 54, 22
2, 751807, Note_off_c, 0, 55, 64
2, 751807, Note_off_c, 0, 64, 64
2, 751811, Note_on_c, 0, 58, 22
2, 751816, Note_off_c, 0, 59, 64
2, 751820, Note_on_c, 0, 64, 22
2, 751906, Note_off_c, 0, 76, 64
2, 752044, Note_off_c, 0, 54, 64
2, 752051, Note_off_c, 0, 58, 64
2, 752060, Note_off_c, 0, 64, 64
2, 752060, Note_on_c, 0, 58, 27
2, 752076, Note_on_c, 0, 63, 33
2, 752076, Note_on_c, 0, 54, 26
2, 752143, Note_on_c, 0, 78, 50
2, 752169, Control_c, 0, 64, 0
2, 752204, Note_on_c, 0, 75, 54
2, 752214, Note_off_c, 0, 78, 64
2, 752215, Control_c, 0, 64, 127
2, 752359, Note_off_c, 0, 58, 64
2, 752375, Note_off_c, 0, 54, 64
2, 752375, Note_off_c, 0, 63, 64
2, 752390, Note_on_c, 0, 58, 16
2, 752396, Note_on_c, 0, 54, 20
2, 752400, Note_on_c, 0, 63, 27
2, 752611, Note_off_c, 0, 75, 64
2, 752666, Note_off_c, 0, 58, 64
2, 752672, Note_off_c, 0, 54, 64
2, 752676, Note_off_c, 0, 63, 64
2, 752682, Note_on_c, 0, 53, 20
2, 752684, Note_on_c, 0, 57, 16
2, 752698, Note_on_c, 0, 63, 16
2, 752734, Note_on_c, 0, 76, 35
2, 752780, Note_on_c, 0, 77, 36
2, 752803, Note_off_c, 0, 76, 64
2, 752819, Note_on_c, 0, 80, 26
2, 752834, Note_off_c, 0, 77, 64
2, 752863, Note_on_c, 0, 79, 33
2, 752876, Note_off_c, 0, 80, 64
2, 752922, Note_on_c, 0, 78, 36
2, 752929, Note_off_c, 0, 79, 64
2, 752961, Note_on_c, 0, 77, 36
2, 752978, Note_off_c, 0, 78, 64
2, 752999, Note_off_c, 0, 53, 64
2, 753001, Note_off_c, 0, 57, 64
2, 753012, Note_on_c, 0, 74, 42
2, 753015, Note_off_c, 0, 63, 64
2, 753019, Note_on_c, 0, 53, 13
2, 753023, Note_on_c, 0, 57, 16
2, 753027, Note_on_c, 0, 62, 16
2, 753032, Note_off_c, 0, 77, 64
2, 753039, Control_c, 0, 64, 0
2, 753073, Control_c, 0, 64, 127
2, 753259, Note_off_c, 0, 53, 64
2, 753263, Note_off_c, 0, 57, 64
2, 753267, Note_off_c, 0, 62, 64
2, 753295, Note_on_c, 0, 53, 11
2, 753300, Note_on_c, 0, 62, 11
2, 753302, Note_on_c, 0, 57, 11
2, 753308, Note_off_c, 0, 74, 64
2, 753588, Note_on_c, 0, 80, 62
2, 753654, Note_on_c, 0, 88, 63
2, 753657, Note_on_c, 0, 84, 67
2, 753658, Note_on_c, 0, 40, 54
2, 753669, Note_off_c, 0, 80, 64
2, 753697, Control_c, 0, 64, 0
2, 753710, Control_c, 0, 64, 127
2, 753713, Note_off_c, 0, 53, 64
2, 753718, Note_off_c, 0, 62, 64
2, 753720, Note_off_c, 0, 57, 64
2, 753930, Note_off_c, 0, 88, 64
2, 753938, Note_off_c, 0, 84, 64
2, 753958, Note_on_c, 0, 83, 54
2, 753966, Note_on_c, 0, 88, 58
2, 754031, Note_off_c, 0, 88, 64
2, 754035, Note_off_c, 0, 83, 64
2, 754041, Note_on_c, 0, 88, 50
2, 754041, Note_on_c, 0, 80, 58
2, 754046, Note_on_c, 0, 52, 33
2, 754053, Note_on_c, 0, 62, 22
2, 754053, Note_on_c, 0, 59, 24
2, 754071, Control_c, 0, 64, 0
2, 754076, Note_off_c, 0, 40, 64
2, 754103, Control_c, 0, 64, 127
2, 754148, Note_off_c, 0, 88, 64
2, 754171, Note_off_c, 0, 80, 64
2, 754410, Note_off_c, 0, 52, 64
2, 754417, Note_off_c, 0, 59, 64
2, 754417, Note_off_c, 0, 62, 64
2, 754427, Note_on_c, 0, 68, 52
2, 754436, Note_on_c, 0, 52, 13
2, 754443, Note_on_c, 0, 62, 15
2, 754444, Note_on_c, 0, 59, 1
2, 754744, Note_on_c, 0, 69, 33
2, 754753, Note_on_c, 0, 45, 28
2, 754773, Note_off_c, 0, 68, 64
2, 754783, Control_c, 0, 64, 0
2, 754800, Note_off_c, 0, 52, 64
2, 754807, Note_off_c, 0, 62, 64
2, 754808, Note_off_c, 0, 59, 64
2, 754816, Control_c, 0, 64, 127
2, 755038, Note_on_c, 0, 52, 22
2, 755042, Note_on_c, 0, 60, 14
2, 755079, Note_off_c, 0, 69, 64
2, 755278, Note_off_c, 0, 52, 64
2, 755282, Note_off_c, 0, 60, 64
2, 755293, Note_on_c, 0, 76, 50
2, 755293, Note_on_c, 0, 60, 22
2, 755298, Note_on_c, 0, 52, 33
2, 755447, Note_off_c, 0, 45, 64
2, 755536, Note_on_c, 0, 45, 37
2, 755569, Note_off_c, 0, 52, 64
2, 755582, Note_off_c, 0, 60, 64
2, 755744, Note_on_c, 0, 75, 48
2, 755763, Note_off_c, 0, 76, 64
2, 755786, Note_on_c, 0, 54, 22
2, 755789, Note_on_c, 0, 60, 22
2, 755801, Note_on_c, 0, 69, 45
2, 755812, Control_c, 0, 64, 0
2, 755830, Note_off_c, 0, 75, 64
2, 755847, Control_c, 0, 64, 127
2, 755881, Note_off_c, 0, 69, 64
2, 756026, Note_off_c, 0, 54, 64
2, 756029, Note_off_c, 0, 60, 64
2, 756040, Note_on_c, 0, 63, 48
2, 756046, Note_on_c, 0, 60, 31
2, 756046, Note_on_c, 0, 54, 24
2, 756236, Note_off_c, 0, 45, 64
2, 756262, Note_on_c, 0, 75, 45
2, 756270, Note_on_c, 0, 45, 33
2, 756272, Note_off_c, 0, 63, 64
2, 756275, Note_on_c, 0, 69, 37
2, 756286, Note_off_c, 0, 54, 64
2, 756286, Note_off_c, 0, 60, 64
2, 756294, Control_c, 0, 64, 0
2, 756331, Control_c, 0, 64, 127
2, 756452, Note_on_c, 0, 60, 29
2, 756468, Note_on_c, 0, 53, 39
2, 756692, Note_off_c, 0, 60, 64
2, 756704, Note_on_c, 0, 60, 29
2, 756708, Note_off_c, 0, 53, 64
2, 756724, Note_on_c, 0, 53, 22
2, 756908, Note_off_c, 0, 45, 64
2, 756938, Note_on_c, 0, 45, 22
2, 756944, Note_off_c, 0, 60, 64
2, 756952, Note_off_c, 0, 75, 64
2, 756959, Note_off_c, 0, 69, 64
2, 756964, Note_off_c, 0, 53, 64
2, 757100, Note_on_c, 0, 74, 45
2, 757148, Note_on_c, 0, 53, 28
2, 757149, Note_on_c, 0, 59, 22
2, 757158, Note_on_c, 0, 68, 48
2, 757182, Control_c, 0, 64, 0
2, 757196, Note_off_c, 0, 74, 64
2, 757217, Control_c, 0, 64, 127
2, 757388, Note_off_c, 0, 53, 64
2, 757389, Note_off_c, 0, 59, 64
2, 757399, Note_on_c, 0, 62, 42
2, 757402, Note_on_c, 0, 59, 29
2, 757402, Note_on_c, 0, 53, 29
2, 757422, Note_off_c, 0, 68, 64
2, 757603, Note_off_c, 0, 45, 64
2, 757640, Note_on_c, 0, 68, 40
2, 757642, Note_off_c, 0, 53, 64
2, 757642, Note_off_c, 0, 59, 64
2, 757647, Note_on_c, 0, 74, 40
2, 757656, Note_on_c, 0, 45, 40
2, 757676, Control_c, 0, 64, 0
2, 757692, Note_off_c, 0, 62, 64
2, 757714, Control_c, 0, 64, 127
2, 757870, Note_on_c, 0, 58, 28
2, 757872, Note_on_c, 0, 53, 31
2, 758070, Note_off_c, 0, 58, 64
2, 758072, Note_off_c, 0, 53, 64
2, 758102, Note_on_c, 0, 58, 24
2, 758105, Note_on_c, 0, 53, 24
2, 758304, Note_off_c, 0, 45, 64
2, 758314, Note_on_c, 0, 45, 37
2, 758335, Control_c, 0, 64, 0
2, 758342, Note_off_c, 0, 58, 64
2, 758345, Note_off_c, 0, 53, 64
2, 758358, Control_c, 0, 64, 127
2, 758383, Note_off_c, 0, 68, 64
2, 758390, Note_off_c, 0, 74, 64
2, 758481, Note_on_c, 0, 73, 44
2, 758516, Note_on_c, 0, 58, 22
2, 758518, Note_on_c, 0, 67, 45
2, 758525, Note_on_c, 0, 52, 26
2, 758547, Control_c, 0, 64, 0
2, 758560, Note_off_c, 0, 73, 64
2, 758580, Control_c, 0, 64, 127
2, 758756, Note_off_c, 0, 58, 64
2, 758765, Note_off_c, 0, 52, 64
2, 758767, Note_on_c, 0, 61, 36
2, 758770, Note_on_c, 0, 58, 22
2, 758782, Note_on_c, 0, 52, 22
2, 758796, Note_off_c, 0, 67, 64
2, 758952, Note_off_c, 0, 45, 64
2, 759006, Note_off_c, 0, 61, 64
2, 759010, Note_off_c, 0, 58, 64
2, 759014, Note_on_c, 0, 72, 50
2, 759018, Note_on_c, 0, 66, 33
2, 759018, Note_on_c, 0, 45, 37
2, 759022, Note_off_c, 0, 52, 64
2, 759064, Control_c, 0, 64, 0
2, 759094, Control_c, 0, 64, 127
2, 759228, Note_on_c, 0, 57, 22
2, 759236, Note_on_c, 0, 51, 28
2, 759428, Note_off_c, 0, 57, 64
2, 759436, Note_off_c, 0, 51, 64
2, 759452, Note_on_c, 0, 57, 22
2, 759454, Note_on_c, 0, 51, 42
2, 759515, Note_off_c, 0, 66, 64
2, 759525, Note_off_c, 0, 57, 64
2, 759525, Note_off_c, 0, 72, 64
2, 759527, Note_off_c, 0, 51, 64
2, 759632, Note_off_c, 0, 45, 64
2, 759684, Note_on_c, 0, 71, 39
2, 759689, Note_on_c, 0, 65, 37
2, 759693, Note_on_c, 0, 45, 40
2, 759781, Note_on_c, 0, 72, 50
2, 759810, Note_off_c, 0, 71, 64
2, 759847, Note_off_c, 0, 65, 64
2, 759902, Note_on_c, 0, 74, 52
2, 759903, Note_on_c, 0, 57, 28
2, 759911, Note_on_c, 0, 50, 29
2, 759912, Note_off_c, 0, 72, 64
2, 759915, Note_on_c, 0, 65, 45
2, 760024, Note_off_c, 0, 65, 64
2, 760143, Note_off_c, 0, 57, 64
2, 760151, Note_off_c, 0, 50, 64
2, 760173, Note_on_c, 0, 69, 48
2, 760173, Note_on_c, 0, 50, 37
2, 760180, Note_on_c, 0, 65, 45
2, 760184, Note_on_c, 0, 57, 33
2, 760208, Note_off_c, 0, 74, 64
2, 760214, Control_c, 0, 64, 0
2, 760236, Control_c, 0, 64, 127
2, 760318, Note_off_c, 0, 65, 64
2, 760446, Note_off_c, 0, 45, 64
2, 760475, Note_on_c, 0, 72, 48
2, 760476, Note_on_c, 0, 64, 33
2, 760485, Note_on_c, 0, 45, 36
2, 760505, Note_off_c, 0, 69, 64
2, 760511, Control_c, 0, 64, 0
2, 760516, Note_off_c, 0, 50, 64
2, 760527, Note_off_c, 0, 57, 64
2, 760575, Control_c, 0, 64, 127
2, 760762, Note_on_c, 0, 52, 28
2, 760765, Note_on_c, 0, 60, 14
2, 760992, Note_off_c, 0, 52, 64
2, 760995, Note_off_c, 0, 60, 64
2, 761002, Note_off_c, 0, 72, 64
2, 761010, Note_on_c, 0, 76, 32
2, 761020, Note_on_c, 0, 60, 23
2, 761021, Note_on_c, 0, 52, 28
2, 761041, Note_off_c, 0, 64, 64
2, 761048, Control_c, 0, 64, 0
2, 761060, Control_c, 0, 64, 127
2, 761161, Note_off_c, 0, 45, 64
2, 761247, Note_off_c, 0, 60, 64
2, 761253, Note_on_c, 0, 45, 20
2, 761257, Note_off_c, 0, 52, 64
2, 761405, Note_on_c, 0, 75, 29
2, 761441, Note_off_c, 0, 76, 64
2, 761465, Note_on_c, 0, 54, 29
2, 761467, Note_on_c, 0, 69, 31
2, 761469, Note_on_c, 0, 60, 29
2, 761497, Note_off_c, 0, 75, 64
2, 761521, Note_off_c, 0, 69, 64
2, 761643, Note_on_c, 0, 81, 42
2, 761705, Note_off_c, 0, 54, 64
2, 761709, Note_off_c, 0, 60, 64
2, 761716, Note_on_c, 0, 63, 36
2, 761716, Note_on_c, 0, 60, 23
2, 761723, Note_on_c, 0, 54, 16
2, 761774, Note_off_c, 0, 81, 64
2, 761911, Note_off_c, 0, 45, 64
2, 761956, Note_off_c, 0, 60, 64
2, 761963, Note_off_c, 0, 54, 64
2, 761966, Note_on_c, 0, 75, 31
2, 761975, Note_on_c, 0, 45, 20
2, 761980, Note_off_c, 0, 63, 64
2, 761981, Note_on_c, 0, 69, 23
2, 761983, Control_c, 0, 64, 0
2, 762027, Control_c, 0, 64, 127
2, 762194, Note_on_c, 0, 60, 29
2, 762202, Note_on_c, 0, 53, 26
2, 762215, Control_c, 0, 64, 0
2, 762229, Control_c, 0, 64, 127
2, 762394, Note_off_c, 0, 60, 64
2, 762402, Note_off_c, 0, 53, 64
2, 762412, Note_on_c, 0, 53, 29
2, 762413, Note_on_c, 0, 60, 23
2, 762589, Note_off_c, 0, 45, 64
2, 762630, Note_off_c, 0, 60, 64
2, 762631, Note_on_c, 0, 45, 20
2, 762660, Note_off_c, 0, 53, 64
2, 762681, Note_off_c, 0, 69, 64
2, 762697, Note_off_c, 0, 75, 64
2, 762792, Note_on_c, 0, 74, 32
2, 762841, Note_on_c, 0, 53, 16
2, 762842, Note_on_c, 0, 59, 16
2, 762850, Note_on_c, 0, 68, 31
2, 762873, Note_off_c, 0, 74, 64
2, 762909, Note_off_c, 0, 68, 64
2, 763009, Note_on_c, 0, 81, 39
2, 763081, Note_off_c, 0, 53, 64
2, 763082, Note_off_c, 0, 59, 64
2, 763092, Note_on_c, 0, 62, 20
2, 763102, Note_on_c, 0, 59, 23
2, 763115, Note_on_c, 0, 53, 15
2, 763165, Note_off_c, 0, 81, 64
2, 763281, Note_off_c, 0, 45, 64
2, 763306, Note_on_c, 0, 68, 29
2, 763312, Note_on_c, 0, 74, 29
2, 763321, Note_on_c, 0, 45, 27
2, 763333, Control_c, 0, 64, 0
2, 763342, Note_off_c, 0, 59, 64
2, 763347, Note_off_c, 0, 62, 64
2, 763355, Note_off_c, 0, 53, 64
2, 763381, Control_c, 0, 64, 127
2, 763511, Control_c, 0, 64, 0
2, 763515, Note_on_c, 0, 58, 37
2, 763528, Note_on_c, 0, 53, 23
2, 763547, Control_c, 0, 64, 127
2, 763715, Note_off_c, 0, 58, 64
2, 763728, Note_off_c, 0, 53, 64
2, 763734, Note_on_c, 0, 58, 27
2, 763757, Note_on_c, 0, 53, 16
2, 763948, Note_off_c, 0, 45, 64
2, 763957, Note_off_c, 0, 53, 64
2, 763961, Control_c, 0, 64, 0
2, 763967, Note_off_c, 0, 58, 64
2, 763975, Control_c, 0, 64, 127
2, 763980, Note_on_c, 0, 45, 29
2, 764043, Note_off_c, 0, 68, 64
2, 764049, Note_off_c, 0, 74, 64
2, 764098, Note_on_c, 0, 73, 24
2, 764160, Note_on_c, 0, 67, 31
2, 764172, Note_on_c, 0, 58, 16
2, 764179, Note_on_c, 0, 52, 15
2, 764198, Note_off_c, 0, 73, 64
2, 764223, Note_off_c, 0, 67, 64
2, 764352, Note_on_c, 0, 81, 42
2, 764372, Note_off_c, 0, 58, 64
2, 764379, Note_off_c, 0, 52, 64
2, 764397, Note_on_c, 0, 58, 29
2, 764413, Note_on_c, 0, 52, 18
2, 764416, Note_on_c, 0, 61, 32
2, 764488, Note_off_c, 0, 81, 64
2, 764607, Note_off_c, 0, 61, 64
2, 764636, Note_off_c, 0, 45, 64
2, 764637, Note_off_c, 0, 58, 64
2, 764640, Note_on_c, 0, 66, 29
2, 764641, Note_on_c, 0, 72, 31
2, 764649, Note_on_c, 0, 45, 29
2, 764653, Note_off_c, 0, 52, 64
2, 764660, Control_c, 0, 64, 0
2, 764695, Control_c, 0, 64, 127
2, 764841, Note_on_c, 0, 51, 37
2, 764848, Note_on_c, 0, 57, 23
2, 764861, Control_c, 0, 64, 0
2, 764900, Control_c, 0, 64, 127
2, 765041, Note_off_c, 0, 51, 64
2, 765048, Note_off_c, 0, 57, 64
2, 765070, Note_on_c, 0, 51, 27
2, 765073, Note_on_c, 0, 57, 23
2, 765225, Note_off_c, 0, 45, 64
2, 765258, Note_off_c, 0, 66, 64
2, 765259, Note_off_c, 0, 72, 64
2, 765285, Note_on_c, 0, 71, 40
2, 765294, Note_on_c, 0, 65, 35
2, 765300, Note_on_c, 0, 45, 28
2, 765310, Note_off_c, 0, 51, 64
2, 765313, Note_off_c, 0, 57, 64
2, 765403, Note_on_c, 0, 72, 31
2, 765426, Note_off_c, 0, 71, 64
2, 765454, Note_off_c, 0, 65, 64
2, 765518, Note_on_c, 0, 74, 39
2, 765526, Note_off_c, 0, 72, 64
2, 765534, Note_on_c, 0, 65, 23
2, 765537, Note_on_c, 0, 57, 24
2, 765544, Note_on_c, 0, 50, 24
2, 765555, Control_c, 0, 64, 0
2, 765589, Control_c, 0, 64, 127
2, 765660, Note_off_c, 0, 65, 64
2, 765777, Note_off_c, 0, 57, 64
2, 765784, Note_off_c, 0, 50, 64
2, 765807, Note_on_c, 0, 69, 35
2, 765814, Note_off_c, 0, 74, 64
2, 765814, Note_on_c, 0, 65, 26
2, 765822, Note_on_c, 0, 57, 24
2, 765828, Note_on_c, 0, 50, 23
2, 765859, Control_c, 0, 64, 0
2, 765872, Control_c, 0, 64, 127
2, 765960, Note_off_c, 0, 65, 64
2, 766100, Note_off_c, 0, 45, 64
2, 766163, Note_on_c, 0, 72, 32
2, 766167, Note_on_c, 0, 64, 23
2, 766169, Note_on_c, 0, 45, 22
2, 766183, Note_off_c, 0, 69, 64
2, 766212, Control_c, 0, 64, 0
2, 766221, Note_off_c, 0, 57, 64
2, 766227, Note_off_c, 0, 50, 64
2, 766255, Control_c, 0, 64, 127
2, 766444, Note_on_c, 0, 52, 18
2, 766451, Note_on_c, 0, 60, 14
2, 766643, Note_off_c, 0, 60, 64
2, 766648, Note_off_c, 0, 52, 64
2, 766684, Note_on_c, 0, 52, 24
2, 766696, Note_on_c, 0, 60, 16
2, 766818, Note_off_c, 0, 45, 64
2, 766918, Note_on_c, 0, 45, 15
2, 766968, Note_off_c, 0, 52, 64
2, 766970, Control_c, 0, 64, 0
2, 766980, Note_off_c, 0, 60, 64
2, 766984, Control_c, 0, 64, 127
2, 767151, Note_on_c, 0, 52, 27
2, 767166, Note_on_c, 0, 60, 14
2, 767380, Note_on_c, 0, 69, 42
2, 767382, Note_off_c, 0, 64, 64
2, 767394, Note_off_c, 0, 72, 64
2, 767590, Note_off_c, 0, 52, 64
2, 767611, Note_on_c, 0, 72, 35
2, 767625, Note_off_c, 0, 60, 64
2, 767629, Note_off_c, 0, 45, 64
2, 767638, Note_off_c, 0, 69, 64
2, 767666, Control_c, 0, 64, 0
2, 767687, Control_c, 0, 64, 127
2, 767849, Note_on_c, 0, 60, 13
2, 767856, Note_on_c, 0, 52, 13
2, 768091, Note_on_c, 0, 45, 10
2, 768137, Note_off_c, 0, 60, 64
2, 768144, Note_off_c, 0, 52, 64
2, 768332, Note_on_c, 0, 52, 18
2, 768341, Note_on_c, 0, 60, 11
2, 768353, Note_off_c, 0, 45, 64
2, 768595, Note_on_c, 0, 45, 10
2, 768695, Note_off_c, 0, 72, 64
2, 768878, Note_on_c, 0, 72, 32
2, 768934, Note_off_c, 0, 52, 64
2, 768943, Note_off_c, 0, 60, 64
2, 769180, Note_off_c, 0, 45, 64
2, 769308, Note_on_c, 0, 69, 23
2, 769345, Note_off_c, 0, 72, 64
2, 769850, Control_c, 0, 64, 0
2, 769943, Control_c, 0, 64, 127
2, 770750, Note_on_c, 0, 59, 23
2, 770759, Note_on_c, 0, 57, 23
2, 770761, Note_on_c, 0, 65, 23
2, 771002, Note_off_c, 0, 57, 64
2, 771009, Note_off_c, 0, 65, 64
2, 771044, Note_on_c, 0, 60, 35
2, 771048, Note_on_c, 0, 65, 26
2, 771050, Note_on_c, 0, 57, 32
2, 771065, Note_off_c, 0, 59, 64
2, 771301, Note_off_c, 0, 57, 64
2, 771328, Note_off_c, 0, 65, 64
2, 771340, Note_on_c, 0, 65, 23
2, 771340, Note_on_c, 0, 62, 29
2, 771347, Note_on_c, 0, 57, 29
2, 771393, Note_off_c, 0, 60, 64
2, 771602, Note_off_c, 0, 57, 64
2, 771622, Note_off_c, 0, 65, 64
2, 771661, Note_on_c, 0, 57, 28
2, 771661, Note_on_c, 0, 59, 35
2, 771661, Note_on_c, 0, 65, 28
2, 771698, Note_off_c, 0, 62, 64
2, 771949, Note_off_c, 0, 57, 64
2, 771957, Note_off_c, 0, 65, 64
2, 771974, Note_on_c, 0, 65, 18
2, 771975, Note_on_c, 0, 60, 29
2, 771980, Note_on_c, 0, 57, 24
2, 772025, Note_off_c, 0, 59, 64
2, 772275, Note_off_c, 0, 57, 64
2, 772319, Note_off_c, 0, 65, 64
2, 772350, Note_on_c, 0, 65, 23
2, 772355, Note_on_c, 0, 62, 22
2, 772360, Note_on_c, 0, 57, 22
2, 772401, Note_off_c, 0, 60, 64
2, 772684, Note_off_c, 0, 57, 64
2, 772700, Note_off_c, 0, 65, 64
2, 772724, Note_on_c, 0, 65, 22
2, 772728, Note_on_c, 0, 57, 26
2, 772728, Note_on_c, 0, 59, 26
2, 772804, Note_off_c, 0, 62, 64
2, 773127, Note_off_c, 0, 57, 64
2, 773148, Note_off_c, 0, 65, 64
2, 773163, Note_on_c, 0, 57, 18
2, 773163, Note_on_c, 0, 65, 18
2, 773167, Note_on_c, 0, 60, 18
2, 773251, Note_off_c, 0, 59, 64
2, 773329, Note_off_c, 0, 69, 64
2, 773663, Note_on_c, 0, 62, 22
2, 773792, Note_off_c, 0, 65, 64
2, 773792, Note_off_c, 0, 57, 64
2, 773796, Note_off_c, 0, 60, 64
2, 773844, Note_on_c, 0, 64, 19
2, 773904, Note_off_c, 0, 62, 64
2, 774058, Note_off_c, 0, 64, 64
2, 774061, Note_on_c, 0, 62, 22
2, 774370, Note_on_c, 0, 65, 20
2, 774378, Note_on_c, 0, 60, 16
2, 774381, Note_on_c, 0, 57, 16
2, 774477, Control_c, 0, 64, 0
2, 774516, Note_off_c, 0, 62, 64
2, 774550, Control_c, 0, 64, 127
2, 776890, Control_c, 0, 64, 0
2, 777211, Note_off_c, 0, 60, 64
2, 777211, Note_off_c, 0, 57, 64
2, 777215, Note_off_c, 0, 65, 64
2, 777215, End_track
3, 0, Start_track
3, 0, Title_t, "Played by Dr. Ron Lubetsky"
3, 0, End_track
4, 0, Start_track
4, 0, Title_t, "Copyright  1998 "
4, 0, End_track
5, 0, Start_track
5, 0, Title_t, "email: drlubetsky@aol.com"
5, 0, End_track
0, 0, End_of_file
