0, 0, Header, 1, 5, 240
1, 0, Start_track
1, 0, Time_signature, 4, 2, 24, 8
1, 0, Tempo, 500000
1, 0, Marker_t, "Chopin: Mazurka, Op. 41 No. 1- Maestoso"
1, 90240, Marker_t, "Chopin: Mazurka, Op. 41 No. 2- Andantino"
1, 149808, Marker_t, "Chopin: Mazurka, Op. 41 No. 3- Animato"
1, 181488, Marker_t, "Chopin: Mazurka, Op. 41 No. 4- Allegretto"
1, 233304, Marker_t, "Chopin: Mazurka, Op. 50 No. 1- Vivace"
1, 293808, Marker_t, "Chopin: Mazurka, Op. 50 No. 2- Allegretto"
1, 379224, Marker_t, "Chopin: Mazurka, Op. 50 No. 3- Moderato"
1, 494424, Marker_t, "Chopin: Mazurka, Op. 56 No. 1- Allegro non tanto"
1, 616344, Marker_t, "Chopin: Mazurka, Op. 56 No. 2- Vivace"
1, 662424, Marker_t, "Chopin: Mazurka, Op. 56 No. 3- Moderato"
1, 801552, Marker_t, "Chopin: Mazurka, Op. 59 No. 1- Moderato"
1, 898512, Marker_t, "Chopin: Mazurka, Op. 59 No. 2- Allegretto"
1, 967680, Marker_t, "Chopin: Mazurka, Op. 59 No. 3- Vivace"
1, 967680, End_track
2, 0, Start_track
2, 0, Title_t, "Chopin: Mazurkas 26-38"
2, 0, Program_c, 0, 0
2, 0, Control_c, 0, 7, 127
2, 184, Note_on_c, 0, 73, 50
2, 234, Control_c, 0, 64, 0
2, 267, Control_c, 0, 64, 127
2, 278, Note_on_c, 0, 71, 62
2, 296, Note_off_c, 0, 73, 64
2, 509, Note_on_c, 0, 69, 58
2, 517, Note_off_c, 0, 71, 64
2, 519, Control_c, 0, 64, 0
2, 564, Control_c, 0, 64, 127
2, 729, Note_on_c, 0, 68, 55
2, 748, Note_off_c, 0, 69, 64
2, 751, Control_c, 0, 64, 0
2, 804, Control_c, 0, 64, 127
2, 902, Note_on_c, 0, 64, 41
2, 909, Note_off_c, 0, 68, 64
2, 949, Note_on_c, 0, 61, 62
2, 968, Note_off_c, 0, 64, 64
2, 971, Control_c, 0, 64, 0
2, 1014, Control_c, 0, 64, 127
2, 1178, Note_on_c, 0, 62, 64
2, 1188, Note_off_c, 0, 61, 64
2, 1212, Control_c, 0, 64, 0
2, 1273, Control_c, 0, 64, 127
2, 1409, Note_on_c, 0, 64, 63
2, 1429, Note_off_c, 0, 62, 64
2, 1430, Control_c, 0, 64, 0
2, 1485, Control_c, 0, 64, 127
2, 1584, Note_on_c, 0, 66, 55
2, 1605, Note_off_c, 0, 64, 64
2, 1623, Control_c, 0, 64, 0
2, 1633, Note_on_c, 0, 68, 58
2, 1658, Note_off_c, 0, 66, 64
2, 1671, Control_c, 0, 64, 127
2, 1809, Note_off_c, 0, 68, 64
2, 1816, Note_on_c, 0, 71, 59
2, 1848, Control_c, 0, 64, 0
2, 1862, Note_on_c, 0, 69, 66
2, 1871, Note_off_c, 0, 71, 64
2, 1896, Control_c, 0, 64, 127
2, 2131, Note_off_c, 0, 69, 64
2, 2131, Note_on_c, 0, 68, 57
2, 2140, Control_c, 0, 64, 0
2, 2195, Control_c, 0, 64, 127
2, 2314, Note_on_c, 0, 64, 51
2, 2337, Note_off_c, 0, 68, 64
2, 2366, Note_on_c, 0, 61, 50
2, 2372, Note_on_c, 0, 56, 50
2, 2383, Control_c, 0, 64, 0
2, 2400, Note_off_c, 0, 64, 64
2, 2422, Control_c, 0, 64, 127
2, 2592, Note_off_c, 0, 56, 64
2, 2611, Note_on_c, 0, 54, 43
2, 2616, Note_on_c, 0, 62, 60
2, 2624, Note_on_c, 0, 57, 41
2, 2637, Note_off_c, 0, 61, 64
2, 2642, Control_c, 0, 64, 0
2, 2691, Control_c, 0, 64, 127
2, 2883, Note_on_c, 0, 64, 55
2, 2889, Note_off_c, 0, 62, 64
2, 2890, Note_on_c, 0, 49, 57
2, 2891, Note_off_c, 0, 54, 64
2, 2896, Note_off_c, 0, 57, 64
2, 2900, Control_c, 0, 64, 0
2, 2943, Control_c, 0, 64, 127
2, 3078, Note_off_c, 0, 64, 64
2, 3079, Note_on_c, 0, 73, 56
2, 3123, Note_on_c, 0, 61, 47
2, 3124, Note_on_c, 0, 64, 36
2, 3126, Note_on_c, 0, 56, 31
2, 3132, Note_on_c, 0, 71, 62
2, 3139, Note_off_c, 0, 73, 64
2, 3146, Control_c, 0, 64, 0
2, 3182, Control_c, 0, 64, 127
2, 3193, Note_off_c, 0, 49, 64
2, 3222, Note_off_c, 0, 61, 64
2, 3223, Note_off_c, 0, 64, 64
2, 3225, Note_off_c, 0, 56, 64
2, 3357, Note_on_c, 0, 66, 55
2, 3358, Note_on_c, 0, 69, 62
2, 3360, Note_on_c, 0, 61, 31
2, 3367, Note_off_c, 0, 71, 64
2, 3367, Note_on_c, 0, 57, 42
2, 3368, Control_c, 0, 64, 0
2, 3383, Control_c, 0, 64, 127
2, 3571, Note_off_c, 0, 66, 64
2, 3574, Note_off_c, 0, 61, 64
2, 3578, Note_on_c, 0, 68, 58
2, 3581, Note_off_c, 0, 57, 64
2, 3587, Note_on_c, 0, 49, 58
2, 3597, Note_off_c, 0, 69, 64
2, 3599, Control_c, 0, 64, 0
2, 3629, Control_c, 0, 64, 127
2, 3753, Note_on_c, 0, 64, 60
2, 3767, Note_off_c, 0, 68, 64
2, 3790, Note_on_c, 0, 61, 58
2, 3797, Note_on_c, 0, 56, 44
2, 3807, Control_c, 0, 64, 0
2, 3819, Note_off_c, 0, 64, 64
2, 3843, Control_c, 0, 64, 127
2, 3931, Note_off_c, 0, 49, 64
2, 4002, Note_off_c, 0, 56, 64
2, 4013, Note_on_c, 0, 54, 41
2, 4015, Note_on_c, 0, 62, 56
2, 4022, Note_on_c, 0, 57, 34
2, 4025, Note_off_c, 0, 61, 64
2, 4025, Control_c, 0, 64, 0
2, 4070, Control_c, 0, 64, 127
2, 4220, Note_off_c, 0, 54, 64
2, 4225, Note_on_c, 0, 64, 62
2, 4229, Note_on_c, 0, 49, 60
2, 4242, Control_c, 0, 64, 0
2, 4245, Note_off_c, 0, 62, 64
2, 4251, Note_off_c, 0, 57, 64
2, 4281, Control_c, 0, 64, 127
2, 4401, Note_on_c, 0, 66, 48
2, 4415, Note_off_c, 0, 64, 64
2, 4448, Note_on_c, 0, 64, 26
2, 4448, Note_on_c, 0, 61, 46
2, 4454, Note_on_c, 0, 68, 62
2, 4464, Control_c, 0, 64, 0
2, 4486, Note_off_c, 0, 66, 64
2, 4490, Control_c, 0, 64, 127
2, 4520, Note_off_c, 0, 49, 64
2, 4547, Note_off_c, 0, 61, 64
2, 4547, Note_off_c, 0, 64, 64
2, 4635, Note_on_c, 0, 71, 58
2, 4647, Note_off_c, 0, 68, 64
2, 4681, Note_on_c, 0, 66, 39
2, 4687, Note_on_c, 0, 57, 39
2, 4690, Note_on_c, 0, 69, 62
2, 4694, Note_on_c, 0, 61, 32
2, 4699, Control_c, 0, 64, 0
2, 4707, Note_off_c, 0, 71, 64
2, 4722, Control_c, 0, 64, 127
2, 4895, Note_off_c, 0, 66, 64
2, 4901, Note_off_c, 0, 57, 64
2, 4908, Note_off_c, 0, 61, 64
2, 4936, Note_on_c, 0, 68, 55
2, 4954, Note_on_c, 0, 49, 42
2, 4958, Note_off_c, 0, 69, 64
2, 4978, Control_c, 0, 64, 0
2, 5031, Control_c, 0, 64, 127
2, 5206, Note_on_c, 0, 56, 39
2, 5212, Note_on_c, 0, 61, 31
2, 5220, Control_c, 0, 64, 0
2, 5252, Note_off_c, 0, 49, 64
2, 5265, Control_c, 0, 64, 127
2, 5342, Note_on_c, 0, 64, 40
2, 5361, Note_off_c, 0, 68, 64
2, 5364, Note_off_c, 0, 61, 64
2, 5387, Note_off_c, 0, 56, 64
2, 5494, Note_on_c, 0, 68, 52
2, 5521, Note_off_c, 0, 64, 64
2, 5625, Note_on_c, 0, 64, 57
2, 5656, Note_off_c, 0, 68, 64
2, 5746, Control_c, 0, 64, 0
2, 5748, Note_on_c, 0, 40, 64
2, 5777, Control_c, 0, 64, 127
2, 5877, Note_on_c, 0, 76, 57
2, 5917, Note_off_c, 0, 64, 64
2, 5978, Control_c, 0, 64, 127
2, 5980, Note_on_c, 0, 64, 26
2, 5982, Note_on_c, 0, 75, 59
2, 5982, Note_on_c, 0, 68, 48
2, 5984, Note_on_c, 0, 59, 37
2, 5998, Note_off_c, 0, 76, 64
2, 6011, Control_c, 0, 64, 0
2, 6022, Control_c, 0, 64, 127
2, 6063, Note_off_c, 0, 64, 64
2, 6065, Note_off_c, 0, 68, 64
2, 6067, Note_off_c, 0, 59, 64
2, 6208, Note_on_c, 0, 73, 62
2, 6215, Note_on_c, 0, 58, 42
2, 6225, Note_on_c, 0, 67, 25
2, 6225, Control_c, 0, 64, 0
2, 6228, Note_on_c, 0, 64, 26
2, 6240, Note_off_c, 0, 75, 64
2, 6242, Control_c, 0, 64, 127
2, 6267, Note_off_c, 0, 40, 64
2, 6429, Note_off_c, 0, 58, 64
2, 6439, Note_off_c, 0, 67, 64
2, 6441, Note_on_c, 0, 71, 56
2, 6442, Note_off_c, 0, 64, 64
2, 6444, Note_on_c, 0, 40, 58
2, 6447, Note_off_c, 0, 73, 64
2, 6467, Control_c, 0, 64, 0
2, 6513, Control_c, 0, 64, 127
2, 6604, Note_on_c, 0, 68, 60
2, 6641, Note_off_c, 0, 71, 64
2, 6652, Note_on_c, 0, 59, 46
2, 6653, Note_on_c, 0, 64, 55
2, 6670, Note_off_c, 0, 68, 64
2, 6679, Control_c, 0, 64, 0
2, 6713, Control_c, 0, 64, 127
2, 6797, Note_off_c, 0, 40, 64
2, 6852, Note_off_c, 0, 59, 64
2, 6860, Note_on_c, 0, 61, 36
2, 6862, Note_on_c, 0, 58, 48
2, 6867, Note_on_c, 0, 67, 62
2, 6885, Control_c, 0, 64, 0
2, 6890, Note_off_c, 0, 64, 64
2, 6921, Control_c, 0, 64, 127
2, 7044, Note_off_c, 0, 61, 64
2, 7088, Note_on_c, 0, 68, 62
2, 7093, Note_on_c, 0, 52, 56
2, 7103, Control_c, 0, 64, 0
2, 7108, Note_off_c, 0, 58, 64
2, 7116, Note_off_c, 0, 67, 64
2, 7129, Control_c, 0, 64, 127
2, 7206, Note_on_c, 0, 69, 56
2, 7213, Note_off_c, 0, 68, 64
2, 7309, Note_on_c, 0, 70, 59
2, 7314, Note_on_c, 0, 68, 49
2, 7321, Note_on_c, 0, 64, 47
2, 7321, Note_on_c, 0, 59, 51
2, 7327, Note_off_c, 0, 69, 64
2, 7328, Control_c, 0, 64, 0
2, 7350, Control_c, 0, 64, 127
2, 7374, Note_off_c, 0, 52, 64
2, 7383, Note_off_c, 0, 64, 64
2, 7387, Note_off_c, 0, 59, 64
2, 7387, Note_off_c, 0, 68, 64
2, 7416, Note_on_c, 0, 71, 55
2, 7432, Note_off_c, 0, 70, 64
2, 7520, Note_on_c, 0, 72, 64
2, 7531, Note_on_c, 0, 58, 50
2, 7531, Note_on_c, 0, 67, 48
2, 7534, Note_on_c, 0, 64, 50
2, 7541, Note_off_c, 0, 71, 64
2, 7546, Control_c, 0, 64, 0
2, 7579, Control_c, 0, 64, 127
2, 7625, Note_on_c, 0, 75, 56
2, 7644, Note_off_c, 0, 72, 64
2, 7661, Note_on_c, 0, 73, 57
2, 7684, Note_off_c, 0, 75, 64
2, 7745, Note_off_c, 0, 67, 64
2, 7745, Note_off_c, 0, 58, 64
2, 7748, Note_off_c, 0, 64, 64
2, 7757, Control_c, 0, 64, 0
2, 7762, Note_on_c, 0, 71, 57
2, 7763, Note_on_c, 0, 52, 60
2, 7769, Note_off_c, 0, 73, 64
2, 7796, Control_c, 0, 64, 127
2, 7907, Note_on_c, 0, 68, 59
2, 7917, Note_off_c, 0, 71, 64
2, 7953, Note_on_c, 0, 59, 50
2, 7956, Note_on_c, 0, 64, 62
2, 7976, Control_c, 0, 64, 0
2, 7984, Note_off_c, 0, 68, 64
2, 8023, Control_c, 0, 64, 127
2, 8132, Note_off_c, 0, 59, 64
2, 8168, Note_on_c, 0, 61, 33
2, 8168, Note_on_c, 0, 58, 51
2, 8175, Note_on_c, 0, 67, 64
2, 8184, Note_off_c, 0, 52, 64
2, 8185, Control_c, 0, 64, 0
2, 8198, Control_c, 0, 64, 127
2, 8204, Note_off_c, 0, 64, 64
2, 8382, Note_off_c, 0, 58, 64
2, 8382, Note_off_c, 0, 61, 64
2, 8387, Note_on_c, 0, 40, 62
2, 8387, Note_on_c, 0, 68, 64
2, 8397, Control_c, 0, 64, 0
2, 8406, Note_off_c, 0, 67, 64
2, 8431, Control_c, 0, 64, 127
2, 8529, Note_off_c, 0, 68, 64
2, 8541, Note_on_c, 0, 76, 59
2, 8592, Note_on_c, 0, 75, 66
2, 8604, Note_on_c, 0, 68, 57
2, 8605, Note_off_c, 0, 76, 64
2, 8610, Note_on_c, 0, 59, 49
2, 8614, Note_on_c, 0, 64, 49
2, 8620, Control_c, 0, 64, 0
2, 8653, Control_c, 0, 64, 127
2, 8669, Note_off_c, 0, 59, 64
2, 8673, Note_off_c, 0, 68, 64
2, 8683, Note_off_c, 0, 64, 64
2, 8819, Note_on_c, 0, 73, 69
2, 8824, Note_on_c, 0, 67, 47
2, 8830, Note_on_c, 0, 58, 51
2, 8833, Note_on_c, 0, 64, 47
2, 8846, Control_c, 0, 64, 0
2, 8849, Note_off_c, 0, 75, 64
2, 8859, Control_c, 0, 64, 127
2, 8905, Note_off_c, 0, 40, 64
2, 9038, Note_off_c, 0, 67, 64
2, 9040, Note_on_c, 0, 71, 66
2, 9040, Note_on_c, 0, 52, 60
2, 9044, Note_off_c, 0, 58, 64
2, 9047, Note_off_c, 0, 64, 64
2, 9063, Control_c, 0, 64, 0
2, 9067, Note_off_c, 0, 73, 64
2, 9107, Control_c, 0, 64, 127
2, 9187, Note_on_c, 0, 68, 62
2, 9213, Note_off_c, 0, 71, 64
2, 9225, Note_on_c, 0, 59, 52
2, 9232, Note_on_c, 0, 64, 64
2, 9248, Note_off_c, 0, 68, 64
2, 9259, Control_c, 0, 64, 0
2, 9291, Control_c, 0, 64, 127
2, 9408, Note_off_c, 0, 59, 64
2, 9428, Note_off_c, 0, 52, 64
2, 9454, Note_on_c, 0, 58, 50
2, 9458, Note_on_c, 0, 61, 41
2, 9458, Note_on_c, 0, 67, 67
2, 9464, Note_off_c, 0, 64, 64
2, 9478, Control_c, 0, 64, 0
2, 9521, Control_c, 0, 64, 127
2, 9661, Note_off_c, 0, 58, 64
2, 9664, Note_on_c, 0, 68, 64
2, 9674, Note_on_c, 0, 52, 62
2, 9687, Note_off_c, 0, 61, 64
2, 9693, Note_off_c, 0, 67, 64
2, 9694, Control_c, 0, 64, 0
2, 9726, Control_c, 0, 64, 127
2, 9769, Note_on_c, 0, 69, 51
2, 9776, Note_off_c, 0, 68, 64
2, 9878, Note_on_c, 0, 68, 64
2, 9884, Note_on_c, 0, 70, 65
2, 9888, Note_on_c, 0, 59, 59
2, 9897, Control_c, 0, 64, 0
2, 9906, Note_off_c, 0, 69, 64
2, 9930, Control_c, 0, 64, 127
2, 9982, Note_on_c, 0, 73, 55
2, 10011, Note_off_c, 0, 70, 64
2, 10025, Note_off_c, 0, 68, 64
2, 10037, Note_off_c, 0, 59, 64
2, 10069, Note_off_c, 0, 52, 64
2, 10079, Note_on_c, 0, 71, 58
2, 10094, Note_off_c, 0, 73, 64
2, 10178, Note_on_c, 0, 75, 64
2, 10229, Note_off_c, 0, 71, 64
2, 10276, Note_on_c, 0, 78, 56
2, 10286, Note_off_c, 0, 75, 64
2, 10293, Control_c, 0, 64, 0
2, 10344, Control_c, 0, 64, 127
2, 10381, Note_on_c, 0, 76, 51
2, 10396, Note_off_c, 0, 78, 64
2, 10416, Note_on_c, 0, 78, 65
2, 10426, Note_off_c, 0, 76, 64
2, 10447, Note_on_c, 0, 76, 58
2, 10459, Note_off_c, 0, 78, 64
2, 10473, Control_c, 0, 64, 0
2, 10482, Note_on_c, 0, 75, 62
2, 10490, Note_off_c, 0, 76, 64
2, 10529, Control_c, 0, 64, 127
2, 10572, Note_on_c, 0, 76, 58
2, 10585, Note_off_c, 0, 75, 64
2, 10676, Note_on_c, 0, 78, 62
2, 10688, Note_off_c, 0, 76, 64
2, 10755, Note_on_c, 0, 79, 70
2, 10766, Note_off_c, 0, 78, 64
2, 10823, Control_c, 0, 64, 0
2, 10868, Note_on_c, 0, 80, 62
2, 10875, Note_on_c, 0, 48, 64
2, 10883, Note_off_c, 0, 79, 64
2, 10907, Control_c, 0, 64, 127
2, 11076, Note_on_c, 0, 56, 49
2, 11080, Note_on_c, 0, 63, 49
2, 11081, Note_on_c, 0, 66, 44
2, 11091, Control_c, 0, 64, 0
2, 11109, Note_off_c, 0, 56, 64
2, 11113, Note_off_c, 0, 63, 64
2, 11114, Note_off_c, 0, 66, 64
2, 11152, Note_off_c, 0, 48, 64
2, 11193, Note_on_c, 0, 82, 59
2, 11216, Note_off_c, 0, 80, 64
2, 11298, Note_on_c, 0, 80, 35
2, 11305, Note_on_c, 0, 66, 52
2, 11307, Note_on_c, 0, 56, 51
2, 11313, Note_off_c, 0, 82, 64
2, 11314, Note_on_c, 0, 63, 47
2, 11324, Control_c, 0, 64, 127
2, 11389, Note_off_c, 0, 80, 64
2, 11395, Note_on_c, 0, 79, 62
2, 11419, Note_off_c, 0, 66, 64
2, 11421, Note_off_c, 0, 56, 64
2, 11428, Note_off_c, 0, 63, 64
2, 11493, Note_on_c, 0, 80, 59
2, 11496, Control_c, 0, 64, 0
2, 11503, Note_on_c, 0, 49, 59
2, 11511, Control_c, 0, 64, 127
2, 11523, Note_off_c, 0, 79, 64
2, 11586, Note_on_c, 0, 82, 62
2, 11601, Note_off_c, 0, 80, 64
2, 11654, Control_c, 0, 64, 0
2, 11676, Note_on_c, 0, 80, 77
2, 11683, Note_on_c, 0, 56, 45
2, 11686, Note_on_c, 0, 65, 47
2, 11686, Note_on_c, 0, 61, 49
2, 11697, Note_off_c, 0, 82, 64
2, 11716, Note_off_c, 0, 56, 64
2, 11719, Note_off_c, 0, 61, 64
2, 11719, Note_off_c, 0, 65, 64
2, 11776, Note_on_c, 0, 79, 46
2, 11782, Note_off_c, 0, 49, 64
2, 11788, Note_off_c, 0, 80, 64
2, 11881, Note_on_c, 0, 80, 73
2, 11889, Note_on_c, 0, 56, 56
2, 11890, Note_on_c, 0, 61, 56
2, 11894, Note_on_c, 0, 65, 56
2, 11907, Control_c, 0, 64, 127
2, 11934, Note_off_c, 0, 79, 64
2, 11978, Note_on_c, 0, 82, 56
2, 11985, Note_off_c, 0, 80, 64
2, 12003, Note_off_c, 0, 56, 64
2, 12004, Note_off_c, 0, 61, 64
2, 12008, Note_off_c, 0, 65, 64
2, 12063, Control_c, 0, 64, 0
2, 12070, Note_on_c, 0, 80, 73
2, 12076, Note_on_c, 0, 44, 66
2, 12095, Note_off_c, 0, 82, 64
2, 12113, Control_c, 0, 64, 127
2, 12167, Note_on_c, 0, 79, 50
2, 12169, Note_off_c, 0, 80, 64
2, 12260, Control_c, 0, 64, 0
2, 12266, Note_on_c, 0, 80, 77
2, 12268, Note_on_c, 0, 60, 46
2, 12272, Note_on_c, 0, 56, 58
2, 12272, Note_on_c, 0, 51, 49
2, 12273, Note_on_c, 0, 66, 58
2, 12292, Control_c, 0, 64, 0
2, 12293, Note_off_c, 0, 79, 64
2, 12301, Note_off_c, 0, 60, 64
2, 12305, Note_off_c, 0, 51, 64
2, 12305, Note_off_c, 0, 56, 64
2, 12306, Note_off_c, 0, 66, 64
2, 12348, Note_on_c, 0, 82, 67
2, 12353, Note_off_c, 0, 44, 64
2, 12364, Note_off_c, 0, 80, 64
2, 12396, Control_c, 0, 64, 0
2, 12436, Note_on_c, 0, 51, 49
2, 12436, Note_on_c, 0, 56, 58
2, 12439, Note_on_c, 0, 80, 71
2, 12444, Note_on_c, 0, 60, 46
2, 12453, Note_off_c, 0, 82, 64
2, 12455, Note_on_c, 0, 66, 48
2, 12457, Control_c, 0, 64, 127
2, 12521, Note_on_c, 0, 78, 64
2, 12529, Note_off_c, 0, 80, 64
2, 12550, Note_off_c, 0, 56, 64
2, 12550, Note_off_c, 0, 51, 64
2, 12558, Note_off_c, 0, 60, 64
2, 12569, Note_off_c, 0, 66, 64
2, 12570, Note_off_c, 0, 78, 64
2, 12617, Note_on_c, 0, 78, 78
2, 12659, Note_on_c, 0, 77, 98
2, 12660, Note_on_c, 0, 37, 66
2, 12662, Note_on_c, 0, 49, 70
2, 12666, Note_off_c, 0, 78, 64
2, 12675, Control_c, 0, 64, 0
2, 12826, Note_off_c, 0, 77, 64
2, 12826, Note_on_c, 0, 76, 64
2, 12853, Note_on_c, 0, 61, 44
2, 12856, Note_on_c, 0, 56, 49
2, 12856, Note_on_c, 0, 53, 51
2, 12859, Note_on_c, 0, 65, 44
2, 12871, Note_on_c, 0, 77, 69
2, 12885, Note_off_c, 0, 76, 64
2, 12886, Note_off_c, 0, 61, 64
2, 12889, Note_off_c, 0, 53, 64
2, 12889, Note_off_c, 0, 56, 64
2, 12892, Note_off_c, 0, 65, 64
2, 12936, Note_off_c, 0, 37, 64
2, 12938, Note_off_c, 0, 49, 64
2, 13074, Control_c, 0, 64, 127
2, 13081, Note_on_c, 0, 73, 80
2, 13084, Note_on_c, 0, 65, 45
2, 13086, Note_off_c, 0, 77, 64
2, 13086, Note_on_c, 0, 61, 47
2, 13087, Note_on_c, 0, 56, 40
2, 13092, Note_on_c, 0, 53, 39
2, 13198, Note_off_c, 0, 65, 64
2, 13200, Note_off_c, 0, 61, 64
2, 13201, Note_off_c, 0, 56, 64
2, 13206, Note_off_c, 0, 53, 64
2, 13270, Note_off_c, 0, 73, 64
2, 13271, Control_c, 0, 64, 0
2, 13278, Note_on_c, 0, 45, 69
2, 13278, Note_on_c, 0, 77, 73
2, 13340, Control_c, 0, 64, 127
2, 13476, Control_c, 0, 64, 0
2, 13484, Note_on_c, 0, 60, 47
2, 13488, Note_on_c, 0, 63, 55
2, 13488, Note_on_c, 0, 53, 32
2, 13491, Note_on_c, 0, 65, 49
2, 13517, Note_off_c, 0, 60, 64
2, 13521, Note_off_c, 0, 53, 64
2, 13521, Note_off_c, 0, 63, 64
2, 13524, Note_off_c, 0, 65, 64
2, 13551, Note_off_c, 0, 45, 64
2, 13582, Note_on_c, 0, 78, 62
2, 13605, Note_off_c, 0, 77, 64
2, 13681, Note_on_c, 0, 77, 59
2, 13684, Note_on_c, 0, 63, 44
2, 13684, Note_on_c, 0, 60, 31
2, 13687, Note_on_c, 0, 65, 44
2, 13692, Note_on_c, 0, 53, 32
2, 13692, Control_c, 0, 64, 127
2, 13704, Note_off_c, 0, 78, 64
2, 13771, Note_on_c, 0, 76, 64
2, 13776, Note_off_c, 0, 77, 64
2, 13798, Note_off_c, 0, 60, 64
2, 13798, Note_off_c, 0, 63, 64
2, 13801, Note_off_c, 0, 65, 64
2, 13806, Note_off_c, 0, 53, 64
2, 13871, Note_on_c, 0, 46, 50
2, 13883, Note_on_c, 0, 77, 64
2, 13886, Control_c, 0, 64, 0
2, 13905, Note_off_c, 0, 76, 64
2, 13942, Control_c, 0, 64, 127
2, 13988, Note_on_c, 0, 78, 62
2, 14007, Note_off_c, 0, 77, 64
2, 14080, Note_on_c, 0, 58, 44
2, 14082, Note_on_c, 0, 77, 66
2, 14084, Note_on_c, 0, 65, 46
2, 14084, Note_on_c, 0, 53, 44
2, 14086, Note_on_c, 0, 61, 38
2, 14088, Control_c, 0, 64, 0
2, 14103, Note_off_c, 0, 78, 64
2, 14128, Control_c, 0, 64, 127
2, 14149, Note_off_c, 0, 46, 64
2, 14162, Note_on_c, 0, 76, 73
2, 14184, Note_off_c, 0, 77, 64
2, 14194, Note_off_c, 0, 58, 64
2, 14198, Note_off_c, 0, 53, 64
2, 14198, Note_off_c, 0, 65, 64
2, 14200, Note_off_c, 0, 61, 64
2, 14280, Note_on_c, 0, 63, 44
2, 14282, Note_on_c, 0, 77, 66
2, 14282, Note_on_c, 0, 58, 45
2, 14286, Note_on_c, 0, 61, 47
2, 14288, Note_on_c, 0, 51, 40
2, 14292, Control_c, 0, 64, 0
2, 14295, Note_off_c, 0, 76, 64
2, 14323, Control_c, 0, 64, 127
2, 14370, Note_on_c, 0, 79, 63
2, 14382, Note_off_c, 0, 77, 64
2, 14394, Note_off_c, 0, 63, 64
2, 14396, Note_off_c, 0, 58, 64
2, 14400, Note_off_c, 0, 61, 64
2, 14402, Note_off_c, 0, 51, 64
2, 14475, Note_on_c, 0, 44, 51
2, 14481, Note_on_c, 0, 82, 62
2, 14484, Control_c, 0, 64, 0
2, 14496, Note_off_c, 0, 79, 64
2, 14531, Control_c, 0, 64, 127
2, 14571, Note_on_c, 0, 80, 63
2, 14586, Note_off_c, 0, 82, 64
2, 14672, Note_on_c, 0, 56, 33
2, 14675, Note_on_c, 0, 60, 46
2, 14678, Note_on_c, 0, 78, 64
2, 14678, Note_on_c, 0, 66, 37
2, 14687, Note_off_c, 0, 80, 64
2, 14687, Control_c, 0, 64, 0
2, 14705, Note_off_c, 0, 56, 64
2, 14708, Note_off_c, 0, 60, 64
2, 14711, Note_off_c, 0, 66, 64
2, 14737, Control_c, 0, 64, 127
2, 14757, Note_off_c, 0, 44, 64
2, 14767, Note_on_c, 0, 70, 70
2, 14780, Note_off_c, 0, 78, 64
2, 14851, Note_on_c, 0, 72, 62
2, 14865, Note_on_c, 0, 56, 36
2, 14867, Note_on_c, 0, 66, 41
2, 14868, Note_off_c, 0, 70, 64
2, 14873, Note_on_c, 0, 63, 39
2, 14875, Control_c, 0, 64, 0
2, 14911, Control_c, 0, 64, 127
2, 14943, Note_on_c, 0, 68, 63
2, 14949, Note_off_c, 0, 72, 64
2, 14979, Note_off_c, 0, 56, 64
2, 14981, Note_off_c, 0, 66, 64
2, 14987, Note_off_c, 0, 63, 64
2, 15047, Note_on_c, 0, 49, 59
2, 15052, Note_on_c, 0, 75, 65
2, 15067, Control_c, 0, 64, 0
2, 15085, Note_off_c, 0, 68, 64
2, 15110, Control_c, 0, 64, 127
2, 15195, Note_on_c, 0, 77, 62
2, 15199, Note_off_c, 0, 75, 64
2, 15237, Note_on_c, 0, 73, 71
2, 15240, Note_on_c, 0, 56, 41
2, 15244, Note_on_c, 0, 65, 44
2, 15244, Note_on_c, 0, 61, 46
2, 15258, Note_off_c, 0, 77, 64
2, 15260, Control_c, 0, 64, 0
2, 15277, Control_c, 0, 64, 127
2, 15336, Note_off_c, 0, 49, 64
2, 15354, Note_off_c, 0, 56, 64
2, 15358, Note_off_c, 0, 61, 64
2, 15358, Note_off_c, 0, 65, 64
2, 15358, Note_on_c, 0, 77, 48
2, 15365, Note_off_c, 0, 73, 64
2, 15448, Note_on_c, 0, 49, 71
2, 15451, Note_on_c, 0, 78, 67
2, 15451, Control_c, 0, 64, 0
2, 15473, Note_off_c, 0, 77, 64
2, 15481, Control_c, 0, 64, 127
2, 15540, Note_on_c, 0, 79, 79
2, 15557, Note_off_c, 0, 78, 64
2, 15640, Control_c, 0, 64, 0
2, 15648, Note_on_c, 0, 80, 79
2, 15653, Note_on_c, 0, 36, 73
2, 15654, Note_on_c, 0, 48, 69
2, 15659, Note_off_c, 0, 79, 64
2, 15661, Note_off_c, 0, 49, 64
2, 15696, Control_c, 0, 64, 127
2, 15860, Note_on_c, 0, 63, 56
2, 15863, Note_on_c, 0, 56, 69
2, 15867, Note_on_c, 0, 66, 65
2, 15872, Control_c, 0, 64, 0
2, 15893, Note_off_c, 0, 63, 64
2, 15896, Note_off_c, 0, 56, 64
2, 15900, Note_off_c, 0, 66, 64
2, 15912, Control_c, 0, 64, 127
2, 15921, Note_off_c, 0, 36, 64
2, 15922, Note_off_c, 0, 48, 64
2, 15958, Note_on_c, 0, 82, 74
2, 15965, Note_off_c, 0, 80, 64
2, 16052, Note_on_c, 0, 80, 85
2, 16068, Note_on_c, 0, 63, 56
2, 16070, Note_on_c, 0, 66, 62
2, 16070, Note_on_c, 0, 56, 64
2, 16078, Note_off_c, 0, 82, 64
2, 16147, Note_on_c, 0, 79, 74
2, 16157, Note_off_c, 0, 80, 64
2, 16182, Note_off_c, 0, 63, 64
2, 16184, Note_off_c, 0, 56, 64
2, 16184, Note_off_c, 0, 66, 64
2, 16266, Note_on_c, 0, 80, 78
2, 16273, Note_on_c, 0, 37, 71
2, 16273, Control_c, 0, 64, 0
2, 16281, Note_on_c, 0, 49, 83
2, 16295, Note_off_c, 0, 79, 64
2, 16315, Control_c, 0, 64, 127
2, 16344, Note_on_c, 0, 82, 82
2, 16356, Note_off_c, 0, 80, 64
2, 16400, Note_on_c, 0, 80, 78
2, 16423, Note_off_c, 0, 82, 64
2, 16468, Note_on_c, 0, 65, 69
2, 16468, Note_on_c, 0, 53, 66
2, 16472, Note_on_c, 0, 61, 54
2, 16472, Note_on_c, 0, 56, 59
2, 16479, Note_on_c, 0, 79, 82
2, 16481, Control_c, 0, 64, 0
2, 16487, Note_off_c, 0, 80, 64
2, 16501, Note_off_c, 0, 53, 64
2, 16501, Note_off_c, 0, 65, 64
2, 16505, Note_off_c, 0, 56, 64
2, 16505, Note_off_c, 0, 61, 64
2, 16523, Control_c, 0, 64, 127
2, 16533, Note_off_c, 0, 37, 64
2, 16538, Note_on_c, 0, 80, 82
2, 16541, Note_off_c, 0, 49, 64
2, 16568, Note_off_c, 0, 79, 64
2, 16613, Note_on_c, 0, 82, 82
2, 16628, Note_off_c, 0, 80, 64
2, 16648, Note_on_c, 0, 65, 58
2, 16652, Note_on_c, 0, 61, 58
2, 16652, Note_on_c, 0, 56, 56
2, 16652, Note_on_c, 0, 53, 50
2, 16679, Note_on_c, 0, 80, 82
2, 16699, Note_off_c, 0, 82, 64
2, 16741, Note_on_c, 0, 79, 81
2, 16757, Note_off_c, 0, 80, 64
2, 16762, Note_off_c, 0, 65, 64
2, 16766, Note_off_c, 0, 53, 64
2, 16766, Note_off_c, 0, 56, 64
2, 16766, Note_off_c, 0, 61, 64
2, 16798, Note_on_c, 0, 80, 81
2, 16831, Note_off_c, 0, 79, 64
2, 16849, Control_c, 0, 64, 0
2, 16860, Note_on_c, 0, 44, 80
2, 16860, Note_on_c, 0, 32, 69
2, 16867, Note_on_c, 0, 82, 82
2, 16884, Note_off_c, 0, 80, 64
2, 16896, Control_c, 0, 64, 127
2, 16923, Note_on_c, 0, 80, 82
2, 16937, Note_off_c, 0, 82, 64
2, 16992, Note_on_c, 0, 79, 74
2, 17006, Note_off_c, 0, 80, 64
2, 17055, Note_on_c, 0, 80, 82
2, 17055, Control_c, 0, 64, 0
2, 17060, Control_c, 0, 64, 0
2, 17064, Note_on_c, 0, 51, 73
2, 17068, Note_on_c, 0, 66, 69
2, 17068, Note_on_c, 0, 60, 69
2, 17068, Note_on_c, 0, 56, 73
2, 17074, Note_off_c, 0, 79, 64
2, 17084, Control_c, 0, 64, 127
2, 17097, Note_off_c, 0, 51, 64
2, 17101, Note_off_c, 0, 56, 64
2, 17101, Note_off_c, 0, 60, 64
2, 17101, Note_off_c, 0, 66, 64
2, 17112, Note_on_c, 0, 82, 60
2, 17125, Note_off_c, 0, 32, 64
2, 17131, Note_off_c, 0, 80, 64
2, 17131, Note_off_c, 0, 44, 64
2, 17157, Note_on_c, 0, 80, 82
2, 17182, Note_off_c, 0, 82, 64
2, 17225, Note_on_c, 0, 79, 77
2, 17236, Note_off_c, 0, 80, 64
2, 17236, Note_on_c, 0, 51, 32
2, 17236, Note_on_c, 0, 56, 73
2, 17240, Note_on_c, 0, 60, 64
2, 17240, Note_on_c, 0, 66, 59
2, 17268, Control_c, 0, 64, 0
2, 17290, Note_on_c, 0, 80, 75
2, 17307, Note_off_c, 0, 79, 64
2, 17350, Note_off_c, 0, 56, 64
2, 17350, Note_off_c, 0, 51, 64
2, 17354, Note_off_c, 0, 66, 64
2, 17354, Note_off_c, 0, 60, 64
2, 17368, Note_on_c, 0, 78, 72
2, 17385, Note_off_c, 0, 80, 64
2, 17432, Note_on_c, 0, 77, 78
2, 17440, Note_off_c, 0, 78, 64
2, 17464, Note_on_c, 0, 78, 74
2, 17474, Note_off_c, 0, 77, 64
2, 17476, Note_on_c, 0, 37, 73
2, 17480, Note_on_c, 0, 77, 69
2, 17482, Note_on_c, 0, 49, 73
2, 17486, Note_off_c, 0, 78, 64
2, 17490, Control_c, 0, 64, 0
2, 17539, Control_c, 0, 64, 127
2, 17630, Note_on_c, 0, 76, 80
2, 17631, Note_off_c, 0, 77, 64
2, 17675, Note_on_c, 0, 77, 80
2, 17676, Note_on_c, 0, 65, 66
2, 17680, Note_on_c, 0, 61, 63
2, 17680, Note_on_c, 0, 56, 57
2, 17680, Note_on_c, 0, 53, 58
2, 17686, Control_c, 0, 64, 0
2, 17692, Note_off_c, 0, 76, 64
2, 17709, Note_off_c, 0, 65, 64
2, 17713, Note_off_c, 0, 53, 64
2, 17713, Note_off_c, 0, 56, 64
2, 17713, Note_off_c, 0, 61, 64
2, 17746, Note_off_c, 0, 37, 64
2, 17750, Note_off_c, 0, 49, 64
2, 17885, Control_c, 0, 64, 127
2, 17892, Note_on_c, 0, 65, 58
2, 17892, Note_on_c, 0, 61, 55
2, 17892, Note_on_c, 0, 56, 50
2, 17892, Note_on_c, 0, 53, 39
2, 17898, Note_on_c, 0, 73, 83
2, 17908, Note_off_c, 0, 77, 64
2, 18006, Note_off_c, 0, 53, 64
2, 18006, Note_off_c, 0, 56, 64
2, 18006, Note_off_c, 0, 61, 64
2, 18006, Note_off_c, 0, 65, 64
2, 18091, Note_off_c, 0, 73, 64
2, 18098, Note_on_c, 0, 77, 83
2, 18104, Note_on_c, 0, 33, 69
2, 18105, Note_on_c, 0, 45, 64
2, 18114, Control_c, 0, 64, 0
2, 18170, Control_c, 0, 64, 127
2, 18308, Note_on_c, 0, 63, 64
2, 18308, Note_on_c, 0, 57, 62
2, 18308, Note_on_c, 0, 53, 58
2, 18310, Note_on_c, 0, 65, 62
2, 18324, Control_c, 0, 64, 0
2, 18341, Note_off_c, 0, 53, 64
2, 18341, Note_off_c, 0, 57, 64
2, 18341, Note_off_c, 0, 63, 64
2, 18343, Note_off_c, 0, 65, 64
2, 18377, Note_off_c, 0, 33, 64
2, 18378, Note_off_c, 0, 45, 64
2, 18383, Control_c, 0, 64, 127
2, 18406, Note_on_c, 0, 78, 73
2, 18432, Note_off_c, 0, 77, 64
2, 18505, Note_on_c, 0, 77, 77
2, 18508, Note_on_c, 0, 63, 62
2, 18508, Note_on_c, 0, 57, 56
2, 18514, Note_on_c, 0, 65, 57
2, 18514, Note_on_c, 0, 53, 48
2, 18521, Control_c, 0, 64, 0
2, 18536, Control_c, 0, 64, 127
2, 18557, Note_off_c, 0, 78, 64
2, 18593, Note_on_c, 0, 76, 85
2, 18621, Note_off_c, 0, 77, 64
2, 18622, Note_off_c, 0, 57, 64
2, 18622, Note_off_c, 0, 63, 64
2, 18628, Note_off_c, 0, 53, 64
2, 18628, Note_off_c, 0, 65, 64
2, 18707, Control_c, 0, 64, 0
2, 18710, Note_on_c, 0, 77, 77
2, 18717, Note_on_c, 0, 34, 69
2, 18723, Note_on_c, 0, 46, 78
2, 18743, Note_off_c, 0, 76, 64
2, 18762, Control_c, 0, 64, 127
2, 18783, Note_on_c, 0, 78, 58
2, 18805, Note_off_c, 0, 77, 64
2, 18860, Note_on_c, 0, 77, 69
2, 18881, Note_off_c, 0, 78, 64
2, 18912, Note_on_c, 0, 53, 64
2, 18919, Note_on_c, 0, 61, 60
2, 18922, Note_on_c, 0, 58, 56
2, 18927, Note_on_c, 0, 76, 87
2, 18933, Control_c, 0, 64, 0
2, 18940, Note_off_c, 0, 77, 64
2, 18960, Control_c, 0, 64, 127
2, 18989, Note_off_c, 0, 34, 64
2, 18994, Note_on_c, 0, 77, 71
2, 18995, Note_off_c, 0, 46, 64
2, 19025, Note_off_c, 0, 76, 64
2, 19026, Note_off_c, 0, 53, 64
2, 19033, Note_off_c, 0, 61, 64
2, 19036, Note_off_c, 0, 58, 64
2, 19051, Note_on_c, 0, 78, 79
2, 19077, Note_off_c, 0, 77, 64
2, 19123, Note_on_c, 0, 77, 67
2, 19129, Note_on_c, 0, 51, 64
2, 19130, Note_on_c, 0, 61, 66
2, 19136, Note_on_c, 0, 58, 66
2, 19137, Note_off_c, 0, 78, 64
2, 19195, Note_on_c, 0, 78, 51
2, 19221, Note_off_c, 0, 77, 64
2, 19243, Note_off_c, 0, 51, 64
2, 19244, Note_off_c, 0, 61, 64
2, 19250, Note_off_c, 0, 58, 64
2, 19260, Note_on_c, 0, 79, 87
2, 19274, Note_off_c, 0, 78, 64
2, 19335, Note_on_c, 0, 82, 78
2, 19344, Note_off_c, 0, 79, 64
2, 19358, Note_on_c, 0, 44, 74
2, 19365, Control_c, 0, 64, 0
2, 19408, Control_c, 0, 64, 127
2, 19434, Note_on_c, 0, 80, 58
2, 19447, Note_off_c, 0, 82, 64
2, 19550, Note_on_c, 0, 78, 64
2, 19552, Note_on_c, 0, 60, 59
2, 19552, Note_on_c, 0, 56, 41
2, 19554, Note_on_c, 0, 66, 63
2, 19555, Note_off_c, 0, 80, 64
2, 19567, Control_c, 0, 64, 0
2, 19585, Note_off_c, 0, 56, 64
2, 19585, Note_off_c, 0, 60, 64
2, 19587, Note_off_c, 0, 66, 64
2, 19614, Control_c, 0, 64, 127
2, 19628, Note_off_c, 0, 44, 64
2, 19644, Note_off_c, 0, 78, 64
2, 19645, Note_on_c, 0, 70, 73
2, 19745, Note_on_c, 0, 72, 66
2, 19758, Note_off_c, 0, 70, 64
2, 19768, Note_on_c, 0, 66, 58
2, 19768, Note_on_c, 0, 56, 65
2, 19774, Note_on_c, 0, 63, 29
2, 19778, Control_c, 0, 64, 0
2, 19816, Control_c, 0, 64, 127
2, 19858, Note_on_c, 0, 68, 77
2, 19872, Note_off_c, 0, 72, 64
2, 19882, Note_off_c, 0, 56, 64
2, 19882, Note_off_c, 0, 66, 64
2, 19888, Note_off_c, 0, 63, 64
2, 19968, Note_on_c, 0, 75, 52
2, 19979, Note_on_c, 0, 49, 60
2, 19992, Control_c, 0, 64, 0
2, 20025, Note_off_c, 0, 68, 64
2, 20036, Control_c, 0, 64, 127
2, 20125, Note_on_c, 0, 77, 63
2, 20146, Note_off_c, 0, 75, 64
2, 20183, Note_on_c, 0, 73, 56
2, 20196, Note_on_c, 0, 65, 43
2, 20202, Note_on_c, 0, 56, 27
2, 20206, Note_on_c, 0, 61, 29
2, 20213, Control_c, 0, 64, 0
2, 20219, Note_off_c, 0, 77, 64
2, 20248, Control_c, 0, 64, 127
2, 20462, Note_on_c, 0, 72, 60
2, 20479, Note_off_c, 0, 73, 64
2, 20621, Note_off_c, 0, 65, 64
2, 20627, Note_off_c, 0, 56, 64
2, 20631, Note_off_c, 0, 61, 64
2, 20638, Note_off_c, 0, 49, 64
2, 20742, Note_on_c, 0, 71, 66
2, 20770, Note_off_c, 0, 72, 64
2, 20785, Control_c, 0, 64, 0
2, 20830, Control_c, 0, 64, 127
2, 21024, Note_on_c, 0, 49, 25
2, 21027, Note_on_c, 0, 65, 31
2, 21036, Note_on_c, 0, 59, 25
2, 21074, Control_c, 0, 64, 0
2, 21105, Control_c, 0, 64, 127
2, 21248, Note_off_c, 0, 49, 64
2, 21251, Note_off_c, 0, 65, 64
2, 21260, Note_off_c, 0, 59, 64
2, 21273, Note_on_c, 0, 70, 57
2, 21279, Note_on_c, 0, 49, 48
2, 21282, Note_on_c, 0, 65, 34
2, 21282, Note_on_c, 0, 59, 46
2, 21295, Control_c, 0, 64, 0
2, 21296, Note_off_c, 0, 71, 64
2, 21347, Control_c, 0, 64, 127
2, 21370, Note_on_c, 0, 68, 62
2, 21408, Note_off_c, 0, 70, 64
2, 21476, Note_on_c, 0, 67, 64
2, 21491, Note_off_c, 0, 68, 64
2, 21505, Control_c, 0, 64, 0
2, 21529, Control_c, 0, 64, 127
2, 21554, Note_on_c, 0, 68, 65
2, 21591, Note_off_c, 0, 67, 64
2, 21623, Note_off_c, 0, 49, 64
2, 21626, Note_off_c, 0, 59, 64
2, 21626, Note_off_c, 0, 65, 64
2, 21670, Note_on_c, 0, 49, 48
2, 21673, Note_on_c, 0, 70, 73
2, 21673, Note_on_c, 0, 65, 40
2, 21679, Note_on_c, 0, 59, 43
2, 21685, Control_c, 0, 64, 0
2, 21699, Note_off_c, 0, 68, 64
2, 21722, Control_c, 0, 64, 127
2, 21839, Note_off_c, 0, 49, 64
2, 21842, Note_off_c, 0, 65, 64
2, 21848, Note_off_c, 0, 59, 64
2, 21881, Note_on_c, 0, 49, 50
2, 21884, Note_on_c, 0, 59, 49
2, 21887, Note_on_c, 0, 65, 19
2, 21894, Note_on_c, 0, 71, 67
2, 21904, Control_c, 0, 64, 0
2, 21913, Note_off_c, 0, 70, 64
2, 21917, Control_c, 0, 64, 127
2, 22042, Note_off_c, 0, 59, 64
2, 22045, Note_off_c, 0, 65, 64
2, 22065, Note_off_c, 0, 49, 64
2, 22088, Note_on_c, 0, 66, 48
2, 22095, Note_on_c, 0, 42, 62
2, 22116, Control_c, 0, 64, 0
2, 22128, Control_c, 0, 64, 127
2, 22229, Note_off_c, 0, 66, 64
2, 22231, Note_on_c, 0, 72, 63
2, 22252, Note_off_c, 0, 71, 64
2, 22285, Note_off_c, 0, 72, 64
2, 22288, Note_off_c, 0, 42, 64
2, 22288, Note_on_c, 0, 58, 46
2, 22296, Note_on_c, 0, 72, 64
2, 22296, Note_on_c, 0, 66, 40
2, 22300, Note_on_c, 0, 49, 46
2, 22458, Note_off_c, 0, 58, 64
2, 22466, Note_off_c, 0, 66, 64
2, 22470, Note_off_c, 0, 49, 64
2, 22510, Note_on_c, 0, 73, 69
2, 22513, Note_on_c, 0, 58, 47
2, 22517, Note_on_c, 0, 49, 50
2, 22520, Note_on_c, 0, 66, 46
2, 22533, Control_c, 0, 64, 0
2, 22535, Note_off_c, 0, 72, 64
2, 22596, Control_c, 0, 64, 127
2, 22709, Control_c, 0, 64, 0
2, 22725, Note_on_c, 0, 77, 66
2, 22748, Control_c, 0, 64, 127
2, 22749, Note_off_c, 0, 73, 64
2, 22880, Note_on_c, 0, 78, 62
2, 22885, Note_off_c, 0, 58, 64
2, 22892, Note_off_c, 0, 66, 64
2, 22895, Note_off_c, 0, 49, 64
2, 22909, Note_off_c, 0, 77, 64
2, 22928, Note_on_c, 0, 49, 52
2, 22935, Note_on_c, 0, 58, 44
2, 22941, Note_on_c, 0, 66, 53
2, 22941, Note_on_c, 0, 73, 67
2, 22952, Note_off_c, 0, 78, 64
2, 22961, Control_c, 0, 64, 0
2, 22984, Control_c, 0, 64, 127
2, 23158, Note_off_c, 0, 66, 64
2, 23168, Note_on_c, 0, 40, 54
2, 23171, Note_on_c, 0, 68, 46
2, 23190, Control_c, 0, 64, 0
2, 23200, Note_off_c, 0, 49, 64
2, 23207, Note_off_c, 0, 58, 64
2, 23224, Control_c, 0, 64, 127
2, 23414, Note_off_c, 0, 73, 64
2, 23440, Note_on_c, 0, 39, 59
2, 23445, Note_off_c, 0, 40, 64
2, 23486, Note_on_c, 0, 73, 69
2, 23502, Control_c, 0, 64, 0
2, 23545, Control_c, 0, 64, 127
2, 23796, Note_on_c, 0, 51, 44
2, 23796, Control_c, 0, 64, 0
2, 23802, Note_on_c, 0, 61, 29
2, 23806, Note_on_c, 0, 67, 58
2, 23814, Note_off_c, 0, 68, 64
2, 23822, Control_c, 0, 64, 127
2, 23869, Note_off_c, 0, 39, 64
2, 24003, Note_off_c, 0, 51, 64
2, 24009, Note_off_c, 0, 61, 64
2, 24013, Note_off_c, 0, 67, 64
2, 24034, Note_on_c, 0, 61, 42
2, 24036, Note_on_c, 0, 71, 62
2, 24041, Note_on_c, 0, 67, 39
2, 24041, Note_on_c, 0, 51, 37
2, 24054, Note_off_c, 0, 73, 64
2, 24054, Control_c, 0, 64, 0
2, 24085, Control_c, 0, 64, 127
2, 24130, Note_on_c, 0, 70, 66
2, 24160, Note_off_c, 0, 71, 64
2, 24245, Note_on_c, 0, 69, 57
2, 24258, Control_c, 0, 64, 0
2, 24261, Note_off_c, 0, 70, 64
2, 24281, Control_c, 0, 64, 127
2, 24324, Note_on_c, 0, 70, 70
2, 24350, Note_off_c, 0, 69, 64
2, 24350, Note_off_c, 0, 51, 64
2, 24356, Note_off_c, 0, 61, 64
2, 24363, Note_off_c, 0, 67, 64
2, 24428, Note_on_c, 0, 67, 45
2, 24440, Note_on_c, 0, 61, 64
2, 24440, Note_on_c, 0, 51, 64
2, 24447, Note_on_c, 0, 76, 65
2, 24453, Note_off_c, 0, 70, 64
2, 24457, Control_c, 0, 64, 0
2, 24486, Control_c, 0, 64, 127
2, 24615, Note_off_c, 0, 67, 64
2, 24627, Note_off_c, 0, 51, 64
2, 24627, Note_off_c, 0, 61, 64
2, 24644, Note_on_c, 0, 67, 45
2, 24659, Note_on_c, 0, 61, 49
2, 24659, Note_on_c, 0, 51, 56
2, 24667, Control_c, 0, 64, 0
2, 24682, Control_c, 0, 64, 127
2, 24751, Note_on_c, 0, 75, 63
2, 24774, Note_off_c, 0, 76, 64
2, 24846, Note_off_c, 0, 51, 64
2, 24846, Note_off_c, 0, 61, 64
2, 24862, Note_on_c, 0, 44, 59
2, 24866, Note_on_c, 0, 68, 61
2, 24879, Control_c, 0, 64, 0
2, 24896, Note_off_c, 0, 67, 64
2, 24912, Control_c, 0, 64, 127
2, 25006, Note_off_c, 0, 75, 64
2, 25006, Note_on_c, 0, 74, 66
2, 25030, Note_off_c, 0, 68, 64
2, 25038, Note_off_c, 0, 74, 64
2, 25052, Note_on_c, 0, 74, 69
2, 25056, Note_on_c, 0, 51, 58
2, 25060, Note_on_c, 0, 68, 45
2, 25060, Note_on_c, 0, 59, 44
2, 25073, Note_off_c, 0, 44, 64
2, 25076, Control_c, 0, 64, 0
2, 25104, Control_c, 0, 64, 127
2, 25242, Note_off_c, 0, 51, 64
2, 25253, Note_off_c, 0, 59, 64
2, 25256, Note_on_c, 0, 75, 69
2, 25261, Note_off_c, 0, 68, 64
2, 25263, Note_on_c, 0, 59, 58
2, 25263, Note_on_c, 0, 51, 58
2, 25268, Note_on_c, 0, 68, 45
2, 25280, Note_off_c, 0, 74, 64
2, 25281, Control_c, 0, 64, 0
2, 25308, Control_c, 0, 64, 127
2, 25461, Note_on_c, 0, 79, 64
2, 25491, Note_off_c, 0, 75, 64
2, 25612, Note_on_c, 0, 80, 59
2, 25630, Note_off_c, 0, 51, 64
2, 25644, Note_off_c, 0, 68, 64
2, 25650, Note_off_c, 0, 79, 64
2, 25652, Note_off_c, 0, 59, 64
2, 25660, Note_on_c, 0, 59, 50
2, 25664, Note_on_c, 0, 51, 64
2, 25667, Note_on_c, 0, 75, 67
2, 25674, Note_off_c, 0, 80, 64
2, 25675, Note_on_c, 0, 68, 61
2, 25687, Control_c, 0, 64, 0
2, 25730, Control_c, 0, 64, 127
2, 25867, Note_off_c, 0, 59, 64
2, 25877, Note_on_c, 0, 56, 59
2, 25884, Note_on_c, 0, 59, 50
2, 25884, Note_on_c, 0, 66, 61
2, 25893, Control_c, 0, 64, 0
2, 25905, Note_off_c, 0, 51, 64
2, 25906, Control_c, 0, 64, 127
2, 25916, Note_off_c, 0, 68, 64
2, 26080, Note_on_c, 0, 37, 67
2, 26084, Note_on_c, 0, 65, 73
2, 26101, Note_off_c, 0, 66, 64
2, 26118, Note_off_c, 0, 56, 64
2, 26125, Note_off_c, 0, 59, 64
2, 26159, Note_off_c, 0, 75, 64
2, 26211, Note_on_c, 0, 73, 49
2, 26242, Note_off_c, 0, 65, 64
2, 26299, Note_on_c, 0, 77, 69
2, 26306, Note_on_c, 0, 61, 58
2, 26307, Note_on_c, 0, 59, 56
2, 26310, Note_on_c, 0, 65, 62
2, 26316, Note_off_c, 0, 73, 64
2, 26317, Control_c, 0, 64, 0
2, 26372, Control_c, 0, 64, 127
2, 26382, Note_off_c, 0, 37, 64
2, 26509, Control_c, 0, 64, 0
2, 26515, Note_on_c, 0, 83, 59
2, 26519, Note_on_c, 0, 71, 56
2, 26527, Control_c, 0, 64, 127
2, 26549, Note_off_c, 0, 77, 64
2, 26731, Note_off_c, 0, 65, 64
2, 26732, Note_on_c, 0, 82, 62
2, 26739, Note_on_c, 0, 70, 55
2, 26754, Note_off_c, 0, 83, 64
2, 26758, Note_off_c, 0, 71, 64
2, 26827, Note_on_c, 0, 80, 58
2, 26829, Note_on_c, 0, 68, 62
2, 26861, Note_off_c, 0, 82, 64
2, 26868, Note_off_c, 0, 70, 64
2, 26893, Note_off_c, 0, 61, 64
2, 26911, Note_off_c, 0, 59, 64
2, 26934, Note_on_c, 0, 77, 62
2, 26941, Note_off_c, 0, 68, 64
2, 26941, Note_on_c, 0, 65, 55
2, 26944, Note_off_c, 0, 80, 64
2, 26950, Control_c, 0, 64, 0
2, 26981, Control_c, 0, 64, 127
2, 27131, Note_off_c, 0, 65, 64
2, 27132, Note_on_c, 0, 73, 67
2, 27138, Note_on_c, 0, 61, 49
2, 27147, Note_off_c, 0, 77, 64
2, 27343, Note_on_c, 0, 71, 69
2, 27348, Note_on_c, 0, 37, 66
2, 27355, Note_off_c, 0, 73, 64
2, 27361, Note_off_c, 0, 61, 64
2, 27367, Control_c, 0, 64, 0
2, 27399, Control_c, 0, 64, 127
2, 27444, Note_on_c, 0, 73, 63
2, 27462, Note_off_c, 0, 71, 64
2, 27544, Note_on_c, 0, 59, 39
2, 27544, Note_on_c, 0, 65, 58
2, 27549, Note_on_c, 0, 77, 66
2, 27552, Note_on_c, 0, 61, 42
2, 27567, Note_off_c, 0, 73, 64
2, 27574, Control_c, 0, 64, 0
2, 27608, Control_c, 0, 64, 127
2, 27621, Note_off_c, 0, 37, 64
2, 27744, Note_on_c, 0, 82, 64
2, 27751, Note_on_c, 0, 70, 59
2, 27782, Note_off_c, 0, 77, 64
2, 27917, Note_off_c, 0, 65, 64
2, 27917, Note_off_c, 0, 59, 64
2, 27925, Note_off_c, 0, 61, 64
2, 27944, Note_on_c, 0, 80, 65
2, 27948, Note_on_c, 0, 68, 54
2, 27952, Note_on_c, 0, 58, 52
2, 27958, Note_off_c, 0, 82, 64
2, 27960, Note_on_c, 0, 61, 27
2, 27965, Note_off_c, 0, 70, 64
2, 27971, Control_c, 0, 64, 0
2, 28015, Control_c, 0, 64, 127
2, 28048, Note_on_c, 0, 66, 21
2, 28053, Note_on_c, 0, 78, 41
2, 28092, Note_off_c, 0, 80, 64
2, 28096, Note_off_c, 0, 68, 64
2, 28137, Note_off_c, 0, 61, 64
2, 28141, Note_off_c, 0, 58, 64
2, 28152, Note_on_c, 0, 73, 43
2, 28159, Note_on_c, 0, 61, 46
2, 28168, Control_c, 0, 64, 0
2, 28179, Note_off_c, 0, 66, 64
2, 28184, Note_off_c, 0, 78, 64
2, 28211, Control_c, 0, 64, 127
2, 28349, Note_on_c, 0, 75, 47
2, 28352, Note_on_c, 0, 63, 36
2, 28373, Note_off_c, 0, 73, 64
2, 28380, Note_off_c, 0, 61, 64
2, 28393, Note_off_c, 0, 63, 64
2, 28475, Note_on_c, 0, 70, 50
2, 28511, Note_off_c, 0, 75, 64
2, 28548, Note_on_c, 0, 71, 73
2, 28554, Note_on_c, 0, 37, 64
2, 28567, Control_c, 0, 64, 0
2, 28578, Note_off_c, 0, 70, 64
2, 28598, Control_c, 0, 64, 127
2, 28663, Note_on_c, 0, 73, 63
2, 28691, Note_off_c, 0, 71, 64
2, 28763, Note_on_c, 0, 77, 64
2, 28767, Note_off_c, 0, 73, 64
2, 28768, Note_on_c, 0, 59, 50
2, 28768, Note_on_c, 0, 61, 50
2, 28771, Note_on_c, 0, 65, 58
2, 28781, Control_c, 0, 64, 0
2, 28835, Control_c, 0, 64, 127
2, 28968, Note_on_c, 0, 83, 58
2, 28976, Note_off_c, 0, 77, 64
2, 28978, Note_on_c, 0, 71, 49
2, 29063, Note_off_c, 0, 37, 64
2, 29172, Note_on_c, 0, 82, 56
2, 29174, Note_on_c, 0, 70, 62
2, 29192, Note_off_c, 0, 83, 64
2, 29202, Note_off_c, 0, 71, 64
2, 29203, Control_c, 0, 64, 0
2, 29249, Control_c, 0, 64, 127
2, 29328, Note_on_c, 0, 80, 56
2, 29336, Note_on_c, 0, 68, 44
2, 29356, Note_off_c, 0, 65, 64
2, 29357, Note_off_c, 0, 82, 64
2, 29359, Note_off_c, 0, 70, 64
2, 29367, Note_off_c, 0, 61, 64
2, 29367, Note_off_c, 0, 59, 64
2, 29393, Note_on_c, 0, 75, 62
2, 29399, Note_on_c, 0, 63, 47
2, 29406, Control_c, 0, 64, 0
2, 29411, Note_off_c, 0, 80, 64
2, 29419, Note_off_c, 0, 68, 64
2, 29441, Control_c, 0, 64, 127
2, 29595, Note_on_c, 0, 80, 54
2, 29604, Note_on_c, 0, 68, 50
2, 29622, Note_off_c, 0, 75, 64
2, 29628, Note_off_c, 0, 63, 64
2, 29632, Control_c, 0, 64, 0
2, 29667, Control_c, 0, 64, 127
2, 29760, Note_on_c, 0, 78, 50
2, 29768, Note_off_c, 0, 80, 64
2, 29769, Note_on_c, 0, 66, 42
2, 29772, Note_off_c, 0, 68, 64
2, 29808, Note_on_c, 0, 73, 58
2, 29827, Note_on_c, 0, 61, 49
2, 29832, Note_off_c, 0, 78, 64
2, 29835, Control_c, 0, 64, 0
2, 29841, Note_off_c, 0, 66, 64
2, 29870, Control_c, 0, 64, 127
2, 30033, Note_on_c, 0, 66, 32
2, 30034, Note_on_c, 0, 78, 51
2, 30038, Note_off_c, 0, 73, 64
2, 30057, Note_off_c, 0, 61, 64
2, 30060, Control_c, 0, 64, 0
2, 30095, Control_c, 0, 64, 127
2, 30200, Note_on_c, 0, 65, 40
2, 30207, Note_on_c, 0, 77, 48
2, 30228, Note_off_c, 0, 66, 64
2, 30229, Note_off_c, 0, 78, 64
2, 30272, Note_on_c, 0, 59, 32
2, 30277, Note_on_c, 0, 71, 32
2, 30277, Control_c, 0, 64, 0
2, 30286, Note_off_c, 0, 65, 64
2, 30293, Note_off_c, 0, 77, 64
2, 30318, Control_c, 0, 64, 127
2, 30527, Note_on_c, 0, 77, 46
2, 30527, Note_on_c, 0, 65, 33
2, 30546, Note_off_c, 0, 59, 64
2, 30551, Note_off_c, 0, 71, 64
2, 30551, Control_c, 0, 64, 0
2, 30613, Control_c, 0, 64, 127
2, 30639, Note_on_c, 0, 75, 46
2, 30648, Note_off_c, 0, 77, 64
2, 30653, Note_on_c, 0, 63, 33
2, 30678, Note_off_c, 0, 65, 64
2, 30752, Note_on_c, 0, 61, 20
2, 30760, Note_on_c, 0, 73, 50
2, 30770, Control_c, 0, 64, 0
2, 30777, Note_off_c, 0, 63, 64
2, 30784, Note_off_c, 0, 75, 64
2, 30807, Control_c, 0, 64, 127
2, 31000, Note_on_c, 0, 71, 37
2, 31006, Note_on_c, 0, 59, 28
2, 31028, Note_off_c, 0, 61, 64
2, 31036, Note_off_c, 0, 73, 64
2, 31221, Note_on_c, 0, 70, 56
2, 31221, Control_c, 0, 64, 0
2, 31229, Note_on_c, 0, 58, 36
2, 31242, Note_off_c, 0, 71, 64
2, 31251, Note_off_c, 0, 59, 64
2, 31265, Control_c, 0, 64, 127
2, 31347, Note_off_c, 0, 70, 64
2, 31376, Note_off_c, 0, 58, 64
2, 31402, Note_on_c, 0, 70, 54
2, 31441, Note_on_c, 0, 42, 56
2, 31447, Note_on_c, 0, 58, 52
2, 31451, Note_on_c, 0, 61, 57
2, 31463, Control_c, 0, 64, 0
2, 31502, Note_off_c, 0, 70, 64
2, 31516, Control_c, 0, 64, 127
2, 31638, Control_c, 0, 64, 0
2, 31648, Note_off_c, 0, 58, 64
2, 31652, Note_off_c, 0, 61, 64
2, 31668, Note_on_c, 0, 49, 39
2, 31668, Note_on_c, 0, 70, 62
2, 31671, Note_on_c, 0, 58, 44
2, 31673, Note_on_c, 0, 54, 25
2, 31675, Note_on_c, 0, 61, 48
2, 31681, Control_c, 0, 64, 127
2, 31687, Control_c, 0, 64, 0
2, 31880, Note_off_c, 0, 42, 64
2, 31883, Note_on_c, 0, 41, 55
2, 31910, Control_c, 0, 64, 0
2, 31918, Note_off_c, 0, 49, 64
2, 31923, Note_off_c, 0, 54, 64
2, 31939, Note_off_c, 0, 58, 64
2, 31969, Control_c, 0, 64, 127
2, 31974, Note_on_c, 0, 68, 48
2, 31978, Note_off_c, 0, 70, 64
2, 31980, Note_on_c, 0, 56, 48
2, 32052, Note_on_c, 0, 70, 47
2, 32062, Note_off_c, 0, 68, 64
2, 32068, Note_off_c, 0, 56, 64
2, 32068, Note_on_c, 0, 49, 43
2, 32076, Note_on_c, 0, 56, 47
2, 32083, Note_on_c, 0, 68, 54
2, 32118, Note_off_c, 0, 70, 64
2, 32180, Note_on_c, 0, 67, 57
2, 32188, Note_on_c, 0, 55, 57
2, 32236, Note_off_c, 0, 56, 64
2, 32243, Note_off_c, 0, 68, 64
2, 32278, Note_off_c, 0, 41, 64
2, 32289, Note_on_c, 0, 68, 54
2, 32292, Note_on_c, 0, 56, 57
2, 32314, Note_off_c, 0, 67, 64
2, 32316, Note_on_c, 0, 41, 50
2, 32322, Note_off_c, 0, 55, 64
2, 32325, Control_c, 0, 64, 0
2, 32351, Control_c, 0, 64, 127
2, 32497, Note_off_c, 0, 61, 64
2, 32508, Note_on_c, 0, 60, 47
2, 32512, Note_on_c, 0, 39, 47
2, 32512, Note_on_c, 0, 66, 59
2, 32524, Control_c, 0, 64, 0
2, 32529, Note_off_c, 0, 41, 64
2, 32565, Note_off_c, 0, 68, 64
2, 32568, Note_off_c, 0, 56, 64
2, 32573, Control_c, 0, 64, 127
2, 32578, Note_off_c, 0, 49, 64
2, 32597, Note_off_c, 0, 60, 64
2, 32601, Note_off_c, 0, 66, 64
2, 32656, Note_on_c, 0, 66, 44
2, 32656, Note_on_c, 0, 60, 55
2, 32698, Note_on_c, 0, 56, 62
2, 32708, Note_on_c, 0, 44, 27
2, 32712, Note_on_c, 0, 51, 34
2, 32720, Control_c, 0, 64, 0
2, 32750, Note_off_c, 0, 60, 64
2, 32750, Note_off_c, 0, 66, 64
2, 32764, Control_c, 0, 64, 127
2, 32901, Note_off_c, 0, 39, 64
2, 32920, Note_on_c, 0, 66, 56
2, 32926, Note_on_c, 0, 39, 49
2, 32928, Note_on_c, 0, 60, 55
2, 32937, Control_c, 0, 64, 0
2, 32970, Note_off_c, 0, 51, 64
2, 32983, Control_c, 0, 64, 127
2, 33124, Note_on_c, 0, 61, 55
2, 33126, Note_on_c, 0, 37, 52
2, 33134, Control_c, 0, 64, 0
2, 33147, Note_off_c, 0, 39, 64
2, 33152, Note_off_c, 0, 60, 64
2, 33153, Note_off_c, 0, 44, 64
2, 33179, Control_c, 0, 64, 127
2, 33234, Note_on_c, 0, 65, 31
2, 33251, Note_off_c, 0, 66, 64
2, 33304, Note_on_c, 0, 66, 59
2, 33313, Note_off_c, 0, 65, 64
2, 33324, Note_on_c, 0, 49, 27
2, 33324, Note_on_c, 0, 44, 39
2, 33328, Note_on_c, 0, 65, 55
2, 33333, Control_c, 0, 64, 0
2, 33335, Note_off_c, 0, 61, 64
2, 33353, Note_off_c, 0, 66, 64
2, 33373, Control_c, 0, 64, 127
2, 33427, Note_on_c, 0, 64, 57
2, 33446, Note_off_c, 0, 65, 64
2, 33513, Note_off_c, 0, 37, 64
2, 33514, Note_off_c, 0, 56, 64
2, 33525, Note_off_c, 0, 64, 64
2, 33540, Note_on_c, 0, 65, 46
2, 33542, Note_on_c, 0, 37, 50
2, 33546, Note_on_c, 0, 56, 51
2, 33556, Control_c, 0, 64, 0
2, 33564, Note_off_c, 0, 44, 64
2, 33564, Note_off_c, 0, 49, 64
2, 33589, Control_c, 0, 64, 127
2, 33746, Note_off_c, 0, 65, 64
2, 33748, Note_on_c, 0, 61, 46
2, 33748, Note_on_c, 0, 57, 54
2, 33752, Note_on_c, 0, 42, 46
2, 33756, Note_off_c, 0, 56, 64
2, 33763, Note_off_c, 0, 37, 64
2, 33765, Control_c, 0, 64, 0
2, 33810, Control_c, 0, 64, 127
2, 33893, Note_on_c, 0, 63, 44
2, 33904, Note_off_c, 0, 57, 64
2, 33904, Note_off_c, 0, 61, 64
2, 33917, Note_off_c, 0, 63, 64
2, 33944, Note_on_c, 0, 54, 49
2, 33948, Note_on_c, 0, 57, 55
2, 33951, Note_on_c, 0, 63, 69
2, 33951, Note_on_c, 0, 49, 46
2, 33967, Control_c, 0, 64, 0
2, 33998, Control_c, 0, 64, 127
2, 34066, Note_off_c, 0, 42, 64
2, 34088, Note_on_c, 0, 61, 64
2, 34092, Note_off_c, 0, 63, 64
2, 34104, Note_off_c, 0, 57, 64
2, 34118, Note_off_c, 0, 61, 64
2, 34148, Note_on_c, 0, 61, 66
2, 34148, Note_on_c, 0, 42, 55
2, 34156, Note_on_c, 0, 57, 58
2, 34158, Control_c, 0, 64, 0
2, 34170, Note_off_c, 0, 54, 64
2, 34193, Control_c, 0, 64, 127
2, 34285, Note_on_c, 0, 63, 59
2, 34300, Note_off_c, 0, 61, 64
2, 34312, Note_off_c, 0, 57, 64
2, 34317, Note_off_c, 0, 63, 64
2, 34326, Note_off_c, 0, 49, 64
2, 34328, Note_on_c, 0, 44, 58
2, 34340, Note_on_c, 0, 61, 69
2, 34340, Note_on_c, 0, 56, 49
2, 34340, Note_on_c, 0, 49, 54
2, 34344, Note_on_c, 0, 63, 69
2, 34358, Note_off_c, 0, 42, 64
2, 34366, Control_c, 0, 64, 0
2, 34400, Control_c, 0, 64, 127
2, 34481, Note_on_c, 0, 65, 55
2, 34487, Note_off_c, 0, 49, 64
2, 34487, Note_off_c, 0, 56, 64
2, 34487, Note_off_c, 0, 61, 64
2, 34491, Note_off_c, 0, 63, 64
2, 34518, Note_off_c, 0, 65, 64
2, 34541, Note_on_c, 0, 56, 56
2, 34543, Note_on_c, 0, 65, 65
2, 34547, Note_on_c, 0, 49, 42
2, 34548, Note_on_c, 0, 61, 65
2, 34564, Control_c, 0, 64, 0
2, 34579, Control_c, 0, 64, 127
2, 34649, Note_off_c, 0, 65, 64
2, 34677, Note_on_c, 0, 66, 69
2, 34708, Note_off_c, 0, 61, 64
2, 34723, Note_off_c, 0, 66, 64
2, 34731, Control_c, 0, 64, 0
2, 34737, Note_on_c, 0, 66, 69
2, 34777, Control_c, 0, 64, 127
2, 34789, Note_off_c, 0, 44, 64
2, 34795, Note_off_c, 0, 56, 64
2, 34801, Note_off_c, 0, 49, 64
2, 34864, Note_on_c, 0, 67, 58
2, 34881, Note_off_c, 0, 66, 64
2, 34919, Note_off_c, 0, 67, 64
2, 34935, Note_on_c, 0, 32, 78
2, 34950, Control_c, 0, 64, 0
2, 34956, Note_on_c, 0, 67, 66
2, 34965, Control_c, 0, 64, 127
2, 35084, Control_c, 0, 64, 0
2, 35101, Note_on_c, 0, 68, 59
2, 35107, Note_off_c, 0, 67, 64
2, 35140, Note_on_c, 0, 63, 44
2, 35140, Note_on_c, 0, 60, 65
2, 35145, Note_on_c, 0, 56, 44
2, 35146, Note_on_c, 0, 51, 46
2, 35195, Note_off_c, 0, 68, 64
2, 35205, Note_on_c, 0, 68, 74
2, 35218, Note_off_c, 0, 32, 64
2, 35233, Note_off_c, 0, 63, 64
2, 35242, Note_off_c, 0, 56, 64
2, 35244, Note_on_c, 0, 70, 73
2, 35248, Note_off_c, 0, 51, 64
2, 35253, Note_off_c, 0, 68, 64
2, 35254, Note_off_c, 0, 60, 64
2, 35284, Note_on_c, 0, 68, 70
2, 35307, Note_off_c, 0, 70, 64
2, 35332, Note_on_c, 0, 63, 50
2, 35335, Note_on_c, 0, 56, 50
2, 35338, Note_on_c, 0, 60, 51
2, 35338, Note_on_c, 0, 51, 51
2, 35340, Note_on_c, 0, 66, 62
2, 35346, Note_on_c, 0, 67, 69
2, 35356, Control_c, 0, 64, 0
2, 35366, Note_off_c, 0, 68, 64
2, 35388, Control_c, 0, 64, 127
2, 35446, Note_off_c, 0, 63, 64
2, 35447, Note_on_c, 0, 68, 69
2, 35449, Note_off_c, 0, 56, 64
2, 35452, Note_off_c, 0, 51, 64
2, 35452, Note_off_c, 0, 60, 64
2, 35454, Note_off_c, 0, 66, 64
2, 35461, Note_off_c, 0, 67, 64
2, 35549, Note_on_c, 0, 75, 69
2, 35554, Note_on_c, 0, 37, 69
2, 35559, Note_on_c, 0, 49, 58
2, 35559, Control_c, 0, 64, 0
2, 35578, Note_off_c, 0, 68, 64
2, 35608, Control_c, 0, 64, 127
2, 35698, Note_on_c, 0, 77, 62
2, 35706, Note_off_c, 0, 75, 64
2, 35748, Note_on_c, 0, 61, 55
2, 35748, Note_on_c, 0, 56, 48
2, 35750, Note_on_c, 0, 73, 78
2, 35751, Note_on_c, 0, 65, 73
2, 35757, Note_off_c, 0, 77, 64
2, 35774, Control_c, 0, 64, 0
2, 35817, Control_c, 0, 64, 127
2, 35832, Note_off_c, 0, 37, 64
2, 35834, Note_off_c, 0, 49, 64
2, 35862, Note_off_c, 0, 56, 64
2, 35862, Note_off_c, 0, 61, 64
2, 35948, Note_on_c, 0, 49, 62
2, 36049, Note_on_c, 0, 72, 64
2, 36070, Note_off_c, 0, 73, 64
2, 36081, Note_off_c, 0, 65, 64
2, 36156, Note_on_c, 0, 66, 54
2, 36160, Note_on_c, 0, 70, 59
2, 36166, Note_on_c, 0, 42, 56
2, 36180, Note_off_c, 0, 72, 64
2, 36184, Control_c, 0, 64, 0
2, 36206, Note_off_c, 0, 66, 64
2, 36210, Note_off_c, 0, 70, 64
2, 36304, Note_on_c, 0, 70, 59
2, 36308, Note_on_c, 0, 66, 54
2, 36335, Note_off_c, 0, 49, 64
2, 36356, Note_on_c, 0, 49, 36
2, 36360, Note_on_c, 0, 61, 58
2, 36364, Note_on_c, 0, 54, 42
2, 36364, Note_on_c, 0, 58, 58
2, 36388, Control_c, 0, 64, 127
2, 36404, Note_off_c, 0, 70, 64
2, 36408, Note_off_c, 0, 66, 64
2, 36539, Note_off_c, 0, 42, 64
2, 36545, Note_off_c, 0, 54, 64
2, 36551, Note_off_c, 0, 58, 64
2, 36563, Control_c, 0, 64, 0
2, 36572, Note_on_c, 0, 58, 58
2, 36575, Note_on_c, 0, 70, 58
2, 36575, Note_on_c, 0, 42, 52
2, 36625, Control_c, 0, 64, 127
2, 36765, Note_on_c, 0, 41, 57
2, 36773, Control_c, 0, 64, 0
2, 36799, Note_off_c, 0, 42, 64
2, 36841, Control_c, 0, 64, 127
2, 36863, Note_on_c, 0, 68, 49
2, 36865, Note_on_c, 0, 56, 57
2, 36886, Note_off_c, 0, 58, 64
2, 36889, Note_off_c, 0, 70, 64
2, 36924, Note_off_c, 0, 49, 64
2, 36944, Note_off_c, 0, 56, 64
2, 36945, Note_on_c, 0, 70, 56
2, 36952, Note_off_c, 0, 68, 64
2, 36962, Control_c, 0, 64, 0
2, 36971, Note_on_c, 0, 68, 56
2, 36971, Note_on_c, 0, 56, 55
2, 36971, Note_on_c, 0, 53, 49
2, 36971, Note_on_c, 0, 49, 55
2, 36998, Note_off_c, 0, 70, 64
2, 37031, Control_c, 0, 64, 127
2, 37060, Note_on_c, 0, 55, 52
2, 37070, Note_on_c, 0, 67, 52
2, 37081, Note_off_c, 0, 56, 64
2, 37081, Note_off_c, 0, 68, 64
2, 37089, Note_off_c, 0, 53, 64
2, 37099, Note_off_c, 0, 41, 64
2, 37164, Note_on_c, 0, 56, 58
2, 37168, Note_on_c, 0, 68, 62
2, 37168, Note_on_c, 0, 41, 57
2, 37172, Note_off_c, 0, 55, 64
2, 37174, Control_c, 0, 64, 0
2, 37182, Note_off_c, 0, 67, 64
2, 37218, Control_c, 0, 64, 127
2, 37302, Note_off_c, 0, 61, 64
2, 37303, Note_off_c, 0, 49, 64
2, 37352, Note_on_c, 0, 66, 57
2, 37355, Note_on_c, 0, 39, 56
2, 37356, Note_on_c, 0, 60, 44
2, 37362, Note_off_c, 0, 41, 64
2, 37363, Note_off_c, 0, 56, 64
2, 37364, Control_c, 0, 64, 0
2, 37367, Note_off_c, 0, 68, 64
2, 37400, Note_off_c, 0, 66, 64
2, 37404, Note_off_c, 0, 60, 64
2, 37496, Note_on_c, 0, 66, 59
2, 37496, Note_on_c, 0, 60, 41
2, 37556, Note_on_c, 0, 56, 58
2, 37558, Note_on_c, 0, 51, 59
2, 37558, Note_on_c, 0, 44, 58
2, 37570, Control_c, 0, 64, 127
2, 37581, Note_off_c, 0, 60, 64
2, 37581, Note_off_c, 0, 66, 64
2, 37733, Note_off_c, 0, 39, 64
2, 37763, Note_on_c, 0, 66, 57
2, 37770, Note_on_c, 0, 60, 52
2, 37771, Note_on_c, 0, 39, 49
2, 37783, Control_c, 0, 64, 0
2, 37816, Note_off_c, 0, 51, 64
2, 37837, Control_c, 0, 64, 127
2, 37961, Note_on_c, 0, 37, 62
2, 37970, Control_c, 0, 64, 0
2, 37977, Note_on_c, 0, 61, 56
2, 37980, Note_off_c, 0, 39, 64
2, 37997, Note_off_c, 0, 60, 64
2, 38026, Control_c, 0, 64, 127
2, 38100, Note_on_c, 0, 65, 49
2, 38114, Note_off_c, 0, 66, 64
2, 38128, Note_off_c, 0, 44, 64
2, 38133, Note_on_c, 0, 66, 55
2, 38149, Note_off_c, 0, 65, 64
2, 38157, Note_on_c, 0, 49, 62
2, 38157, Note_on_c, 0, 65, 57
2, 38157, Note_on_c, 0, 44, 56
2, 38179, Control_c, 0, 64, 0
2, 38189, Note_off_c, 0, 66, 64
2, 38225, Control_c, 0, 64, 127
2, 38239, Note_off_c, 0, 61, 64
2, 38296, Note_on_c, 0, 64, 57
2, 38310, Note_off_c, 0, 65, 64
2, 38346, Note_off_c, 0, 37, 64
2, 38348, Note_off_c, 0, 56, 64
2, 38356, Note_on_c, 0, 56, 62
2, 38366, Note_on_c, 0, 65, 64
2, 38367, Note_on_c, 0, 37, 56
2, 38382, Control_c, 0, 64, 0
2, 38386, Note_off_c, 0, 64, 64
2, 38386, Note_off_c, 0, 44, 64
2, 38426, Control_c, 0, 64, 127
2, 38573, Note_off_c, 0, 65, 64
2, 38578, Note_on_c, 0, 57, 44
2, 38579, Note_on_c, 0, 42, 46
2, 38582, Note_on_c, 0, 61, 46
2, 38595, Note_off_c, 0, 56, 64
2, 38596, Control_c, 0, 64, 0
2, 38598, Note_off_c, 0, 37, 64
2, 38651, Control_c, 0, 64, 127
2, 38725, Note_on_c, 0, 63, 51
2, 38730, Note_off_c, 0, 61, 64
2, 38741, Note_off_c, 0, 49, 64
2, 38745, Note_off_c, 0, 57, 64
2, 38756, Note_off_c, 0, 63, 64
2, 38771, Note_on_c, 0, 57, 52
2, 38778, Note_on_c, 0, 54, 41
2, 38779, Note_on_c, 0, 63, 55
2, 38779, Note_on_c, 0, 49, 46
2, 38786, Control_c, 0, 64, 0
2, 38828, Control_c, 0, 64, 127
2, 38896, Note_off_c, 0, 42, 64
2, 38916, Note_on_c, 0, 61, 63
2, 38919, Note_off_c, 0, 63, 64
2, 38940, Note_off_c, 0, 57, 64
2, 38952, Note_off_c, 0, 61, 64
2, 38964, Note_on_c, 0, 42, 52
2, 38966, Note_on_c, 0, 61, 65
2, 38966, Note_on_c, 0, 57, 50
2, 38978, Control_c, 0, 64, 0
2, 39010, Note_off_c, 0, 54, 64
2, 39014, Control_c, 0, 64, 127
2, 39096, Note_on_c, 0, 63, 54
2, 39119, Note_off_c, 0, 61, 64
2, 39120, Note_off_c, 0, 63, 64
2, 39120, Note_off_c, 0, 57, 64
2, 39120, Note_off_c, 0, 42, 64
2, 39154, Note_on_c, 0, 44, 56
2, 39156, Note_on_c, 0, 63, 67
2, 39156, Note_on_c, 0, 61, 67
2, 39158, Note_on_c, 0, 56, 49
2, 39201, Control_c, 0, 64, 0
2, 39240, Control_c, 0, 64, 127
2, 39294, Note_off_c, 0, 63, 64
2, 39304, Note_off_c, 0, 44, 64
2, 39307, Note_off_c, 0, 49, 64
2, 39313, Note_on_c, 0, 65, 54
2, 39318, Note_off_c, 0, 56, 64
2, 39319, Note_off_c, 0, 61, 64
2, 39352, Note_off_c, 0, 65, 64
2, 39360, Note_on_c, 0, 49, 39
2, 39364, Note_on_c, 0, 65, 63
2, 39364, Note_on_c, 0, 61, 65
2, 39364, Note_on_c, 0, 56, 49
2, 39372, Control_c, 0, 64, 0
2, 39417, Control_c, 0, 64, 127
2, 39442, Note_off_c, 0, 65, 64
2, 39510, Note_on_c, 0, 66, 63
2, 39548, Note_off_c, 0, 66, 64
2, 39567, Note_off_c, 0, 49, 64
2, 39570, Note_on_c, 0, 66, 60
2, 39570, Note_on_c, 0, 44, 77
2, 39571, Note_off_c, 0, 56, 64
2, 39572, Control_c, 0, 64, 127
2, 39721, Note_on_c, 0, 67, 59
2, 39729, Note_off_c, 0, 66, 64
2, 39759, Note_off_c, 0, 67, 64
2, 39770, Note_on_c, 0, 67, 60
2, 39775, Note_on_c, 0, 32, 79
2, 39780, Note_off_c, 0, 44, 64
2, 39784, Control_c, 0, 64, 0
2, 39819, Control_c, 0, 64, 127
2, 39910, Note_off_c, 0, 61, 64
2, 39925, Note_on_c, 0, 68, 69
2, 39931, Note_off_c, 0, 67, 64
2, 39954, Note_off_c, 0, 68, 64
2, 39984, Note_on_c, 0, 60, 64
2, 39984, Note_on_c, 0, 63, 59
2, 39984, Note_on_c, 0, 66, 69
2, 39986, Note_on_c, 0, 56, 55
2, 39987, Note_on_c, 0, 51, 56
2, 39987, Note_on_c, 0, 68, 62
2, 39996, Control_c, 0, 64, 0
2, 40023, Control_c, 0, 64, 127
2, 40137, Note_on_c, 0, 69, 58
2, 40151, Note_off_c, 0, 68, 64
2, 40171, Note_off_c, 0, 69, 64
2, 40203, Note_on_c, 0, 69, 64
2, 40344, Note_on_c, 0, 70, 50
2, 40352, Note_off_c, 0, 69, 64
2, 40397, Note_off_c, 0, 70, 64
2, 40420, Note_on_c, 0, 70, 57
2, 40531, Note_off_c, 0, 32, 64
2, 40568, Note_on_c, 0, 71, 43
2, 40570, Note_off_c, 0, 66, 64
2, 40570, Note_off_c, 0, 63, 64
2, 40570, Note_off_c, 0, 60, 64
2, 40572, Note_off_c, 0, 56, 64
2, 40573, Note_off_c, 0, 51, 64
2, 40581, Note_off_c, 0, 70, 64
2, 40621, Note_off_c, 0, 71, 64
2, 40656, Note_on_c, 0, 71, 56
2, 40763, Control_c, 0, 64, 0
2, 40788, Control_c, 0, 64, 127
2, 40840, Note_on_c, 0, 72, 58
2, 40850, Note_off_c, 0, 71, 64
2, 40893, Note_off_c, 0, 72, 64
2, 40922, Note_on_c, 0, 72, 56
2, 41084, Note_on_c, 0, 73, 48
2, 41101, Note_off_c, 0, 72, 64
2, 41145, Note_off_c, 0, 73, 64
2, 41178, Note_on_c, 0, 45, 42
2, 41181, Note_on_c, 0, 73, 49
2, 41182, Note_on_c, 0, 61, 27
2, 41189, Note_on_c, 0, 52, 36
2, 41189, Note_on_c, 0, 64, 39
2, 41233, Control_c, 0, 64, 0
2, 41296, Note_on_c, 0, 57, 39
2, 41301, Note_off_c, 0, 52, 64
2, 41308, Control_c, 0, 64, 127
2, 41322, Control_c, 0, 64, 0
2, 41397, Note_on_c, 0, 56, 57
2, 41454, Note_off_c, 0, 57, 64
2, 41590, Control_c, 0, 64, 127
2, 41598, Note_on_c, 0, 54, 37
2, 41623, Note_off_c, 0, 56, 64
2, 41659, Note_off_c, 0, 64, 64
2, 41670, Note_off_c, 0, 61, 64
2, 41672, Note_off_c, 0, 73, 64
2, 41832, Note_on_c, 0, 52, 44
2, 41832, Note_on_c, 0, 64, 52
2, 41838, Note_on_c, 0, 61, 48
2, 41838, Note_on_c, 0, 73, 35
2, 41859, Note_off_c, 0, 54, 64
2, 41874, Control_c, 0, 64, 0
2, 41933, Note_on_c, 0, 69, 54
2, 41982, Note_off_c, 0, 64, 64
2, 42057, Note_on_c, 0, 68, 62
2, 42083, Note_off_c, 0, 69, 64
2, 42123, Control_c, 0, 64, 127
2, 42273, Note_on_c, 0, 66, 44
2, 42289, Note_off_c, 0, 45, 64
2, 42292, Note_off_c, 0, 68, 64
2, 42297, Note_off_c, 0, 52, 64
2, 42424, Note_off_c, 0, 73, 64
2, 42424, Note_off_c, 0, 61, 64
2, 42473, Note_on_c, 0, 45, 39
2, 42476, Note_on_c, 0, 64, 50
2, 42480, Note_on_c, 0, 73, 40
2, 42482, Note_on_c, 0, 52, 35
2, 42488, Note_off_c, 0, 66, 64
2, 42513, Control_c, 0, 64, 0
2, 42581, Note_on_c, 0, 61, 54
2, 42630, Note_off_c, 0, 64, 64
2, 42690, Note_on_c, 0, 57, 51
2, 42695, Control_c, 0, 64, 127
2, 42774, Note_off_c, 0, 61, 64
2, 42895, Note_on_c, 0, 59, 50
2, 42911, Control_c, 0, 64, 0
2, 42917, Note_off_c, 0, 57, 64
2, 42924, Control_c, 0, 64, 127
2, 42987, Note_off_c, 0, 73, 64
2, 43122, Note_on_c, 0, 61, 49
2, 43131, Note_on_c, 0, 73, 49
2, 43147, Note_off_c, 0, 59, 64
2, 43174, Control_c, 0, 64, 0
2, 43238, Control_c, 0, 64, 127
2, 43243, Note_on_c, 0, 62, 51
2, 43255, Note_off_c, 0, 61, 64
2, 43354, Control_c, 0, 64, 0
2, 43366, Note_on_c, 0, 64, 47
2, 43380, Control_c, 0, 64, 127
2, 43402, Note_off_c, 0, 62, 64
2, 43470, Note_off_c, 0, 45, 64
2, 43479, Note_off_c, 0, 52, 64
2, 43599, Note_on_c, 0, 71, 48
2, 43599, Note_on_c, 0, 65, 51
2, 43605, Note_off_c, 0, 64, 64
2, 43606, Note_on_c, 0, 59, 39
2, 43606, Note_on_c, 0, 49, 51
2, 43606, Note_on_c, 0, 44, 2
2, 43610, Note_off_c, 0, 73, 64
2, 43644, Control_c, 0, 64, 0
2, 43675, Control_c, 0, 64, 127
2, 43887, Note_on_c, 0, 42, 39
2, 43889, Note_on_c, 0, 66, 42
2, 43893, Note_on_c, 0, 69, 44
2, 43910, Note_off_c, 0, 65, 64
2, 43910, Note_off_c, 0, 71, 64
2, 43924, Note_off_c, 0, 44, 64
2, 43930, Control_c, 0, 64, 0
2, 43935, Note_off_c, 0, 59, 64
2, 43962, Control_c, 0, 64, 127
2, 43991, Note_on_c, 0, 54, 46
2, 44001, Note_off_c, 0, 49, 64
2, 44103, Note_on_c, 0, 52, 49
2, 44115, Control_c, 0, 64, 0
2, 44126, Note_off_c, 0, 54, 64
2, 44158, Control_c, 0, 64, 127
2, 44305, Control_c, 0, 64, 0
2, 44312, Note_on_c, 0, 50, 46
2, 44326, Note_off_c, 0, 52, 64
2, 44362, Control_c, 0, 64, 127
2, 44423, Note_off_c, 0, 66, 64
2, 44454, Note_off_c, 0, 69, 64
2, 44498, Note_off_c, 0, 42, 64
2, 44513, Note_on_c, 0, 49, 44
2, 44518, Note_on_c, 0, 69, 32
2, 44521, Note_on_c, 0, 66, 32
2, 44521, Note_on_c, 0, 57, 35
2, 44537, Note_off_c, 0, 50, 64
2, 44551, Control_c, 0, 64, 0
2, 44581, Control_c, 0, 64, 127
2, 44618, Note_on_c, 0, 45, 33
2, 44645, Note_off_c, 0, 49, 64
2, 44718, Note_on_c, 0, 42, 55
2, 44740, Note_off_c, 0, 45, 64
2, 44764, Control_c, 0, 64, 0
2, 44806, Control_c, 0, 64, 127
2, 44838, Note_off_c, 0, 66, 64
2, 44841, Note_off_c, 0, 69, 64
2, 44902, Note_off_c, 0, 57, 64
2, 44950, Note_on_c, 0, 67, 41
2, 44951, Note_on_c, 0, 43, 51
2, 44957, Note_off_c, 0, 42, 64
2, 44958, Note_on_c, 0, 64, 39
2, 44958, Note_on_c, 0, 55, 35
2, 44996, Control_c, 0, 64, 0
2, 45035, Control_c, 0, 64, 127
2, 45043, Note_off_c, 0, 67, 64
2, 45051, Note_off_c, 0, 55, 64
2, 45051, Note_off_c, 0, 64, 64
2, 45107, Note_on_c, 0, 67, 31
2, 45110, Note_on_c, 0, 55, 32
2, 45117, Note_on_c, 0, 64, 32
2, 45142, Note_on_c, 0, 62, 33
2, 45142, Note_on_c, 0, 54, 34
2, 45147, Note_on_c, 0, 66, 41
2, 45170, Note_off_c, 0, 67, 64
2, 45172, Note_on_c, 0, 45, 49
2, 45173, Note_off_c, 0, 55, 64
2, 45180, Note_off_c, 0, 43, 64
2, 45180, Note_off_c, 0, 64, 64
2, 45205, Control_c, 0, 64, 0
2, 45287, Note_on_c, 0, 50, 46
2, 45319, Note_off_c, 0, 45, 64
2, 45384, Note_on_c, 0, 49, 55
2, 45406, Note_off_c, 0, 50, 64
2, 45595, Note_on_c, 0, 47, 49
2, 45598, Note_off_c, 0, 49, 64
2, 45828, Note_on_c, 0, 45, 59
2, 45852, Note_off_c, 0, 47, 64
2, 45929, Note_on_c, 0, 42, 47
2, 45952, Note_off_c, 0, 45, 64
2, 46064, Note_off_c, 0, 42, 64
2, 46066, Note_on_c, 0, 38, 40
2, 46352, Note_on_c, 0, 36, 39
2, 46360, Note_off_c, 0, 38, 64
2, 46367, Control_c, 0, 64, 127
2, 46383, Note_off_c, 0, 62, 64
2, 46416, Note_off_c, 0, 54, 64
2, 46502, Note_off_c, 0, 66, 64
2, 46730, Note_on_c, 0, 37, 50
2, 46746, Note_on_c, 0, 65, 50
2, 46747, Control_c, 0, 64, 0
2, 46750, Note_on_c, 0, 61, 28
2, 46750, Note_on_c, 0, 53, 28
2, 46756, Note_off_c, 0, 36, 64
2, 46794, Control_c, 0, 64, 127
2, 46852, Note_off_c, 0, 53, 64
2, 46852, Note_off_c, 0, 61, 64
2, 46927, Note_on_c, 0, 73, 58
2, 46930, Control_c, 0, 64, 127
2, 46938, Note_off_c, 0, 65, 64
2, 47036, Note_on_c, 0, 71, 46
2, 47069, Note_off_c, 0, 73, 64
2, 47114, Note_off_c, 0, 37, 64
2, 47266, Note_on_c, 0, 69, 51
2, 47268, Note_on_c, 0, 66, 23
2, 47270, Note_on_c, 0, 61, 22
2, 47270, Note_on_c, 0, 57, 39
2, 47274, Note_off_c, 0, 71, 64
2, 47333, Note_off_c, 0, 61, 64
2, 47334, Note_off_c, 0, 57, 64
2, 47343, Note_off_c, 0, 66, 64
2, 47492, Note_on_c, 0, 68, 62
2, 47507, Note_on_c, 0, 49, 55
2, 47510, Note_off_c, 0, 69, 64
2, 47523, Control_c, 0, 64, 0
2, 47566, Control_c, 0, 64, 127
2, 47598, Note_on_c, 0, 65, 59
2, 47601, Note_off_c, 0, 68, 64
2, 47692, Note_on_c, 0, 61, 46
2, 47697, Note_on_c, 0, 56, 50
2, 47719, Note_off_c, 0, 65, 64
2, 47725, Control_c, 0, 64, 0
2, 47748, Control_c, 0, 64, 127
2, 47882, Note_off_c, 0, 56, 64
2, 47896, Note_on_c, 0, 54, 35
2, 47902, Note_on_c, 0, 62, 57
2, 47909, Note_on_c, 0, 57, 27
2, 47929, Note_off_c, 0, 61, 64
2, 47932, Control_c, 0, 64, 0
2, 47954, Control_c, 0, 64, 127
2, 48042, Note_off_c, 0, 49, 64
2, 48114, Note_off_c, 0, 54, 64
2, 48118, Note_off_c, 0, 57, 64
2, 48119, Note_on_c, 0, 65, 58
2, 48121, Note_on_c, 0, 49, 50
2, 48131, Note_off_c, 0, 62, 64
2, 48137, Control_c, 0, 64, 0
2, 48190, Control_c, 0, 64, 127
2, 48211, Note_on_c, 0, 66, 62
2, 48233, Note_off_c, 0, 65, 64
2, 48301, Note_on_c, 0, 68, 62
2, 48335, Note_off_c, 0, 66, 64
2, 48456, Note_on_c, 0, 69, 46
2, 48486, Note_on_c, 0, 71, 63
2, 48489, Note_off_c, 0, 49, 64
2, 48490, Note_off_c, 0, 68, 64
2, 48506, Note_off_c, 0, 69, 64
2, 48518, Note_on_c, 0, 61, 27
2, 48520, Note_on_c, 0, 66, 34
2, 48524, Note_on_c, 0, 69, 69
2, 48525, Note_on_c, 0, 57, 43
2, 48543, Note_off_c, 0, 71, 64
2, 48545, Control_c, 0, 64, 0
2, 48579, Control_c, 0, 64, 127
2, 48583, Note_off_c, 0, 66, 64
2, 48590, Note_off_c, 0, 61, 64
2, 48592, Note_off_c, 0, 57, 64
2, 48734, Note_on_c, 0, 68, 62
2, 48753, Note_off_c, 0, 69, 64
2, 48753, Note_on_c, 0, 49, 51
2, 48754, Control_c, 0, 64, 0
2, 48799, Control_c, 0, 64, 127
2, 48834, Note_on_c, 0, 65, 55
2, 48844, Note_off_c, 0, 68, 64
2, 48924, Note_on_c, 0, 61, 56
2, 48931, Note_on_c, 0, 56, 56
2, 48942, Control_c, 0, 64, 0
2, 48947, Note_off_c, 0, 65, 64
2, 48978, Control_c, 0, 64, 127
2, 49097, Note_off_c, 0, 56, 64
2, 49119, Note_off_c, 0, 49, 64
2, 49130, Note_on_c, 0, 54, 46
2, 49134, Note_on_c, 0, 62, 43
2, 49134, Note_on_c, 0, 57, 54
2, 49151, Note_off_c, 0, 61, 64
2, 49344, Note_off_c, 0, 54, 64
2, 49345, Note_on_c, 0, 37, 65
2, 49348, Note_off_c, 0, 57, 64
2, 49348, Note_on_c, 0, 65, 66
2, 49361, Control_c, 0, 64, 0
2, 49371, Note_off_c, 0, 62, 64
2, 49398, Control_c, 0, 64, 127
2, 49441, Note_on_c, 0, 73, 52
2, 49457, Note_off_c, 0, 65, 64
2, 49535, Note_on_c, 0, 71, 58
2, 49539, Note_on_c, 0, 56, 37
2, 49542, Note_on_c, 0, 65, 23
2, 49543, Note_off_c, 0, 73, 64
2, 49543, Note_on_c, 0, 61, 48
2, 49564, Control_c, 0, 64, 0
2, 49608, Control_c, 0, 64, 127
2, 49628, Note_off_c, 0, 37, 64
2, 49645, Note_off_c, 0, 56, 64
2, 49648, Note_off_c, 0, 65, 64
2, 49649, Note_off_c, 0, 61, 64
2, 49738, Note_on_c, 0, 66, 45
2, 49742, Note_on_c, 0, 69, 67
2, 49746, Note_on_c, 0, 57, 40
2, 49755, Note_on_c, 0, 61, 28
2, 49757, Control_c, 0, 64, 0
2, 49768, Note_off_c, 0, 71, 64
2, 49780, Control_c, 0, 64, 127
2, 49938, Note_on_c, 0, 68, 63
2, 49950, Note_on_c, 0, 49, 56
2, 49952, Note_off_c, 0, 66, 64
2, 49957, Note_off_c, 0, 69, 64
2, 49960, Note_off_c, 0, 57, 64
2, 49967, Control_c, 0, 64, 0
2, 49969, Note_off_c, 0, 61, 64
2, 50010, Control_c, 0, 64, 127
2, 50026, Note_on_c, 0, 65, 66
2, 50053, Note_off_c, 0, 68, 64
2, 50115, Note_on_c, 0, 61, 49
2, 50117, Note_on_c, 0, 56, 50
2, 50144, Control_c, 0, 64, 0
2, 50147, Note_off_c, 0, 65, 64
2, 50167, Control_c, 0, 64, 127
2, 50190, Note_off_c, 0, 49, 64
2, 50297, Note_off_c, 0, 56, 64
2, 50310, Note_on_c, 0, 57, 35
2, 50315, Note_on_c, 0, 54, 33
2, 50320, Note_on_c, 0, 62, 53
2, 50330, Control_c, 0, 64, 0
2, 50344, Note_off_c, 0, 61, 64
2, 50374, Control_c, 0, 64, 127
2, 50524, Note_off_c, 0, 57, 64
2, 50524, Note_on_c, 0, 65, 64
2, 50528, Note_on_c, 0, 49, 36
2, 50529, Note_off_c, 0, 54, 64
2, 50535, Note_off_c, 0, 62, 64
2, 50562, Control_c, 0, 64, 0
2, 50602, Control_c, 0, 64, 127
2, 50619, Note_on_c, 0, 66, 56
2, 50654, Note_off_c, 0, 65, 64
2, 50713, Note_on_c, 0, 68, 63
2, 50746, Note_off_c, 0, 66, 64
2, 50846, Note_on_c, 0, 69, 57
2, 50854, Note_off_c, 0, 68, 64
2, 50881, Note_on_c, 0, 71, 69
2, 50898, Note_off_c, 0, 69, 64
2, 50905, Note_off_c, 0, 49, 64
2, 50916, Note_on_c, 0, 69, 67
2, 50918, Note_on_c, 0, 61, 22
2, 50920, Note_on_c, 0, 66, 39
2, 50920, Note_on_c, 0, 57, 42
2, 50936, Note_off_c, 0, 71, 64
2, 50949, Control_c, 0, 64, 0
2, 50985, Control_c, 0, 64, 127
2, 51132, Note_off_c, 0, 61, 64
2, 51134, Note_off_c, 0, 57, 64
2, 51134, Note_off_c, 0, 66, 64
2, 51168, Note_on_c, 0, 68, 62
2, 51182, Note_on_c, 0, 49, 41
2, 51196, Note_off_c, 0, 69, 64
2, 51198, Control_c, 0, 64, 0
2, 51253, Control_c, 0, 64, 127
2, 51446, Note_on_c, 0, 56, 48
2, 51466, Control_c, 0, 64, 0
2, 51500, Control_c, 0, 64, 127
2, 51559, Note_off_c, 0, 68, 64
2, 51565, Note_on_c, 0, 61, 59
2, 51629, Note_off_c, 0, 56, 64
2, 51706, Note_on_c, 0, 68, 70
2, 51712, Note_off_c, 0, 61, 64
2, 51714, Note_off_c, 0, 49, 64
2, 51735, Control_c, 0, 64, 0
2, 51758, Control_c, 0, 64, 127
2, 51847, Note_on_c, 0, 61, 44
2, 51991, Note_on_c, 0, 40, 57
2, 52000, Note_on_c, 0, 59, 62
2, 52014, Control_c, 0, 64, 0
2, 52026, Note_off_c, 0, 61, 64
2, 52029, Control_c, 0, 64, 127
2, 52058, Note_off_c, 0, 59, 64
2, 52110, Note_off_c, 0, 68, 64
2, 52158, Note_on_c, 0, 76, 37
2, 52206, Control_c, 0, 64, 0
2, 52219, Note_on_c, 0, 75, 62
2, 52225, Note_on_c, 0, 68, 50
2, 52228, Note_on_c, 0, 59, 33
2, 52240, Control_c, 0, 64, 127
2, 52250, Note_off_c, 0, 76, 64
2, 52289, Note_off_c, 0, 59, 64
2, 52307, Note_off_c, 0, 68, 64
2, 52350, Note_off_c, 0, 40, 64
2, 52437, Control_c, 0, 64, 0
2, 52441, Note_on_c, 0, 73, 67
2, 52441, Note_on_c, 0, 58, 33
2, 52447, Note_on_c, 0, 64, 35
2, 52448, Note_on_c, 0, 67, 39
2, 52460, Note_off_c, 0, 75, 64
2, 52460, Control_c, 0, 64, 127
2, 52655, Note_off_c, 0, 58, 64
2, 52656, Note_on_c, 0, 71, 62
2, 52659, Note_on_c, 0, 52, 57
2, 52661, Note_off_c, 0, 64, 64
2, 52662, Note_off_c, 0, 67, 64
2, 52666, Note_off_c, 0, 73, 64
2, 52667, Control_c, 0, 64, 0
2, 52712, Control_c, 0, 64, 127
2, 52744, Note_on_c, 0, 68, 64
2, 52778, Note_off_c, 0, 71, 64
2, 52840, Note_on_c, 0, 64, 62
2, 52846, Note_on_c, 0, 59, 43
2, 52855, Note_off_c, 0, 68, 64
2, 52856, Control_c, 0, 64, 0
2, 52878, Control_c, 0, 64, 127
2, 53009, Note_off_c, 0, 59, 64
2, 53029, Note_off_c, 0, 52, 64
2, 53036, Note_on_c, 0, 61, 39
2, 53037, Control_c, 0, 64, 0
2, 53038, Note_on_c, 0, 58, 43
2, 53048, Note_on_c, 0, 67, 64
2, 53060, Control_c, 0, 64, 127
2, 53071, Note_off_c, 0, 64, 64
2, 53230, Note_on_c, 0, 68, 64
2, 53236, Note_on_c, 0, 40, 65
2, 53250, Note_off_c, 0, 61, 64
2, 53252, Note_off_c, 0, 58, 64
2, 53253, Control_c, 0, 64, 0
2, 53258, Note_off_c, 0, 67, 64
2, 53279, Control_c, 0, 64, 127
2, 53333, Note_on_c, 0, 69, 63
2, 53335, Note_off_c, 0, 68, 64
2, 53435, Note_on_c, 0, 70, 59
2, 53435, Note_on_c, 0, 68, 45
2, 53438, Note_on_c, 0, 64, 19
2, 53438, Note_on_c, 0, 59, 34
2, 53454, Control_c, 0, 64, 0
2, 53455, Note_off_c, 0, 69, 64
2, 53481, Control_c, 0, 64, 127
2, 53511, Note_off_c, 0, 68, 64
2, 53514, Note_off_c, 0, 59, 64
2, 53514, Note_off_c, 0, 64, 64
2, 53519, Note_off_c, 0, 40, 64
2, 53526, Note_on_c, 0, 71, 52
2, 53540, Note_off_c, 0, 70, 64
2, 53618, Note_on_c, 0, 72, 65
2, 53625, Note_off_c, 0, 71, 64
2, 53626, Note_on_c, 0, 58, 29
2, 53634, Note_on_c, 0, 64, 35
2, 53639, Note_on_c, 0, 67, 33
2, 53639, Control_c, 0, 64, 0
2, 53680, Control_c, 0, 64, 127
2, 53693, Note_on_c, 0, 75, 56
2, 53715, Note_off_c, 0, 72, 64
2, 53731, Note_on_c, 0, 73, 73
2, 53753, Note_off_c, 0, 75, 64
2, 53821, Note_on_c, 0, 71, 62
2, 53825, Note_off_c, 0, 73, 64
2, 53829, Note_on_c, 0, 52, 58
2, 53837, Control_c, 0, 64, 0
2, 53840, Note_off_c, 0, 58, 64
2, 53848, Note_off_c, 0, 64, 64
2, 53853, Note_off_c, 0, 67, 64
2, 53881, Control_c, 0, 64, 127
2, 53906, Note_on_c, 0, 68, 73
2, 53927, Note_off_c, 0, 71, 64
2, 54005, Note_on_c, 0, 64, 59
2, 54015, Note_on_c, 0, 59, 45
2, 54016, Note_off_c, 0, 68, 64
2, 54027, Control_c, 0, 64, 0
2, 54066, Control_c, 0, 64, 127
2, 54166, Note_off_c, 0, 59, 64
2, 54197, Control_c, 0, 64, 0
2, 54201, Note_on_c, 0, 61, 40
2, 54204, Note_on_c, 0, 58, 45
2, 54205, Note_on_c, 0, 67, 67
2, 54215, Note_off_c, 0, 52, 64
2, 54220, Note_off_c, 0, 64, 64
2, 54234, Control_c, 0, 64, 127
2, 54410, Note_on_c, 0, 68, 67
2, 54413, Note_on_c, 0, 40, 64
2, 54415, Note_off_c, 0, 61, 64
2, 54418, Note_off_c, 0, 58, 64
2, 54420, Control_c, 0, 64, 0
2, 54456, Note_off_c, 0, 67, 64
2, 54466, Control_c, 0, 64, 127
2, 54546, Note_off_c, 0, 68, 64
2, 54551, Note_on_c, 0, 76, 58
2, 54600, Note_on_c, 0, 75, 63
2, 54610, Note_on_c, 0, 59, 34
2, 54611, Note_on_c, 0, 68, 39
2, 54614, Note_on_c, 0, 64, 23
2, 54617, Note_off_c, 0, 76, 64
2, 54630, Control_c, 0, 64, 0
2, 54665, Control_c, 0, 64, 127
2, 54684, Note_off_c, 0, 59, 64
2, 54685, Note_off_c, 0, 68, 64
2, 54688, Note_off_c, 0, 64, 64
2, 54693, Note_off_c, 0, 40, 64
2, 54806, Note_on_c, 0, 73, 69
2, 54806, Note_on_c, 0, 67, 33
2, 54806, Note_on_c, 0, 58, 34
2, 54811, Note_on_c, 0, 64, 33
2, 54813, Control_c, 0, 64, 0
2, 54822, Note_off_c, 0, 75, 64
2, 54827, Control_c, 0, 64, 127
2, 55009, Note_on_c, 0, 52, 58
2, 55010, Note_on_c, 0, 71, 62
2, 55020, Note_off_c, 0, 58, 64
2, 55020, Note_off_c, 0, 67, 64
2, 55022, Control_c, 0, 64, 0
2, 55024, Note_off_c, 0, 73, 64
2, 55025, Note_off_c, 0, 64, 64
2, 55068, Control_c, 0, 64, 127
2, 55104, Note_on_c, 0, 68, 64
2, 55138, Note_off_c, 0, 71, 64
2, 55203, Note_on_c, 0, 64, 66
2, 55207, Note_on_c, 0, 59, 44
2, 55221, Control_c, 0, 64, 0
2, 55226, Note_off_c, 0, 68, 64
2, 55265, Control_c, 0, 64, 127
2, 55360, Note_off_c, 0, 59, 64
2, 55398, Note_on_c, 0, 61, 33
2, 55399, Note_on_c, 0, 58, 47
2, 55404, Note_on_c, 0, 67, 67
2, 55412, Note_off_c, 0, 52, 64
2, 55416, Note_off_c, 0, 64, 64
2, 55599, Note_on_c, 0, 40, 69
2, 55606, Note_on_c, 0, 68, 66
2, 55611, Control_c, 0, 64, 0
2, 55612, Note_off_c, 0, 61, 64
2, 55613, Note_off_c, 0, 58, 64
2, 55635, Note_off_c, 0, 67, 64
2, 55647, Control_c, 0, 64, 127
2, 55697, Note_on_c, 0, 69, 59
2, 55714, Note_off_c, 0, 68, 64
2, 55806, Note_on_c, 0, 64, 49
2, 55812, Note_on_c, 0, 70, 65
2, 55814, Note_off_c, 0, 69, 64
2, 55814, Note_on_c, 0, 59, 39
2, 55819, Note_on_c, 0, 56, 48
2, 55821, Note_on_c, 0, 68, 67
2, 55835, Control_c, 0, 64, 0
2, 55902, Note_on_c, 0, 73, 62
2, 55904, Control_c, 0, 64, 127
2, 55933, Note_off_c, 0, 70, 64
2, 55995, Note_on_c, 0, 71, 59
2, 56016, Note_off_c, 0, 73, 64
2, 56070, Note_off_c, 0, 64, 64
2, 56078, Note_off_c, 0, 59, 64
2, 56083, Note_off_c, 0, 56, 64
2, 56084, Note_on_c, 0, 75, 64
2, 56085, Note_off_c, 0, 68, 64
2, 56115, Note_off_c, 0, 71, 64
2, 56118, Note_off_c, 0, 40, 64
2, 56182, Note_on_c, 0, 78, 77
2, 56194, Control_c, 0, 64, 0
2, 56227, Note_off_c, 0, 75, 64
2, 56241, Control_c, 0, 64, 127
2, 56273, Note_on_c, 0, 76, 67
2, 56283, Note_off_c, 0, 78, 64
2, 56303, Note_on_c, 0, 78, 74
2, 56316, Note_off_c, 0, 76, 64
2, 56335, Note_on_c, 0, 76, 69
2, 56348, Note_off_c, 0, 78, 64
2, 56385, Note_on_c, 0, 75, 55
2, 56400, Note_off_c, 0, 76, 64
2, 56470, Note_on_c, 0, 76, 66
2, 56498, Note_off_c, 0, 75, 64
2, 56564, Note_on_c, 0, 78, 62
2, 56597, Note_off_c, 0, 76, 64
2, 56653, Note_on_c, 0, 79, 73
2, 56672, Note_off_c, 0, 78, 64
2, 56742, Control_c, 0, 64, 0
2, 56750, Note_on_c, 0, 36, 67
2, 56755, Note_on_c, 0, 80, 69
2, 56758, Note_on_c, 0, 48, 67
2, 56778, Note_off_c, 0, 79, 64
2, 56796, Control_c, 0, 64, 127
2, 56951, Control_c, 0, 64, 0
2, 56954, Note_on_c, 0, 56, 73
2, 56960, Note_on_c, 0, 63, 71
2, 56961, Note_on_c, 0, 66, 83
2, 56987, Note_off_c, 0, 56, 64
2, 56993, Note_off_c, 0, 63, 64
2, 56994, Note_off_c, 0, 66, 64
2, 57019, Note_off_c, 0, 36, 64
2, 57027, Note_off_c, 0, 48, 64
2, 57068, Note_on_c, 0, 82, 58
2, 57095, Note_off_c, 0, 80, 64
2, 57154, Control_c, 0, 64, 127
2, 57176, Note_on_c, 0, 80, 64
2, 57183, Note_on_c, 0, 66, 77
2, 57183, Note_on_c, 0, 56, 82
2, 57187, Note_on_c, 0, 63, 78
2, 57196, Note_off_c, 0, 82, 64
2, 57272, Note_on_c, 0, 79, 64
2, 57278, Note_off_c, 0, 80, 64
2, 57297, Note_off_c, 0, 56, 64
2, 57297, Note_off_c, 0, 66, 64
2, 57301, Note_off_c, 0, 63, 64
2, 57378, Note_on_c, 0, 80, 71
2, 57383, Note_on_c, 0, 49, 77
2, 57385, Note_on_c, 0, 37, 71
2, 57390, Control_c, 0, 64, 0
2, 57408, Note_off_c, 0, 79, 64
2, 57422, Control_c, 0, 64, 127
2, 57477, Note_on_c, 0, 82, 77
2, 57490, Note_off_c, 0, 80, 64
2, 57541, Control_c, 0, 64, 0
2, 57550, Note_on_c, 0, 53, 67
2, 57554, Note_on_c, 0, 65, 70
2, 57554, Note_on_c, 0, 56, 64
2, 57556, Note_on_c, 0, 61, 59
2, 57558, Note_on_c, 0, 80, 77
2, 57579, Note_off_c, 0, 82, 64
2, 57583, Note_off_c, 0, 53, 64
2, 57587, Note_off_c, 0, 56, 64
2, 57587, Note_off_c, 0, 65, 64
2, 57589, Note_off_c, 0, 61, 64
2, 57655, Note_off_c, 0, 49, 64
2, 57655, Note_on_c, 0, 79, 69
2, 57657, Note_off_c, 0, 37, 64
2, 57666, Note_off_c, 0, 80, 64
2, 57753, Note_on_c, 0, 80, 83
2, 57762, Note_on_c, 0, 61, 78
2, 57766, Note_on_c, 0, 65, 71
2, 57766, Note_on_c, 0, 56, 74
2, 57766, Note_on_c, 0, 53, 69
2, 57779, Control_c, 0, 64, 127
2, 57785, Note_off_c, 0, 79, 64
2, 57838, Note_on_c, 0, 82, 78
2, 57851, Note_off_c, 0, 80, 64
2, 57876, Note_off_c, 0, 61, 64
2, 57880, Note_off_c, 0, 53, 64
2, 57880, Note_off_c, 0, 56, 64
2, 57880, Note_off_c, 0, 65, 64
2, 57922, Control_c, 0, 64, 0
2, 57934, Note_on_c, 0, 32, 60
2, 57935, Note_on_c, 0, 80, 85
2, 57938, Note_on_c, 0, 44, 60
2, 57951, Note_off_c, 0, 82, 64
2, 57988, Control_c, 0, 64, 127
2, 58027, Note_on_c, 0, 79, 71
2, 58033, Note_off_c, 0, 80, 64
2, 58108, Control_c, 0, 64, 0
2, 58118, Note_on_c, 0, 80, 82
2, 58126, Note_on_c, 0, 51, 60
2, 58130, Note_on_c, 0, 56, 73
2, 58131, Note_on_c, 0, 66, 73
2, 58131, Note_on_c, 0, 60, 63
2, 58146, Note_off_c, 0, 79, 64
2, 58159, Note_off_c, 0, 51, 64
2, 58163, Note_off_c, 0, 56, 64
2, 58164, Note_off_c, 0, 60, 64
2, 58164, Note_off_c, 0, 66, 64
2, 58195, Note_on_c, 0, 82, 77
2, 58213, Note_off_c, 0, 80, 64
2, 58218, Note_off_c, 0, 32, 64
2, 58222, Note_off_c, 0, 44, 64
2, 58292, Note_on_c, 0, 80, 69
2, 58294, Note_on_c, 0, 51, 60
2, 58298, Note_on_c, 0, 56, 73
2, 58299, Control_c, 0, 64, 127
2, 58302, Note_on_c, 0, 66, 69
2, 58302, Note_on_c, 0, 60, 63
2, 58308, Note_off_c, 0, 82, 64
2, 58375, Note_on_c, 0, 78, 73
2, 58390, Note_off_c, 0, 80, 64
2, 58408, Note_off_c, 0, 51, 64
2, 58412, Note_off_c, 0, 56, 64
2, 58416, Note_off_c, 0, 60, 64
2, 58416, Note_off_c, 0, 66, 64
2, 58478, Note_on_c, 0, 77, 59
2, 58500, Note_off_c, 0, 78, 64
2, 58510, Control_c, 0, 64, 0
2, 58514, Note_on_c, 0, 78, 73
2, 58521, Note_on_c, 0, 37, 69
2, 58524, Note_on_c, 0, 49, 62
2, 58530, Note_off_c, 0, 77, 64
2, 58532, Control_c, 0, 64, 127
2, 58542, Note_on_c, 0, 77, 71
2, 58559, Note_off_c, 0, 78, 64
2, 58611, Note_off_c, 0, 77, 64
2, 58675, Note_on_c, 0, 76, 66
2, 58705, Control_c, 0, 64, 0
2, 58722, Note_on_c, 0, 65, 48
2, 58722, Note_on_c, 0, 56, 73
2, 58726, Note_on_c, 0, 61, 73
2, 58728, Note_on_c, 0, 53, 66
2, 58733, Note_on_c, 0, 77, 69
2, 58746, Note_off_c, 0, 76, 64
2, 58755, Note_off_c, 0, 56, 64
2, 58755, Note_off_c, 0, 65, 64
2, 58759, Note_off_c, 0, 61, 64
2, 58761, Note_off_c, 0, 53, 64
2, 58791, Note_off_c, 0, 37, 64
2, 58795, Note_off_c, 0, 49, 64
2, 58922, Note_on_c, 0, 61, 64
2, 58922, Note_on_c, 0, 53, 42
2, 58923, Note_on_c, 0, 73, 82
2, 58926, Note_on_c, 0, 56, 50
2, 58928, Note_off_c, 0, 77, 64
2, 58928, Note_on_c, 0, 65, 58
2, 58949, Control_c, 0, 64, 127
2, 59036, Note_off_c, 0, 53, 64
2, 59036, Note_off_c, 0, 61, 64
2, 59040, Note_off_c, 0, 56, 64
2, 59042, Note_off_c, 0, 65, 64
2, 59108, Note_off_c, 0, 73, 64
2, 59121, Note_on_c, 0, 77, 73
2, 59131, Note_on_c, 0, 33, 69
2, 59131, Control_c, 0, 64, 0
2, 59137, Note_on_c, 0, 45, 64
2, 59190, Control_c, 0, 64, 127
2, 59319, Control_c, 0, 64, 0
2, 59338, Note_on_c, 0, 65, 50
2, 59338, Note_on_c, 0, 57, 64
2, 59338, Note_on_c, 0, 53, 56
2, 59339, Note_on_c, 0, 63, 64
2, 59371, Note_off_c, 0, 53, 64
2, 59371, Note_off_c, 0, 57, 64
2, 59371, Note_off_c, 0, 65, 64
2, 59372, Note_off_c, 0, 63, 64
2, 59404, Note_off_c, 0, 33, 64
2, 59410, Note_off_c, 0, 45, 64
2, 59434, Note_on_c, 0, 78, 67
2, 59450, Note_off_c, 0, 77, 64
2, 59529, Note_on_c, 0, 77, 63
2, 59530, Note_on_c, 0, 63, 65
2, 59530, Note_on_c, 0, 57, 47
2, 59534, Note_on_c, 0, 53, 40
2, 59536, Note_on_c, 0, 65, 66
2, 59553, Control_c, 0, 64, 127
2, 59558, Note_off_c, 0, 78, 64
2, 59620, Note_on_c, 0, 76, 69
2, 59635, Note_off_c, 0, 77, 64
2, 59644, Note_off_c, 0, 57, 64
2, 59644, Note_off_c, 0, 63, 64
2, 59648, Note_off_c, 0, 53, 64
2, 59650, Note_off_c, 0, 65, 64
2, 59722, Control_c, 0, 64, 0
2, 59728, Note_on_c, 0, 77, 69
2, 59735, Note_on_c, 0, 46, 78
2, 59741, Note_on_c, 0, 34, 73
2, 59759, Note_off_c, 0, 76, 64
2, 59787, Control_c, 0, 64, 127
2, 59817, Note_on_c, 0, 78, 64
2, 59836, Note_off_c, 0, 77, 64
2, 59916, Control_c, 0, 64, 0
2, 59923, Note_on_c, 0, 77, 69
2, 59923, Note_on_c, 0, 65, 67
2, 59923, Note_on_c, 0, 53, 63
2, 59926, Note_on_c, 0, 58, 63
2, 59929, Note_on_c, 0, 61, 67
2, 59964, Control_c, 0, 64, 127
2, 59977, Note_off_c, 0, 78, 64
2, 60005, Note_off_c, 0, 46, 64
2, 60007, Note_on_c, 0, 76, 62
2, 60011, Note_off_c, 0, 34, 64
2, 60013, Note_off_c, 0, 77, 64
2, 60037, Note_off_c, 0, 53, 64
2, 60037, Note_off_c, 0, 65, 64
2, 60040, Note_off_c, 0, 58, 64
2, 60043, Note_off_c, 0, 61, 64
2, 60105, Control_c, 0, 64, 0
2, 60115, Note_on_c, 0, 77, 69
2, 60122, Note_on_c, 0, 61, 65
2, 60124, Note_on_c, 0, 63, 64
2, 60124, Note_on_c, 0, 51, 67
2, 60128, Note_on_c, 0, 58, 62
2, 60140, Note_off_c, 0, 76, 64
2, 60177, Control_c, 0, 64, 127
2, 60210, Note_on_c, 0, 79, 64
2, 60233, Note_off_c, 0, 77, 64
2, 60236, Note_off_c, 0, 61, 64
2, 60238, Note_off_c, 0, 51, 64
2, 60238, Note_off_c, 0, 63, 64
2, 60242, Note_off_c, 0, 58, 64
2, 60314, Note_on_c, 0, 44, 73
2, 60314, Note_on_c, 0, 82, 63
2, 60324, Control_c, 0, 64, 0
2, 60328, Note_off_c, 0, 79, 64
2, 60368, Control_c, 0, 64, 127
2, 60404, Note_on_c, 0, 80, 65
2, 60418, Note_off_c, 0, 82, 64
2, 60499, Control_c, 0, 64, 0
2, 60502, Note_on_c, 0, 60, 66
2, 60504, Note_on_c, 0, 78, 66
2, 60506, Note_on_c, 0, 56, 32
2, 60506, Note_on_c, 0, 51, 63
2, 60508, Note_on_c, 0, 66, 73
2, 60518, Note_off_c, 0, 80, 64
2, 60535, Note_off_c, 0, 60, 64
2, 60539, Note_off_c, 0, 51, 64
2, 60539, Note_off_c, 0, 56, 64
2, 60541, Note_off_c, 0, 66, 64
2, 60587, Note_off_c, 0, 44, 64
2, 60587, Note_on_c, 0, 70, 73
2, 60593, Control_c, 0, 64, 127
2, 60604, Note_off_c, 0, 78, 64
2, 60687, Note_on_c, 0, 72, 69
2, 60690, Note_on_c, 0, 66, 66
2, 60692, Note_on_c, 0, 51, 60
2, 60694, Note_on_c, 0, 56, 32
2, 60698, Note_on_c, 0, 60, 63
2, 60703, Note_off_c, 0, 70, 64
2, 60778, Note_on_c, 0, 68, 73
2, 60798, Note_off_c, 0, 72, 64
2, 60804, Note_off_c, 0, 66, 64
2, 60806, Note_off_c, 0, 51, 64
2, 60808, Note_off_c, 0, 56, 64
2, 60812, Note_off_c, 0, 60, 64
2, 60872, Control_c, 0, 64, 0
2, 60877, Note_on_c, 0, 75, 64
2, 60881, Note_on_c, 0, 37, 73
2, 60921, Note_off_c, 0, 68, 64
2, 60936, Control_c, 0, 64, 127
2, 60989, Note_off_c, 0, 75, 64
2, 61009, Note_on_c, 0, 77, 63
2, 61051, Control_c, 0, 64, 0
2, 61066, Note_on_c, 0, 61, 59
2, 61066, Note_on_c, 0, 53, 74
2, 61068, Note_on_c, 0, 73, 64
2, 61068, Note_on_c, 0, 65, 58
2, 61070, Note_on_c, 0, 56, 58
2, 61074, Note_off_c, 0, 77, 64
2, 61099, Note_off_c, 0, 53, 64
2, 61099, Note_off_c, 0, 61, 64
2, 61101, Note_off_c, 0, 65, 64
2, 61103, Note_off_c, 0, 56, 64
2, 61110, Control_c, 0, 64, 127
2, 61160, Note_on_c, 0, 77, 63
2, 61185, Note_off_c, 0, 73, 64
2, 61187, Note_off_c, 0, 37, 64
2, 61257, Note_on_c, 0, 61, 67
2, 61258, Note_on_c, 0, 53, 67
2, 61264, Note_on_c, 0, 65, 64
2, 61264, Note_on_c, 0, 56, 65
2, 61270, Note_on_c, 0, 78, 69
2, 61281, Note_off_c, 0, 77, 64
2, 61350, Note_on_c, 0, 79, 66
2, 61362, Note_off_c, 0, 78, 64
2, 61371, Note_off_c, 0, 61, 64
2, 61372, Note_off_c, 0, 53, 64
2, 61378, Note_off_c, 0, 56, 64
2, 61378, Note_off_c, 0, 65, 64
2, 61458, Control_c, 0, 64, 0
2, 61463, Note_on_c, 0, 36, 73
2, 61466, Note_on_c, 0, 80, 73
2, 61469, Note_on_c, 0, 48, 80
2, 61509, Note_off_c, 0, 79, 64
2, 61520, Control_c, 0, 64, 127
2, 61563, Control_c, 0, 64, 0
2, 61658, Note_on_c, 0, 56, 62
2, 61662, Note_on_c, 0, 68, 73
2, 61662, Note_on_c, 0, 63, 66
2, 61664, Note_on_c, 0, 66, 69
2, 61691, Note_off_c, 0, 56, 64
2, 61695, Note_off_c, 0, 63, 64
2, 61697, Note_off_c, 0, 66, 64
2, 61731, Note_off_c, 0, 36, 64
2, 61737, Note_off_c, 0, 48, 64
2, 61745, Note_on_c, 0, 82, 69
2, 61760, Note_off_c, 0, 80, 64
2, 61822, Note_on_c, 0, 80, 78
2, 61826, Note_off_c, 0, 68, 64
2, 61841, Note_off_c, 0, 82, 64
2, 61846, Note_on_c, 0, 82, 80
2, 61864, Note_off_c, 0, 80, 64
2, 61867, Control_c, 0, 64, 0
2, 61874, Note_on_c, 0, 68, 64
2, 61875, Note_on_c, 0, 63, 66
2, 61875, Note_on_c, 0, 56, 64
2, 61876, Note_on_c, 0, 66, 64
2, 61879, Note_on_c, 0, 80, 78
2, 61901, Note_off_c, 0, 82, 64
2, 61909, Control_c, 0, 64, 127
2, 61961, Note_on_c, 0, 79, 73
2, 61973, Note_off_c, 0, 80, 64
2, 61989, Note_off_c, 0, 56, 64
2, 61989, Note_off_c, 0, 63, 64
2, 61990, Note_off_c, 0, 66, 64
2, 62058, Control_c, 0, 64, 0
2, 62063, Note_on_c, 0, 80, 78
2, 62065, Note_on_c, 0, 37, 65
2, 62068, Note_on_c, 0, 49, 73
2, 62083, Note_off_c, 0, 79, 64
2, 62111, Control_c, 0, 64, 127
2, 62154, Note_on_c, 0, 82, 83
2, 62181, Note_off_c, 0, 80, 64
2, 62193, Note_off_c, 0, 82, 64
2, 62193, Note_on_c, 0, 80, 77
2, 62206, Note_off_c, 0, 68, 64
2, 62229, Note_on_c, 0, 82, 83
2, 62250, Note_on_c, 0, 65, 64
2, 62250, Note_on_c, 0, 61, 64
2, 62250, Note_on_c, 0, 53, 58
2, 62253, Note_off_c, 0, 80, 64
2, 62254, Note_on_c, 0, 68, 73
2, 62256, Note_on_c, 0, 80, 74
2, 62256, Note_on_c, 0, 56, 49
2, 62270, Control_c, 0, 64, 0
2, 62275, Note_off_c, 0, 82, 64
2, 62283, Note_off_c, 0, 53, 64
2, 62283, Note_off_c, 0, 61, 64
2, 62283, Note_off_c, 0, 65, 64
2, 62289, Note_off_c, 0, 56, 64
2, 62307, Control_c, 0, 64, 127
2, 62332, Note_off_c, 0, 37, 64
2, 62335, Note_off_c, 0, 49, 64
2, 62341, Note_on_c, 0, 79, 69
2, 62356, Note_off_c, 0, 80, 64
2, 62418, Note_off_c, 0, 68, 64
2, 62432, Note_on_c, 0, 80, 87
2, 62434, Note_on_c, 0, 68, 73
2, 62436, Control_c, 0, 64, 0
2, 62443, Note_on_c, 0, 65, 62
2, 62445, Note_on_c, 0, 61, 62
2, 62446, Note_on_c, 0, 56, 50
2, 62446, Note_on_c, 0, 53, 33
2, 62459, Note_off_c, 0, 79, 64
2, 62477, Control_c, 0, 64, 127
2, 62527, Note_on_c, 0, 82, 82
2, 62549, Note_off_c, 0, 80, 64
2, 62557, Note_off_c, 0, 65, 64
2, 62559, Note_off_c, 0, 61, 64
2, 62560, Note_off_c, 0, 53, 64
2, 62560, Note_off_c, 0, 56, 64
2, 62565, Note_on_c, 0, 80, 78
2, 62579, Note_off_c, 0, 82, 64
2, 62602, Note_on_c, 0, 82, 80
2, 62618, Note_off_c, 0, 80, 64
2, 62623, Note_on_c, 0, 80, 77
2, 62626, Note_on_c, 0, 32, 67
2, 62629, Note_on_c, 0, 44, 69
2, 62641, Control_c, 0, 64, 0
2, 62648, Note_off_c, 0, 82, 64
2, 62680, Control_c, 0, 64, 127
2, 62721, Note_on_c, 0, 79, 70
2, 62726, Note_off_c, 0, 80, 64
2, 62780, Note_off_c, 0, 68, 64
2, 62809, Control_c, 0, 64, 0
2, 62814, Note_on_c, 0, 51, 50
2, 62815, Note_on_c, 0, 80, 83
2, 62818, Note_on_c, 0, 68, 73
2, 62818, Note_on_c, 0, 66, 39
2, 62818, Note_on_c, 0, 56, 73
2, 62821, Note_on_c, 0, 60, 64
2, 62846, Note_off_c, 0, 79, 64
2, 62847, Note_off_c, 0, 51, 64
2, 62851, Note_off_c, 0, 56, 64
2, 62851, Note_off_c, 0, 66, 64
2, 62854, Note_off_c, 0, 60, 64
2, 62854, Control_c, 0, 64, 127
2, 62896, Note_on_c, 0, 82, 80
2, 62901, Note_off_c, 0, 32, 64
2, 62904, Note_off_c, 0, 44, 64
2, 62906, Note_off_c, 0, 80, 64
2, 62930, Note_on_c, 0, 80, 80
2, 62950, Note_off_c, 0, 82, 64
2, 62965, Note_on_c, 0, 82, 80
2, 62978, Note_off_c, 0, 80, 64
2, 62982, Note_off_c, 0, 68, 64
2, 62986, Note_on_c, 0, 56, 73
2, 62990, Note_on_c, 0, 66, 64
2, 62990, Note_on_c, 0, 60, 57
2, 62990, Note_on_c, 0, 51, 39
2, 62991, Control_c, 0, 64, 0
2, 62994, Note_on_c, 0, 68, 73
2, 62996, Note_on_c, 0, 80, 74
2, 63011, Note_off_c, 0, 82, 64
2, 63032, Control_c, 0, 64, 127
2, 63090, Note_on_c, 0, 78, 73
2, 63100, Note_off_c, 0, 56, 64
2, 63101, Note_off_c, 0, 80, 64
2, 63104, Note_off_c, 0, 51, 64
2, 63104, Note_off_c, 0, 60, 64
2, 63104, Note_off_c, 0, 66, 64
2, 63190, Note_on_c, 0, 77, 73
2, 63194, Control_c, 0, 64, 0
2, 63201, Note_on_c, 0, 37, 69
2, 63201, Note_on_c, 0, 49, 82
2, 63206, Note_off_c, 0, 78, 64
2, 63247, Control_c, 0, 64, 127
2, 63340, Note_off_c, 0, 68, 64
2, 63351, Note_on_c, 0, 76, 69
2, 63373, Note_off_c, 0, 77, 64
2, 63384, Control_c, 0, 64, 0
2, 63386, Note_on_c, 0, 61, 64
2, 63391, Note_on_c, 0, 65, 69
2, 63391, Note_on_c, 0, 56, 59
2, 63391, Note_on_c, 0, 53, 62
2, 63394, Note_on_c, 0, 68, 73
2, 63398, Note_on_c, 0, 77, 74
2, 63407, Note_off_c, 0, 76, 64
2, 63419, Note_off_c, 0, 61, 64
2, 63424, Note_off_c, 0, 53, 64
2, 63424, Note_off_c, 0, 56, 64
2, 63424, Note_off_c, 0, 65, 64
2, 63470, Note_off_c, 0, 49, 64
2, 63470, Note_off_c, 0, 37, 64
2, 63558, Note_off_c, 0, 68, 64
2, 63594, Control_c, 0, 64, 127
2, 63598, Note_on_c, 0, 56, 65
2, 63600, Note_on_c, 0, 73, 79
2, 63600, Note_on_c, 0, 65, 59
2, 63600, Note_on_c, 0, 61, 65
2, 63602, Note_on_c, 0, 68, 73
2, 63602, Note_on_c, 0, 53, 40
2, 63608, Note_off_c, 0, 77, 64
2, 63712, Note_off_c, 0, 56, 64
2, 63714, Note_off_c, 0, 61, 64
2, 63714, Note_off_c, 0, 65, 64
2, 63716, Note_off_c, 0, 53, 64
2, 63810, Note_on_c, 0, 77, 73
2, 63814, Note_off_c, 0, 73, 64
2, 63814, Note_on_c, 0, 29, 79
2, 63819, Note_on_c, 0, 41, 75
2, 63829, Control_c, 0, 64, 0
2, 63873, Control_c, 0, 64, 127
2, 63948, Note_off_c, 0, 68, 64
2, 64010, Control_c, 0, 64, 0
2, 64018, Note_on_c, 0, 69, 73
2, 64018, Note_on_c, 0, 60, 58
2, 64018, Note_on_c, 0, 53, 56
2, 64022, Note_on_c, 0, 65, 59
2, 64023, Note_on_c, 0, 63, 56
2, 64030, Control_c, 0, 64, 127
2, 64051, Note_off_c, 0, 53, 64
2, 64051, Note_off_c, 0, 60, 64
2, 64055, Note_off_c, 0, 65, 64
2, 64056, Note_off_c, 0, 63, 64
2, 64081, Note_off_c, 0, 29, 64
2, 64086, Note_off_c, 0, 41, 64
2, 64124, Note_on_c, 0, 78, 57
2, 64129, Note_off_c, 0, 77, 64
2, 64166, Note_on_c, 0, 77, 65
2, 64172, Note_off_c, 0, 78, 64
2, 64182, Note_off_c, 0, 69, 64
2, 64203, Note_on_c, 0, 78, 80
2, 64218, Note_off_c, 0, 77, 64
2, 64222, Control_c, 0, 64, 0
2, 64242, Note_on_c, 0, 53, 41
2, 64242, Note_on_c, 0, 60, 58
2, 64242, Note_on_c, 0, 63, 63
2, 64242, Note_on_c, 0, 65, 62
2, 64242, Note_on_c, 0, 69, 73
2, 64242, Note_on_c, 0, 77, 77
2, 64256, Control_c, 0, 64, 127
2, 64271, Note_off_c, 0, 78, 64
2, 64337, Note_on_c, 0, 76, 64
2, 64356, Note_off_c, 0, 65, 64
2, 64356, Note_off_c, 0, 63, 64
2, 64356, Note_off_c, 0, 60, 64
2, 64356, Note_off_c, 0, 53, 64
2, 64357, Note_off_c, 0, 77, 64
2, 64438, Note_on_c, 0, 77, 63
2, 64439, Note_off_c, 0, 69, 64
2, 64449, Note_on_c, 0, 34, 77
2, 64461, Note_on_c, 0, 46, 29
2, 64462, Note_off_c, 0, 76, 64
2, 64535, Note_on_c, 0, 89, 87
2, 64535, Note_on_c, 0, 85, 83
2, 64575, Note_off_c, 0, 77, 64
2, 64627, Control_c, 0, 64, 0
2, 64636, Note_on_c, 0, 53, 62
2, 64638, Note_on_c, 0, 65, 58
2, 64638, Note_on_c, 0, 61, 59
2, 64638, Note_on_c, 0, 58, 36
2, 64644, Note_on_c, 0, 87, 88
2, 64644, Note_on_c, 0, 84, 88
2, 64651, Note_off_c, 0, 85, 64
2, 64651, Note_off_c, 0, 89, 64
2, 64660, Control_c, 0, 64, 127
2, 64710, Note_off_c, 0, 34, 64
2, 64722, Note_off_c, 0, 46, 64
2, 64742, Note_on_c, 0, 85, 78
2, 64749, Note_on_c, 0, 82, 87
2, 64750, Note_off_c, 0, 53, 64
2, 64752, Note_off_c, 0, 58, 64
2, 64752, Note_off_c, 0, 61, 64
2, 64752, Note_off_c, 0, 65, 64
2, 64758, Note_off_c, 0, 84, 64
2, 64758, Note_off_c, 0, 87, 64
2, 64858, Note_on_c, 0, 58, 36
2, 64860, Note_on_c, 0, 63, 62
2, 64862, Note_on_c, 0, 54, 62
2, 64866, Note_off_c, 0, 82, 64
2, 64870, Note_on_c, 0, 82, 87
2, 64870, Note_on_c, 0, 78, 80
2, 64885, Note_off_c, 0, 85, 64
2, 64972, Note_off_c, 0, 58, 64
2, 64974, Note_off_c, 0, 63, 64
2, 64975, Note_off_c, 0, 78, 64
2, 64976, Note_off_c, 0, 54, 64
2, 64983, Note_on_c, 0, 70, 86
2, 64988, Note_on_c, 0, 78, 77
2, 65001, Note_off_c, 0, 82, 64
2, 65074, Note_on_c, 0, 68, 69
2, 65078, Note_on_c, 0, 77, 69
2, 65084, Note_on_c, 0, 44, 73
2, 65093, Note_off_c, 0, 70, 64
2, 65094, Note_off_c, 0, 78, 64
2, 65098, Control_c, 0, 64, 0
2, 65136, Control_c, 0, 64, 127
2, 65201, Note_on_c, 0, 75, 56
2, 65202, Note_on_c, 0, 66, 62
2, 65205, Note_off_c, 0, 68, 64
2, 65209, Note_off_c, 0, 77, 64
2, 65238, Note_on_c, 0, 77, 64
2, 65240, Note_off_c, 0, 75, 64
2, 65271, Note_on_c, 0, 75, 73
2, 65283, Note_off_c, 0, 77, 64
2, 65302, Note_on_c, 0, 60, 67
2, 65302, Note_on_c, 0, 56, 47
2, 65302, Note_on_c, 0, 51, 58
2, 65309, Control_c, 0, 64, 0
2, 65310, Note_on_c, 0, 65, 52
2, 65317, Note_on_c, 0, 74, 57
2, 65324, Note_off_c, 0, 66, 64
2, 65329, Note_off_c, 0, 75, 64
2, 65335, Note_off_c, 0, 51, 64
2, 65335, Note_off_c, 0, 56, 64
2, 65335, Note_off_c, 0, 60, 64
2, 65360, Control_c, 0, 64, 127
2, 65366, Note_off_c, 0, 44, 64
2, 65398, Note_on_c, 0, 66, 56
2, 65399, Note_on_c, 0, 75, 57
2, 65407, Note_off_c, 0, 65, 64
2, 65414, Note_off_c, 0, 74, 64
2, 65491, Control_c, 0, 64, 0
2, 65498, Note_on_c, 0, 70, 69
2, 65498, Note_on_c, 0, 60, 63
2, 65498, Note_on_c, 0, 51, 55
2, 65500, Note_on_c, 0, 56, 62
2, 65502, Note_on_c, 0, 78, 65
2, 65509, Note_off_c, 0, 66, 64
2, 65510, Note_off_c, 0, 75, 64
2, 65544, Control_c, 0, 64, 127
2, 65583, Note_off_c, 0, 70, 64
2, 65587, Note_off_c, 0, 78, 64
2, 65612, Note_off_c, 0, 51, 64
2, 65612, Note_off_c, 0, 60, 64
2, 65614, Note_off_c, 0, 56, 64
2, 65638, Note_on_c, 0, 72, 69
2, 65642, Note_on_c, 0, 63, 36
2, 65686, Control_c, 0, 64, 0
2, 65693, Note_on_c, 0, 37, 90
2, 65706, Note_on_c, 0, 75, 64
2, 65710, Note_on_c, 0, 66, 47
2, 65713, Note_off_c, 0, 72, 64
2, 65717, Note_off_c, 0, 63, 64
2, 65745, Control_c, 0, 64, 127
2, 65792, Note_on_c, 0, 73, 74
2, 65797, Note_off_c, 0, 75, 64
2, 65797, Note_on_c, 0, 65, 55
2, 65801, Note_off_c, 0, 66, 64
2, 65823, Note_on_c, 0, 75, 74
2, 65836, Note_off_c, 0, 73, 64
2, 65857, Note_on_c, 0, 73, 70
2, 65874, Note_on_c, 0, 61, 65
2, 65874, Note_on_c, 0, 56, 56
2, 65877, Note_off_c, 0, 75, 64
2, 65878, Note_on_c, 0, 68, 63
2, 65885, Note_on_c, 0, 72, 69
2, 65890, Control_c, 0, 64, 0
2, 65907, Note_off_c, 0, 56, 64
2, 65907, Note_off_c, 0, 61, 64
2, 65909, Note_off_c, 0, 73, 64
2, 65911, Note_off_c, 0, 68, 64
2, 65951, Control_c, 0, 64, 127
2, 65969, Note_off_c, 0, 65, 64
2, 65970, Note_off_c, 0, 37, 64
2, 65998, Note_off_c, 0, 72, 64
2, 66022, Note_on_c, 0, 73, 70
2, 66078, Note_on_c, 0, 56, 62
2, 66080, Note_on_c, 0, 77, 73
2, 66082, Note_on_c, 0, 65, 63
2, 66082, Note_on_c, 0, 68, 63
2, 66082, Note_on_c, 0, 61, 64
2, 66085, Control_c, 0, 64, 0
2, 66097, Note_off_c, 0, 73, 64
2, 66119, Control_c, 0, 64, 127
2, 66190, Note_off_c, 0, 77, 64
2, 66192, Note_off_c, 0, 56, 64
2, 66196, Note_off_c, 0, 61, 64
2, 66196, Note_off_c, 0, 68, 64
2, 66214, Note_on_c, 0, 70, 69
2, 66260, Note_on_c, 0, 44, 67
2, 66268, Note_on_c, 0, 68, 71
2, 66272, Control_c, 0, 64, 0
2, 66282, Note_off_c, 0, 70, 64
2, 66319, Control_c, 0, 64, 127
2, 66385, Control_c, 0, 64, 0
2, 66403, Note_off_c, 0, 68, 64
2, 66409, Note_on_c, 0, 72, 63
2, 66410, Note_off_c, 0, 65, 64
2, 66445, Note_on_c, 0, 56, 60
2, 66446, Note_on_c, 0, 66, 73
2, 66446, Note_on_c, 0, 63, 73
2, 66446, Note_on_c, 0, 60, 60
2, 66446, Note_on_c, 0, 51, 64
2, 66449, Note_on_c, 0, 70, 73
2, 66453, Control_c, 0, 64, 0
2, 66466, Note_off_c, 0, 72, 64
2, 66478, Note_off_c, 0, 56, 64
2, 66479, Note_off_c, 0, 51, 64
2, 66479, Note_off_c, 0, 60, 64
2, 66479, Note_off_c, 0, 63, 64
2, 66479, Note_off_c, 0, 66, 64
2, 66518, Control_c, 0, 64, 127
2, 66536, Note_off_c, 0, 44, 64
2, 66582, Note_on_c, 0, 68, 49
2, 66595, Note_off_c, 0, 70, 64
2, 66642, Control_c, 0, 64, 0
2, 66654, Note_on_c, 0, 66, 64
2, 66654, Note_on_c, 0, 63, 59
2, 66654, Note_on_c, 0, 60, 57
2, 66654, Note_on_c, 0, 56, 59
2, 66655, Note_on_c, 0, 72, 62
2, 66658, Note_on_c, 0, 51, 49
2, 66669, Note_off_c, 0, 68, 64
2, 66698, Control_c, 0, 64, 127
2, 66768, Note_off_c, 0, 56, 64
2, 66768, Note_off_c, 0, 60, 64
2, 66768, Note_off_c, 0, 63, 64
2, 66768, Note_off_c, 0, 66, 64
2, 66772, Note_off_c, 0, 51, 64
2, 66780, Note_on_c, 0, 70, 54
2, 66796, Note_off_c, 0, 72, 64
2, 66818, Note_on_c, 0, 49, 69
2, 66829, Control_c, 0, 64, 0
2, 66844, Note_on_c, 0, 68, 58
2, 66861, Note_off_c, 0, 70, 64
2, 66881, Control_c, 0, 64, 127
2, 66956, Note_off_c, 0, 68, 64
2, 66986, Note_on_c, 0, 72, 66
2, 67024, Control_c, 0, 64, 0
2, 67026, Note_on_c, 0, 65, 40
2, 67026, Note_on_c, 0, 61, 43
2, 67026, Note_on_c, 0, 53, 66
2, 67028, Note_on_c, 0, 70, 73
2, 67028, Note_on_c, 0, 56, 63
2, 67048, Note_off_c, 0, 72, 64
2, 67077, Note_off_c, 0, 53, 64
2, 67077, Note_off_c, 0, 61, 64
2, 67077, Note_off_c, 0, 65, 64
2, 67079, Note_off_c, 0, 56, 64
2, 67080, Control_c, 0, 64, 127
2, 67101, Note_off_c, 0, 49, 64
2, 67160, Note_on_c, 0, 68, 63
2, 67168, Note_off_c, 0, 70, 64
2, 67205, Note_on_c, 0, 53, 58
2, 67206, Note_on_c, 0, 65, 59
2, 67206, Note_on_c, 0, 61, 32
2, 67209, Note_on_c, 0, 56, 64
2, 67215, Note_on_c, 0, 72, 69
2, 67219, Control_c, 0, 64, 0
2, 67230, Note_off_c, 0, 68, 64
2, 67261, Control_c, 0, 64, 127
2, 67319, Note_off_c, 0, 53, 64
2, 67320, Note_off_c, 0, 61, 64
2, 67320, Note_off_c, 0, 65, 64
2, 67323, Note_off_c, 0, 56, 64
2, 67361, Note_on_c, 0, 70, 55
2, 67374, Note_off_c, 0, 72, 64
2, 67386, Note_on_c, 0, 44, 66
2, 67395, Note_on_c, 0, 68, 69
2, 67404, Control_c, 0, 64, 0
2, 67410, Note_off_c, 0, 70, 64
2, 67431, Control_c, 0, 64, 127
2, 67439, Note_off_c, 0, 68, 64
2, 67478, Note_on_c, 0, 75, 63
2, 67506, Note_on_c, 0, 77, 63
2, 67522, Note_off_c, 0, 75, 64
2, 67534, Note_on_c, 0, 75, 59
2, 67560, Note_off_c, 0, 77, 64
2, 67566, Note_on_c, 0, 56, 63
2, 67568, Note_on_c, 0, 74, 67
2, 67570, Note_on_c, 0, 66, 25
2, 67570, Note_on_c, 0, 51, 62
2, 67572, Note_on_c, 0, 60, 59
2, 67586, Note_off_c, 0, 75, 64
2, 67592, Control_c, 0, 64, 0
2, 67599, Note_off_c, 0, 56, 64
2, 67603, Note_off_c, 0, 51, 64
2, 67605, Note_off_c, 0, 60, 64
2, 67638, Control_c, 0, 64, 127
2, 67665, Note_off_c, 0, 44, 64
2, 67699, Note_on_c, 0, 75, 64
2, 67712, Note_off_c, 0, 74, 64
2, 67717, Note_off_c, 0, 66, 64
2, 67748, Note_on_c, 0, 78, 74
2, 67749, Control_c, 0, 64, 0
2, 67750, Note_on_c, 0, 66, 28
2, 67750, Control_c, 0, 64, 127
2, 67757, Note_on_c, 0, 56, 69
2, 67759, Note_on_c, 0, 60, 71
2, 67761, Note_on_c, 0, 51, 64
2, 67768, Note_off_c, 0, 75, 64
2, 67797, Control_c, 0, 64, 127
2, 67871, Note_off_c, 0, 56, 64
2, 67873, Note_off_c, 0, 60, 64
2, 67875, Note_off_c, 0, 51, 64
2, 67883, Note_on_c, 0, 72, 64
2, 67888, Note_off_c, 0, 78, 64
2, 67897, Note_off_c, 0, 66, 64
2, 67918, Note_on_c, 0, 37, 95
2, 67924, Control_c, 0, 64, 0
2, 67935, Note_on_c, 0, 75, 69
2, 67947, Note_off_c, 0, 72, 64
2, 67987, Control_c, 0, 64, 127
2, 68020, Note_on_c, 0, 73, 74
2, 68047, Note_off_c, 0, 75, 64
2, 68051, Note_on_c, 0, 75, 74
2, 68064, Note_off_c, 0, 73, 64
2, 68085, Note_on_c, 0, 73, 70
2, 68102, Note_on_c, 0, 68, 56
2, 68102, Note_on_c, 0, 65, 57
2, 68102, Note_on_c, 0, 61, 59
2, 68102, Note_on_c, 0, 56, 41
2, 68105, Note_off_c, 0, 75, 64
2, 68105, Note_on_c, 0, 72, 69
2, 68109, Control_c, 0, 64, 0
2, 68125, Note_off_c, 0, 73, 64
2, 68135, Note_off_c, 0, 56, 64
2, 68135, Note_off_c, 0, 61, 64
2, 68135, Note_off_c, 0, 68, 64
2, 68153, Note_off_c, 0, 65, 64
2, 68160, Control_c, 0, 64, 127
2, 68200, Note_off_c, 0, 37, 64
2, 68222, Note_on_c, 0, 73, 64
2, 68230, Note_off_c, 0, 72, 64
2, 68278, Note_on_c, 0, 65, 72
2, 68278, Note_on_c, 0, 61, 63
2, 68278, Control_c, 0, 64, 0
2, 68286, Note_on_c, 0, 77, 69
2, 68286, Note_on_c, 0, 68, 57
2, 68286, Note_on_c, 0, 56, 54
2, 68302, Control_c, 0, 64, 127
2, 68307, Note_off_c, 0, 73, 64
2, 68361, Note_off_c, 0, 77, 64
2, 68389, Note_on_c, 0, 70, 55
2, 68392, Note_off_c, 0, 61, 64
2, 68392, Note_off_c, 0, 65, 64
2, 68400, Note_off_c, 0, 56, 64
2, 68400, Note_off_c, 0, 68, 64
2, 68439, Note_on_c, 0, 68, 73
2, 68443, Note_on_c, 0, 44, 69
2, 68448, Control_c, 0, 64, 0
2, 68456, Note_off_c, 0, 70, 64
2, 68492, Control_c, 0, 64, 127
2, 68567, Note_on_c, 0, 72, 69
2, 68592, Note_off_c, 0, 68, 64
2, 68610, Note_on_c, 0, 66, 69
2, 68610, Note_on_c, 0, 63, 63
2, 68610, Note_on_c, 0, 60, 59
2, 68612, Note_on_c, 0, 70, 69
2, 68614, Note_on_c, 0, 56, 59
2, 68614, Note_on_c, 0, 51, 55
2, 68614, Control_c, 0, 64, 0
2, 68642, Note_off_c, 0, 72, 64
2, 68657, Note_off_c, 0, 60, 64
2, 68657, Note_off_c, 0, 63, 64
2, 68661, Note_off_c, 0, 51, 64
2, 68661, Note_off_c, 0, 56, 64
2, 68661, Control_c, 0, 64, 127
2, 68704, Note_off_c, 0, 66, 64
2, 68725, Note_off_c, 0, 44, 64
2, 68748, Note_on_c, 0, 68, 71
2, 68767, Note_off_c, 0, 70, 64
2, 68802, Note_on_c, 0, 72, 69
2, 68802, Note_on_c, 0, 66, 69
2, 68802, Note_on_c, 0, 63, 55
2, 68802, Note_on_c, 0, 60, 63
2, 68802, Note_on_c, 0, 56, 59
2, 68802, Note_on_c, 0, 51, 58
2, 68810, Control_c, 0, 64, 0
2, 68821, Note_off_c, 0, 68, 64
2, 68831, Control_c, 0, 64, 127
2, 68865, Control_c, 0, 64, 127
2, 68872, Control_c, 0, 64, 0
2, 68916, Note_off_c, 0, 51, 64
2, 68916, Note_off_c, 0, 56, 64
2, 68916, Note_off_c, 0, 60, 64
2, 68916, Note_off_c, 0, 63, 64
2, 68916, Note_off_c, 0, 66, 64
2, 68950, Note_on_c, 0, 70, 62
2, 68962, Note_off_c, 0, 72, 64
2, 68982, Note_on_c, 0, 44, 69
2, 68989, Note_on_c, 0, 68, 73
2, 69000, Control_c, 0, 64, 0
2, 69007, Note_off_c, 0, 70, 64
2, 69036, Control_c, 0, 64, 127
2, 69094, Note_on_c, 0, 72, 69
2, 69119, Note_off_c, 0, 68, 64
2, 69148, Note_on_c, 0, 65, 63
2, 69148, Note_on_c, 0, 61, 56
2, 69148, Note_on_c, 0, 56, 56
2, 69148, Note_on_c, 0, 53, 64
2, 69150, Note_on_c, 0, 70, 69
2, 69163, Note_off_c, 0, 72, 64
2, 69166, Control_c, 0, 64, 0
2, 69188, Control_c, 0, 64, 127
2, 69195, Note_off_c, 0, 53, 64
2, 69195, Note_off_c, 0, 56, 64
2, 69195, Note_off_c, 0, 61, 64
2, 69195, Note_off_c, 0, 65, 64
2, 69254, Note_on_c, 0, 68, 55
2, 69259, Note_off_c, 0, 44, 64
2, 69274, Note_off_c, 0, 70, 64
2, 69308, Note_on_c, 0, 65, 63
2, 69308, Note_on_c, 0, 61, 56
2, 69312, Note_on_c, 0, 56, 56
2, 69312, Note_on_c, 0, 53, 63
2, 69314, Note_on_c, 0, 72, 69
2, 69324, Control_c, 0, 64, 0
2, 69328, Control_c, 0, 64, 127
2, 69337, Note_off_c, 0, 68, 64
2, 69368, Control_c, 0, 64, 127
2, 69415, Note_on_c, 0, 73, 69
2, 69422, Note_off_c, 0, 61, 64
2, 69422, Note_off_c, 0, 65, 64
2, 69424, Control_c, 0, 64, 0
2, 69426, Note_off_c, 0, 53, 64
2, 69426, Note_off_c, 0, 56, 64
2, 69435, Note_off_c, 0, 72, 64
2, 69476, Note_on_c, 0, 44, 67
2, 69476, Note_on_c, 0, 32, 67
2, 69484, Note_off_c, 0, 73, 64
2, 69487, Control_c, 0, 64, 0
2, 69520, Control_c, 0, 64, 127
2, 69602, Note_on_c, 0, 73, 65
2, 69615, Control_c, 0, 64, 0
2, 69641, Control_c, 0, 64, 0
2, 69648, Note_on_c, 0, 67, 25
2, 69648, Note_on_c, 0, 64, 73
2, 69648, Note_on_c, 0, 61, 67
2, 69648, Note_on_c, 0, 56, 62
2, 69651, Note_on_c, 0, 72, 66
2, 69686, Note_off_c, 0, 73, 64
2, 69695, Note_off_c, 0, 56, 64
2, 69695, Note_off_c, 0, 61, 64
2, 69695, Note_off_c, 0, 64, 64
2, 69695, Note_off_c, 0, 67, 64
2, 69697, Control_c, 0, 64, 127
2, 69755, Note_on_c, 0, 70, 62
2, 69768, Note_off_c, 0, 32, 64
2, 69768, Note_off_c, 0, 44, 64
2, 69776, Note_off_c, 0, 72, 64
2, 69805, Note_on_c, 0, 56, 56
2, 69808, Note_on_c, 0, 67, 25
2, 69808, Note_on_c, 0, 64, 55
2, 69808, Note_on_c, 0, 61, 62
2, 69814, Note_on_c, 0, 73, 78
2, 69830, Control_c, 0, 64, 0
2, 69833, Control_c, 0, 64, 127
2, 69834, Note_off_c, 0, 70, 64
2, 69846, Control_c, 0, 64, 127
2, 69911, Note_on_c, 0, 72, 64
2, 69919, Note_off_c, 0, 56, 64
2, 69922, Note_off_c, 0, 61, 64
2, 69922, Note_off_c, 0, 64, 64
2, 69922, Note_off_c, 0, 67, 64
2, 69940, Note_off_c, 0, 73, 64
2, 69972, Control_c, 0, 64, 0
2, 69976, Note_on_c, 0, 44, 92
2, 69978, Note_on_c, 0, 56, 64
2, 69980, Note_on_c, 0, 70, 85
2, 70005, Note_off_c, 0, 72, 64
2, 70023, Control_c, 0, 64, 127
2, 70072, Note_on_c, 0, 76, 73
2, 70100, Note_off_c, 0, 70, 64
2, 70114, Note_off_c, 0, 56, 64
2, 70131, Note_on_c, 0, 75, 73
2, 70132, Note_on_c, 0, 70, 67
2, 70132, Note_on_c, 0, 67, 25
2, 70134, Note_on_c, 0, 61, 66
2, 70134, Note_on_c, 0, 56, 58
2, 70141, Control_c, 0, 64, 0
2, 70165, Note_off_c, 0, 76, 64
2, 70165, Control_c, 0, 64, 127
2, 70179, Note_off_c, 0, 67, 64
2, 70179, Note_off_c, 0, 70, 64
2, 70181, Note_off_c, 0, 56, 64
2, 70181, Note_off_c, 0, 61, 64
2, 70193, Control_c, 0, 64, 127
2, 70236, Note_on_c, 0, 73, 73
2, 70248, Note_off_c, 0, 75, 64
2, 70265, Note_off_c, 0, 44, 64
2, 70299, Note_on_c, 0, 76, 73
2, 70299, Note_on_c, 0, 67, 73
2, 70300, Note_on_c, 0, 70, 70
2, 70300, Note_on_c, 0, 56, 65
2, 70304, Note_on_c, 0, 61, 62
2, 70314, Note_off_c, 0, 73, 64
2, 70317, Control_c, 0, 64, 0
2, 70345, Control_c, 0, 64, 127
2, 70458, Control_c, 0, 64, 0
2, 70466, Note_on_c, 0, 44, 74
2, 70469, Note_on_c, 0, 32, 74
2, 70510, Control_c, 0, 64, 127
2, 70518, Note_off_c, 0, 76, 64
2, 70564, Note_off_c, 0, 67, 64
2, 70565, Note_off_c, 0, 56, 64
2, 70565, Note_off_c, 0, 70, 64
2, 70569, Note_off_c, 0, 61, 64
2, 70579, Note_on_c, 0, 73, 59
2, 70624, Note_on_c, 0, 56, 59
2, 70626, Note_on_c, 0, 72, 67
2, 70628, Note_on_c, 0, 67, 66
2, 70628, Note_on_c, 0, 64, 66
2, 70628, Note_on_c, 0, 61, 69
2, 70628, Control_c, 0, 64, 0
2, 70665, Note_off_c, 0, 73, 64
2, 70671, Note_off_c, 0, 56, 64
2, 70675, Note_off_c, 0, 61, 64
2, 70675, Note_off_c, 0, 64, 64
2, 70675, Note_off_c, 0, 67, 64
2, 70685, Control_c, 0, 64, 127
2, 70736, Note_on_c, 0, 70, 69
2, 70758, Note_off_c, 0, 44, 64
2, 70761, Note_off_c, 0, 72, 64
2, 70761, Note_off_c, 0, 32, 64
2, 70800, Note_on_c, 0, 61, 69
2, 70803, Note_on_c, 0, 73, 80
2, 70803, Note_on_c, 0, 67, 74
2, 70803, Note_on_c, 0, 64, 57
2, 70803, Note_on_c, 0, 56, 63
2, 70803, Control_c, 0, 64, 0
2, 70817, Note_off_c, 0, 70, 64
2, 70837, Control_c, 0, 64, 127
2, 70910, Note_on_c, 0, 72, 66
2, 70914, Note_off_c, 0, 61, 64
2, 70917, Note_off_c, 0, 56, 64
2, 70917, Note_off_c, 0, 64, 64
2, 70917, Note_off_c, 0, 67, 64
2, 70947, Note_off_c, 0, 73, 64
2, 70965, Note_on_c, 0, 70, 86
2, 70968, Note_on_c, 0, 56, 74
2, 70969, Control_c, 0, 64, 0
2, 70972, Note_on_c, 0, 44, 73
2, 70995, Note_off_c, 0, 72, 64
2, 70999, Control_c, 0, 64, 127
2, 71022, Control_c, 0, 64, 0
2, 71084, Note_on_c, 0, 76, 64
2, 71101, Note_off_c, 0, 70, 64
2, 71125, Note_off_c, 0, 56, 64
2, 71129, Control_c, 0, 64, 0
2, 71136, Note_on_c, 0, 70, 66
2, 71136, Note_on_c, 0, 67, 66
2, 71136, Note_on_c, 0, 61, 69
2, 71137, Note_on_c, 0, 75, 74
2, 71143, Note_on_c, 0, 56, 58
2, 71171, Control_c, 0, 64, 127
2, 71183, Note_off_c, 0, 61, 64
2, 71183, Note_off_c, 0, 67, 64
2, 71183, Note_off_c, 0, 70, 64
2, 71185, Note_off_c, 0, 76, 64
2, 71190, Note_off_c, 0, 56, 64
2, 71196, Control_c, 0, 64, 0
2, 71264, Note_off_c, 0, 44, 64
2, 71268, Note_on_c, 0, 73, 78
2, 71288, Note_off_c, 0, 75, 64
2, 71312, Note_on_c, 0, 67, 67
2, 71313, Note_on_c, 0, 78, 83
2, 71316, Note_on_c, 0, 70, 69
2, 71316, Note_on_c, 0, 61, 69
2, 71316, Note_on_c, 0, 56, 59
2, 71340, Note_off_c, 0, 73, 64
2, 71423, Note_on_c, 0, 76, 69
2, 71426, Note_off_c, 0, 67, 64
2, 71430, Note_off_c, 0, 56, 64
2, 71430, Note_off_c, 0, 61, 64
2, 71430, Note_off_c, 0, 70, 64
2, 71436, Note_off_c, 0, 78, 64
2, 71479, Control_c, 0, 64, 0
2, 71496, Note_on_c, 0, 75, 67
2, 71496, Note_on_c, 0, 44, 79
2, 71500, Note_on_c, 0, 32, 97
2, 71519, Note_off_c, 0, 76, 64
2, 71523, Control_c, 0, 64, 127
2, 71594, Note_off_c, 0, 75, 64
2, 71612, Note_on_c, 0, 75, 69
2, 71648, Note_on_c, 0, 66, 69
2, 71648, Note_on_c, 0, 63, 67
2, 71650, Note_on_c, 0, 73, 59
2, 71652, Note_on_c, 0, 69, 64
2, 71652, Control_c, 0, 64, 0
2, 71654, Note_on_c, 0, 56, 65
2, 71654, Control_c, 0, 64, 0
2, 71666, Note_off_c, 0, 75, 64
2, 71666, Control_c, 0, 64, 127
2, 71708, Control_c, 0, 64, 127
2, 71748, Note_on_c, 0, 72, 71
2, 71762, Note_off_c, 0, 63, 64
2, 71762, Note_off_c, 0, 66, 64
2, 71766, Note_off_c, 0, 69, 64
2, 71768, Note_off_c, 0, 56, 64
2, 71768, Note_off_c, 0, 73, 64
2, 71770, Note_off_c, 0, 44, 64
2, 71774, Note_off_c, 0, 32, 64
2, 71816, Note_on_c, 0, 66, 56
2, 71816, Note_on_c, 0, 63, 67
2, 71819, Note_on_c, 0, 75, 69
2, 71820, Note_on_c, 0, 69, 64
2, 71823, Note_on_c, 0, 56, 67
2, 71836, Control_c, 0, 64, 0
2, 71842, Note_off_c, 0, 72, 64
2, 71850, Control_c, 0, 64, 127
2, 71909, Note_on_c, 0, 73, 59
2, 71916, Note_off_c, 0, 75, 64
2, 71930, Note_off_c, 0, 63, 64
2, 71930, Note_off_c, 0, 66, 64
2, 71934, Note_off_c, 0, 69, 64
2, 71937, Note_off_c, 0, 56, 64
2, 71986, Note_on_c, 0, 72, 69
2, 71994, Note_on_c, 0, 44, 83
2, 71994, Control_c, 0, 64, 0
2, 72001, Note_on_c, 0, 56, 83
2, 72006, Note_off_c, 0, 73, 64
2, 72032, Control_c, 0, 64, 127
2, 72091, Note_on_c, 0, 78, 64
2, 72114, Note_off_c, 0, 72, 64
2, 72144, Note_on_c, 0, 69, 66
2, 72144, Note_on_c, 0, 63, 57
2, 72144, Note_on_c, 0, 60, 64
2, 72148, Note_on_c, 0, 72, 58
2, 72150, Note_on_c, 0, 76, 80
2, 72150, Note_on_c, 0, 66, 58
2, 72168, Note_off_c, 0, 78, 64
2, 72171, Control_c, 0, 64, 127
2, 72176, Control_c, 0, 64, 0
2, 72196, Control_c, 0, 64, 127
2, 72240, Note_on_c, 0, 75, 64
2, 72258, Note_off_c, 0, 60, 64
2, 72258, Note_off_c, 0, 63, 64
2, 72258, Note_off_c, 0, 69, 64
2, 72259, Note_off_c, 0, 76, 64
2, 72262, Note_off_c, 0, 72, 64
2, 72264, Note_off_c, 0, 66, 64
2, 72264, Note_off_c, 0, 44, 64
2, 72271, Note_off_c, 0, 56, 64
2, 72310, Note_on_c, 0, 78, 82
2, 72312, Note_on_c, 0, 66, 69
2, 72316, Note_on_c, 0, 69, 66
2, 72320, Note_on_c, 0, 63, 69
2, 72320, Note_on_c, 0, 60, 65
2, 72321, Note_on_c, 0, 72, 73
2, 72330, Note_off_c, 0, 75, 64
2, 72343, Control_c, 0, 64, 0
2, 72359, Control_c, 0, 64, 127
2, 72487, Control_c, 0, 64, 0
2, 72500, Note_on_c, 0, 32, 81
2, 72507, Note_on_c, 0, 44, 98
2, 72537, Control_c, 0, 64, 127
2, 72559, Note_off_c, 0, 78, 64
2, 72561, Note_off_c, 0, 66, 64
2, 72565, Note_off_c, 0, 69, 64
2, 72569, Note_off_c, 0, 60, 64
2, 72569, Note_off_c, 0, 63, 64
2, 72570, Note_off_c, 0, 72, 64
2, 72621, Note_on_c, 0, 75, 67
2, 72672, Control_c, 0, 64, 0
2, 72680, Note_on_c, 0, 66, 67
2, 72681, Note_on_c, 0, 73, 73
2, 72681, Note_on_c, 0, 63, 73
2, 72684, Note_on_c, 0, 69, 77
2, 72684, Note_on_c, 0, 60, 70
2, 72684, Note_on_c, 0, 56, 64
2, 72711, Note_off_c, 0, 75, 64
2, 72727, Control_c, 0, 64, 127
2, 72779, Note_off_c, 0, 32, 64
2, 72785, Note_on_c, 0, 72, 69
2, 72786, Note_off_c, 0, 44, 64
2, 72794, Note_off_c, 0, 66, 64
2, 72795, Note_off_c, 0, 63, 64
2, 72798, Note_off_c, 0, 56, 64
2, 72798, Note_off_c, 0, 60, 64
2, 72798, Note_off_c, 0, 69, 64
2, 72804, Note_off_c, 0, 73, 64
2, 72839, Control_c, 0, 64, 0
2, 72860, Note_on_c, 0, 75, 69
2, 72860, Note_on_c, 0, 66, 73
2, 72860, Note_on_c, 0, 63, 71
2, 72864, Note_on_c, 0, 69, 73
2, 72864, Note_on_c, 0, 60, 73
2, 72865, Note_on_c, 0, 56, 73
2, 72873, Note_off_c, 0, 72, 64
2, 72887, Control_c, 0, 64, 127
2, 72968, Note_on_c, 0, 73, 59
2, 72996, Note_off_c, 0, 75, 64
2, 73009, Note_off_c, 0, 63, 64
2, 73009, Note_off_c, 0, 66, 64
2, 73013, Note_off_c, 0, 60, 64
2, 73013, Note_off_c, 0, 69, 64
2, 73014, Note_off_c, 0, 56, 64
2, 73028, Note_on_c, 0, 44, 83
2, 73035, Note_on_c, 0, 56, 83
2, 73035, Control_c, 0, 64, 0
2, 73044, Note_on_c, 0, 72, 56
2, 73057, Note_off_c, 0, 73, 64
2, 73077, Control_c, 0, 64, 127
2, 73135, Note_on_c, 0, 78, 73
2, 73146, Note_off_c, 0, 72, 64
2, 73200, Note_off_c, 0, 56, 64
2, 73208, Note_on_c, 0, 76, 71
2, 73212, Note_on_c, 0, 69, 69
2, 73212, Note_on_c, 0, 63, 69
2, 73212, Note_on_c, 0, 60, 69
2, 73216, Note_on_c, 0, 72, 69
2, 73216, Note_on_c, 0, 56, 59
2, 73234, Note_off_c, 0, 78, 64
2, 73234, Control_c, 0, 64, 0
2, 73273, Control_c, 0, 64, 127
2, 73313, Note_off_c, 0, 44, 64
2, 73326, Note_off_c, 0, 60, 64
2, 73326, Note_off_c, 0, 63, 64
2, 73326, Note_off_c, 0, 69, 64
2, 73330, Note_off_c, 0, 56, 64
2, 73330, Note_off_c, 0, 72, 64
2, 73331, Note_on_c, 0, 75, 69
2, 73342, Note_off_c, 0, 76, 64
2, 73398, Note_on_c, 0, 76, 71
2, 73400, Note_on_c, 0, 72, 69
2, 73400, Note_on_c, 0, 56, 69
2, 73403, Note_on_c, 0, 60, 66
2, 73404, Note_on_c, 0, 69, 69
2, 73404, Note_on_c, 0, 63, 71
2, 73413, Note_off_c, 0, 75, 64
2, 73413, Control_c, 0, 64, 0
2, 73430, Control_c, 0, 64, 127
2, 73514, Note_off_c, 0, 56, 64
2, 73514, Note_off_c, 0, 72, 64
2, 73517, Note_off_c, 0, 60, 64
2, 73518, Note_off_c, 0, 63, 64
2, 73518, Note_off_c, 0, 69, 64
2, 73529, Note_on_c, 0, 78, 66
2, 73554, Note_off_c, 0, 76, 64
2, 73606, Control_c, 0, 64, 0
2, 73612, Note_on_c, 0, 37, 78
2, 73612, Note_on_c, 0, 68, 86
2, 73612, Note_on_c, 0, 49, 92
2, 73616, Note_on_c, 0, 76, 78
2, 73619, Note_on_c, 0, 80, 77
2, 73619, Note_on_c, 0, 73, 67
2, 73641, Note_off_c, 0, 78, 64
2, 73662, Control_c, 0, 64, 127
2, 73711, Note_off_c, 0, 73, 64
2, 73728, Note_off_c, 0, 80, 64
2, 73728, Note_on_c, 0, 85, 72
2, 73728, Note_on_c, 0, 73, 70
2, 73728, Note_on_c, 0, 61, 72
2, 73730, Note_off_c, 0, 49, 64
2, 73736, Note_on_c, 0, 49, 64
2, 73787, Note_off_c, 0, 68, 64
2, 73787, Control_c, 0, 64, 0
2, 73813, Note_off_c, 0, 61, 64
2, 73821, Note_off_c, 0, 49, 64
2, 73826, Control_c, 0, 64, 127
2, 73828, Note_on_c, 0, 59, 88
2, 73828, Note_on_c, 0, 47, 72
2, 73830, Note_on_c, 0, 71, 83
2, 73832, Note_on_c, 0, 83, 85
2, 73835, Note_off_c, 0, 76, 64
2, 73839, Note_off_c, 0, 73, 64
2, 73839, Note_off_c, 0, 85, 64
2, 74012, Note_on_c, 0, 57, 73
2, 74012, Note_on_c, 0, 45, 73
2, 74016, Note_on_c, 0, 69, 73
2, 74019, Note_on_c, 0, 81, 69
2, 74020, Note_off_c, 0, 47, 64
2, 74020, Note_off_c, 0, 59, 64
2, 74022, Note_off_c, 0, 71, 64
2, 74024, Note_off_c, 0, 83, 64
2, 74066, Note_off_c, 0, 37, 64
2, 74149, Control_c, 0, 64, 127
2, 74203, Control_c, 0, 64, 0
2, 74210, Note_on_c, 0, 80, 71
2, 74212, Note_on_c, 0, 76, 69
2, 74212, Note_on_c, 0, 73, 71
2, 74212, Note_on_c, 0, 68, 82
2, 74212, Note_on_c, 0, 56, 74
2, 74212, Note_on_c, 0, 52, 69
2, 74212, Note_on_c, 0, 49, 71
2, 74212, Note_on_c, 0, 44, 77
2, 74229, Note_off_c, 0, 45, 64
2, 74229, Note_off_c, 0, 57, 64
2, 74233, Note_off_c, 0, 69, 64
2, 74236, Note_off_c, 0, 81, 64
2, 74241, Control_c, 0, 64, 127
2, 74321, Note_off_c, 0, 49, 64
2, 74321, Note_off_c, 0, 52, 64
2, 74321, Note_off_c, 0, 73, 64
2, 74321, Note_off_c, 0, 76, 64
2, 74332, Note_on_c, 0, 40, 65
2, 74334, Note_on_c, 0, 52, 74
2, 74339, Note_on_c, 0, 76, 77
2, 74339, Note_on_c, 0, 64, 74
2, 74340, Note_off_c, 0, 80, 64
2, 74342, Note_off_c, 0, 44, 64
2, 74342, Note_off_c, 0, 56, 64
2, 74342, Note_off_c, 0, 68, 64
2, 74369, Control_c, 0, 64, 0
2, 74392, Note_on_c, 0, 73, 74
2, 74398, Note_on_c, 0, 37, 86
2, 74399, Note_on_c, 0, 61, 78
2, 74399, Note_on_c, 0, 49, 87
2, 74400, Note_off_c, 0, 40, 64
2, 74402, Note_off_c, 0, 52, 64
2, 74407, Note_off_c, 0, 64, 64
2, 74407, Note_off_c, 0, 76, 64
2, 74415, Control_c, 0, 64, 127
2, 74578, Control_c, 0, 64, 0
2, 74588, Note_on_c, 0, 74, 66
2, 74588, Note_on_c, 0, 62, 69
2, 74588, Note_on_c, 0, 50, 73
2, 74588, Note_on_c, 0, 38, 69
2, 74598, Control_c, 0, 64, 127
2, 74605, Note_off_c, 0, 73, 64
2, 74611, Note_off_c, 0, 37, 64
2, 74612, Note_off_c, 0, 49, 64
2, 74612, Note_off_c, 0, 61, 64
2, 74663, Control_c, 0, 64, 0
2, 74692, Control_c, 0, 64, 127
2, 74755, Control_c, 0, 64, 0
2, 74760, Note_on_c, 0, 73, 71
2, 74760, Note_on_c, 0, 52, 74
2, 74760, Note_on_c, 0, 49, 69
2, 74760, Note_on_c, 0, 44, 69
2, 74760, Note_on_c, 0, 40, 65
2, 74762, Note_on_c, 0, 76, 71
2, 74762, Note_on_c, 0, 68, 69
2, 74763, Note_on_c, 0, 64, 73
2, 74770, Note_off_c, 0, 38, 64
2, 74770, Note_off_c, 0, 50, 64
2, 74770, Note_off_c, 0, 62, 64
2, 74770, Note_off_c, 0, 74, 64
2, 74784, Control_c, 0, 64, 127
2, 74880, Note_on_c, 0, 78, 77
2, 74880, Note_on_c, 0, 66, 83
2, 74881, Note_off_c, 0, 76, 64
2, 74883, Note_on_c, 0, 42, 82
2, 74884, Note_on_c, 0, 54, 80
2, 74890, Note_off_c, 0, 40, 64
2, 74890, Note_off_c, 0, 44, 64
2, 74890, Note_off_c, 0, 49, 64
2, 74890, Note_off_c, 0, 52, 64
2, 74890, Note_off_c, 0, 73, 64
2, 74892, Note_off_c, 0, 68, 64
2, 74893, Note_off_c, 0, 64, 64
2, 74933, Control_c, 0, 64, 0
2, 74940, Note_on_c, 0, 68, 82
2, 74942, Note_on_c, 0, 80, 80
2, 74944, Note_on_c, 0, 56, 83
2, 74948, Note_off_c, 0, 66, 64
2, 74948, Note_off_c, 0, 78, 64
2, 74948, Note_on_c, 0, 44, 69
2, 74951, Note_off_c, 0, 42, 64
2, 74952, Note_off_c, 0, 54, 64
2, 74961, Control_c, 0, 64, 127
2, 75116, Note_on_c, 0, 57, 67
2, 75120, Note_on_c, 0, 81, 69
2, 75120, Note_on_c, 0, 69, 78
2, 75122, Note_on_c, 0, 45, 66
2, 75134, Note_off_c, 0, 68, 64
2, 75136, Note_off_c, 0, 80, 64
2, 75138, Note_off_c, 0, 56, 64
2, 75142, Note_off_c, 0, 44, 64
2, 75142, Control_c, 0, 64, 0
2, 75171, Control_c, 0, 64, 127
2, 75300, Note_on_c, 0, 76, 70
2, 75300, Note_on_c, 0, 73, 71
2, 75304, Note_on_c, 0, 68, 86
2, 75304, Note_on_c, 0, 56, 71
2, 75304, Note_on_c, 0, 52, 71
2, 75304, Note_on_c, 0, 49, 46
2, 75306, Note_on_c, 0, 80, 74
2, 75306, Note_on_c, 0, 44, 73
2, 75310, Note_off_c, 0, 57, 64
2, 75314, Note_off_c, 0, 69, 64
2, 75314, Note_off_c, 0, 81, 64
2, 75316, Note_off_c, 0, 45, 64
2, 75324, Control_c, 0, 64, 0
2, 75339, Control_c, 0, 64, 127
2, 75395, Note_off_c, 0, 73, 64
2, 75395, Note_off_c, 0, 76, 64
2, 75399, Note_off_c, 0, 49, 64
2, 75399, Note_off_c, 0, 52, 64
2, 75412, Note_on_c, 0, 76, 69
2, 75416, Note_on_c, 0, 64, 80
2, 75416, Note_on_c, 0, 52, 77
2, 75418, Note_off_c, 0, 56, 64
2, 75418, Note_off_c, 0, 68, 64
2, 75419, Note_on_c, 0, 40, 66
2, 75420, Note_off_c, 0, 80, 64
2, 75431, Note_off_c, 0, 44, 64
2, 75463, Control_c, 0, 64, 0
2, 75476, Note_on_c, 0, 73, 65
2, 75479, Note_off_c, 0, 76, 64
2, 75479, Note_on_c, 0, 61, 85
2, 75480, Note_on_c, 0, 49, 82
2, 75480, Note_on_c, 0, 37, 80
2, 75483, Note_off_c, 0, 52, 64
2, 75483, Note_off_c, 0, 64, 64
2, 75486, Note_off_c, 0, 40, 64
2, 75491, Control_c, 0, 64, 127
2, 75571, Control_c, 0, 64, 0
2, 75599, Control_c, 0, 64, 127
2, 75648, Note_on_c, 0, 74, 85
2, 75649, Note_on_c, 0, 62, 73
2, 75652, Note_on_c, 0, 38, 67
2, 75653, Note_off_c, 0, 73, 64
2, 75654, Note_on_c, 0, 50, 71
2, 75656, Note_off_c, 0, 61, 64
2, 75657, Note_off_c, 0, 37, 64
2, 75657, Note_off_c, 0, 49, 64
2, 75806, Control_c, 0, 64, 0
2, 75823, Note_on_c, 0, 40, 64
2, 75829, Note_on_c, 0, 73, 73
2, 75829, Note_on_c, 0, 64, 77
2, 75829, Note_on_c, 0, 52, 73
2, 75830, Note_on_c, 0, 76, 73
2, 75842, Note_off_c, 0, 74, 64
2, 75842, Note_off_c, 0, 38, 64
2, 75843, Note_off_c, 0, 62, 64
2, 75844, Note_off_c, 0, 50, 64
2, 75855, Control_c, 0, 64, 127
2, 75932, Note_off_c, 0, 40, 64
2, 75938, Note_off_c, 0, 52, 64
2, 75938, Note_off_c, 0, 64, 64
2, 75938, Note_off_c, 0, 73, 64
2, 75939, Note_off_c, 0, 76, 64
2, 75944, Note_on_c, 0, 49, 82
2, 75948, Note_on_c, 0, 76, 73
2, 75948, Note_on_c, 0, 61, 89
2, 75950, Note_on_c, 0, 64, 73
2, 75951, Note_on_c, 0, 73, 85
2, 75970, Note_off_c, 0, 73, 64
2, 75973, Note_off_c, 0, 64, 64
2, 75974, Note_off_c, 0, 76, 64
2, 75986, Note_off_c, 0, 49, 64
2, 75988, Note_on_c, 0, 59, 70
2, 75988, Note_on_c, 0, 47, 62
2, 75989, Note_on_c, 0, 64, 73
2, 75995, Note_on_c, 0, 76, 73
2, 75995, Note_on_c, 0, 73, 80
2, 75996, Note_off_c, 0, 61, 64
2, 76002, Control_c, 0, 64, 0
2, 76029, Control_c, 0, 64, 127
2, 76108, Note_off_c, 0, 73, 64
2, 76116, Note_off_c, 0, 64, 64
2, 76123, Note_off_c, 0, 76, 64
2, 76182, Note_on_c, 0, 45, 87
2, 76184, Note_on_c, 0, 76, 73
2, 76185, Note_on_c, 0, 73, 80
2, 76193, Note_on_c, 0, 64, 73
2, 76193, Note_on_c, 0, 57, 83
2, 76199, Note_off_c, 0, 47, 64
2, 76199, Note_off_c, 0, 59, 64
2, 76200, Control_c, 0, 64, 0
2, 76219, Control_c, 0, 64, 127
2, 76277, Note_off_c, 0, 73, 64
2, 76278, Note_off_c, 0, 76, 64
2, 76280, Note_off_c, 0, 64, 64
2, 76368, Note_on_c, 0, 56, 83
2, 76368, Note_on_c, 0, 44, 80
2, 76369, Note_on_c, 0, 73, 85
2, 76369, Note_on_c, 0, 64, 74
2, 76373, Note_on_c, 0, 76, 74
2, 76375, Control_c, 0, 64, 0
2, 76378, Note_off_c, 0, 45, 64
2, 76389, Note_off_c, 0, 57, 64
2, 76392, Control_c, 0, 64, 127
2, 76406, Note_off_c, 0, 64, 64
2, 76414, Note_off_c, 0, 76, 64
2, 76414, Note_off_c, 0, 73, 64
2, 76491, Note_on_c, 0, 73, 82
2, 76492, Note_on_c, 0, 41, 69
2, 76493, Note_on_c, 0, 76, 73
2, 76493, Note_on_c, 0, 64, 73
2, 76496, Note_on_c, 0, 52, 74
2, 76503, Note_off_c, 0, 44, 64
2, 76503, Note_off_c, 0, 56, 64
2, 76513, Note_off_c, 0, 73, 64
2, 76516, Note_off_c, 0, 64, 64
2, 76516, Note_off_c, 0, 76, 64
2, 76527, Control_c, 0, 64, 0
2, 76536, Note_off_c, 0, 52, 64
2, 76536, Note_off_c, 0, 41, 64
2, 76536, Note_on_c, 0, 49, 89
2, 76539, Note_on_c, 0, 76, 73
2, 76539, Note_on_c, 0, 73, 80
2, 76539, Note_on_c, 0, 64, 70
2, 76540, Note_on_c, 0, 37, 85
2, 76563, Control_c, 0, 64, 127
2, 76661, Note_off_c, 0, 76, 64
2, 76666, Note_off_c, 0, 64, 64
2, 76667, Note_off_c, 0, 73, 64
2, 76723, Note_on_c, 0, 73, 78
2, 76725, Note_on_c, 0, 38, 83
2, 76729, Note_on_c, 0, 76, 73
2, 76729, Note_on_c, 0, 64, 73
2, 76729, Note_on_c, 0, 50, 86
2, 76730, Note_off_c, 0, 49, 64
2, 76734, Note_off_c, 0, 37, 64
2, 76746, Control_c, 0, 64, 0
2, 76772, Control_c, 0, 64, 127
2, 76802, Note_off_c, 0, 64, 64
2, 76807, Note_off_c, 0, 73, 64
2, 76810, Note_off_c, 0, 76, 64
2, 76895, Control_c, 0, 64, 0
2, 76903, Note_on_c, 0, 76, 73
2, 76903, Note_on_c, 0, 73, 80
2, 76903, Note_on_c, 0, 64, 74
2, 76905, Note_on_c, 0, 40, 78
2, 76910, Note_on_c, 0, 52, 80
2, 76919, Note_off_c, 0, 38, 64
2, 76923, Note_off_c, 0, 50, 64
2, 76929, Control_c, 0, 64, 127
2, 76969, Note_off_c, 0, 64, 64
2, 76969, Note_off_c, 0, 73, 64
2, 76969, Note_off_c, 0, 76, 64
2, 77020, Note_on_c, 0, 76, 71
2, 77023, Note_on_c, 0, 73, 83
2, 77024, Note_on_c, 0, 64, 73
2, 77024, Note_on_c, 0, 54, 89
2, 77024, Note_on_c, 0, 42, 87
2, 77029, Note_off_c, 0, 40, 64
2, 77034, Note_off_c, 0, 52, 64
2, 77042, Note_off_c, 0, 76, 64
2, 77047, Note_off_c, 0, 73, 64
2, 77051, Note_off_c, 0, 64, 64
2, 77059, Control_c, 0, 64, 0
2, 77064, Note_on_c, 0, 64, 73
2, 77069, Note_on_c, 0, 76, 74
2, 77069, Note_on_c, 0, 73, 83
2, 77079, Note_on_c, 0, 44, 85
2, 77080, Note_on_c, 0, 56, 92
2, 77081, Note_off_c, 0, 42, 64
2, 77081, Note_off_c, 0, 54, 64
2, 77095, Control_c, 0, 64, 127
2, 77185, Note_off_c, 0, 64, 64
2, 77196, Note_off_c, 0, 76, 64
2, 77197, Note_off_c, 0, 73, 64
2, 77263, Note_on_c, 0, 73, 71
2, 77264, Note_on_c, 0, 57, 90
2, 77270, Note_on_c, 0, 76, 69
2, 77270, Note_on_c, 0, 64, 71
2, 77273, Note_off_c, 0, 44, 64
2, 77273, Note_on_c, 0, 45, 81
2, 77274, Note_off_c, 0, 56, 64
2, 77284, Control_c, 0, 64, 0
2, 77312, Control_c, 0, 64, 127
2, 77370, Note_off_c, 0, 73, 64
2, 77374, Note_off_c, 0, 76, 64
2, 77383, Note_off_c, 0, 64, 64
2, 77460, Note_on_c, 0, 76, 71
2, 77460, Note_on_c, 0, 73, 78
2, 77460, Note_on_c, 0, 64, 74
2, 77468, Note_on_c, 0, 44, 87
2, 77470, Note_on_c, 0, 56, 87
2, 77471, Control_c, 0, 64, 0
2, 77477, Note_off_c, 0, 57, 64
2, 77484, Control_c, 0, 64, 127
2, 77486, Note_off_c, 0, 45, 64
2, 77526, Note_off_c, 0, 64, 64
2, 77526, Note_off_c, 0, 73, 64
2, 77526, Note_off_c, 0, 76, 64
2, 77624, Note_on_c, 0, 52, 82
2, 77627, Note_on_c, 0, 76, 69
2, 77627, Note_on_c, 0, 40, 73
2, 77628, Note_on_c, 0, 73, 78
2, 77628, Note_on_c, 0, 64, 74
2, 77631, Note_off_c, 0, 44, 64
2, 77633, Note_off_c, 0, 56, 64
2, 77651, Note_off_c, 0, 64, 64
2, 77651, Note_off_c, 0, 73, 64
2, 77655, Note_off_c, 0, 76, 64
2, 77668, Note_on_c, 0, 37, 92
2, 77671, Note_on_c, 0, 64, 71
2, 77672, Note_off_c, 0, 52, 64
2, 77672, Note_on_c, 0, 49, 92
2, 77675, Note_off_c, 0, 40, 64
2, 77676, Note_on_c, 0, 73, 83
2, 77678, Note_on_c, 0, 76, 74
2, 77689, Control_c, 0, 64, 0
2, 77730, Control_c, 0, 64, 127
2, 77816, Note_off_c, 0, 76, 64
2, 77822, Note_off_c, 0, 73, 64
2, 77831, Note_off_c, 0, 64, 64
2, 77944, Note_on_c, 0, 75, 74
2, 77946, Note_on_c, 0, 61, 77
2, 77950, Note_on_c, 0, 67, 73
2, 77954, Note_on_c, 0, 51, 83
2, 77954, Note_on_c, 0, 39, 71
2, 77960, Note_off_c, 0, 37, 64
2, 77964, Note_off_c, 0, 49, 64
2, 77983, Control_c, 0, 64, 0
2, 78026, Control_c, 0, 64, 127
2, 78178, Note_off_c, 0, 39, 64
2, 78178, Note_off_c, 0, 51, 64
2, 78199, Note_off_c, 0, 75, 64
2, 78213, Note_off_c, 0, 67, 64
2, 78214, Note_off_c, 0, 61, 64
2, 78252, Note_on_c, 0, 32, 50
2, 78254, Note_on_c, 0, 54, 54
2, 78256, Note_on_c, 0, 44, 50
2, 78257, Note_on_c, 0, 64, 69
2, 78286, Control_c, 0, 64, 0
2, 78361, Control_c, 0, 64, 127
2, 78416, Note_on_c, 0, 63, 71
2, 78430, Note_off_c, 0, 64, 64
2, 78466, Note_on_c, 0, 66, 83
2, 78482, Note_off_c, 0, 63, 64
2, 78506, Note_off_c, 0, 32, 64
2, 78510, Note_off_c, 0, 44, 64
2, 78532, Note_off_c, 0, 54, 64
2, 78660, Note_on_c, 0, 32, 33
2, 78664, Note_on_c, 0, 54, 73
2, 78664, Note_on_c, 0, 44, 73
2, 78684, Control_c, 0, 64, 0
2, 78730, Control_c, 0, 64, 127
2, 78776, Note_on_c, 0, 60, 77
2, 78787, Note_off_c, 0, 66, 64
2, 78825, Note_off_c, 0, 44, 64
2, 78866, Note_off_c, 0, 32, 64
2, 78866, Note_on_c, 0, 63, 78
2, 78868, Note_on_c, 0, 44, 77
2, 78868, Note_on_c, 0, 37, 77
2, 78872, Note_on_c, 0, 52, 77
2, 78875, Note_off_c, 0, 60, 64
2, 78875, Control_c, 0, 64, 0
2, 78923, Control_c, 0, 64, 127
2, 78938, Note_off_c, 0, 54, 64
2, 79028, Note_on_c, 0, 61, 65
2, 79037, Note_off_c, 0, 63, 64
2, 79085, Note_on_c, 0, 64, 80
2, 79109, Note_off_c, 0, 61, 64
2, 79142, Note_off_c, 0, 37, 64
2, 79142, Note_off_c, 0, 44, 64
2, 79146, Note_off_c, 0, 52, 64
2, 79256, Note_on_c, 0, 44, 77
2, 79260, Note_on_c, 0, 37, 69
2, 79261, Note_on_c, 0, 52, 77
2, 79276, Control_c, 0, 64, 0
2, 79291, Control_c, 0, 64, 127
2, 79320, Control_c, 0, 64, 127
2, 79344, Note_on_c, 0, 57, 73
2, 79376, Note_off_c, 0, 64, 64
2, 79437, Note_off_c, 0, 44, 64
2, 79441, Note_on_c, 0, 56, 79
2, 79445, Note_on_c, 0, 44, 71
2, 79446, Note_off_c, 0, 37, 64
2, 79447, Note_off_c, 0, 52, 64
2, 79451, Note_on_c, 0, 36, 70
2, 79455, Note_on_c, 0, 51, 85
2, 79457, Control_c, 0, 64, 0
2, 79464, Note_off_c, 0, 57, 64
2, 79510, Control_c, 0, 64, 127
2, 79594, Note_on_c, 0, 57, 71
2, 79600, Note_off_c, 0, 56, 64
2, 79615, Control_c, 0, 64, 0
2, 79640, Note_on_c, 0, 56, 74
2, 79665, Note_off_c, 0, 57, 64
2, 79671, Control_c, 0, 64, 127
2, 79775, Note_off_c, 0, 56, 64
2, 79777, Note_off_c, 0, 44, 64
2, 79784, Note_off_c, 0, 36, 64
2, 79787, Note_off_c, 0, 51, 64
2, 79807, Control_c, 0, 64, 0
2, 79808, Note_on_c, 0, 56, 85
2, 79812, Note_on_c, 0, 51, 77
2, 79812, Note_on_c, 0, 44, 60
2, 79812, Note_on_c, 0, 36, 59
2, 79855, Control_c, 0, 64, 127
2, 79880, Control_c, 0, 64, 127
2, 79992, Control_c, 0, 64, 0
2, 80005, Note_on_c, 0, 37, 60
2, 80008, Note_on_c, 0, 52, 64
2, 80009, Note_off_c, 0, 44, 64
2, 80013, Note_on_c, 0, 44, 46
2, 80022, Note_off_c, 0, 36, 64
2, 80022, Note_off_c, 0, 51, 64
2, 80066, Control_c, 0, 64, 127
2, 80147, Note_on_c, 0, 57, 59
2, 80166, Note_off_c, 0, 56, 64
2, 80167, Control_c, 0, 64, 0
2, 80190, Note_on_c, 0, 56, 65
2, 80219, Note_off_c, 0, 57, 64
2, 80229, Control_c, 0, 64, 127
2, 80350, Note_off_c, 0, 37, 64
2, 80353, Note_off_c, 0, 52, 64
2, 80358, Note_off_c, 0, 44, 64
2, 80363, Note_on_c, 0, 37, 44
2, 80364, Note_on_c, 0, 52, 56
2, 80370, Note_on_c, 0, 44, 48
2, 80524, Note_off_c, 0, 56, 64
2, 80538, Note_off_c, 0, 37, 64
2, 80539, Note_off_c, 0, 52, 64
2, 80545, Note_off_c, 0, 44, 64
2, 80552, Note_on_c, 0, 32, 51
2, 80552, Note_on_c, 0, 44, 51
2, 80554, Note_on_c, 0, 64, 52
2, 80556, Note_on_c, 0, 54, 56
2, 80571, Control_c, 0, 64, 0
2, 80633, Control_c, 0, 64, 127
2, 80688, Note_on_c, 0, 63, 50
2, 80705, Note_off_c, 0, 64, 64
2, 80718, Control_c, 0, 64, 0
2, 80741, Note_on_c, 0, 66, 62
2, 80758, Note_off_c, 0, 63, 64
2, 80764, Control_c, 0, 64, 127
2, 80908, Note_off_c, 0, 44, 64
2, 80908, Note_off_c, 0, 32, 64
2, 80912, Note_off_c, 0, 54, 64
2, 80916, Note_on_c, 0, 54, 49
2, 80917, Note_on_c, 0, 32, 48
2, 80921, Note_on_c, 0, 44, 49
2, 80938, Control_c, 0, 64, 0
2, 80983, Control_c, 0, 64, 127
2, 81008, Note_on_c, 0, 60, 55
2, 81040, Note_off_c, 0, 66, 64
2, 81103, Note_off_c, 0, 54, 64
2, 81104, Note_off_c, 0, 32, 64
2, 81107, Control_c, 0, 64, 0
2, 81108, Note_off_c, 0, 44, 64
2, 81118, Control_c, 0, 64, 0
2, 81120, Note_on_c, 0, 63, 52
2, 81120, Note_on_c, 0, 52, 49
2, 81120, Note_on_c, 0, 44, 51
2, 81120, Note_on_c, 0, 37, 46
2, 81130, Note_off_c, 0, 60, 64
2, 81183, Control_c, 0, 64, 127
2, 81244, Note_on_c, 0, 61, 51
2, 81255, Note_off_c, 0, 63, 64
2, 81297, Control_c, 0, 64, 0
2, 81307, Note_on_c, 0, 64, 58
2, 81322, Note_off_c, 0, 61, 64
2, 81336, Control_c, 0, 64, 127
2, 81450, Note_off_c, 0, 37, 64
2, 81450, Note_off_c, 0, 44, 64
2, 81450, Note_off_c, 0, 52, 64
2, 81480, Note_on_c, 0, 37, 41
2, 81480, Note_on_c, 0, 52, 49
2, 81481, Note_on_c, 0, 44, 48
2, 81487, Control_c, 0, 64, 0
2, 81530, Control_c, 0, 64, 127
2, 81558, Note_on_c, 0, 57, 50
2, 81597, Note_off_c, 0, 64, 64
2, 81651, Note_off_c, 0, 44, 64
2, 81651, Note_on_c, 0, 56, 58
2, 81659, Note_on_c, 0, 51, 64
2, 81659, Note_on_c, 0, 36, 46
2, 81661, Note_on_c, 0, 44, 47
2, 81663, Note_off_c, 0, 52, 64
2, 81663, Note_off_c, 0, 37, 64
2, 81669, Note_off_c, 0, 57, 64
2, 81670, Control_c, 0, 64, 0
2, 81733, Control_c, 0, 64, 127
2, 81792, Note_on_c, 0, 57, 52
2, 81799, Note_off_c, 0, 56, 64
2, 81818, Control_c, 0, 64, 0
2, 81830, Note_on_c, 0, 56, 62
2, 81846, Note_off_c, 0, 57, 64
2, 81965, Note_off_c, 0, 56, 64
2, 81999, Note_off_c, 0, 36, 64
2, 81999, Note_off_c, 0, 51, 64
2, 82001, Note_off_c, 0, 44, 64
2, 82014, Note_on_c, 0, 51, 49
2, 82014, Note_on_c, 0, 36, 45
2, 82016, Note_on_c, 0, 56, 60
2, 82020, Note_on_c, 0, 44, 43
2, 82030, Control_c, 0, 64, 127
2, 82187, Control_c, 0, 64, 0
2, 82193, Note_off_c, 0, 44, 64
2, 82196, Note_on_c, 0, 52, 56
2, 82199, Note_off_c, 0, 51, 64
2, 82200, Note_on_c, 0, 44, 58
2, 82204, Note_on_c, 0, 37, 58
2, 82207, Note_off_c, 0, 36, 64
2, 82337, Note_on_c, 0, 57, 52
2, 82358, Note_off_c, 0, 56, 64
2, 82379, Control_c, 0, 64, 127
2, 82383, Note_on_c, 0, 56, 58
2, 82399, Note_off_c, 0, 57, 64
2, 82487, Control_c, 0, 64, 0
2, 82552, Note_off_c, 0, 52, 64
2, 82556, Note_off_c, 0, 44, 64
2, 82557, Note_on_c, 0, 52, 48
2, 82560, Note_off_c, 0, 37, 64
2, 82564, Note_on_c, 0, 44, 42
2, 82564, Note_on_c, 0, 37, 43
2, 82579, Control_c, 0, 64, 127
2, 82737, Note_off_c, 0, 44, 64
2, 82740, Note_off_c, 0, 52, 64
2, 82743, Note_off_c, 0, 37, 64
2, 82746, Note_on_c, 0, 36, 48
2, 82747, Note_on_c, 0, 51, 48
2, 82747, Control_c, 0, 64, 0
2, 82754, Note_on_c, 0, 44, 37
2, 82913, Note_on_c, 0, 57, 42
2, 82923, Note_off_c, 0, 56, 64
2, 82949, Note_on_c, 0, 56, 46
2, 82960, Note_off_c, 0, 57, 64
2, 83084, Note_off_c, 0, 56, 64
2, 83111, Note_off_c, 0, 36, 64
2, 83112, Note_off_c, 0, 51, 64
2, 83117, Note_on_c, 0, 56, 46
2, 83119, Note_off_c, 0, 44, 64
2, 83132, Note_on_c, 0, 51, 32
2, 83132, Note_on_c, 0, 36, 34
2, 83135, Note_on_c, 0, 44, 39
2, 83155, Control_c, 0, 64, 127
2, 83335, Note_on_c, 0, 52, 47
2, 83337, Note_off_c, 0, 36, 64
2, 83337, Note_off_c, 0, 51, 64
2, 83340, Note_off_c, 0, 44, 64
2, 83340, Note_on_c, 0, 44, 46
2, 83349, Note_on_c, 0, 37, 39
2, 83361, Control_c, 0, 64, 0
2, 83499, Note_on_c, 0, 57, 48
2, 83518, Note_off_c, 0, 56, 64
2, 83522, Control_c, 0, 64, 127
2, 83546, Note_on_c, 0, 56, 48
2, 83564, Note_off_c, 0, 57, 64
2, 83716, Note_off_c, 0, 52, 64
2, 83721, Note_off_c, 0, 44, 64
2, 83730, Note_off_c, 0, 37, 64
2, 83744, Note_on_c, 0, 37, 26
2, 83746, Note_on_c, 0, 44, 41
2, 83752, Control_c, 0, 64, 0
2, 83757, Note_on_c, 0, 52, 46
2, 83803, Control_c, 0, 64, 127
2, 83960, Note_off_c, 0, 44, 64
2, 83963, Note_on_c, 0, 51, 52
2, 83964, Note_on_c, 0, 44, 42
2, 83969, Note_off_c, 0, 37, 64
2, 83972, Note_off_c, 0, 52, 64
2, 83980, Note_on_c, 0, 32, 42
2, 83996, Control_c, 0, 64, 0
2, 84144, Note_on_c, 0, 57, 29
2, 84167, Note_off_c, 0, 56, 64
2, 84183, Note_on_c, 0, 56, 35
2, 84189, Note_off_c, 0, 57, 64
2, 84190, Control_c, 0, 64, 127
2, 84324, Control_c, 0, 64, 0
2, 84369, Note_off_c, 0, 51, 64
2, 84374, Note_off_c, 0, 44, 64
2, 84382, Note_off_c, 0, 32, 64
2, 84406, Note_on_c, 0, 44, 42
2, 84408, Note_on_c, 0, 32, 42
2, 84410, Note_on_c, 0, 51, 37
2, 84433, Control_c, 0, 64, 0
2, 84448, Control_c, 0, 64, 0
2, 84477, Control_c, 0, 64, 127
2, 84615, Note_off_c, 0, 44, 64
2, 84617, Note_off_c, 0, 32, 64
2, 84636, Note_on_c, 0, 32, 42
2, 84641, Note_on_c, 0, 44, 43
2, 84672, Control_c, 0, 64, 0
2, 84680, Control_c, 0, 64, 0
2, 84701, Control_c, 0, 64, 127
2, 84854, Note_on_c, 0, 52, 41
2, 84859, Note_off_c, 0, 51, 64
2, 84906, Control_c, 0, 64, 0
2, 84917, Note_on_c, 0, 51, 56
2, 84929, Note_off_c, 0, 52, 64
2, 84955, Control_c, 0, 64, 127
2, 85178, Note_off_c, 0, 32, 64
2, 85179, Note_off_c, 0, 44, 64
2, 85208, Note_on_c, 0, 32, 42
2, 85215, Note_on_c, 0, 44, 34
2, 85218, Control_c, 0, 64, 0
2, 85280, Control_c, 0, 64, 127
2, 85457, Note_on_c, 0, 49, 34
2, 85467, Note_off_c, 0, 51, 64
2, 85636, Control_c, 0, 64, 0
2, 85719, Note_off_c, 0, 56, 64
2, 85747, Note_off_c, 0, 44, 64
2, 85750, Note_off_c, 0, 32, 64
2, 85760, Note_off_c, 0, 49, 64
2, 85761, Note_on_c, 0, 56, 33
2, 85768, Note_on_c, 0, 37, 29
2, 85768, Note_on_c, 0, 44, 39
2, 85773, Note_on_c, 0, 49, 34
2, 85826, Control_c, 0, 64, 0
2, 86087, Control_c, 0, 64, 127
2, 87842, Note_off_c, 0, 37, 64
2, 87842, Note_off_c, 0, 49, 64
2, 87846, Note_off_c, 0, 44, 64
2, 87865, Note_off_c, 0, 56, 64
2, 88237, Control_c, 0, 64, 0
2, 89857, Control_c, 0, 64, 127
2, 90527, Note_on_c, 0, 71, 49
2, 90529, Note_on_c, 0, 68, 47
2, 90531, Note_on_c, 0, 64, 49
2, 90531, Note_on_c, 0, 52, 46
2, 90538, Note_on_c, 0, 62, 32
2, 90837, Note_off_c, 0, 71, 64
2, 90839, Note_off_c, 0, 68, 64
2, 90841, Note_off_c, 0, 52, 64
2, 90841, Note_off_c, 0, 64, 64
2, 90848, Note_off_c, 0, 62, 64
2, 90859, Note_on_c, 0, 71, 55
2, 90862, Note_on_c, 0, 52, 48
2, 90868, Note_on_c, 0, 64, 47
2, 90869, Note_on_c, 0, 62, 48
2, 90869, Note_on_c, 0, 68, 48
2, 91218, Note_off_c, 0, 64, 64
2, 91219, Note_off_c, 0, 68, 64
2, 91219, Note_off_c, 0, 62, 64
2, 91219, Note_on_c, 0, 72, 54
2, 91224, Note_on_c, 0, 68, 39
2, 91227, Note_off_c, 0, 52, 64
2, 91230, Note_off_c, 0, 71, 64
2, 91231, Note_on_c, 0, 64, 42
2, 91231, Note_on_c, 0, 62, 46
2, 91234, Note_on_c, 0, 52, 49
2, 91563, Note_on_c, 0, 71, 55
2, 91604, Note_off_c, 0, 72, 64
2, 91620, Note_off_c, 0, 71, 64
2, 91642, Note_off_c, 0, 64, 64
2, 91645, Note_off_c, 0, 68, 64
2, 91658, Note_off_c, 0, 62, 64
2, 91660, Note_on_c, 0, 71, 58
2, 91661, Note_off_c, 0, 52, 64
2, 91666, Note_on_c, 0, 60, 56
2, 91666, Note_on_c, 0, 64, 55
2, 91671, Note_on_c, 0, 52, 40
2, 91673, Note_on_c, 0, 45, 47
2, 91733, Control_c, 0, 64, 0
2, 91774, Control_c, 0, 64, 127
2, 92003, Note_on_c, 0, 69, 51
2, 92031, Note_off_c, 0, 71, 64
2, 92304, Note_on_c, 0, 68, 49
2, 92347, Note_off_c, 0, 69, 64
2, 92396, Note_on_c, 0, 69, 49
2, 92413, Control_c, 0, 64, 0
2, 92423, Note_off_c, 0, 68, 64
2, 92531, Control_c, 0, 64, 127
2, 92846, Note_off_c, 0, 69, 64
2, 92857, Note_off_c, 0, 64, 64
2, 92857, Note_off_c, 0, 60, 64
2, 92862, Note_off_c, 0, 52, 64
2, 92864, Note_off_c, 0, 45, 64
2, 92887, Note_on_c, 0, 63, 46
2, 92898, Note_on_c, 0, 66, 49
2, 92903, Note_on_c, 0, 47, 37
2, 92908, Note_on_c, 0, 57, 25
2, 92908, Note_on_c, 0, 59, 25
2, 92940, Control_c, 0, 64, 0
2, 92977, Control_c, 0, 64, 127
2, 93160, Note_off_c, 0, 66, 64
2, 93165, Note_off_c, 0, 63, 64
2, 93176, Note_off_c, 0, 47, 64
2, 93178, Note_off_c, 0, 59, 64
2, 93182, Note_off_c, 0, 57, 64
2, 93219, Note_on_c, 0, 63, 44
2, 93219, Note_on_c, 0, 59, 40
2, 93221, Note_on_c, 0, 66, 56
2, 93225, Note_on_c, 0, 57, 42
2, 93225, Note_on_c, 0, 47, 47
2, 93498, Note_off_c, 0, 63, 64
2, 93505, Note_off_c, 0, 57, 64
2, 93509, Note_off_c, 0, 47, 64
2, 93511, Note_off_c, 0, 59, 64
2, 93545, Note_on_c, 0, 63, 51
2, 93549, Note_on_c, 0, 67, 66
2, 93549, Note_on_c, 0, 59, 46
2, 93549, Note_on_c, 0, 57, 48
2, 93558, Note_on_c, 0, 47, 52
2, 93559, Note_off_c, 0, 66, 64
2, 93598, Control_c, 0, 64, 0
2, 93610, Control_c, 0, 64, 127
2, 93800, Note_on_c, 0, 66, 54
2, 93821, Note_off_c, 0, 63, 64
2, 93824, Note_off_c, 0, 59, 64
2, 93825, Note_off_c, 0, 67, 64
2, 93826, Note_off_c, 0, 57, 64
2, 93832, Note_off_c, 0, 47, 64
2, 93866, Note_off_c, 0, 66, 64
2, 93902, Note_on_c, 0, 57, 51
2, 93903, Note_on_c, 0, 60, 52
2, 93906, Note_on_c, 0, 66, 51
2, 93912, Note_on_c, 0, 40, 46
2, 93925, Note_on_c, 0, 52, 31
2, 93954, Control_c, 0, 64, 0
2, 93985, Control_c, 0, 64, 127
2, 94077, Note_on_c, 0, 64, 50
2, 94105, Note_off_c, 0, 66, 64
2, 94150, Note_off_c, 0, 57, 64
2, 94151, Note_off_c, 0, 60, 64
2, 94200, Note_off_c, 0, 64, 64
2, 94212, Note_on_c, 0, 66, 50
2, 94248, Note_on_c, 0, 59, 46
2, 94258, Note_on_c, 0, 55, 39
2, 94258, Note_on_c, 0, 64, 50
2, 94285, Note_off_c, 0, 66, 64
2, 94312, Control_c, 0, 64, 0
2, 94412, Note_on_c, 0, 63, 25
2, 94430, Note_off_c, 0, 64, 64
2, 94603, Note_on_c, 0, 64, 33
2, 94612, Note_off_c, 0, 63, 64
2, 94723, Control_c, 0, 64, 127
2, 94809, Note_off_c, 0, 40, 64
2, 94825, Note_off_c, 0, 52, 64
2, 94834, Note_off_c, 0, 59, 64
2, 94840, Note_off_c, 0, 64, 64
2, 94852, Note_off_c, 0, 55, 64
2, 95077, Note_on_c, 0, 62, 39
2, 95081, Note_on_c, 0, 68, 47
2, 95083, Note_on_c, 0, 71, 50
2, 95083, Note_on_c, 0, 64, 48
2, 95083, Note_on_c, 0, 52, 46
2, 95125, Control_c, 0, 64, 0
2, 95136, Control_c, 0, 64, 127
2, 95340, Note_off_c, 0, 62, 64
2, 95344, Note_off_c, 0, 68, 64
2, 95346, Note_off_c, 0, 64, 64
2, 95349, Note_off_c, 0, 52, 64
2, 95349, Note_off_c, 0, 71, 64
2, 95407, Note_on_c, 0, 62, 50
2, 95410, Note_on_c, 0, 64, 52
2, 95410, Note_on_c, 0, 71, 58
2, 95414, Note_on_c, 0, 52, 50
2, 95414, Note_on_c, 0, 68, 51
2, 95648, Note_off_c, 0, 64, 64
2, 95655, Note_off_c, 0, 68, 64
2, 95663, Note_off_c, 0, 62, 64
2, 95670, Note_off_c, 0, 52, 64
2, 95724, Note_on_c, 0, 64, 54
2, 95724, Note_on_c, 0, 68, 52
2, 95728, Note_on_c, 0, 52, 51
2, 95728, Note_on_c, 0, 72, 58
2, 95729, Note_on_c, 0, 62, 57
2, 95763, Note_off_c, 0, 71, 64
2, 95973, Note_on_c, 0, 71, 54
2, 95995, Note_off_c, 0, 72, 64
2, 96012, Note_off_c, 0, 68, 64
2, 96012, Note_off_c, 0, 64, 64
2, 96016, Note_off_c, 0, 52, 64
2, 96016, Note_off_c, 0, 62, 64
2, 96035, Note_off_c, 0, 71, 64
2, 96132, Note_on_c, 0, 64, 54
2, 96134, Note_on_c, 0, 76, 58
2, 96134, Note_on_c, 0, 68, 57
2, 96134, Note_on_c, 0, 62, 51
2, 96144, Note_on_c, 0, 52, 54
2, 96144, Note_on_c, 0, 45, 51
2, 96200, Control_c, 0, 64, 0
2, 96236, Control_c, 0, 64, 127
2, 96336, Note_on_c, 0, 71, 58
2, 96367, Note_off_c, 0, 76, 64
2, 96387, Note_off_c, 0, 64, 64
2, 96389, Note_off_c, 0, 62, 64
2, 96389, Note_off_c, 0, 68, 64
2, 96448, Note_off_c, 0, 71, 64
2, 96458, Note_on_c, 0, 69, 64
2, 96487, Note_on_c, 0, 71, 62
2, 96501, Note_off_c, 0, 69, 64
2, 96531, Note_on_c, 0, 69, 56
2, 96538, Note_on_c, 0, 60, 41
2, 96541, Note_off_c, 0, 71, 64
2, 96554, Control_c, 0, 64, 0
2, 96616, Control_c, 0, 64, 127
2, 96693, Note_on_c, 0, 68, 58
2, 96701, Note_off_c, 0, 69, 64
2, 96844, Note_on_c, 0, 69, 58
2, 96857, Control_c, 0, 64, 0
2, 96868, Note_off_c, 0, 68, 64
2, 96972, Control_c, 0, 64, 127
2, 97094, Note_off_c, 0, 45, 64
2, 97094, Note_off_c, 0, 52, 64
2, 97198, Note_on_c, 0, 72, 49
2, 97220, Note_off_c, 0, 69, 64
2, 97349, Note_on_c, 0, 55, 43
2, 97351, Note_on_c, 0, 67, 48
2, 97371, Note_off_c, 0, 60, 64
2, 97390, Note_off_c, 0, 72, 64
2, 97462, Control_c, 0, 64, 0
2, 97502, Note_on_c, 0, 53, 33
2, 97511, Note_on_c, 0, 65, 47
2, 97521, Note_off_c, 0, 55, 64
2, 97530, Note_off_c, 0, 67, 64
2, 97652, Control_c, 0, 64, 127
2, 97820, Note_off_c, 0, 65, 64
2, 97824, Note_on_c, 0, 52, 43
2, 97826, Note_on_c, 0, 64, 40
2, 97849, Control_c, 0, 64, 0
2, 97856, Note_off_c, 0, 53, 64
2, 98076, Note_on_c, 0, 67, 49
2, 98076, Note_on_c, 0, 55, 34
2, 98085, Note_off_c, 0, 64, 64
2, 98097, Note_off_c, 0, 52, 64
2, 98136, Note_on_c, 0, 64, 49
2, 98140, Note_on_c, 0, 52, 49
2, 98159, Note_off_c, 0, 55, 64
2, 98159, Note_off_c, 0, 67, 64
2, 98194, Control_c, 0, 64, 127
2, 98544, Note_on_c, 0, 55, 26
2, 98548, Note_on_c, 0, 47, 25
2, 98550, Note_on_c, 0, 59, 41
2, 98552, Note_on_c, 0, 40, 34
2, 98641, Control_c, 0, 64, 0
2, 98673, Control_c, 0, 64, 127
2, 98871, Note_off_c, 0, 64, 64
2, 99110, Note_on_c, 0, 71, 47
2, 99225, Note_off_c, 0, 55, 64
2, 99229, Note_off_c, 0, 47, 64
2, 99231, Note_off_c, 0, 59, 64
2, 99233, Note_off_c, 0, 40, 64
2, 99296, Note_off_c, 0, 52, 64
2, 99363, Note_off_c, 0, 71, 64
2, 99429, Note_on_c, 0, 71, 54
2, 99744, Note_off_c, 0, 71, 64
2, 99783, Note_on_c, 0, 71, 55
2, 99789, Note_on_c, 0, 62, 42
2, 99789, Note_on_c, 0, 64, 48
2, 99789, Note_on_c, 0, 68, 47
2, 99794, Note_on_c, 0, 52, 39
2, 99835, Control_c, 0, 64, 0
2, 99866, Control_c, 0, 64, 127
2, 100144, Note_off_c, 0, 64, 64
2, 100153, Note_off_c, 0, 68, 64
2, 100159, Note_off_c, 0, 62, 64
2, 100178, Note_off_c, 0, 52, 64
2, 100188, Note_on_c, 0, 68, 51
2, 100189, Note_on_c, 0, 64, 52
2, 100189, Note_on_c, 0, 72, 59
2, 100195, Note_on_c, 0, 52, 50
2, 100195, Note_on_c, 0, 62, 51
2, 100204, Note_off_c, 0, 71, 64
2, 100539, Note_on_c, 0, 71, 55
2, 100553, Note_off_c, 0, 62, 64
2, 100553, Note_off_c, 0, 52, 64
2, 100563, Note_off_c, 0, 64, 64
2, 100569, Note_off_c, 0, 68, 64
2, 100577, Note_off_c, 0, 72, 64
2, 100592, Note_off_c, 0, 71, 64
2, 100627, Note_on_c, 0, 71, 62
2, 100632, Note_on_c, 0, 60, 47
2, 100632, Note_on_c, 0, 52, 49
2, 100634, Note_on_c, 0, 64, 58
2, 100638, Note_on_c, 0, 45, 42
2, 100680, Control_c, 0, 64, 0
2, 100738, Control_c, 0, 64, 127
2, 100952, Note_on_c, 0, 69, 49
2, 100977, Note_off_c, 0, 71, 64
2, 100985, Control_c, 0, 64, 0
2, 101008, Control_c, 0, 64, 127
2, 101190, Note_on_c, 0, 68, 57
2, 101216, Note_off_c, 0, 69, 64
2, 101266, Note_on_c, 0, 69, 52
2, 101289, Note_off_c, 0, 68, 64
2, 101311, Control_c, 0, 64, 0
2, 101355, Control_c, 0, 64, 127
2, 101525, Note_off_c, 0, 52, 64
2, 101525, Note_off_c, 0, 60, 64
2, 101527, Note_off_c, 0, 64, 64
2, 101531, Note_off_c, 0, 45, 64
2, 101600, Note_on_c, 0, 47, 48
2, 101600, Note_on_c, 0, 59, 26
2, 101602, Note_on_c, 0, 66, 52
2, 101604, Note_on_c, 0, 57, 25
2, 101604, Note_on_c, 0, 63, 51
2, 101628, Note_off_c, 0, 69, 64
2, 101646, Control_c, 0, 64, 0
2, 101688, Control_c, 0, 64, 127
2, 101847, Note_off_c, 0, 59, 64
2, 101855, Note_off_c, 0, 66, 64
2, 101857, Note_off_c, 0, 63, 64
2, 101860, Note_off_c, 0, 57, 64
2, 101878, Note_off_c, 0, 47, 64
2, 101903, Note_on_c, 0, 66, 55
2, 101904, Note_on_c, 0, 59, 46
2, 101908, Note_on_c, 0, 63, 49
2, 101913, Note_on_c, 0, 57, 48
2, 101917, Note_on_c, 0, 47, 51
2, 101952, Control_c, 0, 64, 0
2, 101985, Control_c, 0, 64, 127
2, 102145, Note_off_c, 0, 63, 64
2, 102151, Note_off_c, 0, 59, 64
2, 102153, Note_off_c, 0, 57, 64
2, 102180, Note_off_c, 0, 47, 64
2, 102204, Note_on_c, 0, 59, 46
2, 102204, Note_on_c, 0, 63, 51
2, 102206, Note_on_c, 0, 67, 58
2, 102212, Note_on_c, 0, 57, 50
2, 102216, Note_on_c, 0, 47, 49
2, 102231, Note_off_c, 0, 66, 64
2, 102243, Control_c, 0, 64, 0
2, 102265, Control_c, 0, 64, 127
2, 102409, Note_off_c, 0, 63, 64
2, 102414, Note_off_c, 0, 59, 64
2, 102422, Note_off_c, 0, 57, 64
2, 102434, Note_on_c, 0, 66, 54
2, 102450, Note_off_c, 0, 67, 64
2, 102493, Note_off_c, 0, 66, 64
2, 102499, Note_off_c, 0, 47, 64
2, 102535, Note_on_c, 0, 66, 48
2, 102542, Note_on_c, 0, 57, 52
2, 102542, Note_on_c, 0, 60, 54
2, 102555, Note_on_c, 0, 40, 46
2, 102565, Note_on_c, 0, 52, 35
2, 102584, Control_c, 0, 64, 0
2, 102627, Control_c, 0, 64, 127
2, 102735, Note_off_c, 0, 66, 64
2, 102742, Note_on_c, 0, 64, 46
2, 102844, Note_off_c, 0, 64, 64
2, 102846, Note_off_c, 0, 60, 64
2, 102846, Note_off_c, 0, 57, 64
2, 102870, Note_on_c, 0, 66, 48
2, 102915, Note_on_c, 0, 64, 50
2, 102916, Note_on_c, 0, 59, 41
2, 102926, Note_on_c, 0, 55, 32
2, 102952, Control_c, 0, 64, 0
2, 102955, Note_off_c, 0, 66, 64
2, 103068, Note_on_c, 0, 63, 47
2, 103110, Note_off_c, 0, 64, 64
2, 103197, Note_on_c, 0, 64, 52
2, 103217, Note_off_c, 0, 63, 64
2, 103314, Note_on_c, 0, 67, 52
2, 103344, Note_off_c, 0, 64, 64
2, 103472, Note_on_c, 0, 71, 54
2, 103497, Note_off_c, 0, 67, 64
2, 103517, Control_c, 0, 64, 127
2, 103595, Note_off_c, 0, 40, 64
2, 103605, Note_off_c, 0, 52, 64
2, 103619, Note_off_c, 0, 59, 64
2, 103637, Note_off_c, 0, 55, 64
2, 103750, Note_off_c, 0, 71, 64
2, 103809, Note_on_c, 0, 52, 51
2, 103816, Note_on_c, 0, 68, 49
2, 103818, Note_on_c, 0, 64, 50
2, 103818, Note_on_c, 0, 71, 58
2, 103828, Note_on_c, 0, 62, 49
2, 103851, Control_c, 0, 64, 0
2, 103881, Control_c, 0, 64, 127
2, 104116, Note_off_c, 0, 52, 64
2, 104154, Note_off_c, 0, 64, 64
2, 104160, Note_off_c, 0, 62, 64
2, 104172, Note_off_c, 0, 68, 64
2, 104215, Note_on_c, 0, 68, 48
2, 104215, Note_on_c, 0, 64, 51
2, 104220, Note_on_c, 0, 62, 51
2, 104221, Note_on_c, 0, 72, 58
2, 104225, Note_on_c, 0, 52, 48
2, 104248, Note_off_c, 0, 71, 64
2, 104258, Control_c, 0, 64, 0
2, 104270, Control_c, 0, 64, 127
2, 104520, Note_on_c, 0, 71, 51
2, 104533, Note_off_c, 0, 72, 64
2, 104553, Note_off_c, 0, 64, 64
2, 104553, Note_off_c, 0, 68, 64
2, 104558, Note_off_c, 0, 62, 64
2, 104563, Note_off_c, 0, 52, 64
2, 104626, Note_off_c, 0, 71, 64
2, 104692, Note_on_c, 0, 64, 32
2, 104698, Note_on_c, 0, 52, 44
2, 104698, Note_on_c, 0, 45, 41
2, 104700, Note_on_c, 0, 62, 32
2, 104706, Note_on_c, 0, 76, 63
2, 104706, Note_on_c, 0, 68, 46
2, 104760, Control_c, 0, 64, 0
2, 104801, Control_c, 0, 64, 127
2, 104911, Note_on_c, 0, 71, 56
2, 104927, Note_off_c, 0, 68, 64
2, 104928, Note_off_c, 0, 76, 64
2, 104959, Note_off_c, 0, 64, 64
2, 104967, Note_off_c, 0, 62, 64
2, 105012, Note_off_c, 0, 71, 64
2, 105030, Note_on_c, 0, 69, 62
2, 105055, Note_on_c, 0, 71, 48
2, 105073, Note_off_c, 0, 69, 64
2, 105106, Note_on_c, 0, 69, 56
2, 105108, Note_on_c, 0, 60, 31
2, 105117, Note_off_c, 0, 71, 64
2, 105124, Control_c, 0, 64, 0
2, 105259, Note_on_c, 0, 68, 58
2, 105266, Note_off_c, 0, 69, 64
2, 105278, Control_c, 0, 64, 127
2, 105405, Note_on_c, 0, 69, 55
2, 105410, Note_off_c, 0, 68, 64
2, 105444, Control_c, 0, 64, 0
2, 105537, Control_c, 0, 64, 127
2, 105721, Note_on_c, 0, 72, 50
2, 105743, Note_off_c, 0, 69, 64
2, 105806, Note_off_c, 0, 45, 64
2, 105806, Note_off_c, 0, 52, 64
2, 105870, Note_on_c, 0, 55, 42
2, 105872, Note_on_c, 0, 67, 49
2, 105884, Note_off_c, 0, 72, 64
2, 105903, Note_off_c, 0, 60, 64
2, 105924, Control_c, 0, 64, 0
2, 106045, Note_on_c, 0, 53, 46
2, 106053, Note_on_c, 0, 65, 46
2, 106057, Note_off_c, 0, 67, 64
2, 106061, Note_off_c, 0, 55, 64
2, 106136, Control_c, 0, 64, 127
2, 106364, Note_on_c, 0, 52, 40
2, 106365, Note_on_c, 0, 64, 44
2, 106392, Note_off_c, 0, 65, 64
2, 106392, Note_off_c, 0, 53, 64
2, 106619, Control_c, 0, 64, 0
2, 106628, Note_on_c, 0, 55, 37
2, 106630, Note_on_c, 0, 67, 43
2, 106634, Note_off_c, 0, 64, 64
2, 106639, Note_off_c, 0, 52, 64
2, 106695, Note_on_c, 0, 64, 44
2, 106701, Note_on_c, 0, 52, 41
2, 106719, Note_off_c, 0, 55, 64
2, 106721, Note_off_c, 0, 67, 64
2, 106774, Control_c, 0, 64, 127
2, 107076, Note_on_c, 0, 47, 31
2, 107078, Note_on_c, 0, 59, 39
2, 107078, Note_on_c, 0, 55, 31
2, 107078, Note_on_c, 0, 40, 26
2, 107383, Note_off_c, 0, 47, 64
2, 107385, Note_off_c, 0, 40, 64
2, 107385, Note_off_c, 0, 55, 64
2, 107385, Note_off_c, 0, 59, 64
2, 107492, Note_on_c, 0, 40, 23
2, 107494, Note_on_c, 0, 47, 20
2, 107496, Note_on_c, 0, 55, 21
2, 107496, Note_on_c, 0, 59, 25
2, 107977, Note_off_c, 0, 40, 64
2, 107981, Note_off_c, 0, 59, 64
2, 107981, Note_off_c, 0, 55, 64
2, 107982, Note_on_c, 0, 63, 54
2, 107985, Note_off_c, 0, 64, 64
2, 107991, Note_off_c, 0, 52, 64
2, 108002, Note_on_c, 0, 35, 29
2, 108021, Control_c, 0, 64, 0
2, 108064, Control_c, 0, 64, 127
2, 108152, Note_off_c, 0, 47, 64
2, 108300, Note_on_c, 0, 54, 41
2, 108305, Note_on_c, 0, 59, 33
2, 108313, Note_on_c, 0, 47, 42
2, 108467, Note_off_c, 0, 35, 64
2, 108475, Note_off_c, 0, 54, 64
2, 108480, Note_off_c, 0, 59, 64
2, 108488, Note_off_c, 0, 47, 64
2, 108572, Note_on_c, 0, 54, 32
2, 108576, Note_on_c, 0, 61, 49
2, 108576, Note_on_c, 0, 47, 31
2, 108577, Note_on_c, 0, 64, 52
2, 108581, Note_on_c, 0, 59, 25
2, 108615, Note_off_c, 0, 63, 64
2, 108625, Control_c, 0, 64, 0
2, 108669, Control_c, 0, 64, 127
2, 108822, Note_on_c, 0, 63, 55
2, 108823, Note_on_c, 0, 66, 54
2, 108850, Note_off_c, 0, 61, 64
2, 108851, Note_off_c, 0, 64, 64
2, 108897, Note_off_c, 0, 47, 64
2, 108911, Note_off_c, 0, 54, 64
2, 108925, Note_off_c, 0, 59, 64
2, 109025, Note_off_c, 0, 63, 64
2, 109026, Note_off_c, 0, 66, 64
2, 109056, Note_on_c, 0, 75, 64
2, 109062, Note_on_c, 0, 54, 39
2, 109065, Note_on_c, 0, 59, 42
2, 109069, Note_on_c, 0, 47, 39
2, 109074, Note_on_c, 0, 66, 39
2, 109074, Note_on_c, 0, 63, 51
2, 109104, Control_c, 0, 64, 0
2, 109136, Control_c, 0, 64, 127
2, 109247, Note_off_c, 0, 47, 64
2, 109254, Note_off_c, 0, 63, 64
2, 109254, Note_off_c, 0, 66, 64
2, 109257, Note_off_c, 0, 54, 64
2, 109260, Note_off_c, 0, 59, 64
2, 109303, Note_on_c, 0, 63, 51
2, 109303, Note_on_c, 0, 66, 51
2, 109307, Note_on_c, 0, 54, 39
2, 109313, Note_on_c, 0, 47, 48
2, 109313, Note_on_c, 0, 59, 47
2, 109489, Note_off_c, 0, 75, 64
2, 109523, Note_on_c, 0, 75, 71
2, 109555, Note_off_c, 0, 75, 64
2, 109582, Note_on_c, 0, 75, 71
2, 109739, Note_off_c, 0, 66, 64
2, 109739, Note_off_c, 0, 63, 64
2, 109750, Note_off_c, 0, 59, 64
2, 109750, Note_off_c, 0, 47, 64
2, 109780, Note_off_c, 0, 54, 64
2, 109795, Note_on_c, 0, 47, 47
2, 109800, Note_on_c, 0, 64, 52
2, 109801, Note_on_c, 0, 68, 58
2, 109804, Note_on_c, 0, 61, 34
2, 109807, Note_on_c, 0, 54, 40
2, 109834, Control_c, 0, 64, 0
2, 109848, Control_c, 0, 64, 127
2, 109978, Note_off_c, 0, 75, 64
2, 110004, Note_off_c, 0, 47, 64
2, 110009, Note_off_c, 0, 64, 64
2, 110013, Note_off_c, 0, 61, 64
2, 110016, Note_off_c, 0, 54, 64
2, 110033, Note_on_c, 0, 75, 67
2, 110040, Note_on_c, 0, 70, 55
2, 110040, Note_on_c, 0, 64, 52
2, 110040, Note_on_c, 0, 61, 43
2, 110041, Note_off_c, 0, 68, 64
2, 110044, Note_on_c, 0, 47, 37
2, 110050, Note_on_c, 0, 54, 39
2, 110059, Note_on_c, 0, 47, 47
2, 110068, Control_c, 0, 64, 0
2, 110112, Control_c, 0, 64, 127
2, 110172, Note_off_c, 0, 47, 64
2, 110214, Note_off_c, 0, 75, 64
2, 110259, Note_on_c, 0, 75, 73
2, 110311, Note_off_c, 0, 47, 64
2, 110318, Note_off_c, 0, 54, 64
2, 110327, Note_off_c, 0, 70, 64
2, 110329, Note_off_c, 0, 61, 64
2, 110329, Note_off_c, 0, 64, 64
2, 110468, Note_on_c, 0, 47, 46
2, 110469, Note_on_c, 0, 61, 46
2, 110472, Note_on_c, 0, 68, 58
2, 110472, Note_on_c, 0, 64, 57
2, 110472, Note_on_c, 0, 54, 43
2, 110488, Control_c, 0, 64, 0
2, 110511, Control_c, 0, 64, 127
2, 110650, Note_off_c, 0, 47, 64
2, 110650, Note_off_c, 0, 75, 64
2, 110657, Note_off_c, 0, 54, 64
2, 110667, Note_off_c, 0, 61, 64
2, 110677, Note_off_c, 0, 64, 64
2, 110710, Note_on_c, 0, 75, 64
2, 110712, Note_on_c, 0, 47, 48
2, 110720, Note_on_c, 0, 61, 48
2, 110720, Note_on_c, 0, 70, 51
2, 110723, Note_on_c, 0, 54, 44
2, 110724, Note_on_c, 0, 64, 52
2, 110728, Note_off_c, 0, 68, 64
2, 110743, Note_on_c, 0, 47, 47
2, 110868, Note_off_c, 0, 47, 64
2, 110874, Note_off_c, 0, 54, 64
2, 110875, Note_off_c, 0, 75, 64
2, 110890, Note_off_c, 0, 70, 64
2, 110897, Note_off_c, 0, 64, 64
2, 110907, Note_off_c, 0, 61, 64
2, 110913, Note_off_c, 0, 47, 64
2, 110982, Note_on_c, 0, 75, 57
2, 110990, Note_on_c, 0, 63, 55
2, 110998, Note_on_c, 0, 35, 54
2, 110998, Note_on_c, 0, 71, 48
2, 111019, Control_c, 0, 64, 0
2, 111052, Control_c, 0, 64, 127
2, 111162, Note_off_c, 0, 75, 64
2, 111170, Note_off_c, 0, 63, 64
2, 111178, Note_off_c, 0, 71, 64
2, 111267, Note_on_c, 0, 47, 46
2, 111277, Note_on_c, 0, 59, 51
2, 111279, Note_on_c, 0, 54, 33
2, 111279, Note_on_c, 0, 63, 51
2, 111361, Note_off_c, 0, 35, 64
2, 111388, Note_on_c, 0, 61, 59
2, 111389, Note_off_c, 0, 59, 64
2, 111391, Note_off_c, 0, 63, 64
2, 111393, Note_on_c, 0, 64, 51
2, 111493, Note_on_c, 0, 66, 51
2, 111497, Note_on_c, 0, 70, 59
2, 111506, Control_c, 0, 64, 0
2, 111513, Note_off_c, 0, 61, 64
2, 111520, Note_off_c, 0, 64, 64
2, 111542, Control_c, 0, 64, 127
2, 111579, Note_on_c, 0, 64, 54
2, 111585, Note_off_c, 0, 66, 64
2, 111587, Note_on_c, 0, 68, 56
2, 111589, Note_off_c, 0, 70, 64
2, 111687, Note_on_c, 0, 66, 54
2, 111688, Note_on_c, 0, 63, 62
2, 111693, Note_off_c, 0, 68, 64
2, 111697, Note_off_c, 0, 64, 64
2, 111720, Control_c, 0, 64, 0
2, 111744, Control_c, 0, 64, 127
2, 111788, Note_off_c, 0, 47, 64
2, 111811, Note_off_c, 0, 54, 64
2, 111893, Note_off_c, 0, 66, 64
2, 111894, Note_off_c, 0, 63, 64
2, 111912, Note_on_c, 0, 59, 39
2, 111924, Note_on_c, 0, 75, 62
2, 111924, Note_on_c, 0, 63, 54
2, 111929, Note_on_c, 0, 47, 48
2, 111934, Note_on_c, 0, 54, 33
2, 111938, Note_on_c, 0, 66, 51
2, 111965, Control_c, 0, 64, 0
2, 112012, Control_c, 0, 64, 127
2, 112073, Note_off_c, 0, 59, 64
2, 112085, Note_off_c, 0, 63, 64
2, 112099, Note_off_c, 0, 66, 64
2, 112100, Note_off_c, 0, 47, 64
2, 112115, Note_off_c, 0, 54, 64
2, 112156, Note_on_c, 0, 66, 51
2, 112164, Note_on_c, 0, 54, 34
2, 112164, Note_on_c, 0, 63, 54
2, 112165, Note_on_c, 0, 59, 33
2, 112170, Note_on_c, 0, 47, 35
2, 112280, Note_off_c, 0, 75, 64
2, 112328, Note_on_c, 0, 75, 64
2, 112367, Note_off_c, 0, 75, 64
2, 112384, Note_on_c, 0, 75, 64
2, 112413, Control_c, 0, 64, 0
2, 112435, Control_c, 0, 64, 127
2, 112541, Note_off_c, 0, 66, 64
2, 112549, Note_off_c, 0, 63, 64
2, 112549, Note_off_c, 0, 54, 64
2, 112550, Note_off_c, 0, 59, 64
2, 112555, Note_off_c, 0, 47, 64
2, 112602, Note_on_c, 0, 68, 50
2, 112605, Note_on_c, 0, 58, 42
2, 112605, Note_on_c, 0, 65, 44
2, 112606, Note_on_c, 0, 51, 46
2, 112638, Control_c, 0, 64, 0
2, 112649, Control_c, 0, 64, 127
2, 112787, Note_off_c, 0, 51, 64
2, 112795, Note_off_c, 0, 75, 64
2, 112800, Note_off_c, 0, 58, 64
2, 112845, Note_on_c, 0, 66, 47
2, 112851, Note_on_c, 0, 75, 50
2, 112854, Note_on_c, 0, 58, 33
2, 112854, Note_on_c, 0, 51, 29
2, 112861, Note_on_c, 0, 70, 39
2, 112869, Note_off_c, 0, 68, 64
2, 112872, Note_off_c, 0, 65, 64
2, 112881, Control_c, 0, 64, 0
2, 112919, Control_c, 0, 64, 127
2, 113009, Note_off_c, 0, 75, 64
2, 113070, Note_on_c, 0, 75, 71
2, 113200, Note_off_c, 0, 51, 64
2, 113209, Note_off_c, 0, 58, 64
2, 113221, Note_off_c, 0, 66, 64
2, 113234, Note_off_c, 0, 70, 64
2, 113258, Note_on_c, 0, 68, 57
2, 113262, Note_on_c, 0, 58, 49
2, 113267, Note_on_c, 0, 51, 49
2, 113267, Note_on_c, 0, 65, 51
2, 113430, Note_off_c, 0, 58, 64
2, 113435, Note_off_c, 0, 51, 64
2, 113466, Note_off_c, 0, 75, 64
2, 113480, Note_on_c, 0, 66, 56
2, 113480, Note_on_c, 0, 58, 49
2, 113486, Note_off_c, 0, 68, 64
2, 113486, Note_on_c, 0, 51, 46
2, 113490, Note_on_c, 0, 70, 51
2, 113490, Note_on_c, 0, 75, 58
2, 113495, Note_off_c, 0, 65, 64
2, 113684, Note_off_c, 0, 51, 64
2, 113698, Note_off_c, 0, 58, 64
2, 113700, Note_off_c, 0, 75, 64
2, 113719, Note_on_c, 0, 75, 59
2, 113722, Note_on_c, 0, 35, 54
2, 113728, Note_on_c, 0, 71, 56
2, 113739, Control_c, 0, 64, 0
2, 113752, Note_off_c, 0, 70, 64
2, 113768, Control_c, 0, 64, 127
2, 113849, Note_off_c, 0, 66, 64
2, 113961, Note_on_c, 0, 63, 57
2, 113965, Note_on_c, 0, 47, 43
2, 113965, Note_on_c, 0, 54, 40
2, 113971, Note_on_c, 0, 59, 58
2, 114023, Note_off_c, 0, 75, 64
2, 114031, Note_off_c, 0, 71, 64
2, 114113, Note_off_c, 0, 35, 64
2, 114153, Note_on_c, 0, 61, 55
2, 114153, Note_on_c, 0, 64, 54
2, 114162, Note_off_c, 0, 63, 64
2, 114172, Note_off_c, 0, 59, 64
2, 114181, Control_c, 0, 64, 0
2, 114228, Control_c, 0, 64, 127
2, 114324, Note_on_c, 0, 63, 62
2, 114344, Note_on_c, 0, 66, 55
2, 114356, Note_off_c, 0, 64, 64
2, 114356, Note_off_c, 0, 61, 64
2, 114366, Control_c, 0, 64, 0
2, 114389, Control_c, 0, 64, 127
2, 114425, Note_off_c, 0, 47, 64
2, 114452, Note_off_c, 0, 54, 64
2, 114502, Note_off_c, 0, 63, 64
2, 114506, Note_off_c, 0, 66, 64
2, 114552, Note_on_c, 0, 54, 50
2, 114553, Note_on_c, 0, 75, 62
2, 114557, Note_on_c, 0, 59, 50
2, 114560, Note_on_c, 0, 66, 51
2, 114562, Note_on_c, 0, 47, 49
2, 114564, Note_on_c, 0, 63, 62
2, 114576, Control_c, 0, 64, 0
2, 114623, Control_c, 0, 64, 127
2, 114710, Note_off_c, 0, 47, 64
2, 114730, Note_off_c, 0, 54, 64
2, 114733, Note_off_c, 0, 59, 64
2, 114739, Note_off_c, 0, 66, 64
2, 114742, Note_off_c, 0, 63, 64
2, 114785, Note_on_c, 0, 66, 54
2, 114789, Note_on_c, 0, 63, 59
2, 114795, Note_on_c, 0, 54, 34
2, 114798, Note_on_c, 0, 59, 46
2, 114799, Note_on_c, 0, 47, 49
2, 114799, Control_c, 0, 64, 0
2, 114825, Control_c, 0, 64, 127
2, 114932, Note_off_c, 0, 75, 64
2, 114956, Note_on_c, 0, 75, 64
2, 114991, Note_off_c, 0, 75, 64
2, 115014, Note_on_c, 0, 75, 71
2, 115150, Note_off_c, 0, 63, 64
2, 115151, Note_off_c, 0, 47, 64
2, 115161, Note_off_c, 0, 66, 64
2, 115174, Note_off_c, 0, 54, 64
2, 115178, Note_off_c, 0, 59, 64
2, 115211, Note_on_c, 0, 68, 51
2, 115211, Note_on_c, 0, 64, 51
2, 115211, Note_on_c, 0, 47, 47
2, 115216, Note_on_c, 0, 61, 47
2, 115217, Note_on_c, 0, 54, 42
2, 115250, Control_c, 0, 64, 0
2, 115263, Control_c, 0, 64, 127
2, 115392, Note_off_c, 0, 47, 64
2, 115399, Note_off_c, 0, 75, 64
2, 115401, Note_off_c, 0, 61, 64
2, 115403, Note_off_c, 0, 54, 64
2, 115408, Note_off_c, 0, 64, 64
2, 115428, Note_on_c, 0, 64, 58
2, 115428, Note_on_c, 0, 70, 51
2, 115433, Note_on_c, 0, 47, 39
2, 115433, Note_on_c, 0, 61, 37
2, 115439, Note_on_c, 0, 75, 73
2, 115441, Note_on_c, 0, 54, 41
2, 115449, Note_off_c, 0, 68, 64
2, 115462, Control_c, 0, 64, 0
2, 115503, Control_c, 0, 64, 127
2, 115609, Note_off_c, 0, 75, 64
2, 115636, Note_on_c, 0, 75, 78
2, 115693, Note_off_c, 0, 47, 64
2, 115694, Note_off_c, 0, 70, 64
2, 115694, Note_off_c, 0, 64, 64
2, 115695, Note_off_c, 0, 54, 64
2, 115699, Note_off_c, 0, 61, 64
2, 115812, Note_on_c, 0, 64, 58
2, 115812, Note_on_c, 0, 47, 49
2, 115816, Note_on_c, 0, 68, 54
2, 115820, Note_on_c, 0, 61, 49
2, 115824, Note_on_c, 0, 54, 49
2, 115843, Control_c, 0, 64, 0
2, 115868, Control_c, 0, 64, 127
2, 115967, Note_off_c, 0, 47, 64
2, 115976, Note_off_c, 0, 64, 64
2, 115982, Note_off_c, 0, 54, 64
2, 115991, Note_off_c, 0, 61, 64
2, 116001, Note_off_c, 0, 75, 64
2, 116022, Note_on_c, 0, 75, 59
2, 116028, Note_on_c, 0, 64, 58
2, 116033, Note_on_c, 0, 70, 56
2, 116036, Note_on_c, 0, 47, 47
2, 116042, Note_on_c, 0, 61, 35
2, 116043, Note_on_c, 0, 54, 46
2, 116047, Note_off_c, 0, 68, 64
2, 116216, Note_off_c, 0, 64, 64
2, 116224, Note_off_c, 0, 47, 64
2, 116226, Note_off_c, 0, 75, 64
2, 116230, Note_off_c, 0, 61, 64
2, 116231, Note_off_c, 0, 54, 64
2, 116256, Note_on_c, 0, 63, 46
2, 116267, Note_on_c, 0, 75, 62
2, 116271, Note_on_c, 0, 35, 50
2, 116275, Note_on_c, 0, 71, 55
2, 116287, Control_c, 0, 64, 0
2, 116289, Note_off_c, 0, 70, 64
2, 116328, Control_c, 0, 64, 127
2, 116459, Note_off_c, 0, 63, 64
2, 116470, Note_off_c, 0, 75, 64
2, 116478, Note_off_c, 0, 71, 64
2, 116514, Note_on_c, 0, 63, 56
2, 116520, Note_on_c, 0, 47, 39
2, 116520, Note_on_c, 0, 59, 57
2, 116529, Note_on_c, 0, 54, 35
2, 116622, Note_off_c, 0, 35, 64
2, 116622, Note_on_c, 0, 61, 57
2, 116634, Note_on_c, 0, 64, 41
2, 116638, Note_off_c, 0, 63, 64
2, 116644, Note_off_c, 0, 59, 64
2, 116722, Note_on_c, 0, 66, 54
2, 116726, Note_on_c, 0, 70, 57
2, 116728, Note_off_c, 0, 61, 64
2, 116741, Note_off_c, 0, 64, 64
2, 116758, Control_c, 0, 64, 0
2, 116784, Control_c, 0, 64, 127
2, 116789, Note_on_c, 0, 68, 51
2, 116792, Note_off_c, 0, 66, 64
2, 116796, Note_off_c, 0, 70, 64
2, 116798, Note_on_c, 0, 64, 52
2, 116831, Note_off_c, 0, 54, 64
2, 116843, Note_off_c, 0, 47, 64
2, 116844, Note_on_c, 0, 63, 62
2, 116856, Note_on_c, 0, 66, 58
2, 116876, Note_off_c, 0, 68, 64
2, 116885, Note_off_c, 0, 64, 64
2, 116891, Note_off_c, 0, 63, 64
2, 116903, Note_off_c, 0, 66, 64
2, 116928, Note_on_c, 0, 63, 56
2, 116928, Note_on_c, 0, 66, 62
2, 116972, Control_c, 0, 64, 0
2, 116994, Control_c, 0, 64, 127
2, 117141, Note_off_c, 0, 66, 64
2, 117141, Note_off_c, 0, 63, 64
2, 117188, Control_c, 0, 64, 0
2, 117192, Note_on_c, 0, 75, 64
2, 117192, Note_on_c, 0, 63, 56
2, 117192, Note_on_c, 0, 47, 47
2, 117201, Note_on_c, 0, 54, 27
2, 117203, Note_on_c, 0, 66, 54
2, 117208, Note_on_c, 0, 59, 32
2, 117210, Control_c, 0, 64, 127
2, 117233, Control_c, 0, 64, 0
2, 117269, Control_c, 0, 64, 127
2, 117395, Note_off_c, 0, 47, 64
2, 117395, Note_off_c, 0, 63, 64
2, 117404, Note_off_c, 0, 54, 64
2, 117406, Note_off_c, 0, 66, 64
2, 117411, Note_off_c, 0, 59, 64
2, 117442, Note_on_c, 0, 54, 31
2, 117446, Note_on_c, 0, 66, 54
2, 117446, Note_on_c, 0, 63, 50
2, 117446, Note_on_c, 0, 47, 36
2, 117455, Note_on_c, 0, 59, 31
2, 117551, Note_off_c, 0, 75, 64
2, 117600, Note_on_c, 0, 75, 62
2, 117630, Note_off_c, 0, 75, 64
2, 117660, Note_on_c, 0, 75, 65
2, 117687, Control_c, 0, 64, 0
2, 117712, Control_c, 0, 64, 127
2, 117847, Note_off_c, 0, 54, 64
2, 117851, Note_off_c, 0, 47, 64
2, 117851, Note_off_c, 0, 63, 64
2, 117851, Note_off_c, 0, 66, 64
2, 117860, Note_off_c, 0, 59, 64
2, 117872, Note_on_c, 0, 68, 54
2, 117876, Note_on_c, 0, 65, 47
2, 117881, Note_on_c, 0, 58, 43
2, 117885, Note_on_c, 0, 51, 48
2, 117915, Control_c, 0, 64, 0
2, 117928, Control_c, 0, 64, 127
2, 118060, Note_off_c, 0, 75, 64
2, 118097, Note_off_c, 0, 58, 64
2, 118103, Note_off_c, 0, 51, 64
2, 118145, Note_on_c, 0, 51, 34
2, 118149, Note_on_c, 0, 75, 54
2, 118149, Note_on_c, 0, 58, 32
2, 118156, Note_on_c, 0, 66, 34
2, 118159, Note_on_c, 0, 70, 40
2, 118173, Note_off_c, 0, 68, 64
2, 118177, Note_off_c, 0, 65, 64
2, 118182, Control_c, 0, 64, 0
2, 118215, Control_c, 0, 64, 127
2, 118322, Note_off_c, 0, 75, 64
2, 118372, Note_on_c, 0, 75, 62
2, 118476, Note_off_c, 0, 58, 64
2, 118481, Note_off_c, 0, 51, 64
2, 118491, Note_off_c, 0, 66, 64
2, 118494, Note_off_c, 0, 70, 64
2, 118575, Note_on_c, 0, 68, 54
2, 118576, Note_on_c, 0, 65, 56
2, 118584, Note_on_c, 0, 58, 46
2, 118584, Note_on_c, 0, 51, 49
2, 118734, Note_off_c, 0, 75, 64
2, 118804, Note_off_c, 0, 58, 64
2, 118824, Note_off_c, 0, 51, 64
2, 118838, Note_on_c, 0, 75, 58
2, 118841, Note_on_c, 0, 66, 33
2, 118848, Note_on_c, 0, 58, 35
2, 118850, Note_on_c, 0, 70, 46
2, 118856, Note_on_c, 0, 51, 39
2, 118862, Note_off_c, 0, 68, 64
2, 118863, Note_off_c, 0, 65, 64
2, 119047, Note_off_c, 0, 75, 64
2, 119051, Note_off_c, 0, 58, 64
2, 119059, Note_off_c, 0, 51, 64
2, 119081, Note_off_c, 0, 66, 64
2, 119090, Note_off_c, 0, 70, 64
2, 119122, Note_on_c, 0, 75, 58
2, 119122, Note_on_c, 0, 44, 49
2, 119139, Control_c, 0, 64, 0
2, 119184, Control_c, 0, 64, 127
2, 119380, Note_on_c, 0, 76, 51
2, 119391, Note_on_c, 0, 63, 49
2, 119393, Note_on_c, 0, 56, 48
2, 119401, Note_on_c, 0, 66, 26
2, 119401, Note_on_c, 0, 72, 39
2, 119441, Note_off_c, 0, 44, 64
2, 119444, Note_off_c, 0, 75, 64
2, 119518, Note_off_c, 0, 63, 64
2, 119520, Note_off_c, 0, 56, 64
2, 119528, Note_off_c, 0, 72, 64
2, 119528, Note_off_c, 0, 66, 64
2, 119597, Note_on_c, 0, 66, 52
2, 119600, Note_on_c, 0, 72, 54
2, 119600, Note_on_c, 0, 63, 31
2, 119606, Note_on_c, 0, 56, 41
2, 119702, Note_on_c, 0, 75, 54
2, 119730, Note_off_c, 0, 76, 64
2, 119768, Note_off_c, 0, 75, 64
2, 119777, Note_on_c, 0, 73, 58
2, 119806, Note_on_c, 0, 75, 62
2, 119816, Note_off_c, 0, 73, 64
2, 119824, Note_off_c, 0, 66, 64
2, 119827, Note_off_c, 0, 63, 64
2, 119827, Note_off_c, 0, 72, 64
2, 119839, Note_on_c, 0, 49, 32
2, 119845, Note_off_c, 0, 56, 64
2, 119845, Note_on_c, 0, 66, 54
2, 119852, Note_on_c, 0, 57, 21
2, 119852, Note_on_c, 0, 73, 58
2, 119873, Note_off_c, 0, 75, 64
2, 119874, Control_c, 0, 64, 0
2, 119887, Control_c, 0, 64, 127
2, 119946, Note_off_c, 0, 73, 64
2, 119953, Note_on_c, 0, 72, 52
2, 120026, Note_off_c, 0, 72, 64
2, 120041, Note_off_c, 0, 66, 64
2, 120067, Note_on_c, 0, 73, 51
2, 120067, Note_on_c, 0, 56, 51
2, 120068, Note_on_c, 0, 64, 49
2, 120085, Note_off_c, 0, 57, 64
2, 120114, Control_c, 0, 64, 0
2, 120139, Control_c, 0, 64, 127
2, 120290, Note_off_c, 0, 56, 64
2, 120296, Note_off_c, 0, 64, 64
2, 120299, Note_on_c, 0, 55, 46
2, 120301, Note_on_c, 0, 71, 49
2, 120336, Control_c, 0, 64, 0
2, 120359, Control_c, 0, 64, 127
2, 120517, Note_off_c, 0, 73, 64
2, 120529, Note_on_c, 0, 75, 57
2, 120536, Note_on_c, 0, 70, 57
2, 120540, Note_on_c, 0, 42, 50
2, 120558, Control_c, 0, 64, 0
2, 120559, Note_off_c, 0, 71, 64
2, 120573, Note_off_c, 0, 55, 64
2, 120574, Control_c, 0, 64, 127
2, 120577, Note_off_c, 0, 49, 64
2, 120635, Note_on_c, 0, 73, 49
2, 120639, Note_off_c, 0, 75, 64
2, 120728, Note_on_c, 0, 59, 50
2, 120732, Note_on_c, 0, 68, 63
2, 120738, Note_on_c, 0, 64, 51
2, 120741, Note_on_c, 0, 54, 37
2, 120745, Note_off_c, 0, 73, 64
2, 120769, Note_off_c, 0, 70, 64
2, 120824, Note_on_c, 0, 66, 62
2, 120836, Note_on_c, 0, 58, 34
2, 120838, Note_off_c, 0, 42, 64
2, 120841, Note_off_c, 0, 68, 64
2, 120865, Note_off_c, 0, 59, 64
2, 120877, Note_off_c, 0, 64, 64
2, 120927, Note_on_c, 0, 64, 51
2, 120930, Note_on_c, 0, 56, 39
2, 120931, Note_on_c, 0, 71, 58
2, 120937, Note_off_c, 0, 58, 64
2, 120952, Note_off_c, 0, 66, 64
2, 121003, Note_off_c, 0, 54, 64
2, 121023, Note_on_c, 0, 73, 63
2, 121026, Note_on_c, 0, 54, 46
2, 121032, Note_off_c, 0, 56, 64
2, 121052, Note_off_c, 0, 71, 64
2, 121106, Note_off_c, 0, 64, 64
2, 121129, Note_off_c, 0, 54, 64
2, 121132, Note_on_c, 0, 75, 58
2, 121138, Note_on_c, 0, 47, 51
2, 121145, Note_off_c, 0, 73, 64
2, 121173, Control_c, 0, 64, 0
2, 121210, Control_c, 0, 64, 127
2, 121350, Note_on_c, 0, 63, 49
2, 121351, Note_on_c, 0, 54, 44
2, 121354, Note_on_c, 0, 59, 37
2, 121504, Note_off_c, 0, 63, 64
2, 121572, Note_off_c, 0, 54, 64
2, 121575, Note_off_c, 0, 59, 64
2, 121577, Note_on_c, 0, 46, 48
2, 121579, Note_on_c, 0, 63, 44
2, 121609, Note_off_c, 0, 47, 64
2, 121744, Note_off_c, 0, 63, 64
2, 121802, Note_on_c, 0, 71, 55
2, 121809, Note_on_c, 0, 44, 50
2, 121816, Note_off_c, 0, 75, 64
2, 121826, Note_off_c, 0, 46, 64
2, 121836, Control_c, 0, 64, 0
2, 121881, Control_c, 0, 64, 127
2, 122031, Note_on_c, 0, 73, 57
2, 122037, Note_on_c, 0, 63, 44
2, 122040, Note_on_c, 0, 68, 42
2, 122041, Note_on_c, 0, 59, 37
2, 122044, Note_on_c, 0, 53, 34
2, 122047, Note_off_c, 0, 71, 64
2, 122134, Note_off_c, 0, 68, 64
2, 122146, Note_off_c, 0, 63, 64
2, 122211, Note_off_c, 0, 59, 64
2, 122214, Note_off_c, 0, 53, 64
2, 122244, Note_on_c, 0, 68, 32
2, 122245, Note_on_c, 0, 41, 49
2, 122252, Note_on_c, 0, 63, 43
2, 122270, Note_off_c, 0, 44, 64
2, 122345, Note_off_c, 0, 68, 64
2, 122353, Note_off_c, 0, 63, 64
2, 122355, Note_on_c, 0, 71, 52
2, 122387, Note_off_c, 0, 73, 64
2, 122437, Note_off_c, 0, 71, 64
2, 122447, Note_on_c, 0, 70, 46
2, 122480, Note_on_c, 0, 71, 43
2, 122484, Note_off_c, 0, 70, 64
2, 122490, Note_on_c, 0, 46, 56
2, 122506, Note_on_c, 0, 70, 52
2, 122520, Note_off_c, 0, 41, 64
2, 122529, Note_off_c, 0, 71, 64
2, 122542, Control_c, 0, 64, 0
2, 122554, Control_c, 0, 64, 127
2, 122598, Note_on_c, 0, 69, 47
2, 122611, Note_off_c, 0, 70, 64
2, 122695, Note_on_c, 0, 70, 51
2, 122708, Note_on_c, 0, 68, 37
2, 122708, Note_on_c, 0, 58, 50
2, 122712, Note_on_c, 0, 62, 43
2, 122713, Note_off_c, 0, 69, 64
2, 122716, Note_on_c, 0, 53, 41
2, 122797, Note_off_c, 0, 68, 64
2, 122801, Note_off_c, 0, 62, 64
2, 122824, Note_off_c, 0, 58, 64
2, 122832, Note_off_c, 0, 53, 64
2, 122911, Note_on_c, 0, 41, 51
2, 122919, Note_on_c, 0, 68, 52
2, 122919, Note_on_c, 0, 62, 51
2, 122950, Control_c, 0, 64, 0
2, 122952, Note_off_c, 0, 46, 64
2, 122972, Control_c, 0, 64, 127
2, 123051, Note_off_c, 0, 62, 64
2, 123054, Note_off_c, 0, 68, 64
2, 123106, Note_off_c, 0, 70, 64
2, 123134, Note_on_c, 0, 70, 51
2, 123137, Note_on_c, 0, 40, 52
2, 123150, Note_off_c, 0, 41, 64
2, 123168, Control_c, 0, 64, 0
2, 123196, Control_c, 0, 64, 127
2, 123338, Note_on_c, 0, 71, 52
2, 123341, Note_on_c, 0, 61, 49
2, 123346, Note_on_c, 0, 52, 52
2, 123352, Note_off_c, 0, 70, 64
2, 123384, Note_off_c, 0, 40, 64
2, 123493, Note_off_c, 0, 61, 64
2, 123524, Note_on_c, 0, 67, 37
2, 123527, Note_off_c, 0, 71, 64
2, 123537, Note_on_c, 0, 39, 54
2, 123539, Note_on_c, 0, 61, 51
2, 123543, Note_off_c, 0, 52, 64
2, 123581, Note_off_c, 0, 67, 64
2, 123647, Note_on_c, 0, 67, 62
2, 123756, Note_on_c, 0, 70, 48
2, 123760, Note_on_c, 0, 44, 42
2, 123776, Note_off_c, 0, 39, 64
2, 123780, Note_off_c, 0, 67, 64
2, 123861, Note_on_c, 0, 69, 56
2, 123881, Note_off_c, 0, 70, 64
2, 123982, Note_on_c, 0, 68, 49
2, 123989, Note_on_c, 0, 59, 42
2, 123995, Note_on_c, 0, 51, 46
2, 124004, Note_off_c, 0, 69, 64
2, 124005, Control_c, 0, 64, 0
2, 124018, Note_off_c, 0, 61, 64
2, 124058, Control_c, 0, 64, 127
2, 124083, Note_off_c, 0, 44, 64
2, 124277, Note_on_c, 0, 61, 57
2, 124280, Note_on_c, 0, 66, 44
2, 124286, Note_on_c, 0, 54, 31
2, 124292, Note_on_c, 0, 46, 33
2, 124295, Note_off_c, 0, 59, 64
2, 124301, Note_off_c, 0, 51, 64
2, 124308, Note_off_c, 0, 68, 64
2, 124345, Control_c, 0, 64, 0
2, 124378, Control_c, 0, 64, 127
2, 124418, Note_on_c, 0, 64, 51
2, 124423, Note_off_c, 0, 66, 64
2, 124558, Note_off_c, 0, 64, 64
2, 124558, Note_on_c, 0, 63, 54
2, 124564, Note_on_c, 0, 35, 55
2, 124588, Control_c, 0, 64, 0
2, 124632, Control_c, 0, 64, 127
2, 124674, Note_off_c, 0, 54, 64
2, 124680, Note_off_c, 0, 46, 64
2, 124807, Note_on_c, 0, 54, 51
2, 124809, Note_on_c, 0, 47, 50
2, 124817, Note_on_c, 0, 59, 25
2, 124819, Note_off_c, 0, 61, 64
2, 124824, Control_c, 0, 64, 0
2, 124846, Control_c, 0, 64, 127
2, 124923, Note_off_c, 0, 35, 64
2, 124935, Note_off_c, 0, 59, 64
2, 124942, Note_off_c, 0, 47, 64
2, 124946, Note_off_c, 0, 54, 64
2, 125003, Note_on_c, 0, 64, 55
2, 125004, Note_on_c, 0, 59, 31
2, 125004, Note_on_c, 0, 61, 54
2, 125008, Note_on_c, 0, 54, 43
2, 125008, Note_on_c, 0, 47, 46
2, 125013, Note_off_c, 0, 63, 64
2, 125061, Control_c, 0, 64, 0
2, 125095, Control_c, 0, 64, 127
2, 125210, Note_on_c, 0, 66, 57
2, 125218, Note_on_c, 0, 63, 49
2, 125223, Note_off_c, 0, 64, 64
2, 125224, Note_off_c, 0, 61, 64
2, 125269, Note_off_c, 0, 59, 64
2, 125273, Note_off_c, 0, 47, 64
2, 125283, Note_off_c, 0, 54, 64
2, 125407, Note_off_c, 0, 63, 64
2, 125409, Note_off_c, 0, 66, 64
2, 125419, Note_on_c, 0, 75, 59
2, 125420, Note_on_c, 0, 66, 42
2, 125420, Note_on_c, 0, 63, 49
2, 125420, Note_on_c, 0, 59, 34
2, 125420, Note_on_c, 0, 54, 46
2, 125420, Note_on_c, 0, 47, 48
2, 125455, Control_c, 0, 64, 0
2, 125488, Control_c, 0, 64, 127
2, 125552, Note_off_c, 0, 59, 64
2, 125561, Note_off_c, 0, 47, 64
2, 125562, Note_off_c, 0, 66, 64
2, 125567, Note_off_c, 0, 63, 64
2, 125575, Note_off_c, 0, 54, 64
2, 125622, Note_on_c, 0, 66, 51
2, 125625, Note_on_c, 0, 63, 54
2, 125632, Note_on_c, 0, 54, 41
2, 125635, Note_on_c, 0, 47, 46
2, 125640, Note_on_c, 0, 59, 49
2, 125715, Note_off_c, 0, 75, 64
2, 125755, Note_on_c, 0, 75, 67
2, 125788, Note_off_c, 0, 75, 64
2, 125811, Note_on_c, 0, 75, 70
2, 125827, Control_c, 0, 64, 0
2, 125850, Control_c, 0, 64, 127
2, 125906, Note_off_c, 0, 66, 64
2, 125909, Note_off_c, 0, 63, 64
2, 125912, Note_off_c, 0, 47, 64
2, 125924, Note_off_c, 0, 59, 64
2, 125933, Note_off_c, 0, 54, 64
2, 126000, Note_on_c, 0, 64, 51
2, 126004, Note_on_c, 0, 68, 57
2, 126006, Control_c, 0, 64, 127
2, 126008, Note_on_c, 0, 47, 33
2, 126010, Note_on_c, 0, 54, 44
2, 126012, Note_on_c, 0, 61, 48
2, 126026, Control_c, 0, 64, 0
2, 126051, Control_c, 0, 64, 127
2, 126137, Note_off_c, 0, 75, 64
2, 126159, Note_off_c, 0, 61, 64
2, 126166, Note_off_c, 0, 47, 64
2, 126179, Note_off_c, 0, 54, 64
2, 126192, Note_on_c, 0, 75, 70
2, 126197, Note_off_c, 0, 64, 64
2, 126204, Note_on_c, 0, 70, 47
2, 126204, Note_on_c, 0, 61, 46
2, 126204, Note_on_c, 0, 54, 43
2, 126204, Note_on_c, 0, 47, 48
2, 126216, Note_on_c, 0, 64, 51
2, 126229, Note_off_c, 0, 68, 64
2, 126231, Control_c, 0, 64, 0
2, 126260, Note_on_c, 0, 47, 33
2, 126262, Note_on_c, 0, 54, 44
2, 126276, Control_c, 0, 64, 127
2, 126348, Note_off_c, 0, 75, 64
2, 126365, Note_off_c, 0, 47, 64
2, 126374, Note_off_c, 0, 54, 64
2, 126391, Note_on_c, 0, 75, 73
2, 126473, Note_off_c, 0, 47, 64
2, 126492, Note_off_c, 0, 54, 64
2, 126499, Note_off_c, 0, 61, 64
2, 126511, Note_off_c, 0, 64, 64
2, 126577, Note_on_c, 0, 68, 71
2, 126586, Note_on_c, 0, 64, 59
2, 126588, Note_on_c, 0, 47, 49
2, 126588, Note_on_c, 0, 61, 48
2, 126593, Note_off_c, 0, 70, 64
2, 126594, Note_on_c, 0, 54, 46
2, 126620, Control_c, 0, 64, 0
2, 126642, Control_c, 0, 64, 127
2, 126721, Note_off_c, 0, 75, 64
2, 126753, Note_off_c, 0, 64, 64
2, 126757, Note_off_c, 0, 61, 64
2, 126762, Note_off_c, 0, 47, 64
2, 126773, Note_off_c, 0, 54, 64
2, 126816, Note_on_c, 0, 75, 71
2, 126816, Note_on_c, 0, 64, 57
2, 126822, Note_on_c, 0, 70, 50
2, 126822, Control_c, 0, 64, 127
2, 126828, Note_on_c, 0, 61, 48
2, 126828, Note_on_c, 0, 54, 49
2, 126828, Note_on_c, 0, 47, 50
2, 126844, Note_off_c, 0, 68, 64
2, 127016, Note_off_c, 0, 75, 64
2, 127022, Note_off_c, 0, 61, 64
2, 127026, Note_off_c, 0, 47, 64
2, 127026, Note_off_c, 0, 54, 64
2, 127040, Note_off_c, 0, 64, 64
2, 127069, Note_on_c, 0, 75, 59
2, 127069, Note_on_c, 0, 63, 56
2, 127075, Note_on_c, 0, 35, 51
2, 127080, Note_on_c, 0, 71, 57
2, 127090, Control_c, 0, 64, 0
2, 127091, Note_off_c, 0, 70, 64
2, 127120, Control_c, 0, 64, 127
2, 127234, Note_off_c, 0, 63, 64
2, 127234, Note_off_c, 0, 75, 64
2, 127245, Note_off_c, 0, 71, 64
2, 127300, Note_on_c, 0, 63, 54
2, 127308, Note_on_c, 0, 59, 50
2, 127316, Note_on_c, 0, 54, 46
2, 127323, Note_on_c, 0, 47, 46
2, 127400, Note_off_c, 0, 35, 64
2, 127403, Note_off_c, 0, 63, 64
2, 127405, Note_on_c, 0, 64, 58
2, 127408, Note_on_c, 0, 61, 59
2, 127411, Note_off_c, 0, 59, 64
2, 127497, Note_on_c, 0, 66, 54
2, 127500, Note_on_c, 0, 70, 54
2, 127518, Control_c, 0, 64, 0
2, 127528, Note_off_c, 0, 64, 64
2, 127531, Note_off_c, 0, 61, 64
2, 127539, Control_c, 0, 64, 127
2, 127572, Note_on_c, 0, 68, 54
2, 127575, Note_on_c, 0, 64, 54
2, 127581, Note_off_c, 0, 66, 64
2, 127584, Note_off_c, 0, 70, 64
2, 127665, Note_on_c, 0, 66, 52
2, 127670, Note_off_c, 0, 68, 64
2, 127673, Note_on_c, 0, 63, 59
2, 127676, Note_off_c, 0, 64, 64
2, 127699, Control_c, 0, 64, 0
2, 127730, Control_c, 0, 64, 127
2, 127758, Note_off_c, 0, 47, 64
2, 127800, Note_off_c, 0, 54, 64
2, 127830, Note_off_c, 0, 66, 64
2, 127838, Note_off_c, 0, 63, 64
2, 127864, Note_on_c, 0, 75, 63
2, 127870, Note_on_c, 0, 47, 46
2, 127872, Note_on_c, 0, 66, 57
2, 127872, Note_on_c, 0, 59, 44
2, 127876, Note_on_c, 0, 54, 41
2, 127880, Note_on_c, 0, 63, 52
2, 127892, Control_c, 0, 64, 0
2, 127931, Control_c, 0, 64, 127
2, 128031, Note_off_c, 0, 47, 64
2, 128033, Note_off_c, 0, 59, 64
2, 128033, Note_off_c, 0, 66, 64
2, 128037, Note_off_c, 0, 54, 64
2, 128041, Note_off_c, 0, 63, 64
2, 128059, Note_on_c, 0, 63, 51
2, 128060, Note_on_c, 0, 66, 56
2, 128064, Note_on_c, 0, 59, 44
2, 128067, Note_on_c, 0, 54, 33
2, 128072, Note_on_c, 0, 47, 47
2, 128149, Note_off_c, 0, 75, 64
2, 128194, Note_on_c, 0, 75, 64
2, 128233, Note_off_c, 0, 75, 64
2, 128253, Note_on_c, 0, 75, 67
2, 128278, Control_c, 0, 64, 0
2, 128299, Control_c, 0, 64, 127
2, 128409, Note_off_c, 0, 63, 64
2, 128410, Note_off_c, 0, 66, 64
2, 128414, Note_off_c, 0, 59, 64
2, 128417, Note_off_c, 0, 54, 64
2, 128422, Note_off_c, 0, 47, 64
2, 128448, Note_on_c, 0, 65, 49
2, 128453, Note_on_c, 0, 58, 47
2, 128453, Note_on_c, 0, 68, 56
2, 128460, Note_on_c, 0, 51, 49
2, 128638, Note_off_c, 0, 75, 64
2, 128670, Note_off_c, 0, 58, 64
2, 128677, Note_off_c, 0, 51, 64
2, 128687, Note_off_c, 0, 65, 64
2, 128689, Note_on_c, 0, 75, 59
2, 128692, Note_off_c, 0, 68, 64
2, 128694, Note_on_c, 0, 70, 51
2, 128698, Note_on_c, 0, 66, 44
2, 128698, Note_on_c, 0, 58, 38
2, 128704, Note_on_c, 0, 51, 44
2, 128726, Control_c, 0, 64, 0
2, 128767, Control_c, 0, 64, 127
2, 128854, Note_off_c, 0, 75, 64
2, 128905, Note_on_c, 0, 75, 56
2, 128991, Note_off_c, 0, 70, 64
2, 129022, Note_off_c, 0, 66, 64
2, 129050, Note_off_c, 0, 51, 64
2, 129070, Note_off_c, 0, 58, 64
2, 129111, Note_on_c, 0, 68, 51
2, 129117, Note_on_c, 0, 65, 50
2, 129123, Note_on_c, 0, 58, 43
2, 129127, Note_on_c, 0, 51, 42
2, 129166, Note_off_c, 0, 75, 64
2, 129253, Note_off_c, 0, 51, 64
2, 129275, Note_off_c, 0, 58, 64
2, 129322, Note_on_c, 0, 51, 46
2, 129327, Note_on_c, 0, 66, 42
2, 129327, Note_on_c, 0, 58, 41
2, 129329, Note_on_c, 0, 75, 49
2, 129332, Note_on_c, 0, 70, 45
2, 129353, Note_off_c, 0, 68, 64
2, 129359, Note_off_c, 0, 65, 64
2, 129522, Note_off_c, 0, 51, 64
2, 129524, Note_off_c, 0, 75, 64
2, 129527, Note_off_c, 0, 58, 64
2, 129540, Note_on_c, 0, 71, 48
2, 129549, Note_on_c, 0, 75, 52
2, 129556, Note_on_c, 0, 35, 47
2, 129575, Note_off_c, 0, 66, 64
2, 129578, Control_c, 0, 64, 0
2, 129580, Note_off_c, 0, 70, 64
2, 129608, Control_c, 0, 64, 127
2, 129778, Note_off_c, 0, 71, 64
2, 129787, Note_off_c, 0, 75, 64
2, 129788, Note_on_c, 0, 63, 56
2, 129791, Note_on_c, 0, 59, 51
2, 129797, Note_on_c, 0, 47, 52
2, 129798, Note_on_c, 0, 54, 47
2, 129937, Note_off_c, 0, 35, 64
2, 129948, Note_off_c, 0, 54, 64
2, 129948, Note_off_c, 0, 47, 64
2, 130008, Note_on_c, 0, 54, 39
2, 130008, Note_on_c, 0, 47, 44
2, 130014, Note_on_c, 0, 64, 51
2, 130018, Note_on_c, 0, 61, 62
2, 130022, Note_off_c, 0, 63, 64
2, 130025, Note_off_c, 0, 59, 64
2, 130211, Note_on_c, 0, 66, 57
2, 130211, Note_on_c, 0, 63, 64
2, 130221, Note_off_c, 0, 64, 64
2, 130225, Note_off_c, 0, 61, 64
2, 130230, Control_c, 0, 64, 0
2, 130253, Control_c, 0, 64, 127
2, 130320, Note_off_c, 0, 47, 64
2, 130341, Note_off_c, 0, 54, 64
2, 130401, Note_off_c, 0, 63, 64
2, 130401, Note_off_c, 0, 66, 64
2, 130404, Note_on_c, 0, 75, 58
2, 130410, Note_on_c, 0, 54, 48
2, 130412, Note_on_c, 0, 63, 56
2, 130413, Note_on_c, 0, 47, 51
2, 130414, Note_on_c, 0, 59, 43
2, 130414, Note_on_c, 0, 66, 58
2, 130440, Control_c, 0, 64, 0
2, 130479, Control_c, 0, 64, 127
2, 130572, Note_off_c, 0, 54, 64
2, 130574, Note_off_c, 0, 63, 64
2, 130575, Note_off_c, 0, 47, 64
2, 130576, Note_off_c, 0, 66, 64
2, 130576, Note_off_c, 0, 59, 64
2, 130620, Note_on_c, 0, 66, 50
2, 130620, Note_on_c, 0, 63, 56
2, 130623, Note_on_c, 0, 59, 37
2, 130629, Note_on_c, 0, 54, 39
2, 130630, Note_on_c, 0, 47, 39
2, 130737, Note_off_c, 0, 75, 64
2, 130778, Note_on_c, 0, 75, 70
2, 130803, Note_off_c, 0, 75, 64
2, 130830, Note_on_c, 0, 75, 65
2, 130918, Note_off_c, 0, 47, 64
2, 130929, Note_off_c, 0, 63, 64
2, 130929, Note_off_c, 0, 66, 64
2, 130938, Note_off_c, 0, 54, 64
2, 130940, Note_off_c, 0, 59, 64
2, 131001, Note_on_c, 0, 47, 27
2, 131004, Note_on_c, 0, 61, 50
2, 131010, Note_on_c, 0, 64, 54
2, 131013, Note_on_c, 0, 68, 58
2, 131016, Note_on_c, 0, 54, 42
2, 131032, Control_c, 0, 64, 0
2, 131046, Control_c, 0, 64, 127
2, 131148, Note_off_c, 0, 61, 64
2, 131154, Note_off_c, 0, 64, 64
2, 131157, Note_off_c, 0, 47, 64
2, 131160, Note_off_c, 0, 54, 64
2, 131192, Note_off_c, 0, 75, 64
2, 131199, Note_on_c, 0, 47, 44
2, 131203, Note_on_c, 0, 70, 62
2, 131204, Note_on_c, 0, 64, 58
2, 131209, Note_on_c, 0, 61, 42
2, 131209, Note_on_c, 0, 75, 73
2, 131215, Note_off_c, 0, 68, 64
2, 131215, Note_on_c, 0, 54, 42
2, 131248, Control_c, 0, 64, 0
2, 131269, Control_c, 0, 64, 127
2, 131364, Note_off_c, 0, 75, 64
2, 131396, Note_on_c, 0, 75, 73
2, 131539, Note_off_c, 0, 70, 64
2, 131540, Note_off_c, 0, 64, 64
2, 131545, Note_off_c, 0, 47, 64
2, 131545, Note_off_c, 0, 61, 64
2, 131547, Note_off_c, 0, 54, 64
2, 131580, Note_on_c, 0, 68, 71
2, 131580, Note_on_c, 0, 64, 58
2, 131580, Note_on_c, 0, 47, 48
2, 131585, Note_on_c, 0, 61, 36
2, 131585, Note_on_c, 0, 54, 39
2, 131605, Control_c, 0, 64, 0
2, 131629, Control_c, 0, 64, 127
2, 131745, Note_off_c, 0, 47, 64
2, 131745, Note_off_c, 0, 64, 64
2, 131746, Note_off_c, 0, 75, 64
2, 131750, Note_off_c, 0, 54, 64
2, 131750, Note_off_c, 0, 61, 64
2, 131786, Note_on_c, 0, 75, 64
2, 131788, Note_on_c, 0, 64, 58
2, 131794, Note_on_c, 0, 61, 44
2, 131795, Note_on_c, 0, 70, 57
2, 131795, Note_on_c, 0, 47, 49
2, 131796, Note_on_c, 0, 54, 48
2, 131805, Note_off_c, 0, 68, 64
2, 131980, Note_off_c, 0, 75, 64
2, 131982, Note_off_c, 0, 64, 64
2, 131988, Note_off_c, 0, 61, 64
2, 131989, Note_off_c, 0, 47, 64
2, 131989, Note_off_c, 0, 70, 64
2, 131990, Note_off_c, 0, 54, 64
2, 132021, Note_on_c, 0, 75, 64
2, 132028, Note_on_c, 0, 63, 62
2, 132030, Note_on_c, 0, 71, 58
2, 132030, Note_on_c, 0, 35, 62
2, 132043, Control_c, 0, 64, 0
2, 132084, Control_c, 0, 64, 127
2, 132210, Note_off_c, 0, 63, 64
2, 132276, Note_on_c, 0, 47, 49
2, 132278, Note_on_c, 0, 63, 56
2, 132282, Note_on_c, 0, 59, 52
2, 132286, Note_on_c, 0, 54, 42
2, 132351, Note_off_c, 0, 75, 64
2, 132360, Note_off_c, 0, 71, 64
2, 132379, Note_off_c, 0, 63, 64
2, 132380, Note_on_c, 0, 64, 58
2, 132380, Note_on_c, 0, 61, 64
2, 132383, Note_off_c, 0, 59, 64
2, 132432, Note_off_c, 0, 35, 64
2, 132475, Note_on_c, 0, 66, 51
2, 132475, Note_on_c, 0, 70, 56
2, 132477, Note_off_c, 0, 61, 64
2, 132477, Note_off_c, 0, 64, 64
2, 132488, Control_c, 0, 64, 0
2, 132510, Control_c, 0, 64, 127
2, 132537, Note_on_c, 0, 68, 51
2, 132542, Note_on_c, 0, 64, 49
2, 132550, Note_off_c, 0, 70, 64
2, 132550, Note_off_c, 0, 66, 64
2, 132604, Note_on_c, 0, 63, 62
2, 132608, Note_on_c, 0, 66, 46
2, 132613, Note_off_c, 0, 68, 64
2, 132618, Note_off_c, 0, 64, 64
2, 132635, Note_off_c, 0, 63, 64
2, 132639, Note_off_c, 0, 66, 64
2, 132668, Note_on_c, 0, 63, 56
2, 132671, Note_on_c, 0, 66, 62
2, 132696, Control_c, 0, 64, 0
2, 132709, Control_c, 0, 64, 127
2, 132745, Note_off_c, 0, 47, 64
2, 132755, Note_off_c, 0, 54, 64
2, 132809, Note_off_c, 0, 63, 64
2, 132812, Note_off_c, 0, 66, 64
2, 132884, Note_on_c, 0, 75, 71
2, 132884, Note_on_c, 0, 63, 56
2, 132892, Note_on_c, 0, 54, 42
2, 132894, Note_on_c, 0, 66, 58
2, 132896, Control_c, 0, 64, 0
2, 132898, Note_on_c, 0, 59, 46
2, 132898, Note_on_c, 0, 47, 42
2, 132909, Control_c, 0, 64, 127
2, 132912, Control_c, 0, 64, 0
2, 132948, Control_c, 0, 64, 127
2, 133025, Note_off_c, 0, 63, 64
2, 133035, Note_off_c, 0, 66, 64
2, 133039, Note_off_c, 0, 47, 64
2, 133040, Note_off_c, 0, 54, 64
2, 133044, Note_off_c, 0, 59, 64
2, 133094, Note_on_c, 0, 63, 58
2, 133094, Note_on_c, 0, 66, 51
2, 133101, Note_on_c, 0, 54, 39
2, 133107, Note_on_c, 0, 47, 48
2, 133110, Note_on_c, 0, 59, 39
2, 133199, Note_off_c, 0, 75, 64
2, 133224, Note_on_c, 0, 75, 71
2, 133258, Note_off_c, 0, 75, 64
2, 133283, Note_on_c, 0, 75, 65
2, 133306, Control_c, 0, 64, 0
2, 133329, Control_c, 0, 64, 127
2, 133452, Note_off_c, 0, 66, 64
2, 133452, Note_off_c, 0, 63, 64
2, 133459, Note_off_c, 0, 54, 64
2, 133465, Note_off_c, 0, 47, 64
2, 133468, Note_off_c, 0, 59, 64
2, 133480, Note_on_c, 0, 68, 62
2, 133483, Note_on_c, 0, 65, 60
2, 133493, Note_on_c, 0, 58, 60
2, 133493, Note_on_c, 0, 51, 60
2, 133509, Control_c, 0, 64, 0
2, 133532, Control_c, 0, 64, 127
2, 133630, Note_off_c, 0, 75, 64
2, 133635, Note_off_c, 0, 51, 64
2, 133651, Note_off_c, 0, 58, 64
2, 133689, Note_on_c, 0, 75, 66
2, 133692, Note_on_c, 0, 58, 55
2, 133696, Note_on_c, 0, 70, 63
2, 133698, Note_on_c, 0, 51, 59
2, 133698, Note_on_c, 0, 66, 66
2, 133719, Note_off_c, 0, 68, 64
2, 133722, Note_off_c, 0, 65, 64
2, 133730, Control_c, 0, 64, 0
2, 133753, Control_c, 0, 64, 127
2, 133870, Note_off_c, 0, 75, 64
2, 133895, Note_on_c, 0, 75, 87
2, 133994, Note_off_c, 0, 51, 64
2, 134019, Note_off_c, 0, 58, 64
2, 134023, Note_off_c, 0, 70, 64
2, 134025, Note_off_c, 0, 66, 64
2, 134099, Note_on_c, 0, 68, 62
2, 134100, Note_on_c, 0, 65, 66
2, 134105, Note_on_c, 0, 58, 64
2, 134108, Note_on_c, 0, 51, 67
2, 134314, Note_off_c, 0, 75, 64
2, 134324, Note_off_c, 0, 51, 64
2, 134332, Note_off_c, 0, 58, 64
2, 134355, Note_on_c, 0, 75, 73
2, 134357, Note_on_c, 0, 66, 71
2, 134364, Note_on_c, 0, 51, 70
2, 134364, Note_on_c, 0, 70, 70
2, 134367, Note_on_c, 0, 58, 70
2, 134376, Note_off_c, 0, 68, 64
2, 134377, Note_off_c, 0, 65, 64
2, 134386, Control_c, 0, 64, 0
2, 134419, Control_c, 0, 64, 127
2, 134610, Note_off_c, 0, 66, 64
2, 134617, Note_off_c, 0, 70, 64
2, 134617, Note_off_c, 0, 51, 64
2, 134620, Note_off_c, 0, 58, 64
2, 134666, Note_on_c, 0, 64, 71
2, 134671, Note_on_c, 0, 71, 75
2, 134671, Note_on_c, 0, 76, 66
2, 134676, Note_on_c, 0, 56, 65
2, 134678, Note_on_c, 0, 50, 65
2, 134678, Note_on_c, 0, 59, 75
2, 134695, Note_off_c, 0, 75, 64
2, 134714, Control_c, 0, 64, 0
2, 134757, Control_c, 0, 64, 127
2, 134894, Note_off_c, 0, 50, 64
2, 134900, Note_off_c, 0, 76, 64
2, 134920, Note_off_c, 0, 64, 64
2, 134931, Note_off_c, 0, 59, 64
2, 134934, Note_off_c, 0, 56, 64
2, 134937, Note_off_c, 0, 71, 64
2, 134990, Note_on_c, 0, 76, 71
2, 134990, Note_on_c, 0, 71, 81
2, 134990, Note_on_c, 0, 64, 73
2, 134996, Note_on_c, 0, 56, 71
2, 135000, Note_on_c, 0, 52, 66
2, 135002, Note_on_c, 0, 59, 83
2, 135002, Note_on_c, 0, 50, 66
2, 135028, Control_c, 0, 64, 0
2, 135060, Control_c, 0, 64, 127
2, 135175, Note_off_c, 0, 64, 64
2, 135203, Note_off_c, 0, 76, 64
2, 135209, Note_off_c, 0, 56, 64
2, 135248, Note_on_c, 0, 76, 66
2, 135249, Note_off_c, 0, 50, 64
2, 135250, Note_on_c, 0, 72, 75
2, 135252, Note_on_c, 0, 56, 62
2, 135252, Note_on_c, 0, 64, 71
2, 135260, Note_on_c, 0, 50, 58
2, 135260, Note_on_c, 0, 60, 77
2, 135270, Note_off_c, 0, 71, 64
2, 135282, Note_off_c, 0, 59, 64
2, 135290, Control_c, 0, 64, 0
2, 135323, Control_c, 0, 64, 127
2, 135483, Note_off_c, 0, 56, 64
2, 135504, Note_on_c, 0, 71, 72
2, 135507, Note_on_c, 0, 59, 71
2, 135524, Note_off_c, 0, 52, 64
2, 135524, Note_off_c, 0, 50, 64
2, 135525, Note_off_c, 0, 64, 64
2, 135529, Note_off_c, 0, 72, 64
2, 135539, Note_off_c, 0, 60, 64
2, 135543, Note_off_c, 0, 76, 64
2, 135551, Note_off_c, 0, 71, 64
2, 135564, Note_off_c, 0, 59, 64
2, 135585, Note_on_c, 0, 71, 82
2, 135589, Note_on_c, 0, 64, 71
2, 135591, Note_on_c, 0, 76, 73
2, 135597, Note_on_c, 0, 52, 57
2, 135599, Note_on_c, 0, 59, 81
2, 135602, Note_on_c, 0, 48, 58
2, 135637, Control_c, 0, 64, 0
2, 135690, Control_c, 0, 64, 127
2, 135860, Note_on_c, 0, 69, 71
2, 135863, Note_on_c, 0, 57, 75
2, 135872, Control_c, 0, 64, 0
2, 135883, Control_c, 0, 64, 127
2, 135890, Note_off_c, 0, 71, 64
2, 135904, Note_off_c, 0, 59, 64
2, 136062, Note_on_c, 0, 56, 64
2, 136072, Note_on_c, 0, 68, 75
2, 136080, Note_off_c, 0, 69, 64
2, 136083, Note_off_c, 0, 57, 64
2, 136085, Note_off_c, 0, 52, 64
2, 136111, Note_off_c, 0, 76, 64
2, 136134, Note_on_c, 0, 69, 74
2, 136137, Note_on_c, 0, 57, 71
2, 136141, Note_off_c, 0, 56, 64
2, 136151, Note_off_c, 0, 68, 64
2, 136176, Control_c, 0, 64, 0
2, 136212, Control_c, 0, 64, 127
2, 136245, Note_off_c, 0, 48, 64
2, 136256, Note_off_c, 0, 64, 64
2, 136368, Note_off_c, 0, 69, 64
2, 136387, Note_off_c, 0, 57, 64
2, 136432, Note_on_c, 0, 47, 62
2, 136440, Note_on_c, 0, 35, 62
2, 136445, Note_on_c, 0, 66, 71
2, 136445, Note_on_c, 0, 63, 62
2, 136445, Note_on_c, 0, 57, 62
2, 136451, Note_on_c, 0, 59, 59
2, 136455, Note_on_c, 0, 71, 66
2, 136487, Control_c, 0, 64, 0
2, 136528, Control_c, 0, 64, 127
2, 136583, Note_off_c, 0, 47, 64
2, 136591, Note_off_c, 0, 35, 64
2, 136605, Note_off_c, 0, 57, 64
2, 136609, Note_off_c, 0, 63, 64
2, 136618, Note_off_c, 0, 59, 64
2, 136620, Note_off_c, 0, 71, 64
2, 136665, Note_off_c, 0, 66, 64
2, 136695, Note_on_c, 0, 63, 67
2, 136700, Note_on_c, 0, 57, 71
2, 136700, Note_on_c, 0, 66, 75
2, 136704, Note_on_c, 0, 35, 62
2, 136705, Note_on_c, 0, 71, 62
2, 136708, Note_on_c, 0, 59, 58
2, 136710, Note_on_c, 0, 47, 58
2, 136730, Control_c, 0, 64, 0
2, 136767, Control_c, 0, 64, 127
2, 136831, Note_off_c, 0, 47, 64
2, 136838, Note_off_c, 0, 57, 64
2, 136847, Note_off_c, 0, 71, 64
2, 136851, Note_off_c, 0, 63, 64
2, 136855, Note_off_c, 0, 35, 64
2, 136868, Note_off_c, 0, 59, 64
2, 136944, Note_on_c, 0, 63, 64
2, 136952, Note_on_c, 0, 67, 74
2, 136952, Note_on_c, 0, 59, 58
2, 136952, Note_on_c, 0, 47, 65
2, 136959, Note_on_c, 0, 71, 66
2, 136959, Note_on_c, 0, 57, 66
2, 136960, Note_on_c, 0, 35, 62
2, 136971, Control_c, 0, 64, 0
2, 136974, Note_off_c, 0, 66, 64
2, 136985, Control_c, 0, 64, 127
2, 137032, Note_off_c, 0, 63, 64
2, 137066, Note_off_c, 0, 59, 64
2, 137073, Note_off_c, 0, 57, 64
2, 137081, Note_off_c, 0, 71, 64
2, 137103, Note_off_c, 0, 47, 64
2, 137110, Note_on_c, 0, 66, 72
2, 137111, Note_off_c, 0, 35, 64
2, 137116, Note_off_c, 0, 67, 64
2, 137167, Note_off_c, 0, 66, 64
2, 137205, Note_on_c, 0, 66, 81
2, 137210, Note_on_c, 0, 71, 66
2, 137210, Note_on_c, 0, 40, 58
2, 137216, Note_on_c, 0, 57, 71
2, 137216, Note_on_c, 0, 59, 65
2, 137218, Note_on_c, 0, 47, 56
2, 137230, Control_c, 0, 64, 0
2, 137262, Control_c, 0, 64, 127
2, 137345, Note_on_c, 0, 64, 71
2, 137348, Note_on_c, 0, 55, 57
2, 137354, Note_off_c, 0, 66, 64
2, 137365, Note_off_c, 0, 57, 64
2, 137408, Note_off_c, 0, 55, 64
2, 137432, Note_on_c, 0, 66, 66
2, 137433, Note_off_c, 0, 64, 64
2, 137466, Note_on_c, 0, 64, 48
2, 137466, Note_on_c, 0, 55, 59
2, 137472, Note_off_c, 0, 66, 64
2, 137584, Note_on_c, 0, 54, 63
2, 137587, Note_on_c, 0, 63, 85
2, 137602, Note_off_c, 0, 55, 64
2, 137602, Note_off_c, 0, 64, 64
2, 137716, Note_on_c, 0, 64, 73
2, 137722, Note_on_c, 0, 55, 58
2, 137737, Note_off_c, 0, 54, 64
2, 137740, Note_off_c, 0, 63, 64
2, 137745, Control_c, 0, 64, 0
2, 137790, Control_c, 0, 64, 127
2, 137807, Note_off_c, 0, 71, 64
2, 137812, Note_off_c, 0, 59, 64
2, 137912, Note_off_c, 0, 40, 64
2, 137920, Note_off_c, 0, 47, 64
2, 137980, Note_off_c, 0, 64, 64
2, 137986, Note_off_c, 0, 55, 64
2, 138023, Note_on_c, 0, 62, 58
2, 138025, Note_on_c, 0, 68, 63
2, 138026, Note_on_c, 0, 71, 71
2, 138029, Note_on_c, 0, 76, 66
2, 138036, Note_on_c, 0, 40, 67
2, 138036, Note_on_c, 0, 52, 63
2, 138076, Control_c, 0, 64, 0
2, 138130, Control_c, 0, 64, 127
2, 138236, Note_off_c, 0, 68, 64
2, 138253, Note_off_c, 0, 62, 64
2, 138270, Note_off_c, 0, 71, 64
2, 138276, Note_off_c, 0, 52, 64
2, 138285, Note_off_c, 0, 76, 64
2, 138327, Note_on_c, 0, 71, 81
2, 138327, Note_on_c, 0, 62, 71
2, 138333, Note_on_c, 0, 68, 73
2, 138335, Note_on_c, 0, 76, 66
2, 138335, Note_on_c, 0, 52, 72
2, 138379, Control_c, 0, 64, 0
2, 138403, Control_c, 0, 64, 127
2, 138508, Note_off_c, 0, 40, 64
2, 138544, Note_off_c, 0, 52, 64
2, 138568, Note_off_c, 0, 62, 64
2, 138572, Note_off_c, 0, 68, 64
2, 138584, Note_off_c, 0, 76, 64
2, 138613, Note_off_c, 0, 71, 64
2, 138613, Note_on_c, 0, 62, 71
2, 138615, Note_on_c, 0, 72, 82
2, 138615, Note_on_c, 0, 76, 73
2, 138621, Note_on_c, 0, 68, 72
2, 138628, Note_on_c, 0, 52, 62
2, 138668, Control_c, 0, 64, 0
2, 138703, Control_c, 0, 64, 127
2, 138794, Note_off_c, 0, 68, 64
2, 138855, Note_off_c, 0, 76, 64
2, 138887, Note_on_c, 0, 71, 66
2, 138888, Note_off_c, 0, 72, 64
2, 138924, Note_off_c, 0, 62, 64
2, 138939, Note_off_c, 0, 52, 64
2, 138942, Note_off_c, 0, 71, 64
2, 138979, Control_c, 0, 64, 127
2, 138996, Note_on_c, 0, 64, 66
2, 139001, Note_on_c, 0, 71, 81
2, 139004, Note_on_c, 0, 76, 71
2, 139004, Note_on_c, 0, 68, 73
2, 139004, Note_on_c, 0, 62, 66
2, 139009, Note_on_c, 0, 45, 58
2, 139011, Note_on_c, 0, 52, 58
2, 139041, Control_c, 0, 64, 0
2, 139083, Control_c, 0, 64, 127
2, 139173, Note_off_c, 0, 64, 64
2, 139181, Note_off_c, 0, 62, 64
2, 139181, Note_off_c, 0, 68, 64
2, 139183, Note_on_c, 0, 69, 77
2, 139210, Note_off_c, 0, 71, 64
2, 139234, Note_off_c, 0, 76, 64
2, 139301, Note_off_c, 0, 69, 64
2, 139310, Note_on_c, 0, 71, 66
2, 139325, Note_on_c, 0, 60, 47
2, 139342, Control_c, 0, 64, 0
2, 139352, Note_on_c, 0, 69, 75
2, 139367, Control_c, 0, 64, 127
2, 139374, Note_off_c, 0, 71, 64
2, 139408, Note_off_c, 0, 52, 64
2, 139482, Note_on_c, 0, 68, 75
2, 139483, Note_on_c, 0, 59, 67
2, 139488, Note_off_c, 0, 60, 64
2, 139515, Note_off_c, 0, 69, 64
2, 139630, Note_on_c, 0, 69, 75
2, 139636, Note_on_c, 0, 60, 54
2, 139652, Control_c, 0, 64, 0
2, 139657, Note_off_c, 0, 68, 64
2, 139658, Note_off_c, 0, 59, 64
2, 139725, Control_c, 0, 64, 127
2, 139914, Note_off_c, 0, 45, 64
2, 139997, Note_on_c, 0, 72, 52
2, 140003, Note_off_c, 0, 69, 64
2, 140148, Note_on_c, 0, 67, 50
2, 140154, Note_on_c, 0, 55, 46
2, 140159, Control_c, 0, 64, 0
2, 140166, Note_off_c, 0, 72, 64
2, 140182, Control_c, 0, 64, 127
2, 140239, Note_off_c, 0, 60, 64
2, 140308, Note_on_c, 0, 53, 46
2, 140318, Note_on_c, 0, 65, 50
2, 140324, Note_off_c, 0, 67, 64
2, 140324, Note_off_c, 0, 55, 64
2, 140344, Control_c, 0, 64, 0
2, 140385, Control_c, 0, 64, 127
2, 140647, Note_on_c, 0, 52, 46
2, 140648, Note_on_c, 0, 64, 47
2, 140655, Note_off_c, 0, 65, 64
2, 140672, Control_c, 0, 64, 0
2, 140677, Note_off_c, 0, 53, 64
2, 140709, Control_c, 0, 64, 127
2, 140913, Note_on_c, 0, 55, 42
2, 140916, Note_on_c, 0, 67, 54
2, 140926, Note_off_c, 0, 64, 64
2, 140936, Note_off_c, 0, 52, 64
2, 140979, Note_on_c, 0, 64, 56
2, 140989, Note_on_c, 0, 52, 54
2, 140993, Control_c, 0, 64, 0
2, 140998, Note_off_c, 0, 67, 64
2, 141014, Note_off_c, 0, 55, 64
2, 141059, Control_c, 0, 64, 127
2, 141338, Note_on_c, 0, 59, 50
2, 141339, Note_on_c, 0, 40, 48
2, 141344, Note_on_c, 0, 55, 47
2, 141345, Note_on_c, 0, 47, 50
2, 141361, Control_c, 0, 64, 0
2, 141404, Control_c, 0, 64, 127
2, 141554, Note_off_c, 0, 59, 64
2, 141555, Note_off_c, 0, 40, 64
2, 141560, Note_off_c, 0, 55, 64
2, 141561, Note_off_c, 0, 47, 64
2, 141774, Note_on_c, 0, 57, 47
2, 141779, Note_on_c, 0, 45, 47
2, 141779, Note_on_c, 0, 60, 47
2, 141804, Control_c, 0, 64, 0
2, 141866, Control_c, 0, 64, 127
2, 141979, Note_off_c, 0, 52, 64
2, 142098, Note_on_c, 0, 67, 51
2, 142100, Note_on_c, 0, 55, 49
2, 142104, Note_off_c, 0, 64, 64
2, 142150, Note_on_c, 0, 64, 58
2, 142154, Note_off_c, 0, 57, 64
2, 142154, Note_on_c, 0, 52, 46
2, 142159, Note_off_c, 0, 60, 64
2, 142159, Note_off_c, 0, 45, 64
2, 142163, Control_c, 0, 64, 0
2, 142169, Note_off_c, 0, 67, 64
2, 142185, Note_off_c, 0, 55, 64
2, 142260, Control_c, 0, 64, 127
2, 142484, Note_on_c, 0, 59, 49
2, 142486, Note_on_c, 0, 55, 46
2, 142496, Note_on_c, 0, 47, 46
2, 142496, Note_on_c, 0, 40, 49
2, 142496, Control_c, 0, 64, 0
2, 142552, Control_c, 0, 64, 127
2, 142704, Note_off_c, 0, 59, 64
2, 142706, Note_off_c, 0, 55, 64
2, 142716, Note_off_c, 0, 40, 64
2, 142716, Note_off_c, 0, 47, 64
2, 142879, Note_on_c, 0, 60, 49
2, 142884, Note_on_c, 0, 57, 46
2, 142887, Note_on_c, 0, 45, 43
2, 142900, Control_c, 0, 64, 0
2, 142941, Control_c, 0, 64, 127
2, 143036, Note_off_c, 0, 52, 64
2, 143218, Note_on_c, 0, 67, 51
2, 143222, Note_off_c, 0, 64, 64
2, 143222, Note_on_c, 0, 55, 42
2, 143264, Note_off_c, 0, 60, 64
2, 143269, Note_off_c, 0, 57, 64
2, 143272, Note_off_c, 0, 45, 64
2, 143273, Note_on_c, 0, 52, 48
2, 143276, Note_on_c, 0, 64, 54
2, 143288, Note_off_c, 0, 67, 64
2, 143299, Control_c, 0, 64, 0
2, 143304, Note_off_c, 0, 55, 64
2, 143764, Note_on_c, 0, 45, 34
2, 143764, Note_on_c, 0, 57, 32
2, 143764, Note_on_c, 0, 60, 31
2, 143815, Control_c, 0, 64, 127
2, 143940, Note_off_c, 0, 52, 64
2, 143947, Note_off_c, 0, 64, 64
2, 144185, Note_on_c, 0, 55, 42
2, 144188, Note_on_c, 0, 67, 46
2, 144189, Note_off_c, 0, 60, 64
2, 144189, Note_off_c, 0, 57, 64
2, 144189, Note_off_c, 0, 45, 64
2, 144650, Note_on_c, 0, 72, 50
2, 144656, Note_on_c, 0, 60, 35
2, 144674, Control_c, 0, 64, 0
2, 144679, Note_off_c, 0, 67, 64
2, 144683, Note_off_c, 0, 55, 64
2, 144712, Control_c, 0, 64, 127
2, 144850, Note_on_c, 0, 67, 48
2, 144853, Note_on_c, 0, 55, 39
2, 144866, Note_off_c, 0, 72, 64
2, 144882, Note_off_c, 0, 60, 64
2, 144934, Control_c, 0, 64, 0
2, 144965, Control_c, 0, 64, 127
2, 145052, Note_on_c, 0, 53, 39
2, 145057, Note_on_c, 0, 65, 42
2, 145063, Note_off_c, 0, 55, 64
2, 145078, Note_off_c, 0, 67, 64
2, 145091, Control_c, 0, 64, 0
2, 145164, Control_c, 0, 64, 127
2, 145517, Note_on_c, 0, 64, 34
2, 145525, Note_on_c, 0, 52, 34
2, 145534, Note_off_c, 0, 65, 64
2, 145546, Control_c, 0, 64, 0
2, 145550, Note_off_c, 0, 53, 64
2, 145579, Control_c, 0, 64, 127
2, 145921, Note_on_c, 0, 55, 36
2, 145927, Note_on_c, 0, 67, 46
2, 145930, Note_off_c, 0, 52, 64
2, 145942, Note_off_c, 0, 64, 64
2, 146004, Note_on_c, 0, 64, 46
2, 146014, Note_on_c, 0, 52, 37
2, 146022, Note_off_c, 0, 55, 64
2, 146028, Note_off_c, 0, 67, 64
2, 146029, Control_c, 0, 64, 0
2, 146114, Control_c, 0, 64, 127
2, 146742, Note_on_c, 0, 59, 25
2, 146749, Note_on_c, 0, 40, 25
2, 146751, Note_on_c, 0, 47, 26
2, 146754, Note_on_c, 0, 55, 23
2, 146821, Control_c, 0, 64, 0
2, 146954, Control_c, 0, 64, 127
2, 149189, Note_off_c, 0, 52, 64
2, 149195, Note_off_c, 0, 40, 64
2, 149202, Note_off_c, 0, 47, 64
2, 149216, Note_off_c, 0, 55, 64
2, 149225, Note_off_c, 0, 59, 64
2, 149245, Note_off_c, 0, 64, 64
2, 149865, Note_on_c, 0, 35, 59
2, 149868, Note_on_c, 0, 47, 49
2, 149869, Note_on_c, 0, 54, 54
2, 149872, Note_on_c, 0, 61, 59
2, 149875, Note_on_c, 0, 64, 52
2, 149885, Control_c, 0, 64, 127
2, 149908, Note_off_c, 0, 35, 64
2, 149910, Note_off_c, 0, 47, 64
2, 149924, Note_on_c, 0, 59, 40
2, 149925, Note_on_c, 0, 63, 51
2, 149941, Note_off_c, 0, 64, 64
2, 149952, Note_off_c, 0, 54, 64
2, 149955, Note_off_c, 0, 61, 64
2, 149962, Note_off_c, 0, 59, 64
2, 149970, Note_off_c, 0, 63, 64
2, 150000, Control_c, 0, 64, 0
2, 150004, Note_on_c, 0, 63, 52
2, 150006, Note_on_c, 0, 35, 56
2, 150007, Note_on_c, 0, 59, 51
2, 150007, Note_on_c, 0, 54, 48
2, 150007, Note_on_c, 0, 47, 47
2, 150037, Control_c, 0, 64, 127
2, 150094, Note_off_c, 0, 35, 64
2, 150101, Note_off_c, 0, 47, 64
2, 150128, Note_off_c, 0, 59, 64
2, 150128, Note_off_c, 0, 63, 64
2, 150134, Note_off_c, 0, 54, 64
2, 150272, Note_on_c, 0, 35, 52
2, 150273, Note_on_c, 0, 61, 50
2, 150273, Note_on_c, 0, 54, 48
2, 150274, Note_on_c, 0, 64, 49
2, 150276, Note_on_c, 0, 47, 55
2, 150312, Note_off_c, 0, 35, 64
2, 150320, Note_off_c, 0, 47, 64
2, 150332, Note_on_c, 0, 63, 48
2, 150332, Note_on_c, 0, 59, 48
2, 150350, Note_off_c, 0, 54, 64
2, 150354, Note_off_c, 0, 64, 64
2, 150356, Note_off_c, 0, 61, 64
2, 150367, Note_off_c, 0, 59, 64
2, 150379, Note_off_c, 0, 63, 64
2, 150388, Note_on_c, 0, 47, 52
2, 150388, Note_on_c, 0, 35, 46
2, 150392, Note_on_c, 0, 54, 54
2, 150394, Note_on_c, 0, 63, 51
2, 150395, Note_on_c, 0, 59, 55
2, 150416, Control_c, 0, 64, 0
2, 150471, Control_c, 0, 64, 127
2, 150508, Note_off_c, 0, 47, 64
2, 150516, Note_off_c, 0, 35, 64
2, 150546, Note_off_c, 0, 59, 64
2, 150559, Note_off_c, 0, 63, 64
2, 150560, Note_off_c, 0, 54, 64
2, 150672, Note_on_c, 0, 61, 46
2, 150674, Note_on_c, 0, 64, 51
2, 150676, Note_on_c, 0, 47, 52
2, 150677, Note_on_c, 0, 54, 49
2, 150681, Note_on_c, 0, 35, 49
2, 150718, Note_on_c, 0, 63, 33
2, 150718, Note_on_c, 0, 59, 54
2, 150728, Note_off_c, 0, 47, 64
2, 150733, Note_off_c, 0, 35, 64
2, 150739, Note_off_c, 0, 64, 64
2, 150756, Note_off_c, 0, 54, 64
2, 150757, Note_off_c, 0, 61, 64
2, 150761, Note_off_c, 0, 59, 64
2, 150769, Note_off_c, 0, 63, 64
2, 150796, Control_c, 0, 64, 0
2, 150802, Note_on_c, 0, 63, 49
2, 150802, Note_on_c, 0, 54, 50
2, 150804, Note_on_c, 0, 59, 50
2, 150811, Note_on_c, 0, 47, 46
2, 150811, Note_on_c, 0, 35, 42
2, 150837, Control_c, 0, 64, 127
2, 150930, Note_off_c, 0, 35, 64
2, 150944, Note_off_c, 0, 47, 64
2, 150944, Note_off_c, 0, 59, 64
2, 150952, Note_off_c, 0, 63, 64
2, 150953, Note_off_c, 0, 54, 64
2, 151076, Control_c, 0, 64, 0
2, 151088, Note_on_c, 0, 61, 41
2, 151088, Note_on_c, 0, 35, 42
2, 151089, Note_on_c, 0, 47, 41
2, 151090, Note_on_c, 0, 64, 43
2, 151090, Note_on_c, 0, 54, 40
2, 151107, Control_c, 0, 64, 127
2, 151139, Note_on_c, 0, 63, 44
2, 151140, Note_on_c, 0, 59, 42
2, 151150, Note_off_c, 0, 35, 64
2, 151151, Note_off_c, 0, 47, 64
2, 151152, Note_off_c, 0, 64, 64
2, 151165, Note_off_c, 0, 54, 64
2, 151179, Note_off_c, 0, 61, 64
2, 151182, Note_off_c, 0, 59, 64
2, 151188, Note_off_c, 0, 63, 64
2, 151208, Note_on_c, 0, 35, 41
2, 151208, Note_on_c, 0, 54, 50
2, 151208, Note_on_c, 0, 59, 50
2, 151208, Note_on_c, 0, 63, 47
2, 151212, Note_on_c, 0, 47, 47
2, 151217, Control_c, 0, 64, 0
2, 151251, Control_c, 0, 64, 127
2, 151468, Note_off_c, 0, 35, 64
2, 151482, Control_c, 0, 64, 0
2, 151488, Note_on_c, 0, 35, 102
2, 151515, Control_c, 0, 64, 127
2, 151531, Note_off_c, 0, 63, 64
2, 151531, Note_off_c, 0, 59, 64
2, 151531, Note_off_c, 0, 54, 64
2, 151535, Note_off_c, 0, 47, 64
2, 151551, Note_off_c, 0, 35, 64
2, 151640, Note_on_c, 0, 61, 43
2, 151640, Note_on_c, 0, 49, 41
2, 151686, Control_c, 0, 64, 0
2, 151700, Note_on_c, 0, 47, 48
2, 151701, Note_on_c, 0, 59, 47
2, 151711, Note_off_c, 0, 61, 64
2, 151715, Note_off_c, 0, 49, 64
2, 151752, Note_on_c, 0, 52, 46
2, 151757, Note_on_c, 0, 64, 39
2, 151797, Note_off_c, 0, 59, 64
2, 151799, Note_off_c, 0, 47, 64
2, 151808, Note_on_c, 0, 66, 43
2, 151810, Note_on_c, 0, 54, 55
2, 151831, Note_off_c, 0, 52, 64
2, 151836, Note_off_c, 0, 64, 64
2, 151869, Note_on_c, 0, 68, 56
2, 151875, Note_on_c, 0, 56, 59
2, 151883, Note_off_c, 0, 66, 64
2, 151885, Note_off_c, 0, 54, 64
2, 151928, Note_on_c, 0, 51, 48
2, 151935, Note_on_c, 0, 63, 48
2, 151958, Note_off_c, 0, 68, 64
2, 151964, Note_off_c, 0, 56, 64
2, 151992, Note_on_c, 0, 64, 41
2, 151992, Note_on_c, 0, 52, 50
2, 152001, Note_off_c, 0, 51, 64
2, 152008, Note_off_c, 0, 63, 64
2, 152044, Note_on_c, 0, 56, 62
2, 152048, Note_on_c, 0, 68, 50
2, 152057, Note_off_c, 0, 52, 64
2, 152057, Note_off_c, 0, 64, 64
2, 152092, Note_on_c, 0, 71, 43
2, 152092, Note_on_c, 0, 59, 64
2, 152115, Note_off_c, 0, 56, 64
2, 152119, Note_off_c, 0, 68, 64
2, 152147, Note_on_c, 0, 61, 67
2, 152148, Note_on_c, 0, 73, 55
2, 152164, Note_off_c, 0, 71, 64
2, 152174, Note_off_c, 0, 59, 64
2, 152196, Note_on_c, 0, 75, 74
2, 152199, Note_on_c, 0, 63, 78
2, 152216, Note_off_c, 0, 61, 64
2, 152217, Note_off_c, 0, 73, 64
2, 152228, Note_off_c, 0, 75, 64
2, 152262, Note_on_c, 0, 70, 58
2, 152264, Note_off_c, 0, 63, 64
2, 152310, Note_on_c, 0, 71, 44
2, 152313, Note_on_c, 0, 49, 65
2, 152336, Note_off_c, 0, 70, 64
2, 152353, Note_on_c, 0, 73, 59
2, 152379, Note_off_c, 0, 71, 64
2, 152405, Note_on_c, 0, 71, 54
2, 152428, Note_off_c, 0, 73, 64
2, 152441, Note_on_c, 0, 59, 46
2, 152444, Note_on_c, 0, 70, 71
2, 152445, Note_on_c, 0, 53, 37
2, 152458, Note_off_c, 0, 71, 64
2, 152470, Note_off_c, 0, 49, 64
2, 152478, Note_off_c, 0, 53, 64
2, 152478, Note_off_c, 0, 59, 64
2, 152487, Note_on_c, 0, 68, 70
2, 152494, Note_off_c, 0, 70, 64
2, 152540, Note_on_c, 0, 66, 62
2, 152543, Note_on_c, 0, 42, 62
2, 152551, Note_off_c, 0, 68, 64
2, 152601, Note_on_c, 0, 61, 67
2, 152628, Note_off_c, 0, 66, 64
2, 152644, Note_on_c, 0, 58, 58
2, 152644, Note_on_c, 0, 52, 48
2, 152647, Note_on_c, 0, 63, 64
2, 152663, Note_off_c, 0, 61, 64
2, 152694, Note_off_c, 0, 52, 64
2, 152694, Note_off_c, 0, 58, 64
2, 152706, Note_on_c, 0, 64, 49
2, 152720, Note_off_c, 0, 63, 64
2, 152746, Control_c, 0, 64, 127
2, 152752, Note_on_c, 0, 68, 57
2, 152752, Note_on_c, 0, 58, 40
2, 152752, Note_on_c, 0, 52, 41
2, 152782, Note_off_c, 0, 64, 64
2, 152782, Note_off_c, 0, 42, 64
2, 152802, Note_off_c, 0, 52, 64
2, 152802, Note_off_c, 0, 58, 64
2, 152804, Note_on_c, 0, 66, 49
2, 152816, Note_off_c, 0, 68, 64
2, 152853, Control_c, 0, 64, 0
2, 152861, Note_off_c, 0, 66, 64
2, 152886, Control_c, 0, 64, 127
2, 152888, Note_on_c, 0, 54, 67
2, 152888, Note_on_c, 0, 47, 58
2, 152892, Note_on_c, 0, 64, 65
2, 152892, Note_on_c, 0, 61, 62
2, 152892, Note_on_c, 0, 35, 63
2, 152927, Note_off_c, 0, 47, 64
2, 152928, Note_off_c, 0, 35, 64
2, 152941, Note_off_c, 0, 54, 64
2, 152948, Note_on_c, 0, 59, 50
2, 152949, Note_on_c, 0, 63, 48
2, 152955, Note_off_c, 0, 64, 64
2, 152968, Note_off_c, 0, 61, 64
2, 152984, Note_off_c, 0, 63, 64
2, 152985, Note_off_c, 0, 59, 64
2, 152993, Control_c, 0, 64, 0
2, 153005, Note_on_c, 0, 63, 60
2, 153010, Note_on_c, 0, 59, 60
2, 153010, Note_on_c, 0, 35, 57
2, 153011, Note_on_c, 0, 54, 60
2, 153015, Note_on_c, 0, 47, 58
2, 153040, Control_c, 0, 64, 127
2, 153114, Note_off_c, 0, 35, 64
2, 153120, Note_off_c, 0, 47, 64
2, 153129, Note_off_c, 0, 63, 64
2, 153132, Note_off_c, 0, 59, 64
2, 153136, Note_off_c, 0, 54, 64
2, 153276, Note_on_c, 0, 54, 43
2, 153278, Note_on_c, 0, 61, 49
2, 153280, Note_on_c, 0, 64, 52
2, 153284, Note_on_c, 0, 47, 58
2, 153284, Note_on_c, 0, 35, 55
2, 153320, Note_on_c, 0, 59, 48
2, 153321, Note_off_c, 0, 35, 64
2, 153322, Note_on_c, 0, 63, 52
2, 153325, Note_off_c, 0, 47, 64
2, 153339, Note_off_c, 0, 61, 64
2, 153341, Note_off_c, 0, 64, 64
2, 153355, Note_off_c, 0, 54, 64
2, 153370, Note_off_c, 0, 59, 64
2, 153372, Note_off_c, 0, 63, 64
2, 153396, Note_on_c, 0, 47, 57
2, 153400, Note_on_c, 0, 35, 54
2, 153401, Note_on_c, 0, 54, 55
2, 153403, Note_on_c, 0, 63, 58
2, 153403, Note_on_c, 0, 59, 57
2, 153419, Control_c, 0, 64, 0
2, 153468, Control_c, 0, 64, 127
2, 153502, Note_off_c, 0, 35, 64
2, 153509, Note_off_c, 0, 47, 64
2, 153541, Note_off_c, 0, 59, 64
2, 153545, Note_off_c, 0, 63, 64
2, 153567, Note_off_c, 0, 54, 64
2, 153661, Control_c, 0, 64, 0
2, 153680, Note_on_c, 0, 35, 51
2, 153681, Note_on_c, 0, 54, 48
2, 153684, Note_on_c, 0, 64, 51
2, 153684, Note_on_c, 0, 61, 46
2, 153684, Note_on_c, 0, 47, 55
2, 153704, Control_c, 0, 64, 127
2, 153722, Note_off_c, 0, 35, 64
2, 153729, Note_off_c, 0, 47, 64
2, 153732, Note_on_c, 0, 63, 48
2, 153732, Note_on_c, 0, 59, 47
2, 153745, Note_off_c, 0, 64, 64
2, 153763, Note_off_c, 0, 54, 64
2, 153764, Note_off_c, 0, 61, 64
2, 153772, Note_off_c, 0, 59, 64
2, 153787, Note_off_c, 0, 63, 64
2, 153806, Note_on_c, 0, 59, 50
2, 153806, Note_on_c, 0, 54, 50
2, 153807, Note_on_c, 0, 63, 50
2, 153808, Note_on_c, 0, 47, 51
2, 153808, Note_on_c, 0, 35, 49
2, 153826, Control_c, 0, 64, 0
2, 153864, Control_c, 0, 64, 127
2, 153903, Note_off_c, 0, 35, 64
2, 153920, Note_off_c, 0, 47, 64
2, 153930, Note_off_c, 0, 63, 64
2, 153933, Note_off_c, 0, 54, 64
2, 153937, Note_off_c, 0, 59, 64
2, 154086, Control_c, 0, 64, 0
2, 154092, Note_on_c, 0, 35, 43
2, 154092, Note_on_c, 0, 47, 49
2, 154092, Note_on_c, 0, 54, 43
2, 154092, Note_on_c, 0, 61, 44
2, 154092, Note_on_c, 0, 64, 49
2, 154117, Control_c, 0, 64, 127
2, 154140, Note_on_c, 0, 63, 41
2, 154140, Note_on_c, 0, 59, 39
2, 154144, Note_off_c, 0, 35, 64
2, 154152, Note_off_c, 0, 47, 64
2, 154157, Note_off_c, 0, 64, 64
2, 154164, Note_off_c, 0, 54, 64
2, 154172, Note_off_c, 0, 61, 64
2, 154180, Note_off_c, 0, 59, 64
2, 154195, Note_off_c, 0, 63, 64
2, 154200, Note_on_c, 0, 47, 48
2, 154204, Note_on_c, 0, 59, 49
2, 154204, Note_on_c, 0, 54, 48
2, 154204, Note_on_c, 0, 35, 43
2, 154205, Note_on_c, 0, 63, 46
2, 154219, Control_c, 0, 64, 0
2, 154252, Control_c, 0, 64, 127
2, 154452, Note_off_c, 0, 35, 64
2, 154452, Control_c, 0, 64, 0
2, 154468, Note_off_c, 0, 47, 64
2, 154470, Note_on_c, 0, 35, 102
2, 154472, Note_off_c, 0, 54, 64
2, 154472, Note_off_c, 0, 59, 64
2, 154473, Note_off_c, 0, 63, 64
2, 154491, Control_c, 0, 64, 127
2, 154548, Note_off_c, 0, 35, 64
2, 154616, Note_on_c, 0, 49, 25
2, 154617, Note_on_c, 0, 61, 46
2, 154651, Control_c, 0, 64, 0
2, 154660, Note_on_c, 0, 59, 51
2, 154660, Note_on_c, 0, 47, 62
2, 154683, Note_off_c, 0, 49, 64
2, 154684, Note_off_c, 0, 61, 64
2, 154724, Note_on_c, 0, 52, 51
2, 154726, Note_on_c, 0, 64, 25
2, 154754, Note_off_c, 0, 59, 64
2, 154760, Note_off_c, 0, 47, 64
2, 154772, Note_on_c, 0, 54, 64
2, 154774, Note_on_c, 0, 66, 50
2, 154799, Note_off_c, 0, 52, 64
2, 154801, Note_off_c, 0, 64, 64
2, 154834, Note_on_c, 0, 68, 63
2, 154834, Note_on_c, 0, 56, 62
2, 154852, Note_off_c, 0, 54, 64
2, 154854, Note_off_c, 0, 66, 64
2, 154884, Note_on_c, 0, 63, 46
2, 154884, Note_on_c, 0, 51, 54
2, 154899, Note_off_c, 0, 56, 64
2, 154899, Note_off_c, 0, 68, 64
2, 154940, Note_on_c, 0, 64, 49
2, 154944, Note_on_c, 0, 52, 49
2, 154954, Note_off_c, 0, 51, 64
2, 154954, Note_off_c, 0, 63, 64
2, 154988, Note_on_c, 0, 68, 49
2, 154988, Note_on_c, 0, 56, 49
2, 155011, Note_off_c, 0, 64, 64
2, 155015, Note_off_c, 0, 52, 64
2, 155044, Note_on_c, 0, 71, 39
2, 155048, Note_on_c, 0, 59, 62
2, 155063, Note_off_c, 0, 56, 64
2, 155063, Note_off_c, 0, 68, 64
2, 155096, Note_on_c, 0, 73, 39
2, 155096, Note_on_c, 0, 61, 57
2, 155116, Note_off_c, 0, 71, 64
2, 155120, Note_off_c, 0, 59, 64
2, 155144, Note_on_c, 0, 75, 67
2, 155144, Note_on_c, 0, 63, 63
2, 155168, Note_off_c, 0, 61, 64
2, 155168, Note_off_c, 0, 73, 64
2, 155181, Note_off_c, 0, 75, 64
2, 155205, Note_off_c, 0, 63, 64
2, 155230, Note_on_c, 0, 69, 58
2, 155278, Note_on_c, 0, 70, 62
2, 155284, Note_on_c, 0, 46, 64
2, 155299, Note_off_c, 0, 69, 64
2, 155324, Note_on_c, 0, 72, 46
2, 155355, Note_off_c, 0, 70, 64
2, 155364, Note_on_c, 0, 70, 59
2, 155390, Note_off_c, 0, 72, 64
2, 155400, Note_on_c, 0, 68, 67
2, 155400, Note_on_c, 0, 55, 52
2, 155404, Note_on_c, 0, 63, 54
2, 155420, Note_off_c, 0, 70, 64
2, 155443, Note_off_c, 0, 46, 64
2, 155447, Note_off_c, 0, 55, 64
2, 155451, Note_off_c, 0, 63, 64
2, 155459, Note_on_c, 0, 67, 58
2, 155475, Note_off_c, 0, 68, 64
2, 155508, Note_on_c, 0, 46, 81
2, 155511, Note_on_c, 0, 68, 62
2, 155531, Note_off_c, 0, 67, 64
2, 155564, Note_on_c, 0, 64, 58
2, 155597, Note_off_c, 0, 68, 64
2, 155632, Note_on_c, 0, 62, 51
2, 155632, Note_on_c, 0, 56, 55
2, 155633, Note_on_c, 0, 65, 66
2, 155646, Note_off_c, 0, 64, 64
2, 155670, Note_off_c, 0, 56, 64
2, 155670, Note_off_c, 0, 62, 64
2, 155700, Note_on_c, 0, 68, 54
2, 155708, Note_off_c, 0, 65, 64
2, 155747, Note_off_c, 0, 46, 64
2, 155752, Note_on_c, 0, 72, 62
2, 155752, Note_on_c, 0, 62, 49
2, 155752, Note_on_c, 0, 56, 51
2, 155770, Note_off_c, 0, 68, 64
2, 155795, Note_off_c, 0, 56, 64
2, 155795, Note_off_c, 0, 62, 64
2, 155836, Note_on_c, 0, 70, 57
2, 155840, Note_off_c, 0, 72, 64
2, 155884, Note_on_c, 0, 51, 71
2, 155884, Note_on_c, 0, 67, 63
2, 155913, Note_off_c, 0, 70, 64
2, 156011, Note_on_c, 0, 70, 70
2, 156012, Note_off_c, 0, 67, 64
2, 156016, Note_on_c, 0, 55, 52
2, 156018, Note_on_c, 0, 63, 51
2, 156058, Note_on_c, 0, 72, 58
2, 156062, Note_off_c, 0, 55, 64
2, 156064, Note_off_c, 0, 63, 64
2, 156070, Note_off_c, 0, 70, 64
2, 156094, Note_on_c, 0, 70, 58
2, 156117, Note_off_c, 0, 72, 64
2, 156123, Note_off_c, 0, 51, 64
2, 156128, Note_on_c, 0, 63, 50
2, 156128, Note_on_c, 0, 55, 51
2, 156140, Note_on_c, 0, 68, 63
2, 156163, Note_off_c, 0, 70, 64
2, 156164, Note_off_c, 0, 55, 64
2, 156164, Note_off_c, 0, 63, 64
2, 156185, Note_on_c, 0, 67, 64
2, 156205, Note_off_c, 0, 68, 64
2, 156240, Note_on_c, 0, 46, 62
2, 156244, Note_on_c, 0, 68, 71
2, 156258, Note_off_c, 0, 67, 64
2, 156299, Note_on_c, 0, 64, 63
2, 156324, Note_off_c, 0, 68, 64
2, 156352, Note_on_c, 0, 65, 66
2, 156352, Note_on_c, 0, 62, 56
2, 156353, Note_on_c, 0, 56, 58
2, 156374, Note_off_c, 0, 64, 64
2, 156391, Note_off_c, 0, 62, 64
2, 156392, Note_off_c, 0, 56, 64
2, 156425, Note_on_c, 0, 68, 54
2, 156442, Note_off_c, 0, 65, 64
2, 156476, Note_on_c, 0, 56, 58
2, 156479, Note_off_c, 0, 46, 64
2, 156480, Note_on_c, 0, 72, 55
2, 156480, Note_on_c, 0, 62, 58
2, 156495, Note_off_c, 0, 68, 64
2, 156524, Note_on_c, 0, 70, 49
2, 156529, Note_off_c, 0, 56, 64
2, 156533, Note_off_c, 0, 62, 64
2, 156546, Note_off_c, 0, 72, 64
2, 156585, Note_on_c, 0, 51, 60
2, 156588, Note_on_c, 0, 67, 60
2, 156608, Note_off_c, 0, 70, 64
2, 156716, Note_on_c, 0, 55, 50
2, 156720, Note_on_c, 0, 70, 48
2, 156720, Note_on_c, 0, 63, 52
2, 156744, Note_off_c, 0, 67, 64
2, 156750, Note_off_c, 0, 51, 64
2, 156752, Note_on_c, 0, 72, 58
2, 156762, Note_off_c, 0, 70, 64
2, 156770, Note_off_c, 0, 55, 64
2, 156774, Note_off_c, 0, 63, 64
2, 156790, Note_on_c, 0, 70, 51
2, 156806, Note_off_c, 0, 72, 64
2, 156843, Note_on_c, 0, 68, 59
2, 156862, Note_off_c, 0, 70, 64
2, 156893, Note_on_c, 0, 67, 56
2, 156921, Note_off_c, 0, 68, 64
2, 156944, Note_on_c, 0, 42, 55
2, 156948, Note_on_c, 0, 66, 55
2, 156985, Note_off_c, 0, 67, 64
2, 157000, Note_on_c, 0, 61, 56
2, 157022, Note_off_c, 0, 66, 64
2, 157060, Note_on_c, 0, 63, 55
2, 157060, Note_on_c, 0, 52, 46
2, 157062, Note_on_c, 0, 58, 50
2, 157063, Control_c, 0, 64, 127
2, 157083, Note_off_c, 0, 61, 64
2, 157109, Note_off_c, 0, 58, 64
2, 157114, Note_off_c, 0, 52, 64
2, 157120, Note_on_c, 0, 64, 42
2, 157137, Note_off_c, 0, 63, 64
2, 157164, Note_on_c, 0, 68, 49
2, 157164, Note_on_c, 0, 58, 44
2, 157168, Note_off_c, 0, 64, 64
2, 157168, Note_on_c, 0, 52, 51
2, 157183, Note_off_c, 0, 42, 64
2, 157212, Note_off_c, 0, 58, 64
2, 157215, Note_off_c, 0, 52, 64
2, 157224, Note_on_c, 0, 66, 48
2, 157227, Note_off_c, 0, 68, 64
2, 157265, Note_off_c, 0, 66, 64
2, 157279, Control_c, 0, 64, 0
2, 157286, Note_on_c, 0, 47, 58
2, 157286, Note_on_c, 0, 35, 62
2, 157290, Note_on_c, 0, 64, 63
2, 157290, Note_on_c, 0, 54, 70
2, 157291, Note_on_c, 0, 61, 67
2, 157322, Note_off_c, 0, 47, 64
2, 157325, Note_off_c, 0, 35, 64
2, 157334, Note_on_c, 0, 59, 63
2, 157341, Note_on_c, 0, 63, 57
2, 157356, Note_off_c, 0, 64, 64
2, 157366, Note_off_c, 0, 54, 64
2, 157370, Note_off_c, 0, 61, 64
2, 157383, Note_off_c, 0, 59, 64
2, 157383, Control_c, 0, 64, 0
2, 157390, Note_off_c, 0, 63, 64
2, 157406, Note_on_c, 0, 35, 58
2, 157410, Note_on_c, 0, 47, 60
2, 157412, Note_on_c, 0, 59, 63
2, 157412, Note_on_c, 0, 54, 63
2, 157418, Note_on_c, 0, 63, 63
2, 157433, Control_c, 0, 64, 127
2, 157491, Note_off_c, 0, 63, 64
2, 157540, Note_off_c, 0, 59, 64
2, 157546, Note_off_c, 0, 35, 64
2, 157546, Note_off_c, 0, 47, 64
2, 157554, Note_off_c, 0, 54, 64
2, 157658, Note_on_c, 0, 54, 47
2, 157660, Note_on_c, 0, 64, 54
2, 157662, Note_on_c, 0, 61, 55
2, 157662, Note_on_c, 0, 47, 58
2, 157662, Note_on_c, 0, 35, 55
2, 157699, Note_off_c, 0, 47, 64
2, 157707, Note_off_c, 0, 35, 64
2, 157717, Note_on_c, 0, 63, 50
2, 157720, Note_on_c, 0, 59, 46
2, 157721, Note_off_c, 0, 54, 64
2, 157729, Note_off_c, 0, 64, 64
2, 157739, Note_off_c, 0, 61, 64
2, 157756, Note_off_c, 0, 63, 64
2, 157759, Note_off_c, 0, 59, 64
2, 157782, Note_on_c, 0, 54, 57
2, 157782, Note_on_c, 0, 63, 57
2, 157782, Note_on_c, 0, 59, 57
2, 157782, Note_on_c, 0, 47, 57
2, 157786, Note_on_c, 0, 35, 50
2, 157795, Control_c, 0, 64, 0
2, 157842, Control_c, 0, 64, 127
2, 157903, Note_off_c, 0, 35, 64
2, 157903, Note_off_c, 0, 47, 64
2, 157917, Note_off_c, 0, 63, 64
2, 157933, Note_off_c, 0, 59, 64
2, 157944, Note_off_c, 0, 54, 64
2, 158048, Control_c, 0, 64, 0
2, 158058, Note_on_c, 0, 54, 47
2, 158058, Note_on_c, 0, 35, 51
2, 158061, Note_on_c, 0, 64, 51
2, 158062, Note_on_c, 0, 47, 55
2, 158063, Note_on_c, 0, 61, 49
2, 158080, Control_c, 0, 64, 127
2, 158110, Note_off_c, 0, 35, 64
2, 158116, Note_off_c, 0, 47, 64
2, 158118, Note_on_c, 0, 63, 46
2, 158118, Note_on_c, 0, 59, 48
2, 158128, Note_off_c, 0, 64, 64
2, 158133, Note_off_c, 0, 54, 64
2, 158153, Note_off_c, 0, 59, 64
2, 158156, Note_off_c, 0, 61, 64
2, 158164, Note_off_c, 0, 63, 64
2, 158186, Note_on_c, 0, 54, 55
2, 158187, Note_on_c, 0, 59, 55
2, 158188, Note_on_c, 0, 63, 55
2, 158190, Note_on_c, 0, 47, 55
2, 158190, Note_on_c, 0, 35, 51
2, 158204, Control_c, 0, 64, 0
2, 158240, Control_c, 0, 64, 127
2, 158311, Note_off_c, 0, 35, 64
2, 158311, Note_off_c, 0, 47, 64
2, 158370, Note_off_c, 0, 59, 64
2, 158378, Note_off_c, 0, 63, 64
2, 158398, Note_off_c, 0, 54, 64
2, 158444, Control_c, 0, 64, 0
2, 158465, Note_on_c, 0, 47, 54
2, 158465, Note_on_c, 0, 35, 54
2, 158466, Note_on_c, 0, 61, 49
2, 158466, Note_on_c, 0, 54, 48
2, 158469, Note_on_c, 0, 64, 49
2, 158476, Control_c, 0, 64, 127
2, 158498, Note_off_c, 0, 35, 64
2, 158505, Note_off_c, 0, 47, 64
2, 158518, Note_on_c, 0, 63, 41
2, 158521, Note_on_c, 0, 59, 39
2, 158534, Note_off_c, 0, 54, 64
2, 158535, Note_off_c, 0, 64, 64
2, 158535, Note_off_c, 0, 61, 64
2, 158557, Note_off_c, 0, 59, 64
2, 158558, Note_off_c, 0, 63, 64
2, 158578, Note_on_c, 0, 47, 52
2, 158583, Note_on_c, 0, 59, 49
2, 158583, Note_on_c, 0, 63, 51
2, 158586, Note_on_c, 0, 54, 48
2, 158587, Note_on_c, 0, 35, 51
2, 158591, Control_c, 0, 64, 0
2, 158628, Control_c, 0, 64, 127
2, 158837, Note_off_c, 0, 35, 64
2, 158840, Control_c, 0, 64, 0
2, 158853, Note_on_c, 0, 35, 102
2, 158882, Control_c, 0, 64, 127
2, 158921, Note_off_c, 0, 47, 64
2, 158926, Note_off_c, 0, 63, 64
2, 158926, Note_off_c, 0, 59, 64
2, 158929, Note_off_c, 0, 54, 64
2, 158943, Note_off_c, 0, 35, 64
2, 158998, Note_on_c, 0, 49, 39
2, 159004, Note_on_c, 0, 61, 43
2, 159035, Control_c, 0, 64, 0
2, 159059, Note_on_c, 0, 59, 46
2, 159062, Note_on_c, 0, 47, 49
2, 159065, Note_off_c, 0, 49, 64
2, 159071, Note_off_c, 0, 61, 64
2, 159110, Note_on_c, 0, 52, 46
2, 159117, Note_on_c, 0, 64, 35
2, 159149, Note_off_c, 0, 59, 64
2, 159152, Note_off_c, 0, 47, 64
2, 159162, Note_on_c, 0, 54, 55
2, 159169, Note_on_c, 0, 66, 27
2, 159184, Note_off_c, 0, 52, 64
2, 159191, Note_off_c, 0, 64, 64
2, 159218, Note_on_c, 0, 68, 49
2, 159218, Note_on_c, 0, 56, 58
2, 159245, Note_off_c, 0, 54, 64
2, 159252, Note_off_c, 0, 66, 64
2, 159270, Note_on_c, 0, 51, 46
2, 159274, Note_on_c, 0, 63, 43
2, 159292, Note_off_c, 0, 56, 64
2, 159292, Note_off_c, 0, 68, 64
2, 159322, Note_on_c, 0, 64, 56
2, 159322, Note_on_c, 0, 52, 50
2, 159342, Note_off_c, 0, 51, 64
2, 159346, Note_off_c, 0, 63, 64
2, 159374, Note_on_c, 0, 68, 46
2, 159378, Note_on_c, 0, 56, 46
2, 159397, Note_off_c, 0, 52, 64
2, 159397, Note_off_c, 0, 64, 64
2, 159438, Note_on_c, 0, 71, 50
2, 159438, Note_on_c, 0, 59, 59
2, 159450, Note_off_c, 0, 68, 64
2, 159454, Note_off_c, 0, 56, 64
2, 159494, Note_on_c, 0, 73, 34
2, 159494, Note_on_c, 0, 61, 66
2, 159515, Note_off_c, 0, 59, 64
2, 159515, Note_off_c, 0, 71, 64
2, 159554, Note_on_c, 0, 75, 69
2, 159554, Note_on_c, 0, 63, 74
2, 159568, Note_off_c, 0, 61, 64
2, 159568, Note_off_c, 0, 73, 64
2, 159591, Note_off_c, 0, 75, 64
2, 159616, Note_off_c, 0, 63, 64
2, 159617, Note_on_c, 0, 70, 63
2, 159669, Note_on_c, 0, 71, 58
2, 159670, Note_on_c, 0, 49, 65
2, 159679, Note_off_c, 0, 70, 64
2, 159714, Note_on_c, 0, 73, 62
2, 159716, Note_off_c, 0, 71, 64
2, 159742, Note_on_c, 0, 71, 54
2, 159778, Note_off_c, 0, 73, 64
2, 159794, Note_on_c, 0, 70, 78
2, 159794, Note_on_c, 0, 59, 43
2, 159794, Note_on_c, 0, 53, 49
2, 159804, Note_off_c, 0, 71, 64
2, 159829, Note_off_c, 0, 49, 64
2, 159832, Note_off_c, 0, 53, 64
2, 159832, Note_off_c, 0, 59, 64
2, 159843, Note_off_c, 0, 70, 64
2, 159846, Note_on_c, 0, 68, 64
2, 159899, Note_on_c, 0, 42, 74
2, 159905, Note_on_c, 0, 66, 71
2, 159930, Note_off_c, 0, 68, 64
2, 159957, Note_on_c, 0, 61, 57
2, 159964, Note_off_c, 0, 66, 64
2, 160002, Note_on_c, 0, 58, 58
2, 160006, Note_on_c, 0, 52, 34
2, 160008, Note_on_c, 0, 63, 66
2, 160026, Note_off_c, 0, 61, 64
2, 160047, Note_off_c, 0, 58, 64
2, 160051, Note_off_c, 0, 52, 64
2, 160070, Note_on_c, 0, 64, 64
2, 160080, Note_off_c, 0, 63, 64
2, 160108, Control_c, 0, 64, 127
2, 160114, Note_on_c, 0, 68, 62
2, 160118, Note_on_c, 0, 58, 39
2, 160120, Note_on_c, 0, 52, 52
2, 160122, Note_off_c, 0, 64, 64
2, 160138, Note_off_c, 0, 42, 64
2, 160165, Note_off_c, 0, 58, 64
2, 160167, Note_off_c, 0, 52, 64
2, 160184, Note_on_c, 0, 66, 52
2, 160204, Control_c, 0, 64, 0
2, 160206, Note_off_c, 0, 68, 64
2, 160260, Control_c, 0, 64, 127
2, 160262, Note_on_c, 0, 35, 56
2, 160266, Note_on_c, 0, 64, 70
2, 160266, Note_on_c, 0, 54, 65
2, 160266, Note_on_c, 0, 47, 51
2, 160268, Note_on_c, 0, 61, 65
2, 160282, Note_off_c, 0, 66, 64
2, 160296, Note_off_c, 0, 35, 64
2, 160302, Note_off_c, 0, 47, 64
2, 160326, Note_on_c, 0, 59, 55
2, 160329, Note_on_c, 0, 63, 41
2, 160334, Note_off_c, 0, 54, 64
2, 160335, Note_off_c, 0, 64, 64
2, 160342, Note_off_c, 0, 61, 64
2, 160358, Control_c, 0, 64, 0
2, 160374, Note_off_c, 0, 59, 64
2, 160375, Note_on_c, 0, 47, 47
2, 160377, Note_off_c, 0, 63, 64
2, 160381, Note_on_c, 0, 59, 52
2, 160381, Note_on_c, 0, 54, 57
2, 160381, Note_on_c, 0, 35, 50
2, 160386, Note_on_c, 0, 63, 57
2, 160417, Control_c, 0, 64, 127
2, 160504, Note_off_c, 0, 63, 64
2, 160511, Note_off_c, 0, 59, 64
2, 160517, Note_off_c, 0, 54, 64
2, 160542, Note_off_c, 0, 35, 64
2, 160547, Note_off_c, 0, 47, 64
2, 160630, Control_c, 0, 64, 0
2, 160642, Note_on_c, 0, 64, 50
2, 160643, Note_on_c, 0, 61, 49
2, 160646, Note_on_c, 0, 54, 40
2, 160646, Note_on_c, 0, 47, 58
2, 160646, Note_on_c, 0, 35, 55
2, 160661, Control_c, 0, 64, 127
2, 160685, Note_off_c, 0, 35, 64
2, 160685, Note_on_c, 0, 63, 52
2, 160686, Note_on_c, 0, 59, 46
2, 160688, Note_off_c, 0, 47, 64
2, 160693, Note_off_c, 0, 64, 64
2, 160717, Note_off_c, 0, 54, 64
2, 160722, Note_off_c, 0, 59, 64
2, 160722, Note_off_c, 0, 61, 64
2, 160737, Note_off_c, 0, 63, 64
2, 160766, Control_c, 0, 64, 0
2, 160770, Note_on_c, 0, 54, 52
2, 160770, Note_on_c, 0, 59, 55
2, 160774, Note_on_c, 0, 63, 57
2, 160777, Note_on_c, 0, 47, 57
2, 160782, Note_on_c, 0, 35, 49
2, 160813, Control_c, 0, 64, 127
2, 160888, Note_off_c, 0, 63, 64
2, 160890, Note_off_c, 0, 54, 64
2, 160895, Note_off_c, 0, 59, 64
2, 160931, Note_off_c, 0, 35, 64
2, 160933, Note_off_c, 0, 47, 64
2, 161036, Control_c, 0, 64, 0
2, 161050, Note_on_c, 0, 47, 51
2, 161050, Note_on_c, 0, 35, 46
2, 161054, Note_on_c, 0, 54, 46
2, 161055, Note_on_c, 0, 64, 49
2, 161055, Note_on_c, 0, 61, 46
2, 161075, Control_c, 0, 64, 127
2, 161102, Note_off_c, 0, 47, 64
2, 161106, Note_off_c, 0, 35, 64
2, 161113, Note_on_c, 0, 63, 41
2, 161118, Note_on_c, 0, 59, 42
2, 161123, Note_off_c, 0, 64, 64
2, 161128, Note_off_c, 0, 54, 64
2, 161144, Note_off_c, 0, 61, 64
2, 161152, Note_off_c, 0, 63, 64
2, 161153, Note_off_c, 0, 59, 64
2, 161162, Control_c, 0, 64, 0
2, 161182, Note_on_c, 0, 63, 52
2, 161186, Note_on_c, 0, 59, 55
2, 161186, Note_on_c, 0, 54, 52
2, 161192, Note_on_c, 0, 35, 46
2, 161193, Note_on_c, 0, 47, 51
2, 161202, Control_c, 0, 64, 127
2, 161332, Note_off_c, 0, 35, 64
2, 161340, Note_off_c, 0, 47, 64
2, 161347, Note_off_c, 0, 54, 64
2, 161355, Note_off_c, 0, 59, 64
2, 161356, Note_off_c, 0, 63, 64
2, 161442, Control_c, 0, 64, 0
2, 161458, Note_on_c, 0, 47, 47
2, 161458, Note_on_c, 0, 35, 44
2, 161463, Note_on_c, 0, 61, 43
2, 161463, Note_on_c, 0, 54, 42
2, 161464, Note_on_c, 0, 64, 44
2, 161482, Control_c, 0, 64, 127
2, 161511, Note_off_c, 0, 47, 64
2, 161513, Note_on_c, 0, 63, 37
2, 161514, Note_on_c, 0, 59, 33
2, 161517, Note_off_c, 0, 35, 64
2, 161530, Note_off_c, 0, 64, 64
2, 161545, Note_off_c, 0, 54, 64
2, 161552, Note_off_c, 0, 61, 64
2, 161553, Note_off_c, 0, 59, 64
2, 161558, Note_off_c, 0, 63, 64
2, 161568, Control_c, 0, 64, 0
2, 161586, Note_on_c, 0, 54, 49
2, 161586, Note_on_c, 0, 59, 48
2, 161586, Note_on_c, 0, 63, 49
2, 161592, Note_on_c, 0, 35, 43
2, 161592, Note_on_c, 0, 47, 47
2, 161608, Control_c, 0, 64, 127
2, 161828, Control_c, 0, 64, 0
2, 161842, Note_off_c, 0, 35, 64
2, 161854, Note_on_c, 0, 35, 102
2, 161862, Control_c, 0, 64, 127
2, 161893, Note_off_c, 0, 63, 64
2, 161893, Note_off_c, 0, 59, 64
2, 161893, Note_off_c, 0, 54, 64
2, 161899, Note_off_c, 0, 47, 64
2, 161932, Note_off_c, 0, 35, 64
2, 161987, Note_on_c, 0, 49, 49
2, 161991, Note_on_c, 0, 61, 51
2, 162016, Control_c, 0, 64, 0
2, 162050, Note_on_c, 0, 59, 32
2, 162050, Note_on_c, 0, 47, 59
2, 162069, Note_off_c, 0, 49, 64
2, 162073, Note_off_c, 0, 61, 64
2, 162111, Note_on_c, 0, 64, 32
2, 162114, Note_on_c, 0, 52, 58
2, 162144, Note_off_c, 0, 47, 64
2, 162144, Note_off_c, 0, 59, 64
2, 162162, Note_on_c, 0, 54, 51
2, 162165, Note_on_c, 0, 66, 49
2, 162188, Note_off_c, 0, 64, 64
2, 162191, Note_off_c, 0, 52, 64
2, 162222, Note_on_c, 0, 56, 57
2, 162223, Note_on_c, 0, 68, 58
2, 162239, Note_off_c, 0, 54, 64
2, 162242, Note_off_c, 0, 66, 64
2, 162286, Note_on_c, 0, 51, 46
2, 162293, Note_on_c, 0, 63, 41
2, 162307, Note_off_c, 0, 56, 64
2, 162308, Note_off_c, 0, 68, 64
2, 162350, Note_on_c, 0, 64, 56
2, 162350, Note_on_c, 0, 52, 42
2, 162363, Note_off_c, 0, 51, 64
2, 162370, Note_off_c, 0, 63, 64
2, 162410, Note_on_c, 0, 56, 49
2, 162414, Note_on_c, 0, 68, 56
2, 162436, Note_off_c, 0, 52, 64
2, 162436, Note_off_c, 0, 64, 64
2, 162462, Note_on_c, 0, 71, 41
2, 162462, Note_on_c, 0, 59, 62
2, 162483, Note_off_c, 0, 56, 64
2, 162487, Note_off_c, 0, 68, 64
2, 162514, Note_on_c, 0, 61, 64
2, 162517, Note_on_c, 0, 73, 46
2, 162539, Note_off_c, 0, 59, 64
2, 162539, Note_off_c, 0, 71, 64
2, 162586, Note_on_c, 0, 62, 71
2, 162587, Note_on_c, 0, 74, 67
2, 162597, Note_off_c, 0, 61, 64
2, 162600, Note_off_c, 0, 73, 64
2, 162625, Note_off_c, 0, 74, 64
2, 162643, Note_on_c, 0, 68, 65
2, 162657, Note_off_c, 0, 62, 64
2, 162694, Note_on_c, 0, 45, 58
2, 162694, Note_on_c, 0, 69, 58
2, 162704, Note_off_c, 0, 68, 64
2, 162736, Note_on_c, 0, 71, 58
2, 162747, Note_off_c, 0, 69, 64
2, 162783, Note_on_c, 0, 69, 62
2, 162800, Note_off_c, 0, 71, 64
2, 162829, Note_on_c, 0, 67, 62
2, 162838, Note_on_c, 0, 62, 59
2, 162838, Note_on_c, 0, 54, 50
2, 162845, Note_off_c, 0, 69, 64
2, 162849, Note_off_c, 0, 45, 64
2, 162885, Note_off_c, 0, 54, 64
2, 162885, Note_off_c, 0, 62, 64
2, 162902, Note_on_c, 0, 66, 58
2, 162917, Note_off_c, 0, 67, 64
2, 162950, Note_on_c, 0, 67, 62
2, 162954, Note_on_c, 0, 45, 58
2, 162973, Note_off_c, 0, 66, 64
2, 163006, Note_on_c, 0, 63, 64
2, 163015, Note_off_c, 0, 67, 64
2, 163058, Note_on_c, 0, 61, 58
2, 163058, Note_on_c, 0, 55, 39
2, 163060, Note_on_c, 0, 64, 63
2, 163081, Note_off_c, 0, 63, 64
2, 163111, Note_off_c, 0, 55, 64
2, 163111, Note_off_c, 0, 61, 64
2, 163117, Note_on_c, 0, 67, 49
2, 163142, Note_off_c, 0, 64, 64
2, 163174, Note_on_c, 0, 61, 62
2, 163178, Note_on_c, 0, 71, 57
2, 163178, Note_on_c, 0, 55, 58
2, 163192, Note_off_c, 0, 67, 64
2, 163193, Note_off_c, 0, 45, 64
2, 163205, Note_off_c, 0, 55, 64
2, 163207, Note_off_c, 0, 61, 64
2, 163235, Note_on_c, 0, 69, 56
2, 163241, Note_off_c, 0, 71, 64
2, 163306, Note_on_c, 0, 66, 72
2, 163306, Note_on_c, 0, 50, 67
2, 163316, Note_off_c, 0, 69, 64
2, 163448, Note_on_c, 0, 69, 62
2, 163450, Note_on_c, 0, 57, 49
2, 163453, Note_off_c, 0, 66, 64
2, 163453, Note_on_c, 0, 62, 46
2, 163453, Note_on_c, 0, 54, 50
2, 163487, Note_on_c, 0, 71, 69
2, 163497, Note_off_c, 0, 57, 64
2, 163500, Note_off_c, 0, 54, 64
2, 163500, Note_off_c, 0, 62, 64
2, 163506, Note_off_c, 0, 69, 64
2, 163526, Note_on_c, 0, 69, 51
2, 163545, Note_off_c, 0, 50, 64
2, 163546, Note_off_c, 0, 71, 64
2, 163574, Note_on_c, 0, 57, 49
2, 163574, Note_on_c, 0, 54, 50
2, 163578, Note_on_c, 0, 62, 44
2, 163581, Note_on_c, 0, 67, 62
2, 163601, Note_off_c, 0, 69, 64
2, 163617, Note_off_c, 0, 62, 64
2, 163618, Note_off_c, 0, 54, 64
2, 163618, Note_off_c, 0, 57, 64
2, 163633, Note_on_c, 0, 66, 77
2, 163640, Note_off_c, 0, 67, 64
2, 163683, Note_on_c, 0, 67, 62
2, 163686, Note_on_c, 0, 45, 58
2, 163690, Note_off_c, 0, 66, 64
2, 163736, Note_on_c, 0, 63, 62
2, 163739, Note_off_c, 0, 67, 64
2, 163782, Note_on_c, 0, 64, 54
2, 163786, Note_on_c, 0, 61, 47
2, 163786, Note_on_c, 0, 55, 26
2, 163811, Note_off_c, 0, 63, 64
2, 163820, Note_off_c, 0, 55, 64
2, 163820, Note_off_c, 0, 61, 64
2, 163845, Note_on_c, 0, 67, 51
2, 163854, Note_off_c, 0, 64, 64
2, 163894, Note_on_c, 0, 55, 36
2, 163898, Note_on_c, 0, 61, 47
2, 163899, Note_on_c, 0, 71, 54
2, 163911, Note_off_c, 0, 67, 64
2, 163925, Note_off_c, 0, 45, 64
2, 163930, Note_off_c, 0, 55, 64
2, 163932, Note_off_c, 0, 61, 64
2, 163964, Note_on_c, 0, 69, 52
2, 163967, Note_off_c, 0, 71, 64
2, 164047, Note_on_c, 0, 62, 63
2, 164049, Note_off_c, 0, 69, 64
2, 164055, Note_on_c, 0, 38, 80
2, 164084, Control_c, 0, 64, 127
2, 164140, Control_c, 0, 64, 0
2, 164194, Note_on_c, 0, 60, 50
2, 164194, Note_on_c, 0, 50, 49
2, 164198, Note_on_c, 0, 54, 52
2, 164233, Note_off_c, 0, 50, 64
2, 164233, Note_off_c, 0, 60, 64
2, 164234, Note_off_c, 0, 38, 64
2, 164237, Note_off_c, 0, 54, 64
2, 164297, Control_c, 0, 64, 127
2, 164314, Note_on_c, 0, 59, 49
2, 164314, Note_on_c, 0, 55, 40
2, 164314, Note_on_c, 0, 50, 40
2, 164362, Note_off_c, 0, 50, 64
2, 164362, Note_off_c, 0, 55, 64
2, 164362, Note_off_c, 0, 59, 64
2, 164394, Note_off_c, 0, 62, 64
2, 164463, Control_c, 0, 64, 0
2, 164471, Note_on_c, 0, 62, 59
2, 164478, Note_on_c, 0, 38, 71
2, 164604, Note_on_c, 0, 50, 32
2, 164604, Note_on_c, 0, 48, 32
2, 164606, Note_on_c, 0, 57, 51
2, 164643, Note_off_c, 0, 48, 64
2, 164643, Note_off_c, 0, 50, 64
2, 164645, Note_off_c, 0, 57, 64
2, 164657, Note_off_c, 0, 38, 64
2, 164736, Note_on_c, 0, 50, 49
2, 164738, Note_on_c, 0, 55, 51
2, 164740, Note_on_c, 0, 47, 39
2, 164784, Note_off_c, 0, 50, 64
2, 164786, Note_off_c, 0, 55, 64
2, 164788, Note_off_c, 0, 47, 64
2, 164826, Note_off_c, 0, 62, 64
2, 164852, Note_on_c, 0, 60, 50
2, 164856, Note_on_c, 0, 62, 43
2, 164867, Note_on_c, 0, 38, 64
2, 164881, Note_off_c, 0, 60, 64
2, 164885, Note_off_c, 0, 62, 64
2, 164896, Note_on_c, 0, 62, 46
2, 164896, Note_on_c, 0, 59, 58
2, 164925, Note_off_c, 0, 59, 64
2, 164925, Note_off_c, 0, 62, 64
2, 164936, Note_on_c, 0, 62, 56
2, 164936, Note_on_c, 0, 57, 60
2, 164959, Note_on_c, 0, 38, 67
2, 164965, Note_off_c, 0, 57, 64
2, 164965, Note_off_c, 0, 62, 64
2, 164988, Note_on_c, 0, 62, 70
2, 164988, Note_on_c, 0, 60, 59
2, 164988, Note_on_c, 0, 54, 56
2, 164988, Note_on_c, 0, 50, 58
2, 165031, Note_off_c, 0, 50, 64
2, 165031, Note_off_c, 0, 54, 64
2, 165031, Note_off_c, 0, 60, 64
2, 165031, Note_off_c, 0, 62, 64
2, 165152, Note_on_c, 0, 62, 58
2, 165152, Note_on_c, 0, 50, 55
2, 165156, Note_on_c, 0, 59, 60
2, 165156, Note_on_c, 0, 55, 54
2, 165208, Note_off_c, 0, 38, 64
2, 165208, Note_off_c, 0, 38, 64
2, 165246, Note_off_c, 0, 50, 64
2, 165250, Note_off_c, 0, 55, 64
2, 165250, Note_off_c, 0, 59, 64
2, 165253, Note_off_c, 0, 62, 64
2, 165312, Note_on_c, 0, 62, 46
2, 165312, Note_on_c, 0, 57, 42
2, 165312, Note_on_c, 0, 38, 50
2, 165341, Note_off_c, 0, 57, 64
2, 165341, Note_off_c, 0, 62, 64
2, 165352, Note_on_c, 0, 62, 47
2, 165356, Note_on_c, 0, 55, 57
2, 165361, Note_on_c, 0, 38, 65
2, 165381, Note_off_c, 0, 62, 64
2, 165385, Note_off_c, 0, 55, 64
2, 165396, Note_on_c, 0, 62, 56
2, 165396, Note_on_c, 0, 54, 63
2, 165425, Note_off_c, 0, 54, 64
2, 165425, Note_off_c, 0, 62, 64
2, 165440, Note_on_c, 0, 62, 64
2, 165444, Note_on_c, 0, 57, 64
2, 165444, Note_on_c, 0, 50, 48
2, 165444, Note_on_c, 0, 48, 52
2, 165493, Note_off_c, 0, 62, 64
2, 165497, Note_off_c, 0, 48, 64
2, 165497, Note_off_c, 0, 50, 64
2, 165497, Note_off_c, 0, 57, 64
2, 165546, Note_off_c, 0, 38, 64
2, 165558, Note_off_c, 0, 38, 64
2, 165590, Note_on_c, 0, 55, 65
2, 165591, Note_on_c, 0, 47, 51
2, 165591, Note_on_c, 0, 62, 71
2, 165594, Note_on_c, 0, 50, 44
2, 165684, Note_off_c, 0, 55, 64
2, 165685, Note_off_c, 0, 62, 64
2, 165685, Note_off_c, 0, 47, 64
2, 165688, Note_off_c, 0, 50, 64
2, 165749, Note_on_c, 0, 74, 56
2, 165752, Note_on_c, 0, 38, 56
2, 165755, Note_on_c, 0, 62, 59
2, 165755, Note_on_c, 0, 50, 56
2, 165794, Control_c, 0, 64, 127
2, 165851, Control_c, 0, 64, 0
2, 165884, Note_on_c, 0, 57, 52
2, 165885, Note_on_c, 0, 60, 52
2, 165890, Note_on_c, 0, 66, 57
2, 165900, Control_c, 0, 64, 127
2, 165931, Note_off_c, 0, 38, 64
2, 165934, Note_off_c, 0, 57, 64
2, 165934, Note_off_c, 0, 50, 64
2, 165935, Note_off_c, 0, 60, 64
2, 165940, Note_off_c, 0, 66, 64
2, 165992, Control_c, 0, 64, 127
2, 166029, Note_off_c, 0, 62, 64
2, 166031, Control_c, 0, 64, 0
2, 166036, Note_on_c, 0, 62, 52
2, 166037, Note_on_c, 0, 67, 51
2, 166040, Note_on_c, 0, 59, 44
2, 166049, Control_c, 0, 64, 127
2, 166086, Note_off_c, 0, 62, 64
2, 166087, Note_off_c, 0, 67, 64
2, 166090, Note_off_c, 0, 59, 64
2, 166136, Control_c, 0, 64, 127
2, 166143, Note_off_c, 0, 74, 64
2, 166154, Control_c, 0, 64, 0
2, 166164, Note_on_c, 0, 50, 60
2, 166164, Note_on_c, 0, 38, 56
2, 166170, Note_on_c, 0, 74, 63
2, 166174, Note_on_c, 0, 62, 60
2, 166190, Control_c, 0, 64, 127
2, 166256, Control_c, 0, 64, 0
2, 166292, Note_on_c, 0, 65, 44
2, 166292, Note_on_c, 0, 59, 57
2, 166293, Note_on_c, 0, 68, 51
2, 166306, Control_c, 0, 64, 127
2, 166342, Note_off_c, 0, 59, 64
2, 166342, Note_off_c, 0, 65, 64
2, 166343, Note_off_c, 0, 68, 64
2, 166343, Note_off_c, 0, 38, 64
2, 166343, Note_off_c, 0, 50, 64
2, 166404, Control_c, 0, 64, 0
2, 166437, Control_c, 0, 64, 127
2, 166440, Note_on_c, 0, 66, 48
2, 166440, Note_on_c, 0, 60, 52
2, 166442, Note_on_c, 0, 69, 50
2, 166490, Note_off_c, 0, 60, 64
2, 166490, Note_off_c, 0, 66, 64
2, 166492, Note_off_c, 0, 69, 64
2, 166508, Control_c, 0, 64, 127
2, 166549, Note_off_c, 0, 74, 64
2, 166553, Note_off_c, 0, 62, 64
2, 166560, Note_on_c, 0, 38, 41
2, 166560, Control_c, 0, 64, 0
2, 166566, Note_on_c, 0, 72, 52
2, 166567, Note_on_c, 0, 50, 47
2, 166567, Note_on_c, 0, 74, 54
2, 166568, Note_on_c, 0, 62, 54
2, 166587, Control_c, 0, 64, 127
2, 166595, Note_off_c, 0, 72, 64
2, 166596, Note_off_c, 0, 74, 64
2, 166597, Note_off_c, 0, 62, 64
2, 166616, Note_on_c, 0, 74, 54
2, 166616, Note_on_c, 0, 62, 54
2, 166619, Note_on_c, 0, 71, 60
2, 166645, Note_off_c, 0, 62, 64
2, 166645, Note_off_c, 0, 74, 64
2, 166648, Note_off_c, 0, 71, 64
2, 166652, Note_on_c, 0, 74, 54
2, 166656, Note_on_c, 0, 62, 54
2, 166658, Note_on_c, 0, 69, 59
2, 166671, Control_c, 0, 64, 0
2, 166681, Note_off_c, 0, 74, 64
2, 166685, Note_off_c, 0, 62, 64
2, 166687, Note_off_c, 0, 69, 64
2, 166692, Note_on_c, 0, 74, 65
2, 166692, Note_on_c, 0, 54, 59
2, 166694, Note_off_c, 0, 50, 64
2, 166696, Note_on_c, 0, 72, 58
2, 166696, Note_on_c, 0, 50, 54
2, 166700, Note_on_c, 0, 60, 52
2, 166702, Note_on_c, 0, 62, 57
2, 166744, Control_c, 0, 64, 0
2, 166763, Note_off_c, 0, 54, 64
2, 166763, Note_off_c, 0, 74, 64
2, 166767, Note_off_c, 0, 72, 64
2, 166771, Note_off_c, 0, 60, 64
2, 166771, Control_c, 0, 64, 127
2, 166773, Note_off_c, 0, 62, 64
2, 166827, Note_off_c, 0, 50, 64
2, 166829, Note_on_c, 0, 62, 52
2, 166832, Note_on_c, 0, 59, 50
2, 166832, Note_on_c, 0, 50, 46
2, 166833, Note_on_c, 0, 74, 56
2, 166838, Note_on_c, 0, 71, 60
2, 166838, Note_on_c, 0, 55, 46
2, 166892, Control_c, 0, 64, 0
2, 166904, Control_c, 0, 64, 0
2, 166904, Control_c, 0, 64, 0
2, 166908, Control_c, 0, 64, 0
2, 166919, Control_c, 0, 64, 127
2, 166922, Note_off_c, 0, 38, 64
2, 166924, Note_off_c, 0, 62, 64
2, 166927, Note_off_c, 0, 50, 64
2, 166927, Note_off_c, 0, 59, 64
2, 166928, Note_off_c, 0, 74, 64
2, 166931, Control_c, 0, 64, 127
2, 166933, Note_off_c, 0, 55, 64
2, 166933, Note_off_c, 0, 71, 64
2, 166935, Control_c, 0, 64, 127
2, 166964, Note_on_c, 0, 62, 54
2, 166964, Note_on_c, 0, 50, 54
2, 166965, Note_on_c, 0, 69, 46
2, 166968, Note_on_c, 0, 74, 50
2, 166970, Note_on_c, 0, 38, 41
2, 166993, Note_off_c, 0, 62, 64
2, 166994, Note_off_c, 0, 69, 64
2, 166997, Note_off_c, 0, 74, 64
2, 167006, Note_off_c, 0, 50, 64
2, 167012, Note_on_c, 0, 74, 48
2, 167012, Note_on_c, 0, 67, 51
2, 167012, Note_on_c, 0, 62, 48
2, 167041, Note_off_c, 0, 62, 64
2, 167041, Note_off_c, 0, 67, 64
2, 167041, Note_off_c, 0, 74, 64
2, 167052, Note_on_c, 0, 62, 49
2, 167056, Note_on_c, 0, 74, 47
2, 167057, Note_on_c, 0, 66, 52
2, 167081, Note_off_c, 0, 62, 64
2, 167085, Note_off_c, 0, 74, 64
2, 167086, Note_off_c, 0, 66, 64
2, 167088, Note_on_c, 0, 60, 44
2, 167088, Note_on_c, 0, 50, 48
2, 167092, Note_on_c, 0, 69, 58
2, 167092, Note_on_c, 0, 62, 47
2, 167092, Note_on_c, 0, 54, 49
2, 167094, Note_on_c, 0, 74, 49
2, 167171, Note_off_c, 0, 50, 64
2, 167171, Note_off_c, 0, 60, 64
2, 167175, Note_off_c, 0, 54, 64
2, 167175, Note_off_c, 0, 62, 64
2, 167175, Note_off_c, 0, 69, 64
2, 167177, Note_off_c, 0, 74, 64
2, 167181, Note_off_c, 0, 38, 64
2, 167212, Note_on_c, 0, 43, 59
2, 167236, Note_on_c, 0, 67, 59
2, 167236, Note_on_c, 0, 59, 59
2, 167238, Note_on_c, 0, 79, 60
2, 167240, Note_on_c, 0, 50, 60
2, 167320, Note_off_c, 0, 43, 64
2, 167330, Note_off_c, 0, 67, 64
2, 167334, Note_off_c, 0, 50, 64
2, 167344, Note_off_c, 0, 59, 64
2, 167359, Note_off_c, 0, 79, 64
2, 167419, Note_on_c, 0, 83, 72
2, 167422, Note_on_c, 0, 71, 72
2, 167429, Note_on_c, 0, 35, 71
2, 167435, Note_on_c, 0, 47, 67
2, 167448, Control_c, 0, 64, 127
2, 167526, Control_c, 0, 64, 0
2, 167558, Note_on_c, 0, 59, 46
2, 167559, Note_on_c, 0, 63, 50
2, 167559, Note_on_c, 0, 54, 58
2, 167586, Control_c, 0, 64, 127
2, 167607, Note_off_c, 0, 59, 64
2, 167608, Note_off_c, 0, 54, 64
2, 167608, Note_off_c, 0, 63, 64
2, 167608, Note_off_c, 0, 35, 64
2, 167614, Note_off_c, 0, 47, 64
2, 167690, Control_c, 0, 64, 0
2, 167698, Note_on_c, 0, 55, 51
2, 167699, Note_on_c, 0, 59, 56
2, 167700, Note_on_c, 0, 64, 51
2, 167706, Control_c, 0, 64, 127
2, 167717, Note_off_c, 0, 83, 64
2, 167737, Note_off_c, 0, 55, 64
2, 167738, Note_off_c, 0, 59, 64
2, 167739, Note_off_c, 0, 64, 64
2, 167762, Note_off_c, 0, 71, 64
2, 167820, Control_c, 0, 64, 0
2, 167834, Note_on_c, 0, 35, 41
2, 167834, Note_on_c, 0, 83, 58
2, 167834, Note_on_c, 0, 81, 54
2, 167834, Note_on_c, 0, 71, 26
2, 167835, Note_on_c, 0, 47, 40
2, 167863, Note_off_c, 0, 71, 64
2, 167863, Note_off_c, 0, 81, 64
2, 167863, Note_off_c, 0, 83, 64
2, 167879, Control_c, 0, 64, 127
2, 167882, Note_on_c, 0, 83, 51
2, 167882, Note_on_c, 0, 79, 56
2, 167882, Note_on_c, 0, 71, 23
2, 167911, Note_off_c, 0, 71, 64
2, 167911, Note_off_c, 0, 79, 64
2, 167911, Note_off_c, 0, 83, 64
2, 167926, Note_on_c, 0, 83, 49
2, 167926, Note_on_c, 0, 78, 63
2, 167926, Note_on_c, 0, 71, 25
2, 167943, Control_c, 0, 64, 0
2, 167955, Note_off_c, 0, 71, 64
2, 167955, Note_off_c, 0, 78, 64
2, 167955, Note_off_c, 0, 83, 64
2, 167974, Note_on_c, 0, 81, 59
2, 167974, Note_on_c, 0, 71, 58
2, 167974, Note_on_c, 0, 63, 58
2, 167974, Note_on_c, 0, 59, 52
2, 167978, Note_on_c, 0, 83, 57
2, 167978, Note_on_c, 0, 69, 49
2, 168035, Control_c, 0, 64, 127
2, 168041, Note_off_c, 0, 59, 64
2, 168041, Note_off_c, 0, 63, 64
2, 168041, Note_off_c, 0, 71, 64
2, 168041, Note_off_c, 0, 81, 64
2, 168045, Note_off_c, 0, 69, 64
2, 168045, Note_off_c, 0, 83, 64
2, 168052, Note_off_c, 0, 35, 64
2, 168053, Note_off_c, 0, 47, 64
2, 168102, Note_on_c, 0, 71, 55
2, 168102, Note_on_c, 0, 64, 58
2, 168102, Note_on_c, 0, 59, 26
2, 168106, Note_on_c, 0, 83, 59
2, 168106, Note_on_c, 0, 67, 58
2, 168108, Note_on_c, 0, 79, 64
2, 168163, Control_c, 0, 64, 127
2, 168203, Note_off_c, 0, 59, 64
2, 168203, Note_off_c, 0, 64, 64
2, 168203, Note_off_c, 0, 71, 64
2, 168207, Note_off_c, 0, 67, 64
2, 168207, Note_off_c, 0, 83, 64
2, 168209, Note_off_c, 0, 79, 64
2, 168252, Note_on_c, 0, 71, 65
2, 168254, Note_on_c, 0, 78, 72
2, 168256, Note_on_c, 0, 83, 59
2, 168264, Note_on_c, 0, 47, 41
2, 168264, Note_on_c, 0, 35, 32
2, 168281, Note_off_c, 0, 71, 64
2, 168282, Control_c, 0, 64, 127
2, 168283, Note_off_c, 0, 78, 64
2, 168285, Note_off_c, 0, 83, 64
2, 168300, Note_on_c, 0, 83, 58
2, 168300, Note_on_c, 0, 71, 64
2, 168305, Note_on_c, 0, 76, 64
2, 168329, Note_off_c, 0, 71, 64
2, 168329, Note_off_c, 0, 83, 64
2, 168334, Note_off_c, 0, 76, 64
2, 168344, Note_on_c, 0, 83, 65
2, 168348, Note_on_c, 0, 71, 26
2, 168351, Note_on_c, 0, 75, 71
2, 168373, Note_off_c, 0, 83, 64
2, 168377, Note_off_c, 0, 71, 64
2, 168380, Note_off_c, 0, 75, 64
2, 168390, Note_on_c, 0, 78, 63
2, 168391, Note_on_c, 0, 69, 54
2, 168392, Note_on_c, 0, 71, 25
2, 168392, Note_on_c, 0, 59, 59
2, 168395, Note_on_c, 0, 83, 83
2, 168395, Note_on_c, 0, 63, 60
2, 168410, Control_c, 0, 64, 0
2, 168443, Note_off_c, 0, 35, 64
2, 168443, Note_off_c, 0, 47, 64
2, 168453, Control_c, 0, 64, 127
2, 168457, Control_c, 0, 64, 127
2, 168467, Note_off_c, 0, 78, 64
2, 168468, Note_off_c, 0, 69, 64
2, 168469, Note_off_c, 0, 59, 64
2, 168469, Note_off_c, 0, 71, 64
2, 168472, Note_off_c, 0, 63, 64
2, 168472, Note_off_c, 0, 83, 64
2, 168500, Note_on_c, 0, 52, 55
2, 168516, Note_on_c, 0, 88, 71
2, 168516, Note_on_c, 0, 76, 71
2, 168516, Note_on_c, 0, 59, 71
2, 168520, Note_on_c, 0, 67, 71
2, 168597, Control_c, 0, 64, 127
2, 168597, Control_c, 0, 64, 127
2, 168601, Control_c, 0, 64, 127
2, 168609, Note_off_c, 0, 52, 64
2, 168617, Note_off_c, 0, 67, 64
2, 168621, Control_c, 0, 64, 127
2, 168622, Note_off_c, 0, 59, 64
2, 168622, Note_off_c, 0, 76, 64
2, 168622, Note_off_c, 0, 88, 64
2, 168656, Note_on_c, 0, 66, 67
2, 168656, Note_on_c, 0, 59, 58
2, 168656, Note_on_c, 0, 57, 58
2, 168656, Note_on_c, 0, 47, 77
2, 168658, Note_on_c, 0, 71, 70
2, 168673, Control_c, 0, 64, 127
2, 168685, Note_off_c, 0, 47, 64
2, 168685, Note_off_c, 0, 57, 64
2, 168685, Note_off_c, 0, 59, 64
2, 168685, Note_off_c, 0, 66, 64
2, 168687, Note_off_c, 0, 71, 64
2, 168702, Note_on_c, 0, 47, 54
2, 168704, Note_on_c, 0, 64, 64
2, 168704, Note_on_c, 0, 59, 24
2, 168704, Note_on_c, 0, 57, 24
2, 168706, Note_on_c, 0, 71, 24
2, 168731, Note_off_c, 0, 47, 64
2, 168733, Note_off_c, 0, 57, 64
2, 168733, Note_off_c, 0, 59, 64
2, 168733, Note_off_c, 0, 64, 64
2, 168735, Note_off_c, 0, 71, 64
2, 168746, Note_on_c, 0, 71, 60
2, 168746, Note_on_c, 0, 47, 25
2, 168748, Note_on_c, 0, 63, 58
2, 168748, Note_on_c, 0, 59, 60
2, 168748, Note_on_c, 0, 57, 60
2, 168775, Note_off_c, 0, 47, 64
2, 168775, Note_off_c, 0, 71, 64
2, 168777, Note_off_c, 0, 57, 64
2, 168777, Note_off_c, 0, 59, 64
2, 168777, Note_off_c, 0, 63, 64
2, 168796, Note_on_c, 0, 71, 60
2, 168796, Note_on_c, 0, 66, 71
2, 168796, Note_on_c, 0, 59, 81
2, 168798, Note_on_c, 0, 57, 54
2, 168800, Note_on_c, 0, 47, 63
2, 168847, Note_off_c, 0, 59, 64
2, 168847, Note_off_c, 0, 66, 64
2, 168847, Note_off_c, 0, 71, 64
2, 168849, Note_off_c, 0, 57, 64
2, 168851, Note_off_c, 0, 47, 64
2, 168885, Control_c, 0, 64, 0
2, 168928, Note_on_c, 0, 40, 70
2, 168948, Note_on_c, 0, 47, 70
2, 168950, Note_on_c, 0, 55, 70
2, 168952, Note_on_c, 0, 76, 70
2, 168954, Note_on_c, 0, 64, 70
2, 169075, Note_off_c, 0, 40, 64
2, 169089, Note_off_c, 0, 64, 64
2, 169091, Note_off_c, 0, 76, 64
2, 169093, Note_off_c, 0, 55, 64
2, 169094, Note_off_c, 0, 47, 64
2, 169128, Control_c, 0, 64, 127
2, 169142, Note_on_c, 0, 78, 83
2, 169142, Note_on_c, 0, 42, 83
2, 169146, Note_on_c, 0, 66, 83
2, 169146, Note_on_c, 0, 30, 98
2, 169180, Control_c, 0, 64, 127
2, 169272, Control_c, 0, 64, 0
2, 169301, Note_on_c, 0, 54, 58
2, 169302, Note_on_c, 0, 61, 54
2, 169303, Note_on_c, 0, 64, 58
2, 169318, Control_c, 0, 64, 127
2, 169344, Note_off_c, 0, 54, 64
2, 169345, Note_off_c, 0, 61, 64
2, 169346, Note_off_c, 0, 64, 64
2, 169415, Control_c, 0, 64, 0
2, 169435, Note_off_c, 0, 42, 64
2, 169438, Note_on_c, 0, 47, 65
2, 169439, Note_off_c, 0, 30, 64
2, 169450, Note_on_c, 0, 54, 65
2, 169452, Note_on_c, 0, 62, 73
2, 169466, Control_c, 0, 64, 127
2, 169482, Note_off_c, 0, 47, 64
2, 169495, Note_off_c, 0, 62, 64
2, 169496, Note_off_c, 0, 54, 64
2, 169535, Note_off_c, 0, 78, 64
2, 169539, Note_off_c, 0, 66, 64
2, 169553, Control_c, 0, 64, 0
2, 169570, Control_c, 0, 64, 127
2, 169576, Note_on_c, 0, 42, 58
2, 169578, Note_on_c, 0, 78, 60
2, 169578, Note_on_c, 0, 66, 54
2, 169580, Note_on_c, 0, 76, 59
2, 169582, Note_on_c, 0, 30, 64
2, 169598, Control_c, 0, 64, 127
2, 169607, Note_off_c, 0, 66, 64
2, 169607, Note_off_c, 0, 78, 64
2, 169609, Note_off_c, 0, 76, 64
2, 169614, Note_on_c, 0, 74, 52
2, 169618, Note_on_c, 0, 78, 54
2, 169622, Note_on_c, 0, 66, 52
2, 169643, Note_off_c, 0, 74, 64
2, 169647, Note_off_c, 0, 78, 64
2, 169651, Note_off_c, 0, 66, 64
2, 169654, Note_on_c, 0, 78, 49
2, 169658, Note_on_c, 0, 73, 59
2, 169666, Note_on_c, 0, 66, 56
2, 169670, Control_c, 0, 64, 0
2, 169683, Note_off_c, 0, 78, 64
2, 169687, Note_off_c, 0, 73, 64
2, 169695, Note_off_c, 0, 66, 64
2, 169698, Note_on_c, 0, 49, 65
2, 169702, Note_on_c, 0, 76, 65
2, 169702, Note_on_c, 0, 58, 65
2, 169704, Note_on_c, 0, 78, 65
2, 169706, Note_on_c, 0, 66, 66
2, 169809, Note_off_c, 0, 49, 64
2, 169813, Note_off_c, 0, 58, 64
2, 169813, Note_off_c, 0, 76, 64
2, 169815, Note_off_c, 0, 78, 64
2, 169817, Note_off_c, 0, 66, 64
2, 169858, Note_on_c, 0, 59, 58
2, 169859, Note_on_c, 0, 74, 60
2, 169861, Note_on_c, 0, 78, 60
2, 169862, Note_on_c, 0, 66, 60
2, 169862, Note_on_c, 0, 50, 60
2, 169869, Note_off_c, 0, 42, 64
2, 169875, Note_off_c, 0, 30, 64
2, 169943, Note_off_c, 0, 59, 64
2, 169944, Note_off_c, 0, 74, 64
2, 169946, Note_off_c, 0, 78, 64
2, 169947, Note_off_c, 0, 50, 64
2, 169947, Note_off_c, 0, 66, 64
2, 169980, Note_on_c, 0, 42, 58
2, 169982, Note_on_c, 0, 73, 66
2, 169983, Note_on_c, 0, 30, 55
2, 169984, Note_on_c, 0, 78, 63
2, 169984, Note_on_c, 0, 66, 65
2, 170003, Control_c, 0, 64, 127
2, 170011, Note_off_c, 0, 73, 64
2, 170013, Note_off_c, 0, 66, 64
2, 170013, Note_off_c, 0, 78, 64
2, 170028, Note_on_c, 0, 78, 59
2, 170028, Note_on_c, 0, 66, 51
2, 170030, Note_on_c, 0, 71, 51
2, 170057, Note_off_c, 0, 66, 64
2, 170057, Note_off_c, 0, 78, 64
2, 170059, Note_off_c, 0, 71, 64
2, 170072, Note_on_c, 0, 78, 60
2, 170076, Note_on_c, 0, 70, 64
2, 170076, Note_on_c, 0, 66, 54
2, 170097, Control_c, 0, 64, 0
2, 170101, Note_off_c, 0, 78, 64
2, 170105, Note_off_c, 0, 66, 64
2, 170105, Note_off_c, 0, 70, 64
2, 170124, Note_on_c, 0, 78, 64
2, 170124, Note_on_c, 0, 73, 64
2, 170124, Note_on_c, 0, 66, 64
2, 170124, Note_on_c, 0, 64, 64
2, 170124, Note_on_c, 0, 58, 58
2, 170124, Note_on_c, 0, 54, 58
2, 170159, Note_off_c, 0, 42, 64
2, 170162, Note_off_c, 0, 30, 64
2, 170270, Note_off_c, 0, 54, 64
2, 170270, Note_off_c, 0, 58, 64
2, 170270, Note_off_c, 0, 64, 64
2, 170270, Note_off_c, 0, 66, 64
2, 170270, Note_off_c, 0, 73, 64
2, 170270, Note_off_c, 0, 78, 64
2, 170288, Note_on_c, 0, 47, 77
2, 170305, Note_on_c, 0, 54, 86
2, 170307, Note_on_c, 0, 62, 86
2, 170314, Note_on_c, 0, 83, 95
2, 170315, Note_on_c, 0, 71, 86
2, 170448, Note_off_c, 0, 54, 64
2, 170450, Note_off_c, 0, 62, 64
2, 170452, Note_off_c, 0, 47, 64
2, 170457, Note_off_c, 0, 83, 64
2, 170458, Note_off_c, 0, 71, 64
2, 170484, Note_on_c, 0, 95, 93
2, 170484, Note_on_c, 0, 83, 92
2, 170484, Note_on_c, 0, 59, 88
2, 170484, Control_c, 0, 64, 127
2, 170486, Note_on_c, 0, 71, 83
2, 170548, Note_off_c, 0, 59, 64
2, 170548, Note_off_c, 0, 83, 64
2, 170548, Note_off_c, 0, 95, 64
2, 170550, Note_off_c, 0, 71, 64
2, 170616, Control_c, 0, 64, 0
2, 170620, Note_on_c, 0, 70, 57
2, 170622, Note_on_c, 0, 94, 57
2, 170622, Note_on_c, 0, 82, 57
2, 170622, Note_on_c, 0, 58, 67
2, 170638, Note_on_c, 0, 95, 75
2, 170638, Note_on_c, 0, 83, 77
2, 170638, Note_on_c, 0, 71, 92
2, 170638, Note_on_c, 0, 59, 83
2, 170646, Control_c, 0, 64, 127
2, 170649, Note_off_c, 0, 70, 64
2, 170651, Note_off_c, 0, 58, 64
2, 170651, Note_off_c, 0, 82, 64
2, 170651, Note_off_c, 0, 94, 64
2, 170702, Note_off_c, 0, 59, 64
2, 170702, Note_off_c, 0, 71, 64
2, 170702, Note_off_c, 0, 83, 64
2, 170702, Note_off_c, 0, 95, 64
2, 170780, Control_c, 0, 64, 0
2, 170789, Note_on_c, 0, 47, 90
2, 170790, Note_on_c, 0, 83, 101
2, 170790, Note_on_c, 0, 59, 102
2, 170792, Note_on_c, 0, 71, 36
2, 170826, Control_c, 0, 64, 127
2, 170853, Note_off_c, 0, 47, 64
2, 170854, Note_off_c, 0, 59, 64
2, 170854, Note_off_c, 0, 83, 64
2, 170856, Note_off_c, 0, 71, 64
2, 170949, Control_c, 0, 64, 0
2, 170957, Note_on_c, 0, 59, 102
2, 170957, Note_on_c, 0, 47, 102
2, 170958, Note_on_c, 0, 35, 102
2, 170963, Note_on_c, 0, 71, 94
2, 170989, Control_c, 0, 64, 127
2, 171021, Note_off_c, 0, 47, 64
2, 171021, Note_off_c, 0, 59, 64
2, 171090, Note_on_c, 0, 61, 42
2, 171090, Note_on_c, 0, 49, 41
2, 171124, Control_c, 0, 64, 0
2, 171136, Control_c, 0, 64, 0
2, 171150, Note_on_c, 0, 47, 48
2, 171151, Note_on_c, 0, 59, 46
2, 171161, Note_off_c, 0, 61, 64
2, 171165, Note_off_c, 0, 49, 64
2, 171202, Note_on_c, 0, 52, 46
2, 171207, Note_on_c, 0, 64, 39
2, 171247, Note_off_c, 0, 59, 64
2, 171249, Note_off_c, 0, 47, 64
2, 171258, Note_on_c, 0, 66, 42
2, 171260, Note_on_c, 0, 54, 55
2, 171281, Note_off_c, 0, 52, 64
2, 171286, Note_off_c, 0, 64, 64
2, 171319, Note_on_c, 0, 68, 56
2, 171325, Note_on_c, 0, 56, 59
2, 171333, Note_off_c, 0, 66, 64
2, 171335, Note_off_c, 0, 54, 64
2, 171378, Note_on_c, 0, 51, 48
2, 171385, Note_on_c, 0, 63, 48
2, 171408, Note_off_c, 0, 68, 64
2, 171414, Note_off_c, 0, 56, 64
2, 171442, Note_on_c, 0, 64, 40
2, 171442, Note_on_c, 0, 52, 49
2, 171451, Note_off_c, 0, 51, 64
2, 171458, Note_off_c, 0, 63, 64
2, 171494, Note_on_c, 0, 56, 62
2, 171498, Note_on_c, 0, 68, 50
2, 171507, Note_off_c, 0, 52, 64
2, 171507, Note_off_c, 0, 64, 64
2, 171507, Note_off_c, 0, 71, 64
2, 171542, Note_on_c, 0, 71, 42
2, 171542, Note_on_c, 0, 59, 64
2, 171565, Note_off_c, 0, 56, 64
2, 171569, Note_off_c, 0, 68, 64
2, 171597, Note_on_c, 0, 61, 67
2, 171598, Note_on_c, 0, 73, 55
2, 171614, Note_off_c, 0, 71, 64
2, 171624, Note_off_c, 0, 59, 64
2, 171646, Note_on_c, 0, 75, 74
2, 171649, Note_on_c, 0, 63, 77
2, 171666, Note_off_c, 0, 61, 64
2, 171667, Note_off_c, 0, 73, 64
2, 171678, Note_off_c, 0, 75, 64
2, 171712, Note_on_c, 0, 70, 58
2, 171714, Note_off_c, 0, 63, 64
2, 171742, Note_off_c, 0, 35, 64
2, 171760, Note_on_c, 0, 71, 44
2, 171763, Note_on_c, 0, 49, 65
2, 171786, Note_off_c, 0, 70, 64
2, 171803, Note_on_c, 0, 73, 59
2, 171829, Note_off_c, 0, 71, 64
2, 171855, Note_on_c, 0, 71, 54
2, 171878, Note_off_c, 0, 73, 64
2, 171891, Note_on_c, 0, 59, 46
2, 171894, Note_on_c, 0, 70, 71
2, 171895, Note_on_c, 0, 53, 37
2, 171908, Note_off_c, 0, 71, 64
2, 171920, Note_off_c, 0, 49, 64
2, 171928, Note_off_c, 0, 53, 64
2, 171928, Note_off_c, 0, 59, 64
2, 171937, Note_on_c, 0, 68, 70
2, 171944, Note_off_c, 0, 70, 64
2, 171990, Note_on_c, 0, 66, 62
2, 171993, Note_on_c, 0, 42, 62
2, 172001, Note_off_c, 0, 68, 64
2, 172051, Note_on_c, 0, 61, 70
2, 172078, Note_off_c, 0, 66, 64
2, 172094, Note_on_c, 0, 58, 62
2, 172094, Note_on_c, 0, 52, 51
2, 172097, Note_on_c, 0, 63, 77
2, 172113, Note_off_c, 0, 61, 64
2, 172144, Note_off_c, 0, 52, 64
2, 172144, Note_off_c, 0, 58, 64
2, 172156, Note_on_c, 0, 64, 62
2, 172170, Note_off_c, 0, 63, 64
2, 172196, Control_c, 0, 64, 127
2, 172202, Note_on_c, 0, 68, 73
2, 172202, Note_on_c, 0, 58, 44
2, 172202, Note_on_c, 0, 52, 47
2, 172232, Note_off_c, 0, 64, 64
2, 172232, Note_off_c, 0, 42, 64
2, 172252, Note_off_c, 0, 52, 64
2, 172252, Note_off_c, 0, 58, 64
2, 172254, Note_on_c, 0, 66, 65
2, 172266, Note_off_c, 0, 68, 64
2, 172311, Note_off_c, 0, 66, 64
2, 172317, Control_c, 0, 64, 0
2, 172325, Note_on_c, 0, 47, 100
2, 172325, Note_on_c, 0, 59, 100
2, 172326, Note_on_c, 0, 35, 100
2, 172331, Note_on_c, 0, 71, 93
2, 172349, Control_c, 0, 64, 127
2, 172357, Control_c, 0, 64, 127
2, 172389, Note_off_c, 0, 59, 64
2, 172389, Note_off_c, 0, 47, 64
2, 172446, Control_c, 0, 64, 127
2, 172474, Note_on_c, 0, 49, 23
2, 172475, Note_on_c, 0, 61, 42
2, 172509, Control_c, 0, 64, 0
2, 172518, Note_on_c, 0, 59, 49
2, 172518, Note_on_c, 0, 47, 59
2, 172541, Note_off_c, 0, 49, 64
2, 172542, Note_off_c, 0, 61, 64
2, 172570, Control_c, 0, 64, 0
2, 172582, Note_on_c, 0, 52, 50
2, 172584, Note_on_c, 0, 64, 24
2, 172612, Note_off_c, 0, 59, 64
2, 172618, Note_off_c, 0, 47, 64
2, 172630, Note_on_c, 0, 54, 65
2, 172632, Note_on_c, 0, 66, 52
2, 172657, Note_off_c, 0, 52, 64
2, 172659, Note_off_c, 0, 64, 64
2, 172692, Note_on_c, 0, 68, 66
2, 172692, Note_on_c, 0, 56, 65
2, 172710, Note_off_c, 0, 54, 64
2, 172712, Note_off_c, 0, 66, 64
2, 172742, Note_on_c, 0, 63, 49
2, 172742, Note_on_c, 0, 51, 58
2, 172757, Note_off_c, 0, 56, 64
2, 172757, Note_off_c, 0, 68, 64
2, 172798, Note_on_c, 0, 64, 55
2, 172802, Note_on_c, 0, 52, 55
2, 172812, Note_off_c, 0, 51, 64
2, 172812, Note_off_c, 0, 63, 64
2, 172842, Note_off_c, 0, 35, 64
2, 172842, Note_off_c, 0, 71, 64
2, 172846, Note_on_c, 0, 68, 56
2, 172846, Note_on_c, 0, 56, 56
2, 172869, Note_off_c, 0, 64, 64
2, 172873, Note_off_c, 0, 52, 64
2, 172902, Note_on_c, 0, 71, 46
2, 172906, Note_on_c, 0, 59, 72
2, 172921, Note_off_c, 0, 56, 64
2, 172921, Note_off_c, 0, 68, 64
2, 172954, Note_on_c, 0, 73, 47
2, 172954, Note_on_c, 0, 61, 69
2, 172974, Note_off_c, 0, 71, 64
2, 172978, Note_off_c, 0, 59, 64
2, 173002, Note_on_c, 0, 75, 82
2, 173002, Note_on_c, 0, 63, 77
2, 173026, Note_off_c, 0, 61, 64
2, 173026, Note_off_c, 0, 73, 64
2, 173039, Note_off_c, 0, 75, 64
2, 173063, Note_off_c, 0, 63, 64
2, 173068, Note_on_c, 0, 69, 58
2, 173106, Note_on_c, 0, 70, 62
2, 173112, Note_on_c, 0, 46, 64
2, 173137, Note_off_c, 0, 69, 64
2, 173152, Note_on_c, 0, 72, 46
2, 173183, Note_off_c, 0, 70, 64
2, 173192, Note_on_c, 0, 70, 59
2, 173218, Note_off_c, 0, 72, 64
2, 173228, Note_on_c, 0, 68, 67
2, 173228, Note_on_c, 0, 55, 52
2, 173232, Note_on_c, 0, 63, 54
2, 173248, Note_off_c, 0, 70, 64
2, 173271, Note_off_c, 0, 46, 64
2, 173275, Note_off_c, 0, 55, 64
2, 173279, Note_off_c, 0, 63, 64
2, 173287, Note_on_c, 0, 67, 58
2, 173303, Note_off_c, 0, 68, 64
2, 173336, Note_on_c, 0, 46, 81
2, 173339, Note_on_c, 0, 68, 62
2, 173359, Note_off_c, 0, 67, 64
2, 173392, Note_on_c, 0, 64, 58
2, 173425, Note_off_c, 0, 68, 64
2, 173460, Note_on_c, 0, 62, 51
2, 173460, Note_on_c, 0, 56, 55
2, 173461, Note_on_c, 0, 65, 66
2, 173474, Note_off_c, 0, 64, 64
2, 173498, Note_off_c, 0, 56, 64
2, 173498, Note_off_c, 0, 62, 64
2, 173528, Note_on_c, 0, 68, 54
2, 173536, Note_off_c, 0, 65, 64
2, 173564, Note_on_c, 0, 72, 62
2, 173564, Note_on_c, 0, 62, 49
2, 173564, Note_on_c, 0, 56, 51
2, 173575, Note_off_c, 0, 46, 64
2, 173598, Note_off_c, 0, 68, 64
2, 173607, Note_off_c, 0, 56, 64
2, 173607, Note_off_c, 0, 62, 64
2, 173624, Note_on_c, 0, 70, 57
2, 173652, Note_off_c, 0, 72, 64
2, 173694, Note_on_c, 0, 51, 71
2, 173695, Note_on_c, 0, 67, 63
2, 173712, Note_off_c, 0, 70, 64
2, 173809, Note_on_c, 0, 70, 70
2, 173814, Note_on_c, 0, 55, 52
2, 173816, Note_on_c, 0, 63, 51
2, 173823, Note_off_c, 0, 67, 64
2, 173856, Note_on_c, 0, 72, 58
2, 173860, Note_off_c, 0, 55, 64
2, 173862, Note_off_c, 0, 63, 64
2, 173868, Note_off_c, 0, 70, 64
2, 173892, Note_on_c, 0, 70, 58
2, 173915, Note_off_c, 0, 72, 64
2, 173926, Note_on_c, 0, 63, 50
2, 173926, Note_on_c, 0, 55, 51
2, 173933, Note_off_c, 0, 51, 64
2, 173938, Note_on_c, 0, 68, 63
2, 173961, Note_off_c, 0, 70, 64
2, 173962, Note_off_c, 0, 55, 64
2, 173962, Note_off_c, 0, 63, 64
2, 173983, Note_on_c, 0, 67, 64
2, 174003, Note_off_c, 0, 68, 64
2, 174038, Note_on_c, 0, 46, 62
2, 174042, Note_on_c, 0, 68, 71
2, 174056, Note_off_c, 0, 67, 64
2, 174097, Note_on_c, 0, 64, 63
2, 174122, Note_off_c, 0, 68, 64
2, 174150, Note_on_c, 0, 65, 75
2, 174150, Note_on_c, 0, 62, 56
2, 174151, Note_on_c, 0, 56, 58
2, 174172, Note_off_c, 0, 64, 64
2, 174189, Note_off_c, 0, 62, 64
2, 174190, Note_off_c, 0, 56, 64
2, 174223, Note_on_c, 0, 68, 62
2, 174240, Note_off_c, 0, 65, 64
2, 174274, Note_on_c, 0, 56, 58
2, 174277, Note_off_c, 0, 46, 64
2, 174278, Note_on_c, 0, 72, 63
2, 174278, Note_on_c, 0, 62, 58
2, 174293, Note_off_c, 0, 68, 64
2, 174322, Note_on_c, 0, 70, 56
2, 174327, Note_off_c, 0, 56, 64
2, 174331, Note_off_c, 0, 62, 64
2, 174344, Note_off_c, 0, 72, 64
2, 174383, Note_on_c, 0, 51, 62
2, 174386, Note_on_c, 0, 67, 62
2, 174406, Note_off_c, 0, 70, 64
2, 174514, Note_on_c, 0, 55, 47
2, 174518, Note_on_c, 0, 70, 50
2, 174518, Note_on_c, 0, 63, 48
2, 174542, Note_off_c, 0, 67, 64
2, 174548, Note_off_c, 0, 51, 64
2, 174550, Note_on_c, 0, 72, 62
2, 174560, Note_off_c, 0, 70, 64
2, 174568, Note_off_c, 0, 55, 64
2, 174572, Note_off_c, 0, 63, 64
2, 174588, Note_on_c, 0, 70, 55
2, 174604, Note_off_c, 0, 72, 64
2, 174641, Note_on_c, 0, 68, 65
2, 174660, Note_off_c, 0, 70, 64
2, 174691, Note_on_c, 0, 67, 62
2, 174719, Note_off_c, 0, 68, 64
2, 174742, Note_on_c, 0, 42, 63
2, 174746, Note_on_c, 0, 66, 71
2, 174783, Note_off_c, 0, 67, 64
2, 174798, Note_on_c, 0, 61, 73
2, 174820, Note_off_c, 0, 66, 64
2, 174858, Note_on_c, 0, 63, 73
2, 174858, Note_on_c, 0, 52, 57
2, 174860, Note_on_c, 0, 58, 62
2, 174861, Control_c, 0, 64, 127
2, 174881, Note_off_c, 0, 61, 64
2, 174907, Note_off_c, 0, 58, 64
2, 174912, Note_off_c, 0, 52, 64
2, 174918, Note_on_c, 0, 64, 58
2, 174935, Note_off_c, 0, 63, 64
2, 174958, Note_on_c, 0, 52, 65
2, 174962, Note_on_c, 0, 68, 67
2, 174962, Note_on_c, 0, 58, 57
2, 174966, Note_off_c, 0, 64, 64
2, 174981, Note_off_c, 0, 42, 64
2, 175005, Note_off_c, 0, 52, 64
2, 175010, Note_off_c, 0, 58, 64
2, 175022, Note_on_c, 0, 66, 67
2, 175025, Note_off_c, 0, 68, 64
2, 175040, Control_c, 0, 64, 127
2, 175063, Note_off_c, 0, 66, 64
2, 175081, Control_c, 0, 64, 0
2, 175089, Note_on_c, 0, 59, 93
2, 175089, Note_on_c, 0, 47, 93
2, 175090, Note_on_c, 0, 35, 93
2, 175095, Note_on_c, 0, 71, 86
2, 175121, Control_c, 0, 64, 127
2, 175214, Note_off_c, 0, 47, 64
2, 175214, Note_off_c, 0, 59, 64
2, 175222, Note_on_c, 0, 49, 51
2, 175222, Note_on_c, 0, 61, 54
2, 175226, Control_c, 0, 64, 0
2, 175256, Control_c, 0, 64, 0
2, 175268, Control_c, 0, 64, 0
2, 175279, Control_c, 0, 64, 127
2, 175282, Note_on_c, 0, 47, 58
2, 175283, Note_on_c, 0, 59, 56
2, 175293, Note_off_c, 0, 61, 64
2, 175297, Note_off_c, 0, 49, 64
2, 175334, Note_on_c, 0, 52, 54
2, 175339, Note_on_c, 0, 64, 46
2, 175379, Note_off_c, 0, 59, 64
2, 175381, Note_off_c, 0, 47, 64
2, 175390, Note_on_c, 0, 66, 49
2, 175392, Note_on_c, 0, 54, 63
2, 175403, Control_c, 0, 64, 0
2, 175413, Note_off_c, 0, 52, 64
2, 175418, Note_off_c, 0, 64, 64
2, 175451, Note_on_c, 0, 68, 62
2, 175457, Note_on_c, 0, 56, 65
2, 175465, Note_off_c, 0, 66, 64
2, 175467, Note_off_c, 0, 54, 64
2, 175510, Note_on_c, 0, 51, 51
2, 175517, Note_on_c, 0, 63, 51
2, 175540, Note_off_c, 0, 68, 64
2, 175546, Note_off_c, 0, 56, 64
2, 175574, Note_on_c, 0, 64, 42
2, 175574, Note_on_c, 0, 52, 51
2, 175583, Note_off_c, 0, 51, 64
2, 175590, Note_off_c, 0, 63, 64
2, 175626, Note_on_c, 0, 56, 62
2, 175630, Note_on_c, 0, 68, 50
2, 175639, Note_off_c, 0, 52, 64
2, 175639, Note_off_c, 0, 64, 64
2, 175639, Note_off_c, 0, 71, 64
2, 175674, Note_on_c, 0, 71, 42
2, 175674, Note_on_c, 0, 59, 63
2, 175697, Note_off_c, 0, 56, 64
2, 175701, Note_off_c, 0, 68, 64
2, 175729, Note_on_c, 0, 61, 65
2, 175730, Note_on_c, 0, 73, 52
2, 175746, Note_off_c, 0, 71, 64
2, 175756, Note_off_c, 0, 59, 64
2, 175778, Note_on_c, 0, 75, 70
2, 175781, Note_on_c, 0, 63, 72
2, 175798, Note_off_c, 0, 61, 64
2, 175799, Note_off_c, 0, 73, 64
2, 175810, Note_off_c, 0, 75, 64
2, 175844, Note_on_c, 0, 70, 58
2, 175846, Note_off_c, 0, 63, 64
2, 175874, Note_off_c, 0, 35, 64
2, 175892, Note_on_c, 0, 71, 44
2, 175895, Note_on_c, 0, 49, 65
2, 175918, Note_off_c, 0, 70, 64
2, 175935, Note_on_c, 0, 73, 59
2, 175961, Note_off_c, 0, 71, 64
2, 175987, Note_on_c, 0, 71, 54
2, 176010, Note_off_c, 0, 73, 64
2, 176023, Note_on_c, 0, 59, 46
2, 176026, Note_on_c, 0, 70, 71
2, 176027, Note_on_c, 0, 53, 37
2, 176040, Note_off_c, 0, 71, 64
2, 176052, Note_off_c, 0, 49, 64
2, 176060, Note_off_c, 0, 53, 64
2, 176060, Note_off_c, 0, 59, 64
2, 176069, Note_on_c, 0, 68, 70
2, 176076, Note_off_c, 0, 70, 64
2, 176122, Note_on_c, 0, 66, 62
2, 176125, Note_on_c, 0, 42, 62
2, 176133, Note_off_c, 0, 68, 64
2, 176183, Note_on_c, 0, 61, 70
2, 176210, Note_off_c, 0, 66, 64
2, 176226, Note_on_c, 0, 58, 62
2, 176226, Note_on_c, 0, 52, 51
2, 176229, Note_on_c, 0, 63, 67
2, 176245, Note_off_c, 0, 61, 64
2, 176276, Note_off_c, 0, 52, 64
2, 176276, Note_off_c, 0, 58, 64
2, 176288, Note_on_c, 0, 64, 54
2, 176302, Note_off_c, 0, 63, 64
2, 176328, Control_c, 0, 64, 127
2, 176334, Note_on_c, 0, 68, 64
2, 176334, Note_on_c, 0, 58, 44
2, 176334, Note_on_c, 0, 52, 47
2, 176364, Note_off_c, 0, 64, 64
2, 176364, Note_off_c, 0, 42, 64
2, 176384, Note_off_c, 0, 52, 64
2, 176384, Note_off_c, 0, 58, 64
2, 176386, Note_on_c, 0, 66, 57
2, 176398, Note_off_c, 0, 68, 64
2, 176443, Note_off_c, 0, 66, 64
2, 176478, Note_on_c, 0, 59, 87
2, 176478, Note_on_c, 0, 71, 92
2, 176481, Control_c, 0, 64, 0
2, 176482, Note_on_c, 0, 35, 106
2, 176482, Note_on_c, 0, 47, 89
2, 176544, Control_c, 0, 64, 127
2, 176640, Note_off_c, 0, 59, 64
2, 176649, Note_off_c, 0, 47, 64
2, 176654, Note_on_c, 0, 61, 72
2, 176658, Note_on_c, 0, 49, 58
2, 176661, Control_c, 0, 64, 0
2, 176714, Note_on_c, 0, 59, 72
2, 176714, Note_on_c, 0, 47, 65
2, 176731, Note_off_c, 0, 61, 64
2, 176735, Note_off_c, 0, 49, 64
2, 176770, Note_on_c, 0, 64, 57
2, 176773, Note_on_c, 0, 52, 73
2, 176791, Note_off_c, 0, 47, 64
2, 176791, Note_off_c, 0, 59, 64
2, 176838, Note_on_c, 0, 66, 52
2, 176838, Note_on_c, 0, 54, 75
2, 176847, Note_off_c, 0, 64, 64
2, 176850, Note_off_c, 0, 52, 64
2, 176898, Note_on_c, 0, 67, 75
2, 176898, Note_on_c, 0, 55, 75
2, 176915, Note_off_c, 0, 54, 64
2, 176915, Note_off_c, 0, 66, 64
2, 176958, Note_on_c, 0, 63, 57
2, 176958, Note_on_c, 0, 51, 52
2, 176975, Note_off_c, 0, 55, 64
2, 176975, Note_off_c, 0, 67, 64
2, 177014, Note_on_c, 0, 64, 65
2, 177014, Note_on_c, 0, 52, 48
2, 177022, Note_off_c, 0, 71, 64
2, 177035, Note_off_c, 0, 51, 64
2, 177035, Note_off_c, 0, 63, 64
2, 177070, Note_on_c, 0, 67, 50
2, 177074, Note_on_c, 0, 55, 56
2, 177095, Control_c, 0, 64, 127
2, 177102, Note_off_c, 0, 52, 64
2, 177102, Note_off_c, 0, 64, 64
2, 177138, Note_on_c, 0, 59, 39
2, 177138, Note_on_c, 0, 71, 48
2, 177147, Note_off_c, 0, 67, 64
2, 177151, Note_off_c, 0, 55, 64
2, 177198, Note_on_c, 0, 73, 52
2, 177198, Note_on_c, 0, 61, 59
2, 177215, Note_off_c, 0, 71, 64
2, 177215, Note_off_c, 0, 59, 64
2, 177230, Note_off_c, 0, 35, 64
2, 177254, Note_on_c, 0, 75, 55
2, 177258, Note_on_c, 0, 63, 57
2, 177275, Note_off_c, 0, 61, 64
2, 177275, Note_off_c, 0, 73, 64
2, 177309, Control_c, 0, 64, 0
2, 177314, Note_on_c, 0, 70, 42
2, 177314, Note_on_c, 0, 58, 35
2, 177331, Note_off_c, 0, 75, 64
2, 177335, Note_off_c, 0, 63, 64
2, 177378, Note_on_c, 0, 71, 55
2, 177378, Note_on_c, 0, 59, 40
2, 177391, Note_off_c, 0, 58, 64
2, 177391, Note_off_c, 0, 70, 64
2, 177438, Note_on_c, 0, 75, 44
2, 177442, Note_on_c, 0, 63, 52
2, 177455, Note_off_c, 0, 59, 64
2, 177455, Note_off_c, 0, 71, 64
2, 177494, Note_on_c, 0, 76, 42
2, 177494, Note_on_c, 0, 64, 48
2, 177539, Note_off_c, 0, 75, 64
2, 177543, Note_off_c, 0, 63, 64
2, 177562, Note_on_c, 0, 78, 47
2, 177562, Note_on_c, 0, 66, 50
2, 177582, Note_off_c, 0, 64, 64
2, 177582, Note_off_c, 0, 76, 64
2, 177618, Note_on_c, 0, 79, 55
2, 177618, Note_on_c, 0, 67, 57
2, 177639, Note_off_c, 0, 66, 64
2, 177639, Note_off_c, 0, 78, 64
2, 177686, Note_on_c, 0, 75, 41
2, 177690, Note_on_c, 0, 63, 40
2, 177706, Note_off_c, 0, 67, 64
2, 177706, Note_off_c, 0, 79, 64
2, 177750, Note_on_c, 0, 76, 41
2, 177750, Note_on_c, 0, 64, 27
2, 177763, Note_off_c, 0, 75, 64
2, 177767, Note_off_c, 0, 63, 64
2, 177806, Note_on_c, 0, 79, 28
2, 177810, Note_on_c, 0, 67, 41
2, 177827, Note_off_c, 0, 64, 64
2, 177827, Note_off_c, 0, 76, 64
2, 177866, Note_on_c, 0, 71, 40
2, 177870, Note_on_c, 0, 83, 31
2, 177883, Note_off_c, 0, 79, 64
2, 177887, Note_off_c, 0, 67, 64
2, 177926, Note_on_c, 0, 85, 36
2, 177926, Note_on_c, 0, 73, 41
2, 177943, Note_off_c, 0, 71, 64
2, 177947, Note_off_c, 0, 83, 64
2, 177978, Note_on_c, 0, 75, 35
2, 177982, Note_on_c, 0, 87, 31
2, 178003, Note_off_c, 0, 73, 64
2, 178003, Note_off_c, 0, 85, 64
2, 178028, Control_c, 0, 64, 127
2, 178325, Note_off_c, 0, 75, 64
2, 178329, Note_off_c, 0, 87, 64
2, 178345, Control_c, 0, 64, 0
2, 178382, Control_c, 0, 64, 127
2, 178395, Note_on_c, 0, 64, 58
2, 178395, Note_on_c, 0, 35, 51
2, 178398, Note_on_c, 0, 61, 54
2, 178400, Note_on_c, 0, 54, 51
2, 178400, Note_on_c, 0, 47, 56
2, 178447, Note_off_c, 0, 47, 64
2, 178450, Note_on_c, 0, 63, 62
2, 178454, Note_off_c, 0, 35, 64
2, 178454, Note_on_c, 0, 59, 58
2, 178457, Note_off_c, 0, 64, 64
2, 178477, Note_off_c, 0, 54, 64
2, 178481, Note_off_c, 0, 61, 64
2, 178490, Note_off_c, 0, 59, 64
2, 178493, Note_off_c, 0, 63, 64
2, 178513, Note_on_c, 0, 54, 63
2, 178514, Note_on_c, 0, 47, 55
2, 178514, Note_on_c, 0, 35, 48
2, 178516, Note_on_c, 0, 59, 63
2, 178519, Note_on_c, 0, 63, 65
2, 178521, Control_c, 0, 64, 0
2, 178557, Control_c, 0, 64, 127
2, 178566, Note_off_c, 0, 35, 64
2, 178573, Note_off_c, 0, 47, 64
2, 178644, Note_off_c, 0, 63, 64
2, 178653, Note_off_c, 0, 54, 64
2, 178653, Note_off_c, 0, 59, 64
2, 178810, Note_on_c, 0, 54, 46
2, 178813, Note_on_c, 0, 64, 51
2, 178813, Note_on_c, 0, 61, 46
2, 178814, Note_on_c, 0, 47, 56
2, 178818, Note_on_c, 0, 35, 49
2, 178859, Note_on_c, 0, 63, 51
2, 178862, Note_off_c, 0, 47, 64
2, 178868, Note_on_c, 0, 59, 49
2, 178870, Note_off_c, 0, 35, 64
2, 178878, Note_off_c, 0, 64, 64
2, 178894, Note_off_c, 0, 61, 64
2, 178901, Note_off_c, 0, 54, 64
2, 178911, Note_off_c, 0, 59, 64
2, 178918, Note_off_c, 0, 63, 64
2, 178932, Note_on_c, 0, 54, 56
2, 178938, Note_on_c, 0, 63, 57
2, 178941, Note_on_c, 0, 59, 60
2, 178941, Note_on_c, 0, 47, 49
2, 178945, Note_on_c, 0, 35, 49
2, 178954, Control_c, 0, 64, 0
2, 179000, Control_c, 0, 64, 127
2, 179017, Note_off_c, 0, 35, 64
2, 179023, Note_off_c, 0, 47, 64
2, 179068, Note_off_c, 0, 54, 64
2, 179075, Note_off_c, 0, 59, 64
2, 179075, Note_off_c, 0, 63, 64
2, 179249, Control_c, 0, 64, 0
2, 179254, Note_on_c, 0, 54, 43
2, 179258, Note_on_c, 0, 47, 50
2, 179258, Note_on_c, 0, 35, 46
2, 179259, Note_on_c, 0, 64, 47
2, 179259, Note_on_c, 0, 61, 47
2, 179272, Control_c, 0, 64, 127
2, 179314, Note_off_c, 0, 35, 64
2, 179317, Note_off_c, 0, 47, 64
2, 179318, Note_on_c, 0, 63, 47
2, 179325, Note_on_c, 0, 59, 41
2, 179332, Note_off_c, 0, 64, 64
2, 179345, Note_off_c, 0, 54, 64
2, 179347, Note_off_c, 0, 61, 64
2, 179362, Note_off_c, 0, 59, 64
2, 179370, Note_off_c, 0, 63, 64
2, 179382, Note_on_c, 0, 35, 44
2, 179388, Note_on_c, 0, 63, 41
2, 179390, Note_on_c, 0, 54, 27
2, 179390, Note_on_c, 0, 47, 42
2, 179393, Note_on_c, 0, 59, 47
2, 179422, Control_c, 0, 64, 0
2, 179477, Control_c, 0, 64, 127
2, 179648, Note_off_c, 0, 35, 64
2, 179654, Note_off_c, 0, 63, 64
2, 179656, Note_off_c, 0, 47, 64
2, 179656, Note_off_c, 0, 54, 64
2, 179659, Note_off_c, 0, 59, 64
2, 179832, Control_c, 0, 64, 0
2, 181456, Note_on_c, 0, 63, 51
2, 181477, Control_c, 0, 64, 127
2, 181610, Control_c, 0, 64, 0
2, 181641, Control_c, 0, 64, 127
2, 181656, Note_on_c, 0, 68, 60
2, 181661, Note_on_c, 0, 32, 55
2, 181666, Note_off_c, 0, 63, 64
2, 181688, Control_c, 0, 64, 0
2, 181751, Control_c, 0, 64, 127
2, 181765, Note_on_c, 0, 72, 58
2, 181812, Note_off_c, 0, 68, 64
2, 181822, Note_off_c, 0, 32, 64
2, 181874, Note_on_c, 0, 75, 58
2, 181882, Control_c, 0, 64, 0
2, 181889, Note_on_c, 0, 60, 54
2, 181889, Note_on_c, 0, 51, 46
2, 181890, Note_on_c, 0, 63, 39
2, 181913, Control_c, 0, 64, 127
2, 181918, Note_off_c, 0, 72, 64
2, 181952, Note_off_c, 0, 51, 64
2, 181952, Note_off_c, 0, 60, 64
2, 181953, Note_off_c, 0, 63, 64
2, 181960, Note_on_c, 0, 76, 52
2, 182007, Note_off_c, 0, 75, 64
2, 182048, Note_on_c, 0, 51, 46
2, 182052, Note_on_c, 0, 77, 63
2, 182057, Control_c, 0, 64, 0
2, 182063, Note_on_c, 0, 63, 42
2, 182064, Note_on_c, 0, 61, 49
2, 182089, Note_off_c, 0, 76, 64
2, 182099, Control_c, 0, 64, 127
2, 182111, Note_off_c, 0, 51, 64
2, 182126, Note_off_c, 0, 63, 64
2, 182127, Note_off_c, 0, 61, 64
2, 182148, Note_on_c, 0, 67, 73
2, 182200, Note_off_c, 0, 77, 64
2, 182218, Control_c, 0, 64, 0
2, 182229, Note_on_c, 0, 44, 66
2, 182232, Note_on_c, 0, 68, 74
2, 182254, Note_off_c, 0, 67, 64
2, 182259, Control_c, 0, 64, 127
2, 182299, Note_on_c, 0, 72, 62
2, 182319, Note_off_c, 0, 68, 64
2, 182363, Note_on_c, 0, 77, 66
2, 182380, Note_on_c, 0, 66, 62
2, 182384, Note_off_c, 0, 72, 64
2, 182384, Note_on_c, 0, 60, 43
2, 182389, Note_on_c, 0, 56, 39
2, 182390, Note_off_c, 0, 44, 64
2, 182395, Note_on_c, 0, 75, 70
2, 182396, Control_c, 0, 64, 0
2, 182422, Note_off_c, 0, 77, 64
2, 182426, Control_c, 0, 64, 127
2, 182443, Note_off_c, 0, 66, 64
2, 182447, Note_off_c, 0, 60, 64
2, 182452, Note_off_c, 0, 56, 64
2, 182468, Note_on_c, 0, 74, 65
2, 182484, Note_off_c, 0, 75, 64
2, 182551, Control_c, 0, 64, 0
2, 182563, Note_on_c, 0, 75, 64
2, 182565, Note_on_c, 0, 66, 58
2, 182574, Note_on_c, 0, 60, 49
2, 182576, Note_on_c, 0, 56, 39
2, 182580, Note_off_c, 0, 74, 64
2, 182604, Control_c, 0, 64, 127
2, 182628, Note_off_c, 0, 66, 64
2, 182637, Note_off_c, 0, 60, 64
2, 182639, Note_off_c, 0, 56, 64
2, 182766, Note_on_c, 0, 73, 64
2, 182767, Note_on_c, 0, 49, 62
2, 182768, Note_off_c, 0, 75, 64
2, 182779, Control_c, 0, 64, 0
2, 182802, Control_c, 0, 64, 127
2, 182860, Note_on_c, 0, 77, 56
2, 182895, Note_off_c, 0, 73, 64
2, 182926, Note_on_c, 0, 65, 39
2, 182928, Note_off_c, 0, 49, 64
2, 182929, Note_on_c, 0, 56, 29
2, 182936, Note_on_c, 0, 61, 50
2, 182936, Control_c, 0, 64, 0
2, 182943, Note_on_c, 0, 79, 59
2, 182947, Note_off_c, 0, 77, 64
2, 182973, Control_c, 0, 64, 127
2, 182989, Note_off_c, 0, 65, 64
2, 182992, Note_off_c, 0, 56, 64
2, 182999, Note_off_c, 0, 61, 64
2, 183010, Note_on_c, 0, 82, 69
2, 183031, Note_off_c, 0, 79, 64
2, 183084, Control_c, 0, 64, 0
2, 183094, Note_on_c, 0, 80, 64
2, 183097, Note_on_c, 0, 65, 63
2, 183097, Note_on_c, 0, 56, 62
2, 183102, Note_off_c, 0, 82, 64
2, 183103, Note_on_c, 0, 61, 55
2, 183106, Control_c, 0, 64, 127
2, 183160, Note_off_c, 0, 56, 64
2, 183160, Note_off_c, 0, 65, 64
2, 183166, Note_off_c, 0, 61, 64
2, 183182, Note_on_c, 0, 77, 55
2, 183204, Note_off_c, 0, 80, 64
2, 183252, Note_on_c, 0, 46, 73
2, 183255, Control_c, 0, 64, 0
2, 183264, Note_on_c, 0, 73, 71
2, 183275, Note_off_c, 0, 77, 64
2, 183286, Control_c, 0, 64, 127
2, 183326, Note_on_c, 0, 76, 66
2, 183342, Note_off_c, 0, 73, 64
2, 183388, Note_on_c, 0, 79, 62
2, 183397, Note_on_c, 0, 65, 57
2, 183403, Note_on_c, 0, 61, 59
2, 183405, Note_on_c, 0, 56, 57
2, 183412, Note_off_c, 0, 76, 64
2, 183413, Note_off_c, 0, 46, 64
2, 183416, Note_on_c, 0, 77, 60
2, 183416, Control_c, 0, 64, 0
2, 183453, Control_c, 0, 64, 127
2, 183457, Note_off_c, 0, 79, 64
2, 183460, Note_off_c, 0, 65, 64
2, 183466, Note_off_c, 0, 61, 64
2, 183468, Note_off_c, 0, 56, 64
2, 183505, Note_on_c, 0, 76, 58
2, 183522, Note_off_c, 0, 77, 64
2, 183600, Note_on_c, 0, 65, 57
2, 183600, Note_on_c, 0, 61, 25
2, 183600, Control_c, 0, 64, 0
2, 183607, Note_on_c, 0, 77, 71
2, 183607, Note_on_c, 0, 56, 57
2, 183624, Note_off_c, 0, 76, 64
2, 183636, Control_c, 0, 64, 127
2, 183663, Note_off_c, 0, 61, 64
2, 183663, Note_off_c, 0, 65, 64
2, 183670, Note_off_c, 0, 56, 64
2, 183803, Control_c, 0, 64, 0
2, 183804, Note_off_c, 0, 77, 64
2, 183810, Note_on_c, 0, 51, 59
2, 183811, Note_on_c, 0, 67, 64
2, 183843, Control_c, 0, 64, 127
2, 183879, Note_on_c, 0, 68, 55
2, 183909, Note_off_c, 0, 67, 64
2, 183948, Control_c, 0, 64, 0
2, 183964, Note_on_c, 0, 70, 51
2, 183971, Note_off_c, 0, 51, 64
2, 183976, Note_on_c, 0, 63, 56
2, 183976, Note_on_c, 0, 61, 56
2, 183978, Note_on_c, 0, 55, 39
2, 183988, Note_off_c, 0, 68, 64
2, 183992, Control_c, 0, 64, 127
2, 184039, Note_off_c, 0, 61, 64
2, 184039, Note_off_c, 0, 63, 64
2, 184041, Note_off_c, 0, 55, 64
2, 184046, Note_on_c, 0, 72, 58
2, 184083, Note_off_c, 0, 70, 64
2, 184120, Note_on_c, 0, 61, 50
2, 184123, Note_on_c, 0, 63, 50
2, 184128, Note_on_c, 0, 73, 64
2, 184128, Note_on_c, 0, 55, 39
2, 184158, Note_off_c, 0, 72, 64
2, 184183, Note_off_c, 0, 61, 64
2, 184186, Note_off_c, 0, 63, 64
2, 184191, Note_off_c, 0, 55, 64
2, 184203, Note_on_c, 0, 71, 66
2, 184224, Note_off_c, 0, 73, 64
2, 184288, Control_c, 0, 64, 0
2, 184294, Note_on_c, 0, 72, 73
2, 184308, Note_on_c, 0, 44, 56
2, 184311, Note_off_c, 0, 71, 64
2, 184332, Control_c, 0, 64, 127
2, 184386, Note_on_c, 0, 62, 66
2, 184392, Note_off_c, 0, 72, 64
2, 184438, Note_on_c, 0, 65, 74
2, 184454, Note_on_c, 0, 60, 46
2, 184454, Note_on_c, 0, 51, 36
2, 184458, Note_off_c, 0, 62, 64
2, 184458, Note_on_c, 0, 56, 43
2, 184465, Control_c, 0, 64, 0
2, 184469, Note_off_c, 0, 44, 64
2, 184470, Note_on_c, 0, 63, 73
2, 184494, Note_off_c, 0, 65, 64
2, 184504, Control_c, 0, 64, 127
2, 184517, Note_off_c, 0, 51, 64
2, 184517, Note_off_c, 0, 60, 64
2, 184521, Note_off_c, 0, 56, 64
2, 184544, Note_on_c, 0, 62, 70
2, 184570, Note_off_c, 0, 63, 64
2, 184623, Note_on_c, 0, 63, 73
2, 184635, Note_on_c, 0, 51, 49
2, 184638, Note_on_c, 0, 60, 50
2, 184639, Note_on_c, 0, 56, 48
2, 184652, Note_off_c, 0, 62, 64
2, 184698, Note_off_c, 0, 51, 64
2, 184701, Note_off_c, 0, 60, 64
2, 184702, Note_off_c, 0, 56, 64
2, 184816, Control_c, 0, 64, 0
2, 184824, Note_on_c, 0, 70, 64
2, 184824, Note_on_c, 0, 67, 62
2, 184831, Note_on_c, 0, 39, 73
2, 184857, Control_c, 0, 64, 127
2, 184862, Note_off_c, 0, 63, 64
2, 184904, Note_on_c, 0, 72, 64
2, 184906, Note_on_c, 0, 68, 73
2, 184912, Note_off_c, 0, 67, 64
2, 184918, Note_off_c, 0, 70, 64
2, 184983, Control_c, 0, 64, 0
2, 184992, Note_off_c, 0, 68, 64
2, 184992, Note_on_c, 0, 73, 59
2, 184992, Note_on_c, 0, 70, 62
2, 184996, Note_on_c, 0, 61, 39
2, 184996, Note_on_c, 0, 51, 41
2, 184998, Note_off_c, 0, 72, 64
2, 184999, Note_on_c, 0, 63, 52
2, 185018, Control_c, 0, 64, 127
2, 185024, Note_off_c, 0, 39, 64
2, 185059, Note_off_c, 0, 51, 64
2, 185059, Note_off_c, 0, 61, 64
2, 185062, Note_off_c, 0, 63, 64
2, 185065, Note_on_c, 0, 75, 41
2, 185065, Note_on_c, 0, 72, 67
2, 185082, Note_off_c, 0, 70, 64
2, 185082, Note_off_c, 0, 73, 64
2, 185136, Note_on_c, 0, 77, 62
2, 185136, Note_on_c, 0, 73, 46
2, 185140, Note_on_c, 0, 63, 62
2, 185143, Note_on_c, 0, 61, 62
2, 185148, Note_on_c, 0, 51, 33
2, 185162, Note_off_c, 0, 72, 64
2, 185162, Note_off_c, 0, 75, 64
2, 185203, Note_off_c, 0, 63, 64
2, 185206, Note_off_c, 0, 61, 64
2, 185211, Note_off_c, 0, 51, 64
2, 185224, Note_on_c, 0, 74, 64
2, 185224, Note_on_c, 0, 71, 77
2, 185251, Note_off_c, 0, 73, 64
2, 185251, Note_off_c, 0, 77, 64
2, 185317, Control_c, 0, 64, 0
2, 185320, Note_on_c, 0, 72, 50
2, 185323, Note_on_c, 0, 75, 73
2, 185323, Note_on_c, 0, 44, 63
2, 185325, Note_off_c, 0, 71, 64
2, 185325, Note_off_c, 0, 74, 64
2, 185362, Control_c, 0, 64, 127
2, 185446, Note_on_c, 0, 62, 73
2, 185453, Note_off_c, 0, 72, 64
2, 185456, Note_off_c, 0, 75, 64
2, 185473, Note_on_c, 0, 65, 49
2, 185484, Note_off_c, 0, 44, 64
2, 185500, Note_off_c, 0, 62, 64
2, 185508, Note_on_c, 0, 60, 44
2, 185513, Note_on_c, 0, 63, 73
2, 185513, Note_on_c, 0, 51, 47
2, 185518, Note_on_c, 0, 56, 52
2, 185525, Control_c, 0, 64, 0
2, 185541, Note_off_c, 0, 65, 64
2, 185571, Note_off_c, 0, 60, 64
2, 185576, Note_off_c, 0, 51, 64
2, 185576, Control_c, 0, 64, 127
2, 185581, Note_off_c, 0, 56, 64
2, 185627, Note_on_c, 0, 62, 69
2, 185643, Note_off_c, 0, 63, 64
2, 185718, Note_on_c, 0, 63, 66
2, 185719, Note_on_c, 0, 60, 65
2, 185724, Note_on_c, 0, 51, 42
2, 185725, Note_on_c, 0, 56, 50
2, 185731, Control_c, 0, 64, 0
2, 185755, Note_off_c, 0, 62, 64
2, 185768, Control_c, 0, 64, 127
2, 185782, Note_off_c, 0, 60, 64
2, 185787, Note_off_c, 0, 51, 64
2, 185788, Note_off_c, 0, 56, 64
2, 185885, Control_c, 0, 64, 0
2, 185974, Note_on_c, 0, 68, 77
2, 185974, Note_on_c, 0, 32, 71
2, 185988, Control_c, 0, 64, 0
2, 186034, Control_c, 0, 64, 127
2, 186035, Note_off_c, 0, 63, 64
2, 186078, Note_on_c, 0, 72, 66
2, 186103, Note_off_c, 0, 68, 64
2, 186135, Note_off_c, 0, 32, 64
2, 186168, Note_on_c, 0, 63, 44
2, 186168, Note_on_c, 0, 60, 46
2, 186170, Note_on_c, 0, 75, 66
2, 186173, Note_on_c, 0, 51, 46
2, 186190, Control_c, 0, 64, 0
2, 186196, Note_off_c, 0, 72, 64
2, 186206, Control_c, 0, 64, 127
2, 186231, Note_off_c, 0, 60, 64
2, 186231, Note_off_c, 0, 63, 64
2, 186236, Note_off_c, 0, 51, 64
2, 186243, Note_on_c, 0, 76, 56
2, 186296, Note_off_c, 0, 75, 64
2, 186330, Note_on_c, 0, 77, 63
2, 186330, Note_on_c, 0, 63, 62
2, 186335, Note_on_c, 0, 61, 56
2, 186338, Note_on_c, 0, 51, 59
2, 186353, Note_off_c, 0, 76, 64
2, 186393, Note_off_c, 0, 63, 64
2, 186396, Note_on_c, 0, 67, 70
2, 186398, Note_off_c, 0, 61, 64
2, 186401, Note_off_c, 0, 51, 64
2, 186434, Note_off_c, 0, 77, 64
2, 186477, Note_on_c, 0, 44, 71
2, 186480, Note_on_c, 0, 68, 77
2, 186490, Control_c, 0, 64, 0
2, 186506, Note_off_c, 0, 67, 64
2, 186514, Control_c, 0, 64, 127
2, 186554, Note_on_c, 0, 72, 63
2, 186575, Note_off_c, 0, 68, 64
2, 186588, Note_on_c, 0, 77, 62
2, 186617, Note_off_c, 0, 72, 64
2, 186625, Note_on_c, 0, 66, 59
2, 186629, Note_on_c, 0, 56, 46
2, 186629, Control_c, 0, 64, 0
2, 186637, Note_on_c, 0, 75, 74
2, 186638, Note_off_c, 0, 44, 64
2, 186639, Note_on_c, 0, 60, 49
2, 186654, Note_off_c, 0, 77, 64
2, 186685, Control_c, 0, 64, 127
2, 186688, Note_off_c, 0, 66, 64
2, 186692, Note_off_c, 0, 56, 64
2, 186702, Note_off_c, 0, 60, 64
2, 186713, Note_on_c, 0, 74, 69
2, 186735, Note_off_c, 0, 75, 64
2, 186800, Note_on_c, 0, 60, 49
2, 186800, Note_on_c, 0, 56, 46
2, 186803, Control_c, 0, 64, 0
2, 186808, Note_on_c, 0, 75, 74
2, 186815, Note_on_c, 0, 66, 62
2, 186831, Note_off_c, 0, 74, 64
2, 186851, Control_c, 0, 64, 127
2, 186863, Note_off_c, 0, 56, 64
2, 186863, Note_off_c, 0, 60, 64
2, 186878, Note_off_c, 0, 66, 64
2, 186985, Note_on_c, 0, 49, 57
2, 186991, Note_on_c, 0, 73, 73
2, 186999, Note_off_c, 0, 75, 64
2, 187001, Control_c, 0, 64, 0
2, 187034, Control_c, 0, 64, 127
2, 187078, Note_on_c, 0, 77, 56
2, 187108, Note_off_c, 0, 73, 64
2, 187143, Note_on_c, 0, 56, 47
2, 187146, Note_off_c, 0, 49, 64
2, 187152, Note_on_c, 0, 65, 58
2, 187153, Note_on_c, 0, 61, 50
2, 187164, Control_c, 0, 64, 0
2, 187169, Note_on_c, 0, 79, 73
2, 187179, Control_c, 0, 64, 127
2, 187189, Note_off_c, 0, 77, 64
2, 187206, Note_off_c, 0, 56, 64
2, 187215, Note_off_c, 0, 65, 64
2, 187216, Note_off_c, 0, 61, 64
2, 187228, Note_on_c, 0, 82, 73
2, 187241, Note_off_c, 0, 79, 64
2, 187302, Note_on_c, 0, 80, 73
2, 187305, Note_on_c, 0, 65, 55
2, 187312, Note_on_c, 0, 61, 33
2, 187312, Note_on_c, 0, 56, 39
2, 187317, Note_off_c, 0, 82, 64
2, 187368, Note_off_c, 0, 65, 64
2, 187375, Note_off_c, 0, 56, 64
2, 187375, Note_off_c, 0, 61, 64
2, 187386, Note_on_c, 0, 77, 73
2, 187405, Note_off_c, 0, 80, 64
2, 187439, Note_on_c, 0, 46, 73
2, 187450, Control_c, 0, 64, 0
2, 187456, Note_on_c, 0, 73, 69
2, 187464, Control_c, 0, 64, 127
2, 187480, Note_off_c, 0, 77, 64
2, 187516, Note_on_c, 0, 76, 62
2, 187527, Note_off_c, 0, 73, 64
2, 187557, Note_on_c, 0, 79, 57
2, 187580, Note_on_c, 0, 56, 58
2, 187584, Note_on_c, 0, 61, 63
2, 187585, Note_on_c, 0, 65, 57
2, 187588, Note_off_c, 0, 76, 64
2, 187592, Note_on_c, 0, 77, 64
2, 187598, Control_c, 0, 64, 0
2, 187600, Note_off_c, 0, 46, 64
2, 187639, Note_off_c, 0, 79, 64
2, 187643, Note_off_c, 0, 56, 64
2, 187647, Note_off_c, 0, 61, 64
2, 187648, Note_off_c, 0, 65, 64
2, 187691, Note_on_c, 0, 76, 63
2, 187705, Note_off_c, 0, 77, 64
2, 187714, Control_c, 0, 64, 127
2, 187773, Note_on_c, 0, 65, 62
2, 187780, Note_on_c, 0, 61, 50
2, 187780, Note_on_c, 0, 56, 51
2, 187787, Note_on_c, 0, 77, 74
2, 187803, Note_off_c, 0, 76, 64
2, 187836, Note_off_c, 0, 65, 64
2, 187843, Note_off_c, 0, 56, 64
2, 187843, Note_off_c, 0, 61, 64
2, 187954, Control_c, 0, 64, 0
2, 187960, Note_on_c, 0, 51, 59
2, 187968, Note_on_c, 0, 67, 63
2, 187972, Note_off_c, 0, 77, 64
2, 188002, Control_c, 0, 64, 127
2, 188032, Note_on_c, 0, 68, 67
2, 188061, Note_off_c, 0, 67, 64
2, 188089, Control_c, 0, 64, 0
2, 188107, Note_on_c, 0, 63, 57
2, 188107, Note_on_c, 0, 61, 52
2, 188112, Note_on_c, 0, 55, 49
2, 188121, Note_off_c, 0, 51, 64
2, 188121, Note_on_c, 0, 70, 55
2, 188130, Control_c, 0, 64, 127
2, 188137, Note_off_c, 0, 68, 64
2, 188170, Note_off_c, 0, 61, 64
2, 188170, Note_off_c, 0, 63, 64
2, 188175, Note_off_c, 0, 55, 64
2, 188189, Note_on_c, 0, 72, 59
2, 188196, Note_off_c, 0, 70, 64
2, 188256, Note_on_c, 0, 63, 49
2, 188256, Note_on_c, 0, 61, 40
2, 188258, Note_on_c, 0, 55, 49
2, 188265, Note_on_c, 0, 73, 69
2, 188286, Note_off_c, 0, 72, 64
2, 188319, Note_off_c, 0, 61, 64
2, 188319, Note_off_c, 0, 63, 64
2, 188321, Note_off_c, 0, 55, 64
2, 188326, Note_on_c, 0, 71, 62
2, 188348, Note_off_c, 0, 73, 64
2, 188402, Control_c, 0, 64, 0
2, 188409, Note_on_c, 0, 44, 67
2, 188413, Note_on_c, 0, 72, 64
2, 188432, Note_off_c, 0, 71, 64
2, 188448, Control_c, 0, 64, 127
2, 188504, Note_on_c, 0, 62, 62
2, 188533, Note_off_c, 0, 72, 64
2, 188544, Note_on_c, 0, 65, 74
2, 188559, Note_off_c, 0, 62, 64
2, 188560, Control_c, 0, 64, 0
2, 188567, Note_on_c, 0, 56, 49
2, 188568, Note_on_c, 0, 51, 33
2, 188569, Note_on_c, 0, 60, 48
2, 188570, Note_off_c, 0, 44, 64
2, 188579, Note_on_c, 0, 63, 73
2, 188605, Note_off_c, 0, 65, 64
2, 188615, Control_c, 0, 64, 127
2, 188630, Note_off_c, 0, 56, 64
2, 188631, Note_off_c, 0, 51, 64
2, 188632, Note_off_c, 0, 60, 64
2, 188650, Note_on_c, 0, 62, 74
2, 188666, Note_off_c, 0, 63, 64
2, 188717, Note_on_c, 0, 51, 41
2, 188727, Note_on_c, 0, 63, 82
2, 188731, Note_on_c, 0, 60, 40
2, 188732, Note_on_c, 0, 56, 23
2, 188740, Note_off_c, 0, 62, 64
2, 188780, Note_off_c, 0, 51, 64
2, 188794, Note_off_c, 0, 60, 64
2, 188795, Note_off_c, 0, 56, 64
2, 188906, Note_on_c, 0, 39, 57
2, 188915, Note_on_c, 0, 70, 69
2, 188915, Note_on_c, 0, 67, 60
2, 188932, Note_off_c, 0, 63, 64
2, 188992, Note_on_c, 0, 72, 69
2, 188998, Note_on_c, 0, 68, 73
2, 189013, Note_off_c, 0, 67, 64
2, 189013, Note_off_c, 0, 70, 64
2, 189067, Note_off_c, 0, 39, 64
2, 189075, Control_c, 0, 64, 0
2, 189084, Note_on_c, 0, 70, 66
2, 189087, Note_on_c, 0, 73, 60
2, 189092, Note_on_c, 0, 63, 46
2, 189092, Note_on_c, 0, 61, 58
2, 189092, Note_on_c, 0, 51, 57
2, 189100, Note_off_c, 0, 72, 64
2, 189106, Note_off_c, 0, 68, 64
2, 189118, Control_c, 0, 64, 127
2, 189155, Note_off_c, 0, 51, 64
2, 189155, Note_off_c, 0, 61, 64
2, 189155, Note_off_c, 0, 63, 64
2, 189164, Note_on_c, 0, 72, 69
2, 189168, Note_off_c, 0, 70, 64
2, 189168, Note_on_c, 0, 75, 69
2, 189171, Note_off_c, 0, 73, 64
2, 189240, Note_on_c, 0, 77, 66
2, 189240, Note_on_c, 0, 73, 66
2, 189240, Note_on_c, 0, 63, 59
2, 189240, Note_on_c, 0, 61, 62
2, 189240, Note_on_c, 0, 51, 57
2, 189262, Note_off_c, 0, 72, 64
2, 189266, Note_off_c, 0, 75, 64
2, 189303, Note_off_c, 0, 51, 64
2, 189303, Note_off_c, 0, 61, 64
2, 189303, Note_off_c, 0, 63, 64
2, 189312, Note_on_c, 0, 74, 43
2, 189315, Note_on_c, 0, 71, 67
2, 189326, Note_off_c, 0, 73, 64
2, 189332, Note_off_c, 0, 77, 64
2, 189391, Note_on_c, 0, 44, 54
2, 189392, Note_on_c, 0, 75, 65
2, 189394, Note_off_c, 0, 71, 64
2, 189399, Note_off_c, 0, 74, 64
2, 189399, Note_on_c, 0, 72, 64
2, 189406, Control_c, 0, 64, 0
2, 189445, Control_c, 0, 64, 127
2, 189493, Note_off_c, 0, 72, 64
2, 189501, Note_off_c, 0, 75, 64
2, 189516, Note_on_c, 0, 62, 71
2, 189550, Note_on_c, 0, 65, 64
2, 189552, Note_off_c, 0, 44, 64
2, 189588, Note_off_c, 0, 62, 64
2, 189588, Note_on_c, 0, 60, 46
2, 189590, Control_c, 0, 64, 0
2, 189592, Note_on_c, 0, 51, 29
2, 189596, Note_on_c, 0, 63, 63
2, 189596, Note_on_c, 0, 56, 56
2, 189628, Note_off_c, 0, 65, 64
2, 189642, Control_c, 0, 64, 127
2, 189651, Note_off_c, 0, 60, 64
2, 189655, Note_off_c, 0, 51, 64
2, 189659, Note_off_c, 0, 56, 64
2, 189681, Note_on_c, 0, 62, 69
2, 189699, Note_off_c, 0, 63, 64
2, 189768, Note_on_c, 0, 56, 46
2, 189769, Note_on_c, 0, 63, 65
2, 189775, Note_on_c, 0, 60, 51
2, 189777, Note_on_c, 0, 51, 57
2, 189790, Control_c, 0, 64, 0
2, 189799, Note_off_c, 0, 62, 64
2, 189838, Note_off_c, 0, 60, 64
2, 189840, Note_off_c, 0, 51, 64
2, 189844, Control_c, 0, 64, 127
2, 190010, Note_on_c, 0, 65, 63
2, 190020, Note_on_c, 0, 49, 56
2, 190050, Control_c, 0, 64, 0
2, 190113, Control_c, 0, 64, 127
2, 190241, Note_on_c, 0, 58, 50
2, 190242, Note_on_c, 0, 61, 55
2, 190265, Note_off_c, 0, 56, 64
2, 190266, Note_off_c, 0, 63, 64
2, 190270, Control_c, 0, 64, 0
2, 190310, Control_c, 0, 64, 127
2, 190427, Note_on_c, 0, 51, 58
2, 190432, Note_on_c, 0, 67, 56
2, 190442, Note_off_c, 0, 49, 64
2, 190442, Control_c, 0, 64, 0
2, 190455, Note_off_c, 0, 65, 64
2, 190490, Control_c, 0, 64, 127
2, 190617, Note_on_c, 0, 60, 62
2, 190617, Control_c, 0, 64, 0
2, 190624, Note_on_c, 0, 44, 62
2, 190633, Note_off_c, 0, 58, 64
2, 190634, Note_off_c, 0, 61, 64
2, 190654, Control_c, 0, 64, 127
2, 190744, Note_off_c, 0, 44, 64
2, 190746, Note_off_c, 0, 51, 64
2, 190747, Note_off_c, 0, 67, 64
2, 190751, Note_on_c, 0, 68, 62
2, 190799, Note_off_c, 0, 68, 64
2, 190811, Note_on_c, 0, 68, 70
2, 190888, Note_on_c, 0, 70, 64
2, 190918, Note_off_c, 0, 68, 64
2, 190980, Note_on_c, 0, 72, 65
2, 190980, Note_on_c, 0, 66, 62
2, 190980, Note_on_c, 0, 63, 55
2, 190987, Note_on_c, 0, 56, 56
2, 190990, Control_c, 0, 64, 0
2, 191000, Note_off_c, 0, 70, 64
2, 191000, Note_off_c, 0, 60, 64
2, 191037, Control_c, 0, 64, 127
2, 191158, Note_off_c, 0, 63, 64
2, 191168, Note_on_c, 0, 65, 62
2, 191174, Note_on_c, 0, 49, 59
2, 191188, Control_c, 0, 64, 0
2, 191224, Note_off_c, 0, 66, 64
2, 191231, Control_c, 0, 64, 127
2, 191266, Note_on_c, 0, 73, 58
2, 191283, Note_off_c, 0, 72, 64
2, 191357, Note_on_c, 0, 72, 69
2, 191359, Note_off_c, 0, 73, 64
2, 191496, Note_off_c, 0, 56, 64
2, 191509, Note_off_c, 0, 49, 64
2, 191534, Note_on_c, 0, 51, 58
2, 191540, Note_on_c, 0, 67, 50
2, 191543, Note_on_c, 0, 61, 57
2, 191550, Control_c, 0, 64, 0
2, 191559, Note_off_c, 0, 65, 64
2, 191586, Control_c, 0, 64, 127
2, 191606, Note_off_c, 0, 72, 64
2, 191625, Note_on_c, 0, 70, 58
2, 191712, Note_off_c, 0, 51, 64
2, 191720, Note_on_c, 0, 56, 56
2, 191721, Note_off_c, 0, 61, 64
2, 191724, Note_on_c, 0, 65, 55
2, 191726, Note_off_c, 0, 67, 64
2, 191726, Note_on_c, 0, 73, 50
2, 191736, Control_c, 0, 64, 0
2, 191746, Note_off_c, 0, 70, 64
2, 191766, Control_c, 0, 64, 127
2, 191824, Note_on_c, 0, 72, 50
2, 191829, Note_on_c, 0, 63, 62
2, 191839, Note_off_c, 0, 65, 64
2, 191841, Note_off_c, 0, 73, 64
2, 191884, Note_off_c, 0, 72, 64
2, 191889, Note_off_c, 0, 63, 64
2, 191900, Note_on_c, 0, 73, 69
2, 191923, Note_on_c, 0, 63, 56
2, 191926, Note_on_c, 0, 72, 66
2, 191947, Control_c, 0, 64, 0
2, 191954, Note_off_c, 0, 73, 64
2, 191984, Control_c, 0, 64, 127
2, 192005, Note_on_c, 0, 62, 52
2, 192013, Note_off_c, 0, 63, 64
2, 192016, Note_on_c, 0, 71, 65
2, 192043, Note_off_c, 0, 72, 64
2, 192127, Note_on_c, 0, 72, 64
2, 192131, Note_on_c, 0, 63, 64
2, 192142, Control_c, 0, 64, 0
2, 192150, Note_off_c, 0, 62, 64
2, 192161, Note_off_c, 0, 71, 64
2, 192200, Control_c, 0, 64, 127
2, 192206, Note_off_c, 0, 56, 64
2, 192362, Note_on_c, 0, 65, 63
2, 192365, Note_on_c, 0, 49, 56
2, 192376, Note_off_c, 0, 72, 64
2, 192388, Control_c, 0, 64, 0
2, 192464, Control_c, 0, 64, 127
2, 192558, Note_on_c, 0, 61, 46
2, 192566, Note_on_c, 0, 58, 49
2, 192576, Note_off_c, 0, 63, 64
2, 192602, Control_c, 0, 64, 0
2, 192612, Control_c, 0, 64, 127
2, 192755, Note_on_c, 0, 67, 62
2, 192765, Control_c, 0, 64, 0
2, 192771, Note_on_c, 0, 51, 29
2, 192775, Note_off_c, 0, 65, 64
2, 192778, Note_off_c, 0, 49, 64
2, 192824, Control_c, 0, 64, 127
2, 192923, Note_on_c, 0, 44, 63
2, 192929, Note_on_c, 0, 60, 62
2, 192929, Control_c, 0, 64, 0
2, 192969, Control_c, 0, 64, 127
2, 192978, Note_off_c, 0, 61, 64
2, 192986, Note_off_c, 0, 58, 64
2, 193044, Note_on_c, 0, 68, 71
2, 193059, Note_off_c, 0, 67, 64
2, 193089, Note_off_c, 0, 68, 64
2, 193114, Note_on_c, 0, 68, 62
2, 193150, Note_off_c, 0, 44, 64
2, 193158, Note_off_c, 0, 51, 64
2, 193192, Note_on_c, 0, 70, 58
2, 193213, Note_off_c, 0, 68, 64
2, 193288, Note_on_c, 0, 44, 59
2, 193294, Note_on_c, 0, 72, 67
2, 193296, Note_on_c, 0, 62, 73
2, 193303, Note_off_c, 0, 70, 64
2, 193303, Note_on_c, 0, 53, 58
2, 193305, Control_c, 0, 64, 0
2, 193317, Note_off_c, 0, 60, 64
2, 193347, Control_c, 0, 64, 127
2, 193488, Note_on_c, 0, 63, 67
2, 193500, Control_c, 0, 64, 0
2, 193505, Note_on_c, 0, 55, 47
2, 193505, Note_on_c, 0, 43, 48
2, 193522, Note_off_c, 0, 44, 64
2, 193527, Control_c, 0, 64, 127
2, 193530, Note_off_c, 0, 62, 64
2, 193537, Note_off_c, 0, 53, 64
2, 193597, Note_off_c, 0, 72, 64
2, 193598, Note_on_c, 0, 74, 62
2, 193700, Note_on_c, 0, 71, 59
2, 193706, Note_on_c, 0, 62, 65
2, 193708, Note_off_c, 0, 74, 64
2, 193723, Control_c, 0, 64, 0
2, 193728, Note_off_c, 0, 63, 64
2, 193756, Control_c, 0, 64, 127
2, 193791, Note_off_c, 0, 62, 64
2, 193879, Note_off_c, 0, 43, 64
2, 193879, Note_off_c, 0, 55, 64
2, 193904, Note_on_c, 0, 65, 64
2, 193906, Note_on_c, 0, 62, 47
2, 193911, Note_on_c, 0, 55, 55
2, 193920, Control_c, 0, 64, 0
2, 193956, Control_c, 0, 64, 127
2, 194011, Note_on_c, 0, 67, 56
2, 194022, Note_off_c, 0, 62, 64
2, 194024, Note_off_c, 0, 65, 64
2, 194028, Note_off_c, 0, 55, 64
2, 194120, Note_on_c, 0, 55, 32
2, 194120, Note_on_c, 0, 48, 41
2, 194122, Note_on_c, 0, 63, 74
2, 194124, Note_off_c, 0, 67, 64
2, 194126, Note_on_c, 0, 74, 59
2, 194132, Note_off_c, 0, 71, 64
2, 194146, Control_c, 0, 64, 0
2, 194178, Control_c, 0, 64, 127
2, 194243, Note_on_c, 0, 75, 58
2, 194260, Note_off_c, 0, 74, 64
2, 194300, Note_on_c, 0, 50, 64
2, 194306, Note_off_c, 0, 48, 64
2, 194319, Note_off_c, 0, 63, 64
2, 194374, Note_on_c, 0, 53, 41
2, 194381, Note_on_c, 0, 72, 59
2, 194384, Note_off_c, 0, 75, 64
2, 194385, Note_on_c, 0, 63, 56
2, 194393, Note_off_c, 0, 50, 64
2, 194426, Control_c, 0, 64, 0
2, 194490, Control_c, 0, 64, 127
2, 194617, Note_on_c, 0, 51, 62
2, 194643, Note_off_c, 0, 53, 64
2, 194654, Control_c, 0, 64, 0
2, 194677, Control_c, 0, 64, 127
2, 194678, Note_off_c, 0, 55, 64
2, 194688, Note_off_c, 0, 72, 64
2, 194721, Note_on_c, 0, 50, 41
2, 194741, Note_off_c, 0, 51, 64
2, 194859, Note_on_c, 0, 49, 65
2, 194866, Note_on_c, 0, 65, 63
2, 194872, Note_off_c, 0, 50, 64
2, 194875, Note_off_c, 0, 63, 64
2, 194896, Control_c, 0, 64, 0
2, 194979, Control_c, 0, 64, 127
2, 195084, Note_on_c, 0, 61, 55
2, 195084, Note_on_c, 0, 58, 50
2, 195107, Control_c, 0, 64, 0
2, 195170, Control_c, 0, 64, 127
2, 195274, Note_on_c, 0, 51, 57
2, 195278, Note_on_c, 0, 67, 56
2, 195289, Control_c, 0, 64, 0
2, 195292, Note_off_c, 0, 49, 64
2, 195292, Note_off_c, 0, 65, 64
2, 195357, Control_c, 0, 64, 127
2, 195454, Note_on_c, 0, 44, 55
2, 195461, Note_on_c, 0, 60, 64
2, 195486, Note_off_c, 0, 58, 64
2, 195486, Note_off_c, 0, 61, 64
2, 195576, Note_on_c, 0, 68, 58
2, 195583, Note_off_c, 0, 67, 64
2, 195602, Control_c, 0, 64, 0
2, 195630, Note_off_c, 0, 68, 64
2, 195640, Note_on_c, 0, 68, 64
2, 195661, Control_c, 0, 64, 127
2, 195704, Note_off_c, 0, 51, 64
2, 195708, Note_off_c, 0, 44, 64
2, 195733, Note_on_c, 0, 70, 64
2, 195759, Note_off_c, 0, 68, 64
2, 195824, Note_on_c, 0, 72, 64
2, 195828, Note_on_c, 0, 66, 46
2, 195828, Note_on_c, 0, 63, 47
2, 195834, Note_off_c, 0, 70, 64
2, 195835, Note_on_c, 0, 56, 50
2, 195844, Control_c, 0, 64, 0
2, 195845, Note_off_c, 0, 60, 64
2, 195901, Control_c, 0, 64, 127
2, 196023, Note_on_c, 0, 65, 55
2, 196027, Note_on_c, 0, 49, 55
2, 196034, Control_c, 0, 64, 0
2, 196074, Note_off_c, 0, 66, 64
2, 196076, Note_off_c, 0, 63, 64
2, 196087, Control_c, 0, 64, 127
2, 196109, Note_on_c, 0, 73, 62
2, 196121, Note_off_c, 0, 72, 64
2, 196204, Control_c, 0, 64, 0
2, 196210, Note_on_c, 0, 72, 71
2, 196226, Note_off_c, 0, 73, 64
2, 196240, Note_off_c, 0, 65, 64
2, 196250, Control_c, 0, 64, 127
2, 196384, Note_on_c, 0, 51, 58
2, 196388, Control_c, 0, 64, 0
2, 196392, Note_off_c, 0, 56, 64
2, 196394, Note_on_c, 0, 61, 57
2, 196395, Note_on_c, 0, 67, 49
2, 196403, Note_off_c, 0, 49, 64
2, 196439, Control_c, 0, 64, 127
2, 196484, Note_on_c, 0, 70, 47
2, 196498, Note_off_c, 0, 72, 64
2, 196551, Note_off_c, 0, 51, 64
2, 196561, Note_off_c, 0, 61, 64
2, 196562, Note_off_c, 0, 67, 64
2, 196584, Control_c, 0, 64, 0
2, 196592, Note_on_c, 0, 56, 48
2, 196596, Note_on_c, 0, 73, 62
2, 196596, Note_on_c, 0, 65, 42
2, 196615, Note_off_c, 0, 70, 64
2, 196629, Control_c, 0, 64, 127
2, 196688, Note_on_c, 0, 63, 62
2, 196694, Note_on_c, 0, 72, 39
2, 196720, Note_off_c, 0, 65, 64
2, 196720, Note_off_c, 0, 73, 64
2, 196746, Note_off_c, 0, 63, 64
2, 196752, Note_off_c, 0, 72, 64
2, 196768, Note_on_c, 0, 73, 62
2, 196796, Note_on_c, 0, 63, 55
2, 196800, Note_on_c, 0, 72, 57
2, 196822, Note_off_c, 0, 73, 64
2, 196890, Note_on_c, 0, 71, 58
2, 196890, Note_on_c, 0, 62, 51
2, 196901, Note_off_c, 0, 72, 64
2, 196902, Note_off_c, 0, 63, 64
2, 196928, Control_c, 0, 64, 0
2, 196996, Note_on_c, 0, 72, 54
2, 197000, Note_on_c, 0, 63, 47
2, 197008, Note_off_c, 0, 71, 64
2, 197026, Control_c, 0, 64, 127
2, 197029, Note_off_c, 0, 62, 64
2, 197125, Note_off_c, 0, 56, 64
2, 197269, Note_on_c, 0, 49, 55
2, 197271, Note_on_c, 0, 65, 63
2, 197291, Note_off_c, 0, 72, 64
2, 197299, Control_c, 0, 64, 0
2, 197362, Control_c, 0, 64, 127
2, 197480, Note_on_c, 0, 61, 51
2, 197480, Note_on_c, 0, 58, 48
2, 197512, Note_off_c, 0, 63, 64
2, 197526, Control_c, 0, 64, 0
2, 197567, Control_c, 0, 64, 127
2, 197664, Note_on_c, 0, 51, 35
2, 197670, Note_on_c, 0, 67, 52
2, 197693, Note_off_c, 0, 65, 64
2, 197696, Note_off_c, 0, 49, 64
2, 197701, Control_c, 0, 64, 0
2, 197776, Control_c, 0, 64, 127
2, 197844, Note_on_c, 0, 60, 54
2, 197844, Note_on_c, 0, 44, 57
2, 197866, Note_off_c, 0, 58, 64
2, 197866, Note_off_c, 0, 61, 64
2, 197964, Note_on_c, 0, 68, 65
2, 197970, Note_off_c, 0, 67, 64
2, 198001, Note_off_c, 0, 68, 64
2, 198021, Note_on_c, 0, 68, 58
2, 198030, Note_off_c, 0, 51, 64
2, 198031, Note_off_c, 0, 44, 64
2, 198095, Note_on_c, 0, 70, 57
2, 198116, Note_off_c, 0, 68, 64
2, 198187, Control_c, 0, 64, 0
2, 198192, Note_on_c, 0, 53, 49
2, 198192, Note_on_c, 0, 44, 49
2, 198196, Note_on_c, 0, 72, 67
2, 198196, Note_on_c, 0, 62, 58
2, 198216, Note_off_c, 0, 70, 64
2, 198218, Note_off_c, 0, 60, 64
2, 198244, Control_c, 0, 64, 127
2, 198368, Note_on_c, 0, 55, 49
2, 198376, Note_on_c, 0, 63, 63
2, 198383, Note_on_c, 0, 43, 50
2, 198384, Note_off_c, 0, 44, 64
2, 198384, Note_off_c, 0, 53, 64
2, 198385, Control_c, 0, 64, 0
2, 198388, Note_off_c, 0, 62, 64
2, 198403, Control_c, 0, 64, 0
2, 198420, Control_c, 0, 64, 127
2, 198472, Note_on_c, 0, 74, 63
2, 198490, Note_off_c, 0, 72, 64
2, 198563, Note_on_c, 0, 71, 56
2, 198571, Note_on_c, 0, 62, 67
2, 198574, Note_off_c, 0, 74, 64
2, 198577, Control_c, 0, 64, 0
2, 198591, Note_off_c, 0, 63, 64
2, 198607, Control_c, 0, 64, 127
2, 198740, Note_off_c, 0, 62, 64
2, 198746, Note_off_c, 0, 55, 64
2, 198760, Note_on_c, 0, 65, 55
2, 198760, Note_on_c, 0, 55, 46
2, 198761, Note_off_c, 0, 43, 64
2, 198767, Note_on_c, 0, 62, 41
2, 198857, Note_on_c, 0, 67, 58
2, 198872, Note_off_c, 0, 65, 64
2, 198884, Note_off_c, 0, 71, 64
2, 198960, Note_off_c, 0, 62, 64
2, 198960, Note_off_c, 0, 55, 64
2, 198976, Note_on_c, 0, 55, 46
2, 198976, Note_on_c, 0, 48, 44
2, 198978, Note_on_c, 0, 74, 62
2, 198983, Control_c, 0, 64, 127
2, 198986, Note_on_c, 0, 63, 58
2, 198990, Control_c, 0, 64, 0
2, 199012, Note_off_c, 0, 67, 64
2, 199056, Control_c, 0, 64, 127
2, 199072, Note_on_c, 0, 75, 58
2, 199101, Note_off_c, 0, 74, 64
2, 199178, Control_c, 0, 64, 0
2, 199186, Control_c, 0, 64, 0
2, 199193, Note_on_c, 0, 72, 64
2, 199200, Note_off_c, 0, 75, 64
2, 199210, Control_c, 0, 64, 127
2, 199224, Control_c, 0, 64, 127
2, 199361, Note_off_c, 0, 48, 64
2, 199361, Note_off_c, 0, 55, 64
2, 199371, Note_off_c, 0, 63, 64
2, 199415, Note_on_c, 0, 63, 64
2, 199421, Note_on_c, 0, 55, 46
2, 199422, Note_on_c, 0, 48, 43
2, 199429, Control_c, 0, 64, 0
2, 199458, Control_c, 0, 64, 127
2, 199488, Note_off_c, 0, 72, 64
2, 199511, Note_on_c, 0, 75, 66
2, 199571, Note_off_c, 0, 75, 64
2, 199604, Control_c, 0, 64, 0
2, 199622, Note_on_c, 0, 75, 71
2, 199630, Control_c, 0, 64, 127
2, 199727, Control_c, 0, 64, 0
2, 199771, Note_off_c, 0, 63, 64
2, 199777, Note_off_c, 0, 55, 64
2, 199778, Note_off_c, 0, 48, 64
2, 199824, Note_on_c, 0, 59, 40
2, 199824, Note_on_c, 0, 55, 47
2, 199824, Note_on_c, 0, 48, 50
2, 199831, Note_on_c, 0, 65, 64
2, 199844, Control_c, 0, 64, 0
2, 199884, Control_c, 0, 64, 127
2, 199927, Note_on_c, 0, 67, 55
2, 199940, Note_off_c, 0, 65, 64
2, 200018, Note_off_c, 0, 48, 64
2, 200018, Note_off_c, 0, 55, 64
2, 200018, Note_off_c, 0, 59, 64
2, 200047, Control_c, 0, 64, 0
2, 200051, Note_on_c, 0, 65, 58
2, 200051, Note_on_c, 0, 48, 43
2, 200054, Note_on_c, 0, 59, 39
2, 200059, Note_on_c, 0, 55, 32
2, 200077, Note_off_c, 0, 75, 64
2, 200084, Note_off_c, 0, 67, 64
2, 200086, Control_c, 0, 64, 127
2, 200136, Note_on_c, 0, 75, 69
2, 200199, Control_c, 0, 64, 0
2, 200233, Control_c, 0, 64, 127
2, 200240, Note_on_c, 0, 74, 66
2, 200264, Note_off_c, 0, 75, 64
2, 200297, Note_off_c, 0, 48, 64
2, 200307, Note_off_c, 0, 65, 64
2, 200311, Note_off_c, 0, 55, 64
2, 200311, Note_off_c, 0, 59, 64
2, 200328, Note_on_c, 0, 65, 69
2, 200409, Control_c, 0, 64, 0
2, 200427, Note_on_c, 0, 63, 77
2, 200432, Note_on_c, 0, 60, 29
2, 200432, Note_on_c, 0, 55, 32
2, 200438, Note_on_c, 0, 48, 50
2, 200439, Note_off_c, 0, 65, 64
2, 200444, Control_c, 0, 64, 0
2, 200449, Control_c, 0, 64, 127
2, 200488, Control_c, 0, 64, 127
2, 200542, Note_off_c, 0, 55, 64
2, 200549, Note_off_c, 0, 60, 64
2, 200554, Note_off_c, 0, 48, 64
2, 200588, Note_off_c, 0, 63, 64
2, 200647, Note_on_c, 0, 63, 67
2, 200651, Note_on_c, 0, 72, 60
2, 200653, Note_off_c, 0, 74, 64
2, 200653, Note_on_c, 0, 60, 40
2, 200660, Note_on_c, 0, 55, 29
2, 200660, Note_on_c, 0, 48, 44
2, 200676, Control_c, 0, 64, 0
2, 200716, Control_c, 0, 64, 127
2, 200859, Note_on_c, 0, 75, 70
2, 200865, Note_on_c, 0, 67, 71
2, 200869, Note_off_c, 0, 72, 64
2, 200913, Note_off_c, 0, 63, 64
2, 200954, Note_on_c, 0, 68, 64
2, 200968, Note_off_c, 0, 67, 64
2, 200996, Note_off_c, 0, 48, 64
2, 200996, Note_off_c, 0, 55, 64
2, 201003, Note_off_c, 0, 60, 64
2, 201060, Note_on_c, 0, 67, 70
2, 201064, Note_on_c, 0, 48, 58
2, 201068, Note_on_c, 0, 55, 47
2, 201069, Note_on_c, 0, 59, 62
2, 201079, Note_off_c, 0, 68, 64
2, 201079, Control_c, 0, 64, 0
2, 201100, Control_c, 0, 64, 127
2, 201151, Note_on_c, 0, 68, 42
2, 201164, Note_off_c, 0, 67, 64
2, 201233, Note_off_c, 0, 59, 64
2, 201233, Note_off_c, 0, 48, 64
2, 201237, Note_off_c, 0, 55, 64
2, 201258, Note_on_c, 0, 59, 58
2, 201264, Note_on_c, 0, 55, 44
2, 201265, Note_on_c, 0, 48, 57
2, 201271, Note_on_c, 0, 65, 71
2, 201286, Note_off_c, 0, 68, 64
2, 201309, Control_c, 0, 64, 0
2, 201322, Control_c, 0, 64, 127
2, 201342, Note_off_c, 0, 75, 64
2, 201360, Note_on_c, 0, 75, 73
2, 201461, Note_on_c, 0, 74, 67
2, 201465, Control_c, 0, 64, 0
2, 201472, Note_off_c, 0, 75, 64
2, 201486, Control_c, 0, 64, 127
2, 201508, Control_c, 0, 64, 0
2, 201524, Note_off_c, 0, 65, 64
2, 201551, Note_on_c, 0, 65, 73
2, 201566, Control_c, 0, 64, 127
2, 201628, Note_off_c, 0, 59, 64
2, 201631, Note_off_c, 0, 48, 64
2, 201632, Note_off_c, 0, 55, 64
2, 201657, Note_on_c, 0, 72, 55
2, 201658, Note_on_c, 0, 63, 71
2, 201664, Note_on_c, 0, 48, 50
2, 201670, Note_on_c, 0, 60, 43
2, 201672, Note_on_c, 0, 55, 35
2, 201675, Note_off_c, 0, 65, 64
2, 201680, Note_off_c, 0, 74, 64
2, 201687, Control_c, 0, 64, 0
2, 201713, Control_c, 0, 64, 127
2, 201778, Note_off_c, 0, 55, 64
2, 201782, Note_off_c, 0, 60, 64
2, 201785, Note_off_c, 0, 48, 64
2, 201886, Note_on_c, 0, 60, 62
2, 201886, Note_on_c, 0, 55, 50
2, 201886, Note_on_c, 0, 48, 58
2, 201896, Control_c, 0, 64, 0
2, 201898, Control_c, 0, 64, 0
2, 201908, Control_c, 0, 64, 127
2, 201947, Control_c, 0, 64, 127
2, 202042, Control_c, 0, 64, 0
2, 202074, Note_off_c, 0, 60, 64
2, 202078, Control_c, 0, 64, 127
2, 202080, Note_off_c, 0, 55, 64
2, 202116, Note_off_c, 0, 48, 64
2, 202130, Control_c, 0, 64, 0
2, 202136, Note_on_c, 0, 75, 74
2, 202136, Note_on_c, 0, 36, 73
2, 202138, Note_on_c, 0, 43, 73
2, 202140, Note_off_c, 0, 63, 64
2, 202165, Note_off_c, 0, 72, 64
2, 202166, Control_c, 0, 64, 127
2, 202359, Note_on_c, 0, 67, 63
2, 202364, Note_on_c, 0, 59, 55
2, 202364, Note_on_c, 0, 55, 57
2, 202364, Note_on_c, 0, 48, 58
2, 202376, Note_off_c, 0, 36, 64
2, 202376, Control_c, 0, 64, 0
2, 202378, Note_off_c, 0, 43, 64
2, 202397, Control_c, 0, 64, 127
2, 202450, Note_on_c, 0, 68, 47
2, 202475, Note_off_c, 0, 67, 64
2, 202481, Control_c, 0, 64, 0
2, 202494, Control_c, 0, 64, 127
2, 202523, Note_off_c, 0, 48, 64
2, 202523, Note_off_c, 0, 55, 64
2, 202531, Note_off_c, 0, 59, 64
2, 202557, Note_on_c, 0, 65, 69
2, 202557, Note_on_c, 0, 48, 56
2, 202561, Note_on_c, 0, 59, 50
2, 202561, Note_on_c, 0, 55, 47
2, 202575, Control_c, 0, 64, 0
2, 202593, Note_off_c, 0, 75, 64
2, 202603, Note_off_c, 0, 68, 64
2, 202606, Control_c, 0, 64, 127
2, 202647, Note_on_c, 0, 75, 78
2, 202649, Control_c, 0, 64, 0
2, 202685, Control_c, 0, 64, 127
2, 202754, Note_on_c, 0, 74, 65
2, 202786, Note_off_c, 0, 75, 64
2, 202816, Note_off_c, 0, 65, 64
2, 202845, Note_on_c, 0, 65, 74
2, 202914, Note_off_c, 0, 48, 64
2, 202920, Note_off_c, 0, 59, 64
2, 202927, Note_off_c, 0, 55, 64
2, 202942, Note_on_c, 0, 63, 73
2, 202947, Note_on_c, 0, 60, 50
2, 202947, Note_on_c, 0, 48, 55
2, 202947, Control_c, 0, 64, 0
2, 202951, Note_off_c, 0, 65, 64
2, 202954, Note_on_c, 0, 55, 41
2, 202990, Control_c, 0, 64, 127
2, 203002, Control_c, 0, 64, 0
2, 203041, Control_c, 0, 64, 127
2, 203109, Note_off_c, 0, 63, 64
2, 203110, Note_off_c, 0, 48, 64
2, 203110, Note_off_c, 0, 60, 64
2, 203117, Note_off_c, 0, 55, 64
2, 203153, Note_on_c, 0, 72, 66
2, 203153, Note_on_c, 0, 63, 71
2, 203158, Note_on_c, 0, 60, 62
2, 203158, Note_on_c, 0, 55, 51
2, 203163, Note_on_c, 0, 48, 63
2, 203169, Control_c, 0, 64, 0
2, 203175, Note_off_c, 0, 74, 64
2, 203209, Control_c, 0, 64, 127
2, 203348, Note_on_c, 0, 75, 64
2, 203348, Note_on_c, 0, 67, 71
2, 203360, Control_c, 0, 64, 0
2, 203365, Note_off_c, 0, 72, 64
2, 203393, Note_off_c, 0, 63, 64
2, 203393, Control_c, 0, 64, 127
2, 203436, Note_on_c, 0, 68, 69
2, 203444, Note_off_c, 0, 67, 64
2, 203460, Note_off_c, 0, 48, 64
2, 203462, Note_off_c, 0, 55, 64
2, 203475, Note_off_c, 0, 60, 64
2, 203544, Note_on_c, 0, 59, 69
2, 203547, Note_on_c, 0, 67, 69
2, 203547, Note_on_c, 0, 55, 62
2, 203553, Note_on_c, 0, 48, 64
2, 203554, Note_off_c, 0, 68, 64
2, 203562, Control_c, 0, 64, 0
2, 203574, Control_c, 0, 64, 127
2, 203583, Control_c, 0, 64, 0
2, 203607, Control_c, 0, 64, 127
2, 203652, Note_on_c, 0, 68, 64
2, 203668, Note_off_c, 0, 67, 64
2, 203703, Note_off_c, 0, 59, 64
2, 203706, Note_off_c, 0, 55, 64
2, 203712, Note_off_c, 0, 48, 64
2, 203737, Note_on_c, 0, 65, 74
2, 203737, Control_c, 0, 64, 0
2, 203744, Note_off_c, 0, 68, 64
2, 203745, Note_on_c, 0, 59, 65
2, 203745, Note_on_c, 0, 55, 59
2, 203747, Note_on_c, 0, 48, 63
2, 203774, Control_c, 0, 64, 127
2, 203779, Note_off_c, 0, 75, 64
2, 203791, Control_c, 0, 64, 0
2, 203827, Note_on_c, 0, 75, 73
2, 203857, Control_c, 0, 64, 127
2, 203933, Note_on_c, 0, 74, 72
2, 203953, Note_off_c, 0, 75, 64
2, 203985, Note_off_c, 0, 65, 64
2, 204033, Note_on_c, 0, 65, 80
2, 204109, Note_off_c, 0, 48, 64
2, 204113, Note_off_c, 0, 55, 64
2, 204119, Note_off_c, 0, 59, 64
2, 204162, Note_on_c, 0, 72, 69
2, 204162, Note_on_c, 0, 48, 57
2, 204167, Note_on_c, 0, 60, 50
2, 204169, Note_on_c, 0, 64, 71
2, 204172, Note_on_c, 0, 55, 47
2, 204180, Note_off_c, 0, 65, 64
2, 204184, Control_c, 0, 64, 0
2, 204187, Note_off_c, 0, 74, 64
2, 204211, Control_c, 0, 64, 0
2, 204233, Control_c, 0, 64, 127
2, 204259, Control_c, 0, 64, 127
2, 204298, Note_off_c, 0, 48, 64
2, 204313, Note_off_c, 0, 55, 64
2, 204326, Note_off_c, 0, 60, 64
2, 204416, Note_on_c, 0, 55, 37
2, 204418, Note_on_c, 0, 60, 47
2, 204418, Control_c, 0, 64, 0
2, 204424, Note_on_c, 0, 48, 49
2, 204444, Control_c, 0, 64, 127
2, 204555, Note_off_c, 0, 55, 64
2, 204557, Note_off_c, 0, 60, 64
2, 204563, Note_off_c, 0, 48, 64
2, 204595, Control_c, 0, 64, 0
2, 204622, Control_c, 0, 64, 127
2, 204653, Note_on_c, 0, 36, 73
2, 204662, Control_c, 0, 64, 0
2, 204699, Control_c, 0, 64, 127
2, 204741, Note_off_c, 0, 72, 64
2, 204747, Control_c, 0, 64, 0
2, 204784, Note_off_c, 0, 64, 64
2, 204802, Control_c, 0, 64, 127
2, 204896, Note_on_c, 0, 55, 62
2, 204901, Note_on_c, 0, 67, 64
2, 204903, Note_on_c, 0, 64, 58
2, 204916, Control_c, 0, 64, 0
2, 204919, Control_c, 0, 64, 0
2, 204949, Control_c, 0, 64, 127
2, 204962, Control_c, 0, 64, 127
2, 205002, Note_on_c, 0, 68, 69
2, 205039, Note_off_c, 0, 67, 64
2, 205098, Control_c, 0, 64, 127
2, 205099, Note_on_c, 0, 69, 66
2, 205105, Note_on_c, 0, 65, 59
2, 205105, Control_c, 0, 64, 0
2, 205119, Note_off_c, 0, 55, 64
2, 205126, Note_off_c, 0, 64, 64
2, 205127, Note_off_c, 0, 68, 64
2, 205128, Note_on_c, 0, 55, 62
2, 205152, Control_c, 0, 64, 127
2, 205196, Note_on_c, 0, 59, 71
2, 205271, Control_c, 0, 64, 0
2, 205285, Note_off_c, 0, 36, 64
2, 205296, Note_on_c, 0, 60, 67
2, 205302, Note_off_c, 0, 59, 64
2, 205302, Note_off_c, 0, 69, 64
2, 205328, Note_off_c, 0, 65, 64
2, 205329, Control_c, 0, 64, 0
2, 205331, Control_c, 0, 64, 127
2, 205351, Note_off_c, 0, 55, 64
2, 205377, Control_c, 0, 64, 0
2, 205386, Control_c, 0, 64, 127
2, 205450, Control_c, 0, 64, 0
2, 205471, Note_on_c, 0, 69, 56
2, 205478, Control_c, 0, 64, 127
2, 205498, Note_on_c, 0, 67, 60
2, 205507, Note_on_c, 0, 64, 33
2, 205509, Note_on_c, 0, 55, 44
2, 205515, Note_off_c, 0, 69, 64
2, 205535, Control_c, 0, 64, 0
2, 205542, Note_off_c, 0, 60, 64
2, 205575, Control_c, 0, 64, 127
2, 205588, Note_on_c, 0, 66, 63
2, 205604, Note_off_c, 0, 67, 64
2, 205614, Control_c, 0, 64, 0
2, 205642, Control_c, 0, 64, 127
2, 205676, Note_off_c, 0, 64, 64
2, 205678, Note_off_c, 0, 55, 64
2, 205696, Note_on_c, 0, 64, 49
2, 205701, Note_on_c, 0, 67, 59
2, 205709, Note_on_c, 0, 55, 51
2, 205712, Note_off_c, 0, 66, 64
2, 205724, Control_c, 0, 64, 0
2, 205762, Control_c, 0, 64, 127
2, 205780, Control_c, 0, 64, 0
2, 205829, Control_c, 0, 64, 127
2, 205865, Note_off_c, 0, 64, 64
2, 205878, Note_off_c, 0, 55, 64
2, 205888, Note_on_c, 0, 60, 57
2, 205893, Note_on_c, 0, 48, 48
2, 205913, Control_c, 0, 64, 0
2, 205916, Note_off_c, 0, 67, 64
2, 205936, Control_c, 0, 64, 0
2, 205951, Control_c, 0, 64, 127
2, 205993, Control_c, 0, 64, 127
2, 206088, Note_on_c, 0, 64, 47
2, 206088, Note_on_c, 0, 55, 41
2, 206090, Note_on_c, 0, 67, 57
2, 206112, Control_c, 0, 64, 0
2, 206132, Note_off_c, 0, 60, 64
2, 206134, Control_c, 0, 64, 127
2, 206188, Note_on_c, 0, 71, 62
2, 206211, Note_off_c, 0, 67, 64
2, 206257, Note_off_c, 0, 55, 64
2, 206257, Note_off_c, 0, 64, 64
2, 206279, Note_on_c, 0, 69, 42
2, 206279, Note_on_c, 0, 65, 49
2, 206280, Note_on_c, 0, 55, 55
2, 206289, Note_off_c, 0, 71, 64
2, 206314, Control_c, 0, 64, 0
2, 206373, Control_c, 0, 64, 127
2, 206378, Note_on_c, 0, 59, 69
2, 206384, Note_off_c, 0, 48, 64
2, 206400, Note_off_c, 0, 69, 64
2, 206473, Note_on_c, 0, 60, 71
2, 206475, Note_off_c, 0, 59, 64
2, 206478, Note_on_c, 0, 48, 44
2, 206492, Control_c, 0, 64, 0
2, 206505, Control_c, 0, 64, 0
2, 206539, Control_c, 0, 64, 127
2, 206550, Control_c, 0, 64, 127
2, 206645, Note_off_c, 0, 65, 64
2, 206646, Note_off_c, 0, 55, 64
2, 206679, Note_on_c, 0, 64, 55
2, 206681, Note_on_c, 0, 55, 50
2, 206693, Control_c, 0, 64, 0
2, 206701, Control_c, 0, 64, 0
2, 206730, Control_c, 0, 64, 127
2, 206746, Control_c, 0, 64, 127
2, 206873, Control_c, 0, 64, 0
2, 206899, Note_off_c, 0, 48, 64
2, 206913, Note_off_c, 0, 55, 64
2, 206914, Note_on_c, 0, 48, 49
2, 206927, Control_c, 0, 64, 127
2, 206943, Control_c, 0, 64, 0
2, 206953, Note_off_c, 0, 64, 64
2, 206974, Control_c, 0, 64, 127
2, 207070, Control_c, 0, 64, 0
2, 207111, Control_c, 0, 64, 127
2, 207134, Note_on_c, 0, 64, 55
2, 207165, Control_c, 0, 64, 0
2, 207212, Control_c, 0, 64, 127
2, 207258, Control_c, 0, 64, 0
2, 207336, Control_c, 0, 64, 127
2, 207366, Note_on_c, 0, 55, 40
2, 207378, Control_c, 0, 64, 0
2, 207399, Control_c, 0, 64, 127
2, 207435, Note_off_c, 0, 60, 64
2, 207455, Note_on_c, 0, 56, 57
2, 207480, Note_off_c, 0, 55, 64
2, 207484, Control_c, 0, 64, 0
2, 207540, Control_c, 0, 64, 127
2, 207549, Note_off_c, 0, 48, 64
2, 207568, Note_on_c, 0, 57, 47
2, 207571, Note_on_c, 0, 65, 54
2, 207581, Control_c, 0, 64, 0
2, 207592, Note_off_c, 0, 64, 64
2, 207602, Note_off_c, 0, 56, 64
2, 207614, Control_c, 0, 64, 127
2, 207663, Note_on_c, 0, 47, 57
2, 207691, Control_c, 0, 64, 0
2, 207726, Control_c, 0, 64, 127
2, 207775, Note_on_c, 0, 48, 62
2, 207782, Note_off_c, 0, 47, 64
2, 207801, Control_c, 0, 64, 0
2, 207842, Control_c, 0, 64, 127
2, 207881, Control_c, 0, 64, 0
2, 207888, Note_on_c, 0, 64, 56
2, 207888, Note_on_c, 0, 55, 39
2, 207906, Note_off_c, 0, 57, 64
2, 207909, Note_off_c, 0, 65, 64
2, 207926, Control_c, 0, 64, 127
2, 207944, Note_off_c, 0, 55, 64
2, 207948, Note_off_c, 0, 64, 64
2, 207960, Note_on_c, 0, 65, 62
2, 207968, Note_on_c, 0, 57, 35
2, 207984, Note_on_c, 0, 64, 59
2, 207984, Note_on_c, 0, 55, 36
2, 208021, Note_off_c, 0, 65, 64
2, 208025, Note_off_c, 0, 57, 64
2, 208027, Control_c, 0, 64, 0
2, 208069, Control_c, 0, 64, 127
2, 208096, Note_on_c, 0, 63, 64
2, 208096, Note_on_c, 0, 54, 41
2, 208115, Note_off_c, 0, 55, 64
2, 208115, Note_off_c, 0, 64, 64
2, 208120, Control_c, 0, 64, 0
2, 208189, Control_c, 0, 64, 127
2, 208242, Note_on_c, 0, 64, 56
2, 208251, Note_on_c, 0, 55, 50
2, 208252, Note_off_c, 0, 54, 64
2, 208252, Note_off_c, 0, 63, 64
2, 208265, Control_c, 0, 64, 0
2, 208305, Note_off_c, 0, 48, 64
2, 208306, Control_c, 0, 64, 0
2, 208322, Control_c, 0, 64, 127
2, 208371, Control_c, 0, 64, 127
2, 208481, Note_on_c, 0, 48, 69
2, 208488, Control_c, 0, 64, 0
2, 208502, Note_off_c, 0, 55, 64
2, 208537, Control_c, 0, 64, 127
2, 208583, Note_off_c, 0, 64, 64
2, 208599, Control_c, 0, 64, 0
2, 208636, Control_c, 0, 64, 127
2, 208682, Control_c, 0, 64, 0
2, 208690, Note_on_c, 0, 55, 55
2, 208700, Note_on_c, 0, 64, 42
2, 208728, Control_c, 0, 64, 127
2, 208790, Note_on_c, 0, 67, 46
2, 208796, Note_on_c, 0, 58, 37
2, 208810, Note_off_c, 0, 64, 64
2, 208829, Control_c, 0, 64, 0
2, 208846, Note_off_c, 0, 55, 64
2, 208880, Note_off_c, 0, 58, 64
2, 208890, Control_c, 0, 64, 127
2, 208893, Note_off_c, 0, 67, 64
2, 208894, Note_on_c, 0, 65, 56
2, 208903, Note_on_c, 0, 57, 41
2, 208903, Control_c, 0, 64, 0
2, 208915, Note_off_c, 0, 48, 64
2, 208926, Control_c, 0, 64, 127
2, 209001, Note_on_c, 0, 47, 62
2, 209052, Note_off_c, 0, 47, 64
2, 209120, Note_on_c, 0, 64, 58
2, 209124, Note_off_c, 0, 65, 64
2, 209129, Note_on_c, 0, 55, 54
2, 209132, Note_on_c, 0, 48, 39
2, 209137, Note_off_c, 0, 57, 64
2, 209172, Control_c, 0, 64, 0
2, 209226, Note_on_c, 0, 59, 47
2, 209241, Control_c, 0, 64, 127
2, 209255, Note_off_c, 0, 64, 64
2, 209370, Note_on_c, 0, 60, 51
2, 209381, Control_c, 0, 64, 0
2, 209386, Note_off_c, 0, 59, 64
2, 209439, Control_c, 0, 64, 127
2, 209441, Control_c, 0, 64, 0
2, 209520, Control_c, 0, 64, 127
2, 209646, Note_on_c, 0, 67, 56
2, 209696, Control_c, 0, 64, 0
2, 209740, Note_off_c, 0, 60, 64
2, 209749, Control_c, 0, 64, 127
2, 209786, Note_on_c, 0, 71, 57
2, 209802, Note_off_c, 0, 67, 64
2, 209853, Note_off_c, 0, 48, 64
2, 209867, Note_off_c, 0, 55, 64
2, 209928, Note_on_c, 0, 72, 62
2, 209944, Note_off_c, 0, 71, 64
2, 209985, Control_c, 0, 64, 0
2, 209991, Control_c, 0, 64, 0
2, 210040, Control_c, 0, 64, 127
2, 210148, Control_c, 0, 64, 0
2, 210188, Control_c, 0, 64, 127
2, 210231, Control_c, 0, 64, 127
2, 210261, Control_c, 0, 64, 0
2, 210443, Control_c, 0, 64, 127
2, 210454, Note_on_c, 0, 67, 54
2, 210479, Note_off_c, 0, 72, 64
2, 210599, Note_on_c, 0, 71, 55
2, 210629, Note_off_c, 0, 67, 64
2, 210745, Note_on_c, 0, 72, 59
2, 210763, Note_off_c, 0, 71, 64
2, 210898, Note_on_c, 0, 71, 54
2, 210922, Note_off_c, 0, 72, 64
2, 211019, Note_on_c, 0, 67, 57
2, 211037, Note_off_c, 0, 71, 64
2, 211150, Note_on_c, 0, 74, 63
2, 211184, Note_off_c, 0, 67, 64
2, 211240, Control_c, 0, 64, 0
2, 211276, Note_on_c, 0, 72, 62
2, 211290, Note_off_c, 0, 74, 64
2, 211389, Note_on_c, 0, 71, 59
2, 211413, Note_off_c, 0, 72, 64
2, 211504, Note_on_c, 0, 67, 65
2, 211523, Note_off_c, 0, 71, 64
2, 211565, Control_c, 0, 64, 127
2, 211610, Note_on_c, 0, 73, 64
2, 211653, Note_off_c, 0, 67, 64
2, 211714, Note_on_c, 0, 72, 63
2, 211737, Note_off_c, 0, 73, 64
2, 211816, Note_on_c, 0, 71, 63
2, 211842, Note_off_c, 0, 72, 64
2, 211917, Note_on_c, 0, 67, 67
2, 211932, Note_off_c, 0, 71, 64
2, 212017, Note_on_c, 0, 73, 65
2, 212055, Note_off_c, 0, 67, 64
2, 212130, Note_on_c, 0, 72, 58
2, 212160, Note_off_c, 0, 73, 64
2, 212206, Control_c, 0, 64, 0
2, 212229, Control_c, 0, 64, 127
2, 212235, Note_on_c, 0, 71, 72
2, 212252, Note_off_c, 0, 72, 64
2, 212292, Control_c, 0, 64, 127
2, 212350, Control_c, 0, 64, 0
2, 212353, Note_on_c, 0, 70, 80
2, 212360, Control_c, 0, 64, 0
2, 212371, Note_off_c, 0, 71, 64
2, 212406, Control_c, 0, 64, 127
2, 212457, Note_on_c, 0, 73, 73
2, 212491, Note_off_c, 0, 70, 64
2, 212511, Control_c, 0, 64, 0
2, 212547, Control_c, 0, 64, 127
2, 212569, Note_on_c, 0, 72, 78
2, 212592, Note_off_c, 0, 73, 64
2, 212663, Control_c, 0, 64, 0
2, 212675, Note_on_c, 0, 70, 77
2, 212691, Note_off_c, 0, 72, 64
2, 212701, Control_c, 0, 64, 127
2, 212790, Note_on_c, 0, 32, 100
2, 212798, Note_on_c, 0, 68, 78
2, 212808, Note_off_c, 0, 70, 64
2, 212831, Control_c, 0, 64, 127
2, 212904, Note_on_c, 0, 72, 66
2, 212935, Note_off_c, 0, 68, 64
2, 213024, Note_on_c, 0, 75, 64
2, 213024, Note_on_c, 0, 63, 56
2, 213024, Note_on_c, 0, 60, 62
2, 213024, Note_on_c, 0, 51, 48
2, 213058, Note_off_c, 0, 72, 64
2, 213081, Control_c, 0, 64, 0
2, 213120, Control_c, 0, 64, 127
2, 213151, Note_off_c, 0, 51, 64
2, 213151, Note_off_c, 0, 60, 64
2, 213151, Note_off_c, 0, 63, 64
2, 213152, Note_on_c, 0, 76, 58
2, 213167, Note_off_c, 0, 75, 64
2, 213248, Note_on_c, 0, 77, 58
2, 213256, Note_on_c, 0, 63, 75
2, 213256, Note_on_c, 0, 61, 42
2, 213264, Note_on_c, 0, 51, 71
2, 213293, Note_off_c, 0, 76, 64
2, 213353, Note_off_c, 0, 61, 64
2, 213353, Note_off_c, 0, 63, 64
2, 213361, Note_off_c, 0, 51, 64
2, 213363, Note_off_c, 0, 77, 64
2, 213368, Note_on_c, 0, 67, 73
2, 213398, Note_off_c, 0, 32, 64
2, 213456, Note_on_c, 0, 68, 73
2, 213459, Note_on_c, 0, 44, 73
2, 213511, Note_off_c, 0, 67, 64
2, 213540, Note_on_c, 0, 72, 62
2, 213549, Note_off_c, 0, 68, 64
2, 213592, Note_on_c, 0, 77, 55
2, 213606, Note_off_c, 0, 72, 64
2, 213616, Note_on_c, 0, 60, 46
2, 213617, Note_on_c, 0, 66, 49
2, 213617, Note_on_c, 0, 56, 40
2, 213620, Note_off_c, 0, 44, 64
2, 213620, Control_c, 0, 64, 0
2, 213632, Note_on_c, 0, 75, 67
2, 213655, Note_off_c, 0, 77, 64
2, 213679, Note_off_c, 0, 60, 64
2, 213680, Note_off_c, 0, 56, 64
2, 213680, Note_off_c, 0, 66, 64
2, 213714, Note_on_c, 0, 74, 69
2, 213720, Control_c, 0, 64, 127
2, 213725, Note_off_c, 0, 75, 64
2, 213744, Control_c, 0, 64, 0
2, 213808, Note_on_c, 0, 66, 52
2, 213813, Note_on_c, 0, 75, 73
2, 213816, Note_on_c, 0, 60, 19
2, 213816, Note_on_c, 0, 56, 20
2, 213836, Control_c, 0, 64, 127
2, 213842, Note_off_c, 0, 74, 64
2, 213871, Note_off_c, 0, 66, 64
2, 213879, Note_off_c, 0, 56, 64
2, 213879, Note_off_c, 0, 60, 64
2, 213989, Note_on_c, 0, 49, 69
2, 213995, Note_on_c, 0, 73, 73
2, 213998, Note_off_c, 0, 75, 64
2, 214002, Control_c, 0, 64, 0
2, 214015, Control_c, 0, 64, 127
2, 214077, Note_on_c, 0, 77, 62
2, 214094, Note_off_c, 0, 73, 64
2, 214146, Note_on_c, 0, 56, 54
2, 214146, Control_c, 0, 64, 0
2, 214150, Note_off_c, 0, 49, 64
2, 214150, Note_on_c, 0, 65, 57
2, 214153, Note_on_c, 0, 61, 55
2, 214160, Note_on_c, 0, 79, 62
2, 214169, Note_off_c, 0, 77, 64
2, 214209, Note_off_c, 0, 56, 64
2, 214213, Note_off_c, 0, 65, 64
2, 214216, Note_off_c, 0, 61, 64
2, 214229, Note_on_c, 0, 82, 69
2, 214241, Note_off_c, 0, 79, 64
2, 214296, Control_c, 0, 64, 127
2, 214307, Note_on_c, 0, 80, 62
2, 214310, Note_off_c, 0, 82, 64
2, 214316, Note_on_c, 0, 56, 58
2, 214320, Note_on_c, 0, 65, 58
2, 214320, Note_on_c, 0, 61, 59
2, 214379, Note_off_c, 0, 56, 64
2, 214383, Note_off_c, 0, 61, 64
2, 214383, Note_off_c, 0, 65, 64
2, 214399, Note_on_c, 0, 77, 62
2, 214407, Note_off_c, 0, 80, 64
2, 214448, Control_c, 0, 64, 0
2, 214462, Note_on_c, 0, 46, 74
2, 214480, Note_on_c, 0, 73, 74
2, 214484, Note_off_c, 0, 77, 64
2, 214487, Control_c, 0, 64, 127
2, 214538, Note_on_c, 0, 76, 67
2, 214555, Note_off_c, 0, 73, 64
2, 214584, Note_on_c, 0, 79, 57
2, 214600, Note_on_c, 0, 65, 44
2, 214604, Note_on_c, 0, 61, 51
2, 214608, Note_on_c, 0, 56, 49
2, 214611, Note_off_c, 0, 76, 64
2, 214613, Control_c, 0, 64, 0
2, 214623, Note_off_c, 0, 46, 64
2, 214630, Note_on_c, 0, 77, 65
2, 214643, Note_off_c, 0, 79, 64
2, 214663, Note_off_c, 0, 65, 64
2, 214667, Note_off_c, 0, 61, 64
2, 214671, Note_off_c, 0, 56, 64
2, 214710, Note_on_c, 0, 76, 64
2, 214719, Note_off_c, 0, 77, 64
2, 214791, Note_on_c, 0, 65, 48
2, 214791, Note_on_c, 0, 56, 48
2, 214795, Note_on_c, 0, 61, 41
2, 214799, Note_on_c, 0, 77, 62
2, 214806, Control_c, 0, 64, 127
2, 214816, Note_off_c, 0, 76, 64
2, 214854, Note_off_c, 0, 56, 64
2, 214854, Note_off_c, 0, 65, 64
2, 214858, Note_off_c, 0, 61, 64
2, 214968, Control_c, 0, 64, 0
2, 214973, Note_on_c, 0, 51, 63
2, 214977, Note_on_c, 0, 67, 64
2, 214980, Note_off_c, 0, 77, 64
2, 215003, Control_c, 0, 64, 127
2, 215050, Note_on_c, 0, 68, 67
2, 215061, Note_off_c, 0, 67, 64
2, 215113, Control_c, 0, 64, 0
2, 215127, Note_on_c, 0, 70, 59
2, 215134, Note_off_c, 0, 51, 64
2, 215136, Note_on_c, 0, 63, 59
2, 215137, Note_on_c, 0, 61, 46
2, 215139, Note_off_c, 0, 68, 64
2, 215140, Note_on_c, 0, 55, 39
2, 215167, Control_c, 0, 64, 127
2, 215187, Note_on_c, 0, 72, 58
2, 215199, Note_off_c, 0, 63, 64
2, 215200, Note_off_c, 0, 61, 64
2, 215203, Note_off_c, 0, 55, 64
2, 215210, Note_off_c, 0, 70, 64
2, 215264, Note_on_c, 0, 63, 50
2, 215268, Note_on_c, 0, 55, 48
2, 215271, Note_on_c, 0, 61, 51
2, 215279, Note_on_c, 0, 73, 71
2, 215291, Note_off_c, 0, 72, 64
2, 215327, Note_off_c, 0, 63, 64
2, 215331, Note_off_c, 0, 55, 64
2, 215334, Note_off_c, 0, 61, 64
2, 215361, Note_on_c, 0, 71, 46
2, 215382, Note_off_c, 0, 73, 64
2, 215419, Control_c, 0, 64, 0
2, 215430, Note_on_c, 0, 44, 73
2, 215438, Note_on_c, 0, 72, 73
2, 215451, Note_off_c, 0, 71, 64
2, 215471, Control_c, 0, 64, 127
2, 215535, Note_on_c, 0, 62, 58
2, 215569, Note_on_c, 0, 65, 69
2, 215581, Note_off_c, 0, 72, 64
2, 215591, Note_off_c, 0, 44, 64
2, 215596, Note_off_c, 0, 62, 64
2, 215598, Note_on_c, 0, 60, 36
2, 215600, Note_on_c, 0, 51, 44
2, 215602, Note_on_c, 0, 56, 34
2, 215605, Note_on_c, 0, 63, 74
2, 215612, Control_c, 0, 64, 0
2, 215623, Note_off_c, 0, 65, 64
2, 215661, Note_off_c, 0, 60, 64
2, 215663, Note_off_c, 0, 51, 64
2, 215665, Note_off_c, 0, 56, 64
2, 215687, Note_on_c, 0, 62, 71
2, 215693, Note_off_c, 0, 63, 64
2, 215763, Note_on_c, 0, 63, 80
2, 215764, Note_on_c, 0, 60, 43
2, 215765, Note_on_c, 0, 56, 46
2, 215774, Note_on_c, 0, 51, 40
2, 215782, Control_c, 0, 64, 127
2, 215788, Note_off_c, 0, 62, 64
2, 215827, Note_off_c, 0, 60, 64
2, 215828, Note_off_c, 0, 56, 64
2, 215837, Note_off_c, 0, 51, 64
2, 215944, Control_c, 0, 64, 0
2, 215959, Note_on_c, 0, 70, 69
2, 215959, Note_on_c, 0, 67, 59
2, 215962, Note_on_c, 0, 39, 67
2, 215966, Note_off_c, 0, 63, 64
2, 215995, Control_c, 0, 64, 127
2, 216036, Note_on_c, 0, 72, 64
2, 216042, Note_on_c, 0, 68, 78
2, 216053, Note_off_c, 0, 67, 64
2, 216053, Note_off_c, 0, 70, 64
2, 216119, Control_c, 0, 64, 0
2, 216123, Note_off_c, 0, 39, 64
2, 216123, Note_on_c, 0, 51, 42
2, 216124, Note_on_c, 0, 61, 51
2, 216128, Note_on_c, 0, 73, 67
2, 216128, Note_on_c, 0, 70, 73
2, 216128, Note_on_c, 0, 63, 46
2, 216131, Note_off_c, 0, 72, 64
2, 216137, Note_off_c, 0, 68, 64
2, 216162, Control_c, 0, 64, 127
2, 216186, Note_off_c, 0, 51, 64
2, 216187, Note_off_c, 0, 61, 64
2, 216191, Note_off_c, 0, 63, 64
2, 216200, Note_on_c, 0, 72, 66
2, 216204, Note_off_c, 0, 70, 64
2, 216204, Note_off_c, 0, 73, 64
2, 216204, Note_on_c, 0, 75, 63
2, 216268, Note_on_c, 0, 63, 62
2, 216268, Note_on_c, 0, 61, 48
2, 216272, Note_on_c, 0, 73, 67
2, 216272, Note_on_c, 0, 51, 25
2, 216276, Note_on_c, 0, 77, 77
2, 216301, Note_off_c, 0, 72, 64
2, 216305, Note_off_c, 0, 75, 64
2, 216331, Note_off_c, 0, 61, 64
2, 216331, Note_off_c, 0, 63, 64
2, 216335, Note_off_c, 0, 51, 64
2, 216348, Note_on_c, 0, 74, 67
2, 216350, Note_on_c, 0, 71, 77
2, 216361, Note_off_c, 0, 73, 64
2, 216365, Note_off_c, 0, 77, 64
2, 216417, Note_on_c, 0, 44, 67
2, 216420, Note_on_c, 0, 72, 69
2, 216422, Note_on_c, 0, 75, 62
2, 216428, Note_off_c, 0, 74, 64
2, 216430, Note_off_c, 0, 71, 64
2, 216430, Control_c, 0, 64, 0
2, 216466, Control_c, 0, 64, 127
2, 216537, Note_on_c, 0, 62, 73
2, 216548, Note_off_c, 0, 72, 64
2, 216550, Note_off_c, 0, 75, 64
2, 216565, Note_on_c, 0, 65, 69
2, 216578, Note_off_c, 0, 44, 64
2, 216585, Control_c, 0, 64, 0
2, 216600, Note_on_c, 0, 60, 47
2, 216603, Note_off_c, 0, 62, 64
2, 216603, Note_on_c, 0, 63, 78
2, 216604, Note_on_c, 0, 56, 50
2, 216604, Note_on_c, 0, 51, 37
2, 216630, Note_off_c, 0, 65, 64
2, 216663, Note_off_c, 0, 60, 64
2, 216667, Note_off_c, 0, 51, 64
2, 216667, Note_off_c, 0, 56, 64
2, 216685, Note_on_c, 0, 62, 73
2, 216705, Note_off_c, 0, 63, 64
2, 216762, Note_on_c, 0, 63, 82
2, 216767, Note_on_c, 0, 60, 58
2, 216772, Note_on_c, 0, 51, 46
2, 216773, Note_on_c, 0, 56, 52
2, 216786, Control_c, 0, 64, 127
2, 216793, Note_off_c, 0, 62, 64
2, 216830, Note_off_c, 0, 60, 64
2, 216835, Note_off_c, 0, 51, 64
2, 216836, Note_off_c, 0, 56, 64
2, 216955, Control_c, 0, 64, 0
2, 216967, Note_on_c, 0, 32, 88
2, 216968, Note_on_c, 0, 68, 98
2, 216977, Note_off_c, 0, 63, 64
2, 217032, Control_c, 0, 64, 127
2, 217073, Note_on_c, 0, 72, 65
2, 217082, Note_off_c, 0, 68, 64
2, 217128, Note_off_c, 0, 32, 64
2, 217137, Control_c, 0, 64, 0
2, 217144, Note_on_c, 0, 60, 55
2, 217147, Note_on_c, 0, 63, 55
2, 217148, Note_on_c, 0, 75, 73
2, 217148, Note_on_c, 0, 51, 50
2, 217176, Note_off_c, 0, 72, 64
2, 217183, Control_c, 0, 64, 127
2, 217207, Note_off_c, 0, 60, 64
2, 217210, Note_off_c, 0, 63, 64
2, 217211, Note_off_c, 0, 51, 64
2, 217217, Note_on_c, 0, 76, 69
2, 217256, Note_off_c, 0, 75, 64
2, 217296, Note_on_c, 0, 63, 58
2, 217300, Note_on_c, 0, 77, 64
2, 217300, Note_on_c, 0, 61, 34
2, 217308, Note_on_c, 0, 51, 58
2, 217337, Note_off_c, 0, 76, 64
2, 217353, Note_on_c, 0, 67, 63
2, 217359, Note_off_c, 0, 63, 64
2, 217363, Note_off_c, 0, 61, 64
2, 217371, Note_off_c, 0, 51, 64
2, 217382, Note_off_c, 0, 77, 64
2, 217440, Note_on_c, 0, 44, 73
2, 217444, Control_c, 0, 64, 0
2, 217449, Note_on_c, 0, 68, 78
2, 217461, Note_off_c, 0, 67, 64
2, 217480, Control_c, 0, 64, 127
2, 217510, Note_on_c, 0, 72, 64
2, 217527, Note_off_c, 0, 68, 64
2, 217565, Note_on_c, 0, 77, 64
2, 217577, Note_on_c, 0, 66, 59
2, 217582, Note_off_c, 0, 72, 64
2, 217587, Note_on_c, 0, 60, 51
2, 217588, Control_c, 0, 64, 0
2, 217592, Note_on_c, 0, 56, 39
2, 217596, Note_on_c, 0, 75, 77
2, 217601, Note_off_c, 0, 44, 64
2, 217622, Note_off_c, 0, 77, 64
2, 217640, Note_off_c, 0, 66, 64
2, 217650, Note_off_c, 0, 60, 64
2, 217655, Note_off_c, 0, 56, 64
2, 217677, Note_on_c, 0, 74, 66
2, 217685, Note_off_c, 0, 75, 64
2, 217746, Note_on_c, 0, 66, 62
2, 217750, Note_on_c, 0, 75, 78
2, 217752, Note_on_c, 0, 56, 58
2, 217756, Note_on_c, 0, 60, 26
2, 217760, Control_c, 0, 64, 127
2, 217770, Note_off_c, 0, 74, 64
2, 217809, Note_off_c, 0, 66, 64
2, 217815, Note_off_c, 0, 56, 64
2, 217819, Note_off_c, 0, 60, 64
2, 217852, Control_c, 0, 64, 127
2, 217904, Note_on_c, 0, 49, 73
2, 217909, Note_on_c, 0, 73, 73
2, 217911, Control_c, 0, 64, 0
2, 217917, Note_off_c, 0, 75, 64
2, 217928, Control_c, 0, 64, 127
2, 217978, Note_on_c, 0, 77, 65
2, 217995, Note_off_c, 0, 73, 64
2, 218025, Control_c, 0, 64, 0
2, 218033, Note_on_c, 0, 56, 51
2, 218037, Note_on_c, 0, 61, 57
2, 218040, Note_on_c, 0, 65, 56
2, 218050, Note_on_c, 0, 79, 59
2, 218060, Note_off_c, 0, 77, 64
2, 218065, Note_off_c, 0, 49, 64
2, 218096, Note_off_c, 0, 56, 64
2, 218100, Note_off_c, 0, 61, 64
2, 218103, Note_off_c, 0, 65, 64
2, 218118, Note_on_c, 0, 82, 69
2, 218130, Note_off_c, 0, 79, 64
2, 218191, Note_on_c, 0, 80, 62
2, 218197, Note_on_c, 0, 56, 62
2, 218200, Note_on_c, 0, 61, 59
2, 218201, Note_on_c, 0, 65, 58
2, 218207, Note_off_c, 0, 82, 64
2, 218219, Control_c, 0, 64, 127
2, 218260, Note_off_c, 0, 56, 64
2, 218263, Note_off_c, 0, 61, 64
2, 218264, Note_off_c, 0, 65, 64
2, 218274, Note_on_c, 0, 77, 66
2, 218285, Note_off_c, 0, 80, 64
2, 218318, Control_c, 0, 64, 0
2, 218341, Note_on_c, 0, 46, 73
2, 218348, Note_on_c, 0, 73, 73
2, 218354, Note_off_c, 0, 77, 64
2, 218365, Control_c, 0, 64, 127
2, 218411, Note_on_c, 0, 76, 62
2, 218426, Note_off_c, 0, 73, 64
2, 218457, Note_on_c, 0, 79, 62
2, 218463, Note_on_c, 0, 65, 51
2, 218463, Note_on_c, 0, 56, 48
2, 218464, Note_on_c, 0, 61, 52
2, 218477, Control_c, 0, 64, 0
2, 218486, Note_off_c, 0, 76, 64
2, 218502, Note_off_c, 0, 46, 64
2, 218507, Note_on_c, 0, 77, 63
2, 218526, Note_off_c, 0, 56, 64
2, 218526, Note_off_c, 0, 65, 64
2, 218527, Note_off_c, 0, 61, 64
2, 218541, Note_off_c, 0, 79, 64
2, 218577, Note_on_c, 0, 76, 63
2, 218585, Note_off_c, 0, 77, 64
2, 218668, Note_on_c, 0, 77, 66
2, 218668, Control_c, 0, 64, 127
2, 218672, Note_on_c, 0, 65, 57
2, 218672, Note_on_c, 0, 61, 26
2, 218672, Note_on_c, 0, 56, 42
2, 218682, Note_off_c, 0, 76, 64
2, 218735, Note_off_c, 0, 56, 64
2, 218735, Note_off_c, 0, 61, 64
2, 218735, Note_off_c, 0, 65, 64
2, 218832, Note_off_c, 0, 77, 64
2, 218839, Note_on_c, 0, 51, 59
2, 218842, Note_on_c, 0, 67, 67
2, 218846, Control_c, 0, 64, 0
2, 218891, Control_c, 0, 64, 127
2, 218915, Note_on_c, 0, 68, 63
2, 218947, Note_off_c, 0, 67, 64
2, 218969, Control_c, 0, 64, 0
2, 218993, Note_on_c, 0, 70, 59
2, 218996, Note_on_c, 0, 61, 48
2, 218999, Note_on_c, 0, 63, 51
2, 218999, Note_on_c, 0, 55, 42
2, 219000, Note_off_c, 0, 51, 64
2, 219014, Note_off_c, 0, 68, 64
2, 219020, Control_c, 0, 64, 127
2, 219059, Note_off_c, 0, 61, 64
2, 219060, Note_on_c, 0, 72, 56
2, 219062, Note_off_c, 0, 55, 64
2, 219062, Note_off_c, 0, 63, 64
2, 219074, Note_off_c, 0, 70, 64
2, 219136, Note_on_c, 0, 73, 70
2, 219139, Note_on_c, 0, 63, 36
2, 219139, Note_on_c, 0, 61, 39
2, 219145, Note_on_c, 0, 55, 40
2, 219150, Note_off_c, 0, 72, 64
2, 219197, Note_on_c, 0, 71, 64
2, 219202, Note_off_c, 0, 61, 64
2, 219202, Note_off_c, 0, 63, 64
2, 219208, Note_off_c, 0, 55, 64
2, 219208, Note_off_c, 0, 73, 64
2, 219271, Control_c, 0, 64, 0
2, 219280, Note_on_c, 0, 72, 69
2, 219286, Note_on_c, 0, 44, 73
2, 219299, Note_off_c, 0, 71, 64
2, 219334, Note_on_c, 0, 62, 59
2, 219349, Note_off_c, 0, 72, 64
2, 219392, Note_on_c, 0, 65, 69
2, 219403, Note_on_c, 0, 60, 51
2, 219403, Note_on_c, 0, 51, 50
2, 219405, Note_on_c, 0, 56, 54
2, 219421, Note_on_c, 0, 63, 69
2, 219434, Note_off_c, 0, 65, 64
2, 219438, Note_off_c, 0, 62, 64
2, 219447, Note_off_c, 0, 44, 64
2, 219466, Note_off_c, 0, 51, 64
2, 219466, Note_off_c, 0, 60, 64
2, 219468, Note_off_c, 0, 56, 64
2, 219507, Note_on_c, 0, 62, 69
2, 219522, Note_off_c, 0, 63, 64
2, 219584, Note_on_c, 0, 63, 78
2, 219592, Note_on_c, 0, 60, 52
2, 219598, Note_on_c, 0, 56, 51
2, 219598, Note_on_c, 0, 51, 50
2, 219609, Note_off_c, 0, 62, 64
2, 219615, Control_c, 0, 64, 127
2, 219655, Note_off_c, 0, 60, 64
2, 219661, Note_off_c, 0, 51, 64
2, 219661, Note_off_c, 0, 56, 64
2, 219668, Control_c, 0, 64, 127
2, 219748, Control_c, 0, 64, 0
2, 219760, Note_on_c, 0, 67, 67
2, 219763, Note_on_c, 0, 70, 62
2, 219771, Note_off_c, 0, 63, 64
2, 219771, Note_on_c, 0, 39, 69
2, 219778, Control_c, 0, 64, 127
2, 219856, Note_on_c, 0, 72, 69
2, 219856, Note_on_c, 0, 68, 80
2, 219865, Note_off_c, 0, 67, 64
2, 219868, Note_off_c, 0, 70, 64
2, 219893, Control_c, 0, 64, 0
2, 219925, Note_on_c, 0, 73, 64
2, 219928, Note_on_c, 0, 70, 69
2, 219932, Note_off_c, 0, 39, 64
2, 219932, Note_on_c, 0, 63, 55
2, 219932, Note_on_c, 0, 51, 58
2, 219934, Note_off_c, 0, 68, 64
2, 219934, Note_off_c, 0, 72, 64
2, 219935, Note_on_c, 0, 61, 54
2, 219950, Control_c, 0, 64, 127
2, 219995, Note_off_c, 0, 51, 64
2, 219995, Note_off_c, 0, 63, 64
2, 219998, Note_off_c, 0, 61, 64
2, 220004, Note_on_c, 0, 75, 52
2, 220004, Note_on_c, 0, 72, 69
2, 220008, Note_off_c, 0, 73, 64
2, 220011, Note_off_c, 0, 70, 64
2, 220064, Note_on_c, 0, 63, 49
2, 220064, Note_on_c, 0, 51, 33
2, 220067, Note_on_c, 0, 77, 73
2, 220068, Note_on_c, 0, 73, 67
2, 220068, Note_on_c, 0, 61, 54
2, 220081, Note_off_c, 0, 72, 64
2, 220081, Note_off_c, 0, 75, 64
2, 220127, Note_off_c, 0, 51, 64
2, 220127, Note_off_c, 0, 63, 64
2, 220131, Note_off_c, 0, 61, 64
2, 220136, Note_on_c, 0, 74, 67
2, 220136, Note_on_c, 0, 71, 78
2, 220153, Note_off_c, 0, 77, 64
2, 220154, Note_off_c, 0, 73, 64
2, 220181, Control_c, 0, 64, 0
2, 220200, Note_on_c, 0, 72, 71
2, 220203, Note_on_c, 0, 75, 62
2, 220203, Note_on_c, 0, 44, 71
2, 220212, Note_off_c, 0, 71, 64
2, 220212, Note_off_c, 0, 74, 64
2, 220234, Control_c, 0, 64, 127
2, 220316, Note_on_c, 0, 62, 71
2, 220332, Note_off_c, 0, 72, 64
2, 220335, Note_off_c, 0, 75, 64
2, 220354, Note_on_c, 0, 65, 69
2, 220364, Note_off_c, 0, 44, 64
2, 220374, Note_on_c, 0, 51, 33
2, 220376, Note_on_c, 0, 60, 51
2, 220380, Note_on_c, 0, 56, 44
2, 220383, Note_on_c, 0, 63, 69
2, 220386, Control_c, 0, 64, 0
2, 220391, Note_off_c, 0, 62, 64
2, 220415, Note_off_c, 0, 65, 64
2, 220437, Note_off_c, 0, 51, 64
2, 220439, Note_off_c, 0, 60, 64
2, 220443, Note_off_c, 0, 56, 64
2, 220472, Note_on_c, 0, 62, 69
2, 220480, Note_off_c, 0, 63, 64
2, 220566, Note_on_c, 0, 63, 69
2, 220568, Note_on_c, 0, 56, 32
2, 220573, Note_on_c, 0, 60, 58
2, 220573, Note_on_c, 0, 51, 40
2, 220588, Note_off_c, 0, 62, 64
2, 220607, Control_c, 0, 64, 127
2, 220636, Note_off_c, 0, 51, 64
2, 220636, Note_off_c, 0, 60, 64
2, 220782, Note_on_c, 0, 65, 67
2, 220787, Note_on_c, 0, 49, 58
2, 220802, Control_c, 0, 64, 0
2, 220962, Note_off_c, 0, 63, 64
2, 220964, Note_on_c, 0, 61, 41
2, 220964, Note_on_c, 0, 58, 41
2, 220968, Note_off_c, 0, 56, 64
2, 221073, Control_c, 0, 64, 127
2, 221147, Note_off_c, 0, 49, 64
2, 221147, Note_on_c, 0, 51, 50
2, 221153, Note_on_c, 0, 67, 66
2, 221162, Control_c, 0, 64, 0
2, 221175, Note_off_c, 0, 65, 64
2, 221188, Control_c, 0, 64, 127
2, 221319, Note_on_c, 0, 44, 59
2, 221324, Note_on_c, 0, 60, 55
2, 221324, Control_c, 0, 64, 0
2, 221330, Note_off_c, 0, 58, 64
2, 221344, Note_off_c, 0, 61, 64
2, 221360, Control_c, 0, 64, 127
2, 221430, Note_off_c, 0, 67, 64
2, 221435, Note_on_c, 0, 68, 54
2, 221466, Control_c, 0, 64, 0
2, 221493, Control_c, 0, 64, 127
2, 221496, Note_off_c, 0, 68, 64
2, 221496, Note_on_c, 0, 68, 62
2, 221575, Note_off_c, 0, 44, 64
2, 221576, Note_on_c, 0, 70, 58
2, 221588, Note_off_c, 0, 51, 64
2, 221619, Note_off_c, 0, 68, 64
2, 221646, Note_off_c, 0, 60, 64
2, 221655, Note_on_c, 0, 66, 67
2, 221659, Note_on_c, 0, 63, 59
2, 221663, Note_on_c, 0, 72, 70
2, 221669, Note_on_c, 0, 56, 56
2, 221676, Note_off_c, 0, 70, 64
2, 221682, Control_c, 0, 64, 0
2, 221722, Control_c, 0, 64, 127
2, 221836, Note_on_c, 0, 49, 50
2, 221840, Note_on_c, 0, 65, 62
2, 221843, Control_c, 0, 64, 0
2, 221870, Note_off_c, 0, 66, 64
2, 221874, Note_off_c, 0, 63, 64
2, 221898, Control_c, 0, 64, 127
2, 221919, Note_on_c, 0, 73, 66
2, 221924, Note_off_c, 0, 72, 64
2, 222001, Note_on_c, 0, 72, 62
2, 222013, Note_off_c, 0, 73, 64
2, 222157, Note_off_c, 0, 56, 64
2, 222166, Note_off_c, 0, 49, 64
2, 222177, Note_on_c, 0, 67, 58
2, 222181, Note_on_c, 0, 61, 56
2, 222184, Note_on_c, 0, 51, 51
2, 222191, Control_c, 0, 64, 0
2, 222205, Note_off_c, 0, 65, 64
2, 222226, Control_c, 0, 64, 127
2, 222260, Note_on_c, 0, 70, 50
2, 222266, Note_off_c, 0, 72, 64
2, 222356, Note_on_c, 0, 73, 64
2, 222360, Note_on_c, 0, 56, 55
2, 222364, Note_on_c, 0, 65, 55
2, 222369, Note_off_c, 0, 67, 64
2, 222373, Note_off_c, 0, 61, 64
2, 222376, Note_off_c, 0, 51, 64
2, 222378, Control_c, 0, 64, 0
2, 222381, Note_off_c, 0, 70, 64
2, 222389, Control_c, 0, 64, 127
2, 222432, Note_on_c, 0, 72, 57
2, 222440, Note_on_c, 0, 63, 58
2, 222471, Note_off_c, 0, 73, 64
2, 222479, Note_off_c, 0, 65, 64
2, 222491, Note_off_c, 0, 72, 64
2, 222499, Note_off_c, 0, 63, 64
2, 222512, Note_on_c, 0, 73, 69
2, 222536, Note_on_c, 0, 72, 67
2, 222544, Note_on_c, 0, 63, 59
2, 222569, Note_off_c, 0, 73, 64
2, 222645, Note_on_c, 0, 71, 58
2, 222645, Note_on_c, 0, 62, 57
2, 222646, Note_off_c, 0, 72, 64
2, 222654, Note_off_c, 0, 63, 64
2, 222749, Note_on_c, 0, 72, 62
2, 222749, Control_c, 0, 64, 0
2, 222757, Note_on_c, 0, 63, 58
2, 222770, Note_off_c, 0, 62, 64
2, 222770, Note_off_c, 0, 71, 64
2, 222830, Control_c, 0, 64, 127
2, 222857, Note_off_c, 0, 56, 64
2, 222969, Note_on_c, 0, 49, 46
2, 222971, Note_on_c, 0, 65, 62
2, 222986, Note_off_c, 0, 72, 64
2, 223002, Control_c, 0, 64, 0
2, 223069, Control_c, 0, 64, 127
2, 223150, Control_c, 0, 64, 0
2, 223152, Note_on_c, 0, 58, 41
2, 223158, Note_on_c, 0, 61, 46
2, 223168, Note_off_c, 0, 63, 64
2, 223219, Control_c, 0, 64, 127
2, 223325, Note_on_c, 0, 67, 66
2, 223326, Control_c, 0, 64, 0
2, 223333, Note_on_c, 0, 51, 46
2, 223346, Note_off_c, 0, 65, 64
2, 223351, Note_off_c, 0, 49, 64
2, 223384, Control_c, 0, 64, 127
2, 223474, Note_on_c, 0, 44, 55
2, 223490, Note_on_c, 0, 60, 71
2, 223510, Note_off_c, 0, 58, 64
2, 223515, Note_off_c, 0, 61, 64
2, 223581, Note_on_c, 0, 68, 67
2, 223604, Note_off_c, 0, 67, 64
2, 223613, Note_off_c, 0, 60, 64
2, 223635, Note_off_c, 0, 68, 64
2, 223644, Note_on_c, 0, 68, 73
2, 223655, Note_off_c, 0, 44, 64
2, 223676, Note_off_c, 0, 51, 64
2, 223716, Note_on_c, 0, 70, 60
2, 223743, Note_off_c, 0, 68, 64
2, 223785, Control_c, 0, 64, 0
2, 223800, Note_on_c, 0, 72, 67
2, 223803, Note_on_c, 0, 44, 56
2, 223810, Note_on_c, 0, 62, 71
2, 223810, Note_on_c, 0, 53, 57
2, 223820, Note_off_c, 0, 70, 64
2, 223853, Control_c, 0, 64, 127
2, 223960, Control_c, 0, 64, 0
2, 223974, Note_on_c, 0, 63, 73
2, 223984, Note_on_c, 0, 55, 42
2, 223984, Note_on_c, 0, 43, 42
2, 223995, Note_off_c, 0, 44, 64
2, 224002, Note_off_c, 0, 53, 64
2, 224002, Note_off_c, 0, 62, 64
2, 224019, Control_c, 0, 64, 127
2, 224058, Note_on_c, 0, 74, 64
2, 224087, Note_off_c, 0, 72, 64
2, 224148, Note_on_c, 0, 71, 59
2, 224156, Note_on_c, 0, 62, 67
2, 224164, Note_off_c, 0, 74, 64
2, 224166, Control_c, 0, 64, 0
2, 224175, Note_off_c, 0, 63, 64
2, 224200, Control_c, 0, 64, 127
2, 224288, Note_off_c, 0, 43, 64
2, 224288, Note_off_c, 0, 55, 64
2, 224302, Note_off_c, 0, 62, 64
2, 224325, Note_on_c, 0, 62, 51
2, 224325, Note_on_c, 0, 55, 55
2, 224330, Note_on_c, 0, 65, 77
2, 224414, Note_on_c, 0, 67, 50
2, 224419, Note_off_c, 0, 65, 64
2, 224464, Note_off_c, 0, 71, 64
2, 224494, Note_off_c, 0, 55, 64
2, 224494, Note_off_c, 0, 62, 64
2, 224517, Note_on_c, 0, 48, 50
2, 224525, Control_c, 0, 64, 0
2, 224528, Note_on_c, 0, 74, 55
2, 224528, Note_on_c, 0, 55, 42
2, 224536, Note_on_c, 0, 63, 47
2, 224569, Note_off_c, 0, 67, 64
2, 224574, Control_c, 0, 64, 127
2, 224646, Note_on_c, 0, 75, 62
2, 224662, Note_off_c, 0, 74, 64
2, 224698, Note_on_c, 0, 50, 63
2, 224703, Note_off_c, 0, 55, 64
2, 224729, Note_off_c, 0, 48, 64
2, 224754, Note_on_c, 0, 53, 57
2, 224764, Note_on_c, 0, 72, 63
2, 224778, Note_off_c, 0, 50, 64
2, 224787, Note_off_c, 0, 75, 64
2, 224805, Control_c, 0, 64, 0
2, 224907, Control_c, 0, 64, 127
2, 225018, Note_on_c, 0, 51, 56
2, 225042, Note_off_c, 0, 53, 64
2, 225055, Control_c, 0, 64, 0
2, 225110, Control_c, 0, 64, 127
2, 225135, Note_on_c, 0, 50, 63
2, 225145, Note_off_c, 0, 51, 64
2, 225283, Note_on_c, 0, 65, 65
2, 225290, Note_off_c, 0, 72, 64
2, 225290, Note_on_c, 0, 49, 64
2, 225306, Note_off_c, 0, 50, 64
2, 225319, Control_c, 0, 64, 0
2, 225379, Control_c, 0, 64, 127
2, 225387, Control_c, 0, 64, 127
2, 225515, Note_on_c, 0, 61, 44
2, 225517, Note_on_c, 0, 58, 50
2, 225546, Control_c, 0, 64, 127
2, 225548, Note_off_c, 0, 63, 64
2, 225721, Note_off_c, 0, 49, 64
2, 225723, Note_on_c, 0, 51, 59
2, 225726, Note_on_c, 0, 67, 59
2, 225735, Control_c, 0, 64, 0
2, 225744, Note_off_c, 0, 65, 64
2, 225811, Control_c, 0, 64, 127
2, 225881, Control_c, 0, 64, 0
2, 225952, Note_off_c, 0, 58, 64
2, 225964, Note_on_c, 0, 60, 59
2, 225964, Note_on_c, 0, 44, 63
2, 225965, Note_off_c, 0, 61, 64
2, 226010, Control_c, 0, 64, 127
2, 226074, Note_off_c, 0, 67, 64
2, 226091, Note_on_c, 0, 68, 72
2, 226149, Note_off_c, 0, 68, 64
2, 226154, Note_on_c, 0, 68, 69
2, 226172, Note_off_c, 0, 44, 64
2, 226188, Note_off_c, 0, 51, 64
2, 226272, Note_on_c, 0, 70, 55
2, 226288, Note_off_c, 0, 68, 64
2, 226384, Note_off_c, 0, 60, 64
2, 226384, Note_on_c, 0, 66, 47
2, 226388, Note_on_c, 0, 63, 44
2, 226388, Control_c, 0, 64, 0
2, 226395, Note_on_c, 0, 56, 55
2, 226396, Note_on_c, 0, 72, 64
2, 226398, Note_off_c, 0, 70, 64
2, 226439, Control_c, 0, 64, 127
2, 226626, Note_on_c, 0, 65, 58
2, 226633, Note_on_c, 0, 49, 50
2, 226642, Control_c, 0, 64, 0
2, 226650, Note_off_c, 0, 66, 64
2, 226654, Note_off_c, 0, 63, 64
2, 226717, Control_c, 0, 64, 127
2, 226724, Note_on_c, 0, 73, 57
2, 226743, Note_off_c, 0, 72, 64
2, 226822, Note_on_c, 0, 72, 65
2, 226840, Note_off_c, 0, 73, 64
2, 226966, Note_off_c, 0, 56, 64
2, 226998, Note_off_c, 0, 65, 64
2, 226998, Control_c, 0, 64, 0
2, 227004, Note_on_c, 0, 51, 59
2, 227007, Note_on_c, 0, 67, 46
2, 227007, Note_on_c, 0, 61, 58
2, 227030, Note_off_c, 0, 49, 64
2, 227050, Control_c, 0, 64, 127
2, 227100, Note_on_c, 0, 70, 57
2, 227110, Note_off_c, 0, 72, 64
2, 227215, Note_on_c, 0, 73, 62
2, 227220, Note_on_c, 0, 65, 47
2, 227227, Note_off_c, 0, 51, 64
2, 227228, Note_off_c, 0, 70, 64
2, 227228, Note_on_c, 0, 56, 50
2, 227230, Note_off_c, 0, 61, 64
2, 227231, Note_off_c, 0, 67, 64
2, 227241, Control_c, 0, 64, 0
2, 227273, Control_c, 0, 64, 127
2, 227324, Note_on_c, 0, 63, 51
2, 227331, Note_on_c, 0, 72, 46
2, 227341, Note_off_c, 0, 73, 64
2, 227346, Note_off_c, 0, 65, 64
2, 227380, Note_off_c, 0, 63, 64
2, 227387, Note_off_c, 0, 72, 64
2, 227400, Note_on_c, 0, 73, 59
2, 227440, Note_on_c, 0, 72, 59
2, 227440, Note_on_c, 0, 63, 55
2, 227469, Note_off_c, 0, 73, 64
2, 227475, Control_c, 0, 64, 0
2, 227531, Control_c, 0, 64, 127
2, 227544, Note_on_c, 0, 71, 42
2, 227544, Note_on_c, 0, 62, 49
2, 227564, Note_off_c, 0, 63, 64
2, 227564, Note_off_c, 0, 72, 64
2, 227673, Control_c, 0, 64, 0
2, 227688, Note_on_c, 0, 72, 58
2, 227688, Note_on_c, 0, 63, 56
2, 227705, Note_off_c, 0, 62, 64
2, 227705, Note_off_c, 0, 71, 64
2, 227755, Control_c, 0, 64, 127
2, 227822, Note_off_c, 0, 56, 64
2, 228000, Note_off_c, 0, 63, 64
2, 228000, Note_off_c, 0, 72, 64
2, 228068, Note_on_c, 0, 65, 56
2, 228076, Note_on_c, 0, 49, 50
2, 228085, Control_c, 0, 64, 0
2, 228148, Control_c, 0, 64, 127
2, 228308, Note_on_c, 0, 58, 36
2, 228311, Note_on_c, 0, 61, 31
2, 228341, Control_c, 0, 64, 0
2, 228373, Control_c, 0, 64, 127
2, 228524, Note_on_c, 0, 67, 57
2, 228540, Note_on_c, 0, 51, 32
2, 228563, Control_c, 0, 64, 0
2, 228581, Note_off_c, 0, 65, 64
2, 228589, Note_off_c, 0, 49, 64
2, 228616, Control_c, 0, 64, 127
2, 228783, Note_on_c, 0, 60, 49
2, 228787, Note_off_c, 0, 58, 64
2, 228787, Note_on_c, 0, 44, 48
2, 228790, Note_off_c, 0, 61, 64
2, 228810, Control_c, 0, 64, 0
2, 228864, Control_c, 0, 64, 127
2, 228988, Note_on_c, 0, 68, 59
2, 228994, Note_off_c, 0, 67, 64
2, 229032, Note_off_c, 0, 68, 64
2, 229052, Note_on_c, 0, 68, 51
2, 229198, Note_on_c, 0, 70, 49
2, 229230, Note_off_c, 0, 68, 64
2, 229434, Note_on_c, 0, 72, 41
2, 229446, Note_on_c, 0, 63, 34
2, 229449, Note_off_c, 0, 70, 64
2, 229486, Control_c, 0, 64, 0
2, 229628, Control_c, 0, 64, 127
2, 229665, Control_c, 0, 64, 0
2, 230281, Control_c, 0, 64, 127
2, 231021, Note_off_c, 0, 72, 64
2, 231030, Note_off_c, 0, 63, 64
2, 231041, Note_off_c, 0, 60, 64
2, 231047, Note_off_c, 0, 44, 64
2, 231054, Note_off_c, 0, 51, 64
2, 231307, Control_c, 0, 64, 0
2, 233291, Control_c, 0, 64, 0
2, 233329, Note_on_c, 0, 38, 58
2, 233332, Note_on_c, 0, 62, 58
2, 233338, Control_c, 0, 64, 127
2, 233400, Note_off_c, 0, 38, 64
2, 233403, Note_off_c, 0, 62, 64
2, 233537, Note_on_c, 0, 50, 49
2, 233540, Note_on_c, 0, 60, 58
2, 233541, Note_on_c, 0, 66, 54
2, 233541, Note_on_c, 0, 57, 52
2, 233621, Note_on_c, 0, 64, 51
2, 233624, Note_on_c, 0, 55, 50
2, 233625, Note_off_c, 0, 66, 64
2, 233638, Note_off_c, 0, 57, 64
2, 233704, Note_on_c, 0, 54, 48
2, 233708, Note_on_c, 0, 62, 63
2, 233730, Note_off_c, 0, 50, 64
2, 233736, Note_off_c, 0, 64, 64
2, 233739, Note_off_c, 0, 55, 64
2, 233788, Note_on_c, 0, 57, 62
2, 233790, Note_on_c, 0, 66, 63
2, 233817, Note_off_c, 0, 54, 64
2, 233821, Note_off_c, 0, 62, 64
2, 233868, Note_on_c, 0, 69, 62
2, 233874, Note_on_c, 0, 50, 62
2, 233877, Note_off_c, 0, 57, 64
2, 233879, Note_off_c, 0, 66, 64
2, 233891, Control_c, 0, 64, 0
2, 233904, Control_c, 0, 64, 127
2, 233930, Note_off_c, 0, 69, 64
2, 233990, Note_on_c, 0, 71, 54
2, 234013, Note_off_c, 0, 60, 64
2, 234036, Note_on_c, 0, 60, 58
2, 234036, Note_on_c, 0, 62, 64
2, 234039, Note_on_c, 0, 66, 59
2, 234042, Note_off_c, 0, 71, 64
2, 234043, Note_on_c, 0, 72, 62
2, 234078, Control_c, 0, 64, 0
2, 234143, Control_c, 0, 64, 127
2, 234353, Note_off_c, 0, 62, 64
2, 234353, Note_off_c, 0, 60, 64
2, 234356, Note_off_c, 0, 66, 64
2, 234360, Note_off_c, 0, 72, 64
2, 234388, Note_on_c, 0, 67, 54
2, 234389, Note_on_c, 0, 71, 58
2, 234389, Note_on_c, 0, 62, 54
2, 234389, Note_on_c, 0, 43, 63
2, 234462, Note_off_c, 0, 67, 64
2, 234463, Note_off_c, 0, 62, 64
2, 234463, Note_off_c, 0, 71, 64
2, 234476, Note_off_c, 0, 50, 64
2, 234488, Note_on_c, 0, 50, 58
2, 234490, Note_on_c, 0, 69, 51
2, 234492, Note_on_c, 0, 60, 59
2, 234539, Note_on_c, 0, 67, 66
2, 234540, Note_on_c, 0, 59, 58
2, 234540, Note_on_c, 0, 55, 63
2, 234550, Note_off_c, 0, 69, 64
2, 234552, Note_off_c, 0, 60, 64
2, 234556, Note_off_c, 0, 50, 64
2, 234572, Control_c, 0, 64, 0
2, 234585, Control_c, 0, 64, 127
2, 234694, Note_off_c, 0, 43, 64
2, 234708, Note_off_c, 0, 67, 64
2, 234709, Note_off_c, 0, 59, 64
2, 234711, Note_on_c, 0, 62, 51
2, 234712, Note_on_c, 0, 71, 62
2, 234712, Note_on_c, 0, 59, 58
2, 234727, Note_on_c, 0, 43, 64
2, 234872, Note_on_c, 0, 49, 48
2, 234880, Note_off_c, 0, 62, 64
2, 234881, Note_off_c, 0, 59, 64
2, 234902, Note_on_c, 0, 67, 63
2, 234902, Note_on_c, 0, 64, 59
2, 234906, Note_on_c, 0, 76, 65
2, 234908, Note_off_c, 0, 55, 64
2, 234910, Note_on_c, 0, 58, 70
2, 234915, Note_off_c, 0, 71, 64
2, 234925, Control_c, 0, 64, 0
2, 234958, Control_c, 0, 64, 127
2, 235037, Note_off_c, 0, 43, 64
2, 235084, Note_off_c, 0, 67, 64
2, 235112, Note_on_c, 0, 43, 56
2, 235116, Note_on_c, 0, 59, 54
2, 235116, Note_on_c, 0, 62, 64
2, 235116, Note_on_c, 0, 67, 71
2, 235116, Note_on_c, 0, 74, 64
2, 235120, Note_on_c, 0, 50, 50
2, 235129, Control_c, 0, 64, 0
2, 235136, Note_off_c, 0, 58, 64
2, 235136, Note_off_c, 0, 49, 64
2, 235146, Note_off_c, 0, 64, 64
2, 235150, Note_off_c, 0, 76, 64
2, 235174, Control_c, 0, 64, 127
2, 235476, Note_off_c, 0, 43, 64
2, 235480, Note_off_c, 0, 74, 64
2, 235480, Note_off_c, 0, 67, 64
2, 235480, Note_off_c, 0, 62, 64
2, 235480, Note_off_c, 0, 59, 64
2, 235484, Note_off_c, 0, 50, 64
2, 235538, Note_on_c, 0, 38, 59
2, 235538, Control_c, 0, 64, 0
2, 235546, Note_on_c, 0, 62, 63
2, 235582, Control_c, 0, 64, 127
2, 235599, Note_off_c, 0, 38, 64
2, 235616, Note_off_c, 0, 62, 64
2, 235736, Note_on_c, 0, 60, 62
2, 235736, Note_on_c, 0, 57, 62
2, 235737, Note_on_c, 0, 66, 56
2, 235737, Control_c, 0, 64, 0
2, 235740, Note_on_c, 0, 50, 58
2, 235765, Control_c, 0, 64, 127
2, 235804, Note_on_c, 0, 55, 52
2, 235805, Note_on_c, 0, 64, 54
2, 235823, Note_off_c, 0, 57, 64
2, 235824, Note_off_c, 0, 66, 64
2, 235892, Note_on_c, 0, 54, 47
2, 235894, Note_on_c, 0, 62, 63
2, 235909, Note_off_c, 0, 55, 64
2, 235910, Note_off_c, 0, 64, 64
2, 235931, Note_off_c, 0, 50, 64
2, 235952, Note_on_c, 0, 57, 64
2, 235959, Note_on_c, 0, 66, 62
2, 236003, Note_off_c, 0, 54, 64
2, 236005, Note_off_c, 0, 62, 64
2, 236040, Note_on_c, 0, 50, 72
2, 236040, Note_on_c, 0, 69, 59
2, 236049, Note_off_c, 0, 57, 64
2, 236052, Control_c, 0, 64, 0
2, 236056, Note_off_c, 0, 66, 64
2, 236077, Control_c, 0, 64, 127
2, 236100, Note_off_c, 0, 60, 64
2, 236137, Note_off_c, 0, 69, 64
2, 236205, Note_on_c, 0, 71, 55
2, 236248, Note_on_c, 0, 66, 62
2, 236248, Note_on_c, 0, 62, 58
2, 236248, Note_on_c, 0, 60, 57
2, 236251, Note_on_c, 0, 72, 57
2, 236253, Note_off_c, 0, 71, 64
2, 236284, Control_c, 0, 64, 0
2, 236345, Control_c, 0, 64, 127
2, 236565, Note_off_c, 0, 60, 64
2, 236565, Note_off_c, 0, 62, 64
2, 236565, Note_off_c, 0, 66, 64
2, 236568, Note_off_c, 0, 72, 64
2, 236590, Note_on_c, 0, 62, 52
2, 236592, Note_on_c, 0, 67, 54
2, 236595, Note_on_c, 0, 71, 58
2, 236596, Note_on_c, 0, 43, 63
2, 236611, Control_c, 0, 64, 0
2, 236625, Control_c, 0, 64, 127
2, 236661, Note_off_c, 0, 50, 64
2, 236665, Note_off_c, 0, 62, 64
2, 236666, Note_off_c, 0, 67, 64
2, 236670, Note_off_c, 0, 71, 64
2, 236694, Note_on_c, 0, 50, 51
2, 236699, Note_on_c, 0, 69, 44
2, 236703, Note_on_c, 0, 60, 58
2, 236740, Note_on_c, 0, 55, 59
2, 236744, Note_on_c, 0, 59, 62
2, 236748, Note_on_c, 0, 67, 66
2, 236751, Note_off_c, 0, 69, 64
2, 236755, Note_off_c, 0, 60, 64
2, 236758, Note_off_c, 0, 43, 64
2, 236760, Note_off_c, 0, 50, 64
2, 236771, Control_c, 0, 64, 0
2, 236792, Control_c, 0, 64, 127
2, 236916, Note_on_c, 0, 60, 58
2, 236922, Note_on_c, 0, 64, 56
2, 236929, Note_on_c, 0, 48, 54
2, 236938, Note_off_c, 0, 59, 64
2, 236942, Note_off_c, 0, 67, 64
2, 236942, Control_c, 0, 64, 0
2, 236975, Control_c, 0, 64, 127
2, 237096, Note_on_c, 0, 62, 56
2, 237100, Note_off_c, 0, 60, 64
2, 237100, Note_on_c, 0, 59, 56
2, 237100, Note_on_c, 0, 67, 58
2, 237105, Note_on_c, 0, 43, 62
2, 237112, Note_off_c, 0, 48, 64
2, 237112, Note_off_c, 0, 64, 64
2, 237120, Control_c, 0, 64, 0
2, 237154, Control_c, 0, 64, 127
2, 237282, Note_off_c, 0, 55, 64
2, 237284, Note_on_c, 0, 60, 54
2, 237286, Note_on_c, 0, 64, 52
2, 237286, Note_on_c, 0, 48, 48
2, 237288, Note_on_c, 0, 55, 54
2, 237309, Control_c, 0, 64, 0
2, 237320, Note_off_c, 0, 62, 64
2, 237324, Note_off_c, 0, 67, 64
2, 237324, Note_off_c, 0, 59, 64
2, 237329, Note_off_c, 0, 43, 64
2, 237376, Control_c, 0, 64, 127
2, 237488, Note_on_c, 0, 45, 51
2, 237526, Note_off_c, 0, 48, 64
2, 237568, Control_c, 0, 64, 0
2, 237660, Note_off_c, 0, 60, 64
2, 237664, Note_off_c, 0, 55, 64
2, 237665, Note_off_c, 0, 64, 64
2, 237670, Note_on_c, 0, 62, 58
2, 237670, Note_on_c, 0, 60, 58
2, 237672, Note_on_c, 0, 54, 62
2, 237672, Note_on_c, 0, 38, 59
2, 237679, Control_c, 0, 64, 0
2, 237694, Control_c, 0, 64, 127
2, 237705, Note_off_c, 0, 45, 64
2, 237728, Note_off_c, 0, 60, 64
2, 237728, Note_off_c, 0, 62, 64
2, 237730, Note_off_c, 0, 38, 64
2, 237730, Note_off_c, 0, 54, 64
2, 237844, Note_on_c, 0, 50, 50
2, 237848, Note_on_c, 0, 66, 54
2, 237848, Note_on_c, 0, 60, 52
2, 237851, Note_on_c, 0, 57, 55
2, 237874, Control_c, 0, 64, 0
2, 237887, Control_c, 0, 64, 127
2, 237934, Note_on_c, 0, 64, 49
2, 237934, Note_on_c, 0, 55, 49
2, 237939, Note_off_c, 0, 60, 64
2, 237948, Note_off_c, 0, 57, 64
2, 237950, Note_off_c, 0, 66, 64
2, 238003, Note_on_c, 0, 54, 47
2, 238004, Note_on_c, 0, 62, 63
2, 238027, Note_off_c, 0, 55, 64
2, 238027, Note_off_c, 0, 64, 64
2, 238084, Note_on_c, 0, 66, 71
2, 238088, Note_on_c, 0, 57, 63
2, 238110, Note_off_c, 0, 50, 64
2, 238112, Note_off_c, 0, 62, 64
2, 238124, Note_off_c, 0, 54, 64
2, 238164, Note_on_c, 0, 69, 58
2, 238170, Note_off_c, 0, 57, 64
2, 238170, Note_on_c, 0, 50, 64
2, 238170, Control_c, 0, 64, 0
2, 238176, Note_off_c, 0, 66, 64
2, 238198, Control_c, 0, 64, 127
2, 238221, Note_off_c, 0, 69, 64
2, 238275, Note_on_c, 0, 71, 54
2, 238316, Note_on_c, 0, 62, 58
2, 238316, Note_on_c, 0, 60, 58
2, 238321, Note_on_c, 0, 72, 62
2, 238321, Note_on_c, 0, 66, 59
2, 238327, Note_off_c, 0, 71, 64
2, 238352, Control_c, 0, 64, 0
2, 238404, Control_c, 0, 64, 127
2, 238502, Note_off_c, 0, 50, 64
2, 238633, Note_off_c, 0, 60, 64
2, 238633, Note_off_c, 0, 62, 64
2, 238638, Note_off_c, 0, 66, 64
2, 238638, Note_off_c, 0, 72, 64
2, 238656, Note_on_c, 0, 67, 54
2, 238660, Note_on_c, 0, 62, 52
2, 238661, Note_on_c, 0, 71, 58
2, 238666, Note_on_c, 0, 43, 59
2, 238730, Note_off_c, 0, 67, 64
2, 238734, Note_off_c, 0, 62, 64
2, 238735, Note_off_c, 0, 71, 64
2, 238752, Note_on_c, 0, 60, 55
2, 238753, Note_on_c, 0, 69, 52
2, 238755, Note_on_c, 0, 50, 55
2, 238804, Note_on_c, 0, 55, 63
2, 238804, Note_on_c, 0, 67, 66
2, 238804, Note_on_c, 0, 59, 67
2, 238816, Note_off_c, 0, 60, 64
2, 238817, Note_off_c, 0, 69, 64
2, 238819, Note_off_c, 0, 50, 64
2, 238819, Note_off_c, 0, 43, 64
2, 238836, Control_c, 0, 64, 0
2, 238859, Control_c, 0, 64, 127
2, 238984, Note_off_c, 0, 59, 64
2, 238984, Note_off_c, 0, 67, 64
2, 238992, Note_on_c, 0, 43, 62
2, 238992, Note_on_c, 0, 71, 58
2, 238996, Note_on_c, 0, 59, 58
2, 238996, Note_on_c, 0, 62, 63
2, 239004, Control_c, 0, 64, 0
2, 239117, Note_on_c, 0, 65, 58
2, 239164, Note_off_c, 0, 71, 64
2, 239184, Note_off_c, 0, 59, 64
2, 239188, Note_on_c, 0, 76, 70
2, 239203, Note_on_c, 0, 59, 69
2, 239209, Note_off_c, 0, 62, 64
2, 239216, Note_off_c, 0, 55, 64
2, 239229, Control_c, 0, 64, 0
2, 239266, Control_c, 0, 64, 127
2, 239522, Note_off_c, 0, 65, 64
2, 239553, Note_on_c, 0, 71, 54
2, 239556, Note_on_c, 0, 65, 51
2, 239560, Note_on_c, 0, 74, 56
2, 239560, Note_on_c, 0, 44, 55
2, 239567, Note_off_c, 0, 76, 64
2, 239574, Note_off_c, 0, 43, 64
2, 239678, Note_off_c, 0, 74, 64
2, 239701, Note_on_c, 0, 74, 56
2, 239736, Note_on_c, 0, 64, 62
2, 239736, Note_on_c, 0, 45, 49
2, 239740, Note_on_c, 0, 72, 62
2, 239740, Note_on_c, 0, 69, 54
2, 239748, Note_off_c, 0, 44, 64
2, 239751, Note_off_c, 0, 59, 64
2, 239754, Note_off_c, 0, 71, 64
2, 239757, Note_off_c, 0, 65, 64
2, 239759, Note_off_c, 0, 74, 64
2, 239881, Note_on_c, 0, 68, 58
2, 239881, Note_on_c, 0, 62, 55
2, 239887, Note_on_c, 0, 71, 54
2, 239887, Note_on_c, 0, 47, 49
2, 239893, Note_off_c, 0, 45, 64
2, 239893, Note_off_c, 0, 64, 64
2, 239897, Note_off_c, 0, 69, 64
2, 239897, Note_off_c, 0, 72, 64
2, 239932, Note_on_c, 0, 64, 55
2, 239936, Note_on_c, 0, 48, 56
2, 239936, Note_on_c, 0, 69, 58
2, 239937, Note_off_c, 0, 62, 64
2, 239937, Note_off_c, 0, 68, 64
2, 239943, Note_off_c, 0, 47, 64
2, 239943, Note_off_c, 0, 71, 64
2, 239949, Control_c, 0, 64, 0
2, 239973, Control_c, 0, 64, 127
2, 240117, Note_on_c, 0, 71, 43
2, 240119, Note_on_c, 0, 50, 46
2, 240123, Note_off_c, 0, 64, 64
2, 240123, Note_on_c, 0, 62, 46
2, 240127, Note_off_c, 0, 69, 64
2, 240127, Note_off_c, 0, 48, 64
2, 240127, Note_on_c, 0, 65, 44
2, 240154, Control_c, 0, 64, 0
2, 240178, Control_c, 0, 64, 127
2, 240310, Note_on_c, 0, 69, 46
2, 240317, Note_on_c, 0, 64, 57
2, 240319, Note_on_c, 0, 60, 58
2, 240319, Note_on_c, 0, 52, 50
2, 240323, Note_off_c, 0, 71, 64
2, 240325, Note_off_c, 0, 50, 64
2, 240329, Note_off_c, 0, 62, 64
2, 240333, Note_off_c, 0, 65, 64
2, 240431, Note_off_c, 0, 69, 64
2, 240440, Note_off_c, 0, 60, 64
2, 240440, Note_on_c, 0, 59, 58
2, 240444, Note_on_c, 0, 68, 55
2, 240480, Note_on_c, 0, 40, 49
2, 240486, Note_on_c, 0, 71, 57
2, 240492, Note_off_c, 0, 59, 64
2, 240492, Note_on_c, 0, 62, 60
2, 240496, Note_off_c, 0, 68, 64
2, 240502, Control_c, 0, 64, 0
2, 240528, Control_c, 0, 64, 127
2, 240673, Note_off_c, 0, 40, 64
2, 240681, Note_on_c, 0, 69, 50
2, 240686, Note_on_c, 0, 60, 54
2, 240689, Note_on_c, 0, 45, 50
2, 240700, Note_off_c, 0, 52, 64
2, 240704, Note_off_c, 0, 71, 64
2, 240709, Control_c, 0, 64, 0
2, 240710, Note_off_c, 0, 62, 64
2, 240720, Control_c, 0, 64, 127
2, 240839, Note_off_c, 0, 69, 64
2, 240840, Note_off_c, 0, 64, 64
2, 240844, Note_off_c, 0, 60, 64
2, 240847, Note_off_c, 0, 45, 64
2, 240876, Note_on_c, 0, 62, 49
2, 240876, Note_on_c, 0, 71, 49
2, 240879, Note_on_c, 0, 66, 46
2, 240882, Note_on_c, 0, 50, 49
2, 240997, Note_on_c, 0, 69, 46
2, 240999, Note_on_c, 0, 60, 60
2, 241008, Note_off_c, 0, 71, 64
2, 241008, Note_off_c, 0, 62, 64
2, 241042, Note_on_c, 0, 67, 48
2, 241044, Note_on_c, 0, 59, 49
2, 241051, Note_off_c, 0, 69, 64
2, 241051, Note_off_c, 0, 50, 64
2, 241051, Note_on_c, 0, 55, 54
2, 241052, Note_off_c, 0, 66, 64
2, 241053, Note_off_c, 0, 60, 64
2, 241065, Control_c, 0, 64, 0
2, 241098, Control_c, 0, 64, 127
2, 241230, Note_on_c, 0, 69, 51
2, 241230, Note_on_c, 0, 64, 51
2, 241230, Note_on_c, 0, 60, 46
2, 241235, Note_off_c, 0, 67, 64
2, 241237, Note_off_c, 0, 59, 64
2, 241240, Note_on_c, 0, 48, 50
2, 241252, Note_off_c, 0, 55, 64
2, 241262, Control_c, 0, 64, 0
2, 241276, Control_c, 0, 64, 127
2, 241413, Note_on_c, 0, 67, 49
2, 241415, Note_on_c, 0, 62, 48
2, 241422, Note_off_c, 0, 60, 64
2, 241422, Note_off_c, 0, 64, 64
2, 241422, Note_off_c, 0, 69, 64
2, 241423, Note_on_c, 0, 50, 50
2, 241423, Note_on_c, 0, 59, 55
2, 241432, Note_off_c, 0, 48, 64
2, 241540, Note_on_c, 0, 66, 48
2, 241544, Note_on_c, 0, 57, 57
2, 241560, Note_off_c, 0, 67, 64
2, 241570, Note_off_c, 0, 59, 64
2, 241586, Note_on_c, 0, 69, 54
2, 241591, Note_on_c, 0, 60, 60
2, 241591, Note_on_c, 0, 38, 46
2, 241594, Note_off_c, 0, 66, 64
2, 241598, Note_off_c, 0, 57, 64
2, 241611, Control_c, 0, 64, 0
2, 241633, Control_c, 0, 64, 127
2, 241723, Note_off_c, 0, 60, 64
2, 241808, Note_on_c, 0, 59, 54
2, 241809, Note_off_c, 0, 69, 64
2, 241812, Note_on_c, 0, 43, 50
2, 241813, Note_on_c, 0, 67, 47
2, 241820, Note_off_c, 0, 38, 64
2, 241832, Control_c, 0, 64, 0
2, 241845, Control_c, 0, 64, 127
2, 241942, Note_off_c, 0, 62, 64
2, 241947, Note_off_c, 0, 59, 64
2, 241952, Note_off_c, 0, 67, 64
2, 241979, Note_off_c, 0, 50, 64
2, 242020, Note_on_c, 0, 40, 62
2, 242027, Note_on_c, 0, 70, 71
2, 242037, Note_off_c, 0, 43, 64
2, 242041, Control_c, 0, 64, 0
2, 242063, Control_c, 0, 64, 127
2, 242093, Note_off_c, 0, 70, 64
2, 242176, Note_on_c, 0, 71, 55
2, 242197, Note_off_c, 0, 40, 64
2, 242235, Note_off_c, 0, 71, 64
2, 242237, Note_on_c, 0, 64, 67
2, 242244, Note_on_c, 0, 52, 58
2, 242247, Note_on_c, 0, 55, 63
2, 242267, Control_c, 0, 64, 0
2, 242386, Control_c, 0, 64, 127
2, 242601, Note_on_c, 0, 66, 44
2, 242689, Note_off_c, 0, 55, 64
2, 242712, Note_on_c, 0, 67, 48
2, 242721, Note_off_c, 0, 66, 64
2, 242772, Note_on_c, 0, 55, 48
2, 242775, Note_on_c, 0, 71, 47
2, 242793, Note_off_c, 0, 67, 64
2, 242830, Note_on_c, 0, 72, 42
2, 242841, Note_off_c, 0, 71, 64
2, 242873, Note_on_c, 0, 71, 46
2, 242894, Note_off_c, 0, 72, 64
2, 242944, Note_on_c, 0, 69, 48
2, 242950, Note_off_c, 0, 71, 64
2, 242950, Note_on_c, 0, 54, 41
2, 242960, Note_off_c, 0, 55, 64
2, 242962, Control_c, 0, 64, 0
2, 243006, Control_c, 0, 64, 127
2, 243032, Note_on_c, 0, 71, 42
2, 243032, Note_on_c, 0, 55, 39
2, 243047, Note_off_c, 0, 69, 64
2, 243057, Note_off_c, 0, 54, 64
2, 243120, Note_on_c, 0, 72, 42
2, 243120, Note_on_c, 0, 57, 39
2, 243134, Note_off_c, 0, 55, 64
2, 243134, Note_off_c, 0, 71, 64
2, 243134, Control_c, 0, 64, 0
2, 243192, Note_on_c, 0, 59, 50
2, 243199, Note_on_c, 0, 74, 44
2, 243213, Control_c, 0, 64, 127
2, 243220, Note_off_c, 0, 57, 64
2, 243220, Note_off_c, 0, 72, 64
2, 243236, Control_c, 0, 64, 0
2, 243280, Note_on_c, 0, 60, 28
2, 243281, Note_on_c, 0, 76, 49
2, 243296, Note_off_c, 0, 59, 64
2, 243303, Note_off_c, 0, 74, 64
2, 243452, Note_on_c, 0, 59, 31
2, 243453, Control_c, 0, 64, 127
2, 243457, Note_on_c, 0, 74, 44
2, 243493, Note_off_c, 0, 60, 64
2, 243494, Note_off_c, 0, 76, 64
2, 243506, Note_off_c, 0, 52, 64
2, 243540, Note_on_c, 0, 72, 51
2, 243540, Note_on_c, 0, 57, 44
2, 243550, Note_off_c, 0, 59, 64
2, 243555, Note_off_c, 0, 74, 64
2, 243596, Note_on_c, 0, 71, 50
2, 243603, Note_off_c, 0, 72, 64
2, 243616, Note_on_c, 0, 72, 44
2, 243630, Note_off_c, 0, 71, 64
2, 243646, Note_on_c, 0, 55, 48
2, 243648, Note_on_c, 0, 71, 58
2, 243655, Note_off_c, 0, 57, 64
2, 243664, Note_off_c, 0, 72, 64
2, 243772, Note_on_c, 0, 70, 51
2, 243772, Note_on_c, 0, 54, 49
2, 243778, Note_off_c, 0, 55, 64
2, 243780, Note_off_c, 0, 71, 64
2, 243818, Note_on_c, 0, 71, 50
2, 243820, Note_on_c, 0, 55, 46
2, 243830, Note_off_c, 0, 54, 64
2, 243830, Note_off_c, 0, 70, 64
2, 243844, Control_c, 0, 64, 0
2, 243900, Control_c, 0, 64, 127
2, 244008, Note_on_c, 0, 59, 41
2, 244012, Note_on_c, 0, 67, 44
2, 244021, Note_off_c, 0, 71, 64
2, 244053, Note_off_c, 0, 55, 64
2, 244105, Note_off_c, 0, 59, 64
2, 244109, Note_off_c, 0, 67, 64
2, 244116, Note_off_c, 0, 64, 64
2, 244195, Note_on_c, 0, 40, 63
2, 244200, Note_on_c, 0, 70, 73
2, 244212, Control_c, 0, 64, 0
2, 244248, Control_c, 0, 64, 127
2, 244276, Note_off_c, 0, 70, 64
2, 244351, Note_on_c, 0, 71, 51
2, 244372, Note_off_c, 0, 40, 64
2, 244400, Note_on_c, 0, 64, 67
2, 244404, Note_on_c, 0, 55, 58
2, 244409, Note_on_c, 0, 52, 58
2, 244413, Note_off_c, 0, 71, 64
2, 244433, Control_c, 0, 64, 0
2, 244564, Control_c, 0, 64, 127
2, 244780, Note_on_c, 0, 66, 48
2, 244784, Note_off_c, 0, 55, 64
2, 244873, Note_on_c, 0, 67, 49
2, 244875, Note_off_c, 0, 66, 64
2, 244944, Note_on_c, 0, 71, 49
2, 244944, Note_on_c, 0, 55, 51
2, 244953, Note_off_c, 0, 67, 64
2, 244975, Control_c, 0, 64, 0
2, 244991, Control_c, 0, 64, 127
2, 245004, Note_on_c, 0, 72, 35
2, 245015, Note_off_c, 0, 71, 64
2, 245049, Note_on_c, 0, 71, 51
2, 245066, Note_off_c, 0, 72, 64
2, 245124, Note_on_c, 0, 54, 42
2, 245125, Note_on_c, 0, 69, 58
2, 245134, Control_c, 0, 64, 0
2, 245139, Note_off_c, 0, 71, 64
2, 245152, Note_off_c, 0, 55, 64
2, 245164, Control_c, 0, 64, 127
2, 245213, Note_on_c, 0, 71, 51
2, 245216, Note_on_c, 0, 55, 37
2, 245228, Note_off_c, 0, 54, 64
2, 245229, Note_off_c, 0, 69, 64
2, 245297, Note_on_c, 0, 72, 57
2, 245298, Note_on_c, 0, 57, 39
2, 245302, Note_off_c, 0, 71, 64
2, 245305, Note_off_c, 0, 55, 64
2, 245313, Control_c, 0, 64, 0
2, 245337, Control_c, 0, 64, 127
2, 245382, Note_on_c, 0, 74, 54
2, 245383, Note_on_c, 0, 59, 49
2, 245393, Note_off_c, 0, 72, 64
2, 245394, Note_off_c, 0, 57, 64
2, 245460, Note_on_c, 0, 76, 58
2, 245460, Note_on_c, 0, 60, 50
2, 245482, Note_off_c, 0, 74, 64
2, 245483, Note_off_c, 0, 59, 64
2, 245620, Note_on_c, 0, 59, 40
2, 245625, Note_on_c, 0, 74, 47
2, 245637, Note_off_c, 0, 60, 64
2, 245637, Note_off_c, 0, 76, 64
2, 245700, Note_on_c, 0, 57, 31
2, 245707, Note_on_c, 0, 72, 50
2, 245723, Note_off_c, 0, 59, 64
2, 245728, Note_off_c, 0, 74, 64
2, 245798, Note_on_c, 0, 71, 62
2, 245802, Note_on_c, 0, 55, 52
2, 245808, Note_off_c, 0, 72, 64
2, 245809, Note_off_c, 0, 57, 64
2, 245920, Note_on_c, 0, 72, 47
2, 245920, Note_on_c, 0, 57, 51
2, 245934, Note_off_c, 0, 71, 64
2, 245938, Note_off_c, 0, 55, 64
2, 245964, Note_on_c, 0, 55, 56
2, 245965, Note_on_c, 0, 71, 37
2, 245980, Note_off_c, 0, 57, 64
2, 245980, Note_off_c, 0, 72, 64
2, 246016, Note_on_c, 0, 72, 58
2, 246021, Note_off_c, 0, 71, 64
2, 246069, Note_on_c, 0, 71, 59
2, 246083, Note_off_c, 0, 72, 64
2, 246088, Note_off_c, 0, 52, 64
2, 246137, Note_off_c, 0, 55, 64
2, 246143, Note_off_c, 0, 71, 64
2, 246144, Note_on_c, 0, 67, 58
2, 246144, Note_on_c, 0, 61, 65
2, 246145, Note_on_c, 0, 52, 48
2, 246146, Note_on_c, 0, 45, 56
2, 246148, Note_off_c, 0, 64, 64
2, 246246, Note_on_c, 0, 64, 49
2, 246248, Note_on_c, 0, 55, 62
2, 246255, Note_off_c, 0, 61, 64
2, 246260, Note_off_c, 0, 67, 64
2, 246261, Note_off_c, 0, 52, 64
2, 246340, Note_on_c, 0, 62, 73
2, 246340, Note_on_c, 0, 38, 71
2, 246345, Control_c, 0, 64, 0
2, 246359, Note_off_c, 0, 64, 64
2, 246361, Note_off_c, 0, 55, 64
2, 246362, Note_off_c, 0, 45, 64
2, 246390, Control_c, 0, 64, 127
2, 246398, Note_off_c, 0, 38, 64
2, 246398, Note_off_c, 0, 62, 64
2, 246520, Note_on_c, 0, 50, 57
2, 246520, Note_on_c, 0, 60, 65
2, 246520, Note_on_c, 0, 66, 73
2, 246521, Note_on_c, 0, 57, 63
2, 246535, Control_c, 0, 64, 0
2, 246556, Control_c, 0, 64, 127
2, 246604, Note_on_c, 0, 64, 50
2, 246604, Note_on_c, 0, 55, 59
2, 246612, Note_off_c, 0, 66, 64
2, 246617, Note_off_c, 0, 57, 64
2, 246692, Note_on_c, 0, 54, 46
2, 246692, Note_on_c, 0, 62, 75
2, 246705, Note_off_c, 0, 55, 64
2, 246705, Note_off_c, 0, 64, 64
2, 246768, Note_on_c, 0, 66, 67
2, 246768, Note_on_c, 0, 57, 71
2, 246810, Note_off_c, 0, 62, 64
2, 246827, Note_off_c, 0, 50, 64
2, 246830, Note_off_c, 0, 54, 64
2, 246835, Note_on_c, 0, 69, 62
2, 246839, Note_on_c, 0, 50, 63
2, 246844, Control_c, 0, 64, 0
2, 246849, Note_off_c, 0, 57, 64
2, 246849, Note_off_c, 0, 66, 64
2, 246866, Control_c, 0, 64, 127
2, 246891, Note_off_c, 0, 69, 64
2, 246950, Note_on_c, 0, 71, 58
2, 246965, Note_off_c, 0, 60, 64
2, 247000, Note_on_c, 0, 62, 63
2, 247000, Note_on_c, 0, 60, 63
2, 247003, Note_on_c, 0, 66, 64
2, 247005, Note_on_c, 0, 72, 64
2, 247009, Note_off_c, 0, 71, 64
2, 247018, Control_c, 0, 64, 0
2, 247092, Control_c, 0, 64, 127
2, 247186, Control_c, 0, 64, 0
2, 247317, Note_off_c, 0, 60, 64
2, 247317, Note_off_c, 0, 62, 64
2, 247320, Note_off_c, 0, 66, 64
2, 247322, Note_off_c, 0, 72, 64
2, 247336, Control_c, 0, 64, 0
2, 247339, Note_off_c, 0, 50, 64
2, 247340, Note_on_c, 0, 67, 54
2, 247342, Note_on_c, 0, 62, 51
2, 247343, Note_on_c, 0, 71, 58
2, 247343, Note_on_c, 0, 43, 64
2, 247357, Control_c, 0, 64, 127
2, 247425, Note_off_c, 0, 67, 64
2, 247427, Note_off_c, 0, 62, 64
2, 247428, Note_off_c, 0, 71, 64
2, 247440, Note_on_c, 0, 69, 51
2, 247441, Note_on_c, 0, 50, 58
2, 247447, Note_on_c, 0, 60, 62
2, 247467, Note_off_c, 0, 43, 64
2, 247493, Note_on_c, 0, 67, 64
2, 247496, Note_on_c, 0, 59, 59
2, 247496, Note_on_c, 0, 55, 63
2, 247498, Note_off_c, 0, 69, 64
2, 247505, Note_off_c, 0, 60, 64
2, 247507, Note_off_c, 0, 50, 64
2, 247510, Control_c, 0, 64, 0
2, 247555, Control_c, 0, 64, 127
2, 247670, Control_c, 0, 64, 0
2, 247672, Note_off_c, 0, 55, 64
2, 247672, Note_off_c, 0, 59, 64
2, 247672, Note_on_c, 0, 71, 62
2, 247676, Note_on_c, 0, 59, 59
2, 247678, Note_on_c, 0, 43, 62
2, 247680, Note_on_c, 0, 62, 63
2, 247689, Note_off_c, 0, 67, 64
2, 247809, Note_on_c, 0, 49, 51
2, 247819, Note_off_c, 0, 59, 64
2, 247822, Note_off_c, 0, 62, 64
2, 247856, Note_on_c, 0, 76, 64
2, 247860, Note_on_c, 0, 67, 56
2, 247860, Note_on_c, 0, 64, 51
2, 247866, Note_on_c, 0, 58, 63
2, 247872, Note_off_c, 0, 71, 64
2, 247879, Control_c, 0, 64, 0
2, 247908, Control_c, 0, 64, 127
2, 248074, Note_off_c, 0, 43, 64
2, 248090, Note_off_c, 0, 67, 64
2, 248100, Note_on_c, 0, 67, 64
2, 248100, Note_on_c, 0, 59, 65
2, 248100, Note_on_c, 0, 50, 54
2, 248103, Note_on_c, 0, 74, 62
2, 248104, Note_on_c, 0, 62, 63
2, 248104, Note_on_c, 0, 43, 57
2, 248117, Note_off_c, 0, 76, 64
2, 248121, Note_off_c, 0, 64, 64
2, 248121, Control_c, 0, 64, 0
2, 248126, Note_off_c, 0, 49, 64
2, 248127, Note_off_c, 0, 58, 64
2, 248194, Control_c, 0, 64, 127
2, 248464, Note_off_c, 0, 50, 64
2, 248464, Note_off_c, 0, 59, 64
2, 248464, Note_off_c, 0, 67, 64
2, 248467, Note_off_c, 0, 74, 64
2, 248468, Note_off_c, 0, 43, 64
2, 248468, Note_off_c, 0, 62, 64
2, 248501, Control_c, 0, 64, 0
2, 248532, Note_on_c, 0, 62, 70
2, 248532, Note_on_c, 0, 38, 62
2, 248581, Control_c, 0, 64, 127
2, 248590, Note_off_c, 0, 38, 64
2, 248590, Note_off_c, 0, 62, 64
2, 248724, Note_on_c, 0, 50, 58
2, 248727, Note_on_c, 0, 57, 62
2, 248728, Note_on_c, 0, 66, 56
2, 248728, Note_on_c, 0, 60, 62
2, 248796, Note_on_c, 0, 64, 54
2, 248796, Note_on_c, 0, 55, 51
2, 248816, Note_off_c, 0, 57, 64
2, 248836, Note_off_c, 0, 66, 64
2, 248880, Note_on_c, 0, 62, 64
2, 248880, Note_on_c, 0, 54, 46
2, 248906, Note_off_c, 0, 55, 64
2, 248906, Note_off_c, 0, 64, 64
2, 248953, Note_on_c, 0, 66, 57
2, 248954, Note_on_c, 0, 57, 58
2, 248970, Note_off_c, 0, 54, 64
2, 248970, Note_off_c, 0, 62, 64
2, 249006, Note_off_c, 0, 50, 64
2, 249026, Note_off_c, 0, 66, 64
2, 249033, Note_off_c, 0, 57, 64
2, 249036, Note_on_c, 0, 69, 62
2, 249044, Note_on_c, 0, 50, 64
2, 249051, Control_c, 0, 64, 0
2, 249074, Control_c, 0, 64, 127
2, 249103, Note_off_c, 0, 69, 64
2, 249151, Note_on_c, 0, 71, 54
2, 249203, Note_off_c, 0, 71, 64
2, 249206, Note_on_c, 0, 72, 62
2, 249206, Note_on_c, 0, 66, 64
2, 249208, Note_off_c, 0, 60, 64
2, 249208, Note_on_c, 0, 62, 62
2, 249212, Note_on_c, 0, 60, 59
2, 249227, Control_c, 0, 64, 0
2, 249292, Control_c, 0, 64, 127
2, 249523, Note_off_c, 0, 66, 64
2, 249523, Note_off_c, 0, 72, 64
2, 249525, Note_off_c, 0, 62, 64
2, 249529, Note_off_c, 0, 60, 64
2, 249561, Control_c, 0, 64, 127
2, 249564, Note_on_c, 0, 43, 62
2, 249564, Note_on_c, 0, 62, 54
2, 249564, Note_on_c, 0, 67, 54
2, 249564, Note_on_c, 0, 71, 57
2, 249621, Note_off_c, 0, 50, 64
2, 249640, Note_off_c, 0, 71, 64
2, 249640, Note_off_c, 0, 67, 64
2, 249640, Note_off_c, 0, 62, 64
2, 249663, Note_on_c, 0, 69, 52
2, 249664, Note_on_c, 0, 60, 56
2, 249664, Note_on_c, 0, 50, 54
2, 249714, Note_on_c, 0, 67, 63
2, 249716, Note_on_c, 0, 59, 57
2, 249721, Note_off_c, 0, 69, 64
2, 249722, Note_off_c, 0, 50, 64
2, 249722, Note_off_c, 0, 60, 64
2, 249723, Note_on_c, 0, 55, 62
2, 249741, Control_c, 0, 64, 0
2, 249765, Control_c, 0, 64, 127
2, 249897, Note_off_c, 0, 43, 64
2, 249897, Note_on_c, 0, 64, 59
2, 249899, Note_on_c, 0, 60, 62
2, 249901, Note_off_c, 0, 67, 64
2, 249903, Note_off_c, 0, 59, 64
2, 249905, Note_on_c, 0, 48, 56
2, 249929, Control_c, 0, 64, 0
2, 249951, Control_c, 0, 64, 127
2, 250076, Note_on_c, 0, 62, 54
2, 250080, Note_on_c, 0, 67, 62
2, 250080, Note_on_c, 0, 59, 58
2, 250084, Note_on_c, 0, 43, 58
2, 250089, Note_off_c, 0, 64, 64
2, 250093, Note_off_c, 0, 48, 64
2, 250093, Note_off_c, 0, 60, 64
2, 250097, Control_c, 0, 64, 0
2, 250126, Control_c, 0, 64, 127
2, 250230, Note_off_c, 0, 55, 64
2, 250268, Note_on_c, 0, 55, 48
2, 250268, Note_on_c, 0, 60, 58
2, 250268, Note_on_c, 0, 64, 52
2, 250271, Note_on_c, 0, 48, 52
2, 250275, Note_off_c, 0, 62, 64
2, 250279, Note_off_c, 0, 59, 64
2, 250279, Note_off_c, 0, 67, 64
2, 250283, Note_off_c, 0, 43, 64
2, 250285, Control_c, 0, 64, 0
2, 250347, Control_c, 0, 64, 127
2, 250451, Note_on_c, 0, 45, 52
2, 250537, Control_c, 0, 64, 127
2, 250585, Note_off_c, 0, 64, 64
2, 250585, Note_off_c, 0, 60, 64
2, 250585, Note_off_c, 0, 55, 64
2, 250588, Note_off_c, 0, 48, 64
2, 250625, Note_off_c, 0, 45, 64
2, 250634, Control_c, 0, 64, 0
2, 250640, Note_on_c, 0, 38, 62
2, 250642, Note_on_c, 0, 62, 58
2, 250642, Note_on_c, 0, 60, 62
2, 250642, Note_on_c, 0, 54, 64
2, 250681, Control_c, 0, 64, 127
2, 250698, Note_off_c, 0, 38, 64
2, 250700, Note_off_c, 0, 54, 64
2, 250700, Note_off_c, 0, 60, 64
2, 250700, Note_off_c, 0, 62, 64
2, 250834, Note_on_c, 0, 66, 58
2, 250834, Note_on_c, 0, 50, 50
2, 250836, Note_on_c, 0, 57, 58
2, 250838, Note_on_c, 0, 60, 58
2, 250850, Control_c, 0, 64, 0
2, 250861, Control_c, 0, 64, 127
2, 250911, Note_on_c, 0, 64, 51
2, 250913, Note_on_c, 0, 55, 54
2, 250932, Note_off_c, 0, 57, 64
2, 250933, Note_off_c, 0, 60, 64
2, 250943, Note_off_c, 0, 66, 64
2, 251000, Note_on_c, 0, 62, 65
2, 251000, Note_on_c, 0, 54, 50
2, 251007, Note_off_c, 0, 64, 64
2, 251009, Note_off_c, 0, 55, 64
2, 251024, Note_off_c, 0, 50, 64
2, 251060, Note_on_c, 0, 66, 62
2, 251060, Note_on_c, 0, 57, 62
2, 251111, Note_off_c, 0, 62, 64
2, 251116, Note_off_c, 0, 54, 64
2, 251141, Note_on_c, 0, 69, 62
2, 251145, Note_on_c, 0, 50, 63
2, 251146, Control_c, 0, 64, 0
2, 251155, Note_off_c, 0, 57, 64
2, 251155, Note_off_c, 0, 66, 64
2, 251160, Control_c, 0, 64, 127
2, 251197, Note_off_c, 0, 69, 64
2, 251251, Note_on_c, 0, 71, 58
2, 251300, Note_on_c, 0, 62, 64
2, 251303, Note_on_c, 0, 66, 65
2, 251304, Note_on_c, 0, 60, 58
2, 251306, Note_on_c, 0, 72, 67
2, 251315, Note_off_c, 0, 71, 64
2, 251328, Control_c, 0, 64, 0
2, 251403, Control_c, 0, 64, 127
2, 251617, Note_off_c, 0, 62, 64
2, 251620, Note_off_c, 0, 66, 64
2, 251621, Note_off_c, 0, 60, 64
2, 251623, Note_off_c, 0, 72, 64
2, 251652, Note_on_c, 0, 67, 54
2, 251654, Note_on_c, 0, 62, 58
2, 251654, Note_on_c, 0, 43, 63
2, 251656, Note_on_c, 0, 71, 58
2, 251657, Control_c, 0, 64, 127
2, 251727, Note_off_c, 0, 67, 64
2, 251729, Note_off_c, 0, 62, 64
2, 251731, Note_off_c, 0, 71, 64
2, 251749, Note_off_c, 0, 50, 64
2, 251757, Note_on_c, 0, 69, 56
2, 251767, Note_on_c, 0, 60, 54
2, 251767, Note_on_c, 0, 50, 57
2, 251812, Note_on_c, 0, 55, 63
2, 251813, Note_off_c, 0, 69, 64
2, 251816, Note_on_c, 0, 59, 62
2, 251817, Note_on_c, 0, 67, 62
2, 251823, Note_off_c, 0, 50, 64
2, 251823, Note_off_c, 0, 60, 64
2, 251847, Control_c, 0, 64, 0
2, 251862, Control_c, 0, 64, 127
2, 251967, Note_off_c, 0, 43, 64
2, 251988, Note_off_c, 0, 59, 64
2, 251992, Note_on_c, 0, 62, 63
2, 251992, Note_on_c, 0, 59, 62
2, 251993, Note_on_c, 0, 71, 62
2, 251998, Control_c, 0, 64, 127
2, 252000, Note_on_c, 0, 43, 58
2, 252008, Note_off_c, 0, 67, 64
2, 252088, Note_on_c, 0, 65, 59
2, 252153, Note_off_c, 0, 55, 64
2, 252169, Note_off_c, 0, 59, 64
2, 252169, Note_off_c, 0, 62, 64
2, 252175, Note_on_c, 0, 76, 62
2, 252181, Note_on_c, 0, 59, 59
2, 252203, Note_off_c, 0, 71, 64
2, 252212, Control_c, 0, 64, 0
2, 252225, Control_c, 0, 64, 127
2, 252360, Note_off_c, 0, 65, 64
2, 252632, Note_on_c, 0, 44, 54
2, 252636, Note_on_c, 0, 71, 49
2, 252637, Note_on_c, 0, 74, 55
2, 252637, Note_on_c, 0, 65, 50
2, 252643, Note_off_c, 0, 43, 64
2, 252654, Note_off_c, 0, 76, 64
2, 252764, Note_off_c, 0, 65, 64
2, 252769, Note_off_c, 0, 59, 64
2, 252771, Note_on_c, 0, 64, 55
2, 252813, Note_on_c, 0, 69, 51
2, 252824, Note_off_c, 0, 74, 64
2, 252828, Note_off_c, 0, 71, 64
2, 252847, Note_on_c, 0, 74, 52
2, 252866, Note_on_c, 0, 45, 44
2, 252872, Note_off_c, 0, 44, 64
2, 252875, Note_on_c, 0, 72, 52
2, 252889, Note_off_c, 0, 74, 64
2, 252995, Note_off_c, 0, 69, 64
2, 253000, Note_off_c, 0, 72, 64
2, 253000, Note_on_c, 0, 68, 54
2, 253000, Note_on_c, 0, 62, 51
2, 253006, Note_on_c, 0, 71, 51
2, 253007, Note_on_c, 0, 47, 48
2, 253018, Note_off_c, 0, 64, 64
2, 253022, Note_off_c, 0, 45, 64
2, 253050, Note_on_c, 0, 48, 49
2, 253052, Note_on_c, 0, 64, 52
2, 253053, Note_on_c, 0, 69, 51
2, 253054, Note_off_c, 0, 62, 64
2, 253054, Note_off_c, 0, 68, 64
2, 253060, Note_off_c, 0, 71, 64
2, 253061, Note_off_c, 0, 47, 64
2, 253080, Control_c, 0, 64, 0
2, 253102, Control_c, 0, 64, 127
2, 253235, Note_on_c, 0, 50, 49
2, 253239, Note_on_c, 0, 71, 49
2, 253243, Note_on_c, 0, 65, 50
2, 253243, Note_on_c, 0, 62, 50
2, 253249, Note_off_c, 0, 48, 64
2, 253253, Note_off_c, 0, 69, 64
2, 253255, Note_off_c, 0, 64, 64
2, 253270, Control_c, 0, 64, 0
2, 253284, Control_c, 0, 64, 127
2, 253416, Note_on_c, 0, 52, 48
2, 253416, Note_on_c, 0, 64, 51
2, 253419, Note_on_c, 0, 69, 47
2, 253422, Note_on_c, 0, 60, 54
2, 253429, Note_off_c, 0, 71, 64
2, 253430, Note_off_c, 0, 50, 64
2, 253433, Note_off_c, 0, 62, 64
2, 253433, Note_off_c, 0, 65, 64
2, 253438, Control_c, 0, 64, 0
2, 253451, Control_c, 0, 64, 127
2, 253544, Note_on_c, 0, 59, 46
2, 253548, Note_on_c, 0, 68, 44
2, 253562, Note_off_c, 0, 69, 64
2, 253565, Note_off_c, 0, 60, 64
2, 253592, Note_on_c, 0, 62, 51
2, 253593, Note_on_c, 0, 71, 51
2, 253593, Note_on_c, 0, 40, 48
2, 253602, Note_off_c, 0, 59, 64
2, 253606, Note_off_c, 0, 68, 64
2, 253608, Note_off_c, 0, 52, 64
2, 253615, Control_c, 0, 64, 0
2, 253628, Control_c, 0, 64, 127
2, 253775, Note_on_c, 0, 69, 46
2, 253777, Note_on_c, 0, 45, 47
2, 253779, Note_on_c, 0, 60, 51
2, 253787, Note_off_c, 0, 62, 64
2, 253788, Note_off_c, 0, 40, 64
2, 253788, Note_off_c, 0, 71, 64
2, 253792, Control_c, 0, 64, 0
2, 253815, Control_c, 0, 64, 127
2, 253870, Control_c, 0, 64, 127
2, 253934, Note_off_c, 0, 69, 64
2, 253936, Note_off_c, 0, 45, 64
2, 253938, Note_off_c, 0, 60, 64
2, 253942, Note_off_c, 0, 64, 64
2, 253959, Note_on_c, 0, 62, 49
2, 253960, Note_on_c, 0, 71, 47
2, 253960, Note_on_c, 0, 66, 44
2, 253964, Note_on_c, 0, 50, 47
2, 254073, Note_on_c, 0, 69, 44
2, 254077, Note_on_c, 0, 60, 50
2, 254079, Note_off_c, 0, 62, 64
2, 254080, Note_off_c, 0, 71, 64
2, 254118, Note_off_c, 0, 66, 64
2, 254123, Note_off_c, 0, 50, 64
2, 254125, Note_on_c, 0, 67, 49
2, 254126, Note_on_c, 0, 55, 52
2, 254128, Note_on_c, 0, 59, 44
2, 254131, Note_off_c, 0, 69, 64
2, 254135, Note_off_c, 0, 60, 64
2, 254140, Control_c, 0, 64, 0
2, 254165, Control_c, 0, 64, 127
2, 254292, Note_on_c, 0, 60, 42
2, 254296, Note_on_c, 0, 69, 50
2, 254300, Note_off_c, 0, 67, 64
2, 254300, Note_on_c, 0, 48, 44
2, 254300, Note_on_c, 0, 64, 44
2, 254303, Note_off_c, 0, 59, 64
2, 254316, Note_off_c, 0, 55, 64
2, 254322, Control_c, 0, 64, 0
2, 254355, Control_c, 0, 64, 127
2, 254472, Note_on_c, 0, 59, 41
2, 254472, Note_on_c, 0, 50, 43
2, 254474, Note_on_c, 0, 62, 41
2, 254475, Note_off_c, 0, 60, 64
2, 254479, Note_off_c, 0, 69, 64
2, 254479, Note_on_c, 0, 67, 42
2, 254483, Note_off_c, 0, 64, 64
2, 254483, Note_off_c, 0, 48, 64
2, 254502, Control_c, 0, 64, 0
2, 254516, Control_c, 0, 64, 127
2, 254616, Note_on_c, 0, 66, 37
2, 254616, Note_on_c, 0, 57, 49
2, 254620, Note_off_c, 0, 59, 64
2, 254627, Note_off_c, 0, 67, 64
2, 254660, Note_on_c, 0, 60, 46
2, 254660, Note_on_c, 0, 38, 44
2, 254662, Note_on_c, 0, 69, 42
2, 254674, Control_c, 0, 64, 0
2, 254680, Note_off_c, 0, 57, 64
2, 254680, Note_off_c, 0, 66, 64
2, 254698, Control_c, 0, 64, 127
2, 254888, Note_on_c, 0, 67, 35
2, 254892, Note_on_c, 0, 59, 36
2, 254899, Note_off_c, 0, 60, 64
2, 254901, Note_off_c, 0, 69, 64
2, 254901, Note_off_c, 0, 38, 64
2, 254904, Note_on_c, 0, 43, 44
2, 254908, Control_c, 0, 64, 0
2, 254917, Note_off_c, 0, 50, 64
2, 254965, Control_c, 0, 64, 127
2, 255173, Note_on_c, 0, 56, 58
2, 255175, Control_c, 0, 64, 0
2, 255178, Note_off_c, 0, 67, 64
2, 255182, Note_off_c, 0, 59, 64
2, 255184, Note_off_c, 0, 62, 64
2, 255194, Note_off_c, 0, 43, 64
2, 255213, Control_c, 0, 64, 127
2, 255265, Note_on_c, 0, 55, 39
2, 255284, Note_off_c, 0, 56, 64
2, 255341, Note_on_c, 0, 51, 63
2, 255346, Note_on_c, 0, 63, 34
2, 255347, Note_on_c, 0, 60, 46
2, 255358, Note_on_c, 0, 67, 26
2, 255372, Control_c, 0, 64, 0
2, 255415, Control_c, 0, 64, 127
2, 255434, Note_off_c, 0, 55, 64
2, 255483, Note_off_c, 0, 63, 64
2, 255484, Note_off_c, 0, 60, 64
2, 255529, Note_on_c, 0, 48, 51
2, 255544, Note_on_c, 0, 63, 25
2, 255549, Note_on_c, 0, 60, 29
2, 255557, Control_c, 0, 64, 0
2, 255559, Note_off_c, 0, 51, 64
2, 255582, Control_c, 0, 64, 127
2, 255628, Note_on_c, 0, 51, 54
2, 255632, Note_off_c, 0, 63, 64
2, 255637, Note_off_c, 0, 60, 64
2, 255638, Note_off_c, 0, 48, 64
2, 255710, Note_on_c, 0, 43, 63
2, 255716, Note_off_c, 0, 51, 64
2, 255724, Control_c, 0, 64, 0
2, 255770, Control_c, 0, 64, 127
2, 255798, Note_on_c, 0, 50, 51
2, 255864, Note_on_c, 0, 60, 41
2, 255871, Note_on_c, 0, 62, 44
2, 255871, Note_on_c, 0, 55, 58
2, 255877, Note_off_c, 0, 43, 64
2, 255888, Note_off_c, 0, 50, 64
2, 255896, Control_c, 0, 64, 0
2, 255919, Control_c, 0, 64, 127
2, 256001, Note_off_c, 0, 60, 64
2, 256008, Note_off_c, 0, 62, 64
2, 256044, Note_on_c, 0, 54, 51
2, 256050, Note_on_c, 0, 59, 42
2, 256054, Note_on_c, 0, 62, 40
2, 256063, Control_c, 0, 64, 0
2, 256067, Note_off_c, 0, 55, 64
2, 256106, Control_c, 0, 64, 127
2, 256127, Note_on_c, 0, 55, 49
2, 256138, Note_off_c, 0, 59, 64
2, 256141, Note_off_c, 0, 54, 64
2, 256142, Note_off_c, 0, 62, 64
2, 256215, Note_on_c, 0, 56, 64
2, 256231, Control_c, 0, 64, 0
2, 256238, Note_off_c, 0, 55, 64
2, 256257, Control_c, 0, 64, 127
2, 256300, Note_on_c, 0, 55, 62
2, 256322, Note_off_c, 0, 67, 64
2, 256340, Note_off_c, 0, 56, 64
2, 256379, Note_on_c, 0, 63, 48
2, 256380, Note_on_c, 0, 51, 70
2, 256383, Note_on_c, 0, 60, 47
2, 256387, Note_on_c, 0, 67, 35
2, 256395, Control_c, 0, 64, 0
2, 256406, Note_off_c, 0, 55, 64
2, 256430, Control_c, 0, 64, 127
2, 256516, Note_off_c, 0, 63, 64
2, 256520, Note_off_c, 0, 60, 64
2, 256524, Note_off_c, 0, 67, 64
2, 256543, Note_on_c, 0, 48, 52
2, 256544, Note_on_c, 0, 63, 55
2, 256545, Note_on_c, 0, 69, 49
2, 256557, Control_c, 0, 64, 0
2, 256561, Note_off_c, 0, 51, 64
2, 256601, Control_c, 0, 64, 127
2, 256633, Note_off_c, 0, 69, 64
2, 256642, Note_on_c, 0, 53, 49
2, 256647, Note_off_c, 0, 48, 64
2, 256718, Note_on_c, 0, 46, 72
2, 256724, Note_on_c, 0, 70, 42
2, 256728, Note_off_c, 0, 53, 64
2, 256735, Control_c, 0, 64, 0
2, 256766, Control_c, 0, 64, 127
2, 256806, Note_on_c, 0, 53, 55
2, 256838, Note_off_c, 0, 63, 64
2, 256842, Note_off_c, 0, 46, 64
2, 256898, Note_on_c, 0, 58, 73
2, 256901, Note_on_c, 0, 62, 42
2, 256907, Note_off_c, 0, 53, 64
2, 256915, Control_c, 0, 64, 0
2, 256961, Control_c, 0, 64, 127
2, 257038, Note_off_c, 0, 62, 64
2, 257080, Note_on_c, 0, 62, 42
2, 257087, Note_on_c, 0, 68, 44
2, 257102, Control_c, 0, 64, 0
2, 257147, Control_c, 0, 64, 127
2, 257168, Note_off_c, 0, 62, 64
2, 257175, Note_off_c, 0, 68, 64
2, 257223, Note_off_c, 0, 58, 64
2, 257261, Note_on_c, 0, 60, 64
2, 257330, Note_on_c, 0, 58, 49
2, 257353, Note_off_c, 0, 60, 64
2, 257388, Note_off_c, 0, 70, 64
2, 257430, Note_on_c, 0, 55, 46
2, 257438, Note_on_c, 0, 70, 42
2, 257438, Note_on_c, 0, 67, 39
2, 257438, Note_on_c, 0, 63, 36
2, 257451, Note_off_c, 0, 58, 64
2, 257457, Control_c, 0, 64, 0
2, 257477, Control_c, 0, 64, 127
2, 257575, Note_off_c, 0, 63, 64
2, 257575, Note_off_c, 0, 67, 64
2, 257575, Note_off_c, 0, 70, 64
2, 257608, Note_on_c, 0, 72, 49
2, 257612, Note_on_c, 0, 67, 46
2, 257617, Note_on_c, 0, 51, 58
2, 257637, Control_c, 0, 64, 0
2, 257645, Note_off_c, 0, 55, 64
2, 257660, Control_c, 0, 64, 127
2, 257696, Note_off_c, 0, 72, 64
2, 257703, Note_on_c, 0, 57, 54
2, 257712, Note_off_c, 0, 51, 64
2, 257778, Note_on_c, 0, 50, 71
2, 257784, Note_on_c, 0, 74, 51
2, 257796, Note_off_c, 0, 57, 64
2, 257814, Control_c, 0, 64, 0
2, 257830, Control_c, 0, 64, 127
2, 257870, Note_on_c, 0, 57, 50
2, 257919, Note_off_c, 0, 67, 64
2, 257952, Note_on_c, 0, 66, 44
2, 257952, Note_on_c, 0, 62, 58
2, 257978, Note_off_c, 0, 57, 64
2, 257981, Note_off_c, 0, 50, 64
2, 257981, Control_c, 0, 64, 0
2, 257995, Control_c, 0, 64, 127
2, 258089, Note_off_c, 0, 66, 64
2, 258122, Note_on_c, 0, 61, 55
2, 258130, Note_on_c, 0, 69, 40
2, 258132, Note_on_c, 0, 66, 25
2, 258154, Note_off_c, 0, 62, 64
2, 258218, Note_off_c, 0, 69, 64
2, 258220, Note_off_c, 0, 66, 64
2, 258220, Note_on_c, 0, 62, 64
2, 258246, Note_off_c, 0, 61, 64
2, 258298, Note_on_c, 0, 63, 65
2, 258328, Note_off_c, 0, 62, 64
2, 258387, Note_on_c, 0, 62, 63
2, 258406, Note_off_c, 0, 63, 64
2, 258465, Note_on_c, 0, 58, 62
2, 258470, Note_on_c, 0, 70, 52
2, 258473, Note_on_c, 0, 67, 49
2, 258501, Note_off_c, 0, 74, 64
2, 258558, Note_off_c, 0, 70, 64
2, 258561, Note_off_c, 0, 67, 64
2, 258561, Note_on_c, 0, 74, 49
2, 258579, Note_off_c, 0, 62, 64
2, 258637, Note_on_c, 0, 77, 62
2, 258654, Note_off_c, 0, 74, 64
2, 258660, Note_on_c, 0, 55, 59
2, 258672, Note_on_c, 0, 70, 51
2, 258674, Note_on_c, 0, 67, 26
2, 258675, Note_on_c, 0, 75, 59
2, 258696, Note_off_c, 0, 58, 64
2, 258699, Note_off_c, 0, 77, 64
2, 258748, Note_on_c, 0, 58, 63
2, 258780, Note_off_c, 0, 75, 64
2, 258780, Note_off_c, 0, 55, 64
2, 258787, Note_off_c, 0, 67, 64
2, 258788, Note_off_c, 0, 70, 64
2, 258800, Note_on_c, 0, 74, 49
2, 258830, Note_off_c, 0, 74, 64
2, 258834, Note_on_c, 0, 74, 58
2, 258838, Note_on_c, 0, 69, 52
2, 258840, Note_on_c, 0, 67, 51
2, 258842, Note_on_c, 0, 50, 65
2, 258847, Note_off_c, 0, 58, 64
2, 258865, Control_c, 0, 64, 0
2, 258888, Control_c, 0, 64, 127
2, 258926, Note_off_c, 0, 69, 64
2, 258928, Note_off_c, 0, 67, 64
2, 258946, Note_on_c, 0, 57, 54
2, 259010, Note_on_c, 0, 69, 57
2, 259017, Control_c, 0, 64, 0
2, 259025, Note_on_c, 0, 66, 58
2, 259033, Note_on_c, 0, 62, 51
2, 259038, Note_off_c, 0, 57, 64
2, 259040, Note_off_c, 0, 50, 64
2, 259060, Control_c, 0, 64, 127
2, 259113, Note_off_c, 0, 66, 64
2, 259115, Note_off_c, 0, 74, 64
2, 259222, Note_on_c, 0, 66, 44
2, 259359, Note_off_c, 0, 66, 64
2, 259427, Note_on_c, 0, 69, 51
2, 259428, Note_on_c, 0, 67, 46
2, 259433, Note_on_c, 0, 64, 39
2, 259440, Control_c, 0, 64, 0
2, 259453, Control_c, 0, 64, 127
2, 259508, Note_on_c, 0, 61, 56
2, 259516, Note_off_c, 0, 67, 64
2, 259521, Note_off_c, 0, 64, 64
2, 259547, Note_off_c, 0, 69, 64
2, 259550, Note_off_c, 0, 62, 64
2, 259606, Note_on_c, 0, 57, 56
2, 259628, Note_on_c, 0, 67, 46
2, 259633, Note_on_c, 0, 64, 39
2, 259640, Control_c, 0, 64, 0
2, 259653, Control_c, 0, 64, 127
2, 259655, Note_off_c, 0, 61, 64
2, 259716, Note_off_c, 0, 67, 64
2, 259721, Note_off_c, 0, 64, 64
2, 259791, Note_on_c, 0, 66, 47
2, 259791, Note_on_c, 0, 62, 63
2, 259799, Note_off_c, 0, 57, 64
2, 259810, Control_c, 0, 64, 0
2, 259824, Control_c, 0, 64, 127
2, 259928, Note_off_c, 0, 66, 64
2, 259978, Note_on_c, 0, 67, 52
2, 259978, Note_on_c, 0, 64, 56
2, 260053, Note_on_c, 0, 61, 58
2, 260066, Note_off_c, 0, 64, 64
2, 260066, Note_off_c, 0, 67, 64
2, 260106, Note_off_c, 0, 62, 64
2, 260157, Note_on_c, 0, 57, 56
2, 260160, Control_c, 0, 64, 0
2, 260162, Note_on_c, 0, 64, 56
2, 260168, Note_on_c, 0, 67, 35
2, 260173, Note_off_c, 0, 61, 64
2, 260186, Control_c, 0, 64, 127
2, 260250, Note_off_c, 0, 64, 64
2, 260256, Note_off_c, 0, 67, 64
2, 260323, Note_on_c, 0, 66, 48
2, 260330, Note_on_c, 0, 62, 50
2, 260376, Note_off_c, 0, 57, 64
2, 260394, Note_off_c, 0, 69, 64
2, 260446, Note_off_c, 0, 62, 64
2, 260460, Note_off_c, 0, 66, 64
2, 260476, Note_on_c, 0, 60, 62
2, 260514, Note_off_c, 0, 60, 64
2, 260524, Note_on_c, 0, 60, 54
2, 260528, Note_on_c, 0, 67, 49
2, 260528, Note_on_c, 0, 65, 24
2, 260528, Note_on_c, 0, 62, 39
2, 260542, Control_c, 0, 64, 0
2, 260568, Control_c, 0, 64, 127
2, 260611, Note_on_c, 0, 59, 59
2, 260616, Note_off_c, 0, 62, 64
2, 260616, Note_off_c, 0, 65, 64
2, 260616, Note_off_c, 0, 67, 64
2, 260628, Note_off_c, 0, 60, 64
2, 260696, Note_on_c, 0, 55, 64
2, 260709, Note_off_c, 0, 59, 64
2, 260712, Note_on_c, 0, 67, 49
2, 260712, Note_on_c, 0, 65, 24
2, 260712, Note_on_c, 0, 62, 39
2, 260717, Control_c, 0, 64, 0
2, 260726, Control_c, 0, 64, 0
2, 260740, Control_c, 0, 64, 127
2, 260752, Control_c, 0, 64, 127
2, 260800, Note_off_c, 0, 62, 64
2, 260800, Note_off_c, 0, 65, 64
2, 260800, Note_off_c, 0, 67, 64
2, 260850, Note_off_c, 0, 55, 64
2, 260894, Note_on_c, 0, 67, 51
2, 260897, Note_on_c, 0, 64, 54
2, 260898, Note_on_c, 0, 60, 59
2, 261014, Note_on_c, 0, 59, 41
2, 261019, Note_off_c, 0, 60, 64
2, 261042, Note_off_c, 0, 67, 64
2, 261045, Note_off_c, 0, 64, 64
2, 261052, Note_off_c, 0, 59, 64
2, 261070, Note_on_c, 0, 66, 58
2, 261071, Note_on_c, 0, 59, 66
2, 261079, Note_on_c, 0, 64, 54
2, 261108, Control_c, 0, 64, 0
2, 261158, Note_off_c, 0, 66, 64
2, 261167, Note_off_c, 0, 64, 64
2, 261169, Note_on_c, 0, 58, 58
2, 261195, Note_off_c, 0, 59, 64
2, 261252, Control_c, 0, 64, 0
2, 261254, Note_on_c, 0, 66, 40
2, 261255, Note_on_c, 0, 64, 54
2, 261255, Note_on_c, 0, 61, 54
2, 261266, Control_c, 0, 64, 127
2, 261269, Note_off_c, 0, 58, 64
2, 261270, Note_on_c, 0, 54, 64
2, 261278, Control_c, 0, 64, 127
2, 261284, Control_c, 0, 64, 0
2, 261306, Control_c, 0, 64, 127
2, 261342, Note_off_c, 0, 66, 64
2, 261343, Note_off_c, 0, 61, 64
2, 261343, Note_off_c, 0, 64, 64
2, 261450, Note_on_c, 0, 66, 55
2, 261450, Note_on_c, 0, 59, 54
2, 261460, Note_on_c, 0, 63, 59
2, 261467, Note_off_c, 0, 54, 64
2, 261598, Note_off_c, 0, 66, 64
2, 261608, Note_off_c, 0, 63, 64
2, 261651, Note_on_c, 0, 52, 63
2, 261655, Note_on_c, 0, 68, 58
2, 261658, Note_on_c, 0, 62, 58
2, 261658, Note_on_c, 0, 40, 56
2, 261659, Note_off_c, 0, 59, 64
2, 261660, Note_on_c, 0, 64, 57
2, 261735, Note_off_c, 0, 40, 64
2, 261740, Note_off_c, 0, 62, 64
2, 261747, Note_off_c, 0, 68, 64
2, 261752, Note_off_c, 0, 64, 64
2, 261779, Note_on_c, 0, 69, 54
2, 261838, Note_on_c, 0, 62, 58
2, 261842, Note_on_c, 0, 64, 63
2, 261843, Note_on_c, 0, 68, 72
2, 261846, Note_on_c, 0, 71, 63
2, 261856, Note_off_c, 0, 69, 64
2, 262030, Note_on_c, 0, 72, 64
2, 262047, Note_off_c, 0, 71, 64
2, 262110, Note_off_c, 0, 52, 64
2, 262196, Note_on_c, 0, 71, 39
2, 262211, Note_off_c, 0, 72, 64
2, 262235, Note_off_c, 0, 71, 64
2, 262249, Note_off_c, 0, 62, 64
2, 262253, Note_off_c, 0, 64, 64
2, 262254, Note_off_c, 0, 68, 64
2, 262257, Note_on_c, 0, 60, 49
2, 262260, Note_on_c, 0, 71, 62
2, 262270, Note_on_c, 0, 45, 65
2, 262350, Note_off_c, 0, 60, 64
2, 262412, Note_on_c, 0, 52, 65
2, 262450, Note_on_c, 0, 69, 60
2, 262470, Note_on_c, 0, 60, 60
2, 262472, Note_off_c, 0, 71, 64
2, 262493, Note_off_c, 0, 60, 64
2, 262508, Note_on_c, 0, 60, 63
2, 262512, Note_on_c, 0, 67, 70
2, 262527, Note_off_c, 0, 69, 64
2, 262555, Note_on_c, 0, 76, 72
2, 262562, Note_off_c, 0, 52, 64
2, 262577, Control_c, 0, 64, 0
2, 262630, Control_c, 0, 64, 127
2, 263070, Note_on_c, 0, 50, 52
2, 263076, Note_on_c, 0, 66, 50
2, 263082, Note_off_c, 0, 45, 64
2, 263100, Note_off_c, 0, 67, 64
2, 263173, Note_on_c, 0, 74, 54
2, 263190, Note_off_c, 0, 76, 64
2, 263262, Note_on_c, 0, 64, 46
2, 263263, Note_on_c, 0, 72, 56
2, 263276, Note_off_c, 0, 74, 64
2, 263279, Note_off_c, 0, 60, 64
2, 263437, Note_on_c, 0, 62, 57
2, 263441, Note_on_c, 0, 71, 55
2, 263452, Note_off_c, 0, 64, 64
2, 263453, Note_off_c, 0, 72, 64
2, 263558, Note_on_c, 0, 69, 58
2, 263558, Note_on_c, 0, 60, 47
2, 263563, Note_off_c, 0, 62, 64
2, 263567, Note_off_c, 0, 71, 64
2, 263618, Note_on_c, 0, 59, 48
2, 263620, Note_on_c, 0, 68, 62
2, 263635, Note_off_c, 0, 60, 64
2, 263635, Note_off_c, 0, 69, 64
2, 263654, Control_c, 0, 64, 0
2, 263668, Control_c, 0, 64, 127
2, 263798, Note_on_c, 0, 60, 54
2, 263801, Note_on_c, 0, 69, 57
2, 263804, Note_off_c, 0, 59, 64
2, 263816, Note_off_c, 0, 68, 64
2, 263976, Note_on_c, 0, 55, 50
2, 263977, Note_off_c, 0, 60, 64
2, 263980, Note_off_c, 0, 69, 64
2, 263982, Note_on_c, 0, 64, 58
2, 263988, Note_on_c, 0, 60, 51
2, 263993, Note_off_c, 0, 66, 64
2, 264005, Control_c, 0, 64, 0
2, 264017, Control_c, 0, 64, 127
2, 264039, Note_on_c, 0, 66, 49
2, 264045, Note_off_c, 0, 64, 64
2, 264095, Note_on_c, 0, 64, 51
2, 264122, Note_off_c, 0, 66, 64
2, 264150, Note_on_c, 0, 54, 51
2, 264155, Note_off_c, 0, 55, 64
2, 264155, Note_on_c, 0, 62, 65
2, 264173, Control_c, 0, 64, 0
2, 264180, Note_off_c, 0, 64, 64
2, 264211, Control_c, 0, 64, 127
2, 264328, Control_c, 0, 64, 0
2, 264334, Note_on_c, 0, 66, 52
2, 264335, Note_on_c, 0, 57, 56
2, 264338, Note_off_c, 0, 54, 64
2, 264343, Note_off_c, 0, 62, 64
2, 264357, Control_c, 0, 64, 127
2, 264406, Note_on_c, 0, 55, 54
2, 264414, Note_on_c, 0, 64, 59
2, 264420, Note_off_c, 0, 66, 64
2, 264421, Note_off_c, 0, 57, 64
2, 264487, Note_off_c, 0, 64, 64
2, 264488, Note_on_c, 0, 54, 49
2, 264490, Note_on_c, 0, 62, 63
2, 264502, Note_off_c, 0, 55, 64
2, 264557, Note_on_c, 0, 66, 62
2, 264558, Note_on_c, 0, 57, 46
2, 264595, Note_off_c, 0, 50, 64
2, 264600, Note_off_c, 0, 54, 64
2, 264602, Note_off_c, 0, 62, 64
2, 264647, Note_on_c, 0, 69, 56
2, 264654, Note_on_c, 0, 50, 67
2, 264661, Control_c, 0, 64, 0
2, 264668, Note_off_c, 0, 66, 64
2, 264669, Note_off_c, 0, 57, 64
2, 264687, Control_c, 0, 64, 127
2, 264718, Note_off_c, 0, 69, 64
2, 264763, Note_on_c, 0, 71, 54
2, 264800, Note_off_c, 0, 60, 64
2, 264814, Note_on_c, 0, 60, 58
2, 264814, Note_on_c, 0, 62, 63
2, 264816, Note_on_c, 0, 72, 62
2, 264818, Note_on_c, 0, 66, 65
2, 264835, Note_off_c, 0, 71, 64
2, 264840, Control_c, 0, 64, 0
2, 264903, Control_c, 0, 64, 127
2, 265131, Note_off_c, 0, 62, 64
2, 265131, Note_off_c, 0, 60, 64
2, 265133, Note_off_c, 0, 50, 64
2, 265133, Note_off_c, 0, 72, 64
2, 265135, Note_off_c, 0, 66, 64
2, 265142, Note_on_c, 0, 67, 54
2, 265142, Control_c, 0, 64, 0
2, 265147, Control_c, 0, 64, 127
2, 265149, Note_on_c, 0, 71, 64
2, 265149, Note_on_c, 0, 62, 51
2, 265149, Note_on_c, 0, 43, 63
2, 265165, Control_c, 0, 64, 127
2, 265227, Note_off_c, 0, 67, 64
2, 265234, Note_off_c, 0, 62, 64
2, 265234, Note_off_c, 0, 71, 64
2, 265270, Note_off_c, 0, 43, 64
2, 265270, Note_on_c, 0, 69, 51
2, 265270, Note_on_c, 0, 60, 46
2, 265270, Note_on_c, 0, 50, 51
2, 265310, Note_on_c, 0, 59, 62
2, 265310, Note_on_c, 0, 55, 64
2, 265314, Note_on_c, 0, 67, 71
2, 265321, Note_off_c, 0, 50, 64
2, 265321, Note_off_c, 0, 60, 64
2, 265321, Note_off_c, 0, 69, 64
2, 265321, Control_c, 0, 64, 0
2, 265348, Control_c, 0, 64, 127
2, 265463, Note_off_c, 0, 59, 64
2, 265474, Note_on_c, 0, 62, 63
2, 265474, Note_on_c, 0, 59, 2
2, 265480, Note_on_c, 0, 71, 62
2, 265486, Control_c, 0, 64, 0
2, 265489, Note_off_c, 0, 67, 64
2, 265502, Control_c, 0, 64, 127
2, 265532, Note_on_c, 0, 43, 62
2, 265594, Note_on_c, 0, 43, 58
2, 265626, Note_on_c, 0, 49, 57
2, 265666, Note_off_c, 0, 55, 64
2, 265670, Note_on_c, 0, 58, 72
2, 265670, Note_on_c, 0, 67, 63
2, 265672, Note_on_c, 0, 64, 62
2, 265672, Note_on_c, 0, 76, 62
2, 265681, Note_off_c, 0, 59, 64
2, 265681, Note_off_c, 0, 62, 64
2, 265687, Note_off_c, 0, 71, 64
2, 265694, Control_c, 0, 64, 0
2, 265721, Control_c, 0, 64, 127
2, 265767, Note_off_c, 0, 43, 64
2, 265872, Note_off_c, 0, 43, 64
2, 265898, Note_on_c, 0, 43, 47
2, 265898, Note_on_c, 0, 50, 56
2, 265900, Note_off_c, 0, 67, 64
2, 265906, Note_on_c, 0, 62, 64
2, 265906, Note_on_c, 0, 74, 63
2, 265908, Note_on_c, 0, 59, 70
2, 265908, Note_on_c, 0, 67, 71
2, 265911, Note_off_c, 0, 49, 64
2, 265920, Note_off_c, 0, 58, 64
2, 265922, Note_off_c, 0, 76, 64
2, 265922, Note_off_c, 0, 64, 64
2, 265939, Control_c, 0, 64, 0
2, 266023, Control_c, 0, 64, 127
2, 266262, Note_off_c, 0, 50, 64
2, 266262, Note_off_c, 0, 43, 64
2, 266270, Note_off_c, 0, 74, 64
2, 266270, Note_off_c, 0, 62, 64
2, 266272, Note_off_c, 0, 67, 64
2, 266272, Note_off_c, 0, 59, 64
2, 266307, Note_on_c, 0, 38, 62
2, 266307, Control_c, 0, 64, 0
2, 266313, Note_on_c, 0, 62, 67
2, 266357, Control_c, 0, 64, 127
2, 266365, Note_off_c, 0, 38, 64
2, 266371, Note_off_c, 0, 62, 64
2, 266494, Note_on_c, 0, 60, 58
2, 266494, Note_on_c, 0, 50, 54
2, 266495, Note_on_c, 0, 57, 58
2, 266501, Note_on_c, 0, 66, 57
2, 266566, Note_on_c, 0, 55, 51
2, 266569, Note_on_c, 0, 64, 52
2, 266587, Note_off_c, 0, 57, 64
2, 266593, Note_off_c, 0, 66, 64
2, 266658, Note_on_c, 0, 54, 34
2, 266663, Note_on_c, 0, 62, 64
2, 266674, Note_off_c, 0, 55, 64
2, 266677, Note_off_c, 0, 64, 64
2, 266689, Note_off_c, 0, 50, 64
2, 266735, Note_on_c, 0, 66, 63
2, 266737, Note_on_c, 0, 57, 48
2, 266760, Note_off_c, 0, 54, 64
2, 266765, Note_off_c, 0, 62, 64
2, 266816, Note_on_c, 0, 69, 59
2, 266825, Note_on_c, 0, 50, 62
2, 266828, Control_c, 0, 64, 0
2, 266831, Note_off_c, 0, 57, 64
2, 266831, Note_off_c, 0, 66, 64
2, 266842, Control_c, 0, 64, 127
2, 266887, Note_off_c, 0, 69, 64
2, 266925, Note_on_c, 0, 71, 54
2, 266949, Note_off_c, 0, 60, 64
2, 266978, Note_on_c, 0, 62, 58
2, 266978, Note_on_c, 0, 60, 58
2, 266979, Note_on_c, 0, 72, 63
2, 266979, Note_on_c, 0, 66, 64
2, 266990, Note_off_c, 0, 71, 64
2, 267003, Control_c, 0, 64, 0
2, 267090, Control_c, 0, 64, 127
2, 267295, Note_off_c, 0, 60, 64
2, 267295, Note_off_c, 0, 62, 64
2, 267296, Note_off_c, 0, 66, 64
2, 267296, Note_off_c, 0, 72, 64
2, 267318, Note_on_c, 0, 71, 57
2, 267318, Note_on_c, 0, 67, 54
2, 267318, Note_on_c, 0, 62, 51
2, 267323, Control_c, 0, 64, 127
2, 267326, Note_on_c, 0, 43, 63
2, 267338, Control_c, 0, 64, 0
2, 267339, Note_off_c, 0, 50, 64
2, 267349, Control_c, 0, 64, 127
2, 267403, Note_off_c, 0, 62, 64
2, 267403, Note_off_c, 0, 67, 64
2, 267403, Note_off_c, 0, 71, 64
2, 267432, Note_on_c, 0, 50, 54
2, 267434, Note_on_c, 0, 69, 50
2, 267434, Note_on_c, 0, 60, 58
2, 267486, Note_on_c, 0, 59, 58
2, 267488, Note_on_c, 0, 67, 66
2, 267490, Note_on_c, 0, 55, 63
2, 267496, Note_off_c, 0, 50, 64
2, 267498, Note_off_c, 0, 60, 64
2, 267498, Note_off_c, 0, 69, 64
2, 267506, Control_c, 0, 64, 0
2, 267532, Control_c, 0, 64, 127
2, 267666, Note_on_c, 0, 60, 58
2, 267666, Note_on_c, 0, 64, 52
2, 267673, Note_off_c, 0, 43, 64
2, 267673, Note_on_c, 0, 48, 51
2, 267679, Note_off_c, 0, 59, 64
2, 267681, Note_off_c, 0, 67, 64
2, 267696, Control_c, 0, 64, 0
2, 267718, Control_c, 0, 64, 127
2, 267830, Note_on_c, 0, 62, 51
2, 267832, Note_on_c, 0, 59, 54
2, 267833, Control_c, 0, 64, 127
2, 267835, Note_on_c, 0, 67, 58
2, 267841, Note_on_c, 0, 43, 62
2, 267845, Note_off_c, 0, 64, 64
2, 267850, Control_c, 0, 64, 0
2, 267856, Note_off_c, 0, 60, 64
2, 267864, Note_off_c, 0, 48, 64
2, 267888, Control_c, 0, 64, 127
2, 267953, Note_off_c, 0, 55, 64
2, 268015, Note_on_c, 0, 64, 57
2, 268015, Note_on_c, 0, 60, 58
2, 268015, Note_on_c, 0, 55, 50
2, 268015, Note_on_c, 0, 48, 56
2, 268035, Control_c, 0, 64, 0
2, 268037, Note_off_c, 0, 62, 64
2, 268039, Note_off_c, 0, 59, 64
2, 268042, Note_off_c, 0, 67, 64
2, 268048, Note_off_c, 0, 43, 64
2, 268081, Control_c, 0, 64, 127
2, 268198, Note_on_c, 0, 45, 54
2, 268332, Note_off_c, 0, 48, 64
2, 268332, Note_off_c, 0, 55, 64
2, 268332, Note_off_c, 0, 60, 64
2, 268332, Note_off_c, 0, 64, 64
2, 268357, Control_c, 0, 64, 0
2, 268373, Note_on_c, 0, 62, 58
2, 268373, Note_on_c, 0, 60, 62
2, 268373, Note_on_c, 0, 38, 63
2, 268374, Note_on_c, 0, 54, 67
2, 268386, Note_off_c, 0, 45, 64
2, 268400, Control_c, 0, 64, 127
2, 268431, Note_off_c, 0, 38, 64
2, 268431, Note_off_c, 0, 60, 64
2, 268431, Note_off_c, 0, 62, 64
2, 268432, Note_off_c, 0, 54, 64
2, 268546, Note_on_c, 0, 50, 47
2, 268550, Note_on_c, 0, 57, 49
2, 268553, Note_on_c, 0, 60, 54
2, 268557, Note_on_c, 0, 66, 58
2, 268638, Note_on_c, 0, 64, 54
2, 268638, Note_on_c, 0, 55, 52
2, 268655, Note_off_c, 0, 57, 64
2, 268662, Note_off_c, 0, 66, 64
2, 268722, Note_on_c, 0, 54, 50
2, 268724, Note_on_c, 0, 62, 67
2, 268734, Note_off_c, 0, 55, 64
2, 268734, Note_off_c, 0, 64, 64
2, 268745, Note_off_c, 0, 50, 64
2, 268791, Note_on_c, 0, 66, 63
2, 268794, Note_on_c, 0, 57, 59
2, 268836, Note_off_c, 0, 54, 64
2, 268838, Note_off_c, 0, 62, 64
2, 268867, Note_on_c, 0, 69, 52
2, 268870, Note_on_c, 0, 50, 63
2, 268882, Control_c, 0, 64, 0
2, 268887, Note_off_c, 0, 66, 64
2, 268890, Note_off_c, 0, 57, 64
2, 268896, Control_c, 0, 64, 127
2, 268938, Note_off_c, 0, 69, 64
2, 268974, Note_on_c, 0, 71, 51
2, 269010, Note_off_c, 0, 60, 64
2, 269030, Note_on_c, 0, 62, 63
2, 269031, Note_on_c, 0, 72, 64
2, 269031, Note_on_c, 0, 66, 64
2, 269037, Note_on_c, 0, 60, 59
2, 269041, Note_off_c, 0, 71, 64
2, 269052, Control_c, 0, 64, 0
2, 269103, Control_c, 0, 64, 127
2, 269347, Note_off_c, 0, 62, 64
2, 269348, Note_off_c, 0, 66, 64
2, 269348, Note_off_c, 0, 72, 64
2, 269354, Note_off_c, 0, 60, 64
2, 269368, Note_off_c, 0, 50, 64
2, 269371, Control_c, 0, 64, 127
2, 269374, Note_on_c, 0, 67, 54
2, 269375, Note_on_c, 0, 62, 57
2, 269375, Note_on_c, 0, 43, 64
2, 269377, Note_on_c, 0, 71, 58
2, 269380, Control_c, 0, 64, 0
2, 269399, Control_c, 0, 64, 127
2, 269462, Note_off_c, 0, 67, 64
2, 269463, Note_off_c, 0, 62, 64
2, 269465, Note_off_c, 0, 71, 64
2, 269479, Note_on_c, 0, 69, 54
2, 269479, Note_on_c, 0, 50, 57
2, 269482, Note_on_c, 0, 60, 62
2, 269491, Control_c, 0, 64, 127
2, 269538, Note_on_c, 0, 59, 62
2, 269539, Note_on_c, 0, 55, 64
2, 269542, Note_on_c, 0, 67, 66
2, 269547, Note_off_c, 0, 50, 64
2, 269547, Note_off_c, 0, 69, 64
2, 269547, Control_c, 0, 64, 0
2, 269550, Note_off_c, 0, 60, 64
2, 269583, Control_c, 0, 64, 127
2, 269701, Note_off_c, 0, 43, 64
2, 269717, Note_off_c, 0, 59, 64
2, 269718, Note_on_c, 0, 43, 62
2, 269722, Note_on_c, 0, 71, 62
2, 269723, Note_on_c, 0, 62, 64
2, 269725, Note_on_c, 0, 59, 62
2, 269731, Control_c, 0, 64, 0
2, 269741, Note_off_c, 0, 67, 64
2, 269767, Control_c, 0, 64, 127
2, 269827, Note_on_c, 0, 65, 63
2, 269901, Note_off_c, 0, 59, 64
2, 269913, Note_on_c, 0, 76, 66
2, 269920, Note_off_c, 0, 71, 64
2, 269921, Note_off_c, 0, 62, 64
2, 269924, Note_on_c, 0, 59, 51
2, 269935, Note_off_c, 0, 55, 64
2, 269940, Control_c, 0, 64, 0
2, 269971, Control_c, 0, 64, 127
2, 270244, Control_c, 0, 64, 127
2, 270333, Note_off_c, 0, 65, 64
2, 270348, Note_on_c, 0, 74, 39
2, 270349, Note_on_c, 0, 71, 43
2, 270349, Note_on_c, 0, 44, 50
2, 270352, Note_on_c, 0, 65, 39
2, 270357, Note_off_c, 0, 43, 64
2, 270366, Note_off_c, 0, 76, 64
2, 270485, Note_on_c, 0, 64, 51
2, 270499, Note_off_c, 0, 65, 64
2, 270511, Note_off_c, 0, 74, 64
2, 270512, Note_off_c, 0, 71, 64
2, 270514, Note_on_c, 0, 69, 44
2, 270534, Note_on_c, 0, 74, 49
2, 270542, Note_off_c, 0, 59, 64
2, 270554, Note_on_c, 0, 45, 44
2, 270562, Note_on_c, 0, 72, 60
2, 270565, Note_off_c, 0, 44, 64
2, 270568, Control_c, 0, 64, 0
2, 270579, Control_c, 0, 64, 127
2, 270586, Note_off_c, 0, 74, 64
2, 270688, Note_on_c, 0, 62, 55
2, 270692, Note_on_c, 0, 47, 49
2, 270692, Note_on_c, 0, 65, 44
2, 270692, Note_on_c, 0, 71, 55
2, 270702, Note_off_c, 0, 69, 64
2, 270705, Note_off_c, 0, 72, 64
2, 270710, Note_off_c, 0, 64, 64
2, 270712, Note_off_c, 0, 45, 64
2, 270744, Note_on_c, 0, 48, 49
2, 270746, Note_off_c, 0, 62, 64
2, 270748, Note_on_c, 0, 69, 57
2, 270748, Note_on_c, 0, 64, 55
2, 270750, Note_off_c, 0, 71, 64
2, 270750, Note_off_c, 0, 65, 64
2, 270750, Note_off_c, 0, 47, 64
2, 270768, Control_c, 0, 64, 0
2, 270799, Control_c, 0, 64, 127
2, 270937, Note_off_c, 0, 69, 64
2, 270940, Note_off_c, 0, 64, 64
2, 270942, Note_on_c, 0, 50, 47
2, 270947, Note_on_c, 0, 62, 54
2, 270950, Note_on_c, 0, 71, 51
2, 270950, Note_on_c, 0, 65, 54
2, 270952, Note_off_c, 0, 48, 64
2, 270958, Control_c, 0, 64, 0
2, 270969, Control_c, 0, 64, 127
2, 271128, Control_c, 0, 64, 0
2, 271135, Note_on_c, 0, 69, 46
2, 271135, Note_on_c, 0, 64, 49
2, 271139, Note_on_c, 0, 60, 51
2, 271143, Note_on_c, 0, 52, 49
2, 271153, Note_off_c, 0, 62, 64
2, 271154, Note_off_c, 0, 50, 64
2, 271156, Note_off_c, 0, 65, 64
2, 271156, Note_off_c, 0, 71, 64
2, 271160, Control_c, 0, 64, 127
2, 271252, Note_on_c, 0, 68, 44
2, 271252, Note_on_c, 0, 59, 51
2, 271274, Note_off_c, 0, 69, 64
2, 271278, Note_off_c, 0, 60, 64
2, 271305, Note_on_c, 0, 40, 49
2, 271309, Note_on_c, 0, 71, 49
2, 271312, Note_on_c, 0, 62, 54
2, 271318, Note_off_c, 0, 59, 64
2, 271318, Note_off_c, 0, 68, 64
2, 271321, Control_c, 0, 64, 0
2, 271361, Control_c, 0, 64, 127
2, 271498, Note_on_c, 0, 45, 49
2, 271501, Note_on_c, 0, 69, 49
2, 271502, Note_on_c, 0, 60, 58
2, 271505, Note_off_c, 0, 40, 64
2, 271508, Control_c, 0, 64, 0
2, 271509, Note_off_c, 0, 71, 64
2, 271512, Note_off_c, 0, 62, 64
2, 271530, Control_c, 0, 64, 127
2, 271550, Note_off_c, 0, 52, 64
2, 271649, Note_off_c, 0, 64, 64
2, 271650, Note_off_c, 0, 45, 64
2, 271653, Note_off_c, 0, 69, 64
2, 271654, Note_off_c, 0, 60, 64
2, 271700, Note_on_c, 0, 71, 49
2, 271700, Note_on_c, 0, 50, 50
2, 271704, Note_on_c, 0, 66, 49
2, 271704, Note_on_c, 0, 62, 49
2, 271716, Control_c, 0, 64, 0
2, 271740, Control_c, 0, 64, 127
2, 271836, Note_on_c, 0, 69, 41
2, 271836, Note_on_c, 0, 60, 49
2, 271855, Note_off_c, 0, 71, 64
2, 271859, Note_off_c, 0, 62, 64
2, 271871, Note_off_c, 0, 66, 64
2, 271873, Control_c, 0, 64, 0
2, 271881, Note_off_c, 0, 50, 64
2, 271886, Note_on_c, 0, 67, 50
2, 271886, Note_on_c, 0, 55, 36
2, 271888, Note_on_c, 0, 59, 49
2, 271892, Control_c, 0, 64, 0
2, 271894, Note_off_c, 0, 60, 64
2, 271894, Note_off_c, 0, 69, 64
2, 271922, Control_c, 0, 64, 127
2, 272064, Note_on_c, 0, 64, 49
2, 272065, Note_on_c, 0, 69, 50
2, 272068, Note_on_c, 0, 60, 23
2, 272068, Note_on_c, 0, 48, 46
2, 272079, Note_off_c, 0, 55, 64
2, 272079, Note_off_c, 0, 67, 64
2, 272081, Note_off_c, 0, 59, 64
2, 272089, Control_c, 0, 64, 0
2, 272120, Control_c, 0, 64, 127
2, 272255, Note_off_c, 0, 48, 64
2, 272255, Note_on_c, 0, 50, 44
2, 272255, Note_on_c, 0, 67, 46
2, 272255, Note_on_c, 0, 62, 47
2, 272256, Note_on_c, 0, 59, 51
2, 272259, Note_off_c, 0, 64, 64
2, 272260, Note_off_c, 0, 69, 64
2, 272263, Note_off_c, 0, 60, 64
2, 272270, Control_c, 0, 64, 0
2, 272283, Control_c, 0, 64, 127
2, 272392, Note_on_c, 0, 66, 48
2, 272392, Note_on_c, 0, 57, 51
2, 272413, Note_off_c, 0, 62, 64
2, 272413, Note_off_c, 0, 67, 64
2, 272414, Note_off_c, 0, 59, 64
2, 272428, Note_on_c, 0, 38, 49
2, 272435, Note_on_c, 0, 69, 51
2, 272436, Note_on_c, 0, 60, 58
2, 272454, Control_c, 0, 64, 0
2, 272458, Note_off_c, 0, 57, 64
2, 272458, Note_off_c, 0, 66, 64
2, 272482, Control_c, 0, 64, 127
2, 272624, Note_on_c, 0, 67, 48
2, 272625, Control_c, 0, 64, 0
2, 272630, Note_on_c, 0, 59, 49
2, 272632, Note_on_c, 0, 43, 49
2, 272636, Note_off_c, 0, 38, 64
2, 272638, Note_off_c, 0, 69, 64
2, 272639, Note_off_c, 0, 60, 64
2, 272661, Control_c, 0, 64, 127
2, 272685, Note_off_c, 0, 50, 64
2, 272744, Note_off_c, 0, 67, 64
2, 272750, Note_off_c, 0, 59, 64
2, 272752, Note_off_c, 0, 43, 64
2, 272864, Note_on_c, 0, 43, 33
2, 272872, Note_on_c, 0, 63, 39
2, 272872, Note_on_c, 0, 58, 39
2, 272872, Note_on_c, 0, 51, 32
2, 272925, Control_c, 0, 64, 0
2, 272954, Control_c, 0, 64, 127
2, 272958, Note_off_c, 0, 51, 64
2, 272974, Note_off_c, 0, 63, 64
2, 273087, Note_on_c, 0, 63, 50
2, 273088, Note_on_c, 0, 51, 39
2, 273169, Note_off_c, 0, 63, 64
2, 273176, Note_off_c, 0, 51, 64
2, 273276, Note_on_c, 0, 51, 55
2, 273277, Note_on_c, 0, 63, 58
2, 273284, Control_c, 0, 64, 0
2, 273297, Control_c, 0, 64, 127
2, 273343, Note_off_c, 0, 63, 64
2, 273353, Note_off_c, 0, 51, 64
2, 273389, Note_off_c, 0, 43, 64
2, 273397, Note_off_c, 0, 58, 64
2, 273464, Note_on_c, 0, 51, 58
2, 273468, Note_on_c, 0, 43, 50
2, 273468, Note_on_c, 0, 63, 62
2, 273472, Note_on_c, 0, 59, 58
2, 273483, Control_c, 0, 64, 0
2, 273512, Control_c, 0, 64, 127
2, 273580, Note_on_c, 0, 62, 51
2, 273582, Note_on_c, 0, 50, 47
2, 273593, Note_off_c, 0, 51, 64
2, 273597, Note_off_c, 0, 63, 64
2, 273638, Note_on_c, 0, 49, 54
2, 273641, Note_on_c, 0, 61, 55
2, 273651, Control_c, 0, 64, 0
2, 273659, Note_off_c, 0, 62, 64
2, 273661, Note_off_c, 0, 50, 64
2, 273819, Control_c, 0, 64, 127
2, 273820, Note_on_c, 0, 50, 49
2, 273827, Note_on_c, 0, 62, 48
2, 273832, Note_off_c, 0, 49, 64
2, 273835, Note_off_c, 0, 61, 64
2, 273866, Note_off_c, 0, 59, 64
2, 273940, Note_off_c, 0, 43, 64
2, 273953, Note_off_c, 0, 50, 64
2, 273960, Note_off_c, 0, 62, 64
2, 274007, Note_on_c, 0, 51, 49
2, 274008, Note_on_c, 0, 43, 50
2, 274010, Note_on_c, 0, 63, 50
2, 274010, Note_on_c, 0, 58, 58
2, 274019, Control_c, 0, 64, 0
2, 274049, Control_c, 0, 64, 127
2, 274136, Note_on_c, 0, 65, 54
2, 274136, Note_on_c, 0, 53, 49
2, 274144, Note_off_c, 0, 58, 64
2, 274147, Note_off_c, 0, 43, 64
2, 274157, Note_off_c, 0, 51, 64
2, 274160, Note_off_c, 0, 63, 64
2, 274180, Note_on_c, 0, 43, 55
2, 274188, Note_on_c, 0, 58, 71
2, 274189, Note_on_c, 0, 67, 59
2, 274191, Note_on_c, 0, 55, 64
2, 274202, Control_c, 0, 64, 0
2, 274207, Note_off_c, 0, 53, 64
2, 274207, Note_off_c, 0, 65, 64
2, 274209, Control_c, 0, 64, 127
2, 274216, Control_c, 0, 64, 127
2, 274319, Note_off_c, 0, 43, 64
2, 274361, Note_off_c, 0, 67, 64
2, 274361, Note_off_c, 0, 58, 64
2, 274364, Note_off_c, 0, 55, 64
2, 274376, Note_on_c, 0, 58, 72
2, 274376, Note_on_c, 0, 43, 37
2, 274377, Note_on_c, 0, 65, 62
2, 274380, Note_on_c, 0, 53, 64
2, 274380, Control_c, 0, 64, 0
2, 274397, Control_c, 0, 64, 127
2, 274484, Note_on_c, 0, 63, 64
2, 274492, Note_on_c, 0, 51, 62
2, 274501, Note_off_c, 0, 58, 64
2, 274502, Note_off_c, 0, 65, 64
2, 274505, Note_off_c, 0, 53, 64
2, 274515, Note_off_c, 0, 63, 64
2, 274515, Note_off_c, 0, 43, 64
2, 274522, Note_off_c, 0, 51, 64
2, 274544, Note_on_c, 0, 59, 62
2, 274548, Note_on_c, 0, 63, 71
2, 274550, Note_on_c, 0, 51, 67
2, 274554, Note_on_c, 0, 43, 64
2, 274554, Control_c, 0, 64, 0
2, 274585, Control_c, 0, 64, 127
2, 274676, Note_on_c, 0, 62, 67
2, 274680, Note_on_c, 0, 50, 57
2, 274686, Note_off_c, 0, 63, 64
2, 274688, Note_off_c, 0, 51, 64
2, 274719, Control_c, 0, 64, 0
2, 274733, Note_on_c, 0, 61, 65
2, 274738, Note_on_c, 0, 49, 57
2, 274746, Note_off_c, 0, 62, 64
2, 274750, Note_off_c, 0, 50, 64
2, 274899, Control_c, 0, 64, 127
2, 274917, Note_on_c, 0, 62, 57
2, 274926, Note_on_c, 0, 50, 58
2, 274930, Note_off_c, 0, 61, 64
2, 274935, Note_off_c, 0, 49, 64
2, 274944, Note_off_c, 0, 59, 64
2, 275098, Note_off_c, 0, 50, 64
2, 275103, Note_off_c, 0, 62, 64
2, 275112, Note_off_c, 0, 43, 64
2, 275118, Note_on_c, 0, 38, 58
2, 275138, Control_c, 0, 64, 0
2, 275148, Note_on_c, 0, 65, 58
2, 275150, Note_on_c, 0, 68, 41
2, 275152, Note_on_c, 0, 59, 58
2, 275156, Note_on_c, 0, 50, 63
2, 275166, Control_c, 0, 64, 127
2, 275223, Note_off_c, 0, 38, 64
2, 275244, Note_off_c, 0, 65, 64
2, 275246, Note_off_c, 0, 68, 64
2, 275248, Note_off_c, 0, 59, 64
2, 275264, Note_on_c, 0, 60, 55
2, 275268, Note_on_c, 0, 66, 58
2, 275269, Note_on_c, 0, 69, 54
2, 275316, Note_on_c, 0, 56, 58
2, 275324, Note_on_c, 0, 62, 42
2, 275327, Note_on_c, 0, 65, 64
2, 275328, Note_on_c, 0, 71, 66
2, 275339, Control_c, 0, 64, 0
2, 275341, Note_off_c, 0, 60, 64
2, 275345, Note_off_c, 0, 66, 64
2, 275346, Note_off_c, 0, 69, 64
2, 275361, Control_c, 0, 64, 127
2, 275492, Control_c, 0, 64, 0
2, 275496, Note_on_c, 0, 57, 58
2, 275496, Note_on_c, 0, 66, 65
2, 275498, Note_on_c, 0, 72, 58
2, 275510, Control_c, 0, 64, 127
2, 275512, Note_off_c, 0, 65, 64
2, 275513, Note_off_c, 0, 71, 64
2, 275524, Note_off_c, 0, 56, 64
2, 275687, Note_on_c, 0, 73, 64
2, 275687, Note_on_c, 0, 67, 58
2, 275688, Note_on_c, 0, 55, 44
2, 275691, Note_on_c, 0, 58, 58
2, 275692, Note_off_c, 0, 62, 64
2, 275693, Note_off_c, 0, 66, 64
2, 275693, Note_off_c, 0, 57, 64
2, 275695, Note_off_c, 0, 72, 64
2, 275697, Note_off_c, 0, 50, 64
2, 275801, Note_on_c, 0, 74, 60
2, 275801, Note_on_c, 0, 59, 52
2, 275820, Note_off_c, 0, 73, 64
2, 275824, Note_off_c, 0, 58, 64
2, 275852, Note_on_c, 0, 62, 65
2, 275852, Note_on_c, 0, 71, 58
2, 275853, Note_on_c, 0, 79, 65
2, 275860, Note_off_c, 0, 67, 64
2, 275867, Note_off_c, 0, 59, 64
2, 275867, Note_off_c, 0, 74, 64
2, 275868, Control_c, 0, 64, 0
2, 275881, Note_off_c, 0, 55, 64
2, 275919, Control_c, 0, 64, 127
2, 276025, Note_on_c, 0, 55, 54
2, 276073, Note_off_c, 0, 71, 64
2, 276092, Note_off_c, 0, 79, 64
2, 276092, Note_on_c, 0, 67, 51
2, 276094, Note_on_c, 0, 71, 35
2, 276132, Note_on_c, 0, 72, 58
2, 276138, Note_off_c, 0, 67, 64
2, 276140, Note_off_c, 0, 71, 64
2, 276164, Note_on_c, 0, 71, 66
2, 276187, Note_off_c, 0, 72, 64
2, 276204, Note_on_c, 0, 65, 58
2, 276204, Note_on_c, 0, 59, 64
2, 276205, Note_on_c, 0, 68, 73
2, 276211, Note_on_c, 0, 50, 39
2, 276214, Note_off_c, 0, 55, 64
2, 276217, Note_off_c, 0, 71, 64
2, 276217, Control_c, 0, 64, 0
2, 276242, Control_c, 0, 64, 127
2, 276304, Note_off_c, 0, 59, 64
2, 276304, Note_off_c, 0, 65, 64
2, 276305, Note_off_c, 0, 68, 64
2, 276328, Note_on_c, 0, 69, 55
2, 276332, Note_on_c, 0, 66, 54
2, 276332, Note_on_c, 0, 60, 59
2, 276361, Note_off_c, 0, 66, 64
2, 276368, Note_on_c, 0, 56, 69
2, 276372, Note_on_c, 0, 65, 65
2, 276374, Note_on_c, 0, 71, 67
2, 276378, Note_off_c, 0, 69, 64
2, 276382, Note_off_c, 0, 60, 64
2, 276390, Control_c, 0, 64, 0
2, 276420, Control_c, 0, 64, 127
2, 276556, Note_on_c, 0, 66, 70
2, 276559, Note_on_c, 0, 72, 78
2, 276564, Note_on_c, 0, 57, 70
2, 276572, Note_off_c, 0, 56, 64
2, 276576, Note_off_c, 0, 65, 64
2, 276578, Note_off_c, 0, 71, 64
2, 276580, Note_off_c, 0, 50, 64
2, 276728, Note_on_c, 0, 76, 64
2, 276730, Note_on_c, 0, 70, 66
2, 276732, Note_off_c, 0, 62, 64
2, 276732, Note_on_c, 0, 55, 64
2, 276734, Note_on_c, 0, 61, 60
2, 276743, Note_off_c, 0, 66, 64
2, 276746, Note_off_c, 0, 72, 64
2, 276751, Note_off_c, 0, 57, 64
2, 276828, Note_on_c, 0, 74, 62
2, 276828, Note_on_c, 0, 71, 62
2, 276835, Note_on_c, 0, 62, 55
2, 276851, Note_off_c, 0, 76, 64
2, 276853, Note_off_c, 0, 70, 64
2, 276857, Note_off_c, 0, 61, 64
2, 276866, Note_off_c, 0, 71, 64
2, 276868, Note_on_c, 0, 71, 65
2, 276914, Note_on_c, 0, 67, 46
2, 276920, Note_on_c, 0, 83, 75
2, 276931, Note_off_c, 0, 74, 64
2, 276934, Control_c, 0, 64, 0
2, 276938, Note_off_c, 0, 62, 64
2, 276973, Control_c, 0, 64, 127
2, 277064, Note_off_c, 0, 71, 64
2, 277085, Note_off_c, 0, 67, 64
2, 277087, Note_on_c, 0, 79, 74
2, 277098, Note_off_c, 0, 83, 64
2, 277102, Note_off_c, 0, 55, 64
2, 277137, Note_on_c, 0, 74, 71
2, 277158, Note_off_c, 0, 79, 64
2, 277184, Note_on_c, 0, 71, 71
2, 277205, Note_off_c, 0, 74, 64
2, 277229, Note_on_c, 0, 67, 78
2, 277246, Note_off_c, 0, 71, 64
2, 277292, Note_on_c, 0, 63, 65
2, 277295, Note_on_c, 0, 75, 67
2, 277298, Note_on_c, 0, 70, 55
2, 277302, Note_on_c, 0, 43, 55
2, 277302, Note_on_c, 0, 51, 56
2, 277311, Note_off_c, 0, 67, 64
2, 277314, Control_c, 0, 64, 0
2, 277343, Control_c, 0, 64, 127
2, 277433, Note_off_c, 0, 63, 64
2, 277436, Note_off_c, 0, 75, 64
2, 277443, Note_off_c, 0, 51, 64
2, 277513, Note_on_c, 0, 75, 56
2, 277517, Note_on_c, 0, 63, 62
2, 277520, Note_on_c, 0, 51, 58
2, 277640, Note_off_c, 0, 75, 64
2, 277644, Note_off_c, 0, 63, 64
2, 277647, Note_off_c, 0, 51, 64
2, 277701, Note_on_c, 0, 63, 64
2, 277705, Note_on_c, 0, 51, 62
2, 277709, Note_on_c, 0, 75, 65
2, 277795, Note_off_c, 0, 70, 64
2, 277799, Note_off_c, 0, 43, 64
2, 277826, Note_off_c, 0, 63, 64
2, 277830, Note_off_c, 0, 51, 64
2, 277834, Note_off_c, 0, 75, 64
2, 277873, Note_on_c, 0, 63, 58
2, 277876, Note_on_c, 0, 51, 56
2, 277880, Note_on_c, 0, 75, 62
2, 277880, Note_on_c, 0, 71, 78
2, 277884, Note_on_c, 0, 43, 51
2, 277893, Control_c, 0, 64, 0
2, 277903, Control_c, 0, 64, 127
2, 277992, Note_on_c, 0, 74, 58
2, 277996, Note_on_c, 0, 62, 56
2, 278001, Note_on_c, 0, 50, 56
2, 278008, Note_off_c, 0, 63, 64
2, 278011, Note_off_c, 0, 51, 64
2, 278015, Note_off_c, 0, 75, 64
2, 278043, Control_c, 0, 64, 0
2, 278049, Note_on_c, 0, 73, 63
2, 278053, Note_on_c, 0, 61, 62
2, 278056, Note_on_c, 0, 49, 58
2, 278067, Note_off_c, 0, 74, 64
2, 278071, Note_off_c, 0, 62, 64
2, 278076, Note_off_c, 0, 50, 64
2, 278082, Control_c, 0, 64, 127
2, 278230, Control_c, 0, 64, 0
2, 278238, Note_on_c, 0, 74, 58
2, 278238, Note_on_c, 0, 62, 63
2, 278243, Note_on_c, 0, 50, 58
2, 278245, Note_off_c, 0, 73, 64
2, 278249, Note_off_c, 0, 61, 64
2, 278252, Note_off_c, 0, 49, 64
2, 278260, Control_c, 0, 64, 127
2, 278366, Note_off_c, 0, 71, 64
2, 278370, Note_off_c, 0, 43, 64
2, 278392, Note_off_c, 0, 62, 64
2, 278392, Note_off_c, 0, 74, 64
2, 278397, Note_off_c, 0, 50, 64
2, 278411, Control_c, 0, 64, 0
2, 278416, Note_on_c, 0, 63, 58
2, 278417, Note_on_c, 0, 75, 55
2, 278424, Note_on_c, 0, 43, 51
2, 278426, Note_on_c, 0, 70, 64
2, 278427, Note_on_c, 0, 51, 56
2, 278442, Control_c, 0, 64, 127
2, 278529, Note_on_c, 0, 53, 51
2, 278531, Note_off_c, 0, 63, 64
2, 278532, Note_off_c, 0, 75, 64
2, 278534, Note_on_c, 0, 77, 52
2, 278534, Note_on_c, 0, 65, 58
2, 278542, Note_off_c, 0, 51, 64
2, 278563, Note_off_c, 0, 70, 64
2, 278591, Note_on_c, 0, 55, 58
2, 278591, Control_c, 0, 64, 0
2, 278592, Note_on_c, 0, 70, 78
2, 278592, Note_on_c, 0, 67, 58
2, 278600, Note_on_c, 0, 79, 63
2, 278602, Note_off_c, 0, 53, 64
2, 278607, Note_off_c, 0, 65, 64
2, 278607, Note_off_c, 0, 77, 64
2, 278612, Control_c, 0, 64, 127
2, 278729, Note_off_c, 0, 70, 64
2, 278764, Control_c, 0, 64, 127
2, 278772, Note_on_c, 0, 70, 78
2, 278773, Note_on_c, 0, 77, 58
2, 278774, Note_on_c, 0, 65, 58
2, 278780, Note_on_c, 0, 53, 52
2, 278788, Note_off_c, 0, 55, 64
2, 278789, Note_off_c, 0, 67, 64
2, 278797, Note_off_c, 0, 79, 64
2, 278900, Note_on_c, 0, 51, 56
2, 278903, Note_on_c, 0, 63, 59
2, 278904, Note_on_c, 0, 75, 51
2, 278908, Note_off_c, 0, 77, 64
2, 278909, Note_off_c, 0, 65, 64
2, 278909, Note_off_c, 0, 70, 64
2, 278912, Note_off_c, 0, 43, 64
2, 278915, Note_off_c, 0, 53, 64
2, 278931, Note_off_c, 0, 51, 64
2, 278934, Note_off_c, 0, 63, 64
2, 278935, Note_off_c, 0, 75, 64
2, 278941, Control_c, 0, 64, 0
2, 278947, Note_on_c, 0, 75, 55
2, 278948, Note_on_c, 0, 71, 75
2, 278951, Control_c, 0, 64, 127
2, 278952, Note_on_c, 0, 43, 51
2, 278952, Note_on_c, 0, 51, 57
2, 278953, Note_on_c, 0, 63, 58
2, 278970, Control_c, 0, 64, 0
2, 278992, Control_c, 0, 64, 127
2, 279092, Note_on_c, 0, 74, 58
2, 279096, Note_on_c, 0, 50, 49
2, 279100, Note_on_c, 0, 62, 51
2, 279103, Note_off_c, 0, 75, 64
2, 279108, Note_off_c, 0, 51, 64
2, 279109, Note_off_c, 0, 63, 64
2, 279142, Note_on_c, 0, 73, 59
2, 279144, Note_on_c, 0, 49, 57
2, 279145, Note_on_c, 0, 61, 54
2, 279152, Control_c, 0, 64, 0
2, 279167, Control_c, 0, 64, 127
2, 279175, Note_off_c, 0, 74, 64
2, 279179, Note_off_c, 0, 50, 64
2, 279183, Note_off_c, 0, 62, 64
2, 279357, Note_on_c, 0, 62, 50
2, 279359, Note_on_c, 0, 74, 52
2, 279365, Note_on_c, 0, 50, 49
2, 279367, Note_off_c, 0, 73, 64
2, 279369, Note_off_c, 0, 49, 64
2, 279370, Note_off_c, 0, 61, 64
2, 279378, Control_c, 0, 64, 0
2, 279398, Control_c, 0, 64, 127
2, 279490, Control_c, 0, 64, 0
2, 279506, Control_c, 0, 64, 127
2, 279557, Note_off_c, 0, 71, 64
2, 279561, Note_off_c, 0, 43, 64
2, 279583, Note_off_c, 0, 62, 64
2, 279585, Note_off_c, 0, 74, 64
2, 279591, Note_off_c, 0, 50, 64
2, 279620, Control_c, 0, 64, 127
2, 279624, Note_on_c, 0, 65, 49
2, 279628, Note_on_c, 0, 38, 52
2, 279629, Note_on_c, 0, 68, 49
2, 279631, Note_on_c, 0, 59, 51
2, 279640, Note_on_c, 0, 50, 51
2, 279656, Control_c, 0, 64, 0
2, 279667, Control_c, 0, 64, 127
2, 279697, Note_off_c, 0, 65, 64
2, 279701, Note_off_c, 0, 38, 64
2, 279702, Note_off_c, 0, 68, 64
2, 279704, Note_off_c, 0, 59, 64
2, 279772, Note_on_c, 0, 69, 51
2, 279774, Note_on_c, 0, 60, 58
2, 279776, Note_on_c, 0, 66, 58
2, 279812, Note_on_c, 0, 65, 62
2, 279816, Note_on_c, 0, 71, 58
2, 279818, Note_on_c, 0, 56, 56
2, 279831, Note_off_c, 0, 69, 64
2, 279835, Note_off_c, 0, 60, 64
2, 279836, Note_off_c, 0, 66, 64
2, 279836, Control_c, 0, 64, 0
2, 279838, Control_c, 0, 64, 0
2, 279854, Control_c, 0, 64, 127
2, 279903, Control_c, 0, 64, 127
2, 280012, Note_on_c, 0, 66, 51
2, 280013, Note_on_c, 0, 57, 58
2, 280016, Note_on_c, 0, 72, 56
2, 280019, Note_off_c, 0, 65, 64
2, 280023, Note_off_c, 0, 71, 64
2, 280024, Control_c, 0, 64, 0
2, 280025, Note_off_c, 0, 56, 64
2, 280065, Control_c, 0, 64, 127
2, 280192, Note_on_c, 0, 67, 46
2, 280192, Note_on_c, 0, 73, 50
2, 280196, Note_on_c, 0, 58, 55
2, 280202, Control_c, 0, 64, 0
2, 280216, Note_off_c, 0, 66, 64
2, 280217, Note_off_c, 0, 57, 64
2, 280220, Note_off_c, 0, 72, 64
2, 280233, Control_c, 0, 64, 127
2, 280320, Note_on_c, 0, 70, 59
2, 280324, Note_on_c, 0, 76, 51
2, 280325, Note_on_c, 0, 61, 52
2, 280346, Note_off_c, 0, 73, 64
2, 280346, Note_off_c, 0, 67, 64
2, 280347, Note_off_c, 0, 50, 64
2, 280350, Note_off_c, 0, 58, 64
2, 280363, Control_c, 0, 64, 0
2, 280369, Note_on_c, 0, 79, 58
2, 280370, Note_on_c, 0, 73, 64
2, 280370, Note_on_c, 0, 64, 58
2, 280380, Note_off_c, 0, 70, 64
2, 280384, Note_off_c, 0, 61, 64
2, 280385, Control_c, 0, 64, 0
2, 280392, Note_off_c, 0, 76, 64
2, 280398, Control_c, 0, 64, 127
2, 280402, Control_c, 0, 64, 127
2, 280551, Note_on_c, 0, 82, 54
2, 280551, Note_on_c, 0, 67, 54
2, 280554, Note_on_c, 0, 76, 58
2, 280555, Control_c, 0, 64, 0
2, 280556, Control_c, 0, 64, 0
2, 280575, Note_off_c, 0, 79, 64
2, 280576, Note_off_c, 0, 64, 64
2, 280576, Note_off_c, 0, 73, 64
2, 280588, Control_c, 0, 64, 127
2, 280594, Control_c, 0, 64, 127
2, 280720, Note_on_c, 0, 79, 54
2, 280720, Note_on_c, 0, 73, 57
2, 280726, Control_c, 0, 64, 0
2, 280731, Note_on_c, 0, 64, 56
2, 280740, Control_c, 0, 64, 127
2, 280741, Note_off_c, 0, 67, 64
2, 280741, Note_off_c, 0, 82, 64
2, 280744, Note_off_c, 0, 76, 64
2, 280839, Note_on_c, 0, 76, 49
2, 280840, Note_on_c, 0, 70, 59
2, 280840, Note_on_c, 0, 61, 52
2, 280841, Note_off_c, 0, 73, 64
2, 280841, Note_off_c, 0, 79, 64
2, 280852, Note_off_c, 0, 64, 64
2, 280896, Note_on_c, 0, 73, 59
2, 280896, Note_on_c, 0, 67, 65
2, 280896, Note_on_c, 0, 58, 46
2, 280904, Control_c, 0, 64, 0
2, 280907, Note_off_c, 0, 76, 64
2, 280908, Note_off_c, 0, 61, 64
2, 280908, Note_off_c, 0, 70, 64
2, 280919, Control_c, 0, 64, 127
2, 281072, Note_on_c, 0, 70, 55
2, 281072, Note_on_c, 0, 64, 57
2, 281073, Control_c, 0, 64, 0
2, 281078, Note_on_c, 0, 55, 57
2, 281079, Note_off_c, 0, 58, 64
2, 281079, Note_off_c, 0, 67, 64
2, 281079, Note_off_c, 0, 73, 64
2, 281096, Control_c, 0, 64, 127
2, 281227, Note_off_c, 0, 64, 64
2, 281240, Note_on_c, 0, 58, 54
2, 281243, Note_on_c, 0, 50, 51
2, 281246, Note_on_c, 0, 64, 62
2, 281247, Note_on_c, 0, 67, 62
2, 281247, Note_on_c, 0, 76, 58
2, 281249, Note_off_c, 0, 70, 64
2, 281251, Control_c, 0, 64, 0
2, 281254, Control_c, 0, 64, 0
2, 281255, Note_off_c, 0, 55, 64
2, 281261, Control_c, 0, 64, 127
2, 281267, Control_c, 0, 64, 127
2, 281364, Note_on_c, 0, 74, 47
2, 281367, Note_on_c, 0, 67, 55
2, 281368, Note_on_c, 0, 62, 55
2, 281368, Note_on_c, 0, 59, 55
2, 281375, Note_off_c, 0, 58, 64
2, 281381, Note_off_c, 0, 64, 64
2, 281382, Note_off_c, 0, 67, 64
2, 281382, Note_off_c, 0, 76, 64
2, 281413, Note_off_c, 0, 67, 64
2, 281414, Note_off_c, 0, 62, 64
2, 281418, Note_on_c, 0, 57, 58
2, 281421, Note_on_c, 0, 72, 58
2, 281421, Note_on_c, 0, 66, 62
2, 281422, Note_on_c, 0, 62, 64
2, 281423, Note_off_c, 0, 74, 64
2, 281423, Control_c, 0, 64, 0
2, 281427, Note_off_c, 0, 59, 64
2, 281441, Control_c, 0, 64, 0
2, 281455, Control_c, 0, 64, 127
2, 281472, Control_c, 0, 64, 127
2, 281621, Note_off_c, 0, 66, 64
2, 281630, Note_off_c, 0, 57, 64
2, 281631, Note_on_c, 0, 66, 57
2, 281633, Note_off_c, 0, 72, 64
2, 281634, Note_off_c, 0, 62, 64
2, 281634, Note_on_c, 0, 60, 54
2, 281637, Note_on_c, 0, 62, 56
2, 281648, Control_c, 0, 64, 0
2, 281694, Control_c, 0, 64, 127
2, 281760, Note_off_c, 0, 60, 64
2, 281762, Note_off_c, 0, 62, 64
2, 281766, Note_off_c, 0, 66, 64
2, 281773, Note_off_c, 0, 50, 64
2, 281889, Note_on_c, 0, 67, 50
2, 281893, Note_on_c, 0, 43, 58
2, 281896, Note_on_c, 0, 59, 26
2, 281928, Control_c, 0, 64, 0
2, 281958, Control_c, 0, 64, 127
2, 282045, Note_off_c, 0, 59, 64
2, 282112, Note_on_c, 0, 47, 54
2, 282120, Note_on_c, 0, 65, 37
2, 282124, Note_off_c, 0, 43, 64
2, 282124, Note_on_c, 0, 62, 34
2, 282124, Note_on_c, 0, 55, 33
2, 282141, Control_c, 0, 64, 0
2, 282162, Control_c, 0, 64, 127
2, 282205, Note_on_c, 0, 45, 54
2, 282208, Note_off_c, 0, 65, 64
2, 282212, Note_off_c, 0, 55, 64
2, 282212, Note_off_c, 0, 62, 64
2, 282220, Note_off_c, 0, 47, 64
2, 282280, Note_on_c, 0, 55, 36
2, 282282, Note_on_c, 0, 65, 40
2, 282284, Note_on_c, 0, 62, 39
2, 282286, Note_on_c, 0, 43, 52
2, 282296, Note_off_c, 0, 45, 64
2, 282307, Control_c, 0, 64, 0
2, 282337, Control_c, 0, 64, 127
2, 282368, Note_off_c, 0, 55, 64
2, 282370, Note_off_c, 0, 65, 64
2, 282371, Note_on_c, 0, 47, 58
2, 282372, Note_off_c, 0, 62, 64
2, 282380, Note_off_c, 0, 67, 64
2, 282415, Note_off_c, 0, 43, 64
2, 282448, Note_on_c, 0, 63, 47
2, 282448, Note_on_c, 0, 62, 36
2, 282452, Note_on_c, 0, 67, 51
2, 282452, Note_on_c, 0, 55, 36
2, 282462, Note_on_c, 0, 48, 52
2, 282470, Note_off_c, 0, 47, 64
2, 282476, Control_c, 0, 64, 0
2, 282494, Control_c, 0, 64, 127
2, 282585, Note_off_c, 0, 62, 64
2, 282585, Note_off_c, 0, 63, 64
2, 282589, Note_off_c, 0, 55, 64
2, 282590, Note_on_c, 0, 51, 49
2, 282608, Note_off_c, 0, 48, 64
2, 282623, Note_on_c, 0, 63, 49
2, 282624, Note_on_c, 0, 60, 49
2, 282634, Control_c, 0, 64, 0
2, 282652, Note_on_c, 0, 55, 51
2, 282662, Note_off_c, 0, 51, 64
2, 282676, Control_c, 0, 64, 127
2, 282711, Note_off_c, 0, 63, 64
2, 282712, Note_off_c, 0, 60, 64
2, 282805, Control_c, 0, 64, 0
2, 282813, Note_on_c, 0, 63, 41
2, 282817, Note_on_c, 0, 60, 39
2, 282840, Control_c, 0, 64, 127
2, 282901, Note_off_c, 0, 63, 64
2, 282905, Note_off_c, 0, 60, 64
2, 282983, Note_on_c, 0, 62, 39
2, 282984, Note_on_c, 0, 60, 37
2, 282992, Note_on_c, 0, 43, 56
2, 282999, Note_off_c, 0, 55, 64
2, 283006, Control_c, 0, 64, 0
2, 283035, Control_c, 0, 64, 127
2, 283120, Note_off_c, 0, 62, 64
2, 283121, Note_off_c, 0, 60, 64
2, 283166, Control_c, 0, 64, 0
2, 283172, Note_on_c, 0, 59, 41
2, 283173, Note_on_c, 0, 50, 50
2, 283175, Note_on_c, 0, 62, 39
2, 283191, Control_c, 0, 64, 127
2, 283207, Note_off_c, 0, 43, 64
2, 283240, Note_off_c, 0, 59, 64
2, 283256, Note_on_c, 0, 59, 51
2, 283263, Note_off_c, 0, 62, 64
2, 283270, Note_off_c, 0, 50, 64
2, 283309, Note_off_c, 0, 67, 64
2, 283348, Note_on_c, 0, 71, 41
2, 283348, Note_on_c, 0, 67, 41
2, 283353, Note_on_c, 0, 55, 56
2, 283356, Control_c, 0, 64, 0
2, 283368, Note_off_c, 0, 59, 64
2, 283432, Note_on_c, 0, 64, 59
2, 283436, Note_off_c, 0, 67, 64
2, 283436, Note_off_c, 0, 71, 64
2, 283454, Note_off_c, 0, 55, 64
2, 283520, Note_on_c, 0, 62, 63
2, 283524, Note_on_c, 0, 72, 41
2, 283524, Note_on_c, 0, 67, 41
2, 283530, Note_off_c, 0, 64, 64
2, 283532, Control_c, 0, 64, 0
2, 283544, Control_c, 0, 64, 127
2, 283650, Note_on_c, 0, 57, 49
2, 283661, Note_off_c, 0, 67, 64
2, 283661, Note_off_c, 0, 72, 64
2, 283694, Note_on_c, 0, 50, 54
2, 283697, Note_off_c, 0, 62, 64
2, 283701, Note_on_c, 0, 72, 44
2, 283701, Note_on_c, 0, 66, 46
2, 283707, Note_off_c, 0, 57, 64
2, 283712, Control_c, 0, 64, 0
2, 283740, Control_c, 0, 64, 127
2, 283789, Note_off_c, 0, 66, 64
2, 283789, Note_off_c, 0, 72, 64
2, 283884, Note_on_c, 0, 72, 37
2, 283888, Note_on_c, 0, 66, 41
2, 283943, Note_on_c, 0, 74, 42
2, 283955, Note_off_c, 0, 72, 64
2, 283976, Note_off_c, 0, 66, 64
2, 283990, Note_on_c, 0, 72, 39
2, 284005, Note_off_c, 0, 74, 64
2, 284034, Note_on_c, 0, 71, 44
2, 284038, Note_on_c, 0, 67, 41
2, 284043, Note_on_c, 0, 62, 32
2, 284050, Note_on_c, 0, 43, 51
2, 284056, Note_off_c, 0, 72, 64
2, 284058, Control_c, 0, 64, 0
2, 284071, Control_c, 0, 64, 127
2, 284073, Note_off_c, 0, 50, 64
2, 284171, Note_off_c, 0, 71, 64
2, 284175, Note_off_c, 0, 67, 64
2, 284180, Note_off_c, 0, 62, 64
2, 284217, Note_off_c, 0, 43, 64
2, 284217, Note_on_c, 0, 47, 51
2, 284220, Note_on_c, 0, 65, 49
2, 284226, Note_on_c, 0, 67, 46
2, 284226, Note_on_c, 0, 62, 34
2, 284239, Control_c, 0, 64, 0
2, 284260, Control_c, 0, 64, 127
2, 284305, Note_on_c, 0, 45, 51
2, 284308, Note_off_c, 0, 65, 64
2, 284314, Note_off_c, 0, 62, 64
2, 284314, Note_off_c, 0, 67, 64
2, 284315, Note_off_c, 0, 47, 64
2, 284389, Note_on_c, 0, 62, 39
2, 284393, Note_on_c, 0, 67, 39
2, 284393, Note_on_c, 0, 65, 44
2, 284393, Note_on_c, 0, 43, 58
2, 284406, Control_c, 0, 64, 0
2, 284413, Note_off_c, 0, 45, 64
2, 284417, Control_c, 0, 64, 127
2, 284476, Note_on_c, 0, 47, 57
2, 284477, Note_off_c, 0, 62, 64
2, 284481, Note_off_c, 0, 65, 64
2, 284481, Note_off_c, 0, 67, 64
2, 284504, Note_off_c, 0, 43, 64
2, 284554, Control_c, 0, 64, 0
2, 284559, Note_on_c, 0, 48, 64
2, 284564, Note_off_c, 0, 47, 64
2, 284564, Note_on_c, 0, 63, 42
2, 284565, Note_on_c, 0, 67, 49
2, 284565, Note_on_c, 0, 62, 41
2, 284603, Control_c, 0, 64, 127
2, 284693, Note_on_c, 0, 51, 62
2, 284701, Note_off_c, 0, 63, 64
2, 284702, Note_off_c, 0, 62, 64
2, 284711, Note_off_c, 0, 48, 64
2, 284737, Control_c, 0, 64, 0
2, 284740, Note_on_c, 0, 63, 43
2, 284747, Note_on_c, 0, 60, 44
2, 284748, Note_on_c, 0, 55, 64
2, 284764, Note_off_c, 0, 51, 64
2, 284792, Control_c, 0, 64, 127
2, 284828, Note_off_c, 0, 63, 64
2, 284835, Note_off_c, 0, 60, 64
2, 284913, Control_c, 0, 64, 0
2, 284921, Note_on_c, 0, 63, 42
2, 284927, Note_on_c, 0, 60, 42
2, 284965, Control_c, 0, 64, 127
2, 285009, Note_off_c, 0, 63, 64
2, 285015, Note_off_c, 0, 60, 64
2, 285094, Note_on_c, 0, 60, 42
2, 285096, Note_on_c, 0, 62, 37
2, 285097, Control_c, 0, 64, 0
2, 285103, Note_on_c, 0, 43, 59
2, 285108, Note_off_c, 0, 55, 64
2, 285141, Control_c, 0, 64, 127
2, 285231, Note_off_c, 0, 60, 64
2, 285233, Note_off_c, 0, 62, 64
2, 285261, Control_c, 0, 64, 0
2, 285268, Note_on_c, 0, 59, 36
2, 285273, Note_on_c, 0, 62, 39
2, 285273, Note_on_c, 0, 50, 50
2, 285290, Control_c, 0, 64, 127
2, 285296, Note_off_c, 0, 43, 64
2, 285344, Note_off_c, 0, 59, 64
2, 285359, Note_on_c, 0, 59, 64
2, 285361, Note_off_c, 0, 62, 64
2, 285378, Note_off_c, 0, 50, 64
2, 285444, Note_off_c, 0, 67, 64
2, 285448, Note_on_c, 0, 71, 41
2, 285448, Note_on_c, 0, 67, 41
2, 285454, Note_on_c, 0, 55, 63
2, 285465, Note_off_c, 0, 59, 64
2, 285532, Note_on_c, 0, 64, 62
2, 285536, Note_off_c, 0, 67, 64
2, 285536, Note_off_c, 0, 71, 64
2, 285563, Note_off_c, 0, 55, 64
2, 285576, Control_c, 0, 64, 0
2, 285615, Note_on_c, 0, 72, 42
2, 285617, Note_on_c, 0, 66, 41
2, 285624, Note_on_c, 0, 62, 64
2, 285638, Note_off_c, 0, 64, 64
2, 285641, Control_c, 0, 64, 0
2, 285654, Control_c, 0, 64, 127
2, 285743, Note_on_c, 0, 57, 52
2, 285752, Note_off_c, 0, 72, 64
2, 285754, Note_off_c, 0, 66, 64
2, 285768, Note_off_c, 0, 62, 64
2, 285795, Note_on_c, 0, 72, 46
2, 285795, Note_on_c, 0, 66, 46
2, 285800, Note_on_c, 0, 50, 64
2, 285801, Control_c, 0, 64, 0
2, 285808, Note_off_c, 0, 57, 64
2, 285851, Control_c, 0, 64, 127
2, 285883, Note_off_c, 0, 66, 64
2, 285883, Note_off_c, 0, 72, 64
2, 285974, Note_on_c, 0, 66, 36
2, 285981, Note_on_c, 0, 72, 36
2, 286039, Note_on_c, 0, 74, 33
2, 286055, Note_off_c, 0, 72, 64
2, 286062, Note_off_c, 0, 66, 64
2, 286084, Note_on_c, 0, 72, 39
2, 286100, Note_off_c, 0, 74, 64
2, 286132, Note_on_c, 0, 71, 43
2, 286132, Note_on_c, 0, 67, 42
2, 286139, Note_on_c, 0, 62, 33
2, 286145, Control_c, 0, 64, 0
2, 286153, Note_off_c, 0, 72, 64
2, 286154, Note_on_c, 0, 43, 59
2, 286159, Note_off_c, 0, 50, 64
2, 286190, Control_c, 0, 64, 127
2, 286269, Note_off_c, 0, 67, 64
2, 286276, Note_off_c, 0, 62, 64
2, 286311, Note_on_c, 0, 50, 57
2, 286317, Note_on_c, 0, 62, 39
2, 286320, Note_on_c, 0, 67, 36
2, 286328, Control_c, 0, 64, 0
2, 286334, Note_off_c, 0, 43, 64
2, 286342, Control_c, 0, 64, 127
2, 286402, Note_on_c, 0, 59, 32
2, 286405, Note_off_c, 0, 62, 64
2, 286408, Note_off_c, 0, 67, 64
2, 286409, Note_off_c, 0, 50, 64
2, 286465, Note_off_c, 0, 71, 64
2, 286485, Note_on_c, 0, 67, 39
2, 286485, Note_on_c, 0, 55, 62
2, 286488, Note_on_c, 0, 71, 35
2, 286505, Note_off_c, 0, 59, 64
2, 286570, Note_on_c, 0, 64, 62
2, 286573, Note_off_c, 0, 67, 64
2, 286576, Note_off_c, 0, 71, 64
2, 286597, Note_off_c, 0, 55, 64
2, 286652, Note_on_c, 0, 66, 35
2, 286653, Note_on_c, 0, 71, 31
2, 286656, Note_on_c, 0, 60, 23
2, 286659, Note_on_c, 0, 62, 57
2, 286665, Note_off_c, 0, 64, 64
2, 286671, Control_c, 0, 64, 0
2, 286693, Control_c, 0, 64, 127
2, 286779, Note_on_c, 0, 57, 51
2, 286789, Note_off_c, 0, 66, 64
2, 286790, Note_off_c, 0, 71, 64
2, 286793, Note_off_c, 0, 60, 64
2, 286794, Note_off_c, 0, 62, 64
2, 286820, Note_on_c, 0, 69, 46
2, 286825, Note_on_c, 0, 66, 44
2, 286828, Note_on_c, 0, 60, 43
2, 286835, Control_c, 0, 64, 0
2, 286839, Note_on_c, 0, 50, 41
2, 286860, Note_off_c, 0, 57, 64
2, 286878, Control_c, 0, 64, 127
2, 286908, Note_off_c, 0, 69, 64
2, 286913, Note_off_c, 0, 66, 64
2, 286916, Note_off_c, 0, 60, 64
2, 287000, Note_on_c, 0, 66, 39
2, 287005, Note_on_c, 0, 60, 27
2, 287005, Note_on_c, 0, 69, 31
2, 287062, Note_on_c, 0, 71, 37
2, 287079, Note_off_c, 0, 69, 64
2, 287088, Note_off_c, 0, 66, 64
2, 287093, Note_off_c, 0, 60, 64
2, 287106, Note_on_c, 0, 69, 39
2, 287113, Note_off_c, 0, 71, 64
2, 287161, Note_off_c, 0, 50, 64
2, 287164, Note_on_c, 0, 60, 24
2, 287165, Note_on_c, 0, 67, 33
2, 287174, Note_on_c, 0, 43, 58
2, 287175, Control_c, 0, 64, 0
2, 287180, Note_off_c, 0, 69, 64
2, 287206, Control_c, 0, 64, 127
2, 287301, Note_off_c, 0, 60, 64
2, 287302, Note_off_c, 0, 67, 64
2, 287336, Note_on_c, 0, 59, 39
2, 287339, Note_on_c, 0, 50, 56
2, 287340, Note_on_c, 0, 62, 39
2, 287357, Note_off_c, 0, 43, 64
2, 287416, Note_off_c, 0, 59, 64
2, 287428, Note_off_c, 0, 62, 64
2, 287431, Note_on_c, 0, 59, 58
2, 287444, Note_off_c, 0, 50, 64
2, 287519, Note_off_c, 0, 59, 64
2, 287528, Note_on_c, 0, 62, 37
2, 287528, Note_on_c, 0, 59, 39
2, 287528, Note_on_c, 0, 55, 46
2, 287610, Note_on_c, 0, 64, 62
2, 287616, Note_off_c, 0, 59, 64
2, 287616, Note_off_c, 0, 62, 64
2, 287625, Note_off_c, 0, 55, 64
2, 287708, Note_on_c, 0, 60, 33
2, 287708, Note_on_c, 0, 54, 14
2, 287712, Note_on_c, 0, 62, 42
2, 287734, Note_off_c, 0, 64, 64
2, 287743, Control_c, 0, 64, 0
2, 287756, Control_c, 0, 64, 127
2, 287794, Note_on_c, 0, 57, 34
2, 287801, Note_off_c, 0, 62, 64
2, 287845, Note_off_c, 0, 54, 64
2, 287845, Note_off_c, 0, 60, 64
2, 287892, Note_on_c, 0, 60, 42
2, 287892, Note_on_c, 0, 54, 36
2, 287896, Note_on_c, 0, 50, 47
2, 287896, Note_on_c, 0, 62, 41
2, 287904, Note_off_c, 0, 57, 64
2, 287916, Control_c, 0, 64, 0
2, 287948, Control_c, 0, 64, 127
2, 287980, Note_off_c, 0, 54, 64
2, 287980, Note_off_c, 0, 60, 64
2, 287984, Note_off_c, 0, 62, 64
2, 288095, Note_on_c, 0, 54, 36
2, 288096, Control_c, 0, 64, 0
2, 288098, Note_on_c, 0, 62, 39
2, 288100, Note_on_c, 0, 60, 42
2, 288165, Note_on_c, 0, 64, 42
2, 288175, Note_off_c, 0, 62, 64
2, 288232, Note_off_c, 0, 54, 64
2, 288234, Note_on_c, 0, 62, 39
2, 288237, Note_off_c, 0, 60, 64
2, 288246, Note_off_c, 0, 64, 64
2, 288321, Note_on_c, 0, 55, 42
2, 288322, Note_on_c, 0, 59, 62
2, 288331, Control_c, 0, 64, 0
2, 288345, Note_off_c, 0, 50, 64
2, 288361, Control_c, 0, 64, 127
2, 288443, Note_on_c, 0, 50, 42
2, 288445, Note_off_c, 0, 59, 64
2, 288446, Note_off_c, 0, 55, 64
2, 288538, Control_c, 0, 64, 0
2, 288542, Note_on_c, 0, 43, 52
2, 288544, Note_on_c, 0, 55, 39
2, 288553, Note_off_c, 0, 50, 64
2, 288556, Control_c, 0, 64, 127
2, 288669, Note_off_c, 0, 55, 64
2, 288753, Note_on_c, 0, 55, 42
2, 288760, Note_on_c, 0, 59, 57
2, 288771, Control_c, 0, 64, 0
2, 288783, Control_c, 0, 64, 127
2, 288790, Note_off_c, 0, 43, 64
2, 288867, Note_on_c, 0, 50, 48
2, 288878, Note_off_c, 0, 55, 64
2, 288919, Note_off_c, 0, 59, 64
2, 288981, Note_on_c, 0, 55, 41
2, 288981, Note_on_c, 0, 43, 51
2, 288988, Note_off_c, 0, 50, 64
2, 289106, Note_off_c, 0, 55, 64
2, 289211, Note_on_c, 0, 55, 49
2, 289252, Note_off_c, 0, 62, 64
2, 289336, Note_off_c, 0, 55, 64
2, 289398, Note_off_c, 0, 43, 64
2, 289446, Note_on_c, 0, 63, 54
2, 289449, Note_on_c, 0, 55, 57
2, 289451, Note_on_c, 0, 60, 58
2, 289454, Note_on_c, 0, 36, 58
2, 289455, Note_on_c, 0, 48, 58
2, 289474, Control_c, 0, 64, 0
2, 289486, Control_c, 0, 64, 127
2, 289686, Note_off_c, 0, 63, 64
2, 289689, Note_off_c, 0, 55, 64
2, 289691, Note_off_c, 0, 60, 64
2, 289713, Note_on_c, 0, 65, 50
2, 289736, Note_on_c, 0, 63, 49
2, 289736, Note_on_c, 0, 60, 54
2, 289738, Note_on_c, 0, 55, 54
2, 289748, Note_on_c, 0, 31, 75
2, 289754, Note_off_c, 0, 36, 64
2, 289758, Note_off_c, 0, 48, 64
2, 289761, Note_off_c, 0, 65, 64
2, 289767, Control_c, 0, 64, 0
2, 289797, Control_c, 0, 64, 127
2, 289833, Note_off_c, 0, 60, 64
2, 289880, Note_on_c, 0, 62, 57
2, 289905, Note_off_c, 0, 63, 64
2, 289948, Note_off_c, 0, 62, 64
2, 289992, Note_on_c, 0, 62, 58
2, 289998, Note_on_c, 0, 59, 57
2, 290170, Note_off_c, 0, 62, 64
2, 290176, Note_off_c, 0, 59, 64
2, 290259, Note_off_c, 0, 31, 64
2, 290274, Note_on_c, 0, 67, 57
2, 290278, Note_on_c, 0, 71, 59
2, 290278, Note_on_c, 0, 55, 57
2, 290279, Note_off_c, 0, 55, 64
2, 290279, Note_on_c, 0, 79, 58
2, 290279, Note_on_c, 0, 62, 57
2, 290289, Control_c, 0, 64, 0
2, 290312, Control_c, 0, 64, 127
2, 290349, Note_off_c, 0, 55, 64
2, 290618, Note_off_c, 0, 67, 64
2, 290622, Note_off_c, 0, 71, 64
2, 290623, Note_off_c, 0, 62, 64
2, 290623, Note_off_c, 0, 79, 64
2, 290669, Note_on_c, 0, 67, 58
2, 290670, Note_on_c, 0, 79, 58
2, 290670, Note_on_c, 0, 83, 62
2, 290670, Note_on_c, 0, 91, 62
2, 290676, Note_on_c, 0, 74, 58
2, 290677, Control_c, 0, 64, 0
2, 290708, Control_c, 0, 64, 127
2, 291659, Note_off_c, 0, 67, 64
2, 291660, Note_off_c, 0, 91, 64
2, 291660, Note_off_c, 0, 83, 64
2, 291660, Note_off_c, 0, 79, 64
2, 291666, Note_off_c, 0, 74, 64
2, 293807, Note_on_c, 0, 61, 49
2, 293813, Note_on_c, 0, 63, 46
2, 293813, Note_on_c, 0, 39, 47
2, 293813, Control_c, 0, 64, 0
2, 293821, Note_on_c, 0, 55, 42
2, 293841, Control_c, 0, 64, 127
2, 294001, Note_off_c, 0, 61, 64
2, 294007, Note_off_c, 0, 63, 64
2, 294015, Note_off_c, 0, 55, 64
2, 294031, Note_on_c, 0, 61, 54
2, 294033, Note_on_c, 0, 65, 54
2, 294039, Note_on_c, 0, 56, 34
2, 294042, Note_on_c, 0, 51, 39
2, 294065, Control_c, 0, 64, 0
2, 294079, Control_c, 0, 64, 127
2, 294128, Note_off_c, 0, 39, 64
2, 294230, Note_off_c, 0, 61, 64
2, 294232, Note_off_c, 0, 65, 64
2, 294238, Note_off_c, 0, 56, 64
2, 294241, Note_off_c, 0, 51, 64
2, 294340, Note_on_c, 0, 38, 49
2, 294408, Note_on_c, 0, 61, 51
2, 294410, Note_on_c, 0, 39, 51
2, 294410, Note_on_c, 0, 63, 52
2, 294419, Note_on_c, 0, 55, 49
2, 294423, Control_c, 0, 64, 0
2, 294432, Note_off_c, 0, 38, 64
2, 294438, Control_c, 0, 64, 127
2, 294578, Note_off_c, 0, 61, 64
2, 294589, Note_off_c, 0, 55, 64
2, 294643, Note_on_c, 0, 67, 54
2, 294645, Note_off_c, 0, 63, 64
2, 294645, Note_on_c, 0, 61, 51
2, 294653, Note_on_c, 0, 55, 34
2, 294656, Note_on_c, 0, 51, 44
2, 294717, Note_off_c, 0, 39, 64
2, 294845, Note_off_c, 0, 67, 64
2, 294847, Note_off_c, 0, 61, 64
2, 294855, Note_off_c, 0, 55, 64
2, 294858, Note_off_c, 0, 51, 64
2, 294947, Note_on_c, 0, 38, 49
2, 295008, Note_on_c, 0, 61, 54
2, 295008, Control_c, 0, 64, 0
2, 295014, Note_on_c, 0, 63, 52
2, 295014, Note_on_c, 0, 39, 51
2, 295022, Note_on_c, 0, 55, 49
2, 295037, Note_off_c, 0, 38, 64
2, 295041, Control_c, 0, 64, 127
2, 295198, Note_off_c, 0, 61, 64
2, 295204, Note_off_c, 0, 63, 64
2, 295212, Note_off_c, 0, 55, 64
2, 295235, Note_on_c, 0, 65, 58
2, 295235, Note_on_c, 0, 61, 57
2, 295240, Note_on_c, 0, 56, 49
2, 295244, Note_on_c, 0, 51, 50
2, 295260, Control_c, 0, 64, 0
2, 295271, Control_c, 0, 64, 127
2, 295315, Note_off_c, 0, 39, 64
2, 295392, Note_off_c, 0, 61, 64
2, 295436, Note_off_c, 0, 65, 64
2, 295441, Note_off_c, 0, 56, 64
2, 295445, Note_off_c, 0, 51, 64
2, 295528, Note_on_c, 0, 38, 49
2, 295591, Note_on_c, 0, 39, 58
2, 295592, Control_c, 0, 64, 0
2, 295604, Note_on_c, 0, 61, 57
2, 295605, Note_on_c, 0, 63, 58
2, 295608, Note_on_c, 0, 55, 55
2, 295616, Control_c, 0, 64, 127
2, 295623, Note_off_c, 0, 38, 64
2, 295748, Note_off_c, 0, 61, 64
2, 295749, Note_off_c, 0, 63, 64
2, 295752, Note_off_c, 0, 55, 64
2, 295770, Note_on_c, 0, 55, 35
2, 295822, Note_on_c, 0, 51, 64
2, 295824, Note_on_c, 0, 70, 62
2, 295827, Note_on_c, 0, 61, 62
2, 295857, Control_c, 0, 64, 0
2, 295884, Control_c, 0, 64, 127
2, 295896, Note_off_c, 0, 39, 64
2, 296003, Note_off_c, 0, 55, 64
2, 296023, Note_off_c, 0, 51, 64
2, 296025, Note_off_c, 0, 70, 64
2, 296028, Note_off_c, 0, 61, 64
2, 296141, Note_on_c, 0, 38, 52
2, 296228, Note_on_c, 0, 39, 57
2, 296228, Note_on_c, 0, 61, 57
2, 296233, Note_on_c, 0, 63, 58
2, 296239, Note_on_c, 0, 55, 55
2, 296239, Control_c, 0, 64, 0
2, 296253, Note_off_c, 0, 38, 64
2, 296264, Control_c, 0, 64, 127
2, 296372, Note_off_c, 0, 61, 64
2, 296377, Note_off_c, 0, 63, 64
2, 296383, Note_off_c, 0, 55, 64
2, 296482, Note_on_c, 0, 61, 58
2, 296482, Note_on_c, 0, 65, 59
2, 296490, Note_on_c, 0, 56, 56
2, 296491, Note_on_c, 0, 51, 57
2, 296507, Control_c, 0, 64, 0
2, 296529, Control_c, 0, 64, 127
2, 296531, Note_off_c, 0, 39, 64
2, 296683, Note_off_c, 0, 65, 64
2, 296683, Note_off_c, 0, 61, 64
2, 296691, Note_off_c, 0, 56, 64
2, 296692, Note_off_c, 0, 51, 64
2, 296794, Note_on_c, 0, 38, 51
2, 296880, Note_on_c, 0, 39, 52
2, 296888, Note_on_c, 0, 63, 58
2, 296888, Note_on_c, 0, 61, 58
2, 296891, Note_on_c, 0, 55, 56
2, 296900, Control_c, 0, 64, 0
2, 296909, Note_off_c, 0, 38, 64
2, 296919, Control_c, 0, 64, 127
2, 297149, Note_off_c, 0, 61, 64
2, 297149, Note_off_c, 0, 63, 64
2, 297152, Note_off_c, 0, 55, 64
2, 297195, Note_off_c, 0, 39, 64
2, 297200, Note_on_c, 0, 51, 55
2, 297200, Note_on_c, 0, 73, 58
2, 297203, Note_on_c, 0, 58, 56
2, 297208, Note_on_c, 0, 67, 56
2, 297264, Control_c, 0, 64, 0
2, 297306, Control_c, 0, 64, 127
2, 297477, Note_off_c, 0, 51, 64
2, 297490, Note_off_c, 0, 67, 64
2, 297496, Note_off_c, 0, 58, 64
2, 297502, Note_off_c, 0, 73, 64
2, 297696, Note_on_c, 0, 72, 50
2, 297701, Note_on_c, 0, 63, 48
2, 297705, Note_on_c, 0, 51, 39
2, 297708, Note_on_c, 0, 67, 43
2, 297744, Control_c, 0, 64, 0
2, 297760, Control_c, 0, 64, 127
2, 297878, Note_off_c, 0, 67, 64
2, 297881, Note_off_c, 0, 63, 64
2, 297888, Note_off_c, 0, 51, 64
2, 297939, Note_off_c, 0, 72, 64
2, 298071, Note_on_c, 0, 70, 47
2, 298075, Note_on_c, 0, 61, 35
2, 298077, Note_on_c, 0, 67, 49
2, 298084, Note_on_c, 0, 51, 32
2, 298147, Control_c, 0, 64, 0
2, 298192, Control_c, 0, 64, 127
2, 298971, Note_off_c, 0, 70, 64
2, 298975, Note_off_c, 0, 61, 64
2, 298977, Note_off_c, 0, 67, 64
2, 298984, Note_off_c, 0, 51, 64
2, 299135, Note_on_c, 0, 71, 46
2, 299341, Note_on_c, 0, 44, 49
2, 299341, Control_c, 0, 64, 0
2, 299345, Note_on_c, 0, 72, 51
2, 299357, Control_c, 0, 64, 127
2, 299370, Note_off_c, 0, 71, 64
2, 299469, Note_on_c, 0, 73, 34
2, 299497, Note_off_c, 0, 72, 64
2, 299515, Note_on_c, 0, 51, 39
2, 299567, Note_on_c, 0, 60, 32
2, 299583, Note_on_c, 0, 68, 54
2, 299590, Note_on_c, 0, 75, 50
2, 299616, Control_c, 0, 64, 0
2, 299619, Note_off_c, 0, 44, 64
2, 299621, Note_off_c, 0, 73, 64
2, 299632, Control_c, 0, 64, 127
2, 299642, Note_off_c, 0, 51, 64
2, 299694, Note_off_c, 0, 60, 64
2, 299710, Note_off_c, 0, 68, 64
2, 299879, Note_on_c, 0, 77, 43
2, 299915, Note_off_c, 0, 75, 64
2, 299966, Note_on_c, 0, 39, 48
2, 299975, Control_c, 0, 64, 0
2, 299979, Note_on_c, 0, 75, 49
2, 299990, Control_c, 0, 64, 127
2, 299997, Note_off_c, 0, 77, 64
2, 300066, Note_on_c, 0, 74, 47
2, 300072, Note_off_c, 0, 75, 64
2, 300166, Note_on_c, 0, 73, 50
2, 300175, Note_on_c, 0, 61, 33
2, 300175, Note_on_c, 0, 67, 24
2, 300180, Control_c, 0, 64, 0
2, 300186, Note_off_c, 0, 74, 64
2, 300195, Control_c, 0, 64, 127
2, 300247, Note_off_c, 0, 67, 64
2, 300247, Note_off_c, 0, 61, 64
2, 300262, Note_off_c, 0, 39, 64
2, 300339, Note_on_c, 0, 61, 33
2, 300354, Note_on_c, 0, 67, 47
2, 300411, Note_off_c, 0, 61, 64
2, 300426, Note_off_c, 0, 67, 64
2, 300441, Note_on_c, 0, 72, 46
2, 300464, Note_off_c, 0, 73, 64
2, 300516, Note_on_c, 0, 70, 58
2, 300529, Note_off_c, 0, 72, 64
2, 300536, Note_on_c, 0, 72, 58
2, 300551, Note_off_c, 0, 70, 64
2, 300568, Note_on_c, 0, 70, 58
2, 300571, Note_on_c, 0, 51, 39
2, 300575, Note_off_c, 0, 72, 64
2, 300581, Control_c, 0, 64, 0
2, 300605, Control_c, 0, 64, 127
2, 300666, Note_on_c, 0, 69, 47
2, 300674, Note_off_c, 0, 70, 64
2, 300736, Note_on_c, 0, 70, 63
2, 300741, Note_on_c, 0, 63, 32
2, 300745, Note_on_c, 0, 61, 39
2, 300748, Control_c, 0, 64, 0
2, 300753, Note_off_c, 0, 69, 64
2, 300765, Note_off_c, 0, 51, 64
2, 300774, Control_c, 0, 64, 127
2, 300813, Note_off_c, 0, 63, 64
2, 300817, Note_off_c, 0, 61, 64
2, 300827, Note_on_c, 0, 72, 49
2, 300828, Note_off_c, 0, 70, 64
2, 300925, Note_on_c, 0, 63, 23
2, 300930, Note_on_c, 0, 67, 46
2, 300932, Note_on_c, 0, 61, 37
2, 300942, Note_off_c, 0, 72, 64
2, 300997, Note_off_c, 0, 63, 64
2, 301004, Note_off_c, 0, 61, 64
2, 301086, Note_on_c, 0, 70, 42
2, 301117, Note_off_c, 0, 67, 64
2, 301117, Note_on_c, 0, 44, 46
2, 301130, Note_on_c, 0, 68, 48
2, 301147, Control_c, 0, 64, 0
2, 301167, Note_off_c, 0, 70, 64
2, 301191, Control_c, 0, 64, 127
2, 301260, Note_on_c, 0, 67, 32
2, 301270, Note_off_c, 0, 68, 64
2, 301312, Note_off_c, 0, 44, 64
2, 301321, Note_on_c, 0, 68, 51
2, 301327, Note_on_c, 0, 51, 39
2, 301328, Note_on_c, 0, 60, 26
2, 301338, Note_off_c, 0, 67, 64
2, 301352, Control_c, 0, 64, 0
2, 301384, Control_c, 0, 64, 127
2, 301487, Note_off_c, 0, 51, 64
2, 301488, Note_off_c, 0, 60, 64
2, 301597, Note_on_c, 0, 60, 54
2, 301606, Note_off_c, 0, 68, 64
2, 301820, Note_on_c, 0, 41, 47
2, 301864, Control_c, 0, 64, 0
2, 301871, Note_on_c, 0, 68, 58
2, 301890, Note_off_c, 0, 60, 64
2, 301894, Control_c, 0, 64, 127
2, 301966, Note_on_c, 0, 70, 58
2, 302001, Note_off_c, 0, 68, 64
2, 302046, Note_on_c, 0, 72, 57
2, 302054, Note_on_c, 0, 56, 32
2, 302057, Control_c, 0, 64, 0
2, 302062, Note_on_c, 0, 65, 34
2, 302065, Note_off_c, 0, 70, 64
2, 302084, Control_c, 0, 64, 127
2, 302126, Note_off_c, 0, 56, 64
2, 302134, Note_off_c, 0, 65, 64
2, 302158, Note_off_c, 0, 41, 64
2, 302221, Note_on_c, 0, 56, 40
2, 302224, Note_on_c, 0, 60, 32
2, 302228, Note_on_c, 0, 65, 32
2, 302293, Note_off_c, 0, 56, 64
2, 302296, Note_off_c, 0, 60, 64
2, 302300, Note_off_c, 0, 65, 64
2, 302316, Note_on_c, 0, 73, 50
2, 302332, Note_off_c, 0, 72, 64
2, 302413, Note_on_c, 0, 72, 56
2, 302425, Control_c, 0, 64, 0
2, 302430, Note_on_c, 0, 48, 46
2, 302443, Control_c, 0, 64, 127
2, 302447, Note_off_c, 0, 73, 64
2, 302499, Note_on_c, 0, 71, 51
2, 302512, Note_off_c, 0, 72, 64
2, 302585, Note_on_c, 0, 64, 26
2, 302593, Note_on_c, 0, 58, 29
2, 302597, Note_on_c, 0, 70, 55
2, 302598, Control_c, 0, 64, 0
2, 302606, Note_off_c, 0, 71, 64
2, 302614, Control_c, 0, 64, 127
2, 302657, Note_off_c, 0, 64, 64
2, 302665, Note_off_c, 0, 58, 64
2, 302751, Note_on_c, 0, 58, 37
2, 302752, Note_on_c, 0, 64, 27
2, 302785, Note_off_c, 0, 48, 64
2, 302823, Note_off_c, 0, 58, 64
2, 302824, Note_off_c, 0, 64, 64
2, 302833, Note_on_c, 0, 68, 49
2, 302855, Note_off_c, 0, 70, 64
2, 302919, Note_on_c, 0, 67, 34
2, 302931, Note_off_c, 0, 68, 64
2, 302947, Note_on_c, 0, 68, 54
2, 302954, Note_off_c, 0, 67, 64
2, 302957, Note_on_c, 0, 48, 50
2, 302967, Control_c, 0, 64, 0
2, 302983, Note_on_c, 0, 67, 56
2, 302995, Note_off_c, 0, 68, 64
2, 303017, Control_c, 0, 64, 127
2, 303080, Note_on_c, 0, 65, 54
2, 303097, Note_off_c, 0, 67, 64
2, 303144, Note_on_c, 0, 58, 33
2, 303150, Note_on_c, 0, 60, 35
2, 303150, Note_on_c, 0, 67, 50
2, 303157, Note_off_c, 0, 48, 64
2, 303160, Control_c, 0, 64, 0
2, 303181, Note_off_c, 0, 65, 64
2, 303186, Control_c, 0, 64, 127
2, 303216, Note_off_c, 0, 58, 64
2, 303222, Note_off_c, 0, 60, 64
2, 303226, Note_on_c, 0, 68, 52
2, 303257, Note_off_c, 0, 67, 64
2, 303327, Note_on_c, 0, 60, 39
2, 303332, Note_on_c, 0, 58, 35
2, 303334, Note_on_c, 0, 64, 51
2, 303344, Note_off_c, 0, 68, 64
2, 303399, Note_off_c, 0, 60, 64
2, 303404, Note_off_c, 0, 58, 64
2, 303536, Note_on_c, 0, 41, 49
2, 303543, Note_on_c, 0, 65, 51
2, 303552, Note_off_c, 0, 64, 64
2, 303559, Control_c, 0, 64, 0
2, 303581, Control_c, 0, 64, 127
2, 303704, Note_on_c, 0, 77, 46
2, 303757, Note_on_c, 0, 49, 46
2, 303763, Note_on_c, 0, 75, 62
2, 303763, Note_on_c, 0, 61, 47
2, 303771, Note_on_c, 0, 56, 39
2, 303777, Note_off_c, 0, 77, 64
2, 303788, Control_c, 0, 64, 0
2, 303802, Control_c, 0, 64, 127
2, 303834, Note_off_c, 0, 41, 64
2, 303917, Note_off_c, 0, 49, 64
2, 303923, Note_off_c, 0, 61, 64
2, 303931, Note_off_c, 0, 56, 64
2, 304020, Note_on_c, 0, 51, 43
2, 304020, Note_on_c, 0, 63, 57
2, 304026, Note_on_c, 0, 43, 46
2, 304045, Note_off_c, 0, 65, 64
2, 304057, Control_c, 0, 64, 0
2, 304077, Note_off_c, 0, 75, 64
2, 304089, Control_c, 0, 64, 127
2, 304175, Note_on_c, 0, 73, 50
2, 304201, Note_off_c, 0, 63, 64
2, 304307, Note_on_c, 0, 72, 50
2, 304310, Note_on_c, 0, 44, 50
2, 304315, Note_off_c, 0, 73, 64
2, 304316, Control_c, 0, 64, 0
2, 304328, Note_off_c, 0, 43, 64
2, 304339, Control_c, 0, 64, 127
2, 304400, Note_on_c, 0, 73, 51
2, 304426, Note_off_c, 0, 72, 64
2, 304495, Note_on_c, 0, 75, 48
2, 304507, Note_on_c, 0, 68, 42
2, 304520, Note_on_c, 0, 60, 37
2, 304526, Note_off_c, 0, 73, 64
2, 304530, Control_c, 0, 64, 0
2, 304551, Control_c, 0, 64, 127
2, 304633, Note_off_c, 0, 44, 64
2, 304646, Note_off_c, 0, 68, 64
2, 304657, Note_off_c, 0, 51, 64
2, 304658, Note_off_c, 0, 60, 64
2, 304690, Note_on_c, 0, 79, 52
2, 304713, Note_off_c, 0, 75, 64
2, 304793, Note_on_c, 0, 77, 48
2, 304797, Note_off_c, 0, 79, 64
2, 304875, Note_on_c, 0, 39, 50
2, 304880, Control_c, 0, 64, 0
2, 304885, Note_on_c, 0, 75, 57
2, 304904, Control_c, 0, 64, 127
2, 304912, Note_off_c, 0, 77, 64
2, 304964, Note_on_c, 0, 74, 49
2, 304973, Note_off_c, 0, 75, 64
2, 305049, Note_on_c, 0, 73, 62
2, 305056, Note_on_c, 0, 67, 26
2, 305060, Note_on_c, 0, 61, 37
2, 305071, Control_c, 0, 64, 0
2, 305076, Note_off_c, 0, 74, 64
2, 305095, Control_c, 0, 64, 127
2, 305128, Note_off_c, 0, 67, 64
2, 305132, Note_off_c, 0, 61, 64
2, 305159, Note_off_c, 0, 39, 64
2, 305237, Note_on_c, 0, 61, 25
2, 305237, Note_on_c, 0, 67, 23
2, 305309, Note_off_c, 0, 67, 64
2, 305309, Note_off_c, 0, 61, 64
2, 305322, Note_on_c, 0, 72, 52
2, 305329, Note_off_c, 0, 73, 64
2, 305405, Note_on_c, 0, 70, 58
2, 305414, Note_off_c, 0, 72, 64
2, 305440, Note_on_c, 0, 72, 54
2, 305458, Note_off_c, 0, 70, 64
2, 305465, Note_on_c, 0, 51, 39
2, 305472, Note_on_c, 0, 70, 58
2, 305475, Control_c, 0, 64, 0
2, 305495, Note_off_c, 0, 72, 64
2, 305513, Control_c, 0, 64, 127
2, 305569, Note_on_c, 0, 69, 51
2, 305571, Note_off_c, 0, 70, 64
2, 305644, Note_on_c, 0, 70, 62
2, 305644, Control_c, 0, 64, 0
2, 305651, Note_on_c, 0, 61, 50
2, 305661, Note_off_c, 0, 69, 64
2, 305670, Control_c, 0, 64, 127
2, 305729, Note_on_c, 0, 72, 51
2, 305744, Note_off_c, 0, 70, 64
2, 305814, Note_on_c, 0, 67, 51
2, 305821, Control_c, 0, 64, 0
2, 305825, Note_on_c, 0, 52, 46
2, 305826, Note_off_c, 0, 51, 64
2, 305842, Note_off_c, 0, 72, 64
2, 305851, Control_c, 0, 64, 127
2, 305864, Note_off_c, 0, 61, 64
2, 305955, Note_on_c, 0, 70, 48
2, 305979, Note_off_c, 0, 67, 64
2, 305992, Note_on_c, 0, 68, 51
2, 305999, Note_on_c, 0, 53, 46
2, 306008, Note_off_c, 0, 52, 64
2, 306015, Control_c, 0, 64, 0
2, 306025, Note_off_c, 0, 70, 64
2, 306068, Control_c, 0, 64, 127
2, 306108, Note_off_c, 0, 68, 64
2, 306114, Note_on_c, 0, 67, 48
2, 306152, Note_off_c, 0, 53, 64
2, 306168, Note_on_c, 0, 68, 57
2, 306176, Note_on_c, 0, 56, 35
2, 306178, Note_on_c, 0, 60, 39
2, 306183, Control_c, 0, 64, 0
2, 306204, Note_off_c, 0, 67, 64
2, 306207, Control_c, 0, 64, 127
2, 306248, Note_off_c, 0, 56, 64
2, 306250, Note_off_c, 0, 60, 64
2, 306356, Note_on_c, 0, 56, 32
2, 306364, Note_on_c, 0, 64, 51
2, 306364, Note_on_c, 0, 60, 32
2, 306371, Control_c, 0, 64, 0
2, 306378, Note_off_c, 0, 68, 64
2, 306387, Control_c, 0, 64, 127
2, 306428, Note_off_c, 0, 56, 64
2, 306436, Note_off_c, 0, 60, 64
2, 306559, Note_on_c, 0, 65, 50
2, 306561, Note_on_c, 0, 49, 46
2, 306568, Control_c, 0, 64, 0
2, 306571, Note_off_c, 0, 64, 64
2, 306604, Control_c, 0, 64, 127
2, 306680, Note_on_c, 0, 67, 51
2, 306700, Note_off_c, 0, 65, 64
2, 306720, Note_off_c, 0, 49, 64
2, 306724, Note_on_c, 0, 68, 62
2, 306734, Note_on_c, 0, 58, 28
2, 306743, Note_on_c, 0, 55, 27
2, 306743, Note_on_c, 0, 65, 29
2, 306744, Note_off_c, 0, 67, 64
2, 306752, Control_c, 0, 64, 0
2, 306774, Control_c, 0, 64, 127
2, 306806, Note_off_c, 0, 58, 64
2, 306815, Note_off_c, 0, 55, 64
2, 306817, Note_off_c, 0, 65, 64
2, 306934, Note_on_c, 0, 58, 19
2, 306936, Note_on_c, 0, 55, 19
2, 306940, Note_on_c, 0, 65, 21
2, 306969, Note_on_c, 0, 70, 66
2, 306991, Note_off_c, 0, 68, 64
2, 307006, Note_off_c, 0, 58, 64
2, 307008, Note_off_c, 0, 55, 64
2, 307029, Note_off_c, 0, 65, 64
2, 307159, Note_on_c, 0, 48, 47
2, 307160, Note_on_c, 0, 72, 52
2, 307172, Note_off_c, 0, 70, 64
2, 307173, Control_c, 0, 64, 0
2, 307186, Control_c, 0, 64, 127
2, 307303, Note_on_c, 0, 73, 32
2, 307317, Note_off_c, 0, 48, 64
2, 307319, Note_off_c, 0, 72, 64
2, 307354, Note_on_c, 0, 72, 47
2, 307354, Note_on_c, 0, 64, 32
2, 307363, Note_on_c, 0, 58, 32
2, 307368, Note_off_c, 0, 73, 64
2, 307392, Control_c, 0, 64, 0
2, 307426, Note_off_c, 0, 64, 64
2, 307427, Control_c, 0, 64, 127
2, 307435, Note_off_c, 0, 58, 64
2, 307566, Note_on_c, 0, 64, 25
2, 307575, Note_on_c, 0, 58, 28
2, 307638, Note_off_c, 0, 64, 64
2, 307647, Note_off_c, 0, 58, 64
2, 307655, Note_on_c, 0, 67, 51
2, 307668, Note_off_c, 0, 72, 64
2, 307772, Note_on_c, 0, 65, 54
2, 307782, Note_off_c, 0, 67, 64
2, 307799, Note_on_c, 0, 67, 54
2, 307813, Note_off_c, 0, 65, 64
2, 307824, Note_on_c, 0, 49, 39
2, 307841, Note_on_c, 0, 65, 54
2, 307845, Control_c, 0, 64, 0
2, 307857, Note_off_c, 0, 67, 64
2, 307868, Control_c, 0, 64, 127
2, 307929, Note_on_c, 0, 64, 42
2, 307946, Note_off_c, 0, 65, 64
2, 307975, Note_off_c, 0, 49, 64
2, 307995, Control_c, 0, 64, 0
2, 308003, Note_on_c, 0, 65, 54
2, 308007, Note_on_c, 0, 55, 40
2, 308013, Note_on_c, 0, 58, 39
2, 308014, Note_off_c, 0, 64, 64
2, 308025, Control_c, 0, 64, 127
2, 308079, Note_off_c, 0, 55, 64
2, 308085, Note_off_c, 0, 58, 64
2, 308094, Note_on_c, 0, 67, 51
2, 308109, Note_off_c, 0, 65, 64
2, 308170, Note_on_c, 0, 68, 51
2, 308177, Note_on_c, 0, 65, 35
2, 308181, Note_on_c, 0, 58, 32
2, 308185, Note_on_c, 0, 55, 26
2, 308187, Note_off_c, 0, 67, 64
2, 308244, Note_off_c, 0, 65, 64
2, 308253, Note_off_c, 0, 58, 64
2, 308254, Note_on_c, 0, 70, 41
2, 308257, Note_off_c, 0, 55, 64
2, 308262, Note_off_c, 0, 68, 64
2, 308344, Note_on_c, 0, 72, 51
2, 308351, Note_on_c, 0, 48, 47
2, 308357, Note_off_c, 0, 70, 64
2, 308366, Control_c, 0, 64, 0
2, 308403, Control_c, 0, 64, 127
2, 308439, Note_on_c, 0, 75, 42
2, 308464, Note_off_c, 0, 72, 64
2, 308466, Note_on_c, 0, 73, 51
2, 308482, Note_off_c, 0, 75, 64
2, 308497, Note_off_c, 0, 48, 64
2, 308505, Note_on_c, 0, 64, 41
2, 308511, Note_on_c, 0, 55, 47
2, 308517, Control_c, 0, 64, 0
2, 308521, Note_on_c, 0, 72, 51
2, 308533, Note_off_c, 0, 73, 64
2, 308557, Control_c, 0, 64, 127
2, 308684, Note_off_c, 0, 55, 64
2, 308685, Note_on_c, 0, 48, 48
2, 308698, Note_off_c, 0, 64, 64
2, 308768, Note_on_c, 0, 71, 50
2, 308792, Note_off_c, 0, 72, 64
2, 308884, Note_on_c, 0, 49, 47
2, 308896, Note_off_c, 0, 48, 64
2, 308897, Note_on_c, 0, 70, 51
2, 308904, Control_c, 0, 64, 0
2, 308918, Note_off_c, 0, 71, 64
2, 308936, Control_c, 0, 64, 127
2, 308967, Note_on_c, 0, 72, 49
2, 308979, Note_off_c, 0, 70, 64
2, 309025, Note_on_c, 0, 70, 62
2, 309042, Note_off_c, 0, 72, 64
2, 309063, Control_c, 0, 64, 0
2, 309072, Note_on_c, 0, 63, 32
2, 309084, Note_on_c, 0, 69, 54
2, 309087, Note_on_c, 0, 55, 34
2, 309095, Control_c, 0, 64, 127
2, 309102, Note_off_c, 0, 70, 64
2, 309130, Note_off_c, 0, 49, 64
2, 309139, Note_on_c, 0, 70, 62
2, 309144, Note_off_c, 0, 63, 64
2, 309153, Note_off_c, 0, 69, 64
2, 309159, Note_off_c, 0, 55, 64
2, 309231, Note_on_c, 0, 72, 52
2, 309236, Note_on_c, 0, 63, 35
2, 309244, Note_on_c, 0, 55, 34
2, 309253, Note_off_c, 0, 70, 64
2, 309296, Note_on_c, 0, 73, 54
2, 309308, Note_off_c, 0, 63, 64
2, 309316, Note_off_c, 0, 55, 64
2, 309319, Note_off_c, 0, 72, 64
2, 309389, Note_on_c, 0, 77, 54
2, 309395, Note_on_c, 0, 48, 39
2, 309411, Control_c, 0, 64, 0
2, 309423, Note_off_c, 0, 73, 64
2, 309456, Control_c, 0, 64, 127
2, 309464, Note_on_c, 0, 75, 54
2, 309485, Note_off_c, 0, 77, 64
2, 309579, Note_on_c, 0, 80, 54
2, 309598, Note_off_c, 0, 75, 64
2, 309600, Note_on_c, 0, 63, 32
2, 309608, Note_on_c, 0, 56, 47
2, 309622, Control_c, 0, 64, 0
2, 309625, Note_off_c, 0, 48, 64
2, 309653, Control_c, 0, 64, 127
2, 309827, Note_on_c, 0, 53, 39
2, 309853, Note_off_c, 0, 63, 64
2, 309861, Note_off_c, 0, 56, 64
2, 310037, Note_off_c, 0, 53, 64
2, 310039, Control_c, 0, 64, 0
2, 310043, Note_on_c, 0, 69, 51
2, 310043, Note_on_c, 0, 51, 49
2, 310067, Note_off_c, 0, 80, 64
2, 310070, Control_c, 0, 64, 127
2, 310158, Note_on_c, 0, 70, 51
2, 310187, Note_off_c, 0, 69, 64
2, 310256, Note_on_c, 0, 58, 18
2, 310264, Note_on_c, 0, 62, 18
2, 310271, Note_on_c, 0, 68, 37
2, 310272, Note_on_c, 0, 79, 52
2, 310288, Control_c, 0, 64, 0
2, 310295, Note_off_c, 0, 70, 64
2, 310312, Control_c, 0, 64, 127
2, 310332, Note_off_c, 0, 51, 64
2, 310368, Control_c, 0, 64, 0
2, 310377, Note_on_c, 0, 77, 51
2, 310392, Control_c, 0, 64, 127
2, 310394, Note_off_c, 0, 79, 64
2, 310416, Control_c, 0, 64, 0
2, 310440, Control_c, 0, 64, 127
2, 310471, Note_off_c, 0, 58, 64
2, 310479, Note_off_c, 0, 62, 64
2, 310486, Note_off_c, 0, 68, 64
2, 310488, Note_on_c, 0, 67, 18
2, 310491, Note_on_c, 0, 75, 42
2, 310491, Note_on_c, 0, 61, 26
2, 310494, Note_on_c, 0, 58, 25
2, 310504, Note_off_c, 0, 77, 64
2, 310627, Note_on_c, 0, 63, 49
2, 310634, Note_off_c, 0, 61, 64
2, 310644, Note_off_c, 0, 75, 64
2, 310644, Note_off_c, 0, 67, 64
2, 310651, Note_off_c, 0, 58, 64
2, 310756, Note_on_c, 0, 73, 48
2, 310770, Note_on_c, 0, 44, 49
2, 310799, Note_off_c, 0, 63, 64
2, 310802, Control_c, 0, 64, 0
2, 310835, Control_c, 0, 64, 127
2, 310880, Note_on_c, 0, 72, 46
2, 310895, Note_off_c, 0, 73, 64
2, 310983, Note_off_c, 0, 44, 64
2, 311013, Note_on_c, 0, 51, 32
2, 311013, Note_on_c, 0, 68, 48
2, 311024, Note_off_c, 0, 72, 64
2, 311030, Note_on_c, 0, 60, 31
2, 311044, Control_c, 0, 64, 0
2, 311085, Control_c, 0, 64, 127
2, 311241, Note_on_c, 0, 46, 49
2, 311277, Note_off_c, 0, 51, 64
2, 311407, Note_off_c, 0, 60, 64
2, 311489, Note_on_c, 0, 67, 51
2, 311492, Note_on_c, 0, 48, 32
2, 311504, Note_off_c, 0, 68, 64
2, 311504, Note_on_c, 0, 64, 39
2, 311506, Note_on_c, 0, 58, 25
2, 311519, Control_c, 0, 64, 0
2, 311521, Note_off_c, 0, 46, 64
2, 311559, Control_c, 0, 64, 127
2, 311711, Note_on_c, 0, 72, 59
2, 311726, Control_c, 0, 64, 0
2, 311732, Note_off_c, 0, 67, 64
2, 311745, Note_off_c, 0, 64, 64
2, 311756, Note_off_c, 0, 48, 64
2, 311762, Control_c, 0, 64, 127
2, 311909, Note_on_c, 0, 60, 51
2, 311934, Note_off_c, 0, 58, 64
2, 311997, Note_on_c, 0, 70, 51
2, 312019, Note_off_c, 0, 72, 64
2, 312048, Note_off_c, 0, 70, 64
2, 312087, Note_on_c, 0, 70, 56
2, 312127, Note_on_c, 0, 68, 51
2, 312130, Control_c, 0, 64, 0
2, 312140, Note_off_c, 0, 70, 64
2, 312157, Control_c, 0, 64, 127
2, 312245, Note_off_c, 0, 60, 64
2, 312251, Note_on_c, 0, 67, 49
2, 312255, Note_off_c, 0, 68, 64
2, 312299, Note_on_c, 0, 68, 64
2, 312312, Note_on_c, 0, 60, 48
2, 312321, Note_off_c, 0, 67, 64
2, 312332, Control_c, 0, 64, 0
2, 312347, Control_c, 0, 64, 127
2, 312474, Note_off_c, 0, 60, 64
2, 312499, Note_on_c, 0, 61, 33
2, 312503, Note_on_c, 0, 65, 54
2, 312504, Note_on_c, 0, 56, 25
2, 312504, Note_on_c, 0, 53, 26
2, 312520, Control_c, 0, 64, 0
2, 312526, Note_off_c, 0, 68, 64
2, 312559, Control_c, 0, 64, 127
2, 312690, Note_on_c, 0, 64, 49
2, 312701, Note_off_c, 0, 53, 64
2, 312701, Note_off_c, 0, 56, 64
2, 312702, Note_off_c, 0, 65, 64
2, 312703, Note_off_c, 0, 61, 64
2, 312717, Control_c, 0, 64, 0
2, 312731, Control_c, 0, 64, 127
2, 312771, Note_on_c, 0, 65, 41
2, 312817, Note_off_c, 0, 64, 64
2, 312873, Note_on_c, 0, 67, 49
2, 312881, Note_on_c, 0, 58, 46
2, 312884, Note_on_c, 0, 61, 36
2, 312892, Note_off_c, 0, 65, 64
2, 312897, Control_c, 0, 64, 0
2, 312920, Control_c, 0, 64, 127
2, 313054, Note_on_c, 0, 68, 50
2, 313058, Note_on_c, 0, 48, 50
2, 313070, Control_c, 0, 64, 0
2, 313085, Note_off_c, 0, 67, 64
2, 313096, Control_c, 0, 64, 127
2, 313158, Note_off_c, 0, 58, 64
2, 313158, Note_on_c, 0, 67, 33
2, 313170, Note_off_c, 0, 68, 64
2, 313207, Note_on_c, 0, 65, 49
2, 313226, Note_off_c, 0, 67, 64
2, 313240, Note_on_c, 0, 67, 49
2, 313261, Control_c, 0, 64, 0
2, 313263, Note_off_c, 0, 65, 64
2, 313276, Note_on_c, 0, 65, 54
2, 313276, Control_c, 0, 64, 127
2, 313295, Note_off_c, 0, 67, 64
2, 313343, Note_off_c, 0, 48, 64
2, 313365, Note_off_c, 0, 61, 64
2, 313397, Note_on_c, 0, 64, 50
2, 313406, Note_off_c, 0, 65, 64
2, 313443, Note_on_c, 0, 56, 42
2, 313449, Note_on_c, 0, 59, 41
2, 313450, Note_on_c, 0, 65, 46
2, 313457, Control_c, 0, 64, 0
2, 313464, Note_off_c, 0, 64, 64
2, 313492, Control_c, 0, 64, 127
2, 313638, Note_on_c, 0, 62, 50
2, 313646, Note_on_c, 0, 48, 49
2, 313650, Control_c, 0, 64, 0
2, 313656, Note_off_c, 0, 65, 64
2, 313656, Note_off_c, 0, 59, 64
2, 313692, Control_c, 0, 64, 127
2, 313736, Note_off_c, 0, 56, 64
2, 313813, Note_on_c, 0, 67, 54
2, 313820, Note_off_c, 0, 48, 64
2, 313824, Control_c, 0, 64, 0
2, 313833, Note_off_c, 0, 62, 64
2, 313836, Control_c, 0, 64, 127
2, 313941, Note_on_c, 0, 60, 46
2, 313946, Note_off_c, 0, 67, 64
2, 314006, Note_on_c, 0, 72, 58
2, 314006, Control_c, 0, 64, 0
2, 314013, Note_on_c, 0, 64, 47
2, 314013, Note_on_c, 0, 55, 46
2, 314031, Note_off_c, 0, 60, 64
2, 314045, Control_c, 0, 64, 127
2, 314146, Note_off_c, 0, 64, 64
2, 314166, Note_off_c, 0, 55, 64
2, 314198, Note_on_c, 0, 48, 49
2, 314268, Note_on_c, 0, 70, 44
2, 314278, Note_off_c, 0, 72, 64
2, 314339, Note_off_c, 0, 70, 64
2, 314379, Note_on_c, 0, 70, 63
2, 314412, Note_on_c, 0, 68, 58
2, 314416, Note_on_c, 0, 41, 50
2, 314418, Note_off_c, 0, 48, 64
2, 314422, Control_c, 0, 64, 0
2, 314430, Note_off_c, 0, 70, 64
2, 314446, Control_c, 0, 64, 127
2, 314560, Note_on_c, 0, 67, 51
2, 314568, Note_off_c, 0, 68, 64
2, 314605, Note_on_c, 0, 56, 41
2, 314607, Note_on_c, 0, 68, 64
2, 314620, Note_on_c, 0, 60, 32
2, 314626, Control_c, 0, 64, 0
2, 314630, Note_off_c, 0, 67, 64
2, 314660, Control_c, 0, 64, 127
2, 314677, Note_off_c, 0, 56, 64
2, 314692, Note_off_c, 0, 60, 64
2, 314702, Note_off_c, 0, 41, 64
2, 314805, Control_c, 0, 64, 0
2, 314811, Note_on_c, 0, 56, 26
2, 314814, Note_on_c, 0, 65, 57
2, 314814, Note_on_c, 0, 62, 39
2, 314827, Note_off_c, 0, 68, 64
2, 314837, Control_c, 0, 64, 127
2, 314883, Note_off_c, 0, 56, 64
2, 314886, Note_off_c, 0, 62, 64
2, 315006, Note_on_c, 0, 48, 50
2, 315007, Note_on_c, 0, 64, 54
2, 315014, Note_off_c, 0, 65, 64
2, 315017, Control_c, 0, 64, 0
2, 315043, Control_c, 0, 64, 127
2, 315104, Note_on_c, 0, 65, 49
2, 315115, Note_off_c, 0, 64, 64
2, 315176, Note_on_c, 0, 64, 36
2, 315176, Note_on_c, 0, 55, 43
2, 315179, Note_on_c, 0, 67, 55
2, 315184, Note_on_c, 0, 60, 32
2, 315201, Note_off_c, 0, 65, 64
2, 315248, Note_off_c, 0, 55, 64
2, 315248, Note_off_c, 0, 64, 64
2, 315256, Note_off_c, 0, 60, 64
2, 315378, Note_off_c, 0, 48, 64
2, 315384, Note_on_c, 0, 65, 21
2, 315391, Note_on_c, 0, 76, 57
2, 315391, Note_on_c, 0, 55, 39
2, 315392, Note_on_c, 0, 59, 32
2, 315398, Note_off_c, 0, 67, 64
2, 315421, Control_c, 0, 64, 0
2, 315435, Control_c, 0, 64, 127
2, 315453, Note_off_c, 0, 59, 64
2, 315456, Note_off_c, 0, 65, 64
2, 315467, Note_off_c, 0, 55, 64
2, 315502, Note_on_c, 0, 74, 44
2, 315517, Note_off_c, 0, 76, 64
2, 315571, Note_on_c, 0, 72, 51
2, 315578, Note_off_c, 0, 74, 64
2, 315604, Note_on_c, 0, 48, 51
2, 315604, Note_on_c, 0, 74, 51
2, 315617, Control_c, 0, 64, 0
2, 315624, Note_off_c, 0, 72, 64
2, 315641, Note_on_c, 0, 72, 49
2, 315655, Control_c, 0, 64, 127
2, 315658, Note_off_c, 0, 74, 64
2, 315743, Note_on_c, 0, 71, 51
2, 315748, Note_off_c, 0, 72, 64
2, 315806, Note_on_c, 0, 72, 54
2, 315813, Note_on_c, 0, 55, 46
2, 315815, Note_on_c, 0, 64, 40
2, 315822, Control_c, 0, 64, 0
2, 315826, Note_on_c, 0, 60, 34
2, 315830, Note_off_c, 0, 71, 64
2, 315845, Control_c, 0, 64, 127
2, 315881, Note_off_c, 0, 55, 64
2, 315886, Note_off_c, 0, 64, 64
2, 315886, Note_off_c, 0, 60, 64
2, 315910, Note_off_c, 0, 48, 64
2, 316015, Note_on_c, 0, 56, 51
2, 316015, Control_c, 0, 64, 0
2, 316022, Note_on_c, 0, 60, 49
2, 316022, Note_on_c, 0, 65, 46
2, 316043, Control_c, 0, 64, 127
2, 316115, Note_off_c, 0, 72, 64
2, 316184, Note_on_c, 0, 72, 47
2, 316215, Note_on_c, 0, 74, 49
2, 316228, Note_off_c, 0, 72, 64
2, 316250, Control_c, 0, 64, 0
2, 316255, Note_on_c, 0, 72, 49
2, 316277, Note_off_c, 0, 74, 64
2, 316277, Control_c, 0, 64, 127
2, 316390, Note_off_c, 0, 56, 64
2, 316397, Note_off_c, 0, 65, 64
2, 316397, Note_off_c, 0, 60, 64
2, 316406, Note_on_c, 0, 71, 50
2, 316421, Note_off_c, 0, 72, 64
2, 316451, Note_on_c, 0, 55, 35
2, 316451, Note_on_c, 0, 72, 58
2, 316451, Note_on_c, 0, 64, 41
2, 316464, Control_c, 0, 64, 0
2, 316468, Note_on_c, 0, 60, 39
2, 316481, Note_off_c, 0, 71, 64
2, 316491, Control_c, 0, 64, 127
2, 316533, Note_off_c, 0, 55, 64
2, 316536, Note_off_c, 0, 60, 64
2, 316550, Note_off_c, 0, 64, 64
2, 316684, Note_on_c, 0, 56, 50
2, 316693, Note_on_c, 0, 60, 36
2, 316693, Note_on_c, 0, 65, 56
2, 316707, Control_c, 0, 64, 0
2, 316729, Control_c, 0, 64, 127
2, 316752, Note_off_c, 0, 72, 64
2, 316855, Note_off_c, 0, 60, 64
2, 316859, Note_off_c, 0, 56, 64
2, 316859, Note_on_c, 0, 72, 62
2, 316899, Note_on_c, 0, 74, 51
2, 316902, Note_off_c, 0, 65, 64
2, 316906, Note_off_c, 0, 72, 64
2, 316929, Control_c, 0, 64, 0
2, 316934, Note_on_c, 0, 72, 54
2, 316940, Note_on_c, 0, 48, 59
2, 316945, Control_c, 0, 64, 127
2, 316959, Note_off_c, 0, 74, 64
2, 317094, Note_on_c, 0, 71, 42
2, 317098, Note_off_c, 0, 72, 64
2, 317159, Note_on_c, 0, 72, 56
2, 317162, Note_off_c, 0, 48, 64
2, 317165, Note_on_c, 0, 64, 46
2, 317168, Note_on_c, 0, 55, 50
2, 317176, Note_off_c, 0, 71, 64
2, 317184, Control_c, 0, 64, 0
2, 317236, Control_c, 0, 64, 127
2, 317454, Note_on_c, 0, 48, 51
2, 317496, Note_off_c, 0, 55, 64
2, 317508, Note_off_c, 0, 64, 64
2, 317583, Note_on_c, 0, 71, 49
2, 317601, Note_off_c, 0, 72, 64
2, 317737, Note_on_c, 0, 72, 49
2, 317750, Note_off_c, 0, 48, 64
2, 317751, Note_on_c, 0, 55, 44
2, 317757, Note_on_c, 0, 64, 39
2, 317760, Note_off_c, 0, 71, 64
2, 317779, Control_c, 0, 64, 0
2, 317814, Control_c, 0, 64, 127
2, 317908, Note_on_c, 0, 71, 42
2, 317923, Note_off_c, 0, 72, 64
2, 318024, Note_off_c, 0, 55, 64
2, 318087, Note_on_c, 0, 72, 36
2, 318087, Note_on_c, 0, 48, 32
2, 318111, Note_off_c, 0, 71, 64
2, 318120, Control_c, 0, 64, 0
2, 318123, Note_off_c, 0, 64, 64
2, 318145, Control_c, 0, 64, 127
2, 318393, Note_off_c, 0, 48, 64
2, 318434, Note_on_c, 0, 55, 20
2, 318440, Note_on_c, 0, 64, 23
2, 318447, Note_on_c, 0, 71, 34
2, 318478, Note_off_c, 0, 72, 64
2, 318533, Note_off_c, 0, 64, 64
2, 318545, Note_off_c, 0, 55, 64
2, 318749, Note_on_c, 0, 44, 39
2, 318795, Control_c, 0, 64, 0
2, 318808, Note_on_c, 0, 72, 49
2, 318816, Control_c, 0, 64, 127
2, 318832, Note_off_c, 0, 71, 64
2, 318920, Note_on_c, 0, 73, 51
2, 318956, Note_off_c, 0, 72, 64
2, 318963, Note_on_c, 0, 51, 39
2, 319019, Note_on_c, 0, 60, 34
2, 319043, Note_on_c, 0, 68, 58
2, 319049, Note_on_c, 0, 75, 51
2, 319063, Note_off_c, 0, 51, 64
2, 319073, Note_off_c, 0, 73, 64
2, 319087, Note_off_c, 0, 44, 64
2, 319119, Note_off_c, 0, 60, 64
2, 319143, Note_off_c, 0, 68, 64
2, 319363, Note_on_c, 0, 77, 49
2, 319378, Note_off_c, 0, 75, 64
2, 319436, Note_on_c, 0, 39, 51
2, 319443, Control_c, 0, 64, 0
2, 319450, Note_on_c, 0, 75, 59
2, 319469, Control_c, 0, 64, 127
2, 319474, Note_off_c, 0, 77, 64
2, 319540, Note_on_c, 0, 74, 39
2, 319550, Note_off_c, 0, 75, 64
2, 319628, Note_on_c, 0, 67, 32
2, 319632, Note_on_c, 0, 61, 32
2, 319632, Note_on_c, 0, 73, 62
2, 319643, Control_c, 0, 64, 0
2, 319648, Note_off_c, 0, 74, 64
2, 319662, Control_c, 0, 64, 127
2, 319700, Note_off_c, 0, 67, 64
2, 319704, Note_off_c, 0, 61, 64
2, 319729, Note_off_c, 0, 39, 64
2, 319854, Note_on_c, 0, 61, 32
2, 319854, Note_on_c, 0, 67, 21
2, 319926, Note_off_c, 0, 67, 64
2, 319926, Note_off_c, 0, 61, 64
2, 319931, Note_on_c, 0, 72, 46
2, 319954, Note_off_c, 0, 73, 64
2, 319983, Note_on_c, 0, 70, 59
2, 319990, Note_off_c, 0, 72, 64
2, 320024, Note_on_c, 0, 72, 58
2, 320034, Note_off_c, 0, 70, 64
2, 320034, Control_c, 0, 64, 0
2, 320039, Note_on_c, 0, 51, 46
2, 320058, Note_on_c, 0, 70, 52
2, 320073, Control_c, 0, 64, 127
2, 320081, Note_off_c, 0, 72, 64
2, 320147, Note_on_c, 0, 69, 49
2, 320159, Note_off_c, 0, 70, 64
2, 320202, Control_c, 0, 64, 0
2, 320211, Note_on_c, 0, 70, 58
2, 320212, Note_on_c, 0, 63, 32
2, 320220, Note_on_c, 0, 61, 39
2, 320235, Note_off_c, 0, 69, 64
2, 320236, Control_c, 0, 64, 127
2, 320246, Note_off_c, 0, 51, 64
2, 320284, Note_off_c, 0, 63, 64
2, 320292, Note_off_c, 0, 61, 64
2, 320294, Note_on_c, 0, 72, 51
2, 320316, Note_off_c, 0, 70, 64
2, 320382, Note_on_c, 0, 63, 39
2, 320384, Note_on_c, 0, 67, 50
2, 320388, Note_on_c, 0, 61, 36
2, 320419, Note_off_c, 0, 72, 64
2, 320454, Note_off_c, 0, 63, 64
2, 320460, Note_off_c, 0, 61, 64
2, 320513, Note_on_c, 0, 70, 47
2, 320542, Note_off_c, 0, 67, 64
2, 320547, Note_on_c, 0, 68, 52
2, 320555, Note_on_c, 0, 44, 49
2, 320573, Control_c, 0, 64, 0
2, 320587, Note_off_c, 0, 70, 64
2, 320596, Control_c, 0, 64, 127
2, 320655, Note_on_c, 0, 67, 34
2, 320672, Note_off_c, 0, 68, 64
2, 320721, Note_on_c, 0, 68, 59
2, 320736, Note_on_c, 0, 51, 39
2, 320739, Note_off_c, 0, 67, 64
2, 320739, Note_on_c, 0, 60, 42
2, 320744, Control_c, 0, 64, 0
2, 320771, Control_c, 0, 64, 127
2, 320856, Note_off_c, 0, 51, 64
2, 320859, Note_off_c, 0, 60, 64
2, 320930, Note_off_c, 0, 44, 64
2, 320932, Note_on_c, 0, 60, 50
2, 320951, Note_off_c, 0, 68, 64
2, 321122, Note_on_c, 0, 41, 44
2, 321152, Control_c, 0, 64, 0
2, 321156, Note_on_c, 0, 68, 58
2, 321171, Note_off_c, 0, 60, 64
2, 321189, Control_c, 0, 64, 127
2, 321239, Note_on_c, 0, 70, 51
2, 321276, Note_off_c, 0, 68, 64
2, 321318, Note_on_c, 0, 72, 58
2, 321320, Note_on_c, 0, 65, 39
2, 321326, Note_on_c, 0, 56, 32
2, 321337, Note_off_c, 0, 70, 64
2, 321338, Control_c, 0, 64, 0
2, 321372, Control_c, 0, 64, 127
2, 321392, Note_off_c, 0, 65, 64
2, 321398, Note_off_c, 0, 56, 64
2, 321445, Note_off_c, 0, 41, 64
2, 321503, Note_on_c, 0, 56, 32
2, 321504, Control_c, 0, 64, 127
2, 321512, Note_on_c, 0, 65, 39
2, 321515, Note_on_c, 0, 60, 27
2, 321575, Note_off_c, 0, 56, 64
2, 321584, Note_off_c, 0, 65, 64
2, 321587, Note_off_c, 0, 60, 64
2, 321592, Note_on_c, 0, 73, 50
2, 321609, Note_off_c, 0, 72, 64
2, 321684, Note_on_c, 0, 72, 56
2, 321689, Note_on_c, 0, 48, 50
2, 321695, Control_c, 0, 64, 0
2, 321702, Note_off_c, 0, 73, 64
2, 321706, Control_c, 0, 64, 127
2, 321763, Note_on_c, 0, 71, 52
2, 321778, Note_off_c, 0, 72, 64
2, 321857, Note_on_c, 0, 70, 58
2, 321857, Control_c, 0, 64, 0
2, 321867, Note_off_c, 0, 71, 64
2, 321867, Note_on_c, 0, 64, 26
2, 321871, Note_on_c, 0, 58, 32
2, 321891, Control_c, 0, 64, 127
2, 321939, Note_off_c, 0, 64, 64
2, 321943, Note_off_c, 0, 58, 64
2, 322028, Note_off_c, 0, 48, 64
2, 322051, Note_on_c, 0, 64, 32
2, 322054, Note_on_c, 0, 58, 29
2, 322112, Note_on_c, 0, 68, 51
2, 322123, Note_off_c, 0, 64, 64
2, 322126, Note_off_c, 0, 58, 64
2, 322129, Note_off_c, 0, 70, 64
2, 322202, Note_on_c, 0, 67, 41
2, 322213, Note_off_c, 0, 68, 64
2, 322227, Note_on_c, 0, 68, 49
2, 322239, Note_off_c, 0, 67, 64
2, 322248, Note_on_c, 0, 48, 49
2, 322256, Control_c, 0, 64, 0
2, 322264, Note_on_c, 0, 67, 44
2, 322272, Note_off_c, 0, 68, 64
2, 322295, Control_c, 0, 64, 127
2, 322352, Note_on_c, 0, 65, 54
2, 322366, Note_off_c, 0, 67, 64
2, 322421, Note_on_c, 0, 67, 50
2, 322426, Control_c, 0, 64, 0
2, 322437, Note_on_c, 0, 60, 25
2, 322443, Note_off_c, 0, 65, 64
2, 322444, Note_on_c, 0, 58, 36
2, 322455, Control_c, 0, 64, 127
2, 322497, Note_on_c, 0, 68, 58
2, 322509, Note_off_c, 0, 60, 64
2, 322516, Note_off_c, 0, 58, 64
2, 322528, Note_off_c, 0, 67, 64
2, 322600, Note_on_c, 0, 60, 36
2, 322604, Note_on_c, 0, 58, 32
2, 322607, Note_on_c, 0, 64, 44
2, 322616, Note_off_c, 0, 68, 64
2, 322665, Note_off_c, 0, 48, 64
2, 322672, Note_off_c, 0, 60, 64
2, 322676, Note_off_c, 0, 58, 64
2, 322808, Note_on_c, 0, 65, 57
2, 322808, Note_on_c, 0, 41, 52
2, 322818, Control_c, 0, 64, 0
2, 322825, Note_off_c, 0, 64, 64
2, 322855, Control_c, 0, 64, 127
2, 322975, Note_on_c, 0, 77, 49
2, 323010, Note_on_c, 0, 49, 42
2, 323012, Note_on_c, 0, 56, 42
2, 323014, Note_on_c, 0, 61, 42
2, 323027, Note_on_c, 0, 75, 63
2, 323030, Control_c, 0, 64, 0
2, 323044, Note_off_c, 0, 77, 64
2, 323046, Control_c, 0, 64, 127
2, 323170, Note_off_c, 0, 49, 64
2, 323172, Note_off_c, 0, 56, 64
2, 323174, Note_off_c, 0, 61, 64
2, 323202, Note_off_c, 0, 41, 64
2, 323239, Note_on_c, 0, 63, 47
2, 323244, Control_c, 0, 64, 0
2, 323253, Note_off_c, 0, 65, 64
2, 323254, Note_on_c, 0, 43, 47
2, 323263, Note_on_c, 0, 51, 50
2, 323263, Control_c, 0, 64, 127
2, 323288, Note_off_c, 0, 75, 64
2, 323345, Note_on_c, 0, 73, 49
2, 323363, Note_off_c, 0, 63, 64
2, 323442, Note_on_c, 0, 44, 58
2, 323446, Note_on_c, 0, 72, 47
2, 323456, Note_off_c, 0, 43, 64
2, 323459, Note_off_c, 0, 73, 64
2, 323462, Control_c, 0, 64, 0
2, 323469, Note_off_c, 0, 51, 64
2, 323488, Control_c, 0, 64, 127
2, 323541, Note_on_c, 0, 73, 46
2, 323580, Note_off_c, 0, 72, 64
2, 323628, Note_on_c, 0, 75, 62
2, 323633, Note_on_c, 0, 68, 43
2, 323635, Note_on_c, 0, 60, 51
2, 323643, Control_c, 0, 64, 0
2, 323653, Note_off_c, 0, 73, 64
2, 323657, Control_c, 0, 64, 127
2, 323721, Note_off_c, 0, 44, 64
2, 323760, Note_off_c, 0, 68, 64
2, 323762, Note_off_c, 0, 60, 64
2, 323897, Note_on_c, 0, 79, 58
2, 323918, Note_off_c, 0, 75, 64
2, 324025, Note_on_c, 0, 77, 44
2, 324050, Note_off_c, 0, 79, 64
2, 324149, Note_on_c, 0, 75, 56
2, 324162, Note_on_c, 0, 39, 49
2, 324171, Note_off_c, 0, 77, 64
2, 324177, Control_c, 0, 64, 0
2, 324222, Control_c, 0, 64, 127
2, 324257, Note_on_c, 0, 74, 47
2, 324262, Note_off_c, 0, 75, 64
2, 324339, Note_on_c, 0, 73, 58
2, 324343, Note_on_c, 0, 61, 41
2, 324355, Note_on_c, 0, 67, 20
2, 324360, Note_off_c, 0, 74, 64
2, 324368, Control_c, 0, 64, 0
2, 324382, Control_c, 0, 64, 127
2, 324415, Note_off_c, 0, 61, 64
2, 324427, Note_off_c, 0, 67, 64
2, 324490, Note_off_c, 0, 39, 64
2, 324522, Note_on_c, 0, 61, 39
2, 324526, Note_on_c, 0, 67, 32
2, 324594, Note_off_c, 0, 61, 64
2, 324598, Note_off_c, 0, 67, 64
2, 324607, Note_on_c, 0, 72, 46
2, 324625, Note_off_c, 0, 73, 64
2, 324668, Note_on_c, 0, 70, 48
2, 324682, Note_off_c, 0, 72, 64
2, 324701, Note_on_c, 0, 72, 54
2, 324716, Note_off_c, 0, 70, 64
2, 324725, Note_on_c, 0, 51, 48
2, 324729, Note_on_c, 0, 70, 58
2, 324742, Control_c, 0, 64, 0
2, 324751, Note_off_c, 0, 72, 64
2, 324764, Control_c, 0, 64, 127
2, 324827, Note_on_c, 0, 69, 50
2, 324836, Note_off_c, 0, 70, 64
2, 324850, Note_off_c, 0, 51, 64
2, 324902, Note_on_c, 0, 70, 57
2, 324906, Note_on_c, 0, 61, 54
2, 324925, Note_off_c, 0, 69, 64
2, 324993, Note_on_c, 0, 72, 47
2, 325010, Note_off_c, 0, 70, 64
2, 325070, Note_on_c, 0, 67, 50
2, 325075, Note_on_c, 0, 52, 47
2, 325076, Control_c, 0, 64, 0
2, 325111, Note_off_c, 0, 72, 64
2, 325117, Note_off_c, 0, 61, 64
2, 325123, Control_c, 0, 64, 127
2, 325198, Note_on_c, 0, 70, 46
2, 325220, Note_off_c, 0, 67, 64
2, 325236, Note_on_c, 0, 68, 56
2, 325243, Note_on_c, 0, 53, 39
2, 325258, Note_off_c, 0, 52, 64
2, 325268, Control_c, 0, 64, 0
2, 325273, Note_off_c, 0, 70, 64
2, 325311, Control_c, 0, 64, 127
2, 325356, Note_on_c, 0, 67, 47
2, 325370, Note_off_c, 0, 68, 64
2, 325409, Note_off_c, 0, 53, 64
2, 325409, Note_on_c, 0, 68, 59
2, 325412, Note_on_c, 0, 60, 32
2, 325412, Note_on_c, 0, 56, 32
2, 325427, Control_c, 0, 64, 0
2, 325440, Note_off_c, 0, 67, 64
2, 325463, Control_c, 0, 64, 127
2, 325484, Note_off_c, 0, 56, 64
2, 325484, Note_off_c, 0, 60, 64
2, 325596, Note_on_c, 0, 60, 32
2, 325602, Note_on_c, 0, 64, 50
2, 325606, Note_on_c, 0, 56, 28
2, 325610, Note_off_c, 0, 68, 64
2, 325615, Control_c, 0, 64, 127
2, 325668, Note_off_c, 0, 60, 64
2, 325678, Note_off_c, 0, 56, 64
2, 325804, Note_on_c, 0, 49, 49
2, 325809, Note_on_c, 0, 65, 49
2, 325818, Control_c, 0, 64, 0
2, 325829, Note_off_c, 0, 64, 64
2, 325832, Control_c, 0, 64, 127
2, 325930, Note_on_c, 0, 67, 43
2, 325940, Note_off_c, 0, 65, 64
2, 325940, Note_off_c, 0, 49, 64
2, 325968, Note_on_c, 0, 68, 56
2, 325968, Control_c, 0, 64, 127
2, 325976, Note_on_c, 0, 65, 39
2, 325982, Control_c, 0, 64, 0
2, 325985, Note_on_c, 0, 58, 31
2, 325987, Note_on_c, 0, 55, 28
2, 326005, Note_off_c, 0, 67, 64
2, 326021, Control_c, 0, 64, 127
2, 326048, Note_off_c, 0, 65, 64
2, 326057, Note_off_c, 0, 58, 64
2, 326059, Note_off_c, 0, 55, 64
2, 326148, Note_on_c, 0, 65, 27
2, 326148, Note_on_c, 0, 55, 17
2, 326150, Note_on_c, 0, 70, 54
2, 326153, Note_on_c, 0, 58, 32
2, 326190, Note_off_c, 0, 68, 64
2, 326220, Note_off_c, 0, 55, 64
2, 326220, Note_off_c, 0, 65, 64
2, 326225, Note_off_c, 0, 58, 64
2, 326340, Note_on_c, 0, 48, 46
2, 326348, Note_on_c, 0, 72, 52
2, 326355, Control_c, 0, 64, 0
2, 326360, Note_off_c, 0, 70, 64
2, 326380, Control_c, 0, 64, 127
2, 326441, Note_on_c, 0, 73, 43
2, 326452, Note_off_c, 0, 72, 64
2, 326500, Note_off_c, 0, 48, 64
2, 326505, Note_on_c, 0, 72, 52
2, 326514, Note_on_c, 0, 64, 29
2, 326519, Note_off_c, 0, 73, 64
2, 326519, Note_on_c, 0, 58, 35
2, 326528, Control_c, 0, 64, 0
2, 326583, Control_c, 0, 64, 127
2, 326586, Note_off_c, 0, 64, 64
2, 326591, Note_off_c, 0, 58, 64
2, 326695, Note_on_c, 0, 64, 25
2, 326695, Note_on_c, 0, 58, 39
2, 326767, Note_off_c, 0, 58, 64
2, 326767, Note_off_c, 0, 64, 64
2, 326832, Note_on_c, 0, 67, 51
2, 326851, Note_off_c, 0, 72, 64
2, 326904, Note_on_c, 0, 65, 51
2, 326914, Note_off_c, 0, 67, 64
2, 326916, Control_c, 0, 64, 0
2, 326928, Note_on_c, 0, 67, 56
2, 326933, Note_off_c, 0, 65, 64
2, 326952, Note_on_c, 0, 49, 39
2, 326952, Control_c, 0, 64, 127
2, 326960, Note_on_c, 0, 65, 64
2, 326978, Note_off_c, 0, 67, 64
2, 327037, Note_on_c, 0, 64, 48
2, 327050, Note_off_c, 0, 65, 64
2, 327083, Control_c, 0, 64, 0
2, 327111, Note_on_c, 0, 65, 66
2, 327112, Note_on_c, 0, 55, 21
2, 327112, Note_on_c, 0, 58, 21
2, 327116, Note_off_c, 0, 64, 64
2, 327120, Note_off_c, 0, 49, 64
2, 327121, Control_c, 0, 64, 127
2, 327205, Note_off_c, 0, 58, 64
2, 327205, Note_off_c, 0, 55, 64
2, 327205, Note_on_c, 0, 67, 39
2, 327226, Note_off_c, 0, 65, 64
2, 327284, Note_on_c, 0, 65, 31
2, 327284, Note_on_c, 0, 58, 40
2, 327286, Note_on_c, 0, 68, 54
2, 327286, Note_on_c, 0, 55, 24
2, 327308, Note_off_c, 0, 67, 64
2, 327356, Note_off_c, 0, 58, 64
2, 327356, Note_off_c, 0, 65, 64
2, 327358, Note_off_c, 0, 55, 64
2, 327361, Note_on_c, 0, 70, 59
2, 327383, Note_off_c, 0, 68, 64
2, 327447, Note_on_c, 0, 72, 54
2, 327452, Note_on_c, 0, 48, 46
2, 327460, Control_c, 0, 64, 0
2, 327461, Note_off_c, 0, 70, 64
2, 327494, Control_c, 0, 64, 127
2, 327534, Note_on_c, 0, 75, 46
2, 327571, Note_off_c, 0, 72, 64
2, 327572, Note_on_c, 0, 73, 54
2, 327578, Note_off_c, 0, 75, 64
2, 327607, Note_off_c, 0, 48, 64
2, 327617, Note_on_c, 0, 64, 33
2, 327622, Note_on_c, 0, 55, 32
2, 327623, Note_on_c, 0, 72, 49
2, 327632, Control_c, 0, 64, 0
2, 327639, Note_off_c, 0, 73, 64
2, 327663, Control_c, 0, 64, 127
2, 327798, Note_on_c, 0, 48, 49
2, 327827, Note_off_c, 0, 64, 64
2, 327832, Note_off_c, 0, 55, 64
2, 327885, Note_on_c, 0, 71, 51
2, 327903, Note_off_c, 0, 72, 64
2, 328004, Note_on_c, 0, 49, 48
2, 328024, Note_on_c, 0, 70, 54
2, 328037, Note_off_c, 0, 48, 64
2, 328037, Control_c, 0, 64, 0
2, 328050, Note_off_c, 0, 71, 64
2, 328071, Control_c, 0, 64, 127
2, 328119, Note_on_c, 0, 72, 39
2, 328131, Note_off_c, 0, 70, 64
2, 328170, Note_on_c, 0, 70, 62
2, 328192, Note_off_c, 0, 72, 64
2, 328201, Control_c, 0, 64, 0
2, 328208, Note_on_c, 0, 63, 32
2, 328217, Control_c, 0, 64, 127
2, 328224, Note_on_c, 0, 55, 21
2, 328232, Note_on_c, 0, 69, 56
2, 328246, Note_off_c, 0, 70, 64
2, 328279, Note_off_c, 0, 49, 64
2, 328280, Note_off_c, 0, 63, 64
2, 328283, Note_on_c, 0, 70, 62
2, 328296, Note_off_c, 0, 55, 64
2, 328300, Note_off_c, 0, 69, 64
2, 328366, Note_on_c, 0, 72, 54
2, 328368, Note_on_c, 0, 63, 35
2, 328378, Note_on_c, 0, 55, 31
2, 328385, Note_off_c, 0, 70, 64
2, 328423, Note_on_c, 0, 73, 59
2, 328440, Note_off_c, 0, 63, 64
2, 328449, Note_off_c, 0, 72, 64
2, 328450, Note_off_c, 0, 55, 64
2, 328511, Note_on_c, 0, 77, 56
2, 328519, Note_on_c, 0, 48, 39
2, 328525, Note_off_c, 0, 73, 64
2, 328534, Control_c, 0, 64, 0
2, 328576, Note_on_c, 0, 75, 62
2, 328580, Control_c, 0, 64, 127
2, 328592, Note_off_c, 0, 77, 64
2, 328680, Note_on_c, 0, 80, 56
2, 328693, Note_off_c, 0, 48, 64
2, 328696, Note_on_c, 0, 56, 39
2, 328701, Note_on_c, 0, 63, 32
2, 328702, Note_off_c, 0, 75, 64
2, 328723, Control_c, 0, 64, 0
2, 328758, Control_c, 0, 64, 127
2, 328886, Note_on_c, 0, 53, 41
2, 328911, Note_off_c, 0, 56, 64
2, 328916, Note_off_c, 0, 63, 64
2, 329098, Note_on_c, 0, 51, 48
2, 329101, Note_on_c, 0, 69, 50
2, 329102, Control_c, 0, 64, 0
2, 329124, Note_off_c, 0, 53, 64
2, 329139, Control_c, 0, 64, 127
2, 329150, Note_off_c, 0, 80, 64
2, 329215, Note_on_c, 0, 70, 46
2, 329242, Note_off_c, 0, 69, 64
2, 329316, Note_on_c, 0, 62, 18
2, 329316, Note_on_c, 0, 58, 32
2, 329324, Note_on_c, 0, 79, 48
2, 329327, Note_on_c, 0, 68, 39
2, 329346, Note_off_c, 0, 70, 64
2, 329346, Control_c, 0, 64, 0
2, 329366, Control_c, 0, 64, 127
2, 329398, Note_off_c, 0, 51, 64
2, 329420, Control_c, 0, 64, 0
2, 329438, Note_on_c, 0, 77, 51
2, 329444, Control_c, 0, 64, 127
2, 329451, Note_off_c, 0, 79, 64
2, 329460, Control_c, 0, 64, 0
2, 329484, Control_c, 0, 64, 127
2, 329530, Note_off_c, 0, 58, 64
2, 329530, Note_off_c, 0, 62, 64
2, 329541, Note_off_c, 0, 68, 64
2, 329546, Note_on_c, 0, 58, 19
2, 329553, Note_on_c, 0, 61, 26
2, 329556, Note_on_c, 0, 67, 18
2, 329559, Note_on_c, 0, 75, 42
2, 329562, Note_off_c, 0, 77, 64
2, 329672, Note_off_c, 0, 67, 64
2, 329676, Note_on_c, 0, 63, 51
2, 329704, Note_off_c, 0, 61, 64
2, 329714, Note_off_c, 0, 75, 64
2, 329720, Note_off_c, 0, 58, 64
2, 329832, Note_on_c, 0, 73, 46
2, 329842, Note_on_c, 0, 44, 35
2, 329855, Note_off_c, 0, 63, 64
2, 329877, Control_c, 0, 64, 0
2, 329903, Control_c, 0, 64, 127
2, 329960, Note_on_c, 0, 72, 44
2, 329972, Note_off_c, 0, 73, 64
2, 330108, Note_off_c, 0, 44, 64
2, 330116, Note_on_c, 0, 68, 51
2, 330122, Note_on_c, 0, 51, 23
2, 330128, Note_off_c, 0, 72, 64
2, 330139, Note_on_c, 0, 60, 23
2, 330152, Control_c, 0, 64, 0
2, 330197, Control_c, 0, 64, 127
2, 330453, Note_on_c, 0, 66, 46
2, 330464, Control_c, 0, 64, 0
2, 330476, Note_off_c, 0, 68, 64
2, 330489, Note_off_c, 0, 60, 64
2, 330489, Control_c, 0, 64, 127
2, 330544, Note_off_c, 0, 51, 64
2, 330636, Control_c, 0, 64, 0
2, 330674, Control_c, 0, 64, 127
2, 330767, Note_on_c, 0, 65, 32
2, 330768, Note_on_c, 0, 61, 26
2, 330768, Note_on_c, 0, 56, 17
2, 330768, Note_on_c, 0, 49, 24
2, 330780, Control_c, 0, 64, 0
2, 330785, Note_off_c, 0, 66, 64
2, 330816, Note_off_c, 0, 61, 64
2, 330818, Control_c, 0, 64, 127
2, 330830, Note_off_c, 0, 56, 64
2, 330831, Note_off_c, 0, 49, 64
2, 330836, Note_off_c, 0, 65, 64
2, 330964, Note_on_c, 0, 56, 32
2, 330966, Note_on_c, 0, 49, 26
2, 330967, Note_on_c, 0, 61, 32
2, 330968, Note_on_c, 0, 65, 26
2, 330990, Note_off_c, 0, 56, 64
2, 330993, Note_off_c, 0, 61, 64
2, 330998, Note_off_c, 0, 65, 64
2, 330999, Note_off_c, 0, 49, 64
2, 331016, Note_on_c, 0, 56, 17
2, 331019, Note_on_c, 0, 65, 35
2, 331020, Note_on_c, 0, 61, 37
2, 331028, Note_on_c, 0, 49, 37
2, 331036, Control_c, 0, 64, 0
2, 331071, Control_c, 0, 64, 127
2, 331085, Note_off_c, 0, 56, 64
2, 331088, Note_off_c, 0, 65, 64
2, 331089, Note_off_c, 0, 61, 64
2, 331097, Note_off_c, 0, 49, 64
2, 331263, Note_on_c, 0, 66, 48
2, 331264, Note_on_c, 0, 42, 39
2, 331266, Note_on_c, 0, 58, 49
2, 331282, Control_c, 0, 64, 0
2, 331304, Control_c, 0, 64, 127
2, 331425, Note_off_c, 0, 66, 64
2, 331426, Note_off_c, 0, 42, 64
2, 331428, Note_off_c, 0, 58, 64
2, 331451, Note_on_c, 0, 65, 44
2, 331492, Note_on_c, 0, 60, 28
2, 331492, Note_on_c, 0, 54, 39
2, 331492, Note_on_c, 0, 44, 34
2, 331495, Note_on_c, 0, 63, 41
2, 331517, Note_off_c, 0, 65, 64
2, 331523, Control_c, 0, 64, 0
2, 331558, Control_c, 0, 64, 127
2, 331573, Note_off_c, 0, 44, 64
2, 331582, Note_off_c, 0, 54, 64
2, 331582, Note_off_c, 0, 60, 64
2, 331587, Note_off_c, 0, 63, 64
2, 331664, Note_on_c, 0, 44, 37
2, 331671, Note_on_c, 0, 62, 34
2, 331672, Note_on_c, 0, 60, 32
2, 331673, Note_on_c, 0, 53, 37
2, 331708, Note_off_c, 0, 44, 64
2, 331716, Note_off_c, 0, 60, 64
2, 331720, Note_on_c, 0, 44, 37
2, 331723, Note_on_c, 0, 63, 43
2, 331724, Note_on_c, 0, 60, 32
2, 331724, Note_on_c, 0, 54, 44
2, 331726, Control_c, 0, 64, 0
2, 331734, Note_off_c, 0, 53, 64
2, 331740, Note_off_c, 0, 62, 64
2, 331763, Control_c, 0, 64, 127
2, 331776, Note_off_c, 0, 54, 64
2, 331789, Note_off_c, 0, 44, 64
2, 331791, Note_off_c, 0, 63, 64
2, 331793, Note_off_c, 0, 60, 64
2, 331964, Note_on_c, 0, 50, 46
2, 331966, Note_on_c, 0, 65, 50
2, 331966, Note_on_c, 0, 60, 49
2, 331968, Note_on_c, 0, 44, 44
2, 331978, Control_c, 0, 64, 0
2, 332000, Control_c, 0, 64, 127
2, 332126, Note_off_c, 0, 50, 64
2, 332128, Note_off_c, 0, 60, 64
2, 332128, Note_off_c, 0, 65, 64
2, 332130, Note_off_c, 0, 44, 64
2, 332161, Note_on_c, 0, 68, 36
2, 332192, Note_on_c, 0, 60, 35
2, 332192, Note_on_c, 0, 51, 42
2, 332194, Note_on_c, 0, 66, 49
2, 332196, Note_on_c, 0, 44, 34
2, 332198, Control_c, 0, 64, 0
2, 332223, Note_off_c, 0, 68, 64
2, 332233, Control_c, 0, 64, 127
2, 332257, Note_off_c, 0, 66, 64
2, 332265, Note_off_c, 0, 51, 64
2, 332266, Note_off_c, 0, 44, 64
2, 332279, Note_off_c, 0, 60, 64
2, 332360, Note_on_c, 0, 60, 32
2, 332364, Note_on_c, 0, 65, 42
2, 332364, Note_on_c, 0, 50, 39
2, 332364, Note_on_c, 0, 44, 41
2, 332400, Note_on_c, 0, 51, 44
2, 332404, Note_off_c, 0, 60, 64
2, 332408, Note_off_c, 0, 44, 64
2, 332410, Note_on_c, 0, 66, 52
2, 332416, Note_on_c, 0, 60, 32
2, 332416, Note_on_c, 0, 44, 41
2, 332419, Note_off_c, 0, 50, 64
2, 332420, Control_c, 0, 64, 0
2, 332442, Note_off_c, 0, 65, 64
2, 332457, Control_c, 0, 64, 127
2, 332460, Note_off_c, 0, 44, 64
2, 332460, Note_off_c, 0, 60, 64
2, 332467, Note_off_c, 0, 51, 64
2, 332479, Note_off_c, 0, 66, 64
2, 332636, Note_on_c, 0, 44, 48
2, 332637, Note_on_c, 0, 67, 50
2, 332639, Note_on_c, 0, 58, 50
2, 332647, Note_on_c, 0, 52, 47
2, 332654, Control_c, 0, 64, 0
2, 332685, Control_c, 0, 64, 127
2, 332757, Note_off_c, 0, 58, 64
2, 332765, Note_off_c, 0, 52, 64
2, 332776, Note_off_c, 0, 67, 64
2, 332864, Note_on_c, 0, 52, 40
2, 332864, Note_on_c, 0, 37, 44
2, 332865, Note_on_c, 0, 61, 49
2, 332867, Note_on_c, 0, 58, 43
2, 332868, Note_on_c, 0, 70, 47
2, 332886, Control_c, 0, 64, 0
2, 332898, Control_c, 0, 64, 127
2, 332924, Note_off_c, 0, 44, 64
2, 332932, Note_off_c, 0, 37, 64
2, 332932, Note_off_c, 0, 52, 64
2, 332933, Note_off_c, 0, 61, 64
2, 332935, Note_off_c, 0, 58, 64
2, 332936, Note_off_c, 0, 70, 64
2, 333041, Note_on_c, 0, 49, 44
2, 333047, Note_on_c, 0, 55, 41
2, 333049, Note_on_c, 0, 70, 47
2, 333049, Note_on_c, 0, 64, 49
2, 333076, Note_off_c, 0, 49, 64
2, 333077, Note_off_c, 0, 55, 64
2, 333081, Note_off_c, 0, 70, 64
2, 333085, Note_off_c, 0, 64, 64
2, 333099, Note_on_c, 0, 64, 47
2, 333104, Note_on_c, 0, 70, 48
2, 333107, Note_on_c, 0, 55, 44
2, 333115, Note_on_c, 0, 49, 47
2, 333122, Control_c, 0, 64, 0
2, 333145, Control_c, 0, 64, 127
2, 333260, Note_off_c, 0, 64, 64
2, 333265, Note_off_c, 0, 70, 64
2, 333268, Note_off_c, 0, 55, 64
2, 333276, Note_off_c, 0, 49, 64
2, 333336, Note_on_c, 0, 68, 49
2, 333343, Note_on_c, 0, 65, 49
2, 333343, Note_on_c, 0, 49, 40
2, 333343, Note_on_c, 0, 56, 48
2, 333356, Control_c, 0, 64, 0
2, 333386, Control_c, 0, 64, 127
2, 333498, Note_off_c, 0, 68, 64
2, 333505, Note_off_c, 0, 56, 64
2, 333505, Note_off_c, 0, 49, 64
2, 333505, Note_off_c, 0, 65, 64
2, 333588, Note_on_c, 0, 61, 44
2, 333590, Control_c, 0, 64, 0
2, 333596, Note_on_c, 0, 65, 41
2, 333598, Note_on_c, 0, 56, 40
2, 333604, Note_on_c, 0, 49, 28
2, 333622, Control_c, 0, 64, 127
2, 333631, Note_off_c, 0, 49, 64
2, 333637, Note_off_c, 0, 61, 64
2, 333640, Note_off_c, 0, 56, 64
2, 333644, Note_off_c, 0, 65, 64
2, 333774, Note_on_c, 0, 61, 43
2, 333776, Note_on_c, 0, 65, 41
2, 333781, Note_on_c, 0, 56, 40
2, 333784, Note_on_c, 0, 49, 32
2, 333805, Note_off_c, 0, 65, 64
2, 333805, Note_off_c, 0, 61, 64
2, 333812, Note_off_c, 0, 56, 64
2, 333815, Note_off_c, 0, 49, 64
2, 333820, Control_c, 0, 64, 0
2, 333825, Note_on_c, 0, 65, 44
2, 333828, Note_on_c, 0, 56, 48
2, 333829, Note_on_c, 0, 61, 48
2, 333835, Note_on_c, 0, 49, 41
2, 333861, Control_c, 0, 64, 127
2, 333928, Control_c, 0, 64, 0
2, 333947, Note_off_c, 0, 65, 64
2, 333969, Control_c, 0, 64, 127
2, 333971, Note_off_c, 0, 56, 64
2, 333972, Note_off_c, 0, 61, 64
2, 333976, Note_off_c, 0, 49, 64
2, 334056, Note_on_c, 0, 66, 55
2, 334056, Note_on_c, 0, 58, 54
2, 334061, Note_on_c, 0, 42, 44
2, 334070, Control_c, 0, 64, 0
2, 334092, Control_c, 0, 64, 127
2, 334218, Note_off_c, 0, 58, 64
2, 334218, Note_off_c, 0, 66, 64
2, 334222, Note_on_c, 0, 65, 50
2, 334223, Note_off_c, 0, 42, 64
2, 334260, Note_on_c, 0, 54, 44
2, 334260, Note_on_c, 0, 60, 44
2, 334262, Note_on_c, 0, 63, 52
2, 334264, Note_on_c, 0, 44, 41
2, 334285, Note_off_c, 0, 65, 64
2, 334293, Control_c, 0, 64, 0
2, 334330, Control_c, 0, 64, 127
2, 334336, Note_off_c, 0, 44, 64
2, 334354, Note_off_c, 0, 60, 64
2, 334354, Note_off_c, 0, 54, 64
2, 334359, Note_off_c, 0, 63, 64
2, 334452, Note_on_c, 0, 60, 37
2, 334456, Note_on_c, 0, 44, 41
2, 334456, Note_on_c, 0, 62, 39
2, 334456, Note_on_c, 0, 53, 42
2, 334496, Note_off_c, 0, 60, 64
2, 334496, Control_c, 0, 64, 0
2, 334500, Note_off_c, 0, 44, 64
2, 334501, Note_on_c, 0, 63, 51
2, 334504, Note_on_c, 0, 60, 37
2, 334509, Note_on_c, 0, 54, 49
2, 334512, Note_on_c, 0, 44, 41
2, 334524, Note_off_c, 0, 53, 64
2, 334526, Note_off_c, 0, 62, 64
2, 334540, Control_c, 0, 64, 127
2, 334548, Note_off_c, 0, 60, 64
2, 334556, Note_off_c, 0, 44, 64
2, 334557, Note_off_c, 0, 54, 64
2, 334566, Note_off_c, 0, 63, 64
2, 334733, Note_on_c, 0, 65, 57
2, 334736, Note_on_c, 0, 60, 52
2, 334736, Note_on_c, 0, 44, 48
2, 334736, Note_on_c, 0, 50, 50
2, 334750, Control_c, 0, 64, 0
2, 334782, Control_c, 0, 64, 127
2, 334895, Note_off_c, 0, 65, 64
2, 334898, Note_off_c, 0, 50, 64
2, 334898, Note_off_c, 0, 44, 64
2, 334898, Note_off_c, 0, 60, 64
2, 334956, Note_on_c, 0, 60, 46
2, 334959, Note_on_c, 0, 66, 54
2, 334962, Note_on_c, 0, 51, 57
2, 334962, Note_on_c, 0, 44, 51
2, 334970, Control_c, 0, 64, 0
2, 335000, Control_c, 0, 64, 127
2, 335011, Note_off_c, 0, 44, 64
2, 335016, Note_off_c, 0, 60, 64
2, 335020, Note_off_c, 0, 51, 64
2, 335021, Note_off_c, 0, 66, 64
2, 335112, Note_on_c, 0, 44, 52
2, 335113, Note_on_c, 0, 53, 55
2, 335116, Note_on_c, 0, 60, 50
2, 335117, Note_on_c, 0, 68, 55
2, 335141, Note_off_c, 0, 53, 64
2, 335142, Note_off_c, 0, 44, 64
2, 335146, Note_off_c, 0, 60, 64
2, 335172, Note_on_c, 0, 70, 66
2, 335172, Note_on_c, 0, 44, 67
2, 335173, Note_on_c, 0, 60, 59
2, 335178, Control_c, 0, 64, 0
2, 335182, Note_on_c, 0, 54, 67
2, 335195, Note_off_c, 0, 68, 64
2, 335204, Control_c, 0, 64, 127
2, 335302, Control_c, 0, 64, 0
2, 335328, Control_c, 0, 64, 127
2, 335334, Note_off_c, 0, 44, 64
2, 335334, Note_off_c, 0, 70, 64
2, 335335, Note_off_c, 0, 60, 64
2, 335344, Note_off_c, 0, 54, 64
2, 335411, Note_on_c, 0, 72, 74
2, 335415, Note_on_c, 0, 66, 73
2, 335415, Note_on_c, 0, 44, 65
2, 335416, Note_on_c, 0, 60, 59
2, 335416, Note_on_c, 0, 51, 64
2, 335437, Control_c, 0, 64, 0
2, 335451, Control_c, 0, 64, 127
2, 335573, Note_off_c, 0, 72, 64
2, 335577, Note_off_c, 0, 44, 64
2, 335577, Note_off_c, 0, 66, 64
2, 335578, Note_off_c, 0, 51, 64
2, 335578, Note_off_c, 0, 60, 64
2, 335646, Note_on_c, 0, 75, 65
2, 335648, Note_on_c, 0, 60, 27
2, 335648, Note_on_c, 0, 56, 52
2, 335648, Note_on_c, 0, 49, 28
2, 335650, Note_on_c, 0, 66, 56
2, 335659, Control_c, 0, 64, 0
2, 335678, Note_off_c, 0, 49, 64
2, 335686, Control_c, 0, 64, 127
2, 335690, Note_off_c, 0, 60, 64
2, 335692, Note_off_c, 0, 66, 64
2, 335699, Note_off_c, 0, 56, 64
2, 335707, Note_off_c, 0, 75, 64
2, 335816, Note_on_c, 0, 60, 54
2, 335820, Note_on_c, 0, 56, 59
2, 335820, Note_on_c, 0, 49, 56
2, 335821, Note_on_c, 0, 75, 57
2, 335821, Note_on_c, 0, 66, 58
2, 335842, Note_off_c, 0, 49, 64
2, 335847, Note_off_c, 0, 60, 64
2, 335849, Note_off_c, 0, 56, 64
2, 335852, Note_off_c, 0, 66, 64
2, 335852, Note_off_c, 0, 75, 64
2, 335872, Note_on_c, 0, 49, 48
2, 335872, Note_on_c, 0, 56, 62
2, 335872, Note_on_c, 0, 60, 62
2, 335872, Note_on_c, 0, 66, 62
2, 335875, Note_on_c, 0, 75, 65
2, 335876, Control_c, 0, 64, 0
2, 335883, Note_on_c, 0, 49, 48
2, 335888, Note_on_c, 0, 56, 62
2, 335915, Control_c, 0, 64, 127
2, 335968, Control_c, 0, 64, 0
2, 336007, Control_c, 0, 64, 127
2, 336076, Note_off_c, 0, 66, 64
2, 336076, Note_off_c, 0, 60, 64
2, 336076, Note_off_c, 0, 56, 64
2, 336076, Note_off_c, 0, 49, 64
2, 336079, Note_off_c, 0, 75, 64
2, 336087, Note_off_c, 0, 49, 64
2, 336092, Note_off_c, 0, 56, 64
2, 336135, Note_on_c, 0, 73, 63
2, 336141, Note_on_c, 0, 49, 44
2, 336144, Note_on_c, 0, 65, 63
2, 336150, Note_on_c, 0, 61, 40
2, 336150, Note_on_c, 0, 56, 32
2, 336163, Control_c, 0, 64, 0
2, 336199, Control_c, 0, 64, 127
2, 336297, Note_off_c, 0, 73, 64
2, 336303, Note_off_c, 0, 49, 64
2, 336306, Note_off_c, 0, 65, 64
2, 336312, Note_off_c, 0, 56, 64
2, 336312, Note_off_c, 0, 61, 64
2, 336412, Note_on_c, 0, 65, 31
2, 336416, Note_on_c, 0, 61, 26
2, 336416, Note_on_c, 0, 56, 16
2, 336420, Note_on_c, 0, 49, 13
2, 336426, Control_c, 0, 64, 0
2, 336463, Control_c, 0, 64, 127
2, 336470, Note_off_c, 0, 49, 64
2, 336470, Note_off_c, 0, 61, 64
2, 336477, Note_off_c, 0, 56, 64
2, 336478, Note_off_c, 0, 65, 64
2, 336577, Note_on_c, 0, 61, 28
2, 336577, Note_on_c, 0, 56, 29
2, 336577, Note_on_c, 0, 49, 26
2, 336586, Note_on_c, 0, 65, 26
2, 336608, Note_off_c, 0, 49, 64
2, 336609, Note_off_c, 0, 61, 64
2, 336613, Note_off_c, 0, 65, 64
2, 336622, Note_off_c, 0, 56, 64
2, 336636, Note_on_c, 0, 65, 37
2, 336638, Note_on_c, 0, 61, 37
2, 336645, Note_on_c, 0, 56, 29
2, 336653, Note_on_c, 0, 49, 32
2, 336653, Control_c, 0, 64, 0
2, 336678, Control_c, 0, 64, 127
2, 336691, Note_off_c, 0, 65, 64
2, 336699, Note_off_c, 0, 61, 64
2, 336701, Note_off_c, 0, 56, 64
2, 336726, Note_off_c, 0, 49, 64
2, 336875, Note_on_c, 0, 58, 41
2, 336875, Note_on_c, 0, 66, 44
2, 336876, Note_on_c, 0, 42, 35
2, 336888, Control_c, 0, 64, 0
2, 336910, Control_c, 0, 64, 127
2, 337037, Note_off_c, 0, 66, 64
2, 337037, Note_off_c, 0, 58, 64
2, 337038, Note_off_c, 0, 42, 64
2, 337046, Note_on_c, 0, 65, 39
2, 337084, Note_on_c, 0, 63, 40
2, 337084, Note_on_c, 0, 54, 41
2, 337088, Note_on_c, 0, 60, 17
2, 337088, Note_on_c, 0, 44, 29
2, 337113, Note_off_c, 0, 65, 64
2, 337122, Control_c, 0, 64, 0
2, 337144, Note_off_c, 0, 44, 64
2, 337159, Control_c, 0, 64, 127
2, 337165, Note_off_c, 0, 54, 64
2, 337175, Note_off_c, 0, 63, 64
2, 337179, Note_off_c, 0, 60, 64
2, 337260, Note_on_c, 0, 60, 26
2, 337262, Note_on_c, 0, 62, 32
2, 337262, Note_on_c, 0, 44, 37
2, 337264, Note_on_c, 0, 53, 40
2, 337304, Note_off_c, 0, 60, 64
2, 337306, Note_off_c, 0, 44, 64
2, 337316, Note_on_c, 0, 60, 26
2, 337318, Note_on_c, 0, 63, 43
2, 337320, Note_on_c, 0, 44, 37
2, 337324, Note_on_c, 0, 54, 44
2, 337326, Control_c, 0, 64, 0
2, 337327, Note_off_c, 0, 53, 64
2, 337333, Note_off_c, 0, 62, 64
2, 337360, Note_off_c, 0, 60, 64
2, 337364, Note_off_c, 0, 44, 64
2, 337364, Control_c, 0, 64, 127
2, 337372, Note_off_c, 0, 54, 64
2, 337380, Note_off_c, 0, 63, 64
2, 337553, Note_on_c, 0, 65, 44
2, 337555, Note_on_c, 0, 44, 44
2, 337555, Note_on_c, 0, 60, 41
2, 337561, Note_on_c, 0, 50, 43
2, 337571, Control_c, 0, 64, 0
2, 337594, Control_c, 0, 64, 127
2, 337715, Note_off_c, 0, 65, 64
2, 337717, Note_off_c, 0, 60, 64
2, 337717, Note_off_c, 0, 44, 64
2, 337723, Note_off_c, 0, 50, 64
2, 337736, Note_on_c, 0, 68, 42
2, 337768, Note_on_c, 0, 60, 35
2, 337768, Note_on_c, 0, 44, 27
2, 337772, Note_on_c, 0, 66, 49
2, 337774, Note_on_c, 0, 51, 43
2, 337787, Control_c, 0, 64, 0
2, 337797, Note_off_c, 0, 68, 64
2, 337810, Control_c, 0, 64, 127
2, 337828, Note_off_c, 0, 44, 64
2, 337832, Note_off_c, 0, 51, 64
2, 337833, Note_off_c, 0, 66, 64
2, 337846, Note_off_c, 0, 60, 64
2, 337941, Note_on_c, 0, 44, 44
2, 337947, Note_on_c, 0, 65, 41
2, 337947, Note_on_c, 0, 50, 41
2, 337948, Note_on_c, 0, 60, 27
2, 337985, Note_off_c, 0, 44, 64
2, 337992, Note_off_c, 0, 60, 64
2, 337992, Note_on_c, 0, 66, 52
2, 337993, Note_on_c, 0, 51, 58
2, 337996, Note_on_c, 0, 60, 27
2, 337996, Note_on_c, 0, 44, 44
2, 338001, Note_off_c, 0, 50, 64
2, 338007, Control_c, 0, 64, 0
2, 338022, Note_off_c, 0, 65, 64
2, 338030, Control_c, 0, 64, 127
2, 338040, Note_off_c, 0, 44, 64
2, 338040, Note_off_c, 0, 60, 64
2, 338045, Note_off_c, 0, 51, 64
2, 338063, Note_off_c, 0, 66, 64
2, 338217, Note_on_c, 0, 44, 41
2, 338220, Note_on_c, 0, 52, 41
2, 338223, Note_on_c, 0, 58, 47
2, 338227, Note_on_c, 0, 67, 44
2, 338235, Control_c, 0, 64, 0
2, 338260, Control_c, 0, 64, 127
2, 338382, Note_off_c, 0, 52, 64
2, 338385, Note_off_c, 0, 58, 64
2, 338389, Note_off_c, 0, 67, 64
2, 338435, Note_on_c, 0, 70, 49
2, 338436, Note_on_c, 0, 58, 43
2, 338440, Note_on_c, 0, 52, 41
2, 338440, Note_on_c, 0, 37, 44
2, 338441, Note_on_c, 0, 61, 49
2, 338459, Control_c, 0, 64, 0
2, 338468, Note_off_c, 0, 58, 64
2, 338477, Control_c, 0, 64, 127
2, 338479, Note_off_c, 0, 37, 64
2, 338485, Note_off_c, 0, 44, 64
2, 338488, Note_off_c, 0, 61, 64
2, 338500, Note_off_c, 0, 70, 64
2, 338508, Note_off_c, 0, 52, 64
2, 338616, Note_on_c, 0, 64, 43
2, 338618, Note_on_c, 0, 70, 43
2, 338618, Note_on_c, 0, 55, 43
2, 338621, Note_on_c, 0, 49, 44
2, 338641, Note_off_c, 0, 49, 64
2, 338644, Note_off_c, 0, 64, 64
2, 338648, Note_off_c, 0, 55, 64
2, 338657, Note_off_c, 0, 70, 64
2, 338668, Note_on_c, 0, 49, 49
2, 338672, Note_on_c, 0, 64, 47
2, 338674, Note_on_c, 0, 70, 44
2, 338674, Note_on_c, 0, 55, 43
2, 338687, Control_c, 0, 64, 0
2, 338701, Control_c, 0, 64, 127
2, 338826, Note_off_c, 0, 49, 64
2, 338830, Note_off_c, 0, 64, 64
2, 338832, Note_off_c, 0, 55, 64
2, 338832, Note_off_c, 0, 70, 64
2, 338900, Note_on_c, 0, 65, 54
2, 338901, Note_on_c, 0, 56, 47
2, 338904, Note_on_c, 0, 68, 52
2, 338906, Note_on_c, 0, 49, 40
2, 338920, Control_c, 0, 64, 0
2, 338953, Control_c, 0, 64, 127
2, 339062, Note_off_c, 0, 65, 64
2, 339063, Note_off_c, 0, 56, 64
2, 339066, Note_off_c, 0, 68, 64
2, 339068, Note_off_c, 0, 49, 64
2, 339129, Note_on_c, 0, 65, 35
2, 339133, Note_on_c, 0, 61, 39
2, 339136, Note_on_c, 0, 56, 32
2, 339142, Note_on_c, 0, 49, 35
2, 339156, Control_c, 0, 64, 0
2, 339179, Control_c, 0, 64, 127
2, 339226, Note_off_c, 0, 49, 64
2, 339232, Note_off_c, 0, 56, 64
2, 339236, Note_off_c, 0, 65, 64
2, 339240, Note_off_c, 0, 61, 64
2, 339298, Note_on_c, 0, 61, 37
2, 339302, Note_on_c, 0, 65, 34
2, 339302, Note_on_c, 0, 56, 34
2, 339302, Note_on_c, 0, 49, 36
2, 339329, Note_off_c, 0, 61, 64
2, 339331, Note_off_c, 0, 49, 64
2, 339333, Note_off_c, 0, 56, 64
2, 339333, Note_off_c, 0, 65, 64
2, 339351, Note_on_c, 0, 65, 39
2, 339352, Note_on_c, 0, 56, 43
2, 339352, Note_on_c, 0, 49, 40
2, 339355, Note_on_c, 0, 61, 43
2, 339364, Control_c, 0, 64, 0
2, 339390, Control_c, 0, 64, 127
2, 339468, Control_c, 0, 64, 0
2, 339494, Control_c, 0, 64, 127
2, 339537, Note_off_c, 0, 65, 64
2, 339538, Note_off_c, 0, 49, 64
2, 339538, Note_off_c, 0, 56, 64
2, 339541, Note_off_c, 0, 61, 64
2, 339577, Note_on_c, 0, 66, 51
2, 339580, Note_on_c, 0, 42, 44
2, 339583, Note_on_c, 0, 58, 50
2, 339583, Control_c, 0, 64, 0
2, 339611, Control_c, 0, 64, 127
2, 339739, Note_off_c, 0, 66, 64
2, 339742, Note_off_c, 0, 42, 64
2, 339745, Note_off_c, 0, 58, 64
2, 339751, Note_on_c, 0, 65, 50
2, 339796, Note_on_c, 0, 54, 49
2, 339796, Note_on_c, 0, 60, 42
2, 339796, Note_on_c, 0, 63, 58
2, 339800, Note_on_c, 0, 44, 46
2, 339811, Control_c, 0, 64, 0
2, 339816, Note_off_c, 0, 65, 64
2, 339834, Control_c, 0, 64, 127
2, 339866, Note_off_c, 0, 63, 64
2, 339866, Note_off_c, 0, 60, 64
2, 339868, Note_off_c, 0, 44, 64
2, 339881, Note_off_c, 0, 54, 64
2, 339963, Note_on_c, 0, 44, 49
2, 339964, Note_on_c, 0, 60, 37
2, 339964, Note_on_c, 0, 53, 48
2, 339966, Note_on_c, 0, 62, 42
2, 340007, Note_off_c, 0, 44, 64
2, 340008, Note_off_c, 0, 60, 64
2, 340012, Note_on_c, 0, 63, 62
2, 340012, Note_on_c, 0, 60, 37
2, 340017, Control_c, 0, 64, 0
2, 340020, Note_on_c, 0, 44, 49
2, 340022, Note_on_c, 0, 54, 59
2, 340025, Note_off_c, 0, 53, 64
2, 340038, Note_off_c, 0, 62, 64
2, 340055, Control_c, 0, 64, 127
2, 340056, Note_off_c, 0, 60, 64
2, 340064, Note_off_c, 0, 44, 64
2, 340091, Note_off_c, 0, 63, 64
2, 340104, Note_off_c, 0, 54, 64
2, 340235, Note_on_c, 0, 44, 41
2, 340238, Note_on_c, 0, 50, 49
2, 340240, Note_on_c, 0, 65, 56
2, 340240, Note_on_c, 0, 60, 52
2, 340254, Control_c, 0, 64, 0
2, 340288, Control_c, 0, 64, 127
2, 340397, Note_off_c, 0, 44, 64
2, 340400, Note_off_c, 0, 50, 64
2, 340402, Note_off_c, 0, 60, 64
2, 340402, Note_off_c, 0, 65, 64
2, 340463, Note_on_c, 0, 44, 51
2, 340463, Note_on_c, 0, 66, 54
2, 340464, Note_on_c, 0, 51, 56
2, 340464, Note_on_c, 0, 60, 51
2, 340469, Control_c, 0, 64, 0
2, 340497, Control_c, 0, 64, 127
2, 340531, Note_off_c, 0, 60, 64
2, 340538, Note_off_c, 0, 51, 64
2, 340542, Note_off_c, 0, 44, 64
2, 340544, Note_off_c, 0, 66, 64
2, 340621, Note_on_c, 0, 68, 49
2, 340624, Note_on_c, 0, 53, 54
2, 340624, Note_on_c, 0, 44, 36
2, 340631, Note_on_c, 0, 60, 50
2, 340654, Note_off_c, 0, 60, 64
2, 340654, Note_off_c, 0, 44, 64
2, 340654, Note_off_c, 0, 53, 64
2, 340676, Note_on_c, 0, 44, 63
2, 340680, Note_on_c, 0, 70, 66
2, 340684, Note_on_c, 0, 54, 66
2, 340684, Note_on_c, 0, 60, 63
2, 340684, Control_c, 0, 64, 0
2, 340704, Note_off_c, 0, 68, 64
2, 340706, Control_c, 0, 64, 127
2, 340780, Control_c, 0, 64, 0
2, 340802, Control_c, 0, 64, 127
2, 340846, Note_off_c, 0, 44, 64
2, 340850, Note_off_c, 0, 70, 64
2, 340854, Note_off_c, 0, 60, 64
2, 340854, Note_off_c, 0, 54, 64
2, 340919, Note_on_c, 0, 72, 64
2, 340920, Note_on_c, 0, 66, 60
2, 340924, Note_on_c, 0, 51, 52
2, 340925, Note_on_c, 0, 60, 52
2, 340925, Note_on_c, 0, 44, 56
2, 340942, Control_c, 0, 64, 0
2, 340979, Control_c, 0, 64, 127
2, 341081, Note_off_c, 0, 72, 64
2, 341082, Note_off_c, 0, 66, 64
2, 341086, Note_off_c, 0, 51, 64
2, 341087, Note_off_c, 0, 44, 64
2, 341087, Note_off_c, 0, 60, 64
2, 341140, Note_on_c, 0, 66, 65
2, 341143, Note_on_c, 0, 75, 63
2, 341144, Note_on_c, 0, 60, 43
2, 341144, Note_on_c, 0, 56, 55
2, 341144, Note_on_c, 0, 49, 54
2, 341168, Control_c, 0, 64, 0
2, 341182, Control_c, 0, 64, 127
2, 341184, Note_off_c, 0, 66, 64
2, 341193, Note_off_c, 0, 49, 64
2, 341201, Note_off_c, 0, 56, 64
2, 341201, Note_off_c, 0, 60, 64
2, 341213, Note_off_c, 0, 75, 64
2, 341316, Note_on_c, 0, 49, 49
2, 341317, Note_on_c, 0, 75, 49
2, 341320, Note_on_c, 0, 60, 47
2, 341321, Note_on_c, 0, 66, 50
2, 341321, Note_on_c, 0, 56, 49
2, 341344, Note_off_c, 0, 49, 64
2, 341347, Note_off_c, 0, 75, 64
2, 341348, Note_off_c, 0, 60, 64
2, 341349, Note_off_c, 0, 56, 64
2, 341349, Note_off_c, 0, 66, 64
2, 341364, Note_on_c, 0, 56, 62
2, 341364, Note_on_c, 0, 60, 66
2, 341368, Note_on_c, 0, 49, 48
2, 341371, Note_on_c, 0, 66, 66
2, 341374, Note_on_c, 0, 75, 71
2, 341387, Control_c, 0, 64, 0
2, 341409, Control_c, 0, 64, 127
2, 341589, Note_off_c, 0, 60, 64
2, 341589, Note_off_c, 0, 56, 64
2, 341593, Note_off_c, 0, 49, 64
2, 341596, Note_off_c, 0, 66, 64
2, 341599, Note_off_c, 0, 75, 64
2, 341612, Note_on_c, 0, 49, 48
2, 341612, Note_on_c, 0, 73, 73
2, 341616, Note_on_c, 0, 56, 57
2, 341616, Note_on_c, 0, 61, 52
2, 341616, Note_on_c, 0, 65, 65
2, 341627, Control_c, 0, 64, 0
2, 341663, Control_c, 0, 64, 127
2, 341774, Note_off_c, 0, 73, 64
2, 341774, Note_off_c, 0, 49, 64
2, 341778, Note_off_c, 0, 65, 64
2, 341778, Note_off_c, 0, 61, 64
2, 341778, Note_off_c, 0, 56, 64
2, 341878, Note_on_c, 0, 73, 41
2, 341880, Note_on_c, 0, 65, 32
2, 341880, Note_on_c, 0, 53, 31
2, 341880, Note_on_c, 0, 46, 39
2, 341884, Note_on_c, 0, 61, 20
2, 341894, Control_c, 0, 64, 0
2, 341916, Control_c, 0, 64, 127
2, 341929, Note_off_c, 0, 65, 64
2, 341938, Note_off_c, 0, 73, 64
2, 341946, Note_off_c, 0, 61, 64
2, 341955, Note_off_c, 0, 53, 64
2, 341964, Note_off_c, 0, 46, 64
2, 342044, Note_on_c, 0, 53, 43
2, 342048, Note_on_c, 0, 73, 39
2, 342048, Note_on_c, 0, 65, 35
2, 342048, Note_on_c, 0, 61, 39
2, 342048, Note_on_c, 0, 46, 35
2, 342068, Note_off_c, 0, 65, 64
2, 342070, Note_off_c, 0, 46, 64
2, 342072, Note_off_c, 0, 73, 64
2, 342073, Note_off_c, 0, 61, 64
2, 342076, Note_off_c, 0, 53, 64
2, 342092, Note_on_c, 0, 65, 43
2, 342092, Note_on_c, 0, 61, 40
2, 342092, Note_on_c, 0, 53, 43
2, 342092, Note_on_c, 0, 46, 39
2, 342095, Note_on_c, 0, 73, 49
2, 342112, Control_c, 0, 64, 0
2, 342129, Control_c, 0, 64, 127
2, 342136, Note_off_c, 0, 46, 64
2, 342139, Note_off_c, 0, 53, 64
2, 342144, Note_off_c, 0, 61, 64
2, 342145, Note_off_c, 0, 65, 64
2, 342158, Note_off_c, 0, 73, 64
2, 342322, Control_c, 0, 64, 0
2, 342324, Note_on_c, 0, 53, 46
2, 342327, Note_on_c, 0, 75, 50
2, 342328, Note_on_c, 0, 46, 41
2, 342328, Note_on_c, 0, 61, 40
2, 342330, Note_on_c, 0, 65, 48
2, 342349, Control_c, 0, 64, 127
2, 342486, Note_off_c, 0, 53, 64
2, 342489, Note_off_c, 0, 75, 64
2, 342490, Note_off_c, 0, 61, 64
2, 342490, Note_off_c, 0, 46, 64
2, 342492, Note_off_c, 0, 65, 64
2, 342512, Note_on_c, 0, 73, 43
2, 342544, Note_on_c, 0, 63, 25
2, 342545, Note_on_c, 0, 72, 49
2, 342548, Note_on_c, 0, 57, 39
2, 342548, Note_on_c, 0, 53, 40
2, 342550, Note_on_c, 0, 46, 34
2, 342572, Control_c, 0, 64, 0
2, 342576, Note_off_c, 0, 73, 64
2, 342584, Control_c, 0, 64, 127
2, 342593, Note_off_c, 0, 57, 64
2, 342597, Note_off_c, 0, 46, 64
2, 342602, Note_off_c, 0, 53, 64
2, 342607, Note_off_c, 0, 72, 64
2, 342626, Note_off_c, 0, 63, 64
2, 342708, Note_on_c, 0, 46, 37
2, 342708, Note_on_c, 0, 53, 39
2, 342708, Note_on_c, 0, 57, 40
2, 342708, Note_on_c, 0, 63, 34
2, 342708, Note_on_c, 0, 71, 39
2, 342735, Note_off_c, 0, 53, 64
2, 342737, Note_off_c, 0, 46, 64
2, 342738, Note_off_c, 0, 57, 64
2, 342740, Note_off_c, 0, 63, 64
2, 342760, Note_on_c, 0, 63, 49
2, 342760, Note_on_c, 0, 57, 39
2, 342760, Note_on_c, 0, 53, 40
2, 342760, Note_on_c, 0, 46, 44
2, 342763, Note_on_c, 0, 72, 51
2, 342775, Note_off_c, 0, 71, 64
2, 342779, Control_c, 0, 64, 0
2, 342794, Control_c, 0, 64, 127
2, 342800, Note_off_c, 0, 53, 64
2, 342800, Note_off_c, 0, 57, 64
2, 342806, Note_off_c, 0, 46, 64
2, 342825, Note_off_c, 0, 72, 64
2, 342842, Note_off_c, 0, 63, 64
2, 342997, Note_on_c, 0, 65, 56
2, 342997, Note_on_c, 0, 63, 50
2, 343000, Note_on_c, 0, 57, 44
2, 343000, Note_on_c, 0, 46, 28
2, 343001, Note_on_c, 0, 53, 46
2, 343016, Control_c, 0, 64, 0
2, 343040, Control_c, 0, 64, 127
2, 343159, Note_off_c, 0, 63, 64
2, 343159, Note_off_c, 0, 65, 64
2, 343162, Note_off_c, 0, 46, 64
2, 343162, Note_off_c, 0, 57, 64
2, 343163, Note_off_c, 0, 53, 64
2, 343219, Control_c, 0, 64, 0
2, 343224, Note_on_c, 0, 61, 44
2, 343224, Note_on_c, 0, 58, 39
2, 343224, Note_on_c, 0, 46, 39
2, 343227, Note_on_c, 0, 70, 46
2, 343228, Note_on_c, 0, 53, 36
2, 343245, Control_c, 0, 64, 127
2, 343274, Note_off_c, 0, 53, 64
2, 343275, Note_off_c, 0, 46, 64
2, 343276, Note_off_c, 0, 70, 64
2, 343278, Note_off_c, 0, 58, 64
2, 343285, Note_off_c, 0, 61, 64
2, 343384, Note_on_c, 0, 61, 49
2, 343388, Note_on_c, 0, 46, 44
2, 343388, Note_on_c, 0, 53, 34
2, 343391, Note_on_c, 0, 70, 26
2, 343408, Note_off_c, 0, 53, 64
2, 343412, Note_off_c, 0, 70, 64
2, 343413, Note_off_c, 0, 61, 64
2, 343421, Note_off_c, 0, 46, 64
2, 343432, Note_on_c, 0, 53, 44
2, 343432, Note_on_c, 0, 46, 35
2, 343435, Note_on_c, 0, 61, 49
2, 343437, Note_on_c, 0, 70, 49
2, 343439, Control_c, 0, 64, 0
2, 343464, Control_c, 0, 64, 127
2, 343470, Note_off_c, 0, 46, 64
2, 343471, Note_off_c, 0, 53, 64
2, 343488, Note_off_c, 0, 61, 64
2, 343498, Note_off_c, 0, 70, 64
2, 343652, Note_on_c, 0, 53, 40
2, 343655, Note_on_c, 0, 46, 47
2, 343655, Note_on_c, 0, 61, 50
2, 343658, Note_on_c, 0, 58, 47
2, 343659, Note_on_c, 0, 72, 54
2, 343814, Note_off_c, 0, 53, 64
2, 343817, Note_off_c, 0, 61, 64
2, 343817, Note_off_c, 0, 46, 64
2, 343820, Note_off_c, 0, 58, 64
2, 343821, Note_off_c, 0, 72, 64
2, 343836, Note_on_c, 0, 70, 41
2, 343840, Note_on_c, 0, 61, 17
2, 343869, Note_on_c, 0, 53, 43
2, 343869, Note_on_c, 0, 41, 40
2, 343871, Note_on_c, 0, 69, 44
2, 343871, Note_on_c, 0, 60, 51
2, 343890, Note_off_c, 0, 61, 64
2, 343890, Note_off_c, 0, 70, 64
2, 343911, Note_off_c, 0, 53, 64
2, 343914, Note_off_c, 0, 41, 64
2, 343928, Note_off_c, 0, 60, 64
2, 343932, Note_off_c, 0, 69, 64
2, 344039, Note_on_c, 0, 67, 42
2, 344040, Note_on_c, 0, 58, 49
2, 344040, Note_on_c, 0, 53, 44
2, 344040, Note_on_c, 0, 41, 42
2, 344070, Note_off_c, 0, 58, 64
2, 344073, Note_off_c, 0, 41, 64
2, 344077, Note_off_c, 0, 53, 64
2, 344088, Note_off_c, 0, 67, 64
2, 344097, Control_c, 0, 64, 0
2, 344104, Note_on_c, 0, 69, 47
2, 344104, Note_on_c, 0, 60, 52
2, 344104, Note_on_c, 0, 53, 34
2, 344110, Note_on_c, 0, 41, 37
2, 344139, Control_c, 0, 64, 127
2, 344169, Note_off_c, 0, 41, 64
2, 344176, Note_off_c, 0, 53, 64
2, 344184, Note_off_c, 0, 60, 64
2, 344184, Note_off_c, 0, 69, 64
2, 344320, Note_on_c, 0, 41, 50
2, 344320, Note_on_c, 0, 53, 49
2, 344320, Note_on_c, 0, 57, 54
2, 344320, Note_on_c, 0, 65, 56
2, 344322, Note_on_c, 0, 63, 52
2, 344336, Control_c, 0, 64, 0
2, 344353, Control_c, 0, 64, 127
2, 344482, Note_off_c, 0, 65, 64
2, 344482, Note_off_c, 0, 57, 64
2, 344482, Note_off_c, 0, 53, 64
2, 344482, Note_off_c, 0, 41, 64
2, 344484, Note_off_c, 0, 63, 64
2, 344548, Note_on_c, 0, 73, 58
2, 344548, Note_on_c, 0, 61, 54
2, 344548, Note_on_c, 0, 58, 48
2, 344548, Note_on_c, 0, 53, 49
2, 344548, Note_on_c, 0, 46, 42
2, 344555, Note_on_c, 0, 65, 57
2, 344568, Control_c, 0, 64, 0
2, 344584, Note_off_c, 0, 61, 64
2, 344584, Control_c, 0, 64, 127
2, 344592, Note_off_c, 0, 58, 64
2, 344593, Note_off_c, 0, 65, 64
2, 344599, Note_off_c, 0, 46, 64
2, 344602, Note_off_c, 0, 53, 64
2, 344612, Note_off_c, 0, 73, 64
2, 344712, Note_on_c, 0, 53, 52
2, 344713, Note_on_c, 0, 61, 63
2, 344713, Note_on_c, 0, 46, 57
2, 344718, Note_on_c, 0, 73, 58
2, 344718, Note_on_c, 0, 65, 56
2, 344735, Note_off_c, 0, 46, 64
2, 344736, Note_off_c, 0, 53, 64
2, 344740, Note_off_c, 0, 61, 64
2, 344744, Note_off_c, 0, 73, 64
2, 344745, Note_off_c, 0, 65, 64
2, 344761, Control_c, 0, 64, 0
2, 344764, Note_on_c, 0, 61, 51
2, 344764, Note_on_c, 0, 53, 49
2, 344768, Note_on_c, 0, 73, 62
2, 344768, Note_on_c, 0, 65, 58
2, 344768, Note_on_c, 0, 46, 58
2, 344784, Control_c, 0, 64, 127
2, 344796, Note_off_c, 0, 46, 64
2, 344809, Note_off_c, 0, 53, 64
2, 344810, Note_off_c, 0, 61, 64
2, 344816, Note_off_c, 0, 65, 64
2, 344832, Note_off_c, 0, 73, 64
2, 344972, Control_c, 0, 64, 0
2, 344976, Note_on_c, 0, 61, 56
2, 344980, Note_on_c, 0, 75, 62
2, 344980, Note_on_c, 0, 65, 63
2, 344980, Note_on_c, 0, 53, 55
2, 344980, Note_on_c, 0, 46, 56
2, 344998, Control_c, 0, 64, 127
2, 345138, Note_off_c, 0, 61, 64
2, 345142, Note_off_c, 0, 46, 64
2, 345142, Note_off_c, 0, 53, 64
2, 345142, Note_off_c, 0, 65, 64
2, 345142, Note_off_c, 0, 75, 64
2, 345148, Note_on_c, 0, 73, 49
2, 345180, Note_on_c, 0, 63, 46
2, 345183, Note_on_c, 0, 72, 57
2, 345184, Note_on_c, 0, 57, 58
2, 345184, Note_on_c, 0, 53, 51
2, 345187, Note_on_c, 0, 46, 50
2, 345214, Note_off_c, 0, 73, 64
2, 345219, Control_c, 0, 64, 0
2, 345229, Control_c, 0, 64, 127
2, 345230, Note_off_c, 0, 57, 64
2, 345233, Note_off_c, 0, 53, 64
2, 345236, Note_off_c, 0, 46, 64
2, 345249, Note_off_c, 0, 63, 64
2, 345252, Note_off_c, 0, 72, 64
2, 345350, Note_on_c, 0, 71, 52
2, 345356, Note_on_c, 0, 63, 58
2, 345358, Note_on_c, 0, 46, 56
2, 345360, Note_on_c, 0, 57, 58
2, 345360, Note_on_c, 0, 53, 54
2, 345384, Note_off_c, 0, 63, 64
2, 345386, Note_off_c, 0, 53, 64
2, 345386, Note_off_c, 0, 46, 64
2, 345389, Note_off_c, 0, 57, 64
2, 345404, Note_on_c, 0, 72, 58
2, 345407, Note_on_c, 0, 63, 56
2, 345408, Note_on_c, 0, 53, 51
2, 345412, Note_on_c, 0, 46, 52
2, 345415, Note_on_c, 0, 57, 57
2, 345425, Note_off_c, 0, 71, 64
2, 345426, Control_c, 0, 64, 0
2, 345440, Control_c, 0, 64, 127
2, 345465, Note_off_c, 0, 57, 64
2, 345468, Note_off_c, 0, 72, 64
2, 345470, Note_off_c, 0, 63, 64
2, 345471, Note_off_c, 0, 53, 64
2, 345475, Note_off_c, 0, 46, 64
2, 345644, Note_on_c, 0, 65, 67
2, 345644, Note_on_c, 0, 63, 63
2, 345644, Note_on_c, 0, 53, 54
2, 345644, Note_on_c, 0, 46, 50
2, 345647, Note_on_c, 0, 57, 50
2, 345656, Control_c, 0, 64, 0
2, 345689, Control_c, 0, 64, 127
2, 345806, Note_off_c, 0, 46, 64
2, 345806, Note_off_c, 0, 53, 64
2, 345806, Note_off_c, 0, 63, 64
2, 345806, Note_off_c, 0, 65, 64
2, 345809, Note_off_c, 0, 57, 64
2, 345851, Note_on_c, 0, 70, 55
2, 345851, Note_on_c, 0, 46, 50
2, 345852, Note_on_c, 0, 61, 58
2, 345852, Note_on_c, 0, 58, 47
2, 345852, Note_on_c, 0, 53, 39
2, 345871, Control_c, 0, 64, 0
2, 345894, Control_c, 0, 64, 127
2, 345895, Note_off_c, 0, 58, 64
2, 345911, Note_off_c, 0, 61, 64
2, 345911, Note_off_c, 0, 70, 64
2, 345916, Note_off_c, 0, 46, 64
2, 345917, Note_off_c, 0, 53, 64
2, 346012, Note_on_c, 0, 54, 62
2, 346013, Note_on_c, 0, 70, 58
2, 346017, Note_on_c, 0, 61, 64
2, 346020, Note_on_c, 0, 39, 64
2, 346040, Note_off_c, 0, 61, 64
2, 346042, Note_off_c, 0, 70, 64
2, 346045, Note_off_c, 0, 54, 64
2, 346047, Note_off_c, 0, 39, 64
2, 346065, Note_on_c, 0, 70, 58
2, 346067, Note_on_c, 0, 61, 62
2, 346068, Note_on_c, 0, 39, 58
2, 346072, Note_on_c, 0, 54, 58
2, 346086, Control_c, 0, 64, 0
2, 346099, Control_c, 0, 64, 127
2, 346114, Note_off_c, 0, 39, 64
2, 346125, Note_off_c, 0, 54, 64
2, 346132, Note_off_c, 0, 61, 64
2, 346144, Note_off_c, 0, 70, 64
2, 346288, Note_on_c, 0, 54, 66
2, 346292, Note_on_c, 0, 72, 67
2, 346292, Note_on_c, 0, 61, 73
2, 346292, Note_on_c, 0, 39, 65
2, 346308, Control_c, 0, 64, 0
2, 346319, Control_c, 0, 64, 127
2, 346450, Note_off_c, 0, 54, 64
2, 346454, Note_off_c, 0, 39, 64
2, 346454, Note_off_c, 0, 61, 64
2, 346454, Note_off_c, 0, 72, 64
2, 346476, Note_on_c, 0, 70, 56
2, 346512, Note_on_c, 0, 60, 42
2, 346513, Note_on_c, 0, 54, 66
2, 346516, Note_on_c, 0, 44, 58
2, 346516, Note_on_c, 0, 68, 54
2, 346524, Control_c, 0, 64, 0
2, 346541, Note_off_c, 0, 70, 64
2, 346545, Control_c, 0, 64, 127
2, 346622, Note_off_c, 0, 60, 64
2, 346623, Note_off_c, 0, 54, 64
2, 346626, Note_off_c, 0, 68, 64
2, 346626, Note_off_c, 0, 44, 64
2, 346686, Note_on_c, 0, 67, 54
2, 346692, Note_on_c, 0, 60, 54
2, 346692, Note_on_c, 0, 54, 57
2, 346692, Note_on_c, 0, 44, 55
2, 346719, Note_off_c, 0, 44, 64
2, 346719, Note_off_c, 0, 60, 64
2, 346726, Note_off_c, 0, 54, 64
2, 346745, Note_on_c, 0, 68, 78
2, 346748, Note_on_c, 0, 60, 65
2, 346753, Note_on_c, 0, 54, 65
2, 346756, Note_on_c, 0, 44, 65
2, 346762, Control_c, 0, 64, 0
2, 346768, Note_off_c, 0, 67, 64
2, 346778, Control_c, 0, 64, 127
2, 346799, Note_off_c, 0, 44, 64
2, 346803, Note_off_c, 0, 60, 64
2, 346807, Note_off_c, 0, 54, 64
2, 346836, Note_off_c, 0, 68, 64
2, 346972, Note_on_c, 0, 54, 62
2, 346973, Note_on_c, 0, 63, 71
2, 346976, Note_on_c, 0, 60, 70
2, 346980, Note_on_c, 0, 44, 64
2, 346983, Control_c, 0, 64, 0
2, 346996, Control_c, 0, 64, 127
2, 347134, Note_off_c, 0, 54, 64
2, 347135, Note_off_c, 0, 63, 64
2, 347138, Note_off_c, 0, 60, 64
2, 347142, Note_off_c, 0, 44, 64
2, 347204, Note_on_c, 0, 37, 72
2, 347204, Note_on_c, 0, 53, 71
2, 347204, Note_on_c, 0, 61, 72
2, 347206, Note_on_c, 0, 65, 72
2, 347225, Control_c, 0, 64, 0
2, 347264, Note_off_c, 0, 61, 64
2, 347264, Note_off_c, 0, 53, 64
2, 347264, Note_off_c, 0, 37, 64
2, 347264, Control_c, 0, 64, 127
2, 347275, Note_off_c, 0, 65, 64
2, 347389, Note_on_c, 0, 49, 56
2, 347390, Note_on_c, 0, 56, 64
2, 347394, Note_on_c, 0, 65, 54
2, 347394, Note_on_c, 0, 61, 58
2, 347415, Note_off_c, 0, 49, 64
2, 347420, Note_off_c, 0, 56, 64
2, 347426, Note_off_c, 0, 61, 64
2, 347426, Note_off_c, 0, 65, 64
2, 347444, Note_on_c, 0, 65, 54
2, 347448, Note_on_c, 0, 49, 59
2, 347451, Note_on_c, 0, 56, 64
2, 347452, Note_on_c, 0, 61, 64
2, 347460, Control_c, 0, 64, 0
2, 347474, Control_c, 0, 64, 127
2, 347647, Note_off_c, 0, 65, 64
2, 347651, Note_off_c, 0, 49, 64
2, 347654, Note_off_c, 0, 56, 64
2, 347655, Note_off_c, 0, 61, 64
2, 347673, Note_on_c, 0, 66, 72
2, 347676, Note_on_c, 0, 42, 64
2, 347678, Note_on_c, 0, 58, 73
2, 347694, Control_c, 0, 64, 0
2, 347716, Control_c, 0, 64, 127
2, 347835, Note_off_c, 0, 66, 64
2, 347838, Note_off_c, 0, 42, 64
2, 347840, Note_off_c, 0, 58, 64
2, 347851, Note_on_c, 0, 65, 48
2, 347884, Note_on_c, 0, 60, 52
2, 347884, Note_on_c, 0, 44, 55
2, 347888, Note_on_c, 0, 54, 59
2, 347891, Note_on_c, 0, 63, 71
2, 347916, Note_off_c, 0, 65, 64
2, 347920, Control_c, 0, 64, 0
2, 347945, Control_c, 0, 64, 127
2, 348013, Note_off_c, 0, 44, 64
2, 348013, Note_off_c, 0, 60, 64
2, 348017, Note_off_c, 0, 54, 64
2, 348020, Note_off_c, 0, 63, 64
2, 348056, Note_on_c, 0, 62, 50
2, 348056, Note_on_c, 0, 60, 43
2, 348060, Note_on_c, 0, 44, 55
2, 348065, Note_on_c, 0, 53, 62
2, 348100, Note_off_c, 0, 60, 64
2, 348104, Note_off_c, 0, 44, 64
2, 348115, Note_on_c, 0, 54, 64
2, 348115, Note_on_c, 0, 63, 62
2, 348116, Note_on_c, 0, 44, 55
2, 348116, Note_on_c, 0, 60, 43
2, 348122, Note_off_c, 0, 53, 64
2, 348122, Note_off_c, 0, 62, 64
2, 348128, Control_c, 0, 64, 0
2, 348163, Control_c, 0, 64, 127
2, 348217, Note_off_c, 0, 63, 64
2, 348217, Note_off_c, 0, 54, 64
2, 348218, Note_off_c, 0, 60, 64
2, 348218, Note_off_c, 0, 44, 64
2, 348336, Note_on_c, 0, 44, 56
2, 348338, Note_on_c, 0, 65, 58
2, 348340, Note_on_c, 0, 60, 58
2, 348345, Note_on_c, 0, 50, 57
2, 348359, Control_c, 0, 64, 0
2, 348381, Control_c, 0, 64, 127
2, 348498, Note_off_c, 0, 44, 64
2, 348500, Note_off_c, 0, 65, 64
2, 348502, Note_off_c, 0, 60, 64
2, 348507, Note_off_c, 0, 50, 64
2, 348515, Note_on_c, 0, 68, 54
2, 348548, Note_on_c, 0, 60, 43
2, 348550, Note_on_c, 0, 66, 63
2, 348552, Note_on_c, 0, 51, 65
2, 348552, Note_on_c, 0, 44, 57
2, 348564, Control_c, 0, 64, 0
2, 348579, Note_off_c, 0, 68, 64
2, 348598, Control_c, 0, 64, 127
2, 348668, Note_off_c, 0, 60, 64
2, 348670, Note_off_c, 0, 66, 64
2, 348672, Note_off_c, 0, 44, 64
2, 348672, Note_off_c, 0, 51, 64
2, 348716, Note_on_c, 0, 60, 48
2, 348719, Note_on_c, 0, 65, 52
2, 348720, Note_on_c, 0, 50, 57
2, 348720, Note_on_c, 0, 44, 59
2, 348760, Note_off_c, 0, 60, 64
2, 348764, Note_off_c, 0, 44, 64
2, 348765, Note_on_c, 0, 51, 71
2, 348765, Control_c, 0, 64, 0
2, 348773, Note_on_c, 0, 66, 63
2, 348776, Note_on_c, 0, 60, 48
2, 348776, Note_on_c, 0, 44, 59
2, 348786, Note_off_c, 0, 50, 64
2, 348803, Note_off_c, 0, 65, 64
2, 348806, Control_c, 0, 64, 127
2, 348820, Note_off_c, 0, 44, 64
2, 348820, Note_off_c, 0, 60, 64
2, 348826, Note_off_c, 0, 51, 64
2, 348842, Note_off_c, 0, 66, 64
2, 348989, Note_on_c, 0, 67, 65
2, 348992, Note_on_c, 0, 52, 58
2, 348993, Note_on_c, 0, 44, 64
2, 348993, Note_on_c, 0, 58, 72
2, 349007, Control_c, 0, 64, 0
2, 349038, Control_c, 0, 64, 127
2, 349144, Note_off_c, 0, 67, 64
2, 349154, Note_off_c, 0, 52, 64
2, 349155, Note_off_c, 0, 58, 64
2, 349210, Control_c, 0, 64, 0
2, 349212, Note_on_c, 0, 52, 56
2, 349216, Note_on_c, 0, 70, 58
2, 349216, Note_on_c, 0, 64, 58
2, 349216, Note_on_c, 0, 61, 62
2, 349216, Note_on_c, 0, 37, 62
2, 349243, Control_c, 0, 64, 127
2, 349251, Note_off_c, 0, 37, 64
2, 349255, Note_off_c, 0, 61, 64
2, 349257, Note_off_c, 0, 52, 64
2, 349259, Note_off_c, 0, 64, 64
2, 349279, Note_off_c, 0, 70, 64
2, 349287, Note_off_c, 0, 44, 64
2, 349392, Note_on_c, 0, 70, 51
2, 349392, Note_on_c, 0, 64, 51
2, 349395, Note_on_c, 0, 55, 58
2, 349395, Note_on_c, 0, 49, 62
2, 349421, Note_off_c, 0, 49, 64
2, 349421, Note_off_c, 0, 64, 64
2, 349421, Note_off_c, 0, 70, 64
2, 349424, Note_off_c, 0, 55, 64
2, 349442, Control_c, 0, 64, 0
2, 349448, Note_on_c, 0, 70, 51
2, 349448, Note_on_c, 0, 64, 51
2, 349448, Note_on_c, 0, 55, 58
2, 349452, Note_on_c, 0, 49, 62
2, 349471, Control_c, 0, 64, 127
2, 349608, Note_off_c, 0, 55, 64
2, 349608, Note_off_c, 0, 64, 64
2, 349608, Note_off_c, 0, 70, 64
2, 349612, Note_off_c, 0, 49, 64
2, 349684, Note_on_c, 0, 68, 56
2, 349684, Note_on_c, 0, 65, 56
2, 349684, Note_on_c, 0, 56, 54
2, 349690, Note_on_c, 0, 49, 49
2, 349696, Control_c, 0, 64, 0
2, 349716, Control_c, 0, 64, 127
2, 349846, Note_off_c, 0, 56, 64
2, 349846, Note_off_c, 0, 65, 64
2, 349846, Note_off_c, 0, 68, 64
2, 349852, Note_off_c, 0, 49, 64
2, 349922, Note_on_c, 0, 65, 58
2, 349924, Note_on_c, 0, 61, 58
2, 349925, Note_on_c, 0, 56, 51
2, 349925, Note_on_c, 0, 49, 54
2, 349932, Control_c, 0, 64, 0
2, 349948, Control_c, 0, 64, 127
2, 349969, Note_off_c, 0, 49, 64
2, 349974, Note_off_c, 0, 56, 64
2, 349976, Note_off_c, 0, 61, 64
2, 349976, Note_off_c, 0, 65, 64
2, 350084, Note_on_c, 0, 56, 64
2, 350084, Note_on_c, 0, 49, 63
2, 350085, Note_on_c, 0, 61, 58
2, 350087, Note_on_c, 0, 65, 57
2, 350108, Note_off_c, 0, 49, 64
2, 350110, Note_off_c, 0, 61, 64
2, 350117, Note_off_c, 0, 56, 64
2, 350120, Note_off_c, 0, 65, 64
2, 350132, Note_on_c, 0, 56, 51
2, 350136, Note_on_c, 0, 65, 62
2, 350136, Note_on_c, 0, 61, 63
2, 350136, Note_on_c, 0, 49, 56
2, 350152, Control_c, 0, 64, 0
2, 350177, Control_c, 0, 64, 127
2, 350328, Note_off_c, 0, 56, 64
2, 350332, Note_off_c, 0, 49, 64
2, 350332, Note_off_c, 0, 61, 64
2, 350332, Note_off_c, 0, 65, 64
2, 350343, Control_c, 0, 64, 0
2, 350356, Note_on_c, 0, 42, 66
2, 350360, Note_on_c, 0, 54, 58
2, 350360, Note_on_c, 0, 58, 67
2, 350362, Note_on_c, 0, 66, 67
2, 350407, Control_c, 0, 64, 127
2, 350518, Note_off_c, 0, 42, 64
2, 350522, Note_off_c, 0, 58, 64
2, 350522, Note_off_c, 0, 54, 64
2, 350524, Note_off_c, 0, 66, 64
2, 350544, Note_on_c, 0, 65, 48
2, 350567, Control_c, 0, 64, 0
2, 350572, Note_on_c, 0, 60, 43
2, 350572, Note_on_c, 0, 54, 58
2, 350574, Note_on_c, 0, 63, 64
2, 350582, Note_on_c, 0, 44, 55
2, 350610, Note_off_c, 0, 65, 64
2, 350617, Control_c, 0, 64, 127
2, 350693, Note_off_c, 0, 54, 64
2, 350693, Note_off_c, 0, 60, 64
2, 350695, Note_off_c, 0, 63, 64
2, 350703, Note_off_c, 0, 44, 64
2, 350744, Note_on_c, 0, 44, 55
2, 350749, Note_on_c, 0, 62, 46
2, 350750, Note_on_c, 0, 60, 46
2, 350753, Note_on_c, 0, 53, 58
2, 350779, Control_c, 0, 64, 0
2, 350788, Note_off_c, 0, 44, 64
2, 350794, Note_off_c, 0, 60, 64
2, 350796, Note_on_c, 0, 63, 58
2, 350800, Note_on_c, 0, 60, 46
2, 350800, Note_on_c, 0, 54, 62
2, 350804, Note_on_c, 0, 44, 55
2, 350814, Note_off_c, 0, 53, 64
2, 350821, Note_off_c, 0, 62, 64
2, 350829, Control_c, 0, 64, 127
2, 350844, Note_off_c, 0, 60, 64
2, 350848, Note_off_c, 0, 44, 64
2, 350851, Note_off_c, 0, 54, 64
2, 350861, Note_off_c, 0, 63, 64
2, 351010, Control_c, 0, 64, 0
2, 351024, Note_on_c, 0, 44, 59
2, 351028, Note_on_c, 0, 50, 63
2, 351028, Note_on_c, 0, 60, 63
2, 351028, Note_on_c, 0, 65, 66
2, 351064, Control_c, 0, 64, 127
2, 351193, Note_off_c, 0, 44, 64
2, 351197, Note_off_c, 0, 65, 64
2, 351197, Note_off_c, 0, 60, 64
2, 351197, Note_off_c, 0, 50, 64
2, 351232, Control_c, 0, 64, 0
2, 351241, Note_on_c, 0, 66, 58
2, 351241, Note_on_c, 0, 44, 52
2, 351247, Note_on_c, 0, 60, 54
2, 351247, Note_on_c, 0, 51, 58
2, 351275, Control_c, 0, 64, 127
2, 351291, Note_off_c, 0, 60, 64
2, 351296, Note_off_c, 0, 44, 64
2, 351303, Note_off_c, 0, 51, 64
2, 351313, Note_off_c, 0, 66, 64
2, 351412, Note_on_c, 0, 68, 52
2, 351412, Note_on_c, 0, 60, 58
2, 351412, Note_on_c, 0, 53, 54
2, 351412, Note_on_c, 0, 44, 51
2, 351435, Control_c, 0, 64, 0
2, 351447, Note_off_c, 0, 44, 64
2, 351449, Note_off_c, 0, 60, 64
2, 351457, Note_on_c, 0, 60, 58
2, 351460, Note_on_c, 0, 70, 62
2, 351460, Note_on_c, 0, 54, 62
2, 351460, Note_on_c, 0, 44, 59
2, 351469, Note_off_c, 0, 53, 64
2, 351480, Control_c, 0, 64, 127
2, 351486, Note_off_c, 0, 68, 64
2, 351586, Note_off_c, 0, 60, 64
2, 351589, Note_off_c, 0, 44, 64
2, 351589, Note_off_c, 0, 54, 64
2, 351589, Note_off_c, 0, 70, 64
2, 351676, Note_on_c, 0, 66, 66
2, 351676, Note_on_c, 0, 60, 56
2, 351676, Note_on_c, 0, 51, 66
2, 351676, Note_on_c, 0, 44, 66
2, 351679, Note_on_c, 0, 72, 71
2, 351699, Control_c, 0, 64, 0
2, 351723, Control_c, 0, 64, 127
2, 351838, Note_off_c, 0, 44, 64
2, 351838, Note_off_c, 0, 51, 64
2, 351838, Note_off_c, 0, 60, 64
2, 351838, Note_off_c, 0, 66, 64
2, 351841, Note_off_c, 0, 72, 64
2, 351915, Control_c, 0, 64, 0
2, 351920, Note_on_c, 0, 75, 58
2, 351920, Note_on_c, 0, 66, 58
2, 351920, Note_on_c, 0, 60, 48
2, 351920, Note_on_c, 0, 56, 51
2, 351920, Note_on_c, 0, 49, 49
2, 351949, Control_c, 0, 64, 127
2, 351964, Note_off_c, 0, 56, 64
2, 351964, Note_off_c, 0, 66, 64
2, 351965, Note_off_c, 0, 60, 64
2, 351966, Note_off_c, 0, 49, 64
2, 351979, Note_off_c, 0, 75, 64
2, 352079, Note_on_c, 0, 75, 58
2, 352079, Note_on_c, 0, 66, 62
2, 352080, Note_on_c, 0, 60, 58
2, 352080, Note_on_c, 0, 56, 62
2, 352080, Note_on_c, 0, 49, 48
2, 352104, Note_off_c, 0, 75, 64
2, 352105, Note_off_c, 0, 66, 64
2, 352106, Note_off_c, 0, 49, 64
2, 352106, Note_off_c, 0, 60, 64
2, 352108, Note_off_c, 0, 56, 64
2, 352125, Control_c, 0, 64, 0
2, 352131, Note_on_c, 0, 66, 62
2, 352131, Note_on_c, 0, 75, 63
2, 352132, Note_on_c, 0, 49, 49
2, 352132, Note_on_c, 0, 56, 52
2, 352132, Note_on_c, 0, 60, 58
2, 352170, Control_c, 0, 64, 127
2, 352343, Note_off_c, 0, 75, 64
2, 352343, Note_off_c, 0, 66, 64
2, 352344, Note_off_c, 0, 60, 64
2, 352344, Note_off_c, 0, 56, 64
2, 352344, Note_off_c, 0, 49, 64
2, 352367, Note_on_c, 0, 73, 59
2, 352368, Note_on_c, 0, 65, 56
2, 352368, Note_on_c, 0, 61, 52
2, 352368, Note_on_c, 0, 56, 48
2, 352368, Note_on_c, 0, 49, 52
2, 352395, Control_c, 0, 64, 0
2, 352416, Control_c, 0, 64, 127
2, 352529, Note_off_c, 0, 73, 64
2, 352530, Note_off_c, 0, 49, 64
2, 352530, Note_off_c, 0, 56, 64
2, 352530, Note_off_c, 0, 61, 64
2, 352530, Note_off_c, 0, 65, 64
2, 352624, Note_on_c, 0, 73, 33
2, 352624, Note_on_c, 0, 65, 32
2, 352624, Note_on_c, 0, 61, 24
2, 352624, Note_on_c, 0, 53, 24
2, 352625, Note_on_c, 0, 46, 39
2, 352626, Control_c, 0, 64, 0
2, 352671, Control_c, 0, 64, 127
2, 352686, Note_off_c, 0, 65, 64
2, 352689, Note_off_c, 0, 73, 64
2, 352699, Note_off_c, 0, 53, 64
2, 352702, Note_off_c, 0, 61, 64
2, 352712, Note_off_c, 0, 46, 64
2, 352792, Note_on_c, 0, 73, 39
2, 352792, Note_on_c, 0, 65, 36
2, 352792, Note_on_c, 0, 61, 41
2, 352792, Note_on_c, 0, 53, 33
2, 352792, Note_on_c, 0, 46, 36
2, 352810, Note_off_c, 0, 46, 64
2, 352813, Note_off_c, 0, 73, 64
2, 352817, Note_off_c, 0, 53, 64
2, 352823, Note_off_c, 0, 65, 64
2, 352826, Note_off_c, 0, 61, 64
2, 352836, Note_on_c, 0, 53, 42
2, 352840, Note_on_c, 0, 61, 35
2, 352840, Note_on_c, 0, 46, 27
2, 352842, Note_on_c, 0, 73, 44
2, 352842, Note_on_c, 0, 65, 42
2, 352861, Control_c, 0, 64, 0
2, 352874, Control_c, 0, 64, 127
2, 352909, Note_off_c, 0, 53, 64
2, 352913, Note_off_c, 0, 46, 64
2, 352913, Note_off_c, 0, 61, 64
2, 352915, Note_off_c, 0, 65, 64
2, 352915, Note_off_c, 0, 73, 64
2, 353064, Control_c, 0, 64, 0
2, 353068, Note_on_c, 0, 65, 46
2, 353072, Note_on_c, 0, 61, 41
2, 353072, Note_on_c, 0, 53, 41
2, 353072, Note_on_c, 0, 46, 41
2, 353074, Note_on_c, 0, 75, 52
2, 353098, Control_c, 0, 64, 127
2, 353230, Note_off_c, 0, 65, 64
2, 353234, Note_off_c, 0, 46, 64
2, 353234, Note_off_c, 0, 53, 64
2, 353234, Note_off_c, 0, 61, 64
2, 353236, Note_off_c, 0, 75, 64
2, 353241, Note_on_c, 0, 73, 33
2, 353279, Note_on_c, 0, 72, 47
2, 353280, Note_on_c, 0, 63, 33
2, 353280, Note_on_c, 0, 57, 42
2, 353280, Note_on_c, 0, 53, 41
2, 353280, Note_on_c, 0, 46, 37
2, 353293, Note_off_c, 0, 73, 64
2, 353313, Control_c, 0, 64, 0
2, 353343, Control_c, 0, 64, 127
2, 353364, Note_off_c, 0, 72, 64
2, 353365, Note_off_c, 0, 46, 64
2, 353365, Note_off_c, 0, 53, 64
2, 353365, Note_off_c, 0, 57, 64
2, 353365, Note_off_c, 0, 63, 64
2, 353458, Note_on_c, 0, 71, 42
2, 353460, Note_on_c, 0, 63, 37
2, 353463, Note_on_c, 0, 46, 43
2, 353464, Note_on_c, 0, 57, 46
2, 353466, Note_on_c, 0, 53, 46
2, 353485, Note_off_c, 0, 57, 64
2, 353490, Note_off_c, 0, 63, 64
2, 353492, Note_off_c, 0, 53, 64
2, 353496, Note_off_c, 0, 46, 64
2, 353504, Note_on_c, 0, 46, 41
2, 353507, Note_on_c, 0, 72, 46
2, 353507, Note_on_c, 0, 63, 42
2, 353508, Note_on_c, 0, 57, 42
2, 353508, Note_on_c, 0, 53, 41
2, 353516, Note_off_c, 0, 71, 64
2, 353524, Control_c, 0, 64, 0
2, 353543, Control_c, 0, 64, 127
2, 353582, Note_off_c, 0, 46, 64
2, 353585, Note_off_c, 0, 63, 64
2, 353585, Note_off_c, 0, 72, 64
2, 353586, Note_off_c, 0, 53, 64
2, 353586, Note_off_c, 0, 57, 64
2, 353744, Note_on_c, 0, 63, 41
2, 353748, Note_on_c, 0, 57, 36
2, 353748, Note_on_c, 0, 53, 37
2, 353751, Note_on_c, 0, 65, 49
2, 353751, Note_on_c, 0, 46, 23
2, 353771, Control_c, 0, 64, 0
2, 353804, Control_c, 0, 64, 127
2, 353906, Note_off_c, 0, 63, 64
2, 353910, Note_off_c, 0, 53, 64
2, 353910, Note_off_c, 0, 57, 64
2, 353913, Note_off_c, 0, 46, 64
2, 353913, Note_off_c, 0, 65, 64
2, 353984, Note_on_c, 0, 70, 40
2, 353984, Control_c, 0, 64, 0
2, 353988, Note_on_c, 0, 61, 46
2, 353988, Note_on_c, 0, 58, 33
2, 353988, Note_on_c, 0, 46, 36
2, 353991, Note_on_c, 0, 53, 35
2, 354014, Control_c, 0, 64, 127
2, 354037, Note_off_c, 0, 46, 64
2, 354037, Note_off_c, 0, 58, 64
2, 354037, Note_off_c, 0, 70, 64
2, 354043, Note_off_c, 0, 61, 64
2, 354044, Note_off_c, 0, 53, 64
2, 354148, Note_on_c, 0, 61, 49
2, 354148, Note_on_c, 0, 46, 49
2, 354150, Note_on_c, 0, 70, 34
2, 354152, Note_on_c, 0, 53, 46
2, 354171, Note_off_c, 0, 46, 64
2, 354173, Note_off_c, 0, 70, 64
2, 354173, Note_off_c, 0, 61, 64
2, 354175, Note_off_c, 0, 53, 64
2, 354200, Note_on_c, 0, 61, 49
2, 354203, Note_on_c, 0, 70, 49
2, 354203, Control_c, 0, 64, 0
2, 354204, Note_on_c, 0, 46, 42
2, 354204, Note_on_c, 0, 53, 43
2, 354236, Control_c, 0, 64, 127
2, 354278, Note_off_c, 0, 61, 64
2, 354281, Note_off_c, 0, 70, 64
2, 354282, Note_off_c, 0, 53, 64
2, 354282, Note_off_c, 0, 46, 64
2, 354416, Note_on_c, 0, 53, 39
2, 354416, Control_c, 0, 64, 0
2, 354420, Note_on_c, 0, 58, 40
2, 354420, Note_on_c, 0, 46, 42
2, 354422, Note_on_c, 0, 72, 47
2, 354422, Note_on_c, 0, 61, 47
2, 354440, Control_c, 0, 64, 127
2, 354524, Control_c, 0, 64, 0
2, 354548, Control_c, 0, 64, 127
2, 354569, Note_off_c, 0, 53, 64
2, 354573, Note_off_c, 0, 46, 64
2, 354573, Note_off_c, 0, 58, 64
2, 354575, Note_off_c, 0, 61, 64
2, 354575, Note_off_c, 0, 72, 64
2, 354600, Note_on_c, 0, 70, 41
2, 354600, Note_on_c, 0, 61, 41
2, 354632, Note_on_c, 0, 53, 46
2, 354635, Note_on_c, 0, 60, 47
2, 354636, Note_on_c, 0, 41, 46
2, 354639, Note_on_c, 0, 69, 41
2, 354667, Control_c, 0, 64, 0
2, 354671, Note_off_c, 0, 61, 64
2, 354671, Note_off_c, 0, 70, 64
2, 354680, Control_c, 0, 64, 127
2, 354761, Note_off_c, 0, 53, 64
2, 354764, Note_off_c, 0, 60, 64
2, 354765, Note_off_c, 0, 41, 64
2, 354768, Note_off_c, 0, 69, 64
2, 354804, Note_on_c, 0, 41, 46
2, 354808, Note_on_c, 0, 67, 39
2, 354808, Note_on_c, 0, 58, 50
2, 354808, Note_on_c, 0, 53, 46
2, 354829, Note_off_c, 0, 41, 64
2, 354833, Note_off_c, 0, 53, 64
2, 354835, Note_off_c, 0, 58, 64
2, 354851, Note_off_c, 0, 67, 64
2, 354860, Note_on_c, 0, 41, 26
2, 354867, Note_on_c, 0, 60, 46
2, 354867, Note_on_c, 0, 69, 44
2, 354871, Note_on_c, 0, 53, 41
2, 354876, Control_c, 0, 64, 0
2, 354890, Control_c, 0, 64, 127
2, 354938, Note_off_c, 0, 41, 64
2, 354945, Note_off_c, 0, 69, 64
2, 354945, Note_off_c, 0, 60, 64
2, 354949, Note_off_c, 0, 53, 64
2, 355088, Note_on_c, 0, 57, 52
2, 355090, Note_on_c, 0, 65, 52
2, 355091, Note_on_c, 0, 63, 52
2, 355092, Note_on_c, 0, 53, 48
2, 355096, Note_on_c, 0, 41, 47
2, 355111, Control_c, 0, 64, 0
2, 355134, Control_c, 0, 64, 127
2, 355250, Note_off_c, 0, 57, 64
2, 355252, Note_off_c, 0, 65, 64
2, 355253, Note_off_c, 0, 63, 64
2, 355254, Note_off_c, 0, 53, 64
2, 355258, Note_off_c, 0, 41, 64
2, 355320, Note_on_c, 0, 65, 57
2, 355320, Note_on_c, 0, 61, 56
2, 355322, Note_on_c, 0, 46, 54
2, 355324, Note_on_c, 0, 53, 51
2, 355325, Note_on_c, 0, 73, 58
2, 355345, Control_c, 0, 64, 0
2, 355371, Control_c, 0, 64, 127
2, 355387, Note_off_c, 0, 61, 64
2, 355387, Note_off_c, 0, 65, 64
2, 355389, Note_off_c, 0, 46, 64
2, 355391, Note_off_c, 0, 53, 64
2, 355392, Note_off_c, 0, 73, 64
2, 355481, Note_on_c, 0, 58, 59
2, 355482, Note_on_c, 0, 46, 59
2, 355484, Note_on_c, 0, 73, 62
2, 355484, Note_on_c, 0, 65, 49
2, 355484, Note_on_c, 0, 53, 33
2, 355490, Note_off_c, 0, 73, 64
2, 355498, Note_off_c, 0, 53, 64
2, 355500, Note_off_c, 0, 65, 64
2, 355510, Note_off_c, 0, 58, 64
2, 355512, Note_off_c, 0, 46, 64
2, 355526, Control_c, 0, 64, 0
2, 355534, Note_on_c, 0, 65, 62
2, 355536, Note_on_c, 0, 73, 63
2, 355536, Note_on_c, 0, 58, 58
2, 355536, Note_on_c, 0, 53, 46
2, 355540, Note_on_c, 0, 46, 51
2, 355564, Control_c, 0, 64, 127
2, 355663, Note_off_c, 0, 65, 64
2, 355665, Note_off_c, 0, 53, 64
2, 355665, Note_off_c, 0, 58, 64
2, 355665, Note_off_c, 0, 73, 64
2, 355669, Note_off_c, 0, 46, 64
2, 355760, Note_on_c, 0, 46, 58
2, 355760, Note_on_c, 0, 75, 73
2, 355764, Note_on_c, 0, 53, 63
2, 355764, Note_on_c, 0, 61, 66
2, 355767, Note_on_c, 0, 65, 71
2, 355771, Control_c, 0, 64, 0
2, 355790, Control_c, 0, 64, 127
2, 355922, Note_off_c, 0, 75, 64
2, 355922, Note_off_c, 0, 46, 64
2, 355926, Note_off_c, 0, 61, 64
2, 355926, Note_off_c, 0, 53, 64
2, 355929, Note_off_c, 0, 65, 64
2, 355932, Note_on_c, 0, 73, 48
2, 355960, Note_on_c, 0, 63, 51
2, 355964, Note_on_c, 0, 72, 55
2, 355964, Note_on_c, 0, 57, 59
2, 355964, Note_on_c, 0, 53, 52
2, 355964, Note_on_c, 0, 46, 48
2, 355999, Note_off_c, 0, 73, 64
2, 356001, Control_c, 0, 64, 0
2, 356026, Control_c, 0, 64, 127
2, 356038, Note_off_c, 0, 72, 64
2, 356044, Note_off_c, 0, 63, 64
2, 356048, Note_off_c, 0, 46, 64
2, 356048, Note_off_c, 0, 53, 64
2, 356048, Note_off_c, 0, 57, 64
2, 356120, Note_on_c, 0, 57, 59
2, 356122, Note_on_c, 0, 71, 58
2, 356124, Note_on_c, 0, 63, 57
2, 356124, Note_on_c, 0, 53, 62
2, 356124, Note_on_c, 0, 46, 62
2, 356143, Note_off_c, 0, 57, 64
2, 356147, Note_off_c, 0, 46, 64
2, 356148, Note_off_c, 0, 53, 64
2, 356151, Note_off_c, 0, 63, 64
2, 356168, Note_on_c, 0, 57, 58
2, 356168, Note_on_c, 0, 53, 58
2, 356170, Note_off_c, 0, 71, 64
2, 356172, Note_on_c, 0, 63, 62
2, 356174, Note_on_c, 0, 72, 64
2, 356176, Note_on_c, 0, 46, 54
2, 356193, Control_c, 0, 64, 0
2, 356219, Control_c, 0, 64, 127
2, 356232, Note_off_c, 0, 53, 64
2, 356232, Note_off_c, 0, 57, 64
2, 356235, Note_off_c, 0, 63, 64
2, 356238, Note_off_c, 0, 72, 64
2, 356240, Note_off_c, 0, 46, 64
2, 356404, Note_on_c, 0, 65, 67
2, 356406, Note_on_c, 0, 63, 65
2, 356408, Note_on_c, 0, 57, 54
2, 356408, Note_on_c, 0, 53, 57
2, 356411, Note_on_c, 0, 46, 58
2, 356426, Control_c, 0, 64, 0
2, 356451, Control_c, 0, 64, 127
2, 356566, Note_off_c, 0, 65, 64
2, 356568, Note_off_c, 0, 63, 64
2, 356570, Note_off_c, 0, 53, 64
2, 356570, Note_off_c, 0, 57, 64
2, 356573, Note_off_c, 0, 46, 64
2, 356636, Note_on_c, 0, 61, 54
2, 356636, Note_on_c, 0, 53, 54
2, 356638, Note_on_c, 0, 46, 54
2, 356640, Note_on_c, 0, 70, 58
2, 356640, Note_on_c, 0, 58, 54
2, 356655, Control_c, 0, 64, 0
2, 356670, Control_c, 0, 64, 127
2, 356695, Note_off_c, 0, 53, 64
2, 356695, Note_off_c, 0, 61, 64
2, 356697, Note_off_c, 0, 46, 64
2, 356699, Note_off_c, 0, 58, 64
2, 356700, Note_off_c, 0, 70, 64
2, 356808, Note_on_c, 0, 39, 63
2, 356811, Note_on_c, 0, 70, 58
2, 356812, Note_on_c, 0, 54, 65
2, 356812, Note_on_c, 0, 61, 64
2, 356835, Note_off_c, 0, 61, 64
2, 356836, Note_off_c, 0, 39, 64
2, 356841, Note_off_c, 0, 54, 64
2, 356841, Note_off_c, 0, 70, 64
2, 356856, Note_on_c, 0, 61, 63
2, 356856, Note_on_c, 0, 54, 62
2, 356860, Note_on_c, 0, 39, 57
2, 356863, Note_on_c, 0, 70, 62
2, 356875, Control_c, 0, 64, 0
2, 356909, Control_c, 0, 64, 127
2, 356930, Note_off_c, 0, 54, 64
2, 356930, Note_off_c, 0, 61, 64
2, 356934, Note_off_c, 0, 39, 64
2, 356937, Note_off_c, 0, 70, 64
2, 357076, Note_on_c, 0, 39, 66
2, 357076, Note_on_c, 0, 54, 62
2, 357076, Note_on_c, 0, 61, 73
2, 357083, Note_on_c, 0, 72, 67
2, 357093, Control_c, 0, 64, 0
2, 357108, Control_c, 0, 64, 127
2, 357238, Note_off_c, 0, 61, 64
2, 357238, Note_off_c, 0, 54, 64
2, 357238, Note_off_c, 0, 39, 64
2, 357245, Note_off_c, 0, 72, 64
2, 357251, Note_on_c, 0, 70, 49
2, 357288, Note_on_c, 0, 61, 46
2, 357288, Note_on_c, 0, 54, 62
2, 357288, Note_on_c, 0, 44, 55
2, 357289, Note_on_c, 0, 68, 57
2, 357315, Note_off_c, 0, 70, 64
2, 357320, Control_c, 0, 64, 0
2, 357334, Control_c, 0, 64, 127
2, 357379, Note_off_c, 0, 44, 64
2, 357379, Note_off_c, 0, 54, 64
2, 357379, Note_off_c, 0, 61, 64
2, 357380, Note_off_c, 0, 68, 64
2, 357472, Note_on_c, 0, 67, 55
2, 357472, Note_on_c, 0, 60, 51
2, 357475, Note_on_c, 0, 54, 65
2, 357476, Note_on_c, 0, 44, 58
2, 357498, Note_off_c, 0, 60, 64
2, 357500, Note_off_c, 0, 44, 64
2, 357508, Note_off_c, 0, 54, 64
2, 357512, Note_off_c, 0, 67, 64
2, 357516, Note_on_c, 0, 68, 70
2, 357516, Note_on_c, 0, 60, 58
2, 357516, Note_on_c, 0, 54, 57
2, 357516, Note_on_c, 0, 44, 58
2, 357536, Control_c, 0, 64, 0
2, 357547, Control_c, 0, 64, 127
2, 357621, Note_off_c, 0, 44, 64
2, 357621, Note_off_c, 0, 54, 64
2, 357621, Note_off_c, 0, 60, 64
2, 357621, Note_off_c, 0, 68, 64
2, 357752, Note_on_c, 0, 60, 67
2, 357755, Note_on_c, 0, 63, 71
2, 357756, Note_on_c, 0, 44, 66
2, 357756, Note_on_c, 0, 54, 66
2, 357767, Control_c, 0, 64, 0
2, 357786, Control_c, 0, 64, 127
2, 357914, Note_off_c, 0, 60, 64
2, 357917, Note_off_c, 0, 63, 64
2, 357918, Note_off_c, 0, 54, 64
2, 357918, Note_off_c, 0, 44, 64
2, 357990, Note_on_c, 0, 65, 83
2, 357994, Note_on_c, 0, 61, 74
2, 357994, Note_on_c, 0, 53, 81
2, 357994, Note_on_c, 0, 37, 83
2, 358014, Control_c, 0, 64, 0
2, 358026, Control_c, 0, 64, 127
2, 358050, Note_off_c, 0, 61, 64
2, 358059, Note_off_c, 0, 65, 64
2, 358063, Note_off_c, 0, 37, 64
2, 358063, Note_off_c, 0, 53, 64
2, 358212, Note_on_c, 0, 65, 54
2, 358216, Note_on_c, 0, 56, 71
2, 358216, Note_on_c, 0, 49, 63
2, 358218, Note_on_c, 0, 61, 63
2, 358245, Note_off_c, 0, 61, 64
2, 358245, Note_off_c, 0, 49, 64
2, 358245, Note_off_c, 0, 56, 64
2, 358254, Note_off_c, 0, 65, 64
2, 358261, Control_c, 0, 64, 0
2, 358264, Note_on_c, 0, 61, 65
2, 358264, Note_on_c, 0, 56, 64
2, 358264, Note_on_c, 0, 49, 62
2, 358266, Note_on_c, 0, 65, 62
2, 358291, Control_c, 0, 64, 127
2, 358383, Note_off_c, 0, 49, 64
2, 358383, Note_off_c, 0, 56, 64
2, 358383, Note_off_c, 0, 61, 64
2, 358385, Note_off_c, 0, 65, 64
2, 358500, Note_on_c, 0, 66, 71
2, 358504, Note_on_c, 0, 42, 66
2, 358505, Note_on_c, 0, 58, 67
2, 358522, Control_c, 0, 64, 0
2, 358535, Control_c, 0, 64, 127
2, 358662, Note_off_c, 0, 66, 64
2, 358666, Note_off_c, 0, 42, 64
2, 358667, Note_off_c, 0, 58, 64
2, 358701, Note_on_c, 0, 65, 48
2, 358732, Note_on_c, 0, 44, 54
2, 358732, Note_on_c, 0, 60, 39
2, 358733, Note_on_c, 0, 63, 62
2, 358736, Note_on_c, 0, 54, 62
2, 358750, Control_c, 0, 64, 0
2, 358762, Note_off_c, 0, 65, 64
2, 358777, Control_c, 0, 64, 127
2, 358853, Note_off_c, 0, 60, 64
2, 358853, Note_off_c, 0, 44, 64
2, 358854, Note_off_c, 0, 63, 64
2, 358857, Note_off_c, 0, 54, 64
2, 358924, Note_on_c, 0, 44, 57
2, 358928, Note_on_c, 0, 60, 44
2, 358928, Note_on_c, 0, 53, 57
2, 358930, Note_on_c, 0, 62, 50
2, 358968, Note_off_c, 0, 44, 64
2, 358972, Note_off_c, 0, 60, 64
2, 358976, Note_on_c, 0, 44, 57
2, 358976, Note_on_c, 0, 60, 44
2, 358980, Note_on_c, 0, 63, 65
2, 358982, Note_on_c, 0, 54, 62
2, 358994, Note_off_c, 0, 53, 64
2, 358995, Control_c, 0, 64, 0
2, 359000, Note_off_c, 0, 62, 64
2, 359020, Control_c, 0, 64, 127
2, 359082, Note_off_c, 0, 60, 64
2, 359082, Note_off_c, 0, 44, 64
2, 359086, Note_off_c, 0, 63, 64
2, 359088, Note_off_c, 0, 54, 64
2, 359216, Note_on_c, 0, 50, 66
2, 359216, Note_on_c, 0, 44, 67
2, 359217, Note_on_c, 0, 65, 67
2, 359217, Note_on_c, 0, 60, 66
2, 359230, Control_c, 0, 64, 0
2, 359260, Control_c, 0, 64, 127
2, 359378, Note_off_c, 0, 44, 64
2, 359378, Note_off_c, 0, 50, 64
2, 359379, Note_off_c, 0, 60, 64
2, 359379, Note_off_c, 0, 65, 64
2, 359426, Note_on_c, 0, 68, 56
2, 359442, Control_c, 0, 64, 0
2, 359458, Note_on_c, 0, 66, 62
2, 359460, Note_on_c, 0, 60, 46
2, 359460, Note_on_c, 0, 51, 70
2, 359460, Note_on_c, 0, 44, 57
2, 359489, Note_off_c, 0, 68, 64
2, 359495, Control_c, 0, 64, 127
2, 359519, Note_off_c, 0, 51, 64
2, 359521, Note_off_c, 0, 44, 64
2, 359524, Note_off_c, 0, 66, 64
2, 359588, Note_off_c, 0, 60, 64
2, 359632, Note_on_c, 0, 44, 62
2, 359634, Note_on_c, 0, 50, 58
2, 359641, Note_on_c, 0, 65, 56
2, 359642, Note_on_c, 0, 60, 50
2, 359672, Control_c, 0, 64, 0
2, 359676, Note_off_c, 0, 44, 64
2, 359686, Note_off_c, 0, 60, 64
2, 359692, Note_on_c, 0, 44, 62
2, 359692, Note_on_c, 0, 66, 63
2, 359696, Note_on_c, 0, 51, 73
2, 359696, Note_on_c, 0, 60, 50
2, 359708, Note_off_c, 0, 50, 64
2, 359721, Note_off_c, 0, 65, 64
2, 359724, Control_c, 0, 64, 127
2, 359736, Note_off_c, 0, 44, 64
2, 359740, Note_off_c, 0, 60, 64
2, 359751, Note_off_c, 0, 51, 64
2, 359768, Note_off_c, 0, 66, 64
2, 359928, Note_on_c, 0, 44, 65
2, 359928, Note_on_c, 0, 52, 65
2, 359928, Note_on_c, 0, 58, 66
2, 359930, Note_on_c, 0, 67, 65
2, 359942, Control_c, 0, 64, 0
2, 359967, Control_c, 0, 64, 127
2, 360075, Note_off_c, 0, 58, 64
2, 360075, Note_off_c, 0, 52, 64
2, 360077, Note_off_c, 0, 67, 64
2, 360160, Control_c, 0, 64, 0
2, 360172, Note_on_c, 0, 70, 57
2, 360172, Note_on_c, 0, 61, 58
2, 360172, Note_on_c, 0, 37, 58
2, 360177, Note_on_c, 0, 64, 57
2, 360177, Note_on_c, 0, 52, 56
2, 360195, Note_off_c, 0, 44, 64
2, 360204, Control_c, 0, 64, 127
2, 360240, Note_off_c, 0, 37, 64
2, 360240, Note_off_c, 0, 61, 64
2, 360240, Note_off_c, 0, 70, 64
2, 360245, Note_off_c, 0, 52, 64
2, 360245, Note_off_c, 0, 64, 64
2, 360372, Note_on_c, 0, 70, 58
2, 360373, Note_on_c, 0, 64, 57
2, 360373, Note_on_c, 0, 55, 57
2, 360373, Note_on_c, 0, 49, 59
2, 360394, Note_off_c, 0, 70, 64
2, 360396, Note_off_c, 0, 49, 64
2, 360401, Note_off_c, 0, 64, 64
2, 360405, Note_off_c, 0, 55, 64
2, 360417, Control_c, 0, 64, 0
2, 360425, Note_on_c, 0, 55, 50
2, 360427, Note_on_c, 0, 70, 62
2, 360428, Note_on_c, 0, 64, 67
2, 360433, Note_on_c, 0, 49, 62
2, 360448, Control_c, 0, 64, 127
2, 360605, Note_off_c, 0, 55, 64
2, 360607, Note_off_c, 0, 70, 64
2, 360608, Note_off_c, 0, 64, 64
2, 360613, Note_off_c, 0, 49, 64
2, 360684, Note_on_c, 0, 65, 65
2, 360689, Note_on_c, 0, 68, 66
2, 360691, Note_on_c, 0, 49, 64
2, 360692, Note_on_c, 0, 56, 62
2, 360707, Control_c, 0, 64, 0
2, 360752, Control_c, 0, 64, 127
2, 360846, Note_off_c, 0, 65, 64
2, 360851, Note_off_c, 0, 68, 64
2, 360853, Note_off_c, 0, 49, 64
2, 360854, Note_off_c, 0, 56, 64
2, 360980, Control_c, 0, 64, 0
2, 360984, Note_on_c, 0, 56, 48
2, 360984, Note_on_c, 0, 49, 52
2, 360987, Note_on_c, 0, 65, 59
2, 360987, Note_on_c, 0, 61, 59
2, 361024, Control_c, 0, 64, 127
2, 361051, Note_off_c, 0, 49, 64
2, 361059, Note_off_c, 0, 56, 64
2, 361062, Note_off_c, 0, 61, 64
2, 361062, Note_off_c, 0, 65, 64
2, 361172, Note_on_c, 0, 65, 54
2, 361176, Note_on_c, 0, 49, 52
2, 361177, Note_on_c, 0, 61, 52
2, 361177, Note_on_c, 0, 56, 62
2, 361196, Note_off_c, 0, 49, 64
2, 361198, Note_off_c, 0, 61, 64
2, 361207, Note_off_c, 0, 65, 64
2, 361210, Note_off_c, 0, 56, 64
2, 361221, Control_c, 0, 64, 0
2, 361228, Note_on_c, 0, 49, 57
2, 361229, Note_on_c, 0, 65, 62
2, 361229, Note_on_c, 0, 61, 64
2, 361234, Note_on_c, 0, 56, 52
2, 361255, Control_c, 0, 64, 127
2, 361418, Note_off_c, 0, 49, 64
2, 361419, Note_off_c, 0, 61, 64
2, 361419, Note_off_c, 0, 65, 64
2, 361424, Note_off_c, 0, 56, 64
2, 361460, Note_on_c, 0, 66, 71
2, 361463, Control_c, 0, 64, 0
2, 361464, Note_on_c, 0, 58, 71
2, 361464, Note_on_c, 0, 42, 62
2, 361507, Control_c, 0, 64, 127
2, 361622, Note_off_c, 0, 66, 64
2, 361626, Note_off_c, 0, 42, 64
2, 361626, Note_off_c, 0, 58, 64
2, 361655, Note_on_c, 0, 65, 57
2, 361694, Note_on_c, 0, 63, 67
2, 361694, Note_on_c, 0, 44, 58
2, 361696, Note_on_c, 0, 60, 50
2, 361696, Note_on_c, 0, 54, 64
2, 361701, Control_c, 0, 64, 0
2, 361725, Note_off_c, 0, 65, 64
2, 361737, Control_c, 0, 64, 127
2, 361756, Note_off_c, 0, 63, 64
2, 361758, Note_off_c, 0, 60, 64
2, 361759, Note_off_c, 0, 44, 64
2, 361771, Note_off_c, 0, 54, 64
2, 361872, Note_on_c, 0, 60, 49
2, 361872, Note_on_c, 0, 44, 58
2, 361875, Note_on_c, 0, 53, 62
2, 361877, Note_on_c, 0, 62, 50
2, 361916, Note_off_c, 0, 44, 64
2, 361916, Note_off_c, 0, 60, 64
2, 361916, Control_c, 0, 64, 0
2, 361923, Note_on_c, 0, 63, 63
2, 361924, Note_on_c, 0, 60, 49
2, 361928, Note_on_c, 0, 54, 65
2, 361928, Note_on_c, 0, 44, 59
2, 361944, Note_off_c, 0, 53, 64
2, 361946, Note_off_c, 0, 62, 64
2, 361955, Control_c, 0, 64, 127
2, 361968, Note_off_c, 0, 60, 64
2, 361972, Note_off_c, 0, 44, 64
2, 361974, Note_off_c, 0, 54, 64
2, 361984, Note_off_c, 0, 63, 64
2, 362152, Note_on_c, 0, 65, 69
2, 362152, Note_on_c, 0, 50, 69
2, 362155, Note_on_c, 0, 60, 70
2, 362155, Note_on_c, 0, 44, 66
2, 362162, Control_c, 0, 64, 0
2, 362201, Control_c, 0, 64, 127
2, 362314, Note_off_c, 0, 50, 64
2, 362314, Note_off_c, 0, 65, 64
2, 362317, Note_off_c, 0, 44, 64
2, 362317, Note_off_c, 0, 60, 64
2, 362381, Control_c, 0, 64, 0
2, 362384, Note_on_c, 0, 44, 56
2, 362386, Note_on_c, 0, 66, 62
2, 362386, Note_on_c, 0, 60, 57
2, 362386, Note_on_c, 0, 51, 60
2, 362412, Control_c, 0, 64, 127
2, 362437, Note_off_c, 0, 60, 64
2, 362440, Note_off_c, 0, 51, 64
2, 362440, Note_off_c, 0, 44, 64
2, 362450, Note_off_c, 0, 66, 64
2, 362560, Note_on_c, 0, 53, 55
2, 362560, Note_on_c, 0, 44, 48
2, 362564, Note_on_c, 0, 68, 54
2, 362564, Note_on_c, 0, 60, 60
2, 362590, Control_c, 0, 64, 0
2, 362591, Note_off_c, 0, 60, 64
2, 362595, Note_off_c, 0, 53, 64
2, 362597, Note_off_c, 0, 44, 64
2, 362610, Note_on_c, 0, 60, 63
2, 362612, Note_on_c, 0, 44, 57
2, 362613, Note_on_c, 0, 70, 66
2, 362614, Note_on_c, 0, 54, 70
2, 362625, Control_c, 0, 64, 127
2, 362645, Note_off_c, 0, 68, 64
2, 362716, Note_off_c, 0, 60, 64
2, 362718, Note_off_c, 0, 44, 64
2, 362719, Note_off_c, 0, 70, 64
2, 362720, Note_off_c, 0, 54, 64
2, 362856, Note_on_c, 0, 51, 72
2, 362856, Note_on_c, 0, 60, 64
2, 362856, Note_on_c, 0, 66, 72
2, 362862, Note_on_c, 0, 72, 73
2, 362864, Note_on_c, 0, 44, 72
2, 362890, Control_c, 0, 64, 0
2, 362912, Control_c, 0, 64, 127
2, 363025, Note_off_c, 0, 66, 64
2, 363025, Note_off_c, 0, 60, 64
2, 363025, Note_off_c, 0, 51, 64
2, 363031, Note_off_c, 0, 72, 64
2, 363033, Note_off_c, 0, 44, 64
2, 363132, Note_on_c, 0, 49, 59
2, 363134, Note_on_c, 0, 75, 69
2, 363136, Note_on_c, 0, 66, 66
2, 363136, Note_on_c, 0, 60, 59
2, 363136, Note_on_c, 0, 56, 59
2, 363147, Control_c, 0, 64, 0
2, 363176, Control_c, 0, 64, 127
2, 363294, Note_off_c, 0, 49, 64
2, 363296, Note_off_c, 0, 75, 64
2, 363298, Note_off_c, 0, 56, 64
2, 363298, Note_off_c, 0, 60, 64
2, 363298, Note_off_c, 0, 66, 64
2, 363368, Note_on_c, 0, 75, 59
2, 363368, Note_on_c, 0, 66, 60
2, 363368, Note_on_c, 0, 60, 60
2, 363368, Note_on_c, 0, 56, 62
2, 363368, Note_on_c, 0, 49, 58
2, 363388, Note_off_c, 0, 49, 64
2, 363394, Note_off_c, 0, 56, 64
2, 363396, Note_off_c, 0, 66, 64
2, 363399, Note_off_c, 0, 60, 64
2, 363406, Note_off_c, 0, 75, 64
2, 363424, Note_on_c, 0, 60, 58
2, 363424, Note_on_c, 0, 56, 71
2, 363428, Note_on_c, 0, 75, 72
2, 363428, Note_on_c, 0, 49, 65
2, 363430, Note_on_c, 0, 66, 81
2, 363449, Control_c, 0, 64, 0
2, 363472, Control_c, 0, 64, 127
2, 363823, Note_off_c, 0, 56, 64
2, 363827, Note_off_c, 0, 49, 64
2, 363840, Note_on_c, 0, 56, 62
2, 363840, Note_on_c, 0, 49, 62
2, 363842, Note_on_c, 0, 73, 71
2, 363844, Note_on_c, 0, 65, 69
2, 363844, Note_on_c, 0, 61, 62
2, 363851, Note_off_c, 0, 60, 64
2, 363855, Note_off_c, 0, 75, 64
2, 363857, Note_off_c, 0, 66, 64
2, 363898, Control_c, 0, 64, 0
2, 363934, Control_c, 0, 64, 127
2, 364158, Note_off_c, 0, 49, 64
2, 364158, Note_off_c, 0, 56, 64
2, 364160, Note_off_c, 0, 73, 64
2, 364162, Note_off_c, 0, 61, 64
2, 364162, Note_off_c, 0, 65, 64
2, 364480, Control_c, 0, 64, 0
2, 364486, Note_on_c, 0, 44, 52
2, 364540, Note_on_c, 0, 72, 59
2, 364556, Control_c, 0, 64, 127
2, 364708, Note_on_c, 0, 73, 58
2, 364734, Note_off_c, 0, 72, 64
2, 364798, Note_on_c, 0, 51, 54
2, 364825, Note_on_c, 0, 60, 52
2, 364843, Note_on_c, 0, 75, 56
2, 364856, Note_on_c, 0, 68, 37
2, 364868, Note_off_c, 0, 44, 64
2, 364872, Note_off_c, 0, 73, 64
2, 364920, Note_off_c, 0, 51, 64
2, 364947, Note_off_c, 0, 60, 64
2, 364978, Note_off_c, 0, 68, 64
2, 365148, Note_on_c, 0, 77, 48
2, 365172, Note_off_c, 0, 75, 64
2, 365243, Note_on_c, 0, 39, 51
2, 365243, Control_c, 0, 64, 0
2, 365251, Note_on_c, 0, 75, 56
2, 365265, Note_off_c, 0, 77, 64
2, 365281, Control_c, 0, 64, 127
2, 365341, Note_on_c, 0, 74, 48
2, 365359, Note_off_c, 0, 75, 64
2, 365431, Note_on_c, 0, 73, 62
2, 365431, Note_on_c, 0, 67, 39
2, 365435, Note_on_c, 0, 61, 41
2, 365449, Control_c, 0, 64, 0
2, 365454, Note_off_c, 0, 74, 64
2, 365474, Control_c, 0, 64, 127
2, 365503, Note_off_c, 0, 67, 64
2, 365507, Note_off_c, 0, 61, 64
2, 365534, Note_off_c, 0, 39, 64
2, 365629, Note_on_c, 0, 67, 19
2, 365635, Note_on_c, 0, 61, 32
2, 365701, Note_off_c, 0, 67, 64
2, 365707, Note_off_c, 0, 61, 64
2, 365728, Note_on_c, 0, 72, 49
2, 365767, Note_off_c, 0, 73, 64
2, 365801, Note_on_c, 0, 70, 62
2, 365813, Note_off_c, 0, 72, 64
2, 365831, Note_on_c, 0, 72, 55
2, 365854, Note_off_c, 0, 70, 64
2, 365856, Note_on_c, 0, 51, 49
2, 365864, Control_c, 0, 64, 0
2, 365870, Note_on_c, 0, 70, 58
2, 365891, Note_off_c, 0, 72, 64
2, 365900, Control_c, 0, 64, 127
2, 365949, Note_on_c, 0, 69, 51
2, 365967, Note_off_c, 0, 70, 64
2, 366027, Note_on_c, 0, 63, 39
2, 366028, Control_c, 0, 64, 0
2, 366035, Note_on_c, 0, 70, 62
2, 366035, Note_on_c, 0, 61, 43
2, 366050, Note_off_c, 0, 69, 64
2, 366064, Note_off_c, 0, 51, 64
2, 366070, Control_c, 0, 64, 127
2, 366099, Note_off_c, 0, 63, 64
2, 366107, Note_off_c, 0, 61, 64
2, 366109, Note_on_c, 0, 72, 39
2, 366133, Note_off_c, 0, 70, 64
2, 366196, Note_on_c, 0, 67, 49
2, 366196, Note_on_c, 0, 63, 42
2, 366202, Note_on_c, 0, 61, 42
2, 366231, Note_off_c, 0, 72, 64
2, 366268, Note_off_c, 0, 63, 64
2, 366274, Note_off_c, 0, 61, 64
2, 366344, Note_on_c, 0, 70, 50
2, 366370, Note_off_c, 0, 67, 64
2, 366376, Note_on_c, 0, 44, 49
2, 366381, Note_on_c, 0, 68, 55
2, 366397, Control_c, 0, 64, 0
2, 366407, Note_off_c, 0, 70, 64
2, 366444, Control_c, 0, 64, 127
2, 366503, Note_on_c, 0, 67, 42
2, 366518, Note_off_c, 0, 68, 64
2, 366582, Note_on_c, 0, 68, 49
2, 366584, Note_on_c, 0, 51, 42
2, 366590, Note_on_c, 0, 60, 42
2, 366597, Note_off_c, 0, 67, 64
2, 366600, Control_c, 0, 64, 0
2, 366627, Control_c, 0, 64, 127
2, 366731, Note_off_c, 0, 51, 64
2, 366737, Note_off_c, 0, 60, 64
2, 366775, Note_off_c, 0, 44, 64
2, 366832, Note_on_c, 0, 60, 51
2, 366840, Note_off_c, 0, 68, 64
2, 367015, Note_on_c, 0, 41, 40
2, 367066, Control_c, 0, 64, 0
2, 367074, Note_on_c, 0, 68, 58
2, 367096, Note_off_c, 0, 60, 64
2, 367104, Control_c, 0, 64, 127
2, 367184, Note_on_c, 0, 70, 47
2, 367211, Note_off_c, 0, 68, 64
2, 367264, Note_on_c, 0, 72, 57
2, 367268, Note_on_c, 0, 60, 28
2, 367268, Note_on_c, 0, 56, 49
2, 367274, Note_on_c, 0, 65, 43
2, 367274, Control_c, 0, 64, 0
2, 367291, Note_off_c, 0, 70, 64
2, 367298, Control_c, 0, 64, 127
2, 367340, Note_off_c, 0, 56, 64
2, 367340, Note_off_c, 0, 60, 64
2, 367346, Note_off_c, 0, 65, 64
2, 367363, Note_off_c, 0, 41, 64
2, 367454, Note_on_c, 0, 56, 35
2, 367460, Note_on_c, 0, 65, 34
2, 367460, Note_on_c, 0, 60, 28
2, 367526, Note_off_c, 0, 56, 64
2, 367532, Note_off_c, 0, 60, 64
2, 367532, Note_off_c, 0, 65, 64
2, 367537, Note_on_c, 0, 73, 51
2, 367544, Note_off_c, 0, 72, 64
2, 367661, Note_on_c, 0, 48, 49
2, 367667, Note_on_c, 0, 72, 56
2, 367691, Control_c, 0, 64, 0
2, 367699, Note_off_c, 0, 73, 64
2, 367730, Control_c, 0, 64, 127
2, 367769, Note_on_c, 0, 71, 54
2, 367787, Note_off_c, 0, 72, 64
2, 367822, Note_off_c, 0, 48, 64
2, 367849, Control_c, 0, 64, 0
2, 367859, Note_on_c, 0, 70, 50
2, 367861, Note_off_c, 0, 71, 64
2, 367867, Note_on_c, 0, 64, 32
2, 367870, Note_on_c, 0, 58, 39
2, 367892, Control_c, 0, 64, 127
2, 367939, Note_off_c, 0, 64, 64
2, 367942, Note_off_c, 0, 58, 64
2, 368063, Note_on_c, 0, 64, 27
2, 368067, Note_on_c, 0, 58, 32
2, 368135, Note_off_c, 0, 64, 64
2, 368136, Note_on_c, 0, 68, 49
2, 368139, Note_off_c, 0, 58, 64
2, 368154, Note_off_c, 0, 70, 64
2, 368236, Note_on_c, 0, 67, 51
2, 368244, Note_off_c, 0, 68, 64
2, 368265, Note_on_c, 0, 68, 57
2, 368275, Note_off_c, 0, 67, 64
2, 368279, Note_on_c, 0, 48, 43
2, 368296, Control_c, 0, 64, 0
2, 368305, Note_on_c, 0, 67, 54
2, 368318, Note_off_c, 0, 68, 64
2, 368332, Control_c, 0, 64, 127
2, 368390, Note_on_c, 0, 65, 50
2, 368396, Note_off_c, 0, 67, 64
2, 368470, Note_on_c, 0, 67, 51
2, 368470, Control_c, 0, 64, 0
2, 368479, Note_on_c, 0, 60, 32
2, 368480, Note_on_c, 0, 58, 39
2, 368488, Note_off_c, 0, 65, 64
2, 368502, Control_c, 0, 64, 127
2, 368514, Note_off_c, 0, 48, 64
2, 368551, Note_off_c, 0, 60, 64
2, 368552, Note_off_c, 0, 58, 64
2, 368552, Note_on_c, 0, 68, 44
2, 368591, Note_off_c, 0, 67, 64
2, 368652, Note_on_c, 0, 60, 37
2, 368654, Note_on_c, 0, 64, 51
2, 368654, Note_on_c, 0, 58, 39
2, 368670, Note_off_c, 0, 68, 64
2, 368724, Note_off_c, 0, 60, 64
2, 368726, Note_off_c, 0, 58, 64
2, 368871, Note_on_c, 0, 41, 49
2, 368872, Note_on_c, 0, 65, 51
2, 368882, Control_c, 0, 64, 0
2, 368890, Note_off_c, 0, 64, 64
2, 368918, Control_c, 0, 64, 127
2, 369052, Note_on_c, 0, 77, 54
2, 369103, Note_on_c, 0, 49, 50
2, 369108, Note_on_c, 0, 75, 64
2, 369108, Note_on_c, 0, 61, 44
2, 369108, Note_on_c, 0, 56, 37
2, 369121, Control_c, 0, 64, 0
2, 369128, Note_off_c, 0, 77, 64
2, 369137, Control_c, 0, 64, 127
2, 369157, Note_off_c, 0, 41, 64
2, 369263, Note_off_c, 0, 49, 64
2, 369268, Note_off_c, 0, 56, 64
2, 369268, Note_off_c, 0, 61, 64
2, 369372, Note_on_c, 0, 43, 46
2, 369379, Note_on_c, 0, 63, 47
2, 369382, Note_on_c, 0, 51, 46
2, 369395, Note_off_c, 0, 65, 64
2, 369411, Control_c, 0, 64, 0
2, 369432, Control_c, 0, 64, 127
2, 369493, Note_on_c, 0, 73, 47
2, 369513, Note_off_c, 0, 75, 64
2, 369620, Note_on_c, 0, 44, 46
2, 369623, Note_on_c, 0, 72, 51
2, 369631, Control_c, 0, 64, 0
2, 369634, Note_off_c, 0, 63, 64
2, 369639, Note_off_c, 0, 73, 64
2, 369656, Note_off_c, 0, 43, 64
2, 369664, Control_c, 0, 64, 127
2, 369680, Note_off_c, 0, 51, 64
2, 369714, Note_on_c, 0, 73, 57
2, 369742, Note_off_c, 0, 72, 64
2, 369807, Note_on_c, 0, 68, 51
2, 369810, Note_on_c, 0, 75, 58
2, 369818, Control_c, 0, 64, 0
2, 369824, Note_on_c, 0, 60, 32
2, 369839, Note_off_c, 0, 73, 64
2, 369853, Control_c, 0, 64, 127
2, 369921, Note_off_c, 0, 44, 64
2, 369937, Note_off_c, 0, 68, 64
2, 369954, Note_off_c, 0, 60, 64
2, 370023, Note_on_c, 0, 79, 49
2, 370044, Note_off_c, 0, 75, 64
2, 370119, Note_on_c, 0, 77, 51
2, 370126, Note_off_c, 0, 79, 64
2, 370199, Note_on_c, 0, 39, 47
2, 370205, Control_c, 0, 64, 0
2, 370210, Note_on_c, 0, 75, 59
2, 370233, Control_c, 0, 64, 127
2, 370240, Note_off_c, 0, 77, 64
2, 370290, Note_on_c, 0, 74, 50
2, 370301, Note_off_c, 0, 75, 64
2, 370373, Note_on_c, 0, 73, 62
2, 370380, Note_on_c, 0, 61, 39
2, 370383, Note_on_c, 0, 67, 25
2, 370388, Control_c, 0, 64, 0
2, 370393, Note_off_c, 0, 74, 64
2, 370422, Control_c, 0, 64, 127
2, 370452, Note_off_c, 0, 61, 64
2, 370455, Note_off_c, 0, 67, 64
2, 370483, Note_off_c, 0, 39, 64
2, 370567, Note_on_c, 0, 67, 28
2, 370579, Note_on_c, 0, 61, 27
2, 370639, Note_off_c, 0, 67, 64
2, 370640, Note_on_c, 0, 72, 51
2, 370651, Note_off_c, 0, 61, 64
2, 370671, Note_off_c, 0, 73, 64
2, 370698, Note_on_c, 0, 70, 62
2, 370708, Note_off_c, 0, 72, 64
2, 370737, Note_on_c, 0, 72, 58
2, 370756, Note_off_c, 0, 70, 64
2, 370768, Note_on_c, 0, 70, 58
2, 370775, Note_on_c, 0, 51, 42
2, 370780, Control_c, 0, 64, 0
2, 370789, Note_off_c, 0, 72, 64
2, 370815, Control_c, 0, 64, 127
2, 370867, Note_on_c, 0, 69, 49
2, 370873, Note_off_c, 0, 70, 64
2, 370950, Note_on_c, 0, 70, 62
2, 370958, Note_on_c, 0, 61, 47
2, 370972, Control_c, 0, 64, 0
2, 370976, Note_off_c, 0, 69, 64
2, 370988, Control_c, 0, 64, 127
2, 371036, Note_off_c, 0, 51, 64
2, 371043, Note_on_c, 0, 72, 50
2, 371068, Note_off_c, 0, 70, 64
2, 371130, Note_on_c, 0, 67, 49
2, 371133, Note_on_c, 0, 52, 48
2, 371149, Control_c, 0, 64, 0
2, 371162, Note_off_c, 0, 72, 64
2, 371185, Control_c, 0, 64, 127
2, 371192, Note_off_c, 0, 61, 64
2, 371276, Note_on_c, 0, 70, 42
2, 371297, Note_off_c, 0, 67, 64
2, 371308, Note_off_c, 0, 52, 64
2, 371312, Note_on_c, 0, 53, 51
2, 371314, Note_on_c, 0, 68, 51
2, 371337, Control_c, 0, 64, 0
2, 371344, Note_off_c, 0, 70, 64
2, 371384, Control_c, 0, 64, 127
2, 371413, Note_on_c, 0, 67, 43
2, 371415, Note_off_c, 0, 68, 64
2, 371486, Note_on_c, 0, 68, 58
2, 371486, Note_on_c, 0, 56, 39
2, 371492, Note_on_c, 0, 60, 40
2, 371496, Control_c, 0, 64, 0
2, 371510, Note_off_c, 0, 67, 64
2, 371533, Control_c, 0, 64, 127
2, 371558, Note_off_c, 0, 56, 64
2, 371564, Note_off_c, 0, 60, 64
2, 371676, Note_on_c, 0, 56, 39
2, 371679, Note_on_c, 0, 64, 50
2, 371679, Note_on_c, 0, 60, 37
2, 371689, Note_off_c, 0, 68, 64
2, 371708, Note_off_c, 0, 53, 64
2, 371748, Note_off_c, 0, 56, 64
2, 371751, Note_off_c, 0, 60, 64
2, 371880, Note_on_c, 0, 65, 50
2, 371885, Note_on_c, 0, 49, 50
2, 371898, Control_c, 0, 64, 0
2, 371910, Note_off_c, 0, 64, 64
2, 371929, Control_c, 0, 64, 127
2, 372000, Note_on_c, 0, 67, 51
2, 372015, Note_off_c, 0, 65, 64
2, 372060, Control_c, 0, 64, 0
2, 372065, Note_on_c, 0, 68, 59
2, 372076, Note_on_c, 0, 58, 21
2, 372080, Note_on_c, 0, 65, 21
2, 372084, Note_on_c, 0, 55, 33
2, 372095, Note_off_c, 0, 67, 64
2, 372095, Control_c, 0, 64, 127
2, 372148, Note_off_c, 0, 58, 64
2, 372152, Note_off_c, 0, 65, 64
2, 372156, Note_off_c, 0, 55, 64
2, 372244, Note_on_c, 0, 55, 33
2, 372250, Note_on_c, 0, 65, 20
2, 372250, Note_on_c, 0, 58, 28
2, 372250, Note_on_c, 0, 70, 54
2, 372267, Note_off_c, 0, 49, 64
2, 372277, Note_off_c, 0, 68, 64
2, 372316, Note_off_c, 0, 55, 64
2, 372322, Note_off_c, 0, 58, 64
2, 372322, Note_off_c, 0, 65, 64
2, 372440, Note_on_c, 0, 48, 46
2, 372447, Note_on_c, 0, 72, 52
2, 372449, Control_c, 0, 64, 0
2, 372463, Control_c, 0, 64, 127
2, 372469, Note_off_c, 0, 70, 64
2, 372562, Note_on_c, 0, 73, 50
2, 372566, Note_off_c, 0, 72, 64
2, 372589, Note_off_c, 0, 48, 64
2, 372619, Note_on_c, 0, 64, 35
2, 372623, Note_on_c, 0, 72, 51
2, 372623, Note_on_c, 0, 58, 35
2, 372640, Control_c, 0, 64, 0
2, 372663, Note_off_c, 0, 73, 64
2, 372680, Control_c, 0, 64, 127
2, 372691, Note_off_c, 0, 64, 64
2, 372695, Note_off_c, 0, 58, 64
2, 372803, Note_on_c, 0, 58, 28
2, 372803, Note_on_c, 0, 64, 27
2, 372875, Note_off_c, 0, 64, 64
2, 372875, Note_off_c, 0, 58, 64
2, 372883, Note_on_c, 0, 67, 44
2, 372899, Note_off_c, 0, 72, 64
2, 372985, Note_on_c, 0, 65, 47
2, 372991, Note_off_c, 0, 67, 64
2, 373001, Note_on_c, 0, 67, 51
2, 373014, Note_off_c, 0, 65, 64
2, 373031, Note_on_c, 0, 49, 47
2, 373046, Note_on_c, 0, 65, 55
2, 373052, Control_c, 0, 64, 0
2, 373060, Note_off_c, 0, 67, 64
2, 373086, Control_c, 0, 64, 127
2, 373127, Note_on_c, 0, 64, 29
2, 373136, Note_off_c, 0, 65, 64
2, 373207, Control_c, 0, 64, 0
2, 373212, Note_on_c, 0, 65, 50
2, 373216, Note_on_c, 0, 58, 39
2, 373217, Note_on_c, 0, 55, 40
2, 373221, Note_off_c, 0, 49, 64
2, 373225, Note_off_c, 0, 64, 64
2, 373227, Control_c, 0, 64, 127
2, 373273, Note_off_c, 0, 55, 64
2, 373277, Note_off_c, 0, 58, 64
2, 373301, Note_on_c, 0, 67, 48
2, 373314, Note_off_c, 0, 65, 64
2, 373380, Note_on_c, 0, 55, 27
2, 373384, Note_on_c, 0, 58, 41
2, 373385, Note_on_c, 0, 68, 52
2, 373388, Note_on_c, 0, 65, 27
2, 373401, Note_off_c, 0, 67, 64
2, 373452, Note_off_c, 0, 55, 64
2, 373452, Note_off_c, 0, 58, 64
2, 373460, Note_off_c, 0, 65, 64
2, 373470, Note_on_c, 0, 70, 54
2, 373484, Note_off_c, 0, 68, 64
2, 373567, Note_on_c, 0, 72, 51
2, 373574, Note_on_c, 0, 48, 51
2, 373584, Note_off_c, 0, 70, 64
2, 373593, Control_c, 0, 64, 0
2, 373628, Control_c, 0, 64, 127
2, 373679, Note_on_c, 0, 75, 48
2, 373698, Note_off_c, 0, 72, 64
2, 373706, Note_on_c, 0, 73, 51
2, 373725, Note_off_c, 0, 48, 64
2, 373728, Note_off_c, 0, 75, 64
2, 373749, Note_on_c, 0, 55, 47
2, 373754, Note_on_c, 0, 64, 34
2, 373758, Note_on_c, 0, 72, 54
2, 373765, Control_c, 0, 64, 0
2, 373776, Note_off_c, 0, 73, 64
2, 373809, Control_c, 0, 64, 127
2, 373969, Note_on_c, 0, 48, 51
2, 374086, Note_on_c, 0, 71, 54
2, 374095, Note_off_c, 0, 72, 64
2, 374099, Note_off_c, 0, 55, 64
2, 374104, Note_off_c, 0, 64, 64
2, 374247, Note_on_c, 0, 49, 59
2, 374261, Note_on_c, 0, 70, 52
2, 374278, Note_off_c, 0, 48, 64
2, 374279, Control_c, 0, 64, 0
2, 374295, Note_off_c, 0, 71, 64
2, 374337, Control_c, 0, 64, 127
2, 374389, Note_on_c, 0, 72, 48
2, 374404, Note_off_c, 0, 70, 64
2, 374451, Note_on_c, 0, 70, 62
2, 374467, Note_off_c, 0, 72, 64
2, 374481, Control_c, 0, 64, 0
2, 374504, Note_on_c, 0, 63, 26
2, 374512, Note_on_c, 0, 55, 41
2, 374518, Note_on_c, 0, 69, 62
2, 374523, Control_c, 0, 64, 127
2, 374532, Note_off_c, 0, 70, 64
2, 374564, Note_off_c, 0, 49, 64
2, 374576, Note_off_c, 0, 63, 64
2, 374581, Note_on_c, 0, 70, 63
2, 374584, Note_off_c, 0, 55, 64
2, 374595, Note_off_c, 0, 69, 64
2, 374677, Note_on_c, 0, 72, 54
2, 374680, Note_on_c, 0, 63, 42
2, 374688, Note_on_c, 0, 55, 36
2, 374695, Note_off_c, 0, 70, 64
2, 374747, Note_on_c, 0, 73, 58
2, 374752, Note_off_c, 0, 63, 64
2, 374760, Note_off_c, 0, 55, 64
2, 374775, Note_off_c, 0, 72, 64
2, 374852, Note_on_c, 0, 77, 58
2, 374855, Note_on_c, 0, 48, 48
2, 374863, Control_c, 0, 64, 0
2, 374884, Note_off_c, 0, 73, 64
2, 374905, Control_c, 0, 64, 127
2, 374935, Note_on_c, 0, 75, 64
2, 374950, Note_off_c, 0, 77, 64
2, 375055, Note_on_c, 0, 80, 57
2, 375064, Note_on_c, 0, 56, 49
2, 375070, Note_on_c, 0, 63, 39
2, 375078, Note_off_c, 0, 75, 64
2, 375084, Note_off_c, 0, 48, 64
2, 375093, Control_c, 0, 64, 0
2, 375127, Control_c, 0, 64, 127
2, 375328, Note_on_c, 0, 53, 37
2, 375361, Note_off_c, 0, 56, 64
2, 375367, Note_off_c, 0, 63, 64
2, 375593, Note_on_c, 0, 69, 41
2, 375608, Note_on_c, 0, 51, 46
2, 375614, Control_c, 0, 64, 0
2, 375623, Note_off_c, 0, 53, 64
2, 375635, Note_off_c, 0, 80, 64
2, 375639, Control_c, 0, 64, 127
2, 375744, Note_on_c, 0, 70, 51
2, 375767, Note_off_c, 0, 69, 64
2, 375858, Note_on_c, 0, 68, 42
2, 375868, Note_on_c, 0, 62, 1
2, 375872, Note_on_c, 0, 58, 25
2, 375872, Note_on_c, 0, 79, 42
2, 375882, Control_c, 0, 64, 0
2, 375902, Note_off_c, 0, 70, 64
2, 375908, Control_c, 0, 64, 127
2, 375928, Note_off_c, 0, 51, 64
2, 376007, Note_on_c, 0, 77, 56
2, 376019, Note_off_c, 0, 79, 64
2, 376102, Note_off_c, 0, 58, 64
2, 376109, Note_off_c, 0, 68, 64
2, 376119, Note_off_c, 0, 62, 64
2, 376164, Note_on_c, 0, 67, 25
2, 376167, Note_on_c, 0, 75, 51
2, 376169, Note_on_c, 0, 58, 23
2, 376176, Note_on_c, 0, 61, 24
2, 376179, Note_off_c, 0, 77, 64
2, 376184, Control_c, 0, 64, 0
2, 376208, Control_c, 0, 64, 127
2, 376327, Note_off_c, 0, 61, 64
2, 376335, Note_off_c, 0, 67, 64
2, 376340, Note_off_c, 0, 58, 64
2, 376349, Note_on_c, 0, 63, 47
2, 376378, Note_off_c, 0, 75, 64
2, 376559, Note_on_c, 0, 73, 39
2, 376577, Note_on_c, 0, 44, 42
2, 376588, Note_off_c, 0, 63, 64
2, 376628, Control_c, 0, 64, 0
2, 376652, Control_c, 0, 64, 127
2, 376735, Note_on_c, 0, 72, 47
2, 376756, Note_off_c, 0, 73, 64
2, 376908, Note_off_c, 0, 44, 64
2, 376955, Note_on_c, 0, 51, 26
2, 376956, Note_on_c, 0, 68, 41
2, 376963, Note_on_c, 0, 60, 27
2, 376999, Note_off_c, 0, 72, 64
2, 377046, Control_c, 0, 64, 0
2, 377100, Control_c, 0, 64, 127
2, 377635, Control_c, 0, 64, 0
2, 377740, Note_off_c, 0, 51, 64
2, 377744, Note_off_c, 0, 60, 64
2, 377771, Note_off_c, 0, 68, 64
2, 379127, Control_c, 0, 64, 127
2, 379224, Note_on_c, 0, 80, 58
2, 379344, Control_c, 0, 64, 0
2, 379426, Control_c, 0, 64, 127
2, 379677, Note_off_c, 0, 80, 64
2, 379729, Note_on_c, 0, 80, 32
2, 379837, Note_on_c, 0, 83, 55
2, 379850, Note_off_c, 0, 80, 64
2, 379909, Control_c, 0, 64, 0
2, 379919, Note_on_c, 0, 81, 49
2, 379932, Note_off_c, 0, 83, 64
2, 379948, Control_c, 0, 64, 127
2, 379971, Control_c, 0, 64, 0
2, 380009, Note_on_c, 0, 80, 58
2, 380025, Control_c, 0, 64, 127
2, 380044, Note_off_c, 0, 81, 64
2, 380109, Note_on_c, 0, 79, 56
2, 380122, Note_off_c, 0, 80, 64
2, 380148, Control_c, 0, 64, 0
2, 380202, Note_on_c, 0, 75, 46
2, 380215, Control_c, 0, 64, 127
2, 380235, Note_off_c, 0, 79, 64
2, 380268, Control_c, 0, 64, 0
2, 380312, Note_on_c, 0, 80, 54
2, 380322, Control_c, 0, 64, 127
2, 380332, Note_off_c, 0, 75, 64
2, 380561, Note_on_c, 0, 68, 36
2, 380564, Note_on_c, 0, 72, 41
2, 380587, Control_c, 0, 64, 0
2, 380643, Control_c, 0, 64, 127
2, 380679, Note_on_c, 0, 78, 39
2, 380750, Note_off_c, 0, 80, 64
2, 380820, Note_on_c, 0, 73, 40
2, 380824, Note_on_c, 0, 76, 42
2, 380836, Note_off_c, 0, 78, 64
2, 380838, Control_c, 0, 64, 0
2, 380862, Note_off_c, 0, 72, 64
2, 380869, Control_c, 0, 64, 127
2, 380944, Note_off_c, 0, 68, 64
2, 381081, Note_on_c, 0, 68, 45
2, 381182, Note_on_c, 0, 71, 49
2, 381216, Note_off_c, 0, 68, 64
2, 381281, Note_on_c, 0, 69, 49
2, 381305, Note_off_c, 0, 71, 64
2, 381354, Note_on_c, 0, 68, 45
2, 381374, Note_off_c, 0, 69, 64
2, 381451, Note_on_c, 0, 67, 50
2, 381458, Note_on_c, 0, 75, 64
2, 381464, Note_off_c, 0, 76, 64
2, 381475, Control_c, 0, 64, 0
2, 381477, Note_off_c, 0, 68, 64
2, 381511, Control_c, 0, 64, 127
2, 381536, Note_on_c, 0, 63, 49
2, 381564, Note_off_c, 0, 67, 64
2, 381644, Note_on_c, 0, 68, 55
2, 381648, Note_on_c, 0, 72, 59
2, 381676, Note_off_c, 0, 63, 64
2, 381676, Control_c, 0, 64, 0
2, 381693, Note_off_c, 0, 73, 64
2, 381719, Control_c, 0, 64, 127
2, 381844, Note_on_c, 0, 56, 45
2, 381897, Note_off_c, 0, 72, 64
2, 381945, Note_on_c, 0, 66, 46
2, 381991, Note_off_c, 0, 68, 64
2, 382066, Note_on_c, 0, 73, 42
2, 382072, Note_on_c, 0, 61, 20
2, 382073, Note_on_c, 0, 64, 42
2, 382080, Note_off_c, 0, 66, 64
2, 382083, Note_off_c, 0, 56, 64
2, 382086, Note_off_c, 0, 75, 64
2, 382118, Control_c, 0, 64, 0
2, 382190, Control_c, 0, 64, 127
2, 382323, Note_on_c, 0, 75, 52
2, 382360, Note_off_c, 0, 64, 64
2, 382381, Note_off_c, 0, 73, 64
2, 382400, Note_off_c, 0, 61, 64
2, 382419, Note_on_c, 0, 78, 58
2, 382449, Note_off_c, 0, 75, 64
2, 382516, Note_on_c, 0, 76, 56
2, 382533, Note_off_c, 0, 78, 64
2, 382603, Note_on_c, 0, 75, 57
2, 382612, Note_off_c, 0, 76, 64
2, 382617, Control_c, 0, 64, 0
2, 382694, Note_on_c, 0, 73, 58
2, 382704, Note_off_c, 0, 75, 64
2, 382704, Control_c, 0, 64, 127
2, 382768, Note_on_c, 0, 70, 64
2, 382783, Note_off_c, 0, 73, 64
2, 382874, Note_on_c, 0, 75, 49
2, 382889, Note_off_c, 0, 70, 64
2, 383072, Note_on_c, 0, 63, 39
2, 383078, Note_on_c, 0, 67, 37
2, 383103, Control_c, 0, 64, 0
2, 383154, Control_c, 0, 64, 127
2, 383171, Note_on_c, 0, 73, 41
2, 383199, Note_off_c, 0, 75, 64
2, 383276, Note_on_c, 0, 68, 45
2, 383278, Note_on_c, 0, 71, 49
2, 383285, Note_off_c, 0, 67, 64
2, 383287, Note_off_c, 0, 73, 64
2, 383297, Control_c, 0, 64, 0
2, 383321, Control_c, 0, 64, 127
2, 383434, Note_off_c, 0, 63, 64
2, 383507, Note_on_c, 0, 63, 46
2, 383598, Note_on_c, 0, 66, 42
2, 383614, Note_off_c, 0, 63, 64
2, 383691, Note_on_c, 0, 64, 47
2, 383705, Note_off_c, 0, 66, 64
2, 383781, Note_on_c, 0, 63, 53
2, 383793, Note_off_c, 0, 64, 64
2, 383870, Note_on_c, 0, 61, 41
2, 383873, Note_on_c, 0, 70, 36
2, 383881, Note_off_c, 0, 71, 64
2, 383885, Note_off_c, 0, 63, 64
2, 383901, Control_c, 0, 64, 0
2, 383948, Control_c, 0, 64, 127
2, 383964, Note_on_c, 0, 58, 48
2, 383984, Note_off_c, 0, 61, 64
2, 384064, Note_on_c, 0, 67, 57
2, 384067, Note_on_c, 0, 63, 54
2, 384076, Note_off_c, 0, 68, 64
2, 384079, Control_c, 0, 64, 0
2, 384080, Note_off_c, 0, 58, 64
2, 384112, Control_c, 0, 64, 127
2, 384286, Note_on_c, 0, 51, 45
2, 384387, Note_off_c, 0, 51, 64
2, 384388, Note_on_c, 0, 61, 54
2, 384411, Note_off_c, 0, 63, 64
2, 384553, Note_on_c, 0, 44, 53
2, 384560, Note_on_c, 0, 66, 41
2, 384561, Note_on_c, 0, 72, 63
2, 384565, Note_on_c, 0, 60, 47
2, 384572, Note_off_c, 0, 70, 64
2, 384584, Note_off_c, 0, 67, 64
2, 384585, Note_off_c, 0, 61, 64
2, 384596, Control_c, 0, 64, 0
2, 384660, Control_c, 0, 64, 127
2, 384665, Note_on_c, 0, 73, 67
2, 384678, Note_off_c, 0, 66, 64
2, 384679, Note_off_c, 0, 72, 64
2, 384683, Note_off_c, 0, 60, 64
2, 384747, Note_on_c, 0, 75, 59
2, 384781, Note_off_c, 0, 73, 64
2, 384826, Note_on_c, 0, 76, 67
2, 384841, Note_off_c, 0, 75, 64
2, 384880, Note_off_c, 0, 44, 64
2, 384903, Note_on_c, 0, 78, 69
2, 384937, Note_off_c, 0, 76, 64
2, 384975, Note_on_c, 0, 80, 71
2, 384997, Note_off_c, 0, 78, 64
2, 385048, Note_on_c, 0, 81, 63
2, 385083, Note_off_c, 0, 80, 64
2, 385089, Note_on_c, 0, 83, 65
2, 385109, Note_off_c, 0, 81, 64
2, 385116, Control_c, 0, 64, 0
2, 385134, Note_on_c, 0, 81, 54
2, 385154, Note_off_c, 0, 83, 64
2, 385195, Note_on_c, 0, 78, 66
2, 385211, Note_on_c, 0, 60, 60
2, 385211, Note_on_c, 0, 56, 49
2, 385212, Note_on_c, 0, 66, 54
2, 385221, Control_c, 0, 64, 127
2, 385227, Note_off_c, 0, 81, 64
2, 385273, Note_on_c, 0, 76, 58
2, 385278, Note_off_c, 0, 78, 64
2, 385293, Note_off_c, 0, 56, 64
2, 385293, Note_off_c, 0, 60, 64
2, 385294, Note_off_c, 0, 66, 64
2, 385345, Control_c, 0, 64, 0
2, 385355, Note_on_c, 0, 75, 69
2, 385360, Note_on_c, 0, 66, 49
2, 385360, Note_on_c, 0, 57, 42
2, 385361, Note_on_c, 0, 61, 46
2, 385372, Note_off_c, 0, 76, 64
2, 385399, Control_c, 0, 64, 127
2, 385428, Note_on_c, 0, 73, 59
2, 385438, Note_off_c, 0, 75, 64
2, 385442, Note_off_c, 0, 57, 64
2, 385442, Note_off_c, 0, 66, 64
2, 385443, Note_off_c, 0, 61, 64
2, 385498, Control_c, 0, 64, 0
2, 385516, Note_on_c, 0, 66, 49
2, 385520, Note_on_c, 0, 72, 62
2, 385520, Note_on_c, 0, 60, 64
2, 385525, Note_on_c, 0, 56, 47
2, 385529, Note_off_c, 0, 73, 64
2, 385532, Control_c, 0, 64, 127
2, 385580, Note_on_c, 0, 73, 63
2, 385598, Note_off_c, 0, 66, 64
2, 385602, Note_off_c, 0, 60, 64
2, 385607, Note_off_c, 0, 56, 64
2, 385611, Note_off_c, 0, 72, 64
2, 385654, Control_c, 0, 64, 0
2, 385660, Note_on_c, 0, 44, 69
2, 385660, Note_on_c, 0, 75, 66
2, 385681, Note_off_c, 0, 73, 64
2, 385684, Control_c, 0, 64, 127
2, 385734, Note_on_c, 0, 76, 62
2, 385744, Note_off_c, 0, 75, 64
2, 385800, Note_on_c, 0, 56, 58
2, 385804, Note_on_c, 0, 66, 58
2, 385806, Note_on_c, 0, 60, 42
2, 385807, Note_on_c, 0, 78, 83
2, 385810, Control_c, 0, 64, 0
2, 385830, Note_off_c, 0, 76, 64
2, 385882, Note_off_c, 0, 56, 64
2, 385883, Note_on_c, 0, 80, 56
2, 385886, Note_off_c, 0, 66, 64
2, 385888, Note_off_c, 0, 60, 64
2, 385898, Control_c, 0, 64, 127
2, 385918, Note_off_c, 0, 78, 64
2, 385935, Note_off_c, 0, 44, 64
2, 385958, Note_on_c, 0, 81, 57
2, 385990, Note_off_c, 0, 80, 64
2, 386004, Note_on_c, 0, 83, 69
2, 386021, Note_off_c, 0, 81, 64
2, 386049, Note_on_c, 0, 81, 66
2, 386063, Note_off_c, 0, 83, 64
2, 386101, Control_c, 0, 64, 0
2, 386111, Note_on_c, 0, 78, 62
2, 386112, Note_on_c, 0, 60, 54
2, 386116, Note_on_c, 0, 56, 54
2, 386118, Note_on_c, 0, 66, 40
2, 386132, Control_c, 0, 64, 127
2, 386138, Note_off_c, 0, 81, 64
2, 386176, Note_on_c, 0, 76, 63
2, 386186, Note_off_c, 0, 78, 64
2, 386194, Note_off_c, 0, 60, 64
2, 386198, Note_off_c, 0, 56, 64
2, 386200, Note_off_c, 0, 66, 64
2, 386245, Control_c, 0, 64, 0
2, 386254, Note_on_c, 0, 75, 62
2, 386256, Note_on_c, 0, 66, 46
2, 386256, Note_on_c, 0, 61, 26
2, 386256, Note_on_c, 0, 57, 42
2, 386261, Note_off_c, 0, 76, 64
2, 386291, Control_c, 0, 64, 127
2, 386320, Note_on_c, 0, 73, 54
2, 386338, Note_off_c, 0, 57, 64
2, 386338, Note_off_c, 0, 61, 64
2, 386338, Note_off_c, 0, 66, 64
2, 386340, Note_off_c, 0, 75, 64
2, 386397, Control_c, 0, 64, 0
2, 386408, Note_on_c, 0, 66, 59
2, 386408, Note_on_c, 0, 60, 58
2, 386411, Note_on_c, 0, 75, 43
2, 386412, Note_on_c, 0, 56, 3
2, 386430, Note_off_c, 0, 73, 64
2, 386441, Control_c, 0, 64, 127
2, 386474, Note_on_c, 0, 68, 58
2, 386490, Note_off_c, 0, 60, 64
2, 386490, Note_off_c, 0, 66, 64
2, 386494, Note_off_c, 0, 56, 64
2, 386501, Note_off_c, 0, 75, 64
2, 386558, Note_on_c, 0, 80, 73
2, 386566, Note_on_c, 0, 44, 56
2, 386566, Control_c, 0, 64, 0
2, 386609, Control_c, 0, 64, 127
2, 386703, Control_c, 0, 64, 0
2, 386712, Note_on_c, 0, 60, 54
2, 386714, Note_on_c, 0, 51, 52
2, 386739, Control_c, 0, 64, 127
2, 386761, Note_off_c, 0, 68, 64
2, 386784, Note_off_c, 0, 80, 64
2, 386788, Note_on_c, 0, 75, 62
2, 386794, Note_off_c, 0, 60, 64
2, 386796, Note_off_c, 0, 51, 64
2, 386855, Note_on_c, 0, 80, 64
2, 386860, Note_on_c, 0, 56, 58
2, 386861, Note_on_c, 0, 66, 59
2, 386865, Note_off_c, 0, 75, 64
2, 386909, Note_off_c, 0, 44, 64
2, 386939, Note_on_c, 0, 75, 59
2, 386942, Note_off_c, 0, 56, 64
2, 386943, Note_off_c, 0, 66, 64
2, 386949, Note_off_c, 0, 80, 64
2, 387010, Note_on_c, 0, 80, 59
2, 387012, Note_on_c, 0, 60, 29
2, 387014, Note_on_c, 0, 51, 60
2, 387014, Control_c, 0, 64, 0
2, 387028, Note_off_c, 0, 75, 64
2, 387033, Control_c, 0, 64, 127
2, 387094, Note_off_c, 0, 60, 64
2, 387096, Note_off_c, 0, 51, 64
2, 387152, Note_on_c, 0, 44, 73
2, 387228, Note_on_c, 0, 68, 56
2, 387234, Note_off_c, 0, 80, 64
2, 387310, Control_c, 0, 64, 0
2, 387316, Note_on_c, 0, 32, 72
2, 387322, Note_on_c, 0, 75, 56
2, 387349, Control_c, 0, 64, 127
2, 387355, Note_off_c, 0, 68, 64
2, 387420, Note_on_c, 0, 68, 60
2, 387431, Note_off_c, 0, 75, 64
2, 387439, Note_off_c, 0, 44, 64
2, 387496, Note_on_c, 0, 56, 24
2, 387500, Note_on_c, 0, 80, 67
2, 387500, Note_on_c, 0, 66, 39
2, 387500, Note_on_c, 0, 60, 44
2, 387502, Control_c, 0, 64, 0
2, 387531, Control_c, 0, 64, 127
2, 387578, Note_off_c, 0, 56, 64
2, 387582, Note_off_c, 0, 60, 64
2, 387582, Note_off_c, 0, 66, 64
2, 387595, Note_off_c, 0, 32, 64
2, 387598, Note_off_c, 0, 68, 64
2, 387736, Note_off_c, 0, 80, 64
2, 387736, Note_on_c, 0, 68, 57
2, 387840, Note_on_c, 0, 37, 54
2, 387845, Control_c, 0, 64, 0
2, 387850, Note_on_c, 0, 75, 56
2, 387880, Control_c, 0, 64, 127
2, 387912, Note_off_c, 0, 68, 64
2, 387941, Note_on_c, 0, 76, 47
2, 387964, Note_off_c, 0, 75, 64
2, 388068, Note_on_c, 0, 73, 64
2, 388081, Note_on_c, 0, 49, 41
2, 388085, Note_on_c, 0, 56, 32
2, 388087, Note_off_c, 0, 76, 64
2, 388091, Note_on_c, 0, 64, 32
2, 388121, Control_c, 0, 64, 0
2, 388154, Control_c, 0, 64, 127
2, 388382, Note_off_c, 0, 37, 64
2, 388448, Note_on_c, 0, 80, 62
2, 388480, Note_off_c, 0, 73, 64
2, 388484, Control_c, 0, 64, 0
2, 388544, Control_c, 0, 64, 127
2, 388629, Note_off_c, 0, 56, 64
2, 388631, Note_off_c, 0, 64, 64
2, 388634, Note_off_c, 0, 49, 64
2, 388742, Control_c, 0, 64, 0
2, 388807, Control_c, 0, 64, 127
2, 388863, Note_off_c, 0, 80, 64
2, 388911, Note_on_c, 0, 80, 59
2, 388954, Control_c, 0, 64, 0
2, 388979, Control_c, 0, 64, 127
2, 389007, Note_on_c, 0, 83, 59
2, 389014, Note_off_c, 0, 80, 64
2, 389058, Control_c, 0, 64, 0
2, 389088, Note_on_c, 0, 81, 58
2, 389106, Note_off_c, 0, 83, 64
2, 389113, Control_c, 0, 64, 127
2, 389165, Note_on_c, 0, 80, 55
2, 389188, Note_off_c, 0, 81, 64
2, 389211, Control_c, 0, 64, 0
2, 389256, Note_on_c, 0, 79, 55
2, 389276, Note_off_c, 0, 80, 64
2, 389306, Control_c, 0, 64, 127
2, 389354, Note_on_c, 0, 75, 29
2, 389368, Note_off_c, 0, 79, 64
2, 389443, Note_on_c, 0, 80, 47
2, 389465, Note_off_c, 0, 75, 64
2, 389642, Note_on_c, 0, 72, 47
2, 389643, Note_on_c, 0, 68, 35
2, 389657, Control_c, 0, 64, 0
2, 389731, Control_c, 0, 64, 127
2, 389745, Note_on_c, 0, 78, 42
2, 389763, Note_off_c, 0, 80, 64
2, 389852, Note_on_c, 0, 76, 49
2, 389852, Note_on_c, 0, 73, 49
2, 389863, Note_off_c, 0, 78, 64
2, 389866, Control_c, 0, 64, 0
2, 389867, Note_off_c, 0, 72, 64
2, 389920, Control_c, 0, 64, 127
2, 390028, Note_off_c, 0, 68, 64
2, 390058, Note_on_c, 0, 68, 39
2, 390142, Note_on_c, 0, 71, 55
2, 390157, Note_off_c, 0, 68, 64
2, 390231, Note_on_c, 0, 69, 41
2, 390255, Note_off_c, 0, 71, 64
2, 390312, Note_on_c, 0, 68, 44
2, 390329, Note_off_c, 0, 69, 64
2, 390387, Note_on_c, 0, 67, 40
2, 390390, Note_on_c, 0, 75, 54
2, 390404, Note_off_c, 0, 76, 64
2, 390405, Note_off_c, 0, 68, 64
2, 390413, Control_c, 0, 64, 0
2, 390461, Note_on_c, 0, 63, 49
2, 390461, Control_c, 0, 64, 127
2, 390484, Note_off_c, 0, 67, 64
2, 390554, Note_on_c, 0, 68, 62
2, 390556, Note_on_c, 0, 72, 42
2, 390577, Note_off_c, 0, 63, 64
2, 390578, Control_c, 0, 64, 0
2, 390604, Note_off_c, 0, 73, 64
2, 390640, Control_c, 0, 64, 127
2, 390736, Note_on_c, 0, 56, 46
2, 390818, Note_on_c, 0, 66, 58
2, 390849, Note_off_c, 0, 68, 64
2, 390873, Note_off_c, 0, 56, 64
2, 390928, Note_on_c, 0, 61, 19
2, 390929, Note_on_c, 0, 73, 44
2, 390929, Note_on_c, 0, 64, 39
2, 390935, Note_off_c, 0, 75, 64
2, 390947, Note_off_c, 0, 66, 64
2, 390963, Note_off_c, 0, 72, 64
2, 390966, Control_c, 0, 64, 0
2, 391040, Control_c, 0, 64, 127
2, 391132, Note_on_c, 0, 75, 62
2, 391154, Note_off_c, 0, 73, 64
2, 391215, Note_on_c, 0, 78, 56
2, 391234, Note_off_c, 0, 75, 64
2, 391252, Note_off_c, 0, 61, 64
2, 391253, Note_off_c, 0, 64, 64
2, 391259, Control_c, 0, 64, 0
2, 391290, Note_on_c, 0, 76, 63
2, 391296, Note_off_c, 0, 78, 64
2, 391315, Control_c, 0, 64, 127
2, 391371, Note_on_c, 0, 75, 44
2, 391381, Control_c, 0, 64, 0
2, 391388, Note_off_c, 0, 76, 64
2, 391450, Note_on_c, 0, 73, 58
2, 391458, Control_c, 0, 64, 127
2, 391467, Note_off_c, 0, 75, 64
2, 391532, Note_on_c, 0, 70, 64
2, 391554, Note_off_c, 0, 73, 64
2, 391613, Note_on_c, 0, 75, 54
2, 391639, Note_off_c, 0, 70, 64
2, 391796, Note_on_c, 0, 67, 29
2, 391798, Note_on_c, 0, 63, 46
2, 391819, Control_c, 0, 64, 0
2, 391873, Control_c, 0, 64, 127
2, 391882, Note_on_c, 0, 73, 47
2, 391899, Note_off_c, 0, 75, 64
2, 391963, Control_c, 0, 64, 0
2, 391984, Note_on_c, 0, 68, 56
2, 391984, Note_on_c, 0, 71, 46
2, 392007, Note_off_c, 0, 67, 64
2, 392008, Note_off_c, 0, 73, 64
2, 392021, Control_c, 0, 64, 127
2, 392183, Note_off_c, 0, 63, 64
2, 392203, Note_on_c, 0, 63, 55
2, 392213, Control_c, 0, 64, 0
2, 392251, Control_c, 0, 64, 127
2, 392280, Note_on_c, 0, 66, 66
2, 392308, Note_off_c, 0, 63, 64
2, 392355, Note_on_c, 0, 64, 52
2, 392373, Note_off_c, 0, 66, 64
2, 392437, Note_on_c, 0, 63, 60
2, 392454, Note_off_c, 0, 64, 64
2, 392516, Note_on_c, 0, 70, 55
2, 392522, Note_on_c, 0, 61, 50
2, 392531, Control_c, 0, 64, 0
2, 392535, Note_off_c, 0, 71, 64
2, 392547, Note_off_c, 0, 63, 64
2, 392589, Control_c, 0, 64, 127
2, 392605, Note_on_c, 0, 58, 58
2, 392625, Note_off_c, 0, 61, 64
2, 392688, Note_on_c, 0, 67, 50
2, 392689, Note_on_c, 0, 63, 65
2, 392697, Control_c, 0, 64, 0
2, 392703, Note_off_c, 0, 68, 64
2, 392719, Note_off_c, 0, 58, 64
2, 392746, Control_c, 0, 64, 127
2, 392856, Note_on_c, 0, 51, 54
2, 392945, Note_on_c, 0, 61, 60
2, 392969, Note_off_c, 0, 63, 64
2, 393066, Note_off_c, 0, 51, 64
2, 393068, Note_on_c, 0, 44, 42
2, 393068, Note_on_c, 0, 60, 41
2, 393072, Note_off_c, 0, 61, 64
2, 393072, Note_on_c, 0, 72, 63
2, 393075, Note_on_c, 0, 66, 57
2, 393083, Note_off_c, 0, 67, 64
2, 393086, Note_off_c, 0, 70, 64
2, 393098, Control_c, 0, 64, 0
2, 393157, Note_on_c, 0, 73, 67
2, 393162, Note_off_c, 0, 60, 64
2, 393169, Note_off_c, 0, 66, 64
2, 393178, Note_off_c, 0, 72, 64
2, 393206, Control_c, 0, 64, 127
2, 393230, Note_on_c, 0, 75, 58
2, 393249, Note_off_c, 0, 73, 64
2, 393299, Note_on_c, 0, 76, 73
2, 393320, Note_off_c, 0, 75, 64
2, 393361, Note_off_c, 0, 44, 64
2, 393374, Note_on_c, 0, 78, 79
2, 393400, Note_off_c, 0, 76, 64
2, 393443, Note_on_c, 0, 80, 66
2, 393465, Note_off_c, 0, 78, 64
2, 393511, Note_on_c, 0, 81, 66
2, 393544, Note_off_c, 0, 80, 64
2, 393558, Note_on_c, 0, 83, 71
2, 393572, Note_off_c, 0, 81, 64
2, 393607, Note_on_c, 0, 81, 69
2, 393619, Note_off_c, 0, 83, 64
2, 393658, Note_on_c, 0, 78, 66
2, 393660, Note_on_c, 0, 60, 56
2, 393664, Note_on_c, 0, 66, 55
2, 393664, Note_on_c, 0, 56, 52
2, 393671, Control_c, 0, 64, 0
2, 393689, Note_off_c, 0, 81, 64
2, 393730, Control_c, 0, 64, 127
2, 393737, Note_on_c, 0, 76, 60
2, 393741, Note_off_c, 0, 78, 64
2, 393742, Note_off_c, 0, 60, 64
2, 393746, Note_off_c, 0, 56, 64
2, 393746, Note_off_c, 0, 66, 64
2, 393793, Control_c, 0, 64, 0
2, 393810, Note_on_c, 0, 75, 62
2, 393816, Note_on_c, 0, 66, 47
2, 393816, Note_on_c, 0, 61, 44
2, 393816, Note_on_c, 0, 57, 39
2, 393831, Note_off_c, 0, 76, 64
2, 393851, Control_c, 0, 64, 127
2, 393881, Note_on_c, 0, 73, 54
2, 393898, Note_off_c, 0, 57, 64
2, 393898, Note_off_c, 0, 61, 64
2, 393898, Note_off_c, 0, 66, 64
2, 393898, Note_off_c, 0, 75, 64
2, 393933, Control_c, 0, 64, 0
2, 393960, Note_on_c, 0, 66, 60
2, 393964, Note_on_c, 0, 56, 34
2, 393966, Note_on_c, 0, 72, 63
2, 393967, Note_on_c, 0, 60, 55
2, 393973, Note_off_c, 0, 73, 64
2, 393988, Control_c, 0, 64, 127
2, 394028, Note_on_c, 0, 73, 65
2, 394042, Note_off_c, 0, 66, 64
2, 394046, Note_off_c, 0, 56, 64
2, 394049, Note_off_c, 0, 60, 64
2, 394067, Note_off_c, 0, 72, 64
2, 394086, Control_c, 0, 64, 0
2, 394097, Note_on_c, 0, 75, 73
2, 394103, Note_on_c, 0, 44, 73
2, 394117, Control_c, 0, 64, 127
2, 394123, Note_off_c, 0, 73, 64
2, 394171, Note_on_c, 0, 76, 71
2, 394180, Note_off_c, 0, 75, 64
2, 394224, Control_c, 0, 64, 0
2, 394234, Note_on_c, 0, 78, 81
2, 394234, Note_on_c, 0, 56, 64
2, 394236, Note_on_c, 0, 66, 59
2, 394236, Note_on_c, 0, 60, 49
2, 394267, Note_off_c, 0, 76, 64
2, 394278, Control_c, 0, 64, 127
2, 394306, Note_on_c, 0, 80, 66
2, 394316, Note_off_c, 0, 56, 64
2, 394318, Note_off_c, 0, 60, 64
2, 394318, Note_off_c, 0, 66, 64
2, 394326, Note_off_c, 0, 78, 64
2, 394371, Note_off_c, 0, 44, 64
2, 394382, Note_on_c, 0, 81, 85
2, 394412, Note_off_c, 0, 80, 64
2, 394426, Note_on_c, 0, 83, 67
2, 394441, Note_off_c, 0, 81, 64
2, 394472, Note_on_c, 0, 81, 66
2, 394486, Note_off_c, 0, 83, 64
2, 394502, Control_c, 0, 64, 0
2, 394524, Note_on_c, 0, 60, 57
2, 394526, Note_on_c, 0, 78, 69
2, 394528, Note_on_c, 0, 56, 59
2, 394530, Note_on_c, 0, 66, 44
2, 394543, Control_c, 0, 64, 127
2, 394551, Note_off_c, 0, 81, 64
2, 394587, Note_on_c, 0, 76, 59
2, 394599, Note_off_c, 0, 78, 64
2, 394606, Note_off_c, 0, 60, 64
2, 394610, Note_off_c, 0, 56, 64
2, 394612, Note_off_c, 0, 66, 64
2, 394647, Control_c, 0, 64, 0
2, 394655, Note_on_c, 0, 75, 67
2, 394664, Note_on_c, 0, 66, 31
2, 394664, Note_on_c, 0, 61, 41
2, 394664, Note_on_c, 0, 57, 41
2, 394670, Note_off_c, 0, 76, 64
2, 394678, Control_c, 0, 64, 127
2, 394723, Note_on_c, 0, 73, 60
2, 394734, Note_off_c, 0, 75, 64
2, 394746, Note_off_c, 0, 57, 64
2, 394746, Note_off_c, 0, 61, 64
2, 394746, Note_off_c, 0, 66, 64
2, 394788, Control_c, 0, 64, 0
2, 394799, Note_on_c, 0, 75, 73
2, 394801, Note_on_c, 0, 60, 55
2, 394804, Note_on_c, 0, 56, 55
2, 394807, Note_on_c, 0, 66, 56
2, 394810, Note_off_c, 0, 73, 64
2, 394830, Control_c, 0, 64, 127
2, 394862, Note_on_c, 0, 68, 73
2, 394880, Note_off_c, 0, 75, 64
2, 394883, Note_off_c, 0, 60, 64
2, 394886, Note_off_c, 0, 56, 64
2, 394889, Note_off_c, 0, 66, 64
2, 394942, Note_on_c, 0, 80, 73
2, 394948, Note_on_c, 0, 44, 62
2, 394949, Control_c, 0, 64, 0
2, 394993, Control_c, 0, 64, 127
2, 395010, Note_off_c, 0, 68, 64
2, 395079, Control_c, 0, 64, 0
2, 395092, Note_on_c, 0, 51, 60
2, 395099, Note_on_c, 0, 60, 64
2, 395108, Control_c, 0, 64, 127
2, 395163, Note_off_c, 0, 80, 64
2, 395168, Note_on_c, 0, 75, 58
2, 395174, Note_off_c, 0, 51, 64
2, 395181, Note_off_c, 0, 60, 64
2, 395235, Note_on_c, 0, 66, 67
2, 395236, Note_on_c, 0, 56, 62
2, 395238, Note_on_c, 0, 80, 73
2, 395248, Note_off_c, 0, 75, 64
2, 395269, Note_off_c, 0, 44, 64
2, 395317, Note_off_c, 0, 66, 64
2, 395318, Note_off_c, 0, 56, 64
2, 395320, Note_on_c, 0, 75, 62
2, 395340, Note_off_c, 0, 80, 64
2, 395380, Control_c, 0, 64, 0
2, 395386, Note_on_c, 0, 60, 63
2, 395386, Note_on_c, 0, 51, 62
2, 395387, Note_on_c, 0, 80, 66
2, 395402, Note_off_c, 0, 75, 64
2, 395410, Control_c, 0, 64, 127
2, 395468, Note_off_c, 0, 51, 64
2, 395468, Note_off_c, 0, 60, 64
2, 395514, Note_on_c, 0, 44, 71
2, 395599, Note_on_c, 0, 68, 71
2, 395600, Note_off_c, 0, 80, 64
2, 395667, Note_on_c, 0, 32, 77
2, 395667, Control_c, 0, 64, 0
2, 395683, Note_on_c, 0, 75, 59
2, 395704, Note_off_c, 0, 68, 64
2, 395707, Control_c, 0, 64, 127
2, 395710, Note_off_c, 0, 32, 64
2, 395768, Note_off_c, 0, 75, 64
2, 395773, Note_on_c, 0, 68, 74
2, 395809, Note_off_c, 0, 44, 64
2, 395846, Control_c, 0, 64, 0
2, 395852, Note_on_c, 0, 80, 70
2, 395852, Note_on_c, 0, 66, 36
2, 395857, Note_on_c, 0, 56, 42
2, 395860, Note_on_c, 0, 60, 44
2, 395872, Control_c, 0, 64, 127
2, 395916, Note_off_c, 0, 68, 64
2, 395934, Note_off_c, 0, 66, 64
2, 395939, Note_off_c, 0, 56, 64
2, 395942, Note_off_c, 0, 60, 64
2, 396103, Note_on_c, 0, 68, 71
2, 396112, Note_off_c, 0, 80, 64
2, 396211, Note_on_c, 0, 37, 62
2, 396211, Note_on_c, 0, 75, 69
2, 396225, Control_c, 0, 64, 0
2, 396251, Control_c, 0, 64, 127
2, 396258, Note_off_c, 0, 68, 64
2, 396332, Note_on_c, 0, 76, 50
2, 396354, Note_off_c, 0, 75, 64
2, 396448, Note_on_c, 0, 64, 39
2, 396448, Note_on_c, 0, 56, 46
2, 396454, Note_on_c, 0, 73, 56
2, 396454, Note_on_c, 0, 49, 33
2, 396467, Control_c, 0, 64, 0
2, 396472, Note_off_c, 0, 76, 64
2, 396492, Control_c, 0, 64, 127
2, 396909, Control_c, 0, 64, 0
2, 396932, Note_on_c, 0, 33, 102
2, 396934, Note_off_c, 0, 56, 64
2, 396934, Note_off_c, 0, 64, 64
2, 396935, Note_off_c, 0, 37, 64
2, 396940, Note_off_c, 0, 49, 64
2, 396940, Note_off_c, 0, 73, 64
2, 396940, Note_on_c, 0, 45, 90
2, 396940, Note_on_c, 0, 57, 95
2, 396963, Control_c, 0, 64, 127
2, 397147, Note_off_c, 0, 57, 64
2, 397180, Note_on_c, 0, 64, 41
2, 397182, Note_on_c, 0, 69, 73
2, 397182, Note_on_c, 0, 61, 69
2, 397183, Note_on_c, 0, 57, 63
2, 397184, Note_on_c, 0, 73, 73
2, 397184, Note_on_c, 0, 52, 73
2, 397207, Control_c, 0, 64, 0
2, 397222, Control_c, 0, 64, 127
2, 397330, Note_off_c, 0, 64, 64
2, 397332, Note_off_c, 0, 61, 64
2, 397332, Note_off_c, 0, 69, 64
2, 397333, Note_off_c, 0, 57, 64
2, 397334, Note_off_c, 0, 52, 64
2, 397334, Note_off_c, 0, 73, 64
2, 397417, Note_on_c, 0, 57, 64
2, 397420, Note_on_c, 0, 61, 78
2, 397420, Note_on_c, 0, 52, 67
2, 397421, Note_on_c, 0, 64, 69
2, 397445, Note_off_c, 0, 52, 64
2, 397446, Note_off_c, 0, 33, 64
2, 397451, Note_off_c, 0, 57, 64
2, 397453, Note_off_c, 0, 45, 64
2, 397459, Note_off_c, 0, 64, 64
2, 397464, Note_off_c, 0, 61, 64
2, 397483, Note_on_c, 0, 73, 69
2, 397492, Note_on_c, 0, 69, 69
2, 397492, Note_on_c, 0, 64, 69
2, 397492, Note_on_c, 0, 57, 73
2, 397498, Note_on_c, 0, 52, 66
2, 397572, Note_off_c, 0, 73, 64
2, 397581, Note_off_c, 0, 57, 64
2, 397581, Note_off_c, 0, 64, 64
2, 397581, Note_off_c, 0, 69, 64
2, 397587, Note_off_c, 0, 52, 64
2, 397594, Note_on_c, 0, 69, 65
2, 397595, Note_on_c, 0, 73, 73
2, 397595, Note_on_c, 0, 64, 74
2, 397595, Note_on_c, 0, 57, 80
2, 397602, Note_on_c, 0, 52, 74
2, 397620, Note_off_c, 0, 52, 64
2, 397624, Note_off_c, 0, 57, 64
2, 397624, Note_off_c, 0, 64, 64
2, 397629, Control_c, 0, 64, 0
2, 397634, Note_off_c, 0, 69, 64
2, 397641, Note_off_c, 0, 73, 64
2, 397647, Note_on_c, 0, 64, 73
2, 397648, Note_on_c, 0, 61, 85
2, 397649, Note_on_c, 0, 57, 73
2, 397655, Note_on_c, 0, 52, 73
2, 397664, Control_c, 0, 64, 127
2, 397785, Note_off_c, 0, 64, 64
2, 397786, Note_off_c, 0, 61, 64
2, 397787, Note_off_c, 0, 57, 64
2, 397788, Note_on_c, 0, 69, 69
2, 397788, Note_on_c, 0, 61, 69
2, 397791, Note_on_c, 0, 64, 71
2, 397793, Note_off_c, 0, 52, 64
2, 397793, Note_on_c, 0, 73, 77
2, 397793, Note_on_c, 0, 57, 69
2, 397798, Note_on_c, 0, 52, 67
2, 397929, Note_off_c, 0, 57, 64
2, 397930, Control_c, 0, 64, 0
2, 397936, Note_on_c, 0, 57, 74
2, 397941, Note_on_c, 0, 45, 64
2, 397943, Note_on_c, 0, 33, 69
2, 397952, Note_off_c, 0, 61, 64
2, 397952, Note_off_c, 0, 69, 64
2, 397955, Note_off_c, 0, 64, 64
2, 397957, Note_off_c, 0, 73, 64
2, 397962, Note_off_c, 0, 52, 64
2, 397971, Control_c, 0, 64, 127
2, 398036, Note_on_c, 0, 69, 71
2, 398040, Note_on_c, 0, 73, 73
2, 398095, Note_off_c, 0, 57, 64
2, 398106, Note_off_c, 0, 69, 64
2, 398115, Note_off_c, 0, 73, 64
2, 398128, Note_on_c, 0, 73, 85
2, 398128, Note_on_c, 0, 69, 71
2, 398128, Note_on_c, 0, 64, 59
2, 398128, Note_on_c, 0, 52, 63
2, 398132, Note_on_c, 0, 57, 62
2, 398176, Note_on_c, 0, 75, 69
2, 398184, Note_off_c, 0, 69, 64
2, 398190, Note_off_c, 0, 73, 64
2, 398220, Note_off_c, 0, 33, 64
2, 398222, Note_on_c, 0, 73, 66
2, 398227, Note_off_c, 0, 45, 64
2, 398237, Note_off_c, 0, 75, 64
2, 398260, Note_on_c, 0, 71, 77
2, 398266, Note_on_c, 0, 68, 77
2, 398273, Note_off_c, 0, 73, 64
2, 398341, Note_on_c, 0, 69, 78
2, 398345, Note_on_c, 0, 66, 73
2, 398347, Note_off_c, 0, 71, 64
2, 398353, Note_off_c, 0, 68, 64
2, 398368, Note_off_c, 0, 52, 64
2, 398368, Note_off_c, 0, 64, 64
2, 398372, Note_off_c, 0, 57, 64
2, 398415, Note_on_c, 0, 71, 69
2, 398416, Note_on_c, 0, 68, 69
2, 398418, Note_on_c, 0, 40, 63
2, 398420, Control_c, 0, 64, 0
2, 398429, Note_off_c, 0, 69, 64
2, 398433, Note_off_c, 0, 66, 64
2, 398460, Control_c, 0, 64, 127
2, 398464, Note_off_c, 0, 68, 64
2, 398485, Note_off_c, 0, 71, 64
2, 398528, Note_on_c, 0, 71, 58
2, 398532, Note_on_c, 0, 68, 69
2, 398563, Control_c, 0, 64, 0
2, 398569, Note_off_c, 0, 68, 64
2, 398576, Note_on_c, 0, 52, 50
2, 398580, Note_on_c, 0, 59, 50
2, 398581, Note_on_c, 0, 68, 73
2, 398581, Note_on_c, 0, 64, 73
2, 398584, Note_off_c, 0, 71, 64
2, 398607, Control_c, 0, 64, 127
2, 398705, Note_off_c, 0, 40, 64
2, 398717, Note_off_c, 0, 52, 64
2, 398721, Note_off_c, 0, 59, 64
2, 398722, Note_off_c, 0, 64, 64
2, 398722, Note_off_c, 0, 68, 64
2, 398737, Note_on_c, 0, 64, 73
2, 398740, Note_on_c, 0, 68, 70
2, 398744, Note_on_c, 0, 76, 73
2, 398747, Note_on_c, 0, 59, 65
2, 398748, Note_on_c, 0, 52, 62
2, 398878, Note_off_c, 0, 64, 64
2, 398881, Note_off_c, 0, 68, 64
2, 398885, Note_off_c, 0, 76, 64
2, 398888, Note_off_c, 0, 59, 64
2, 398889, Note_off_c, 0, 52, 64
2, 398930, Control_c, 0, 64, 0
2, 398937, Note_on_c, 0, 30, 90
2, 398937, Note_on_c, 0, 57, 95
2, 398943, Note_on_c, 0, 42, 105
2, 398971, Control_c, 0, 64, 127
2, 399110, Note_off_c, 0, 57, 64
2, 399128, Note_on_c, 0, 69, 73
2, 399128, Note_on_c, 0, 66, 71
2, 399132, Note_on_c, 0, 57, 69
2, 399133, Note_on_c, 0, 61, 71
2, 399139, Note_on_c, 0, 49, 62
2, 399140, Note_on_c, 0, 54, 66
2, 399147, Control_c, 0, 64, 0
2, 399183, Control_c, 0, 64, 127
2, 399319, Note_off_c, 0, 66, 64
2, 399319, Note_off_c, 0, 69, 64
2, 399323, Note_off_c, 0, 57, 64
2, 399324, Note_off_c, 0, 61, 64
2, 399330, Note_off_c, 0, 49, 64
2, 399331, Note_off_c, 0, 54, 64
2, 399384, Note_on_c, 0, 57, 69
2, 399385, Note_on_c, 0, 61, 73
2, 399389, Note_on_c, 0, 54, 62
2, 399389, Note_on_c, 0, 49, 58
2, 399408, Note_off_c, 0, 54, 64
2, 399409, Note_off_c, 0, 49, 64
2, 399417, Note_off_c, 0, 61, 64
2, 399426, Note_off_c, 0, 57, 64
2, 399452, Note_on_c, 0, 69, 67
2, 399452, Note_on_c, 0, 54, 77
2, 399452, Note_on_c, 0, 49, 73
2, 399454, Note_on_c, 0, 61, 77
2, 399455, Note_on_c, 0, 66, 77
2, 399465, Note_off_c, 0, 30, 64
2, 399469, Note_off_c, 0, 42, 64
2, 399541, Note_off_c, 0, 49, 64
2, 399541, Note_off_c, 0, 54, 64
2, 399541, Note_off_c, 0, 69, 64
2, 399543, Note_off_c, 0, 61, 64
2, 399544, Note_off_c, 0, 66, 64
2, 399561, Note_on_c, 0, 49, 74
2, 399567, Note_on_c, 0, 66, 82
2, 399567, Note_on_c, 0, 61, 77
2, 399567, Note_on_c, 0, 54, 82
2, 399568, Note_on_c, 0, 69, 77
2, 399582, Note_off_c, 0, 54, 64
2, 399585, Note_off_c, 0, 49, 64
2, 399590, Note_off_c, 0, 61, 64
2, 399602, Note_off_c, 0, 66, 64
2, 399608, Note_off_c, 0, 69, 64
2, 399616, Control_c, 0, 64, 0
2, 399623, Note_on_c, 0, 61, 83
2, 399624, Note_on_c, 0, 57, 80
2, 399628, Note_on_c, 0, 54, 80
2, 399628, Note_on_c, 0, 49, 80
2, 399650, Control_c, 0, 64, 127
2, 399764, Note_off_c, 0, 61, 64
2, 399765, Note_off_c, 0, 57, 64
2, 399769, Note_off_c, 0, 49, 64
2, 399769, Note_off_c, 0, 54, 64
2, 399772, Note_on_c, 0, 61, 73
2, 399775, Note_on_c, 0, 69, 74
2, 399775, Note_on_c, 0, 49, 69
2, 399776, Note_on_c, 0, 66, 77
2, 399782, Note_on_c, 0, 54, 73
2, 399909, Control_c, 0, 64, 0
2, 399923, Note_on_c, 0, 30, 63
2, 399927, Note_on_c, 0, 42, 67
2, 399928, Note_on_c, 0, 57, 69
2, 399936, Note_off_c, 0, 61, 64
2, 399939, Note_off_c, 0, 49, 64
2, 399939, Note_off_c, 0, 69, 64
2, 399940, Note_off_c, 0, 66, 64
2, 399946, Note_off_c, 0, 54, 64
2, 399952, Control_c, 0, 64, 127
2, 400037, Note_on_c, 0, 69, 80
2, 400039, Note_on_c, 0, 66, 77
2, 400093, Note_off_c, 0, 69, 64
2, 400095, Note_off_c, 0, 66, 64
2, 400105, Note_off_c, 0, 57, 64
2, 400114, Note_on_c, 0, 54, 58
2, 400116, Note_on_c, 0, 69, 73
2, 400120, Note_on_c, 0, 61, 64
2, 400123, Note_on_c, 0, 49, 44
2, 400123, Note_on_c, 0, 66, 78
2, 400165, Note_on_c, 0, 71, 69
2, 400167, Note_off_c, 0, 66, 64
2, 400177, Note_off_c, 0, 69, 64
2, 400204, Note_off_c, 0, 30, 64
2, 400204, Note_on_c, 0, 69, 70
2, 400215, Note_off_c, 0, 42, 64
2, 400217, Note_off_c, 0, 71, 64
2, 400260, Note_on_c, 0, 68, 92
2, 400260, Note_on_c, 0, 64, 63
2, 400268, Note_off_c, 0, 69, 64
2, 400328, Note_on_c, 0, 66, 82
2, 400331, Note_on_c, 0, 63, 74
2, 400348, Note_off_c, 0, 64, 64
2, 400348, Note_off_c, 0, 68, 64
2, 400354, Note_off_c, 0, 54, 64
2, 400360, Note_off_c, 0, 61, 64
2, 400363, Note_off_c, 0, 49, 64
2, 400415, Note_on_c, 0, 68, 77
2, 400421, Note_on_c, 0, 64, 74
2, 400421, Note_on_c, 0, 37, 62
2, 400430, Note_off_c, 0, 66, 64
2, 400432, Control_c, 0, 64, 0
2, 400433, Note_off_c, 0, 63, 64
2, 400459, Control_c, 0, 64, 127
2, 400469, Note_off_c, 0, 64, 64
2, 400490, Note_off_c, 0, 68, 64
2, 400547, Note_on_c, 0, 68, 62
2, 400548, Note_on_c, 0, 64, 73
2, 400574, Control_c, 0, 64, 0
2, 400590, Note_off_c, 0, 64, 64
2, 400596, Note_on_c, 0, 64, 74
2, 400596, Note_on_c, 0, 61, 74
2, 400596, Note_on_c, 0, 56, 62
2, 400596, Note_on_c, 0, 49, 48
2, 400627, Note_off_c, 0, 68, 64
2, 400627, Control_c, 0, 64, 127
2, 400707, Note_off_c, 0, 37, 64
2, 400737, Note_off_c, 0, 49, 64
2, 400737, Note_off_c, 0, 56, 64
2, 400737, Note_off_c, 0, 61, 64
2, 400737, Note_off_c, 0, 64, 64
2, 400808, Note_on_c, 0, 49, 29
2, 400809, Note_on_c, 0, 73, 73
2, 400813, Note_on_c, 0, 61, 70
2, 400833, Control_c, 0, 64, 0
2, 400867, Control_c, 0, 64, 127
2, 401028, Note_off_c, 0, 49, 64
2, 401029, Note_off_c, 0, 73, 64
2, 401033, Note_off_c, 0, 61, 64
2, 401043, Note_on_c, 0, 72, 59
2, 401043, Note_on_c, 0, 39, 47
2, 401050, Note_on_c, 0, 61, 48
2, 401051, Note_on_c, 0, 67, 51
2, 401069, Control_c, 0, 64, 0
2, 401101, Control_c, 0, 64, 127
2, 401149, Note_on_c, 0, 51, 62
2, 401164, Note_off_c, 0, 39, 64
2, 401208, Note_on_c, 0, 53, 52
2, 401226, Note_off_c, 0, 51, 64
2, 401287, Note_on_c, 0, 55, 58
2, 401306, Note_off_c, 0, 53, 64
2, 401352, Note_off_c, 0, 72, 64
2, 401356, Note_on_c, 0, 70, 70
2, 401362, Note_on_c, 0, 56, 62
2, 401368, Control_c, 0, 64, 0
2, 401375, Note_off_c, 0, 67, 64
2, 401378, Note_off_c, 0, 55, 64
2, 401427, Note_on_c, 0, 58, 59
2, 401437, Control_c, 0, 64, 127
2, 401444, Note_off_c, 0, 56, 64
2, 401448, Note_off_c, 0, 61, 64
2, 401516, Note_on_c, 0, 63, 58
2, 401520, Note_on_c, 0, 60, 63
2, 401560, Note_off_c, 0, 58, 64
2, 401579, Note_off_c, 0, 70, 64
2, 401583, Control_c, 0, 64, 0
2, 401604, Note_on_c, 0, 56, 49
2, 401624, Control_c, 0, 64, 127
2, 401633, Note_off_c, 0, 60, 64
2, 401683, Note_on_c, 0, 51, 62
2, 401693, Note_off_c, 0, 56, 64
2, 401759, Note_on_c, 0, 65, 63
2, 401766, Note_off_c, 0, 63, 64
2, 401804, Note_off_c, 0, 51, 64
2, 401838, Note_on_c, 0, 68, 51
2, 401838, Note_on_c, 0, 63, 39
2, 401842, Note_on_c, 0, 72, 56
2, 401846, Control_c, 0, 64, 0
2, 401853, Note_off_c, 0, 65, 64
2, 401873, Control_c, 0, 64, 127
2, 401979, Note_off_c, 0, 63, 64
2, 401979, Note_off_c, 0, 68, 64
2, 401983, Note_off_c, 0, 72, 64
2, 402010, Note_on_c, 0, 39, 56
2, 402024, Note_on_c, 0, 75, 54
2, 402024, Note_on_c, 0, 72, 49
2, 402036, Note_on_c, 0, 61, 46
2, 402041, Note_on_c, 0, 67, 29
2, 402049, Control_c, 0, 64, 0
2, 402083, Control_c, 0, 64, 127
2, 402108, Note_on_c, 0, 51, 51
2, 402147, Note_off_c, 0, 39, 64
2, 402175, Note_on_c, 0, 53, 50
2, 402196, Note_off_c, 0, 51, 64
2, 402262, Note_on_c, 0, 55, 58
2, 402274, Note_off_c, 0, 72, 64
2, 402274, Note_off_c, 0, 75, 64
2, 402276, Note_off_c, 0, 53, 64
2, 402320, Note_on_c, 0, 73, 54
2, 402328, Note_on_c, 0, 70, 48
2, 402335, Note_on_c, 0, 56, 64
2, 402339, Control_c, 0, 64, 0
2, 402357, Note_off_c, 0, 55, 64
2, 402373, Control_c, 0, 64, 127
2, 402404, Note_on_c, 0, 58, 56
2, 402419, Note_off_c, 0, 61, 64
2, 402424, Note_off_c, 0, 67, 64
2, 402432, Note_off_c, 0, 56, 64
2, 402494, Note_off_c, 0, 73, 64
2, 402494, Note_on_c, 0, 60, 63
2, 402496, Note_on_c, 0, 68, 51
2, 402499, Note_on_c, 0, 63, 58
2, 402502, Note_off_c, 0, 70, 64
2, 402504, Note_on_c, 0, 72, 55
2, 402521, Note_off_c, 0, 58, 64
2, 402545, Control_c, 0, 64, 0
2, 402578, Control_c, 0, 64, 127
2, 402585, Note_on_c, 0, 56, 39
2, 402592, Note_off_c, 0, 60, 64
2, 402671, Note_on_c, 0, 51, 59
2, 402683, Note_off_c, 0, 68, 64
2, 402686, Note_off_c, 0, 63, 64
2, 402691, Note_off_c, 0, 72, 64
2, 402692, Note_off_c, 0, 56, 64
2, 402743, Note_on_c, 0, 55, 52
2, 402751, Note_off_c, 0, 51, 64
2, 402780, Note_on_c, 0, 53, 34
2, 402813, Note_off_c, 0, 55, 64
2, 402825, Note_on_c, 0, 73, 54
2, 402832, Note_on_c, 0, 68, 54
2, 402832, Note_on_c, 0, 65, 47
2, 402836, Note_on_c, 0, 51, 56
2, 402844, Control_c, 0, 64, 0
2, 402871, Note_off_c, 0, 53, 64
2, 402880, Control_c, 0, 64, 127
2, 402977, Note_off_c, 0, 51, 64
2, 403001, Note_off_c, 0, 73, 64
2, 403007, Note_on_c, 0, 39, 51
2, 403008, Note_off_c, 0, 65, 64
2, 403008, Note_off_c, 0, 68, 64
2, 403011, Note_on_c, 0, 63, 51
2, 403013, Note_on_c, 0, 72, 58
2, 403013, Note_on_c, 0, 67, 51
2, 403026, Control_c, 0, 64, 0
2, 403049, Control_c, 0, 64, 127
2, 403102, Note_on_c, 0, 51, 57
2, 403119, Note_off_c, 0, 39, 64
2, 403167, Note_on_c, 0, 53, 44
2, 403190, Note_off_c, 0, 51, 64
2, 403251, Note_on_c, 0, 55, 63
2, 403270, Note_off_c, 0, 53, 64
2, 403325, Note_on_c, 0, 65, 52
2, 403326, Note_on_c, 0, 61, 58
2, 403329, Note_on_c, 0, 70, 49
2, 403330, Note_on_c, 0, 56, 59
2, 403339, Note_off_c, 0, 55, 64
2, 403339, Note_off_c, 0, 63, 64
2, 403341, Note_off_c, 0, 67, 64
2, 403341, Note_off_c, 0, 72, 64
2, 403348, Control_c, 0, 64, 0
2, 403381, Control_c, 0, 64, 127
2, 403403, Note_on_c, 0, 58, 59
2, 403418, Note_off_c, 0, 56, 64
2, 403499, Note_on_c, 0, 60, 62
2, 403500, Note_on_c, 0, 63, 62
2, 403511, Note_off_c, 0, 65, 64
2, 403512, Note_off_c, 0, 61, 64
2, 403513, Note_off_c, 0, 58, 64
2, 403515, Note_off_c, 0, 70, 64
2, 403525, Control_c, 0, 64, 0
2, 403581, Note_on_c, 0, 56, 51
2, 403584, Control_c, 0, 64, 127
2, 403606, Note_off_c, 0, 60, 64
2, 403664, Note_on_c, 0, 51, 70
2, 403678, Note_off_c, 0, 56, 64
2, 403690, Note_off_c, 0, 63, 64
2, 403756, Note_on_c, 0, 63, 62
2, 403776, Note_off_c, 0, 51, 64
2, 403838, Note_on_c, 0, 75, 56
2, 403840, Note_on_c, 0, 68, 71
2, 403841, Note_on_c, 0, 72, 58
2, 403848, Note_off_c, 0, 63, 64
2, 403859, Control_c, 0, 64, 0
2, 403922, Control_c, 0, 64, 127
2, 404006, Note_on_c, 0, 73, 62
2, 404020, Note_off_c, 0, 72, 64
2, 404098, Note_on_c, 0, 67, 39
2, 404130, Note_off_c, 0, 68, 64
2, 404142, Note_off_c, 0, 75, 64
2, 404148, Note_off_c, 0, 73, 64
2, 404188, Note_on_c, 0, 51, 62
2, 404223, Note_off_c, 0, 67, 64
2, 404269, Note_on_c, 0, 65, 62
2, 404294, Note_off_c, 0, 51, 64
2, 404352, Note_on_c, 0, 75, 51
2, 404357, Note_on_c, 0, 67, 51
2, 404361, Note_on_c, 0, 63, 54
2, 404363, Control_c, 0, 64, 0
2, 404386, Note_off_c, 0, 65, 64
2, 404406, Control_c, 0, 64, 127
2, 404539, Control_c, 0, 64, 0
2, 404546, Note_on_c, 0, 61, 49
2, 404548, Note_on_c, 0, 68, 54
2, 404562, Note_off_c, 0, 63, 64
2, 404569, Note_off_c, 0, 67, 64
2, 404569, Control_c, 0, 64, 127
2, 404642, Note_on_c, 0, 60, 49
2, 404649, Note_off_c, 0, 75, 64
2, 404658, Note_off_c, 0, 61, 64
2, 404670, Note_off_c, 0, 68, 64
2, 404740, Note_on_c, 0, 44, 58
2, 404760, Note_off_c, 0, 60, 64
2, 404844, Note_on_c, 0, 58, 46
2, 404875, Note_off_c, 0, 44, 64
2, 404946, Note_on_c, 0, 75, 42
2, 404946, Note_on_c, 0, 63, 39
2, 404948, Note_on_c, 0, 72, 19
2, 404957, Note_on_c, 0, 56, 25
2, 404968, Control_c, 0, 64, 0
2, 404979, Note_off_c, 0, 58, 64
2, 405034, Control_c, 0, 64, 127
2, 405240, Note_on_c, 0, 73, 49
2, 405245, Note_on_c, 0, 76, 48
2, 405248, Note_on_c, 0, 64, 39
2, 405266, Note_off_c, 0, 63, 64
2, 405267, Control_c, 0, 64, 0
2, 405268, Note_off_c, 0, 75, 64
2, 405270, Note_off_c, 0, 72, 64
2, 405309, Control_c, 0, 64, 127
2, 405474, Note_off_c, 0, 56, 64
2, 405487, Note_on_c, 0, 56, 49
2, 405519, Control_c, 0, 64, 0
2, 405558, Control_c, 0, 64, 127
2, 405584, Note_on_c, 0, 59, 57
2, 405618, Note_off_c, 0, 56, 64
2, 405620, Note_off_c, 0, 76, 64
2, 405664, Note_off_c, 0, 73, 64
2, 405664, Note_on_c, 0, 57, 54
2, 405670, Note_off_c, 0, 64, 64
2, 405679, Note_off_c, 0, 59, 64
2, 405735, Note_on_c, 0, 56, 57
2, 405744, Note_off_c, 0, 57, 64
2, 405819, Note_on_c, 0, 75, 48
2, 405821, Note_on_c, 0, 55, 59
2, 405823, Note_on_c, 0, 70, 44
2, 405829, Note_on_c, 0, 63, 48
2, 405840, Control_c, 0, 64, 0
2, 405845, Note_off_c, 0, 56, 64
2, 405874, Control_c, 0, 64, 127
2, 405892, Note_on_c, 0, 51, 58
2, 405898, Note_on_c, 0, 73, 44
2, 405902, Note_off_c, 0, 75, 64
2, 405912, Note_off_c, 0, 55, 64
2, 405993, Note_on_c, 0, 72, 44
2, 405997, Note_on_c, 0, 68, 50
2, 406002, Note_on_c, 0, 56, 70
2, 406006, Note_off_c, 0, 73, 64
2, 406020, Control_c, 0, 64, 0
2, 406022, Note_off_c, 0, 70, 64
2, 406033, Note_off_c, 0, 51, 64
2, 406063, Control_c, 0, 64, 127
2, 406170, Note_on_c, 0, 44, 50
2, 406174, Note_on_c, 0, 75, 48
2, 406184, Note_off_c, 0, 72, 64
2, 406270, Note_on_c, 0, 54, 62
2, 406283, Note_off_c, 0, 56, 64
2, 406289, Note_off_c, 0, 63, 64
2, 406327, Note_off_c, 0, 44, 64
2, 406336, Note_off_c, 0, 75, 64
2, 406356, Note_on_c, 0, 75, 39
2, 406356, Note_on_c, 0, 61, 51
2, 406364, Note_on_c, 0, 44, 24
2, 406366, Note_on_c, 0, 52, 46
2, 406376, Control_c, 0, 64, 0
2, 406386, Note_off_c, 0, 54, 64
2, 406403, Control_c, 0, 64, 127
2, 406440, Note_off_c, 0, 68, 64
2, 406444, Note_on_c, 0, 68, 48
2, 406472, Note_off_c, 0, 75, 64
2, 406541, Note_on_c, 0, 51, 39
2, 406545, Note_off_c, 0, 68, 64
2, 406546, Note_on_c, 0, 63, 70
2, 406547, Note_off_c, 0, 52, 64
2, 406552, Note_on_c, 0, 68, 43
2, 406561, Note_off_c, 0, 61, 64
2, 406624, Note_on_c, 0, 66, 58
2, 406642, Note_off_c, 0, 63, 64
2, 406704, Note_on_c, 0, 64, 65
2, 406704, Note_on_c, 0, 49, 50
2, 406707, Note_on_c, 0, 73, 39
2, 406714, Note_off_c, 0, 51, 64
2, 406732, Note_off_c, 0, 66, 64
2, 406792, Note_on_c, 0, 63, 70
2, 406794, Note_on_c, 0, 51, 55
2, 406796, Note_on_c, 0, 72, 42
2, 406812, Note_off_c, 0, 49, 64
2, 406812, Note_off_c, 0, 64, 64
2, 406815, Note_off_c, 0, 73, 64
2, 406864, Note_off_c, 0, 44, 64
2, 406896, Note_on_c, 0, 44, 50
2, 406896, Note_on_c, 0, 70, 32
2, 406896, Note_on_c, 0, 61, 72
2, 406900, Note_on_c, 0, 52, 49
2, 406918, Note_off_c, 0, 63, 64
2, 406918, Control_c, 0, 64, 0
2, 406920, Note_off_c, 0, 51, 64
2, 406933, Note_off_c, 0, 72, 64
2, 406933, Control_c, 0, 64, 127
2, 407008, Note_on_c, 0, 73, 51
2, 407015, Note_on_c, 0, 58, 64
2, 407022, Note_off_c, 0, 61, 64
2, 407022, Note_off_c, 0, 70, 64
2, 407096, Note_on_c, 0, 70, 37
2, 407096, Note_on_c, 0, 67, 47
2, 407100, Note_on_c, 0, 63, 70
2, 407100, Note_on_c, 0, 51, 57
2, 407109, Note_off_c, 0, 52, 64
2, 407115, Note_off_c, 0, 73, 64
2, 407118, Note_off_c, 0, 58, 64
2, 407118, Note_off_c, 0, 68, 64
2, 407139, Control_c, 0, 64, 0
2, 407185, Control_c, 0, 64, 127
2, 407280, Note_on_c, 0, 72, 46
2, 407299, Note_off_c, 0, 70, 64
2, 407371, Note_on_c, 0, 61, 65
2, 407381, Note_off_c, 0, 63, 64
2, 407450, Note_off_c, 0, 44, 64
2, 407485, Note_on_c, 0, 44, 55
2, 407490, Note_on_c, 0, 68, 46
2, 407493, Note_on_c, 0, 60, 58
2, 407500, Note_off_c, 0, 51, 64
2, 407502, Note_off_c, 0, 67, 64
2, 407506, Note_off_c, 0, 72, 64
2, 407521, Note_off_c, 0, 61, 64
2, 407544, Control_c, 0, 64, 0
2, 407590, Control_c, 0, 64, 127
2, 407621, Note_off_c, 0, 68, 64
2, 407679, Note_on_c, 0, 68, 51
2, 407716, Control_c, 0, 64, 0
2, 407751, Control_c, 0, 64, 127
2, 407755, Note_off_c, 0, 68, 64
2, 407763, Note_on_c, 0, 71, 51
2, 407825, Note_off_c, 0, 44, 64
2, 407840, Note_on_c, 0, 69, 54
2, 407869, Note_off_c, 0, 71, 64
2, 407878, Note_off_c, 0, 60, 64
2, 407919, Note_on_c, 0, 68, 41
2, 407929, Note_off_c, 0, 69, 64
2, 408022, Control_c, 0, 64, 0
2, 408028, Note_on_c, 0, 67, 69
2, 408031, Note_off_c, 0, 68, 64
2, 408032, Note_on_c, 0, 73, 37
2, 408032, Note_on_c, 0, 70, 37
2, 408036, Control_c, 0, 64, 0
2, 408066, Control_c, 0, 64, 127
2, 408076, Control_c, 0, 64, 127
2, 408118, Note_on_c, 0, 63, 65
2, 408123, Note_off_c, 0, 67, 64
2, 408210, Note_on_c, 0, 68, 54
2, 408238, Note_off_c, 0, 63, 64
2, 408262, Control_c, 0, 64, 0
2, 408287, Control_c, 0, 64, 127
2, 408353, Note_off_c, 0, 70, 64
2, 408353, Note_off_c, 0, 73, 64
2, 408379, Note_on_c, 0, 75, 54
2, 408380, Control_c, 0, 64, 0
2, 408390, Note_on_c, 0, 72, 51
2, 408420, Control_c, 0, 64, 127
2, 408465, Note_off_c, 0, 72, 64
2, 408480, Note_on_c, 0, 66, 54
2, 408500, Note_off_c, 0, 68, 64
2, 408549, Note_off_c, 0, 75, 64
2, 408610, Note_on_c, 0, 64, 21
2, 408610, Note_on_c, 0, 80, 58
2, 408612, Note_on_c, 0, 73, 59
2, 408617, Note_on_c, 0, 56, 49
2, 408645, Note_off_c, 0, 66, 64
2, 408664, Control_c, 0, 64, 0
2, 408714, Control_c, 0, 64, 127
2, 408817, Note_off_c, 0, 80, 64
2, 408823, Note_on_c, 0, 75, 58
2, 408845, Note_off_c, 0, 73, 64
2, 408898, Note_on_c, 0, 78, 58
2, 408916, Note_off_c, 0, 75, 64
2, 408980, Note_on_c, 0, 76, 51
2, 409004, Note_off_c, 0, 78, 64
2, 409050, Note_on_c, 0, 75, 54
2, 409068, Note_off_c, 0, 76, 64
2, 409136, Note_on_c, 0, 82, 64
2, 409138, Note_on_c, 0, 79, 51
2, 409143, Note_on_c, 0, 73, 62
2, 409150, Control_c, 0, 64, 0
2, 409154, Note_off_c, 0, 75, 64
2, 409154, Control_c, 0, 64, 0
2, 409190, Control_c, 0, 64, 127
2, 409196, Control_c, 0, 64, 127
2, 409216, Note_on_c, 0, 70, 71
2, 409222, Note_off_c, 0, 73, 64
2, 409298, Note_off_c, 0, 64, 64
2, 409314, Note_on_c, 0, 75, 65
2, 409321, Note_on_c, 0, 63, 42
2, 409324, Control_c, 0, 64, 0
2, 409329, Note_off_c, 0, 70, 64
2, 409369, Control_c, 0, 64, 127
2, 409399, Note_off_c, 0, 56, 64
2, 409498, Note_on_c, 0, 70, 55
2, 409510, Note_off_c, 0, 63, 64
2, 409556, Note_off_c, 0, 70, 64
2, 409598, Note_off_c, 0, 82, 64
2, 409600, Note_off_c, 0, 79, 64
2, 409600, Note_on_c, 0, 73, 59
2, 409632, Note_off_c, 0, 75, 64
2, 409714, Note_on_c, 0, 72, 47
2, 409747, Note_off_c, 0, 73, 64
2, 409763, Note_on_c, 0, 56, 26
2, 409763, Note_on_c, 0, 84, 63
2, 409782, Control_c, 0, 64, 0
2, 409787, Note_on_c, 0, 63, 3
2, 409823, Control_c, 0, 64, 127
2, 409834, Note_on_c, 0, 82, 66
2, 409844, Note_off_c, 0, 84, 64
2, 409914, Control_c, 0, 64, 0
2, 409931, Note_on_c, 0, 80, 40
2, 409940, Note_off_c, 0, 82, 64
2, 409950, Note_off_c, 0, 72, 64
2, 409958, Control_c, 0, 64, 127
2, 410102, Note_on_c, 0, 75, 43
2, 410117, Note_off_c, 0, 80, 64
2, 410284, Note_on_c, 0, 72, 46
2, 410304, Note_off_c, 0, 75, 64
2, 410363, Note_on_c, 0, 68, 44
2, 410412, Note_off_c, 0, 72, 64
2, 410428, Control_c, 0, 64, 0
2, 410446, Note_on_c, 0, 75, 57
2, 410456, Control_c, 0, 64, 127
2, 410518, Note_off_c, 0, 68, 64
2, 410637, Note_on_c, 0, 80, 52
2, 410696, Note_off_c, 0, 75, 64
2, 410826, Note_on_c, 0, 84, 62
2, 410830, Note_off_c, 0, 80, 64
2, 410833, Control_c, 0, 64, 0
2, 410857, Control_c, 0, 64, 127
2, 410862, Note_off_c, 0, 63, 64
2, 410895, Note_on_c, 0, 82, 60
2, 410909, Note_off_c, 0, 84, 64
2, 410937, Note_off_c, 0, 56, 64
2, 410987, Note_on_c, 0, 80, 59
2, 411000, Control_c, 0, 64, 0
2, 411006, Note_off_c, 0, 82, 64
2, 411019, Control_c, 0, 64, 127
2, 411169, Note_on_c, 0, 75, 55
2, 411194, Note_off_c, 0, 80, 64
2, 411363, Note_on_c, 0, 72, 50
2, 411376, Note_off_c, 0, 75, 64
2, 411439, Note_on_c, 0, 68, 43
2, 411457, Note_off_c, 0, 72, 64
2, 411561, Note_on_c, 0, 75, 32
2, 411570, Control_c, 0, 64, 0
2, 411590, Note_off_c, 0, 68, 64
2, 411603, Control_c, 0, 64, 127
2, 411818, Note_on_c, 0, 80, 44
2, 411824, Note_off_c, 0, 75, 64
2, 412024, Note_off_c, 0, 80, 64
2, 412045, Note_on_c, 0, 47, 46
2, 412050, Note_on_c, 0, 75, 46
2, 412067, Control_c, 0, 64, 0
2, 412080, Control_c, 0, 64, 127
2, 412135, Note_on_c, 0, 73, 47
2, 412152, Note_off_c, 0, 75, 64
2, 412186, Note_off_c, 0, 47, 64
2, 412225, Note_on_c, 0, 71, 47
2, 412227, Note_on_c, 0, 63, 39
2, 412227, Note_on_c, 0, 54, 31
2, 412235, Control_c, 0, 64, 0
2, 412237, Note_off_c, 0, 73, 64
2, 412271, Control_c, 0, 64, 127
2, 412309, Note_off_c, 0, 54, 64
2, 412309, Note_off_c, 0, 63, 64
2, 412388, Note_on_c, 0, 59, 28
2, 412388, Note_on_c, 0, 56, 28
2, 412390, Note_on_c, 0, 64, 33
2, 412394, Note_on_c, 0, 68, 46
2, 412421, Note_off_c, 0, 71, 64
2, 412470, Note_off_c, 0, 56, 64
2, 412470, Note_off_c, 0, 59, 64
2, 412472, Note_off_c, 0, 64, 64
2, 412551, Note_on_c, 0, 66, 50
2, 412551, Note_on_c, 0, 47, 27
2, 412563, Note_off_c, 0, 68, 64
2, 412565, Control_c, 0, 64, 0
2, 412601, Control_c, 0, 64, 127
2, 412621, Note_on_c, 0, 63, 47
2, 412636, Note_off_c, 0, 66, 64
2, 412692, Note_off_c, 0, 47, 64
2, 412692, Note_on_c, 0, 59, 42
2, 412692, Note_on_c, 0, 54, 48
2, 412693, Note_on_c, 0, 66, 55
2, 412693, Control_c, 0, 64, 0
2, 412701, Note_off_c, 0, 63, 64
2, 412738, Control_c, 0, 64, 127
2, 412774, Note_off_c, 0, 54, 64
2, 412774, Note_off_c, 0, 59, 64
2, 412848, Note_on_c, 0, 63, 29
2, 412852, Note_on_c, 0, 59, 35
2, 412853, Note_on_c, 0, 71, 44
2, 412853, Note_on_c, 0, 54, 33
2, 412866, Note_off_c, 0, 66, 64
2, 412930, Note_off_c, 0, 63, 64
2, 412934, Note_off_c, 0, 59, 64
2, 412935, Note_off_c, 0, 54, 64
2, 412990, Note_on_c, 0, 47, 58
2, 412999, Control_c, 0, 64, 0
2, 413003, Note_on_c, 0, 75, 51
2, 413026, Control_c, 0, 64, 127
2, 413028, Note_off_c, 0, 71, 64
2, 413056, Note_on_c, 0, 73, 55
2, 413067, Note_off_c, 0, 75, 64
2, 413131, Note_off_c, 0, 47, 64
2, 413131, Note_on_c, 0, 54, 33
2, 413137, Note_on_c, 0, 71, 51
2, 413141, Note_off_c, 0, 73, 64
2, 413143, Note_on_c, 0, 63, 41
2, 413151, Control_c, 0, 64, 0
2, 413164, Control_c, 0, 64, 127
2, 413213, Note_off_c, 0, 54, 64
2, 413225, Note_off_c, 0, 63, 64
2, 413283, Note_on_c, 0, 64, 41
2, 413290, Note_on_c, 0, 68, 49
2, 413290, Note_on_c, 0, 56, 37
2, 413294, Note_on_c, 0, 59, 39
2, 413298, Note_off_c, 0, 71, 64
2, 413306, Control_c, 0, 64, 0
2, 413320, Control_c, 0, 64, 127
2, 413365, Note_off_c, 0, 64, 64
2, 413372, Note_off_c, 0, 56, 64
2, 413376, Note_off_c, 0, 59, 64
2, 413429, Note_on_c, 0, 66, 52
2, 413434, Note_on_c, 0, 47, 57
2, 413438, Note_off_c, 0, 68, 64
2, 413442, Control_c, 0, 64, 0
2, 413456, Control_c, 0, 64, 127
2, 413490, Note_on_c, 0, 63, 55
2, 413514, Note_off_c, 0, 66, 64
2, 413565, Note_on_c, 0, 66, 63
2, 413568, Note_on_c, 0, 54, 52
2, 413569, Note_on_c, 0, 59, 46
2, 413570, Control_c, 0, 64, 0
2, 413575, Note_off_c, 0, 47, 64
2, 413588, Note_off_c, 0, 63, 64
2, 413596, Control_c, 0, 64, 127
2, 413650, Note_off_c, 0, 54, 64
2, 413651, Note_off_c, 0, 59, 64
2, 413707, Note_on_c, 0, 71, 56
2, 413712, Note_off_c, 0, 66, 64
2, 413716, Note_on_c, 0, 63, 36
2, 413716, Note_on_c, 0, 54, 41
2, 413723, Note_on_c, 0, 59, 39
2, 413798, Note_off_c, 0, 54, 64
2, 413798, Note_off_c, 0, 63, 64
2, 413805, Note_off_c, 0, 59, 64
2, 413851, Control_c, 0, 64, 0
2, 413857, Note_on_c, 0, 49, 57
2, 413858, Note_on_c, 0, 75, 56
2, 413877, Note_off_c, 0, 71, 64
2, 413878, Control_c, 0, 64, 127
2, 413913, Note_on_c, 0, 73, 51
2, 413928, Note_off_c, 0, 75, 64
2, 413974, Control_c, 0, 64, 0
2, 413986, Note_on_c, 0, 71, 52
2, 413992, Note_on_c, 0, 59, 42
2, 413995, Note_off_c, 0, 73, 64
2, 413996, Note_on_c, 0, 65, 41
2, 413998, Note_off_c, 0, 49, 64
2, 414005, Control_c, 0, 64, 127
2, 414074, Note_off_c, 0, 59, 64
2, 414078, Note_off_c, 0, 65, 64
2, 414140, Note_on_c, 0, 68, 62
2, 414145, Note_on_c, 0, 65, 29
2, 414155, Note_on_c, 0, 59, 41
2, 414161, Note_off_c, 0, 71, 64
2, 414227, Note_off_c, 0, 65, 64
2, 414237, Note_off_c, 0, 59, 64
2, 414280, Note_on_c, 0, 66, 60
2, 414283, Note_on_c, 0, 42, 65
2, 414287, Note_off_c, 0, 68, 64
2, 414290, Control_c, 0, 64, 0
2, 414305, Control_c, 0, 64, 127
2, 414348, Note_on_c, 0, 61, 52
2, 414364, Note_off_c, 0, 66, 64
2, 414403, Note_on_c, 0, 66, 63
2, 414404, Note_on_c, 0, 58, 57
2, 414411, Control_c, 0, 64, 0
2, 414421, Note_off_c, 0, 61, 64
2, 414424, Note_off_c, 0, 42, 64
2, 414443, Control_c, 0, 64, 127
2, 414486, Note_off_c, 0, 58, 64
2, 414554, Note_on_c, 0, 58, 59
2, 414562, Note_on_c, 0, 70, 54
2, 414564, Note_on_c, 0, 49, 48
2, 414580, Note_off_c, 0, 66, 64
2, 414636, Note_off_c, 0, 58, 64
2, 414646, Note_off_c, 0, 49, 64
2, 414694, Control_c, 0, 64, 0
2, 414701, Note_on_c, 0, 75, 58
2, 414701, Note_on_c, 0, 37, 66
2, 414721, Control_c, 0, 64, 127
2, 414722, Note_off_c, 0, 70, 64
2, 414764, Note_on_c, 0, 73, 54
2, 414784, Note_off_c, 0, 75, 64
2, 414802, Control_c, 0, 64, 0
2, 414826, Note_on_c, 0, 59, 32
2, 414834, Note_on_c, 0, 71, 64
2, 414839, Note_on_c, 0, 65, 32
2, 414842, Note_off_c, 0, 37, 64
2, 414845, Control_c, 0, 64, 127
2, 414852, Note_off_c, 0, 73, 64
2, 414908, Note_off_c, 0, 59, 64
2, 414921, Note_off_c, 0, 65, 64
2, 414974, Note_on_c, 0, 68, 65
2, 414980, Note_on_c, 0, 65, 43
2, 414983, Note_on_c, 0, 59, 48
2, 414986, Note_off_c, 0, 71, 64
2, 415062, Note_off_c, 0, 65, 64
2, 415065, Note_off_c, 0, 59, 64
2, 415110, Note_on_c, 0, 42, 71
2, 415115, Note_on_c, 0, 66, 54
2, 415121, Note_off_c, 0, 68, 64
2, 415172, Note_on_c, 0, 61, 59
2, 415196, Note_off_c, 0, 66, 64
2, 415235, Note_on_c, 0, 66, 66
2, 415236, Note_on_c, 0, 64, 48
2, 415241, Note_on_c, 0, 54, 56
2, 415242, Note_on_c, 0, 58, 49
2, 415249, Note_off_c, 0, 61, 64
2, 415251, Note_off_c, 0, 42, 64
2, 415251, Control_c, 0, 64, 0
2, 415282, Control_c, 0, 64, 127
2, 415318, Note_off_c, 0, 64, 64
2, 415323, Note_off_c, 0, 54, 64
2, 415324, Note_off_c, 0, 58, 64
2, 415402, Note_on_c, 0, 54, 41
2, 415405, Note_on_c, 0, 64, 56
2, 415411, Note_on_c, 0, 70, 63
2, 415423, Note_off_c, 0, 66, 64
2, 415484, Note_off_c, 0, 54, 64
2, 415487, Note_off_c, 0, 64, 64
2, 415569, Note_on_c, 0, 47, 64
2, 415573, Note_on_c, 0, 75, 63
2, 415583, Control_c, 0, 64, 0
2, 415595, Control_c, 0, 64, 127
2, 415604, Note_off_c, 0, 70, 64
2, 415621, Note_on_c, 0, 73, 60
2, 415641, Note_off_c, 0, 75, 64
2, 415696, Note_on_c, 0, 63, 46
2, 415698, Note_on_c, 0, 71, 64
2, 415703, Note_on_c, 0, 54, 39
2, 415708, Note_off_c, 0, 73, 64
2, 415710, Note_off_c, 0, 47, 64
2, 415712, Control_c, 0, 64, 0
2, 415726, Control_c, 0, 64, 127
2, 415778, Note_off_c, 0, 63, 64
2, 415785, Note_off_c, 0, 54, 64
2, 415841, Control_c, 0, 64, 0
2, 415850, Note_on_c, 0, 64, 42
2, 415850, Note_on_c, 0, 56, 49
2, 415857, Note_on_c, 0, 68, 71
2, 415857, Note_on_c, 0, 59, 46
2, 415868, Control_c, 0, 64, 127
2, 415873, Note_off_c, 0, 71, 64
2, 415932, Note_off_c, 0, 56, 64
2, 415932, Note_off_c, 0, 64, 64
2, 415939, Note_off_c, 0, 59, 64
2, 415984, Note_on_c, 0, 66, 62
2, 415990, Note_on_c, 0, 47, 66
2, 416000, Note_off_c, 0, 68, 64
2, 416044, Note_on_c, 0, 63, 50
2, 416061, Note_off_c, 0, 66, 64
2, 416110, Control_c, 0, 64, 0
2, 416116, Note_on_c, 0, 66, 77
2, 416116, Note_on_c, 0, 54, 57
2, 416120, Note_on_c, 0, 59, 25
2, 416131, Note_off_c, 0, 47, 64
2, 416139, Note_off_c, 0, 63, 64
2, 416143, Control_c, 0, 64, 127
2, 416198, Note_off_c, 0, 54, 64
2, 416202, Note_off_c, 0, 59, 64
2, 416247, Note_on_c, 0, 63, 49
2, 416254, Note_on_c, 0, 54, 46
2, 416256, Note_on_c, 0, 59, 48
2, 416263, Note_on_c, 0, 71, 67
2, 416284, Note_off_c, 0, 66, 64
2, 416329, Note_off_c, 0, 63, 64
2, 416336, Note_off_c, 0, 54, 64
2, 416338, Note_off_c, 0, 59, 64
2, 416382, Note_on_c, 0, 47, 70
2, 416384, Note_on_c, 0, 75, 67
2, 416407, Note_off_c, 0, 71, 64
2, 416436, Note_on_c, 0, 73, 69
2, 416458, Note_off_c, 0, 75, 64
2, 416511, Note_on_c, 0, 63, 62
2, 416515, Note_on_c, 0, 71, 69
2, 416515, Control_c, 0, 64, 0
2, 416521, Note_on_c, 0, 54, 25
2, 416523, Note_off_c, 0, 47, 64
2, 416527, Note_off_c, 0, 73, 64
2, 416534, Control_c, 0, 64, 127
2, 416593, Note_off_c, 0, 63, 64
2, 416603, Note_off_c, 0, 54, 64
2, 416662, Note_on_c, 0, 64, 51
2, 416663, Control_c, 0, 64, 0
2, 416671, Note_off_c, 0, 71, 64
2, 416671, Note_on_c, 0, 68, 69
2, 416671, Note_on_c, 0, 59, 51
2, 416671, Note_on_c, 0, 56, 50
2, 416697, Control_c, 0, 64, 127
2, 416744, Note_off_c, 0, 64, 64
2, 416753, Note_off_c, 0, 56, 64
2, 416753, Note_off_c, 0, 59, 64
2, 416784, Control_c, 0, 64, 0
2, 416791, Note_on_c, 0, 47, 71
2, 416793, Note_on_c, 0, 66, 69
2, 416802, Control_c, 0, 64, 127
2, 416814, Note_off_c, 0, 68, 64
2, 416852, Note_on_c, 0, 63, 64
2, 416875, Note_off_c, 0, 66, 64
2, 416899, Note_on_c, 0, 59, 51
2, 416900, Note_on_c, 0, 54, 59
2, 416912, Note_on_c, 0, 66, 78
2, 416918, Control_c, 0, 64, 0
2, 416923, Note_off_c, 0, 63, 64
2, 416932, Note_off_c, 0, 47, 64
2, 416943, Control_c, 0, 64, 127
2, 416981, Note_off_c, 0, 59, 64
2, 416982, Note_off_c, 0, 54, 64
2, 417057, Note_on_c, 0, 63, 46
2, 417059, Note_on_c, 0, 54, 46
2, 417062, Note_on_c, 0, 71, 65
2, 417066, Note_on_c, 0, 59, 46
2, 417085, Note_off_c, 0, 66, 64
2, 417139, Note_off_c, 0, 63, 64
2, 417141, Note_off_c, 0, 54, 64
2, 417148, Note_off_c, 0, 59, 64
2, 417188, Control_c, 0, 64, 0
2, 417195, Note_on_c, 0, 75, 69
2, 417195, Note_on_c, 0, 44, 73
2, 417205, Note_off_c, 0, 71, 64
2, 417214, Control_c, 0, 64, 127
2, 417251, Note_on_c, 0, 73, 62
2, 417268, Note_off_c, 0, 75, 64
2, 417313, Note_on_c, 0, 56, 51
2, 417314, Note_on_c, 0, 59, 54
2, 417319, Note_on_c, 0, 71, 65
2, 417319, Note_on_c, 0, 51, 50
2, 417319, Control_c, 0, 64, 0
2, 417336, Note_off_c, 0, 44, 64
2, 417336, Control_c, 0, 64, 127
2, 417345, Note_off_c, 0, 73, 64
2, 417395, Note_off_c, 0, 56, 64
2, 417396, Note_off_c, 0, 59, 64
2, 417401, Note_off_c, 0, 51, 64
2, 417459, Note_on_c, 0, 61, 44
2, 417463, Note_on_c, 0, 68, 69
2, 417465, Note_on_c, 0, 52, 51
2, 417473, Note_on_c, 0, 56, 49
2, 417473, Control_c, 0, 64, 0
2, 417482, Note_off_c, 0, 71, 64
2, 417494, Control_c, 0, 64, 127
2, 417541, Note_off_c, 0, 61, 64
2, 417547, Note_off_c, 0, 52, 64
2, 417555, Note_off_c, 0, 56, 64
2, 417610, Note_on_c, 0, 44, 69
2, 417615, Note_on_c, 0, 63, 69
2, 417631, Control_c, 0, 64, 0
2, 417636, Note_off_c, 0, 68, 64
2, 417649, Control_c, 0, 64, 127
2, 417670, Note_on_c, 0, 59, 66
2, 417690, Note_off_c, 0, 63, 64
2, 417726, Note_off_c, 0, 59, 64
2, 417729, Control_c, 0, 64, 0
2, 417735, Note_on_c, 0, 68, 67
2, 417735, Note_on_c, 0, 56, 62
2, 417735, Note_on_c, 0, 51, 58
2, 417736, Note_on_c, 0, 59, 46
2, 417751, Note_off_c, 0, 44, 64
2, 417769, Control_c, 0, 64, 127
2, 417817, Note_off_c, 0, 51, 64
2, 417817, Note_off_c, 0, 56, 64
2, 417818, Note_off_c, 0, 59, 64
2, 417880, Note_on_c, 0, 71, 63
2, 417882, Note_on_c, 0, 56, 56
2, 417884, Note_on_c, 0, 59, 46
2, 417889, Note_on_c, 0, 51, 49
2, 417898, Note_off_c, 0, 68, 64
2, 417964, Note_off_c, 0, 56, 64
2, 417966, Note_off_c, 0, 59, 64
2, 417971, Note_off_c, 0, 51, 64
2, 418010, Control_c, 0, 64, 0
2, 418018, Note_on_c, 0, 44, 73
2, 418018, Note_on_c, 0, 75, 62
2, 418039, Control_c, 0, 64, 127
2, 418040, Note_off_c, 0, 71, 64
2, 418076, Note_on_c, 0, 73, 66
2, 418093, Note_off_c, 0, 75, 64
2, 418137, Note_on_c, 0, 59, 47
2, 418141, Note_on_c, 0, 51, 49
2, 418142, Control_c, 0, 64, 0
2, 418150, Note_on_c, 0, 56, 40
2, 418154, Note_on_c, 0, 71, 64
2, 418159, Note_off_c, 0, 44, 64
2, 418161, Note_off_c, 0, 73, 64
2, 418161, Control_c, 0, 64, 127
2, 418219, Note_off_c, 0, 59, 64
2, 418223, Note_off_c, 0, 51, 64
2, 418232, Note_off_c, 0, 56, 64
2, 418312, Note_on_c, 0, 61, 42
2, 418312, Note_on_c, 0, 52, 46
2, 418316, Note_on_c, 0, 68, 67
2, 418316, Note_on_c, 0, 56, 46
2, 418339, Note_off_c, 0, 71, 64
2, 418394, Note_off_c, 0, 52, 64
2, 418394, Note_off_c, 0, 61, 64
2, 418398, Note_off_c, 0, 56, 64
2, 418446, Note_on_c, 0, 63, 58
2, 418453, Note_on_c, 0, 44, 57
2, 418463, Note_off_c, 0, 68, 64
2, 418466, Control_c, 0, 64, 0
2, 418501, Control_c, 0, 64, 127
2, 418514, Note_on_c, 0, 59, 40
2, 418531, Note_off_c, 0, 63, 64
2, 418589, Control_c, 0, 64, 0
2, 418594, Note_off_c, 0, 44, 64
2, 418596, Note_off_c, 0, 59, 64
2, 418597, Note_on_c, 0, 68, 62
2, 418606, Note_on_c, 0, 56, 42
2, 418610, Note_on_c, 0, 59, 49
2, 418615, Note_on_c, 0, 51, 26
2, 418623, Control_c, 0, 64, 127
2, 418688, Note_off_c, 0, 56, 64
2, 418692, Note_off_c, 0, 59, 64
2, 418697, Note_off_c, 0, 51, 64
2, 418765, Note_on_c, 0, 44, 47
2, 418776, Note_on_c, 0, 71, 56
2, 418794, Note_off_c, 0, 68, 64
2, 418906, Note_off_c, 0, 44, 64
2, 418960, Note_on_c, 0, 42, 49
2, 419000, Note_on_c, 0, 73, 69
2, 419000, Control_c, 0, 64, 0
2, 419015, Note_off_c, 0, 71, 64
2, 419026, Control_c, 0, 64, 127
2, 419154, Note_off_c, 0, 42, 64
2, 419183, Note_on_c, 0, 54, 28
2, 419199, Note_on_c, 0, 64, 46
2, 419199, Note_on_c, 0, 58, 23
2, 419265, Note_off_c, 0, 54, 64
2, 419281, Note_off_c, 0, 58, 64
2, 419281, Note_off_c, 0, 64, 64
2, 419342, Note_on_c, 0, 58, 49
2, 419348, Note_on_c, 0, 64, 34
2, 419354, Note_on_c, 0, 54, 29
2, 419424, Note_off_c, 0, 58, 64
2, 419430, Note_off_c, 0, 64, 64
2, 419436, Note_off_c, 0, 54, 64
2, 419513, Note_on_c, 0, 35, 67
2, 419516, Control_c, 0, 64, 0
2, 419523, Note_on_c, 0, 75, 71
2, 419541, Note_off_c, 0, 73, 64
2, 419545, Control_c, 0, 64, 127
2, 419707, Note_off_c, 0, 35, 64
2, 419721, Note_on_c, 0, 69, 42
2, 419725, Note_on_c, 0, 57, 37
2, 419729, Note_on_c, 0, 63, 40
2, 419732, Note_on_c, 0, 59, 51
2, 419920, Note_on_c, 0, 73, 81
2, 419948, Note_off_c, 0, 75, 64
2, 419961, Note_off_c, 0, 69, 64
2, 419965, Note_off_c, 0, 57, 64
2, 419969, Note_off_c, 0, 63, 64
2, 419972, Note_off_c, 0, 59, 64
2, 420038, Note_on_c, 0, 75, 66
2, 420054, Note_off_c, 0, 73, 64
2, 420082, Note_on_c, 0, 73, 93
2, 420092, Note_on_c, 0, 47, 64
2, 420092, Control_c, 0, 64, 0
2, 420105, Note_off_c, 0, 75, 64
2, 420116, Control_c, 0, 64, 127
2, 420187, Note_on_c, 0, 71, 64
2, 420197, Note_off_c, 0, 73, 64
2, 420256, Note_on_c, 0, 57, 46
2, 420260, Note_on_c, 0, 80, 85
2, 420264, Note_on_c, 0, 59, 47
2, 420266, Note_on_c, 0, 63, 37
2, 420269, Note_on_c, 0, 69, 34
2, 420286, Note_off_c, 0, 47, 64
2, 420302, Note_off_c, 0, 71, 64
2, 420338, Note_off_c, 0, 57, 64
2, 420346, Note_off_c, 0, 59, 64
2, 420348, Note_off_c, 0, 63, 64
2, 420351, Note_off_c, 0, 69, 64
2, 420408, Note_on_c, 0, 59, 46
2, 420408, Note_on_c, 0, 57, 46
2, 420410, Note_on_c, 0, 69, 57
2, 420420, Note_on_c, 0, 63, 41
2, 420490, Note_off_c, 0, 57, 64
2, 420490, Note_off_c, 0, 59, 64
2, 420490, Note_on_c, 0, 78, 74
2, 420492, Note_off_c, 0, 69, 64
2, 420499, Note_off_c, 0, 80, 64
2, 420502, Note_off_c, 0, 63, 64
2, 420548, Note_off_c, 0, 78, 64
2, 420567, Note_on_c, 0, 40, 65
2, 420577, Note_on_c, 0, 78, 66
2, 420589, Control_c, 0, 64, 0
2, 420600, Control_c, 0, 64, 127
2, 420652, Note_on_c, 0, 77, 72
2, 420673, Note_off_c, 0, 78, 64
2, 420728, Note_on_c, 0, 59, 43
2, 420728, Note_on_c, 0, 56, 43
2, 420730, Note_on_c, 0, 76, 75
2, 420736, Note_on_c, 0, 68, 28
2, 420747, Note_off_c, 0, 77, 64
2, 420761, Note_off_c, 0, 40, 64
2, 420902, Note_on_c, 0, 42, 58
2, 420904, Control_c, 0, 64, 0
2, 420915, Note_off_c, 0, 56, 64
2, 420915, Note_off_c, 0, 59, 64
2, 420920, Control_c, 0, 64, 127
2, 420923, Note_off_c, 0, 68, 64
2, 421064, Note_on_c, 0, 44, 34
2, 421074, Note_on_c, 0, 75, 58
2, 421083, Note_off_c, 0, 42, 64
2, 421091, Control_c, 0, 64, 0
2, 421092, Note_off_c, 0, 76, 64
2, 421116, Control_c, 0, 64, 127
2, 421149, Note_on_c, 0, 73, 58
2, 421172, Note_off_c, 0, 75, 64
2, 421222, Note_on_c, 0, 72, 58
2, 421236, Note_off_c, 0, 73, 64
2, 421240, Note_on_c, 0, 66, 33
2, 421240, Note_on_c, 0, 63, 39
2, 421240, Note_on_c, 0, 56, 49
2, 421258, Note_off_c, 0, 44, 64
2, 421322, Note_off_c, 0, 56, 64
2, 421322, Note_off_c, 0, 63, 64
2, 421322, Note_off_c, 0, 66, 64
2, 421360, Note_on_c, 0, 60, 39
2, 421361, Note_on_c, 0, 73, 62
2, 421366, Note_on_c, 0, 66, 39
2, 421368, Note_on_c, 0, 56, 49
2, 421375, Note_off_c, 0, 72, 64
2, 421434, Note_on_c, 0, 75, 52
2, 421442, Note_off_c, 0, 60, 64
2, 421448, Note_off_c, 0, 66, 64
2, 421450, Note_off_c, 0, 56, 64
2, 421453, Note_off_c, 0, 73, 64
2, 421510, Note_on_c, 0, 68, 58
2, 421539, Note_off_c, 0, 75, 64
2, 421641, Control_c, 0, 64, 0
2, 421648, Note_on_c, 0, 56, 42
2, 421652, Note_on_c, 0, 61, 50
2, 421660, Note_on_c, 0, 64, 32
2, 421673, Control_c, 0, 64, 127
2, 421730, Note_off_c, 0, 56, 64
2, 421734, Note_off_c, 0, 61, 64
2, 421742, Note_off_c, 0, 64, 64
2, 421781, Note_on_c, 0, 49, 44
2, 421791, Note_on_c, 0, 73, 58
2, 421802, Control_c, 0, 64, 0
2, 421810, Note_off_c, 0, 68, 64
2, 421817, Control_c, 0, 64, 127
2, 421870, Note_off_c, 0, 49, 64
2, 421938, Note_on_c, 0, 75, 49
2, 421968, Note_off_c, 0, 73, 64
2, 421998, Note_on_c, 0, 73, 62
2, 422017, Note_off_c, 0, 75, 64
2, 422068, Control_c, 0, 64, 0
2, 422077, Note_on_c, 0, 72, 58
2, 422077, Note_on_c, 0, 63, 59
2, 422077, Note_on_c, 0, 56, 48
2, 422086, Note_on_c, 0, 66, 47
2, 422098, Note_off_c, 0, 73, 64
2, 422105, Control_c, 0, 64, 127
2, 422159, Note_off_c, 0, 56, 64
2, 422159, Note_off_c, 0, 63, 64
2, 422168, Note_off_c, 0, 66, 64
2, 422216, Control_c, 0, 64, 0
2, 422220, Note_on_c, 0, 66, 36
2, 422224, Note_on_c, 0, 56, 34
2, 422225, Note_on_c, 0, 73, 62
2, 422231, Note_on_c, 0, 60, 52
2, 422239, Control_c, 0, 64, 127
2, 422243, Note_off_c, 0, 72, 64
2, 422292, Note_on_c, 0, 75, 54
2, 422302, Note_off_c, 0, 66, 64
2, 422306, Note_off_c, 0, 56, 64
2, 422309, Note_off_c, 0, 73, 64
2, 422313, Note_off_c, 0, 60, 64
2, 422361, Note_on_c, 0, 49, 48
2, 422367, Note_on_c, 0, 78, 54
2, 422384, Control_c, 0, 64, 0
2, 422398, Note_off_c, 0, 75, 64
2, 422398, Control_c, 0, 64, 127
2, 422502, Note_off_c, 0, 49, 64
2, 422514, Note_on_c, 0, 64, 25
2, 422514, Note_on_c, 0, 56, 24
2, 422515, Note_on_c, 0, 61, 39
2, 422537, Control_c, 0, 64, 0
2, 422561, Control_c, 0, 64, 127
2, 422596, Note_off_c, 0, 56, 64
2, 422596, Note_off_c, 0, 64, 64
2, 422597, Note_off_c, 0, 61, 64
2, 422662, Note_on_c, 0, 76, 48
2, 422669, Note_on_c, 0, 56, 32
2, 422673, Note_on_c, 0, 61, 28
2, 422677, Note_off_c, 0, 78, 64
2, 422679, Note_on_c, 0, 64, 20
2, 422688, Control_c, 0, 64, 0
2, 422702, Control_c, 0, 64, 127
2, 422751, Note_off_c, 0, 56, 64
2, 422755, Note_off_c, 0, 61, 64
2, 422761, Note_off_c, 0, 64, 64
2, 422808, Note_on_c, 0, 68, 59
2, 422834, Note_off_c, 0, 76, 64
2, 422959, Note_on_c, 0, 56, 35
2, 422964, Note_on_c, 0, 61, 32
2, 422967, Note_on_c, 0, 71, 57
2, 422967, Note_on_c, 0, 64, 32
2, 422979, Note_off_c, 0, 68, 64
2, 422987, Control_c, 0, 64, 0
2, 423018, Control_c, 0, 64, 127
2, 423041, Note_off_c, 0, 56, 64
2, 423046, Note_off_c, 0, 61, 64
2, 423049, Note_off_c, 0, 64, 64
2, 423124, Note_on_c, 0, 55, 20
2, 423126, Note_on_c, 0, 64, 25
2, 423130, Note_on_c, 0, 61, 26
2, 423153, Control_c, 0, 64, 0
2, 423188, Control_c, 0, 64, 127
2, 423206, Note_off_c, 0, 55, 64
2, 423208, Note_off_c, 0, 64, 64
2, 423212, Note_off_c, 0, 61, 64
2, 423283, Note_on_c, 0, 70, 47
2, 423301, Note_off_c, 0, 71, 64
2, 423352, Note_on_c, 0, 71, 57
2, 423373, Note_off_c, 0, 70, 64
2, 423417, Note_on_c, 0, 54, 35
2, 423425, Note_on_c, 0, 58, 39
2, 423428, Note_on_c, 0, 73, 51
2, 423428, Note_on_c, 0, 64, 37
2, 423430, Control_c, 0, 64, 0
2, 423452, Note_off_c, 0, 71, 64
2, 423455, Control_c, 0, 64, 127
2, 423499, Note_off_c, 0, 54, 64
2, 423507, Note_off_c, 0, 58, 64
2, 423510, Note_off_c, 0, 64, 64
2, 423568, Note_on_c, 0, 54, 20
2, 423574, Note_on_c, 0, 64, 33
2, 423578, Note_on_c, 0, 59, 35
2, 423581, Note_on_c, 0, 68, 63
2, 423589, Control_c, 0, 64, 0
2, 423603, Control_c, 0, 64, 127
2, 423619, Note_off_c, 0, 73, 64
2, 423654, Note_on_c, 0, 70, 51
2, 423669, Note_off_c, 0, 68, 64
2, 423729, Note_on_c, 0, 66, 59
2, 423735, Note_off_c, 0, 70, 64
2, 423769, Note_off_c, 0, 54, 64
2, 423775, Note_off_c, 0, 64, 64
2, 423779, Note_off_c, 0, 59, 64
2, 423865, Note_on_c, 0, 54, 35
2, 423866, Note_on_c, 0, 61, 39
2, 423869, Note_on_c, 0, 64, 32
2, 423947, Note_off_c, 0, 54, 64
2, 423948, Note_off_c, 0, 61, 64
2, 423951, Note_off_c, 0, 64, 64
2, 424030, Note_on_c, 0, 64, 41
2, 424036, Note_on_c, 0, 54, 43
2, 424042, Note_on_c, 0, 71, 52
2, 424042, Note_on_c, 0, 56, 44
2, 424049, Control_c, 0, 64, 0
2, 424069, Note_off_c, 0, 66, 64
2, 424084, Control_c, 0, 64, 127
2, 424112, Note_off_c, 0, 64, 64
2, 424118, Note_off_c, 0, 54, 64
2, 424124, Note_off_c, 0, 56, 64
2, 424184, Control_c, 0, 64, 0
2, 424196, Note_on_c, 0, 70, 49
2, 424209, Control_c, 0, 64, 127
2, 424211, Note_off_c, 0, 71, 64
2, 424256, Note_on_c, 0, 71, 54
2, 424259, Note_off_c, 0, 70, 64
2, 424321, Control_c, 0, 64, 0
2, 424328, Note_on_c, 0, 58, 41
2, 424328, Note_on_c, 0, 54, 42
2, 424334, Note_on_c, 0, 73, 52
2, 424337, Note_on_c, 0, 64, 39
2, 424358, Note_off_c, 0, 71, 64
2, 424367, Control_c, 0, 64, 127
2, 424410, Note_off_c, 0, 54, 64
2, 424410, Note_off_c, 0, 58, 64
2, 424419, Note_off_c, 0, 64, 64
2, 424472, Note_on_c, 0, 54, 42
2, 424472, Control_c, 0, 64, 0
2, 424481, Note_on_c, 0, 68, 63
2, 424484, Note_on_c, 0, 64, 32
2, 424484, Note_on_c, 0, 59, 39
2, 424494, Control_c, 0, 64, 127
2, 424508, Note_off_c, 0, 73, 64
2, 424554, Note_off_c, 0, 54, 64
2, 424556, Note_on_c, 0, 70, 51
2, 424566, Note_off_c, 0, 59, 64
2, 424566, Note_off_c, 0, 64, 64
2, 424576, Note_off_c, 0, 68, 64
2, 424635, Note_on_c, 0, 66, 63
2, 424643, Note_off_c, 0, 70, 64
2, 424696, Note_on_c, 0, 75, 50
2, 424730, Note_off_c, 0, 66, 64
2, 424767, Note_on_c, 0, 73, 55
2, 424768, Note_on_c, 0, 54, 25
2, 424774, Note_off_c, 0, 75, 64
2, 424774, Note_on_c, 0, 58, 39
2, 424774, Control_c, 0, 64, 0
2, 424776, Note_on_c, 0, 64, 35
2, 424796, Control_c, 0, 64, 127
2, 424850, Note_off_c, 0, 54, 64
2, 424856, Note_off_c, 0, 58, 64
2, 424858, Note_off_c, 0, 64, 64
2, 424916, Note_on_c, 0, 59, 41
2, 424916, Control_c, 0, 64, 0
2, 424920, Note_on_c, 0, 68, 54
2, 424924, Note_on_c, 0, 64, 34
2, 424926, Note_on_c, 0, 54, 17
2, 424928, Note_off_c, 0, 73, 64
2, 424939, Control_c, 0, 64, 127
2, 424994, Note_on_c, 0, 70, 39
2, 424998, Note_off_c, 0, 59, 64
2, 425001, Note_off_c, 0, 68, 64
2, 425006, Note_off_c, 0, 64, 64
2, 425008, Note_off_c, 0, 54, 64
2, 425068, Note_on_c, 0, 64, 37
2, 425068, Note_on_c, 0, 54, 19
2, 425072, Note_on_c, 0, 66, 54
2, 425072, Note_on_c, 0, 58, 35
2, 425087, Note_off_c, 0, 70, 64
2, 425144, Note_on_c, 0, 75, 49
2, 425150, Note_off_c, 0, 54, 64
2, 425150, Note_off_c, 0, 64, 64
2, 425154, Note_off_c, 0, 58, 64
2, 425164, Note_off_c, 0, 66, 64
2, 425196, Note_on_c, 0, 64, 19
2, 425200, Note_on_c, 0, 73, 51
2, 425200, Note_on_c, 0, 58, 37
2, 425200, Note_on_c, 0, 54, 37
2, 425216, Note_off_c, 0, 75, 64
2, 425278, Note_off_c, 0, 64, 64
2, 425280, Note_on_c, 0, 68, 54
2, 425282, Note_off_c, 0, 54, 64
2, 425282, Note_off_c, 0, 58, 64
2, 425295, Note_off_c, 0, 73, 64
2, 425348, Note_on_c, 0, 70, 50
2, 425352, Note_on_c, 0, 64, 17
2, 425352, Note_on_c, 0, 59, 31
2, 425352, Note_on_c, 0, 54, 1
2, 425368, Note_off_c, 0, 68, 64
2, 425432, Note_on_c, 0, 68, 52
2, 425434, Note_off_c, 0, 54, 64
2, 425434, Note_off_c, 0, 59, 64
2, 425434, Note_off_c, 0, 64, 64
2, 425451, Note_off_c, 0, 70, 64
2, 425504, Note_on_c, 0, 66, 58
2, 425504, Note_on_c, 0, 58, 34
2, 425508, Note_on_c, 0, 54, 26
2, 425512, Note_on_c, 0, 64, 29
2, 425522, Control_c, 0, 64, 0
2, 425529, Note_off_c, 0, 68, 64
2, 425556, Control_c, 0, 64, 127
2, 425586, Note_off_c, 0, 58, 64
2, 425590, Note_off_c, 0, 54, 64
2, 425591, Note_on_c, 0, 75, 40
2, 425594, Note_off_c, 0, 64, 64
2, 425622, Note_off_c, 0, 66, 64
2, 425673, Note_on_c, 0, 73, 44
2, 425679, Control_c, 0, 64, 0
2, 425685, Note_on_c, 0, 58, 23
2, 425686, Note_on_c, 0, 54, 26
2, 425692, Note_off_c, 0, 75, 64
2, 425694, Note_on_c, 0, 64, 13
2, 425708, Control_c, 0, 64, 127
2, 425767, Note_off_c, 0, 58, 64
2, 425768, Note_off_c, 0, 54, 64
2, 425776, Note_off_c, 0, 64, 64
2, 425834, Note_on_c, 0, 66, 65
2, 425860, Note_off_c, 0, 73, 64
2, 426011, Note_on_c, 0, 80, 69
2, 426019, Note_on_c, 0, 42, 58
2, 426029, Control_c, 0, 64, 0
2, 426036, Note_off_c, 0, 66, 64
2, 426053, Control_c, 0, 64, 127
2, 426238, Note_on_c, 0, 70, 29
2, 426240, Note_on_c, 0, 64, 36
2, 426298, Note_off_c, 0, 42, 64
2, 426320, Note_off_c, 0, 70, 64
2, 426322, Note_off_c, 0, 64, 64
2, 426348, Note_on_c, 0, 78, 59
2, 426361, Note_off_c, 0, 80, 64
2, 426427, Note_on_c, 0, 77, 62
2, 426464, Note_off_c, 0, 78, 64
2, 426504, Note_on_c, 0, 76, 62
2, 426527, Note_off_c, 0, 77, 64
2, 426579, Control_c, 0, 64, 0
2, 426584, Note_on_c, 0, 75, 50
2, 426586, Note_on_c, 0, 47, 56
2, 426595, Note_off_c, 0, 76, 64
2, 426597, Control_c, 0, 64, 127
2, 426661, Note_on_c, 0, 73, 48
2, 426680, Note_off_c, 0, 75, 64
2, 426714, Control_c, 0, 64, 0
2, 426723, Note_on_c, 0, 63, 59
2, 426727, Note_off_c, 0, 47, 64
2, 426731, Note_on_c, 0, 71, 64
2, 426733, Note_on_c, 0, 54, 34
2, 426743, Note_off_c, 0, 73, 64
2, 426747, Control_c, 0, 64, 127
2, 426805, Note_off_c, 0, 63, 64
2, 426815, Note_off_c, 0, 54, 64
2, 426870, Note_on_c, 0, 68, 64
2, 426877, Note_on_c, 0, 64, 42
2, 426877, Note_on_c, 0, 56, 43
2, 426880, Note_off_c, 0, 71, 64
2, 426884, Note_on_c, 0, 59, 42
2, 426959, Note_off_c, 0, 56, 64
2, 426959, Note_off_c, 0, 64, 64
2, 426966, Note_off_c, 0, 59, 64
2, 427008, Note_on_c, 0, 66, 62
2, 427008, Note_on_c, 0, 47, 69
2, 427011, Control_c, 0, 64, 0
2, 427025, Note_off_c, 0, 68, 64
2, 427034, Control_c, 0, 64, 127
2, 427061, Note_on_c, 0, 63, 58
2, 427075, Note_off_c, 0, 66, 64
2, 427126, Note_on_c, 0, 54, 58
2, 427128, Note_on_c, 0, 59, 41
2, 427135, Note_on_c, 0, 66, 74
2, 427140, Control_c, 0, 64, 0
2, 427146, Note_off_c, 0, 63, 64
2, 427149, Note_off_c, 0, 47, 64
2, 427165, Control_c, 0, 64, 127
2, 427208, Note_off_c, 0, 54, 64
2, 427210, Note_off_c, 0, 59, 64
2, 427274, Note_on_c, 0, 71, 63
2, 427274, Note_on_c, 0, 63, 41
2, 427282, Note_on_c, 0, 54, 39
2, 427296, Note_off_c, 0, 66, 64
2, 427356, Note_off_c, 0, 63, 64
2, 427364, Note_off_c, 0, 54, 64
2, 427400, Note_on_c, 0, 47, 65
2, 427404, Note_on_c, 0, 75, 66
2, 427412, Control_c, 0, 64, 0
2, 427426, Note_off_c, 0, 71, 64
2, 427436, Control_c, 0, 64, 127
2, 427474, Note_on_c, 0, 73, 67
2, 427492, Note_off_c, 0, 75, 64
2, 427531, Note_on_c, 0, 63, 59
2, 427534, Control_c, 0, 64, 0
2, 427541, Note_off_c, 0, 47, 64
2, 427543, Note_on_c, 0, 54, 39
2, 427544, Note_on_c, 0, 71, 62
2, 427556, Note_off_c, 0, 73, 64
2, 427557, Control_c, 0, 64, 127
2, 427613, Note_off_c, 0, 63, 64
2, 427625, Note_off_c, 0, 54, 64
2, 427663, Note_on_c, 0, 68, 67
2, 427669, Note_on_c, 0, 64, 50
2, 427673, Note_off_c, 0, 71, 64
2, 427676, Note_on_c, 0, 59, 28
2, 427679, Note_on_c, 0, 56, 41
2, 427751, Note_off_c, 0, 64, 64
2, 427758, Note_off_c, 0, 59, 64
2, 427761, Note_off_c, 0, 56, 64
2, 427789, Note_on_c, 0, 66, 65
2, 427793, Note_on_c, 0, 47, 69
2, 427793, Control_c, 0, 64, 0
2, 427803, Note_off_c, 0, 68, 64
2, 427819, Control_c, 0, 64, 127
2, 427845, Note_on_c, 0, 63, 64
2, 427867, Note_off_c, 0, 66, 64
2, 427901, Note_on_c, 0, 54, 63
2, 427908, Note_on_c, 0, 59, 59
2, 427911, Control_c, 0, 64, 0
2, 427918, Note_on_c, 0, 66, 71
2, 427925, Note_off_c, 0, 63, 64
2, 427934, Note_off_c, 0, 47, 64
2, 427936, Control_c, 0, 64, 127
2, 427983, Note_off_c, 0, 54, 64
2, 427990, Note_off_c, 0, 59, 64
2, 428051, Note_on_c, 0, 71, 67
2, 428053, Note_on_c, 0, 63, 42
2, 428053, Note_on_c, 0, 59, 45
2, 428060, Note_off_c, 0, 66, 64
2, 428061, Note_on_c, 0, 54, 40
2, 428135, Note_off_c, 0, 59, 64
2, 428135, Note_off_c, 0, 63, 64
2, 428143, Note_off_c, 0, 54, 64
2, 428167, Control_c, 0, 64, 0
2, 428176, Note_on_c, 0, 75, 69
2, 428176, Note_on_c, 0, 49, 73
2, 428202, Note_off_c, 0, 71, 64
2, 428206, Control_c, 0, 64, 127
2, 428232, Note_on_c, 0, 73, 65
2, 428248, Note_off_c, 0, 75, 64
2, 428289, Note_on_c, 0, 59, 49
2, 428297, Note_on_c, 0, 71, 67
2, 428302, Note_on_c, 0, 65, 55
2, 428302, Control_c, 0, 64, 0
2, 428317, Note_off_c, 0, 49, 64
2, 428317, Control_c, 0, 64, 127
2, 428321, Note_off_c, 0, 73, 64
2, 428371, Note_off_c, 0, 59, 64
2, 428384, Note_off_c, 0, 65, 64
2, 428429, Note_on_c, 0, 65, 43
2, 428435, Note_on_c, 0, 68, 67
2, 428436, Note_on_c, 0, 59, 41
2, 428452, Note_off_c, 0, 71, 64
2, 428511, Note_off_c, 0, 65, 64
2, 428518, Note_off_c, 0, 59, 64
2, 428554, Note_on_c, 0, 66, 57
2, 428554, Control_c, 0, 64, 0
2, 428560, Note_on_c, 0, 42, 73
2, 428569, Note_off_c, 0, 68, 64
2, 428585, Control_c, 0, 64, 127
2, 428606, Note_on_c, 0, 61, 74
2, 428631, Note_off_c, 0, 66, 64
2, 428654, Control_c, 0, 64, 0
2, 428668, Note_on_c, 0, 58, 63
2, 428673, Note_on_c, 0, 66, 74
2, 428700, Control_c, 0, 64, 127
2, 428701, Note_off_c, 0, 42, 64
2, 428717, Note_off_c, 0, 61, 64
2, 428750, Note_off_c, 0, 58, 64
2, 428795, Note_on_c, 0, 58, 43
2, 428803, Note_on_c, 0, 70, 71
2, 428806, Note_on_c, 0, 49, 35
2, 428808, Note_off_c, 0, 66, 64
2, 428877, Note_off_c, 0, 58, 64
2, 428888, Note_off_c, 0, 49, 64
2, 428916, Note_on_c, 0, 75, 69
2, 428924, Note_on_c, 0, 37, 77
2, 428931, Control_c, 0, 64, 0
2, 428935, Note_off_c, 0, 70, 64
2, 428946, Control_c, 0, 64, 127
2, 428976, Note_on_c, 0, 73, 62
2, 428991, Note_off_c, 0, 75, 64
2, 429014, Control_c, 0, 64, 0
2, 429043, Note_on_c, 0, 71, 64
2, 429046, Note_on_c, 0, 65, 25
2, 429051, Control_c, 0, 64, 127
2, 429056, Note_on_c, 0, 59, 54
2, 429065, Note_off_c, 0, 37, 64
2, 429070, Note_off_c, 0, 73, 64
2, 429128, Note_off_c, 0, 65, 64
2, 429138, Note_off_c, 0, 59, 64
2, 429172, Note_on_c, 0, 68, 70
2, 429174, Note_on_c, 0, 65, 40
2, 429174, Note_on_c, 0, 59, 48
2, 429195, Note_off_c, 0, 71, 64
2, 429256, Note_off_c, 0, 59, 64
2, 429256, Note_off_c, 0, 65, 64
2, 429296, Note_on_c, 0, 42, 73
2, 429299, Note_on_c, 0, 66, 58
2, 429305, Control_c, 0, 64, 0
2, 429312, Note_off_c, 0, 68, 64
2, 429317, Control_c, 0, 64, 127
2, 429361, Note_on_c, 0, 61, 69
2, 429384, Note_off_c, 0, 66, 64
2, 429410, Control_c, 0, 64, 0
2, 429412, Note_on_c, 0, 64, 25
2, 429418, Note_on_c, 0, 66, 82
2, 429418, Note_on_c, 0, 58, 58
2, 429418, Note_on_c, 0, 54, 50
2, 429437, Note_off_c, 0, 42, 64
2, 429438, Note_off_c, 0, 61, 64
2, 429440, Control_c, 0, 64, 127
2, 429494, Note_off_c, 0, 64, 64
2, 429500, Note_off_c, 0, 54, 64
2, 429500, Note_off_c, 0, 58, 64
2, 429583, Note_on_c, 0, 70, 62
2, 429583, Note_on_c, 0, 54, 19
2, 429588, Note_off_c, 0, 66, 64
2, 429590, Note_on_c, 0, 64, 42
2, 429665, Note_off_c, 0, 54, 64
2, 429672, Note_off_c, 0, 64, 64
2, 429728, Note_on_c, 0, 47, 58
2, 429731, Note_on_c, 0, 75, 69
2, 429734, Control_c, 0, 64, 0
2, 429746, Note_off_c, 0, 70, 64
2, 429764, Control_c, 0, 64, 127
2, 429787, Note_on_c, 0, 73, 63
2, 429809, Note_off_c, 0, 75, 64
2, 429842, Control_c, 0, 64, 0
2, 429849, Note_on_c, 0, 63, 58
2, 429849, Note_on_c, 0, 54, 54
2, 429855, Note_on_c, 0, 71, 66
2, 429862, Control_c, 0, 64, 127
2, 429869, Note_off_c, 0, 47, 64
2, 429883, Note_off_c, 0, 73, 64
2, 429931, Note_off_c, 0, 54, 64
2, 429931, Note_off_c, 0, 63, 64
2, 429984, Note_on_c, 0, 56, 42
2, 429985, Note_on_c, 0, 70, 63
2, 429988, Note_on_c, 0, 64, 48
2, 429988, Note_on_c, 0, 59, 48
2, 430002, Note_off_c, 0, 71, 64
2, 430049, Note_on_c, 0, 68, 56
2, 430061, Note_off_c, 0, 70, 64
2, 430066, Note_off_c, 0, 56, 64
2, 430070, Note_off_c, 0, 59, 64
2, 430070, Note_off_c, 0, 64, 64
2, 430102, Note_on_c, 0, 66, 77
2, 430106, Control_c, 0, 64, 0
2, 430112, Note_on_c, 0, 47, 73
2, 430113, Note_off_c, 0, 68, 64
2, 430124, Control_c, 0, 64, 127
2, 430164, Note_on_c, 0, 63, 70
2, 430185, Note_off_c, 0, 66, 64
2, 430209, Control_c, 0, 64, 0
2, 430216, Note_on_c, 0, 54, 65
2, 430219, Note_on_c, 0, 59, 46
2, 430224, Note_on_c, 0, 66, 73
2, 430241, Control_c, 0, 64, 127
2, 430246, Note_off_c, 0, 63, 64
2, 430253, Note_off_c, 0, 47, 64
2, 430298, Note_off_c, 0, 54, 64
2, 430301, Note_off_c, 0, 59, 64
2, 430348, Note_on_c, 0, 63, 42
2, 430352, Note_on_c, 0, 59, 43
2, 430352, Note_on_c, 0, 54, 43
2, 430354, Note_on_c, 0, 71, 67
2, 430374, Note_off_c, 0, 66, 64
2, 430430, Note_off_c, 0, 63, 64
2, 430434, Note_off_c, 0, 54, 64
2, 430434, Note_off_c, 0, 59, 64
2, 430465, Note_on_c, 0, 47, 73
2, 430471, Note_on_c, 0, 75, 62
2, 430486, Note_off_c, 0, 71, 64
2, 430532, Note_on_c, 0, 73, 73
2, 430556, Note_off_c, 0, 75, 64
2, 430580, Note_on_c, 0, 54, 51
2, 430584, Note_on_c, 0, 63, 51
2, 430586, Note_on_c, 0, 71, 73
2, 430593, Note_off_c, 0, 73, 64
2, 430606, Note_off_c, 0, 47, 64
2, 430625, Note_on_c, 0, 73, 77
2, 430639, Note_off_c, 0, 71, 64
2, 430662, Note_off_c, 0, 54, 64
2, 430663, Note_on_c, 0, 71, 71
2, 430666, Note_off_c, 0, 63, 64
2, 430676, Note_off_c, 0, 73, 64
2, 430715, Note_on_c, 0, 56, 48
2, 430716, Note_on_c, 0, 70, 78
2, 430716, Note_on_c, 0, 64, 44
2, 430734, Note_off_c, 0, 71, 64
2, 430760, Note_on_c, 0, 68, 67
2, 430769, Note_off_c, 0, 70, 64
2, 430797, Note_off_c, 0, 56, 64
2, 430798, Note_off_c, 0, 64, 64
2, 430824, Note_on_c, 0, 47, 62
2, 430831, Note_on_c, 0, 66, 77
2, 430837, Control_c, 0, 64, 0
2, 430843, Note_off_c, 0, 68, 64
2, 430881, Control_c, 0, 64, 127
2, 430890, Note_on_c, 0, 63, 59
2, 430902, Note_off_c, 0, 66, 64
2, 430928, Control_c, 0, 64, 0
2, 430944, Note_on_c, 0, 66, 74
2, 430951, Note_off_c, 0, 63, 64
2, 430952, Note_on_c, 0, 54, 49
2, 430965, Note_off_c, 0, 47, 64
2, 430967, Control_c, 0, 64, 127
2, 430968, Note_on_c, 0, 63, 35
2, 431034, Note_off_c, 0, 54, 64
2, 431050, Note_off_c, 0, 63, 64
2, 431066, Note_on_c, 0, 63, 49
2, 431069, Note_on_c, 0, 54, 45
2, 431076, Note_on_c, 0, 71, 69
2, 431097, Note_off_c, 0, 66, 64
2, 431148, Note_off_c, 0, 63, 64
2, 431151, Note_off_c, 0, 54, 64
2, 431180, Control_c, 0, 64, 0
2, 431191, Note_on_c, 0, 44, 78
2, 431193, Note_on_c, 0, 75, 73
2, 431208, Control_c, 0, 64, 127
2, 431213, Note_off_c, 0, 71, 64
2, 431252, Note_on_c, 0, 73, 69
2, 431266, Note_off_c, 0, 75, 64
2, 431311, Control_c, 0, 64, 0
2, 431316, Note_on_c, 0, 63, 39
2, 431316, Note_on_c, 0, 60, 39
2, 431318, Note_on_c, 0, 72, 69
2, 431320, Note_on_c, 0, 56, 58
2, 431320, Note_on_c, 0, 51, 54
2, 431328, Control_c, 0, 64, 127
2, 431332, Note_off_c, 0, 44, 64
2, 431340, Note_off_c, 0, 73, 64
2, 431398, Note_off_c, 0, 60, 64
2, 431398, Note_off_c, 0, 63, 64
2, 431402, Note_off_c, 0, 51, 64
2, 431402, Note_off_c, 0, 56, 64
2, 431435, Note_on_c, 0, 51, 62
2, 431436, Note_on_c, 0, 63, 58
2, 431436, Note_on_c, 0, 60, 54
2, 431436, Note_on_c, 0, 56, 46
2, 431439, Note_on_c, 0, 68, 83
2, 431444, Note_off_c, 0, 72, 64
2, 431444, Control_c, 0, 64, 127
2, 431517, Note_off_c, 0, 51, 64
2, 431518, Note_off_c, 0, 56, 64
2, 431518, Note_off_c, 0, 60, 64
2, 431518, Note_off_c, 0, 63, 64
2, 431561, Note_on_c, 0, 63, 69
2, 431570, Note_on_c, 0, 44, 77
2, 431574, Control_c, 0, 64, 0
2, 431576, Note_off_c, 0, 68, 64
2, 431599, Control_c, 0, 64, 127
2, 431629, Note_on_c, 0, 60, 69
2, 431649, Note_off_c, 0, 63, 64
2, 431686, Control_c, 0, 64, 0
2, 431692, Note_on_c, 0, 68, 80
2, 431692, Note_on_c, 0, 56, 47
2, 431692, Note_on_c, 0, 51, 58
2, 431698, Note_on_c, 0, 63, 62
2, 431707, Control_c, 0, 64, 127
2, 431711, Note_off_c, 0, 44, 64
2, 431724, Note_off_c, 0, 60, 64
2, 431774, Note_off_c, 0, 51, 64
2, 431774, Note_off_c, 0, 56, 64
2, 431780, Note_off_c, 0, 63, 64
2, 431836, Note_on_c, 0, 72, 71
2, 431840, Note_on_c, 0, 56, 47
2, 431841, Note_on_c, 0, 63, 54
2, 431845, Note_on_c, 0, 51, 47
2, 431861, Note_off_c, 0, 68, 64
2, 431922, Note_off_c, 0, 56, 64
2, 431923, Note_off_c, 0, 63, 64
2, 431927, Note_off_c, 0, 51, 64
2, 431986, Control_c, 0, 64, 0
2, 431994, Note_on_c, 0, 75, 69
2, 431999, Note_on_c, 0, 32, 67
2, 432002, Note_on_c, 0, 44, 71
2, 432012, Note_off_c, 0, 72, 64
2, 432028, Control_c, 0, 64, 127
2, 432077, Note_on_c, 0, 73, 58
2, 432097, Note_off_c, 0, 75, 64
2, 432160, Note_on_c, 0, 72, 74
2, 432166, Note_on_c, 0, 63, 64
2, 432168, Note_on_c, 0, 60, 55
2, 432168, Note_on_c, 0, 56, 46
2, 432168, Note_on_c, 0, 51, 46
2, 432173, Note_off_c, 0, 73, 64
2, 432248, Note_off_c, 0, 63, 64
2, 432250, Note_off_c, 0, 51, 64
2, 432250, Note_off_c, 0, 56, 64
2, 432250, Note_off_c, 0, 60, 64
2, 432278, Note_off_c, 0, 32, 64
2, 432281, Note_off_c, 0, 44, 64
2, 432333, Note_on_c, 0, 68, 52
2, 432336, Note_on_c, 0, 60, 72
2, 432415, Note_off_c, 0, 68, 64
2, 432418, Note_off_c, 0, 60, 64
2, 432437, Note_on_c, 0, 73, 70
2, 432448, Note_off_c, 0, 72, 64
2, 432568, Note_on_c, 0, 68, 55
2, 432574, Note_on_c, 0, 77, 67
2, 432575, Note_on_c, 0, 63, 54
2, 432579, Note_off_c, 0, 73, 64
2, 432579, Note_on_c, 0, 72, 50
2, 432594, Control_c, 0, 64, 0
2, 432637, Control_c, 0, 64, 127
2, 432749, Note_on_c, 0, 75, 62
2, 432771, Note_off_c, 0, 77, 64
2, 432830, Note_on_c, 0, 80, 62
2, 432838, Control_c, 0, 64, 0
2, 432844, Note_off_c, 0, 72, 64
2, 432844, Note_off_c, 0, 63, 64
2, 432844, Note_off_c, 0, 68, 64
2, 432855, Note_off_c, 0, 75, 64
2, 432887, Control_c, 0, 64, 127
2, 433129, Control_c, 0, 64, 0
2, 433167, Control_c, 0, 64, 127
2, 433285, Control_c, 0, 64, 0
2, 433337, Control_c, 0, 64, 127
2, 433417, Note_off_c, 0, 80, 64
2, 433504, Note_on_c, 0, 80, 51
2, 433602, Note_on_c, 0, 83, 51
2, 433626, Note_off_c, 0, 80, 64
2, 433687, Control_c, 0, 64, 0
2, 433694, Note_on_c, 0, 81, 49
2, 433704, Control_c, 0, 64, 127
2, 433705, Note_off_c, 0, 83, 64
2, 433768, Note_on_c, 0, 80, 36
2, 433784, Note_off_c, 0, 81, 64
2, 433858, Note_on_c, 0, 79, 49
2, 433876, Note_off_c, 0, 80, 64
2, 433894, Control_c, 0, 64, 0
2, 433934, Note_on_c, 0, 75, 39
2, 433942, Note_off_c, 0, 79, 64
2, 433953, Control_c, 0, 64, 127
2, 433966, Control_c, 0, 64, 0
2, 434002, Control_c, 0, 64, 127
2, 434042, Note_on_c, 0, 80, 49
2, 434058, Note_off_c, 0, 75, 64
2, 434267, Note_on_c, 0, 72, 47
2, 434270, Note_on_c, 0, 68, 47
2, 434306, Control_c, 0, 64, 0
2, 434352, Control_c, 0, 64, 127
2, 434366, Note_on_c, 0, 78, 46
2, 434370, Note_off_c, 0, 80, 64
2, 434472, Note_on_c, 0, 76, 43
2, 434473, Note_on_c, 0, 73, 43
2, 434488, Note_off_c, 0, 78, 64
2, 434503, Control_c, 0, 64, 0
2, 434508, Note_off_c, 0, 72, 64
2, 434537, Control_c, 0, 64, 127
2, 434637, Note_off_c, 0, 68, 64
2, 434690, Note_on_c, 0, 68, 58
2, 434713, Control_c, 0, 64, 0
2, 434724, Control_c, 0, 64, 127
2, 434775, Note_on_c, 0, 71, 62
2, 434788, Note_off_c, 0, 68, 64
2, 434849, Note_on_c, 0, 69, 50
2, 434876, Note_off_c, 0, 71, 64
2, 434926, Note_on_c, 0, 68, 47
2, 434939, Note_off_c, 0, 69, 64
2, 434989, Note_off_c, 0, 76, 64
2, 435000, Note_on_c, 0, 67, 39
2, 435006, Note_on_c, 0, 75, 56
2, 435010, Note_off_c, 0, 68, 64
2, 435023, Control_c, 0, 64, 0
2, 435055, Control_c, 0, 64, 127
2, 435062, Note_off_c, 0, 73, 64
2, 435084, Note_on_c, 0, 63, 62
2, 435099, Note_off_c, 0, 67, 64
2, 435167, Note_on_c, 0, 68, 64
2, 435175, Note_on_c, 0, 72, 54
2, 435190, Control_c, 0, 64, 0
2, 435205, Note_off_c, 0, 63, 64
2, 435213, Control_c, 0, 64, 127
2, 435346, Note_on_c, 0, 56, 49
2, 435402, Note_off_c, 0, 72, 64
2, 435454, Note_on_c, 0, 66, 59
2, 435468, Note_off_c, 0, 68, 64
2, 435570, Note_on_c, 0, 73, 42
2, 435573, Note_on_c, 0, 64, 37
2, 435576, Note_on_c, 0, 61, 25
2, 435584, Note_off_c, 0, 56, 64
2, 435585, Note_off_c, 0, 75, 64
2, 435590, Note_off_c, 0, 66, 64
2, 435625, Control_c, 0, 64, 0
2, 435681, Control_c, 0, 64, 127
2, 435773, Note_on_c, 0, 75, 52
2, 435812, Note_off_c, 0, 73, 64
2, 435841, Note_off_c, 0, 64, 64
2, 435855, Note_on_c, 0, 78, 52
2, 435862, Note_off_c, 0, 61, 64
2, 435873, Note_off_c, 0, 75, 64
2, 435937, Note_on_c, 0, 76, 57
2, 435953, Note_off_c, 0, 78, 64
2, 436019, Note_on_c, 0, 75, 57
2, 436031, Note_off_c, 0, 76, 64
2, 436090, Control_c, 0, 64, 0
2, 436103, Note_on_c, 0, 73, 58
2, 436119, Note_off_c, 0, 75, 64
2, 436149, Control_c, 0, 64, 127
2, 436172, Note_on_c, 0, 70, 58
2, 436196, Note_off_c, 0, 73, 64
2, 436257, Note_on_c, 0, 75, 54
2, 436279, Note_off_c, 0, 70, 64
2, 436430, Note_on_c, 0, 67, 32
2, 436432, Note_on_c, 0, 63, 49
2, 436453, Control_c, 0, 64, 0
2, 436499, Control_c, 0, 64, 127
2, 436508, Note_on_c, 0, 73, 48
2, 436523, Note_off_c, 0, 75, 64
2, 436598, Control_c, 0, 64, 0
2, 436606, Note_on_c, 0, 71, 56
2, 436606, Note_on_c, 0, 68, 57
2, 436616, Note_off_c, 0, 73, 64
2, 436619, Control_c, 0, 64, 127
2, 436620, Note_off_c, 0, 67, 64
2, 436747, Note_off_c, 0, 63, 64
2, 436785, Note_on_c, 0, 63, 56
2, 436860, Note_on_c, 0, 66, 67
2, 436881, Note_off_c, 0, 63, 64
2, 436935, Note_on_c, 0, 64, 42
2, 436950, Note_off_c, 0, 66, 64
2, 437014, Note_on_c, 0, 63, 62
2, 437022, Note_off_c, 0, 64, 64
2, 437085, Note_on_c, 0, 70, 48
2, 437094, Note_on_c, 0, 61, 48
2, 437104, Control_c, 0, 64, 0
2, 437110, Note_off_c, 0, 63, 64
2, 437112, Note_off_c, 0, 71, 64
2, 437146, Control_c, 0, 64, 127
2, 437173, Note_on_c, 0, 58, 58
2, 437180, Note_off_c, 0, 61, 64
2, 437255, Note_on_c, 0, 63, 67
2, 437256, Note_on_c, 0, 67, 47
2, 437269, Note_off_c, 0, 68, 64
2, 437274, Note_off_c, 0, 58, 64
2, 437405, Note_on_c, 0, 51, 50
2, 437462, Note_off_c, 0, 67, 64
2, 437503, Note_on_c, 0, 61, 67
2, 437506, Note_off_c, 0, 70, 64
2, 437507, Note_off_c, 0, 63, 64
2, 437616, Note_on_c, 0, 60, 57
2, 437618, Note_on_c, 0, 66, 46
2, 437620, Note_on_c, 0, 44, 49
2, 437623, Note_on_c, 0, 72, 63
2, 437624, Note_off_c, 0, 51, 64
2, 437634, Control_c, 0, 64, 0
2, 437635, Note_off_c, 0, 61, 64
2, 437704, Note_on_c, 0, 73, 54
2, 437723, Note_off_c, 0, 60, 64
2, 437725, Note_off_c, 0, 66, 64
2, 437730, Note_off_c, 0, 72, 64
2, 437753, Control_c, 0, 64, 127
2, 437778, Note_on_c, 0, 75, 57
2, 437802, Note_off_c, 0, 73, 64
2, 437845, Note_on_c, 0, 76, 71
2, 437860, Note_off_c, 0, 75, 64
2, 437897, Note_off_c, 0, 44, 64
2, 437912, Note_on_c, 0, 78, 63
2, 437928, Note_off_c, 0, 76, 64
2, 437967, Note_on_c, 0, 80, 62
2, 437995, Note_off_c, 0, 78, 64
2, 438027, Note_on_c, 0, 81, 64
2, 438058, Note_off_c, 0, 80, 64
2, 438068, Note_on_c, 0, 83, 66
2, 438082, Note_off_c, 0, 81, 64
2, 438119, Note_on_c, 0, 81, 62
2, 438132, Note_off_c, 0, 83, 64
2, 438151, Control_c, 0, 64, 0
2, 438162, Note_on_c, 0, 60, 55
2, 438166, Note_on_c, 0, 56, 48
2, 438171, Note_on_c, 0, 78, 62
2, 438174, Note_on_c, 0, 66, 48
2, 438196, Control_c, 0, 64, 127
2, 438202, Note_off_c, 0, 81, 64
2, 438226, Note_on_c, 0, 76, 57
2, 438244, Note_off_c, 0, 60, 64
2, 438248, Note_off_c, 0, 78, 64
2, 438248, Note_off_c, 0, 56, 64
2, 438256, Note_off_c, 0, 66, 64
2, 438298, Control_c, 0, 64, 0
2, 438300, Note_on_c, 0, 75, 64
2, 438307, Note_on_c, 0, 57, 44
2, 438308, Note_on_c, 0, 61, 47
2, 438310, Note_on_c, 0, 66, 51
2, 438315, Note_off_c, 0, 76, 64
2, 438332, Control_c, 0, 64, 127
2, 438366, Note_on_c, 0, 73, 54
2, 438380, Note_off_c, 0, 75, 64
2, 438389, Note_off_c, 0, 57, 64
2, 438390, Note_off_c, 0, 61, 64
2, 438392, Note_off_c, 0, 66, 64
2, 438440, Note_on_c, 0, 60, 39
2, 438443, Note_on_c, 0, 72, 47
2, 438443, Note_on_c, 0, 66, 39
2, 438443, Control_c, 0, 64, 0
2, 438444, Note_on_c, 0, 56, 39
2, 438452, Note_off_c, 0, 73, 64
2, 438467, Control_c, 0, 64, 127
2, 438511, Note_on_c, 0, 73, 52
2, 438522, Note_off_c, 0, 60, 64
2, 438525, Note_off_c, 0, 66, 64
2, 438526, Note_off_c, 0, 56, 64
2, 438540, Note_off_c, 0, 72, 64
2, 438569, Control_c, 0, 64, 0
2, 438573, Note_on_c, 0, 44, 70
2, 438577, Note_on_c, 0, 75, 66
2, 438586, Control_c, 0, 64, 127
2, 438594, Note_off_c, 0, 73, 64
2, 438630, Note_off_c, 0, 75, 64
2, 438639, Note_on_c, 0, 76, 60
2, 438696, Note_on_c, 0, 56, 54
2, 438700, Note_on_c, 0, 66, 65
2, 438702, Note_on_c, 0, 78, 67
2, 438702, Note_on_c, 0, 60, 52
2, 438702, Control_c, 0, 64, 0
2, 438730, Control_c, 0, 64, 127
2, 438744, Note_off_c, 0, 76, 64
2, 438775, Note_on_c, 0, 80, 58
2, 438778, Note_off_c, 0, 56, 64
2, 438782, Note_off_c, 0, 66, 64
2, 438784, Note_off_c, 0, 60, 64
2, 438792, Note_off_c, 0, 78, 64
2, 438836, Note_on_c, 0, 81, 59
2, 438844, Note_off_c, 0, 44, 64
2, 438865, Note_off_c, 0, 80, 64
2, 438885, Note_on_c, 0, 83, 64
2, 438896, Note_off_c, 0, 81, 64
2, 438923, Note_on_c, 0, 81, 65
2, 438938, Note_off_c, 0, 83, 64
2, 438964, Control_c, 0, 64, 0
2, 438970, Note_on_c, 0, 60, 59
2, 438973, Note_on_c, 0, 66, 58
2, 438973, Note_on_c, 0, 56, 55
2, 438979, Note_on_c, 0, 78, 70
2, 438994, Control_c, 0, 64, 127
2, 439000, Note_off_c, 0, 81, 64
2, 439042, Note_on_c, 0, 76, 64
2, 439048, Note_off_c, 0, 78, 64
2, 439052, Note_off_c, 0, 60, 64
2, 439055, Note_off_c, 0, 56, 64
2, 439055, Note_off_c, 0, 66, 64
2, 439085, Control_c, 0, 64, 0
2, 439098, Note_on_c, 0, 61, 49
2, 439101, Note_on_c, 0, 66, 55
2, 439102, Note_on_c, 0, 57, 47
2, 439107, Note_on_c, 0, 75, 71
2, 439114, Note_off_c, 0, 76, 64
2, 439121, Control_c, 0, 64, 127
2, 439162, Note_on_c, 0, 73, 58
2, 439173, Note_off_c, 0, 75, 64
2, 439180, Note_off_c, 0, 61, 64
2, 439183, Note_off_c, 0, 66, 64
2, 439184, Note_off_c, 0, 57, 64
2, 439231, Control_c, 0, 64, 0
2, 439238, Note_off_c, 0, 73, 64
2, 439238, Note_on_c, 0, 75, 62
2, 439244, Note_on_c, 0, 60, 28
2, 439248, Note_on_c, 0, 66, 37
2, 439251, Note_on_c, 0, 56, 46
2, 439265, Control_c, 0, 64, 127
2, 439304, Note_off_c, 0, 75, 64
2, 439310, Note_on_c, 0, 68, 73
2, 439326, Note_off_c, 0, 60, 64
2, 439330, Note_off_c, 0, 66, 64
2, 439333, Note_off_c, 0, 56, 64
2, 439372, Control_c, 0, 64, 0
2, 439379, Note_on_c, 0, 44, 67
2, 439382, Note_on_c, 0, 80, 77
2, 439401, Control_c, 0, 64, 127
2, 439438, Note_off_c, 0, 68, 64
2, 439518, Control_c, 0, 64, 0
2, 439528, Note_on_c, 0, 60, 58
2, 439528, Note_on_c, 0, 51, 31
2, 439530, Control_c, 0, 64, 127
2, 439603, Note_on_c, 0, 75, 62
2, 439608, Note_off_c, 0, 80, 64
2, 439610, Note_off_c, 0, 51, 64
2, 439610, Note_off_c, 0, 60, 64
2, 439653, Control_c, 0, 64, 0
2, 439660, Note_on_c, 0, 56, 47
2, 439661, Note_on_c, 0, 66, 56
2, 439667, Note_on_c, 0, 80, 82
2, 439672, Control_c, 0, 64, 127
2, 439678, Note_off_c, 0, 75, 64
2, 439742, Note_off_c, 0, 56, 64
2, 439743, Note_off_c, 0, 66, 64
2, 439744, Note_off_c, 0, 80, 64
2, 439744, Note_on_c, 0, 75, 65
2, 439747, Note_off_c, 0, 44, 64
2, 439803, Note_on_c, 0, 51, 58
2, 439807, Note_on_c, 0, 80, 73
2, 439807, Note_on_c, 0, 60, 63
2, 439818, Note_off_c, 0, 75, 64
2, 439885, Note_off_c, 0, 51, 64
2, 439889, Note_off_c, 0, 60, 64
2, 439929, Note_on_c, 0, 44, 71
2, 440000, Note_on_c, 0, 68, 73
2, 440002, Note_off_c, 0, 80, 64
2, 440077, Control_c, 0, 64, 0
2, 440083, Note_on_c, 0, 32, 79
2, 440090, Note_on_c, 0, 75, 67
2, 440106, Note_off_c, 0, 68, 64
2, 440116, Control_c, 0, 64, 127
2, 440171, Note_on_c, 0, 68, 78
2, 440186, Note_off_c, 0, 75, 64
2, 440227, Note_off_c, 0, 44, 64
2, 440250, Note_on_c, 0, 80, 69
2, 440250, Note_on_c, 0, 66, 51
2, 440250, Note_on_c, 0, 56, 46
2, 440256, Note_on_c, 0, 60, 58
2, 440265, Control_c, 0, 64, 0
2, 440278, Control_c, 0, 64, 127
2, 440326, Note_off_c, 0, 68, 64
2, 440332, Note_off_c, 0, 56, 64
2, 440332, Note_off_c, 0, 66, 64
2, 440338, Note_off_c, 0, 60, 64
2, 440362, Note_off_c, 0, 32, 64
2, 440482, Note_on_c, 0, 68, 57
2, 440507, Note_off_c, 0, 80, 64
2, 440560, Control_c, 0, 64, 0
2, 440573, Note_on_c, 0, 37, 64
2, 440580, Note_on_c, 0, 75, 69
2, 440596, Note_off_c, 0, 68, 64
2, 440598, Control_c, 0, 64, 127
2, 440666, Note_on_c, 0, 76, 62
2, 440683, Note_off_c, 0, 75, 64
2, 440790, Control_c, 0, 64, 0
2, 440792, Note_on_c, 0, 73, 62
2, 440796, Note_on_c, 0, 56, 39
2, 440797, Note_on_c, 0, 64, 46
2, 440797, Note_on_c, 0, 49, 50
2, 440806, Note_off_c, 0, 76, 64
2, 440823, Control_c, 0, 64, 127
2, 441138, Note_off_c, 0, 73, 64
2, 441142, Note_off_c, 0, 56, 64
2, 441143, Note_off_c, 0, 49, 64
2, 441143, Note_off_c, 0, 64, 64
2, 441167, Note_off_c, 0, 37, 64
2, 441184, Note_on_c, 0, 45, 94
2, 441192, Note_on_c, 0, 33, 94
2, 441198, Note_on_c, 0, 57, 83
2, 441208, Control_c, 0, 64, 0
2, 441241, Control_c, 0, 64, 127
2, 441406, Note_on_c, 0, 64, 64
2, 441406, Note_on_c, 0, 61, 71
2, 441409, Note_off_c, 0, 57, 64
2, 441410, Note_on_c, 0, 73, 74
2, 441411, Note_on_c, 0, 69, 71
2, 441411, Note_on_c, 0, 57, 58
2, 441418, Note_on_c, 0, 52, 56
2, 441430, Control_c, 0, 64, 0
2, 441457, Control_c, 0, 64, 127
2, 441572, Note_off_c, 0, 61, 64
2, 441572, Note_off_c, 0, 64, 64
2, 441576, Note_off_c, 0, 73, 64
2, 441577, Note_off_c, 0, 57, 64
2, 441577, Note_off_c, 0, 69, 64
2, 441584, Note_off_c, 0, 52, 64
2, 441624, Note_on_c, 0, 64, 58
2, 441624, Note_on_c, 0, 61, 83
2, 441624, Note_on_c, 0, 57, 62
2, 441624, Note_on_c, 0, 52, 62
2, 441650, Note_off_c, 0, 52, 64
2, 441657, Note_off_c, 0, 64, 64
2, 441663, Note_off_c, 0, 57, 64
2, 441663, Note_off_c, 0, 61, 64
2, 441699, Note_on_c, 0, 64, 73
2, 441700, Note_on_c, 0, 69, 69
2, 441702, Note_on_c, 0, 73, 74
2, 441703, Note_on_c, 0, 57, 73
2, 441708, Note_on_c, 0, 52, 70
2, 441709, Note_off_c, 0, 45, 64
2, 441717, Note_off_c, 0, 33, 64
2, 441788, Note_off_c, 0, 64, 64
2, 441789, Note_off_c, 0, 69, 64
2, 441791, Note_off_c, 0, 73, 64
2, 441792, Note_off_c, 0, 57, 64
2, 441797, Note_off_c, 0, 52, 64
2, 441798, Note_on_c, 0, 69, 69
2, 441801, Note_on_c, 0, 73, 69
2, 441808, Note_on_c, 0, 64, 71
2, 441808, Note_on_c, 0, 57, 78
2, 441808, Note_on_c, 0, 52, 73
2, 441828, Note_off_c, 0, 52, 64
2, 441836, Note_off_c, 0, 57, 64
2, 441837, Note_off_c, 0, 64, 64
2, 441838, Note_off_c, 0, 69, 64
2, 441841, Control_c, 0, 64, 0
2, 441847, Note_off_c, 0, 73, 64
2, 441853, Note_on_c, 0, 64, 64
2, 441853, Note_on_c, 0, 61, 86
2, 441857, Note_on_c, 0, 57, 71
2, 441857, Note_on_c, 0, 52, 69
2, 441867, Control_c, 0, 64, 127
2, 441974, Note_off_c, 0, 61, 64
2, 441974, Note_off_c, 0, 64, 64
2, 441978, Note_off_c, 0, 52, 64
2, 441978, Note_off_c, 0, 57, 64
2, 441996, Note_on_c, 0, 61, 83
2, 441997, Note_on_c, 0, 64, 69
2, 441997, Note_on_c, 0, 57, 67
2, 441998, Note_on_c, 0, 73, 69
2, 442000, Note_on_c, 0, 69, 66
2, 442007, Note_on_c, 0, 52, 60
2, 442137, Note_off_c, 0, 61, 64
2, 442138, Note_off_c, 0, 57, 64
2, 442138, Note_off_c, 0, 64, 64
2, 442139, Note_off_c, 0, 73, 64
2, 442141, Note_off_c, 0, 69, 64
2, 442148, Note_off_c, 0, 52, 64
2, 442184, Note_on_c, 0, 57, 65
2, 442184, Note_on_c, 0, 33, 77
2, 442188, Note_on_c, 0, 45, 77
2, 442268, Note_on_c, 0, 69, 67
2, 442269, Note_on_c, 0, 73, 77
2, 442296, Note_off_c, 0, 57, 64
2, 442315, Note_off_c, 0, 69, 64
2, 442326, Note_off_c, 0, 73, 64
2, 442340, Note_on_c, 0, 73, 78
2, 442340, Note_on_c, 0, 57, 63
2, 442343, Note_on_c, 0, 69, 67
2, 442344, Note_on_c, 0, 64, 73
2, 442344, Note_on_c, 0, 52, 66
2, 442385, Note_on_c, 0, 75, 74
2, 442402, Note_off_c, 0, 69, 64
2, 442407, Note_off_c, 0, 73, 64
2, 442431, Note_on_c, 0, 73, 69
2, 442450, Note_off_c, 0, 75, 64
2, 442480, Note_off_c, 0, 33, 64
2, 442484, Note_off_c, 0, 45, 64
2, 442492, Note_on_c, 0, 68, 80
2, 442495, Note_on_c, 0, 71, 78
2, 442501, Note_off_c, 0, 57, 64
2, 442505, Note_off_c, 0, 52, 64
2, 442505, Note_off_c, 0, 64, 64
2, 442514, Note_off_c, 0, 73, 64
2, 442576, Note_on_c, 0, 66, 64
2, 442577, Note_on_c, 0, 69, 80
2, 442586, Note_off_c, 0, 68, 64
2, 442589, Note_off_c, 0, 71, 64
2, 442644, Note_on_c, 0, 68, 67
2, 442645, Note_on_c, 0, 71, 69
2, 442649, Control_c, 0, 64, 0
2, 442654, Note_on_c, 0, 40, 70
2, 442670, Note_off_c, 0, 66, 64
2, 442671, Note_off_c, 0, 69, 64
2, 442682, Control_c, 0, 64, 127
2, 442746, Note_off_c, 0, 68, 64
2, 442747, Note_off_c, 0, 71, 64
2, 442766, Note_on_c, 0, 68, 66
2, 442768, Note_on_c, 0, 71, 59
2, 442793, Control_c, 0, 64, 0
2, 442798, Note_on_c, 0, 52, 44
2, 442800, Note_off_c, 0, 68, 64
2, 442800, Note_on_c, 0, 64, 73
2, 442803, Note_on_c, 0, 59, 42
2, 442805, Note_on_c, 0, 68, 73
2, 442819, Note_off_c, 0, 71, 64
2, 442828, Control_c, 0, 64, 127
2, 442909, Note_off_c, 0, 52, 64
2, 442911, Note_off_c, 0, 64, 64
2, 442914, Note_off_c, 0, 59, 64
2, 442916, Note_off_c, 0, 68, 64
2, 442930, Note_off_c, 0, 40, 64
2, 442954, Note_on_c, 0, 68, 71
2, 442961, Note_on_c, 0, 64, 73
2, 442963, Note_on_c, 0, 76, 73
2, 442963, Note_on_c, 0, 59, 50
2, 442963, Note_on_c, 0, 52, 63
2, 443068, Note_off_c, 0, 68, 64
2, 443075, Note_off_c, 0, 64, 64
2, 443077, Note_off_c, 0, 52, 64
2, 443077, Note_off_c, 0, 59, 64
2, 443077, Note_off_c, 0, 76, 64
2, 443128, Note_on_c, 0, 42, 92
2, 443135, Note_on_c, 0, 57, 88
2, 443137, Note_on_c, 0, 30, 79
2, 443146, Control_c, 0, 64, 0
2, 443190, Control_c, 0, 64, 127
2, 443294, Note_off_c, 0, 57, 64
2, 443303, Note_on_c, 0, 66, 69
2, 443303, Note_on_c, 0, 49, 49
2, 443304, Note_on_c, 0, 57, 69
2, 443304, Note_on_c, 0, 54, 58
2, 443307, Note_on_c, 0, 69, 73
2, 443307, Note_on_c, 0, 61, 73
2, 443320, Control_c, 0, 64, 0
2, 443352, Control_c, 0, 64, 127
2, 443492, Note_off_c, 0, 49, 64
2, 443492, Note_off_c, 0, 66, 64
2, 443493, Note_off_c, 0, 54, 64
2, 443493, Note_off_c, 0, 57, 64
2, 443496, Note_off_c, 0, 61, 64
2, 443496, Note_off_c, 0, 69, 64
2, 443528, Note_on_c, 0, 57, 69
2, 443528, Note_on_c, 0, 54, 58
2, 443528, Note_on_c, 0, 49, 63
2, 443529, Note_on_c, 0, 61, 70
2, 443544, Control_c, 0, 64, 127
2, 443560, Note_off_c, 0, 61, 64
2, 443566, Note_off_c, 0, 49, 64
2, 443566, Note_off_c, 0, 54, 64
2, 443574, Note_off_c, 0, 57, 64
2, 443594, Note_on_c, 0, 66, 74
2, 443596, Note_on_c, 0, 61, 69
2, 443596, Note_on_c, 0, 54, 56
2, 443596, Note_on_c, 0, 49, 48
2, 443598, Note_on_c, 0, 69, 67
2, 443683, Note_off_c, 0, 66, 64
2, 443683, Note_off_c, 0, 42, 64
2, 443685, Note_off_c, 0, 49, 64
2, 443685, Note_off_c, 0, 54, 64
2, 443685, Note_off_c, 0, 61, 64
2, 443685, Note_off_c, 0, 30, 64
2, 443687, Note_off_c, 0, 69, 64
2, 443696, Note_on_c, 0, 69, 65
2, 443696, Note_on_c, 0, 66, 80
2, 443697, Note_on_c, 0, 54, 74
2, 443701, Note_on_c, 0, 61, 71
2, 443701, Note_on_c, 0, 49, 63
2, 443722, Note_off_c, 0, 54, 64
2, 443725, Note_off_c, 0, 49, 64
2, 443726, Note_off_c, 0, 61, 64
2, 443735, Note_off_c, 0, 69, 64
2, 443736, Note_on_c, 0, 61, 73
2, 443741, Note_off_c, 0, 66, 64
2, 443742, Note_on_c, 0, 57, 73
2, 443744, Note_on_c, 0, 54, 73
2, 443748, Note_on_c, 0, 49, 70
2, 443749, Control_c, 0, 64, 0
2, 443770, Control_c, 0, 64, 127
2, 443881, Note_off_c, 0, 61, 64
2, 443887, Note_off_c, 0, 57, 64
2, 443888, Note_on_c, 0, 57, 58
2, 443889, Note_off_c, 0, 54, 64
2, 443893, Note_off_c, 0, 49, 64
2, 443894, Note_on_c, 0, 69, 73
2, 443894, Note_on_c, 0, 66, 64
2, 443894, Note_on_c, 0, 61, 3
2, 443894, Note_on_c, 0, 54, 67
2, 443896, Control_c, 0, 64, 0
2, 443904, Note_on_c, 0, 49, 73
2, 443904, Control_c, 0, 64, 127
2, 443916, Control_c, 0, 64, 127
2, 444002, Note_off_c, 0, 57, 64
2, 444027, Note_off_c, 0, 54, 64
2, 444027, Note_off_c, 0, 61, 64
2, 444027, Note_off_c, 0, 66, 64
2, 444030, Note_on_c, 0, 57, 74
2, 444030, Note_on_c, 0, 42, 69
2, 444037, Note_off_c, 0, 49, 64
2, 444037, Note_off_c, 0, 69, 64
2, 444037, Note_on_c, 0, 30, 73
2, 444120, Note_on_c, 0, 69, 73
2, 444120, Note_on_c, 0, 66, 80
2, 444186, Note_off_c, 0, 66, 64
2, 444198, Note_off_c, 0, 69, 64
2, 444204, Note_on_c, 0, 66, 77
2, 444208, Note_on_c, 0, 69, 80
2, 444208, Note_on_c, 0, 61, 59
2, 444208, Note_on_c, 0, 54, 52
2, 444208, Note_on_c, 0, 49, 49
2, 444219, Note_off_c, 0, 57, 64
2, 444260, Note_on_c, 0, 71, 83
2, 444271, Note_off_c, 0, 66, 64
2, 444275, Note_off_c, 0, 69, 64
2, 444312, Note_on_c, 0, 69, 69
2, 444330, Note_off_c, 0, 71, 64
2, 444340, Note_off_c, 0, 42, 64
2, 444348, Note_off_c, 0, 30, 64
2, 444364, Note_on_c, 0, 68, 85
2, 444368, Note_on_c, 0, 64, 55
2, 444372, Note_off_c, 0, 69, 64
2, 444384, Note_off_c, 0, 49, 64
2, 444384, Note_off_c, 0, 54, 64
2, 444384, Note_off_c, 0, 61, 64
2, 444444, Note_on_c, 0, 66, 85
2, 444444, Note_on_c, 0, 63, 78
2, 444450, Note_off_c, 0, 64, 64
2, 444452, Note_off_c, 0, 68, 64
2, 444512, Note_on_c, 0, 68, 64
2, 444515, Note_off_c, 0, 66, 64
2, 444516, Note_on_c, 0, 64, 74
2, 444516, Note_on_c, 0, 37, 73
2, 444522, Note_off_c, 0, 63, 64
2, 444532, Control_c, 0, 64, 0
2, 444555, Control_c, 0, 64, 127
2, 444620, Note_off_c, 0, 68, 64
2, 444624, Note_off_c, 0, 64, 64
2, 444628, Note_on_c, 0, 64, 69
2, 444633, Note_on_c, 0, 68, 64
2, 444658, Note_off_c, 0, 64, 64
2, 444659, Control_c, 0, 64, 0
2, 444665, Note_on_c, 0, 64, 78
2, 444666, Note_on_c, 0, 56, 55
2, 444668, Note_on_c, 0, 61, 78
2, 444669, Note_on_c, 0, 49, 51
2, 444680, Note_off_c, 0, 68, 64
2, 444700, Control_c, 0, 64, 127
2, 444779, Note_off_c, 0, 64, 64
2, 444780, Note_off_c, 0, 56, 64
2, 444782, Note_off_c, 0, 61, 64
2, 444783, Note_off_c, 0, 49, 64
2, 444791, Note_off_c, 0, 37, 64
2, 444834, Note_on_c, 0, 73, 73
2, 444834, Note_on_c, 0, 61, 64
2, 444844, Note_on_c, 0, 49, 55
2, 444855, Control_c, 0, 64, 0
2, 444870, Control_c, 0, 64, 127
2, 444986, Note_off_c, 0, 49, 64
2, 444988, Note_on_c, 0, 72, 59
2, 444988, Note_on_c, 0, 39, 63
2, 444991, Note_off_c, 0, 61, 64
2, 444993, Note_on_c, 0, 61, 57
2, 444998, Note_on_c, 0, 67, 50
2, 445009, Control_c, 0, 64, 0
2, 445011, Note_off_c, 0, 73, 64
2, 445033, Control_c, 0, 64, 127
2, 445072, Note_on_c, 0, 51, 62
2, 445100, Note_off_c, 0, 39, 64
2, 445141, Note_on_c, 0, 53, 58
2, 445157, Note_off_c, 0, 51, 64
2, 445209, Note_on_c, 0, 55, 62
2, 445220, Note_off_c, 0, 53, 64
2, 445267, Control_c, 0, 64, 0
2, 445276, Note_on_c, 0, 70, 63
2, 445278, Note_on_c, 0, 56, 64
2, 445284, Note_off_c, 0, 72, 64
2, 445297, Note_off_c, 0, 55, 64
2, 445337, Note_on_c, 0, 58, 63
2, 445341, Control_c, 0, 64, 127
2, 445350, Note_off_c, 0, 61, 64
2, 445352, Note_off_c, 0, 56, 64
2, 445355, Note_off_c, 0, 67, 64
2, 445418, Note_on_c, 0, 60, 62
2, 445420, Note_on_c, 0, 63, 62
2, 445433, Note_off_c, 0, 58, 64
2, 445460, Note_off_c, 0, 70, 64
2, 445494, Note_on_c, 0, 56, 55
2, 445498, Control_c, 0, 64, 0
2, 445518, Note_off_c, 0, 60, 64
2, 445533, Control_c, 0, 64, 127
2, 445572, Note_on_c, 0, 51, 64
2, 445594, Note_off_c, 0, 56, 64
2, 445612, Note_off_c, 0, 63, 64
2, 445661, Note_on_c, 0, 65, 67
2, 445688, Note_off_c, 0, 51, 64
2, 445740, Note_on_c, 0, 63, 54
2, 445744, Note_on_c, 0, 68, 58
2, 445746, Note_on_c, 0, 72, 58
2, 445762, Control_c, 0, 64, 0
2, 445764, Note_off_c, 0, 65, 64
2, 445775, Control_c, 0, 64, 127
2, 445908, Note_off_c, 0, 72, 64
2, 445917, Note_off_c, 0, 63, 64
2, 445922, Note_off_c, 0, 68, 64
2, 445924, Note_on_c, 0, 72, 57
2, 445926, Note_on_c, 0, 39, 58
2, 445928, Note_on_c, 0, 67, 57
2, 445929, Note_on_c, 0, 75, 51
2, 445932, Note_on_c, 0, 61, 57
2, 445937, Control_c, 0, 64, 0
2, 445941, Control_c, 0, 64, 127
2, 445945, Control_c, 0, 64, 127
2, 445965, Control_c, 0, 64, 127
2, 446011, Note_on_c, 0, 51, 54
2, 446016, Note_off_c, 0, 39, 64
2, 446070, Note_on_c, 0, 53, 57
2, 446083, Note_off_c, 0, 51, 64
2, 446107, Note_off_c, 0, 72, 64
2, 446117, Note_off_c, 0, 75, 64
2, 446140, Note_on_c, 0, 55, 58
2, 446150, Note_off_c, 0, 53, 64
2, 446208, Note_on_c, 0, 56, 65
2, 446212, Note_on_c, 0, 73, 58
2, 446215, Note_on_c, 0, 70, 49
2, 446223, Note_off_c, 0, 55, 64
2, 446227, Control_c, 0, 64, 0
2, 446253, Control_c, 0, 64, 127
2, 446282, Note_on_c, 0, 58, 62
2, 446299, Note_off_c, 0, 56, 64
2, 446361, Note_on_c, 0, 72, 49
2, 446361, Note_on_c, 0, 60, 64
2, 446362, Note_off_c, 0, 58, 64
2, 446364, Note_on_c, 0, 68, 62
2, 446364, Note_on_c, 0, 63, 62
2, 446370, Note_off_c, 0, 73, 64
2, 446370, Control_c, 0, 64, 0
2, 446373, Note_off_c, 0, 70, 64
2, 446373, Note_off_c, 0, 67, 64
2, 446377, Note_off_c, 0, 61, 64
2, 446390, Control_c, 0, 64, 0
2, 446431, Control_c, 0, 64, 127
2, 446438, Note_on_c, 0, 56, 52
2, 446470, Note_off_c, 0, 60, 64
2, 446524, Note_on_c, 0, 51, 58
2, 446542, Note_off_c, 0, 56, 64
2, 446589, Note_on_c, 0, 55, 57
2, 446611, Note_off_c, 0, 51, 64
2, 446616, Note_on_c, 0, 53, 56
2, 446634, Note_off_c, 0, 72, 64
2, 446637, Note_off_c, 0, 63, 64
2, 446637, Note_off_c, 0, 68, 64
2, 446660, Note_off_c, 0, 55, 64
2, 446675, Note_on_c, 0, 73, 58
2, 446682, Note_on_c, 0, 68, 62
2, 446682, Note_on_c, 0, 65, 56
2, 446693, Control_c, 0, 64, 0
2, 446704, Note_on_c, 0, 51, 54
2, 446720, Note_off_c, 0, 53, 64
2, 446732, Control_c, 0, 64, 127
2, 446858, Note_off_c, 0, 73, 64
2, 446864, Note_on_c, 0, 63, 58
2, 446865, Note_off_c, 0, 65, 64
2, 446865, Note_off_c, 0, 68, 64
2, 446865, Note_on_c, 0, 67, 57
2, 446865, Note_on_c, 0, 39, 54
2, 446868, Note_on_c, 0, 72, 56
2, 446876, Note_off_c, 0, 51, 64
2, 446880, Control_c, 0, 64, 0
2, 446913, Control_c, 0, 64, 127
2, 446955, Note_on_c, 0, 51, 55
2, 446981, Note_off_c, 0, 39, 64
2, 447015, Note_on_c, 0, 53, 52
2, 447029, Note_off_c, 0, 51, 64
2, 447084, Note_on_c, 0, 55, 62
2, 447104, Note_off_c, 0, 53, 64
2, 447126, Note_off_c, 0, 63, 64
2, 447127, Note_off_c, 0, 67, 64
2, 447130, Note_off_c, 0, 72, 64
2, 447148, Note_on_c, 0, 65, 57
2, 447151, Note_on_c, 0, 70, 51
2, 447151, Note_on_c, 0, 61, 51
2, 447161, Note_on_c, 0, 56, 64
2, 447170, Control_c, 0, 64, 0
2, 447176, Note_off_c, 0, 55, 64
2, 447228, Control_c, 0, 64, 127
2, 447232, Note_on_c, 0, 58, 58
2, 447244, Note_off_c, 0, 56, 64
2, 447312, Note_on_c, 0, 63, 62
2, 447314, Note_on_c, 0, 60, 62
2, 447332, Note_off_c, 0, 58, 64
2, 447338, Note_off_c, 0, 65, 64
2, 447341, Note_off_c, 0, 61, 64
2, 447341, Note_off_c, 0, 70, 64
2, 447372, Control_c, 0, 64, 0
2, 447388, Note_on_c, 0, 56, 51
2, 447396, Control_c, 0, 64, 127
2, 447404, Note_off_c, 0, 63, 64
2, 447416, Note_off_c, 0, 60, 64
2, 447467, Note_on_c, 0, 51, 64
2, 447484, Note_off_c, 0, 56, 64
2, 447555, Note_on_c, 0, 63, 58
2, 447587, Note_off_c, 0, 51, 64
2, 447644, Note_on_c, 0, 75, 51
2, 447649, Note_on_c, 0, 72, 58
2, 447651, Note_on_c, 0, 68, 63
2, 447662, Control_c, 0, 64, 0
2, 447678, Note_off_c, 0, 63, 64
2, 447735, Control_c, 0, 64, 127
2, 447833, Note_on_c, 0, 73, 58
2, 447850, Note_off_c, 0, 72, 64
2, 447915, Note_on_c, 0, 67, 54
2, 447935, Note_off_c, 0, 68, 64
2, 448000, Note_on_c, 0, 51, 62
2, 448034, Note_off_c, 0, 67, 64
2, 448043, Note_off_c, 0, 73, 64
2, 448048, Note_off_c, 0, 75, 64
2, 448067, Note_on_c, 0, 65, 62
2, 448101, Note_off_c, 0, 51, 64
2, 448126, Control_c, 0, 64, 0
2, 448158, Control_c, 0, 64, 127
2, 448164, Note_on_c, 0, 75, 51
2, 448164, Note_on_c, 0, 67, 56
2, 448164, Note_on_c, 0, 63, 62
2, 448184, Note_off_c, 0, 65, 64
2, 448351, Note_on_c, 0, 68, 58
2, 448355, Note_off_c, 0, 67, 64
2, 448361, Note_on_c, 0, 61, 46
2, 448370, Control_c, 0, 64, 0
2, 448382, Note_off_c, 0, 63, 64
2, 448407, Control_c, 0, 64, 127
2, 448446, Note_on_c, 0, 60, 56
2, 448452, Note_off_c, 0, 61, 64
2, 448534, Note_on_c, 0, 44, 62
2, 448553, Note_off_c, 0, 60, 64
2, 448568, Note_off_c, 0, 68, 64
2, 448576, Note_off_c, 0, 75, 64
2, 448633, Note_on_c, 0, 58, 64
2, 448666, Note_off_c, 0, 44, 64
2, 448746, Note_on_c, 0, 63, 40
2, 448747, Note_on_c, 0, 72, 49
2, 448749, Note_on_c, 0, 75, 49
2, 448754, Note_on_c, 0, 56, 42
2, 448763, Control_c, 0, 64, 0
2, 448772, Note_off_c, 0, 58, 64
2, 448838, Control_c, 0, 64, 127
2, 448999, Note_on_c, 0, 76, 46
2, 448999, Note_on_c, 0, 73, 37
2, 449004, Note_off_c, 0, 72, 64
2, 449005, Note_on_c, 0, 64, 49
2, 449006, Note_off_c, 0, 75, 64
2, 449011, Note_off_c, 0, 63, 64
2, 449022, Control_c, 0, 64, 0
2, 449074, Control_c, 0, 64, 127
2, 449202, Note_off_c, 0, 56, 64
2, 449225, Note_on_c, 0, 56, 49
2, 449297, Note_off_c, 0, 76, 64
2, 449306, Note_on_c, 0, 59, 62
2, 449321, Note_off_c, 0, 73, 64
2, 449322, Note_off_c, 0, 56, 64
2, 449336, Note_off_c, 0, 64, 64
2, 449373, Note_on_c, 0, 57, 64
2, 449398, Note_off_c, 0, 59, 64
2, 449442, Note_on_c, 0, 56, 56
2, 449452, Note_off_c, 0, 57, 64
2, 449504, Note_on_c, 0, 75, 41
2, 449508, Note_on_c, 0, 63, 47
2, 449509, Note_on_c, 0, 70, 49
2, 449513, Note_on_c, 0, 55, 58
2, 449514, Control_c, 0, 64, 0
2, 449531, Note_off_c, 0, 56, 64
2, 449550, Control_c, 0, 64, 127
2, 449578, Note_on_c, 0, 51, 67
2, 449585, Note_on_c, 0, 73, 50
2, 449588, Note_off_c, 0, 55, 64
2, 449602, Note_off_c, 0, 70, 64
2, 449612, Note_off_c, 0, 75, 64
2, 449676, Note_on_c, 0, 68, 59
2, 449679, Note_on_c, 0, 72, 54
2, 449679, Note_on_c, 0, 56, 64
2, 449686, Note_off_c, 0, 73, 64
2, 449693, Control_c, 0, 64, 0
2, 449704, Note_off_c, 0, 51, 64
2, 449735, Control_c, 0, 64, 127
2, 449828, Note_on_c, 0, 75, 39
2, 449830, Note_on_c, 0, 44, 51
2, 449837, Note_off_c, 0, 72, 64
2, 449909, Note_on_c, 0, 54, 67
2, 449917, Note_off_c, 0, 56, 64
2, 449966, Note_off_c, 0, 44, 64
2, 449975, Note_off_c, 0, 75, 64
2, 449987, Note_off_c, 0, 63, 64
2, 449988, Note_on_c, 0, 75, 39
2, 449992, Note_on_c, 0, 61, 55
2, 449996, Note_on_c, 0, 52, 51
2, 450000, Note_on_c, 0, 44, 39
2, 450005, Control_c, 0, 64, 0
2, 450019, Note_off_c, 0, 54, 64
2, 450036, Control_c, 0, 64, 127
2, 450059, Note_off_c, 0, 68, 64
2, 450078, Note_on_c, 0, 68, 49
2, 450083, Note_off_c, 0, 75, 64
2, 450155, Control_c, 0, 64, 0
2, 450166, Note_off_c, 0, 68, 64
2, 450172, Note_on_c, 0, 68, 49
2, 450172, Note_on_c, 0, 63, 71
2, 450172, Note_on_c, 0, 51, 34
2, 450185, Note_off_c, 0, 52, 64
2, 450187, Control_c, 0, 64, 127
2, 450188, Note_off_c, 0, 61, 64
2, 450256, Note_on_c, 0, 66, 48
2, 450275, Note_off_c, 0, 63, 64
2, 450334, Note_on_c, 0, 73, 48
2, 450336, Note_on_c, 0, 64, 62
2, 450341, Note_on_c, 0, 49, 52
2, 450351, Note_off_c, 0, 51, 64
2, 450359, Note_off_c, 0, 66, 64
2, 450404, Note_on_c, 0, 51, 58
2, 450408, Note_on_c, 0, 72, 48
2, 450411, Note_on_c, 0, 63, 66
2, 450417, Note_off_c, 0, 73, 64
2, 450419, Note_off_c, 0, 64, 64
2, 450424, Note_off_c, 0, 49, 64
2, 450484, Note_on_c, 0, 52, 56
2, 450488, Note_on_c, 0, 70, 31
2, 450488, Note_on_c, 0, 61, 67
2, 450514, Note_off_c, 0, 51, 64
2, 450518, Note_off_c, 0, 72, 64
2, 450520, Control_c, 0, 64, 0
2, 450521, Note_off_c, 0, 63, 64
2, 450556, Control_c, 0, 64, 127
2, 450576, Note_on_c, 0, 58, 63
2, 450580, Note_on_c, 0, 73, 44
2, 450590, Note_off_c, 0, 61, 64
2, 450604, Note_off_c, 0, 70, 64
2, 450660, Note_on_c, 0, 63, 60
2, 450660, Note_on_c, 0, 51, 44
2, 450664, Note_on_c, 0, 70, 34
2, 450664, Note_on_c, 0, 67, 34
2, 450665, Note_off_c, 0, 52, 64
2, 450675, Note_off_c, 0, 68, 64
2, 450677, Note_off_c, 0, 58, 64
2, 450685, Note_off_c, 0, 73, 64
2, 450725, Control_c, 0, 64, 0
2, 450769, Control_c, 0, 64, 127
2, 450879, Note_on_c, 0, 72, 46
2, 450904, Note_off_c, 0, 70, 64
2, 450969, Note_on_c, 0, 61, 51
2, 450980, Note_off_c, 0, 63, 64
2, 451047, Note_off_c, 0, 44, 64
2, 451050, Note_off_c, 0, 51, 64
2, 451072, Note_on_c, 0, 60, 49
2, 451074, Note_on_c, 0, 68, 50
2, 451075, Note_on_c, 0, 44, 62
2, 451084, Note_off_c, 0, 67, 64
2, 451088, Note_off_c, 0, 72, 64
2, 451093, Note_off_c, 0, 61, 64
2, 451100, Control_c, 0, 64, 0
2, 451146, Control_c, 0, 64, 127
2, 451254, Note_off_c, 0, 60, 64
2, 451264, Note_off_c, 0, 68, 64
2, 451264, Note_off_c, 0, 44, 64
2, 451297, Note_on_c, 0, 68, 57
2, 451389, Note_on_c, 0, 71, 50
2, 451396, Note_off_c, 0, 68, 64
2, 451486, Note_on_c, 0, 69, 42
2, 451503, Note_off_c, 0, 71, 64
2, 451555, Note_on_c, 0, 68, 47
2, 451561, Note_off_c, 0, 69, 64
2, 451637, Note_on_c, 0, 73, 55
2, 451637, Note_on_c, 0, 70, 62
2, 451647, Note_on_c, 0, 67, 47
2, 451669, Note_off_c, 0, 68, 64
2, 451729, Note_on_c, 0, 63, 65
2, 451755, Note_off_c, 0, 67, 64
2, 451810, Note_on_c, 0, 68, 64
2, 451836, Note_off_c, 0, 63, 64
2, 451838, Control_c, 0, 64, 0
2, 451913, Control_c, 0, 64, 127
2, 452004, Note_on_c, 0, 75, 59
2, 452010, Note_on_c, 0, 72, 58
2, 452028, Note_off_c, 0, 70, 64
2, 452028, Note_off_c, 0, 73, 64
2, 452103, Note_on_c, 0, 66, 63
2, 452111, Note_off_c, 0, 68, 64
2, 452214, Note_off_c, 0, 75, 64
2, 452220, Note_off_c, 0, 72, 64
2, 452223, Note_on_c, 0, 80, 64
2, 452223, Note_on_c, 0, 64, 47
2, 452228, Note_on_c, 0, 73, 59
2, 452235, Note_off_c, 0, 66, 64
2, 452235, Note_on_c, 0, 56, 46
2, 452275, Control_c, 0, 64, 0
2, 452386, Control_c, 0, 64, 127
2, 452432, Note_on_c, 0, 75, 67
2, 452450, Note_off_c, 0, 73, 64
2, 452506, Note_on_c, 0, 78, 39
2, 452530, Note_off_c, 0, 75, 64
2, 452593, Note_on_c, 0, 76, 39
2, 452612, Note_off_c, 0, 78, 64
2, 452654, Note_on_c, 0, 75, 57
2, 452673, Note_off_c, 0, 76, 64
2, 452710, Note_off_c, 0, 80, 64
2, 452740, Note_on_c, 0, 79, 44
2, 452743, Note_on_c, 0, 82, 64
2, 452749, Note_on_c, 0, 73, 59
2, 452764, Note_off_c, 0, 75, 64
2, 452764, Control_c, 0, 64, 0
2, 452785, Control_c, 0, 64, 127
2, 452828, Note_on_c, 0, 70, 73
2, 452852, Note_off_c, 0, 73, 64
2, 452903, Note_off_c, 0, 64, 64
2, 452914, Note_on_c, 0, 75, 62
2, 452921, Control_c, 0, 64, 0
2, 452924, Note_on_c, 0, 63, 36
2, 452940, Note_off_c, 0, 70, 64
2, 452941, Note_off_c, 0, 79, 64
2, 452944, Note_off_c, 0, 82, 64
2, 452953, Control_c, 0, 64, 127
2, 452968, Note_off_c, 0, 56, 64
2, 453125, Note_on_c, 0, 70, 58
2, 453153, Note_off_c, 0, 63, 64
2, 453209, Note_on_c, 0, 73, 52
2, 453224, Note_off_c, 0, 75, 64
2, 453296, Note_on_c, 0, 63, 42
2, 453296, Note_on_c, 0, 56, 50
2, 453307, Note_on_c, 0, 84, 66
2, 453310, Note_on_c, 0, 72, 67
2, 453323, Control_c, 0, 64, 0
2, 453326, Note_off_c, 0, 73, 64
2, 453344, Control_c, 0, 64, 127
2, 453345, Note_off_c, 0, 70, 64
2, 453400, Note_on_c, 0, 73, 69
2, 453422, Note_off_c, 0, 72, 64
2, 453466, Note_off_c, 0, 84, 64
2, 453474, Note_on_c, 0, 75, 66
2, 453496, Note_off_c, 0, 73, 64
2, 453537, Note_off_c, 0, 56, 64
2, 453537, Note_off_c, 0, 63, 64
2, 453549, Note_on_c, 0, 76, 69
2, 453555, Note_off_c, 0, 75, 64
2, 453625, Note_on_c, 0, 78, 65
2, 453648, Note_off_c, 0, 76, 64
2, 453701, Note_on_c, 0, 80, 64
2, 453720, Note_off_c, 0, 78, 64
2, 453749, Control_c, 0, 64, 0
2, 453763, Note_on_c, 0, 81, 71
2, 453763, Note_on_c, 0, 44, 55
2, 453785, Control_c, 0, 64, 127
2, 453793, Note_off_c, 0, 80, 64
2, 453804, Note_off_c, 0, 44, 64
2, 453821, Note_on_c, 0, 83, 32
2, 453835, Note_off_c, 0, 81, 64
2, 453854, Note_on_c, 0, 81, 56
2, 453860, Note_off_c, 0, 83, 64
2, 453928, Note_on_c, 0, 78, 54
2, 453928, Note_on_c, 0, 66, 35
2, 453930, Note_on_c, 0, 84, 78
2, 453930, Note_on_c, 0, 60, 59
2, 453932, Note_on_c, 0, 56, 51
2, 453956, Note_off_c, 0, 81, 64
2, 453982, Note_off_c, 0, 56, 64
2, 454007, Note_off_c, 0, 66, 64
2, 454010, Note_on_c, 0, 76, 59
2, 454014, Note_off_c, 0, 60, 64
2, 454020, Note_off_c, 0, 78, 64
2, 454080, Note_on_c, 0, 61, 50
2, 454084, Note_on_c, 0, 66, 49
2, 454086, Note_on_c, 0, 57, 46
2, 454091, Note_on_c, 0, 75, 62
2, 454095, Note_on_c, 0, 85, 92
2, 454100, Note_off_c, 0, 76, 64
2, 454101, Note_off_c, 0, 84, 64
2, 454126, Note_off_c, 0, 57, 64
2, 454126, Note_off_c, 0, 61, 64
2, 454130, Note_off_c, 0, 66, 64
2, 454169, Note_on_c, 0, 73, 71
2, 454192, Note_off_c, 0, 75, 64
2, 454244, Note_on_c, 0, 63, 62
2, 454248, Note_on_c, 0, 72, 77
2, 454248, Note_on_c, 0, 66, 62
2, 454248, Note_on_c, 0, 56, 59
2, 454253, Control_c, 0, 64, 0
2, 454259, Note_off_c, 0, 73, 64
2, 454263, Note_off_c, 0, 63, 64
2, 454270, Note_off_c, 0, 85, 64
2, 454275, Note_off_c, 0, 66, 64
2, 454280, Note_off_c, 0, 56, 64
2, 454282, Control_c, 0, 64, 127
2, 454328, Note_on_c, 0, 87, 79
2, 454348, Note_off_c, 0, 72, 64
2, 454398, Note_on_c, 0, 44, 70
2, 454398, Control_c, 0, 64, 0
2, 454406, Note_on_c, 0, 75, 82
2, 454428, Note_off_c, 0, 87, 64
2, 454433, Control_c, 0, 64, 127
2, 454442, Note_off_c, 0, 44, 64
2, 454490, Note_on_c, 0, 76, 73
2, 454502, Note_off_c, 0, 75, 64
2, 454558, Note_on_c, 0, 56, 40
2, 454563, Note_on_c, 0, 66, 62
2, 454563, Control_c, 0, 64, 0
2, 454567, Note_on_c, 0, 78, 82
2, 454578, Control_c, 0, 64, 127
2, 454600, Note_off_c, 0, 76, 64
2, 454623, Note_off_c, 0, 56, 64
2, 454632, Note_on_c, 0, 80, 73
2, 454647, Note_off_c, 0, 66, 64
2, 454662, Note_off_c, 0, 78, 64
2, 454704, Note_on_c, 0, 81, 85
2, 454736, Note_off_c, 0, 80, 64
2, 454768, Note_on_c, 0, 83, 35
2, 454777, Note_off_c, 0, 81, 64
2, 454796, Note_on_c, 0, 81, 62
2, 454803, Note_off_c, 0, 83, 64
2, 454861, Note_on_c, 0, 84, 86
2, 454868, Note_on_c, 0, 78, 49
2, 454869, Note_on_c, 0, 66, 56
2, 454872, Note_on_c, 0, 60, 56
2, 454872, Note_on_c, 0, 56, 57
2, 454884, Note_off_c, 0, 81, 64
2, 454909, Note_off_c, 0, 60, 64
2, 454911, Note_off_c, 0, 56, 64
2, 454922, Note_off_c, 0, 66, 64
2, 454943, Note_on_c, 0, 76, 65
2, 454957, Note_off_c, 0, 78, 64
2, 455015, Note_on_c, 0, 85, 83
2, 455016, Note_on_c, 0, 57, 57
2, 455018, Note_on_c, 0, 66, 54
2, 455020, Note_on_c, 0, 75, 74
2, 455020, Note_on_c, 0, 61, 49
2, 455032, Note_off_c, 0, 84, 64
2, 455037, Note_off_c, 0, 76, 64
2, 455062, Note_off_c, 0, 66, 64
2, 455064, Note_off_c, 0, 61, 64
2, 455068, Note_off_c, 0, 57, 64
2, 455095, Note_on_c, 0, 73, 70
2, 455122, Note_off_c, 0, 75, 64
2, 455142, Note_off_c, 0, 85, 64
2, 455176, Note_on_c, 0, 72, 77
2, 455180, Note_on_c, 0, 63, 64
2, 455182, Note_on_c, 0, 56, 60
2, 455184, Note_on_c, 0, 66, 58
2, 455192, Note_off_c, 0, 73, 64
2, 455205, Note_off_c, 0, 63, 64
2, 455212, Note_off_c, 0, 66, 64
2, 455222, Note_off_c, 0, 56, 64
2, 455251, Note_on_c, 0, 87, 79
2, 455321, Note_off_c, 0, 72, 64
2, 455321, Note_on_c, 0, 44, 73
2, 455326, Control_c, 0, 64, 0
2, 455329, Note_on_c, 0, 75, 85
2, 455349, Control_c, 0, 64, 127
2, 455356, Note_off_c, 0, 44, 64
2, 455359, Note_off_c, 0, 87, 64
2, 455409, Note_on_c, 0, 76, 77
2, 455430, Note_off_c, 0, 75, 64
2, 455463, Control_c, 0, 64, 0
2, 455464, Note_on_c, 0, 66, 67
2, 455464, Note_on_c, 0, 56, 63
2, 455468, Note_on_c, 0, 60, 56
2, 455470, Note_on_c, 0, 78, 98
2, 455496, Control_c, 0, 64, 127
2, 455514, Note_off_c, 0, 76, 64
2, 455527, Note_off_c, 0, 56, 64
2, 455546, Note_on_c, 0, 80, 69
2, 455555, Note_off_c, 0, 60, 64
2, 455561, Note_off_c, 0, 66, 64
2, 455565, Note_off_c, 0, 78, 64
2, 455601, Note_on_c, 0, 81, 83
2, 455650, Note_off_c, 0, 80, 64
2, 455666, Note_on_c, 0, 83, 47
2, 455680, Note_off_c, 0, 81, 64
2, 455689, Note_on_c, 0, 81, 50
2, 455709, Note_off_c, 0, 83, 64
2, 455749, Note_on_c, 0, 84, 73
2, 455754, Note_on_c, 0, 56, 60
2, 455756, Note_on_c, 0, 78, 48
2, 455758, Note_on_c, 0, 66, 59
2, 455761, Note_on_c, 0, 60, 59
2, 455768, Control_c, 0, 64, 0
2, 455779, Note_off_c, 0, 81, 64
2, 455779, Control_c, 0, 64, 127
2, 455805, Note_off_c, 0, 56, 64
2, 455810, Note_off_c, 0, 66, 64
2, 455812, Note_off_c, 0, 60, 64
2, 455824, Note_on_c, 0, 76, 69
2, 455837, Note_off_c, 0, 78, 64
2, 455900, Note_on_c, 0, 66, 56
2, 455903, Note_on_c, 0, 85, 83
2, 455903, Note_on_c, 0, 75, 67
2, 455904, Note_on_c, 0, 61, 56
2, 455904, Note_on_c, 0, 56, 55
2, 455908, Note_off_c, 0, 84, 64
2, 455914, Note_off_c, 0, 76, 64
2, 455933, Note_off_c, 0, 66, 64
2, 455935, Note_off_c, 0, 61, 64
2, 455941, Note_off_c, 0, 56, 64
2, 455977, Note_on_c, 0, 73, 64
2, 456001, Note_off_c, 0, 75, 64
2, 456044, Note_off_c, 0, 85, 64
2, 456052, Note_on_c, 0, 44, 73
2, 456056, Control_c, 0, 64, 0
2, 456064, Note_on_c, 0, 76, 83
2, 456072, Note_off_c, 0, 73, 64
2, 456082, Control_c, 0, 64, 127
2, 456089, Note_off_c, 0, 44, 64
2, 456104, Note_on_c, 0, 78, 62
2, 456117, Note_off_c, 0, 76, 64
2, 456150, Note_on_c, 0, 76, 57
2, 456168, Note_off_c, 0, 78, 64
2, 456196, Note_on_c, 0, 52, 26
2, 456199, Note_on_c, 0, 61, 58
2, 456212, Note_on_c, 0, 75, 63
2, 456214, Note_on_c, 0, 80, 66
2, 456227, Note_off_c, 0, 76, 64
2, 456246, Note_off_c, 0, 61, 64
2, 456247, Note_off_c, 0, 52, 64
2, 456280, Note_on_c, 0, 73, 67
2, 456287, Note_off_c, 0, 75, 64
2, 456351, Note_on_c, 0, 61, 52
2, 456359, Note_on_c, 0, 71, 63
2, 456359, Note_on_c, 0, 52, 58
2, 456367, Note_off_c, 0, 73, 64
2, 456367, Note_on_c, 0, 81, 72
2, 456372, Note_off_c, 0, 80, 64
2, 456384, Note_off_c, 0, 61, 64
2, 456396, Note_off_c, 0, 52, 64
2, 456447, Note_on_c, 0, 69, 54
2, 456455, Note_off_c, 0, 71, 64
2, 456507, Note_off_c, 0, 81, 64
2, 456521, Note_on_c, 0, 44, 60
2, 456522, Note_on_c, 0, 73, 66
2, 456537, Control_c, 0, 64, 0
2, 456545, Note_off_c, 0, 69, 64
2, 456551, Control_c, 0, 64, 127
2, 456556, Note_off_c, 0, 44, 64
2, 456583, Note_on_c, 0, 75, 63
2, 456590, Note_off_c, 0, 73, 64
2, 456642, Note_on_c, 0, 73, 48
2, 456650, Note_off_c, 0, 75, 64
2, 456680, Note_on_c, 0, 71, 54
2, 456680, Note_on_c, 0, 52, 52
2, 456681, Note_on_c, 0, 75, 66
2, 456684, Note_on_c, 0, 61, 19
2, 456705, Note_off_c, 0, 73, 64
2, 456714, Note_off_c, 0, 52, 64
2, 456742, Note_off_c, 0, 61, 64
2, 456764, Note_on_c, 0, 69, 60
2, 456778, Note_off_c, 0, 71, 64
2, 456852, Note_on_c, 0, 52, 46
2, 456855, Note_on_c, 0, 57, 49
2, 456856, Note_on_c, 0, 64, 58
2, 456858, Note_on_c, 0, 76, 83
2, 456870, Note_off_c, 0, 75, 64
2, 456876, Note_off_c, 0, 69, 64
2, 456892, Note_off_c, 0, 57, 64
2, 456892, Note_off_c, 0, 52, 64
2, 456976, Note_on_c, 0, 61, 60
2, 457014, Note_off_c, 0, 64, 64
2, 457026, Note_off_c, 0, 76, 64
2, 457108, Note_on_c, 0, 44, 58
2, 457134, Control_c, 0, 64, 0
2, 457156, Control_c, 0, 64, 127
2, 457197, Note_on_c, 0, 60, 52
2, 457221, Note_off_c, 0, 61, 64
2, 457287, Control_c, 0, 64, 0
2, 457293, Note_on_c, 0, 56, 51
2, 457300, Control_c, 0, 64, 127
2, 457308, Note_on_c, 0, 51, 43
2, 457342, Note_off_c, 0, 51, 64
2, 457344, Note_off_c, 0, 56, 64
2, 457374, Note_on_c, 0, 72, 64
2, 457460, Note_off_c, 0, 72, 64
2, 457462, Note_on_c, 0, 70, 69
2, 457468, Note_on_c, 0, 51, 48
2, 457473, Note_off_c, 0, 44, 64
2, 457513, Note_off_c, 0, 51, 64
2, 457534, Note_on_c, 0, 72, 65
2, 457543, Note_off_c, 0, 70, 64
2, 457625, Note_on_c, 0, 44, 66
2, 457625, Note_on_c, 0, 70, 78
2, 457630, Note_off_c, 0, 72, 64
2, 457633, Control_c, 0, 64, 0
2, 457643, Control_c, 0, 64, 127
2, 457656, Note_off_c, 0, 60, 64
2, 457695, Note_on_c, 0, 68, 61
2, 457711, Note_off_c, 0, 70, 64
2, 457792, Note_on_c, 0, 76, 62
2, 457792, Note_on_c, 0, 64, 62
2, 457798, Note_on_c, 0, 51, 53
2, 457807, Note_off_c, 0, 68, 64
2, 457807, Note_on_c, 0, 60, 57
2, 457815, Control_c, 0, 64, 0
2, 457836, Control_c, 0, 64, 127
2, 457861, Note_off_c, 0, 51, 64
2, 457863, Note_off_c, 0, 60, 64
2, 457964, Note_on_c, 0, 60, 45
2, 457970, Note_on_c, 0, 51, 62
2, 457975, Note_off_c, 0, 44, 64
2, 458020, Note_off_c, 0, 60, 64
2, 458031, Note_on_c, 0, 75, 64
2, 458036, Note_on_c, 0, 63, 76
2, 458045, Note_off_c, 0, 64, 64
2, 458045, Note_off_c, 0, 76, 64
2, 458081, Note_off_c, 0, 75, 64
2, 458088, Note_off_c, 0, 63, 64
2, 458127, Note_on_c, 0, 75, 66
2, 458131, Note_on_c, 0, 63, 70
2, 458135, Note_on_c, 0, 43, 77
2, 458147, Control_c, 0, 64, 0
2, 458177, Control_c, 0, 64, 127
2, 458231, Note_off_c, 0, 75, 64
2, 458243, Note_off_c, 0, 63, 64
2, 458268, Note_off_c, 0, 51, 64
2, 458300, Note_on_c, 0, 73, 55
2, 458307, Note_on_c, 0, 61, 69
2, 458314, Note_on_c, 0, 52, 52
2, 458340, Control_c, 0, 64, 0
2, 458352, Control_c, 0, 64, 127
2, 458422, Note_off_c, 0, 61, 64
2, 458425, Note_on_c, 0, 63, 60
2, 458428, Note_on_c, 0, 54, 58
2, 458437, Note_off_c, 0, 52, 64
2, 458464, Note_on_c, 0, 52, 59
2, 458466, Note_on_c, 0, 61, 75
2, 458472, Note_off_c, 0, 63, 64
2, 458474, Control_c, 0, 64, 0
2, 458480, Note_off_c, 0, 54, 64
2, 458482, Note_off_c, 0, 43, 64
2, 458514, Control_c, 0, 64, 127
2, 458643, Note_on_c, 0, 43, 66
2, 458654, Control_c, 0, 64, 0
2, 458671, Note_off_c, 0, 52, 64
2, 458674, Control_c, 0, 64, 127
2, 458680, Note_off_c, 0, 73, 64
2, 458701, Note_off_c, 0, 61, 64
2, 458804, Note_on_c, 0, 57, 51
2, 458808, Note_on_c, 0, 61, 55
2, 458813, Note_on_c, 0, 52, 52
2, 458828, Control_c, 0, 64, 0
2, 458849, Control_c, 0, 64, 127
2, 458927, Note_on_c, 0, 54, 41
2, 458934, Note_off_c, 0, 52, 64
2, 458936, Note_on_c, 0, 63, 59
2, 458942, Note_off_c, 0, 61, 64
2, 458970, Note_on_c, 0, 61, 67
2, 458973, Note_off_c, 0, 57, 64
2, 458973, Note_on_c, 0, 52, 57
2, 458976, Note_on_c, 0, 57, 50
2, 458978, Note_off_c, 0, 43, 64
2, 458982, Control_c, 0, 64, 0
2, 458989, Note_off_c, 0, 54, 64
2, 458992, Note_off_c, 0, 63, 64
2, 459004, Control_c, 0, 64, 127
2, 459140, Note_on_c, 0, 43, 70
2, 459145, Note_off_c, 0, 57, 64
2, 459145, Control_c, 0, 64, 0
2, 459154, Note_off_c, 0, 61, 64
2, 459168, Note_off_c, 0, 52, 64
2, 459177, Control_c, 0, 64, 127
2, 459306, Note_on_c, 0, 61, 69
2, 459313, Note_on_c, 0, 57, 49
2, 459313, Note_on_c, 0, 52, 47
2, 459320, Control_c, 0, 64, 0
2, 459351, Control_c, 0, 64, 127
2, 459372, Note_off_c, 0, 57, 64
2, 459374, Note_off_c, 0, 52, 64
2, 459387, Note_on_c, 0, 73, 72
2, 459446, Note_off_c, 0, 43, 64
2, 459451, Note_off_c, 0, 73, 64
2, 459470, Note_on_c, 0, 71, 65
2, 459476, Note_on_c, 0, 52, 57
2, 459480, Note_on_c, 0, 57, 62
2, 459535, Note_off_c, 0, 71, 64
2, 459538, Note_on_c, 0, 73, 69
2, 459597, Note_off_c, 0, 57, 64
2, 459604, Note_off_c, 0, 52, 64
2, 459606, Note_off_c, 0, 73, 64
2, 459624, Note_on_c, 0, 71, 66
2, 459628, Note_on_c, 0, 43, 74
2, 459636, Control_c, 0, 64, 0
2, 459658, Control_c, 0, 64, 127
2, 459698, Note_off_c, 0, 61, 64
2, 459704, Note_on_c, 0, 69, 67
2, 459721, Note_off_c, 0, 71, 64
2, 459800, Note_on_c, 0, 66, 73
2, 459800, Note_on_c, 0, 61, 58
2, 459800, Note_on_c, 0, 52, 66
2, 459804, Note_on_c, 0, 78, 79
2, 459814, Note_off_c, 0, 69, 64
2, 459818, Control_c, 0, 64, 0
2, 459839, Control_c, 0, 64, 127
2, 459879, Note_off_c, 0, 61, 64
2, 459885, Note_off_c, 0, 52, 64
2, 459959, Note_off_c, 0, 43, 64
2, 459971, Note_on_c, 0, 61, 57
2, 459988, Note_on_c, 0, 52, 66
2, 460000, Note_off_c, 0, 61, 64
2, 460016, Note_off_c, 0, 52, 64
2, 460048, Note_on_c, 0, 76, 63
2, 460048, Note_on_c, 0, 64, 63
2, 460056, Note_off_c, 0, 66, 64
2, 460060, Note_off_c, 0, 78, 64
2, 460102, Note_off_c, 0, 64, 64
2, 460102, Note_off_c, 0, 76, 64
2, 460135, Note_on_c, 0, 76, 81
2, 460137, Note_on_c, 0, 42, 80
2, 460143, Note_on_c, 0, 64, 83
2, 460146, Control_c, 0, 64, 0
2, 460167, Control_c, 0, 64, 127
2, 460189, Note_off_c, 0, 76, 64
2, 460196, Note_off_c, 0, 64, 64
2, 460317, Note_on_c, 0, 54, 56
2, 460320, Note_on_c, 0, 63, 72
2, 460321, Note_on_c, 0, 75, 55
2, 460327, Note_on_c, 0, 60, 44
2, 460336, Control_c, 0, 64, 0
2, 460358, Control_c, 0, 64, 127
2, 460414, Note_on_c, 0, 56, 65
2, 460420, Note_off_c, 0, 63, 64
2, 460422, Note_off_c, 0, 54, 64
2, 460429, Note_on_c, 0, 64, 63
2, 460438, Note_off_c, 0, 75, 64
2, 460452, Note_off_c, 0, 60, 64
2, 460468, Note_off_c, 0, 42, 64
2, 460468, Note_on_c, 0, 54, 69
2, 460469, Note_on_c, 0, 63, 73
2, 460472, Note_on_c, 0, 60, 43
2, 460478, Note_off_c, 0, 64, 64
2, 460483, Note_off_c, 0, 56, 64
2, 460483, Control_c, 0, 64, 0
2, 460494, Control_c, 0, 64, 127
2, 460624, Note_off_c, 0, 54, 64
2, 460625, Note_off_c, 0, 63, 64
2, 460628, Note_off_c, 0, 60, 64
2, 460633, Note_on_c, 0, 40, 72
2, 460635, Control_c, 0, 64, 0
2, 460667, Control_c, 0, 64, 127
2, 460796, Note_on_c, 0, 57, 63
2, 460801, Note_on_c, 0, 64, 57
2, 460801, Note_on_c, 0, 52, 57
2, 460804, Note_on_c, 0, 61, 60
2, 460814, Control_c, 0, 64, 0
2, 460825, Control_c, 0, 64, 127
2, 460909, Note_on_c, 0, 66, 51
2, 460914, Note_off_c, 0, 52, 64
2, 460914, Note_on_c, 0, 51, 56
2, 460918, Note_off_c, 0, 61, 64
2, 460922, Note_off_c, 0, 64, 64
2, 460937, Note_off_c, 0, 57, 64
2, 460955, Note_on_c, 0, 52, 50
2, 460960, Note_on_c, 0, 61, 58
2, 460960, Note_on_c, 0, 57, 60
2, 460962, Note_off_c, 0, 51, 64
2, 460962, Note_on_c, 0, 64, 57
2, 460964, Note_off_c, 0, 40, 64
2, 460996, Note_off_c, 0, 66, 64
2, 461069, Note_off_c, 0, 52, 64
2, 461074, Note_off_c, 0, 57, 64
2, 461074, Note_off_c, 0, 61, 64
2, 461076, Note_off_c, 0, 64, 64
2, 461112, Control_c, 0, 64, 0
2, 461119, Note_on_c, 0, 39, 92
2, 461145, Control_c, 0, 64, 127
2, 461264, Note_on_c, 0, 57, 58
2, 461264, Note_on_c, 0, 66, 63
2, 461264, Note_on_c, 0, 60, 65
2, 461343, Note_off_c, 0, 60, 64
2, 461343, Note_off_c, 0, 66, 64
2, 461352, Note_on_c, 0, 68, 69
2, 461352, Note_on_c, 0, 59, 46
2, 461367, Note_off_c, 0, 57, 64
2, 461428, Note_on_c, 0, 66, 92
2, 461432, Note_on_c, 0, 60, 66
2, 461432, Note_on_c, 0, 57, 25
2, 461447, Note_off_c, 0, 68, 64
2, 461448, Note_off_c, 0, 59, 64
2, 461450, Note_off_c, 0, 39, 64
2, 461534, Note_on_c, 0, 75, 74
2, 461536, Note_off_c, 0, 66, 64
2, 461536, Note_on_c, 0, 63, 78
2, 461540, Note_off_c, 0, 57, 64
2, 461540, Note_off_c, 0, 60, 64
2, 461541, Note_on_c, 0, 51, 62
2, 461560, Note_off_c, 0, 75, 64
2, 461564, Note_off_c, 0, 63, 64
2, 461587, Note_on_c, 0, 63, 71
2, 461591, Note_on_c, 0, 75, 73
2, 461591, Note_on_c, 0, 54, 69
2, 461600, Control_c, 0, 64, 0
2, 461603, Note_off_c, 0, 51, 64
2, 461613, Control_c, 0, 64, 127
2, 461633, Note_off_c, 0, 75, 64
2, 461652, Note_off_c, 0, 63, 64
2, 461657, Note_off_c, 0, 54, 64
2, 461752, Note_on_c, 0, 60, 58
2, 461752, Note_on_c, 0, 57, 58
2, 461754, Note_on_c, 0, 63, 52
2, 461756, Note_on_c, 0, 54, 55
2, 461777, Control_c, 0, 64, 0
2, 461788, Control_c, 0, 64, 127
2, 461875, Note_on_c, 0, 56, 55
2, 461877, Note_off_c, 0, 54, 64
2, 461877, Note_on_c, 0, 64, 47
2, 461889, Note_off_c, 0, 57, 64
2, 461889, Note_off_c, 0, 60, 64
2, 461891, Note_off_c, 0, 63, 64
2, 461912, Note_on_c, 0, 57, 58
2, 461916, Note_on_c, 0, 63, 64
2, 461916, Note_on_c, 0, 60, 58
2, 461919, Note_on_c, 0, 54, 55
2, 461947, Note_off_c, 0, 56, 64
2, 461949, Note_off_c, 0, 64, 64
2, 462049, Note_off_c, 0, 57, 64
2, 462053, Note_off_c, 0, 60, 64
2, 462085, Control_c, 0, 64, 0
2, 462090, Note_off_c, 0, 63, 64
2, 462093, Note_off_c, 0, 54, 64
2, 462095, Note_on_c, 0, 36, 92
2, 462109, Control_c, 0, 64, 127
2, 462256, Note_on_c, 0, 63, 71
2, 462256, Note_on_c, 0, 57, 66
2, 462258, Note_on_c, 0, 66, 73
2, 462271, Control_c, 0, 64, 0
2, 462282, Control_c, 0, 64, 127
2, 462336, Note_on_c, 0, 68, 64
2, 462336, Note_on_c, 0, 59, 64
2, 462350, Note_off_c, 0, 57, 64
2, 462350, Note_off_c, 0, 63, 64
2, 462352, Note_off_c, 0, 66, 64
2, 462400, Note_on_c, 0, 66, 71
2, 462400, Note_on_c, 0, 63, 71
2, 462404, Note_on_c, 0, 57, 46
2, 462418, Note_off_c, 0, 59, 64
2, 462418, Note_off_c, 0, 68, 64
2, 462426, Note_off_c, 0, 36, 64
2, 462514, Note_off_c, 0, 63, 64
2, 462514, Note_off_c, 0, 66, 64
2, 462516, Note_on_c, 0, 48, 3
2, 462518, Note_off_c, 0, 57, 64
2, 462520, Note_on_c, 0, 75, 70
2, 462523, Note_on_c, 0, 63, 74
2, 462542, Note_off_c, 0, 75, 64
2, 462546, Note_off_c, 0, 63, 64
2, 462564, Note_on_c, 0, 54, 74
2, 462568, Note_on_c, 0, 63, 63
2, 462571, Note_on_c, 0, 75, 77
2, 462575, Control_c, 0, 64, 0
2, 462578, Note_off_c, 0, 48, 64
2, 462586, Control_c, 0, 64, 127
2, 462616, Note_off_c, 0, 75, 64
2, 462633, Note_off_c, 0, 63, 64
2, 462637, Note_off_c, 0, 54, 64
2, 462754, Note_on_c, 0, 63, 51
2, 462756, Note_on_c, 0, 57, 50
2, 462760, Note_on_c, 0, 54, 52
2, 462868, Note_on_c, 0, 56, 49
2, 462873, Note_on_c, 0, 64, 52
2, 462881, Note_off_c, 0, 57, 64
2, 462885, Note_off_c, 0, 54, 64
2, 462891, Note_off_c, 0, 63, 64
2, 462920, Note_on_c, 0, 63, 64
2, 462924, Note_on_c, 0, 57, 50
2, 462924, Note_on_c, 0, 54, 63
2, 462950, Note_off_c, 0, 64, 64
2, 462950, Note_off_c, 0, 56, 64
2, 463144, Note_off_c, 0, 54, 64
2, 463144, Note_off_c, 0, 57, 64
2, 463144, Note_off_c, 0, 63, 64
2, 463144, Note_on_c, 0, 32, 92
2, 463147, Control_c, 0, 64, 0
2, 463185, Control_c, 0, 64, 127
2, 463334, Control_c, 0, 64, 0
2, 463389, Note_on_c, 0, 66, 74
2, 463395, Note_on_c, 0, 57, 66
2, 463402, Control_c, 0, 64, 127
2, 463487, Note_on_c, 0, 68, 55
2, 463494, Note_on_c, 0, 59, 70
2, 463497, Note_off_c, 0, 57, 64
2, 463508, Note_off_c, 0, 66, 64
2, 463556, Control_c, 0, 64, 0
2, 463581, Note_on_c, 0, 57, 70
2, 463585, Note_on_c, 0, 66, 66
2, 463591, Note_off_c, 0, 68, 64
2, 463593, Note_off_c, 0, 59, 64
2, 463601, Control_c, 0, 64, 127
2, 463676, Note_on_c, 0, 51, 54
2, 463679, Note_on_c, 0, 60, 63
2, 463683, Note_off_c, 0, 57, 64
2, 463692, Note_off_c, 0, 66, 64
2, 463765, Note_off_c, 0, 51, 64
2, 463774, Note_on_c, 0, 54, 41
2, 463774, Control_c, 0, 64, 0
2, 463781, Note_on_c, 0, 63, 62
2, 463787, Note_off_c, 0, 60, 64
2, 463835, Control_c, 0, 64, 127
2, 463864, Note_on_c, 0, 51, 51
2, 463870, Note_off_c, 0, 54, 64
2, 463873, Note_on_c, 0, 60, 67
2, 463886, Note_off_c, 0, 63, 64
2, 463976, Note_off_c, 0, 51, 64
2, 463980, Control_c, 0, 64, 0
2, 463985, Note_on_c, 0, 64, 66
2, 463985, Note_on_c, 0, 56, 48
2, 463991, Note_off_c, 0, 60, 64
2, 464044, Note_off_c, 0, 32, 64
2, 464077, Control_c, 0, 64, 127
2, 464370, Note_off_c, 0, 64, 64
2, 464377, Note_on_c, 0, 54, 49
2, 464380, Note_on_c, 0, 63, 56
2, 464386, Note_off_c, 0, 56, 64
2, 464409, Control_c, 0, 64, 0
2, 464453, Control_c, 0, 64, 127
2, 464496, Note_on_c, 0, 61, 62
2, 464498, Note_on_c, 0, 52, 55
2, 464513, Note_off_c, 0, 54, 64
2, 464528, Control_c, 0, 64, 0
2, 464544, Note_off_c, 0, 63, 64
2, 464576, Control_c, 0, 64, 127
2, 464592, Note_on_c, 0, 51, 56
2, 464598, Note_off_c, 0, 52, 64
2, 464605, Note_on_c, 0, 60, 62
2, 464608, Note_off_c, 0, 61, 64
2, 464622, Control_c, 0, 64, 0
2, 464695, Note_on_c, 0, 61, 58
2, 464697, Note_on_c, 0, 52, 52
2, 464699, Control_c, 0, 64, 127
2, 464704, Note_off_c, 0, 51, 64
2, 464713, Note_off_c, 0, 60, 64
2, 464775, Note_on_c, 0, 54, 58
2, 464779, Note_off_c, 0, 52, 64
2, 464785, Note_on_c, 0, 63, 50
2, 464791, Control_c, 0, 64, 0
2, 464805, Note_off_c, 0, 61, 64
2, 464877, Note_on_c, 0, 66, 58
2, 464880, Note_on_c, 0, 57, 57
2, 464889, Note_off_c, 0, 54, 64
2, 464890, Control_c, 0, 64, 127
2, 464903, Note_off_c, 0, 63, 64
2, 464969, Note_on_c, 0, 56, 54
2, 464975, Note_off_c, 0, 66, 64
2, 464975, Note_on_c, 0, 64, 58
2, 464983, Note_off_c, 0, 57, 64
2, 465067, Note_on_c, 0, 63, 56
2, 465074, Note_on_c, 0, 54, 39
2, 465080, Note_off_c, 0, 56, 64
2, 465083, Note_off_c, 0, 64, 64
2, 465140, Control_c, 0, 64, 0
2, 465164, Note_on_c, 0, 61, 58
2, 465166, Note_off_c, 0, 54, 64
2, 465166, Note_on_c, 0, 52, 32
2, 465188, Note_off_c, 0, 63, 64
2, 465260, Note_on_c, 0, 51, 46
2, 465263, Note_off_c, 0, 52, 64
2, 465266, Note_on_c, 0, 60, 62
2, 465276, Note_off_c, 0, 61, 64
2, 465358, Note_on_c, 0, 63, 64
2, 465379, Note_off_c, 0, 60, 64
2, 465379, Note_on_c, 0, 54, 23
2, 465385, Note_off_c, 0, 51, 64
2, 465401, Control_c, 0, 64, 127
2, 465460, Note_on_c, 0, 61, 62
2, 465464, Note_on_c, 0, 52, 47
2, 465487, Note_off_c, 0, 63, 64
2, 465508, Note_off_c, 0, 54, 64
2, 465559, Note_on_c, 0, 57, 50
2, 465561, Note_on_c, 0, 49, 58
2, 465568, Note_off_c, 0, 61, 64
2, 465572, Note_off_c, 0, 52, 64
2, 465704, Note_on_c, 0, 64, 58
2, 465704, Note_on_c, 0, 56, 42
2, 465705, Note_on_c, 0, 61, 56
2, 465711, Note_on_c, 0, 37, 56
2, 465728, Note_off_c, 0, 57, 64
2, 465730, Note_off_c, 0, 49, 64
2, 465749, Control_c, 0, 64, 0
2, 465832, Control_c, 0, 64, 127
2, 465938, Note_off_c, 0, 64, 64
2, 465950, Note_off_c, 0, 37, 64
2, 465958, Note_off_c, 0, 61, 64
2, 465966, Note_off_c, 0, 56, 64
2, 465987, Note_on_c, 0, 44, 64
2, 466085, Note_on_c, 0, 47, 58
2, 466093, Note_off_c, 0, 44, 64
2, 466186, Note_on_c, 0, 45, 54
2, 466189, Note_on_c, 0, 61, 63
2, 466191, Note_on_c, 0, 52, 59
2, 466196, Note_off_c, 0, 47, 64
2, 466200, Control_c, 0, 64, 0
2, 466266, Control_c, 0, 64, 127
2, 466275, Note_on_c, 0, 44, 57
2, 466309, Note_off_c, 0, 45, 64
2, 466370, Note_on_c, 0, 43, 73
2, 466376, Note_on_c, 0, 53, 62
2, 466382, Note_off_c, 0, 52, 64
2, 466384, Control_c, 0, 64, 0
2, 466389, Note_off_c, 0, 44, 64
2, 466406, Control_c, 0, 64, 127
2, 466459, Note_on_c, 0, 62, 57
2, 466464, Note_on_c, 0, 59, 29
2, 466465, Note_off_c, 0, 61, 64
2, 466557, Note_on_c, 0, 63, 63
2, 466559, Note_off_c, 0, 59, 64
2, 466562, Note_on_c, 0, 54, 73
2, 466563, Control_c, 0, 64, 0
2, 466566, Note_off_c, 0, 62, 64
2, 466569, Note_on_c, 0, 42, 60
2, 466573, Note_off_c, 0, 43, 64
2, 466583, Note_off_c, 0, 53, 64
2, 466625, Control_c, 0, 64, 127
2, 466676, Note_off_c, 0, 54, 64
2, 466683, Note_off_c, 0, 42, 64
2, 466752, Note_on_c, 0, 52, 39
2, 466754, Note_on_c, 0, 58, 62
2, 466754, Note_on_c, 0, 30, 64
2, 466770, Control_c, 0, 64, 0
2, 466809, Control_c, 0, 64, 127
2, 466844, Note_on_c, 0, 61, 63
2, 466866, Note_off_c, 0, 52, 64
2, 466867, Note_off_c, 0, 63, 64
2, 466868, Note_off_c, 0, 30, 64
2, 466868, Note_off_c, 0, 58, 64
2, 466950, Note_on_c, 0, 59, 62
2, 466950, Note_on_c, 0, 35, 59
2, 466952, Note_on_c, 0, 51, 67
2, 466960, Control_c, 0, 64, 0
2, 466966, Note_off_c, 0, 61, 64
2, 467008, Control_c, 0, 64, 127
2, 467064, Note_off_c, 0, 35, 64
2, 467066, Note_off_c, 0, 51, 64
2, 467131, Note_on_c, 0, 56, 56
2, 467145, Note_on_c, 0, 47, 57
2, 467152, Control_c, 0, 64, 0
2, 467156, Note_off_c, 0, 59, 64
2, 467198, Control_c, 0, 64, 127
2, 467220, Note_on_c, 0, 51, 64
2, 467240, Note_off_c, 0, 47, 64
2, 467296, Note_on_c, 0, 49, 36
2, 467304, Note_on_c, 0, 63, 65
2, 467311, Note_off_c, 0, 51, 64
2, 467319, Control_c, 0, 64, 0
2, 467342, Note_off_c, 0, 56, 64
2, 467351, Control_c, 0, 64, 127
2, 467376, Note_on_c, 0, 47, 71
2, 467391, Note_off_c, 0, 49, 64
2, 467478, Note_on_c, 0, 46, 72
2, 467481, Note_on_c, 0, 64, 64
2, 467486, Note_off_c, 0, 47, 64
2, 467487, Control_c, 0, 64, 0
2, 467489, Note_off_c, 0, 63, 64
2, 467493, Note_on_c, 0, 55, 58
2, 467519, Control_c, 0, 64, 127
2, 467564, Note_on_c, 0, 65, 67
2, 467564, Note_on_c, 0, 62, 50
2, 467580, Note_off_c, 0, 64, 64
2, 467656, Control_c, 0, 64, 0
2, 467662, Note_on_c, 0, 66, 73
2, 467664, Note_on_c, 0, 61, 73
2, 467680, Note_off_c, 0, 62, 64
2, 467680, Note_off_c, 0, 65, 64
2, 467698, Control_c, 0, 64, 127
2, 467757, Note_off_c, 0, 46, 64
2, 467771, Note_off_c, 0, 55, 64
2, 467858, Note_on_c, 0, 55, 60
2, 467858, Note_on_c, 0, 45, 55
2, 467872, Control_c, 0, 64, 0
2, 467911, Control_c, 0, 64, 127
2, 467944, Note_on_c, 0, 64, 56
2, 467964, Note_off_c, 0, 66, 64
2, 468061, Note_on_c, 0, 66, 50
2, 468071, Note_on_c, 0, 62, 56
2, 468072, Note_off_c, 0, 64, 64
2, 468075, Note_on_c, 0, 54, 52
2, 468079, Note_off_c, 0, 61, 64
2, 468079, Note_on_c, 0, 38, 47
2, 468079, Control_c, 0, 64, 0
2, 468097, Note_off_c, 0, 45, 64
2, 468097, Note_off_c, 0, 55, 64
2, 468120, Control_c, 0, 64, 127
2, 468123, Note_off_c, 0, 62, 64
2, 468129, Note_off_c, 0, 54, 64
2, 468151, Note_off_c, 0, 38, 64
2, 468165, Note_on_c, 0, 50, 56
2, 468170, Note_on_c, 0, 59, 58
2, 468248, Note_on_c, 0, 49, 55
2, 468252, Note_on_c, 0, 67, 58
2, 468258, Note_off_c, 0, 50, 64
2, 468258, Note_on_c, 0, 58, 67
2, 468259, Note_off_c, 0, 66, 64
2, 468265, Note_off_c, 0, 59, 64
2, 468265, Control_c, 0, 64, 0
2, 468312, Control_c, 0, 64, 127
2, 468425, Control_c, 0, 64, 0
2, 468431, Note_on_c, 0, 48, 64
2, 468431, Note_on_c, 0, 64, 62
2, 468433, Note_off_c, 0, 49, 64
2, 468460, Control_c, 0, 64, 127
2, 468479, Note_off_c, 0, 58, 64
2, 468510, Note_on_c, 0, 68, 69
2, 468522, Note_off_c, 0, 67, 64
2, 468608, Note_on_c, 0, 57, 49
2, 468610, Note_on_c, 0, 53, 59
2, 468613, Note_on_c, 0, 69, 60
2, 468619, Control_c, 0, 64, 0
2, 468622, Note_off_c, 0, 68, 64
2, 468624, Note_off_c, 0, 64, 64
2, 468624, Note_off_c, 0, 48, 64
2, 468657, Control_c, 0, 64, 127
2, 468664, Note_on_c, 0, 55, 71
2, 468677, Note_off_c, 0, 53, 64
2, 468688, Note_on_c, 0, 62, 56
2, 468710, Note_off_c, 0, 57, 64
2, 468714, Note_on_c, 0, 53, 57
2, 468719, Note_off_c, 0, 55, 64
2, 468764, Note_on_c, 0, 70, 74
2, 468766, Note_on_c, 0, 52, 69
2, 468768, Note_on_c, 0, 61, 71
2, 468778, Note_off_c, 0, 62, 64
2, 468780, Note_off_c, 0, 53, 64
2, 468780, Control_c, 0, 64, 0
2, 468784, Note_off_c, 0, 69, 64
2, 468843, Control_c, 0, 64, 127
2, 468908, Control_c, 0, 64, 0
2, 468928, Control_c, 0, 64, 127
2, 468940, Note_on_c, 0, 51, 70
2, 468948, Note_on_c, 0, 67, 66
2, 468953, Note_off_c, 0, 52, 64
2, 468955, Note_off_c, 0, 61, 64
2, 469044, Note_on_c, 0, 71, 67
2, 469054, Note_off_c, 0, 67, 64
2, 469058, Note_off_c, 0, 70, 64
2, 469134, Note_on_c, 0, 56, 47
2, 469135, Note_on_c, 0, 72, 71
2, 469135, Note_on_c, 0, 60, 66
2, 469141, Note_off_c, 0, 51, 64
2, 469145, Control_c, 0, 64, 0
2, 469146, Note_off_c, 0, 71, 64
2, 469183, Control_c, 0, 64, 127
2, 469189, Note_on_c, 0, 58, 69
2, 469201, Note_off_c, 0, 56, 64
2, 469212, Note_on_c, 0, 65, 58
2, 469228, Note_off_c, 0, 60, 64
2, 469233, Note_on_c, 0, 56, 60
2, 469240, Note_off_c, 0, 58, 64
2, 469298, Note_on_c, 0, 55, 66
2, 469300, Note_on_c, 0, 64, 69
2, 469302, Note_on_c, 0, 73, 69
2, 469308, Note_off_c, 0, 56, 64
2, 469317, Note_off_c, 0, 65, 64
2, 469318, Control_c, 0, 64, 0
2, 469331, Note_off_c, 0, 72, 64
2, 469378, Control_c, 0, 64, 127
2, 469490, Note_on_c, 0, 54, 63
2, 469493, Note_on_c, 0, 70, 59
2, 469497, Note_off_c, 0, 55, 64
2, 469504, Control_c, 0, 64, 0
2, 469505, Note_off_c, 0, 64, 64
2, 469535, Control_c, 0, 64, 127
2, 469572, Note_on_c, 0, 74, 56
2, 469585, Note_off_c, 0, 70, 64
2, 469598, Note_off_c, 0, 73, 64
2, 469656, Note_on_c, 0, 63, 51
2, 469667, Note_on_c, 0, 59, 44
2, 469668, Note_on_c, 0, 63, 59
2, 469669, Note_on_c, 0, 75, 73
2, 469674, Control_c, 0, 64, 0
2, 469679, Note_off_c, 0, 54, 64
2, 469690, Note_off_c, 0, 74, 64
2, 469704, Control_c, 0, 64, 127
2, 469717, Note_on_c, 0, 61, 54
2, 469737, Note_off_c, 0, 59, 64
2, 469740, Note_on_c, 0, 68, 52
2, 469760, Note_on_c, 0, 59, 52
2, 469764, Note_off_c, 0, 61, 64
2, 469765, Note_off_c, 0, 63, 64
2, 469774, Note_off_c, 0, 63, 64
2, 469812, Note_on_c, 0, 76, 69
2, 469814, Note_on_c, 0, 67, 55
2, 469814, Note_on_c, 0, 58, 52
2, 469823, Note_off_c, 0, 68, 64
2, 469829, Note_off_c, 0, 75, 64
2, 469848, Note_off_c, 0, 59, 64
2, 469861, Control_c, 0, 64, 0
2, 469891, Control_c, 0, 64, 127
2, 469931, Note_on_c, 0, 72, 55
2, 470016, Control_c, 0, 64, 0
2, 470021, Note_on_c, 0, 57, 55
2, 470026, Note_off_c, 0, 67, 64
2, 470028, Note_on_c, 0, 73, 78
2, 470035, Note_off_c, 0, 58, 64
2, 470041, Note_off_c, 0, 72, 64
2, 470041, Control_c, 0, 64, 127
2, 470103, Note_on_c, 0, 77, 74
2, 470117, Note_off_c, 0, 76, 64
2, 470148, Note_off_c, 0, 73, 64
2, 470230, Note_on_c, 0, 78, 67
2, 470232, Note_on_c, 0, 66, 63
2, 470232, Note_on_c, 0, 74, 63
2, 470238, Note_off_c, 0, 77, 64
2, 470238, Note_on_c, 0, 38, 42
2, 470256, Control_c, 0, 64, 0
2, 470260, Note_off_c, 0, 57, 64
2, 470312, Control_c, 0, 64, 127
2, 470511, Note_on_c, 0, 50, 67
2, 470535, Control_c, 0, 64, 0
2, 470556, Control_c, 0, 64, 127
2, 470598, Note_on_c, 0, 54, 71
2, 470599, Note_off_c, 0, 78, 64
2, 470601, Note_off_c, 0, 74, 64
2, 470601, Note_off_c, 0, 66, 64
2, 470607, Note_off_c, 0, 38, 64
2, 470613, Note_off_c, 0, 50, 64
2, 470682, Note_on_c, 0, 52, 66
2, 470685, Note_on_c, 0, 57, 65
2, 470688, Note_on_c, 0, 66, 65
2, 470707, Note_off_c, 0, 54, 64
2, 470771, Note_on_c, 0, 50, 63
2, 470787, Note_off_c, 0, 52, 64
2, 470843, Control_c, 0, 64, 0
2, 470848, Note_on_c, 0, 58, 77
2, 470850, Note_on_c, 0, 67, 62
2, 470857, Note_on_c, 0, 49, 57
2, 470862, Note_off_c, 0, 57, 64
2, 470865, Note_off_c, 0, 66, 64
2, 470868, Note_off_c, 0, 50, 64
2, 470873, Control_c, 0, 64, 127
2, 470942, Note_on_c, 0, 68, 64
2, 470944, Note_on_c, 0, 65, 47
2, 470950, Note_off_c, 0, 58, 64
2, 470950, Note_on_c, 0, 59, 69
2, 470955, Note_off_c, 0, 67, 64
2, 470997, Note_off_c, 0, 59, 64
2, 471057, Control_c, 0, 64, 0
2, 471063, Note_on_c, 0, 69, 69
2, 471066, Note_on_c, 0, 60, 69
2, 471066, Note_on_c, 0, 48, 64
2, 471074, Note_off_c, 0, 49, 64
2, 471077, Note_off_c, 0, 68, 64
2, 471115, Control_c, 0, 64, 127
2, 471243, Note_off_c, 0, 48, 64
2, 471243, Note_off_c, 0, 60, 64
2, 471278, Note_on_c, 0, 36, 55
2, 471281, Note_on_c, 0, 64, 62
2, 471285, Note_on_c, 0, 58, 46
2, 471300, Note_off_c, 0, 65, 64
2, 471304, Control_c, 0, 64, 0
2, 471343, Control_c, 0, 64, 127
2, 471380, Note_off_c, 0, 69, 64
2, 471402, Note_on_c, 0, 67, 54
2, 471416, Note_off_c, 0, 64, 64
2, 471552, Note_on_c, 0, 65, 63
2, 471556, Note_on_c, 0, 41, 55
2, 471559, Note_off_c, 0, 67, 64
2, 471559, Note_off_c, 0, 36, 64
2, 471559, Note_on_c, 0, 57, 55
2, 471565, Control_c, 0, 64, 0
2, 471566, Note_off_c, 0, 58, 64
2, 471603, Control_c, 0, 64, 127
2, 471713, Note_off_c, 0, 65, 64
2, 471717, Note_off_c, 0, 41, 64
2, 471720, Note_off_c, 0, 57, 64
2, 471769, Note_on_c, 0, 62, 63
2, 471775, Note_on_c, 0, 53, 56
2, 471783, Control_c, 0, 64, 0
2, 471822, Control_c, 0, 64, 127
2, 471858, Note_on_c, 0, 57, 75
2, 471881, Note_off_c, 0, 53, 64
2, 471942, Note_on_c, 0, 55, 66
2, 471948, Note_on_c, 0, 69, 63
2, 471959, Note_off_c, 0, 57, 64
2, 472028, Note_on_c, 0, 53, 63
2, 472038, Note_off_c, 0, 55, 64
2, 472063, Control_c, 0, 64, 0
2, 472110, Control_c, 0, 64, 127
2, 472118, Note_on_c, 0, 70, 65
2, 472119, Note_on_c, 0, 61, 67
2, 472120, Note_on_c, 0, 52, 55
2, 472121, Note_off_c, 0, 62, 64
2, 472129, Note_off_c, 0, 69, 64
2, 472138, Note_off_c, 0, 53, 64
2, 472204, Note_on_c, 0, 68, 67
2, 472210, Note_on_c, 0, 71, 62
2, 472238, Note_off_c, 0, 70, 64
2, 472292, Note_on_c, 0, 67, 67
2, 472297, Note_on_c, 0, 72, 73
2, 472303, Control_c, 0, 64, 0
2, 472304, Note_off_c, 0, 68, 64
2, 472310, Note_off_c, 0, 71, 64
2, 472343, Control_c, 0, 64, 127
2, 472484, Control_c, 0, 64, 0
2, 472488, Note_on_c, 0, 61, 74
2, 472488, Note_on_c, 0, 51, 58
2, 472489, Note_off_c, 0, 61, 64
2, 472490, Note_off_c, 0, 52, 64
2, 472525, Control_c, 0, 64, 127
2, 472553, Note_off_c, 0, 72, 64
2, 472555, Note_on_c, 0, 70, 62
2, 472646, Note_off_c, 0, 51, 64
2, 472646, Note_off_c, 0, 61, 64
2, 472652, Note_on_c, 0, 68, 63
2, 472655, Note_on_c, 0, 44, 58
2, 472657, Note_on_c, 0, 72, 63
2, 472661, Note_on_c, 0, 60, 69
2, 472662, Note_off_c, 0, 67, 64
2, 472666, Control_c, 0, 64, 0
2, 472671, Note_off_c, 0, 70, 64
2, 472698, Control_c, 0, 64, 127
2, 472744, Note_on_c, 0, 65, 46
2, 472744, Note_on_c, 0, 56, 82
2, 472757, Note_off_c, 0, 44, 64
2, 472763, Note_off_c, 0, 60, 64
2, 472825, Note_on_c, 0, 73, 73
2, 472828, Note_on_c, 0, 55, 65
2, 472831, Note_on_c, 0, 64, 73
2, 472833, Control_c, 0, 64, 0
2, 472837, Note_off_c, 0, 56, 64
2, 472837, Note_off_c, 0, 65, 64
2, 472846, Note_off_c, 0, 68, 64
2, 472851, Note_off_c, 0, 72, 64
2, 472892, Control_c, 0, 64, 127
2, 472992, Note_on_c, 0, 54, 65
2, 472998, Note_off_c, 0, 55, 64
2, 473000, Note_on_c, 0, 70, 55
2, 473008, Control_c, 0, 64, 0
2, 473020, Note_off_c, 0, 64, 64
2, 473038, Control_c, 0, 64, 127
2, 473075, Note_on_c, 0, 74, 62
2, 473078, Note_off_c, 0, 73, 64
2, 473160, Note_on_c, 0, 75, 73
2, 473160, Note_on_c, 0, 63, 67
2, 473160, Note_on_c, 0, 59, 65
2, 473173, Note_off_c, 0, 54, 64
2, 473177, Control_c, 0, 64, 0
2, 473181, Note_off_c, 0, 74, 64
2, 473181, Note_off_c, 0, 70, 64
2, 473190, Control_c, 0, 64, 127
2, 473232, Note_off_c, 0, 59, 64
2, 473232, Note_on_c, 0, 61, 77
2, 473245, Note_off_c, 0, 63, 64
2, 473266, Note_on_c, 0, 68, 63
2, 473290, Note_on_c, 0, 59, 64
2, 473302, Note_off_c, 0, 61, 64
2, 473349, Note_on_c, 0, 58, 62
2, 473350, Control_c, 0, 64, 0
2, 473354, Note_on_c, 0, 67, 74
2, 473360, Note_on_c, 0, 76, 66
2, 473375, Note_off_c, 0, 75, 64
2, 473391, Note_off_c, 0, 68, 64
2, 473395, Control_c, 0, 64, 127
2, 473397, Note_off_c, 0, 59, 64
2, 473522, Note_on_c, 0, 57, 63
2, 473530, Note_off_c, 0, 58, 64
2, 473530, Control_c, 0, 64, 0
2, 473537, Note_on_c, 0, 73, 85
2, 473560, Control_c, 0, 64, 127
2, 473596, Note_off_c, 0, 67, 64
2, 473611, Note_on_c, 0, 77, 64
2, 473617, Note_off_c, 0, 76, 64
2, 473709, Note_on_c, 0, 78, 74
2, 473709, Note_on_c, 0, 62, 50
2, 473713, Note_on_c, 0, 66, 70
2, 473717, Note_off_c, 0, 57, 64
2, 473721, Note_off_c, 0, 77, 64
2, 473722, Control_c, 0, 64, 0
2, 473732, Note_off_c, 0, 73, 64
2, 473755, Control_c, 0, 64, 127
2, 473759, Note_on_c, 0, 64, 69
2, 473775, Note_off_c, 0, 62, 64
2, 473780, Note_on_c, 0, 71, 65
2, 473799, Note_on_c, 0, 62, 64
2, 473802, Note_off_c, 0, 66, 64
2, 473808, Note_off_c, 0, 64, 64
2, 473855, Note_off_c, 0, 71, 64
2, 473880, Note_on_c, 0, 79, 66
2, 473880, Note_on_c, 0, 61, 73
2, 473890, Note_on_c, 0, 70, 77
2, 473890, Control_c, 0, 64, 0
2, 473893, Note_off_c, 0, 78, 64
2, 473898, Note_off_c, 0, 62, 64
2, 473940, Control_c, 0, 64, 127
2, 474060, Control_c, 0, 64, 0
2, 474061, Note_off_c, 0, 61, 64
2, 474066, Note_on_c, 0, 73, 73
2, 474066, Note_on_c, 0, 64, 62
2, 474071, Note_off_c, 0, 70, 64
2, 474105, Control_c, 0, 64, 127
2, 474118, Note_on_c, 0, 66, 74
2, 474134, Note_off_c, 0, 64, 64
2, 474169, Note_on_c, 0, 64, 58
2, 474181, Note_off_c, 0, 66, 64
2, 474231, Note_on_c, 0, 78, 69
2, 474234, Note_on_c, 0, 71, 74
2, 474239, Note_off_c, 0, 79, 64
2, 474240, Note_off_c, 0, 73, 64
2, 474240, Note_on_c, 0, 63, 73
2, 474248, Control_c, 0, 64, 0
2, 474254, Note_off_c, 0, 64, 64
2, 474288, Control_c, 0, 64, 127
2, 474306, Note_off_c, 0, 78, 64
2, 474315, Note_off_c, 0, 63, 64
2, 474370, Note_on_c, 0, 80, 66
2, 474372, Note_on_c, 0, 64, 64
2, 474432, Note_on_c, 0, 72, 73
2, 474435, Note_on_c, 0, 81, 67
2, 474436, Note_on_c, 0, 66, 77
2, 474437, Note_on_c, 0, 75, 70
2, 474442, Note_off_c, 0, 80, 64
2, 474446, Note_off_c, 0, 64, 64
2, 474447, Note_off_c, 0, 71, 64
2, 474452, Control_c, 0, 64, 0
2, 474503, Control_c, 0, 64, 127
2, 474678, Note_on_c, 0, 73, 82
2, 474680, Note_on_c, 0, 67, 73
2, 474692, Control_c, 0, 64, 0
2, 474694, Note_off_c, 0, 66, 64
2, 474698, Note_off_c, 0, 72, 64
2, 474703, Note_off_c, 0, 75, 64
2, 474730, Control_c, 0, 64, 127
2, 475056, Note_on_c, 0, 76, 73
2, 475056, Note_on_c, 0, 68, 85
2, 475061, Note_on_c, 0, 80, 73
2, 475075, Note_off_c, 0, 81, 64
2, 475076, Note_off_c, 0, 67, 64
2, 475110, Control_c, 0, 64, 0
2, 475167, Control_c, 0, 64, 127
2, 475421, Note_on_c, 0, 79, 56
2, 475431, Note_off_c, 0, 80, 64
2, 475508, Note_on_c, 0, 80, 62
2, 475533, Note_off_c, 0, 79, 64
2, 475591, Note_on_c, 0, 81, 59
2, 475608, Note_off_c, 0, 80, 64
2, 475677, Note_off_c, 0, 76, 64
2, 475679, Note_off_c, 0, 68, 64
2, 475680, Note_off_c, 0, 73, 64
2, 475691, Note_on_c, 0, 72, 66
2, 475697, Note_on_c, 0, 68, 83
2, 475699, Note_on_c, 0, 75, 56
2, 475699, Note_on_c, 0, 66, 80
2, 475703, Note_on_c, 0, 80, 75
2, 475714, Note_off_c, 0, 81, 64
2, 475728, Control_c, 0, 64, 0
2, 475776, Control_c, 0, 64, 127
2, 475805, Note_on_c, 0, 79, 62
2, 475820, Note_off_c, 0, 80, 64
2, 475890, Note_on_c, 0, 80, 64
2, 475926, Note_off_c, 0, 79, 64
2, 476092, Note_on_c, 0, 81, 62
2, 476108, Note_off_c, 0, 80, 64
2, 476348, Note_off_c, 0, 72, 64
2, 476354, Note_off_c, 0, 68, 64
2, 476355, Note_on_c, 0, 80, 79
2, 476356, Note_off_c, 0, 66, 64
2, 476356, Note_off_c, 0, 75, 64
2, 476356, Note_on_c, 0, 64, 74
2, 476358, Note_on_c, 0, 73, 73
2, 476363, Note_on_c, 0, 68, 73
2, 476371, Note_off_c, 0, 81, 64
2, 476419, Control_c, 0, 64, 0
2, 476484, Control_c, 0, 64, 127
2, 476735, Note_on_c, 0, 79, 57
2, 476753, Note_off_c, 0, 80, 64
2, 476848, Note_on_c, 0, 80, 55
2, 476870, Note_off_c, 0, 79, 64
2, 476946, Note_on_c, 0, 81, 60
2, 476969, Note_off_c, 0, 80, 64
2, 477047, Note_off_c, 0, 64, 64
2, 477049, Note_off_c, 0, 73, 64
2, 477054, Note_off_c, 0, 68, 64
2, 477064, Note_on_c, 0, 78, 64
2, 477068, Note_on_c, 0, 68, 63
2, 477070, Note_on_c, 0, 72, 67
2, 477070, Note_on_c, 0, 80, 77
2, 477071, Note_on_c, 0, 66, 66
2, 477071, Note_on_c, 0, 63, 62
2, 477085, Note_off_c, 0, 81, 64
2, 477093, Control_c, 0, 64, 0
2, 477159, Control_c, 0, 64, 127
2, 477214, Note_on_c, 0, 79, 62
2, 477234, Note_off_c, 0, 80, 64
2, 477323, Note_on_c, 0, 80, 67
2, 477346, Note_off_c, 0, 79, 64
2, 477591, Note_on_c, 0, 81, 47
2, 477612, Note_off_c, 0, 80, 64
2, 477902, Note_off_c, 0, 68, 64
2, 477904, Note_off_c, 0, 78, 64
2, 477904, Note_off_c, 0, 72, 64
2, 477904, Note_off_c, 0, 63, 64
2, 477904, Note_off_c, 0, 66, 64
2, 477904, Note_on_c, 0, 68, 66
2, 477904, Note_on_c, 0, 64, 65
2, 477904, Note_on_c, 0, 56, 65
2, 477904, Note_on_c, 0, 73, 62
2, 477904, Note_on_c, 0, 80, 97
2, 477908, Note_on_c, 0, 76, 69
2, 477925, Note_off_c, 0, 81, 64
2, 477962, Control_c, 0, 64, 0
2, 478073, Control_c, 0, 64, 127
2, 478365, Note_off_c, 0, 76, 64
2, 478413, Note_on_c, 0, 79, 66
2, 478450, Note_off_c, 0, 80, 64
2, 478573, Note_on_c, 0, 80, 64
2, 478596, Note_off_c, 0, 79, 64
2, 478702, Note_on_c, 0, 76, 58
2, 478703, Note_off_c, 0, 73, 64
2, 478746, Note_off_c, 0, 80, 64
2, 478807, Note_on_c, 0, 75, 58
2, 478824, Note_off_c, 0, 76, 64
2, 478908, Note_on_c, 0, 73, 58
2, 478923, Note_off_c, 0, 75, 64
2, 478940, Control_c, 0, 64, 0
2, 479030, Note_on_c, 0, 76, 59
2, 479052, Note_off_c, 0, 73, 64
2, 479063, Control_c, 0, 64, 127
2, 479123, Note_off_c, 0, 68, 64
2, 479168, Note_off_c, 0, 64, 64
2, 479247, Note_off_c, 0, 56, 64
2, 479260, Note_on_c, 0, 72, 59
2, 479277, Note_off_c, 0, 76, 64
2, 479286, Control_c, 0, 64, 0
2, 479333, Control_c, 0, 64, 127
2, 479568, Note_on_c, 0, 75, 58
2, 479585, Note_off_c, 0, 72, 64
2, 479590, Control_c, 0, 64, 0
2, 479655, Control_c, 0, 64, 127
2, 480014, Note_on_c, 0, 73, 60
2, 480025, Note_off_c, 0, 75, 64
2, 480056, Control_c, 0, 64, 0
2, 480085, Control_c, 0, 64, 127
2, 480156, Note_on_c, 0, 64, 55
2, 480184, Note_off_c, 0, 73, 64
2, 480278, Control_c, 0, 64, 0
2, 480284, Note_on_c, 0, 69, 58
2, 480310, Note_off_c, 0, 64, 64
2, 480330, Control_c, 0, 64, 127
2, 480425, Note_on_c, 0, 68, 63
2, 480444, Note_off_c, 0, 69, 64
2, 480551, Note_on_c, 0, 56, 58
2, 480576, Note_off_c, 0, 68, 64
2, 480723, Note_on_c, 0, 64, 56
2, 480735, Control_c, 0, 64, 0
2, 480781, Control_c, 0, 64, 127
2, 480797, Note_off_c, 0, 56, 64
2, 481080, Note_on_c, 0, 44, 39
2, 481084, Note_on_c, 0, 54, 33
2, 481085, Note_on_c, 0, 63, 62
2, 481106, Note_off_c, 0, 64, 64
2, 481141, Control_c, 0, 64, 0
2, 481190, Control_c, 0, 64, 127
2, 481544, Note_on_c, 0, 52, 46
2, 481546, Note_on_c, 0, 61, 50
2, 481548, Note_on_c, 0, 49, 29
2, 481551, Note_off_c, 0, 44, 64
2, 481555, Note_off_c, 0, 54, 64
2, 481556, Note_off_c, 0, 63, 64
2, 481595, Control_c, 0, 64, 0
2, 481658, Control_c, 0, 64, 127
2, 481870, Note_on_c, 0, 56, 55
2, 481889, Note_off_c, 0, 52, 64
2, 481899, Control_c, 0, 64, 0
2, 481946, Control_c, 0, 64, 127
2, 481992, Note_on_c, 0, 59, 64
2, 482005, Note_off_c, 0, 56, 64
2, 482106, Note_on_c, 0, 57, 55
2, 482119, Note_off_c, 0, 59, 64
2, 482203, Note_on_c, 0, 56, 63
2, 482219, Note_off_c, 0, 57, 64
2, 482309, Note_on_c, 0, 54, 52
2, 482316, Note_on_c, 0, 63, 65
2, 482335, Note_off_c, 0, 56, 64
2, 482339, Control_c, 0, 64, 0
2, 482394, Control_c, 0, 64, 127
2, 482424, Note_on_c, 0, 51, 70
2, 482436, Note_off_c, 0, 54, 64
2, 482551, Note_off_c, 0, 63, 64
2, 482558, Note_off_c, 0, 61, 64
2, 482584, Note_on_c, 0, 60, 46
2, 482585, Note_on_c, 0, 63, 58
2, 482589, Note_on_c, 0, 56, 56
2, 482596, Note_off_c, 0, 51, 64
2, 482636, Control_c, 0, 64, 0
2, 482747, Control_c, 0, 64, 127
2, 482931, Note_off_c, 0, 63, 64
2, 482941, Note_on_c, 0, 68, 50
2, 483082, Note_on_c, 0, 54, 56
2, 483103, Note_off_c, 0, 60, 64
2, 483142, Note_off_c, 0, 56, 64
2, 483193, Note_off_c, 0, 68, 64
2, 483242, Note_off_c, 0, 54, 64
2, 483274, Note_on_c, 0, 61, 46
2, 483276, Note_on_c, 0, 52, 48
2, 483278, Note_on_c, 0, 68, 39
2, 483338, Control_c, 0, 64, 0
2, 483413, Control_c, 0, 64, 127
2, 483420, Note_off_c, 0, 52, 64
2, 483543, Note_on_c, 0, 56, 44
2, 483661, Note_on_c, 0, 59, 59
2, 483663, Note_off_c, 0, 56, 64
2, 483772, Note_on_c, 0, 57, 54
2, 483773, Note_on_c, 0, 66, 57
2, 483792, Control_c, 0, 64, 0
2, 483805, Note_off_c, 0, 59, 64
2, 483823, Note_off_c, 0, 68, 64
2, 483834, Control_c, 0, 64, 127
2, 483867, Note_on_c, 0, 56, 55
2, 483870, Note_on_c, 0, 64, 62
2, 483896, Note_off_c, 0, 57, 64
2, 483900, Note_off_c, 0, 66, 64
2, 483963, Note_off_c, 0, 64, 64
2, 483972, Note_on_c, 0, 54, 62
2, 483973, Note_on_c, 0, 63, 62
2, 484004, Note_off_c, 0, 56, 64
2, 484020, Control_c, 0, 64, 0
2, 484076, Control_c, 0, 64, 127
2, 484081, Note_on_c, 0, 51, 73
2, 484092, Note_off_c, 0, 54, 64
2, 484125, Note_off_c, 0, 63, 64
2, 484161, Note_off_c, 0, 61, 64
2, 484207, Note_on_c, 0, 56, 71
2, 484213, Note_off_c, 0, 51, 64
2, 484218, Note_on_c, 0, 63, 59
2, 484218, Note_on_c, 0, 60, 48
2, 484243, Control_c, 0, 64, 0
2, 484326, Control_c, 0, 64, 127
2, 484516, Note_on_c, 0, 68, 59
2, 484646, Note_off_c, 0, 56, 64
2, 484653, Note_on_c, 0, 54, 62
2, 484662, Note_off_c, 0, 60, 64
2, 484675, Note_off_c, 0, 63, 64
2, 484717, Note_off_c, 0, 68, 64
2, 484848, Note_on_c, 0, 44, 33
2, 484848, Note_on_c, 0, 61, 56
2, 484849, Note_on_c, 0, 37, 63
2, 484850, Note_on_c, 0, 68, 62
2, 484853, Note_off_c, 0, 49, 64
2, 484884, Note_off_c, 0, 54, 64
2, 484885, Control_c, 0, 64, 0
2, 484960, Control_c, 0, 64, 127
2, 485189, Note_on_c, 0, 56, 40
2, 485297, Note_on_c, 0, 59, 34
2, 485300, Note_on_c, 0, 63, 46
2, 485315, Note_off_c, 0, 56, 64
2, 485320, Control_c, 0, 64, 0
2, 485330, Note_off_c, 0, 68, 64
2, 485359, Control_c, 0, 64, 127
2, 485408, Note_on_c, 0, 57, 50
2, 485412, Note_on_c, 0, 66, 44
2, 485438, Note_off_c, 0, 59, 64
2, 485441, Note_off_c, 0, 63, 64
2, 485516, Note_on_c, 0, 64, 50
2, 485516, Note_on_c, 0, 56, 50
2, 485544, Note_off_c, 0, 57, 64
2, 485548, Note_off_c, 0, 66, 64
2, 485624, Note_on_c, 0, 63, 51
2, 485624, Note_on_c, 0, 54, 51
2, 485642, Control_c, 0, 64, 0
2, 485645, Note_off_c, 0, 56, 64
2, 485645, Note_off_c, 0, 64, 64
2, 485706, Control_c, 0, 64, 127
2, 485724, Note_on_c, 0, 51, 56
2, 485744, Note_off_c, 0, 54, 64
2, 485841, Note_off_c, 0, 63, 64
2, 485842, Note_off_c, 0, 61, 64
2, 485852, Note_on_c, 0, 60, 39
2, 485852, Note_on_c, 0, 56, 62
2, 485856, Note_on_c, 0, 63, 48
2, 485860, Note_off_c, 0, 51, 64
2, 485884, Control_c, 0, 64, 0
2, 485956, Control_c, 0, 64, 127
2, 486097, Note_on_c, 0, 68, 49
2, 486210, Note_on_c, 0, 54, 32
2, 486218, Note_off_c, 0, 56, 64
2, 486321, Note_off_c, 0, 68, 64
2, 486325, Note_off_c, 0, 60, 64
2, 486329, Note_off_c, 0, 63, 64
2, 486350, Note_on_c, 0, 52, 39
2, 486354, Note_on_c, 0, 68, 50
2, 486357, Note_on_c, 0, 61, 46
2, 486360, Note_off_c, 0, 54, 64
2, 486380, Control_c, 0, 64, 0
2, 486455, Control_c, 0, 64, 127
2, 486479, Note_on_c, 0, 73, 49
2, 486519, Note_off_c, 0, 68, 64
2, 486612, Note_on_c, 0, 56, 52
2, 486624, Note_off_c, 0, 52, 64
2, 486642, Control_c, 0, 64, 0
2, 486672, Control_c, 0, 64, 127
2, 486727, Note_on_c, 0, 59, 62
2, 486741, Note_off_c, 0, 56, 64
2, 486763, Note_off_c, 0, 73, 64
2, 486855, Note_on_c, 0, 73, 57
2, 486855, Note_on_c, 0, 57, 49
2, 486875, Note_off_c, 0, 59, 64
2, 486882, Control_c, 0, 64, 0
2, 486921, Control_c, 0, 64, 127
2, 486972, Note_on_c, 0, 56, 46
2, 486976, Note_on_c, 0, 64, 51
2, 486994, Note_off_c, 0, 73, 64
2, 487000, Note_off_c, 0, 57, 64
2, 487128, Note_on_c, 0, 54, 48
2, 487134, Note_on_c, 0, 63, 52
2, 487154, Note_off_c, 0, 56, 64
2, 487157, Note_off_c, 0, 64, 64
2, 487170, Control_c, 0, 64, 0
2, 487215, Control_c, 0, 64, 127
2, 487278, Note_on_c, 0, 51, 54
2, 487297, Note_off_c, 0, 54, 64
2, 487438, Note_off_c, 0, 61, 64
2, 487441, Note_off_c, 0, 63, 64
2, 487464, Note_on_c, 0, 60, 34
2, 487466, Note_on_c, 0, 63, 47
2, 487467, Note_on_c, 0, 56, 44
2, 487473, Note_off_c, 0, 51, 64
2, 487500, Control_c, 0, 64, 0
2, 487558, Control_c, 0, 64, 127
2, 487881, Note_on_c, 0, 64, 35
2, 487897, Note_off_c, 0, 63, 64
2, 487968, Note_off_c, 0, 44, 64
2, 487969, Note_off_c, 0, 37, 64
2, 488032, Note_off_c, 0, 56, 64
2, 488042, Note_off_c, 0, 60, 64
2, 488077, Note_on_c, 0, 56, 33
2, 488328, Note_on_c, 0, 52, 25
2, 488328, Note_on_c, 0, 61, 33
2, 488332, Note_on_c, 0, 44, 23
2, 488334, Note_off_c, 0, 64, 64
2, 488335, Note_on_c, 0, 37, 44
2, 488367, Note_off_c, 0, 56, 64
2, 488373, Control_c, 0, 64, 0
2, 488427, Control_c, 0, 64, 127
2, 488524, Note_on_c, 0, 68, 48
2, 488721, Note_on_c, 0, 73, 34
2, 488751, Note_off_c, 0, 68, 64
2, 488793, Control_c, 0, 64, 0
2, 488823, Control_c, 0, 64, 127
2, 489207, Note_off_c, 0, 73, 64
2, 489219, Note_on_c, 0, 68, 25
2, 489396, Note_on_c, 0, 73, 34
2, 489424, Note_off_c, 0, 68, 64
2, 489560, Note_on_c, 0, 68, 26
2, 489574, Note_off_c, 0, 73, 64
2, 489755, Note_on_c, 0, 73, 44
2, 489794, Note_off_c, 0, 68, 64
2, 489909, Note_off_c, 0, 61, 64
2, 490262, Note_on_c, 0, 61, 31
2, 490297, Note_off_c, 0, 73, 64
2, 490440, Note_on_c, 0, 68, 26
2, 490484, Note_off_c, 0, 61, 64
2, 490628, Note_on_c, 0, 61, 24
2, 490718, Note_off_c, 0, 68, 64
2, 490838, Note_on_c, 0, 73, 32
2, 490972, Note_off_c, 0, 61, 64
2, 490978, Note_off_c, 0, 44, 64
2, 490996, Note_off_c, 0, 52, 64
2, 491001, Note_off_c, 0, 37, 64
2, 491005, Note_off_c, 0, 73, 64
2, 491338, Note_on_c, 0, 68, 101
2, 491340, Note_on_c, 0, 56, 108
2, 491345, Note_on_c, 0, 44, 117
2, 491347, Note_on_c, 0, 32, 108
2, 491353, Control_c, 0, 64, 0
2, 491371, Note_off_c, 0, 32, 64
2, 491374, Note_off_c, 0, 56, 64
2, 491376, Note_off_c, 0, 44, 64
2, 491376, Note_off_c, 0, 68, 64
2, 491407, Note_on_c, 0, 56, 108
2, 491408, Note_on_c, 0, 68, 101
2, 491408, Note_on_c, 0, 44, 111
2, 491414, Note_on_c, 0, 32, 111
2, 491526, Note_off_c, 0, 68, 64
2, 491535, Note_off_c, 0, 56, 64
2, 491541, Note_off_c, 0, 32, 64
2, 491548, Note_off_c, 0, 44, 64
2, 491724, Note_on_c, 0, 37, 113
2, 491725, Note_on_c, 0, 61, 116
2, 491732, Note_on_c, 0, 49, 126
2, 491996, Note_off_c, 0, 37, 64
2, 491997, Note_off_c, 0, 61, 64
2, 492004, Note_off_c, 0, 49, 64
2, 493892, Control_c, 0, 64, 127
2, 494424, Note_on_c, 0, 64, 47
2, 494476, Note_on_c, 0, 68, 32
2, 494566, Note_on_c, 0, 61, 44
2, 494575, Note_off_c, 0, 64, 64
2, 494671, Note_on_c, 0, 56, 41
2, 494692, Note_off_c, 0, 61, 64
2, 494894, Note_on_c, 0, 58, 46
2, 494897, Note_on_c, 0, 66, 37
2, 494920, Note_off_c, 0, 68, 64
2, 494921, Note_off_c, 0, 56, 64
2, 495046, Note_on_c, 0, 59, 37
2, 495059, Note_off_c, 0, 58, 64
2, 495065, Note_on_c, 0, 61, 48
2, 495078, Note_off_c, 0, 59, 64
2, 495091, Note_off_c, 0, 66, 64
2, 495108, Note_on_c, 0, 63, 17
2, 495108, Note_on_c, 0, 59, 50
2, 495124, Note_off_c, 0, 61, 64
2, 495124, Note_on_c, 0, 66, 32
2, 495132, Control_c, 0, 64, 0
2, 495155, Control_c, 0, 64, 127
2, 495208, Note_on_c, 0, 58, 52
2, 495231, Note_off_c, 0, 59, 64
2, 495244, Note_off_c, 0, 66, 64
2, 495264, Note_on_c, 0, 66, 54
2, 495301, Note_off_c, 0, 66, 64
2, 495323, Note_on_c, 0, 66, 47
2, 495343, Note_on_c, 0, 59, 54
2, 495351, Note_off_c, 0, 58, 64
2, 495543, Note_off_c, 0, 66, 64
2, 495563, Note_on_c, 0, 61, 43
2, 495563, Note_on_c, 0, 66, 40
2, 495566, Control_c, 0, 64, 0
2, 495586, Note_off_c, 0, 59, 64
2, 495605, Control_c, 0, 64, 127
2, 495755, Note_off_c, 0, 66, 64
2, 495787, Note_on_c, 0, 62, 46
2, 495792, Note_on_c, 0, 66, 40
2, 495797, Note_off_c, 0, 63, 64
2, 495804, Control_c, 0, 64, 0
2, 495813, Note_off_c, 0, 61, 64
2, 495825, Control_c, 0, 64, 127
2, 495901, Note_on_c, 0, 59, 46
2, 495930, Note_off_c, 0, 66, 64
2, 495946, Note_on_c, 0, 66, 48
2, 495991, Note_off_c, 0, 66, 64
2, 496019, Note_on_c, 0, 54, 46
2, 496029, Note_off_c, 0, 59, 64
2, 496029, Note_on_c, 0, 66, 47
2, 496236, Note_on_c, 0, 56, 48
2, 496242, Note_on_c, 0, 64, 47
2, 496249, Note_off_c, 0, 66, 64
2, 496250, Control_c, 0, 64, 0
2, 496263, Note_off_c, 0, 54, 64
2, 496272, Control_c, 0, 64, 127
2, 496377, Note_on_c, 0, 57, 47
2, 496399, Note_off_c, 0, 56, 64
2, 496405, Note_off_c, 0, 64, 64
2, 496415, Note_on_c, 0, 59, 47
2, 496425, Note_off_c, 0, 57, 64
2, 496440, Note_on_c, 0, 64, 46
2, 496448, Note_on_c, 0, 57, 50
2, 496452, Note_on_c, 0, 61, 33
2, 496458, Control_c, 0, 64, 0
2, 496466, Note_off_c, 0, 62, 64
2, 496469, Note_off_c, 0, 59, 64
2, 496489, Control_c, 0, 64, 127
2, 496512, Note_off_c, 0, 61, 64
2, 496552, Note_off_c, 0, 64, 64
2, 496560, Note_on_c, 0, 56, 47
2, 496574, Note_off_c, 0, 57, 64
2, 496612, Note_on_c, 0, 64, 34
2, 496644, Note_off_c, 0, 64, 64
2, 496664, Control_c, 0, 64, 0
2, 496668, Note_on_c, 0, 64, 49
2, 496672, Note_on_c, 0, 57, 48
2, 496684, Note_off_c, 0, 56, 64
2, 496688, Control_c, 0, 64, 127
2, 496855, Note_off_c, 0, 64, 64
2, 496877, Note_on_c, 0, 64, 46
2, 496881, Control_c, 0, 64, 0
2, 496887, Note_on_c, 0, 59, 43
2, 496906, Control_c, 0, 64, 127
2, 496911, Note_off_c, 0, 57, 64
2, 497051, Note_off_c, 0, 64, 64
2, 497094, Note_on_c, 0, 60, 47
2, 497099, Note_on_c, 0, 64, 44
2, 497119, Note_off_c, 0, 59, 64
2, 497215, Note_on_c, 0, 57, 44
2, 497226, Note_off_c, 0, 60, 64
2, 497273, Note_off_c, 0, 64, 64
2, 497288, Note_on_c, 0, 64, 41
2, 497332, Note_off_c, 0, 64, 64
2, 497344, Note_on_c, 0, 64, 32
2, 497344, Note_on_c, 0, 52, 43
2, 497369, Note_off_c, 0, 57, 64
2, 497571, Note_on_c, 0, 54, 44
2, 497582, Note_off_c, 0, 52, 64
2, 497591, Control_c, 0, 64, 0
2, 497622, Control_c, 0, 64, 127
2, 497702, Note_on_c, 0, 62, 48
2, 497735, Note_off_c, 0, 64, 64
2, 497855, Note_on_c, 0, 55, 47
2, 497856, Note_on_c, 0, 59, 39
2, 497881, Note_off_c, 0, 54, 64
2, 497893, Control_c, 0, 64, 0
2, 497906, Control_c, 0, 64, 127
2, 498048, Note_on_c, 0, 64, 52
2, 498067, Note_off_c, 0, 62, 64
2, 498096, Note_on_c, 0, 43, 31
2, 498096, Note_on_c, 0, 50, 40
2, 498098, Note_on_c, 0, 66, 50
2, 498124, Note_off_c, 0, 64, 64
2, 498126, Control_c, 0, 64, 0
2, 498163, Control_c, 0, 64, 127
2, 498315, Note_on_c, 0, 67, 52
2, 498340, Note_off_c, 0, 66, 64
2, 498421, Note_off_c, 0, 55, 64
2, 498524, Note_on_c, 0, 60, 42
2, 498524, Note_on_c, 0, 57, 49
2, 498526, Note_on_c, 0, 64, 57
2, 498542, Note_off_c, 0, 43, 64
2, 498545, Note_off_c, 0, 67, 64
2, 498557, Note_off_c, 0, 50, 64
2, 498557, Control_c, 0, 64, 0
2, 498567, Note_off_c, 0, 59, 64
2, 498576, Control_c, 0, 64, 127
2, 498688, Note_on_c, 0, 66, 50
2, 498708, Note_off_c, 0, 64, 64
2, 498737, Note_on_c, 0, 67, 63
2, 498743, Note_on_c, 0, 50, 49
2, 498747, Note_off_c, 0, 66, 64
2, 498753, Note_on_c, 0, 43, 37
2, 498778, Control_c, 0, 64, 0
2, 498844, Control_c, 0, 64, 127
2, 498935, Control_c, 0, 64, 0
2, 498962, Note_on_c, 0, 69, 57
2, 498966, Note_on_c, 0, 66, 49
2, 498971, Control_c, 0, 64, 127
2, 498981, Note_off_c, 0, 67, 64
2, 499100, Note_off_c, 0, 43, 64
2, 499140, Note_off_c, 0, 50, 64
2, 499180, Note_on_c, 0, 71, 55
2, 499182, Note_on_c, 0, 67, 48
2, 499187, Note_on_c, 0, 59, 43
2, 499191, Control_c, 0, 64, 0
2, 499201, Note_off_c, 0, 66, 64
2, 499203, Note_off_c, 0, 57, 64
2, 499203, Note_off_c, 0, 60, 64
2, 499203, Note_off_c, 0, 69, 64
2, 499212, Control_c, 0, 64, 127
2, 499331, Note_on_c, 0, 74, 59
2, 499341, Note_off_c, 0, 71, 64
2, 499363, Note_off_c, 0, 74, 64
2, 499387, Note_on_c, 0, 50, 55
2, 499388, Note_on_c, 0, 74, 64
2, 499396, Note_on_c, 0, 43, 32
2, 499413, Control_c, 0, 64, 0
2, 499443, Control_c, 0, 64, 127
2, 499606, Note_on_c, 0, 62, 51
2, 499675, Note_off_c, 0, 43, 64
2, 499712, Note_off_c, 0, 50, 64
2, 499814, Note_on_c, 0, 64, 35
2, 499817, Note_on_c, 0, 60, 59
2, 499838, Note_off_c, 0, 74, 64
2, 499841, Note_off_c, 0, 67, 64
2, 499846, Note_off_c, 0, 59, 64
2, 499848, Note_off_c, 0, 62, 64
2, 499937, Note_on_c, 0, 57, 58
2, 499988, Note_off_c, 0, 64, 64
2, 499992, Note_on_c, 0, 64, 43
2, 500015, Note_off_c, 0, 60, 64
2, 500029, Note_off_c, 0, 64, 64
2, 500040, Note_on_c, 0, 52, 47
2, 500052, Note_on_c, 0, 64, 49
2, 500060, Control_c, 0, 64, 0
2, 500075, Note_off_c, 0, 57, 64
2, 500091, Control_c, 0, 64, 127
2, 500275, Note_on_c, 0, 54, 63
2, 500327, Note_off_c, 0, 52, 64
2, 500399, Note_on_c, 0, 62, 39
2, 500426, Note_off_c, 0, 64, 64
2, 500544, Note_on_c, 0, 59, 40
2, 500544, Note_on_c, 0, 55, 39
2, 500557, Control_c, 0, 64, 0
2, 500566, Note_off_c, 0, 54, 64
2, 500600, Control_c, 0, 64, 127
2, 500721, Note_on_c, 0, 64, 37
2, 500748, Note_off_c, 0, 62, 64
2, 500755, Note_on_c, 0, 66, 55
2, 500762, Note_on_c, 0, 50, 50
2, 500769, Note_on_c, 0, 43, 37
2, 500781, Control_c, 0, 64, 0
2, 500785, Note_off_c, 0, 64, 64
2, 500838, Control_c, 0, 64, 127
2, 500974, Note_on_c, 0, 67, 51
2, 500976, Control_c, 0, 64, 0
2, 500994, Note_off_c, 0, 66, 64
2, 501000, Control_c, 0, 64, 127
2, 501178, Note_on_c, 0, 64, 55
2, 501184, Note_on_c, 0, 57, 44
2, 501185, Note_off_c, 0, 67, 64
2, 501187, Note_on_c, 0, 60, 49
2, 501197, Note_off_c, 0, 50, 64
2, 501200, Control_c, 0, 64, 0
2, 501201, Note_off_c, 0, 55, 64
2, 501201, Note_off_c, 0, 59, 64
2, 501212, Control_c, 0, 64, 127
2, 501218, Note_off_c, 0, 43, 64
2, 501315, Note_on_c, 0, 66, 46
2, 501328, Note_off_c, 0, 64, 64
2, 501374, Note_on_c, 0, 67, 62
2, 501377, Note_on_c, 0, 50, 46
2, 501383, Note_on_c, 0, 43, 33
2, 501398, Note_off_c, 0, 66, 64
2, 501423, Control_c, 0, 64, 0
2, 501543, Control_c, 0, 64, 127
2, 501587, Note_on_c, 0, 66, 55
2, 501590, Note_on_c, 0, 69, 58
2, 501606, Note_off_c, 0, 67, 64
2, 501788, Note_on_c, 0, 71, 60
2, 501792, Note_on_c, 0, 65, 58
2, 501799, Note_on_c, 0, 59, 51
2, 501806, Note_off_c, 0, 57, 64
2, 501809, Note_off_c, 0, 60, 64
2, 501813, Control_c, 0, 64, 0
2, 501819, Note_off_c, 0, 69, 64
2, 501821, Note_off_c, 0, 66, 64
2, 501843, Control_c, 0, 64, 127
2, 501936, Note_on_c, 0, 73, 55
2, 501971, Note_off_c, 0, 43, 64
2, 501973, Note_off_c, 0, 50, 64
2, 501982, Note_on_c, 0, 43, 58
2, 501983, Note_on_c, 0, 74, 70
2, 501996, Control_c, 0, 64, 0
2, 501999, Note_off_c, 0, 59, 64
2, 502012, Note_off_c, 0, 73, 64
2, 502020, Control_c, 0, 64, 127
2, 502192, Note_on_c, 0, 75, 62
2, 502195, Note_on_c, 0, 42, 56
2, 502199, Note_on_c, 0, 66, 66
2, 502202, Control_c, 0, 64, 0
2, 502207, Note_off_c, 0, 43, 64
2, 502221, Note_off_c, 0, 65, 64
2, 502224, Control_c, 0, 64, 127
2, 502227, Note_off_c, 0, 74, 64
2, 502419, Note_on_c, 0, 68, 54
2, 502424, Note_on_c, 0, 30, 74
2, 502424, Note_on_c, 0, 64, 63
2, 502424, Note_on_c, 0, 76, 69
2, 502438, Control_c, 0, 64, 0
2, 502440, Note_off_c, 0, 66, 64
2, 502451, Control_c, 0, 64, 127
2, 502459, Note_off_c, 0, 75, 64
2, 502552, Note_on_c, 0, 73, 62
2, 502571, Note_off_c, 0, 76, 64
2, 502611, Note_off_c, 0, 68, 64
2, 502616, Note_off_c, 0, 64, 64
2, 502656, Note_on_c, 0, 68, 78
2, 502660, Note_on_c, 0, 64, 73
2, 502660, Note_on_c, 0, 54, 59
2, 502672, Note_off_c, 0, 73, 64
2, 502673, Control_c, 0, 64, 0
2, 502692, Note_off_c, 0, 42, 64
2, 502712, Control_c, 0, 64, 127
2, 502791, Note_off_c, 0, 30, 64
2, 502879, Note_on_c, 0, 70, 62
2, 502890, Note_off_c, 0, 71, 64
2, 502896, Note_off_c, 0, 68, 64
2, 502940, Note_off_c, 0, 54, 64
2, 502992, Note_on_c, 0, 54, 64
2, 503059, Note_off_c, 0, 54, 64
2, 503061, Note_off_c, 0, 64, 64
2, 503085, Note_on_c, 0, 66, 74
2, 503088, Note_on_c, 0, 63, 64
2, 503092, Note_on_c, 0, 54, 69
2, 503096, Control_c, 0, 64, 0
2, 503113, Note_off_c, 0, 70, 64
2, 503117, Control_c, 0, 64, 127
2, 503164, Note_off_c, 0, 66, 64
2, 503250, Note_on_c, 0, 68, 62
2, 503253, Note_on_c, 0, 66, 82
2, 503278, Note_off_c, 0, 66, 64
2, 503280, Note_off_c, 0, 63, 64
2, 503304, Note_on_c, 0, 63, 64
2, 503305, Control_c, 0, 64, 127
2, 503306, Note_on_c, 0, 70, 67
2, 503312, Note_on_c, 0, 66, 78
2, 503323, Note_off_c, 0, 68, 64
2, 503522, Note_off_c, 0, 54, 64
2, 503546, Note_on_c, 0, 71, 64
2, 503546, Note_on_c, 0, 54, 64
2, 503555, Note_off_c, 0, 70, 64
2, 503766, Note_on_c, 0, 68, 64
2, 503769, Note_on_c, 0, 64, 63
2, 503781, Note_off_c, 0, 63, 64
2, 503796, Note_off_c, 0, 71, 64
2, 503834, Note_off_c, 0, 66, 64
2, 503874, Note_off_c, 0, 68, 64
2, 503914, Note_on_c, 0, 66, 83
2, 503917, Note_on_c, 0, 70, 59
2, 503945, Note_off_c, 0, 66, 64
2, 503949, Note_off_c, 0, 54, 64
2, 503967, Note_on_c, 0, 71, 63
2, 503978, Note_off_c, 0, 64, 64
2, 503979, Note_on_c, 0, 66, 80
2, 503984, Note_on_c, 0, 64, 59
2, 503997, Note_off_c, 0, 70, 64
2, 504211, Note_on_c, 0, 64, 62
2, 504211, Note_on_c, 0, 73, 73
2, 504212, Note_on_c, 0, 70, 67
2, 504216, Note_on_c, 0, 54, 69
2, 504223, Control_c, 0, 64, 0
2, 504228, Note_off_c, 0, 71, 64
2, 504244, Control_c, 0, 64, 127
2, 504314, Note_off_c, 0, 64, 64
2, 504451, Note_on_c, 0, 47, 59
2, 504452, Note_on_c, 0, 71, 69
2, 504453, Note_on_c, 0, 63, 62
2, 504455, Note_on_c, 0, 75, 73
2, 504460, Note_off_c, 0, 54, 64
2, 504463, Note_off_c, 0, 64, 64
2, 504466, Control_c, 0, 64, 0
2, 504467, Note_off_c, 0, 73, 64
2, 504468, Note_off_c, 0, 70, 64
2, 504473, Note_off_c, 0, 66, 64
2, 504486, Control_c, 0, 64, 127
2, 504536, Note_off_c, 0, 47, 64
2, 504537, Note_off_c, 0, 71, 64
2, 504538, Note_off_c, 0, 63, 64
2, 504540, Note_off_c, 0, 75, 64
2, 504640, Note_on_c, 0, 71, 73
2, 504640, Note_on_c, 0, 63, 86
2, 504643, Note_on_c, 0, 66, 74
2, 504645, Note_on_c, 0, 78, 73
2, 504679, Note_off_c, 0, 63, 64
2, 504679, Note_off_c, 0, 71, 64
2, 504682, Note_off_c, 0, 66, 64
2, 504684, Note_off_c, 0, 78, 64
2, 504692, Note_on_c, 0, 66, 71
2, 504692, Note_on_c, 0, 63, 77
2, 504695, Note_on_c, 0, 78, 71
2, 504696, Note_on_c, 0, 71, 70
2, 504699, Control_c, 0, 64, 0
2, 504724, Control_c, 0, 64, 127
2, 504919, Note_off_c, 0, 71, 64
2, 504925, Note_on_c, 0, 80, 64
2, 504929, Note_on_c, 0, 68, 59
2, 504934, Note_on_c, 0, 64, 59
2, 504934, Note_on_c, 0, 71, 67
2, 504935, Note_off_c, 0, 66, 64
2, 504938, Note_off_c, 0, 78, 64
2, 504943, Note_off_c, 0, 63, 64
2, 504944, Control_c, 0, 64, 0
2, 504957, Control_c, 0, 64, 127
2, 505140, Control_c, 0, 64, 0
2, 505149, Note_off_c, 0, 71, 64
2, 505154, Control_c, 0, 64, 127
2, 505159, Note_on_c, 0, 66, 55
2, 505160, Note_on_c, 0, 63, 60
2, 505161, Note_off_c, 0, 80, 64
2, 505164, Note_on_c, 0, 71, 58
2, 505165, Note_off_c, 0, 68, 64
2, 505165, Note_on_c, 0, 78, 59
2, 505170, Note_off_c, 0, 64, 64
2, 505244, Note_off_c, 0, 66, 64
2, 505245, Note_off_c, 0, 63, 64
2, 505249, Note_off_c, 0, 71, 64
2, 505250, Note_off_c, 0, 78, 64
2, 505337, Note_on_c, 0, 59, 55
2, 505337, Note_on_c, 0, 75, 62
2, 505340, Note_on_c, 0, 66, 52
2, 505340, Note_on_c, 0, 63, 52
2, 505366, Note_off_c, 0, 63, 64
2, 505396, Note_on_c, 0, 68, 51
2, 505399, Note_on_c, 0, 71, 52
2, 505400, Note_on_c, 0, 63, 64
2, 505403, Note_off_c, 0, 75, 64
2, 505403, Note_off_c, 0, 59, 64
2, 505404, Note_on_c, 0, 56, 66
2, 505406, Note_off_c, 0, 66, 64
2, 505428, Control_c, 0, 64, 0
2, 505458, Control_c, 0, 64, 127
2, 505623, Note_off_c, 0, 68, 64
2, 505626, Note_off_c, 0, 71, 64
2, 505627, Note_off_c, 0, 63, 64
2, 505631, Note_off_c, 0, 56, 64
2, 505632, Note_on_c, 0, 76, 66
2, 505635, Note_on_c, 0, 68, 58
2, 505636, Note_on_c, 0, 64, 59
2, 505642, Note_on_c, 0, 61, 60
2, 505849, Note_off_c, 0, 76, 64
2, 505852, Note_off_c, 0, 68, 64
2, 505853, Note_off_c, 0, 64, 64
2, 505859, Note_off_c, 0, 61, 64
2, 505870, Note_on_c, 0, 59, 55
2, 505870, Note_on_c, 0, 63, 64
2, 505870, Note_on_c, 0, 68, 59
2, 505870, Note_on_c, 0, 75, 64
2, 505955, Note_off_c, 0, 75, 64
2, 505955, Note_off_c, 0, 68, 64
2, 505955, Note_off_c, 0, 63, 64
2, 505955, Note_off_c, 0, 59, 64
2, 506044, Note_on_c, 0, 56, 59
2, 506048, Note_on_c, 0, 68, 59
2, 506048, Note_on_c, 0, 63, 59
2, 506049, Note_on_c, 0, 71, 58
2, 506076, Note_off_c, 0, 68, 64
2, 506100, Note_on_c, 0, 68, 65
2, 506106, Note_off_c, 0, 56, 64
2, 506107, Note_on_c, 0, 64, 67
2, 506109, Note_on_c, 0, 59, 64
2, 506110, Note_off_c, 0, 63, 64
2, 506112, Note_off_c, 0, 71, 64
2, 506116, Note_on_c, 0, 52, 58
2, 506132, Control_c, 0, 64, 0
2, 506161, Control_c, 0, 64, 127
2, 506334, Note_off_c, 0, 68, 64
2, 506341, Note_off_c, 0, 64, 64
2, 506350, Note_off_c, 0, 52, 64
2, 506364, Note_on_c, 0, 71, 66
2, 506367, Note_on_c, 0, 63, 66
2, 506377, Note_on_c, 0, 54, 57
2, 506386, Note_on_c, 0, 47, 44
2, 506390, Control_c, 0, 64, 0
2, 506401, Control_c, 0, 64, 127
2, 506595, Note_off_c, 0, 59, 64
2, 506603, Note_off_c, 0, 71, 64
2, 506606, Note_off_c, 0, 63, 64
2, 506616, Note_off_c, 0, 54, 64
2, 506625, Note_off_c, 0, 47, 64
2, 506630, Note_on_c, 0, 73, 71
2, 506632, Note_on_c, 0, 66, 66
2, 506637, Note_on_c, 0, 64, 64
2, 506639, Note_on_c, 0, 58, 54
2, 506721, Note_off_c, 0, 73, 64
2, 506728, Note_off_c, 0, 64, 64
2, 506729, Note_off_c, 0, 66, 64
2, 506730, Note_off_c, 0, 58, 64
2, 506842, Note_on_c, 0, 75, 63
2, 506849, Note_on_c, 0, 42, 50
2, 506901, Note_on_c, 0, 73, 63
2, 506905, Note_on_c, 0, 64, 65
2, 506911, Note_on_c, 0, 58, 54
2, 506914, Note_on_c, 0, 66, 60
2, 506918, Note_off_c, 0, 75, 64
2, 506925, Note_off_c, 0, 42, 64
2, 506927, Control_c, 0, 64, 0
2, 506966, Control_c, 0, 64, 127
2, 507305, Note_on_c, 0, 59, 50
2, 507311, Note_on_c, 0, 63, 57
2, 507311, Note_on_c, 0, 47, 46
2, 507315, Note_off_c, 0, 73, 64
2, 507318, Note_on_c, 0, 71, 51
2, 507319, Note_off_c, 0, 64, 64
2, 507325, Note_off_c, 0, 58, 64
2, 507328, Note_off_c, 0, 66, 64
2, 507390, Note_off_c, 0, 59, 64
2, 507396, Note_off_c, 0, 47, 64
2, 507396, Note_off_c, 0, 63, 64
2, 507403, Note_off_c, 0, 71, 64
2, 507432, Control_c, 0, 64, 0
2, 507436, Note_on_c, 0, 63, 54
2, 507436, Note_on_c, 0, 59, 39
2, 507436, Note_on_c, 0, 47, 43
2, 507438, Note_on_c, 0, 71, 50
2, 507480, Control_c, 0, 64, 127
2, 507527, Note_off_c, 0, 47, 64
2, 507527, Note_off_c, 0, 59, 64
2, 507527, Note_off_c, 0, 63, 64
2, 507529, Note_off_c, 0, 71, 64
2, 507640, Note_on_c, 0, 68, 64
2, 507689, Note_off_c, 0, 68, 64
2, 507692, Note_on_c, 0, 52, 46
2, 507696, Note_on_c, 0, 59, 57
2, 507696, Note_on_c, 0, 68, 70
2, 507698, Note_on_c, 0, 64, 62
2, 507713, Control_c, 0, 64, 0
2, 507752, Control_c, 0, 64, 127
2, 507929, Note_on_c, 0, 70, 57
2, 507936, Note_on_c, 0, 61, 50
2, 507948, Control_c, 0, 64, 0
2, 507953, Note_off_c, 0, 68, 64
2, 507953, Note_off_c, 0, 59, 64
2, 507968, Control_c, 0, 64, 127
2, 508036, Note_on_c, 0, 59, 57
2, 508039, Note_on_c, 0, 68, 69
2, 508053, Note_off_c, 0, 61, 64
2, 508062, Note_off_c, 0, 70, 64
2, 508150, Note_off_c, 0, 52, 64
2, 508164, Note_on_c, 0, 54, 46
2, 508164, Note_on_c, 0, 58, 50
2, 508166, Note_on_c, 0, 66, 60
2, 508179, Note_off_c, 0, 59, 64
2, 508181, Note_off_c, 0, 68, 64
2, 508187, Control_c, 0, 64, 0
2, 508218, Control_c, 0, 64, 127
2, 508253, Note_off_c, 0, 58, 64
2, 508253, Note_off_c, 0, 54, 64
2, 508255, Note_off_c, 0, 66, 64
2, 508273, Note_off_c, 0, 64, 64
2, 508352, Note_on_c, 0, 73, 67
2, 508361, Note_on_c, 0, 42, 70
2, 508392, Note_off_c, 0, 73, 64
2, 508416, Note_on_c, 0, 58, 62
2, 508420, Note_on_c, 0, 73, 73
2, 508420, Note_on_c, 0, 66, 74
2, 508423, Note_on_c, 0, 64, 67
2, 508424, Note_off_c, 0, 42, 64
2, 508446, Control_c, 0, 64, 0
2, 508483, Control_c, 0, 64, 127
2, 508700, Note_off_c, 0, 66, 64
2, 508716, Note_on_c, 0, 75, 60
2, 508719, Note_on_c, 0, 42, 42
2, 508719, Note_on_c, 0, 66, 54
2, 508723, Note_off_c, 0, 64, 64
2, 508727, Note_on_c, 0, 64, 47
2, 508734, Control_c, 0, 64, 0
2, 508739, Note_off_c, 0, 73, 64
2, 508754, Control_c, 0, 64, 127
2, 508974, Note_off_c, 0, 58, 64
2, 509044, Note_on_c, 0, 63, 48
2, 509045, Note_off_c, 0, 66, 64
2, 509046, Note_off_c, 0, 42, 64
2, 509050, Note_on_c, 0, 59, 27
2, 509050, Note_on_c, 0, 71, 56
2, 509053, Note_off_c, 0, 64, 64
2, 509054, Note_on_c, 0, 47, 28
2, 509058, Note_off_c, 0, 75, 64
2, 509074, Control_c, 0, 64, 0
2, 509123, Control_c, 0, 64, 127
2, 509450, Note_off_c, 0, 59, 64
2, 509455, Note_on_c, 0, 64, 32
2, 509459, Note_on_c, 0, 68, 29
2, 509462, Note_off_c, 0, 63, 64
2, 509466, Note_on_c, 0, 59, 25
2, 509468, Note_off_c, 0, 71, 64
2, 509472, Note_off_c, 0, 47, 64
2, 509472, Note_on_c, 0, 52, 25
2, 509549, Control_c, 0, 64, 0
2, 509595, Control_c, 0, 64, 127
2, 509934, Note_off_c, 0, 68, 64
2, 509955, Note_off_c, 0, 52, 64
2, 509962, Note_off_c, 0, 59, 64
2, 509964, Note_off_c, 0, 64, 64
2, 510240, Note_on_c, 0, 68, 39
2, 510243, Note_on_c, 0, 64, 54
2, 510294, Control_c, 0, 64, 0
2, 510342, Control_c, 0, 64, 127
2, 510349, Note_on_c, 0, 61, 48
2, 510478, Note_on_c, 0, 56, 49
2, 510485, Control_c, 0, 64, 0
2, 510505, Control_c, 0, 64, 127
2, 510510, Note_off_c, 0, 61, 64
2, 510697, Note_on_c, 0, 66, 37
2, 510699, Note_on_c, 0, 58, 47
2, 510711, Control_c, 0, 64, 0
2, 510733, Control_c, 0, 64, 127
2, 510742, Note_off_c, 0, 56, 64
2, 510746, Note_off_c, 0, 68, 64
2, 510848, Note_on_c, 0, 59, 50
2, 510866, Note_off_c, 0, 58, 64
2, 510870, Note_on_c, 0, 61, 49
2, 510887, Note_off_c, 0, 59, 64
2, 510889, Note_off_c, 0, 66, 64
2, 510914, Note_on_c, 0, 63, 34
2, 510915, Note_on_c, 0, 66, 42
2, 510920, Note_on_c, 0, 59, 47
2, 510926, Note_off_c, 0, 64, 64
2, 510930, Note_off_c, 0, 61, 64
2, 510940, Control_c, 0, 64, 0
2, 510955, Control_c, 0, 64, 127
2, 511044, Note_on_c, 0, 58, 46
2, 511061, Note_off_c, 0, 59, 64
2, 511079, Note_off_c, 0, 66, 64
2, 511084, Note_on_c, 0, 66, 56
2, 511128, Note_off_c, 0, 66, 64
2, 511136, Note_on_c, 0, 59, 51
2, 511144, Note_on_c, 0, 66, 58
2, 511147, Note_off_c, 0, 58, 64
2, 511150, Control_c, 0, 64, 0
2, 511179, Control_c, 0, 64, 127
2, 511321, Note_off_c, 0, 66, 64
2, 511359, Note_on_c, 0, 66, 43
2, 511364, Note_on_c, 0, 61, 48
2, 511370, Note_off_c, 0, 59, 64
2, 511375, Control_c, 0, 64, 0
2, 511388, Control_c, 0, 64, 127
2, 511568, Note_off_c, 0, 66, 64
2, 511582, Note_on_c, 0, 66, 42
2, 511582, Note_on_c, 0, 62, 47
2, 511599, Note_off_c, 0, 63, 64
2, 511611, Note_off_c, 0, 61, 64
2, 511696, Note_on_c, 0, 59, 39
2, 511729, Note_off_c, 0, 66, 64
2, 511732, Note_on_c, 0, 66, 58
2, 511771, Note_off_c, 0, 66, 64
2, 511797, Note_on_c, 0, 54, 49
2, 511807, Note_off_c, 0, 59, 64
2, 511809, Note_on_c, 0, 66, 50
2, 512018, Note_on_c, 0, 56, 47
2, 512021, Note_on_c, 0, 64, 47
2, 512022, Note_off_c, 0, 66, 64
2, 512034, Note_off_c, 0, 54, 64
2, 512040, Control_c, 0, 64, 0
2, 512061, Control_c, 0, 64, 127
2, 512144, Note_off_c, 0, 62, 64
2, 512164, Note_on_c, 0, 57, 48
2, 512176, Note_off_c, 0, 56, 64
2, 512200, Note_on_c, 0, 59, 47
2, 512208, Note_off_c, 0, 64, 64
2, 512209, Note_on_c, 0, 61, 43
2, 512216, Note_off_c, 0, 57, 64
2, 512232, Note_on_c, 0, 57, 46
2, 512234, Note_on_c, 0, 64, 36
2, 512247, Control_c, 0, 64, 0
2, 512254, Note_off_c, 0, 59, 64
2, 512256, Note_off_c, 0, 61, 64
2, 512263, Control_c, 0, 64, 127
2, 512348, Note_on_c, 0, 56, 46
2, 512355, Note_off_c, 0, 57, 64
2, 512381, Note_off_c, 0, 64, 64
2, 512392, Note_on_c, 0, 64, 28
2, 512427, Note_off_c, 0, 64, 64
2, 512443, Note_on_c, 0, 64, 46
2, 512455, Control_c, 0, 64, 0
2, 512462, Note_on_c, 0, 57, 47
2, 512472, Control_c, 0, 64, 127
2, 512481, Note_off_c, 0, 56, 64
2, 512647, Note_off_c, 0, 64, 64
2, 512663, Note_on_c, 0, 64, 36
2, 512667, Note_on_c, 0, 59, 46
2, 512683, Note_off_c, 0, 57, 64
2, 512687, Control_c, 0, 64, 0
2, 512707, Control_c, 0, 64, 127
2, 512872, Note_off_c, 0, 64, 64
2, 512881, Note_on_c, 0, 60, 46
2, 512889, Note_on_c, 0, 64, 41
2, 512913, Note_off_c, 0, 59, 64
2, 512996, Note_on_c, 0, 57, 44
2, 513013, Note_off_c, 0, 64, 64
2, 513041, Note_on_c, 0, 64, 46
2, 513085, Note_off_c, 0, 64, 64
2, 513108, Note_on_c, 0, 52, 54
2, 513123, Note_off_c, 0, 57, 64
2, 513124, Note_on_c, 0, 64, 37
2, 513322, Note_on_c, 0, 54, 44
2, 513344, Note_off_c, 0, 52, 64
2, 513345, Control_c, 0, 64, 0
2, 513365, Control_c, 0, 64, 127
2, 513447, Note_on_c, 0, 62, 48
2, 513457, Note_off_c, 0, 64, 64
2, 513610, Note_on_c, 0, 55, 40
2, 513614, Note_on_c, 0, 59, 44
2, 513623, Note_off_c, 0, 60, 64
2, 513633, Note_off_c, 0, 54, 64
2, 513647, Control_c, 0, 64, 0
2, 513660, Control_c, 0, 64, 127
2, 513827, Note_on_c, 0, 64, 44
2, 513832, Note_off_c, 0, 62, 64
2, 513856, Note_on_c, 0, 43, 50
2, 513858, Note_on_c, 0, 50, 47
2, 513870, Note_on_c, 0, 66, 52
2, 513886, Control_c, 0, 64, 0
2, 513898, Note_off_c, 0, 64, 64
2, 514023, Control_c, 0, 64, 127
2, 514078, Note_on_c, 0, 67, 56
2, 514093, Note_off_c, 0, 66, 64
2, 514280, Note_on_c, 0, 64, 55
2, 514284, Note_on_c, 0, 57, 48
2, 514288, Note_off_c, 0, 43, 64
2, 514288, Note_on_c, 0, 60, 49
2, 514291, Note_off_c, 0, 55, 64
2, 514295, Note_off_c, 0, 59, 64
2, 514296, Note_off_c, 0, 67, 64
2, 514296, Note_off_c, 0, 50, 64
2, 514296, Control_c, 0, 64, 0
2, 514338, Control_c, 0, 64, 127
2, 514424, Note_on_c, 0, 66, 49
2, 514449, Note_off_c, 0, 64, 64
2, 514469, Note_on_c, 0, 67, 63
2, 514478, Note_on_c, 0, 50, 42
2, 514484, Note_on_c, 0, 43, 40
2, 514497, Note_off_c, 0, 66, 64
2, 514521, Control_c, 0, 64, 0
2, 514683, Control_c, 0, 64, 127
2, 514692, Note_on_c, 0, 69, 55
2, 514697, Note_on_c, 0, 66, 54
2, 514709, Note_off_c, 0, 67, 64
2, 514908, Note_on_c, 0, 71, 54
2, 514910, Note_on_c, 0, 67, 58
2, 514914, Note_on_c, 0, 59, 52
2, 514919, Note_off_c, 0, 57, 64
2, 514920, Note_off_c, 0, 66, 64
2, 514921, Note_off_c, 0, 69, 64
2, 514923, Note_off_c, 0, 60, 64
2, 514929, Control_c, 0, 64, 0
2, 514948, Control_c, 0, 64, 127
2, 515067, Note_on_c, 0, 74, 59
2, 515070, Note_off_c, 0, 71, 64
2, 515070, Note_off_c, 0, 50, 64
2, 515076, Note_off_c, 0, 43, 64
2, 515100, Note_off_c, 0, 74, 64
2, 515120, Note_on_c, 0, 50, 52
2, 515126, Note_on_c, 0, 74, 71
2, 515129, Note_on_c, 0, 43, 43
2, 515132, Control_c, 0, 64, 0
2, 515172, Control_c, 0, 64, 127
2, 515352, Note_on_c, 0, 62, 63
2, 515359, Note_off_c, 0, 67, 64
2, 515384, Note_off_c, 0, 43, 64
2, 515407, Note_off_c, 0, 50, 64
2, 515417, Note_off_c, 0, 59, 64
2, 515559, Note_on_c, 0, 60, 71
2, 515559, Note_on_c, 0, 64, 50
2, 515563, Note_off_c, 0, 74, 64
2, 515587, Note_off_c, 0, 62, 64
2, 515660, Note_off_c, 0, 64, 64
2, 515677, Note_on_c, 0, 57, 59
2, 515716, Note_on_c, 0, 64, 54
2, 515749, Note_off_c, 0, 64, 64
2, 515771, Note_on_c, 0, 64, 58
2, 515779, Note_on_c, 0, 52, 66
2, 515785, Control_c, 0, 64, 0
2, 515810, Note_off_c, 0, 57, 64
2, 515825, Control_c, 0, 64, 127
2, 515977, Note_on_c, 0, 54, 57
2, 515996, Note_off_c, 0, 60, 64
2, 516000, Note_off_c, 0, 52, 64
2, 516002, Control_c, 0, 64, 0
2, 516041, Control_c, 0, 64, 127
2, 516079, Note_on_c, 0, 62, 55
2, 516108, Note_off_c, 0, 64, 64
2, 516240, Note_on_c, 0, 59, 48
2, 516245, Note_on_c, 0, 55, 43
2, 516261, Note_off_c, 0, 54, 64
2, 516266, Control_c, 0, 64, 0
2, 516284, Note_off_c, 0, 62, 64
2, 516317, Control_c, 0, 64, 127
2, 516452, Note_on_c, 0, 64, 47
2, 516495, Note_on_c, 0, 66, 51
2, 516512, Note_on_c, 0, 50, 31
2, 516517, Note_on_c, 0, 43, 25
2, 516521, Note_off_c, 0, 64, 64
2, 516524, Control_c, 0, 64, 0
2, 516573, Control_c, 0, 64, 127
2, 516713, Note_on_c, 0, 67, 50
2, 516732, Note_off_c, 0, 66, 64
2, 516738, Control_c, 0, 64, 0
2, 516752, Control_c, 0, 64, 127
2, 516775, Note_off_c, 0, 59, 64
2, 516796, Note_off_c, 0, 55, 64
2, 516926, Note_on_c, 0, 64, 51
2, 516929, Note_on_c, 0, 57, 49
2, 516934, Note_on_c, 0, 60, 49
2, 516935, Note_off_c, 0, 43, 64
2, 516940, Note_off_c, 0, 50, 64
2, 516945, Control_c, 0, 64, 0
2, 516956, Note_off_c, 0, 67, 64
2, 516957, Control_c, 0, 64, 127
2, 517072, Note_on_c, 0, 66, 50
2, 517076, Note_off_c, 0, 64, 64
2, 517115, Note_on_c, 0, 67, 56
2, 517129, Note_on_c, 0, 50, 48
2, 517132, Note_on_c, 0, 43, 36
2, 517143, Note_off_c, 0, 66, 64
2, 517158, Control_c, 0, 64, 0
2, 517187, Control_c, 0, 64, 127
2, 517333, Note_on_c, 0, 66, 57
2, 517336, Note_on_c, 0, 69, 57
2, 517361, Note_off_c, 0, 67, 64
2, 517532, Note_on_c, 0, 71, 64
2, 517534, Note_on_c, 0, 65, 60
2, 517539, Note_on_c, 0, 59, 54
2, 517545, Note_off_c, 0, 57, 64
2, 517547, Control_c, 0, 64, 0
2, 517550, Note_off_c, 0, 60, 64
2, 517551, Note_off_c, 0, 66, 64
2, 517554, Note_off_c, 0, 69, 64
2, 517577, Control_c, 0, 64, 127
2, 517675, Note_on_c, 0, 73, 39
2, 517693, Note_off_c, 0, 50, 64
2, 517696, Note_off_c, 0, 43, 64
2, 517720, Note_on_c, 0, 43, 58
2, 517728, Note_on_c, 0, 74, 67
2, 517736, Note_off_c, 0, 59, 64
2, 517738, Control_c, 0, 64, 0
2, 517751, Control_c, 0, 64, 127
2, 517757, Note_off_c, 0, 73, 64
2, 517930, Note_on_c, 0, 75, 62
2, 517932, Note_on_c, 0, 66, 59
2, 517939, Note_off_c, 0, 74, 64
2, 517940, Note_on_c, 0, 42, 56
2, 517944, Note_off_c, 0, 65, 64
2, 517956, Control_c, 0, 64, 0
2, 517960, Note_off_c, 0, 43, 64
2, 517968, Control_c, 0, 64, 127
2, 518143, Note_on_c, 0, 30, 63
2, 518148, Note_on_c, 0, 76, 67
2, 518148, Note_on_c, 0, 68, 54
2, 518148, Note_on_c, 0, 64, 60
2, 518159, Note_off_c, 0, 66, 64
2, 518161, Note_off_c, 0, 75, 64
2, 518165, Control_c, 0, 64, 0
2, 518176, Control_c, 0, 64, 127
2, 518256, Note_on_c, 0, 73, 73
2, 518273, Note_off_c, 0, 76, 64
2, 518326, Note_off_c, 0, 42, 64
2, 518329, Note_off_c, 0, 64, 64
2, 518329, Note_off_c, 0, 68, 64
2, 518354, Note_on_c, 0, 54, 58
2, 518356, Note_on_c, 0, 68, 80
2, 518362, Note_on_c, 0, 64, 73
2, 518372, Note_off_c, 0, 73, 64
2, 518452, Note_off_c, 0, 30, 64
2, 518563, Note_off_c, 0, 71, 64
2, 518563, Note_on_c, 0, 70, 64
2, 518575, Note_off_c, 0, 68, 64
2, 518627, Note_off_c, 0, 64, 64
2, 518630, Note_off_c, 0, 54, 64
2, 518664, Note_on_c, 0, 54, 77
2, 518738, Note_off_c, 0, 54, 64
2, 518756, Control_c, 0, 64, 0
2, 518764, Note_off_c, 0, 70, 64
2, 518765, Note_on_c, 0, 66, 66
2, 518768, Note_on_c, 0, 54, 73
2, 518768, Note_on_c, 0, 63, 62
2, 518785, Control_c, 0, 64, 127
2, 518830, Note_off_c, 0, 66, 64
2, 518833, Note_off_c, 0, 63, 64
2, 518908, Note_on_c, 0, 66, 73
2, 518911, Note_on_c, 0, 68, 69
2, 518956, Note_off_c, 0, 66, 64
2, 518959, Note_off_c, 0, 68, 64
2, 518968, Note_on_c, 0, 70, 69
2, 518968, Note_on_c, 0, 66, 73
2, 519142, Note_off_c, 0, 54, 64
2, 519187, Note_on_c, 0, 71, 62
2, 519191, Note_off_c, 0, 70, 64
2, 519194, Note_on_c, 0, 54, 64
2, 519261, Note_off_c, 0, 66, 64
2, 519393, Note_on_c, 0, 68, 66
2, 519398, Note_on_c, 0, 64, 62
2, 519408, Note_off_c, 0, 71, 64
2, 519468, Note_off_c, 0, 68, 64
2, 519473, Note_off_c, 0, 64, 64
2, 519528, Note_on_c, 0, 70, 52
2, 519532, Note_on_c, 0, 66, 86
2, 519571, Note_off_c, 0, 66, 64
2, 519574, Note_off_c, 0, 54, 64
2, 519588, Note_on_c, 0, 66, 80
2, 519590, Note_on_c, 0, 64, 57
2, 519592, Note_on_c, 0, 68, 63
2, 519592, Note_on_c, 0, 71, 63
2, 519599, Control_c, 0, 64, 0
2, 519605, Note_off_c, 0, 70, 64
2, 519613, Control_c, 0, 64, 127
2, 519814, Note_on_c, 0, 73, 69
2, 519817, Note_on_c, 0, 70, 67
2, 519819, Note_off_c, 0, 71, 64
2, 519819, Note_off_c, 0, 68, 64
2, 519824, Note_on_c, 0, 54, 64
2, 519843, Control_c, 0, 64, 0
2, 519853, Control_c, 0, 64, 127
2, 520055, Note_on_c, 0, 75, 69
2, 520055, Note_on_c, 0, 71, 67
2, 520055, Note_on_c, 0, 47, 64
2, 520059, Note_on_c, 0, 63, 64
2, 520065, Control_c, 0, 64, 0
2, 520066, Note_off_c, 0, 73, 64
2, 520069, Note_off_c, 0, 70, 64
2, 520069, Note_off_c, 0, 66, 64
2, 520070, Note_off_c, 0, 54, 64
2, 520071, Note_off_c, 0, 64, 64
2, 520087, Control_c, 0, 64, 127
2, 520140, Note_off_c, 0, 47, 64
2, 520140, Note_off_c, 0, 71, 64
2, 520140, Note_off_c, 0, 75, 64
2, 520144, Note_off_c, 0, 63, 64
2, 520244, Note_on_c, 0, 71, 65
2, 520244, Note_on_c, 0, 66, 65
2, 520244, Note_on_c, 0, 63, 83
2, 520246, Note_on_c, 0, 78, 63
2, 520283, Note_off_c, 0, 63, 64
2, 520283, Note_off_c, 0, 66, 64
2, 520283, Note_off_c, 0, 71, 64
2, 520285, Note_off_c, 0, 78, 64
2, 520296, Note_on_c, 0, 78, 73
2, 520304, Note_on_c, 0, 66, 66
2, 520304, Note_on_c, 0, 71, 73
2, 520306, Note_on_c, 0, 63, 78
2, 520311, Control_c, 0, 64, 0
2, 520332, Control_c, 0, 64, 127
2, 520498, Note_off_c, 0, 71, 64
2, 520512, Note_on_c, 0, 80, 67
2, 520516, Note_off_c, 0, 78, 64
2, 520517, Note_on_c, 0, 68, 62
2, 520517, Note_on_c, 0, 71, 66
2, 520521, Note_on_c, 0, 64, 60
2, 520524, Note_off_c, 0, 66, 64
2, 520526, Note_off_c, 0, 63, 64
2, 520725, Note_off_c, 0, 71, 64
2, 520732, Note_on_c, 0, 78, 66
2, 520732, Note_on_c, 0, 66, 55
2, 520732, Note_on_c, 0, 63, 62
2, 520740, Note_on_c, 0, 71, 63
2, 520742, Control_c, 0, 64, 0
2, 520743, Note_off_c, 0, 80, 64
2, 520748, Note_off_c, 0, 68, 64
2, 520752, Note_off_c, 0, 64, 64
2, 520758, Control_c, 0, 64, 127
2, 520817, Note_off_c, 0, 63, 64
2, 520817, Note_off_c, 0, 66, 64
2, 520817, Note_off_c, 0, 78, 64
2, 520825, Note_off_c, 0, 71, 64
2, 520908, Note_on_c, 0, 68, 52
2, 520910, Note_on_c, 0, 75, 62
2, 520912, Note_on_c, 0, 63, 52
2, 520912, Note_on_c, 0, 59, 62
2, 520961, Note_off_c, 0, 68, 64
2, 520964, Control_c, 0, 64, 0
2, 520965, Note_off_c, 0, 63, 64
2, 520969, Note_on_c, 0, 63, 64
2, 520972, Note_on_c, 0, 71, 60
2, 520974, Note_on_c, 0, 68, 60
2, 520974, Note_on_c, 0, 56, 57
2, 520979, Note_off_c, 0, 75, 64
2, 520981, Note_off_c, 0, 59, 64
2, 521030, Control_c, 0, 64, 127
2, 521191, Note_off_c, 0, 68, 64
2, 521192, Note_on_c, 0, 61, 66
2, 521193, Note_on_c, 0, 64, 64
2, 521194, Note_on_c, 0, 68, 64
2, 521197, Note_on_c, 0, 76, 67
2, 521206, Note_off_c, 0, 63, 64
2, 521206, Control_c, 0, 64, 0
2, 521209, Note_off_c, 0, 71, 64
2, 521211, Note_off_c, 0, 56, 64
2, 521227, Control_c, 0, 64, 127
2, 521402, Note_off_c, 0, 68, 64
2, 521413, Note_on_c, 0, 75, 62
2, 521419, Note_on_c, 0, 63, 62
2, 521419, Note_on_c, 0, 59, 64
2, 521422, Note_on_c, 0, 68, 47
2, 521427, Note_off_c, 0, 61, 64
2, 521428, Note_off_c, 0, 64, 64
2, 521432, Note_off_c, 0, 76, 64
2, 521498, Note_off_c, 0, 75, 64
2, 521504, Note_off_c, 0, 59, 64
2, 521504, Note_off_c, 0, 63, 64
2, 521507, Note_off_c, 0, 68, 64
2, 521576, Note_on_c, 0, 56, 52
2, 521580, Note_on_c, 0, 71, 56
2, 521580, Note_on_c, 0, 68, 55
2, 521580, Note_on_c, 0, 63, 66
2, 521624, Note_off_c, 0, 68, 64
2, 521632, Note_on_c, 0, 52, 55
2, 521632, Note_on_c, 0, 59, 56
2, 521636, Note_on_c, 0, 64, 67
2, 521636, Note_on_c, 0, 68, 60
2, 521647, Note_off_c, 0, 56, 64
2, 521651, Note_off_c, 0, 63, 64
2, 521651, Note_off_c, 0, 71, 64
2, 521652, Control_c, 0, 64, 0
2, 521706, Control_c, 0, 64, 127
2, 521880, Note_on_c, 0, 54, 49
2, 521884, Note_on_c, 0, 47, 47
2, 521887, Note_on_c, 0, 71, 66
2, 521887, Note_on_c, 0, 63, 62
2, 521893, Note_off_c, 0, 52, 64
2, 521897, Note_off_c, 0, 68, 64
2, 521897, Note_off_c, 0, 64, 64
2, 521910, Control_c, 0, 64, 0
2, 521940, Control_c, 0, 64, 127
2, 522151, Note_on_c, 0, 66, 73
2, 522151, Note_on_c, 0, 73, 73
2, 522153, Note_on_c, 0, 64, 69
2, 522154, Note_off_c, 0, 54, 64
2, 522158, Note_off_c, 0, 47, 64
2, 522160, Note_on_c, 0, 58, 63
2, 522160, Control_c, 0, 64, 0
2, 522161, Note_off_c, 0, 63, 64
2, 522161, Note_off_c, 0, 71, 64
2, 522167, Note_off_c, 0, 59, 64
2, 522189, Control_c, 0, 64, 127
2, 522242, Note_off_c, 0, 73, 64
2, 522242, Note_off_c, 0, 66, 64
2, 522244, Note_off_c, 0, 64, 64
2, 522251, Note_off_c, 0, 58, 64
2, 522385, Note_on_c, 0, 42, 57
2, 522391, Note_on_c, 0, 75, 54
2, 522456, Note_on_c, 0, 73, 63
2, 522460, Note_on_c, 0, 64, 69
2, 522461, Note_on_c, 0, 66, 71
2, 522463, Note_on_c, 0, 58, 63
2, 522471, Control_c, 0, 64, 0
2, 522472, Note_off_c, 0, 75, 64
2, 522499, Note_off_c, 0, 42, 64
2, 522529, Control_c, 0, 64, 127
2, 522882, Note_on_c, 0, 63, 55
2, 522886, Note_on_c, 0, 71, 57
2, 522886, Note_on_c, 0, 59, 41
2, 522886, Note_on_c, 0, 47, 41
2, 522887, Note_off_c, 0, 73, 64
2, 522891, Note_off_c, 0, 64, 64
2, 522892, Note_off_c, 0, 66, 64
2, 522894, Note_off_c, 0, 58, 64
2, 522967, Note_off_c, 0, 63, 64
2, 522971, Note_off_c, 0, 47, 64
2, 522971, Note_off_c, 0, 59, 64
2, 522971, Note_off_c, 0, 71, 64
2, 522992, Note_on_c, 0, 59, 49
2, 522996, Note_on_c, 0, 63, 54
2, 522996, Note_on_c, 0, 47, 50
2, 522998, Note_on_c, 0, 71, 51
2, 523019, Control_c, 0, 64, 0
2, 523050, Control_c, 0, 64, 127
2, 523126, Note_off_c, 0, 59, 64
2, 523130, Note_off_c, 0, 47, 64
2, 523130, Note_off_c, 0, 63, 64
2, 523132, Note_off_c, 0, 71, 64
2, 523203, Note_on_c, 0, 68, 63
2, 523246, Note_off_c, 0, 68, 64
2, 523268, Note_on_c, 0, 52, 48
2, 523268, Note_on_c, 0, 64, 65
2, 523268, Note_on_c, 0, 59, 57
2, 523271, Note_on_c, 0, 68, 73
2, 523284, Control_c, 0, 64, 0
2, 523324, Control_c, 0, 64, 127
2, 523487, Control_c, 0, 64, 0
2, 523497, Note_on_c, 0, 70, 63
2, 523500, Note_on_c, 0, 61, 60
2, 523508, Note_off_c, 0, 59, 64
2, 523512, Control_c, 0, 64, 127
2, 523518, Note_off_c, 0, 68, 64
2, 523600, Note_on_c, 0, 59, 58
2, 523602, Note_on_c, 0, 68, 73
2, 523609, Note_off_c, 0, 61, 64
2, 523612, Note_off_c, 0, 70, 64
2, 523720, Note_on_c, 0, 54, 66
2, 523722, Note_on_c, 0, 66, 67
2, 523723, Note_off_c, 0, 68, 64
2, 523724, Note_on_c, 0, 58, 66
2, 523725, Note_off_c, 0, 52, 64
2, 523726, Control_c, 0, 64, 0
2, 523743, Note_off_c, 0, 59, 64
2, 523752, Control_c, 0, 64, 127
2, 523787, Note_off_c, 0, 64, 64
2, 523805, Note_off_c, 0, 54, 64
2, 523807, Note_off_c, 0, 66, 64
2, 523809, Note_off_c, 0, 58, 64
2, 523897, Note_on_c, 0, 73, 69
2, 523897, Note_on_c, 0, 42, 59
2, 523944, Note_off_c, 0, 73, 64
2, 523964, Note_on_c, 0, 64, 69
2, 523964, Note_on_c, 0, 58, 62
2, 523965, Note_on_c, 0, 66, 74
2, 523967, Note_on_c, 0, 73, 73
2, 523986, Control_c, 0, 64, 0
2, 524001, Note_off_c, 0, 42, 64
2, 524034, Control_c, 0, 64, 127
2, 524261, Note_off_c, 0, 64, 64
2, 524262, Note_off_c, 0, 66, 64
2, 524277, Note_on_c, 0, 75, 73
2, 524281, Note_on_c, 0, 64, 59
2, 524281, Note_on_c, 0, 66, 56
2, 524287, Note_on_c, 0, 42, 56
2, 524295, Note_off_c, 0, 73, 64
2, 524664, Note_on_c, 0, 71, 57
2, 524669, Note_on_c, 0, 63, 47
2, 524674, Note_on_c, 0, 59, 36
2, 524679, Note_on_c, 0, 47, 40
2, 524682, Note_off_c, 0, 66, 64
2, 524682, Note_off_c, 0, 64, 64
2, 524682, Note_off_c, 0, 75, 64
2, 524688, Note_off_c, 0, 58, 64
2, 524692, Note_off_c, 0, 42, 64
2, 524703, Control_c, 0, 64, 0
2, 524744, Control_c, 0, 64, 127
2, 525089, Note_off_c, 0, 63, 64
2, 525096, Note_on_c, 0, 69, 37
2, 525107, Note_on_c, 0, 63, 52
2, 525127, Note_off_c, 0, 71, 64
2, 525128, Control_c, 0, 64, 0
2, 525138, Control_c, 0, 64, 127
2, 525465, Note_off_c, 0, 47, 64
2, 525484, Note_on_c, 0, 47, 41
2, 525487, Note_on_c, 0, 53, 29
2, 525494, Note_off_c, 0, 59, 64
2, 525506, Control_c, 0, 64, 0
2, 525536, Control_c, 0, 64, 127
2, 525975, Note_on_c, 0, 70, 38
2, 525979, Note_on_c, 0, 46, 32
2, 525989, Note_off_c, 0, 69, 64
2, 525991, Note_on_c, 0, 55, 28
2, 525994, Control_c, 0, 64, 0
2, 526002, Note_off_c, 0, 47, 64
2, 526005, Note_off_c, 0, 53, 64
2, 526051, Control_c, 0, 64, 127
2, 526082, Note_on_c, 0, 72, 47
2, 526101, Note_off_c, 0, 70, 64
2, 526136, Control_c, 0, 64, 0
2, 526159, Control_c, 0, 64, 127
2, 526175, Note_on_c, 0, 70, 60
2, 526188, Note_off_c, 0, 63, 64
2, 526192, Note_off_c, 0, 72, 64
2, 526269, Note_on_c, 0, 77, 42
2, 526286, Note_off_c, 0, 70, 64
2, 526325, Note_off_c, 0, 46, 64
2, 526326, Note_off_c, 0, 55, 64
2, 526352, Note_on_c, 0, 75, 49
2, 526362, Note_off_c, 0, 77, 64
2, 526430, Note_on_c, 0, 80, 51
2, 526437, Note_off_c, 0, 75, 64
2, 526522, Note_on_c, 0, 79, 48
2, 526532, Note_off_c, 0, 80, 64
2, 526603, Note_on_c, 0, 84, 56
2, 526639, Note_off_c, 0, 79, 64
2, 526681, Control_c, 0, 64, 0
2, 526692, Note_on_c, 0, 67, 46
2, 526693, Note_on_c, 0, 82, 67
2, 526695, Note_on_c, 0, 63, 46
2, 526695, Note_on_c, 0, 58, 46
2, 526711, Control_c, 0, 64, 127
2, 526722, Note_off_c, 0, 84, 64
2, 526772, Note_on_c, 0, 86, 54
2, 526781, Note_off_c, 0, 82, 64
2, 526868, Note_on_c, 0, 46, 47
2, 526875, Note_on_c, 0, 87, 59
2, 526879, Control_c, 0, 64, 0
2, 526897, Note_off_c, 0, 67, 64
2, 526900, Note_off_c, 0, 58, 64
2, 526900, Note_off_c, 0, 63, 64
2, 526913, Note_off_c, 0, 86, 64
2, 526922, Note_off_c, 0, 46, 64
2, 526930, Control_c, 0, 64, 127
2, 526958, Note_on_c, 0, 84, 62
2, 526973, Note_off_c, 0, 87, 64
2, 527036, Note_on_c, 0, 82, 72
2, 527055, Note_off_c, 0, 84, 64
2, 527124, Note_on_c, 0, 84, 59
2, 527146, Note_off_c, 0, 82, 64
2, 527208, Note_on_c, 0, 82, 71
2, 527212, Note_on_c, 0, 68, 47
2, 527215, Note_on_c, 0, 62, 47
2, 527216, Note_on_c, 0, 58, 47
2, 527231, Note_off_c, 0, 84, 64
2, 527282, Note_on_c, 0, 79, 62
2, 527287, Note_off_c, 0, 82, 64
2, 527366, Note_on_c, 0, 80, 52
2, 527375, Note_on_c, 0, 46, 31
2, 527380, Note_off_c, 0, 79, 64
2, 527384, Note_off_c, 0, 68, 64
2, 527387, Note_off_c, 0, 62, 64
2, 527388, Note_off_c, 0, 58, 64
2, 527429, Note_off_c, 0, 46, 64
2, 527451, Note_on_c, 0, 77, 50
2, 527459, Note_off_c, 0, 80, 64
2, 527533, Note_on_c, 0, 79, 58
2, 527533, Note_on_c, 0, 51, 50
2, 527546, Note_off_c, 0, 77, 64
2, 527600, Note_on_c, 0, 74, 52
2, 527612, Note_off_c, 0, 79, 64
2, 527640, Note_on_c, 0, 75, 55
2, 527654, Note_off_c, 0, 74, 64
2, 527671, Note_on_c, 0, 77, 42
2, 527686, Note_off_c, 0, 75, 64
2, 527698, Note_on_c, 0, 63, 40
2, 527701, Note_on_c, 0, 67, 32
2, 527704, Note_on_c, 0, 58, 41
2, 527710, Control_c, 0, 64, 0
2, 527711, Note_off_c, 0, 51, 64
2, 527716, Note_on_c, 0, 75, 43
2, 527724, Control_c, 0, 64, 127
2, 527736, Note_off_c, 0, 77, 64
2, 527791, Note_on_c, 0, 74, 50
2, 527798, Note_off_c, 0, 75, 64
2, 527848, Note_on_c, 0, 57, 31
2, 527848, Note_on_c, 0, 66, 36
2, 527850, Note_on_c, 0, 75, 52
2, 527864, Note_off_c, 0, 67, 64
2, 527866, Note_off_c, 0, 74, 64
2, 527866, Control_c, 0, 64, 0
2, 527867, Note_off_c, 0, 58, 64
2, 527906, Control_c, 0, 64, 127
2, 527935, Note_on_c, 0, 72, 45
2, 527948, Note_off_c, 0, 75, 64
2, 528003, Control_c, 0, 64, 0
2, 528006, Note_off_c, 0, 63, 64
2, 528010, Note_off_c, 0, 66, 64
2, 528010, Note_off_c, 0, 57, 64
2, 528016, Note_on_c, 0, 70, 64
2, 528033, Note_off_c, 0, 72, 64
2, 528047, Control_c, 0, 64, 127
2, 528093, Note_on_c, 0, 72, 51
2, 528108, Note_off_c, 0, 70, 64
2, 528172, Note_on_c, 0, 58, 40
2, 528176, Note_on_c, 0, 63, 38
2, 528180, Note_on_c, 0, 67, 41
2, 528182, Note_on_c, 0, 70, 63
2, 528186, Control_c, 0, 64, 0
2, 528200, Note_off_c, 0, 72, 64
2, 528200, Control_c, 0, 64, 127
2, 528259, Note_on_c, 0, 77, 50
2, 528273, Note_off_c, 0, 70, 64
2, 528326, Control_c, 0, 64, 0
2, 528342, Note_on_c, 0, 51, 37
2, 528348, Note_on_c, 0, 75, 56
2, 528351, Control_c, 0, 64, 127
2, 528370, Note_off_c, 0, 77, 64
2, 528376, Note_off_c, 0, 58, 64
2, 528380, Note_off_c, 0, 63, 64
2, 528384, Note_off_c, 0, 67, 64
2, 528396, Note_off_c, 0, 51, 64
2, 528426, Note_on_c, 0, 80, 52
2, 528434, Note_off_c, 0, 75, 64
2, 528509, Note_on_c, 0, 79, 63
2, 528524, Note_off_c, 0, 80, 64
2, 528583, Note_on_c, 0, 84, 56
2, 528599, Note_off_c, 0, 79, 64
2, 528652, Note_on_c, 0, 58, 46
2, 528660, Note_on_c, 0, 67, 44
2, 528660, Note_on_c, 0, 63, 43
2, 528667, Note_on_c, 0, 82, 71
2, 528668, Control_c, 0, 64, 0
2, 528679, Note_off_c, 0, 84, 64
2, 528690, Control_c, 0, 64, 127
2, 528731, Note_on_c, 0, 86, 60
2, 528747, Note_off_c, 0, 82, 64
2, 528806, Control_c, 0, 64, 0
2, 528820, Note_on_c, 0, 87, 59
2, 528827, Note_on_c, 0, 51, 53
2, 528834, Note_off_c, 0, 58, 64
2, 528840, Control_c, 0, 64, 127
2, 528842, Note_off_c, 0, 63, 64
2, 528842, Note_off_c, 0, 67, 64
2, 528855, Note_off_c, 0, 86, 64
2, 528881, Note_off_c, 0, 51, 64
2, 528894, Note_on_c, 0, 84, 62
2, 528908, Note_off_c, 0, 87, 64
2, 528973, Note_on_c, 0, 82, 62
2, 529001, Note_off_c, 0, 84, 64
2, 529060, Note_on_c, 0, 84, 59
2, 529081, Note_off_c, 0, 82, 64
2, 529128, Note_on_c, 0, 58, 46
2, 529129, Note_on_c, 0, 82, 62
2, 529132, Note_on_c, 0, 68, 46
2, 529132, Note_on_c, 0, 62, 46
2, 529143, Note_off_c, 0, 84, 64
2, 529202, Note_on_c, 0, 79, 55
2, 529219, Note_off_c, 0, 82, 64
2, 529275, Note_on_c, 0, 80, 58
2, 529288, Note_off_c, 0, 79, 64
2, 529290, Note_on_c, 0, 51, 43
2, 529306, Note_off_c, 0, 58, 64
2, 529310, Note_off_c, 0, 62, 64
2, 529310, Note_off_c, 0, 68, 64
2, 529344, Note_off_c, 0, 51, 64
2, 529359, Note_on_c, 0, 77, 46
2, 529372, Note_off_c, 0, 80, 64
2, 529448, Note_on_c, 0, 79, 49
2, 529465, Note_off_c, 0, 77, 64
2, 529513, Note_on_c, 0, 74, 51
2, 529544, Note_off_c, 0, 79, 64
2, 529585, Note_on_c, 0, 67, 28
2, 529585, Note_on_c, 0, 61, 43
2, 529588, Note_on_c, 0, 58, 43
2, 529590, Note_on_c, 0, 75, 53
2, 529602, Note_off_c, 0, 74, 64
2, 529657, Note_on_c, 0, 72, 58
2, 529671, Note_off_c, 0, 75, 64
2, 529728, Note_on_c, 0, 51, 45
2, 529740, Note_off_c, 0, 61, 64
2, 529740, Note_off_c, 0, 67, 64
2, 529740, Note_on_c, 0, 73, 51
2, 529743, Note_off_c, 0, 58, 64
2, 529754, Note_off_c, 0, 72, 64
2, 529782, Note_off_c, 0, 51, 64
2, 529815, Note_on_c, 0, 65, 59
2, 529834, Note_off_c, 0, 73, 64
2, 529877, Control_c, 0, 64, 0
2, 529891, Note_on_c, 0, 63, 58
2, 529899, Control_c, 0, 64, 127
2, 529903, Note_off_c, 0, 65, 64
2, 529968, Note_on_c, 0, 65, 49
2, 529983, Note_off_c, 0, 63, 64
2, 530014, Control_c, 0, 64, 0
2, 530039, Note_on_c, 0, 63, 53
2, 530040, Note_on_c, 0, 60, 40
2, 530040, Note_on_c, 0, 51, 34
2, 530052, Note_off_c, 0, 65, 64
2, 530081, Control_c, 0, 64, 127
2, 530112, Note_on_c, 0, 70, 54
2, 530131, Note_off_c, 0, 63, 64
2, 530181, Control_c, 0, 64, 0
2, 530193, Note_on_c, 0, 68, 52
2, 530202, Note_on_c, 0, 44, 50
2, 530206, Control_c, 0, 64, 127
2, 530209, Note_off_c, 0, 70, 64
2, 530218, Note_off_c, 0, 51, 64
2, 530218, Note_off_c, 0, 60, 64
2, 530256, Note_off_c, 0, 44, 64
2, 530256, Note_on_c, 0, 73, 50
2, 530270, Note_off_c, 0, 68, 64
2, 530339, Note_on_c, 0, 72, 68
2, 530346, Note_off_c, 0, 73, 64
2, 530406, Note_on_c, 0, 77, 58
2, 530430, Note_off_c, 0, 72, 64
2, 530459, Control_c, 0, 64, 0
2, 530481, Note_on_c, 0, 75, 62
2, 530484, Note_on_c, 0, 60, 46
2, 530484, Note_on_c, 0, 51, 40
2, 530497, Control_c, 0, 64, 127
2, 530505, Note_off_c, 0, 77, 64
2, 530548, Note_on_c, 0, 79, 59
2, 530573, Note_off_c, 0, 75, 64
2, 530609, Control_c, 0, 64, 0
2, 530628, Note_on_c, 0, 80, 71
2, 530630, Note_on_c, 0, 44, 56
2, 530639, Note_off_c, 0, 51, 64
2, 530639, Note_off_c, 0, 60, 64
2, 530641, Control_c, 0, 64, 127
2, 530653, Note_off_c, 0, 79, 64
2, 530684, Note_off_c, 0, 44, 64
2, 530707, Note_on_c, 0, 77, 60
2, 530720, Note_off_c, 0, 80, 64
2, 530767, Note_on_c, 0, 75, 63
2, 530784, Note_off_c, 0, 77, 64
2, 530845, Note_on_c, 0, 77, 62
2, 530870, Note_off_c, 0, 75, 64
2, 530892, Note_on_c, 0, 55, 38
2, 530896, Note_on_c, 0, 51, 31
2, 530898, Note_on_c, 0, 61, 46
2, 530900, Note_on_c, 0, 75, 62
2, 530900, Control_c, 0, 64, 0
2, 530919, Note_off_c, 0, 77, 64
2, 530920, Control_c, 0, 64, 127
2, 530969, Note_on_c, 0, 72, 57
2, 530986, Note_off_c, 0, 75, 64
2, 531047, Note_off_c, 0, 55, 64
2, 531048, Note_on_c, 0, 73, 74
2, 531051, Note_off_c, 0, 51, 64
2, 531051, Note_on_c, 0, 44, 53
2, 531053, Note_off_c, 0, 61, 64
2, 531063, Note_off_c, 0, 72, 64
2, 531108, Note_off_c, 0, 44, 64
2, 531115, Note_on_c, 0, 70, 69
2, 531119, Note_off_c, 0, 73, 64
2, 531192, Note_on_c, 0, 72, 64
2, 531212, Note_off_c, 0, 70, 64
2, 531246, Note_on_c, 0, 67, 57
2, 531261, Note_off_c, 0, 72, 64
2, 531284, Note_on_c, 0, 68, 70
2, 531297, Note_off_c, 0, 67, 64
2, 531313, Note_on_c, 0, 70, 70
2, 531320, Note_off_c, 0, 68, 64
2, 531322, Note_on_c, 0, 56, 44
2, 531324, Note_on_c, 0, 60, 44
2, 531324, Note_on_c, 0, 51, 46
2, 531332, Control_c, 0, 64, 0
2, 531347, Note_on_c, 0, 68, 65
2, 531355, Control_c, 0, 64, 127
2, 531366, Note_off_c, 0, 70, 64
2, 531411, Note_on_c, 0, 67, 65
2, 531421, Note_off_c, 0, 68, 64
2, 531456, Control_c, 0, 64, 0
2, 531466, Note_on_c, 0, 68, 68
2, 531468, Note_on_c, 0, 59, 44
2, 531474, Note_on_c, 0, 50, 41
2, 531480, Note_off_c, 0, 67, 64
2, 531482, Note_off_c, 0, 51, 64
2, 531482, Note_off_c, 0, 60, 64
2, 531502, Control_c, 0, 64, 127
2, 531540, Note_on_c, 0, 65, 50
2, 531559, Note_off_c, 0, 68, 64
2, 531600, Control_c, 0, 64, 0
2, 531608, Note_off_c, 0, 59, 64
2, 531608, Note_on_c, 0, 63, 49
2, 531609, Note_off_c, 0, 56, 64
2, 531614, Note_off_c, 0, 50, 64
2, 531629, Note_off_c, 0, 65, 64
2, 531641, Control_c, 0, 64, 127
2, 531669, Note_on_c, 0, 65, 53
2, 531680, Note_off_c, 0, 63, 64
2, 531738, Control_c, 0, 64, 0
2, 531752, Note_on_c, 0, 51, 43
2, 531752, Note_on_c, 0, 56, 36
2, 531752, Note_on_c, 0, 60, 40
2, 531752, Note_on_c, 0, 63, 57
2, 531764, Note_off_c, 0, 65, 64
2, 531776, Control_c, 0, 64, 127
2, 531820, Note_on_c, 0, 70, 55
2, 531837, Note_off_c, 0, 63, 64
2, 531886, Control_c, 0, 64, 0
2, 531892, Note_on_c, 0, 44, 52
2, 531895, Note_on_c, 0, 68, 70
2, 531900, Control_c, 0, 64, 127
2, 531906, Note_off_c, 0, 70, 64
2, 531907, Note_off_c, 0, 60, 64
2, 531907, Note_off_c, 0, 56, 64
2, 531907, Note_off_c, 0, 51, 64
2, 531946, Note_off_c, 0, 44, 64
2, 531955, Note_on_c, 0, 73, 52
2, 531970, Note_off_c, 0, 68, 64
2, 532030, Note_on_c, 0, 72, 70
2, 532049, Note_off_c, 0, 73, 64
2, 532092, Note_on_c, 0, 77, 52
2, 532119, Note_off_c, 0, 72, 64
2, 532140, Control_c, 0, 64, 0
2, 532161, Note_on_c, 0, 51, 44
2, 532161, Note_on_c, 0, 75, 59
2, 532165, Note_on_c, 0, 60, 44
2, 532176, Control_c, 0, 64, 127
2, 532186, Note_off_c, 0, 77, 64
2, 532235, Note_on_c, 0, 79, 67
2, 532242, Note_off_c, 0, 75, 64
2, 532286, Control_c, 0, 64, 0
2, 532300, Note_on_c, 0, 80, 70
2, 532310, Control_c, 0, 64, 127
2, 532314, Note_on_c, 0, 44, 55
2, 532327, Note_off_c, 0, 79, 64
2, 532339, Note_off_c, 0, 51, 64
2, 532343, Note_off_c, 0, 60, 64
2, 532375, Note_on_c, 0, 77, 56
2, 532387, Note_off_c, 0, 44, 64
2, 532392, Note_off_c, 0, 80, 64
2, 532439, Note_on_c, 0, 75, 61
2, 532455, Note_off_c, 0, 77, 64
2, 532514, Note_on_c, 0, 77, 58
2, 532532, Note_off_c, 0, 75, 64
2, 532553, Control_c, 0, 64, 0
2, 532568, Note_on_c, 0, 55, 47
2, 532568, Note_on_c, 0, 51, 33
2, 532569, Note_on_c, 0, 75, 47
2, 532575, Note_on_c, 0, 61, 58
2, 532592, Control_c, 0, 64, 127
2, 532598, Note_off_c, 0, 77, 64
2, 532644, Note_on_c, 0, 72, 60
2, 532649, Note_off_c, 0, 75, 64
2, 532690, Control_c, 0, 64, 0
2, 532703, Control_c, 0, 64, 127
2, 532717, Note_on_c, 0, 73, 63
2, 532718, Note_on_c, 0, 44, 59
2, 532726, Note_off_c, 0, 51, 64
2, 532726, Note_off_c, 0, 55, 64
2, 532727, Note_off_c, 0, 72, 64
2, 532733, Note_off_c, 0, 61, 64
2, 532778, Note_on_c, 0, 70, 69
2, 532789, Note_off_c, 0, 73, 64
2, 532849, Note_on_c, 0, 72, 68
2, 532866, Note_off_c, 0, 70, 64
2, 532920, Note_on_c, 0, 67, 54
2, 532941, Note_off_c, 0, 72, 64
2, 532968, Note_on_c, 0, 70, 66
2, 532991, Note_off_c, 0, 67, 64
2, 532992, Note_on_c, 0, 63, 49
2, 532992, Note_on_c, 0, 60, 49
2, 532992, Note_on_c, 0, 51, 47
2, 532995, Note_on_c, 0, 68, 62
2, 533004, Note_off_c, 0, 44, 64
2, 533008, Note_off_c, 0, 70, 64
2, 533072, Note_on_c, 0, 67, 58
2, 533088, Note_off_c, 0, 68, 64
2, 533136, Note_on_c, 0, 46, 51
2, 533136, Note_on_c, 0, 56, 54
2, 533136, Note_on_c, 0, 62, 49
2, 533138, Note_on_c, 0, 65, 65
2, 533144, Note_off_c, 0, 51, 64
2, 533144, Note_off_c, 0, 60, 64
2, 533144, Note_off_c, 0, 63, 64
2, 533161, Note_off_c, 0, 67, 64
2, 533202, Note_on_c, 0, 72, 55
2, 533225, Note_off_c, 0, 65, 64
2, 533269, Note_off_c, 0, 62, 64
2, 533269, Note_off_c, 0, 56, 64
2, 533269, Note_off_c, 0, 46, 64
2, 533277, Note_on_c, 0, 70, 69
2, 533287, Note_off_c, 0, 72, 64
2, 533355, Note_on_c, 0, 72, 50
2, 533369, Note_off_c, 0, 70, 64
2, 533397, Control_c, 0, 64, 0
2, 533423, Note_on_c, 0, 70, 60
2, 533423, Note_on_c, 0, 58, 40
2, 533425, Note_on_c, 0, 67, 40
2, 533436, Note_off_c, 0, 72, 64
2, 533437, Control_c, 0, 64, 127
2, 533489, Note_on_c, 0, 77, 51
2, 533502, Note_off_c, 0, 70, 64
2, 533535, Control_c, 0, 64, 0
2, 533567, Note_on_c, 0, 75, 55
2, 533569, Note_on_c, 0, 51, 52
2, 533573, Control_c, 0, 64, 127
2, 533574, Note_off_c, 0, 77, 64
2, 533601, Note_off_c, 0, 58, 64
2, 533603, Note_off_c, 0, 67, 64
2, 533623, Note_off_c, 0, 51, 64
2, 533632, Note_on_c, 0, 80, 59
2, 533649, Note_off_c, 0, 75, 64
2, 533704, Note_on_c, 0, 79, 67
2, 533720, Note_off_c, 0, 80, 64
2, 533776, Note_on_c, 0, 84, 62
2, 533791, Note_off_c, 0, 79, 64
2, 533810, Control_c, 0, 64, 0
2, 533828, Note_on_c, 0, 58, 46
2, 533832, Note_on_c, 0, 82, 70
2, 533832, Note_on_c, 0, 67, 47
2, 533849, Control_c, 0, 64, 127
2, 533877, Note_off_c, 0, 84, 64
2, 533896, Note_on_c, 0, 86, 59
2, 533911, Note_off_c, 0, 82, 64
2, 533950, Control_c, 0, 64, 0
2, 533959, Note_on_c, 0, 87, 70
2, 533970, Note_on_c, 0, 51, 52
2, 533983, Note_off_c, 0, 58, 64
2, 533987, Note_off_c, 0, 67, 64
2, 533988, Note_off_c, 0, 86, 64
2, 533993, Control_c, 0, 64, 127
2, 534024, Note_off_c, 0, 51, 64
2, 534027, Note_on_c, 0, 84, 62
2, 534045, Note_off_c, 0, 87, 64
2, 534091, Note_on_c, 0, 82, 79
2, 534104, Note_off_c, 0, 84, 64
2, 534165, Note_on_c, 0, 84, 62
2, 534173, Note_off_c, 0, 82, 64
2, 534232, Note_on_c, 0, 68, 53
2, 534232, Note_on_c, 0, 62, 45
2, 534236, Note_on_c, 0, 58, 41
2, 534239, Note_on_c, 0, 82, 72
2, 534268, Note_off_c, 0, 84, 64
2, 534300, Note_on_c, 0, 79, 70
2, 534312, Note_off_c, 0, 82, 64
2, 534359, Note_on_c, 0, 80, 70
2, 534361, Note_on_c, 0, 51, 47
2, 534371, Note_off_c, 0, 79, 64
2, 534387, Note_off_c, 0, 62, 64
2, 534387, Note_off_c, 0, 68, 64
2, 534391, Note_off_c, 0, 58, 64
2, 534415, Note_off_c, 0, 51, 64
2, 534435, Note_on_c, 0, 77, 63
2, 534451, Note_off_c, 0, 80, 64
2, 534505, Note_on_c, 0, 79, 51
2, 534520, Note_off_c, 0, 77, 64
2, 534553, Note_on_c, 0, 74, 53
2, 534574, Note_off_c, 0, 79, 64
2, 534586, Note_on_c, 0, 75, 52
2, 534595, Note_off_c, 0, 74, 64
2, 534612, Note_on_c, 0, 77, 46
2, 534625, Note_off_c, 0, 75, 64
2, 534631, Control_c, 0, 64, 0
2, 534652, Note_on_c, 0, 58, 41
2, 534652, Note_on_c, 0, 63, 45
2, 534652, Note_on_c, 0, 67, 36
2, 534654, Note_on_c, 0, 75, 58
2, 534657, Control_c, 0, 64, 127
2, 534670, Note_off_c, 0, 77, 64
2, 534712, Note_on_c, 0, 74, 56
2, 534728, Note_off_c, 0, 75, 64
2, 534772, Control_c, 0, 64, 0
2, 534792, Note_on_c, 0, 75, 57
2, 534794, Control_c, 0, 64, 127
2, 534796, Note_on_c, 0, 66, 44
2, 534796, Note_on_c, 0, 57, 36
2, 534803, Note_off_c, 0, 67, 64
2, 534803, Note_off_c, 0, 58, 64
2, 534805, Note_off_c, 0, 74, 64
2, 534868, Note_on_c, 0, 72, 49
2, 534885, Note_off_c, 0, 75, 64
2, 534940, Note_on_c, 0, 70, 69
2, 534953, Control_c, 0, 64, 0
2, 534963, Note_off_c, 0, 63, 64
2, 534966, Note_off_c, 0, 72, 64
2, 534969, Note_off_c, 0, 57, 64
2, 534969, Note_off_c, 0, 66, 64
2, 534986, Control_c, 0, 64, 127
2, 535024, Note_on_c, 0, 72, 50
2, 535038, Note_off_c, 0, 70, 64
2, 535082, Control_c, 0, 64, 0
2, 535100, Note_on_c, 0, 58, 44
2, 535100, Note_on_c, 0, 70, 71
2, 535104, Note_on_c, 0, 67, 44
2, 535111, Control_c, 0, 64, 127
2, 535128, Note_off_c, 0, 72, 64
2, 535168, Note_off_c, 0, 70, 64
2, 535176, Note_on_c, 0, 77, 51
2, 535248, Note_off_c, 0, 67, 64
2, 535248, Note_off_c, 0, 58, 64
2, 535252, Note_on_c, 0, 75, 58
2, 535252, Note_on_c, 0, 51, 44
2, 535258, Note_off_c, 0, 77, 64
2, 535303, Note_off_c, 0, 51, 64
2, 535320, Note_on_c, 0, 80, 50
2, 535324, Note_off_c, 0, 75, 64
2, 535386, Note_on_c, 0, 79, 65
2, 535408, Note_off_c, 0, 80, 64
2, 535460, Note_on_c, 0, 84, 68
2, 535477, Note_off_c, 0, 79, 64
2, 535501, Control_c, 0, 64, 0
2, 535520, Note_on_c, 0, 58, 39
2, 535520, Note_on_c, 0, 67, 46
2, 535520, Note_on_c, 0, 82, 78
2, 535530, Control_c, 0, 64, 127
2, 535547, Note_off_c, 0, 84, 64
2, 535584, Note_on_c, 0, 86, 66
2, 535602, Note_off_c, 0, 82, 64
2, 535622, Control_c, 0, 64, 0
2, 535651, Note_on_c, 0, 87, 75
2, 535658, Note_on_c, 0, 51, 53
2, 535665, Control_c, 0, 64, 127
2, 535682, Note_off_c, 0, 86, 64
2, 535698, Note_off_c, 0, 67, 64
2, 535698, Note_off_c, 0, 58, 64
2, 535712, Note_off_c, 0, 51, 64
2, 535713, Note_on_c, 0, 84, 60
2, 535725, Note_off_c, 0, 87, 64
2, 535783, Note_on_c, 0, 82, 56
2, 535796, Note_off_c, 0, 84, 64
2, 535854, Note_on_c, 0, 84, 73
2, 535868, Note_off_c, 0, 82, 64
2, 535894, Control_c, 0, 64, 0
2, 535906, Note_on_c, 0, 68, 57
2, 535909, Note_on_c, 0, 62, 48
2, 535910, Note_on_c, 0, 82, 68
2, 535910, Note_on_c, 0, 58, 32
2, 535923, Control_c, 0, 64, 127
2, 535942, Note_off_c, 0, 84, 64
2, 535984, Note_on_c, 0, 79, 66
2, 535995, Note_off_c, 0, 82, 64
2, 536046, Note_on_c, 0, 51, 47
2, 536046, Note_on_c, 0, 80, 66
2, 536061, Note_off_c, 0, 79, 64
2, 536061, Note_off_c, 0, 68, 64
2, 536064, Note_off_c, 0, 62, 64
2, 536065, Note_off_c, 0, 58, 64
2, 536100, Note_off_c, 0, 51, 64
2, 536115, Note_on_c, 0, 77, 54
2, 536120, Note_off_c, 0, 80, 64
2, 536172, Note_on_c, 0, 79, 67
2, 536180, Note_off_c, 0, 77, 64
2, 536246, Note_on_c, 0, 74, 62
2, 536261, Note_off_c, 0, 79, 64
2, 536306, Note_on_c, 0, 67, 56
2, 536306, Note_on_c, 0, 61, 55
2, 536306, Note_on_c, 0, 58, 57
2, 536308, Note_on_c, 0, 75, 62
2, 536320, Note_off_c, 0, 74, 64
2, 536368, Note_on_c, 0, 72, 51
2, 536375, Note_off_c, 0, 75, 64
2, 536424, Note_on_c, 0, 73, 58
2, 536430, Note_on_c, 0, 51, 51
2, 536443, Note_off_c, 0, 72, 64
2, 536446, Note_off_c, 0, 58, 64
2, 536446, Note_off_c, 0, 61, 64
2, 536446, Note_off_c, 0, 67, 64
2, 536483, Note_on_c, 0, 65, 59
2, 536484, Note_off_c, 0, 51, 64
2, 536506, Note_off_c, 0, 73, 64
2, 536551, Control_c, 0, 64, 0
2, 536555, Note_on_c, 0, 63, 62
2, 536566, Control_c, 0, 64, 127
2, 536576, Note_off_c, 0, 65, 64
2, 536613, Note_on_c, 0, 65, 55
2, 536622, Note_off_c, 0, 63, 64
2, 536652, Control_c, 0, 64, 0
2, 536690, Note_on_c, 0, 56, 44
2, 536690, Note_on_c, 0, 51, 42
2, 536691, Note_on_c, 0, 60, 49
2, 536695, Note_on_c, 0, 63, 67
2, 536708, Control_c, 0, 64, 127
2, 536715, Note_off_c, 0, 65, 64
2, 536750, Note_on_c, 0, 70, 56
2, 536774, Note_off_c, 0, 63, 64
2, 536809, Control_c, 0, 64, 0
2, 536823, Note_on_c, 0, 68, 73
2, 536823, Note_on_c, 0, 44, 52
2, 536834, Control_c, 0, 64, 127
2, 536835, Note_off_c, 0, 70, 64
2, 536845, Note_off_c, 0, 51, 64
2, 536845, Note_off_c, 0, 56, 64
2, 536846, Note_off_c, 0, 60, 64
2, 536877, Note_off_c, 0, 44, 64
2, 536882, Note_on_c, 0, 73, 42
2, 536895, Note_off_c, 0, 68, 64
2, 536951, Note_on_c, 0, 72, 73
2, 536967, Note_off_c, 0, 73, 64
2, 537007, Note_on_c, 0, 77, 48
2, 537038, Note_off_c, 0, 72, 64
2, 537044, Control_c, 0, 64, 0
2, 537074, Note_on_c, 0, 75, 73
2, 537075, Note_on_c, 0, 60, 45
2, 537082, Note_on_c, 0, 51, 45
2, 537091, Control_c, 0, 64, 127
2, 537097, Note_off_c, 0, 77, 64
2, 537140, Note_on_c, 0, 79, 61
2, 537154, Note_off_c, 0, 75, 64
2, 537190, Control_c, 0, 64, 0
2, 537210, Note_on_c, 0, 80, 70
2, 537212, Note_on_c, 0, 44, 47
2, 537220, Note_off_c, 0, 60, 64
2, 537225, Control_c, 0, 64, 127
2, 537227, Note_off_c, 0, 51, 64
2, 537231, Note_off_c, 0, 79, 64
2, 537266, Note_off_c, 0, 44, 64
2, 537277, Note_on_c, 0, 77, 61
2, 537299, Note_off_c, 0, 80, 64
2, 537333, Note_on_c, 0, 75, 63
2, 537352, Note_off_c, 0, 77, 64
2, 537400, Note_on_c, 0, 77, 57
2, 537418, Note_off_c, 0, 75, 64
2, 537445, Control_c, 0, 64, 0
2, 537450, Note_on_c, 0, 55, 42
2, 537450, Note_on_c, 0, 61, 53
2, 537454, Note_on_c, 0, 51, 47
2, 537454, Note_on_c, 0, 75, 62
2, 537473, Note_off_c, 0, 77, 64
2, 537475, Control_c, 0, 64, 127
2, 537523, Note_on_c, 0, 72, 71
2, 537537, Note_off_c, 0, 75, 64
2, 537588, Note_on_c, 0, 73, 70
2, 537596, Note_on_c, 0, 44, 37
2, 537597, Note_off_c, 0, 72, 64
2, 537605, Note_off_c, 0, 61, 64
2, 537605, Note_off_c, 0, 55, 64
2, 537609, Note_off_c, 0, 51, 64
2, 537645, Note_off_c, 0, 44, 64
2, 537652, Note_on_c, 0, 70, 61
2, 537659, Note_off_c, 0, 73, 64
2, 537718, Note_on_c, 0, 72, 71
2, 537754, Note_off_c, 0, 70, 64
2, 537769, Note_on_c, 0, 67, 61
2, 537784, Note_off_c, 0, 72, 64
2, 537813, Note_on_c, 0, 70, 72
2, 537834, Note_off_c, 0, 67, 64
2, 537842, Note_on_c, 0, 60, 44
2, 537843, Note_on_c, 0, 56, 45
2, 537843, Note_on_c, 0, 68, 72
2, 537847, Note_on_c, 0, 51, 42
2, 537853, Control_c, 0, 64, 0
2, 537863, Control_c, 0, 64, 127
2, 537867, Note_off_c, 0, 70, 64
2, 537905, Note_on_c, 0, 67, 63
2, 537914, Note_off_c, 0, 68, 64
2, 537967, Control_c, 0, 64, 0
2, 537968, Note_on_c, 0, 50, 44
2, 537968, Note_on_c, 0, 59, 51
2, 537968, Note_on_c, 0, 68, 69
2, 537969, Note_off_c, 0, 60, 64
2, 537974, Note_off_c, 0, 51, 64
2, 537976, Note_off_c, 0, 67, 64
2, 538002, Control_c, 0, 64, 127
2, 538028, Note_on_c, 0, 65, 59
2, 538036, Note_off_c, 0, 68, 64
2, 538093, Note_off_c, 0, 56, 64
2, 538093, Note_on_c, 0, 63, 80
2, 538093, Control_c, 0, 64, 0
2, 538101, Note_off_c, 0, 59, 64
2, 538101, Note_off_c, 0, 50, 64
2, 538117, Note_off_c, 0, 65, 64
2, 538122, Control_c, 0, 64, 127
2, 538148, Note_off_c, 0, 63, 64
2, 538152, Note_on_c, 0, 65, 70
2, 538212, Note_on_c, 0, 56, 49
2, 538214, Note_on_c, 0, 60, 52
2, 538215, Note_on_c, 0, 63, 78
2, 538218, Note_on_c, 0, 51, 51
2, 538226, Control_c, 0, 64, 0
2, 538237, Note_off_c, 0, 65, 64
2, 538240, Control_c, 0, 64, 127
2, 538275, Note_on_c, 0, 70, 63
2, 538303, Note_off_c, 0, 63, 64
2, 538342, Control_c, 0, 64, 0
2, 538344, Note_on_c, 0, 44, 58
2, 538346, Note_on_c, 0, 68, 77
2, 538357, Control_c, 0, 64, 127
2, 538367, Note_off_c, 0, 56, 64
2, 538368, Note_off_c, 0, 70, 64
2, 538369, Note_off_c, 0, 60, 64
2, 538373, Note_off_c, 0, 51, 64
2, 538398, Note_off_c, 0, 44, 64
2, 538402, Note_on_c, 0, 73, 64
2, 538421, Note_off_c, 0, 68, 64
2, 538478, Note_on_c, 0, 72, 80
2, 538492, Note_off_c, 0, 73, 64
2, 538536, Note_on_c, 0, 77, 58
2, 538560, Note_off_c, 0, 72, 64
2, 538578, Control_c, 0, 64, 0
2, 538586, Note_on_c, 0, 56, 46
2, 538586, Note_on_c, 0, 51, 44
2, 538588, Note_on_c, 0, 60, 39
2, 538589, Note_on_c, 0, 75, 67
2, 538606, Control_c, 0, 64, 127
2, 538612, Note_off_c, 0, 77, 64
2, 538661, Note_on_c, 0, 79, 63
2, 538676, Note_off_c, 0, 75, 64
2, 538714, Control_c, 0, 64, 0
2, 538721, Note_on_c, 0, 80, 65
2, 538729, Note_on_c, 0, 44, 47
2, 538737, Note_off_c, 0, 79, 64
2, 538744, Note_off_c, 0, 51, 64
2, 538744, Note_off_c, 0, 56, 64
2, 538746, Note_off_c, 0, 60, 64
2, 538760, Control_c, 0, 64, 127
2, 538783, Note_off_c, 0, 44, 64
2, 538791, Note_on_c, 0, 77, 58
2, 538814, Note_off_c, 0, 80, 64
2, 538857, Note_on_c, 0, 75, 73
2, 538866, Note_off_c, 0, 77, 64
2, 538910, Note_on_c, 0, 72, 64
2, 538931, Note_off_c, 0, 75, 64
2, 538963, Note_on_c, 0, 73, 74
2, 538982, Note_off_c, 0, 72, 64
2, 539026, Note_on_c, 0, 77, 71
2, 539060, Note_off_c, 0, 73, 64
2, 539090, Note_on_c, 0, 75, 65
2, 539101, Note_off_c, 0, 77, 64
2, 539129, Control_c, 0, 64, 0
2, 539158, Note_on_c, 0, 72, 62
2, 539170, Control_c, 0, 64, 127
2, 539174, Note_off_c, 0, 75, 64
2, 539226, Note_on_c, 0, 68, 77
2, 539231, Note_off_c, 0, 72, 64
2, 539288, Note_on_c, 0, 70, 64
2, 539302, Note_off_c, 0, 68, 64
2, 539346, Note_on_c, 0, 73, 73
2, 539361, Note_off_c, 0, 70, 64
2, 539412, Note_on_c, 0, 72, 71
2, 539431, Note_off_c, 0, 73, 64
2, 539471, Note_on_c, 0, 68, 55
2, 539485, Note_off_c, 0, 72, 64
2, 539502, Control_c, 0, 64, 0
2, 539516, Control_c, 0, 64, 127
2, 539531, Note_on_c, 0, 63, 77
2, 539546, Note_off_c, 0, 68, 64
2, 539600, Note_on_c, 0, 64, 73
2, 539616, Note_off_c, 0, 63, 64
2, 539634, Control_c, 0, 64, 0
2, 539662, Control_c, 0, 64, 127
2, 539677, Note_on_c, 0, 68, 63
2, 539694, Note_off_c, 0, 64, 64
2, 539733, Note_on_c, 0, 63, 58
2, 539750, Note_off_c, 0, 68, 64
2, 539816, Note_on_c, 0, 60, 55
2, 539830, Note_off_c, 0, 63, 64
2, 539889, Note_on_c, 0, 64, 55
2, 539945, Note_off_c, 0, 60, 64
2, 539953, Note_on_c, 0, 68, 62
2, 539968, Note_off_c, 0, 64, 64
2, 540036, Note_on_c, 0, 63, 57
2, 540061, Note_off_c, 0, 68, 64
2, 540122, Note_on_c, 0, 60, 55
2, 540141, Note_off_c, 0, 63, 64
2, 540199, Note_on_c, 0, 64, 55
2, 540247, Note_off_c, 0, 60, 64
2, 540279, Note_on_c, 0, 68, 59
2, 540299, Note_off_c, 0, 64, 64
2, 540354, Note_on_c, 0, 63, 51
2, 540398, Note_off_c, 0, 68, 64
2, 540460, Note_on_c, 0, 60, 41
2, 540474, Note_off_c, 0, 63, 64
2, 540548, Note_on_c, 0, 64, 52
2, 540581, Note_off_c, 0, 60, 64
2, 540664, Note_on_c, 0, 68, 55
2, 540683, Note_off_c, 0, 64, 64
2, 540754, Note_on_c, 0, 63, 41
2, 540777, Note_off_c, 0, 68, 64
2, 540862, Note_on_c, 0, 59, 54
2, 540877, Note_off_c, 0, 63, 64
2, 540997, Note_on_c, 0, 64, 46
2, 541018, Note_off_c, 0, 59, 64
2, 541130, Note_on_c, 0, 68, 58
2, 541143, Note_off_c, 0, 64, 64
2, 541240, Note_on_c, 0, 63, 36
2, 541251, Note_off_c, 0, 68, 64
2, 541386, Note_on_c, 0, 59, 50
2, 541420, Note_off_c, 0, 63, 64
2, 541541, Note_on_c, 0, 64, 33
2, 541565, Note_off_c, 0, 59, 64
2, 541662, Note_on_c, 0, 68, 50
2, 541690, Note_off_c, 0, 64, 64
2, 541843, Note_on_c, 0, 63, 29
2, 542027, Note_on_c, 0, 59, 39
2, 542045, Note_off_c, 0, 63, 64
2, 542174, Note_off_c, 0, 68, 64
2, 542208, Note_on_c, 0, 64, 43
2, 542225, Note_off_c, 0, 59, 64
2, 542250, Control_c, 0, 64, 0
2, 542254, Note_on_c, 0, 68, 47
2, 542299, Control_c, 0, 64, 127
2, 542331, Note_on_c, 0, 61, 54
2, 542456, Note_on_c, 0, 56, 52
2, 542466, Note_off_c, 0, 61, 64
2, 542654, Note_on_c, 0, 66, 57
2, 542664, Note_on_c, 0, 58, 52
2, 542667, Note_off_c, 0, 68, 64
2, 542670, Control_c, 0, 64, 0
2, 542684, Note_off_c, 0, 56, 64
2, 542684, Control_c, 0, 64, 127
2, 542799, Note_on_c, 0, 59, 55
2, 542810, Note_off_c, 0, 58, 64
2, 542824, Note_on_c, 0, 61, 56
2, 542828, Note_off_c, 0, 66, 64
2, 542843, Note_off_c, 0, 59, 64
2, 542864, Note_on_c, 0, 59, 55
2, 542866, Note_on_c, 0, 63, 48
2, 542866, Note_on_c, 0, 66, 48
2, 542873, Note_off_c, 0, 64, 64
2, 542877, Control_c, 0, 64, 0
2, 542880, Note_off_c, 0, 61, 64
2, 542917, Control_c, 0, 64, 127
2, 542986, Note_on_c, 0, 58, 58
2, 542992, Note_off_c, 0, 59, 64
2, 543004, Note_off_c, 0, 66, 64
2, 543022, Note_on_c, 0, 66, 54
2, 543053, Note_off_c, 0, 66, 64
2, 543070, Control_c, 0, 64, 0
2, 543084, Note_on_c, 0, 59, 58
2, 543086, Note_on_c, 0, 66, 47
2, 543101, Note_off_c, 0, 58, 64
2, 543106, Control_c, 0, 64, 127
2, 543267, Note_off_c, 0, 66, 64
2, 543284, Note_on_c, 0, 61, 60
2, 543284, Note_on_c, 0, 66, 36
2, 543293, Control_c, 0, 64, 0
2, 543311, Note_off_c, 0, 59, 64
2, 543341, Control_c, 0, 64, 127
2, 543500, Note_off_c, 0, 66, 64
2, 543504, Note_on_c, 0, 62, 57
2, 543511, Note_on_c, 0, 66, 48
2, 543524, Note_off_c, 0, 63, 64
2, 543524, Note_off_c, 0, 61, 64
2, 543531, Control_c, 0, 64, 0
2, 543568, Control_c, 0, 64, 127
2, 543613, Note_on_c, 0, 59, 55
2, 543653, Note_off_c, 0, 66, 64
2, 543667, Note_on_c, 0, 66, 69
2, 543714, Note_off_c, 0, 66, 64
2, 543722, Control_c, 0, 64, 0
2, 543729, Note_on_c, 0, 54, 56
2, 543730, Note_on_c, 0, 66, 65
2, 543751, Note_off_c, 0, 59, 64
2, 543757, Control_c, 0, 64, 127
2, 543945, Note_on_c, 0, 56, 58
2, 543948, Note_on_c, 0, 64, 56
2, 543961, Note_off_c, 0, 66, 64
2, 543962, Control_c, 0, 64, 0
2, 543972, Note_off_c, 0, 54, 64
2, 543993, Control_c, 0, 64, 127
2, 544084, Note_on_c, 0, 57, 51
2, 544097, Note_off_c, 0, 56, 64
2, 544113, Note_on_c, 0, 59, 57
2, 544128, Note_off_c, 0, 57, 64
2, 544142, Note_off_c, 0, 64, 64
2, 544154, Note_on_c, 0, 61, 33
2, 544158, Note_on_c, 0, 64, 54
2, 544158, Note_on_c, 0, 57, 56
2, 544160, Control_c, 0, 64, 0
2, 544167, Note_off_c, 0, 62, 64
2, 544174, Note_off_c, 0, 59, 64
2, 544190, Control_c, 0, 64, 127
2, 544258, Note_on_c, 0, 56, 60
2, 544274, Note_off_c, 0, 57, 64
2, 544304, Note_off_c, 0, 64, 64
2, 544314, Note_on_c, 0, 64, 51
2, 544355, Control_c, 0, 64, 0
2, 544357, Note_off_c, 0, 64, 64
2, 544370, Note_on_c, 0, 64, 54
2, 544374, Note_on_c, 0, 57, 62
2, 544382, Note_off_c, 0, 56, 64
2, 544392, Control_c, 0, 64, 127
2, 544570, Note_off_c, 0, 64, 64
2, 544575, Control_c, 0, 64, 0
2, 544582, Note_on_c, 0, 64, 51
2, 544585, Note_on_c, 0, 59, 51
2, 544590, Note_off_c, 0, 57, 64
2, 544610, Control_c, 0, 64, 127
2, 544764, Note_off_c, 0, 64, 64
2, 544764, Note_off_c, 0, 61, 64
2, 544792, Note_on_c, 0, 60, 56
2, 544793, Note_on_c, 0, 64, 44
2, 544806, Control_c, 0, 64, 0
2, 544808, Note_off_c, 0, 59, 64
2, 544818, Control_c, 0, 64, 127
2, 544912, Note_on_c, 0, 57, 54
2, 544931, Note_off_c, 0, 60, 64
2, 544945, Note_off_c, 0, 64, 64
2, 544976, Note_on_c, 0, 64, 48
2, 545018, Control_c, 0, 64, 0
2, 545026, Note_off_c, 0, 64, 64
2, 545027, Note_on_c, 0, 52, 52
2, 545030, Control_c, 0, 64, 127
2, 545039, Note_on_c, 0, 64, 57
2, 545059, Note_off_c, 0, 57, 64
2, 545263, Note_on_c, 0, 54, 55
2, 545290, Note_off_c, 0, 52, 64
2, 545413, Note_on_c, 0, 62, 54
2, 545423, Note_off_c, 0, 64, 64
2, 545594, Note_on_c, 0, 59, 49
2, 545596, Note_on_c, 0, 55, 50
2, 545602, Note_off_c, 0, 54, 64
2, 545634, Control_c, 0, 64, 0
2, 545665, Control_c, 0, 64, 127
2, 545802, Note_on_c, 0, 64, 46
2, 545817, Note_off_c, 0, 62, 64
2, 545858, Note_on_c, 0, 43, 47
2, 545858, Note_on_c, 0, 50, 39
2, 545860, Note_on_c, 0, 66, 54
2, 545874, Control_c, 0, 64, 0
2, 545888, Note_off_c, 0, 64, 64
2, 545913, Control_c, 0, 64, 127
2, 546060, Note_on_c, 0, 67, 55
2, 546084, Note_off_c, 0, 66, 64
2, 546266, Note_on_c, 0, 64, 58
2, 546267, Note_on_c, 0, 60, 51
2, 546268, Note_on_c, 0, 57, 52
2, 546278, Control_c, 0, 64, 0
2, 546285, Note_off_c, 0, 59, 64
2, 546287, Note_off_c, 0, 55, 64
2, 546291, Note_off_c, 0, 50, 64
2, 546291, Note_off_c, 0, 67, 64
2, 546291, Note_off_c, 0, 43, 64
2, 546317, Control_c, 0, 64, 127
2, 546398, Note_on_c, 0, 66, 54
2, 546411, Note_off_c, 0, 64, 64
2, 546456, Note_on_c, 0, 67, 67
2, 546464, Note_on_c, 0, 43, 41
2, 546464, Note_on_c, 0, 50, 44
2, 546469, Note_off_c, 0, 66, 64
2, 546483, Control_c, 0, 64, 0
2, 546531, Control_c, 0, 64, 127
2, 546654, Note_on_c, 0, 69, 55
2, 546654, Note_on_c, 0, 66, 54
2, 546667, Note_off_c, 0, 67, 64
2, 546863, Note_on_c, 0, 71, 57
2, 546866, Note_on_c, 0, 67, 50
2, 546867, Note_on_c, 0, 59, 55
2, 546880, Note_off_c, 0, 66, 64
2, 546880, Note_off_c, 0, 69, 64
2, 546881, Control_c, 0, 64, 0
2, 546883, Note_off_c, 0, 60, 64
2, 546884, Note_off_c, 0, 57, 64
2, 546900, Control_c, 0, 64, 127
2, 546960, Note_off_c, 0, 50, 64
2, 546960, Note_off_c, 0, 43, 64
2, 546994, Note_on_c, 0, 74, 63
2, 547009, Note_off_c, 0, 71, 64
2, 547026, Note_off_c, 0, 74, 64
2, 547049, Note_on_c, 0, 50, 56
2, 547053, Note_on_c, 0, 43, 49
2, 547056, Note_on_c, 0, 74, 71
2, 547076, Control_c, 0, 64, 0
2, 547106, Control_c, 0, 64, 127
2, 547268, Note_on_c, 0, 62, 56
2, 547273, Note_off_c, 0, 67, 64
2, 547348, Note_off_c, 0, 59, 64
2, 547458, Note_on_c, 0, 64, 41
2, 547463, Note_on_c, 0, 60, 48
2, 547470, Note_off_c, 0, 74, 64
2, 547479, Note_off_c, 0, 62, 64
2, 547524, Note_off_c, 0, 50, 64
2, 547528, Note_off_c, 0, 43, 64
2, 547567, Note_on_c, 0, 57, 56
2, 547587, Note_off_c, 0, 64, 64
2, 547613, Note_on_c, 0, 64, 42
2, 547635, Note_off_c, 0, 60, 64
2, 547649, Note_off_c, 0, 64, 64
2, 547670, Note_on_c, 0, 64, 40
2, 547675, Control_c, 0, 64, 0
2, 547681, Note_on_c, 0, 52, 57
2, 547718, Control_c, 0, 64, 127
2, 547721, Note_off_c, 0, 57, 64
2, 547864, Note_on_c, 0, 54, 62
2, 547891, Note_off_c, 0, 52, 64
2, 547894, Control_c, 0, 64, 0
2, 547914, Control_c, 0, 64, 127
2, 547969, Note_on_c, 0, 62, 41
2, 547996, Note_off_c, 0, 64, 64
2, 548094, Note_on_c, 0, 59, 50
2, 548096, Note_on_c, 0, 55, 46
2, 548106, Note_off_c, 0, 54, 64
2, 548113, Control_c, 0, 64, 0
2, 548135, Control_c, 0, 64, 127
2, 548247, Note_on_c, 0, 64, 44
2, 548283, Note_on_c, 0, 66, 52
2, 548286, Note_on_c, 0, 43, 42
2, 548286, Note_on_c, 0, 50, 34
2, 548290, Note_off_c, 0, 62, 64
2, 548295, Control_c, 0, 64, 0
2, 548309, Note_off_c, 0, 64, 64
2, 548339, Control_c, 0, 64, 127
2, 548476, Note_on_c, 0, 67, 56
2, 548496, Control_c, 0, 64, 0
2, 548500, Note_off_c, 0, 66, 64
2, 548526, Control_c, 0, 64, 127
2, 548662, Note_on_c, 0, 57, 49
2, 548662, Note_on_c, 0, 60, 48
2, 548662, Note_on_c, 0, 64, 55
2, 548666, Note_off_c, 0, 43, 64
2, 548672, Note_off_c, 0, 50, 64
2, 548689, Note_off_c, 0, 59, 64
2, 548691, Note_off_c, 0, 55, 64
2, 548692, Note_off_c, 0, 67, 64
2, 548814, Note_on_c, 0, 66, 49
2, 548830, Note_off_c, 0, 64, 64
2, 548866, Note_on_c, 0, 43, 23
2, 548869, Note_on_c, 0, 67, 62
2, 548871, Note_on_c, 0, 50, 39
2, 548874, Note_off_c, 0, 66, 64
2, 549033, Control_c, 0, 64, 0
2, 549063, Note_on_c, 0, 69, 59
2, 549066, Note_on_c, 0, 66, 46
2, 549082, Note_off_c, 0, 67, 64
2, 549086, Control_c, 0, 64, 127
2, 549293, Note_on_c, 0, 59, 54
2, 549294, Note_on_c, 0, 71, 57
2, 549296, Note_on_c, 0, 65, 58
2, 549297, Note_off_c, 0, 60, 64
2, 549297, Note_off_c, 0, 57, 64
2, 549304, Note_off_c, 0, 69, 64
2, 549306, Control_c, 0, 64, 0
2, 549313, Note_off_c, 0, 66, 64
2, 549344, Control_c, 0, 64, 127
2, 549429, Note_on_c, 0, 73, 54
2, 549456, Note_off_c, 0, 43, 64
2, 549461, Note_off_c, 0, 50, 64
2, 549483, Note_on_c, 0, 74, 70
2, 549486, Note_on_c, 0, 43, 56
2, 549497, Control_c, 0, 64, 0
2, 549517, Note_off_c, 0, 73, 64
2, 549517, Note_off_c, 0, 59, 64
2, 549520, Control_c, 0, 64, 127
2, 549699, Note_on_c, 0, 75, 64
2, 549701, Note_on_c, 0, 66, 56
2, 549704, Note_on_c, 0, 42, 55
2, 549712, Note_off_c, 0, 65, 64
2, 549715, Control_c, 0, 64, 0
2, 549717, Note_off_c, 0, 74, 64
2, 549722, Note_off_c, 0, 43, 64
2, 549726, Control_c, 0, 64, 127
2, 549922, Note_on_c, 0, 64, 58
2, 549923, Note_on_c, 0, 76, 66
2, 549926, Note_on_c, 0, 30, 71
2, 549926, Note_on_c, 0, 68, 46
2, 549933, Note_off_c, 0, 75, 64
2, 549933, Control_c, 0, 64, 0
2, 549943, Control_c, 0, 64, 127
2, 549950, Note_off_c, 0, 66, 64
2, 550024, Note_on_c, 0, 73, 64
2, 550043, Note_off_c, 0, 76, 64
2, 550070, Note_off_c, 0, 64, 64
2, 550108, Note_off_c, 0, 68, 64
2, 550114, Note_off_c, 0, 30, 64
2, 550116, Note_off_c, 0, 42, 64
2, 550124, Note_on_c, 0, 54, 54
2, 550127, Note_on_c, 0, 68, 77
2, 550130, Note_on_c, 0, 64, 73
2, 550139, Control_c, 0, 64, 0
2, 550145, Note_off_c, 0, 73, 64
2, 550153, Control_c, 0, 64, 127
2, 550319, Note_on_c, 0, 70, 59
2, 550336, Note_off_c, 0, 68, 64
2, 550336, Note_off_c, 0, 71, 64
2, 550378, Note_off_c, 0, 64, 64
2, 550398, Note_off_c, 0, 54, 64
2, 550430, Note_on_c, 0, 54, 71
2, 550458, Note_off_c, 0, 70, 64
2, 550504, Note_off_c, 0, 54, 64
2, 550537, Control_c, 0, 64, 0
2, 550545, Note_on_c, 0, 54, 69
2, 550548, Note_on_c, 0, 66, 64
2, 550552, Note_on_c, 0, 63, 59
2, 550564, Control_c, 0, 64, 127
2, 550633, Note_off_c, 0, 66, 64
2, 550637, Note_off_c, 0, 63, 64
2, 550703, Note_on_c, 0, 68, 62
2, 550708, Note_on_c, 0, 66, 85
2, 550741, Note_off_c, 0, 66, 64
2, 550747, Control_c, 0, 64, 0
2, 550756, Note_on_c, 0, 70, 70
2, 550758, Note_on_c, 0, 63, 46
2, 550759, Note_off_c, 0, 68, 64
2, 550760, Note_on_c, 0, 66, 82
2, 550774, Control_c, 0, 64, 127
2, 550974, Note_off_c, 0, 54, 64
2, 550990, Note_on_c, 0, 71, 64
2, 550991, Note_on_c, 0, 54, 66
2, 550999, Note_off_c, 0, 70, 64
2, 551015, Control_c, 0, 64, 0
2, 551027, Control_c, 0, 64, 127
2, 551205, Note_on_c, 0, 68, 69
2, 551209, Note_on_c, 0, 64, 69
2, 551215, Note_off_c, 0, 71, 64
2, 551231, Note_off_c, 0, 63, 64
2, 551290, Note_off_c, 0, 68, 64
2, 551291, Note_off_c, 0, 66, 64
2, 551294, Note_off_c, 0, 64, 64
2, 551357, Note_on_c, 0, 70, 58
2, 551358, Note_on_c, 0, 66, 89
2, 551399, Note_off_c, 0, 66, 64
2, 551414, Note_on_c, 0, 66, 85
2, 551414, Note_on_c, 0, 68, 72
2, 551415, Control_c, 0, 64, 0
2, 551416, Note_on_c, 0, 64, 66
2, 551416, Note_on_c, 0, 71, 67
2, 551423, Control_c, 0, 64, 0
2, 551429, Control_c, 0, 64, 127
2, 551437, Control_c, 0, 64, 127
2, 551448, Note_off_c, 0, 70, 64
2, 551636, Note_off_c, 0, 54, 64
2, 551650, Note_on_c, 0, 73, 74
2, 551650, Note_on_c, 0, 70, 67
2, 551652, Note_on_c, 0, 64, 64
2, 551658, Note_on_c, 0, 54, 71
2, 551671, Note_off_c, 0, 68, 64
2, 551673, Note_off_c, 0, 71, 64
2, 551675, Control_c, 0, 64, 0
2, 551687, Control_c, 0, 64, 127
2, 551710, Note_off_c, 0, 64, 64
2, 551731, Note_off_c, 0, 70, 64
2, 551733, Note_off_c, 0, 73, 64
2, 551895, Note_on_c, 0, 75, 71
2, 551899, Note_on_c, 0, 63, 69
2, 551901, Note_on_c, 0, 71, 69
2, 551901, Note_on_c, 0, 47, 69
2, 551908, Control_c, 0, 64, 0
2, 551913, Note_off_c, 0, 66, 64
2, 551914, Note_off_c, 0, 54, 64
2, 551915, Note_off_c, 0, 64, 64
2, 551928, Control_c, 0, 64, 127
2, 551980, Note_off_c, 0, 75, 64
2, 551984, Note_off_c, 0, 63, 64
2, 551986, Note_off_c, 0, 47, 64
2, 551986, Note_off_c, 0, 71, 64
2, 552098, Note_on_c, 0, 66, 71
2, 552102, Note_on_c, 0, 71, 69
2, 552102, Note_on_c, 0, 63, 83
2, 552104, Note_on_c, 0, 78, 67
2, 552137, Note_off_c, 0, 66, 64
2, 552141, Note_off_c, 0, 63, 64
2, 552141, Note_off_c, 0, 71, 64
2, 552143, Note_off_c, 0, 78, 64
2, 552166, Note_on_c, 0, 78, 73
2, 552166, Note_on_c, 0, 71, 71
2, 552166, Note_on_c, 0, 66, 69
2, 552169, Note_on_c, 0, 63, 78
2, 552171, Control_c, 0, 64, 0
2, 552201, Control_c, 0, 64, 127
2, 552383, Note_off_c, 0, 71, 64
2, 552396, Note_on_c, 0, 80, 69
2, 552398, Note_on_c, 0, 64, 64
2, 552398, Note_on_c, 0, 68, 69
2, 552403, Note_on_c, 0, 71, 67
2, 552406, Note_off_c, 0, 66, 64
2, 552406, Note_off_c, 0, 78, 64
2, 552409, Note_off_c, 0, 63, 64
2, 552413, Control_c, 0, 64, 0
2, 552424, Control_c, 0, 64, 127
2, 552614, Note_off_c, 0, 71, 64
2, 552619, Note_on_c, 0, 66, 59
2, 552619, Note_on_c, 0, 63, 63
2, 552622, Note_on_c, 0, 78, 65
2, 552625, Note_on_c, 0, 71, 63
2, 552632, Note_off_c, 0, 80, 64
2, 552634, Note_off_c, 0, 68, 64
2, 552634, Note_off_c, 0, 64, 64
2, 552704, Note_off_c, 0, 63, 64
2, 552704, Note_off_c, 0, 66, 64
2, 552707, Note_off_c, 0, 78, 64
2, 552710, Note_off_c, 0, 71, 64
2, 552794, Note_on_c, 0, 68, 56
2, 552794, Note_on_c, 0, 59, 58
2, 552798, Note_on_c, 0, 75, 59
2, 552798, Note_on_c, 0, 63, 56
2, 552824, Note_off_c, 0, 68, 64
2, 552832, Note_off_c, 0, 63, 64
2, 552846, Note_on_c, 0, 56, 64
2, 552846, Note_on_c, 0, 63, 64
2, 552849, Note_on_c, 0, 68, 54
2, 552849, Note_on_c, 0, 71, 57
2, 552857, Note_off_c, 0, 59, 64
2, 552858, Control_c, 0, 64, 0
2, 552861, Note_off_c, 0, 75, 64
2, 552898, Control_c, 0, 64, 127
2, 553066, Note_off_c, 0, 68, 64
2, 553078, Note_on_c, 0, 68, 66
2, 553078, Note_on_c, 0, 64, 66
2, 553079, Note_on_c, 0, 76, 62
2, 553080, Note_on_c, 0, 61, 64
2, 553089, Note_off_c, 0, 63, 64
2, 553089, Note_off_c, 0, 56, 64
2, 553092, Note_off_c, 0, 71, 64
2, 553092, Control_c, 0, 64, 0
2, 553102, Control_c, 0, 64, 127
2, 553289, Note_off_c, 0, 68, 64
2, 553298, Note_on_c, 0, 59, 63
2, 553298, Note_on_c, 0, 75, 64
2, 553301, Note_on_c, 0, 63, 69
2, 553305, Note_on_c, 0, 68, 59
2, 553309, Note_off_c, 0, 64, 64
2, 553310, Note_off_c, 0, 76, 64
2, 553311, Note_off_c, 0, 61, 64
2, 553383, Note_off_c, 0, 75, 64
2, 553383, Note_off_c, 0, 59, 64
2, 553386, Note_off_c, 0, 63, 64
2, 553390, Note_off_c, 0, 68, 64
2, 553450, Note_on_c, 0, 68, 66
2, 553450, Note_on_c, 0, 63, 66
2, 553452, Note_on_c, 0, 71, 57
2, 553454, Note_on_c, 0, 56, 56
2, 553498, Note_off_c, 0, 68, 64
2, 553506, Note_on_c, 0, 59, 65
2, 553506, Note_on_c, 0, 64, 69
2, 553506, Note_on_c, 0, 52, 55
2, 553508, Note_on_c, 0, 68, 69
2, 553525, Note_off_c, 0, 63, 64
2, 553527, Note_off_c, 0, 71, 64
2, 553529, Note_off_c, 0, 56, 64
2, 553542, Control_c, 0, 64, 0
2, 553581, Control_c, 0, 64, 127
2, 553752, Note_on_c, 0, 63, 73
2, 553752, Note_on_c, 0, 71, 77
2, 553756, Note_on_c, 0, 54, 54
2, 553759, Note_off_c, 0, 52, 64
2, 553759, Note_off_c, 0, 64, 64
2, 553760, Note_on_c, 0, 47, 55
2, 553761, Note_off_c, 0, 68, 64
2, 553767, Control_c, 0, 64, 0
2, 553797, Control_c, 0, 64, 127
2, 553982, Note_on_c, 0, 64, 69
2, 553982, Note_on_c, 0, 58, 59
2, 553985, Note_on_c, 0, 73, 71
2, 553987, Note_on_c, 0, 66, 71
2, 554010, Note_off_c, 0, 59, 64
2, 554010, Note_off_c, 0, 71, 64
2, 554010, Note_off_c, 0, 63, 64
2, 554010, Control_c, 0, 64, 0
2, 554014, Note_off_c, 0, 54, 64
2, 554018, Note_off_c, 0, 47, 64
2, 554039, Control_c, 0, 64, 127
2, 554073, Note_off_c, 0, 58, 64
2, 554073, Note_off_c, 0, 64, 64
2, 554076, Note_off_c, 0, 73, 64
2, 554078, Note_off_c, 0, 66, 64
2, 554198, Note_on_c, 0, 42, 65
2, 554205, Note_on_c, 0, 75, 58
2, 554250, Note_on_c, 0, 66, 72
2, 554254, Note_on_c, 0, 58, 56
2, 554254, Note_on_c, 0, 64, 67
2, 554257, Note_on_c, 0, 73, 66
2, 554276, Note_off_c, 0, 75, 64
2, 554283, Control_c, 0, 64, 0
2, 554296, Note_off_c, 0, 42, 64
2, 554322, Control_c, 0, 64, 127
2, 554620, Note_on_c, 0, 71, 56
2, 554622, Note_off_c, 0, 66, 64
2, 554622, Note_on_c, 0, 63, 54
2, 554622, Note_on_c, 0, 59, 46
2, 554626, Note_off_c, 0, 64, 64
2, 554626, Note_off_c, 0, 58, 64
2, 554628, Note_on_c, 0, 47, 40
2, 554629, Note_off_c, 0, 73, 64
2, 554711, Note_off_c, 0, 71, 64
2, 554713, Note_off_c, 0, 59, 64
2, 554713, Note_off_c, 0, 63, 64
2, 554719, Note_off_c, 0, 47, 64
2, 554738, Note_on_c, 0, 71, 57
2, 554738, Note_on_c, 0, 63, 55
2, 554742, Note_on_c, 0, 47, 36
2, 554744, Note_on_c, 0, 59, 44
2, 554751, Control_c, 0, 64, 0
2, 554764, Control_c, 0, 64, 127
2, 554829, Note_off_c, 0, 63, 64
2, 554829, Note_off_c, 0, 71, 64
2, 554833, Note_off_c, 0, 47, 64
2, 554835, Note_off_c, 0, 59, 64
2, 554931, Note_on_c, 0, 68, 71
2, 554969, Note_off_c, 0, 68, 64
2, 554991, Note_on_c, 0, 64, 59
2, 554991, Note_on_c, 0, 68, 71
2, 554994, Note_on_c, 0, 59, 59
2, 555000, Note_on_c, 0, 52, 58
2, 555007, Control_c, 0, 64, 0
2, 555029, Control_c, 0, 64, 127
2, 555210, Note_on_c, 0, 61, 55
2, 555213, Note_on_c, 0, 70, 67
2, 555226, Note_off_c, 0, 68, 64
2, 555229, Note_off_c, 0, 59, 64
2, 555317, Note_on_c, 0, 59, 59
2, 555319, Note_on_c, 0, 68, 77
2, 555331, Note_off_c, 0, 61, 64
2, 555334, Note_off_c, 0, 70, 64
2, 555438, Note_on_c, 0, 66, 69
2, 555438, Note_on_c, 0, 58, 74
2, 555451, Note_off_c, 0, 52, 64
2, 555452, Control_c, 0, 64, 0
2, 555459, Note_off_c, 0, 68, 64
2, 555467, Note_off_c, 0, 59, 64
2, 555476, Control_c, 0, 64, 127
2, 555523, Note_off_c, 0, 58, 64
2, 555523, Note_off_c, 0, 66, 64
2, 555525, Note_off_c, 0, 64, 64
2, 555603, Note_on_c, 0, 42, 63
2, 555609, Note_on_c, 0, 73, 73
2, 555647, Note_off_c, 0, 73, 64
2, 555666, Note_on_c, 0, 58, 69
2, 555666, Note_on_c, 0, 64, 66
2, 555668, Note_on_c, 0, 66, 78
2, 555668, Note_on_c, 0, 73, 73
2, 555678, Control_c, 0, 64, 0
2, 555688, Note_off_c, 0, 42, 64
2, 555717, Control_c, 0, 64, 127
2, 555906, Note_off_c, 0, 64, 64
2, 555908, Note_off_c, 0, 66, 64
2, 555920, Note_on_c, 0, 75, 64
2, 555922, Note_on_c, 0, 42, 57
2, 555926, Note_on_c, 0, 66, 63
2, 555926, Note_on_c, 0, 64, 58
2, 555932, Note_off_c, 0, 73, 64
2, 556015, Note_off_c, 0, 58, 64
2, 556188, Note_on_c, 0, 71, 60
2, 556188, Note_on_c, 0, 63, 58
2, 556194, Note_on_c, 0, 54, 44
2, 556195, Note_on_c, 0, 47, 47
2, 556201, Note_off_c, 0, 75, 64
2, 556203, Note_off_c, 0, 42, 64
2, 556207, Note_off_c, 0, 64, 64
2, 556207, Note_off_c, 0, 66, 64
2, 556231, Control_c, 0, 64, 0
2, 556252, Control_c, 0, 64, 127
2, 556502, Note_on_c, 0, 62, 50
2, 556505, Note_on_c, 0, 55, 49
2, 556527, Note_off_c, 0, 63, 64
2, 556532, Control_c, 0, 64, 0
2, 556533, Note_off_c, 0, 54, 64
2, 556561, Control_c, 0, 64, 127
2, 556700, Note_off_c, 0, 55, 64
2, 556751, Note_on_c, 0, 64, 48
2, 556755, Note_on_c, 0, 48, 26
2, 556766, Note_off_c, 0, 47, 64
2, 556767, Note_off_c, 0, 62, 64
2, 556866, Note_on_c, 0, 54, 23
2, 556870, Note_on_c, 0, 50, 32
2, 556870, Note_on_c, 0, 60, 25
2, 556872, Note_on_c, 0, 69, 46
2, 556888, Note_off_c, 0, 64, 64
2, 556889, Note_off_c, 0, 71, 64
2, 556892, Note_off_c, 0, 48, 64
2, 556905, Control_c, 0, 64, 0
2, 556935, Control_c, 0, 64, 127
2, 557317, Note_on_c, 0, 62, 44
2, 557327, Note_off_c, 0, 69, 64
2, 557390, Note_on_c, 0, 64, 40
2, 557415, Note_off_c, 0, 62, 64
2, 557447, Note_off_c, 0, 50, 64
2, 557461, Note_on_c, 0, 62, 57
2, 557462, Note_on_c, 0, 59, 32
2, 557462, Note_on_c, 0, 55, 33
2, 557464, Note_on_c, 0, 50, 38
2, 557467, Note_off_c, 0, 54, 64
2, 557471, Note_off_c, 0, 60, 64
2, 557480, Note_off_c, 0, 64, 64
2, 557529, Note_on_c, 0, 69, 47
2, 557555, Note_off_c, 0, 62, 64
2, 557593, Control_c, 0, 64, 0
2, 557598, Note_on_c, 0, 43, 43
2, 557607, Note_on_c, 0, 67, 60
2, 557608, Control_c, 0, 64, 127
2, 557617, Note_off_c, 0, 55, 64
2, 557617, Note_off_c, 0, 59, 64
2, 557619, Note_off_c, 0, 50, 64
2, 557624, Note_off_c, 0, 69, 64
2, 557652, Note_off_c, 0, 43, 64
2, 557665, Note_on_c, 0, 72, 56
2, 557683, Note_off_c, 0, 67, 64
2, 557739, Note_on_c, 0, 71, 66
2, 557757, Note_off_c, 0, 72, 64
2, 557792, Note_on_c, 0, 76, 53
2, 557816, Note_off_c, 0, 71, 64
2, 557856, Control_c, 0, 64, 0
2, 557870, Note_on_c, 0, 74, 58
2, 557873, Note_on_c, 0, 59, 39
2, 557877, Note_on_c, 0, 50, 43
2, 557894, Note_off_c, 0, 76, 64
2, 557894, Control_c, 0, 64, 127
2, 557932, Note_on_c, 0, 78, 56
2, 557950, Note_off_c, 0, 74, 64
2, 558002, Control_c, 0, 64, 0
2, 558006, Note_on_c, 0, 79, 61
2, 558014, Note_on_c, 0, 43, 47
2, 558028, Note_off_c, 0, 59, 64
2, 558032, Note_off_c, 0, 78, 64
2, 558032, Note_off_c, 0, 50, 64
2, 558037, Control_c, 0, 64, 127
2, 558067, Note_on_c, 0, 76, 56
2, 558068, Note_off_c, 0, 43, 64
2, 558085, Note_off_c, 0, 79, 64
2, 558122, Note_on_c, 0, 74, 63
2, 558135, Note_off_c, 0, 76, 64
2, 558196, Note_on_c, 0, 76, 54
2, 558202, Note_off_c, 0, 74, 64
2, 558258, Note_on_c, 0, 60, 40
2, 558263, Note_on_c, 0, 74, 60
2, 558263, Note_on_c, 0, 54, 46
2, 558267, Note_on_c, 0, 50, 45
2, 558273, Note_off_c, 0, 76, 64
2, 558275, Control_c, 0, 64, 0
2, 558286, Control_c, 0, 64, 127
2, 558324, Note_on_c, 0, 71, 63
2, 558338, Note_off_c, 0, 74, 64
2, 558390, Note_on_c, 0, 72, 62
2, 558399, Note_on_c, 0, 43, 38
2, 558406, Note_off_c, 0, 71, 64
2, 558413, Note_off_c, 0, 60, 64
2, 558418, Note_off_c, 0, 54, 64
2, 558422, Note_off_c, 0, 50, 64
2, 558453, Note_off_c, 0, 43, 64
2, 558460, Note_on_c, 0, 69, 63
2, 558464, Note_off_c, 0, 72, 64
2, 558524, Note_on_c, 0, 71, 56
2, 558534, Note_off_c, 0, 69, 64
2, 558588, Note_on_c, 0, 66, 64
2, 558603, Note_off_c, 0, 71, 64
2, 558634, Note_on_c, 0, 67, 56
2, 558647, Note_off_c, 0, 66, 64
2, 558659, Note_on_c, 0, 69, 58
2, 558665, Control_c, 0, 64, 0
2, 558678, Note_off_c, 0, 67, 64
2, 558686, Note_on_c, 0, 50, 43
2, 558686, Note_on_c, 0, 55, 43
2, 558686, Note_on_c, 0, 67, 55
2, 558690, Note_on_c, 0, 59, 43
2, 558691, Control_c, 0, 64, 127
2, 558708, Note_off_c, 0, 69, 64
2, 558745, Note_on_c, 0, 66, 62
2, 558751, Note_off_c, 0, 67, 64
2, 558807, Note_on_c, 0, 67, 53
2, 558811, Note_on_c, 0, 58, 40
2, 558812, Control_c, 0, 64, 0
2, 558818, Note_off_c, 0, 66, 64
2, 558822, Note_on_c, 0, 49, 26
2, 558833, Note_off_c, 0, 50, 64
2, 558836, Control_c, 0, 64, 127
2, 558837, Note_off_c, 0, 59, 64
2, 558876, Note_on_c, 0, 64, 54
2, 558882, Note_off_c, 0, 67, 64
2, 558930, Control_c, 0, 64, 0
2, 558950, Note_on_c, 0, 62, 59
2, 558960, Note_off_c, 0, 58, 64
2, 558962, Note_off_c, 0, 55, 64
2, 558963, Note_off_c, 0, 64, 64
2, 558967, Control_c, 0, 64, 127
2, 558971, Note_off_c, 0, 49, 64
2, 559012, Note_on_c, 0, 64, 44
2, 559021, Note_off_c, 0, 62, 64
2, 559064, Control_c, 0, 64, 0
2, 559086, Note_on_c, 0, 62, 60
2, 559089, Note_on_c, 0, 50, 36
2, 559089, Note_on_c, 0, 59, 39
2, 559101, Control_c, 0, 64, 127
2, 559104, Note_off_c, 0, 64, 64
2, 559151, Note_on_c, 0, 69, 48
2, 559172, Note_off_c, 0, 62, 64
2, 559218, Control_c, 0, 64, 0
2, 559222, Note_on_c, 0, 67, 59
2, 559225, Note_on_c, 0, 43, 47
2, 559233, Note_off_c, 0, 69, 64
2, 559241, Control_c, 0, 64, 127
2, 559244, Note_off_c, 0, 59, 64
2, 559244, Note_off_c, 0, 50, 64
2, 559279, Note_off_c, 0, 43, 64
2, 559291, Note_on_c, 0, 72, 50
2, 559312, Note_off_c, 0, 67, 64
2, 559365, Note_on_c, 0, 71, 59
2, 559379, Note_off_c, 0, 72, 64
2, 559420, Note_on_c, 0, 76, 50
2, 559450, Note_off_c, 0, 71, 64
2, 559480, Control_c, 0, 64, 0
2, 559485, Note_on_c, 0, 74, 65
2, 559494, Note_on_c, 0, 50, 45
2, 559498, Note_on_c, 0, 59, 42
2, 559499, Note_off_c, 0, 76, 64
2, 559509, Control_c, 0, 64, 127
2, 559552, Note_on_c, 0, 78, 60
2, 559570, Note_off_c, 0, 74, 64
2, 559615, Control_c, 0, 64, 0
2, 559619, Note_on_c, 0, 79, 64
2, 559627, Note_on_c, 0, 43, 47
2, 559640, Control_c, 0, 64, 127
2, 559649, Note_off_c, 0, 50, 64
2, 559653, Note_off_c, 0, 59, 64
2, 559654, Note_off_c, 0, 78, 64
2, 559680, Note_on_c, 0, 76, 55
2, 559681, Note_off_c, 0, 43, 64
2, 559702, Note_off_c, 0, 79, 64
2, 559738, Note_on_c, 0, 74, 64
2, 559763, Note_off_c, 0, 76, 64
2, 559808, Note_on_c, 0, 76, 54
2, 559825, Note_off_c, 0, 74, 64
2, 559878, Note_on_c, 0, 60, 36
2, 559878, Note_on_c, 0, 50, 41
2, 559882, Note_on_c, 0, 74, 54
2, 559882, Note_on_c, 0, 54, 43
2, 559895, Note_off_c, 0, 76, 64
2, 559944, Note_on_c, 0, 71, 61
2, 559961, Note_off_c, 0, 74, 64
2, 560000, Note_on_c, 0, 72, 59
2, 560009, Note_on_c, 0, 43, 39
2, 560021, Note_off_c, 0, 71, 64
2, 560033, Note_off_c, 0, 50, 64
2, 560033, Note_off_c, 0, 60, 64
2, 560037, Note_off_c, 0, 54, 64
2, 560059, Note_on_c, 0, 69, 64
2, 560072, Note_off_c, 0, 72, 64
2, 560128, Note_on_c, 0, 71, 56
2, 560140, Note_off_c, 0, 69, 64
2, 560192, Note_on_c, 0, 66, 55
2, 560215, Note_off_c, 0, 71, 64
2, 560242, Note_on_c, 0, 69, 56
2, 560269, Note_off_c, 0, 66, 64
2, 560270, Note_on_c, 0, 67, 54
2, 560270, Note_on_c, 0, 62, 44
2, 560270, Note_on_c, 0, 59, 36
2, 560270, Note_on_c, 0, 52, 36
2, 560291, Note_off_c, 0, 43, 64
2, 560303, Note_off_c, 0, 69, 64
2, 560346, Note_on_c, 0, 66, 65
2, 560364, Note_off_c, 0, 67, 64
2, 560390, Control_c, 0, 64, 0
2, 560414, Note_on_c, 0, 64, 60
2, 560418, Note_on_c, 0, 61, 35
2, 560418, Note_on_c, 0, 55, 22
2, 560418, Note_on_c, 0, 45, 26
2, 560430, Note_off_c, 0, 66, 64
2, 560430, Note_off_c, 0, 52, 64
2, 560430, Note_off_c, 0, 59, 64
2, 560430, Note_off_c, 0, 62, 64
2, 560432, Control_c, 0, 64, 127
2, 560487, Note_on_c, 0, 71, 53
2, 560510, Note_off_c, 0, 64, 64
2, 560553, Note_off_c, 0, 45, 64
2, 560553, Note_off_c, 0, 55, 64
2, 560553, Note_off_c, 0, 61, 64
2, 560556, Note_on_c, 0, 69, 61
2, 560572, Note_off_c, 0, 71, 64
2, 560620, Note_on_c, 0, 71, 48
2, 560629, Note_off_c, 0, 69, 64
2, 560671, Control_c, 0, 64, 0
2, 560682, Note_on_c, 0, 69, 58
2, 560683, Note_on_c, 0, 66, 44
2, 560686, Note_on_c, 0, 57, 34
2, 560697, Note_off_c, 0, 71, 64
2, 560708, Control_c, 0, 64, 127
2, 560751, Note_on_c, 0, 76, 45
2, 560772, Note_off_c, 0, 69, 64
2, 560806, Control_c, 0, 64, 0
2, 560812, Note_on_c, 0, 50, 39
2, 560818, Note_on_c, 0, 74, 64
2, 560823, Control_c, 0, 64, 127
2, 560828, Note_off_c, 0, 76, 64
2, 560828, Note_off_c, 0, 66, 64
2, 560831, Note_off_c, 0, 57, 64
2, 560866, Note_off_c, 0, 50, 64
2, 560883, Note_on_c, 0, 79, 64
2, 560903, Note_off_c, 0, 74, 64
2, 560953, Note_on_c, 0, 78, 73
2, 560964, Note_off_c, 0, 79, 64
2, 561014, Note_on_c, 0, 83, 51
2, 561036, Note_off_c, 0, 78, 64
2, 561059, Control_c, 0, 64, 0
2, 561076, Note_on_c, 0, 81, 58
2, 561079, Note_off_c, 0, 83, 64
2, 561082, Note_on_c, 0, 66, 42
2, 561082, Note_on_c, 0, 57, 44
2, 561099, Control_c, 0, 64, 127
2, 561136, Note_on_c, 0, 85, 62
2, 561151, Note_off_c, 0, 81, 64
2, 561207, Note_on_c, 0, 50, 48
2, 561211, Note_on_c, 0, 86, 68
2, 561218, Control_c, 0, 64, 0
2, 561226, Note_off_c, 0, 85, 64
2, 561227, Note_off_c, 0, 57, 64
2, 561227, Note_off_c, 0, 66, 64
2, 561230, Control_c, 0, 64, 127
2, 561261, Note_off_c, 0, 50, 64
2, 561271, Note_on_c, 0, 83, 34
2, 561296, Note_off_c, 0, 86, 64
2, 561332, Note_on_c, 0, 81, 62
2, 561349, Note_off_c, 0, 83, 64
2, 561392, Note_on_c, 0, 83, 64
2, 561404, Note_off_c, 0, 81, 64
2, 561450, Note_on_c, 0, 81, 63
2, 561454, Note_on_c, 0, 67, 48
2, 561455, Note_on_c, 0, 61, 49
2, 561455, Note_on_c, 0, 57, 49
2, 561471, Note_off_c, 0, 83, 64
2, 561506, Note_on_c, 0, 78, 76
2, 561519, Note_off_c, 0, 81, 64
2, 561575, Note_on_c, 0, 79, 76
2, 561587, Note_off_c, 0, 78, 64
2, 561588, Note_on_c, 0, 50, 48
2, 561599, Note_off_c, 0, 67, 64
2, 561600, Note_off_c, 0, 57, 64
2, 561600, Note_off_c, 0, 61, 64
2, 561642, Note_off_c, 0, 50, 64
2, 561645, Note_on_c, 0, 76, 54
2, 561660, Note_off_c, 0, 79, 64
2, 561702, Note_on_c, 0, 78, 70
2, 561716, Note_off_c, 0, 76, 64
2, 561766, Note_on_c, 0, 73, 65
2, 561784, Note_off_c, 0, 78, 64
2, 561808, Note_on_c, 0, 57, 44
2, 561808, Note_on_c, 0, 74, 65
2, 561812, Note_on_c, 0, 62, 41
2, 561812, Note_on_c, 0, 66, 41
2, 561826, Note_off_c, 0, 73, 64
2, 561849, Note_on_c, 0, 76, 55
2, 561858, Note_off_c, 0, 74, 64
2, 561858, Control_c, 0, 64, 0
2, 561870, Control_c, 0, 64, 127
2, 561876, Note_on_c, 0, 74, 66
2, 561886, Note_off_c, 0, 76, 64
2, 561922, Note_on_c, 0, 73, 65
2, 561931, Note_off_c, 0, 74, 64
2, 561978, Note_on_c, 0, 74, 60
2, 561982, Note_off_c, 0, 57, 64
2, 561982, Note_on_c, 0, 56, 29
2, 561982, Note_on_c, 0, 65, 32
2, 561982, Control_c, 0, 64, 0
2, 561985, Note_off_c, 0, 73, 64
2, 561986, Note_off_c, 0, 66, 64
2, 562000, Control_c, 0, 64, 127
2, 562045, Note_on_c, 0, 71, 51
2, 562055, Note_off_c, 0, 74, 64
2, 562098, Control_c, 0, 64, 0
2, 562111, Note_on_c, 0, 69, 58
2, 562115, Note_off_c, 0, 62, 64
2, 562118, Note_off_c, 0, 65, 64
2, 562118, Note_off_c, 0, 56, 64
2, 562128, Note_off_c, 0, 71, 64
2, 562130, Control_c, 0, 64, 127
2, 562168, Note_on_c, 0, 71, 48
2, 562190, Note_off_c, 0, 69, 64
2, 562234, Control_c, 0, 64, 0
2, 562238, Note_on_c, 0, 69, 57
2, 562240, Note_on_c, 0, 66, 38
2, 562242, Note_on_c, 0, 57, 40
2, 562254, Control_c, 0, 64, 127
2, 562258, Note_off_c, 0, 71, 64
2, 562307, Note_on_c, 0, 76, 50
2, 562322, Note_off_c, 0, 69, 64
2, 562367, Note_on_c, 0, 50, 48
2, 562376, Note_on_c, 0, 74, 61
2, 562385, Note_off_c, 0, 66, 64
2, 562387, Note_off_c, 0, 57, 64
2, 562389, Note_off_c, 0, 76, 64
2, 562421, Note_off_c, 0, 50, 64
2, 562435, Note_on_c, 0, 79, 61
2, 562466, Note_off_c, 0, 74, 64
2, 562510, Note_on_c, 0, 78, 74
2, 562523, Note_off_c, 0, 79, 64
2, 562572, Note_on_c, 0, 83, 53
2, 562583, Note_off_c, 0, 78, 64
2, 562610, Control_c, 0, 64, 0
2, 562618, Note_on_c, 0, 66, 40
2, 562622, Note_on_c, 0, 57, 43
2, 562623, Note_on_c, 0, 81, 68
2, 562637, Control_c, 0, 64, 127
2, 562649, Note_off_c, 0, 83, 64
2, 562677, Note_on_c, 0, 85, 68
2, 562692, Note_off_c, 0, 81, 64
2, 562750, Note_on_c, 0, 86, 62
2, 562753, Note_on_c, 0, 50, 51
2, 562758, Control_c, 0, 64, 0
2, 562763, Note_off_c, 0, 66, 64
2, 562767, Note_off_c, 0, 57, 64
2, 562770, Control_c, 0, 64, 127
2, 562776, Note_off_c, 0, 85, 64
2, 562806, Note_on_c, 0, 83, 60
2, 562807, Note_off_c, 0, 50, 64
2, 562823, Note_off_c, 0, 86, 64
2, 562867, Note_on_c, 0, 81, 58
2, 562885, Note_off_c, 0, 83, 64
2, 562920, Note_on_c, 0, 83, 55
2, 562930, Note_off_c, 0, 81, 64
2, 562979, Note_on_c, 0, 81, 54
2, 562982, Note_on_c, 0, 57, 48
2, 562982, Note_on_c, 0, 61, 49
2, 562982, Note_on_c, 0, 67, 43
2, 562997, Note_off_c, 0, 83, 64
2, 563034, Note_on_c, 0, 78, 70
2, 563043, Note_off_c, 0, 81, 64
2, 563107, Note_on_c, 0, 79, 66
2, 563116, Note_on_c, 0, 50, 53
2, 563119, Note_off_c, 0, 78, 64
2, 563127, Note_off_c, 0, 67, 64
2, 563127, Note_off_c, 0, 61, 64
2, 563127, Note_off_c, 0, 57, 64
2, 563168, Note_on_c, 0, 76, 57
2, 563170, Note_off_c, 0, 50, 64
2, 563189, Note_off_c, 0, 79, 64
2, 563230, Note_on_c, 0, 78, 63
2, 563247, Note_off_c, 0, 76, 64
2, 563284, Note_on_c, 0, 74, 57
2, 563299, Note_off_c, 0, 78, 64
2, 563346, Note_on_c, 0, 66, 44
2, 563346, Note_on_c, 0, 60, 44
2, 563346, Note_on_c, 0, 57, 44
2, 563352, Note_on_c, 0, 76, 60
2, 563369, Note_off_c, 0, 74, 64
2, 563405, Note_on_c, 0, 71, 50
2, 563419, Note_off_c, 0, 76, 64
2, 563473, Note_on_c, 0, 72, 63
2, 563479, Note_on_c, 0, 50, 40
2, 563490, Note_off_c, 0, 71, 64
2, 563491, Note_off_c, 0, 57, 64
2, 563491, Note_off_c, 0, 60, 64
2, 563491, Note_off_c, 0, 66, 64
2, 563533, Note_off_c, 0, 50, 64
2, 563536, Note_on_c, 0, 64, 47
2, 563552, Note_off_c, 0, 72, 64
2, 563610, Note_on_c, 0, 62, 58
2, 563630, Note_off_c, 0, 64, 64
2, 563669, Note_on_c, 0, 64, 55
2, 563681, Note_off_c, 0, 62, 64
2, 563729, Control_c, 0, 64, 0
2, 563735, Note_on_c, 0, 59, 43
2, 563738, Note_on_c, 0, 50, 43
2, 563741, Note_on_c, 0, 62, 63
2, 563751, Note_off_c, 0, 64, 64
2, 563758, Control_c, 0, 64, 127
2, 563797, Note_on_c, 0, 69, 55
2, 563813, Note_off_c, 0, 62, 64
2, 563856, Control_c, 0, 64, 0
2, 563859, Note_on_c, 0, 43, 43
2, 563866, Note_on_c, 0, 67, 66
2, 563880, Note_off_c, 0, 69, 64
2, 563880, Note_off_c, 0, 59, 64
2, 563880, Control_c, 0, 64, 127
2, 563883, Note_off_c, 0, 50, 64
2, 563913, Note_off_c, 0, 43, 64
2, 563928, Note_on_c, 0, 72, 62
2, 563940, Note_off_c, 0, 67, 64
2, 563969, Control_c, 0, 64, 0
2, 563991, Control_c, 0, 64, 127
2, 564001, Note_on_c, 0, 71, 60
2, 564013, Note_off_c, 0, 72, 64
2, 564056, Note_on_c, 0, 76, 52
2, 564069, Note_off_c, 0, 71, 64
2, 564098, Control_c, 0, 64, 0
2, 564110, Note_on_c, 0, 74, 64
2, 564114, Note_on_c, 0, 59, 46
2, 564114, Note_on_c, 0, 50, 47
2, 564137, Note_off_c, 0, 76, 64
2, 564145, Control_c, 0, 64, 127
2, 564166, Note_on_c, 0, 78, 57
2, 564184, Note_off_c, 0, 74, 64
2, 564225, Control_c, 0, 64, 0
2, 564236, Note_on_c, 0, 43, 52
2, 564241, Note_on_c, 0, 79, 58
2, 564259, Note_off_c, 0, 50, 64
2, 564259, Note_off_c, 0, 59, 64
2, 564259, Control_c, 0, 64, 127
2, 564264, Note_off_c, 0, 78, 64
2, 564290, Note_off_c, 0, 43, 64
2, 564298, Note_on_c, 0, 76, 54
2, 564320, Note_off_c, 0, 79, 64
2, 564350, Note_on_c, 0, 74, 62
2, 564365, Note_off_c, 0, 76, 64
2, 564414, Note_on_c, 0, 76, 56
2, 564443, Note_off_c, 0, 74, 64
2, 564462, Control_c, 0, 64, 0
2, 564478, Note_on_c, 0, 50, 48
2, 564478, Note_on_c, 0, 54, 48
2, 564479, Note_on_c, 0, 60, 45
2, 564479, Note_on_c, 0, 74, 57
2, 564488, Note_off_c, 0, 76, 64
2, 564501, Control_c, 0, 64, 127
2, 564540, Note_on_c, 0, 71, 66
2, 564554, Note_off_c, 0, 74, 64
2, 564605, Note_on_c, 0, 43, 49
2, 564608, Note_on_c, 0, 72, 59
2, 564623, Note_off_c, 0, 71, 64
2, 564623, Note_off_c, 0, 54, 64
2, 564623, Note_off_c, 0, 50, 64
2, 564624, Note_off_c, 0, 60, 64
2, 564659, Note_off_c, 0, 43, 64
2, 564674, Note_on_c, 0, 69, 58
2, 564720, Note_off_c, 0, 72, 64
2, 564742, Note_on_c, 0, 71, 59
2, 564753, Note_off_c, 0, 69, 64
2, 564798, Note_on_c, 0, 66, 57
2, 564801, Note_off_c, 0, 71, 64
2, 564830, Note_on_c, 0, 67, 42
2, 564837, Note_off_c, 0, 66, 64
2, 564850, Note_on_c, 0, 69, 62
2, 564856, Control_c, 0, 64, 0
2, 564867, Note_off_c, 0, 67, 64
2, 564874, Note_on_c, 0, 50, 50
2, 564874, Note_on_c, 0, 55, 45
2, 564874, Note_on_c, 0, 59, 45
2, 564877, Note_on_c, 0, 67, 56
2, 564880, Control_c, 0, 64, 127
2, 564896, Note_off_c, 0, 69, 64
2, 564938, Note_on_c, 0, 66, 67
2, 564950, Note_off_c, 0, 67, 64
2, 564985, Control_c, 0, 64, 0
2, 564991, Note_on_c, 0, 49, 43
2, 564992, Note_on_c, 0, 67, 64
2, 564994, Note_on_c, 0, 58, 48
2, 564998, Note_off_c, 0, 59, 64
2, 564998, Note_off_c, 0, 50, 64
2, 565000, Control_c, 0, 64, 127
2, 565015, Note_off_c, 0, 66, 64
2, 565054, Note_on_c, 0, 64, 59
2, 565071, Note_off_c, 0, 67, 64
2, 565091, Control_c, 0, 64, 0
2, 565112, Note_on_c, 0, 62, 65
2, 565118, Note_off_c, 0, 55, 64
2, 565123, Note_off_c, 0, 64, 64
2, 565123, Note_off_c, 0, 49, 64
2, 565124, Control_c, 0, 64, 127
2, 565126, Note_off_c, 0, 58, 64
2, 565172, Note_on_c, 0, 64, 61
2, 565175, Note_off_c, 0, 62, 64
2, 565210, Control_c, 0, 64, 0
2, 565234, Note_on_c, 0, 59, 43
2, 565235, Note_on_c, 0, 62, 63
2, 565239, Note_on_c, 0, 50, 44
2, 565248, Control_c, 0, 64, 127
2, 565265, Note_off_c, 0, 64, 64
2, 565293, Note_on_c, 0, 69, 56
2, 565314, Note_off_c, 0, 62, 64
2, 565348, Control_c, 0, 64, 0
2, 565355, Note_on_c, 0, 67, 66
2, 565364, Note_on_c, 0, 43, 49
2, 565370, Note_off_c, 0, 69, 64
2, 565372, Control_c, 0, 64, 127
2, 565379, Note_off_c, 0, 59, 64
2, 565384, Note_off_c, 0, 50, 64
2, 565414, Note_on_c, 0, 72, 56
2, 565418, Note_off_c, 0, 43, 64
2, 565422, Note_off_c, 0, 67, 64
2, 565486, Note_on_c, 0, 71, 63
2, 565500, Note_off_c, 0, 72, 64
2, 565536, Note_on_c, 0, 76, 59
2, 565558, Note_off_c, 0, 71, 64
2, 565593, Control_c, 0, 64, 0
2, 565598, Note_on_c, 0, 74, 56
2, 565606, Note_on_c, 0, 50, 48
2, 565610, Note_off_c, 0, 76, 64
2, 565610, Note_on_c, 0, 59, 41
2, 565620, Control_c, 0, 64, 127
2, 565650, Note_on_c, 0, 78, 70
2, 565666, Note_off_c, 0, 74, 64
2, 565708, Control_c, 0, 64, 0
2, 565717, Note_on_c, 0, 79, 60
2, 565725, Note_on_c, 0, 43, 50
2, 565733, Note_off_c, 0, 78, 64
2, 565734, Control_c, 0, 64, 127
2, 565751, Note_off_c, 0, 50, 64
2, 565755, Note_off_c, 0, 59, 64
2, 565768, Note_on_c, 0, 76, 56
2, 565779, Note_off_c, 0, 43, 64
2, 565796, Note_off_c, 0, 79, 64
2, 565824, Note_on_c, 0, 74, 57
2, 565832, Note_off_c, 0, 76, 64
2, 565892, Note_on_c, 0, 76, 44
2, 565909, Note_off_c, 0, 74, 64
2, 565950, Note_on_c, 0, 74, 53
2, 565954, Note_on_c, 0, 60, 47
2, 565954, Note_on_c, 0, 54, 43
2, 565954, Note_on_c, 0, 50, 47
2, 565955, Note_off_c, 0, 76, 64
2, 566000, Note_on_c, 0, 71, 61
2, 566013, Note_off_c, 0, 74, 64
2, 566074, Note_on_c, 0, 72, 64
2, 566079, Note_on_c, 0, 43, 47
2, 566083, Note_off_c, 0, 71, 64
2, 566099, Note_off_c, 0, 50, 64
2, 566099, Note_off_c, 0, 54, 64
2, 566099, Note_off_c, 0, 60, 64
2, 566131, Note_on_c, 0, 69, 55
2, 566133, Note_off_c, 0, 43, 64
2, 566148, Note_off_c, 0, 72, 64
2, 566190, Note_on_c, 0, 71, 64
2, 566208, Note_off_c, 0, 69, 64
2, 566245, Note_on_c, 0, 66, 75
2, 566261, Note_off_c, 0, 71, 64
2, 566305, Note_on_c, 0, 69, 37
2, 566320, Note_on_c, 0, 67, 77
2, 566324, Note_on_c, 0, 62, 40
2, 566324, Note_on_c, 0, 59, 32
2, 566326, Note_on_c, 0, 52, 31
2, 566328, Note_off_c, 0, 66, 64
2, 566352, Note_off_c, 0, 69, 64
2, 566392, Note_on_c, 0, 66, 65
2, 566407, Note_off_c, 0, 67, 64
2, 566426, Control_c, 0, 64, 0
2, 566457, Note_on_c, 0, 64, 62
2, 566458, Note_on_c, 0, 61, 45
2, 566458, Note_on_c, 0, 55, 36
2, 566458, Note_on_c, 0, 45, 38
2, 566458, Control_c, 0, 64, 127
2, 566459, Note_off_c, 0, 59, 64
2, 566459, Note_off_c, 0, 62, 64
2, 566461, Note_off_c, 0, 52, 64
2, 566481, Note_off_c, 0, 66, 64
2, 566520, Note_on_c, 0, 71, 57
2, 566536, Note_off_c, 0, 64, 64
2, 566549, Control_c, 0, 64, 0
2, 566572, Control_c, 0, 64, 127
2, 566586, Note_on_c, 0, 69, 69
2, 566591, Note_off_c, 0, 45, 64
2, 566591, Note_off_c, 0, 55, 64
2, 566591, Note_off_c, 0, 61, 64
2, 566614, Note_off_c, 0, 71, 64
2, 566644, Note_on_c, 0, 71, 57
2, 566655, Note_off_c, 0, 69, 64
2, 566677, Control_c, 0, 64, 0
2, 566698, Note_on_c, 0, 57, 33
2, 566702, Note_on_c, 0, 66, 50
2, 566703, Note_on_c, 0, 69, 72
2, 566714, Control_c, 0, 64, 127
2, 566730, Note_off_c, 0, 71, 64
2, 566764, Note_on_c, 0, 76, 48
2, 566772, Note_off_c, 0, 69, 64
2, 566806, Control_c, 0, 64, 0
2, 566824, Note_on_c, 0, 50, 46
2, 566830, Note_on_c, 0, 74, 59
2, 566830, Control_c, 0, 64, 127
2, 566843, Note_off_c, 0, 57, 64
2, 566847, Note_off_c, 0, 66, 64
2, 566852, Note_off_c, 0, 76, 64
2, 566878, Note_off_c, 0, 50, 64
2, 566896, Note_on_c, 0, 79, 46
2, 566905, Note_off_c, 0, 74, 64
2, 566953, Note_on_c, 0, 78, 75
2, 566963, Note_off_c, 0, 79, 64
2, 567011, Note_on_c, 0, 83, 67
2, 567032, Note_off_c, 0, 78, 64
2, 567048, Control_c, 0, 64, 0
2, 567070, Note_on_c, 0, 81, 78
2, 567070, Note_on_c, 0, 66, 47
2, 567073, Note_on_c, 0, 57, 48
2, 567074, Control_c, 0, 64, 127
2, 567088, Note_off_c, 0, 83, 64
2, 567122, Note_on_c, 0, 85, 66
2, 567145, Note_off_c, 0, 81, 64
2, 567175, Control_c, 0, 64, 0
2, 567183, Note_on_c, 0, 50, 48
2, 567185, Note_on_c, 0, 86, 85
2, 567196, Note_off_c, 0, 85, 64
2, 567200, Control_c, 0, 64, 127
2, 567215, Note_off_c, 0, 66, 64
2, 567218, Note_off_c, 0, 57, 64
2, 567233, Note_on_c, 0, 83, 60
2, 567237, Note_off_c, 0, 50, 64
2, 567267, Note_off_c, 0, 86, 64
2, 567300, Note_on_c, 0, 81, 73
2, 567316, Note_off_c, 0, 83, 64
2, 567359, Note_on_c, 0, 83, 57
2, 567377, Note_off_c, 0, 81, 64
2, 567406, Note_on_c, 0, 67, 48
2, 567406, Note_on_c, 0, 61, 48
2, 567406, Note_on_c, 0, 57, 50
2, 567407, Note_on_c, 0, 81, 81
2, 567421, Note_off_c, 0, 83, 64
2, 567460, Note_on_c, 0, 78, 81
2, 567469, Note_off_c, 0, 81, 64
2, 567532, Note_on_c, 0, 79, 70
2, 567538, Note_on_c, 0, 50, 49
2, 567549, Note_off_c, 0, 78, 64
2, 567551, Note_off_c, 0, 57, 64
2, 567551, Note_off_c, 0, 61, 64
2, 567551, Note_off_c, 0, 67, 64
2, 567584, Note_off_c, 0, 50, 64
2, 567593, Note_on_c, 0, 76, 69
2, 567599, Note_off_c, 0, 79, 64
2, 567652, Note_on_c, 0, 78, 71
2, 567673, Note_off_c, 0, 76, 64
2, 567706, Note_on_c, 0, 73, 67
2, 567727, Note_off_c, 0, 78, 64
2, 567756, Note_on_c, 0, 74, 51
2, 567769, Note_off_c, 0, 73, 64
2, 567782, Control_c, 0, 64, 0
2, 567784, Note_on_c, 0, 76, 52
2, 567791, Note_off_c, 0, 74, 64
2, 567795, Control_c, 0, 64, 127
2, 567796, Note_on_c, 0, 66, 42
2, 567796, Note_on_c, 0, 62, 42
2, 567796, Note_on_c, 0, 57, 44
2, 567803, Note_on_c, 0, 74, 62
2, 567830, Note_off_c, 0, 76, 64
2, 567851, Note_on_c, 0, 73, 64
2, 567854, Note_off_c, 0, 74, 64
2, 567898, Control_c, 0, 64, 0
2, 567904, Note_on_c, 0, 65, 36
2, 567906, Note_on_c, 0, 56, 43
2, 567907, Note_on_c, 0, 74, 64
2, 567914, Note_off_c, 0, 73, 64
2, 567916, Control_c, 0, 64, 127
2, 567931, Note_off_c, 0, 57, 64
2, 567931, Note_off_c, 0, 66, 64
2, 567962, Note_on_c, 0, 71, 59
2, 567979, Note_off_c, 0, 74, 64
2, 568003, Control_c, 0, 64, 0
2, 568030, Note_on_c, 0, 69, 62
2, 568036, Control_c, 0, 64, 127
2, 568039, Note_off_c, 0, 71, 64
2, 568039, Note_off_c, 0, 65, 64
2, 568041, Note_off_c, 0, 56, 64
2, 568046, Note_off_c, 0, 62, 64
2, 568088, Note_on_c, 0, 71, 53
2, 568100, Note_off_c, 0, 69, 64
2, 568124, Control_c, 0, 64, 0
2, 568147, Control_c, 0, 64, 127
2, 568152, Note_on_c, 0, 69, 56
2, 568154, Note_on_c, 0, 66, 51
2, 568157, Note_on_c, 0, 57, 50
2, 568173, Note_off_c, 0, 71, 64
2, 568205, Note_on_c, 0, 76, 55
2, 568227, Note_off_c, 0, 69, 64
2, 568265, Note_on_c, 0, 50, 53
2, 568272, Note_on_c, 0, 74, 69
2, 568286, Note_off_c, 0, 76, 64
2, 568289, Note_off_c, 0, 66, 64
2, 568292, Note_off_c, 0, 57, 64
2, 568319, Note_off_c, 0, 50, 64
2, 568326, Note_on_c, 0, 79, 66
2, 568345, Note_off_c, 0, 74, 64
2, 568392, Note_on_c, 0, 78, 73
2, 568411, Note_off_c, 0, 79, 64
2, 568454, Note_on_c, 0, 83, 57
2, 568469, Note_off_c, 0, 78, 64
2, 568471, Control_c, 0, 64, 0
2, 568500, Control_c, 0, 64, 127
2, 568504, Note_on_c, 0, 81, 69
2, 568512, Note_on_c, 0, 66, 52
2, 568512, Note_on_c, 0, 57, 59
2, 568518, Note_off_c, 0, 83, 64
2, 568560, Note_on_c, 0, 85, 66
2, 568586, Note_off_c, 0, 81, 64
2, 568608, Note_on_c, 0, 50, 46
2, 568608, Control_c, 0, 64, 0
2, 568612, Note_on_c, 0, 86, 68
2, 568630, Control_c, 0, 64, 127
2, 568644, Note_off_c, 0, 85, 64
2, 568647, Note_off_c, 0, 57, 64
2, 568647, Note_off_c, 0, 66, 64
2, 568666, Note_off_c, 0, 50, 64
2, 568666, Note_on_c, 0, 83, 54
2, 568693, Note_off_c, 0, 86, 64
2, 568729, Note_on_c, 0, 81, 59
2, 568748, Note_off_c, 0, 83, 64
2, 568788, Note_on_c, 0, 78, 73
2, 568806, Note_off_c, 0, 81, 64
2, 568846, Note_on_c, 0, 79, 67
2, 568861, Note_off_c, 0, 78, 64
2, 568906, Note_on_c, 0, 83, 72
2, 568917, Note_off_c, 0, 79, 64
2, 568968, Note_on_c, 0, 81, 67
2, 568983, Note_off_c, 0, 83, 64
2, 569034, Note_on_c, 0, 78, 59
2, 569051, Note_off_c, 0, 81, 64
2, 569098, Note_on_c, 0, 74, 60
2, 569108, Control_c, 0, 64, 0
2, 569117, Note_off_c, 0, 78, 64
2, 569121, Control_c, 0, 64, 127
2, 569152, Note_on_c, 0, 76, 67
2, 569176, Note_off_c, 0, 74, 64
2, 569182, Control_c, 0, 64, 0
2, 569203, Control_c, 0, 64, 127
2, 569217, Note_on_c, 0, 79, 66
2, 569227, Control_c, 0, 64, 0
2, 569237, Note_off_c, 0, 76, 64
2, 569277, Note_on_c, 0, 78, 65
2, 569290, Note_off_c, 0, 79, 64
2, 569305, Control_c, 0, 64, 127
2, 569341, Note_on_c, 0, 74, 56
2, 569357, Note_off_c, 0, 78, 64
2, 569406, Note_on_c, 0, 69, 66
2, 569426, Note_off_c, 0, 74, 64
2, 569481, Note_on_c, 0, 70, 85
2, 569485, Control_c, 0, 64, 0
2, 569501, Note_off_c, 0, 69, 64
2, 569527, Control_c, 0, 64, 127
2, 569553, Note_on_c, 0, 74, 60
2, 569567, Note_off_c, 0, 70, 64
2, 569627, Note_on_c, 0, 69, 69
2, 569647, Note_off_c, 0, 74, 64
2, 569695, Note_on_c, 0, 66, 72
2, 569710, Note_off_c, 0, 69, 64
2, 569776, Note_on_c, 0, 70, 83
2, 569800, Control_c, 0, 64, 0
2, 569807, Note_off_c, 0, 66, 64
2, 569830, Control_c, 0, 64, 127
2, 569848, Note_on_c, 0, 74, 51
2, 569864, Note_off_c, 0, 70, 64
2, 569908, Note_on_c, 0, 69, 58
2, 569945, Note_off_c, 0, 74, 64
2, 569974, Note_on_c, 0, 66, 71
2, 570000, Note_off_c, 0, 69, 64
2, 570044, Note_on_c, 0, 70, 79
2, 570088, Note_off_c, 0, 66, 64
2, 570101, Note_on_c, 0, 74, 49
2, 570127, Note_off_c, 0, 70, 64
2, 570164, Note_on_c, 0, 69, 64
2, 570191, Note_off_c, 0, 74, 64
2, 570231, Note_on_c, 0, 66, 70
2, 570252, Note_off_c, 0, 69, 64
2, 570303, Note_on_c, 0, 69, 69
2, 570321, Note_off_c, 0, 66, 64
2, 570332, Control_c, 0, 64, 0
2, 570353, Control_c, 0, 64, 127
2, 570373, Note_on_c, 0, 73, 55
2, 570396, Note_off_c, 0, 69, 64
2, 570442, Note_on_c, 0, 68, 57
2, 570460, Note_off_c, 0, 73, 64
2, 570519, Note_on_c, 0, 65, 57
2, 570540, Note_off_c, 0, 68, 64
2, 570581, Note_on_c, 0, 69, 58
2, 570601, Control_c, 0, 64, 0
2, 570606, Note_off_c, 0, 65, 64
2, 570611, Control_c, 0, 64, 127
2, 570648, Note_on_c, 0, 73, 49
2, 570654, Note_off_c, 0, 69, 64
2, 570717, Note_on_c, 0, 68, 54
2, 570754, Note_off_c, 0, 73, 64
2, 570785, Note_on_c, 0, 65, 54
2, 570798, Note_off_c, 0, 68, 64
2, 570848, Note_on_c, 0, 69, 58
2, 570877, Note_off_c, 0, 65, 64
2, 570896, Control_c, 0, 64, 0
2, 570910, Control_c, 0, 64, 127
2, 570914, Note_on_c, 0, 73, 54
2, 570934, Note_off_c, 0, 69, 64
2, 570998, Note_on_c, 0, 68, 46
2, 571020, Note_off_c, 0, 73, 64
2, 571076, Note_on_c, 0, 65, 52
2, 571092, Note_off_c, 0, 68, 64
2, 571157, Note_on_c, 0, 68, 52
2, 571185, Note_off_c, 0, 65, 64
2, 571220, Note_on_c, 0, 72, 42
2, 571245, Note_off_c, 0, 68, 64
2, 571293, Note_on_c, 0, 67, 56
2, 571330, Note_off_c, 0, 72, 64
2, 571358, Note_on_c, 0, 64, 50
2, 571390, Note_off_c, 0, 67, 64
2, 571433, Note_on_c, 0, 67, 59
2, 571476, Note_off_c, 0, 64, 64
2, 571499, Note_on_c, 0, 71, 60
2, 571520, Note_off_c, 0, 67, 64
2, 571560, Note_on_c, 0, 66, 55
2, 571584, Note_off_c, 0, 71, 64
2, 571630, Note_on_c, 0, 63, 52
2, 571646, Note_off_c, 0, 66, 64
2, 571704, Note_on_c, 0, 66, 41
2, 571720, Note_off_c, 0, 63, 64
2, 571761, Note_on_c, 0, 70, 58
2, 571779, Note_off_c, 0, 66, 64
2, 571834, Note_on_c, 0, 65, 50
2, 571858, Note_off_c, 0, 70, 64
2, 571901, Note_on_c, 0, 62, 56
2, 571916, Note_off_c, 0, 65, 64
2, 571975, Note_on_c, 0, 65, 60
2, 572017, Note_off_c, 0, 62, 64
2, 572035, Note_on_c, 0, 69, 55
2, 572055, Note_off_c, 0, 65, 64
2, 572098, Note_on_c, 0, 64, 58
2, 572116, Note_off_c, 0, 69, 64
2, 572174, Note_on_c, 0, 61, 54
2, 572198, Note_off_c, 0, 64, 64
2, 572250, Note_on_c, 0, 64, 56
2, 572272, Note_off_c, 0, 61, 64
2, 572327, Note_on_c, 0, 68, 58
2, 572346, Note_off_c, 0, 64, 64
2, 572402, Note_on_c, 0, 63, 54
2, 572430, Note_off_c, 0, 68, 64
2, 572482, Note_on_c, 0, 60, 52
2, 572505, Note_off_c, 0, 63, 64
2, 572554, Control_c, 0, 64, 0
2, 572568, Note_on_c, 0, 64, 52
2, 572578, Control_c, 0, 64, 127
2, 572611, Note_off_c, 0, 60, 64
2, 572657, Note_on_c, 0, 68, 59
2, 572673, Note_off_c, 0, 64, 64
2, 572762, Note_on_c, 0, 63, 55
2, 572787, Note_off_c, 0, 68, 64
2, 572884, Note_on_c, 0, 59, 47
2, 572904, Note_off_c, 0, 63, 64
2, 573020, Note_on_c, 0, 64, 37
2, 573062, Control_c, 0, 64, 0
2, 573066, Note_on_c, 0, 68, 40
2, 573079, Note_off_c, 0, 59, 64
2, 573095, Control_c, 0, 64, 0
2, 573111, Control_c, 0, 64, 127
2, 573134, Control_c, 0, 64, 127
2, 573143, Note_on_c, 0, 61, 46
2, 573268, Note_on_c, 0, 56, 46
2, 573278, Note_off_c, 0, 61, 64
2, 573466, Note_on_c, 0, 66, 50
2, 573476, Note_on_c, 0, 58, 46
2, 573479, Note_off_c, 0, 68, 64
2, 573482, Control_c, 0, 64, 0
2, 573496, Note_off_c, 0, 56, 64
2, 573496, Control_c, 0, 64, 127
2, 573611, Note_on_c, 0, 59, 49
2, 573622, Note_off_c, 0, 58, 64
2, 573636, Note_on_c, 0, 61, 50
2, 573640, Note_off_c, 0, 66, 64
2, 573655, Note_off_c, 0, 59, 64
2, 573676, Note_on_c, 0, 59, 49
2, 573678, Note_on_c, 0, 63, 42
2, 573678, Note_on_c, 0, 66, 42
2, 573685, Note_off_c, 0, 64, 64
2, 573689, Control_c, 0, 64, 0
2, 573692, Note_off_c, 0, 61, 64
2, 573729, Control_c, 0, 64, 127
2, 573798, Note_on_c, 0, 58, 51
2, 573804, Note_off_c, 0, 59, 64
2, 573816, Note_off_c, 0, 66, 64
2, 573834, Note_on_c, 0, 66, 48
2, 573865, Note_off_c, 0, 66, 64
2, 573882, Control_c, 0, 64, 0
2, 573896, Note_on_c, 0, 59, 51
2, 573898, Note_on_c, 0, 66, 42
2, 573913, Note_off_c, 0, 58, 64
2, 573918, Control_c, 0, 64, 127
2, 574079, Note_off_c, 0, 66, 64
2, 574096, Note_on_c, 0, 66, 33
2, 574096, Note_on_c, 0, 61, 55
2, 574105, Control_c, 0, 64, 0
2, 574123, Note_off_c, 0, 59, 64
2, 574153, Control_c, 0, 64, 127
2, 574312, Note_off_c, 0, 66, 64
2, 574316, Note_on_c, 0, 62, 51
2, 574323, Note_on_c, 0, 66, 44
2, 574336, Note_off_c, 0, 61, 64
2, 574336, Note_off_c, 0, 63, 64
2, 574343, Control_c, 0, 64, 0
2, 574380, Control_c, 0, 64, 127
2, 574425, Note_on_c, 0, 59, 50
2, 574465, Note_off_c, 0, 66, 64
2, 574479, Note_on_c, 0, 66, 63
2, 574526, Note_off_c, 0, 66, 64
2, 574534, Control_c, 0, 64, 0
2, 574541, Note_on_c, 0, 54, 51
2, 574542, Note_on_c, 0, 66, 59
2, 574563, Note_off_c, 0, 59, 64
2, 574569, Control_c, 0, 64, 127
2, 574757, Note_on_c, 0, 56, 54
2, 574760, Note_on_c, 0, 64, 51
2, 574773, Note_off_c, 0, 66, 64
2, 574774, Control_c, 0, 64, 0
2, 574784, Note_off_c, 0, 54, 64
2, 574805, Control_c, 0, 64, 127
2, 574896, Note_on_c, 0, 57, 48
2, 574909, Note_off_c, 0, 56, 64
2, 574925, Note_on_c, 0, 59, 54
2, 574940, Note_off_c, 0, 57, 64
2, 574954, Note_off_c, 0, 64, 64
2, 574966, Note_on_c, 0, 61, 31
2, 574970, Note_on_c, 0, 57, 51
2, 574970, Note_on_c, 0, 64, 50
2, 574972, Control_c, 0, 64, 0
2, 574979, Note_off_c, 0, 62, 64
2, 574986, Note_off_c, 0, 59, 64
2, 575002, Control_c, 0, 64, 127
2, 575070, Note_on_c, 0, 56, 57
2, 575086, Note_off_c, 0, 57, 64
2, 575116, Note_off_c, 0, 64, 64
2, 575126, Note_on_c, 0, 64, 48
2, 575167, Control_c, 0, 64, 0
2, 575169, Note_off_c, 0, 64, 64
2, 575182, Note_on_c, 0, 64, 51
2, 575186, Note_on_c, 0, 57, 58
2, 575194, Note_off_c, 0, 56, 64
2, 575204, Control_c, 0, 64, 127
2, 575382, Note_off_c, 0, 64, 64
2, 575387, Control_c, 0, 64, 0
2, 575394, Note_on_c, 0, 64, 49
2, 575397, Note_on_c, 0, 59, 49
2, 575402, Note_off_c, 0, 57, 64
2, 575422, Control_c, 0, 64, 127
2, 575576, Note_off_c, 0, 64, 64
2, 575576, Note_off_c, 0, 61, 64
2, 575598, Note_on_c, 0, 60, 54
2, 575604, Note_off_c, 0, 59, 64
2, 575605, Note_on_c, 0, 64, 43
2, 575618, Control_c, 0, 64, 0
2, 575630, Control_c, 0, 64, 127
2, 575711, Note_on_c, 0, 57, 51
2, 575737, Note_off_c, 0, 60, 64
2, 575757, Note_off_c, 0, 64, 64
2, 575794, Note_on_c, 0, 64, 39
2, 575830, Control_c, 0, 64, 0
2, 575839, Note_on_c, 0, 52, 51
2, 575840, Note_off_c, 0, 64, 64
2, 575842, Control_c, 0, 64, 127
2, 575851, Note_on_c, 0, 64, 47
2, 575858, Note_off_c, 0, 57, 64
2, 576075, Note_on_c, 0, 54, 54
2, 576102, Note_off_c, 0, 52, 64
2, 576225, Note_on_c, 0, 62, 52
2, 576235, Note_off_c, 0, 64, 64
2, 576406, Note_on_c, 0, 59, 49
2, 576408, Note_on_c, 0, 55, 50
2, 576414, Note_off_c, 0, 54, 64
2, 576446, Control_c, 0, 64, 0
2, 576477, Control_c, 0, 64, 127
2, 576614, Note_on_c, 0, 64, 46
2, 576629, Note_off_c, 0, 62, 64
2, 576670, Note_on_c, 0, 43, 47
2, 576670, Note_on_c, 0, 50, 39
2, 576672, Note_on_c, 0, 66, 54
2, 576686, Control_c, 0, 64, 0
2, 576700, Note_off_c, 0, 64, 64
2, 576725, Control_c, 0, 64, 127
2, 576872, Note_on_c, 0, 67, 55
2, 576896, Note_off_c, 0, 66, 64
2, 577078, Note_on_c, 0, 64, 58
2, 577079, Note_on_c, 0, 60, 51
2, 577080, Note_on_c, 0, 57, 52
2, 577090, Control_c, 0, 64, 0
2, 577097, Note_off_c, 0, 59, 64
2, 577099, Note_off_c, 0, 55, 64
2, 577103, Note_off_c, 0, 67, 64
2, 577103, Note_off_c, 0, 50, 64
2, 577103, Note_off_c, 0, 43, 64
2, 577129, Control_c, 0, 64, 127
2, 577210, Note_on_c, 0, 66, 54
2, 577223, Note_off_c, 0, 64, 64
2, 577268, Note_on_c, 0, 67, 67
2, 577276, Note_on_c, 0, 43, 41
2, 577276, Note_on_c, 0, 50, 44
2, 577281, Note_off_c, 0, 66, 64
2, 577295, Control_c, 0, 64, 0
2, 577343, Control_c, 0, 64, 127
2, 577466, Note_on_c, 0, 69, 56
2, 577466, Note_on_c, 0, 66, 55
2, 577479, Note_off_c, 0, 67, 64
2, 577675, Note_on_c, 0, 71, 58
2, 577678, Note_on_c, 0, 67, 50
2, 577679, Note_on_c, 0, 59, 55
2, 577692, Note_off_c, 0, 66, 64
2, 577692, Note_off_c, 0, 69, 64
2, 577693, Control_c, 0, 64, 0
2, 577695, Note_off_c, 0, 60, 64
2, 577696, Note_off_c, 0, 57, 64
2, 577712, Control_c, 0, 64, 127
2, 577772, Note_off_c, 0, 50, 64
2, 577772, Note_off_c, 0, 43, 64
2, 577806, Note_on_c, 0, 74, 63
2, 577821, Note_off_c, 0, 71, 64
2, 577838, Note_off_c, 0, 74, 64
2, 577861, Note_on_c, 0, 50, 56
2, 577865, Note_on_c, 0, 43, 49
2, 577868, Note_on_c, 0, 74, 71
2, 577888, Control_c, 0, 64, 0
2, 577918, Control_c, 0, 64, 127
2, 578080, Note_on_c, 0, 62, 56
2, 578085, Note_off_c, 0, 67, 64
2, 578160, Note_off_c, 0, 59, 64
2, 578270, Note_on_c, 0, 64, 41
2, 578275, Note_on_c, 0, 60, 63
2, 578282, Note_off_c, 0, 74, 64
2, 578291, Note_off_c, 0, 62, 64
2, 578336, Note_off_c, 0, 50, 64
2, 578340, Note_off_c, 0, 43, 64
2, 578379, Note_on_c, 0, 57, 64
2, 578399, Note_off_c, 0, 64, 64
2, 578425, Note_on_c, 0, 64, 42
2, 578447, Note_off_c, 0, 60, 64
2, 578461, Note_off_c, 0, 64, 64
2, 578482, Note_on_c, 0, 64, 40
2, 578487, Control_c, 0, 64, 0
2, 578493, Note_on_c, 0, 52, 65
2, 578530, Control_c, 0, 64, 127
2, 578533, Note_off_c, 0, 57, 64
2, 578676, Note_on_c, 0, 54, 62
2, 578703, Note_off_c, 0, 52, 64
2, 578706, Control_c, 0, 64, 0
2, 578726, Control_c, 0, 64, 127
2, 578781, Note_on_c, 0, 62, 49
2, 578808, Note_off_c, 0, 64, 64
2, 578906, Note_on_c, 0, 59, 50
2, 578908, Note_on_c, 0, 55, 46
2, 578918, Note_off_c, 0, 54, 64
2, 578925, Control_c, 0, 64, 0
2, 578947, Control_c, 0, 64, 127
2, 579059, Note_on_c, 0, 64, 44
2, 579095, Note_on_c, 0, 66, 52
2, 579098, Note_on_c, 0, 43, 42
2, 579098, Note_on_c, 0, 50, 34
2, 579102, Note_off_c, 0, 62, 64
2, 579107, Control_c, 0, 64, 0
2, 579121, Note_off_c, 0, 64, 64
2, 579151, Control_c, 0, 64, 127
2, 579288, Note_on_c, 0, 67, 56
2, 579308, Control_c, 0, 64, 0
2, 579312, Note_off_c, 0, 66, 64
2, 579338, Control_c, 0, 64, 127
2, 579474, Note_on_c, 0, 57, 49
2, 579474, Note_on_c, 0, 60, 48
2, 579474, Note_on_c, 0, 64, 55
2, 579478, Note_off_c, 0, 43, 64
2, 579484, Note_off_c, 0, 50, 64
2, 579501, Note_off_c, 0, 59, 64
2, 579503, Note_off_c, 0, 55, 64
2, 579504, Note_off_c, 0, 67, 64
2, 579626, Note_on_c, 0, 66, 49
2, 579642, Note_off_c, 0, 64, 64
2, 579678, Note_on_c, 0, 43, 23
2, 579681, Note_on_c, 0, 67, 62
2, 579683, Note_on_c, 0, 50, 39
2, 579686, Note_off_c, 0, 66, 64
2, 579845, Control_c, 0, 64, 0
2, 579875, Note_on_c, 0, 69, 59
2, 579878, Note_on_c, 0, 66, 46
2, 579894, Note_off_c, 0, 67, 64
2, 579898, Control_c, 0, 64, 127
2, 580062, Note_on_c, 0, 59, 54
2, 580062, Note_on_c, 0, 65, 58
2, 580070, Note_on_c, 0, 71, 57
2, 580109, Note_off_c, 0, 60, 64
2, 580109, Note_off_c, 0, 57, 64
2, 580116, Note_off_c, 0, 69, 64
2, 580118, Control_c, 0, 64, 0
2, 580125, Note_off_c, 0, 66, 64
2, 580156, Control_c, 0, 64, 127
2, 580241, Note_on_c, 0, 73, 54
2, 580268, Note_off_c, 0, 43, 64
2, 580273, Note_off_c, 0, 50, 64
2, 580286, Note_off_c, 0, 59, 64
2, 580295, Note_on_c, 0, 74, 69
2, 580298, Note_on_c, 0, 43, 56
2, 580309, Control_c, 0, 64, 0
2, 580329, Note_off_c, 0, 73, 64
2, 580332, Control_c, 0, 64, 127
2, 580511, Note_on_c, 0, 75, 64
2, 580513, Note_on_c, 0, 66, 56
2, 580516, Note_on_c, 0, 42, 55
2, 580518, Note_off_c, 0, 65, 64
2, 580527, Control_c, 0, 64, 0
2, 580529, Note_off_c, 0, 74, 64
2, 580534, Note_off_c, 0, 43, 64
2, 580538, Control_c, 0, 64, 127
2, 580734, Note_on_c, 0, 64, 58
2, 580735, Note_on_c, 0, 76, 66
2, 580738, Note_on_c, 0, 30, 71
2, 580738, Note_on_c, 0, 68, 46
2, 580745, Control_c, 0, 64, 0
2, 580755, Control_c, 0, 64, 127
2, 580762, Note_off_c, 0, 66, 64
2, 580780, Note_off_c, 0, 75, 64
2, 580882, Note_off_c, 0, 64, 64
2, 580894, Note_on_c, 0, 73, 64
2, 580916, Note_off_c, 0, 76, 64
2, 580920, Note_off_c, 0, 68, 64
2, 580926, Note_off_c, 0, 30, 64
2, 580928, Note_off_c, 0, 42, 64
2, 580936, Note_on_c, 0, 54, 44
2, 580939, Note_on_c, 0, 68, 77
2, 580942, Note_on_c, 0, 64, 73
2, 580951, Control_c, 0, 64, 0
2, 580965, Control_c, 0, 64, 127
2, 580980, Note_off_c, 0, 73, 64
2, 581112, Note_off_c, 0, 71, 64
2, 581131, Note_on_c, 0, 70, 59
2, 581148, Note_off_c, 0, 68, 64
2, 581190, Note_off_c, 0, 64, 64
2, 581210, Note_off_c, 0, 54, 64
2, 581242, Note_on_c, 0, 54, 71
2, 581270, Note_off_c, 0, 70, 64
2, 581316, Note_off_c, 0, 54, 64
2, 581349, Control_c, 0, 64, 0
2, 581357, Note_on_c, 0, 54, 69
2, 581360, Note_on_c, 0, 66, 64
2, 581364, Note_on_c, 0, 63, 59
2, 581376, Control_c, 0, 64, 127
2, 581445, Note_off_c, 0, 66, 64
2, 581449, Note_off_c, 0, 63, 64
2, 581515, Note_on_c, 0, 68, 62
2, 581520, Note_on_c, 0, 66, 85
2, 581553, Note_off_c, 0, 66, 64
2, 581559, Control_c, 0, 64, 0
2, 581568, Note_on_c, 0, 70, 70
2, 581570, Note_on_c, 0, 63, 46
2, 581571, Note_off_c, 0, 68, 64
2, 581572, Note_on_c, 0, 66, 82
2, 581586, Control_c, 0, 64, 127
2, 581786, Note_off_c, 0, 54, 64
2, 581802, Note_on_c, 0, 71, 64
2, 581803, Note_on_c, 0, 54, 66
2, 581811, Note_off_c, 0, 70, 64
2, 581827, Control_c, 0, 64, 0
2, 581839, Control_c, 0, 64, 127
2, 582017, Note_on_c, 0, 68, 69
2, 582021, Note_on_c, 0, 64, 69
2, 582027, Note_off_c, 0, 71, 64
2, 582043, Note_off_c, 0, 63, 64
2, 582102, Note_off_c, 0, 68, 64
2, 582103, Note_off_c, 0, 66, 64
2, 582106, Note_off_c, 0, 64, 64
2, 582169, Note_on_c, 0, 70, 58
2, 582170, Note_on_c, 0, 66, 89
2, 582211, Note_off_c, 0, 66, 64
2, 582226, Note_on_c, 0, 66, 85
2, 582226, Note_on_c, 0, 68, 72
2, 582227, Control_c, 0, 64, 0
2, 582228, Note_on_c, 0, 64, 66
2, 582228, Note_on_c, 0, 71, 67
2, 582235, Control_c, 0, 64, 0
2, 582241, Control_c, 0, 64, 127
2, 582249, Control_c, 0, 64, 127
2, 582260, Note_off_c, 0, 70, 64
2, 582448, Note_off_c, 0, 54, 64
2, 582462, Note_on_c, 0, 73, 74
2, 582462, Note_on_c, 0, 70, 67
2, 582464, Note_on_c, 0, 64, 64
2, 582470, Note_on_c, 0, 54, 71
2, 582483, Note_off_c, 0, 68, 64
2, 582485, Note_off_c, 0, 71, 64
2, 582487, Control_c, 0, 64, 0
2, 582499, Control_c, 0, 64, 127
2, 582543, Note_off_c, 0, 70, 64
2, 582545, Note_off_c, 0, 73, 64
2, 582707, Note_on_c, 0, 75, 71
2, 582711, Note_on_c, 0, 63, 69
2, 582713, Note_on_c, 0, 47, 69
2, 582713, Note_on_c, 0, 71, 69
2, 582720, Control_c, 0, 64, 0
2, 582725, Note_off_c, 0, 66, 64
2, 582726, Note_off_c, 0, 54, 64
2, 582731, Note_off_c, 0, 64, 64
2, 582731, Note_off_c, 0, 64, 64
2, 582740, Control_c, 0, 64, 127
2, 582792, Note_off_c, 0, 75, 64
2, 582796, Note_off_c, 0, 63, 64
2, 582798, Note_off_c, 0, 71, 64
2, 582798, Note_off_c, 0, 47, 64
2, 582910, Note_on_c, 0, 66, 71
2, 582914, Note_on_c, 0, 71, 69
2, 582914, Note_on_c, 0, 63, 83
2, 582916, Note_on_c, 0, 78, 67
2, 582949, Note_off_c, 0, 66, 64
2, 582953, Note_off_c, 0, 63, 64
2, 582953, Note_off_c, 0, 71, 64
2, 582955, Note_off_c, 0, 78, 64
2, 582978, Note_on_c, 0, 66, 69
2, 582978, Note_on_c, 0, 71, 71
2, 582978, Note_on_c, 0, 78, 73
2, 582981, Note_on_c, 0, 63, 78
2, 582983, Control_c, 0, 64, 0
2, 583013, Control_c, 0, 64, 127
2, 583195, Note_off_c, 0, 71, 64
2, 583208, Note_on_c, 0, 80, 67
2, 583210, Note_on_c, 0, 68, 67
2, 583210, Note_on_c, 0, 64, 63
2, 583215, Note_on_c, 0, 71, 67
2, 583218, Note_off_c, 0, 78, 64
2, 583218, Note_off_c, 0, 66, 64
2, 583221, Note_off_c, 0, 63, 64
2, 583225, Control_c, 0, 64, 0
2, 583236, Control_c, 0, 64, 127
2, 583426, Note_off_c, 0, 71, 64
2, 583431, Note_on_c, 0, 66, 59
2, 583431, Note_on_c, 0, 63, 62
2, 583434, Note_on_c, 0, 78, 64
2, 583437, Note_on_c, 0, 71, 62
2, 583444, Note_off_c, 0, 80, 64
2, 583446, Note_off_c, 0, 64, 64
2, 583446, Note_off_c, 0, 68, 64
2, 583516, Note_off_c, 0, 63, 64
2, 583516, Note_off_c, 0, 66, 64
2, 583519, Note_off_c, 0, 78, 64
2, 583522, Note_off_c, 0, 71, 64
2, 583606, Note_on_c, 0, 68, 56
2, 583606, Note_on_c, 0, 59, 58
2, 583610, Note_on_c, 0, 75, 58
2, 583610, Note_on_c, 0, 63, 56
2, 583636, Note_off_c, 0, 68, 64
2, 583644, Note_off_c, 0, 63, 64
2, 583658, Note_on_c, 0, 56, 63
2, 583658, Note_on_c, 0, 63, 63
2, 583661, Note_on_c, 0, 68, 52
2, 583661, Note_on_c, 0, 71, 56
2, 583669, Note_off_c, 0, 59, 64
2, 583670, Control_c, 0, 64, 0
2, 583673, Note_off_c, 0, 75, 64
2, 583710, Control_c, 0, 64, 127
2, 583878, Note_off_c, 0, 68, 64
2, 583890, Note_on_c, 0, 64, 65
2, 583890, Note_on_c, 0, 68, 65
2, 583891, Note_on_c, 0, 76, 60
2, 583892, Note_on_c, 0, 61, 63
2, 583901, Note_off_c, 0, 63, 64
2, 583901, Note_off_c, 0, 56, 64
2, 583904, Note_off_c, 0, 71, 64
2, 583904, Control_c, 0, 64, 0
2, 583914, Control_c, 0, 64, 127
2, 584101, Note_off_c, 0, 68, 64
2, 584110, Note_on_c, 0, 59, 62
2, 584110, Note_on_c, 0, 75, 63
2, 584113, Note_on_c, 0, 63, 69
2, 584117, Note_on_c, 0, 68, 59
2, 584121, Note_off_c, 0, 64, 64
2, 584122, Note_off_c, 0, 76, 64
2, 584123, Note_off_c, 0, 61, 64
2, 584195, Note_off_c, 0, 75, 64
2, 584195, Note_off_c, 0, 59, 64
2, 584198, Note_off_c, 0, 63, 64
2, 584202, Note_off_c, 0, 68, 64
2, 584262, Note_on_c, 0, 68, 65
2, 584262, Note_on_c, 0, 63, 65
2, 584264, Note_on_c, 0, 71, 57
2, 584266, Note_on_c, 0, 56, 55
2, 584310, Note_off_c, 0, 68, 64
2, 584318, Note_on_c, 0, 59, 64
2, 584318, Note_on_c, 0, 64, 67
2, 584318, Note_on_c, 0, 52, 55
2, 584320, Note_on_c, 0, 68, 69
2, 584337, Note_off_c, 0, 63, 64
2, 584339, Note_off_c, 0, 71, 64
2, 584341, Note_off_c, 0, 56, 64
2, 584354, Control_c, 0, 64, 0
2, 584393, Control_c, 0, 64, 127
2, 584564, Note_on_c, 0, 63, 73
2, 584564, Note_on_c, 0, 71, 77
2, 584568, Note_on_c, 0, 54, 54
2, 584571, Note_off_c, 0, 52, 64
2, 584571, Note_off_c, 0, 64, 64
2, 584572, Note_on_c, 0, 47, 55
2, 584573, Note_off_c, 0, 68, 64
2, 584579, Control_c, 0, 64, 0
2, 584609, Control_c, 0, 64, 127
2, 584794, Note_on_c, 0, 64, 69
2, 584794, Note_on_c, 0, 58, 59
2, 584797, Note_on_c, 0, 73, 71
2, 584799, Note_on_c, 0, 66, 71
2, 584822, Note_off_c, 0, 59, 64
2, 584822, Note_off_c, 0, 71, 64
2, 584822, Note_off_c, 0, 63, 64
2, 584822, Control_c, 0, 64, 0
2, 584826, Note_off_c, 0, 54, 64
2, 584830, Note_off_c, 0, 47, 64
2, 584851, Control_c, 0, 64, 127
2, 584885, Note_off_c, 0, 58, 64
2, 584885, Note_off_c, 0, 64, 64
2, 584888, Note_off_c, 0, 73, 64
2, 584890, Note_off_c, 0, 66, 64
2, 585010, Note_on_c, 0, 42, 63
2, 585017, Note_on_c, 0, 75, 56
2, 585062, Note_on_c, 0, 66, 71
2, 585066, Note_on_c, 0, 58, 55
2, 585066, Note_on_c, 0, 64, 66
2, 585069, Note_on_c, 0, 73, 65
2, 585088, Note_off_c, 0, 75, 64
2, 585095, Control_c, 0, 64, 0
2, 585108, Note_off_c, 0, 42, 64
2, 585134, Control_c, 0, 64, 127
2, 585432, Note_on_c, 0, 71, 47
2, 585434, Note_off_c, 0, 66, 64
2, 585434, Note_on_c, 0, 63, 44
2, 585434, Note_on_c, 0, 59, 36
2, 585438, Note_off_c, 0, 64, 64
2, 585438, Note_off_c, 0, 58, 64
2, 585440, Note_on_c, 0, 47, 32
2, 585441, Note_off_c, 0, 73, 64
2, 585523, Note_off_c, 0, 71, 64
2, 585525, Note_off_c, 0, 59, 64
2, 585525, Note_off_c, 0, 63, 64
2, 585531, Note_off_c, 0, 47, 64
2, 585550, Note_on_c, 0, 63, 55
2, 585550, Note_on_c, 0, 71, 57
2, 585554, Note_on_c, 0, 47, 35
2, 585556, Note_on_c, 0, 59, 43
2, 585563, Control_c, 0, 64, 0
2, 585576, Control_c, 0, 64, 127
2, 585641, Note_off_c, 0, 71, 64
2, 585641, Note_off_c, 0, 63, 64
2, 585645, Note_off_c, 0, 47, 64
2, 585647, Note_off_c, 0, 59, 64
2, 585743, Note_on_c, 0, 68, 71
2, 585781, Note_off_c, 0, 68, 64
2, 585803, Note_on_c, 0, 64, 59
2, 585803, Note_on_c, 0, 68, 71
2, 585806, Note_on_c, 0, 59, 59
2, 585812, Note_on_c, 0, 52, 58
2, 585819, Control_c, 0, 64, 0
2, 585841, Control_c, 0, 64, 127
2, 586022, Note_on_c, 0, 61, 55
2, 586025, Note_on_c, 0, 70, 67
2, 586038, Note_off_c, 0, 68, 64
2, 586041, Note_off_c, 0, 59, 64
2, 586129, Note_on_c, 0, 59, 59
2, 586131, Note_on_c, 0, 68, 77
2, 586143, Note_off_c, 0, 61, 64
2, 586146, Note_off_c, 0, 70, 64
2, 586250, Note_on_c, 0, 66, 79
2, 586250, Note_on_c, 0, 58, 65
2, 586263, Note_off_c, 0, 52, 64
2, 586264, Control_c, 0, 64, 0
2, 586271, Note_off_c, 0, 68, 64
2, 586279, Note_off_c, 0, 59, 64
2, 586288, Control_c, 0, 64, 127
2, 586335, Note_off_c, 0, 58, 64
2, 586335, Note_off_c, 0, 66, 64
2, 586337, Note_off_c, 0, 64, 64
2, 586415, Note_on_c, 0, 42, 63
2, 586421, Note_on_c, 0, 73, 73
2, 586459, Note_off_c, 0, 73, 64
2, 586478, Note_on_c, 0, 58, 69
2, 586478, Note_on_c, 0, 64, 66
2, 586480, Note_on_c, 0, 66, 78
2, 586480, Note_on_c, 0, 73, 73
2, 586490, Control_c, 0, 64, 0
2, 586500, Note_off_c, 0, 42, 64
2, 586529, Control_c, 0, 64, 127
2, 586718, Note_off_c, 0, 64, 64
2, 586720, Note_off_c, 0, 66, 64
2, 586732, Note_on_c, 0, 78, 73
2, 586734, Note_on_c, 0, 42, 57
2, 586744, Note_off_c, 0, 73, 64
2, 586827, Note_off_c, 0, 58, 64
2, 586982, Note_on_c, 0, 54, 63
2, 586990, Note_on_c, 0, 64, 62
2, 586990, Note_on_c, 0, 61, 59
2, 586990, Note_on_c, 0, 77, 71
2, 587033, Control_c, 0, 64, 0
2, 587037, Note_off_c, 0, 42, 64
2, 587037, Note_off_c, 0, 78, 64
2, 587077, Control_c, 0, 64, 127
2, 587138, Note_on_c, 0, 78, 73
2, 587149, Note_off_c, 0, 77, 64
2, 587183, Note_off_c, 0, 78, 64
2, 587229, Note_on_c, 0, 78, 69
2, 587258, Note_on_c, 0, 82, 78
2, 587268, Note_off_c, 0, 78, 64
2, 587283, Note_on_c, 0, 80, 78
2, 587301, Control_c, 0, 64, 0
2, 587307, Note_off_c, 0, 82, 64
2, 587358, Control_c, 0, 64, 127
2, 587510, Control_c, 0, 64, 0
2, 587514, Note_on_c, 0, 78, 69
2, 587524, Note_off_c, 0, 80, 64
2, 587556, Control_c, 0, 64, 127
2, 587743, Note_off_c, 0, 61, 64
2, 587745, Note_off_c, 0, 54, 64
2, 587745, Note_off_c, 0, 64, 64
2, 587768, Note_on_c, 0, 83, 62
2, 587775, Note_on_c, 0, 75, 62
2, 587788, Note_off_c, 0, 78, 64
2, 587889, Note_on_c, 0, 78, 52
2, 587892, Note_on_c, 0, 69, 58
2, 587916, Note_off_c, 0, 83, 64
2, 587923, Note_off_c, 0, 75, 64
2, 587995, Note_on_c, 0, 35, 62
2, 587995, Note_on_c, 0, 42, 52
2, 588009, Note_on_c, 0, 75, 66
2, 588011, Note_on_c, 0, 66, 74
2, 588012, Note_off_c, 0, 69, 64
2, 588030, Note_off_c, 0, 78, 64
2, 588034, Control_c, 0, 64, 0
2, 588065, Control_c, 0, 64, 127
2, 588220, Note_on_c, 0, 73, 59
2, 588221, Control_c, 0, 64, 0
2, 588229, Note_on_c, 0, 64, 62
2, 588238, Note_off_c, 0, 75, 64
2, 588239, Control_c, 0, 64, 127
2, 588240, Note_off_c, 0, 66, 64
2, 588398, Note_on_c, 0, 71, 67
2, 588410, Note_off_c, 0, 73, 64
2, 588419, Note_off_c, 0, 64, 64
2, 588425, Note_on_c, 0, 73, 47
2, 588440, Note_off_c, 0, 71, 64
2, 588455, Note_on_c, 0, 63, 77
2, 588456, Note_on_c, 0, 71, 67
2, 588465, Control_c, 0, 64, 0
2, 588474, Note_off_c, 0, 73, 64
2, 588511, Control_c, 0, 64, 127
2, 588552, Note_off_c, 0, 35, 64
2, 588570, Note_off_c, 0, 42, 64
2, 588584, Note_on_c, 0, 69, 39
2, 588586, Note_on_c, 0, 70, 62
2, 588598, Note_off_c, 0, 63, 64
2, 588599, Note_off_c, 0, 71, 64
2, 588680, Note_on_c, 0, 59, 58
2, 588681, Note_on_c, 0, 71, 69
2, 588684, Note_on_c, 0, 63, 69
2, 588685, Note_on_c, 0, 47, 56
2, 588691, Control_c, 0, 64, 0
2, 588696, Note_off_c, 0, 69, 64
2, 588698, Note_off_c, 0, 70, 64
2, 588737, Control_c, 0, 64, 127
2, 588892, Note_on_c, 0, 69, 78
2, 588894, Note_on_c, 0, 78, 62
2, 588920, Note_off_c, 0, 71, 64
2, 588923, Note_off_c, 0, 63, 64
2, 589100, Control_c, 0, 64, 0
2, 589110, Note_on_c, 0, 77, 64
2, 589114, Note_on_c, 0, 68, 64
2, 589116, Note_off_c, 0, 69, 64
2, 589118, Note_off_c, 0, 78, 64
2, 589152, Control_c, 0, 64, 127
2, 589158, Note_off_c, 0, 47, 64
2, 589162, Note_off_c, 0, 59, 64
2, 589218, Note_on_c, 0, 74, 58
2, 589225, Note_on_c, 0, 65, 58
2, 589240, Note_off_c, 0, 77, 64
2, 589244, Note_off_c, 0, 68, 64
2, 589333, Note_on_c, 0, 71, 52
2, 589334, Note_on_c, 0, 62, 64
2, 589338, Note_off_c, 0, 74, 64
2, 589340, Note_on_c, 0, 35, 72
2, 589340, Note_on_c, 0, 41, 41
2, 589344, Control_c, 0, 64, 0
2, 589345, Note_off_c, 0, 65, 64
2, 589377, Control_c, 0, 64, 127
2, 589524, Note_on_c, 0, 50, 47
2, 589528, Note_on_c, 0, 61, 58
2, 589530, Note_on_c, 0, 70, 62
2, 589536, Note_off_c, 0, 71, 64
2, 589537, Note_off_c, 0, 62, 64
2, 589541, Control_c, 0, 64, 127
2, 589639, Note_off_c, 0, 50, 64
2, 589640, Note_on_c, 0, 59, 62
2, 589643, Note_on_c, 0, 68, 46
2, 589650, Note_off_c, 0, 61, 64
2, 589652, Note_off_c, 0, 70, 64
2, 589692, Note_on_c, 0, 66, 77
2, 589707, Note_off_c, 0, 68, 64
2, 589710, Note_off_c, 0, 59, 64
2, 589712, Note_off_c, 0, 41, 64
2, 589718, Note_off_c, 0, 35, 64
2, 589720, Note_on_c, 0, 68, 62
2, 589734, Note_off_c, 0, 66, 64
2, 589756, Note_on_c, 0, 58, 64
2, 589761, Note_on_c, 0, 66, 44
2, 589769, Note_off_c, 0, 68, 64
2, 589852, Note_on_c, 0, 64, 58
2, 589855, Note_on_c, 0, 65, 67
2, 589863, Note_off_c, 0, 66, 64
2, 589868, Note_off_c, 0, 58, 64
2, 589952, Note_on_c, 0, 52, 50
2, 589955, Note_on_c, 0, 58, 74
2, 589955, Note_on_c, 0, 66, 55
2, 589956, Note_on_c, 0, 42, 50
2, 589966, Note_off_c, 0, 64, 64
2, 589969, Note_off_c, 0, 65, 64
2, 589971, Control_c, 0, 64, 0
2, 590014, Control_c, 0, 64, 127
2, 590058, Control_c, 0, 64, 127
2, 590152, Note_on_c, 0, 73, 63
2, 590154, Note_on_c, 0, 64, 56
2, 590157, Note_off_c, 0, 52, 64
2, 590157, Note_on_c, 0, 35, 50
2, 590160, Note_off_c, 0, 66, 64
2, 590160, Note_off_c, 0, 58, 64
2, 590161, Note_off_c, 0, 42, 64
2, 590172, Control_c, 0, 64, 0
2, 590194, Control_c, 0, 64, 127
2, 590350, Note_off_c, 0, 35, 64
2, 590357, Note_on_c, 0, 63, 64
2, 590360, Note_on_c, 0, 71, 63
2, 590368, Note_off_c, 0, 64, 64
2, 590378, Note_off_c, 0, 73, 64
2, 590453, Note_on_c, 0, 57, 58
2, 590457, Note_on_c, 0, 66, 58
2, 590485, Note_off_c, 0, 63, 64
2, 590488, Note_off_c, 0, 71, 64
2, 590556, Note_on_c, 0, 47, 41
2, 590556, Note_on_c, 0, 54, 49
2, 590558, Note_on_c, 0, 35, 57
2, 590558, Note_on_c, 0, 63, 77
2, 590578, Note_off_c, 0, 57, 64
2, 590580, Control_c, 0, 64, 0
2, 590582, Note_off_c, 0, 66, 64
2, 590613, Control_c, 0, 64, 127
2, 590749, Note_off_c, 0, 47, 64
2, 590760, Control_c, 0, 64, 0
2, 590764, Note_on_c, 0, 61, 66
2, 590764, Note_on_c, 0, 40, 65
2, 590764, Note_on_c, 0, 56, 64
2, 590764, Note_on_c, 0, 47, 65
2, 590774, Note_off_c, 0, 35, 64
2, 590777, Note_off_c, 0, 54, 64
2, 590779, Note_off_c, 0, 63, 64
2, 590792, Control_c, 0, 64, 0
2, 590826, Control_c, 0, 64, 127
2, 590967, Note_off_c, 0, 47, 64
2, 590972, Note_on_c, 0, 57, 58
2, 590972, Note_on_c, 0, 42, 65
2, 590976, Note_on_c, 0, 59, 65
2, 590976, Note_on_c, 0, 47, 58
2, 590980, Control_c, 0, 64, 0
2, 590987, Note_off_c, 0, 56, 64
2, 590987, Note_off_c, 0, 40, 64
2, 590987, Note_off_c, 0, 61, 64
2, 590998, Control_c, 0, 64, 0
2, 591041, Control_c, 0, 64, 127
2, 591080, Note_on_c, 0, 63, 59
2, 591097, Note_off_c, 0, 59, 64
2, 591193, Note_on_c, 0, 66, 64
2, 591196, Note_on_c, 0, 35, 59
2, 591208, Note_off_c, 0, 63, 64
2, 591215, Control_c, 0, 64, 0
2, 591231, Note_off_c, 0, 42, 64
2, 591235, Note_off_c, 0, 47, 64
2, 591255, Control_c, 0, 64, 127
2, 591408, Note_on_c, 0, 68, 62
2, 591427, Note_off_c, 0, 66, 64
2, 591504, Note_on_c, 0, 66, 51
2, 591517, Note_off_c, 0, 68, 64
2, 591590, Control_c, 0, 64, 0
2, 591600, Note_on_c, 0, 56, 63
2, 591601, Note_on_c, 0, 65, 69
2, 591615, Note_off_c, 0, 66, 64
2, 591617, Control_c, 0, 64, 127
2, 591620, Note_off_c, 0, 35, 64
2, 591621, Note_off_c, 0, 57, 64
2, 591708, Note_on_c, 0, 59, 73
2, 591709, Note_on_c, 0, 68, 70
2, 591728, Note_off_c, 0, 56, 64
2, 591729, Note_off_c, 0, 65, 64
2, 591816, Note_on_c, 0, 62, 70
2, 591821, Note_on_c, 0, 71, 83
2, 591821, Note_on_c, 0, 37, 58
2, 591836, Note_off_c, 0, 59, 64
2, 591836, Control_c, 0, 64, 0
2, 591837, Note_off_c, 0, 68, 64
2, 591875, Control_c, 0, 64, 127
2, 592008, Note_on_c, 0, 53, 55
2, 592010, Note_on_c, 0, 61, 58
2, 592010, Note_on_c, 0, 70, 62
2, 592017, Note_off_c, 0, 62, 64
2, 592022, Note_off_c, 0, 71, 64
2, 592042, Note_off_c, 0, 37, 64
2, 592131, Note_on_c, 0, 59, 69
2, 592131, Note_on_c, 0, 68, 59
2, 592137, Note_off_c, 0, 70, 64
2, 592137, Note_off_c, 0, 61, 64
2, 592205, Control_c, 0, 64, 0
2, 592232, Note_on_c, 0, 66, 39
2, 592232, Note_on_c, 0, 64, 39
2, 592236, Note_on_c, 0, 54, 62
2, 592237, Control_c, 0, 64, 0
2, 592239, Note_on_c, 0, 58, 74
2, 592247, Note_off_c, 0, 53, 64
2, 592257, Note_off_c, 0, 68, 64
2, 592257, Note_off_c, 0, 59, 64
2, 592258, Control_c, 0, 64, 127
2, 592336, Note_on_c, 0, 61, 73
2, 592343, Note_on_c, 0, 70, 69
2, 592358, Note_off_c, 0, 64, 64
2, 592358, Note_off_c, 0, 66, 64
2, 592365, Note_off_c, 0, 58, 64
2, 592394, Note_on_c, 0, 49, 50
2, 592425, Note_off_c, 0, 54, 64
2, 592446, Note_on_c, 0, 73, 77
2, 592448, Note_on_c, 0, 64, 69
2, 592450, Note_on_c, 0, 42, 81
2, 592456, Note_off_c, 0, 61, 64
2, 592461, Control_c, 0, 64, 0
2, 592463, Note_off_c, 0, 70, 64
2, 592476, Note_off_c, 0, 49, 64
2, 592481, Control_c, 0, 64, 127
2, 592552, Note_on_c, 0, 68, 64
2, 592553, Note_on_c, 0, 76, 62
2, 592568, Note_off_c, 0, 73, 64
2, 592570, Note_off_c, 0, 64, 64
2, 592638, Note_on_c, 0, 75, 69
2, 592640, Note_on_c, 0, 66, 73
2, 592646, Note_off_c, 0, 68, 64
2, 592647, Note_off_c, 0, 76, 64
2, 592661, Note_off_c, 0, 42, 64
2, 592744, Note_on_c, 0, 73, 58
2, 592748, Note_on_c, 0, 64, 66
2, 592750, Note_off_c, 0, 75, 64
2, 592752, Note_off_c, 0, 66, 64
2, 592812, Control_c, 0, 64, 0
2, 592834, Note_on_c, 0, 75, 65
2, 592836, Note_on_c, 0, 66, 73
2, 592845, Note_on_c, 0, 47, 52
2, 592865, Note_off_c, 0, 73, 64
2, 592869, Note_off_c, 0, 64, 64
2, 592869, Control_c, 0, 64, 127
2, 592919, Note_off_c, 0, 75, 64
2, 592921, Note_off_c, 0, 66, 64
2, 592978, Note_on_c, 0, 54, 54
2, 592983, Note_on_c, 0, 63, 58
2, 592983, Note_on_c, 0, 71, 54
2, 593011, Note_off_c, 0, 47, 64
2, 593019, Note_on_c, 0, 66, 64
2, 593025, Note_on_c, 0, 75, 69
2, 593025, Note_on_c, 0, 59, 77
2, 593037, Control_c, 0, 64, 0
2, 593047, Note_off_c, 0, 54, 64
2, 593052, Note_off_c, 0, 71, 64
2, 593052, Note_off_c, 0, 63, 64
2, 593093, Control_c, 0, 64, 127
2, 593241, Control_c, 0, 64, 0
2, 593244, Note_on_c, 0, 76, 67
2, 593245, Note_on_c, 0, 68, 64
2, 593251, Note_on_c, 0, 52, 65
2, 593261, Note_off_c, 0, 66, 64
2, 593267, Note_off_c, 0, 59, 64
2, 593267, Note_off_c, 0, 75, 64
2, 593284, Control_c, 0, 64, 127
2, 593434, Control_c, 0, 64, 0
2, 593440, Note_on_c, 0, 64, 59
2, 593441, Note_on_c, 0, 66, 62
2, 593444, Note_on_c, 0, 58, 69
2, 593446, Note_on_c, 0, 54, 77
2, 593456, Note_off_c, 0, 76, 64
2, 593457, Note_off_c, 0, 68, 64
2, 593463, Note_off_c, 0, 52, 64
2, 593476, Control_c, 0, 64, 127
2, 593557, Note_off_c, 0, 64, 64
2, 593558, Note_off_c, 0, 66, 64
2, 593561, Note_off_c, 0, 58, 64
2, 593600, Note_on_c, 0, 61, 73
2, 593604, Note_on_c, 0, 70, 73
2, 593605, Note_on_c, 0, 49, 73
2, 593628, Note_off_c, 0, 54, 64
2, 593648, Note_on_c, 0, 42, 90
2, 593649, Note_on_c, 0, 64, 64
2, 593653, Note_on_c, 0, 73, 73
2, 593667, Control_c, 0, 64, 0
2, 593672, Note_off_c, 0, 61, 64
2, 593676, Note_off_c, 0, 70, 64
2, 593677, Note_off_c, 0, 49, 64
2, 593703, Control_c, 0, 64, 127
2, 593742, Note_on_c, 0, 68, 74
2, 593742, Note_on_c, 0, 76, 64
2, 593759, Note_off_c, 0, 73, 64
2, 593761, Note_off_c, 0, 64, 64
2, 593840, Note_on_c, 0, 75, 60
2, 593844, Note_on_c, 0, 58, 60
2, 593844, Note_on_c, 0, 66, 73
2, 593860, Note_off_c, 0, 76, 64
2, 593860, Note_off_c, 0, 68, 64
2, 593875, Note_off_c, 0, 42, 64
2, 593931, Note_on_c, 0, 64, 62
2, 593935, Note_on_c, 0, 73, 62
2, 593947, Note_off_c, 0, 75, 64
2, 593951, Note_off_c, 0, 66, 64
2, 593959, Note_off_c, 0, 58, 64
2, 594036, Note_on_c, 0, 47, 64
2, 594039, Note_on_c, 0, 75, 71
2, 594040, Note_on_c, 0, 66, 77
2, 594050, Control_c, 0, 64, 0
2, 594051, Note_off_c, 0, 64, 64
2, 594055, Note_off_c, 0, 73, 64
2, 594082, Control_c, 0, 64, 127
2, 594133, Note_off_c, 0, 75, 64
2, 594134, Note_off_c, 0, 66, 64
2, 594184, Note_on_c, 0, 54, 58
2, 594184, Note_on_c, 0, 63, 64
2, 594186, Note_on_c, 0, 71, 47
2, 594224, Note_on_c, 0, 59, 67
2, 594224, Note_on_c, 0, 75, 70
2, 594224, Note_on_c, 0, 66, 65
2, 594229, Control_c, 0, 64, 0
2, 594245, Note_off_c, 0, 63, 64
2, 594245, Note_off_c, 0, 54, 64
2, 594247, Note_off_c, 0, 71, 64
2, 594271, Control_c, 0, 64, 127
2, 594384, Note_on_c, 0, 70, 62
2, 594388, Note_on_c, 0, 78, 56
2, 594392, Note_off_c, 0, 66, 64
2, 594392, Note_off_c, 0, 75, 64
2, 594392, Note_off_c, 0, 59, 64
2, 594424, Note_off_c, 0, 47, 64
2, 594424, Note_on_c, 0, 52, 64
2, 594430, Note_on_c, 0, 76, 71
2, 594430, Note_on_c, 0, 68, 78
2, 594447, Note_off_c, 0, 70, 64
2, 594451, Note_off_c, 0, 78, 64
2, 594454, Control_c, 0, 64, 0
2, 594480, Control_c, 0, 64, 127
2, 594632, Note_on_c, 0, 54, 73
2, 594634, Note_on_c, 0, 58, 73
2, 594636, Note_on_c, 0, 64, 69
2, 594636, Note_on_c, 0, 66, 69
2, 594639, Control_c, 0, 64, 0
2, 594662, Control_c, 0, 64, 127
2, 594665, Note_off_c, 0, 52, 64
2, 594671, Note_off_c, 0, 68, 64
2, 594671, Note_off_c, 0, 76, 64
2, 594678, Control_c, 0, 64, 127
2, 594719, Note_off_c, 0, 58, 64
2, 594721, Note_off_c, 0, 66, 64
2, 594721, Note_off_c, 0, 64, 64
2, 594788, Note_on_c, 0, 70, 67
2, 594788, Note_on_c, 0, 49, 81
2, 594792, Note_on_c, 0, 61, 77
2, 594816, Note_off_c, 0, 54, 64
2, 594848, Note_on_c, 0, 64, 64
2, 594850, Note_on_c, 0, 73, 63
2, 594856, Note_on_c, 0, 42, 77
2, 594860, Note_off_c, 0, 70, 64
2, 594864, Note_off_c, 0, 61, 64
2, 594865, Control_c, 0, 64, 0
2, 594874, Note_off_c, 0, 49, 64
2, 594891, Control_c, 0, 64, 127
2, 594932, Note_on_c, 0, 68, 73
2, 594932, Note_on_c, 0, 76, 69
2, 594954, Note_off_c, 0, 64, 64
2, 594956, Note_off_c, 0, 73, 64
2, 595032, Note_on_c, 0, 64, 58
2, 595032, Note_on_c, 0, 54, 58
2, 595032, Note_on_c, 0, 71, 74
2, 595032, Note_on_c, 0, 80, 70
2, 595033, Control_c, 0, 64, 127
2, 595040, Note_off_c, 0, 42, 64
2, 595048, Control_c, 0, 64, 0
2, 595054, Note_off_c, 0, 76, 64
2, 595054, Note_off_c, 0, 68, 64
2, 595077, Control_c, 0, 64, 127
2, 595140, Note_on_c, 0, 70, 69
2, 595140, Note_on_c, 0, 73, 57
2, 595140, Note_on_c, 0, 78, 57
2, 595157, Note_off_c, 0, 80, 64
2, 595157, Note_off_c, 0, 71, 64
2, 595207, Note_off_c, 0, 54, 64
2, 595207, Note_off_c, 0, 64, 64
2, 595232, Note_on_c, 0, 47, 65
2, 595232, Note_on_c, 0, 63, 74
2, 595236, Note_on_c, 0, 71, 74
2, 595236, Note_on_c, 0, 75, 85
2, 595248, Control_c, 0, 64, 0
2, 595262, Note_off_c, 0, 78, 64
2, 595262, Note_off_c, 0, 73, 64
2, 595262, Note_off_c, 0, 70, 64
2, 595284, Control_c, 0, 64, 127
2, 595317, Note_off_c, 0, 63, 64
2, 595321, Note_off_c, 0, 75, 64
2, 595321, Note_off_c, 0, 71, 64
2, 595388, Note_on_c, 0, 71, 55
2, 595392, Note_on_c, 0, 63, 63
2, 595392, Note_on_c, 0, 54, 50
2, 595417, Note_off_c, 0, 71, 64
2, 595421, Note_off_c, 0, 63, 64
2, 595430, Note_on_c, 0, 78, 80
2, 595432, Note_on_c, 0, 66, 65
2, 595432, Note_on_c, 0, 71, 65
2, 595432, Note_on_c, 0, 63, 73
2, 595436, Note_off_c, 0, 47, 64
2, 595440, Control_c, 0, 64, 127
2, 595442, Control_c, 0, 64, 0
2, 595459, Note_off_c, 0, 54, 64
2, 595472, Control_c, 0, 64, 127
2, 595637, Note_off_c, 0, 71, 64
2, 595653, Note_on_c, 0, 65, 57
2, 595653, Note_on_c, 0, 80, 79
2, 595658, Note_on_c, 0, 62, 64
2, 595659, Note_on_c, 0, 71, 63
2, 595665, Note_off_c, 0, 78, 64
2, 595667, Note_off_c, 0, 63, 64
2, 595667, Note_off_c, 0, 66, 64
2, 595672, Control_c, 0, 64, 0
2, 595716, Control_c, 0, 64, 127
2, 595861, Note_on_c, 0, 66, 52
2, 595862, Note_off_c, 0, 71, 64
2, 595862, Note_on_c, 0, 78, 60
2, 595864, Note_on_c, 0, 63, 56
2, 595871, Note_on_c, 0, 71, 63
2, 595882, Control_c, 0, 64, 0
2, 595888, Note_off_c, 0, 80, 64
2, 595888, Note_off_c, 0, 65, 64
2, 595893, Note_off_c, 0, 62, 64
2, 595907, Control_c, 0, 64, 127
2, 595946, Note_off_c, 0, 66, 64
2, 595947, Note_off_c, 0, 78, 64
2, 595949, Note_off_c, 0, 63, 64
2, 595956, Note_off_c, 0, 71, 64
2, 596008, Note_on_c, 0, 71, 63
2, 596008, Note_on_c, 0, 66, 63
2, 596009, Note_on_c, 0, 59, 58
2, 596009, Note_on_c, 0, 75, 73
2, 596044, Note_off_c, 0, 66, 64
2, 596044, Note_off_c, 0, 71, 64
2, 596052, Note_on_c, 0, 63, 51
2, 596055, Note_on_c, 0, 78, 80
2, 596056, Note_on_c, 0, 66, 70
2, 596056, Note_on_c, 0, 71, 70
2, 596069, Note_off_c, 0, 75, 64
2, 596069, Control_c, 0, 64, 0
2, 596073, Note_off_c, 0, 59, 64
2, 596114, Control_c, 0, 64, 127
2, 596269, Note_off_c, 0, 71, 64
2, 596273, Note_on_c, 0, 80, 66
2, 596276, Note_on_c, 0, 65, 56
2, 596276, Note_on_c, 0, 62, 56
2, 596281, Note_on_c, 0, 71, 59
2, 596283, Note_off_c, 0, 63, 64
2, 596286, Note_off_c, 0, 78, 64
2, 596287, Note_off_c, 0, 66, 64
2, 596295, Control_c, 0, 64, 0
2, 596320, Control_c, 0, 64, 127
2, 596478, Note_off_c, 0, 71, 64
2, 596485, Note_on_c, 0, 66, 49
2, 596488, Note_on_c, 0, 63, 54
2, 596488, Note_on_c, 0, 71, 58
2, 596488, Note_on_c, 0, 78, 59
2, 596504, Note_off_c, 0, 80, 64
2, 596506, Control_c, 0, 64, 0
2, 596507, Note_off_c, 0, 62, 64
2, 596507, Note_off_c, 0, 65, 64
2, 596519, Control_c, 0, 64, 127
2, 596570, Note_off_c, 0, 66, 64
2, 596573, Note_off_c, 0, 78, 64
2, 596573, Note_off_c, 0, 71, 64
2, 596573, Note_off_c, 0, 63, 64
2, 596624, Note_on_c, 0, 59, 58
2, 596628, Note_on_c, 0, 71, 66
2, 596628, Note_on_c, 0, 66, 62
2, 596628, Note_on_c, 0, 75, 74
2, 596664, Note_off_c, 0, 66, 64
2, 596664, Note_off_c, 0, 71, 64
2, 596680, Note_on_c, 0, 71, 69
2, 596680, Note_on_c, 0, 63, 69
2, 596680, Note_on_c, 0, 66, 69
2, 596680, Note_on_c, 0, 78, 77
2, 596684, Note_off_c, 0, 59, 64
2, 596688, Note_off_c, 0, 75, 64
2, 596689, Control_c, 0, 64, 0
2, 596699, Control_c, 0, 64, 127
2, 596723, Control_c, 0, 64, 127
2, 596892, Note_on_c, 0, 61, 27
2, 596892, Note_on_c, 0, 65, 51
2, 596895, Note_off_c, 0, 71, 64
2, 596897, Note_on_c, 0, 80, 67
2, 596902, Note_on_c, 0, 71, 66
2, 596907, Control_c, 0, 64, 0
2, 596909, Note_off_c, 0, 78, 64
2, 596917, Note_off_c, 0, 66, 64
2, 596917, Note_off_c, 0, 63, 64
2, 596934, Control_c, 0, 64, 127
2, 597099, Note_on_c, 0, 78, 59
2, 597099, Note_on_c, 0, 70, 66
2, 597102, Note_on_c, 0, 66, 52
2, 597105, Note_on_c, 0, 54, 54
2, 597106, Note_off_c, 0, 80, 64
2, 597109, Note_off_c, 0, 65, 64
2, 597111, Note_off_c, 0, 71, 64
2, 597112, Control_c, 0, 64, 0
2, 597113, Note_off_c, 0, 61, 64
2, 597135, Control_c, 0, 64, 127
2, 597184, Note_off_c, 0, 70, 64
2, 597184, Note_off_c, 0, 78, 64
2, 597187, Note_off_c, 0, 66, 64
2, 597190, Note_off_c, 0, 54, 64
2, 597240, Note_on_c, 0, 61, 56
2, 597240, Note_on_c, 0, 65, 56
2, 597241, Note_on_c, 0, 80, 62
2, 597244, Note_on_c, 0, 71, 56
2, 597279, Control_c, 0, 64, 0
2, 597292, Note_on_c, 0, 66, 88
2, 597295, Note_on_c, 0, 78, 83
2, 597295, Note_on_c, 0, 70, 88
2, 597300, Note_off_c, 0, 65, 64
2, 597300, Note_off_c, 0, 61, 64
2, 597301, Note_off_c, 0, 80, 64
2, 597301, Note_on_c, 0, 54, 63
2, 597304, Note_off_c, 0, 71, 64
2, 597318, Control_c, 0, 64, 127
2, 597535, Note_on_c, 0, 71, 54
2, 597536, Note_on_c, 0, 61, 40
2, 597536, Note_on_c, 0, 65, 37
2, 597539, Note_on_c, 0, 80, 67
2, 597548, Note_off_c, 0, 66, 64
2, 597550, Control_c, 0, 64, 0
2, 597551, Note_off_c, 0, 70, 64
2, 597551, Note_off_c, 0, 78, 64
2, 597557, Note_off_c, 0, 54, 64
2, 597576, Control_c, 0, 64, 127
2, 597763, Control_c, 0, 64, 0
2, 597780, Note_on_c, 0, 54, 49
2, 597780, Note_on_c, 0, 66, 42
2, 597780, Note_on_c, 0, 70, 56
2, 597780, Note_on_c, 0, 78, 57
2, 597795, Note_off_c, 0, 71, 64
2, 597796, Note_off_c, 0, 65, 64
2, 597796, Note_off_c, 0, 61, 64
2, 597799, Note_off_c, 0, 80, 64
2, 597801, Control_c, 0, 64, 127
2, 597865, Note_off_c, 0, 78, 64
2, 597865, Note_off_c, 0, 70, 64
2, 597865, Note_off_c, 0, 66, 64
2, 597865, Note_off_c, 0, 54, 64
2, 597956, Note_on_c, 0, 66, 62
2, 597956, Note_on_c, 0, 73, 58
2, 597956, Note_on_c, 0, 76, 64
2, 597956, Note_on_c, 0, 78, 62
2, 598003, Note_off_c, 0, 66, 64
2, 598016, Note_on_c, 0, 75, 69
2, 598016, Note_on_c, 0, 59, 59
2, 598019, Note_on_c, 0, 83, 66
2, 598020, Note_on_c, 0, 66, 69
2, 598022, Note_off_c, 0, 78, 64
2, 598022, Note_off_c, 0, 76, 64
2, 598022, Note_off_c, 0, 73, 64
2, 598025, Control_c, 0, 64, 0
2, 598037, Control_c, 0, 64, 0
2, 598092, Control_c, 0, 64, 127
2, 598225, Note_on_c, 0, 82, 67
2, 598228, Note_on_c, 0, 63, 52
2, 598228, Note_on_c, 0, 67, 50
2, 598231, Note_on_c, 0, 73, 71
2, 598237, Note_off_c, 0, 59, 64
2, 598237, Note_off_c, 0, 75, 64
2, 598240, Note_off_c, 0, 83, 64
2, 598241, Note_off_c, 0, 66, 64
2, 598258, Control_c, 0, 64, 0
2, 598291, Control_c, 0, 64, 127
2, 598436, Note_on_c, 0, 56, 67
2, 598436, Note_on_c, 0, 71, 65
2, 598436, Note_on_c, 0, 68, 55
2, 598437, Note_on_c, 0, 80, 63
2, 598446, Note_off_c, 0, 82, 64
2, 598449, Note_off_c, 0, 67, 64
2, 598449, Note_off_c, 0, 63, 64
2, 598452, Note_off_c, 0, 73, 64
2, 598469, Control_c, 0, 64, 0
2, 598512, Control_c, 0, 64, 127
2, 598521, Note_off_c, 0, 68, 64
2, 598521, Note_off_c, 0, 71, 64
2, 598521, Note_off_c, 0, 56, 64
2, 598522, Note_off_c, 0, 80, 64
2, 598608, Note_on_c, 0, 73, 57
2, 598608, Note_on_c, 0, 79, 55
2, 598611, Note_on_c, 0, 63, 49
2, 598611, Note_on_c, 0, 70, 51
2, 598656, Note_on_c, 0, 56, 77
2, 598660, Note_on_c, 0, 71, 71
2, 598660, Note_on_c, 0, 68, 71
2, 598661, Note_on_c, 0, 80, 77
2, 598664, Control_c, 0, 64, 0
2, 598676, Note_off_c, 0, 79, 64
2, 598676, Note_off_c, 0, 73, 64
2, 598679, Note_off_c, 0, 70, 64
2, 598679, Note_off_c, 0, 63, 64
2, 598679, Control_c, 0, 64, 127
2, 598715, Control_c, 0, 64, 127
2, 598876, Note_on_c, 0, 61, 59
2, 598877, Note_on_c, 0, 73, 71
2, 598880, Note_on_c, 0, 65, 62
2, 598882, Note_on_c, 0, 82, 67
2, 598894, Note_off_c, 0, 56, 64
2, 598897, Control_c, 0, 64, 0
2, 598898, Note_off_c, 0, 68, 64
2, 598898, Note_off_c, 0, 71, 64
2, 598899, Note_off_c, 0, 80, 64
2, 598928, Control_c, 0, 64, 127
2, 598982, Note_on_c, 0, 71, 69
2, 598994, Note_off_c, 0, 73, 64
2, 599096, Note_on_c, 0, 54, 57
2, 599096, Note_on_c, 0, 78, 67
2, 599100, Note_on_c, 0, 66, 73
2, 599100, Note_on_c, 0, 70, 73
2, 599109, Note_off_c, 0, 61, 64
2, 599109, Control_c, 0, 64, 0
2, 599110, Note_off_c, 0, 71, 64
2, 599113, Note_off_c, 0, 65, 64
2, 599115, Note_off_c, 0, 82, 64
2, 599141, Control_c, 0, 64, 127
2, 599181, Note_off_c, 0, 78, 64
2, 599181, Note_off_c, 0, 54, 64
2, 599185, Note_off_c, 0, 70, 64
2, 599185, Note_off_c, 0, 66, 64
2, 599276, Note_on_c, 0, 61, 50
2, 599276, Note_on_c, 0, 68, 51
2, 599276, Note_on_c, 0, 71, 44
2, 599276, Note_on_c, 0, 77, 57
2, 599316, Control_c, 0, 64, 0
2, 599328, Note_on_c, 0, 54, 77
2, 599328, Note_on_c, 0, 78, 74
2, 599332, Note_on_c, 0, 66, 71
2, 599336, Note_on_c, 0, 70, 71
2, 599344, Control_c, 0, 64, 127
2, 599350, Note_off_c, 0, 77, 64
2, 599350, Note_off_c, 0, 71, 64
2, 599350, Note_off_c, 0, 68, 64
2, 599350, Note_off_c, 0, 61, 64
2, 599372, Control_c, 0, 64, 127
2, 599548, Note_on_c, 0, 63, 62
2, 599548, Note_on_c, 0, 80, 69
2, 599548, Note_on_c, 0, 69, 67
2, 599548, Note_on_c, 0, 59, 64
2, 599548, Control_c, 0, 64, 0
2, 599570, Note_off_c, 0, 78, 64
2, 599570, Note_off_c, 0, 54, 64
2, 599574, Note_off_c, 0, 66, 64
2, 599578, Note_off_c, 0, 70, 64
2, 599586, Control_c, 0, 64, 127
2, 599778, Note_on_c, 0, 52, 49
2, 599778, Note_on_c, 0, 64, 64
2, 599782, Note_on_c, 0, 68, 55
2, 599784, Note_on_c, 0, 76, 48
2, 599785, Control_c, 0, 64, 0
2, 599794, Note_off_c, 0, 59, 64
2, 599794, Note_off_c, 0, 69, 64
2, 599794, Note_off_c, 0, 80, 64
2, 599794, Note_off_c, 0, 63, 64
2, 599797, Control_c, 0, 64, 0
2, 599839, Control_c, 0, 64, 127
2, 599863, Note_off_c, 0, 64, 64
2, 599863, Note_off_c, 0, 52, 64
2, 599867, Note_off_c, 0, 68, 64
2, 599869, Note_off_c, 0, 76, 64
2, 599930, Note_on_c, 0, 64, 57
2, 599930, Note_on_c, 0, 58, 44
2, 599934, Note_on_c, 0, 61, 44
2, 599934, Note_on_c, 0, 73, 57
2, 599982, Note_on_c, 0, 68, 66
2, 599982, Note_on_c, 0, 46, 66
2, 599986, Note_on_c, 0, 76, 66
2, 600002, Control_c, 0, 64, 0
2, 600014, Note_off_c, 0, 58, 64
2, 600014, Note_off_c, 0, 64, 64
2, 600018, Note_off_c, 0, 73, 64
2, 600018, Note_off_c, 0, 61, 64
2, 600018, Control_c, 0, 64, 0
2, 600049, Control_c, 0, 64, 127
2, 600220, Note_on_c, 0, 75, 70
2, 600224, Note_on_c, 0, 51, 64
2, 600224, Note_on_c, 0, 58, 41
2, 600224, Note_on_c, 0, 67, 87
2, 600236, Note_off_c, 0, 46, 64
2, 600236, Note_off_c, 0, 68, 64
2, 600239, Control_c, 0, 64, 0
2, 600240, Note_off_c, 0, 76, 64
2, 600271, Control_c, 0, 64, 127
2, 600349, Note_on_c, 0, 73, 77
2, 600355, Note_off_c, 0, 75, 64
2, 600446, Note_on_c, 0, 44, 77
2, 600454, Note_on_c, 0, 71, 80
2, 600454, Note_on_c, 0, 68, 73
2, 600454, Note_on_c, 0, 59, 73
2, 600465, Note_off_c, 0, 73, 64
2, 600471, Control_c, 0, 64, 0
2, 600478, Note_off_c, 0, 67, 64
2, 600478, Note_off_c, 0, 58, 64
2, 600478, Note_off_c, 0, 51, 64
2, 600508, Control_c, 0, 64, 127
2, 600531, Note_off_c, 0, 44, 64
2, 600539, Note_off_c, 0, 59, 64
2, 600539, Note_off_c, 0, 68, 64
2, 600539, Note_off_c, 0, 71, 64
2, 600614, Note_on_c, 0, 59, 73
2, 600618, Note_on_c, 0, 68, 64
2, 600621, Note_on_c, 0, 75, 59
2, 600670, Note_on_c, 0, 63, 52
2, 600670, Note_on_c, 0, 56, 52
2, 600670, Control_c, 0, 64, 0
2, 600674, Note_on_c, 0, 71, 74
2, 600677, Note_on_c, 0, 80, 77
2, 600679, Note_off_c, 0, 59, 64
2, 600683, Note_off_c, 0, 68, 64
2, 600686, Note_off_c, 0, 75, 64
2, 600690, Control_c, 0, 64, 0
2, 600736, Control_c, 0, 64, 127
2, 600850, Note_on_c, 0, 47, 63
2, 600874, Note_off_c, 0, 63, 64
2, 600878, Note_on_c, 0, 78, 69
2, 600878, Note_on_c, 0, 69, 69
2, 600882, Note_on_c, 0, 63, 73
2, 600894, Note_off_c, 0, 56, 64
2, 600898, Note_off_c, 0, 71, 64
2, 600901, Note_off_c, 0, 80, 64
2, 600917, Control_c, 0, 64, 0
2, 600943, Note_off_c, 0, 47, 64
2, 600951, Control_c, 0, 64, 127
2, 601108, Control_c, 0, 64, 0
2, 601110, Note_on_c, 0, 64, 64
2, 601113, Note_on_c, 0, 68, 73
2, 601113, Note_on_c, 0, 76, 64
2, 601114, Note_on_c, 0, 52, 47
2, 601114, Note_on_c, 0, 59, 41
2, 601139, Note_off_c, 0, 69, 64
2, 601139, Note_off_c, 0, 78, 64
2, 601143, Note_off_c, 0, 63, 64
2, 601146, Control_c, 0, 64, 127
2, 601195, Note_off_c, 0, 64, 64
2, 601198, Note_off_c, 0, 76, 64
2, 601198, Note_off_c, 0, 68, 64
2, 601199, Note_off_c, 0, 59, 64
2, 601199, Note_off_c, 0, 52, 64
2, 601270, Note_on_c, 0, 75, 60
2, 601270, Note_on_c, 0, 69, 62
2, 601273, Note_on_c, 0, 59, 63
2, 601274, Note_on_c, 0, 54, 50
2, 601311, Note_off_c, 0, 59, 64
2, 601318, Note_on_c, 0, 68, 66
2, 601318, Note_on_c, 0, 76, 56
2, 601318, Note_on_c, 0, 52, 59
2, 601318, Note_on_c, 0, 59, 64
2, 601334, Note_off_c, 0, 69, 64
2, 601334, Note_off_c, 0, 75, 64
2, 601338, Note_off_c, 0, 54, 64
2, 601340, Control_c, 0, 64, 0
2, 601371, Control_c, 0, 64, 127
2, 601494, Note_on_c, 0, 46, 75
2, 601529, Note_off_c, 0, 68, 64
2, 601534, Note_on_c, 0, 61, 74
2, 601537, Note_on_c, 0, 78, 71
2, 601541, Note_on_c, 0, 68, 73
2, 601547, Control_c, 0, 64, 0
2, 601560, Note_off_c, 0, 59, 64
2, 601560, Note_off_c, 0, 52, 64
2, 601560, Note_off_c, 0, 76, 64
2, 601583, Control_c, 0, 64, 127
2, 601592, Note_off_c, 0, 46, 64
2, 601642, Note_on_c, 0, 76, 62
2, 601658, Note_off_c, 0, 78, 64
2, 601752, Note_off_c, 0, 61, 64
2, 601752, Control_c, 0, 64, 0
2, 601754, Note_on_c, 0, 67, 34
2, 601754, Note_on_c, 0, 51, 69
2, 601757, Note_on_c, 0, 58, 73
2, 601757, Note_on_c, 0, 75, 77
2, 601768, Note_off_c, 0, 68, 64
2, 601770, Note_off_c, 0, 76, 64
2, 601791, Control_c, 0, 64, 127
2, 601839, Note_off_c, 0, 51, 64
2, 601839, Note_off_c, 0, 67, 64
2, 601842, Note_off_c, 0, 75, 64
2, 601842, Note_off_c, 0, 58, 64
2, 601906, Note_on_c, 0, 58, 58
2, 601906, Note_on_c, 0, 68, 63
2, 601909, Note_on_c, 0, 52, 57
2, 601909, Note_on_c, 0, 74, 64
2, 601959, Note_off_c, 0, 58, 64
2, 601962, Note_on_c, 0, 51, 75
2, 601962, Note_on_c, 0, 75, 75
2, 601962, Note_on_c, 0, 58, 74
2, 601963, Control_c, 0, 64, 0
2, 601966, Note_on_c, 0, 67, 75
2, 601970, Note_on_c, 0, 58, 74
2, 601982, Note_off_c, 0, 68, 64
2, 601985, Note_off_c, 0, 74, 64
2, 601985, Note_off_c, 0, 52, 64
2, 602012, Control_c, 0, 64, 127
2, 602132, Note_on_c, 0, 44, 62
2, 602170, Note_on_c, 0, 68, 66
2, 602173, Note_off_c, 0, 58, 64
2, 602174, Note_on_c, 0, 60, 71
2, 602176, Note_on_c, 0, 76, 63
2, 602177, Note_off_c, 0, 67, 64
2, 602181, Note_off_c, 0, 58, 64
2, 602181, Note_off_c, 0, 51, 64
2, 602185, Note_off_c, 0, 75, 64
2, 602192, Control_c, 0, 64, 0
2, 602235, Note_off_c, 0, 44, 64
2, 602238, Control_c, 0, 64, 127
2, 602283, Note_on_c, 0, 66, 70
2, 602303, Note_off_c, 0, 68, 64
2, 602389, Note_on_c, 0, 49, 55
2, 602390, Note_on_c, 0, 61, 57
2, 602397, Note_off_c, 0, 60, 64
2, 602397, Note_on_c, 0, 64, 73
2, 602397, Note_on_c, 0, 73, 67
2, 602403, Note_off_c, 0, 76, 64
2, 602407, Note_off_c, 0, 66, 64
2, 602408, Control_c, 0, 64, 0
2, 602444, Control_c, 0, 64, 127
2, 602474, Note_off_c, 0, 49, 64
2, 602475, Note_off_c, 0, 61, 64
2, 602482, Note_off_c, 0, 73, 64
2, 602482, Note_off_c, 0, 64, 64
2, 602538, Note_on_c, 0, 64, 54
2, 602538, Note_on_c, 0, 49, 54
2, 602542, Note_on_c, 0, 68, 62
2, 602542, Note_on_c, 0, 59, 62
2, 602588, Note_off_c, 0, 49, 64
2, 602588, Note_off_c, 0, 64, 64
2, 602592, Note_off_c, 0, 59, 64
2, 602592, Note_off_c, 0, 68, 64
2, 602606, Note_on_c, 0, 49, 26
2, 602610, Note_on_c, 0, 59, 28
2, 602610, Note_on_c, 0, 76, 64
2, 602614, Note_on_c, 0, 68, 80
2, 602618, Control_c, 0, 64, 0
2, 602664, Control_c, 0, 64, 127
2, 602777, Note_on_c, 0, 42, 58
2, 602836, Note_on_c, 0, 58, 74
2, 602838, Note_on_c, 0, 75, 66
2, 602838, Note_on_c, 0, 66, 69
2, 602843, Note_off_c, 0, 76, 64
2, 602843, Note_off_c, 0, 59, 64
2, 602847, Note_off_c, 0, 68, 64
2, 602849, Note_off_c, 0, 49, 64
2, 602853, Control_c, 0, 64, 0
2, 602868, Note_off_c, 0, 42, 64
2, 602887, Control_c, 0, 64, 127
2, 602945, Note_on_c, 0, 73, 62
2, 602950, Note_on_c, 0, 64, 74
2, 602956, Note_off_c, 0, 66, 64
2, 602956, Note_off_c, 0, 75, 64
2, 603050, Note_on_c, 0, 71, 64
2, 603050, Note_on_c, 0, 75, 64
2, 603053, Note_on_c, 0, 47, 63
2, 603054, Note_on_c, 0, 54, 46
2, 603054, Note_on_c, 0, 63, 73
2, 603061, Note_off_c, 0, 73, 64
2, 603063, Control_c, 0, 64, 127
2, 603066, Note_off_c, 0, 64, 64
2, 603070, Control_c, 0, 64, 0
2, 603075, Note_off_c, 0, 58, 64
2, 603095, Control_c, 0, 64, 127
2, 603135, Note_off_c, 0, 75, 64
2, 603135, Note_off_c, 0, 71, 64
2, 603138, Note_off_c, 0, 47, 64
2, 603139, Note_off_c, 0, 63, 64
2, 603139, Note_off_c, 0, 54, 64
2, 603214, Note_on_c, 0, 78, 59
2, 603276, Note_on_c, 0, 83, 67
2, 603278, Note_on_c, 0, 65, 49
2, 603278, Note_on_c, 0, 75, 64
2, 603289, Note_off_c, 0, 78, 64
2, 603296, Control_c, 0, 64, 0
2, 603326, Control_c, 0, 64, 127
2, 603389, Note_on_c, 0, 66, 51
2, 603412, Note_off_c, 0, 65, 64
2, 603469, Control_c, 0, 64, 0
2, 603482, Note_on_c, 0, 67, 62
2, 603486, Note_on_c, 0, 73, 67
2, 603486, Note_on_c, 0, 82, 64
2, 603501, Control_c, 0, 64, 127
2, 603507, Note_off_c, 0, 83, 64
2, 603509, Note_off_c, 0, 66, 64
2, 603509, Note_off_c, 0, 75, 64
2, 603594, Note_on_c, 0, 63, 47
2, 603613, Note_off_c, 0, 67, 64
2, 603615, Note_on_c, 0, 80, 46
2, 603626, Note_off_c, 0, 82, 64
2, 603626, Note_off_c, 0, 73, 64
2, 603640, Note_on_c, 0, 82, 71
2, 603652, Note_off_c, 0, 80, 64
2, 603659, Control_c, 0, 64, 0
2, 603674, Note_on_c, 0, 68, 62
2, 603674, Note_on_c, 0, 71, 55
2, 603677, Note_on_c, 0, 80, 69
2, 603698, Note_off_c, 0, 82, 64
2, 603699, Note_off_c, 0, 63, 64
2, 603702, Control_c, 0, 64, 127
2, 603759, Note_off_c, 0, 71, 64
2, 603762, Note_off_c, 0, 80, 64
2, 603804, Note_on_c, 0, 63, 51
2, 603823, Note_off_c, 0, 68, 64
2, 603843, Note_on_c, 0, 79, 63
2, 603849, Note_on_c, 0, 73, 71
2, 603874, Control_c, 0, 64, 0
2, 603882, Note_on_c, 0, 71, 67
2, 603888, Note_on_c, 0, 80, 70
2, 603897, Note_on_c, 0, 56, 50
2, 603914, Note_off_c, 0, 63, 64
2, 603917, Note_off_c, 0, 73, 64
2, 603917, Note_off_c, 0, 79, 64
2, 603919, Control_c, 0, 64, 127
2, 603966, Control_c, 0, 64, 0
2, 603978, Control_c, 0, 64, 127
2, 604012, Note_on_c, 0, 66, 54
2, 604038, Note_off_c, 0, 56, 64
2, 604109, Control_c, 0, 64, 0
2, 604127, Note_on_c, 0, 82, 69
2, 604132, Note_on_c, 0, 73, 71
2, 604133, Control_c, 0, 64, 127
2, 604138, Note_on_c, 0, 65, 49
2, 604139, Note_off_c, 0, 71, 64
2, 604145, Note_off_c, 0, 80, 64
2, 604161, Note_off_c, 0, 66, 64
2, 604218, Note_on_c, 0, 61, 52
2, 604231, Note_off_c, 0, 65, 64
2, 604282, Note_on_c, 0, 78, 47
2, 604289, Note_off_c, 0, 82, 64
2, 604298, Control_c, 0, 64, 0
2, 604301, Note_off_c, 0, 73, 64
2, 604305, Note_on_c, 0, 80, 64
2, 604318, Note_off_c, 0, 78, 64
2, 604343, Note_on_c, 0, 78, 63
2, 604344, Control_c, 0, 64, 127
2, 604346, Note_on_c, 0, 66, 62
2, 604346, Note_on_c, 0, 70, 62
2, 604360, Note_off_c, 0, 61, 64
2, 604371, Note_off_c, 0, 80, 64
2, 604435, Note_on_c, 0, 61, 62
2, 604452, Note_off_c, 0, 66, 64
2, 604490, Note_on_c, 0, 71, 69
2, 604494, Note_on_c, 0, 77, 69
2, 604510, Control_c, 0, 64, 0
2, 604515, Note_off_c, 0, 78, 64
2, 604518, Note_off_c, 0, 70, 64
2, 604538, Note_off_c, 0, 61, 64
2, 604538, Control_c, 0, 64, 0
2, 604546, Note_on_c, 0, 54, 14
2, 604547, Note_on_c, 0, 78, 77
2, 604548, Note_on_c, 0, 70, 73
2, 604560, Control_c, 0, 64, 127
2, 604564, Note_off_c, 0, 71, 64
2, 604568, Note_off_c, 0, 77, 64
2, 604649, Note_on_c, 0, 64, 59
2, 604667, Note_off_c, 0, 54, 64
2, 604756, Control_c, 0, 64, 0
2, 604764, Note_on_c, 0, 80, 69
2, 604767, Note_on_c, 0, 69, 73
2, 604767, Note_on_c, 0, 63, 63
2, 604784, Note_off_c, 0, 64, 64
2, 604787, Note_off_c, 0, 78, 64
2, 604788, Note_off_c, 0, 70, 64
2, 604795, Control_c, 0, 64, 127
2, 604873, Note_on_c, 0, 59, 49
2, 604888, Note_off_c, 0, 63, 64
2, 604954, Control_c, 0, 64, 0
2, 604966, Note_on_c, 0, 68, 64
2, 604968, Note_on_c, 0, 76, 67
2, 604970, Note_on_c, 0, 52, 54
2, 604984, Note_off_c, 0, 59, 64
2, 604989, Note_off_c, 0, 80, 64
2, 604992, Note_off_c, 0, 69, 64
2, 605006, Control_c, 0, 64, 127
2, 605051, Note_off_c, 0, 68, 64
2, 605053, Note_off_c, 0, 76, 64
2, 605091, Note_on_c, 0, 63, 51
2, 605116, Note_off_c, 0, 52, 64
2, 605134, Note_on_c, 0, 64, 55
2, 605136, Note_on_c, 0, 73, 55
2, 605155, Control_c, 0, 64, 0
2, 605159, Control_c, 0, 64, 0
2, 605174, Note_on_c, 0, 68, 64
2, 605178, Note_on_c, 0, 61, 62
2, 605180, Note_on_c, 0, 76, 64
2, 605186, Note_off_c, 0, 64, 64
2, 605188, Note_off_c, 0, 73, 64
2, 605202, Control_c, 0, 64, 127
2, 605212, Note_off_c, 0, 63, 64
2, 605259, Note_off_c, 0, 68, 64
2, 605265, Note_off_c, 0, 76, 64
2, 605285, Note_on_c, 0, 58, 31
2, 605306, Note_off_c, 0, 61, 64
2, 605392, Control_c, 0, 64, 0
2, 605402, Note_on_c, 0, 67, 62
2, 605404, Note_on_c, 0, 51, 41
2, 605405, Note_on_c, 0, 75, 78
2, 605434, Control_c, 0, 64, 127
2, 605435, Note_off_c, 0, 58, 64
2, 605514, Note_on_c, 0, 73, 60
2, 605516, Note_on_c, 0, 58, 58
2, 605536, Note_off_c, 0, 75, 64
2, 605536, Note_off_c, 0, 51, 64
2, 605612, Control_c, 0, 64, 0
2, 605616, Note_on_c, 0, 44, 59
2, 605618, Note_on_c, 0, 68, 73
2, 605618, Note_on_c, 0, 71, 73
2, 605623, Control_c, 0, 64, 127
2, 605624, Note_on_c, 0, 59, 59
2, 605632, Note_off_c, 0, 73, 64
2, 605634, Note_off_c, 0, 67, 64
2, 605647, Note_off_c, 0, 58, 64
2, 605663, Control_c, 0, 64, 127
2, 605701, Note_off_c, 0, 44, 64
2, 605703, Note_off_c, 0, 71, 64
2, 605703, Note_off_c, 0, 68, 64
2, 605709, Note_off_c, 0, 59, 64
2, 605776, Note_on_c, 0, 59, 48
2, 605779, Note_on_c, 0, 75, 47
2, 605780, Note_on_c, 0, 68, 54
2, 605795, Control_c, 0, 64, 0
2, 605830, Note_on_c, 0, 71, 64
2, 605830, Note_on_c, 0, 80, 71
2, 605830, Note_on_c, 0, 60, 47
2, 605848, Control_c, 0, 64, 127
2, 605853, Note_off_c, 0, 59, 64
2, 605856, Note_off_c, 0, 75, 64
2, 605857, Note_off_c, 0, 68, 64
2, 605922, Note_on_c, 0, 61, 50
2, 605945, Note_off_c, 0, 60, 64
2, 606007, Control_c, 0, 64, 0
2, 606036, Note_on_c, 0, 69, 73
2, 606036, Note_on_c, 0, 78, 66
2, 606039, Note_on_c, 0, 62, 47
2, 606047, Note_off_c, 0, 80, 64
2, 606047, Note_off_c, 0, 71, 64
2, 606050, Note_off_c, 0, 61, 64
2, 606070, Control_c, 0, 64, 127
2, 606128, Note_on_c, 0, 63, 64
2, 606143, Note_off_c, 0, 62, 64
2, 606190, Note_off_c, 0, 69, 64
2, 606192, Note_on_c, 0, 76, 66
2, 606206, Note_off_c, 0, 78, 64
2, 606230, Note_off_c, 0, 76, 64
2, 606232, Note_on_c, 0, 78, 69
2, 606256, Note_on_c, 0, 68, 63
2, 606256, Note_on_c, 0, 76, 58
2, 606256, Note_on_c, 0, 64, 51
2, 606261, Note_off_c, 0, 63, 64
2, 606273, Control_c, 0, 64, 127
2, 606297, Note_off_c, 0, 78, 64
2, 606305, Control_c, 0, 64, 0
2, 606318, Control_c, 0, 64, 127
2, 606341, Note_off_c, 0, 76, 64
2, 606341, Note_off_c, 0, 68, 64
2, 606357, Note_on_c, 0, 59, 49
2, 606385, Note_off_c, 0, 64, 64
2, 606420, Note_on_c, 0, 69, 58
2, 606420, Note_on_c, 0, 75, 56
2, 606476, Note_on_c, 0, 52, 51
2, 606476, Note_on_c, 0, 68, 62
2, 606476, Control_c, 0, 64, 0
2, 606477, Control_c, 0, 64, 127
2, 606478, Note_on_c, 0, 76, 62
2, 606490, Note_off_c, 0, 75, 64
2, 606490, Note_off_c, 0, 69, 64
2, 606494, Note_off_c, 0, 59, 64
2, 606505, Control_c, 0, 64, 127
2, 606561, Note_off_c, 0, 68, 64
2, 606563, Note_off_c, 0, 76, 64
2, 606568, Control_c, 0, 64, 0
2, 606591, Control_c, 0, 64, 127
2, 606599, Note_on_c, 0, 63, 42
2, 606619, Note_off_c, 0, 52, 64
2, 606681, Control_c, 0, 64, 0
2, 606710, Note_on_c, 0, 78, 67
2, 606712, Note_on_c, 0, 61, 56
2, 606714, Note_on_c, 0, 68, 77
2, 606728, Control_c, 0, 64, 127
2, 606732, Note_off_c, 0, 63, 64
2, 606818, Note_on_c, 0, 46, 62
2, 606818, Note_on_c, 0, 76, 66
2, 606820, Note_off_c, 0, 78, 64
2, 606833, Note_off_c, 0, 61, 64
2, 606911, Control_c, 0, 64, 0
2, 606918, Note_on_c, 0, 51, 63
2, 606920, Note_on_c, 0, 67, 69
2, 606923, Note_on_c, 0, 75, 57
2, 606927, Note_off_c, 0, 68, 64
2, 606930, Note_off_c, 0, 76, 64
2, 606945, Note_on_c, 0, 76, 59
2, 606959, Note_off_c, 0, 46, 64
2, 606981, Note_off_c, 0, 75, 64
2, 606996, Note_on_c, 0, 75, 59
2, 607005, Note_off_c, 0, 67, 64
2, 607008, Note_off_c, 0, 76, 64
2, 607024, Control_c, 0, 64, 127
2, 607048, Note_on_c, 0, 58, 52
2, 607059, Note_off_c, 0, 75, 64
2, 607068, Note_off_c, 0, 51, 64
2, 607097, Note_on_c, 0, 68, 63
2, 607101, Note_on_c, 0, 74, 63
2, 607103, Control_c, 0, 64, 0
2, 607107, Control_c, 0, 64, 0
2, 607139, Note_on_c, 0, 67, 65
2, 607142, Note_on_c, 0, 75, 74
2, 607146, Note_on_c, 0, 63, 57
2, 607163, Note_off_c, 0, 68, 64
2, 607166, Note_off_c, 0, 58, 64
2, 607167, Note_off_c, 0, 74, 64
2, 607167, Control_c, 0, 64, 127
2, 607222, Control_c, 0, 64, 0
2, 607244, Control_c, 0, 64, 127
2, 607251, Note_on_c, 0, 58, 50
2, 607279, Note_off_c, 0, 63, 64
2, 607339, Control_c, 0, 64, 0
2, 607358, Note_on_c, 0, 60, 54
2, 607361, Note_on_c, 0, 76, 67
2, 607364, Note_on_c, 0, 68, 73
2, 607383, Note_off_c, 0, 67, 64
2, 607384, Note_off_c, 0, 58, 64
2, 607386, Note_off_c, 0, 75, 64
2, 607400, Control_c, 0, 64, 127
2, 607477, Note_on_c, 0, 66, 71
2, 607485, Note_on_c, 0, 44, 62
2, 607490, Note_off_c, 0, 68, 64
2, 607490, Note_off_c, 0, 60, 64
2, 607548, Control_c, 0, 64, 0
2, 607582, Note_on_c, 0, 73, 58
2, 607585, Note_on_c, 0, 49, 54
2, 607585, Note_on_c, 0, 64, 73
2, 607598, Note_off_c, 0, 66, 64
2, 607601, Note_off_c, 0, 76, 64
2, 607606, Note_off_c, 0, 44, 64
2, 607620, Control_c, 0, 64, 127
2, 607667, Note_off_c, 0, 73, 64
2, 607670, Note_off_c, 0, 64, 64
2, 607686, Note_on_c, 0, 59, 46
2, 607718, Note_on_c, 0, 64, 74
2, 607718, Note_on_c, 0, 68, 63
2, 607719, Note_off_c, 0, 49, 64
2, 607754, Note_off_c, 0, 68, 64
2, 607754, Note_off_c, 0, 64, 64
2, 607762, Control_c, 0, 64, 0
2, 607772, Note_on_c, 0, 64, 54
2, 607774, Note_on_c, 0, 68, 97
2, 607776, Note_on_c, 0, 76, 63
2, 607776, Note_on_c, 0, 48, 34
2, 607804, Note_off_c, 0, 59, 64
2, 607814, Control_c, 0, 64, 127
2, 607891, Note_on_c, 0, 49, 56
2, 607902, Note_off_c, 0, 48, 64
2, 607995, Control_c, 0, 64, 0
2, 608001, Note_off_c, 0, 64, 64
2, 608007, Note_on_c, 0, 75, 71
2, 608010, Note_on_c, 0, 66, 77
2, 608010, Note_on_c, 0, 58, 67
2, 608028, Note_off_c, 0, 68, 64
2, 608030, Note_off_c, 0, 76, 64
2, 608039, Control_c, 0, 64, 127
2, 608041, Note_off_c, 0, 49, 64
2, 608112, Note_on_c, 0, 42, 59
2, 608118, Note_on_c, 0, 64, 74
2, 608118, Note_on_c, 0, 73, 57
2, 608127, Note_off_c, 0, 75, 64
2, 608130, Note_off_c, 0, 66, 64
2, 608150, Note_off_c, 0, 58, 64
2, 608210, Note_on_c, 0, 47, 69
2, 608214, Note_on_c, 0, 66, 82
2, 608216, Note_on_c, 0, 75, 69
2, 608227, Note_off_c, 0, 73, 64
2, 608227, Note_off_c, 0, 64, 64
2, 608229, Control_c, 0, 64, 0
2, 608235, Note_off_c, 0, 42, 64
2, 608288, Control_c, 0, 64, 127
2, 608321, Note_off_c, 0, 47, 64
2, 608325, Note_off_c, 0, 66, 64
2, 608327, Note_off_c, 0, 75, 64
2, 608374, Note_on_c, 0, 71, 29
2, 608378, Note_on_c, 0, 54, 58
2, 608378, Note_on_c, 0, 63, 50
2, 608412, Control_c, 0, 64, 0
2, 608416, Note_on_c, 0, 59, 74
2, 608416, Note_on_c, 0, 66, 69
2, 608417, Note_on_c, 0, 75, 77
2, 608441, Note_off_c, 0, 71, 64
2, 608445, Note_off_c, 0, 63, 64
2, 608445, Note_off_c, 0, 54, 64
2, 608479, Control_c, 0, 64, 127
2, 608630, Note_on_c, 0, 52, 69
2, 608633, Note_on_c, 0, 76, 69
2, 608634, Note_on_c, 0, 68, 71
2, 608640, Control_c, 0, 64, 0
2, 608643, Note_off_c, 0, 66, 64
2, 608643, Note_off_c, 0, 59, 64
2, 608644, Note_off_c, 0, 75, 64
2, 608678, Control_c, 0, 64, 127
2, 608835, Control_c, 0, 64, 0
2, 608840, Note_on_c, 0, 54, 56
2, 608842, Note_on_c, 0, 58, 67
2, 608844, Note_on_c, 0, 64, 58
2, 608846, Note_on_c, 0, 66, 58
2, 608851, Note_off_c, 0, 52, 64
2, 608854, Note_off_c, 0, 76, 64
2, 608855, Note_off_c, 0, 68, 64
2, 608891, Control_c, 0, 64, 127
2, 608966, Note_off_c, 0, 58, 64
2, 608968, Note_off_c, 0, 64, 64
2, 608970, Note_off_c, 0, 66, 64
2, 608985, Note_off_c, 0, 54, 64
2, 609002, Note_on_c, 0, 49, 64
2, 609002, Note_on_c, 0, 61, 73
2, 609002, Note_on_c, 0, 70, 70
2, 609047, Note_on_c, 0, 64, 71
2, 609057, Note_on_c, 0, 42, 74
2, 609060, Note_on_c, 0, 73, 64
2, 609072, Control_c, 0, 64, 0
2, 609082, Note_off_c, 0, 70, 64
2, 609082, Note_off_c, 0, 61, 64
2, 609082, Note_off_c, 0, 49, 64
2, 609108, Control_c, 0, 64, 127
2, 609153, Note_on_c, 0, 68, 64
2, 609156, Note_on_c, 0, 76, 62
2, 609178, Note_off_c, 0, 64, 64
2, 609191, Note_off_c, 0, 73, 64
2, 609254, Note_on_c, 0, 75, 65
2, 609261, Note_off_c, 0, 42, 64
2, 609268, Note_on_c, 0, 66, 73
2, 609268, Note_on_c, 0, 58, 58
2, 609268, Control_c, 0, 64, 0
2, 609280, Note_off_c, 0, 68, 64
2, 609283, Note_off_c, 0, 76, 64
2, 609306, Control_c, 0, 64, 127
2, 609352, Note_off_c, 0, 58, 64
2, 609360, Note_on_c, 0, 64, 71
2, 609363, Note_on_c, 0, 73, 58
2, 609371, Note_off_c, 0, 75, 64
2, 609385, Note_off_c, 0, 66, 64
2, 609470, Control_c, 0, 64, 0
2, 609472, Note_on_c, 0, 47, 57
2, 609473, Note_on_c, 0, 66, 74
2, 609476, Note_on_c, 0, 75, 73
2, 609492, Note_off_c, 0, 64, 64
2, 609495, Note_off_c, 0, 73, 64
2, 609510, Control_c, 0, 64, 127
2, 609576, Note_on_c, 0, 54, 70
2, 609581, Note_off_c, 0, 66, 64
2, 609584, Note_off_c, 0, 75, 64
2, 609584, Note_on_c, 0, 71, 47
2, 609584, Note_on_c, 0, 63, 51
2, 609663, Note_off_c, 0, 54, 64
2, 609672, Note_on_c, 0, 59, 69
2, 609672, Note_on_c, 0, 66, 69
2, 609675, Note_off_c, 0, 47, 64
2, 609677, Note_on_c, 0, 75, 74
2, 609680, Control_c, 0, 64, 0
2, 609692, Note_off_c, 0, 63, 64
2, 609692, Note_off_c, 0, 71, 64
2, 609732, Control_c, 0, 64, 127
2, 609763, Note_off_c, 0, 66, 64
2, 609763, Note_off_c, 0, 59, 64
2, 609768, Note_off_c, 0, 75, 64
2, 609844, Note_on_c, 0, 70, 56
2, 609846, Note_on_c, 0, 78, 41
2, 609882, Note_on_c, 0, 68, 58
2, 609883, Note_on_c, 0, 76, 67
2, 609885, Note_on_c, 0, 52, 64
2, 609895, Note_off_c, 0, 70, 64
2, 609897, Note_off_c, 0, 78, 64
2, 609905, Control_c, 0, 64, 0
2, 609939, Control_c, 0, 64, 127
2, 610098, Note_on_c, 0, 66, 64
2, 610100, Note_on_c, 0, 64, 64
2, 610101, Note_on_c, 0, 58, 67
2, 610105, Note_on_c, 0, 54, 58
2, 610112, Control_c, 0, 64, 0
2, 610130, Note_off_c, 0, 68, 64
2, 610131, Note_off_c, 0, 76, 64
2, 610133, Note_off_c, 0, 52, 64
2, 610147, Control_c, 0, 64, 127
2, 610183, Note_off_c, 0, 66, 64
2, 610185, Note_off_c, 0, 64, 64
2, 610186, Note_off_c, 0, 58, 64
2, 610242, Note_on_c, 0, 70, 71
2, 610242, Note_on_c, 0, 49, 69
2, 610246, Note_on_c, 0, 61, 75
2, 610282, Note_off_c, 0, 54, 64
2, 610299, Note_on_c, 0, 64, 71
2, 610305, Note_on_c, 0, 73, 71
2, 610309, Note_off_c, 0, 70, 64
2, 610313, Note_off_c, 0, 61, 64
2, 610320, Control_c, 0, 64, 0
2, 610334, Note_on_c, 0, 42, 58
2, 610363, Control_c, 0, 64, 127
2, 610382, Note_off_c, 0, 49, 64
2, 610402, Note_on_c, 0, 68, 63
2, 610402, Note_on_c, 0, 76, 62
2, 610424, Note_off_c, 0, 64, 64
2, 610430, Note_off_c, 0, 73, 64
2, 610498, Note_on_c, 0, 58, 63
2, 610498, Note_on_c, 0, 66, 80
2, 610500, Note_on_c, 0, 75, 73
2, 610512, Control_c, 0, 64, 0
2, 610514, Note_off_c, 0, 76, 64
2, 610514, Note_off_c, 0, 68, 64
2, 610521, Note_off_c, 0, 42, 64
2, 610538, Control_c, 0, 64, 127
2, 610606, Note_on_c, 0, 64, 81
2, 610608, Note_on_c, 0, 73, 51
2, 610616, Note_off_c, 0, 66, 64
2, 610618, Note_off_c, 0, 75, 64
2, 610636, Note_off_c, 0, 58, 64
2, 610703, Control_c, 0, 64, 0
2, 610709, Control_c, 0, 64, 127
2, 610710, Note_on_c, 0, 75, 82
2, 610711, Note_on_c, 0, 66, 86
2, 610712, Note_on_c, 0, 47, 71
2, 610712, Note_on_c, 0, 35, 71
2, 610719, Note_off_c, 0, 73, 64
2, 610724, Note_off_c, 0, 64, 64
2, 610749, Control_c, 0, 64, 127
2, 610795, Note_off_c, 0, 75, 64
2, 610796, Note_off_c, 0, 66, 64
2, 610864, Note_on_c, 0, 71, 63
2, 610864, Note_on_c, 0, 63, 36
2, 610864, Note_on_c, 0, 54, 66
2, 610900, Control_c, 0, 64, 0
2, 610908, Note_on_c, 0, 75, 83
2, 610912, Note_on_c, 0, 66, 71
2, 610912, Note_on_c, 0, 59, 79
2, 610917, Note_off_c, 0, 35, 64
2, 610917, Note_off_c, 0, 47, 64
2, 610920, Note_off_c, 0, 63, 64
2, 610920, Note_off_c, 0, 71, 64
2, 610927, Note_off_c, 0, 54, 64
2, 610946, Control_c, 0, 64, 127
2, 611114, Note_on_c, 0, 83, 79
2, 611120, Note_on_c, 0, 71, 83
2, 611122, Note_on_c, 0, 63, 80
2, 611148, Note_off_c, 0, 75, 64
2, 611152, Note_off_c, 0, 59, 64
2, 611152, Note_off_c, 0, 66, 64
2, 611318, Note_on_c, 0, 47, 79
2, 611322, Note_on_c, 0, 66, 92
2, 611324, Note_on_c, 0, 75, 83
2, 611328, Control_c, 0, 64, 0
2, 611354, Note_off_c, 0, 83, 64
2, 611358, Control_c, 0, 64, 127
2, 611360, Note_off_c, 0, 71, 64
2, 611362, Note_off_c, 0, 63, 64
2, 611413, Note_off_c, 0, 66, 64
2, 611415, Note_off_c, 0, 75, 64
2, 611472, Note_on_c, 0, 71, 36
2, 611474, Note_on_c, 0, 63, 67
2, 611476, Note_on_c, 0, 54, 72
2, 611521, Note_off_c, 0, 47, 64
2, 611528, Note_on_c, 0, 66, 75
2, 611528, Note_on_c, 0, 59, 83
2, 611529, Note_on_c, 0, 75, 83
2, 611530, Note_off_c, 0, 71, 64
2, 611532, Note_off_c, 0, 63, 64
2, 611539, Note_off_c, 0, 54, 64
2, 611728, Note_on_c, 0, 71, 89
2, 611728, Note_on_c, 0, 63, 80
2, 611732, Note_on_c, 0, 90, 88
2, 611732, Note_on_c, 0, 78, 89
2, 611768, Note_off_c, 0, 59, 64
2, 611768, Note_off_c, 0, 66, 64
2, 611769, Note_off_c, 0, 75, 64
2, 611937, Note_off_c, 0, 63, 64
2, 611937, Note_off_c, 0, 71, 64
2, 611954, Control_c, 0, 64, 0
2, 611960, Note_on_c, 0, 71, 69
2, 611960, Note_on_c, 0, 63, 83
2, 611960, Note_on_c, 0, 54, 63
2, 611964, Note_on_c, 0, 47, 73
2, 611972, Note_off_c, 0, 78, 64
2, 611972, Note_off_c, 0, 90, 64
2, 611983, Control_c, 0, 64, 127
2, 612195, Note_off_c, 0, 54, 64
2, 612195, Note_off_c, 0, 63, 64
2, 612195, Note_off_c, 0, 71, 64
2, 612199, Note_off_c, 0, 47, 64
2, 612206, Note_on_c, 0, 83, 81
2, 612206, Note_on_c, 0, 75, 75
2, 612208, Note_on_c, 0, 95, 83
2, 612210, Note_on_c, 0, 78, 79
2, 612210, Note_on_c, 0, 71, 66
2, 612214, Note_on_c, 0, 66, 74
2, 612446, Note_off_c, 0, 75, 64
2, 612446, Note_off_c, 0, 83, 64
2, 612448, Note_off_c, 0, 95, 64
2, 612450, Note_off_c, 0, 71, 64
2, 612450, Note_off_c, 0, 78, 64
2, 612454, Note_off_c, 0, 66, 64
2, 612656, Note_on_c, 0, 47, 92
2, 612656, Note_on_c, 0, 54, 85
2, 612658, Note_on_c, 0, 63, 90
2, 612664, Control_c, 0, 64, 0
2, 612710, Control_c, 0, 64, 127
2, 612845, Note_off_c, 0, 63, 64
2, 612847, Note_off_c, 0, 54, 64
2, 612864, Note_on_c, 0, 51, 81
2, 612868, Note_on_c, 0, 42, 74
2, 612868, Note_on_c, 0, 59, 74
2, 612909, Note_on_c, 0, 54, 85
2, 612913, Note_on_c, 0, 63, 94
2, 612913, Note_on_c, 0, 35, 85
2, 612945, Control_c, 0, 64, 0
2, 612980, Note_off_c, 0, 59, 64
2, 613011, Control_c, 0, 64, 127
2, 613748, Control_c, 0, 64, 0
2, 613780, Control_c, 0, 64, 127
2, 613835, Note_off_c, 0, 35, 64
2, 613835, Note_off_c, 0, 63, 64
2, 613838, Note_off_c, 0, 54, 64
2, 613869, Note_off_c, 0, 42, 64
2, 613871, Note_off_c, 0, 47, 64
2, 613872, Note_off_c, 0, 51, 64
2, 613996, Control_c, 0, 64, 0
2, 614143, Control_c, 0, 64, 0
2, 616328, Note_on_c, 0, 55, 93
2, 616328, Note_on_c, 0, 43, 86
2, 616328, Note_on_c, 0, 36, 93
2, 616391, Control_c, 0, 64, 127
2, 616914, Note_off_c, 0, 36, 64
2, 616914, Note_off_c, 0, 43, 64
2, 616914, Note_off_c, 0, 55, 64
2, 616986, Note_on_c, 0, 36, 75
2, 616988, Note_on_c, 0, 43, 81
2, 616991, Note_on_c, 0, 55, 88
2, 617010, Control_c, 0, 64, 0
2, 617016, Note_off_c, 0, 55, 64
2, 617016, Note_off_c, 0, 36, 64
2, 617020, Note_off_c, 0, 43, 64
2, 617162, Note_on_c, 0, 43, 92
2, 617162, Note_on_c, 0, 36, 88
2, 617168, Note_on_c, 0, 55, 93
2, 617192, Note_off_c, 0, 36, 64
2, 617192, Note_off_c, 0, 43, 64
2, 617194, Note_off_c, 0, 55, 64
2, 617350, Note_on_c, 0, 55, 102
2, 617357, Note_on_c, 0, 43, 93
2, 617359, Note_on_c, 0, 36, 93
2, 617403, Control_c, 0, 64, 127
2, 617902, Control_c, 0, 64, 0
2, 617980, Note_off_c, 0, 55, 64
2, 617987, Note_off_c, 0, 43, 64
2, 617989, Note_off_c, 0, 36, 64
2, 618015, Note_on_c, 0, 43, 82
2, 618015, Note_on_c, 0, 36, 81
2, 618020, Note_on_c, 0, 55, 83
2, 618040, Control_c, 0, 64, 0
2, 618047, Note_off_c, 0, 55, 64
2, 618047, Note_off_c, 0, 36, 64
2, 618048, Note_off_c, 0, 43, 64
2, 618188, Note_on_c, 0, 55, 95
2, 618189, Note_on_c, 0, 43, 88
2, 618193, Note_on_c, 0, 36, 83
2, 618218, Note_off_c, 0, 36, 64
2, 618218, Note_off_c, 0, 55, 64
2, 618221, Note_off_c, 0, 43, 64
2, 618361, Note_on_c, 0, 60, 66
2, 618364, Note_on_c, 0, 48, 72
2, 618366, Note_on_c, 0, 55, 66
2, 618368, Note_on_c, 0, 36, 65
2, 618370, Note_on_c, 0, 43, 64
2, 618454, Control_c, 0, 64, 127
2, 618476, Control_c, 0, 64, 0
2, 618483, Note_on_c, 0, 64, 52
2, 618526, Note_on_c, 0, 67, 66
2, 618536, Note_off_c, 0, 60, 64
2, 618545, Control_c, 0, 64, 127
2, 618552, Note_off_c, 0, 64, 64
2, 618680, Note_on_c, 0, 64, 67
2, 618686, Note_off_c, 0, 67, 64
2, 618688, Note_on_c, 0, 69, 73
2, 618797, Note_off_c, 0, 64, 64
2, 618845, Note_off_c, 0, 55, 64
2, 618846, Note_on_c, 0, 57, 67
2, 618850, Note_on_c, 0, 66, 73
2, 618850, Control_c, 0, 64, 0
2, 618854, Note_off_c, 0, 69, 64
2, 618894, Control_c, 0, 64, 127
2, 618922, Note_off_c, 0, 36, 64
2, 618930, Note_off_c, 0, 43, 64
2, 618932, Note_off_c, 0, 48, 64
2, 618959, Note_on_c, 0, 62, 62
2, 618976, Note_off_c, 0, 66, 64
2, 618999, Control_c, 0, 64, 0
2, 619006, Note_on_c, 0, 43, 80
2, 619010, Note_on_c, 0, 65, 71
2, 619015, Note_on_c, 0, 59, 80
2, 619016, Note_on_c, 0, 36, 73
2, 619023, Note_off_c, 0, 57, 64
2, 619035, Note_off_c, 0, 43, 64
2, 619038, Note_off_c, 0, 36, 64
2, 619038, Note_off_c, 0, 62, 64
2, 619163, Note_on_c, 0, 64, 63
2, 619164, Note_off_c, 0, 59, 64
2, 619164, Note_on_c, 0, 60, 66
2, 619173, Note_on_c, 0, 43, 89
2, 619175, Note_off_c, 0, 65, 64
2, 619183, Note_on_c, 0, 36, 72
2, 619202, Note_off_c, 0, 36, 64
2, 619206, Note_off_c, 0, 43, 64
2, 619313, Note_off_c, 0, 60, 64
2, 619328, Note_off_c, 0, 64, 64
2, 619333, Note_on_c, 0, 60, 71
2, 619339, Note_on_c, 0, 72, 71
2, 619346, Note_on_c, 0, 36, 71
2, 619349, Note_on_c, 0, 43, 80
2, 619461, Note_on_c, 0, 71, 64
2, 619482, Note_off_c, 0, 72, 64
2, 619496, Note_on_c, 0, 64, 65
2, 619499, Note_on_c, 0, 67, 73
2, 619506, Note_off_c, 0, 60, 64
2, 619533, Note_off_c, 0, 71, 64
2, 619544, Control_c, 0, 64, 127
2, 619600, Note_on_c, 0, 69, 66
2, 619622, Note_off_c, 0, 67, 64
2, 619624, Note_on_c, 0, 71, 63
2, 619644, Note_off_c, 0, 69, 64
2, 619664, Note_on_c, 0, 69, 66
2, 619669, Note_off_c, 0, 64, 64
2, 619670, Note_on_c, 0, 60, 44
2, 619677, Note_off_c, 0, 71, 64
2, 619798, Note_on_c, 0, 66, 81
2, 619801, Note_off_c, 0, 69, 64
2, 619807, Note_off_c, 0, 60, 64
2, 619811, Note_on_c, 0, 57, 66
2, 619820, Control_c, 0, 64, 0
2, 619852, Control_c, 0, 64, 127
2, 619893, Note_off_c, 0, 43, 64
2, 619899, Note_off_c, 0, 36, 64
2, 619916, Note_on_c, 0, 62, 65
2, 619921, Note_off_c, 0, 66, 64
2, 619954, Control_c, 0, 64, 0
2, 619961, Note_on_c, 0, 59, 71
2, 619962, Note_on_c, 0, 65, 71
2, 619962, Note_on_c, 0, 43, 71
2, 619962, Note_on_c, 0, 36, 71
2, 619973, Note_off_c, 0, 57, 64
2, 619976, Note_off_c, 0, 62, 64
2, 619987, Note_off_c, 0, 36, 64
2, 619987, Note_off_c, 0, 43, 64
2, 620112, Note_on_c, 0, 64, 66
2, 620118, Note_on_c, 0, 55, 73
2, 620122, Note_off_c, 0, 59, 64
2, 620123, Note_off_c, 0, 65, 64
2, 620128, Note_on_c, 0, 43, 80
2, 620128, Note_on_c, 0, 36, 72
2, 620138, Control_c, 0, 64, 127
2, 620152, Note_off_c, 0, 43, 64
2, 620156, Note_off_c, 0, 36, 64
2, 620233, Note_on_c, 0, 62, 71
2, 620238, Note_off_c, 0, 64, 64
2, 620275, Control_c, 0, 64, 0
2, 620282, Note_on_c, 0, 60, 77
2, 620286, Note_on_c, 0, 43, 73
2, 620286, Note_on_c, 0, 36, 74
2, 620292, Note_off_c, 0, 55, 64
2, 620300, Note_off_c, 0, 62, 64
2, 620392, Note_on_c, 0, 64, 50
2, 620432, Note_on_c, 0, 67, 71
2, 620440, Note_on_c, 0, 55, 71
2, 620446, Note_off_c, 0, 60, 64
2, 620449, Control_c, 0, 64, 127
2, 620477, Note_off_c, 0, 64, 64
2, 620592, Note_on_c, 0, 69, 66
2, 620592, Note_on_c, 0, 64, 62
2, 620595, Note_off_c, 0, 67, 64
2, 620603, Note_off_c, 0, 55, 64
2, 620742, Note_off_c, 0, 64, 64
2, 620742, Note_off_c, 0, 69, 64
2, 620767, Note_on_c, 0, 66, 77
2, 620767, Note_on_c, 0, 57, 66
2, 620813, Note_off_c, 0, 43, 64
2, 620815, Note_off_c, 0, 36, 64
2, 620866, Note_on_c, 0, 62, 58
2, 620890, Note_off_c, 0, 66, 64
2, 620907, Control_c, 0, 64, 0
2, 620915, Note_on_c, 0, 65, 66
2, 620920, Note_on_c, 0, 59, 66
2, 620926, Note_on_c, 0, 43, 81
2, 620926, Note_on_c, 0, 36, 77
2, 620932, Note_off_c, 0, 62, 64
2, 620932, Note_off_c, 0, 57, 64
2, 620948, Note_off_c, 0, 43, 64
2, 620950, Note_off_c, 0, 36, 64
2, 621068, Note_on_c, 0, 64, 59
2, 621071, Note_on_c, 0, 60, 62
2, 621075, Control_c, 0, 64, 127
2, 621084, Note_on_c, 0, 43, 80
2, 621088, Note_on_c, 0, 36, 73
2, 621092, Note_off_c, 0, 59, 64
2, 621092, Note_off_c, 0, 65, 64
2, 621114, Note_off_c, 0, 36, 64
2, 621114, Note_off_c, 0, 43, 64
2, 621211, Note_off_c, 0, 60, 64
2, 621218, Note_off_c, 0, 64, 64
2, 621229, Note_on_c, 0, 60, 66
2, 621231, Note_on_c, 0, 72, 63
2, 621242, Note_on_c, 0, 36, 72
2, 621244, Note_on_c, 0, 43, 77
2, 621244, Control_c, 0, 64, 0
2, 621329, Control_c, 0, 64, 127
2, 621343, Note_on_c, 0, 71, 71
2, 621359, Note_off_c, 0, 72, 64
2, 621366, Control_c, 0, 64, 0
2, 621384, Note_on_c, 0, 64, 57
2, 621385, Note_on_c, 0, 67, 80
2, 621386, Note_off_c, 0, 60, 64
2, 621401, Note_off_c, 0, 71, 64
2, 621418, Control_c, 0, 64, 127
2, 621484, Note_on_c, 0, 69, 73
2, 621498, Note_off_c, 0, 67, 64
2, 621509, Note_on_c, 0, 71, 57
2, 621522, Note_off_c, 0, 69, 64
2, 621539, Control_c, 0, 64, 0
2, 621546, Note_on_c, 0, 69, 66
2, 621549, Note_on_c, 0, 60, 56
2, 621555, Note_off_c, 0, 64, 64
2, 621557, Control_c, 0, 64, 127
2, 621568, Note_off_c, 0, 71, 64
2, 621677, Note_on_c, 0, 66, 79
2, 621677, Note_on_c, 0, 57, 69
2, 621683, Note_off_c, 0, 69, 64
2, 621686, Note_off_c, 0, 60, 64
2, 621694, Control_c, 0, 64, 0
2, 621735, Control_c, 0, 64, 127
2, 621758, Note_off_c, 0, 36, 64
2, 621760, Note_off_c, 0, 43, 64
2, 621784, Control_c, 0, 64, 0
2, 621793, Note_on_c, 0, 62, 48
2, 621812, Note_off_c, 0, 66, 64
2, 621830, Note_off_c, 0, 57, 64
2, 621836, Note_on_c, 0, 36, 62
2, 621837, Note_on_c, 0, 43, 71
2, 621840, Note_on_c, 0, 65, 62
2, 621840, Note_on_c, 0, 59, 62
2, 621858, Note_off_c, 0, 62, 64
2, 621861, Note_off_c, 0, 43, 64
2, 621863, Note_off_c, 0, 36, 64
2, 621976, Note_on_c, 0, 43, 58
2, 621983, Note_off_c, 0, 59, 64
2, 621983, Note_off_c, 0, 65, 64
2, 621984, Note_on_c, 0, 64, 52
2, 621984, Note_on_c, 0, 60, 54
2, 621984, Note_on_c, 0, 36, 56
2, 622006, Note_off_c, 0, 43, 64
2, 622010, Note_off_c, 0, 36, 64
2, 622010, Control_c, 0, 64, 127
2, 622112, Note_on_c, 0, 69, 56
2, 622132, Note_off_c, 0, 64, 64
2, 622148, Note_on_c, 0, 36, 46
2, 622151, Control_c, 0, 64, 0
2, 622152, Note_on_c, 0, 43, 44
2, 622160, Note_on_c, 0, 65, 56
2, 622161, Note_on_c, 0, 67, 64
2, 622194, Note_off_c, 0, 69, 64
2, 622194, Note_off_c, 0, 60, 64
2, 622272, Note_on_c, 0, 71, 47
2, 622308, Note_on_c, 0, 74, 52
2, 622324, Note_off_c, 0, 71, 64
2, 622468, Note_on_c, 0, 76, 52
2, 622471, Control_c, 0, 64, 127
2, 622491, Note_off_c, 0, 74, 64
2, 622622, Control_c, 0, 64, 0
2, 622629, Note_on_c, 0, 72, 52
2, 622629, Note_on_c, 0, 64, 44
2, 622640, Note_off_c, 0, 65, 64
2, 622655, Note_off_c, 0, 76, 64
2, 622664, Control_c, 0, 64, 127
2, 622678, Note_off_c, 0, 36, 64
2, 622682, Note_off_c, 0, 43, 64
2, 622728, Note_off_c, 0, 72, 64
2, 622735, Note_on_c, 0, 71, 44
2, 622742, Note_off_c, 0, 67, 64
2, 622743, Note_off_c, 0, 64, 64
2, 622744, Control_c, 0, 64, 0
2, 622776, Note_on_c, 0, 64, 44
2, 622779, Note_on_c, 0, 67, 58
2, 622782, Note_on_c, 0, 43, 66
2, 622782, Note_on_c, 0, 36, 58
2, 622796, Note_off_c, 0, 71, 64
2, 622808, Note_off_c, 0, 36, 64
2, 622808, Note_off_c, 0, 43, 64
2, 622830, Control_c, 0, 64, 0
2, 622906, Note_on_c, 0, 69, 48
2, 622921, Note_off_c, 0, 67, 64
2, 622930, Note_on_c, 0, 71, 56
2, 622952, Note_off_c, 0, 69, 64
2, 622952, Note_on_c, 0, 43, 64
2, 622952, Note_on_c, 0, 36, 58
2, 622967, Control_c, 0, 64, 127
2, 622969, Note_off_c, 0, 64, 64
2, 622974, Note_on_c, 0, 60, 50
2, 622976, Note_on_c, 0, 69, 48
2, 622991, Note_off_c, 0, 71, 64
2, 622995, Note_off_c, 0, 36, 64
2, 622995, Note_off_c, 0, 43, 64
2, 623104, Note_on_c, 0, 67, 54
2, 623107, Control_c, 0, 64, 0
2, 623113, Note_on_c, 0, 43, 58
2, 623113, Note_on_c, 0, 36, 54
2, 623117, Note_off_c, 0, 69, 64
2, 623118, Note_on_c, 0, 50, 54
2, 623186, Control_c, 0, 64, 127
2, 623225, Note_on_c, 0, 66, 56
2, 623232, Note_off_c, 0, 67, 64
2, 623254, Control_c, 0, 64, 0
2, 623265, Note_on_c, 0, 62, 47
2, 623270, Note_off_c, 0, 60, 64
2, 623272, Note_on_c, 0, 57, 42
2, 623291, Note_off_c, 0, 66, 64
2, 623301, Control_c, 0, 64, 127
2, 623415, Control_c, 0, 64, 0
2, 623421, Note_on_c, 0, 59, 56
2, 623424, Note_off_c, 0, 62, 64
2, 623424, Note_on_c, 0, 65, 47
2, 623431, Note_off_c, 0, 57, 64
2, 623453, Control_c, 0, 64, 127
2, 623551, Note_off_c, 0, 50, 64
2, 623565, Note_off_c, 0, 43, 64
2, 623567, Control_c, 0, 64, 0
2, 623573, Note_off_c, 0, 36, 64
2, 623587, Note_on_c, 0, 64, 52
2, 623587, Note_on_c, 0, 60, 52
2, 623589, Note_off_c, 0, 59, 64
2, 623592, Note_off_c, 0, 65, 64
2, 623595, Note_on_c, 0, 43, 44
2, 623602, Note_on_c, 0, 52, 44
2, 623602, Note_on_c, 0, 36, 56
2, 623635, Note_off_c, 0, 36, 64
2, 623635, Note_off_c, 0, 43, 64
2, 623642, Note_off_c, 0, 52, 64
2, 623716, Note_off_c, 0, 60, 64
2, 623739, Note_on_c, 0, 36, 50
2, 623740, Note_off_c, 0, 64, 64
2, 623746, Note_on_c, 0, 43, 52
2, 623756, Note_on_c, 0, 60, 56
2, 623756, Note_on_c, 0, 52, 62
2, 623771, Note_off_c, 0, 36, 64
2, 623780, Note_off_c, 0, 43, 64
2, 623782, Note_off_c, 0, 52, 64
2, 623798, Note_off_c, 0, 60, 64
2, 623905, Note_on_c, 0, 55, 24
2, 623911, Note_on_c, 0, 36, 65
2, 623914, Note_on_c, 0, 60, 27
2, 623914, Note_on_c, 0, 43, 57
2, 623920, Note_on_c, 0, 67, 59
2, 623920, Note_on_c, 0, 52, 72
2, 623929, Control_c, 0, 64, 127
2, 623941, Note_off_c, 0, 36, 64
2, 623945, Note_off_c, 0, 52, 64
2, 623947, Note_off_c, 0, 43, 64
2, 624063, Note_off_c, 0, 55, 64
2, 624072, Note_off_c, 0, 60, 64
2, 624096, Note_on_c, 0, 65, 64
2, 624096, Note_on_c, 0, 43, 62
2, 624103, Note_on_c, 0, 36, 64
2, 624104, Note_on_c, 0, 50, 71
2, 624112, Control_c, 0, 64, 0
2, 624209, Note_on_c, 0, 71, 54
2, 624253, Note_on_c, 0, 74, 50
2, 624275, Note_off_c, 0, 71, 64
2, 624287, Control_c, 0, 64, 127
2, 624412, Note_on_c, 0, 76, 55
2, 624419, Note_off_c, 0, 74, 64
2, 624425, Note_off_c, 0, 43, 64
2, 624438, Note_off_c, 0, 36, 64
2, 624444, Note_off_c, 0, 65, 64
2, 624456, Note_off_c, 0, 50, 64
2, 624524, Note_on_c, 0, 36, 56
2, 624546, Note_on_c, 0, 43, 55
2, 624564, Note_on_c, 0, 72, 59
2, 624569, Note_on_c, 0, 64, 55
2, 624572, Note_on_c, 0, 52, 64
2, 624574, Note_off_c, 0, 36, 64
2, 624588, Note_off_c, 0, 43, 64
2, 624588, Control_c, 0, 64, 0
2, 624593, Note_off_c, 0, 76, 64
2, 624600, Note_off_c, 0, 52, 64
2, 624686, Note_on_c, 0, 71, 47
2, 624696, Note_off_c, 0, 64, 64
2, 624700, Note_on_c, 0, 36, 64
2, 624702, Note_on_c, 0, 43, 65
2, 624703, Note_off_c, 0, 72, 64
2, 624706, Note_off_c, 0, 67, 64
2, 624714, Note_on_c, 0, 52, 71
2, 624734, Note_off_c, 0, 36, 64
2, 624734, Note_on_c, 0, 67, 50
2, 624740, Note_off_c, 0, 43, 64
2, 624743, Note_off_c, 0, 52, 64
2, 624765, Note_off_c, 0, 71, 64
2, 624833, Note_on_c, 0, 69, 47
2, 624841, Note_off_c, 0, 67, 64
2, 624864, Note_on_c, 0, 71, 50
2, 624869, Note_off_c, 0, 69, 64
2, 624872, Note_on_c, 0, 43, 33
2, 624875, Note_on_c, 0, 36, 33
2, 624880, Note_on_c, 0, 52, 65
2, 624887, Note_on_c, 0, 60, 37
2, 624888, Note_on_c, 0, 69, 66
2, 624888, Control_c, 0, 64, 127
2, 624908, Note_off_c, 0, 52, 64
2, 624910, Note_off_c, 0, 43, 64
2, 624912, Note_off_c, 0, 36, 64
2, 624925, Note_off_c, 0, 71, 64
2, 625016, Note_on_c, 0, 67, 57
2, 625019, Note_on_c, 0, 36, 57
2, 625028, Note_on_c, 0, 50, 64
2, 625028, Note_on_c, 0, 43, 41
2, 625043, Note_off_c, 0, 69, 64
2, 625047, Control_c, 0, 64, 0
2, 625132, Note_on_c, 0, 66, 50
2, 625143, Note_off_c, 0, 67, 64
2, 625164, Note_off_c, 0, 60, 64
2, 625166, Note_on_c, 0, 62, 55
2, 625168, Note_on_c, 0, 57, 59
2, 625191, Note_off_c, 0, 66, 64
2, 625250, Control_c, 0, 64, 127
2, 625295, Control_c, 0, 64, 0
2, 625325, Note_on_c, 0, 59, 64
2, 625327, Note_off_c, 0, 62, 64
2, 625329, Note_off_c, 0, 57, 64
2, 625338, Note_on_c, 0, 64, 55
2, 625371, Control_c, 0, 64, 127
2, 625410, Note_off_c, 0, 36, 64
2, 625411, Note_off_c, 0, 43, 64
2, 625423, Note_off_c, 0, 50, 64
2, 625469, Note_on_c, 0, 36, 62
2, 625484, Control_c, 0, 64, 0
2, 625489, Note_on_c, 0, 43, 59
2, 625497, Note_on_c, 0, 60, 59
2, 625502, Note_on_c, 0, 52, 64
2, 625509, Note_off_c, 0, 36, 64
2, 625524, Note_off_c, 0, 43, 64
2, 625528, Note_off_c, 0, 59, 64
2, 625536, Note_off_c, 0, 52, 64
2, 625541, Note_off_c, 0, 64, 64
2, 625643, Note_on_c, 0, 36, 72
2, 625644, Note_on_c, 0, 43, 57
2, 625659, Note_on_c, 0, 52, 72
2, 625682, Note_off_c, 0, 36, 64
2, 625685, Note_off_c, 0, 43, 64
2, 625696, Note_off_c, 0, 52, 64
2, 625781, Note_off_c, 0, 60, 64
2, 625794, Note_on_c, 0, 43, 59
2, 625796, Note_on_c, 0, 36, 65
2, 625808, Note_on_c, 0, 67, 62
2, 625808, Note_on_c, 0, 55, 47
2, 625816, Note_on_c, 0, 60, 59
2, 625821, Note_on_c, 0, 52, 65
2, 625836, Control_c, 0, 64, 127
2, 625841, Note_off_c, 0, 36, 64
2, 625846, Note_off_c, 0, 43, 64
2, 625855, Note_off_c, 0, 52, 64
2, 625936, Note_off_c, 0, 60, 64
2, 625970, Note_off_c, 0, 55, 64
2, 625970, Note_on_c, 0, 36, 59
2, 625979, Note_on_c, 0, 65, 66
2, 625986, Note_on_c, 0, 43, 26
2, 625987, Note_on_c, 0, 50, 66
2, 625996, Control_c, 0, 64, 0
2, 626085, Note_on_c, 0, 71, 50
2, 626129, Note_on_c, 0, 74, 65
2, 626144, Note_off_c, 0, 71, 64
2, 626292, Note_on_c, 0, 76, 64
2, 626301, Control_c, 0, 64, 127
2, 626311, Note_off_c, 0, 74, 64
2, 626341, Note_off_c, 0, 65, 64
2, 626364, Note_off_c, 0, 36, 64
2, 626386, Note_off_c, 0, 43, 64
2, 626387, Note_off_c, 0, 50, 64
2, 626420, Note_on_c, 0, 36, 55
2, 626430, Control_c, 0, 64, 0
2, 626438, Note_on_c, 0, 43, 57
2, 626439, Note_on_c, 0, 72, 59
2, 626447, Note_on_c, 0, 64, 47
2, 626452, Note_on_c, 0, 52, 64
2, 626453, Note_off_c, 0, 76, 64
2, 626467, Note_off_c, 0, 36, 64
2, 626474, Note_off_c, 0, 43, 64
2, 626481, Note_off_c, 0, 52, 64
2, 626497, Control_c, 0, 64, 127
2, 626551, Note_on_c, 0, 71, 54
2, 626553, Control_c, 0, 64, 0
2, 626566, Note_off_c, 0, 72, 64
2, 626568, Note_off_c, 0, 67, 64
2, 626582, Note_on_c, 0, 36, 64
2, 626584, Note_on_c, 0, 43, 50
2, 626588, Note_off_c, 0, 64, 64
2, 626597, Note_on_c, 0, 67, 64
2, 626597, Note_on_c, 0, 52, 66
2, 626610, Note_off_c, 0, 36, 64
2, 626619, Note_off_c, 0, 43, 64
2, 626625, Note_off_c, 0, 71, 64
2, 626626, Note_off_c, 0, 52, 64
2, 626678, Note_on_c, 0, 69, 62
2, 626683, Note_off_c, 0, 67, 64
2, 626709, Note_on_c, 0, 71, 50
2, 626726, Note_off_c, 0, 69, 64
2, 626732, Note_on_c, 0, 60, 54
2, 626739, Note_on_c, 0, 43, 50
2, 626744, Note_on_c, 0, 69, 59
2, 626744, Note_on_c, 0, 52, 64
2, 626744, Note_on_c, 0, 36, 56
2, 626762, Control_c, 0, 64, 127
2, 626766, Note_off_c, 0, 71, 64
2, 626772, Note_off_c, 0, 52, 64
2, 626778, Note_off_c, 0, 36, 64
2, 626779, Note_off_c, 0, 43, 64
2, 626889, Note_off_c, 0, 69, 64
2, 626892, Control_c, 0, 64, 0
2, 626900, Note_on_c, 0, 67, 50
2, 626900, Note_on_c, 0, 43, 31
2, 626900, Note_on_c, 0, 36, 64
2, 626907, Note_on_c, 0, 50, 64
2, 626988, Control_c, 0, 64, 127
2, 627001, Note_off_c, 0, 60, 64
2, 627006, Note_on_c, 0, 66, 40
2, 627021, Note_off_c, 0, 67, 64
2, 627030, Control_c, 0, 64, 0
2, 627050, Note_on_c, 0, 62, 54
2, 627053, Note_on_c, 0, 57, 62
2, 627079, Note_off_c, 0, 66, 64
2, 627119, Control_c, 0, 64, 127
2, 627194, Control_c, 0, 64, 0
2, 627211, Note_off_c, 0, 62, 64
2, 627215, Note_on_c, 0, 65, 55
2, 627217, Note_on_c, 0, 59, 59
2, 627238, Note_off_c, 0, 57, 64
2, 627244, Control_c, 0, 64, 127
2, 627252, Note_off_c, 0, 43, 64
2, 627253, Note_off_c, 0, 36, 64
2, 627289, Note_off_c, 0, 50, 64
2, 627331, Note_on_c, 0, 36, 59
2, 627358, Note_off_c, 0, 65, 64
2, 627358, Note_on_c, 0, 43, 54
2, 627361, Note_on_c, 0, 64, 57
2, 627363, Note_off_c, 0, 59, 64
2, 627367, Note_on_c, 0, 60, 55
2, 627372, Control_c, 0, 64, 0
2, 627379, Note_on_c, 0, 52, 64
2, 627383, Note_off_c, 0, 36, 64
2, 627395, Note_off_c, 0, 43, 64
2, 627413, Note_off_c, 0, 52, 64
2, 627487, Note_off_c, 0, 64, 64
2, 627493, Note_off_c, 0, 60, 64
2, 627511, Note_on_c, 0, 43, 59
2, 627514, Note_on_c, 0, 36, 65
2, 627525, Note_on_c, 0, 60, 59
2, 627528, Note_on_c, 0, 55, 62
2, 627535, Note_on_c, 0, 52, 59
2, 627549, Note_off_c, 0, 36, 64
2, 627554, Note_off_c, 0, 43, 64
2, 627566, Note_off_c, 0, 52, 64
2, 627570, Note_off_c, 0, 55, 64
2, 627578, Note_off_c, 0, 60, 64
2, 627672, Note_on_c, 0, 55, 50
2, 627672, Note_on_c, 0, 43, 62
2, 627673, Note_on_c, 0, 36, 64
2, 627680, Note_on_c, 0, 60, 50
2, 627689, Note_on_c, 0, 67, 64
2, 627692, Note_on_c, 0, 52, 73
2, 627708, Note_off_c, 0, 36, 64
2, 627715, Note_off_c, 0, 43, 64
2, 627718, Control_c, 0, 64, 127
2, 627724, Note_off_c, 0, 52, 64
2, 627802, Note_off_c, 0, 55, 64
2, 627810, Note_off_c, 0, 60, 64
2, 627859, Note_on_c, 0, 65, 65
2, 627863, Note_on_c, 0, 36, 64
2, 627864, Note_on_c, 0, 43, 44
2, 627868, Note_on_c, 0, 50, 72
2, 627880, Control_c, 0, 64, 0
2, 627967, Note_on_c, 0, 71, 52
2, 628004, Note_on_c, 0, 74, 54
2, 628023, Note_off_c, 0, 71, 64
2, 628156, Control_c, 0, 64, 127
2, 628173, Note_on_c, 0, 76, 50
2, 628184, Note_off_c, 0, 74, 64
2, 628221, Note_off_c, 0, 36, 64
2, 628222, Note_off_c, 0, 43, 64
2, 628248, Note_off_c, 0, 50, 64
2, 628284, Note_on_c, 0, 36, 59
2, 628307, Note_on_c, 0, 43, 50
2, 628326, Note_on_c, 0, 72, 57
2, 628330, Note_on_c, 0, 64, 47
2, 628331, Note_on_c, 0, 52, 57
2, 628337, Note_off_c, 0, 36, 64
2, 628338, Note_off_c, 0, 65, 64
2, 628343, Control_c, 0, 64, 0
2, 628344, Note_off_c, 0, 76, 64
2, 628350, Note_off_c, 0, 43, 64
2, 628367, Note_off_c, 0, 52, 64
2, 628367, Control_c, 0, 64, 127
2, 628433, Note_on_c, 0, 71, 55
2, 628434, Control_c, 0, 64, 0
2, 628436, Note_off_c, 0, 67, 64
2, 628461, Note_on_c, 0, 36, 64
2, 628465, Note_off_c, 0, 72, 64
2, 628472, Note_on_c, 0, 43, 47
2, 628474, Note_on_c, 0, 67, 64
2, 628479, Note_on_c, 0, 52, 71
2, 628480, Note_off_c, 0, 64, 64
2, 628497, Note_off_c, 0, 36, 64
2, 628497, Note_off_c, 0, 71, 64
2, 628500, Note_off_c, 0, 43, 64
2, 628508, Note_off_c, 0, 52, 64
2, 628566, Note_on_c, 0, 69, 62
2, 628591, Note_on_c, 0, 71, 59
2, 628592, Note_off_c, 0, 67, 64
2, 628608, Note_off_c, 0, 69, 64
2, 628624, Note_on_c, 0, 60, 55
2, 628624, Note_on_c, 0, 43, 57
2, 628633, Note_on_c, 0, 52, 66
2, 628637, Note_on_c, 0, 69, 64
2, 628637, Note_on_c, 0, 36, 33
2, 628652, Note_off_c, 0, 36, 64
2, 628652, Note_off_c, 0, 71, 64
2, 628660, Control_c, 0, 64, 127
2, 628669, Note_off_c, 0, 52, 64
2, 628670, Note_off_c, 0, 43, 64
2, 628766, Note_on_c, 0, 67, 57
2, 628781, Note_on_c, 0, 50, 57
2, 628782, Note_off_c, 0, 69, 64
2, 628782, Note_on_c, 0, 36, 57
2, 628782, Note_on_c, 0, 43, 52
2, 628784, Control_c, 0, 64, 0
2, 628886, Note_on_c, 0, 66, 50
2, 628902, Note_off_c, 0, 67, 64
2, 628922, Note_on_c, 0, 62, 59
2, 628935, Note_on_c, 0, 57, 50
2, 628940, Note_off_c, 0, 60, 64
2, 628948, Note_off_c, 0, 66, 64
2, 628981, Control_c, 0, 64, 127
2, 629055, Control_c, 0, 64, 0
2, 629082, Note_on_c, 0, 64, 59
2, 629086, Note_on_c, 0, 59, 59
2, 629101, Note_off_c, 0, 62, 64
2, 629101, Note_off_c, 0, 43, 64
2, 629107, Note_off_c, 0, 36, 64
2, 629114, Note_off_c, 0, 57, 64
2, 629116, Control_c, 0, 64, 127
2, 629134, Note_off_c, 0, 50, 64
2, 629198, Note_on_c, 0, 36, 57
2, 629227, Note_on_c, 0, 43, 54
2, 629238, Note_on_c, 0, 60, 59
2, 629243, Note_on_c, 0, 52, 59
2, 629244, Control_c, 0, 64, 0
2, 629254, Note_off_c, 0, 64, 64
2, 629258, Note_off_c, 0, 59, 64
2, 629264, Note_off_c, 0, 36, 64
2, 629273, Note_off_c, 0, 43, 64
2, 629290, Note_off_c, 0, 52, 64
2, 629386, Note_on_c, 0, 36, 64
2, 629392, Note_on_c, 0, 43, 64
2, 629411, Note_on_c, 0, 52, 64
2, 629432, Note_off_c, 0, 36, 64
2, 629433, Note_off_c, 0, 43, 64
2, 629433, Control_c, 0, 64, 127
2, 629452, Note_off_c, 0, 52, 64
2, 629523, Note_off_c, 0, 60, 64
2, 629600, Note_on_c, 0, 52, 66
2, 629609, Control_c, 0, 64, 0
2, 629737, Control_c, 0, 64, 0
2, 629768, Note_on_c, 0, 45, 48
2, 629789, Note_off_c, 0, 52, 64
2, 629800, Note_on_c, 0, 52, 71
2, 629835, Control_c, 0, 64, 127
2, 629903, Note_on_c, 0, 54, 54
2, 629910, Note_off_c, 0, 52, 64
2, 629921, Note_off_c, 0, 45, 64
2, 629973, Control_c, 0, 64, 0
2, 629978, Note_on_c, 0, 56, 52
2, 629984, Note_on_c, 0, 64, 47
2, 629988, Note_on_c, 0, 60, 44
2, 629998, Note_off_c, 0, 54, 64
2, 630013, Note_off_c, 0, 64, 64
2, 630017, Note_off_c, 0, 60, 64
2, 630045, Control_c, 0, 64, 127
2, 630053, Note_on_c, 0, 57, 56
2, 630063, Note_off_c, 0, 56, 64
2, 630113, Control_c, 0, 64, 0
2, 630122, Note_off_c, 0, 57, 64
2, 630129, Note_on_c, 0, 59, 52
2, 630144, Note_on_c, 0, 64, 47
2, 630145, Note_on_c, 0, 69, 42
2, 630161, Control_c, 0, 64, 127
2, 630173, Note_off_c, 0, 64, 64
2, 630174, Note_off_c, 0, 69, 64
2, 630199, Note_on_c, 0, 60, 42
2, 630204, Note_off_c, 0, 59, 64
2, 630259, Note_off_c, 0, 60, 64
2, 630293, Note_on_c, 0, 60, 52
2, 630295, Control_c, 0, 64, 0
2, 630348, Note_on_c, 0, 62, 52
2, 630355, Note_off_c, 0, 60, 64
2, 630394, Note_on_c, 0, 60, 46
2, 630407, Note_off_c, 0, 62, 64
2, 630431, Note_on_c, 0, 68, 48
2, 630433, Note_on_c, 0, 62, 48
2, 630443, Note_on_c, 0, 59, 52
2, 630449, Note_off_c, 0, 60, 64
2, 630460, Note_off_c, 0, 68, 64
2, 630462, Note_off_c, 0, 62, 64
2, 630592, Note_on_c, 0, 64, 57
2, 630604, Note_on_c, 0, 68, 42
2, 630606, Note_on_c, 0, 62, 36
2, 630617, Note_off_c, 0, 59, 64
2, 630633, Note_off_c, 0, 68, 64
2, 630635, Note_off_c, 0, 62, 64
2, 630646, Control_c, 0, 64, 127
2, 630741, Note_on_c, 0, 65, 47
2, 630748, Control_c, 0, 64, 0
2, 630749, Note_off_c, 0, 64, 64
2, 630802, Control_c, 0, 64, 127
2, 630853, Note_on_c, 0, 64, 44
2, 630871, Note_off_c, 0, 65, 64
2, 630891, Note_on_c, 0, 69, 44
2, 630894, Control_c, 0, 64, 0
2, 630899, Note_on_c, 0, 57, 27
2, 630904, Note_on_c, 0, 60, 48
2, 630914, Note_off_c, 0, 64, 64
2, 630944, Control_c, 0, 64, 127
2, 631052, Note_off_c, 0, 69, 64
2, 631056, Note_on_c, 0, 63, 50
2, 631058, Note_on_c, 0, 69, 48
2, 631061, Note_on_c, 0, 59, 50
2, 631065, Note_off_c, 0, 60, 64
2, 631081, Control_c, 0, 64, 0
2, 631086, Note_off_c, 0, 57, 64
2, 631120, Control_c, 0, 64, 127
2, 631218, Note_on_c, 0, 64, 44
2, 631220, Note_on_c, 0, 68, 48
2, 631221, Note_off_c, 0, 59, 64
2, 631225, Note_on_c, 0, 59, 42
2, 631225, Note_on_c, 0, 52, 50
2, 631225, Control_c, 0, 64, 0
2, 631228, Note_off_c, 0, 63, 64
2, 631230, Note_off_c, 0, 69, 64
2, 631262, Control_c, 0, 64, 127
2, 631368, Note_off_c, 0, 59, 64
2, 631389, Note_off_c, 0, 64, 64
2, 631391, Note_off_c, 0, 68, 64
2, 631393, Note_off_c, 0, 52, 64
2, 631394, Note_on_c, 0, 71, 58
2, 631394, Note_on_c, 0, 66, 58
2, 631394, Note_on_c, 0, 59, 59
2, 631394, Note_on_c, 0, 57, 50
2, 631395, Note_on_c, 0, 47, 56
2, 631396, Note_on_c, 0, 63, 59
2, 631399, Control_c, 0, 64, 0
2, 631428, Control_c, 0, 64, 127
2, 631503, Control_c, 0, 64, 0
2, 631527, Note_off_c, 0, 57, 64
2, 631527, Note_off_c, 0, 59, 64
2, 631527, Note_off_c, 0, 66, 64
2, 631527, Note_off_c, 0, 71, 64
2, 631529, Note_off_c, 0, 63, 64
2, 631532, Control_c, 0, 64, 127
2, 631558, Note_off_c, 0, 47, 64
2, 631562, Note_on_c, 0, 76, 58
2, 631563, Note_on_c, 0, 40, 58
2, 631563, Note_on_c, 0, 68, 56
2, 631564, Note_on_c, 0, 64, 56
2, 631565, Note_on_c, 0, 52, 58
2, 631576, Control_c, 0, 64, 0
2, 631609, Control_c, 0, 64, 127
2, 631678, Note_off_c, 0, 76, 64
2, 631679, Note_off_c, 0, 68, 64
2, 631680, Note_off_c, 0, 64, 64
2, 631688, Note_off_c, 0, 40, 64
2, 631688, Note_off_c, 0, 52, 64
2, 631720, Note_on_c, 0, 45, 64
2, 631779, Note_on_c, 0, 52, 46
2, 631780, Control_c, 0, 64, 0
2, 631832, Note_off_c, 0, 45, 64
2, 631878, Note_on_c, 0, 54, 56
2, 631891, Note_off_c, 0, 52, 64
2, 631951, Note_on_c, 0, 64, 48
2, 631952, Note_on_c, 0, 60, 47
2, 631952, Note_on_c, 0, 56, 52
2, 631980, Note_off_c, 0, 64, 64
2, 631981, Note_off_c, 0, 60, 64
2, 631989, Note_off_c, 0, 54, 64
2, 632034, Note_on_c, 0, 57, 54
2, 632048, Note_off_c, 0, 56, 64
2, 632110, Control_c, 0, 64, 127
2, 632118, Note_on_c, 0, 59, 50
2, 632124, Note_on_c, 0, 69, 58
2, 632124, Note_on_c, 0, 64, 40
2, 632140, Note_off_c, 0, 57, 64
2, 632153, Note_off_c, 0, 64, 64
2, 632153, Note_off_c, 0, 69, 64
2, 632191, Note_on_c, 0, 60, 56
2, 632208, Note_off_c, 0, 59, 64
2, 632237, Note_off_c, 0, 60, 64
2, 632277, Note_on_c, 0, 60, 56
2, 632286, Control_c, 0, 64, 0
2, 632335, Note_on_c, 0, 62, 58
2, 632343, Note_off_c, 0, 60, 64
2, 632376, Note_on_c, 0, 60, 48
2, 632388, Note_off_c, 0, 62, 64
2, 632421, Note_on_c, 0, 68, 47
2, 632426, Note_on_c, 0, 62, 47
2, 632430, Note_on_c, 0, 59, 52
2, 632443, Note_off_c, 0, 60, 64
2, 632451, Note_off_c, 0, 68, 64
2, 632456, Note_off_c, 0, 62, 64
2, 632505, Control_c, 0, 64, 127
2, 632561, Control_c, 0, 64, 0
2, 632579, Note_on_c, 0, 64, 55
2, 632586, Note_on_c, 0, 62, 47
2, 632587, Note_on_c, 0, 68, 48
2, 632591, Note_off_c, 0, 59, 64
2, 632615, Note_off_c, 0, 62, 64
2, 632616, Note_off_c, 0, 68, 64
2, 632624, Control_c, 0, 64, 127
2, 632722, Note_on_c, 0, 65, 52
2, 632739, Control_c, 0, 64, 0
2, 632742, Note_off_c, 0, 64, 64
2, 632761, Control_c, 0, 64, 127
2, 632834, Note_on_c, 0, 64, 48
2, 632845, Note_off_c, 0, 65, 64
2, 632860, Note_on_c, 0, 57, 47
2, 632869, Note_on_c, 0, 69, 50
2, 632869, Note_on_c, 0, 60, 48
2, 632886, Control_c, 0, 64, 0
2, 632890, Note_off_c, 0, 64, 64
2, 632932, Control_c, 0, 64, 127
2, 632987, Note_off_c, 0, 60, 64
2, 633009, Note_off_c, 0, 69, 64
2, 633015, Note_off_c, 0, 57, 64
2, 633026, Control_c, 0, 64, 0
2, 633032, Note_on_c, 0, 68, 50
2, 633036, Note_on_c, 0, 71, 47
2, 633036, Note_on_c, 0, 62, 48
2, 633042, Note_on_c, 0, 52, 47
2, 633070, Control_c, 0, 64, 127
2, 633146, Note_off_c, 0, 52, 64
2, 633157, Note_on_c, 0, 72, 52
2, 633173, Note_off_c, 0, 71, 64
2, 633173, Note_off_c, 0, 68, 64
2, 633183, Control_c, 0, 64, 0
2, 633187, Note_off_c, 0, 62, 64
2, 633191, Note_on_c, 0, 69, 52
2, 633193, Note_on_c, 0, 45, 52
2, 633200, Note_on_c, 0, 60, 56
2, 633206, Note_off_c, 0, 72, 64
2, 633227, Control_c, 0, 64, 127
2, 633326, Note_off_c, 0, 69, 64
2, 633328, Note_off_c, 0, 45, 64
2, 633335, Note_off_c, 0, 60, 64
2, 633355, Control_c, 0, 64, 0
2, 633362, Note_on_c, 0, 71, 58
2, 633362, Note_on_c, 0, 64, 64
2, 633363, Note_on_c, 0, 76, 58
2, 633363, Note_on_c, 0, 68, 64
2, 633368, Note_on_c, 0, 52, 64
2, 633370, Note_on_c, 0, 40, 59
2, 633403, Control_c, 0, 64, 127
2, 633498, Note_off_c, 0, 64, 64
2, 633498, Note_off_c, 0, 71, 64
2, 633499, Note_off_c, 0, 68, 64
2, 633499, Note_off_c, 0, 76, 64
2, 633533, Note_off_c, 0, 52, 64
2, 633535, Note_off_c, 0, 40, 64
2, 633546, Note_on_c, 0, 72, 58
2, 633548, Note_on_c, 0, 33, 57
2, 633548, Note_on_c, 0, 45, 62
2, 633548, Note_on_c, 0, 69, 57
2, 633548, Note_on_c, 0, 76, 58
2, 633548, Note_on_c, 0, 81, 58
2, 633574, Control_c, 0, 64, 0
2, 633597, Control_c, 0, 64, 127
2, 633634, Note_off_c, 0, 72, 64
2, 633636, Note_off_c, 0, 81, 64
2, 633636, Note_off_c, 0, 76, 64
2, 633636, Note_off_c, 0, 69, 64
2, 633668, Note_off_c, 0, 45, 64
2, 633668, Note_off_c, 0, 33, 64
2, 633752, Note_on_c, 0, 45, 44
2, 633780, Control_c, 0, 64, 0
2, 633786, Note_on_c, 0, 52, 47
2, 633840, Control_c, 0, 64, 127
2, 633862, Note_on_c, 0, 54, 54
2, 633871, Note_off_c, 0, 52, 64
2, 633903, Note_off_c, 0, 45, 64
2, 633907, Control_c, 0, 64, 0
2, 633936, Note_on_c, 0, 64, 46
2, 633936, Note_on_c, 0, 60, 50
2, 633943, Note_on_c, 0, 56, 48
2, 633965, Note_off_c, 0, 60, 64
2, 633965, Note_off_c, 0, 64, 64
2, 633969, Note_off_c, 0, 54, 64
2, 634023, Note_on_c, 0, 57, 52
2, 634045, Note_off_c, 0, 56, 64
2, 634105, Note_on_c, 0, 64, 50
2, 634105, Note_on_c, 0, 59, 52
2, 634108, Note_on_c, 0, 69, 44
2, 634119, Note_off_c, 0, 57, 64
2, 634121, Control_c, 0, 64, 127
2, 634134, Note_off_c, 0, 64, 64
2, 634137, Note_off_c, 0, 69, 64
2, 634182, Note_on_c, 0, 60, 52
2, 634185, Note_off_c, 0, 59, 64
2, 634233, Note_off_c, 0, 60, 64
2, 634268, Note_on_c, 0, 60, 52
2, 634274, Control_c, 0, 64, 0
2, 634328, Note_on_c, 0, 62, 47
2, 634335, Note_off_c, 0, 60, 64
2, 634363, Note_on_c, 0, 60, 41
2, 634379, Note_off_c, 0, 62, 64
2, 634420, Note_on_c, 0, 68, 48
2, 634422, Note_on_c, 0, 62, 44
2, 634424, Note_on_c, 0, 59, 52
2, 634428, Note_off_c, 0, 60, 64
2, 634449, Note_off_c, 0, 68, 64
2, 634451, Note_off_c, 0, 62, 64
2, 634580, Note_on_c, 0, 64, 48
2, 634584, Note_on_c, 0, 68, 48
2, 634586, Note_on_c, 0, 62, 47
2, 634603, Note_off_c, 0, 59, 64
2, 634605, Control_c, 0, 64, 127
2, 634613, Note_off_c, 0, 68, 64
2, 634615, Note_off_c, 0, 62, 64
2, 634723, Control_c, 0, 64, 0
2, 634727, Note_on_c, 0, 65, 48
2, 634728, Note_off_c, 0, 64, 64
2, 634776, Control_c, 0, 64, 127
2, 634840, Note_on_c, 0, 64, 44
2, 634844, Note_off_c, 0, 65, 64
2, 634867, Control_c, 0, 64, 0
2, 634880, Note_on_c, 0, 60, 29
2, 634880, Note_on_c, 0, 57, 41
2, 634888, Note_on_c, 0, 69, 48
2, 634899, Note_off_c, 0, 64, 64
2, 634932, Control_c, 0, 64, 127
2, 635007, Note_off_c, 0, 60, 64
2, 635015, Note_off_c, 0, 69, 64
2, 635036, Note_on_c, 0, 69, 52
2, 635036, Note_on_c, 0, 63, 56
2, 635037, Note_off_c, 0, 57, 64
2, 635042, Note_on_c, 0, 59, 50
2, 635051, Control_c, 0, 64, 0
2, 635066, Control_c, 0, 64, 127
2, 635181, Note_off_c, 0, 59, 64
2, 635186, Note_off_c, 0, 63, 64
2, 635186, Note_off_c, 0, 69, 64
2, 635197, Note_on_c, 0, 64, 52
2, 635203, Note_on_c, 0, 68, 48
2, 635204, Note_on_c, 0, 59, 54
2, 635204, Note_on_c, 0, 52, 47
2, 635214, Control_c, 0, 64, 0
2, 635248, Control_c, 0, 64, 127
2, 635357, Note_off_c, 0, 64, 64
2, 635363, Note_off_c, 0, 68, 64
2, 635364, Note_off_c, 0, 52, 64
2, 635364, Note_off_c, 0, 59, 64
2, 635371, Control_c, 0, 64, 0
2, 635376, Note_on_c, 0, 57, 50
2, 635376, Note_on_c, 0, 59, 50
2, 635376, Note_on_c, 0, 63, 59
2, 635376, Note_on_c, 0, 66, 58
2, 635376, Note_on_c, 0, 71, 59
2, 635378, Note_on_c, 0, 47, 48
2, 635413, Control_c, 0, 64, 127
2, 635538, Note_off_c, 0, 71, 64
2, 635538, Note_off_c, 0, 66, 64
2, 635538, Note_off_c, 0, 63, 64
2, 635538, Note_off_c, 0, 59, 64
2, 635538, Note_off_c, 0, 57, 64
2, 635553, Note_off_c, 0, 47, 64
2, 635560, Note_on_c, 0, 52, 59
2, 635562, Note_on_c, 0, 76, 59
2, 635562, Note_on_c, 0, 68, 56
2, 635562, Note_on_c, 0, 64, 54
2, 635562, Note_on_c, 0, 40, 45
2, 635571, Control_c, 0, 64, 0
2, 635603, Control_c, 0, 64, 127
2, 635664, Note_on_c, 0, 45, 71
2, 635667, Note_off_c, 0, 64, 64
2, 635667, Note_off_c, 0, 68, 64
2, 635667, Note_off_c, 0, 76, 64
2, 635685, Note_off_c, 0, 52, 64
2, 635687, Note_off_c, 0, 40, 64
2, 635713, Control_c, 0, 64, 0
2, 635718, Note_on_c, 0, 52, 57
2, 635772, Note_off_c, 0, 45, 64
2, 635774, Control_c, 0, 64, 127
2, 635800, Note_on_c, 0, 54, 56
2, 635821, Note_off_c, 0, 52, 64
2, 635839, Control_c, 0, 64, 0
2, 635874, Note_on_c, 0, 56, 52
2, 635878, Note_on_c, 0, 64, 48
2, 635878, Note_on_c, 0, 60, 48
2, 635907, Note_off_c, 0, 60, 64
2, 635907, Note_off_c, 0, 64, 64
2, 635910, Note_off_c, 0, 54, 64
2, 635959, Note_on_c, 0, 57, 48
2, 635979, Note_off_c, 0, 56, 64
2, 636028, Control_c, 0, 64, 127
2, 636042, Note_on_c, 0, 59, 52
2, 636044, Note_on_c, 0, 69, 29
2, 636046, Note_on_c, 0, 64, 47
2, 636062, Note_off_c, 0, 57, 64
2, 636073, Note_off_c, 0, 69, 64
2, 636075, Note_off_c, 0, 64, 64
2, 636121, Note_on_c, 0, 60, 57
2, 636139, Note_off_c, 0, 59, 64
2, 636171, Note_off_c, 0, 60, 64
2, 636206, Control_c, 0, 64, 0
2, 636212, Note_on_c, 0, 60, 52
2, 636267, Note_on_c, 0, 62, 49
2, 636272, Note_off_c, 0, 60, 64
2, 636308, Note_on_c, 0, 60, 47
2, 636319, Note_off_c, 0, 62, 64
2, 636364, Note_on_c, 0, 59, 52
2, 636366, Note_on_c, 0, 68, 44
2, 636368, Note_on_c, 0, 62, 50
2, 636380, Note_off_c, 0, 60, 64
2, 636397, Note_off_c, 0, 68, 64
2, 636399, Note_off_c, 0, 62, 64
2, 636526, Note_on_c, 0, 68, 47
2, 636526, Note_on_c, 0, 64, 72
2, 636528, Note_on_c, 0, 62, 47
2, 636535, Note_off_c, 0, 59, 64
2, 636550, Control_c, 0, 64, 127
2, 636559, Note_off_c, 0, 68, 64
2, 636561, Note_off_c, 0, 62, 64
2, 636668, Control_c, 0, 64, 0
2, 636680, Note_on_c, 0, 65, 49
2, 636683, Note_off_c, 0, 64, 64
2, 636726, Control_c, 0, 64, 127
2, 636794, Note_on_c, 0, 64, 48
2, 636802, Note_off_c, 0, 65, 64
2, 636833, Note_on_c, 0, 69, 50
2, 636833, Control_c, 0, 64, 0
2, 636837, Note_on_c, 0, 60, 44
2, 636842, Note_on_c, 0, 57, 44
2, 636856, Note_off_c, 0, 64, 64
2, 636873, Control_c, 0, 64, 127
2, 636980, Note_off_c, 0, 69, 64
2, 636984, Note_off_c, 0, 60, 64
2, 636987, Control_c, 0, 64, 0
2, 636996, Note_on_c, 0, 68, 44
2, 636997, Note_on_c, 0, 71, 48
2, 636997, Note_on_c, 0, 62, 48
2, 636997, Note_on_c, 0, 52, 48
2, 637000, Note_off_c, 0, 57, 64
2, 637032, Control_c, 0, 64, 127
2, 637112, Note_on_c, 0, 72, 44
2, 637123, Note_off_c, 0, 68, 64
2, 637124, Note_off_c, 0, 62, 64
2, 637124, Note_off_c, 0, 71, 64
2, 637148, Note_off_c, 0, 52, 64
2, 637148, Control_c, 0, 64, 0
2, 637153, Note_on_c, 0, 69, 52
2, 637160, Note_on_c, 0, 57, 48
2, 637160, Note_on_c, 0, 45, 44
2, 637161, Note_on_c, 0, 60, 50
2, 637168, Note_off_c, 0, 72, 64
2, 637184, Control_c, 0, 64, 127
2, 637288, Note_off_c, 0, 69, 64
2, 637296, Note_off_c, 0, 60, 64
2, 637310, Note_off_c, 0, 45, 64
2, 637310, Note_off_c, 0, 57, 64
2, 637316, Note_on_c, 0, 52, 58
2, 637316, Note_on_c, 0, 62, 56
2, 637316, Note_on_c, 0, 64, 57
2, 637316, Note_on_c, 0, 68, 58
2, 637316, Note_on_c, 0, 71, 62
2, 637316, Note_on_c, 0, 76, 62
2, 637318, Note_on_c, 0, 40, 58
2, 637344, Control_c, 0, 64, 0
2, 637363, Control_c, 0, 64, 127
2, 637432, Control_c, 0, 64, 0
2, 637451, Control_c, 0, 64, 127
2, 637478, Note_off_c, 0, 76, 64
2, 637478, Note_off_c, 0, 71, 64
2, 637478, Note_off_c, 0, 68, 64
2, 637478, Note_off_c, 0, 64, 64
2, 637478, Note_off_c, 0, 62, 64
2, 637480, Note_off_c, 0, 52, 64
2, 637482, Note_off_c, 0, 40, 64
2, 637516, Note_on_c, 0, 69, 58
2, 637516, Note_on_c, 0, 45, 59
2, 637516, Note_on_c, 0, 33, 57
2, 637517, Note_on_c, 0, 81, 57
2, 637517, Note_on_c, 0, 72, 59
2, 637531, Control_c, 0, 64, 0
2, 637568, Control_c, 0, 64, 127
2, 637609, Note_off_c, 0, 69, 64
2, 637610, Note_off_c, 0, 72, 64
2, 637610, Note_off_c, 0, 81, 64
2, 637680, Note_off_c, 0, 33, 64
2, 637680, Note_off_c, 0, 45, 64
2, 637701, Control_c, 0, 64, 0
2, 637710, Note_on_c, 0, 35, 59
2, 637712, Note_on_c, 0, 47, 65
2, 637748, Control_c, 0, 64, 127
2, 637831, Note_on_c, 0, 75, 56
2, 637868, Note_on_c, 0, 76, 59
2, 637880, Control_c, 0, 64, 0
2, 637885, Note_off_c, 0, 75, 64
2, 637896, Note_on_c, 0, 69, 50
2, 637898, Note_on_c, 0, 66, 57
2, 637898, Note_on_c, 0, 59, 55
2, 637904, Note_on_c, 0, 75, 62
2, 637913, Note_off_c, 0, 35, 64
2, 637915, Note_off_c, 0, 47, 64
2, 637922, Note_off_c, 0, 76, 64
2, 637924, Control_c, 0, 64, 127
2, 637931, Note_off_c, 0, 59, 64
2, 637932, Note_off_c, 0, 69, 64
2, 637934, Note_off_c, 0, 66, 64
2, 637982, Note_on_c, 0, 73, 57
2, 638001, Note_off_c, 0, 75, 64
2, 638045, Control_c, 0, 64, 0
2, 638052, Note_on_c, 0, 75, 65
2, 638056, Note_on_c, 0, 69, 50
2, 638058, Note_on_c, 0, 66, 59
2, 638060, Note_on_c, 0, 59, 57
2, 638074, Control_c, 0, 64, 127
2, 638076, Note_off_c, 0, 73, 64
2, 638127, Note_on_c, 0, 76, 57
2, 638145, Note_off_c, 0, 75, 64
2, 638170, Note_off_c, 0, 69, 64
2, 638172, Note_off_c, 0, 66, 64
2, 638174, Note_off_c, 0, 59, 64
2, 638208, Note_on_c, 0, 78, 55
2, 638228, Note_off_c, 0, 76, 64
2, 638292, Note_on_c, 0, 80, 65
2, 638300, Note_off_c, 0, 78, 64
2, 638314, Control_c, 0, 64, 0
2, 638355, Note_on_c, 0, 76, 59
2, 638361, Note_on_c, 0, 52, 59
2, 638362, Note_on_c, 0, 59, 62
2, 638368, Note_on_c, 0, 68, 59
2, 638370, Note_off_c, 0, 80, 64
2, 638384, Note_off_c, 0, 52, 64
2, 638391, Note_off_c, 0, 68, 64
2, 638392, Note_off_c, 0, 59, 64
2, 638536, Note_on_c, 0, 52, 62
2, 638542, Note_on_c, 0, 68, 64
2, 638542, Note_on_c, 0, 59, 64
2, 638558, Control_c, 0, 64, 127
2, 638612, Note_off_c, 0, 76, 64
2, 638618, Note_on_c, 0, 71, 50
2, 638650, Note_off_c, 0, 52, 64
2, 638656, Note_off_c, 0, 59, 64
2, 638656, Note_off_c, 0, 68, 64
2, 638680, Control_c, 0, 64, 0
2, 638685, Note_on_c, 0, 74, 59
2, 638691, Note_off_c, 0, 71, 64
2, 638695, Control_c, 0, 64, 127
2, 638761, Note_off_c, 0, 74, 64
2, 638778, Note_on_c, 0, 73, 66
2, 638814, Note_off_c, 0, 73, 64
2, 638817, Note_on_c, 0, 74, 55
2, 638833, Control_c, 0, 64, 0
2, 638847, Note_on_c, 0, 57, 55
2, 638848, Note_on_c, 0, 67, 59
2, 638853, Note_on_c, 0, 73, 66
2, 638853, Note_on_c, 0, 64, 59
2, 638868, Note_off_c, 0, 74, 64
2, 638882, Note_off_c, 0, 64, 64
2, 638883, Note_off_c, 0, 57, 64
2, 638884, Note_off_c, 0, 67, 64
2, 638934, Note_on_c, 0, 71, 59
2, 638944, Note_off_c, 0, 73, 64
2, 639006, Note_on_c, 0, 73, 64
2, 639014, Control_c, 0, 64, 127
2, 639016, Note_on_c, 0, 67, 31
2, 639024, Note_off_c, 0, 71, 64
2, 639024, Note_on_c, 0, 57, 59
2, 639029, Note_on_c, 0, 64, 64
2, 639087, Note_on_c, 0, 74, 54
2, 639097, Note_off_c, 0, 73, 64
2, 639130, Note_off_c, 0, 67, 64
2, 639138, Note_off_c, 0, 57, 64
2, 639143, Note_off_c, 0, 64, 64
2, 639163, Note_on_c, 0, 76, 54
2, 639182, Note_off_c, 0, 74, 64
2, 639234, Note_on_c, 0, 78, 66
2, 639264, Note_off_c, 0, 76, 64
2, 639285, Control_c, 0, 64, 0
2, 639305, Note_on_c, 0, 57, 59
2, 639313, Note_on_c, 0, 74, 63
2, 639313, Note_on_c, 0, 66, 73
2, 639313, Note_on_c, 0, 50, 62
2, 639330, Note_off_c, 0, 66, 64
2, 639331, Note_off_c, 0, 78, 64
2, 639337, Note_off_c, 0, 50, 64
2, 639337, Note_off_c, 0, 57, 64
2, 639476, Note_on_c, 0, 66, 59
2, 639485, Note_on_c, 0, 57, 59
2, 639489, Note_on_c, 0, 50, 56
2, 639504, Control_c, 0, 64, 127
2, 639549, Note_off_c, 0, 74, 64
2, 639564, Note_on_c, 0, 69, 50
2, 639590, Note_off_c, 0, 66, 64
2, 639599, Note_off_c, 0, 57, 64
2, 639599, Control_c, 0, 64, 0
2, 639603, Note_off_c, 0, 50, 64
2, 639619, Note_on_c, 0, 72, 59
2, 639629, Note_off_c, 0, 69, 64
2, 639641, Control_c, 0, 64, 127
2, 639735, Note_on_c, 0, 71, 59
2, 639752, Note_off_c, 0, 72, 64
2, 639768, Note_on_c, 0, 72, 57
2, 639777, Note_off_c, 0, 71, 64
2, 639786, Control_c, 0, 64, 0
2, 639794, Note_on_c, 0, 62, 64
2, 639794, Note_on_c, 0, 55, 59
2, 639800, Note_on_c, 0, 65, 32
2, 639804, Note_on_c, 0, 71, 57
2, 639821, Note_off_c, 0, 72, 64
2, 639824, Note_off_c, 0, 55, 64
2, 639824, Note_off_c, 0, 62, 64
2, 639830, Note_off_c, 0, 65, 64
2, 639873, Note_on_c, 0, 69, 62
2, 639892, Note_off_c, 0, 71, 64
2, 639947, Note_on_c, 0, 71, 57
2, 639960, Note_on_c, 0, 65, 33
2, 639962, Note_on_c, 0, 62, 66
2, 639962, Note_on_c, 0, 55, 66
2, 639963, Control_c, 0, 64, 127
2, 639970, Note_off_c, 0, 69, 64
2, 640027, Note_on_c, 0, 72, 40
2, 640054, Note_off_c, 0, 71, 64
2, 640074, Note_off_c, 0, 65, 64
2, 640076, Note_off_c, 0, 55, 64
2, 640076, Note_off_c, 0, 62, 64
2, 640100, Note_on_c, 0, 74, 59
2, 640110, Note_off_c, 0, 72, 64
2, 640178, Note_on_c, 0, 76, 64
2, 640196, Note_off_c, 0, 74, 64
2, 640253, Note_on_c, 0, 36, 59
2, 640259, Note_on_c, 0, 72, 64
2, 640261, Note_on_c, 0, 64, 64
2, 640263, Note_on_c, 0, 48, 57
2, 640263, Control_c, 0, 64, 0
2, 640275, Note_off_c, 0, 76, 64
2, 640309, Control_c, 0, 64, 127
2, 640396, Note_on_c, 0, 38, 73
2, 640408, Note_on_c, 0, 65, 56
2, 640412, Note_on_c, 0, 71, 59
2, 640412, Note_on_c, 0, 62, 73
2, 640412, Note_on_c, 0, 50, 81
2, 640421, Note_off_c, 0, 36, 64
2, 640427, Note_off_c, 0, 72, 64
2, 640427, Control_c, 0, 64, 0
2, 640429, Note_off_c, 0, 64, 64
2, 640431, Note_off_c, 0, 48, 64
2, 640455, Control_c, 0, 64, 127
2, 640514, Note_off_c, 0, 71, 64
2, 640520, Note_on_c, 0, 40, 73
2, 640528, Note_on_c, 0, 71, 73
2, 640545, Note_off_c, 0, 65, 64
2, 640549, Note_off_c, 0, 62, 64
2, 640555, Note_off_c, 0, 38, 64
2, 640559, Note_on_c, 0, 52, 93
2, 640571, Note_off_c, 0, 50, 64
2, 640575, Control_c, 0, 64, 0
2, 640592, Note_off_c, 0, 40, 64
2, 640600, Note_off_c, 0, 71, 64
2, 640738, Note_on_c, 0, 56, 75
2, 640744, Note_on_c, 0, 64, 65
2, 640744, Note_on_c, 0, 62, 59
2, 640767, Note_off_c, 0, 56, 64
2, 640773, Note_off_c, 0, 62, 64
2, 640773, Note_off_c, 0, 64, 64
2, 640810, Note_on_c, 0, 53, 65
2, 640832, Note_off_c, 0, 52, 64
2, 640888, Note_off_c, 0, 53, 64
2, 640892, Note_on_c, 0, 64, 57
2, 640892, Note_on_c, 0, 62, 56
2, 640892, Note_on_c, 0, 52, 82
2, 640895, Note_on_c, 0, 56, 66
2, 640921, Note_off_c, 0, 62, 64
2, 640921, Note_off_c, 0, 64, 64
2, 640924, Note_off_c, 0, 56, 64
2, 641043, Note_on_c, 0, 50, 63
2, 641104, Note_off_c, 0, 52, 64
2, 641197, Note_on_c, 0, 48, 73
2, 641197, Note_on_c, 0, 64, 64
2, 641197, Note_on_c, 0, 60, 65
2, 641197, Note_on_c, 0, 57, 56
2, 641198, Note_on_c, 0, 69, 63
2, 641216, Note_off_c, 0, 50, 64
2, 641223, Control_c, 0, 64, 127
2, 641226, Note_off_c, 0, 57, 64
2, 641226, Note_off_c, 0, 60, 64
2, 641226, Note_off_c, 0, 64, 64
2, 641227, Note_off_c, 0, 69, 64
2, 641280, Note_on_c, 0, 47, 67
2, 641302, Note_off_c, 0, 48, 64
2, 641323, Control_c, 0, 64, 0
2, 641370, Note_on_c, 0, 81, 73
2, 641370, Note_on_c, 0, 72, 63
2, 641370, Note_on_c, 0, 45, 66
2, 641372, Note_on_c, 0, 76, 71
2, 641372, Note_on_c, 0, 69, 50
2, 641388, Note_off_c, 0, 47, 64
2, 641396, Control_c, 0, 64, 127
2, 641399, Note_off_c, 0, 72, 64
2, 641399, Note_off_c, 0, 81, 64
2, 641401, Note_off_c, 0, 69, 64
2, 641401, Note_off_c, 0, 76, 64
2, 641494, Control_c, 0, 64, 127
2, 641517, Note_off_c, 0, 45, 64
2, 641527, Control_c, 0, 64, 0
2, 641544, Note_on_c, 0, 35, 39
2, 641551, Note_on_c, 0, 47, 48
2, 641582, Control_c, 0, 64, 127
2, 641653, Note_on_c, 0, 75, 44
2, 641687, Note_on_c, 0, 76, 44
2, 641697, Note_off_c, 0, 75, 64
2, 641704, Control_c, 0, 64, 0
2, 641719, Note_on_c, 0, 75, 44
2, 641720, Note_on_c, 0, 69, 24
2, 641720, Note_on_c, 0, 66, 29
2, 641733, Note_on_c, 0, 59, 32
2, 641742, Note_off_c, 0, 76, 64
2, 641747, Note_off_c, 0, 35, 64
2, 641749, Note_off_c, 0, 66, 64
2, 641749, Note_off_c, 0, 69, 64
2, 641754, Note_off_c, 0, 47, 64
2, 641762, Note_off_c, 0, 59, 64
2, 641779, Control_c, 0, 64, 127
2, 641788, Note_on_c, 0, 73, 44
2, 641805, Note_off_c, 0, 75, 64
2, 641864, Note_on_c, 0, 69, 24
2, 641865, Control_c, 0, 64, 0
2, 641871, Note_on_c, 0, 75, 50
2, 641871, Note_on_c, 0, 66, 36
2, 641877, Note_on_c, 0, 59, 36
2, 641885, Control_c, 0, 64, 127
2, 641890, Note_off_c, 0, 73, 64
2, 641952, Note_on_c, 0, 76, 36
2, 641966, Note_off_c, 0, 75, 64
2, 641978, Note_off_c, 0, 69, 64
2, 641985, Note_off_c, 0, 66, 64
2, 641991, Note_off_c, 0, 59, 64
2, 642027, Note_on_c, 0, 78, 47
2, 642044, Note_off_c, 0, 76, 64
2, 642094, Note_on_c, 0, 80, 44
2, 642104, Note_off_c, 0, 78, 64
2, 642142, Control_c, 0, 64, 0
2, 642166, Note_on_c, 0, 52, 39
2, 642173, Note_on_c, 0, 59, 36
2, 642174, Note_on_c, 0, 76, 37
2, 642178, Note_on_c, 0, 68, 42
2, 642191, Note_off_c, 0, 80, 64
2, 642202, Note_off_c, 0, 52, 64
2, 642209, Note_off_c, 0, 59, 64
2, 642214, Note_off_c, 0, 68, 64
2, 642344, Note_on_c, 0, 68, 40
2, 642351, Note_on_c, 0, 59, 36
2, 642355, Note_on_c, 0, 52, 36
2, 642376, Control_c, 0, 64, 127
2, 642423, Note_on_c, 0, 71, 42
2, 642444, Note_off_c, 0, 76, 64
2, 642458, Note_off_c, 0, 68, 64
2, 642465, Note_off_c, 0, 59, 64
2, 642469, Note_off_c, 0, 52, 64
2, 642483, Note_on_c, 0, 74, 44
2, 642495, Note_off_c, 0, 71, 64
2, 642583, Note_on_c, 0, 73, 48
2, 642585, Note_off_c, 0, 74, 64
2, 642616, Note_on_c, 0, 74, 39
2, 642632, Note_off_c, 0, 73, 64
2, 642636, Control_c, 0, 64, 0
2, 642640, Note_on_c, 0, 67, 31
2, 642647, Note_on_c, 0, 64, 39
2, 642647, Note_on_c, 0, 57, 36
2, 642652, Note_on_c, 0, 73, 47
2, 642669, Note_off_c, 0, 74, 64
2, 642676, Note_off_c, 0, 67, 64
2, 642680, Note_off_c, 0, 57, 64
2, 642680, Note_off_c, 0, 64, 64
2, 642726, Note_on_c, 0, 71, 36
2, 642738, Note_off_c, 0, 73, 64
2, 642807, Note_on_c, 0, 73, 48
2, 642808, Note_on_c, 0, 67, 31
2, 642816, Note_on_c, 0, 64, 39
2, 642821, Note_off_c, 0, 71, 64
2, 642821, Note_on_c, 0, 57, 39
2, 642835, Control_c, 0, 64, 127
2, 642884, Note_on_c, 0, 74, 41
2, 642905, Note_off_c, 0, 73, 64
2, 642922, Note_off_c, 0, 67, 64
2, 642930, Note_off_c, 0, 64, 64
2, 642935, Note_off_c, 0, 57, 64
2, 642967, Note_on_c, 0, 76, 39
2, 642992, Note_off_c, 0, 74, 64
2, 643040, Note_on_c, 0, 78, 48
2, 643057, Note_off_c, 0, 76, 64
2, 643095, Control_c, 0, 64, 0
2, 643110, Note_on_c, 0, 74, 41
2, 643117, Note_on_c, 0, 66, 39
2, 643117, Note_on_c, 0, 57, 36
2, 643120, Note_on_c, 0, 50, 29
2, 643126, Note_off_c, 0, 78, 64
2, 643146, Note_off_c, 0, 57, 64
2, 643146, Note_off_c, 0, 66, 64
2, 643149, Note_off_c, 0, 50, 64
2, 643283, Note_on_c, 0, 66, 39
2, 643291, Note_on_c, 0, 50, 36
2, 643294, Note_on_c, 0, 57, 39
2, 643321, Control_c, 0, 64, 127
2, 643358, Note_on_c, 0, 69, 37
2, 643360, Note_off_c, 0, 74, 64
2, 643397, Note_off_c, 0, 66, 64
2, 643405, Note_off_c, 0, 50, 64
2, 643408, Note_off_c, 0, 57, 64
2, 643418, Note_on_c, 0, 72, 44
2, 643432, Note_off_c, 0, 69, 64
2, 643528, Note_on_c, 0, 71, 47
2, 643540, Note_off_c, 0, 72, 64
2, 643568, Note_on_c, 0, 72, 37
2, 643572, Control_c, 0, 64, 0
2, 643578, Note_off_c, 0, 71, 64
2, 643580, Note_on_c, 0, 65, 28
2, 643582, Note_on_c, 0, 62, 39
2, 643582, Note_on_c, 0, 55, 36
2, 643591, Note_on_c, 0, 71, 58
2, 643610, Note_off_c, 0, 72, 64
2, 643616, Note_off_c, 0, 65, 64
2, 643618, Note_off_c, 0, 55, 64
2, 643618, Note_off_c, 0, 62, 64
2, 643662, Note_on_c, 0, 69, 35
2, 643686, Note_off_c, 0, 71, 64
2, 643744, Note_on_c, 0, 65, 24
2, 643744, Note_on_c, 0, 62, 40
2, 643745, Note_on_c, 0, 71, 41
2, 643748, Note_on_c, 0, 55, 42
2, 643768, Note_off_c, 0, 69, 64
2, 643772, Control_c, 0, 64, 127
2, 643820, Note_on_c, 0, 72, 29
2, 643855, Note_off_c, 0, 71, 64
2, 643858, Note_off_c, 0, 62, 64
2, 643858, Note_off_c, 0, 65, 64
2, 643862, Note_off_c, 0, 55, 64
2, 643902, Note_on_c, 0, 74, 48
2, 643923, Note_off_c, 0, 72, 64
2, 643985, Note_on_c, 0, 76, 44
2, 644015, Note_off_c, 0, 74, 64
2, 644054, Note_on_c, 0, 36, 47
2, 644054, Note_on_c, 0, 72, 44
2, 644054, Control_c, 0, 64, 0
2, 644063, Note_on_c, 0, 48, 41
2, 644063, Note_on_c, 0, 64, 47
2, 644078, Note_off_c, 0, 76, 64
2, 644095, Control_c, 0, 64, 127
2, 644200, Note_on_c, 0, 71, 49
2, 644200, Note_on_c, 0, 62, 47
2, 644201, Note_on_c, 0, 38, 50
2, 644202, Note_off_c, 0, 72, 64
2, 644205, Note_on_c, 0, 50, 50
2, 644211, Note_off_c, 0, 64, 64
2, 644213, Control_c, 0, 64, 0
2, 644224, Note_off_c, 0, 36, 64
2, 644233, Note_off_c, 0, 48, 64
2, 644264, Control_c, 0, 64, 127
2, 644314, Note_off_c, 0, 71, 64
2, 644336, Note_on_c, 0, 71, 48
2, 644340, Note_on_c, 0, 40, 48
2, 644358, Note_off_c, 0, 62, 64
2, 644358, Note_on_c, 0, 52, 66
2, 644359, Note_off_c, 0, 38, 64
2, 644363, Note_off_c, 0, 50, 64
2, 644367, Control_c, 0, 64, 0
2, 644417, Note_off_c, 0, 71, 64
2, 644421, Note_off_c, 0, 40, 64
2, 644519, Control_c, 0, 64, 0
2, 644534, Note_on_c, 0, 64, 42
2, 644534, Note_on_c, 0, 62, 48
2, 644534, Note_on_c, 0, 56, 56
2, 644563, Note_off_c, 0, 56, 64
2, 644563, Note_off_c, 0, 62, 64
2, 644563, Note_off_c, 0, 64, 64
2, 644606, Note_on_c, 0, 53, 49
2, 644626, Note_off_c, 0, 52, 64
2, 644683, Note_on_c, 0, 52, 62
2, 644696, Note_on_c, 0, 64, 50
2, 644696, Note_on_c, 0, 62, 50
2, 644697, Note_off_c, 0, 53, 64
2, 644706, Note_on_c, 0, 56, 47
2, 644725, Note_off_c, 0, 62, 64
2, 644725, Note_off_c, 0, 64, 64
2, 644735, Note_off_c, 0, 56, 64
2, 644843, Note_on_c, 0, 50, 49
2, 644880, Note_off_c, 0, 52, 64
2, 644996, Note_on_c, 0, 69, 48
2, 644997, Note_on_c, 0, 48, 47
2, 644998, Note_on_c, 0, 64, 55
2, 644998, Note_on_c, 0, 57, 49
2, 644999, Note_on_c, 0, 60, 55
2, 645022, Note_off_c, 0, 50, 64
2, 645025, Note_off_c, 0, 69, 64
2, 645027, Note_off_c, 0, 57, 64
2, 645027, Note_off_c, 0, 64, 64
2, 645028, Note_off_c, 0, 60, 64
2, 645128, Note_on_c, 0, 47, 44
2, 645142, Note_off_c, 0, 48, 64
2, 645182, Note_on_c, 0, 81, 50
2, 645182, Note_on_c, 0, 45, 50
2, 645184, Note_on_c, 0, 76, 50
2, 645186, Note_on_c, 0, 72, 55
2, 645186, Note_on_c, 0, 69, 52
2, 645209, Control_c, 0, 64, 127
2, 645211, Note_off_c, 0, 81, 64
2, 645213, Note_off_c, 0, 76, 64
2, 645215, Note_off_c, 0, 69, 64
2, 645215, Note_off_c, 0, 72, 64
2, 645220, Note_off_c, 0, 47, 64
2, 645349, Note_off_c, 0, 45, 64
2, 645444, Note_on_c, 0, 55, 54
2, 645446, Note_on_c, 0, 48, 62
2, 645451, Note_on_c, 0, 67, 50
2, 645461, Control_c, 0, 64, 0
2, 645529, Note_on_c, 0, 69, 37
2, 645564, Note_off_c, 0, 67, 64
2, 645606, Note_on_c, 0, 71, 50
2, 645633, Note_off_c, 0, 69, 64
2, 645671, Control_c, 0, 64, 127
2, 645680, Note_on_c, 0, 72, 59
2, 645692, Note_off_c, 0, 71, 64
2, 645760, Note_on_c, 0, 74, 42
2, 645784, Note_off_c, 0, 72, 64
2, 645830, Note_on_c, 0, 76, 50
2, 645856, Note_off_c, 0, 74, 64
2, 645893, Note_off_c, 0, 48, 64
2, 645907, Note_on_c, 0, 78, 62
2, 645942, Note_off_c, 0, 76, 64
2, 645978, Note_on_c, 0, 57, 57
2, 645982, Note_on_c, 0, 79, 66
2, 645988, Note_off_c, 0, 55, 64
2, 646004, Note_off_c, 0, 78, 64
2, 646052, Note_on_c, 0, 59, 66
2, 646053, Note_on_c, 0, 78, 66
2, 646069, Note_off_c, 0, 79, 64
2, 646072, Note_off_c, 0, 57, 64
2, 646088, Control_c, 0, 64, 0
2, 646128, Note_on_c, 0, 74, 46
2, 646132, Note_on_c, 0, 60, 54
2, 646148, Note_off_c, 0, 78, 64
2, 646162, Note_off_c, 0, 59, 64
2, 646196, Note_on_c, 0, 62, 62
2, 646199, Note_on_c, 0, 76, 57
2, 646223, Note_off_c, 0, 74, 64
2, 646229, Note_off_c, 0, 60, 64
2, 646276, Note_on_c, 0, 64, 56
2, 646277, Note_on_c, 0, 72, 59
2, 646301, Note_off_c, 0, 76, 64
2, 646301, Note_off_c, 0, 62, 64
2, 646352, Note_on_c, 0, 74, 65
2, 646352, Note_on_c, 0, 66, 65
2, 646366, Note_off_c, 0, 72, 64
2, 646374, Note_off_c, 0, 64, 64
2, 646420, Note_on_c, 0, 76, 55
2, 646420, Note_on_c, 0, 67, 55
2, 646441, Note_off_c, 0, 66, 64
2, 646448, Note_off_c, 0, 74, 64
2, 646506, Note_on_c, 0, 74, 55
2, 646508, Note_on_c, 0, 66, 33
2, 646513, Note_off_c, 0, 76, 64
2, 646520, Control_c, 0, 64, 127
2, 646523, Note_off_c, 0, 67, 64
2, 646574, Note_on_c, 0, 62, 55
2, 646603, Note_off_c, 0, 66, 64
2, 646659, Note_on_c, 0, 72, 50
2, 646660, Note_on_c, 0, 64, 55
2, 646677, Note_off_c, 0, 62, 64
2, 646682, Note_off_c, 0, 74, 64
2, 646736, Note_on_c, 0, 69, 55
2, 646744, Note_on_c, 0, 60, 52
2, 646768, Note_off_c, 0, 64, 64
2, 646769, Note_off_c, 0, 72, 64
2, 646820, Note_on_c, 0, 67, 63
2, 646823, Note_on_c, 0, 65, 59
2, 646824, Note_on_c, 0, 62, 56
2, 646856, Control_c, 0, 64, 0
2, 646860, Note_off_c, 0, 60, 64
2, 646863, Note_off_c, 0, 69, 64
2, 646912, Note_on_c, 0, 64, 47
2, 646936, Note_off_c, 0, 62, 64
2, 646984, Note_on_c, 0, 62, 50
2, 647016, Note_off_c, 0, 64, 64
2, 647017, Control_c, 0, 64, 127
2, 647176, Note_on_c, 0, 72, 48
2, 647179, Note_off_c, 0, 62, 64
2, 647182, Note_on_c, 0, 64, 40
2, 647182, Note_on_c, 0, 60, 54
2, 647184, Note_off_c, 0, 67, 64
2, 647187, Note_off_c, 0, 65, 64
2, 647272, Note_on_c, 0, 57, 44
2, 647289, Note_off_c, 0, 60, 64
2, 647350, Note_off_c, 0, 72, 64
2, 647352, Note_on_c, 0, 55, 50
2, 647352, Note_on_c, 0, 48, 50
2, 647356, Note_off_c, 0, 64, 64
2, 647361, Note_on_c, 0, 67, 41
2, 647373, Note_off_c, 0, 57, 64
2, 647374, Control_c, 0, 64, 0
2, 647432, Note_on_c, 0, 69, 44
2, 647446, Note_off_c, 0, 67, 64
2, 647501, Note_on_c, 0, 71, 42
2, 647518, Note_off_c, 0, 69, 64
2, 647545, Control_c, 0, 64, 127
2, 647575, Note_on_c, 0, 72, 42
2, 647587, Note_off_c, 0, 71, 64
2, 647633, Control_c, 0, 64, 0
2, 647672, Note_on_c, 0, 60, 48
2, 647675, Note_on_c, 0, 74, 41
2, 647687, Note_off_c, 0, 55, 64
2, 647691, Note_off_c, 0, 72, 64
2, 647698, Control_c, 0, 64, 127
2, 647738, Note_on_c, 0, 76, 44
2, 647754, Note_off_c, 0, 74, 64
2, 647820, Note_on_c, 0, 55, 50
2, 647825, Note_on_c, 0, 78, 48
2, 647847, Note_off_c, 0, 60, 64
2, 647848, Note_off_c, 0, 48, 64
2, 647857, Note_off_c, 0, 76, 64
2, 647865, Control_c, 0, 64, 0
2, 647908, Note_on_c, 0, 57, 42
2, 647908, Note_on_c, 0, 79, 50
2, 647923, Note_off_c, 0, 78, 64
2, 647929, Note_off_c, 0, 55, 64
2, 647977, Note_on_c, 0, 78, 48
2, 647979, Note_on_c, 0, 59, 40
2, 647998, Note_off_c, 0, 79, 64
2, 648008, Note_off_c, 0, 57, 64
2, 648052, Note_on_c, 0, 60, 40
2, 648053, Note_on_c, 0, 74, 40
2, 648062, Note_off_c, 0, 59, 64
2, 648069, Note_off_c, 0, 78, 64
2, 648128, Note_on_c, 0, 76, 44
2, 648128, Note_on_c, 0, 62, 48
2, 648136, Note_off_c, 0, 74, 64
2, 648142, Note_off_c, 0, 60, 64
2, 648196, Note_on_c, 0, 64, 40
2, 648199, Note_on_c, 0, 72, 50
2, 648217, Note_off_c, 0, 76, 64
2, 648223, Note_off_c, 0, 62, 64
2, 648272, Note_on_c, 0, 74, 54
2, 648275, Note_on_c, 0, 66, 40
2, 648286, Note_off_c, 0, 64, 64
2, 648289, Note_off_c, 0, 72, 64
2, 648345, Note_on_c, 0, 67, 40
2, 648348, Note_on_c, 0, 76, 40
2, 648363, Note_off_c, 0, 66, 64
2, 648365, Note_off_c, 0, 74, 64
2, 648416, Note_on_c, 0, 66, 40
2, 648417, Note_on_c, 0, 74, 44
2, 648436, Note_off_c, 0, 67, 64
2, 648437, Note_off_c, 0, 76, 64
2, 648492, Note_on_c, 0, 62, 41
2, 648493, Note_on_c, 0, 71, 40
2, 648509, Note_off_c, 0, 66, 64
2, 648510, Note_off_c, 0, 74, 64
2, 648564, Note_on_c, 0, 64, 50
2, 648569, Note_on_c, 0, 72, 41
2, 648573, Control_c, 0, 64, 127
2, 648578, Note_off_c, 0, 62, 64
2, 648579, Note_off_c, 0, 71, 64
2, 648644, Note_on_c, 0, 69, 54
2, 648644, Note_on_c, 0, 60, 20
2, 648652, Note_off_c, 0, 72, 64
2, 648668, Note_off_c, 0, 64, 64
2, 648732, Note_on_c, 0, 62, 50
2, 648736, Note_on_c, 0, 67, 50
2, 648739, Note_on_c, 0, 65, 47
2, 648755, Note_off_c, 0, 60, 64
2, 648755, Note_off_c, 0, 69, 64
2, 648756, Control_c, 0, 64, 0
2, 648808, Note_on_c, 0, 64, 54
2, 648816, Note_off_c, 0, 62, 64
2, 648844, Control_c, 0, 64, 127
2, 648890, Note_on_c, 0, 62, 47
2, 648905, Note_off_c, 0, 64, 64
2, 648967, Note_on_c, 0, 59, 44
2, 648979, Note_off_c, 0, 62, 64
2, 649050, Note_on_c, 0, 64, 40
2, 649052, Note_on_c, 0, 60, 46
2, 649060, Note_off_c, 0, 59, 64
2, 649064, Note_off_c, 0, 65, 64
2, 649125, Note_on_c, 0, 57, 50
2, 649146, Note_off_c, 0, 60, 64
2, 649220, Note_on_c, 0, 48, 41
2, 649222, Note_on_c, 0, 55, 28
2, 649231, Note_off_c, 0, 57, 64
2, 649239, Control_c, 0, 64, 0
2, 649301, Note_on_c, 0, 69, 29
2, 649303, Note_off_c, 0, 64, 64
2, 649330, Note_off_c, 0, 67, 64
2, 649386, Note_on_c, 0, 71, 47
2, 649406, Note_off_c, 0, 69, 64
2, 649459, Note_on_c, 0, 72, 42
2, 649471, Note_off_c, 0, 71, 64
2, 649532, Note_on_c, 0, 74, 44
2, 649534, Control_c, 0, 64, 127
2, 649548, Note_off_c, 0, 72, 64
2, 649609, Note_on_c, 0, 76, 47
2, 649633, Note_off_c, 0, 74, 64
2, 649684, Note_on_c, 0, 78, 46
2, 649691, Note_off_c, 0, 48, 64
2, 649714, Note_off_c, 0, 76, 64
2, 649763, Note_on_c, 0, 79, 52
2, 649764, Note_on_c, 0, 57, 42
2, 649774, Note_off_c, 0, 78, 64
2, 649790, Note_off_c, 0, 55, 64
2, 649832, Note_on_c, 0, 59, 44
2, 649835, Note_on_c, 0, 78, 48
2, 649853, Note_off_c, 0, 79, 64
2, 649858, Note_off_c, 0, 57, 64
2, 649912, Note_on_c, 0, 60, 26
2, 649914, Note_on_c, 0, 74, 49
2, 649931, Note_off_c, 0, 59, 64
2, 649934, Note_off_c, 0, 78, 64
2, 649987, Control_c, 0, 64, 0
2, 649992, Note_on_c, 0, 76, 39
2, 649992, Note_on_c, 0, 62, 42
2, 650000, Note_off_c, 0, 60, 64
2, 650002, Note_off_c, 0, 74, 64
2, 650064, Note_on_c, 0, 72, 46
2, 650064, Note_on_c, 0, 64, 44
2, 650077, Note_off_c, 0, 76, 64
2, 650083, Note_off_c, 0, 62, 64
2, 650139, Note_on_c, 0, 74, 57
2, 650139, Note_on_c, 0, 66, 54
2, 650161, Note_off_c, 0, 64, 64
2, 650161, Note_off_c, 0, 72, 64
2, 650208, Note_on_c, 0, 76, 47
2, 650218, Note_on_c, 0, 67, 52
2, 650228, Note_off_c, 0, 74, 64
2, 650237, Note_off_c, 0, 66, 64
2, 650287, Note_on_c, 0, 74, 50
2, 650287, Note_on_c, 0, 66, 39
2, 650293, Note_off_c, 0, 76, 64
2, 650303, Note_off_c, 0, 67, 64
2, 650352, Control_c, 0, 64, 127
2, 650360, Note_on_c, 0, 62, 37
2, 650386, Note_off_c, 0, 66, 64
2, 650432, Note_on_c, 0, 64, 29
2, 650434, Note_on_c, 0, 72, 47
2, 650446, Note_off_c, 0, 74, 64
2, 650458, Note_off_c, 0, 62, 64
2, 650510, Note_on_c, 0, 69, 35
2, 650512, Note_on_c, 0, 60, 36
2, 650522, Note_off_c, 0, 72, 64
2, 650532, Note_off_c, 0, 64, 64
2, 650579, Control_c, 0, 64, 0
2, 650588, Note_on_c, 0, 65, 42
2, 650592, Note_on_c, 0, 67, 52
2, 650592, Note_on_c, 0, 62, 33
2, 650618, Note_off_c, 0, 69, 64
2, 650619, Note_off_c, 0, 60, 64
2, 650666, Note_on_c, 0, 64, 49
2, 650671, Note_off_c, 0, 62, 64
2, 650695, Control_c, 0, 64, 127
2, 650725, Note_off_c, 0, 65, 64
2, 650745, Note_on_c, 0, 62, 47
2, 650751, Control_c, 0, 64, 0
2, 650761, Note_off_c, 0, 64, 64
2, 650792, Control_c, 0, 64, 127
2, 650900, Note_on_c, 0, 72, 42
2, 650904, Note_on_c, 0, 60, 40
2, 650906, Note_on_c, 0, 64, 32
2, 650916, Control_c, 0, 64, 0
2, 650920, Note_off_c, 0, 62, 64
2, 650949, Note_off_c, 0, 67, 64
2, 650964, Control_c, 0, 64, 127
2, 650985, Note_on_c, 0, 57, 48
2, 650994, Note_off_c, 0, 60, 64
2, 651064, Note_on_c, 0, 55, 44
2, 651064, Note_on_c, 0, 48, 44
2, 651069, Note_on_c, 0, 67, 39
2, 651070, Note_off_c, 0, 57, 64
2, 651078, Control_c, 0, 64, 0
2, 651079, Note_off_c, 0, 72, 64
2, 651085, Note_off_c, 0, 64, 64
2, 651158, Note_on_c, 0, 69, 36
2, 651167, Note_off_c, 0, 67, 64
2, 651235, Note_on_c, 0, 71, 39
2, 651250, Note_off_c, 0, 69, 64
2, 651304, Note_on_c, 0, 72, 35
2, 651314, Note_off_c, 0, 71, 64
2, 651379, Note_on_c, 0, 74, 37
2, 651383, Note_on_c, 0, 60, 47
2, 651386, Note_off_c, 0, 55, 64
2, 651404, Note_off_c, 0, 72, 64
2, 651413, Control_c, 0, 64, 127
2, 651458, Note_on_c, 0, 76, 36
2, 651471, Note_off_c, 0, 74, 64
2, 651544, Note_on_c, 0, 55, 44
2, 651545, Note_on_c, 0, 78, 36
2, 651568, Note_off_c, 0, 48, 64
2, 651570, Note_off_c, 0, 60, 64
2, 651572, Note_off_c, 0, 76, 64
2, 651578, Control_c, 0, 64, 0
2, 651626, Note_on_c, 0, 79, 42
2, 651628, Note_on_c, 0, 57, 35
2, 651641, Note_off_c, 0, 55, 64
2, 651644, Note_off_c, 0, 78, 64
2, 651697, Note_on_c, 0, 78, 44
2, 651700, Note_on_c, 0, 59, 39
2, 651705, Note_off_c, 0, 79, 64
2, 651732, Note_off_c, 0, 57, 64
2, 651777, Note_on_c, 0, 74, 35
2, 651780, Note_on_c, 0, 60, 40
2, 651794, Note_off_c, 0, 59, 64
2, 651795, Note_off_c, 0, 78, 64
2, 651848, Note_on_c, 0, 76, 41
2, 651852, Note_on_c, 0, 62, 47
2, 651866, Note_off_c, 0, 74, 64
2, 651870, Note_off_c, 0, 60, 64
2, 651918, Note_on_c, 0, 72, 44
2, 651918, Note_on_c, 0, 64, 42
2, 651938, Note_off_c, 0, 76, 64
2, 651942, Note_off_c, 0, 62, 64
2, 651993, Note_on_c, 0, 74, 42
2, 651996, Note_on_c, 0, 66, 41
2, 652013, Note_off_c, 0, 64, 64
2, 652013, Note_off_c, 0, 72, 64
2, 652072, Note_on_c, 0, 67, 35
2, 652074, Note_on_c, 0, 76, 29
2, 652080, Note_off_c, 0, 74, 64
2, 652083, Note_off_c, 0, 66, 64
2, 652122, Control_c, 0, 64, 127
2, 652136, Note_on_c, 0, 66, 31
2, 652138, Note_on_c, 0, 74, 42
2, 652153, Note_off_c, 0, 67, 64
2, 652155, Note_off_c, 0, 76, 64
2, 652218, Note_on_c, 0, 71, 32
2, 652220, Note_on_c, 0, 62, 29
2, 652225, Note_off_c, 0, 66, 64
2, 652227, Note_off_c, 0, 74, 64
2, 652296, Note_on_c, 0, 72, 32
2, 652296, Note_on_c, 0, 64, 37
2, 652306, Note_off_c, 0, 71, 64
2, 652308, Note_off_c, 0, 62, 64
2, 652368, Note_on_c, 0, 69, 35
2, 652368, Note_on_c, 0, 60, 16
2, 652396, Note_off_c, 0, 64, 64
2, 652396, Note_off_c, 0, 72, 64
2, 652440, Note_on_c, 0, 67, 42
2, 652444, Note_on_c, 0, 65, 37
2, 652444, Note_on_c, 0, 62, 44
2, 652460, Control_c, 0, 64, 0
2, 652470, Note_off_c, 0, 60, 64
2, 652470, Note_off_c, 0, 69, 64
2, 652528, Note_on_c, 0, 64, 44
2, 652542, Note_off_c, 0, 62, 64
2, 652542, Control_c, 0, 64, 127
2, 652621, Note_on_c, 0, 62, 37
2, 652634, Note_off_c, 0, 64, 64
2, 652700, Note_on_c, 0, 59, 28
2, 652714, Note_off_c, 0, 62, 64
2, 652800, Note_on_c, 0, 60, 35
2, 652813, Control_c, 0, 64, 0
2, 652816, Note_off_c, 0, 59, 64
2, 652847, Control_c, 0, 64, 127
2, 652892, Note_on_c, 0, 57, 21
2, 652899, Note_off_c, 0, 60, 64
2, 652984, Note_on_c, 0, 48, 35
2, 652990, Note_on_c, 0, 55, 29
2, 652998, Note_off_c, 0, 57, 64
2, 653027, Control_c, 0, 64, 0
2, 653124, Note_on_c, 0, 71, 44
2, 653174, Note_on_c, 0, 74, 44
2, 653192, Control_c, 0, 64, 127
2, 653211, Note_off_c, 0, 71, 64
2, 653332, Note_off_c, 0, 48, 64
2, 653336, Note_on_c, 0, 76, 47
2, 653338, Note_off_c, 0, 55, 64
2, 653360, Note_off_c, 0, 74, 64
2, 653504, Note_on_c, 0, 36, 48
2, 653507, Note_on_c, 0, 43, 28
2, 653512, Note_on_c, 0, 72, 52
2, 653516, Note_on_c, 0, 64, 48
2, 653522, Note_off_c, 0, 65, 64
2, 653524, Note_off_c, 0, 76, 64
2, 653528, Control_c, 0, 64, 0
2, 653592, Control_c, 0, 64, 127
2, 653616, Note_on_c, 0, 71, 50
2, 653631, Note_off_c, 0, 72, 64
2, 653635, Note_off_c, 0, 67, 64
2, 653636, Control_c, 0, 64, 0
2, 653657, Note_on_c, 0, 67, 58
2, 653678, Note_off_c, 0, 71, 64
2, 653694, Control_c, 0, 64, 127
2, 653784, Note_off_c, 0, 67, 64
2, 653786, Note_on_c, 0, 69, 32
2, 653793, Note_off_c, 0, 64, 64
2, 653812, Note_on_c, 0, 71, 50
2, 653828, Note_off_c, 0, 69, 64
2, 653854, Note_on_c, 0, 69, 52
2, 653861, Note_off_c, 0, 71, 64
2, 653984, Note_on_c, 0, 60, 36
2, 653991, Note_on_c, 0, 67, 52
2, 654005, Note_off_c, 0, 69, 64
2, 654011, Control_c, 0, 64, 0
2, 654043, Control_c, 0, 64, 127
2, 654107, Note_on_c, 0, 66, 44
2, 654115, Note_off_c, 0, 67, 64
2, 654145, Control_c, 0, 64, 0
2, 654150, Note_on_c, 0, 57, 44
2, 654154, Note_on_c, 0, 62, 48
2, 654162, Note_off_c, 0, 60, 64
2, 654175, Note_off_c, 0, 66, 64
2, 654312, Note_on_c, 0, 59, 48
2, 654315, Note_on_c, 0, 65, 44
2, 654324, Note_off_c, 0, 57, 64
2, 654328, Note_off_c, 0, 62, 64
2, 654408, Note_off_c, 0, 43, 64
2, 654417, Note_off_c, 0, 36, 64
2, 654472, Note_on_c, 0, 60, 44
2, 654476, Note_on_c, 0, 64, 44
2, 654495, Note_off_c, 0, 59, 64
2, 654498, Note_off_c, 0, 65, 64
2, 654532, Control_c, 0, 64, 127
2, 654596, Note_on_c, 0, 36, 50
2, 654619, Note_off_c, 0, 60, 64
2, 654620, Note_on_c, 0, 43, 16
2, 654623, Note_off_c, 0, 64, 64
2, 654627, Control_c, 0, 64, 0
2, 654636, Note_off_c, 0, 36, 64
2, 654636, Note_on_c, 0, 52, 56
2, 654651, Note_on_c, 0, 60, 41
2, 654660, Note_off_c, 0, 43, 64
2, 654676, Note_off_c, 0, 52, 64
2, 654691, Note_off_c, 0, 60, 64
2, 654768, Note_on_c, 0, 36, 50
2, 654784, Note_on_c, 0, 43, 21
2, 654804, Note_on_c, 0, 52, 52
2, 654808, Note_off_c, 0, 36, 64
2, 654809, Note_on_c, 0, 55, 44
2, 654812, Note_on_c, 0, 60, 37
2, 654820, Note_on_c, 0, 67, 48
2, 654824, Note_off_c, 0, 43, 64
2, 654840, Control_c, 0, 64, 127
2, 654844, Note_off_c, 0, 52, 64
2, 654950, Note_off_c, 0, 55, 64
2, 654953, Note_off_c, 0, 60, 64
2, 654979, Note_on_c, 0, 36, 47
2, 654985, Note_on_c, 0, 65, 56
2, 654989, Note_on_c, 0, 50, 52
2, 654990, Note_on_c, 0, 43, 21
2, 655006, Control_c, 0, 64, 0
2, 655089, Note_on_c, 0, 71, 44
2, 655136, Note_on_c, 0, 74, 47
2, 655160, Control_c, 0, 64, 127
2, 655163, Note_off_c, 0, 71, 64
2, 655292, Note_on_c, 0, 76, 48
2, 655316, Note_off_c, 0, 74, 64
2, 655373, Note_off_c, 0, 50, 64
2, 655380, Note_off_c, 0, 43, 64
2, 655394, Note_off_c, 0, 36, 64
2, 655444, Note_on_c, 0, 36, 48
2, 655452, Note_on_c, 0, 64, 47
2, 655454, Note_on_c, 0, 43, 48
2, 655457, Note_on_c, 0, 72, 54
2, 655457, Note_on_c, 0, 52, 50
2, 655463, Control_c, 0, 64, 0
2, 655477, Note_off_c, 0, 36, 64
2, 655481, Note_off_c, 0, 43, 64
2, 655483, Note_off_c, 0, 76, 64
2, 655498, Note_off_c, 0, 52, 64
2, 655501, Note_off_c, 0, 65, 64
2, 655566, Note_off_c, 0, 64, 64
2, 655575, Note_on_c, 0, 71, 41
2, 655588, Note_off_c, 0, 72, 64
2, 655588, Note_off_c, 0, 67, 64
2, 655602, Note_on_c, 0, 36, 48
2, 655604, Note_on_c, 0, 64, 47
2, 655608, Note_on_c, 0, 43, 35
2, 655614, Note_on_c, 0, 67, 48
2, 655614, Note_on_c, 0, 52, 54
2, 655635, Note_off_c, 0, 36, 64
2, 655635, Note_off_c, 0, 71, 64
2, 655641, Note_off_c, 0, 43, 64
2, 655645, Note_off_c, 0, 52, 64
2, 655690, Control_c, 0, 64, 127
2, 655703, Note_on_c, 0, 69, 52
2, 655718, Note_off_c, 0, 64, 64
2, 655722, Note_off_c, 0, 67, 64
2, 655726, Note_on_c, 0, 71, 50
2, 655732, Control_c, 0, 64, 0
2, 655742, Note_off_c, 0, 69, 64
2, 655756, Note_on_c, 0, 60, 48
2, 655765, Note_on_c, 0, 43, 44
2, 655766, Note_on_c, 0, 52, 52
2, 655771, Note_on_c, 0, 69, 50
2, 655771, Note_on_c, 0, 36, 41
2, 655788, Control_c, 0, 64, 127
2, 655791, Note_off_c, 0, 71, 64
2, 655800, Note_off_c, 0, 36, 64
2, 655801, Note_off_c, 0, 52, 64
2, 655801, Note_off_c, 0, 43, 64
2, 655920, Note_on_c, 0, 67, 44
2, 655929, Note_on_c, 0, 50, 56
2, 655933, Note_off_c, 0, 69, 64
2, 655933, Note_on_c, 0, 43, 41
2, 655933, Note_on_c, 0, 36, 50
2, 655945, Control_c, 0, 64, 0
2, 656039, Note_on_c, 0, 66, 27
2, 656057, Note_off_c, 0, 67, 64
2, 656074, Note_on_c, 0, 62, 48
2, 656082, Note_on_c, 0, 57, 52
2, 656088, Note_off_c, 0, 60, 64
2, 656103, Note_off_c, 0, 66, 64
2, 656119, Control_c, 0, 64, 127
2, 656234, Control_c, 0, 64, 0
2, 656240, Note_off_c, 0, 62, 64
2, 656240, Note_on_c, 0, 64, 49
2, 656247, Note_on_c, 0, 59, 56
2, 656248, Note_off_c, 0, 57, 64
2, 656284, Control_c, 0, 64, 127
2, 656300, Note_off_c, 0, 43, 64
2, 656313, Note_off_c, 0, 36, 64
2, 656332, Note_off_c, 0, 50, 64
2, 656387, Note_on_c, 0, 36, 52
2, 656392, Control_c, 0, 64, 0
2, 656399, Note_on_c, 0, 43, 49
2, 656408, Note_on_c, 0, 60, 48
2, 656415, Note_off_c, 0, 64, 64
2, 656419, Note_on_c, 0, 52, 52
2, 656422, Note_off_c, 0, 59, 64
2, 656429, Note_off_c, 0, 36, 64
2, 656436, Note_off_c, 0, 43, 64
2, 656449, Note_off_c, 0, 52, 64
2, 656560, Note_on_c, 0, 43, 39
2, 656560, Note_on_c, 0, 36, 56
2, 656564, Note_on_c, 0, 55, 54
2, 656571, Note_on_c, 0, 52, 62
2, 656595, Note_off_c, 0, 36, 64
2, 656596, Note_off_c, 0, 55, 64
2, 656596, Note_off_c, 0, 43, 64
2, 656603, Note_off_c, 0, 52, 64
2, 656710, Note_on_c, 0, 36, 56
2, 656712, Note_off_c, 0, 60, 64
2, 656715, Note_on_c, 0, 43, 56
2, 656732, Note_on_c, 0, 52, 57
2, 656737, Note_on_c, 0, 67, 59
2, 656740, Note_on_c, 0, 60, 48
2, 656740, Note_on_c, 0, 55, 48
2, 656745, Note_off_c, 0, 36, 64
2, 656756, Note_off_c, 0, 43, 64
2, 656768, Note_off_c, 0, 52, 64
2, 656771, Control_c, 0, 64, 127
2, 656873, Note_off_c, 0, 55, 64
2, 656873, Note_off_c, 0, 60, 64
2, 656897, Note_on_c, 0, 36, 50
2, 656900, Note_on_c, 0, 65, 62
2, 656901, Control_c, 0, 64, 0
2, 656910, Note_on_c, 0, 50, 54
2, 656910, Note_on_c, 0, 43, 48
2, 657013, Note_on_c, 0, 71, 41
2, 657051, Note_on_c, 0, 74, 56
2, 657071, Note_off_c, 0, 71, 64
2, 657080, Control_c, 0, 64, 127
2, 657221, Note_on_c, 0, 76, 52
2, 657247, Note_off_c, 0, 43, 64
2, 657249, Note_off_c, 0, 74, 64
2, 657249, Note_off_c, 0, 36, 64
2, 657261, Note_off_c, 0, 50, 64
2, 657336, Note_on_c, 0, 36, 44
2, 657367, Note_off_c, 0, 36, 64
2, 657368, Note_on_c, 0, 43, 47
2, 657368, Control_c, 0, 64, 0
2, 657376, Note_on_c, 0, 72, 56
2, 657379, Note_off_c, 0, 65, 64
2, 657380, Note_on_c, 0, 64, 50
2, 657382, Note_on_c, 0, 52, 58
2, 657393, Note_off_c, 0, 76, 64
2, 657399, Note_off_c, 0, 43, 64
2, 657413, Note_off_c, 0, 52, 64
2, 657489, Note_on_c, 0, 71, 48
2, 657498, Note_off_c, 0, 72, 64
2, 657501, Note_off_c, 0, 67, 64
2, 657510, Note_on_c, 0, 43, 56
2, 657517, Note_on_c, 0, 36, 52
2, 657524, Note_on_c, 0, 52, 58
2, 657532, Note_on_c, 0, 67, 44
2, 657540, Note_off_c, 0, 36, 64
2, 657543, Note_off_c, 0, 64, 64
2, 657549, Note_off_c, 0, 43, 64
2, 657553, Note_off_c, 0, 52, 64
2, 657558, Note_off_c, 0, 71, 64
2, 657627, Note_on_c, 0, 69, 54
2, 657649, Note_on_c, 0, 71, 44
2, 657667, Note_off_c, 0, 69, 64
2, 657675, Note_on_c, 0, 43, 44
2, 657676, Note_on_c, 0, 60, 50
2, 657680, Note_on_c, 0, 52, 57
2, 657684, Note_on_c, 0, 36, 48
2, 657691, Note_on_c, 0, 69, 52
2, 657696, Note_off_c, 0, 67, 64
2, 657706, Control_c, 0, 64, 127
2, 657711, Note_off_c, 0, 52, 64
2, 657712, Note_off_c, 0, 36, 64
2, 657712, Note_off_c, 0, 43, 64
2, 657715, Note_off_c, 0, 71, 64
2, 657837, Control_c, 0, 64, 0
2, 657842, Note_on_c, 0, 67, 46
2, 657846, Note_on_c, 0, 50, 57
2, 657846, Note_on_c, 0, 43, 57
2, 657846, Note_on_c, 0, 36, 56
2, 657850, Note_off_c, 0, 69, 64
2, 657951, Note_off_c, 0, 60, 64
2, 657956, Note_on_c, 0, 66, 52
2, 657975, Note_off_c, 0, 67, 64
2, 657996, Note_on_c, 0, 57, 56
2, 658000, Note_on_c, 0, 62, 48
2, 658023, Control_c, 0, 64, 127
2, 658027, Note_off_c, 0, 66, 64
2, 658148, Control_c, 0, 64, 0
2, 658161, Note_off_c, 0, 57, 64
2, 658162, Note_on_c, 0, 65, 50
2, 658164, Note_on_c, 0, 59, 56
2, 658165, Note_off_c, 0, 62, 64
2, 658207, Control_c, 0, 64, 127
2, 658272, Note_off_c, 0, 36, 64
2, 658272, Note_off_c, 0, 43, 64
2, 658272, Note_off_c, 0, 50, 64
2, 658305, Note_on_c, 0, 36, 52
2, 658310, Control_c, 0, 64, 0
2, 658314, Note_on_c, 0, 64, 47
2, 658314, Note_on_c, 0, 60, 47
2, 658316, Note_on_c, 0, 43, 52
2, 658325, Note_off_c, 0, 59, 64
2, 658328, Note_on_c, 0, 52, 47
2, 658340, Note_off_c, 0, 65, 64
2, 658341, Note_off_c, 0, 36, 64
2, 658353, Note_off_c, 0, 43, 64
2, 658360, Note_off_c, 0, 52, 64
2, 658438, Note_off_c, 0, 60, 64
2, 658438, Note_off_c, 0, 64, 64
2, 658472, Note_on_c, 0, 60, 50
2, 658472, Note_on_c, 0, 43, 56
2, 658472, Note_on_c, 0, 36, 52
2, 658476, Note_on_c, 0, 55, 58
2, 658481, Note_on_c, 0, 52, 62
2, 658511, Note_off_c, 0, 36, 64
2, 658511, Note_off_c, 0, 43, 64
2, 658511, Note_off_c, 0, 60, 64
2, 658515, Note_off_c, 0, 55, 64
2, 658520, Note_off_c, 0, 52, 64
2, 658628, Note_on_c, 0, 55, 58
2, 658628, Note_on_c, 0, 36, 52
2, 658636, Note_on_c, 0, 60, 36
2, 658640, Note_on_c, 0, 43, 58
2, 658644, Note_on_c, 0, 52, 65
2, 658660, Note_on_c, 0, 67, 65
2, 658661, Note_off_c, 0, 36, 64
2, 658667, Control_c, 0, 64, 127
2, 658673, Note_off_c, 0, 43, 64
2, 658677, Note_off_c, 0, 52, 64
2, 658772, Note_off_c, 0, 55, 64
2, 658780, Note_off_c, 0, 60, 64
2, 658801, Note_on_c, 0, 36, 58
2, 658809, Note_on_c, 0, 43, 44
2, 658812, Note_on_c, 0, 65, 65
2, 658819, Note_on_c, 0, 50, 58
2, 658819, Control_c, 0, 64, 0
2, 658934, Note_on_c, 0, 71, 48
2, 658969, Note_on_c, 0, 74, 56
2, 658990, Note_off_c, 0, 71, 64
2, 658994, Control_c, 0, 64, 127
2, 659121, Control_c, 0, 64, 0
2, 659132, Note_on_c, 0, 76, 52
2, 659139, Control_c, 0, 64, 127
2, 659151, Note_off_c, 0, 74, 64
2, 659158, Note_off_c, 0, 36, 64
2, 659166, Note_off_c, 0, 43, 64
2, 659176, Note_off_c, 0, 50, 64
2, 659249, Note_on_c, 0, 36, 50
2, 659271, Note_on_c, 0, 43, 48
2, 659281, Note_on_c, 0, 72, 56
2, 659282, Note_off_c, 0, 36, 64
2, 659286, Control_c, 0, 64, 0
2, 659290, Note_on_c, 0, 64, 49
2, 659297, Note_on_c, 0, 52, 62
2, 659304, Note_off_c, 0, 43, 64
2, 659311, Note_off_c, 0, 76, 64
2, 659314, Note_off_c, 0, 65, 64
2, 659330, Note_off_c, 0, 52, 64
2, 659379, Note_off_c, 0, 67, 64
2, 659395, Note_on_c, 0, 71, 52
2, 659401, Note_off_c, 0, 64, 64
2, 659404, Note_off_c, 0, 72, 64
2, 659424, Note_on_c, 0, 36, 56
2, 659432, Note_on_c, 0, 43, 37
2, 659436, Note_on_c, 0, 52, 56
2, 659445, Note_on_c, 0, 67, 49
2, 659452, Note_on_c, 0, 64, 28
2, 659457, Note_off_c, 0, 36, 64
2, 659465, Note_off_c, 0, 43, 64
2, 659469, Note_off_c, 0, 52, 64
2, 659472, Note_off_c, 0, 71, 64
2, 659537, Note_on_c, 0, 69, 56
2, 659566, Note_on_c, 0, 71, 56
2, 659580, Note_on_c, 0, 36, 50
2, 659584, Note_off_c, 0, 69, 64
2, 659589, Note_on_c, 0, 60, 50
2, 659591, Note_on_c, 0, 43, 44
2, 659598, Note_on_c, 0, 69, 50
2, 659598, Note_on_c, 0, 52, 64
2, 659605, Control_c, 0, 64, 127
2, 659610, Note_off_c, 0, 67, 64
2, 659613, Note_off_c, 0, 36, 64
2, 659617, Note_off_c, 0, 64, 64
2, 659624, Note_off_c, 0, 43, 64
2, 659627, Note_off_c, 0, 71, 64
2, 659631, Note_off_c, 0, 52, 64
2, 659741, Note_on_c, 0, 67, 52
2, 659742, Note_on_c, 0, 36, 50
2, 659751, Note_on_c, 0, 50, 48
2, 659753, Note_off_c, 0, 69, 64
2, 659755, Note_on_c, 0, 43, 44
2, 659758, Control_c, 0, 64, 0
2, 659839, Control_c, 0, 64, 127
2, 659853, Note_on_c, 0, 66, 50
2, 659871, Note_off_c, 0, 67, 64
2, 659879, Control_c, 0, 64, 0
2, 659884, Note_on_c, 0, 62, 54
2, 659884, Note_on_c, 0, 57, 54
2, 659894, Note_off_c, 0, 60, 64
2, 659923, Note_off_c, 0, 66, 64
2, 659923, Control_c, 0, 64, 127
2, 660034, Note_off_c, 0, 36, 64
2, 660043, Note_off_c, 0, 57, 64
2, 660043, Note_off_c, 0, 62, 64
2, 660043, Note_off_c, 0, 50, 64
2, 660044, Note_on_c, 0, 64, 37
2, 660044, Note_on_c, 0, 59, 54
2, 660044, Control_c, 0, 64, 0
2, 660047, Note_off_c, 0, 43, 64
2, 660076, Control_c, 0, 64, 127
2, 660161, Note_off_c, 0, 59, 64
2, 660161, Note_off_c, 0, 64, 64
2, 660179, Note_on_c, 0, 59, 54
2, 660182, Note_on_c, 0, 64, 49
2, 660217, Note_on_c, 0, 52, 66
2, 660224, Note_on_c, 0, 60, 75
2, 660227, Note_off_c, 0, 59, 64
2, 660228, Note_on_c, 0, 36, 60
2, 660234, Note_on_c, 0, 43, 66
2, 660238, Note_off_c, 0, 64, 64
2, 660292, Control_c, 0, 64, 0
2, 660375, Note_off_c, 0, 36, 64
2, 660388, Note_off_c, 0, 52, 64
2, 660393, Note_on_c, 0, 84, 125
2, 660393, Note_on_c, 0, 48, 98
2, 660395, Note_off_c, 0, 60, 64
2, 660397, Note_on_c, 0, 64, 102
2, 660399, Note_on_c, 0, 72, 97
2, 660399, Note_on_c, 0, 55, 95
2, 660405, Note_off_c, 0, 43, 64
2, 660415, Note_off_c, 0, 72, 64
2, 660418, Note_off_c, 0, 84, 64
2, 660422, Note_off_c, 0, 64, 64
2, 660422, Note_off_c, 0, 48, 64
2, 660424, Note_off_c, 0, 55, 64
2, 660439, Control_c, 0, 64, 0
2, 662404, Control_c, 0, 64, 127
2, 662413, Note_on_c, 0, 55, 40
2, 662673, Note_on_c, 0, 67, 55
2, 662687, Control_c, 0, 64, 0
2, 662698, Note_off_c, 0, 55, 64
2, 662730, Control_c, 0, 64, 127
2, 662955, Note_on_c, 0, 65, 31
2, 663056, Note_on_c, 0, 72, 41
2, 663060, Note_on_c, 0, 63, 40
2, 663073, Note_off_c, 0, 65, 64
2, 663152, Note_on_c, 0, 71, 47
2, 663152, Note_on_c, 0, 62, 43
2, 663155, Note_on_c, 0, 74, 32
2, 663165, Note_off_c, 0, 72, 64
2, 663169, Note_off_c, 0, 63, 64
2, 663236, Note_on_c, 0, 72, 34
2, 663240, Note_on_c, 0, 60, 42
2, 663240, Note_on_c, 0, 75, 34
2, 663258, Note_off_c, 0, 62, 64
2, 663258, Note_off_c, 0, 71, 64
2, 663261, Note_off_c, 0, 74, 64
2, 663320, Note_on_c, 0, 77, 51
2, 663322, Note_on_c, 0, 71, 48
2, 663326, Note_on_c, 0, 62, 60
2, 663333, Note_off_c, 0, 72, 64
2, 663337, Note_off_c, 0, 75, 64
2, 663337, Note_off_c, 0, 60, 64
2, 663340, Control_c, 0, 64, 0
2, 663385, Control_c, 0, 64, 127
2, 663447, Note_off_c, 0, 77, 64
2, 663449, Note_off_c, 0, 71, 64
2, 663453, Note_off_c, 0, 62, 64
2, 663454, Note_on_c, 0, 79, 36
2, 663461, Note_on_c, 0, 55, 35
2, 663486, Control_c, 0, 64, 0
2, 663492, Note_on_c, 0, 71, 54
2, 663495, Note_on_c, 0, 77, 52
2, 663499, Note_on_c, 0, 62, 35
2, 663502, Note_off_c, 0, 79, 64
2, 663531, Note_off_c, 0, 55, 64
2, 663549, Control_c, 0, 64, 127
2, 663677, Note_on_c, 0, 75, 48
2, 663682, Note_on_c, 0, 72, 35
2, 663684, Note_on_c, 0, 60, 42
2, 663693, Control_c, 0, 64, 0
2, 663706, Note_off_c, 0, 71, 64
2, 663709, Note_off_c, 0, 77, 64
2, 663713, Note_off_c, 0, 62, 64
2, 663739, Control_c, 0, 64, 127
2, 663833, Note_off_c, 0, 72, 64
2, 663840, Note_off_c, 0, 60, 64
2, 663842, Note_off_c, 0, 75, 64
2, 663865, Note_on_c, 0, 77, 49
2, 663867, Note_on_c, 0, 71, 48
2, 663870, Note_on_c, 0, 62, 40
2, 663882, Control_c, 0, 64, 0
2, 663915, Control_c, 0, 64, 127
2, 663990, Note_off_c, 0, 77, 64
2, 663993, Note_off_c, 0, 71, 64
2, 664003, Note_on_c, 0, 55, 46
2, 664007, Note_off_c, 0, 62, 64
2, 664007, Note_on_c, 0, 79, 35
2, 664032, Note_on_c, 0, 71, 48
2, 664036, Note_on_c, 0, 62, 52
2, 664038, Note_on_c, 0, 77, 52
2, 664050, Note_off_c, 0, 79, 64
2, 664053, Control_c, 0, 64, 0
2, 664073, Note_off_c, 0, 55, 64
2, 664112, Control_c, 0, 64, 127
2, 664308, Note_on_c, 0, 72, 37
2, 664310, Note_on_c, 0, 75, 42
2, 664314, Note_on_c, 0, 60, 37
2, 664334, Note_off_c, 0, 71, 64
2, 664338, Note_off_c, 0, 62, 64
2, 664338, Control_c, 0, 64, 0
2, 664340, Note_off_c, 0, 77, 64
2, 664402, Control_c, 0, 64, 127
2, 664535, Note_off_c, 0, 72, 64
2, 664547, Note_off_c, 0, 75, 64
2, 664575, Note_off_c, 0, 60, 64
2, 664732, Note_on_c, 0, 59, 51
2, 664742, Note_off_c, 0, 67, 64
2, 664795, Control_c, 0, 64, 0
2, 664827, Note_on_c, 0, 60, 52
2, 664842, Note_off_c, 0, 59, 64
2, 664923, Note_on_c, 0, 62, 54
2, 664936, Note_off_c, 0, 60, 64
2, 665004, Note_on_c, 0, 63, 66
2, 665020, Note_off_c, 0, 62, 64
2, 665110, Note_on_c, 0, 62, 55
2, 665115, Note_off_c, 0, 63, 64
2, 665133, Control_c, 0, 64, 127
2, 665344, Note_on_c, 0, 60, 49
2, 665427, Note_on_c, 0, 58, 42
2, 665430, Note_on_c, 0, 67, 54
2, 665437, Note_off_c, 0, 60, 64
2, 665516, Note_on_c, 0, 69, 46
2, 665516, Note_on_c, 0, 66, 47
2, 665516, Note_on_c, 0, 57, 47
2, 665535, Note_off_c, 0, 58, 64
2, 665538, Note_off_c, 0, 67, 64
2, 665588, Note_on_c, 0, 67, 57
2, 665592, Note_on_c, 0, 70, 57
2, 665594, Note_on_c, 0, 55, 59
2, 665608, Note_off_c, 0, 57, 64
2, 665610, Note_off_c, 0, 69, 64
2, 665622, Note_off_c, 0, 66, 64
2, 665676, Control_c, 0, 64, 0
2, 665680, Note_on_c, 0, 72, 59
2, 665680, Note_on_c, 0, 57, 59
2, 665686, Note_on_c, 0, 66, 48
2, 665700, Note_off_c, 0, 67, 64
2, 665704, Note_off_c, 0, 70, 64
2, 665706, Note_off_c, 0, 55, 64
2, 665724, Control_c, 0, 64, 127
2, 665813, Note_on_c, 0, 50, 60
2, 665814, Note_off_c, 0, 57, 64
2, 665814, Note_off_c, 0, 72, 64
2, 665816, Note_off_c, 0, 66, 64
2, 665817, Note_on_c, 0, 74, 60
2, 665856, Note_on_c, 0, 66, 64
2, 665856, Note_on_c, 0, 57, 40
2, 665859, Note_on_c, 0, 72, 60
2, 665869, Control_c, 0, 64, 0
2, 665875, Note_off_c, 0, 74, 64
2, 665902, Note_off_c, 0, 50, 64
2, 665924, Control_c, 0, 64, 127
2, 666049, Control_c, 0, 64, 0
2, 666056, Note_on_c, 0, 55, 49
2, 666056, Note_on_c, 0, 67, 57
2, 666060, Note_on_c, 0, 70, 63
2, 666063, Note_off_c, 0, 57, 64
2, 666063, Note_off_c, 0, 66, 64
2, 666064, Note_off_c, 0, 72, 64
2, 666104, Control_c, 0, 64, 127
2, 666219, Note_off_c, 0, 70, 64
2, 666220, Note_off_c, 0, 67, 64
2, 666222, Note_on_c, 0, 57, 42
2, 666229, Note_on_c, 0, 66, 57
2, 666229, Note_on_c, 0, 72, 58
2, 666233, Note_off_c, 0, 55, 64
2, 666237, Control_c, 0, 64, 0
2, 666279, Control_c, 0, 64, 127
2, 666346, Note_off_c, 0, 66, 64
2, 666356, Note_off_c, 0, 72, 64
2, 666359, Note_on_c, 0, 74, 55
2, 666359, Note_on_c, 0, 50, 48
2, 666367, Note_off_c, 0, 57, 64
2, 666405, Control_c, 0, 64, 0
2, 666408, Note_on_c, 0, 57, 55
2, 666411, Note_on_c, 0, 72, 55
2, 666412, Note_on_c, 0, 66, 58
2, 666415, Note_off_c, 0, 74, 64
2, 666444, Note_off_c, 0, 50, 64
2, 666467, Control_c, 0, 64, 127
2, 666640, Note_on_c, 0, 67, 42
2, 666641, Note_on_c, 0, 70, 55
2, 666655, Note_on_c, 0, 55, 46
2, 666659, Note_off_c, 0, 57, 64
2, 666660, Note_off_c, 0, 72, 64
2, 666661, Control_c, 0, 64, 0
2, 666663, Note_off_c, 0, 66, 64
2, 666706, Control_c, 0, 64, 127
2, 666896, Note_off_c, 0, 67, 64
2, 666897, Note_off_c, 0, 70, 64
2, 666904, Note_off_c, 0, 62, 64
2, 666929, Note_on_c, 0, 68, 52
2, 666932, Note_on_c, 0, 63, 48
2, 666935, Note_on_c, 0, 60, 46
2, 666958, Control_c, 0, 64, 0
2, 667030, Control_c, 0, 64, 127
2, 667449, Note_on_c, 0, 66, 28
2, 667467, Note_off_c, 0, 68, 64
2, 667483, Note_off_c, 0, 63, 64
2, 667574, Note_off_c, 0, 60, 64
2, 667735, Note_on_c, 0, 67, 34
2, 667743, Note_off_c, 0, 66, 64
2, 667748, Note_on_c, 0, 59, 25
2, 667751, Note_on_c, 0, 62, 26
2, 667771, Control_c, 0, 64, 0
2, 667823, Control_c, 0, 64, 127
2, 668035, Note_off_c, 0, 59, 64
2, 668044, Note_on_c, 0, 53, 25
2, 668062, Note_off_c, 0, 62, 64
2, 668103, Note_off_c, 0, 67, 64
2, 668130, Note_on_c, 0, 51, 43
2, 668134, Note_on_c, 0, 60, 47
2, 668142, Note_off_c, 0, 53, 64
2, 668219, Note_on_c, 0, 50, 35
2, 668224, Note_on_c, 0, 62, 37
2, 668226, Note_on_c, 0, 59, 43
2, 668228, Note_off_c, 0, 51, 64
2, 668232, Note_off_c, 0, 60, 64
2, 668300, Note_on_c, 0, 60, 46
2, 668301, Note_on_c, 0, 63, 41
2, 668304, Note_on_c, 0, 48, 34
2, 668311, Note_off_c, 0, 50, 64
2, 668316, Note_off_c, 0, 62, 64
2, 668318, Note_off_c, 0, 59, 64
2, 668385, Control_c, 0, 64, 0
2, 668395, Note_on_c, 0, 65, 52
2, 668395, Note_on_c, 0, 59, 59
2, 668395, Note_on_c, 0, 50, 48
2, 668400, Note_off_c, 0, 60, 64
2, 668401, Note_off_c, 0, 63, 64
2, 668404, Note_off_c, 0, 48, 64
2, 668447, Control_c, 0, 64, 127
2, 668513, Note_on_c, 0, 43, 54
2, 668520, Note_on_c, 0, 67, 51
2, 668529, Note_off_c, 0, 50, 64
2, 668529, Note_off_c, 0, 59, 64
2, 668529, Note_off_c, 0, 65, 64
2, 668560, Control_c, 0, 64, 0
2, 668568, Note_on_c, 0, 65, 54
2, 668568, Note_on_c, 0, 59, 54
2, 668576, Note_on_c, 0, 50, 52
2, 668579, Note_off_c, 0, 67, 64
2, 668581, Note_off_c, 0, 43, 64
2, 668624, Control_c, 0, 64, 127
2, 668744, Note_on_c, 0, 48, 48
2, 668751, Note_on_c, 0, 63, 54
2, 668752, Note_off_c, 0, 50, 64
2, 668752, Note_on_c, 0, 60, 52
2, 668768, Control_c, 0, 64, 0
2, 668777, Note_off_c, 0, 65, 64
2, 668785, Note_off_c, 0, 59, 64
2, 668814, Control_c, 0, 64, 127
2, 668922, Note_on_c, 0, 50, 51
2, 668925, Note_off_c, 0, 60, 64
2, 668925, Note_on_c, 0, 65, 52
2, 668925, Note_on_c, 0, 59, 51
2, 668932, Note_off_c, 0, 48, 64
2, 668946, Control_c, 0, 64, 0
2, 668951, Note_off_c, 0, 63, 64
2, 668991, Control_c, 0, 64, 127
2, 669044, Note_on_c, 0, 43, 48
2, 669049, Note_on_c, 0, 67, 48
2, 669056, Note_off_c, 0, 65, 64
2, 669057, Note_off_c, 0, 50, 64
2, 669060, Note_off_c, 0, 59, 64
2, 669098, Note_on_c, 0, 65, 48
2, 669098, Note_on_c, 0, 59, 52
2, 669102, Note_off_c, 0, 67, 64
2, 669105, Note_on_c, 0, 50, 54
2, 669109, Control_c, 0, 64, 0
2, 669132, Note_off_c, 0, 43, 64
2, 669155, Control_c, 0, 64, 127
2, 669338, Note_on_c, 0, 63, 35
2, 669338, Note_on_c, 0, 48, 34
2, 669344, Note_on_c, 0, 60, 26
2, 669348, Control_c, 0, 64, 0
2, 669363, Note_off_c, 0, 50, 64
2, 669365, Note_off_c, 0, 65, 64
2, 669384, Note_off_c, 0, 59, 64
2, 669404, Control_c, 0, 64, 127
2, 669448, Note_off_c, 0, 63, 64
2, 669455, Note_off_c, 0, 60, 64
2, 669516, Note_off_c, 0, 48, 64
2, 669639, Note_off_c, 0, 55, 64
2, 669640, Note_on_c, 0, 48, 52
2, 669672, Note_on_c, 0, 50, 57
2, 669685, Note_off_c, 0, 48, 64
2, 669717, Note_on_c, 0, 48, 64
2, 669733, Control_c, 0, 64, 0
2, 669737, Note_off_c, 0, 50, 64
2, 669766, Note_on_c, 0, 47, 57
2, 669777, Note_off_c, 0, 48, 64
2, 669862, Note_on_c, 0, 48, 64
2, 669895, Note_off_c, 0, 47, 64
2, 669957, Note_on_c, 0, 50, 59
2, 669982, Note_off_c, 0, 48, 64
2, 670032, Note_on_c, 0, 51, 48
2, 670055, Note_off_c, 0, 50, 64
2, 670100, Control_c, 0, 64, 127
2, 670130, Note_on_c, 0, 50, 59
2, 670143, Note_off_c, 0, 51, 64
2, 670208, Control_c, 0, 64, 0
2, 670212, Note_on_c, 0, 49, 55
2, 670215, Note_on_c, 0, 52, 66
2, 670230, Note_off_c, 0, 50, 64
2, 670299, Note_on_c, 0, 54, 65
2, 670300, Note_on_c, 0, 48, 69
2, 670311, Note_off_c, 0, 49, 64
2, 670314, Note_off_c, 0, 52, 64
2, 670386, Note_on_c, 0, 55, 69
2, 670390, Note_on_c, 0, 46, 66
2, 670401, Note_off_c, 0, 54, 64
2, 670402, Note_off_c, 0, 48, 64
2, 670480, Note_on_c, 0, 57, 66
2, 670480, Note_on_c, 0, 54, 57
2, 670483, Note_on_c, 0, 45, 63
2, 670492, Note_off_c, 0, 55, 64
2, 670496, Note_off_c, 0, 46, 64
2, 670564, Note_on_c, 0, 58, 74
2, 670564, Note_on_c, 0, 55, 60
2, 670564, Note_on_c, 0, 43, 65
2, 670578, Note_off_c, 0, 54, 64
2, 670578, Note_off_c, 0, 57, 64
2, 670581, Note_off_c, 0, 45, 64
2, 670644, Note_on_c, 0, 45, 72
2, 670647, Note_on_c, 0, 57, 66
2, 670648, Note_on_c, 0, 53, 69
2, 670654, Note_off_c, 0, 43, 64
2, 670654, Note_off_c, 0, 55, 64
2, 670654, Note_off_c, 0, 58, 64
2, 670677, Control_c, 0, 64, 127
2, 670742, Note_off_c, 0, 45, 64
2, 670745, Note_off_c, 0, 57, 64
2, 670746, Note_off_c, 0, 53, 64
2, 670765, Note_on_c, 0, 33, 78
2, 670768, Note_on_c, 0, 61, 74
2, 670774, Note_on_c, 0, 52, 83
2, 670816, Note_on_c, 0, 50, 88
2, 670816, Note_on_c, 0, 38, 88
2, 670817, Note_on_c, 0, 62, 77
2, 670824, Note_off_c, 0, 33, 64
2, 670828, Note_off_c, 0, 61, 64
2, 670829, Control_c, 0, 64, 0
2, 670834, Note_off_c, 0, 52, 64
2, 670841, Control_c, 0, 64, 0
2, 670988, Control_c, 0, 64, 127
2, 671043, Note_off_c, 0, 38, 64
2, 671043, Note_off_c, 0, 50, 64
2, 671044, Note_off_c, 0, 62, 64
2, 671214, Note_on_c, 0, 69, 54
2, 671219, Note_on_c, 0, 65, 52
2, 671222, Note_on_c, 0, 57, 51
2, 671223, Note_on_c, 0, 50, 40
2, 671230, Control_c, 0, 64, 0
2, 671252, Control_c, 0, 64, 127
2, 671341, Note_on_c, 0, 73, 55
2, 671347, Note_off_c, 0, 69, 64
2, 671347, Note_on_c, 0, 64, 63
2, 671350, Note_on_c, 0, 55, 40
2, 671353, Note_off_c, 0, 65, 64
2, 671356, Note_off_c, 0, 57, 64
2, 671402, Note_on_c, 0, 62, 64
2, 671406, Note_on_c, 0, 74, 60
2, 671406, Note_on_c, 0, 53, 54
2, 671416, Note_off_c, 0, 73, 64
2, 671419, Control_c, 0, 64, 0
2, 671422, Note_off_c, 0, 64, 64
2, 671425, Note_off_c, 0, 55, 64
2, 671544, Control_c, 0, 64, 127
2, 671697, Note_off_c, 0, 62, 64
2, 671713, Note_off_c, 0, 53, 64
2, 671767, Note_off_c, 0, 74, 64
2, 671865, Note_on_c, 0, 65, 32
2, 671871, Note_on_c, 0, 69, 40
2, 671874, Note_on_c, 0, 57, 28
2, 671880, Control_c, 0, 64, 0
2, 671914, Control_c, 0, 64, 127
2, 672050, Note_on_c, 0, 64, 47
2, 672052, Note_on_c, 0, 73, 46
2, 672064, Note_off_c, 0, 65, 64
2, 672064, Note_on_c, 0, 55, 28
2, 672070, Note_off_c, 0, 69, 64
2, 672073, Note_off_c, 0, 57, 64
2, 672114, Note_on_c, 0, 74, 41
2, 672119, Note_on_c, 0, 62, 47
2, 672120, Note_on_c, 0, 53, 28
2, 672122, Note_off_c, 0, 64, 64
2, 672124, Note_off_c, 0, 73, 64
2, 672127, Control_c, 0, 64, 0
2, 672136, Note_off_c, 0, 55, 64
2, 672258, Control_c, 0, 64, 127
2, 672536, Note_off_c, 0, 62, 64
2, 672537, Note_off_c, 0, 53, 64
2, 672544, Note_off_c, 0, 74, 64
2, 672551, Note_on_c, 0, 69, 40
2, 672558, Note_on_c, 0, 57, 29
2, 672582, Control_c, 0, 64, 0
2, 672617, Control_c, 0, 64, 127
2, 672657, Note_on_c, 0, 72, 42
2, 672660, Note_off_c, 0, 69, 64
2, 672664, Note_on_c, 0, 60, 36
2, 672680, Note_off_c, 0, 57, 64
2, 672700, Note_off_c, 0, 72, 64
2, 672761, Note_on_c, 0, 72, 51
2, 672798, Note_on_c, 0, 58, 32
2, 672803, Note_on_c, 0, 70, 54
2, 672811, Note_off_c, 0, 72, 64
2, 672813, Note_off_c, 0, 60, 64
2, 672836, Note_on_c, 0, 72, 51
2, 672840, Control_c, 0, 64, 0
2, 672844, Note_off_c, 0, 70, 64
2, 672876, Note_on_c, 0, 70, 51
2, 672888, Control_c, 0, 64, 127
2, 672894, Note_off_c, 0, 72, 64
2, 672960, Note_off_c, 0, 70, 64
2, 672968, Note_on_c, 0, 69, 48
2, 672976, Note_on_c, 0, 57, 40
2, 672981, Note_off_c, 0, 58, 64
2, 672996, Control_c, 0, 64, 0
2, 673027, Control_c, 0, 64, 127
2, 673056, Note_on_c, 0, 67, 48
2, 673062, Note_on_c, 0, 55, 40
2, 673066, Note_off_c, 0, 57, 64
2, 673072, Note_off_c, 0, 69, 64
2, 673130, Control_c, 0, 64, 0
2, 673148, Note_on_c, 0, 69, 42
2, 673151, Note_on_c, 0, 57, 46
2, 673156, Note_off_c, 0, 55, 64
2, 673158, Note_off_c, 0, 67, 64
2, 673210, Control_c, 0, 64, 127
2, 673283, Note_on_c, 0, 64, 41
2, 673298, Note_off_c, 0, 69, 64
2, 673298, Note_on_c, 0, 52, 40
2, 673318, Control_c, 0, 64, 0
2, 673328, Note_on_c, 0, 65, 42
2, 673346, Note_off_c, 0, 64, 64
2, 673347, Note_on_c, 0, 53, 32
2, 673354, Note_off_c, 0, 52, 64
2, 673387, Control_c, 0, 64, 127
2, 673477, Note_off_c, 0, 50, 64
2, 673503, Control_c, 0, 64, 0
2, 673507, Note_on_c, 0, 50, 40
2, 673511, Note_off_c, 0, 65, 64
2, 673514, Note_on_c, 0, 62, 40
2, 673520, Note_off_c, 0, 53, 64
2, 673536, Note_off_c, 0, 57, 64
2, 673556, Control_c, 0, 64, 127
2, 673687, Note_on_c, 0, 69, 42
2, 673694, Note_on_c, 0, 57, 36
2, 673694, Control_c, 0, 64, 0
2, 673700, Note_off_c, 0, 62, 64
2, 673739, Control_c, 0, 64, 127
2, 673775, Note_off_c, 0, 69, 64
2, 673778, Note_on_c, 0, 72, 46
2, 673785, Note_on_c, 0, 60, 40
2, 673798, Note_off_c, 0, 57, 64
2, 673815, Note_off_c, 0, 72, 64
2, 673867, Note_on_c, 0, 72, 51
2, 673891, Note_on_c, 0, 58, 26
2, 673894, Control_c, 0, 64, 0
2, 673901, Note_on_c, 0, 70, 51
2, 673907, Note_off_c, 0, 60, 64
2, 673912, Note_off_c, 0, 72, 64
2, 673940, Note_on_c, 0, 72, 51
2, 673949, Note_off_c, 0, 70, 64
2, 673956, Control_c, 0, 64, 127
2, 673979, Note_on_c, 0, 70, 48
2, 673996, Note_off_c, 0, 72, 64
2, 674047, Note_off_c, 0, 70, 64
2, 674051, Note_on_c, 0, 69, 47
2, 674056, Note_on_c, 0, 57, 40
2, 674061, Note_off_c, 0, 58, 64
2, 674063, Control_c, 0, 64, 0
2, 674129, Control_c, 0, 64, 127
2, 674138, Note_on_c, 0, 67, 42
2, 674146, Note_on_c, 0, 55, 40
2, 674148, Note_off_c, 0, 69, 64
2, 674153, Note_off_c, 0, 57, 64
2, 674217, Control_c, 0, 64, 0
2, 674228, Note_on_c, 0, 69, 43
2, 674230, Note_on_c, 0, 57, 40
2, 674237, Note_off_c, 0, 55, 64
2, 674243, Note_off_c, 0, 67, 64
2, 674277, Control_c, 0, 64, 127
2, 674368, Note_on_c, 0, 64, 43
2, 674378, Note_on_c, 0, 52, 28
2, 674388, Note_off_c, 0, 69, 64
2, 674398, Control_c, 0, 64, 0
2, 674413, Note_on_c, 0, 65, 43
2, 674424, Note_on_c, 0, 53, 26
2, 674433, Note_off_c, 0, 52, 64
2, 674433, Note_off_c, 0, 64, 64
2, 674459, Control_c, 0, 64, 127
2, 674592, Note_off_c, 0, 50, 64
2, 674601, Control_c, 0, 64, 0
2, 674608, Note_on_c, 0, 50, 28
2, 674608, Note_on_c, 0, 62, 37
2, 674623, Note_off_c, 0, 65, 64
2, 674637, Note_off_c, 0, 53, 64
2, 674655, Note_off_c, 0, 57, 64
2, 674669, Control_c, 0, 64, 127
2, 674796, Note_on_c, 0, 69, 35
2, 674806, Note_on_c, 0, 57, 32
2, 674806, Control_c, 0, 64, 0
2, 674813, Note_off_c, 0, 62, 64
2, 674859, Control_c, 0, 64, 127
2, 674954, Note_on_c, 0, 64, 32
2, 674963, Note_on_c, 0, 52, 26
2, 674986, Note_off_c, 0, 69, 64
2, 675002, Control_c, 0, 64, 0
2, 675007, Note_on_c, 0, 65, 41
2, 675022, Note_off_c, 0, 52, 64
2, 675023, Note_on_c, 0, 53, 40
2, 675030, Note_off_c, 0, 64, 64
2, 675061, Control_c, 0, 64, 127
2, 675193, Note_off_c, 0, 50, 64
2, 675219, Note_on_c, 0, 50, 32
2, 675222, Note_on_c, 0, 62, 40
2, 675233, Control_c, 0, 64, 0
2, 675238, Note_off_c, 0, 65, 64
2, 675248, Note_off_c, 0, 53, 64
2, 675287, Note_off_c, 0, 57, 64
2, 675290, Control_c, 0, 64, 127
2, 675438, Note_on_c, 0, 57, 32
2, 675441, Note_on_c, 0, 69, 40
2, 675448, Control_c, 0, 64, 0
2, 675468, Note_off_c, 0, 62, 64
2, 675504, Control_c, 0, 64, 127
2, 675652, Note_on_c, 0, 64, 34
2, 675654, Note_on_c, 0, 52, 36
2, 675690, Note_off_c, 0, 69, 64
2, 675691, Control_c, 0, 64, 0
2, 675716, Note_on_c, 0, 65, 41
2, 675719, Note_on_c, 0, 53, 32
2, 675724, Note_off_c, 0, 64, 64
2, 675726, Note_off_c, 0, 52, 64
2, 675742, Control_c, 0, 64, 127
2, 675938, Note_off_c, 0, 50, 64
2, 675981, Note_on_c, 0, 62, 40
2, 675981, Note_on_c, 0, 50, 28
2, 675989, Note_off_c, 0, 53, 64
2, 675992, Control_c, 0, 64, 0
2, 676020, Note_off_c, 0, 65, 64
2, 676021, Note_off_c, 0, 57, 64
2, 676039, Control_c, 0, 64, 127
2, 676340, Note_off_c, 0, 50, 64
2, 676384, Note_on_c, 0, 67, 41
2, 676384, Note_on_c, 0, 43, 43
2, 676387, Note_on_c, 0, 71, 48
2, 676459, Control_c, 0, 64, 0
2, 676550, Control_c, 0, 64, 127
2, 677232, Note_on_c, 0, 55, 41
2, 677247, Note_off_c, 0, 43, 64
2, 677247, Note_off_c, 0, 67, 64
2, 677250, Note_off_c, 0, 71, 64
2, 677259, Note_off_c, 0, 62, 64
2, 677299, Note_off_c, 0, 55, 64
2, 677372, Note_on_c, 0, 55, 57
2, 677404, Note_off_c, 0, 55, 64
2, 677434, Note_on_c, 0, 55, 65
2, 677478, Note_off_c, 0, 55, 64
2, 677650, Note_on_c, 0, 55, 72
2, 677663, Control_c, 0, 64, 0
2, 677730, Control_c, 0, 64, 127
2, 677951, Note_on_c, 0, 67, 72
2, 677988, Control_c, 0, 64, 0
2, 678031, Control_c, 0, 64, 127
2, 678046, Note_off_c, 0, 55, 64
2, 678305, Note_on_c, 0, 65, 28
2, 678396, Note_on_c, 0, 72, 48
2, 678401, Note_on_c, 0, 63, 40
2, 678410, Note_off_c, 0, 65, 64
2, 678488, Note_on_c, 0, 71, 55
2, 678492, Note_on_c, 0, 74, 43
2, 678494, Note_on_c, 0, 62, 28
2, 678498, Note_off_c, 0, 72, 64
2, 678503, Note_off_c, 0, 63, 64
2, 678573, Note_on_c, 0, 72, 48
2, 678576, Note_on_c, 0, 60, 48
2, 678577, Note_on_c, 0, 75, 48
2, 678586, Note_off_c, 0, 71, 64
2, 678590, Note_off_c, 0, 74, 64
2, 678592, Note_off_c, 0, 62, 64
2, 678655, Control_c, 0, 64, 0
2, 678660, Note_on_c, 0, 62, 60
2, 678666, Note_on_c, 0, 71, 48
2, 678666, Note_on_c, 0, 77, 54
2, 678671, Note_off_c, 0, 72, 64
2, 678674, Note_off_c, 0, 60, 64
2, 678675, Note_off_c, 0, 75, 64
2, 678708, Control_c, 0, 64, 127
2, 678784, Note_off_c, 0, 62, 64
2, 678785, Note_on_c, 0, 55, 54
2, 678790, Note_off_c, 0, 77, 64
2, 678790, Note_off_c, 0, 71, 64
2, 678795, Note_on_c, 0, 79, 43
2, 678832, Note_on_c, 0, 71, 48
2, 678835, Note_on_c, 0, 77, 55
2, 678839, Note_on_c, 0, 62, 34
2, 678844, Control_c, 0, 64, 0
2, 678852, Note_off_c, 0, 79, 64
2, 678864, Note_off_c, 0, 55, 64
2, 678882, Control_c, 0, 64, 127
2, 679010, Note_on_c, 0, 60, 46
2, 679016, Note_on_c, 0, 75, 52
2, 679024, Note_on_c, 0, 72, 54
2, 679026, Note_off_c, 0, 62, 64
2, 679034, Control_c, 0, 64, 0
2, 679040, Note_off_c, 0, 71, 64
2, 679043, Note_off_c, 0, 77, 64
2, 679084, Control_c, 0, 64, 127
2, 679186, Note_off_c, 0, 72, 64
2, 679189, Note_off_c, 0, 75, 64
2, 679192, Note_on_c, 0, 62, 34
2, 679196, Note_on_c, 0, 77, 51
2, 679198, Note_on_c, 0, 71, 51
2, 679202, Note_off_c, 0, 60, 64
2, 679205, Control_c, 0, 64, 0
2, 679241, Control_c, 0, 64, 127
2, 679312, Note_on_c, 0, 55, 40
2, 679316, Note_off_c, 0, 71, 64
2, 679317, Note_off_c, 0, 77, 64
2, 679319, Note_on_c, 0, 79, 43
2, 679323, Note_off_c, 0, 62, 64
2, 679358, Note_on_c, 0, 77, 54
2, 679366, Note_on_c, 0, 71, 52
2, 679368, Control_c, 0, 64, 0
2, 679373, Note_on_c, 0, 62, 48
2, 679376, Note_off_c, 0, 79, 64
2, 679405, Note_off_c, 0, 55, 64
2, 679415, Control_c, 0, 64, 127
2, 679575, Note_on_c, 0, 75, 43
2, 679582, Note_on_c, 0, 60, 37
2, 679582, Note_on_c, 0, 72, 43
2, 679589, Control_c, 0, 64, 0
2, 679594, Note_off_c, 0, 77, 64
2, 679597, Note_off_c, 0, 62, 64
2, 679598, Note_off_c, 0, 71, 64
2, 679648, Control_c, 0, 64, 127
2, 679775, Note_off_c, 0, 60, 64
2, 679782, Note_off_c, 0, 75, 64
2, 679787, Note_off_c, 0, 72, 64
2, 680012, Note_on_c, 0, 59, 54
2, 680046, Note_off_c, 0, 67, 64
2, 680097, Note_on_c, 0, 60, 49
2, 680103, Note_off_c, 0, 59, 64
2, 680186, Note_on_c, 0, 62, 40
2, 680200, Control_c, 0, 64, 0
2, 680207, Note_off_c, 0, 60, 64
2, 680262, Note_on_c, 0, 63, 54
2, 680277, Note_off_c, 0, 62, 64
2, 680373, Note_on_c, 0, 62, 48
2, 680391, Note_off_c, 0, 63, 64
2, 680422, Control_c, 0, 64, 127
2, 680579, Note_on_c, 0, 60, 40
2, 680663, Note_on_c, 0, 67, 47
2, 680663, Note_on_c, 0, 58, 47
2, 680681, Note_off_c, 0, 60, 64
2, 680745, Note_on_c, 0, 66, 51
2, 680745, Note_on_c, 0, 57, 46
2, 680749, Note_on_c, 0, 69, 43
2, 680771, Note_off_c, 0, 58, 64
2, 680771, Note_off_c, 0, 67, 64
2, 680830, Note_on_c, 0, 55, 47
2, 680832, Note_on_c, 0, 70, 59
2, 680832, Note_on_c, 0, 67, 59
2, 680850, Note_off_c, 0, 69, 64
2, 680857, Note_off_c, 0, 57, 64
2, 680857, Note_off_c, 0, 66, 64
2, 680912, Note_on_c, 0, 66, 54
2, 680915, Note_on_c, 0, 72, 54
2, 680915, Note_on_c, 0, 57, 57
2, 680925, Note_off_c, 0, 55, 64
2, 680927, Note_off_c, 0, 67, 64
2, 680927, Note_off_c, 0, 70, 64
2, 680928, Control_c, 0, 64, 0
2, 680968, Control_c, 0, 64, 127
2, 681010, Note_off_c, 0, 57, 64
2, 681033, Note_on_c, 0, 50, 52
2, 681039, Note_off_c, 0, 66, 64
2, 681046, Note_on_c, 0, 74, 51
2, 681047, Note_off_c, 0, 72, 64
2, 681088, Note_on_c, 0, 72, 49
2, 681092, Note_on_c, 0, 66, 55
2, 681095, Note_on_c, 0, 57, 43
2, 681096, Control_c, 0, 64, 0
2, 681103, Note_off_c, 0, 50, 64
2, 681106, Note_off_c, 0, 74, 64
2, 681154, Control_c, 0, 64, 127
2, 681285, Note_on_c, 0, 70, 51
2, 681289, Note_on_c, 0, 67, 46
2, 681291, Control_c, 0, 64, 0
2, 681296, Note_on_c, 0, 55, 40
2, 681299, Note_off_c, 0, 72, 64
2, 681302, Note_off_c, 0, 57, 64
2, 681306, Note_off_c, 0, 66, 64
2, 681350, Control_c, 0, 64, 127
2, 681452, Note_off_c, 0, 70, 64
2, 681466, Control_c, 0, 64, 0
2, 681472, Note_on_c, 0, 57, 37
2, 681473, Note_on_c, 0, 72, 49
2, 681478, Note_off_c, 0, 55, 64
2, 681478, Note_on_c, 0, 66, 46
2, 681486, Note_off_c, 0, 67, 64
2, 681518, Control_c, 0, 64, 127
2, 681594, Note_off_c, 0, 66, 64
2, 681600, Note_on_c, 0, 74, 43
2, 681607, Note_off_c, 0, 72, 64
2, 681607, Note_on_c, 0, 50, 40
2, 681616, Note_off_c, 0, 57, 64
2, 681642, Note_on_c, 0, 72, 51
2, 681642, Control_c, 0, 64, 0
2, 681646, Note_on_c, 0, 66, 49
2, 681653, Note_off_c, 0, 74, 64
2, 681666, Note_on_c, 0, 57, 46
2, 681691, Control_c, 0, 64, 127
2, 681702, Note_off_c, 0, 50, 64
2, 681858, Control_c, 0, 64, 0
2, 681864, Note_off_c, 0, 66, 64
2, 681864, Note_on_c, 0, 70, 48
2, 681871, Note_on_c, 0, 55, 47
2, 681871, Note_on_c, 0, 67, 40
2, 681888, Note_off_c, 0, 72, 64
2, 681895, Note_off_c, 0, 57, 64
2, 681917, Control_c, 0, 64, 127
2, 682104, Note_off_c, 0, 70, 64
2, 682111, Note_off_c, 0, 67, 64
2, 682144, Note_on_c, 0, 63, 42
2, 682144, Note_on_c, 0, 68, 55
2, 682147, Note_on_c, 0, 60, 47
2, 682159, Control_c, 0, 64, 0
2, 682161, Note_off_c, 0, 62, 64
2, 682674, Control_c, 0, 64, 127
2, 682687, Note_on_c, 0, 66, 46
2, 682695, Note_off_c, 0, 68, 64
2, 682741, Note_off_c, 0, 63, 64
2, 682808, Note_off_c, 0, 60, 64
2, 683029, Note_on_c, 0, 67, 34
2, 683037, Note_on_c, 0, 59, 26
2, 683043, Note_on_c, 0, 62, 26
2, 683048, Note_off_c, 0, 66, 64
2, 683065, Control_c, 0, 64, 0
2, 683119, Control_c, 0, 64, 127
2, 683347, Note_off_c, 0, 59, 64
2, 683354, Note_on_c, 0, 53, 40
2, 683368, Note_off_c, 0, 62, 64
2, 683438, Note_on_c, 0, 60, 47
2, 683443, Note_on_c, 0, 51, 40
2, 683452, Note_off_c, 0, 53, 64
2, 683489, Note_off_c, 0, 67, 64
2, 683520, Note_on_c, 0, 50, 25
2, 683524, Note_on_c, 0, 59, 42
2, 683527, Note_on_c, 0, 62, 47
2, 683540, Note_off_c, 0, 60, 64
2, 683545, Note_off_c, 0, 51, 64
2, 683600, Note_on_c, 0, 48, 31
2, 683604, Note_on_c, 0, 60, 37
2, 683605, Note_on_c, 0, 63, 37
2, 683632, Note_off_c, 0, 50, 64
2, 683636, Note_off_c, 0, 59, 64
2, 683639, Note_off_c, 0, 62, 64
2, 683698, Note_on_c, 0, 50, 47
2, 683703, Note_on_c, 0, 65, 48
2, 683704, Note_on_c, 0, 59, 37
2, 683705, Control_c, 0, 64, 0
2, 683716, Note_off_c, 0, 48, 64
2, 683720, Note_off_c, 0, 60, 64
2, 683721, Note_off_c, 0, 63, 64
2, 683762, Control_c, 0, 64, 127
2, 683826, Note_on_c, 0, 43, 48
2, 683830, Note_off_c, 0, 59, 64
2, 683834, Note_on_c, 0, 67, 46
2, 683841, Note_off_c, 0, 50, 64
2, 683844, Note_off_c, 0, 65, 64
2, 683871, Control_c, 0, 64, 0
2, 683880, Note_on_c, 0, 65, 48
2, 683883, Note_on_c, 0, 59, 46
2, 683890, Note_off_c, 0, 67, 64
2, 683893, Note_on_c, 0, 50, 42
2, 683904, Note_off_c, 0, 43, 64
2, 683946, Control_c, 0, 64, 127
2, 684065, Note_on_c, 0, 48, 43
2, 684067, Note_on_c, 0, 63, 48
2, 684074, Note_off_c, 0, 50, 64
2, 684074, Note_on_c, 0, 60, 48
2, 684080, Control_c, 0, 64, 0
2, 684088, Note_off_c, 0, 65, 64
2, 684097, Note_off_c, 0, 59, 64
2, 684126, Control_c, 0, 64, 127
2, 684256, Note_off_c, 0, 60, 64
2, 684257, Note_on_c, 0, 65, 48
2, 684261, Note_on_c, 0, 59, 48
2, 684261, Note_on_c, 0, 50, 48
2, 684267, Note_off_c, 0, 48, 64
2, 684270, Control_c, 0, 64, 0
2, 684279, Note_off_c, 0, 63, 64
2, 684304, Control_c, 0, 64, 127
2, 684378, Note_off_c, 0, 59, 64
2, 684385, Note_off_c, 0, 65, 64
2, 684385, Note_on_c, 0, 67, 42
2, 684391, Note_on_c, 0, 43, 42
2, 684392, Note_off_c, 0, 50, 64
2, 684427, Control_c, 0, 64, 0
2, 684431, Note_on_c, 0, 65, 43
2, 684433, Note_on_c, 0, 59, 48
2, 684438, Note_off_c, 0, 67, 64
2, 684448, Note_on_c, 0, 50, 41
2, 684480, Note_off_c, 0, 43, 64
2, 684489, Control_c, 0, 64, 127
2, 684672, Note_on_c, 0, 63, 34
2, 684676, Control_c, 0, 64, 0
2, 684680, Note_on_c, 0, 48, 37
2, 684686, Note_on_c, 0, 60, 24
2, 684690, Note_off_c, 0, 50, 64
2, 684697, Note_off_c, 0, 65, 64
2, 684732, Note_off_c, 0, 59, 64
2, 684736, Control_c, 0, 64, 127
2, 684768, Note_off_c, 0, 63, 64
2, 684775, Note_off_c, 0, 60, 64
2, 684820, Note_off_c, 0, 48, 64
2, 684928, Note_on_c, 0, 48, 48
2, 684934, Note_off_c, 0, 55, 64
2, 684960, Note_on_c, 0, 50, 58
2, 684970, Note_off_c, 0, 48, 64
2, 684978, Control_c, 0, 64, 0
2, 684996, Note_on_c, 0, 48, 66
2, 685020, Note_off_c, 0, 50, 64
2, 685055, Note_on_c, 0, 47, 63
2, 685065, Note_off_c, 0, 48, 64
2, 685148, Note_on_c, 0, 48, 63
2, 685171, Note_off_c, 0, 47, 64
2, 685243, Note_on_c, 0, 50, 63
2, 685271, Note_off_c, 0, 48, 64
2, 685320, Note_on_c, 0, 51, 54
2, 685353, Note_off_c, 0, 50, 64
2, 685418, Note_on_c, 0, 50, 63
2, 685428, Note_off_c, 0, 51, 64
2, 685438, Control_c, 0, 64, 127
2, 685504, Note_on_c, 0, 49, 63
2, 685507, Note_on_c, 0, 52, 60
2, 685533, Note_off_c, 0, 50, 64
2, 685590, Note_on_c, 0, 54, 69
2, 685595, Note_on_c, 0, 48, 55
2, 685612, Note_off_c, 0, 49, 64
2, 685615, Note_off_c, 0, 52, 64
2, 685674, Note_on_c, 0, 46, 49
2, 685675, Note_on_c, 0, 55, 72
2, 685693, Note_off_c, 0, 54, 64
2, 685698, Note_off_c, 0, 48, 64
2, 685756, Note_on_c, 0, 45, 58
2, 685759, Note_on_c, 0, 57, 59
2, 685759, Note_on_c, 0, 54, 59
2, 685769, Note_off_c, 0, 46, 64
2, 685770, Note_off_c, 0, 55, 64
2, 685795, Control_c, 0, 64, 0
2, 685837, Note_on_c, 0, 55, 78
2, 685840, Note_on_c, 0, 43, 70
2, 685841, Note_on_c, 0, 58, 78
2, 685851, Note_off_c, 0, 45, 64
2, 685854, Note_off_c, 0, 54, 64
2, 685854, Note_off_c, 0, 57, 64
2, 685930, Note_on_c, 0, 57, 64
2, 685933, Note_off_c, 0, 55, 64
2, 685933, Note_on_c, 0, 53, 75
2, 685936, Note_off_c, 0, 43, 64
2, 685936, Note_on_c, 0, 45, 83
2, 685937, Note_off_c, 0, 58, 64
2, 685966, Control_c, 0, 64, 127
2, 686019, Note_off_c, 0, 45, 64
2, 686023, Note_off_c, 0, 53, 64
2, 686035, Note_off_c, 0, 57, 64
2, 686050, Note_on_c, 0, 61, 74
2, 686055, Note_on_c, 0, 52, 82
2, 686057, Note_on_c, 0, 33, 74
2, 686104, Note_on_c, 0, 62, 80
2, 686104, Note_on_c, 0, 38, 88
2, 686108, Note_on_c, 0, 50, 88
2, 686116, Note_off_c, 0, 61, 64
2, 686121, Note_off_c, 0, 52, 64
2, 686128, Note_off_c, 0, 33, 64
2, 686129, Control_c, 0, 64, 0
2, 686264, Control_c, 0, 64, 127
2, 686299, Note_off_c, 0, 62, 64
2, 686312, Note_off_c, 0, 38, 64
2, 686316, Note_off_c, 0, 50, 64
2, 686522, Note_on_c, 0, 69, 57
2, 686528, Note_on_c, 0, 65, 55
2, 686529, Note_on_c, 0, 57, 57
2, 686529, Control_c, 0, 64, 0
2, 686538, Note_on_c, 0, 50, 32
2, 686567, Control_c, 0, 64, 127
2, 686657, Note_on_c, 0, 73, 63
2, 686660, Note_on_c, 0, 64, 65
2, 686665, Note_off_c, 0, 69, 64
2, 686666, Note_on_c, 0, 55, 59
2, 686671, Note_off_c, 0, 65, 64
2, 686672, Note_off_c, 0, 57, 64
2, 686715, Note_on_c, 0, 74, 70
2, 686716, Note_on_c, 0, 53, 57
2, 686721, Note_on_c, 0, 62, 72
2, 686729, Note_off_c, 0, 64, 64
2, 686729, Note_off_c, 0, 73, 64
2, 686735, Note_off_c, 0, 55, 64
2, 686741, Control_c, 0, 64, 0
2, 686869, Control_c, 0, 64, 127
2, 687003, Note_off_c, 0, 74, 64
2, 687004, Note_off_c, 0, 53, 64
2, 687009, Note_off_c, 0, 62, 64
2, 687182, Control_c, 0, 64, 0
2, 687187, Note_on_c, 0, 57, 40
2, 687195, Note_on_c, 0, 69, 43
2, 687196, Note_on_c, 0, 65, 42
2, 687233, Control_c, 0, 64, 127
2, 687376, Note_on_c, 0, 64, 57
2, 687380, Note_on_c, 0, 73, 54
2, 687380, Note_on_c, 0, 55, 35
2, 687399, Note_off_c, 0, 57, 64
2, 687407, Note_off_c, 0, 69, 64
2, 687408, Note_off_c, 0, 65, 64
2, 687448, Note_on_c, 0, 74, 51
2, 687452, Note_on_c, 0, 62, 48
2, 687452, Note_on_c, 0, 53, 48
2, 687458, Note_off_c, 0, 64, 64
2, 687462, Note_off_c, 0, 55, 64
2, 687462, Note_off_c, 0, 73, 64
2, 687468, Control_c, 0, 64, 0
2, 687582, Control_c, 0, 64, 127
2, 687872, Note_off_c, 0, 74, 64
2, 687876, Note_off_c, 0, 53, 64
2, 687876, Note_off_c, 0, 62, 64
2, 687877, Note_on_c, 0, 69, 36
2, 687880, Control_c, 0, 64, 0
2, 687886, Note_on_c, 0, 57, 32
2, 687926, Control_c, 0, 64, 127
2, 687979, Note_off_c, 0, 69, 64
2, 687984, Note_on_c, 0, 72, 40
2, 687984, Note_on_c, 0, 60, 40
2, 687991, Note_off_c, 0, 57, 64
2, 688017, Note_off_c, 0, 72, 64
2, 688081, Note_on_c, 0, 72, 46
2, 688119, Note_on_c, 0, 70, 41
2, 688119, Note_on_c, 0, 58, 32
2, 688131, Note_off_c, 0, 60, 64
2, 688132, Note_off_c, 0, 72, 64
2, 688154, Control_c, 0, 64, 0
2, 688156, Note_on_c, 0, 72, 51
2, 688164, Note_off_c, 0, 70, 64
2, 688194, Note_on_c, 0, 70, 51
2, 688213, Note_off_c, 0, 72, 64
2, 688223, Control_c, 0, 64, 127
2, 688275, Note_on_c, 0, 69, 49
2, 688279, Note_off_c, 0, 70, 64
2, 688289, Note_on_c, 0, 57, 46
2, 688293, Note_off_c, 0, 58, 64
2, 688302, Control_c, 0, 64, 0
2, 688366, Note_on_c, 0, 67, 51
2, 688368, Note_on_c, 0, 55, 40
2, 688374, Note_off_c, 0, 57, 64
2, 688377, Note_off_c, 0, 69, 64
2, 688456, Note_on_c, 0, 69, 43
2, 688459, Note_off_c, 0, 67, 64
2, 688459, Note_on_c, 0, 57, 47
2, 688468, Note_off_c, 0, 55, 64
2, 688599, Note_on_c, 0, 64, 40
2, 688614, Note_on_c, 0, 52, 40
2, 688617, Note_off_c, 0, 69, 64
2, 688646, Note_on_c, 0, 65, 47
2, 688652, Note_on_c, 0, 53, 36
2, 688658, Note_off_c, 0, 52, 64
2, 688662, Note_off_c, 0, 64, 64
2, 688784, Note_off_c, 0, 50, 64
2, 688822, Note_on_c, 0, 50, 41
2, 688828, Note_off_c, 0, 65, 64
2, 688829, Note_on_c, 0, 62, 41
2, 688836, Note_off_c, 0, 53, 64
2, 688843, Note_off_c, 0, 57, 64
2, 688866, Control_c, 0, 64, 127
2, 688990, Note_off_c, 0, 62, 64
2, 689000, Control_c, 0, 64, 0
2, 689005, Note_on_c, 0, 69, 46
2, 689010, Note_on_c, 0, 57, 34
2, 689048, Control_c, 0, 64, 127
2, 689100, Note_on_c, 0, 72, 46
2, 689101, Note_off_c, 0, 69, 64
2, 689108, Note_on_c, 0, 60, 36
2, 689124, Note_off_c, 0, 57, 64
2, 689136, Note_off_c, 0, 72, 64
2, 689189, Note_on_c, 0, 72, 51
2, 689205, Control_c, 0, 64, 0
2, 689212, Note_on_c, 0, 58, 31
2, 689226, Note_on_c, 0, 70, 43
2, 689236, Note_off_c, 0, 72, 64
2, 689244, Note_off_c, 0, 60, 64
2, 689260, Note_on_c, 0, 72, 51
2, 689265, Note_off_c, 0, 70, 64
2, 689301, Note_on_c, 0, 70, 48
2, 689314, Note_off_c, 0, 72, 64
2, 689370, Note_on_c, 0, 69, 48
2, 689375, Note_off_c, 0, 70, 64
2, 689378, Note_on_c, 0, 57, 43
2, 689380, Note_off_c, 0, 58, 64
2, 689458, Note_on_c, 0, 67, 47
2, 689467, Note_on_c, 0, 55, 37
2, 689471, Note_off_c, 0, 69, 64
2, 689477, Note_off_c, 0, 57, 64
2, 689550, Note_on_c, 0, 57, 40
2, 689555, Note_on_c, 0, 69, 42
2, 689558, Note_off_c, 0, 55, 64
2, 689562, Note_off_c, 0, 67, 64
2, 689689, Note_on_c, 0, 64, 42
2, 689704, Note_on_c, 0, 52, 26
2, 689712, Note_off_c, 0, 69, 64
2, 689729, Note_on_c, 0, 65, 43
2, 689745, Note_on_c, 0, 53, 25
2, 689749, Note_off_c, 0, 64, 64
2, 689753, Note_off_c, 0, 52, 64
2, 689907, Note_off_c, 0, 50, 64
2, 689925, Note_on_c, 0, 62, 37
2, 689928, Note_on_c, 0, 50, 37
2, 689933, Note_off_c, 0, 65, 64
2, 689946, Note_off_c, 0, 53, 64
2, 689981, Note_off_c, 0, 57, 64
2, 690025, Control_c, 0, 64, 127
2, 690098, Control_c, 0, 64, 0
2, 690126, Note_on_c, 0, 57, 32
2, 690126, Note_on_c, 0, 69, 36
2, 690138, Note_off_c, 0, 62, 64
2, 690167, Control_c, 0, 64, 127
2, 690287, Note_on_c, 0, 64, 35
2, 690291, Note_on_c, 0, 52, 25
2, 690319, Control_c, 0, 64, 0
2, 690324, Note_off_c, 0, 69, 64
2, 690336, Note_on_c, 0, 53, 36
2, 690341, Note_on_c, 0, 65, 32
2, 690357, Note_off_c, 0, 64, 64
2, 690361, Note_off_c, 0, 52, 64
2, 690371, Control_c, 0, 64, 127
2, 690529, Note_off_c, 0, 50, 64
2, 690530, Control_c, 0, 64, 0
2, 690553, Note_on_c, 0, 62, 32
2, 690557, Note_on_c, 0, 50, 26
2, 690563, Note_off_c, 0, 53, 64
2, 690564, Note_off_c, 0, 65, 64
2, 690592, Control_c, 0, 64, 127
2, 690619, Note_off_c, 0, 57, 64
2, 690777, Note_on_c, 0, 57, 26
2, 690786, Control_c, 0, 64, 0
2, 690789, Note_on_c, 0, 69, 32
2, 690803, Note_off_c, 0, 62, 64
2, 690855, Control_c, 0, 64, 127
2, 690976, Note_on_c, 0, 52, 19
2, 690977, Note_on_c, 0, 64, 26
2, 691003, Control_c, 0, 64, 0
2, 691035, Note_off_c, 0, 69, 64
2, 691045, Note_on_c, 0, 65, 29
2, 691047, Note_on_c, 0, 53, 31
2, 691057, Note_off_c, 0, 52, 64
2, 691058, Note_off_c, 0, 64, 64
2, 691074, Control_c, 0, 64, 127
2, 691268, Note_off_c, 0, 50, 64
2, 691309, Control_c, 0, 64, 0
2, 691313, Note_on_c, 0, 62, 31
2, 691317, Note_on_c, 0, 50, 32
2, 691330, Note_off_c, 0, 65, 64
2, 691333, Note_off_c, 0, 53, 64
2, 691371, Control_c, 0, 64, 127
2, 691528, Note_off_c, 0, 62, 64
2, 691542, Note_off_c, 0, 57, 64
2, 691710, Note_on_c, 0, 74, 32
2, 691715, Note_on_c, 0, 62, 23
2, 691748, Note_off_c, 0, 50, 64
2, 691754, Control_c, 0, 64, 0
2, 691826, Control_c, 0, 64, 127
2, 692174, Note_off_c, 0, 74, 64
2, 692193, Note_off_c, 0, 62, 64
2, 692392, Note_on_c, 0, 62, 40
2, 692406, Control_c, 0, 64, 0
2, 692439, Control_c, 0, 64, 127
2, 692480, Note_off_c, 0, 62, 64
2, 692534, Note_on_c, 0, 62, 59
2, 692567, Note_off_c, 0, 62, 64
2, 692590, Note_on_c, 0, 62, 64
2, 692603, Control_c, 0, 64, 0
2, 692639, Control_c, 0, 64, 127
2, 692772, Note_off_c, 0, 62, 64
2, 692816, Note_on_c, 0, 62, 63
2, 692835, Control_c, 0, 64, 0
2, 692877, Control_c, 0, 64, 127
2, 693009, Note_off_c, 0, 62, 64
2, 693063, Note_on_c, 0, 62, 71
2, 693078, Control_c, 0, 64, 0
2, 693124, Control_c, 0, 64, 127
2, 693297, Control_c, 0, 64, 0
2, 693306, Note_on_c, 0, 56, 40
2, 693310, Note_on_c, 0, 46, 48
2, 693345, Control_c, 0, 64, 127
2, 693538, Note_on_c, 0, 63, 64
2, 693538, Note_on_c, 0, 55, 58
2, 693545, Note_off_c, 0, 56, 64
2, 693548, Note_on_c, 0, 39, 57
2, 693556, Control_c, 0, 64, 0
2, 693575, Note_off_c, 0, 62, 64
2, 693587, Note_off_c, 0, 46, 64
2, 693595, Control_c, 0, 64, 127
2, 693772, Note_on_c, 0, 67, 63
2, 693778, Note_on_c, 0, 61, 60
2, 693781, Note_on_c, 0, 51, 70
2, 693794, Note_off_c, 0, 55, 64
2, 693794, Note_off_c, 0, 63, 64
2, 693797, Control_c, 0, 64, 0
2, 693829, Control_c, 0, 64, 127
2, 693834, Note_off_c, 0, 39, 64
2, 693938, Note_on_c, 0, 56, 77
2, 693942, Note_on_c, 0, 65, 60
2, 693961, Note_off_c, 0, 67, 64
2, 693970, Note_off_c, 0, 51, 64
2, 693997, Note_off_c, 0, 61, 64
2, 694000, Note_on_c, 0, 63, 63
2, 694007, Note_on_c, 0, 61, 59
2, 694012, Note_off_c, 0, 65, 64
2, 694012, Note_on_c, 0, 51, 46
2, 694012, Note_on_c, 0, 55, 57
2, 694024, Note_off_c, 0, 56, 64
2, 694029, Control_c, 0, 64, 0
2, 694122, Control_c, 0, 64, 127
2, 694179, Note_off_c, 0, 55, 64
2, 694189, Note_off_c, 0, 61, 64
2, 694194, Note_off_c, 0, 63, 64
2, 694229, Note_off_c, 0, 51, 64
2, 694334, Note_on_c, 0, 61, 52
2, 694336, Note_on_c, 0, 56, 52
2, 694337, Note_on_c, 0, 51, 52
2, 694338, Note_on_c, 0, 65, 57
2, 694346, Note_on_c, 0, 61, 52
2, 694378, Note_off_c, 0, 61, 64
2, 694390, Note_off_c, 0, 61, 64
2, 694411, Note_off_c, 0, 51, 64
2, 694428, Note_on_c, 0, 67, 66
2, 694429, Note_on_c, 0, 61, 64
2, 694432, Note_on_c, 0, 58, 74
2, 694436, Note_on_c, 0, 51, 60
2, 694438, Control_c, 0, 64, 0
2, 694441, Note_off_c, 0, 56, 64
2, 694443, Note_off_c, 0, 65, 64
2, 694471, Control_c, 0, 64, 127
2, 694475, Note_off_c, 0, 67, 64
2, 694477, Note_off_c, 0, 61, 64
2, 694484, Note_off_c, 0, 51, 64
2, 694492, Note_off_c, 0, 58, 64
2, 694564, Note_on_c, 0, 51, 52
2, 694568, Note_on_c, 0, 60, 64
2, 694569, Note_on_c, 0, 68, 69
2, 694569, Note_on_c, 0, 63, 64
2, 694610, Note_off_c, 0, 51, 64
2, 694628, Note_on_c, 0, 65, 60
2, 694628, Note_on_c, 0, 61, 74
2, 694628, Note_on_c, 0, 51, 64
2, 694632, Note_off_c, 0, 63, 64
2, 694632, Note_on_c, 0, 70, 54
2, 694634, Note_off_c, 0, 68, 64
2, 694635, Note_off_c, 0, 60, 64
2, 694644, Control_c, 0, 64, 0
2, 694675, Control_c, 0, 64, 127
2, 694794, Note_off_c, 0, 51, 64
2, 694829, Note_on_c, 0, 72, 70
2, 694838, Note_on_c, 0, 51, 57
2, 694840, Note_on_c, 0, 67, 66
2, 694842, Note_on_c, 0, 63, 72
2, 694850, Control_c, 0, 64, 0
2, 694854, Note_off_c, 0, 61, 64
2, 694854, Note_off_c, 0, 65, 64
2, 694855, Note_off_c, 0, 70, 64
2, 694863, Control_c, 0, 64, 127
2, 695003, Note_off_c, 0, 51, 64
2, 695028, Note_on_c, 0, 68, 59
2, 695030, Note_on_c, 0, 65, 65
2, 695034, Note_on_c, 0, 73, 71
2, 695040, Note_on_c, 0, 51, 58
2, 695040, Control_c, 0, 64, 0
2, 695045, Note_off_c, 0, 63, 64
2, 695054, Control_c, 0, 64, 127
2, 695055, Note_off_c, 0, 72, 64
2, 695055, Note_off_c, 0, 67, 64
2, 695082, Note_off_c, 0, 65, 64
2, 695083, Note_off_c, 0, 68, 64
2, 695095, Note_off_c, 0, 51, 64
2, 695098, Note_off_c, 0, 73, 64
2, 695164, Note_on_c, 0, 67, 65
2, 695174, Note_on_c, 0, 77, 64
2, 695179, Note_on_c, 0, 61, 77
2, 695179, Note_on_c, 0, 51, 57
2, 695220, Note_off_c, 0, 51, 64
2, 695223, Note_off_c, 0, 61, 64
2, 695227, Note_off_c, 0, 67, 64
2, 695233, Note_on_c, 0, 75, 77
2, 695233, Note_on_c, 0, 56, 69
2, 695236, Note_on_c, 0, 67, 66
2, 695236, Note_on_c, 0, 61, 51
2, 695238, Note_off_c, 0, 77, 64
2, 695248, Control_c, 0, 64, 0
2, 695326, Control_c, 0, 64, 127
2, 695397, Note_off_c, 0, 61, 64
2, 695515, Note_on_c, 0, 60, 57
2, 695522, Note_on_c, 0, 68, 64
2, 695535, Control_c, 0, 64, 0
2, 695545, Note_off_c, 0, 75, 64
2, 695548, Note_off_c, 0, 67, 64
2, 695601, Control_c, 0, 64, 127
2, 695624, Note_off_c, 0, 68, 64
2, 695716, Note_off_c, 0, 60, 64
2, 695741, Note_off_c, 0, 56, 64
2, 695823, Note_on_c, 0, 65, 75
2, 695852, Control_c, 0, 64, 0
2, 695904, Control_c, 0, 64, 127
2, 696087, Note_on_c, 0, 63, 66
2, 696094, Note_on_c, 0, 57, 63
2, 696101, Note_on_c, 0, 53, 52
2, 696105, Control_c, 0, 64, 0
2, 696148, Control_c, 0, 64, 127
2, 696285, Note_off_c, 0, 63, 64
2, 696291, Note_on_c, 0, 67, 66
2, 696298, Note_on_c, 0, 58, 85
2, 696302, Note_off_c, 0, 65, 64
2, 696303, Note_on_c, 0, 63, 82
2, 696305, Control_c, 0, 64, 0
2, 696313, Note_on_c, 0, 41, 42
2, 696321, Note_off_c, 0, 57, 64
2, 696330, Control_c, 0, 64, 127
2, 696403, Note_off_c, 0, 53, 64
2, 696485, Note_off_c, 0, 63, 64
2, 696492, Note_off_c, 0, 58, 64
2, 696503, Control_c, 0, 64, 0
2, 696507, Note_on_c, 0, 29, 66
2, 696511, Note_on_c, 0, 69, 72
2, 696514, Note_on_c, 0, 63, 66
2, 696514, Note_on_c, 0, 60, 70
2, 696530, Note_off_c, 0, 67, 64
2, 696536, Note_off_c, 0, 41, 64
2, 696543, Control_c, 0, 64, 127
2, 696587, Note_off_c, 0, 60, 64
2, 696597, Note_off_c, 0, 63, 64
2, 696600, Note_off_c, 0, 69, 64
2, 696668, Note_on_c, 0, 63, 59
2, 696669, Note_on_c, 0, 67, 57
2, 696672, Note_on_c, 0, 60, 58
2, 696672, Note_on_c, 0, 58, 55
2, 696672, Note_on_c, 0, 53, 52
2, 696707, Note_off_c, 0, 63, 64
2, 696708, Note_off_c, 0, 53, 64
2, 696711, Note_off_c, 0, 60, 64
2, 696720, Note_on_c, 0, 65, 72
2, 696723, Control_c, 0, 64, 0
2, 696727, Note_on_c, 0, 63, 70
2, 696728, Note_on_c, 0, 57, 66
2, 696730, Note_on_c, 0, 60, 70
2, 696732, Note_on_c, 0, 53, 66
2, 696735, Note_off_c, 0, 67, 64
2, 696739, Note_off_c, 0, 58, 64
2, 696743, Control_c, 0, 64, 0
2, 696787, Note_off_c, 0, 29, 64
2, 696818, Control_c, 0, 64, 127
2, 696861, Note_off_c, 0, 60, 64
2, 696877, Note_off_c, 0, 63, 64
2, 696883, Note_off_c, 0, 65, 64
2, 696891, Note_off_c, 0, 57, 64
2, 696895, Note_off_c, 0, 53, 64
2, 697020, Note_on_c, 0, 67, 60
2, 697020, Note_on_c, 0, 63, 64
2, 697020, Note_on_c, 0, 60, 59
2, 697020, Note_on_c, 0, 58, 59
2, 697020, Note_on_c, 0, 53, 48
2, 697097, Note_off_c, 0, 53, 64
2, 697105, Note_off_c, 0, 60, 64
2, 697108, Note_off_c, 0, 63, 64
2, 697109, Control_c, 0, 64, 0
2, 697116, Note_on_c, 0, 65, 65
2, 697116, Note_on_c, 0, 63, 65
2, 697118, Note_on_c, 0, 69, 72
2, 697118, Note_on_c, 0, 53, 60
2, 697123, Note_off_c, 0, 58, 64
2, 697123, Note_off_c, 0, 67, 64
2, 697123, Note_on_c, 0, 60, 63
2, 697125, Control_c, 0, 64, 0
2, 697149, Control_c, 0, 64, 127
2, 697159, Note_off_c, 0, 63, 64
2, 697159, Note_off_c, 0, 65, 64
2, 697167, Note_off_c, 0, 69, 64
2, 697168, Note_off_c, 0, 53, 64
2, 697185, Note_off_c, 0, 60, 64
2, 697250, Note_on_c, 0, 53, 65
2, 697252, Note_on_c, 0, 70, 66
2, 697252, Note_on_c, 0, 65, 64
2, 697259, Note_on_c, 0, 62, 60
2, 697290, Note_off_c, 0, 53, 64
2, 697300, Control_c, 0, 64, 0
2, 697302, Note_off_c, 0, 70, 64
2, 697311, Note_on_c, 0, 67, 71
2, 697312, Note_on_c, 0, 72, 70
2, 697312, Note_on_c, 0, 70, 74
2, 697312, Note_on_c, 0, 63, 72
2, 697312, Note_on_c, 0, 53, 72
2, 697319, Note_off_c, 0, 65, 64
2, 697323, Control_c, 0, 64, 127
2, 697326, Note_off_c, 0, 62, 64
2, 697355, Control_c, 0, 64, 127
2, 697505, Note_on_c, 0, 69, 70
2, 697507, Note_on_c, 0, 74, 72
2, 697511, Note_off_c, 0, 53, 64
2, 697511, Control_c, 0, 64, 0
2, 697516, Note_on_c, 0, 53, 58
2, 697518, Note_on_c, 0, 65, 59
2, 697529, Note_off_c, 0, 67, 64
2, 697530, Note_off_c, 0, 63, 64
2, 697530, Note_off_c, 0, 70, 64
2, 697530, Note_off_c, 0, 72, 64
2, 697540, Control_c, 0, 64, 127
2, 697694, Note_off_c, 0, 53, 64
2, 697696, Note_on_c, 0, 70, 66
2, 697696, Note_on_c, 0, 67, 52
2, 697698, Note_on_c, 0, 75, 66
2, 697702, Control_c, 0, 64, 0
2, 697708, Note_on_c, 0, 53, 52
2, 697715, Note_off_c, 0, 69, 64
2, 697717, Note_off_c, 0, 74, 64
2, 697721, Control_c, 0, 64, 127
2, 697728, Note_off_c, 0, 65, 64
2, 697748, Note_off_c, 0, 67, 64
2, 697751, Note_off_c, 0, 70, 64
2, 697764, Note_off_c, 0, 75, 64
2, 697765, Note_off_c, 0, 53, 64
2, 697826, Note_on_c, 0, 53, 66
2, 697832, Note_on_c, 0, 69, 72
2, 697833, Note_on_c, 0, 63, 64
2, 697836, Note_on_c, 0, 79, 63
2, 697839, Control_c, 0, 64, 0
2, 697877, Note_off_c, 0, 63, 64
2, 697878, Note_off_c, 0, 69, 64
2, 697894, Note_on_c, 0, 58, 77
2, 697898, Note_off_c, 0, 53, 64
2, 697900, Note_on_c, 0, 63, 60
2, 697900, Note_on_c, 0, 69, 72
2, 697902, Note_on_c, 0, 77, 72
2, 697909, Note_off_c, 0, 79, 64
2, 697927, Control_c, 0, 64, 0
2, 697990, Control_c, 0, 64, 127
2, 698188, Note_on_c, 0, 70, 63
2, 698190, Note_on_c, 0, 62, 52
2, 698199, Control_c, 0, 64, 0
2, 698205, Note_off_c, 0, 69, 64
2, 698211, Note_off_c, 0, 63, 64
2, 698213, Note_off_c, 0, 77, 64
2, 698255, Control_c, 0, 64, 127
2, 698357, Note_off_c, 0, 62, 64
2, 698401, Note_off_c, 0, 58, 64
2, 698416, Note_off_c, 0, 70, 64
2, 698491, Note_on_c, 0, 70, 72
2, 698498, Note_on_c, 0, 54, 54
2, 698506, Note_on_c, 0, 61, 31
2, 698509, Note_on_c, 0, 64, 32
2, 698517, Control_c, 0, 64, 0
2, 698560, Control_c, 0, 64, 127
2, 698588, Note_off_c, 0, 64, 64
2, 698596, Note_off_c, 0, 61, 64
2, 698605, Note_off_c, 0, 54, 64
2, 698785, Note_on_c, 0, 42, 57
2, 698808, Control_c, 0, 64, 0
2, 698861, Control_c, 0, 64, 127
2, 698884, Note_on_c, 0, 71, 48
2, 698892, Note_off_c, 0, 70, 64
2, 698990, Note_on_c, 0, 73, 48
2, 699004, Note_off_c, 0, 71, 64
2, 699082, Note_on_c, 0, 75, 57
2, 699092, Note_off_c, 0, 73, 64
2, 699155, Note_off_c, 0, 42, 64
2, 699185, Note_on_c, 0, 76, 64
2, 699193, Note_off_c, 0, 75, 64
2, 699275, Note_on_c, 0, 80, 72
2, 699285, Note_off_c, 0, 76, 64
2, 699376, Note_on_c, 0, 54, 59
2, 699376, Note_on_c, 0, 78, 63
2, 699396, Note_off_c, 0, 80, 64
2, 699412, Control_c, 0, 64, 0
2, 699473, Control_c, 0, 64, 127
2, 699609, Note_on_c, 0, 70, 70
2, 699613, Note_on_c, 0, 61, 63
2, 699626, Control_c, 0, 64, 0
2, 699633, Note_off_c, 0, 78, 64
2, 699651, Control_c, 0, 64, 127
2, 699812, Note_on_c, 0, 64, 42
2, 699813, Note_on_c, 0, 73, 71
2, 699842, Note_off_c, 0, 70, 64
2, 699846, Note_off_c, 0, 61, 64
2, 699891, Note_off_c, 0, 73, 64
2, 699891, Note_on_c, 0, 68, 64
2, 699892, Note_off_c, 0, 64, 64
2, 699897, Note_on_c, 0, 76, 70
2, 699980, Note_on_c, 0, 75, 66
2, 699988, Note_on_c, 0, 66, 63
2, 700008, Note_off_c, 0, 68, 64
2, 700014, Note_off_c, 0, 76, 64
2, 700157, Control_c, 0, 64, 0
2, 700168, Note_on_c, 0, 68, 71
2, 700168, Note_on_c, 0, 59, 63
2, 700179, Note_off_c, 0, 75, 64
2, 700187, Note_off_c, 0, 66, 64
2, 700206, Control_c, 0, 64, 127
2, 700364, Note_on_c, 0, 65, 48
2, 700365, Note_on_c, 0, 62, 51
2, 700372, Note_on_c, 0, 71, 66
2, 700385, Note_off_c, 0, 59, 64
2, 700385, Note_off_c, 0, 68, 64
2, 700418, Note_on_c, 0, 73, 63
2, 700430, Note_off_c, 0, 71, 64
2, 700480, Note_on_c, 0, 71, 58
2, 700492, Note_off_c, 0, 73, 64
2, 700564, Note_off_c, 0, 71, 64
2, 700564, Note_on_c, 0, 70, 66
2, 700569, Note_on_c, 0, 66, 48
2, 700572, Note_on_c, 0, 61, 31
2, 700579, Control_c, 0, 64, 0
2, 700587, Note_off_c, 0, 65, 64
2, 700588, Note_off_c, 0, 62, 64
2, 700623, Control_c, 0, 64, 127
2, 700717, Note_off_c, 0, 54, 64
2, 700771, Control_c, 0, 64, 0
2, 700781, Note_on_c, 0, 54, 42
2, 700798, Control_c, 0, 64, 127
2, 700817, Note_off_c, 0, 66, 64
2, 700820, Note_off_c, 0, 61, 64
2, 700852, Note_on_c, 0, 68, 59
2, 700866, Note_off_c, 0, 70, 64
2, 700951, Note_on_c, 0, 66, 63
2, 700952, Note_on_c, 0, 64, 47
2, 700952, Note_on_c, 0, 58, 47
2, 700958, Control_c, 0, 64, 0
2, 700973, Note_off_c, 0, 68, 64
2, 701000, Control_c, 0, 64, 127
2, 701016, Note_off_c, 0, 54, 64
2, 701053, Note_on_c, 0, 68, 63
2, 701078, Note_off_c, 0, 66, 64
2, 701119, Note_off_c, 0, 58, 64
2, 701119, Note_off_c, 0, 64, 64
2, 701140, Note_on_c, 0, 42, 48
2, 701145, Note_on_c, 0, 70, 48
2, 701152, Control_c, 0, 64, 0
2, 701158, Note_off_c, 0, 68, 64
2, 701197, Control_c, 0, 64, 127
2, 701227, Note_on_c, 0, 71, 66
2, 701233, Note_off_c, 0, 70, 64
2, 701304, Note_on_c, 0, 73, 64
2, 701315, Control_c, 0, 64, 0
2, 701334, Note_off_c, 0, 42, 64
2, 701348, Note_off_c, 0, 71, 64
2, 701348, Control_c, 0, 64, 127
2, 701390, Note_on_c, 0, 75, 63
2, 701412, Note_off_c, 0, 73, 64
2, 701484, Note_on_c, 0, 76, 64
2, 701498, Note_off_c, 0, 75, 64
2, 701569, Note_on_c, 0, 80, 64
2, 701587, Note_off_c, 0, 76, 64
2, 701651, Note_on_c, 0, 54, 52
2, 701651, Note_on_c, 0, 78, 64
2, 701666, Control_c, 0, 64, 0
2, 701667, Note_off_c, 0, 80, 64
2, 701728, Control_c, 0, 64, 127
2, 701840, Note_on_c, 0, 61, 41
2, 701841, Note_on_c, 0, 70, 63
2, 701887, Note_off_c, 0, 78, 64
2, 702014, Note_on_c, 0, 64, 52
2, 702019, Note_on_c, 0, 73, 55
2, 702023, Note_off_c, 0, 61, 64
2, 702024, Note_off_c, 0, 70, 64
2, 702100, Note_on_c, 0, 76, 51
2, 702104, Note_on_c, 0, 68, 54
2, 702124, Note_off_c, 0, 64, 64
2, 702129, Note_off_c, 0, 73, 64
2, 702181, Note_on_c, 0, 75, 55
2, 702186, Note_on_c, 0, 66, 52
2, 702194, Control_c, 0, 64, 0
2, 702199, Note_off_c, 0, 76, 64
2, 702203, Note_off_c, 0, 68, 64
2, 702227, Control_c, 0, 64, 127
2, 702368, Note_on_c, 0, 59, 25
2, 702369, Note_on_c, 0, 68, 54
2, 702396, Note_off_c, 0, 75, 64
2, 702401, Note_off_c, 0, 66, 64
2, 702478, Note_off_c, 0, 59, 64
2, 702479, Note_off_c, 0, 68, 64
2, 702512, Note_on_c, 0, 71, 55
2, 702535, Note_off_c, 0, 71, 64
2, 702556, Note_on_c, 0, 65, 43
2, 702559, Note_on_c, 0, 62, 48
2, 702562, Note_on_c, 0, 71, 64
2, 702584, Control_c, 0, 64, 0
2, 702624, Control_c, 0, 64, 127
2, 702633, Note_on_c, 0, 73, 43
2, 702648, Note_off_c, 0, 71, 64
2, 702688, Note_on_c, 0, 71, 48
2, 702696, Note_off_c, 0, 73, 64
2, 702755, Note_on_c, 0, 70, 63
2, 702761, Note_on_c, 0, 66, 55
2, 702767, Note_on_c, 0, 61, 48
2, 702770, Note_off_c, 0, 71, 64
2, 702772, Note_off_c, 0, 65, 64
2, 702775, Note_off_c, 0, 62, 64
2, 702780, Control_c, 0, 64, 0
2, 702821, Control_c, 0, 64, 127
2, 702925, Note_off_c, 0, 54, 64
2, 702965, Note_on_c, 0, 54, 58
2, 703039, Note_on_c, 0, 68, 63
2, 703043, Note_off_c, 0, 66, 64
2, 703043, Note_off_c, 0, 70, 64
2, 703049, Note_off_c, 0, 61, 64
2, 703147, Note_on_c, 0, 64, 59
2, 703148, Note_on_c, 0, 58, 51
2, 703149, Note_on_c, 0, 66, 74
2, 703151, Control_c, 0, 64, 0
2, 703160, Note_off_c, 0, 68, 64
2, 703180, Control_c, 0, 64, 127
2, 703245, Note_off_c, 0, 58, 64
2, 703247, Note_off_c, 0, 54, 64
2, 703263, Note_off_c, 0, 64, 64
2, 703278, Note_off_c, 0, 66, 64
2, 703300, Note_on_c, 0, 68, 52
2, 703338, Note_on_c, 0, 70, 64
2, 703340, Note_on_c, 0, 42, 63
2, 703340, Control_c, 0, 64, 0
2, 703362, Note_off_c, 0, 68, 64
2, 703377, Control_c, 0, 64, 127
2, 703416, Note_off_c, 0, 42, 64
2, 703428, Note_on_c, 0, 71, 71
2, 703439, Note_off_c, 0, 70, 64
2, 703520, Note_on_c, 0, 73, 72
2, 703557, Note_off_c, 0, 71, 64
2, 703598, Note_on_c, 0, 75, 72
2, 703624, Note_off_c, 0, 73, 64
2, 703685, Note_on_c, 0, 76, 66
2, 703705, Note_off_c, 0, 75, 64
2, 703763, Note_on_c, 0, 78, 72
2, 703798, Note_off_c, 0, 76, 64
2, 703847, Note_on_c, 0, 80, 70
2, 703865, Note_off_c, 0, 78, 64
2, 704005, Control_c, 0, 64, 0
2, 704036, Note_on_c, 0, 61, 55
2, 704037, Note_on_c, 0, 54, 57
2, 704040, Note_on_c, 0, 70, 66
2, 704043, Note_on_c, 0, 64, 59
2, 704061, Control_c, 0, 64, 127
2, 704073, Note_off_c, 0, 80, 64
2, 704074, Note_off_c, 0, 64, 64
2, 704076, Note_off_c, 0, 61, 64
2, 704079, Note_off_c, 0, 54, 64
2, 704240, Control_c, 0, 64, 0
2, 704251, Note_on_c, 0, 69, 65
2, 704251, Note_on_c, 0, 65, 55
2, 704259, Note_off_c, 0, 70, 64
2, 704259, Note_on_c, 0, 62, 52
2, 704261, Note_on_c, 0, 53, 57
2, 704297, Control_c, 0, 64, 127
2, 704303, Note_off_c, 0, 62, 64
2, 704303, Note_off_c, 0, 65, 64
2, 704318, Note_off_c, 0, 53, 64
2, 704357, Note_off_c, 0, 69, 64
2, 704387, Note_on_c, 0, 70, 66
2, 704426, Control_c, 0, 64, 0
2, 704446, Note_on_c, 0, 72, 64
2, 704452, Note_on_c, 0, 41, 64
2, 704462, Note_off_c, 0, 70, 64
2, 704486, Control_c, 0, 64, 127
2, 704524, Note_off_c, 0, 41, 64
2, 704535, Note_on_c, 0, 74, 66
2, 704558, Note_off_c, 0, 72, 64
2, 704597, Control_c, 0, 64, 0
2, 704619, Note_on_c, 0, 75, 65
2, 704634, Control_c, 0, 64, 127
2, 704649, Note_off_c, 0, 74, 64
2, 704696, Note_on_c, 0, 77, 72
2, 704711, Note_off_c, 0, 75, 64
2, 704755, Control_c, 0, 64, 0
2, 704776, Control_c, 0, 64, 127
2, 704784, Note_on_c, 0, 79, 72
2, 704797, Note_off_c, 0, 77, 64
2, 704869, Note_on_c, 0, 81, 63
2, 704876, Control_c, 0, 64, 0
2, 704880, Note_off_c, 0, 79, 64
2, 704940, Control_c, 0, 64, 127
2, 704945, Note_on_c, 0, 82, 83
2, 704956, Note_off_c, 0, 81, 64
2, 705136, Note_on_c, 0, 67, 72
2, 705137, Control_c, 0, 64, 0
2, 705146, Note_on_c, 0, 52, 48
2, 705150, Note_on_c, 0, 60, 41
2, 705150, Note_on_c, 0, 58, 41
2, 705171, Note_off_c, 0, 82, 64
2, 705172, Control_c, 0, 64, 127
2, 705317, Note_on_c, 0, 53, 48
2, 705325, Note_off_c, 0, 52, 64
2, 705331, Note_on_c, 0, 65, 70
2, 705337, Control_c, 0, 64, 0
2, 705355, Note_off_c, 0, 67, 64
2, 705392, Control_c, 0, 64, 127
2, 705421, Note_on_c, 0, 79, 57
2, 705513, Note_on_c, 0, 77, 69
2, 705520, Note_on_c, 0, 57, 57
2, 705521, Control_c, 0, 64, 0
2, 705522, Note_off_c, 0, 79, 64
2, 705531, Note_off_c, 0, 58, 64
2, 705531, Note_off_c, 0, 60, 64
2, 705536, Note_off_c, 0, 65, 64
2, 705578, Control_c, 0, 64, 127
2, 705712, Note_on_c, 0, 63, 42
2, 705808, Note_off_c, 0, 53, 64
2, 705810, Note_off_c, 0, 57, 64
2, 705816, Note_on_c, 0, 76, 60
2, 705827, Note_off_c, 0, 77, 64
2, 705876, Note_off_c, 0, 63, 64
2, 705904, Note_on_c, 0, 75, 52
2, 705912, Note_on_c, 0, 46, 42
2, 705918, Note_off_c, 0, 76, 64
2, 705960, Control_c, 0, 64, 0
2, 706004, Control_c, 0, 64, 127
2, 706008, Note_on_c, 0, 74, 63
2, 706030, Note_off_c, 0, 75, 64
2, 706102, Note_on_c, 0, 72, 70
2, 706113, Note_on_c, 0, 62, 40
2, 706118, Note_on_c, 0, 58, 40
2, 706133, Note_on_c, 0, 53, 32
2, 706134, Note_off_c, 0, 74, 64
2, 706146, Note_off_c, 0, 46, 64
2, 706179, Note_on_c, 0, 70, 77
2, 706208, Note_off_c, 0, 72, 64
2, 706210, Note_off_c, 0, 62, 64
2, 706215, Note_off_c, 0, 58, 64
2, 706225, Note_off_c, 0, 53, 64
2, 706280, Note_on_c, 0, 69, 59
2, 706299, Note_off_c, 0, 70, 64
2, 706369, Note_on_c, 0, 67, 48
2, 706378, Note_off_c, 0, 69, 64
2, 706452, Note_on_c, 0, 41, 46
2, 706465, Note_on_c, 0, 65, 55
2, 706470, Control_c, 0, 64, 0
2, 706487, Note_off_c, 0, 67, 64
2, 706514, Control_c, 0, 64, 127
2, 706558, Note_on_c, 0, 75, 54
2, 706589, Note_off_c, 0, 65, 64
2, 706666, Note_on_c, 0, 64, 52
2, 706671, Note_on_c, 0, 74, 58
2, 706674, Note_on_c, 0, 55, 36
2, 706683, Control_c, 0, 64, 0
2, 706685, Note_off_c, 0, 75, 64
2, 706727, Control_c, 0, 64, 127
2, 706867, Note_off_c, 0, 41, 64
2, 706886, Note_on_c, 0, 63, 54
2, 706892, Note_on_c, 0, 57, 43
2, 706899, Control_c, 0, 64, 0
2, 706909, Note_off_c, 0, 55, 64
2, 706915, Note_off_c, 0, 64, 64
2, 706933, Control_c, 0, 64, 127
2, 706987, Note_on_c, 0, 72, 51
2, 706997, Note_off_c, 0, 74, 64
2, 707101, Note_on_c, 0, 58, 32
2, 707104, Note_on_c, 0, 70, 43
2, 707110, Note_on_c, 0, 46, 40
2, 707112, Control_c, 0, 64, 0
2, 707116, Note_off_c, 0, 72, 64
2, 707118, Note_on_c, 0, 62, 25
2, 707123, Note_off_c, 0, 63, 64
2, 707129, Note_off_c, 0, 57, 64
2, 707180, Control_c, 0, 64, 127
2, 707216, Note_on_c, 0, 55, 48
2, 707222, Note_off_c, 0, 58, 64
2, 707223, Note_off_c, 0, 46, 64
2, 707245, Note_off_c, 0, 70, 64
2, 707291, Note_off_c, 0, 62, 64
2, 707318, Note_on_c, 0, 53, 48
2, 707343, Note_off_c, 0, 55, 64
2, 707423, Note_on_c, 0, 51, 46
2, 707435, Note_off_c, 0, 53, 64
2, 707524, Note_on_c, 0, 50, 47
2, 707530, Note_on_c, 0, 53, 64
2, 707539, Control_c, 0, 64, 0
2, 707541, Note_off_c, 0, 51, 64
2, 707624, Control_c, 0, 64, 127
2, 707637, Note_on_c, 0, 48, 43
2, 707661, Note_off_c, 0, 50, 64
2, 707750, Note_on_c, 0, 58, 51
2, 707752, Note_on_c, 0, 62, 46
2, 707758, Note_on_c, 0, 46, 47
2, 707762, Control_c, 0, 64, 0
2, 707808, Note_off_c, 0, 48, 64
2, 707828, Control_c, 0, 64, 127
2, 707912, Note_on_c, 0, 43, 47
2, 707925, Note_off_c, 0, 46, 64
2, 707935, Control_c, 0, 64, 0
2, 707981, Note_on_c, 0, 41, 64
2, 708007, Note_off_c, 0, 43, 64
2, 708013, Control_c, 0, 64, 127
2, 708181, Note_on_c, 0, 63, 55
2, 708185, Note_on_c, 0, 46, 52
2, 708195, Note_off_c, 0, 62, 64
2, 708198, Control_c, 0, 64, 0
2, 708203, Note_off_c, 0, 41, 64
2, 708257, Control_c, 0, 64, 127
2, 708380, Note_on_c, 0, 65, 54
2, 708431, Note_off_c, 0, 65, 64
2, 708447, Note_off_c, 0, 63, 64
2, 708512, Note_on_c, 0, 63, 52
2, 708515, Note_on_c, 0, 57, 60
2, 708516, Note_off_c, 0, 58, 64
2, 708516, Note_on_c, 0, 65, 54
2, 708523, Note_on_c, 0, 47, 51
2, 708537, Note_off_c, 0, 46, 64
2, 708561, Note_off_c, 0, 63, 64
2, 708565, Note_off_c, 0, 65, 64
2, 708570, Note_on_c, 0, 48, 55
2, 708574, Note_on_c, 0, 55, 63
2, 708578, Note_on_c, 0, 65, 54
2, 708584, Note_on_c, 0, 63, 52
2, 708585, Note_off_c, 0, 47, 64
2, 708586, Note_off_c, 0, 57, 64
2, 708594, Control_c, 0, 64, 0
2, 708659, Control_c, 0, 64, 127
2, 708695, Note_off_c, 0, 48, 64
2, 708704, Note_off_c, 0, 65, 64
2, 708705, Note_off_c, 0, 63, 64
2, 708709, Note_off_c, 0, 55, 64
2, 708792, Note_on_c, 0, 65, 54
2, 708792, Note_on_c, 0, 63, 54
2, 708794, Control_c, 0, 64, 0
2, 708802, Note_on_c, 0, 57, 57
2, 708807, Note_on_c, 0, 41, 51
2, 708825, Control_c, 0, 64, 127
2, 708865, Control_c, 0, 64, 127
2, 708913, Note_off_c, 0, 63, 64
2, 708913, Note_off_c, 0, 65, 64
2, 708953, Note_off_c, 0, 57, 64
2, 708956, Note_off_c, 0, 41, 64
2, 709013, Note_on_c, 0, 58, 55
2, 709016, Note_on_c, 0, 62, 58
2, 709016, Note_on_c, 0, 46, 52
2, 709032, Control_c, 0, 64, 0
2, 709090, Control_c, 0, 64, 127
2, 709159, Note_on_c, 0, 43, 49
2, 709180, Note_off_c, 0, 46, 64
2, 709203, Control_c, 0, 64, 0
2, 709225, Note_on_c, 0, 41, 60
2, 709252, Control_c, 0, 64, 127
2, 709257, Note_off_c, 0, 43, 64
2, 709401, Note_off_c, 0, 53, 64
2, 709408, Note_off_c, 0, 58, 64
2, 709424, Note_on_c, 0, 58, 55
2, 709426, Note_on_c, 0, 67, 54
2, 709431, Note_off_c, 0, 62, 64
2, 709431, Note_on_c, 0, 40, 47
2, 709436, Control_c, 0, 64, 0
2, 709440, Note_off_c, 0, 41, 64
2, 709441, Note_on_c, 0, 48, 48
2, 709490, Control_c, 0, 64, 127
2, 709491, Note_off_c, 0, 67, 64
2, 709515, Note_off_c, 0, 58, 64
2, 709570, Note_off_c, 0, 40, 64
2, 709630, Note_on_c, 0, 58, 54
2, 709635, Note_on_c, 0, 41, 43
2, 709641, Note_on_c, 0, 60, 55
2, 709644, Control_c, 0, 64, 0
2, 709683, Control_c, 0, 64, 127
2, 709694, Note_off_c, 0, 58, 64
2, 709699, Note_off_c, 0, 60, 64
2, 709772, Note_on_c, 0, 60, 52
2, 709776, Note_off_c, 0, 41, 64
2, 709778, Note_on_c, 0, 57, 52
2, 709786, Note_on_c, 0, 36, 64
2, 709811, Note_off_c, 0, 60, 64
2, 709828, Note_on_c, 0, 60, 58
2, 709832, Note_on_c, 0, 55, 64
2, 709838, Note_off_c, 0, 57, 64
2, 709838, Control_c, 0, 64, 0
2, 709844, Note_on_c, 0, 41, 59
2, 709846, Note_off_c, 0, 36, 64
2, 709886, Control_c, 0, 64, 127
2, 709966, Note_off_c, 0, 60, 64
2, 710044, Note_on_c, 0, 36, 48
2, 710044, Control_c, 0, 64, 0
2, 710048, Note_on_c, 0, 57, 55
2, 710051, Note_on_c, 0, 60, 55
2, 710055, Note_off_c, 0, 48, 64
2, 710056, Note_off_c, 0, 41, 64
2, 710081, Note_off_c, 0, 55, 64
2, 710116, Control_c, 0, 64, 127
2, 710147, Note_off_c, 0, 57, 64
2, 710162, Note_off_c, 0, 60, 64
2, 710178, Note_off_c, 0, 36, 64
2, 710286, Control_c, 0, 64, 0
2, 710290, Note_on_c, 0, 60, 57
2, 710293, Note_on_c, 0, 56, 64
2, 710296, Note_on_c, 0, 41, 58
2, 710299, Note_on_c, 0, 48, 48
2, 710341, Control_c, 0, 64, 127
2, 710436, Note_on_c, 0, 37, 52
2, 710443, Note_off_c, 0, 41, 64
2, 710482, Control_c, 0, 64, 0
2, 710504, Note_on_c, 0, 36, 70
2, 710532, Control_c, 0, 64, 127
2, 710541, Note_off_c, 0, 37, 64
2, 710711, Note_on_c, 0, 62, 69
2, 710717, Note_on_c, 0, 41, 52
2, 710721, Note_off_c, 0, 36, 64
2, 710726, Note_off_c, 0, 60, 64
2, 710731, Control_c, 0, 64, 0
2, 710763, Control_c, 0, 64, 127
2, 710926, Note_off_c, 0, 41, 64
2, 710927, Note_on_c, 0, 63, 74
2, 710932, Control_c, 0, 64, 0
2, 710934, Note_off_c, 0, 62, 64
2, 710937, Note_on_c, 0, 55, 65
2, 710937, Note_on_c, 0, 36, 64
2, 710950, Note_off_c, 0, 56, 64
2, 710973, Control_c, 0, 64, 127
2, 711008, Note_off_c, 0, 48, 64
2, 711010, Note_off_c, 0, 63, 64
2, 711023, Note_off_c, 0, 55, 64
2, 711103, Note_on_c, 0, 63, 74
2, 711139, Note_off_c, 0, 63, 64
2, 711154, Note_on_c, 0, 58, 80
2, 711157, Note_on_c, 0, 63, 77
2, 711169, Note_on_c, 0, 55, 64
2, 711169, Note_on_c, 0, 48, 66
2, 711170, Control_c, 0, 64, 0
2, 711233, Note_off_c, 0, 36, 64
2, 711245, Control_c, 0, 64, 127
2, 711356, Note_off_c, 0, 48, 64
2, 711368, Note_off_c, 0, 55, 64
2, 711484, Note_on_c, 0, 62, 66
2, 711495, Note_off_c, 0, 63, 64
2, 711620, Note_on_c, 0, 60, 72
2, 711622, Note_on_c, 0, 41, 65
2, 711630, Note_on_c, 0, 51, 65
2, 711631, Note_off_c, 0, 62, 64
2, 711644, Control_c, 0, 64, 0
2, 711693, Control_c, 0, 64, 127
2, 711730, Note_off_c, 0, 58, 64
2, 711775, Note_on_c, 0, 59, 71
2, 711781, Note_off_c, 0, 60, 64
2, 711781, Note_on_c, 0, 50, 72
2, 711791, Note_off_c, 0, 51, 64
2, 711828, Note_on_c, 0, 60, 70
2, 711830, Control_c, 0, 64, 0
2, 711836, Note_on_c, 0, 51, 87
2, 711838, Note_off_c, 0, 59, 64
2, 711844, Note_off_c, 0, 50, 64
2, 711880, Control_c, 0, 64, 127
2, 712022, Note_on_c, 0, 56, 72
2, 712024, Note_on_c, 0, 62, 78
2, 712027, Note_on_c, 0, 47, 72
2, 712028, Note_off_c, 0, 60, 64
2, 712034, Note_off_c, 0, 51, 64
2, 712034, Control_c, 0, 64, 0
2, 712082, Control_c, 0, 64, 127
2, 712223, Control_c, 0, 64, 0
2, 712229, Note_on_c, 0, 48, 70
2, 712232, Note_on_c, 0, 55, 78
2, 712232, Note_on_c, 0, 63, 74
2, 712253, Note_off_c, 0, 56, 64
2, 712255, Note_off_c, 0, 62, 64
2, 712258, Note_off_c, 0, 47, 64
2, 712259, Control_c, 0, 64, 127
2, 712373, Note_on_c, 0, 64, 60
2, 712376, Note_on_c, 0, 46, 80
2, 712380, Note_on_c, 0, 54, 63
2, 712384, Note_off_c, 0, 48, 64
2, 712386, Note_off_c, 0, 41, 64
2, 712387, Note_off_c, 0, 63, 64
2, 712387, Note_off_c, 0, 55, 64
2, 712416, Control_c, 0, 64, 0
2, 712427, Note_on_c, 0, 65, 77
2, 712433, Note_on_c, 0, 53, 81
2, 712433, Note_on_c, 0, 45, 86
2, 712449, Note_off_c, 0, 64, 64
2, 712452, Note_off_c, 0, 46, 64
2, 712456, Note_off_c, 0, 54, 64
2, 712472, Control_c, 0, 64, 127
2, 712508, Note_off_c, 0, 53, 64
2, 712520, Note_off_c, 0, 65, 64
2, 712522, Note_off_c, 0, 45, 64
2, 712619, Note_on_c, 0, 41, 64
2, 712652, Note_on_c, 0, 73, 82
2, 712658, Note_on_c, 0, 63, 88
2, 712665, Note_on_c, 0, 57, 77
2, 712666, Control_c, 0, 64, 0
2, 712706, Control_c, 0, 64, 127
2, 712827, Note_off_c, 0, 41, 64
2, 712870, Note_on_c, 0, 58, 60
2, 712874, Note_on_c, 0, 62, 72
2, 712878, Note_off_c, 0, 57, 64
2, 712878, Note_on_c, 0, 74, 72
2, 712879, Note_off_c, 0, 73, 64
2, 712880, Note_on_c, 0, 70, 66
2, 712880, Control_c, 0, 64, 0
2, 712881, Note_off_c, 0, 63, 64
2, 712885, Note_on_c, 0, 53, 57
2, 712885, Note_on_c, 0, 46, 64
2, 712916, Control_c, 0, 64, 127
2, 712944, Note_off_c, 0, 53, 64
2, 712959, Note_off_c, 0, 46, 64
2, 712973, Note_off_c, 0, 58, 64
2, 713025, Note_on_c, 0, 43, 52
2, 713067, Control_c, 0, 64, 0
2, 713077, Note_on_c, 0, 41, 74
2, 713111, Note_off_c, 0, 43, 64
2, 713120, Control_c, 0, 64, 127
2, 713235, Note_off_c, 0, 70, 64
2, 713280, Note_on_c, 0, 75, 72
2, 713280, Note_on_c, 0, 70, 64
2, 713280, Note_on_c, 0, 63, 64
2, 713285, Note_off_c, 0, 74, 64
2, 713287, Note_on_c, 0, 46, 60
2, 713289, Note_off_c, 0, 62, 64
2, 713296, Note_on_c, 0, 53, 52
2, 713302, Control_c, 0, 64, 0
2, 713309, Note_off_c, 0, 41, 64
2, 713342, Control_c, 0, 64, 127
2, 713454, Note_off_c, 0, 75, 64
2, 713461, Note_off_c, 0, 63, 64
2, 713461, Note_off_c, 0, 70, 64
2, 713474, Note_on_c, 0, 65, 66
2, 713479, Note_on_c, 0, 77, 66
2, 713480, Note_on_c, 0, 70, 64
2, 713483, Note_on_c, 0, 75, 66
2, 713507, Note_off_c, 0, 70, 64
2, 713520, Note_off_c, 0, 75, 64
2, 713520, Note_off_c, 0, 65, 64
2, 713529, Note_off_c, 0, 77, 64
2, 713600, Note_on_c, 0, 65, 66
2, 713604, Note_on_c, 0, 77, 65
2, 713604, Note_on_c, 0, 69, 72
2, 713608, Note_on_c, 0, 47, 66
2, 713613, Note_on_c, 0, 75, 60
2, 713617, Note_off_c, 0, 46, 64
2, 713626, Note_off_c, 0, 69, 64
2, 713631, Note_off_c, 0, 65, 64
2, 713638, Note_off_c, 0, 75, 64
2, 713641, Note_off_c, 0, 77, 64
2, 713656, Control_c, 0, 64, 0
2, 713664, Note_on_c, 0, 77, 60
2, 713664, Note_on_c, 0, 75, 60
2, 713664, Note_on_c, 0, 65, 55
2, 713664, Note_on_c, 0, 48, 74
2, 713669, Note_on_c, 0, 67, 71
2, 713673, Note_off_c, 0, 47, 64
2, 713680, Control_c, 0, 64, 0
2, 713718, Control_c, 0, 64, 127
2, 713778, Note_off_c, 0, 67, 64
2, 713780, Note_on_c, 0, 50, 64
2, 713795, Note_off_c, 0, 48, 64
2, 713808, Note_off_c, 0, 75, 64
2, 713808, Note_off_c, 0, 77, 64
2, 713816, Note_off_c, 0, 65, 64
2, 713864, Note_on_c, 0, 77, 77
2, 713864, Note_on_c, 0, 75, 77
2, 713871, Control_c, 0, 64, 127
2, 713873, Note_on_c, 0, 65, 65
2, 713879, Note_on_c, 0, 69, 74
2, 713879, Note_on_c, 0, 48, 66
2, 713882, Note_off_c, 0, 50, 64
2, 713889, Control_c, 0, 64, 0
2, 713919, Control_c, 0, 64, 127
2, 713936, Note_off_c, 0, 75, 64
2, 713936, Note_off_c, 0, 77, 64
2, 713965, Note_off_c, 0, 69, 64
2, 713983, Note_off_c, 0, 65, 64
2, 713990, Note_off_c, 0, 53, 64
2, 714054, Note_off_c, 0, 48, 64
2, 714081, Note_on_c, 0, 70, 66
2, 714082, Note_on_c, 0, 62, 65
2, 714082, Note_on_c, 0, 74, 70
2, 714089, Note_on_c, 0, 46, 60
2, 714094, Note_on_c, 0, 53, 57
2, 714098, Control_c, 0, 64, 0
2, 714147, Control_c, 0, 64, 127
2, 714222, Note_on_c, 0, 43, 47
2, 714227, Note_off_c, 0, 46, 64
2, 714263, Note_on_c, 0, 41, 70
2, 714271, Control_c, 0, 64, 0
2, 714276, Note_off_c, 0, 43, 64
2, 714301, Control_c, 0, 64, 127
2, 714458, Note_off_c, 0, 70, 64
2, 714472, Note_on_c, 0, 70, 66
2, 714475, Note_on_c, 0, 79, 69
2, 714475, Note_on_c, 0, 67, 66
2, 714475, Note_on_c, 0, 40, 64
2, 714480, Note_on_c, 0, 72, 66
2, 714482, Note_on_c, 0, 48, 65
2, 714483, Note_off_c, 0, 74, 64
2, 714488, Control_c, 0, 64, 0
2, 714489, Note_off_c, 0, 41, 64
2, 714496, Note_off_c, 0, 53, 64
2, 714505, Note_off_c, 0, 62, 64
2, 714520, Control_c, 0, 64, 127
2, 714531, Note_off_c, 0, 70, 64
2, 714539, Note_off_c, 0, 72, 64
2, 714541, Note_off_c, 0, 79, 64
2, 714547, Note_off_c, 0, 67, 64
2, 714563, Note_off_c, 0, 48, 64
2, 714579, Note_off_c, 0, 40, 64
2, 714664, Note_on_c, 0, 72, 72
2, 714671, Note_on_c, 0, 70, 63
2, 714678, Note_on_c, 0, 65, 64
2, 714678, Note_on_c, 0, 48, 60
2, 714678, Note_on_c, 0, 41, 63
2, 714680, Control_c, 0, 64, 0
2, 714685, Note_on_c, 0, 60, 72
2, 714708, Note_off_c, 0, 72, 64
2, 714708, Control_c, 0, 64, 127
2, 714726, Note_off_c, 0, 65, 64
2, 714730, Note_off_c, 0, 60, 64
2, 714733, Note_off_c, 0, 41, 64
2, 714737, Note_off_c, 0, 48, 64
2, 714737, Note_off_c, 0, 70, 64
2, 714808, Note_on_c, 0, 69, 66
2, 714815, Note_on_c, 0, 65, 65
2, 714816, Note_on_c, 0, 72, 59
2, 714816, Note_on_c, 0, 60, 60
2, 714824, Note_on_c, 0, 36, 72
2, 714829, Note_on_c, 0, 48, 41
2, 714844, Note_off_c, 0, 65, 64
2, 714844, Note_off_c, 0, 69, 64
2, 714845, Note_off_c, 0, 72, 64
2, 714849, Note_off_c, 0, 60, 64
2, 714867, Control_c, 0, 64, 0
2, 714872, Note_on_c, 0, 67, 77
2, 714872, Note_on_c, 0, 65, 77
2, 714876, Note_on_c, 0, 72, 69
2, 714877, Note_off_c, 0, 48, 64
2, 714878, Control_c, 0, 64, 127
2, 714880, Note_off_c, 0, 36, 64
2, 714880, Note_on_c, 0, 60, 60
2, 714880, Note_on_c, 0, 41, 72
2, 714886, Control_c, 0, 64, 127
2, 714888, Note_on_c, 0, 48, 72
2, 714926, Control_c, 0, 64, 127
2, 714982, Note_off_c, 0, 65, 64
2, 714982, Note_off_c, 0, 67, 64
2, 715015, Note_off_c, 0, 72, 64
2, 715025, Note_off_c, 0, 60, 64
2, 715027, Note_off_c, 0, 41, 64
2, 715035, Note_off_c, 0, 48, 64
2, 715100, Note_on_c, 0, 60, 64
2, 715102, Note_on_c, 0, 72, 66
2, 715106, Note_on_c, 0, 69, 65
2, 715107, Note_on_c, 0, 36, 72
2, 715107, Note_on_c, 0, 65, 64
2, 715113, Note_on_c, 0, 48, 52
2, 715113, Control_c, 0, 64, 0
2, 715153, Control_c, 0, 64, 127
2, 715201, Note_off_c, 0, 36, 64
2, 715205, Note_off_c, 0, 48, 64
2, 715213, Note_off_c, 0, 65, 64
2, 715221, Note_off_c, 0, 72, 64
2, 715228, Note_off_c, 0, 69, 64
2, 715235, Note_off_c, 0, 60, 64
2, 715344, Note_on_c, 0, 68, 74
2, 715349, Note_on_c, 0, 72, 72
2, 715352, Note_on_c, 0, 65, 64
2, 715354, Note_on_c, 0, 60, 66
2, 715358, Note_on_c, 0, 41, 65
2, 715361, Note_on_c, 0, 48, 54
2, 715372, Control_c, 0, 64, 0
2, 715420, Control_c, 0, 64, 127
2, 715493, Note_on_c, 0, 37, 63
2, 715509, Note_off_c, 0, 41, 64
2, 715534, Control_c, 0, 64, 0
2, 715561, Note_on_c, 0, 36, 77
2, 715584, Control_c, 0, 64, 127
2, 715608, Note_off_c, 0, 37, 64
2, 715716, Note_off_c, 0, 48, 64
2, 715732, Note_off_c, 0, 68, 64
2, 715764, Note_on_c, 0, 68, 69
2, 715765, Note_off_c, 0, 36, 64
2, 715770, Note_on_c, 0, 74, 65
2, 715770, Note_on_c, 0, 62, 60
2, 715770, Note_on_c, 0, 48, 55
2, 715770, Note_on_c, 0, 41, 64
2, 715783, Control_c, 0, 64, 0
2, 715785, Note_off_c, 0, 60, 64
2, 715785, Note_off_c, 0, 65, 64
2, 715786, Note_off_c, 0, 72, 64
2, 715820, Control_c, 0, 64, 127
2, 715946, Note_off_c, 0, 41, 64
2, 715960, Note_on_c, 0, 67, 65
2, 715960, Note_on_c, 0, 63, 72
2, 715960, Note_on_c, 0, 36, 64
2, 715963, Note_on_c, 0, 75, 71
2, 715963, Control_c, 0, 64, 0
2, 715967, Note_off_c, 0, 68, 64
2, 715973, Note_off_c, 0, 62, 64
2, 715973, Note_off_c, 0, 74, 64
2, 716011, Control_c, 0, 64, 127
2, 716026, Note_off_c, 0, 48, 64
2, 716035, Note_off_c, 0, 36, 64
2, 716035, Note_off_c, 0, 63, 64
2, 716035, Note_off_c, 0, 67, 64
2, 716038, Note_off_c, 0, 75, 64
2, 716128, Note_on_c, 0, 48, 72
2, 716132, Note_on_c, 0, 60, 72
2, 716132, Note_on_c, 0, 63, 72
2, 716132, Note_on_c, 0, 75, 72
2, 716132, Note_on_c, 0, 55, 46
2, 716160, Note_off_c, 0, 55, 64
2, 716162, Note_off_c, 0, 75, 64
2, 716162, Note_off_c, 0, 60, 64
2, 716163, Note_off_c, 0, 48, 64
2, 716167, Note_off_c, 0, 63, 64
2, 716192, Note_on_c, 0, 75, 81
2, 716192, Note_on_c, 0, 70, 70
2, 716192, Note_on_c, 0, 63, 63
2, 716196, Note_on_c, 0, 60, 48
2, 716196, Note_on_c, 0, 55, 46
2, 716199, Note_on_c, 0, 48, 54
2, 716205, Control_c, 0, 64, 0
2, 716281, Control_c, 0, 64, 127
2, 716338, Note_off_c, 0, 55, 64
2, 716356, Note_off_c, 0, 60, 64
2, 716372, Note_off_c, 0, 48, 64
2, 716382, Note_off_c, 0, 70, 64
2, 716391, Note_off_c, 0, 63, 64
2, 716464, Note_on_c, 0, 74, 59
2, 716474, Note_off_c, 0, 75, 64
2, 716546, Note_on_c, 0, 63, 58
2, 716547, Note_on_c, 0, 72, 48
2, 716553, Note_off_c, 0, 74, 64
2, 716566, Note_off_c, 0, 63, 64
2, 716566, Note_on_c, 0, 74, 63
2, 716573, Note_off_c, 0, 72, 64
2, 716586, Control_c, 0, 64, 0
2, 716596, Note_on_c, 0, 63, 69
2, 716599, Note_on_c, 0, 57, 51
2, 716599, Note_on_c, 0, 41, 31
2, 716601, Note_on_c, 0, 72, 74
2, 716605, Note_on_c, 0, 48, 48
2, 716619, Note_off_c, 0, 74, 64
2, 716628, Note_off_c, 0, 41, 64
2, 716637, Note_off_c, 0, 48, 64
2, 716642, Note_off_c, 0, 63, 64
2, 716651, Control_c, 0, 64, 127
2, 716656, Note_off_c, 0, 72, 64
2, 716658, Note_off_c, 0, 57, 64
2, 716742, Note_on_c, 0, 63, 64
2, 716747, Note_on_c, 0, 71, 64
2, 716755, Note_on_c, 0, 57, 72
2, 716755, Note_on_c, 0, 53, 64
2, 716776, Note_off_c, 0, 63, 64
2, 716782, Control_c, 0, 64, 0
2, 716792, Note_off_c, 0, 57, 64
2, 716794, Note_off_c, 0, 53, 64
2, 716795, Note_on_c, 0, 72, 72
2, 716799, Note_on_c, 0, 63, 72
2, 716806, Note_on_c, 0, 53, 65
2, 716809, Note_off_c, 0, 71, 64
2, 716811, Note_on_c, 0, 57, 63
2, 716841, Control_c, 0, 64, 127
2, 716992, Control_c, 0, 64, 0
2, 716997, Note_off_c, 0, 53, 64
2, 717000, Note_off_c, 0, 57, 64
2, 717004, Note_off_c, 0, 63, 64
2, 717004, Note_on_c, 0, 53, 52
2, 717004, Note_on_c, 0, 63, 37
2, 717008, Note_on_c, 0, 57, 47
2, 717008, Note_on_c, 0, 74, 70
2, 717020, Note_off_c, 0, 72, 64
2, 717056, Control_c, 0, 64, 127
2, 717190, Note_off_c, 0, 57, 64
2, 717195, Note_on_c, 0, 46, 37
2, 717204, Note_off_c, 0, 53, 64
2, 717216, Note_on_c, 0, 58, 46
2, 717217, Note_on_c, 0, 62, 52
2, 717217, Note_on_c, 0, 53, 36
2, 717220, Note_off_c, 0, 63, 64
2, 717220, Note_on_c, 0, 70, 69
2, 717226, Control_c, 0, 64, 0
2, 717236, Note_off_c, 0, 74, 64
2, 717280, Control_c, 0, 64, 127
2, 717301, Note_off_c, 0, 70, 64
2, 717313, Note_off_c, 0, 58, 64
2, 717318, Note_off_c, 0, 62, 64
2, 717338, Note_off_c, 0, 53, 64
2, 717393, Note_off_c, 0, 46, 64
2, 717439, Note_on_c, 0, 59, 57
2, 717478, Control_c, 0, 64, 0
2, 717534, Note_on_c, 0, 58, 40
2, 717538, Control_c, 0, 64, 127
2, 717548, Note_off_c, 0, 59, 64
2, 717597, Control_c, 0, 64, 0
2, 717619, Note_on_c, 0, 56, 52
2, 717644, Note_off_c, 0, 58, 64
2, 717656, Control_c, 0, 64, 127
2, 717705, Note_on_c, 0, 58, 52
2, 717725, Note_off_c, 0, 56, 64
2, 717830, Note_on_c, 0, 59, 63
2, 717836, Note_off_c, 0, 58, 64
2, 717888, Note_on_c, 0, 63, 43
2, 717920, Note_off_c, 0, 59, 64
2, 717931, Note_on_c, 0, 71, 37
2, 717944, Note_on_c, 0, 44, 47
2, 717951, Note_off_c, 0, 63, 64
2, 717976, Control_c, 0, 64, 0
2, 717984, Note_on_c, 0, 51, 55
2, 717989, Note_on_c, 0, 70, 72
2, 718003, Note_off_c, 0, 71, 64
2, 718005, Note_on_c, 0, 59, 49
2, 718010, Note_off_c, 0, 44, 64
2, 718043, Note_off_c, 0, 51, 64
2, 718056, Note_off_c, 0, 59, 64
2, 718064, Control_c, 0, 64, 127
2, 718172, Note_on_c, 0, 44, 51
2, 718193, Control_c, 0, 64, 0
2, 718200, Note_on_c, 0, 68, 72
2, 718200, Note_on_c, 0, 59, 46
2, 718200, Note_on_c, 0, 51, 42
2, 718205, Note_off_c, 0, 70, 64
2, 718275, Control_c, 0, 64, 127
2, 718336, Note_off_c, 0, 44, 64
2, 718376, Note_off_c, 0, 51, 64
2, 718380, Note_on_c, 0, 75, 71
2, 718389, Note_off_c, 0, 59, 64
2, 718411, Note_off_c, 0, 68, 64
2, 718496, Note_on_c, 0, 44, 48
2, 718540, Note_on_c, 0, 51, 35
2, 718570, Note_on_c, 0, 73, 71
2, 718570, Note_on_c, 0, 59, 48
2, 718579, Control_c, 0, 64, 0
2, 718585, Note_off_c, 0, 44, 64
2, 718586, Note_off_c, 0, 75, 64
2, 718596, Note_off_c, 0, 51, 64
2, 718630, Control_c, 0, 64, 127
2, 718641, Note_off_c, 0, 59, 64
2, 718722, Note_on_c, 0, 44, 51
2, 718761, Note_on_c, 0, 53, 48
2, 718772, Control_c, 0, 64, 0
2, 718785, Note_on_c, 0, 59, 48
2, 718830, Control_c, 0, 64, 127
2, 718876, Note_on_c, 0, 71, 66
2, 718887, Note_off_c, 0, 53, 64
2, 718895, Note_off_c, 0, 73, 64
2, 718896, Note_off_c, 0, 59, 64
2, 718903, Note_off_c, 0, 44, 64
2, 718958, Note_on_c, 0, 70, 72
2, 718964, Note_off_c, 0, 71, 64
2, 719033, Note_on_c, 0, 68, 78
2, 719044, Note_off_c, 0, 70, 64
2, 719072, Note_on_c, 0, 39, 55
2, 719110, Note_on_c, 0, 46, 43
2, 719118, Control_c, 0, 64, 0
2, 719129, Note_on_c, 0, 70, 74
2, 719133, Note_on_c, 0, 54, 64
2, 719138, Note_off_c, 0, 68, 64
2, 719141, Note_off_c, 0, 39, 64
2, 719158, Note_off_c, 0, 46, 64
2, 719174, Control_c, 0, 64, 127
2, 719177, Note_off_c, 0, 54, 64
2, 719312, Control_c, 0, 64, 0
2, 719321, Note_on_c, 0, 66, 64
2, 719326, Note_on_c, 0, 54, 52
2, 719326, Note_on_c, 0, 39, 47
2, 719329, Note_off_c, 0, 70, 64
2, 719334, Note_on_c, 0, 46, 41
2, 719396, Control_c, 0, 64, 127
2, 719499, Note_off_c, 0, 46, 64
2, 719502, Note_off_c, 0, 39, 64
2, 719506, Note_on_c, 0, 63, 64
2, 719514, Note_off_c, 0, 66, 64
2, 719517, Note_off_c, 0, 54, 64
2, 719639, Note_on_c, 0, 39, 51
2, 719667, Note_on_c, 0, 46, 40
2, 719686, Control_c, 0, 64, 0
2, 719694, Note_on_c, 0, 54, 52
2, 719712, Note_off_c, 0, 39, 64
2, 719721, Note_off_c, 0, 46, 64
2, 719738, Control_c, 0, 64, 127
2, 719744, Note_off_c, 0, 54, 64
2, 719855, Note_on_c, 0, 39, 40
2, 719879, Note_on_c, 0, 48, 54
2, 719898, Control_c, 0, 64, 0
2, 719911, Note_on_c, 0, 54, 54
2, 719949, Control_c, 0, 64, 127
2, 719972, Note_off_c, 0, 63, 64
2, 720059, Note_off_c, 0, 39, 64
2, 720061, Note_off_c, 0, 48, 64
2, 720070, Control_c, 0, 64, 0
2, 720078, Note_on_c, 0, 61, 71
2, 720082, Note_off_c, 0, 54, 64
2, 720131, Control_c, 0, 64, 127
2, 720163, Note_off_c, 0, 61, 64
2, 720201, Note_on_c, 0, 41, 49
2, 720212, Note_on_c, 0, 60, 65
2, 720225, Note_on_c, 0, 49, 48
2, 720241, Control_c, 0, 64, 0
2, 720254, Note_on_c, 0, 58, 72
2, 720254, Note_on_c, 0, 53, 48
2, 720265, Note_off_c, 0, 41, 64
2, 720278, Note_off_c, 0, 60, 64
2, 720279, Note_off_c, 0, 49, 64
2, 720297, Note_off_c, 0, 53, 64
2, 720304, Control_c, 0, 64, 127
2, 720400, Note_on_c, 0, 41, 35
2, 720416, Note_on_c, 0, 49, 43
2, 720436, Note_on_c, 0, 53, 51
2, 720442, Control_c, 0, 64, 0
2, 720448, Note_on_c, 0, 65, 64
2, 720472, Note_off_c, 0, 58, 64
2, 720500, Control_c, 0, 64, 127
2, 720504, Note_off_c, 0, 41, 64
2, 720508, Note_off_c, 0, 49, 64
2, 720531, Note_off_c, 0, 53, 64
2, 720589, Note_off_c, 0, 65, 64
2, 720638, Note_on_c, 0, 53, 72
2, 720752, Note_on_c, 0, 41, 48
2, 720792, Note_on_c, 0, 51, 54
2, 720797, Control_c, 0, 64, 0
2, 720810, Note_off_c, 0, 41, 64
2, 720813, Note_on_c, 0, 57, 55
2, 720854, Note_off_c, 0, 51, 64
2, 720864, Note_off_c, 0, 57, 64
2, 720870, Control_c, 0, 64, 127
2, 721001, Note_on_c, 0, 41, 40
2, 721006, Note_on_c, 0, 51, 51
2, 721011, Note_on_c, 0, 57, 40
2, 721013, Control_c, 0, 64, 0
2, 721052, Control_c, 0, 64, 127
2, 721078, Note_off_c, 0, 53, 64
2, 721102, Note_off_c, 0, 57, 64
2, 721119, Note_off_c, 0, 41, 64
2, 721129, Note_off_c, 0, 51, 64
2, 721193, Note_on_c, 0, 58, 70
2, 721332, Note_on_c, 0, 46, 42
2, 721360, Control_c, 0, 64, 0
2, 721364, Note_on_c, 0, 53, 51
2, 721391, Note_on_c, 0, 61, 54
2, 721402, Control_c, 0, 64, 127
2, 721445, Note_off_c, 0, 46, 64
2, 721478, Note_off_c, 0, 61, 64
2, 721488, Note_off_c, 0, 53, 64
2, 721567, Note_on_c, 0, 46, 31
2, 721582, Note_on_c, 0, 61, 40
2, 721582, Control_c, 0, 64, 0
2, 721587, Note_on_c, 0, 53, 31
2, 721605, Control_c, 0, 64, 127
2, 721754, Note_on_c, 0, 65, 65
2, 721763, Control_c, 0, 64, 0
2, 721785, Note_off_c, 0, 53, 64
2, 721785, Note_off_c, 0, 61, 64
2, 721787, Note_off_c, 0, 58, 64
2, 721792, Note_off_c, 0, 46, 64
2, 721795, Control_c, 0, 64, 127
2, 721854, Note_on_c, 0, 68, 43
2, 721870, Note_off_c, 0, 65, 64
2, 721880, Note_on_c, 0, 66, 64
2, 721884, Note_on_c, 0, 46, 40
2, 721906, Note_on_c, 0, 53, 43
2, 721913, Note_off_c, 0, 68, 64
2, 721917, Control_c, 0, 64, 0
2, 721929, Note_on_c, 0, 61, 55
2, 721934, Note_on_c, 0, 65, 77
2, 721943, Note_off_c, 0, 66, 64
2, 721950, Note_off_c, 0, 46, 64
2, 721957, Note_off_c, 0, 53, 64
2, 721966, Note_off_c, 0, 61, 64
2, 721973, Control_c, 0, 64, 127
2, 722117, Note_on_c, 0, 70, 63
2, 722120, Control_c, 0, 64, 0
2, 722132, Note_on_c, 0, 61, 54
2, 722132, Note_on_c, 0, 46, 40
2, 722146, Note_on_c, 0, 53, 25
2, 722165, Control_c, 0, 64, 127
2, 722199, Note_off_c, 0, 65, 64
2, 722215, Note_on_c, 0, 72, 70
2, 722241, Note_off_c, 0, 70, 64
2, 722315, Note_on_c, 0, 73, 80
2, 722329, Note_off_c, 0, 46, 64
2, 722330, Note_off_c, 0, 61, 64
2, 722331, Note_off_c, 0, 72, 64
2, 722335, Note_off_c, 0, 53, 64
2, 722404, Note_on_c, 0, 75, 47
2, 722418, Note_off_c, 0, 73, 64
2, 722437, Note_on_c, 0, 46, 55
2, 722447, Note_on_c, 0, 73, 55
2, 722460, Note_off_c, 0, 75, 64
2, 722462, Note_on_c, 0, 53, 41
2, 722467, Control_c, 0, 64, 0
2, 722476, Note_on_c, 0, 61, 60
2, 722482, Note_on_c, 0, 72, 65
2, 722497, Note_off_c, 0, 73, 64
2, 722522, Note_off_c, 0, 46, 64
2, 722524, Note_off_c, 0, 53, 64
2, 722527, Note_off_c, 0, 61, 64
2, 722532, Control_c, 0, 64, 127
2, 722663, Note_on_c, 0, 70, 64
2, 722670, Control_c, 0, 64, 0
2, 722683, Note_on_c, 0, 46, 55
2, 722686, Note_on_c, 0, 61, 60
2, 722693, Note_off_c, 0, 72, 64
2, 722693, Note_on_c, 0, 53, 48
2, 722718, Control_c, 0, 64, 127
2, 722738, Note_off_c, 0, 70, 64
2, 722807, Note_on_c, 0, 70, 78
2, 722857, Note_on_c, 0, 77, 72
2, 722876, Note_off_c, 0, 53, 64
2, 722879, Note_off_c, 0, 46, 64
2, 722882, Note_off_c, 0, 70, 64
2, 722882, Note_off_c, 0, 61, 64
2, 722911, Note_off_c, 0, 77, 64
2, 722982, Note_on_c, 0, 77, 58
2, 723001, Note_on_c, 0, 46, 60
2, 723017, Note_on_c, 0, 75, 64
2, 723024, Control_c, 0, 64, 0
2, 723038, Note_off_c, 0, 77, 64
2, 723040, Note_on_c, 0, 53, 48
2, 723047, Note_on_c, 0, 61, 60
2, 723069, Note_off_c, 0, 46, 64
2, 723069, Control_c, 0, 64, 127
2, 723076, Note_off_c, 0, 53, 64
2, 723092, Note_off_c, 0, 61, 64
2, 723190, Note_on_c, 0, 46, 55
2, 723199, Note_on_c, 0, 55, 58
2, 723212, Control_c, 0, 64, 0
2, 723222, Note_on_c, 0, 73, 70
2, 723227, Note_on_c, 0, 61, 64
2, 723242, Note_off_c, 0, 75, 64
2, 723275, Control_c, 0, 64, 127
2, 723349, Note_off_c, 0, 55, 64
2, 723356, Note_off_c, 0, 46, 64
2, 723379, Note_off_c, 0, 61, 64
2, 723396, Note_on_c, 0, 72, 65
2, 723414, Note_off_c, 0, 73, 64
2, 723469, Note_on_c, 0, 70, 77
2, 723485, Note_off_c, 0, 72, 64
2, 723537, Note_on_c, 0, 48, 54
2, 723546, Note_on_c, 0, 56, 49
2, 723547, Control_c, 0, 64, 0
2, 723554, Note_on_c, 0, 72, 69
2, 723555, Note_on_c, 0, 60, 57
2, 723564, Note_off_c, 0, 70, 64
2, 723599, Note_off_c, 0, 48, 64
2, 723601, Note_off_c, 0, 56, 64
2, 723607, Note_off_c, 0, 60, 64
2, 723615, Control_c, 0, 64, 127
2, 723743, Control_c, 0, 64, 0
2, 723749, Note_on_c, 0, 56, 63
2, 723749, Note_on_c, 0, 68, 63
2, 723754, Note_on_c, 0, 60, 55
2, 723761, Note_on_c, 0, 48, 55
2, 723773, Note_off_c, 0, 72, 64
2, 723818, Control_c, 0, 64, 127
2, 723926, Control_c, 0, 64, 0
2, 723940, Note_off_c, 0, 48, 64
2, 723940, Note_on_c, 0, 65, 74
2, 723953, Note_off_c, 0, 68, 64
2, 723956, Note_off_c, 0, 56, 64
2, 723956, Note_off_c, 0, 60, 64
2, 723973, Control_c, 0, 64, 127
2, 724069, Note_on_c, 0, 49, 28
2, 724097, Note_on_c, 0, 56, 34
2, 724112, Note_on_c, 0, 59, 55
2, 724116, Control_c, 0, 64, 0
2, 724166, Control_c, 0, 64, 127
2, 724168, Note_off_c, 0, 56, 64
2, 724172, Note_off_c, 0, 49, 64
2, 724201, Note_off_c, 0, 59, 64
2, 724305, Control_c, 0, 64, 0
2, 724313, Note_on_c, 0, 59, 51
2, 724318, Note_on_c, 0, 49, 40
2, 724320, Note_on_c, 0, 56, 25
2, 724366, Control_c, 0, 64, 127
2, 724477, Note_off_c, 0, 49, 64
2, 724482, Note_off_c, 0, 56, 64
2, 724483, Note_on_c, 0, 68, 64
2, 724498, Note_off_c, 0, 59, 64
2, 724552, Note_off_c, 0, 65, 64
2, 724613, Note_on_c, 0, 48, 43
2, 724618, Note_on_c, 0, 67, 63
2, 724633, Note_on_c, 0, 56, 48
2, 724652, Control_c, 0, 64, 0
2, 724657, Note_off_c, 0, 68, 64
2, 724659, Note_on_c, 0, 65, 72
2, 724672, Note_on_c, 0, 60, 48
2, 724677, Note_off_c, 0, 67, 64
2, 724680, Note_off_c, 0, 48, 64
2, 724690, Note_off_c, 0, 56, 64
2, 724706, Control_c, 0, 64, 127
2, 724714, Note_off_c, 0, 60, 64
2, 724834, Note_on_c, 0, 48, 25
2, 724839, Note_on_c, 0, 56, 35
2, 724849, Control_c, 0, 64, 0
2, 724855, Note_on_c, 0, 72, 72
2, 724856, Note_off_c, 0, 65, 64
2, 724858, Note_on_c, 0, 60, 49
2, 724909, Control_c, 0, 64, 127
2, 724938, Note_off_c, 0, 60, 64
2, 724944, Note_off_c, 0, 56, 64
2, 724960, Note_off_c, 0, 48, 64
2, 725038, Note_on_c, 0, 60, 57
2, 725061, Note_off_c, 0, 72, 64
2, 725164, Note_on_c, 0, 48, 36
2, 725207, Note_on_c, 0, 58, 41
2, 725210, Control_c, 0, 64, 0
2, 725230, Note_off_c, 0, 48, 64
2, 725238, Note_on_c, 0, 64, 42
2, 725268, Note_off_c, 0, 58, 64
2, 725272, Control_c, 0, 64, 127
2, 725285, Note_off_c, 0, 64, 64
2, 725409, Note_on_c, 0, 58, 31
2, 725413, Note_on_c, 0, 64, 28
2, 725413, Control_c, 0, 64, 0
2, 725416, Note_on_c, 0, 48, 13
2, 725455, Control_c, 0, 64, 127
2, 725573, Note_off_c, 0, 60, 64
2, 725583, Control_c, 0, 64, 0
2, 725589, Note_off_c, 0, 64, 64
2, 725590, Note_on_c, 0, 68, 60
2, 725596, Note_off_c, 0, 58, 64
2, 725618, Note_off_c, 0, 48, 64
2, 725620, Control_c, 0, 64, 127
2, 725700, Note_on_c, 0, 67, 66
2, 725712, Note_off_c, 0, 68, 64
2, 725726, Note_on_c, 0, 48, 42
2, 725737, Note_on_c, 0, 56, 47
2, 725761, Note_on_c, 0, 60, 36
2, 725765, Note_on_c, 0, 65, 63
2, 725776, Control_c, 0, 64, 0
2, 725785, Note_off_c, 0, 67, 64
2, 725801, Note_off_c, 0, 56, 64
2, 725803, Note_off_c, 0, 48, 64
2, 725808, Control_c, 0, 64, 127
2, 725815, Note_off_c, 0, 60, 64
2, 725863, Note_on_c, 0, 72, 72
2, 725893, Note_off_c, 0, 65, 64
2, 725935, Control_c, 0, 64, 0
2, 725939, Note_on_c, 0, 56, 40
2, 725950, Note_on_c, 0, 75, 66
2, 725950, Note_on_c, 0, 60, 40
2, 725961, Note_on_c, 0, 48, 25
2, 725966, Note_off_c, 0, 72, 64
2, 725982, Control_c, 0, 64, 127
2, 726030, Note_on_c, 0, 73, 70
2, 726047, Note_off_c, 0, 75, 64
2, 726079, Note_off_c, 0, 48, 64
2, 726079, Note_off_c, 0, 56, 64
2, 726084, Note_off_c, 0, 60, 64
2, 726109, Control_c, 0, 64, 0
2, 726119, Note_on_c, 0, 60, 78
2, 726139, Note_off_c, 0, 73, 64
2, 726141, Control_c, 0, 64, 127
2, 726241, Note_on_c, 0, 48, 36
2, 726282, Note_on_c, 0, 55, 41
2, 726300, Control_c, 0, 64, 0
2, 726306, Note_on_c, 0, 64, 40
2, 726309, Note_off_c, 0, 48, 64
2, 726344, Note_off_c, 0, 55, 64
2, 726352, Control_c, 0, 64, 127
2, 726358, Note_off_c, 0, 64, 64
2, 726502, Note_on_c, 0, 48, 25
2, 726518, Note_on_c, 0, 55, 37
2, 726539, Control_c, 0, 64, 0
2, 726544, Note_on_c, 0, 64, 36
2, 726578, Control_c, 0, 64, 127
2, 726623, Note_off_c, 0, 55, 64
2, 726639, Note_off_c, 0, 64, 64
2, 726753, Note_off_c, 0, 48, 64
2, 726774, Note_on_c, 0, 65, 72
2, 726783, Note_off_c, 0, 60, 64
2, 726984, Note_on_c, 0, 48, 48
2, 726987, Note_on_c, 0, 57, 57
2, 726994, Control_c, 0, 64, 0
2, 727071, Control_c, 0, 64, 127
2, 727223, Note_on_c, 0, 41, 59
2, 727238, Control_c, 0, 64, 0
2, 727249, Control_c, 0, 64, 127
2, 727279, Note_off_c, 0, 57, 64
2, 727356, Note_off_c, 0, 48, 64
2, 727390, Note_off_c, 0, 41, 64
2, 727409, Note_on_c, 0, 78, 52
2, 727468, Note_off_c, 0, 65, 64
2, 727494, Note_on_c, 0, 77, 48
2, 727510, Note_off_c, 0, 78, 64
2, 727572, Control_c, 0, 64, 0
2, 727578, Note_on_c, 0, 63, 49
2, 727582, Note_on_c, 0, 53, 25
2, 727586, Note_on_c, 0, 75, 55
2, 727591, Note_on_c, 0, 57, 35
2, 727599, Note_off_c, 0, 77, 64
2, 727612, Control_c, 0, 64, 127
2, 727630, Note_off_c, 0, 63, 64
2, 727632, Note_off_c, 0, 57, 64
2, 727645, Note_off_c, 0, 53, 64
2, 727765, Note_on_c, 0, 73, 55
2, 727768, Note_on_c, 0, 41, 35
2, 727775, Control_c, 0, 64, 0
2, 727786, Note_off_c, 0, 75, 64
2, 727814, Control_c, 0, 64, 127
2, 727844, Note_on_c, 0, 72, 58
2, 727856, Note_off_c, 0, 73, 64
2, 727879, Note_off_c, 0, 41, 64
2, 727926, Note_on_c, 0, 77, 58
2, 727969, Note_off_c, 0, 72, 64
2, 728001, Note_on_c, 0, 75, 64
2, 728026, Note_off_c, 0, 77, 64
2, 728085, Note_on_c, 0, 58, 51
2, 728090, Note_on_c, 0, 61, 49
2, 728090, Note_on_c, 0, 53, 43
2, 728095, Note_on_c, 0, 73, 55
2, 728105, Control_c, 0, 64, 0
2, 728115, Note_off_c, 0, 75, 64
2, 728128, Control_c, 0, 64, 127
2, 728131, Note_off_c, 0, 61, 64
2, 728135, Note_off_c, 0, 58, 64
2, 728136, Note_off_c, 0, 53, 64
2, 728270, Note_on_c, 0, 72, 55
2, 728278, Control_c, 0, 64, 0
2, 728282, Note_off_c, 0, 73, 64
2, 728286, Note_on_c, 0, 41, 55
2, 728319, Control_c, 0, 64, 127
2, 728352, Note_on_c, 0, 70, 64
2, 728378, Note_off_c, 0, 72, 64
2, 728407, Note_off_c, 0, 41, 64
2, 728437, Note_on_c, 0, 73, 55
2, 728443, Note_off_c, 0, 70, 64
2, 728514, Note_on_c, 0, 72, 58
2, 728546, Note_off_c, 0, 73, 64
2, 728587, Note_on_c, 0, 70, 64
2, 728599, Note_on_c, 0, 61, 47
2, 728606, Control_c, 0, 64, 0
2, 728612, Note_off_c, 0, 72, 64
2, 728612, Note_on_c, 0, 52, 43
2, 728639, Control_c, 0, 64, 127
2, 728658, Note_off_c, 0, 52, 64
2, 728659, Note_off_c, 0, 61, 64
2, 728769, Note_on_c, 0, 66, 51
2, 728784, Note_on_c, 0, 41, 48
2, 728792, Control_c, 0, 64, 0
2, 728796, Note_off_c, 0, 70, 64
2, 728832, Control_c, 0, 64, 127
2, 728892, Note_off_c, 0, 41, 64
2, 728947, Note_on_c, 0, 65, 52
2, 728962, Note_off_c, 0, 66, 64
2, 729118, Note_on_c, 0, 57, 35
2, 729121, Note_on_c, 0, 60, 35
2, 729126, Note_on_c, 0, 48, 26
2, 729130, Control_c, 0, 64, 0
2, 729150, Control_c, 0, 64, 127
2, 729173, Note_off_c, 0, 60, 64
2, 729185, Note_off_c, 0, 57, 64
2, 729192, Note_off_c, 0, 48, 64
2, 729303, Note_on_c, 0, 41, 37
2, 729311, Note_on_c, 0, 77, 57
2, 729311, Control_c, 0, 64, 0
2, 729353, Note_off_c, 0, 65, 64
2, 729355, Control_c, 0, 64, 127
2, 729438, Note_off_c, 0, 41, 64
2, 729545, Note_on_c, 0, 78, 57
2, 729565, Note_off_c, 0, 77, 64
2, 729640, Note_on_c, 0, 77, 57
2, 729681, Note_off_c, 0, 78, 64
2, 729716, Note_on_c, 0, 75, 60
2, 729718, Note_on_c, 0, 63, 42
2, 729725, Note_on_c, 0, 53, 37
2, 729728, Note_on_c, 0, 57, 43
2, 729728, Control_c, 0, 64, 0
2, 729736, Note_off_c, 0, 77, 64
2, 729761, Control_c, 0, 64, 127
2, 729774, Note_off_c, 0, 63, 64
2, 729777, Note_off_c, 0, 57, 64
2, 729782, Note_off_c, 0, 53, 64
2, 729890, Note_on_c, 0, 73, 49
2, 729905, Note_on_c, 0, 41, 37
2, 729905, Control_c, 0, 64, 0
2, 729915, Note_off_c, 0, 75, 64
2, 729936, Control_c, 0, 64, 127
2, 729974, Note_on_c, 0, 72, 58
2, 729987, Note_off_c, 0, 73, 64
2, 730017, Note_off_c, 0, 41, 64
2, 730042, Control_c, 0, 64, 0
2, 730047, Note_on_c, 0, 77, 58
2, 730083, Control_c, 0, 64, 127
2, 730121, Note_on_c, 0, 75, 57
2, 730125, Note_off_c, 0, 72, 64
2, 730138, Note_off_c, 0, 77, 64
2, 730200, Note_on_c, 0, 73, 60
2, 730206, Note_on_c, 0, 61, 46
2, 730209, Note_on_c, 0, 58, 37
2, 730214, Note_on_c, 0, 53, 41
2, 730229, Note_off_c, 0, 75, 64
2, 730252, Note_off_c, 0, 61, 64
2, 730262, Note_off_c, 0, 58, 64
2, 730266, Note_off_c, 0, 53, 64
2, 730376, Note_on_c, 0, 72, 52
2, 730383, Control_c, 0, 64, 0
2, 730389, Note_off_c, 0, 73, 64
2, 730389, Note_on_c, 0, 41, 31
2, 730414, Control_c, 0, 64, 127
2, 730449, Note_on_c, 0, 70, 64
2, 730479, Note_off_c, 0, 72, 64
2, 730518, Note_off_c, 0, 41, 64
2, 730533, Note_on_c, 0, 73, 54
2, 730547, Note_off_c, 0, 70, 64
2, 730607, Note_on_c, 0, 72, 54
2, 730609, Note_off_c, 0, 73, 64
2, 730691, Note_on_c, 0, 70, 63
2, 730697, Note_on_c, 0, 61, 28
2, 730697, Note_on_c, 0, 52, 48
2, 730702, Control_c, 0, 64, 0
2, 730714, Note_off_c, 0, 72, 64
2, 730743, Control_c, 0, 64, 127
2, 730762, Note_off_c, 0, 61, 64
2, 730766, Note_off_c, 0, 52, 64
2, 730865, Note_on_c, 0, 66, 52
2, 730877, Note_on_c, 0, 41, 46
2, 730886, Control_c, 0, 64, 0
2, 730895, Note_off_c, 0, 70, 64
2, 730918, Control_c, 0, 64, 127
2, 730994, Note_off_c, 0, 41, 64
2, 731029, Control_c, 0, 64, 0
2, 731032, Note_on_c, 0, 65, 55
2, 731051, Note_off_c, 0, 66, 64
2, 731061, Control_c, 0, 64, 127
2, 731201, Note_on_c, 0, 60, 34
2, 731212, Note_on_c, 0, 48, 37
2, 731215, Note_on_c, 0, 57, 23
2, 731244, Note_off_c, 0, 57, 64
2, 731245, Note_off_c, 0, 60, 64
2, 731257, Note_off_c, 0, 48, 64
2, 731368, Note_on_c, 0, 41, 49
2, 731373, Note_on_c, 0, 72, 55
2, 731382, Control_c, 0, 64, 0
2, 731400, Note_off_c, 0, 65, 64
2, 731431, Control_c, 0, 64, 127
2, 731509, Note_off_c, 0, 41, 64
2, 731529, Note_on_c, 0, 73, 57
2, 731533, Note_off_c, 0, 72, 64
2, 731598, Note_on_c, 0, 72, 58
2, 731640, Note_off_c, 0, 73, 64
2, 731685, Note_on_c, 0, 51, 54
2, 731690, Note_on_c, 0, 70, 66
2, 731693, Note_on_c, 0, 61, 48
2, 731695, Note_on_c, 0, 58, 48
2, 731699, Control_c, 0, 64, 0
2, 731706, Note_off_c, 0, 72, 64
2, 731741, Control_c, 0, 64, 127
2, 731784, Note_off_c, 0, 61, 64
2, 731788, Note_off_c, 0, 58, 64
2, 731795, Note_off_c, 0, 51, 64
2, 731898, Note_on_c, 0, 66, 55
2, 731901, Note_on_c, 0, 41, 51
2, 731909, Control_c, 0, 64, 0
2, 731931, Note_off_c, 0, 70, 64
2, 731960, Control_c, 0, 64, 127
2, 732022, Note_off_c, 0, 41, 64
2, 732073, Note_on_c, 0, 65, 60
2, 732083, Note_off_c, 0, 66, 64
2, 732233, Note_on_c, 0, 57, 49
2, 732239, Note_on_c, 0, 60, 41
2, 732240, Note_on_c, 0, 51, 51
2, 732249, Control_c, 0, 64, 0
2, 732279, Control_c, 0, 64, 127
2, 732289, Note_off_c, 0, 60, 64
2, 732294, Note_off_c, 0, 57, 64
2, 732302, Note_off_c, 0, 51, 64
2, 732435, Note_on_c, 0, 41, 42
2, 732438, Note_on_c, 0, 72, 72
2, 732452, Control_c, 0, 64, 0
2, 732464, Note_off_c, 0, 65, 64
2, 732499, Control_c, 0, 64, 127
2, 732572, Note_off_c, 0, 41, 64
2, 732613, Note_on_c, 0, 73, 72
2, 732630, Note_off_c, 0, 72, 64
2, 732682, Note_on_c, 0, 72, 63
2, 732686, Note_off_c, 0, 73, 64
2, 732795, Note_on_c, 0, 70, 77
2, 732795, Note_on_c, 0, 61, 51
2, 732795, Note_on_c, 0, 58, 43
2, 732795, Note_on_c, 0, 51, 41
2, 732808, Control_c, 0, 64, 0
2, 732811, Note_off_c, 0, 72, 64
2, 732847, Control_c, 0, 64, 127
2, 732864, Note_off_c, 0, 61, 64
2, 732868, Note_off_c, 0, 58, 64
2, 732880, Note_off_c, 0, 51, 64
2, 733021, Note_on_c, 0, 41, 37
2, 733024, Note_on_c, 0, 66, 66
2, 733035, Note_off_c, 0, 70, 64
2, 733035, Control_c, 0, 64, 0
2, 733074, Control_c, 0, 64, 127
2, 733194, Note_off_c, 0, 41, 64
2, 733208, Note_on_c, 0, 63, 64
2, 733227, Note_off_c, 0, 66, 64
2, 733293, Note_on_c, 0, 64, 70
2, 733305, Note_off_c, 0, 63, 64
2, 733397, Note_on_c, 0, 57, 40
2, 733400, Note_on_c, 0, 51, 52
2, 733405, Note_on_c, 0, 65, 64
2, 733410, Note_on_c, 0, 60, 41
2, 733414, Note_off_c, 0, 64, 64
2, 733426, Control_c, 0, 64, 0
2, 733490, Control_c, 0, 64, 127
2, 733561, Note_off_c, 0, 57, 64
2, 733574, Note_off_c, 0, 51, 64
2, 733585, Note_on_c, 0, 68, 60
2, 733594, Note_off_c, 0, 60, 64
2, 733617, Note_off_c, 0, 65, 64
2, 733670, Note_on_c, 0, 66, 64
2, 733695, Note_off_c, 0, 68, 64
2, 733741, Note_on_c, 0, 60, 52
2, 733755, Control_c, 0, 64, 0
2, 733804, Note_off_c, 0, 66, 64
2, 733806, Control_c, 0, 64, 127
2, 733820, Note_on_c, 0, 61, 60
2, 733843, Note_off_c, 0, 60, 64
2, 733912, Note_on_c, 0, 62, 60
2, 733941, Note_off_c, 0, 61, 64
2, 733957, Control_c, 0, 64, 0
2, 734013, Control_c, 0, 64, 127
2, 734086, Note_on_c, 0, 65, 60
2, 734108, Note_off_c, 0, 62, 64
2, 734164, Note_on_c, 0, 63, 60
2, 734193, Note_off_c, 0, 65, 64
2, 734266, Note_on_c, 0, 52, 63
2, 734275, Control_c, 0, 64, 0
2, 734331, Note_off_c, 0, 63, 64
2, 734349, Note_on_c, 0, 53, 64
2, 734360, Note_off_c, 0, 52, 64
2, 734382, Control_c, 0, 64, 127
2, 734429, Control_c, 0, 64, 0
2, 734464, Note_on_c, 0, 63, 60
2, 734505, Note_off_c, 0, 53, 64
2, 734526, Control_c, 0, 64, 127
2, 734661, Note_on_c, 0, 53, 60
2, 734683, Control_c, 0, 64, 0
2, 734729, Control_c, 0, 64, 127
2, 734749, Note_on_c, 0, 54, 57
2, 734770, Note_off_c, 0, 63, 64
2, 734775, Note_off_c, 0, 53, 64
2, 734853, Control_c, 0, 64, 0
2, 734872, Note_on_c, 0, 63, 51
2, 734903, Note_off_c, 0, 54, 64
2, 734904, Control_c, 0, 64, 127
2, 734975, Note_on_c, 0, 55, 63
2, 735001, Note_off_c, 0, 63, 64
2, 735086, Note_on_c, 0, 56, 58
2, 735099, Control_c, 0, 64, 0
2, 735105, Note_off_c, 0, 55, 64
2, 735168, Control_c, 0, 64, 127
2, 735350, Note_on_c, 0, 63, 55
2, 735358, Control_c, 0, 64, 0
2, 735391, Note_off_c, 0, 56, 64
2, 735400, Control_c, 0, 64, 127
2, 735464, Note_on_c, 0, 57, 52
2, 735470, Note_off_c, 0, 63, 64
2, 735598, Note_on_c, 0, 58, 51
2, 735606, Note_on_c, 0, 62, 48
2, 735610, Note_on_c, 0, 46, 48
2, 735617, Control_c, 0, 64, 0
2, 735623, Note_on_c, 0, 53, 26
2, 735629, Note_off_c, 0, 57, 64
2, 735748, Note_on_c, 0, 43, 40
2, 735773, Note_off_c, 0, 46, 64
2, 735817, Note_on_c, 0, 41, 58
2, 735842, Control_c, 0, 64, 127
2, 735856, Note_off_c, 0, 43, 64
2, 736015, Note_on_c, 0, 63, 54
2, 736018, Note_on_c, 0, 46, 51
2, 736032, Control_c, 0, 64, 0
2, 736041, Note_off_c, 0, 62, 64
2, 736045, Note_off_c, 0, 41, 64
2, 736074, Control_c, 0, 64, 127
2, 736203, Note_on_c, 0, 65, 52
2, 736242, Note_off_c, 0, 63, 64
2, 736262, Note_off_c, 0, 65, 64
2, 736332, Note_on_c, 0, 65, 42
2, 736332, Note_on_c, 0, 63, 42
2, 736336, Note_on_c, 0, 57, 47
2, 736338, Note_off_c, 0, 58, 64
2, 736339, Note_on_c, 0, 47, 32
2, 736351, Note_off_c, 0, 46, 64
2, 736382, Control_c, 0, 64, 0
2, 736383, Note_off_c, 0, 63, 64
2, 736383, Note_off_c, 0, 65, 64
2, 736386, Note_off_c, 0, 57, 64
2, 736386, Note_on_c, 0, 48, 55
2, 736388, Note_on_c, 0, 65, 54
2, 736390, Note_off_c, 0, 47, 64
2, 736392, Note_on_c, 0, 63, 54
2, 736392, Note_on_c, 0, 55, 60
2, 736406, Control_c, 0, 64, 0
2, 736464, Control_c, 0, 64, 127
2, 736509, Note_on_c, 0, 50, 55
2, 736516, Note_off_c, 0, 65, 64
2, 736520, Note_off_c, 0, 63, 64
2, 736524, Note_off_c, 0, 48, 64
2, 736527, Note_off_c, 0, 55, 64
2, 736592, Note_on_c, 0, 65, 52
2, 736592, Note_on_c, 0, 57, 55
2, 736595, Note_on_c, 0, 48, 54
2, 736596, Note_on_c, 0, 63, 52
2, 736609, Note_off_c, 0, 50, 64
2, 736621, Control_c, 0, 64, 0
2, 736658, Control_c, 0, 64, 127
2, 736751, Note_off_c, 0, 65, 64
2, 736755, Note_off_c, 0, 63, 64
2, 736766, Note_off_c, 0, 57, 64
2, 736791, Note_on_c, 0, 58, 55
2, 736795, Note_on_c, 0, 62, 55
2, 736798, Note_on_c, 0, 46, 54
2, 736808, Control_c, 0, 64, 0
2, 736817, Note_off_c, 0, 48, 64
2, 736864, Control_c, 0, 64, 127
2, 736926, Note_on_c, 0, 43, 35
2, 736932, Note_off_c, 0, 46, 64
2, 736970, Control_c, 0, 64, 0
2, 736982, Note_on_c, 0, 41, 60
2, 737017, Note_off_c, 0, 43, 64
2, 737021, Control_c, 0, 64, 127
2, 737159, Note_off_c, 0, 58, 64
2, 737173, Note_off_c, 0, 53, 64
2, 737180, Note_on_c, 0, 58, 57
2, 737181, Note_on_c, 0, 40, 48
2, 737183, Note_on_c, 0, 67, 58
2, 737186, Note_off_c, 0, 41, 64
2, 737190, Note_on_c, 0, 48, 48
2, 737196, Control_c, 0, 64, 0
2, 737202, Note_off_c, 0, 62, 64
2, 737247, Control_c, 0, 64, 127
2, 737349, Note_off_c, 0, 58, 64
2, 737365, Note_on_c, 0, 58, 54
2, 737371, Note_on_c, 0, 60, 55
2, 737371, Note_on_c, 0, 41, 52
2, 737377, Note_off_c, 0, 67, 64
2, 737380, Note_off_c, 0, 40, 64
2, 737386, Control_c, 0, 64, 0
2, 737433, Control_c, 0, 64, 127
2, 737437, Note_off_c, 0, 58, 64
2, 737442, Note_off_c, 0, 60, 64
2, 737504, Note_off_c, 0, 41, 64
2, 737504, Note_on_c, 0, 60, 55
2, 737505, Note_on_c, 0, 57, 55
2, 737515, Note_on_c, 0, 36, 64
2, 737540, Note_off_c, 0, 60, 64
2, 737541, Note_off_c, 0, 57, 64
2, 737556, Note_on_c, 0, 60, 55
2, 737560, Note_on_c, 0, 55, 64
2, 737564, Control_c, 0, 64, 0
2, 737578, Note_on_c, 0, 41, 51
2, 737586, Note_off_c, 0, 36, 64
2, 737625, Control_c, 0, 64, 127
2, 737755, Note_off_c, 0, 60, 64
2, 737757, Note_off_c, 0, 41, 64
2, 737764, Note_off_c, 0, 55, 64
2, 737767, Note_on_c, 0, 60, 57
2, 737770, Note_on_c, 0, 57, 64
2, 737770, Note_on_c, 0, 36, 54
2, 737780, Control_c, 0, 64, 0
2, 737802, Note_off_c, 0, 48, 64
2, 737836, Control_c, 0, 64, 127
2, 737865, Note_off_c, 0, 57, 64
2, 737884, Note_off_c, 0, 36, 64
2, 737895, Note_off_c, 0, 60, 64
2, 737972, Note_on_c, 0, 60, 55
2, 737976, Note_on_c, 0, 56, 63
2, 737980, Note_on_c, 0, 41, 54
2, 737985, Control_c, 0, 64, 0
2, 737987, Note_on_c, 0, 48, 40
2, 738044, Control_c, 0, 64, 127
2, 738105, Note_on_c, 0, 37, 57
2, 738129, Note_off_c, 0, 41, 64
2, 738147, Control_c, 0, 64, 0
2, 738169, Note_on_c, 0, 36, 52
2, 738197, Note_off_c, 0, 37, 64
2, 738224, Control_c, 0, 64, 127
2, 738365, Note_off_c, 0, 36, 64
2, 738369, Note_on_c, 0, 41, 54
2, 738373, Note_on_c, 0, 62, 60
2, 738379, Note_off_c, 0, 60, 64
2, 738381, Control_c, 0, 64, 0
2, 738437, Control_c, 0, 64, 127
2, 738563, Note_on_c, 0, 63, 60
2, 738568, Note_on_c, 0, 55, 52
2, 738571, Note_on_c, 0, 36, 57
2, 738573, Note_off_c, 0, 62, 64
2, 738581, Control_c, 0, 64, 0
2, 738582, Note_off_c, 0, 56, 64
2, 738589, Note_off_c, 0, 41, 64
2, 738603, Control_c, 0, 64, 127
2, 738615, Note_off_c, 0, 48, 64
2, 738640, Note_off_c, 0, 55, 64
2, 738649, Note_off_c, 0, 63, 64
2, 738713, Note_on_c, 0, 63, 63
2, 738745, Note_off_c, 0, 63, 64
2, 738766, Note_on_c, 0, 63, 63
2, 738768, Note_on_c, 0, 58, 74
2, 738768, Note_on_c, 0, 55, 42
2, 738779, Note_on_c, 0, 48, 54
2, 738794, Control_c, 0, 64, 0
2, 738872, Control_c, 0, 64, 127
2, 738873, Note_off_c, 0, 36, 64
2, 739017, Note_off_c, 0, 55, 64
2, 739030, Note_off_c, 0, 48, 64
2, 739068, Note_on_c, 0, 62, 54
2, 739069, Note_off_c, 0, 58, 64
2, 739088, Note_off_c, 0, 63, 64
2, 739168, Note_on_c, 0, 51, 59
2, 739170, Note_on_c, 0, 41, 57
2, 739172, Note_on_c, 0, 60, 63
2, 739183, Control_c, 0, 64, 0
2, 739188, Note_off_c, 0, 62, 64
2, 739220, Control_c, 0, 64, 127
2, 739288, Note_on_c, 0, 59, 46
2, 739294, Note_on_c, 0, 50, 52
2, 739303, Note_off_c, 0, 51, 64
2, 739307, Note_off_c, 0, 60, 64
2, 739335, Control_c, 0, 64, 0
2, 739344, Note_on_c, 0, 60, 63
2, 739348, Note_on_c, 0, 51, 70
2, 739358, Note_off_c, 0, 59, 64
2, 739364, Note_off_c, 0, 50, 64
2, 739419, Control_c, 0, 64, 127
2, 739532, Note_on_c, 0, 62, 65
2, 739536, Note_on_c, 0, 47, 58
2, 739537, Note_on_c, 0, 56, 60
2, 739540, Control_c, 0, 64, 0
2, 739549, Note_off_c, 0, 60, 64
2, 739553, Note_off_c, 0, 51, 64
2, 739592, Control_c, 0, 64, 127
2, 739734, Note_on_c, 0, 48, 72
2, 739740, Note_on_c, 0, 55, 70
2, 739741, Note_on_c, 0, 63, 70
2, 739747, Note_off_c, 0, 62, 64
2, 739750, Control_c, 0, 64, 0
2, 739751, Note_off_c, 0, 47, 64
2, 739752, Note_off_c, 0, 56, 64
2, 739789, Control_c, 0, 64, 127
2, 739861, Note_on_c, 0, 46, 63
2, 739871, Note_on_c, 0, 64, 65
2, 739871, Note_on_c, 0, 54, 77
2, 739884, Note_off_c, 0, 48, 64
2, 739884, Note_off_c, 0, 41, 64
2, 739890, Note_off_c, 0, 55, 64
2, 739891, Note_off_c, 0, 63, 64
2, 739924, Note_on_c, 0, 45, 48
2, 739927, Note_on_c, 0, 65, 64
2, 739931, Note_on_c, 0, 53, 81
2, 739936, Control_c, 0, 64, 0
2, 739940, Note_off_c, 0, 46, 64
2, 739942, Note_off_c, 0, 64, 64
2, 739950, Note_off_c, 0, 54, 64
2, 739983, Control_c, 0, 64, 127
2, 740078, Note_off_c, 0, 53, 64
2, 740086, Note_off_c, 0, 45, 64
2, 740094, Note_off_c, 0, 65, 64
2, 740127, Note_on_c, 0, 41, 65
2, 740160, Note_on_c, 0, 57, 70
2, 740162, Control_c, 0, 64, 0
2, 740168, Note_on_c, 0, 73, 88
2, 740168, Note_on_c, 0, 63, 87
2, 740218, Control_c, 0, 64, 127
2, 740364, Note_on_c, 0, 46, 57
2, 740389, Note_on_c, 0, 53, 52
2, 740403, Note_off_c, 0, 41, 64
2, 740405, Control_c, 0, 64, 0
2, 740411, Note_on_c, 0, 70, 72
2, 740415, Note_off_c, 0, 73, 64
2, 740415, Note_on_c, 0, 74, 74
2, 740417, Note_on_c, 0, 58, 72
2, 740419, Note_on_c, 0, 62, 78
2, 740421, Note_off_c, 0, 63, 64
2, 740445, Note_off_c, 0, 57, 64
2, 740456, Control_c, 0, 64, 127
2, 740484, Note_off_c, 0, 46, 64
2, 740513, Note_off_c, 0, 53, 64
2, 740528, Note_off_c, 0, 58, 64
2, 740568, Note_on_c, 0, 43, 60
2, 740614, Control_c, 0, 64, 0
2, 740626, Note_on_c, 0, 41, 78
2, 740657, Note_off_c, 0, 43, 64
2, 740663, Control_c, 0, 64, 127
2, 740816, Note_off_c, 0, 70, 64
2, 740821, Note_on_c, 0, 75, 71
2, 740822, Note_off_c, 0, 62, 64
2, 740824, Note_on_c, 0, 46, 63
2, 740828, Note_on_c, 0, 53, 58
2, 740829, Note_on_c, 0, 70, 66
2, 740830, Note_on_c, 0, 63, 78
2, 740840, Note_off_c, 0, 74, 64
2, 740845, Control_c, 0, 64, 0
2, 740882, Note_off_c, 0, 41, 64
2, 740885, Control_c, 0, 64, 127
2, 740998, Note_off_c, 0, 75, 64
2, 741003, Note_off_c, 0, 70, 64
2, 741004, Note_off_c, 0, 63, 64
2, 741013, Note_on_c, 0, 65, 69
2, 741013, Note_on_c, 0, 77, 69
2, 741014, Note_on_c, 0, 70, 71
2, 741017, Note_on_c, 0, 75, 66
2, 741128, Note_off_c, 0, 75, 64
2, 741129, Note_off_c, 0, 77, 64
2, 741129, Note_off_c, 0, 65, 64
2, 741136, Note_on_c, 0, 75, 74
2, 741140, Note_on_c, 0, 77, 74
2, 741140, Note_on_c, 0, 69, 72
2, 741140, Note_on_c, 0, 65, 64
2, 741140, Note_on_c, 0, 47, 64
2, 741150, Note_off_c, 0, 46, 64
2, 741153, Note_off_c, 0, 70, 64
2, 741172, Note_off_c, 0, 75, 64
2, 741176, Note_off_c, 0, 77, 64
2, 741181, Note_off_c, 0, 65, 64
2, 741191, Note_on_c, 0, 65, 63
2, 741191, Note_on_c, 0, 48, 65
2, 741197, Note_on_c, 0, 77, 72
2, 741197, Note_on_c, 0, 75, 71
2, 741197, Note_on_c, 0, 67, 64
2, 741203, Control_c, 0, 64, 0
2, 741209, Note_off_c, 0, 47, 64
2, 741211, Note_off_c, 0, 69, 64
2, 741242, Control_c, 0, 64, 127
2, 741255, Note_off_c, 0, 67, 64
2, 741271, Note_off_c, 0, 75, 64
2, 741307, Note_on_c, 0, 51, 88
2, 741330, Note_off_c, 0, 48, 64
2, 741366, Note_off_c, 0, 77, 64
2, 741366, Note_off_c, 0, 65, 64
2, 741396, Note_on_c, 0, 75, 69
2, 741396, Note_on_c, 0, 65, 58
2, 741397, Note_on_c, 0, 50, 81
2, 741400, Note_on_c, 0, 77, 66
2, 741400, Note_on_c, 0, 69, 69
2, 741415, Control_c, 0, 64, 0
2, 741416, Note_off_c, 0, 51, 64
2, 741445, Note_off_c, 0, 75, 64
2, 741449, Note_off_c, 0, 69, 64
2, 741454, Control_c, 0, 64, 127
2, 741505, Note_on_c, 0, 48, 65
2, 741512, Note_off_c, 0, 50, 64
2, 741531, Note_off_c, 0, 77, 64
2, 741533, Note_off_c, 0, 65, 64
2, 741576, Note_off_c, 0, 53, 64
2, 741600, Note_on_c, 0, 74, 82
2, 741603, Note_on_c, 0, 62, 63
2, 741604, Note_on_c, 0, 53, 58
2, 741604, Note_on_c, 0, 70, 80
2, 741609, Note_on_c, 0, 46, 88
2, 741615, Control_c, 0, 64, 0
2, 741629, Note_off_c, 0, 48, 64
2, 741637, Control_c, 0, 64, 127
2, 741678, Control_c, 0, 64, 127
2, 741723, Note_off_c, 0, 46, 64
2, 741724, Note_on_c, 0, 43, 64
2, 741775, Control_c, 0, 64, 0
2, 741786, Note_on_c, 0, 41, 78
2, 741814, Note_off_c, 0, 43, 64
2, 741816, Control_c, 0, 64, 127
2, 741977, Note_off_c, 0, 70, 64
2, 741986, Note_on_c, 0, 72, 72
2, 741989, Note_on_c, 0, 67, 66
2, 741992, Note_on_c, 0, 70, 77
2, 741992, Note_on_c, 0, 79, 74
2, 741995, Note_off_c, 0, 74, 64
2, 741998, Note_on_c, 0, 40, 69
2, 742000, Note_off_c, 0, 53, 64
2, 742002, Note_off_c, 0, 41, 64
2, 742002, Note_on_c, 0, 48, 63
2, 742008, Control_c, 0, 64, 0
2, 742014, Note_off_c, 0, 62, 64
2, 742040, Control_c, 0, 64, 127
2, 742166, Note_off_c, 0, 70, 64
2, 742173, Note_off_c, 0, 72, 64
2, 742182, Note_on_c, 0, 72, 72
2, 742186, Note_on_c, 0, 70, 72
2, 742191, Note_on_c, 0, 60, 71
2, 742192, Note_on_c, 0, 65, 66
2, 742195, Note_on_c, 0, 41, 66
2, 742201, Control_c, 0, 64, 0
2, 742207, Note_off_c, 0, 79, 64
2, 742212, Note_off_c, 0, 67, 64
2, 742218, Note_off_c, 0, 40, 64
2, 742222, Control_c, 0, 64, 127
2, 742241, Note_off_c, 0, 72, 64
2, 742244, Note_off_c, 0, 65, 64
2, 742251, Note_off_c, 0, 60, 64
2, 742253, Note_off_c, 0, 41, 64
2, 742260, Note_off_c, 0, 70, 64
2, 742319, Note_on_c, 0, 69, 59
2, 742319, Note_on_c, 0, 65, 66
2, 742325, Note_on_c, 0, 60, 64
2, 742329, Note_on_c, 0, 72, 64
2, 742330, Note_on_c, 0, 48, 58
2, 742332, Note_on_c, 0, 36, 77
2, 742349, Note_off_c, 0, 69, 64
2, 742351, Note_off_c, 0, 60, 64
2, 742356, Note_off_c, 0, 65, 64
2, 742358, Note_off_c, 0, 72, 64
2, 742371, Note_off_c, 0, 48, 64
2, 742375, Control_c, 0, 64, 0
2, 742376, Note_on_c, 0, 65, 88
2, 742382, Note_on_c, 0, 67, 77
2, 742382, Note_on_c, 0, 60, 72
2, 742387, Note_off_c, 0, 36, 64
2, 742387, Note_on_c, 0, 48, 55
2, 742389, Note_on_c, 0, 72, 66
2, 742392, Note_on_c, 0, 41, 80
2, 742447, Control_c, 0, 64, 127
2, 742503, Note_off_c, 0, 72, 64
2, 742517, Note_off_c, 0, 65, 64
2, 742522, Note_off_c, 0, 60, 64
2, 742529, Note_off_c, 0, 67, 64
2, 742546, Note_off_c, 0, 48, 64
2, 742549, Note_off_c, 0, 41, 64
2, 742597, Note_on_c, 0, 69, 72
2, 742600, Note_on_c, 0, 60, 72
2, 742600, Note_on_c, 0, 48, 66
2, 742604, Note_on_c, 0, 72, 69
2, 742606, Note_on_c, 0, 65, 70
2, 742606, Note_on_c, 0, 36, 78
2, 742617, Control_c, 0, 64, 0
2, 742666, Control_c, 0, 64, 127
2, 742739, Note_off_c, 0, 69, 64
2, 742745, Note_off_c, 0, 48, 64
2, 742747, Note_off_c, 0, 65, 64
2, 742750, Note_off_c, 0, 72, 64
2, 742752, Note_off_c, 0, 36, 64
2, 742752, Note_off_c, 0, 60, 64
2, 742827, Note_on_c, 0, 65, 72
2, 742827, Note_on_c, 0, 68, 88
2, 742830, Note_on_c, 0, 60, 72
2, 742834, Note_on_c, 0, 72, 74
2, 742839, Note_on_c, 0, 48, 66
2, 742839, Note_on_c, 0, 41, 65
2, 742847, Control_c, 0, 64, 0
2, 742912, Control_c, 0, 64, 127
2, 742978, Note_on_c, 0, 37, 64
2, 742984, Note_off_c, 0, 41, 64
2, 743007, Control_c, 0, 64, 0
2, 743046, Note_on_c, 0, 36, 78
2, 743068, Control_c, 0, 64, 127
2, 743074, Note_off_c, 0, 37, 64
2, 743231, Note_off_c, 0, 48, 64
2, 743231, Note_off_c, 0, 48, 64
2, 743234, Note_off_c, 0, 68, 64
2, 743258, Note_on_c, 0, 68, 64
2, 743261, Note_on_c, 0, 62, 66
2, 743261, Note_on_c, 0, 41, 65
2, 743266, Note_on_c, 0, 74, 70
2, 743266, Note_on_c, 0, 48, 63
2, 743275, Control_c, 0, 64, 0
2, 743276, Note_off_c, 0, 65, 64
2, 743281, Note_off_c, 0, 36, 64
2, 743298, Note_off_c, 0, 60, 64
2, 743299, Note_off_c, 0, 72, 64
2, 743313, Control_c, 0, 64, 127
2, 743448, Note_off_c, 0, 48, 64
2, 743465, Note_on_c, 0, 75, 72
2, 743465, Control_c, 0, 64, 0
2, 743474, Note_off_c, 0, 41, 64
2, 743475, Note_on_c, 0, 67, 70
2, 743477, Note_on_c, 0, 63, 80
2, 743477, Note_on_c, 0, 36, 65
2, 743480, Note_on_c, 0, 48, 66
2, 743488, Note_off_c, 0, 68, 64
2, 743489, Note_off_c, 0, 74, 64
2, 743491, Note_off_c, 0, 62, 64
2, 743506, Control_c, 0, 64, 127
2, 743519, Note_off_c, 0, 36, 64
2, 743522, Note_off_c, 0, 67, 64
2, 743524, Note_off_c, 0, 75, 64
2, 743527, Note_off_c, 0, 63, 64
2, 743534, Note_off_c, 0, 48, 64
2, 743652, Note_on_c, 0, 55, 67
2, 743652, Note_on_c, 0, 48, 67
2, 743656, Note_on_c, 0, 63, 79
2, 743687, Note_off_c, 0, 48, 64
2, 743691, Note_off_c, 0, 63, 64
2, 743708, Note_on_c, 0, 63, 87
2, 743710, Note_on_c, 0, 48, 67
2, 743711, Note_on_c, 0, 54, 74
2, 743716, Note_off_c, 0, 55, 64
2, 743726, Control_c, 0, 64, 0
2, 743799, Control_c, 0, 64, 127
2, 744040, Note_on_c, 0, 62, 58
2, 744042, Note_on_c, 0, 55, 54
2, 744046, Note_on_c, 0, 47, 37
2, 744047, Note_off_c, 0, 54, 64
2, 744051, Note_off_c, 0, 63, 64
2, 744058, Note_off_c, 0, 48, 64
2, 744148, Note_on_c, 0, 65, 59
2, 744152, Note_on_c, 0, 50, 55
2, 744154, Note_on_c, 0, 56, 63
2, 744159, Note_off_c, 0, 62, 64
2, 744165, Note_off_c, 0, 47, 64
2, 744166, Control_c, 0, 64, 0
2, 744176, Note_off_c, 0, 55, 64
2, 744197, Control_c, 0, 64, 127
2, 744296, Note_on_c, 0, 64, 55
2, 744296, Note_on_c, 0, 49, 59
2, 744298, Note_on_c, 0, 57, 69
2, 744310, Note_off_c, 0, 65, 64
2, 744313, Note_off_c, 0, 50, 64
2, 744315, Note_off_c, 0, 56, 64
2, 744362, Control_c, 0, 64, 0
2, 744364, Note_on_c, 0, 67, 65
2, 744364, Note_on_c, 0, 52, 54
2, 744368, Note_on_c, 0, 58, 69
2, 744377, Note_off_c, 0, 49, 64
2, 744377, Note_off_c, 0, 64, 64
2, 744379, Note_off_c, 0, 57, 64
2, 744486, Control_c, 0, 64, 127
2, 744680, Note_on_c, 0, 66, 64
2, 744684, Note_on_c, 0, 59, 66
2, 744684, Note_on_c, 0, 51, 58
2, 744689, Note_off_c, 0, 52, 64
2, 744689, Note_off_c, 0, 67, 64
2, 744696, Note_off_c, 0, 58, 64
2, 744785, Note_on_c, 0, 54, 60
2, 744791, Note_on_c, 0, 69, 66
2, 744795, Note_on_c, 0, 60, 72
2, 744796, Note_off_c, 0, 51, 64
2, 744800, Note_off_c, 0, 59, 64
2, 744804, Note_off_c, 0, 66, 64
2, 744807, Control_c, 0, 64, 0
2, 744837, Control_c, 0, 64, 127
2, 744916, Note_on_c, 0, 61, 63
2, 744920, Note_on_c, 0, 68, 64
2, 744920, Note_on_c, 0, 53, 65
2, 744942, Note_off_c, 0, 60, 64
2, 744950, Note_off_c, 0, 69, 64
2, 744954, Note_off_c, 0, 54, 64
2, 744968, Note_on_c, 0, 62, 69
2, 744972, Note_on_c, 0, 65, 69
2, 744972, Note_on_c, 0, 71, 69
2, 744974, Note_on_c, 0, 56, 69
2, 744980, Control_c, 0, 64, 0
2, 744984, Note_off_c, 0, 68, 64
2, 744987, Note_off_c, 0, 61, 64
2, 744991, Note_off_c, 0, 53, 64
2, 745004, Control_c, 0, 64, 0
2, 745089, Control_c, 0, 64, 127
2, 745298, Note_on_c, 0, 55, 72
2, 745301, Control_c, 0, 64, 0
2, 745322, Note_off_c, 0, 56, 64
2, 745322, Control_c, 0, 64, 127
2, 745435, Note_off_c, 0, 62, 64
2, 745435, Note_on_c, 0, 67, 80
2, 745439, Note_off_c, 0, 65, 64
2, 745452, Control_c, 0, 64, 0
2, 745501, Control_c, 0, 64, 127
2, 745514, Note_off_c, 0, 71, 64
2, 745586, Note_off_c, 0, 55, 64
2, 745700, Note_on_c, 0, 65, 60
2, 745713, Control_c, 0, 64, 0
2, 745726, Control_c, 0, 64, 127
2, 745805, Note_on_c, 0, 63, 47
2, 745806, Note_on_c, 0, 72, 63
2, 745816, Note_off_c, 0, 65, 64
2, 745887, Note_on_c, 0, 62, 52
2, 745888, Note_on_c, 0, 71, 54
2, 745890, Note_on_c, 0, 74, 58
2, 745906, Note_off_c, 0, 63, 64
2, 745907, Note_off_c, 0, 72, 64
2, 745962, Note_on_c, 0, 75, 69
2, 745962, Note_on_c, 0, 72, 69
2, 745967, Note_off_c, 0, 62, 64
2, 745972, Note_on_c, 0, 60, 49
2, 745981, Note_off_c, 0, 74, 64
2, 745991, Note_off_c, 0, 71, 64
2, 746048, Note_on_c, 0, 62, 69
2, 746048, Control_c, 0, 64, 0
2, 746055, Note_on_c, 0, 77, 69
2, 746055, Note_on_c, 0, 71, 52
2, 746065, Note_off_c, 0, 60, 64
2, 746068, Note_off_c, 0, 72, 64
2, 746068, Note_off_c, 0, 75, 64
2, 746101, Control_c, 0, 64, 127
2, 746169, Note_off_c, 0, 62, 64
2, 746175, Note_on_c, 0, 79, 59
2, 746175, Note_on_c, 0, 55, 63
2, 746176, Note_off_c, 0, 71, 64
2, 746176, Note_off_c, 0, 77, 64
2, 746206, Note_on_c, 0, 62, 60
2, 746212, Note_on_c, 0, 71, 57
2, 746215, Note_on_c, 0, 77, 65
2, 746224, Note_off_c, 0, 55, 64
2, 746232, Note_off_c, 0, 79, 64
2, 746235, Control_c, 0, 64, 0
2, 746281, Control_c, 0, 64, 127
2, 746408, Note_on_c, 0, 75, 65
2, 746412, Note_on_c, 0, 72, 58
2, 746418, Note_on_c, 0, 60, 55
2, 746438, Control_c, 0, 64, 0
2, 746441, Note_off_c, 0, 62, 64
2, 746447, Note_off_c, 0, 71, 64
2, 746450, Note_off_c, 0, 77, 64
2, 746477, Control_c, 0, 64, 127
2, 746556, Note_off_c, 0, 60, 64
2, 746591, Note_off_c, 0, 72, 64
2, 746595, Note_off_c, 0, 75, 64
2, 746600, Note_on_c, 0, 77, 57
2, 746606, Note_on_c, 0, 71, 54
2, 746606, Note_on_c, 0, 62, 36
2, 746614, Control_c, 0, 64, 0
2, 746653, Control_c, 0, 64, 127
2, 746742, Note_off_c, 0, 77, 64
2, 746751, Note_on_c, 0, 55, 47
2, 746752, Note_off_c, 0, 62, 64
2, 746758, Note_off_c, 0, 71, 64
2, 746759, Note_on_c, 0, 79, 47
2, 746807, Note_on_c, 0, 77, 55
2, 746811, Note_off_c, 0, 79, 64
2, 746811, Note_on_c, 0, 71, 51
2, 746817, Note_on_c, 0, 62, 46
2, 746820, Note_off_c, 0, 55, 64
2, 746824, Control_c, 0, 64, 0
2, 746863, Control_c, 0, 64, 127
2, 747083, Note_on_c, 0, 60, 26
2, 747088, Note_on_c, 0, 72, 41
2, 747092, Note_on_c, 0, 75, 34
2, 747095, Note_off_c, 0, 71, 64
2, 747101, Note_off_c, 0, 62, 64
2, 747117, Control_c, 0, 64, 0
2, 747133, Note_off_c, 0, 77, 64
2, 747173, Control_c, 0, 64, 127
2, 747294, Note_off_c, 0, 75, 64
2, 747325, Note_off_c, 0, 72, 64
2, 747366, Note_off_c, 0, 60, 64
2, 747508, Note_off_c, 0, 67, 64
2, 747508, Note_on_c, 0, 59, 47
2, 747559, Control_c, 0, 64, 0
2, 747596, Note_on_c, 0, 60, 46
2, 747608, Control_c, 0, 64, 127
2, 747626, Note_off_c, 0, 59, 64
2, 747697, Note_on_c, 0, 62, 48
2, 747713, Note_off_c, 0, 60, 64
2, 747778, Note_on_c, 0, 63, 48
2, 747792, Note_off_c, 0, 62, 64
2, 747796, Control_c, 0, 64, 0
2, 747884, Note_on_c, 0, 62, 42
2, 747896, Note_off_c, 0, 63, 64
2, 747907, Control_c, 0, 64, 127
2, 748103, Note_on_c, 0, 60, 51
2, 748140, Control_c, 0, 64, 0
2, 748169, Control_c, 0, 64, 127
2, 748172, Note_on_c, 0, 58, 52
2, 748174, Note_on_c, 0, 67, 56
2, 748210, Note_off_c, 0, 60, 64
2, 748264, Note_on_c, 0, 57, 54
2, 748271, Note_on_c, 0, 69, 37
2, 748271, Note_on_c, 0, 66, 31
2, 748300, Note_off_c, 0, 58, 64
2, 748302, Note_off_c, 0, 67, 64
2, 748336, Note_on_c, 0, 55, 51
2, 748339, Note_on_c, 0, 70, 65
2, 748339, Note_on_c, 0, 67, 65
2, 748367, Note_off_c, 0, 57, 64
2, 748369, Note_off_c, 0, 69, 64
2, 748374, Note_off_c, 0, 66, 64
2, 748432, Note_on_c, 0, 66, 59
2, 748433, Note_on_c, 0, 57, 63
2, 748437, Note_on_c, 0, 72, 54
2, 748440, Control_c, 0, 64, 0
2, 748444, Note_off_c, 0, 55, 64
2, 748447, Note_off_c, 0, 67, 64
2, 748447, Note_off_c, 0, 70, 64
2, 748490, Control_c, 0, 64, 127
2, 748534, Note_off_c, 0, 57, 64
2, 748561, Note_on_c, 0, 50, 69
2, 748565, Note_off_c, 0, 72, 64
2, 748566, Note_off_c, 0, 66, 64
2, 748570, Note_on_c, 0, 74, 57
2, 748608, Note_on_c, 0, 72, 55
2, 748614, Note_on_c, 0, 66, 60
2, 748617, Note_on_c, 0, 57, 52
2, 748624, Note_off_c, 0, 74, 64
2, 748626, Control_c, 0, 64, 0
2, 748629, Note_off_c, 0, 50, 64
2, 748673, Control_c, 0, 64, 127
2, 748791, Note_on_c, 0, 70, 63
2, 748796, Note_on_c, 0, 55, 58
2, 748797, Note_on_c, 0, 67, 58
2, 748801, Note_off_c, 0, 66, 64
2, 748806, Note_off_c, 0, 57, 64
2, 748811, Control_c, 0, 64, 0
2, 748820, Note_off_c, 0, 72, 64
2, 748859, Control_c, 0, 64, 127
2, 748964, Note_on_c, 0, 72, 64
2, 748966, Note_on_c, 0, 57, 54
2, 748968, Note_on_c, 0, 66, 60
2, 748976, Control_c, 0, 64, 0
2, 748988, Note_off_c, 0, 70, 64
2, 748993, Note_off_c, 0, 55, 64
2, 748994, Note_off_c, 0, 67, 64
2, 749026, Control_c, 0, 64, 127
2, 749093, Note_off_c, 0, 66, 64
2, 749101, Note_on_c, 0, 74, 54
2, 749102, Note_on_c, 0, 50, 59
2, 749106, Note_off_c, 0, 72, 64
2, 749107, Note_off_c, 0, 57, 64
2, 749141, Note_on_c, 0, 72, 63
2, 749141, Note_on_c, 0, 66, 69
2, 749147, Control_c, 0, 64, 0
2, 749153, Note_on_c, 0, 57, 66
2, 749156, Note_off_c, 0, 74, 64
2, 749170, Note_off_c, 0, 50, 64
2, 749192, Control_c, 0, 64, 127
2, 749330, Note_on_c, 0, 70, 63
2, 749334, Note_on_c, 0, 67, 57
2, 749338, Note_on_c, 0, 55, 59
2, 749344, Control_c, 0, 64, 0
2, 749347, Note_off_c, 0, 72, 64
2, 749351, Note_off_c, 0, 66, 64
2, 749354, Note_off_c, 0, 57, 64
2, 749376, Control_c, 0, 64, 127
2, 749567, Note_off_c, 0, 67, 64
2, 749569, Note_on_c, 0, 68, 59
2, 749572, Note_on_c, 0, 63, 57
2, 749575, Note_on_c, 0, 60, 55
2, 749577, Note_off_c, 0, 70, 64
2, 749585, Control_c, 0, 64, 0
2, 749586, Note_off_c, 0, 62, 64
2, 749660, Control_c, 0, 64, 127
2, 750077, Note_on_c, 0, 66, 41
2, 750092, Note_off_c, 0, 63, 64
2, 750094, Note_off_c, 0, 68, 64
2, 750154, Note_off_c, 0, 60, 64
2, 750357, Note_on_c, 0, 67, 43
2, 750361, Note_on_c, 0, 62, 41
2, 750365, Note_on_c, 0, 59, 32
2, 750370, Note_off_c, 0, 66, 64
2, 750380, Control_c, 0, 64, 0
2, 750443, Control_c, 0, 64, 127
2, 750576, Note_off_c, 0, 62, 64
2, 750620, Note_on_c, 0, 53, 47
2, 750645, Note_off_c, 0, 59, 64
2, 750691, Note_off_c, 0, 67, 64
2, 750705, Note_on_c, 0, 51, 48
2, 750706, Note_on_c, 0, 60, 55
2, 750725, Note_off_c, 0, 53, 64
2, 750786, Note_on_c, 0, 50, 48
2, 750794, Note_on_c, 0, 62, 51
2, 750796, Note_on_c, 0, 59, 58
2, 750802, Note_off_c, 0, 51, 64
2, 750803, Note_off_c, 0, 60, 64
2, 750864, Note_on_c, 0, 60, 28
2, 750865, Note_on_c, 0, 63, 46
2, 750874, Note_on_c, 0, 48, 52
2, 750884, Control_c, 0, 64, 0
2, 750887, Note_off_c, 0, 50, 64
2, 750895, Note_off_c, 0, 62, 64
2, 750897, Note_off_c, 0, 59, 64
2, 750917, Control_c, 0, 64, 127
2, 750963, Note_on_c, 0, 65, 59
2, 750963, Note_on_c, 0, 50, 57
2, 750969, Note_on_c, 0, 59, 66
2, 750974, Note_off_c, 0, 60, 64
2, 750975, Note_off_c, 0, 63, 64
2, 750976, Control_c, 0, 64, 0
2, 750979, Note_off_c, 0, 48, 64
2, 751023, Control_c, 0, 64, 127
2, 751088, Note_on_c, 0, 43, 57
2, 751090, Note_on_c, 0, 67, 58
2, 751104, Note_off_c, 0, 50, 64
2, 751104, Note_off_c, 0, 65, 64
2, 751110, Note_off_c, 0, 59, 64
2, 751131, Control_c, 0, 64, 0
2, 751137, Note_on_c, 0, 65, 59
2, 751140, Note_on_c, 0, 59, 63
2, 751140, Note_on_c, 0, 50, 54
2, 751149, Note_off_c, 0, 67, 64
2, 751180, Note_off_c, 0, 43, 64
2, 751198, Control_c, 0, 64, 127
2, 751316, Note_on_c, 0, 48, 51
2, 751318, Note_on_c, 0, 63, 60
2, 751321, Note_on_c, 0, 60, 60
2, 751340, Control_c, 0, 64, 0
2, 751346, Note_off_c, 0, 65, 64
2, 751349, Note_off_c, 0, 50, 64
2, 751349, Note_off_c, 0, 59, 64
2, 751401, Control_c, 0, 64, 127
2, 751484, Note_off_c, 0, 60, 64
2, 751497, Note_off_c, 0, 63, 64
2, 751498, Note_on_c, 0, 59, 55
2, 751498, Note_on_c, 0, 50, 47
2, 751501, Note_off_c, 0, 48, 64
2, 751506, Note_on_c, 0, 65, 52
2, 751510, Control_c, 0, 64, 0
2, 751550, Control_c, 0, 64, 127
2, 751632, Note_on_c, 0, 43, 54
2, 751633, Note_off_c, 0, 50, 64
2, 751633, Note_off_c, 0, 59, 64
2, 751635, Note_on_c, 0, 67, 51
2, 751641, Note_off_c, 0, 65, 64
2, 751681, Note_on_c, 0, 59, 57
2, 751684, Note_on_c, 0, 50, 51
2, 751687, Note_on_c, 0, 65, 54
2, 751689, Control_c, 0, 64, 0
2, 751696, Note_off_c, 0, 67, 64
2, 751724, Note_off_c, 0, 43, 64
2, 751738, Control_c, 0, 64, 127
2, 751894, Note_on_c, 0, 63, 54
2, 751894, Note_on_c, 0, 48, 52
2, 751899, Note_on_c, 0, 60, 54
2, 751900, Note_off_c, 0, 50, 64
2, 751910, Control_c, 0, 64, 0
2, 751923, Note_off_c, 0, 59, 64
2, 751929, Note_off_c, 0, 65, 64
2, 751961, Control_c, 0, 64, 127
2, 752159, Note_off_c, 0, 63, 64
2, 752196, Note_off_c, 0, 60, 64
2, 752211, Note_off_c, 0, 48, 64
2, 752236, Note_on_c, 0, 48, 63
2, 752244, Note_off_c, 0, 55, 64
2, 752269, Note_on_c, 0, 50, 64
2, 752277, Note_off_c, 0, 48, 64
2, 752304, Note_on_c, 0, 48, 63
2, 752324, Note_off_c, 0, 50, 64
2, 752341, Control_c, 0, 64, 0
2, 752356, Note_on_c, 0, 47, 60
2, 752368, Note_off_c, 0, 48, 64
2, 752444, Note_on_c, 0, 48, 65
2, 752468, Note_off_c, 0, 47, 64
2, 752543, Note_on_c, 0, 50, 58
2, 752579, Note_off_c, 0, 48, 64
2, 752615, Note_on_c, 0, 51, 58
2, 752641, Note_off_c, 0, 50, 64
2, 752700, Note_on_c, 0, 50, 64
2, 752717, Note_off_c, 0, 51, 64
2, 752791, Note_on_c, 0, 52, 70
2, 752795, Note_on_c, 0, 49, 72
2, 752812, Note_off_c, 0, 50, 64
2, 752876, Note_on_c, 0, 48, 63
2, 752878, Note_on_c, 0, 54, 74
2, 752889, Control_c, 0, 64, 127
2, 752899, Note_off_c, 0, 52, 64
2, 752903, Note_off_c, 0, 49, 64
2, 752953, Note_on_c, 0, 55, 64
2, 752958, Note_on_c, 0, 46, 66
2, 752972, Note_off_c, 0, 48, 64
2, 752974, Note_off_c, 0, 54, 64
2, 753005, Control_c, 0, 64, 0
2, 753036, Note_on_c, 0, 57, 57
2, 753040, Note_on_c, 0, 54, 57
2, 753044, Note_on_c, 0, 45, 60
2, 753048, Note_off_c, 0, 55, 64
2, 753053, Note_off_c, 0, 46, 64
2, 753118, Note_on_c, 0, 58, 57
2, 753118, Note_on_c, 0, 55, 57
2, 753120, Note_on_c, 0, 43, 51
2, 753133, Note_off_c, 0, 45, 64
2, 753135, Note_off_c, 0, 57, 64
2, 753139, Note_off_c, 0, 54, 64
2, 753214, Note_on_c, 0, 57, 69
2, 753218, Note_on_c, 0, 53, 64
2, 753220, Note_on_c, 0, 45, 80
2, 753229, Note_off_c, 0, 55, 64
2, 753229, Note_off_c, 0, 58, 64
2, 753231, Note_off_c, 0, 43, 64
2, 753246, Control_c, 0, 64, 127
2, 753307, Note_off_c, 0, 57, 64
2, 753314, Note_off_c, 0, 45, 64
2, 753316, Note_off_c, 0, 53, 64
2, 753335, Note_on_c, 0, 52, 81
2, 753338, Note_on_c, 0, 61, 74
2, 753342, Note_on_c, 0, 33, 81
2, 753388, Note_on_c, 0, 62, 80
2, 753388, Note_on_c, 0, 50, 89
2, 753392, Note_on_c, 0, 38, 89
2, 753402, Note_off_c, 0, 52, 64
2, 753405, Note_off_c, 0, 61, 64
2, 753420, Note_off_c, 0, 33, 64
2, 753426, Control_c, 0, 64, 0
2, 753545, Control_c, 0, 64, 127
2, 753567, Note_off_c, 0, 62, 64
2, 753590, Note_off_c, 0, 50, 64
2, 753594, Note_off_c, 0, 38, 64
2, 753826, Control_c, 0, 64, 0
2, 753835, Note_on_c, 0, 57, 51
2, 753838, Note_on_c, 0, 50, 48
2, 753838, Note_on_c, 0, 69, 54
2, 753838, Note_on_c, 0, 65, 51
2, 753874, Control_c, 0, 64, 127
2, 753963, Note_on_c, 0, 73, 54
2, 753967, Note_on_c, 0, 55, 51
2, 753971, Note_on_c, 0, 64, 59
2, 753977, Note_off_c, 0, 57, 64
2, 753980, Note_off_c, 0, 65, 64
2, 753980, Note_off_c, 0, 69, 64
2, 754028, Note_on_c, 0, 74, 55
2, 754028, Note_on_c, 0, 62, 60
2, 754028, Note_on_c, 0, 53, 55
2, 754039, Note_off_c, 0, 55, 64
2, 754041, Control_c, 0, 64, 0
2, 754045, Note_off_c, 0, 73, 64
2, 754053, Note_off_c, 0, 64, 64
2, 754117, Control_c, 0, 64, 127
2, 754383, Note_off_c, 0, 53, 64
2, 754383, Note_off_c, 0, 62, 64
2, 754383, Note_off_c, 0, 74, 64
2, 754462, Control_c, 0, 64, 0
2, 754471, Note_on_c, 0, 65, 36
2, 754471, Note_on_c, 0, 57, 36
2, 754474, Note_on_c, 0, 69, 42
2, 754507, Control_c, 0, 64, 127
2, 754628, Note_on_c, 0, 73, 46
2, 754631, Note_on_c, 0, 64, 51
2, 754644, Note_on_c, 0, 55, 32
2, 754654, Note_off_c, 0, 57, 64
2, 754654, Note_off_c, 0, 65, 64
2, 754657, Note_off_c, 0, 69, 64
2, 754688, Note_on_c, 0, 62, 51
2, 754692, Note_on_c, 0, 53, 40
2, 754694, Note_on_c, 0, 74, 47
2, 754703, Note_off_c, 0, 73, 64
2, 754706, Note_off_c, 0, 64, 64
2, 754714, Control_c, 0, 64, 0
2, 754719, Note_off_c, 0, 55, 64
2, 754818, Control_c, 0, 64, 127
2, 755025, Note_off_c, 0, 62, 64
2, 755029, Note_off_c, 0, 53, 64
2, 755031, Note_off_c, 0, 74, 64
2, 755080, Note_on_c, 0, 57, 57
2, 755082, Note_on_c, 0, 69, 60
2, 755083, Control_c, 0, 64, 0
2, 755134, Control_c, 0, 64, 127
2, 755193, Note_on_c, 0, 60, 57
2, 755197, Note_off_c, 0, 69, 64
2, 755198, Note_off_c, 0, 57, 64
2, 755199, Note_on_c, 0, 72, 58
2, 755234, Note_off_c, 0, 72, 64
2, 755290, Note_on_c, 0, 72, 72
2, 755324, Note_off_c, 0, 60, 64
2, 755324, Note_on_c, 0, 58, 52
2, 755331, Note_on_c, 0, 70, 64
2, 755335, Note_off_c, 0, 72, 64
2, 755358, Control_c, 0, 64, 0
2, 755364, Note_on_c, 0, 72, 77
2, 755371, Note_off_c, 0, 70, 64
2, 755398, Note_on_c, 0, 70, 64
2, 755410, Control_c, 0, 64, 127
2, 755417, Note_off_c, 0, 72, 64
2, 755482, Note_on_c, 0, 69, 66
2, 755483, Note_off_c, 0, 70, 64
2, 755492, Note_on_c, 0, 57, 58
2, 755495, Note_off_c, 0, 58, 64
2, 755521, Control_c, 0, 64, 0
2, 755568, Control_c, 0, 64, 127
2, 755574, Note_on_c, 0, 67, 72
2, 755581, Note_on_c, 0, 55, 54
2, 755584, Note_off_c, 0, 69, 64
2, 755597, Note_off_c, 0, 57, 64
2, 755663, Note_on_c, 0, 69, 64
2, 755668, Note_on_c, 0, 57, 60
2, 755672, Note_off_c, 0, 55, 64
2, 755672, Control_c, 0, 64, 0
2, 755679, Note_off_c, 0, 67, 64
2, 755740, Control_c, 0, 64, 127
2, 755808, Note_on_c, 0, 52, 57
2, 755812, Note_on_c, 0, 64, 60
2, 755822, Note_off_c, 0, 69, 64
2, 755846, Control_c, 0, 64, 0
2, 755858, Note_on_c, 0, 65, 57
2, 755860, Note_on_c, 0, 53, 48
2, 755868, Note_off_c, 0, 52, 64
2, 755872, Note_off_c, 0, 64, 64
2, 755910, Control_c, 0, 64, 127
2, 755997, Note_off_c, 0, 50, 64
2, 756036, Control_c, 0, 64, 0
2, 756044, Note_off_c, 0, 65, 64
2, 756046, Note_on_c, 0, 50, 57
2, 756051, Note_on_c, 0, 62, 58
2, 756062, Note_off_c, 0, 53, 64
2, 756074, Control_c, 0, 64, 127
2, 756082, Note_off_c, 0, 57, 64
2, 756218, Note_off_c, 0, 62, 64
2, 756219, Note_on_c, 0, 69, 63
2, 756225, Control_c, 0, 64, 0
2, 756229, Note_on_c, 0, 57, 58
2, 756257, Control_c, 0, 64, 127
2, 756316, Note_on_c, 0, 72, 66
2, 756317, Note_off_c, 0, 69, 64
2, 756332, Note_on_c, 0, 60, 55
2, 756345, Note_off_c, 0, 57, 64
2, 756356, Note_off_c, 0, 72, 64
2, 756412, Note_on_c, 0, 72, 74
2, 756444, Note_on_c, 0, 58, 32
2, 756450, Note_on_c, 0, 70, 77
2, 756451, Control_c, 0, 64, 0
2, 756458, Note_off_c, 0, 72, 64
2, 756466, Note_off_c, 0, 60, 64
2, 756481, Note_on_c, 0, 72, 72
2, 756490, Note_off_c, 0, 70, 64
2, 756503, Control_c, 0, 64, 127
2, 756526, Note_on_c, 0, 70, 72
2, 756537, Note_off_c, 0, 72, 64
2, 756601, Note_on_c, 0, 69, 65
2, 756604, Note_off_c, 0, 70, 64
2, 756614, Note_on_c, 0, 57, 60
2, 756621, Note_off_c, 0, 58, 64
2, 756625, Control_c, 0, 64, 0
2, 756680, Control_c, 0, 64, 127
2, 756686, Note_on_c, 0, 67, 71
2, 756694, Note_on_c, 0, 55, 59
2, 756700, Note_off_c, 0, 57, 64
2, 756702, Note_off_c, 0, 69, 64
2, 756771, Control_c, 0, 64, 0
2, 756784, Note_on_c, 0, 69, 59
2, 756787, Note_off_c, 0, 67, 64
2, 756790, Note_on_c, 0, 57, 60
2, 756792, Note_off_c, 0, 55, 64
2, 756844, Control_c, 0, 64, 127
2, 756926, Note_on_c, 0, 64, 57
2, 756934, Note_on_c, 0, 52, 60
2, 756941, Note_off_c, 0, 69, 64
2, 756958, Control_c, 0, 64, 0
2, 756971, Note_on_c, 0, 53, 46
2, 756972, Note_on_c, 0, 65, 63
2, 756978, Note_off_c, 0, 52, 64
2, 756990, Note_off_c, 0, 64, 64
2, 757021, Control_c, 0, 64, 127
2, 757141, Note_off_c, 0, 50, 64
2, 757164, Note_on_c, 0, 62, 58
2, 757171, Note_on_c, 0, 50, 52
2, 757171, Control_c, 0, 64, 0
2, 757183, Note_off_c, 0, 65, 64
2, 757194, Note_off_c, 0, 53, 64
2, 757223, Control_c, 0, 64, 127
2, 757236, Note_off_c, 0, 57, 64
2, 757363, Note_on_c, 0, 69, 60
2, 757366, Note_on_c, 0, 57, 48
2, 757367, Note_off_c, 0, 62, 64
2, 757376, Control_c, 0, 64, 0
2, 757422, Control_c, 0, 64, 127
2, 757517, Note_on_c, 0, 64, 52
2, 757525, Note_on_c, 0, 52, 51
2, 757541, Note_off_c, 0, 69, 64
2, 757563, Note_on_c, 0, 65, 60
2, 757569, Control_c, 0, 64, 0
2, 757577, Note_on_c, 0, 53, 57
2, 757580, Note_off_c, 0, 52, 64
2, 757592, Note_off_c, 0, 64, 64
2, 757629, Control_c, 0, 64, 127
2, 757755, Note_off_c, 0, 50, 64
2, 757776, Note_on_c, 0, 62, 52
2, 757780, Note_on_c, 0, 50, 52
2, 757787, Note_off_c, 0, 65, 64
2, 757789, Control_c, 0, 64, 0
2, 757805, Note_off_c, 0, 53, 64
2, 757845, Control_c, 0, 64, 127
2, 757859, Note_off_c, 0, 57, 64
2, 758001, Note_on_c, 0, 69, 41
2, 758002, Note_on_c, 0, 57, 48
2, 758011, Note_off_c, 0, 62, 64
2, 758018, Control_c, 0, 64, 0
2, 758055, Control_c, 0, 64, 127
2, 758178, Note_on_c, 0, 64, 42
2, 758182, Note_on_c, 0, 52, 57
2, 758206, Note_off_c, 0, 69, 64
2, 758217, Control_c, 0, 64, 0
2, 758231, Note_on_c, 0, 65, 52
2, 758242, Note_on_c, 0, 53, 48
2, 758244, Note_off_c, 0, 52, 64
2, 758247, Note_off_c, 0, 64, 64
2, 758281, Control_c, 0, 64, 127
2, 758437, Note_off_c, 0, 50, 64
2, 758453, Control_c, 0, 64, 0
2, 758463, Note_on_c, 0, 50, 52
2, 758469, Note_on_c, 0, 62, 48
2, 758500, Note_off_c, 0, 65, 64
2, 758506, Control_c, 0, 64, 127
2, 758515, Note_off_c, 0, 53, 64
2, 758815, Note_off_c, 0, 50, 64
2, 758827, Note_on_c, 0, 71, 37
2, 758834, Note_on_c, 0, 67, 32
2, 758839, Note_on_c, 0, 43, 37
2, 758878, Control_c, 0, 64, 0
2, 758901, Note_off_c, 0, 57, 64
2, 759007, Control_c, 0, 64, 127
2, 759454, Control_c, 0, 64, 0
2, 759471, Note_off_c, 0, 62, 64
2, 759476, Note_on_c, 0, 55, 34
2, 759487, Control_c, 0, 64, 127
2, 759492, Note_off_c, 0, 71, 64
2, 759499, Note_off_c, 0, 67, 64
2, 759504, Note_off_c, 0, 43, 64
2, 759528, Note_off_c, 0, 55, 64
2, 759619, Note_on_c, 0, 55, 63
2, 759649, Note_off_c, 0, 55, 64
2, 759681, Note_on_c, 0, 55, 64
2, 759694, Control_c, 0, 64, 0
2, 759706, Control_c, 0, 64, 127
2, 759734, Note_off_c, 0, 55, 64
2, 759946, Note_on_c, 0, 55, 70
2, 759962, Control_c, 0, 64, 0
2, 760004, Control_c, 0, 64, 127
2, 760261, Note_on_c, 0, 67, 75
2, 760276, Control_c, 0, 64, 0
2, 760307, Note_off_c, 0, 55, 64
2, 760316, Control_c, 0, 64, 127
2, 760577, Note_on_c, 0, 65, 49
2, 760663, Note_on_c, 0, 63, 54
2, 760673, Note_on_c, 0, 72, 63
2, 760674, Note_off_c, 0, 65, 64
2, 760760, Note_on_c, 0, 71, 69
2, 760760, Note_on_c, 0, 62, 29
2, 760762, Note_on_c, 0, 74, 52
2, 760768, Note_off_c, 0, 72, 64
2, 760775, Note_off_c, 0, 63, 64
2, 760836, Note_on_c, 0, 72, 59
2, 760840, Note_on_c, 0, 75, 59
2, 760847, Note_on_c, 0, 60, 47
2, 760851, Note_on_c, 0, 60, 47
2, 760858, Note_off_c, 0, 62, 64
2, 760858, Note_off_c, 0, 71, 64
2, 760860, Note_off_c, 0, 74, 64
2, 760925, Note_on_c, 0, 77, 57
2, 760925, Note_on_c, 0, 71, 54
2, 760930, Note_on_c, 0, 62, 59
2, 760933, Note_off_c, 0, 72, 64
2, 760936, Note_off_c, 0, 60, 64
2, 760937, Note_off_c, 0, 75, 64
2, 760942, Control_c, 0, 64, 0
2, 760944, Note_off_c, 0, 60, 64
2, 760971, Control_c, 0, 64, 127
2, 761055, Note_on_c, 0, 55, 57
2, 761059, Note_on_c, 0, 79, 55
2, 761062, Note_off_c, 0, 71, 64
2, 761062, Note_off_c, 0, 77, 64
2, 761067, Note_off_c, 0, 62, 64
2, 761092, Note_on_c, 0, 71, 55
2, 761095, Note_on_c, 0, 77, 59
2, 761101, Note_on_c, 0, 62, 47
2, 761110, Note_off_c, 0, 55, 64
2, 761115, Control_c, 0, 64, 0
2, 761120, Note_off_c, 0, 79, 64
2, 761163, Control_c, 0, 64, 127
2, 761280, Note_on_c, 0, 72, 58
2, 761282, Note_on_c, 0, 75, 60
2, 761285, Note_on_c, 0, 60, 51
2, 761291, Note_off_c, 0, 62, 64
2, 761297, Note_off_c, 0, 77, 64
2, 761308, Control_c, 0, 64, 0
2, 761315, Note_off_c, 0, 71, 64
2, 761338, Control_c, 0, 64, 127
2, 761442, Note_off_c, 0, 72, 64
2, 761457, Note_on_c, 0, 62, 41
2, 761459, Note_on_c, 0, 77, 58
2, 761465, Note_off_c, 0, 60, 64
2, 761465, Note_on_c, 0, 71, 57
2, 761481, Note_off_c, 0, 75, 64
2, 761487, Control_c, 0, 64, 0
2, 761516, Control_c, 0, 64, 127
2, 761586, Note_off_c, 0, 71, 64
2, 761586, Note_on_c, 0, 55, 55
2, 761589, Note_off_c, 0, 62, 64
2, 761589, Note_on_c, 0, 79, 51
2, 761593, Note_off_c, 0, 77, 64
2, 761629, Note_on_c, 0, 77, 58
2, 761631, Note_on_c, 0, 71, 52
2, 761638, Note_on_c, 0, 62, 46
2, 761644, Note_off_c, 0, 79, 64
2, 761650, Control_c, 0, 64, 0
2, 761668, Note_off_c, 0, 55, 64
2, 761691, Control_c, 0, 64, 127
2, 761871, Note_on_c, 0, 60, 41
2, 761876, Note_on_c, 0, 75, 46
2, 761881, Note_on_c, 0, 72, 46
2, 761894, Note_off_c, 0, 62, 64
2, 761896, Control_c, 0, 64, 0
2, 761902, Note_off_c, 0, 77, 64
2, 761904, Note_off_c, 0, 71, 64
2, 761956, Control_c, 0, 64, 127
2, 762060, Note_off_c, 0, 72, 64
2, 762087, Note_off_c, 0, 75, 64
2, 762093, Note_off_c, 0, 60, 64
2, 762228, Note_on_c, 0, 59, 46
2, 762235, Note_off_c, 0, 67, 64
2, 762312, Note_on_c, 0, 60, 48
2, 762328, Note_off_c, 0, 59, 64
2, 762410, Note_on_c, 0, 62, 40
2, 762433, Note_off_c, 0, 60, 64
2, 762470, Control_c, 0, 64, 0
2, 762488, Note_on_c, 0, 63, 52
2, 762504, Note_off_c, 0, 62, 64
2, 762583, Note_on_c, 0, 62, 41
2, 762598, Note_off_c, 0, 63, 64
2, 762613, Control_c, 0, 64, 127
2, 762675, Note_on_c, 0, 61, 51
2, 762679, Note_on_c, 0, 64, 56
2, 762756, Note_on_c, 0, 60, 46
2, 762758, Note_on_c, 0, 66, 62
2, 762776, Note_off_c, 0, 61, 64
2, 762780, Note_off_c, 0, 64, 64
2, 762849, Note_on_c, 0, 67, 65
2, 762849, Note_on_c, 0, 58, 39
2, 762868, Note_off_c, 0, 60, 64
2, 762870, Note_off_c, 0, 66, 64
2, 762892, Control_c, 0, 64, 0
2, 762922, Control_c, 0, 64, 127
2, 762928, Note_on_c, 0, 66, 54
2, 762932, Note_on_c, 0, 69, 35
2, 762934, Note_on_c, 0, 57, 48
2, 762944, Note_off_c, 0, 58, 64
2, 762944, Note_off_c, 0, 67, 64
2, 763020, Note_on_c, 0, 67, 71
2, 763024, Note_on_c, 0, 70, 71
2, 763028, Note_off_c, 0, 66, 64
2, 763030, Note_on_c, 0, 55, 49
2, 763032, Note_off_c, 0, 69, 64
2, 763034, Note_off_c, 0, 57, 64
2, 763120, Note_on_c, 0, 57, 67
2, 763120, Note_on_c, 0, 72, 62
2, 763122, Note_off_c, 0, 70, 64
2, 763124, Note_on_c, 0, 66, 67
2, 763126, Note_off_c, 0, 67, 64
2, 763128, Note_off_c, 0, 55, 64
2, 763137, Control_c, 0, 64, 0
2, 763176, Control_c, 0, 64, 127
2, 763226, Note_off_c, 0, 57, 64
2, 763239, Note_on_c, 0, 50, 59
2, 763249, Note_on_c, 0, 74, 64
2, 763255, Note_off_c, 0, 66, 64
2, 763258, Note_off_c, 0, 72, 64
2, 763290, Note_on_c, 0, 57, 60
2, 763291, Note_on_c, 0, 72, 65
2, 763300, Note_on_c, 0, 66, 69
2, 763301, Control_c, 0, 64, 0
2, 763308, Note_off_c, 0, 74, 64
2, 763310, Note_off_c, 0, 50, 64
2, 763360, Control_c, 0, 64, 127
2, 763490, Note_on_c, 0, 70, 63
2, 763497, Note_on_c, 0, 55, 58
2, 763498, Note_on_c, 0, 67, 46
2, 763503, Note_off_c, 0, 72, 64
2, 763517, Note_off_c, 0, 57, 64
2, 763523, Control_c, 0, 64, 0
2, 763529, Note_off_c, 0, 66, 64
2, 763572, Control_c, 0, 64, 127
2, 763644, Note_off_c, 0, 67, 64
2, 763660, Note_off_c, 0, 70, 64
2, 763678, Note_on_c, 0, 72, 63
2, 763681, Note_on_c, 0, 57, 65
2, 763687, Note_on_c, 0, 66, 66
2, 763690, Note_off_c, 0, 55, 64
2, 763710, Control_c, 0, 64, 0
2, 763748, Control_c, 0, 64, 127
2, 763822, Note_on_c, 0, 50, 43
2, 763830, Note_off_c, 0, 66, 64
2, 763831, Note_on_c, 0, 74, 57
2, 763838, Note_off_c, 0, 72, 64
2, 763841, Note_off_c, 0, 57, 64
2, 763874, Note_on_c, 0, 72, 58
2, 763876, Note_on_c, 0, 66, 58
2, 763883, Note_off_c, 0, 74, 64
2, 763887, Note_on_c, 0, 57, 49
2, 763892, Control_c, 0, 64, 0
2, 763913, Note_off_c, 0, 50, 64
2, 763939, Control_c, 0, 64, 127
2, 764102, Note_on_c, 0, 70, 55
2, 764109, Note_on_c, 0, 67, 42
2, 764113, Note_off_c, 0, 66, 64
2, 764115, Note_on_c, 0, 55, 48
2, 764119, Control_c, 0, 64, 0
2, 764134, Note_off_c, 0, 57, 64
2, 764134, Note_off_c, 0, 72, 64
2, 764152, Control_c, 0, 64, 127
2, 764194, Note_off_c, 0, 70, 64
2, 764200, Note_off_c, 0, 67, 64
2, 764362, Note_off_c, 0, 62, 64
2, 764367, Note_on_c, 0, 63, 49
2, 764369, Note_on_c, 0, 68, 57
2, 764371, Note_on_c, 0, 60, 46
2, 764396, Control_c, 0, 64, 0
2, 764460, Control_c, 0, 64, 127
2, 764851, Note_on_c, 0, 66, 46
2, 764869, Note_off_c, 0, 68, 64
2, 764877, Note_off_c, 0, 63, 64
2, 764949, Note_off_c, 0, 60, 64
2, 765144, Note_on_c, 0, 67, 40
2, 765153, Note_on_c, 0, 62, 32
2, 765156, Note_on_c, 0, 59, 34
2, 765179, Note_off_c, 0, 66, 64
2, 765180, Control_c, 0, 64, 0
2, 765238, Control_c, 0, 64, 127
2, 765372, Note_off_c, 0, 59, 64
2, 765428, Note_on_c, 0, 53, 32
2, 765450, Note_off_c, 0, 62, 64
2, 765508, Note_on_c, 0, 51, 52
2, 765510, Note_on_c, 0, 60, 51
2, 765529, Note_off_c, 0, 53, 64
2, 765569, Note_off_c, 0, 67, 64
2, 765596, Note_on_c, 0, 50, 26
2, 765600, Note_on_c, 0, 59, 58
2, 765601, Note_on_c, 0, 62, 54
2, 765614, Note_off_c, 0, 51, 64
2, 765616, Note_off_c, 0, 60, 64
2, 765674, Note_on_c, 0, 63, 46
2, 765690, Note_on_c, 0, 48, 35
2, 765691, Note_off_c, 0, 50, 64
2, 765695, Note_off_c, 0, 59, 64
2, 765696, Note_off_c, 0, 62, 64
2, 765699, Note_on_c, 0, 59, 26
2, 765722, Note_off_c, 0, 59, 64
2, 765765, Note_on_c, 0, 65, 64
2, 765766, Note_on_c, 0, 50, 60
2, 765770, Note_on_c, 0, 59, 65
2, 765778, Control_c, 0, 64, 0
2, 765779, Note_off_c, 0, 63, 64
2, 765782, Note_off_c, 0, 48, 64
2, 765818, Control_c, 0, 64, 127
2, 765889, Note_on_c, 0, 43, 65
2, 765900, Note_on_c, 0, 67, 59
2, 765912, Note_off_c, 0, 65, 64
2, 765913, Note_off_c, 0, 50, 64
2, 765917, Note_off_c, 0, 59, 64
2, 765946, Note_on_c, 0, 50, 64
2, 765946, Note_on_c, 0, 59, 66
2, 765946, Note_on_c, 0, 65, 60
2, 765957, Note_off_c, 0, 67, 64
2, 765958, Note_off_c, 0, 43, 64
2, 765962, Control_c, 0, 64, 0
2, 766001, Control_c, 0, 64, 127
2, 766124, Note_off_c, 0, 65, 64
2, 766132, Note_on_c, 0, 63, 59
2, 766137, Note_on_c, 0, 60, 59
2, 766139, Note_on_c, 0, 48, 54
2, 766145, Note_off_c, 0, 50, 64
2, 766156, Control_c, 0, 64, 0
2, 766160, Note_off_c, 0, 59, 64
2, 766196, Control_c, 0, 64, 127
2, 766309, Note_on_c, 0, 50, 64
2, 766314, Note_off_c, 0, 48, 64
2, 766314, Note_on_c, 0, 59, 57
2, 766318, Note_off_c, 0, 60, 64
2, 766321, Note_on_c, 0, 65, 58
2, 766331, Control_c, 0, 64, 0
2, 766348, Note_off_c, 0, 63, 64
2, 766371, Control_c, 0, 64, 127
2, 766445, Note_on_c, 0, 67, 57
2, 766446, Note_off_c, 0, 59, 64
2, 766448, Note_on_c, 0, 43, 60
2, 766453, Note_off_c, 0, 50, 64
2, 766459, Note_off_c, 0, 65, 64
2, 766492, Note_on_c, 0, 65, 57
2, 766492, Note_on_c, 0, 59, 57
2, 766498, Note_on_c, 0, 50, 59
2, 766505, Note_off_c, 0, 67, 64
2, 766505, Control_c, 0, 64, 0
2, 766518, Note_off_c, 0, 43, 64
2, 766563, Control_c, 0, 64, 127
2, 766727, Note_on_c, 0, 48, 48
2, 766734, Note_off_c, 0, 65, 64
2, 766734, Note_on_c, 0, 63, 37
2, 766734, Note_on_c, 0, 60, 48
2, 766743, Note_off_c, 0, 50, 64
2, 766743, Control_c, 0, 64, 0
2, 766770, Note_off_c, 0, 59, 64
2, 766802, Control_c, 0, 64, 127
2, 766954, Note_off_c, 0, 48, 64
2, 766960, Note_off_c, 0, 63, 64
2, 766961, Note_off_c, 0, 60, 64
2, 767037, Note_off_c, 0, 55, 64
2, 767038, Note_on_c, 0, 48, 51
2, 767068, Note_on_c, 0, 50, 65
2, 767086, Note_off_c, 0, 48, 64
2, 767107, Note_on_c, 0, 48, 60
2, 767127, Note_off_c, 0, 50, 64
2, 767137, Control_c, 0, 64, 0
2, 767158, Note_on_c, 0, 47, 59
2, 767173, Note_off_c, 0, 48, 64
2, 767254, Note_on_c, 0, 48, 63
2, 767281, Note_off_c, 0, 47, 64
2, 767346, Note_on_c, 0, 50, 58
2, 767368, Note_off_c, 0, 48, 64
2, 767382, Control_c, 0, 64, 127
2, 767440, Note_on_c, 0, 51, 65
2, 767474, Note_off_c, 0, 50, 64
2, 767551, Note_on_c, 0, 56, 64
2, 767554, Note_on_c, 0, 53, 55
2, 767568, Note_off_c, 0, 51, 64
2, 767600, Control_c, 0, 64, 0
2, 767816, Note_on_c, 0, 60, 66
2, 767862, Control_c, 0, 64, 127
2, 767906, Note_on_c, 0, 61, 64
2, 767955, Note_off_c, 0, 60, 64
2, 768004, Note_on_c, 0, 63, 64
2, 768049, Note_off_c, 0, 61, 64
2, 768094, Note_on_c, 0, 65, 57
2, 768135, Note_off_c, 0, 63, 64
2, 768186, Note_off_c, 0, 53, 64
2, 768186, Note_on_c, 0, 66, 66
2, 768190, Note_on_c, 0, 60, 58
2, 768194, Note_on_c, 0, 51, 55
2, 768203, Control_c, 0, 64, 0
2, 768222, Note_off_c, 0, 65, 64
2, 768253, Control_c, 0, 64, 127
2, 768335, Note_on_c, 0, 68, 72
2, 768361, Note_off_c, 0, 68, 64
2, 768376, Control_c, 0, 64, 0
2, 768390, Note_on_c, 0, 68, 72
2, 768428, Control_c, 0, 64, 127
2, 768552, Note_off_c, 0, 68, 64
2, 768587, Note_on_c, 0, 68, 74
2, 768626, Note_off_c, 0, 51, 64
2, 768634, Note_off_c, 0, 60, 64
2, 768724, Note_off_c, 0, 68, 64
2, 768786, Note_on_c, 0, 61, 47
2, 768790, Note_on_c, 0, 65, 63
2, 768790, Note_on_c, 0, 68, 64
2, 768793, Note_off_c, 0, 66, 64
2, 768796, Note_on_c, 0, 49, 31
2, 768805, Control_c, 0, 64, 0
2, 768852, Control_c, 0, 64, 127
2, 768859, Note_off_c, 0, 68, 64
2, 768933, Note_on_c, 0, 68, 65
2, 768956, Note_off_c, 0, 68, 64
2, 768972, Control_c, 0, 64, 0
2, 768979, Note_on_c, 0, 68, 77
2, 769002, Control_c, 0, 64, 127
2, 769168, Note_off_c, 0, 68, 64
2, 769186, Note_on_c, 0, 68, 70
2, 769195, Note_on_c, 0, 48, 48
2, 769200, Control_c, 0, 64, 0
2, 769206, Note_off_c, 0, 49, 64
2, 769238, Control_c, 0, 64, 127
2, 769329, Note_off_c, 0, 61, 64
2, 769333, Note_off_c, 0, 65, 64
2, 769358, Note_off_c, 0, 68, 64
2, 769434, Note_on_c, 0, 68, 46
2, 769438, Note_on_c, 0, 47, 41
2, 769441, Note_on_c, 0, 65, 52
2, 769447, Note_on_c, 0, 62, 34
2, 769468, Note_off_c, 0, 48, 64
2, 769473, Note_off_c, 0, 56, 64
2, 769474, Control_c, 0, 64, 0
2, 769534, Control_c, 0, 64, 127
2, 769803, Note_on_c, 0, 67, 31
2, 769814, Control_c, 0, 64, 0
2, 769832, Note_off_c, 0, 68, 64
2, 769863, Control_c, 0, 64, 127
2, 769941, Note_off_c, 0, 65, 64
2, 769954, Note_off_c, 0, 47, 64
2, 770016, Note_off_c, 0, 62, 64
2, 770076, Note_off_c, 0, 67, 64
2, 770241, Note_on_c, 0, 43, 57
2, 770292, Control_c, 0, 64, 0
2, 770441, Note_on_c, 0, 45, 54
2, 770461, Note_off_c, 0, 43, 64
2, 770531, Note_on_c, 0, 47, 59
2, 770563, Note_off_c, 0, 45, 64
2, 770628, Note_on_c, 0, 48, 54
2, 770652, Control_c, 0, 64, 127
2, 770676, Note_off_c, 0, 47, 64
2, 770724, Note_on_c, 0, 50, 44
2, 770729, Note_off_c, 0, 48, 64
2, 770809, Note_on_c, 0, 51, 60
2, 770812, Note_on_c, 0, 60, 1
2, 770814, Note_on_c, 0, 66, 65
2, 770814, Note_on_c, 0, 54, 56
2, 770827, Control_c, 0, 64, 0
2, 770838, Note_off_c, 0, 50, 64
2, 770938, Note_off_c, 0, 51, 64
2, 770953, Note_on_c, 0, 51, 65
2, 770985, Note_off_c, 0, 51, 64
2, 770989, Control_c, 0, 64, 127
2, 771014, Note_on_c, 0, 51, 57
2, 771172, Note_off_c, 0, 51, 64
2, 771202, Note_on_c, 0, 51, 57
2, 771346, Note_off_c, 0, 51, 64
2, 771380, Note_off_c, 0, 60, 64
2, 771382, Note_off_c, 0, 54, 64
2, 771382, Note_off_c, 0, 66, 64
2, 771387, Note_on_c, 0, 56, 46
2, 771391, Note_on_c, 0, 51, 57
2, 771394, Note_on_c, 0, 65, 50
2, 771394, Note_on_c, 0, 60, 50
2, 771437, Note_off_c, 0, 51, 64
2, 771520, Note_on_c, 0, 51, 57
2, 771558, Note_off_c, 0, 51, 64
2, 771580, Note_on_c, 0, 50, 60
2, 771588, Note_on_c, 0, 59, 58
2, 771603, Control_c, 0, 64, 0
2, 771609, Note_off_c, 0, 60, 64
2, 771623, Control_c, 0, 64, 127
2, 771793, Note_on_c, 0, 63, 58
2, 771800, Note_on_c, 0, 48, 64
2, 771809, Control_c, 0, 64, 0
2, 771816, Note_off_c, 0, 50, 64
2, 771819, Note_off_c, 0, 59, 64
2, 771852, Control_c, 0, 64, 127
2, 771973, Note_off_c, 0, 56, 64
2, 772016, Note_off_c, 0, 48, 64
2, 772035, Note_on_c, 0, 47, 65
2, 772042, Note_on_c, 0, 56, 39
2, 772088, Control_c, 0, 64, 0
2, 772162, Control_c, 0, 64, 127
2, 772448, Note_off_c, 0, 56, 64
2, 772474, Note_on_c, 0, 66, 67
2, 772483, Note_off_c, 0, 65, 64
2, 772488, Note_on_c, 0, 57, 39
2, 772500, Control_c, 0, 64, 0
2, 772533, Control_c, 0, 64, 127
2, 772586, Note_off_c, 0, 47, 64
2, 772689, Note_off_c, 0, 63, 64
2, 772720, Note_on_c, 0, 58, 48
2, 772729, Note_on_c, 0, 67, 64
2, 772735, Note_on_c, 0, 63, 58
2, 772739, Note_on_c, 0, 46, 37
2, 772740, Note_off_c, 0, 66, 64
2, 772761, Note_off_c, 0, 57, 64
2, 772762, Control_c, 0, 64, 0
2, 772799, Control_c, 0, 64, 127
2, 773030, Note_on_c, 0, 51, 40
2, 773049, Note_off_c, 0, 46, 64
2, 773136, Note_on_c, 0, 55, 51
2, 773181, Note_off_c, 0, 51, 64
2, 773228, Note_on_c, 0, 60, 57
2, 773247, Note_off_c, 0, 55, 64
2, 773300, Note_off_c, 0, 58, 64
2, 773304, Note_on_c, 0, 62, 64
2, 773308, Note_on_c, 0, 56, 42
2, 773308, Note_on_c, 0, 58, 52
2, 773322, Note_off_c, 0, 60, 64
2, 773331, Note_off_c, 0, 67, 64
2, 773350, Note_off_c, 0, 63, 64
2, 773410, Note_off_c, 0, 58, 64
2, 773417, Note_on_c, 0, 46, 63
2, 773482, Note_on_c, 0, 50, 72
2, 773488, Note_off_c, 0, 46, 64
2, 773524, Note_on_c, 0, 48, 71
2, 773545, Note_off_c, 0, 50, 64
2, 773553, Control_c, 0, 64, 0
2, 773653, Control_c, 0, 64, 127
2, 773682, Control_c, 0, 64, 0
2, 773730, Control_c, 0, 64, 127
2, 773738, Note_on_c, 0, 46, 71
2, 773774, Note_off_c, 0, 48, 64
2, 773872, Note_off_c, 0, 62, 64
2, 773876, Note_off_c, 0, 56, 64
2, 773940, Note_on_c, 0, 45, 62
2, 773944, Note_on_c, 0, 61, 62
2, 773944, Note_on_c, 0, 57, 41
2, 773944, Note_on_c, 0, 53, 41
2, 773947, Note_off_c, 0, 46, 64
2, 773969, Control_c, 0, 64, 0
2, 774029, Control_c, 0, 64, 127
2, 774088, Note_on_c, 0, 62, 58
2, 774097, Note_off_c, 0, 61, 64
2, 774150, Note_on_c, 0, 65, 57
2, 774170, Note_off_c, 0, 62, 64
2, 774235, Note_on_c, 0, 50, 58
2, 774258, Note_off_c, 0, 45, 64
2, 774268, Note_off_c, 0, 53, 64
2, 774332, Note_on_c, 0, 64, 62
2, 774332, Note_on_c, 0, 53, 56
2, 774340, Note_off_c, 0, 57, 64
2, 774376, Note_off_c, 0, 50, 64
2, 774378, Note_off_c, 0, 65, 64
2, 774424, Note_off_c, 0, 64, 64
2, 774424, Note_on_c, 0, 57, 51
2, 774457, Note_off_c, 0, 53, 64
2, 774520, Note_on_c, 0, 53, 59
2, 774527, Note_on_c, 0, 56, 69
2, 774528, Note_on_c, 0, 59, 59
2, 774530, Note_on_c, 0, 64, 59
2, 774533, Note_off_c, 0, 57, 64
2, 774542, Control_c, 0, 64, 127
2, 774545, Control_c, 0, 64, 0
2, 774574, Control_c, 0, 64, 127
2, 774611, Note_off_c, 0, 56, 64
2, 774666, Note_on_c, 0, 44, 59
2, 774712, Note_off_c, 0, 53, 64
2, 774730, Note_on_c, 0, 53, 57
2, 774735, Note_off_c, 0, 44, 64
2, 774743, Control_c, 0, 64, 0
2, 774790, Control_c, 0, 64, 127
2, 774951, Note_on_c, 0, 44, 56
2, 774954, Note_on_c, 0, 62, 62
2, 774968, Control_c, 0, 64, 0
2, 774982, Note_off_c, 0, 64, 64
2, 774993, Note_off_c, 0, 53, 64
2, 775000, Control_c, 0, 64, 127
2, 775029, Note_off_c, 0, 62, 64
2, 775032, Note_off_c, 0, 59, 64
2, 775046, Note_off_c, 0, 44, 64
2, 775174, Note_on_c, 0, 43, 52
2, 775174, Note_on_c, 0, 62, 65
2, 775174, Note_on_c, 0, 58, 64
2, 775178, Note_on_c, 0, 53, 64
2, 775191, Control_c, 0, 64, 0
2, 775191, Control_c, 0, 64, 0
2, 775247, Control_c, 0, 64, 127
2, 775324, Note_on_c, 0, 61, 66
2, 775346, Note_off_c, 0, 62, 64
2, 775373, Note_off_c, 0, 58, 64
2, 775380, Note_on_c, 0, 52, 64
2, 775386, Note_on_c, 0, 70, 80
2, 775390, Note_off_c, 0, 53, 64
2, 775393, Control_c, 0, 64, 0
2, 775407, Note_off_c, 0, 61, 64
2, 775443, Control_c, 0, 64, 127
2, 775602, Note_on_c, 0, 61, 71
2, 775609, Control_c, 0, 64, 0
2, 775620, Note_off_c, 0, 70, 64
2, 775634, Control_c, 0, 64, 127
2, 775702, Note_off_c, 0, 61, 64
2, 775812, Note_on_c, 0, 57, 63
2, 775813, Note_on_c, 0, 61, 66
2, 775950, Note_on_c, 0, 42, 64
2, 775956, Note_off_c, 0, 43, 64
2, 776015, Note_on_c, 0, 51, 77
2, 776029, Control_c, 0, 64, 0
2, 776030, Note_off_c, 0, 52, 64
2, 776035, Note_off_c, 0, 42, 64
2, 776080, Control_c, 0, 64, 127
2, 776138, Note_off_c, 0, 57, 64
2, 776234, Note_on_c, 0, 42, 60
2, 776235, Note_on_c, 0, 60, 70
2, 776248, Control_c, 0, 64, 0
2, 776268, Note_off_c, 0, 61, 64
2, 776281, Control_c, 0, 64, 127
2, 776325, Note_off_c, 0, 60, 64
2, 776446, Note_on_c, 0, 41, 57
2, 776453, Note_on_c, 0, 56, 63
2, 776457, Note_on_c, 0, 60, 71
2, 776462, Note_off_c, 0, 42, 64
2, 776463, Control_c, 0, 64, 0
2, 776502, Control_c, 0, 64, 127
2, 776521, Note_off_c, 0, 51, 64
2, 776624, Note_on_c, 0, 61, 69
2, 776643, Note_off_c, 0, 60, 64
2, 776669, Note_off_c, 0, 56, 64
2, 776696, Note_on_c, 0, 49, 64
2, 776698, Note_on_c, 0, 68, 66
2, 776807, Note_on_c, 0, 39, 60
2, 776819, Note_off_c, 0, 41, 64
2, 776833, Note_off_c, 0, 49, 64
2, 776885, Note_off_c, 0, 68, 64
2, 776920, Note_on_c, 0, 68, 66
2, 776920, Note_on_c, 0, 65, 66
2, 776921, Note_on_c, 0, 37, 65
2, 776934, Note_off_c, 0, 39, 64
2, 776945, Note_off_c, 0, 61, 64
2, 777046, Note_on_c, 0, 61, 55
2, 777054, Note_on_c, 0, 29, 65
2, 777078, Note_off_c, 0, 37, 64
2, 777123, Note_off_c, 0, 65, 64
2, 777123, Note_off_c, 0, 68, 64
2, 777214, Note_on_c, 0, 68, 60
2, 777222, Note_on_c, 0, 65, 59
2, 777222, Note_on_c, 0, 59, 48
2, 777224, Note_on_c, 0, 31, 59
2, 777235, Control_c, 0, 64, 0
2, 777253, Note_off_c, 0, 61, 64
2, 777261, Note_off_c, 0, 29, 64
2, 777274, Control_c, 0, 64, 127
2, 777390, Note_on_c, 0, 43, 59
2, 777403, Control_c, 0, 64, 0
2, 777423, Control_c, 0, 64, 127
2, 777562, Note_on_c, 0, 50, 66
2, 777570, Control_c, 0, 64, 0
2, 777600, Control_c, 0, 64, 127
2, 777727, Note_off_c, 0, 43, 64
2, 777746, Note_off_c, 0, 65, 64
2, 777757, Note_off_c, 0, 68, 64
2, 777765, Note_off_c, 0, 31, 64
2, 777767, Note_off_c, 0, 59, 64
2, 777936, Note_on_c, 0, 67, 64
2, 777940, Note_on_c, 0, 65, 64
2, 777949, Note_on_c, 0, 59, 63
2, 777956, Control_c, 0, 64, 0
2, 777985, Control_c, 0, 64, 127
2, 777994, Note_off_c, 0, 50, 64
2, 778191, Note_off_c, 0, 65, 64
2, 778199, Note_off_c, 0, 67, 64
2, 778200, Note_off_c, 0, 59, 64
2, 778264, Note_on_c, 0, 36, 48
2, 778310, Note_on_c, 0, 48, 31
2, 778351, Note_on_c, 0, 72, 66
2, 778354, Note_on_c, 0, 60, 57
2, 778365, Control_c, 0, 64, 0
2, 778387, Control_c, 0, 64, 127
2, 778395, Note_off_c, 0, 36, 64
2, 778423, Note_off_c, 0, 48, 64
2, 778544, Note_on_c, 0, 64, 49
2, 778591, Note_off_c, 0, 60, 64
2, 778705, Note_off_c, 0, 72, 64
2, 778711, Note_on_c, 0, 67, 59
2, 778730, Note_off_c, 0, 64, 64
2, 778824, Note_on_c, 0, 70, 47
2, 778855, Note_off_c, 0, 67, 64
2, 778944, Note_on_c, 0, 71, 60
2, 778944, Note_on_c, 0, 55, 23
2, 778951, Note_on_c, 0, 64, 47
2, 778960, Note_off_c, 0, 70, 64
2, 779049, Note_on_c, 0, 72, 58
2, 779065, Note_off_c, 0, 71, 64
2, 779106, Note_off_c, 0, 55, 64
2, 779113, Note_off_c, 0, 64, 64
2, 779157, Note_on_c, 0, 48, 46
2, 779164, Note_on_c, 0, 73, 59
2, 779187, Note_off_c, 0, 72, 64
2, 779187, Control_c, 0, 64, 0
2, 779207, Control_c, 0, 64, 127
2, 779277, Note_on_c, 0, 70, 51
2, 779288, Note_off_c, 0, 73, 64
2, 779385, Control_c, 0, 64, 0
2, 779390, Note_on_c, 0, 64, 31
2, 779392, Note_on_c, 0, 55, 40
2, 779396, Note_on_c, 0, 80, 71
2, 779402, Control_c, 0, 64, 127
2, 779421, Note_off_c, 0, 48, 64
2, 779423, Note_off_c, 0, 70, 64
2, 779458, Note_off_c, 0, 55, 64
2, 779461, Note_off_c, 0, 64, 64
2, 779620, Note_on_c, 0, 64, 43
2, 779621, Note_on_c, 0, 55, 52
2, 779730, Note_on_c, 0, 79, 63
2, 779738, Note_off_c, 0, 80, 64
2, 779831, Note_on_c, 0, 48, 59
2, 779836, Note_off_c, 0, 64, 64
2, 779837, Note_off_c, 0, 55, 64
2, 779841, Control_c, 0, 64, 0
2, 779854, Control_c, 0, 64, 127
2, 779877, Note_off_c, 0, 79, 64
2, 780027, Note_on_c, 0, 70, 69
2, 780033, Note_on_c, 0, 61, 55
2, 780034, Note_on_c, 0, 64, 54
2, 780051, Control_c, 0, 64, 0
2, 780063, Control_c, 0, 64, 127
2, 780192, Note_off_c, 0, 64, 64
2, 780221, Note_on_c, 0, 72, 52
2, 780229, Note_off_c, 0, 61, 64
2, 780234, Note_off_c, 0, 70, 64
2, 780244, Note_on_c, 0, 64, 43
2, 780248, Note_on_c, 0, 61, 73
2, 780253, Note_on_c, 0, 70, 51
2, 780267, Control_c, 0, 64, 0
2, 780277, Control_c, 0, 64, 127
2, 780285, Note_off_c, 0, 72, 64
2, 780319, Note_off_c, 0, 48, 64
2, 780359, Note_on_c, 0, 69, 51
2, 780365, Note_off_c, 0, 70, 64
2, 780443, Note_on_c, 0, 48, 57
2, 780449, Note_on_c, 0, 68, 57
2, 780459, Control_c, 0, 64, 0
2, 780466, Note_off_c, 0, 69, 64
2, 780492, Control_c, 0, 64, 127
2, 780548, Note_off_c, 0, 64, 64
2, 780550, Note_off_c, 0, 68, 64
2, 780552, Note_off_c, 0, 61, 64
2, 780632, Note_on_c, 0, 64, 48
2, 780632, Note_on_c, 0, 61, 48
2, 780636, Note_on_c, 0, 68, 54
2, 780636, Note_on_c, 0, 58, 52
2, 780662, Control_c, 0, 64, 0
2, 780675, Control_c, 0, 64, 127
2, 780776, Note_on_c, 0, 70, 46
2, 780782, Note_off_c, 0, 68, 64
2, 780795, Note_off_c, 0, 61, 64
2, 780795, Note_off_c, 0, 64, 64
2, 780799, Note_off_c, 0, 58, 64
2, 780813, Note_on_c, 0, 68, 60
2, 780816, Note_on_c, 0, 64, 62
2, 780816, Note_on_c, 0, 61, 62
2, 780825, Note_on_c, 0, 58, 51
2, 780840, Control_c, 0, 64, 0
2, 780862, Control_c, 0, 64, 127
2, 780866, Note_off_c, 0, 70, 64
2, 780905, Note_on_c, 0, 67, 54
2, 780918, Note_off_c, 0, 68, 64
2, 780966, Note_off_c, 0, 58, 64
2, 780979, Note_off_c, 0, 61, 64
2, 780979, Note_off_c, 0, 64, 64
2, 780984, Note_on_c, 0, 36, 55
2, 781000, Note_off_c, 0, 48, 64
2, 781012, Note_on_c, 0, 65, 54
2, 781030, Note_off_c, 0, 67, 64
2, 781030, Control_c, 0, 64, 0
2, 781041, Control_c, 0, 64, 127
2, 781132, Note_on_c, 0, 79, 69
2, 781171, Note_off_c, 0, 65, 64
2, 781171, Note_off_c, 0, 36, 64
2, 781240, Note_on_c, 0, 56, 35
2, 781251, Note_on_c, 0, 65, 40
2, 781256, Note_on_c, 0, 77, 58
2, 781285, Note_off_c, 0, 79, 64
2, 781312, Note_off_c, 0, 56, 64
2, 781321, Note_off_c, 0, 65, 64
2, 781345, Note_on_c, 0, 76, 57
2, 781388, Note_off_c, 0, 77, 64
2, 781433, Note_on_c, 0, 56, 51
2, 781441, Note_on_c, 0, 65, 43
2, 781447, Note_on_c, 0, 75, 51
2, 781470, Note_off_c, 0, 76, 64
2, 781486, Note_off_c, 0, 65, 64
2, 781487, Note_off_c, 0, 56, 64
2, 781539, Note_on_c, 0, 74, 62
2, 781562, Note_off_c, 0, 75, 64
2, 781659, Note_on_c, 0, 48, 59
2, 781678, Control_c, 0, 64, 0
2, 781699, Control_c, 0, 64, 127
2, 781784, Note_on_c, 0, 75, 54
2, 781797, Note_off_c, 0, 74, 64
2, 781817, Note_on_c, 0, 73, 59
2, 781843, Note_off_c, 0, 75, 64
2, 781850, Note_on_c, 0, 65, 48
2, 781858, Note_on_c, 0, 56, 48
2, 781878, Note_on_c, 0, 72, 59
2, 781891, Note_off_c, 0, 73, 64
2, 781940, Note_off_c, 0, 65, 64
2, 781948, Note_off_c, 0, 56, 64
2, 781961, Note_on_c, 0, 71, 66
2, 781982, Note_off_c, 0, 48, 64
2, 782008, Note_off_c, 0, 72, 64
2, 782032, Note_on_c, 0, 65, 52
2, 782046, Note_on_c, 0, 68, 57
2, 782052, Note_on_c, 0, 56, 54
2, 782075, Note_off_c, 0, 71, 64
2, 782150, Note_on_c, 0, 67, 73
2, 782162, Note_off_c, 0, 65, 64
2, 782182, Note_off_c, 0, 56, 64
2, 782196, Note_off_c, 0, 68, 64
2, 782256, Note_on_c, 0, 36, 72
2, 782259, Control_c, 0, 64, 0
2, 782281, Control_c, 0, 64, 127
2, 782387, Note_on_c, 0, 65, 70
2, 782389, Note_off_c, 0, 67, 64
2, 782423, Note_off_c, 0, 65, 64
2, 782445, Note_on_c, 0, 65, 63
2, 782446, Note_on_c, 0, 59, 64
2, 782448, Note_on_c, 0, 55, 60
2, 782465, Control_c, 0, 64, 0
2, 782494, Control_c, 0, 64, 127
2, 782537, Note_off_c, 0, 36, 64
2, 782554, Note_off_c, 0, 65, 64
2, 782573, Note_off_c, 0, 59, 64
2, 782575, Note_off_c, 0, 55, 64
2, 782650, Note_on_c, 0, 65, 64
2, 782656, Note_on_c, 0, 59, 60
2, 782658, Note_on_c, 0, 55, 57
2, 782793, Note_off_c, 0, 59, 64
2, 782795, Note_off_c, 0, 55, 64
2, 782809, Note_off_c, 0, 65, 64
2, 782850, Note_on_c, 0, 43, 51
2, 782975, Note_on_c, 0, 65, 63
2, 783028, Note_on_c, 0, 59, 52
2, 783035, Note_on_c, 0, 55, 58
2, 783040, Note_on_c, 0, 67, 66
2, 783058, Note_off_c, 0, 65, 64
2, 783058, Control_c, 0, 64, 0
2, 783098, Control_c, 0, 64, 127
2, 783163, Note_off_c, 0, 55, 64
2, 783175, Note_off_c, 0, 59, 64
2, 783203, Note_off_c, 0, 43, 64
2, 783240, Note_on_c, 0, 59, 51
2, 783240, Note_on_c, 0, 55, 48
2, 783243, Note_on_c, 0, 62, 64
2, 783257, Note_off_c, 0, 67, 64
2, 783402, Note_off_c, 0, 59, 64
2, 783410, Note_off_c, 0, 55, 64
2, 783439, Note_on_c, 0, 36, 48
2, 783460, Note_on_c, 0, 64, 52
2, 783467, Control_c, 0, 64, 0
2, 783478, Note_off_c, 0, 62, 64
2, 783499, Control_c, 0, 64, 127
2, 783558, Note_on_c, 0, 66, 49
2, 783564, Note_off_c, 0, 64, 64
2, 783655, Note_on_c, 0, 64, 43
2, 783656, Note_on_c, 0, 67, 48
2, 783656, Note_on_c, 0, 55, 43
2, 783666, Note_off_c, 0, 66, 64
2, 783715, Note_off_c, 0, 55, 64
2, 783719, Note_off_c, 0, 64, 64
2, 783729, Note_off_c, 0, 36, 64
2, 783744, Note_on_c, 0, 68, 63
2, 783768, Note_off_c, 0, 67, 64
2, 783836, Note_on_c, 0, 64, 46
2, 783836, Note_on_c, 0, 55, 46
2, 783839, Note_on_c, 0, 70, 60
2, 783861, Note_off_c, 0, 68, 64
2, 783883, Note_off_c, 0, 55, 64
2, 783921, Note_on_c, 0, 72, 64
2, 783935, Note_off_c, 0, 70, 64
2, 784019, Note_on_c, 0, 73, 70
2, 784019, Note_on_c, 0, 48, 58
2, 784026, Control_c, 0, 64, 0
2, 784035, Note_off_c, 0, 72, 64
2, 784048, Control_c, 0, 64, 127
2, 784065, Note_off_c, 0, 64, 64
2, 784104, Note_on_c, 0, 70, 66
2, 784122, Note_off_c, 0, 73, 64
2, 784216, Note_off_c, 0, 48, 64
2, 784226, Note_off_c, 0, 70, 64
2, 784229, Note_on_c, 0, 64, 51
2, 784234, Note_on_c, 0, 80, 70
2, 784238, Note_on_c, 0, 55, 46
2, 784252, Control_c, 0, 64, 0
2, 784271, Control_c, 0, 64, 127
2, 784291, Note_off_c, 0, 55, 64
2, 784295, Note_off_c, 0, 64, 64
2, 784428, Note_on_c, 0, 55, 48
2, 784434, Note_on_c, 0, 64, 34
2, 784526, Note_on_c, 0, 79, 74
2, 784542, Note_off_c, 0, 80, 64
2, 784691, Note_on_c, 0, 48, 34
2, 784732, Note_on_c, 0, 85, 81
2, 784752, Control_c, 0, 64, 0
2, 784755, Note_off_c, 0, 79, 64
2, 784784, Control_c, 0, 64, 127
2, 784797, Note_off_c, 0, 55, 64
2, 784820, Note_off_c, 0, 64, 64
2, 784984, Note_on_c, 0, 64, 51
2, 784987, Note_on_c, 0, 70, 54
2, 784988, Note_on_c, 0, 61, 48
2, 785061, Note_off_c, 0, 85, 64
2, 785070, Note_off_c, 0, 48, 64
2, 785115, Note_off_c, 0, 64, 64
2, 785119, Note_off_c, 0, 61, 64
2, 785134, Note_on_c, 0, 72, 55
2, 785148, Note_off_c, 0, 70, 64
2, 785170, Note_on_c, 0, 70, 64
2, 785175, Note_on_c, 0, 61, 50
2, 785178, Note_on_c, 0, 64, 50
2, 785197, Note_off_c, 0, 72, 64
2, 785273, Note_on_c, 0, 69, 54
2, 785286, Note_off_c, 0, 70, 64
2, 785326, Note_off_c, 0, 64, 64
2, 785350, Note_off_c, 0, 61, 64
2, 785356, Note_on_c, 0, 48, 64
2, 785360, Note_on_c, 0, 68, 60
2, 785380, Note_off_c, 0, 69, 64
2, 785384, Control_c, 0, 64, 0
2, 785414, Control_c, 0, 64, 127
2, 785474, Note_off_c, 0, 68, 64
2, 785544, Note_on_c, 0, 58, 43
2, 785545, Note_on_c, 0, 68, 55
2, 785550, Note_on_c, 0, 64, 43
2, 785552, Note_on_c, 0, 61, 43
2, 785577, Control_c, 0, 64, 0
2, 785606, Control_c, 0, 64, 127
2, 785629, Note_off_c, 0, 58, 64
2, 785635, Note_off_c, 0, 64, 64
2, 785637, Note_off_c, 0, 61, 64
2, 785638, Note_off_c, 0, 48, 64
2, 785689, Note_on_c, 0, 70, 51
2, 785706, Note_off_c, 0, 68, 64
2, 785720, Note_on_c, 0, 68, 64
2, 785720, Note_on_c, 0, 64, 44
2, 785728, Note_on_c, 0, 61, 51
2, 785734, Note_on_c, 0, 58, 44
2, 785780, Note_off_c, 0, 70, 64
2, 785813, Note_off_c, 0, 61, 64
2, 785819, Note_off_c, 0, 58, 64
2, 785825, Note_on_c, 0, 67, 57
2, 785831, Note_off_c, 0, 64, 64
2, 785848, Note_off_c, 0, 68, 64
2, 785934, Note_on_c, 0, 36, 72
2, 785938, Note_on_c, 0, 65, 55
2, 785943, Control_c, 0, 64, 0
2, 785953, Note_off_c, 0, 67, 64
2, 785956, Control_c, 0, 64, 127
2, 786031, Note_on_c, 0, 79, 65
2, 786058, Note_off_c, 0, 65, 64
2, 786127, Note_on_c, 0, 77, 60
2, 786128, Note_on_c, 0, 56, 37
2, 786130, Note_on_c, 0, 65, 47
2, 786140, Control_c, 0, 64, 0
2, 786152, Control_c, 0, 64, 127
2, 786160, Note_off_c, 0, 79, 64
2, 786212, Note_off_c, 0, 36, 64
2, 786212, Note_on_c, 0, 76, 64
2, 786221, Note_off_c, 0, 65, 64
2, 786231, Note_off_c, 0, 56, 64
2, 786242, Note_off_c, 0, 77, 64
2, 786296, Note_on_c, 0, 65, 51
2, 786303, Note_on_c, 0, 75, 59
2, 786303, Note_on_c, 0, 56, 49
2, 786327, Note_off_c, 0, 76, 64
2, 786383, Note_on_c, 0, 74, 57
2, 786392, Note_off_c, 0, 75, 64
2, 786418, Note_off_c, 0, 65, 64
2, 786425, Note_off_c, 0, 56, 64
2, 786478, Note_on_c, 0, 73, 71
2, 786484, Note_on_c, 0, 48, 43
2, 786497, Control_c, 0, 64, 0
2, 786507, Note_off_c, 0, 74, 64
2, 786530, Control_c, 0, 64, 127
2, 786574, Note_on_c, 0, 75, 63
2, 786582, Note_off_c, 0, 73, 64
2, 786625, Note_on_c, 0, 73, 57
2, 786641, Note_off_c, 0, 75, 64
2, 786656, Note_on_c, 0, 65, 41
2, 786661, Note_on_c, 0, 56, 42
2, 786666, Note_on_c, 0, 72, 59
2, 786682, Note_off_c, 0, 73, 64
2, 786748, Note_on_c, 0, 71, 60
2, 786759, Note_off_c, 0, 65, 64
2, 786766, Note_off_c, 0, 56, 64
2, 786767, Note_off_c, 0, 72, 64
2, 786816, Note_off_c, 0, 48, 64
2, 786848, Note_on_c, 0, 65, 40
2, 786854, Note_on_c, 0, 68, 52
2, 786863, Note_on_c, 0, 56, 49
2, 786887, Note_off_c, 0, 71, 64
2, 786915, Note_off_c, 0, 65, 64
2, 786960, Note_on_c, 0, 65, 51
2, 786965, Note_off_c, 0, 56, 64
2, 786988, Note_off_c, 0, 68, 64
2, 787080, Note_on_c, 0, 36, 63
2, 787092, Note_on_c, 0, 80, 64
2, 787112, Note_off_c, 0, 65, 64
2, 787254, Note_on_c, 0, 65, 60
2, 787314, Note_off_c, 0, 65, 64
2, 787324, Note_on_c, 0, 65, 59
2, 787331, Note_on_c, 0, 59, 49
2, 787332, Note_on_c, 0, 56, 25
2, 787365, Note_off_c, 0, 36, 64
2, 787374, Note_off_c, 0, 80, 64
2, 787468, Note_off_c, 0, 65, 64
2, 787472, Note_off_c, 0, 59, 64
2, 787473, Note_off_c, 0, 56, 64
2, 787522, Note_on_c, 0, 65, 54
2, 787527, Note_on_c, 0, 56, 47
2, 787530, Note_on_c, 0, 59, 37
2, 787708, Note_on_c, 0, 43, 60
2, 787844, Note_off_c, 0, 65, 64
2, 787861, Note_on_c, 0, 65, 40
2, 787883, Note_off_c, 0, 56, 64
2, 787886, Note_off_c, 0, 59, 64
2, 787924, Note_on_c, 0, 55, 43
2, 787924, Note_on_c, 0, 59, 57
2, 787927, Note_on_c, 0, 63, 59
2, 787947, Note_off_c, 0, 65, 64
2, 787963, Control_c, 0, 64, 0
2, 787975, Control_c, 0, 64, 127
2, 788114, Note_off_c, 0, 59, 64
2, 788139, Note_off_c, 0, 55, 64
2, 788168, Note_on_c, 0, 59, 55
2, 788170, Note_on_c, 0, 61, 51
2, 788172, Note_on_c, 0, 55, 46
2, 788179, Note_off_c, 0, 63, 64
2, 788192, Control_c, 0, 64, 0
2, 788195, Control_c, 0, 64, 0
2, 788207, Control_c, 0, 64, 127
2, 788211, Control_c, 0, 64, 127
2, 788344, Note_off_c, 0, 43, 64
2, 788349, Note_off_c, 0, 55, 64
2, 788358, Note_off_c, 0, 59, 64
2, 788415, Note_on_c, 0, 60, 46
2, 788415, Note_on_c, 0, 36, 64
2, 788420, Note_off_c, 0, 61, 64
2, 788435, Control_c, 0, 64, 0
2, 788466, Control_c, 0, 64, 127
2, 788677, Note_on_c, 0, 52, 70
2, 788685, Note_on_c, 0, 70, 60
2, 788716, Control_c, 0, 64, 0
2, 788720, Note_off_c, 0, 36, 64
2, 788754, Control_c, 0, 64, 127
2, 788765, Note_on_c, 0, 68, 58
2, 788778, Note_on_c, 0, 53, 52
2, 788808, Note_off_c, 0, 70, 64
2, 788816, Note_off_c, 0, 52, 64
2, 788867, Note_on_c, 0, 67, 60
2, 788867, Note_on_c, 0, 55, 60
2, 788889, Note_off_c, 0, 60, 64
2, 788892, Note_off_c, 0, 53, 64
2, 788908, Note_off_c, 0, 68, 64
2, 788951, Note_on_c, 0, 56, 66
2, 788951, Note_on_c, 0, 65, 65
2, 788964, Note_off_c, 0, 55, 64
2, 788971, Note_off_c, 0, 67, 64
2, 789052, Note_on_c, 0, 61, 66
2, 789052, Note_on_c, 0, 64, 66
2, 789052, Note_on_c, 0, 67, 60
2, 789056, Note_on_c, 0, 48, 64
2, 789056, Note_on_c, 0, 58, 72
2, 789064, Note_off_c, 0, 65, 64
2, 789065, Note_on_c, 0, 58, 72
2, 789079, Note_on_c, 0, 67, 60
2, 789083, Control_c, 0, 64, 0
2, 789084, Note_off_c, 0, 56, 64
2, 789121, Control_c, 0, 64, 127
2, 789183, Note_on_c, 0, 68, 59
2, 789196, Note_off_c, 0, 61, 64
2, 789197, Note_on_c, 0, 60, 74
2, 789202, Note_off_c, 0, 64, 64
2, 789210, Note_off_c, 0, 58, 64
2, 789210, Note_off_c, 0, 58, 64
2, 789230, Note_on_c, 0, 67, 72
2, 789240, Note_on_c, 0, 64, 66
2, 789240, Note_on_c, 0, 61, 52
2, 789243, Note_on_c, 0, 58, 71
2, 789252, Note_off_c, 0, 68, 64
2, 789255, Control_c, 0, 64, 0
2, 789265, Note_on_c, 0, 58, 72
2, 789272, Note_off_c, 0, 60, 64
2, 789276, Note_off_c, 0, 67, 64
2, 789276, Note_off_c, 0, 67, 64
2, 789279, Note_on_c, 0, 67, 60
2, 789295, Control_c, 0, 64, 127
2, 789377, Note_off_c, 0, 58, 64
2, 789384, Note_off_c, 0, 67, 64
2, 789384, Note_off_c, 0, 64, 64
2, 789410, Note_off_c, 0, 58, 64
2, 789425, Note_on_c, 0, 65, 66
2, 789426, Note_on_c, 0, 56, 64
2, 789442, Note_off_c, 0, 67, 64
2, 789546, Note_off_c, 0, 65, 64
2, 789547, Note_off_c, 0, 56, 64
2, 789616, Note_on_c, 0, 65, 51
2, 789616, Note_on_c, 0, 56, 71
2, 789621, Note_on_c, 0, 73, 56
2, 789625, Note_off_c, 0, 61, 64
2, 789635, Control_c, 0, 64, 0
2, 789667, Control_c, 0, 64, 127
2, 789768, Note_on_c, 0, 77, 50
2, 789768, Note_on_c, 0, 68, 28
2, 789788, Note_off_c, 0, 73, 64
2, 789790, Note_off_c, 0, 65, 64
2, 789805, Note_off_c, 0, 56, 64
2, 789807, Note_off_c, 0, 68, 64
2, 789807, Note_off_c, 0, 77, 64
2, 789818, Note_on_c, 0, 58, 64
2, 789821, Note_on_c, 0, 68, 57
2, 789826, Note_on_c, 0, 77, 56
2, 789835, Control_c, 0, 64, 0
2, 789865, Control_c, 0, 64, 127
2, 789923, Note_on_c, 0, 60, 77
2, 789924, Note_off_c, 0, 58, 64
2, 790018, Note_on_c, 0, 65, 71
2, 790024, Note_on_c, 0, 61, 54
2, 790027, Note_on_c, 0, 73, 62
2, 790032, Note_off_c, 0, 68, 64
2, 790034, Control_c, 0, 64, 0
2, 790037, Note_off_c, 0, 77, 64
2, 790047, Control_c, 0, 64, 127
2, 790053, Note_off_c, 0, 60, 64
2, 790119, Note_on_c, 0, 63, 54
2, 790127, Note_off_c, 0, 61, 64
2, 790209, Note_off_c, 0, 65, 64
2, 790220, Note_on_c, 0, 61, 74
2, 790221, Note_on_c, 0, 65, 82
2, 790223, Note_off_c, 0, 48, 64
2, 790225, Note_on_c, 0, 68, 50
2, 790233, Note_off_c, 0, 63, 64
2, 790238, Note_off_c, 0, 73, 64
2, 790325, Note_on_c, 0, 60, 55
2, 790336, Note_off_c, 0, 61, 64
2, 790380, Note_on_c, 0, 67, 46
2, 790392, Note_off_c, 0, 68, 64
2, 790425, Note_off_c, 0, 67, 64
2, 790440, Note_on_c, 0, 67, 49
2, 790440, Note_on_c, 0, 59, 77
2, 790469, Note_off_c, 0, 60, 64
2, 790474, Control_c, 0, 64, 0
2, 790506, Control_c, 0, 64, 127
2, 790520, Note_off_c, 0, 65, 64
2, 790611, Note_off_c, 0, 59, 64
2, 790611, Note_off_c, 0, 67, 64
2, 790659, Note_on_c, 0, 65, 64
2, 790660, Note_on_c, 0, 55, 52
2, 790662, Note_on_c, 0, 74, 65
2, 790669, Control_c, 0, 64, 0
2, 790699, Control_c, 0, 64, 127
2, 790848, Note_on_c, 0, 48, 64
2, 790848, Note_on_c, 0, 36, 64
2, 790856, Note_off_c, 0, 65, 64
2, 790860, Note_on_c, 0, 64, 57
2, 790865, Note_off_c, 0, 74, 64
2, 790870, Note_on_c, 0, 72, 57
2, 790881, Control_c, 0, 64, 0
2, 790905, Note_off_c, 0, 55, 64
2, 790911, Control_c, 0, 64, 127
2, 790960, Note_on_c, 0, 71, 63
2, 790979, Note_off_c, 0, 72, 64
2, 791023, Note_off_c, 0, 64, 64
2, 791064, Note_on_c, 0, 72, 83
2, 791065, Note_on_c, 0, 52, 64
2, 791066, Note_on_c, 0, 70, 77
2, 791080, Note_off_c, 0, 71, 64
2, 791097, Control_c, 0, 64, 0
2, 791125, Control_c, 0, 64, 127
2, 791163, Note_on_c, 0, 68, 64
2, 791164, Note_on_c, 0, 53, 70
2, 791169, Note_off_c, 0, 70, 64
2, 791171, Note_off_c, 0, 52, 64
2, 791251, Note_off_c, 0, 72, 64
2, 791255, Note_on_c, 0, 55, 71
2, 791256, Note_on_c, 0, 67, 72
2, 791265, Control_c, 0, 64, 0
2, 791267, Note_off_c, 0, 68, 64
2, 791268, Note_off_c, 0, 53, 64
2, 791272, Note_on_c, 0, 72, 83
2, 791279, Note_off_c, 0, 36, 64
2, 791304, Control_c, 0, 64, 127
2, 791333, Note_on_c, 0, 56, 59
2, 791338, Note_on_c, 0, 65, 60
2, 791346, Note_off_c, 0, 55, 64
2, 791347, Note_off_c, 0, 67, 64
2, 791413, Note_off_c, 0, 72, 64
2, 791436, Note_on_c, 0, 72, 79
2, 791445, Note_on_c, 0, 67, 66
2, 791446, Note_on_c, 0, 58, 87
2, 791448, Note_on_c, 0, 64, 48
2, 791452, Note_off_c, 0, 56, 64
2, 791457, Note_off_c, 0, 65, 64
2, 791465, Control_c, 0, 64, 0
2, 791494, Control_c, 0, 64, 127
2, 791580, Note_on_c, 0, 68, 48
2, 791584, Note_on_c, 0, 60, 72
2, 791597, Note_off_c, 0, 67, 64
2, 791598, Note_off_c, 0, 58, 64
2, 791624, Note_on_c, 0, 58, 66
2, 791626, Note_on_c, 0, 67, 74
2, 791648, Note_off_c, 0, 68, 64
2, 791652, Note_off_c, 0, 60, 64
2, 791655, Control_c, 0, 64, 0
2, 791703, Control_c, 0, 64, 127
2, 791792, Note_off_c, 0, 64, 64
2, 791824, Note_on_c, 0, 56, 70
2, 791837, Note_on_c, 0, 65, 66
2, 791840, Note_on_c, 0, 73, 71
2, 791849, Control_c, 0, 64, 0
2, 791851, Note_off_c, 0, 58, 64
2, 791853, Note_off_c, 0, 67, 64
2, 791853, Note_off_c, 0, 72, 64
2, 791881, Control_c, 0, 64, 127
2, 791971, Note_off_c, 0, 56, 64
2, 791979, Note_off_c, 0, 65, 64
2, 792056, Note_on_c, 0, 56, 70
2, 792065, Control_c, 0, 64, 127
2, 792123, Note_on_c, 0, 80, 72
2, 792223, Note_on_c, 0, 58, 64
2, 792225, Note_off_c, 0, 56, 64
2, 792230, Note_on_c, 0, 77, 64
2, 792231, Note_on_c, 0, 68, 80
2, 792248, Note_off_c, 0, 80, 64
2, 792256, Control_c, 0, 64, 0
2, 792261, Note_off_c, 0, 73, 64
2, 792286, Control_c, 0, 64, 127
2, 792328, Note_on_c, 0, 60, 64
2, 792347, Note_off_c, 0, 58, 64
2, 792416, Note_on_c, 0, 61, 71
2, 792416, Note_on_c, 0, 61, 71
2, 792424, Note_on_c, 0, 73, 72
2, 792424, Note_on_c, 0, 65, 72
2, 792431, Note_off_c, 0, 60, 64
2, 792486, Note_off_c, 0, 77, 64
2, 792487, Note_off_c, 0, 68, 64
2, 792509, Note_on_c, 0, 63, 64
2, 792533, Note_off_c, 0, 61, 64
2, 792533, Note_off_c, 0, 61, 64
2, 792607, Note_off_c, 0, 65, 64
2, 792616, Note_on_c, 0, 61, 70
2, 792623, Note_on_c, 0, 65, 66
2, 792624, Note_on_c, 0, 68, 59
2, 792627, Note_off_c, 0, 73, 64
2, 792642, Note_off_c, 0, 48, 64
2, 792643, Note_off_c, 0, 63, 64
2, 792714, Note_on_c, 0, 60, 77
2, 792726, Note_off_c, 0, 61, 64
2, 792780, Note_on_c, 0, 67, 66
2, 792787, Note_off_c, 0, 68, 64
2, 792825, Note_off_c, 0, 67, 64
2, 792827, Control_c, 0, 64, 0
2, 792835, Note_on_c, 0, 67, 70
2, 792835, Note_on_c, 0, 59, 66
2, 792863, Control_c, 0, 64, 127
2, 792867, Note_off_c, 0, 60, 64
2, 793032, Note_off_c, 0, 65, 64
2, 793069, Note_on_c, 0, 74, 58
2, 793069, Note_on_c, 0, 55, 59
2, 793072, Note_on_c, 0, 65, 72
2, 793092, Note_off_c, 0, 59, 64
2, 793092, Note_off_c, 0, 67, 64
2, 793099, Control_c, 0, 64, 0
2, 793128, Control_c, 0, 64, 127
2, 793345, Note_off_c, 0, 55, 64
2, 793388, Note_on_c, 0, 72, 59
2, 793388, Note_on_c, 0, 64, 59
2, 793390, Note_on_c, 0, 48, 42
2, 793398, Note_on_c, 0, 55, 48
2, 793399, Note_off_c, 0, 74, 64
2, 793402, Note_off_c, 0, 65, 64
2, 793428, Control_c, 0, 64, 0
2, 793475, Control_c, 0, 64, 127
2, 793709, Note_off_c, 0, 48, 64
2, 793713, Note_on_c, 0, 43, 65
2, 793804, Note_on_c, 0, 48, 69
2, 793811, Note_off_c, 0, 43, 64
2, 793833, Control_c, 0, 64, 0
2, 793887, Control_c, 0, 64, 127
2, 793911, Note_on_c, 0, 50, 71
2, 793925, Note_off_c, 0, 48, 64
2, 793992, Control_c, 0, 64, 0
2, 794001, Note_on_c, 0, 48, 71
2, 794013, Note_off_c, 0, 50, 64
2, 794072, Control_c, 0, 64, 127
2, 794165, Note_on_c, 0, 43, 65
2, 794167, Note_off_c, 0, 48, 64
2, 794194, Control_c, 0, 64, 0
2, 794211, Note_on_c, 0, 48, 71
2, 794229, Note_off_c, 0, 43, 64
2, 794272, Control_c, 0, 64, 127
2, 794335, Note_off_c, 0, 64, 64
2, 794350, Note_off_c, 0, 48, 64
2, 794365, Note_off_c, 0, 55, 64
2, 794381, Note_off_c, 0, 72, 64
2, 794453, Note_on_c, 0, 65, 49
2, 794456, Note_on_c, 0, 71, 52
2, 794456, Note_on_c, 0, 43, 51
2, 794460, Note_on_c, 0, 55, 37
2, 794483, Control_c, 0, 64, 0
2, 794540, Control_c, 0, 64, 127
2, 794770, Note_off_c, 0, 55, 64
2, 794778, Note_on_c, 0, 64, 43
2, 794778, Note_on_c, 0, 72, 47
2, 794783, Note_on_c, 0, 55, 32
2, 794783, Note_on_c, 0, 48, 34
2, 794795, Note_off_c, 0, 71, 64
2, 794797, Note_off_c, 0, 43, 64
2, 794798, Note_off_c, 0, 65, 64
2, 794815, Control_c, 0, 64, 0
2, 794879, Control_c, 0, 64, 127
2, 795117, Note_on_c, 0, 43, 49
2, 795120, Note_off_c, 0, 48, 64
2, 795221, Note_on_c, 0, 48, 57
2, 795232, Note_off_c, 0, 43, 64
2, 795319, Note_on_c, 0, 50, 55
2, 795337, Note_off_c, 0, 48, 64
2, 795392, Control_c, 0, 64, 0
2, 795421, Note_on_c, 0, 48, 55
2, 795442, Note_off_c, 0, 50, 64
2, 795478, Control_c, 0, 64, 127
2, 795595, Note_on_c, 0, 43, 49
2, 795597, Note_off_c, 0, 48, 64
2, 795619, Control_c, 0, 64, 0
2, 795638, Note_on_c, 0, 48, 49
2, 795656, Note_off_c, 0, 43, 64
2, 795687, Control_c, 0, 64, 127
2, 795723, Note_off_c, 0, 55, 64
2, 795725, Note_off_c, 0, 48, 64
2, 795755, Note_off_c, 0, 64, 64
2, 795804, Note_off_c, 0, 72, 64
2, 795892, Note_on_c, 0, 55, 31
2, 795896, Note_on_c, 0, 71, 34
2, 795896, Note_on_c, 0, 65, 46
2, 795896, Note_on_c, 0, 43, 31
2, 795904, Control_c, 0, 64, 127
2, 795905, Control_c, 0, 64, 0
2, 795936, Control_c, 0, 64, 127
2, 796109, Note_off_c, 0, 55, 64
2, 796113, Note_off_c, 0, 43, 64
2, 796113, Note_off_c, 0, 65, 64
2, 796113, Note_off_c, 0, 71, 64
2, 796131, Note_on_c, 0, 64, 51
2, 796138, Note_on_c, 0, 76, 43
2, 796138, Note_on_c, 0, 72, 52
2, 796141, Note_on_c, 0, 48, 40
2, 796147, Note_on_c, 0, 55, 26
2, 796158, Control_c, 0, 64, 0
2, 796191, Note_off_c, 0, 76, 64
2, 796198, Note_off_c, 0, 72, 64
2, 796198, Control_c, 0, 64, 127
2, 796229, Note_off_c, 0, 64, 64
2, 796296, Note_on_c, 0, 64, 64
2, 796327, Note_off_c, 0, 55, 64
2, 796337, Note_off_c, 0, 64, 64
2, 796347, Note_off_c, 0, 48, 64
2, 796351, Control_c, 0, 64, 0
2, 796357, Note_on_c, 0, 64, 57
2, 796393, Control_c, 0, 64, 127
2, 796442, Note_off_c, 0, 64, 64
2, 796586, Note_on_c, 0, 56, 58
2, 796593, Note_on_c, 0, 60, 59
2, 796596, Note_on_c, 0, 64, 55
2, 796602, Note_on_c, 0, 41, 54
2, 796605, Note_on_c, 0, 53, 46
2, 796612, Control_c, 0, 64, 0
2, 796651, Control_c, 0, 64, 127
2, 796656, Note_off_c, 0, 53, 64
2, 796674, Note_off_c, 0, 41, 64
2, 796691, Note_off_c, 0, 60, 64
2, 796705, Note_off_c, 0, 64, 64
2, 796759, Note_off_c, 0, 56, 64
2, 796842, Note_on_c, 0, 64, 51
2, 796842, Note_on_c, 0, 55, 48
2, 796848, Note_on_c, 0, 60, 51
2, 796852, Note_on_c, 0, 36, 48
2, 796855, Note_on_c, 0, 48, 47
2, 796855, Control_c, 0, 64, 0
2, 796895, Note_off_c, 0, 48, 64
2, 796898, Note_off_c, 0, 36, 64
2, 796907, Control_c, 0, 64, 127
2, 796913, Note_off_c, 0, 60, 64
2, 796933, Note_off_c, 0, 64, 64
2, 797009, Note_on_c, 0, 64, 51
2, 797038, Note_off_c, 0, 64, 64
2, 797050, Control_c, 0, 64, 0
2, 797060, Note_on_c, 0, 64, 59
2, 797084, Note_off_c, 0, 55, 64
2, 797129, Control_c, 0, 64, 127
2, 797206, Note_off_c, 0, 64, 64
2, 797313, Note_on_c, 0, 56, 41
2, 797317, Note_on_c, 0, 64, 54
2, 797322, Note_on_c, 0, 60, 54
2, 797322, Note_on_c, 0, 41, 41
2, 797327, Control_c, 0, 64, 0
2, 797333, Note_on_c, 0, 48, 21
2, 797368, Control_c, 0, 64, 127
2, 797410, Note_off_c, 0, 60, 64
2, 797417, Note_off_c, 0, 41, 64
2, 797418, Note_off_c, 0, 48, 64
2, 797440, Note_off_c, 0, 64, 64
2, 797466, Note_off_c, 0, 56, 64
2, 797591, Note_on_c, 0, 60, 49
2, 797595, Note_on_c, 0, 36, 47
2, 797600, Note_on_c, 0, 64, 43
2, 797600, Note_on_c, 0, 55, 41
2, 797607, Note_on_c, 0, 48, 40
2, 797610, Control_c, 0, 64, 0
2, 797636, Note_off_c, 0, 60, 64
2, 797637, Note_off_c, 0, 55, 64
2, 797638, Note_off_c, 0, 36, 64
2, 797640, Note_off_c, 0, 48, 64
2, 797644, Note_off_c, 0, 64, 64
2, 797699, Control_c, 0, 64, 127
2, 797757, Control_c, 0, 64, 0
2, 797867, Note_on_c, 0, 64, 40
2, 797867, Note_on_c, 0, 36, 42
2, 797873, Note_on_c, 0, 55, 35
2, 797873, Note_on_c, 0, 48, 42
2, 797875, Note_on_c, 0, 60, 42
2, 797899, Note_off_c, 0, 60, 64
2, 797901, Note_off_c, 0, 55, 64
2, 797903, Note_off_c, 0, 36, 64
2, 797908, Note_off_c, 0, 48, 64
2, 797911, Note_off_c, 0, 64, 64
2, 798476, Note_on_c, 0, 36, 28
2, 798478, Note_on_c, 0, 60, 36
2, 798480, Note_on_c, 0, 64, 37
2, 798485, Note_on_c, 0, 55, 31
2, 798488, Note_on_c, 0, 48, 28
2, 798513, Note_off_c, 0, 60, 64
2, 798518, Note_off_c, 0, 55, 64
2, 798520, Note_off_c, 0, 64, 64
2, 798523, Note_off_c, 0, 36, 64
2, 798524, Note_off_c, 0, 48, 64
2, 798809, Note_on_c, 0, 64, 36
2, 798815, Note_on_c, 0, 55, 23
2, 798815, Note_on_c, 0, 36, 23
2, 798819, Note_on_c, 0, 60, 35
2, 798825, Note_on_c, 0, 48, 23
2, 798838, Note_off_c, 0, 60, 64
2, 798845, Note_off_c, 0, 55, 64
2, 798847, Note_off_c, 0, 36, 64
2, 798848, Note_off_c, 0, 64, 64
2, 798854, Note_off_c, 0, 48, 64
2, 801605, Control_c, 0, 64, 127
2, 801626, Note_on_c, 0, 76, 46
2, 801713, Note_on_c, 0, 71, 50
2, 801736, Note_off_c, 0, 76, 64
2, 801808, Note_on_c, 0, 72, 50
2, 801808, Control_c, 0, 64, 0
2, 801817, Note_off_c, 0, 71, 64
2, 801863, Control_c, 0, 64, 127
2, 802034, Control_c, 0, 64, 0
2, 802037, Note_on_c, 0, 69, 44
2, 802053, Note_off_c, 0, 72, 64
2, 802079, Control_c, 0, 64, 127
2, 802257, Control_c, 0, 64, 0
2, 802266, Note_on_c, 0, 71, 47
2, 802284, Note_off_c, 0, 69, 64
2, 802286, Control_c, 0, 64, 127
2, 802362, Note_on_c, 0, 68, 44
2, 802392, Note_off_c, 0, 71, 64
2, 802413, Control_c, 0, 64, 0
2, 802455, Note_on_c, 0, 64, 50
2, 802469, Control_c, 0, 64, 127
2, 802485, Note_off_c, 0, 68, 64
2, 802701, Note_on_c, 0, 62, 25
2, 802701, Note_on_c, 0, 59, 35
2, 802708, Note_on_c, 0, 52, 25
2, 802717, Control_c, 0, 64, 0
2, 802787, Control_c, 0, 64, 127
2, 802953, Note_on_c, 0, 66, 51
2, 802954, Note_off_c, 0, 52, 64
2, 802960, Note_off_c, 0, 62, 64
2, 802966, Note_off_c, 0, 59, 64
2, 802975, Note_off_c, 0, 64, 64
2, 803032, Note_on_c, 0, 68, 49
2, 803055, Note_off_c, 0, 66, 64
2, 803128, Note_on_c, 0, 54, 41
2, 803128, Note_on_c, 0, 52, 43
2, 803135, Note_on_c, 0, 62, 49
2, 803139, Note_on_c, 0, 69, 52
2, 803147, Control_c, 0, 64, 0
2, 803150, Note_off_c, 0, 68, 64
2, 803189, Control_c, 0, 64, 127
2, 803248, Note_off_c, 0, 52, 64
2, 803248, Note_off_c, 0, 54, 64
2, 803255, Note_off_c, 0, 62, 64
2, 803344, Note_on_c, 0, 71, 59
2, 803346, Note_on_c, 0, 56, 36
2, 803348, Note_on_c, 0, 62, 34
2, 803349, Control_c, 0, 64, 0
2, 803356, Note_off_c, 0, 69, 64
2, 803356, Note_on_c, 0, 52, 28
2, 803380, Control_c, 0, 64, 127
2, 803466, Note_off_c, 0, 56, 64
2, 803468, Note_off_c, 0, 62, 64
2, 803476, Note_off_c, 0, 52, 64
2, 803555, Note_on_c, 0, 72, 50
2, 803556, Note_on_c, 0, 45, 55
2, 803560, Note_off_c, 0, 71, 64
2, 803560, Control_c, 0, 64, 0
2, 803595, Control_c, 0, 64, 127
2, 803647, Note_on_c, 0, 77, 55
2, 803660, Note_off_c, 0, 72, 64
2, 803738, Note_on_c, 0, 76, 59
2, 803744, Control_c, 0, 64, 0
2, 803748, Note_off_c, 0, 77, 64
2, 803754, Note_on_c, 0, 52, 49
2, 803757, Note_on_c, 0, 60, 41
2, 803796, Control_c, 0, 64, 127
2, 803876, Note_off_c, 0, 45, 64
2, 803939, Note_off_c, 0, 52, 64
2, 803942, Note_off_c, 0, 60, 64
2, 803960, Note_on_c, 0, 44, 57
2, 803972, Control_c, 0, 64, 0
2, 803998, Control_c, 0, 64, 127
2, 804213, Note_on_c, 0, 79, 59
2, 804217, Note_on_c, 0, 43, 51
2, 804217, Control_c, 0, 64, 0
2, 804230, Note_off_c, 0, 44, 64
2, 804241, Note_off_c, 0, 76, 64
2, 804252, Control_c, 0, 64, 127
2, 804305, Note_on_c, 0, 74, 57
2, 804326, Note_off_c, 0, 79, 64
2, 804395, Note_on_c, 0, 76, 54
2, 804400, Note_on_c, 0, 60, 41
2, 804407, Note_on_c, 0, 64, 41
2, 804413, Note_on_c, 0, 55, 34
2, 804419, Note_off_c, 0, 74, 64
2, 804420, Control_c, 0, 64, 0
2, 804453, Control_c, 0, 64, 127
2, 804520, Note_off_c, 0, 60, 64
2, 804527, Note_off_c, 0, 64, 64
2, 804533, Note_off_c, 0, 55, 64
2, 804534, Note_off_c, 0, 43, 64
2, 804583, Note_on_c, 0, 72, 56
2, 804592, Note_off_c, 0, 76, 64
2, 804592, Note_on_c, 0, 64, 42
2, 804599, Note_on_c, 0, 69, 29
2, 804599, Note_on_c, 0, 60, 32
2, 804615, Control_c, 0, 64, 0
2, 804658, Control_c, 0, 64, 127
2, 804779, Note_off_c, 0, 69, 64
2, 804781, Note_off_c, 0, 64, 64
2, 804781, Note_on_c, 0, 74, 57
2, 804794, Note_off_c, 0, 60, 64
2, 804808, Note_off_c, 0, 72, 64
2, 804874, Note_on_c, 0, 71, 57
2, 804902, Note_off_c, 0, 74, 64
2, 804961, Note_on_c, 0, 67, 56
2, 804973, Note_on_c, 0, 62, 36
2, 804981, Note_on_c, 0, 65, 37
2, 804982, Note_on_c, 0, 55, 41
2, 804987, Note_off_c, 0, 71, 64
2, 804992, Control_c, 0, 64, 0
2, 805021, Control_c, 0, 64, 127
2, 805093, Note_off_c, 0, 62, 64
2, 805101, Note_off_c, 0, 65, 64
2, 805102, Note_off_c, 0, 55, 64
2, 805208, Note_on_c, 0, 65, 26
2, 805213, Note_on_c, 0, 59, 25
2, 805221, Note_on_c, 0, 55, 26
2, 805242, Control_c, 0, 64, 0
2, 805294, Control_c, 0, 64, 127
2, 805415, Note_on_c, 0, 69, 56
2, 805424, Note_off_c, 0, 55, 64
2, 805424, Note_off_c, 0, 59, 64
2, 805444, Note_off_c, 0, 65, 64
2, 805444, Note_off_c, 0, 67, 64
2, 805497, Note_on_c, 0, 71, 56
2, 805520, Note_off_c, 0, 69, 64
2, 805584, Note_on_c, 0, 57, 39
2, 805585, Note_on_c, 0, 65, 44
2, 805591, Note_on_c, 0, 55, 41
2, 805594, Note_off_c, 0, 71, 64
2, 805594, Note_on_c, 0, 72, 56
2, 805597, Control_c, 0, 64, 0
2, 805641, Control_c, 0, 64, 127
2, 805704, Note_off_c, 0, 57, 64
2, 805705, Note_off_c, 0, 65, 64
2, 805711, Note_off_c, 0, 55, 64
2, 805787, Note_on_c, 0, 74, 59
2, 805787, Note_on_c, 0, 65, 41
2, 805792, Note_on_c, 0, 59, 39
2, 805794, Note_on_c, 0, 55, 35
2, 805798, Note_off_c, 0, 72, 64
2, 805907, Note_off_c, 0, 65, 64
2, 805912, Note_off_c, 0, 59, 64
2, 805914, Note_off_c, 0, 55, 64
2, 805998, Note_on_c, 0, 76, 49
2, 806009, Note_on_c, 0, 48, 36
2, 806017, Control_c, 0, 64, 0
2, 806026, Note_off_c, 0, 74, 64
2, 806049, Control_c, 0, 64, 127
2, 806135, Note_on_c, 0, 78, 41
2, 806152, Note_off_c, 0, 76, 64
2, 806225, Note_off_c, 0, 78, 64
2, 806226, Note_on_c, 0, 76, 60
2, 806277, Note_on_c, 0, 54, 25
2, 806279, Note_on_c, 0, 58, 33
2, 806280, Note_on_c, 0, 78, 43
2, 806294, Note_on_c, 0, 64, 24
2, 806301, Note_off_c, 0, 76, 64
2, 806304, Note_off_c, 0, 48, 64
2, 806333, Note_on_c, 0, 80, 44
2, 806345, Note_off_c, 0, 78, 64
2, 806376, Note_on_c, 0, 78, 62
2, 806383, Note_off_c, 0, 80, 64
2, 806421, Note_off_c, 0, 78, 64
2, 806428, Note_on_c, 0, 80, 65
2, 806433, Note_off_c, 0, 54, 64
2, 806435, Note_off_c, 0, 58, 64
2, 806450, Note_off_c, 0, 64, 64
2, 806460, Note_on_c, 0, 78, 62
2, 806464, Note_off_c, 0, 80, 64
2, 806496, Note_off_c, 0, 78, 64
2, 806502, Note_on_c, 0, 80, 63
2, 806529, Note_on_c, 0, 78, 62
2, 806533, Note_off_c, 0, 80, 64
2, 806541, Note_on_c, 0, 48, 52
2, 806556, Note_off_c, 0, 78, 64
2, 806563, Note_on_c, 0, 80, 69
2, 806595, Note_off_c, 0, 80, 64
2, 806600, Note_on_c, 0, 78, 62
2, 806631, Note_on_c, 0, 80, 65
2, 806642, Note_off_c, 0, 78, 64
2, 806660, Note_on_c, 0, 78, 47
2, 806663, Note_off_c, 0, 80, 64
2, 806674, Note_on_c, 0, 76, 56
2, 806693, Note_off_c, 0, 78, 64
2, 806746, Note_on_c, 0, 78, 62
2, 806768, Note_off_c, 0, 76, 64
2, 806838, Note_on_c, 0, 80, 59
2, 806845, Note_off_c, 0, 78, 64
2, 806845, Note_on_c, 0, 47, 50
2, 806854, Control_c, 0, 64, 0
2, 806864, Note_off_c, 0, 48, 64
2, 806877, Control_c, 0, 64, 127
2, 806945, Note_on_c, 0, 71, 49
2, 806957, Note_off_c, 0, 80, 64
2, 807057, Note_on_c, 0, 80, 57
2, 807060, Note_on_c, 0, 56, 49
2, 807070, Control_c, 0, 64, 0
2, 807072, Note_on_c, 0, 64, 27
2, 807078, Note_on_c, 0, 59, 24
2, 807086, Note_off_c, 0, 71, 64
2, 807109, Control_c, 0, 64, 127
2, 807180, Note_off_c, 0, 56, 64
2, 807192, Note_off_c, 0, 64, 64
2, 807198, Note_off_c, 0, 59, 64
2, 807273, Note_on_c, 0, 78, 59
2, 807279, Note_on_c, 0, 57, 43
2, 807279, Note_on_c, 0, 63, 28
2, 807285, Note_on_c, 0, 59, 32
2, 807288, Note_off_c, 0, 80, 64
2, 807296, Control_c, 0, 64, 0
2, 807298, Note_off_c, 0, 47, 64
2, 807322, Control_c, 0, 64, 127
2, 807372, Note_on_c, 0, 80, 59
2, 807390, Note_off_c, 0, 78, 64
2, 807412, Note_off_c, 0, 63, 64
2, 807414, Note_off_c, 0, 59, 64
2, 807420, Note_off_c, 0, 57, 64
2, 807471, Note_on_c, 0, 76, 60
2, 807473, Note_on_c, 0, 52, 49
2, 807481, Control_c, 0, 64, 0
2, 807494, Note_off_c, 0, 80, 64
2, 807513, Control_c, 0, 64, 127
2, 807646, Note_off_c, 0, 76, 64
2, 807656, Note_on_c, 0, 71, 44
2, 807692, Note_on_c, 0, 68, 35
2, 807692, Note_on_c, 0, 59, 41
2, 807695, Note_on_c, 0, 56, 41
2, 807701, Note_on_c, 0, 64, 34
2, 807705, Note_on_c, 0, 76, 57
2, 807714, Control_c, 0, 64, 0
2, 807723, Note_off_c, 0, 71, 64
2, 807739, Control_c, 0, 64, 127
2, 807763, Note_off_c, 0, 52, 64
2, 807812, Note_off_c, 0, 59, 64
2, 807812, Note_off_c, 0, 68, 64
2, 807815, Note_off_c, 0, 56, 64
2, 807821, Note_off_c, 0, 64, 64
2, 807924, Note_on_c, 0, 57, 47
2, 807932, Note_on_c, 0, 61, 32
2, 807943, Note_on_c, 0, 67, 25
2, 807946, Control_c, 0, 64, 0
2, 807968, Control_c, 0, 64, 127
2, 808044, Note_off_c, 0, 57, 64
2, 808052, Note_off_c, 0, 61, 64
2, 808063, Note_off_c, 0, 67, 64
2, 808155, Note_on_c, 0, 77, 51
2, 808160, Note_on_c, 0, 50, 48
2, 808170, Control_c, 0, 64, 0
2, 808176, Note_off_c, 0, 76, 64
2, 808193, Control_c, 0, 64, 127
2, 808267, Note_on_c, 0, 69, 48
2, 808281, Note_off_c, 0, 77, 64
2, 808379, Note_on_c, 0, 74, 54
2, 808383, Note_on_c, 0, 57, 36
2, 808389, Note_on_c, 0, 62, 40
2, 808390, Note_on_c, 0, 65, 36
2, 808390, Control_c, 0, 64, 0
2, 808405, Note_off_c, 0, 69, 64
2, 808432, Control_c, 0, 64, 127
2, 808452, Note_off_c, 0, 50, 64
2, 808503, Note_off_c, 0, 57, 64
2, 808509, Note_off_c, 0, 62, 64
2, 808510, Note_off_c, 0, 65, 64
2, 808633, Note_on_c, 0, 56, 39
2, 808637, Note_on_c, 0, 52, 39
2, 808639, Note_on_c, 0, 71, 54
2, 808644, Note_on_c, 0, 62, 35
2, 808646, Control_c, 0, 64, 0
2, 808654, Note_off_c, 0, 74, 64
2, 808669, Control_c, 0, 64, 127
2, 808753, Note_off_c, 0, 56, 64
2, 808757, Note_off_c, 0, 52, 64
2, 808764, Note_off_c, 0, 62, 64
2, 808842, Note_on_c, 0, 72, 47
2, 808844, Note_off_c, 0, 71, 64
2, 808903, Note_on_c, 0, 71, 48
2, 808923, Note_off_c, 0, 72, 64
2, 808937, Note_on_c, 0, 45, 44
2, 808946, Note_on_c, 0, 69, 55
2, 808963, Note_off_c, 0, 71, 64
2, 808970, Control_c, 0, 64, 0
2, 809014, Control_c, 0, 64, 127
2, 809221, Note_on_c, 0, 68, 44
2, 809236, Note_off_c, 0, 69, 64
2, 809279, Note_on_c, 0, 69, 43
2, 809288, Note_off_c, 0, 68, 64
2, 809293, Note_on_c, 0, 60, 23
2, 809293, Note_on_c, 0, 52, 24
2, 809310, Control_c, 0, 64, 0
2, 809355, Note_off_c, 0, 45, 64
2, 809357, Control_c, 0, 64, 127
2, 809490, Note_off_c, 0, 60, 64
2, 809509, Note_off_c, 0, 52, 64
2, 809719, Note_on_c, 0, 52, 23
2, 809724, Note_on_c, 0, 60, 19
2, 809779, Control_c, 0, 64, 0
2, 809814, Control_c, 0, 64, 127
2, 810053, Note_on_c, 0, 76, 44
2, 810068, Control_c, 0, 64, 0
2, 810103, Control_c, 0, 64, 127
2, 810108, Note_off_c, 0, 52, 64
2, 810111, Note_off_c, 0, 60, 64
2, 810112, Note_off_c, 0, 69, 64
2, 810186, Note_on_c, 0, 71, 51
2, 810215, Note_off_c, 0, 76, 64
2, 810284, Control_c, 0, 64, 0
2, 810294, Note_on_c, 0, 72, 51
2, 810307, Note_off_c, 0, 71, 64
2, 810331, Control_c, 0, 64, 127
2, 810482, Control_c, 0, 64, 0
2, 810501, Note_on_c, 0, 69, 51
2, 810505, Note_off_c, 0, 72, 64
2, 810523, Control_c, 0, 64, 127
2, 810688, Control_c, 0, 64, 0
2, 810701, Note_on_c, 0, 71, 51
2, 810720, Note_off_c, 0, 69, 64
2, 810738, Control_c, 0, 64, 127
2, 810799, Note_on_c, 0, 68, 55
2, 810828, Note_off_c, 0, 71, 64
2, 810865, Control_c, 0, 64, 0
2, 810888, Note_on_c, 0, 64, 52
2, 810910, Control_c, 0, 64, 127
2, 810922, Note_off_c, 0, 68, 64
2, 811125, Note_on_c, 0, 52, 43
2, 811132, Note_on_c, 0, 62, 35
2, 811133, Note_on_c, 0, 59, 40
2, 811140, Control_c, 0, 64, 0
2, 811194, Control_c, 0, 64, 127
2, 811320, Control_c, 0, 64, 0
2, 811353, Control_c, 0, 64, 127
2, 811359, Note_on_c, 0, 66, 52
2, 811369, Note_off_c, 0, 52, 64
2, 811377, Note_off_c, 0, 59, 64
2, 811380, Note_off_c, 0, 62, 64
2, 811382, Note_off_c, 0, 64, 64
2, 811434, Note_on_c, 0, 68, 51
2, 811463, Note_off_c, 0, 66, 64
2, 811528, Control_c, 0, 64, 0
2, 811534, Note_on_c, 0, 54, 34
2, 811535, Note_off_c, 0, 68, 64
2, 811535, Note_on_c, 0, 69, 50
2, 811535, Note_on_c, 0, 62, 44
2, 811535, Note_on_c, 0, 52, 48
2, 811570, Control_c, 0, 64, 127
2, 811654, Note_off_c, 0, 54, 64
2, 811655, Note_off_c, 0, 52, 64
2, 811655, Note_off_c, 0, 62, 64
2, 811728, Control_c, 0, 64, 0
2, 811740, Note_on_c, 0, 71, 59
2, 811740, Note_on_c, 0, 62, 43
2, 811740, Note_on_c, 0, 56, 44
2, 811747, Note_off_c, 0, 69, 64
2, 811747, Note_on_c, 0, 52, 43
2, 811765, Control_c, 0, 64, 127
2, 811860, Note_off_c, 0, 56, 64
2, 811860, Note_off_c, 0, 62, 64
2, 811867, Note_off_c, 0, 52, 64
2, 811962, Note_on_c, 0, 45, 50
2, 811965, Note_on_c, 0, 72, 55
2, 811969, Note_off_c, 0, 71, 64
2, 811971, Control_c, 0, 64, 0
2, 812003, Control_c, 0, 64, 127
2, 812053, Note_on_c, 0, 77, 55
2, 812073, Note_off_c, 0, 72, 64
2, 812140, Control_c, 0, 64, 0
2, 812147, Note_on_c, 0, 76, 62
2, 812160, Note_on_c, 0, 60, 36
2, 812161, Note_off_c, 0, 77, 64
2, 812163, Note_on_c, 0, 52, 44
2, 812192, Control_c, 0, 64, 127
2, 812302, Note_off_c, 0, 45, 64
2, 812326, Note_off_c, 0, 60, 64
2, 812329, Note_off_c, 0, 52, 64
2, 812359, Note_on_c, 0, 44, 51
2, 812374, Control_c, 0, 64, 0
2, 812408, Control_c, 0, 64, 127
2, 812580, Note_off_c, 0, 76, 64
2, 812592, Control_c, 0, 64, 0
2, 812599, Note_on_c, 0, 43, 51
2, 812600, Note_on_c, 0, 79, 59
2, 812617, Note_off_c, 0, 44, 64
2, 812630, Control_c, 0, 64, 127
2, 812696, Note_on_c, 0, 74, 62
2, 812718, Note_off_c, 0, 79, 64
2, 812787, Note_on_c, 0, 76, 54
2, 812792, Note_on_c, 0, 64, 49
2, 812792, Note_on_c, 0, 55, 40
2, 812797, Note_on_c, 0, 60, 36
2, 812809, Control_c, 0, 64, 0
2, 812819, Note_off_c, 0, 74, 64
2, 812846, Control_c, 0, 64, 127
2, 812912, Note_off_c, 0, 55, 64
2, 812912, Note_off_c, 0, 64, 64
2, 812917, Note_off_c, 0, 60, 64
2, 812922, Note_off_c, 0, 43, 64
2, 812993, Note_on_c, 0, 72, 57
2, 813000, Note_on_c, 0, 64, 24
2, 813003, Note_off_c, 0, 76, 64
2, 813003, Note_on_c, 0, 60, 44
2, 813013, Note_on_c, 0, 69, 34
2, 813014, Control_c, 0, 64, 0
2, 813055, Control_c, 0, 64, 127
2, 813180, Note_off_c, 0, 69, 64
2, 813183, Note_off_c, 0, 72, 64
2, 813184, Note_on_c, 0, 74, 58
2, 813198, Note_off_c, 0, 64, 64
2, 813202, Note_off_c, 0, 60, 64
2, 813268, Note_on_c, 0, 71, 56
2, 813297, Note_off_c, 0, 74, 64
2, 813361, Note_on_c, 0, 67, 51
2, 813365, Note_on_c, 0, 62, 48
2, 813366, Note_on_c, 0, 55, 44
2, 813372, Note_off_c, 0, 71, 64
2, 813376, Note_on_c, 0, 65, 34
2, 813380, Control_c, 0, 64, 0
2, 813420, Control_c, 0, 64, 127
2, 813485, Note_off_c, 0, 62, 64
2, 813486, Note_off_c, 0, 55, 64
2, 813496, Note_off_c, 0, 65, 64
2, 813558, Note_on_c, 0, 65, 35
2, 813558, Note_on_c, 0, 59, 43
2, 813566, Note_on_c, 0, 55, 28
2, 813573, Control_c, 0, 64, 0
2, 813615, Control_c, 0, 64, 127
2, 813739, Control_c, 0, 64, 0
2, 813750, Note_on_c, 0, 69, 58
2, 813756, Note_off_c, 0, 59, 64
2, 813763, Note_off_c, 0, 55, 64
2, 813766, Control_c, 0, 64, 127
2, 813778, Note_off_c, 0, 67, 64
2, 813780, Note_off_c, 0, 65, 64
2, 813833, Note_on_c, 0, 71, 55
2, 813860, Note_off_c, 0, 69, 64
2, 813922, Note_on_c, 0, 55, 51
2, 813922, Control_c, 0, 64, 0
2, 813927, Note_on_c, 0, 72, 59
2, 813927, Note_on_c, 0, 65, 49
2, 813927, Note_on_c, 0, 57, 49
2, 813935, Note_off_c, 0, 71, 64
2, 813952, Control_c, 0, 64, 127
2, 814042, Note_off_c, 0, 55, 64
2, 814047, Note_off_c, 0, 57, 64
2, 814047, Note_off_c, 0, 65, 64
2, 814109, Note_on_c, 0, 74, 59
2, 814109, Note_on_c, 0, 59, 51
2, 814118, Note_on_c, 0, 65, 49
2, 814118, Note_on_c, 0, 55, 44
2, 814119, Note_off_c, 0, 72, 64
2, 814229, Note_off_c, 0, 59, 64
2, 814238, Note_off_c, 0, 55, 64
2, 814238, Note_off_c, 0, 65, 64
2, 814315, Note_on_c, 0, 48, 37
2, 814321, Note_on_c, 0, 76, 55
2, 814340, Control_c, 0, 64, 0
2, 814348, Note_off_c, 0, 74, 64
2, 814374, Control_c, 0, 64, 127
2, 814444, Note_on_c, 0, 78, 52
2, 814466, Note_off_c, 0, 76, 64
2, 814538, Note_on_c, 0, 76, 62
2, 814560, Note_off_c, 0, 78, 64
2, 814609, Note_on_c, 0, 58, 32
2, 814612, Note_on_c, 0, 64, 28
2, 814616, Note_on_c, 0, 78, 59
2, 814617, Note_on_c, 0, 54, 26
2, 814639, Note_off_c, 0, 76, 64
2, 814700, Note_off_c, 0, 78, 64
2, 814701, Note_off_c, 0, 48, 64
2, 814705, Note_on_c, 0, 80, 44
2, 814729, Note_off_c, 0, 58, 64
2, 814732, Note_off_c, 0, 64, 64
2, 814737, Note_off_c, 0, 54, 64
2, 814748, Note_on_c, 0, 78, 62
2, 814755, Note_off_c, 0, 80, 64
2, 814793, Note_off_c, 0, 78, 64
2, 814800, Note_on_c, 0, 80, 65
2, 814832, Note_on_c, 0, 78, 62
2, 814836, Note_off_c, 0, 80, 64
2, 814868, Note_off_c, 0, 78, 64
2, 814874, Note_on_c, 0, 80, 63
2, 814880, Note_on_c, 0, 48, 49
2, 814901, Note_on_c, 0, 78, 62
2, 814905, Note_off_c, 0, 80, 64
2, 814928, Note_off_c, 0, 78, 64
2, 814935, Note_on_c, 0, 80, 69
2, 814967, Note_off_c, 0, 80, 64
2, 814972, Note_on_c, 0, 78, 62
2, 815003, Note_on_c, 0, 80, 65
2, 815014, Note_off_c, 0, 78, 64
2, 815032, Note_on_c, 0, 78, 47
2, 815035, Note_off_c, 0, 80, 64
2, 815065, Note_off_c, 0, 78, 64
2, 815066, Note_on_c, 0, 76, 52
2, 815133, Note_on_c, 0, 78, 62
2, 815148, Note_off_c, 0, 76, 64
2, 815207, Note_on_c, 0, 80, 60
2, 815212, Control_c, 0, 64, 0
2, 815218, Note_on_c, 0, 47, 52
2, 815222, Note_off_c, 0, 78, 64
2, 815248, Control_c, 0, 64, 127
2, 815257, Note_off_c, 0, 48, 64
2, 815309, Note_on_c, 0, 71, 36
2, 815327, Note_off_c, 0, 80, 64
2, 815421, Note_on_c, 0, 80, 51
2, 815428, Note_on_c, 0, 56, 46
2, 815431, Note_on_c, 0, 64, 44
2, 815436, Note_on_c, 0, 59, 41
2, 815444, Control_c, 0, 64, 0
2, 815449, Note_off_c, 0, 71, 64
2, 815476, Control_c, 0, 64, 127
2, 815503, Note_off_c, 0, 47, 64
2, 815548, Note_off_c, 0, 56, 64
2, 815551, Note_off_c, 0, 64, 64
2, 815556, Note_off_c, 0, 59, 64
2, 815633, Note_on_c, 0, 78, 58
2, 815640, Note_on_c, 0, 63, 39
2, 815641, Control_c, 0, 64, 0
2, 815647, Note_off_c, 0, 80, 64
2, 815647, Note_on_c, 0, 57, 34
2, 815654, Note_on_c, 0, 59, 26
2, 815671, Control_c, 0, 64, 127
2, 815739, Note_on_c, 0, 80, 60
2, 815760, Note_off_c, 0, 63, 64
2, 815762, Note_off_c, 0, 78, 64
2, 815767, Note_off_c, 0, 57, 64
2, 815774, Note_off_c, 0, 59, 64
2, 815835, Note_on_c, 0, 76, 59
2, 815843, Note_on_c, 0, 52, 51
2, 815847, Control_c, 0, 64, 0
2, 815857, Note_off_c, 0, 80, 64
2, 815880, Control_c, 0, 64, 127
2, 816018, Note_off_c, 0, 76, 64
2, 816024, Note_on_c, 0, 71, 50
2, 816068, Note_on_c, 0, 68, 31
2, 816072, Note_on_c, 0, 56, 44
2, 816078, Note_on_c, 0, 59, 44
2, 816079, Note_on_c, 0, 64, 43
2, 816086, Note_on_c, 0, 76, 62
2, 816091, Control_c, 0, 64, 0
2, 816105, Note_off_c, 0, 71, 64
2, 816136, Note_off_c, 0, 52, 64
2, 816139, Control_c, 0, 64, 127
2, 816188, Note_off_c, 0, 68, 64
2, 816192, Note_off_c, 0, 56, 64
2, 816198, Note_off_c, 0, 59, 64
2, 816199, Note_off_c, 0, 64, 64
2, 816334, Note_on_c, 0, 61, 26
2, 816337, Note_on_c, 0, 57, 43
2, 816344, Note_on_c, 0, 67, 31
2, 816357, Control_c, 0, 64, 0
2, 816400, Control_c, 0, 64, 127
2, 816454, Note_off_c, 0, 61, 64
2, 816457, Note_off_c, 0, 57, 64
2, 816464, Note_off_c, 0, 67, 64
2, 816590, Note_on_c, 0, 77, 51
2, 816600, Note_on_c, 0, 50, 49
2, 816612, Control_c, 0, 64, 0
2, 816620, Note_off_c, 0, 76, 64
2, 816645, Control_c, 0, 64, 127
2, 816718, Note_on_c, 0, 69, 48
2, 816757, Note_off_c, 0, 77, 64
2, 816828, Note_on_c, 0, 74, 51
2, 816832, Note_on_c, 0, 57, 37
2, 816836, Note_on_c, 0, 65, 34
2, 816836, Note_on_c, 0, 62, 32
2, 816842, Control_c, 0, 64, 0
2, 816869, Note_off_c, 0, 69, 64
2, 816879, Control_c, 0, 64, 127
2, 816900, Note_off_c, 0, 50, 64
2, 816952, Note_off_c, 0, 57, 64
2, 816956, Note_off_c, 0, 62, 64
2, 816956, Note_off_c, 0, 65, 64
2, 817090, Note_on_c, 0, 71, 54
2, 817097, Note_on_c, 0, 56, 33
2, 817104, Note_on_c, 0, 52, 34
2, 817106, Note_on_c, 0, 62, 27
2, 817108, Note_off_c, 0, 74, 64
2, 817116, Control_c, 0, 64, 0
2, 817151, Control_c, 0, 64, 127
2, 817217, Note_off_c, 0, 56, 64
2, 817224, Note_off_c, 0, 52, 64
2, 817226, Note_off_c, 0, 62, 64
2, 817295, Note_off_c, 0, 71, 64
2, 817295, Note_on_c, 0, 72, 46
2, 817347, Note_on_c, 0, 71, 44
2, 817365, Note_off_c, 0, 72, 64
2, 817388, Note_on_c, 0, 69, 54
2, 817393, Note_on_c, 0, 45, 43
2, 817405, Note_off_c, 0, 71, 64
2, 817424, Control_c, 0, 64, 0
2, 817465, Control_c, 0, 64, 127
2, 817650, Note_on_c, 0, 68, 43
2, 817670, Note_off_c, 0, 69, 64
2, 817709, Note_on_c, 0, 69, 41
2, 817716, Note_on_c, 0, 52, 28
2, 817719, Note_off_c, 0, 68, 64
2, 817719, Note_on_c, 0, 60, 24
2, 817729, Control_c, 0, 64, 0
2, 817774, Control_c, 0, 64, 127
2, 817780, Note_off_c, 0, 45, 64
2, 817924, Note_off_c, 0, 52, 64
2, 817927, Note_off_c, 0, 60, 64
2, 817973, Note_on_c, 0, 52, 36
2, 817974, Note_on_c, 0, 60, 26
2, 817992, Control_c, 0, 64, 0
2, 818031, Control_c, 0, 64, 127
2, 818203, Note_on_c, 0, 47, 50
2, 818210, Control_c, 0, 64, 0
2, 818216, Note_off_c, 0, 52, 64
2, 818219, Note_off_c, 0, 60, 64
2, 818256, Control_c, 0, 64, 127
2, 818464, Note_on_c, 0, 59, 44
2, 818466, Note_on_c, 0, 66, 52
2, 818466, Note_on_c, 0, 63, 26
2, 818468, Control_c, 0, 64, 0
2, 818474, Note_on_c, 0, 57, 26
2, 818476, Control_c, 0, 64, 0
2, 818480, Note_off_c, 0, 69, 64
2, 818502, Note_off_c, 0, 47, 64
2, 818505, Control_c, 0, 64, 127
2, 818513, Control_c, 0, 64, 127
2, 818580, Note_on_c, 0, 68, 41
2, 818581, Note_off_c, 0, 59, 64
2, 818586, Note_off_c, 0, 63, 64
2, 818590, Note_off_c, 0, 57, 64
2, 818603, Note_off_c, 0, 66, 64
2, 818676, Control_c, 0, 64, 0
2, 818679, Note_on_c, 0, 63, 40
2, 818680, Note_on_c, 0, 59, 44
2, 818682, Note_on_c, 0, 57, 26
2, 818686, Note_on_c, 0, 69, 55
2, 818696, Note_off_c, 0, 68, 64
2, 818713, Control_c, 0, 64, 127
2, 818783, Note_on_c, 0, 78, 50
2, 818796, Note_off_c, 0, 63, 64
2, 818797, Note_off_c, 0, 59, 64
2, 818799, Note_off_c, 0, 57, 64
2, 818800, Note_off_c, 0, 69, 64
2, 818881, Note_off_c, 0, 78, 64
2, 818881, Note_on_c, 0, 76, 50
2, 818888, Note_on_c, 0, 40, 56
2, 818898, Control_c, 0, 64, 0
2, 818943, Control_c, 0, 64, 127
2, 818982, Note_on_c, 0, 69, 43
2, 819002, Note_off_c, 0, 76, 64
2, 819086, Note_on_c, 0, 68, 51
2, 819090, Note_on_c, 0, 64, 26
2, 819090, Note_on_c, 0, 56, 29
2, 819096, Note_on_c, 0, 59, 36
2, 819102, Control_c, 0, 64, 0
2, 819142, Control_c, 0, 64, 127
2, 819155, Note_off_c, 0, 69, 64
2, 819192, Note_off_c, 0, 40, 64
2, 819210, Note_off_c, 0, 56, 64
2, 819216, Note_off_c, 0, 59, 64
2, 819216, Note_off_c, 0, 64, 64
2, 819296, Note_on_c, 0, 64, 29
2, 819296, Note_on_c, 0, 56, 35
2, 819299, Note_on_c, 0, 59, 32
2, 819416, Note_off_c, 0, 56, 64
2, 819416, Note_off_c, 0, 64, 64
2, 819419, Note_off_c, 0, 59, 64
2, 819503, Note_on_c, 0, 46, 50
2, 819510, Control_c, 0, 64, 0
2, 819542, Control_c, 0, 64, 127
2, 819630, Note_on_c, 0, 70, 52
2, 819643, Note_off_c, 0, 68, 64
2, 819674, Note_on_c, 0, 68, 63
2, 819699, Note_off_c, 0, 70, 64
2, 819699, Note_on_c, 0, 56, 34
2, 819708, Note_on_c, 0, 58, 34
2, 819712, Note_on_c, 0, 62, 33
2, 819722, Note_on_c, 0, 65, 62
2, 819722, Control_c, 0, 64, 0
2, 819735, Note_off_c, 0, 68, 64
2, 819746, Control_c, 0, 64, 127
2, 819801, Note_off_c, 0, 46, 64
2, 819819, Note_off_c, 0, 56, 64
2, 819827, Note_on_c, 0, 67, 59
2, 819828, Note_off_c, 0, 58, 64
2, 819832, Note_off_c, 0, 62, 64
2, 819846, Note_off_c, 0, 65, 64
2, 819905, Note_on_c, 0, 68, 60
2, 819909, Note_on_c, 0, 62, 32
2, 819912, Note_on_c, 0, 56, 39
2, 819913, Note_on_c, 0, 58, 32
2, 819926, Note_off_c, 0, 67, 64
2, 820009, Note_on_c, 0, 77, 50
2, 820029, Note_off_c, 0, 62, 64
2, 820032, Note_off_c, 0, 56, 64
2, 820033, Note_off_c, 0, 58, 64
2, 820033, Note_off_c, 0, 68, 64
2, 820099, Note_on_c, 0, 75, 60
2, 820108, Control_c, 0, 64, 0
2, 820116, Note_off_c, 0, 77, 64
2, 820116, Note_on_c, 0, 39, 55
2, 820146, Control_c, 0, 64, 127
2, 820192, Note_on_c, 0, 68, 63
2, 820220, Note_off_c, 0, 75, 64
2, 820279, Note_on_c, 0, 67, 51
2, 820288, Note_on_c, 0, 63, 46
2, 820288, Note_on_c, 0, 58, 20
2, 820288, Note_on_c, 0, 55, 33
2, 820289, Note_off_c, 0, 68, 64
2, 820296, Control_c, 0, 64, 0
2, 820334, Control_c, 0, 64, 127
2, 820394, Note_off_c, 0, 39, 64
2, 820408, Note_off_c, 0, 55, 64
2, 820408, Note_off_c, 0, 58, 64
2, 820408, Note_off_c, 0, 63, 64
2, 820468, Note_on_c, 0, 63, 34
2, 820472, Note_on_c, 0, 58, 20
2, 820475, Note_on_c, 0, 55, 33
2, 820547, Note_on_c, 0, 66, 55
2, 820576, Note_off_c, 0, 67, 64
2, 820588, Note_off_c, 0, 63, 64
2, 820592, Note_off_c, 0, 58, 64
2, 820595, Note_off_c, 0, 55, 64
2, 820652, Note_on_c, 0, 67, 58
2, 820655, Note_on_c, 0, 45, 55
2, 820672, Control_c, 0, 64, 0
2, 820690, Note_off_c, 0, 66, 64
2, 820698, Control_c, 0, 64, 127
2, 820770, Note_on_c, 0, 69, 41
2, 820790, Note_off_c, 0, 67, 64
2, 820803, Note_on_c, 0, 67, 51
2, 820825, Note_off_c, 0, 69, 64
2, 820848, Note_on_c, 0, 61, 51
2, 820851, Note_on_c, 0, 57, 48
2, 820851, Note_on_c, 0, 55, 48
2, 820852, Control_c, 0, 64, 0
2, 820852, Control_c, 0, 64, 0
2, 820859, Note_on_c, 0, 64, 59
2, 820873, Note_off_c, 0, 67, 64
2, 820880, Control_c, 0, 64, 127
2, 820936, Note_on_c, 0, 66, 60
2, 820952, Note_off_c, 0, 45, 64
2, 820957, Note_off_c, 0, 64, 64
2, 820968, Note_off_c, 0, 61, 64
2, 820971, Note_off_c, 0, 55, 64
2, 820971, Note_off_c, 0, 57, 64
2, 821024, Note_on_c, 0, 61, 43
2, 821027, Note_on_c, 0, 67, 49
2, 821032, Note_off_c, 0, 66, 64
2, 821035, Note_on_c, 0, 57, 48
2, 821036, Control_c, 0, 64, 0
2, 821037, Note_on_c, 0, 55, 26
2, 821135, Note_on_c, 0, 76, 51
2, 821144, Note_off_c, 0, 61, 64
2, 821155, Note_off_c, 0, 57, 64
2, 821157, Note_off_c, 0, 55, 64
2, 821184, Note_off_c, 0, 67, 64
2, 821223, Note_on_c, 0, 45, 51
2, 821226, Note_on_c, 0, 74, 51
2, 821240, Control_c, 0, 64, 0
2, 821246, Note_off_c, 0, 76, 64
2, 821273, Control_c, 0, 64, 127
2, 821326, Note_on_c, 0, 67, 51
2, 821345, Note_off_c, 0, 74, 64
2, 821407, Note_on_c, 0, 66, 56
2, 821414, Note_on_c, 0, 62, 46
2, 821417, Note_on_c, 0, 54, 43
2, 821419, Note_on_c, 0, 57, 44
2, 821430, Control_c, 0, 64, 0
2, 821438, Note_off_c, 0, 67, 64
2, 821448, Control_c, 0, 64, 127
2, 821500, Note_on_c, 0, 67, 55
2, 821520, Note_off_c, 0, 66, 64
2, 821522, Note_off_c, 0, 45, 64
2, 821534, Note_off_c, 0, 62, 64
2, 821537, Note_off_c, 0, 54, 64
2, 821539, Note_off_c, 0, 57, 64
2, 821589, Note_on_c, 0, 68, 51
2, 821590, Note_on_c, 0, 62, 41
2, 821595, Note_on_c, 0, 59, 41
2, 821597, Note_on_c, 0, 53, 50
2, 821606, Control_c, 0, 64, 0
2, 821645, Note_off_c, 0, 67, 64
2, 821649, Control_c, 0, 64, 127
2, 821710, Note_off_c, 0, 62, 64
2, 821715, Note_off_c, 0, 59, 64
2, 821716, Note_on_c, 0, 71, 51
2, 821717, Note_off_c, 0, 53, 64
2, 821731, Note_off_c, 0, 68, 64
2, 821780, Note_on_c, 0, 69, 56
2, 821785, Note_on_c, 0, 45, 56
2, 821788, Note_off_c, 0, 71, 64
2, 821793, Control_c, 0, 64, 0
2, 821814, Control_c, 0, 64, 127
2, 821913, Note_on_c, 0, 63, 60
2, 821953, Note_off_c, 0, 69, 64
2, 821962, Note_on_c, 0, 61, 49
2, 821966, Note_on_c, 0, 66, 59
2, 821968, Note_on_c, 0, 57, 32
2, 821970, Note_on_c, 0, 55, 31
2, 821976, Note_off_c, 0, 63, 64
2, 821980, Control_c, 0, 64, 0
2, 821997, Control_c, 0, 64, 127
2, 822070, Note_off_c, 0, 45, 64
2, 822080, Note_on_c, 0, 64, 52
2, 822082, Note_off_c, 0, 61, 64
2, 822088, Note_off_c, 0, 57, 64
2, 822090, Note_off_c, 0, 55, 64
2, 822105, Note_off_c, 0, 66, 64
2, 822117, Control_c, 0, 64, 127
2, 822140, Note_on_c, 0, 61, 47
2, 822144, Note_on_c, 0, 57, 32
2, 822149, Note_on_c, 0, 67, 55
2, 822149, Note_on_c, 0, 55, 44
2, 822169, Note_off_c, 0, 64, 64
2, 822260, Note_off_c, 0, 61, 64
2, 822263, Note_on_c, 0, 59, 51
2, 822264, Note_off_c, 0, 57, 64
2, 822269, Note_off_c, 0, 55, 64
2, 822298, Note_off_c, 0, 67, 64
2, 822319, Note_on_c, 0, 33, 58
2, 822324, Note_on_c, 0, 57, 50
2, 822331, Control_c, 0, 64, 0
2, 822340, Note_off_c, 0, 59, 64
2, 822354, Control_c, 0, 64, 127
2, 822441, Note_on_c, 0, 64, 57
2, 822467, Note_off_c, 0, 57, 64
2, 822492, Control_c, 0, 64, 0
2, 822498, Note_on_c, 0, 54, 32
2, 822500, Note_on_c, 0, 62, 62
2, 822504, Note_on_c, 0, 57, 52
2, 822516, Note_off_c, 0, 64, 64
2, 822521, Control_c, 0, 64, 127
2, 822604, Note_on_c, 0, 67, 56
2, 822618, Note_off_c, 0, 54, 64
2, 822621, Note_off_c, 0, 62, 64
2, 822624, Note_off_c, 0, 57, 64
2, 822679, Note_on_c, 0, 54, 42
2, 822679, Note_on_c, 0, 57, 43
2, 822680, Note_on_c, 0, 62, 46
2, 822685, Note_on_c, 0, 66, 72
2, 822699, Note_off_c, 0, 67, 64
2, 822785, Note_on_c, 0, 71, 58
2, 822798, Note_off_c, 0, 66, 64
2, 822799, Note_off_c, 0, 57, 64
2, 822799, Note_off_c, 0, 54, 64
2, 822800, Note_off_c, 0, 62, 64
2, 822846, Note_off_c, 0, 33, 64
2, 822861, Note_on_c, 0, 69, 56
2, 822867, Control_c, 0, 64, 0
2, 822868, Note_off_c, 0, 71, 64
2, 822873, Note_on_c, 0, 45, 54
2, 822895, Note_on_c, 0, 71, 57
2, 822906, Note_off_c, 0, 69, 64
2, 822908, Control_c, 0, 64, 127
2, 822943, Note_on_c, 0, 69, 58
2, 822956, Note_off_c, 0, 71, 64
2, 823010, Note_on_c, 0, 68, 65
2, 823020, Note_on_c, 0, 52, 36
2, 823021, Note_off_c, 0, 69, 64
2, 823021, Note_on_c, 0, 61, 33
2, 823033, Control_c, 0, 64, 0
2, 823066, Control_c, 0, 64, 127
2, 823130, Note_on_c, 0, 67, 62
2, 823140, Note_off_c, 0, 52, 64
2, 823141, Note_off_c, 0, 61, 64
2, 823142, Note_off_c, 0, 45, 64
2, 823150, Note_off_c, 0, 68, 64
2, 823178, Note_off_c, 0, 67, 64
2, 823191, Note_on_c, 0, 69, 60
2, 823197, Note_on_c, 0, 61, 51
2, 823203, Note_on_c, 0, 57, 51
2, 823205, Note_on_c, 0, 67, 51
2, 823211, Control_c, 0, 64, 0
2, 823219, Control_c, 0, 64, 0
2, 823228, Control_c, 0, 64, 127
2, 823317, Note_off_c, 0, 61, 64
2, 823323, Note_off_c, 0, 57, 64
2, 823325, Note_off_c, 0, 67, 64
2, 823328, Note_on_c, 0, 76, 51
2, 823364, Note_off_c, 0, 69, 64
2, 823403, Note_on_c, 0, 74, 57
2, 823404, Note_on_c, 0, 38, 50
2, 823411, Control_c, 0, 64, 0
2, 823420, Note_off_c, 0, 76, 64
2, 823446, Control_c, 0, 64, 127
2, 823546, Note_off_c, 0, 74, 64
2, 823548, Note_on_c, 0, 67, 43
2, 823593, Note_on_c, 0, 50, 46
2, 823606, Note_on_c, 0, 57, 37
2, 823608, Note_on_c, 0, 66, 58
2, 823610, Note_on_c, 0, 60, 26
2, 823623, Control_c, 0, 64, 0
2, 823639, Note_off_c, 0, 67, 64
2, 823639, Control_c, 0, 64, 127
2, 823692, Note_off_c, 0, 38, 64
2, 823713, Note_off_c, 0, 50, 64
2, 823723, Note_on_c, 0, 67, 52
2, 823726, Note_off_c, 0, 57, 64
2, 823730, Note_off_c, 0, 60, 64
2, 823735, Note_off_c, 0, 66, 64
2, 823784, Note_on_c, 0, 68, 56
2, 823784, Note_on_c, 0, 60, 54
2, 823784, Note_on_c, 0, 50, 51
2, 823792, Note_on_c, 0, 54, 50
2, 823799, Control_c, 0, 64, 0
2, 823827, Note_off_c, 0, 67, 64
2, 823833, Control_c, 0, 64, 127
2, 823894, Note_on_c, 0, 71, 52
2, 823914, Note_off_c, 0, 68, 64
2, 823975, Note_on_c, 0, 69, 43
2, 823989, Note_off_c, 0, 71, 64
2, 824022, Note_off_c, 0, 54, 64
2, 824033, Note_off_c, 0, 60, 64
2, 824039, Note_off_c, 0, 50, 64
2, 824078, Note_on_c, 0, 65, 51
2, 824112, Note_off_c, 0, 69, 64
2, 824136, Note_on_c, 0, 66, 57
2, 824146, Note_on_c, 0, 51, 50
2, 824148, Note_on_c, 0, 60, 39
2, 824148, Control_c, 0, 64, 0
2, 824156, Note_on_c, 0, 57, 41
2, 824160, Note_off_c, 0, 65, 64
2, 824186, Control_c, 0, 64, 127
2, 824248, Note_on_c, 0, 67, 57
2, 824264, Note_off_c, 0, 66, 64
2, 824266, Note_off_c, 0, 51, 64
2, 824268, Note_off_c, 0, 60, 64
2, 824276, Note_off_c, 0, 57, 64
2, 824317, Note_on_c, 0, 51, 55
2, 824320, Note_on_c, 0, 68, 57
2, 824324, Note_on_c, 0, 60, 55
2, 824326, Note_on_c, 0, 54, 51
2, 824336, Control_c, 0, 64, 0
2, 824357, Note_off_c, 0, 67, 64
2, 824370, Control_c, 0, 64, 127
2, 824425, Note_on_c, 0, 71, 52
2, 824447, Note_off_c, 0, 68, 64
2, 824506, Note_on_c, 0, 69, 41
2, 824518, Note_off_c, 0, 71, 64
2, 824567, Note_on_c, 0, 71, 55
2, 824578, Note_off_c, 0, 69, 64
2, 824613, Note_on_c, 0, 69, 51
2, 824625, Note_off_c, 0, 71, 64
2, 824688, Note_on_c, 0, 66, 49
2, 824699, Note_on_c, 0, 57, 55
2, 824724, Control_c, 0, 64, 0
2, 824725, Note_off_c, 0, 54, 64
2, 824760, Control_c, 0, 64, 127
2, 824766, Note_off_c, 0, 69, 64
2, 824819, Note_on_c, 0, 67, 62
2, 824829, Note_off_c, 0, 66, 64
2, 824871, Note_on_c, 0, 68, 62
2, 824909, Note_off_c, 0, 67, 64
2, 824985, Note_off_c, 0, 57, 64
2, 825000, Note_on_c, 0, 71, 52
2, 825019, Note_off_c, 0, 68, 64
2, 825023, Note_off_c, 0, 51, 64
2, 825030, Note_off_c, 0, 60, 64
2, 825054, Note_on_c, 0, 52, 36
2, 825091, Note_on_c, 0, 69, 57
2, 825093, Note_on_c, 0, 64, 65
2, 825102, Control_c, 0, 64, 0
2, 825108, Note_off_c, 0, 71, 64
2, 825119, Note_off_c, 0, 52, 64
2, 825127, Control_c, 0, 64, 127
2, 825168, Note_on_c, 0, 59, 56
2, 825208, Note_off_c, 0, 64, 64
2, 825223, Note_on_c, 0, 67, 44
2, 825235, Note_off_c, 0, 69, 64
2, 825256, Note_off_c, 0, 67, 64
2, 825286, Note_on_c, 0, 60, 69
2, 825292, Note_on_c, 0, 67, 57
2, 825303, Control_c, 0, 64, 0
2, 825305, Note_off_c, 0, 59, 64
2, 825316, Control_c, 0, 64, 127
2, 825408, Note_on_c, 0, 65, 48
2, 825425, Note_off_c, 0, 67, 64
2, 825447, Note_off_c, 0, 65, 64
2, 825482, Note_on_c, 0, 57, 51
2, 825486, Note_off_c, 0, 60, 64
2, 825491, Note_on_c, 0, 65, 50
2, 825500, Control_c, 0, 64, 0
2, 825537, Control_c, 0, 64, 127
2, 825601, Note_on_c, 0, 63, 34
2, 825618, Note_off_c, 0, 65, 64
2, 825640, Note_off_c, 0, 63, 64
2, 825692, Note_on_c, 0, 63, 37
2, 825703, Note_on_c, 0, 59, 54
2, 825705, Note_off_c, 0, 57, 64
2, 825725, Control_c, 0, 64, 0
2, 825747, Control_c, 0, 64, 127
2, 825813, Note_on_c, 0, 56, 41
2, 825860, Note_on_c, 0, 64, 48
2, 825884, Note_off_c, 0, 63, 64
2, 825916, Note_off_c, 0, 64, 64
2, 825934, Note_on_c, 0, 52, 34
2, 825938, Note_on_c, 0, 64, 50
2, 825952, Note_off_c, 0, 56, 64
2, 825953, Control_c, 0, 64, 0
2, 825983, Control_c, 0, 64, 127
2, 825996, Note_off_c, 0, 59, 64
2, 826224, Note_on_c, 0, 47, 41
2, 826224, Note_on_c, 0, 40, 43
2, 826231, Note_on_c, 0, 62, 51
2, 826234, Note_on_c, 0, 56, 35
2, 826245, Control_c, 0, 64, 0
2, 826288, Control_c, 0, 64, 127
2, 826441, Note_off_c, 0, 40, 64
2, 826441, Note_off_c, 0, 47, 64
2, 826460, Note_on_c, 0, 66, 50
2, 826464, Note_on_c, 0, 40, 43
2, 826464, Note_on_c, 0, 47, 41
2, 826485, Control_c, 0, 64, 0
2, 826492, Note_off_c, 0, 52, 64
2, 826496, Note_off_c, 0, 64, 64
2, 826528, Control_c, 0, 64, 127
2, 826576, Note_on_c, 0, 68, 52
2, 826647, Note_off_c, 0, 66, 64
2, 826693, Note_on_c, 0, 69, 63
2, 826706, Note_off_c, 0, 47, 64
2, 826706, Note_off_c, 0, 40, 64
2, 826710, Note_off_c, 0, 68, 64
2, 826714, Note_off_c, 0, 62, 64
2, 826717, Note_off_c, 0, 56, 64
2, 826896, Note_on_c, 0, 71, 60
2, 826897, Note_on_c, 0, 56, 43
2, 826905, Note_on_c, 0, 62, 47
2, 826906, Note_on_c, 0, 52, 49
2, 826919, Control_c, 0, 64, 0
2, 826933, Note_off_c, 0, 69, 64
2, 826941, Control_c, 0, 64, 127
2, 827017, Note_off_c, 0, 56, 64
2, 827025, Note_off_c, 0, 62, 64
2, 827026, Note_off_c, 0, 52, 64
2, 827105, Note_on_c, 0, 72, 55
2, 827105, Note_on_c, 0, 45, 51
2, 827118, Control_c, 0, 64, 0
2, 827127, Note_off_c, 0, 71, 64
2, 827148, Control_c, 0, 64, 127
2, 827198, Note_on_c, 0, 77, 56
2, 827250, Note_off_c, 0, 72, 64
2, 827292, Note_on_c, 0, 76, 62
2, 827296, Note_on_c, 0, 60, 44
2, 827306, Note_on_c, 0, 52, 50
2, 827306, Control_c, 0, 64, 0
2, 827315, Note_off_c, 0, 77, 64
2, 827334, Control_c, 0, 64, 127
2, 827380, Note_on_c, 0, 72, 66
2, 827401, Note_off_c, 0, 76, 64
2, 827425, Note_off_c, 0, 60, 64
2, 827435, Note_off_c, 0, 52, 64
2, 827464, Control_c, 0, 64, 0
2, 827470, Note_on_c, 0, 44, 55
2, 827470, Note_on_c, 0, 76, 44
2, 827492, Control_c, 0, 64, 127
2, 827497, Note_off_c, 0, 72, 64
2, 827504, Note_off_c, 0, 45, 64
2, 827557, Note_on_c, 0, 78, 62
2, 827604, Note_off_c, 0, 76, 64
2, 827649, Control_c, 0, 64, 0
2, 827658, Note_on_c, 0, 79, 59
2, 827664, Note_on_c, 0, 43, 55
2, 827678, Control_c, 0, 64, 127
2, 827685, Note_off_c, 0, 44, 64
2, 827689, Note_off_c, 0, 78, 64
2, 827745, Note_on_c, 0, 74, 51
2, 827763, Note_off_c, 0, 79, 64
2, 827826, Note_on_c, 0, 76, 57
2, 827826, Note_on_c, 0, 60, 35
2, 827833, Note_on_c, 0, 64, 43
2, 827837, Note_on_c, 0, 55, 35
2, 827848, Control_c, 0, 64, 0
2, 827864, Note_off_c, 0, 74, 64
2, 827872, Control_c, 0, 64, 127
2, 827925, Note_on_c, 0, 71, 55
2, 827928, Note_off_c, 0, 76, 64
2, 827946, Note_off_c, 0, 60, 64
2, 827953, Note_off_c, 0, 64, 64
2, 827957, Note_off_c, 0, 55, 64
2, 827966, Note_off_c, 0, 43, 64
2, 828021, Note_on_c, 0, 72, 59
2, 828024, Note_on_c, 0, 69, 27
2, 828025, Note_on_c, 0, 60, 41
2, 828028, Note_off_c, 0, 71, 64
2, 828032, Note_on_c, 0, 64, 27
2, 828032, Control_c, 0, 64, 0
2, 828040, Control_c, 0, 64, 0
2, 828085, Control_c, 0, 64, 127
2, 828107, Note_off_c, 0, 69, 64
2, 828121, Note_off_c, 0, 72, 64
2, 828123, Note_on_c, 0, 69, 62
2, 828252, Note_off_c, 0, 64, 64
2, 828252, Note_on_c, 0, 74, 57
2, 828265, Control_c, 0, 64, 0
2, 828286, Note_off_c, 0, 69, 64
2, 828288, Note_off_c, 0, 60, 64
2, 828296, Control_c, 0, 64, 127
2, 828343, Note_on_c, 0, 71, 54
2, 828362, Note_off_c, 0, 74, 64
2, 828444, Note_on_c, 0, 67, 50
2, 828464, Note_on_c, 0, 62, 41
2, 828465, Note_on_c, 0, 55, 34
2, 828470, Note_on_c, 0, 65, 25
2, 828471, Note_off_c, 0, 71, 64
2, 828483, Control_c, 0, 64, 0
2, 828515, Control_c, 0, 64, 127
2, 828584, Note_off_c, 0, 62, 64
2, 828585, Note_off_c, 0, 55, 64
2, 828590, Note_off_c, 0, 65, 64
2, 828712, Note_on_c, 0, 65, 26
2, 828714, Note_on_c, 0, 59, 28
2, 828724, Note_on_c, 0, 55, 25
2, 828736, Control_c, 0, 64, 0
2, 828781, Control_c, 0, 64, 127
2, 828934, Note_off_c, 0, 59, 64
2, 828934, Note_on_c, 0, 69, 55
2, 828937, Note_off_c, 0, 55, 64
2, 828951, Note_off_c, 0, 65, 64
2, 828967, Note_off_c, 0, 67, 64
2, 829021, Note_on_c, 0, 71, 52
2, 829053, Note_off_c, 0, 69, 64
2, 829085, Control_c, 0, 64, 0
2, 829088, Note_on_c, 0, 55, 50
2, 829095, Note_on_c, 0, 57, 44
2, 829098, Note_on_c, 0, 65, 46
2, 829107, Note_on_c, 0, 72, 59
2, 829122, Note_off_c, 0, 71, 64
2, 829130, Control_c, 0, 64, 127
2, 829208, Note_off_c, 0, 55, 64
2, 829215, Note_off_c, 0, 57, 64
2, 829218, Note_off_c, 0, 65, 64
2, 829288, Note_on_c, 0, 74, 62
2, 829292, Note_on_c, 0, 65, 50
2, 829296, Note_on_c, 0, 55, 41
2, 829296, Note_on_c, 0, 59, 50
2, 829298, Note_off_c, 0, 72, 64
2, 829473, Note_off_c, 0, 65, 64
2, 829477, Note_off_c, 0, 59, 64
2, 829477, Note_off_c, 0, 55, 64
2, 829482, Note_on_c, 0, 76, 51
2, 829482, Note_on_c, 0, 48, 50
2, 829492, Control_c, 0, 64, 0
2, 829504, Note_off_c, 0, 74, 64
2, 829527, Control_c, 0, 64, 127
2, 829596, Note_on_c, 0, 78, 49
2, 829621, Note_off_c, 0, 76, 64
2, 829680, Note_on_c, 0, 76, 62
2, 829687, Note_off_c, 0, 78, 64
2, 829740, Control_c, 0, 64, 0
2, 829750, Note_on_c, 0, 58, 36
2, 829754, Note_on_c, 0, 54, 26
2, 829756, Note_on_c, 0, 78, 50
2, 829759, Note_on_c, 0, 64, 31
2, 829771, Control_c, 0, 64, 127
2, 829782, Note_off_c, 0, 76, 64
2, 829828, Note_off_c, 0, 78, 64
2, 829831, Note_off_c, 0, 48, 64
2, 829831, Note_on_c, 0, 80, 44
2, 829877, Note_on_c, 0, 78, 55
2, 829883, Note_off_c, 0, 80, 64
2, 829885, Note_off_c, 0, 58, 64
2, 829897, Note_off_c, 0, 54, 64
2, 829920, Note_off_c, 0, 78, 64
2, 829921, Note_off_c, 0, 64, 64
2, 829926, Note_on_c, 0, 80, 65
2, 829958, Note_on_c, 0, 78, 65
2, 829959, Note_off_c, 0, 80, 64
2, 829989, Note_off_c, 0, 78, 64
2, 830003, Note_on_c, 0, 80, 63
2, 830006, Note_on_c, 0, 48, 51
2, 830029, Note_on_c, 0, 78, 50
2, 830034, Note_off_c, 0, 80, 64
2, 830050, Note_off_c, 0, 78, 64
2, 830063, Note_on_c, 0, 80, 60
2, 830095, Note_on_c, 0, 78, 60
2, 830107, Note_off_c, 0, 80, 64
2, 830148, Note_off_c, 0, 78, 64
2, 830155, Note_on_c, 0, 76, 54
2, 830224, Note_on_c, 0, 78, 56
2, 830240, Note_off_c, 0, 76, 64
2, 830313, Note_on_c, 0, 80, 51
2, 830322, Note_off_c, 0, 78, 64
2, 830322, Note_on_c, 0, 47, 44
2, 830323, Control_c, 0, 64, 0
2, 830346, Note_off_c, 0, 48, 64
2, 830350, Control_c, 0, 64, 127
2, 830420, Note_on_c, 0, 71, 51
2, 830433, Note_off_c, 0, 80, 64
2, 830524, Note_on_c, 0, 56, 52
2, 830528, Note_on_c, 0, 80, 58
2, 830528, Note_on_c, 0, 64, 26
2, 830528, Note_on_c, 0, 59, 36
2, 830548, Control_c, 0, 64, 0
2, 830563, Note_off_c, 0, 71, 64
2, 830574, Control_c, 0, 64, 127
2, 830644, Note_off_c, 0, 56, 64
2, 830648, Note_off_c, 0, 59, 64
2, 830648, Note_off_c, 0, 64, 64
2, 830703, Note_off_c, 0, 47, 64
2, 830728, Note_on_c, 0, 63, 34
2, 830734, Note_on_c, 0, 78, 59
2, 830736, Note_on_c, 0, 59, 26
2, 830739, Note_on_c, 0, 57, 52
2, 830748, Note_off_c, 0, 80, 64
2, 830761, Control_c, 0, 64, 0
2, 830793, Control_c, 0, 64, 127
2, 830820, Note_on_c, 0, 80, 62
2, 830844, Note_off_c, 0, 78, 64
2, 830848, Note_off_c, 0, 63, 64
2, 830856, Note_off_c, 0, 59, 64
2, 830859, Note_off_c, 0, 57, 64
2, 830924, Note_on_c, 0, 76, 57
2, 830928, Note_on_c, 0, 52, 51
2, 830937, Control_c, 0, 64, 0
2, 830942, Note_off_c, 0, 80, 64
2, 830986, Control_c, 0, 64, 127
2, 831087, Note_off_c, 0, 76, 64
2, 831091, Note_on_c, 0, 71, 48
2, 831144, Note_on_c, 0, 68, 50
2, 831144, Note_on_c, 0, 64, 34
2, 831147, Note_on_c, 0, 59, 26
2, 831153, Note_on_c, 0, 76, 66
2, 831156, Note_on_c, 0, 56, 37
2, 831168, Control_c, 0, 64, 0
2, 831172, Note_off_c, 0, 71, 64
2, 831202, Control_c, 0, 64, 127
2, 831217, Note_off_c, 0, 52, 64
2, 831264, Note_off_c, 0, 64, 64
2, 831264, Note_off_c, 0, 68, 64
2, 831267, Note_off_c, 0, 59, 64
2, 831276, Note_off_c, 0, 56, 64
2, 831372, Note_on_c, 0, 57, 37
2, 831374, Note_on_c, 0, 61, 33
2, 831376, Note_on_c, 0, 67, 21
2, 831384, Control_c, 0, 64, 0
2, 831410, Control_c, 0, 64, 127
2, 831492, Note_off_c, 0, 57, 64
2, 831494, Note_off_c, 0, 61, 64
2, 831496, Note_off_c, 0, 67, 64
2, 831609, Control_c, 0, 64, 0
2, 831616, Note_on_c, 0, 77, 56
2, 831616, Note_on_c, 0, 50, 41
2, 831641, Note_off_c, 0, 76, 64
2, 831648, Control_c, 0, 64, 127
2, 831733, Note_on_c, 0, 69, 51
2, 831804, Note_off_c, 0, 77, 64
2, 831828, Note_on_c, 0, 74, 57
2, 831835, Note_on_c, 0, 65, 26
2, 831841, Note_on_c, 0, 62, 28
2, 831841, Note_on_c, 0, 57, 32
2, 831848, Control_c, 0, 64, 0
2, 831879, Note_off_c, 0, 69, 64
2, 831883, Control_c, 0, 64, 127
2, 831915, Note_off_c, 0, 50, 64
2, 831955, Note_off_c, 0, 65, 64
2, 831961, Note_off_c, 0, 57, 64
2, 831961, Note_off_c, 0, 62, 64
2, 832076, Note_on_c, 0, 71, 52
2, 832077, Note_on_c, 0, 52, 43
2, 832081, Note_on_c, 0, 56, 24
2, 832092, Note_on_c, 0, 62, 26
2, 832094, Note_off_c, 0, 74, 64
2, 832099, Control_c, 0, 64, 0
2, 832121, Control_c, 0, 64, 127
2, 832197, Note_off_c, 0, 52, 64
2, 832201, Note_off_c, 0, 56, 64
2, 832212, Note_off_c, 0, 62, 64
2, 832241, Note_on_c, 0, 72, 44
2, 832250, Note_off_c, 0, 71, 64
2, 832301, Note_on_c, 0, 69, 58
2, 832309, Note_off_c, 0, 72, 64
2, 832333, Note_on_c, 0, 71, 57
2, 832344, Note_off_c, 0, 69, 64
2, 832377, Note_on_c, 0, 69, 59
2, 832391, Note_off_c, 0, 71, 64
2, 832395, Control_c, 0, 64, 0
2, 832430, Control_c, 0, 64, 127
2, 832608, Note_off_c, 0, 69, 64
2, 832608, Note_on_c, 0, 68, 51
2, 832703, Note_on_c, 0, 60, 56
2, 832704, Note_on_c, 0, 52, 24
2, 832705, Note_on_c, 0, 69, 49
2, 832712, Note_on_c, 0, 45, 33
2, 832729, Control_c, 0, 64, 0
2, 832735, Note_off_c, 0, 68, 64
2, 832775, Control_c, 0, 64, 127
2, 832927, Note_off_c, 0, 60, 64
2, 832928, Note_off_c, 0, 52, 64
2, 832936, Note_off_c, 0, 45, 64
2, 833074, Note_on_c, 0, 60, 50
2, 833091, Note_on_c, 0, 52, 26
2, 833091, Note_on_c, 0, 45, 28
2, 833104, Control_c, 0, 64, 0
2, 833150, Control_c, 0, 64, 127
2, 833241, Note_off_c, 0, 45, 64
2, 833244, Note_off_c, 0, 52, 64
2, 833379, Note_on_c, 0, 61, 43
2, 833392, Note_off_c, 0, 60, 64
2, 833398, Note_on_c, 0, 52, 23
2, 833399, Note_on_c, 0, 45, 23
2, 833406, Control_c, 0, 64, 0
2, 833449, Control_c, 0, 64, 127
2, 833603, Note_off_c, 0, 61, 64
2, 833622, Note_off_c, 0, 52, 64
2, 833623, Note_off_c, 0, 45, 64
2, 833697, Control_c, 0, 64, 0
2, 833701, Note_on_c, 0, 61, 41
2, 833701, Note_on_c, 0, 52, 28
2, 833709, Note_on_c, 0, 45, 27
2, 833726, Control_c, 0, 64, 127
2, 833736, Note_off_c, 0, 69, 64
2, 833845, Control_c, 0, 64, 0
2, 833872, Control_c, 0, 64, 127
2, 833925, Note_off_c, 0, 52, 64
2, 833933, Note_off_c, 0, 45, 64
2, 833989, Note_on_c, 0, 64, 43
2, 833989, Note_on_c, 0, 54, 29
2, 833996, Note_on_c, 0, 45, 29
2, 834000, Note_on_c, 0, 38, 31
2, 834008, Note_off_c, 0, 61, 64
2, 834012, Control_c, 0, 64, 0
2, 834044, Control_c, 0, 64, 127
2, 834194, Note_on_c, 0, 62, 29
2, 834210, Note_off_c, 0, 64, 64
2, 834213, Note_off_c, 0, 54, 64
2, 834220, Note_off_c, 0, 45, 64
2, 834224, Note_off_c, 0, 38, 64
2, 834260, Note_on_c, 0, 61, 41
2, 834267, Note_on_c, 0, 45, 35
2, 834269, Note_on_c, 0, 52, 34
2, 834276, Note_off_c, 0, 62, 64
2, 834277, Control_c, 0, 64, 0
2, 834304, Control_c, 0, 64, 127
2, 834429, Control_c, 0, 64, 0
2, 834456, Control_c, 0, 64, 127
2, 834458, Note_off_c, 0, 61, 64
2, 834465, Note_off_c, 0, 45, 64
2, 834467, Note_off_c, 0, 52, 64
2, 834520, Note_on_c, 0, 61, 43
2, 834521, Note_on_c, 0, 45, 41
2, 834524, Note_on_c, 0, 33, 36
2, 834533, Note_on_c, 0, 52, 43
2, 834541, Control_c, 0, 64, 0
2, 834586, Control_c, 0, 64, 127
2, 834745, Note_off_c, 0, 45, 64
2, 834748, Note_off_c, 0, 33, 64
2, 834757, Note_off_c, 0, 52, 64
2, 834789, Note_on_c, 0, 54, 41
2, 834791, Note_on_c, 0, 57, 49
2, 834799, Note_on_c, 0, 45, 39
2, 834802, Note_on_c, 0, 38, 32
2, 834806, Note_off_c, 0, 61, 64
2, 834811, Control_c, 0, 64, 0
2, 834855, Control_c, 0, 64, 127
2, 834961, Note_on_c, 0, 59, 43
2, 834987, Note_off_c, 0, 54, 64
2, 835000, Note_off_c, 0, 57, 64
2, 835023, Note_off_c, 0, 45, 64
2, 835026, Note_off_c, 0, 38, 64
2, 835028, Note_on_c, 0, 52, 34
2, 835031, Note_on_c, 0, 61, 46
2, 835040, Note_on_c, 0, 45, 40
2, 835053, Note_off_c, 0, 59, 64
2, 835064, Control_c, 0, 64, 0
2, 835097, Control_c, 0, 64, 127
2, 835252, Note_off_c, 0, 52, 64
2, 835255, Note_off_c, 0, 61, 64
2, 835288, Note_on_c, 0, 61, 47
2, 835288, Note_on_c, 0, 59, 46
2, 835293, Note_on_c, 0, 44, 41
2, 835294, Note_on_c, 0, 53, 42
2, 835309, Note_off_c, 0, 45, 64
2, 835320, Control_c, 0, 64, 0
2, 835364, Control_c, 0, 64, 127
2, 835512, Note_off_c, 0, 59, 64
2, 835518, Note_off_c, 0, 53, 64
2, 835568, Note_on_c, 0, 64, 43
2, 835575, Note_on_c, 0, 57, 43
2, 835575, Note_on_c, 0, 54, 43
2, 835579, Note_on_c, 0, 42, 43
2, 835583, Note_off_c, 0, 61, 64
2, 835595, Control_c, 0, 64, 0
2, 835614, Note_off_c, 0, 44, 64
2, 835630, Control_c, 0, 64, 127
2, 835771, Note_on_c, 0, 62, 44
2, 835799, Note_off_c, 0, 54, 64
2, 835799, Note_off_c, 0, 57, 64
2, 835807, Note_off_c, 0, 64, 64
2, 835832, Note_on_c, 0, 61, 54
2, 835836, Note_on_c, 0, 56, 54
2, 835840, Note_on_c, 0, 41, 39
2, 835846, Control_c, 0, 64, 0
2, 835856, Note_off_c, 0, 62, 64
2, 835874, Note_off_c, 0, 42, 64
2, 835901, Control_c, 0, 64, 127
2, 836067, Note_off_c, 0, 61, 64
2, 836100, Note_on_c, 0, 57, 56
2, 836100, Note_on_c, 0, 61, 51
2, 836105, Note_on_c, 0, 42, 49
2, 836108, Note_off_c, 0, 56, 64
2, 836108, Note_on_c, 0, 49, 32
2, 836117, Note_off_c, 0, 41, 64
2, 836119, Control_c, 0, 64, 0
2, 836141, Control_c, 0, 64, 0
2, 836151, Control_c, 0, 64, 127
2, 836168, Control_c, 0, 64, 127
2, 836331, Control_c, 0, 64, 0
2, 836374, Note_off_c, 0, 57, 64
2, 836401, Note_on_c, 0, 39, 50
2, 836404, Note_on_c, 0, 57, 60
2, 836404, Note_on_c, 0, 54, 54
2, 836418, Note_off_c, 0, 61, 64
2, 836423, Note_off_c, 0, 42, 64
2, 836426, Note_off_c, 0, 49, 64
2, 836430, Control_c, 0, 64, 127
2, 836604, Note_on_c, 0, 59, 62
2, 836620, Note_off_c, 0, 57, 64
2, 836621, Note_off_c, 0, 54, 64
2, 836652, Note_on_c, 0, 40, 52
2, 836660, Note_on_c, 0, 52, 50
2, 836660, Control_c, 0, 64, 0
2, 836667, Note_on_c, 0, 61, 51
2, 836674, Note_off_c, 0, 39, 64
2, 836674, Note_on_c, 0, 57, 55
2, 836700, Control_c, 0, 64, 127
2, 836724, Note_off_c, 0, 59, 64
2, 836828, Note_on_c, 0, 62, 34
2, 836858, Note_off_c, 0, 61, 64
2, 836876, Note_off_c, 0, 40, 64
2, 836884, Note_off_c, 0, 52, 64
2, 836898, Note_off_c, 0, 57, 64
2, 836922, Note_on_c, 0, 52, 43
2, 836931, Note_on_c, 0, 63, 59
2, 836943, Control_c, 0, 64, 0
2, 836944, Note_off_c, 0, 62, 64
2, 836966, Control_c, 0, 64, 127
2, 837053, Note_on_c, 0, 64, 54
2, 837082, Note_off_c, 0, 63, 64
2, 837146, Note_off_c, 0, 52, 64
2, 837176, Note_on_c, 0, 73, 59
2, 837180, Note_on_c, 0, 56, 54
2, 837188, Note_on_c, 0, 52, 54
2, 837193, Note_off_c, 0, 64, 64
2, 837193, Note_on_c, 0, 62, 52
2, 837200, Control_c, 0, 64, 0
2, 837222, Control_c, 0, 64, 127
2, 837328, Note_on_c, 0, 71, 71
2, 837332, Note_on_c, 0, 78, 59
2, 837350, Note_off_c, 0, 73, 64
2, 837403, Note_off_c, 0, 71, 64
2, 837404, Note_off_c, 0, 56, 64
2, 837405, Note_on_c, 0, 45, 52
2, 837412, Note_off_c, 0, 52, 64
2, 837417, Note_off_c, 0, 62, 64
2, 837428, Note_on_c, 0, 52, 44
2, 837432, Note_on_c, 0, 71, 67
2, 837433, Note_off_c, 0, 78, 64
2, 837435, Note_on_c, 0, 76, 67
2, 837452, Control_c, 0, 64, 0
2, 837461, Note_on_c, 0, 62, 58
2, 837481, Control_c, 0, 64, 127
2, 837575, Note_on_c, 0, 69, 62
2, 837601, Note_off_c, 0, 71, 64
2, 837629, Note_off_c, 0, 45, 64
2, 837647, Note_off_c, 0, 69, 64
2, 837652, Note_off_c, 0, 52, 64
2, 837660, Note_on_c, 0, 69, 65
2, 837685, Note_on_c, 0, 52, 59
2, 837706, Note_on_c, 0, 81, 72
2, 837706, Note_on_c, 0, 61, 59
2, 837718, Note_off_c, 0, 62, 64
2, 837719, Control_c, 0, 64, 0
2, 837742, Note_off_c, 0, 76, 64
2, 837754, Control_c, 0, 64, 127
2, 837909, Note_off_c, 0, 52, 64
2, 837930, Note_off_c, 0, 61, 64
2, 837934, Note_on_c, 0, 53, 46
2, 837936, Note_on_c, 0, 61, 49
2, 837945, Note_on_c, 0, 57, 51
2, 837949, Control_c, 0, 64, 0
2, 837964, Control_c, 0, 64, 127
2, 838058, Note_on_c, 0, 80, 62
2, 838081, Note_off_c, 0, 81, 64
2, 838116, Note_off_c, 0, 80, 64
2, 838158, Note_off_c, 0, 53, 64
2, 838160, Note_off_c, 0, 61, 64
2, 838166, Note_off_c, 0, 69, 64
2, 838169, Note_off_c, 0, 57, 64
2, 838172, Note_on_c, 0, 66, 55
2, 838174, Note_on_c, 0, 54, 44
2, 838176, Note_on_c, 0, 61, 48
2, 838179, Note_on_c, 0, 80, 67
2, 838185, Note_on_c, 0, 57, 49
2, 838189, Control_c, 0, 64, 0
2, 838189, Control_c, 0, 64, 0
2, 838203, Control_c, 0, 64, 127
2, 838204, Control_c, 0, 64, 127
2, 838302, Note_on_c, 0, 69, 57
2, 838331, Note_off_c, 0, 66, 64
2, 838386, Note_off_c, 0, 54, 64
2, 838400, Note_off_c, 0, 61, 64
2, 838403, Note_on_c, 0, 54, 48
2, 838409, Note_off_c, 0, 57, 64
2, 838410, Note_on_c, 0, 62, 40
2, 838410, Control_c, 0, 64, 0
2, 838419, Note_on_c, 0, 57, 42
2, 838420, Note_on_c, 0, 74, 59
2, 838442, Control_c, 0, 64, 127
2, 838457, Note_off_c, 0, 69, 64
2, 838521, Note_on_c, 0, 76, 54
2, 838542, Note_off_c, 0, 74, 64
2, 838571, Note_off_c, 0, 80, 64
2, 838627, Note_off_c, 0, 54, 64
2, 838632, Control_c, 0, 64, 0
2, 838634, Note_off_c, 0, 62, 64
2, 838639, Note_on_c, 0, 45, 50
2, 838642, Note_on_c, 0, 80, 69
2, 838643, Note_off_c, 0, 57, 64
2, 838672, Control_c, 0, 64, 127
2, 838677, Note_off_c, 0, 76, 64
2, 838744, Note_on_c, 0, 74, 58
2, 838745, Note_on_c, 0, 78, 64
2, 838762, Note_off_c, 0, 80, 64
2, 838816, Note_on_c, 0, 52, 67
2, 838856, Note_on_c, 0, 73, 58
2, 838858, Note_on_c, 0, 61, 46
2, 838864, Note_on_c, 0, 76, 69
2, 838872, Control_c, 0, 64, 0
2, 838877, Note_off_c, 0, 74, 64
2, 838878, Note_off_c, 0, 78, 64
2, 838885, Control_c, 0, 64, 127
2, 838956, Note_on_c, 0, 67, 70
2, 838966, Note_on_c, 0, 75, 63
2, 838967, Note_off_c, 0, 73, 64
2, 838975, Note_off_c, 0, 76, 64
2, 839056, Note_off_c, 0, 52, 64
2, 839077, Note_on_c, 0, 66, 70
2, 839083, Note_on_c, 0, 46, 63
2, 839087, Note_on_c, 0, 76, 59
2, 839090, Note_off_c, 0, 67, 64
2, 839095, Control_c, 0, 64, 0
2, 839098, Note_off_c, 0, 61, 64
2, 839100, Note_off_c, 0, 75, 64
2, 839117, Control_c, 0, 64, 127
2, 839125, Note_off_c, 0, 45, 64
2, 839196, Note_on_c, 0, 77, 59
2, 839221, Note_off_c, 0, 76, 64
2, 839297, Note_on_c, 0, 42, 63
2, 839309, Note_on_c, 0, 78, 71
2, 839323, Note_off_c, 0, 77, 64
2, 839335, Note_off_c, 0, 46, 64
2, 839415, Note_on_c, 0, 76, 60
2, 839424, Note_on_c, 0, 70, 48
2, 839437, Note_off_c, 0, 78, 64
2, 839451, Note_off_c, 0, 66, 64
2, 839526, Note_off_c, 0, 70, 64
2, 839530, Note_on_c, 0, 74, 49
2, 839532, Note_on_c, 0, 70, 59
2, 839534, Note_off_c, 0, 76, 64
2, 839539, Note_on_c, 0, 35, 50
2, 839554, Control_c, 0, 64, 0
2, 839583, Note_off_c, 0, 42, 64
2, 839588, Control_c, 0, 64, 127
2, 839642, Note_on_c, 0, 71, 49
2, 839666, Note_off_c, 0, 70, 64
2, 839675, Note_off_c, 0, 74, 64
2, 839744, Note_off_c, 0, 71, 64
2, 839748, Note_on_c, 0, 68, 62
2, 839748, Note_on_c, 0, 59, 41
2, 839752, Note_on_c, 0, 62, 28
2, 839768, Control_c, 0, 64, 0
2, 839781, Control_c, 0, 64, 127
2, 839820, Note_off_c, 0, 35, 64
2, 839848, Note_on_c, 0, 73, 57
2, 839848, Note_on_c, 0, 69, 52
2, 839868, Note_off_c, 0, 59, 64
2, 839872, Note_off_c, 0, 62, 64
2, 839873, Note_off_c, 0, 68, 64
2, 839948, Note_on_c, 0, 56, 44
2, 839954, Note_on_c, 0, 76, 47
2, 839956, Note_on_c, 0, 59, 43
2, 839962, Note_off_c, 0, 69, 64
2, 839962, Note_on_c, 0, 66, 60
2, 839974, Control_c, 0, 64, 0
2, 839976, Note_off_c, 0, 73, 64
2, 839985, Control_c, 0, 64, 127
2, 840059, Note_on_c, 0, 74, 40
2, 840062, Note_on_c, 0, 68, 50
2, 840068, Note_off_c, 0, 56, 64
2, 840073, Note_off_c, 0, 76, 64
2, 840076, Note_off_c, 0, 59, 64
2, 840090, Note_off_c, 0, 66, 64
2, 840164, Note_on_c, 0, 72, 54
2, 840181, Note_off_c, 0, 74, 64
2, 840181, Note_on_c, 0, 59, 44
2, 840181, Note_on_c, 0, 49, 40
2, 840197, Control_c, 0, 64, 0
2, 840217, Control_c, 0, 64, 127
2, 840272, Note_on_c, 0, 73, 46
2, 840279, Note_off_c, 0, 72, 64
2, 840286, Note_on_c, 0, 65, 59
2, 840301, Note_off_c, 0, 68, 64
2, 840383, Note_off_c, 0, 49, 64
2, 840395, Note_on_c, 0, 74, 50
2, 840400, Note_on_c, 0, 54, 39
2, 840403, Note_on_c, 0, 64, 56
2, 840403, Note_on_c, 0, 58, 37
2, 840405, Note_off_c, 0, 73, 64
2, 840412, Note_off_c, 0, 65, 64
2, 840416, Note_off_c, 0, 59, 64
2, 840432, Control_c, 0, 64, 0
2, 840459, Control_c, 0, 64, 127
2, 840620, Note_on_c, 0, 66, 49
2, 840634, Note_off_c, 0, 58, 64
2, 840649, Control_c, 0, 64, 0
2, 840672, Control_c, 0, 64, 127
2, 840744, Note_on_c, 0, 73, 49
2, 840770, Note_off_c, 0, 64, 64
2, 840770, Note_off_c, 0, 74, 64
2, 840875, Note_on_c, 0, 63, 57
2, 840898, Note_off_c, 0, 73, 64
2, 840910, Note_off_c, 0, 66, 64
2, 840996, Note_on_c, 0, 66, 56
2, 841015, Note_off_c, 0, 63, 64
2, 841103, Note_on_c, 0, 47, 51
2, 841110, Control_c, 0, 64, 0
2, 841116, Note_on_c, 0, 68, 56
2, 841129, Note_off_c, 0, 66, 64
2, 841141, Control_c, 0, 64, 127
2, 841202, Note_on_c, 0, 69, 56
2, 841210, Note_off_c, 0, 68, 64
2, 841324, Note_on_c, 0, 57, 51
2, 841337, Note_on_c, 0, 73, 55
2, 841339, Note_on_c, 0, 63, 51
2, 841351, Control_c, 0, 64, 0
2, 841356, Note_off_c, 0, 69, 64
2, 841365, Control_c, 0, 64, 127
2, 841392, Note_off_c, 0, 47, 64
2, 841451, Note_on_c, 0, 71, 56
2, 841470, Note_off_c, 0, 73, 64
2, 841552, Note_on_c, 0, 69, 60
2, 841575, Note_off_c, 0, 57, 64
2, 841579, Note_off_c, 0, 71, 64
2, 841582, Note_off_c, 0, 63, 64
2, 841600, Note_off_c, 0, 54, 64
2, 841666, Note_on_c, 0, 59, 51
2, 841694, Note_off_c, 0, 69, 64
2, 841764, Control_c, 0, 64, 0
2, 841772, Note_on_c, 0, 40, 51
2, 841782, Note_on_c, 0, 62, 57
2, 841801, Control_c, 0, 64, 127
2, 841808, Note_off_c, 0, 59, 64
2, 841890, Note_on_c, 0, 64, 57
2, 841902, Note_off_c, 0, 62, 64
2, 842013, Note_on_c, 0, 66, 52
2, 842013, Note_on_c, 0, 52, 52
2, 842019, Note_on_c, 0, 62, 51
2, 842040, Note_off_c, 0, 64, 64
2, 842040, Control_c, 0, 64, 0
2, 842063, Note_off_c, 0, 40, 64
2, 842072, Control_c, 0, 64, 127
2, 842129, Note_on_c, 0, 69, 49
2, 842153, Note_off_c, 0, 66, 64
2, 842177, Note_on_c, 0, 68, 60
2, 842197, Note_off_c, 0, 69, 64
2, 842214, Control_c, 0, 64, 0
2, 842250, Control_c, 0, 64, 127
2, 842289, Note_off_c, 0, 62, 64
2, 842292, Control_c, 0, 64, 0
2, 842295, Note_on_c, 0, 66, 55
2, 842300, Note_on_c, 0, 45, 51
2, 842312, Note_off_c, 0, 68, 64
2, 842329, Control_c, 0, 64, 127
2, 842408, Note_on_c, 0, 61, 62
2, 842431, Note_off_c, 0, 66, 64
2, 842446, Note_off_c, 0, 52, 64
2, 842501, Note_on_c, 0, 52, 51
2, 842508, Note_off_c, 0, 45, 64
2, 842511, Note_on_c, 0, 64, 57
2, 842543, Note_off_c, 0, 61, 64
2, 842625, Note_off_c, 0, 64, 64
2, 842625, Note_on_c, 0, 74, 41
2, 842723, Note_off_c, 0, 74, 64
2, 842730, Note_on_c, 0, 73, 40
2, 842751, Note_on_c, 0, 64, 62
2, 842756, Control_c, 0, 64, 0
2, 842787, Note_off_c, 0, 52, 64
2, 842789, Control_c, 0, 64, 127
2, 842857, Note_off_c, 0, 73, 64
2, 842859, Note_on_c, 0, 78, 65
2, 842871, Note_on_c, 0, 71, 52
2, 842881, Note_on_c, 0, 62, 50
2, 842897, Note_off_c, 0, 64, 64
2, 842907, Note_off_c, 0, 71, 64
2, 842927, Note_off_c, 0, 62, 64
2, 842978, Note_off_c, 0, 78, 64
2, 842988, Note_on_c, 0, 71, 63
2, 842995, Note_on_c, 0, 76, 62
2, 842995, Note_on_c, 0, 61, 56
2, 843007, Control_c, 0, 64, 0
2, 843029, Control_c, 0, 64, 127
2, 843092, Note_off_c, 0, 76, 64
2, 843101, Note_off_c, 0, 71, 64
2, 843136, Note_off_c, 0, 61, 64
2, 843152, Note_on_c, 0, 69, 49
2, 843196, Note_off_c, 0, 69, 64
2, 843208, Note_on_c, 0, 69, 56
2, 843263, Note_on_c, 0, 81, 63
2, 843274, Note_on_c, 0, 45, 55
2, 843288, Control_c, 0, 64, 0
2, 843310, Control_c, 0, 64, 127
2, 843516, Note_on_c, 0, 57, 50
2, 843516, Note_on_c, 0, 53, 49
2, 843523, Note_on_c, 0, 61, 48
2, 843533, Control_c, 0, 64, 0
2, 843548, Control_c, 0, 64, 127
2, 843560, Note_off_c, 0, 81, 64
2, 843563, Note_off_c, 0, 45, 64
2, 843645, Note_on_c, 0, 80, 66
2, 843718, Note_off_c, 0, 57, 64
2, 843728, Note_off_c, 0, 53, 64
2, 843733, Note_off_c, 0, 61, 64
2, 843801, Note_on_c, 0, 61, 59
2, 843810, Note_on_c, 0, 54, 44
2, 843810, Note_on_c, 0, 57, 51
2, 843828, Control_c, 0, 64, 0
2, 843841, Control_c, 0, 64, 127
2, 843887, Note_off_c, 0, 69, 64
2, 843922, Note_on_c, 0, 69, 56
2, 844022, Note_off_c, 0, 54, 64
2, 844025, Note_off_c, 0, 61, 64
2, 844034, Note_off_c, 0, 57, 64
2, 844037, Note_off_c, 0, 80, 64
2, 844039, Note_on_c, 0, 54, 42
2, 844046, Note_on_c, 0, 62, 43
2, 844046, Note_on_c, 0, 57, 50
2, 844053, Note_on_c, 0, 74, 62
2, 844063, Control_c, 0, 64, 0
2, 844095, Control_c, 0, 64, 127
2, 844149, Note_on_c, 0, 76, 62
2, 844174, Note_off_c, 0, 74, 64
2, 844263, Note_off_c, 0, 54, 64
2, 844270, Note_off_c, 0, 57, 64
2, 844270, Note_off_c, 0, 62, 64
2, 844271, Note_on_c, 0, 80, 62
2, 844273, Note_on_c, 0, 56, 54
2, 844278, Note_on_c, 0, 59, 47
2, 844282, Note_on_c, 0, 62, 41
2, 844292, Control_c, 0, 64, 0
2, 844299, Note_off_c, 0, 76, 64
2, 844330, Control_c, 0, 64, 127
2, 844429, Note_off_c, 0, 80, 64
2, 844436, Note_on_c, 0, 78, 60
2, 844461, Note_off_c, 0, 69, 64
2, 844474, Note_off_c, 0, 78, 64
2, 844497, Note_off_c, 0, 56, 64
2, 844498, Note_on_c, 0, 78, 65
2, 844502, Note_off_c, 0, 59, 64
2, 844506, Note_off_c, 0, 62, 64
2, 844507, Note_on_c, 0, 57, 49
2, 844511, Note_on_c, 0, 61, 50
2, 844523, Control_c, 0, 64, 0
2, 844556, Control_c, 0, 64, 127
2, 844615, Note_on_c, 0, 76, 60
2, 844650, Note_off_c, 0, 78, 64
2, 844718, Note_on_c, 0, 58, 58
2, 844726, Note_on_c, 0, 75, 62
2, 844730, Note_on_c, 0, 67, 50
2, 844731, Note_off_c, 0, 57, 64
2, 844735, Note_off_c, 0, 61, 64
2, 844746, Control_c, 0, 64, 0
2, 844749, Note_off_c, 0, 76, 64
2, 844777, Control_c, 0, 64, 127
2, 844835, Note_on_c, 0, 73, 59
2, 844849, Note_off_c, 0, 75, 64
2, 844939, Note_on_c, 0, 59, 51
2, 844946, Note_on_c, 0, 75, 55
2, 844955, Control_c, 0, 64, 0
2, 844957, Note_off_c, 0, 58, 64
2, 844966, Note_off_c, 0, 73, 64
2, 844980, Control_c, 0, 64, 127
2, 845041, Note_on_c, 0, 78, 48
2, 845048, Note_on_c, 0, 61, 41
2, 845071, Note_off_c, 0, 59, 64
2, 845072, Note_off_c, 0, 75, 64
2, 845072, Note_on_c, 0, 76, 42
2, 845086, Note_off_c, 0, 78, 64
2, 845118, Note_off_c, 0, 67, 64
2, 845172, Note_on_c, 0, 69, 41
2, 845184, Note_on_c, 0, 70, 62
2, 845187, Note_on_c, 0, 63, 51
2, 845194, Note_off_c, 0, 76, 64
2, 845200, Control_c, 0, 64, 0
2, 845237, Control_c, 0, 64, 127
2, 845327, Note_off_c, 0, 69, 64
2, 845330, Note_on_c, 0, 71, 56
2, 845359, Note_off_c, 0, 70, 64
2, 845367, Note_off_c, 0, 61, 64
2, 845373, Note_off_c, 0, 63, 64
2, 845397, Note_on_c, 0, 75, 51
2, 845414, Note_on_c, 0, 68, 49
2, 845416, Note_on_c, 0, 63, 49
2, 845418, Note_off_c, 0, 71, 64
2, 845418, Note_on_c, 0, 59, 42
2, 845423, Control_c, 0, 64, 0
2, 845446, Control_c, 0, 64, 127
2, 845519, Note_off_c, 0, 68, 64
2, 845521, Note_off_c, 0, 63, 64
2, 845525, Note_on_c, 0, 70, 62
2, 845529, Note_off_c, 0, 75, 64
2, 845542, Note_off_c, 0, 59, 64
2, 845617, Note_on_c, 0, 73, 57
2, 845623, Note_on_c, 0, 66, 42
2, 845623, Note_on_c, 0, 57, 44
2, 845633, Control_c, 0, 64, 0
2, 845667, Control_c, 0, 64, 127
2, 845685, Note_off_c, 0, 70, 64
2, 845695, Note_off_c, 0, 57, 64
2, 845695, Note_off_c, 0, 66, 64
2, 845723, Note_on_c, 0, 71, 55
2, 845736, Note_off_c, 0, 73, 64
2, 845823, Note_on_c, 0, 76, 56
2, 845836, Note_on_c, 0, 64, 35
2, 845841, Note_on_c, 0, 56, 41
2, 845846, Control_c, 0, 64, 0
2, 845853, Note_off_c, 0, 71, 64
2, 845858, Note_on_c, 0, 59, 23
2, 845872, Control_c, 0, 64, 127
2, 845887, Note_off_c, 0, 59, 64
2, 845899, Note_off_c, 0, 64, 64
2, 845905, Note_off_c, 0, 56, 64
2, 845959, Control_c, 0, 64, 0
2, 845963, Note_on_c, 0, 70, 57
2, 845982, Control_c, 0, 64, 127
2, 846037, Note_off_c, 0, 76, 64
2, 846071, Note_on_c, 0, 73, 52
2, 846074, Note_on_c, 0, 47, 34
2, 846101, Control_c, 0, 64, 0
2, 846124, Note_off_c, 0, 70, 64
2, 846130, Control_c, 0, 64, 127
2, 846177, Note_on_c, 0, 71, 52
2, 846183, Note_off_c, 0, 73, 64
2, 846297, Note_on_c, 0, 77, 62
2, 846297, Control_c, 0, 64, 0
2, 846314, Note_off_c, 0, 71, 64
2, 846323, Control_c, 0, 64, 127
2, 846351, Note_off_c, 0, 47, 64
2, 846412, Note_on_c, 0, 70, 65
2, 846422, Note_off_c, 0, 77, 64
2, 846515, Note_off_c, 0, 70, 64
2, 846533, Note_on_c, 0, 35, 64
2, 846536, Note_on_c, 0, 73, 62
2, 846546, Control_c, 0, 64, 0
2, 846559, Control_c, 0, 64, 127
2, 846640, Note_off_c, 0, 73, 64
2, 846650, Note_on_c, 0, 71, 57
2, 846729, Note_off_c, 0, 71, 64
2, 846731, Note_on_c, 0, 59, 39
2, 846788, Note_on_c, 0, 63, 71
2, 846800, Note_on_c, 0, 85, 72
2, 846814, Control_c, 0, 64, 0
2, 846820, Note_on_c, 0, 69, 49
2, 846828, Control_c, 0, 64, 127
2, 846846, Note_off_c, 0, 35, 64
2, 846971, Note_off_c, 0, 59, 64
2, 846971, Note_on_c, 0, 83, 59
2, 846991, Note_off_c, 0, 85, 64
2, 847028, Note_off_c, 0, 63, 64
2, 847031, Note_on_c, 0, 82, 65
2, 847051, Note_off_c, 0, 83, 64
2, 847060, Note_off_c, 0, 69, 64
2, 847137, Note_on_c, 0, 81, 60
2, 847149, Note_off_c, 0, 82, 64
2, 847263, Note_on_c, 0, 40, 49
2, 847264, Note_on_c, 0, 80, 57
2, 847289, Control_c, 0, 64, 0
2, 847294, Note_off_c, 0, 81, 64
2, 847302, Control_c, 0, 64, 127
2, 847384, Note_on_c, 0, 78, 52
2, 847409, Note_off_c, 0, 80, 64
2, 847504, Note_on_c, 0, 59, 49
2, 847504, Note_on_c, 0, 64, 41
2, 847504, Note_on_c, 0, 68, 41
2, 847511, Note_on_c, 0, 77, 56
2, 847515, Note_off_c, 0, 78, 64
2, 847561, Control_c, 0, 64, 0
2, 847563, Note_off_c, 0, 40, 64
2, 847574, Control_c, 0, 64, 127
2, 847598, Note_on_c, 0, 76, 55
2, 847606, Note_off_c, 0, 77, 64
2, 847682, Note_on_c, 0, 75, 52
2, 847708, Note_off_c, 0, 76, 64
2, 847747, Note_on_c, 0, 74, 56
2, 847758, Note_off_c, 0, 75, 64
2, 847764, Note_off_c, 0, 64, 64
2, 847779, Note_off_c, 0, 68, 64
2, 847812, Note_on_c, 0, 73, 62
2, 847823, Note_off_c, 0, 74, 64
2, 847830, Note_off_c, 0, 59, 64
2, 847867, Note_on_c, 0, 72, 51
2, 847868, Note_off_c, 0, 73, 64
2, 847939, Note_on_c, 0, 71, 58
2, 847939, Note_on_c, 0, 67, 58
2, 847939, Note_on_c, 0, 64, 55
2, 847949, Control_c, 0, 64, 0
2, 847953, Note_off_c, 0, 72, 64
2, 848057, Note_on_c, 0, 62, 39
2, 848076, Control_c, 0, 64, 127
2, 848107, Note_off_c, 0, 67, 64
2, 848115, Note_on_c, 0, 72, 51
2, 848123, Note_off_c, 0, 64, 64
2, 848126, Control_c, 0, 64, 0
2, 848132, Note_off_c, 0, 71, 64
2, 848156, Note_on_c, 0, 67, 51
2, 848161, Note_on_c, 0, 64, 51
2, 848167, Note_on_c, 0, 60, 42
2, 848200, Note_off_c, 0, 72, 64
2, 848221, Note_off_c, 0, 62, 64
2, 848230, Control_c, 0, 64, 127
2, 848271, Note_on_c, 0, 59, 34
2, 848285, Note_off_c, 0, 60, 64
2, 848309, Control_c, 0, 64, 0
2, 848342, Control_c, 0, 64, 127
2, 848379, Note_on_c, 0, 57, 43
2, 848412, Note_off_c, 0, 59, 64
2, 848468, Note_on_c, 0, 69, 47
2, 848468, Note_on_c, 0, 55, 43
2, 848502, Note_off_c, 0, 67, 64
2, 848513, Note_off_c, 0, 64, 64
2, 848518, Note_off_c, 0, 57, 64
2, 848566, Note_on_c, 0, 71, 51
2, 848569, Note_on_c, 0, 62, 49
2, 848572, Note_on_c, 0, 54, 37
2, 848591, Control_c, 0, 64, 0
2, 848592, Note_off_c, 0, 69, 64
2, 848607, Note_off_c, 0, 55, 64
2, 848670, Note_on_c, 0, 53, 29
2, 848682, Note_off_c, 0, 54, 64
2, 848699, Note_off_c, 0, 71, 64
2, 848732, Note_on_c, 0, 71, 43
2, 848741, Note_off_c, 0, 62, 64
2, 848770, Note_on_c, 0, 59, 55
2, 848772, Note_on_c, 0, 62, 55
2, 848772, Control_c, 0, 64, 0
2, 848781, Note_on_c, 0, 55, 47
2, 848800, Note_off_c, 0, 53, 64
2, 848805, Note_off_c, 0, 71, 64
2, 848859, Control_c, 0, 64, 127
2, 848869, Note_on_c, 0, 54, 47
2, 848905, Control_c, 0, 64, 0
2, 848917, Note_off_c, 0, 55, 64
2, 848958, Control_c, 0, 64, 127
2, 848974, Note_on_c, 0, 50, 49
2, 848990, Note_off_c, 0, 54, 64
2, 849004, Control_c, 0, 64, 0
2, 849027, Control_c, 0, 64, 127
2, 849068, Note_on_c, 0, 67, 56
2, 849073, Note_on_c, 0, 47, 54
2, 849079, Note_off_c, 0, 50, 64
2, 849094, Note_off_c, 0, 62, 64
2, 849094, Note_off_c, 0, 59, 64
2, 849173, Control_c, 0, 64, 0
2, 849180, Note_on_c, 0, 64, 55
2, 849184, Note_on_c, 0, 65, 55
2, 849184, Note_on_c, 0, 58, 63
2, 849184, Note_on_c, 0, 42, 66
2, 849196, Note_off_c, 0, 67, 64
2, 849199, Note_off_c, 0, 47, 64
2, 849203, Control_c, 0, 64, 127
2, 849217, Note_off_c, 0, 42, 64
2, 849297, Note_off_c, 0, 64, 64
2, 849297, Note_on_c, 0, 66, 57
2, 849301, Note_off_c, 0, 58, 64
2, 849301, Note_off_c, 0, 65, 64
2, 849324, Note_off_c, 0, 66, 64
2, 849347, Note_on_c, 0, 66, 74
2, 849412, Note_on_c, 0, 54, 44
2, 849415, Note_on_c, 0, 61, 51
2, 849421, Note_on_c, 0, 64, 49
2, 849425, Control_c, 0, 64, 0
2, 849429, Note_on_c, 0, 79, 55
2, 849439, Note_off_c, 0, 66, 64
2, 849452, Control_c, 0, 64, 127
2, 849526, Note_off_c, 0, 64, 64
2, 849527, Note_off_c, 0, 61, 64
2, 849532, Note_off_c, 0, 54, 64
2, 849589, Note_on_c, 0, 78, 52
2, 849606, Note_off_c, 0, 79, 64
2, 849634, Control_c, 0, 64, 0
2, 849645, Note_on_c, 0, 61, 51
2, 849654, Note_on_c, 0, 64, 48
2, 849656, Note_on_c, 0, 54, 47
2, 849668, Note_on_c, 0, 77, 52
2, 849677, Control_c, 0, 64, 127
2, 849716, Note_off_c, 0, 78, 64
2, 849733, Control_c, 0, 64, 0
2, 849784, Note_on_c, 0, 76, 52
2, 849811, Note_off_c, 0, 77, 64
2, 849852, Note_off_c, 0, 61, 64
2, 849861, Note_off_c, 0, 64, 64
2, 849863, Note_off_c, 0, 54, 64
2, 849876, Control_c, 0, 64, 0
2, 849883, Note_on_c, 0, 75, 52
2, 849883, Note_on_c, 0, 47, 49
2, 849896, Note_off_c, 0, 76, 64
2, 849913, Control_c, 0, 64, 127
2, 849988, Note_on_c, 0, 74, 52
2, 850008, Note_off_c, 0, 75, 64
2, 850093, Note_on_c, 0, 73, 50
2, 850093, Note_on_c, 0, 54, 51
2, 850100, Note_off_c, 0, 47, 64
2, 850100, Note_on_c, 0, 62, 44
2, 850111, Control_c, 0, 64, 0
2, 850118, Note_off_c, 0, 74, 64
2, 850147, Control_c, 0, 64, 127
2, 850176, Note_on_c, 0, 72, 44
2, 850198, Note_off_c, 0, 73, 64
2, 850251, Note_on_c, 0, 71, 41
2, 850266, Note_off_c, 0, 54, 64
2, 850273, Note_off_c, 0, 62, 64
2, 850277, Note_off_c, 0, 72, 64
2, 850312, Note_on_c, 0, 69, 48
2, 850329, Note_off_c, 0, 71, 64
2, 850380, Note_on_c, 0, 67, 51
2, 850394, Note_off_c, 0, 69, 64
2, 850433, Note_on_c, 0, 66, 52
2, 850455, Note_off_c, 0, 67, 64
2, 850508, Note_on_c, 0, 67, 14
2, 850522, Note_off_c, 0, 66, 64
2, 850528, Note_on_c, 0, 64, 51
2, 850534, Note_on_c, 0, 71, 51
2, 850572, Control_c, 0, 64, 0
2, 850656, Note_on_c, 0, 62, 43
2, 850677, Control_c, 0, 64, 127
2, 850682, Note_off_c, 0, 71, 64
2, 850701, Note_off_c, 0, 67, 64
2, 850706, Note_off_c, 0, 64, 64
2, 850716, Note_on_c, 0, 72, 52
2, 850727, Control_c, 0, 64, 0
2, 850760, Note_on_c, 0, 67, 50
2, 850760, Note_on_c, 0, 60, 41
2, 850763, Note_on_c, 0, 64, 51
2, 850781, Note_off_c, 0, 72, 64
2, 850809, Note_off_c, 0, 62, 64
2, 850865, Note_on_c, 0, 59, 34
2, 850880, Note_off_c, 0, 60, 64
2, 850941, Control_c, 0, 64, 127
2, 850971, Note_on_c, 0, 57, 34
2, 851005, Note_off_c, 0, 59, 64
2, 851018, Note_off_c, 0, 64, 64
2, 851068, Note_on_c, 0, 69, 43
2, 851068, Note_on_c, 0, 55, 36
2, 851083, Note_off_c, 0, 57, 64
2, 851094, Note_off_c, 0, 67, 64
2, 851159, Note_off_c, 0, 69, 64
2, 851165, Note_on_c, 0, 50, 41
2, 851168, Note_on_c, 0, 67, 44
2, 851174, Note_on_c, 0, 71, 44
2, 851174, Note_on_c, 0, 62, 50
2, 851179, Control_c, 0, 64, 0
2, 851182, Note_off_c, 0, 55, 64
2, 851220, Control_c, 0, 64, 127
2, 851265, Note_on_c, 0, 49, 43
2, 851281, Note_off_c, 0, 50, 64
2, 851313, Note_off_c, 0, 67, 64
2, 851319, Note_off_c, 0, 62, 64
2, 851319, Note_off_c, 0, 71, 64
2, 851325, Note_on_c, 0, 71, 39
2, 851353, Control_c, 0, 64, 0
2, 851357, Note_on_c, 0, 62, 55
2, 851363, Note_on_c, 0, 59, 55
2, 851366, Note_off_c, 0, 49, 64
2, 851380, Note_on_c, 0, 52, 54
2, 851389, Note_off_c, 0, 71, 64
2, 851457, Control_c, 0, 64, 127
2, 851470, Note_on_c, 0, 50, 47
2, 851516, Note_off_c, 0, 52, 64
2, 851516, Control_c, 0, 64, 0
2, 851532, Control_c, 0, 64, 127
2, 851568, Note_on_c, 0, 47, 49
2, 851573, Note_off_c, 0, 50, 64
2, 851680, Note_off_c, 0, 59, 64
2, 851680, Note_on_c, 0, 64, 60
2, 851681, Note_on_c, 0, 43, 56
2, 851687, Note_off_c, 0, 47, 64
2, 851694, Note_off_c, 0, 62, 64
2, 851785, Note_on_c, 0, 65, 62
2, 851789, Note_on_c, 0, 54, 57
2, 851791, Note_on_c, 0, 60, 56
2, 851798, Control_c, 0, 64, 0
2, 851807, Note_off_c, 0, 64, 64
2, 851811, Note_on_c, 0, 38, 55
2, 851816, Note_off_c, 0, 43, 64
2, 851825, Control_c, 0, 64, 127
2, 851867, Note_off_c, 0, 38, 64
2, 851879, Note_on_c, 0, 66, 65
2, 851901, Note_off_c, 0, 65, 64
2, 851905, Note_off_c, 0, 54, 64
2, 851907, Note_off_c, 0, 60, 64
2, 851919, Note_off_c, 0, 66, 64
2, 851939, Note_on_c, 0, 66, 74
2, 852006, Note_on_c, 0, 76, 62
2, 852007, Note_on_c, 0, 50, 52
2, 852012, Note_on_c, 0, 60, 36
2, 852016, Note_on_c, 0, 57, 49
2, 852030, Control_c, 0, 64, 0
2, 852032, Note_off_c, 0, 66, 64
2, 852067, Control_c, 0, 64, 127
2, 852123, Note_off_c, 0, 50, 64
2, 852128, Note_off_c, 0, 60, 64
2, 852132, Note_off_c, 0, 57, 64
2, 852148, Note_on_c, 0, 75, 57
2, 852171, Note_off_c, 0, 76, 64
2, 852236, Note_on_c, 0, 74, 54
2, 852240, Control_c, 0, 64, 0
2, 852244, Note_on_c, 0, 50, 51
2, 852249, Note_on_c, 0, 54, 43
2, 852253, Note_off_c, 0, 75, 64
2, 852257, Note_on_c, 0, 60, 32
2, 852285, Control_c, 0, 64, 127
2, 852346, Note_on_c, 0, 73, 54
2, 852360, Note_off_c, 0, 50, 64
2, 852365, Note_off_c, 0, 54, 64
2, 852373, Note_off_c, 0, 60, 64
2, 852376, Note_off_c, 0, 74, 64
2, 852457, Note_on_c, 0, 72, 57
2, 852462, Note_on_c, 0, 43, 51
2, 852468, Control_c, 0, 64, 0
2, 852485, Note_off_c, 0, 73, 64
2, 852505, Control_c, 0, 64, 127
2, 852563, Note_on_c, 0, 71, 51
2, 852575, Note_off_c, 0, 72, 64
2, 852663, Note_on_c, 0, 70, 49
2, 852672, Note_on_c, 0, 59, 51
2, 852678, Note_off_c, 0, 43, 64
2, 852678, Note_on_c, 0, 50, 54
2, 852681, Note_off_c, 0, 71, 64
2, 852695, Control_c, 0, 64, 0
2, 852717, Control_c, 0, 64, 127
2, 852745, Note_on_c, 0, 69, 52
2, 852755, Note_off_c, 0, 70, 64
2, 852809, Note_on_c, 0, 68, 58
2, 852816, Note_off_c, 0, 69, 64
2, 852844, Note_off_c, 0, 59, 64
2, 852850, Note_off_c, 0, 50, 64
2, 852869, Note_on_c, 0, 67, 54
2, 852890, Note_off_c, 0, 68, 64
2, 852927, Note_on_c, 0, 66, 51
2, 852954, Note_off_c, 0, 67, 64
2, 852992, Note_on_c, 0, 65, 50
2, 853002, Note_off_c, 0, 66, 64
2, 853056, Note_on_c, 0, 67, 43
2, 853060, Control_c, 0, 64, 0
2, 853066, Note_on_c, 0, 71, 49
2, 853066, Note_on_c, 0, 64, 52
2, 853075, Note_off_c, 0, 65, 64
2, 853180, Note_on_c, 0, 62, 36
2, 853202, Control_c, 0, 64, 127
2, 853226, Note_off_c, 0, 67, 64
2, 853246, Note_off_c, 0, 64, 64
2, 853246, Note_on_c, 0, 72, 52
2, 853257, Note_off_c, 0, 71, 64
2, 853260, Control_c, 0, 64, 0
2, 853277, Note_on_c, 0, 67, 47
2, 853284, Note_on_c, 0, 64, 52
2, 853284, Note_on_c, 0, 60, 42
2, 853301, Note_off_c, 0, 72, 64
2, 853320, Note_off_c, 0, 62, 64
2, 853350, Control_c, 0, 64, 127
2, 853380, Note_on_c, 0, 59, 36
2, 853392, Note_off_c, 0, 60, 64
2, 853482, Note_on_c, 0, 57, 46
2, 853517, Note_off_c, 0, 59, 64
2, 853545, Note_off_c, 0, 64, 64
2, 853578, Note_on_c, 0, 69, 51
2, 853579, Note_on_c, 0, 55, 48
2, 853601, Note_off_c, 0, 57, 64
2, 853615, Note_off_c, 0, 67, 64
2, 853670, Control_c, 0, 64, 0
2, 853678, Note_on_c, 0, 54, 64
2, 853683, Note_on_c, 0, 71, 58
2, 853686, Note_on_c, 0, 62, 48
2, 853697, Note_off_c, 0, 55, 64
2, 853700, Note_off_c, 0, 69, 64
2, 853717, Control_c, 0, 64, 127
2, 853792, Note_off_c, 0, 54, 64
2, 853796, Note_on_c, 0, 53, 47
2, 853819, Note_off_c, 0, 71, 64
2, 853827, Note_off_c, 0, 62, 64
2, 853845, Note_on_c, 0, 71, 54
2, 853873, Note_off_c, 0, 53, 64
2, 853877, Control_c, 0, 64, 0
2, 853890, Note_on_c, 0, 62, 54
2, 853897, Note_on_c, 0, 59, 67
2, 853906, Note_on_c, 0, 55, 51
2, 853911, Note_off_c, 0, 71, 64
2, 853979, Control_c, 0, 64, 127
2, 853994, Note_on_c, 0, 54, 52
2, 854020, Note_off_c, 0, 55, 64
2, 854036, Control_c, 0, 64, 0
2, 854058, Control_c, 0, 64, 127
2, 854106, Note_on_c, 0, 50, 50
2, 854139, Note_off_c, 0, 54, 64
2, 854185, Note_on_c, 0, 67, 64
2, 854197, Note_on_c, 0, 47, 55
2, 854211, Note_off_c, 0, 50, 64
2, 854213, Note_off_c, 0, 59, 64
2, 854214, Note_off_c, 0, 62, 64
2, 854297, Control_c, 0, 64, 0
2, 854301, Note_on_c, 0, 58, 62
2, 854305, Note_on_c, 0, 64, 57
2, 854305, Note_on_c, 0, 65, 57
2, 854308, Note_on_c, 0, 42, 69
2, 854323, Note_off_c, 0, 47, 64
2, 854332, Note_off_c, 0, 67, 64
2, 854335, Control_c, 0, 64, 127
2, 854335, Control_c, 0, 64, 127
2, 854344, Note_off_c, 0, 42, 64
2, 854399, Note_off_c, 0, 58, 64
2, 854399, Note_on_c, 0, 66, 51
2, 854403, Note_off_c, 0, 65, 64
2, 854403, Note_off_c, 0, 64, 64
2, 854426, Note_off_c, 0, 66, 64
2, 854453, Note_on_c, 0, 66, 73
2, 854517, Note_on_c, 0, 54, 51
2, 854524, Note_on_c, 0, 79, 72
2, 854524, Note_on_c, 0, 64, 54
2, 854528, Control_c, 0, 64, 0
2, 854534, Note_off_c, 0, 66, 64
2, 854534, Note_on_c, 0, 58, 41
2, 854570, Control_c, 0, 64, 127
2, 854633, Note_off_c, 0, 54, 64
2, 854640, Note_off_c, 0, 64, 64
2, 854650, Note_off_c, 0, 58, 64
2, 854678, Note_on_c, 0, 78, 52
2, 854696, Note_off_c, 0, 79, 64
2, 854728, Control_c, 0, 64, 0
2, 854740, Note_on_c, 0, 58, 52
2, 854742, Note_on_c, 0, 54, 49
2, 854749, Note_on_c, 0, 64, 43
2, 854759, Note_on_c, 0, 77, 56
2, 854773, Control_c, 0, 64, 127
2, 854842, Note_off_c, 0, 78, 64
2, 854855, Note_on_c, 0, 76, 51
2, 854856, Note_off_c, 0, 58, 64
2, 854858, Note_off_c, 0, 54, 64
2, 854865, Note_off_c, 0, 64, 64
2, 854869, Note_off_c, 0, 77, 64
2, 854954, Control_c, 0, 64, 0
2, 854957, Note_on_c, 0, 47, 51
2, 854962, Note_on_c, 0, 75, 41
2, 854972, Note_off_c, 0, 76, 64
2, 855002, Control_c, 0, 64, 127
2, 855064, Note_on_c, 0, 74, 39
2, 855072, Note_off_c, 0, 75, 64
2, 855150, Note_on_c, 0, 73, 33
2, 855160, Note_on_c, 0, 54, 41
2, 855166, Note_on_c, 0, 62, 32
2, 855169, Note_off_c, 0, 74, 64
2, 855175, Control_c, 0, 64, 0
2, 855211, Control_c, 0, 64, 127
2, 855214, Note_off_c, 0, 47, 64
2, 855224, Note_on_c, 0, 72, 34
2, 855234, Note_off_c, 0, 73, 64
2, 855278, Note_on_c, 0, 71, 47
2, 855290, Note_off_c, 0, 72, 64
2, 855327, Note_on_c, 0, 70, 63
2, 855332, Note_off_c, 0, 54, 64
2, 855333, Note_off_c, 0, 71, 64
2, 855347, Note_off_c, 0, 62, 64
2, 855386, Note_on_c, 0, 69, 55
2, 855395, Note_off_c, 0, 70, 64
2, 855430, Note_on_c, 0, 68, 62
2, 855431, Note_off_c, 0, 69, 64
2, 855481, Note_off_c, 0, 68, 64
2, 855481, Note_on_c, 0, 67, 55
2, 855522, Note_on_c, 0, 66, 58
2, 855529, Note_off_c, 0, 67, 64
2, 855548, Note_on_c, 0, 65, 56
2, 855584, Note_off_c, 0, 66, 64
2, 855588, Note_on_c, 0, 67, 58
2, 855588, Note_on_c, 0, 64, 62
2, 855595, Note_on_c, 0, 71, 62
2, 855610, Note_off_c, 0, 65, 64
2, 855611, Control_c, 0, 64, 0
2, 855707, Control_c, 0, 64, 127
2, 855713, Note_on_c, 0, 62, 55
2, 855714, Note_off_c, 0, 67, 64
2, 855755, Note_off_c, 0, 64, 64
2, 855765, Control_c, 0, 64, 0
2, 855772, Note_on_c, 0, 72, 41
2, 855796, Note_off_c, 0, 71, 64
2, 855809, Note_on_c, 0, 67, 57
2, 855811, Note_on_c, 0, 60, 59
2, 855813, Note_on_c, 0, 64, 62
2, 855826, Note_off_c, 0, 62, 64
2, 855837, Note_off_c, 0, 72, 64
2, 855873, Control_c, 0, 64, 127
2, 855901, Note_on_c, 0, 59, 51
2, 855924, Note_off_c, 0, 60, 64
2, 856008, Note_on_c, 0, 57, 43
2, 856077, Note_off_c, 0, 59, 64
2, 856097, Note_on_c, 0, 55, 46
2, 856099, Note_on_c, 0, 69, 54
2, 856105, Note_off_c, 0, 57, 64
2, 856132, Note_off_c, 0, 67, 64
2, 856199, Control_c, 0, 64, 0
2, 856206, Note_on_c, 0, 63, 54
2, 856207, Note_on_c, 0, 71, 59
2, 856207, Note_on_c, 0, 54, 66
2, 856218, Note_off_c, 0, 64, 64
2, 856219, Note_off_c, 0, 69, 64
2, 856227, Note_off_c, 0, 55, 64
2, 856234, Control_c, 0, 64, 127
2, 856278, Note_off_c, 0, 71, 64
2, 856298, Note_on_c, 0, 53, 51
2, 856310, Note_off_c, 0, 54, 64
2, 856345, Note_off_c, 0, 63, 64
2, 856356, Note_on_c, 0, 71, 56
2, 856375, Note_off_c, 0, 53, 64
2, 856395, Control_c, 0, 64, 0
2, 856400, Note_on_c, 0, 63, 69
2, 856403, Note_on_c, 0, 59, 65
2, 856419, Note_on_c, 0, 56, 62
2, 856423, Note_off_c, 0, 71, 64
2, 856447, Control_c, 0, 64, 127
2, 856504, Note_on_c, 0, 54, 47
2, 856507, Note_off_c, 0, 56, 64
2, 856590, Note_on_c, 0, 51, 50
2, 856593, Note_off_c, 0, 54, 64
2, 856596, Note_on_c, 0, 68, 62
2, 856652, Note_off_c, 0, 63, 64
2, 856677, Note_off_c, 0, 51, 64
2, 856695, Note_on_c, 0, 47, 51
2, 856740, Note_off_c, 0, 47, 64
2, 856779, Control_c, 0, 64, 0
2, 856785, Note_off_c, 0, 59, 64
2, 856796, Note_on_c, 0, 64, 55
2, 856799, Note_on_c, 0, 66, 60
2, 856801, Note_on_c, 0, 58, 49
2, 856802, Note_off_c, 0, 68, 64
2, 856805, Note_on_c, 0, 42, 65
2, 856818, Control_c, 0, 64, 127
2, 856826, Note_off_c, 0, 42, 64
2, 856912, Note_off_c, 0, 64, 64
2, 856917, Note_off_c, 0, 58, 64
2, 856980, Note_on_c, 0, 76, 41
2, 857025, Note_off_c, 0, 66, 64
2, 857025, Control_c, 0, 64, 0
2, 857028, Note_on_c, 0, 64, 50
2, 857028, Note_on_c, 0, 61, 50
2, 857028, Note_on_c, 0, 54, 63
2, 857031, Note_on_c, 0, 75, 65
2, 857031, Note_on_c, 0, 70, 63
2, 857059, Control_c, 0, 64, 127
2, 857071, Note_off_c, 0, 76, 64
2, 857155, Note_off_c, 0, 70, 64
2, 857175, Note_off_c, 0, 54, 64
2, 857179, Note_off_c, 0, 64, 64
2, 857184, Note_off_c, 0, 61, 64
2, 857248, Note_on_c, 0, 70, 65
2, 857252, Note_on_c, 0, 61, 50
2, 857256, Note_on_c, 0, 64, 42
2, 857256, Note_on_c, 0, 54, 51
2, 857307, Control_c, 0, 64, 127
2, 857376, Control_c, 0, 64, 0
2, 857392, Note_on_c, 0, 73, 52
2, 857410, Note_off_c, 0, 75, 64
2, 857484, Note_on_c, 0, 71, 67
2, 857491, Note_off_c, 0, 61, 64
2, 857491, Note_off_c, 0, 64, 64
2, 857491, Note_on_c, 0, 63, 62
2, 857492, Note_off_c, 0, 70, 64
2, 857493, Note_on_c, 0, 56, 52
2, 857499, Control_c, 0, 64, 0
2, 857502, Note_off_c, 0, 54, 64
2, 857514, Note_off_c, 0, 73, 64
2, 857528, Control_c, 0, 64, 127
2, 857584, Note_on_c, 0, 54, 46
2, 857611, Note_off_c, 0, 56, 64
2, 857638, Note_on_c, 0, 66, 60
2, 857643, Note_on_c, 0, 75, 65
2, 857681, Note_off_c, 0, 71, 64
2, 857688, Note_off_c, 0, 63, 64
2, 857698, Control_c, 0, 64, 0
2, 857716, Note_on_c, 0, 78, 79
2, 857716, Note_on_c, 0, 71, 60
2, 857719, Note_on_c, 0, 52, 46
2, 857728, Control_c, 0, 64, 127
2, 857729, Note_off_c, 0, 66, 64
2, 857734, Note_off_c, 0, 75, 64
2, 857741, Note_off_c, 0, 54, 64
2, 857792, Note_on_c, 0, 51, 64
2, 857813, Note_off_c, 0, 52, 64
2, 857870, Note_on_c, 0, 49, 62
2, 857900, Note_off_c, 0, 51, 64
2, 857931, Note_on_c, 0, 83, 81
2, 857931, Note_on_c, 0, 75, 62
2, 857941, Note_off_c, 0, 71, 64
2, 857941, Note_off_c, 0, 78, 64
2, 857941, Note_on_c, 0, 47, 62
2, 857968, Note_off_c, 0, 49, 64
2, 857999, Note_on_c, 0, 46, 67
2, 858013, Note_off_c, 0, 47, 64
2, 858073, Note_on_c, 0, 44, 62
2, 858088, Note_off_c, 0, 46, 64
2, 858157, Note_on_c, 0, 42, 78
2, 858160, Note_on_c, 0, 58, 70
2, 858164, Note_on_c, 0, 66, 57
2, 858166, Note_off_c, 0, 75, 64
2, 858166, Note_off_c, 0, 83, 64
2, 858168, Note_on_c, 0, 64, 54
2, 858168, Control_c, 0, 64, 0
2, 858180, Note_off_c, 0, 44, 64
2, 858194, Control_c, 0, 64, 127
2, 858204, Note_off_c, 0, 42, 64
2, 858276, Note_off_c, 0, 58, 64
2, 858284, Note_off_c, 0, 64, 64
2, 858340, Note_on_c, 0, 76, 50
2, 858390, Note_off_c, 0, 66, 64
2, 858391, Note_on_c, 0, 75, 62
2, 858401, Note_on_c, 0, 54, 55
2, 858401, Note_on_c, 0, 70, 59
2, 858402, Note_on_c, 0, 64, 62
2, 858404, Note_on_c, 0, 61, 50
2, 858409, Note_off_c, 0, 76, 64
2, 858418, Control_c, 0, 64, 0
2, 858455, Control_c, 0, 64, 127
2, 858533, Note_off_c, 0, 54, 64
2, 858534, Note_off_c, 0, 64, 64
2, 858536, Note_off_c, 0, 61, 64
2, 858539, Note_off_c, 0, 70, 64
2, 858612, Note_on_c, 0, 70, 66
2, 858614, Note_on_c, 0, 64, 59
2, 858620, Note_on_c, 0, 54, 52
2, 858626, Control_c, 0, 64, 0
2, 858662, Control_c, 0, 64, 127
2, 858719, Note_on_c, 0, 73, 57
2, 858734, Note_off_c, 0, 75, 64
2, 858821, Note_on_c, 0, 71, 64
2, 858822, Note_on_c, 0, 63, 62
2, 858828, Control_c, 0, 64, 0
2, 858832, Note_on_c, 0, 56, 52
2, 858836, Note_off_c, 0, 70, 64
2, 858838, Note_off_c, 0, 64, 64
2, 858843, Note_off_c, 0, 73, 64
2, 858844, Note_off_c, 0, 54, 64
2, 858867, Control_c, 0, 64, 127
2, 858923, Note_on_c, 0, 54, 27
2, 858939, Note_off_c, 0, 56, 64
2, 858965, Note_on_c, 0, 66, 57
2, 858972, Note_on_c, 0, 75, 67
2, 859014, Note_off_c, 0, 71, 64
2, 859015, Note_off_c, 0, 63, 64
2, 859043, Note_on_c, 0, 78, 74
2, 859047, Note_on_c, 0, 71, 59
2, 859050, Note_on_c, 0, 52, 64
2, 859069, Note_off_c, 0, 66, 64
2, 859076, Note_off_c, 0, 75, 64
2, 859080, Note_off_c, 0, 54, 64
2, 859104, Note_on_c, 0, 51, 52
2, 859125, Note_off_c, 0, 52, 64
2, 859171, Note_on_c, 0, 49, 58
2, 859185, Note_off_c, 0, 51, 64
2, 859246, Note_on_c, 0, 83, 71
2, 859248, Note_on_c, 0, 75, 62
2, 859256, Note_on_c, 0, 47, 70
2, 859267, Note_off_c, 0, 78, 64
2, 859267, Note_off_c, 0, 49, 64
2, 859271, Note_off_c, 0, 71, 64
2, 859313, Note_on_c, 0, 44, 72
2, 859328, Note_off_c, 0, 47, 64
2, 859374, Note_on_c, 0, 42, 63
2, 859397, Note_off_c, 0, 44, 64
2, 859446, Note_off_c, 0, 75, 64
2, 859467, Note_off_c, 0, 83, 64
2, 859476, Note_on_c, 0, 63, 74
2, 859483, Note_on_c, 0, 71, 62
2, 859483, Note_on_c, 0, 35, 78
2, 859486, Control_c, 0, 64, 0
2, 859505, Note_off_c, 0, 42, 64
2, 859512, Control_c, 0, 64, 127
2, 859619, Note_off_c, 0, 63, 64
2, 859626, Note_off_c, 0, 71, 64
2, 859632, Note_on_c, 0, 66, 65
2, 859636, Note_on_c, 0, 75, 66
2, 859708, Note_on_c, 0, 54, 44
2, 859710, Note_on_c, 0, 63, 65
2, 859714, Note_on_c, 0, 78, 88
2, 859716, Note_on_c, 0, 71, 43
2, 859728, Control_c, 0, 64, 0
2, 859733, Note_off_c, 0, 75, 64
2, 859737, Note_off_c, 0, 66, 64
2, 859763, Control_c, 0, 64, 127
2, 859814, Note_off_c, 0, 54, 64
2, 859816, Note_off_c, 0, 63, 64
2, 859911, Note_on_c, 0, 83, 71
2, 859913, Note_on_c, 0, 75, 63
2, 859926, Note_off_c, 0, 71, 64
2, 859943, Note_off_c, 0, 78, 64
2, 860006, Note_off_c, 0, 35, 64
2, 860086, Note_off_c, 0, 83, 64
2, 860111, Note_off_c, 0, 75, 64
2, 860114, Control_c, 0, 64, 0
2, 860124, Note_on_c, 0, 47, 65
2, 860124, Note_on_c, 0, 71, 67
2, 860124, Note_on_c, 0, 63, 71
2, 860143, Control_c, 0, 64, 127
2, 860229, Note_on_c, 0, 75, 59
2, 860229, Note_on_c, 0, 67, 59
2, 860244, Note_off_c, 0, 63, 64
2, 860244, Note_off_c, 0, 71, 64
2, 860316, Note_on_c, 0, 55, 41
2, 860316, Note_on_c, 0, 59, 59
2, 860318, Note_on_c, 0, 63, 57
2, 860330, Note_on_c, 0, 71, 71
2, 860333, Note_on_c, 0, 79, 74
2, 860338, Note_off_c, 0, 67, 64
2, 860338, Note_off_c, 0, 75, 64
2, 860340, Control_c, 0, 64, 0
2, 860355, Control_c, 0, 64, 127
2, 860400, Note_off_c, 0, 47, 64
2, 860433, Note_on_c, 0, 75, 65
2, 860435, Note_on_c, 0, 83, 64
2, 860444, Note_off_c, 0, 71, 64
2, 860455, Note_off_c, 0, 59, 64
2, 860455, Note_off_c, 0, 55, 64
2, 860457, Note_off_c, 0, 79, 64
2, 860457, Note_off_c, 0, 63, 64
2, 860477, Note_off_c, 0, 75, 64
2, 860513, Note_off_c, 0, 83, 64
2, 860531, Note_on_c, 0, 83, 71
2, 860592, Note_on_c, 0, 87, 63
2, 860595, Note_on_c, 0, 95, 60
2, 860627, Control_c, 0, 64, 0
2, 860640, Control_c, 0, 64, 127
2, 860697, Note_off_c, 0, 83, 64
2, 860832, Note_off_c, 0, 87, 64
2, 860835, Note_off_c, 0, 95, 64
2, 860931, Note_on_c, 0, 71, 43
2, 860934, Control_c, 0, 64, 0
2, 860987, Control_c, 0, 64, 127
2, 861033, Note_on_c, 0, 67, 41
2, 861069, Note_off_c, 0, 71, 64
2, 861149, Control_c, 0, 64, 0
2, 861151, Note_on_c, 0, 62, 43
2, 861184, Note_off_c, 0, 67, 64
2, 861244, Control_c, 0, 64, 127
2, 861263, Note_on_c, 0, 63, 43
2, 861283, Note_off_c, 0, 62, 64
2, 861283, Control_c, 0, 64, 0
2, 861335, Control_c, 0, 64, 127
2, 861351, Control_c, 0, 64, 0
2, 861365, Note_on_c, 0, 66, 37
2, 861387, Control_c, 0, 64, 127
2, 861400, Note_off_c, 0, 63, 64
2, 861470, Note_on_c, 0, 67, 43
2, 861483, Note_off_c, 0, 66, 64
2, 861588, Note_on_c, 0, 71, 47
2, 861606, Control_c, 0, 64, 0
2, 861622, Note_off_c, 0, 67, 64
2, 861711, Note_on_c, 0, 67, 49
2, 861750, Note_off_c, 0, 71, 64
2, 861766, Control_c, 0, 64, 127
2, 861848, Note_on_c, 0, 71, 54
2, 861870, Note_off_c, 0, 67, 64
2, 861978, Note_on_c, 0, 75, 56
2, 862015, Note_off_c, 0, 71, 64
2, 862134, Note_on_c, 0, 78, 56
2, 862174, Note_off_c, 0, 75, 64
2, 862307, Note_on_c, 0, 76, 52
2, 862323, Note_off_c, 0, 78, 64
2, 862337, Control_c, 0, 64, 0
2, 862429, Control_c, 0, 64, 127
2, 862483, Control_c, 0, 64, 0
2, 862497, Note_on_c, 0, 75, 63
2, 862507, Note_off_c, 0, 76, 64
2, 862530, Control_c, 0, 64, 127
2, 862604, Control_c, 0, 64, 0
2, 862615, Note_on_c, 0, 70, 57
2, 862663, Note_off_c, 0, 75, 64
2, 862670, Control_c, 0, 64, 127
2, 862732, Note_on_c, 0, 59, 36
2, 862732, Control_c, 0, 64, 0
2, 862736, Note_on_c, 0, 63, 17
2, 862736, Note_on_c, 0, 56, 36
2, 862741, Note_on_c, 0, 71, 74
2, 862757, Note_off_c, 0, 70, 64
2, 862760, Control_c, 0, 64, 127
2, 862956, Note_off_c, 0, 59, 64
2, 862959, Note_on_c, 0, 68, 66
2, 862960, Note_off_c, 0, 56, 64
2, 862960, Note_off_c, 0, 63, 64
2, 862961, Note_on_c, 0, 62, 31
2, 862967, Note_on_c, 0, 52, 47
2, 862972, Note_on_c, 0, 56, 32
2, 862975, Control_c, 0, 64, 0
2, 862981, Note_off_c, 0, 71, 64
2, 863013, Control_c, 0, 64, 127
2, 863163, Note_on_c, 0, 70, 66
2, 863176, Control_c, 0, 64, 0
2, 863184, Note_off_c, 0, 68, 64
2, 863200, Control_c, 0, 64, 127
2, 863213, Note_off_c, 0, 62, 64
2, 863218, Note_off_c, 0, 52, 64
2, 863223, Note_off_c, 0, 56, 64
2, 863280, Note_on_c, 0, 67, 63
2, 863296, Note_off_c, 0, 70, 64
2, 863372, Note_on_c, 0, 63, 65
2, 863383, Note_on_c, 0, 61, 28
2, 863383, Note_on_c, 0, 51, 34
2, 863388, Note_on_c, 0, 58, 24
2, 863396, Control_c, 0, 64, 0
2, 863416, Note_off_c, 0, 67, 64
2, 863430, Control_c, 0, 64, 127
2, 863503, Note_off_c, 0, 51, 64
2, 863503, Note_off_c, 0, 61, 64
2, 863508, Note_off_c, 0, 58, 64
2, 863587, Note_on_c, 0, 55, 36
2, 863592, Note_on_c, 0, 61, 32
2, 863600, Note_on_c, 0, 51, 18
2, 863604, Control_c, 0, 64, 0
2, 863639, Control_c, 0, 64, 127
2, 863782, Control_c, 0, 64, 0
2, 863790, Note_on_c, 0, 65, 60
2, 863804, Note_off_c, 0, 51, 64
2, 863808, Control_c, 0, 64, 127
2, 863815, Note_off_c, 0, 55, 64
2, 863825, Note_off_c, 0, 63, 64
2, 863826, Note_off_c, 0, 61, 64
2, 863889, Note_on_c, 0, 67, 57
2, 863907, Note_off_c, 0, 65, 64
2, 863975, Note_on_c, 0, 68, 65
2, 863981, Note_on_c, 0, 53, 34
2, 863985, Note_on_c, 0, 61, 35
2, 863986, Note_on_c, 0, 51, 34
2, 863989, Control_c, 0, 64, 0
2, 863996, Note_off_c, 0, 67, 64
2, 864024, Control_c, 0, 64, 127
2, 864101, Note_off_c, 0, 53, 64
2, 864105, Note_off_c, 0, 61, 64
2, 864106, Note_off_c, 0, 51, 64
2, 864182, Note_on_c, 0, 70, 62
2, 864185, Note_on_c, 0, 61, 39
2, 864185, Note_on_c, 0, 55, 43
2, 864191, Note_on_c, 0, 51, 41
2, 864201, Control_c, 0, 64, 0
2, 864212, Control_c, 0, 64, 127
2, 864218, Note_off_c, 0, 68, 64
2, 864305, Note_off_c, 0, 55, 64
2, 864305, Note_off_c, 0, 61, 64
2, 864311, Note_off_c, 0, 51, 64
2, 864389, Note_on_c, 0, 71, 57
2, 864396, Note_on_c, 0, 44, 52
2, 864401, Note_off_c, 0, 70, 64
2, 864410, Control_c, 0, 64, 0
2, 864440, Control_c, 0, 64, 127
2, 864479, Note_on_c, 0, 76, 55
2, 864525, Note_off_c, 0, 71, 64
2, 864591, Note_on_c, 0, 75, 58
2, 864595, Note_on_c, 0, 59, 35
2, 864595, Note_on_c, 0, 51, 40
2, 864608, Note_off_c, 0, 76, 64
2, 864612, Control_c, 0, 64, 0
2, 864643, Control_c, 0, 64, 127
2, 864840, Note_on_c, 0, 43, 54
2, 864848, Control_c, 0, 64, 0
2, 864866, Note_off_c, 0, 44, 64
2, 864872, Control_c, 0, 64, 127
2, 864881, Note_off_c, 0, 51, 64
2, 864881, Note_off_c, 0, 59, 64
2, 865069, Control_c, 0, 64, 0
2, 865079, Note_on_c, 0, 78, 67
2, 865085, Note_on_c, 0, 42, 55
2, 865097, Note_off_c, 0, 43, 64
2, 865098, Note_off_c, 0, 75, 64
2, 865105, Control_c, 0, 64, 127
2, 865168, Note_on_c, 0, 73, 59
2, 865196, Note_off_c, 0, 78, 64
2, 865249, Note_on_c, 0, 54, 28
2, 865266, Note_on_c, 0, 75, 65
2, 865272, Note_on_c, 0, 59, 33
2, 865273, Note_on_c, 0, 63, 41
2, 865279, Control_c, 0, 64, 0
2, 865296, Note_off_c, 0, 73, 64
2, 865316, Control_c, 0, 64, 127
2, 865369, Note_off_c, 0, 54, 64
2, 865392, Note_off_c, 0, 59, 64
2, 865393, Note_off_c, 0, 63, 64
2, 865415, Note_off_c, 0, 42, 64
2, 865461, Note_on_c, 0, 68, 43
2, 865469, Note_on_c, 0, 71, 71
2, 865469, Note_on_c, 0, 59, 39
2, 865472, Note_on_c, 0, 63, 32
2, 865494, Control_c, 0, 64, 0
2, 865497, Note_off_c, 0, 75, 64
2, 865536, Control_c, 0, 64, 127
2, 865630, Note_off_c, 0, 68, 64
2, 865661, Note_off_c, 0, 59, 64
2, 865664, Note_off_c, 0, 63, 64
2, 865665, Note_on_c, 0, 73, 67
2, 865678, Note_off_c, 0, 71, 64
2, 865747, Note_on_c, 0, 70, 58
2, 865779, Note_off_c, 0, 73, 64
2, 865840, Note_on_c, 0, 61, 43
2, 865840, Note_on_c, 0, 66, 71
2, 865843, Note_on_c, 0, 64, 34
2, 865848, Note_on_c, 0, 54, 28
2, 865851, Control_c, 0, 64, 0
2, 865855, Note_off_c, 0, 70, 64
2, 865895, Control_c, 0, 64, 127
2, 866028, Note_off_c, 0, 61, 64
2, 866031, Note_off_c, 0, 64, 64
2, 866036, Note_off_c, 0, 54, 64
2, 866044, Note_on_c, 0, 58, 37
2, 866051, Note_on_c, 0, 64, 34
2, 866055, Note_on_c, 0, 54, 21
2, 866077, Control_c, 0, 64, 0
2, 866119, Control_c, 0, 64, 127
2, 866224, Note_off_c, 0, 58, 64
2, 866239, Note_off_c, 0, 64, 64
2, 866239, Note_on_c, 0, 68, 62
2, 866244, Note_off_c, 0, 54, 64
2, 866254, Note_off_c, 0, 66, 64
2, 866316, Note_on_c, 0, 70, 44
2, 866345, Note_off_c, 0, 68, 64
2, 866400, Note_on_c, 0, 71, 66
2, 866408, Note_on_c, 0, 64, 42
2, 866410, Note_on_c, 0, 56, 32
2, 866412, Note_on_c, 0, 54, 42
2, 866413, Note_off_c, 0, 70, 64
2, 866425, Control_c, 0, 64, 0
2, 866459, Control_c, 0, 64, 127
2, 866528, Note_off_c, 0, 64, 64
2, 866530, Note_off_c, 0, 56, 64
2, 866532, Note_off_c, 0, 54, 64
2, 866588, Note_on_c, 0, 73, 69
2, 866593, Note_on_c, 0, 64, 41
2, 866596, Note_on_c, 0, 54, 42
2, 866599, Note_on_c, 0, 58, 44
2, 866610, Note_off_c, 0, 71, 64
2, 866713, Note_off_c, 0, 64, 64
2, 866716, Note_off_c, 0, 54, 64
2, 866719, Note_off_c, 0, 58, 64
2, 866791, Control_c, 0, 64, 0
2, 866796, Note_on_c, 0, 47, 62
2, 866796, Note_on_c, 0, 75, 63
2, 866817, Note_off_c, 0, 73, 64
2, 866821, Control_c, 0, 64, 127
2, 866944, Note_on_c, 0, 77, 50
2, 866947, Note_off_c, 0, 75, 64
2, 867012, Note_on_c, 0, 75, 74
2, 867036, Note_off_c, 0, 77, 64
2, 867059, Note_on_c, 0, 56, 34
2, 867059, Note_on_c, 0, 53, 21
2, 867065, Note_on_c, 0, 63, 34
2, 867069, Note_off_c, 0, 47, 64
2, 867071, Note_on_c, 0, 77, 52
2, 867078, Note_off_c, 0, 75, 64
2, 867108, Note_off_c, 0, 77, 64
2, 867117, Note_on_c, 0, 79, 29
2, 867148, Note_off_c, 0, 79, 64
2, 867153, Note_on_c, 0, 77, 58
2, 867176, Note_off_c, 0, 77, 64
2, 867184, Note_on_c, 0, 79, 69
2, 867213, Note_on_c, 0, 77, 71
2, 867215, Note_off_c, 0, 79, 64
2, 867244, Note_on_c, 0, 79, 71
2, 867247, Note_off_c, 0, 53, 64
2, 867247, Note_off_c, 0, 56, 64
2, 867248, Note_off_c, 0, 77, 64
2, 867253, Note_off_c, 0, 63, 64
2, 867274, Note_on_c, 0, 77, 74
2, 867277, Note_off_c, 0, 79, 64
2, 867281, Note_on_c, 0, 47, 49
2, 867308, Note_on_c, 0, 79, 56
2, 867314, Note_off_c, 0, 77, 64
2, 867335, Note_off_c, 0, 79, 64
2, 867342, Note_on_c, 0, 77, 69
2, 867383, Note_on_c, 0, 75, 71
2, 867388, Note_off_c, 0, 77, 64
2, 867455, Note_on_c, 0, 77, 65
2, 867471, Note_off_c, 0, 75, 64
2, 867530, Note_on_c, 0, 46, 51
2, 867534, Note_on_c, 0, 79, 73
2, 867537, Control_c, 0, 64, 0
2, 867543, Note_off_c, 0, 77, 64
2, 867551, Note_off_c, 0, 47, 64
2, 867562, Control_c, 0, 64, 127
2, 867638, Note_on_c, 0, 70, 66
2, 867674, Note_off_c, 0, 79, 64
2, 867747, Note_on_c, 0, 63, 21
2, 867748, Note_on_c, 0, 58, 26
2, 867753, Note_on_c, 0, 55, 40
2, 867753, Note_on_c, 0, 79, 66
2, 867769, Control_c, 0, 64, 0
2, 867790, Note_off_c, 0, 70, 64
2, 867798, Control_c, 0, 64, 127
2, 867810, Note_off_c, 0, 46, 64
2, 867867, Note_off_c, 0, 63, 64
2, 867868, Note_off_c, 0, 58, 64
2, 867873, Note_off_c, 0, 55, 64
2, 867965, Note_on_c, 0, 77, 57
2, 867976, Note_on_c, 0, 56, 34
2, 867982, Note_on_c, 0, 62, 28
2, 867985, Note_on_c, 0, 58, 25
2, 867989, Control_c, 0, 64, 0
2, 867990, Note_off_c, 0, 79, 64
2, 868022, Control_c, 0, 64, 127
2, 868092, Note_on_c, 0, 79, 47
2, 868119, Note_off_c, 0, 77, 64
2, 868176, Note_off_c, 0, 79, 64
2, 868176, Note_on_c, 0, 75, 54
2, 868190, Note_on_c, 0, 51, 51
2, 868192, Control_c, 0, 64, 0
2, 868200, Note_off_c, 0, 56, 64
2, 868204, Note_off_c, 0, 58, 64
2, 868230, Note_off_c, 0, 62, 64
2, 868230, Control_c, 0, 64, 127
2, 868312, Note_off_c, 0, 75, 64
2, 868348, Note_on_c, 0, 70, 65
2, 868403, Note_on_c, 0, 75, 62
2, 868410, Note_on_c, 0, 63, 26
2, 868413, Note_on_c, 0, 67, 37
2, 868417, Note_on_c, 0, 55, 36
2, 868421, Note_on_c, 0, 58, 25
2, 868421, Control_c, 0, 64, 0
2, 868446, Control_c, 0, 64, 127
2, 868463, Note_off_c, 0, 70, 64
2, 868476, Note_off_c, 0, 51, 64
2, 868530, Note_off_c, 0, 63, 64
2, 868533, Note_off_c, 0, 67, 64
2, 868537, Note_off_c, 0, 55, 64
2, 868541, Note_off_c, 0, 58, 64
2, 868652, Note_on_c, 0, 56, 35
2, 868653, Note_on_c, 0, 60, 42
2, 868659, Note_on_c, 0, 66, 36
2, 868669, Control_c, 0, 64, 0
2, 868705, Control_c, 0, 64, 127
2, 868772, Note_off_c, 0, 56, 64
2, 868773, Note_off_c, 0, 60, 64
2, 868779, Note_off_c, 0, 66, 64
2, 868891, Note_on_c, 0, 49, 49
2, 868895, Note_on_c, 0, 76, 57
2, 868901, Control_c, 0, 64, 0
2, 868908, Note_off_c, 0, 75, 64
2, 868934, Control_c, 0, 64, 127
2, 869004, Note_on_c, 0, 68, 49
2, 869059, Note_off_c, 0, 76, 64
2, 869082, Note_on_c, 0, 56, 36
2, 869089, Note_on_c, 0, 58, 39
2, 869093, Note_on_c, 0, 73, 57
2, 869099, Note_on_c, 0, 64, 35
2, 869112, Control_c, 0, 64, 0
2, 869121, Note_off_c, 0, 68, 64
2, 869145, Control_c, 0, 64, 127
2, 869202, Note_off_c, 0, 56, 64
2, 869209, Note_off_c, 0, 58, 64
2, 869213, Note_off_c, 0, 49, 64
2, 869219, Note_off_c, 0, 64, 64
2, 869317, Note_on_c, 0, 70, 56
2, 869320, Note_on_c, 0, 51, 31
2, 869321, Note_on_c, 0, 61, 31
2, 869326, Note_off_c, 0, 73, 64
2, 869328, Note_on_c, 0, 55, 36
2, 869333, Control_c, 0, 64, 0
2, 869355, Control_c, 0, 64, 127
2, 869440, Note_off_c, 0, 51, 64
2, 869441, Note_off_c, 0, 61, 64
2, 869448, Note_off_c, 0, 55, 64
2, 869477, Note_on_c, 0, 71, 42
2, 869486, Note_off_c, 0, 70, 64
2, 869520, Note_on_c, 0, 68, 41
2, 869532, Note_off_c, 0, 71, 64
2, 869542, Note_on_c, 0, 44, 36
2, 869552, Note_on_c, 0, 70, 49
2, 869561, Control_c, 0, 64, 0
2, 869568, Note_off_c, 0, 68, 64
2, 869578, Note_on_c, 0, 68, 54
2, 869597, Control_c, 0, 64, 127
2, 869606, Note_off_c, 0, 70, 64
2, 869741, Note_on_c, 0, 67, 35
2, 869757, Note_off_c, 0, 68, 64
2, 869797, Note_on_c, 0, 68, 48
2, 869816, Note_on_c, 0, 51, 29
2, 869820, Control_c, 0, 64, 0
2, 869826, Note_on_c, 0, 59, 27
2, 869829, Note_off_c, 0, 67, 64
2, 869850, Note_off_c, 0, 44, 64
2, 869858, Control_c, 0, 64, 127
2, 869936, Note_off_c, 0, 51, 64
2, 869946, Note_off_c, 0, 59, 64
2, 870060, Note_on_c, 0, 59, 27
2, 870060, Note_on_c, 0, 56, 27
2, 870084, Control_c, 0, 64, 0
2, 870117, Control_c, 0, 64, 127
2, 870180, Note_off_c, 0, 56, 64
2, 870180, Note_off_c, 0, 59, 64
2, 870278, Note_on_c, 0, 46, 55
2, 870287, Control_c, 0, 64, 0
2, 870330, Control_c, 0, 64, 127
2, 870485, Note_on_c, 0, 56, 43
2, 870490, Note_on_c, 0, 58, 37
2, 870493, Note_on_c, 0, 62, 24
2, 870496, Note_on_c, 0, 65, 59
2, 870504, Control_c, 0, 64, 0
2, 870528, Note_off_c, 0, 68, 64
2, 870534, Control_c, 0, 64, 127
2, 870583, Note_on_c, 0, 67, 55
2, 870604, Note_off_c, 0, 46, 64
2, 870605, Note_off_c, 0, 56, 64
2, 870610, Note_off_c, 0, 58, 64
2, 870612, Note_off_c, 0, 65, 64
2, 870613, Note_off_c, 0, 62, 64
2, 870677, Note_on_c, 0, 56, 31
2, 870680, Note_on_c, 0, 58, 34
2, 870682, Note_on_c, 0, 62, 24
2, 870688, Note_on_c, 0, 68, 55
2, 870707, Note_off_c, 0, 67, 64
2, 870769, Note_on_c, 0, 77, 56
2, 870797, Note_off_c, 0, 56, 64
2, 870797, Note_off_c, 0, 68, 64
2, 870800, Note_off_c, 0, 58, 64
2, 870802, Note_off_c, 0, 62, 64
2, 870864, Note_on_c, 0, 75, 58
2, 870867, Note_on_c, 0, 51, 51
2, 870878, Control_c, 0, 64, 0
2, 870884, Note_off_c, 0, 77, 64
2, 870915, Control_c, 0, 64, 127
2, 870950, Note_on_c, 0, 68, 62
2, 870975, Note_off_c, 0, 75, 64
2, 871045, Note_on_c, 0, 67, 52
2, 871045, Note_on_c, 0, 55, 41
2, 871050, Note_on_c, 0, 63, 39
2, 871050, Note_on_c, 0, 58, 37
2, 871068, Control_c, 0, 64, 0
2, 871078, Note_off_c, 0, 68, 64
2, 871112, Control_c, 0, 64, 127
2, 871165, Note_off_c, 0, 55, 64
2, 871170, Note_off_c, 0, 58, 64
2, 871170, Note_off_c, 0, 63, 64
2, 871218, Note_off_c, 0, 51, 64
2, 871225, Note_on_c, 0, 72, 58
2, 871235, Note_on_c, 0, 63, 41
2, 871236, Note_on_c, 0, 55, 34
2, 871243, Note_on_c, 0, 58, 36
2, 871246, Control_c, 0, 64, 0
2, 871262, Control_c, 0, 64, 127
2, 871299, Note_off_c, 0, 67, 64
2, 871352, Note_on_c, 0, 70, 65
2, 871355, Note_off_c, 0, 63, 64
2, 871356, Note_off_c, 0, 55, 64
2, 871363, Note_off_c, 0, 58, 64
2, 871372, Note_off_c, 0, 72, 64
2, 871404, Note_on_c, 0, 68, 62
2, 871413, Control_c, 0, 64, 0
2, 871426, Note_on_c, 0, 46, 49
2, 871438, Note_off_c, 0, 70, 64
2, 871458, Note_on_c, 0, 70, 69
2, 871464, Control_c, 0, 64, 127
2, 871472, Note_off_c, 0, 68, 64
2, 871502, Note_on_c, 0, 68, 62
2, 871524, Note_off_c, 0, 70, 64
2, 871568, Note_on_c, 0, 65, 56
2, 871576, Note_off_c, 0, 68, 64
2, 871586, Note_on_c, 0, 62, 37
2, 871589, Note_on_c, 0, 56, 51
2, 871590, Note_on_c, 0, 58, 35
2, 871590, Control_c, 0, 64, 0
2, 871624, Control_c, 0, 64, 127
2, 871661, Note_on_c, 0, 67, 54
2, 871680, Note_off_c, 0, 65, 64
2, 871706, Note_off_c, 0, 62, 64
2, 871709, Note_off_c, 0, 56, 64
2, 871710, Note_off_c, 0, 58, 64
2, 871726, Note_off_c, 0, 46, 64
2, 871748, Note_on_c, 0, 68, 58
2, 871748, Note_on_c, 0, 62, 35
2, 871753, Note_on_c, 0, 56, 51
2, 871757, Note_on_c, 0, 58, 44
2, 871773, Note_off_c, 0, 67, 64
2, 871834, Note_on_c, 0, 77, 54
2, 871856, Note_off_c, 0, 68, 64
2, 871868, Note_off_c, 0, 62, 64
2, 871873, Note_off_c, 0, 56, 64
2, 871877, Note_off_c, 0, 58, 64
2, 871923, Note_on_c, 0, 75, 65
2, 871938, Control_c, 0, 64, 0
2, 871947, Note_off_c, 0, 77, 64
2, 871950, Note_on_c, 0, 39, 65
2, 871966, Control_c, 0, 64, 127
2, 872009, Note_on_c, 0, 68, 57
2, 872038, Note_off_c, 0, 75, 64
2, 872107, Note_on_c, 0, 67, 55
2, 872117, Control_c, 0, 64, 0
2, 872121, Note_off_c, 0, 68, 64
2, 872125, Note_on_c, 0, 63, 44
2, 872130, Note_on_c, 0, 55, 26
2, 872160, Control_c, 0, 64, 127
2, 872233, Note_off_c, 0, 39, 64
2, 872245, Note_off_c, 0, 63, 64
2, 872250, Note_off_c, 0, 55, 64
2, 872280, Note_on_c, 0, 63, 49
2, 872284, Note_on_c, 0, 58, 55
2, 872296, Note_on_c, 0, 55, 44
2, 872356, Note_on_c, 0, 66, 52
2, 872382, Note_off_c, 0, 67, 64
2, 872400, Note_off_c, 0, 63, 64
2, 872404, Note_off_c, 0, 58, 64
2, 872416, Note_off_c, 0, 55, 64
2, 872462, Note_on_c, 0, 67, 55
2, 872472, Note_on_c, 0, 45, 55
2, 872479, Note_off_c, 0, 66, 64
2, 872485, Control_c, 0, 64, 0
2, 872532, Control_c, 0, 64, 127
2, 872636, Note_on_c, 0, 55, 49
2, 872636, Note_on_c, 0, 57, 29
2, 872636, Note_on_c, 0, 61, 50
2, 872645, Note_on_c, 0, 64, 52
2, 872660, Note_off_c, 0, 67, 64
2, 872673, Control_c, 0, 64, 0
2, 872697, Control_c, 0, 64, 127
2, 872722, Note_on_c, 0, 66, 62
2, 872738, Note_off_c, 0, 64, 64
2, 872756, Note_off_c, 0, 61, 64
2, 872756, Note_off_c, 0, 57, 64
2, 872756, Note_off_c, 0, 55, 64
2, 872766, Note_off_c, 0, 45, 64
2, 872804, Note_on_c, 0, 57, 29
2, 872804, Note_on_c, 0, 55, 49
2, 872816, Note_on_c, 0, 67, 49
2, 872819, Note_on_c, 0, 61, 40
2, 872824, Note_off_c, 0, 66, 64
2, 872916, Note_on_c, 0, 76, 48
2, 872924, Note_off_c, 0, 55, 64
2, 872924, Note_off_c, 0, 57, 64
2, 872939, Note_off_c, 0, 61, 64
2, 872961, Note_off_c, 0, 67, 64
2, 872997, Note_on_c, 0, 74, 41
2, 873000, Note_on_c, 0, 45, 58
2, 873016, Note_off_c, 0, 76, 64
2, 873020, Control_c, 0, 64, 0
2, 873044, Control_c, 0, 64, 127
2, 873111, Note_on_c, 0, 67, 54
2, 873137, Note_off_c, 0, 74, 64
2, 873180, Note_on_c, 0, 54, 36
2, 873182, Note_on_c, 0, 66, 60
2, 873182, Note_on_c, 0, 57, 42
2, 873190, Note_on_c, 0, 62, 41
2, 873192, Control_c, 0, 64, 0
2, 873205, Note_off_c, 0, 67, 64
2, 873225, Control_c, 0, 64, 127
2, 873271, Note_on_c, 0, 67, 60
2, 873284, Note_off_c, 0, 45, 64
2, 873286, Note_off_c, 0, 66, 64
2, 873300, Note_off_c, 0, 54, 64
2, 873302, Note_off_c, 0, 57, 64
2, 873310, Note_off_c, 0, 62, 64
2, 873354, Note_on_c, 0, 68, 58
2, 873357, Note_on_c, 0, 53, 40
2, 873361, Note_on_c, 0, 59, 49
2, 873364, Note_on_c, 0, 62, 49
2, 873378, Control_c, 0, 64, 0
2, 873384, Note_off_c, 0, 67, 64
2, 873408, Control_c, 0, 64, 127
2, 873462, Note_on_c, 0, 71, 54
2, 873477, Note_off_c, 0, 53, 64
2, 873481, Note_off_c, 0, 59, 64
2, 873484, Note_off_c, 0, 62, 64
2, 873496, Note_off_c, 0, 68, 64
2, 873537, Note_on_c, 0, 69, 55
2, 873539, Note_on_c, 0, 45, 54
2, 873550, Control_c, 0, 64, 0
2, 873555, Note_off_c, 0, 71, 64
2, 873583, Control_c, 0, 64, 127
2, 873664, Note_on_c, 0, 63, 62
2, 873680, Note_off_c, 0, 69, 64
2, 873718, Note_on_c, 0, 66, 56
2, 873718, Note_on_c, 0, 61, 62
2, 873722, Control_c, 0, 64, 0
2, 873730, Note_on_c, 0, 55, 34
2, 873735, Note_off_c, 0, 63, 64
2, 873762, Control_c, 0, 64, 127
2, 873823, Note_off_c, 0, 45, 64
2, 873838, Note_off_c, 0, 61, 64
2, 873838, Note_on_c, 0, 64, 52
2, 873850, Note_off_c, 0, 55, 64
2, 873859, Note_off_c, 0, 66, 64
2, 873897, Note_on_c, 0, 67, 59
2, 873901, Note_on_c, 0, 61, 51
2, 873901, Note_on_c, 0, 55, 55
2, 873923, Note_off_c, 0, 64, 64
2, 873995, Note_on_c, 0, 59, 41
2, 874021, Note_off_c, 0, 55, 64
2, 874021, Note_off_c, 0, 61, 64
2, 874055, Note_off_c, 0, 67, 64
2, 874065, Note_on_c, 0, 57, 63
2, 874072, Note_on_c, 0, 33, 58
2, 874086, Control_c, 0, 64, 0
2, 874088, Note_off_c, 0, 59, 64
2, 874110, Control_c, 0, 64, 127
2, 874189, Note_on_c, 0, 64, 51
2, 874223, Note_off_c, 0, 57, 64
2, 874241, Note_on_c, 0, 57, 49
2, 874241, Note_on_c, 0, 54, 43
2, 874248, Note_on_c, 0, 62, 62
2, 874254, Control_c, 0, 64, 0
2, 874262, Note_off_c, 0, 64, 64
2, 874277, Control_c, 0, 64, 127
2, 874346, Note_on_c, 0, 67, 49
2, 874357, Note_off_c, 0, 33, 64
2, 874361, Note_off_c, 0, 54, 64
2, 874361, Note_off_c, 0, 57, 64
2, 874367, Note_off_c, 0, 62, 64
2, 874421, Note_on_c, 0, 54, 49
2, 874422, Note_on_c, 0, 62, 55
2, 874425, Note_on_c, 0, 66, 73
2, 874425, Note_on_c, 0, 57, 41
2, 874441, Note_off_c, 0, 67, 64
2, 874525, Note_on_c, 0, 71, 60
2, 874541, Note_off_c, 0, 54, 64
2, 874542, Note_off_c, 0, 62, 64
2, 874545, Note_off_c, 0, 57, 64
2, 874551, Note_off_c, 0, 66, 64
2, 874596, Note_off_c, 0, 71, 64
2, 874596, Note_on_c, 0, 69, 51
2, 874604, Note_on_c, 0, 45, 56
2, 874604, Control_c, 0, 64, 0
2, 874629, Control_c, 0, 64, 127
2, 874635, Note_on_c, 0, 71, 59
2, 874647, Note_off_c, 0, 69, 64
2, 874680, Note_on_c, 0, 69, 49
2, 874701, Note_off_c, 0, 71, 64
2, 874745, Note_on_c, 0, 68, 56
2, 874752, Note_off_c, 0, 69, 64
2, 874761, Note_on_c, 0, 61, 51
2, 874764, Control_c, 0, 64, 0
2, 874771, Note_on_c, 0, 52, 44
2, 874810, Control_c, 0, 64, 127
2, 874873, Note_on_c, 0, 67, 63
2, 874881, Note_off_c, 0, 61, 64
2, 874883, Note_off_c, 0, 45, 64
2, 874888, Note_off_c, 0, 68, 64
2, 874891, Note_off_c, 0, 52, 64
2, 874935, Note_on_c, 0, 69, 57
2, 874939, Note_off_c, 0, 67, 64
2, 874945, Control_c, 0, 64, 0
2, 874948, Note_on_c, 0, 67, 55
2, 874948, Note_on_c, 0, 61, 55
2, 874956, Note_on_c, 0, 57, 41
2, 874959, Control_c, 0, 64, 127
2, 875056, Note_on_c, 0, 76, 54
2, 875068, Note_off_c, 0, 61, 64
2, 875068, Note_off_c, 0, 67, 64
2, 875076, Note_off_c, 0, 57, 64
2, 875085, Note_off_c, 0, 69, 64
2, 875113, Control_c, 0, 64, 0
2, 875121, Note_on_c, 0, 38, 51
2, 875121, Note_on_c, 0, 74, 60
2, 875135, Note_off_c, 0, 76, 64
2, 875155, Control_c, 0, 64, 127
2, 875238, Note_on_c, 0, 67, 52
2, 875268, Note_off_c, 0, 74, 64
2, 875285, Note_on_c, 0, 60, 26
2, 875292, Note_on_c, 0, 57, 20
2, 875292, Note_on_c, 0, 50, 49
2, 875297, Note_on_c, 0, 66, 60
2, 875304, Control_c, 0, 64, 0
2, 875314, Control_c, 0, 64, 127
2, 875321, Note_off_c, 0, 67, 64
2, 875405, Note_off_c, 0, 60, 64
2, 875407, Note_on_c, 0, 67, 57
2, 875412, Note_off_c, 0, 50, 64
2, 875412, Note_off_c, 0, 57, 64
2, 875420, Note_off_c, 0, 66, 64
2, 875471, Note_on_c, 0, 68, 57
2, 875475, Note_on_c, 0, 54, 62
2, 875475, Note_on_c, 0, 60, 62
2, 875476, Note_on_c, 0, 50, 65
2, 875476, Control_c, 0, 64, 0
2, 875502, Note_off_c, 0, 67, 64
2, 875535, Control_c, 0, 64, 127
2, 875576, Note_on_c, 0, 71, 39
2, 875592, Note_off_c, 0, 68, 64
2, 875635, Note_off_c, 0, 38, 64
2, 875640, Note_on_c, 0, 69, 52
2, 875649, Note_off_c, 0, 71, 64
2, 875691, Note_off_c, 0, 54, 64
2, 875691, Note_off_c, 0, 50, 64
2, 875701, Note_off_c, 0, 60, 64
2, 875763, Note_on_c, 0, 65, 57
2, 875783, Note_off_c, 0, 69, 64
2, 875812, Control_c, 0, 64, 0
2, 875820, Note_on_c, 0, 66, 60
2, 875820, Note_on_c, 0, 60, 51
2, 875823, Note_on_c, 0, 57, 46
2, 875825, Note_on_c, 0, 51, 59
2, 875847, Note_off_c, 0, 65, 64
2, 875856, Control_c, 0, 64, 127
2, 875931, Note_on_c, 0, 67, 57
2, 875940, Note_off_c, 0, 60, 64
2, 875943, Note_off_c, 0, 57, 64
2, 875945, Note_off_c, 0, 51, 64
2, 875952, Note_off_c, 0, 66, 64
2, 875995, Control_c, 0, 64, 0
2, 876000, Note_on_c, 0, 68, 65
2, 876004, Note_on_c, 0, 51, 65
2, 876004, Note_on_c, 0, 54, 65
2, 876005, Note_on_c, 0, 60, 65
2, 876025, Note_off_c, 0, 67, 64
2, 876061, Control_c, 0, 64, 127
2, 876084, Note_on_c, 0, 71, 52
2, 876109, Note_off_c, 0, 68, 64
2, 876168, Note_on_c, 0, 69, 51
2, 876179, Note_off_c, 0, 71, 64
2, 876221, Note_on_c, 0, 71, 62
2, 876245, Note_off_c, 0, 69, 64
2, 876273, Note_on_c, 0, 69, 62
2, 876291, Note_off_c, 0, 71, 64
2, 876360, Note_on_c, 0, 66, 43
2, 876363, Note_on_c, 0, 57, 63
2, 876369, Note_off_c, 0, 54, 64
2, 876375, Control_c, 0, 64, 0
2, 876400, Note_off_c, 0, 69, 64
2, 876408, Control_c, 0, 64, 127
2, 876499, Note_on_c, 0, 67, 63
2, 876502, Note_off_c, 0, 66, 64
2, 876544, Note_on_c, 0, 68, 70
2, 876569, Note_off_c, 0, 67, 64
2, 876646, Note_off_c, 0, 57, 64
2, 876649, Note_off_c, 0, 51, 64
2, 876650, Note_off_c, 0, 60, 64
2, 876659, Note_on_c, 0, 71, 51
2, 876674, Note_on_c, 0, 52, 49
2, 876689, Note_off_c, 0, 68, 64
2, 876729, Note_on_c, 0, 64, 69
2, 876729, Control_c, 0, 64, 0
2, 876736, Note_on_c, 0, 69, 57
2, 876741, Note_off_c, 0, 52, 64
2, 876760, Note_off_c, 0, 71, 64
2, 876766, Control_c, 0, 64, 127
2, 876812, Note_on_c, 0, 59, 59
2, 876855, Note_off_c, 0, 64, 64
2, 876860, Note_on_c, 0, 67, 51
2, 876877, Note_off_c, 0, 69, 64
2, 876897, Note_off_c, 0, 67, 64
2, 876912, Control_c, 0, 64, 0
2, 876917, Note_on_c, 0, 67, 63
2, 876919, Note_on_c, 0, 60, 82
2, 876929, Note_off_c, 0, 59, 64
2, 876960, Control_c, 0, 64, 127
2, 877021, Note_on_c, 0, 65, 55
2, 877035, Note_off_c, 0, 67, 64
2, 877059, Note_off_c, 0, 65, 64
2, 877092, Note_on_c, 0, 57, 56
2, 877097, Note_on_c, 0, 65, 57
2, 877112, Control_c, 0, 64, 0
2, 877128, Note_off_c, 0, 60, 64
2, 877137, Control_c, 0, 64, 127
2, 877204, Note_on_c, 0, 63, 49
2, 877217, Note_off_c, 0, 65, 64
2, 877243, Note_off_c, 0, 63, 64
2, 877287, Note_off_c, 0, 57, 64
2, 877287, Note_on_c, 0, 59, 62
2, 877288, Note_on_c, 0, 63, 56
2, 877303, Control_c, 0, 64, 0
2, 877337, Control_c, 0, 64, 127
2, 877422, Note_on_c, 0, 56, 51
2, 877468, Note_on_c, 0, 64, 54
2, 877476, Note_off_c, 0, 63, 64
2, 877482, Note_off_c, 0, 59, 64
2, 877522, Note_on_c, 0, 52, 65
2, 877523, Note_off_c, 0, 64, 64
2, 877537, Note_on_c, 0, 64, 57
2, 877541, Note_off_c, 0, 56, 64
2, 877545, Control_c, 0, 64, 0
2, 877567, Control_c, 0, 64, 127
2, 877748, Note_on_c, 0, 40, 48
2, 877756, Note_on_c, 0, 47, 44
2, 877763, Note_on_c, 0, 62, 47
2, 877766, Note_on_c, 0, 56, 47
2, 877786, Control_c, 0, 64, 0
2, 877839, Control_c, 0, 64, 127
2, 877868, Note_off_c, 0, 40, 64
2, 877876, Note_off_c, 0, 47, 64
2, 877883, Note_off_c, 0, 62, 64
2, 877886, Note_off_c, 0, 56, 64
2, 877940, Note_on_c, 0, 40, 48
2, 877948, Note_on_c, 0, 47, 44
2, 877956, Note_on_c, 0, 62, 47
2, 877956, Note_on_c, 0, 56, 47
2, 877959, Note_on_c, 0, 66, 67
2, 877994, Control_c, 0, 64, 0
2, 878000, Note_off_c, 0, 64, 64
2, 878060, Note_off_c, 0, 40, 64
2, 878068, Note_off_c, 0, 47, 64
2, 878076, Note_off_c, 0, 56, 64
2, 878076, Note_off_c, 0, 62, 64
2, 878080, Note_on_c, 0, 68, 58
2, 878092, Note_off_c, 0, 52, 64
2, 878104, Note_off_c, 0, 66, 64
2, 878147, Note_on_c, 0, 69, 74
2, 878172, Note_off_c, 0, 68, 64
2, 878312, Note_on_c, 0, 71, 69
2, 878317, Note_on_c, 0, 56, 49
2, 878320, Note_on_c, 0, 62, 41
2, 878329, Note_on_c, 0, 52, 36
2, 878329, Control_c, 0, 64, 0
2, 878336, Note_off_c, 0, 69, 64
2, 878365, Control_c, 0, 64, 127
2, 878437, Note_off_c, 0, 56, 64
2, 878440, Note_off_c, 0, 62, 64
2, 878449, Note_off_c, 0, 52, 64
2, 878505, Note_on_c, 0, 72, 66
2, 878509, Note_on_c, 0, 45, 51
2, 878515, Control_c, 0, 64, 0
2, 878518, Note_off_c, 0, 71, 64
2, 878558, Control_c, 0, 64, 127
2, 878595, Note_on_c, 0, 77, 71
2, 878626, Note_off_c, 0, 72, 64
2, 878684, Note_on_c, 0, 76, 71
2, 878691, Note_on_c, 0, 60, 43
2, 878695, Note_on_c, 0, 52, 51
2, 878702, Control_c, 0, 64, 0
2, 878709, Note_off_c, 0, 77, 64
2, 878731, Control_c, 0, 64, 127
2, 878764, Note_on_c, 0, 72, 74
2, 878810, Note_off_c, 0, 76, 64
2, 878822, Note_off_c, 0, 60, 64
2, 878826, Note_off_c, 0, 52, 64
2, 878849, Note_on_c, 0, 76, 64
2, 878854, Control_c, 0, 64, 0
2, 878862, Note_on_c, 0, 44, 65
2, 878867, Note_off_c, 0, 45, 64
2, 878884, Note_off_c, 0, 72, 64
2, 878891, Control_c, 0, 64, 127
2, 878938, Note_on_c, 0, 78, 85
2, 878988, Note_off_c, 0, 76, 64
2, 879039, Note_on_c, 0, 79, 81
2, 879042, Note_on_c, 0, 43, 56
2, 879042, Control_c, 0, 64, 0
2, 879065, Note_off_c, 0, 78, 64
2, 879079, Note_off_c, 0, 44, 64
2, 879079, Control_c, 0, 64, 127
2, 879115, Note_on_c, 0, 74, 64
2, 879163, Note_off_c, 0, 79, 64
2, 879209, Note_on_c, 0, 76, 63
2, 879215, Note_on_c, 0, 64, 44
2, 879219, Note_on_c, 0, 60, 27
2, 879222, Note_on_c, 0, 55, 37
2, 879226, Control_c, 0, 64, 0
2, 879239, Note_off_c, 0, 74, 64
2, 879268, Control_c, 0, 64, 127
2, 879291, Note_on_c, 0, 71, 65
2, 879298, Note_off_c, 0, 76, 64
2, 879335, Note_off_c, 0, 64, 64
2, 879339, Note_off_c, 0, 60, 64
2, 879342, Note_off_c, 0, 55, 64
2, 879352, Note_off_c, 0, 43, 64
2, 879388, Note_on_c, 0, 60, 35
2, 879396, Note_on_c, 0, 64, 21
2, 879402, Note_on_c, 0, 72, 58
2, 879406, Note_on_c, 0, 69, 26
2, 879416, Note_off_c, 0, 71, 64
2, 879425, Control_c, 0, 64, 0
2, 879462, Note_off_c, 0, 69, 64
2, 879466, Control_c, 0, 64, 127
2, 879494, Note_on_c, 0, 69, 65
2, 879508, Note_off_c, 0, 72, 64
2, 879576, Note_off_c, 0, 64, 64
2, 879585, Note_off_c, 0, 60, 64
2, 879600, Note_on_c, 0, 74, 67
2, 879624, Note_off_c, 0, 69, 64
2, 879678, Note_on_c, 0, 71, 65
2, 879691, Note_off_c, 0, 74, 64
2, 879782, Note_on_c, 0, 67, 71
2, 879791, Note_on_c, 0, 62, 41
2, 879798, Note_on_c, 0, 65, 32
2, 879804, Note_on_c, 0, 55, 32
2, 879811, Control_c, 0, 64, 0
2, 879848, Control_c, 0, 64, 127
2, 879911, Note_off_c, 0, 62, 64
2, 879918, Note_off_c, 0, 65, 64
2, 879924, Note_off_c, 0, 55, 64
2, 880060, Note_on_c, 0, 65, 20
2, 880061, Note_on_c, 0, 55, 26
2, 880069, Note_on_c, 0, 62, 25
2, 880082, Control_c, 0, 64, 0
2, 880116, Control_c, 0, 64, 127
2, 880258, Note_off_c, 0, 62, 64
2, 880269, Note_on_c, 0, 69, 55
2, 880282, Note_off_c, 0, 65, 64
2, 880283, Note_off_c, 0, 71, 64
2, 880295, Note_off_c, 0, 55, 64
2, 880295, Note_off_c, 0, 67, 64
2, 880351, Note_on_c, 0, 71, 54
2, 880380, Note_off_c, 0, 69, 64
2, 880431, Note_on_c, 0, 72, 55
2, 880432, Note_on_c, 0, 55, 28
2, 880433, Note_on_c, 0, 65, 34
2, 880436, Note_on_c, 0, 57, 49
2, 880440, Note_off_c, 0, 71, 64
2, 880449, Control_c, 0, 64, 0
2, 880473, Control_c, 0, 64, 127
2, 880552, Note_off_c, 0, 55, 64
2, 880553, Note_off_c, 0, 65, 64
2, 880556, Note_off_c, 0, 57, 64
2, 880621, Note_on_c, 0, 74, 62
2, 880632, Note_on_c, 0, 65, 36
2, 880637, Note_on_c, 0, 59, 55
2, 880637, Control_c, 0, 64, 127
2, 880637, Control_c, 0, 64, 0
2, 880640, Note_on_c, 0, 55, 28
2, 880645, Note_off_c, 0, 72, 64
2, 880665, Control_c, 0, 64, 127
2, 880752, Note_off_c, 0, 65, 64
2, 880757, Note_off_c, 0, 59, 64
2, 880760, Note_off_c, 0, 55, 64
2, 880824, Note_on_c, 0, 48, 50
2, 880832, Note_on_c, 0, 76, 56
2, 880839, Note_off_c, 0, 74, 64
2, 880856, Control_c, 0, 64, 0
2, 880880, Control_c, 0, 64, 127
2, 880944, Note_on_c, 0, 78, 63
2, 880967, Note_off_c, 0, 76, 64
2, 881036, Note_on_c, 0, 76, 60
2, 881055, Note_off_c, 0, 78, 64
2, 881080, Note_on_c, 0, 78, 62
2, 881097, Note_on_c, 0, 54, 26
2, 881097, Note_on_c, 0, 64, 21
2, 881102, Note_off_c, 0, 76, 64
2, 881102, Note_on_c, 0, 58, 28
2, 881109, Note_off_c, 0, 48, 64
2, 881137, Note_off_c, 0, 78, 64
2, 881143, Note_on_c, 0, 80, 62
2, 881184, Note_on_c, 0, 78, 70
2, 881189, Note_off_c, 0, 80, 64
2, 881218, Note_off_c, 0, 78, 64
2, 881229, Note_on_c, 0, 80, 63
2, 881256, Note_off_c, 0, 80, 64
2, 881256, Note_on_c, 0, 78, 65
2, 881285, Note_off_c, 0, 78, 64
2, 881294, Note_on_c, 0, 80, 69
2, 881302, Note_on_c, 0, 48, 55
2, 881323, Note_off_c, 0, 64, 64
2, 881323, Note_off_c, 0, 54, 64
2, 881325, Note_off_c, 0, 80, 64
2, 881325, Note_on_c, 0, 78, 65
2, 881328, Note_off_c, 0, 58, 64
2, 881352, Note_on_c, 0, 80, 66
2, 881355, Note_off_c, 0, 78, 64
2, 881392, Note_off_c, 0, 80, 64
2, 881392, Note_on_c, 0, 78, 69
2, 881438, Note_on_c, 0, 76, 62
2, 881451, Note_off_c, 0, 78, 64
2, 881510, Note_on_c, 0, 78, 62
2, 881540, Note_off_c, 0, 76, 64
2, 881588, Note_on_c, 0, 80, 57
2, 881596, Note_off_c, 0, 78, 64
2, 881601, Control_c, 0, 64, 0
2, 881606, Note_on_c, 0, 47, 51
2, 881629, Control_c, 0, 64, 127
2, 881635, Note_off_c, 0, 48, 64
2, 881693, Note_on_c, 0, 71, 50
2, 881719, Note_off_c, 0, 80, 64
2, 881788, Note_on_c, 0, 59, 35
2, 881791, Note_on_c, 0, 80, 57
2, 881794, Note_on_c, 0, 56, 52
2, 881799, Note_on_c, 0, 64, 41
2, 881803, Control_c, 0, 64, 0
2, 881824, Note_off_c, 0, 71, 64
2, 881839, Control_c, 0, 64, 127
2, 881889, Note_off_c, 0, 47, 64
2, 881908, Note_off_c, 0, 59, 64
2, 881914, Note_off_c, 0, 56, 64
2, 881919, Note_off_c, 0, 64, 64
2, 881981, Note_on_c, 0, 78, 66
2, 881988, Note_on_c, 0, 59, 35
2, 881989, Note_on_c, 0, 63, 40
2, 881995, Note_off_c, 0, 80, 64
2, 881999, Note_on_c, 0, 57, 37
2, 882004, Control_c, 0, 64, 0
2, 882040, Control_c, 0, 64, 127
2, 882079, Note_on_c, 0, 80, 62
2, 882102, Note_off_c, 0, 78, 64
2, 882108, Note_off_c, 0, 59, 64
2, 882109, Note_off_c, 0, 63, 64
2, 882119, Note_off_c, 0, 57, 64
2, 882169, Note_on_c, 0, 76, 62
2, 882171, Note_on_c, 0, 52, 52
2, 882190, Control_c, 0, 64, 0
2, 882201, Note_off_c, 0, 80, 64
2, 882224, Control_c, 0, 64, 127
2, 882312, Note_off_c, 0, 76, 64
2, 882321, Note_on_c, 0, 71, 44
2, 882364, Note_on_c, 0, 64, 27
2, 882364, Note_on_c, 0, 59, 35
2, 882367, Note_on_c, 0, 68, 39
2, 882369, Note_on_c, 0, 56, 35
2, 882376, Note_on_c, 0, 76, 63
2, 882390, Control_c, 0, 64, 0
2, 882411, Note_off_c, 0, 71, 64
2, 882426, Control_c, 0, 64, 127
2, 882456, Note_off_c, 0, 52, 64
2, 882484, Note_off_c, 0, 59, 64
2, 882484, Note_off_c, 0, 64, 64
2, 882487, Note_off_c, 0, 68, 64
2, 882489, Note_off_c, 0, 56, 64
2, 882564, Note_on_c, 0, 67, 46
2, 882571, Note_on_c, 0, 61, 41
2, 882577, Note_on_c, 0, 57, 43
2, 882589, Control_c, 0, 64, 0
2, 882612, Control_c, 0, 64, 127
2, 882684, Note_off_c, 0, 67, 64
2, 882691, Note_off_c, 0, 61, 64
2, 882697, Note_off_c, 0, 57, 64
2, 882776, Control_c, 0, 64, 0
2, 882780, Note_on_c, 0, 77, 56
2, 882784, Note_on_c, 0, 50, 47
2, 882797, Note_off_c, 0, 76, 64
2, 882815, Control_c, 0, 64, 127
2, 882889, Note_on_c, 0, 69, 44
2, 882973, Note_off_c, 0, 77, 64
2, 882987, Note_on_c, 0, 74, 55
2, 882996, Note_on_c, 0, 57, 32
2, 883001, Note_on_c, 0, 65, 28
2, 883005, Note_on_c, 0, 59, 41
2, 883012, Control_c, 0, 64, 0
2, 883054, Control_c, 0, 64, 127
2, 883069, Note_off_c, 0, 69, 64
2, 883082, Note_off_c, 0, 50, 64
2, 883116, Note_off_c, 0, 57, 64
2, 883121, Note_off_c, 0, 65, 64
2, 883125, Note_off_c, 0, 59, 64
2, 883236, Note_on_c, 0, 56, 26
2, 883238, Note_on_c, 0, 71, 55
2, 883241, Note_off_c, 0, 74, 64
2, 883253, Note_on_c, 0, 62, 25
2, 883253, Note_on_c, 0, 52, 29
2, 883265, Control_c, 0, 64, 0
2, 883290, Control_c, 0, 64, 127
2, 883356, Note_off_c, 0, 56, 64
2, 883373, Note_off_c, 0, 52, 64
2, 883373, Note_off_c, 0, 62, 64
2, 883434, Note_on_c, 0, 72, 50
2, 883437, Note_off_c, 0, 71, 64
2, 883493, Note_on_c, 0, 69, 62
2, 883499, Note_off_c, 0, 72, 64
2, 883532, Note_on_c, 0, 71, 55
2, 883546, Note_off_c, 0, 69, 64
2, 883575, Note_on_c, 0, 51, 51
2, 883577, Note_on_c, 0, 69, 55
2, 883584, Control_c, 0, 64, 0
2, 883592, Note_off_c, 0, 71, 64
2, 883615, Control_c, 0, 64, 127
2, 883766, Note_on_c, 0, 68, 52
2, 883771, Note_off_c, 0, 69, 64
2, 883814, Note_on_c, 0, 60, 42
2, 883828, Note_on_c, 0, 66, 37
2, 883835, Note_off_c, 0, 68, 64
2, 883842, Note_on_c, 0, 69, 44
2, 883843, Control_c, 0, 64, 0
2, 883858, Control_c, 0, 64, 127
2, 883934, Note_off_c, 0, 60, 64
2, 883948, Note_off_c, 0, 66, 64
2, 884038, Note_on_c, 0, 66, 35
2, 884045, Note_on_c, 0, 60, 37
2, 884103, Note_off_c, 0, 51, 64
2, 884158, Note_off_c, 0, 66, 64
2, 884165, Note_off_c, 0, 60, 64
2, 884262, Note_on_c, 0, 39, 50
2, 884274, Control_c, 0, 64, 0
2, 884318, Control_c, 0, 64, 127
2, 884462, Note_on_c, 0, 66, 46
2, 884474, Note_on_c, 0, 60, 28
2, 884582, Note_off_c, 0, 66, 64
2, 884594, Note_off_c, 0, 60, 64
2, 884635, Note_off_c, 0, 39, 64
2, 884669, Note_on_c, 0, 66, 36
2, 884681, Note_on_c, 0, 60, 28
2, 884789, Note_off_c, 0, 66, 64
2, 884801, Note_off_c, 0, 60, 64
2, 884865, Note_on_c, 0, 51, 42
2, 884879, Control_c, 0, 64, 0
2, 884921, Control_c, 0, 64, 127
2, 885061, Note_on_c, 0, 66, 35
2, 885075, Note_on_c, 0, 60, 24
2, 885181, Note_off_c, 0, 66, 64
2, 885195, Note_off_c, 0, 60, 64
2, 885238, Note_off_c, 0, 51, 64
2, 885264, Note_on_c, 0, 66, 34
2, 885270, Note_on_c, 0, 60, 33
2, 885384, Note_off_c, 0, 66, 64
2, 885390, Note_off_c, 0, 60, 64
2, 885474, Control_c, 0, 64, 0
2, 885501, Note_on_c, 0, 39, 51
2, 885523, Control_c, 0, 64, 127
2, 885619, Note_off_c, 0, 69, 64
2, 885738, Note_on_c, 0, 57, 48
2, 885784, Control_c, 0, 64, 0
2, 885796, Control_c, 0, 64, 127
2, 885830, Note_on_c, 0, 60, 55
2, 885875, Note_off_c, 0, 57, 64
2, 885882, Note_off_c, 0, 39, 64
2, 885929, Note_on_c, 0, 72, 62
2, 885958, Note_off_c, 0, 60, 64
2, 886081, Note_on_c, 0, 71, 56
2, 886103, Note_off_c, 0, 72, 64
2, 886135, Note_off_c, 0, 71, 64
2, 886169, Note_on_c, 0, 51, 48
2, 886171, Note_on_c, 0, 71, 57
2, 886173, Control_c, 0, 64, 0
2, 886181, Note_on_c, 0, 78, 62
2, 886194, Control_c, 0, 64, 127
2, 886284, Note_on_c, 0, 69, 56
2, 886309, Note_off_c, 0, 71, 64
2, 886366, Note_on_c, 0, 57, 39
2, 886370, Note_off_c, 0, 69, 64
2, 886397, Note_on_c, 0, 69, 52
2, 886407, Note_on_c, 0, 60, 25
2, 886422, Note_on_c, 0, 66, 39
2, 886443, Note_on_c, 0, 84, 82
2, 886455, Note_off_c, 0, 78, 64
2, 886479, Control_c, 0, 64, 0
2, 886491, Control_c, 0, 64, 127
2, 886517, Note_off_c, 0, 51, 64
2, 886579, Note_off_c, 0, 57, 64
2, 886620, Note_off_c, 0, 60, 64
2, 886635, Note_off_c, 0, 66, 64
2, 886694, Note_on_c, 0, 57, 37
2, 886695, Note_on_c, 0, 60, 48
2, 886701, Note_on_c, 0, 66, 46
2, 886814, Note_off_c, 0, 57, 64
2, 886815, Note_off_c, 0, 60, 64
2, 886821, Note_off_c, 0, 66, 64
2, 886927, Control_c, 0, 64, 0
2, 886936, Note_on_c, 0, 39, 40
2, 886944, Note_off_c, 0, 84, 64
2, 886955, Control_c, 0, 64, 127
2, 886988, Note_off_c, 0, 69, 64
2, 887152, Note_on_c, 0, 65, 46
2, 887156, Note_on_c, 0, 60, 36
2, 887167, Note_on_c, 0, 57, 23
2, 887272, Note_off_c, 0, 65, 64
2, 887276, Note_off_c, 0, 60, 64
2, 887287, Note_off_c, 0, 57, 64
2, 887301, Note_off_c, 0, 39, 64
2, 887358, Note_on_c, 0, 60, 27
2, 887361, Note_on_c, 0, 65, 33
2, 887365, Note_on_c, 0, 57, 25
2, 887478, Note_off_c, 0, 60, 64
2, 887481, Note_off_c, 0, 65, 64
2, 887485, Note_off_c, 0, 57, 64
2, 887554, Note_on_c, 0, 51, 49
2, 887774, Note_on_c, 0, 60, 27
2, 887784, Note_on_c, 0, 65, 17
2, 887790, Note_on_c, 0, 57, 17
2, 887894, Note_off_c, 0, 60, 64
2, 887904, Note_off_c, 0, 65, 64
2, 887910, Note_off_c, 0, 57, 64
2, 887984, Note_on_c, 0, 60, 16
2, 887991, Note_on_c, 0, 57, 24
2, 888000, Note_on_c, 0, 65, 16
2, 888027, Note_off_c, 0, 51, 64
2, 888104, Note_off_c, 0, 60, 64
2, 888111, Note_off_c, 0, 57, 64
2, 888120, Note_off_c, 0, 65, 64
2, 888212, Note_on_c, 0, 39, 51
2, 888236, Control_c, 0, 64, 0
2, 888326, Note_on_c, 0, 57, 55
2, 888433, Note_on_c, 0, 60, 54
2, 888471, Note_off_c, 0, 57, 64
2, 888552, Note_on_c, 0, 65, 57
2, 888573, Note_off_c, 0, 39, 64
2, 888588, Note_off_c, 0, 60, 64
2, 888667, Note_on_c, 0, 72, 65
2, 888727, Note_off_c, 0, 65, 64
2, 888881, Note_on_c, 0, 71, 50
2, 888907, Note_off_c, 0, 72, 64
2, 888941, Note_off_c, 0, 71, 64
2, 888986, Note_on_c, 0, 77, 62
2, 888991, Note_on_c, 0, 71, 51
2, 888995, Note_on_c, 0, 51, 48
2, 889002, Control_c, 0, 64, 0
2, 889037, Control_c, 0, 64, 127
2, 889095, Note_off_c, 0, 71, 64
2, 889172, Note_on_c, 0, 69, 62
2, 889224, Note_off_c, 0, 69, 64
2, 889249, Note_on_c, 0, 69, 48
2, 889266, Note_on_c, 0, 57, 19
2, 889277, Note_on_c, 0, 60, 21
2, 889290, Note_on_c, 0, 65, 25
2, 889297, Note_on_c, 0, 84, 76
2, 889314, Control_c, 0, 64, 0
2, 889337, Note_off_c, 0, 51, 64
2, 889344, Note_off_c, 0, 77, 64
2, 889349, Control_c, 0, 64, 127
2, 889386, Note_off_c, 0, 57, 64
2, 889397, Note_off_c, 0, 60, 64
2, 889410, Note_off_c, 0, 65, 64
2, 889553, Note_on_c, 0, 65, 42
2, 889558, Note_on_c, 0, 60, 35
2, 889563, Note_on_c, 0, 57, 32
2, 889673, Note_off_c, 0, 65, 64
2, 889678, Note_off_c, 0, 60, 64
2, 889683, Note_off_c, 0, 57, 64
2, 889709, Note_on_c, 0, 52, 35
2, 889736, Note_off_c, 0, 84, 64
2, 889762, Note_on_c, 0, 64, 71
2, 889778, Control_c, 0, 64, 0
2, 889802, Note_off_c, 0, 69, 64
2, 889815, Control_c, 0, 64, 127
2, 889935, Note_on_c, 0, 59, 47
2, 889945, Note_on_c, 0, 67, 56
2, 889980, Note_off_c, 0, 67, 64
2, 890005, Note_on_c, 0, 67, 65
2, 890005, Note_on_c, 0, 60, 63
2, 890011, Note_off_c, 0, 52, 64
2, 890021, Control_c, 0, 64, 0
2, 890024, Note_off_c, 0, 59, 64
2, 890050, Control_c, 0, 64, 127
2, 890060, Note_off_c, 0, 64, 64
2, 890143, Note_on_c, 0, 65, 56
2, 890152, Note_off_c, 0, 67, 64
2, 890178, Note_off_c, 0, 65, 64
2, 890210, Note_on_c, 0, 65, 62
2, 890210, Note_on_c, 0, 57, 63
2, 890220, Note_off_c, 0, 60, 64
2, 890230, Control_c, 0, 64, 0
2, 890269, Control_c, 0, 64, 127
2, 890351, Note_on_c, 0, 63, 60
2, 890377, Note_off_c, 0, 65, 64
2, 890391, Note_off_c, 0, 63, 64
2, 890420, Note_on_c, 0, 59, 69
2, 890429, Note_on_c, 0, 63, 55
2, 890438, Control_c, 0, 64, 0
2, 890444, Note_off_c, 0, 57, 64
2, 890479, Control_c, 0, 64, 127
2, 890516, Note_on_c, 0, 56, 69
2, 890530, Note_off_c, 0, 63, 64
2, 890544, Note_off_c, 0, 59, 64
2, 890580, Note_on_c, 0, 64, 51
2, 890621, Note_off_c, 0, 64, 64
2, 890636, Note_on_c, 0, 52, 67
2, 890640, Note_on_c, 0, 64, 58
2, 890657, Control_c, 0, 64, 0
2, 890667, Note_off_c, 0, 56, 64
2, 890691, Control_c, 0, 64, 127
2, 890875, Note_on_c, 0, 56, 42
2, 890881, Note_on_c, 0, 62, 35
2, 890883, Control_c, 0, 64, 0
2, 890892, Note_on_c, 0, 47, 32
2, 890898, Note_on_c, 0, 40, 32
2, 890923, Control_c, 0, 64, 127
2, 891175, Note_off_c, 0, 56, 64
2, 891181, Note_off_c, 0, 62, 64
2, 891192, Note_off_c, 0, 47, 64
2, 891198, Note_off_c, 0, 40, 64
2, 891290, Note_on_c, 0, 56, 43
2, 891297, Note_on_c, 0, 62, 44
2, 891299, Note_on_c, 0, 40, 41
2, 891302, Note_on_c, 0, 47, 40
2, 891306, Control_c, 0, 64, 0
2, 891331, Control_c, 0, 64, 127
2, 891410, Note_off_c, 0, 56, 64
2, 891417, Note_off_c, 0, 62, 64
2, 891419, Note_off_c, 0, 40, 64
2, 891422, Note_off_c, 0, 47, 64
2, 891494, Note_on_c, 0, 56, 47
2, 891502, Note_on_c, 0, 47, 37
2, 891503, Note_on_c, 0, 40, 40
2, 891510, Note_on_c, 0, 62, 34
2, 891614, Note_off_c, 0, 56, 64
2, 891622, Note_off_c, 0, 47, 64
2, 891623, Note_off_c, 0, 40, 64
2, 891630, Note_off_c, 0, 62, 64
2, 891685, Note_on_c, 0, 63, 34
2, 891688, Note_on_c, 0, 59, 52
2, 891700, Note_off_c, 0, 52, 64
2, 891704, Note_off_c, 0, 64, 64
2, 891722, Control_c, 0, 64, 0
2, 891749, Control_c, 0, 64, 127
2, 891840, Note_on_c, 0, 56, 52
2, 891869, Note_off_c, 0, 59, 64
2, 891888, Note_on_c, 0, 64, 50
2, 891912, Note_off_c, 0, 63, 64
2, 891941, Note_off_c, 0, 64, 64
2, 891962, Note_on_c, 0, 64, 56
2, 891965, Note_off_c, 0, 56, 64
2, 891965, Note_on_c, 0, 52, 59
2, 891974, Control_c, 0, 64, 0
2, 892010, Control_c, 0, 64, 127
2, 892217, Note_on_c, 0, 56, 40
2, 892220, Control_c, 0, 64, 0
2, 892226, Note_on_c, 0, 40, 32
2, 892227, Note_on_c, 0, 62, 42
2, 892227, Note_on_c, 0, 47, 40
2, 892258, Control_c, 0, 64, 127
2, 892337, Note_off_c, 0, 56, 64
2, 892346, Note_off_c, 0, 40, 64
2, 892347, Note_off_c, 0, 47, 64
2, 892347, Note_off_c, 0, 62, 64
2, 892468, Note_on_c, 0, 63, 43
2, 892472, Note_on_c, 0, 59, 32
2, 892503, Control_c, 0, 64, 0
2, 892508, Note_off_c, 0, 64, 64
2, 892511, Note_off_c, 0, 52, 64
2, 892525, Control_c, 0, 64, 127
2, 892608, Note_on_c, 0, 56, 36
2, 892680, Note_on_c, 0, 64, 44
2, 892681, Note_off_c, 0, 59, 64
2, 892691, Note_off_c, 0, 63, 64
2, 892739, Note_off_c, 0, 64, 64
2, 892749, Note_off_c, 0, 56, 64
2, 892760, Note_on_c, 0, 64, 51
2, 892772, Note_on_c, 0, 52, 33
2, 892782, Control_c, 0, 64, 0
2, 892795, Control_c, 0, 64, 127
2, 893082, Note_on_c, 0, 56, 19
2, 893086, Note_on_c, 0, 47, 24
2, 893086, Note_on_c, 0, 40, 26
2, 893097, Note_on_c, 0, 62, 18
2, 893104, Control_c, 0, 64, 0
2, 893128, Control_c, 0, 64, 127
2, 893183, Note_off_c, 0, 40, 64
2, 893185, Note_off_c, 0, 56, 64
2, 893186, Note_off_c, 0, 62, 64
2, 893188, Note_off_c, 0, 47, 64
2, 893325, Note_on_c, 0, 40, 26
2, 893328, Note_on_c, 0, 47, 26
2, 893333, Note_on_c, 0, 56, 34
2, 893338, Note_on_c, 0, 62, 34
2, 893435, Note_off_c, 0, 40, 64
2, 893438, Note_off_c, 0, 62, 64
2, 893438, Note_off_c, 0, 56, 64
2, 893450, Note_off_c, 0, 47, 64
2, 893592, Note_on_c, 0, 47, 36
2, 893592, Note_on_c, 0, 62, 40
2, 893594, Note_on_c, 0, 56, 46
2, 893602, Note_on_c, 0, 40, 32
2, 893628, Control_c, 0, 64, 0
2, 893642, Control_c, 0, 64, 127
2, 893741, Note_off_c, 0, 56, 64
2, 893745, Note_off_c, 0, 40, 64
2, 893748, Note_off_c, 0, 62, 64
2, 893770, Note_off_c, 0, 47, 64
2, 893967, Note_on_c, 0, 62, 36
2, 893968, Note_on_c, 0, 56, 52
2, 893976, Note_on_c, 0, 47, 43
2, 893977, Note_on_c, 0, 40, 40
2, 894009, Control_c, 0, 64, 0
2, 894051, Control_c, 0, 64, 127
2, 894385, Note_off_c, 0, 62, 64
2, 894386, Note_off_c, 0, 56, 64
2, 894394, Note_off_c, 0, 47, 64
2, 894395, Note_off_c, 0, 40, 64
2, 894431, Note_on_c, 0, 65, 60
2, 894438, Note_on_c, 0, 62, 43
2, 894438, Note_on_c, 0, 56, 42
2, 894439, Note_off_c, 0, 64, 64
2, 894444, Note_on_c, 0, 28, 48
2, 894446, Control_c, 0, 64, 0
2, 894451, Note_off_c, 0, 52, 64
2, 894481, Control_c, 0, 64, 127
2, 894624, Note_on_c, 0, 66, 62
2, 894652, Note_off_c, 0, 65, 64
2, 894662, Note_off_c, 0, 56, 64
2, 894662, Note_off_c, 0, 62, 64
2, 894752, Note_on_c, 0, 67, 60
2, 894762, Note_off_c, 0, 66, 64
2, 894868, Note_on_c, 0, 68, 66
2, 894890, Note_off_c, 0, 67, 64
2, 895063, Note_on_c, 0, 77, 65
2, 895066, Note_on_c, 0, 62, 41
2, 895066, Note_on_c, 0, 52, 41
2, 895083, Note_off_c, 0, 68, 64
2, 895087, Control_c, 0, 64, 0
2, 895109, Control_c, 0, 64, 127
2, 895240, Note_off_c, 0, 52, 64
2, 895261, Note_off_c, 0, 62, 64
2, 895285, Note_off_c, 0, 28, 64
2, 895316, Note_on_c, 0, 68, 59
2, 895358, Note_off_c, 0, 77, 64
2, 895525, Note_on_c, 0, 71, 56
2, 895531, Note_on_c, 0, 45, 47
2, 895550, Note_off_c, 0, 68, 64
2, 895560, Control_c, 0, 64, 0
2, 895602, Control_c, 0, 64, 127
2, 895912, Note_on_c, 0, 69, 50
2, 895922, Note_off_c, 0, 71, 64
2, 895940, Note_off_c, 0, 69, 64
2, 895978, Note_on_c, 0, 69, 62
2, 896076, Note_on_c, 0, 52, 40
2, 896092, Note_on_c, 0, 60, 26
2, 896149, Note_on_c, 0, 81, 62
2, 896198, Note_off_c, 0, 69, 64
2, 896202, Control_c, 0, 64, 0
2, 896236, Control_c, 0, 64, 127
2, 896476, Note_off_c, 0, 45, 64
2, 896484, Note_off_c, 0, 52, 64
2, 896492, Note_off_c, 0, 81, 64
2, 896500, Note_off_c, 0, 60, 64
2, 897277, Control_c, 0, 64, 0
2, 898320, Control_c, 0, 64, 0
2, 898364, Control_c, 0, 64, 127
2, 898599, Note_on_c, 0, 32, 77
2, 898864, Note_on_c, 0, 56, 28
2, 898865, Note_on_c, 0, 51, 31
2, 898871, Note_on_c, 0, 63, 28
2, 898909, Note_on_c, 0, 72, 81
2, 899052, Note_off_c, 0, 56, 64
2, 899053, Note_off_c, 0, 51, 64
2, 899059, Note_off_c, 0, 63, 64
2, 899130, Note_on_c, 0, 63, 36
2, 899136, Note_on_c, 0, 51, 18
2, 899139, Note_on_c, 0, 56, 36
2, 899230, Note_on_c, 0, 73, 66
2, 899248, Note_off_c, 0, 72, 64
2, 899308, Note_off_c, 0, 63, 64
2, 899314, Note_off_c, 0, 51, 64
2, 899317, Note_off_c, 0, 56, 64
2, 899333, Note_on_c, 0, 44, 57
2, 899339, Note_off_c, 0, 32, 64
2, 899348, Note_on_c, 0, 72, 71
2, 899369, Note_off_c, 0, 73, 64
2, 899431, Note_on_c, 0, 70, 66
2, 899441, Note_off_c, 0, 72, 64
2, 899520, Note_on_c, 0, 56, 23
2, 899522, Note_on_c, 0, 68, 66
2, 899528, Note_on_c, 0, 66, 44
2, 899535, Note_on_c, 0, 60, 44
2, 899535, Control_c, 0, 64, 0
2, 899541, Note_off_c, 0, 70, 64
2, 899564, Control_c, 0, 64, 127
2, 899683, Note_off_c, 0, 56, 64
2, 899691, Note_off_c, 0, 66, 64
2, 899698, Note_off_c, 0, 60, 64
2, 899704, Note_on_c, 0, 63, 44
2, 899704, Note_on_c, 0, 56, 23
2, 899705, Note_on_c, 0, 66, 55
2, 899716, Note_on_c, 0, 72, 75
2, 899736, Note_off_c, 0, 68, 64
2, 899785, Note_off_c, 0, 44, 64
2, 899882, Note_off_c, 0, 56, 64
2, 899882, Note_off_c, 0, 63, 64
2, 899883, Note_off_c, 0, 66, 64
2, 899901, Note_on_c, 0, 73, 75
2, 899904, Note_on_c, 0, 49, 65
2, 899915, Note_off_c, 0, 72, 64
2, 899915, Control_c, 0, 64, 0
2, 899938, Control_c, 0, 64, 127
2, 900082, Note_on_c, 0, 56, 44
2, 900085, Note_on_c, 0, 61, 50
2, 900089, Note_on_c, 0, 75, 73
2, 900092, Note_on_c, 0, 65, 31
2, 900108, Note_off_c, 0, 73, 64
2, 900115, Control_c, 0, 64, 0
2, 900137, Control_c, 0, 64, 127
2, 900190, Note_off_c, 0, 49, 64
2, 900230, Note_off_c, 0, 65, 64
2, 900247, Note_off_c, 0, 56, 64
2, 900250, Note_off_c, 0, 61, 64
2, 900265, Note_on_c, 0, 65, 48
2, 900271, Note_on_c, 0, 56, 56
2, 900272, Note_on_c, 0, 61, 56
2, 900353, Note_on_c, 0, 77, 59
2, 900368, Note_off_c, 0, 75, 64
2, 900427, Note_off_c, 0, 61, 64
2, 900433, Note_off_c, 0, 65, 64
2, 900449, Note_off_c, 0, 56, 64
2, 900454, Note_on_c, 0, 74, 71
2, 900458, Note_on_c, 0, 44, 44
2, 900484, Note_off_c, 0, 77, 64
2, 900489, Control_c, 0, 64, 0
2, 900503, Control_c, 0, 64, 127
2, 900536, Note_on_c, 0, 77, 63
2, 900558, Note_off_c, 0, 74, 64
2, 900611, Note_on_c, 0, 56, 48
2, 900616, Note_on_c, 0, 63, 39
2, 900618, Note_on_c, 0, 75, 71
2, 900621, Note_on_c, 0, 60, 40
2, 900628, Note_off_c, 0, 77, 64
2, 900638, Control_c, 0, 64, 0
2, 900673, Control_c, 0, 64, 127
2, 900753, Note_off_c, 0, 44, 64
2, 900774, Note_off_c, 0, 56, 64
2, 900779, Note_off_c, 0, 63, 64
2, 900784, Note_off_c, 0, 60, 64
2, 900859, Note_on_c, 0, 60, 33
2, 900860, Note_on_c, 0, 80, 55
2, 900863, Note_on_c, 0, 63, 28
2, 900882, Note_on_c, 0, 51, 16
2, 900884, Note_off_c, 0, 75, 64
2, 901148, Note_on_c, 0, 32, 65
2, 901152, Note_off_c, 0, 60, 64
2, 901156, Note_off_c, 0, 63, 64
2, 901166, Control_c, 0, 64, 0
2, 901175, Note_off_c, 0, 51, 64
2, 901202, Control_c, 0, 64, 127
2, 901361, Note_on_c, 0, 72, 63
2, 901368, Note_off_c, 0, 80, 64
2, 901369, Note_on_c, 0, 51, 41
2, 901377, Note_on_c, 0, 56, 55
2, 901377, Note_on_c, 0, 60, 47
2, 901397, Control_c, 0, 64, 0
2, 901421, Control_c, 0, 64, 127
2, 901532, Note_off_c, 0, 51, 64
2, 901540, Note_off_c, 0, 60, 64
2, 901540, Note_off_c, 0, 56, 64
2, 901570, Note_on_c, 0, 56, 48
2, 901573, Note_on_c, 0, 60, 57
2, 901575, Note_on_c, 0, 52, 39
2, 901629, Note_on_c, 0, 75, 56
2, 901669, Note_on_c, 0, 73, 58
2, 901675, Note_off_c, 0, 72, 64
2, 901695, Note_off_c, 0, 75, 64
2, 901738, Note_off_c, 0, 56, 64
2, 901745, Note_on_c, 0, 44, 56
2, 901751, Note_off_c, 0, 60, 64
2, 901757, Control_c, 0, 64, 0
2, 901762, Note_on_c, 0, 72, 67
2, 901769, Note_off_c, 0, 73, 64
2, 901784, Control_c, 0, 64, 127
2, 901792, Note_off_c, 0, 52, 64
2, 901835, Note_on_c, 0, 70, 73
2, 901850, Note_off_c, 0, 72, 64
2, 901870, Note_off_c, 0, 32, 64
2, 901904, Note_on_c, 0, 53, 50
2, 901905, Note_on_c, 0, 60, 49
2, 901908, Note_on_c, 0, 68, 67
2, 901921, Note_off_c, 0, 70, 64
2, 901940, Control_c, 0, 64, 0
2, 901963, Control_c, 0, 64, 127
2, 902067, Note_off_c, 0, 53, 64
2, 902068, Note_off_c, 0, 60, 64
2, 902104, Note_on_c, 0, 53, 28
2, 902104, Note_on_c, 0, 56, 26
2, 902108, Note_on_c, 0, 72, 66
2, 902111, Note_on_c, 0, 63, 54
2, 902114, Note_off_c, 0, 68, 64
2, 902186, Note_off_c, 0, 44, 64
2, 902282, Note_off_c, 0, 56, 64
2, 902282, Note_off_c, 0, 53, 64
2, 902289, Note_off_c, 0, 63, 64
2, 902320, Note_on_c, 0, 65, 63
2, 902323, Note_on_c, 0, 46, 58
2, 902334, Control_c, 0, 64, 0
2, 902339, Note_off_c, 0, 72, 64
2, 902380, Control_c, 0, 64, 127
2, 902521, Note_on_c, 0, 67, 73
2, 902526, Note_on_c, 0, 56, 40
2, 902527, Note_on_c, 0, 62, 36
2, 902552, Note_off_c, 0, 65, 64
2, 902555, Control_c, 0, 64, 0
2, 902577, Control_c, 0, 64, 127
2, 902646, Note_off_c, 0, 46, 64
2, 902682, Note_off_c, 0, 62, 64
2, 902686, Note_off_c, 0, 56, 64
2, 902736, Note_on_c, 0, 62, 42
2, 902744, Note_on_c, 0, 56, 40
2, 902821, Note_on_c, 0, 68, 57
2, 902848, Note_off_c, 0, 67, 64
2, 902946, Note_off_c, 0, 56, 64
2, 902955, Note_on_c, 0, 39, 62
2, 902956, Note_on_c, 0, 69, 58
2, 902976, Note_off_c, 0, 62, 64
2, 902987, Note_off_c, 0, 68, 64
2, 903046, Note_on_c, 0, 72, 50
2, 903059, Note_off_c, 0, 69, 64
2, 903128, Note_on_c, 0, 70, 62
2, 903128, Note_on_c, 0, 56, 44
2, 903131, Note_on_c, 0, 61, 29
2, 903136, Note_on_c, 0, 51, 2
2, 903152, Note_off_c, 0, 72, 64
2, 903155, Control_c, 0, 64, 0
2, 903187, Control_c, 0, 64, 127
2, 903214, Note_on_c, 0, 75, 55
2, 903233, Note_off_c, 0, 70, 64
2, 903235, Note_off_c, 0, 39, 64
2, 903284, Note_off_c, 0, 51, 64
2, 903296, Note_off_c, 0, 56, 64
2, 903331, Note_on_c, 0, 65, 54
2, 903333, Note_off_c, 0, 61, 64
2, 903336, Note_on_c, 0, 61, 26
2, 903341, Note_on_c, 0, 51, 35
2, 903341, Note_on_c, 0, 55, 42
2, 903357, Control_c, 0, 64, 0
2, 903364, Note_off_c, 0, 75, 64
2, 903384, Control_c, 0, 64, 127
2, 903560, Note_off_c, 0, 61, 64
2, 903565, Note_off_c, 0, 55, 64
2, 903565, Note_off_c, 0, 51, 64
2, 903588, Note_on_c, 0, 63, 47
2, 903590, Note_on_c, 0, 32, 62
2, 903604, Note_off_c, 0, 65, 64
2, 903609, Control_c, 0, 64, 0
2, 903652, Control_c, 0, 64, 127
2, 903846, Note_on_c, 0, 51, 39
2, 903854, Note_on_c, 0, 56, 39
2, 903862, Note_on_c, 0, 60, 44
2, 903901, Note_off_c, 0, 63, 64
2, 903901, Note_on_c, 0, 72, 71
2, 903906, Control_c, 0, 64, 0
2, 903918, Control_c, 0, 64, 127
2, 904006, Note_off_c, 0, 51, 64
2, 904024, Note_off_c, 0, 56, 64
2, 904032, Note_off_c, 0, 60, 64
2, 904080, Note_on_c, 0, 56, 35
2, 904083, Note_on_c, 0, 63, 44
2, 904087, Note_on_c, 0, 51, 35
2, 904164, Note_on_c, 0, 73, 65
2, 904193, Note_off_c, 0, 72, 64
2, 904196, Control_c, 0, 64, 0
2, 904266, Note_off_c, 0, 32, 64
2, 904277, Note_on_c, 0, 44, 57
2, 904295, Note_on_c, 0, 72, 66
2, 904314, Control_c, 0, 64, 0
2, 904322, Note_off_c, 0, 73, 64
2, 904329, Control_c, 0, 64, 127
2, 904365, Note_off_c, 0, 56, 64
2, 904368, Note_off_c, 0, 63, 64
2, 904368, Note_on_c, 0, 70, 54
2, 904372, Note_off_c, 0, 51, 64
2, 904385, Note_off_c, 0, 72, 64
2, 904432, Note_on_c, 0, 65, 44
2, 904432, Note_on_c, 0, 60, 44
2, 904438, Note_on_c, 0, 56, 33
2, 904453, Note_on_c, 0, 68, 71
2, 904454, Note_off_c, 0, 70, 64
2, 904476, Control_c, 0, 64, 0
2, 904511, Control_c, 0, 64, 127
2, 904595, Note_off_c, 0, 60, 64
2, 904595, Note_off_c, 0, 65, 64
2, 904601, Note_off_c, 0, 56, 64
2, 904644, Note_on_c, 0, 56, 40
2, 904649, Note_off_c, 0, 44, 64
2, 904651, Note_on_c, 0, 66, 23
2, 904655, Note_on_c, 0, 72, 66
2, 904663, Note_on_c, 0, 63, 44
2, 904666, Note_off_c, 0, 68, 64
2, 904671, Control_c, 0, 64, 0
2, 904686, Control_c, 0, 64, 127
2, 904810, Note_on_c, 0, 49, 57
2, 904815, Note_on_c, 0, 73, 66
2, 904822, Note_off_c, 0, 56, 64
2, 904829, Note_off_c, 0, 66, 64
2, 904836, Note_off_c, 0, 72, 64
2, 904841, Note_off_c, 0, 63, 64
2, 904846, Control_c, 0, 64, 0
2, 904859, Control_c, 0, 64, 127
2, 904981, Note_on_c, 0, 61, 52
2, 904982, Note_on_c, 0, 56, 21
2, 904982, Note_on_c, 0, 65, 28
2, 904982, Note_on_c, 0, 75, 56
2, 905005, Control_c, 0, 64, 0
2, 905011, Note_off_c, 0, 73, 64
2, 905033, Control_c, 0, 64, 127
2, 905144, Note_off_c, 0, 61, 64
2, 905145, Note_off_c, 0, 65, 64
2, 905145, Note_off_c, 0, 56, 64
2, 905184, Note_on_c, 0, 56, 49
2, 905184, Note_on_c, 0, 65, 37
2, 905191, Note_on_c, 0, 61, 37
2, 905202, Note_off_c, 0, 49, 64
2, 905275, Note_on_c, 0, 77, 56
2, 905278, Note_off_c, 0, 75, 64
2, 905368, Note_on_c, 0, 44, 57
2, 905383, Note_on_c, 0, 74, 56
2, 905397, Control_c, 0, 64, 0
2, 905410, Control_c, 0, 64, 127
2, 905412, Note_off_c, 0, 77, 64
2, 905457, Note_on_c, 0, 77, 57
2, 905469, Note_off_c, 0, 65, 64
2, 905476, Note_off_c, 0, 61, 64
2, 905489, Note_off_c, 0, 74, 64
2, 905494, Note_off_c, 0, 56, 64
2, 905534, Note_on_c, 0, 63, 48
2, 905536, Note_on_c, 0, 75, 66
2, 905536, Note_on_c, 0, 56, 50
2, 905542, Note_on_c, 0, 60, 50
2, 905549, Note_off_c, 0, 77, 64
2, 905557, Control_c, 0, 64, 0
2, 905580, Control_c, 0, 64, 127
2, 905745, Note_off_c, 0, 63, 64
2, 905753, Note_off_c, 0, 56, 64
2, 905756, Note_off_c, 0, 44, 64
2, 905759, Note_off_c, 0, 60, 64
2, 905768, Note_on_c, 0, 60, 48
2, 905769, Note_on_c, 0, 63, 36
2, 905776, Note_on_c, 0, 51, 47
2, 905784, Note_on_c, 0, 84, 83
2, 905803, Note_off_c, 0, 75, 64
2, 905893, Control_c, 0, 64, 0
2, 905988, Note_on_c, 0, 43, 59
2, 906009, Control_c, 0, 64, 0
2, 906047, Control_c, 0, 64, 127
2, 906061, Note_off_c, 0, 60, 64
2, 906062, Note_off_c, 0, 63, 64
2, 906069, Note_off_c, 0, 51, 64
2, 906169, Note_off_c, 0, 84, 64
2, 906192, Note_on_c, 0, 58, 40
2, 906196, Note_on_c, 0, 72, 66
2, 906205, Note_on_c, 0, 60, 32
2, 906205, Note_on_c, 0, 64, 44
2, 906228, Control_c, 0, 64, 0
2, 906274, Control_c, 0, 64, 127
2, 906382, Note_off_c, 0, 43, 64
2, 906410, Note_on_c, 0, 75, 56
2, 906411, Note_off_c, 0, 60, 64
2, 906419, Note_off_c, 0, 58, 64
2, 906424, Note_off_c, 0, 64, 64
2, 906432, Note_on_c, 0, 60, 24
2, 906433, Note_on_c, 0, 58, 47
2, 906435, Note_on_c, 0, 73, 66
2, 906435, Note_on_c, 0, 64, 32
2, 906457, Note_off_c, 0, 75, 64
2, 906470, Note_off_c, 0, 72, 64
2, 906612, Note_on_c, 0, 72, 66
2, 906621, Note_off_c, 0, 73, 64
2, 906644, Note_off_c, 0, 72, 64
2, 906673, Note_on_c, 0, 72, 66
2, 906678, Note_on_c, 0, 41, 58
2, 906692, Control_c, 0, 64, 0
2, 906725, Note_off_c, 0, 60, 64
2, 906725, Control_c, 0, 64, 127
2, 906726, Note_off_c, 0, 58, 64
2, 906728, Note_off_c, 0, 64, 64
2, 906831, Note_on_c, 0, 70, 52
2, 906840, Note_off_c, 0, 72, 64
2, 906865, Note_on_c, 0, 65, 36
2, 906872, Note_on_c, 0, 56, 36
2, 906876, Note_on_c, 0, 60, 36
2, 906885, Note_on_c, 0, 68, 65
2, 906903, Control_c, 0, 64, 0
2, 906911, Note_off_c, 0, 70, 64
2, 906926, Control_c, 0, 64, 127
2, 906957, Note_off_c, 0, 41, 64
2, 907011, Note_off_c, 0, 65, 64
2, 907012, Note_off_c, 0, 56, 64
2, 907016, Note_off_c, 0, 60, 64
2, 907056, Note_on_c, 0, 62, 36
2, 907068, Note_on_c, 0, 53, 44
2, 907069, Note_on_c, 0, 56, 47
2, 907069, Note_on_c, 0, 72, 66
2, 907075, Note_off_c, 0, 68, 64
2, 907191, Control_c, 0, 64, 0
2, 907263, Note_on_c, 0, 67, 59
2, 907271, Note_on_c, 0, 43, 64
2, 907273, Note_off_c, 0, 72, 64
2, 907290, Control_c, 0, 64, 0
2, 907324, Control_c, 0, 64, 127
2, 907349, Note_off_c, 0, 62, 64
2, 907361, Note_off_c, 0, 53, 64
2, 907362, Note_off_c, 0, 56, 64
2, 907444, Note_off_c, 0, 67, 64
2, 907456, Note_on_c, 0, 60, 39
2, 907462, Note_on_c, 0, 67, 44
2, 907467, Note_on_c, 0, 55, 29
2, 907468, Note_on_c, 0, 75, 62
2, 907500, Control_c, 0, 64, 0
2, 907532, Control_c, 0, 64, 127
2, 907559, Note_off_c, 0, 43, 64
2, 907619, Note_off_c, 0, 60, 64
2, 907625, Note_off_c, 0, 67, 64
2, 907630, Note_off_c, 0, 55, 64
2, 907641, Note_on_c, 0, 65, 42
2, 907644, Note_on_c, 0, 62, 42
2, 907649, Note_on_c, 0, 55, 39
2, 907723, Note_on_c, 0, 71, 65
2, 907736, Note_off_c, 0, 75, 64
2, 907827, Control_c, 0, 64, 0
2, 907844, Note_on_c, 0, 48, 62
2, 907844, Note_on_c, 0, 72, 57
2, 907851, Control_c, 0, 64, 0
2, 907860, Control_c, 0, 64, 127
2, 907865, Note_off_c, 0, 71, 64
2, 907884, Control_c, 0, 64, 127
2, 907905, Note_off_c, 0, 65, 64
2, 907916, Note_off_c, 0, 62, 64
2, 907929, Note_on_c, 0, 80, 42
2, 907942, Note_off_c, 0, 55, 64
2, 907946, Note_off_c, 0, 72, 64
2, 908014, Note_on_c, 0, 79, 59
2, 908016, Note_on_c, 0, 60, 23
2, 908021, Note_on_c, 0, 51, 36
2, 908024, Note_off_c, 0, 80, 64
2, 908028, Note_on_c, 0, 63, 23
2, 908051, Control_c, 0, 64, 0
2, 908084, Control_c, 0, 64, 127
2, 908130, Note_off_c, 0, 48, 64
2, 908190, Note_off_c, 0, 51, 64
2, 908217, Note_off_c, 0, 60, 64
2, 908229, Note_off_c, 0, 63, 64
2, 908253, Note_off_c, 0, 79, 64
2, 908254, Note_on_c, 0, 68, 65
2, 908260, Note_on_c, 0, 63, 29
2, 908260, Note_on_c, 0, 60, 32
2, 908265, Note_on_c, 0, 53, 29
2, 908280, Control_c, 0, 64, 0
2, 908293, Control_c, 0, 64, 127
2, 908382, Control_c, 0, 64, 0
2, 908436, Note_off_c, 0, 53, 64
2, 908436, Note_off_c, 0, 60, 64
2, 908436, Note_off_c, 0, 63, 64
2, 908436, Note_on_c, 0, 43, 58
2, 908445, Note_on_c, 0, 67, 62
2, 908464, Note_off_c, 0, 68, 64
2, 908466, Control_c, 0, 64, 0
2, 908495, Control_c, 0, 64, 127
2, 908628, Note_off_c, 0, 67, 64
2, 908639, Note_on_c, 0, 75, 58
2, 908644, Note_on_c, 0, 60, 37
2, 908644, Note_on_c, 0, 55, 37
2, 908654, Note_on_c, 0, 67, 40
2, 908674, Control_c, 0, 64, 0
2, 908708, Control_c, 0, 64, 127
2, 908738, Note_off_c, 0, 43, 64
2, 908754, Note_off_c, 0, 67, 64
2, 908769, Note_off_c, 0, 55, 64
2, 908769, Note_off_c, 0, 60, 64
2, 908818, Note_on_c, 0, 65, 40
2, 908822, Note_on_c, 0, 62, 39
2, 908836, Note_on_c, 0, 55, 40
2, 908926, Note_on_c, 0, 71, 62
2, 908951, Note_off_c, 0, 75, 64
2, 909022, Note_off_c, 0, 55, 64
2, 909028, Note_on_c, 0, 48, 62
2, 909035, Note_off_c, 0, 65, 64
2, 909039, Note_off_c, 0, 62, 64
2, 909049, Control_c, 0, 64, 0
2, 909072, Note_on_c, 0, 72, 55
2, 909075, Control_c, 0, 64, 127
2, 909097, Note_off_c, 0, 71, 64
2, 909184, Note_on_c, 0, 82, 64
2, 909216, Note_on_c, 0, 80, 58
2, 909246, Note_off_c, 0, 82, 64
2, 909300, Note_on_c, 0, 60, 14
2, 909300, Note_on_c, 0, 51, 37
2, 909304, Note_on_c, 0, 79, 66
2, 909307, Note_on_c, 0, 63, 19
2, 909312, Note_off_c, 0, 48, 64
2, 909313, Note_off_c, 0, 72, 64
2, 909324, Control_c, 0, 64, 0
2, 909334, Note_off_c, 0, 80, 64
2, 909352, Control_c, 0, 64, 127
2, 909456, Note_off_c, 0, 63, 64
2, 909456, Note_off_c, 0, 51, 64
2, 909456, Note_off_c, 0, 60, 64
2, 909480, Note_on_c, 0, 53, 20
2, 909482, Note_on_c, 0, 63, 27
2, 909489, Note_on_c, 0, 60, 29
2, 909496, Note_on_c, 0, 68, 64
2, 909522, Note_off_c, 0, 79, 64
2, 909534, Control_c, 0, 64, 0
2, 909557, Control_c, 0, 64, 127
2, 909664, Note_off_c, 0, 53, 64
2, 909676, Note_off_c, 0, 63, 64
2, 909690, Note_off_c, 0, 60, 64
2, 909694, Note_on_c, 0, 67, 66
2, 909701, Note_on_c, 0, 43, 57
2, 909708, Note_off_c, 0, 68, 64
2, 909730, Control_c, 0, 64, 0
2, 909754, Control_c, 0, 64, 127
2, 909869, Note_off_c, 0, 67, 64
2, 909872, Note_on_c, 0, 55, 36
2, 909875, Note_on_c, 0, 60, 33
2, 909877, Note_on_c, 0, 75, 66
2, 909882, Note_on_c, 0, 67, 47
2, 909910, Control_c, 0, 64, 0
2, 909948, Control_c, 0, 64, 127
2, 909986, Note_off_c, 0, 43, 64
2, 909999, Note_off_c, 0, 55, 64
2, 910002, Note_off_c, 0, 60, 64
2, 910009, Note_off_c, 0, 67, 64
2, 910041, Note_on_c, 0, 65, 39
2, 910046, Note_on_c, 0, 55, 40
2, 910050, Note_on_c, 0, 62, 40
2, 910112, Note_on_c, 0, 71, 66
2, 910131, Note_off_c, 0, 75, 64
2, 910205, Note_off_c, 0, 62, 64
2, 910219, Note_off_c, 0, 55, 64
2, 910222, Note_off_c, 0, 65, 64
2, 910243, Note_on_c, 0, 48, 58
2, 910245, Note_on_c, 0, 74, 65
2, 910257, Note_off_c, 0, 71, 64
2, 910282, Control_c, 0, 64, 0
2, 910306, Control_c, 0, 64, 127
2, 910333, Note_on_c, 0, 72, 59
2, 910347, Note_off_c, 0, 74, 64
2, 910477, Note_on_c, 0, 84, 75
2, 910488, Note_on_c, 0, 63, 37
2, 910490, Note_on_c, 0, 55, 41
2, 910510, Note_off_c, 0, 72, 64
2, 910541, Control_c, 0, 64, 0
2, 910585, Control_c, 0, 64, 127
2, 910654, Note_off_c, 0, 48, 64
2, 910674, Note_off_c, 0, 55, 64
2, 910676, Note_off_c, 0, 63, 64
2, 910735, Note_on_c, 0, 80, 57
2, 910765, Note_off_c, 0, 84, 64
2, 910781, Control_c, 0, 64, 0
2, 910803, Control_c, 0, 64, 127
2, 910834, Note_on_c, 0, 77, 58
2, 910843, Note_off_c, 0, 80, 64
2, 910924, Note_on_c, 0, 79, 58
2, 910952, Note_off_c, 0, 77, 64
2, 911007, Note_on_c, 0, 74, 59
2, 911015, Control_c, 0, 64, 0
2, 911056, Note_off_c, 0, 79, 64
2, 911105, Note_on_c, 0, 75, 56
2, 911115, Control_c, 0, 64, 127
2, 911128, Note_off_c, 0, 74, 64
2, 911181, Note_on_c, 0, 71, 52
2, 911207, Note_off_c, 0, 75, 64
2, 911256, Note_on_c, 0, 72, 69
2, 911281, Note_off_c, 0, 71, 64
2, 911347, Note_on_c, 0, 67, 59
2, 911377, Note_off_c, 0, 72, 64
2, 911380, Control_c, 0, 64, 0
2, 911432, Note_on_c, 0, 68, 72
2, 911455, Note_off_c, 0, 67, 64
2, 911479, Control_c, 0, 64, 127
2, 911512, Note_on_c, 0, 65, 66
2, 911542, Note_off_c, 0, 68, 64
2, 911599, Note_on_c, 0, 67, 77
2, 911606, Note_off_c, 0, 65, 64
2, 911666, Control_c, 0, 64, 0
2, 911681, Control_c, 0, 64, 127
2, 911698, Note_on_c, 0, 62, 75
2, 911715, Note_off_c, 0, 67, 64
2, 911795, Note_on_c, 0, 65, 77
2, 911803, Note_off_c, 0, 62, 64
2, 911814, Control_c, 0, 64, 0
2, 911897, Note_on_c, 0, 64, 77
2, 911911, Note_off_c, 0, 65, 64
2, 912038, Note_on_c, 0, 63, 67
2, 912049, Note_on_c, 0, 32, 62
2, 912065, Note_on_c, 0, 44, 42
2, 912068, Note_off_c, 0, 64, 64
2, 912080, Control_c, 0, 64, 127
2, 912225, Note_off_c, 0, 63, 64
2, 912306, Note_on_c, 0, 51, 37
2, 912314, Note_on_c, 0, 56, 36
2, 912317, Note_on_c, 0, 72, 90
2, 912322, Note_on_c, 0, 60, 42
2, 912323, Note_on_c, 0, 63, 82
2, 912360, Control_c, 0, 64, 0
2, 912374, Note_off_c, 0, 32, 64
2, 912375, Control_c, 0, 64, 127
2, 912379, Note_off_c, 0, 44, 64
2, 912472, Note_off_c, 0, 51, 64
2, 912485, Note_off_c, 0, 60, 64
2, 912505, Note_off_c, 0, 56, 64
2, 912529, Note_on_c, 0, 56, 49
2, 912535, Note_on_c, 0, 60, 48
2, 912538, Note_on_c, 0, 51, 44
2, 912616, Note_on_c, 0, 73, 77
2, 912624, Note_on_c, 0, 65, 64
2, 912627, Note_off_c, 0, 72, 64
2, 912633, Note_off_c, 0, 63, 64
2, 912637, Note_off_c, 0, 56, 64
2, 912643, Note_off_c, 0, 60, 64
2, 912646, Note_off_c, 0, 51, 64
2, 912747, Note_on_c, 0, 72, 79
2, 912749, Note_on_c, 0, 63, 67
2, 912755, Note_on_c, 0, 44, 49
2, 912756, Note_on_c, 0, 56, 50
2, 912760, Note_off_c, 0, 73, 64
2, 912768, Note_off_c, 0, 65, 64
2, 912769, Control_c, 0, 64, 0
2, 912792, Control_c, 0, 64, 127
2, 912856, Note_on_c, 0, 70, 62
2, 912856, Note_on_c, 0, 61, 57
2, 912864, Note_off_c, 0, 72, 64
2, 912866, Note_off_c, 0, 63, 64
2, 912907, Note_off_c, 0, 56, 64
2, 912936, Note_on_c, 0, 68, 74
2, 912936, Note_on_c, 0, 60, 71
2, 912943, Note_off_c, 0, 61, 64
2, 912943, Note_off_c, 0, 70, 64
2, 912944, Note_on_c, 0, 51, 36
2, 912944, Note_on_c, 0, 63, 62
2, 912955, Note_on_c, 0, 56, 31
2, 912967, Control_c, 0, 64, 0
2, 913003, Control_c, 0, 64, 127
2, 913038, Note_off_c, 0, 44, 64
2, 913058, Note_off_c, 0, 63, 64
2, 913058, Note_off_c, 0, 51, 64
2, 913069, Note_off_c, 0, 56, 64
2, 913140, Note_on_c, 0, 72, 77
2, 913142, Note_on_c, 0, 66, 56
2, 913144, Note_on_c, 0, 63, 55
2, 913144, Note_on_c, 0, 56, 44
2, 913147, Note_on_c, 0, 51, 44
2, 913155, Note_off_c, 0, 60, 64
2, 913155, Note_off_c, 0, 68, 64
2, 913255, Control_c, 0, 64, 0
2, 913291, Control_c, 0, 64, 127
2, 913331, Note_off_c, 0, 56, 64
2, 913334, Note_off_c, 0, 51, 64
2, 913342, Note_off_c, 0, 66, 64
2, 913368, Note_on_c, 0, 65, 66
2, 913375, Note_on_c, 0, 37, 50
2, 913375, Note_on_c, 0, 73, 73
2, 913379, Note_off_c, 0, 72, 64
2, 913381, Note_on_c, 0, 49, 44
2, 913383, Note_off_c, 0, 63, 64
2, 913398, Control_c, 0, 64, 0
2, 913432, Control_c, 0, 64, 127
2, 913563, Note_off_c, 0, 65, 64
2, 913577, Note_on_c, 0, 53, 41
2, 913579, Note_on_c, 0, 75, 74
2, 913580, Note_on_c, 0, 61, 1
2, 913580, Note_on_c, 0, 65, 31
2, 913582, Note_on_c, 0, 68, 72
2, 913606, Note_off_c, 0, 73, 64
2, 913609, Control_c, 0, 64, 0
2, 913654, Control_c, 0, 64, 127
2, 913659, Note_off_c, 0, 37, 64
2, 913678, Note_off_c, 0, 49, 64
2, 913698, Note_off_c, 0, 53, 64
2, 913701, Note_off_c, 0, 65, 64
2, 913701, Note_off_c, 0, 61, 64
2, 913749, Note_on_c, 0, 65, 46
2, 913753, Note_on_c, 0, 61, 47
2, 913760, Note_on_c, 0, 56, 36
2, 913856, Note_off_c, 0, 68, 64
2, 913856, Note_on_c, 0, 73, 71
2, 913856, Note_on_c, 0, 77, 62
2, 913873, Note_off_c, 0, 75, 64
2, 913895, Note_off_c, 0, 65, 64
2, 913921, Note_off_c, 0, 61, 64
2, 913928, Note_off_c, 0, 56, 64
2, 913958, Note_on_c, 0, 44, 48
2, 913960, Note_on_c, 0, 32, 57
2, 913967, Note_on_c, 0, 74, 72
2, 913967, Note_on_c, 0, 71, 57
2, 913981, Note_off_c, 0, 77, 64
2, 913981, Note_off_c, 0, 73, 64
2, 914045, Note_on_c, 0, 77, 72
2, 914049, Note_on_c, 0, 73, 81
2, 914064, Note_off_c, 0, 71, 64
2, 914064, Note_off_c, 0, 74, 64
2, 914136, Note_on_c, 0, 72, 67
2, 914139, Note_on_c, 0, 75, 74
2, 914144, Note_on_c, 0, 60, 33
2, 914144, Note_on_c, 0, 51, 32
2, 914148, Note_on_c, 0, 63, 47
2, 914148, Note_on_c, 0, 56, 33
2, 914151, Note_off_c, 0, 77, 64
2, 914155, Note_off_c, 0, 73, 64
2, 914171, Control_c, 0, 64, 0
2, 914204, Control_c, 0, 64, 127
2, 914241, Note_off_c, 0, 44, 64
2, 914243, Note_off_c, 0, 32, 64
2, 914299, Control_c, 0, 64, 0
2, 914337, Note_off_c, 0, 63, 64
2, 914337, Note_off_c, 0, 51, 64
2, 914337, Note_off_c, 0, 60, 64
2, 914341, Note_off_c, 0, 56, 64
2, 914361, Note_on_c, 0, 80, 74
2, 914368, Note_on_c, 0, 56, 29
2, 914372, Note_on_c, 0, 68, 66
2, 914372, Note_on_c, 0, 63, 28
2, 914372, Note_on_c, 0, 60, 28
2, 914375, Note_off_c, 0, 72, 64
2, 914375, Note_on_c, 0, 51, 29
2, 914378, Note_off_c, 0, 75, 64
2, 914496, Control_c, 0, 64, 0
2, 914546, Note_off_c, 0, 56, 64
2, 914550, Note_off_c, 0, 60, 64
2, 914550, Note_off_c, 0, 63, 64
2, 914553, Note_off_c, 0, 51, 64
2, 914559, Note_on_c, 0, 44, 49
2, 914584, Control_c, 0, 64, 0
2, 914592, Note_off_c, 0, 80, 64
2, 914603, Note_off_c, 0, 68, 64
2, 914607, Control_c, 0, 64, 127
2, 914671, Control_c, 0, 64, 0
2, 914687, Control_c, 0, 64, 0
2, 914752, Note_on_c, 0, 51, 21
2, 914752, Note_on_c, 0, 60, 28
2, 914756, Note_on_c, 0, 63, 62
2, 914761, Note_on_c, 0, 72, 73
2, 914774, Note_off_c, 0, 44, 64
2, 914789, Control_c, 0, 64, 0
2, 914803, Control_c, 0, 64, 127
2, 914918, Note_off_c, 0, 60, 64
2, 914918, Note_off_c, 0, 51, 64
2, 914954, Note_on_c, 0, 64, 55
2, 914960, Note_on_c, 0, 43, 44
2, 914961, Note_off_c, 0, 63, 64
2, 914976, Control_c, 0, 64, 0
2, 914991, Control_c, 0, 64, 127
2, 915037, Note_on_c, 0, 75, 72
2, 915066, Note_on_c, 0, 73, 54
2, 915068, Note_on_c, 0, 70, 41
2, 915074, Note_off_c, 0, 72, 64
2, 915095, Note_off_c, 0, 64, 64
2, 915099, Note_off_c, 0, 75, 64
2, 915156, Note_on_c, 0, 72, 62
2, 915163, Note_on_c, 0, 64, 62
2, 915164, Note_on_c, 0, 58, 40
2, 915168, Note_on_c, 0, 55, 18
2, 915168, Note_on_c, 0, 48, 18
2, 915174, Note_off_c, 0, 73, 64
2, 915175, Note_off_c, 0, 43, 64
2, 915176, Note_off_c, 0, 70, 64
2, 915257, Note_on_c, 0, 70, 72
2, 915264, Note_on_c, 0, 60, 48
2, 915265, Note_off_c, 0, 64, 64
2, 915274, Note_off_c, 0, 72, 64
2, 915330, Note_off_c, 0, 58, 64
2, 915334, Note_off_c, 0, 48, 64
2, 915334, Note_off_c, 0, 55, 64
2, 915360, Note_on_c, 0, 65, 54
2, 915362, Note_on_c, 0, 68, 74
2, 915369, Note_off_c, 0, 70, 64
2, 915373, Note_on_c, 0, 41, 44
2, 915376, Note_off_c, 0, 60, 64
2, 915408, Control_c, 0, 64, 0
2, 915441, Control_c, 0, 64, 127
2, 915565, Note_on_c, 0, 63, 64
2, 915567, Note_on_c, 0, 72, 71
2, 915573, Note_on_c, 0, 53, 32
2, 915575, Note_off_c, 0, 65, 64
2, 915577, Note_off_c, 0, 68, 64
2, 915577, Note_on_c, 0, 56, 36
2, 915596, Control_c, 0, 64, 0
2, 915618, Note_off_c, 0, 41, 64
2, 915625, Control_c, 0, 64, 127
2, 915713, Note_off_c, 0, 63, 64
2, 915739, Note_off_c, 0, 53, 64
2, 915743, Note_off_c, 0, 56, 64
2, 915768, Note_on_c, 0, 34, 40
2, 915770, Note_on_c, 0, 65, 64
2, 915777, Note_on_c, 0, 63, 57
2, 915779, Note_on_c, 0, 46, 40
2, 915782, Note_off_c, 0, 72, 64
2, 915808, Control_c, 0, 64, 0
2, 915852, Control_c, 0, 64, 127
2, 915953, Note_off_c, 0, 63, 64
2, 915981, Note_on_c, 0, 67, 66
2, 915992, Note_on_c, 0, 62, 41
2, 916002, Note_off_c, 0, 46, 64
2, 916002, Note_on_c, 0, 56, 21
2, 916004, Note_on_c, 0, 53, 36
2, 916008, Note_on_c, 0, 46, 21
2, 916011, Control_c, 0, 64, 0
2, 916025, Note_off_c, 0, 65, 64
2, 916041, Control_c, 0, 64, 127
2, 916116, Note_off_c, 0, 34, 64
2, 916168, Note_off_c, 0, 56, 64
2, 916170, Note_off_c, 0, 53, 64
2, 916174, Note_off_c, 0, 46, 64
2, 916174, Note_off_c, 0, 62, 64
2, 916178, Note_on_c, 0, 62, 62
2, 916180, Note_on_c, 0, 53, 21
2, 916181, Note_on_c, 0, 56, 42
2, 916186, Note_on_c, 0, 46, 48
2, 916231, Note_off_c, 0, 53, 64
2, 916232, Note_off_c, 0, 56, 64
2, 916237, Note_off_c, 0, 46, 64
2, 916270, Note_on_c, 0, 68, 72
2, 916301, Note_off_c, 0, 67, 64
2, 916374, Note_on_c, 0, 39, 48
2, 916383, Note_on_c, 0, 69, 73
2, 916389, Note_off_c, 0, 68, 64
2, 916413, Control_c, 0, 64, 0
2, 916426, Control_c, 0, 64, 127
2, 916482, Note_on_c, 0, 72, 57
2, 916505, Note_off_c, 0, 62, 64
2, 916510, Note_off_c, 0, 69, 64
2, 916587, Note_on_c, 0, 70, 81
2, 916593, Note_on_c, 0, 61, 67
2, 916594, Note_off_c, 0, 72, 64
2, 916596, Note_on_c, 0, 51, 47
2, 916600, Note_on_c, 0, 56, 19
2, 916624, Control_c, 0, 64, 0
2, 916638, Control_c, 0, 64, 127
2, 916676, Note_off_c, 0, 39, 64
2, 916695, Note_on_c, 0, 75, 82
2, 916703, Note_off_c, 0, 70, 64
2, 916710, Note_off_c, 0, 51, 64
2, 916714, Note_off_c, 0, 56, 64
2, 916768, Note_off_c, 0, 61, 64
2, 916820, Note_on_c, 0, 65, 77
2, 916824, Note_on_c, 0, 61, 73
2, 916828, Note_on_c, 0, 51, 54
2, 916832, Note_on_c, 0, 55, 46
2, 916838, Note_off_c, 0, 75, 64
2, 916862, Control_c, 0, 64, 0
2, 916885, Control_c, 0, 64, 127
2, 916989, Note_off_c, 0, 61, 64
2, 916994, Note_off_c, 0, 51, 64
2, 916998, Note_off_c, 0, 55, 64
2, 917068, Note_on_c, 0, 63, 81
2, 917068, Note_on_c, 0, 32, 77
2, 917072, Note_on_c, 0, 61, 75
2, 917079, Note_on_c, 0, 44, 64
2, 917095, Note_off_c, 0, 65, 64
2, 917097, Control_c, 0, 64, 0
2, 917100, Control_c, 0, 64, 0
2, 917131, Control_c, 0, 64, 127
2, 917295, Note_off_c, 0, 63, 64
2, 917299, Note_off_c, 0, 61, 64
2, 917304, Note_on_c, 0, 63, 66
2, 917305, Note_on_c, 0, 72, 94
2, 917305, Note_on_c, 0, 60, 75
2, 917310, Note_on_c, 0, 56, 66
2, 917314, Note_on_c, 0, 51, 56
2, 917320, Control_c, 0, 64, 0
2, 917375, Note_off_c, 0, 32, 64
2, 917386, Note_off_c, 0, 44, 64
2, 917392, Note_off_c, 0, 51, 64
2, 917392, Control_c, 0, 64, 127
2, 917396, Note_off_c, 0, 63, 64
2, 917402, Note_off_c, 0, 56, 64
2, 917472, Note_off_c, 0, 60, 64
2, 917533, Note_on_c, 0, 63, 66
2, 917533, Note_on_c, 0, 51, 59
2, 917536, Note_on_c, 0, 56, 65
2, 917543, Note_on_c, 0, 60, 75
2, 917580, Note_off_c, 0, 51, 64
2, 917580, Note_off_c, 0, 63, 64
2, 917583, Note_off_c, 0, 56, 64
2, 917630, Note_on_c, 0, 73, 88
2, 917634, Note_on_c, 0, 65, 73
2, 917645, Note_off_c, 0, 60, 64
2, 917651, Note_off_c, 0, 72, 64
2, 917736, Note_on_c, 0, 63, 81
2, 917740, Note_on_c, 0, 72, 93
2, 917752, Note_on_c, 0, 44, 74
2, 917752, Note_on_c, 0, 56, 59
2, 917757, Note_off_c, 0, 73, 64
2, 917761, Note_off_c, 0, 65, 64
2, 917769, Control_c, 0, 64, 0
2, 917795, Control_c, 0, 64, 127
2, 917865, Note_on_c, 0, 70, 73
2, 917869, Note_off_c, 0, 63, 64
2, 917872, Note_on_c, 0, 61, 74
2, 917873, Note_off_c, 0, 72, 64
2, 917905, Note_off_c, 0, 56, 64
2, 917911, Note_on_c, 0, 68, 93
2, 917916, Note_on_c, 0, 60, 74
2, 917916, Note_on_c, 0, 56, 59
2, 917916, Note_on_c, 0, 51, 48
2, 917920, Note_on_c, 0, 63, 66
2, 917925, Note_off_c, 0, 70, 64
2, 917932, Note_off_c, 0, 61, 64
2, 917939, Control_c, 0, 64, 0
2, 917984, Control_c, 0, 64, 127
2, 918008, Note_off_c, 0, 51, 64
2, 918008, Note_off_c, 0, 56, 64
2, 918012, Note_off_c, 0, 63, 64
2, 918028, Note_off_c, 0, 44, 64
2, 918112, Note_on_c, 0, 56, 40
2, 918114, Note_on_c, 0, 72, 93
2, 918114, Note_on_c, 0, 51, 65
2, 918117, Note_on_c, 0, 66, 71
2, 918118, Note_on_c, 0, 63, 40
2, 918127, Note_off_c, 0, 68, 64
2, 918132, Note_off_c, 0, 60, 64
2, 918216, Control_c, 0, 64, 0
2, 918224, Note_off_c, 0, 56, 64
2, 918226, Note_off_c, 0, 51, 64
2, 918230, Note_off_c, 0, 63, 64
2, 918319, Note_on_c, 0, 65, 75
2, 918319, Note_on_c, 0, 73, 75
2, 918327, Note_on_c, 0, 37, 82
2, 918327, Note_on_c, 0, 49, 67
2, 918333, Control_c, 0, 64, 0
2, 918336, Note_off_c, 0, 72, 64
2, 918339, Note_off_c, 0, 66, 64
2, 918382, Control_c, 0, 64, 127
2, 918489, Note_off_c, 0, 65, 64
2, 918518, Note_on_c, 0, 75, 77
2, 918522, Note_on_c, 0, 68, 83
2, 918522, Note_on_c, 0, 65, 66
2, 918524, Note_off_c, 0, 73, 64
2, 918527, Note_on_c, 0, 56, 47
2, 918531, Note_on_c, 0, 61, 64
2, 918547, Control_c, 0, 64, 0
2, 918581, Control_c, 0, 64, 127
2, 918590, Note_off_c, 0, 56, 64
2, 918597, Note_off_c, 0, 65, 64
2, 918599, Note_off_c, 0, 61, 64
2, 918602, Note_off_c, 0, 37, 64
2, 918613, Note_off_c, 0, 49, 64
2, 918691, Note_on_c, 0, 65, 63
2, 918695, Note_on_c, 0, 56, 64
2, 918695, Note_on_c, 0, 61, 65
2, 918724, Note_off_c, 0, 65, 64
2, 918732, Note_off_c, 0, 61, 64
2, 918740, Note_off_c, 0, 56, 64
2, 918789, Note_on_c, 0, 73, 65
2, 918795, Note_on_c, 0, 77, 74
2, 918804, Note_off_c, 0, 75, 64
2, 918808, Note_off_c, 0, 68, 64
2, 918884, Note_on_c, 0, 32, 75
2, 918888, Note_on_c, 0, 44, 75
2, 918894, Note_on_c, 0, 71, 75
2, 918897, Note_on_c, 0, 74, 72
2, 918906, Note_off_c, 0, 73, 64
2, 918912, Note_off_c, 0, 77, 64
2, 919007, Note_on_c, 0, 73, 81
2, 919008, Note_on_c, 0, 77, 75
2, 919019, Note_off_c, 0, 71, 64
2, 919022, Note_off_c, 0, 74, 64
2, 919064, Note_on_c, 0, 72, 81
2, 919068, Note_on_c, 0, 75, 92
2, 919080, Note_on_c, 0, 56, 59
2, 919080, Note_on_c, 0, 51, 59
2, 919084, Note_on_c, 0, 63, 75
2, 919088, Note_off_c, 0, 73, 64
2, 919089, Note_off_c, 0, 77, 64
2, 919090, Control_c, 0, 64, 0
2, 919136, Note_off_c, 0, 51, 64
2, 919136, Note_off_c, 0, 56, 64
2, 919136, Control_c, 0, 64, 127
2, 919164, Note_off_c, 0, 63, 64
2, 919201, Note_on_c, 0, 51, 74
2, 919228, Note_on_c, 0, 56, 75
2, 919256, Note_on_c, 0, 60, 57
2, 919283, Note_on_c, 0, 68, 81
2, 919300, Note_on_c, 0, 80, 73
2, 919303, Note_on_c, 0, 84, 93
2, 919314, Note_off_c, 0, 72, 64
2, 919318, Note_off_c, 0, 75, 64
2, 919360, Note_off_c, 0, 32, 64
2, 919364, Note_off_c, 0, 44, 64
2, 919450, Control_c, 0, 64, 0
2, 919504, Note_on_c, 0, 31, 83
2, 919504, Note_on_c, 0, 43, 83
2, 919527, Control_c, 0, 64, 0
2, 919536, Note_off_c, 0, 60, 64
2, 919539, Note_off_c, 0, 56, 64
2, 919556, Note_off_c, 0, 51, 64
2, 919560, Control_c, 0, 64, 127
2, 919599, Control_c, 0, 64, 0
2, 919614, Note_off_c, 0, 68, 64
2, 919662, Note_off_c, 0, 80, 64
2, 919665, Note_off_c, 0, 84, 64
2, 919684, Note_on_c, 0, 60, 55
2, 919684, Note_on_c, 0, 55, 58
2, 919687, Note_on_c, 0, 58, 50
2, 919695, Note_on_c, 0, 64, 70
2, 919696, Note_on_c, 0, 72, 77
2, 919722, Control_c, 0, 64, 0
2, 919733, Control_c, 0, 64, 127
2, 919790, Note_off_c, 0, 55, 64
2, 919790, Note_off_c, 0, 60, 64
2, 919792, Note_off_c, 0, 58, 64
2, 919800, Note_off_c, 0, 43, 64
2, 919800, Note_off_c, 0, 31, 64
2, 919804, Note_off_c, 0, 64, 64
2, 919823, Note_on_c, 0, 75, 67
2, 919844, Note_on_c, 0, 48, 58
2, 919859, Note_off_c, 0, 72, 64
2, 919864, Note_on_c, 0, 55, 58
2, 919872, Note_on_c, 0, 73, 60
2, 919876, Note_on_c, 0, 70, 65
2, 919876, Note_on_c, 0, 58, 54
2, 919880, Note_on_c, 0, 64, 58
2, 919891, Note_off_c, 0, 75, 64
2, 919954, Note_off_c, 0, 48, 64
2, 919970, Note_off_c, 0, 55, 64
2, 919982, Note_off_c, 0, 58, 64
2, 919986, Note_off_c, 0, 64, 64
2, 920016, Note_on_c, 0, 72, 80
2, 920016, Note_on_c, 0, 60, 70
2, 920019, Note_off_c, 0, 73, 64
2, 920023, Note_off_c, 0, 70, 64
2, 920042, Note_off_c, 0, 60, 64
2, 920042, Note_off_c, 0, 72, 64
2, 920064, Note_on_c, 0, 72, 80
2, 920070, Note_on_c, 0, 68, 66
2, 920076, Note_on_c, 0, 41, 58
2, 920076, Note_on_c, 0, 29, 71
2, 920106, Control_c, 0, 64, 0
2, 920131, Control_c, 0, 64, 127
2, 920184, Note_on_c, 0, 70, 48
2, 920192, Note_on_c, 0, 67, 63
2, 920198, Note_off_c, 0, 72, 64
2, 920204, Note_off_c, 0, 68, 64
2, 920244, Note_on_c, 0, 65, 75
2, 920248, Note_on_c, 0, 68, 71
2, 920248, Note_on_c, 0, 60, 47
2, 920255, Note_on_c, 0, 53, 50
2, 920262, Note_off_c, 0, 70, 64
2, 920269, Note_off_c, 0, 67, 64
2, 920284, Control_c, 0, 64, 0
2, 920296, Control_c, 0, 64, 127
2, 920334, Note_off_c, 0, 60, 64
2, 920344, Note_off_c, 0, 53, 64
2, 920364, Note_off_c, 0, 29, 64
2, 920364, Note_off_c, 0, 41, 64
2, 920444, Note_on_c, 0, 62, 62
2, 920444, Note_on_c, 0, 60, 51
2, 920444, Note_on_c, 0, 56, 51
2, 920444, Note_on_c, 0, 53, 51
2, 920445, Note_on_c, 0, 72, 74
2, 920457, Note_off_c, 0, 65, 64
2, 920461, Note_off_c, 0, 68, 64
2, 920526, Note_off_c, 0, 56, 64
2, 920531, Note_off_c, 0, 60, 64
2, 920536, Note_off_c, 0, 53, 64
2, 920624, Note_on_c, 0, 43, 44
2, 920631, Note_on_c, 0, 55, 40
2, 920631, Note_on_c, 0, 67, 63
2, 920635, Note_on_c, 0, 63, 54
2, 920639, Note_off_c, 0, 62, 64
2, 920640, Note_off_c, 0, 72, 64
2, 920648, Control_c, 0, 64, 0
2, 920693, Control_c, 0, 64, 127
2, 920812, Note_off_c, 0, 67, 64
2, 920812, Note_off_c, 0, 55, 64
2, 920820, Note_on_c, 0, 60, 35
2, 920820, Note_on_c, 0, 55, 36
2, 920828, Note_on_c, 0, 75, 57
2, 920828, Note_on_c, 0, 67, 49
2, 920830, Note_off_c, 0, 63, 64
2, 920849, Control_c, 0, 64, 0
2, 920904, Control_c, 0, 64, 127
2, 920925, Note_off_c, 0, 43, 64
2, 920985, Note_off_c, 0, 55, 64
2, 920985, Note_off_c, 0, 60, 64
2, 921001, Note_on_c, 0, 62, 31
2, 921001, Note_on_c, 0, 55, 31
2, 921084, Note_on_c, 0, 65, 46
2, 921088, Note_on_c, 0, 71, 47
2, 921102, Note_off_c, 0, 67, 64
2, 921102, Note_off_c, 0, 75, 64
2, 921151, Note_off_c, 0, 55, 64
2, 921151, Note_off_c, 0, 62, 64
2, 921179, Control_c, 0, 64, 0
2, 921191, Note_on_c, 0, 63, 63
2, 921195, Note_on_c, 0, 48, 48
2, 921195, Note_on_c, 0, 72, 57
2, 921195, Control_c, 0, 64, 127
2, 921196, Note_off_c, 0, 65, 64
2, 921202, Note_off_c, 0, 71, 64
2, 921288, Note_on_c, 0, 77, 71
2, 921288, Note_on_c, 0, 80, 57
2, 921300, Note_off_c, 0, 63, 64
2, 921304, Note_off_c, 0, 72, 64
2, 921372, Note_on_c, 0, 75, 39
2, 921376, Note_on_c, 0, 60, 32
2, 921379, Note_on_c, 0, 79, 57
2, 921379, Note_on_c, 0, 51, 47
2, 921380, Note_on_c, 0, 63, 37
2, 921383, Note_off_c, 0, 80, 64
2, 921383, Note_off_c, 0, 77, 64
2, 921402, Control_c, 0, 64, 0
2, 921427, Control_c, 0, 64, 127
2, 921436, Note_off_c, 0, 60, 64
2, 921439, Note_off_c, 0, 51, 64
2, 921440, Note_off_c, 0, 63, 64
2, 921440, Note_off_c, 0, 79, 64
2, 921441, Note_off_c, 0, 75, 64
2, 921463, Note_off_c, 0, 48, 64
2, 921568, Note_on_c, 0, 53, 49
2, 921571, Note_on_c, 0, 68, 62
2, 921572, Note_on_c, 0, 60, 49
2, 921572, Note_on_c, 0, 62, 55
2, 921584, Control_c, 0, 64, 0
2, 921606, Control_c, 0, 64, 127
2, 921719, Note_off_c, 0, 53, 64
2, 921723, Note_off_c, 0, 60, 64
2, 921764, Note_on_c, 0, 67, 64
2, 921768, Note_on_c, 0, 43, 56
2, 921771, Note_on_c, 0, 63, 62
2, 921773, Note_on_c, 0, 55, 44
2, 921781, Note_off_c, 0, 68, 64
2, 921782, Note_off_c, 0, 62, 64
2, 921784, Control_c, 0, 64, 0
2, 921818, Control_c, 0, 64, 127
2, 921936, Note_off_c, 0, 55, 64
2, 921947, Note_off_c, 0, 67, 64
2, 921947, Note_on_c, 0, 60, 27
2, 921947, Note_on_c, 0, 55, 35
2, 921949, Note_off_c, 0, 63, 64
2, 921957, Note_on_c, 0, 75, 59
2, 921958, Note_on_c, 0, 67, 50
2, 921977, Control_c, 0, 64, 0
2, 922008, Control_c, 0, 64, 127
2, 922045, Note_off_c, 0, 43, 64
2, 922116, Note_off_c, 0, 55, 64
2, 922116, Note_off_c, 0, 60, 64
2, 922120, Note_on_c, 0, 62, 42
2, 922122, Note_on_c, 0, 55, 33
2, 922204, Note_on_c, 0, 65, 32
2, 922206, Note_on_c, 0, 71, 46
2, 922215, Note_off_c, 0, 75, 64
2, 922216, Note_off_c, 0, 67, 64
2, 922279, Note_off_c, 0, 55, 64
2, 922285, Note_off_c, 0, 62, 64
2, 922317, Note_on_c, 0, 63, 63
2, 922324, Note_on_c, 0, 48, 50
2, 922327, Note_on_c, 0, 72, 64
2, 922332, Note_off_c, 0, 65, 64
2, 922334, Note_off_c, 0, 71, 64
2, 922444, Note_on_c, 0, 82, 50
2, 922468, Note_on_c, 0, 77, 55
2, 922472, Note_on_c, 0, 80, 64
2, 922483, Note_off_c, 0, 63, 64
2, 922484, Note_off_c, 0, 82, 64
2, 922493, Note_off_c, 0, 72, 64
2, 922559, Note_on_c, 0, 75, 58
2, 922559, Note_on_c, 0, 79, 55
2, 922564, Note_off_c, 0, 77, 64
2, 922566, Note_on_c, 0, 51, 44
2, 922568, Note_off_c, 0, 80, 64
2, 922576, Note_on_c, 0, 63, 37
2, 922576, Control_c, 0, 64, 0
2, 922605, Note_off_c, 0, 48, 64
2, 922613, Control_c, 0, 64, 127
2, 922623, Note_off_c, 0, 79, 64
2, 922623, Note_off_c, 0, 75, 64
2, 922627, Note_off_c, 0, 51, 64
2, 922636, Note_off_c, 0, 63, 64
2, 922799, Note_on_c, 0, 68, 50
2, 922802, Note_on_c, 0, 65, 48
2, 922808, Note_on_c, 0, 53, 49
2, 922814, Note_on_c, 0, 60, 44
2, 922839, Control_c, 0, 64, 0
2, 922852, Control_c, 0, 64, 127
2, 922859, Note_off_c, 0, 60, 64
2, 922860, Note_off_c, 0, 53, 64
2, 922874, Note_off_c, 0, 65, 64
2, 922993, Note_on_c, 0, 67, 56
2, 922996, Note_on_c, 0, 55, 44
2, 922997, Note_on_c, 0, 63, 58
2, 922999, Note_on_c, 0, 43, 39
2, 923008, Note_off_c, 0, 68, 64
2, 923013, Control_c, 0, 64, 0
2, 923045, Control_c, 0, 64, 127
2, 923140, Note_off_c, 0, 63, 64
2, 923154, Note_off_c, 0, 55, 64
2, 923162, Note_off_c, 0, 67, 64
2, 923176, Note_on_c, 0, 55, 36
2, 923178, Note_on_c, 0, 60, 28
2, 923180, Note_on_c, 0, 75, 50
2, 923187, Note_on_c, 0, 67, 49
2, 923203, Control_c, 0, 64, 0
2, 923278, Control_c, 0, 64, 127
2, 923326, Note_off_c, 0, 43, 64
2, 923353, Note_off_c, 0, 55, 64
2, 923355, Note_off_c, 0, 60, 64
2, 923368, Note_on_c, 0, 55, 36
2, 923368, Note_on_c, 0, 62, 42
2, 923453, Note_on_c, 0, 65, 52
2, 923457, Note_on_c, 0, 71, 52
2, 923468, Note_off_c, 0, 75, 64
2, 923475, Note_off_c, 0, 67, 64
2, 923536, Note_off_c, 0, 62, 64
2, 923536, Note_off_c, 0, 55, 64
2, 923576, Note_off_c, 0, 65, 64
2, 923588, Note_on_c, 0, 65, 50
2, 923591, Note_on_c, 0, 74, 49
2, 923592, Note_off_c, 0, 71, 64
2, 923602, Note_on_c, 0, 48, 41
2, 923618, Control_c, 0, 64, 0
2, 923651, Control_c, 0, 64, 127
2, 923692, Note_on_c, 0, 63, 49
2, 923693, Note_on_c, 0, 72, 57
2, 923700, Note_off_c, 0, 65, 64
2, 923703, Note_off_c, 0, 74, 64
2, 923779, Note_off_c, 0, 72, 64
2, 923788, Note_on_c, 0, 72, 74
2, 923800, Note_off_c, 0, 63, 64
2, 923879, Note_on_c, 0, 63, 37
2, 923881, Note_on_c, 0, 84, 72
2, 923892, Note_on_c, 0, 55, 33
2, 923909, Control_c, 0, 64, 0
2, 923933, Note_off_c, 0, 72, 64
2, 923972, Control_c, 0, 64, 127
2, 924056, Note_off_c, 0, 63, 64
2, 924058, Note_off_c, 0, 55, 64
2, 924064, Note_off_c, 0, 48, 64
2, 924138, Note_on_c, 0, 80, 52
2, 924160, Note_off_c, 0, 84, 64
2, 924237, Note_on_c, 0, 77, 47
2, 924245, Note_off_c, 0, 80, 64
2, 924335, Note_on_c, 0, 79, 52
2, 924342, Note_off_c, 0, 77, 64
2, 924344, Control_c, 0, 64, 0
2, 924427, Note_on_c, 0, 74, 56
2, 924467, Note_off_c, 0, 79, 64
2, 924516, Note_on_c, 0, 75, 48
2, 924540, Note_off_c, 0, 74, 64
2, 924599, Note_on_c, 0, 71, 40
2, 924622, Note_off_c, 0, 75, 64
2, 924632, Control_c, 0, 64, 127
2, 924645, Control_c, 0, 64, 0
2, 924662, Control_c, 0, 64, 127
2, 924676, Note_on_c, 0, 72, 50
2, 924704, Note_off_c, 0, 71, 64
2, 924773, Note_on_c, 0, 67, 26
2, 924804, Note_off_c, 0, 72, 64
2, 924864, Note_on_c, 0, 68, 40
2, 924887, Note_off_c, 0, 67, 64
2, 924954, Note_on_c, 0, 65, 36
2, 924972, Note_off_c, 0, 68, 64
2, 925056, Note_on_c, 0, 67, 39
2, 925077, Note_off_c, 0, 65, 64
2, 925159, Note_on_c, 0, 62, 40
2, 925173, Note_off_c, 0, 67, 64
2, 925175, Control_c, 0, 64, 0
2, 925228, Control_c, 0, 64, 127
2, 925261, Note_on_c, 0, 63, 37
2, 925275, Note_off_c, 0, 62, 64
2, 925358, Note_on_c, 0, 60, 31
2, 925374, Note_off_c, 0, 63, 64
2, 925457, Note_on_c, 0, 58, 26
2, 925476, Note_off_c, 0, 60, 64
2, 925500, Note_on_c, 0, 49, 41
2, 925524, Control_c, 0, 64, 0
2, 925543, Note_on_c, 0, 65, 47
2, 925591, Note_off_c, 0, 58, 64
2, 925657, Control_c, 0, 64, 127
2, 925729, Note_on_c, 0, 56, 29
2, 925736, Note_on_c, 0, 58, 20
2, 925755, Note_off_c, 0, 49, 64
2, 925846, Note_off_c, 0, 56, 64
2, 925856, Note_off_c, 0, 58, 64
2, 925922, Note_on_c, 0, 67, 44
2, 925924, Note_on_c, 0, 56, 31
2, 925931, Note_on_c, 0, 58, 24
2, 925938, Note_off_c, 0, 65, 64
2, 926021, Note_on_c, 0, 68, 47
2, 926059, Note_off_c, 0, 67, 64
2, 926116, Note_on_c, 0, 64, 39
2, 926128, Note_on_c, 0, 70, 54
2, 926146, Note_off_c, 0, 68, 64
2, 926217, Note_on_c, 0, 67, 58
2, 926223, Note_on_c, 0, 72, 40
2, 926229, Note_off_c, 0, 64, 64
2, 926241, Note_off_c, 0, 70, 64
2, 926316, Note_on_c, 0, 65, 47
2, 926324, Note_on_c, 0, 73, 66
2, 926329, Note_off_c, 0, 67, 64
2, 926337, Note_off_c, 0, 72, 64
2, 926348, Control_c, 0, 64, 0
2, 926379, Control_c, 0, 64, 127
2, 926394, Note_off_c, 0, 56, 64
2, 926401, Note_off_c, 0, 58, 64
2, 926507, Note_on_c, 0, 58, 24
2, 926507, Note_on_c, 0, 56, 27
2, 926530, Control_c, 0, 64, 0
2, 926563, Control_c, 0, 64, 127
2, 926602, Note_on_c, 0, 75, 49
2, 926629, Note_off_c, 0, 65, 64
2, 926637, Note_off_c, 0, 73, 64
2, 926709, Note_on_c, 0, 76, 50
2, 926728, Note_off_c, 0, 75, 64
2, 926763, Note_off_c, 0, 56, 64
2, 926763, Note_off_c, 0, 58, 64
2, 926792, Note_on_c, 0, 79, 49
2, 926809, Note_off_c, 0, 76, 64
2, 926882, Note_on_c, 0, 77, 49
2, 926882, Note_on_c, 0, 58, 29
2, 926887, Note_on_c, 0, 56, 27
2, 926892, Note_off_c, 0, 79, 64
2, 926904, Control_c, 0, 64, 0
2, 926927, Control_c, 0, 64, 127
2, 927007, Note_off_c, 0, 56, 64
2, 927025, Note_off_c, 0, 58, 64
2, 927052, Note_on_c, 0, 58, 29
2, 927057, Note_on_c, 0, 56, 24
2, 927060, Note_on_c, 0, 72, 50
2, 927065, Note_off_c, 0, 77, 64
2, 927200, Control_c, 0, 64, 0
2, 927254, Note_on_c, 0, 46, 37
2, 927260, Note_on_c, 0, 75, 44
2, 927293, Note_off_c, 0, 72, 64
2, 927299, Control_c, 0, 64, 0
2, 927310, Control_c, 0, 64, 127
2, 927363, Note_off_c, 0, 58, 64
2, 927368, Note_off_c, 0, 56, 64
2, 927473, Note_on_c, 0, 58, 36
2, 927480, Note_on_c, 0, 68, 20
2, 927489, Note_on_c, 0, 65, 29
2, 927512, Note_on_c, 0, 73, 59
2, 927525, Control_c, 0, 64, 0
2, 927536, Note_off_c, 0, 75, 64
2, 927557, Note_off_c, 0, 46, 64
2, 927562, Control_c, 0, 64, 127
2, 927596, Note_off_c, 0, 58, 64
2, 927605, Note_off_c, 0, 68, 64
2, 927614, Note_off_c, 0, 65, 64
2, 927700, Note_on_c, 0, 65, 32
2, 927700, Note_on_c, 0, 58, 36
2, 927707, Note_on_c, 0, 68, 32
2, 927799, Note_on_c, 0, 72, 55
2, 927812, Note_off_c, 0, 73, 64
2, 927870, Note_off_c, 0, 58, 64
2, 927870, Note_off_c, 0, 65, 64
2, 927877, Note_off_c, 0, 68, 64
2, 927886, Note_off_c, 0, 72, 64
2, 927909, Note_on_c, 0, 49, 49
2, 927940, Note_on_c, 0, 72, 50
2, 927956, Control_c, 0, 64, 0
2, 927988, Control_c, 0, 64, 127
2, 927997, Note_on_c, 0, 65, 58
2, 928040, Note_off_c, 0, 72, 64
2, 928124, Note_on_c, 0, 56, 29
2, 928125, Note_on_c, 0, 58, 29
2, 928140, Control_c, 0, 64, 0
2, 928154, Control_c, 0, 64, 127
2, 928224, Note_off_c, 0, 49, 64
2, 928234, Note_off_c, 0, 56, 64
2, 928241, Note_off_c, 0, 58, 64
2, 928311, Note_on_c, 0, 67, 50
2, 928327, Note_on_c, 0, 58, 29
2, 928332, Note_on_c, 0, 56, 23
2, 928337, Note_off_c, 0, 65, 64
2, 928337, Control_c, 0, 64, 0
2, 928371, Control_c, 0, 64, 127
2, 928402, Note_on_c, 0, 68, 52
2, 928429, Note_off_c, 0, 67, 64
2, 928485, Note_on_c, 0, 70, 54
2, 928487, Note_on_c, 0, 64, 40
2, 928515, Note_off_c, 0, 68, 64
2, 928556, Note_on_c, 0, 72, 63
2, 928560, Note_on_c, 0, 67, 41
2, 928589, Note_off_c, 0, 64, 64
2, 928591, Note_off_c, 0, 70, 64
2, 928646, Note_on_c, 0, 73, 62
2, 928658, Note_off_c, 0, 72, 64
2, 928658, Note_on_c, 0, 65, 47
2, 928664, Note_off_c, 0, 67, 64
2, 928677, Control_c, 0, 64, 0
2, 928708, Control_c, 0, 64, 127
2, 928772, Note_off_c, 0, 58, 64
2, 928777, Note_off_c, 0, 56, 64
2, 928828, Note_on_c, 0, 58, 1
2, 928833, Note_on_c, 0, 56, 24
2, 928855, Control_c, 0, 64, 0
2, 928895, Control_c, 0, 64, 127
2, 928916, Note_on_c, 0, 75, 50
2, 928956, Note_off_c, 0, 73, 64
2, 928968, Note_off_c, 0, 65, 64
2, 929014, Note_off_c, 0, 58, 64
2, 929019, Note_off_c, 0, 56, 64
2, 929022, Note_on_c, 0, 51, 47
2, 929032, Note_on_c, 0, 76, 50
2, 929042, Note_off_c, 0, 75, 64
2, 929070, Control_c, 0, 64, 0
2, 929084, Control_c, 0, 64, 127
2, 929124, Note_on_c, 0, 79, 47
2, 929162, Note_off_c, 0, 76, 64
2, 929213, Note_on_c, 0, 61, 36
2, 929213, Note_on_c, 0, 77, 49
2, 929226, Note_on_c, 0, 56, 26
2, 929230, Note_off_c, 0, 79, 64
2, 929230, Control_c, 0, 64, 0
2, 929272, Control_c, 0, 64, 127
2, 929290, Note_off_c, 0, 51, 64
2, 929339, Note_off_c, 0, 56, 64
2, 929351, Note_off_c, 0, 61, 64
2, 929403, Note_on_c, 0, 55, 42
2, 929406, Note_on_c, 0, 61, 21
2, 929407, Note_on_c, 0, 70, 50
2, 929428, Note_off_c, 0, 77, 64
2, 929590, Note_on_c, 0, 44, 39
2, 929591, Note_on_c, 0, 73, 52
2, 929604, Control_c, 0, 64, 0
2, 929621, Note_off_c, 0, 70, 64
2, 929627, Control_c, 0, 64, 127
2, 929663, Note_off_c, 0, 55, 64
2, 929666, Note_off_c, 0, 61, 64
2, 929795, Note_on_c, 0, 51, 36
2, 929795, Note_on_c, 0, 72, 56
2, 929796, Note_on_c, 0, 60, 40
2, 929802, Note_on_c, 0, 56, 42
2, 929824, Control_c, 0, 64, 0
2, 929826, Note_off_c, 0, 73, 64
2, 929856, Control_c, 0, 64, 127
2, 929890, Note_off_c, 0, 44, 64
2, 929993, Note_off_c, 0, 51, 64
2, 929994, Note_off_c, 0, 60, 64
2, 930000, Note_off_c, 0, 56, 64
2, 930013, Note_on_c, 0, 60, 47
2, 930014, Note_on_c, 0, 56, 44
2, 930019, Note_on_c, 0, 52, 44
2, 930035, Control_c, 0, 64, 0
2, 930060, Control_c, 0, 64, 127
2, 930112, Note_on_c, 0, 68, 55
2, 930120, Note_off_c, 0, 72, 64
2, 930189, Note_off_c, 0, 60, 64
2, 930190, Note_off_c, 0, 56, 64
2, 930195, Note_off_c, 0, 52, 64
2, 930236, Note_on_c, 0, 53, 56
2, 930236, Note_on_c, 0, 58, 47
2, 930268, Note_on_c, 0, 49, 55
2, 930270, Control_c, 0, 64, 0
2, 930272, Note_on_c, 0, 37, 54
2, 930273, Note_off_c, 0, 68, 64
2, 930274, Note_on_c, 0, 65, 57
2, 930307, Control_c, 0, 64, 127
2, 930369, Note_off_c, 0, 58, 64
2, 930372, Note_off_c, 0, 53, 64
2, 930456, Note_on_c, 0, 56, 31
2, 930459, Note_on_c, 0, 58, 36
2, 930576, Note_off_c, 0, 56, 64
2, 930579, Note_off_c, 0, 58, 64
2, 930580, Note_off_c, 0, 49, 64
2, 930584, Note_off_c, 0, 37, 64
2, 930634, Note_on_c, 0, 67, 49
2, 930648, Note_on_c, 0, 56, 48
2, 930650, Note_on_c, 0, 58, 28
2, 930666, Note_off_c, 0, 65, 64
2, 930679, Control_c, 0, 64, 0
2, 930712, Control_c, 0, 64, 127
2, 930729, Note_on_c, 0, 68, 58
2, 930754, Note_off_c, 0, 67, 64
2, 930830, Note_on_c, 0, 70, 59
2, 930832, Note_on_c, 0, 64, 42
2, 930853, Note_off_c, 0, 68, 64
2, 930912, Note_on_c, 0, 67, 48
2, 930912, Note_on_c, 0, 72, 58
2, 930929, Note_off_c, 0, 70, 64
2, 930931, Note_off_c, 0, 64, 64
2, 931003, Note_on_c, 0, 73, 57
2, 931004, Note_off_c, 0, 67, 64
2, 931004, Note_on_c, 0, 65, 50
2, 931019, Note_off_c, 0, 72, 64
2, 931021, Control_c, 0, 64, 0
2, 931059, Control_c, 0, 64, 127
2, 931141, Note_off_c, 0, 56, 64
2, 931143, Note_off_c, 0, 58, 64
2, 931155, Note_off_c, 0, 65, 64
2, 931168, Note_on_c, 0, 74, 49
2, 931183, Note_on_c, 0, 56, 39
2, 931184, Note_on_c, 0, 58, 1
2, 931191, Note_off_c, 0, 73, 64
2, 931256, Note_on_c, 0, 75, 63
2, 931274, Note_off_c, 0, 74, 64
2, 931360, Note_on_c, 0, 76, 55
2, 931382, Note_off_c, 0, 75, 64
2, 931435, Note_on_c, 0, 79, 49
2, 931478, Note_off_c, 0, 76, 64
2, 931501, Note_off_c, 0, 56, 64
2, 931502, Note_off_c, 0, 58, 64
2, 931535, Note_on_c, 0, 58, 48
2, 931536, Note_on_c, 0, 77, 54
2, 931536, Note_on_c, 0, 56, 28
2, 931552, Note_off_c, 0, 79, 64
2, 931555, Control_c, 0, 64, 0
2, 931603, Control_c, 0, 64, 127
2, 931631, Note_off_c, 0, 58, 64
2, 931632, Note_off_c, 0, 56, 64
2, 931708, Note_on_c, 0, 56, 35
2, 931708, Note_on_c, 0, 58, 28
2, 931716, Note_on_c, 0, 72, 57
2, 931725, Note_off_c, 0, 77, 64
2, 931787, Control_c, 0, 64, 0
2, 931901, Note_on_c, 0, 75, 56
2, 931905, Note_on_c, 0, 46, 47
2, 931918, Note_off_c, 0, 72, 64
2, 931926, Control_c, 0, 64, 0
2, 931937, Note_off_c, 0, 58, 64
2, 931937, Note_off_c, 0, 56, 64
2, 931952, Control_c, 0, 64, 127
2, 932062, Note_on_c, 0, 77, 47
2, 932076, Note_off_c, 0, 75, 64
2, 932100, Note_on_c, 0, 75, 50
2, 932113, Note_on_c, 0, 58, 19
2, 932128, Note_on_c, 0, 65, 18
2, 932131, Note_on_c, 0, 68, 29
2, 932132, Note_off_c, 0, 77, 64
2, 932141, Note_on_c, 0, 73, 42
2, 932157, Control_c, 0, 64, 0
2, 932162, Note_off_c, 0, 75, 64
2, 932180, Control_c, 0, 64, 127
2, 932185, Note_off_c, 0, 46, 64
2, 932233, Note_off_c, 0, 58, 64
2, 932241, Note_off_c, 0, 68, 64
2, 932246, Note_off_c, 0, 65, 64
2, 932304, Note_on_c, 0, 65, 29
2, 932304, Note_on_c, 0, 58, 29
2, 932306, Note_on_c, 0, 68, 24
2, 932396, Note_on_c, 0, 72, 56
2, 932416, Note_off_c, 0, 73, 64
2, 932498, Note_off_c, 0, 72, 64
2, 932500, Note_on_c, 0, 49, 49
2, 932539, Note_on_c, 0, 72, 55
2, 932545, Control_c, 0, 64, 0
2, 932553, Note_off_c, 0, 58, 64
2, 932553, Note_off_c, 0, 65, 64
2, 932555, Note_off_c, 0, 68, 64
2, 932578, Control_c, 0, 64, 127
2, 932592, Note_on_c, 0, 65, 62
2, 932622, Note_off_c, 0, 72, 64
2, 932720, Note_on_c, 0, 58, 40
2, 932723, Note_on_c, 0, 56, 40
2, 932737, Control_c, 0, 64, 0
2, 932761, Control_c, 0, 64, 127
2, 932880, Note_off_c, 0, 58, 64
2, 932883, Note_off_c, 0, 56, 64
2, 932892, Note_on_c, 0, 56, 20
2, 932904, Note_on_c, 0, 58, 27
2, 932904, Note_on_c, 0, 67, 55
2, 932927, Note_off_c, 0, 65, 64
2, 932943, Control_c, 0, 64, 0
2, 932946, Note_off_c, 0, 49, 64
2, 932964, Control_c, 0, 64, 127
2, 932993, Note_on_c, 0, 68, 52
2, 933025, Note_off_c, 0, 67, 64
2, 933083, Note_on_c, 0, 70, 52
2, 933087, Note_on_c, 0, 64, 41
2, 933115, Note_off_c, 0, 68, 64
2, 933150, Note_on_c, 0, 67, 50
2, 933167, Note_on_c, 0, 72, 50
2, 933170, Note_off_c, 0, 70, 64
2, 933174, Note_off_c, 0, 64, 64
2, 933252, Note_on_c, 0, 73, 62
2, 933252, Note_on_c, 0, 65, 55
2, 933260, Note_off_c, 0, 72, 64
2, 933269, Control_c, 0, 64, 0
2, 933274, Note_off_c, 0, 67, 64
2, 933303, Control_c, 0, 64, 127
2, 933420, Note_off_c, 0, 56, 64
2, 933432, Note_off_c, 0, 58, 64
2, 933458, Note_on_c, 0, 75, 56
2, 933468, Note_on_c, 0, 56, 37
2, 933470, Note_on_c, 0, 58, 52
2, 933477, Note_off_c, 0, 65, 64
2, 933477, Note_off_c, 0, 73, 64
2, 933485, Control_c, 0, 64, 0
2, 933507, Control_c, 0, 64, 127
2, 933560, Note_on_c, 0, 76, 42
2, 933568, Note_off_c, 0, 75, 64
2, 933648, Note_on_c, 0, 49, 62
2, 933656, Note_on_c, 0, 77, 47
2, 933694, Note_off_c, 0, 76, 64
2, 933711, Note_off_c, 0, 58, 64
2, 933733, Note_off_c, 0, 56, 64
2, 933752, Note_on_c, 0, 79, 58
2, 933776, Note_off_c, 0, 77, 64
2, 933833, Note_on_c, 0, 80, 50
2, 933861, Note_off_c, 0, 79, 64
2, 934008, Note_on_c, 0, 55, 57
2, 934013, Note_on_c, 0, 65, 57
2, 934016, Note_on_c, 0, 82, 67
2, 934038, Note_off_c, 0, 80, 64
2, 934070, Note_off_c, 0, 49, 64
2, 934097, Note_on_c, 0, 83, 52
2, 934116, Note_off_c, 0, 82, 64
2, 934194, Note_on_c, 0, 84, 71
2, 934196, Note_on_c, 0, 48, 55
2, 934215, Note_off_c, 0, 83, 64
2, 934229, Control_c, 0, 64, 0
2, 934240, Note_off_c, 0, 55, 64
2, 934245, Note_off_c, 0, 65, 64
2, 934251, Control_c, 0, 64, 127
2, 934267, Note_off_c, 0, 84, 64
2, 934323, Note_on_c, 0, 72, 33
2, 934344, Note_off_c, 0, 72, 64
2, 934369, Note_on_c, 0, 72, 64
2, 934382, Note_on_c, 0, 64, 48
2, 934384, Note_on_c, 0, 55, 49
2, 934390, Control_c, 0, 64, 0
2, 934413, Control_c, 0, 64, 127
2, 934469, Note_off_c, 0, 72, 64
2, 934514, Note_off_c, 0, 64, 64
2, 934516, Note_off_c, 0, 55, 64
2, 934564, Note_on_c, 0, 72, 66
2, 934572, Note_on_c, 0, 55, 44
2, 934573, Note_on_c, 0, 64, 48
2, 934587, Control_c, 0, 64, 0
2, 934609, Control_c, 0, 64, 127
2, 934661, Note_off_c, 0, 48, 64
2, 934692, Note_off_c, 0, 72, 64
2, 934704, Note_off_c, 0, 55, 64
2, 934705, Note_off_c, 0, 64, 64
2, 934756, Note_on_c, 0, 72, 71
2, 934763, Note_on_c, 0, 48, 49
2, 934782, Control_c, 0, 64, 0
2, 934815, Control_c, 0, 64, 127
2, 934939, Note_on_c, 0, 61, 44
2, 934946, Note_on_c, 0, 53, 42
2, 934965, Control_c, 0, 64, 0
2, 934999, Control_c, 0, 64, 127
2, 935012, Note_on_c, 0, 73, 54
2, 935043, Note_off_c, 0, 72, 64
2, 935071, Note_off_c, 0, 61, 64
2, 935078, Note_off_c, 0, 53, 64
2, 935109, Note_on_c, 0, 61, 40
2, 935113, Note_on_c, 0, 77, 50
2, 935116, Note_off_c, 0, 73, 64
2, 935124, Note_on_c, 0, 53, 44
2, 935186, Note_on_c, 0, 75, 44
2, 935221, Note_off_c, 0, 77, 64
2, 935228, Note_off_c, 0, 48, 64
2, 935241, Note_off_c, 0, 61, 64
2, 935256, Note_off_c, 0, 53, 64
2, 935277, Note_on_c, 0, 36, 81
2, 935289, Note_off_c, 0, 75, 64
2, 935295, Control_c, 0, 64, 0
2, 935335, Control_c, 0, 64, 127
2, 935424, Note_on_c, 0, 72, 56
2, 935464, Note_on_c, 0, 67, 58
2, 935469, Note_on_c, 0, 63, 58
2, 935473, Note_on_c, 0, 55, 50
2, 935499, Note_off_c, 0, 72, 64
2, 935601, Note_off_c, 0, 63, 64
2, 935605, Note_off_c, 0, 55, 64
2, 935641, Note_on_c, 0, 63, 49
2, 935646, Note_on_c, 0, 72, 56
2, 935651, Note_off_c, 0, 67, 64
2, 935655, Note_on_c, 0, 55, 40
2, 935661, Control_c, 0, 64, 0
2, 935686, Control_c, 0, 64, 127
2, 935722, Note_on_c, 0, 67, 56
2, 935723, Note_off_c, 0, 36, 64
2, 935741, Note_off_c, 0, 72, 64
2, 935773, Note_off_c, 0, 63, 64
2, 935787, Note_off_c, 0, 55, 64
2, 935814, Note_on_c, 0, 70, 64
2, 935819, Note_on_c, 0, 48, 49
2, 935827, Control_c, 0, 64, 0
2, 935834, Note_off_c, 0, 67, 64
2, 935875, Control_c, 0, 64, 127
2, 935988, Note_on_c, 0, 61, 49
2, 935994, Note_on_c, 0, 53, 49
2, 936081, Note_on_c, 0, 72, 52
2, 936104, Note_off_c, 0, 70, 64
2, 936120, Note_off_c, 0, 61, 64
2, 936126, Note_off_c, 0, 53, 64
2, 936167, Note_on_c, 0, 75, 50
2, 936167, Note_on_c, 0, 61, 56
2, 936174, Note_on_c, 0, 53, 49
2, 936199, Note_off_c, 0, 72, 64
2, 936243, Note_on_c, 0, 73, 54
2, 936249, Note_off_c, 0, 75, 64
2, 936284, Note_off_c, 0, 48, 64
2, 936299, Note_off_c, 0, 61, 64
2, 936306, Note_off_c, 0, 53, 64
2, 936324, Note_on_c, 0, 36, 81
2, 936344, Control_c, 0, 64, 0
2, 936380, Note_off_c, 0, 73, 64
2, 936382, Control_c, 0, 64, 127
2, 936441, Note_on_c, 0, 72, 63
2, 936474, Note_off_c, 0, 72, 64
2, 936488, Note_on_c, 0, 55, 48
2, 936488, Note_on_c, 0, 52, 48
2, 936492, Note_on_c, 0, 72, 56
2, 936496, Note_on_c, 0, 60, 48
2, 936500, Note_on_c, 0, 64, 48
2, 936512, Control_c, 0, 64, 0
2, 936545, Control_c, 0, 64, 127
2, 936594, Note_off_c, 0, 52, 64
2, 936594, Note_off_c, 0, 55, 64
2, 936602, Note_off_c, 0, 60, 64
2, 936606, Note_off_c, 0, 64, 64
2, 936627, Note_off_c, 0, 72, 64
2, 936686, Note_on_c, 0, 67, 65
2, 936688, Note_on_c, 0, 58, 67
2, 936692, Note_on_c, 0, 72, 56
2, 936751, Note_off_c, 0, 36, 64
2, 936870, Note_on_c, 0, 56, 54
2, 936871, Note_off_c, 0, 58, 64
2, 936960, Note_on_c, 0, 65, 62
2, 936960, Note_on_c, 0, 58, 66
2, 936963, Note_on_c, 0, 73, 62
2, 936975, Note_off_c, 0, 72, 64
2, 936978, Note_off_c, 0, 56, 64
2, 936986, Note_off_c, 0, 67, 64
2, 937035, Note_on_c, 0, 56, 57
2, 937039, Note_on_c, 0, 80, 58
2, 937066, Note_off_c, 0, 73, 64
2, 937072, Note_off_c, 0, 58, 64
2, 937076, Note_off_c, 0, 65, 64
2, 937163, Note_off_c, 0, 56, 64
2, 937222, Note_on_c, 0, 77, 56
2, 937228, Note_on_c, 0, 48, 48
2, 937255, Note_off_c, 0, 80, 64
2, 937316, Note_on_c, 0, 70, 56
2, 937339, Note_off_c, 0, 77, 64
2, 937360, Control_c, 0, 64, 0
2, 937401, Note_on_c, 0, 36, 79
2, 937401, Control_c, 0, 64, 0
2, 937431, Note_off_c, 0, 70, 64
2, 937438, Note_off_c, 0, 48, 64
2, 937439, Control_c, 0, 64, 127
2, 937516, Note_on_c, 0, 63, 65
2, 937520, Note_on_c, 0, 55, 52
2, 937521, Note_on_c, 0, 72, 56
2, 937543, Note_off_c, 0, 63, 64
2, 937544, Note_off_c, 0, 55, 64
2, 937572, Note_on_c, 0, 67, 67
2, 937572, Note_on_c, 0, 63, 59
2, 937572, Note_on_c, 0, 55, 44
2, 937585, Control_c, 0, 64, 0
2, 937587, Note_off_c, 0, 72, 64
2, 937617, Control_c, 0, 64, 127
2, 937703, Note_off_c, 0, 55, 64
2, 937703, Note_off_c, 0, 63, 64
2, 937764, Note_on_c, 0, 63, 62
2, 937767, Note_off_c, 0, 67, 64
2, 937767, Note_on_c, 0, 55, 57
2, 937767, Note_on_c, 0, 72, 66
2, 937839, Note_off_c, 0, 36, 64
2, 937840, Note_on_c, 0, 67, 58
2, 937879, Note_off_c, 0, 72, 64
2, 937928, Note_on_c, 0, 53, 66
2, 937940, Note_on_c, 0, 68, 56
2, 937954, Note_off_c, 0, 55, 64
2, 937964, Note_off_c, 0, 67, 64
2, 938011, Note_on_c, 0, 70, 55
2, 938016, Note_on_c, 0, 61, 48
2, 938016, Note_on_c, 0, 55, 71
2, 938029, Note_off_c, 0, 53, 64
2, 938043, Note_off_c, 0, 68, 64
2, 938055, Note_off_c, 0, 63, 64
2, 938098, Note_on_c, 0, 80, 62
2, 938107, Note_on_c, 0, 53, 58
2, 938112, Note_off_c, 0, 55, 64
2, 938121, Note_off_c, 0, 70, 64
2, 938271, Note_on_c, 0, 56, 58
2, 938272, Note_on_c, 0, 48, 59
2, 938276, Note_on_c, 0, 77, 56
2, 938290, Note_off_c, 0, 53, 64
2, 938291, Note_off_c, 0, 61, 64
2, 938294, Note_off_c, 0, 80, 64
2, 938358, Note_on_c, 0, 65, 65
2, 938379, Note_off_c, 0, 77, 64
2, 938448, Note_on_c, 0, 64, 65
2, 938452, Note_on_c, 0, 72, 50
2, 938454, Note_off_c, 0, 65, 64
2, 938460, Note_on_c, 0, 55, 47
2, 938468, Note_off_c, 0, 56, 64
2, 938472, Control_c, 0, 64, 0
2, 938483, Control_c, 0, 64, 127
2, 938502, Note_off_c, 0, 64, 64
2, 938504, Note_off_c, 0, 55, 64
2, 938543, Note_on_c, 0, 73, 59
2, 938544, Note_on_c, 0, 64, 65
2, 938556, Note_on_c, 0, 46, 44
2, 938558, Note_off_c, 0, 72, 64
2, 938564, Note_on_c, 0, 55, 48
2, 938576, Control_c, 0, 64, 0
2, 938579, Note_off_c, 0, 48, 64
2, 938587, Control_c, 0, 64, 127
2, 938598, Note_off_c, 0, 64, 64
2, 938616, Note_off_c, 0, 55, 64
2, 938651, Note_on_c, 0, 55, 52
2, 938651, Note_on_c, 0, 49, 44
2, 938657, Note_on_c, 0, 70, 56
2, 938657, Note_on_c, 0, 64, 67
2, 938678, Note_off_c, 0, 46, 64
2, 938684, Note_off_c, 0, 73, 64
2, 938686, Control_c, 0, 64, 0
2, 938732, Control_c, 0, 64, 127
2, 938784, Note_off_c, 0, 55, 64
2, 938801, Note_off_c, 0, 64, 64
2, 938809, Note_off_c, 0, 49, 64
2, 938880, Note_on_c, 0, 63, 59
2, 938880, Note_on_c, 0, 48, 48
2, 938883, Note_on_c, 0, 55, 44
2, 938889, Note_on_c, 0, 75, 66
2, 938896, Note_off_c, 0, 70, 64
2, 938907, Control_c, 0, 64, 0
2, 938922, Control_c, 0, 64, 127
2, 939010, Note_on_c, 0, 46, 48
2, 939013, Note_on_c, 0, 61, 62
2, 939027, Note_off_c, 0, 48, 64
2, 939049, Note_off_c, 0, 55, 64
2, 939155, Note_off_c, 0, 75, 64
2, 939159, Note_on_c, 0, 60, 56
2, 939166, Note_off_c, 0, 46, 64
2, 939169, Note_off_c, 0, 61, 64
2, 939173, Note_on_c, 0, 44, 56
2, 939177, Note_on_c, 0, 51, 57
2, 939195, Control_c, 0, 64, 0
2, 939256, Control_c, 0, 64, 127
2, 939267, Note_off_c, 0, 44, 64
2, 939272, Note_off_c, 0, 51, 64
2, 939335, Note_off_c, 0, 60, 64
2, 939345, Note_off_c, 0, 63, 64
2, 939441, Note_on_c, 0, 60, 66
2, 939449, Note_on_c, 0, 63, 40
2, 939450, Note_on_c, 0, 68, 29
2, 939475, Control_c, 0, 64, 0
2, 939518, Note_off_c, 0, 63, 64
2, 939519, Control_c, 0, 64, 127
2, 939524, Note_off_c, 0, 68, 64
2, 939619, Note_on_c, 0, 65, 44
2, 939623, Note_on_c, 0, 68, 46
2, 939699, Note_off_c, 0, 65, 64
2, 939703, Note_off_c, 0, 68, 64
2, 939716, Note_on_c, 0, 61, 72
2, 939733, Note_off_c, 0, 60, 64
2, 939759, Note_on_c, 0, 60, 58
2, 939762, Note_off_c, 0, 61, 64
2, 939796, Note_on_c, 0, 61, 66
2, 939812, Note_off_c, 0, 60, 64
2, 939824, Note_on_c, 0, 63, 50
2, 939828, Note_on_c, 0, 60, 59
2, 939832, Note_on_c, 0, 68, 47
2, 939835, Note_off_c, 0, 61, 64
2, 939843, Control_c, 0, 64, 0
2, 939879, Control_c, 0, 64, 127
2, 939904, Note_off_c, 0, 63, 64
2, 939912, Note_off_c, 0, 68, 64
2, 939952, Note_on_c, 0, 68, 47
2, 939952, Note_on_c, 0, 61, 50
2, 939956, Note_on_c, 0, 58, 66
2, 939964, Note_off_c, 0, 60, 64
2, 939990, Note_off_c, 0, 68, 64
2, 940000, Note_on_c, 0, 68, 44
2, 940000, Note_on_c, 0, 60, 47
2, 940000, Note_on_c, 0, 56, 71
2, 940019, Note_off_c, 0, 61, 64
2, 940024, Note_off_c, 0, 58, 64
2, 940029, Control_c, 0, 64, 0
2, 940082, Control_c, 0, 64, 127
2, 940099, Note_off_c, 0, 60, 64
2, 940099, Note_off_c, 0, 68, 64
2, 940208, Note_on_c, 0, 68, 44
2, 940208, Note_on_c, 0, 66, 44
2, 940210, Note_on_c, 0, 60, 66
2, 940213, Note_on_c, 0, 63, 44
2, 940221, Control_c, 0, 64, 0
2, 940228, Note_off_c, 0, 56, 64
2, 940247, Control_c, 0, 64, 127
2, 940288, Note_off_c, 0, 66, 64
2, 940288, Note_off_c, 0, 68, 64
2, 940293, Note_off_c, 0, 63, 64
2, 940301, Control_c, 0, 64, 0
2, 940327, Control_c, 0, 64, 127
2, 940356, Note_on_c, 0, 49, 55
2, 940402, Note_on_c, 0, 61, 77
2, 940404, Note_on_c, 0, 68, 57
2, 940404, Note_on_c, 0, 65, 57
2, 940418, Note_off_c, 0, 49, 64
2, 940423, Note_off_c, 0, 60, 64
2, 940431, Control_c, 0, 64, 0
2, 940478, Control_c, 0, 64, 127
2, 940484, Note_off_c, 0, 65, 64
2, 940484, Note_off_c, 0, 68, 64
2, 940555, Control_c, 0, 64, 0
2, 940593, Control_c, 0, 64, 0
2, 940598, Note_on_c, 0, 63, 56
2, 940620, Control_c, 0, 64, 127
2, 940645, Note_off_c, 0, 61, 64
2, 940774, Note_on_c, 0, 73, 55
2, 940776, Note_on_c, 0, 68, 56
2, 940854, Note_off_c, 0, 73, 64
2, 940856, Note_off_c, 0, 68, 64
2, 940857, Note_on_c, 0, 65, 54
2, 940888, Note_off_c, 0, 63, 64
2, 940916, Note_on_c, 0, 63, 81
2, 940920, Note_off_c, 0, 65, 64
2, 940954, Note_on_c, 0, 65, 74
2, 940967, Note_off_c, 0, 63, 64
2, 940974, Control_c, 0, 64, 0
2, 940976, Note_on_c, 0, 72, 47
2, 940980, Note_on_c, 0, 56, 65
2, 940982, Note_on_c, 0, 68, 26
2, 940987, Note_on_c, 0, 63, 75
2, 941001, Note_off_c, 0, 65, 64
2, 941007, Control_c, 0, 64, 127
2, 941056, Note_off_c, 0, 72, 64
2, 941061, Note_off_c, 0, 68, 64
2, 941075, Note_off_c, 0, 56, 64
2, 941104, Note_on_c, 0, 71, 50
2, 941112, Note_on_c, 0, 77, 47
2, 941117, Note_on_c, 0, 62, 66
2, 941123, Note_off_c, 0, 63, 64
2, 941150, Note_off_c, 0, 77, 64
2, 941157, Note_on_c, 0, 72, 48
2, 941158, Note_on_c, 0, 63, 83
2, 941160, Note_on_c, 0, 75, 23
2, 941171, Note_off_c, 0, 71, 64
2, 941172, Note_off_c, 0, 62, 64
2, 941188, Control_c, 0, 64, 0
2, 941234, Control_c, 0, 64, 127
2, 941237, Note_off_c, 0, 72, 64
2, 941240, Note_off_c, 0, 75, 64
2, 941358, Control_c, 0, 64, 0
2, 941360, Note_on_c, 0, 72, 46
2, 941367, Note_on_c, 0, 68, 81
2, 941388, Control_c, 0, 64, 127
2, 941415, Note_off_c, 0, 63, 64
2, 941440, Note_off_c, 0, 72, 64
2, 941564, Note_off_c, 0, 68, 64
2, 941584, Note_on_c, 0, 51, 59
2, 941584, Note_on_c, 0, 44, 58
2, 941615, Control_c, 0, 64, 0
2, 941640, Control_c, 0, 64, 127
2, 941651, Control_c, 0, 64, 0
2, 941687, Control_c, 0, 64, 127
2, 941768, Note_on_c, 0, 68, 41
2, 941768, Note_on_c, 0, 63, 41
2, 941768, Note_on_c, 0, 60, 75
2, 941820, Control_c, 0, 64, 0
2, 941834, Control_c, 0, 64, 127
2, 941848, Note_off_c, 0, 63, 64
2, 941848, Note_off_c, 0, 68, 64
2, 941904, Note_off_c, 0, 44, 64
2, 941904, Note_off_c, 0, 51, 64
2, 942000, Note_on_c, 0, 68, 46
2, 942000, Note_on_c, 0, 65, 44
2, 942080, Note_off_c, 0, 65, 64
2, 942080, Note_off_c, 0, 68, 64
2, 942116, Note_on_c, 0, 61, 71
2, 942126, Note_off_c, 0, 60, 64
2, 942156, Note_on_c, 0, 60, 58
2, 942172, Note_off_c, 0, 61, 64
2, 942192, Note_on_c, 0, 61, 71
2, 942203, Control_c, 0, 64, 0
2, 942208, Note_off_c, 0, 60, 64
2, 942224, Note_on_c, 0, 68, 47
2, 942228, Note_on_c, 0, 63, 50
2, 942228, Note_on_c, 0, 60, 58
2, 942238, Note_off_c, 0, 61, 64
2, 942239, Control_c, 0, 64, 127
2, 942279, Control_c, 0, 64, 0
2, 942304, Note_off_c, 0, 68, 64
2, 942308, Note_off_c, 0, 63, 64
2, 942312, Control_c, 0, 64, 127
2, 942378, Note_off_c, 0, 60, 64
2, 942389, Control_c, 0, 64, 0
2, 942392, Note_on_c, 0, 68, 47
2, 942392, Note_on_c, 0, 61, 50
2, 942395, Note_on_c, 0, 58, 58
2, 942430, Note_off_c, 0, 68, 64
2, 942440, Note_on_c, 0, 68, 44
2, 942440, Note_on_c, 0, 60, 49
2, 942444, Note_on_c, 0, 56, 66
2, 942459, Note_off_c, 0, 61, 64
2, 942464, Note_off_c, 0, 58, 64
2, 942469, Control_c, 0, 64, 0
2, 942504, Control_c, 0, 64, 127
2, 942520, Note_off_c, 0, 60, 64
2, 942520, Note_off_c, 0, 68, 64
2, 942609, Control_c, 0, 64, 0
2, 942631, Control_c, 0, 64, 127
2, 942640, Note_on_c, 0, 53, 65
2, 942644, Note_on_c, 0, 60, 74
2, 942645, Note_on_c, 0, 63, 44
2, 942651, Note_on_c, 0, 68, 42
2, 942661, Note_off_c, 0, 56, 64
2, 942665, Control_c, 0, 64, 0
2, 942687, Control_c, 0, 64, 127
2, 942725, Note_off_c, 0, 63, 64
2, 942731, Note_off_c, 0, 68, 64
2, 942812, Note_off_c, 0, 53, 64
2, 942841, Note_on_c, 0, 53, 82
2, 942842, Note_on_c, 0, 46, 65
2, 942851, Note_on_c, 0, 62, 28
2, 942852, Note_on_c, 0, 68, 46
2, 942872, Note_off_c, 0, 60, 64
2, 942877, Control_c, 0, 64, 0
2, 942916, Control_c, 0, 64, 127
2, 942931, Note_off_c, 0, 62, 64
2, 942932, Note_off_c, 0, 68, 64
2, 943044, Note_on_c, 0, 62, 47
2, 943053, Note_on_c, 0, 67, 40
2, 943056, Note_on_c, 0, 55, 63
2, 943073, Note_off_c, 0, 53, 64
2, 943076, Control_c, 0, 64, 0
2, 943112, Control_c, 0, 64, 127
2, 943124, Note_off_c, 0, 62, 64
2, 943133, Note_off_c, 0, 67, 64
2, 943224, Note_on_c, 0, 65, 40
2, 943224, Note_on_c, 0, 62, 47
2, 943304, Note_off_c, 0, 62, 64
2, 943304, Note_off_c, 0, 65, 64
2, 943313, Note_on_c, 0, 56, 59
2, 943332, Note_off_c, 0, 55, 64
2, 943414, Note_on_c, 0, 61, 49
2, 943414, Note_on_c, 0, 66, 44
2, 943427, Note_on_c, 0, 51, 62
2, 943428, Note_on_c, 0, 57, 66
2, 943445, Note_off_c, 0, 56, 64
2, 943446, Note_off_c, 0, 46, 64
2, 943453, Control_c, 0, 64, 0
2, 943472, Control_c, 0, 64, 127
2, 943476, Note_off_c, 0, 66, 64
2, 943479, Note_off_c, 0, 61, 64
2, 943521, Note_on_c, 0, 60, 71
2, 943540, Note_off_c, 0, 57, 64
2, 943602, Note_on_c, 0, 58, 71
2, 943608, Note_on_c, 0, 61, 49
2, 943613, Note_on_c, 0, 67, 54
2, 943619, Note_off_c, 0, 60, 64
2, 943639, Control_c, 0, 64, 0
2, 943672, Control_c, 0, 64, 127
2, 943688, Note_off_c, 0, 61, 64
2, 943693, Note_off_c, 0, 67, 64
2, 943716, Note_on_c, 0, 63, 66
2, 943739, Note_off_c, 0, 58, 64
2, 943797, Note_off_c, 0, 51, 64
2, 943809, Note_on_c, 0, 70, 57
2, 943814, Note_on_c, 0, 61, 63
2, 943827, Note_on_c, 0, 53, 66
2, 943831, Note_off_c, 0, 63, 64
2, 943832, Control_c, 0, 64, 0
2, 943837, Control_c, 0, 64, 0
2, 943860, Control_c, 0, 64, 127
2, 943874, Note_off_c, 0, 70, 64
2, 943900, Note_off_c, 0, 61, 64
2, 944016, Note_on_c, 0, 70, 67
2, 944020, Note_on_c, 0, 61, 64
2, 944020, Note_on_c, 0, 51, 66
2, 944025, Note_on_c, 0, 44, 66
2, 944040, Note_off_c, 0, 53, 64
2, 944040, Control_c, 0, 64, 0
2, 944058, Note_on_c, 0, 63, 93
2, 944074, Control_c, 0, 64, 127
2, 944081, Note_off_c, 0, 70, 64
2, 944085, Note_off_c, 0, 61, 64
2, 944136, Control_c, 0, 64, 0
2, 944217, Note_off_c, 0, 51, 64
2, 944223, Note_on_c, 0, 51, 56
2, 944228, Note_on_c, 0, 60, 71
2, 944230, Note_off_c, 0, 63, 64
2, 944231, Note_on_c, 0, 56, 58
2, 944231, Note_on_c, 0, 72, 93
2, 944234, Note_on_c, 0, 63, 71
2, 944244, Control_c, 0, 64, 0
2, 944250, Control_c, 0, 64, 127
2, 944290, Control_c, 0, 64, 127
2, 944379, Note_off_c, 0, 51, 64
2, 944391, Note_off_c, 0, 56, 64
2, 944394, Note_off_c, 0, 63, 64
2, 944423, Note_off_c, 0, 60, 64
2, 944433, Note_off_c, 0, 44, 64
2, 944440, Note_on_c, 0, 63, 59
2, 944440, Note_on_c, 0, 60, 58
2, 944441, Note_on_c, 0, 56, 58
2, 944444, Note_on_c, 0, 51, 44
2, 944548, Note_on_c, 0, 65, 66
2, 944552, Note_on_c, 0, 73, 75
2, 944571, Note_off_c, 0, 60, 64
2, 944573, Note_off_c, 0, 72, 64
2, 944618, Note_off_c, 0, 63, 64
2, 944619, Note_off_c, 0, 56, 64
2, 944622, Note_off_c, 0, 51, 64
2, 944660, Note_on_c, 0, 72, 82
2, 944664, Note_on_c, 0, 63, 73
2, 944664, Note_on_c, 0, 44, 66
2, 944664, Note_on_c, 0, 32, 65
2, 944701, Note_off_c, 0, 65, 64
2, 944705, Note_off_c, 0, 73, 64
2, 944716, Control_c, 0, 64, 0
2, 944729, Control_c, 0, 64, 127
2, 944828, Note_on_c, 0, 70, 71
2, 944835, Note_on_c, 0, 61, 72
2, 944837, Note_off_c, 0, 72, 64
2, 944841, Note_off_c, 0, 63, 64
2, 944879, Note_on_c, 0, 68, 94
2, 944881, Note_on_c, 0, 51, 58
2, 944884, Note_on_c, 0, 63, 64
2, 944887, Note_on_c, 0, 56, 62
2, 944889, Note_on_c, 0, 60, 66
2, 944899, Note_off_c, 0, 70, 64
2, 944902, Control_c, 0, 64, 0
2, 944906, Note_off_c, 0, 61, 64
2, 944928, Control_c, 0, 64, 127
2, 944949, Note_off_c, 0, 32, 64
2, 944949, Note_off_c, 0, 44, 64
2, 945012, Note_off_c, 0, 60, 64
2, 945046, Note_off_c, 0, 51, 64
2, 945047, Note_off_c, 0, 56, 64
2, 945049, Note_off_c, 0, 63, 64
2, 945054, Note_off_c, 0, 68, 64
2, 945072, Note_on_c, 0, 68, 66
2, 945072, Note_on_c, 0, 60, 67
2, 945076, Note_on_c, 0, 72, 81
2, 945078, Note_on_c, 0, 66, 66
2, 945084, Note_on_c, 0, 63, 64
2, 945084, Note_on_c, 0, 51, 56
2, 945087, Note_on_c, 0, 56, 64
2, 945186, Note_off_c, 0, 60, 64
2, 945186, Note_off_c, 0, 68, 64
2, 945192, Note_off_c, 0, 66, 64
2, 945262, Note_off_c, 0, 51, 64
2, 945262, Note_off_c, 0, 63, 64
2, 945265, Note_off_c, 0, 56, 64
2, 945297, Note_on_c, 0, 73, 86
2, 945302, Note_on_c, 0, 65, 66
2, 945309, Note_on_c, 0, 37, 71
2, 945309, Note_on_c, 0, 49, 71
2, 945313, Note_off_c, 0, 72, 64
2, 945324, Control_c, 0, 64, 0
2, 945349, Control_c, 0, 64, 127
2, 945466, Note_off_c, 0, 65, 64
2, 945492, Note_on_c, 0, 75, 75
2, 945496, Note_on_c, 0, 56, 37
2, 945496, Note_on_c, 0, 61, 57
2, 945496, Note_on_c, 0, 65, 66
2, 945496, Note_on_c, 0, 68, 66
2, 945524, Note_off_c, 0, 73, 64
2, 945525, Control_c, 0, 64, 0
2, 945553, Control_c, 0, 64, 127
2, 945597, Note_off_c, 0, 49, 64
2, 945597, Note_off_c, 0, 37, 64
2, 945659, Note_off_c, 0, 68, 64
2, 945659, Note_off_c, 0, 61, 64
2, 945659, Note_off_c, 0, 56, 64
2, 945667, Note_off_c, 0, 65, 64
2, 945680, Note_on_c, 0, 68, 29
2, 945680, Note_on_c, 0, 61, 64
2, 945681, Note_on_c, 0, 65, 73
2, 945689, Note_on_c, 0, 56, 57
2, 945771, Note_on_c, 0, 73, 52
2, 945775, Note_on_c, 0, 77, 72
2, 945783, Note_off_c, 0, 65, 64
2, 945785, Note_off_c, 0, 75, 64
2, 945858, Note_off_c, 0, 61, 64
2, 945858, Note_off_c, 0, 68, 64
2, 945867, Note_off_c, 0, 56, 64
2, 945878, Note_on_c, 0, 74, 75
2, 945879, Note_on_c, 0, 71, 71
2, 945880, Note_on_c, 0, 32, 63
2, 945884, Note_on_c, 0, 44, 66
2, 945886, Note_off_c, 0, 73, 64
2, 945890, Note_off_c, 0, 77, 64
2, 945991, Note_off_c, 0, 74, 64
2, 945992, Note_off_c, 0, 71, 64
2, 945996, Note_on_c, 0, 77, 75
2, 945996, Note_on_c, 0, 73, 66
2, 946042, Note_on_c, 0, 75, 93
2, 946045, Note_on_c, 0, 72, 73
2, 946052, Note_off_c, 0, 73, 64
2, 946052, Note_off_c, 0, 77, 64
2, 946073, Note_off_c, 0, 72, 64
2, 946075, Note_off_c, 0, 75, 64
2, 946092, Note_on_c, 0, 63, 66
2, 946092, Note_on_c, 0, 56, 66
2, 946096, Note_on_c, 0, 75, 77
2, 946096, Note_on_c, 0, 60, 59
2, 946096, Note_on_c, 0, 51, 59
2, 946097, Note_on_c, 0, 72, 65
2, 946103, Control_c, 0, 64, 0
2, 946139, Control_c, 0, 64, 127
2, 946204, Note_off_c, 0, 56, 64
2, 946204, Note_off_c, 0, 63, 64
2, 946208, Note_off_c, 0, 51, 64
2, 946208, Note_off_c, 0, 60, 64
2, 946256, Note_on_c, 0, 51, 74
2, 946284, Note_on_c, 0, 56, 67
2, 946308, Note_on_c, 0, 60, 75
2, 946333, Note_on_c, 0, 68, 81
2, 946339, Note_on_c, 0, 84, 93
2, 946340, Note_on_c, 0, 80, 82
2, 946352, Note_off_c, 0, 75, 64
2, 946353, Note_off_c, 0, 72, 64
2, 946437, Note_off_c, 0, 32, 64
2, 946439, Control_c, 0, 64, 0
2, 946475, Control_c, 0, 64, 127
2, 946566, Note_off_c, 0, 56, 64
2, 946571, Note_off_c, 0, 44, 64
2, 946579, Note_off_c, 0, 51, 64
2, 946580, Note_off_c, 0, 60, 64
2, 946587, Control_c, 0, 64, 0
2, 946598, Note_on_c, 0, 44, 66
2, 946623, Control_c, 0, 64, 127
2, 946635, Control_c, 0, 64, 0
2, 946643, Control_c, 0, 64, 0
2, 946644, Control_c, 0, 64, 0
2, 946656, Note_off_c, 0, 68, 64
2, 946660, Control_c, 0, 64, 127
2, 946675, Note_off_c, 0, 84, 64
2, 946676, Note_off_c, 0, 80, 64
2, 946890, Note_on_c, 0, 75, 66
2, 946893, Note_on_c, 0, 56, 71
2, 946893, Note_on_c, 0, 66, 55
2, 946909, Note_off_c, 0, 44, 64
2, 946934, Control_c, 0, 64, 0
2, 946986, Control_c, 0, 64, 127
2, 947139, Note_on_c, 0, 48, 49
2, 947172, Control_c, 0, 64, 0
2, 947198, Control_c, 0, 64, 127
2, 947253, Note_on_c, 0, 74, 48
2, 947265, Note_off_c, 0, 75, 64
2, 947352, Note_on_c, 0, 65, 29
2, 947358, Note_on_c, 0, 73, 58
2, 947364, Note_off_c, 0, 74, 64
2, 947365, Note_off_c, 0, 66, 64
2, 947366, Note_on_c, 0, 49, 29
2, 947391, Note_off_c, 0, 48, 64
2, 947447, Note_off_c, 0, 65, 64
2, 947449, Note_on_c, 0, 66, 42
2, 947454, Note_on_c, 0, 72, 69
2, 947459, Note_on_c, 0, 57, 58
2, 947463, Note_off_c, 0, 73, 64
2, 947475, Note_off_c, 0, 56, 64
2, 947551, Note_on_c, 0, 70, 79
2, 947552, Note_on_c, 0, 65, 59
2, 947557, Note_off_c, 0, 66, 64
2, 947557, Note_on_c, 0, 58, 65
2, 947562, Note_off_c, 0, 72, 64
2, 947579, Control_c, 0, 64, 0
2, 947589, Note_off_c, 0, 57, 64
2, 947616, Control_c, 0, 64, 127
2, 947713, Note_off_c, 0, 58, 64
2, 947726, Note_off_c, 0, 70, 64
2, 947727, Note_off_c, 0, 65, 64
2, 947728, Note_on_c, 0, 58, 65
2, 947731, Note_on_c, 0, 77, 59
2, 947731, Note_on_c, 0, 68, 63
2, 947731, Note_on_c, 0, 50, 56
2, 947749, Note_off_c, 0, 49, 64
2, 947756, Control_c, 0, 64, 0
2, 947779, Control_c, 0, 64, 127
2, 947896, Note_on_c, 0, 67, 24
2, 947898, Note_on_c, 0, 51, 58
2, 947904, Note_on_c, 0, 75, 58
2, 947913, Control_c, 0, 64, 0
2, 947917, Note_off_c, 0, 50, 64
2, 947919, Note_off_c, 0, 68, 64
2, 947919, Note_off_c, 0, 77, 64
2, 947926, Control_c, 0, 64, 127
2, 947992, Note_on_c, 0, 68, 52
2, 947995, Note_on_c, 0, 74, 59
2, 947998, Note_off_c, 0, 67, 64
2, 947998, Note_on_c, 0, 59, 49
2, 948006, Note_off_c, 0, 75, 64
2, 948033, Note_off_c, 0, 58, 64
2, 948084, Note_on_c, 0, 60, 52
2, 948090, Note_on_c, 0, 72, 66
2, 948093, Note_on_c, 0, 67, 56
2, 948098, Note_off_c, 0, 68, 64
2, 948099, Note_off_c, 0, 59, 64
2, 948101, Note_off_c, 0, 74, 64
2, 948106, Control_c, 0, 64, 0
2, 948130, Control_c, 0, 64, 127
2, 948248, Note_off_c, 0, 72, 64
2, 948251, Note_off_c, 0, 67, 64
2, 948254, Note_on_c, 0, 79, 63
2, 948254, Note_on_c, 0, 52, 56
2, 948256, Note_on_c, 0, 70, 66
2, 948292, Note_off_c, 0, 51, 64
2, 948344, Note_on_c, 0, 61, 58
2, 948388, Note_off_c, 0, 60, 64
2, 948424, Note_on_c, 0, 62, 56
2, 948435, Note_on_c, 0, 53, 71
2, 948440, Note_on_c, 0, 69, 66
2, 948441, Note_on_c, 0, 77, 66
2, 948446, Note_off_c, 0, 61, 64
2, 948451, Note_off_c, 0, 79, 64
2, 948453, Note_off_c, 0, 70, 64
2, 948453, Control_c, 0, 64, 0
2, 948463, Note_off_c, 0, 52, 64
2, 948464, Control_c, 0, 64, 127
2, 948508, Note_on_c, 0, 61, 1
2, 948516, Note_on_c, 0, 70, 52
2, 948522, Note_on_c, 0, 76, 66
2, 948524, Note_on_c, 0, 55, 62
2, 948526, Note_off_c, 0, 69, 64
2, 948527, Note_off_c, 0, 77, 64
2, 948529, Note_off_c, 0, 62, 64
2, 948545, Note_off_c, 0, 53, 64
2, 948600, Note_on_c, 0, 69, 28
2, 948600, Note_on_c, 0, 54, 58
2, 948607, Note_on_c, 0, 74, 66
2, 948611, Note_off_c, 0, 70, 64
2, 948614, Note_on_c, 0, 62, 58
2, 948617, Note_off_c, 0, 76, 64
2, 948623, Note_off_c, 0, 55, 64
2, 948623, Note_off_c, 0, 61, 64
2, 948624, Control_c, 0, 64, 0
2, 948637, Control_c, 0, 64, 127
2, 948786, Note_on_c, 0, 72, 65
2, 948792, Note_on_c, 0, 81, 65
2, 948793, Note_off_c, 0, 69, 64
2, 948797, Note_on_c, 0, 63, 58
2, 948797, Note_on_c, 0, 53, 59
2, 948800, Note_off_c, 0, 74, 64
2, 948808, Note_off_c, 0, 62, 64
2, 948810, Note_off_c, 0, 54, 64
2, 948815, Control_c, 0, 64, 0
2, 948836, Control_c, 0, 64, 127
2, 948874, Note_on_c, 0, 71, 42
2, 948884, Note_off_c, 0, 72, 64
2, 948946, Note_off_c, 0, 71, 64
2, 948968, Note_on_c, 0, 71, 48
2, 948970, Note_on_c, 0, 52, 47
2, 948974, Note_on_c, 0, 80, 57
2, 948978, Note_off_c, 0, 63, 64
2, 948980, Note_off_c, 0, 81, 64
2, 948980, Note_on_c, 0, 64, 42
2, 948988, Note_off_c, 0, 53, 64
2, 949057, Note_off_c, 0, 64, 64
2, 949069, Note_on_c, 0, 79, 58
2, 949072, Note_on_c, 0, 73, 58
2, 949074, Note_off_c, 0, 71, 64
2, 949079, Note_off_c, 0, 80, 64
2, 949084, Note_on_c, 0, 57, 62
2, 949086, Note_on_c, 0, 64, 56
2, 949121, Note_off_c, 0, 52, 64
2, 949142, Note_off_c, 0, 64, 64
2, 949154, Note_off_c, 0, 73, 64
2, 949160, Note_on_c, 0, 78, 63
2, 949167, Note_on_c, 0, 64, 54
2, 949167, Note_on_c, 0, 73, 62
2, 949174, Note_on_c, 0, 58, 63
2, 949177, Note_off_c, 0, 79, 64
2, 949183, Control_c, 0, 64, 0
2, 949186, Note_off_c, 0, 57, 64
2, 949219, Control_c, 0, 64, 127
2, 949356, Note_on_c, 0, 77, 57
2, 949358, Note_off_c, 0, 73, 64
2, 949360, Note_on_c, 0, 68, 56
2, 949364, Note_on_c, 0, 59, 59
2, 949364, Note_on_c, 0, 62, 57
2, 949368, Note_off_c, 0, 78, 64
2, 949376, Control_c, 0, 64, 0
2, 949379, Note_off_c, 0, 64, 64
2, 949395, Note_off_c, 0, 58, 64
2, 949396, Control_c, 0, 64, 127
2, 949456, Note_on_c, 0, 67, 50
2, 949462, Note_off_c, 0, 68, 64
2, 949517, Note_off_c, 0, 67, 64
2, 949531, Control_c, 0, 64, 0
2, 949535, Note_off_c, 0, 62, 64
2, 949537, Note_on_c, 0, 60, 67
2, 949544, Note_on_c, 0, 67, 33
2, 949545, Note_on_c, 0, 76, 67
2, 949553, Note_off_c, 0, 77, 64
2, 949553, Note_off_c, 0, 59, 64
2, 949559, Control_c, 0, 64, 127
2, 949616, Note_off_c, 0, 60, 64
2, 949625, Note_on_c, 0, 69, 57
2, 949630, Note_on_c, 0, 75, 71
2, 949635, Note_on_c, 0, 53, 48
2, 949637, Note_on_c, 0, 60, 41
2, 949639, Note_off_c, 0, 67, 64
2, 949643, Note_off_c, 0, 76, 64
2, 949703, Note_off_c, 0, 69, 64
2, 949715, Note_off_c, 0, 60, 64
2, 949720, Note_on_c, 0, 69, 41
2, 949726, Note_on_c, 0, 74, 63
2, 949728, Note_on_c, 0, 54, 44
2, 949733, Note_on_c, 0, 60, 18
2, 949738, Note_off_c, 0, 75, 64
2, 949750, Note_off_c, 0, 53, 64
2, 949758, Control_c, 0, 64, 0
2, 949780, Control_c, 0, 64, 127
2, 949820, Note_off_c, 0, 60, 64
2, 949910, Note_on_c, 0, 73, 57
2, 949912, Note_on_c, 0, 64, 56
2, 949914, Note_off_c, 0, 69, 64
2, 949916, Note_on_c, 0, 55, 41
2, 949920, Note_off_c, 0, 74, 64
2, 949920, Note_on_c, 0, 58, 18
2, 949929, Note_off_c, 0, 54, 64
2, 949946, Control_c, 0, 64, 0
2, 949970, Control_c, 0, 64, 127
2, 950044, Note_off_c, 0, 64, 64
2, 950082, Note_on_c, 0, 56, 54
2, 950084, Note_on_c, 0, 64, 22
2, 950084, Note_on_c, 0, 72, 54
2, 950099, Note_off_c, 0, 73, 64
2, 950100, Note_off_c, 0, 55, 64
2, 950104, Note_off_c, 0, 58, 64
2, 950171, Note_off_c, 0, 56, 64
2, 950172, Note_on_c, 0, 71, 47
2, 950172, Note_on_c, 0, 65, 54
2, 950179, Note_off_c, 0, 72, 64
2, 950179, Note_off_c, 0, 64, 64
2, 950184, Note_on_c, 0, 49, 39
2, 950186, Note_on_c, 0, 56, 39
2, 950266, Note_off_c, 0, 65, 64
2, 950268, Note_off_c, 0, 56, 64
2, 950271, Note_on_c, 0, 70, 55
2, 950272, Note_on_c, 0, 65, 56
2, 950273, Note_on_c, 0, 50, 44
2, 950282, Note_off_c, 0, 71, 64
2, 950284, Note_on_c, 0, 56, 46
2, 950294, Note_off_c, 0, 49, 64
2, 950300, Control_c, 0, 64, 0
2, 950336, Control_c, 0, 64, 127
2, 950375, Note_off_c, 0, 56, 64
2, 950481, Note_on_c, 0, 69, 47
2, 950483, Note_on_c, 0, 60, 48
2, 950488, Note_on_c, 0, 54, 22
2, 950489, Note_on_c, 0, 51, 42
2, 950505, Note_off_c, 0, 70, 64
2, 950505, Note_off_c, 0, 65, 64
2, 950513, Control_c, 0, 64, 0
2, 950515, Note_off_c, 0, 50, 64
2, 950537, Control_c, 0, 64, 127
2, 950692, Note_on_c, 0, 52, 47
2, 950696, Note_on_c, 0, 56, 62
2, 950709, Note_on_c, 0, 68, 62
2, 950709, Note_on_c, 0, 59, 47
2, 950720, Note_off_c, 0, 69, 64
2, 950722, Note_off_c, 0, 60, 64
2, 950728, Note_off_c, 0, 54, 64
2, 950729, Note_off_c, 0, 51, 64
2, 950825, Note_off_c, 0, 59, 64
2, 950851, Note_off_c, 0, 68, 64
2, 950868, Note_on_c, 0, 68, 55
2, 950869, Note_on_c, 0, 59, 29
2, 950872, Note_off_c, 0, 56, 64
2, 950872, Note_on_c, 0, 50, 33
2, 950872, Note_on_c, 0, 64, 46
2, 950886, Note_off_c, 0, 52, 64
2, 950895, Control_c, 0, 64, 0
2, 950929, Control_c, 0, 64, 127
2, 951057, Note_off_c, 0, 68, 64
2, 951089, Note_on_c, 0, 68, 52
2, 951097, Note_on_c, 0, 51, 26
2, 951100, Note_on_c, 0, 60, 23
2, 951101, Note_on_c, 0, 63, 29
2, 951105, Note_off_c, 0, 50, 64
2, 951118, Note_off_c, 0, 59, 64
2, 951121, Note_off_c, 0, 64, 64
2, 951136, Control_c, 0, 64, 0
2, 951188, Control_c, 0, 64, 127
2, 951432, Note_on_c, 0, 77, 36
2, 951450, Note_off_c, 0, 60, 64
2, 951450, Note_off_c, 0, 63, 64
2, 951453, Note_off_c, 0, 51, 64
2, 951463, Note_off_c, 0, 68, 64
2, 951472, Note_on_c, 0, 51, 41
2, 951488, Note_on_c, 0, 58, 42
2, 951508, Note_on_c, 0, 61, 23
2, 951520, Note_on_c, 0, 67, 57
2, 951585, Note_off_c, 0, 77, 64
2, 951602, Control_c, 0, 64, 0
2, 951627, Control_c, 0, 64, 127
2, 951787, Note_off_c, 0, 51, 64
2, 951803, Note_off_c, 0, 58, 64
2, 951823, Note_off_c, 0, 61, 64
2, 951860, Note_on_c, 0, 68, 59
2, 951873, Note_on_c, 0, 60, 56
2, 951875, Note_on_c, 0, 32, 44
2, 951877, Note_on_c, 0, 44, 29
2, 951893, Note_off_c, 0, 67, 64
2, 951903, Control_c, 0, 64, 0
2, 951937, Control_c, 0, 64, 127
2, 952158, Note_off_c, 0, 60, 64
2, 952169, Note_on_c, 0, 75, 63
2, 952179, Note_on_c, 0, 66, 40
2, 952185, Note_on_c, 0, 56, 36
2, 952187, Note_on_c, 0, 60, 36
2, 952194, Note_off_c, 0, 68, 64
2, 952207, Control_c, 0, 64, 0
2, 952222, Control_c, 0, 64, 127
2, 952224, Note_off_c, 0, 32, 64
2, 952226, Note_off_c, 0, 44, 64
2, 952297, Note_off_c, 0, 56, 64
2, 952323, Note_off_c, 0, 60, 64
2, 952339, Note_off_c, 0, 66, 64
2, 952396, Note_on_c, 0, 56, 36
2, 952396, Note_on_c, 0, 51, 36
2, 952398, Note_on_c, 0, 60, 46
2, 952488, Note_on_c, 0, 77, 59
2, 952515, Note_off_c, 0, 75, 64
2, 952570, Note_on_c, 0, 44, 58
2, 952580, Note_on_c, 0, 75, 62
2, 952593, Note_off_c, 0, 77, 64
2, 952600, Control_c, 0, 64, 0
2, 952618, Control_c, 0, 64, 127
2, 952620, Note_off_c, 0, 51, 64
2, 952620, Note_off_c, 0, 56, 64
2, 952622, Note_off_c, 0, 60, 64
2, 952667, Note_on_c, 0, 74, 62
2, 952675, Note_off_c, 0, 75, 64
2, 952743, Note_on_c, 0, 56, 40
2, 952745, Note_on_c, 0, 61, 42
2, 952754, Note_on_c, 0, 73, 65
2, 952755, Note_on_c, 0, 65, 36
2, 952768, Note_off_c, 0, 74, 64
2, 952776, Control_c, 0, 64, 0
2, 952800, Control_c, 0, 64, 127
2, 952852, Note_off_c, 0, 65, 64
2, 952853, Note_off_c, 0, 61, 64
2, 952856, Note_off_c, 0, 44, 64
2, 952873, Note_off_c, 0, 56, 64
2, 952935, Note_on_c, 0, 53, 36
2, 952935, Note_on_c, 0, 61, 47
2, 952941, Note_on_c, 0, 56, 48
2, 952947, Note_on_c, 0, 80, 64
2, 952968, Note_off_c, 0, 73, 64
2, 953113, Note_off_c, 0, 61, 64
2, 953113, Note_off_c, 0, 53, 64
2, 953119, Note_off_c, 0, 56, 64
2, 953121, Note_on_c, 0, 44, 59
2, 953153, Control_c, 0, 64, 0
2, 953169, Control_c, 0, 64, 127
2, 953307, Note_on_c, 0, 55, 36
2, 953315, Note_on_c, 0, 72, 66
2, 953318, Note_off_c, 0, 80, 64
2, 953320, Note_on_c, 0, 64, 36
2, 953320, Note_on_c, 0, 60, 26
2, 953343, Control_c, 0, 64, 0
2, 953377, Control_c, 0, 64, 127
2, 953409, Note_off_c, 0, 44, 64
2, 953463, Note_off_c, 0, 55, 64
2, 953465, Note_off_c, 0, 60, 64
2, 953489, Note_off_c, 0, 64, 64
2, 953496, Note_on_c, 0, 55, 44
2, 953503, Note_on_c, 0, 52, 44
2, 953508, Note_on_c, 0, 60, 46
2, 953583, Note_on_c, 0, 73, 56
2, 953599, Note_off_c, 0, 72, 64
2, 953673, Note_on_c, 0, 72, 62
2, 953674, Note_off_c, 0, 55, 64
2, 953681, Note_off_c, 0, 52, 64
2, 953681, Note_on_c, 0, 44, 62
2, 953686, Note_off_c, 0, 60, 64
2, 953689, Note_off_c, 0, 73, 64
2, 953702, Control_c, 0, 64, 0
2, 953727, Control_c, 0, 64, 127
2, 953765, Note_on_c, 0, 70, 59
2, 953780, Note_off_c, 0, 72, 64
2, 953850, Note_on_c, 0, 63, 36
2, 953855, Note_on_c, 0, 61, 44
2, 953856, Note_on_c, 0, 55, 44
2, 953862, Control_c, 0, 64, 0
2, 953866, Note_on_c, 0, 77, 57
2, 953907, Control_c, 0, 64, 127
2, 953912, Note_off_c, 0, 70, 64
2, 953949, Note_on_c, 0, 75, 58
2, 953969, Note_off_c, 0, 77, 64
2, 953976, Note_off_c, 0, 44, 64
2, 954006, Note_off_c, 0, 63, 64
2, 954011, Note_off_c, 0, 61, 64
2, 954012, Note_off_c, 0, 55, 64
2, 954036, Note_on_c, 0, 58, 36
2, 954043, Note_on_c, 0, 61, 44
2, 954046, Note_on_c, 0, 67, 56
2, 954053, Note_on_c, 0, 51, 36
2, 954104, Note_off_c, 0, 75, 64
2, 954280, Note_on_c, 0, 68, 56
2, 954293, Note_on_c, 0, 32, 61
2, 954294, Control_c, 0, 64, 0
2, 954304, Control_c, 0, 64, 0
2, 954327, Control_c, 0, 64, 127
2, 954329, Note_off_c, 0, 58, 64
2, 954336, Note_off_c, 0, 61, 64
2, 954346, Note_off_c, 0, 51, 64
2, 954350, Note_off_c, 0, 67, 64
2, 954519, Note_on_c, 0, 66, 24
2, 954524, Note_off_c, 0, 68, 64
2, 954528, Note_on_c, 0, 60, 32
2, 954535, Note_on_c, 0, 56, 13
2, 954554, Note_on_c, 0, 75, 56
2, 954587, Note_off_c, 0, 32, 64
2, 954588, Control_c, 0, 64, 0
2, 954610, Control_c, 0, 64, 127
2, 954678, Note_off_c, 0, 56, 64
2, 954685, Note_off_c, 0, 66, 64
2, 954694, Note_off_c, 0, 60, 64
2, 954744, Note_on_c, 0, 56, 27
2, 954749, Note_on_c, 0, 60, 33
2, 954757, Note_on_c, 0, 51, 27
2, 954837, Note_on_c, 0, 77, 50
2, 954854, Note_off_c, 0, 75, 64
2, 954922, Note_off_c, 0, 56, 64
2, 954927, Note_off_c, 0, 60, 64
2, 954935, Note_off_c, 0, 51, 64
2, 954935, Note_on_c, 0, 44, 47
2, 954943, Note_on_c, 0, 75, 44
2, 954966, Note_off_c, 0, 77, 64
2, 954973, Control_c, 0, 64, 0
2, 954989, Control_c, 0, 64, 127
2, 955036, Note_on_c, 0, 74, 46
2, 955047, Note_off_c, 0, 75, 64
2, 955134, Note_on_c, 0, 73, 54
2, 955139, Note_on_c, 0, 64, 33
2, 955140, Note_on_c, 0, 56, 23
2, 955144, Note_on_c, 0, 61, 23
2, 955151, Note_off_c, 0, 74, 64
2, 955215, Note_off_c, 0, 44, 64
2, 955253, Note_on_c, 0, 82, 57
2, 955292, Note_off_c, 0, 73, 64
2, 955295, Note_off_c, 0, 64, 64
2, 955296, Note_off_c, 0, 56, 64
2, 955300, Note_off_c, 0, 61, 64
2, 955382, Note_on_c, 0, 80, 50
2, 955392, Note_on_c, 0, 58, 12
2, 955392, Note_on_c, 0, 56, 23
2, 955400, Note_on_c, 0, 52, 18
2, 955401, Note_off_c, 0, 82, 64
2, 955570, Note_off_c, 0, 56, 64
2, 955570, Note_off_c, 0, 58, 64
2, 955578, Note_off_c, 0, 52, 64
2, 955617, Note_on_c, 0, 44, 47
2, 955633, Control_c, 0, 64, 0
2, 955657, Control_c, 0, 64, 127
2, 955671, Note_off_c, 0, 80, 64
2, 955826, Note_on_c, 0, 63, 31
2, 955830, Note_on_c, 0, 56, 24
2, 955830, Note_on_c, 0, 71, 52
2, 955832, Note_on_c, 0, 59, 24
2, 955853, Control_c, 0, 64, 0
2, 955887, Control_c, 0, 64, 127
2, 955911, Note_off_c, 0, 44, 64
2, 955982, Note_off_c, 0, 63, 64
2, 955986, Note_off_c, 0, 56, 64
2, 955988, Note_off_c, 0, 59, 64
2, 956000, Note_on_c, 0, 59, 29
2, 956008, Note_on_c, 0, 56, 29
2, 956010, Note_on_c, 0, 51, 29
2, 956092, Note_on_c, 0, 73, 49
2, 956115, Note_off_c, 0, 71, 64
2, 956189, Note_on_c, 0, 39, 50
2, 956198, Note_on_c, 0, 71, 54
2, 956208, Control_c, 0, 64, 0
2, 956213, Note_off_c, 0, 73, 64
2, 956222, Note_off_c, 0, 59, 64
2, 956230, Note_off_c, 0, 56, 64
2, 956232, Note_off_c, 0, 51, 64
2, 956252, Control_c, 0, 64, 127
2, 956296, Note_on_c, 0, 70, 49
2, 956309, Note_off_c, 0, 71, 64
2, 956403, Note_on_c, 0, 61, 26
2, 956403, Note_on_c, 0, 55, 31
2, 956409, Note_on_c, 0, 51, 16
2, 956416, Note_on_c, 0, 76, 44
2, 956429, Control_c, 0, 64, 0
2, 956442, Control_c, 0, 64, 127
2, 956482, Note_off_c, 0, 39, 64
2, 956488, Note_off_c, 0, 70, 64
2, 956519, Note_on_c, 0, 75, 36
2, 956536, Note_off_c, 0, 76, 64
2, 956615, Note_on_c, 0, 39, 40
2, 956628, Note_on_c, 0, 67, 52
2, 956630, Control_c, 0, 64, 0
2, 956660, Note_off_c, 0, 55, 64
2, 956660, Note_off_c, 0, 61, 64
2, 956661, Note_off_c, 0, 75, 64
2, 956662, Control_c, 0, 64, 127
2, 956666, Note_off_c, 0, 51, 64
2, 956858, Note_off_c, 0, 67, 64
2, 956862, Control_c, 0, 64, 0
2, 956867, Note_on_c, 0, 44, 50
2, 956871, Note_off_c, 0, 39, 64
2, 956908, Control_c, 0, 64, 127
2, 957098, Note_on_c, 0, 51, 24
2, 957113, Note_on_c, 0, 60, 23
2, 957114, Note_on_c, 0, 56, 21
2, 957136, Note_on_c, 0, 72, 56
2, 957155, Control_c, 0, 64, 0
2, 957173, Note_off_c, 0, 44, 64
2, 957181, Control_c, 0, 64, 127
2, 957254, Note_off_c, 0, 51, 64
2, 957269, Note_off_c, 0, 60, 64
2, 957270, Note_off_c, 0, 56, 64
2, 957351, Note_on_c, 0, 44, 46
2, 957457, Note_on_c, 0, 73, 50
2, 957478, Note_off_c, 0, 72, 64
2, 957599, Note_on_c, 0, 39, 40
2, 957609, Note_off_c, 0, 44, 64
2, 957614, Note_on_c, 0, 72, 48
2, 957637, Control_c, 0, 64, 0
2, 957651, Note_off_c, 0, 73, 64
2, 957666, Control_c, 0, 64, 127
2, 957732, Note_on_c, 0, 70, 46
2, 957741, Note_off_c, 0, 72, 64
2, 957856, Note_on_c, 0, 55, 24
2, 957858, Note_on_c, 0, 61, 24
2, 957862, Note_on_c, 0, 51, 27
2, 957884, Note_on_c, 0, 77, 46
2, 957905, Note_off_c, 0, 39, 64
2, 957923, Note_off_c, 0, 70, 64
2, 958010, Note_on_c, 0, 75, 47
2, 958012, Note_off_c, 0, 55, 64
2, 958014, Note_off_c, 0, 61, 64
2, 958018, Note_off_c, 0, 51, 64
2, 958023, Note_off_c, 0, 77, 64
2, 958148, Note_on_c, 0, 67, 48
2, 958148, Note_on_c, 0, 39, 44
2, 958167, Note_off_c, 0, 75, 64
2, 958315, Note_off_c, 0, 39, 64
2, 958371, Note_off_c, 0, 67, 64
2, 958412, Note_on_c, 0, 38, 65
2, 958439, Control_c, 0, 64, 0
2, 958463, Control_c, 0, 64, 127
2, 958686, Note_on_c, 0, 55, 30
2, 958694, Note_on_c, 0, 50, 34
2, 958694, Note_on_c, 0, 62, 34
2, 958703, Note_on_c, 0, 71, 62
2, 958724, Control_c, 0, 64, 0
2, 958749, Control_c, 0, 64, 127
2, 958877, Note_off_c, 0, 50, 64
2, 958885, Note_off_c, 0, 55, 64
2, 958903, Note_off_c, 0, 62, 64
2, 958968, Note_on_c, 0, 67, 39
2, 958970, Note_on_c, 0, 55, 29
2, 958971, Note_off_c, 0, 38, 64
2, 958976, Note_on_c, 0, 62, 32
2, 959009, Control_c, 0, 64, 0
2, 959021, Control_c, 0, 64, 127
2, 959117, Note_on_c, 0, 72, 57
2, 959150, Note_off_c, 0, 71, 64
2, 959163, Note_off_c, 0, 55, 64
2, 959192, Note_off_c, 0, 67, 64
2, 959200, Note_off_c, 0, 62, 64
2, 959244, Note_on_c, 0, 64, 40
2, 959246, Note_on_c, 0, 49, 26
2, 959255, Note_on_c, 0, 71, 58
2, 959255, Note_on_c, 0, 55, 36
2, 959275, Note_off_c, 0, 72, 64
2, 959389, Note_on_c, 0, 70, 44
2, 959421, Note_off_c, 0, 71, 64
2, 959505, Note_off_c, 0, 64, 64
2, 959507, Note_off_c, 0, 49, 64
2, 959512, Note_on_c, 0, 46, 50
2, 959516, Note_off_c, 0, 55, 64
2, 959562, Note_on_c, 0, 61, 44
2, 959568, Note_on_c, 0, 76, 56
2, 959599, Note_off_c, 0, 70, 64
2, 959616, Control_c, 0, 64, 0
2, 959638, Control_c, 0, 64, 127
2, 959738, Note_on_c, 0, 75, 54
2, 959765, Note_off_c, 0, 76, 64
2, 959914, Note_off_c, 0, 46, 64
2, 959939, Note_off_c, 0, 61, 64
2, 959948, Note_on_c, 0, 67, 59
2, 959951, Note_on_c, 0, 61, 29
2, 959955, Note_on_c, 0, 58, 24
2, 959960, Note_on_c, 0, 51, 16
2, 959978, Note_off_c, 0, 75, 64
2, 959990, Control_c, 0, 64, 0
2, 960035, Control_c, 0, 64, 127
2, 960342, Note_on_c, 0, 44, 44
2, 960372, Control_c, 0, 64, 0
2, 960405, Control_c, 0, 64, 127
2, 960433, Note_off_c, 0, 51, 64
2, 960468, Note_off_c, 0, 58, 64
2, 960503, Note_on_c, 0, 68, 59
2, 960508, Note_off_c, 0, 61, 64
2, 960540, Note_off_c, 0, 67, 64
2, 960600, Note_on_c, 0, 56, 28
2, 960608, Note_on_c, 0, 60, 24
2, 960611, Note_on_c, 0, 62, 62
2, 960615, Note_on_c, 0, 51, 32
2, 960621, Note_off_c, 0, 68, 64
2, 960638, Control_c, 0, 64, 0
2, 960661, Control_c, 0, 64, 127
2, 960678, Note_off_c, 0, 60, 64
2, 960681, Note_off_c, 0, 56, 64
2, 960691, Note_off_c, 0, 51, 64
2, 960706, Note_on_c, 0, 63, 56
2, 960744, Note_off_c, 0, 62, 64
2, 960781, Control_c, 0, 64, 0
2, 960788, Note_on_c, 0, 56, 40
2, 960793, Note_on_c, 0, 51, 40
2, 960798, Note_on_c, 0, 60, 35
2, 960798, Note_on_c, 0, 68, 75
2, 960816, Note_off_c, 0, 63, 64
2, 960822, Control_c, 0, 64, 127
2, 960865, Note_on_c, 0, 73, 56
2, 960882, Note_off_c, 0, 68, 64
2, 960955, Note_on_c, 0, 72, 71
2, 960958, Note_off_c, 0, 51, 64
2, 960962, Note_off_c, 0, 73, 64
2, 960970, Note_off_c, 0, 56, 64
2, 960982, Note_off_c, 0, 60, 64
2, 961026, Note_on_c, 0, 70, 63
2, 961041, Note_off_c, 0, 72, 64
2, 961079, Note_on_c, 0, 51, 37
2, 961083, Note_on_c, 0, 60, 47
2, 961084, Note_on_c, 0, 56, 40
2, 961086, Note_on_c, 0, 68, 77
2, 961102, Note_off_c, 0, 70, 64
2, 961167, Note_on_c, 0, 72, 57
2, 961185, Note_off_c, 0, 68, 64
2, 961230, Note_on_c, 0, 77, 63
2, 961248, Note_off_c, 0, 72, 64
2, 961300, Note_on_c, 0, 72, 66
2, 961317, Note_off_c, 0, 77, 64
2, 961364, Note_on_c, 0, 75, 66
2, 961371, Note_on_c, 0, 32, 67
2, 961381, Note_off_c, 0, 51, 64
2, 961385, Note_off_c, 0, 56, 64
2, 961386, Note_off_c, 0, 60, 64
2, 961393, Note_off_c, 0, 44, 64
2, 961398, Note_off_c, 0, 72, 64
2, 961431, Note_on_c, 0, 73, 59
2, 961444, Note_off_c, 0, 75, 64
2, 961492, Control_c, 0, 64, 0
2, 961500, Note_on_c, 0, 60, 64
2, 961505, Note_on_c, 0, 56, 58
2, 961509, Note_on_c, 0, 72, 77
2, 961512, Note_on_c, 0, 51, 2
2, 961519, Note_off_c, 0, 73, 64
2, 961524, Control_c, 0, 64, 127
2, 961560, Note_on_c, 0, 75, 66
2, 961584, Note_off_c, 0, 72, 64
2, 961614, Note_on_c, 0, 80, 66
2, 961648, Note_off_c, 0, 75, 64
2, 961682, Note_on_c, 0, 77, 67
2, 961689, Note_off_c, 0, 80, 64
2, 961741, Note_on_c, 0, 75, 71
2, 961774, Note_off_c, 0, 77, 64
2, 961797, Note_on_c, 0, 84, 81
2, 961808, Note_off_c, 0, 60, 64
2, 961813, Note_off_c, 0, 56, 64
2, 961820, Note_off_c, 0, 51, 64
2, 961825, Note_off_c, 0, 75, 64
2, 961847, Note_on_c, 0, 79, 73
2, 961868, Note_off_c, 0, 84, 64
2, 961892, Note_off_c, 0, 32, 64
2, 961907, Note_on_c, 0, 80, 83
2, 961922, Note_off_c, 0, 79, 64
2, 961964, Note_on_c, 0, 68, 71
2, 961964, Note_on_c, 0, 59, 26
2, 961966, Note_on_c, 0, 56, 41
2, 961970, Note_on_c, 0, 74, 82
2, 961993, Note_off_c, 0, 80, 64
2, 962029, Note_on_c, 0, 79, 63
2, 962037, Note_off_c, 0, 59, 64
2, 962037, Note_off_c, 0, 68, 64
2, 962039, Note_off_c, 0, 56, 64
2, 962053, Note_off_c, 0, 74, 64
2, 962076, Note_on_c, 0, 77, 77
2, 962076, Note_on_c, 0, 68, 52
2, 962076, Note_on_c, 0, 60, 29
2, 962084, Note_on_c, 0, 56, 28
2, 962097, Control_c, 0, 64, 0
2, 962102, Note_off_c, 0, 79, 64
2, 962130, Note_on_c, 0, 76, 57
2, 962134, Control_c, 0, 64, 127
2, 962145, Note_off_c, 0, 77, 64
2, 962197, Note_on_c, 0, 75, 59
2, 962205, Note_off_c, 0, 76, 64
2, 962248, Note_on_c, 0, 74, 67
2, 962260, Note_off_c, 0, 75, 64
2, 962289, Note_off_c, 0, 60, 64
2, 962289, Note_off_c, 0, 68, 64
2, 962297, Note_off_c, 0, 56, 64
2, 962309, Note_on_c, 0, 73, 74
2, 962321, Note_off_c, 0, 74, 64
2, 962353, Note_on_c, 0, 71, 74
2, 962362, Note_off_c, 0, 73, 64
2, 962412, Note_on_c, 0, 72, 73
2, 962413, Note_on_c, 0, 63, 62
2, 962426, Note_off_c, 0, 71, 64
2, 962459, Note_on_c, 0, 62, 62
2, 962461, Note_on_c, 0, 71, 66
2, 962465, Note_off_c, 0, 63, 64
2, 962488, Note_off_c, 0, 72, 64
2, 962517, Note_on_c, 0, 61, 66
2, 962523, Note_on_c, 0, 70, 66
2, 962529, Note_off_c, 0, 62, 64
2, 962533, Note_off_c, 0, 71, 64
2, 962576, Note_on_c, 0, 69, 71
2, 962581, Note_on_c, 0, 60, 54
2, 962583, Note_off_c, 0, 70, 64
2, 962589, Note_off_c, 0, 61, 64
2, 962628, Note_on_c, 0, 59, 44
2, 962631, Note_on_c, 0, 68, 66
2, 962633, Note_off_c, 0, 60, 64
2, 962641, Note_off_c, 0, 69, 64
2, 962684, Note_on_c, 0, 58, 44
2, 962685, Note_on_c, 0, 64, 57
2, 962692, Note_off_c, 0, 59, 64
2, 962697, Note_off_c, 0, 68, 64
2, 962745, Note_on_c, 0, 67, 64
2, 962749, Note_on_c, 0, 57, 66
2, 962754, Note_off_c, 0, 58, 64
2, 962756, Note_off_c, 0, 64, 64
2, 962756, Control_c, 0, 64, 0
2, 962770, Control_c, 0, 64, 127
2, 962793, Note_on_c, 0, 65, 52
2, 962796, Note_on_c, 0, 56, 52
2, 962810, Note_off_c, 0, 57, 64
2, 962812, Note_off_c, 0, 67, 64
2, 962836, Note_on_c, 0, 55, 39
2, 962837, Note_on_c, 0, 64, 64
2, 962851, Note_off_c, 0, 56, 64
2, 962856, Note_off_c, 0, 65, 64
2, 962896, Note_on_c, 0, 54, 37
2, 962898, Note_on_c, 0, 63, 50
2, 962899, Note_off_c, 0, 55, 64
2, 962906, Note_off_c, 0, 64, 64
2, 962941, Note_on_c, 0, 61, 57
2, 962944, Note_on_c, 0, 53, 41
2, 962947, Note_off_c, 0, 54, 64
2, 962951, Note_off_c, 0, 63, 64
2, 962984, Note_on_c, 0, 52, 36
2, 962987, Note_on_c, 0, 56, 56
2, 962989, Note_off_c, 0, 53, 64
2, 962995, Note_off_c, 0, 61, 64
2, 963055, Note_on_c, 0, 51, 50
2, 963061, Note_on_c, 0, 60, 72
2, 963062, Note_off_c, 0, 52, 64
2, 963075, Note_off_c, 0, 56, 64
2, 963092, Control_c, 0, 64, 0
2, 963108, Note_on_c, 0, 44, 65
2, 963115, Note_on_c, 0, 63, 60
2, 963116, Control_c, 0, 64, 127
2, 963138, Note_off_c, 0, 60, 64
2, 963143, Note_off_c, 0, 51, 64
2, 963180, Note_on_c, 0, 68, 35
2, 963180, Note_on_c, 0, 51, 48
2, 963187, Note_off_c, 0, 44, 64
2, 963196, Note_off_c, 0, 63, 64
2, 963240, Note_on_c, 0, 60, 43
2, 963243, Note_off_c, 0, 51, 64
2, 963246, Note_on_c, 0, 72, 61
2, 963267, Note_off_c, 0, 68, 64
2, 963302, Note_on_c, 0, 75, 51
2, 963304, Note_on_c, 0, 63, 23
2, 963308, Note_off_c, 0, 60, 64
2, 963328, Note_off_c, 0, 72, 64
2, 963352, Note_on_c, 0, 72, 35
2, 963354, Note_on_c, 0, 80, 41
2, 963391, Note_off_c, 0, 63, 64
2, 963403, Note_off_c, 0, 75, 64
2, 963436, Note_on_c, 0, 92, 42
2, 963444, Note_on_c, 0, 56, 55
2, 963453, Note_off_c, 0, 72, 64
2, 963455, Note_off_c, 0, 80, 64
2, 963475, Control_c, 0, 64, 0
2, 963502, Control_c, 0, 64, 127
2, 963573, Note_off_c, 0, 92, 64
2, 963581, Note_off_c, 0, 56, 64
2, 963758, Control_c, 0, 64, 0
2, 963996, Note_on_c, 0, 56, 54
2, 963998, Note_on_c, 0, 51, 47
2, 964000, Note_on_c, 0, 44, 48
2, 964003, Note_on_c, 0, 32, 57
2, 964004, Note_on_c, 0, 60, 58
2, 964010, Control_c, 0, 64, 127
2, 964083, Note_off_c, 0, 56, 64
2, 964085, Note_off_c, 0, 51, 64
2, 964087, Note_off_c, 0, 44, 64
2, 964090, Note_off_c, 0, 32, 64
2, 964091, Note_off_c, 0, 60, 64
2, 964192, Note_on_c, 0, 56, 33
2, 964193, Note_on_c, 0, 51, 31
2, 964196, Note_on_c, 0, 44, 52
2, 964198, Note_on_c, 0, 32, 48
2, 964198, Note_on_c, 0, 60, 48
2, 964211, Control_c, 0, 64, 0
2, 964236, Control_c, 0, 64, 127
2, 964397, Control_c, 0, 64, 0
2, 964451, Control_c, 0, 64, 127
2, 964558, Note_off_c, 0, 56, 64
2, 964559, Note_off_c, 0, 51, 64
2, 964562, Note_off_c, 0, 44, 64
2, 964564, Note_off_c, 0, 60, 64
2, 964564, Note_off_c, 0, 32, 64
2, 964600, Note_on_c, 0, 56, 26
2, 964601, Note_on_c, 0, 32, 35
2, 964604, Note_on_c, 0, 60, 28
2, 964607, Note_on_c, 0, 51, 24
2, 964607, Note_on_c, 0, 44, 28
2, 964611, Control_c, 0, 64, 0
2, 964650, Control_c, 0, 64, 127
2, 964687, Note_off_c, 0, 56, 64
2, 964688, Note_off_c, 0, 32, 64
2, 964691, Note_off_c, 0, 60, 64
2, 964694, Note_off_c, 0, 44, 64
2, 964694, Note_off_c, 0, 51, 64
2, 964852, Note_on_c, 0, 44, 23
2, 964854, Note_on_c, 0, 51, 21
2, 964856, Note_on_c, 0, 32, 28
2, 964859, Note_on_c, 0, 60, 24
2, 964860, Note_on_c, 0, 56, 21
2, 964884, Control_c, 0, 64, 0
2, 964908, Control_c, 0, 64, 127
2, 965195, Control_c, 0, 64, 0
2, 965346, Note_off_c, 0, 44, 64
2, 965348, Note_off_c, 0, 51, 64
2, 965350, Note_off_c, 0, 32, 64
2, 965353, Note_off_c, 0, 60, 64
2, 965354, Note_off_c, 0, 56, 64
2, 967420, Control_c, 0, 64, 127
2, 967488, Note_on_c, 0, 61, 64
2, 967676, Note_on_c, 0, 66, 74
2, 967678, Note_off_c, 0, 61, 64
2, 967679, Control_c, 0, 64, 0
2, 967684, Note_on_c, 0, 30, 64
2, 967725, Control_c, 0, 64, 127
2, 967905, Note_on_c, 0, 61, 33
2, 967912, Note_on_c, 0, 49, 26
2, 967920, Note_on_c, 0, 57, 33
2, 967951, Note_off_c, 0, 57, 64
2, 967955, Note_off_c, 0, 49, 64
2, 967959, Note_off_c, 0, 61, 64
2, 967977, Note_on_c, 0, 68, 67
2, 967978, Note_off_c, 0, 30, 64
2, 967992, Note_off_c, 0, 66, 64
2, 968035, Note_off_c, 0, 68, 64
2, 968054, Note_on_c, 0, 69, 72
2, 968060, Note_on_c, 0, 61, 40
2, 968064, Note_on_c, 0, 57, 54
2, 968064, Note_on_c, 0, 49, 54
2, 968087, Note_off_c, 0, 57, 64
2, 968090, Note_off_c, 0, 61, 64
2, 968105, Note_off_c, 0, 49, 64
2, 968124, Note_on_c, 0, 72, 67
2, 968146, Note_off_c, 0, 69, 64
2, 968206, Note_on_c, 0, 42, 80
2, 968208, Note_on_c, 0, 74, 60
2, 968216, Note_off_c, 0, 72, 64
2, 968251, Note_on_c, 0, 76, 69
2, 968265, Note_off_c, 0, 74, 64
2, 968303, Note_on_c, 0, 74, 75
2, 968314, Note_off_c, 0, 76, 64
2, 968327, Control_c, 0, 64, 0
2, 968341, Note_on_c, 0, 57, 60
2, 968344, Note_on_c, 0, 66, 66
2, 968345, Note_on_c, 0, 73, 86
2, 968350, Note_on_c, 0, 61, 60
2, 968357, Note_off_c, 0, 74, 64
2, 968380, Note_off_c, 0, 61, 64
2, 968383, Note_off_c, 0, 66, 64
2, 968383, Control_c, 0, 64, 127
2, 968393, Note_off_c, 0, 57, 64
2, 968483, Note_off_c, 0, 42, 64
2, 968528, Note_on_c, 0, 61, 62
2, 968528, Note_on_c, 0, 57, 66
2, 968532, Note_on_c, 0, 78, 78
2, 968535, Note_on_c, 0, 66, 43
2, 968547, Note_off_c, 0, 73, 64
2, 968600, Note_off_c, 0, 57, 64
2, 968600, Note_off_c, 0, 61, 64
2, 968630, Note_off_c, 0, 66, 64
2, 968678, Note_on_c, 0, 54, 47
2, 968682, Note_on_c, 0, 73, 73
2, 968701, Note_off_c, 0, 78, 64
2, 968731, Note_on_c, 0, 74, 62
2, 968736, Note_off_c, 0, 73, 64
2, 968771, Note_on_c, 0, 73, 69
2, 968788, Note_off_c, 0, 74, 64
2, 968802, Control_c, 0, 64, 0
2, 968811, Note_on_c, 0, 71, 73
2, 968818, Note_on_c, 0, 66, 67
2, 968818, Note_on_c, 0, 59, 62
2, 968822, Note_off_c, 0, 73, 64
2, 968828, Note_on_c, 0, 62, 58
2, 968848, Control_c, 0, 64, 127
2, 968852, Note_off_c, 0, 62, 64
2, 968856, Note_off_c, 0, 59, 64
2, 968856, Note_off_c, 0, 66, 64
2, 968988, Note_on_c, 0, 66, 55
2, 968992, Note_on_c, 0, 62, 58
2, 968993, Note_on_c, 0, 78, 69
2, 969000, Note_on_c, 0, 59, 54
2, 969015, Note_off_c, 0, 66, 64
2, 969016, Note_off_c, 0, 62, 64
2, 969021, Note_off_c, 0, 59, 64
2, 969044, Note_off_c, 0, 71, 64
2, 969049, Note_off_c, 0, 54, 64
2, 969131, Note_on_c, 0, 42, 69
2, 969138, Note_on_c, 0, 71, 67
2, 969150, Note_off_c, 0, 78, 64
2, 969180, Note_on_c, 0, 73, 73
2, 969197, Note_off_c, 0, 71, 64
2, 969222, Note_on_c, 0, 71, 59
2, 969242, Note_off_c, 0, 73, 64
2, 969266, Note_on_c, 0, 69, 64
2, 969273, Control_c, 0, 64, 0
2, 969280, Note_off_c, 0, 71, 64
2, 969283, Note_on_c, 0, 66, 69
2, 969283, Note_on_c, 0, 61, 51
2, 969288, Note_on_c, 0, 57, 29
2, 969294, Control_c, 0, 64, 127
2, 969317, Note_off_c, 0, 66, 64
2, 969326, Note_off_c, 0, 61, 64
2, 969333, Note_off_c, 0, 57, 64
2, 969415, Note_off_c, 0, 42, 64
2, 969421, Note_on_c, 0, 61, 51
2, 969422, Note_on_c, 0, 73, 69
2, 969430, Note_on_c, 0, 57, 62
2, 969430, Note_on_c, 0, 49, 58
2, 969462, Note_off_c, 0, 61, 64
2, 969468, Note_off_c, 0, 49, 64
2, 969471, Note_off_c, 0, 57, 64
2, 969474, Note_off_c, 0, 69, 64
2, 969577, Note_on_c, 0, 69, 62
2, 969579, Note_on_c, 0, 37, 78
2, 969587, Note_off_c, 0, 73, 64
2, 969587, Control_c, 0, 64, 0
2, 969601, Control_c, 0, 64, 127
2, 969620, Note_on_c, 0, 71, 62
2, 969625, Note_off_c, 0, 69, 64
2, 969660, Note_on_c, 0, 69, 64
2, 969673, Note_off_c, 0, 71, 64
2, 969699, Note_on_c, 0, 59, 65
2, 969699, Note_on_c, 0, 53, 54
2, 969705, Note_on_c, 0, 49, 58
2, 969708, Control_c, 0, 64, 0
2, 969715, Note_on_c, 0, 68, 69
2, 969719, Note_off_c, 0, 69, 64
2, 969737, Control_c, 0, 64, 127
2, 969744, Note_off_c, 0, 59, 64
2, 969748, Note_off_c, 0, 49, 64
2, 969749, Note_off_c, 0, 53, 64
2, 969854, Note_off_c, 0, 37, 64
2, 969878, Note_on_c, 0, 73, 69
2, 969885, Note_on_c, 0, 59, 67
2, 969885, Note_on_c, 0, 53, 47
2, 969885, Note_on_c, 0, 49, 47
2, 969908, Note_off_c, 0, 68, 64
2, 969923, Note_off_c, 0, 59, 64
2, 969928, Note_off_c, 0, 53, 64
2, 969935, Note_off_c, 0, 49, 64
2, 970019, Note_on_c, 0, 68, 78
2, 970023, Note_on_c, 0, 42, 74
2, 970039, Note_off_c, 0, 73, 64
2, 970065, Note_on_c, 0, 69, 62
2, 970072, Note_off_c, 0, 68, 64
2, 970107, Note_on_c, 0, 68, 69
2, 970119, Note_off_c, 0, 69, 64
2, 970144, Note_on_c, 0, 57, 62
2, 970144, Note_on_c, 0, 49, 69
2, 970144, Control_c, 0, 64, 0
2, 970153, Note_on_c, 0, 66, 70
2, 970153, Note_on_c, 0, 54, 62
2, 970158, Note_off_c, 0, 68, 64
2, 970176, Control_c, 0, 64, 127
2, 970186, Note_off_c, 0, 49, 64
2, 970186, Note_off_c, 0, 57, 64
2, 970188, Note_off_c, 0, 54, 64
2, 970305, Note_off_c, 0, 42, 64
2, 970317, Note_on_c, 0, 73, 74
2, 970325, Note_on_c, 0, 54, 60
2, 970331, Note_on_c, 0, 57, 62
2, 970331, Note_on_c, 0, 51, 50
2, 970340, Control_c, 0, 64, 0
2, 970354, Note_off_c, 0, 66, 64
2, 970377, Control_c, 0, 64, 127
2, 970386, Note_off_c, 0, 51, 64
2, 970398, Note_off_c, 0, 54, 64
2, 970400, Note_off_c, 0, 57, 64
2, 970497, Note_on_c, 0, 44, 67
2, 970504, Note_on_c, 0, 66, 77
2, 970520, Control_c, 0, 64, 0
2, 970524, Note_off_c, 0, 73, 64
2, 970535, Control_c, 0, 64, 127
2, 970558, Note_on_c, 0, 68, 77
2, 970564, Note_off_c, 0, 66, 64
2, 970602, Note_on_c, 0, 66, 65
2, 970618, Note_off_c, 0, 68, 64
2, 970648, Note_on_c, 0, 64, 73
2, 970656, Note_on_c, 0, 61, 73
2, 970656, Note_on_c, 0, 52, 60
2, 970660, Note_on_c, 0, 56, 55
2, 970666, Note_off_c, 0, 66, 64
2, 970668, Control_c, 0, 64, 0
2, 970683, Control_c, 0, 64, 127
2, 970703, Note_off_c, 0, 52, 64
2, 970707, Note_off_c, 0, 56, 64
2, 970710, Note_off_c, 0, 61, 64
2, 970728, Note_on_c, 0, 68, 74
2, 970741, Note_off_c, 0, 64, 64
2, 970788, Note_off_c, 0, 44, 64
2, 970802, Control_c, 0, 64, 0
2, 970809, Note_on_c, 0, 63, 77
2, 970812, Note_on_c, 0, 56, 57
2, 970815, Note_on_c, 0, 54, 58
2, 970818, Note_on_c, 0, 60, 55
2, 970825, Note_off_c, 0, 68, 64
2, 970837, Control_c, 0, 64, 127
2, 970845, Note_off_c, 0, 60, 64
2, 970854, Note_off_c, 0, 56, 64
2, 970857, Note_off_c, 0, 54, 64
2, 970896, Note_on_c, 0, 68, 65
2, 970913, Note_off_c, 0, 63, 64
2, 970939, Note_off_c, 0, 68, 64
2, 970983, Note_on_c, 0, 68, 73
2, 971018, Note_on_c, 0, 37, 60
2, 971032, Note_on_c, 0, 61, 85
2, 971044, Control_c, 0, 64, 0
2, 971050, Note_off_c, 0, 68, 64
2, 971070, Control_c, 0, 64, 127
2, 971216, Note_on_c, 0, 49, 42
2, 971223, Note_on_c, 0, 53, 49
2, 971229, Note_off_c, 0, 61, 64
2, 971232, Note_on_c, 0, 59, 29
2, 971283, Note_off_c, 0, 59, 64
2, 971283, Note_off_c, 0, 53, 64
2, 971286, Note_off_c, 0, 49, 64
2, 971294, Note_on_c, 0, 62, 63
2, 971299, Note_on_c, 0, 71, 65
2, 971327, Note_off_c, 0, 37, 64
2, 971374, Note_off_c, 0, 62, 64
2, 971377, Note_on_c, 0, 61, 70
2, 971378, Note_off_c, 0, 71, 64
2, 971378, Note_on_c, 0, 69, 65
2, 971392, Note_on_c, 0, 49, 60
2, 971398, Note_on_c, 0, 59, 58
2, 971400, Note_on_c, 0, 56, 58
2, 971427, Note_off_c, 0, 59, 64
2, 971429, Note_off_c, 0, 56, 64
2, 971445, Note_off_c, 0, 49, 64
2, 971448, Note_off_c, 0, 61, 64
2, 971449, Note_on_c, 0, 68, 75
2, 971457, Note_off_c, 0, 69, 64
2, 971468, Note_on_c, 0, 65, 71
2, 971526, Note_off_c, 0, 65, 64
2, 971535, Note_off_c, 0, 68, 64
2, 971554, Note_on_c, 0, 66, 83
2, 971556, Note_on_c, 0, 42, 65
2, 971562, Control_c, 0, 64, 0
2, 971617, Control_c, 0, 64, 127
2, 971733, Note_on_c, 0, 49, 64
2, 971738, Note_on_c, 0, 61, 66
2, 971741, Note_on_c, 0, 68, 69
2, 971742, Note_off_c, 0, 66, 64
2, 971745, Note_on_c, 0, 57, 62
2, 971783, Note_off_c, 0, 57, 64
2, 971783, Note_off_c, 0, 49, 64
2, 971785, Note_off_c, 0, 61, 64
2, 971791, Note_off_c, 0, 68, 64
2, 971796, Note_on_c, 0, 66, 75
2, 971863, Note_off_c, 0, 42, 64
2, 971869, Note_on_c, 0, 69, 80
2, 971872, Note_off_c, 0, 66, 64
2, 971876, Note_on_c, 0, 61, 44
2, 971881, Note_on_c, 0, 57, 60
2, 971883, Note_on_c, 0, 49, 39
2, 971904, Note_off_c, 0, 57, 64
2, 971905, Note_off_c, 0, 61, 64
2, 971914, Note_off_c, 0, 49, 64
2, 971936, Note_on_c, 0, 72, 70
2, 971951, Note_off_c, 0, 69, 64
2, 972018, Note_on_c, 0, 74, 66
2, 972018, Note_on_c, 0, 42, 80
2, 972039, Note_off_c, 0, 72, 64
2, 972070, Note_on_c, 0, 76, 75
2, 972078, Note_off_c, 0, 74, 64
2, 972099, Note_on_c, 0, 74, 75
2, 972117, Note_off_c, 0, 76, 64
2, 972124, Control_c, 0, 64, 0
2, 972138, Note_on_c, 0, 54, 69
2, 972140, Note_on_c, 0, 64, 73
2, 972143, Note_on_c, 0, 58, 71
2, 972149, Note_on_c, 0, 73, 97
2, 972160, Note_off_c, 0, 74, 64
2, 972174, Note_off_c, 0, 58, 64
2, 972176, Note_off_c, 0, 54, 64
2, 972178, Note_off_c, 0, 64, 64
2, 972183, Control_c, 0, 64, 127
2, 972287, Note_off_c, 0, 73, 64
2, 972288, Note_off_c, 0, 42, 64
2, 972297, Note_on_c, 0, 78, 83
2, 972297, Note_on_c, 0, 64, 70
2, 972301, Note_on_c, 0, 54, 35
2, 972310, Note_on_c, 0, 58, 43
2, 972327, Note_off_c, 0, 64, 64
2, 972330, Note_off_c, 0, 54, 64
2, 972334, Note_off_c, 0, 58, 64
2, 972425, Control_c, 0, 64, 0
2, 972431, Note_on_c, 0, 47, 59
2, 972435, Note_on_c, 0, 73, 67
2, 972444, Note_off_c, 0, 78, 64
2, 972444, Control_c, 0, 64, 127
2, 972485, Note_off_c, 0, 73, 64
2, 972485, Note_on_c, 0, 74, 57
2, 972516, Note_on_c, 0, 73, 71
2, 972529, Note_off_c, 0, 74, 64
2, 972553, Note_on_c, 0, 64, 62
2, 972554, Note_on_c, 0, 54, 58
2, 972561, Note_on_c, 0, 71, 67
2, 972564, Control_c, 0, 64, 0
2, 972569, Note_off_c, 0, 73, 64
2, 972588, Control_c, 0, 64, 127
2, 972596, Note_off_c, 0, 54, 64
2, 972596, Note_off_c, 0, 64, 64
2, 972716, Note_on_c, 0, 54, 58
2, 972721, Note_on_c, 0, 78, 69
2, 972727, Note_on_c, 0, 62, 46
2, 972728, Note_off_c, 0, 47, 64
2, 972750, Note_off_c, 0, 71, 64
2, 972752, Note_off_c, 0, 62, 64
2, 972769, Note_off_c, 0, 54, 64
2, 972854, Note_on_c, 0, 71, 65
2, 972860, Note_on_c, 0, 42, 74
2, 972864, Note_off_c, 0, 78, 64
2, 972900, Note_on_c, 0, 73, 62
2, 972906, Note_off_c, 0, 71, 64
2, 972932, Note_on_c, 0, 71, 59
2, 972955, Note_off_c, 0, 73, 64
2, 972978, Note_on_c, 0, 54, 64
2, 972984, Note_on_c, 0, 61, 69
2, 972987, Note_on_c, 0, 69, 64
2, 972999, Note_off_c, 0, 71, 64
2, 973001, Control_c, 0, 64, 0
2, 973022, Control_c, 0, 64, 127
2, 973037, Note_off_c, 0, 54, 64
2, 973045, Note_off_c, 0, 61, 64
2, 973116, Note_off_c, 0, 42, 64
2, 973140, Note_on_c, 0, 51, 55
2, 973151, Note_on_c, 0, 61, 57
2, 973151, Note_on_c, 0, 57, 57
2, 973158, Note_on_c, 0, 73, 73
2, 973185, Control_c, 0, 64, 0
2, 973189, Note_off_c, 0, 69, 64
2, 973204, Note_off_c, 0, 51, 64
2, 973211, Control_c, 0, 64, 127
2, 973302, Note_off_c, 0, 57, 64
2, 973302, Note_off_c, 0, 61, 64
2, 973317, Note_on_c, 0, 52, 41
2, 973339, Control_c, 0, 64, 0
2, 973348, Note_on_c, 0, 66, 69
2, 973370, Note_off_c, 0, 73, 64
2, 973387, Control_c, 0, 64, 127
2, 973394, Note_on_c, 0, 68, 74
2, 973400, Note_off_c, 0, 66, 64
2, 973428, Note_on_c, 0, 66, 64
2, 973445, Note_off_c, 0, 68, 64
2, 973467, Note_on_c, 0, 64, 70
2, 973475, Note_on_c, 0, 61, 63
2, 973477, Note_off_c, 0, 66, 64
2, 973484, Note_on_c, 0, 57, 56
2, 973522, Note_off_c, 0, 57, 64
2, 973524, Note_off_c, 0, 61, 64
2, 973620, Note_on_c, 0, 61, 55
2, 973621, Note_on_c, 0, 73, 67
2, 973625, Note_on_c, 0, 57, 64
2, 973644, Note_off_c, 0, 52, 64
2, 973646, Note_off_c, 0, 61, 64
2, 973649, Note_off_c, 0, 57, 64
2, 973660, Note_off_c, 0, 64, 64
2, 973760, Control_c, 0, 64, 0
2, 973765, Note_on_c, 0, 64, 65
2, 973771, Note_on_c, 0, 40, 62
2, 973783, Note_off_c, 0, 73, 64
2, 973800, Control_c, 0, 64, 127
2, 973810, Note_on_c, 0, 66, 69
2, 973824, Note_off_c, 0, 64, 64
2, 973855, Note_on_c, 0, 64, 69
2, 973871, Note_off_c, 0, 66, 64
2, 973873, Control_c, 0, 64, 0
2, 973899, Note_on_c, 0, 63, 77
2, 973904, Note_on_c, 0, 54, 56
2, 973914, Control_c, 0, 64, 127
2, 973917, Note_off_c, 0, 64, 64
2, 973917, Note_on_c, 0, 57, 29
2, 973939, Note_off_c, 0, 57, 64
2, 973952, Note_off_c, 0, 54, 64
2, 974064, Note_off_c, 0, 40, 64
2, 974076, Note_on_c, 0, 73, 66
2, 974079, Note_on_c, 0, 54, 57
2, 974083, Note_on_c, 0, 57, 39
2, 974104, Note_off_c, 0, 57, 64
2, 974108, Note_off_c, 0, 54, 64
2, 974133, Note_off_c, 0, 63, 64
2, 974251, Note_on_c, 0, 40, 58
2, 974255, Note_on_c, 0, 62, 67
2, 974264, Note_off_c, 0, 73, 64
2, 974270, Control_c, 0, 64, 0
2, 974315, Control_c, 0, 64, 127
2, 974345, Note_on_c, 0, 71, 59
2, 974369, Note_off_c, 0, 62, 64
2, 974421, Note_on_c, 0, 73, 65
2, 974452, Note_off_c, 0, 71, 64
2, 974490, Note_on_c, 0, 74, 62
2, 974504, Note_off_c, 0, 73, 64
2, 974551, Note_on_c, 0, 73, 50
2, 974557, Note_off_c, 0, 74, 64
2, 974565, Note_on_c, 0, 62, 56
2, 974574, Note_on_c, 0, 56, 49
2, 974574, Note_on_c, 0, 52, 48
2, 974592, Note_off_c, 0, 40, 64
2, 974604, Note_off_c, 0, 56, 64
2, 974604, Note_off_c, 0, 62, 64
2, 974606, Note_off_c, 0, 52, 64
2, 974629, Note_on_c, 0, 71, 52
2, 974632, Note_off_c, 0, 73, 64
2, 974703, Note_on_c, 0, 73, 58
2, 974709, Note_on_c, 0, 45, 47
2, 974712, Control_c, 0, 64, 0
2, 974723, Note_off_c, 0, 71, 64
2, 974740, Control_c, 0, 64, 127
2, 974768, Note_on_c, 0, 71, 49
2, 974793, Note_off_c, 0, 73, 64
2, 974837, Note_on_c, 0, 57, 21
2, 974840, Note_on_c, 0, 61, 49
2, 974840, Note_on_c, 0, 52, 36
2, 974847, Note_on_c, 0, 69, 60
2, 974866, Note_off_c, 0, 71, 64
2, 974867, Note_off_c, 0, 57, 64
2, 974869, Note_off_c, 0, 52, 64
2, 974881, Note_off_c, 0, 61, 64
2, 975000, Note_off_c, 0, 45, 64
2, 975004, Note_on_c, 0, 40, 44
2, 975011, Note_on_c, 0, 73, 58
2, 975036, Note_off_c, 0, 69, 64
2, 975089, Note_on_c, 0, 74, 52
2, 975106, Note_off_c, 0, 73, 64
2, 975202, Note_on_c, 0, 76, 57
2, 975207, Note_on_c, 0, 33, 49
2, 975218, Control_c, 0, 64, 0
2, 975224, Note_off_c, 0, 74, 64
2, 975258, Note_off_c, 0, 40, 64
2, 975286, Control_c, 0, 64, 127
2, 975459, Note_on_c, 0, 57, 28
2, 975467, Note_on_c, 0, 55, 25
2, 975468, Note_on_c, 0, 64, 29
2, 975510, Note_off_c, 0, 76, 64
2, 975527, Note_off_c, 0, 64, 64
2, 975534, Note_off_c, 0, 55, 64
2, 975543, Note_off_c, 0, 57, 64
2, 975639, Note_on_c, 0, 78, 51
2, 975648, Note_on_c, 0, 64, 31
2, 975648, Note_on_c, 0, 57, 29
2, 975652, Control_c, 0, 64, 0
2, 975662, Note_on_c, 0, 55, 20
2, 975669, Control_c, 0, 64, 127
2, 975699, Note_off_c, 0, 55, 64
2, 975704, Note_off_c, 0, 64, 64
2, 975717, Note_on_c, 0, 76, 46
2, 975723, Note_off_c, 0, 57, 64
2, 975752, Note_off_c, 0, 33, 64
2, 975763, Note_off_c, 0, 78, 64
2, 975805, Note_on_c, 0, 75, 41
2, 975813, Note_on_c, 0, 54, 32
2, 975815, Note_on_c, 0, 63, 40
2, 975817, Note_off_c, 0, 76, 64
2, 975817, Note_on_c, 0, 57, 39
2, 975829, Control_c, 0, 64, 0
2, 975840, Control_c, 0, 64, 127
2, 975865, Note_off_c, 0, 63, 64
2, 975874, Note_off_c, 0, 57, 64
2, 975875, Note_off_c, 0, 54, 64
2, 975914, Note_off_c, 0, 75, 64
2, 975959, Note_on_c, 0, 71, 51
2, 975966, Note_on_c, 0, 63, 35
2, 975966, Note_on_c, 0, 54, 39
2, 975972, Note_on_c, 0, 57, 34
2, 976025, Note_off_c, 0, 57, 64
2, 976025, Note_off_c, 0, 54, 64
2, 976035, Note_on_c, 0, 73, 58
2, 976039, Note_off_c, 0, 63, 64
2, 976056, Note_off_c, 0, 71, 64
2, 976111, Note_on_c, 0, 62, 37
2, 976111, Note_on_c, 0, 57, 43
2, 976111, Control_c, 0, 64, 0
2, 976118, Note_off_c, 0, 73, 64
2, 976123, Note_on_c, 0, 74, 48
2, 976124, Note_on_c, 0, 53, 32
2, 976133, Control_c, 0, 64, 127
2, 976140, Note_off_c, 0, 62, 64
2, 976146, Note_off_c, 0, 57, 64
2, 976152, Note_off_c, 0, 53, 64
2, 976281, Note_on_c, 0, 62, 51
2, 976285, Note_on_c, 0, 45, 48
2, 976289, Note_off_c, 0, 74, 64
2, 976297, Control_c, 0, 64, 0
2, 976312, Control_c, 0, 64, 127
2, 976359, Note_on_c, 0, 71, 51
2, 976378, Note_off_c, 0, 62, 64
2, 976427, Note_on_c, 0, 73, 54
2, 976427, Note_on_c, 0, 56, 44
2, 976434, Note_on_c, 0, 52, 43
2, 976437, Control_c, 0, 64, 0
2, 976442, Note_on_c, 0, 62, 29
2, 976451, Control_c, 0, 64, 127
2, 976458, Note_off_c, 0, 71, 64
2, 976486, Note_off_c, 0, 56, 64
2, 976488, Note_off_c, 0, 62, 64
2, 976496, Note_off_c, 0, 52, 64
2, 976496, Note_on_c, 0, 74, 55
2, 976509, Note_off_c, 0, 73, 64
2, 976563, Note_on_c, 0, 73, 51
2, 976568, Note_on_c, 0, 62, 41
2, 976572, Note_off_c, 0, 74, 64
2, 976573, Note_on_c, 0, 56, 40
2, 976573, Note_on_c, 0, 52, 37
2, 976584, Note_off_c, 0, 45, 64
2, 976598, Note_off_c, 0, 62, 64
2, 976601, Note_off_c, 0, 52, 64
2, 976607, Note_off_c, 0, 56, 64
2, 976637, Note_on_c, 0, 71, 51
2, 976653, Note_off_c, 0, 73, 64
2, 976695, Note_on_c, 0, 45, 58
2, 976706, Note_on_c, 0, 73, 58
2, 976715, Control_c, 0, 64, 0
2, 976724, Note_off_c, 0, 71, 64
2, 976740, Control_c, 0, 64, 127
2, 976765, Note_on_c, 0, 71, 51
2, 976821, Note_off_c, 0, 73, 64
2, 976834, Note_on_c, 0, 61, 32
2, 976843, Note_off_c, 0, 71, 64
2, 976850, Note_on_c, 0, 69, 57
2, 976857, Note_on_c, 0, 57, 43
2, 976860, Note_on_c, 0, 52, 39
2, 976866, Note_off_c, 0, 61, 64
2, 976879, Note_off_c, 0, 57, 64
2, 976895, Note_off_c, 0, 52, 64
2, 976986, Note_off_c, 0, 45, 64
2, 977005, Note_on_c, 0, 40, 50
2, 977016, Note_on_c, 0, 73, 58
2, 977040, Note_off_c, 0, 69, 64
2, 977089, Note_on_c, 0, 74, 54
2, 977094, Note_off_c, 0, 73, 64
2, 977123, Control_c, 0, 64, 0
2, 977188, Note_on_c, 0, 76, 49
2, 977202, Note_on_c, 0, 33, 54
2, 977211, Note_off_c, 0, 74, 64
2, 977226, Note_off_c, 0, 40, 64
2, 977234, Control_c, 0, 64, 127
2, 977396, Note_on_c, 0, 64, 20
2, 977396, Note_on_c, 0, 57, 41
2, 977397, Note_on_c, 0, 55, 20
2, 977432, Note_off_c, 0, 76, 64
2, 977456, Note_off_c, 0, 64, 64
2, 977465, Note_off_c, 0, 55, 64
2, 977471, Note_off_c, 0, 57, 64
2, 977560, Note_on_c, 0, 55, 32
2, 977567, Note_on_c, 0, 58, 41
2, 977570, Note_on_c, 0, 64, 32
2, 977576, Note_on_c, 0, 78, 51
2, 977607, Note_off_c, 0, 55, 64
2, 977614, Note_off_c, 0, 78, 64
2, 977614, Note_off_c, 0, 58, 64
2, 977622, Note_off_c, 0, 64, 64
2, 977631, Note_on_c, 0, 76, 48
2, 977658, Note_on_c, 0, 78, 58
2, 977671, Note_off_c, 0, 76, 64
2, 977698, Note_on_c, 0, 76, 55
2, 977717, Note_off_c, 0, 78, 64
2, 977722, Note_off_c, 0, 33, 64
2, 977745, Note_on_c, 0, 54, 29
2, 977745, Control_c, 0, 64, 0
2, 977751, Note_on_c, 0, 75, 58
2, 977756, Note_on_c, 0, 63, 42
2, 977763, Note_on_c, 0, 59, 34
2, 977772, Note_off_c, 0, 76, 64
2, 977789, Control_c, 0, 64, 127
2, 977812, Note_off_c, 0, 59, 64
2, 977812, Note_off_c, 0, 63, 64
2, 977819, Note_off_c, 0, 54, 64
2, 977896, Note_off_c, 0, 75, 64
2, 977926, Note_on_c, 0, 71, 55
2, 977926, Note_on_c, 0, 63, 40
2, 977926, Note_on_c, 0, 54, 37
2, 977934, Note_on_c, 0, 59, 39
2, 977973, Note_off_c, 0, 59, 64
2, 977976, Note_off_c, 0, 63, 64
2, 977980, Note_off_c, 0, 54, 64
2, 977991, Note_on_c, 0, 73, 58
2, 978019, Note_off_c, 0, 71, 64
2, 978074, Note_off_c, 0, 73, 64
2, 978080, Note_on_c, 0, 59, 37
2, 978087, Note_on_c, 0, 74, 51
2, 978087, Note_on_c, 0, 62, 41
2, 978088, Note_on_c, 0, 53, 35
2, 978095, Note_on_c, 0, 69, 51
2, 978097, Control_c, 0, 64, 0
2, 978105, Control_c, 0, 64, 0
2, 978126, Control_c, 0, 64, 127
2, 978133, Note_off_c, 0, 62, 64
2, 978134, Control_c, 0, 64, 127
2, 978146, Note_off_c, 0, 59, 64
2, 978160, Note_off_c, 0, 53, 64
2, 978239, Control_c, 0, 64, 0
2, 978244, Note_on_c, 0, 62, 54
2, 978248, Note_off_c, 0, 74, 64
2, 978248, Note_off_c, 0, 69, 64
2, 978251, Note_on_c, 0, 45, 56
2, 978308, Control_c, 0, 64, 127
2, 978312, Note_on_c, 0, 71, 49
2, 978326, Note_off_c, 0, 62, 64
2, 978377, Control_c, 0, 64, 0
2, 978384, Note_on_c, 0, 68, 52
2, 978384, Note_on_c, 0, 59, 39
2, 978384, Note_on_c, 0, 52, 26
2, 978386, Note_on_c, 0, 62, 44
2, 978395, Note_on_c, 0, 73, 64
2, 978404, Control_c, 0, 64, 127
2, 978419, Note_off_c, 0, 52, 64
2, 978429, Note_off_c, 0, 59, 64
2, 978431, Note_off_c, 0, 71, 64
2, 978444, Note_off_c, 0, 62, 64
2, 978476, Note_on_c, 0, 74, 54
2, 978481, Note_off_c, 0, 68, 64
2, 978492, Note_off_c, 0, 73, 64
2, 978526, Note_off_c, 0, 45, 64
2, 978545, Note_on_c, 0, 52, 39
2, 978546, Note_on_c, 0, 56, 41
2, 978551, Note_on_c, 0, 73, 64
2, 978552, Note_on_c, 0, 64, 47
2, 978554, Note_on_c, 0, 62, 28
2, 978558, Control_c, 0, 64, 0
2, 978568, Note_off_c, 0, 74, 64
2, 978595, Note_off_c, 0, 56, 64
2, 978595, Control_c, 0, 64, 127
2, 978600, Note_off_c, 0, 62, 64
2, 978610, Note_off_c, 0, 52, 64
2, 978625, Note_on_c, 0, 71, 54
2, 978640, Note_off_c, 0, 73, 64
2, 978649, Note_off_c, 0, 64, 64
2, 978652, Control_c, 0, 64, 127
2, 978697, Note_on_c, 0, 73, 63
2, 978697, Note_on_c, 0, 45, 51
2, 978709, Note_off_c, 0, 71, 64
2, 978710, Control_c, 0, 64, 0
2, 978745, Control_c, 0, 64, 127
2, 978758, Note_on_c, 0, 71, 58
2, 978799, Note_off_c, 0, 73, 64
2, 978831, Control_c, 0, 64, 0
2, 978837, Note_off_c, 0, 71, 64
2, 978837, Note_on_c, 0, 69, 64
2, 978841, Note_on_c, 0, 57, 35
2, 978847, Note_on_c, 0, 61, 47
2, 978851, Note_on_c, 0, 52, 20
2, 978876, Control_c, 0, 64, 127
2, 978889, Note_off_c, 0, 61, 64
2, 978897, Note_off_c, 0, 57, 64
2, 978902, Note_off_c, 0, 52, 64
2, 978982, Note_off_c, 0, 45, 64
2, 979020, Note_on_c, 0, 49, 42
2, 979024, Note_on_c, 0, 59, 44
2, 979029, Note_off_c, 0, 69, 64
2, 979035, Note_on_c, 0, 53, 34
2, 979049, Note_on_c, 0, 68, 63
2, 979055, Control_c, 0, 64, 0
2, 979078, Note_off_c, 0, 59, 64
2, 979086, Note_off_c, 0, 53, 64
2, 979091, Control_c, 0, 64, 127
2, 979097, Note_off_c, 0, 49, 64
2, 979124, Note_on_c, 0, 69, 70
2, 979128, Note_off_c, 0, 68, 64
2, 979213, Note_on_c, 0, 66, 70
2, 979222, Note_off_c, 0, 69, 64
2, 979224, Note_on_c, 0, 42, 52
2, 979238, Control_c, 0, 64, 0
2, 979272, Control_c, 0, 64, 127
2, 979400, Note_on_c, 0, 61, 50
2, 979400, Note_on_c, 0, 49, 44
2, 979404, Note_on_c, 0, 57, 44
2, 979408, Note_on_c, 0, 54, 50
2, 979450, Note_off_c, 0, 66, 64
2, 979452, Note_off_c, 0, 49, 64
2, 979452, Note_off_c, 0, 61, 64
2, 979456, Note_off_c, 0, 57, 64
2, 979460, Note_off_c, 0, 54, 64
2, 979464, Note_on_c, 0, 68, 66
2, 979518, Note_off_c, 0, 68, 64
2, 979525, Note_off_c, 0, 42, 64
2, 979536, Note_on_c, 0, 57, 44
2, 979540, Note_on_c, 0, 69, 69
2, 979540, Note_on_c, 0, 61, 50
2, 979544, Note_on_c, 0, 54, 44
2, 979550, Note_on_c, 0, 49, 46
2, 979588, Note_off_c, 0, 57, 64
2, 979592, Note_off_c, 0, 61, 64
2, 979596, Note_off_c, 0, 54, 64
2, 979602, Note_off_c, 0, 49, 64
2, 979617, Note_on_c, 0, 72, 62
2, 979627, Note_off_c, 0, 69, 64
2, 979648, Control_c, 0, 64, 0
2, 979668, Note_on_c, 0, 42, 74
2, 979669, Note_on_c, 0, 74, 71
2, 979677, Control_c, 0, 64, 127
2, 979681, Note_off_c, 0, 72, 64
2, 979726, Note_on_c, 0, 76, 56
2, 979731, Note_off_c, 0, 74, 64
2, 979775, Note_on_c, 0, 74, 71
2, 979779, Control_c, 0, 64, 0
2, 979792, Note_off_c, 0, 76, 64
2, 979808, Note_on_c, 0, 61, 74
2, 979808, Note_on_c, 0, 57, 36
2, 979810, Note_on_c, 0, 73, 73
2, 979810, Note_on_c, 0, 66, 74
2, 979828, Note_off_c, 0, 74, 64
2, 979829, Control_c, 0, 64, 127
2, 979860, Note_off_c, 0, 57, 64
2, 979860, Note_off_c, 0, 61, 64
2, 979860, Note_off_c, 0, 42, 64
2, 979862, Note_off_c, 0, 66, 64
2, 979961, Note_off_c, 0, 73, 64
2, 979974, Note_on_c, 0, 61, 36
2, 979982, Note_on_c, 0, 78, 67
2, 979982, Note_on_c, 0, 57, 69
2, 979986, Note_on_c, 0, 66, 63
2, 980026, Note_off_c, 0, 61, 64
2, 980034, Note_off_c, 0, 57, 64
2, 980038, Note_off_c, 0, 66, 64
2, 980059, Control_c, 0, 64, 127
2, 980121, Note_on_c, 0, 47, 58
2, 980131, Note_on_c, 0, 73, 80
2, 980152, Note_off_c, 0, 78, 64
2, 980177, Note_on_c, 0, 74, 56
2, 980182, Note_off_c, 0, 73, 64
2, 980212, Note_on_c, 0, 73, 69
2, 980229, Note_off_c, 0, 74, 64
2, 980238, Control_c, 0, 64, 0
2, 980244, Note_on_c, 0, 64, 66
2, 980245, Note_on_c, 0, 54, 69
2, 980252, Note_on_c, 0, 72, 58
2, 980267, Note_off_c, 0, 73, 64
2, 980274, Note_off_c, 0, 64, 64
2, 980275, Note_off_c, 0, 54, 64
2, 980281, Control_c, 0, 64, 127
2, 980398, Note_off_c, 0, 72, 64
2, 980400, Note_off_c, 0, 47, 64
2, 980402, Note_on_c, 0, 54, 36
2, 980404, Note_on_c, 0, 71, 65
2, 980405, Note_on_c, 0, 78, 73
2, 980408, Note_on_c, 0, 62, 41
2, 980447, Note_off_c, 0, 62, 64
2, 980454, Note_off_c, 0, 54, 64
2, 980529, Note_off_c, 0, 71, 64
2, 980548, Note_on_c, 0, 42, 73
2, 980552, Note_off_c, 0, 78, 64
2, 980555, Note_on_c, 0, 71, 62
2, 980559, Control_c, 0, 64, 0
2, 980572, Control_c, 0, 64, 127
2, 980593, Note_on_c, 0, 73, 71
2, 980607, Note_off_c, 0, 71, 64
2, 980631, Note_on_c, 0, 71, 62
2, 980651, Note_off_c, 0, 73, 64
2, 980677, Note_on_c, 0, 70, 73
2, 980677, Note_on_c, 0, 61, 71
2, 980677, Control_c, 0, 64, 0
2, 980686, Note_on_c, 0, 54, 55
2, 980697, Note_off_c, 0, 71, 64
2, 980707, Control_c, 0, 64, 127
2, 980715, Note_off_c, 0, 61, 64
2, 980719, Note_off_c, 0, 54, 64
2, 980766, Note_off_c, 0, 70, 64
2, 980822, Note_on_c, 0, 69, 69
2, 980824, Note_off_c, 0, 42, 64
2, 980826, Note_on_c, 0, 73, 69
2, 980833, Note_on_c, 0, 54, 56
2, 980836, Note_on_c, 0, 61, 50
2, 980892, Note_off_c, 0, 61, 64
2, 980895, Note_off_c, 0, 54, 64
2, 980951, Note_off_c, 0, 69, 64
2, 980963, Note_off_c, 0, 73, 64
2, 980965, Note_on_c, 0, 69, 70
2, 980980, Control_c, 0, 64, 0
2, 980985, Note_on_c, 0, 49, 69
2, 981003, Control_c, 0, 64, 127
2, 981021, Note_off_c, 0, 69, 64
2, 981024, Note_on_c, 0, 71, 56
2, 981057, Note_on_c, 0, 69, 59
2, 981083, Note_off_c, 0, 71, 64
2, 981098, Control_c, 0, 64, 0
2, 981102, Note_on_c, 0, 61, 36
2, 981102, Note_on_c, 0, 53, 57
2, 981109, Note_on_c, 0, 68, 83
2, 981116, Control_c, 0, 64, 127
2, 981136, Note_off_c, 0, 69, 64
2, 981142, Note_off_c, 0, 61, 64
2, 981173, Note_off_c, 0, 53, 64
2, 981204, Note_off_c, 0, 68, 64
2, 981238, Control_c, 0, 64, 0
2, 981244, Note_on_c, 0, 59, 63
2, 981244, Note_on_c, 0, 53, 64
2, 981248, Note_on_c, 0, 73, 73
2, 981258, Control_c, 0, 64, 127
2, 981266, Note_off_c, 0, 59, 64
2, 981272, Note_off_c, 0, 53, 64
2, 981325, Note_off_c, 0, 49, 64
2, 981383, Note_on_c, 0, 68, 69
2, 981391, Note_on_c, 0, 42, 59
2, 981395, Note_off_c, 0, 73, 64
2, 981400, Control_c, 0, 64, 0
2, 981428, Note_on_c, 0, 69, 57
2, 981439, Control_c, 0, 64, 127
2, 981441, Note_off_c, 0, 68, 64
2, 981471, Note_on_c, 0, 68, 62
2, 981486, Note_off_c, 0, 69, 64
2, 981513, Note_on_c, 0, 67, 67
2, 981522, Control_c, 0, 64, 0
2, 981527, Note_off_c, 0, 68, 64
2, 981530, Note_on_c, 0, 57, 71
2, 981550, Control_c, 0, 64, 127
2, 981566, Note_off_c, 0, 57, 64
2, 981635, Note_off_c, 0, 67, 64
2, 981669, Note_off_c, 0, 42, 64
2, 981678, Note_on_c, 0, 51, 56
2, 981680, Note_on_c, 0, 57, 41
2, 981681, Note_on_c, 0, 73, 73
2, 981689, Note_on_c, 0, 66, 67
2, 981689, Note_on_c, 0, 61, 47
2, 981693, Control_c, 0, 64, 0
2, 981698, Control_c, 0, 64, 0
2, 981738, Control_c, 0, 64, 127
2, 981742, Note_off_c, 0, 51, 64
2, 981772, Note_off_c, 0, 57, 64
2, 981792, Note_off_c, 0, 61, 64
2, 981811, Note_off_c, 0, 66, 64
2, 981855, Note_on_c, 0, 66, 64
2, 981860, Control_c, 0, 64, 0
2, 981865, Note_on_c, 0, 44, 50
2, 981870, Note_off_c, 0, 73, 64
2, 981890, Note_on_c, 0, 68, 56
2, 981900, Control_c, 0, 64, 127
2, 981906, Note_off_c, 0, 66, 64
2, 981932, Note_on_c, 0, 66, 56
2, 981952, Note_off_c, 0, 68, 64
2, 981993, Control_c, 0, 64, 0
2, 982000, Note_on_c, 0, 65, 52
2, 982004, Note_off_c, 0, 66, 64
2, 982004, Note_on_c, 0, 56, 56
2, 982043, Control_c, 0, 64, 127
2, 982064, Note_on_c, 0, 64, 52
2, 982066, Note_off_c, 0, 56, 64
2, 982067, Note_on_c, 0, 68, 62
2, 982091, Control_c, 0, 64, 127
2, 982092, Note_off_c, 0, 65, 64
2, 982141, Note_off_c, 0, 68, 64
2, 982146, Note_off_c, 0, 44, 64
2, 982148, Note_on_c, 0, 63, 70
2, 982152, Note_off_c, 0, 64, 64
2, 982161, Note_on_c, 0, 54, 58
2, 982166, Note_on_c, 0, 60, 59
2, 982187, Note_off_c, 0, 60, 64
2, 982193, Note_off_c, 0, 54, 64
2, 982231, Note_on_c, 0, 68, 63
2, 982247, Note_off_c, 0, 63, 64
2, 982292, Note_off_c, 0, 68, 64
2, 982302, Note_on_c, 0, 61, 69
2, 982306, Note_on_c, 0, 37, 60
2, 982322, Control_c, 0, 64, 0
2, 982345, Control_c, 0, 64, 127
2, 982378, Note_on_c, 0, 62, 62
2, 982386, Note_off_c, 0, 61, 64
2, 982406, Note_on_c, 0, 64, 60
2, 982419, Note_off_c, 0, 62, 64
2, 982442, Note_on_c, 0, 62, 67
2, 982458, Note_off_c, 0, 64, 64
2, 982460, Control_c, 0, 64, 0
2, 982473, Note_on_c, 0, 49, 55
2, 982482, Note_on_c, 0, 59, 59
2, 982485, Note_on_c, 0, 61, 71
2, 982488, Note_on_c, 0, 53, 40
2, 982492, Note_off_c, 0, 62, 64
2, 982504, Control_c, 0, 64, 127
2, 982520, Note_off_c, 0, 49, 64
2, 982522, Note_off_c, 0, 59, 64
2, 982527, Note_off_c, 0, 53, 64
2, 982550, Note_off_c, 0, 61, 64
2, 982563, Note_on_c, 0, 62, 71
2, 982567, Note_on_c, 0, 71, 70
2, 982592, Note_off_c, 0, 37, 64
2, 982618, Note_off_c, 0, 62, 64
2, 982646, Note_on_c, 0, 56, 41
2, 982647, Note_on_c, 0, 61, 79
2, 982650, Note_on_c, 0, 69, 71
2, 982654, Note_on_c, 0, 59, 64
2, 982654, Note_on_c, 0, 49, 59
2, 982656, Note_off_c, 0, 71, 64
2, 982675, Note_off_c, 0, 59, 64
2, 982685, Note_off_c, 0, 56, 64
2, 982688, Note_off_c, 0, 49, 64
2, 982693, Note_off_c, 0, 61, 64
2, 982730, Note_on_c, 0, 68, 81
2, 982730, Note_on_c, 0, 65, 82
2, 982736, Note_off_c, 0, 69, 64
2, 982768, Control_c, 0, 64, 127
2, 982830, Note_on_c, 0, 66, 90
2, 982835, Note_off_c, 0, 65, 64
2, 982835, Note_off_c, 0, 68, 64
2, 982840, Note_on_c, 0, 42, 80
2, 982853, Control_c, 0, 64, 0
2, 982894, Control_c, 0, 64, 127
2, 982981, Control_c, 0, 64, 0
2, 982990, Note_on_c, 0, 56, 27
2, 982993, Note_on_c, 0, 68, 62
2, 983002, Note_on_c, 0, 49, 50
2, 983004, Note_off_c, 0, 56, 64
2, 983004, Note_off_c, 0, 66, 64
2, 983004, Note_on_c, 0, 61, 59
2, 983016, Control_c, 0, 64, 127
2, 983049, Note_off_c, 0, 68, 64
2, 983052, Note_on_c, 0, 66, 77
2, 983060, Note_off_c, 0, 49, 64
2, 983064, Note_off_c, 0, 61, 64
2, 983120, Note_on_c, 0, 69, 50
2, 983124, Note_off_c, 0, 66, 64
2, 983131, Note_on_c, 0, 61, 57
2, 983144, Note_off_c, 0, 42, 64
2, 983146, Note_on_c, 0, 49, 55
2, 983158, Note_on_c, 0, 56, 27
2, 983169, Note_off_c, 0, 61, 64
2, 983172, Note_off_c, 0, 56, 64
2, 983173, Control_c, 0, 64, 0
2, 983176, Note_off_c, 0, 49, 64
2, 983193, Note_on_c, 0, 72, 63
2, 983208, Note_off_c, 0, 69, 64
2, 983253, Note_on_c, 0, 74, 59
2, 983256, Control_c, 0, 64, 0
2, 983265, Note_on_c, 0, 42, 77
2, 983268, Note_off_c, 0, 72, 64
2, 983274, Control_c, 0, 64, 127
2, 983300, Note_on_c, 0, 76, 62
2, 983314, Note_off_c, 0, 74, 64
2, 983336, Note_on_c, 0, 74, 73
2, 983345, Note_off_c, 0, 76, 64
2, 983374, Control_c, 0, 64, 0
2, 983382, Note_on_c, 0, 73, 85
2, 983385, Note_on_c, 0, 64, 71
2, 983385, Note_on_c, 0, 54, 62
2, 983392, Note_on_c, 0, 58, 71
2, 983396, Note_off_c, 0, 74, 64
2, 983414, Note_off_c, 0, 64, 64
2, 983418, Note_off_c, 0, 58, 64
2, 983418, Note_off_c, 0, 54, 64
2, 983430, Control_c, 0, 64, 127
2, 983537, Note_off_c, 0, 42, 64
2, 983579, Note_on_c, 0, 78, 73
2, 983579, Note_on_c, 0, 64, 65
2, 983585, Note_off_c, 0, 73, 64
2, 983585, Note_on_c, 0, 54, 46
2, 983590, Note_on_c, 0, 58, 57
2, 983593, Note_on_c, 0, 66, 73
2, 983615, Note_off_c, 0, 64, 64
2, 983618, Note_off_c, 0, 58, 64
2, 983622, Note_off_c, 0, 54, 64
2, 983721, Note_on_c, 0, 47, 59
2, 983738, Note_off_c, 0, 66, 64
2, 983746, Note_on_c, 0, 73, 66
2, 983768, Note_off_c, 0, 78, 64
2, 983790, Note_off_c, 0, 73, 64
2, 983790, Note_on_c, 0, 74, 58
2, 983821, Note_on_c, 0, 73, 69
2, 983842, Note_off_c, 0, 74, 64
2, 983850, Control_c, 0, 64, 0
2, 983856, Note_on_c, 0, 64, 62
2, 983858, Note_on_c, 0, 54, 62
2, 983867, Note_on_c, 0, 72, 69
2, 983880, Note_off_c, 0, 73, 64
2, 983882, Control_c, 0, 64, 127
2, 983890, Note_off_c, 0, 64, 64
2, 983896, Note_off_c, 0, 54, 64
2, 984008, Note_off_c, 0, 72, 64
2, 984019, Note_off_c, 0, 47, 64
2, 984021, Note_on_c, 0, 62, 71
2, 984024, Note_on_c, 0, 78, 73
2, 984028, Note_on_c, 0, 71, 69
2, 984028, Note_on_c, 0, 54, 58
2, 984056, Note_off_c, 0, 62, 64
2, 984062, Note_off_c, 0, 54, 64
2, 984075, Note_off_c, 0, 71, 64
2, 984162, Note_off_c, 0, 78, 64
2, 984162, Note_on_c, 0, 71, 71
2, 984170, Note_on_c, 0, 42, 73
2, 984206, Note_on_c, 0, 73, 69
2, 984220, Note_off_c, 0, 71, 64
2, 984245, Note_on_c, 0, 71, 59
2, 984259, Note_off_c, 0, 73, 64
2, 984276, Note_on_c, 0, 70, 60
2, 984290, Note_on_c, 0, 54, 62
2, 984295, Note_on_c, 0, 61, 74
2, 984296, Control_c, 0, 64, 0
2, 984302, Note_off_c, 0, 71, 64
2, 984325, Note_off_c, 0, 61, 64
2, 984325, Note_off_c, 0, 54, 64
2, 984331, Control_c, 0, 64, 127
2, 984360, Note_off_c, 0, 70, 64
2, 984446, Note_off_c, 0, 42, 64
2, 984446, Note_on_c, 0, 73, 69
2, 984449, Note_on_c, 0, 69, 71
2, 984449, Note_on_c, 0, 61, 37
2, 984456, Note_on_c, 0, 54, 54
2, 984466, Control_c, 0, 64, 0
2, 984501, Control_c, 0, 64, 127
2, 984564, Note_on_c, 0, 50, 59
2, 984568, Note_off_c, 0, 61, 64
2, 984572, Note_off_c, 0, 54, 64
2, 984626, Note_off_c, 0, 69, 64
2, 984639, Note_on_c, 0, 66, 70
2, 984661, Note_off_c, 0, 73, 64
2, 984673, Control_c, 0, 64, 0
2, 984735, Control_c, 0, 64, 127
2, 984809, Note_on_c, 0, 61, 55
2, 984817, Note_on_c, 0, 54, 44
2, 984864, Note_on_c, 0, 68, 59
2, 984867, Note_off_c, 0, 61, 64
2, 984879, Note_off_c, 0, 54, 64
2, 984881, Note_off_c, 0, 66, 64
2, 984946, Note_on_c, 0, 69, 73
2, 984953, Note_off_c, 0, 68, 64
2, 984956, Note_on_c, 0, 54, 49
2, 984956, Note_on_c, 0, 59, 57
2, 985020, Note_off_c, 0, 59, 64
2, 985023, Note_on_c, 0, 71, 59
2, 985029, Note_off_c, 0, 69, 64
2, 985042, Note_off_c, 0, 54, 64
2, 985073, Note_off_c, 0, 71, 64
2, 985075, Note_off_c, 0, 50, 64
2, 985077, Control_c, 0, 64, 0
2, 985084, Note_on_c, 0, 69, 69
2, 985098, Note_on_c, 0, 49, 62
2, 985116, Control_c, 0, 64, 127
2, 985123, Note_on_c, 0, 71, 69
2, 985128, Note_off_c, 0, 69, 64
2, 985171, Note_on_c, 0, 69, 74
2, 985182, Note_off_c, 0, 71, 64
2, 985197, Control_c, 0, 64, 0
2, 985212, Note_on_c, 0, 68, 78
2, 985215, Note_on_c, 0, 54, 55
2, 985227, Note_on_c, 0, 59, 50
2, 985232, Note_off_c, 0, 69, 64
2, 985248, Control_c, 0, 64, 127
2, 985270, Note_off_c, 0, 59, 64
2, 985272, Note_off_c, 0, 54, 64
2, 985401, Note_on_c, 0, 53, 41
2, 985406, Note_on_c, 0, 59, 36
2, 985412, Control_c, 0, 64, 0
2, 985425, Note_on_c, 0, 73, 66
2, 985437, Note_off_c, 0, 68, 64
2, 985461, Control_c, 0, 64, 127
2, 985546, Note_off_c, 0, 49, 64
2, 985568, Note_on_c, 0, 50, 46
2, 985582, Note_off_c, 0, 53, 64
2, 985614, Note_off_c, 0, 59, 64
2, 985632, Note_on_c, 0, 66, 74
2, 985650, Note_off_c, 0, 73, 64
2, 985659, Control_c, 0, 64, 0
2, 985712, Control_c, 0, 64, 127
2, 985792, Note_on_c, 0, 61, 39
2, 985796, Note_on_c, 0, 54, 47
2, 985848, Note_on_c, 0, 68, 62
2, 985854, Note_off_c, 0, 61, 64
2, 985867, Note_off_c, 0, 54, 64
2, 985874, Note_off_c, 0, 66, 64
2, 985912, Note_off_c, 0, 68, 64
2, 985925, Note_on_c, 0, 69, 64
2, 985945, Note_on_c, 0, 54, 47
2, 986014, Note_on_c, 0, 73, 40
2, 986038, Note_on_c, 0, 71, 72
2, 986047, Note_off_c, 0, 54, 64
2, 986053, Note_off_c, 0, 73, 64
2, 986064, Note_off_c, 0, 69, 64
2, 986111, Note_off_c, 0, 71, 64
2, 986125, Note_on_c, 0, 69, 69
2, 986134, Note_off_c, 0, 50, 64
2, 986142, Note_on_c, 0, 49, 58
2, 986151, Control_c, 0, 64, 0
2, 986193, Note_on_c, 0, 71, 66
2, 986196, Control_c, 0, 64, 127
2, 986202, Note_off_c, 0, 69, 64
2, 986240, Note_on_c, 0, 69, 59
2, 986248, Note_off_c, 0, 71, 64
2, 986292, Note_on_c, 0, 54, 36
2, 986301, Note_on_c, 0, 59, 47
2, 986326, Note_on_c, 0, 68, 82
2, 986360, Note_off_c, 0, 69, 64
2, 986398, Note_off_c, 0, 59, 64
2, 986566, Note_off_c, 0, 54, 64
2, 986594, Note_off_c, 0, 68, 64
2, 986599, Note_on_c, 0, 53, 31
2, 986604, Note_on_c, 0, 73, 64
2, 986610, Note_on_c, 0, 59, 29
2, 986622, Control_c, 0, 64, 0
2, 986668, Control_c, 0, 64, 127
2, 986746, Note_off_c, 0, 49, 64
2, 986784, Note_on_c, 0, 50, 28
2, 986802, Note_off_c, 0, 53, 64
2, 986836, Note_on_c, 0, 66, 77
2, 986844, Note_off_c, 0, 73, 64
2, 986845, Note_off_c, 0, 59, 64
2, 986868, Control_c, 0, 64, 0
2, 986923, Control_c, 0, 64, 127
2, 987034, Note_on_c, 0, 54, 43
2, 987038, Note_on_c, 0, 61, 29
2, 987094, Note_off_c, 0, 66, 64
2, 987101, Note_on_c, 0, 68, 59
2, 987107, Note_off_c, 0, 61, 64
2, 987109, Note_off_c, 0, 54, 64
2, 987175, Note_off_c, 0, 68, 64
2, 987205, Note_on_c, 0, 69, 59
2, 987221, Note_on_c, 0, 54, 27
2, 987228, Note_on_c, 0, 59, 29
2, 987283, Note_on_c, 0, 71, 60
2, 987296, Note_off_c, 0, 54, 64
2, 987303, Note_off_c, 0, 59, 64
2, 987309, Note_off_c, 0, 69, 64
2, 987345, Note_off_c, 0, 50, 64
2, 987394, Note_on_c, 0, 35, 56
2, 987427, Control_c, 0, 64, 0
2, 987445, Note_on_c, 0, 73, 64
2, 987473, Control_c, 0, 64, 127
2, 987483, Note_off_c, 0, 71, 64
2, 987604, Note_on_c, 0, 76, 64
2, 987627, Note_off_c, 0, 73, 64
2, 987691, Note_on_c, 0, 74, 64
2, 987693, Note_on_c, 0, 66, 29
2, 987699, Control_c, 0, 64, 0
2, 987702, Note_on_c, 0, 59, 3
2, 987702, Note_on_c, 0, 62, 3
2, 987703, Note_on_c, 0, 56, 41
2, 987708, Note_off_c, 0, 76, 64
2, 987745, Control_c, 0, 64, 127
2, 987826, Note_off_c, 0, 74, 64
2, 987869, Note_off_c, 0, 66, 64
2, 987878, Note_off_c, 0, 62, 64
2, 987878, Note_off_c, 0, 59, 64
2, 987879, Note_off_c, 0, 56, 64
2, 987976, Note_off_c, 0, 35, 64
2, 988003, Note_on_c, 0, 66, 77
2, 988055, Note_off_c, 0, 66, 64
2, 988107, Note_on_c, 0, 66, 62
2, 988206, Note_on_c, 0, 65, 66
2, 988227, Note_off_c, 0, 66, 64
2, 988311, Note_on_c, 0, 69, 62
2, 988312, Note_on_c, 0, 37, 55
2, 988332, Note_off_c, 0, 65, 64
2, 988334, Control_c, 0, 64, 0
2, 988396, Control_c, 0, 64, 127
2, 988527, Note_on_c, 0, 49, 46
2, 988533, Note_on_c, 0, 65, 56
2, 988543, Note_on_c, 0, 59, 29
2, 988546, Note_off_c, 0, 37, 64
2, 988576, Note_off_c, 0, 49, 64
2, 988605, Note_off_c, 0, 59, 64
2, 988645, Note_on_c, 0, 68, 62
2, 988650, Note_off_c, 0, 69, 64
2, 988673, Note_off_c, 0, 65, 64
2, 988774, Note_on_c, 0, 59, 39
2, 988800, Note_on_c, 0, 70, 58
2, 988809, Note_off_c, 0, 68, 64
2, 988810, Note_on_c, 0, 65, 66
2, 988840, Control_c, 0, 64, 0
2, 988874, Control_c, 0, 64, 127
2, 988948, Note_off_c, 0, 70, 64
2, 988960, Note_on_c, 0, 71, 64
2, 989077, Note_on_c, 0, 72, 63
2, 989091, Note_off_c, 0, 71, 64
2, 989167, Note_on_c, 0, 73, 60
2, 989203, Note_off_c, 0, 72, 64
2, 989281, Note_on_c, 0, 77, 63
2, 989301, Control_c, 0, 64, 0
2, 989309, Note_off_c, 0, 73, 64
2, 989334, Control_c, 0, 64, 127
2, 989354, Note_off_c, 0, 65, 64
2, 989393, Note_off_c, 0, 59, 64
2, 989410, Note_on_c, 0, 75, 58
2, 989415, Note_off_c, 0, 77, 64
2, 989419, Note_on_c, 0, 71, 50
2, 989467, Note_off_c, 0, 75, 64
2, 989498, Note_off_c, 0, 71, 64
2, 989582, Note_on_c, 0, 73, 60
2, 989586, Note_on_c, 0, 42, 49
2, 989586, Note_on_c, 0, 70, 41
2, 989617, Control_c, 0, 64, 0
2, 989668, Control_c, 0, 64, 127
2, 989767, Note_off_c, 0, 73, 64
2, 989787, Note_off_c, 0, 70, 64
2, 989805, Note_on_c, 0, 49, 48
2, 989826, Note_off_c, 0, 42, 64
2, 989945, Note_on_c, 0, 69, 50
2, 989954, Note_on_c, 0, 72, 50
2, 989990, Note_off_c, 0, 49, 64
2, 989998, Control_c, 0, 64, 0
2, 990006, Note_on_c, 0, 61, 56
2, 990008, Note_off_c, 0, 69, 64
2, 990012, Note_on_c, 0, 51, 48
2, 990027, Note_off_c, 0, 72, 64
2, 990046, Control_c, 0, 64, 127
2, 990152, Note_on_c, 0, 68, 56
2, 990203, Note_off_c, 0, 61, 64
2, 990212, Note_on_c, 0, 71, 59
2, 990218, Note_on_c, 0, 53, 52
2, 990221, Note_off_c, 0, 51, 64
2, 990228, Control_c, 0, 64, 0
2, 990235, Note_off_c, 0, 68, 64
2, 990265, Control_c, 0, 64, 127
2, 990331, Note_off_c, 0, 71, 64
2, 990357, Note_off_c, 0, 53, 64
2, 990360, Note_on_c, 0, 70, 51
2, 990378, Note_on_c, 0, 66, 42
2, 990410, Note_on_c, 0, 54, 54
2, 990421, Control_c, 0, 64, 0
2, 990422, Note_on_c, 0, 61, 69
2, 990439, Note_off_c, 0, 66, 64
2, 990447, Note_off_c, 0, 70, 64
2, 990468, Control_c, 0, 64, 127
2, 990486, Note_off_c, 0, 61, 64
2, 990598, Note_on_c, 0, 70, 55
2, 990598, Note_on_c, 0, 66, 55
2, 990631, Note_off_c, 0, 66, 64
2, 990631, Note_off_c, 0, 70, 64
2, 990645, Note_off_c, 0, 54, 64
2, 990650, Note_on_c, 0, 64, 63
2, 990650, Control_c, 0, 64, 0
2, 990659, Note_on_c, 0, 61, 43
2, 990662, Note_on_c, 0, 70, 60
2, 990710, Control_c, 0, 64, 127
2, 990761, Note_off_c, 0, 64, 64
2, 990800, Note_off_c, 0, 70, 64
2, 990866, Note_on_c, 0, 66, 58
2, 990871, Note_on_c, 0, 63, 65
2, 990876, Note_off_c, 0, 61, 64
2, 990878, Control_c, 0, 64, 0
2, 990944, Control_c, 0, 64, 127
2, 991088, Note_on_c, 0, 47, 58
2, 991098, Control_c, 0, 64, 0
2, 991141, Control_c, 0, 64, 127
2, 991193, Note_off_c, 0, 66, 64
2, 991216, Note_off_c, 0, 63, 64
2, 991222, Note_on_c, 0, 71, 32
2, 991225, Note_on_c, 0, 75, 54
2, 991294, Note_on_c, 0, 66, 60
2, 991302, Note_off_c, 0, 71, 64
2, 991302, Note_on_c, 0, 63, 44
2, 991302, Note_on_c, 0, 59, 44
2, 991302, Note_on_c, 0, 54, 44
2, 991305, Note_off_c, 0, 75, 64
2, 991346, Note_off_c, 0, 47, 64
2, 991435, Note_on_c, 0, 73, 59
2, 991504, Control_c, 0, 64, 0
2, 991510, Note_on_c, 0, 77, 65
2, 991512, Note_on_c, 0, 35, 65
2, 991516, Note_off_c, 0, 54, 64
2, 991516, Note_off_c, 0, 59, 64
2, 991516, Note_off_c, 0, 63, 64
2, 991520, Note_off_c, 0, 73, 64
2, 991533, Note_off_c, 0, 66, 64
2, 991541, Control_c, 0, 64, 127
2, 991615, Note_off_c, 0, 77, 64
2, 991632, Note_on_c, 0, 75, 36
2, 991633, Note_on_c, 0, 78, 57
2, 991707, Note_off_c, 0, 75, 64
2, 991723, Note_on_c, 0, 66, 62
2, 991724, Note_on_c, 0, 54, 41
2, 991731, Note_on_c, 0, 63, 50
2, 991738, Note_off_c, 0, 78, 64
2, 991767, Note_off_c, 0, 66, 64
2, 991776, Note_off_c, 0, 63, 64
2, 991783, Note_off_c, 0, 54, 64
2, 991831, Note_on_c, 0, 75, 54
2, 991842, Note_on_c, 0, 78, 58
2, 991886, Note_on_c, 0, 80, 67
2, 991893, Note_off_c, 0, 75, 64
2, 991904, Note_off_c, 0, 78, 64
2, 991920, Note_on_c, 0, 78, 69
2, 991944, Note_off_c, 0, 80, 64
2, 991956, Note_on_c, 0, 54, 31
2, 991959, Note_on_c, 0, 73, 54
2, 991963, Note_on_c, 0, 77, 67
2, 991968, Note_on_c, 0, 66, 37
2, 991974, Control_c, 0, 64, 0
2, 991996, Note_off_c, 0, 78, 64
2, 992008, Control_c, 0, 64, 127
2, 992030, Note_off_c, 0, 66, 64
2, 992035, Note_off_c, 0, 35, 64
2, 992054, Note_on_c, 0, 75, 64
2, 992057, Note_on_c, 0, 71, 56
2, 992061, Note_off_c, 0, 73, 64
2, 992065, Note_off_c, 0, 77, 64
2, 992101, Note_off_c, 0, 54, 64
2, 992111, Note_off_c, 0, 75, 64
2, 992130, Note_off_c, 0, 71, 64
2, 992172, Control_c, 0, 64, 0
2, 992182, Note_on_c, 0, 73, 69
2, 992182, Note_on_c, 0, 42, 59
2, 992186, Note_on_c, 0, 70, 64
2, 992221, Control_c, 0, 64, 127
2, 992405, Note_on_c, 0, 49, 58
2, 992417, Note_off_c, 0, 70, 64
2, 992422, Note_off_c, 0, 42, 64
2, 992425, Note_off_c, 0, 73, 64
2, 992545, Note_on_c, 0, 72, 50
2, 992547, Note_on_c, 0, 69, 36
2, 992568, Note_off_c, 0, 49, 64
2, 992584, Note_off_c, 0, 72, 64
2, 992594, Note_on_c, 0, 61, 66
2, 992594, Control_c, 0, 64, 0
2, 992606, Note_off_c, 0, 69, 64
2, 992614, Note_on_c, 0, 51, 52
2, 992662, Control_c, 0, 64, 127
2, 992739, Note_on_c, 0, 68, 59
2, 992798, Note_off_c, 0, 61, 64
2, 992803, Note_on_c, 0, 71, 62
2, 992806, Note_on_c, 0, 53, 50
2, 992810, Note_off_c, 0, 51, 64
2, 992819, Control_c, 0, 64, 0
2, 992820, Note_off_c, 0, 68, 64
2, 992850, Control_c, 0, 64, 127
2, 992876, Note_off_c, 0, 53, 64
2, 992885, Note_off_c, 0, 71, 64
2, 992934, Note_on_c, 0, 66, 46
2, 992947, Note_on_c, 0, 70, 49
2, 992992, Note_off_c, 0, 66, 64
2, 992992, Note_on_c, 0, 54, 50
2, 993000, Note_on_c, 0, 61, 64
2, 993017, Note_off_c, 0, 70, 64
2, 993021, Control_c, 0, 64, 0
2, 993055, Control_c, 0, 64, 127
2, 993067, Note_off_c, 0, 61, 64
2, 993137, Note_off_c, 0, 54, 64
2, 993137, Note_on_c, 0, 70, 59
2, 993137, Note_on_c, 0, 66, 46
2, 993189, Note_on_c, 0, 69, 59
2, 993192, Note_on_c, 0, 63, 66
2, 993195, Note_off_c, 0, 66, 64
2, 993196, Note_off_c, 0, 70, 64
2, 993205, Note_on_c, 0, 61, 46
2, 993226, Control_c, 0, 64, 0
2, 993268, Control_c, 0, 64, 127
2, 993356, Note_off_c, 0, 61, 64
2, 993356, Note_off_c, 0, 63, 64
2, 993364, Note_off_c, 0, 69, 64
2, 993405, Control_c, 0, 64, 0
2, 993412, Note_on_c, 0, 68, 62
2, 993412, Note_on_c, 0, 66, 58
2, 993419, Note_on_c, 0, 60, 59
2, 993484, Control_c, 0, 64, 127
2, 993631, Note_on_c, 0, 44, 55
2, 993635, Note_off_c, 0, 60, 64
2, 993666, Note_off_c, 0, 66, 64
2, 993666, Note_off_c, 0, 68, 64
2, 993776, Note_on_c, 0, 72, 59
2, 993818, Control_c, 0, 64, 0
2, 993827, Note_on_c, 0, 66, 59
2, 993827, Note_on_c, 0, 58, 51
2, 993832, Note_on_c, 0, 68, 69
2, 993835, Note_off_c, 0, 72, 64
2, 993835, Note_on_c, 0, 56, 46
2, 993873, Control_c, 0, 64, 127
2, 993907, Note_off_c, 0, 56, 64
2, 993916, Note_off_c, 0, 58, 64
2, 993923, Note_off_c, 0, 44, 64
2, 993930, Note_off_c, 0, 66, 64
2, 993960, Note_on_c, 0, 73, 58
2, 993962, Note_off_c, 0, 68, 64
2, 994022, Control_c, 0, 64, 0
2, 994031, Note_on_c, 0, 74, 65
2, 994031, Note_on_c, 0, 56, 55
2, 994043, Note_on_c, 0, 59, 43
2, 994047, Note_off_c, 0, 73, 64
2, 994070, Control_c, 0, 64, 127
2, 994089, Note_off_c, 0, 56, 64
2, 994090, Note_off_c, 0, 59, 64
2, 994134, Note_on_c, 0, 75, 59
2, 994147, Note_off_c, 0, 74, 64
2, 994212, Control_c, 0, 64, 0
2, 994214, Note_on_c, 0, 60, 43
2, 994214, Note_on_c, 0, 56, 58
2, 994219, Note_on_c, 0, 68, 69
2, 994219, Note_on_c, 0, 66, 67
2, 994234, Note_off_c, 0, 75, 64
2, 994268, Note_off_c, 0, 60, 64
2, 994276, Note_off_c, 0, 56, 64
2, 994279, Control_c, 0, 64, 127
2, 994318, Note_on_c, 0, 78, 62
2, 994325, Note_off_c, 0, 66, 64
2, 994325, Note_off_c, 0, 68, 64
2, 994414, Note_on_c, 0, 56, 36
2, 994422, Note_on_c, 0, 65, 55
2, 994422, Note_on_c, 0, 49, 51
2, 994423, Control_c, 0, 64, 0
2, 994428, Note_on_c, 0, 61, 49
2, 994437, Note_on_c, 0, 77, 64
2, 994460, Note_off_c, 0, 78, 64
2, 994475, Control_c, 0, 64, 127
2, 994504, Note_off_c, 0, 56, 64
2, 994512, Note_off_c, 0, 49, 64
2, 994518, Note_off_c, 0, 61, 64
2, 994530, Note_off_c, 0, 65, 64
2, 994545, Note_off_c, 0, 77, 64
2, 994582, Note_on_c, 0, 70, 71
2, 994625, Note_off_c, 0, 70, 64
2, 994635, Note_on_c, 0, 70, 74
2, 994647, Note_on_c, 0, 44, 62
2, 994652, Control_c, 0, 64, 0
2, 994695, Control_c, 0, 64, 127
2, 994848, Note_on_c, 0, 56, 56
2, 994854, Note_on_c, 0, 66, 71
2, 994855, Note_on_c, 0, 63, 57
2, 994865, Control_c, 0, 64, 0
2, 994901, Control_c, 0, 64, 127
2, 994912, Note_off_c, 0, 63, 64
2, 994922, Note_off_c, 0, 56, 64
2, 994942, Note_off_c, 0, 44, 64
2, 994950, Note_off_c, 0, 66, 64
2, 994980, Note_on_c, 0, 72, 60
2, 994981, Note_off_c, 0, 70, 64
2, 995015, Note_on_c, 0, 70, 55
2, 995026, Note_off_c, 0, 72, 64
2, 995042, Note_on_c, 0, 68, 64
2, 995048, Note_on_c, 0, 66, 42
2, 995058, Note_on_c, 0, 56, 57
2, 995063, Note_on_c, 0, 58, 50
2, 995066, Note_off_c, 0, 70, 64
2, 995074, Control_c, 0, 64, 0
2, 995109, Control_c, 0, 64, 127
2, 995117, Note_off_c, 0, 56, 64
2, 995124, Note_off_c, 0, 58, 64
2, 995163, Note_off_c, 0, 66, 64
2, 995172, Note_off_c, 0, 68, 64
2, 995198, Note_on_c, 0, 73, 59
2, 995246, Note_on_c, 0, 59, 39
2, 995248, Note_on_c, 0, 56, 55
2, 995250, Note_on_c, 0, 74, 64
2, 995272, Control_c, 0, 64, 0
2, 995280, Note_off_c, 0, 73, 64
2, 995292, Note_off_c, 0, 59, 64
2, 995301, Control_c, 0, 64, 127
2, 995305, Note_off_c, 0, 56, 64
2, 995342, Note_on_c, 0, 75, 62
2, 995361, Note_off_c, 0, 74, 64
2, 995442, Note_on_c, 0, 66, 69
2, 995442, Note_on_c, 0, 56, 58
2, 995444, Note_on_c, 0, 68, 73
2, 995453, Note_on_c, 0, 60, 40
2, 995460, Control_c, 0, 64, 0
2, 995462, Note_off_c, 0, 75, 64
2, 995482, Control_c, 0, 64, 127
2, 995490, Note_off_c, 0, 60, 64
2, 995498, Note_off_c, 0, 56, 64
2, 995550, Note_off_c, 0, 66, 64
2, 995550, Note_on_c, 0, 78, 63
2, 995552, Note_off_c, 0, 68, 64
2, 995671, Note_on_c, 0, 49, 56
2, 995677, Note_on_c, 0, 61, 54
2, 995682, Note_on_c, 0, 77, 62
2, 995682, Note_on_c, 0, 65, 62
2, 995692, Note_on_c, 0, 56, 26
2, 995693, Note_off_c, 0, 78, 64
2, 995694, Control_c, 0, 64, 0
2, 995729, Control_c, 0, 64, 127
2, 995779, Note_off_c, 0, 49, 64
2, 995785, Note_off_c, 0, 61, 64
2, 995790, Note_off_c, 0, 65, 64
2, 995790, Note_off_c, 0, 77, 64
2, 995800, Note_off_c, 0, 56, 64
2, 995858, Note_on_c, 0, 71, 62
2, 995862, Note_on_c, 0, 75, 62
2, 995892, Note_off_c, 0, 71, 64
2, 995894, Note_off_c, 0, 75, 64
2, 995920, Note_on_c, 0, 71, 69
2, 995923, Note_on_c, 0, 75, 71
2, 995936, Note_on_c, 0, 42, 66
2, 995948, Control_c, 0, 64, 0
2, 996012, Control_c, 0, 64, 127
2, 996166, Note_off_c, 0, 42, 64
2, 996200, Note_off_c, 0, 75, 64
2, 996200, Note_on_c, 0, 49, 41
2, 996207, Note_off_c, 0, 71, 64
2, 996341, Note_on_c, 0, 70, 56
2, 996348, Note_on_c, 0, 73, 44
2, 996372, Note_off_c, 0, 49, 64
2, 996387, Note_on_c, 0, 61, 69
2, 996390, Note_on_c, 0, 51, 60
2, 996400, Control_c, 0, 64, 0
2, 996418, Note_off_c, 0, 73, 64
2, 996419, Note_off_c, 0, 70, 64
2, 996449, Control_c, 0, 64, 127
2, 996540, Note_on_c, 0, 69, 58
2, 996584, Note_off_c, 0, 61, 64
2, 996593, Note_on_c, 0, 72, 64
2, 996594, Note_off_c, 0, 51, 64
2, 996596, Control_c, 0, 64, 0
2, 996606, Note_on_c, 0, 53, 60
2, 996645, Control_c, 0, 64, 127
2, 996649, Note_off_c, 0, 69, 64
2, 996661, Note_off_c, 0, 72, 64
2, 996742, Note_on_c, 0, 71, 55
2, 996745, Note_on_c, 0, 68, 59
2, 996779, Note_off_c, 0, 53, 64
2, 996797, Note_on_c, 0, 61, 73
2, 996800, Note_on_c, 0, 54, 57
2, 996811, Note_off_c, 0, 68, 64
2, 996812, Note_off_c, 0, 71, 64
2, 996812, Control_c, 0, 64, 0
2, 996848, Control_c, 0, 64, 127
2, 996861, Note_off_c, 0, 61, 64
2, 996943, Note_on_c, 0, 70, 55
2, 996954, Note_on_c, 0, 66, 64
2, 996979, Note_off_c, 0, 66, 64
2, 996992, Note_off_c, 0, 70, 64
2, 997011, Note_on_c, 0, 70, 64
2, 997011, Note_on_c, 0, 64, 63
2, 997019, Note_on_c, 0, 61, 43
2, 997031, Control_c, 0, 64, 0
2, 997038, Note_off_c, 0, 54, 64
2, 997094, Control_c, 0, 64, 127
2, 997137, Note_off_c, 0, 64, 64
2, 997139, Note_off_c, 0, 70, 64
2, 997212, Note_off_c, 0, 61, 64
2, 997227, Note_on_c, 0, 66, 58
2, 997229, Note_on_c, 0, 63, 62
2, 997237, Control_c, 0, 64, 0
2, 997299, Control_c, 0, 64, 127
2, 997435, Control_c, 0, 64, 0
2, 997442, Note_on_c, 0, 47, 56
2, 997491, Control_c, 0, 64, 127
2, 997544, Note_off_c, 0, 63, 64
2, 997584, Note_off_c, 0, 66, 64
2, 997601, Note_on_c, 0, 71, 47
2, 997607, Note_on_c, 0, 75, 55
2, 997649, Note_on_c, 0, 54, 57
2, 997654, Note_on_c, 0, 63, 59
2, 997655, Note_on_c, 0, 66, 69
2, 997672, Note_off_c, 0, 71, 64
2, 997678, Note_off_c, 0, 75, 64
2, 997756, Note_off_c, 0, 63, 64
2, 997801, Note_off_c, 0, 47, 64
2, 997803, Note_on_c, 0, 73, 62
2, 997861, Note_off_c, 0, 54, 64
2, 997865, Note_on_c, 0, 35, 79
2, 997872, Note_on_c, 0, 77, 64
2, 997872, Control_c, 0, 64, 0
2, 997902, Note_off_c, 0, 73, 64
2, 997902, Note_off_c, 0, 66, 64
2, 997918, Control_c, 0, 64, 127
2, 997964, Note_off_c, 0, 77, 64
2, 997986, Note_on_c, 0, 78, 62
2, 997992, Note_on_c, 0, 75, 51
2, 998066, Note_off_c, 0, 75, 64
2, 998069, Note_off_c, 0, 78, 64
2, 998090, Note_on_c, 0, 63, 58
2, 998090, Note_on_c, 0, 54, 47
2, 998094, Note_on_c, 0, 66, 62
2, 998135, Note_off_c, 0, 54, 64
2, 998142, Note_off_c, 0, 63, 64
2, 998187, Note_off_c, 0, 66, 64
2, 998218, Note_on_c, 0, 75, 33
2, 998229, Note_on_c, 0, 78, 55
2, 998246, Note_off_c, 0, 75, 64
2, 998270, Note_on_c, 0, 80, 69
2, 998280, Note_off_c, 0, 78, 64
2, 998301, Note_on_c, 0, 78, 69
2, 998324, Note_off_c, 0, 80, 64
2, 998334, Note_on_c, 0, 73, 57
2, 998339, Note_on_c, 0, 77, 69
2, 998342, Note_on_c, 0, 66, 48
2, 998345, Note_on_c, 0, 54, 36
2, 998368, Note_off_c, 0, 78, 64
2, 998368, Control_c, 0, 64, 0
2, 998404, Control_c, 0, 64, 127
2, 998409, Note_off_c, 0, 35, 64
2, 998421, Note_off_c, 0, 66, 64
2, 998424, Note_off_c, 0, 54, 64
2, 998454, Note_off_c, 0, 73, 64
2, 998459, Note_off_c, 0, 77, 64
2, 998459, Note_on_c, 0, 75, 64
2, 998464, Note_on_c, 0, 71, 55
2, 998488, Note_off_c, 0, 75, 64
2, 998501, Note_off_c, 0, 71, 64
2, 998573, Note_on_c, 0, 73, 69
2, 998574, Note_on_c, 0, 42, 62
2, 998576, Note_on_c, 0, 70, 69
2, 998587, Control_c, 0, 64, 0
2, 998642, Control_c, 0, 64, 127
2, 998776, Control_c, 0, 64, 0
2, 998782, Note_off_c, 0, 70, 64
2, 998782, Note_on_c, 0, 49, 60
2, 998797, Note_off_c, 0, 42, 64
2, 998801, Note_off_c, 0, 73, 64
2, 998802, Control_c, 0, 64, 127
2, 998913, Note_on_c, 0, 69, 55
2, 998918, Note_on_c, 0, 72, 47
2, 998948, Note_off_c, 0, 49, 64
2, 998967, Note_on_c, 0, 61, 73
2, 998982, Control_c, 0, 64, 0
2, 998990, Note_off_c, 0, 69, 64
2, 998990, Note_on_c, 0, 51, 56
2, 998995, Note_off_c, 0, 72, 64
2, 999019, Control_c, 0, 64, 127
2, 999110, Note_on_c, 0, 68, 54
2, 999168, Note_off_c, 0, 61, 64
2, 999168, Note_on_c, 0, 71, 63
2, 999173, Note_off_c, 0, 51, 64
2, 999175, Note_on_c, 0, 53, 59
2, 999179, Control_c, 0, 64, 0
2, 999186, Note_off_c, 0, 68, 64
2, 999223, Control_c, 0, 64, 127
2, 999238, Note_off_c, 0, 71, 64
2, 999302, Note_on_c, 0, 66, 32
2, 999307, Note_on_c, 0, 70, 62
2, 999329, Note_off_c, 0, 53, 64
2, 999348, Note_on_c, 0, 54, 50
2, 999355, Note_on_c, 0, 61, 69
2, 999368, Control_c, 0, 64, 0
2, 999376, Note_off_c, 0, 66, 64
2, 999381, Note_off_c, 0, 70, 64
2, 999412, Control_c, 0, 64, 127
2, 999427, Note_off_c, 0, 61, 64
2, 999494, Note_on_c, 0, 66, 32
2, 999495, Note_on_c, 0, 70, 56
2, 999516, Note_on_c, 0, 54, 50
2, 999542, Note_on_c, 0, 69, 57
2, 999550, Note_on_c, 0, 63, 59
2, 999552, Note_on_c, 0, 61, 43
2, 999558, Note_off_c, 0, 66, 64
2, 999558, Note_off_c, 0, 54, 64
2, 999559, Note_off_c, 0, 70, 64
2, 999579, Control_c, 0, 64, 0
2, 999634, Control_c, 0, 64, 127
2, 999656, Note_off_c, 0, 54, 64
2, 999723, Note_off_c, 0, 69, 64
2, 999728, Note_off_c, 0, 63, 64
2, 999730, Note_off_c, 0, 61, 64
2, 999748, Note_on_c, 0, 66, 62
2, 999753, Note_on_c, 0, 68, 59
2, 999755, Note_on_c, 0, 60, 65
2, 999762, Control_c, 0, 64, 0
2, 999816, Control_c, 0, 64, 127
2, 999946, Note_off_c, 0, 60, 64
2, 999955, Note_on_c, 0, 44, 62
2, 999957, Note_off_c, 0, 68, 64
2, 999964, Note_off_c, 0, 66, 64
2, 1000101, Note_on_c, 0, 72, 58
2, 1000141, Note_on_c, 0, 66, 58
2, 1000144, Note_on_c, 0, 68, 59
2, 1000148, Note_on_c, 0, 58, 56
2, 1000148, Note_on_c, 0, 56, 50
2, 1000155, Note_off_c, 0, 72, 64
2, 1000160, Control_c, 0, 64, 0
2, 1000213, Control_c, 0, 64, 127
2, 1000217, Note_off_c, 0, 56, 64
2, 1000217, Note_off_c, 0, 58, 64
2, 1000245, Note_off_c, 0, 68, 64
2, 1000246, Note_off_c, 0, 66, 64
2, 1000250, Note_off_c, 0, 44, 64
2, 1000290, Note_on_c, 0, 73, 58
2, 1000344, Note_on_c, 0, 74, 67
2, 1000348, Note_on_c, 0, 59, 58
2, 1000350, Note_on_c, 0, 56, 62
2, 1000352, Control_c, 0, 64, 0
2, 1000366, Note_off_c, 0, 73, 64
2, 1000377, Control_c, 0, 64, 127
2, 1000403, Note_off_c, 0, 59, 64
2, 1000405, Note_off_c, 0, 56, 64
2, 1000446, Note_on_c, 0, 75, 58
2, 1000471, Note_off_c, 0, 74, 64
2, 1000526, Note_on_c, 0, 66, 69
2, 1000533, Note_on_c, 0, 68, 73
2, 1000536, Note_on_c, 0, 56, 56
2, 1000548, Note_on_c, 0, 60, 41
2, 1000548, Control_c, 0, 64, 0
2, 1000566, Note_off_c, 0, 75, 64
2, 1000585, Control_c, 0, 64, 127
2, 1000592, Note_off_c, 0, 60, 64
2, 1000592, Note_off_c, 0, 56, 64
2, 1000614, Note_on_c, 0, 78, 62
2, 1000650, Note_off_c, 0, 66, 64
2, 1000658, Note_off_c, 0, 68, 64
2, 1000726, Note_on_c, 0, 56, 59
2, 1000729, Note_on_c, 0, 49, 52
2, 1000734, Note_on_c, 0, 65, 47
2, 1000734, Note_on_c, 0, 61, 59
2, 1000739, Note_on_c, 0, 77, 57
2, 1000743, Control_c, 0, 64, 0
2, 1000747, Note_off_c, 0, 78, 64
2, 1000792, Control_c, 0, 64, 127
2, 1000834, Note_off_c, 0, 56, 64
2, 1000837, Note_off_c, 0, 49, 64
2, 1000842, Note_off_c, 0, 61, 64
2, 1000842, Note_off_c, 0, 65, 64
2, 1000847, Note_off_c, 0, 77, 64
2, 1000866, Note_on_c, 0, 70, 63
2, 1000909, Note_off_c, 0, 70, 64
2, 1000919, Note_on_c, 0, 70, 71
2, 1000926, Note_on_c, 0, 44, 62
2, 1000940, Control_c, 0, 64, 0
2, 1001004, Control_c, 0, 64, 127
2, 1001128, Control_c, 0, 64, 0
2, 1001132, Note_on_c, 0, 56, 56
2, 1001134, Note_on_c, 0, 66, 77
2, 1001140, Note_on_c, 0, 63, 32
2, 1001160, Note_off_c, 0, 70, 64
2, 1001163, Control_c, 0, 64, 127
2, 1001191, Note_off_c, 0, 56, 64
2, 1001206, Note_on_c, 0, 72, 47
2, 1001222, Note_off_c, 0, 63, 64
2, 1001225, Note_off_c, 0, 66, 64
2, 1001228, Note_off_c, 0, 44, 64
2, 1001246, Note_on_c, 0, 70, 80
2, 1001273, Note_off_c, 0, 72, 64
2, 1001312, Note_off_c, 0, 70, 64
2, 1001319, Note_on_c, 0, 66, 73
2, 1001325, Note_on_c, 0, 56, 65
2, 1001332, Note_on_c, 0, 68, 62
2, 1001334, Note_on_c, 0, 58, 32
2, 1001338, Control_c, 0, 64, 0
2, 1001376, Control_c, 0, 64, 127
2, 1001388, Note_off_c, 0, 58, 64
2, 1001388, Note_off_c, 0, 56, 64
2, 1001423, Note_off_c, 0, 66, 64
2, 1001440, Note_on_c, 0, 73, 58
2, 1001450, Note_off_c, 0, 68, 64
2, 1001512, Note_on_c, 0, 56, 62
2, 1001518, Note_on_c, 0, 74, 65
2, 1001518, Note_on_c, 0, 59, 58
2, 1001525, Note_off_c, 0, 73, 64
2, 1001527, Control_c, 0, 64, 0
2, 1001549, Control_c, 0, 64, 127
2, 1001563, Note_off_c, 0, 56, 64
2, 1001567, Note_off_c, 0, 59, 64
2, 1001614, Note_on_c, 0, 75, 69
2, 1001629, Note_off_c, 0, 74, 64
2, 1001704, Note_on_c, 0, 66, 58
2, 1001705, Note_on_c, 0, 68, 63
2, 1001712, Note_on_c, 0, 56, 60
2, 1001714, Control_c, 0, 64, 0
2, 1001723, Note_on_c, 0, 60, 47
2, 1001732, Note_off_c, 0, 75, 64
2, 1001752, Control_c, 0, 64, 127
2, 1001764, Note_off_c, 0, 60, 64
2, 1001770, Note_off_c, 0, 56, 64
2, 1001806, Note_off_c, 0, 68, 64
2, 1001818, Note_on_c, 0, 78, 69
2, 1001828, Note_off_c, 0, 66, 64
2, 1001895, Control_c, 0, 64, 0
2, 1001908, Note_on_c, 0, 49, 58
2, 1001911, Note_on_c, 0, 61, 56
2, 1001911, Note_on_c, 0, 56, 74
2, 1001918, Note_on_c, 0, 77, 69
2, 1001921, Note_on_c, 0, 65, 58
2, 1001932, Control_c, 0, 64, 127
2, 1001942, Note_off_c, 0, 78, 64
2, 1002035, Note_on_c, 0, 47, 73
2, 1002095, Note_off_c, 0, 49, 64
2, 1002182, Note_on_c, 0, 46, 59
2, 1002196, Note_off_c, 0, 47, 64
2, 1002197, Control_c, 0, 64, 0
2, 1002230, Note_on_c, 0, 80, 89
2, 1002231, Note_off_c, 0, 56, 64
2, 1002231, Note_off_c, 0, 61, 64
2, 1002238, Note_off_c, 0, 77, 64
2, 1002241, Note_off_c, 0, 65, 64
2, 1002249, Control_c, 0, 64, 127
2, 1002438, Note_on_c, 0, 58, 36
2, 1002447, Note_on_c, 0, 74, 60
2, 1002447, Note_on_c, 0, 68, 44
2, 1002529, Note_on_c, 0, 79, 62
2, 1002550, Note_off_c, 0, 58, 64
2, 1002551, Note_off_c, 0, 46, 64
2, 1002552, Note_off_c, 0, 80, 64
2, 1002559, Note_off_c, 0, 68, 64
2, 1002559, Note_off_c, 0, 74, 64
2, 1002614, Note_on_c, 0, 75, 66
2, 1002614, Note_on_c, 0, 73, 54
2, 1002614, Note_on_c, 0, 67, 44
2, 1002614, Note_on_c, 0, 63, 54
2, 1002614, Note_on_c, 0, 58, 55
2, 1002614, Note_on_c, 0, 51, 54
2, 1002630, Control_c, 0, 64, 0
2, 1002643, Note_off_c, 0, 79, 64
2, 1002644, Control_c, 0, 64, 127
2, 1002690, Note_on_c, 0, 77, 62
2, 1002710, Note_off_c, 0, 75, 64
2, 1002726, Note_off_c, 0, 51, 64
2, 1002726, Note_off_c, 0, 58, 64
2, 1002726, Note_off_c, 0, 63, 64
2, 1002726, Note_off_c, 0, 67, 64
2, 1002726, Note_off_c, 0, 73, 64
2, 1002767, Note_on_c, 0, 44, 60
2, 1002771, Note_on_c, 0, 78, 72
2, 1002791, Note_off_c, 0, 77, 64
2, 1002826, Note_on_c, 0, 80, 65
2, 1002845, Note_off_c, 0, 78, 64
2, 1002866, Note_on_c, 0, 78, 65
2, 1002874, Note_off_c, 0, 80, 64
2, 1002939, Note_on_c, 0, 56, 44
2, 1002942, Note_on_c, 0, 72, 55
2, 1002942, Note_on_c, 0, 66, 56
2, 1002944, Note_on_c, 0, 77, 67
2, 1002951, Note_off_c, 0, 78, 64
2, 1002956, Control_c, 0, 64, 0
2, 1002968, Control_c, 0, 64, 127
2, 1003022, Note_on_c, 0, 75, 64
2, 1003042, Note_off_c, 0, 77, 64
2, 1003051, Note_off_c, 0, 56, 64
2, 1003054, Note_off_c, 0, 66, 64
2, 1003054, Note_off_c, 0, 72, 64
2, 1003079, Note_off_c, 0, 44, 64
2, 1003094, Note_on_c, 0, 49, 43
2, 1003095, Note_on_c, 0, 77, 64
2, 1003095, Control_c, 0, 64, 0
2, 1003098, Note_on_c, 0, 61, 41
2, 1003098, Note_on_c, 0, 56, 41
2, 1003104, Note_on_c, 0, 71, 63
2, 1003105, Note_on_c, 0, 65, 48
2, 1003107, Control_c, 0, 64, 127
2, 1003110, Note_off_c, 0, 75, 64
2, 1003115, Control_c, 0, 64, 0
2, 1003127, Control_c, 0, 64, 127
2, 1003182, Note_on_c, 0, 73, 66
2, 1003206, Note_off_c, 0, 49, 64
2, 1003208, Note_off_c, 0, 77, 64
2, 1003210, Note_off_c, 0, 56, 64
2, 1003210, Note_off_c, 0, 61, 64
2, 1003216, Note_off_c, 0, 71, 64
2, 1003217, Note_off_c, 0, 65, 64
2, 1003279, Note_on_c, 0, 76, 71
2, 1003285, Note_on_c, 0, 42, 51
2, 1003293, Note_off_c, 0, 73, 64
2, 1003297, Control_c, 0, 64, 0
2, 1003337, Control_c, 0, 64, 127
2, 1003438, Note_on_c, 0, 64, 42
2, 1003442, Note_on_c, 0, 54, 28
2, 1003445, Note_on_c, 0, 70, 42
2, 1003521, Note_on_c, 0, 75, 63
2, 1003537, Note_off_c, 0, 76, 64
2, 1003550, Note_off_c, 0, 64, 64
2, 1003554, Note_off_c, 0, 54, 64
2, 1003557, Note_off_c, 0, 70, 64
2, 1003589, Note_off_c, 0, 42, 64
2, 1003594, Note_on_c, 0, 71, 64
2, 1003594, Note_on_c, 0, 69, 44
2, 1003594, Note_on_c, 0, 63, 56
2, 1003594, Note_on_c, 0, 59, 42
2, 1003594, Note_on_c, 0, 54, 56
2, 1003596, Note_on_c, 0, 47, 44
2, 1003607, Note_off_c, 0, 75, 64
2, 1003661, Note_on_c, 0, 73, 52
2, 1003670, Note_off_c, 0, 71, 64
2, 1003706, Note_off_c, 0, 54, 64
2, 1003706, Note_off_c, 0, 59, 64
2, 1003706, Note_off_c, 0, 63, 64
2, 1003706, Note_off_c, 0, 69, 64
2, 1003708, Note_off_c, 0, 47, 64
2, 1003746, Note_on_c, 0, 74, 52
2, 1003754, Note_on_c, 0, 40, 55
2, 1003767, Note_off_c, 0, 73, 64
2, 1003814, Note_on_c, 0, 76, 65
2, 1003825, Note_off_c, 0, 74, 64
2, 1003858, Note_on_c, 0, 74, 66
2, 1003871, Note_off_c, 0, 76, 64
2, 1003916, Note_on_c, 0, 62, 50
2, 1003918, Note_on_c, 0, 73, 58
2, 1003920, Note_on_c, 0, 68, 56
2, 1003923, Note_on_c, 0, 52, 31
2, 1003951, Note_off_c, 0, 74, 64
2, 1003995, Note_on_c, 0, 71, 62
2, 1003997, Note_off_c, 0, 73, 64
2, 1004028, Note_off_c, 0, 62, 64
2, 1004032, Note_off_c, 0, 68, 64
2, 1004035, Note_off_c, 0, 52, 64
2, 1004035, Note_off_c, 0, 40, 64
2, 1004090, Note_on_c, 0, 69, 64
2, 1004093, Note_on_c, 0, 61, 60
2, 1004095, Note_on_c, 0, 73, 62
2, 1004097, Note_on_c, 0, 45, 32
2, 1004103, Note_on_c, 0, 57, 24
2, 1004104, Note_off_c, 0, 71, 64
2, 1004110, Control_c, 0, 64, 0
2, 1004165, Control_c, 0, 64, 127
2, 1004291, Note_off_c, 0, 69, 64
2, 1004294, Note_off_c, 0, 61, 64
2, 1004296, Note_off_c, 0, 73, 64
2, 1004298, Note_off_c, 0, 45, 64
2, 1004304, Note_off_c, 0, 57, 64
2, 1004314, Note_on_c, 0, 73, 74
2, 1004330, Note_on_c, 0, 39, 44
2, 1004332, Control_c, 0, 64, 0
2, 1004370, Control_c, 0, 64, 127
2, 1004511, Note_on_c, 0, 61, 50
2, 1004511, Note_on_c, 0, 51, 51
2, 1004515, Note_on_c, 0, 67, 48
2, 1004547, Note_off_c, 0, 73, 64
2, 1004599, Note_on_c, 0, 72, 62
2, 1004623, Note_off_c, 0, 51, 64
2, 1004623, Note_off_c, 0, 61, 64
2, 1004627, Note_off_c, 0, 67, 64
2, 1004661, Note_off_c, 0, 39, 64
2, 1004672, Control_c, 0, 64, 0
2, 1004674, Note_on_c, 0, 56, 48
2, 1004674, Note_on_c, 0, 51, 48
2, 1004674, Note_on_c, 0, 44, 43
2, 1004678, Note_on_c, 0, 60, 54
2, 1004679, Note_on_c, 0, 66, 57
2, 1004680, Note_on_c, 0, 68, 66
2, 1004680, Control_c, 0, 64, 127
2, 1004692, Note_off_c, 0, 72, 64
2, 1004700, Control_c, 0, 64, 127
2, 1004754, Note_on_c, 0, 70, 54
2, 1004769, Note_off_c, 0, 68, 64
2, 1004786, Note_off_c, 0, 44, 64
2, 1004786, Note_off_c, 0, 51, 64
2, 1004786, Note_off_c, 0, 56, 64
2, 1004790, Note_off_c, 0, 60, 64
2, 1004791, Note_off_c, 0, 66, 64
2, 1004829, Note_on_c, 0, 71, 60
2, 1004838, Note_on_c, 0, 37, 50
2, 1004841, Note_off_c, 0, 70, 64
2, 1004842, Control_c, 0, 64, 0
2, 1004858, Control_c, 0, 64, 127
2, 1004890, Note_on_c, 0, 73, 57
2, 1004911, Note_off_c, 0, 71, 64
2, 1004930, Note_on_c, 0, 71, 55
2, 1004941, Note_off_c, 0, 73, 64
2, 1004985, Control_c, 0, 64, 0
2, 1004998, Note_on_c, 0, 70, 56
2, 1004998, Note_on_c, 0, 65, 56
2, 1004998, Note_on_c, 0, 49, 34
2, 1004999, Note_on_c, 0, 59, 47
2, 1005009, Control_c, 0, 64, 127
2, 1005022, Note_off_c, 0, 71, 64
2, 1005074, Note_on_c, 0, 68, 50
2, 1005077, Note_off_c, 0, 70, 64
2, 1005110, Note_off_c, 0, 49, 64
2, 1005110, Note_off_c, 0, 65, 64
2, 1005111, Note_off_c, 0, 59, 64
2, 1005130, Note_off_c, 0, 37, 64
2, 1005150, Note_on_c, 0, 70, 69
2, 1005150, Note_on_c, 0, 58, 50
2, 1005150, Note_on_c, 0, 54, 39
2, 1005150, Note_on_c, 0, 42, 37
2, 1005150, Control_c, 0, 64, 0
2, 1005151, Note_off_c, 0, 68, 64
2, 1005154, Note_on_c, 0, 49, 41
2, 1005175, Control_c, 0, 64, 127
2, 1005228, Note_on_c, 0, 66, 49
2, 1005251, Note_off_c, 0, 70, 64
2, 1005262, Note_off_c, 0, 42, 64
2, 1005262, Note_off_c, 0, 54, 64
2, 1005262, Note_off_c, 0, 58, 64
2, 1005266, Note_off_c, 0, 49, 64
2, 1005300, Control_c, 0, 64, 0
2, 1005302, Note_on_c, 0, 54, 51
2, 1005306, Note_on_c, 0, 63, 75
2, 1005306, Note_on_c, 0, 47, 51
2, 1005308, Note_on_c, 0, 59, 63
2, 1005327, Note_off_c, 0, 66, 64
2, 1005341, Control_c, 0, 64, 127
2, 1005439, Note_off_c, 0, 47, 64
2, 1005443, Note_off_c, 0, 54, 64
2, 1005456, Note_off_c, 0, 63, 64
2, 1005458, Note_off_c, 0, 59, 64
2, 1005478, Note_on_c, 0, 47, 46
2, 1005480, Note_on_c, 0, 63, 49
2, 1005485, Note_on_c, 0, 66, 64
2, 1005489, Note_on_c, 0, 54, 52
2, 1005500, Control_c, 0, 64, 0
2, 1005513, Control_c, 0, 64, 127
2, 1005553, Note_on_c, 0, 68, 65
2, 1005568, Note_off_c, 0, 66, 64
2, 1005592, Note_off_c, 0, 47, 64
2, 1005594, Note_off_c, 0, 63, 64
2, 1005603, Note_off_c, 0, 54, 64
2, 1005638, Note_on_c, 0, 54, 55
2, 1005639, Note_on_c, 0, 70, 64
2, 1005644, Note_off_c, 0, 68, 64
2, 1005645, Note_on_c, 0, 63, 60
2, 1005645, Note_on_c, 0, 42, 55
2, 1005645, Control_c, 0, 64, 0
2, 1005660, Control_c, 0, 64, 127
2, 1005722, Note_on_c, 0, 71, 67
2, 1005736, Note_off_c, 0, 70, 64
2, 1005752, Note_off_c, 0, 54, 64
2, 1005759, Note_off_c, 0, 42, 64
2, 1005759, Note_off_c, 0, 63, 64
2, 1005797, Note_on_c, 0, 63, 59
2, 1005797, Note_on_c, 0, 54, 58
2, 1005798, Control_c, 0, 64, 0
2, 1005805, Note_on_c, 0, 47, 59
2, 1005814, Control_c, 0, 64, 127
2, 1005845, Note_on_c, 0, 73, 62
2, 1005865, Note_off_c, 0, 71, 64
2, 1005893, Note_on_c, 0, 71, 63
2, 1005903, Note_off_c, 0, 73, 64
2, 1005911, Note_off_c, 0, 54, 64
2, 1005911, Note_off_c, 0, 63, 64
2, 1005919, Note_off_c, 0, 47, 64
2, 1005943, Note_on_c, 0, 54, 49
2, 1005954, Note_on_c, 0, 61, 58
2, 1005956, Note_on_c, 0, 70, 80
2, 1005962, Note_on_c, 0, 49, 36
2, 1005976, Note_off_c, 0, 71, 64
2, 1006022, Note_on_c, 0, 68, 58
2, 1006045, Note_off_c, 0, 70, 64
2, 1006057, Note_off_c, 0, 54, 64
2, 1006068, Note_off_c, 0, 61, 64
2, 1006076, Note_off_c, 0, 49, 64
2, 1006094, Note_on_c, 0, 61, 47
2, 1006094, Control_c, 0, 64, 0
2, 1006100, Note_on_c, 0, 70, 77
2, 1006100, Note_on_c, 0, 54, 58
2, 1006106, Note_on_c, 0, 42, 64
2, 1006113, Note_off_c, 0, 68, 64
2, 1006122, Control_c, 0, 64, 127
2, 1006178, Note_on_c, 0, 66, 57
2, 1006198, Note_off_c, 0, 70, 64
2, 1006208, Note_off_c, 0, 61, 64
2, 1006214, Note_off_c, 0, 54, 64
2, 1006220, Note_off_c, 0, 42, 64
2, 1006241, Control_c, 0, 64, 0
2, 1006250, Note_on_c, 0, 54, 47
2, 1006256, Note_on_c, 0, 63, 60
2, 1006258, Note_on_c, 0, 47, 59
2, 1006272, Note_off_c, 0, 66, 64
2, 1006276, Control_c, 0, 64, 127
2, 1006334, Note_on_c, 0, 65, 50
2, 1006364, Note_off_c, 0, 54, 64
2, 1006370, Note_off_c, 0, 63, 64
2, 1006372, Note_off_c, 0, 47, 64
2, 1006374, Control_c, 0, 64, 0
2, 1006405, Note_on_c, 0, 54, 43
2, 1006408, Note_on_c, 0, 66, 55
2, 1006410, Note_on_c, 0, 63, 58
2, 1006413, Note_on_c, 0, 47, 56
2, 1006418, Note_off_c, 0, 65, 64
2, 1006431, Control_c, 0, 64, 127
2, 1006483, Note_on_c, 0, 68, 64
2, 1006502, Note_off_c, 0, 66, 64
2, 1006519, Note_off_c, 0, 54, 64
2, 1006521, Control_c, 0, 64, 0
2, 1006524, Note_off_c, 0, 63, 64
2, 1006527, Note_off_c, 0, 47, 64
2, 1006560, Note_on_c, 0, 63, 50
2, 1006562, Note_on_c, 0, 70, 64
2, 1006564, Note_on_c, 0, 54, 40
2, 1006568, Note_on_c, 0, 42, 56
2, 1006578, Control_c, 0, 64, 127
2, 1006580, Note_off_c, 0, 68, 64
2, 1006636, Note_on_c, 0, 71, 64
2, 1006650, Note_off_c, 0, 70, 64
2, 1006674, Note_off_c, 0, 63, 64
2, 1006678, Note_off_c, 0, 54, 64
2, 1006682, Note_off_c, 0, 42, 64
2, 1006688, Control_c, 0, 64, 0
2, 1006714, Note_on_c, 0, 63, 60
2, 1006719, Note_on_c, 0, 54, 55
2, 1006725, Note_on_c, 0, 47, 62
2, 1006732, Control_c, 0, 64, 127
2, 1006774, Note_on_c, 0, 73, 58
2, 1006784, Note_off_c, 0, 71, 64
2, 1006806, Note_on_c, 0, 71, 73
2, 1006828, Note_off_c, 0, 63, 64
2, 1006832, Note_off_c, 0, 73, 64
2, 1006833, Note_off_c, 0, 54, 64
2, 1006839, Note_off_c, 0, 47, 64
2, 1006843, Control_c, 0, 64, 0
2, 1006874, Note_on_c, 0, 47, 50
2, 1006875, Note_on_c, 0, 53, 50
2, 1006878, Note_on_c, 0, 63, 58
2, 1006885, Note_on_c, 0, 70, 56
2, 1006891, Control_c, 0, 64, 127
2, 1006907, Note_off_c, 0, 71, 64
2, 1006946, Note_on_c, 0, 68, 73
2, 1006972, Note_off_c, 0, 70, 64
2, 1006988, Note_off_c, 0, 47, 64
2, 1006989, Note_off_c, 0, 53, 64
2, 1006992, Note_off_c, 0, 63, 64
2, 1007038, Note_on_c, 0, 46, 44
2, 1007042, Note_on_c, 0, 53, 47
2, 1007043, Note_on_c, 0, 70, 92
2, 1007050, Note_on_c, 0, 62, 66
2, 1007058, Control_c, 0, 64, 0
2, 1007062, Note_off_c, 0, 68, 64
2, 1007102, Control_c, 0, 64, 127
2, 1007158, Note_off_c, 0, 46, 64
2, 1007162, Note_off_c, 0, 53, 64
2, 1007163, Note_off_c, 0, 70, 64
2, 1007170, Note_off_c, 0, 62, 64
2, 1007300, Note_on_c, 0, 34, 67
2, 1007303, Note_on_c, 0, 80, 95
2, 1007310, Control_c, 0, 64, 0
2, 1007356, Control_c, 0, 64, 127
2, 1007522, Note_on_c, 0, 68, 72
2, 1007522, Note_on_c, 0, 58, 59
2, 1007524, Note_on_c, 0, 74, 67
2, 1007603, Note_on_c, 0, 79, 71
2, 1007610, Note_off_c, 0, 80, 64
2, 1007623, Note_off_c, 0, 34, 64
2, 1007634, Note_off_c, 0, 58, 64
2, 1007634, Note_off_c, 0, 68, 64
2, 1007636, Note_off_c, 0, 74, 64
2, 1007676, Note_on_c, 0, 58, 57
2, 1007676, Note_on_c, 0, 51, 58
2, 1007676, Note_on_c, 0, 67, 2
2, 1007676, Note_on_c, 0, 63, 60
2, 1007678, Note_on_c, 0, 75, 74
2, 1007678, Note_on_c, 0, 73, 48
2, 1007695, Control_c, 0, 64, 0
2, 1007697, Note_off_c, 0, 79, 64
2, 1007706, Control_c, 0, 64, 127
2, 1007750, Note_on_c, 0, 77, 66
2, 1007766, Note_off_c, 0, 75, 64
2, 1007788, Note_off_c, 0, 63, 64
2, 1007788, Note_off_c, 0, 67, 64
2, 1007788, Note_off_c, 0, 51, 64
2, 1007788, Note_off_c, 0, 58, 64
2, 1007790, Note_off_c, 0, 73, 64
2, 1007830, Note_on_c, 0, 73, 74
2, 1007830, Note_on_c, 0, 66, 69
2, 1007830, Note_on_c, 0, 58, 32
2, 1007830, Note_on_c, 0, 46, 62
2, 1007833, Note_on_c, 0, 78, 74
2, 1007844, Control_c, 0, 64, 0
2, 1007847, Note_off_c, 0, 77, 64
2, 1007860, Control_c, 0, 64, 127
2, 1007898, Note_on_c, 0, 80, 70
2, 1007921, Note_off_c, 0, 78, 64
2, 1007942, Note_off_c, 0, 46, 64
2, 1007942, Note_off_c, 0, 58, 64
2, 1007942, Note_off_c, 0, 66, 64
2, 1007942, Note_off_c, 0, 73, 64
2, 1007942, Note_on_c, 0, 78, 70
2, 1007960, Note_off_c, 0, 80, 64
2, 1007991, Control_c, 0, 64, 0
2, 1008002, Note_on_c, 0, 72, 71
2, 1008002, Note_on_c, 0, 66, 72
2, 1008002, Note_on_c, 0, 56, 51
2, 1008006, Note_on_c, 0, 44, 59
2, 1008010, Control_c, 0, 64, 127
2, 1008020, Note_on_c, 0, 77, 75
2, 1008038, Note_off_c, 0, 78, 64
2, 1008090, Note_on_c, 0, 77, 36
2, 1008094, Note_off_c, 0, 77, 64
2, 1008096, Note_on_c, 0, 75, 75
2, 1008114, Note_off_c, 0, 56, 64
2, 1008114, Note_off_c, 0, 66, 64
2, 1008114, Note_off_c, 0, 72, 64
2, 1008118, Note_off_c, 0, 77, 64
2, 1008118, Note_off_c, 0, 44, 64
2, 1008165, Control_c, 0, 64, 0
2, 1008166, Note_on_c, 0, 65, 40
2, 1008166, Note_on_c, 0, 61, 59
2, 1008170, Note_on_c, 0, 71, 50
2, 1008170, Note_on_c, 0, 56, 59
2, 1008170, Note_on_c, 0, 49, 57
2, 1008171, Note_off_c, 0, 75, 64
2, 1008171, Note_on_c, 0, 77, 70
2, 1008187, Control_c, 0, 64, 127
2, 1008203, Control_c, 0, 64, 127
2, 1008244, Note_on_c, 0, 73, 78
2, 1008263, Note_off_c, 0, 77, 64
2, 1008278, Note_off_c, 0, 61, 64
2, 1008278, Note_off_c, 0, 65, 64
2, 1008282, Note_off_c, 0, 49, 64
2, 1008282, Note_off_c, 0, 56, 64
2, 1008282, Note_off_c, 0, 71, 64
2, 1008318, Note_on_c, 0, 64, 64
2, 1008320, Note_on_c, 0, 44, 58
2, 1008320, Note_on_c, 0, 76, 73
2, 1008321, Note_on_c, 0, 71, 57
2, 1008321, Note_on_c, 0, 56, 41
2, 1008327, Note_off_c, 0, 73, 64
2, 1008341, Control_c, 0, 64, 0
2, 1008352, Control_c, 0, 64, 127
2, 1008430, Note_off_c, 0, 64, 64
2, 1008432, Note_off_c, 0, 44, 64
2, 1008433, Note_off_c, 0, 56, 64
2, 1008433, Note_off_c, 0, 71, 64
2, 1008488, Note_on_c, 0, 42, 57
2, 1008490, Note_on_c, 0, 54, 39
2, 1008491, Note_on_c, 0, 70, 74
2, 1008491, Note_on_c, 0, 64, 65
2, 1008503, Control_c, 0, 64, 0
2, 1008514, Control_c, 0, 64, 127
2, 1008574, Note_on_c, 0, 75, 59
2, 1008584, Note_off_c, 0, 76, 64
2, 1008600, Note_off_c, 0, 42, 64
2, 1008602, Note_off_c, 0, 54, 64
2, 1008603, Note_off_c, 0, 64, 64
2, 1008603, Note_off_c, 0, 70, 64
2, 1008662, Note_on_c, 0, 47, 52
2, 1008662, Note_on_c, 0, 54, 32
2, 1008662, Note_on_c, 0, 59, 32
2, 1008662, Note_on_c, 0, 63, 71
2, 1008662, Note_on_c, 0, 69, 64
2, 1008663, Note_on_c, 0, 71, 72
2, 1008665, Control_c, 0, 64, 0
2, 1008678, Control_c, 0, 64, 127
2, 1008683, Note_off_c, 0, 75, 64
2, 1008694, Control_c, 0, 64, 127
2, 1008744, Note_on_c, 0, 73, 55
2, 1008774, Note_off_c, 0, 69, 64
2, 1008774, Note_off_c, 0, 63, 64
2, 1008774, Note_off_c, 0, 59, 64
2, 1008774, Note_off_c, 0, 54, 64
2, 1008774, Note_off_c, 0, 47, 64
2, 1008775, Note_off_c, 0, 71, 64
2, 1008821, Note_on_c, 0, 74, 60
2, 1008822, Note_on_c, 0, 42, 63
2, 1008822, Note_on_c, 0, 62, 60
2, 1008822, Note_on_c, 0, 69, 60
2, 1008822, Note_on_c, 0, 54, 27
2, 1008832, Note_off_c, 0, 73, 64
2, 1008882, Note_on_c, 0, 76, 65
2, 1008888, Note_off_c, 0, 74, 64
2, 1008920, Note_on_c, 0, 74, 64
2, 1008934, Note_off_c, 0, 76, 64
2, 1008934, Note_off_c, 0, 54, 64
2, 1008934, Note_off_c, 0, 69, 64
2, 1008934, Note_off_c, 0, 62, 64
2, 1008934, Note_off_c, 0, 42, 64
2, 1008974, Control_c, 0, 64, 0
2, 1008998, Note_on_c, 0, 68, 55
2, 1008998, Note_on_c, 0, 73, 55
2, 1008998, Note_on_c, 0, 62, 59
2, 1009000, Note_on_c, 0, 52, 29
2, 1009002, Note_on_c, 0, 40, 51
2, 1009011, Note_off_c, 0, 74, 64
2, 1009016, Control_c, 0, 64, 127
2, 1009087, Note_on_c, 0, 71, 57
2, 1009101, Note_off_c, 0, 73, 64
2, 1009110, Note_off_c, 0, 62, 64
2, 1009110, Note_off_c, 0, 68, 64
2, 1009112, Note_off_c, 0, 52, 64
2, 1009114, Note_off_c, 0, 40, 64
2, 1009186, Note_on_c, 0, 73, 66
2, 1009186, Note_on_c, 0, 69, 39
2, 1009186, Note_on_c, 0, 61, 46
2, 1009186, Note_on_c, 0, 57, 35
2, 1009186, Note_on_c, 0, 52, 35
2, 1009186, Note_on_c, 0, 45, 36
2, 1009196, Control_c, 0, 64, 0
2, 1009209, Note_off_c, 0, 71, 64
2, 1009216, Control_c, 0, 64, 0
2, 1009262, Control_c, 0, 64, 127
2, 1009396, Note_off_c, 0, 45, 64
2, 1009396, Note_off_c, 0, 52, 64
2, 1009396, Note_off_c, 0, 57, 64
2, 1009396, Note_off_c, 0, 61, 64
2, 1009396, Note_off_c, 0, 69, 64
2, 1009396, Note_off_c, 0, 73, 64
2, 1009418, Note_on_c, 0, 61, 58
2, 1009418, Note_on_c, 0, 73, 71
2, 1009418, Note_on_c, 0, 68, 36
2, 1009418, Note_on_c, 0, 52, 27
2, 1009418, Note_on_c, 0, 40, 9
2, 1009428, Control_c, 0, 64, 0
2, 1009464, Control_c, 0, 64, 127
2, 1009530, Note_off_c, 0, 40, 64
2, 1009530, Note_off_c, 0, 52, 64
2, 1009530, Note_off_c, 0, 68, 64
2, 1009530, Note_off_c, 0, 61, 64
2, 1009596, Control_c, 0, 64, 0
2, 1009606, Note_on_c, 0, 39, 54
2, 1009607, Note_on_c, 0, 67, 50
2, 1009607, Note_on_c, 0, 51, 41
2, 1009608, Note_on_c, 0, 61, 34
2, 1009616, Control_c, 0, 64, 127
2, 1009681, Note_on_c, 0, 72, 59
2, 1009697, Note_off_c, 0, 73, 64
2, 1009718, Note_off_c, 0, 39, 64
2, 1009719, Note_off_c, 0, 51, 64
2, 1009719, Note_off_c, 0, 67, 64
2, 1009720, Note_off_c, 0, 61, 64
2, 1009751, Note_on_c, 0, 44, 42
2, 1009752, Note_on_c, 0, 56, 41
2, 1009754, Note_on_c, 0, 68, 65
2, 1009754, Note_on_c, 0, 66, 48
2, 1009754, Note_on_c, 0, 60, 41
2, 1009754, Note_on_c, 0, 51, 41
2, 1009755, Control_c, 0, 64, 0
2, 1009774, Note_off_c, 0, 72, 64
2, 1009776, Control_c, 0, 64, 127
2, 1009827, Note_on_c, 0, 70, 54
2, 1009834, Note_off_c, 0, 68, 64
2, 1009863, Note_off_c, 0, 44, 64
2, 1009864, Note_off_c, 0, 56, 64
2, 1009866, Note_off_c, 0, 51, 64
2, 1009866, Note_off_c, 0, 60, 64
2, 1009866, Note_off_c, 0, 66, 64
2, 1009914, Note_on_c, 0, 66, 37
2, 1009914, Note_on_c, 0, 51, 28
2, 1009914, Note_on_c, 0, 39, 43
2, 1009916, Note_on_c, 0, 71, 59
2, 1009924, Note_off_c, 0, 70, 64
2, 1009969, Note_on_c, 0, 73, 42
2, 1009974, Note_off_c, 0, 71, 64
2, 1010006, Note_on_c, 0, 71, 57
2, 1010015, Note_off_c, 0, 73, 64
2, 1010026, Note_off_c, 0, 39, 64
2, 1010026, Note_off_c, 0, 51, 64
2, 1010026, Note_off_c, 0, 66, 64
2, 1010063, Control_c, 0, 64, 0
2, 1010074, Note_on_c, 0, 49, 32
2, 1010074, Note_on_c, 0, 37, 37
2, 1010076, Note_on_c, 0, 70, 60
2, 1010076, Note_on_c, 0, 65, 43
2, 1010079, Note_on_c, 0, 59, 36
2, 1010085, Note_off_c, 0, 71, 64
2, 1010085, Control_c, 0, 64, 127
2, 1010144, Note_on_c, 0, 68, 56
2, 1010151, Note_off_c, 0, 70, 64
2, 1010186, Note_off_c, 0, 37, 64
2, 1010186, Note_off_c, 0, 49, 64
2, 1010188, Note_off_c, 0, 65, 64
2, 1010191, Note_off_c, 0, 59, 64
2, 1010213, Control_c, 0, 64, 0
2, 1010218, Note_on_c, 0, 70, 59
2, 1010218, Note_on_c, 0, 58, 43
2, 1010218, Note_on_c, 0, 54, 32
2, 1010220, Note_off_c, 0, 68, 64
2, 1010220, Note_on_c, 0, 42, 32
2, 1010252, Control_c, 0, 64, 127
2, 1010303, Note_on_c, 0, 66, 48
2, 1010309, Note_off_c, 0, 70, 64
2, 1010330, Note_off_c, 0, 54, 64
2, 1010330, Note_off_c, 0, 58, 64
2, 1010332, Note_off_c, 0, 42, 64
2, 1010358, Control_c, 0, 64, 0
2, 1010366, Note_on_c, 0, 47, 58
2, 1010366, Note_on_c, 0, 54, 58
2, 1010366, Note_on_c, 0, 63, 73
2, 1010366, Note_on_c, 0, 59, 70
2, 1010384, Note_off_c, 0, 66, 64
2, 1010408, Control_c, 0, 64, 127
2, 1010514, Note_off_c, 0, 59, 64
2, 1010514, Note_off_c, 0, 63, 64
2, 1010514, Note_off_c, 0, 54, 64
2, 1010514, Note_off_c, 0, 47, 64
2, 1010522, Note_on_c, 0, 63, 58
2, 1010528, Note_on_c, 0, 66, 66
2, 1010532, Note_on_c, 0, 54, 46
2, 1010554, Note_on_c, 0, 47, 27
2, 1010597, Note_on_c, 0, 68, 63
2, 1010606, Note_off_c, 0, 66, 64
2, 1010636, Note_off_c, 0, 63, 64
2, 1010646, Note_off_c, 0, 54, 64
2, 1010668, Note_off_c, 0, 47, 64
2, 1010672, Control_c, 0, 64, 0
2, 1010678, Note_on_c, 0, 70, 59
2, 1010678, Note_on_c, 0, 63, 60
2, 1010682, Note_on_c, 0, 54, 56
2, 1010684, Note_off_c, 0, 68, 64
2, 1010684, Note_on_c, 0, 42, 63
2, 1010702, Control_c, 0, 64, 127
2, 1010753, Note_on_c, 0, 71, 72
2, 1010769, Note_off_c, 0, 70, 64
2, 1010792, Note_off_c, 0, 63, 64
2, 1010796, Note_off_c, 0, 54, 64
2, 1010798, Note_off_c, 0, 42, 64
2, 1010810, Control_c, 0, 64, 0
2, 1010824, Note_on_c, 0, 63, 60
2, 1010832, Note_on_c, 0, 47, 58
2, 1010835, Note_on_c, 0, 54, 42
2, 1010864, Control_c, 0, 64, 127
2, 1010868, Note_on_c, 0, 73, 67
2, 1010878, Note_off_c, 0, 71, 64
2, 1010915, Note_on_c, 0, 71, 56
2, 1010923, Note_off_c, 0, 73, 64
2, 1010938, Note_off_c, 0, 63, 64
2, 1010938, Control_c, 0, 64, 0
2, 1010946, Note_off_c, 0, 47, 64
2, 1010949, Note_off_c, 0, 54, 64
2, 1010970, Note_on_c, 0, 61, 51
2, 1010970, Note_on_c, 0, 42, 64
2, 1010976, Note_on_c, 0, 54, 46
2, 1010979, Note_on_c, 0, 70, 73
2, 1010990, Note_off_c, 0, 71, 64
2, 1010997, Control_c, 0, 64, 127
2, 1011041, Note_on_c, 0, 68, 59
2, 1011061, Note_off_c, 0, 70, 64
2, 1011084, Note_off_c, 0, 42, 64
2, 1011084, Note_off_c, 0, 61, 64
2, 1011090, Note_off_c, 0, 54, 64
2, 1011097, Control_c, 0, 64, 0
2, 1011117, Note_on_c, 0, 70, 74
2, 1011117, Note_on_c, 0, 61, 56
2, 1011121, Note_on_c, 0, 42, 56
2, 1011126, Note_off_c, 0, 68, 64
2, 1011126, Note_on_c, 0, 54, 40
2, 1011134, Control_c, 0, 64, 127
2, 1011195, Note_on_c, 0, 66, 62
2, 1011214, Note_off_c, 0, 70, 64
2, 1011231, Note_off_c, 0, 61, 64
2, 1011234, Control_c, 0, 64, 0
2, 1011235, Note_off_c, 0, 42, 64
2, 1011240, Note_off_c, 0, 54, 64
2, 1011258, Note_on_c, 0, 54, 56
2, 1011263, Note_on_c, 0, 63, 65
2, 1011267, Note_on_c, 0, 47, 55
2, 1011280, Control_c, 0, 64, 127
2, 1011286, Note_off_c, 0, 66, 64
2, 1011332, Note_on_c, 0, 65, 56
2, 1011368, Control_c, 0, 64, 0
2, 1011372, Note_off_c, 0, 54, 64
2, 1011377, Note_off_c, 0, 63, 64
2, 1011381, Note_off_c, 0, 47, 64
2, 1011394, Note_on_c, 0, 54, 57
2, 1011400, Note_on_c, 0, 63, 58
2, 1011406, Note_on_c, 0, 66, 56
2, 1011408, Note_on_c, 0, 47, 46
2, 1011415, Note_off_c, 0, 65, 64
2, 1011417, Control_c, 0, 64, 127
2, 1011474, Note_on_c, 0, 68, 62
2, 1011491, Note_off_c, 0, 66, 64
2, 1011508, Note_off_c, 0, 54, 64
2, 1011514, Note_off_c, 0, 63, 64
2, 1011514, Control_c, 0, 64, 0
2, 1011522, Note_off_c, 0, 47, 64
2, 1011536, Control_c, 0, 64, 127
2, 1011543, Note_on_c, 0, 54, 56
2, 1011543, Note_on_c, 0, 42, 63
2, 1011548, Note_on_c, 0, 70, 64
2, 1011552, Note_on_c, 0, 63, 54
2, 1011564, Note_off_c, 0, 68, 64
2, 1011630, Note_on_c, 0, 71, 73
2, 1011657, Note_off_c, 0, 42, 64
2, 1011657, Note_off_c, 0, 54, 64
2, 1011663, Control_c, 0, 64, 0
2, 1011666, Note_off_c, 0, 63, 64
2, 1011670, Note_off_c, 0, 70, 64
2, 1011687, Note_on_c, 0, 54, 52
2, 1011694, Note_on_c, 0, 63, 62
2, 1011694, Note_on_c, 0, 47, 58
2, 1011702, Control_c, 0, 64, 127
2, 1011731, Note_on_c, 0, 73, 62
2, 1011749, Note_off_c, 0, 71, 64
2, 1011784, Note_on_c, 0, 71, 62
2, 1011799, Note_off_c, 0, 73, 64
2, 1011801, Note_off_c, 0, 54, 64
2, 1011802, Control_c, 0, 64, 0
2, 1011808, Note_off_c, 0, 47, 64
2, 1011808, Note_off_c, 0, 63, 64
2, 1011828, Note_on_c, 0, 54, 46
2, 1011833, Note_on_c, 0, 61, 49
2, 1011839, Note_on_c, 0, 70, 62
2, 1011839, Note_on_c, 0, 47, 42
2, 1011847, Control_c, 0, 64, 127
2, 1011854, Note_off_c, 0, 71, 64
2, 1011902, Note_on_c, 0, 68, 73
2, 1011930, Note_off_c, 0, 70, 64
2, 1011939, Control_c, 0, 64, 0
2, 1011942, Note_off_c, 0, 54, 64
2, 1011947, Note_off_c, 0, 61, 64
2, 1011953, Note_off_c, 0, 47, 64
2, 1011961, Note_on_c, 0, 54, 46
2, 1011965, Note_on_c, 0, 42, 69
2, 1011968, Note_on_c, 0, 70, 82
2, 1011968, Note_on_c, 0, 61, 25
2, 1011979, Note_off_c, 0, 68, 64
2, 1011981, Control_c, 0, 64, 127
2, 1012034, Note_on_c, 0, 66, 50
2, 1012056, Note_off_c, 0, 70, 64
2, 1012075, Note_off_c, 0, 54, 64
2, 1012079, Note_off_c, 0, 42, 64
2, 1012079, Control_c, 0, 64, 0
2, 1012082, Note_off_c, 0, 61, 64
2, 1012095, Note_on_c, 0, 54, 62
2, 1012098, Note_on_c, 0, 63, 59
2, 1012103, Note_on_c, 0, 70, 73
2, 1012103, Note_on_c, 0, 47, 58
2, 1012109, Control_c, 0, 64, 127
2, 1012119, Note_off_c, 0, 66, 64
2, 1012159, Note_on_c, 0, 68, 66
2, 1012179, Note_off_c, 0, 70, 64
2, 1012200, Control_c, 0, 64, 0
2, 1012209, Note_off_c, 0, 54, 64
2, 1012212, Note_off_c, 0, 63, 64
2, 1012217, Note_off_c, 0, 47, 64
2, 1012225, Note_on_c, 0, 61, 62
2, 1012231, Note_on_c, 0, 54, 46
2, 1012234, Note_on_c, 0, 70, 74
2, 1012234, Note_on_c, 0, 42, 58
2, 1012247, Control_c, 0, 64, 127
2, 1012259, Note_off_c, 0, 68, 64
2, 1012291, Note_on_c, 0, 66, 56
2, 1012301, Note_off_c, 0, 70, 64
2, 1012329, Control_c, 0, 64, 0
2, 1012339, Note_off_c, 0, 61, 64
2, 1012345, Note_off_c, 0, 54, 64
2, 1012348, Note_off_c, 0, 42, 64
2, 1012361, Note_on_c, 0, 63, 59
2, 1012367, Note_on_c, 0, 70, 74
2, 1012367, Note_on_c, 0, 54, 58
2, 1012372, Note_on_c, 0, 47, 48
2, 1012377, Control_c, 0, 64, 127
2, 1012381, Note_off_c, 0, 66, 64
2, 1012423, Note_on_c, 0, 68, 70
2, 1012444, Note_off_c, 0, 70, 64
2, 1012467, Control_c, 0, 64, 0
2, 1012475, Note_off_c, 0, 63, 64
2, 1012481, Note_off_c, 0, 54, 64
2, 1012486, Note_off_c, 0, 47, 64
2, 1012488, Note_on_c, 0, 61, 62
2, 1012491, Note_on_c, 0, 70, 77
2, 1012498, Note_on_c, 0, 54, 42
2, 1012498, Note_on_c, 0, 42, 55
2, 1012506, Control_c, 0, 64, 127
2, 1012514, Note_off_c, 0, 68, 64
2, 1012548, Note_on_c, 0, 66, 59
2, 1012572, Note_off_c, 0, 70, 64
2, 1012587, Control_c, 0, 64, 0
2, 1012602, Note_off_c, 0, 61, 64
2, 1012612, Note_off_c, 0, 42, 64
2, 1012612, Note_off_c, 0, 54, 64
2, 1012621, Note_on_c, 0, 70, 77
2, 1012625, Note_on_c, 0, 54, 58
2, 1012626, Note_on_c, 0, 63, 59
2, 1012629, Note_on_c, 0, 47, 62
2, 1012634, Note_off_c, 0, 66, 64
2, 1012635, Control_c, 0, 64, 127
2, 1012676, Note_on_c, 0, 68, 67
2, 1012684, Note_off_c, 0, 70, 64
2, 1012717, Control_c, 0, 64, 0
2, 1012739, Note_off_c, 0, 54, 64
2, 1012740, Note_off_c, 0, 63, 64
2, 1012741, Note_on_c, 0, 61, 60
2, 1012743, Note_off_c, 0, 47, 64
2, 1012747, Note_on_c, 0, 70, 80
2, 1012753, Note_on_c, 0, 42, 46
2, 1012753, Control_c, 0, 64, 127
2, 1012760, Note_on_c, 0, 54, 55
2, 1012763, Note_off_c, 0, 68, 64
2, 1012807, Note_on_c, 0, 66, 73
2, 1012822, Note_off_c, 0, 70, 64
2, 1012855, Note_off_c, 0, 61, 64
2, 1012855, Control_c, 0, 64, 0
2, 1012867, Note_off_c, 0, 42, 64
2, 1012874, Note_off_c, 0, 54, 64
2, 1012876, Note_on_c, 0, 63, 50
2, 1012881, Note_on_c, 0, 54, 57
2, 1012884, Note_on_c, 0, 69, 74
2, 1012887, Note_on_c, 0, 47, 56
2, 1012895, Control_c, 0, 64, 127
2, 1012904, Note_off_c, 0, 66, 64
2, 1012943, Note_on_c, 0, 68, 72
2, 1012963, Note_off_c, 0, 69, 64
2, 1012967, Control_c, 0, 64, 0
2, 1012990, Note_off_c, 0, 63, 64
2, 1012995, Note_off_c, 0, 54, 64
2, 1013001, Note_off_c, 0, 47, 64
2, 1013003, Note_on_c, 0, 61, 54
2, 1013011, Note_on_c, 0, 42, 43
2, 1013012, Note_on_c, 0, 54, 59
2, 1013020, Note_on_c, 0, 69, 49
2, 1013025, Control_c, 0, 64, 127
2, 1013030, Note_off_c, 0, 68, 64
2, 1013078, Note_on_c, 0, 66, 41
2, 1013100, Note_off_c, 0, 69, 64
2, 1013117, Note_off_c, 0, 61, 64
2, 1013123, Control_c, 0, 64, 0
2, 1013125, Note_off_c, 0, 42, 64
2, 1013126, Note_off_c, 0, 54, 64
2, 1013149, Note_on_c, 0, 69, 57
2, 1013149, Note_on_c, 0, 63, 46
2, 1013155, Note_on_c, 0, 47, 55
2, 1013157, Note_on_c, 0, 54, 41
2, 1013163, Note_off_c, 0, 66, 64
2, 1013170, Control_c, 0, 64, 127
2, 1013211, Note_on_c, 0, 68, 55
2, 1013222, Note_off_c, 0, 69, 64
2, 1013263, Note_off_c, 0, 63, 64
2, 1013269, Note_off_c, 0, 47, 64
2, 1013271, Note_off_c, 0, 54, 64
2, 1013279, Control_c, 0, 64, 0
2, 1013284, Note_on_c, 0, 61, 47
2, 1013291, Note_on_c, 0, 54, 46
2, 1013291, Note_on_c, 0, 42, 49
2, 1013294, Note_on_c, 0, 69, 44
2, 1013309, Note_off_c, 0, 68, 64
2, 1013309, Control_c, 0, 64, 127
2, 1013358, Note_on_c, 0, 66, 63
2, 1013374, Note_off_c, 0, 69, 64
2, 1013398, Note_off_c, 0, 61, 64
2, 1013405, Note_off_c, 0, 42, 64
2, 1013405, Note_off_c, 0, 54, 64
2, 1013425, Control_c, 0, 64, 0
2, 1013436, Note_on_c, 0, 54, 33
2, 1013440, Note_on_c, 0, 69, 43
2, 1013440, Note_on_c, 0, 47, 41
2, 1013444, Note_on_c, 0, 63, 36
2, 1013453, Note_off_c, 0, 66, 64
2, 1013474, Control_c, 0, 64, 127
2, 1013516, Note_on_c, 0, 68, 49
2, 1013521, Note_off_c, 0, 69, 64
2, 1013550, Note_off_c, 0, 54, 64
2, 1013554, Note_off_c, 0, 47, 64
2, 1013558, Note_off_c, 0, 63, 64
2, 1013584, Control_c, 0, 64, 0
2, 1013602, Note_on_c, 0, 42, 35
2, 1013604, Note_on_c, 0, 61, 40
2, 1013608, Note_on_c, 0, 69, 48
2, 1013612, Note_on_c, 0, 54, 26
2, 1013622, Note_off_c, 0, 68, 64
2, 1013631, Control_c, 0, 64, 127
2, 1013699, Note_on_c, 0, 66, 39
2, 1013706, Note_off_c, 0, 69, 64
2, 1013716, Note_off_c, 0, 42, 64
2, 1013718, Note_off_c, 0, 61, 64
2, 1013726, Note_off_c, 0, 54, 64
2, 1013795, Note_off_c, 0, 66, 64
2, 1013838, Control_c, 0, 64, 0
2, 1013853, Note_on_c, 0, 63, 47
2, 1013854, Note_on_c, 0, 69, 54
2, 1013861, Note_on_c, 0, 35, 47
2, 1013901, Control_c, 0, 64, 127
2, 1014096, Note_on_c, 0, 42, 56
2, 1014100, Note_off_c, 0, 35, 64
2, 1014192, Note_on_c, 0, 47, 55
2, 1014212, Note_off_c, 0, 42, 64
2, 1014254, Note_on_c, 0, 56, 57
2, 1014268, Note_off_c, 0, 47, 64
2, 1014314, Note_on_c, 0, 54, 58
2, 1014321, Note_off_c, 0, 56, 64
2, 1014353, Note_on_c, 0, 56, 64
2, 1014359, Note_off_c, 0, 54, 64
2, 1014390, Note_on_c, 0, 54, 56
2, 1014404, Note_off_c, 0, 56, 64
2, 1014421, Control_c, 0, 64, 0
2, 1014438, Note_on_c, 0, 47, 74
2, 1014458, Note_off_c, 0, 54, 64
2, 1014588, Control_c, 0, 64, 127
2, 1014595, Note_on_c, 0, 59, 63
2, 1014609, Note_off_c, 0, 47, 64
2, 1014653, Note_off_c, 0, 59, 64
2, 1014753, Note_off_c, 0, 69, 64
2, 1014768, Note_on_c, 0, 40, 66
2, 1014772, Note_on_c, 0, 69, 64
2, 1014772, Note_on_c, 0, 62, 63
2, 1014772, Control_c, 0, 64, 0
2, 1014801, Note_off_c, 0, 63, 64
2, 1014814, Control_c, 0, 64, 127
2, 1014998, Note_on_c, 0, 47, 55
2, 1015018, Note_off_c, 0, 40, 64
2, 1015082, Note_on_c, 0, 52, 51
2, 1015100, Note_off_c, 0, 47, 64
2, 1015146, Note_on_c, 0, 61, 56
2, 1015165, Note_off_c, 0, 52, 64
2, 1015218, Note_on_c, 0, 59, 57
2, 1015222, Note_on_c, 0, 68, 77
2, 1015229, Note_off_c, 0, 61, 64
2, 1015245, Note_on_c, 0, 61, 55
2, 1015257, Note_off_c, 0, 59, 64
2, 1015261, Note_off_c, 0, 69, 64
2, 1015286, Note_on_c, 0, 59, 55
2, 1015302, Note_off_c, 0, 61, 64
2, 1015303, Control_c, 0, 64, 0
2, 1015344, Note_on_c, 0, 52, 73
2, 1015356, Note_off_c, 0, 59, 64
2, 1015419, Control_c, 0, 64, 127
2, 1015495, Note_on_c, 0, 64, 58
2, 1015511, Note_off_c, 0, 52, 64
2, 1015553, Note_off_c, 0, 64, 64
2, 1015667, Note_off_c, 0, 62, 64
2, 1015678, Note_on_c, 0, 62, 69
2, 1015683, Note_on_c, 0, 33, 59
2, 1015685, Note_on_c, 0, 67, 64
2, 1015700, Control_c, 0, 64, 0
2, 1015720, Note_off_c, 0, 68, 64
2, 1015739, Control_c, 0, 64, 127
2, 1015911, Note_on_c, 0, 40, 57
2, 1015922, Note_off_c, 0, 33, 64
2, 1015989, Note_on_c, 0, 45, 51
2, 1016007, Note_off_c, 0, 40, 64
2, 1016048, Note_on_c, 0, 54, 64
2, 1016065, Note_off_c, 0, 45, 64
2, 1016120, Note_on_c, 0, 52, 52
2, 1016122, Note_on_c, 0, 61, 69
2, 1016132, Note_off_c, 0, 54, 64
2, 1016141, Note_off_c, 0, 62, 64
2, 1016146, Note_on_c, 0, 54, 55
2, 1016168, Note_off_c, 0, 52, 64
2, 1016190, Note_on_c, 0, 52, 52
2, 1016199, Control_c, 0, 64, 0
2, 1016202, Note_off_c, 0, 54, 64
2, 1016243, Note_on_c, 0, 45, 67
2, 1016265, Note_off_c, 0, 52, 64
2, 1016349, Control_c, 0, 64, 127
2, 1016396, Note_on_c, 0, 57, 58
2, 1016398, Note_off_c, 0, 45, 64
2, 1016454, Note_off_c, 0, 57, 64
2, 1016546, Note_off_c, 0, 67, 64
2, 1016563, Note_on_c, 0, 67, 66
2, 1016567, Note_on_c, 0, 38, 64
2, 1016569, Note_on_c, 0, 60, 62
2, 1016578, Control_c, 0, 64, 0
2, 1016600, Note_off_c, 0, 61, 64
2, 1016607, Control_c, 0, 64, 127
2, 1016810, Note_on_c, 0, 45, 54
2, 1016825, Note_off_c, 0, 38, 64
2, 1016905, Note_on_c, 0, 50, 51
2, 1016912, Note_off_c, 0, 45, 64
2, 1016966, Note_on_c, 0, 59, 62
2, 1016987, Note_off_c, 0, 50, 64
2, 1017029, Note_on_c, 0, 57, 52
2, 1017033, Note_off_c, 0, 59, 64
2, 1017043, Note_on_c, 0, 66, 70
2, 1017059, Note_off_c, 0, 60, 64
2, 1017076, Note_on_c, 0, 59, 54
2, 1017089, Note_off_c, 0, 57, 64
2, 1017099, Note_off_c, 0, 67, 64
2, 1017100, Note_on_c, 0, 57, 47
2, 1017114, Note_off_c, 0, 59, 64
2, 1017151, Note_on_c, 0, 50, 62
2, 1017162, Control_c, 0, 64, 0
2, 1017211, Control_c, 0, 64, 127
2, 1017300, Note_off_c, 0, 50, 64
2, 1017319, Note_on_c, 0, 62, 60
2, 1017329, Control_c, 0, 64, 127
2, 1017519, Note_on_c, 0, 61, 44
2, 1017525, Note_on_c, 0, 49, 46
2, 1017529, Note_off_c, 0, 62, 64
2, 1017535, Control_c, 0, 64, 0
2, 1017586, Control_c, 0, 64, 127
2, 1017737, Note_off_c, 0, 57, 64
2, 1017737, Note_off_c, 0, 61, 64
2, 1017753, Note_off_c, 0, 49, 64
2, 1017787, Control_c, 0, 64, 127
2, 1017829, Note_on_c, 0, 68, 46
2, 1017862, Note_off_c, 0, 66, 64
2, 1017887, Note_off_c, 0, 68, 64
2, 1017906, Note_on_c, 0, 69, 51
2, 1017975, Note_on_c, 0, 72, 55
2, 1017999, Note_off_c, 0, 69, 64
2, 1018051, Note_on_c, 0, 74, 42
2, 1018061, Note_off_c, 0, 72, 64
2, 1018071, Control_c, 0, 64, 0
2, 1018091, Note_on_c, 0, 76, 54
2, 1018101, Note_off_c, 0, 74, 64
2, 1018135, Note_on_c, 0, 74, 54
2, 1018150, Note_off_c, 0, 76, 64
2, 1018182, Note_on_c, 0, 73, 59
2, 1018192, Note_off_c, 0, 74, 64
2, 1018331, Note_on_c, 0, 78, 55
2, 1018343, Control_c, 0, 64, 127
2, 1018349, Note_off_c, 0, 73, 64
2, 1018475, Note_on_c, 0, 73, 66
2, 1018475, Control_c, 0, 64, 0
2, 1018482, Note_on_c, 0, 49, 52
2, 1018490, Control_c, 0, 64, 127
2, 1018497, Note_off_c, 0, 78, 64
2, 1018519, Note_on_c, 0, 74, 51
2, 1018522, Note_off_c, 0, 73, 64
2, 1018534, Note_off_c, 0, 49, 64
2, 1018554, Note_on_c, 0, 73, 60
2, 1018572, Note_off_c, 0, 74, 64
2, 1018603, Note_on_c, 0, 72, 55
2, 1018609, Note_off_c, 0, 73, 64
2, 1018673, Note_on_c, 0, 56, 54
2, 1018746, Note_on_c, 0, 57, 50
2, 1018762, Note_off_c, 0, 56, 64
2, 1018765, Note_on_c, 0, 78, 63
2, 1018818, Note_off_c, 0, 57, 64
2, 1018823, Note_on_c, 0, 60, 59
2, 1018846, Note_off_c, 0, 72, 64
2, 1018883, Note_off_c, 0, 60, 64
2, 1018906, Note_on_c, 0, 71, 55
2, 1018906, Note_on_c, 0, 62, 65
2, 1018921, Note_off_c, 0, 78, 64
2, 1018950, Note_on_c, 0, 73, 62
2, 1018955, Note_on_c, 0, 64, 69
2, 1018964, Note_off_c, 0, 71, 64
2, 1018966, Note_off_c, 0, 62, 64
2, 1018975, Control_c, 0, 64, 0
2, 1018988, Note_on_c, 0, 71, 57
2, 1018991, Note_on_c, 0, 62, 60
2, 1019001, Note_off_c, 0, 73, 64
2, 1019004, Note_off_c, 0, 64, 64
2, 1019040, Note_on_c, 0, 70, 66
2, 1019048, Note_off_c, 0, 71, 64
2, 1019050, Note_on_c, 0, 61, 64
2, 1019065, Note_off_c, 0, 62, 64
2, 1019125, Control_c, 0, 64, 127
2, 1019164, Control_c, 0, 64, 0
2, 1019190, Note_off_c, 0, 70, 64
2, 1019203, Note_off_c, 0, 61, 64
2, 1019208, Note_on_c, 0, 73, 63
2, 1019208, Note_on_c, 0, 66, 63
2, 1019216, Note_on_c, 0, 69, 63
2, 1019230, Control_c, 0, 64, 127
2, 1019256, Note_off_c, 0, 66, 64
2, 1019283, Note_off_c, 0, 69, 64
2, 1019291, Note_off_c, 0, 73, 64
2, 1019361, Note_on_c, 0, 61, 59
2, 1019367, Note_on_c, 0, 69, 54
2, 1019400, Note_on_c, 0, 71, 55
2, 1019406, Note_on_c, 0, 62, 69
2, 1019412, Note_off_c, 0, 69, 64
2, 1019414, Note_off_c, 0, 61, 64
2, 1019451, Note_off_c, 0, 62, 64
2, 1019451, Note_on_c, 0, 69, 59
2, 1019453, Note_on_c, 0, 61, 65
2, 1019460, Note_off_c, 0, 71, 64
2, 1019491, Note_on_c, 0, 68, 69
2, 1019495, Control_c, 0, 64, 0
2, 1019499, Note_off_c, 0, 69, 64
2, 1019501, Note_off_c, 0, 61, 64
2, 1019504, Note_on_c, 0, 60, 72
2, 1019518, Control_c, 0, 64, 127
2, 1019572, Note_off_c, 0, 68, 64
2, 1019649, Note_on_c, 0, 73, 66
2, 1019653, Note_on_c, 0, 61, 77
2, 1019658, Note_on_c, 0, 59, 62
2, 1019662, Note_off_c, 0, 60, 64
2, 1019665, Control_c, 0, 64, 0
2, 1019687, Control_c, 0, 64, 127
2, 1019705, Note_off_c, 0, 59, 64
2, 1019726, Note_off_c, 0, 61, 64
2, 1019783, Note_off_c, 0, 73, 64
2, 1019798, Note_on_c, 0, 68, 62
2, 1019812, Control_c, 0, 64, 0
2, 1019816, Note_on_c, 0, 59, 56
2, 1019835, Control_c, 0, 64, 127
2, 1019840, Note_on_c, 0, 69, 64
2, 1019845, Note_on_c, 0, 61, 72
2, 1019851, Note_off_c, 0, 68, 64
2, 1019863, Note_off_c, 0, 59, 64
2, 1019880, Note_on_c, 0, 68, 65
2, 1019885, Note_off_c, 0, 61, 64
2, 1019889, Note_on_c, 0, 59, 57
2, 1019896, Note_off_c, 0, 69, 64
2, 1019930, Control_c, 0, 64, 0
2, 1019936, Note_on_c, 0, 67, 74
2, 1019938, Note_off_c, 0, 68, 64
2, 1019942, Note_on_c, 0, 58, 64
2, 1019951, Note_off_c, 0, 59, 64
2, 1019967, Control_c, 0, 64, 127
2, 1020079, Note_off_c, 0, 67, 64
2, 1020087, Control_c, 0, 64, 0
2, 1020092, Note_off_c, 0, 58, 64
2, 1020096, Note_on_c, 0, 73, 75
2, 1020096, Note_on_c, 0, 57, 65
2, 1020097, Note_on_c, 0, 66, 82
2, 1020133, Control_c, 0, 64, 127
2, 1020178, Note_off_c, 0, 66, 64
2, 1020237, Note_off_c, 0, 73, 64
2, 1020252, Note_on_c, 0, 66, 80
2, 1020258, Note_on_c, 0, 56, 66
2, 1020258, Control_c, 0, 64, 0
2, 1020277, Note_off_c, 0, 57, 64
2, 1020283, Control_c, 0, 64, 127
2, 1020300, Note_on_c, 0, 68, 73
2, 1020304, Note_off_c, 0, 66, 64
2, 1020333, Note_on_c, 0, 66, 70
2, 1020352, Note_off_c, 0, 68, 64
2, 1020395, Note_on_c, 0, 65, 74
2, 1020403, Control_c, 0, 64, 0
2, 1020405, Note_off_c, 0, 66, 64
2, 1020405, Note_on_c, 0, 44, 65
2, 1020435, Control_c, 0, 64, 127
2, 1020479, Note_off_c, 0, 65, 64
2, 1020481, Note_on_c, 0, 68, 74
2, 1020487, Note_on_c, 0, 64, 72
2, 1020530, Note_off_c, 0, 56, 64
2, 1020549, Note_off_c, 0, 64, 64
2, 1020565, Control_c, 0, 64, 0
2, 1020570, Note_off_c, 0, 68, 64
2, 1020572, Note_on_c, 0, 54, 69
2, 1020576, Note_on_c, 0, 63, 80
2, 1020576, Note_on_c, 0, 60, 63
2, 1020593, Control_c, 0, 64, 127
2, 1020608, Note_off_c, 0, 60, 64
2, 1020614, Note_off_c, 0, 54, 64
2, 1020658, Note_on_c, 0, 68, 81
2, 1020667, Note_off_c, 0, 63, 64
2, 1020681, Note_off_c, 0, 44, 64
2, 1020749, Note_on_c, 0, 61, 85
2, 1020752, Note_on_c, 0, 37, 71
2, 1020758, Control_c, 0, 64, 0
2, 1020778, Control_c, 0, 64, 127
2, 1020784, Note_off_c, 0, 68, 64
2, 1020820, Note_off_c, 0, 61, 64
2, 1020827, Note_on_c, 0, 62, 55
2, 1020866, Note_off_c, 0, 62, 64
2, 1020867, Note_on_c, 0, 64, 60
2, 1020899, Note_on_c, 0, 62, 77
2, 1020909, Control_c, 0, 64, 0
2, 1020912, Note_off_c, 0, 64, 64
2, 1020925, Note_on_c, 0, 59, 67
2, 1020929, Note_on_c, 0, 61, 78
2, 1020935, Note_on_c, 0, 53, 54
2, 1020935, Note_on_c, 0, 49, 48
2, 1020940, Note_off_c, 0, 62, 64
2, 1020948, Control_c, 0, 64, 127
2, 1020963, Note_off_c, 0, 49, 64
2, 1020970, Note_off_c, 0, 59, 64
2, 1020977, Note_off_c, 0, 53, 64
2, 1021017, Note_off_c, 0, 61, 64
2, 1021031, Note_on_c, 0, 62, 72
2, 1021037, Note_off_c, 0, 37, 64
2, 1021038, Note_on_c, 0, 71, 70
2, 1021116, Note_off_c, 0, 62, 64
2, 1021122, Control_c, 0, 64, 0
2, 1021131, Note_on_c, 0, 69, 72
2, 1021136, Note_on_c, 0, 61, 78
2, 1021141, Note_on_c, 0, 49, 62
2, 1021146, Note_on_c, 0, 59, 71
2, 1021146, Note_on_c, 0, 53, 67
2, 1021149, Note_off_c, 0, 71, 64
2, 1021153, Control_c, 0, 64, 127
2, 1021177, Note_off_c, 0, 59, 64
2, 1021181, Note_off_c, 0, 49, 64
2, 1021183, Note_off_c, 0, 53, 64
2, 1021211, Note_off_c, 0, 61, 64
2, 1021227, Note_on_c, 0, 68, 73
2, 1021233, Note_off_c, 0, 69, 64
2, 1021236, Note_on_c, 0, 65, 54
2, 1021312, Note_off_c, 0, 65, 64
2, 1021341, Note_off_c, 0, 68, 64
2, 1021348, Note_on_c, 0, 66, 93
2, 1021350, Control_c, 0, 64, 0
2, 1021358, Note_on_c, 0, 42, 83
2, 1021358, Note_on_c, 0, 30, 72
2, 1021385, Control_c, 0, 64, 127
2, 1021546, Note_on_c, 0, 49, 59
2, 1021553, Note_on_c, 0, 61, 69
2, 1021554, Note_on_c, 0, 68, 69
2, 1021557, Note_off_c, 0, 66, 64
2, 1021561, Note_on_c, 0, 57, 64
2, 1021588, Note_off_c, 0, 49, 64
2, 1021594, Note_off_c, 0, 57, 64
2, 1021598, Note_off_c, 0, 61, 64
2, 1021604, Note_off_c, 0, 68, 64
2, 1021615, Note_on_c, 0, 66, 78
2, 1021671, Note_off_c, 0, 30, 64
2, 1021671, Note_off_c, 0, 42, 64
2, 1021681, Note_off_c, 0, 66, 64
2, 1021683, Note_on_c, 0, 69, 64
2, 1021692, Note_on_c, 0, 61, 59
2, 1021698, Note_on_c, 0, 57, 59
2, 1021698, Note_on_c, 0, 49, 57
2, 1021723, Note_off_c, 0, 57, 64
2, 1021727, Note_off_c, 0, 49, 64
2, 1021730, Note_off_c, 0, 61, 64
2, 1021757, Note_on_c, 0, 72, 70
2, 1021778, Note_off_c, 0, 69, 64
2, 1021824, Note_on_c, 0, 74, 64
2, 1021835, Note_on_c, 0, 42, 77
2, 1021838, Note_off_c, 0, 72, 64
2, 1021880, Note_on_c, 0, 76, 70
2, 1021892, Note_off_c, 0, 74, 64
2, 1021916, Note_on_c, 0, 74, 70
2, 1021933, Note_off_c, 0, 76, 64
2, 1021936, Control_c, 0, 64, 0
2, 1021953, Note_on_c, 0, 73, 87
2, 1021961, Note_on_c, 0, 64, 69
2, 1021961, Note_on_c, 0, 58, 74
2, 1021961, Note_on_c, 0, 54, 73
2, 1021972, Note_off_c, 0, 74, 64
2, 1021986, Note_off_c, 0, 54, 64
2, 1021989, Note_off_c, 0, 64, 64
2, 1021991, Note_off_c, 0, 58, 64
2, 1022104, Note_off_c, 0, 42, 64
2, 1022132, Note_on_c, 0, 78, 73
2, 1022132, Control_c, 0, 64, 127
2, 1022139, Note_off_c, 0, 73, 64
2, 1022143, Note_on_c, 0, 66, 74
2, 1022149, Note_on_c, 0, 58, 73
2, 1022152, Note_on_c, 0, 54, 74
2, 1022157, Note_on_c, 0, 64, 73
2, 1022180, Note_off_c, 0, 54, 64
2, 1022180, Note_off_c, 0, 58, 64
2, 1022182, Note_off_c, 0, 64, 64
2, 1022257, Note_off_c, 0, 66, 64
2, 1022301, Note_on_c, 0, 73, 71
2, 1022305, Note_on_c, 0, 47, 62
2, 1022317, Note_off_c, 0, 78, 64
2, 1022345, Note_on_c, 0, 74, 62
2, 1022349, Note_off_c, 0, 73, 64
2, 1022385, Note_on_c, 0, 73, 73
2, 1022398, Note_off_c, 0, 74, 64
2, 1022413, Control_c, 0, 64, 0
2, 1022418, Note_on_c, 0, 64, 69
2, 1022423, Note_on_c, 0, 54, 67
2, 1022425, Note_on_c, 0, 72, 77
2, 1022437, Note_off_c, 0, 73, 64
2, 1022454, Note_off_c, 0, 64, 64
2, 1022457, Note_off_c, 0, 54, 64
2, 1022470, Control_c, 0, 64, 127
2, 1022573, Control_c, 0, 64, 0
2, 1022598, Note_on_c, 0, 54, 65
2, 1022601, Note_off_c, 0, 47, 64
2, 1022601, Note_on_c, 0, 78, 70
2, 1022601, Note_on_c, 0, 71, 69
2, 1022602, Note_on_c, 0, 62, 73
2, 1022610, Control_c, 0, 64, 127
2, 1022616, Note_off_c, 0, 72, 64
2, 1022636, Note_off_c, 0, 62, 64
2, 1022647, Note_off_c, 0, 54, 64
2, 1022682, Note_off_c, 0, 71, 64
2, 1022750, Note_on_c, 0, 71, 59
2, 1022753, Control_c, 0, 64, 0
2, 1022758, Note_off_c, 0, 78, 64
2, 1022758, Note_on_c, 0, 42, 73
2, 1022769, Control_c, 0, 64, 127
2, 1022794, Note_on_c, 0, 73, 73
2, 1022807, Note_off_c, 0, 71, 64
2, 1022838, Note_on_c, 0, 71, 63
2, 1022849, Note_off_c, 0, 73, 64
2, 1022877, Note_on_c, 0, 62, 66
2, 1022879, Control_c, 0, 64, 0
2, 1022884, Note_on_c, 0, 70, 71
2, 1022886, Note_on_c, 0, 54, 73
2, 1022898, Note_off_c, 0, 71, 64
2, 1022907, Control_c, 0, 64, 127
2, 1022915, Note_off_c, 0, 54, 64
2, 1022916, Note_off_c, 0, 62, 64
2, 1023012, Note_off_c, 0, 70, 64
2, 1023034, Note_off_c, 0, 42, 64
2, 1023073, Note_on_c, 0, 54, 58
2, 1023075, Note_on_c, 0, 73, 69
2, 1023080, Note_on_c, 0, 69, 70
2, 1023080, Note_on_c, 0, 61, 62
2, 1023099, Control_c, 0, 64, 0
2, 1023119, Control_c, 0, 64, 127
2, 1023127, Note_off_c, 0, 61, 64
2, 1023134, Note_off_c, 0, 54, 64
2, 1023170, Note_off_c, 0, 73, 64
2, 1023249, Note_off_c, 0, 69, 64
2, 1023262, Note_on_c, 0, 50, 56
2, 1023298, Note_on_c, 0, 66, 77
2, 1023337, Control_c, 0, 64, 0
2, 1023376, Control_c, 0, 64, 127
2, 1023477, Note_on_c, 0, 61, 58
2, 1023484, Note_on_c, 0, 54, 41
2, 1023535, Note_off_c, 0, 61, 64
2, 1023535, Note_on_c, 0, 68, 62
2, 1023537, Note_off_c, 0, 54, 64
2, 1023548, Note_off_c, 0, 66, 64
2, 1023608, Note_on_c, 0, 69, 67
2, 1023611, Note_off_c, 0, 68, 64
2, 1023617, Note_on_c, 0, 59, 64
2, 1023617, Note_on_c, 0, 54, 41
2, 1023668, Note_off_c, 0, 59, 64
2, 1023677, Note_on_c, 0, 71, 60
2, 1023679, Note_off_c, 0, 54, 64
2, 1023680, Note_off_c, 0, 50, 64
2, 1023685, Note_off_c, 0, 69, 64
2, 1023724, Control_c, 0, 64, 0
2, 1023729, Note_off_c, 0, 71, 64
2, 1023733, Note_on_c, 0, 69, 71
2, 1023753, Note_on_c, 0, 49, 64
2, 1023758, Control_c, 0, 64, 127
2, 1023783, Note_on_c, 0, 71, 62
2, 1023792, Note_off_c, 0, 69, 64
2, 1023828, Note_on_c, 0, 69, 69
2, 1023839, Note_off_c, 0, 71, 64
2, 1023858, Control_c, 0, 64, 0
2, 1023868, Note_on_c, 0, 59, 49
2, 1023868, Note_on_c, 0, 54, 47
2, 1023872, Note_on_c, 0, 68, 80
2, 1023890, Note_off_c, 0, 69, 64
2, 1023903, Control_c, 0, 64, 127
2, 1023926, Note_off_c, 0, 59, 64
2, 1023935, Note_off_c, 0, 54, 64
2, 1024012, Note_off_c, 0, 49, 64
2, 1024068, Note_on_c, 0, 53, 42
2, 1024072, Note_on_c, 0, 59, 48
2, 1024083, Note_on_c, 0, 73, 66
2, 1024095, Control_c, 0, 64, 0
2, 1024099, Note_off_c, 0, 68, 64
2, 1024126, Control_c, 0, 64, 127
2, 1024254, Note_off_c, 0, 53, 64
2, 1024267, Note_on_c, 0, 50, 47
2, 1024301, Note_off_c, 0, 59, 64
2, 1024328, Note_on_c, 0, 66, 77
2, 1024343, Note_off_c, 0, 73, 64
2, 1024349, Control_c, 0, 64, 0
2, 1024388, Control_c, 0, 64, 127
2, 1024496, Note_on_c, 0, 61, 33
2, 1024503, Note_on_c, 0, 54, 50
2, 1024546, Note_off_c, 0, 61, 64
2, 1024551, Note_off_c, 0, 66, 64
2, 1024552, Note_on_c, 0, 68, 60
2, 1024563, Note_off_c, 0, 54, 64
2, 1024626, Note_on_c, 0, 69, 66
2, 1024638, Note_off_c, 0, 68, 64
2, 1024639, Note_on_c, 0, 54, 50
2, 1024644, Note_on_c, 0, 59, 50
2, 1024662, Note_off_c, 0, 50, 64
2, 1024694, Note_on_c, 0, 73, 69
2, 1024706, Note_off_c, 0, 59, 64
2, 1024711, Note_off_c, 0, 54, 64
2, 1024718, Note_on_c, 0, 71, 75
2, 1024722, Note_off_c, 0, 73, 64
2, 1024734, Note_off_c, 0, 69, 64
2, 1024767, Note_on_c, 0, 69, 71
2, 1024771, Note_off_c, 0, 71, 64
2, 1024774, Note_on_c, 0, 49, 59
2, 1024781, Control_c, 0, 64, 0
2, 1024803, Control_c, 0, 64, 127
2, 1024821, Note_on_c, 0, 71, 62
2, 1024836, Note_off_c, 0, 69, 64
2, 1024875, Note_on_c, 0, 69, 63
2, 1024888, Note_off_c, 0, 71, 64
2, 1024916, Note_on_c, 0, 54, 50
2, 1024921, Control_c, 0, 64, 0
2, 1024928, Note_on_c, 0, 59, 41
2, 1024933, Note_on_c, 0, 68, 70
2, 1024947, Control_c, 0, 64, 127
2, 1024951, Note_off_c, 0, 69, 64
2, 1024993, Note_off_c, 0, 59, 64
2, 1025019, Note_off_c, 0, 54, 64
2, 1025093, Note_off_c, 0, 49, 64
2, 1025161, Note_on_c, 0, 53, 36
2, 1025171, Note_on_c, 0, 59, 47
2, 1025204, Note_on_c, 0, 73, 69
2, 1025219, Note_off_c, 0, 68, 64
2, 1025237, Control_c, 0, 64, 0
2, 1025268, Control_c, 0, 64, 127
2, 1025418, Note_off_c, 0, 53, 64
2, 1025418, Note_on_c, 0, 50, 41
2, 1025461, Note_off_c, 0, 59, 64
2, 1025514, Note_on_c, 0, 66, 77
2, 1025539, Note_off_c, 0, 73, 64
2, 1025553, Control_c, 0, 64, 0
2, 1025592, Control_c, 0, 64, 127
2, 1025742, Note_on_c, 0, 61, 55
2, 1025749, Note_on_c, 0, 54, 39
2, 1025809, Note_off_c, 0, 61, 64
2, 1025818, Note_on_c, 0, 68, 66
2, 1025819, Note_off_c, 0, 66, 64
2, 1025824, Note_off_c, 0, 54, 64
2, 1025893, Note_off_c, 0, 68, 64
2, 1025894, Note_off_c, 0, 50, 64
2, 1025902, Note_on_c, 0, 69, 62
2, 1025908, Note_on_c, 0, 54, 49
2, 1025915, Note_on_c, 0, 59, 50
2, 1025938, Note_off_c, 0, 54, 64
2, 1025949, Note_off_c, 0, 59, 64
2, 1025981, Note_on_c, 0, 71, 64
2, 1026017, Note_off_c, 0, 69, 64
2, 1026057, Control_c, 0, 64, 0
2, 1026063, Note_on_c, 0, 44, 63
2, 1026063, Note_on_c, 0, 73, 69
2, 1026081, Control_c, 0, 64, 127
2, 1026089, Note_off_c, 0, 71, 64
2, 1026144, Note_on_c, 0, 76, 69
2, 1026165, Note_off_c, 0, 73, 64
2, 1026225, Note_on_c, 0, 74, 65
2, 1026234, Note_on_c, 0, 66, 70
2, 1026239, Note_off_c, 0, 76, 64
2, 1026243, Note_on_c, 0, 56, 32
2, 1026246, Note_on_c, 0, 59, 58
2, 1026251, Note_on_c, 0, 62, 46
2, 1026253, Control_c, 0, 64, 0
2, 1026275, Control_c, 0, 64, 127
2, 1026325, Note_off_c, 0, 74, 64
2, 1026348, Note_off_c, 0, 66, 64
2, 1026353, Note_off_c, 0, 62, 64
2, 1026365, Note_off_c, 0, 59, 64
2, 1026392, Note_off_c, 0, 56, 64
2, 1026567, Note_on_c, 0, 66, 67
2, 1026579, Note_off_c, 0, 44, 64
2, 1026633, Note_off_c, 0, 66, 64
2, 1026688, Note_on_c, 0, 66, 64
2, 1026784, Note_on_c, 0, 65, 66
2, 1026793, Note_off_c, 0, 66, 64
2, 1026892, Note_on_c, 0, 49, 58
2, 1026898, Note_on_c, 0, 69, 65
2, 1026904, Note_on_c, 0, 59, 29
2, 1026921, Control_c, 0, 64, 0
2, 1026952, Note_off_c, 0, 59, 64
2, 1026954, Control_c, 0, 64, 127
2, 1026977, Note_off_c, 0, 65, 64
2, 1027096, Note_on_c, 0, 50, 58
2, 1027098, Note_on_c, 0, 65, 55
2, 1027104, Note_on_c, 0, 59, 42
2, 1027107, Control_c, 0, 64, 0
2, 1027112, Note_off_c, 0, 69, 64
2, 1027112, Note_off_c, 0, 49, 64
2, 1027140, Control_c, 0, 64, 127
2, 1027180, Note_on_c, 0, 68, 64
2, 1027203, Note_off_c, 0, 65, 64
2, 1027224, Note_off_c, 0, 68, 64
2, 1027224, Note_off_c, 0, 50, 64
2, 1027261, Note_on_c, 0, 68, 66
2, 1027307, Note_off_c, 0, 59, 64
2, 1027343, Note_on_c, 0, 66, 74
2, 1027363, Note_off_c, 0, 68, 64
2, 1027398, Note_off_c, 0, 66, 64
2, 1027422, Note_on_c, 0, 71, 63
2, 1027428, Note_on_c, 0, 50, 64
2, 1027435, Note_on_c, 0, 60, 59
2, 1027450, Control_c, 0, 64, 0
2, 1027468, Control_c, 0, 64, 127
2, 1027474, Note_off_c, 0, 60, 64
2, 1027588, Note_on_c, 0, 66, 59
2, 1027593, Note_off_c, 0, 50, 64
2, 1027598, Note_on_c, 0, 60, 58
2, 1027599, Note_on_c, 0, 51, 59
2, 1027620, Note_off_c, 0, 71, 64
2, 1027655, Note_off_c, 0, 66, 64
2, 1027670, Note_on_c, 0, 69, 46
2, 1027688, Note_off_c, 0, 60, 64
2, 1027730, Note_off_c, 0, 69, 64
2, 1027753, Note_on_c, 0, 67, 59
2, 1027759, Note_on_c, 0, 60, 57
2, 1027762, Note_off_c, 0, 51, 64
2, 1027765, Note_on_c, 0, 52, 62
2, 1027772, Control_c, 0, 64, 0
2, 1027785, Control_c, 0, 64, 127
2, 1027814, Note_off_c, 0, 60, 64
2, 1027826, Note_on_c, 0, 68, 70
2, 1027844, Note_off_c, 0, 67, 64
2, 1027897, Note_off_c, 0, 68, 64
2, 1027900, Control_c, 0, 64, 0
2, 1027906, Note_on_c, 0, 40, 58
2, 1027907, Note_on_c, 0, 69, 63
2, 1027910, Note_on_c, 0, 61, 77
2, 1027936, Control_c, 0, 64, 127
2, 1027962, Note_off_c, 0, 52, 64
2, 1027977, Note_on_c, 0, 68, 56
2, 1027981, Note_off_c, 0, 69, 64
2, 1027991, Note_off_c, 0, 61, 64
2, 1028019, Note_off_c, 0, 68, 64
2, 1028037, Note_off_c, 0, 40, 64
2, 1028054, Note_on_c, 0, 68, 67
2, 1028056, Control_c, 0, 64, 0
2, 1028060, Note_on_c, 0, 41, 63
2, 1028060, Note_on_c, 0, 73, 69
2, 1028062, Note_on_c, 0, 62, 67
2, 1028073, Control_c, 0, 64, 127
2, 1028127, Note_off_c, 0, 68, 64
2, 1028135, Note_off_c, 0, 62, 64
2, 1028139, Note_off_c, 0, 73, 64
2, 1028141, Note_on_c, 0, 71, 64
2, 1028184, Note_off_c, 0, 71, 64
2, 1028217, Control_c, 0, 64, 0
2, 1028222, Note_on_c, 0, 62, 67
2, 1028224, Note_off_c, 0, 41, 64
2, 1028224, Note_on_c, 0, 71, 69
2, 1028224, Note_on_c, 0, 42, 77
2, 1028230, Note_on_c, 0, 66, 73
2, 1028235, Control_c, 0, 64, 127
2, 1028267, Note_off_c, 0, 66, 64
2, 1028295, Note_off_c, 0, 62, 64
2, 1028298, Note_off_c, 0, 71, 64
2, 1028313, Note_on_c, 0, 70, 65
2, 1028317, Note_on_c, 0, 61, 80
2, 1028344, Note_off_c, 0, 61, 64
2, 1028368, Note_off_c, 0, 70, 64
2, 1028420, Note_on_c, 0, 74, 77
2, 1028420, Note_on_c, 0, 70, 77
2, 1028424, Note_on_c, 0, 64, 73
2, 1028429, Note_on_c, 0, 54, 62
2, 1028433, Control_c, 0, 64, 0
2, 1028443, Control_c, 0, 64, 127
2, 1028502, Note_off_c, 0, 42, 64
2, 1028535, Note_off_c, 0, 70, 64
2, 1028539, Note_off_c, 0, 64, 64
2, 1028565, Note_off_c, 0, 54, 64
2, 1028619, Note_on_c, 0, 70, 69
2, 1028619, Note_on_c, 0, 64, 73
2, 1028626, Note_on_c, 0, 55, 58
2, 1028626, Note_on_c, 0, 43, 56
2, 1028632, Control_c, 0, 64, 0
2, 1028651, Control_c, 0, 64, 127
2, 1028669, Note_off_c, 0, 43, 64
2, 1028684, Note_off_c, 0, 55, 64
2, 1028698, Note_off_c, 0, 74, 64
2, 1028727, Note_on_c, 0, 73, 66
2, 1028737, Note_off_c, 0, 70, 64
2, 1028749, Note_off_c, 0, 64, 64
2, 1028774, Note_off_c, 0, 73, 64
2, 1028797, Control_c, 0, 64, 0
2, 1028798, Note_on_c, 0, 64, 77
2, 1028802, Note_on_c, 0, 68, 77
2, 1028803, Note_on_c, 0, 73, 74
2, 1028804, Control_c, 0, 64, 127
2, 1028806, Note_on_c, 0, 44, 66
2, 1028809, Note_on_c, 0, 56, 69
2, 1028826, Note_off_c, 0, 64, 64
2, 1028828, Control_c, 0, 64, 127
2, 1028830, Note_off_c, 0, 68, 64
2, 1028842, Note_off_c, 0, 44, 64
2, 1028849, Note_off_c, 0, 56, 64
2, 1028887, Note_off_c, 0, 73, 64
2, 1028926, Note_on_c, 0, 72, 66
2, 1028926, Note_on_c, 0, 68, 73
2, 1028926, Note_on_c, 0, 63, 73
2, 1028948, Note_off_c, 0, 63, 64
2, 1028948, Note_off_c, 0, 68, 64
2, 1028950, Note_off_c, 0, 72, 64
2, 1028984, Note_on_c, 0, 56, 64
2, 1028990, Note_on_c, 0, 80, 89
2, 1028990, Note_on_c, 0, 72, 80
2, 1028990, Note_on_c, 0, 68, 70
2, 1028990, Note_on_c, 0, 66, 56
2, 1028990, Note_on_c, 0, 63, 67
2, 1029003, Control_c, 0, 64, 0
2, 1029018, Note_off_c, 0, 66, 64
2, 1029024, Note_off_c, 0, 68, 64
2, 1029025, Note_off_c, 0, 72, 64
2, 1029025, Control_c, 0, 64, 127
2, 1029032, Note_off_c, 0, 56, 64
2, 1029038, Note_off_c, 0, 63, 64
2, 1029170, Note_on_c, 0, 63, 58
2, 1029170, Note_on_c, 0, 56, 44
2, 1029174, Note_on_c, 0, 66, 56
2, 1029177, Note_on_c, 0, 72, 69
2, 1029177, Note_on_c, 0, 68, 73
2, 1029185, Note_off_c, 0, 63, 64
2, 1029189, Note_off_c, 0, 56, 64
2, 1029198, Note_off_c, 0, 80, 64
2, 1029202, Note_off_c, 0, 66, 64
2, 1029234, Note_off_c, 0, 72, 64
2, 1029274, Note_on_c, 0, 78, 80
2, 1029342, Note_off_c, 0, 78, 64
2, 1029361, Note_off_c, 0, 68, 64
2, 1029395, Note_on_c, 0, 49, 85
2, 1029395, Note_on_c, 0, 37, 80
2, 1029398, Note_on_c, 0, 78, 102
2, 1029405, Control_c, 0, 64, 0
2, 1029427, Control_c, 0, 64, 127
2, 1029635, Note_off_c, 0, 37, 64
2, 1029635, Note_off_c, 0, 49, 64
2, 1029638, Note_on_c, 0, 68, 59
2, 1029638, Note_on_c, 0, 56, 58
2, 1029640, Note_on_c, 0, 71, 58
2, 1029642, Note_on_c, 0, 65, 51
2, 1029645, Note_on_c, 0, 61, 56
2, 1029675, Note_off_c, 0, 56, 64
2, 1029679, Note_off_c, 0, 61, 64
2, 1029696, Note_off_c, 0, 68, 64
2, 1029706, Note_off_c, 0, 65, 64
2, 1029719, Note_off_c, 0, 71, 64
2, 1029726, Note_on_c, 0, 77, 65
2, 1029750, Note_off_c, 0, 78, 64
2, 1029842, Note_on_c, 0, 68, 58
2, 1029843, Note_on_c, 0, 65, 60
2, 1029843, Note_on_c, 0, 56, 46
2, 1029848, Note_on_c, 0, 71, 72
2, 1029850, Note_on_c, 0, 61, 48
2, 1029869, Note_off_c, 0, 77, 64
2, 1029883, Note_off_c, 0, 61, 64
2, 1029886, Note_off_c, 0, 56, 64
2, 1029893, Note_off_c, 0, 65, 64
2, 1029900, Note_off_c, 0, 68, 64
2, 1029946, Note_on_c, 0, 73, 70
2, 1030000, Note_off_c, 0, 71, 64
2, 1030046, Note_on_c, 0, 76, 63
2, 1030069, Note_off_c, 0, 73, 64
2, 1030151, Note_on_c, 0, 75, 58
2, 1030172, Note_off_c, 0, 76, 64
2, 1030245, Note_on_c, 0, 74, 55
2, 1030248, Note_on_c, 0, 49, 52
2, 1030252, Note_on_c, 0, 65, 59
2, 1030252, Note_on_c, 0, 59, 58
2, 1030264, Note_off_c, 0, 75, 64
2, 1030291, Note_on_c, 0, 76, 55
2, 1030298, Note_off_c, 0, 74, 64
2, 1030344, Note_on_c, 0, 74, 58
2, 1030357, Note_off_c, 0, 49, 64
2, 1030359, Note_off_c, 0, 76, 64
2, 1030361, Note_off_c, 0, 59, 64
2, 1030361, Note_off_c, 0, 65, 64
2, 1030426, Note_on_c, 0, 73, 52
2, 1030431, Note_on_c, 0, 49, 37
2, 1030434, Note_on_c, 0, 57, 55
2, 1030436, Note_off_c, 0, 74, 64
2, 1030438, Note_on_c, 0, 65, 57
2, 1030507, Note_off_c, 0, 65, 64
2, 1030514, Note_on_c, 0, 71, 52
2, 1030515, Note_on_c, 0, 56, 54
2, 1030532, Note_off_c, 0, 73, 64
2, 1030538, Note_off_c, 0, 57, 64
2, 1030543, Note_off_c, 0, 49, 64
2, 1030615, Note_on_c, 0, 61, 54
2, 1030627, Note_on_c, 0, 42, 93
2, 1030640, Note_on_c, 0, 73, 51
2, 1030642, Note_on_c, 0, 69, 48
2, 1030655, Note_off_c, 0, 56, 64
2, 1030656, Note_off_c, 0, 71, 64
2, 1030679, Control_c, 0, 64, 0
2, 1030697, Note_off_c, 0, 61, 64
2, 1030702, Control_c, 0, 64, 127
2, 1030734, Note_on_c, 0, 49, 72
2, 1030742, Note_off_c, 0, 73, 64
2, 1030748, Note_on_c, 0, 71, 60
2, 1030751, Note_on_c, 0, 68, 67
2, 1030754, Note_off_c, 0, 42, 64
2, 1030756, Note_off_c, 0, 69, 64
2, 1030862, Note_on_c, 0, 69, 67
2, 1030864, Note_off_c, 0, 49, 64
2, 1030869, Note_off_c, 0, 68, 64
2, 1030869, Note_on_c, 0, 66, 46
2, 1030869, Note_on_c, 0, 61, 94
2, 1030881, Note_off_c, 0, 71, 64
2, 1030885, Control_c, 0, 64, 0
2, 1030914, Control_c, 0, 64, 127
2, 1031038, Note_off_c, 0, 61, 64
2, 1031074, Note_on_c, 0, 57, 69
2, 1031083, Control_c, 0, 64, 0
2, 1031104, Control_c, 0, 64, 127
2, 1031134, Note_off_c, 0, 57, 64
2, 1031218, Note_on_c, 0, 54, 74
2, 1031250, Note_off_c, 0, 54, 64
2, 1031254, Note_off_c, 0, 69, 64
2, 1031264, Control_c, 0, 64, 0
2, 1031271, Note_off_c, 0, 66, 64
2, 1031280, Note_on_c, 0, 54, 71
2, 1031288, Control_c, 0, 64, 127
2, 1031391, Note_on_c, 0, 53, 65
2, 1031462, Note_off_c, 0, 54, 64
2, 1031496, Note_on_c, 0, 57, 71
2, 1031519, Note_off_c, 0, 53, 64
2, 1031566, Control_c, 0, 64, 0
2, 1031574, Note_on_c, 0, 61, 71
2, 1031598, Control_c, 0, 64, 127
2, 1031671, Note_on_c, 0, 66, 69
2, 1031695, Note_off_c, 0, 61, 64
2, 1031729, Note_off_c, 0, 66, 64
2, 1031734, Note_off_c, 0, 57, 64
2, 1031755, Note_on_c, 0, 56, 77
2, 1031756, Note_on_c, 0, 68, 62
2, 1031756, Note_on_c, 0, 65, 63
2, 1031784, Note_off_c, 0, 65, 64
2, 1031806, Note_off_c, 0, 56, 64
2, 1031814, Note_off_c, 0, 68, 64
2, 1031837, Note_on_c, 0, 56, 70
2, 1031840, Note_on_c, 0, 65, 63
2, 1031840, Note_on_c, 0, 61, 74
2, 1031843, Note_on_c, 0, 71, 66
2, 1031868, Note_off_c, 0, 65, 64
2, 1031914, Note_off_c, 0, 71, 64
2, 1031924, Note_on_c, 0, 66, 63
2, 1031927, Note_on_c, 0, 69, 62
2, 1031939, Note_on_c, 0, 54, 74
2, 1031944, Note_off_c, 0, 56, 64
2, 1031951, Control_c, 0, 64, 0
2, 1031952, Note_off_c, 0, 66, 64
2, 1031960, Note_off_c, 0, 61, 64
2, 1031998, Control_c, 0, 64, 127
2, 1032008, Note_off_c, 0, 69, 64
2, 1032033, Note_on_c, 0, 59, 73
2, 1032042, Note_off_c, 0, 54, 64
2, 1032119, Note_on_c, 0, 62, 62
2, 1032204, Note_on_c, 0, 68, 63
2, 1032245, Note_off_c, 0, 62, 64
2, 1032262, Note_off_c, 0, 68, 64
2, 1032282, Note_on_c, 0, 57, 67
2, 1032284, Note_on_c, 0, 66, 49
2, 1032285, Note_off_c, 0, 59, 64
2, 1032286, Note_on_c, 0, 69, 64
2, 1032321, Note_off_c, 0, 69, 64
2, 1032326, Note_off_c, 0, 66, 64
2, 1032351, Note_off_c, 0, 57, 64
2, 1032363, Note_on_c, 0, 73, 73
2, 1032368, Note_on_c, 0, 55, 66
2, 1032373, Note_on_c, 0, 62, 55
2, 1032374, Note_on_c, 0, 65, 57
2, 1032378, Control_c, 0, 64, 0
2, 1032390, Control_c, 0, 64, 127
2, 1032397, Note_off_c, 0, 65, 64
2, 1032422, Note_off_c, 0, 73, 64
2, 1032451, Note_on_c, 0, 71, 64
2, 1032451, Note_on_c, 0, 56, 77
2, 1032459, Note_off_c, 0, 55, 64
2, 1032474, Control_c, 0, 64, 0
2, 1032491, Note_off_c, 0, 62, 64
2, 1032521, Control_c, 0, 64, 127
2, 1032527, Note_off_c, 0, 71, 64
2, 1032537, Note_off_c, 0, 56, 64
2, 1032537, Note_on_c, 0, 57, 69
2, 1032608, Note_off_c, 0, 57, 64
2, 1032611, Note_on_c, 0, 56, 67
2, 1032615, Note_on_c, 0, 64, 69
2, 1032677, Note_off_c, 0, 56, 64
2, 1032692, Note_on_c, 0, 69, 64
2, 1032696, Note_on_c, 0, 61, 80
2, 1032718, Note_off_c, 0, 64, 64
2, 1032739, Note_off_c, 0, 61, 64
2, 1032764, Note_on_c, 0, 68, 64
2, 1032766, Note_on_c, 0, 71, 60
2, 1032771, Note_on_c, 0, 59, 77
2, 1032782, Note_off_c, 0, 69, 64
2, 1032800, Note_off_c, 0, 68, 64
2, 1032821, Note_off_c, 0, 59, 64
2, 1032825, Note_off_c, 0, 71, 64
2, 1032851, Control_c, 0, 64, 0
2, 1032856, Note_on_c, 0, 67, 69
2, 1032857, Note_on_c, 0, 74, 70
2, 1032858, Note_on_c, 0, 64, 59
2, 1032858, Note_on_c, 0, 59, 73
2, 1032880, Control_c, 0, 64, 127
2, 1032926, Note_off_c, 0, 59, 64
2, 1032927, Note_on_c, 0, 73, 63
2, 1032935, Note_off_c, 0, 74, 64
2, 1032944, Note_on_c, 0, 58, 85
2, 1033001, Note_off_c, 0, 73, 64
2, 1033022, Note_off_c, 0, 58, 64
2, 1033027, Control_c, 0, 64, 0
2, 1033032, Note_on_c, 0, 62, 80
2, 1033069, Control_c, 0, 64, 127
2, 1033082, Note_off_c, 0, 67, 64
2, 1033084, Note_off_c, 0, 64, 64
2, 1033146, Note_on_c, 0, 71, 73
2, 1033179, Note_off_c, 0, 71, 64
2, 1033196, Note_on_c, 0, 71, 73
2, 1033276, Note_on_c, 0, 61, 73
2, 1033279, Note_on_c, 0, 70, 82
2, 1033290, Note_off_c, 0, 71, 64
2, 1033294, Note_off_c, 0, 62, 64
2, 1033303, Note_off_c, 0, 61, 64
2, 1033315, Note_off_c, 0, 70, 64
2, 1033364, Note_on_c, 0, 66, 58
2, 1033364, Note_on_c, 0, 63, 77
2, 1033367, Note_on_c, 0, 69, 71
2, 1033367, Note_on_c, 0, 61, 73
2, 1033414, Note_off_c, 0, 66, 64
2, 1033419, Note_off_c, 0, 63, 64
2, 1033449, Note_on_c, 0, 68, 74
2, 1033453, Note_off_c, 0, 61, 64
2, 1033456, Note_on_c, 0, 60, 59
2, 1033463, Note_off_c, 0, 69, 64
2, 1033488, Note_off_c, 0, 68, 64
2, 1033517, Note_off_c, 0, 60, 64
2, 1033569, Note_on_c, 0, 68, 92
2, 1033574, Control_c, 0, 64, 0
2, 1033685, Control_c, 0, 64, 127
2, 1033856, Note_on_c, 0, 66, 69
2, 1033878, Note_off_c, 0, 68, 64
2, 1033898, Note_off_c, 0, 66, 64
2, 1033941, Control_c, 0, 64, 0
2, 1033948, Note_on_c, 0, 66, 78
2, 1033957, Control_c, 0, 64, 127
2, 1033999, Note_off_c, 0, 66, 64
2, 1034094, Note_on_c, 0, 68, 77
2, 1034096, Note_on_c, 0, 65, 77
2, 1034124, Note_off_c, 0, 68, 64
2, 1034129, Note_off_c, 0, 65, 64
2, 1034154, Note_on_c, 0, 80, 77
2, 1034158, Note_on_c, 0, 68, 80
2, 1034163, Note_on_c, 0, 65, 78
2, 1034168, Control_c, 0, 64, 0
2, 1034208, Control_c, 0, 64, 127
2, 1034340, Note_off_c, 0, 80, 64
2, 1034359, Note_off_c, 0, 68, 64
2, 1034385, Note_off_c, 0, 65, 64
2, 1034478, Note_on_c, 0, 78, 73
2, 1034478, Note_on_c, 0, 72, 77
2, 1034482, Note_on_c, 0, 68, 69
2, 1034484, Note_on_c, 0, 63, 85
2, 1034518, Note_off_c, 0, 72, 64
2, 1034518, Note_off_c, 0, 78, 64
2, 1034522, Note_off_c, 0, 68, 64
2, 1034524, Note_off_c, 0, 63, 64
2, 1034539, Note_on_c, 0, 68, 73
2, 1034542, Note_on_c, 0, 72, 77
2, 1034543, Note_on_c, 0, 78, 80
2, 1034549, Note_on_c, 0, 63, 83
2, 1034553, Control_c, 0, 64, 0
2, 1034582, Control_c, 0, 64, 127
2, 1034602, Note_off_c, 0, 72, 64
2, 1034606, Note_off_c, 0, 63, 64
2, 1034612, Note_off_c, 0, 68, 64
2, 1034620, Note_off_c, 0, 78, 64
2, 1034742, Note_on_c, 0, 61, 80
2, 1034746, Note_on_c, 0, 73, 78
2, 1034750, Note_on_c, 0, 77, 69
2, 1034750, Note_on_c, 0, 68, 63
2, 1034767, Control_c, 0, 64, 127
2, 1034775, Note_off_c, 0, 61, 64
2, 1034778, Note_off_c, 0, 68, 64
2, 1034781, Note_off_c, 0, 73, 64
2, 1034785, Note_off_c, 0, 77, 64
2, 1034797, Control_c, 0, 64, 0
2, 1034804, Note_on_c, 0, 77, 77
2, 1034804, Note_on_c, 0, 68, 77
2, 1034806, Note_on_c, 0, 73, 78
2, 1034809, Note_on_c, 0, 61, 85
2, 1034835, Control_c, 0, 64, 127
2, 1034888, Note_off_c, 0, 61, 64
2, 1034893, Note_off_c, 0, 73, 64
2, 1034902, Note_off_c, 0, 68, 64
2, 1034907, Note_off_c, 0, 77, 64
2, 1035096, Note_on_c, 0, 74, 64
2, 1035096, Note_on_c, 0, 65, 56
2, 1035099, Note_on_c, 0, 59, 62
2, 1035100, Note_on_c, 0, 68, 63
2, 1035186, Note_off_c, 0, 74, 64
2, 1035194, Note_on_c, 0, 66, 70
2, 1035194, Note_on_c, 0, 57, 62
2, 1035197, Note_on_c, 0, 74, 64
2, 1035197, Note_on_c, 0, 69, 73
2, 1035214, Note_off_c, 0, 65, 64
2, 1035217, Note_off_c, 0, 59, 64
2, 1035218, Note_off_c, 0, 68, 64
2, 1035220, Control_c, 0, 64, 0
2, 1035233, Control_c, 0, 64, 127
2, 1035335, Note_off_c, 0, 66, 64
2, 1035338, Note_off_c, 0, 69, 64
2, 1035338, Note_off_c, 0, 74, 64
2, 1035344, Note_on_c, 0, 71, 37
2, 1035347, Note_on_c, 0, 76, 59
2, 1035347, Note_on_c, 0, 56, 60
2, 1035348, Note_on_c, 0, 64, 56
2, 1035356, Note_off_c, 0, 57, 64
2, 1035403, Note_on_c, 0, 74, 66
2, 1035417, Note_off_c, 0, 76, 64
2, 1035460, Note_off_c, 0, 64, 64
2, 1035475, Note_on_c, 0, 73, 73
2, 1035476, Note_on_c, 0, 69, 69
2, 1035483, Note_on_c, 0, 64, 64
2, 1035483, Note_on_c, 0, 57, 59
2, 1035486, Note_off_c, 0, 74, 64
2, 1035490, Note_off_c, 0, 71, 64
2, 1035512, Control_c, 0, 64, 0
2, 1035528, Note_off_c, 0, 56, 64
2, 1035541, Control_c, 0, 64, 127
2, 1035712, Note_off_c, 0, 73, 64
2, 1035713, Note_off_c, 0, 69, 64
2, 1035720, Note_off_c, 0, 57, 64
2, 1035720, Note_off_c, 0, 64, 64
2, 1035742, Note_on_c, 0, 51, 62
2, 1035744, Note_on_c, 0, 66, 55
2, 1035748, Note_on_c, 0, 69, 70
2, 1035749, Note_on_c, 0, 73, 64
2, 1035781, Control_c, 0, 64, 0
2, 1035833, Control_c, 0, 64, 127
2, 1035986, Note_off_c, 0, 66, 64
2, 1035990, Note_off_c, 0, 69, 64
2, 1035990, Note_on_c, 0, 71, 70
2, 1035999, Note_off_c, 0, 73, 64
2, 1036130, Note_on_c, 0, 73, 55
2, 1036136, Note_on_c, 0, 61, 69
2, 1036137, Note_off_c, 0, 71, 64
2, 1036138, Note_on_c, 0, 68, 55
2, 1036145, Note_on_c, 0, 53, 58
2, 1036155, Note_off_c, 0, 51, 64
2, 1036188, Note_on_c, 0, 71, 64
2, 1036203, Note_off_c, 0, 73, 64
2, 1036246, Note_off_c, 0, 61, 64
2, 1036263, Note_off_c, 0, 71, 64
2, 1036263, Note_off_c, 0, 68, 64
2, 1036263, Note_on_c, 0, 54, 69
2, 1036265, Note_on_c, 0, 61, 59
2, 1036270, Note_off_c, 0, 53, 64
2, 1036270, Note_on_c, 0, 69, 62
2, 1036274, Note_on_c, 0, 66, 64
2, 1036285, Control_c, 0, 64, 0
2, 1036325, Control_c, 0, 64, 127
2, 1036543, Note_on_c, 0, 67, 62
2, 1036545, Note_on_c, 0, 62, 62
2, 1036550, Note_on_c, 0, 59, 49
2, 1036550, Note_on_c, 0, 47, 47
2, 1036573, Note_off_c, 0, 54, 64
2, 1036575, Note_off_c, 0, 61, 64
2, 1036580, Note_off_c, 0, 69, 64
2, 1036584, Note_off_c, 0, 66, 64
2, 1036591, Control_c, 0, 64, 0
2, 1036628, Control_c, 0, 64, 127
2, 1036831, Note_off_c, 0, 47, 64
2, 1036838, Note_on_c, 0, 55, 46
2, 1036841, Control_c, 0, 64, 0
2, 1036852, Control_c, 0, 64, 127
2, 1036907, Note_off_c, 0, 59, 64
2, 1037018, Note_on_c, 0, 66, 62
2, 1037025, Note_on_c, 0, 48, 54
2, 1037055, Note_off_c, 0, 62, 64
2, 1037087, Note_on_c, 0, 64, 56
2, 1037106, Note_off_c, 0, 66, 64
2, 1037156, Note_on_c, 0, 52, 55
2, 1037163, Note_off_c, 0, 48, 64
2, 1037167, Note_on_c, 0, 60, 62
2, 1037176, Control_c, 0, 64, 0
2, 1037202, Note_off_c, 0, 64, 64
2, 1037222, Control_c, 0, 64, 127
2, 1037476, Note_on_c, 0, 59, 46
2, 1037483, Note_on_c, 0, 50, 49
2, 1037495, Note_off_c, 0, 52, 64
2, 1037502, Note_off_c, 0, 60, 64
2, 1037511, Control_c, 0, 64, 0
2, 1037558, Control_c, 0, 64, 127
2, 1037742, Note_off_c, 0, 67, 64
2, 1037765, Note_on_c, 0, 66, 57
2, 1037769, Note_on_c, 0, 56, 52
2, 1037781, Note_off_c, 0, 59, 64
2, 1037785, Note_off_c, 0, 55, 64
2, 1037798, Control_c, 0, 64, 0
2, 1037829, Control_c, 0, 64, 127
2, 1037927, Note_on_c, 0, 57, 57
2, 1037928, Note_on_c, 0, 60, 56
2, 1037947, Note_off_c, 0, 56, 64
2, 1038134, Note_off_c, 0, 66, 64
2, 1038154, Note_on_c, 0, 61, 46
2, 1038158, Note_on_c, 0, 69, 57
2, 1038162, Note_on_c, 0, 49, 48
2, 1038165, Note_on_c, 0, 66, 57
2, 1038176, Note_off_c, 0, 60, 64
2, 1038180, Note_off_c, 0, 50, 64
2, 1038198, Control_c, 0, 64, 0
2, 1038200, Control_c, 0, 64, 0
2, 1038201, Note_off_c, 0, 57, 64
2, 1038229, Control_c, 0, 64, 127
2, 1038251, Control_c, 0, 64, 127
2, 1038622, Note_on_c, 0, 37, 46
2, 1038628, Note_on_c, 0, 59, 40
2, 1038629, Note_on_c, 0, 68, 55
2, 1038637, Note_off_c, 0, 69, 64
2, 1038690, Note_off_c, 0, 61, 64
2, 1038704, Control_c, 0, 64, 0
2, 1038743, Control_c, 0, 64, 127
2, 1038828, Note_on_c, 0, 65, 58
2, 1038840, Note_off_c, 0, 66, 64
2, 1039044, Note_on_c, 0, 58, 47
2, 1039050, Note_on_c, 0, 66, 43
2, 1039054, Note_on_c, 0, 42, 39
2, 1039062, Note_off_c, 0, 65, 64
2, 1039072, Note_off_c, 0, 37, 64
2, 1039078, Note_off_c, 0, 59, 64
2, 1039079, Note_off_c, 0, 68, 64
2, 1039109, Control_c, 0, 64, 0
2, 1039156, Control_c, 0, 64, 127
2, 1039372, Note_off_c, 0, 58, 64
2, 1039386, Note_off_c, 0, 66, 64
2, 1039641, Note_on_c, 0, 73, 52
2, 1039699, Control_c, 0, 64, 0
2, 1039730, Control_c, 0, 64, 127
2, 1039928, Note_off_c, 0, 49, 64
2, 1039930, Note_off_c, 0, 42, 64
2, 1040287, Note_on_c, 0, 64, 47
2, 1040345, Control_c, 0, 64, 0
2, 1040364, Control_c, 0, 64, 127
2, 1040445, Note_on_c, 0, 63, 59
2, 1040468, Note_off_c, 0, 64, 64
2, 1040588, Note_on_c, 0, 65, 62
2, 1040603, Note_off_c, 0, 63, 64
2, 1040728, Note_on_c, 0, 54, 35
2, 1040729, Note_on_c, 0, 66, 57
2, 1040729, Note_on_c, 0, 47, 47
2, 1040756, Note_off_c, 0, 65, 64
2, 1040759, Control_c, 0, 64, 0
2, 1040770, Control_c, 0, 64, 127
2, 1040808, Note_off_c, 0, 73, 64
2, 1040868, Note_on_c, 0, 68, 62
2, 1040888, Note_off_c, 0, 66, 64
2, 1040987, Note_off_c, 0, 54, 64
2, 1040988, Note_off_c, 0, 47, 64
2, 1040992, Note_on_c, 0, 63, 58
2, 1040998, Note_on_c, 0, 70, 63
2, 1040998, Note_on_c, 0, 42, 47
2, 1041011, Note_on_c, 0, 54, 35
2, 1041022, Note_off_c, 0, 68, 64
2, 1041117, Note_on_c, 0, 71, 63
2, 1041130, Note_off_c, 0, 70, 64
2, 1041189, Note_off_c, 0, 63, 64
2, 1041195, Note_off_c, 0, 42, 64
2, 1041208, Note_off_c, 0, 54, 64
2, 1041227, Note_on_c, 0, 63, 57
2, 1041232, Note_on_c, 0, 54, 46
2, 1041235, Note_on_c, 0, 47, 59
2, 1041256, Control_c, 0, 64, 0
2, 1041269, Control_c, 0, 64, 127
2, 1041328, Note_on_c, 0, 73, 65
2, 1041349, Note_off_c, 0, 71, 64
2, 1041374, Note_on_c, 0, 71, 69
2, 1041394, Note_off_c, 0, 73, 64
2, 1041424, Note_off_c, 0, 63, 64
2, 1041429, Note_off_c, 0, 54, 64
2, 1041432, Note_off_c, 0, 47, 64
2, 1041442, Note_on_c, 0, 70, 71
2, 1041446, Note_on_c, 0, 49, 50
2, 1041447, Note_on_c, 0, 61, 59
2, 1041453, Note_on_c, 0, 54, 41
2, 1041462, Note_off_c, 0, 71, 64
2, 1041472, Control_c, 0, 64, 0
2, 1041482, Control_c, 0, 64, 127
2, 1041547, Note_on_c, 0, 68, 62
2, 1041563, Note_off_c, 0, 70, 64
2, 1041618, Note_off_c, 0, 49, 64
2, 1041619, Note_off_c, 0, 61, 64
2, 1041625, Note_off_c, 0, 54, 64
2, 1041635, Note_on_c, 0, 70, 59
2, 1041638, Note_off_c, 0, 68, 64
2, 1041642, Note_on_c, 0, 61, 62
2, 1041642, Note_on_c, 0, 42, 56
2, 1041648, Note_on_c, 0, 54, 44
2, 1041662, Control_c, 0, 64, 0
2, 1041674, Control_c, 0, 64, 127
2, 1041730, Note_on_c, 0, 66, 65
2, 1041754, Note_off_c, 0, 70, 64
2, 1041814, Note_off_c, 0, 42, 64
2, 1041814, Note_off_c, 0, 61, 64
2, 1041820, Note_off_c, 0, 54, 64
2, 1041830, Note_on_c, 0, 63, 65
2, 1041831, Note_on_c, 0, 54, 40
2, 1041831, Control_c, 0, 64, 0
2, 1041839, Note_on_c, 0, 47, 44
2, 1041850, Note_off_c, 0, 66, 64
2, 1041855, Control_c, 0, 64, 127
2, 1041907, Note_on_c, 0, 65, 63
2, 1041961, Note_off_c, 0, 63, 64
2, 1041962, Note_off_c, 0, 54, 64
2, 1041970, Note_off_c, 0, 47, 64
2, 1041996, Note_on_c, 0, 54, 47
2, 1042002, Note_on_c, 0, 63, 62
2, 1042005, Note_on_c, 0, 66, 77
2, 1042005, Note_on_c, 0, 47, 58
2, 1042011, Note_off_c, 0, 65, 64
2, 1042081, Note_on_c, 0, 68, 63
2, 1042111, Note_off_c, 0, 66, 64
2, 1042127, Note_off_c, 0, 54, 64
2, 1042133, Note_off_c, 0, 63, 64
2, 1042136, Note_off_c, 0, 47, 64
2, 1042160, Note_on_c, 0, 42, 56
2, 1042165, Note_on_c, 0, 63, 52
2, 1042169, Note_on_c, 0, 54, 50
2, 1042172, Note_on_c, 0, 70, 81
2, 1042192, Note_off_c, 0, 68, 64
2, 1042261, Note_on_c, 0, 71, 63
2, 1042291, Note_off_c, 0, 42, 64
2, 1042296, Note_off_c, 0, 63, 64
2, 1042298, Note_off_c, 0, 70, 64
2, 1042300, Note_off_c, 0, 54, 64
2, 1042350, Note_off_c, 0, 71, 64
2, 1042350, Note_on_c, 0, 47, 58
2, 1042352, Note_on_c, 0, 63, 65
2, 1042354, Note_on_c, 0, 54, 40
2, 1042414, Note_on_c, 0, 73, 59
2, 1042468, Note_on_c, 0, 71, 55
2, 1042481, Note_off_c, 0, 47, 64
2, 1042483, Note_off_c, 0, 63, 64
2, 1042485, Note_off_c, 0, 54, 64
2, 1042486, Note_off_c, 0, 73, 64
2, 1042517, Note_on_c, 0, 70, 74
2, 1042524, Note_on_c, 0, 54, 50
2, 1042526, Control_c, 0, 64, 0
2, 1042528, Note_on_c, 0, 61, 55
2, 1042532, Note_on_c, 0, 49, 50
2, 1042536, Control_c, 0, 64, 127
2, 1042550, Note_off_c, 0, 71, 64
2, 1042596, Note_on_c, 0, 68, 50
2, 1042618, Note_off_c, 0, 70, 64
2, 1042638, Note_off_c, 0, 54, 64
2, 1042642, Note_off_c, 0, 61, 64
2, 1042646, Note_off_c, 0, 49, 64
2, 1042658, Note_on_c, 0, 42, 51
2, 1042667, Note_on_c, 0, 61, 65
2, 1042668, Note_on_c, 0, 70, 83
2, 1042671, Note_on_c, 0, 54, 48
2, 1042688, Note_off_c, 0, 68, 64
2, 1042772, Note_off_c, 0, 42, 64
2, 1042781, Note_off_c, 0, 61, 64
2, 1042785, Note_off_c, 0, 54, 64
2, 1042788, Note_off_c, 0, 70, 64
2, 1042819, Note_on_c, 0, 63, 72
2, 1042827, Note_on_c, 0, 47, 55
2, 1042828, Note_on_c, 0, 54, 41
2, 1042887, Note_on_c, 0, 65, 62
2, 1042933, Note_off_c, 0, 63, 64
2, 1042941, Note_off_c, 0, 47, 64
2, 1042942, Note_off_c, 0, 54, 64
2, 1042964, Note_on_c, 0, 63, 59
2, 1042964, Note_on_c, 0, 54, 49
2, 1042968, Note_on_c, 0, 66, 65
2, 1042968, Note_on_c, 0, 47, 59
2, 1042977, Note_off_c, 0, 65, 64
2, 1043030, Note_on_c, 0, 68, 58
2, 1043053, Note_off_c, 0, 66, 64
2, 1043078, Note_off_c, 0, 54, 64
2, 1043078, Note_off_c, 0, 63, 64
2, 1043082, Note_off_c, 0, 47, 64
2, 1043102, Note_on_c, 0, 42, 59
2, 1043106, Note_on_c, 0, 70, 71
2, 1043106, Note_on_c, 0, 63, 56
2, 1043109, Note_on_c, 0, 54, 55
2, 1043119, Note_off_c, 0, 68, 64
2, 1043171, Note_on_c, 0, 71, 55
2, 1043216, Note_off_c, 0, 42, 64
2, 1043220, Note_off_c, 0, 63, 64
2, 1043220, Note_off_c, 0, 70, 64
2, 1043223, Note_off_c, 0, 54, 64
2, 1043244, Note_on_c, 0, 54, 58
2, 1043250, Note_on_c, 0, 63, 82
2, 1043250, Note_on_c, 0, 47, 57
2, 1043289, Note_on_c, 0, 73, 62
2, 1043316, Note_off_c, 0, 71, 64
2, 1043337, Note_on_c, 0, 71, 62
2, 1043352, Note_off_c, 0, 73, 64
2, 1043358, Note_off_c, 0, 54, 64
2, 1043364, Note_off_c, 0, 47, 64
2, 1043364, Note_off_c, 0, 63, 64
2, 1043378, Note_on_c, 0, 54, 56
2, 1043387, Note_on_c, 0, 70, 73
2, 1043387, Note_on_c, 0, 49, 42
2, 1043394, Note_on_c, 0, 61, 54
2, 1043402, Note_off_c, 0, 71, 64
2, 1043454, Note_on_c, 0, 68, 47
2, 1043464, Note_off_c, 0, 70, 64
2, 1043492, Note_off_c, 0, 54, 64
2, 1043501, Note_off_c, 0, 49, 64
2, 1043508, Note_off_c, 0, 61, 64
2, 1043515, Note_on_c, 0, 70, 74
2, 1043521, Note_on_c, 0, 42, 64
2, 1043523, Note_on_c, 0, 61, 50
2, 1043526, Note_on_c, 0, 54, 46
2, 1043527, Note_off_c, 0, 68, 64
2, 1043585, Note_on_c, 0, 66, 70
2, 1043602, Note_off_c, 0, 70, 64
2, 1043635, Note_off_c, 0, 42, 64
2, 1043637, Note_off_c, 0, 61, 64
2, 1043640, Note_off_c, 0, 54, 64
2, 1043649, Note_on_c, 0, 54, 50
2, 1043649, Note_on_c, 0, 47, 58
2, 1043655, Note_on_c, 0, 63, 73
2, 1043668, Note_off_c, 0, 66, 64
2, 1043718, Note_on_c, 0, 65, 60
2, 1043743, Note_off_c, 0, 47, 64
2, 1043743, Note_off_c, 0, 54, 64
2, 1043749, Note_off_c, 0, 63, 64
2, 1043774, Control_c, 0, 64, 0
2, 1043780, Note_on_c, 0, 54, 57
2, 1043780, Note_on_c, 0, 47, 62
2, 1043784, Note_on_c, 0, 63, 59
2, 1043788, Note_on_c, 0, 66, 56
2, 1043794, Control_c, 0, 64, 127
2, 1043800, Note_off_c, 0, 65, 64
2, 1043842, Note_on_c, 0, 68, 57
2, 1043862, Note_off_c, 0, 66, 64
2, 1043874, Note_off_c, 0, 47, 64
2, 1043874, Note_off_c, 0, 54, 64
2, 1043878, Note_off_c, 0, 63, 64
2, 1043911, Note_on_c, 0, 63, 50
2, 1043914, Note_on_c, 0, 70, 65
2, 1043918, Note_on_c, 0, 54, 48
2, 1043918, Note_on_c, 0, 42, 73
2, 1043934, Note_off_c, 0, 68, 64
2, 1043977, Note_on_c, 0, 71, 52
2, 1044005, Note_off_c, 0, 63, 64
2, 1044012, Note_off_c, 0, 42, 64
2, 1044012, Note_off_c, 0, 54, 64
2, 1044021, Note_off_c, 0, 70, 64
2, 1044027, Control_c, 0, 64, 0
2, 1044039, Control_c, 0, 64, 127
2, 1044046, Note_on_c, 0, 63, 72
2, 1044052, Note_on_c, 0, 54, 59
2, 1044055, Note_on_c, 0, 47, 62
2, 1044083, Note_on_c, 0, 73, 63
2, 1044095, Note_off_c, 0, 71, 64
2, 1044133, Note_on_c, 0, 71, 55
2, 1044140, Note_off_c, 0, 63, 64
2, 1044146, Note_off_c, 0, 54, 64
2, 1044149, Note_off_c, 0, 47, 64
2, 1044152, Note_off_c, 0, 73, 64
2, 1044165, Note_on_c, 0, 54, 58
2, 1044180, Note_on_c, 0, 61, 56
2, 1044180, Note_on_c, 0, 49, 36
2, 1044186, Note_on_c, 0, 70, 47
2, 1044196, Note_off_c, 0, 71, 64
2, 1044239, Note_on_c, 0, 68, 69
2, 1044250, Note_off_c, 0, 70, 64
2, 1044259, Note_off_c, 0, 54, 64
2, 1044274, Note_off_c, 0, 49, 64
2, 1044274, Note_off_c, 0, 61, 64
2, 1044288, Control_c, 0, 64, 0
2, 1044294, Note_on_c, 0, 70, 71
2, 1044297, Note_on_c, 0, 61, 50
2, 1044300, Note_on_c, 0, 42, 66
2, 1044306, Note_off_c, 0, 68, 64
2, 1044308, Control_c, 0, 64, 127
2, 1044313, Note_on_c, 0, 54, 50
2, 1044362, Note_on_c, 0, 66, 56
2, 1044373, Note_off_c, 0, 70, 64
2, 1044391, Note_off_c, 0, 61, 64
2, 1044394, Note_off_c, 0, 42, 64
2, 1044407, Note_off_c, 0, 54, 64
2, 1044409, Control_c, 0, 64, 0
2, 1044423, Note_on_c, 0, 63, 58
2, 1044423, Note_on_c, 0, 70, 69
2, 1044423, Control_c, 0, 64, 127
2, 1044429, Note_off_c, 0, 66, 64
2, 1044432, Note_on_c, 0, 54, 43
2, 1044432, Note_on_c, 0, 47, 50
2, 1044479, Note_on_c, 0, 68, 43
2, 1044487, Note_off_c, 0, 70, 64
2, 1044517, Note_off_c, 0, 63, 64
2, 1044526, Note_off_c, 0, 47, 64
2, 1044526, Note_off_c, 0, 54, 64
2, 1044539, Note_on_c, 0, 70, 69
2, 1044539, Note_on_c, 0, 61, 55
2, 1044545, Note_on_c, 0, 42, 50
2, 1044551, Note_off_c, 0, 68, 64
2, 1044558, Note_on_c, 0, 54, 43
2, 1044604, Note_on_c, 0, 66, 43
2, 1044617, Note_off_c, 0, 70, 64
2, 1044633, Note_off_c, 0, 61, 64
2, 1044639, Note_off_c, 0, 42, 64
2, 1044652, Note_off_c, 0, 54, 64
2, 1044666, Note_on_c, 0, 63, 58
2, 1044667, Note_on_c, 0, 70, 69
2, 1044678, Note_on_c, 0, 54, 57
2, 1044679, Note_off_c, 0, 66, 64
2, 1044680, Note_on_c, 0, 47, 59
2, 1044717, Note_on_c, 0, 68, 80
2, 1044732, Note_off_c, 0, 70, 64
2, 1044760, Note_off_c, 0, 63, 64
2, 1044772, Note_off_c, 0, 54, 64
2, 1044774, Note_off_c, 0, 47, 64
2, 1044780, Note_on_c, 0, 70, 73
2, 1044787, Note_on_c, 0, 61, 58
2, 1044793, Note_on_c, 0, 42, 57
2, 1044795, Note_off_c, 0, 68, 64
2, 1044804, Note_on_c, 0, 54, 47
2, 1044834, Note_on_c, 0, 66, 77
2, 1044851, Note_off_c, 0, 70, 64
2, 1044880, Control_c, 0, 64, 0
2, 1044881, Note_off_c, 0, 61, 64
2, 1044887, Note_off_c, 0, 42, 64
2, 1044898, Note_off_c, 0, 54, 64
2, 1044903, Control_c, 0, 64, 127
2, 1044909, Note_on_c, 0, 70, 72
2, 1044909, Note_on_c, 0, 63, 59
2, 1044915, Note_on_c, 0, 47, 55
2, 1044918, Note_on_c, 0, 54, 55
2, 1044931, Note_off_c, 0, 66, 64
2, 1044955, Note_on_c, 0, 68, 81
2, 1044965, Note_off_c, 0, 70, 64
2, 1044991, Control_c, 0, 64, 0
2, 1045003, Note_off_c, 0, 63, 64
2, 1045004, Control_c, 0, 64, 127
2, 1045009, Note_off_c, 0, 47, 64
2, 1045012, Note_off_c, 0, 54, 64
2, 1045018, Note_on_c, 0, 61, 58
2, 1045021, Note_on_c, 0, 70, 73
2, 1045024, Note_on_c, 0, 42, 64
2, 1045033, Note_on_c, 0, 54, 55
2, 1045041, Note_off_c, 0, 68, 64
2, 1045069, Note_on_c, 0, 66, 82
2, 1045081, Note_off_c, 0, 70, 64
2, 1045112, Note_off_c, 0, 61, 64
2, 1045118, Note_off_c, 0, 42, 64
2, 1045127, Note_off_c, 0, 54, 64
2, 1045135, Note_on_c, 0, 63, 57
2, 1045138, Note_on_c, 0, 70, 75
2, 1045143, Note_on_c, 0, 47, 58
2, 1045148, Note_on_c, 0, 54, 59
2, 1045163, Note_off_c, 0, 66, 64
2, 1045188, Note_on_c, 0, 68, 64
2, 1045201, Note_off_c, 0, 70, 64
2, 1045218, Control_c, 0, 64, 0
2, 1045229, Note_off_c, 0, 63, 64
2, 1045230, Control_c, 0, 64, 127
2, 1045237, Note_off_c, 0, 47, 64
2, 1045242, Note_off_c, 0, 54, 64
2, 1045250, Note_on_c, 0, 61, 62
2, 1045250, Note_on_c, 0, 42, 64
2, 1045258, Note_on_c, 0, 54, 59
2, 1045259, Note_on_c, 0, 70, 73
2, 1045269, Note_off_c, 0, 68, 64
2, 1045306, Note_on_c, 0, 66, 65
2, 1045322, Control_c, 0, 64, 0
2, 1045323, Note_off_c, 0, 70, 64
2, 1045342, Control_c, 0, 64, 127
2, 1045344, Note_off_c, 0, 42, 64
2, 1045344, Note_off_c, 0, 61, 64
2, 1045352, Note_off_c, 0, 54, 64
2, 1045359, Note_on_c, 0, 47, 49
2, 1045363, Note_on_c, 0, 54, 63
2, 1045367, Note_on_c, 0, 63, 58
2, 1045370, Note_on_c, 0, 70, 75
2, 1045386, Note_off_c, 0, 66, 64
2, 1045420, Note_on_c, 0, 68, 60
2, 1045434, Note_off_c, 0, 70, 64
2, 1045443, Control_c, 0, 64, 0
2, 1045453, Note_off_c, 0, 47, 64
2, 1045457, Note_off_c, 0, 54, 64
2, 1045460, Control_c, 0, 64, 127
2, 1045461, Note_off_c, 0, 63, 64
2, 1045479, Note_on_c, 0, 42, 67
2, 1045480, Note_on_c, 0, 61, 59
2, 1045483, Note_on_c, 0, 54, 60
2, 1045485, Note_on_c, 0, 70, 70
2, 1045505, Note_off_c, 0, 68, 64
2, 1045533, Note_on_c, 0, 66, 60
2, 1045544, Note_off_c, 0, 70, 64
2, 1045562, Control_c, 0, 64, 0
2, 1045573, Note_off_c, 0, 42, 64
2, 1045574, Note_off_c, 0, 61, 64
2, 1045577, Note_off_c, 0, 54, 64
2, 1045583, Control_c, 0, 64, 127
2, 1045590, Note_on_c, 0, 47, 59
2, 1045596, Note_on_c, 0, 63, 59
2, 1045596, Note_on_c, 0, 54, 66
2, 1045602, Note_on_c, 0, 70, 73
2, 1045615, Note_off_c, 0, 66, 64
2, 1045655, Note_on_c, 0, 68, 57
2, 1045665, Note_off_c, 0, 70, 64
2, 1045674, Control_c, 0, 64, 0
2, 1045684, Note_off_c, 0, 47, 64
2, 1045690, Note_off_c, 0, 54, 64
2, 1045690, Note_off_c, 0, 63, 64
2, 1045695, Control_c, 0, 64, 127
2, 1045726, Note_on_c, 0, 70, 87
2, 1045726, Note_on_c, 0, 61, 75
2, 1045726, Note_on_c, 0, 54, 86
2, 1045733, Note_on_c, 0, 42, 80
2, 1045738, Note_off_c, 0, 68, 64
2, 1045826, Note_off_c, 0, 61, 64
2, 1045842, Note_off_c, 0, 70, 64
2, 1045852, Note_off_c, 0, 54, 64
2, 1045861, Note_off_c, 0, 42, 64
2, 1045935, Control_c, 0, 64, 0
2, 1046153, Note_on_c, 0, 37, 83
2, 1046213, Control_c, 0, 64, 127
2, 1046306, Note_on_c, 0, 63, 64
2, 1046333, Note_off_c, 0, 63, 64
2, 1046344, Control_c, 0, 64, 0
2, 1046356, Control_c, 0, 64, 127
2, 1046361, Note_on_c, 0, 63, 82
2, 1046529, Note_off_c, 0, 37, 64
2, 1046571, Note_on_c, 0, 37, 52
2, 1046575, Note_on_c, 0, 49, 50
2, 1046580, Note_on_c, 0, 59, 55
2, 1046580, Note_on_c, 0, 53, 55
2, 1046584, Control_c, 0, 64, 0
2, 1046603, Control_c, 0, 64, 127
2, 1046669, Note_off_c, 0, 63, 64
2, 1046670, Note_on_c, 0, 65, 73
2, 1046744, Note_off_c, 0, 65, 64
2, 1046752, Note_off_c, 0, 37, 64
2, 1046756, Note_off_c, 0, 49, 64
2, 1046761, Note_off_c, 0, 53, 64
2, 1046761, Note_off_c, 0, 59, 64
2, 1046761, Note_on_c, 0, 65, 86
2, 1046762, Note_on_c, 0, 58, 63
2, 1046764, Note_on_c, 0, 54, 55
2, 1046768, Note_on_c, 0, 49, 50
2, 1046770, Note_on_c, 0, 42, 47
2, 1046783, Control_c, 0, 64, 0
2, 1046841, Control_c, 0, 64, 127
2, 1046894, Note_off_c, 0, 65, 64
2, 1046904, Note_on_c, 0, 66, 69
2, 1046934, Note_off_c, 0, 66, 64
2, 1046945, Control_c, 0, 64, 0
2, 1046957, Note_on_c, 0, 66, 73
2, 1046978, Control_c, 0, 64, 127
2, 1047001, Note_off_c, 0, 58, 64
2, 1047003, Note_off_c, 0, 54, 64
2, 1047007, Note_off_c, 0, 49, 64
2, 1047009, Note_off_c, 0, 42, 64
2, 1047116, Note_on_c, 0, 49, 46
2, 1047124, Note_on_c, 0, 54, 55
2, 1047124, Note_on_c, 0, 37, 52
2, 1047130, Note_on_c, 0, 58, 55
2, 1047235, Note_on_c, 0, 65, 63
2, 1047244, Note_off_c, 0, 66, 64
2, 1047302, Note_on_c, 0, 63, 72
2, 1047312, Note_off_c, 0, 65, 64
2, 1047324, Note_off_c, 0, 49, 64
2, 1047333, Note_on_c, 0, 65, 62
2, 1047340, Note_off_c, 0, 63, 64
2, 1047356, Note_on_c, 0, 49, 32
2, 1047357, Note_on_c, 0, 53, 49
2, 1047357, Control_c, 0, 64, 0
2, 1047363, Note_off_c, 0, 37, 64
2, 1047363, Note_off_c, 0, 54, 64
2, 1047364, Note_on_c, 0, 63, 73
2, 1047364, Note_on_c, 0, 59, 41
2, 1047364, Note_on_c, 0, 44, 32
2, 1047365, Control_c, 0, 64, 0
2, 1047369, Note_off_c, 0, 58, 64
2, 1047380, Control_c, 0, 64, 127
2, 1047388, Control_c, 0, 64, 127
2, 1047392, Note_off_c, 0, 65, 64
2, 1047412, Note_off_c, 0, 63, 64
2, 1047454, Note_on_c, 0, 61, 73
2, 1047462, Note_on_c, 0, 61, 73
2, 1047494, Note_off_c, 0, 49, 64
2, 1047495, Note_off_c, 0, 53, 64
2, 1047502, Note_off_c, 0, 44, 64
2, 1047502, Note_off_c, 0, 59, 64
2, 1047544, Control_c, 0, 64, 0
2, 1047551, Note_off_c, 0, 61, 64
2, 1047552, Note_on_c, 0, 63, 78
2, 1047559, Note_off_c, 0, 61, 64
2, 1047576, Control_c, 0, 64, 127
2, 1047741, Control_c, 0, 64, 0
2, 1047748, Note_on_c, 0, 53, 49
2, 1047749, Note_on_c, 0, 49, 49
2, 1047749, Note_on_c, 0, 37, 50
2, 1047753, Note_on_c, 0, 59, 52
2, 1047764, Control_c, 0, 64, 127
2, 1047765, Control_c, 0, 64, 0
2, 1047794, Control_c, 0, 64, 127
2, 1047854, Note_on_c, 0, 65, 55
2, 1047884, Note_off_c, 0, 63, 64
2, 1047930, Note_off_c, 0, 49, 64
2, 1047940, Note_on_c, 0, 54, 55
2, 1047940, Note_on_c, 0, 49, 55
2, 1047942, Note_on_c, 0, 58, 62
2, 1047946, Note_on_c, 0, 42, 55
2, 1047949, Note_on_c, 0, 66, 77
2, 1047955, Control_c, 0, 64, 0
2, 1047956, Note_off_c, 0, 53, 64
2, 1047957, Note_off_c, 0, 37, 64
2, 1047958, Control_c, 0, 64, 127
2, 1047961, Note_off_c, 0, 59, 64
2, 1047966, Note_off_c, 0, 65, 64
2, 1047998, Control_c, 0, 64, 127
2, 1048078, Note_off_c, 0, 49, 64
2, 1048078, Note_off_c, 0, 54, 64
2, 1048080, Note_off_c, 0, 58, 64
2, 1048084, Note_off_c, 0, 42, 64
2, 1048154, Note_on_c, 0, 63, 73
2, 1048154, Control_c, 0, 64, 0
2, 1048176, Note_off_c, 0, 66, 64
2, 1048186, Control_c, 0, 64, 127
2, 1048359, Control_c, 0, 64, 0
2, 1048364, Note_on_c, 0, 58, 62
2, 1048364, Note_on_c, 0, 54, 55
2, 1048367, Note_on_c, 0, 42, 48
2, 1048368, Note_on_c, 0, 49, 46
2, 1048382, Control_c, 0, 64, 127
2, 1048394, Control_c, 0, 64, 127
2, 1048545, Note_off_c, 0, 54, 64
2, 1048545, Note_off_c, 0, 58, 64
2, 1048548, Note_off_c, 0, 42, 64
2, 1048549, Note_off_c, 0, 49, 64
2, 1048565, Note_on_c, 0, 49, 52
2, 1048568, Note_on_c, 0, 37, 55
2, 1048572, Note_on_c, 0, 59, 62
2, 1048572, Note_on_c, 0, 53, 55
2, 1048577, Control_c, 0, 64, 0
2, 1048590, Control_c, 0, 64, 127
2, 1048618, Control_c, 0, 64, 127
2, 1048694, Note_off_c, 0, 63, 64
2, 1048708, Note_on_c, 0, 63, 74
2, 1048731, Note_off_c, 0, 63, 64
2, 1048747, Note_off_c, 0, 59, 64
2, 1048758, Note_off_c, 0, 37, 64
2, 1048764, Note_on_c, 0, 63, 74
2, 1048768, Note_off_c, 0, 49, 64
2, 1048770, Control_c, 0, 64, 0
2, 1048775, Note_off_c, 0, 53, 64
2, 1048793, Control_c, 0, 64, 127
2, 1048948, Note_on_c, 0, 53, 55
2, 1048948, Note_on_c, 0, 49, 46
2, 1048951, Note_on_c, 0, 59, 49
2, 1048957, Note_on_c, 0, 37, 48
2, 1048966, Control_c, 0, 64, 127
2, 1048973, Control_c, 0, 64, 0
2, 1048993, Control_c, 0, 64, 127
2, 1049056, Note_on_c, 0, 65, 64
2, 1049082, Note_off_c, 0, 63, 64
2, 1049086, Note_off_c, 0, 49, 64
2, 1049086, Note_off_c, 0, 53, 64
2, 1049089, Note_off_c, 0, 59, 64
2, 1049095, Note_off_c, 0, 37, 64
2, 1049148, Note_on_c, 0, 53, 55
2, 1049150, Note_on_c, 0, 68, 71
2, 1049154, Note_on_c, 0, 58, 59
2, 1049156, Note_on_c, 0, 38, 50
2, 1049160, Note_on_c, 0, 50, 52
2, 1049164, Control_c, 0, 64, 0
2, 1049166, Control_c, 0, 64, 127
2, 1049182, Note_off_c, 0, 65, 64
2, 1049185, Control_c, 0, 64, 127
2, 1049290, Note_on_c, 0, 66, 55
2, 1049305, Note_off_c, 0, 68, 64
2, 1049308, Note_off_c, 0, 53, 64
2, 1049314, Note_off_c, 0, 66, 64
2, 1049314, Note_off_c, 0, 58, 64
2, 1049316, Note_off_c, 0, 38, 64
2, 1049320, Note_off_c, 0, 50, 64
2, 1049340, Note_on_c, 0, 51, 55
2, 1049343, Note_on_c, 0, 66, 73
2, 1049352, Note_on_c, 0, 58, 65
2, 1049355, Note_on_c, 0, 54, 62
2, 1049360, Note_on_c, 0, 39, 51
2, 1049363, Control_c, 0, 64, 0
2, 1049374, Control_c, 0, 64, 127
2, 1049386, Control_c, 0, 64, 127
2, 1049500, Note_off_c, 0, 51, 64
2, 1049512, Note_off_c, 0, 58, 64
2, 1049515, Note_off_c, 0, 54, 64
2, 1049520, Note_off_c, 0, 39, 64
2, 1049548, Note_on_c, 0, 34, 57
2, 1049552, Control_c, 0, 64, 0
2, 1049556, Note_on_c, 0, 46, 57
2, 1049558, Note_on_c, 0, 61, 57
2, 1049558, Note_on_c, 0, 54, 59
2, 1049579, Control_c, 0, 64, 127
2, 1049641, Note_on_c, 0, 65, 64
2, 1049662, Note_off_c, 0, 66, 64
2, 1049708, Note_off_c, 0, 34, 64
2, 1049716, Note_off_c, 0, 46, 64
2, 1049718, Note_off_c, 0, 54, 64
2, 1049718, Note_off_c, 0, 61, 64
2, 1049731, Note_off_c, 0, 65, 64
2, 1049732, Note_on_c, 0, 63, 71
2, 1049752, Note_on_c, 0, 65, 63
2, 1049764, Note_off_c, 0, 63, 64
2, 1049784, Note_on_c, 0, 56, 56
2, 1049788, Note_on_c, 0, 54, 56
2, 1049788, Note_on_c, 0, 35, 56
2, 1049789, Note_on_c, 0, 63, 73
2, 1049796, Note_on_c, 0, 47, 56
2, 1049797, Control_c, 0, 64, 0
2, 1049803, Control_c, 0, 64, 127
2, 1049820, Note_off_c, 0, 65, 64
2, 1049827, Control_c, 0, 64, 127
2, 1049902, Note_on_c, 0, 61, 62
2, 1049913, Note_off_c, 0, 63, 64
2, 1049944, Note_off_c, 0, 56, 64
2, 1049948, Note_off_c, 0, 54, 64
2, 1049988, Note_on_c, 0, 44, 58
2, 1049988, Note_on_c, 0, 32, 58
2, 1049992, Note_on_c, 0, 54, 56
2, 1049996, Note_on_c, 0, 59, 56
2, 1049999, Note_on_c, 0, 63, 78
2, 1050014, Note_off_c, 0, 61, 64
2, 1050015, Control_c, 0, 64, 127
2, 1050017, Control_c, 0, 64, 0
2, 1050039, Note_off_c, 0, 35, 64
2, 1050047, Note_off_c, 0, 47, 64
2, 1050047, Control_c, 0, 64, 127
2, 1050152, Note_off_c, 0, 54, 64
2, 1050156, Note_off_c, 0, 59, 64
2, 1050220, Control_c, 0, 64, 127
2, 1050225, Note_off_c, 0, 32, 64
2, 1050225, Note_off_c, 0, 44, 64
2, 1050233, Note_on_c, 0, 59, 58
2, 1050236, Note_on_c, 0, 53, 56
2, 1050236, Note_on_c, 0, 37, 69
2, 1050236, Note_on_c, 0, 25, 69
2, 1050238, Note_on_c, 0, 65, 86
2, 1050247, Control_c, 0, 64, 0
2, 1050260, Control_c, 0, 64, 127
2, 1050261, Note_off_c, 0, 63, 64
2, 1050393, Note_off_c, 0, 59, 64
2, 1050396, Note_off_c, 0, 25, 64
2, 1050396, Note_off_c, 0, 37, 64
2, 1050396, Note_off_c, 0, 53, 64
2, 1050482, Note_on_c, 0, 68, 73
2, 1050484, Note_on_c, 0, 53, 56
2, 1050486, Note_on_c, 0, 59, 56
2, 1050486, Note_on_c, 0, 25, 69
2, 1050494, Note_off_c, 0, 65, 64
2, 1050494, Note_on_c, 0, 37, 78
2, 1050501, Control_c, 0, 64, 0
2, 1050531, Control_c, 0, 64, 127
2, 1050644, Note_off_c, 0, 53, 64
2, 1050646, Note_off_c, 0, 25, 64
2, 1050646, Note_off_c, 0, 59, 64
2, 1050654, Note_off_c, 0, 37, 64
2, 1050785, Note_on_c, 0, 66, 71
2, 1050789, Note_off_c, 0, 68, 64
2, 1050821, Note_off_c, 0, 66, 64
2, 1050845, Note_on_c, 0, 66, 79
2, 1050848, Note_on_c, 0, 54, 62
2, 1050848, Note_on_c, 0, 30, 55
2, 1050851, Note_on_c, 0, 58, 62
2, 1050851, Note_on_c, 0, 42, 62
2, 1050871, Control_c, 0, 64, 0
2, 1050920, Control_c, 0, 64, 0
2, 1050952, Control_c, 0, 64, 127
2, 1051068, Control_c, 0, 64, 127
2, 1051165, Note_off_c, 0, 66, 64
2, 1051168, Note_off_c, 0, 30, 64
2, 1051168, Note_off_c, 0, 54, 64
2, 1051168, Control_c, 0, 64, 0
2, 1051171, Note_off_c, 0, 42, 64
2, 1051171, Note_off_c, 0, 58, 64
2, 1051315, Control_c, 0, 64, 0
2, 1051315, End_track
3, 0, Start_track
3, 0, Title_t, "Played by Dr. Ron Lubetsky"
3, 0, End_track
4, 0, Start_track
4, 0, Title_t, "Copyright  1998 "
4, 0, End_track
5, 0, Start_track
5, 0, Title_t, "email: drlubetsky@aol.com"
5, 0, End_track
0, 0, End_of_file
