0, 0, Header, 0, 1, 480
1, 0, Start_track
1, 0, SMPTE_offset, 96, 0, 0, 0, 0
1, 0, Time_signature, 4, 2, 24, 8
1, 0, Key_signature, 0, "major"
1, 0, Tempo, 500000
1, 0, Note_on_c, 0, 25, 85
1, 2, Note_on_c, 0, 37, 72
1, 278, Control_c, 0, 64, 127
1, 504, Note_off_c, 0, 25, 64
1, 572, Note_off_c, 0, 37, 64
1, 1372, Note_on_c, 0, 80, 94
1, 1384, Note_on_c, 0, 75, 65
1, 1390, Note_on_c, 0, 71, 88
1, 2740, Note_on_c, 0, 68, 40
1, 2898, Note_off_c, 0, 71, 64
1, 3172, Note_off_c, 0, 68, 64
1, 3190, Note_on_c, 0, 61, 39
1, 3190, Note_on_c, 0, 77, 58
1, 3238, Note_off_c, 0, 75, 64
1, 3558, Note_on_c, 0, 73, 54
1, 3568, Note_on_c, 0, 70, 29
1, 3614, Note_off_c, 0, 77, 64
1, 3838, Note_off_c, 0, 61, 64
1, 3888, Note_on_c, 0, 78, 78
1, 3894, Note_on_c, 0, 75, 53
1, 3910, Note_off_c, 0, 70, 64
1, 3920, Note_on_c, 0, 66, 36
1, 3940, Note_off_c, 0, 73, 64
1, 3970, Note_off_c, 0, 80, 64
1, 4174, Note_on_c, 0, 80, 83
1, 4182, Note_on_c, 0, 70, 55
1, 4194, Note_on_c, 0, 61, 31
1, 4197, Note_off_c, 0, 66, 64
1, 4204, Note_off_c, 0, 78, 64
1, 4252, Note_off_c, 0, 75, 64
1, 4348, Note_off_c, 0, 70, 64
1, 4434, Note_on_c, 0, 68, 41
1, 4440, Note_on_c, 0, 78, 78
1, 4450, Note_on_c, 0, 71, 62
1, 4488, Control_c, 0, 64, 0
1, 4536, Note_off_c, 0, 80, 64
1, 4626, Control_c, 0, 64, 127
1, 4682, Note_off_c, 0, 71, 64
1, 4696, Note_off_c, 0, 68, 64
1, 4707, Note_on_c, 0, 77, 87
1, 4720, Note_on_c, 0, 73, 46
1, 4748, Note_off_c, 0, 78, 64
1, 4800, Note_off_c, 0, 61, 64
1, 4962, Note_on_c, 0, 68, 53
1, 4967, Note_on_c, 0, 78, 80
1, 4972, Note_off_c, 0, 77, 64
1, 4984, Note_on_c, 0, 49, 48
1, 5016, Note_off_c, 0, 73, 64
1, 5038, Note_off_c, 0, 68, 64
1, 5044, Note_off_c, 0, 49, 64
1, 5268, Note_on_c, 0, 70, 46
1, 5271, Note_on_c, 0, 75, 69
1, 5278, Note_on_c, 0, 66, 32
1, 5360, Note_off_c, 0, 78, 64
1, 5362, Control_c, 0, 64, 0
1, 5516, Control_c, 0, 64, 127
1, 5590, Note_on_c, 0, 71, 62
1, 5608, Note_on_c, 0, 63, 31
1, 5618, Note_off_c, 0, 70, 64
1, 5626, Note_off_c, 0, 66, 64
1, 5668, Note_off_c, 0, 63, 64
1, 5848, Note_off_c, 0, 71, 64
1, 5882, Note_on_c, 0, 77, 78
1, 5882, Note_on_c, 0, 66, 39
1, 5904, Note_on_c, 0, 49, 45
1, 5940, Note_off_c, 0, 75, 64
1, 5962, Note_off_c, 0, 49, 64
1, 5982, Note_off_c, 0, 66, 64
1, 6158, Note_on_c, 0, 75, 72
1, 6166, Note_on_c, 0, 68, 48
1, 6174, Note_on_c, 0, 65, 45
1, 6226, Note_off_c, 0, 77, 64
1, 6238, Control_c, 0, 64, 0
1, 6378, Control_c, 0, 64, 127
1, 6408, Note_off_c, 0, 65, 64
1, 6426, Note_on_c, 0, 73, 65
1, 6434, Note_on_c, 0, 70, 46
1, 6448, Note_off_c, 0, 68, 64
1, 6452, Note_on_c, 0, 61, 34
1, 6474, Note_off_c, 0, 75, 64
1, 6512, Note_off_c, 0, 61, 64
1, 6686, Note_on_c, 0, 75, 72
1, 6688, Note_off_c, 0, 73, 64
1, 6691, Note_off_c, 0, 70, 64
1, 6698, Note_on_c, 0, 65, 51
1, 6698, Note_on_c, 0, 49, 43
1, 6754, Note_off_c, 0, 65, 64
1, 6758, Note_off_c, 0, 49, 64
1, 6964, Note_on_c, 0, 71, 80
1, 6967, Note_off_c, 0, 75, 64
1, 6976, Note_on_c, 0, 66, 39
1, 6982, Note_on_c, 0, 63, 41
1, 7008, Control_c, 0, 64, 0
1, 7176, Control_c, 0, 64, 127
1, 7242, Note_off_c, 0, 66, 64
1, 7254, Note_on_c, 0, 75, 64
1, 7262, Note_off_c, 0, 63, 64
1, 7268, Note_on_c, 0, 68, 36
1, 7286, Note_off_c, 0, 71, 64
1, 7310, Note_on_c, 0, 59, 8
1, 7342, Note_off_c, 0, 68, 64
1, 7360, Note_off_c, 0, 59, 64
1, 7536, Note_on_c, 0, 63, 40
1, 7541, Note_on_c, 0, 73, 55
1, 7544, Note_on_c, 0, 49, 34
1, 7562, Note_off_c, 0, 75, 64
1, 7628, Note_off_c, 0, 63, 64
1, 7676, Note_off_c, 0, 73, 64
1, 7822, Control_c, 0, 64, 0
1, 7825, Note_on_c, 0, 71, 57
1, 7836, Note_on_c, 0, 65, 39
1, 7844, Note_on_c, 0, 61, 32
1, 8022, Control_c, 0, 64, 127
1, 8044, Note_off_c, 0, 65, 64
1, 8056, Note_off_c, 0, 49, 64
1, 8058, Note_off_c, 0, 61, 64
1, 8128, Note_off_c, 0, 71, 64
1, 8140, Note_on_c, 0, 70, 46
1, 8166, Note_on_c, 0, 66, 34
1, 8169, Note_on_c, 0, 58, 25
1, 8236, Note_off_c, 0, 58, 64
1, 8482, Control_c, 0, 64, 0
1, 8488, Note_on_c, 0, 71, 57
1, 8498, Note_off_c, 0, 70, 64
1, 8504, Note_on_c, 0, 61, 29
1, 8510, Note_off_c, 0, 66, 64
1, 8520, Note_on_c, 0, 37, 29
1, 8648, Note_off_c, 0, 61, 64
1, 8660, Note_off_c, 0, 37, 64
1, 8666, Control_c, 0, 64, 127
1, 8844, Note_on_c, 0, 68, 41
1, 8850, Note_off_c, 0, 71, 64
1, 8856, Note_on_c, 0, 63, 29
1, 8904, Note_on_c, 0, 59, 14
1, 9250, Note_off_c, 0, 63, 64
1, 9266, Control_c, 0, 64, 0
1, 9284, Note_on_c, 0, 56, 23
1, 9286, Note_on_c, 0, 71, 42
1, 9308, Note_on_c, 0, 65, 19
1, 9320, Note_off_c, 0, 68, 64
1, 9428, Note_off_c, 0, 59, 64
1, 9506, Note_off_c, 0, 56, 64
1, 9512, Control_c, 0, 64, 127
1, 9638, Note_off_c, 0, 65, 64
1, 9974, Note_on_c, 0, 70, 22
1, 10030, Note_on_c, 0, 59, 14
1, 10034, Note_on_c, 0, 37, 11
1, 10060, Note_off_c, 0, 71, 64
1, 10198, Note_off_c, 0, 37, 64
1, 10658, Note_off_c, 0, 59, 64
1, 11378, Note_off_c, 0, 70, 64
1, 11418, Control_c, 0, 64, 0
1, 12534, Note_on_c, 0, 42, 21
1, 12876, Note_on_c, 0, 49, 32
1, 12878, Control_c, 0, 64, 127
1, 12922, Note_off_c, 0, 42, 64
1, 13146, Note_off_c, 0, 49, 64
1, 13154, Note_on_c, 0, 56, 41
1, 13456, Note_off_c, 0, 56, 64
1, 13464, Note_on_c, 0, 54, 52
1, 13616, Note_on_c, 0, 56, 43
1, 13622, Note_off_c, 0, 54, 64
1, 13706, Control_c, 0, 64, 0
1, 13772, Note_off_c, 0, 56, 64
1, 13774, Note_on_c, 0, 58, 29
1, 14092, Control_c, 0, 64, 127
1, 14092, Note_on_c, 0, 49, 35
1, 14136, Note_off_c, 0, 58, 64
1, 14374, Note_off_c, 0, 49, 64
1, 14396, Note_on_c, 0, 42, 41
1, 14536, Control_c, 0, 64, 0
1, 14720, Note_on_c, 0, 49, 33
1, 14790, Note_off_c, 0, 42, 64
1, 14798, Control_c, 0, 64, 127
1, 14992, Note_off_c, 0, 49, 64
1, 15012, Note_on_c, 0, 56, 35
1, 15326, Note_off_c, 0, 56, 64
1, 15348, Note_on_c, 0, 54, 43
1, 15382, Control_c, 0, 64, 0
1, 15496, Note_on_c, 0, 56, 34
1, 15532, Note_off_c, 0, 54, 64
1, 15580, Control_c, 0, 64, 127
1, 15612, Control_c, 0, 64, 0
1, 15672, Note_on_c, 0, 58, 33
1, 15696, Note_off_c, 0, 56, 64
1, 16030, Note_on_c, 0, 61, 29
1, 16042, Note_off_c, 0, 58, 64
1, 16196, Control_c, 0, 64, 127
1, 16210, Note_off_c, 0, 61, 64
1, 16434, Note_on_c, 0, 42, 27
1, 16688, Control_c, 0, 64, 0
1, 16758, Note_on_c, 0, 49, 38
1, 16884, Note_off_c, 0, 42, 64
1, 16918, Control_c, 0, 64, 127
1, 17054, Note_off_c, 0, 49, 64
1, 17054, Note_on_c, 0, 56, 41
1, 17346, Note_off_c, 0, 56, 64
1, 17352, Note_on_c, 0, 54, 48
1, 17504, Note_on_c, 0, 56, 47
1, 17526, Note_off_c, 0, 54, 64
1, 17548, Control_c, 0, 64, 0
1, 17652, Note_on_c, 0, 58, 35
1, 17655, Note_off_c, 0, 56, 64
1, 17960, Note_on_c, 0, 49, 43
1, 17962, Control_c, 0, 64, 127
1, 18020, Note_off_c, 0, 58, 64
1, 18258, Note_off_c, 0, 49, 64
1, 18266, Note_on_c, 0, 42, 32
1, 18362, Control_c, 0, 64, 0
1, 18580, Note_on_c, 0, 49, 29
1, 18640, Note_off_c, 0, 42, 64
1, 18684, Control_c, 0, 64, 127
1, 18834, Note_off_c, 0, 49, 64
1, 18888, Note_on_c, 0, 56, 37
1, 19198, Note_off_c, 0, 56, 64
1, 19226, Note_on_c, 0, 54, 38
1, 19314, Control_c, 0, 64, 0
1, 19372, Note_on_c, 0, 56, 28
1, 19396, Note_off_c, 0, 54, 64
1, 19556, Note_on_c, 0, 58, 20
1, 19566, Note_off_c, 0, 56, 64
1, 19898, Note_off_c, 0, 58, 64
1, 19904, Note_on_c, 0, 61, 22
1, 19930, Control_c, 0, 64, 127
1, 20014, Note_off_c, 0, 61, 64
1, 20260, Note_on_c, 0, 42, 28
1, 20568, Note_off_c, 0, 42, 64
1, 20586, Note_on_c, 0, 49, 32
1, 20806, Note_off_c, 0, 49, 64
1, 20876, Note_on_c, 0, 56, 40
1, 21120, Note_off_c, 0, 56, 64
1, 21164, Note_on_c, 0, 73, 70
1, 21178, Note_on_c, 0, 70, 41
1, 21200, Note_on_c, 0, 54, 24
1, 21326, Note_off_c, 0, 54, 64
1, 21340, Note_on_c, 0, 56, 32
1, 21438, Note_off_c, 0, 56, 64
1, 21506, Note_on_c, 0, 58, 27
1, 21650, Control_c, 0, 64, 0
1, 21848, Note_on_c, 0, 49, 32
1, 21882, Control_c, 0, 64, 127
1, 21896, Note_off_c, 0, 58, 64
1, 22132, Note_off_c, 0, 49, 64
1, 22192, Note_on_c, 0, 42, 42
1, 22296, Control_c, 0, 64, 0
1, 22496, Control_c, 0, 64, 127
1, 22518, Note_on_c, 0, 72, 71
1, 22536, Note_on_c, 0, 69, 40
1, 22542, Note_on_c, 0, 49, 37
1, 22546, Note_off_c, 0, 42, 64
1, 22586, Note_off_c, 0, 70, 64
1, 22594, Note_off_c, 0, 73, 64
1, 22760, Note_off_c, 0, 49, 64
1, 22782, Note_on_c, 0, 73, 79
1, 22790, Note_on_c, 0, 56, 38
1, 22800, Note_on_c, 0, 70, 56
1, 22824, Note_off_c, 0, 72, 64
1, 22844, Note_off_c, 0, 69, 64
1, 22994, Note_on_c, 0, 77, 75
1, 23040, Note_off_c, 0, 56, 64
1, 23040, Note_on_c, 0, 71, 64
1, 23042, Note_on_c, 0, 75, 77
1, 23052, Note_on_c, 0, 54, 46
1, 23064, Note_off_c, 0, 70, 64
1, 23064, Control_c, 0, 64, 0
1, 23078, Note_off_c, 0, 73, 64
1, 23126, Note_off_c, 0, 77, 64
1, 23204, Note_on_c, 0, 56, 38
1, 23250, Note_off_c, 0, 54, 64
1, 23294, Control_c, 0, 64, 127
1, 23322, Note_on_c, 0, 73, 81
1, 23332, Note_on_c, 0, 70, 55
1, 23358, Note_off_c, 0, 71, 64
1, 23358, Note_off_c, 0, 56, 64
1, 23368, Note_on_c, 0, 58, 24
1, 23390, Note_off_c, 0, 75, 64
1, 23520, Note_off_c, 0, 70, 64
1, 23540, Control_c, 0, 64, 0
1, 23654, Note_on_c, 0, 70, 77
1, 23659, Note_on_c, 0, 66, 46
1, 23664, Control_c, 0, 64, 127
1, 23667, Note_on_c, 0, 61, 39
1, 23686, Note_off_c, 0, 73, 64
1, 23740, Note_off_c, 0, 58, 64
1, 23756, Note_off_c, 0, 61, 64
1, 24010, Note_off_c, 0, 66, 64
1, 24040, Note_on_c, 0, 78, 70
1, 24046, Note_on_c, 0, 75, 52
1, 24060, Note_on_c, 0, 42, 25
1, 24062, Control_c, 0, 64, 0
1, 24098, Note_off_c, 0, 70, 64
1, 24294, Control_c, 0, 64, 127
1, 24332, Note_off_c, 0, 78, 64
1, 24388, Note_off_c, 0, 42, 64
1, 24392, Note_on_c, 0, 70, 60
1, 24402, Note_on_c, 0, 66, 43
1, 24430, Note_off_c, 0, 75, 64
1, 24452, Note_on_c, 0, 49, 17
1, 24600, Note_off_c, 0, 49, 64
1, 24710, Note_on_c, 0, 75, 66
1, 24718, Note_on_c, 0, 71, 61
1, 24724, Note_off_c, 0, 70, 64
1, 24732, Note_off_c, 0, 66, 64
1, 24734, Note_on_c, 0, 56, 27
1, 24792, Note_off_c, 0, 71, 64
1, 24918, Note_off_c, 0, 56, 64
1, 25012, Note_on_c, 0, 73, 59
1, 25015, Note_on_c, 0, 70, 42
1, 25022, Note_on_c, 0, 54, 35
1, 25046, Note_off_c, 0, 75, 64
1, 25082, Note_off_c, 0, 70, 64
1, 25138, Note_off_c, 0, 54, 64
1, 25164, Note_on_c, 0, 56, 34
1, 25254, Note_off_c, 0, 56, 64
1, 25296, Note_on_c, 0, 61, 56
1, 25308, Note_on_c, 0, 58, 25
1, 25326, Note_off_c, 0, 73, 64
1, 25606, Note_on_c, 0, 68, 36
1, 25606, Note_on_c, 0, 71, 64
1, 25614, Note_on_c, 0, 49, 31
1, 25630, Note_off_c, 0, 58, 64
1, 25646, Note_off_c, 0, 61, 64
1, 25776, Note_off_c, 0, 68, 64
1, 25844, Control_c, 0, 64, 0
1, 25926, Note_off_c, 0, 49, 64
1, 25928, Note_on_c, 0, 70, 54
1, 25934, Note_on_c, 0, 42, 27
1, 25940, Note_on_c, 0, 66, 41
1, 26006, Note_off_c, 0, 71, 64
1, 26258, Note_on_c, 0, 49, 34
1, 26272, Note_off_c, 0, 42, 64
1, 26306, Control_c, 0, 64, 127
1, 26492, Note_off_c, 0, 49, 64
1, 26540, Note_on_c, 0, 56, 40
1, 26790, Note_off_c, 0, 56, 64
1, 26832, Note_on_c, 0, 54, 39
1, 26840, Note_on_c, 0, 64, 52
1, 26906, Control_c, 0, 64, 0
1, 26956, Note_off_c, 0, 66, 64
1, 26990, Note_on_c, 0, 56, 39
1, 27150, Note_on_c, 0, 58, 33
1, 27176, Note_off_c, 0, 56, 64
1, 27300, Note_off_c, 0, 54, 64
1, 27376, Note_off_c, 0, 64, 64
1, 27378, Note_off_c, 0, 58, 64
1, 27382, Control_c, 0, 64, 127
1, 27448, Note_off_c, 0, 70, 64
1, 27480, Note_on_c, 0, 61, 26
1, 27544, Note_off_c, 0, 61, 64
1, 27796, Control_c, 0, 64, 0
1, 27798, Note_on_c, 0, 63, 44
1, 27818, Note_on_c, 0, 42, 29
1, 27924, Note_off_c, 0, 63, 64
1, 27942, Note_on_c, 0, 71, 47
1, 27982, Control_c, 0, 64, 127
1, 27996, Note_off_c, 0, 42, 64
1, 28092, Note_on_c, 0, 78, 47
1, 28094, Note_off_c, 0, 71, 64
1, 28186, Note_off_c, 0, 78, 64
1, 28270, Note_on_c, 0, 54, 29
1, 28426, Note_off_c, 0, 54, 64
1, 28548, Note_on_c, 0, 61, 34
1, 28660, Note_on_c, 0, 66, 52
1, 28680, Note_off_c, 0, 61, 64
1, 28818, Note_on_c, 0, 78, 78
1, 28826, Note_on_c, 0, 59, 30
1, 28838, Note_on_c, 0, 75, 46
1, 28856, Control_c, 0, 64, 0
1, 28924, Note_off_c, 0, 66, 64
1, 28956, Note_off_c, 0, 59, 64
1, 28968, Note_on_c, 0, 61, 48
1, 29086, Control_c, 0, 64, 127
1, 29088, Note_off_c, 0, 61, 64
1, 29138, Note_on_c, 0, 63, 53
1, 29328, Note_off_c, 0, 63, 64
1, 29458, Note_on_c, 0, 54, 48
1, 29512, Note_off_c, 0, 54, 64
1, 29702, Control_c, 0, 64, 0
1, 29750, Note_on_c, 0, 42, 49
1, 29880, Note_off_c, 0, 42, 64
1, 29886, Control_c, 0, 64, 127
1, 30052, Note_on_c, 0, 77, 88
1, 30054, Note_off_c, 0, 78, 64
1, 30056, Note_on_c, 0, 54, 35
1, 30064, Note_on_c, 0, 74, 64
1, 30090, Note_off_c, 0, 75, 64
1, 30154, Note_off_c, 0, 54, 64
1, 30310, Note_off_c, 0, 77, 64
1, 30316, Note_off_c, 0, 74, 64
1, 30338, Note_on_c, 0, 78, 81
1, 30350, Note_on_c, 0, 75, 59
1, 30353, Note_on_c, 0, 61, 39
1, 30452, Note_off_c, 0, 61, 64
1, 30474, Note_on_c, 0, 82, 77
1, 30476, Note_off_c, 0, 75, 64
1, 30530, Note_off_c, 0, 78, 64
1, 30582, Note_on_c, 0, 80, 88
1, 30582, Note_on_c, 0, 77, 67
1, 30596, Note_on_c, 0, 59, 44
1, 30672, Note_off_c, 0, 82, 64
1, 30684, Control_c, 0, 64, 0
1, 30730, Note_on_c, 0, 61, 46
1, 30766, Note_off_c, 0, 59, 64
1, 30854, Control_c, 0, 64, 127
1, 30876, Note_on_c, 0, 78, 89
1, 30881, Note_on_c, 0, 63, 55
1, 30884, Note_on_c, 0, 75, 69
1, 30892, Note_off_c, 0, 61, 64
1, 30914, Note_off_c, 0, 77, 64
1, 30942, Note_off_c, 0, 80, 64
1, 30992, Note_off_c, 0, 63, 64
1, 31024, Note_off_c, 0, 75, 64
1, 31192, Note_on_c, 0, 75, 88
1, 31204, Note_on_c, 0, 66, 41
1, 31206, Note_on_c, 0, 71, 82
1, 31266, Note_off_c, 0, 66, 64
1, 31269, Note_off_c, 0, 78, 64
1, 31522, Note_off_c, 0, 71, 64
1, 31546, Control_c, 0, 64, 0
1, 31549, Note_on_c, 0, 80, 69
1, 31552, Note_on_c, 0, 83, 105
1, 31582, Note_on_c, 0, 42, 38
1, 31592, Note_off_c, 0, 75, 64
1, 31760, Note_off_c, 0, 42, 64
1, 31760, Control_c, 0, 64, 127
1, 31774, Note_off_c, 0, 83, 64
1, 31806, Note_off_c, 0, 80, 64
1, 31916, Note_on_c, 0, 75, 78
1, 31930, Note_on_c, 0, 71, 66
1, 31936, Note_on_c, 0, 54, 34
1, 32026, Note_off_c, 0, 54, 64
1, 32188, Note_off_c, 0, 71, 64
1, 32236, Note_on_c, 0, 77, 85
1, 32244, Note_on_c, 0, 73, 57
1, 32262, Note_on_c, 0, 61, 44
1, 32270, Note_off_c, 0, 75, 64
1, 32358, Note_off_c, 0, 61, 64
1, 32454, Note_off_c, 0, 73, 64
1, 32512, Note_on_c, 0, 78, 67
1, 32514, Note_off_c, 0, 77, 64
1, 32522, Note_on_c, 0, 75, 55
1, 32534, Note_on_c, 0, 59, 31
1, 32604, Control_c, 0, 64, 0
1, 32648, Note_off_c, 0, 59, 64
1, 32674, Note_on_c, 0, 61, 40
1, 32790, Control_c, 0, 64, 127
1, 32802, Note_off_c, 0, 61, 64
1, 32808, Note_off_c, 0, 78, 64
1, 32840, Note_off_c, 0, 75, 64
1, 32846, Note_on_c, 0, 71, 72
1, 32846, Note_on_c, 0, 66, 46
1, 32856, Note_on_c, 0, 63, 38
1, 33006, Note_off_c, 0, 66, 64
1, 33052, Note_off_c, 0, 63, 64
1, 33140, Note_off_c, 0, 71, 64
1, 33152, Note_on_c, 0, 72, 67
1, 33158, Note_on_c, 0, 69, 49
1, 33172, Note_on_c, 0, 54, 49
1, 33232, Note_off_c, 0, 54, 64
1, 33372, Note_off_c, 0, 69, 64
1, 33444, Note_on_c, 0, 75, 59
1, 33450, Control_c, 0, 64, 0
1, 33460, Note_off_c, 0, 72, 64
1, 33460, Note_on_c, 0, 71, 60
1, 33472, Note_on_c, 0, 42, 34
1, 33654, Note_off_c, 0, 71, 64
1, 33666, Control_c, 0, 64, 127
1, 33720, Note_off_c, 0, 42, 64
1, 33756, Note_on_c, 0, 73, 58
1, 33758, Note_on_c, 0, 70, 50
1, 33790, Note_off_c, 0, 75, 64
1, 33790, Note_on_c, 0, 49, 26
1, 34006, Note_off_c, 0, 70, 64
1, 34074, Note_off_c, 0, 49, 64
1, 34090, Note_on_c, 0, 56, 40
1, 34090, Note_on_c, 0, 61, 67
1, 34374, Note_off_c, 0, 56, 64
1, 34418, Note_on_c, 0, 70, 51
1, 34424, Note_on_c, 0, 66, 38
1, 34426, Note_off_c, 0, 61, 64
1, 34432, Note_on_c, 0, 54, 49
1, 34482, Note_off_c, 0, 73, 64
1, 34592, Note_on_c, 0, 56, 49
1, 34618, Note_off_c, 0, 54, 64
1, 34696, Control_c, 0, 64, 0
1, 34770, Note_on_c, 0, 58, 40
1, 34794, Note_off_c, 0, 56, 64
1, 34940, Control_c, 0, 64, 127
1, 34992, Note_off_c, 0, 58, 64
1, 35198, Note_on_c, 0, 68, 41
1, 35220, Note_on_c, 0, 62, 32
1, 35224, Note_on_c, 0, 41, 44
1, 35252, Note_off_c, 0, 66, 64
1, 35384, Note_off_c, 0, 62, 64
1, 35420, Note_off_c, 0, 41, 64
1, 35462, Note_off_c, 0, 70, 64
1, 35466, Note_off_c, 0, 68, 64
1, 35586, Control_c, 0, 64, 0
1, 35594, Note_on_c, 0, 70, 38
1, 35600, Note_on_c, 0, 39, 52
1, 35606, Note_on_c, 0, 66, 28
1, 35612, Note_on_c, 0, 63, 38
1, 35714, Note_off_c, 0, 63, 64
1, 35742, Note_off_c, 0, 66, 64
1, 35770, Control_c, 0, 64, 127
1, 35866, Note_on_c, 0, 78, 69
1, 35868, Note_off_c, 0, 70, 64
1, 35982, Note_off_c, 0, 39, 64
1, 36010, Note_on_c, 0, 46, 40
1, 36016, Note_off_c, 0, 78, 64
1, 36328, Note_off_c, 0, 46, 64
1, 36378, Note_on_c, 0, 56, 52
1, 36594, Note_off_c, 0, 56, 64
1, 36698, Note_on_c, 0, 78, 84
1, 36708, Note_on_c, 0, 54, 58
1, 36708, Note_on_c, 0, 70, 55
1, 36844, Note_off_c, 0, 54, 64
1, 36852, Note_on_c, 0, 56, 57
1, 36976, Note_off_c, 0, 56, 64
1, 36996, Note_on_c, 0, 58, 45
1, 37154, Control_c, 0, 64, 0
1, 37286, Note_on_c, 0, 46, 52
1, 37322, Control_c, 0, 64, 127
1, 37344, Note_off_c, 0, 58, 64
1, 37498, Note_off_c, 0, 46, 64
1, 37590, Note_on_c, 0, 39, 67
1, 37660, Note_off_c, 0, 70, 64
1, 37786, Note_off_c, 0, 78, 64
1, 37796, Note_on_c, 0, 80, 86
1, 37810, Note_on_c, 0, 71, 68
1, 37854, Note_off_c, 0, 71, 64
1, 37966, Note_on_c, 0, 70, 72
1, 37970, Note_on_c, 0, 78, 87
1, 38008, Note_on_c, 0, 46, 38
1, 38014, Control_c, 0, 64, 0
1, 38036, Note_off_c, 0, 80, 64
1, 38090, Note_off_c, 0, 39, 64
1, 38168, Control_c, 0, 64, 127
1, 38262, Note_off_c, 0, 46, 64
1, 38290, Note_off_c, 0, 70, 64
1, 38314, Note_on_c, 0, 56, 44
1, 38338, Note_off_c, 0, 78, 64
1, 38428, Note_on_c, 0, 77, 85
1, 38430, Note_on_c, 0, 68, 68
1, 38488, Note_off_c, 0, 56, 64
1, 38514, Note_off_c, 0, 68, 64
1, 38548, Note_off_c, 0, 77, 64
1, 38602, Note_on_c, 0, 50, 35
1, 38636, Note_on_c, 0, 77, 52
1, 38664, Note_on_c, 0, 68, 50
1, 38720, Control_c, 0, 64, 0
1, 38864, Note_off_c, 0, 68, 64
1, 38868, Note_off_c, 0, 77, 64
1, 38874, Control_c, 0, 64, 127
1, 38882, Note_on_c, 0, 59, 39
1, 38952, Note_on_c, 0, 70, 41
1, 38954, Note_on_c, 0, 78, 57
1, 38984, Note_off_c, 0, 59, 64
1, 38990, Note_off_c, 0, 50, 64
1, 39020, Note_off_c, 0, 70, 64
1, 39048, Note_on_c, 0, 68, 61
1, 39068, Note_on_c, 0, 77, 57
1, 39088, Note_on_c, 0, 58, 29
1, 39112, Note_off_c, 0, 78, 64
1, 39134, Control_c, 0, 64, 0
1, 39274, Control_c, 0, 64, 127
1, 39328, Note_off_c, 0, 68, 64
1, 39436, Note_off_c, 0, 58, 64
1, 39460, Note_off_c, 0, 77, 64
1, 39463, Note_on_c, 0, 66, 47
1, 39470, Note_on_c, 0, 75, 52
1, 39484, Note_on_c, 0, 46, 18
1, 39636, Note_off_c, 0, 46, 64
1, 39684, Note_off_c, 0, 75, 64
1, 39694, Note_off_c, 0, 66, 64
1, 39824, Note_on_c, 0, 39, 33
1, 39828, Note_on_c, 0, 66, 50
1, 39830, Note_on_c, 0, 75, 61
1, 39934, Control_c, 0, 64, 0
1, 40118, Control_c, 0, 64, 127
1, 40138, Note_on_c, 0, 46, 29
1, 40144, Note_off_c, 0, 39, 64
1, 40160, Note_on_c, 0, 65, 67
1, 40170, Note_off_c, 0, 66, 64
1, 40350, Note_off_c, 0, 65, 64
1, 40362, Note_off_c, 0, 75, 64
1, 40400, Note_off_c, 0, 46, 64
1, 40444, Note_on_c, 0, 56, 35
1, 40594, Note_on_c, 0, 63, 69
1, 40632, Note_off_c, 0, 63, 64
1, 40638, Note_off_c, 0, 56, 64
1, 40712, Note_on_c, 0, 63, 49
1, 40728, Note_on_c, 0, 54, 31
1, 40731, Note_on_c, 0, 70, 49
1, 40764, Control_c, 0, 64, 0
1, 40930, Note_on_c, 0, 56, 42
1, 40956, Note_off_c, 0, 54, 64
1, 41096, Note_off_c, 0, 56, 64
1, 41096, Note_on_c, 0, 58, 28
1, 41102, Control_c, 0, 64, 127
1, 41362, Note_off_c, 0, 58, 64
1, 41392, Note_on_c, 0, 59, 60
1, 41402, Note_on_c, 0, 46, 26
1, 41430, Note_off_c, 0, 63, 64
1, 41574, Note_off_c, 0, 59, 64
1, 41716, Note_off_c, 0, 46, 64
1, 41732, Note_on_c, 0, 58, 58
1, 41740, Note_on_c, 0, 39, 25
1, 41946, Control_c, 0, 64, 0
1, 42034, Note_on_c, 0, 46, 43
1, 42136, Note_off_c, 0, 39, 64
1, 42146, Control_c, 0, 64, 127
1, 42212, Note_off_c, 0, 46, 64
1, 42328, Note_on_c, 0, 54, 59
1, 42368, Note_off_c, 0, 58, 64
1, 42428, Note_off_c, 0, 54, 64
1, 42704, Note_on_c, 0, 60, 65
1, 42722, Note_on_c, 0, 39, 42
1, 42740, Note_off_c, 0, 70, 64
1, 42844, Note_on_c, 0, 68, 62
1, 42954, Note_on_c, 0, 70, 57
1, 42982, Note_off_c, 0, 68, 64
1, 43038, Note_off_c, 0, 70, 64
1, 43040, Note_on_c, 0, 68, 70
1, 43092, Note_off_c, 0, 68, 64
1, 43112, Note_on_c, 0, 70, 53
1, 43170, Note_on_c, 0, 68, 48
1, 43224, Note_off_c, 0, 70, 64
1, 43248, Note_off_c, 0, 68, 64
1, 43282, Note_on_c, 0, 70, 72
1, 43310, Note_on_c, 0, 44, 35
1, 43346, Note_on_c, 0, 68, 46
1, 43426, Note_off_c, 0, 70, 64
1, 43448, Note_on_c, 0, 67, 78
1, 43468, Note_off_c, 0, 68, 64
1, 43514, Control_c, 0, 64, 0
1, 43614, Note_on_c, 0, 68, 70
1, 43664, Note_off_c, 0, 67, 64
1, 43754, Note_off_c, 0, 44, 64
1, 43782, Note_on_c, 0, 54, 32
1, 43810, Note_on_c, 0, 72, 49
1, 43814, Note_off_c, 0, 68, 64
1, 43898, Control_c, 0, 64, 127
1, 43992, Note_off_c, 0, 54, 64
1, 44002, Note_off_c, 0, 72, 64
1, 44004, Note_off_c, 0, 60, 64
1, 44004, Note_on_c, 0, 70, 52
1, 44036, Note_off_c, 0, 39, 64
1, 44264, Note_on_c, 0, 68, 45
1, 44292, Note_on_c, 0, 61, 28
1, 44295, Note_on_c, 0, 41, 35
1, 44330, Note_off_c, 0, 70, 64
1, 44352, Control_c, 0, 64, 0
1, 44672, Note_on_c, 0, 49, 33
1, 44744, Control_c, 0, 64, 127
1, 44760, Note_off_c, 0, 41, 64
1, 44874, Note_off_c, 0, 49, 64
1, 44934, Note_off_c, 0, 61, 64
1, 45054, Note_on_c, 0, 56, 25
1, 45056, Note_on_c, 0, 73, 44
1, 45162, Note_off_c, 0, 68, 64
1, 45174, Note_off_c, 0, 56, 64
1, 45270, Note_off_c, 0, 73, 64
1, 45390, Note_on_c, 0, 73, 47
1, 45396, Note_on_c, 0, 70, 46
1, 45402, Note_on_c, 0, 42, 38
1, 45526, Control_c, 0, 64, 0
1, 45716, Note_on_c, 0, 49, 44
1, 45742, Control_c, 0, 64, 127
1, 45756, Note_off_c, 0, 42, 64
1, 45792, Note_off_c, 0, 49, 64
1, 45840, Note_off_c, 0, 73, 64
1, 45990, Note_on_c, 0, 73, 67
1, 46020, Note_on_c, 0, 61, 39
1, 46080, Note_off_c, 0, 61, 64
1, 46204, Note_off_c, 0, 73, 64
1, 46298, Note_on_c, 0, 73, 43
1, 46310, Note_on_c, 0, 65, 52
1, 46310, Note_on_c, 0, 44, 67
1, 46386, Note_off_c, 0, 70, 64
1, 46464, Control_c, 0, 64, 0
1, 46636, Note_on_c, 0, 49, 52
1, 46662, Note_off_c, 0, 44, 64
1, 46694, Control_c, 0, 64, 127
1, 46734, Note_off_c, 0, 73, 64
1, 46742, Note_off_c, 0, 49, 64
1, 46896, Note_on_c, 0, 73, 67
1, 46928, Note_on_c, 0, 61, 50
1, 46986, Note_off_c, 0, 65, 64
1, 47000, Note_off_c, 0, 61, 64
1, 47050, Note_off_c, 0, 73, 64
1, 47154, Note_on_c, 0, 66, 64
1, 47157, Note_on_c, 0, 73, 49
1, 47190, Note_on_c, 0, 46, 58
1, 47204, Note_off_c, 0, 73, 64
1, 47226, Note_on_c, 0, 75, 60
1, 47280, Note_off_c, 0, 75, 64
1, 47286, Note_on_c, 0, 73, 43
1, 47356, Note_off_c, 0, 73, 64
1, 47359, Note_on_c, 0, 75, 60
1, 47402, Control_c, 0, 64, 0
1, 47424, Note_on_c, 0, 73, 74
1, 47492, Note_off_c, 0, 75, 64
1, 47538, Note_on_c, 0, 72, 74
1, 47564, Note_off_c, 0, 73, 64
1, 47580, Note_on_c, 0, 49, 44
1, 47660, Control_c, 0, 64, 127
1, 47730, Note_off_c, 0, 46, 64
1, 47737, Note_on_c, 0, 73, 82
1, 47760, Note_off_c, 0, 66, 64
1, 47806, Note_off_c, 0, 72, 64
1, 47936, Note_on_c, 0, 80, 81
1, 47974, Note_off_c, 0, 73, 64
1, 47982, Note_on_c, 0, 61, 36
1, 48088, Note_off_c, 0, 61, 64
1, 48102, Note_on_c, 0, 78, 81
1, 48146, Note_off_c, 0, 80, 64
1, 48162, Note_off_c, 0, 49, 64
1, 48226, Note_off_c, 0, 78, 64
1, 48268, Note_on_c, 0, 68, 59
1, 48280, Note_on_c, 0, 78, 89
1, 48280, Note_on_c, 0, 44, 60
1, 48354, Control_c, 0, 64, 0
1, 48600, Control_c, 0, 64, 127
1, 48656, Note_on_c, 0, 77, 87
1, 48664, Note_off_c, 0, 44, 64
1, 48664, Note_on_c, 0, 49, 44
1, 48718, Note_off_c, 0, 78, 64
1, 48740, Note_off_c, 0, 49, 64
1, 48946, Note_on_c, 0, 75, 75
1, 48949, Note_on_c, 0, 61, 49
1, 48998, Note_off_c, 0, 77, 64
1, 49014, Note_off_c, 0, 61, 64
1, 49072, Note_off_c, 0, 68, 64
1, 49220, Note_on_c, 0, 70, 64
1, 49232, Note_on_c, 0, 77, 78
1, 49254, Note_on_c, 0, 42, 36
1, 49276, Control_c, 0, 64, 0
1, 49296, Note_off_c, 0, 75, 64
1, 49550, Note_on_c, 0, 75, 71
1, 49552, Control_c, 0, 64, 127
1, 49556, Note_off_c, 0, 42, 64
1, 49574, Note_on_c, 0, 49, 32
1, 49584, Note_off_c, 0, 77, 64
1, 49638, Note_off_c, 0, 49, 64
1, 49878, Note_on_c, 0, 61, 49
1, 49952, Note_off_c, 0, 61, 64
1, 50036, Note_on_c, 0, 77, 67
1, 50058, Note_off_c, 0, 75, 64
1, 50214, Control_c, 0, 64, 0
1, 50218, Note_on_c, 0, 44, 43
1, 50226, Note_off_c, 0, 77, 64
1, 50226, Note_on_c, 0, 65, 54
1, 50226, Note_on_c, 0, 73, 58
1, 50290, Note_off_c, 0, 70, 64
1, 50614, Note_off_c, 0, 44, 64
1, 50614, Note_on_c, 0, 49, 38
1, 50660, Control_c, 0, 64, 127
1, 50768, Note_off_c, 0, 49, 64
1, 50828, Note_off_c, 0, 73, 64
1, 50932, Note_on_c, 0, 73, 57
1, 50950, Note_on_c, 0, 61, 40
1, 51009, Note_off_c, 0, 65, 64
1, 51034, Note_off_c, 0, 61, 64
1, 51098, Note_off_c, 0, 73, 64
1, 51222, Note_on_c, 0, 46, 34
1, 51222, Note_on_c, 0, 66, 51
1, 51228, Note_on_c, 0, 73, 52
1, 51242, Control_c, 0, 64, 0
1, 51276, Note_off_c, 0, 73, 64
1, 51276, Note_on_c, 0, 75, 62
1, 51338, Note_on_c, 0, 73, 53
1, 51406, Note_off_c, 0, 75, 64
1, 51460, Note_on_c, 0, 72, 71
1, 51490, Note_off_c, 0, 73, 64
1, 51520, Control_c, 0, 64, 127
1, 51586, Note_on_c, 0, 73, 66
1, 51594, Note_on_c, 0, 49, 41
1, 51602, Note_off_c, 0, 46, 64
1, 51628, Note_off_c, 0, 66, 64
1, 51670, Note_off_c, 0, 72, 64
1, 51728, Note_on_c, 0, 75, 83
1, 51772, Note_off_c, 0, 73, 64
1, 51832, Note_off_c, 0, 75, 64
1, 51862, Note_on_c, 0, 61, 41
1, 51872, Note_on_c, 0, 77, 88
1, 51940, Note_off_c, 0, 77, 64
1, 51954, Note_off_c, 0, 61, 64
1, 52000, Note_on_c, 0, 78, 84
1, 52042, Note_off_c, 0, 49, 64
1, 52100, Note_off_c, 0, 78, 64
1, 52124, Note_on_c, 0, 65, 65
1, 52166, Note_off_c, 0, 65, 64
1, 52176, Note_on_c, 0, 44, 48
1, 52190, Note_on_c, 0, 73, 52
1, 52226, Control_c, 0, 64, 0
1, 52272, Note_on_c, 0, 80, 90
1, 52412, Note_off_c, 0, 44, 64
1, 52426, Control_c, 0, 64, 127
1, 52478, Note_off_c, 0, 73, 64
1, 52492, Note_off_c, 0, 80, 64
1, 52564, Note_on_c, 0, 56, 60
1, 52846, Note_off_c, 0, 56, 64
1, 52884, Note_on_c, 0, 61, 62
1, 53082, Note_off_c, 0, 61, 64
1, 53182, Note_on_c, 0, 85, 99
1, 53196, Note_on_c, 0, 68, 49
1, 53202, Note_on_c, 0, 77, 72
1, 53248, Note_off_c, 0, 77, 64
1, 53436, Note_off_c, 0, 68, 64
1, 53580, Note_on_c, 0, 77, 2
1, 53588, Note_on_c, 0, 61, 52
1, 53768, Note_off_c, 0, 61, 64
1, 53990, Note_on_c, 0, 56, 43
1, 54044, Note_off_c, 0, 56, 64
1, 54190, Note_off_c, 0, 85, 64
1, 54408, Note_off_c, 0, 77, 64
1, 54408, Note_on_c, 0, 32, 32
1, 54422, Note_on_c, 0, 75, 52
1, 54430, Note_on_c, 0, 84, 73
1, 54454, Control_c, 0, 64, 0
1, 54620, Note_off_c, 0, 32, 64
1, 54620, Note_off_c, 0, 84, 64
1, 54654, Control_c, 0, 64, 127
1, 54710, Note_on_c, 0, 80, 73
1, 54718, Note_off_c, 0, 75, 64
1, 54720, Note_on_c, 0, 72, 53
1, 54778, Note_off_c, 0, 72, 64
1, 54822, Note_off_c, 0, 80, 64
1, 54966, Note_on_c, 0, 82, 76
1, 54966, Note_on_c, 0, 73, 70
1, 54986, Note_on_c, 0, 44, 43
1, 55012, Note_off_c, 0, 73, 64
1, 55052, Note_off_c, 0, 82, 64
1, 55180, Note_on_c, 0, 70, 60
1, 55182, Note_on_c, 0, 78, 73
1, 55234, Note_off_c, 0, 70, 64
1, 55260, Note_off_c, 0, 78, 64
1, 55296, Note_off_c, 0, 44, 64
1, 55374, Note_on_c, 0, 80, 71
1, 55380, Note_on_c, 0, 72, 47
1, 55388, Note_on_c, 0, 54, 43
1, 55448, Note_off_c, 0, 80, 64
1, 55456, Note_off_c, 0, 72, 64
1, 55520, Note_on_c, 0, 68, 68
1, 55532, Note_on_c, 0, 77, 72
1, 55574, Note_off_c, 0, 77, 64
1, 55594, Note_off_c, 0, 68, 64
1, 55676, Note_off_c, 0, 54, 64
1, 55692, Note_on_c, 0, 78, 75
1, 55704, Note_on_c, 0, 70, 54
1, 55744, Note_on_c, 0, 60, 26
1, 55760, Note_off_c, 0, 70, 64
1, 55792, Note_off_c, 0, 78, 64
1, 55854, Note_on_c, 0, 75, 71
1, 55857, Note_on_c, 0, 66, 50
1, 55884, Note_off_c, 0, 60, 64
1, 55906, Note_off_c, 0, 66, 64
1, 55986, Note_off_c, 0, 75, 64
1, 56024, Note_on_c, 0, 68, 56
1, 56030, Note_on_c, 0, 77, 75
1, 56060, Note_on_c, 0, 54, 45
1, 56128, Note_off_c, 0, 68, 64
1, 56140, Note_off_c, 0, 77, 64
1, 56210, Note_on_c, 0, 73, 68
1, 56226, Note_on_c, 0, 65, 49
1, 56294, Note_off_c, 0, 65, 64
1, 56340, Note_off_c, 0, 73, 64
1, 56346, Note_off_c, 0, 54, 64
1, 56368, Note_on_c, 0, 44, 24
1, 56406, Control_c, 0, 64, 0
1, 56416, Note_on_c, 0, 75, 59
1, 56426, Note_on_c, 0, 66, 35
1, 56574, Control_c, 0, 64, 127
1, 56582, Note_off_c, 0, 44, 64
1, 56630, Note_on_c, 0, 56, 31
1, 56646, Note_off_c, 0, 75, 64
1, 56652, Note_on_c, 0, 68, 52
1, 56700, Note_off_c, 0, 56, 64
1, 56846, Note_off_c, 0, 66, 64
1, 57012, Note_on_c, 0, 73, 41
1, 57016, Note_on_c, 0, 37, 29
1, 57020, Control_c, 0, 64, 0
1, 57028, Note_on_c, 0, 65, 29
1, 57200, Note_off_c, 0, 68, 64
1, 57450, Control_c, 0, 64, 127
1, 57508, Note_off_c, 0, 37, 64
1, 57514, Note_on_c, 0, 44, 34
1, 57928, Note_off_c, 0, 44, 64
1, 57970, Note_on_c, 0, 56, 31
1, 58064, Note_off_c, 0, 73, 64
1, 58184, Note_off_c, 0, 65, 64
1, 58190, Note_off_c, 0, 56, 64
1, 58351, Note_on_c, 0, 56, 38
1, 58360, Note_on_c, 0, 75, 49
1, 58372, Control_c, 0, 64, 0
1, 58380, Note_on_c, 0, 66, 19
1, 58494, Note_off_c, 0, 66, 64
1, 58572, Control_c, 0, 64, 127
1, 58578, Note_on_c, 0, 63, 45
1, 58584, Note_on_c, 0, 72, 49
1, 58598, Note_off_c, 0, 75, 64
1, 58634, Note_off_c, 0, 63, 64
1, 58654, Note_off_c, 0, 72, 64
1, 58746, Note_on_c, 0, 75, 65
1, 58768, Note_on_c, 0, 66, 35
1, 58794, Note_off_c, 0, 75, 64
1, 58908, Note_on_c, 0, 61, 60
1, 58914, Note_on_c, 0, 70, 56
1, 58924, Note_off_c, 0, 66, 64
1, 58962, Note_off_c, 0, 56, 64
1, 58972, Note_off_c, 0, 61, 64
1, 59086, Note_off_c, 0, 70, 64
1, 59086, Note_on_c, 0, 75, 69
1, 59086, Note_on_c, 0, 44, 38
1, 59088, Note_on_c, 0, 66, 47
1, 59154, Note_off_c, 0, 44, 64
1, 59234, Note_off_c, 0, 75, 64
1, 59258, Note_on_c, 0, 68, 61
1, 59258, Note_on_c, 0, 56, 43
1, 59316, Note_off_c, 0, 56, 64
1, 59380, Note_off_c, 0, 66, 64
1, 59464, Note_on_c, 0, 73, 55
1, 59478, Note_on_c, 0, 65, 39
1, 59480, Control_c, 0, 64, 0
1, 59484, Note_on_c, 0, 37, 35
1, 59538, Note_off_c, 0, 68, 64
1, 59786, Control_c, 0, 64, 127
1, 59798, Note_off_c, 0, 37, 64
1, 59870, Note_on_c, 0, 44, 48
1, 60236, Note_on_c, 0, 56, 43
1, 60260, Note_off_c, 0, 44, 64
1, 60384, Note_off_c, 0, 73, 64
1, 60498, Note_off_c, 0, 56, 64
1, 60504, Note_off_c, 0, 65, 64
1, 60674, Note_on_c, 0, 75, 55
1, 60677, Control_c, 0, 64, 0
1, 60686, Note_on_c, 0, 66, 24
1, 60686, Note_on_c, 0, 56, 33
1, 60930, Note_on_c, 0, 63, 44
1, 60932, Note_off_c, 0, 66, 64
1, 60935, Note_on_c, 0, 72, 46
1, 60938, Control_c, 0, 64, 127
1, 60966, Note_off_c, 0, 75, 64
1, 60994, Note_off_c, 0, 63, 64
1, 61126, Note_off_c, 0, 72, 64
1, 61126, Note_on_c, 0, 75, 50
1, 61142, Note_on_c, 0, 66, 34
1, 61176, Note_off_c, 0, 75, 64
1, 61222, Note_off_c, 0, 66, 64
1, 61314, Note_on_c, 0, 70, 41
1, 61314, Note_on_c, 0, 61, 41
1, 61358, Note_off_c, 0, 56, 64
1, 61374, Note_off_c, 0, 61, 64
1, 61422, Note_off_c, 0, 70, 64
1, 61494, Note_on_c, 0, 44, 25
1, 61508, Note_on_c, 0, 75, 46
1, 61514, Note_on_c, 0, 66, 27
1, 61623, Note_off_c, 0, 66, 64
1, 61632, Note_off_c, 0, 44, 64
1, 61708, Note_off_c, 0, 75, 64
1, 61738, Note_on_c, 0, 56, 31
1, 61758, Note_on_c, 0, 68, 41
1, 61802, Note_off_c, 0, 56, 64
1, 61942, Note_on_c, 0, 66, 26
1, 62030, Note_off_c, 0, 66, 64
1, 62070, Note_on_c, 0, 73, 45
1, 62076, Control_c, 0, 64, 0
1, 62084, Note_on_c, 0, 65, 41
1, 62092, Note_on_c, 0, 37, 32
1, 62474, Note_off_c, 0, 37, 64
1, 62476, Control_c, 0, 64, 127
1, 62488, Note_on_c, 0, 44, 38
1, 62552, Note_off_c, 0, 73, 64
1, 62556, Note_off_c, 0, 65, 64
1, 62580, Note_off_c, 0, 68, 64
1, 62832, Note_on_c, 0, 56, 39
1, 62876, Note_off_c, 0, 44, 64
1, 63076, Note_on_c, 0, 66, 52
1, 63130, Note_on_c, 0, 73, 61
1, 63142, Note_off_c, 0, 66, 64
1, 63160, Note_on_c, 0, 68, 25
1, 63164, Note_on_c, 0, 65, 38
1, 63412, Control_c, 0, 64, 0
1, 63460, Note_on_c, 0, 44, 46
1, 63516, Note_off_c, 0, 56, 64
1, 63626, Control_c, 0, 64, 127
1, 63672, Note_off_c, 0, 44, 64
1, 63676, Note_off_c, 0, 65, 64
1, 63704, Note_off_c, 0, 73, 64
1, 63730, Note_off_c, 0, 68, 64
1, 63808, Note_on_c, 0, 37, 36
1, 64054, Note_on_c, 0, 66, 43
1, 64114, Note_off_c, 0, 66, 64
1, 64144, Note_on_c, 0, 73, 51
1, 64150, Note_on_c, 0, 68, 17
1, 64152, Note_on_c, 0, 65, 34
1, 64166, Control_c, 0, 64, 0
1, 64428, Note_on_c, 0, 44, 46
1, 64456, Note_off_c, 0, 37, 64
1, 64534, Control_c, 0, 64, 127
1, 64538, Note_off_c, 0, 44, 64
1, 64612, Note_off_c, 0, 65, 64
1, 64614, Note_off_c, 0, 73, 64
1, 64662, Note_off_c, 0, 68, 64
1, 64764, Note_on_c, 0, 56, 32
1, 65028, Note_on_c, 0, 66, 28
1, 65098, Note_off_c, 0, 66, 64
1, 65144, Note_on_c, 0, 65, 35
1, 65150, Note_on_c, 0, 73, 37
1, 65166, Note_on_c, 0, 68, 13
1, 65178, Control_c, 0, 64, 0
1, 65448, Note_on_c, 0, 44, 32
1, 65470, Note_off_c, 0, 56, 64
1, 65578, Control_c, 0, 64, 127
1, 65680, Note_off_c, 0, 65, 64
1, 65688, Note_off_c, 0, 73, 64
1, 65732, Note_off_c, 0, 68, 64
1, 65752, Note_off_c, 0, 44, 64
1, 65938, Note_on_c, 0, 37, 25
1, 66374, Note_on_c, 0, 66, 16
1, 66532, Note_on_c, 0, 68, 16
1, 66536, Note_off_c, 0, 66, 64
1, 66538, Note_on_c, 0, 73, 31
1, 66542, Note_on_c, 0, 64, 33
1, 66654, Control_c, 0, 64, 0
1, 67012, Note_on_c, 0, 44, 34
1, 67052, Note_off_c, 0, 37, 64
1, 67084, Control_c, 0, 64, 127
1, 67204, Note_off_c, 0, 68, 64
1, 67207, Note_off_c, 0, 64, 64
1, 67214, Note_off_c, 0, 73, 64
1, 67236, Note_off_c, 0, 44, 64
1, 67426, Note_on_c, 0, 56, 28
1, 67760, Note_on_c, 0, 73, 71
1, 67794, Note_on_c, 0, 64, 37
1, 68004, Note_off_c, 0, 56, 64
1, 68040, Note_off_c, 0, 64, 64
1, 68166, Note_off_c, 0, 73, 64
1, 68204, Note_on_c, 0, 44, 28
1, 68414, Note_on_c, 0, 75, 72
1, 68430, Note_on_c, 0, 66, 34
1, 68502, Note_off_c, 0, 66, 64
1, 68544, Note_off_c, 0, 75, 64
1, 68636, Note_off_c, 0, 44, 64
1, 68636, Note_on_c, 0, 76, 73
1, 68664, Note_on_c, 0, 68, 43
1, 68668, Note_on_c, 0, 73, 31
1, 68674, Note_on_c, 0, 37, 26
1, 68854, Note_off_c, 0, 76, 64
1, 68856, Note_off_c, 0, 68, 64
1, 68859, Note_off_c, 0, 73, 64
1, 69046, Note_on_c, 0, 68, 69
1, 69074, Note_on_c, 0, 59, 38
1, 69084, Note_on_c, 0, 64, 35
1, 69174, Control_c, 0, 64, 0
1, 69384, Note_off_c, 0, 37, 64
1, 69390, Note_on_c, 0, 44, 36
1, 69450, Control_c, 0, 64, 127
1, 69688, Note_off_c, 0, 59, 64
1, 69738, Note_off_c, 0, 44, 64
1, 69766, Note_on_c, 0, 56, 39
1, 69824, Note_off_c, 0, 64, 64
1, 69878, Note_off_c, 0, 68, 64
1, 69976, Note_off_c, 0, 56, 64
1, 70098, Note_on_c, 0, 68, 59
1, 70102, Note_on_c, 0, 64, 57
1, 70142, Note_on_c, 0, 54, 45
1, 70188, Control_c, 0, 64, 0
1, 70202, Note_on_c, 0, 70, 48
1, 70218, Note_off_c, 0, 68, 64
1, 70274, Note_off_c, 0, 70, 64
1, 70274, Note_on_c, 0, 71, 76
1, 70328, Note_off_c, 0, 71, 64
1, 70358, Note_on_c, 0, 70, 52
1, 70404, Control_c, 0, 64, 127
1, 70454, Note_off_c, 0, 70, 64
1, 70457, Note_on_c, 0, 71, 50
1, 70512, Note_off_c, 0, 71, 64
1, 70512, Note_on_c, 0, 70, 69
1, 70552, Note_off_c, 0, 54, 64
1, 70586, Note_on_c, 0, 71, 62
1, 70604, Note_off_c, 0, 70, 64
1, 70658, Note_on_c, 0, 42, 32
1, 70670, Note_on_c, 0, 70, 59
1, 70684, Note_off_c, 0, 71, 64
1, 70716, Note_off_c, 0, 42, 64
1, 70750, Note_off_c, 0, 70, 64
1, 70770, Note_on_c, 0, 71, 51
1, 70814, Note_on_c, 0, 70, 64
1, 70830, Note_off_c, 0, 71, 64
1, 70906, Note_on_c, 0, 71, 55
1, 70912, Note_off_c, 0, 70, 64
1, 70962, Note_on_c, 0, 30, 50
1, 70974, Note_off_c, 0, 71, 64
1, 70976, Note_on_c, 0, 70, 62
1, 71034, Note_off_c, 0, 70, 64
1, 71054, Note_on_c, 0, 71, 61
1, 71096, Note_off_c, 0, 30, 64
1, 71118, Note_on_c, 0, 70, 52
1, 71156, Note_off_c, 0, 71, 64
1, 71218, Note_off_c, 0, 64, 64
1, 71236, Note_on_c, 0, 68, 60
1, 71256, Note_off_c, 0, 70, 64
1, 71322, Note_on_c, 0, 70, 50
1, 71372, Note_off_c, 0, 68, 64
1, 71434, Control_c, 0, 64, 0
1, 71474, Note_on_c, 0, 71, 80
1, 71484, Note_on_c, 0, 63, 47
1, 71484, Note_on_c, 0, 35, 41
1, 71516, Note_off_c, 0, 70, 64
1, 71928, Note_on_c, 0, 42, 40
1, 71974, Note_off_c, 0, 35, 64
1, 72062, Control_c, 0, 64, 127
1, 72206, Note_off_c, 0, 42, 64
1, 72340, Note_on_c, 0, 54, 54
1, 72374, Note_off_c, 0, 71, 64
1, 72572, Note_off_c, 0, 63, 64
1, 72572, Note_off_c, 0, 54, 64
1, 72770, Control_c, 0, 64, 0
1, 72770, Note_on_c, 0, 73, 52
1, 72776, Note_on_c, 0, 54, 35
1, 72784, Note_on_c, 0, 64, 44
1, 72984, Control_c, 0, 64, 127
1, 72992, Note_on_c, 0, 70, 52
1, 73002, Note_on_c, 0, 61, 39
1, 73006, Note_off_c, 0, 64, 64
1, 73032, Note_off_c, 0, 73, 64
1, 73066, Note_off_c, 0, 61, 64
1, 73146, Note_off_c, 0, 70, 64
1, 73176, Note_on_c, 0, 73, 66
1, 73184, Note_on_c, 0, 64, 58
1, 73224, Note_off_c, 0, 73, 64
1, 73266, Note_off_c, 0, 64, 64
1, 73360, Note_on_c, 0, 68, 57
1, 73364, Note_off_c, 0, 54, 64
1, 73372, Note_on_c, 0, 59, 37
1, 73432, Note_off_c, 0, 59, 64
1, 73506, Note_on_c, 0, 42, 30
1, 73532, Note_off_c, 0, 68, 64
1, 73532, Note_on_c, 0, 73, 63
1, 73540, Note_on_c, 0, 64, 59
1, 73626, Note_off_c, 0, 73, 64
1, 73674, Note_off_c, 0, 42, 64
1, 73708, Note_on_c, 0, 54, 54
1, 73718, Note_on_c, 0, 66, 52
1, 73758, Note_off_c, 0, 54, 64
1, 73764, Note_off_c, 0, 64, 64
1, 73922, Note_on_c, 0, 71, 67
1, 73924, Control_c, 0, 64, 0
1, 73928, Note_on_c, 0, 35, 58
1, 73930, Note_on_c, 0, 63, 46
1, 73978, Note_off_c, 0, 66, 64
1, 74290, Control_c, 0, 64, 127
1, 74302, Note_off_c, 0, 35, 64
1, 74318, Note_on_c, 0, 42, 43
1, 74334, Note_off_c, 0, 71, 64
1, 74672, Note_off_c, 0, 63, 64
1, 74724, Note_off_c, 0, 42, 64
1, 74732, Note_on_c, 0, 54, 44
1, 75050, Note_off_c, 0, 54, 64
1, 75212, Control_c, 0, 64, 0
1, 75222, Note_on_c, 0, 54, 45
1, 75230, Note_on_c, 0, 73, 43
1, 75252, Note_on_c, 0, 64, 36
1, 75434, Note_off_c, 0, 64, 64
1, 75456, Note_on_c, 0, 70, 40
1, 75458, Control_c, 0, 64, 127
1, 75466, Note_on_c, 0, 61, 37
1, 75482, Note_off_c, 0, 73, 64
1, 75528, Note_off_c, 0, 70, 64
1, 75528, Note_off_c, 0, 61, 64
1, 75628, Note_on_c, 0, 73, 62
1, 75664, Note_on_c, 0, 64, 38
1, 75680, Note_off_c, 0, 73, 64
1, 75724, Note_off_c, 0, 64, 64
1, 75796, Note_on_c, 0, 68, 62
1, 75810, Note_on_c, 0, 59, 44
1, 75842, Note_off_c, 0, 54, 64
1, 75864, Note_off_c, 0, 59, 64
1, 75970, Note_on_c, 0, 73, 63
1, 75975, Note_on_c, 0, 42, 36
1, 75980, Note_off_c, 0, 68, 64
1, 75986, Note_on_c, 0, 64, 49
1, 76040, Note_off_c, 0, 73, 64
1, 76042, Note_off_c, 0, 42, 64
1, 76140, Note_on_c, 0, 54, 44
1, 76140, Note_on_c, 0, 66, 52
1, 76178, Note_off_c, 0, 64, 64
1, 76196, Note_off_c, 0, 54, 64
1, 76314, Control_c, 0, 64, 0
1, 76342, Note_on_c, 0, 71, 74
1, 76350, Note_on_c, 0, 63, 44
1, 76350, Note_on_c, 0, 35, 49
1, 76416, Note_off_c, 0, 66, 64
1, 76668, Note_off_c, 0, 35, 64
1, 76686, Control_c, 0, 64, 127
1, 76692, Note_on_c, 0, 42, 41
1, 76695, Note_off_c, 0, 63, 64
1, 77092, Note_on_c, 0, 54, 46
1, 77102, Note_off_c, 0, 42, 64
1, 77576, Note_on_c, 0, 70, 66
1, 77594, Note_on_c, 0, 63, 47
1, 77616, Note_off_c, 0, 71, 64
1, 77948, Note_off_c, 0, 54, 64
1, 77948, Note_on_c, 0, 42, 46
1, 78120, Note_on_c, 0, 71, 81
1, 78122, Note_off_c, 0, 63, 64
1, 78156, Note_off_c, 0, 70, 64
1, 78304, Note_off_c, 0, 42, 64
1, 78318, Note_on_c, 0, 66, 60
1, 78318, Note_on_c, 0, 63, 52
1, 78346, Note_off_c, 0, 71, 64
1, 78348, Note_on_c, 0, 35, 55
1, 78490, Note_off_c, 0, 63, 64
1, 78556, Note_off_c, 0, 66, 64
1, 78652, Note_on_c, 0, 63, 63
1, 78656, Note_on_c, 0, 66, 42
1, 78749, Note_on_c, 0, 68, 49
1, 78756, Note_off_c, 0, 66, 64
1, 78804, Note_off_c, 0, 68, 64
1, 78804, Note_on_c, 0, 70, 53
1, 78880, Note_off_c, 0, 70, 64
1, 78880, Note_on_c, 0, 68, 49
1, 78916, Control_c, 0, 64, 0
1, 78962, Note_on_c, 0, 70, 54
1, 78970, Note_off_c, 0, 68, 64
1, 79048, Note_on_c, 0, 68, 54
1, 79074, Note_off_c, 0, 70, 64
1, 79130, Note_off_c, 0, 68, 64
1, 79136, Note_on_c, 0, 70, 63
1, 79190, Note_on_c, 0, 42, 55
1, 79206, Note_on_c, 0, 68, 50
1, 79214, Note_off_c, 0, 70, 64
1, 79294, Note_on_c, 0, 70, 62
1, 79302, Note_off_c, 0, 68, 64
1, 79314, Control_c, 0, 64, 127
1, 79386, Note_on_c, 0, 68, 50
1, 79400, Note_off_c, 0, 70, 64
1, 79444, Note_off_c, 0, 68, 64
1, 79472, Note_on_c, 0, 70, 62
1, 79500, Note_off_c, 0, 35, 64
1, 79532, Note_on_c, 0, 41, 82
1, 79548, Note_off_c, 0, 42, 64
1, 79556, Note_off_c, 0, 70, 64
1, 79563, Note_on_c, 0, 68, 55
1, 79618, Note_off_c, 0, 68, 64
1, 79644, Note_on_c, 0, 70, 63
1, 79730, Note_off_c, 0, 70, 64
1, 79738, Note_on_c, 0, 68, 52
1, 79790, Note_off_c, 0, 68, 64
1, 79806, Note_on_c, 0, 70, 65
1, 79838, Control_c, 0, 64, 0
1, 79884, Note_on_c, 0, 53, 100
1, 79894, Note_on_c, 0, 68, 44
1, 79908, Note_off_c, 0, 70, 64
1, 79952, Note_off_c, 0, 68, 64
1, 79976, Note_on_c, 0, 70, 66
1, 80044, Note_on_c, 0, 68, 46
1, 80048, Note_off_c, 0, 70, 64
1, 80072, Note_off_c, 0, 41, 64
1, 80114, Control_c, 0, 64, 127
1, 80130, Note_off_c, 0, 68, 64
1, 80134, Note_off_c, 0, 53, 64
1, 80134, Note_on_c, 0, 70, 60
1, 80202, Note_on_c, 0, 68, 54
1, 80218, Note_off_c, 0, 70, 64
1, 80218, Note_on_c, 0, 41, 89
1, 80286, Note_off_c, 0, 68, 64
1, 80286, Note_on_c, 0, 70, 65
1, 80384, Note_on_c, 0, 68, 60
1, 80402, Note_off_c, 0, 70, 64
1, 80450, Note_off_c, 0, 68, 64
1, 80468, Note_on_c, 0, 70, 67
1, 80486, Note_off_c, 0, 41, 64
1, 80546, Note_on_c, 0, 68, 53
1, 80548, Note_off_c, 0, 70, 64
1, 80556, Note_on_c, 0, 35, 91
1, 80612, Note_off_c, 0, 68, 64
1, 80616, Note_on_c, 0, 70, 62
1, 80706, Note_on_c, 0, 68, 64
1, 80760, Note_off_c, 0, 70, 64
1, 80792, Note_off_c, 0, 63, 64
1, 80808, Note_on_c, 0, 66, 70
1, 80838, Note_off_c, 0, 35, 64
1, 80842, Note_off_c, 0, 68, 64
1, 80892, Note_on_c, 0, 68, 83
1, 80960, Control_c, 0, 64, 0
1, 80974, Note_off_c, 0, 66, 64
1, 80994, Note_on_c, 0, 62, 69
1, 80997, Note_on_c, 0, 70, 75
1, 81000, Note_on_c, 0, 34, 62
1, 81002, Note_on_c, 0, 46, 48
1, 81054, Note_off_c, 0, 68, 64
1, 81450, Note_off_c, 0, 34, 64
1, 81452, Note_off_c, 0, 62, 64
1, 81466, Control_c, 0, 64, 127
1, 81510, Note_off_c, 0, 46, 64
1, 81538, Note_off_c, 0, 70, 64
1, 81782, Note_on_c, 0, 82, 93
1, 81798, Note_on_c, 0, 65, 80
1, 81798, Note_on_c, 0, 70, 62
1, 81806, Note_on_c, 0, 56, 56
1, 81838, Note_on_c, 0, 58, 19
1, 81942, Note_off_c, 0, 58, 64
1, 81950, Note_off_c, 0, 70, 64
1, 81982, Note_off_c, 0, 65, 64
1, 82058, Note_off_c, 0, 56, 64
1, 82080, Note_on_c, 0, 54, 69
1, 82158, Note_on_c, 0, 58, 40
1, 82178, Note_on_c, 0, 75, 81
1, 82198, Note_on_c, 0, 65, 78
1, 82280, Control_c, 0, 64, 0
1, 82394, Note_on_c, 0, 84, 97
1, 82420, Note_off_c, 0, 82, 64
1, 82466, Control_c, 0, 64, 127
1, 82480, Note_off_c, 0, 75, 64
1, 82592, Note_on_c, 0, 85, 89
1, 82606, Note_on_c, 0, 77, 72
1, 82630, Note_off_c, 0, 84, 64
1, 82656, Note_off_c, 0, 77, 64
1, 82722, Note_off_c, 0, 65, 64
1, 82752, Note_off_c, 0, 54, 64
1, 82758, Note_on_c, 0, 87, 88
1, 82770, Note_on_c, 0, 78, 84
1, 82786, Note_off_c, 0, 58, 64
1, 82820, Note_off_c, 0, 85, 64
1, 82838, Note_off_c, 0, 78, 64
1, 82918, Note_on_c, 0, 89, 92
1, 82918, Note_on_c, 0, 80, 85
1, 82924, Note_on_c, 0, 63, 73
1, 82954, Note_on_c, 0, 58, 22
1, 82957, Note_on_c, 0, 54, 26
1, 82964, Note_off_c, 0, 87, 64
1, 82967, Note_off_c, 0, 63, 64
1, 83004, Note_off_c, 0, 80, 64
1, 83030, Note_off_c, 0, 58, 64
1, 83030, Note_off_c, 0, 54, 64
1, 83070, Note_on_c, 0, 90, 92
1, 83082, Note_on_c, 0, 82, 70
1, 83130, Note_off_c, 0, 89, 64
1, 83133, Note_on_c, 0, 46, 56
1, 83208, Note_off_c, 0, 90, 64
1, 83208, Note_off_c, 0, 82, 64
1, 83250, Note_on_c, 0, 53, 63
1, 83253, Note_on_c, 0, 85, 86
1, 83266, Note_on_c, 0, 89, 92
1, 83326, Note_on_c, 0, 61, 69
1, 83326, Control_c, 0, 64, 0
1, 83448, Note_on_c, 0, 82, 81
1, 83512, Note_off_c, 0, 85, 64
1, 83536, Note_off_c, 0, 89, 64
1, 83570, Control_c, 0, 64, 127
1, 83610, Note_on_c, 0, 77, 89
1, 83624, Note_off_c, 0, 46, 64
1, 83649, Note_off_c, 0, 82, 64
1, 83658, Note_off_c, 0, 61, 64
1, 83660, Note_off_c, 0, 53, 64
1, 83698, Note_off_c, 0, 77, 64
1, 83748, Note_on_c, 0, 73, 87
1, 83794, Note_on_c, 0, 46, 34
1, 83858, Note_on_c, 0, 53, 61
1, 83916, Note_on_c, 0, 77, 88
1, 83924, Note_on_c, 0, 71, 86
1, 83938, Note_off_c, 0, 73, 64
1, 83940, Note_off_c, 0, 46, 64
1, 83946, Note_on_c, 0, 61, 61
1, 84008, Note_off_c, 0, 53, 64
1, 84032, Note_off_c, 0, 61, 64
1, 84078, Note_on_c, 0, 70, 76
1, 84080, Note_off_c, 0, 71, 64
1, 84092, Note_on_c, 0, 46, 53
1, 84114, Note_off_c, 0, 77, 64
1, 84144, Note_off_c, 0, 70, 64
1, 84182, Note_on_c, 0, 51, 60
1, 84232, Note_on_c, 0, 54, 52
1, 84248, Control_c, 0, 64, 0
1, 84272, Note_on_c, 0, 77, 83
1, 84272, Note_on_c, 0, 68, 79
1, 84326, Note_on_c, 0, 61, 77
1, 84338, Note_off_c, 0, 77, 64
1, 84352, Note_on_c, 0, 75, 64
1, 84412, Note_off_c, 0, 75, 64
1, 84436, Note_on_c, 0, 77, 72
1, 84508, Control_c, 0, 64, 127
1, 84518, Note_on_c, 0, 75, 67
1, 84550, Note_off_c, 0, 77, 64
1, 84610, Note_off_c, 0, 68, 64
1, 84610, Note_on_c, 0, 77, 79
1, 84651, Note_off_c, 0, 75, 64
1, 84674, Note_off_c, 0, 51, 64
1, 84702, Note_on_c, 0, 66, 58
1, 84708, Note_off_c, 0, 54, 64
1, 84714, Note_on_c, 0, 75, 67
1, 84722, Note_off_c, 0, 77, 64
1, 84738, Note_off_c, 0, 61, 64
1, 84762, Note_off_c, 0, 46, 64
1, 84774, Note_off_c, 0, 75, 64
1, 84792, Note_on_c, 0, 77, 65
1, 84852, Note_on_c, 0, 75, 63
1, 84866, Note_off_c, 0, 66, 64
1, 84898, Note_off_c, 0, 77, 64
1, 84964, Note_on_c, 0, 77, 75
1, 84974, Note_off_c, 0, 75, 64
1, 84998, Note_on_c, 0, 59, 48
1, 85018, Note_on_c, 0, 54, 38
1, 85018, Note_on_c, 0, 51, 36
1, 85022, Note_on_c, 0, 46, 15
1, 85058, Note_on_c, 0, 68, 57
1, 85058, Note_on_c, 0, 75, 53
1, 85074, Note_off_c, 0, 77, 64
1, 85074, Note_off_c, 0, 59, 64
1, 85098, Note_off_c, 0, 54, 64
1, 85142, Note_off_c, 0, 75, 64
1, 85145, Note_off_c, 0, 51, 64
1, 85178, Note_on_c, 0, 77, 41
1, 85192, Note_off_c, 0, 46, 64
1, 85234, Note_on_c, 0, 75, 51
1, 85246, Note_off_c, 0, 68, 64
1, 85318, Note_off_c, 0, 77, 64
1, 85396, Note_on_c, 0, 34, 34
1, 85404, Note_on_c, 0, 65, 51
1, 85446, Control_c, 0, 64, 0
1, 85482, Note_on_c, 0, 46, 23
1, 85502, Note_on_c, 0, 70, 39
1, 85546, Note_off_c, 0, 75, 64
1, 85570, Note_on_c, 0, 74, 66
1, 85836, Note_off_c, 0, 34, 64
1, 85892, Control_c, 0, 64, 127
1, 85895, Note_off_c, 0, 46, 64
1, 85902, Note_off_c, 0, 65, 64
1, 86028, Note_off_c, 0, 70, 64
1, 86066, Note_off_c, 0, 74, 64
1, 86330, Note_on_c, 0, 82, 51
1, 86342, Note_on_c, 0, 70, 26
1, 86354, Note_on_c, 0, 65, 60
1, 86390, Note_on_c, 0, 58, 19
1, 86398, Note_on_c, 0, 56, 19
1, 86458, Note_off_c, 0, 70, 64
1, 86518, Note_off_c, 0, 58, 64
1, 86544, Note_off_c, 0, 65, 64
1, 86558, Note_off_c, 0, 56, 64
1, 86602, Note_on_c, 0, 54, 42
1, 86706, Note_on_c, 0, 58, 29
1, 86756, Note_on_c, 0, 75, 38
1, 86842, Note_on_c, 0, 65, 50
1, 86921, Control_c, 0, 64, 0
1, 87052, Note_off_c, 0, 82, 64
1, 87052, Note_on_c, 0, 84, 55
1, 87120, Control_c, 0, 64, 127
1, 87122, Note_off_c, 0, 75, 64
1, 87132, Note_off_c, 0, 65, 64
1, 87266, Note_on_c, 0, 85, 57
1, 87269, Note_on_c, 0, 77, 47
1, 87282, Note_off_c, 0, 84, 64
1, 87320, Note_on_c, 0, 66, 48
1, 87326, Note_off_c, 0, 77, 64
1, 87442, Note_off_c, 0, 58, 64
1, 87450, Note_off_c, 0, 54, 64
1, 87470, Note_on_c, 0, 78, 55
1, 87473, Note_on_c, 0, 87, 52
1, 87494, Note_off_c, 0, 66, 64
1, 87498, Note_off_c, 0, 85, 64
1, 87524, Note_off_c, 0, 78, 64
1, 87576, Note_off_c, 0, 87, 64
1, 87628, Note_on_c, 0, 63, 55
1, 87640, Note_on_c, 0, 80, 56
1, 87643, Note_on_c, 0, 89, 54
1, 87660, Note_on_c, 0, 58, 22
1, 87684, Note_off_c, 0, 63, 64
1, 87684, Note_off_c, 0, 80, 64
1, 87687, Note_on_c, 0, 54, 22
1, 87728, Note_off_c, 0, 58, 64
1, 87760, Note_off_c, 0, 54, 64
1, 87814, Note_on_c, 0, 90, 64
1, 87822, Note_on_c, 0, 82, 38
1, 87842, Note_off_c, 0, 89, 64
1, 87874, Note_on_c, 0, 46, 38
1, 87900, Note_off_c, 0, 90, 64
1, 87910, Note_off_c, 0, 82, 64
1, 87974, Note_on_c, 0, 53, 56
1, 88006, Note_on_c, 0, 89, 62
1, 88028, Note_on_c, 0, 85, 46
1, 88042, Control_c, 0, 64, 0
1, 88074, Note_on_c, 0, 61, 43
1, 88198, Note_on_c, 0, 82, 63
1, 88220, Note_off_c, 0, 89, 64
1, 88230, Note_off_c, 0, 85, 64
1, 88318, Control_c, 0, 64, 127
1, 88348, Note_off_c, 0, 61, 64
1, 88352, Note_on_c, 0, 77, 82
1, 88358, Note_off_c, 0, 46, 64
1, 88362, Note_off_c, 0, 82, 64
1, 88364, Note_off_c, 0, 53, 64
1, 88434, Note_off_c, 0, 77, 64
1, 88500, Note_on_c, 0, 73, 67
1, 88534, Note_on_c, 0, 46, 32
1, 88608, Note_off_c, 0, 46, 64
1, 88622, Note_on_c, 0, 53, 35
1, 88676, Note_off_c, 0, 73, 64
1, 88679, Note_on_c, 0, 77, 67
1, 88688, Note_on_c, 0, 71, 63
1, 88722, Note_on_c, 0, 61, 62
1, 88732, Note_off_c, 0, 53, 64
1, 88750, Note_off_c, 0, 71, 64
1, 88840, Note_on_c, 0, 70, 65
1, 88864, Note_off_c, 0, 61, 64
1, 88886, Note_off_c, 0, 77, 64
1, 88902, Note_off_c, 0, 70, 64
1, 88960, Note_on_c, 0, 46, 21
1, 89058, Note_on_c, 0, 54, 27
1, 89060, Note_on_c, 0, 68, 58
1, 89064, Note_on_c, 0, 77, 43
1, 89072, Control_c, 0, 64, 0
1, 89106, Note_on_c, 0, 51, 4
1, 89112, Note_off_c, 0, 77, 64
1, 89122, Note_on_c, 0, 75, 44
1, 89136, Note_on_c, 0, 61, 54
1, 89176, Note_off_c, 0, 75, 64
1, 89198, Note_on_c, 0, 77, 37
1, 89258, Note_on_c, 0, 75, 43
1, 89270, Note_off_c, 0, 77, 64
1, 89276, Note_off_c, 0, 46, 64
1, 89302, Control_c, 0, 64, 127
1, 89334, Note_off_c, 0, 75, 64
1, 89344, Note_off_c, 0, 51, 64
1, 89350, Note_on_c, 0, 77, 52
1, 89370, Note_off_c, 0, 61, 64
1, 89414, Note_on_c, 0, 75, 48
1, 89424, Note_off_c, 0, 54, 64
1, 89424, Note_off_c, 0, 77, 64
1, 89488, Note_off_c, 0, 75, 64
1, 89510, Note_on_c, 0, 77, 47
1, 89514, Note_on_c, 0, 63, 43
1, 89556, Note_off_c, 0, 68, 64
1, 89578, Note_on_c, 0, 75, 44
1, 89594, Note_off_c, 0, 63, 64
1, 89612, Note_off_c, 0, 77, 64
1, 89684, Note_off_c, 0, 75, 64
1, 89690, Note_on_c, 0, 77, 58
1, 89710, Note_on_c, 0, 66, 35
1, 89766, Note_on_c, 0, 75, 50
1, 89770, Note_off_c, 0, 77, 64
1, 89776, Note_off_c, 0, 66, 64
1, 89870, Note_off_c, 0, 75, 64
1, 89904, Note_on_c, 0, 77, 41
1, 89904, Control_c, 0, 64, 0
1, 89926, Note_on_c, 0, 68, 37
1, 89928, Note_on_c, 0, 59, 35
1, 89942, Note_on_c, 0, 54, 18
1, 89958, Note_on_c, 0, 51, 22
1, 89961, Note_on_c, 0, 46, 6
1, 90018, Note_off_c, 0, 77, 64
1, 90026, Note_on_c, 0, 75, 44
1, 90082, Note_off_c, 0, 59, 64
1, 90092, Note_off_c, 0, 75, 64
1, 90126, Note_off_c, 0, 54, 64
1, 90138, Note_on_c, 0, 77, 20
1, 90140, Control_c, 0, 64, 127
1, 90144, Note_off_c, 0, 51, 64
1, 90174, Note_off_c, 0, 46, 64
1, 90188, Note_off_c, 0, 68, 64
1, 90240, Note_off_c, 0, 77, 64
1, 90256, Note_on_c, 0, 75, 39
1, 90380, Note_on_c, 0, 65, 23
1, 90434, Note_on_c, 0, 70, 32
1, 90478, Note_on_c, 0, 46, 19
1, 90478, Note_on_c, 0, 34, 23
1, 90488, Note_off_c, 0, 75, 64
1, 90500, Control_c, 0, 64, 0
1, 90526, Note_on_c, 0, 74, 39
1, 90850, Note_off_c, 0, 34, 64
1, 90884, Note_off_c, 0, 46, 64
1, 90890, Note_off_c, 0, 74, 64
1, 90900, Control_c, 0, 64, 127
1, 90918, Note_off_c, 0, 65, 64
1, 90980, Note_off_c, 0, 70, 64
1, 91442, Note_on_c, 0, 70, 39
1, 91482, Note_on_c, 0, 62, 17
1, 91484, Note_on_c, 0, 56, 18
1, 91488, Note_on_c, 0, 65, 17
1, 91608, Note_off_c, 0, 56, 64
1, 91654, Note_off_c, 0, 62, 64
1, 91820, Note_off_c, 0, 65, 64
1, 91840, Note_off_c, 0, 70, 64
1, 91866, Note_on_c, 0, 75, 48
1, 91869, Control_c, 0, 64, 0
1, 91874, Note_on_c, 0, 66, 25
1, 91878, Note_on_c, 0, 63, 35
1, 91898, Note_on_c, 0, 54, 32
1, 92010, Note_off_c, 0, 63, 64
1, 92068, Control_c, 0, 64, 127
1, 92086, Note_off_c, 0, 66, 64
1, 92088, Note_on_c, 0, 71, 59
1, 92092, Note_on_c, 0, 63, 51
1, 92104, Note_off_c, 0, 75, 64
1, 92144, Note_off_c, 0, 63, 64
1, 92226, Note_off_c, 0, 54, 64
1, 92244, Note_off_c, 0, 71, 64
1, 92262, Note_on_c, 0, 75, 63
1, 92292, Note_on_c, 0, 66, 37
1, 92310, Note_off_c, 0, 75, 64
1, 92364, Note_off_c, 0, 66, 64
1, 92438, Note_on_c, 0, 61, 66
1, 92441, Note_on_c, 0, 70, 56
1, 92486, Note_off_c, 0, 61, 64
1, 92619, Note_on_c, 0, 75, 64
1, 92640, Note_on_c, 0, 66, 40
1, 92644, Note_on_c, 0, 34, 28
1, 92658, Note_off_c, 0, 75, 64
1, 92674, Note_off_c, 0, 70, 64
1, 92694, Note_off_c, 0, 66, 64
1, 92806, Note_on_c, 0, 68, 60
1, 92816, Note_on_c, 0, 59, 55
1, 92868, Note_off_c, 0, 59, 64
1, 92958, Note_off_c, 0, 68, 64
1, 93004, Note_on_c, 0, 46, 34
1, 93052, Control_c, 0, 64, 0
1, 93066, Note_on_c, 0, 70, 55
1, 93072, Note_on_c, 0, 58, 33
1, 93352, Note_off_c, 0, 34, 64
1, 93444, Note_off_c, 0, 58, 64
1, 93452, Control_c, 0, 64, 127
1, 93458, Note_off_c, 0, 46, 64
1, 93562, Note_off_c, 0, 70, 64
1, 93912, Note_on_c, 0, 70, 49
1, 93928, Note_on_c, 0, 61, 31
1, 93934, Note_on_c, 0, 65, 35
1, 93948, Note_on_c, 0, 53, 63
1, 94156, Note_off_c, 0, 61, 64
1, 94168, Note_off_c, 0, 53, 64
1, 94382, Note_off_c, 0, 70, 64
1, 94416, Note_off_c, 0, 65, 64
1, 94472, Note_on_c, 0, 75, 41
1, 94512, Note_on_c, 0, 59, 36
1, 94512, Note_on_c, 0, 51, 21
1, 94518, Note_on_c, 0, 66, 10
1, 94542, Control_c, 0, 64, 0
1, 94744, Note_on_c, 0, 63, 43
1, 94756, Note_on_c, 0, 71, 54
1, 94772, Note_off_c, 0, 66, 64
1, 94788, Control_c, 0, 64, 127
1, 94802, Note_off_c, 0, 75, 64
1, 94842, Note_off_c, 0, 63, 64
1, 94862, Note_off_c, 0, 59, 64
1, 94922, Note_off_c, 0, 71, 64
1, 94948, Note_on_c, 0, 75, 64
1, 94974, Note_on_c, 0, 66, 36
1, 94994, Note_off_c, 0, 75, 64
1, 95008, Note_off_c, 0, 51, 64
1, 95050, Note_off_c, 0, 66, 64
1, 95126, Note_on_c, 0, 61, 57
1, 95134, Note_on_c, 0, 70, 50
1, 95180, Note_off_c, 0, 61, 64
1, 95238, Note_off_c, 0, 70, 64
1, 95308, Note_on_c, 0, 75, 58
1, 95314, Note_on_c, 0, 34, 36
1, 95324, Note_on_c, 0, 66, 44
1, 95352, Note_off_c, 0, 75, 64
1, 95374, Note_off_c, 0, 66, 64
1, 95498, Note_on_c, 0, 68, 65
1, 95508, Note_on_c, 0, 59, 55
1, 95556, Note_off_c, 0, 59, 64
1, 95608, Note_off_c, 0, 68, 64
1, 95666, Note_on_c, 0, 46, 39
1, 95708, Note_on_c, 0, 58, 55
1, 95770, Control_c, 0, 64, 0
1, 95864, Note_on_c, 0, 70, 50
1, 95950, Note_off_c, 0, 58, 64
1, 96002, Control_c, 0, 64, 127
1, 96016, Note_off_c, 0, 34, 64
1, 96052, Note_off_c, 0, 70, 64
1, 96062, Note_on_c, 0, 71, 63
1, 96070, Note_off_c, 0, 46, 64
1, 96118, Note_off_c, 0, 71, 64
1, 96190, Note_on_c, 0, 70, 53
1, 96290, Note_off_c, 0, 70, 64
1, 96292, Note_on_c, 0, 71, 63
1, 96350, Note_off_c, 0, 71, 64
1, 96368, Note_on_c, 0, 70, 50
1, 96448, Note_on_c, 0, 71, 65
1, 96476, Note_off_c, 0, 70, 64
1, 96516, Note_off_c, 0, 71, 64
1, 96516, Note_on_c, 0, 58, 21
1, 96526, Note_on_c, 0, 62, 32
1, 96534, Note_on_c, 0, 70, 67
1, 96552, Note_on_c, 0, 53, 41
1, 96602, Note_on_c, 0, 50, 12
1, 96612, Note_on_c, 0, 71, 75
1, 96618, Note_off_c, 0, 70, 64
1, 96686, Note_off_c, 0, 50, 64
1, 96690, Note_on_c, 0, 70, 53
1, 96692, Note_off_c, 0, 71, 64
1, 96700, Note_off_c, 0, 53, 64
1, 96732, Note_off_c, 0, 62, 64
1, 96746, Note_off_c, 0, 70, 64
1, 96748, Note_off_c, 0, 58, 64
1, 96756, Note_on_c, 0, 71, 91
1, 96846, Note_off_c, 0, 71, 64
1, 96849, Note_on_c, 0, 70, 64
1, 96914, Note_off_c, 0, 70, 64
1, 96920, Note_on_c, 0, 71, 78
1, 96926, Note_on_c, 0, 58, 30
1, 96926, Note_on_c, 0, 62, 49
1, 96946, Note_on_c, 0, 53, 54
1, 96960, Note_on_c, 0, 50, 22
1, 96992, Note_off_c, 0, 71, 64
1, 97012, Note_on_c, 0, 70, 68
1, 97020, Note_off_c, 0, 62, 64
1, 97036, Note_off_c, 0, 53, 64
1, 97058, Note_off_c, 0, 50, 64
1, 97068, Note_off_c, 0, 70, 64
1, 97096, Note_on_c, 0, 71, 81
1, 97108, Note_off_c, 0, 58, 64
1, 97140, Note_off_c, 0, 71, 64
1, 97176, Note_on_c, 0, 70, 66
1, 97234, Note_off_c, 0, 70, 64
1, 97244, Note_on_c, 0, 71, 78
1, 97294, Note_off_c, 0, 71, 64
1, 97328, Note_on_c, 0, 70, 67
1, 97392, Note_off_c, 0, 70, 64
1, 97400, Note_on_c, 0, 71, 79
1, 97446, Note_off_c, 0, 71, 64
1, 97480, Note_on_c, 0, 70, 65
1, 97552, Note_off_c, 0, 70, 64
1, 97554, Note_on_c, 0, 71, 75
1, 97610, Note_on_c, 0, 46, 41
1, 97612, Note_on_c, 0, 34, 50
1, 97628, Note_off_c, 0, 71, 64
1, 97628, Note_on_c, 0, 70, 66
1, 97672, Note_off_c, 0, 34, 64
1, 97700, Note_off_c, 0, 46, 64
1, 97700, Note_off_c, 0, 70, 64
1, 97704, Note_on_c, 0, 71, 80
1, 97780, Note_off_c, 0, 71, 64
1, 97783, Note_on_c, 0, 70, 71
1, 97866, Note_on_c, 0, 71, 83
1, 97892, Note_off_c, 0, 70, 64
1, 97942, Note_on_c, 0, 70, 85
1, 97946, Note_off_c, 0, 71, 64
1, 98038, Note_on_c, 0, 75, 78
1, 98040, Note_on_c, 0, 46, 49
1, 98040, Note_on_c, 0, 71, 84
1, 98054, Note_off_c, 0, 70, 64
1, 98054, Note_on_c, 0, 34, 47
1, 98096, Note_off_c, 0, 71, 64
1, 98132, Note_on_c, 0, 70, 56
1, 98146, Note_on_c, 0, 74, 79
1, 98170, Note_off_c, 0, 75, 64
1, 98190, Note_off_c, 0, 46, 64
1, 98216, Note_off_c, 0, 74, 64
1, 98219, Note_off_c, 0, 34, 64
1, 98242, Note_on_c, 0, 75, 64
1, 98245, Note_on_c, 0, 71, 79
1, 98254, Note_off_c, 0, 70, 64
1, 98320, Note_off_c, 0, 71, 64
1, 98330, Note_on_c, 0, 74, 76
1, 98338, Note_on_c, 0, 70, 55
1, 98354, Note_off_c, 0, 75, 64
1, 98432, Note_on_c, 0, 75, 66
1, 98442, Note_on_c, 0, 71, 78
1, 98454, Note_off_c, 0, 74, 64
1, 98454, Note_off_c, 0, 70, 64
1, 98494, Note_off_c, 0, 71, 64
1, 98516, Note_on_c, 0, 74, 80
1, 98524, Note_on_c, 0, 70, 63
1, 98542, Note_off_c, 0, 75, 64
1, 98622, Note_on_c, 0, 75, 66
1, 98632, Note_on_c, 0, 71, 87
1, 98642, Note_off_c, 0, 74, 64
1, 98654, Note_off_c, 0, 70, 64
1, 98694, Note_on_c, 0, 65, 82
1, 98696, Note_on_c, 0, 58, 65
1, 98706, Note_on_c, 0, 53, 94
1, 98708, Note_off_c, 0, 71, 64
1, 98712, Note_on_c, 0, 74, 73
1, 98718, Note_on_c, 0, 70, 63
1, 98758, Note_off_c, 0, 75, 64
1, 98818, Note_off_c, 0, 74, 64
1, 98818, Note_on_c, 0, 75, 73
1, 98821, Note_on_c, 0, 71, 75
1, 98834, Note_off_c, 0, 53, 64
1, 98842, Note_off_c, 0, 70, 64
1, 98850, Note_off_c, 0, 65, 64
1, 98854, Note_off_c, 0, 58, 64
1, 98892, Note_on_c, 0, 74, 73
1, 98900, Note_on_c, 0, 70, 68
1, 98922, Note_off_c, 0, 71, 64
1, 98924, Note_off_c, 0, 75, 64
1, 99004, Note_on_c, 0, 71, 85
1, 99010, Note_on_c, 0, 75, 58
1, 99016, Note_off_c, 0, 74, 64
1, 99028, Note_off_c, 0, 70, 64
1, 99054, Note_on_c, 0, 65, 81
1, 99070, Note_on_c, 0, 58, 54
1, 99070, Note_on_c, 0, 53, 71
1, 99086, Note_on_c, 0, 74, 79
1, 99092, Note_off_c, 0, 65, 64
1, 99098, Note_on_c, 0, 70, 62
1, 99110, Note_off_c, 0, 71, 64
1, 99120, Note_off_c, 0, 53, 64
1, 99124, Note_off_c, 0, 58, 64
1, 99140, Note_off_c, 0, 75, 64
1, 99194, Note_off_c, 0, 74, 64
1, 99200, Note_on_c, 0, 71, 74
1, 99200, Note_on_c, 0, 75, 67
1, 99228, Note_off_c, 0, 70, 64
1, 99294, Note_on_c, 0, 74, 70
1, 99294, Note_on_c, 0, 70, 66
1, 99316, Note_off_c, 0, 71, 64
1, 99330, Note_off_c, 0, 75, 64
1, 99406, Note_on_c, 0, 71, 81
1, 99408, Note_off_c, 0, 74, 64
1, 99408, Note_on_c, 0, 75, 62
1, 99436, Note_off_c, 0, 70, 64
1, 99490, Note_on_c, 0, 74, 69
1, 99494, Note_on_c, 0, 70, 70
1, 99508, Note_off_c, 0, 71, 64
1, 99532, Note_off_c, 0, 75, 64
1, 99602, Note_on_c, 0, 75, 66
1, 99605, Note_on_c, 0, 71, 81
1, 99608, Note_off_c, 0, 74, 64
1, 99636, Note_off_c, 0, 70, 64
1, 99692, Note_on_c, 0, 74, 66
1, 99694, Note_on_c, 0, 70, 67
1, 99712, Note_off_c, 0, 71, 64
1, 99738, Note_off_c, 0, 75, 64
1, 99798, Note_on_c, 0, 75, 69
1, 99802, Note_off_c, 0, 74, 64
1, 99804, Note_on_c, 0, 71, 74
1, 99820, Note_on_c, 0, 44, 90
1, 99828, Note_on_c, 0, 32, 83
1, 99834, Note_off_c, 0, 70, 64
1, 99892, Note_on_c, 0, 74, 65
1, 99895, Note_on_c, 0, 70, 63
1, 99922, Note_off_c, 0, 71, 64
1, 99938, Note_off_c, 0, 75, 64
1, 99952, Note_off_c, 0, 44, 64
1, 100010, Note_on_c, 0, 75, 65
1, 100014, Note_on_c, 0, 71, 78
1, 100022, Note_off_c, 0, 74, 64
1, 100040, Note_off_c, 0, 70, 64
1, 100100, Note_on_c, 0, 74, 64
1, 100103, Note_on_c, 0, 70, 60
1, 100134, Note_off_c, 0, 71, 64
1, 100140, Note_off_c, 0, 75, 64
1, 100202, Note_on_c, 0, 75, 68
1, 100208, Note_on_c, 0, 71, 75
1, 100216, Note_off_c, 0, 74, 64
1, 100226, Note_off_c, 0, 70, 64
1, 100290, Note_on_c, 0, 74, 74
1, 100300, Note_on_c, 0, 70, 56
1, 100322, Note_off_c, 0, 32, 64
1, 100322, Note_off_c, 0, 71, 64
1, 100336, Note_off_c, 0, 75, 64
1, 100392, Note_on_c, 0, 30, 95
1, 100394, Note_on_c, 0, 42, 84
1, 100412, Control_c, 0, 64, 0
1, 100418, Note_on_c, 0, 75, 70
1, 100424, Note_on_c, 0, 71, 84
1, 100442, Note_off_c, 0, 74, 64
1, 100450, Note_off_c, 0, 70, 64
1, 100564, Note_off_c, 0, 71, 64
1, 100588, Note_on_c, 0, 70, 68
1, 100592, Note_on_c, 0, 73, 71
1, 100622, Note_off_c, 0, 75, 64
1, 100694, Note_on_c, 0, 75, 60
1, 100696, Note_off_c, 0, 30, 64
1, 100706, Note_on_c, 0, 71, 83
1, 100722, Note_off_c, 0, 70, 64
1, 100728, Note_off_c, 0, 73, 64
1, 100740, Control_c, 0, 64, 127
1, 100748, Note_off_c, 0, 42, 64
1, 100791, Note_off_c, 0, 71, 64
1, 100824, Note_on_c, 0, 73, 55
1, 100828, Note_on_c, 0, 70, 42
1, 100856, Note_off_c, 0, 75, 64
1, 100924, Note_on_c, 0, 49, 84
1, 100940, Note_on_c, 0, 75, 55
1, 100942, Note_on_c, 0, 71, 72
1, 100958, Note_off_c, 0, 70, 64
1, 100972, Note_off_c, 0, 73, 64
1, 101026, Note_off_c, 0, 71, 64
1, 101044, Note_on_c, 0, 73, 57
1, 101064, Note_on_c, 0, 70, 41
1, 101080, Note_off_c, 0, 75, 64
1, 101164, Note_on_c, 0, 75, 57
1, 101174, Note_on_c, 0, 71, 73
1, 101188, Note_off_c, 0, 70, 64
1, 101192, Note_off_c, 0, 73, 64
1, 101236, Note_off_c, 0, 71, 64
1, 101256, Note_on_c, 0, 56, 83
1, 101274, Note_on_c, 0, 73, 54
1, 101286, Note_on_c, 0, 70, 42
1, 101300, Note_off_c, 0, 75, 64
1, 101378, Note_on_c, 0, 75, 56
1, 101394, Note_on_c, 0, 71, 73
1, 101400, Note_off_c, 0, 73, 64
1, 101400, Note_off_c, 0, 70, 64
1, 101454, Note_off_c, 0, 71, 64
1, 101478, Note_on_c, 0, 73, 58
1, 101494, Note_on_c, 0, 70, 49
1, 101508, Note_off_c, 0, 75, 64
1, 101516, Note_off_c, 0, 56, 64
1, 101548, Note_on_c, 0, 54, 87
1, 101594, Note_on_c, 0, 75, 55
1, 101600, Note_on_c, 0, 71, 76
1, 101608, Note_off_c, 0, 73, 64
1, 101610, Note_off_c, 0, 70, 64
1, 101666, Note_off_c, 0, 71, 64
1, 101688, Note_on_c, 0, 73, 56
1, 101690, Note_on_c, 0, 56, 76
1, 101698, Note_on_c, 0, 70, 51
1, 101706, Note_off_c, 0, 54, 64
1, 101718, Note_off_c, 0, 75, 64
1, 101800, Note_on_c, 0, 75, 55
1, 101810, Note_off_c, 0, 73, 64
1, 101810, Note_on_c, 0, 71, 74
1, 101813, Note_off_c, 0, 70, 64
1, 101844, Note_on_c, 0, 58, 77
1, 101852, Note_off_c, 0, 56, 64
1, 101866, Note_off_c, 0, 71, 64
1, 101898, Note_on_c, 0, 70, 53
1, 101902, Note_on_c, 0, 73, 48
1, 101926, Note_off_c, 0, 75, 64
1, 101996, Note_on_c, 0, 75, 61
1, 102008, Note_on_c, 0, 71, 77
1, 102022, Note_off_c, 0, 70, 64
1, 102022, Note_off_c, 0, 73, 64
1, 102030, Note_off_c, 0, 49, 64
1, 102076, Note_off_c, 0, 71, 64
1, 102102, Note_on_c, 0, 70, 53
1, 102102, Note_on_c, 0, 73, 52
1, 102128, Note_on_c, 0, 49, 64
1, 102130, Note_off_c, 0, 75, 64
1, 102194, Note_on_c, 0, 75, 60
1, 102208, Note_off_c, 0, 70, 64
1, 102208, Note_off_c, 0, 73, 64
1, 102208, Note_on_c, 0, 71, 74
1, 102240, Note_off_c, 0, 58, 64
1, 102278, Note_on_c, 0, 70, 61
1, 102278, Note_on_c, 0, 73, 64
1, 102280, Note_off_c, 0, 71, 64
1, 102314, Note_off_c, 0, 75, 64
1, 102376, Note_on_c, 0, 75, 63
1, 102382, Note_on_c, 0, 71, 69
1, 102386, Note_off_c, 0, 70, 64
1, 102388, Note_off_c, 0, 73, 64
1, 102450, Note_on_c, 0, 42, 68
1, 102456, Note_on_c, 0, 73, 79
1, 102464, Note_on_c, 0, 70, 62
1, 102472, Note_off_c, 0, 49, 64
1, 102486, Control_c, 0, 64, 0
1, 102510, Note_off_c, 0, 71, 64
1, 102532, Note_off_c, 0, 75, 64
1, 102746, Control_c, 0, 64, 127
1, 102770, Note_on_c, 0, 69, 69
1, 102773, Note_on_c, 0, 72, 86
1, 102792, Note_on_c, 0, 49, 51
1, 102818, Note_off_c, 0, 70, 64
1, 102832, Note_off_c, 0, 42, 64
1, 102838, Note_off_c, 0, 73, 64
1, 102946, Note_off_c, 0, 69, 64
1, 102954, Note_off_c, 0, 72, 64
1, 103002, Note_on_c, 0, 73, 82
1, 103008, Note_on_c, 0, 70, 57
1, 103052, Note_off_c, 0, 70, 64
1, 103076, Note_on_c, 0, 56, 55
1, 103078, Note_off_c, 0, 49, 64
1, 103104, Note_off_c, 0, 73, 64
1, 103120, Note_on_c, 0, 70, 51
1, 103134, Note_on_c, 0, 73, 40
1, 103170, Note_off_c, 0, 70, 64
1, 103224, Note_on_c, 0, 77, 76
1, 103282, Note_on_c, 0, 75, 79
1, 103285, Note_on_c, 0, 71, 60
1, 103304, Note_off_c, 0, 73, 64
1, 103310, Note_off_c, 0, 56, 64
1, 103332, Note_on_c, 0, 54, 61
1, 103364, Note_off_c, 0, 77, 64
1, 103392, Control_c, 0, 64, 0
1, 103492, Note_on_c, 0, 56, 55
1, 103528, Note_off_c, 0, 71, 64
1, 103576, Control_c, 0, 64, 127
1, 103628, Note_on_c, 0, 70, 72
1, 103628, Note_on_c, 0, 73, 79
1, 103654, Note_on_c, 0, 58, 46
1, 103658, Note_off_c, 0, 56, 64
1, 103692, Note_off_c, 0, 75, 64
1, 103866, Note_off_c, 0, 70, 64
1, 103926, Note_off_c, 0, 54, 64
1, 103966, Note_off_c, 0, 58, 64
1, 103974, Note_on_c, 0, 70, 69
1, 103977, Note_on_c, 0, 66, 69
1, 103986, Note_on_c, 0, 61, 68
1, 104004, Note_off_c, 0, 73, 64
1, 104042, Note_off_c, 0, 61, 64
1, 104340, Note_on_c, 0, 78, 72
1, 104348, Note_off_c, 0, 66, 64
1, 104362, Note_on_c, 0, 75, 57
1, 104368, Note_on_c, 0, 42, 39
1, 104376, Control_c, 0, 64, 0
1, 104432, Note_off_c, 0, 70, 64
1, 104760, Control_c, 0, 64, 127
1, 104884, Note_on_c, 0, 49, 42
1, 104910, Note_off_c, 0, 42, 64
1, 105054, Note_off_c, 0, 75, 64
1, 105110, Note_on_c, 0, 77, 76
1, 105114, Note_on_c, 0, 73, 49
1, 105152, Note_off_c, 0, 78, 64
1, 105276, Note_off_c, 0, 73, 64
1, 105302, Note_off_c, 0, 49, 64
1, 105310, Note_on_c, 0, 75, 73
1, 105316, Note_on_c, 0, 71, 72
1, 105324, Note_on_c, 0, 56, 41
1, 105346, Note_off_c, 0, 77, 64
1, 105430, Note_off_c, 0, 71, 64
1, 105480, Note_on_c, 0, 73, 63
1, 105482, Note_on_c, 0, 77, 83
1, 105520, Note_off_c, 0, 75, 64
1, 105532, Note_off_c, 0, 77, 64
1, 105538, Note_off_c, 0, 73, 64
1, 105546, Note_off_c, 0, 56, 64
1, 105648, Note_on_c, 0, 77, 72
1, 105658, Note_on_c, 0, 73, 60
1, 105661, Note_on_c, 0, 54, 43
1, 105792, Note_off_c, 0, 54, 64
1, 105804, Note_on_c, 0, 75, 75
1, 105807, Note_off_c, 0, 73, 64
1, 105814, Note_on_c, 0, 71, 71
1, 105820, Note_off_c, 0, 77, 64
1, 105826, Note_on_c, 0, 56, 45
1, 105904, Note_off_c, 0, 71, 64
1, 105952, Note_off_c, 0, 56, 64
1, 105974, Note_on_c, 0, 70, 50
1, 105980, Note_on_c, 0, 73, 66
1, 105984, Note_off_c, 0, 75, 64
1, 105992, Note_on_c, 0, 58, 32
1, 106050, Note_off_c, 0, 70, 64
1, 106122, Note_on_c, 0, 75, 76
1, 106128, Note_on_c, 0, 71, 63
1, 106154, Note_off_c, 0, 73, 64
1, 106174, Note_off_c, 0, 71, 64
1, 106182, Note_off_c, 0, 75, 64
1, 106254, Note_off_c, 0, 58, 64
1, 106264, Note_on_c, 0, 75, 62
1, 106266, Note_on_c, 0, 71, 54
1, 106292, Note_on_c, 0, 49, 37
1, 106366, Note_off_c, 0, 71, 64
1, 106434, Note_on_c, 0, 73, 70
1, 106438, Note_on_c, 0, 70, 56
1, 106480, Note_off_c, 0, 75, 64
1, 106490, Note_off_c, 0, 70, 64
1, 106505, Note_off_c, 0, 49, 64
1, 106612, Note_on_c, 0, 42, 30
1, 106615, Note_on_c, 0, 66, 76
1, 106634, Control_c, 0, 64, 0
1, 106640, Note_on_c, 0, 70, 63
1, 106690, Note_off_c, 0, 73, 64
1, 106984, Note_on_c, 0, 49, 34
1, 107018, Control_c, 0, 64, 127
1, 107024, Note_off_c, 0, 42, 64
1, 107280, Note_off_c, 0, 49, 64
1, 107362, Note_on_c, 0, 56, 33
1, 107646, Note_off_c, 0, 56, 64
1, 107666, Note_on_c, 0, 63, 74
1, 107672, Note_on_c, 0, 54, 42
1, 107772, Note_off_c, 0, 66, 64
1, 107954, Note_on_c, 0, 56, 36
1, 107966, Note_on_c, 0, 64, 87
1, 107980, Note_off_c, 0, 63, 64
1, 108142, Note_on_c, 0, 66, 65
1, 108158, Note_on_c, 0, 58, 38
1, 108176, Note_off_c, 0, 64, 64
1, 108186, Note_off_c, 0, 56, 64
1, 108314, Note_on_c, 0, 64, 89
1, 108372, Note_off_c, 0, 66, 64
1, 108390, Note_on_c, 0, 61, 39
1, 108478, Note_on_c, 0, 68, 78
1, 108512, Note_off_c, 0, 64, 64
1, 108512, Note_off_c, 0, 61, 64
1, 108524, Note_off_c, 0, 58, 64
1, 108554, Note_off_c, 0, 54, 64
1, 108572, Note_off_c, 0, 70, 64
1, 108642, Note_on_c, 0, 66, 73
1, 108682, Note_off_c, 0, 68, 64
1, 108730, Note_on_c, 0, 42, 35
1, 108770, Control_c, 0, 64, 0
1, 108868, Note_on_c, 0, 63, 81
1, 108892, Note_off_c, 0, 66, 64
1, 109016, Control_c, 0, 64, 127
1, 109048, Note_on_c, 0, 71, 77
1, 109051, Note_off_c, 0, 63, 64
1, 109114, Note_off_c, 0, 42, 64
1, 109244, Note_off_c, 0, 71, 64
1, 109250, Note_on_c, 0, 78, 71
1, 109312, Note_on_c, 0, 54, 48
1, 109394, Note_off_c, 0, 78, 64
1, 109552, Note_off_c, 0, 54, 64
1, 109554, Note_on_c, 0, 61, 60
1, 109778, Note_off_c, 0, 61, 64
1, 109840, Note_on_c, 0, 59, 30
1, 109854, Note_on_c, 0, 78, 68
1, 109858, Note_on_c, 0, 75, 60
1, 109912, Note_off_c, 0, 75, 64
1, 109948, Note_off_c, 0, 59, 64
1, 109980, Note_on_c, 0, 80, 61
1, 109983, Note_off_c, 0, 78, 64
1, 109986, Note_on_c, 0, 77, 54
1, 110006, Note_on_c, 0, 61, 41
1, 110040, Note_off_c, 0, 77, 64
1, 110060, Note_off_c, 0, 80, 64
1, 110062, Note_on_c, 0, 78, 59
1, 110088, Note_on_c, 0, 75, 56
1, 110110, Note_off_c, 0, 61, 64
1, 110162, Note_off_c, 0, 75, 64
1, 110178, Note_on_c, 0, 63, 66
1, 110184, Note_off_c, 0, 78, 64
1, 110188, Note_on_c, 0, 80, 63
1, 110194, Note_on_c, 0, 77, 59
1, 110256, Note_off_c, 0, 77, 64
1, 110280, Note_on_c, 0, 78, 61
1, 110314, Note_on_c, 0, 75, 41
1, 110318, Note_off_c, 0, 80, 64
1, 110368, Note_off_c, 0, 75, 64
1, 110378, Note_on_c, 0, 80, 70
1, 110386, Note_on_c, 0, 77, 68
1, 110400, Note_off_c, 0, 78, 64
1, 110436, Note_off_c, 0, 77, 64
1, 110444, Note_off_c, 0, 63, 64
1, 110472, Note_on_c, 0, 78, 64
1, 110490, Note_on_c, 0, 54, 73
1, 110490, Note_on_c, 0, 75, 47
1, 110512, Note_off_c, 0, 80, 64
1, 110578, Note_on_c, 0, 80, 66
1, 110580, Note_off_c, 0, 75, 64
1, 110592, Note_on_c, 0, 77, 66
1, 110600, Note_off_c, 0, 78, 64
1, 110636, Note_off_c, 0, 77, 64
1, 110646, Note_off_c, 0, 54, 64
1, 110686, Note_on_c, 0, 78, 58
1, 110700, Note_on_c, 0, 75, 51
1, 110714, Note_off_c, 0, 80, 64
1, 110784, Note_off_c, 0, 75, 64
1, 110788, Note_on_c, 0, 80, 59
1, 110802, Note_on_c, 0, 77, 67
1, 110808, Note_off_c, 0, 78, 64
1, 110822, Note_on_c, 0, 42, 64
1, 110856, Note_off_c, 0, 77, 64
1, 110882, Note_on_c, 0, 78, 61
1, 110898, Note_on_c, 0, 75, 54
1, 110914, Note_off_c, 0, 80, 64
1, 110996, Note_on_c, 0, 80, 57
1, 111010, Note_off_c, 0, 42, 64
1, 111012, Note_on_c, 0, 77, 64
1, 111024, Note_off_c, 0, 75, 64
1, 111028, Note_off_c, 0, 78, 64
1, 111066, Note_off_c, 0, 77, 64
1, 111086, Note_on_c, 0, 78, 70
1, 111094, Note_on_c, 0, 75, 61
1, 111120, Note_on_c, 0, 54, 81
1, 111123, Note_off_c, 0, 80, 64
1, 111204, Note_on_c, 0, 80, 58
1, 111218, Note_off_c, 0, 75, 64
1, 111222, Note_on_c, 0, 77, 64
1, 111230, Note_off_c, 0, 78, 64
1, 111282, Note_off_c, 0, 77, 64
1, 111304, Note_on_c, 0, 75, 52
1, 111306, Note_on_c, 0, 78, 59
1, 111340, Note_off_c, 0, 80, 64
1, 111368, Note_off_c, 0, 54, 64
1, 111406, Note_on_c, 0, 61, 75
1, 111409, Note_on_c, 0, 80, 61
1, 111420, Note_off_c, 0, 75, 64
1, 111422, Note_on_c, 0, 77, 70
1, 111432, Note_off_c, 0, 78, 64
1, 111484, Note_off_c, 0, 77, 64
1, 111500, Note_on_c, 0, 78, 63
1, 111503, Note_on_c, 0, 75, 54
1, 111540, Note_off_c, 0, 80, 64
1, 111596, Note_off_c, 0, 61, 64
1, 111608, Note_on_c, 0, 80, 59
1, 111622, Note_on_c, 0, 77, 63
1, 111624, Note_off_c, 0, 75, 64
1, 111634, Note_off_c, 0, 78, 64
1, 111680, Note_on_c, 0, 59, 83
1, 111688, Note_off_c, 0, 77, 64
1, 111698, Note_on_c, 0, 75, 61
1, 111706, Note_on_c, 0, 78, 61
1, 111738, Note_off_c, 0, 80, 64
1, 111806, Note_on_c, 0, 61, 84
1, 111809, Note_on_c, 0, 80, 60
1, 111828, Note_off_c, 0, 78, 64
1, 111831, Note_off_c, 0, 59, 64
1, 111834, Note_on_c, 0, 77, 60
1, 111836, Note_off_c, 0, 75, 64
1, 111888, Note_off_c, 0, 77, 64
1, 111900, Note_on_c, 0, 78, 59
1, 111900, Note_on_c, 0, 75, 65
1, 111936, Note_off_c, 0, 80, 64
1, 111968, Note_on_c, 0, 63, 90
1, 112008, Note_on_c, 0, 80, 54
1, 112020, Note_off_c, 0, 75, 64
1, 112024, Note_off_c, 0, 61, 64
1, 112028, Note_off_c, 0, 78, 64
1, 112036, Note_on_c, 0, 77, 65
1, 112118, Note_on_c, 0, 75, 59
1, 112126, Note_on_c, 0, 78, 60
1, 112164, Note_off_c, 0, 77, 64
1, 112180, Note_off_c, 0, 63, 64
1, 112198, Note_off_c, 0, 80, 64
1, 112218, Note_off_c, 0, 75, 64
1, 112258, Note_on_c, 0, 74, 86
1, 112261, Note_on_c, 0, 77, 63
1, 112272, Note_on_c, 0, 66, 70
1, 112288, Note_off_c, 0, 78, 64
1, 112382, Note_off_c, 0, 66, 64
1, 112394, Note_off_c, 0, 77, 64
1, 112432, Note_on_c, 0, 78, 84
1, 112442, Note_on_c, 0, 75, 76
1, 112538, Note_off_c, 0, 75, 64
1, 112558, Note_off_c, 0, 78, 64
1, 112656, Note_on_c, 0, 80, 86
1, 112658, Note_on_c, 0, 83, 113
1, 112658, Note_on_c, 0, 42, 44
1, 112688, Note_off_c, 0, 74, 64
1, 112718, Control_c, 0, 64, 0
1, 112948, Control_c, 0, 64, 127
1, 112956, Note_off_c, 0, 42, 64
1, 113088, Note_on_c, 0, 54, 58
1, 113178, Note_off_c, 0, 80, 64
1, 113256, Note_on_c, 0, 82, 76
1, 113256, Note_on_c, 0, 78, 76
1, 113320, Note_off_c, 0, 83, 64
1, 113396, Note_off_c, 0, 78, 64
1, 113422, Note_off_c, 0, 54, 64
1, 113454, Note_on_c, 0, 61, 53
1, 113456, Note_on_c, 0, 80, 81
1, 113462, Note_on_c, 0, 77, 78
1, 113490, Note_off_c, 0, 82, 64
1, 113556, Note_off_c, 0, 80, 64
1, 113572, Note_off_c, 0, 77, 64
1, 113620, Note_on_c, 0, 82, 83
1, 113625, Note_on_c, 0, 78, 78
1, 113682, Note_off_c, 0, 61, 64
1, 113685, Note_off_c, 0, 78, 64
1, 113726, Note_off_c, 0, 82, 64
1, 113836, Note_on_c, 0, 82, 55
1, 113838, Note_on_c, 0, 78, 72
1, 113840, Note_on_c, 0, 59, 35
1, 113856, Control_c, 0, 64, 0
1, 114022, Note_off_c, 0, 82, 64
1, 114024, Control_c, 0, 64, 127
1, 114054, Note_off_c, 0, 78, 64
1, 114056, Note_on_c, 0, 73, 63
1, 114058, Note_on_c, 0, 70, 46
1, 114074, Note_off_c, 0, 59, 64
1, 114077, Note_on_c, 0, 61, 39
1, 114166, Note_off_c, 0, 61, 64
1, 114174, Note_off_c, 0, 70, 64
1, 114232, Note_off_c, 0, 73, 64
1, 114254, Note_on_c, 0, 77, 65
1, 114260, Note_on_c, 0, 80, 64
1, 114276, Note_on_c, 0, 63, 47
1, 114296, Note_off_c, 0, 77, 64
1, 114306, Note_off_c, 0, 80, 64
1, 114430, Note_on_c, 0, 68, 48
1, 114435, Note_on_c, 0, 71, 67
1, 114478, Note_off_c, 0, 63, 64
1, 114532, Note_off_c, 0, 71, 64
1, 114552, Note_off_c, 0, 68, 64
1, 114588, Note_on_c, 0, 78, 60
1, 114616, Note_on_c, 0, 75, 45
1, 114628, Note_on_c, 0, 54, 47
1, 114682, Note_off_c, 0, 75, 64
1, 114724, Note_off_c, 0, 54, 64
1, 114726, Note_off_c, 0, 78, 64
1, 114762, Note_on_c, 0, 72, 62
1, 114768, Note_on_c, 0, 69, 39
1, 114782, Note_on_c, 0, 54, 7
1, 114842, Note_off_c, 0, 69, 64
1, 114934, Note_off_c, 0, 54, 64
1, 115032, Note_on_c, 0, 75, 68
1, 115035, Note_on_c, 0, 71, 59
1, 115052, Note_on_c, 0, 42, 34
1, 115054, Control_c, 0, 64, 0
1, 115070, Note_off_c, 0, 72, 64
1, 115346, Control_c, 0, 64, 127
1, 115464, Note_off_c, 0, 71, 64
1, 115492, Note_on_c, 0, 73, 58
1, 115495, Note_off_c, 0, 42, 64
1, 115499, Note_on_c, 0, 70, 35
1, 115524, Note_on_c, 0, 49, 28
1, 115532, Note_off_c, 0, 75, 64
1, 115690, Note_off_c, 0, 70, 64
1, 115790, Note_off_c, 0, 49, 64
1, 115838, Note_on_c, 0, 56, 38
1, 115838, Note_on_c, 0, 68, 53
1, 115841, Note_on_c, 0, 61, 49
1, 115878, Note_off_c, 0, 73, 64
1, 116118, Note_off_c, 0, 56, 64
1, 116130, Note_off_c, 0, 61, 64
1, 116158, Note_on_c, 0, 54, 49
1, 116168, Note_on_c, 0, 70, 45
1, 116184, Note_on_c, 0, 66, 32
1, 116238, Note_off_c, 0, 68, 64
1, 116320, Note_on_c, 0, 56, 48
1, 116362, Note_off_c, 0, 54, 64
1, 116480, Note_on_c, 0, 58, 36
1, 116490, Note_off_c, 0, 56, 64
1, 116576, Control_c, 0, 64, 0
1, 116744, Control_c, 0, 64, 127
1, 116750, Note_off_c, 0, 58, 64
1, 116770, Note_off_c, 0, 70, 64
1, 116786, Note_on_c, 0, 49, 42
1, 116790, Note_off_c, 0, 66, 64
1, 116880, Note_off_c, 0, 49, 64
1, 116926, Note_on_c, 0, 70, 50
1, 116934, Note_on_c, 0, 64, 66
1, 116994, Note_off_c, 0, 64, 64
1, 117118, Note_off_c, 0, 70, 64
1, 117206, Note_on_c, 0, 80, 76
1, 117236, Note_on_c, 0, 30, 38
1, 117380, Note_off_c, 0, 30, 64
1, 117508, Note_off_c, 0, 80, 64
1, 117588, Note_on_c, 0, 49, 48
1, 117920, Note_on_c, 0, 56, 56
1, 118172, Note_off_c, 0, 56, 64
1, 118196, Note_on_c, 0, 54, 62
1, 118196, Note_on_c, 0, 70, 61
1, 118196, Note_on_c, 0, 80, 80
1, 118210, Note_on_c, 0, 76, 56
1, 118334, Note_on_c, 0, 56, 55
1, 118342, Note_off_c, 0, 54, 64
1, 118480, Note_off_c, 0, 56, 64
1, 118480, Note_on_c, 0, 58, 47
1, 118572, Control_c, 0, 64, 0
1, 118742, Control_c, 0, 64, 127
1, 118745, Note_off_c, 0, 49, 64
1, 118852, Note_on_c, 0, 49, 44
1, 118944, Note_off_c, 0, 58, 64
1, 119210, Note_on_c, 0, 42, 39
1, 119236, Note_off_c, 0, 49, 64
1, 119398, Note_off_c, 0, 70, 64
1, 119402, Note_off_c, 0, 76, 64
1, 119534, Note_on_c, 0, 70, 60
1, 119542, Note_on_c, 0, 78, 69
1, 119544, Note_off_c, 0, 42, 64
1, 119552, Note_on_c, 0, 75, 45
1, 119558, Note_on_c, 0, 49, 36
1, 119590, Note_off_c, 0, 80, 64
1, 119602, Note_off_c, 0, 75, 64
1, 119604, Note_off_c, 0, 78, 64
1, 119642, Note_off_c, 0, 70, 64
1, 119878, Note_on_c, 0, 68, 49
1, 119888, Note_on_c, 0, 70, 41
1, 119891, Note_on_c, 0, 76, 62
1, 119902, Note_on_c, 0, 54, 39
1, 119908, Note_on_c, 0, 61, 13
1, 119960, Note_off_c, 0, 70, 64
1, 119960, Note_off_c, 0, 54, 64
1, 119960, Note_off_c, 0, 61, 64
1, 120000, Note_off_c, 0, 49, 64
1, 120032, Note_off_c, 0, 76, 64
1, 120044, Note_off_c, 0, 68, 64
1, 120188, Note_on_c, 0, 75, 62
1, 120198, Note_on_c, 0, 66, 38
1, 120200, Note_on_c, 0, 35, 60
1, 120214, Note_on_c, 0, 71, 30
1, 120240, Note_off_c, 0, 75, 64
1, 120272, Note_off_c, 0, 66, 64
1, 120286, Note_off_c, 0, 71, 64
1, 120352, Note_on_c, 0, 73, 63
1, 120366, Note_on_c, 0, 64, 61
1, 120410, Note_off_c, 0, 64, 64
1, 120470, Note_off_c, 0, 73, 64
1, 120520, Note_on_c, 0, 42, 41
1, 120542, Note_on_c, 0, 63, 59
1, 120546, Note_on_c, 0, 71, 69
1, 120570, Control_c, 0, 64, 0
1, 120574, Note_on_c, 0, 66, 15
1, 120616, Note_off_c, 0, 35, 64
1, 120686, Note_off_c, 0, 66, 64
1, 120689, Note_off_c, 0, 63, 64
1, 120724, Note_off_c, 0, 71, 64
1, 120724, Control_c, 0, 64, 127
1, 120776, Note_on_c, 0, 54, 73
1, 120828, Note_off_c, 0, 54, 64
1, 120878, Note_off_c, 0, 42, 64
1, 120944, Note_on_c, 0, 72, 86
1, 120948, Note_on_c, 0, 66, 63
1, 121016, Control_c, 0, 64, 0
1, 121094, Note_off_c, 0, 66, 64
1, 121102, Note_on_c, 0, 44, 63
1, 121106, Note_on_c, 0, 32, 51
1, 121128, Note_off_c, 0, 72, 64
1, 121168, Control_c, 0, 64, 127
1, 121210, Note_on_c, 0, 82, 87
1, 121234, Note_off_c, 0, 32, 64
1, 121280, Note_off_c, 0, 44, 64
1, 121352, Note_off_c, 0, 82, 64
1, 121480, Note_on_c, 0, 51, 79
1, 121802, Note_on_c, 0, 58, 67
1, 122016, Note_off_c, 0, 58, 64
1, 122096, Note_on_c, 0, 56, 58
1, 122098, Note_on_c, 0, 82, 89
1, 122112, Note_on_c, 0, 72, 68
1, 122112, Note_on_c, 0, 78, 69
1, 122248, Note_on_c, 0, 58, 60
1, 122282, Note_off_c, 0, 56, 64
1, 122392, Note_on_c, 0, 60, 71
1, 122426, Note_off_c, 0, 58, 64
1, 122444, Control_c, 0, 64, 0
1, 122602, Note_off_c, 0, 51, 64
1, 122630, Control_c, 0, 64, 127
1, 122750, Note_on_c, 0, 51, 71
1, 122782, Note_off_c, 0, 60, 64
1, 123068, Note_on_c, 0, 44, 79
1, 123112, Note_off_c, 0, 51, 64
1, 123166, Control_c, 0, 64, 0
1, 123198, Note_off_c, 0, 78, 64
1, 123220, Note_off_c, 0, 72, 64
1, 123304, Control_c, 0, 64, 127
1, 123350, Note_on_c, 0, 80, 90
1, 123353, Note_on_c, 0, 72, 77
1, 123362, Note_on_c, 0, 77, 74
1, 123364, Note_on_c, 0, 51, 63
1, 123378, Note_off_c, 0, 44, 64
1, 123396, Note_off_c, 0, 72, 64
1, 123398, Note_off_c, 0, 77, 64
1, 123420, Note_off_c, 0, 82, 64
1, 123436, Note_off_c, 0, 80, 64
1, 123642, Note_on_c, 0, 63, 62
1, 123642, Note_on_c, 0, 78, 90
1, 123652, Note_on_c, 0, 70, 63
1, 123660, Note_on_c, 0, 72, 68
1, 123668, Note_on_c, 0, 56, 53
1, 123690, Note_off_c, 0, 63, 64
1, 123724, Note_off_c, 0, 70, 64
1, 123727, Note_off_c, 0, 56, 64
1, 123776, Note_off_c, 0, 72, 64
1, 123794, Note_off_c, 0, 78, 64
1, 123800, Note_off_c, 0, 51, 64
1, 123928, Note_on_c, 0, 77, 87
1, 123934, Note_on_c, 0, 73, 57
1, 123938, Note_on_c, 0, 68, 64
1, 123940, Note_on_c, 0, 37, 70
1, 123980, Note_off_c, 0, 73, 64
1, 123982, Note_off_c, 0, 68, 64
1, 124088, Note_on_c, 0, 75, 82
1, 124091, Note_on_c, 0, 66, 66
1, 124120, Note_off_c, 0, 77, 64
1, 124184, Note_off_c, 0, 66, 64
1, 124240, Note_on_c, 0, 44, 50
1, 124246, Note_on_c, 0, 73, 75
1, 124268, Note_on_c, 0, 68, 42
1, 124268, Note_on_c, 0, 65, 42
1, 124270, Note_off_c, 0, 75, 64
1, 124274, Control_c, 0, 64, 0
1, 124390, Note_off_c, 0, 37, 64
1, 124416, Note_off_c, 0, 68, 64
1, 124442, Control_c, 0, 64, 127
1, 124450, Note_off_c, 0, 65, 64
1, 124498, Note_off_c, 0, 73, 64
1, 124564, Note_on_c, 0, 68, 83
1, 124566, Note_on_c, 0, 56, 67
1, 124568, Note_on_c, 0, 77, 94
1, 124570, Note_on_c, 0, 73, 59
1, 124626, Note_off_c, 0, 68, 64
1, 124648, Note_off_c, 0, 73, 64
1, 124652, Note_off_c, 0, 77, 64
1, 124682, Note_off_c, 0, 56, 64
1, 124728, Note_on_c, 0, 77, 81
1, 124736, Note_off_c, 0, 44, 64
1, 124740, Note_on_c, 0, 68, 67
1, 124794, Note_off_c, 0, 68, 64
1, 124848, Note_on_c, 0, 37, 90
1, 124860, Note_on_c, 0, 83, 117
1, 125130, Note_on_c, 0, 44, 79
1, 125158, Note_off_c, 0, 37, 64
1, 125230, Note_off_c, 0, 83, 64
1, 125246, Note_off_c, 0, 44, 64
1, 125418, Note_on_c, 0, 56, 78
1, 125528, Note_off_c, 0, 56, 64
1, 125534, Note_on_c, 0, 76, 84
1, 125544, Note_on_c, 0, 68, 71
1, 125594, Note_off_c, 0, 77, 64
1, 125600, Note_off_c, 0, 68, 64
1, 125700, Note_on_c, 0, 83, 112
1, 125702, Note_on_c, 0, 38, 98
1, 125762, Control_c, 0, 64, 0
1, 125968, Note_on_c, 0, 44, 80
1, 126000, Note_off_c, 0, 38, 64
1, 126010, Control_c, 0, 64, 127
1, 126064, Note_off_c, 0, 83, 64
1, 126074, Note_off_c, 0, 44, 64
1, 126140, Note_off_c, 0, 76, 64
1, 126212, Note_on_c, 0, 56, 81
1, 126298, Note_on_c, 0, 75, 92
1, 126306, Note_on_c, 0, 68, 78
1, 126324, Note_off_c, 0, 56, 64
1, 126370, Note_off_c, 0, 68, 64
1, 126512, Note_on_c, 0, 83, 120
1, 126518, Note_on_c, 0, 39, 87
1, 126546, Control_c, 0, 64, 0
1, 126722, Note_off_c, 0, 83, 64
1, 126746, Control_c, 0, 64, 127
1, 126748, Note_off_c, 0, 75, 64
1, 126804, Note_on_c, 0, 85, 85
1, 126812, Note_on_c, 0, 76, 77
1, 126890, Note_off_c, 0, 85, 64
1, 126930, Note_on_c, 0, 83, 110
1, 126936, Note_on_c, 0, 75, 73
1, 126950, Note_on_c, 0, 51, 78
1, 126968, Note_off_c, 0, 76, 64
1, 126986, Note_off_c, 0, 39, 64
1, 127048, Note_off_c, 0, 51, 64
1, 127256, Note_on_c, 0, 63, 86
1, 127258, Note_off_c, 0, 75, 64
1, 127268, Note_off_c, 0, 83, 64
1, 127272, Note_on_c, 0, 56, 69
1, 127326, Note_off_c, 0, 63, 64
1, 127360, Note_off_c, 0, 56, 64
1, 127384, Note_on_c, 0, 82, 88
1, 127396, Note_on_c, 0, 73, 73
1, 127434, Note_off_c, 0, 82, 64
1, 127436, Note_off_c, 0, 73, 64
1, 127534, Note_on_c, 0, 82, 93
1, 127537, Note_on_c, 0, 73, 64
1, 127548, Note_on_c, 0, 39, 81
1, 127576, Control_c, 0, 64, 0
1, 127690, Note_off_c, 0, 73, 64
1, 127730, Note_off_c, 0, 82, 64
1, 127756, Note_on_c, 0, 75, 60
1, 127760, Note_on_c, 0, 83, 92
1, 127760, Control_c, 0, 64, 127
1, 127822, Note_on_c, 0, 82, 75
1, 127824, Note_on_c, 0, 73, 83
1, 127827, Note_on_c, 0, 51, 79
1, 127830, Note_off_c, 0, 39, 64
1, 127878, Note_off_c, 0, 51, 64
1, 127888, Note_off_c, 0, 75, 64
1, 127896, Note_off_c, 0, 83, 64
1, 127930, Note_off_c, 0, 73, 64
1, 127960, Note_off_c, 0, 82, 64
1, 128122, Note_on_c, 0, 75, 89
1, 128127, Note_on_c, 0, 63, 73
1, 128127, Note_on_c, 0, 67, 84
1, 128138, Note_on_c, 0, 61, 64
1, 128142, Note_on_c, 0, 73, 55
1, 128152, Note_on_c, 0, 58, 48
1, 128178, Note_off_c, 0, 63, 64
1, 128188, Note_off_c, 0, 61, 64
1, 128194, Note_off_c, 0, 73, 64
1, 128208, Note_off_c, 0, 67, 64
1, 128210, Note_off_c, 0, 58, 64
1, 128422, Control_c, 0, 64, 0
1, 128425, Note_on_c, 0, 80, 92
1, 128425, Note_on_c, 0, 44, 88
1, 128428, Note_on_c, 0, 73, 79
1, 128430, Note_on_c, 0, 68, 82
1, 128460, Note_off_c, 0, 75, 64
1, 128600, Note_off_c, 0, 80, 64
1, 128636, Control_c, 0, 64, 127
1, 128638, Note_off_c, 0, 73, 64
1, 128674, Note_off_c, 0, 44, 64
1, 128710, Note_on_c, 0, 75, 77
1, 128744, Note_on_c, 0, 51, 66
1, 128746, Note_on_c, 0, 73, 69
1, 128862, Note_off_c, 0, 75, 64
1, 128936, Note_off_c, 0, 68, 64
1, 129012, Note_off_c, 0, 73, 64
1, 129030, Note_on_c, 0, 63, 76
1, 129033, Note_on_c, 0, 71, 98
1, 129040, Note_on_c, 0, 56, 68
1, 129106, Note_off_c, 0, 63, 64
1, 129154, Note_off_c, 0, 56, 64
1, 129188, Note_off_c, 0, 71, 64
1, 129218, Note_off_c, 0, 51, 64
1, 129296, Note_on_c, 0, 75, 88
1, 129306, Note_on_c, 0, 46, 84
1, 129306, Note_on_c, 0, 71, 89
1, 129308, Note_on_c, 0, 67, 83
1, 129328, Control_c, 0, 64, 0
1, 129504, Note_off_c, 0, 71, 64
1, 129528, Control_c, 0, 64, 127
1, 129546, Note_off_c, 0, 46, 64
1, 129556, Note_on_c, 0, 73, 73
1, 129584, Note_on_c, 0, 71, 87
1, 129592, Note_on_c, 0, 51, 81
1, 129672, Note_off_c, 0, 51, 64
1, 129708, Note_off_c, 0, 67, 64
1, 129710, Note_off_c, 0, 75, 64
1, 129826, Note_off_c, 0, 73, 64
1, 129864, Note_on_c, 0, 70, 79
1, 129867, Note_off_c, 0, 71, 64
1, 129872, Note_on_c, 0, 61, 73
1, 129872, Note_on_c, 0, 63, 77
1, 129912, Note_off_c, 0, 63, 64
1, 129918, Note_off_c, 0, 61, 64
1, 130056, Note_off_c, 0, 70, 64
1, 130146, Note_on_c, 0, 75, 90
1, 130146, Note_on_c, 0, 70, 58
1, 130154, Note_on_c, 0, 47, 94
1, 130158, Note_on_c, 0, 63, 86
1, 130356, Control_c, 0, 64, 0
1, 130484, Note_on_c, 0, 68, 81
1, 130494, Note_on_c, 0, 51, 76
1, 130526, Note_off_c, 0, 47, 64
1, 130534, Note_off_c, 0, 63, 64
1, 130546, Control_c, 0, 64, 127
1, 130551, Note_off_c, 0, 70, 64
1, 130676, Note_off_c, 0, 51, 64
1, 130684, Note_off_c, 0, 68, 64
1, 130702, Note_off_c, 0, 75, 64
1, 130778, Note_on_c, 0, 77, 101
1, 130784, Note_on_c, 0, 63, 79
1, 130798, Note_on_c, 0, 56, 60
1, 130858, Note_off_c, 0, 63, 64
1, 130880, Note_off_c, 0, 56, 64
1, 130892, Note_off_c, 0, 77, 64
1, 131128, Note_on_c, 0, 78, 90
1, 131134, Note_on_c, 0, 48, 92
1, 131138, Note_on_c, 0, 68, 78
1, 131148, Note_on_c, 0, 75, 58
1, 131202, Control_c, 0, 64, 0
1, 131242, Note_on_c, 0, 80, 77
1, 131262, Note_off_c, 0, 78, 64
1, 131312, Note_off_c, 0, 75, 64
1, 131348, Note_off_c, 0, 80, 64
1, 131351, Note_on_c, 0, 78, 42
1, 131356, Control_c, 0, 64, 127
1, 131378, Note_on_c, 0, 75, 14
1, 131414, Note_on_c, 0, 80, 64
1, 131434, Note_off_c, 0, 78, 64
1, 131452, Note_off_c, 0, 68, 64
1, 131468, Note_off_c, 0, 75, 64
1, 131518, Note_off_c, 0, 48, 64
1, 131518, Note_on_c, 0, 78, 78
1, 131578, Note_on_c, 0, 56, 69
1, 131578, Note_on_c, 0, 77, 100
1, 131598, Note_off_c, 0, 80, 64
1, 131644, Note_off_c, 0, 78, 64
1, 131690, Note_off_c, 0, 77, 64
1, 131694, Note_off_c, 0, 56, 64
1, 131766, Note_on_c, 0, 78, 92
1, 131778, Note_on_c, 0, 68, 75
1, 131830, Note_off_c, 0, 68, 64
1, 131904, Note_off_c, 0, 78, 64
1, 131956, Note_on_c, 0, 63, 79
1, 131956, Note_on_c, 0, 66, 65
1, 131956, Note_on_c, 0, 75, 92
1, 131970, Note_on_c, 0, 68, 63
1, 132004, Note_off_c, 0, 66, 64
1, 132007, Note_off_c, 0, 63, 64
1, 132024, Note_off_c, 0, 68, 64
1, 132106, Note_off_c, 0, 75, 64
1, 132202, Note_on_c, 0, 80, 98
1, 132216, Note_on_c, 0, 68, 82
1, 132320, Note_off_c, 0, 80, 64
1, 132328, Note_off_c, 0, 68, 64
1, 132576, Note_on_c, 0, 68, 79
1, 132584, Note_on_c, 0, 61, 76
1, 132586, Note_on_c, 0, 66, 65
1, 132592, Note_on_c, 0, 37, 90
1, 132678, Control_c, 0, 64, 0
1, 132834, Note_off_c, 0, 37, 64
1, 132846, Note_off_c, 0, 61, 64
1, 132848, Note_off_c, 0, 66, 64
1, 132868, Note_off_c, 0, 68, 64
1, 132878, Control_c, 0, 64, 127
1, 133024, Note_on_c, 0, 68, 64
1, 133027, Note_on_c, 0, 61, 80
1, 133030, Note_on_c, 0, 71, 92
1, 133038, Note_on_c, 0, 49, 71
1, 133042, Note_on_c, 0, 56, 55
1, 133042, Note_on_c, 0, 59, 67
1, 133060, Note_on_c, 0, 66, 39
1, 133132, Note_off_c, 0, 59, 64
1, 133132, Note_off_c, 0, 66, 64
1, 133148, Note_off_c, 0, 56, 64
1, 133168, Note_off_c, 0, 68, 64
1, 133182, Note_off_c, 0, 49, 64
1, 133198, Note_off_c, 0, 71, 64
1, 133204, Note_off_c, 0, 61, 64
1, 133404, Note_on_c, 0, 73, 82
1, 133410, Note_on_c, 0, 68, 72
1, 133413, Note_on_c, 0, 61, 83
1, 133416, Note_on_c, 0, 66, 68
1, 133424, Note_on_c, 0, 56, 61
1, 133426, Note_on_c, 0, 49, 64
1, 133472, Note_off_c, 0, 61, 64
1, 133472, Note_off_c, 0, 49, 64
1, 133475, Note_off_c, 0, 56, 64
1, 133480, Note_off_c, 0, 66, 64
1, 133490, Note_off_c, 0, 68, 64
1, 133550, Note_off_c, 0, 73, 64
1, 133742, Note_on_c, 0, 75, 85
1, 133746, Note_on_c, 0, 66, 67
1, 133750, Note_on_c, 0, 71, 83
1, 133754, Note_on_c, 0, 68, 58
1, 133754, Note_on_c, 0, 63, 68
1, 133774, Note_on_c, 0, 59, 51
1, 133774, Note_on_c, 0, 56, 35
1, 133794, Note_off_c, 0, 71, 64
1, 133796, Note_off_c, 0, 68, 64
1, 133820, Note_off_c, 0, 59, 64
1, 133822, Note_off_c, 0, 66, 64
1, 133828, Note_off_c, 0, 63, 64
1, 133842, Note_off_c, 0, 56, 64
1, 133866, Note_off_c, 0, 75, 64
1, 134050, Note_on_c, 0, 68, 78
1, 134052, Note_on_c, 0, 77, 89
1, 134062, Note_on_c, 0, 65, 67
1, 134068, Note_on_c, 0, 71, 79
1, 134076, Note_on_c, 0, 75, 54
1, 134078, Note_on_c, 0, 63, 57
1, 134080, Note_on_c, 0, 59, 50
1, 134082, Note_on_c, 0, 56, 38
1, 134120, Note_off_c, 0, 71, 64
1, 134126, Note_off_c, 0, 75, 64
1, 134130, Note_off_c, 0, 63, 64
1, 134132, Note_off_c, 0, 59, 64
1, 134134, Note_off_c, 0, 65, 64
1, 134150, Note_off_c, 0, 56, 64
1, 134156, Note_off_c, 0, 68, 64
1, 134174, Note_off_c, 0, 77, 64
1, 134338, Note_on_c, 0, 78, 87
1, 134338, Note_on_c, 0, 68, 78
1, 134340, Note_on_c, 0, 66, 65
1, 134352, Note_on_c, 0, 56, 43
1, 134352, Note_on_c, 0, 71, 73
1, 134355, Note_on_c, 0, 75, 62
1, 134362, Note_on_c, 0, 59, 35
1, 134372, Note_on_c, 0, 63, 44
1, 134396, Note_off_c, 0, 71, 64
1, 134408, Note_off_c, 0, 56, 64
1, 134413, Note_off_c, 0, 68, 64
1, 134416, Note_off_c, 0, 75, 64
1, 134416, Note_off_c, 0, 59, 64
1, 134419, Note_off_c, 0, 63, 64
1, 134452, Note_off_c, 0, 66, 64
1, 134490, Note_off_c, 0, 78, 64
1, 134648, Note_on_c, 0, 68, 62
1, 134650, Note_on_c, 0, 80, 88
1, 134662, Note_on_c, 0, 71, 81
1, 134662, Note_on_c, 0, 75, 66
1, 134672, Note_on_c, 0, 59, 55
1, 134678, Note_on_c, 0, 63, 54
1, 134680, Note_on_c, 0, 66, 34
1, 134726, Note_off_c, 0, 63, 64
1, 134732, Note_off_c, 0, 59, 64
1, 134738, Note_off_c, 0, 66, 64
1, 134752, Note_off_c, 0, 75, 64
1, 134764, Note_off_c, 0, 68, 64
1, 134770, Note_off_c, 0, 71, 64
1, 134802, Note_off_c, 0, 80, 64
1, 134974, Note_on_c, 0, 82, 81
1, 134982, Note_on_c, 0, 70, 51
1, 134982, Control_c, 0, 64, 0
1, 134994, Note_on_c, 0, 71, 67
1, 134998, Note_on_c, 0, 78, 53
1, 135000, Note_on_c, 0, 75, 54
1, 135004, Note_on_c, 0, 59, 42
1, 135012, Note_on_c, 0, 63, 45
1, 135015, Note_on_c, 0, 66, 31
1, 135048, Note_off_c, 0, 71, 64
1, 135051, Note_off_c, 0, 78, 64
1, 135051, Note_off_c, 0, 75, 64
1, 135058, Note_off_c, 0, 59, 64
1, 135062, Note_off_c, 0, 63, 64
1, 135076, Note_off_c, 0, 66, 64
1, 135120, Control_c, 0, 64, 127
1, 135128, Note_off_c, 0, 70, 64
1, 135144, Note_off_c, 0, 82, 64
1, 135312, Note_on_c, 0, 75, 61
1, 135322, Note_on_c, 0, 83, 98
1, 135325, Note_on_c, 0, 71, 52
1, 135328, Note_on_c, 0, 80, 50
1, 135330, Note_on_c, 0, 78, 47
1, 135334, Note_on_c, 0, 63, 39
1, 135352, Note_on_c, 0, 66, 20
1, 135354, Note_on_c, 0, 68, 24
1, 135380, Note_off_c, 0, 80, 64
1, 135392, Note_off_c, 0, 78, 64
1, 135408, Note_off_c, 0, 71, 64
1, 135422, Note_off_c, 0, 63, 64
1, 135425, Note_off_c, 0, 68, 64
1, 135428, Note_off_c, 0, 66, 64
1, 135432, Note_off_c, 0, 75, 64
1, 135484, Note_off_c, 0, 83, 64
1, 135700, Note_on_c, 0, 85, 74
1, 135708, Note_on_c, 0, 75, 57
1, 135713, Note_on_c, 0, 73, 46
1, 135713, Note_on_c, 0, 80, 55
1, 135718, Note_on_c, 0, 78, 47
1, 135738, Note_on_c, 0, 66, 27
1, 135748, Note_on_c, 0, 68, 28
1, 135752, Note_on_c, 0, 63, 33
1, 135792, Note_off_c, 0, 80, 64
1, 135792, Note_off_c, 0, 78, 64
1, 135822, Note_off_c, 0, 68, 64
1, 135825, Note_off_c, 0, 73, 64
1, 135836, Note_off_c, 0, 66, 64
1, 135844, Note_off_c, 0, 63, 64
1, 135846, Note_off_c, 0, 75, 64
1, 135892, Note_off_c, 0, 85, 64
1, 136232, Note_on_c, 0, 87, 49
1, 136235, Note_on_c, 0, 75, 36
1, 136256, Note_on_c, 0, 71, 37
1, 136256, Note_on_c, 0, 78, 30
1, 136259, Note_on_c, 0, 68, 20
1, 136259, Note_on_c, 0, 83, 67
1, 136263, Note_on_c, 0, 80, 30
1, 136302, Note_on_c, 0, 66, 11
1, 136364, Control_c, 0, 64, 0
1, 136520, Control_c, 0, 64, 127
1, 136604, Note_off_c, 0, 71, 64
1, 136636, Note_off_c, 0, 87, 64
1, 136646, Note_off_c, 0, 75, 64
1, 136646, Note_off_c, 0, 68, 64
1, 136668, Note_off_c, 0, 83, 64
1, 136696, Note_off_c, 0, 66, 64
1, 136704, Note_off_c, 0, 80, 64
1, 136716, Note_off_c, 0, 78, 64
1, 137486, Control_c, 0, 64, 0
1, 137886, Note_on_c, 0, 77, 80
1, 137896, Note_on_c, 0, 73, 48
1, 137896, Note_on_c, 0, 71, 57
1, 137896, Note_on_c, 0, 65, 43
1, 137906, Note_on_c, 0, 49, 38
1, 137906, Note_on_c, 0, 37, 43
1, 137994, Control_c, 0, 64, 127
1, 138050, Note_off_c, 0, 49, 64
1, 138122, Note_off_c, 0, 73, 64
1, 138122, Note_off_c, 0, 71, 64
1, 138132, Note_off_c, 0, 77, 64
1, 138140, Note_off_c, 0, 37, 64
1, 138142, Note_off_c, 0, 65, 64
1, 138526, Note_on_c, 0, 73, 60
1, 138532, Note_on_c, 0, 71, 75
1, 138546, Note_on_c, 0, 30, 72
1, 138602, Note_off_c, 0, 71, 64
1, 138766, Note_on_c, 0, 78, 75
1, 138778, Control_c, 0, 64, 0
1, 138778, Note_on_c, 0, 66, 41
1, 138781, Note_on_c, 0, 70, 48
1, 138800, Note_on_c, 0, 42, 65
1, 138904, Note_off_c, 0, 30, 64
1, 139116, Control_c, 0, 64, 127
1, 139168, Note_off_c, 0, 42, 64
1, 139374, Note_on_c, 0, 49, 61
1, 139902, Note_on_c, 0, 61, 49
1, 140000, Note_off_c, 0, 70, 64
1, 140016, Note_off_c, 0, 73, 64
1, 140019, Note_off_c, 0, 66, 64
1, 140062, Note_off_c, 0, 78, 64
1, 140130, Note_off_c, 0, 49, 64
1, 140222, Note_off_c, 0, 61, 64
1, 140308, Note_on_c, 0, 80, 68
1, 140316, Note_on_c, 0, 71, 63
1, 140320, Note_on_c, 0, 61, 57
1, 140390, Control_c, 0, 64, 0
1, 140508, Note_off_c, 0, 71, 64
1, 140538, Note_on_c, 0, 68, 54
1, 140550, Note_on_c, 0, 77, 70
1, 140606, Control_c, 0, 64, 127
1, 140618, Note_off_c, 0, 80, 64
1, 140658, Note_off_c, 0, 68, 64
1, 140676, Note_off_c, 0, 77, 64
1, 140724, Note_on_c, 0, 80, 58
1, 140746, Note_on_c, 0, 71, 56
1, 140794, Note_off_c, 0, 80, 64
1, 140834, Note_off_c, 0, 71, 64
1, 140898, Note_on_c, 0, 66, 54
1, 140900, Note_on_c, 0, 75, 64
1, 140956, Note_off_c, 0, 66, 64
1, 140992, Note_off_c, 0, 61, 64
1, 141068, Note_on_c, 0, 80, 78
1, 141076, Note_on_c, 0, 71, 72
1, 141079, Note_off_c, 0, 75, 64
1, 141088, Note_on_c, 0, 49, 39
1, 141182, Note_off_c, 0, 80, 64
1, 141190, Note_off_c, 0, 49, 64
1, 141254, Note_on_c, 0, 73, 66
1, 141256, Note_on_c, 0, 61, 55
1, 141304, Note_off_c, 0, 61, 64
1, 141338, Note_off_c, 0, 71, 64
1, 141476, Note_on_c, 0, 70, 46
1, 141476, Note_on_c, 0, 78, 63
1, 141482, Control_c, 0, 64, 0
1, 141486, Note_on_c, 0, 42, 55
1, 141542, Note_off_c, 0, 73, 64
1, 141912, Note_on_c, 0, 49, 45
1, 141940, Note_off_c, 0, 42, 64
1, 141958, Control_c, 0, 64, 127
1, 142332, Note_on_c, 0, 61, 25
1, 142346, Note_off_c, 0, 49, 64
1, 142534, Note_off_c, 0, 61, 64
1, 142554, Note_off_c, 0, 78, 64
1, 142632, Note_off_c, 0, 70, 64
1, 142664, Note_on_c, 0, 60, 15
1, 142718, Note_on_c, 0, 63, 51
1, 142778, Note_off_c, 0, 63, 64
1, 142784, Note_on_c, 0, 80, 60
1, 142786, Note_off_c, 0, 60, 64
1, 142800, Note_on_c, 0, 71, 44
1, 142828, Note_on_c, 0, 61, 29
1, 142848, Control_c, 0, 64, 0
1, 143002, Note_off_c, 0, 71, 64
1, 143036, Note_on_c, 0, 68, 35
1, 143048, Note_on_c, 0, 77, 61
1, 143090, Note_off_c, 0, 80, 64
1, 143110, Control_c, 0, 64, 127
1, 143154, Note_off_c, 0, 68, 64
1, 143188, Note_off_c, 0, 77, 64
1, 143258, Note_on_c, 0, 80, 54
1, 143276, Note_on_c, 0, 71, 51
1, 143324, Note_off_c, 0, 80, 64
1, 143352, Note_off_c, 0, 71, 64
1, 143448, Note_on_c, 0, 66, 48
1, 143456, Note_on_c, 0, 75, 53
1, 143462, Note_off_c, 0, 61, 64
1, 143514, Note_off_c, 0, 66, 64
1, 143640, Note_on_c, 0, 80, 65
1, 143644, Note_on_c, 0, 49, 34
1, 143652, Note_off_c, 0, 75, 64
1, 143666, Note_on_c, 0, 71, 41
1, 143710, Note_off_c, 0, 49, 64
1, 143736, Note_off_c, 0, 80, 64
1, 143756, Note_off_c, 0, 71, 64
1, 143846, Note_on_c, 0, 61, 36
1, 143856, Note_on_c, 0, 73, 47
1, 143908, Note_off_c, 0, 61, 64
1, 144060, Note_on_c, 0, 71, 60
1, 144214, Note_off_c, 0, 71, 64
1, 144268, Note_on_c, 0, 30, 41
1, 144268, Note_on_c, 0, 70, 36
1, 144271, Note_on_c, 0, 78, 55
1, 144294, Control_c, 0, 64, 0
1, 144568, Note_off_c, 0, 30, 64
1, 144568, Control_c, 0, 64, 127
1, 144828, Note_on_c, 0, 49, 44
1, 145172, Note_off_c, 0, 73, 64
1, 145222, Note_off_c, 0, 49, 64
1, 145230, Note_on_c, 0, 61, 44
1, 145250, Note_off_c, 0, 78, 64
1, 145266, Note_off_c, 0, 70, 64
1, 145518, Note_on_c, 0, 71, 43
1, 145560, Note_on_c, 0, 78, 61
1, 145565, Note_on_c, 0, 70, 38
1, 145570, Note_on_c, 0, 73, 33
1, 145584, Note_off_c, 0, 71, 64
1, 145866, Note_on_c, 0, 51, 41
1, 145871, Note_off_c, 0, 61, 64
1, 145926, Note_off_c, 0, 51, 64
1, 145932, Note_on_c, 0, 49, 49
1, 145938, Control_c, 0, 64, 0
1, 146168, Control_c, 0, 64, 127
1, 146248, Note_off_c, 0, 49, 64
1, 146279, Note_on_c, 0, 61, 52
1, 146294, Note_off_c, 0, 78, 64
1, 146322, Note_off_c, 0, 70, 64
1, 146340, Note_off_c, 0, 73, 64
1, 146564, Note_on_c, 0, 71, 50
1, 146616, Note_off_c, 0, 71, 64
1, 146616, Note_on_c, 0, 70, 42
1, 146624, Note_on_c, 0, 73, 40
1, 146624, Note_on_c, 0, 78, 56
1, 146706, Control_c, 0, 64, 0
1, 146922, Note_on_c, 0, 51, 31
1, 146954, Note_off_c, 0, 61, 64
1, 146964, Note_on_c, 0, 49, 42
1, 147022, Note_off_c, 0, 51, 64
1, 147228, Control_c, 0, 64, 127
1, 147276, Note_off_c, 0, 49, 64
1, 147284, Note_on_c, 0, 61, 48
1, 147294, Note_off_c, 0, 78, 64
1, 147364, Note_off_c, 0, 70, 64
1, 147386, Note_off_c, 0, 73, 64
1, 147588, Note_on_c, 0, 71, 44
1, 147648, Note_off_c, 0, 71, 64
1, 147654, Note_on_c, 0, 73, 30
1, 147668, Note_on_c, 0, 78, 50
1, 147671, Note_on_c, 0, 70, 24
1, 147690, Control_c, 0, 64, 0
1, 147996, Control_c, 0, 64, 127
1, 148040, Note_on_c, 0, 51, 15
1, 148056, Note_off_c, 0, 61, 64
1, 148076, Note_on_c, 0, 49, 38
1, 148150, Control_c, 0, 64, 0
1, 148158, Note_off_c, 0, 51, 64
1, 148518, Note_on_c, 0, 61, 28
1, 148556, Note_off_c, 0, 49, 64
1, 148694, Note_off_c, 0, 78, 64
1, 148780, Control_c, 0, 64, 127
1, 148842, Note_off_c, 0, 73, 64
1, 149100, Note_off_c, 0, 70, 64
1, 149112, Note_on_c, 0, 71, 23
1, 149344, Note_on_c, 0, 78, 31
1, 149350, Note_on_c, 0, 73, 25
1, 149364, Control_c, 0, 64, 0
1, 149368, Note_on_c, 0, 69, 12
1, 149378, Note_off_c, 0, 71, 64
1, 149810, Control_c, 0, 64, 127
1, 150012, Note_off_c, 0, 61, 64
1, 150034, Note_on_c, 0, 49, 30
1, 150450, Note_on_c, 0, 54, 52
1, 150548, Control_c, 0, 64, 0
1, 150730, Control_c, 0, 64, 127
1, 150756, Note_on_c, 0, 56, 57
1, 150788, Note_off_c, 0, 49, 64
1, 150844, Note_off_c, 0, 78, 64
1, 150860, Note_off_c, 0, 54, 64
1, 150902, Note_off_c, 0, 69, 64
1, 150992, Note_off_c, 0, 73, 64
1, 151052, Note_on_c, 0, 57, 62
1, 151118, Note_off_c, 0, 56, 64
1, 151330, Control_c, 0, 64, 0
1, 151342, Note_on_c, 0, 59, 71
1, 151400, Note_off_c, 0, 57, 64
1, 151618, Note_on_c, 0, 61, 69
1, 151688, Note_off_c, 0, 59, 64
1, 151898, Note_on_c, 0, 66, 52
1, 151950, Note_off_c, 0, 61, 64
1, 152184, Note_on_c, 0, 62, 57
1, 152276, Note_off_c, 0, 66, 64
1, 152470, Note_on_c, 0, 61, 53
1, 152522, Note_off_c, 0, 62, 64
1, 152776, Note_on_c, 0, 59, 44
1, 152844, Note_off_c, 0, 61, 64
1, 153064, Note_on_c, 0, 62, 42
1, 153136, Note_off_c, 0, 59, 64
1, 153372, Note_on_c, 0, 61, 42
1, 153414, Note_off_c, 0, 62, 64
1, 153621, Control_c, 0, 64, 127
1, 153684, Note_off_c, 0, 61, 64
1, 153712, Note_on_c, 0, 66, 37
1, 153820, Control_c, 0, 64, 0
1, 154014, Note_on_c, 0, 62, 49
1, 154100, Note_off_c, 0, 66, 64
1, 154298, Note_on_c, 0, 61, 50
1, 154350, Note_off_c, 0, 62, 64
1, 154578, Note_on_c, 0, 59, 40
1, 154642, Note_off_c, 0, 61, 64
1, 154884, Note_on_c, 0, 62, 36
1, 154906, Note_off_c, 0, 59, 64
1, 155190, Note_on_c, 0, 61, 36
1, 155206, Note_off_c, 0, 62, 64
1, 155388, Control_c, 0, 64, 127
1, 155440, Note_off_c, 0, 61, 64
1, 155578, Note_on_c, 0, 66, 25
1, 155726, Control_c, 0, 64, 0
1, 155918, Note_on_c, 0, 62, 31
1, 156048, Note_off_c, 0, 66, 64
1, 156258, Note_on_c, 0, 61, 30
1, 156302, Note_off_c, 0, 62, 64
1, 156446, Control_c, 0, 64, 127
1, 156538, Note_off_c, 0, 61, 64
1, 156632, Note_on_c, 0, 73, 33
1, 156724, Control_c, 0, 64, 0
1, 156956, Note_on_c, 0, 66, 35
1, 157016, Control_c, 0, 64, 127
1, 157026, Note_off_c, 0, 73, 64
1, 157046, Control_c, 0, 64, 0
1, 157216, Control_c, 0, 64, 127
1, 157266, Note_on_c, 0, 68, 41
1, 157308, Control_c, 0, 64, 0
1, 157322, Note_off_c, 0, 66, 64
1, 157560, Note_on_c, 0, 66, 45
1, 157652, Note_off_c, 0, 68, 64
1, 157800, Control_c, 0, 64, 127
1, 157852, Note_on_c, 0, 64, 51
1, 157922, Control_c, 0, 64, 0
1, 157932, Note_off_c, 0, 66, 64
1, 158106, Control_c, 0, 64, 127
1, 158134, Note_on_c, 0, 66, 52
1, 158184, Control_c, 0, 64, 0
1, 158198, Note_off_c, 0, 64, 64
1, 158408, Note_on_c, 0, 64, 63
1, 158444, Control_c, 0, 64, 127
1, 158506, Control_c, 0, 64, 0
1, 158512, Note_off_c, 0, 66, 64
1, 158704, Note_on_c, 0, 62, 56
1, 158746, Note_off_c, 0, 64, 64
1, 158972, Note_on_c, 0, 64, 58
1, 159012, Note_off_c, 0, 62, 64
1, 159244, Control_c, 0, 64, 127
1, 159254, Note_on_c, 0, 62, 52
1, 159274, Control_c, 0, 64, 0
1, 159298, Note_off_c, 0, 64, 64
1, 159536, Note_on_c, 0, 61, 47
1, 159580, Note_off_c, 0, 62, 64
1, 159802, Note_on_c, 0, 62, 47
1, 159862, Note_off_c, 0, 61, 64
1, 160080, Note_on_c, 0, 61, 43
1, 160126, Note_off_c, 0, 62, 64
1, 160382, Note_on_c, 0, 59, 37
1, 160448, Note_off_c, 0, 61, 64
1, 160684, Note_on_c, 0, 61, 41
1, 160734, Note_off_c, 0, 59, 64
1, 160996, Control_c, 0, 64, 127
1, 161014, Note_on_c, 0, 66, 30
1, 161082, Note_off_c, 0, 61, 64
1, 161312, Note_on_c, 0, 61, 43
1, 161328, Note_on_c, 0, 49, 26
1, 161414, Note_off_c, 0, 66, 64
1, 161606, Note_off_c, 0, 49, 64
1, 161612, Note_on_c, 0, 62, 45
1, 161624, Note_on_c, 0, 50, 36
1, 161696, Note_off_c, 0, 61, 64
1, 161780, Control_c, 0, 64, 0
1, 161902, Note_on_c, 0, 54, 41
1, 161905, Note_on_c, 0, 66, 34
1, 162070, Control_c, 0, 64, 127
1, 162078, Note_off_c, 0, 54, 64
1, 162106, Note_off_c, 0, 50, 64
1, 162144, Note_off_c, 0, 62, 64
1, 162176, Note_on_c, 0, 59, 43
1, 162182, Note_on_c, 0, 47, 37
1, 162228, Note_off_c, 0, 66, 64
1, 162424, Note_on_c, 0, 61, 61
1, 162438, Note_on_c, 0, 49, 46
1, 162474, Note_off_c, 0, 59, 64
1, 162486, Control_c, 0, 64, 0
1, 162500, Note_off_c, 0, 47, 64
1, 162700, Note_on_c, 0, 54, 50
1, 162720, Note_on_c, 0, 66, 43
1, 162870, Control_c, 0, 64, 127
1, 162873, Note_off_c, 0, 54, 64
1, 162982, Note_off_c, 0, 49, 64
1, 162986, Note_on_c, 0, 57, 49
1, 162990, Note_on_c, 0, 45, 36
1, 163018, Note_off_c, 0, 61, 64
1, 163112, Note_off_c, 0, 66, 64
1, 163324, Note_on_c, 0, 59, 58
1, 163329, Note_off_c, 0, 57, 64
1, 163340, Note_on_c, 0, 47, 37
1, 163386, Note_off_c, 0, 45, 64
1, 163592, Control_c, 0, 64, 0
1, 163672, Note_on_c, 0, 54, 42
1, 163688, Note_on_c, 0, 66, 37
1, 163894, Note_off_c, 0, 54, 64
1, 163940, Note_off_c, 0, 66, 64
1, 163946, Control_c, 0, 64, 127
1, 163998, Note_off_c, 0, 59, 64
1, 164001, Note_on_c, 0, 61, 56
1, 164008, Note_off_c, 0, 47, 64
1, 164024, Note_on_c, 0, 49, 41
1, 164114, Note_off_c, 0, 49, 64
1, 164498, Note_on_c, 0, 57, 39
1, 164500, Note_on_c, 0, 69, 49
1, 164532, Note_on_c, 0, 33, 32
1, 164532, Note_on_c, 0, 45, 19
1, 164646, Note_off_c, 0, 61, 64
1, 164660, Control_c, 0, 64, 0
1, 164986, Note_off_c, 0, 45, 64
1, 164990, Control_c, 0, 64, 127
1, 165046, Note_off_c, 0, 33, 64
1, 165046, Note_on_c, 0, 40, 33
1, 165264, Note_off_c, 0, 40, 64
1, 165330, Note_on_c, 0, 45, 13
1, 165336, Note_on_c, 0, 33, 29
1, 165450, Control_c, 0, 64, 0
1, 165636, Control_c, 0, 64, 127
1, 165686, Note_off_c, 0, 45, 64
1, 165828, Note_on_c, 0, 40, 25
1, 165898, Note_off_c, 0, 33, 64
1, 166018, Note_off_c, 0, 40, 64
1, 166090, Note_on_c, 0, 45, 33
1, 166398, Note_off_c, 0, 45, 64
1, 166572, Note_on_c, 0, 40, 36
1, 166608, Note_on_c, 0, 52, 7
1, 166686, Note_off_c, 0, 52, 64
1, 166822, Note_off_c, 0, 40, 64
1, 166852, Note_on_c, 0, 45, 34
1, 167204, Note_off_c, 0, 45, 64
1, 167214, Note_off_c, 0, 57, 64
1, 167332, Note_on_c, 0, 52, 30
1, 167348, Note_on_c, 0, 40, 34
1, 167616, Note_off_c, 0, 40, 64
1, 167616, Note_on_c, 0, 61, 36
1, 167624, Note_on_c, 0, 45, 29
1, 167708, Note_off_c, 0, 52, 64
1, 167710, Control_c, 0, 64, 0
1, 167862, Control_c, 0, 64, 127
1, 167888, Note_on_c, 0, 64, 37
1, 168048, Note_off_c, 0, 61, 64
1, 168084, Note_off_c, 0, 45, 64
1, 168100, Note_off_c, 0, 64, 64
1, 168118, Note_on_c, 0, 59, 31
1, 168120, Note_on_c, 0, 40, 32
1, 168128, Note_on_c, 0, 52, 16
1, 168300, Note_off_c, 0, 52, 64
1, 168358, Note_on_c, 0, 61, 40
1, 168374, Note_off_c, 0, 40, 64
1, 168377, Note_off_c, 0, 59, 64
1, 168377, Note_on_c, 0, 45, 31
1, 168432, Control_c, 0, 64, 0
1, 168618, Note_on_c, 0, 64, 32
1, 168646, Control_c, 0, 64, 127
1, 168656, Note_off_c, 0, 61, 64
1, 168796, Note_off_c, 0, 45, 64
1, 168802, Note_off_c, 0, 64, 64
1, 168860, Note_on_c, 0, 52, 29
1, 168874, Note_on_c, 0, 59, 20
1, 168876, Note_on_c, 0, 40, 20
1, 168940, Note_off_c, 0, 59, 64
1, 168968, Note_off_c, 0, 52, 64
1, 169076, Note_off_c, 0, 40, 64
1, 169146, Note_on_c, 0, 61, 32
1, 169164, Note_on_c, 0, 45, 25
1, 169170, Control_c, 0, 64, 0
1, 169370, Control_c, 0, 64, 127
1, 169444, Note_on_c, 0, 66, 31
1, 169454, Note_off_c, 0, 61, 64
1, 169460, Note_on_c, 0, 64, 18
1, 169484, Note_off_c, 0, 69, 64
1, 169492, Note_off_c, 0, 45, 64
1, 169704, Note_off_c, 0, 64, 64
1, 169710, Note_on_c, 0, 68, 46
1, 169730, Note_on_c, 0, 40, 35
1, 169738, Note_on_c, 0, 52, 20
1, 169772, Note_off_c, 0, 66, 64
1, 169842, Note_off_c, 0, 52, 64
1, 169886, Note_off_c, 0, 40, 64
1, 169950, Note_on_c, 0, 69, 49
1, 169964, Note_on_c, 0, 61, 37
1, 169976, Note_off_c, 0, 68, 64
1, 169984, Note_on_c, 0, 45, 23
1, 169984, Control_c, 0, 64, 0
1, 170168, Control_c, 0, 64, 127
1, 170186, Note_off_c, 0, 61, 64
1, 170191, Note_on_c, 0, 66, 55
1, 170220, Note_on_c, 0, 64, 35
1, 170223, Note_off_c, 0, 69, 64
1, 170296, Note_off_c, 0, 64, 64
1, 170336, Note_off_c, 0, 45, 64
1, 170430, Note_on_c, 0, 68, 62
1, 170484, Note_on_c, 0, 52, 11
1, 170486, Note_on_c, 0, 40, 19
1, 170518, Note_off_c, 0, 66, 64
1, 170614, Note_off_c, 0, 68, 64
1, 170614, Note_off_c, 0, 52, 64
1, 170674, Note_on_c, 0, 71, 72
1, 170704, Note_on_c, 0, 61, 38
1, 170707, Note_off_c, 0, 40, 64
1, 170716, Note_on_c, 0, 69, 59
1, 170738, Note_off_c, 0, 71, 64
1, 170741, Note_on_c, 0, 45, 24
1, 170798, Control_c, 0, 64, 0
1, 170980, Note_off_c, 0, 61, 64
1, 170990, Note_on_c, 0, 64, 47
1, 170998, Control_c, 0, 64, 127
1, 171090, Note_off_c, 0, 64, 64
1, 171140, Note_off_c, 0, 45, 64
1, 171172, Note_off_c, 0, 69, 64
1, 171214, Note_on_c, 0, 68, 68
1, 171256, Note_on_c, 0, 52, 23
1, 171256, Note_on_c, 0, 40, 30
1, 171354, Note_off_c, 0, 52, 64
1, 171388, Note_off_c, 0, 40, 64
1, 171472, Note_on_c, 0, 69, 65
1, 171482, Note_on_c, 0, 61, 49
1, 171494, Note_on_c, 0, 45, 25
1, 171528, Note_off_c, 0, 68, 64
1, 171566, Control_c, 0, 64, 0
1, 171726, Note_on_c, 0, 68, 49
1, 171766, Control_c, 0, 64, 127
1, 171820, Note_off_c, 0, 45, 64
1, 171832, Note_off_c, 0, 61, 64
1, 171858, Note_off_c, 0, 68, 64
1, 171920, Note_off_c, 0, 69, 64
1, 171964, Note_on_c, 0, 66, 50
1, 171966, Note_on_c, 0, 71, 81
1, 171992, Note_on_c, 0, 52, 34
1, 171995, Note_on_c, 0, 40, 36
1, 172104, Note_off_c, 0, 52, 64
1, 172122, Note_off_c, 0, 71, 64
1, 172220, Note_on_c, 0, 73, 73
1, 172222, Note_off_c, 0, 40, 64
1, 172254, Note_on_c, 0, 45, 28
1, 172254, Note_on_c, 0, 64, 52
1, 172257, Control_c, 0, 64, 0
1, 172266, Note_off_c, 0, 66, 64
1, 172458, Control_c, 0, 64, 127
1, 172478, Note_on_c, 0, 69, 42
1, 172480, Note_off_c, 0, 64, 64
1, 172566, Note_off_c, 0, 73, 64
1, 172574, Note_off_c, 0, 45, 64
1, 172726, Note_on_c, 0, 61, 54
1, 172748, Note_on_c, 0, 52, 36
1, 172750, Note_on_c, 0, 40, 34
1, 172808, Note_off_c, 0, 61, 64
1, 172830, Note_off_c, 0, 52, 64
1, 172932, Note_on_c, 0, 63, 60
1, 172954, Note_off_c, 0, 40, 64
1, 173006, Note_off_c, 0, 69, 64
1, 173040, Note_on_c, 0, 73, 75
1, 173076, Note_on_c, 0, 45, 47
1, 173148, Control_c, 0, 64, 0
1, 173364, Note_on_c, 0, 67, 45
1, 173364, Control_c, 0, 64, 127
1, 173436, Note_off_c, 0, 63, 64
1, 173494, Note_off_c, 0, 45, 64
1, 173582, Note_on_c, 0, 39, 32
1, 173592, Note_on_c, 0, 51, 30
1, 173654, Note_on_c, 0, 61, 52
1, 173662, Note_off_c, 0, 51, 64
1, 173680, Note_off_c, 0, 67, 64
1, 173954, Note_off_c, 0, 61, 64
1, 173994, Control_c, 0, 64, 0
1, 173998, Note_on_c, 0, 63, 40
1, 174006, Note_on_c, 0, 32, 36
1, 174019, Note_on_c, 0, 44, 38
1, 174030, Note_off_c, 0, 39, 64
1, 174320, Note_off_c, 0, 44, 64
1, 174332, Control_c, 0, 64, 127
1, 174376, Note_on_c, 0, 68, 34
1, 174428, Note_off_c, 0, 32, 64
1, 174444, Note_off_c, 0, 63, 64
1, 174732, Note_on_c, 0, 61, 40
1, 174736, Note_on_c, 0, 39, 35
1, 174746, Note_on_c, 0, 51, 18
1, 174748, Note_off_c, 0, 68, 64
1, 174852, Note_off_c, 0, 61, 64
1, 174904, Note_off_c, 0, 51, 64
1, 174940, Note_off_c, 0, 39, 64
1, 174988, Note_on_c, 0, 63, 53
1, 175014, Note_on_c, 0, 44, 41
1, 175036, Note_off_c, 0, 73, 64
1, 175172, Note_on_c, 0, 68, 32
1, 175220, Note_on_c, 0, 72, 57
1, 175308, Note_off_c, 0, 63, 64
1, 175308, Note_off_c, 0, 44, 64
1, 175320, Note_off_c, 0, 68, 64
1, 175502, Note_on_c, 0, 61, 68
1, 175508, Note_on_c, 0, 51, 34
1, 175520, Note_on_c, 0, 39, 26
1, 175564, Note_off_c, 0, 72, 64
1, 175700, Note_on_c, 0, 68, 57
1, 175748, Note_off_c, 0, 68, 64
1, 175894, Note_on_c, 0, 68, 52
1, 175926, Note_on_c, 0, 44, 32
1, 176116, Note_off_c, 0, 51, 64
1, 176186, Note_off_c, 0, 39, 64
1, 176290, Note_on_c, 0, 60, 60
1, 176292, Note_off_c, 0, 61, 64
1, 176526, Note_on_c, 0, 39, 23
1, 176530, Note_on_c, 0, 51, 28
1, 176564, Note_off_c, 0, 44, 64
1, 176622, Control_c, 0, 64, 0
1, 176716, Note_on_c, 0, 56, 60
1, 176772, Note_off_c, 0, 56, 64
1, 176806, Control_c, 0, 64, 127
1, 176876, Note_on_c, 0, 56, 36
1, 176884, Note_off_c, 0, 51, 64
1, 176914, Note_on_c, 0, 44, 32
1, 177006, Note_off_c, 0, 39, 64
1, 177028, Note_off_c, 0, 60, 64
1, 177166, Note_on_c, 0, 63, 42
1, 177220, Control_c, 0, 64, 0
1, 177338, Note_on_c, 0, 51, 27
1, 177341, Note_on_c, 0, 39, 22
1, 177374, Control_c, 0, 64, 127
1, 177380, Note_off_c, 0, 56, 64
1, 177474, Note_off_c, 0, 51, 64
1, 177522, Note_off_c, 0, 44, 64
1, 177528, Note_on_c, 0, 58, 41
1, 177560, Note_off_c, 0, 39, 64
1, 177692, Note_off_c, 0, 58, 64
1, 177738, Note_on_c, 0, 32, 26
1, 177912, Control_c, 0, 64, 0
1, 177916, Note_on_c, 0, 60, 57
1, 177920, Note_off_c, 0, 63, 64
1, 177940, Note_on_c, 0, 44, 31
1, 178072, Note_off_c, 0, 68, 64
1, 178088, Note_off_c, 0, 32, 64
1, 178112, Control_c, 0, 64, 127
1, 178138, Note_on_c, 0, 63, 52
1, 178160, Note_off_c, 0, 44, 64
1, 178186, Note_off_c, 0, 60, 64
1, 178288, Note_off_c, 0, 63, 64
1, 178300, Note_on_c, 0, 68, 62
1, 178340, Note_off_c, 0, 68, 64
1, 178428, Note_on_c, 0, 72, 64
1, 178482, Note_off_c, 0, 72, 64
1, 178552, Note_on_c, 0, 75, 52
1, 178578, Note_on_c, 0, 39, 23
1, 178588, Note_on_c, 0, 51, 19
1, 178622, Note_off_c, 0, 75, 64
1, 178650, Note_on_c, 0, 80, 58
1, 178692, Note_off_c, 0, 80, 64
1, 178724, Note_off_c, 0, 51, 64
1, 178740, Note_on_c, 0, 80, 76
1, 178743, Note_off_c, 0, 39, 64
1, 178826, Note_off_c, 0, 80, 64
1, 178872, Note_on_c, 0, 92, 55
1, 178908, Note_on_c, 0, 44, 37
1, 178928, Note_off_c, 0, 92, 64
1, 179174, Note_off_c, 0, 44, 64
1, 179228, Note_on_c, 0, 63, 19
1, 179442, Note_on_c, 0, 39, 19
1, 179445, Note_on_c, 0, 51, 26
1, 179458, Note_off_c, 0, 63, 64
1, 179458, Note_on_c, 0, 58, 28
1, 179634, Note_off_c, 0, 51, 64
1, 179684, Note_off_c, 0, 39, 64
1, 179744, Note_on_c, 0, 44, 37
1, 179754, Note_on_c, 0, 60, 35
1, 179770, Note_off_c, 0, 58, 64
1, 180006, Note_off_c, 0, 44, 64
1, 180028, Note_off_c, 0, 60, 64
1, 180042, Note_on_c, 0, 63, 35
1, 180210, Note_off_c, 0, 63, 64
1, 180270, Note_on_c, 0, 58, 26
1, 180270, Note_on_c, 0, 39, 19
1, 180273, Note_on_c, 0, 51, 20
1, 180392, Note_off_c, 0, 51, 64
1, 180514, Note_off_c, 0, 39, 64
1, 180520, Note_off_c, 0, 58, 64
1, 180536, Note_on_c, 0, 44, 33
1, 180556, Note_on_c, 0, 60, 28
1, 180824, Note_off_c, 0, 44, 64
1, 180834, Note_on_c, 0, 63, 39
1, 180837, Note_off_c, 0, 60, 64
1, 180918, Note_off_c, 0, 63, 64
1, 181070, Note_on_c, 0, 58, 29
1, 181090, Note_on_c, 0, 39, 17
1, 181092, Note_on_c, 0, 51, 21
1, 181190, Note_off_c, 0, 58, 64
1, 181226, Note_off_c, 0, 51, 64
1, 181382, Note_on_c, 0, 68, 67
1, 181408, Note_on_c, 0, 44, 24
1, 181420, Note_on_c, 0, 60, 31
1, 181432, Control_c, 0, 64, 0
1, 181646, Control_c, 0, 64, 127
1, 181650, Note_off_c, 0, 39, 64
1, 181704, Note_off_c, 0, 60, 64
1, 181734, Note_on_c, 0, 63, 33
1, 181826, Note_off_c, 0, 44, 64
1, 181900, Note_off_c, 0, 63, 64
1, 181990, Note_on_c, 0, 58, 23
1, 181998, Note_on_c, 0, 39, 23
1, 182014, Note_on_c, 0, 51, 22
1, 182092, Note_off_c, 0, 58, 64
1, 182132, Note_off_c, 0, 51, 64
1, 182270, Note_on_c, 0, 60, 42
1, 182284, Note_on_c, 0, 44, 30
1, 182352, Control_c, 0, 64, 0
1, 182440, Note_off_c, 0, 39, 64
1, 182490, Control_c, 0, 64, 127
1, 182566, Note_on_c, 0, 65, 55
1, 182596, Note_on_c, 0, 63, 28
1, 182602, Note_off_c, 0, 60, 64
1, 182618, Note_off_c, 0, 68, 64
1, 182706, Note_off_c, 0, 63, 64
1, 182838, Note_off_c, 0, 44, 64
1, 182850, Note_on_c, 0, 67, 62
1, 182852, Note_on_c, 0, 58, 26
1, 182870, Note_on_c, 0, 51, 30
1, 182884, Note_on_c, 0, 39, 20
1, 182906, Note_off_c, 0, 65, 64
1, 182970, Note_off_c, 0, 58, 64
1, 183114, Note_on_c, 0, 68, 61
1, 183122, Control_c, 0, 64, 0
1, 183130, Note_on_c, 0, 60, 44
1, 183140, Note_on_c, 0, 44, 44
1, 183156, Note_off_c, 0, 51, 64
1, 183159, Note_off_c, 0, 67, 64
1, 183298, Note_off_c, 0, 39, 64
1, 183336, Control_c, 0, 64, 127
1, 183362, Note_on_c, 0, 65, 62
1, 183364, Note_off_c, 0, 60, 64
1, 183367, Note_on_c, 0, 63, 48
1, 183392, Note_off_c, 0, 68, 64
1, 183458, Note_off_c, 0, 63, 64
1, 183558, Note_off_c, 0, 44, 64
1, 183602, Note_on_c, 0, 58, 37
1, 183614, Note_on_c, 0, 39, 29
1, 183614, Note_on_c, 0, 51, 29
1, 183614, Note_on_c, 0, 67, 67
1, 183660, Note_off_c, 0, 65, 64
1, 183686, Note_off_c, 0, 58, 64
1, 183846, Note_on_c, 0, 68, 59
1, 183848, Note_off_c, 0, 51, 64
1, 183864, Note_off_c, 0, 67, 64
1, 183872, Note_on_c, 0, 60, 44
1, 183880, Note_on_c, 0, 44, 43
1, 183904, Control_c, 0, 64, 0
1, 184048, Note_off_c, 0, 39, 64
1, 184074, Control_c, 0, 64, 127
1, 184096, Note_off_c, 0, 60, 64
1, 184096, Note_on_c, 0, 65, 64
1, 184114, Note_on_c, 0, 63, 41
1, 184142, Note_off_c, 0, 68, 64
1, 184178, Note_off_c, 0, 63, 64
1, 184272, Note_off_c, 0, 44, 64
1, 184316, Note_on_c, 0, 58, 54
1, 184319, Note_on_c, 0, 67, 67
1, 184334, Note_on_c, 0, 51, 31
1, 184352, Note_on_c, 0, 39, 24
1, 184390, Note_off_c, 0, 65, 64
1, 184398, Note_off_c, 0, 58, 64
1, 184454, Note_off_c, 0, 67, 64
1, 184510, Note_on_c, 0, 70, 50
1, 184564, Note_on_c, 0, 60, 57
1, 184564, Note_on_c, 0, 68, 66
1, 184576, Note_off_c, 0, 51, 64
1, 184580, Control_c, 0, 64, 0
1, 184586, Note_on_c, 0, 44, 42
1, 184606, Note_off_c, 0, 70, 64
1, 184766, Control_c, 0, 64, 127
1, 184776, Note_off_c, 0, 39, 64
1, 184846, Note_off_c, 0, 60, 64
1, 184848, Note_on_c, 0, 63, 50
1, 184902, Note_off_c, 0, 68, 64
1, 184934, Note_off_c, 0, 44, 64
1, 185064, Note_on_c, 0, 58, 53
1, 185064, Note_on_c, 0, 67, 70
1, 185094, Note_on_c, 0, 51, 32
1, 185097, Note_on_c, 0, 39, 26
1, 185106, Note_off_c, 0, 63, 64
1, 185184, Note_off_c, 0, 58, 64
1, 185302, Note_off_c, 0, 67, 64
1, 185318, Note_off_c, 0, 51, 64
1, 185322, Note_on_c, 0, 68, 75
1, 185346, Note_on_c, 0, 59, 57
1, 185356, Note_on_c, 0, 44, 41
1, 185394, Control_c, 0, 64, 0
1, 185486, Note_off_c, 0, 39, 64
1, 185546, Note_off_c, 0, 59, 64
1, 185580, Control_c, 0, 64, 127
1, 185590, Note_on_c, 0, 66, 47
1, 185670, Note_off_c, 0, 68, 64
1, 185720, Note_off_c, 0, 44, 64
1, 185806, Note_on_c, 0, 70, 70
1, 185816, Note_on_c, 0, 64, 54
1, 185832, Note_on_c, 0, 51, 34
1, 185838, Note_off_c, 0, 66, 64
1, 185840, Note_on_c, 0, 39, 27
1, 185976, Note_off_c, 0, 70, 64
1, 186038, Note_off_c, 0, 64, 64
1, 186048, Note_on_c, 0, 71, 85
1, 186054, Note_off_c, 0, 51, 64
1, 186062, Note_on_c, 0, 63, 60
1, 186082, Note_on_c, 0, 44, 42
1, 186116, Control_c, 0, 64, 0
1, 186258, Note_off_c, 0, 39, 64
1, 186302, Control_c, 0, 64, 127
1, 186314, Note_on_c, 0, 66, 44
1, 186348, Note_off_c, 0, 71, 64
1, 186384, Note_off_c, 0, 44, 64
1, 186406, Note_off_c, 0, 63, 64
1, 186536, Note_on_c, 0, 59, 64
1, 186539, Note_on_c, 0, 51, 33
1, 186544, Note_on_c, 0, 39, 32
1, 186650, Note_off_c, 0, 66, 64
1, 186724, Note_off_c, 0, 51, 64
1, 186732, Note_on_c, 0, 61, 59
1, 186748, Note_off_c, 0, 59, 64
1, 186830, Note_off_c, 0, 39, 64
1, 186848, Note_on_c, 0, 71, 96
1, 186882, Note_on_c, 0, 44, 52
1, 186900, Control_c, 0, 64, 0
1, 187100, Control_c, 0, 64, 127
1, 187184, Note_on_c, 0, 65, 48
1, 187186, Note_off_c, 0, 71, 64
1, 187220, Note_off_c, 0, 44, 64
1, 187260, Note_off_c, 0, 61, 64
1, 187356, Note_on_c, 0, 49, 45
1, 187384, Note_on_c, 0, 37, 37
1, 187434, Note_off_c, 0, 49, 64
1, 187434, Note_on_c, 0, 56, 69
1, 187548, Note_off_c, 0, 56, 64
1, 187552, Note_off_c, 0, 65, 64
1, 187552, Note_off_c, 0, 37, 64
1, 187746, Note_on_c, 0, 30, 79
1, 187754, Note_on_c, 0, 61, 37
1, 187758, Note_on_c, 0, 42, 48
1, 187770, Note_on_c, 0, 71, 38
1, 188052, Note_on_c, 0, 66, 42
1, 188100, Control_c, 0, 64, 0
1, 188214, Note_off_c, 0, 30, 64
1, 188252, Control_c, 0, 64, 127
1, 188256, Note_off_c, 0, 42, 64
1, 188308, Note_off_c, 0, 61, 64
1, 188376, Note_on_c, 0, 59, 52
1, 188392, Note_on_c, 0, 49, 60
1, 188402, Note_on_c, 0, 37, 48
1, 188506, Note_off_c, 0, 37, 64
1, 188516, Note_off_c, 0, 49, 64
1, 188578, Note_off_c, 0, 66, 64
1, 188608, Note_off_c, 0, 71, 64
1, 188622, Note_off_c, 0, 59, 64
1, 188640, Note_on_c, 0, 61, 69
1, 188660, Note_on_c, 0, 42, 46
1, 188854, Note_on_c, 0, 66, 38
1, 188904, Note_on_c, 0, 70, 67
1, 188922, Note_off_c, 0, 66, 64
1, 189002, Note_off_c, 0, 42, 64
1, 189122, Note_on_c, 0, 49, 38
1, 189138, Note_on_c, 0, 37, 34
1, 189220, Note_off_c, 0, 61, 64
1, 189220, Note_on_c, 0, 59, 79
1, 189278, Note_off_c, 0, 70, 64
1, 189398, Note_on_c, 0, 66, 59
1, 189444, Note_off_c, 0, 66, 64
1, 189556, Note_on_c, 0, 66, 46
1, 189582, Note_on_c, 0, 42, 29
1, 189606, Control_c, 0, 64, 0
1, 189748, Note_off_c, 0, 49, 64
1, 189780, Note_off_c, 0, 37, 64
1, 189790, Control_c, 0, 64, 127
1, 189824, Note_on_c, 0, 58, 59
1, 189880, Note_off_c, 0, 59, 64
1, 190052, Note_off_c, 0, 42, 64
1, 190088, Note_on_c, 0, 37, 26
1, 190104, Note_on_c, 0, 49, 37
1, 190220, Control_c, 0, 64, 0
1, 190366, Note_on_c, 0, 54, 64
1, 190404, Control_c, 0, 64, 127
1, 190438, Note_off_c, 0, 54, 64
1, 190528, Note_off_c, 0, 49, 64
1, 190552, Note_on_c, 0, 54, 56
1, 190598, Note_on_c, 0, 42, 22
1, 190630, Note_off_c, 0, 37, 64
1, 190706, Note_off_c, 0, 58, 64
1, 190838, Note_on_c, 0, 61, 43
1, 190908, Note_off_c, 0, 54, 64
1, 190992, Note_on_c, 0, 49, 27
1, 191018, Note_on_c, 0, 37, 17
1, 191064, Note_off_c, 0, 49, 64
1, 191102, Note_off_c, 0, 42, 64
1, 191108, Note_off_c, 0, 37, 64
1, 191130, Note_on_c, 0, 56, 51
1, 191266, Note_off_c, 0, 56, 64
1, 191288, Note_on_c, 0, 30, 38
1, 191474, Note_on_c, 0, 58, 38
1, 191476, Note_on_c, 0, 42, 35
1, 191479, Control_c, 0, 64, 0
1, 191522, Note_off_c, 0, 61, 64
1, 191626, Note_off_c, 0, 30, 64
1, 191632, Note_off_c, 0, 66, 64
1, 191680, Control_c, 0, 64, 127
1, 191702, Note_off_c, 0, 42, 64
1, 191708, Note_on_c, 0, 61, 38
1, 191760, Note_off_c, 0, 58, 64
1, 191854, Note_off_c, 0, 61, 64
1, 191880, Note_on_c, 0, 66, 38
1, 191948, Note_off_c, 0, 66, 64
1, 192010, Note_on_c, 0, 70, 11
1, 192094, Note_on_c, 0, 49, 19
1, 192112, Note_on_c, 0, 37, 18
1, 192144, Note_on_c, 0, 73, 33
1, 192158, Note_off_c, 0, 70, 64
1, 192218, Note_off_c, 0, 73, 64
1, 192254, Note_on_c, 0, 78, 42
1, 192308, Note_off_c, 0, 78, 64
1, 192366, Note_on_c, 0, 78, 61
1, 192430, Note_off_c, 0, 49, 64
1, 192436, Note_off_c, 0, 37, 64
1, 192468, Note_off_c, 0, 78, 64
1, 192476, Note_on_c, 0, 42, 25
1, 192514, Note_on_c, 0, 90, 52
1, 192572, Note_off_c, 0, 90, 64
1, 192756, Note_off_c, 0, 42, 64
1, 192862, Note_on_c, 0, 61, 38
1, 193118, Note_on_c, 0, 56, 43
1, 193142, Note_on_c, 0, 49, 18
1, 193146, Note_on_c, 0, 37, 19
1, 193190, Note_off_c, 0, 61, 64
1, 193326, Note_off_c, 0, 56, 64
1, 193402, Note_on_c, 0, 57, 44
1, 193412, Note_on_c, 0, 42, 30
1, 193430, Control_c, 0, 64, 0
1, 193514, Note_off_c, 0, 49, 64
1, 193568, Note_off_c, 0, 37, 64
1, 193600, Control_c, 0, 64, 127
1, 193612, Note_off_c, 0, 57, 64
1, 193668, Note_on_c, 0, 61, 45
1, 193714, Note_off_c, 0, 42, 64
1, 193916, Note_on_c, 0, 66, 58
1, 193928, Note_on_c, 0, 56, 39
1, 193950, Note_off_c, 0, 61, 64
1, 193953, Note_on_c, 0, 37, 20
1, 193958, Note_on_c, 0, 49, 18
1, 194070, Note_off_c, 0, 56, 64
1, 194182, Note_on_c, 0, 64, 87
1, 194206, Note_on_c, 0, 57, 32
1, 194226, Note_on_c, 0, 42, 35
1, 194246, Control_c, 0, 64, 0
1, 194264, Note_off_c, 0, 49, 64
1, 194290, Note_off_c, 0, 66, 64
1, 194394, Note_off_c, 0, 37, 64
1, 194430, Control_c, 0, 64, 127
1, 194446, Note_off_c, 0, 57, 64
1, 194460, Note_on_c, 0, 61, 49
1, 194512, Note_off_c, 0, 42, 64
1, 194690, Note_on_c, 0, 66, 70
1, 194694, Note_on_c, 0, 56, 52
1, 194704, Note_on_c, 0, 49, 32
1, 194722, Note_on_c, 0, 37, 25
1, 194734, Note_off_c, 0, 64, 64
1, 194737, Note_off_c, 0, 61, 64
1, 194804, Note_off_c, 0, 56, 64
1, 194984, Note_on_c, 0, 62, 83
1, 194998, Control_c, 0, 64, 0
1, 195008, Note_on_c, 0, 57, 25
1, 195026, Note_on_c, 0, 42, 33
1, 195068, Note_off_c, 0, 66, 64
1, 195160, Note_off_c, 0, 49, 64
1, 195244, Note_off_c, 0, 37, 64
1, 195276, Control_c, 0, 64, 127
1, 195290, Note_on_c, 0, 60, 37
1, 195300, Note_off_c, 0, 57, 64
1, 195484, Note_off_c, 0, 42, 64
1, 195532, Note_on_c, 0, 56, 46
1, 195568, Note_off_c, 0, 60, 64
1, 195584, Note_on_c, 0, 37, 15
1, 195596, Note_on_c, 0, 49, 12
1, 195662, Note_off_c, 0, 56, 64
1, 195716, Note_off_c, 0, 49, 64
1, 195810, Note_on_c, 0, 57, 48
1, 195828, Note_on_c, 0, 42, 30
1, 195858, Note_off_c, 0, 37, 64
1, 195940, Note_off_c, 0, 57, 64
1, 196045, Note_on_c, 0, 69, 52
1, 196096, Note_off_c, 0, 69, 64
1, 196300, Note_on_c, 0, 49, 25
1, 196310, Note_on_c, 0, 54, 65
1, 196316, Note_off_c, 0, 42, 64
1, 196322, Note_on_c, 0, 37, 18
1, 196410, Note_off_c, 0, 62, 64
1, 196422, Note_off_c, 0, 54, 64
1, 196588, Note_on_c, 0, 61, 69
1, 196598, Note_off_c, 0, 49, 64
1, 196604, Note_on_c, 0, 53, 72
1, 196622, Note_on_c, 0, 44, 41
1, 196672, Control_c, 0, 64, 0
1, 196848, Note_off_c, 0, 37, 64
1, 196862, Note_off_c, 0, 53, 64
1, 196888, Control_c, 0, 64, 127
1, 196890, Note_on_c, 0, 56, 47
1, 196974, Note_off_c, 0, 44, 64
1, 197028, Note_off_c, 0, 56, 64
1, 197038, Note_off_c, 0, 61, 64
1, 197202, Note_on_c, 0, 61, 87
1, 197236, Note_on_c, 0, 49, 34
1, 197246, Note_on_c, 0, 37, 30
1, 197524, Note_on_c, 0, 64, 88
1, 197538, Note_on_c, 0, 57, 49
1, 197554, Note_on_c, 0, 42, 39
1, 197562, Note_off_c, 0, 61, 64
1, 197610, Control_c, 0, 64, 0
1, 197728, Note_off_c, 0, 49, 64
1, 197746, Note_off_c, 0, 37, 64
1, 197794, Control_c, 0, 64, 127
1, 197806, Note_on_c, 0, 61, 57
1, 197822, Note_off_c, 0, 57, 64
1, 197854, Note_off_c, 0, 42, 64
1, 198022, Note_on_c, 0, 56, 62
1, 198024, Note_on_c, 0, 66, 70
1, 198046, Note_off_c, 0, 64, 64
1, 198049, Note_on_c, 0, 37, 36
1, 198054, Note_on_c, 0, 49, 26
1, 198088, Note_off_c, 0, 61, 64
1, 198148, Note_off_c, 0, 56, 64
1, 198292, Note_on_c, 0, 62, 89
1, 198302, Control_c, 0, 64, 0
1, 198316, Note_on_c, 0, 57, 41
1, 198326, Note_on_c, 0, 42, 41
1, 198364, Note_off_c, 0, 66, 64
1, 198494, Note_off_c, 0, 49, 64
1, 198528, Note_off_c, 0, 37, 64
1, 198546, Control_c, 0, 64, 127
1, 198578, Note_on_c, 0, 60, 48
1, 198588, Note_off_c, 0, 57, 64
1, 198650, Note_off_c, 0, 42, 64
1, 198802, Note_on_c, 0, 56, 47
1, 198828, Note_off_c, 0, 60, 64
1, 198831, Note_on_c, 0, 37, 28
1, 198846, Note_on_c, 0, 49, 20
1, 198978, Note_off_c, 0, 56, 64
1, 199084, Note_on_c, 0, 57, 40
1, 199110, Note_on_c, 0, 42, 32
1, 199146, Note_off_c, 0, 49, 64
1, 199246, Note_off_c, 0, 37, 64
1, 199336, Note_off_c, 0, 57, 64
1, 199352, Note_on_c, 0, 60, 39
1, 199355, Note_off_c, 0, 42, 64
1, 199474, Note_off_c, 0, 60, 64
1, 199556, Note_on_c, 0, 37, 33
1, 199568, Note_on_c, 0, 49, 22
1, 199580, Note_on_c, 0, 54, 52
1, 199700, Note_off_c, 0, 54, 64
1, 199866, Note_on_c, 0, 57, 37
1, 199868, Note_on_c, 0, 42, 33
1, 199884, Note_off_c, 0, 49, 64
1, 199916, Control_c, 0, 64, 0
1, 200078, Note_off_c, 0, 37, 64
1, 200114, Control_c, 0, 64, 127
1, 200140, Note_on_c, 0, 60, 42
1, 200166, Note_off_c, 0, 57, 64
1, 200274, Note_off_c, 0, 42, 64
1, 200394, Note_on_c, 0, 56, 35
1, 200400, Note_off_c, 0, 60, 64
1, 200426, Note_on_c, 0, 37, 17
1, 200428, Note_on_c, 0, 49, 16
1, 200612, Note_off_c, 0, 56, 64
1, 200680, Note_off_c, 0, 49, 64
1, 200696, Note_on_c, 0, 42, 24
1, 200702, Note_on_c, 0, 57, 34
1, 200814, Note_off_c, 0, 37, 64
1, 200864, Note_off_c, 0, 57, 64
1, 201022, Note_on_c, 0, 69, 36
1, 201100, Note_off_c, 0, 69, 64
1, 201388, Note_off_c, 0, 42, 64
1, 201394, Note_on_c, 0, 54, 42
1, 201412, Note_on_c, 0, 49, 13
1, 201418, Note_on_c, 0, 37, 16
1, 201554, Note_off_c, 0, 62, 64
1, 201588, Note_off_c, 0, 54, 64
1, 201772, Note_on_c, 0, 61, 50
1, 201780, Note_on_c, 0, 53, 64
1, 201782, Note_on_c, 0, 44, 32
1, 201804, Control_c, 0, 64, 0
1, 202018, Note_off_c, 0, 49, 64
1, 202080, Note_off_c, 0, 37, 64
1, 202106, Note_on_c, 0, 56, 49
1, 202112, Note_off_c, 0, 53, 64
1, 202142, Control_c, 0, 64, 127
1, 202220, Note_off_c, 0, 44, 64
1, 202242, Note_off_c, 0, 56, 64
1, 202276, Note_off_c, 0, 61, 64
1, 202358, Note_on_c, 0, 61, 67
1, 202397, Note_on_c, 0, 49, 23
1, 202408, Note_on_c, 0, 37, 25
1, 202550, Note_off_c, 0, 49, 64
1, 202574, Note_off_c, 0, 61, 64
1, 202614, Note_off_c, 0, 37, 64
1, 202626, Note_on_c, 0, 65, 81
1, 202658, Note_on_c, 0, 44, 36
1, 202736, Note_off_c, 0, 44, 64
1, 202900, Note_on_c, 0, 68, 79
1, 202924, Note_on_c, 0, 53, 63
1, 202954, Note_off_c, 0, 65, 64
1, 202970, Note_off_c, 0, 53, 64
1, 203120, Note_off_c, 0, 68, 64
1, 203123, Note_on_c, 0, 73, 83
1, 203172, Note_off_c, 0, 73, 64
1, 203195, Note_on_c, 0, 37, 14
1, 203266, Note_on_c, 0, 73, 62
1, 203342, Note_on_c, 0, 75, 76
1, 203354, Note_off_c, 0, 73, 64
1, 203420, Note_on_c, 0, 73, 73
1, 203434, Control_c, 0, 64, 0
1, 203437, Note_on_c, 0, 64, 50
1, 203466, Note_on_c, 0, 44, 39
1, 203502, Note_off_c, 0, 75, 64
1, 203568, Note_off_c, 0, 37, 64
1, 203616, Note_off_c, 0, 64, 64
1, 203616, Control_c, 0, 64, 127
1, 203662, Note_off_c, 0, 44, 64
1, 203760, Note_on_c, 0, 72, 81
1, 203766, Note_on_c, 0, 63, 71
1, 203768, Note_off_c, 0, 73, 64
1, 203820, Note_on_c, 0, 52, 30
1, 203846, Note_off_c, 0, 63, 64
1, 203886, Note_off_c, 0, 52, 64
1, 203904, Note_off_c, 0, 72, 64
1, 204024, Note_on_c, 0, 37, 51
1, 204040, Note_on_c, 0, 73, 84
1, 204054, Note_on_c, 0, 64, 80
1, 204076, Note_off_c, 0, 37, 64
1, 204079, Note_off_c, 0, 73, 64
1, 204092, Note_off_c, 0, 64, 64
1, 204176, Note_on_c, 0, 73, 76
1, 204180, Note_on_c, 0, 64, 58
1, 204326, Note_off_c, 0, 73, 64
1, 204352, Note_on_c, 0, 76, 89
1, 204374, Note_on_c, 0, 68, 47
1, 204376, Note_on_c, 0, 40, 62
1, 204400, Control_c, 0, 64, 0
1, 204604, Control_c, 0, 64, 127
1, 204618, Note_off_c, 0, 76, 64
1, 204624, Note_off_c, 0, 68, 64
1, 204638, Note_off_c, 0, 64, 64
1, 204700, Note_off_c, 0, 40, 64
1, 204703, Note_on_c, 0, 74, 94
1, 204720, Note_on_c, 0, 66, 59
1, 204723, Note_on_c, 0, 47, 43
1, 204766, Note_off_c, 0, 66, 64
1, 204816, Note_off_c, 0, 74, 64
1, 204994, Note_on_c, 0, 56, 53
1, 205002, Note_on_c, 0, 71, 92
1, 205010, Note_off_c, 0, 47, 64
1, 205010, Note_on_c, 0, 62, 70
1, 205026, Note_on_c, 0, 68, 48
1, 205054, Note_off_c, 0, 56, 64
1, 205054, Note_off_c, 0, 62, 64
1, 205082, Note_off_c, 0, 68, 64
1, 205170, Note_off_c, 0, 71, 64
1, 205194, Note_on_c, 0, 61, 76
1, 205284, Note_on_c, 0, 69, 65
1, 205370, Control_c, 0, 64, 0
1, 205400, Note_on_c, 0, 73, 70
1, 205480, Note_on_c, 0, 33, 40
1, 205483, Note_on_c, 0, 45, 52
1, 205492, Note_off_c, 0, 61, 64
1, 205492, Note_off_c, 0, 69, 64
1, 205554, Note_off_c, 0, 73, 64
1, 205554, Control_c, 0, 64, 127
1, 205662, Note_on_c, 0, 81, 87
1, 205678, Note_off_c, 0, 33, 64
1, 205732, Note_off_c, 0, 45, 64
1, 205914, Note_off_c, 0, 81, 64
1, 205942, Note_on_c, 0, 76, 42
1, 205996, Note_off_c, 0, 76, 64
1, 206016, Note_on_c, 0, 78, 56
1, 206016, Note_on_c, 0, 52, 37
1, 206064, Note_off_c, 0, 78, 64
1, 206078, Note_on_c, 0, 76, 46
1, 206090, Note_off_c, 0, 52, 64
1, 206146, Note_off_c, 0, 76, 64
1, 206166, Note_on_c, 0, 78, 51
1, 206228, Note_off_c, 0, 78, 64
1, 206254, Note_on_c, 0, 76, 43
1, 206268, Note_on_c, 0, 40, 48
1, 206306, Note_off_c, 0, 76, 64
1, 206309, Note_on_c, 0, 78, 62
1, 206332, Note_off_c, 0, 40, 64
1, 206372, Note_off_c, 0, 78, 64
1, 206398, Note_on_c, 0, 76, 42
1, 206451, Note_off_c, 0, 76, 64
1, 206478, Note_on_c, 0, 78, 62
1, 206498, Note_on_c, 0, 45, 36
1, 206528, Note_off_c, 0, 78, 64
1, 206540, Note_on_c, 0, 76, 55
1, 206604, Note_off_c, 0, 76, 64
1, 206618, Note_on_c, 0, 78, 58
1, 206680, Note_off_c, 0, 78, 64
1, 206688, Note_on_c, 0, 76, 56
1, 206744, Note_off_c, 0, 76, 64
1, 206756, Note_on_c, 0, 78, 61
1, 206774, Note_on_c, 0, 52, 62
1, 206826, Note_on_c, 0, 76, 51
1, 206836, Note_off_c, 0, 78, 64
1, 206846, Note_off_c, 0, 45, 64
1, 206846, Note_off_c, 0, 52, 64
1, 206886, Note_off_c, 0, 76, 64
1, 206896, Note_on_c, 0, 78, 82
1, 206972, Note_on_c, 0, 76, 57
1, 207002, Note_on_c, 0, 40, 46
1, 207040, Note_off_c, 0, 78, 64
1, 207064, Note_on_c, 0, 75, 79
1, 207074, Note_off_c, 0, 76, 64
1, 207136, Note_on_c, 0, 76, 77
1, 207178, Note_off_c, 0, 40, 64
1, 207180, Note_off_c, 0, 75, 64
1, 207254, Note_on_c, 0, 81, 91
1, 207257, Note_on_c, 0, 69, 62
1, 207281, Note_off_c, 0, 76, 64
1, 207284, Note_on_c, 0, 45, 37
1, 207290, Note_on_c, 0, 73, 38
1, 207314, Note_off_c, 0, 81, 64
1, 207336, Note_off_c, 0, 69, 64
1, 207400, Note_off_c, 0, 73, 64
1, 207516, Note_on_c, 0, 76, 64
1, 207519, Note_on_c, 0, 78, 79
1, 207522, Note_off_c, 0, 45, 64
1, 207522, Note_on_c, 0, 66, 70
1, 207546, Note_on_c, 0, 52, 46
1, 207566, Note_off_c, 0, 66, 64
1, 207606, Note_off_c, 0, 78, 64
1, 207618, Note_off_c, 0, 52, 64
1, 207688, Note_off_c, 0, 76, 64
1, 207740, Note_on_c, 0, 80, 88
1, 207754, Note_on_c, 0, 71, 69
1, 207762, Note_on_c, 0, 40, 54
1, 207762, Note_on_c, 0, 68, 54
1, 207808, Note_off_c, 0, 71, 64
1, 207832, Note_off_c, 0, 68, 64
1, 207894, Note_off_c, 0, 80, 64
1, 207968, Note_on_c, 0, 81, 97
1, 207974, Note_on_c, 0, 69, 72
1, 207978, Note_on_c, 0, 73, 66
1, 207992, Note_off_c, 0, 40, 64
1, 207994, Note_on_c, 0, 45, 49
1, 208060, Note_off_c, 0, 81, 64
1, 208090, Note_off_c, 0, 69, 64
1, 208152, Note_off_c, 0, 73, 64
1, 208218, Note_on_c, 0, 76, 71
1, 208221, Note_on_c, 0, 78, 85
1, 208234, Note_on_c, 0, 52, 70
1, 208238, Note_on_c, 0, 68, 36
1, 208240, Note_on_c, 0, 66, 53
1, 208270, Note_off_c, 0, 45, 64
1, 208288, Note_off_c, 0, 66, 64
1, 208298, Note_off_c, 0, 52, 64
1, 208310, Note_off_c, 0, 68, 64
1, 208324, Note_off_c, 0, 78, 64
1, 208366, Note_off_c, 0, 76, 64
1, 208454, Note_on_c, 0, 80, 90
1, 208457, Note_on_c, 0, 40, 76
1, 208460, Note_on_c, 0, 71, 73
1, 208470, Note_on_c, 0, 68, 54
1, 208498, Note_off_c, 0, 40, 64
1, 208524, Note_off_c, 0, 71, 64
1, 208584, Note_off_c, 0, 68, 64
1, 208622, Note_off_c, 0, 80, 64
1, 208688, Control_c, 0, 64, 0
1, 208692, Note_on_c, 0, 81, 101
1, 208698, Note_on_c, 0, 69, 79
1, 208702, Note_on_c, 0, 33, 66
1, 208712, Note_on_c, 0, 73, 58
1, 208834, Note_off_c, 0, 33, 64
1, 208872, Control_c, 0, 64, 127
1, 208928, Note_off_c, 0, 81, 64
1, 208944, Note_off_c, 0, 69, 64
1, 208952, Note_on_c, 0, 52, 74
1, 208955, Note_on_c, 0, 76, 65
1, 208960, Note_off_c, 0, 73, 64
1, 209032, Note_off_c, 0, 52, 64
1, 209130, Note_off_c, 0, 76, 64
1, 209154, Note_on_c, 0, 80, 93
1, 209154, Note_on_c, 0, 68, 76
1, 209160, Note_on_c, 0, 71, 82
1, 209170, Note_on_c, 0, 40, 85
1, 209272, Note_off_c, 0, 71, 64
1, 209298, Note_off_c, 0, 68, 64
1, 209324, Note_off_c, 0, 80, 64
1, 209394, Note_on_c, 0, 81, 104
1, 209397, Note_off_c, 0, 40, 64
1, 209400, Note_on_c, 0, 69, 83
1, 209406, Note_on_c, 0, 73, 68
1, 209408, Note_on_c, 0, 45, 64
1, 209548, Note_off_c, 0, 73, 64
1, 209556, Note_off_c, 0, 69, 64
1, 209600, Note_off_c, 0, 45, 64
1, 209626, Note_on_c, 0, 80, 88
1, 209634, Note_on_c, 0, 52, 79
1, 209696, Note_off_c, 0, 81, 64
1, 209758, Note_off_c, 0, 52, 64
1, 209772, Note_off_c, 0, 80, 64
1, 209852, Note_on_c, 0, 83, 115
1, 209854, Note_on_c, 0, 40, 81
1, 209856, Note_on_c, 0, 71, 103
1, 209862, Note_on_c, 0, 78, 78
1, 209894, Note_off_c, 0, 40, 64
1, 209914, Note_off_c, 0, 71, 64
1, 209934, Note_off_c, 0, 83, 64
1, 210040, Note_off_c, 0, 78, 64
1, 210070, Control_c, 0, 64, 0
1, 210088, Note_on_c, 0, 85, 100
1, 210096, Note_on_c, 0, 73, 83
1, 210104, Note_on_c, 0, 76, 74
1, 210116, Note_on_c, 0, 33, 82
1, 210116, Note_on_c, 0, 45, 71
1, 210176, Note_off_c, 0, 33, 64
1, 210230, Note_off_c, 0, 45, 64
1, 210270, Control_c, 0, 64, 127
1, 210310, Note_off_c, 0, 76, 64
1, 210334, Note_on_c, 0, 81, 84
1, 210350, Note_on_c, 0, 52, 85
1, 210388, Note_off_c, 0, 73, 64
1, 210391, Note_off_c, 0, 85, 64
1, 210396, Note_off_c, 0, 81, 64
1, 210498, Note_off_c, 0, 52, 64
1, 210560, Note_on_c, 0, 69, 76
1, 210578, Note_on_c, 0, 40, 85
1, 210618, Note_off_c, 0, 69, 64
1, 210774, Note_off_c, 0, 40, 64
1, 210810, Note_on_c, 0, 85, 104
1, 210813, Note_on_c, 0, 75, 91
1, 210813, Note_on_c, 0, 73, 85
1, 210824, Control_c, 0, 64, 0
1, 210824, Note_on_c, 0, 45, 75
1, 211008, Control_c, 0, 64, 127
1, 211016, Note_off_c, 0, 75, 64
1, 211076, Note_on_c, 0, 79, 89
1, 211080, Note_on_c, 0, 51, 75
1, 211082, Note_off_c, 0, 45, 64
1, 211100, Note_off_c, 0, 85, 64
1, 211114, Note_off_c, 0, 73, 64
1, 211122, Note_off_c, 0, 79, 64
1, 211314, Note_off_c, 0, 51, 64
1, 211320, Note_on_c, 0, 67, 92
1, 211322, Note_on_c, 0, 39, 78
1, 211400, Note_off_c, 0, 67, 64
1, 211624, Note_off_c, 0, 39, 64
1, 211672, Note_on_c, 0, 85, 108
1, 211674, Note_on_c, 0, 75, 100
1, 211680, Note_on_c, 0, 44, 83
1, 211680, Note_on_c, 0, 73, 99
1, 211686, Note_on_c, 0, 32, 90
1, 211700, Control_c, 0, 64, 0
1, 211860, Note_off_c, 0, 32, 64
1, 211872, Note_off_c, 0, 44, 64
1, 211914, Control_c, 0, 64, 127
1, 211990, Note_on_c, 0, 51, 64
1, 212002, Note_on_c, 0, 80, 87
1, 212020, Note_off_c, 0, 75, 64
1, 212036, Note_off_c, 0, 85, 64
1, 212046, Note_off_c, 0, 73, 64
1, 212102, Note_off_c, 0, 80, 64
1, 212228, Note_off_c, 0, 51, 64
1, 212260, Note_on_c, 0, 68, 77
1, 212274, Note_on_c, 0, 39, 66
1, 212342, Note_off_c, 0, 68, 64
1, 212504, Note_on_c, 0, 73, 83
1, 212507, Note_off_c, 0, 39, 64
1, 212514, Note_on_c, 0, 75, 81
1, 212522, Note_on_c, 0, 44, 60
1, 212564, Note_off_c, 0, 75, 64
1, 212696, Note_off_c, 0, 73, 64
1, 212778, Note_off_c, 0, 44, 64
1, 212780, Note_on_c, 0, 84, 105
1, 212784, Note_on_c, 0, 72, 87
1, 212794, Note_on_c, 0, 80, 67
1, 212804, Note_on_c, 0, 51, 66
1, 212836, Note_off_c, 0, 80, 64
1, 212838, Note_off_c, 0, 72, 64
1, 212880, Note_off_c, 0, 84, 64
1, 213030, Note_off_c, 0, 51, 64
1, 213044, Note_on_c, 0, 39, 59
1, 213154, Note_on_c, 0, 80, 86
1, 213164, Note_on_c, 0, 68, 73
1, 213188, Note_off_c, 0, 80, 64
1, 213204, Note_off_c, 0, 68, 64
1, 213294, Note_on_c, 0, 68, 55
1, 213296, Note_on_c, 0, 80, 73
1, 213304, Note_on_c, 0, 73, 72
1, 213314, Note_on_c, 0, 44, 60
1, 213316, Note_on_c, 0, 75, 65
1, 213334, Note_off_c, 0, 39, 64
1, 213528, Note_off_c, 0, 73, 64
1, 213578, Note_on_c, 0, 72, 91
1, 213588, Note_off_c, 0, 68, 64
1, 213592, Note_on_c, 0, 51, 61
1, 213596, Note_off_c, 0, 80, 64
1, 213602, Note_off_c, 0, 44, 64
1, 213662, Note_off_c, 0, 75, 64
1, 213676, Note_off_c, 0, 72, 64
1, 213786, Note_off_c, 0, 51, 64
1, 213796, Note_on_c, 0, 39, 59
1, 213870, Note_on_c, 0, 68, 88
1, 213942, Note_off_c, 0, 68, 64
1, 214004, Note_on_c, 0, 68, 86
1, 214009, Note_on_c, 0, 61, 97
1, 214020, Note_on_c, 0, 63, 86
1, 214042, Note_on_c, 0, 44, 61
1, 214110, Note_off_c, 0, 39, 64
1, 214276, Note_off_c, 0, 61, 64
1, 214290, Note_on_c, 0, 60, 95
1, 214298, Note_on_c, 0, 51, 58
1, 214358, Note_off_c, 0, 44, 64
1, 214424, Note_off_c, 0, 51, 64
1, 214502, Note_on_c, 0, 39, 61
1, 214536, Note_off_c, 0, 60, 64
1, 214596, Note_on_c, 0, 56, 88
1, 214612, Note_off_c, 0, 68, 64
1, 214616, Note_off_c, 0, 39, 64
1, 214674, Note_off_c, 0, 56, 64
1, 214702, Note_on_c, 0, 32, 74
1, 214732, Note_on_c, 0, 56, 80
1, 214740, Note_off_c, 0, 63, 64
1, 214758, Control_c, 0, 64, 0
1, 214840, Note_on_c, 0, 68, 76
1, 214892, Note_off_c, 0, 56, 64
1, 214910, Note_off_c, 0, 32, 64
1, 214918, Note_on_c, 0, 60, 77
1, 214926, Control_c, 0, 64, 127
1, 214952, Note_off_c, 0, 68, 64
1, 214984, Note_on_c, 0, 63, 64
1, 215026, Note_off_c, 0, 60, 64
1, 215036, Note_on_c, 0, 51, 58
1, 215040, Note_on_c, 0, 68, 62
1, 215082, Note_off_c, 0, 68, 64
1, 215086, Note_off_c, 0, 63, 64
1, 215132, Note_on_c, 0, 68, 78
1, 215200, Note_off_c, 0, 51, 64
1, 215244, Note_off_c, 0, 68, 64
1, 215254, Note_on_c, 0, 80, 68
1, 215262, Note_on_c, 0, 39, 53
1, 215294, Note_off_c, 0, 80, 64
1, 215350, Note_on_c, 0, 80, 78
1, 215380, Note_off_c, 0, 39, 64
1, 215448, Note_off_c, 0, 80, 64
1, 215492, Note_on_c, 0, 92, 88
1, 215524, Note_off_c, 0, 92, 64
1, 215532, Note_on_c, 0, 44, 49
1, 215784, Note_off_c, 0, 44, 64
1, 215828, Note_on_c, 0, 63, 70
1, 215860, Note_on_c, 0, 51, 43
1, 216018, Note_off_c, 0, 63, 64
1, 216074, Note_on_c, 0, 58, 58
1, 216102, Note_on_c, 0, 39, 44
1, 216112, Note_off_c, 0, 51, 64
1, 216196, Note_off_c, 0, 58, 64
1, 216316, Note_on_c, 0, 60, 74
1, 216328, Note_on_c, 0, 44, 52
1, 216446, Note_off_c, 0, 39, 64
1, 216546, Note_on_c, 0, 63, 82
1, 216562, Note_off_c, 0, 60, 64
1, 216580, Note_on_c, 0, 51, 52
1, 216602, Note_off_c, 0, 63, 64
1, 216684, Note_off_c, 0, 44, 64
1, 216772, Note_on_c, 0, 70, 65
1, 216772, Note_on_c, 0, 58, 69
1, 216796, Note_on_c, 0, 39, 53
1, 216799, Note_off_c, 0, 51, 64
1, 216880, Note_off_c, 0, 58, 64
1, 216896, Note_off_c, 0, 70, 64
1, 216974, Note_off_c, 0, 39, 64
1, 216988, Note_on_c, 0, 72, 74
1, 216994, Note_on_c, 0, 60, 73
1, 217004, Note_on_c, 0, 44, 68
1, 217038, Note_off_c, 0, 60, 64
1, 217052, Note_off_c, 0, 72, 64
1, 217206, Note_on_c, 0, 75, 92
1, 217212, Note_on_c, 0, 63, 86
1, 217238, Note_on_c, 0, 51, 68
1, 217270, Note_off_c, 0, 63, 64
1, 217332, Note_off_c, 0, 44, 64
1, 217334, Note_off_c, 0, 75, 64
1, 217358, Note_off_c, 0, 51, 64
1, 217418, Note_on_c, 0, 70, 81
1, 217430, Note_on_c, 0, 39, 72
1, 217486, Note_off_c, 0, 39, 64
1, 217512, Note_off_c, 0, 70, 64
1, 217676, Control_c, 0, 64, 0
1, 217678, Note_on_c, 0, 80, 99
1, 217680, Note_on_c, 0, 72, 91
1, 217680, Note_on_c, 0, 32, 90
1, 217686, Note_on_c, 0, 68, 78
1, 217804, Note_off_c, 0, 32, 64
1, 217834, Note_off_c, 0, 68, 64
1, 217860, Control_c, 0, 64, 127
1, 217862, Note_off_c, 0, 72, 64
1, 217892, Note_on_c, 0, 75, 62
1, 217916, Note_off_c, 0, 80, 64
1, 217990, Note_on_c, 0, 77, 58
1, 217996, Note_on_c, 0, 51, 53
1, 217998, Note_off_c, 0, 75, 64
1, 218034, Note_off_c, 0, 77, 64
1, 218052, Note_on_c, 0, 75, 70
1, 218100, Note_off_c, 0, 75, 64
1, 218126, Note_on_c, 0, 77, 53
1, 218156, Note_off_c, 0, 51, 64
1, 218190, Note_off_c, 0, 77, 64
1, 218214, Note_on_c, 0, 75, 66
1, 218248, Note_on_c, 0, 39, 52
1, 218264, Note_off_c, 0, 75, 64
1, 218282, Note_on_c, 0, 77, 75
1, 218338, Note_off_c, 0, 77, 64
1, 218368, Note_on_c, 0, 75, 65
1, 218418, Note_off_c, 0, 39, 64
1, 218432, Note_off_c, 0, 75, 64
1, 218452, Note_on_c, 0, 77, 79
1, 218496, Note_off_c, 0, 77, 64
1, 218520, Note_on_c, 0, 44, 59
1, 218536, Note_on_c, 0, 75, 73
1, 218612, Note_off_c, 0, 75, 64
1, 218612, Note_on_c, 0, 77, 82
1, 218658, Note_off_c, 0, 77, 64
1, 218684, Note_off_c, 0, 44, 64
1, 218698, Note_on_c, 0, 75, 66
1, 218738, Note_on_c, 0, 51, 55
1, 218754, Note_off_c, 0, 75, 64
1, 218772, Note_on_c, 0, 77, 76
1, 218814, Note_off_c, 0, 77, 64
1, 218836, Note_on_c, 0, 75, 60
1, 218900, Note_off_c, 0, 75, 64
1, 218910, Note_off_c, 0, 51, 64
1, 218912, Note_on_c, 0, 77, 71
1, 218948, Note_on_c, 0, 39, 55
1, 218968, Note_on_c, 0, 75, 70
1, 219028, Note_off_c, 0, 77, 64
1, 219070, Note_on_c, 0, 74, 87
1, 219090, Note_off_c, 0, 75, 64
1, 219124, Note_off_c, 0, 74, 64
1, 219140, Note_on_c, 0, 75, 90
1, 219268, Note_on_c, 0, 44, 52
1, 219274, Control_c, 0, 64, 0
1, 219282, Note_on_c, 0, 73, 83
1, 219290, Note_on_c, 0, 80, 89
1, 219302, Note_on_c, 0, 68, 55
1, 219324, Note_off_c, 0, 75, 64
1, 219378, Note_off_c, 0, 39, 64
1, 219444, Control_c, 0, 64, 127
1, 219460, Note_off_c, 0, 68, 64
1, 219465, Note_off_c, 0, 73, 64
1, 219478, Note_off_c, 0, 80, 64
1, 219564, Note_on_c, 0, 75, 58
1, 219566, Note_on_c, 0, 51, 46
1, 219568, Note_on_c, 0, 77, 88
1, 219570, Note_on_c, 0, 65, 75
1, 219596, Note_off_c, 0, 44, 64
1, 219670, Note_off_c, 0, 65, 64
1, 219698, Note_off_c, 0, 77, 64
1, 219774, Note_off_c, 0, 51, 64
1, 219788, Note_on_c, 0, 39, 54
1, 219791, Note_on_c, 0, 79, 101
1, 219794, Note_on_c, 0, 70, 66
1, 219798, Note_on_c, 0, 67, 62
1, 219816, Note_off_c, 0, 75, 64
1, 219870, Note_off_c, 0, 67, 64
1, 219880, Note_off_c, 0, 79, 64
1, 219932, Note_off_c, 0, 70, 64
1, 220010, Note_on_c, 0, 80, 91
1, 220014, Note_on_c, 0, 68, 81
1, 220016, Note_on_c, 0, 72, 72
1, 220034, Note_on_c, 0, 44, 64
1, 220042, Control_c, 0, 64, 0
1, 220148, Note_off_c, 0, 68, 64
1, 220153, Note_off_c, 0, 39, 64
1, 220160, Note_off_c, 0, 80, 64
1, 220166, Control_c, 0, 64, 127
1, 220210, Note_off_c, 0, 72, 64
1, 220234, Note_on_c, 0, 75, 76
1, 220236, Note_on_c, 0, 77, 94
1, 220238, Note_on_c, 0, 65, 87
1, 220250, Note_on_c, 0, 51, 66
1, 220340, Note_off_c, 0, 65, 64
1, 220356, Note_off_c, 0, 77, 64
1, 220400, Note_off_c, 0, 51, 64
1, 220434, Note_off_c, 0, 44, 64
1, 220452, Note_off_c, 0, 75, 64
1, 220454, Note_on_c, 0, 79, 108
1, 220458, Note_on_c, 0, 70, 78
1, 220460, Note_on_c, 0, 67, 89
1, 220476, Note_on_c, 0, 39, 59
1, 220500, Note_on_c, 0, 69, 37
1, 220544, Note_off_c, 0, 39, 64
1, 220566, Note_off_c, 0, 67, 64
1, 220568, Note_off_c, 0, 69, 64
1, 220584, Note_off_c, 0, 79, 64
1, 220600, Note_off_c, 0, 70, 64
1, 220696, Note_on_c, 0, 80, 97
1, 220702, Note_on_c, 0, 68, 83
1, 220704, Control_c, 0, 64, 0
1, 220704, Note_on_c, 0, 72, 74
1, 220722, Note_on_c, 0, 32, 76
1, 220846, Note_off_c, 0, 32, 64
1, 220872, Control_c, 0, 64, 127
1, 220962, Note_on_c, 0, 75, 75
1, 220964, Note_on_c, 0, 51, 69
1, 220990, Note_off_c, 0, 72, 64
1, 221022, Note_off_c, 0, 68, 64
1, 221025, Note_off_c, 0, 80, 64
1, 221096, Note_off_c, 0, 51, 64
1, 221158, Note_on_c, 0, 79, 107
1, 221160, Note_on_c, 0, 70, 79
1, 221164, Note_on_c, 0, 67, 86
1, 221166, Note_off_c, 0, 75, 64
1, 221176, Note_on_c, 0, 39, 68
1, 221248, Note_off_c, 0, 79, 64
1, 221254, Note_off_c, 0, 67, 64
1, 221322, Note_off_c, 0, 70, 64
1, 221380, Note_on_c, 0, 80, 100
1, 221390, Note_on_c, 0, 71, 92
1, 221396, Note_on_c, 0, 68, 78
1, 221408, Note_on_c, 0, 44, 69
1, 221411, Control_c, 0, 64, 0
1, 221532, Note_off_c, 0, 39, 64
1, 221550, Note_off_c, 0, 71, 64
1, 221580, Control_c, 0, 64, 127
1, 221622, Note_on_c, 0, 51, 69
1, 221624, Note_on_c, 0, 78, 85
1, 221642, Note_off_c, 0, 44, 64
1, 221680, Note_off_c, 0, 68, 64
1, 221722, Note_off_c, 0, 80, 64
1, 221746, Note_off_c, 0, 51, 64
1, 221750, Note_off_c, 0, 78, 64
1, 221834, Note_on_c, 0, 82, 97
1, 221836, Note_on_c, 0, 70, 91
1, 221840, Note_on_c, 0, 39, 81
1, 221846, Note_on_c, 0, 76, 80
1, 221938, Note_off_c, 0, 39, 64
1, 221956, Note_off_c, 0, 70, 64
1, 221972, Note_off_c, 0, 76, 64
1, 221998, Note_off_c, 0, 82, 64
1, 222066, Note_on_c, 0, 83, 119
1, 222069, Note_on_c, 0, 75, 87
1, 222069, Note_on_c, 0, 71, 102
1, 222078, Note_on_c, 0, 44, 84
1, 222078, Note_on_c, 0, 32, 81
1, 222086, Control_c, 0, 64, 0
1, 222142, Note_off_c, 0, 32, 64
1, 222178, Note_off_c, 0, 44, 64
1, 222240, Control_c, 0, 64, 127
1, 222308, Note_on_c, 0, 51, 69
1, 222318, Note_on_c, 0, 78, 86
1, 222348, Note_off_c, 0, 71, 64
1, 222351, Note_off_c, 0, 83, 64
1, 222406, Note_off_c, 0, 75, 64
1, 222472, Note_off_c, 0, 51, 64
1, 222506, Note_off_c, 0, 78, 64
1, 222526, Note_on_c, 0, 68, 85
1, 222542, Note_on_c, 0, 39, 76
1, 222642, Note_off_c, 0, 68, 64
1, 222660, Note_off_c, 0, 39, 64
1, 222764, Note_on_c, 0, 83, 123
1, 222764, Note_on_c, 0, 73, 88
1, 222767, Note_on_c, 0, 71, 100
1, 222774, Note_on_c, 0, 44, 92
1, 222794, Control_c, 0, 64, 0
1, 222970, Control_c, 0, 64, 127
1, 223024, Note_off_c, 0, 44, 64
1, 223026, Note_on_c, 0, 77, 81
1, 223030, Note_on_c, 0, 49, 84
1, 223050, Note_off_c, 0, 83, 64
1, 223058, Note_off_c, 0, 71, 64
1, 223086, Note_off_c, 0, 73, 64
1, 223102, Note_off_c, 0, 49, 64
1, 223286, Note_on_c, 0, 68, 83
1, 223294, Note_on_c, 0, 37, 101
1, 223388, Note_off_c, 0, 68, 64
1, 223602, Note_off_c, 0, 37, 64
1, 223620, Note_on_c, 0, 83, 119
1, 223624, Control_c, 0, 64, 0
1, 223624, Note_on_c, 0, 71, 101
1, 223626, Note_on_c, 0, 42, 93
1, 223626, Note_on_c, 0, 73, 79
1, 223630, Note_on_c, 0, 30, 99
1, 223676, Note_off_c, 0, 77, 64
1, 223816, Note_off_c, 0, 30, 64
1, 223826, Note_off_c, 0, 42, 64
1, 223854, Control_c, 0, 64, 127
1, 223958, Note_on_c, 0, 78, 78
1, 223963, Note_on_c, 0, 49, 77
1, 224008, Note_off_c, 0, 83, 64
1, 224044, Note_off_c, 0, 73, 64
1, 224056, Note_off_c, 0, 71, 64
1, 224228, Note_on_c, 0, 66, 76
1, 224232, Note_on_c, 0, 37, 79
1, 224252, Note_off_c, 0, 49, 64
1, 224342, Note_off_c, 0, 66, 64
1, 224456, Note_on_c, 0, 73, 78
1, 224456, Note_on_c, 0, 42, 70
1, 224462, Note_off_c, 0, 37, 64
1, 224462, Note_on_c, 0, 71, 89
1, 224558, Note_off_c, 0, 78, 64
1, 224578, Note_off_c, 0, 71, 64
1, 224624, Note_off_c, 0, 73, 64
1, 224664, Note_on_c, 0, 82, 84
1, 224667, Note_on_c, 0, 70, 86
1, 224678, Note_on_c, 0, 78, 56
1, 224684, Note_on_c, 0, 49, 73
1, 224718, Note_off_c, 0, 42, 64
1, 224728, Note_off_c, 0, 78, 64
1, 224744, Note_off_c, 0, 70, 64
1, 224794, Note_off_c, 0, 82, 64
1, 224868, Note_off_c, 0, 49, 64
1, 224890, Note_on_c, 0, 37, 74
1, 225002, Note_on_c, 0, 78, 92
1, 225008, Note_on_c, 0, 66, 83
1, 225044, Note_off_c, 0, 78, 64
1, 225050, Note_off_c, 0, 66, 64
1, 225112, Note_on_c, 0, 78, 91
1, 225115, Note_on_c, 0, 66, 79
1, 225122, Note_on_c, 0, 71, 98
1, 225130, Note_on_c, 0, 73, 81
1, 225130, Note_on_c, 0, 42, 72
1, 225180, Note_off_c, 0, 37, 64
1, 225280, Note_off_c, 0, 66, 64
1, 225432, Note_off_c, 0, 71, 64
1, 225506, Note_on_c, 0, 70, 89
1, 225526, Note_on_c, 0, 49, 57
1, 225550, Note_off_c, 0, 78, 64
1, 225570, Note_off_c, 0, 73, 64
1, 225598, Note_off_c, 0, 70, 64
1, 225726, Note_off_c, 0, 49, 64
1, 225760, Note_off_c, 0, 42, 64
1, 225764, Note_on_c, 0, 37, 62
1, 225880, Note_on_c, 0, 66, 85
1, 225986, Note_off_c, 0, 66, 64
1, 226044, Note_on_c, 0, 66, 79
1, 226058, Note_on_c, 0, 59, 95
1, 226062, Note_on_c, 0, 61, 76
1, 226064, Note_on_c, 0, 42, 52
1, 226128, Control_c, 0, 64, 0
1, 226312, Control_c, 0, 64, 127
1, 226328, Note_off_c, 0, 37, 64
1, 226382, Note_on_c, 0, 58, 83
1, 226404, Note_on_c, 0, 49, 56
1, 226426, Note_off_c, 0, 59, 64
1, 226522, Note_off_c, 0, 61, 64
1, 226544, Note_off_c, 0, 49, 64
1, 226592, Note_on_c, 0, 37, 62
1, 226614, Note_off_c, 0, 66, 64
1, 226632, Note_off_c, 0, 58, 64
1, 226644, Note_off_c, 0, 42, 64
1, 226678, Note_on_c, 0, 54, 91
1, 226690, Note_off_c, 0, 37, 64
1, 226712, Note_off_c, 0, 54, 64
1, 226792, Note_on_c, 0, 54, 69
1, 226804, Control_c, 0, 64, 0
1, 226804, Note_on_c, 0, 30, 76
1, 226914, Note_on_c, 0, 66, 61
1, 226964, Note_off_c, 0, 54, 64
1, 226982, Note_off_c, 0, 30, 64
1, 226988, Control_c, 0, 64, 127
1, 226990, Note_on_c, 0, 58, 65
1, 227048, Note_off_c, 0, 66, 64
1, 227056, Note_on_c, 0, 61, 59
1, 227110, Note_on_c, 0, 66, 68
1, 227116, Note_off_c, 0, 58, 64
1, 227120, Note_on_c, 0, 49, 56
1, 227152, Note_off_c, 0, 61, 64
1, 227162, Note_off_c, 0, 66, 64
1, 227218, Note_on_c, 0, 66, 73
1, 227324, Note_off_c, 0, 66, 64
1, 227340, Note_off_c, 0, 49, 64
1, 227346, Note_on_c, 0, 78, 65
1, 227362, Note_on_c, 0, 37, 45
1, 227386, Note_off_c, 0, 78, 64
1, 227464, Note_on_c, 0, 78, 52
1, 227584, Note_off_c, 0, 37, 64
1, 227600, Note_off_c, 0, 78, 64
1, 227632, Note_on_c, 0, 90, 85
1, 227680, Note_on_c, 0, 42, 40
1, 227685, Note_off_c, 0, 90, 64
1, 228016, Note_on_c, 0, 49, 39
1, 228024, Note_on_c, 0, 61, 60
1, 228072, Note_off_c, 0, 42, 64
1, 228252, Note_off_c, 0, 61, 64
1, 228254, Note_off_c, 0, 49, 64
1, 228282, Note_on_c, 0, 56, 65
1, 228296, Note_on_c, 0, 37, 41
1, 228440, Note_off_c, 0, 56, 64
1, 228528, Note_on_c, 0, 57, 70
1, 228538, Note_on_c, 0, 42, 47
1, 228556, Control_c, 0, 64, 0
1, 228664, Note_off_c, 0, 37, 64
1, 228724, Control_c, 0, 64, 127
1, 228770, Note_on_c, 0, 61, 76
1, 228770, Note_on_c, 0, 49, 47
1, 228794, Note_off_c, 0, 57, 64
1, 228904, Note_off_c, 0, 42, 64
1, 228932, Note_off_c, 0, 61, 64
1, 228944, Note_off_c, 0, 49, 64
1, 229008, Note_on_c, 0, 66, 80
1, 229011, Note_on_c, 0, 37, 46
1, 229011, Note_on_c, 0, 56, 62
1, 229122, Note_off_c, 0, 56, 64
1, 229222, Note_off_c, 0, 66, 64
1, 229250, Note_on_c, 0, 64, 93
1, 229266, Note_on_c, 0, 57, 59
1, 229276, Control_c, 0, 64, 0
1, 229278, Note_on_c, 0, 42, 44
1, 229378, Note_off_c, 0, 37, 64
1, 229446, Control_c, 0, 64, 127
1, 229464, Note_off_c, 0, 57, 64
1, 229494, Note_on_c, 0, 61, 66
1, 229506, Note_on_c, 0, 49, 55
1, 229580, Note_off_c, 0, 64, 64
1, 229612, Note_off_c, 0, 42, 64
1, 229622, Note_off_c, 0, 61, 64
1, 229656, Note_off_c, 0, 49, 64
1, 229710, Note_on_c, 0, 66, 83
1, 229718, Note_on_c, 0, 56, 64
1, 229732, Note_on_c, 0, 37, 42
1, 229790, Note_off_c, 0, 56, 64
1, 229950, Note_off_c, 0, 66, 64
1, 229972, Note_on_c, 0, 62, 89
1, 229988, Note_on_c, 0, 57, 61
1, 230000, Control_c, 0, 64, 0
1, 230000, Note_on_c, 0, 42, 41
1, 230174, Note_off_c, 0, 37, 64
1, 230214, Control_c, 0, 64, 127
1, 230226, Note_off_c, 0, 57, 64
1, 230250, Note_on_c, 0, 49, 41
1, 230264, Note_on_c, 0, 60, 54
1, 230358, Note_off_c, 0, 42, 64
1, 230428, Note_off_c, 0, 49, 64
1, 230478, Note_off_c, 0, 60, 64
1, 230488, Note_on_c, 0, 56, 55
1, 230514, Note_on_c, 0, 37, 44
1, 230700, Note_off_c, 0, 56, 64
1, 230762, Note_on_c, 0, 57, 57
1, 230772, Note_on_c, 0, 42, 41
1, 230782, Note_off_c, 0, 37, 64
1, 230802, Note_off_c, 0, 62, 64
1, 231010, Note_off_c, 0, 57, 64
1, 231024, Note_on_c, 0, 69, 63
1, 231042, Note_on_c, 0, 49, 46
1, 231056, Note_off_c, 0, 42, 64
1, 231076, Note_off_c, 0, 69, 64
1, 231242, Note_off_c, 0, 49, 64
1, 231294, Note_on_c, 0, 54, 63
1, 231312, Note_on_c, 0, 37, 35
1, 231378, Note_off_c, 0, 54, 64
1, 231524, Note_on_c, 0, 61, 77
1, 231528, Note_on_c, 0, 53, 91
1, 231540, Note_on_c, 0, 44, 48
1, 231598, Control_c, 0, 64, 0
1, 231738, Note_off_c, 0, 37, 64
1, 231744, Note_off_c, 0, 53, 64
1, 231768, Note_on_c, 0, 56, 72
1, 231776, Note_on_c, 0, 49, 54
1, 231782, Control_c, 0, 64, 127
1, 231816, Note_off_c, 0, 56, 64
1, 231844, Note_off_c, 0, 61, 64
1, 231924, Note_off_c, 0, 44, 64
1, 231996, Note_on_c, 0, 61, 90
1, 231998, Note_on_c, 0, 73, 91
1, 232010, Note_on_c, 0, 37, 61
1, 232012, Note_off_c, 0, 49, 64
1, 232078, Note_off_c, 0, 61, 64
1, 232124, Note_off_c, 0, 73, 64
1, 232240, Note_on_c, 0, 76, 103
1, 232243, Note_on_c, 0, 64, 93
1, 232258, Control_c, 0, 64, 0
1, 232260, Note_on_c, 0, 69, 49
1, 232260, Note_on_c, 0, 42, 64
1, 232350, Note_off_c, 0, 37, 64
1, 232426, Control_c, 0, 64, 127
1, 232498, Note_on_c, 0, 54, 84
1, 232504, Note_on_c, 0, 73, 76
1, 232510, Note_off_c, 0, 64, 64
1, 232528, Note_off_c, 0, 69, 64
1, 232552, Note_off_c, 0, 76, 64
1, 232592, Note_off_c, 0, 73, 64
1, 232616, Note_off_c, 0, 54, 64
1, 232674, Note_off_c, 0, 42, 64
1, 232762, Note_on_c, 0, 78, 99
1, 232764, Note_on_c, 0, 66, 90
1, 232780, Note_on_c, 0, 37, 72
1, 232868, Note_off_c, 0, 66, 64
1, 232884, Note_off_c, 0, 78, 64
1, 233064, Note_on_c, 0, 74, 106
1, 233068, Note_on_c, 0, 62, 102
1, 233080, Note_on_c, 0, 69, 68
1, 233092, Note_on_c, 0, 42, 67
1, 233120, Note_off_c, 0, 37, 64
1, 233318, Control_c, 0, 64, 0
1, 233412, Note_on_c, 0, 72, 80
1, 233420, Note_on_c, 0, 54, 54
1, 233456, Control_c, 0, 64, 127
1, 233476, Note_off_c, 0, 69, 64
1, 233512, Note_off_c, 0, 54, 64
1, 233602, Note_off_c, 0, 42, 64
1, 233692, Note_on_c, 0, 68, 68
1, 233694, Note_on_c, 0, 37, 56
1, 233720, Note_off_c, 0, 72, 64
1, 233948, Note_off_c, 0, 68, 64
1, 233962, Note_on_c, 0, 42, 52
1, 233964, Note_off_c, 0, 37, 64
1, 233964, Note_on_c, 0, 69, 51
1, 234202, Note_on_c, 0, 54, 60
1, 234205, Note_on_c, 0, 72, 69
1, 234260, Note_off_c, 0, 54, 64
1, 234266, Note_off_c, 0, 74, 64
1, 234276, Note_off_c, 0, 62, 64
1, 234320, Note_off_c, 0, 69, 64
1, 234332, Note_off_c, 0, 42, 64
1, 234402, Note_off_c, 0, 72, 64
1, 234414, Note_on_c, 0, 66, 60
1, 234424, Note_on_c, 0, 37, 63
1, 234466, Note_off_c, 0, 66, 64
1, 234602, Note_off_c, 0, 37, 64
1, 234622, Note_on_c, 0, 60, 87
1, 234668, Note_on_c, 0, 42, 47
1, 234790, Note_on_c, 0, 62, 72
1, 234810, Note_off_c, 0, 60, 64
1, 234938, Note_on_c, 0, 69, 54
1, 234942, Note_off_c, 0, 62, 64
1, 234966, Note_on_c, 0, 54, 52
1, 234988, Note_off_c, 0, 69, 64
1, 235036, Note_off_c, 0, 54, 64
1, 235050, Note_on_c, 0, 72, 82
1, 235116, Note_off_c, 0, 42, 64
1, 235146, Note_off_c, 0, 72, 64
1, 235182, Note_on_c, 0, 74, 78
1, 235232, Note_on_c, 0, 37, 39
1, 235300, Note_on_c, 0, 81, 56
1, 235310, Note_off_c, 0, 74, 64
1, 235346, Note_off_c, 0, 81, 64
1, 235398, Note_on_c, 0, 81, 79
1, 235554, Note_off_c, 0, 37, 64
1, 235580, Note_off_c, 0, 81, 64
1, 235592, Note_on_c, 0, 93, 79
1, 235608, Note_on_c, 0, 42, 40
1, 235702, Note_off_c, 0, 42, 64
1, 235714, Note_off_c, 0, 93, 64
1, 236016, Note_on_c, 0, 57, 46
1, 236186, Note_off_c, 0, 57, 64
1, 236400, Note_on_c, 0, 72, 75
1, 236404, Note_on_c, 0, 60, 66
1, 236414, Note_on_c, 0, 37, 39
1, 236417, Note_on_c, 0, 66, 40
1, 236618, Note_off_c, 0, 60, 64
1, 236634, Note_off_c, 0, 72, 64
1, 236644, Note_off_c, 0, 66, 64
1, 236816, Note_on_c, 0, 61, 62
1, 236822, Control_c, 0, 64, 0
1, 236822, Note_on_c, 0, 73, 61
1, 236836, Note_on_c, 0, 44, 47
1, 236838, Note_on_c, 0, 65, 42
1, 236982, Note_off_c, 0, 37, 64
1, 237052, Control_c, 0, 64, 127
1, 237060, Note_off_c, 0, 44, 64
1, 237162, Note_on_c, 0, 68, 54
1, 237168, Note_on_c, 0, 53, 78
1, 237180, Note_off_c, 0, 61, 64
1, 237280, Note_off_c, 0, 65, 64
1, 237312, Note_off_c, 0, 53, 64
1, 237320, Note_off_c, 0, 73, 64
1, 237452, Note_on_c, 0, 61, 77
1, 237482, Note_on_c, 0, 37, 44
1, 237546, Note_off_c, 0, 68, 64
1, 237624, Note_off_c, 0, 61, 64
1, 237728, Control_c, 0, 64, 0
1, 237728, Note_on_c, 0, 73, 85
1, 237742, Note_on_c, 0, 44, 52
1, 237756, Note_on_c, 0, 64, 55
1, 237896, Note_off_c, 0, 37, 64
1, 237958, Control_c, 0, 64, 127
1, 237964, Note_off_c, 0, 44, 64
1, 238030, Note_on_c, 0, 68, 57
1, 238050, Note_off_c, 0, 64, 64
1, 238050, Note_on_c, 0, 52, 62
1, 238132, Note_off_c, 0, 52, 64
1, 238328, Note_on_c, 0, 61, 66
1, 238330, Note_on_c, 0, 37, 56
1, 238464, Note_off_c, 0, 37, 64
1, 238518, Note_off_c, 0, 61, 64
1, 238696, Note_on_c, 0, 64, 60
1, 238696, Note_on_c, 0, 40, 64
1, 238742, Control_c, 0, 64, 0
1, 238930, Note_off_c, 0, 68, 64
1, 238958, Control_c, 0, 64, 127
1, 238976, Note_off_c, 0, 64, 64
1, 239064, Note_off_c, 0, 73, 64
1, 239114, Note_on_c, 0, 71, 88
1, 239118, Note_off_c, 0, 40, 64
1, 239126, Note_on_c, 0, 62, 60
1, 239132, Note_on_c, 0, 68, 46
1, 239150, Note_on_c, 0, 47, 40
1, 239212, Note_off_c, 0, 62, 64
1, 239336, Note_off_c, 0, 47, 64
1, 239352, Note_off_c, 0, 68, 64
1, 239488, Note_on_c, 0, 56, 36
1, 239490, Note_on_c, 0, 73, 81
1, 239550, Note_on_c, 0, 62, 11
1, 239552, Note_off_c, 0, 56, 64
1, 239564, Note_on_c, 0, 66, 15
1, 239566, Note_off_c, 0, 71, 64
1, 239624, Note_off_c, 0, 62, 64
1, 239652, Note_off_c, 0, 66, 64
1, 239740, Note_on_c, 0, 59, 29
1, 239828, Note_off_c, 0, 73, 64
1, 239850, Note_on_c, 0, 74, 86
1, 239878, Note_on_c, 0, 64, 36
1, 239880, Control_c, 0, 64, 0
1, 239880, Note_on_c, 0, 62, 45
1, 239936, Note_on_c, 0, 68, 36
1, 240064, Control_c, 0, 64, 127
1, 240078, Note_off_c, 0, 62, 64
1, 240080, Note_off_c, 0, 64, 64
1, 240104, Note_off_c, 0, 68, 64
1, 240116, Note_off_c, 0, 74, 64
1, 240132, Note_off_c, 0, 59, 64
1, 240330, Note_on_c, 0, 80, 68
1, 240330, Note_on_c, 0, 68, 44
1, 240374, Note_on_c, 0, 76, 24
1, 240560, Control_c, 0, 64, 0
1, 240740, Control_c, 0, 64, 127
1, 240784, Note_off_c, 0, 68, 64
1, 240838, Note_off_c, 0, 80, 64
1, 240842, Note_off_c, 0, 76, 64
1, 240890, Note_on_c, 0, 78, 61
1, 240908, Note_on_c, 0, 66, 34
1, 240914, Note_on_c, 0, 74, 37
1, 241098, Note_off_c, 0, 74, 64
1, 241128, Note_off_c, 0, 78, 64
1, 241190, Note_off_c, 0, 66, 64
1, 241198, Note_on_c, 0, 33, 17
1, 241312, Note_off_c, 0, 33, 64
1, 241404, Note_on_c, 0, 76, 46
1, 241412, Note_on_c, 0, 73, 26
1, 241424, Note_on_c, 0, 64, 31
1, 241462, Note_on_c, 0, 45, 19
1, 241462, Control_c, 0, 64, 0
1, 241662, Control_c, 0, 64, 127
1, 241704, Note_off_c, 0, 45, 64
1, 241932, Note_on_c, 0, 52, 38
1, 241950, Note_off_c, 0, 76, 64
1, 241988, Note_off_c, 0, 64, 64
1, 241990, Note_off_c, 0, 73, 64
1, 242134, Note_off_c, 0, 52, 64
1, 242278, Note_on_c, 0, 63, 34
1, 242278, Note_on_c, 0, 54, 31
1, 242292, Note_on_c, 0, 75, 38
1, 242324, Note_on_c, 0, 72, 19
1, 242450, Note_off_c, 0, 75, 64
1, 242458, Note_off_c, 0, 63, 64
1, 242516, Note_off_c, 0, 72, 64
1, 242534, Note_off_c, 0, 54, 64
1, 242598, Note_on_c, 0, 74, 48
1, 242614, Note_on_c, 0, 71, 42
1, 242626, Note_on_c, 0, 62, 22
1, 242636, Note_on_c, 0, 56, 18
1, 242752, Control_c, 0, 64, 0
1, 242866, Note_off_c, 0, 62, 64
1, 242892, Note_on_c, 0, 52, 42
1, 242906, Control_c, 0, 64, 127
1, 242990, Note_off_c, 0, 52, 64
1, 243002, Note_off_c, 0, 71, 64
1, 243030, Note_off_c, 0, 74, 64
1, 243054, Note_off_c, 0, 56, 64
1, 243146, Note_on_c, 0, 72, 53
1, 243156, Note_on_c, 0, 68, 35
1, 243156, Note_on_c, 0, 62, 39
1, 243218, Note_off_c, 0, 62, 64
1, 243350, Note_off_c, 0, 72, 64
1, 243422, Note_on_c, 0, 73, 55
1, 243428, Note_on_c, 0, 61, 40
1, 243430, Note_on_c, 0, 45, 25
1, 243442, Note_off_c, 0, 68, 64
1, 243450, Note_on_c, 0, 69, 28
1, 243490, Control_c, 0, 64, 0
1, 243654, Note_off_c, 0, 45, 64
1, 243659, Control_c, 0, 64, 127
1, 243670, Note_off_c, 0, 61, 64
1, 243678, Note_on_c, 0, 52, 41
1, 243686, Note_off_c, 0, 69, 64
1, 243742, Note_off_c, 0, 73, 64
1, 243848, Note_off_c, 0, 52, 64
1, 243892, Note_on_c, 0, 76, 78
1, 243900, Note_on_c, 0, 73, 44
1, 243908, Note_on_c, 0, 64, 56
1, 243940, Note_on_c, 0, 45, 22
1, 243964, Note_off_c, 0, 64, 64
1, 244034, Note_off_c, 0, 73, 64
1, 244060, Note_off_c, 0, 76, 64
1, 244182, Note_on_c, 0, 81, 81
1, 244185, Note_on_c, 0, 73, 48
1, 244196, Note_on_c, 0, 69, 45
1, 244212, Control_c, 0, 64, 0
1, 244240, Note_on_c, 0, 52, 35
1, 244292, Note_off_c, 0, 45, 64
1, 244380, Control_c, 0, 64, 127
1, 244440, Note_off_c, 0, 52, 64
1, 244448, Note_off_c, 0, 69, 64
1, 244484, Note_off_c, 0, 81, 64
1, 244516, Note_on_c, 0, 57, 20
1, 244646, Note_off_c, 0, 73, 64
1, 244646, Note_off_c, 0, 57, 64
1, 244784, Note_on_c, 0, 80, 64
1, 244790, Note_on_c, 0, 68, 48
1, 244792, Note_on_c, 0, 61, 33
1, 244838, Note_on_c, 0, 76, 25
1, 244894, Note_off_c, 0, 61, 64
1, 244930, Note_off_c, 0, 68, 64
1, 244950, Note_off_c, 0, 80, 64
1, 245000, Note_off_c, 0, 76, 64
1, 245090, Note_on_c, 0, 78, 68
1, 245098, Note_on_c, 0, 66, 38
1, 245104, Note_on_c, 0, 45, 21
1, 245108, Note_on_c, 0, 74, 46
1, 245118, Control_c, 0, 64, 0
1, 245210, Note_off_c, 0, 74, 64
1, 245258, Control_c, 0, 64, 127
1, 245276, Note_off_c, 0, 78, 64
1, 245282, Note_off_c, 0, 66, 64
1, 245326, Note_off_c, 0, 45, 64
1, 245368, Note_on_c, 0, 76, 64
1, 245378, Note_on_c, 0, 73, 43
1, 245388, Note_on_c, 0, 64, 39
1, 245406, Note_on_c, 0, 52, 22
1, 245448, Note_off_c, 0, 64, 64
1, 245450, Note_off_c, 0, 73, 64
1, 245480, Note_off_c, 0, 76, 64
1, 245490, Note_off_c, 0, 52, 64
1, 245604, Note_on_c, 0, 74, 65
1, 245608, Note_on_c, 0, 62, 52
1, 245636, Note_on_c, 0, 45, 25
1, 245636, Note_on_c, 0, 71, 37
1, 245658, Note_off_c, 0, 74, 64
1, 245664, Note_off_c, 0, 62, 64
1, 245708, Note_off_c, 0, 71, 64
1, 245858, Note_on_c, 0, 78, 64
1, 245872, Control_c, 0, 64, 0
1, 245886, Note_on_c, 0, 52, 44
1, 245886, Note_on_c, 0, 66, 16
1, 245886, Note_on_c, 0, 74, 32
1, 245958, Note_off_c, 0, 45, 64
1, 245968, Note_off_c, 0, 74, 64
1, 246072, Control_c, 0, 64, 127
1, 246132, Note_off_c, 0, 52, 64
1, 246138, Note_on_c, 0, 56, 37
1, 246174, Note_off_c, 0, 78, 64
1, 246232, Note_off_c, 0, 56, 64
1, 246270, Note_off_c, 0, 66, 64
1, 246433, Note_on_c, 0, 68, 37
1, 246436, Note_on_c, 0, 71, 59
1, 246442, Note_on_c, 0, 62, 30
1, 246518, Note_off_c, 0, 62, 64
1, 246526, Note_off_c, 0, 68, 64
1, 246650, Note_on_c, 0, 68, 2
1, 246738, Note_on_c, 0, 61, 38
1, 246752, Note_on_c, 0, 73, 40
1, 246762, Note_off_c, 0, 71, 64
1, 246762, Note_off_c, 0, 68, 64
1, 246765, Note_on_c, 0, 45, 32
1, 246794, Control_c, 0, 64, 0
1, 246800, Note_on_c, 0, 69, 18
1, 247032, Note_off_c, 0, 61, 64
1, 247032, Note_off_c, 0, 45, 64
1, 247054, Note_on_c, 0, 52, 44
1, 247054, Control_c, 0, 64, 127
1, 247064, Note_off_c, 0, 69, 64
1, 247072, Note_off_c, 0, 73, 64
1, 247116, Note_off_c, 0, 52, 64
1, 247310, Note_on_c, 0, 45, 35
1, 247406, Note_off_c, 0, 45, 64
1, 247556, Note_on_c, 0, 76, 72
1, 247568, Note_on_c, 0, 52, 37
1, 247574, Note_on_c, 0, 73, 35
1, 247592, Note_on_c, 0, 64, 30
1, 247784, Note_off_c, 0, 52, 64
1, 247830, Note_on_c, 0, 57, 23
1, 247934, Note_off_c, 0, 57, 64
1, 248077, Note_on_c, 0, 61, 41
1, 248160, Note_off_c, 0, 61, 64
1, 248346, Control_c, 0, 64, 0
1, 248346, Note_on_c, 0, 45, 32
1, 248500, Control_c, 0, 64, 127
1, 248550, Note_off_c, 0, 64, 64
1, 248570, Note_off_c, 0, 45, 64
1, 248578, Note_off_c, 0, 76, 64
1, 248656, Note_on_c, 0, 52, 37
1, 248670, Note_off_c, 0, 73, 64
1, 248726, Note_off_c, 0, 52, 64
1, 248912, Note_on_c, 0, 75, 46
1, 248928, Note_on_c, 0, 63, 26
1, 248944, Note_on_c, 0, 45, 22
1, 248947, Note_on_c, 0, 72, 33
1, 249068, Control_c, 0, 64, 0
1, 249200, Note_on_c, 0, 52, 47
1, 249210, Note_off_c, 0, 45, 64
1, 249236, Control_c, 0, 64, 127
1, 249372, Note_off_c, 0, 63, 64
1, 249404, Note_off_c, 0, 75, 64
1, 249456, Note_off_c, 0, 72, 64
1, 249488, Note_on_c, 0, 74, 75
1, 249491, Note_off_c, 0, 52, 64
1, 249491, Note_on_c, 0, 71, 56
1, 249514, Note_on_c, 0, 56, 35
1, 249592, Note_off_c, 0, 71, 64
1, 249595, Note_off_c, 0, 56, 64
1, 249740, Note_off_c, 0, 74, 64
1, 249758, Note_on_c, 0, 72, 77
1, 249770, Note_on_c, 0, 62, 44
1, 249776, Note_on_c, 0, 68, 48
1, 249824, Note_off_c, 0, 62, 64
1, 249934, Note_off_c, 0, 68, 64
1, 249984, Note_off_c, 0, 72, 64
1, 250008, Note_on_c, 0, 73, 76
1, 250008, Note_on_c, 0, 45, 31
1, 250014, Note_on_c, 0, 61, 68
1, 250020, Control_c, 0, 64, 0
1, 250044, Note_on_c, 0, 69, 29
1, 250100, Note_off_c, 0, 61, 64
1, 250116, Note_off_c, 0, 69, 64
1, 250174, Control_c, 0, 64, 127
1, 250190, Note_off_c, 0, 73, 64
1, 250240, Note_off_c, 0, 45, 64
1, 250260, Note_on_c, 0, 76, 89
1, 250272, Note_on_c, 0, 73, 43
1, 250292, Note_on_c, 0, 64, 48
1, 250310, Note_on_c, 0, 52, 21
1, 250344, Note_off_c, 0, 64, 64
1, 250347, Note_off_c, 0, 73, 64
1, 250400, Note_off_c, 0, 76, 64
1, 250402, Note_off_c, 0, 52, 64
1, 250522, Note_on_c, 0, 81, 100
1, 250542, Note_on_c, 0, 73, 52
1, 250542, Note_on_c, 0, 69, 51
1, 250558, Note_on_c, 0, 45, 29
1, 250626, Note_off_c, 0, 69, 64
1, 250668, Note_off_c, 0, 73, 64
1, 250710, Note_off_c, 0, 81, 64
1, 250864, Control_c, 0, 64, 0
1, 250869, Note_on_c, 0, 81, 74
1, 250876, Note_on_c, 0, 78, 68
1, 250898, Note_on_c, 0, 69, 34
1, 250918, Note_on_c, 0, 52, 34
1, 250982, Note_off_c, 0, 45, 64
1, 251050, Control_c, 0, 64, 127
1, 251154, Note_off_c, 0, 52, 64
1, 251182, Note_off_c, 0, 69, 64
1, 251224, Note_on_c, 0, 57, 24
1, 251232, Note_off_c, 0, 81, 64
1, 251386, Note_off_c, 0, 57, 64
1, 251496, Note_on_c, 0, 80, 69
1, 251512, Note_on_c, 0, 76, 48
1, 251512, Note_on_c, 0, 61, 42
1, 251512, Note_on_c, 0, 68, 37
1, 251568, Note_off_c, 0, 78, 64
1, 251570, Note_off_c, 0, 61, 64
1, 251598, Note_off_c, 0, 76, 64
1, 251602, Note_off_c, 0, 68, 64
1, 251668, Note_off_c, 0, 80, 64
1, 251816, Note_on_c, 0, 80, 72
1, 251824, Note_on_c, 0, 68, 52
1, 251834, Note_on_c, 0, 76, 42
1, 251838, Note_on_c, 0, 40, 42
1, 251848, Control_c, 0, 64, 0
1, 251992, Note_off_c, 0, 68, 64
1, 252018, Control_c, 0, 64, 127
1, 252054, Note_off_c, 0, 80, 64
1, 252060, Note_off_c, 0, 76, 64
1, 252070, Note_off_c, 0, 40, 64
1, 252096, Note_on_c, 0, 78, 67
1, 252104, Note_on_c, 0, 66, 48
1, 252114, Note_on_c, 0, 74, 52
1, 252142, Note_on_c, 0, 47, 26
1, 252166, Note_off_c, 0, 74, 64
1, 252232, Note_off_c, 0, 66, 64
1, 252234, Note_off_c, 0, 47, 64
1, 252240, Note_off_c, 0, 78, 64
1, 252348, Note_on_c, 0, 56, 31
1, 252366, Note_on_c, 0, 76, 65
1, 252374, Note_on_c, 0, 73, 53
1, 252376, Note_on_c, 0, 64, 59
1, 252422, Note_off_c, 0, 64, 64
1, 252462, Note_off_c, 0, 76, 64
1, 252518, Note_off_c, 0, 56, 64
1, 252522, Note_off_c, 0, 73, 64
1, 252662, Note_on_c, 0, 78, 50
1, 252674, Note_on_c, 0, 66, 24
1, 252686, Note_on_c, 0, 74, 38
1, 252688, Note_on_c, 0, 52, 39
1, 252786, Control_c, 0, 64, 0
1, 252934, Note_on_c, 0, 56, 37
1, 252936, Note_off_c, 0, 52, 64
1, 252936, Control_c, 0, 64, 127
1, 252992, Note_off_c, 0, 74, 64
1, 253008, Note_off_c, 0, 78, 64
1, 253050, Note_off_c, 0, 56, 64
1, 253186, Note_off_c, 0, 66, 64
1, 253238, Note_on_c, 0, 71, 51
1, 253246, Note_on_c, 0, 68, 27
1, 253258, Note_on_c, 0, 62, 39
1, 253356, Note_off_c, 0, 62, 64
1, 253604, Note_off_c, 0, 71, 64
1, 253610, Note_on_c, 0, 61, 26
1, 253612, Note_on_c, 0, 73, 27
1, 253636, Note_on_c, 0, 69, 25
1, 253636, Note_on_c, 0, 45, 26
1, 253646, Note_off_c, 0, 68, 64
1, 253662, Control_c, 0, 64, 0
1, 253936, Note_off_c, 0, 45, 64
1, 253938, Control_c, 0, 64, 127
1, 253968, Note_on_c, 0, 52, 31
1, 254052, Note_off_c, 0, 61, 64
1, 254086, Note_off_c, 0, 73, 64
1, 254118, Note_off_c, 0, 69, 64
1, 254194, Note_off_c, 0, 52, 64
1, 254264, Note_on_c, 0, 45, 32
1, 254504, Note_off_c, 0, 45, 64
1, 254530, Note_on_c, 0, 52, 36
1, 254558, Note_on_c, 0, 73, 56
1, 254570, Note_on_c, 0, 61, 33
1, 254584, Note_on_c, 0, 64, 39
1, 254712, Note_off_c, 0, 61, 64
1, 254858, Note_on_c, 0, 55, 41
1, 254892, Note_off_c, 0, 64, 64
1, 254958, Note_off_c, 0, 52, 64
1, 254958, Note_off_c, 0, 55, 64
1, 255122, Note_on_c, 0, 61, 38
1, 255180, Note_off_c, 0, 61, 64
1, 255396, Note_on_c, 0, 61, 2
1, 255452, Note_on_c, 0, 32, 35
1, 255536, Control_c, 0, 64, 0
1, 255564, Note_on_c, 0, 64, 6
1, 255672, Note_off_c, 0, 64, 64
1, 255690, Control_c, 0, 64, 127
1, 255762, Note_off_c, 0, 61, 64
1, 255788, Note_off_c, 0, 73, 64
1, 255820, Note_off_c, 0, 32, 64
1, 255862, Note_on_c, 0, 44, 39
1, 255922, Note_on_c, 0, 72, 52
1, 255940, Note_off_c, 0, 44, 64
1, 255942, Note_on_c, 0, 60, 36
1, 255956, Note_on_c, 0, 63, 24
1, 256098, Note_off_c, 0, 60, 64
1, 256100, Note_off_c, 0, 63, 64
1, 256138, Note_off_c, 0, 72, 64
1, 256222, Note_on_c, 0, 54, 38
1, 256280, Note_on_c, 0, 76, 65
1, 256292, Note_on_c, 0, 64, 62
1, 256306, Note_on_c, 0, 68, 33
1, 256544, Note_on_c, 0, 56, 49
1, 256650, Note_off_c, 0, 56, 64
1, 256662, Note_off_c, 0, 64, 64
1, 256664, Note_off_c, 0, 76, 64
1, 256702, Note_off_c, 0, 68, 64
1, 256808, Note_on_c, 0, 60, 62
1, 256811, Note_off_c, 0, 54, 64
1, 256862, Note_off_c, 0, 60, 64
1, 257044, Note_on_c, 0, 63, 68
1, 257047, Note_on_c, 0, 75, 69
1, 257072, Note_on_c, 0, 66, 33
1, 257072, Note_on_c, 0, 44, 44
1, 257138, Note_off_c, 0, 66, 64
1, 257162, Note_off_c, 0, 63, 64
1, 257165, Note_off_c, 0, 75, 64
1, 257260, Note_off_c, 0, 44, 64
1, 257332, Note_on_c, 0, 73, 73
1, 257344, Note_on_c, 0, 61, 64
1, 257356, Note_on_c, 0, 64, 57
1, 257358, Note_on_c, 0, 37, 55
1, 257380, Control_c, 0, 64, 0
1, 257514, Note_off_c, 0, 64, 64
1, 257546, Note_off_c, 0, 61, 64
1, 257560, Note_off_c, 0, 73, 64
1, 257564, Control_c, 0, 64, 127
1, 257652, Note_off_c, 0, 37, 64
1, 257664, Note_on_c, 0, 75, 77
1, 257664, Note_on_c, 0, 63, 72
1, 257684, Note_on_c, 0, 66, 39
1, 257688, Note_on_c, 0, 44, 47
1, 257746, Note_off_c, 0, 66, 64
1, 257746, Note_off_c, 0, 44, 64
1, 257780, Note_off_c, 0, 63, 64
1, 257846, Note_off_c, 0, 75, 64
1, 257944, Note_on_c, 0, 76, 78
1, 257949, Note_on_c, 0, 68, 55
1, 257949, Note_on_c, 0, 64, 76
1, 257958, Note_on_c, 0, 56, 46
1, 258018, Note_off_c, 0, 56, 64
1, 258112, Note_off_c, 0, 64, 64
1, 258138, Note_off_c, 0, 68, 64
1, 258146, Note_off_c, 0, 76, 64
1, 258258, Note_on_c, 0, 76, 50
1, 258266, Note_on_c, 0, 64, 58
1, 258268, Note_on_c, 0, 36, 72
1, 258278, Note_on_c, 0, 70, 42
1, 258332, Control_c, 0, 64, 0
1, 258548, Note_on_c, 0, 42, 57
1, 258562, Control_c, 0, 64, 127
1, 258564, Note_off_c, 0, 36, 64
1, 258610, Note_off_c, 0, 42, 64
1, 258800, Note_on_c, 0, 54, 64
1, 258822, Note_off_c, 0, 70, 64
1, 258860, Note_off_c, 0, 54, 64
1, 259038, Control_c, 0, 64, 0
1, 259040, Note_on_c, 0, 71, 71
1, 259044, Note_on_c, 0, 35, 89
1, 259204, Note_off_c, 0, 76, 64
1, 259240, Note_off_c, 0, 64, 64
1, 259240, Control_c, 0, 64, 127
1, 259296, Note_off_c, 0, 35, 64
1, 259338, Note_on_c, 0, 75, 83
1, 259340, Note_on_c, 0, 63, 83
1, 259350, Note_on_c, 0, 47, 55
1, 259400, Note_off_c, 0, 47, 64
1, 259440, Note_off_c, 0, 71, 64
1, 259474, Note_off_c, 0, 63, 64
1, 259518, Note_off_c, 0, 75, 64
1, 259606, Note_on_c, 0, 76, 87
1, 259608, Note_on_c, 0, 64, 92
1, 259616, Note_on_c, 0, 68, 58
1, 259632, Note_on_c, 0, 54, 62
1, 259674, Note_off_c, 0, 64, 64
1, 259680, Note_off_c, 0, 68, 64
1, 259696, Note_off_c, 0, 54, 64
1, 259718, Note_off_c, 0, 76, 64
1, 259856, Note_on_c, 0, 78, 88
1, 259856, Note_on_c, 0, 69, 61
1, 259859, Note_on_c, 0, 66, 78
1, 259882, Note_on_c, 0, 57, 44
1, 259942, Note_off_c, 0, 69, 64
1, 259960, Note_off_c, 0, 57, 64
1, 259964, Note_off_c, 0, 66, 64
1, 260004, Note_off_c, 0, 78, 64
1, 260098, Note_on_c, 0, 80, 88
1, 260110, Note_on_c, 0, 68, 70
1, 260112, Note_on_c, 0, 71, 72
1, 260116, Note_on_c, 0, 63, 60
1, 260164, Note_off_c, 0, 63, 64
1, 260188, Note_off_c, 0, 71, 64
1, 260220, Note_off_c, 0, 68, 64
1, 260272, Note_off_c, 0, 80, 64
1, 260354, Note_on_c, 0, 81, 95
1, 260359, Note_on_c, 0, 69, 79
1, 260364, Note_on_c, 0, 73, 62
1, 260376, Note_on_c, 0, 47, 51
1, 260532, Note_off_c, 0, 73, 64
1, 260630, Note_off_c, 0, 47, 64
1, 260638, Control_c, 0, 64, 0
1, 260654, Note_on_c, 0, 78, 76
1, 260666, Note_on_c, 0, 40, 81
1, 260830, Note_off_c, 0, 81, 64
1, 260852, Control_c, 0, 64, 127
1, 260878, Note_off_c, 0, 69, 64
1, 260938, Note_off_c, 0, 78, 64
1, 260968, Note_on_c, 0, 80, 78
1, 260971, Note_on_c, 0, 68, 74
1, 260974, Note_on_c, 0, 76, 64
1, 260984, Note_off_c, 0, 40, 64
1, 261006, Note_on_c, 0, 47, 48
1, 261060, Note_off_c, 0, 47, 64
1, 261120, Note_off_c, 0, 68, 64
1, 261150, Note_off_c, 0, 80, 64
1, 261188, Note_off_c, 0, 76, 64
1, 261232, Note_on_c, 0, 81, 91
1, 261238, Note_on_c, 0, 69, 72
1, 261242, Note_on_c, 0, 78, 69
1, 261264, Note_on_c, 0, 59, 52
1, 261308, Note_off_c, 0, 59, 64
1, 261362, Note_off_c, 0, 81, 64
1, 261362, Note_off_c, 0, 69, 64
1, 261424, Note_off_c, 0, 78, 64
1, 261484, Note_on_c, 0, 80, 84
1, 261490, Note_on_c, 0, 68, 73
1, 261498, Note_on_c, 0, 76, 59
1, 261502, Note_on_c, 0, 42, 49
1, 261528, Control_c, 0, 64, 0
1, 261654, Note_off_c, 0, 68, 64
1, 261688, Note_off_c, 0, 80, 64
1, 261688, Control_c, 0, 64, 127
1, 261708, Note_off_c, 0, 76, 64
1, 261742, Note_on_c, 0, 78, 78
1, 261744, Note_off_c, 0, 42, 64
1, 261752, Note_on_c, 0, 66, 66
1, 261762, Note_on_c, 0, 74, 64
1, 261772, Note_on_c, 0, 50, 45
1, 261822, Note_off_c, 0, 66, 64
1, 261836, Note_off_c, 0, 50, 64
1, 261947, Note_off_c, 0, 74, 64
1, 261964, Note_off_c, 0, 78, 64
1, 261988, Note_on_c, 0, 80, 80
1, 261994, Note_on_c, 0, 68, 64
1, 262000, Note_on_c, 0, 76, 60
1, 262030, Note_on_c, 0, 57, 35
1, 262088, Note_off_c, 0, 80, 64
1, 262091, Note_off_c, 0, 57, 64
1, 262104, Note_off_c, 0, 68, 64
1, 262156, Note_off_c, 0, 76, 64
1, 262222, Note_on_c, 0, 44, 45
1, 262234, Note_on_c, 0, 78, 75
1, 262244, Note_on_c, 0, 74, 65
1, 262247, Note_on_c, 0, 66, 50
1, 262250, Control_c, 0, 64, 0
1, 262374, Note_off_c, 0, 74, 64
1, 262422, Note_off_c, 0, 78, 64
1, 262422, Control_c, 0, 64, 127
1, 262428, Note_off_c, 0, 66, 64
1, 262516, Note_on_c, 0, 76, 64
1, 262522, Note_on_c, 0, 73, 56
1, 262530, Note_off_c, 0, 44, 64
1, 262532, Note_on_c, 0, 64, 55
1, 262546, Note_on_c, 0, 52, 31
1, 262586, Note_off_c, 0, 76, 64
1, 262594, Note_off_c, 0, 64, 64
1, 262618, Note_off_c, 0, 52, 64
1, 262674, Note_off_c, 0, 73, 64
1, 262754, Note_on_c, 0, 44, 27
1, 262776, Note_on_c, 0, 72, 50
1, 262776, Note_on_c, 0, 63, 69
1, 262778, Note_on_c, 0, 75, 60
1, 262850, Note_off_c, 0, 72, 64
1, 262882, Note_off_c, 0, 63, 64
1, 262940, Note_off_c, 0, 75, 64
1, 263072, Note_on_c, 0, 52, 31
1, 263092, Note_on_c, 0, 74, 57
1, 263104, Note_on_c, 0, 62, 42
1, 263110, Note_on_c, 0, 71, 45
1, 263126, Control_c, 0, 64, 0
1, 263274, Note_off_c, 0, 62, 64
1, 263292, Note_off_c, 0, 44, 64
1, 263326, Control_c, 0, 64, 127
1, 263348, Note_off_c, 0, 52, 64
1, 263360, Note_on_c, 0, 56, 41
1, 263388, Note_off_c, 0, 71, 64
1, 263418, Note_off_c, 0, 56, 64
1, 263464, Note_off_c, 0, 74, 64
1, 263644, Note_on_c, 0, 72, 45
1, 263660, Note_on_c, 0, 68, 28
1, 263678, Note_on_c, 0, 52, 25
1, 263768, Note_off_c, 0, 52, 64
1, 263828, Note_off_c, 0, 72, 64
1, 263886, Note_off_c, 0, 68, 64
1, 263950, Note_on_c, 0, 45, 27
1, 263962, Note_on_c, 0, 61, 27
1, 263962, Note_on_c, 0, 73, 35
1, 263990, Note_on_c, 0, 69, 24
1, 264018, Control_c, 0, 64, 0
1, 264198, Note_off_c, 0, 69, 64
1, 264206, Note_off_c, 0, 61, 64
1, 264218, Control_c, 0, 64, 127
1, 264260, Note_off_c, 0, 73, 64
1, 264270, Note_on_c, 0, 52, 39
1, 264302, Note_off_c, 0, 45, 64
1, 264344, Note_off_c, 0, 52, 64
1, 264478, Note_on_c, 0, 76, 65
1, 264478, Note_on_c, 0, 73, 41
1, 264498, Note_on_c, 0, 45, 39
1, 264522, Note_on_c, 0, 64, 9
1, 264542, Note_off_c, 0, 73, 64
1, 264570, Note_off_c, 0, 64, 64
1, 264580, Note_off_c, 0, 76, 64
1, 264784, Note_off_c, 0, 45, 64
1, 264798, Note_on_c, 0, 52, 48
1, 264828, Note_on_c, 0, 69, 46
1, 264831, Note_on_c, 0, 81, 62
1, 264838, Note_on_c, 0, 73, 36
1, 264894, Control_c, 0, 64, 0
1, 265002, Control_c, 0, 64, 127
1, 265036, Note_off_c, 0, 52, 64
1, 265066, Note_off_c, 0, 81, 64
1, 265070, Note_off_c, 0, 69, 64
1, 265090, Note_on_c, 0, 57, 27
1, 265196, Note_off_c, 0, 73, 64
1, 265196, Note_off_c, 0, 57, 64
1, 265348, Note_on_c, 0, 61, 33
1, 265362, Note_on_c, 0, 68, 54
1, 265365, Note_on_c, 0, 80, 66
1, 265380, Note_on_c, 0, 76, 44
1, 265412, Note_off_c, 0, 61, 64
1, 265486, Note_off_c, 0, 68, 64
1, 265494, Note_off_c, 0, 80, 64
1, 265586, Note_off_c, 0, 76, 64
1, 265604, Note_on_c, 0, 45, 27
1, 265644, Note_on_c, 0, 78, 69
1, 265658, Note_on_c, 0, 66, 50
1, 265674, Note_on_c, 0, 74, 49
1, 265724, Note_off_c, 0, 74, 64
1, 265756, Note_off_c, 0, 66, 64
1, 265770, Note_off_c, 0, 78, 64
1, 265782, Note_off_c, 0, 45, 64
1, 265890, Note_on_c, 0, 76, 70
1, 265892, Note_on_c, 0, 73, 57
1, 265908, Note_on_c, 0, 64, 47
1, 265908, Note_on_c, 0, 52, 32
1, 265946, Note_off_c, 0, 76, 64
1, 265950, Note_off_c, 0, 73, 64
1, 265962, Note_off_c, 0, 64, 64
1, 265984, Note_off_c, 0, 52, 64
1, 266122, Note_on_c, 0, 45, 25
1, 266130, Note_on_c, 0, 74, 73
1, 266133, Note_on_c, 0, 62, 54
1, 266146, Note_on_c, 0, 71, 52
1, 266182, Note_off_c, 0, 74, 64
1, 266185, Note_off_c, 0, 62, 64
1, 266196, Note_off_c, 0, 71, 64
1, 266402, Note_on_c, 0, 52, 44
1, 266430, Control_c, 0, 64, 0
1, 266436, Note_on_c, 0, 78, 55
1, 266454, Note_on_c, 0, 66, 24
1, 266476, Note_on_c, 0, 74, 34
1, 266542, Note_off_c, 0, 45, 64
1, 266630, Control_c, 0, 64, 127
1, 266678, Note_off_c, 0, 74, 64
1, 266708, Note_on_c, 0, 56, 32
1, 266720, Note_off_c, 0, 78, 64
1, 266722, Note_off_c, 0, 52, 64
1, 266831, Note_off_c, 0, 56, 64
1, 266910, Note_off_c, 0, 66, 64
1, 267060, Note_on_c, 0, 62, 28
1, 267066, Note_on_c, 0, 68, 28
1, 267068, Note_on_c, 0, 71, 50
1, 267138, Note_off_c, 0, 62, 64
1, 267332, Note_off_c, 0, 71, 64
1, 267396, Note_on_c, 0, 45, 25
1, 267410, Note_off_c, 0, 68, 64
1, 267430, Note_on_c, 0, 61, 27
1, 267434, Note_on_c, 0, 73, 37
1, 267460, Control_c, 0, 64, 0
1, 267470, Note_on_c, 0, 69, 23
1, 267688, Note_off_c, 0, 69, 64
1, 267690, Note_off_c, 0, 61, 64
1, 267698, Note_off_c, 0, 45, 64
1, 267706, Control_c, 0, 64, 127
1, 267720, Note_on_c, 0, 52, 38
1, 267760, Note_off_c, 0, 73, 64
1, 267792, Note_off_c, 0, 52, 64
1, 267864, Note_on_c, 0, 64, 44
1, 267920, Note_off_c, 0, 64, 64
1, 267976, Note_on_c, 0, 73, 38
1, 267982, Note_on_c, 0, 76, 54
1, 268004, Note_on_c, 0, 45, 29
1, 268022, Note_off_c, 0, 76, 64
1, 268024, Note_off_c, 0, 73, 64
1, 268120, Note_on_c, 0, 76, 28
1, 268206, Note_off_c, 0, 45, 64
1, 268234, Note_on_c, 0, 52, 38
1, 268354, Note_on_c, 0, 88, 71
1, 268374, Note_on_c, 0, 85, 39
1, 268478, Note_off_c, 0, 52, 64
1, 268624, Note_on_c, 0, 57, 16
1, 268710, Note_off_c, 0, 57, 64
1, 268884, Note_on_c, 0, 61, 28
1, 268960, Note_off_c, 0, 61, 64
1, 269088, Note_off_c, 0, 88, 64
1, 269116, Note_off_c, 0, 85, 64
1, 269136, Note_on_c, 0, 45, 32
1, 269164, Note_off_c, 0, 76, 64
1, 269294, Note_off_c, 0, 45, 64
1, 269406, Note_on_c, 0, 75, 53
1, 269406, Note_on_c, 0, 87, 55
1, 269426, Note_on_c, 0, 52, 36
1, 269430, Note_on_c, 0, 84, 51
1, 269638, Note_off_c, 0, 52, 64
1, 269652, Note_off_c, 0, 84, 64
1, 269676, Note_off_c, 0, 87, 64
1, 269704, Note_off_c, 0, 75, 64
1, 269744, Note_on_c, 0, 45, 30
1, 269872, Note_on_c, 0, 86, 74
1, 269882, Note_on_c, 0, 74, 66
1, 269902, Note_on_c, 0, 83, 73
1, 269928, Note_off_c, 0, 74, 64
1, 269930, Note_off_c, 0, 86, 64
1, 269948, Note_off_c, 0, 83, 64
1, 270024, Note_on_c, 0, 83, 76
1, 270027, Note_on_c, 0, 86, 64
1, 270032, Note_on_c, 0, 74, 50
1, 270056, Control_c, 0, 64, 0
1, 270062, Note_on_c, 0, 52, 42
1, 270178, Note_off_c, 0, 45, 64
1, 270226, Control_c, 0, 64, 127
1, 270262, Note_off_c, 0, 86, 64
1, 270300, Note_off_c, 0, 74, 64
1, 270350, Note_off_c, 0, 83, 64
1, 270466, Note_on_c, 0, 85, 64
1, 270472, Note_on_c, 0, 73, 52
1, 270484, Note_on_c, 0, 56, 30
1, 270490, Note_on_c, 0, 81, 51
1, 270520, Note_off_c, 0, 52, 64
1, 270614, Note_off_c, 0, 56, 64
1, 270658, Note_off_c, 0, 73, 64
1, 270666, Note_off_c, 0, 85, 64
1, 270728, Note_off_c, 0, 81, 64
1, 270818, Note_on_c, 0, 84, 77
1, 270828, Note_on_c, 0, 72, 49
1, 270832, Note_on_c, 0, 80, 48
1, 270846, Note_on_c, 0, 62, 33
1, 270904, Note_off_c, 0, 62, 64
1, 270932, Note_off_c, 0, 72, 64
1, 270980, Note_off_c, 0, 84, 64
1, 271120, Note_off_c, 0, 80, 64
1, 271174, Note_on_c, 0, 85, 55
1, 271182, Note_on_c, 0, 73, 41
1, 271190, Note_on_c, 0, 45, 21
1, 271190, Note_on_c, 0, 81, 45
1, 271194, Control_c, 0, 64, 0
1, 271396, Note_off_c, 0, 81, 64
1, 271408, Control_c, 0, 64, 127
1, 271450, Note_off_c, 0, 73, 64
1, 271462, Note_off_c, 0, 85, 64
1, 271710, Note_on_c, 0, 88, 37
1, 271710, Note_on_c, 0, 85, 26
1, 271731, Note_on_c, 0, 76, 23
1, 271750, Note_on_c, 0, 52, 28
1, 271858, Note_off_c, 0, 45, 64
1, 272068, Note_off_c, 0, 76, 64
1, 272104, Note_off_c, 0, 52, 64
1, 272210, Note_off_c, 0, 85, 64
1, 272242, Note_off_c, 0, 88, 64
1, 272296, Note_on_c, 0, 61, 14
1, 272388, Note_off_c, 0, 61, 64
1, 272548, Note_on_c, 0, 85, 40
1, 272558, Note_on_c, 0, 93, 22
1, 272572, Note_on_c, 0, 81, 19
1, 272694, Note_off_c, 0, 85, 64
1, 272734, Note_off_c, 0, 81, 64
1, 272758, Note_off_c, 0, 93, 64
1, 273120, Note_on_c, 0, 81, 15
1, 273125, Note_on_c, 0, 93, 20
1, 273136, Note_on_c, 0, 85, 15
1, 273142, Note_on_c, 0, 73, 13
1, 273170, Note_on_c, 0, 64, 10
1, 273282, Note_off_c, 0, 81, 64
1, 273328, Note_off_c, 0, 73, 64
1, 273352, Note_off_c, 0, 85, 64
1, 273352, Note_off_c, 0, 64, 64
1, 273488, Note_off_c, 0, 93, 64
1, 274618, Note_on_c, 0, 64, 54
1, 274708, Note_off_c, 0, 64, 64
1, 275424, Note_on_c, 0, 66, 29
1, 275596, Note_off_c, 0, 66, 64
1, 275618, Note_on_c, 0, 64, 35
1, 275692, Note_off_c, 0, 64, 64
1, 275758, Note_on_c, 0, 66, 24
1, 275844, Note_off_c, 0, 66, 64
1, 275870, Note_on_c, 0, 64, 39
1, 275938, Note_off_c, 0, 64, 64
1, 275944, Note_on_c, 0, 66, 26
1, 276056, Note_on_c, 0, 64, 36
1, 276064, Control_c, 0, 64, 0
1, 276070, Note_off_c, 0, 66, 64
1, 276144, Note_off_c, 0, 64, 64
1, 276147, Note_on_c, 0, 66, 46
1, 276234, Note_on_c, 0, 64, 55
1, 276240, Note_off_c, 0, 66, 64
1, 276310, Control_c, 0, 64, 127
1, 276316, Note_on_c, 0, 66, 42
1, 276320, Note_off_c, 0, 64, 64
1, 276416, Note_on_c, 0, 64, 47
1, 276434, Note_off_c, 0, 66, 64
1, 276490, Note_off_c, 0, 64, 64
1, 276508, Note_on_c, 0, 66, 43
1, 276590, Note_on_c, 0, 64, 38
1, 276594, Note_off_c, 0, 66, 64
1, 276660, Note_off_c, 0, 64, 64
1, 276672, Note_on_c, 0, 66, 40
1, 276736, Note_off_c, 0, 66, 64
1, 276754, Note_on_c, 0, 64, 45
1, 276810, Note_off_c, 0, 64, 64
1, 276810, Note_on_c, 0, 66, 43
1, 276880, Note_off_c, 0, 66, 64
1, 276896, Note_on_c, 0, 64, 45
1, 276950, Note_off_c, 0, 64, 64
1, 276954, Note_on_c, 0, 66, 43
1, 277012, Note_off_c, 0, 66, 64
1, 277042, Note_on_c, 0, 64, 39
1, 277090, Note_on_c, 0, 66, 51
1, 277098, Note_off_c, 0, 64, 64
1, 277154, Note_off_c, 0, 66, 64
1, 277228, Note_on_c, 0, 66, 55
1, 277296, Note_off_c, 0, 66, 64
1, 277322, Note_on_c, 0, 64, 19
1, 277366, Note_on_c, 0, 66, 58
1, 277390, Note_off_c, 0, 64, 64
1, 277452, Note_off_c, 0, 66, 64
1, 277458, Note_on_c, 0, 64, 32
1, 277512, Note_on_c, 0, 66, 65
1, 277522, Note_off_c, 0, 64, 64
1, 277604, Note_off_c, 0, 66, 64
1, 277606, Note_on_c, 0, 64, 59
1, 277662, Note_off_c, 0, 64, 64
1, 277670, Note_on_c, 0, 66, 65
1, 277754, Note_on_c, 0, 64, 58
1, 277762, Note_off_c, 0, 66, 64
1, 277812, Note_off_c, 0, 64, 64
1, 277824, Note_on_c, 0, 66, 62
1, 277882, Note_off_c, 0, 66, 64
1, 277894, Note_on_c, 0, 64, 61
1, 277960, Note_off_c, 0, 64, 64
1, 277972, Note_on_c, 0, 66, 55
1, 278026, Note_off_c, 0, 66, 64
1, 278042, Note_on_c, 0, 64, 56
1, 278096, Note_off_c, 0, 64, 64
1, 278108, Note_on_c, 0, 66, 56
1, 278178, Note_off_c, 0, 66, 64
1, 278200, Note_on_c, 0, 64, 57
1, 278246, Note_off_c, 0, 64, 64
1, 278259, Note_on_c, 0, 66, 59
1, 278322, Note_off_c, 0, 66, 64
1, 278336, Note_on_c, 0, 64, 53
1, 278390, Note_off_c, 0, 64, 64
1, 278400, Note_on_c, 0, 66, 51
1, 278460, Note_off_c, 0, 66, 64
1, 278476, Note_on_c, 0, 64, 51
1, 278530, Note_off_c, 0, 64, 64
1, 278533, Note_on_c, 0, 66, 57
1, 278612, Note_off_c, 0, 66, 64
1, 278624, Note_on_c, 0, 64, 52
1, 278684, Note_off_c, 0, 64, 64
1, 278687, Note_on_c, 0, 66, 56
1, 278768, Note_off_c, 0, 66, 64
1, 278771, Note_on_c, 0, 64, 64
1, 278882, Note_off_c, 0, 64, 64
1, 278894, Note_on_c, 0, 63, 78
1, 278964, Note_off_c, 0, 63, 64
1, 279016, Note_on_c, 0, 64, 75
1, 279112, Note_off_c, 0, 64, 64
1, 279126, Note_on_c, 0, 68, 67
1, 279230, Control_c, 0, 64, 0
1, 279262, Note_on_c, 0, 67, 75
1, 279270, Note_off_c, 0, 68, 64
1, 279443, Note_off_c, 0, 67, 64
1, 279476, Note_on_c, 0, 66, 55
1, 279936, Control_c, 0, 64, 127
1, 280272, Note_on_c, 0, 58, 19
1, 280286, Note_on_c, 0, 61, 35
1, 280292, Note_on_c, 0, 40, 33
1, 280293, Note_on_c, 0, 52, 24
1, 280381, Note_off_c, 0, 52, 64
1, 280422, Note_off_c, 0, 40, 64
1, 280425, Note_off_c, 0, 61, 64
1, 280474, Note_off_c, 0, 58, 64
1, 280652, Note_on_c, 0, 62, 36
1, 280655, Note_on_c, 0, 59, 32
1, 280670, Note_on_c, 0, 40, 27
1, 280686, Note_on_c, 0, 52, 27
1, 280704, Control_c, 0, 64, 0
1, 280902, Note_off_c, 0, 52, 64
1, 280902, Control_c, 0, 64, 127
1, 280910, Note_off_c, 0, 40, 64
1, 280948, Note_off_c, 0, 62, 64
1, 280952, Note_off_c, 0, 59, 64
1, 281352, Note_on_c, 0, 62, 34
1, 281358, Note_on_c, 0, 52, 29
1, 281360, Note_on_c, 0, 57, 26
1, 281364, Note_on_c, 0, 40, 32
1, 281396, Control_c, 0, 64, 0
1, 281498, Note_off_c, 0, 40, 64
1, 281504, Note_off_c, 0, 52, 64
1, 281504, Control_c, 0, 64, 127
1, 281528, Note_off_c, 0, 57, 64
1, 281558, Note_off_c, 0, 62, 64
1, 281810, Control_c, 0, 64, 0
1, 281832, Note_on_c, 0, 62, 32
1, 281848, Note_on_c, 0, 56, 27
1, 281852, Note_on_c, 0, 40, 35
1, 281860, Note_on_c, 0, 52, 25
1, 282046, Note_off_c, 0, 52, 64
1, 282072, Control_c, 0, 64, 127
1, 282158, Note_off_c, 0, 40, 64
1, 282192, Note_off_c, 0, 62, 64
1, 282292, Note_off_c, 0, 56, 64
1, 282672, Note_off_c, 0, 66, 64
1, 282738, Note_on_c, 0, 65, 55
1, 282744, Note_on_c, 0, 56, 30
1, 282752, Note_on_c, 0, 28, 15
1, 282754, Note_on_c, 0, 62, 26
1, 282760, Note_on_c, 0, 40, 31
1, 282840, Control_c, 0, 64, 0
1, 282932, Control_c, 0, 64, 127
1, 282948, Note_off_c, 0, 28, 64
1, 282948, Note_off_c, 0, 40, 64
1, 282976, Note_off_c, 0, 62, 64
1, 282980, Note_off_c, 0, 56, 64
1, 283174, Note_on_c, 0, 57, 39
1, 283177, Note_on_c, 0, 62, 36
1, 283194, Note_on_c, 0, 40, 39
1, 283198, Note_on_c, 0, 28, 19
1, 283224, Control_c, 0, 64, 0
1, 283438, Control_c, 0, 64, 127
1, 283468, Note_off_c, 0, 65, 64
1, 283514, Note_off_c, 0, 40, 64
1, 283526, Note_off_c, 0, 62, 64
1, 283546, Note_on_c, 0, 67, 37
1, 283574, Note_off_c, 0, 28, 64
1, 283618, Note_on_c, 0, 65, 76
1, 283686, Note_off_c, 0, 57, 64
1, 283698, Note_off_c, 0, 67, 64
1, 284090, Note_on_c, 0, 64, 79
1, 284104, Note_off_c, 0, 65, 64
1, 284112, Note_on_c, 0, 59, 43
1, 284120, Note_on_c, 0, 62, 44
1, 284122, Note_on_c, 0, 28, 15
1, 284126, Note_on_c, 0, 40, 17
1, 284130, Control_c, 0, 64, 0
1, 284272, Note_off_c, 0, 28, 64
1, 284274, Note_off_c, 0, 59, 64
1, 284284, Control_c, 0, 64, 127
1, 284290, Note_off_c, 0, 40, 64
1, 284312, Note_off_c, 0, 62, 64
1, 284512, Note_on_c, 0, 67, 67
1, 284520, Note_on_c, 0, 58, 26
1, 284530, Control_c, 0, 64, 0
1, 284548, Note_on_c, 0, 61, 29
1, 284553, Note_on_c, 0, 40, 44
1, 284557, Note_on_c, 0, 28, 13
1, 284574, Note_off_c, 0, 64, 64
1, 284764, Note_off_c, 0, 28, 64
1, 284790, Control_c, 0, 64, 127
1, 284826, Note_off_c, 0, 40, 64
1, 284848, Note_off_c, 0, 58, 64
1, 284848, Note_off_c, 0, 61, 64
1, 284862, Note_off_c, 0, 67, 64
1, 285226, Note_on_c, 0, 66, 62
1, 285238, Note_on_c, 0, 58, 30
1, 285246, Note_on_c, 0, 61, 39
1, 285246, Note_on_c, 0, 40, 43
1, 285256, Note_on_c, 0, 52, 33
1, 285380, Note_off_c, 0, 52, 64
1, 285404, Note_off_c, 0, 40, 64
1, 285482, Note_off_c, 0, 61, 64
1, 285496, Note_off_c, 0, 58, 64
1, 285666, Control_c, 0, 64, 0
1, 285668, Note_on_c, 0, 62, 31
1, 285674, Note_on_c, 0, 59, 21
1, 285680, Note_on_c, 0, 40, 33
1, 285684, Note_on_c, 0, 52, 33
1, 285958, Control_c, 0, 64, 127
1, 285996, Note_off_c, 0, 52, 64
1, 286034, Note_off_c, 0, 40, 64
1, 286088, Note_off_c, 0, 62, 64
1, 286148, Note_off_c, 0, 59, 64
1, 286450, Control_c, 0, 64, 0
1, 286452, Note_on_c, 0, 57, 36
1, 286452, Note_on_c, 0, 62, 37
1, 286476, Note_on_c, 0, 52, 28
1, 286482, Note_on_c, 0, 40, 31
1, 286614, Note_off_c, 0, 52, 64
1, 286634, Note_off_c, 0, 40, 64
1, 286636, Control_c, 0, 64, 127
1, 286668, Note_off_c, 0, 57, 64
1, 286676, Note_off_c, 0, 62, 64
1, 286846, Note_on_c, 0, 57, 28
1, 286860, Note_on_c, 0, 62, 42
1, 286886, Note_on_c, 0, 40, 28
1, 286916, Note_on_c, 0, 52, 7
1, 286984, Note_off_c, 0, 57, 64
1, 287002, Note_off_c, 0, 52, 64
1, 287072, Note_off_c, 0, 62, 64
1, 287140, Note_off_c, 0, 40, 64
1, 287143, Note_off_c, 0, 66, 64
1, 287344, Note_on_c, 0, 71, 71
1, 287604, Note_off_c, 0, 71, 64
1, 287936, Note_on_c, 0, 65, 58
1, 287952, Note_on_c, 0, 56, 31
1, 287966, Note_on_c, 0, 62, 31
1, 287992, Note_on_c, 0, 40, 31
1, 287996, Note_on_c, 0, 28, 14
1, 288032, Control_c, 0, 64, 0
1, 288200, Note_off_c, 0, 40, 64
1, 288205, Note_off_c, 0, 28, 64
1, 288224, Note_off_c, 0, 62, 64
1, 288232, Control_c, 0, 64, 127
1, 288288, Note_off_c, 0, 56, 64
1, 288396, Note_on_c, 0, 57, 33
1, 288406, Note_on_c, 0, 62, 45
1, 288414, Note_on_c, 0, 40, 38
1, 288417, Note_on_c, 0, 28, 20
1, 288432, Control_c, 0, 64, 0
1, 288648, Note_off_c, 0, 65, 64
1, 288648, Control_c, 0, 64, 127
1, 288718, Note_on_c, 0, 67, 63
1, 288774, Note_on_c, 0, 65, 59
1, 288792, Note_off_c, 0, 40, 64
1, 288816, Note_off_c, 0, 28, 64
1, 288838, Note_off_c, 0, 62, 64
1, 288842, Note_off_c, 0, 57, 64
1, 288852, Note_off_c, 0, 67, 64
1, 289152, Note_on_c, 0, 64, 86
1, 289170, Note_on_c, 0, 59, 41
1, 289184, Note_on_c, 0, 28, 16
1, 289187, Note_on_c, 0, 62, 39
1, 289187, Note_on_c, 0, 40, 27
1, 289194, Note_off_c, 0, 65, 64
1, 289266, Note_off_c, 0, 28, 64
1, 289314, Note_off_c, 0, 59, 64
1, 289322, Note_off_c, 0, 40, 64
1, 289342, Note_off_c, 0, 62, 64
1, 289670, Note_on_c, 0, 67, 60
1, 289680, Note_on_c, 0, 58, 23
1, 289683, Note_on_c, 0, 61, 29
1, 289708, Control_c, 0, 64, 0
1, 289718, Note_on_c, 0, 40, 34
1, 289718, Note_on_c, 0, 28, 20
1, 289736, Note_off_c, 0, 64, 64
1, 289958, Note_off_c, 0, 28, 64
1, 290000, Control_c, 0, 64, 127
1, 290018, Note_off_c, 0, 40, 64
1, 290036, Note_off_c, 0, 67, 64
1, 290036, Note_off_c, 0, 58, 64
1, 290060, Note_off_c, 0, 61, 64
1, 290594, Note_on_c, 0, 66, 47
1, 290618, Note_on_c, 0, 58, 21
1, 290632, Note_on_c, 0, 61, 31
1, 290638, Note_on_c, 0, 40, 29
1, 290640, Note_on_c, 0, 52, 25
1, 290660, Control_c, 0, 64, 0
1, 290824, Note_off_c, 0, 52, 64
1, 290834, Note_off_c, 0, 40, 64
1, 290860, Control_c, 0, 64, 127
1, 290902, Note_off_c, 0, 58, 64
1, 290928, Note_off_c, 0, 61, 64
1, 291080, Note_on_c, 0, 62, 36
1, 291082, Note_on_c, 0, 59, 37
1, 291090, Control_c, 0, 64, 0
1, 291104, Note_on_c, 0, 40, 42
1, 291107, Note_on_c, 0, 52, 38
1, 291352, Note_off_c, 0, 52, 64
1, 291366, Control_c, 0, 64, 127
1, 291388, Note_off_c, 0, 40, 64
1, 291438, Note_off_c, 0, 59, 64
1, 291460, Note_off_c, 0, 62, 64
1, 291804, Note_on_c, 0, 52, 37
1, 291814, Note_on_c, 0, 62, 37
1, 291814, Note_on_c, 0, 40, 31
1, 291820, Note_on_c, 0, 57, 31
1, 291894, Note_off_c, 0, 52, 64
1, 291916, Note_off_c, 0, 40, 64
1, 291916, Note_off_c, 0, 57, 64
1, 292004, Note_off_c, 0, 62, 64
1, 292214, Note_on_c, 0, 56, 34
1, 292238, Note_on_c, 0, 62, 30
1, 292258, Control_c, 0, 64, 0
1, 292260, Note_on_c, 0, 40, 31
1, 292270, Note_on_c, 0, 52, 17
1, 292512, Note_off_c, 0, 52, 64
1, 292518, Note_off_c, 0, 40, 64
1, 292520, Control_c, 0, 64, 127
1, 292524, Note_off_c, 0, 62, 64
1, 292550, Note_off_c, 0, 56, 64
1, 292766, Note_off_c, 0, 66, 64
1, 292920, Note_on_c, 0, 56, 29
1, 292923, Note_on_c, 0, 65, 48
1, 292940, Note_on_c, 0, 62, 21
1, 292956, Note_on_c, 0, 52, 23
1, 292959, Note_on_c, 0, 40, 25
1, 293028, Note_off_c, 0, 40, 64
1, 293032, Note_off_c, 0, 56, 64
1, 293032, Note_off_c, 0, 52, 64
1, 293040, Note_off_c, 0, 62, 64
1, 293068, Note_off_c, 0, 65, 64
1, 293324, Note_on_c, 0, 65, 61
1, 293338, Note_on_c, 0, 56, 31
1, 293348, Note_on_c, 0, 62, 37
1, 293350, Note_on_c, 0, 40, 41
1, 293380, Note_on_c, 0, 52, 9
1, 293456, Control_c, 0, 64, 0
1, 293604, Note_off_c, 0, 52, 64
1, 293620, Note_off_c, 0, 40, 64
1, 293626, Control_c, 0, 64, 127
1, 293636, Note_off_c, 0, 56, 64
1, 293644, Note_off_c, 0, 62, 64
1, 293668, Note_off_c, 0, 65, 64
1, 294026, Note_on_c, 0, 65, 66
1, 294031, Note_on_c, 0, 56, 41
1, 294050, Note_on_c, 0, 52, 41
1, 294060, Note_on_c, 0, 40, 41
1, 294064, Note_on_c, 0, 62, 31
1, 294114, Note_off_c, 0, 52, 64
1, 294122, Note_off_c, 0, 40, 64
1, 294132, Note_off_c, 0, 56, 64
1, 294178, Note_off_c, 0, 65, 64
1, 294186, Note_off_c, 0, 62, 64
1, 294402, Note_on_c, 0, 65, 61
1, 294408, Note_on_c, 0, 56, 41
1, 294414, Note_on_c, 0, 62, 53
1, 294444, Note_on_c, 0, 40, 28
1, 294452, Note_on_c, 0, 52, 22
1, 294714, Note_off_c, 0, 52, 64
1, 294730, Note_off_c, 0, 40, 64
1, 294748, Note_off_c, 0, 56, 64
1, 294806, Note_off_c, 0, 62, 64
1, 295098, Note_on_c, 0, 57, 36
1, 295101, Note_on_c, 0, 52, 44
1, 295101, Note_on_c, 0, 60, 41
1, 295116, Note_on_c, 0, 40, 38
1, 295188, Note_off_c, 0, 40, 64
1, 295216, Note_off_c, 0, 52, 64
1, 295264, Note_off_c, 0, 57, 64
1, 295264, Note_off_c, 0, 60, 64
1, 295452, Note_on_c, 0, 57, 29
1, 295470, Control_c, 0, 64, 0
1, 295473, Note_on_c, 0, 60, 27
1, 295490, Note_on_c, 0, 40, 46
1, 295500, Note_on_c, 0, 52, 31
1, 295716, Control_c, 0, 64, 127
1, 295742, Note_off_c, 0, 52, 64
1, 295782, Note_off_c, 0, 40, 64
1, 295802, Note_off_c, 0, 57, 64
1, 295814, Note_off_c, 0, 60, 64
1, 296176, Control_c, 0, 64, 0
1, 296210, Note_on_c, 0, 57, 29
1, 296212, Note_on_c, 0, 60, 36
1, 296215, Note_on_c, 0, 50, 24
1, 296234, Note_on_c, 0, 38, 18
1, 296398, Note_off_c, 0, 38, 64
1, 296402, Note_off_c, 0, 50, 64
1, 296406, Note_off_c, 0, 57, 64
1, 296408, Control_c, 0, 64, 127
1, 296420, Note_off_c, 0, 60, 64
1, 296664, Note_on_c, 0, 60, 23
1, 296668, Control_c, 0, 64, 0
1, 296670, Note_on_c, 0, 57, 15
1, 296680, Note_on_c, 0, 50, 19
1, 296688, Note_on_c, 0, 38, 11
1, 296898, Control_c, 0, 64, 127
1, 296968, Note_off_c, 0, 50, 64
1, 296986, Note_off_c, 0, 38, 64
1, 297018, Note_off_c, 0, 57, 64
1, 297062, Note_off_c, 0, 65, 64
1, 297064, Note_off_c, 0, 60, 64
1, 297432, Note_on_c, 0, 65, 45
1, 297440, Note_on_c, 0, 56, 30
1, 297448, Note_on_c, 0, 60, 37
1, 297458, Note_on_c, 0, 50, 15
1, 297460, Note_on_c, 0, 38, 15
1, 297466, Control_c, 0, 64, 0
1, 297664, Note_off_c, 0, 38, 64
1, 297667, Control_c, 0, 64, 127
1, 297672, Note_off_c, 0, 50, 64
1, 297716, Note_off_c, 0, 56, 64
1, 297722, Note_off_c, 0, 60, 64
1, 297948, Note_on_c, 0, 56, 28
1, 297980, Note_on_c, 0, 60, 34
1, 297988, Note_on_c, 0, 38, 19
1, 297998, Note_on_c, 0, 50, 11
1, 298004, Control_c, 0, 64, 0
1, 298250, Control_c, 0, 64, 127
1, 298268, Note_off_c, 0, 50, 64
1, 298286, Note_off_c, 0, 38, 64
1, 298346, Note_off_c, 0, 56, 64
1, 298392, Note_off_c, 0, 65, 64
1, 298400, Note_off_c, 0, 60, 64
1, 298930, Note_on_c, 0, 65, 30
1, 298938, Note_on_c, 0, 56, 14
1, 298958, Control_c, 0, 64, 0
1, 298966, Note_on_c, 0, 50, 15
1, 298972, Note_on_c, 0, 59, 17
1, 298972, Note_on_c, 0, 38, 16
1, 299132, Note_off_c, 0, 38, 64
1, 299154, Note_off_c, 0, 50, 64
1, 299194, Note_off_c, 0, 59, 64
1, 299197, Note_off_c, 0, 56, 64
1, 299202, Control_c, 0, 64, 127
1, 299526, Note_on_c, 0, 56, 21
1, 299558, Note_on_c, 0, 59, 20
1, 299574, Note_on_c, 0, 50, 7
1, 299586, Note_on_c, 0, 38, 10
1, 299958, Note_off_c, 0, 65, 64
1, 299982, Note_off_c, 0, 56, 64
1, 299988, Note_off_c, 0, 50, 64
1, 300028, Note_off_c, 0, 59, 64
1, 300128, Note_off_c, 0, 38, 64
1, 300882, Note_on_c, 0, 65, 30
1, 300904, Note_on_c, 0, 49, 15
1, 300906, Note_on_c, 0, 37, 15
1, 300918, Note_on_c, 0, 56, 9
1, 300976, Note_on_c, 0, 59, 5
1, 301016, Control_c, 0, 64, 0
1, 301128, Note_off_c, 0, 49, 64
1, 301200, Control_c, 0, 64, 127
1, 301216, Note_off_c, 0, 59, 64
1, 301236, Note_off_c, 0, 37, 64
1, 301290, Note_off_c, 0, 56, 64
1, 301568, Note_on_c, 0, 66, 24
1, 301590, Note_on_c, 0, 49, 14
1, 301592, Note_on_c, 0, 57, 18
1, 301606, Note_on_c, 0, 42, 17
1, 301646, Control_c, 0, 64, 0
1, 301721, Note_off_c, 0, 65, 64
1, 302014, Control_c, 0, 64, 127
1, 302056, Note_off_c, 0, 57, 64
1, 302136, Note_off_c, 0, 49, 64
1, 302240, Note_off_c, 0, 42, 64
1, 302688, Note_on_c, 0, 60, 27
1, 302696, Note_on_c, 0, 54, 23
1, 302705, Note_on_c, 0, 44, 24
1, 302798, Control_c, 0, 64, 0
1, 302820, Note_off_c, 0, 66, 64
1, 302968, Control_c, 0, 64, 127
1, 303034, Note_off_c, 0, 54, 64
1, 303158, Note_on_c, 0, 61, 34
1, 303192, Note_on_c, 0, 53, 43
1, 303195, Note_on_c, 0, 37, 20
1, 303228, Control_c, 0, 64, 0
1, 303257, Note_off_c, 0, 44, 64
1, 303258, Note_off_c, 0, 60, 64
1, 303520, Control_c, 0, 64, 127
1, 303556, Note_off_c, 0, 53, 64
1, 303570, Note_off_c, 0, 37, 64
1, 303746, Note_off_c, 0, 61, 64
1, 304268, Note_on_c, 0, 68, 55
1, 304271, Note_on_c, 0, 53, 21
1, 304278, Note_on_c, 0, 61, 23
1, 304282, Note_on_c, 0, 56, 14
1, 304396, Control_c, 0, 64, 0
1, 304534, Control_c, 0, 64, 127
1, 304542, Note_off_c, 0, 61, 64
1, 304554, Note_off_c, 0, 56, 64
1, 304567, Note_off_c, 0, 53, 64
1, 304652, Note_off_c, 0, 68, 64
1, 304822, Note_on_c, 0, 67, 57
1, 304856, Note_on_c, 0, 58, 16
1, 304856, Note_on_c, 0, 61, 23
1, 304870, Note_on_c, 0, 52, 30
1, 305058, Control_c, 0, 64, 0
1, 305348, Control_c, 0, 64, 127
1, 305534, Note_off_c, 0, 58, 64
1, 305824, Note_off_c, 0, 52, 64
1, 305834, Note_on_c, 0, 66, 29
1, 305854, Note_on_c, 0, 60, 19
1, 305873, Note_on_c, 0, 51, 26
1, 305876, Note_on_c, 0, 56, 12
1, 305896, Note_off_c, 0, 61, 64
1, 305908, Note_off_c, 0, 67, 64
1, 305918, Control_c, 0, 64, 0
1, 306102, Control_c, 0, 64, 127
1, 306124, Note_off_c, 0, 56, 64
1, 306402, Note_on_c, 0, 61, 20
1, 306403, Note_off_c, 0, 51, 64
1, 306418, Note_on_c, 0, 65, 26
1, 306424, Note_off_c, 0, 60, 64
1, 306426, Note_on_c, 0, 56, 18
1, 306436, Note_on_c, 0, 49, 20
1, 306486, Control_c, 0, 64, 0
1, 306656, Note_off_c, 0, 66, 64
1, 306810, Note_off_c, 0, 56, 64
1, 306840, Control_c, 0, 64, 127
1, 306878, Note_off_c, 0, 61, 64
1, 306900, Note_off_c, 0, 65, 64
1, 306914, Note_off_c, 0, 49, 64
1, 307478, Note_on_c, 0, 68, 42
1, 307518, Note_on_c, 0, 61, 23
1, 307521, Note_on_c, 0, 56, 14
1, 307544, Note_on_c, 0, 53, 30
1, 307672, Note_off_c, 0, 53, 64
1, 307752, Note_off_c, 0, 61, 64
1, 307784, Note_off_c, 0, 56, 64
1, 307926, Note_off_c, 0, 68, 64
1, 308064, Note_on_c, 0, 67, 58
1, 308114, Note_on_c, 0, 57, 25
1, 308114, Note_on_c, 0, 61, 28
1, 308114, Note_on_c, 0, 52, 33
1, 308346, Control_c, 0, 64, 0
1, 308730, Control_c, 0, 64, 127
1, 308792, Note_off_c, 0, 57, 64
1, 308828, Note_off_c, 0, 61, 64
1, 309056, Note_off_c, 0, 52, 64
1, 309314, Note_on_c, 0, 66, 34
1, 309348, Note_on_c, 0, 62, 26
1, 309348, Note_on_c, 0, 57, 14
1, 309352, Note_on_c, 0, 50, 27
1, 309406, Control_c, 0, 64, 0
1, 309412, Note_off_c, 0, 67, 64
1, 309652, Note_off_c, 0, 57, 64
1, 309652, Control_c, 0, 64, 127
1, 309680, Note_off_c, 0, 62, 64
1, 309746, Note_off_c, 0, 66, 64
1, 309874, Note_off_c, 0, 50, 64
1, 309956, Note_on_c, 0, 65, 24
1, 309974, Note_on_c, 0, 63, 16
1, 309984, Note_on_c, 0, 57, 12
1, 309998, Note_on_c, 0, 48, 14
1, 310036, Control_c, 0, 64, 0
1, 310542, Control_c, 0, 64, 127
1, 310618, Note_off_c, 0, 57, 64
1, 310764, Note_off_c, 0, 65, 64
1, 310868, Note_off_c, 0, 63, 64
1, 310960, Note_off_c, 0, 48, 64
1, 311214, Note_on_c, 0, 56, 20
1, 311222, Note_on_c, 0, 65, 32
1, 311228, Note_on_c, 0, 47, 21
1, 311256, Note_on_c, 0, 62, 21
1, 311372, Control_c, 0, 64, 0
1, 311502, Note_off_c, 0, 62, 64
1, 311526, Control_c, 0, 64, 127
1, 311592, Note_off_c, 0, 56, 64
1, 311738, Note_off_c, 0, 47, 64
1, 311998, Note_on_c, 0, 66, 22
1, 312023, Note_on_c, 0, 61, 12
1, 312026, Note_on_c, 0, 45, 15
1, 312029, Note_on_c, 0, 54, 14
1, 312156, Control_c, 0, 64, 0
1, 312160, Note_off_c, 0, 65, 64
1, 312756, Control_c, 0, 64, 127
1, 312960, Note_off_c, 0, 54, 64
1, 313103, Note_off_c, 0, 61, 64
1, 313116, Note_off_c, 0, 66, 64
1, 313200, Note_off_c, 0, 45, 64
1, 313534, Note_on_c, 0, 44, 21
1, 313562, Note_on_c, 0, 60, 21
1, 313576, Note_on_c, 0, 54, 13
1, 313678, Control_c, 0, 64, 0
1, 313938, Control_c, 0, 64, 127
1, 314044, Note_off_c, 0, 54, 64
1, 314464, Note_off_c, 0, 44, 64
1, 314650, Note_on_c, 0, 61, 30
1, 314684, Note_on_c, 0, 53, 36
1, 314706, Note_on_c, 0, 37, 23
1, 314814, Control_c, 0, 64, 0
1, 314920, Note_off_c, 0, 60, 64
1, 315352, Control_c, 0, 64, 127
1, 315360, Note_on_c, 0, 44, 25
1, 315422, Note_off_c, 0, 53, 64
1, 315438, Note_off_c, 0, 37, 64
1, 315740, Note_off_c, 0, 61, 64
1, 315780, Note_on_c, 0, 49, 27
1, 315836, Note_off_c, 0, 44, 64
1, 316060, Note_off_c, 0, 49, 64
1, 316164, Note_on_c, 0, 53, 50
1, 316240, Note_on_c, 0, 80, 72
1, 316348, Note_off_c, 0, 53, 64
1, 316570, Note_on_c, 0, 56, 29
1, 316756, Note_off_c, 0, 56, 64
1, 316862, Note_on_c, 0, 61, 27
1, 317104, Note_off_c, 0, 61, 64
1, 317148, Note_on_c, 0, 56, 26
1, 317544, Note_on_c, 0, 68, 25
1, 317652, Note_on_c, 0, 79, 80
1, 317720, Note_off_c, 0, 80, 64
1, 317772, Note_on_c, 0, 61, 2
1, 318028, Note_on_c, 0, 80, 76
1, 318096, Note_off_c, 0, 79, 64
1, 318350, Note_on_c, 0, 89, 58
1, 318356, Note_off_c, 0, 80, 64
1, 318664, Note_on_c, 0, 87, 65
1, 318704, Note_off_c, 0, 89, 64
1, 318908, Note_on_c, 0, 85, 66
1, 318958, Note_off_c, 0, 87, 64
1, 319096, Note_on_c, 0, 77, 72
1, 319106, Note_off_c, 0, 68, 64
1, 319122, Note_off_c, 0, 85, 64
1, 319262, Note_on_c, 0, 78, 75
1, 319270, Note_off_c, 0, 61, 64
1, 319312, Note_off_c, 0, 77, 64
1, 319422, Note_on_c, 0, 80, 77
1, 319424, Note_off_c, 0, 56, 64
1, 319472, Note_off_c, 0, 78, 64
1, 319584, Note_on_c, 0, 84, 77
1, 319606, Note_off_c, 0, 80, 64
1, 319766, Note_on_c, 0, 82, 74
1, 319818, Note_off_c, 0, 84, 64
1, 319948, Note_on_c, 0, 37, 28
1, 320012, Note_on_c, 0, 80, 75
1, 320068, Control_c, 0, 64, 0
1, 320094, Note_off_c, 0, 82, 64
1, 320376, Control_c, 0, 64, 127
1, 320491, Note_on_c, 0, 44, 23
1, 320558, Note_off_c, 0, 37, 64
1, 320624, Note_on_c, 0, 78, 64
1, 320802, Note_off_c, 0, 80, 64
1, 320876, Note_off_c, 0, 44, 64
1, 320896, Note_on_c, 0, 54, 35
1, 321082, Note_on_c, 0, 77, 67
1, 321122, Note_off_c, 0, 78, 64
1, 321130, Note_off_c, 0, 54, 64
1, 321158, Note_off_c, 0, 77, 64
1, 321232, Note_on_c, 0, 77, 74
1, 321246, Note_on_c, 0, 56, 20
1, 321416, Note_off_c, 0, 56, 64
1, 321524, Note_on_c, 0, 60, 11
1, 321586, Note_on_c, 0, 75, 61
1, 321614, Note_off_c, 0, 77, 64
1, 321692, Note_off_c, 0, 60, 64
1, 321750, Note_on_c, 0, 56, 29
1, 321898, Note_on_c, 0, 77, 60
1, 321938, Note_off_c, 0, 75, 64
1, 322002, Note_on_c, 0, 60, 35
1, 322018, Note_off_c, 0, 56, 64
1, 322160, Note_on_c, 0, 56, 6
1, 322296, Note_on_c, 0, 75, 41
1, 322360, Note_on_c, 0, 66, 19
1, 322368, Note_off_c, 0, 77, 64
1, 322496, Control_c, 0, 64, 0
1, 322650, Control_c, 0, 64, 127
1, 322842, Note_on_c, 0, 73, 38
1, 322896, Note_off_c, 0, 75, 64
1, 323384, Note_on_c, 0, 72, 42
1, 323410, Note_off_c, 0, 73, 64
1, 323444, Note_off_c, 0, 72, 64
1, 323532, Note_on_c, 0, 72, 39
1, 323726, Control_c, 0, 64, 0
1, 323864, Control_c, 0, 64, 127
1, 323880, Note_on_c, 0, 70, 38
1, 323926, Note_off_c, 0, 72, 64
1, 323984, Note_off_c, 0, 60, 64
1, 324006, Note_off_c, 0, 66, 64
1, 324164, Note_off_c, 0, 56, 64
1, 324214, Note_on_c, 0, 72, 39
1, 324234, Note_off_c, 0, 70, 64
1, 324642, Note_on_c, 0, 37, 15
1, 324656, Note_on_c, 0, 70, 30
1, 324710, Control_c, 0, 64, 0
1, 324734, Note_off_c, 0, 72, 64
1, 325028, Note_on_c, 0, 44, 23
1, 325032, Control_c, 0, 64, 127
1, 325058, Note_off_c, 0, 37, 64
1, 325204, Note_off_c, 0, 44, 64
1, 325342, Note_on_c, 0, 53, 40
1, 325426, Note_on_c, 0, 68, 27
1, 325490, Note_off_c, 0, 53, 64
1, 325534, Note_off_c, 0, 70, 64
1, 325620, Note_on_c, 0, 56, 31
1, 325810, Note_on_c, 0, 67, 52
1, 325840, Note_off_c, 0, 68, 64
1, 325852, Note_off_c, 0, 56, 64
1, 325874, Note_on_c, 0, 61, 15
1, 326012, Note_off_c, 0, 67, 64
1, 326018, Note_off_c, 0, 61, 64
1, 326026, Note_on_c, 0, 68, 63
1, 326106, Note_on_c, 0, 65, 23
1, 326190, Note_on_c, 0, 70, 65
1, 326216, Note_off_c, 0, 68, 64
1, 326232, Note_off_c, 0, 65, 64
1, 326324, Note_on_c, 0, 61, 32
1, 326340, Note_on_c, 0, 72, 74
1, 326360, Note_off_c, 0, 70, 64
1, 326486, Note_on_c, 0, 73, 72
1, 326508, Note_off_c, 0, 72, 64
1, 326550, Note_on_c, 0, 56, 32
1, 326626, Note_on_c, 0, 75, 76
1, 326666, Note_off_c, 0, 73, 64
1, 326780, Note_on_c, 0, 77, 80
1, 326790, Note_on_c, 0, 68, 37
1, 326800, Note_off_c, 0, 75, 64
1, 326830, Control_c, 0, 64, 0
1, 326916, Note_on_c, 0, 78, 81
1, 326968, Note_off_c, 0, 77, 64
1, 326968, Control_c, 0, 64, 127
1, 327062, Note_on_c, 0, 80, 81
1, 327106, Note_off_c, 0, 78, 64
1, 327170, Note_off_c, 0, 68, 64
1, 327198, Note_on_c, 0, 82, 70
1, 327252, Note_off_c, 0, 80, 64
1, 327340, Note_off_c, 0, 82, 64
1, 327342, Note_on_c, 0, 84, 92
1, 327406, Note_off_c, 0, 61, 64
1, 327490, Note_on_c, 0, 85, 82
1, 327534, Note_off_c, 0, 84, 64
1, 327644, Note_on_c, 0, 87, 76
1, 327680, Note_off_c, 0, 56, 64
1, 327680, Note_off_c, 0, 85, 64
1, 327798, Note_on_c, 0, 89, 83
1, 327801, Note_off_c, 0, 87, 64
1, 327922, Note_off_c, 0, 89, 64
1, 327952, Note_on_c, 0, 90, 64
1, 328068, Note_off_c, 0, 90, 64
1, 328122, Note_on_c, 0, 92, 67
1, 328330, Note_off_c, 0, 92, 64
1, 328352, Note_on_c, 0, 101, 52
1, 328604, Note_on_c, 0, 99, 66
1, 328636, Note_off_c, 0, 101, 64
1, 328820, Note_on_c, 0, 37, 35
1, 328836, Note_on_c, 0, 97, 49
1, 328872, Note_off_c, 0, 99, 64
1, 329038, Note_on_c, 0, 94, 48
1, 329074, Control_c, 0, 64, 0
1, 329077, Note_off_c, 0, 97, 64
1, 329218, Note_off_c, 0, 94, 64
1, 329218, Note_on_c, 0, 90, 37
1, 329248, Note_on_c, 0, 44, 31
1, 329258, Control_c, 0, 64, 127
1, 329294, Note_off_c, 0, 37, 64
1, 329400, Note_on_c, 0, 92, 38
1, 329428, Note_off_c, 0, 90, 64
1, 329556, Note_off_c, 0, 44, 64
1, 329584, Note_off_c, 0, 92, 64
1, 329584, Note_on_c, 0, 54, 16
1, 329590, Note_on_c, 0, 96, 51
1, 329760, Note_on_c, 0, 94, 42
1, 329768, Note_off_c, 0, 96, 64
1, 329866, Note_off_c, 0, 54, 64
1, 329930, Note_off_c, 0, 94, 64
1, 329930, Note_on_c, 0, 90, 48
1, 329968, Note_on_c, 0, 56, 22
1, 330098, Note_on_c, 0, 87, 43
1, 330108, Note_off_c, 0, 90, 64
1, 330186, Note_off_c, 0, 56, 64
1, 330214, Note_off_c, 0, 87, 64
1, 330242, Note_on_c, 0, 82, 43
1, 330308, Note_on_c, 0, 60, 15
1, 330396, Note_on_c, 0, 84, 64
1, 330406, Note_off_c, 0, 82, 64
1, 330542, Note_off_c, 0, 84, 64
1, 330556, Note_on_c, 0, 89, 54
1, 330606, Note_on_c, 0, 56, 24
1, 330626, Note_off_c, 0, 89, 64
1, 330712, Note_on_c, 0, 87, 52
1, 330882, Note_on_c, 0, 85, 50
1, 330894, Note_off_c, 0, 87, 64
1, 330950, Note_on_c, 0, 66, 18
1, 331056, Note_on_c, 0, 82, 46
1, 331058, Note_off_c, 0, 85, 64
1, 331208, Note_on_c, 0, 78, 48
1, 331210, Note_off_c, 0, 82, 64
1, 331354, Note_off_c, 0, 78, 64
1, 331390, Note_on_c, 0, 80, 46
1, 331494, Note_off_c, 0, 80, 64
1, 331562, Note_on_c, 0, 84, 47
1, 331650, Note_off_c, 0, 84, 64
1, 331748, Note_on_c, 0, 82, 33
1, 331930, Note_off_c, 0, 82, 64
1, 331946, Note_on_c, 0, 78, 40
1, 332118, Note_off_c, 0, 78, 64
1, 332154, Note_on_c, 0, 75, 35
1, 332308, Note_off_c, 0, 75, 64
1, 332340, Note_on_c, 0, 70, 28
1, 332452, Note_off_c, 0, 60, 64
1, 332510, Note_off_c, 0, 66, 64
1, 332512, Note_off_c, 0, 70, 64
1, 332536, Note_on_c, 0, 72, 35
1, 332672, Note_off_c, 0, 72, 64
1, 332778, Note_on_c, 0, 77, 39
1, 332802, Note_off_c, 0, 56, 64
1, 333020, Note_off_c, 0, 77, 64
1, 333023, Note_on_c, 0, 75, 39
1, 333236, Note_off_c, 0, 75, 64
1, 333236, Note_on_c, 0, 72, 36
1, 333312, Note_on_c, 0, 37, 21
1, 333396, Note_on_c, 0, 73, 42
1, 333430, Note_off_c, 0, 72, 64
1, 333468, Control_c, 0, 64, 0
1, 333538, Note_on_c, 0, 75, 47
1, 333560, Note_off_c, 0, 73, 64
1, 333622, Control_c, 0, 64, 127
1, 333650, Note_on_c, 0, 73, 37
1, 333672, Note_off_c, 0, 75, 64
1, 333750, Note_on_c, 0, 75, 48
1, 333774, Note_off_c, 0, 73, 64
1, 333848, Note_on_c, 0, 73, 44
1, 333856, Note_off_c, 0, 75, 64
1, 333862, Note_on_c, 0, 44, 32
1, 333892, Note_off_c, 0, 37, 64
1, 333928, Note_off_c, 0, 73, 64
1, 333930, Note_on_c, 0, 75, 52
1, 334006, Note_off_c, 0, 75, 64
1, 334020, Note_on_c, 0, 73, 40
1, 334066, Note_off_c, 0, 44, 64
1, 334094, Note_off_c, 0, 73, 64
1, 334112, Note_on_c, 0, 75, 38
1, 334174, Note_off_c, 0, 75, 64
1, 334180, Note_on_c, 0, 73, 43
1, 334254, Note_off_c, 0, 73, 64
1, 334264, Note_on_c, 0, 53, 56
1, 334272, Note_on_c, 0, 75, 41
1, 334326, Note_off_c, 0, 53, 64
1, 334334, Note_off_c, 0, 75, 64
1, 334346, Note_on_c, 0, 73, 37
1, 334408, Note_off_c, 0, 73, 64
1, 334411, Note_on_c, 0, 75, 47
1, 334472, Note_off_c, 0, 75, 64
1, 334484, Note_on_c, 0, 73, 43
1, 334558, Note_off_c, 0, 73, 64
1, 334566, Note_on_c, 0, 75, 54
1, 334590, Note_on_c, 0, 56, 38
1, 334620, Note_off_c, 0, 75, 64
1, 334632, Note_on_c, 0, 73, 47
1, 334698, Note_off_c, 0, 73, 64
1, 334708, Note_on_c, 0, 75, 55
1, 334768, Note_off_c, 0, 75, 64
1, 334770, Note_on_c, 0, 73, 45
1, 334834, Note_off_c, 0, 73, 64
1, 334844, Note_on_c, 0, 75, 68
1, 334932, Note_off_c, 0, 56, 64
1, 334932, Note_on_c, 0, 73, 52
1, 334968, Note_off_c, 0, 75, 64
1, 335042, Note_on_c, 0, 72, 67
1, 335048, Note_off_c, 0, 73, 64
1, 335096, Note_on_c, 0, 65, 24
1, 335226, Note_on_c, 0, 73, 66
1, 335248, Note_off_c, 0, 65, 64
1, 335284, Note_off_c, 0, 72, 64
1, 335412, Note_on_c, 0, 77, 70
1, 335438, Note_off_c, 0, 73, 64
1, 335572, Note_on_c, 0, 75, 62
1, 335606, Note_off_c, 0, 77, 64
1, 335738, Note_on_c, 0, 72, 64
1, 335762, Note_on_c, 0, 39, 41
1, 335770, Note_off_c, 0, 75, 64
1, 335802, Control_c, 0, 64, 0
1, 335928, Note_off_c, 0, 72, 64
1, 335930, Note_on_c, 0, 73, 73
1, 335972, Note_off_c, 0, 73, 64
1, 335972, Control_c, 0, 64, 127
1, 336130, Note_on_c, 0, 65, 76
1, 336170, Note_on_c, 0, 42, 29
1, 336268, Note_off_c, 0, 65, 64
1, 336310, Note_on_c, 0, 66, 60
1, 336346, Note_off_c, 0, 39, 64
1, 336468, Note_off_c, 0, 66, 64
1, 336474, Note_on_c, 0, 60, 73
1, 336477, Note_off_c, 0, 42, 64
1, 336496, Note_on_c, 0, 54, 50
1, 336614, Note_off_c, 0, 54, 64
1, 336624, Note_on_c, 0, 61, 81
1, 336650, Note_off_c, 0, 60, 64
1, 336758, Note_off_c, 0, 61, 64
1, 336790, Note_on_c, 0, 65, 70
1, 336796, Note_on_c, 0, 51, 53
1, 336940, Note_on_c, 0, 66, 72
1, 336962, Note_off_c, 0, 65, 64
1, 336978, Note_off_c, 0, 66, 64
1, 337038, Note_on_c, 0, 54, 56
1, 337062, Note_off_c, 0, 51, 64
1, 337096, Note_on_c, 0, 72, 79
1, 337186, Note_on_c, 0, 66, 56
1, 337252, Note_on_c, 0, 73, 75
1, 337316, Note_off_c, 0, 66, 64
1, 337320, Note_off_c, 0, 72, 64
1, 337430, Note_on_c, 0, 77, 87
1, 337444, Note_off_c, 0, 54, 64
1, 337458, Note_off_c, 0, 73, 64
1, 337612, Note_on_c, 0, 75, 81
1, 337656, Note_off_c, 0, 77, 64
1, 337764, Note_off_c, 0, 75, 64
1, 337778, Note_on_c, 0, 40, 99
1, 337784, Note_on_c, 0, 72, 57
1, 337944, Note_on_c, 0, 73, 72
1, 338016, Note_off_c, 0, 72, 64
1, 338046, Control_c, 0, 64, 0
1, 338100, Note_on_c, 0, 66, 69
1, 338118, Note_on_c, 0, 49, 70
1, 338184, Control_c, 0, 64, 127
1, 338192, Note_off_c, 0, 40, 64
1, 338236, Note_off_c, 0, 73, 64
1, 338248, Note_on_c, 0, 67, 77
1, 338282, Note_off_c, 0, 66, 64
1, 338352, Note_off_c, 0, 67, 64
1, 338402, Note_on_c, 0, 60, 87
1, 338404, Note_on_c, 0, 55, 72
1, 338406, Note_off_c, 0, 49, 64
1, 338534, Note_off_c, 0, 60, 64
1, 338540, Note_on_c, 0, 61, 86
1, 338572, Note_off_c, 0, 55, 64
1, 338684, Note_on_c, 0, 66, 75
1, 338690, Note_on_c, 0, 52, 89
1, 338692, Note_off_c, 0, 61, 64
1, 338768, Note_off_c, 0, 66, 64
1, 338814, Note_on_c, 0, 67, 89
1, 338878, Note_on_c, 0, 58, 57
1, 338894, Note_off_c, 0, 52, 64
1, 338894, Note_off_c, 0, 67, 64
1, 338956, Note_on_c, 0, 72, 78
1, 338972, Note_off_c, 0, 58, 64
1, 339022, Note_on_c, 0, 67, 89
1, 339114, Note_off_c, 0, 67, 64
1, 339114, Note_on_c, 0, 73, 77
1, 339152, Note_off_c, 0, 72, 64
1, 339280, Note_on_c, 0, 77, 94
1, 339298, Note_off_c, 0, 73, 64
1, 339428, Note_on_c, 0, 75, 86
1, 339502, Note_off_c, 0, 77, 64
1, 339576, Note_on_c, 0, 41, 97
1, 339612, Note_on_c, 0, 72, 89
1, 339628, Note_off_c, 0, 75, 64
1, 339690, Control_c, 0, 64, 0
1, 339740, Note_on_c, 0, 73, 83
1, 339836, Note_off_c, 0, 72, 64
1, 339854, Note_on_c, 0, 77, 89
1, 339890, Control_c, 0, 64, 127
1, 339892, Note_off_c, 0, 73, 64
1, 339968, Note_on_c, 0, 75, 79
1, 340042, Note_on_c, 0, 49, 70
1, 340054, Note_off_c, 0, 77, 64
1, 340078, Note_off_c, 0, 41, 64
1, 340094, Note_on_c, 0, 72, 85
1, 340104, Note_off_c, 0, 75, 64
1, 340208, Note_on_c, 0, 73, 80
1, 340266, Note_off_c, 0, 72, 64
1, 340294, Note_on_c, 0, 77, 77
1, 340306, Note_off_c, 0, 73, 64
1, 340358, Note_off_c, 0, 49, 64
1, 340374, Note_on_c, 0, 75, 81
1, 340416, Note_off_c, 0, 77, 64
1, 340456, Note_off_c, 0, 75, 64
1, 340459, Note_on_c, 0, 72, 52
1, 340464, Note_on_c, 0, 59, 73
1, 340488, Note_on_c, 0, 74, 44
1, 340524, Note_on_c, 0, 73, 76
1, 340540, Note_off_c, 0, 72, 64
1, 340543, Note_off_c, 0, 74, 64
1, 340580, Note_on_c, 0, 75, 78
1, 340598, Note_off_c, 0, 73, 64
1, 340656, Note_on_c, 0, 73, 76
1, 340662, Note_off_c, 0, 75, 64
1, 340706, Note_off_c, 0, 59, 64
1, 340726, Note_on_c, 0, 75, 84
1, 340754, Note_off_c, 0, 73, 64
1, 340804, Note_on_c, 0, 73, 88
1, 340832, Note_off_c, 0, 75, 64
1, 340882, Note_on_c, 0, 71, 100
1, 340885, Note_on_c, 0, 56, 75
1, 340898, Note_off_c, 0, 73, 64
1, 341006, Note_on_c, 0, 75, 79
1, 341054, Note_off_c, 0, 71, 64
1, 341110, Note_on_c, 0, 73, 77
1, 341134, Note_off_c, 0, 75, 64
1, 341190, Note_on_c, 0, 75, 84
1, 341232, Note_off_c, 0, 73, 64
1, 341266, Note_on_c, 0, 73, 35
1, 341308, Note_on_c, 0, 61, 78
1, 341316, Note_off_c, 0, 75, 64
1, 341322, Note_on_c, 0, 66, 90
1, 341366, Note_off_c, 0, 73, 64
1, 341374, Note_off_c, 0, 56, 64
1, 341428, Note_on_c, 0, 73, 62
1, 341488, Note_on_c, 0, 75, 67
1, 341524, Note_off_c, 0, 73, 64
1, 341584, Note_on_c, 0, 73, 74
1, 341608, Note_off_c, 0, 75, 64
1, 341618, Note_off_c, 0, 61, 64
1, 341632, Note_off_c, 0, 73, 64
1, 341662, Note_on_c, 0, 75, 87
1, 341665, Note_off_c, 0, 66, 64
1, 341752, Note_on_c, 0, 73, 78
1, 341774, Note_on_c, 0, 49, 77
1, 341792, Note_off_c, 0, 75, 64
1, 341822, Note_on_c, 0, 68, 90
1, 341862, Note_off_c, 0, 73, 64
1, 341876, Note_off_c, 0, 49, 64
1, 341922, Note_on_c, 0, 73, 70
1, 341996, Note_on_c, 0, 75, 70
1, 342022, Note_off_c, 0, 73, 64
1, 342086, Note_on_c, 0, 73, 66
1, 342110, Note_off_c, 0, 75, 64
1, 342166, Note_on_c, 0, 75, 80
1, 342206, Note_off_c, 0, 73, 64
1, 342264, Note_on_c, 0, 73, 68
1, 342302, Note_off_c, 0, 75, 64
1, 342338, Note_on_c, 0, 70, 84
1, 342344, Note_on_c, 0, 42, 96
1, 342347, Note_on_c, 0, 30, 89
1, 342368, Note_off_c, 0, 68, 64
1, 342394, Control_c, 0, 64, 0
1, 342496, Note_on_c, 0, 71, 85
1, 342524, Note_on_c, 0, 75, 67
1, 342532, Note_off_c, 0, 70, 64
1, 342534, Note_off_c, 0, 73, 64
1, 342566, Note_off_c, 0, 30, 64
1, 342592, Note_off_c, 0, 42, 64
1, 342595, Control_c, 0, 64, 127
1, 342600, Note_on_c, 0, 73, 69
1, 342604, Note_off_c, 0, 71, 64
1, 342604, Note_on_c, 0, 70, 56
1, 342648, Note_off_c, 0, 75, 64
1, 342708, Note_on_c, 0, 71, 74
1, 342710, Note_on_c, 0, 75, 70
1, 342724, Note_off_c, 0, 70, 64
1, 342742, Note_off_c, 0, 73, 64
1, 342742, Note_on_c, 0, 49, 90
1, 342756, Note_on_c, 0, 37, 83
1, 342798, Note_on_c, 0, 73, 78
1, 342810, Note_on_c, 0, 70, 49
1, 342820, Note_off_c, 0, 71, 64
1, 342848, Note_off_c, 0, 75, 64
1, 342910, Note_off_c, 0, 37, 64
1, 342915, Note_on_c, 0, 71, 68
1, 342921, Note_on_c, 0, 75, 67
1, 342934, Note_off_c, 0, 70, 64
1, 342938, Note_off_c, 0, 49, 64
1, 342952, Note_off_c, 0, 73, 64
1, 343016, Note_on_c, 0, 73, 71
1, 343026, Note_on_c, 0, 70, 48
1, 343028, Note_off_c, 0, 71, 64
1, 343052, Note_off_c, 0, 75, 64
1, 343084, Note_on_c, 0, 56, 90
1, 343100, Note_on_c, 0, 44, 77
1, 343128, Note_on_c, 0, 75, 66
1, 343132, Note_on_c, 0, 71, 68
1, 343156, Note_off_c, 0, 70, 64
1, 343162, Note_off_c, 0, 73, 64
1, 343220, Note_on_c, 0, 73, 75
1, 343230, Note_off_c, 0, 71, 64
1, 343232, Note_on_c, 0, 70, 48
1, 343248, Note_off_c, 0, 56, 64
1, 343258, Note_off_c, 0, 75, 64
1, 343276, Note_off_c, 0, 44, 64
1, 343340, Note_on_c, 0, 75, 61
1, 343346, Note_on_c, 0, 71, 66
1, 343362, Note_off_c, 0, 70, 64
1, 343364, Note_off_c, 0, 73, 64
1, 343378, Note_on_c, 0, 54, 88
1, 343384, Note_on_c, 0, 42, 77
1, 343410, Note_off_c, 0, 71, 64
1, 343428, Note_on_c, 0, 73, 69
1, 343431, Note_off_c, 0, 42, 64
1, 343434, Note_on_c, 0, 70, 54
1, 343454, Note_off_c, 0, 54, 64
1, 343468, Note_off_c, 0, 75, 64
1, 343526, Note_on_c, 0, 56, 86
1, 343532, Note_on_c, 0, 44, 83
1, 343538, Note_on_c, 0, 75, 64
1, 343538, Note_on_c, 0, 71, 77
1, 343552, Note_off_c, 0, 73, 64
1, 343554, Note_off_c, 0, 70, 64
1, 343586, Note_off_c, 0, 44, 64
1, 343608, Note_off_c, 0, 71, 64
1, 343618, Note_on_c, 0, 73, 67
1, 343624, Note_on_c, 0, 70, 55
1, 343630, Note_off_c, 0, 56, 64
1, 343658, Note_off_c, 0, 75, 64
1, 343680, Note_on_c, 0, 58, 78
1, 343698, Note_on_c, 0, 46, 66
1, 343732, Note_on_c, 0, 75, 64
1, 343732, Note_on_c, 0, 71, 75
1, 343740, Note_off_c, 0, 70, 64
1, 343756, Note_off_c, 0, 73, 64
1, 343808, Note_off_c, 0, 71, 64
1, 343824, Note_on_c, 0, 73, 69
1, 343832, Note_on_c, 0, 70, 47
1, 343836, Note_off_c, 0, 58, 64
1, 343862, Note_off_c, 0, 75, 64
1, 343922, Note_off_c, 0, 46, 64
1, 343936, Note_on_c, 0, 75, 68
1, 343948, Note_on_c, 0, 71, 87
1, 343958, Note_off_c, 0, 70, 64
1, 343964, Note_off_c, 0, 73, 64
1, 343992, Note_off_c, 0, 71, 64
1, 344038, Note_on_c, 0, 49, 86
1, 344040, Note_on_c, 0, 73, 63
1, 344042, Note_on_c, 0, 70, 54
1, 344046, Note_on_c, 0, 37, 86
1, 344074, Note_off_c, 0, 75, 64
1, 344130, Note_on_c, 0, 75, 75
1, 344133, Note_on_c, 0, 71, 79
1, 344156, Note_off_c, 0, 70, 64
1, 344162, Note_off_c, 0, 49, 64
1, 344162, Note_off_c, 0, 73, 64
1, 344210, Note_off_c, 0, 71, 64
1, 344216, Note_on_c, 0, 73, 79
1, 344216, Note_on_c, 0, 70, 70
1, 344234, Note_off_c, 0, 37, 64
1, 344252, Note_off_c, 0, 75, 64
1, 344308, Note_on_c, 0, 75, 79
1, 344318, Note_on_c, 0, 71, 73
1, 344322, Note_off_c, 0, 73, 64
1, 344328, Note_off_c, 0, 70, 64
1, 344392, Note_on_c, 0, 42, 78
1, 344394, Note_on_c, 0, 70, 75
1, 344394, Note_on_c, 0, 73, 75
1, 344397, Note_on_c, 0, 30, 89
1, 344430, Note_off_c, 0, 71, 64
1, 344430, Control_c, 0, 64, 0
1, 344478, Note_off_c, 0, 75, 64
1, 344526, Note_off_c, 0, 30, 64
1, 344572, Note_off_c, 0, 42, 64
1, 344592, Control_c, 0, 64, 127
1, 344684, Note_off_c, 0, 73, 64
1, 344692, Note_on_c, 0, 72, 89
1, 344696, Note_on_c, 0, 69, 64
1, 344702, Note_on_c, 0, 49, 79
1, 344714, Note_off_c, 0, 70, 64
1, 344714, Note_on_c, 0, 37, 69
1, 344776, Note_off_c, 0, 37, 64
1, 344806, Note_off_c, 0, 49, 64
1, 344872, Note_off_c, 0, 69, 64
1, 344926, Note_off_c, 0, 72, 64
1, 344938, Note_on_c, 0, 73, 72
1, 344941, Note_on_c, 0, 70, 58
1, 344960, Note_on_c, 0, 56, 75
1, 344975, Note_on_c, 0, 44, 71
1, 344988, Note_off_c, 0, 70, 64
1, 345030, Note_off_c, 0, 73, 64
1, 345048, Note_on_c, 0, 70, 62
1, 345056, Note_off_c, 0, 44, 64
1, 345060, Note_off_c, 0, 56, 64
1, 345068, Note_on_c, 0, 73, 55
1, 345122, Note_off_c, 0, 70, 64
1, 345156, Note_on_c, 0, 77, 75
1, 345202, Note_on_c, 0, 54, 84
1, 345202, Note_on_c, 0, 75, 75
1, 345208, Note_on_c, 0, 42, 67
1, 345208, Note_on_c, 0, 71, 71
1, 345234, Note_off_c, 0, 73, 64
1, 345252, Note_off_c, 0, 42, 64
1, 345258, Note_off_c, 0, 54, 64
1, 345290, Note_off_c, 0, 77, 64
1, 345350, Note_on_c, 0, 56, 69
1, 345366, Note_on_c, 0, 44, 62
1, 345374, Note_off_c, 0, 71, 64
1, 345426, Note_off_c, 0, 44, 64
1, 345429, Note_off_c, 0, 56, 64
1, 345498, Note_on_c, 0, 73, 86
1, 345502, Note_on_c, 0, 70, 70
1, 345522, Note_on_c, 0, 58, 70
1, 345532, Note_on_c, 0, 46, 69
1, 345566, Note_off_c, 0, 75, 64
1, 345596, Note_off_c, 0, 46, 64
1, 345636, Note_off_c, 0, 58, 64
1, 345646, Note_off_c, 0, 70, 64
1, 345784, Note_on_c, 0, 70, 74
1, 345792, Note_on_c, 0, 66, 72
1, 345806, Note_on_c, 0, 61, 69
1, 345828, Note_on_c, 0, 49, 57
1, 345848, Note_off_c, 0, 73, 64
1, 345854, Note_off_c, 0, 61, 64
1, 345894, Note_off_c, 0, 49, 64
1, 346102, Note_off_c, 0, 66, 64
1, 346136, Note_on_c, 0, 78, 83
1, 346136, Note_on_c, 0, 75, 78
1, 346158, Note_on_c, 0, 42, 56
1, 346158, Note_on_c, 0, 30, 79
1, 346174, Control_c, 0, 64, 0
1, 346220, Note_off_c, 0, 70, 64
1, 346304, Note_off_c, 0, 30, 64
1, 346342, Note_off_c, 0, 42, 64
1, 346358, Control_c, 0, 64, 127
1, 346394, Note_off_c, 0, 78, 64
1, 346430, Note_off_c, 0, 75, 64
1, 346464, Note_on_c, 0, 66, 70
1, 346467, Note_on_c, 0, 70, 70
1, 346482, Note_on_c, 0, 49, 71
1, 346500, Note_on_c, 0, 37, 48
1, 346536, Note_off_c, 0, 49, 64
1, 346548, Note_off_c, 0, 37, 64
1, 346658, Note_off_c, 0, 70, 64
1, 346702, Note_off_c, 0, 66, 64
1, 346760, Note_on_c, 0, 75, 81
1, 346772, Note_on_c, 0, 71, 80
1, 346775, Note_on_c, 0, 53, 89
1, 346786, Note_on_c, 0, 41, 60
1, 346826, Note_off_c, 0, 53, 64
1, 346840, Note_off_c, 0, 41, 64
1, 346900, Note_off_c, 0, 71, 64
1, 346930, Note_off_c, 0, 75, 64
1, 347032, Note_on_c, 0, 73, 75
1, 347044, Note_on_c, 0, 70, 63
1, 347044, Note_on_c, 0, 54, 77
1, 347047, Note_on_c, 0, 42, 62
1, 347088, Note_off_c, 0, 42, 64
1, 347092, Note_off_c, 0, 54, 64
1, 347180, Note_on_c, 0, 56, 76
1, 347192, Note_on_c, 0, 44, 62
1, 347220, Note_off_c, 0, 73, 64
1, 347242, Note_off_c, 0, 44, 64
1, 347252, Note_off_c, 0, 56, 64
1, 347298, Note_off_c, 0, 70, 64
1, 347304, Note_on_c, 0, 61, 73
1, 347308, Note_on_c, 0, 66, 64
1, 347334, Note_on_c, 0, 58, 67
1, 347350, Note_on_c, 0, 46, 61
1, 347408, Note_off_c, 0, 58, 64
1, 347476, Note_off_c, 0, 46, 64
1, 347580, Note_off_c, 0, 61, 64
1, 347596, Note_on_c, 0, 68, 67
1, 347596, Note_on_c, 0, 71, 94
1, 347620, Note_on_c, 0, 49, 65
1, 347626, Note_on_c, 0, 37, 69
1, 347640, Note_off_c, 0, 66, 64
1, 347666, Note_off_c, 0, 49, 64
1, 347680, Note_off_c, 0, 37, 64
1, 347802, Note_off_c, 0, 68, 64
1, 347898, Note_on_c, 0, 70, 79
1, 347904, Note_on_c, 0, 66, 66
1, 347926, Control_c, 0, 64, 0
1, 347928, Note_on_c, 0, 30, 78
1, 347928, Note_on_c, 0, 42, 61
1, 347980, Note_off_c, 0, 71, 64
1, 348090, Note_off_c, 0, 30, 64
1, 348102, Note_off_c, 0, 42, 64
1, 348110, Control_c, 0, 64, 127
1, 348231, Note_on_c, 0, 49, 72
1, 348235, Note_on_c, 0, 37, 70
1, 348368, Note_off_c, 0, 37, 64
1, 348384, Note_off_c, 0, 49, 64
1, 348524, Note_on_c, 0, 56, 68
1, 348542, Note_on_c, 0, 44, 65
1, 348646, Note_off_c, 0, 56, 64
1, 348678, Note_off_c, 0, 44, 64
1, 348762, Note_on_c, 0, 54, 82
1, 348766, Note_on_c, 0, 42, 75
1, 348782, Note_on_c, 0, 64, 87
1, 348814, Note_off_c, 0, 42, 64
1, 348817, Note_off_c, 0, 54, 64
1, 348884, Note_off_c, 0, 66, 64
1, 348926, Note_on_c, 0, 56, 27
1, 348928, Note_on_c, 0, 44, 61
1, 348974, Note_off_c, 0, 44, 64
1, 348994, Note_off_c, 0, 56, 64
1, 349070, Note_on_c, 0, 58, 63
1, 349088, Note_on_c, 0, 46, 52
1, 349202, Control_c, 0, 64, 0
1, 349294, Control_c, 0, 64, 127
1, 349302, Note_off_c, 0, 58, 64
1, 349302, Note_off_c, 0, 46, 64
1, 349382, Note_on_c, 0, 61, 76
1, 349394, Note_on_c, 0, 49, 75
1, 349450, Note_off_c, 0, 61, 64
1, 349482, Note_off_c, 0, 64, 64
1, 349524, Note_off_c, 0, 70, 64
1, 349527, Note_off_c, 0, 49, 64
1, 349700, Note_on_c, 0, 42, 73
1, 349700, Note_on_c, 0, 30, 88
1, 349708, Control_c, 0, 64, 0
1, 349740, Note_on_c, 0, 63, 82
1, 349846, Note_off_c, 0, 30, 64
1, 349848, Note_on_c, 0, 71, 76
1, 349850, Note_off_c, 0, 42, 64
1, 349862, Control_c, 0, 64, 127
1, 349875, Note_off_c, 0, 63, 64
1, 349954, Note_on_c, 0, 78, 84
1, 350044, Note_on_c, 0, 54, 73
1, 350044, Note_on_c, 0, 42, 68
1, 350088, Note_off_c, 0, 71, 64
1, 350094, Note_off_c, 0, 42, 64
1, 350112, Note_off_c, 0, 54, 64
1, 350194, Note_off_c, 0, 78, 64
1, 350336, Note_on_c, 0, 61, 84
1, 350350, Note_on_c, 0, 49, 71
1, 350458, Note_off_c, 0, 61, 64
1, 350518, Note_off_c, 0, 49, 64
1, 350648, Note_on_c, 0, 59, 61
1, 350648, Note_on_c, 0, 47, 59
1, 350664, Note_on_c, 0, 78, 92
1, 350676, Note_on_c, 0, 66, 62
1, 350679, Note_on_c, 0, 75, 70
1, 350692, Note_off_c, 0, 59, 64
1, 350695, Note_off_c, 0, 47, 64
1, 350798, Note_on_c, 0, 61, 87
1, 350804, Note_on_c, 0, 49, 74
1, 350846, Note_off_c, 0, 61, 64
1, 350850, Note_off_c, 0, 49, 64
1, 350932, Note_on_c, 0, 63, 79
1, 350950, Note_on_c, 0, 51, 70
1, 350968, Control_c, 0, 64, 0
1, 351054, Note_off_c, 0, 63, 64
1, 351092, Control_c, 0, 64, 127
1, 351116, Note_off_c, 0, 51, 64
1, 351228, Note_on_c, 0, 54, 81
1, 351260, Note_on_c, 0, 44, 35
1, 351268, Note_off_c, 0, 54, 64
1, 351274, Note_on_c, 0, 42, 9
1, 351328, Note_off_c, 0, 42, 64
1, 351331, Note_off_c, 0, 44, 64
1, 351514, Note_on_c, 0, 42, 81
1, 351514, Note_on_c, 0, 30, 87
1, 351552, Note_off_c, 0, 30, 64
1, 351574, Note_off_c, 0, 42, 64
1, 351682, Note_off_c, 0, 66, 64
1, 351692, Note_off_c, 0, 78, 64
1, 351694, Note_off_c, 0, 75, 64
1, 351766, Note_on_c, 0, 77, 96
1, 351774, Note_on_c, 0, 54, 83
1, 351776, Note_on_c, 0, 65, 75
1, 351778, Note_on_c, 0, 74, 80
1, 351790, Note_on_c, 0, 42, 62
1, 351828, Note_off_c, 0, 65, 64
1, 351836, Note_off_c, 0, 42, 64
1, 351840, Note_off_c, 0, 74, 64
1, 351870, Note_off_c, 0, 54, 64
1, 351896, Note_off_c, 0, 77, 64
1, 352014, Note_on_c, 0, 78, 79
1, 352020, Note_on_c, 0, 66, 69
1, 352046, Note_on_c, 0, 61, 75
1, 352049, Note_off_c, 0, 78, 64
1, 352060, Note_off_c, 0, 66, 64
1, 352063, Note_on_c, 0, 49, 62
1, 352114, Note_off_c, 0, 61, 64
1, 352126, Note_off_c, 0, 49, 64
1, 352152, Note_on_c, 0, 82, 86
1, 352192, Note_off_c, 0, 82, 64
1, 352276, Note_on_c, 0, 80, 92
1, 352286, Note_on_c, 0, 68, 83
1, 352292, Note_on_c, 0, 77, 84
1, 352292, Note_on_c, 0, 59, 81
1, 352296, Note_on_c, 0, 47, 79
1, 352332, Note_off_c, 0, 59, 64
1, 352335, Note_off_c, 0, 47, 64
1, 352432, Note_off_c, 0, 68, 64
1, 352434, Note_off_c, 0, 77, 64
1, 352436, Note_off_c, 0, 80, 64
1, 352472, Note_on_c, 0, 49, 72
1, 352474, Note_on_c, 0, 61, 60
1, 352512, Note_off_c, 0, 49, 64
1, 352522, Note_on_c, 0, 63, 13
1, 352524, Note_off_c, 0, 61, 64
1, 352572, Note_off_c, 0, 63, 64
1, 352572, Note_on_c, 0, 78, 90
1, 352580, Note_on_c, 0, 66, 82
1, 352590, Note_on_c, 0, 75, 67
1, 352624, Note_on_c, 0, 63, 85
1, 352627, Note_on_c, 0, 51, 79
1, 352664, Note_off_c, 0, 66, 64
1, 352664, Note_off_c, 0, 75, 64
1, 352672, Note_off_c, 0, 51, 64
1, 352680, Note_off_c, 0, 63, 64
1, 352774, Note_off_c, 0, 78, 64
1, 352860, Note_on_c, 0, 75, 94
1, 352872, Note_on_c, 0, 71, 88
1, 352878, Note_on_c, 0, 66, 75
1, 352886, Note_on_c, 0, 54, 88
1, 352908, Note_off_c, 0, 71, 64
1, 352908, Note_on_c, 0, 73, 24
1, 352912, Note_off_c, 0, 66, 64
1, 352930, Note_off_c, 0, 54, 64
1, 352966, Note_off_c, 0, 75, 64
1, 352976, Note_off_c, 0, 73, 64
1, 353198, Note_on_c, 0, 87, 95
1, 353204, Note_on_c, 0, 75, 83
1, 353206, Note_on_c, 0, 83, 108
1, 353220, Note_on_c, 0, 42, 83
1, 353220, Note_on_c, 0, 30, 92
1, 353260, Note_off_c, 0, 30, 64
1, 353260, Control_c, 0, 64, 0
1, 353326, Note_off_c, 0, 42, 64
1, 353380, Control_c, 0, 64, 127
1, 353426, Note_off_c, 0, 87, 64
1, 353438, Note_off_c, 0, 83, 64
1, 353444, Note_off_c, 0, 75, 64
1, 353534, Note_on_c, 0, 54, 83
1, 353539, Note_on_c, 0, 85, 96
1, 353544, Note_on_c, 0, 73, 93
1, 353550, Note_on_c, 0, 82, 70
1, 353552, Note_on_c, 0, 42, 58
1, 353582, Note_off_c, 0, 54, 64
1, 353596, Note_off_c, 0, 42, 64
1, 353604, Note_off_c, 0, 82, 64
1, 353656, Note_off_c, 0, 85, 64
1, 353656, Note_off_c, 0, 73, 64
1, 353816, Note_on_c, 0, 78, 89
1, 353818, Note_on_c, 0, 66, 86
1, 353826, Note_on_c, 0, 75, 70
1, 353836, Note_on_c, 0, 61, 78
1, 353854, Note_on_c, 0, 49, 59
1, 353866, Note_off_c, 0, 66, 64
1, 353878, Note_off_c, 0, 75, 64
1, 353908, Note_off_c, 0, 61, 64
1, 353916, Note_off_c, 0, 49, 64
1, 353945, Note_off_c, 0, 78, 64
1, 354084, Note_on_c, 0, 83, 113
1, 354090, Note_on_c, 0, 80, 73
1, 354096, Note_on_c, 0, 71, 85
1, 354100, Note_on_c, 0, 47, 70
1, 354110, Note_on_c, 0, 59, 54
1, 354142, Note_off_c, 0, 71, 64
1, 354142, Note_off_c, 0, 47, 64
1, 354158, Note_off_c, 0, 59, 64
1, 354252, Note_on_c, 0, 61, 79
1, 354262, Note_on_c, 0, 49, 66
1, 354304, Note_off_c, 0, 61, 64
1, 354310, Note_off_c, 0, 49, 64
1, 354366, Note_off_c, 0, 83, 64
1, 354396, Note_on_c, 0, 75, 81
1, 354400, Note_on_c, 0, 71, 84
1, 354408, Note_off_c, 0, 80, 64
1, 354411, Note_on_c, 0, 63, 83
1, 354432, Note_on_c, 0, 51, 69
1, 354478, Note_off_c, 0, 63, 64
1, 354520, Note_off_c, 0, 71, 64
1, 354520, Note_off_c, 0, 51, 64
1, 354638, Note_off_c, 0, 75, 64
1, 354684, Note_on_c, 0, 82, 88
1, 354688, Note_on_c, 0, 78, 78
1, 354692, Note_on_c, 0, 70, 72
1, 354700, Note_on_c, 0, 54, 60
1, 354700, Note_on_c, 0, 42, 67
1, 354740, Note_off_c, 0, 42, 64
1, 354748, Note_off_c, 0, 54, 64
1, 354832, Note_off_c, 0, 78, 64
1, 354848, Note_off_c, 0, 70, 64
1, 354864, Note_off_c, 0, 82, 64
1, 354954, Note_on_c, 0, 80, 87
1, 354956, Note_on_c, 0, 68, 79
1, 354958, Note_on_c, 0, 42, 61
1, 354960, Note_on_c, 0, 30, 69
1, 354962, Note_on_c, 0, 77, 71
1, 354964, Control_c, 0, 64, 0
1, 355028, Note_off_c, 0, 30, 64
1, 355066, Note_off_c, 0, 42, 64
1, 355116, Control_c, 0, 64, 127
1, 355134, Note_off_c, 0, 77, 64
1, 355136, Note_off_c, 0, 80, 64
1, 355136, Note_off_c, 0, 68, 64
1, 355252, Note_on_c, 0, 78, 86
1, 355258, Note_on_c, 0, 66, 72
1, 355260, Note_on_c, 0, 49, 57
1, 355260, Note_on_c, 0, 37, 65
1, 355272, Note_on_c, 0, 75, 55
1, 355318, Note_off_c, 0, 49, 64
1, 355318, Note_off_c, 0, 75, 64
1, 355348, Note_off_c, 0, 37, 64
1, 355376, Note_off_c, 0, 78, 64
1, 355386, Note_off_c, 0, 66, 64
1, 355556, Note_on_c, 0, 63, 79
1, 355556, Note_on_c, 0, 75, 81
1, 355562, Note_on_c, 0, 71, 71
1, 355566, Note_on_c, 0, 53, 84
1, 355571, Note_on_c, 0, 41, 59
1, 355612, Note_off_c, 0, 53, 64
1, 355620, Note_off_c, 0, 41, 64
1, 355698, Note_off_c, 0, 63, 64
1, 355698, Note_off_c, 0, 75, 64
1, 355710, Note_off_c, 0, 71, 64
1, 355784, Note_on_c, 0, 54, 78
1, 355792, Note_on_c, 0, 42, 65
1, 355810, Note_on_c, 0, 73, 81
1, 355814, Note_on_c, 0, 61, 86
1, 355824, Note_on_c, 0, 70, 58
1, 355832, Note_off_c, 0, 54, 64
1, 355832, Note_off_c, 0, 42, 64
1, 355922, Note_on_c, 0, 56, 76
1, 355934, Note_on_c, 0, 44, 73
1, 355972, Note_off_c, 0, 56, 64
1, 355980, Note_off_c, 0, 44, 64
1, 356064, Note_on_c, 0, 58, 73
1, 356084, Note_on_c, 0, 46, 62
1, 356164, Note_off_c, 0, 58, 64
1, 356204, Note_off_c, 0, 61, 64
1, 356214, Note_off_c, 0, 46, 64
1, 356332, Note_on_c, 0, 63, 88
1, 356336, Note_on_c, 0, 49, 76
1, 356340, Note_on_c, 0, 37, 81
1, 356394, Note_off_c, 0, 49, 64
1, 356494, Note_off_c, 0, 37, 64
1, 356516, Note_off_c, 0, 63, 64
1, 356526, Note_off_c, 0, 70, 64
1, 356640, Control_c, 0, 64, 0
1, 356646, Note_on_c, 0, 42, 86
1, 356649, Note_on_c, 0, 30, 90
1, 356662, Note_on_c, 0, 70, 78
1, 356670, Note_on_c, 0, 64, 89
1, 356730, Note_off_c, 0, 73, 64
1, 356774, Note_off_c, 0, 64, 64
1, 356780, Note_off_c, 0, 30, 64
1, 356792, Note_off_c, 0, 42, 64
1, 356792, Control_c, 0, 64, 127
1, 356818, Note_off_c, 0, 70, 64
1, 356858, Note_on_c, 0, 80, 95
1, 356944, Note_off_c, 0, 80, 64
1, 357042, Note_on_c, 0, 37, 69
1, 357042, Note_on_c, 0, 49, 74
1, 357152, Note_off_c, 0, 37, 64
1, 357160, Note_off_c, 0, 49, 64
1, 357336, Note_on_c, 0, 56, 75
1, 357346, Note_on_c, 0, 44, 75
1, 357446, Note_off_c, 0, 56, 64
1, 357462, Note_off_c, 0, 44, 64
1, 357584, Note_on_c, 0, 54, 80
1, 357586, Note_on_c, 0, 42, 72
1, 357612, Note_on_c, 0, 80, 95
1, 357626, Note_off_c, 0, 42, 64
1, 357626, Note_on_c, 0, 70, 62
1, 357626, Note_on_c, 0, 76, 75
1, 357632, Note_off_c, 0, 54, 64
1, 357730, Note_on_c, 0, 56, 78
1, 357736, Note_on_c, 0, 44, 74
1, 357780, Note_off_c, 0, 44, 64
1, 357788, Note_off_c, 0, 56, 64
1, 357868, Note_on_c, 0, 58, 71
1, 357882, Note_on_c, 0, 46, 72
1, 357986, Note_off_c, 0, 58, 64
1, 358020, Note_off_c, 0, 46, 64
1, 358152, Note_on_c, 0, 49, 78
1, 358152, Note_on_c, 0, 37, 88
1, 358212, Note_off_c, 0, 49, 64
1, 358270, Note_off_c, 0, 37, 64
1, 358438, Note_on_c, 0, 42, 90
1, 358441, Note_on_c, 0, 30, 91
1, 358466, Control_c, 0, 64, 0
1, 358554, Note_off_c, 0, 30, 64
1, 358584, Note_off_c, 0, 42, 64
1, 358590, Control_c, 0, 64, 127
1, 358608, Note_off_c, 0, 70, 64
1, 358650, Note_off_c, 0, 76, 64
1, 358718, Note_on_c, 0, 78, 86
1, 358718, Note_on_c, 0, 70, 72
1, 358728, Note_on_c, 0, 49, 69
1, 358730, Note_on_c, 0, 75, 65
1, 358738, Note_on_c, 0, 37, 67
1, 358768, Note_off_c, 0, 80, 64
1, 358780, Note_off_c, 0, 75, 64
1, 358794, Note_off_c, 0, 37, 64
1, 358812, Note_off_c, 0, 49, 64
1, 358836, Note_off_c, 0, 70, 64
1, 358850, Note_off_c, 0, 78, 64
1, 359060, Note_on_c, 0, 76, 88
1, 359062, Note_on_c, 0, 68, 76
1, 359078, Note_on_c, 0, 70, 63
1, 359081, Note_on_c, 0, 54, 73
1, 359084, Note_on_c, 0, 42, 66
1, 359128, Note_off_c, 0, 54, 64
1, 359134, Note_off_c, 0, 42, 64
1, 359168, Note_off_c, 0, 76, 64
1, 359182, Note_off_c, 0, 68, 64
1, 359202, Note_off_c, 0, 70, 64
1, 359362, Note_on_c, 0, 75, 87
1, 359370, Note_on_c, 0, 66, 79
1, 359380, Note_on_c, 0, 35, 89
1, 359380, Note_on_c, 0, 47, 72
1, 359388, Control_c, 0, 64, 0
1, 359392, Note_on_c, 0, 71, 54
1, 359444, Note_off_c, 0, 71, 64
1, 359458, Note_off_c, 0, 66, 64
1, 359460, Note_off_c, 0, 75, 64
1, 359502, Note_off_c, 0, 35, 64
1, 359510, Note_off_c, 0, 47, 64
1, 359512, Control_c, 0, 64, 127
1, 359524, Note_on_c, 0, 73, 80
1, 359536, Note_on_c, 0, 64, 80
1, 359576, Note_off_c, 0, 64, 64
1, 359634, Note_off_c, 0, 73, 64
1, 359676, Note_on_c, 0, 71, 96
1, 359676, Note_on_c, 0, 54, 81
1, 359682, Note_on_c, 0, 63, 84
1, 359688, Note_on_c, 0, 42, 67
1, 359706, Note_on_c, 0, 66, 40
1, 359742, Control_c, 0, 64, 0
1, 359816, Note_off_c, 0, 54, 64
1, 359836, Note_off_c, 0, 42, 64
1, 359850, Control_c, 0, 64, 127
1, 359856, Note_off_c, 0, 63, 64
1, 359856, Note_off_c, 0, 66, 64
1, 359896, Note_off_c, 0, 71, 64
1, 359946, Note_on_c, 0, 59, 89
1, 359954, Note_on_c, 0, 47, 75
1, 359986, Note_off_c, 0, 59, 64
1, 360092, Note_off_c, 0, 47, 64
1, 360168, Note_on_c, 0, 72, 88
1, 360174, Note_on_c, 0, 66, 72
1, 360234, Control_c, 0, 64, 0
1, 360280, Note_on_c, 0, 44, 91
1, 360286, Note_on_c, 0, 32, 81
1, 360310, Note_off_c, 0, 66, 64
1, 360344, Note_off_c, 0, 72, 64
1, 360372, Control_c, 0, 64, 127
1, 360418, Note_off_c, 0, 44, 64
1, 360418, Note_on_c, 0, 82, 92
1, 360428, Note_off_c, 0, 32, 64
1, 360510, Note_off_c, 0, 82, 64
1, 360646, Note_on_c, 0, 51, 84
1, 360652, Note_on_c, 0, 39, 73
1, 360710, Note_off_c, 0, 39, 64
1, 360750, Note_off_c, 0, 51, 64
1, 360924, Note_on_c, 0, 58, 80
1, 360932, Note_on_c, 0, 46, 79
1, 361032, Note_off_c, 0, 58, 64
1, 361056, Note_off_c, 0, 46, 64
1, 361164, Note_on_c, 0, 56, 80
1, 361172, Note_on_c, 0, 44, 81
1, 361174, Note_on_c, 0, 82, 96
1, 361190, Note_on_c, 0, 72, 81
1, 361192, Note_on_c, 0, 78, 78
1, 361214, Note_off_c, 0, 56, 64
1, 361216, Note_off_c, 0, 44, 64
1, 361302, Note_on_c, 0, 58, 71
1, 361314, Note_on_c, 0, 46, 69
1, 361364, Note_off_c, 0, 46, 64
1, 361370, Note_off_c, 0, 58, 64
1, 361456, Note_on_c, 0, 60, 92
1, 361462, Note_on_c, 0, 48, 79
1, 361558, Note_off_c, 0, 60, 64
1, 361626, Note_off_c, 0, 48, 64
1, 361752, Note_on_c, 0, 51, 86
1, 361756, Note_on_c, 0, 39, 90
1, 361864, Note_off_c, 0, 51, 64
1, 361908, Note_off_c, 0, 39, 64
1, 362022, Note_on_c, 0, 44, 97
1, 362025, Note_on_c, 0, 32, 87
1, 362062, Control_c, 0, 64, 0
1, 362084, Note_off_c, 0, 78, 64
1, 362116, Note_off_c, 0, 72, 64
1, 362152, Note_off_c, 0, 32, 64
1, 362155, Note_off_c, 0, 44, 64
1, 362186, Control_c, 0, 64, 127
1, 362274, Note_on_c, 0, 80, 92
1, 362282, Note_on_c, 0, 72, 84
1, 362296, Note_on_c, 0, 51, 73
1, 362306, Note_on_c, 0, 77, 48
1, 362306, Note_on_c, 0, 39, 68
1, 362324, Note_off_c, 0, 72, 64
1, 362327, Note_off_c, 0, 82, 64
1, 362352, Note_off_c, 0, 77, 64
1, 362352, Note_off_c, 0, 39, 64
1, 362390, Note_off_c, 0, 51, 64
1, 362400, Note_off_c, 0, 80, 64
1, 362562, Note_on_c, 0, 56, 78
1, 362568, Note_on_c, 0, 78, 94
1, 362568, Note_on_c, 0, 70, 73
1, 362568, Note_on_c, 0, 72, 80
1, 362571, Note_on_c, 0, 44, 82
1, 362612, Note_off_c, 0, 56, 64
1, 362628, Note_off_c, 0, 44, 64
1, 362688, Note_off_c, 0, 70, 64
1, 362688, Note_off_c, 0, 72, 64
1, 362724, Note_off_c, 0, 78, 64
1, 362846, Control_c, 0, 64, 0
1, 362854, Note_on_c, 0, 68, 93
1, 362856, Note_on_c, 0, 77, 95
1, 362858, Note_on_c, 0, 49, 84
1, 362862, Note_on_c, 0, 37, 80
1, 362866, Note_on_c, 0, 73, 62
1, 362910, Note_off_c, 0, 73, 64
1, 362913, Note_off_c, 0, 68, 64
1, 362958, Note_off_c, 0, 77, 64
1, 362982, Note_off_c, 0, 37, 64
1, 362985, Note_off_c, 0, 49, 64
1, 362998, Control_c, 0, 64, 127
1, 363016, Note_on_c, 0, 75, 86
1, 363026, Note_on_c, 0, 66, 69
1, 363108, Note_off_c, 0, 66, 64
1, 363146, Note_off_c, 0, 75, 64
1, 363152, Note_on_c, 0, 56, 69
1, 363178, Note_on_c, 0, 44, 49
1, 363181, Note_on_c, 0, 73, 88
1, 363186, Note_on_c, 0, 65, 77
1, 363196, Note_on_c, 0, 68, 65
1, 363230, Note_off_c, 0, 44, 64
1, 363238, Note_off_c, 0, 56, 64
1, 363248, Note_off_c, 0, 65, 64
1, 363248, Note_off_c, 0, 68, 64
1, 363324, Note_off_c, 0, 73, 64
1, 363418, Note_on_c, 0, 61, 83
1, 363422, Note_on_c, 0, 68, 97
1, 363432, Note_on_c, 0, 49, 70
1, 363432, Note_on_c, 0, 73, 59
1, 363454, Note_on_c, 0, 78, 14
1, 363457, Note_off_c, 0, 61, 64
1, 363457, Note_off_c, 0, 68, 64
1, 363474, Note_off_c, 0, 73, 64
1, 363482, Note_off_c, 0, 49, 64
1, 363510, Note_off_c, 0, 78, 64
1, 363530, Note_on_c, 0, 68, 56
1, 363540, Note_on_c, 0, 77, 91
1, 363632, Note_off_c, 0, 68, 64
1, 363674, Control_c, 0, 64, 0
1, 363676, Note_on_c, 0, 83, 119
1, 363682, Note_on_c, 0, 49, 93
1, 363690, Note_on_c, 0, 37, 94
1, 363778, Note_off_c, 0, 49, 64
1, 363784, Note_off_c, 0, 37, 64
1, 363828, Control_c, 0, 64, 127
1, 363952, Note_on_c, 0, 56, 84
1, 363970, Note_on_c, 0, 49, 72
1, 364018, Note_off_c, 0, 49, 64
1, 364064, Note_off_c, 0, 83, 64
1, 364094, Note_off_c, 0, 56, 64
1, 364206, Note_on_c, 0, 65, 83
1, 364210, Note_on_c, 0, 56, 74
1, 364212, Note_off_c, 0, 77, 64
1, 364240, Note_off_c, 0, 65, 64
1, 364284, Note_off_c, 0, 56, 64
1, 364316, Note_on_c, 0, 76, 88
1, 364319, Note_on_c, 0, 68, 79
1, 364390, Note_off_c, 0, 68, 64
1, 364510, Note_on_c, 0, 83, 119
1, 364526, Note_on_c, 0, 38, 101
1, 364526, Note_on_c, 0, 50, 104
1, 364536, Control_c, 0, 64, 0
1, 364664, Note_off_c, 0, 38, 64
1, 364706, Note_off_c, 0, 50, 64
1, 364706, Control_c, 0, 64, 127
1, 364828, Note_off_c, 0, 83, 64
1, 364830, Note_on_c, 0, 56, 78
1, 364840, Note_on_c, 0, 50, 76
1, 364900, Note_off_c, 0, 76, 64
1, 364944, Note_off_c, 0, 56, 64
1, 364946, Note_off_c, 0, 50, 64
1, 365050, Note_on_c, 0, 56, 69
1, 365052, Note_on_c, 0, 64, 84
1, 365094, Note_off_c, 0, 64, 64
1, 365128, Note_on_c, 0, 75, 92
1, 365134, Note_on_c, 0, 68, 77
1, 365158, Note_off_c, 0, 56, 64
1, 365228, Note_off_c, 0, 68, 64
1, 365334, Control_c, 0, 64, 0
1, 365340, Note_on_c, 0, 83, 123
1, 365366, Note_on_c, 0, 51, 101
1, 365368, Note_on_c, 0, 39, 96
1, 365480, Note_off_c, 0, 39, 64
1, 365482, Note_off_c, 0, 51, 64
1, 365518, Control_c, 0, 64, 127
1, 365544, Note_off_c, 0, 83, 64
1, 365594, Note_off_c, 0, 75, 64
1, 365642, Note_on_c, 0, 85, 93
1, 365658, Note_on_c, 0, 76, 83
1, 365718, Note_off_c, 0, 85, 64
1, 365768, Note_on_c, 0, 75, 87
1, 365768, Note_on_c, 0, 83, 118
1, 365782, Note_on_c, 0, 59, 72
1, 365785, Note_on_c, 0, 51, 67
1, 365822, Note_off_c, 0, 76, 64
1, 365890, Note_off_c, 0, 59, 64
1, 365936, Note_off_c, 0, 51, 64
1, 366030, Note_off_c, 0, 83, 64
1, 366046, Note_off_c, 0, 75, 64
1, 366056, Note_on_c, 0, 63, 86
1, 366076, Note_on_c, 0, 56, 69
1, 366080, Note_on_c, 0, 59, 65
1, 366134, Note_off_c, 0, 59, 64
1, 366148, Note_off_c, 0, 63, 64
1, 366188, Note_off_c, 0, 56, 64
1, 366202, Note_on_c, 0, 82, 90
1, 366212, Note_on_c, 0, 73, 83
1, 366248, Note_off_c, 0, 82, 64
1, 366248, Note_off_c, 0, 73, 64
1, 366348, Note_on_c, 0, 73, 68
1, 366352, Note_on_c, 0, 82, 94
1, 366362, Note_on_c, 0, 51, 87
1, 366364, Control_c, 0, 64, 0
1, 366370, Note_on_c, 0, 39, 84
1, 366418, Note_off_c, 0, 39, 64
1, 366462, Note_off_c, 0, 51, 64
1, 366502, Control_c, 0, 64, 127
1, 366512, Note_off_c, 0, 73, 64
1, 366542, Note_off_c, 0, 82, 64
1, 366608, Note_on_c, 0, 75, 60
1, 366632, Note_on_c, 0, 83, 98
1, 366668, Note_on_c, 0, 73, 78
1, 366672, Note_off_c, 0, 75, 64
1, 366676, Note_on_c, 0, 82, 85
1, 366686, Note_on_c, 0, 61, 72
1, 366698, Note_on_c, 0, 55, 72
1, 366698, Note_on_c, 0, 51, 66
1, 366748, Note_off_c, 0, 83, 64
1, 366774, Note_off_c, 0, 55, 64
1, 366784, Note_off_c, 0, 51, 64
1, 366790, Note_off_c, 0, 61, 64
1, 366802, Note_off_c, 0, 73, 64
1, 366822, Note_off_c, 0, 82, 64
1, 367006, Note_on_c, 0, 75, 92
1, 367018, Note_on_c, 0, 67, 80
1, 367020, Note_on_c, 0, 63, 75
1, 367030, Note_on_c, 0, 73, 52
1, 367036, Note_on_c, 0, 58, 62
1, 367039, Note_on_c, 0, 61, 67
1, 367058, Note_off_c, 0, 63, 64
1, 367082, Note_off_c, 0, 61, 64
1, 367085, Note_off_c, 0, 73, 64
1, 367088, Note_off_c, 0, 58, 64
1, 367136, Note_off_c, 0, 67, 64
1, 367382, Note_on_c, 0, 73, 86
1, 367384, Note_on_c, 0, 80, 98
1, 367386, Note_on_c, 0, 68, 88
1, 367386, Note_on_c, 0, 44, 93
1, 367386, Note_on_c, 0, 32, 90
1, 367408, Control_c, 0, 64, 0
1, 367418, Note_off_c, 0, 75, 64
1, 367504, Note_off_c, 0, 32, 64
1, 367510, Note_off_c, 0, 44, 64
1, 367546, Control_c, 0, 64, 127
1, 367570, Note_off_c, 0, 80, 64
1, 367618, Note_off_c, 0, 73, 64
1, 367708, Note_on_c, 0, 75, 83
1, 367730, Note_on_c, 0, 59, 76
1, 367730, Note_on_c, 0, 73, 76
1, 367730, Note_on_c, 0, 51, 71
1, 367782, Note_off_c, 0, 59, 64
1, 367790, Note_off_c, 0, 51, 64
1, 367832, Note_off_c, 0, 68, 64
1, 367874, Note_off_c, 0, 75, 64
1, 367944, Note_off_c, 0, 73, 64
1, 368012, Note_on_c, 0, 71, 103
1, 368012, Note_on_c, 0, 63, 78
1, 368032, Note_on_c, 0, 56, 62
1, 368044, Note_on_c, 0, 59, 59
1, 368050, Note_off_c, 0, 63, 64
1, 368086, Note_off_c, 0, 59, 64
1, 368122, Note_off_c, 0, 71, 64
1, 368156, Note_off_c, 0, 56, 64
1, 368284, Control_c, 0, 64, 0
1, 368300, Note_on_c, 0, 75, 87
1, 368302, Note_on_c, 0, 71, 97
1, 368305, Note_on_c, 0, 34, 96
1, 368308, Note_on_c, 0, 46, 87
1, 368308, Note_on_c, 0, 67, 89
1, 368346, Note_off_c, 0, 34, 64
1, 368380, Note_off_c, 0, 46, 64
1, 368438, Control_c, 0, 64, 127
1, 368464, Note_off_c, 0, 71, 64
1, 368560, Note_on_c, 0, 73, 73
1, 368580, Note_on_c, 0, 71, 92
1, 368600, Note_on_c, 0, 61, 73
1, 368600, Note_on_c, 0, 51, 76
1, 368644, Note_off_c, 0, 51, 64
1, 368646, Note_off_c, 0, 61, 64
1, 368726, Note_off_c, 0, 67, 64
1, 368744, Note_off_c, 0, 75, 64
1, 368790, Note_off_c, 0, 73, 64
1, 368838, Note_off_c, 0, 71, 64
1, 368860, Note_on_c, 0, 70, 84
1, 368860, Note_on_c, 0, 63, 81
1, 368868, Note_on_c, 0, 61, 72
1, 368870, Note_on_c, 0, 55, 74
1, 368898, Note_off_c, 0, 63, 64
1, 368914, Note_off_c, 0, 61, 64
1, 368950, Note_off_c, 0, 55, 64
1, 369010, Note_off_c, 0, 70, 64
1, 369144, Control_c, 0, 64, 0
1, 369156, Note_on_c, 0, 75, 92
1, 369158, Note_on_c, 0, 70, 72
1, 369161, Note_on_c, 0, 63, 94
1, 369164, Note_on_c, 0, 35, 110
1, 369169, Note_on_c, 0, 47, 95
1, 369194, Note_off_c, 0, 35, 64
1, 369244, Note_off_c, 0, 47, 64
1, 369298, Control_c, 0, 64, 127
1, 369400, Note_off_c, 0, 63, 64
1, 369478, Note_on_c, 0, 56, 70
1, 369484, Note_on_c, 0, 68, 86
1, 369484, Note_on_c, 0, 47, 66
1, 369492, Note_on_c, 0, 51, 62
1, 369494, Note_off_c, 0, 70, 64
1, 369534, Note_off_c, 0, 47, 64
1, 369548, Note_off_c, 0, 51, 64
1, 369588, Note_off_c, 0, 75, 64
1, 369594, Note_off_c, 0, 56, 64
1, 369602, Note_off_c, 0, 68, 64
1, 369790, Note_on_c, 0, 77, 104
1, 369790, Note_on_c, 0, 63, 90
1, 369814, Note_on_c, 0, 56, 57
1, 369820, Note_on_c, 0, 51, 50
1, 369830, Note_off_c, 0, 63, 64
1, 369866, Note_off_c, 0, 56, 64
1, 369908, Note_off_c, 0, 51, 64
1, 369918, Note_off_c, 0, 77, 64
1, 370174, Control_c, 0, 64, 0
1, 370176, Note_on_c, 0, 78, 92
1, 370178, Note_on_c, 0, 68, 92
1, 370190, Note_on_c, 0, 36, 103
1, 370193, Note_on_c, 0, 48, 91
1, 370286, Note_on_c, 0, 80, 76
1, 370306, Note_off_c, 0, 78, 64
1, 370314, Note_off_c, 0, 36, 64
1, 370328, Control_c, 0, 64, 127
1, 370366, Note_off_c, 0, 48, 64
1, 370378, Note_off_c, 0, 80, 64
1, 370384, Note_on_c, 0, 78, 58
1, 370450, Note_on_c, 0, 80, 75
1, 370464, Note_off_c, 0, 68, 64
1, 370520, Note_off_c, 0, 78, 64
1, 370546, Note_on_c, 0, 78, 41
1, 370596, Note_on_c, 0, 68, 63
1, 370596, Note_on_c, 0, 77, 91
1, 370608, Note_on_c, 0, 56, 78
1, 370616, Note_on_c, 0, 54, 81
1, 370622, Note_on_c, 0, 48, 66
1, 370624, Note_off_c, 0, 80, 64
1, 370684, Note_off_c, 0, 78, 64
1, 370690, Note_off_c, 0, 68, 64
1, 370718, Note_off_c, 0, 77, 64
1, 370786, Note_off_c, 0, 48, 64
1, 370816, Note_on_c, 0, 78, 97
1, 370822, Note_off_c, 0, 54, 64
1, 370826, Note_on_c, 0, 68, 78
1, 370834, Note_off_c, 0, 56, 64
1, 370900, Note_off_c, 0, 68, 64
1, 370954, Note_off_c, 0, 78, 64
1, 371052, Note_on_c, 0, 75, 92
1, 371062, Note_on_c, 0, 63, 88
1, 371064, Note_on_c, 0, 54, 86
1, 371066, Note_on_c, 0, 68, 67
1, 371072, Note_on_c, 0, 56, 55
1, 371098, Note_off_c, 0, 63, 64
1, 371120, Note_off_c, 0, 68, 64
1, 371124, Note_off_c, 0, 56, 64
1, 371132, Note_off_c, 0, 54, 64
1, 371202, Note_off_c, 0, 75, 64
1, 371318, Note_on_c, 0, 80, 96
1, 371334, Note_on_c, 0, 68, 80
1, 371400, Note_off_c, 0, 68, 64
1, 371434, Note_off_c, 0, 80, 64
1, 371706, Note_on_c, 0, 61, 90
1, 371708, Note_on_c, 0, 68, 87
1, 371714, Note_on_c, 0, 66, 73
1, 371716, Note_on_c, 0, 25, 100
1, 371718, Note_on_c, 0, 37, 100
1, 371758, Control_c, 0, 64, 0
1, 371874, Note_off_c, 0, 25, 64
1, 371904, Note_off_c, 0, 37, 64
1, 371926, Control_c, 0, 64, 127
1, 371952, Note_off_c, 0, 61, 64
1, 371966, Note_off_c, 0, 66, 64
1, 371974, Note_off_c, 0, 68, 64
1, 372158, Note_on_c, 0, 61, 89
1, 372162, Note_on_c, 0, 68, 68
1, 372162, Note_on_c, 0, 71, 98
1, 372164, Note_on_c, 0, 56, 72
1, 372168, Note_on_c, 0, 59, 78
1, 372168, Note_on_c, 0, 49, 76
1, 372182, Note_on_c, 0, 66, 57
1, 372260, Note_off_c, 0, 61, 64
1, 372274, Note_off_c, 0, 59, 64
1, 372277, Note_off_c, 0, 66, 64
1, 372284, Note_off_c, 0, 68, 64
1, 372292, Note_off_c, 0, 56, 64
1, 372312, Note_off_c, 0, 49, 64
1, 372318, Note_off_c, 0, 71, 64
1, 372554, Note_on_c, 0, 73, 81
1, 372554, Note_on_c, 0, 66, 68
1, 372554, Note_on_c, 0, 61, 84
1, 372554, Note_on_c, 0, 71, 91
1, 372566, Note_on_c, 0, 68, 59
1, 372570, Note_on_c, 0, 56, 61
1, 372570, Note_on_c, 0, 49, 58
1, 372670, Note_off_c, 0, 61, 64
1, 372672, Note_off_c, 0, 49, 64
1, 372698, Note_off_c, 0, 56, 64
1, 372702, Note_off_c, 0, 68, 64
1, 372704, Note_off_c, 0, 66, 64
1, 372724, Note_off_c, 0, 71, 64
1, 372802, Note_off_c, 0, 73, 64
1, 372882, Note_on_c, 0, 63, 87
1, 372884, Note_on_c, 0, 75, 90
1, 372884, Note_on_c, 0, 66, 78
1, 372888, Note_on_c, 0, 71, 83
1, 372890, Note_on_c, 0, 49, 64
1, 372900, Note_on_c, 0, 68, 64
1, 372902, Note_on_c, 0, 56, 60
1, 372932, Note_off_c, 0, 71, 64
1, 372935, Note_off_c, 0, 49, 64
1, 372942, Note_off_c, 0, 68, 64
1, 372948, Note_off_c, 0, 56, 64
1, 372970, Note_off_c, 0, 66, 64
1, 373002, Note_off_c, 0, 63, 64
1, 373014, Note_off_c, 0, 75, 64
1, 373178, Note_on_c, 0, 77, 90
1, 373180, Note_on_c, 0, 68, 82
1, 373188, Note_on_c, 0, 65, 76
1, 373192, Note_on_c, 0, 75, 62
1, 373194, Note_on_c, 0, 71, 83
1, 373200, Note_on_c, 0, 63, 71
1, 373200, Note_on_c, 0, 56, 53
1, 373226, Note_on_c, 0, 59, 44
1, 373240, Note_off_c, 0, 71, 64
1, 373262, Note_off_c, 0, 68, 64
1, 373282, Note_off_c, 0, 59, 64
1, 373284, Note_off_c, 0, 56, 64
1, 373288, Note_off_c, 0, 65, 64
1, 373302, Note_off_c, 0, 63, 64
1, 373318, Note_off_c, 0, 77, 64
1, 373332, Note_off_c, 0, 75, 64
1, 373458, Note_on_c, 0, 66, 75
1, 373458, Note_on_c, 0, 78, 89
1, 373462, Note_on_c, 0, 68, 87
1, 373470, Note_on_c, 0, 56, 57
1, 373470, Note_on_c, 0, 75, 62
1, 373473, Note_on_c, 0, 71, 71
1, 373476, Note_on_c, 0, 63, 51
1, 373480, Note_on_c, 0, 59, 48
1, 373514, Note_off_c, 0, 71, 64
1, 373520, Note_off_c, 0, 56, 64
1, 373524, Note_off_c, 0, 59, 64
1, 373528, Note_off_c, 0, 63, 64
1, 373544, Note_off_c, 0, 75, 64
1, 373568, Note_off_c, 0, 66, 64
1, 373582, Note_off_c, 0, 68, 64
1, 373604, Note_off_c, 0, 78, 64
1, 373742, Note_on_c, 0, 68, 75
1, 373746, Note_on_c, 0, 80, 94
1, 373754, Note_on_c, 0, 71, 93
1, 373757, Note_on_c, 0, 75, 78
1, 373760, Note_on_c, 0, 59, 52
1, 373772, Note_on_c, 0, 66, 47
1, 373778, Note_on_c, 0, 63, 65
1, 373822, Note_off_c, 0, 63, 64
1, 373830, Note_off_c, 0, 66, 64
1, 373834, Note_off_c, 0, 59, 64
1, 373852, Note_off_c, 0, 68, 64
1, 373852, Note_off_c, 0, 71, 64
1, 373874, Note_off_c, 0, 80, 64
1, 373876, Note_off_c, 0, 75, 64
1, 374036, Note_on_c, 0, 82, 92
1, 374038, Note_on_c, 0, 70, 83
1, 374040, Note_on_c, 0, 71, 100
1, 374046, Note_on_c, 0, 78, 77
1, 374050, Note_on_c, 0, 75, 68
1, 374052, Note_on_c, 0, 59, 64
1, 374068, Note_on_c, 0, 63, 67
1, 374072, Note_on_c, 0, 66, 47
1, 374096, Note_off_c, 0, 75, 64
1, 374100, Note_off_c, 0, 71, 64
1, 374100, Note_off_c, 0, 59, 64
1, 374110, Note_off_c, 0, 63, 64
1, 374116, Note_off_c, 0, 78, 64
1, 374122, Note_off_c, 0, 66, 64
1, 374170, Note_off_c, 0, 82, 64
1, 374178, Note_off_c, 0, 70, 64
1, 374346, Note_on_c, 0, 75, 85
1, 374346, Note_on_c, 0, 83, 114
1, 374349, Note_on_c, 0, 71, 102
1, 374352, Note_on_c, 0, 80, 83
1, 374358, Note_on_c, 0, 78, 76
1, 374362, Note_on_c, 0, 63, 77
1, 374368, Note_on_c, 0, 68, 65
1, 374372, Note_on_c, 0, 66, 57
1, 374418, Note_off_c, 0, 66, 64
1, 374420, Note_off_c, 0, 68, 64
1, 374430, Note_off_c, 0, 63, 64
1, 374436, Note_off_c, 0, 75, 64
1, 374464, Note_off_c, 0, 83, 64
1, 374476, Note_off_c, 0, 71, 64
1, 374484, Note_off_c, 0, 80, 64
1, 374496, Note_off_c, 0, 78, 64
1, 374700, Note_on_c, 0, 85, 95
1, 374702, Note_on_c, 0, 80, 90
1, 374702, Note_on_c, 0, 73, 87
1, 374706, Note_on_c, 0, 75, 90
1, 374706, Note_on_c, 0, 78, 76
1, 374724, Note_on_c, 0, 63, 62
1, 374726, Note_on_c, 0, 66, 59
1, 374728, Note_on_c, 0, 68, 64
1, 374788, Note_off_c, 0, 63, 64
1, 374796, Note_off_c, 0, 68, 64
1, 374808, Note_off_c, 0, 66, 64
1, 374840, Note_off_c, 0, 75, 64
1, 374850, Note_off_c, 0, 73, 64
1, 374864, Note_off_c, 0, 78, 64
1, 374867, Note_off_c, 0, 85, 64
1, 374882, Note_off_c, 0, 80, 64
1, 375122, Note_on_c, 0, 87, 95
1, 375128, Note_on_c, 0, 71, 96
1, 375130, Note_on_c, 0, 78, 83
1, 375132, Note_on_c, 0, 83, 107
1, 375134, Note_on_c, 0, 75, 86
1, 375134, Note_on_c, 0, 68, 69
1, 375134, Note_on_c, 0, 80, 81
1, 375140, Note_on_c, 0, 66, 61
1, 375184, Note_off_c, 0, 68, 64
1, 375186, Note_off_c, 0, 66, 64
1, 375196, Note_off_c, 0, 71, 64
1, 375300, Note_off_c, 0, 75, 64
1, 375552, Note_off_c, 0, 78, 64
1, 375590, Note_off_c, 0, 83, 64
1, 375650, Note_off_c, 0, 87, 64
1, 375662, Note_off_c, 0, 80, 64
1, 375982, Control_c, 0, 64, 0
1, 376306, Note_on_c, 0, 89, 105
1, 376308, Note_on_c, 0, 77, 108
1, 376310, Note_on_c, 0, 85, 95
1, 376312, Note_on_c, 0, 83, 115
1, 376314, Note_on_c, 0, 49, 103
1, 376320, Note_on_c, 0, 37, 95
1, 376474, Control_c, 0, 64, 127
1, 376554, Note_off_c, 0, 49, 64
1, 376602, Note_off_c, 0, 77, 64
1, 376622, Note_off_c, 0, 83, 64
1, 376654, Note_off_c, 0, 89, 64
1, 376686, Note_off_c, 0, 37, 64
1, 376718, Note_off_c, 0, 85, 64
1, 376780, Note_on_c, 0, 85, 90
1, 376782, Note_on_c, 0, 90, 103
1, 376785, Note_on_c, 0, 78, 105
1, 376788, Note_on_c, 0, 82, 89
1, 376794, Note_on_c, 0, 42, 97
1, 376798, Note_on_c, 0, 30, 103
1, 376828, Control_c, 0, 64, 0
1, 376942, Note_off_c, 0, 30, 64
1, 376976, Note_off_c, 0, 42, 64
1, 376996, Control_c, 0, 64, 127
1, 377046, Note_off_c, 0, 90, 64
1, 377084, Note_off_c, 0, 85, 64
1, 377092, Note_off_c, 0, 82, 64
1, 377136, Note_on_c, 0, 61, 102
1, 377138, Note_off_c, 0, 78, 64
1, 377142, Note_on_c, 0, 49, 89
1, 377284, Note_off_c, 0, 61, 64
1, 377284, Note_off_c, 0, 49, 64
1, 377407, Note_on_c, 0, 72, 100
1, 377407, Note_on_c, 0, 84, 105
1, 377410, Note_on_c, 0, 81, 85
1, 377422, Note_on_c, 0, 63, 93
1, 377430, Note_on_c, 0, 51, 84
1, 377488, Note_off_c, 0, 51, 64
1, 377524, Note_off_c, 0, 63, 64
1, 377574, Note_off_c, 0, 84, 64
1, 377584, Note_off_c, 0, 81, 64
1, 377592, Note_off_c, 0, 72, 64
1, 377656, Control_c, 0, 64, 0
1, 377678, Note_on_c, 0, 83, 112
1, 377680, Note_on_c, 0, 71, 108
1, 377684, Note_on_c, 0, 80, 86
1, 377686, Note_on_c, 0, 65, 85
1, 377698, Note_on_c, 0, 61, 71
1, 377701, Note_on_c, 0, 53, 86
1, 377706, Note_on_c, 0, 56, 55
1, 377780, Note_off_c, 0, 53, 64
1, 377794, Note_off_c, 0, 65, 64
1, 377812, Note_off_c, 0, 61, 64
1, 377826, Control_c, 0, 64, 127
1, 377838, Note_off_c, 0, 56, 64
1, 377884, Note_off_c, 0, 83, 64
1, 377924, Note_on_c, 0, 61, 86
1, 377926, Note_off_c, 0, 71, 64
1, 377930, Note_on_c, 0, 49, 83
1, 377950, Note_off_c, 0, 80, 64
1, 377968, Note_off_c, 0, 61, 64
1, 377971, Note_off_c, 0, 49, 64
1, 378142, Note_on_c, 0, 80, 94
1, 378142, Note_on_c, 0, 68, 96
1, 378145, Note_on_c, 0, 65, 78
1, 378145, Note_on_c, 0, 77, 89
1, 378158, Note_on_c, 0, 61, 65
1, 378162, Note_on_c, 0, 59, 61
1, 378180, Note_off_c, 0, 65, 64
1, 378206, Note_off_c, 0, 61, 64
1, 378209, Note_off_c, 0, 59, 64
1, 378266, Note_off_c, 0, 68, 64
1, 378284, Note_off_c, 0, 77, 64
1, 378304, Note_off_c, 0, 80, 64
1, 378348, Control_c, 0, 64, 0
1, 378374, Note_on_c, 0, 82, 90
1, 378380, Note_on_c, 0, 54, 88
1, 378380, Note_on_c, 0, 78, 81
1, 378382, Note_on_c, 0, 70, 87
1, 378384, Note_on_c, 0, 42, 83
1, 378484, Note_off_c, 0, 54, 64
1, 378484, Note_off_c, 0, 42, 64
1, 378518, Control_c, 0, 64, 127
1, 378604, Note_off_c, 0, 70, 64
1, 378606, Note_off_c, 0, 78, 64
1, 378612, Note_on_c, 0, 61, 90
1, 378632, Note_off_c, 0, 82, 64
1, 378638, Note_on_c, 0, 54, 72
1, 378650, Note_on_c, 0, 58, 43
1, 378716, Note_off_c, 0, 61, 64
1, 378722, Note_on_c, 0, 82, 9
1, 378725, Note_off_c, 0, 58, 64
1, 378770, Note_off_c, 0, 54, 64
1, 378776, Note_off_c, 0, 82, 64
1, 378828, Note_on_c, 0, 85, 97
1, 378834, Note_on_c, 0, 73, 97
1, 378834, Note_on_c, 0, 82, 77
1, 378844, Note_on_c, 0, 58, 67
1, 378846, Note_on_c, 0, 49, 70
1, 378848, Note_on_c, 0, 54, 57
1, 378892, Note_off_c, 0, 49, 64
1, 378898, Note_off_c, 0, 54, 64
1, 378912, Note_off_c, 0, 58, 64
1, 378966, Note_off_c, 0, 73, 64
1, 379002, Note_off_c, 0, 85, 64
1, 379020, Note_off_c, 0, 82, 64
1, 379112, Note_on_c, 0, 90, 99
1, 379114, Note_on_c, 0, 78, 92
1, 379120, Note_on_c, 0, 58, 54
1, 379120, Note_on_c, 0, 66, 55
1, 379120, Note_on_c, 0, 82, 65
1, 379146, Note_on_c, 0, 61, 53
1, 379204, Note_off_c, 0, 61, 64
1, 379256, Note_off_c, 0, 58, 64
1, 379278, Note_off_c, 0, 66, 64
1, 379364, Note_off_c, 0, 78, 64
1, 379376, Note_on_c, 0, 61, 68
1, 379384, Note_on_c, 0, 58, 43
1, 379384, Note_on_c, 0, 54, 76
1, 379398, Note_off_c, 0, 82, 64
1, 379458, Note_off_c, 0, 90, 64
1, 379494, Note_off_c, 0, 54, 64
1, 379496, Note_off_c, 0, 61, 64
1, 379506, Note_off_c, 0, 58, 64
1, 379626, Note_on_c, 0, 89, 97
1, 379629, Note_on_c, 0, 85, 81
1, 379634, Note_on_c, 0, 54, 86
1, 379636, Note_on_c, 0, 77, 89
1, 379638, Note_on_c, 0, 58, 58
1, 379662, Note_on_c, 0, 49, 41
1, 379676, Note_off_c, 0, 54, 64
1, 379686, Note_off_c, 0, 58, 64
1, 379720, Note_off_c, 0, 89, 64
1, 379730, Note_off_c, 0, 49, 64
1, 379738, Note_off_c, 0, 77, 64
1, 379776, Note_off_c, 0, 85, 64
1, 379854, Control_c, 0, 64, 0
1, 379874, Note_on_c, 0, 87, 92
1, 379874, Note_on_c, 0, 75, 98
1, 379877, Note_on_c, 0, 83, 105
1, 379890, Note_on_c, 0, 49, 81
1, 379890, Note_on_c, 0, 37, 87
1, 379926, Note_off_c, 0, 37, 64
1, 379942, Note_off_c, 0, 49, 64
1, 379996, Note_off_c, 0, 83, 64
1, 380022, Note_off_c, 0, 87, 64
1, 380022, Control_c, 0, 64, 127
1, 380030, Note_off_c, 0, 75, 64
1, 380102, Note_on_c, 0, 85, 85
1, 380102, Note_on_c, 0, 73, 88
1, 380112, Note_on_c, 0, 82, 65
1, 380122, Note_on_c, 0, 59, 66
1, 380130, Note_on_c, 0, 49, 59
1, 380164, Note_off_c, 0, 59, 64
1, 380178, Note_off_c, 0, 49, 64
1, 380198, Note_off_c, 0, 85, 64
1, 380210, Note_off_c, 0, 73, 64
1, 380220, Note_off_c, 0, 82, 64
1, 380314, Note_on_c, 0, 80, 84
1, 380316, Note_on_c, 0, 71, 101
1, 380316, Note_on_c, 0, 83, 111
1, 380320, Note_on_c, 0, 54, 68
1, 380348, Note_off_c, 0, 71, 64
1, 380358, Note_off_c, 0, 80, 64
1, 380358, Note_off_c, 0, 83, 64
1, 380364, Note_off_c, 0, 54, 64
1, 380566, Note_on_c, 0, 87, 91
1, 380568, Note_on_c, 0, 75, 90
1, 380572, Note_on_c, 0, 71, 94
1, 380574, Note_on_c, 0, 83, 105
1, 380584, Note_on_c, 0, 61, 69
1, 380594, Note_on_c, 0, 65, 44
1, 380624, Note_off_c, 0, 71, 64
1, 380663, Note_off_c, 0, 65, 64
1, 380690, Note_off_c, 0, 61, 64
1, 380708, Note_off_c, 0, 83, 64
1, 380730, Note_off_c, 0, 87, 64
1, 380784, Note_off_c, 0, 75, 64
1, 380787, Note_on_c, 0, 65, 62
1, 380792, Note_on_c, 0, 61, 49
1, 380802, Note_on_c, 0, 56, 70
1, 380840, Note_off_c, 0, 65, 64
1, 380872, Note_off_c, 0, 61, 64
1, 380916, Note_off_c, 0, 56, 64
1, 381008, Note_on_c, 0, 80, 86
1, 381008, Note_on_c, 0, 68, 85
1, 381018, Note_on_c, 0, 77, 76
1, 381030, Note_on_c, 0, 61, 59
1, 381036, Note_on_c, 0, 49, 73
1, 381074, Note_off_c, 0, 49, 64
1, 381082, Note_off_c, 0, 61, 64
1, 381130, Note_off_c, 0, 68, 64
1, 381144, Note_off_c, 0, 77, 64
1, 381180, Note_off_c, 0, 80, 64
1, 381234, Control_c, 0, 64, 0
1, 381242, Note_on_c, 0, 82, 88
1, 381246, Note_on_c, 0, 54, 88
1, 381250, Note_on_c, 0, 70, 81
1, 381250, Note_on_c, 0, 42, 76
1, 381250, Note_on_c, 0, 78, 78
1, 381344, Note_off_c, 0, 54, 64
1, 381344, Note_off_c, 0, 42, 64
1, 381390, Control_c, 0, 64, 127
1, 381480, Note_on_c, 0, 61, 88
1, 381493, Note_on_c, 0, 49, 73
1, 381506, Note_on_c, 0, 58, 50
1, 381540, Note_off_c, 0, 70, 64
1, 381552, Note_off_c, 0, 49, 64
1, 381568, Note_off_c, 0, 58, 64
1, 381594, Note_off_c, 0, 61, 64
1, 381636, Note_off_c, 0, 78, 64
1, 381662, Note_off_c, 0, 82, 64
1, 381716, Note_on_c, 0, 66, 81
1, 381728, Note_on_c, 0, 58, 61
1, 381731, Note_on_c, 0, 54, 70
1, 381750, Note_off_c, 0, 66, 64
1, 381776, Note_off_c, 0, 58, 64
1, 381802, Note_off_c, 0, 54, 64
1, 381928, Control_c, 0, 64, 0
1, 381954, Note_on_c, 0, 85, 99
1, 381956, Note_on_c, 0, 73, 92
1, 381962, Note_on_c, 0, 79, 97
1, 381966, Note_on_c, 0, 39, 95
1, 381968, Note_on_c, 0, 51, 86
1, 381998, Note_off_c, 0, 39, 64
1, 382014, Note_off_c, 0, 51, 64
1, 382098, Control_c, 0, 64, 127
1, 382204, Note_on_c, 0, 61, 73
1, 382206, Note_on_c, 0, 51, 78
1, 382220, Note_on_c, 0, 58, 41
1, 382252, Note_off_c, 0, 51, 64
1, 382286, Note_off_c, 0, 58, 64
1, 382302, Note_off_c, 0, 61, 64
1, 382442, Note_on_c, 0, 67, 83
1, 382444, Note_on_c, 0, 58, 61
1, 382448, Note_on_c, 0, 63, 76
1, 382480, Note_off_c, 0, 67, 64
1, 382488, Note_off_c, 0, 63, 64
1, 382560, Note_off_c, 0, 58, 64
1, 382600, Note_off_c, 0, 79, 64
1, 382702, Note_on_c, 0, 56, 88
1, 382702, Note_on_c, 0, 80, 83
1, 382708, Note_on_c, 0, 44, 92
1, 382712, Control_c, 0, 64, 0
1, 382864, Note_off_c, 0, 44, 64
1, 382866, Control_c, 0, 64, 127
1, 382870, Note_off_c, 0, 56, 64
1, 382960, Note_off_c, 0, 85, 64
1, 382966, Note_off_c, 0, 73, 64
1, 383010, Note_on_c, 0, 84, 103
1, 383012, Note_on_c, 0, 63, 84
1, 383018, Note_on_c, 0, 72, 78
1, 383032, Note_on_c, 0, 51, 65
1, 383078, Note_off_c, 0, 51, 64
1, 383092, Note_off_c, 0, 63, 64
1, 383104, Note_off_c, 0, 80, 64
1, 383190, Note_off_c, 0, 84, 64
1, 383246, Note_off_c, 0, 72, 64
1, 383250, Note_on_c, 0, 68, 79
1, 383270, Note_on_c, 0, 56, 53
1, 383284, Note_off_c, 0, 68, 64
1, 383352, Note_off_c, 0, 56, 64
1, 383386, Note_on_c, 0, 80, 83
1, 383390, Note_on_c, 0, 83, 100
1, 383390, Note_on_c, 0, 71, 97
1, 383418, Note_off_c, 0, 80, 64
1, 383420, Note_off_c, 0, 83, 64
1, 383424, Note_off_c, 0, 71, 64
1, 383464, Control_c, 0, 64, 0
1, 383466, Note_on_c, 0, 83, 111
1, 383472, Note_on_c, 0, 71, 97
1, 383476, Note_on_c, 0, 80, 67
1, 383486, Note_on_c, 0, 49, 81
1, 383489, Note_on_c, 0, 37, 90
1, 383590, Note_off_c, 0, 49, 64
1, 383600, Note_off_c, 0, 37, 64
1, 383618, Control_c, 0, 64, 127
1, 383628, Note_off_c, 0, 83, 64
1, 383680, Note_off_c, 0, 71, 64
1, 383726, Note_off_c, 0, 80, 64
1, 383766, Note_on_c, 0, 82, 87
1, 383766, Note_on_c, 0, 70, 88
1, 383768, Note_on_c, 0, 78, 72
1, 383786, Note_on_c, 0, 61, 81
1, 383786, Note_on_c, 0, 49, 73
1, 383832, Note_off_c, 0, 61, 64
1, 383844, Note_off_c, 0, 49, 64
1, 383912, Note_off_c, 0, 78, 64
1, 383922, Note_off_c, 0, 70, 64
1, 383935, Note_off_c, 0, 82, 64
1, 383996, Note_on_c, 0, 81, 97
1, 383998, Note_on_c, 0, 69, 91
1, 383998, Note_on_c, 0, 65, 72
1, 384006, Note_on_c, 0, 77, 81
1, 384008, Note_on_c, 0, 61, 58
1, 384020, Note_on_c, 0, 59, 54
1, 384034, Note_off_c, 0, 65, 64
1, 384056, Note_off_c, 0, 61, 64
1, 384064, Note_off_c, 0, 59, 64
1, 384078, Note_off_c, 0, 81, 64
1, 384106, Note_off_c, 0, 69, 64
1, 384138, Note_off_c, 0, 77, 64
1, 384186, Control_c, 0, 64, 0
1, 384210, Note_on_c, 0, 82, 94
1, 384213, Note_on_c, 0, 70, 98
1, 384213, Note_on_c, 0, 54, 91
1, 384220, Note_on_c, 0, 42, 85
1, 384220, Note_on_c, 0, 78, 84
1, 384288, Note_off_c, 0, 42, 64
1, 384312, Note_off_c, 0, 54, 64
1, 384342, Note_off_c, 0, 78, 64
1, 384342, Control_c, 0, 64, 127
1, 384345, Note_off_c, 0, 70, 64
1, 384372, Note_off_c, 0, 82, 64
1, 384442, Note_on_c, 0, 58, 78
1, 384444, Note_on_c, 0, 73, 98
1, 384444, Note_on_c, 0, 85, 97
1, 384447, Note_on_c, 0, 82, 65
1, 384462, Note_on_c, 0, 49, 61
1, 384512, Note_off_c, 0, 58, 64
1, 384532, Note_off_c, 0, 73, 64
1, 384568, Note_off_c, 0, 49, 64
1, 384572, Note_off_c, 0, 82, 64
1, 384576, Note_off_c, 0, 85, 64
1, 384670, Note_on_c, 0, 61, 76
1, 384680, Note_on_c, 0, 90, 103
1, 384680, Note_on_c, 0, 78, 96
1, 384683, Note_on_c, 0, 54, 64
1, 384690, Note_on_c, 0, 82, 81
1, 384702, Note_on_c, 0, 58, 30
1, 384730, Note_off_c, 0, 54, 64
1, 384740, Note_off_c, 0, 61, 64
1, 384766, Note_off_c, 0, 58, 64
1, 384792, Note_off_c, 0, 78, 64
1, 384796, Note_off_c, 0, 82, 64
1, 384826, Note_off_c, 0, 90, 64
1, 384992, Note_on_c, 0, 90, 103
1, 384998, Note_on_c, 0, 70, 79
1, 385000, Note_on_c, 0, 78, 96
1, 385004, Note_on_c, 0, 82, 86
1, 385018, Note_on_c, 0, 61, 55
1, 385038, Note_on_c, 0, 66, 34
1, 385056, Note_off_c, 0, 70, 64
1, 385080, Note_off_c, 0, 61, 64
1, 385100, Note_off_c, 0, 66, 64
1, 385286, Note_on_c, 0, 66, 69
1, 385300, Note_on_c, 0, 61, 58
1, 385300, Note_on_c, 0, 58, 52
1, 385320, Note_off_c, 0, 82, 64
1, 385366, Note_off_c, 0, 66, 64
1, 385366, Note_off_c, 0, 61, 64
1, 385382, Note_off_c, 0, 78, 64
1, 385406, Note_off_c, 0, 90, 64
1, 385408, Note_off_c, 0, 58, 64
1, 385542, Note_on_c, 0, 89, 101
1, 385548, Note_on_c, 0, 77, 101
1, 385550, Note_on_c, 0, 85, 81
1, 385552, Note_on_c, 0, 61, 72
1, 385556, Note_on_c, 0, 58, 58
1, 385582, Note_on_c, 0, 49, 36
1, 385594, Note_off_c, 0, 61, 64
1, 385604, Note_off_c, 0, 58, 64
1, 385652, Note_off_c, 0, 49, 64
1, 385690, Note_off_c, 0, 85, 64
1, 385706, Note_off_c, 0, 77, 64
1, 385716, Note_off_c, 0, 89, 64
1, 385770, Control_c, 0, 64, 0
1, 385796, Note_on_c, 0, 89, 87
1, 385804, Note_on_c, 0, 77, 89
1, 385808, Note_on_c, 0, 85, 78
1, 385810, Note_on_c, 0, 49, 81
1, 385812, Note_on_c, 0, 37, 88
1, 385850, Note_off_c, 0, 37, 64
1, 385854, Note_off_c, 0, 49, 64
1, 385856, Note_off_c, 0, 85, 64
1, 385884, Note_off_c, 0, 89, 64
1, 385908, Note_off_c, 0, 77, 64
1, 385922, Control_c, 0, 64, 127
1, 386042, Note_on_c, 0, 83, 103
1, 386042, Note_on_c, 0, 75, 89
1, 386042, Note_on_c, 0, 87, 87
1, 386058, Note_on_c, 0, 49, 73
1, 386058, Note_on_c, 0, 59, 64
1, 386100, Note_off_c, 0, 49, 64
1, 386100, Note_off_c, 0, 59, 64
1, 386140, Note_off_c, 0, 87, 64
1, 386164, Note_off_c, 0, 83, 64
1, 386166, Note_off_c, 0, 75, 64
1, 386260, Note_on_c, 0, 66, 61
1, 386264, Note_on_c, 0, 85, 88
1, 386266, Note_on_c, 0, 73, 89
1, 386272, Note_on_c, 0, 82, 67
1, 386292, Note_on_c, 0, 56, 49
1, 386350, Note_off_c, 0, 56, 64
1, 386386, Note_off_c, 0, 73, 64
1, 386392, Note_off_c, 0, 66, 64
1, 386434, Note_off_c, 0, 82, 64
1, 386454, Note_off_c, 0, 85, 64
1, 386516, Note_on_c, 0, 61, 69
1, 386519, Note_on_c, 0, 71, 77
1, 386522, Note_on_c, 0, 87, 84
1, 386528, Note_on_c, 0, 75, 76
1, 386532, Note_on_c, 0, 83, 96
1, 386538, Control_c, 0, 64, 0
1, 386624, Note_off_c, 0, 71, 64
1, 386676, Control_c, 0, 64, 127
1, 386686, Note_off_c, 0, 61, 64
1, 386738, Note_off_c, 0, 87, 64
1, 386738, Note_off_c, 0, 83, 64
1, 386792, Note_on_c, 0, 61, 33
1, 386796, Note_on_c, 0, 65, 59
1, 386804, Note_off_c, 0, 75, 64
1, 386814, Note_on_c, 0, 56, 57
1, 386840, Note_off_c, 0, 65, 64
1, 386872, Note_off_c, 0, 61, 64
1, 386904, Note_off_c, 0, 56, 64
1, 387042, Note_on_c, 0, 80, 79
1, 387048, Note_on_c, 0, 68, 69
1, 387056, Note_on_c, 0, 77, 65
1, 387062, Note_on_c, 0, 61, 57
1, 387076, Note_on_c, 0, 49, 54
1, 387112, Note_off_c, 0, 61, 64
1, 387124, Note_off_c, 0, 49, 64
1, 387182, Note_off_c, 0, 68, 64
1, 387202, Note_off_c, 0, 77, 64
1, 387240, Note_off_c, 0, 80, 64
1, 387306, Control_c, 0, 64, 0
1, 387308, Note_on_c, 0, 82, 75
1, 387318, Note_on_c, 0, 78, 65
1, 387318, Note_on_c, 0, 70, 63
1, 387324, Note_on_c, 0, 42, 59
1, 387324, Note_on_c, 0, 54, 59
1, 387394, Note_off_c, 0, 42, 64
1, 387426, Note_off_c, 0, 54, 64
1, 387476, Control_c, 0, 64, 127
1, 387572, Note_on_c, 0, 61, 57
1, 387580, Note_on_c, 0, 49, 55
1, 387604, Note_on_c, 0, 58, 25
1, 387676, Note_off_c, 0, 61, 64
1, 387676, Note_off_c, 0, 49, 64
1, 387676, Note_off_c, 0, 58, 64
1, 387846, Note_on_c, 0, 66, 61
1, 387872, Note_on_c, 0, 54, 40
1, 387880, Note_on_c, 0, 58, 29
1, 387890, Note_off_c, 0, 66, 64
1, 387940, Note_off_c, 0, 58, 64
1, 387950, Note_off_c, 0, 54, 64
1, 387966, Note_off_c, 0, 82, 64
1, 387969, Note_off_c, 0, 70, 64
1, 388042, Note_off_c, 0, 78, 64
1, 388244, Control_c, 0, 64, 0
1, 388244, Note_on_c, 0, 70, 61
1, 388244, Note_on_c, 0, 48, 55
1, 388247, Note_on_c, 0, 82, 65
1, 388254, Note_on_c, 0, 76, 51
1, 388264, Note_on_c, 0, 36, 25
1, 388404, Note_off_c, 0, 36, 64
1, 388428, Control_c, 0, 64, 127
1, 388434, Note_off_c, 0, 48, 64
1, 388630, Note_on_c, 0, 55, 49
1, 388642, Note_on_c, 0, 60, 28
1, 388650, Note_on_c, 0, 58, 22
1, 388718, Note_off_c, 0, 58, 64
1, 388736, Note_off_c, 0, 60, 64
1, 388746, Note_off_c, 0, 55, 64
1, 388890, Note_on_c, 0, 67, 48
1, 388894, Note_on_c, 0, 58, 37
1, 388924, Note_on_c, 0, 60, 26
1, 388950, Note_off_c, 0, 76, 64
1, 388952, Note_off_c, 0, 67, 64
1, 388954, Note_off_c, 0, 58, 64
1, 388996, Note_off_c, 0, 60, 64
1, 389104, Control_c, 0, 64, 0
1, 389130, Note_on_c, 0, 75, 64
1, 389136, Note_on_c, 0, 41, 85
1, 389140, Note_on_c, 0, 53, 84
1, 389244, Note_off_c, 0, 41, 64
1, 389278, Note_off_c, 0, 53, 64
1, 389288, Control_c, 0, 64, 127
1, 389392, Note_off_c, 0, 82, 64
1, 389420, Note_off_c, 0, 70, 64
1, 389478, Note_on_c, 0, 81, 91
1, 389482, Note_on_c, 0, 69, 73
1, 389488, Note_on_c, 0, 63, 53
1, 389502, Note_on_c, 0, 53, 65
1, 389560, Note_off_c, 0, 75, 64
1, 389564, Note_off_c, 0, 53, 64
1, 389604, Note_off_c, 0, 69, 64
1, 389607, Note_off_c, 0, 81, 64
1, 389607, Note_off_c, 0, 63, 64
1, 389726, Note_on_c, 0, 85, 97
1, 389730, Note_on_c, 0, 57, 58
1, 389730, Note_on_c, 0, 73, 85
1, 389738, Note_on_c, 0, 65, 54
1, 389802, Note_off_c, 0, 65, 64
1, 389840, Note_off_c, 0, 57, 64
1, 389844, Note_off_c, 0, 73, 64
1, 389884, Note_off_c, 0, 85, 64
1, 389952, Note_on_c, 0, 69, 59
1, 389964, Note_on_c, 0, 63, 65
1, 389972, Note_on_c, 0, 85, 81
1, 389980, Note_on_c, 0, 73, 77
1, 389986, Note_on_c, 0, 77, 74
1, 390050, Note_off_c, 0, 69, 64
1, 390152, Note_off_c, 0, 63, 64
1, 390206, Note_off_c, 0, 77, 64
1, 390238, Note_on_c, 0, 57, 63
1, 390244, Note_off_c, 0, 73, 64
1, 390244, Note_on_c, 0, 65, 57
1, 390250, Note_off_c, 0, 85, 64
1, 390306, Note_off_c, 0, 65, 64
1, 390390, Note_off_c, 0, 57, 64
1, 390442, Note_on_c, 0, 84, 103
1, 390444, Note_on_c, 0, 72, 83
1, 390446, Note_on_c, 0, 75, 75
1, 390454, Note_on_c, 0, 63, 73
1, 390462, Note_on_c, 0, 53, 84
1, 390490, Note_off_c, 0, 63, 64
1, 390512, Note_off_c, 0, 53, 64
1, 390520, Note_off_c, 0, 84, 64
1, 390560, Note_off_c, 0, 72, 64
1, 390563, Note_off_c, 0, 75, 64
1, 390778, Control_c, 0, 64, 0
1, 390784, Note_on_c, 0, 82, 92
1, 390786, Note_on_c, 0, 46, 81
1, 390789, Note_on_c, 0, 70, 84
1, 390789, Note_on_c, 0, 34, 86
1, 390792, Note_on_c, 0, 73, 76
1, 390830, Note_off_c, 0, 34, 64
1, 390850, Note_off_c, 0, 46, 64
1, 390932, Control_c, 0, 64, 127
1, 390960, Note_off_c, 0, 73, 64
1, 390990, Note_off_c, 0, 70, 64
1, 391016, Note_off_c, 0, 82, 64
1, 391104, Note_on_c, 0, 84, 105
1, 391108, Note_on_c, 0, 72, 90
1, 391108, Note_on_c, 0, 75, 84
1, 391118, Note_on_c, 0, 61, 73
1, 391130, Note_on_c, 0, 53, 83
1, 391196, Note_off_c, 0, 53, 64
1, 391226, Note_off_c, 0, 72, 64
1, 391226, Note_off_c, 0, 61, 64
1, 391234, Note_off_c, 0, 84, 64
1, 391274, Note_off_c, 0, 75, 64
1, 391348, Note_on_c, 0, 65, 61
1, 391348, Note_on_c, 0, 58, 65
1, 391348, Note_on_c, 0, 77, 86
1, 391351, Note_on_c, 0, 61, 55
1, 391351, Note_on_c, 0, 85, 97
1, 391356, Note_on_c, 0, 73, 85
1, 391390, Note_off_c, 0, 65, 64
1, 391398, Note_off_c, 0, 61, 64
1, 391406, Note_off_c, 0, 58, 64
1, 391516, Note_off_c, 0, 73, 64
1, 391536, Note_off_c, 0, 85, 64
1, 391588, Note_off_c, 0, 77, 64
1, 391624, Control_c, 0, 64, 0
1, 391652, Note_on_c, 0, 33, 96
1, 391654, Note_on_c, 0, 73, 92
1, 391656, Note_on_c, 0, 85, 95
1, 391658, Note_on_c, 0, 45, 88
1, 391662, Note_on_c, 0, 79, 94
1, 391688, Note_off_c, 0, 33, 64
1, 391712, Note_off_c, 0, 45, 64
1, 391794, Control_c, 0, 64, 127
1, 391944, Note_on_c, 0, 51, 84
1, 391946, Note_on_c, 0, 61, 78
1, 392038, Note_off_c, 0, 61, 64
1, 392044, Note_off_c, 0, 51, 64
1, 392172, Note_on_c, 0, 67, 87
1, 392176, Note_on_c, 0, 55, 80
1, 392180, Note_on_c, 0, 61, 75
1, 392184, Note_off_c, 0, 79, 64
1, 392210, Note_off_c, 0, 67, 64
1, 392220, Note_off_c, 0, 61, 64
1, 392282, Note_off_c, 0, 55, 64
1, 392392, Control_c, 0, 64, 0
1, 392404, Note_on_c, 0, 80, 81
1, 392409, Note_on_c, 0, 78, 72
1, 392414, Note_on_c, 0, 32, 97
1, 392420, Note_on_c, 0, 44, 90
1, 392446, Note_off_c, 0, 32, 64
1, 392472, Note_off_c, 0, 44, 64
1, 392530, Control_c, 0, 64, 127
1, 392610, Note_off_c, 0, 73, 64
1, 392610, Note_off_c, 0, 85, 64
1, 392662, Note_on_c, 0, 84, 101
1, 392668, Note_on_c, 0, 72, 88
1, 392670, Note_on_c, 0, 51, 84
1, 392674, Note_on_c, 0, 63, 75
1, 392710, Note_off_c, 0, 51, 64
1, 392716, Note_off_c, 0, 63, 64
1, 392752, Note_off_c, 0, 78, 64
1, 392802, Note_off_c, 0, 72, 64
1, 392806, Note_off_c, 0, 84, 64
1, 392910, Note_on_c, 0, 85, 95
1, 392912, Note_on_c, 0, 73, 98
1, 392914, Note_on_c, 0, 66, 78
1, 392922, Note_on_c, 0, 78, 76
1, 392940, Note_on_c, 0, 54, 49
1, 392952, Note_off_c, 0, 66, 64
1, 392976, Note_off_c, 0, 80, 64
1, 392996, Note_off_c, 0, 54, 64
1, 393010, Note_off_c, 0, 73, 64
1, 393032, Note_off_c, 0, 78, 64
1, 393048, Note_off_c, 0, 85, 64
1, 393138, Note_on_c, 0, 87, 94
1, 393140, Note_on_c, 0, 72, 93
1, 393142, Note_on_c, 0, 75, 89
1, 393144, Note_on_c, 0, 63, 82
1, 393148, Note_on_c, 0, 78, 72
1, 393148, Note_on_c, 0, 66, 64
1, 393178, Note_off_c, 0, 72, 64
1, 393200, Note_off_c, 0, 66, 64
1, 393238, Note_off_c, 0, 63, 64
1, 393250, Note_off_c, 0, 75, 64
1, 393256, Note_off_c, 0, 78, 64
1, 393308, Note_off_c, 0, 87, 64
1, 393374, Note_on_c, 0, 89, 107
1, 393380, Note_on_c, 0, 63, 83
1, 393380, Note_on_c, 0, 80, 88
1, 393382, Note_on_c, 0, 77, 92
1, 393384, Note_on_c, 0, 66, 62
1, 393404, Note_on_c, 0, 56, 48
1, 393426, Note_off_c, 0, 63, 64
1, 393426, Note_off_c, 0, 66, 64
1, 393470, Note_off_c, 0, 56, 64
1, 393488, Note_off_c, 0, 77, 64
1, 393532, Note_off_c, 0, 89, 64
1, 393532, Note_off_c, 0, 80, 64
1, 393646, Note_on_c, 0, 90, 100
1, 393649, Note_on_c, 0, 78, 97
1, 393654, Note_on_c, 0, 82, 81
1, 393658, Note_on_c, 0, 60, 60
1, 393674, Note_on_c, 0, 51, 36
1, 393678, Note_on_c, 0, 54, 32
1, 393712, Note_off_c, 0, 60, 64
1, 393744, Note_off_c, 0, 51, 64
1, 393748, Note_off_c, 0, 54, 64
1, 393892, Note_off_c, 0, 82, 64
1, 393932, Note_on_c, 0, 87, 80
1, 393932, Note_on_c, 0, 49, 100
1, 393932, Note_on_c, 0, 37, 100
1, 393944, Control_c, 0, 64, 0
1, 394076, Note_off_c, 0, 37, 64
1, 394104, Note_off_c, 0, 49, 64
1, 394128, Control_c, 0, 64, 127
1, 394180, Note_off_c, 0, 90, 64
1, 394194, Note_off_c, 0, 78, 64
1, 394246, Note_on_c, 0, 89, 96
1, 394248, Note_on_c, 0, 85, 75
1, 394252, Note_off_c, 0, 87, 64
1, 394252, Note_on_c, 0, 61, 86
1, 394252, Note_on_c, 0, 77, 90
1, 394260, Note_on_c, 0, 53, 95
1, 394334, Note_off_c, 0, 53, 64
1, 394339, Note_off_c, 0, 61, 64
1, 394390, Note_off_c, 0, 77, 64
1, 394400, Note_off_c, 0, 89, 64
1, 394466, Note_off_c, 0, 85, 64
1, 394504, Note_on_c, 0, 78, 98
1, 394506, Note_on_c, 0, 90, 90
1, 394506, Note_on_c, 0, 56, 76
1, 394508, Note_on_c, 0, 65, 60
1, 394516, Note_on_c, 0, 87, 75
1, 394520, Note_on_c, 0, 61, 52
1, 394552, Note_off_c, 0, 65, 64
1, 394572, Note_off_c, 0, 61, 64
1, 394586, Note_off_c, 0, 56, 64
1, 394650, Note_off_c, 0, 78, 64
1, 394662, Note_off_c, 0, 90, 64
1, 394690, Note_off_c, 0, 87, 64
1, 394712, Control_c, 0, 64, 0
1, 394732, Note_on_c, 0, 89, 97
1, 394734, Note_on_c, 0, 51, 98
1, 394736, Note_on_c, 0, 77, 94
1, 394738, Note_on_c, 0, 85, 78
1, 394738, Note_on_c, 0, 39, 98
1, 394826, Note_off_c, 0, 51, 64
1, 394829, Note_off_c, 0, 39, 64
1, 394862, Note_off_c, 0, 89, 64
1, 394876, Note_off_c, 0, 77, 64
1, 394880, Control_c, 0, 64, 127
1, 394918, Note_off_c, 0, 85, 64
1, 394988, Note_on_c, 0, 83, 98
1, 394988, Note_on_c, 0, 51, 76
1, 394990, Note_on_c, 0, 87, 81
1, 394992, Note_on_c, 0, 75, 90
1, 395010, Note_on_c, 0, 59, 55
1, 395092, Note_off_c, 0, 59, 64
1, 395100, Note_off_c, 0, 83, 64
1, 395106, Note_off_c, 0, 75, 64
1, 395112, Note_off_c, 0, 51, 64
1, 395130, Note_off_c, 0, 87, 64
1, 395200, Note_on_c, 0, 89, 97
1, 395200, Note_on_c, 0, 66, 67
1, 395203, Note_on_c, 0, 85, 81
1, 395208, Note_on_c, 0, 77, 87
1, 395210, Note_on_c, 0, 59, 52
1, 395214, Note_on_c, 0, 54, 70
1, 395240, Note_off_c, 0, 66, 64
1, 395254, Note_off_c, 0, 59, 64
1, 395286, Note_off_c, 0, 77, 64
1, 395286, Note_off_c, 0, 54, 64
1, 395318, Note_off_c, 0, 89, 64
1, 395380, Note_off_c, 0, 85, 64
1, 395420, Control_c, 0, 64, 0
1, 395434, Note_on_c, 0, 41, 105
1, 395436, Note_on_c, 0, 53, 112
1, 395440, Note_on_c, 0, 75, 97
1, 395440, Note_on_c, 0, 83, 108
1, 395440, Note_on_c, 0, 87, 90
1, 395544, Note_off_c, 0, 53, 64
1, 395556, Note_off_c, 0, 41, 64
1, 395572, Control_c, 0, 64, 127
1, 395612, Note_off_c, 0, 83, 64
1, 395614, Note_off_c, 0, 87, 64
1, 395626, Note_off_c, 0, 75, 64
1, 395694, Note_on_c, 0, 85, 90
1, 395698, Note_on_c, 0, 73, 91
1, 395706, Note_on_c, 0, 61, 85
1, 395710, Note_on_c, 0, 82, 72
1, 395712, Note_on_c, 0, 49, 75
1, 395748, Note_off_c, 0, 61, 64
1, 395756, Note_off_c, 0, 49, 64
1, 395832, Note_off_c, 0, 82, 64
1, 395844, Note_off_c, 0, 85, 64
1, 395846, Note_off_c, 0, 73, 64
1, 395902, Note_on_c, 0, 84, 100
1, 395904, Note_on_c, 0, 72, 92
1, 395912, Note_on_c, 0, 81, 76
1, 395926, Note_on_c, 0, 56, 72
1, 395926, Note_on_c, 0, 65, 75
1, 395972, Note_off_c, 0, 65, 64
1, 396026, Note_off_c, 0, 72, 64
1, 396032, Note_off_c, 0, 84, 64
1, 396036, Note_off_c, 0, 81, 64
1, 396136, Note_on_c, 0, 68, 83
1, 396144, Note_on_c, 0, 83, 110
1, 396148, Note_on_c, 0, 80, 82
1, 396150, Note_on_c, 0, 71, 101
1, 396162, Note_on_c, 0, 59, 63
1, 396168, Note_on_c, 0, 61, 64
1, 396228, Note_off_c, 0, 56, 64
1, 396238, Note_off_c, 0, 68, 64
1, 396288, Note_off_c, 0, 80, 64
1, 396288, Note_off_c, 0, 59, 64
1, 396288, Note_off_c, 0, 61, 64
1, 396316, Note_off_c, 0, 83, 64
1, 396346, Note_off_c, 0, 71, 64
1, 396364, Note_on_c, 0, 65, 76
1, 396367, Note_on_c, 0, 56, 76
1, 396386, Note_on_c, 0, 61, 56
1, 396389, Note_on_c, 0, 59, 24
1, 396400, Note_off_c, 0, 65, 64
1, 396436, Note_off_c, 0, 61, 64
1, 396458, Note_off_c, 0, 59, 64
1, 396476, Note_off_c, 0, 56, 64
1, 396562, Note_on_c, 0, 68, 89
1, 396565, Note_on_c, 0, 80, 88
1, 396572, Note_on_c, 0, 77, 76
1, 396580, Note_on_c, 0, 49, 88
1, 396582, Note_on_c, 0, 37, 91
1, 396616, Note_off_c, 0, 37, 64
1, 396626, Note_off_c, 0, 49, 64
1, 396686, Note_off_c, 0, 77, 64
1, 396698, Note_off_c, 0, 68, 64
1, 396734, Note_off_c, 0, 80, 64
1, 396772, Control_c, 0, 64, 0
1, 396788, Note_on_c, 0, 54, 97
1, 396798, Note_on_c, 0, 82, 92
1, 396798, Note_on_c, 0, 42, 86
1, 396801, Note_on_c, 0, 70, 86
1, 396806, Note_on_c, 0, 78, 79
1, 396900, Note_off_c, 0, 54, 64
1, 396906, Note_off_c, 0, 42, 64
1, 396940, Control_c, 0, 64, 127
1, 396994, Note_off_c, 0, 70, 64
1, 396998, Note_off_c, 0, 78, 64
1, 397022, Note_on_c, 0, 61, 97
1, 397030, Note_off_c, 0, 82, 64
1, 397033, Note_on_c, 0, 49, 86
1, 397074, Note_off_c, 0, 49, 64
1, 397128, Note_off_c, 0, 61, 64
1, 397226, Note_on_c, 0, 70, 88
1, 397232, Note_on_c, 0, 85, 97
1, 397236, Note_on_c, 0, 73, 98
1, 397236, Note_on_c, 0, 82, 76
1, 397239, Note_on_c, 0, 58, 62
1, 397252, Note_on_c, 0, 61, 55
1, 397262, Note_off_c, 0, 70, 64
1, 397300, Note_off_c, 0, 61, 64
1, 397314, Note_off_c, 0, 73, 64
1, 397320, Note_off_c, 0, 58, 64
1, 397376, Note_off_c, 0, 85, 64
1, 397396, Note_off_c, 0, 82, 64
1, 397454, Note_on_c, 0, 90, 103
1, 397458, Note_on_c, 0, 78, 99
1, 397460, Note_on_c, 0, 82, 78
1, 397462, Control_c, 0, 64, 0
1, 397474, Note_on_c, 0, 39, 97
1, 397474, Note_on_c, 0, 51, 91
1, 397520, Note_off_c, 0, 39, 64
1, 397568, Note_off_c, 0, 51, 64
1, 397600, Control_c, 0, 64, 127
1, 397702, Note_on_c, 0, 54, 96
1, 397708, Note_on_c, 0, 63, 97
1, 397758, Note_off_c, 0, 78, 64
1, 397758, Note_off_c, 0, 63, 64
1, 397812, Note_off_c, 0, 90, 64
1, 397812, Note_off_c, 0, 54, 64
1, 397850, Note_off_c, 0, 82, 64
1, 397890, Note_on_c, 0, 89, 103
1, 397898, Note_on_c, 0, 85, 84
1, 397898, Note_on_c, 0, 77, 95
1, 397901, Note_on_c, 0, 66, 77
1, 397910, Note_on_c, 0, 58, 68
1, 397913, Note_on_c, 0, 63, 62
1, 397936, Note_on_c, 0, 79, 44
1, 397938, Note_off_c, 0, 66, 64
1, 397956, Note_off_c, 0, 63, 64
1, 397988, Note_off_c, 0, 58, 64
1, 397996, Note_off_c, 0, 79, 64
1, 398032, Note_off_c, 0, 77, 64
1, 398034, Note_off_c, 0, 85, 64
1, 398044, Note_off_c, 0, 89, 64
1, 398108, Control_c, 0, 64, 0
1, 398114, Note_on_c, 0, 89, 89
1, 398116, Note_on_c, 0, 85, 78
1, 398116, Note_on_c, 0, 77, 97
1, 398118, Note_on_c, 0, 56, 92
1, 398120, Note_on_c, 0, 44, 99
1, 398228, Note_off_c, 0, 56, 64
1, 398238, Note_off_c, 0, 44, 64
1, 398246, Control_c, 0, 64, 127
1, 398252, Note_off_c, 0, 89, 64
1, 398268, Note_off_c, 0, 77, 64
1, 398306, Note_off_c, 0, 85, 64
1, 398352, Note_on_c, 0, 83, 106
1, 398352, Note_on_c, 0, 87, 86
1, 398355, Note_on_c, 0, 75, 95
1, 398358, Note_on_c, 0, 51, 87
1, 398364, Note_on_c, 0, 59, 64
1, 398458, Note_off_c, 0, 87, 64
1, 398461, Note_off_c, 0, 51, 64
1, 398470, Note_off_c, 0, 75, 64
1, 398480, Note_off_c, 0, 83, 64
1, 398488, Note_off_c, 0, 59, 64
1, 398532, Note_on_c, 0, 66, 81
1, 398548, Note_on_c, 0, 73, 97
1, 398548, Note_on_c, 0, 85, 90
1, 398556, Note_on_c, 0, 82, 73
1, 398558, Note_on_c, 0, 56, 67
1, 398562, Note_on_c, 0, 59, 71
1, 398572, Note_off_c, 0, 66, 64
1, 398600, Note_off_c, 0, 59, 64
1, 398626, Note_off_c, 0, 56, 64
1, 398680, Note_off_c, 0, 73, 64
1, 398718, Note_off_c, 0, 85, 64
1, 398754, Control_c, 0, 64, 0
1, 398757, Note_off_c, 0, 82, 64
1, 398776, Note_on_c, 0, 49, 98
1, 398776, Note_on_c, 0, 75, 98
1, 398776, Note_on_c, 0, 87, 94
1, 398779, Note_on_c, 0, 37, 103
1, 398784, Note_on_c, 0, 83, 103
1, 398840, Note_off_c, 0, 37, 64
1, 398856, Note_off_c, 0, 49, 64
1, 398906, Control_c, 0, 64, 127
1, 398940, Note_off_c, 0, 83, 64
1, 398944, Note_off_c, 0, 87, 64
1, 398990, Note_off_c, 0, 75, 64
1, 399008, Note_on_c, 0, 49, 92
1, 399016, Note_on_c, 0, 59, 85
1, 399064, Note_off_c, 0, 59, 64
1, 399067, Note_off_c, 0, 49, 64
1, 399072, Note_on_c, 0, 75, 22
1, 399164, Note_off_c, 0, 75, 64
1, 399232, Note_on_c, 0, 80, 95
1, 399235, Note_on_c, 0, 68, 94
1, 399235, Note_on_c, 0, 77, 89
1, 399240, Note_on_c, 0, 65, 93
1, 399244, Note_on_c, 0, 56, 75
1, 399254, Note_on_c, 0, 59, 72
1, 399272, Note_off_c, 0, 65, 64
1, 399296, Note_off_c, 0, 59, 64
1, 399352, Note_off_c, 0, 56, 64
1, 399436, Note_off_c, 0, 68, 64
1, 399460, Note_off_c, 0, 77, 64
1, 399518, Note_off_c, 0, 80, 64
1, 399590, Note_on_c, 0, 82, 97
1, 399594, Note_on_c, 0, 70, 95
1, 399596, Note_on_c, 0, 40, 118
1, 399596, Note_on_c, 0, 52, 111
1, 399598, Note_on_c, 0, 78, 87
1, 399600, Control_c, 0, 64, 0
1, 399734, Note_off_c, 0, 40, 64
1, 399768, Note_off_c, 0, 52, 64
1, 399768, Control_c, 0, 64, 127
1, 399906, Note_on_c, 0, 52, 97
1, 399909, Note_on_c, 0, 61, 86
1, 399922, Note_on_c, 0, 54, 86
1, 399972, Note_off_c, 0, 52, 64
1, 400034, Note_off_c, 0, 54, 64
1, 400048, Note_off_c, 0, 61, 64
1, 400144, Note_off_c, 0, 70, 64
1, 400147, Note_on_c, 0, 66, 88
1, 400156, Note_on_c, 0, 54, 81
1, 400159, Note_off_c, 0, 78, 64
1, 400172, Note_on_c, 0, 61, 51
1, 400202, Note_off_c, 0, 82, 64
1, 400270, Note_off_c, 0, 66, 64
1, 400279, Note_off_c, 0, 61, 64
1, 400320, Note_off_c, 0, 54, 64
1, 400384, Note_on_c, 0, 73, 98
1, 400384, Note_on_c, 0, 85, 99
1, 400392, Note_on_c, 0, 61, 91
1, 400395, Note_on_c, 0, 55, 74
1, 400398, Note_on_c, 0, 79, 100
1, 400402, Note_on_c, 0, 52, 95
1, 400458, Control_c, 0, 64, 0
1, 400558, Note_off_c, 0, 52, 64
1, 400590, Note_off_c, 0, 55, 64
1, 400590, Control_c, 0, 64, 127
1, 400602, Note_off_c, 0, 61, 64
1, 400656, Note_on_c, 0, 67, 80
1, 400662, Note_on_c, 0, 57, 74
1, 400678, Note_on_c, 0, 65, 74
1, 400681, Note_on_c, 0, 61, 69
1, 400718, Note_off_c, 0, 65, 64
1, 400730, Note_off_c, 0, 61, 64
1, 400732, Note_off_c, 0, 67, 64
1, 400786, Note_off_c, 0, 57, 64
1, 400854, Note_on_c, 0, 57, 66
1, 400866, Note_on_c, 0, 61, 86
1, 400882, Note_on_c, 0, 52, 90
1, 400910, Note_off_c, 0, 61, 64
1, 400934, Note_off_c, 0, 52, 64
1, 400942, Note_off_c, 0, 57, 64
1, 401074, Control_c, 0, 64, 0
1, 401094, Note_on_c, 0, 39, 101
1, 401096, Note_on_c, 0, 51, 105
1, 401194, Note_off_c, 0, 39, 64
1, 401212, Note_off_c, 0, 51, 64
1, 401212, Control_c, 0, 64, 127
1, 401220, Note_off_c, 0, 79, 64
1, 401298, Note_off_c, 0, 85, 64
1, 401306, Note_off_c, 0, 73, 64
1, 401358, Note_on_c, 0, 51, 85
1, 401361, Note_on_c, 0, 84, 108
1, 401361, Note_on_c, 0, 61, 95
1, 401364, Note_on_c, 0, 72, 101
1, 401366, Note_on_c, 0, 79, 93
1, 401470, Note_off_c, 0, 51, 64
1, 401512, Note_off_c, 0, 79, 64
1, 401515, Note_off_c, 0, 61, 64
1, 401568, Note_off_c, 0, 84, 64
1, 401648, Note_off_c, 0, 72, 64
1, 401684, Note_on_c, 0, 67, 96
1, 401692, Note_on_c, 0, 55, 81
1, 401694, Note_on_c, 0, 58, 68
1, 401708, Note_on_c, 0, 61, 72
1, 401720, Note_off_c, 0, 67, 64
1, 401748, Note_off_c, 0, 61, 64
1, 401756, Note_off_c, 0, 55, 64
1, 401792, Note_off_c, 0, 58, 64
1, 401928, Note_on_c, 0, 83, 115
1, 401928, Note_on_c, 0, 71, 104
1, 401936, Note_on_c, 0, 79, 91
1, 401956, Note_off_c, 0, 83, 64
1, 401962, Note_off_c, 0, 71, 64
1, 401970, Note_off_c, 0, 79, 64
1, 402026, Note_on_c, 0, 83, 105
1, 402026, Note_on_c, 0, 71, 97
1, 402029, Note_on_c, 0, 79, 77
1, 402040, Note_on_c, 0, 50, 101
1, 402042, Note_on_c, 0, 38, 99
1, 402042, Control_c, 0, 64, 0
1, 402146, Note_off_c, 0, 50, 64
1, 402146, Note_off_c, 0, 38, 64
1, 402172, Note_off_c, 0, 83, 64
1, 402180, Control_c, 0, 64, 127
1, 402220, Note_off_c, 0, 71, 64
1, 402308, Note_on_c, 0, 82, 93
1, 402311, Note_on_c, 0, 70, 95
1, 402311, Note_on_c, 0, 55, 85
1, 402311, Note_on_c, 0, 62, 89
1, 402318, Note_on_c, 0, 58, 60
1, 402318, Note_on_c, 0, 74, 88
1, 402340, Note_off_c, 0, 79, 64
1, 402380, Note_off_c, 0, 58, 64
1, 402426, Note_off_c, 0, 62, 64
1, 402440, Note_off_c, 0, 55, 64
1, 402442, Note_off_c, 0, 74, 64
1, 402468, Note_off_c, 0, 70, 64
1, 402484, Note_off_c, 0, 82, 64
1, 402562, Note_on_c, 0, 81, 97
1, 402564, Note_on_c, 0, 69, 94
1, 402564, Note_on_c, 0, 60, 92
1, 402568, Note_on_c, 0, 78, 76
1, 402570, Note_on_c, 0, 54, 91
1, 402582, Note_on_c, 0, 50, 76
1, 402612, Note_off_c, 0, 60, 64
1, 402628, Note_off_c, 0, 50, 64
1, 402646, Note_off_c, 0, 54, 64
1, 402710, Note_off_c, 0, 69, 64
1, 402718, Note_off_c, 0, 81, 64
1, 402762, Note_off_c, 0, 78, 64
1, 402794, Control_c, 0, 64, 0
1, 402824, Note_on_c, 0, 82, 97
1, 402828, Note_on_c, 0, 78, 77
1, 402828, Note_on_c, 0, 70, 101
1, 402828, Note_on_c, 0, 49, 104
1, 402832, Note_on_c, 0, 37, 102
1, 402918, Note_off_c, 0, 37, 64
1, 402928, Note_off_c, 0, 49, 64
1, 402978, Control_c, 0, 64, 127
1, 402998, Note_off_c, 0, 70, 64
1, 403030, Note_off_c, 0, 82, 64
1, 403056, Note_off_c, 0, 78, 64
1, 403126, Note_on_c, 0, 61, 100
1, 403134, Note_on_c, 0, 85, 104
1, 403134, Note_on_c, 0, 49, 90
1, 403134, Note_on_c, 0, 73, 103
1, 403137, Note_on_c, 0, 78, 75
1, 403174, Note_off_c, 0, 49, 64
1, 403178, Note_off_c, 0, 61, 64
1, 403250, Note_off_c, 0, 78, 64
1, 403276, Note_off_c, 0, 73, 64
1, 403306, Note_off_c, 0, 85, 64
1, 403482, Note_on_c, 0, 90, 101
1, 403484, Note_on_c, 0, 78, 101
1, 403488, Note_on_c, 0, 82, 88
1, 403490, Note_on_c, 0, 70, 93
1, 403498, Note_on_c, 0, 58, 75
1, 403510, Note_on_c, 0, 61, 73
1, 403532, Note_off_c, 0, 70, 64
1, 403544, Note_off_c, 0, 58, 64
1, 403554, Note_off_c, 0, 61, 64
1, 403654, Note_off_c, 0, 78, 64
1, 403726, Note_off_c, 0, 82, 64
1, 403756, Note_off_c, 0, 90, 64
1, 404074, Note_on_c, 0, 90, 101
1, 404076, Note_on_c, 0, 48, 98
1, 404076, Note_on_c, 0, 36, 108
1, 404078, Note_on_c, 0, 82, 89
1, 404078, Note_on_c, 0, 78, 100
1, 404222, Control_c, 0, 64, 0
1, 404428, Control_c, 0, 64, 127
1, 404510, Note_off_c, 0, 48, 64
1, 404526, Note_off_c, 0, 36, 64
1, 404532, Note_off_c, 0, 90, 64
1, 404554, Note_off_c, 0, 78, 64
1, 404576, Note_off_c, 0, 82, 64
1, 405028, Note_on_c, 0, 68, 100
1, 405136, Note_off_c, 0, 68, 64
1, 405508, Note_on_c, 0, 63, 99
1, 405510, Note_on_c, 0, 70, 100
1, 405510, Note_on_c, 0, 66, 90
1, 405520, Note_on_c, 0, 56, 81
1, 405676, Note_on_c, 0, 68, 86
1, 405680, Note_off_c, 0, 70, 64
1, 405758, Note_off_c, 0, 68, 64
1, 405784, Note_on_c, 0, 70, 69
1, 405888, Note_on_c, 0, 68, 70
1, 405902, Note_off_c, 0, 70, 64
1, 405946, Note_off_c, 0, 68, 64
1, 405961, Note_on_c, 0, 70, 72
1, 406022, Note_off_c, 0, 70, 64
1, 406042, Note_on_c, 0, 68, 72
1, 406092, Note_off_c, 0, 68, 64
1, 406118, Note_on_c, 0, 70, 72
1, 406136, Note_off_c, 0, 66, 64
1, 406180, Note_off_c, 0, 70, 64
1, 406204, Note_on_c, 0, 68, 62
1, 406232, Note_off_c, 0, 63, 64
1, 406266, Note_off_c, 0, 68, 64
1, 406270, Note_off_c, 0, 56, 64
1, 406274, Note_on_c, 0, 70, 72
1, 406350, Note_off_c, 0, 70, 64
1, 406353, Note_on_c, 0, 68, 78
1, 406426, Note_on_c, 0, 70, 74
1, 406442, Note_off_c, 0, 68, 64
1, 406512, Note_on_c, 0, 68, 78
1, 406532, Note_off_c, 0, 70, 64
1, 406588, Note_on_c, 0, 70, 81
1, 406622, Note_off_c, 0, 68, 64
1, 406666, Note_on_c, 0, 68, 93
1, 406706, Note_off_c, 0, 70, 64
1, 406750, Note_on_c, 0, 70, 89
1, 406774, Note_off_c, 0, 68, 64
1, 406822, Note_on_c, 0, 68, 89
1, 406860, Note_off_c, 0, 70, 64
1, 406908, Note_on_c, 0, 70, 84
1, 406950, Note_off_c, 0, 68, 64
1, 406986, Note_on_c, 0, 68, 73
1, 407008, Note_off_c, 0, 70, 64
1, 407052, Note_off_c, 0, 68, 64
1, 407066, Note_on_c, 0, 70, 74
1, 407138, Note_on_c, 0, 68, 68
1, 407186, Note_off_c, 0, 70, 64
1, 407232, Note_on_c, 0, 70, 62
1, 407250, Note_off_c, 0, 68, 64
1, 407282, Note_off_c, 0, 70, 64
1, 407302, Note_on_c, 0, 68, 83
1, 407342, Note_off_c, 0, 68, 64
1, 407366, Note_on_c, 0, 70, 69
1, 407442, Note_on_c, 0, 68, 85
1, 407508, Note_off_c, 0, 70, 64
1, 407624, Note_off_c, 0, 68, 64
1, 407660, Note_on_c, 0, 67, 97
1, 407924, Note_off_c, 0, 67, 64
1, 407954, Note_on_c, 0, 68, 100
1, 407954, Note_on_c, 0, 44, 106
1, 407956, Note_on_c, 0, 32, 95
1, 407958, Control_c, 0, 64, 0
1, 407962, Note_on_c, 0, 60, 100
1, 407962, Note_on_c, 0, 66, 83
1, 408054, Note_off_c, 0, 44, 64
1, 408057, Note_off_c, 0, 32, 64
1, 408078, Note_off_c, 0, 60, 64
1, 408092, Note_off_c, 0, 66, 64
1, 408110, Control_c, 0, 64, 127
1, 408134, Note_off_c, 0, 68, 64
1, 408348, Note_on_c, 0, 77, 102
1, 408350, Note_on_c, 0, 66, 88
1, 408353, Note_on_c, 0, 65, 87
1, 408358, Note_on_c, 0, 72, 88
1, 408364, Note_on_c, 0, 54, 75
1, 408370, Note_on_c, 0, 60, 68
1, 408372, Note_on_c, 0, 56, 69
1, 408540, Note_off_c, 0, 72, 64
1, 408546, Note_off_c, 0, 65, 64
1, 408580, Note_off_c, 0, 77, 64
1, 408580, Note_off_c, 0, 66, 64
1, 408590, Note_off_c, 0, 60, 64
1, 408602, Note_off_c, 0, 54, 64
1, 408620, Note_off_c, 0, 56, 64
1, 408736, Note_on_c, 0, 78, 100
1, 408739, Note_on_c, 0, 63, 97
1, 408742, Note_on_c, 0, 66, 95
1, 408746, Note_on_c, 0, 72, 89
1, 408750, Note_on_c, 0, 60, 75
1, 408758, Note_on_c, 0, 56, 70
1, 408761, Note_on_c, 0, 54, 67
1, 408786, Note_off_c, 0, 63, 64
1, 408796, Note_off_c, 0, 60, 64
1, 408846, Note_off_c, 0, 54, 64
1, 408880, Note_off_c, 0, 56, 64
1, 408884, Note_off_c, 0, 72, 64
1, 408888, Note_off_c, 0, 66, 64
1, 408928, Note_off_c, 0, 78, 64
1, 409228, Note_on_c, 0, 78, 90
1, 409228, Note_on_c, 0, 68, 100
1, 409230, Note_on_c, 0, 80, 102
1, 409233, Control_c, 0, 64, 0
1, 409233, Note_on_c, 0, 71, 101
1, 409236, Note_on_c, 0, 75, 79
1, 409236, Note_on_c, 0, 37, 114
1, 409236, Note_on_c, 0, 25, 107
1, 409339, Note_off_c, 0, 25, 64
1, 409358, Note_off_c, 0, 37, 64
1, 409402, Control_c, 0, 64, 127
1, 409472, Note_off_c, 0, 71, 64
1, 409492, Note_off_c, 0, 68, 64
1, 409552, Note_off_c, 0, 75, 64
1, 409570, Note_off_c, 0, 78, 64
1, 409592, Note_off_c, 0, 80, 64
1, 409660, Note_on_c, 0, 59, 81
1, 409738, Note_on_c, 0, 63, 81
1, 409832, Note_on_c, 0, 66, 68
1, 409878, Note_off_c, 0, 63, 64
1, 409904, Note_off_c, 0, 59, 64
1, 409930, Note_on_c, 0, 87, 102
1, 409933, Note_on_c, 0, 75, 102
1, 409936, Note_on_c, 0, 78, 95
1, 409944, Note_off_c, 0, 66, 64
1, 409960, Note_on_c, 0, 70, 93
1, 410000, Note_off_c, 0, 70, 64
1, 410274, Note_off_c, 0, 87, 64
1, 410298, Note_off_c, 0, 78, 64
1, 410372, Note_off_c, 0, 75, 64
1, 410844, Note_on_c, 0, 77, 102
1, 410847, Note_on_c, 0, 65, 97
1, 410847, Note_on_c, 0, 71, 101
1, 410847, Note_on_c, 0, 73, 86
1, 410851, Note_on_c, 0, 61, 95
1, 410851, Note_on_c, 0, 56, 84
1, 410855, Note_on_c, 0, 49, 92
1, 411186, Note_off_c, 0, 61, 64
1, 411270, Note_off_c, 0, 56, 64
1, 411300, Note_off_c, 0, 65, 64
1, 411312, Note_off_c, 0, 73, 64
1, 411338, Note_off_c, 0, 71, 64
1, 411352, Note_off_c, 0, 49, 64
1, 411388, Note_off_c, 0, 77, 64
1, 411524, Note_on_c, 0, 78, 97
1, 411528, Note_on_c, 0, 66, 88
1, 411532, Note_on_c, 0, 70, 80
1, 411534, Note_on_c, 0, 73, 78
1, 411538, Note_on_c, 0, 42, 88
1, 411541, Note_on_c, 0, 30, 98
1, 411582, Control_c, 0, 64, 0
1, 411778, Note_off_c, 0, 30, 64
1, 411814, Control_c, 0, 64, 127
1, 411822, Note_off_c, 0, 42, 64
1, 411980, Note_on_c, 0, 49, 88
1, 412328, Note_on_c, 0, 61, 70
1, 412338, Note_on_c, 0, 54, 75
1, 412382, Note_off_c, 0, 70, 64
1, 412428, Note_off_c, 0, 78, 64
1, 412498, Note_off_c, 0, 61, 64
1, 412510, Note_off_c, 0, 66, 64
1, 412520, Note_off_c, 0, 54, 64
1, 412596, Note_on_c, 0, 78, 97
1, 412604, Note_on_c, 0, 66, 78
1, 412604, Note_on_c, 0, 70, 84
1, 412618, Note_on_c, 0, 61, 61
1, 412618, Note_on_c, 0, 54, 48
1, 412630, Note_off_c, 0, 49, 64
1, 412656, Note_off_c, 0, 73, 64
1, 412784, Note_off_c, 0, 61, 64
1, 412789, Note_off_c, 0, 66, 64
1, 412880, Note_off_c, 0, 70, 64
1, 412908, Note_on_c, 0, 71, 100
1, 412918, Note_off_c, 0, 54, 64
1, 412921, Note_on_c, 0, 49, 79
1, 413014, Note_off_c, 0, 49, 64
1, 413158, Note_on_c, 0, 42, 62
1, 413160, Note_on_c, 0, 72, 95
1, 413164, Note_off_c, 0, 71, 64
1, 413270, Note_off_c, 0, 42, 64
1, 413284, Note_on_c, 0, 30, 81
1, 413296, Note_off_c, 0, 78, 64
1, 413346, Note_off_c, 0, 72, 64
1, 413426, Note_on_c, 0, 78, 97
1, 413429, Note_on_c, 0, 73, 81
1, 413434, Note_on_c, 0, 68, 83
1, 413442, Control_c, 0, 64, 0
1, 413520, Note_on_c, 0, 42, 69
1, 413552, Note_off_c, 0, 30, 64
1, 413610, Note_off_c, 0, 42, 64
1, 413626, Control_c, 0, 64, 127
1, 413746, Note_off_c, 0, 78, 64
1, 413770, Note_off_c, 0, 68, 64
1, 413786, Note_on_c, 0, 77, 97
1, 413838, Note_on_c, 0, 49, 43
1, 413938, Note_off_c, 0, 73, 64
1, 414138, Note_on_c, 0, 61, 46
1, 414142, Note_on_c, 0, 56, 35
1, 414242, Note_on_c, 0, 66, 81
1, 414256, Note_off_c, 0, 77, 64
1, 414270, Note_off_c, 0, 61, 64
1, 414328, Note_off_c, 0, 49, 64
1, 414346, Note_off_c, 0, 56, 64
1, 414422, Note_on_c, 0, 73, 70
1, 414474, Note_off_c, 0, 73, 64
1, 414574, Note_on_c, 0, 61, 41
1, 414580, Note_on_c, 0, 73, 67
1, 414594, Note_on_c, 0, 68, 52
1, 414602, Note_on_c, 0, 56, 32
1, 414734, Note_off_c, 0, 61, 64
1, 414806, Note_off_c, 0, 56, 64
1, 414830, Note_off_c, 0, 66, 64
1, 414858, Note_on_c, 0, 65, 81
1, 414866, Note_on_c, 0, 49, 48
1, 414920, Note_off_c, 0, 49, 64
1, 414956, Note_off_c, 0, 68, 64
1, 415040, Note_off_c, 0, 65, 64
1, 415074, Note_on_c, 0, 42, 59
1, 415138, Note_off_c, 0, 42, 64
1, 415208, Note_on_c, 0, 30, 54
1, 415216, Note_on_c, 0, 61, 89
1, 415274, Note_off_c, 0, 61, 64
1, 415446, Note_on_c, 0, 76, 84
1, 415452, Note_on_c, 0, 68, 56
1, 415466, Note_on_c, 0, 64, 57
1, 415486, Control_c, 0, 64, 0
1, 415516, Note_on_c, 0, 42, 50
1, 415524, Note_off_c, 0, 73, 64
1, 415592, Note_off_c, 0, 30, 64
1, 415662, Note_off_c, 0, 42, 64
1, 415670, Control_c, 0, 64, 127
1, 415878, Note_on_c, 0, 70, 64
1, 415902, Note_on_c, 0, 49, 57
1, 416006, Note_off_c, 0, 76, 64
1, 416074, Note_off_c, 0, 64, 64
1, 416096, Note_off_c, 0, 68, 64
1, 416200, Note_on_c, 0, 71, 94
1, 416208, Note_off_c, 0, 49, 64
1, 416216, Note_on_c, 0, 61, 36
1, 416224, Note_on_c, 0, 56, 44
1, 416228, Note_on_c, 0, 64, 59
1, 416264, Note_off_c, 0, 70, 64
1, 416310, Note_off_c, 0, 61, 64
1, 416338, Note_off_c, 0, 64, 64
1, 416414, Note_off_c, 0, 56, 64
1, 416420, Note_off_c, 0, 71, 64
1, 416500, Note_on_c, 0, 76, 89
1, 416500, Note_on_c, 0, 70, 65
1, 416522, Note_on_c, 0, 64, 55
1, 416528, Note_on_c, 0, 54, 44
1, 416530, Note_on_c, 0, 61, 35
1, 416702, Note_off_c, 0, 61, 64
1, 416782, Note_off_c, 0, 64, 64
1, 416804, Note_on_c, 0, 75, 82
1, 416824, Note_off_c, 0, 54, 64
1, 416827, Note_on_c, 0, 49, 46
1, 416876, Note_off_c, 0, 76, 64
1, 416879, Note_off_c, 0, 49, 64
1, 416908, Note_off_c, 0, 70, 64
1, 417072, Note_on_c, 0, 42, 30
1, 417098, Note_on_c, 0, 73, 78
1, 417110, Note_on_c, 0, 68, 56
1, 417168, Note_off_c, 0, 75, 64
1, 417186, Note_off_c, 0, 42, 64
1, 417202, Note_off_c, 0, 68, 64
1, 417218, Note_on_c, 0, 30, 48
1, 417300, Note_off_c, 0, 73, 64
1, 417412, Note_on_c, 0, 76, 67
1, 417432, Note_on_c, 0, 73, 19
1, 417432, Note_on_c, 0, 66, 46
1, 417468, Control_c, 0, 64, 0
1, 417502, Note_off_c, 0, 30, 64
1, 417536, Note_on_c, 0, 42, 55
1, 417652, Note_off_c, 0, 73, 64
1, 417654, Note_off_c, 0, 42, 64
1, 417668, Control_c, 0, 64, 127
1, 417888, Note_on_c, 0, 75, 56
1, 417908, Note_on_c, 0, 71, 39
1, 417942, Note_on_c, 0, 51, 22
1, 417956, Note_off_c, 0, 76, 64
1, 417980, Note_off_c, 0, 71, 64
1, 418048, Note_off_c, 0, 75, 64
1, 418070, Note_off_c, 0, 66, 64
1, 418246, Note_on_c, 0, 64, 60
1, 418292, Note_on_c, 0, 54, 39
1, 418294, Note_on_c, 0, 59, 40
1, 418364, Note_off_c, 0, 51, 64
1, 418382, Note_off_c, 0, 59, 64
1, 418392, Note_off_c, 0, 54, 64
1, 418416, Note_on_c, 0, 71, 82
1, 418472, Note_off_c, 0, 71, 64
1, 418480, Note_off_c, 0, 64, 64
1, 418586, Note_on_c, 0, 71, 70
1, 418590, Note_on_c, 0, 64, 57
1, 418594, Note_on_c, 0, 59, 37
1, 418606, Note_on_c, 0, 54, 38
1, 418676, Note_off_c, 0, 59, 64
1, 418866, Note_on_c, 0, 51, 55
1, 418870, Note_off_c, 0, 54, 64
1, 418888, Note_on_c, 0, 63, 77
1, 418916, Note_off_c, 0, 51, 64
1, 418926, Note_off_c, 0, 64, 64
1, 419058, Note_on_c, 0, 42, 58
1, 419080, Note_off_c, 0, 63, 64
1, 419138, Note_off_c, 0, 42, 64
1, 419182, Note_on_c, 0, 59, 63
1, 419200, Note_on_c, 0, 30, 61
1, 419224, Note_off_c, 0, 59, 64
1, 419304, Note_on_c, 0, 59, 58
1, 419312, Control_c, 0, 64, 0
1, 419450, Control_c, 0, 64, 127
1, 419460, Note_off_c, 0, 59, 64
1, 419468, Note_off_c, 0, 71, 64
1, 419476, Note_on_c, 0, 67, 75
1, 419602, Note_off_c, 0, 30, 64
1, 419672, Note_on_c, 0, 74, 83
1, 419692, Note_on_c, 0, 42, 49
1, 419752, Note_off_c, 0, 42, 64
1, 420008, Note_on_c, 0, 61, 72
1, 420042, Note_on_c, 0, 50, 50
1, 420158, Note_off_c, 0, 67, 64
1, 420202, Note_off_c, 0, 61, 64
1, 420298, Note_off_c, 0, 74, 64
1, 420310, Note_on_c, 0, 59, 51
1, 420316, Note_on_c, 0, 62, 79
1, 420330, Note_on_c, 0, 55, 41
1, 420368, Note_off_c, 0, 59, 64
1, 420388, Note_off_c, 0, 55, 64
1, 420402, Note_off_c, 0, 50, 64
1, 420436, Note_off_c, 0, 62, 64
1, 420572, Note_on_c, 0, 74, 95
1, 420576, Note_on_c, 0, 59, 54
1, 420590, Note_on_c, 0, 55, 28
1, 420590, Note_on_c, 0, 62, 67
1, 420620, Note_on_c, 0, 71, 36
1, 420642, Note_off_c, 0, 59, 64
1, 420674, Note_off_c, 0, 55, 64
1, 420716, Note_off_c, 0, 62, 64
1, 420802, Note_off_c, 0, 74, 64
1, 420816, Note_off_c, 0, 71, 64
1, 420866, Note_on_c, 0, 50, 42
1, 420872, Note_on_c, 0, 67, 65
1, 420916, Note_off_c, 0, 67, 64
1, 420921, Note_off_c, 0, 50, 64
1, 421090, Note_on_c, 0, 42, 61
1, 421100, Note_on_c, 0, 59, 63
1, 421140, Note_off_c, 0, 59, 64
1, 421174, Note_off_c, 0, 42, 64
1, 421216, Note_on_c, 0, 30, 59
1, 421374, Note_on_c, 0, 74, 96
1, 421388, Note_on_c, 0, 62, 65
1, 421402, Note_off_c, 0, 30, 64
1, 421420, Note_on_c, 0, 71, 36
1, 421428, Note_on_c, 0, 42, 50
1, 421448, Note_off_c, 0, 62, 64
1, 421475, Note_off_c, 0, 42, 64
1, 421514, Note_off_c, 0, 71, 64
1, 421520, Note_off_c, 0, 74, 64
1, 421696, Note_on_c, 0, 70, 76
1, 421706, Note_on_c, 0, 50, 43
1, 421720, Note_on_c, 0, 61, 59
1, 421806, Note_off_c, 0, 61, 64
1, 421968, Note_on_c, 0, 59, 41
1, 422008, Note_on_c, 0, 71, 90
1, 422008, Note_on_c, 0, 55, 19
1, 422020, Note_off_c, 0, 70, 64
1, 422032, Note_off_c, 0, 59, 64
1, 422038, Note_on_c, 0, 62, 49
1, 422082, Note_off_c, 0, 55, 64
1, 422096, Note_off_c, 0, 62, 64
1, 422112, Note_off_c, 0, 71, 64
1, 422126, Note_off_c, 0, 50, 64
1, 422278, Note_on_c, 0, 59, 41
1, 422281, Note_on_c, 0, 55, 32
1, 422289, Note_on_c, 0, 67, 81
1, 422368, Note_off_c, 0, 55, 64
1, 422398, Note_off_c, 0, 59, 64
1, 422566, Note_on_c, 0, 50, 44
1, 422592, Note_on_c, 0, 66, 72
1, 422606, Note_off_c, 0, 67, 64
1, 422622, Note_on_c, 0, 58, 33
1, 422640, Note_off_c, 0, 50, 64
1, 422698, Note_off_c, 0, 58, 64
1, 422798, Note_off_c, 0, 66, 64
1, 422804, Note_on_c, 0, 55, 54
1, 422854, Note_off_c, 0, 55, 64
1, 422912, Note_on_c, 0, 65, 65
1, 422942, Note_on_c, 0, 59, 40
1, 422992, Note_off_c, 0, 59, 64
1, 423024, Note_off_c, 0, 65, 64
1, 423092, Note_on_c, 0, 30, 49
1, 423178, Note_on_c, 0, 54, 70
1, 423230, Control_c, 0, 64, 0
1, 423314, Note_on_c, 0, 66, 58
1, 423348, Note_on_c, 0, 42, 50
1, 423360, Note_off_c, 0, 54, 64
1, 423376, Note_off_c, 0, 30, 64
1, 423414, Control_c, 0, 64, 127
1, 423446, Note_off_c, 0, 42, 64
1, 423470, Note_on_c, 0, 68, 64
1, 423512, Note_off_c, 0, 66, 64
1, 423524, Note_off_c, 0, 68, 64
1, 423576, Note_on_c, 0, 66, 60
1, 423602, Note_on_c, 0, 49, 65
1, 423668, Note_on_c, 0, 68, 59
1, 423694, Note_off_c, 0, 66, 64
1, 423730, Note_off_c, 0, 68, 64
1, 423754, Note_on_c, 0, 66, 47
1, 423826, Note_off_c, 0, 66, 64
1, 423838, Note_on_c, 0, 58, 56
1, 423852, Note_on_c, 0, 65, 76
1, 423910, Note_off_c, 0, 65, 64
1, 423942, Note_on_c, 0, 66, 59
1, 423948, Note_off_c, 0, 49, 64
1, 423984, Note_off_c, 0, 58, 64
1, 424020, Note_off_c, 0, 66, 64
1, 424038, Note_on_c, 0, 67, 80
1, 424100, Note_on_c, 0, 60, 72
1, 424108, Note_on_c, 0, 51, 62
1, 424110, Note_off_c, 0, 67, 64
1, 424138, Note_on_c, 0, 70, 66
1, 424152, Control_c, 0, 64, 0
1, 424210, Note_on_c, 0, 68, 65
1, 424232, Note_off_c, 0, 70, 64
1, 424290, Note_on_c, 0, 70, 70
1, 424306, Note_off_c, 0, 68, 64
1, 424336, Control_c, 0, 64, 127
1, 424366, Note_on_c, 0, 68, 73
1, 424372, Note_on_c, 0, 56, 65
1, 424375, Note_off_c, 0, 70, 64
1, 424378, Note_off_c, 0, 60, 64
1, 424434, Note_off_c, 0, 68, 64
1, 424437, Note_off_c, 0, 56, 64
1, 424442, Note_on_c, 0, 70, 66
1, 424486, Note_off_c, 0, 51, 64
1, 424512, Note_on_c, 0, 68, 63
1, 424554, Note_off_c, 0, 70, 64
1, 424588, Note_on_c, 0, 42, 81
1, 424608, Note_on_c, 0, 67, 82
1, 424610, Note_off_c, 0, 68, 64
1, 424656, Note_off_c, 0, 42, 64
1, 424690, Note_on_c, 0, 68, 59
1, 424744, Note_off_c, 0, 67, 64
1, 424776, Note_on_c, 0, 71, 84
1, 424788, Note_off_c, 0, 68, 64
1, 424866, Note_on_c, 0, 60, 84
1, 424868, Note_off_c, 0, 71, 64
1, 424876, Note_on_c, 0, 50, 73
1, 424878, Note_on_c, 0, 69, 74
1, 424930, Note_off_c, 0, 69, 64
1, 424950, Note_on_c, 0, 71, 74
1, 424996, Control_c, 0, 64, 0
1, 424998, Note_off_c, 0, 71, 64
1, 425006, Note_on_c, 0, 69, 55
1, 425098, Note_on_c, 0, 71, 78
1, 425106, Note_off_c, 0, 69, 64
1, 425142, Note_on_c, 0, 54, 73
1, 425150, Control_c, 0, 64, 127
1, 425160, Note_off_c, 0, 71, 64
1, 425162, Note_on_c, 0, 69, 74
1, 425206, Note_off_c, 0, 60, 64
1, 425230, Note_off_c, 0, 50, 64
1, 425254, Note_on_c, 0, 71, 85
1, 425274, Note_off_c, 0, 69, 64
1, 425338, Note_on_c, 0, 69, 67
1, 425378, Note_on_c, 0, 60, 71
1, 425390, Note_on_c, 0, 50, 63
1, 425408, Note_off_c, 0, 71, 64
1, 425440, Note_on_c, 0, 68, 83
1, 425454, Note_off_c, 0, 50, 64
1, 425474, Note_off_c, 0, 69, 64
1, 425498, Note_off_c, 0, 60, 64
1, 425522, Note_on_c, 0, 69, 88
1, 425538, Note_off_c, 0, 54, 64
1, 425590, Note_off_c, 0, 68, 64
1, 425634, Note_on_c, 0, 61, 79
1, 425642, Note_on_c, 0, 72, 83
1, 425650, Note_on_c, 0, 65, 74
1, 425650, Note_on_c, 0, 49, 70
1, 425664, Note_off_c, 0, 69, 64
1, 425688, Control_c, 0, 64, 0
1, 425744, Note_on_c, 0, 70, 77
1, 425778, Note_off_c, 0, 72, 64
1, 425836, Note_on_c, 0, 72, 78
1, 425842, Control_c, 0, 64, 127
1, 425858, Note_off_c, 0, 70, 64
1, 425864, Note_off_c, 0, 61, 64
1, 425892, Note_on_c, 0, 58, 57
1, 425900, Note_off_c, 0, 49, 64
1, 425904, Note_on_c, 0, 53, 81
1, 425920, Note_on_c, 0, 70, 65
1, 425942, Note_off_c, 0, 72, 64
1, 425998, Note_on_c, 0, 72, 81
1, 426004, Note_off_c, 0, 70, 64
1, 426074, Note_off_c, 0, 65, 64
1, 426078, Note_on_c, 0, 70, 71
1, 426096, Note_off_c, 0, 53, 64
1, 426154, Note_off_c, 0, 72, 64
1, 426157, Note_on_c, 0, 61, 67
1, 426186, Note_on_c, 0, 69, 79
1, 426194, Note_on_c, 0, 49, 46
1, 426216, Note_off_c, 0, 70, 64
1, 426216, Note_off_c, 0, 61, 64
1, 426268, Note_on_c, 0, 70, 85
1, 426282, Note_off_c, 0, 58, 64
1, 426294, Note_off_c, 0, 69, 64
1, 426312, Note_off_c, 0, 49, 64
1, 426386, Note_on_c, 0, 63, 92
1, 426418, Note_off_c, 0, 70, 64
1, 426480, Note_on_c, 0, 30, 81
1, 426496, Note_on_c, 0, 68, 84
1, 426518, Control_c, 0, 64, 0
1, 426602, Note_off_c, 0, 63, 64
1, 426605, Note_on_c, 0, 72, 85
1, 426674, Note_off_c, 0, 68, 64
1, 426686, Control_c, 0, 64, 127
1, 426704, Note_off_c, 0, 72, 64
1, 426774, Note_on_c, 0, 80, 91
1, 426776, Note_off_c, 0, 30, 64
1, 426792, Note_on_c, 0, 42, 72
1, 426840, Note_off_c, 0, 42, 64
1, 427140, Note_on_c, 0, 75, 68
1, 427178, Note_on_c, 0, 51, 42
1, 427258, Note_off_c, 0, 80, 64
1, 427380, Note_off_c, 0, 51, 64
1, 427426, Note_on_c, 0, 68, 77
1, 427436, Note_on_c, 0, 63, 60
1, 427454, Note_on_c, 0, 56, 39
1, 427462, Note_on_c, 0, 60, 41
1, 427524, Note_off_c, 0, 63, 64
1, 427538, Note_off_c, 0, 60, 64
1, 427541, Note_off_c, 0, 56, 64
1, 427544, Note_off_c, 0, 75, 64
1, 427600, Note_off_c, 0, 68, 64
1, 427670, Note_on_c, 0, 80, 95
1, 427672, Note_on_c, 0, 68, 72
1, 427680, Note_on_c, 0, 75, 81
1, 427682, Note_on_c, 0, 72, 72
1, 427684, Note_on_c, 0, 63, 67
1, 427700, Note_on_c, 0, 60, 50
1, 427704, Note_on_c, 0, 56, 38
1, 427740, Note_off_c, 0, 63, 64
1, 427792, Note_off_c, 0, 60, 64
1, 427792, Note_off_c, 0, 56, 64
1, 427812, Note_off_c, 0, 72, 64
1, 427870, Note_off_c, 0, 75, 64
1, 427968, Note_on_c, 0, 51, 79
1, 427970, Note_on_c, 0, 76, 83
1, 427970, Note_on_c, 0, 73, 68
1, 427988, Note_off_c, 0, 68, 64
1, 428040, Note_off_c, 0, 51, 64
1, 428132, Note_off_c, 0, 80, 64
1, 428150, Note_off_c, 0, 76, 64
1, 428152, Note_off_c, 0, 73, 64
1, 428222, Note_on_c, 0, 78, 90
1, 428228, Note_on_c, 0, 42, 57
1, 428228, Note_on_c, 0, 75, 85
1, 428286, Note_off_c, 0, 42, 64
1, 428348, Note_on_c, 0, 30, 76
1, 428374, Note_off_c, 0, 75, 64
1, 428404, Note_off_c, 0, 78, 64
1, 428550, Note_on_c, 0, 78, 80
1, 428552, Note_on_c, 0, 81, 100
1, 428558, Note_on_c, 0, 69, 68
1, 428561, Control_c, 0, 64, 0
1, 428561, Note_on_c, 0, 72, 55
1, 428574, Note_on_c, 0, 75, 46
1, 428592, Note_off_c, 0, 30, 64
1, 428612, Note_on_c, 0, 42, 70
1, 428642, Note_off_c, 0, 75, 64
1, 428654, Note_off_c, 0, 42, 64
1, 428714, Control_c, 0, 64, 127
1, 428772, Note_off_c, 0, 72, 64
1, 428804, Note_off_c, 0, 81, 64
1, 428936, Note_off_c, 0, 78, 64
1, 428986, Note_off_c, 0, 69, 64
1, 428996, Note_on_c, 0, 80, 90
1, 429012, Note_on_c, 0, 76, 66
1, 429022, Note_on_c, 0, 52, 52
1, 429070, Note_off_c, 0, 76, 64
1, 429144, Note_off_c, 0, 80, 64
1, 429322, Note_on_c, 0, 64, 42
1, 429326, Note_on_c, 0, 56, 38
1, 429328, Note_on_c, 0, 68, 69
1, 429330, Note_on_c, 0, 61, 39
1, 429338, Note_on_c, 0, 73, 52
1, 429396, Note_off_c, 0, 64, 64
1, 429416, Note_off_c, 0, 61, 64
1, 429430, Note_off_c, 0, 52, 64
1, 429430, Note_off_c, 0, 56, 64
1, 429452, Note_on_c, 0, 76, 78
1, 429502, Note_off_c, 0, 68, 64
1, 429504, Note_off_c, 0, 76, 64
1, 429522, Note_off_c, 0, 73, 64
1, 429606, Note_on_c, 0, 76, 80
1, 429616, Note_on_c, 0, 69, 74
1, 429631, Note_on_c, 0, 73, 40
1, 429654, Note_on_c, 0, 64, 35
1, 429656, Note_on_c, 0, 56, 32
1, 429660, Note_on_c, 0, 61, 33
1, 429764, Note_off_c, 0, 61, 64
1, 429776, Note_off_c, 0, 64, 64
1, 429984, Note_on_c, 0, 52, 55
1, 430026, Note_off_c, 0, 56, 64
1, 430076, Note_on_c, 0, 68, 75
1, 430100, Note_off_c, 0, 52, 64
1, 430138, Note_off_c, 0, 69, 64
1, 430248, Note_off_c, 0, 76, 64
1, 430310, Note_on_c, 0, 42, 38
1, 430360, Note_off_c, 0, 68, 64
1, 430406, Note_off_c, 0, 42, 64
1, 430430, Note_on_c, 0, 64, 90
1, 430450, Note_on_c, 0, 30, 61
1, 430472, Note_off_c, 0, 64, 64
1, 430475, Note_off_c, 0, 73, 64
1, 430680, Note_on_c, 0, 79, 103
1, 430692, Note_on_c, 0, 71, 66
1, 430695, Note_on_c, 0, 67, 73
1, 430698, Control_c, 0, 64, 0
1, 430704, Note_on_c, 0, 76, 64
1, 430732, Note_off_c, 0, 30, 64
1, 430734, Note_on_c, 0, 42, 67
1, 430784, Note_off_c, 0, 42, 64
1, 430850, Control_c, 0, 64, 127
1, 430888, Note_off_c, 0, 67, 64
1, 430912, Note_off_c, 0, 71, 64
1, 431050, Note_on_c, 0, 73, 72
1, 431060, Note_on_c, 0, 70, 68
1, 431076, Note_on_c, 0, 52, 64
1, 431144, Note_off_c, 0, 70, 64
1, 431236, Note_off_c, 0, 76, 64
1, 431284, Note_off_c, 0, 73, 64
1, 431310, Note_off_c, 0, 79, 64
1, 431344, Note_on_c, 0, 64, 65
1, 431346, Note_on_c, 0, 74, 90
1, 431352, Note_on_c, 0, 71, 81
1, 431366, Note_on_c, 0, 55, 55
1, 431396, Note_on_c, 0, 59, 36
1, 431399, Note_off_c, 0, 71, 64
1, 431430, Note_off_c, 0, 64, 64
1, 431456, Note_off_c, 0, 55, 64
1, 431470, Note_off_c, 0, 59, 64
1, 431478, Note_off_c, 0, 52, 64
1, 431598, Note_on_c, 0, 79, 105
1, 431612, Note_on_c, 0, 76, 70
1, 431612, Note_on_c, 0, 67, 83
1, 431620, Note_on_c, 0, 70, 56
1, 431628, Note_on_c, 0, 64, 68
1, 431636, Note_off_c, 0, 74, 64
1, 431638, Note_on_c, 0, 60, 52
1, 431654, Note_on_c, 0, 55, 51
1, 431760, Note_off_c, 0, 64, 64
1, 431764, Note_off_c, 0, 55, 64
1, 431768, Note_off_c, 0, 67, 64
1, 431782, Note_off_c, 0, 70, 64
1, 431898, Note_off_c, 0, 60, 64
1, 431904, Note_on_c, 0, 72, 80
1, 431904, Note_on_c, 0, 69, 60
1, 431926, Note_on_c, 0, 52, 69
1, 431936, Note_off_c, 0, 79, 64
1, 431974, Note_off_c, 0, 76, 64
1, 431984, Note_off_c, 0, 52, 64
1, 432038, Note_off_c, 0, 69, 64
1, 432076, Note_off_c, 0, 72, 64
1, 432160, Note_on_c, 0, 73, 80
1, 432166, Note_on_c, 0, 42, 73
1, 432169, Note_on_c, 0, 70, 69
1, 432252, Note_off_c, 0, 42, 64
1, 432286, Note_off_c, 0, 70, 64
1, 432288, Note_on_c, 0, 30, 67
1, 432350, Note_off_c, 0, 73, 64
1, 432482, Note_on_c, 0, 79, 100
1, 432492, Note_on_c, 0, 67, 70
1, 432495, Control_c, 0, 64, 0
1, 432499, Note_on_c, 0, 74, 75
1, 432508, Note_off_c, 0, 30, 64
1, 432508, Note_on_c, 0, 70, 43
1, 432568, Note_on_c, 0, 42, 43
1, 432618, Note_off_c, 0, 42, 64
1, 432664, Control_c, 0, 64, 127
1, 432730, Note_off_c, 0, 74, 64
1, 432746, Note_off_c, 0, 79, 64
1, 432906, Note_off_c, 0, 67, 64
1, 432922, Note_off_c, 0, 70, 64
1, 432944, Note_on_c, 0, 78, 84
1, 432944, Note_on_c, 0, 50, 41
1, 432968, Note_on_c, 0, 74, 51
1, 433012, Note_off_c, 0, 74, 64
1, 433054, Note_off_c, 0, 78, 64
1, 433248, Note_on_c, 0, 58, 32
1, 433248, Note_on_c, 0, 54, 37
1, 433266, Note_on_c, 0, 62, 35
1, 433336, Note_on_c, 0, 66, 66
1, 433352, Note_on_c, 0, 70, 58
1, 433394, Note_off_c, 0, 50, 64
1, 433422, Note_off_c, 0, 62, 64
1, 433432, Note_off_c, 0, 54, 64
1, 433446, Note_off_c, 0, 58, 64
1, 433516, Note_on_c, 0, 74, 71
1, 433534, Note_off_c, 0, 70, 64
1, 433537, Note_off_c, 0, 66, 64
1, 433558, Note_off_c, 0, 74, 64
1, 433656, Note_on_c, 0, 62, 44
1, 433660, Note_on_c, 0, 54, 37
1, 433676, Note_on_c, 0, 74, 65
1, 433679, Note_on_c, 0, 59, 33
1, 433679, Note_on_c, 0, 67, 71
1, 433706, Note_on_c, 0, 71, 43
1, 433872, Note_off_c, 0, 62, 64
1, 433950, Note_off_c, 0, 59, 64
1, 434000, Note_on_c, 0, 50, 41
1, 434018, Note_on_c, 0, 66, 68
1, 434054, Note_off_c, 0, 50, 64
1, 434064, Note_off_c, 0, 54, 64
1, 434070, Note_off_c, 0, 67, 64
1, 434234, Note_on_c, 0, 42, 45
1, 434268, Note_off_c, 0, 74, 64
1, 434294, Note_off_c, 0, 42, 64
1, 434344, Note_on_c, 0, 30, 58
1, 434360, Note_on_c, 0, 62, 65
1, 434406, Note_off_c, 0, 62, 64
1, 434418, Note_off_c, 0, 66, 64
1, 434434, Note_off_c, 0, 71, 64
1, 434490, Note_on_c, 0, 62, 62
1, 434508, Control_c, 0, 64, 0
1, 434634, Note_on_c, 0, 70, 52
1, 434646, Control_c, 0, 64, 127
1, 434672, Note_off_c, 0, 62, 64
1, 434678, Note_off_c, 0, 30, 64
1, 434712, Note_on_c, 0, 42, 43
1, 434766, Note_off_c, 0, 42, 64
1, 434769, Note_on_c, 0, 77, 72
1, 434974, Note_off_c, 0, 77, 64
1, 435126, Note_on_c, 0, 64, 74
1, 435138, Note_on_c, 0, 50, 51
1, 435278, Note_off_c, 0, 64, 64
1, 435336, Note_off_c, 0, 70, 64
1, 435350, Note_off_c, 0, 50, 64
1, 435438, Note_on_c, 0, 65, 72
1, 435450, Note_on_c, 0, 58, 35
1, 435456, Note_on_c, 0, 62, 37
1, 435478, Note_on_c, 0, 53, 40
1, 435522, Note_off_c, 0, 62, 64
1, 435540, Note_off_c, 0, 53, 64
1, 435562, Note_off_c, 0, 58, 64
1, 435566, Note_off_c, 0, 65, 64
1, 435704, Note_on_c, 0, 65, 81
1, 435706, Note_on_c, 0, 77, 83
1, 435710, Note_on_c, 0, 68, 57
1, 435716, Note_on_c, 0, 62, 63
1, 435722, Note_on_c, 0, 53, 70
1, 435750, Note_on_c, 0, 58, 28
1, 435772, Note_off_c, 0, 62, 64
1, 435868, Note_off_c, 0, 77, 64
1, 435874, Note_off_c, 0, 65, 64
1, 435880, Note_off_c, 0, 53, 64
1, 435936, Note_off_c, 0, 58, 64
1, 435972, Note_off_c, 0, 68, 64
1, 436000, Note_on_c, 0, 50, 70
1, 436010, Note_on_c, 0, 64, 88
1, 436062, Note_off_c, 0, 50, 64
1, 436242, Note_on_c, 0, 42, 58
1, 436262, Note_off_c, 0, 64, 64
1, 436278, Note_on_c, 0, 63, 83
1, 436298, Note_off_c, 0, 42, 64
1, 436362, Note_on_c, 0, 30, 69
1, 436494, Note_off_c, 0, 63, 64
1, 436546, Note_on_c, 0, 71, 95
1, 436550, Control_c, 0, 64, 0
1, 436558, Note_on_c, 0, 65, 72
1, 436560, Note_off_c, 0, 30, 64
1, 436560, Note_on_c, 0, 62, 76
1, 436598, Note_on_c, 0, 42, 69
1, 436638, Note_off_c, 0, 42, 64
1, 436706, Control_c, 0, 64, 127
1, 436788, Note_off_c, 0, 71, 64
1, 436886, Note_on_c, 0, 69, 75
1, 436892, Note_on_c, 0, 50, 68
1, 436892, Note_on_c, 0, 61, 76
1, 436916, Note_off_c, 0, 65, 64
1, 436958, Note_off_c, 0, 62, 64
1, 437114, Note_off_c, 0, 69, 64
1, 437144, Note_off_c, 0, 61, 64
1, 437252, Note_on_c, 0, 62, 73
1, 437362, Note_off_c, 0, 62, 64
1, 437430, Note_on_c, 0, 67, 84
1, 437448, Note_on_c, 0, 59, 60
1, 437474, Note_off_c, 0, 67, 64
1, 437492, Note_off_c, 0, 59, 64
1, 437568, Note_on_c, 0, 67, 69
1, 437572, Note_on_c, 0, 59, 68
1, 437586, Note_on_c, 0, 62, 73
1, 437696, Note_off_c, 0, 50, 64
1, 437762, Note_off_c, 0, 59, 64
1, 437860, Note_off_c, 0, 62, 64
1, 437894, Note_on_c, 0, 66, 84
1, 437904, Note_on_c, 0, 57, 75
1, 437910, Note_on_c, 0, 50, 76
1, 437930, Note_off_c, 0, 67, 64
1, 438020, Note_off_c, 0, 57, 64
1, 438090, Note_off_c, 0, 66, 64
1, 438190, Note_on_c, 0, 59, 61
1, 438202, Note_on_c, 0, 65, 90
1, 438214, Note_on_c, 0, 55, 73
1, 438232, Note_off_c, 0, 59, 64
1, 438268, Note_off_c, 0, 55, 64
1, 438302, Note_off_c, 0, 50, 64
1, 438338, Note_off_c, 0, 65, 64
1, 438384, Note_on_c, 0, 55, 62
1, 438498, Note_on_c, 0, 59, 84
1, 438640, Note_on_c, 0, 65, 86
1, 438650, Note_on_c, 0, 30, 90
1, 438653, Note_on_c, 0, 42, 73
1, 438656, Control_c, 0, 64, 0
1, 438676, Note_off_c, 0, 59, 64
1, 438766, Note_off_c, 0, 30, 64
1, 438786, Note_on_c, 0, 58, 64
1, 438810, Note_off_c, 0, 42, 64
1, 438818, Note_off_c, 0, 55, 64
1, 438826, Control_c, 0, 64, 127
1, 438876, Note_off_c, 0, 65, 64
1, 438912, Note_on_c, 0, 60, 69
1, 438928, Note_off_c, 0, 58, 64
1, 438964, Note_off_c, 0, 60, 64
1, 439022, Note_on_c, 0, 59, 61
1, 439046, Note_on_c, 0, 60, 35
1, 439122, Note_off_c, 0, 60, 64
1, 439122, Note_on_c, 0, 61, 83
1, 439138, Note_off_c, 0, 59, 64
1, 439150, Note_on_c, 0, 50, 56
1, 439216, Note_on_c, 0, 64, 78
1, 439240, Note_off_c, 0, 61, 64
1, 439278, Note_off_c, 0, 64, 64
1, 439306, Note_on_c, 0, 62, 69
1, 439358, Note_off_c, 0, 50, 64
1, 439380, Note_off_c, 0, 62, 64
1, 439380, Note_on_c, 0, 64, 77
1, 439440, Note_on_c, 0, 55, 65
1, 439462, Note_on_c, 0, 67, 85
1, 439480, Note_off_c, 0, 64, 64
1, 439486, Note_off_c, 0, 55, 64
1, 439502, Note_off_c, 0, 67, 64
1, 439550, Note_on_c, 0, 65, 73
1, 439564, Note_on_c, 0, 67, 62
1, 439620, Note_off_c, 0, 67, 64
1, 439620, Note_on_c, 0, 70, 78
1, 439644, Note_off_c, 0, 65, 64
1, 439700, Note_on_c, 0, 72, 79
1, 439724, Note_off_c, 0, 70, 64
1, 439740, Note_off_c, 0, 72, 64
1, 439752, Note_on_c, 0, 65, 53
1, 439766, Note_on_c, 0, 55, 70
1, 439778, Note_on_c, 0, 71, 92
1, 439848, Note_on_c, 0, 73, 82
1, 439868, Note_off_c, 0, 71, 64
1, 439936, Note_on_c, 0, 76, 66
1, 439956, Note_off_c, 0, 73, 64
1, 439976, Note_off_c, 0, 76, 64
1, 440000, Note_on_c, 0, 74, 84
1, 440034, Note_off_c, 0, 65, 64
1, 440070, Note_on_c, 0, 76, 42
1, 440120, Note_off_c, 0, 74, 64
1, 440156, Note_on_c, 0, 79, 57
1, 440158, Note_on_c, 0, 81, 56
1, 440168, Note_off_c, 0, 76, 64
1, 440204, Note_off_c, 0, 81, 64
1, 440207, Note_off_c, 0, 79, 64
1, 440218, Note_on_c, 0, 77, 77
1, 440240, Note_on_c, 0, 79, 74
1, 440282, Note_off_c, 0, 79, 64
1, 440294, Note_on_c, 0, 82, 79
1, 440314, Note_off_c, 0, 77, 64
1, 440362, Note_on_c, 0, 84, 87
1, 440390, Note_off_c, 0, 82, 64
1, 440416, Note_off_c, 0, 84, 64
1, 440446, Note_on_c, 0, 83, 106
1, 440512, Note_on_c, 0, 85, 86
1, 440514, Note_on_c, 0, 62, 40
1, 440544, Note_off_c, 0, 83, 64
1, 440566, Note_on_c, 0, 65, 36
1, 440592, Note_on_c, 0, 88, 81
1, 440634, Note_off_c, 0, 85, 64
1, 440640, Note_on_c, 0, 71, 76
1, 440646, Note_off_c, 0, 88, 64
1, 440670, Note_on_c, 0, 86, 86
1, 440684, Control_c, 0, 64, 0
1, 440756, Note_on_c, 0, 88, 87
1, 440782, Note_off_c, 0, 86, 64
1, 440824, Note_on_c, 0, 91, 74
1, 440838, Control_c, 0, 64, 127
1, 440852, Note_off_c, 0, 88, 64
1, 440866, Note_off_c, 0, 91, 64
1, 440912, Note_on_c, 0, 89, 81
1, 440944, Note_on_c, 0, 91, 36
1, 440988, Note_on_c, 0, 94, 68
1, 441022, Note_off_c, 0, 91, 64
1, 441028, Note_off_c, 0, 89, 64
1, 441062, Note_on_c, 0, 96, 72
1, 441090, Note_off_c, 0, 55, 64
1, 441092, Note_off_c, 0, 94, 64
1, 441144, Note_on_c, 0, 95, 68
1, 441147, Note_off_c, 0, 96, 64
1, 441198, Note_off_c, 0, 62, 64
1, 441210, Note_off_c, 0, 65, 64
1, 441218, Note_off_c, 0, 71, 64
1, 441234, Note_on_c, 0, 97, 68
1, 441268, Note_off_c, 0, 95, 64
1, 441354, Note_on_c, 0, 100, 64
1, 441378, Note_off_c, 0, 97, 64
1, 441484, Note_on_c, 0, 98, 54
1, 441558, Note_off_c, 0, 100, 64
1, 441592, Note_on_c, 0, 95, 45
1, 441706, Note_on_c, 0, 91, 60
1, 441762, Note_off_c, 0, 91, 64
1, 441770, Note_off_c, 0, 98, 64
1, 441790, Note_off_c, 0, 95, 64
1, 441838, Note_on_c, 0, 89, 51
1, 441946, Note_off_c, 0, 89, 64
1, 441972, Note_on_c, 0, 86, 50
1, 442108, Note_on_c, 0, 83, 58
1, 442238, Note_on_c, 0, 79, 50
1, 442262, Note_off_c, 0, 86, 64
1, 442336, Note_off_c, 0, 83, 64
1, 442362, Note_on_c, 0, 77, 56
1, 442400, Note_off_c, 0, 79, 64
1, 442504, Note_on_c, 0, 74, 54
1, 442526, Note_off_c, 0, 77, 64
1, 442632, Note_on_c, 0, 71, 52
1, 442638, Note_off_c, 0, 74, 64
1, 442730, Note_off_c, 0, 71, 64
1, 442772, Note_on_c, 0, 67, 53
1, 442836, Note_off_c, 0, 67, 64
1, 442924, Note_on_c, 0, 65, 63
1, 443104, Note_on_c, 0, 62, 53
1, 443202, Note_off_c, 0, 65, 64
1, 443250, Note_off_c, 0, 62, 64
1, 443298, Note_on_c, 0, 59, 41
1, 443316, Note_on_c, 0, 65, 7
1, 443398, Note_off_c, 0, 59, 64
1, 443498, Note_on_c, 0, 55, 59
1, 443606, Note_off_c, 0, 65, 64
1, 443640, Note_off_c, 0, 55, 64
1, 443860, Note_on_c, 0, 54, 67
1, 443872, Note_on_c, 0, 66, 51
1, 443890, Note_on_c, 0, 30, 32
1, 443890, Note_on_c, 0, 42, 25
1, 443988, Control_c, 0, 64, 0
1, 444402, Note_off_c, 0, 30, 64
1, 444434, Control_c, 0, 64, 127
1, 444476, Note_off_c, 0, 42, 64
1, 444730, Note_on_c, 0, 49, 32
1, 444750, Note_off_c, 0, 54, 64
1, 445298, Note_off_c, 0, 66, 64
1, 445301, Note_on_c, 0, 61, 55
1, 445312, Note_off_c, 0, 49, 64
1, 445562, Note_off_c, 0, 61, 64
1, 445648, Note_on_c, 0, 60, 26
1, 445690, Note_on_c, 0, 63, 61
1, 445744, Note_on_c, 0, 80, 72
1, 445758, Note_off_c, 0, 63, 64
1, 445760, Note_on_c, 0, 71, 53
1, 445764, Note_off_c, 0, 60, 64
1, 445776, Note_on_c, 0, 61, 48
1, 445832, Control_c, 0, 64, 0
1, 445976, Note_off_c, 0, 71, 64
1, 445992, Note_on_c, 0, 68, 44
1, 446000, Note_on_c, 0, 77, 70
1, 446064, Note_off_c, 0, 80, 64
1, 446064, Control_c, 0, 64, 127
1, 446112, Note_off_c, 0, 68, 64
1, 446126, Note_off_c, 0, 77, 64
1, 446194, Note_on_c, 0, 80, 65
1, 446204, Note_on_c, 0, 71, 57
1, 446264, Note_off_c, 0, 80, 64
1, 446276, Note_off_c, 0, 71, 64
1, 446378, Note_on_c, 0, 75, 61
1, 446380, Note_on_c, 0, 66, 46
1, 446412, Note_off_c, 0, 61, 64
1, 446436, Note_off_c, 0, 66, 64
1, 446528, Note_off_c, 0, 75, 64
1, 446548, Note_on_c, 0, 80, 76
1, 446560, Note_on_c, 0, 49, 39
1, 446563, Note_on_c, 0, 71, 57
1, 446630, Note_off_c, 0, 49, 64
1, 446692, Note_off_c, 0, 80, 64
1, 446742, Note_on_c, 0, 73, 58
1, 446752, Note_on_c, 0, 61, 37
1, 446796, Note_off_c, 0, 71, 64
1, 446814, Note_off_c, 0, 61, 64
1, 446968, Control_c, 0, 64, 0
1, 446974, Note_on_c, 0, 42, 43
1, 446976, Note_on_c, 0, 78, 54
1, 446982, Note_on_c, 0, 70, 29
1, 447028, Note_off_c, 0, 73, 64
1, 447308, Control_c, 0, 64, 127
1, 447378, Note_off_c, 0, 42, 64
1, 447438, Note_on_c, 0, 49, 25
1, 447816, Note_off_c, 0, 49, 64
1, 447854, Note_on_c, 0, 61, 32
1, 448008, Note_off_c, 0, 78, 64
1, 448058, Note_off_c, 0, 61, 64
1, 448192, Note_off_c, 0, 70, 64
1, 448218, Note_on_c, 0, 60, 22
1, 448290, Note_on_c, 0, 63, 51
1, 448384, Note_on_c, 0, 80, 57
1, 448392, Note_off_c, 0, 63, 64
1, 448395, Note_on_c, 0, 71, 45
1, 448408, Note_on_c, 0, 61, 51
1, 448428, Control_c, 0, 64, 0
1, 448488, Note_off_c, 0, 60, 64
1, 448564, Note_off_c, 0, 71, 64
1, 448620, Note_on_c, 0, 68, 43
1, 448626, Note_on_c, 0, 77, 59
1, 448644, Control_c, 0, 64, 127
1, 448666, Note_off_c, 0, 80, 64
1, 448694, Note_off_c, 0, 68, 64
1, 448716, Note_off_c, 0, 77, 64
1, 448818, Note_on_c, 0, 80, 57
1, 448830, Note_on_c, 0, 71, 46
1, 448862, Note_off_c, 0, 80, 64
1, 448902, Note_off_c, 0, 71, 64
1, 448920, Note_off_c, 0, 61, 64
1, 448990, Note_on_c, 0, 75, 52
1, 449010, Note_on_c, 0, 66, 14
1, 449072, Note_off_c, 0, 66, 64
1, 449132, Note_on_c, 0, 49, 31
1, 449146, Note_off_c, 0, 75, 64
1, 449178, Note_on_c, 0, 80, 59
1, 449196, Note_on_c, 0, 71, 44
1, 449216, Note_off_c, 0, 49, 64
1, 449280, Note_off_c, 0, 80, 64
1, 449350, Note_on_c, 0, 61, 28
1, 449378, Note_on_c, 0, 73, 46
1, 449422, Note_off_c, 0, 61, 64
1, 449444, Note_off_c, 0, 71, 64
1, 449666, Note_on_c, 0, 70, 32
1, 449670, Note_on_c, 0, 78, 46
1, 449672, Control_c, 0, 64, 0
1, 449674, Note_on_c, 0, 30, 44
1, 449720, Note_off_c, 0, 73, 64
1, 449906, Note_off_c, 0, 30, 64
1, 449906, Control_c, 0, 64, 127
1, 450190, Note_on_c, 0, 49, 42
1, 450366, Note_off_c, 0, 78, 64
1, 450522, Note_off_c, 0, 70, 64
1, 450730, Note_on_c, 0, 58, 35
1, 451046, Note_off_c, 0, 58, 64
1, 451166, Note_on_c, 0, 68, 40
1, 451198, Note_on_c, 0, 59, 43
1, 451210, Control_c, 0, 64, 0
1, 451384, Note_on_c, 0, 56, 40
1, 451390, Note_on_c, 0, 65, 44
1, 451394, Note_off_c, 0, 68, 64
1, 451422, Note_off_c, 0, 49, 64
1, 451440, Control_c, 0, 64, 127
1, 451524, Note_off_c, 0, 56, 64
1, 451578, Note_on_c, 0, 68, 61
1, 451596, Note_off_c, 0, 65, 64
1, 451636, Note_off_c, 0, 68, 64
1, 451778, Note_on_c, 0, 54, 69
1, 451792, Note_on_c, 0, 63, 57
1, 451832, Note_off_c, 0, 54, 64
1, 451852, Note_off_c, 0, 63, 64
1, 451972, Note_on_c, 0, 68, 63
1, 451998, Note_on_c, 0, 49, 31
1, 452028, Note_off_c, 0, 59, 64
1, 452034, Note_off_c, 0, 68, 64
1, 452184, Note_on_c, 0, 61, 62
1, 452196, Note_on_c, 0, 53, 73
1, 452244, Note_off_c, 0, 53, 64
1, 452462, Note_off_c, 0, 49, 64
1, 452470, Note_on_c, 0, 66, 49
1, 452480, Note_on_c, 0, 42, 27
1, 452484, Control_c, 0, 64, 0
1, 452490, Note_on_c, 0, 58, 35
1, 452514, Note_off_c, 0, 61, 64
1, 452946, Control_c, 0, 64, 127
1, 453008, Note_on_c, 0, 49, 36
1, 453080, Note_off_c, 0, 42, 64
1, 453108, Note_off_c, 0, 58, 64
1, 453528, Note_on_c, 0, 58, 23
1, 453676, Note_off_c, 0, 66, 64
1, 453814, Note_off_c, 0, 58, 64
1, 454018, Note_on_c, 0, 68, 44
1, 454021, Control_c, 0, 64, 0
1, 454058, Note_on_c, 0, 59, 26
1, 454198, Note_off_c, 0, 49, 64
1, 454236, Control_c, 0, 64, 127
1, 454272, Note_off_c, 0, 68, 64
1, 454308, Note_on_c, 0, 56, 24
1, 454318, Note_on_c, 0, 65, 20
1, 454382, Note_off_c, 0, 56, 64
1, 454482, Note_off_c, 0, 65, 64
1, 454566, Note_on_c, 0, 68, 36
1, 454626, Note_off_c, 0, 68, 64
1, 454846, Note_on_c, 0, 63, 36
1, 454856, Note_on_c, 0, 54, 20
1, 454930, Note_off_c, 0, 63, 64
1, 454956, Note_off_c, 0, 54, 64
1, 455204, Control_c, 0, 64, 0
1, 455206, Note_on_c, 0, 68, 22
1, 455240, Note_on_c, 0, 49, 18
1, 455394, Note_off_c, 0, 68, 64
1, 455404, Control_c, 0, 64, 127
1, 455434, Note_off_c, 0, 59, 64
1, 455542, Note_off_c, 0, 49, 64
1, 455744, Note_on_c, 0, 61, 22
1, 455758, Note_on_c, 0, 53, 45
1, 455974, Note_off_c, 0, 53, 64
1, 456110, Note_off_c, 0, 61, 64
1, 456756, Note_on_c, 0, 66, 28
1, 456790, Note_on_c, 0, 30, 22
1, 456790, Note_on_c, 0, 58, 13
1, 456814, Note_on_c, 0, 42, 7
1, 456926, Control_c, 0, 64, 0
1, 457432, Control_c, 0, 64, 127
1, 457470, Note_off_c, 0, 30, 64
1, 457512, Note_off_c, 0, 42, 64
1, 457796, Note_off_c, 0, 58, 64
1, 458576, Note_on_c, 0, 58, 24
1, 458602, Note_on_c, 0, 49, 15
1, 458610, Note_on_c, 0, 54, 27
1, 458818, Note_off_c, 0, 54, 64
1, 458942, Note_off_c, 0, 49, 64
1, 458960, Note_off_c, 0, 58, 64
1, 459158, Note_on_c, 0, 59, 50
1, 459160, Note_on_c, 0, 54, 30
1, 459162, Note_on_c, 0, 51, 34
1, 459172, Note_off_c, 0, 66, 64
1, 459488, Note_on_c, 0, 63, 40
1, 459552, Note_off_c, 0, 63, 64
1, 459600, Note_on_c, 0, 65, 45
1, 459674, Note_off_c, 0, 65, 64
1, 459720, Note_on_c, 0, 66, 37
1, 459828, Note_on_c, 0, 68, 49
1, 459836, Note_off_c, 0, 66, 64
1, 459870, Note_off_c, 0, 54, 64
1, 459900, Note_off_c, 0, 59, 64
1, 459942, Note_on_c, 0, 70, 51
1, 459948, Note_off_c, 0, 68, 64
1, 459998, Note_off_c, 0, 70, 64
1, 460044, Note_on_c, 0, 71, 55
1, 460062, Note_off_c, 0, 51, 64
1, 460106, Note_off_c, 0, 71, 64
1, 460136, Note_on_c, 0, 58, 43
1, 460146, Note_on_c, 0, 72, 54
1, 460168, Control_c, 0, 64, 0
1, 460176, Note_on_c, 0, 49, 33
1, 460180, Note_on_c, 0, 54, 37
1, 460210, Note_off_c, 0, 72, 64
1, 460262, Note_on_c, 0, 73, 50
1, 460320, Control_c, 0, 64, 127
1, 460328, Note_off_c, 0, 54, 64
1, 460342, Note_off_c, 0, 73, 64
1, 460364, Note_on_c, 0, 78, 48
1, 460374, Note_off_c, 0, 58, 64
1, 460384, Note_off_c, 0, 49, 64
1, 460464, Note_on_c, 0, 75, 49
1, 460470, Note_off_c, 0, 78, 64
1, 460528, Note_off_c, 0, 75, 64
1, 460542, Note_on_c, 0, 56, 52
1, 460560, Note_on_c, 0, 73, 47
1, 460566, Note_on_c, 0, 54, 42
1, 460594, Note_on_c, 0, 47, 29
1, 460612, Control_c, 0, 64, 0
1, 460640, Note_off_c, 0, 73, 64
1, 460678, Note_on_c, 0, 75, 53
1, 460756, Note_off_c, 0, 75, 64
1, 460800, Note_on_c, 0, 73, 35
1, 460868, Note_off_c, 0, 73, 64
1, 460896, Note_on_c, 0, 70, 36
1, 460950, Control_c, 0, 64, 127
1, 460976, Note_off_c, 0, 70, 64
1, 460996, Note_on_c, 0, 68, 39
1, 461070, Note_off_c, 0, 68, 64
1, 461118, Note_on_c, 0, 70, 28
1, 461132, Note_off_c, 0, 54, 64
1, 461210, Note_off_c, 0, 70, 64
1, 461232, Note_on_c, 0, 68, 27
1, 461249, Note_off_c, 0, 56, 64
1, 461304, Note_off_c, 0, 68, 64
1, 461334, Note_on_c, 0, 66, 31
1, 461340, Note_off_c, 0, 47, 64
1, 461404, Note_off_c, 0, 66, 64
1, 461430, Note_on_c, 0, 58, 46
1, 461432, Note_on_c, 0, 63, 43
1, 461460, Note_on_c, 0, 49, 30
1, 461498, Note_off_c, 0, 63, 64
1, 461530, Note_on_c, 0, 66, 28
1, 461532, Note_on_c, 0, 54, 6
1, 461612, Note_off_c, 0, 54, 64
1, 461626, Note_on_c, 0, 63, 32
1, 461644, Note_off_c, 0, 66, 64
1, 461704, Note_off_c, 0, 63, 64
1, 461714, Note_on_c, 0, 61, 50
1, 461756, Note_off_c, 0, 58, 64
1, 461782, Note_off_c, 0, 61, 64
1, 461814, Note_on_c, 0, 59, 73
1, 461820, Note_on_c, 0, 54, 36
1, 461826, Control_c, 0, 64, 0
1, 461828, Note_on_c, 0, 51, 46
1, 461872, Note_off_c, 0, 49, 64
1, 461936, Note_on_c, 0, 63, 51
1, 461994, Note_off_c, 0, 63, 64
1, 462026, Note_on_c, 0, 65, 47
1, 462102, Note_off_c, 0, 65, 64
1, 462120, Note_on_c, 0, 66, 52
1, 462220, Note_on_c, 0, 68, 62
1, 462242, Control_c, 0, 64, 127
1, 462252, Note_off_c, 0, 66, 64
1, 462266, Note_off_c, 0, 54, 64
1, 462312, Note_on_c, 0, 70, 59
1, 462324, Note_off_c, 0, 59, 64
1, 462352, Note_off_c, 0, 68, 64
1, 462394, Note_off_c, 0, 70, 64
1, 462428, Note_on_c, 0, 71, 66
1, 462488, Note_off_c, 0, 71, 64
1, 462514, Note_on_c, 0, 73, 59
1, 462604, Note_off_c, 0, 73, 64
1, 462624, Note_on_c, 0, 63, 62
1, 462626, Control_c, 0, 64, 0
1, 462626, Note_on_c, 0, 75, 68
1, 462658, Note_on_c, 0, 54, 34
1, 462664, Note_off_c, 0, 51, 64
1, 462676, Note_off_c, 0, 75, 64
1, 462678, Note_on_c, 0, 59, 31
1, 462742, Note_on_c, 0, 77, 63
1, 462802, Note_off_c, 0, 77, 64
1, 462824, Control_c, 0, 64, 127
1, 462844, Note_on_c, 0, 78, 56
1, 462862, Note_off_c, 0, 59, 64
1, 462877, Note_off_c, 0, 54, 64
1, 462896, Note_off_c, 0, 63, 64
1, 462936, Note_off_c, 0, 78, 64
1, 462936, Note_on_c, 0, 83, 86
1, 463026, Note_off_c, 0, 83, 64
1, 463062, Note_on_c, 0, 61, 60
1, 463065, Note_on_c, 0, 82, 45
1, 463086, Note_on_c, 0, 54, 48
1, 463089, Note_on_c, 0, 58, 31
1, 463190, Note_on_c, 0, 78, 52
1, 463200, Control_c, 0, 64, 0
1, 463202, Note_off_c, 0, 82, 64
1, 463274, Note_off_c, 0, 78, 64
1, 463302, Note_on_c, 0, 77, 38
1, 463406, Note_on_c, 0, 75, 48
1, 463444, Note_off_c, 0, 77, 64
1, 463516, Note_off_c, 0, 75, 64
1, 463516, Note_on_c, 0, 78, 55
1, 463646, Note_on_c, 0, 75, 45
1, 463670, Note_off_c, 0, 78, 64
1, 463702, Control_c, 0, 64, 127
1, 463736, Note_off_c, 0, 75, 64
1, 463766, Note_on_c, 0, 73, 40
1, 463818, Note_off_c, 0, 61, 64
1, 463862, Note_off_c, 0, 73, 64
1, 463898, Note_on_c, 0, 71, 45
1, 464006, Note_off_c, 0, 71, 64
1, 464030, Note_on_c, 0, 70, 29
1, 464062, Note_on_c, 0, 61, 65
1, 464092, Note_on_c, 0, 49, 36
1, 464116, Control_c, 0, 64, 0
1, 464134, Note_off_c, 0, 70, 64
1, 464134, Note_on_c, 0, 68, 43
1, 464200, Note_off_c, 0, 54, 64
1, 464228, Note_off_c, 0, 68, 64
1, 464246, Note_on_c, 0, 66, 43
1, 464254, Note_off_c, 0, 58, 64
1, 464270, Control_c, 0, 64, 127
1, 464338, Note_off_c, 0, 66, 64
1, 464352, Note_on_c, 0, 70, 48
1, 464388, Note_off_c, 0, 61, 64
1, 464410, Note_off_c, 0, 70, 64
1, 464470, Note_on_c, 0, 71, 62
1, 464478, Note_on_c, 0, 63, 82
1, 464508, Note_on_c, 0, 54, 52
1, 464526, Note_off_c, 0, 71, 64
1, 464562, Control_c, 0, 64, 0
1, 464582, Note_on_c, 0, 73, 40
1, 464642, Note_off_c, 0, 73, 64
1, 464654, Note_off_c, 0, 49, 64
1, 464670, Note_on_c, 0, 75, 61
1, 464736, Note_off_c, 0, 75, 64
1, 464786, Note_on_c, 0, 77, 64
1, 464822, Control_c, 0, 64, 127
1, 464848, Note_off_c, 0, 77, 64
1, 464888, Note_on_c, 0, 78, 62
1, 464996, Note_on_c, 0, 80, 67
1, 464998, Note_off_c, 0, 78, 64
1, 465106, Note_on_c, 0, 82, 61
1, 465134, Note_off_c, 0, 80, 64
1, 465176, Note_off_c, 0, 82, 64
1, 465190, Note_off_c, 0, 63, 64
1, 465212, Note_on_c, 0, 83, 85
1, 465272, Note_off_c, 0, 83, 64
1, 465298, Control_c, 0, 64, 0
1, 465316, Note_on_c, 0, 61, 62
1, 465328, Note_on_c, 0, 84, 67
1, 465332, Note_on_c, 0, 58, 28
1, 465338, Note_off_c, 0, 54, 64
1, 465346, Note_on_c, 0, 49, 23
1, 465448, Note_on_c, 0, 85, 59
1, 465458, Note_off_c, 0, 84, 64
1, 465484, Control_c, 0, 64, 127
1, 465506, Note_off_c, 0, 49, 64
1, 465554, Note_off_c, 0, 85, 64
1, 465564, Note_on_c, 0, 90, 38
1, 465570, Note_off_c, 0, 58, 64
1, 465582, Note_off_c, 0, 61, 64
1, 465674, Note_off_c, 0, 90, 64
1, 465692, Note_on_c, 0, 87, 32
1, 465762, Note_off_c, 0, 87, 64
1, 465798, Note_on_c, 0, 70, 45
1, 465806, Note_on_c, 0, 85, 47
1, 465844, Note_on_c, 0, 61, 25
1, 465860, Note_on_c, 0, 58, 19
1, 465868, Control_c, 0, 64, 0
1, 465884, Note_off_c, 0, 85, 64
1, 465962, Note_on_c, 0, 87, 35
1, 466054, Note_off_c, 0, 87, 64
1, 466080, Note_on_c, 0, 85, 37
1, 466144, Control_c, 0, 64, 127
1, 466156, Note_off_c, 0, 85, 64
1, 466208, Note_on_c, 0, 82, 30
1, 466292, Note_off_c, 0, 82, 64
1, 466320, Note_on_c, 0, 80, 32
1, 466400, Note_off_c, 0, 80, 64
1, 466478, Note_on_c, 0, 82, 20
1, 466566, Note_off_c, 0, 82, 64
1, 466574, Note_on_c, 0, 80, 35
1, 466624, Note_off_c, 0, 70, 64
1, 466638, Note_off_c, 0, 61, 64
1, 466650, Note_off_c, 0, 80, 64
1, 466660, Note_off_c, 0, 58, 64
1, 466704, Note_on_c, 0, 78, 40
1, 466776, Note_off_c, 0, 78, 64
1, 466824, Note_on_c, 0, 66, 46
1, 466827, Note_on_c, 0, 75, 28
1, 466856, Note_on_c, 0, 58, 13
1, 466898, Note_off_c, 0, 75, 64
1, 466901, Note_on_c, 0, 61, 17
1, 466972, Note_on_c, 0, 78, 24
1, 467070, Note_off_c, 0, 78, 64
1, 467098, Note_on_c, 0, 75, 29
1, 467116, Note_off_c, 0, 61, 64
1, 467128, Note_off_c, 0, 66, 64
1, 467166, Note_off_c, 0, 75, 64
1, 467192, Note_on_c, 0, 73, 35
1, 467262, Note_off_c, 0, 73, 64
1, 467312, Control_c, 0, 64, 0
1, 467315, Note_on_c, 0, 66, 39
1, 467332, Note_on_c, 0, 71, 55
1, 467346, Note_on_c, 0, 63, 30
1, 467360, Note_on_c, 0, 56, 21
1, 467372, Note_off_c, 0, 58, 64
1, 467486, Note_on_c, 0, 75, 34
1, 467496, Note_off_c, 0, 71, 64
1, 467612, Note_on_c, 0, 78, 39
1, 467615, Note_off_c, 0, 75, 64
1, 467710, Control_c, 0, 64, 127
1, 467718, Note_off_c, 0, 78, 64
1, 467732, Note_on_c, 0, 82, 41
1, 467786, Note_off_c, 0, 82, 64
1, 467872, Note_on_c, 0, 83, 68
1, 467948, Note_off_c, 0, 83, 64
1, 468006, Note_on_c, 0, 85, 40
1, 468060, Note_off_c, 0, 56, 64
1, 468120, Note_off_c, 0, 85, 64
1, 468154, Note_on_c, 0, 87, 31
1, 468188, Note_off_c, 0, 63, 64
1, 468204, Note_off_c, 0, 66, 64
1, 468242, Note_off_c, 0, 87, 64
1, 468314, Note_on_c, 0, 89, 28
1, 468412, Note_off_c, 0, 89, 64
1, 468446, Note_on_c, 0, 71, 41
1, 468464, Control_c, 0, 64, 0
1, 468478, Note_on_c, 0, 61, 24
1, 468480, Note_on_c, 0, 65, 23
1, 468484, Note_on_c, 0, 90, 18
1, 468666, Note_off_c, 0, 90, 64
1, 468668, Note_on_c, 0, 92, 16
1, 468710, Control_c, 0, 64, 127
1, 468762, Note_off_c, 0, 71, 64
1, 468804, Note_off_c, 0, 65, 64
1, 468826, Note_off_c, 0, 61, 64
1, 468852, Note_off_c, 0, 92, 64
1, 468854, Note_on_c, 0, 94, 35
1, 469052, Note_off_c, 0, 94, 64
1, 469078, Note_on_c, 0, 95, 23
1, 469206, Note_on_c, 0, 54, 25
1, 469248, Control_c, 0, 64, 0
1, 469314, Note_on_c, 0, 61, 23
1, 469402, Note_on_c, 0, 96, 27
1, 469410, Note_off_c, 0, 54, 64
1, 469432, Note_off_c, 0, 95, 64
1, 469434, Control_c, 0, 64, 127
1, 469500, Note_on_c, 0, 70, 42
1, 469672, Note_off_c, 0, 96, 64
1, 469674, Note_on_c, 0, 97, 26
1, 469846, Note_off_c, 0, 97, 64
1, 469884, Note_on_c, 0, 102, 16
1, 469990, Note_off_c, 0, 102, 64
1, 470032, Note_on_c, 0, 99, 24
1, 470120, Note_off_c, 0, 99, 64
1, 470166, Note_on_c, 0, 97, 20
1, 470226, Note_off_c, 0, 97, 64
1, 470258, Note_on_c, 0, 95, 31
1, 470352, Note_off_c, 0, 95, 64
1, 470356, Note_on_c, 0, 94, 37
1, 470420, Note_off_c, 0, 94, 64
1, 470436, Note_on_c, 0, 92, 35
1, 470538, Note_off_c, 0, 92, 64
1, 470538, Note_on_c, 0, 94, 34
1, 470620, Note_off_c, 0, 94, 64
1, 470632, Note_on_c, 0, 90, 45
1, 470686, Note_off_c, 0, 90, 64
1, 470732, Note_on_c, 0, 89, 19
1, 470800, Note_on_c, 0, 87, 43
1, 470818, Note_off_c, 0, 89, 64
1, 470888, Note_on_c, 0, 85, 43
1, 470930, Note_off_c, 0, 87, 64
1, 470960, Note_on_c, 0, 90, 50
1, 470966, Note_off_c, 0, 85, 64
1, 471066, Note_on_c, 0, 87, 33
1, 471092, Note_off_c, 0, 90, 64
1, 471120, Note_on_c, 0, 85, 50
1, 471136, Note_off_c, 0, 87, 64
1, 471142, Note_off_c, 0, 70, 64
1, 471168, Note_off_c, 0, 85, 64
1, 471204, Note_on_c, 0, 83, 63
1, 471254, Note_off_c, 0, 61, 64
1, 471264, Note_on_c, 0, 82, 63
1, 471276, Note_off_c, 0, 83, 64
1, 471318, Note_on_c, 0, 80, 51
1, 471346, Note_off_c, 0, 82, 64
1, 471384, Note_on_c, 0, 78, 61
1, 471422, Note_off_c, 0, 80, 64
1, 471442, Note_off_c, 0, 78, 64
1, 471448, Note_on_c, 0, 82, 57
1, 471524, Note_on_c, 0, 78, 57
1, 471564, Note_off_c, 0, 82, 64
1, 471592, Note_off_c, 0, 78, 64
1, 471594, Note_on_c, 0, 77, 58
1, 471654, Note_off_c, 0, 77, 64
1, 471678, Note_on_c, 0, 75, 65
1, 471746, Note_on_c, 0, 73, 68
1, 471798, Note_off_c, 0, 75, 64
1, 471798, Note_on_c, 0, 78, 69
1, 471844, Note_off_c, 0, 73, 64
1, 471872, Note_on_c, 0, 75, 61
1, 471924, Note_on_c, 0, 73, 55
1, 471946, Note_off_c, 0, 78, 64
1, 471972, Note_off_c, 0, 75, 64
1, 471988, Note_on_c, 0, 71, 68
1, 472006, Note_off_c, 0, 73, 64
1, 472058, Note_on_c, 0, 70, 69
1, 472098, Note_off_c, 0, 71, 64
1, 472118, Note_on_c, 0, 68, 61
1, 472160, Note_on_c, 0, 66, 70
1, 472180, Note_off_c, 0, 70, 64
1, 472198, Note_off_c, 0, 68, 64
1, 472232, Note_on_c, 0, 70, 76
1, 472250, Note_off_c, 0, 66, 64
1, 472300, Note_on_c, 0, 66, 44
1, 472336, Note_off_c, 0, 70, 64
1, 472342, Note_on_c, 0, 65, 73
1, 472348, Note_off_c, 0, 66, 64
1, 472426, Note_on_c, 0, 63, 83
1, 472448, Note_off_c, 0, 65, 64
1, 472488, Note_on_c, 0, 61, 79
1, 472542, Note_off_c, 0, 63, 64
1, 472546, Note_on_c, 0, 66, 68
1, 472582, Note_off_c, 0, 61, 64
1, 472616, Note_on_c, 0, 63, 67
1, 472666, Note_on_c, 0, 61, 64
1, 472698, Note_off_c, 0, 66, 64
1, 472718, Note_off_c, 0, 63, 64
1, 472734, Note_on_c, 0, 59, 68
1, 472766, Note_off_c, 0, 61, 64
1, 472800, Note_on_c, 0, 58, 71
1, 472848, Note_on_c, 0, 56, 70
1, 472862, Note_off_c, 0, 59, 64
1, 472906, Note_on_c, 0, 54, 92
1, 472920, Note_off_c, 0, 58, 64
1, 472950, Note_off_c, 0, 56, 64
1, 472968, Note_on_c, 0, 58, 76
1, 473014, Note_off_c, 0, 54, 64
1, 473040, Note_on_c, 0, 54, 52
1, 473096, Note_off_c, 0, 58, 64
1, 473096, Note_on_c, 0, 53, 100
1, 473144, Note_off_c, 0, 54, 64
1, 473166, Note_on_c, 0, 51, 91
1, 473188, Note_off_c, 0, 53, 64
1, 473244, Note_on_c, 0, 49, 92
1, 473308, Note_on_c, 0, 47, 93
1, 473310, Note_off_c, 0, 51, 64
1, 473336, Note_off_c, 0, 49, 64
1, 473378, Note_on_c, 0, 46, 83
1, 473434, Note_on_c, 0, 44, 86
1, 473444, Note_off_c, 0, 47, 64
1, 473496, Note_on_c, 0, 42, 90
1, 473524, Note_off_c, 0, 46, 64
1, 473558, Note_off_c, 0, 44, 64
1, 473558, Note_on_c, 0, 41, 94
1, 473578, Note_off_c, 0, 42, 64
1, 473628, Note_on_c, 0, 39, 95
1, 473666, Note_off_c, 0, 41, 64
1, 473714, Note_on_c, 0, 37, 97
1, 473770, Note_off_c, 0, 39, 64
1, 473788, Note_on_c, 0, 35, 91
1, 473820, Note_off_c, 0, 37, 64
1, 473824, Note_on_c, 0, 36, 44
1, 473852, Note_on_c, 0, 34, 89
1, 473878, Note_off_c, 0, 36, 64
1, 473910, Note_off_c, 0, 35, 64
1, 473916, Note_on_c, 0, 32, 92
1, 473996, Note_on_c, 0, 30, 118
1, 474002, Note_off_c, 0, 34, 64
1, 474034, Note_off_c, 0, 32, 64
1, 474042, Control_c, 0, 64, 0
1, 474432, Note_off_c, 0, 30, 64
1, 474746, Note_on_c, 0, 61, 108
1, 474754, Note_on_c, 0, 49, 99
1, 474756, Note_on_c, 0, 73, 98
1, 474756, Note_on_c, 0, 85, 106
1, 474902, Control_c, 0, 64, 127
1, 474930, Note_off_c, 0, 49, 64
1, 474954, Note_off_c, 0, 61, 64
1, 474966, Note_off_c, 0, 73, 64
1, 475020, Note_off_c, 0, 85, 64
1, 475102, Note_on_c, 0, 90, 106
1, 475104, Note_on_c, 0, 78, 103
1, 475110, Note_on_c, 0, 66, 97
1, 475119, Note_on_c, 0, 54, 94
1, 475256, Control_c, 0, 64, 0
1, 475452, Note_off_c, 0, 66, 64
1, 475478, Note_off_c, 0, 90, 64
1, 475488, Note_off_c, 0, 54, 64
1, 475516, Control_c, 0, 64, 127
1, 475538, Note_off_c, 0, 78, 64
1, 475548, Control_c, 0, 64, 0
1, 476038, Note_on_c, 0, 61, 96
1, 476038, Note_on_c, 0, 73, 100
1, 476044, Note_on_c, 0, 49, 105
1, 476050, Note_on_c, 0, 37, 105
1, 476224, Control_c, 0, 64, 127
1, 476240, Note_off_c, 0, 49, 64
1, 476276, Note_off_c, 0, 61, 64
1, 476348, Note_off_c, 0, 37, 64
1, 476352, Note_off_c, 0, 73, 64
1, 476576, Note_on_c, 0, 78, 102
1, 476579, Note_on_c, 0, 66, 92
1, 476579, Note_on_c, 0, 42, 101
1, 476584, Note_on_c, 0, 30, 103
1, 476668, Control_c, 0, 64, 0
1, 477238, Control_c, 0, 64, 127
1, 477482, Note_off_c, 0, 66, 64
1, 477496, Note_off_c, 0, 42, 64
1, 477550, Note_off_c, 0, 30, 64
1, 477648, Note_off_c, 0, 78, 64
1, 477806, Control_c, 0, 64, 0
1, 480000, Control_c, 0, 64, 0
1, 480000, End_track
0, 0, End_of_file
