0, 0, Header, 0, 1, 480
1, 0, Start_track
1, 0, SMPTE_offset, 96, 0, 0, 0, 0
1, 0, Time_signature, 4, 2, 24, 8
1, 0, Key_signature, 0, "major"
1, 0, Tempo, 500000
1, 0, Control_c, 0, 64, 127
1, 0, Control_c, 0, 64, 0
1, 0, Control_c, 0, 64, 127
1, 0, Note_on_c, 0, 75, 44
1, 836, Note_off_c, 0, 75, 64
1, 912, Note_on_c, 0, 32, 21
1, 972, Note_on_c, 0, 75, 48
1, 1072, Note_off_c, 0, 32, 64
1, 1260, Note_on_c, 0, 51, 41
1, 1270, Note_on_c, 0, 68, 31
1, 1364, Note_off_c, 0, 68, 64
1, 1394, Note_on_c, 0, 56, 24
1, 1400, Note_on_c, 0, 72, 18
1, 1472, Note_off_c, 0, 56, 64
1, 1478, Note_off_c, 0, 72, 64
1, 1504, Note_on_c, 0, 60, 31
1, 1524, Note_on_c, 0, 63, 41
1, 1576, Note_off_c, 0, 51, 64
1, 1600, Note_off_c, 0, 60, 64
1, 1626, Note_on_c, 0, 56, 23
1, 1662, Note_on_c, 0, 68, 31
1, 1698, Note_off_c, 0, 63, 64
1, 1698, Note_off_c, 0, 56, 64
1, 1712, Note_on_c, 0, 51, 36
1, 1734, Note_off_c, 0, 75, 64
1, 1752, Note_on_c, 0, 72, 34
1, 1756, Note_off_c, 0, 68, 64
1, 1800, Note_off_c, 0, 51, 64
1, 1824, Note_on_c, 0, 75, 53
1, 1844, Note_on_c, 0, 44, 47
1, 1872, Note_off_c, 0, 72, 64
1, 1906, Note_off_c, 0, 44, 64
1, 1940, Note_on_c, 0, 68, 44
1, 1986, Note_on_c, 0, 51, 14
1, 2018, Note_off_c, 0, 68, 64
1, 2046, Note_on_c, 0, 56, 46
1, 2056, Note_off_c, 0, 51, 64
1, 2058, Note_on_c, 0, 72, 28
1, 2106, Note_off_c, 0, 56, 64
1, 2132, Note_off_c, 0, 72, 64
1, 2136, Note_on_c, 0, 63, 51
1, 2162, Note_on_c, 0, 60, 26
1, 2234, Note_off_c, 0, 60, 64
1, 2248, Note_on_c, 0, 68, 43
1, 2252, Note_on_c, 0, 56, 34
1, 2266, Note_off_c, 0, 75, 64
1, 2266, Note_off_c, 0, 63, 64
1, 2314, Note_off_c, 0, 68, 64
1, 2324, Note_off_c, 0, 56, 64
1, 2334, Note_on_c, 0, 72, 47
1, 2340, Note_on_c, 0, 51, 32
1, 2424, Note_on_c, 0, 44, 55
1, 2432, Note_on_c, 0, 75, 72
1, 2435, Note_off_c, 0, 51, 64
1, 2480, Note_off_c, 0, 72, 64
1, 2484, Note_off_c, 0, 44, 64
1, 2520, Note_on_c, 0, 51, 40
1, 2522, Note_on_c, 0, 68, 47
1, 2592, Note_off_c, 0, 51, 64
1, 2610, Note_off_c, 0, 68, 64
1, 2624, Note_on_c, 0, 56, 41
1, 2646, Note_on_c, 0, 72, 35
1, 2686, Note_off_c, 0, 56, 64
1, 2700, Note_on_c, 0, 63, 52
1, 2712, Note_off_c, 0, 72, 64
1, 2722, Note_on_c, 0, 60, 41
1, 2788, Note_off_c, 0, 60, 64
1, 2802, Note_on_c, 0, 68, 46
1, 2805, Note_off_c, 0, 75, 64
1, 2828, Note_off_c, 0, 63, 64
1, 2876, Note_off_c, 0, 68, 64
1, 2886, Note_on_c, 0, 72, 48
1, 2889, Note_on_c, 0, 51, 39
1, 2960, Note_off_c, 0, 51, 64
1, 2982, Note_on_c, 0, 44, 51
1, 2994, Note_on_c, 0, 75, 79
1, 3028, Note_off_c, 0, 72, 64
1, 3034, Note_off_c, 0, 44, 64
1, 3086, Note_on_c, 0, 68, 52
1, 3182, Note_on_c, 0, 56, 44
1, 3188, Note_off_c, 0, 68, 64
1, 3202, Note_on_c, 0, 72, 35
1, 3242, Note_off_c, 0, 56, 64
1, 3264, Note_off_c, 0, 72, 64
1, 3288, Note_on_c, 0, 63, 46
1, 3300, Note_on_c, 0, 60, 36
1, 3362, Note_off_c, 0, 60, 64
1, 3394, Note_off_c, 0, 63, 64
1, 3414, Note_on_c, 0, 68, 40
1, 3454, Note_off_c, 0, 75, 64
1, 3476, Note_off_c, 0, 68, 64
1, 3476, Note_on_c, 0, 51, 28
1, 3496, Note_on_c, 0, 72, 48
1, 3586, Note_off_c, 0, 51, 64
1, 3588, Note_on_c, 0, 44, 46
1, 3590, Control_c, 0, 64, 0
1, 3596, Note_on_c, 0, 77, 82
1, 3626, Note_off_c, 0, 72, 64
1, 3700, Note_off_c, 0, 44, 64
1, 3714, Note_on_c, 0, 68, 22
1, 3730, Note_on_c, 0, 51, 19
1, 3744, Control_c, 0, 64, 127
1, 3786, Note_off_c, 0, 77, 64
1, 3818, Note_off_c, 0, 51, 64
1, 3832, Note_on_c, 0, 72, 27
1, 3840, Note_on_c, 0, 56, 33
1, 3872, Note_off_c, 0, 68, 64
1, 3900, Note_off_c, 0, 72, 64
1, 3906, Note_off_c, 0, 56, 64
1, 3944, Note_on_c, 0, 63, 28
1, 3990, Note_on_c, 0, 60, 19
1, 4018, Note_off_c, 0, 63, 64
1, 4060, Note_off_c, 0, 60, 64
1, 4068, Note_on_c, 0, 56, 28
1, 4078, Note_on_c, 0, 68, 34
1, 4140, Note_off_c, 0, 56, 64
1, 4142, Note_off_c, 0, 68, 64
1, 4170, Note_on_c, 0, 51, 20
1, 4174, Note_on_c, 0, 72, 37
1, 4270, Note_off_c, 0, 51, 64
1, 4272, Note_off_c, 0, 72, 64
1, 4282, Note_on_c, 0, 75, 62
1, 4306, Note_on_c, 0, 44, 19
1, 4358, Control_c, 0, 64, 0
1, 4412, Note_on_c, 0, 68, 40
1, 4430, Note_off_c, 0, 44, 64
1, 4438, Note_on_c, 0, 51, 20
1, 4486, Note_off_c, 0, 68, 64
1, 4486, Control_c, 0, 64, 127
1, 4516, Note_off_c, 0, 51, 64
1, 4540, Note_on_c, 0, 72, 27
1, 4548, Note_on_c, 0, 56, 31
1, 4604, Note_off_c, 0, 72, 64
1, 4610, Note_on_c, 0, 63, 38
1, 4613, Note_off_c, 0, 56, 64
1, 4642, Note_on_c, 0, 60, 29
1, 4708, Note_off_c, 0, 60, 64
1, 4712, Note_on_c, 0, 56, 25
1, 4730, Note_off_c, 0, 63, 64
1, 4752, Note_off_c, 0, 75, 64
1, 4752, Note_on_c, 0, 68, 24
1, 4784, Note_off_c, 0, 56, 64
1, 4818, Note_off_c, 0, 68, 64
1, 4834, Note_on_c, 0, 51, 6
1, 4852, Note_on_c, 0, 72, 19
1, 4900, Note_off_c, 0, 51, 64
1, 4908, Note_on_c, 0, 44, 53
1, 4926, Note_off_c, 0, 72, 64
1, 4930, Note_on_c, 0, 75, 38
1, 4970, Note_off_c, 0, 44, 64
1, 5060, Note_on_c, 0, 68, 24
1, 5136, Note_off_c, 0, 68, 64
1, 5142, Note_on_c, 0, 56, 37
1, 5178, Note_on_c, 0, 72, 23
1, 5210, Note_off_c, 0, 56, 64
1, 5248, Note_on_c, 0, 63, 43
1, 5251, Note_off_c, 0, 72, 64
1, 5256, Note_on_c, 0, 60, 34
1, 5312, Note_off_c, 0, 75, 64
1, 5324, Note_off_c, 0, 60, 64
1, 5350, Note_off_c, 0, 63, 64
1, 5364, Note_on_c, 0, 68, 41
1, 5388, Note_on_c, 0, 56, 11
1, 5432, Note_off_c, 0, 68, 64
1, 5436, Note_off_c, 0, 56, 64
1, 5452, Note_on_c, 0, 72, 43
1, 5457, Note_on_c, 0, 51, 41
1, 5522, Note_off_c, 0, 51, 64
1, 5532, Note_off_c, 0, 72, 64
1, 5550, Note_on_c, 0, 44, 51
1, 5552, Note_on_c, 0, 75, 69
1, 5604, Note_off_c, 0, 44, 64
1, 5674, Note_on_c, 0, 68, 39
1, 5738, Note_off_c, 0, 68, 64
1, 5741, Note_on_c, 0, 56, 54
1, 5752, Note_on_c, 0, 72, 55
1, 5796, Note_off_c, 0, 56, 64
1, 5818, Note_off_c, 0, 72, 64
1, 5840, Note_on_c, 0, 63, 58
1, 5850, Note_on_c, 0, 60, 40
1, 5916, Note_off_c, 0, 60, 64
1, 5940, Note_on_c, 0, 68, 59
1, 5944, Note_on_c, 0, 56, 29
1, 5948, Note_off_c, 0, 63, 64
1, 5950, Note_off_c, 0, 75, 64
1, 6010, Note_on_c, 0, 51, 55
1, 6018, Note_off_c, 0, 56, 64
1, 6030, Note_on_c, 0, 72, 54
1, 6046, Note_off_c, 0, 68, 64
1, 6074, Note_off_c, 0, 51, 64
1, 6114, Note_on_c, 0, 44, 63
1, 6116, Note_on_c, 0, 75, 82
1, 6126, Control_c, 0, 64, 0
1, 6160, Note_off_c, 0, 72, 64
1, 6188, Note_off_c, 0, 44, 64
1, 6226, Note_on_c, 0, 70, 48
1, 6242, Note_on_c, 0, 51, 32
1, 6278, Control_c, 0, 64, 127
1, 6312, Note_off_c, 0, 51, 64
1, 6322, Note_on_c, 0, 73, 41
1, 6328, Note_off_c, 0, 70, 64
1, 6330, Note_on_c, 0, 55, 36
1, 6394, Note_off_c, 0, 55, 64
1, 6416, Note_off_c, 0, 73, 64
1, 6416, Note_on_c, 0, 63, 65
1, 6422, Note_on_c, 0, 61, 56
1, 6486, Note_off_c, 0, 61, 64
1, 6508, Note_on_c, 0, 70, 46
1, 6510, Note_off_c, 0, 63, 64
1, 6520, Note_off_c, 0, 75, 64
1, 6526, Note_on_c, 0, 55, 19
1, 6594, Note_on_c, 0, 73, 55
1, 6596, Note_off_c, 0, 55, 64
1, 6598, Note_on_c, 0, 51, 46
1, 6602, Note_off_c, 0, 70, 64
1, 6656, Note_off_c, 0, 73, 64
1, 6668, Note_off_c, 0, 51, 64
1, 6702, Note_on_c, 0, 75, 88
1, 6714, Note_on_c, 0, 44, 54
1, 6764, Note_off_c, 0, 44, 64
1, 6806, Note_on_c, 0, 70, 49
1, 6822, Note_on_c, 0, 51, 26
1, 6894, Note_off_c, 0, 51, 64
1, 6904, Note_on_c, 0, 73, 44
1, 6906, Note_off_c, 0, 70, 64
1, 6906, Note_on_c, 0, 55, 46
1, 6968, Note_off_c, 0, 55, 64
1, 6974, Note_off_c, 0, 73, 64
1, 7002, Note_on_c, 0, 63, 67
1, 7012, Note_on_c, 0, 61, 48
1, 7068, Note_off_c, 0, 61, 64
1, 7098, Note_off_c, 0, 63, 64
1, 7108, Note_on_c, 0, 70, 47
1, 7168, Note_on_c, 0, 51, 43
1, 7170, Note_on_c, 0, 73, 58
1, 7188, Note_off_c, 0, 75, 64
1, 7232, Note_off_c, 0, 70, 64
1, 7238, Note_off_c, 0, 51, 64
1, 7282, Note_on_c, 0, 77, 89
1, 7285, Note_on_c, 0, 44, 62
1, 7294, Control_c, 0, 64, 0
1, 7326, Note_off_c, 0, 73, 64
1, 7350, Note_off_c, 0, 44, 64
1, 7382, Note_on_c, 0, 70, 49
1, 7404, Note_on_c, 0, 51, 36
1, 7430, Control_c, 0, 64, 127
1, 7468, Note_off_c, 0, 51, 64
1, 7476, Note_off_c, 0, 77, 64
1, 7490, Note_on_c, 0, 55, 42
1, 7493, Note_on_c, 0, 73, 42
1, 7528, Note_off_c, 0, 70, 64
1, 7558, Note_off_c, 0, 55, 64
1, 7570, Note_off_c, 0, 73, 64
1, 7592, Note_on_c, 0, 63, 52
1, 7600, Note_on_c, 0, 61, 36
1, 7672, Note_off_c, 0, 61, 64
1, 7688, Note_off_c, 0, 63, 64
1, 7702, Note_on_c, 0, 70, 38
1, 7796, Note_on_c, 0, 73, 50
1, 7799, Note_off_c, 0, 70, 64
1, 7806, Note_on_c, 0, 51, 38
1, 7850, Note_off_c, 0, 73, 64
1, 7872, Note_off_c, 0, 51, 64
1, 7900, Note_on_c, 0, 75, 86
1, 7910, Note_on_c, 0, 44, 59
1, 7960, Note_off_c, 0, 44, 64
1, 8012, Note_on_c, 0, 70, 44
1, 8050, Note_on_c, 0, 51, 19
1, 8078, Note_off_c, 0, 70, 64
1, 8106, Note_on_c, 0, 73, 40
1, 8116, Note_on_c, 0, 55, 45
1, 8124, Note_off_c, 0, 51, 64
1, 8180, Note_off_c, 0, 55, 64
1, 8188, Note_off_c, 0, 73, 64
1, 8234, Note_on_c, 0, 63, 57
1, 8240, Note_on_c, 0, 61, 47
1, 8304, Note_off_c, 0, 61, 64
1, 8307, Note_off_c, 0, 63, 64
1, 8346, Note_on_c, 0, 70, 36
1, 8368, Note_on_c, 0, 55, 36
1, 8426, Note_off_c, 0, 70, 64
1, 8426, Note_off_c, 0, 55, 64
1, 8440, Note_on_c, 0, 73, 44
1, 8448, Note_off_c, 0, 75, 64
1, 8478, Note_on_c, 0, 51, 23
1, 8488, Note_off_c, 0, 73, 64
1, 8570, Note_off_c, 0, 51, 64
1, 8660, Control_c, 0, 64, 0
1, 8680, Note_on_c, 0, 82, 75
1, 8700, Note_on_c, 0, 44, 36
1, 8844, Control_c, 0, 64, 127
1, 8876, Note_off_c, 0, 82, 64
1, 8898, Note_off_c, 0, 44, 64
1, 8944, Note_on_c, 0, 72, 44
1, 8950, Note_on_c, 0, 51, 36
1, 9012, Note_off_c, 0, 72, 64
1, 9020, Note_off_c, 0, 51, 64
1, 9054, Note_on_c, 0, 56, 32
1, 9076, Note_on_c, 0, 75, 23
1, 9122, Note_off_c, 0, 56, 64
1, 9142, Note_on_c, 0, 63, 58
1, 9168, Note_off_c, 0, 75, 64
1, 9200, Note_on_c, 0, 60, 14
1, 9208, Note_off_c, 0, 63, 64
1, 9266, Note_off_c, 0, 60, 64
1, 9272, Note_on_c, 0, 72, 43
1, 9332, Note_off_c, 0, 72, 64
1, 9337, Note_on_c, 0, 75, 45
1, 9406, Note_off_c, 0, 75, 64
1, 9420, Note_on_c, 0, 80, 81
1, 9442, Note_on_c, 0, 44, 55
1, 9496, Note_off_c, 0, 44, 64
1, 9538, Note_on_c, 0, 72, 46
1, 9548, Note_on_c, 0, 51, 30
1, 9564, Note_off_c, 0, 80, 64
1, 9596, Note_off_c, 0, 72, 64
1, 9628, Note_on_c, 0, 75, 52
1, 9631, Note_on_c, 0, 56, 50
1, 9692, Note_off_c, 0, 56, 64
1, 9726, Note_on_c, 0, 63, 62
1, 9736, Note_on_c, 0, 60, 35
1, 9762, Note_off_c, 0, 51, 64
1, 9765, Note_off_c, 0, 75, 64
1, 9802, Note_off_c, 0, 60, 64
1, 9805, Note_off_c, 0, 63, 64
1, 9808, Note_on_c, 0, 56, 54
1, 9836, Note_on_c, 0, 72, 45
1, 9870, Note_off_c, 0, 56, 64
1, 9892, Note_on_c, 0, 75, 48
1, 9892, Note_on_c, 0, 51, 46
1, 9898, Note_off_c, 0, 72, 64
1, 9950, Note_off_c, 0, 51, 64
1, 9956, Note_off_c, 0, 75, 64
1, 9988, Note_on_c, 0, 80, 77
1, 9994, Note_on_c, 0, 44, 69
1, 9996, Control_c, 0, 64, 0
1, 10110, Note_off_c, 0, 44, 64
1, 10112, Note_on_c, 0, 52, 74
1, 10124, Note_on_c, 0, 72, 55
1, 10150, Control_c, 0, 64, 127
1, 10164, Note_off_c, 0, 80, 64
1, 10166, Note_on_c, 0, 76, 49
1, 10184, Note_off_c, 0, 52, 64
1, 10187, Note_off_c, 0, 72, 64
1, 10200, Note_on_c, 0, 56, 62
1, 10220, Note_off_c, 0, 76, 64
1, 10264, Note_off_c, 0, 56, 64
1, 10286, Note_on_c, 0, 64, 53
1, 10304, Note_on_c, 0, 60, 38
1, 10348, Note_off_c, 0, 64, 64
1, 10362, Note_off_c, 0, 60, 64
1, 10384, Note_on_c, 0, 56, 44
1, 10396, Note_on_c, 0, 72, 53
1, 10440, Note_off_c, 0, 56, 64
1, 10448, Note_on_c, 0, 76, 55
1, 10453, Note_off_c, 0, 72, 64
1, 10462, Note_on_c, 0, 52, 52
1, 10512, Note_off_c, 0, 52, 64
1, 10544, Note_off_c, 0, 76, 64
1, 10564, Note_on_c, 0, 44, 53
1, 10566, Note_on_c, 0, 80, 89
1, 10636, Note_off_c, 0, 44, 64
1, 10680, Note_on_c, 0, 52, 51
1, 10692, Note_on_c, 0, 72, 53
1, 10714, Note_off_c, 0, 80, 64
1, 10738, Note_off_c, 0, 52, 64
1, 10760, Note_on_c, 0, 76, 40
1, 10764, Note_on_c, 0, 56, 62
1, 10792, Note_off_c, 0, 72, 64
1, 10820, Note_off_c, 0, 56, 64
1, 10870, Note_off_c, 0, 76, 64
1, 10894, Note_on_c, 0, 60, 54
1, 10894, Note_on_c, 0, 64, 70
1, 10948, Note_off_c, 0, 64, 64
1, 10964, Note_off_c, 0, 60, 64
1, 11000, Note_on_c, 0, 56, 53
1, 11030, Note_on_c, 0, 72, 63
1, 11056, Note_off_c, 0, 56, 64
1, 11088, Note_on_c, 0, 52, 61
1, 11124, Note_on_c, 0, 76, 59
1, 11134, Note_off_c, 0, 52, 64
1, 11152, Note_off_c, 0, 72, 64
1, 11256, Control_c, 0, 64, 0
1, 11276, Note_on_c, 0, 80, 88
1, 11288, Note_on_c, 0, 37, 72
1, 11304, Note_off_c, 0, 76, 64
1, 11410, Note_off_c, 0, 37, 64
1, 11426, Control_c, 0, 64, 127
1, 11478, Note_on_c, 0, 73, 40
1, 11528, Note_on_c, 0, 56, 52
1, 11548, Note_off_c, 0, 73, 64
1, 11584, Note_on_c, 0, 77, 43
1, 11600, Note_on_c, 0, 61, 20
1, 11604, Note_off_c, 0, 56, 64
1, 11654, Note_on_c, 0, 68, 54
1, 11660, Note_off_c, 0, 77, 64
1, 11660, Note_on_c, 0, 65, 49
1, 11666, Note_off_c, 0, 61, 64
1, 11676, Note_off_c, 0, 80, 64
1, 11716, Note_off_c, 0, 65, 64
1, 11734, Note_on_c, 0, 61, 64
1, 11756, Note_on_c, 0, 73, 54
1, 11762, Note_off_c, 0, 68, 64
1, 11796, Note_off_c, 0, 61, 64
1, 11818, Note_on_c, 0, 56, 55
1, 11826, Note_off_c, 0, 73, 64
1, 11829, Note_on_c, 0, 77, 51
1, 11870, Note_off_c, 0, 56, 64
1, 11916, Note_on_c, 0, 80, 88
1, 11928, Note_on_c, 0, 49, 55
1, 11976, Note_off_c, 0, 49, 64
1, 11979, Note_off_c, 0, 77, 64
1, 12012, Note_on_c, 0, 73, 56
1, 12032, Note_on_c, 0, 56, 36
1, 12100, Note_off_c, 0, 73, 64
1, 12102, Note_off_c, 0, 56, 64
1, 12116, Note_on_c, 0, 77, 46
1, 12124, Note_on_c, 0, 61, 52
1, 12186, Note_off_c, 0, 61, 64
1, 12194, Note_on_c, 0, 68, 61
1, 12214, Note_on_c, 0, 65, 45
1, 12252, Note_off_c, 0, 80, 64
1, 12264, Note_off_c, 0, 77, 64
1, 12280, Note_off_c, 0, 65, 64
1, 12312, Note_on_c, 0, 73, 53
1, 12328, Note_off_c, 0, 68, 64
1, 12344, Note_on_c, 0, 61, 28
1, 12368, Note_on_c, 0, 77, 41
1, 12386, Note_on_c, 0, 56, 55
1, 12404, Note_off_c, 0, 73, 64
1, 12414, Note_off_c, 0, 61, 64
1, 12460, Note_off_c, 0, 56, 64
1, 12478, Note_on_c, 0, 80, 93
1, 12512, Note_on_c, 0, 49, 49
1, 12520, Note_off_c, 0, 77, 64
1, 12564, Note_off_c, 0, 49, 64
1, 12586, Note_on_c, 0, 73, 62
1, 12606, Note_on_c, 0, 56, 43
1, 12678, Note_on_c, 0, 61, 56
1, 12680, Note_off_c, 0, 56, 64
1, 12680, Note_on_c, 0, 77, 61
1, 12696, Note_off_c, 0, 73, 64
1, 12738, Note_off_c, 0, 61, 64
1, 12752, Note_on_c, 0, 68, 62
1, 12768, Note_on_c, 0, 65, 41
1, 12814, Note_off_c, 0, 77, 64
1, 12836, Note_off_c, 0, 65, 64
1, 12848, Note_on_c, 0, 73, 62
1, 12854, Note_on_c, 0, 61, 46
1, 12870, Note_off_c, 0, 80, 64
1, 12884, Note_off_c, 0, 68, 64
1, 12925, Note_on_c, 0, 56, 52
1, 12940, Note_off_c, 0, 61, 64
1, 12940, Note_on_c, 0, 77, 36
1, 12976, Note_off_c, 0, 73, 64
1, 12988, Note_off_c, 0, 56, 64
1, 13046, Note_on_c, 0, 82, 88
1, 13054, Control_c, 0, 64, 0
1, 13059, Note_on_c, 0, 49, 69
1, 13082, Note_off_c, 0, 77, 64
1, 13140, Note_off_c, 0, 49, 64
1, 13160, Note_on_c, 0, 55, 48
1, 13160, Note_on_c, 0, 73, 53
1, 13208, Control_c, 0, 64, 127
1, 13214, Note_off_c, 0, 55, 64
1, 13256, Note_on_c, 0, 61, 50
1, 13259, Note_on_c, 0, 77, 54
1, 13282, Note_off_c, 0, 82, 64
1, 13316, Note_off_c, 0, 73, 64
1, 13316, Note_off_c, 0, 77, 64
1, 13346, Note_off_c, 0, 61, 64
1, 13360, Note_on_c, 0, 67, 56
1, 13364, Note_on_c, 0, 65, 59
1, 13424, Note_off_c, 0, 65, 64
1, 13456, Note_on_c, 0, 73, 41
1, 13468, Note_off_c, 0, 67, 64
1, 13526, Note_on_c, 0, 77, 67
1, 13529, Note_on_c, 0, 55, 75
1, 13532, Note_off_c, 0, 73, 64
1, 13566, Note_off_c, 0, 77, 64
1, 13588, Note_off_c, 0, 55, 64
1, 13680, Note_on_c, 0, 84, 100
1, 13683, Control_c, 0, 64, 0
1, 13700, Note_on_c, 0, 48, 45
1, 13826, Note_off_c, 0, 48, 64
1, 13848, Note_on_c, 0, 55, 41
1, 13851, Note_off_c, 0, 84, 64
1, 13854, Control_c, 0, 64, 127
1, 13864, Note_on_c, 0, 72, 54
1, 13916, Note_off_c, 0, 72, 64
1, 13918, Note_off_c, 0, 55, 64
1, 13952, Note_on_c, 0, 60, 34
1, 13966, Note_on_c, 0, 77, 60
1, 14020, Note_off_c, 0, 60, 64
1, 14058, Note_on_c, 0, 65, 49
1, 14074, Note_off_c, 0, 77, 64
1, 14084, Note_on_c, 0, 67, 57
1, 14108, Note_off_c, 0, 65, 64
1, 14146, Note_off_c, 0, 67, 64
1, 14172, Note_on_c, 0, 60, 34
1, 14175, Note_on_c, 0, 72, 52
1, 14238, Note_off_c, 0, 60, 64
1, 14248, Note_off_c, 0, 72, 64
1, 14254, Note_on_c, 0, 77, 58
1, 14254, Note_on_c, 0, 55, 63
1, 14298, Note_off_c, 0, 77, 64
1, 14302, Note_off_c, 0, 55, 64
1, 14352, Note_on_c, 0, 82, 82
1, 14376, Control_c, 0, 64, 0
1, 14378, Note_on_c, 0, 48, 53
1, 14464, Note_off_c, 0, 48, 64
1, 14478, Note_on_c, 0, 55, 50
1, 14484, Control_c, 0, 64, 127
1, 14512, Note_on_c, 0, 72, 41
1, 14553, Note_off_c, 0, 55, 64
1, 14560, Note_off_c, 0, 82, 64
1, 14572, Note_off_c, 0, 72, 64
1, 14577, Note_on_c, 0, 76, 46
1, 14666, Note_off_c, 0, 76, 64
1, 14666, Note_on_c, 0, 64, 57
1, 14680, Note_on_c, 0, 67, 42
1, 14710, Note_off_c, 0, 64, 64
1, 14734, Note_on_c, 0, 60, 35
1, 14750, Note_on_c, 0, 72, 37
1, 14756, Note_off_c, 0, 67, 64
1, 14814, Note_off_c, 0, 60, 64
1, 14817, Note_on_c, 0, 76, 57
1, 14821, Note_on_c, 0, 55, 45
1, 14874, Note_off_c, 0, 72, 64
1, 14890, Note_off_c, 0, 55, 64
1, 14902, Note_on_c, 0, 80, 82
1, 14908, Note_off_c, 0, 76, 64
1, 14914, Note_on_c, 0, 53, 75
1, 14960, Control_c, 0, 64, 0
1, 15012, Note_on_c, 0, 56, 52
1, 15016, Note_on_c, 0, 72, 52
1, 15096, Note_on_c, 0, 60, 55
1, 15102, Note_off_c, 0, 56, 64
1, 15120, Note_on_c, 0, 77, 47
1, 15128, Control_c, 0, 64, 127
1, 15160, Note_off_c, 0, 60, 64
1, 15166, Note_off_c, 0, 72, 64
1, 15186, Note_off_c, 0, 53, 64
1, 15186, Note_on_c, 0, 68, 67
1, 15196, Note_off_c, 0, 77, 64
1, 15196, Note_on_c, 0, 65, 65
1, 15248, Note_off_c, 0, 65, 64
1, 15270, Note_off_c, 0, 80, 64
1, 15286, Note_off_c, 0, 68, 64
1, 15306, Note_on_c, 0, 72, 37
1, 15330, Note_on_c, 0, 56, 67
1, 15340, Note_on_c, 0, 60, 10
1, 15364, Note_on_c, 0, 77, 60
1, 15372, Note_off_c, 0, 56, 64
1, 15380, Note_off_c, 0, 72, 64
1, 15390, Note_off_c, 0, 60, 64
1, 15406, Note_off_c, 0, 77, 64
1, 15490, Note_on_c, 0, 77, 68
1, 15502, Note_on_c, 0, 47, 65
1, 15672, Note_on_c, 0, 71, 24
1, 15690, Note_on_c, 0, 53, 79
1, 15710, Note_off_c, 0, 47, 64
1, 15744, Note_off_c, 0, 53, 64
1, 15748, Note_on_c, 0, 56, 36
1, 15752, Note_off_c, 0, 71, 64
1, 15758, Note_on_c, 0, 75, 50
1, 15808, Note_off_c, 0, 56, 64
1, 15818, Note_on_c, 0, 65, 39
1, 15826, Note_on_c, 0, 63, 60
1, 15873, Note_off_c, 0, 75, 64
1, 15876, Note_off_c, 0, 63, 64
1, 15920, Note_off_c, 0, 77, 64
1, 15920, Note_on_c, 0, 71, 57
1, 15926, Note_on_c, 0, 56, 39
1, 15934, Note_off_c, 0, 65, 64
1, 15974, Note_on_c, 0, 75, 59
1, 15980, Note_on_c, 0, 53, 79
1, 15996, Note_off_c, 0, 56, 64
1, 16010, Note_off_c, 0, 71, 64
1, 16024, Note_off_c, 0, 75, 64
1, 16034, Note_off_c, 0, 53, 64
1, 16112, Control_c, 0, 64, 0
1, 16112, Note_on_c, 0, 77, 97
1, 16116, Note_on_c, 0, 46, 42
1, 16213, Note_on_c, 0, 70, 50
1, 16264, Note_on_c, 0, 53, 55
1, 16282, Control_c, 0, 64, 127
1, 16294, Note_off_c, 0, 46, 64
1, 16316, Note_on_c, 0, 75, 48
1, 16328, Note_off_c, 0, 53, 64
1, 16344, Note_off_c, 0, 70, 64
1, 16348, Note_on_c, 0, 56, 32
1, 16400, Note_off_c, 0, 75, 64
1, 16416, Note_off_c, 0, 56, 64
1, 16424, Note_on_c, 0, 65, 41
1, 16440, Note_on_c, 0, 63, 50
1, 16492, Note_off_c, 0, 65, 64
1, 16502, Note_on_c, 0, 70, 36
1, 16508, Note_off_c, 0, 63, 64
1, 16528, Note_on_c, 0, 56, 36
1, 16544, Note_off_c, 0, 77, 64
1, 16576, Note_on_c, 0, 75, 62
1, 16590, Note_off_c, 0, 56, 64
1, 16624, Note_on_c, 0, 53, 48
1, 16640, Note_off_c, 0, 75, 64
1, 16646, Note_off_c, 0, 70, 64
1, 16682, Note_off_c, 0, 53, 64
1, 16690, Note_on_c, 0, 79, 99
1, 16716, Note_on_c, 0, 46, 46
1, 16782, Note_off_c, 0, 46, 64
1, 16816, Note_on_c, 0, 70, 50
1, 16884, Note_on_c, 0, 56, 39
1, 16890, Note_off_c, 0, 79, 64
1, 16890, Note_off_c, 0, 70, 64
1, 16910, Note_on_c, 0, 75, 51
1, 16946, Note_off_c, 0, 56, 64
1, 16984, Note_on_c, 0, 63, 51
1, 16998, Note_on_c, 0, 65, 51
1, 17040, Note_off_c, 0, 75, 64
1, 17046, Note_off_c, 0, 63, 64
1, 17062, Note_off_c, 0, 65, 64
1, 17086, Note_on_c, 0, 56, 36
1, 17102, Note_on_c, 0, 70, 42
1, 17154, Note_off_c, 0, 56, 64
1, 17198, Note_off_c, 0, 70, 64
1, 17296, Control_c, 0, 64, 0
1, 17314, Note_on_c, 0, 80, 86
1, 17328, Note_on_c, 0, 46, 34
1, 17460, Note_on_c, 0, 70, 34
1, 17480, Control_c, 0, 64, 127
1, 17498, Note_on_c, 0, 53, 54
1, 17522, Note_off_c, 0, 46, 64
1, 17536, Note_off_c, 0, 80, 64
1, 17550, Note_on_c, 0, 74, 33
1, 17556, Note_off_c, 0, 53, 64
1, 17568, Note_on_c, 0, 56, 29
1, 17602, Note_off_c, 0, 74, 64
1, 17628, Note_off_c, 0, 70, 64
1, 17652, Note_off_c, 0, 56, 64
1, 17658, Note_on_c, 0, 65, 36
1, 17714, Note_on_c, 0, 62, 33
1, 17746, Note_off_c, 0, 65, 64
1, 17772, Note_off_c, 0, 62, 64
1, 17788, Note_on_c, 0, 68, 26
1, 17832, Note_on_c, 0, 56, 24
1, 17882, Note_on_c, 0, 70, 41
1, 17902, Note_off_c, 0, 56, 64
1, 17908, Note_off_c, 0, 68, 64
1, 17936, Note_off_c, 0, 70, 64
1, 17946, Note_on_c, 0, 53, 13
1, 18020, Note_off_c, 0, 53, 64
1, 18050, Note_on_c, 0, 70, 55
1, 18092, Note_on_c, 0, 46, 28
1, 18180, Note_off_c, 0, 46, 64
1, 18214, Note_on_c, 0, 65, 32
1, 18238, Note_on_c, 0, 53, 38
1, 18270, Note_off_c, 0, 65, 64
1, 18282, Note_on_c, 0, 56, 34
1, 18302, Note_on_c, 0, 68, 24
1, 18305, Note_off_c, 0, 53, 64
1, 18352, Note_off_c, 0, 56, 64
1, 18376, Note_off_c, 0, 68, 64
1, 18384, Note_on_c, 0, 58, 36
1, 18387, Note_on_c, 0, 62, 39
1, 18460, Note_off_c, 0, 62, 64
1, 18490, Note_off_c, 0, 58, 64
1, 18496, Note_on_c, 0, 56, 21
1, 18508, Note_on_c, 0, 65, 38
1, 18516, Note_off_c, 0, 70, 64
1, 18564, Note_off_c, 0, 56, 64
1, 18572, Note_off_c, 0, 65, 64
1, 18578, Note_on_c, 0, 68, 42
1, 18674, Note_on_c, 0, 70, 67
1, 18677, Control_c, 0, 64, 0
1, 18686, Note_on_c, 0, 39, 58
1, 18722, Note_off_c, 0, 68, 64
1, 18752, Note_off_c, 0, 39, 64
1, 18790, Note_on_c, 0, 46, 52
1, 18802, Note_on_c, 0, 63, 43
1, 18848, Control_c, 0, 64, 127
1, 18870, Note_off_c, 0, 46, 64
1, 18888, Note_off_c, 0, 63, 64
1, 18908, Note_on_c, 0, 68, 33
1, 18956, Note_on_c, 0, 51, 17
1, 19028, Note_off_c, 0, 51, 64
1, 19084, Note_on_c, 0, 61, 60
1, 19104, Note_on_c, 0, 58, 41
1, 19112, Note_off_c, 0, 68, 64
1, 19154, Note_off_c, 0, 61, 64
1, 19196, Note_off_c, 0, 58, 64
1, 19238, Note_on_c, 0, 63, 34
1, 19246, Note_off_c, 0, 70, 64
1, 19262, Note_on_c, 0, 51, 38
1, 19300, Note_off_c, 0, 63, 64
1, 19310, Note_on_c, 0, 68, 41
1, 19328, Note_off_c, 0, 51, 64
1, 19334, Note_on_c, 0, 46, 34
1, 19406, Note_off_c, 0, 46, 64
1, 19406, Note_on_c, 0, 72, 78
1, 19438, Note_off_c, 0, 68, 64
1, 19458, Note_on_c, 0, 39, 41
1, 19508, Note_off_c, 0, 39, 64
1, 19524, Note_off_c, 0, 72, 64
1, 19540, Note_on_c, 0, 46, 15
1, 19542, Note_on_c, 0, 63, 32
1, 19596, Note_off_c, 0, 63, 64
1, 19618, Note_on_c, 0, 68, 38
1, 19642, Note_off_c, 0, 46, 64
1, 19666, Note_on_c, 0, 51, 23
1, 19718, Note_off_c, 0, 68, 64
1, 19721, Note_on_c, 0, 56, 57
1, 19730, Note_on_c, 0, 58, 33
1, 19733, Note_off_c, 0, 51, 64
1, 19798, Note_off_c, 0, 58, 64
1, 19818, Note_on_c, 0, 63, 53
1, 19836, Note_on_c, 0, 51, 29
1, 19854, Note_off_c, 0, 56, 64
1, 19880, Note_off_c, 0, 63, 64
1, 19892, Note_on_c, 0, 68, 38
1, 19896, Note_off_c, 0, 51, 64
1, 19940, Note_on_c, 0, 46, 15
1, 20010, Note_off_c, 0, 68, 64
1, 20048, Note_off_c, 0, 46, 64
1, 20062, Control_c, 0, 64, 0
1, 20062, Note_on_c, 0, 73, 57
1, 20098, Note_on_c, 0, 39, 31
1, 20180, Note_on_c, 0, 63, 30
1, 20214, Note_off_c, 0, 39, 64
1, 20214, Control_c, 0, 64, 127
1, 20232, Note_on_c, 0, 46, 25
1, 20262, Note_off_c, 0, 73, 64
1, 20278, Note_off_c, 0, 63, 64
1, 20302, Note_on_c, 0, 67, 21
1, 20318, Note_off_c, 0, 46, 64
1, 20362, Note_on_c, 0, 51, 26
1, 20380, Note_off_c, 0, 67, 64
1, 20440, Note_on_c, 0, 58, 26
1, 20446, Note_off_c, 0, 51, 64
1, 20526, Note_on_c, 0, 55, 22
1, 20562, Note_off_c, 0, 58, 64
1, 20598, Note_off_c, 0, 55, 64
1, 20616, Note_on_c, 0, 61, 11
1, 20628, Note_on_c, 0, 51, 26
1, 20694, Note_off_c, 0, 51, 64
1, 20706, Note_on_c, 0, 63, 31
1, 20720, Note_off_c, 0, 61, 64
1, 20720, Note_on_c, 0, 46, 11
1, 20766, Note_off_c, 0, 63, 64
1, 20794, Note_off_c, 0, 46, 64
1, 20886, Note_on_c, 0, 63, 53
1, 20891, Note_on_c, 0, 39, 28
1, 21054, Note_off_c, 0, 39, 64
1, 21057, Note_on_c, 0, 46, 22
1, 21084, Note_on_c, 0, 58, 12
1, 21144, Note_off_c, 0, 46, 64
1, 21162, Note_off_c, 0, 58, 64
1, 21166, Note_on_c, 0, 61, 25
1, 21184, Note_on_c, 0, 49, 22
1, 21250, Note_off_c, 0, 61, 64
1, 21262, Note_off_c, 0, 49, 64
1, 21288, Note_on_c, 0, 55, 33
1, 21296, Note_on_c, 0, 51, 40
1, 21368, Note_off_c, 0, 55, 64
1, 21376, Note_off_c, 0, 51, 64
1, 21450, Note_on_c, 0, 58, 26
1, 21536, Note_on_c, 0, 46, 27
1, 21554, Note_off_c, 0, 58, 64
1, 21592, Note_on_c, 0, 61, 41
1, 21602, Note_off_c, 0, 46, 64
1, 21662, Note_off_c, 0, 63, 64
1, 21662, Note_off_c, 0, 61, 64
1, 21874, Control_c, 0, 64, 0
1, 21886, Note_on_c, 0, 75, 67
1, 21891, Note_on_c, 0, 32, 28
1, 22038, Note_off_c, 0, 32, 64
1, 22044, Control_c, 0, 64, 127
1, 22202, Note_on_c, 0, 68, 25
1, 22224, Note_on_c, 0, 51, 26
1, 22254, Note_off_c, 0, 75, 64
1, 22292, Note_off_c, 0, 68, 64
1, 22302, Note_off_c, 0, 51, 64
1, 22334, Note_on_c, 0, 56, 29
1, 22336, Note_on_c, 0, 72, 19
1, 22402, Note_off_c, 0, 56, 64
1, 22414, Note_off_c, 0, 72, 64
1, 22454, Note_on_c, 0, 63, 38
1, 22474, Note_on_c, 0, 60, 17
1, 22534, Note_off_c, 0, 60, 64
1, 22558, Note_off_c, 0, 63, 64
1, 22564, Note_on_c, 0, 56, 41
1, 22588, Note_on_c, 0, 68, 36
1, 22622, Note_off_c, 0, 56, 64
1, 22652, Note_off_c, 0, 68, 64
1, 22662, Note_on_c, 0, 51, 38
1, 22688, Note_on_c, 0, 72, 48
1, 22734, Note_off_c, 0, 51, 64
1, 22784, Note_off_c, 0, 72, 64
1, 22798, Note_on_c, 0, 75, 66
1, 22801, Note_on_c, 0, 44, 33
1, 22874, Note_off_c, 0, 44, 64
1, 22920, Note_on_c, 0, 68, 42
1, 22960, Note_on_c, 0, 51, 9
1, 23000, Note_off_c, 0, 68, 64
1, 23022, Note_on_c, 0, 56, 50
1, 23036, Note_off_c, 0, 51, 64
1, 23056, Note_on_c, 0, 72, 33
1, 23092, Note_off_c, 0, 56, 64
1, 23118, Note_off_c, 0, 75, 64
1, 23121, Note_off_c, 0, 72, 64
1, 23142, Note_on_c, 0, 63, 36
1, 23170, Note_on_c, 0, 60, 32
1, 23220, Note_off_c, 0, 63, 64
1, 23240, Note_off_c, 0, 60, 64
1, 23250, Note_on_c, 0, 68, 38
1, 23308, Note_off_c, 0, 68, 64
1, 23316, Note_on_c, 0, 51, 54
1, 23332, Note_on_c, 0, 72, 43
1, 23378, Note_off_c, 0, 51, 64
1, 23428, Note_off_c, 0, 72, 64
1, 23428, Note_on_c, 0, 75, 69
1, 23428, Note_on_c, 0, 44, 60
1, 23486, Note_off_c, 0, 44, 64
1, 23544, Note_on_c, 0, 68, 41
1, 23574, Note_on_c, 0, 51, 44
1, 23616, Note_off_c, 0, 68, 64
1, 23630, Note_off_c, 0, 51, 64
1, 23640, Note_on_c, 0, 56, 48
1, 23658, Note_on_c, 0, 72, 44
1, 23704, Note_off_c, 0, 56, 64
1, 23716, Note_off_c, 0, 75, 64
1, 23728, Note_off_c, 0, 72, 64
1, 23731, Note_on_c, 0, 63, 59
1, 23742, Note_on_c, 0, 60, 48
1, 23814, Note_off_c, 0, 60, 64
1, 23828, Note_off_c, 0, 63, 64
1, 23846, Note_on_c, 0, 68, 48
1, 23912, Note_off_c, 0, 68, 64
1, 23916, Note_on_c, 0, 51, 40
1, 23918, Note_on_c, 0, 72, 50
1, 23984, Note_off_c, 0, 51, 64
1, 24014, Note_on_c, 0, 75, 79
1, 24017, Note_on_c, 0, 44, 57
1, 24068, Note_off_c, 0, 72, 64
1, 24071, Note_off_c, 0, 44, 64
1, 24124, Note_on_c, 0, 68, 45
1, 24170, Note_on_c, 0, 51, 11
1, 24186, Note_off_c, 0, 68, 64
1, 24210, Note_on_c, 0, 56, 49
1, 24228, Note_off_c, 0, 51, 64
1, 24236, Note_on_c, 0, 72, 41
1, 24278, Note_off_c, 0, 56, 64
1, 24292, Note_off_c, 0, 72, 64
1, 24326, Note_on_c, 0, 63, 53
1, 24334, Note_on_c, 0, 60, 43
1, 24384, Note_off_c, 0, 63, 64
1, 24392, Note_off_c, 0, 60, 64
1, 24434, Note_on_c, 0, 68, 48
1, 24436, Note_on_c, 0, 56, 32
1, 24458, Note_off_c, 0, 75, 64
1, 24504, Note_on_c, 0, 51, 55
1, 24508, Note_off_c, 0, 56, 64
1, 24532, Note_on_c, 0, 72, 32
1, 24550, Note_off_c, 0, 68, 64
1, 24570, Note_off_c, 0, 51, 64
1, 24630, Note_on_c, 0, 77, 75
1, 24640, Control_c, 0, 64, 0
1, 24660, Note_off_c, 0, 72, 64
1, 24666, Note_on_c, 0, 44, 38
1, 24738, Note_on_c, 0, 68, 26
1, 24780, Note_off_c, 0, 44, 64
1, 24806, Note_on_c, 0, 51, 31
1, 24810, Control_c, 0, 64, 127
1, 24840, Note_off_c, 0, 77, 64
1, 24864, Note_on_c, 0, 72, 20
1, 24882, Note_off_c, 0, 51, 64
1, 24892, Note_off_c, 0, 68, 64
1, 24906, Note_on_c, 0, 56, 43
1, 24938, Note_off_c, 0, 72, 64
1, 24966, Note_off_c, 0, 56, 64
1, 24988, Note_on_c, 0, 63, 49
1, 25028, Note_on_c, 0, 60, 19
1, 25078, Note_off_c, 0, 63, 64
1, 25102, Note_off_c, 0, 60, 64
1, 25130, Note_on_c, 0, 56, 27
1, 25144, Note_on_c, 0, 68, 39
1, 25202, Note_off_c, 0, 56, 64
1, 25214, Note_on_c, 0, 51, 42
1, 25224, Note_off_c, 0, 68, 64
1, 25252, Note_on_c, 0, 72, 47
1, 25278, Note_off_c, 0, 51, 64
1, 25322, Note_on_c, 0, 44, 52
1, 25354, Note_off_c, 0, 72, 64
1, 25374, Note_on_c, 0, 75, 51
1, 25382, Note_off_c, 0, 44, 64
1, 25454, Note_on_c, 0, 51, 33
1, 25486, Note_on_c, 0, 68, 30
1, 25556, Note_on_c, 0, 56, 44
1, 25560, Note_off_c, 0, 68, 64
1, 25616, Note_on_c, 0, 72, 25
1, 25620, Note_off_c, 0, 51, 64
1, 25622, Note_off_c, 0, 56, 64
1, 25676, Note_on_c, 0, 63, 41
1, 25682, Note_on_c, 0, 60, 35
1, 25684, Note_off_c, 0, 72, 64
1, 25742, Note_off_c, 0, 60, 64
1, 25780, Note_off_c, 0, 63, 64
1, 25794, Note_on_c, 0, 68, 30
1, 25797, Note_off_c, 0, 75, 64
1, 25860, Note_off_c, 0, 68, 64
1, 25862, Note_on_c, 0, 72, 38
1, 25864, Note_on_c, 0, 51, 41
1, 25922, Note_off_c, 0, 51, 64
1, 25962, Note_off_c, 0, 72, 64
1, 25962, Note_on_c, 0, 44, 49
1, 25988, Note_on_c, 0, 75, 50
1, 26016, Note_off_c, 0, 44, 64
1, 26078, Note_on_c, 0, 68, 37
1, 26154, Note_off_c, 0, 68, 64
1, 26182, Note_on_c, 0, 56, 45
1, 26196, Note_on_c, 0, 72, 42
1, 26242, Note_off_c, 0, 56, 64
1, 26268, Note_off_c, 0, 75, 64
1, 26268, Note_off_c, 0, 72, 64
1, 26276, Note_on_c, 0, 63, 52
1, 26290, Note_on_c, 0, 60, 36
1, 26352, Note_off_c, 0, 60, 64
1, 26366, Note_off_c, 0, 63, 64
1, 26374, Note_on_c, 0, 68, 48
1, 26444, Note_on_c, 0, 72, 45
1, 26450, Note_off_c, 0, 68, 64
1, 26472, Note_on_c, 0, 51, 34
1, 26534, Note_off_c, 0, 51, 64
1, 26546, Note_on_c, 0, 75, 73
1, 26546, Note_on_c, 0, 44, 53
1, 26558, Note_off_c, 0, 72, 64
1, 26604, Note_off_c, 0, 44, 64
1, 26658, Note_on_c, 0, 68, 48
1, 26660, Note_on_c, 0, 51, 21
1, 26738, Note_off_c, 0, 51, 64
1, 26738, Note_on_c, 0, 56, 50
1, 26741, Note_off_c, 0, 68, 64
1, 26774, Note_on_c, 0, 72, 46
1, 26800, Note_off_c, 0, 56, 64
1, 26834, Note_on_c, 0, 60, 44
1, 26846, Note_on_c, 0, 63, 52
1, 26854, Note_off_c, 0, 72, 64
1, 26868, Note_off_c, 0, 75, 64
1, 26900, Note_off_c, 0, 60, 64
1, 26924, Note_on_c, 0, 56, 36
1, 26950, Note_on_c, 0, 68, 49
1, 26980, Note_off_c, 0, 63, 64
1, 26986, Note_off_c, 0, 56, 64
1, 27002, Note_on_c, 0, 51, 60
1, 27034, Note_off_c, 0, 68, 64
1, 27040, Note_on_c, 0, 72, 46
1, 27066, Note_off_c, 0, 51, 64
1, 27112, Note_off_c, 0, 72, 64
1, 27124, Note_on_c, 0, 44, 60
1, 27136, Note_on_c, 0, 75, 75
1, 27160, Control_c, 0, 64, 0
1, 27250, Note_on_c, 0, 51, 57
1, 27253, Note_off_c, 0, 44, 64
1, 27262, Note_on_c, 0, 70, 44
1, 27312, Control_c, 0, 64, 127
1, 27336, Note_off_c, 0, 51, 64
1, 27352, Note_on_c, 0, 55, 45
1, 27358, Note_on_c, 0, 73, 47
1, 27372, Note_off_c, 0, 70, 64
1, 27420, Note_off_c, 0, 55, 64
1, 27428, Note_off_c, 0, 73, 64
1, 27458, Note_on_c, 0, 61, 52
1, 27466, Note_on_c, 0, 63, 68
1, 27540, Note_off_c, 0, 63, 64
1, 27546, Note_off_c, 0, 61, 64
1, 27578, Note_on_c, 0, 70, 42
1, 27598, Note_on_c, 0, 55, 45
1, 27654, Note_off_c, 0, 70, 64
1, 27654, Note_off_c, 0, 55, 64
1, 27657, Note_on_c, 0, 73, 50
1, 27666, Note_off_c, 0, 75, 64
1, 27684, Note_on_c, 0, 51, 50
1, 27704, Note_off_c, 0, 73, 64
1, 27748, Note_off_c, 0, 51, 64
1, 27826, Note_on_c, 0, 82, 86
1, 27854, Note_on_c, 0, 44, 55
1, 27900, Note_off_c, 0, 82, 64
1, 27920, Note_off_c, 0, 44, 64
1, 27978, Note_on_c, 0, 51, 31
1, 28012, Note_on_c, 0, 70, 55
1, 28052, Note_off_c, 0, 51, 64
1, 28080, Note_on_c, 0, 55, 46
1, 28100, Note_off_c, 0, 70, 64
1, 28114, Note_on_c, 0, 73, 52
1, 28142, Note_off_c, 0, 55, 64
1, 28166, Note_off_c, 0, 73, 64
1, 28198, Note_on_c, 0, 61, 50
1, 28201, Note_on_c, 0, 63, 64
1, 28266, Note_off_c, 0, 61, 64
1, 28269, Note_off_c, 0, 63, 64
1, 28310, Note_on_c, 0, 70, 43
1, 28324, Note_on_c, 0, 55, 37
1, 28372, Note_off_c, 0, 70, 64
1, 28382, Note_on_c, 0, 73, 54
1, 28390, Note_off_c, 0, 55, 64
1, 28424, Note_off_c, 0, 73, 64
1, 28424, Note_on_c, 0, 51, 44
1, 28484, Note_off_c, 0, 51, 64
1, 28596, Note_on_c, 0, 84, 95
1, 28622, Note_on_c, 0, 44, 52
1, 28676, Note_off_c, 0, 84, 64
1, 28698, Note_off_c, 0, 44, 64
1, 28784, Note_on_c, 0, 51, 22
1, 28868, Note_off_c, 0, 51, 64
1, 28880, Note_on_c, 0, 55, 46
1, 28908, Note_on_c, 0, 73, 33
1, 28942, Note_off_c, 0, 55, 64
1, 28972, Note_off_c, 0, 73, 64
1, 28978, Note_on_c, 0, 63, 62
1, 29000, Note_on_c, 0, 61, 41
1, 29052, Note_off_c, 0, 63, 64
1, 29070, Note_off_c, 0, 61, 64
1, 29076, Note_on_c, 0, 70, 53
1, 29160, Note_on_c, 0, 73, 54
1, 29172, Note_on_c, 0, 51, 53
1, 29186, Note_off_c, 0, 70, 64
1, 29232, Note_off_c, 0, 51, 64
1, 29254, Note_on_c, 0, 79, 100
1, 29270, Note_off_c, 0, 73, 64
1, 29274, Note_on_c, 0, 44, 61
1, 29320, Note_off_c, 0, 44, 64
1, 29342, Note_off_c, 0, 79, 64
1, 29370, Note_on_c, 0, 70, 52
1, 29450, Note_off_c, 0, 70, 64
1, 29460, Note_on_c, 0, 55, 47
1, 29484, Note_on_c, 0, 73, 41
1, 29524, Note_off_c, 0, 55, 64
1, 29570, Note_on_c, 0, 61, 55
1, 29576, Note_off_c, 0, 73, 64
1, 29579, Note_on_c, 0, 63, 55
1, 29642, Note_off_c, 0, 61, 64
1, 29648, Note_off_c, 0, 63, 64
1, 29664, Note_on_c, 0, 70, 48
1, 29700, Note_on_c, 0, 55, 43
1, 29744, Note_on_c, 0, 73, 43
1, 29754, Note_off_c, 0, 55, 64
1, 29768, Note_on_c, 0, 51, 53
1, 29774, Note_off_c, 0, 70, 64
1, 29792, Note_off_c, 0, 73, 64
1, 29820, Note_off_c, 0, 51, 64
1, 29880, Control_c, 0, 64, 0
1, 29910, Note_on_c, 0, 44, 56
1, 29924, Note_on_c, 0, 82, 84
1, 30078, Control_c, 0, 64, 127
1, 30080, Note_off_c, 0, 82, 64
1, 30086, Note_off_c, 0, 44, 64
1, 30106, Note_on_c, 0, 51, 34
1, 30164, Note_on_c, 0, 72, 36
1, 30188, Note_off_c, 0, 51, 64
1, 30216, Note_on_c, 0, 56, 42
1, 30226, Note_off_c, 0, 72, 64
1, 30254, Note_on_c, 0, 75, 35
1, 30278, Note_off_c, 0, 56, 64
1, 30328, Note_off_c, 0, 75, 64
1, 30352, Note_on_c, 0, 63, 55
1, 30356, Note_on_c, 0, 60, 44
1, 30414, Note_off_c, 0, 63, 64
1, 30417, Note_off_c, 0, 60, 64
1, 30434, Note_on_c, 0, 56, 41
1, 30454, Note_on_c, 0, 72, 42
1, 30490, Note_off_c, 0, 56, 64
1, 30522, Note_off_c, 0, 72, 64
1, 30540, Note_on_c, 0, 51, 26
1, 30546, Note_on_c, 0, 75, 46
1, 30614, Note_off_c, 0, 75, 64
1, 30630, Note_on_c, 0, 80, 81
1, 30646, Note_on_c, 0, 44, 52
1, 30652, Note_off_c, 0, 51, 64
1, 30702, Note_off_c, 0, 44, 64
1, 30736, Note_on_c, 0, 72, 58
1, 30742, Note_on_c, 0, 51, 45
1, 30762, Note_off_c, 0, 80, 64
1, 30810, Note_off_c, 0, 72, 64
1, 30830, Note_on_c, 0, 75, 47
1, 30842, Note_on_c, 0, 56, 44
1, 30868, Note_off_c, 0, 51, 64
1, 30896, Note_off_c, 0, 56, 64
1, 30922, Note_on_c, 0, 60, 51
1, 30928, Note_on_c, 0, 63, 68
1, 30978, Note_off_c, 0, 75, 64
1, 30988, Note_off_c, 0, 60, 64
1, 30990, Note_on_c, 0, 56, 27
1, 31006, Note_off_c, 0, 63, 64
1, 31032, Note_on_c, 0, 72, 50
1, 31066, Note_on_c, 0, 51, 60
1, 31070, Note_off_c, 0, 56, 64
1, 31094, Note_on_c, 0, 75, 50
1, 31114, Note_off_c, 0, 72, 64
1, 31122, Note_off_c, 0, 51, 64
1, 31156, Note_off_c, 0, 75, 64
1, 31178, Note_on_c, 0, 44, 70
1, 31196, Note_on_c, 0, 80, 81
1, 31200, Control_c, 0, 64, 0
1, 31306, Note_off_c, 0, 44, 64
1, 31306, Note_on_c, 0, 72, 52
1, 31309, Note_on_c, 0, 52, 72
1, 31354, Note_off_c, 0, 80, 64
1, 31354, Control_c, 0, 64, 127
1, 31368, Note_on_c, 0, 76, 50
1, 31398, Note_off_c, 0, 72, 64
1, 31412, Note_off_c, 0, 52, 64
1, 31416, Note_on_c, 0, 56, 56
1, 31440, Note_off_c, 0, 76, 64
1, 31474, Note_off_c, 0, 56, 64
1, 31482, Note_on_c, 0, 64, 70
1, 31492, Note_on_c, 0, 60, 49
1, 31534, Note_off_c, 0, 64, 64
1, 31568, Note_off_c, 0, 60, 64
1, 31576, Note_on_c, 0, 56, 48
1, 31600, Note_on_c, 0, 72, 59
1, 31648, Note_off_c, 0, 56, 64
1, 31652, Note_on_c, 0, 52, 76
1, 31670, Note_on_c, 0, 76, 59
1, 31673, Note_off_c, 0, 72, 64
1, 31702, Note_off_c, 0, 52, 64
1, 31728, Note_off_c, 0, 76, 64
1, 31768, Note_on_c, 0, 44, 72
1, 31768, Note_on_c, 0, 80, 89
1, 31874, Note_off_c, 0, 44, 64
1, 31880, Note_on_c, 0, 72, 56
1, 31894, Note_on_c, 0, 52, 62
1, 31918, Note_off_c, 0, 80, 64
1, 31940, Note_off_c, 0, 72, 64
1, 31952, Note_on_c, 0, 76, 43
1, 31990, Note_on_c, 0, 56, 55
1, 31992, Note_off_c, 0, 52, 64
1, 32058, Note_off_c, 0, 56, 64
1, 32061, Note_off_c, 0, 76, 64
1, 32084, Note_on_c, 0, 64, 54
1, 32098, Note_on_c, 0, 60, 61
1, 32148, Note_off_c, 0, 64, 64
1, 32160, Note_off_c, 0, 60, 64
1, 32198, Note_on_c, 0, 56, 59
1, 32201, Note_on_c, 0, 72, 59
1, 32258, Note_off_c, 0, 56, 64
1, 32301, Note_on_c, 0, 52, 51
1, 32305, Note_on_c, 0, 76, 69
1, 32326, Note_off_c, 0, 72, 64
1, 32354, Note_off_c, 0, 52, 64
1, 32374, Note_off_c, 0, 76, 64
1, 32460, Control_c, 0, 64, 0
1, 32466, Note_on_c, 0, 80, 91
1, 32484, Note_on_c, 0, 37, 86
1, 32588, Note_off_c, 0, 37, 64
1, 32614, Control_c, 0, 64, 127
1, 32648, Note_on_c, 0, 73, 36
1, 32716, Note_off_c, 0, 73, 64
1, 32716, Note_on_c, 0, 56, 58
1, 32736, Note_on_c, 0, 77, 50
1, 32782, Note_off_c, 0, 56, 64
1, 32812, Note_on_c, 0, 68, 54
1, 32834, Note_off_c, 0, 80, 64
1, 32842, Note_off_c, 0, 77, 64
1, 32850, Note_on_c, 0, 65, 51
1, 32914, Note_off_c, 0, 65, 64
1, 32924, Note_on_c, 0, 73, 50
1, 32932, Note_on_c, 0, 61, 51
1, 32940, Note_off_c, 0, 68, 64
1, 32990, Note_off_c, 0, 61, 64
1, 33006, Note_on_c, 0, 56, 59
1, 33022, Note_on_c, 0, 77, 54
1, 33048, Note_off_c, 0, 73, 64
1, 33074, Note_off_c, 0, 56, 64
1, 33118, Note_on_c, 0, 80, 93
1, 33136, Note_on_c, 0, 49, 52
1, 33156, Note_off_c, 0, 77, 64
1, 33188, Note_off_c, 0, 49, 64
1, 33226, Note_on_c, 0, 73, 59
1, 33234, Note_on_c, 0, 56, 46
1, 33310, Note_off_c, 0, 56, 64
1, 33316, Note_on_c, 0, 61, 68
1, 33322, Note_on_c, 0, 77, 59
1, 33364, Note_off_c, 0, 73, 64
1, 33386, Note_off_c, 0, 61, 64
1, 33404, Note_off_c, 0, 80, 64
1, 33408, Note_on_c, 0, 68, 66
1, 33424, Note_on_c, 0, 65, 54
1, 33454, Note_off_c, 0, 77, 64
1, 33514, Note_on_c, 0, 73, 64
1, 33522, Note_off_c, 0, 68, 64
1, 33530, Note_on_c, 0, 61, 57
1, 33540, Note_off_c, 0, 65, 64
1, 33582, Note_off_c, 0, 61, 64
1, 33592, Note_on_c, 0, 56, 67
1, 33598, Note_on_c, 0, 77, 44
1, 33640, Note_off_c, 0, 73, 64
1, 33674, Note_on_c, 0, 80, 93
1, 33718, Note_on_c, 0, 49, 54
1, 33732, Note_off_c, 0, 77, 64
1, 33738, Note_off_c, 0, 56, 64
1, 33778, Note_off_c, 0, 49, 64
1, 33786, Note_on_c, 0, 73, 65
1, 33800, Note_on_c, 0, 56, 63
1, 33888, Note_off_c, 0, 56, 64
1, 33891, Note_on_c, 0, 61, 62
1, 33894, Note_on_c, 0, 77, 67
1, 33902, Note_off_c, 0, 73, 64
1, 33972, Note_off_c, 0, 61, 64
1, 33972, Note_on_c, 0, 68, 61
1, 33986, Note_on_c, 0, 65, 56
1, 33994, Note_off_c, 0, 77, 64
1, 34052, Note_on_c, 0, 73, 57
1, 34070, Note_on_c, 0, 61, 43
1, 34084, Note_off_c, 0, 65, 64
1, 34086, Note_off_c, 0, 80, 64
1, 34090, Note_off_c, 0, 68, 64
1, 34142, Note_on_c, 0, 56, 65
1, 34156, Note_off_c, 0, 61, 64
1, 34162, Note_on_c, 0, 77, 58
1, 34206, Note_off_c, 0, 73, 64
1, 34234, Note_off_c, 0, 56, 64
1, 34284, Note_on_c, 0, 82, 84
1, 34298, Note_on_c, 0, 49, 73
1, 34304, Control_c, 0, 64, 0
1, 34320, Note_off_c, 0, 77, 64
1, 34396, Note_on_c, 0, 55, 56
1, 34406, Note_on_c, 0, 73, 52
1, 34422, Note_off_c, 0, 49, 64
1, 34448, Note_off_c, 0, 55, 64
1, 34450, Control_c, 0, 64, 127
1, 34494, Note_on_c, 0, 77, 50
1, 34500, Note_on_c, 0, 61, 55
1, 34510, Note_off_c, 0, 82, 64
1, 34550, Note_off_c, 0, 77, 64
1, 34552, Note_off_c, 0, 73, 64
1, 34598, Note_on_c, 0, 67, 59
1, 34608, Note_off_c, 0, 61, 64
1, 34612, Note_on_c, 0, 65, 48
1, 34692, Note_off_c, 0, 65, 64
1, 34692, Note_on_c, 0, 61, 34
1, 34695, Note_off_c, 0, 67, 64
1, 34712, Note_on_c, 0, 73, 46
1, 34762, Note_off_c, 0, 61, 64
1, 34767, Note_on_c, 0, 77, 63
1, 34772, Note_off_c, 0, 73, 64
1, 34802, Note_on_c, 0, 55, 52
1, 34810, Note_off_c, 0, 77, 64
1, 34870, Note_off_c, 0, 55, 64
1, 34956, Note_on_c, 0, 84, 96
1, 34970, Note_on_c, 0, 48, 49
1, 34980, Control_c, 0, 64, 0
1, 35148, Control_c, 0, 64, 127
1, 35166, Note_off_c, 0, 48, 64
1, 35174, Note_off_c, 0, 84, 64
1, 35182, Note_on_c, 0, 55, 50
1, 35214, Note_on_c, 0, 72, 34
1, 35264, Note_off_c, 0, 55, 64
1, 35272, Note_off_c, 0, 72, 64
1, 35304, Note_on_c, 0, 77, 56
1, 35324, Note_on_c, 0, 60, 31
1, 35382, Note_off_c, 0, 77, 64
1, 35400, Note_off_c, 0, 60, 64
1, 35418, Note_on_c, 0, 65, 50
1, 35434, Note_on_c, 0, 67, 49
1, 35480, Note_off_c, 0, 65, 64
1, 35516, Note_off_c, 0, 67, 64
1, 35524, Note_on_c, 0, 72, 50
1, 35542, Note_on_c, 0, 60, 41
1, 35606, Note_off_c, 0, 60, 64
1, 35606, Note_on_c, 0, 77, 49
1, 35609, Note_off_c, 0, 72, 64
1, 35638, Note_on_c, 0, 55, 50
1, 35690, Note_off_c, 0, 55, 64
1, 35693, Note_on_c, 0, 79, 88
1, 35720, Note_off_c, 0, 77, 64
1, 35734, Note_on_c, 0, 48, 47
1, 35788, Note_off_c, 0, 48, 64
1, 35804, Note_on_c, 0, 72, 47
1, 35840, Note_on_c, 0, 55, 22
1, 35888, Note_on_c, 0, 77, 60
1, 35908, Note_off_c, 0, 72, 64
1, 35914, Note_off_c, 0, 79, 64
1, 35928, Note_on_c, 0, 60, 46
1, 35982, Note_off_c, 0, 55, 64
1, 35998, Note_on_c, 0, 65, 57
1, 36004, Note_off_c, 0, 60, 64
1, 36009, Note_on_c, 0, 67, 50
1, 36014, Note_off_c, 0, 77, 64
1, 36060, Note_off_c, 0, 65, 64
1, 36084, Note_on_c, 0, 72, 42
1, 36087, Note_on_c, 0, 60, 44
1, 36112, Note_off_c, 0, 67, 64
1, 36146, Note_off_c, 0, 60, 64
1, 36164, Note_on_c, 0, 77, 47
1, 36172, Note_on_c, 0, 55, 62
1, 36204, Note_off_c, 0, 72, 64
1, 36234, Note_off_c, 0, 77, 64
1, 36252, Note_off_c, 0, 55, 64
1, 36262, Note_on_c, 0, 79, 86
1, 36284, Note_on_c, 0, 48, 55
1, 36302, Control_c, 0, 64, 0
1, 36374, Note_on_c, 0, 72, 41
1, 36390, Note_on_c, 0, 55, 57
1, 36396, Note_off_c, 0, 48, 64
1, 36424, Note_on_c, 0, 76, 49
1, 36456, Control_c, 0, 64, 127
1, 36484, Note_on_c, 0, 60, 52
1, 36530, Note_off_c, 0, 72, 64
1, 36554, Note_off_c, 0, 60, 64
1, 36566, Note_on_c, 0, 64, 59
1, 36569, Note_on_c, 0, 67, 55
1, 36576, Note_off_c, 0, 76, 64
1, 36590, Note_off_c, 0, 55, 64
1, 36608, Note_off_c, 0, 79, 64
1, 36630, Note_off_c, 0, 64, 64
1, 36638, Note_on_c, 0, 60, 51
1, 36670, Note_off_c, 0, 67, 64
1, 36690, Note_on_c, 0, 72, 44
1, 36712, Note_off_c, 0, 60, 64
1, 36740, Note_on_c, 0, 55, 52
1, 36740, Note_on_c, 0, 76, 54
1, 36770, Note_off_c, 0, 72, 64
1, 36806, Note_off_c, 0, 55, 64
1, 36834, Note_on_c, 0, 79, 94
1, 36837, Note_on_c, 0, 48, 64
1, 36894, Note_off_c, 0, 48, 64
1, 36898, Note_off_c, 0, 76, 64
1, 36936, Note_on_c, 0, 72, 49
1, 36942, Note_on_c, 0, 55, 36
1, 37004, Note_on_c, 0, 76, 37
1, 37010, Note_on_c, 0, 60, 65
1, 37020, Note_off_c, 0, 72, 64
1, 37084, Note_off_c, 0, 79, 64
1, 37096, Note_off_c, 0, 60, 64
1, 37104, Note_off_c, 0, 55, 64
1, 37107, Note_on_c, 0, 67, 65
1, 37107, Note_on_c, 0, 64, 57
1, 37138, Note_off_c, 0, 76, 64
1, 37156, Note_off_c, 0, 64, 64
1, 37184, Note_on_c, 0, 60, 41
1, 37220, Note_on_c, 0, 72, 49
1, 37252, Note_off_c, 0, 60, 64
1, 37258, Note_on_c, 0, 55, 68
1, 37262, Note_off_c, 0, 67, 64
1, 37298, Note_on_c, 0, 76, 58
1, 37301, Note_off_c, 0, 55, 64
1, 37348, Note_off_c, 0, 72, 64
1, 37412, Note_on_c, 0, 43, 67
1, 37434, Note_on_c, 0, 79, 88
1, 37454, Control_c, 0, 64, 0
1, 37462, Note_off_c, 0, 76, 64
1, 37556, Note_on_c, 0, 71, 64
1, 37564, Note_off_c, 0, 43, 64
1, 37580, Note_on_c, 0, 50, 45
1, 37608, Control_c, 0, 64, 127
1, 37654, Note_on_c, 0, 76, 68
1, 37684, Note_on_c, 0, 55, 64
1, 37690, Note_off_c, 0, 79, 64
1, 37716, Note_off_c, 0, 71, 64
1, 37726, Note_off_c, 0, 50, 64
1, 37760, Note_off_c, 0, 55, 64
1, 37776, Note_off_c, 0, 76, 64
1, 37780, Note_on_c, 0, 59, 52
1, 37780, Note_on_c, 0, 65, 50
1, 37848, Note_off_c, 0, 59, 64
1, 37892, Note_on_c, 0, 71, 50
1, 37898, Note_off_c, 0, 65, 64
1, 37922, Note_on_c, 0, 55, 27
1, 37934, Note_on_c, 0, 76, 56
1, 37954, Note_off_c, 0, 71, 64
1, 37976, Note_on_c, 0, 50, 46
1, 37988, Note_off_c, 0, 55, 64
1, 38030, Note_on_c, 0, 79, 91
1, 38036, Note_off_c, 0, 50, 64
1, 38070, Note_on_c, 0, 43, 54
1, 38074, Note_off_c, 0, 76, 64
1, 38114, Note_on_c, 0, 71, 64
1, 38117, Note_off_c, 0, 43, 64
1, 38158, Note_on_c, 0, 50, 23
1, 38204, Note_on_c, 0, 74, 85
1, 38212, Note_off_c, 0, 79, 64
1, 38258, Note_off_c, 0, 71, 64
1, 38260, Note_on_c, 0, 55, 48
1, 38298, Note_off_c, 0, 50, 64
1, 38304, Note_on_c, 0, 65, 61
1, 38322, Note_off_c, 0, 55, 64
1, 38346, Note_off_c, 0, 74, 64
1, 38348, Note_on_c, 0, 59, 45
1, 38402, Note_off_c, 0, 59, 64
1, 38418, Note_on_c, 0, 71, 72
1, 38432, Note_off_c, 0, 65, 64
1, 38438, Note_on_c, 0, 55, 28
1, 38502, Note_on_c, 0, 50, 59
1, 38505, Note_on_c, 0, 74, 71
1, 38508, Note_off_c, 0, 55, 64
1, 38550, Note_off_c, 0, 71, 64
1, 38562, Note_off_c, 0, 50, 64
1, 38618, Note_on_c, 0, 79, 90
1, 38634, Note_on_c, 0, 43, 59
1, 38646, Note_off_c, 0, 74, 64
1, 38652, Control_c, 0, 64, 0
1, 38716, Note_off_c, 0, 43, 64
1, 38728, Note_on_c, 0, 71, 46
1, 38774, Note_on_c, 0, 50, 32
1, 38790, Control_c, 0, 64, 127
1, 38820, Note_on_c, 0, 77, 85
1, 38860, Note_off_c, 0, 71, 64
1, 38863, Note_off_c, 0, 50, 64
1, 38874, Note_on_c, 0, 55, 51
1, 38886, Note_off_c, 0, 79, 64
1, 38952, Note_off_c, 0, 55, 64
1, 38976, Note_off_c, 0, 77, 64
1, 38982, Note_on_c, 0, 65, 49
1, 39008, Note_on_c, 0, 62, 44
1, 39064, Note_off_c, 0, 62, 64
1, 39082, Note_off_c, 0, 65, 64
1, 39082, Note_on_c, 0, 71, 53
1, 39132, Note_on_c, 0, 55, 18
1, 39182, Note_off_c, 0, 71, 64
1, 39188, Note_off_c, 0, 55, 64
1, 39190, Note_on_c, 0, 77, 38
1, 39278, Note_on_c, 0, 79, 88
1, 39292, Note_on_c, 0, 43, 62
1, 39295, Note_off_c, 0, 77, 64
1, 39346, Note_off_c, 0, 43, 64
1, 39392, Note_on_c, 0, 71, 70
1, 39406, Note_on_c, 0, 50, 22
1, 39448, Note_off_c, 0, 79, 64
1, 39474, Note_on_c, 0, 76, 53
1, 39492, Note_on_c, 0, 55, 59
1, 39498, Note_off_c, 0, 50, 64
1, 39504, Note_off_c, 0, 71, 64
1, 39582, Note_off_c, 0, 55, 64
1, 39592, Note_off_c, 0, 76, 64
1, 39612, Note_on_c, 0, 65, 57
1, 39622, Note_on_c, 0, 62, 37
1, 39678, Note_off_c, 0, 65, 64
1, 39684, Note_off_c, 0, 62, 64
1, 39694, Note_on_c, 0, 55, 19
1, 39704, Note_on_c, 0, 71, 50
1, 39730, Note_on_c, 0, 50, 65
1, 39756, Note_off_c, 0, 55, 64
1, 39778, Note_off_c, 0, 50, 64
1, 39800, Note_on_c, 0, 76, 55
1, 39816, Note_off_c, 0, 71, 64
1, 39848, Note_off_c, 0, 76, 64
1, 39986, Note_on_c, 0, 74, 68
1, 40008, Note_on_c, 0, 36, 40
1, 40066, Control_c, 0, 64, 0
1, 40148, Note_on_c, 0, 65, 37
1, 40156, Note_off_c, 0, 36, 64
1, 40178, Note_on_c, 0, 43, 39
1, 40190, Control_c, 0, 64, 127
1, 40234, Note_off_c, 0, 74, 64
1, 40252, Note_on_c, 0, 67, 47
1, 40262, Note_on_c, 0, 48, 51
1, 40274, Note_off_c, 0, 43, 64
1, 40328, Note_off_c, 0, 65, 64
1, 40366, Note_off_c, 0, 48, 64
1, 40384, Note_on_c, 0, 60, 45
1, 40402, Note_on_c, 0, 55, 46
1, 40405, Note_off_c, 0, 67, 64
1, 40457, Note_off_c, 0, 55, 64
1, 40457, Note_on_c, 0, 65, 57
1, 40478, Note_on_c, 0, 48, 36
1, 40486, Note_off_c, 0, 60, 64
1, 40532, Note_off_c, 0, 48, 64
1, 40552, Note_on_c, 0, 67, 65
1, 40604, Note_on_c, 0, 43, 14
1, 40618, Note_off_c, 0, 65, 64
1, 40660, Note_on_c, 0, 72, 46
1, 40680, Note_off_c, 0, 43, 64
1, 40692, Note_off_c, 0, 67, 64
1, 40694, Note_on_c, 0, 36, 50
1, 40694, Control_c, 0, 64, 0
1, 40730, Note_on_c, 0, 64, 70
1, 40768, Note_off_c, 0, 36, 64
1, 40804, Control_c, 0, 64, 127
1, 40864, Note_on_c, 0, 67, 40
1, 40908, Note_on_c, 0, 48, 47
1, 40916, Note_off_c, 0, 72, 64
1, 40964, Note_off_c, 0, 64, 64
1, 40982, Note_off_c, 0, 67, 64
1, 40982, Note_on_c, 0, 60, 38
1, 40985, Note_off_c, 0, 48, 64
1, 41018, Note_on_c, 0, 55, 48
1, 41070, Note_off_c, 0, 55, 64
1, 41090, Note_on_c, 0, 64, 27
1, 41104, Note_off_c, 0, 60, 64
1, 41130, Note_on_c, 0, 48, 9
1, 41170, Note_on_c, 0, 67, 41
1, 41188, Note_off_c, 0, 48, 64
1, 41188, Note_on_c, 0, 43, 29
1, 41230, Note_off_c, 0, 64, 64
1, 41266, Note_off_c, 0, 43, 64
1, 41302, Note_on_c, 0, 72, 57
1, 41326, Control_c, 0, 64, 0
1, 41328, Note_off_c, 0, 67, 64
1, 41344, Note_on_c, 0, 36, 36
1, 41414, Note_off_c, 0, 36, 64
1, 41426, Note_on_c, 0, 62, 39
1, 41464, Control_c, 0, 64, 127
1, 41518, Note_off_c, 0, 62, 64
1, 41542, Note_on_c, 0, 67, 40
1, 41586, Note_on_c, 0, 48, 33
1, 41624, Note_off_c, 0, 67, 64
1, 41652, Note_on_c, 0, 60, 27
1, 41670, Note_off_c, 0, 48, 64
1, 41702, Note_on_c, 0, 55, 41
1, 41720, Note_off_c, 0, 60, 64
1, 41766, Note_off_c, 0, 55, 64
1, 41778, Note_off_c, 0, 72, 64
1, 41802, Note_on_c, 0, 62, 48
1, 41830, Note_on_c, 0, 48, 24
1, 41902, Note_off_c, 0, 48, 64
1, 41922, Note_on_c, 0, 67, 44
1, 41925, Note_off_c, 0, 62, 64
1, 41944, Note_on_c, 0, 43, 10
1, 42030, Note_off_c, 0, 43, 64
1, 42046, Note_on_c, 0, 72, 40
1, 42064, Control_c, 0, 64, 0
1, 42074, Note_on_c, 0, 36, 39
1, 42080, Note_off_c, 0, 67, 64
1, 42166, Note_on_c, 0, 64, 37
1, 42180, Note_off_c, 0, 36, 64
1, 42186, Control_c, 0, 64, 127
1, 42224, Note_on_c, 0, 43, 18
1, 42306, Note_on_c, 0, 67, 28
1, 42308, Note_off_c, 0, 43, 64
1, 42310, Note_on_c, 0, 48, 44
1, 42312, Note_off_c, 0, 64, 64
1, 42314, Note_off_c, 0, 72, 64
1, 42396, Note_off_c, 0, 48, 64
1, 42398, Note_off_c, 0, 67, 64
1, 42418, Note_on_c, 0, 60, 34
1, 42478, Note_on_c, 0, 55, 45
1, 42546, Note_off_c, 0, 60, 64
1, 42562, Note_off_c, 0, 55, 64
1, 42596, Note_on_c, 0, 64, 38
1, 42692, Note_off_c, 0, 64, 64
1, 42748, Note_on_c, 0, 67, 33
1, 42802, Note_on_c, 0, 43, 14
1, 42852, Note_off_c, 0, 67, 64
1, 42868, Note_off_c, 0, 43, 64
1, 43048, Note_on_c, 0, 72, 50
1, 43102, Note_on_c, 0, 40, 55
1, 43154, Control_c, 0, 64, 0
1, 43324, Control_c, 0, 64, 127
1, 43336, Note_on_c, 0, 67, 28
1, 43394, Note_off_c, 0, 40, 64
1, 43418, Note_off_c, 0, 67, 64
1, 43424, Note_on_c, 0, 70, 24
1, 43430, Note_on_c, 0, 48, 25
1, 43506, Note_off_c, 0, 70, 64
1, 43510, Note_off_c, 0, 48, 64
1, 43556, Note_on_c, 0, 60, 46
1, 43618, Note_on_c, 0, 58, 45
1, 43700, Note_off_c, 0, 60, 64
1, 43705, Note_off_c, 0, 72, 64
1, 43705, Note_on_c, 0, 67, 38
1, 43705, Note_on_c, 0, 48, 25
1, 43756, Note_off_c, 0, 58, 64
1, 43776, Note_on_c, 0, 70, 34
1, 43785, Note_off_c, 0, 48, 64
1, 43792, Note_off_c, 0, 67, 64
1, 43902, Note_off_c, 0, 70, 64
1, 43914, Note_on_c, 0, 72, 78
1, 43988, Note_on_c, 0, 40, 50
1, 44042, Note_on_c, 0, 67, 50
1, 44050, Note_off_c, 0, 40, 64
1, 44120, Note_off_c, 0, 67, 64
1, 44150, Note_on_c, 0, 70, 36
1, 44170, Note_on_c, 0, 48, 20
1, 44216, Note_off_c, 0, 70, 64
1, 44246, Note_off_c, 0, 48, 64
1, 44246, Note_on_c, 0, 60, 56
1, 44274, Note_on_c, 0, 58, 53
1, 44332, Note_off_c, 0, 60, 64
1, 44362, Note_off_c, 0, 58, 64
1, 44372, Note_on_c, 0, 67, 56
1, 44404, Note_off_c, 0, 72, 64
1, 44436, Note_on_c, 0, 70, 43
1, 44440, Note_on_c, 0, 48, 26
1, 44476, Note_off_c, 0, 67, 64
1, 44512, Note_off_c, 0, 48, 64
1, 44536, Note_on_c, 0, 73, 77
1, 44590, Note_on_c, 0, 40, 50
1, 44610, Note_off_c, 0, 70, 64
1, 44613, Control_c, 0, 64, 0
1, 44662, Note_on_c, 0, 67, 39
1, 44716, Note_off_c, 0, 40, 64
1, 44724, Note_on_c, 0, 48, 38
1, 44736, Control_c, 0, 64, 127
1, 44758, Note_on_c, 0, 70, 46
1, 44766, Note_off_c, 0, 67, 64
1, 44814, Note_off_c, 0, 48, 64
1, 44864, Note_on_c, 0, 61, 56
1, 44874, Note_on_c, 0, 58, 41
1, 44896, Note_off_c, 0, 70, 64
1, 44962, Note_off_c, 0, 58, 64
1, 44976, Note_on_c, 0, 67, 57
1, 44994, Note_off_c, 0, 61, 64
1, 45034, Note_on_c, 0, 70, 63
1, 45044, Note_on_c, 0, 48, 34
1, 45054, Note_off_c, 0, 67, 64
1, 45068, Note_off_c, 0, 73, 64
1, 45110, Note_off_c, 0, 48, 64
1, 45156, Note_on_c, 0, 72, 83
1, 45188, Note_on_c, 0, 40, 56
1, 45198, Control_c, 0, 64, 0
1, 45214, Note_off_c, 0, 70, 64
1, 45254, Note_on_c, 0, 67, 44
1, 45320, Note_off_c, 0, 40, 64
1, 45322, Note_on_c, 0, 70, 44
1, 45336, Note_on_c, 0, 48, 48
1, 45336, Control_c, 0, 64, 127
1, 45394, Note_off_c, 0, 67, 64
1, 45412, Note_off_c, 0, 48, 64
1, 45432, Note_on_c, 0, 60, 53
1, 45466, Note_off_c, 0, 70, 64
1, 45472, Note_on_c, 0, 58, 53
1, 45536, Note_off_c, 0, 58, 64
1, 45544, Note_on_c, 0, 67, 53
1, 45562, Note_off_c, 0, 60, 64
1, 45572, Note_off_c, 0, 72, 64
1, 45604, Note_on_c, 0, 70, 59
1, 45622, Note_on_c, 0, 48, 42
1, 45652, Note_off_c, 0, 67, 64
1, 45712, Note_off_c, 0, 48, 64
1, 45738, Note_on_c, 0, 72, 86
1, 45754, Note_off_c, 0, 70, 64
1, 45760, Note_on_c, 0, 41, 58
1, 45828, Control_c, 0, 64, 0
1, 45848, Note_on_c, 0, 65, 44
1, 45918, Note_off_c, 0, 65, 64
1, 45924, Note_on_c, 0, 70, 36
1, 45934, Note_on_c, 0, 48, 41
1, 45950, Control_c, 0, 64, 127
1, 45952, Note_off_c, 0, 41, 64
1, 46004, Note_off_c, 0, 48, 64
1, 46044, Note_on_c, 0, 60, 55
1, 46054, Note_off_c, 0, 70, 64
1, 46168, Note_on_c, 0, 58, 81
1, 46198, Note_on_c, 0, 65, 31
1, 46214, Note_off_c, 0, 60, 64
1, 46226, Note_on_c, 0, 70, 39
1, 46302, Note_off_c, 0, 65, 64
1, 46320, Note_off_c, 0, 72, 64
1, 46326, Note_off_c, 0, 58, 64
1, 46394, Note_on_c, 0, 48, 44
1, 46450, Note_off_c, 0, 48, 64
1, 46476, Note_on_c, 0, 74, 78
1, 46492, Note_off_c, 0, 70, 64
1, 46526, Note_on_c, 0, 41, 55
1, 46606, Note_on_c, 0, 65, 26
1, 46638, Note_on_c, 0, 48, 36
1, 46672, Note_off_c, 0, 74, 64
1, 46704, Note_off_c, 0, 65, 64
1, 46706, Note_on_c, 0, 68, 25
1, 46740, Note_off_c, 0, 48, 64
1, 46784, Note_off_c, 0, 68, 64
1, 46792, Note_on_c, 0, 60, 67
1, 46828, Note_on_c, 0, 56, 81
1, 46878, Note_on_c, 0, 54, 18
1, 46898, Note_off_c, 0, 41, 64
1, 46900, Note_on_c, 0, 65, 29
1, 46912, Note_off_c, 0, 60, 64
1, 46932, Note_off_c, 0, 54, 64
1, 46962, Note_on_c, 0, 68, 52
1, 46976, Note_off_c, 0, 65, 64
1, 47008, Note_off_c, 0, 68, 64
1, 47030, Note_on_c, 0, 48, 29
1, 47102, Note_off_c, 0, 48, 64
1, 47110, Note_on_c, 0, 76, 85
1, 47156, Note_on_c, 0, 41, 48
1, 47164, Control_c, 0, 64, 0
1, 47232, Note_off_c, 0, 56, 64
1, 47248, Note_on_c, 0, 67, 48
1, 47272, Control_c, 0, 64, 127
1, 47288, Note_on_c, 0, 48, 39
1, 47304, Note_off_c, 0, 76, 64
1, 47312, Note_off_c, 0, 67, 64
1, 47324, Note_off_c, 0, 41, 64
1, 47340, Note_on_c, 0, 72, 40
1, 47356, Note_off_c, 0, 48, 64
1, 47396, Note_off_c, 0, 72, 64
1, 47422, Note_on_c, 0, 60, 68
1, 47425, Note_on_c, 0, 55, 88
1, 47425, Note_on_c, 0, 70, 14
1, 47496, Note_off_c, 0, 60, 64
1, 47534, Note_on_c, 0, 67, 47
1, 47586, Note_off_c, 0, 67, 64
1, 47606, Note_on_c, 0, 72, 41
1, 47616, Note_off_c, 0, 70, 64
1, 47658, Note_off_c, 0, 72, 64
1, 47666, Note_on_c, 0, 48, 8
1, 47722, Note_on_c, 0, 77, 81
1, 47746, Note_off_c, 0, 48, 64
1, 47806, Note_on_c, 0, 41, 24
1, 47840, Note_on_c, 0, 68, 40
1, 47868, Note_off_c, 0, 55, 64
1, 47890, Note_off_c, 0, 77, 64
1, 47924, Note_off_c, 0, 68, 64
1, 47952, Note_on_c, 0, 48, 30
1, 48072, Note_off_c, 0, 48, 64
1, 48144, Note_on_c, 0, 53, 89
1, 48188, Note_on_c, 0, 60, 55
1, 48252, Note_off_c, 0, 41, 64
1, 48290, Note_off_c, 0, 60, 64
1, 48322, Note_on_c, 0, 68, 40
1, 48388, Note_on_c, 0, 48, 34
1, 48432, Note_on_c, 0, 72, 44
1, 48437, Note_off_c, 0, 68, 64
1, 48486, Note_off_c, 0, 72, 64
1, 48556, Note_off_c, 0, 48, 64
1, 48600, Note_on_c, 0, 75, 84
1, 48640, Note_off_c, 0, 53, 64
1, 48672, Note_on_c, 0, 43, 39
1, 48716, Control_c, 0, 64, 0
1, 48794, Note_on_c, 0, 70, 34
1, 48868, Note_off_c, 0, 43, 64
1, 48880, Note_on_c, 0, 73, 41
1, 48883, Note_on_c, 0, 51, 38
1, 48886, Control_c, 0, 64, 127
1, 48890, Note_off_c, 0, 70, 64
1, 48950, Note_off_c, 0, 51, 64
1, 48976, Note_on_c, 0, 63, 60
1, 48998, Note_off_c, 0, 73, 64
1, 49012, Note_on_c, 0, 61, 66
1, 49054, Note_off_c, 0, 63, 64
1, 49082, Note_on_c, 0, 70, 50
1, 49100, Note_off_c, 0, 75, 64
1, 49126, Note_off_c, 0, 61, 64
1, 49168, Note_on_c, 0, 73, 59
1, 49171, Note_on_c, 0, 51, 51
1, 49194, Note_off_c, 0, 70, 64
1, 49222, Note_off_c, 0, 73, 64
1, 49266, Note_off_c, 0, 51, 64
1, 49280, Note_on_c, 0, 75, 92
1, 49318, Note_on_c, 0, 43, 55
1, 49380, Note_on_c, 0, 70, 58
1, 49430, Note_off_c, 0, 43, 64
1, 49470, Note_on_c, 0, 51, 45
1, 49488, Note_on_c, 0, 73, 53
1, 49516, Note_off_c, 0, 70, 64
1, 49522, Note_off_c, 0, 51, 64
1, 49586, Note_on_c, 0, 61, 62
1, 49586, Note_on_c, 0, 63, 75
1, 49594, Note_off_c, 0, 73, 64
1, 49680, Note_on_c, 0, 70, 56
1, 49694, Note_off_c, 0, 63, 64
1, 49712, Note_off_c, 0, 61, 64
1, 49736, Note_on_c, 0, 51, 64
1, 49742, Note_on_c, 0, 73, 65
1, 49766, Note_off_c, 0, 75, 64
1, 49812, Note_off_c, 0, 70, 64
1, 49852, Note_on_c, 0, 77, 97
1, 49862, Note_off_c, 0, 51, 64
1, 49882, Note_off_c, 0, 73, 64
1, 49888, Note_on_c, 0, 43, 54
1, 49900, Control_c, 0, 64, 0
1, 49976, Note_on_c, 0, 70, 52
1, 49992, Control_c, 0, 64, 127
1, 50016, Note_on_c, 0, 51, 59
1, 50018, Note_off_c, 0, 43, 64
1, 50046, Note_on_c, 0, 73, 45
1, 50048, Note_off_c, 0, 77, 64
1, 50098, Note_off_c, 0, 51, 64
1, 50110, Note_off_c, 0, 70, 64
1, 50160, Note_on_c, 0, 63, 69
1, 50170, Note_on_c, 0, 61, 63
1, 50204, Note_off_c, 0, 73, 64
1, 50248, Note_off_c, 0, 61, 64
1, 50251, Note_on_c, 0, 70, 62
1, 50282, Note_off_c, 0, 63, 64
1, 50310, Note_on_c, 0, 51, 65
1, 50344, Note_on_c, 0, 73, 61
1, 50370, Note_off_c, 0, 70, 64
1, 50384, Note_off_c, 0, 51, 64
1, 50436, Note_on_c, 0, 75, 87
1, 50464, Note_on_c, 0, 43, 65
1, 50482, Note_off_c, 0, 73, 64
1, 50520, Note_off_c, 0, 43, 64
1, 50524, Note_on_c, 0, 70, 50
1, 50584, Note_on_c, 0, 51, 60
1, 50632, Note_on_c, 0, 73, 61
1, 50642, Note_off_c, 0, 51, 64
1, 50656, Note_off_c, 0, 70, 64
1, 50714, Note_on_c, 0, 63, 73
1, 50730, Note_off_c, 0, 75, 64
1, 50733, Note_on_c, 0, 61, 75
1, 50780, Note_off_c, 0, 73, 64
1, 50802, Note_on_c, 0, 70, 62
1, 50818, Note_off_c, 0, 61, 64
1, 50844, Note_off_c, 0, 63, 64
1, 50860, Note_on_c, 0, 51, 62
1, 50872, Note_on_c, 0, 73, 40
1, 50930, Note_off_c, 0, 51, 64
1, 50932, Note_off_c, 0, 70, 64
1, 50972, Note_on_c, 0, 75, 86
1, 50978, Note_on_c, 0, 44, 79
1, 50990, Control_c, 0, 64, 0
1, 51008, Note_off_c, 0, 73, 64
1, 51074, Note_on_c, 0, 68, 47
1, 51130, Control_c, 0, 64, 127
1, 51133, Note_on_c, 0, 51, 62
1, 51144, Note_off_c, 0, 44, 64
1, 51149, Note_off_c, 0, 68, 64
1, 51168, Note_on_c, 0, 73, 54
1, 51312, Note_off_c, 0, 73, 64
1, 51354, Note_on_c, 0, 63, 68
1, 51396, Note_on_c, 0, 61, 93
1, 51460, Note_off_c, 0, 51, 64
1, 51472, Note_off_c, 0, 63, 64
1, 51480, Note_on_c, 0, 68, 52
1, 51592, Note_off_c, 0, 61, 64
1, 51596, Note_on_c, 0, 51, 32
1, 51600, Note_on_c, 0, 73, 52
1, 51616, Note_off_c, 0, 75, 64
1, 51640, Note_off_c, 0, 68, 64
1, 51688, Note_off_c, 0, 73, 64
1, 51692, Note_off_c, 0, 51, 64
1, 51728, Note_on_c, 0, 77, 97
1, 51744, Note_on_c, 0, 44, 65
1, 51820, Note_on_c, 0, 68, 28
1, 51838, Note_off_c, 0, 44, 64
1, 51892, Note_off_c, 0, 77, 64
1, 51892, Note_on_c, 0, 51, 39
1, 51932, Note_off_c, 0, 68, 64
1, 51940, Note_on_c, 0, 72, 40
1, 52016, Note_off_c, 0, 72, 64
1, 52034, Note_on_c, 0, 63, 65
1, 52037, Note_on_c, 0, 60, 98
1, 52064, Note_off_c, 0, 51, 64
1, 52100, Note_on_c, 0, 68, 36
1, 52134, Note_off_c, 0, 63, 64
1, 52158, Note_off_c, 0, 68, 64
1, 52224, Note_on_c, 0, 51, 55
1, 52254, Note_off_c, 0, 60, 64
1, 52318, Note_on_c, 0, 79, 104
1, 52340, Note_off_c, 0, 51, 64
1, 52372, Note_on_c, 0, 44, 72
1, 52374, Control_c, 0, 64, 0
1, 52452, Note_on_c, 0, 68, 43
1, 52480, Control_c, 0, 64, 127
1, 52490, Note_on_c, 0, 51, 65
1, 52512, Note_off_c, 0, 68, 64
1, 52516, Note_on_c, 0, 72, 44
1, 52520, Note_off_c, 0, 79, 64
1, 52530, Note_off_c, 0, 44, 64
1, 52570, Note_off_c, 0, 72, 64
1, 52634, Note_on_c, 0, 58, 76
1, 52648, Note_on_c, 0, 63, 78
1, 52658, Note_off_c, 0, 51, 64
1, 52696, Note_off_c, 0, 63, 64
1, 52715, Note_on_c, 0, 68, 54
1, 52768, Note_off_c, 0, 68, 64
1, 52792, Note_on_c, 0, 72, 48
1, 52846, Note_off_c, 0, 72, 64
1, 52860, Note_on_c, 0, 51, 39
1, 52906, Note_off_c, 0, 58, 64
1, 52924, Note_on_c, 0, 80, 92
1, 52934, Note_off_c, 0, 51, 64
1, 52986, Note_on_c, 0, 44, 56
1, 53084, Note_on_c, 0, 68, 38
1, 53126, Note_off_c, 0, 80, 64
1, 53129, Note_on_c, 0, 72, 54
1, 53140, Note_off_c, 0, 68, 64
1, 53160, Note_on_c, 0, 51, 64
1, 53176, Note_off_c, 0, 72, 64
1, 53312, Note_on_c, 0, 63, 70
1, 53348, Note_off_c, 0, 51, 64
1, 53362, Note_off_c, 0, 63, 64
1, 53404, Note_on_c, 0, 56, 74
1, 53412, Note_on_c, 0, 68, 54
1, 53484, Note_off_c, 0, 68, 64
1, 53526, Note_off_c, 0, 56, 64
1, 53540, Note_on_c, 0, 72, 14
1, 53596, Note_off_c, 0, 72, 64
1, 53602, Note_on_c, 0, 51, 69
1, 53644, Note_off_c, 0, 51, 64
1, 53666, Note_off_c, 0, 44, 64
1, 53796, Note_on_c, 0, 39, 84
1, 53816, Note_on_c, 0, 79, 103
1, 53832, Control_c, 0, 64, 0
1, 53954, Note_off_c, 0, 39, 64
1, 53968, Note_on_c, 0, 72, 55
1, 53988, Control_c, 0, 64, 127
1, 54030, Note_on_c, 0, 75, 50
1, 54066, Note_off_c, 0, 72, 64
1, 54070, Note_on_c, 0, 55, 64
1, 54142, Note_on_c, 0, 67, 66
1, 54160, Note_off_c, 0, 75, 64
1, 54168, Note_off_c, 0, 79, 64
1, 54172, Note_off_c, 0, 55, 64
1, 54186, Note_on_c, 0, 60, 63
1, 54244, Note_off_c, 0, 67, 64
1, 54246, Note_on_c, 0, 72, 39
1, 54304, Note_off_c, 0, 60, 64
1, 54304, Note_on_c, 0, 75, 62
1, 54322, Note_on_c, 0, 55, 61
1, 54354, Note_off_c, 0, 72, 64
1, 54410, Note_off_c, 0, 55, 64
1, 54413, Note_off_c, 0, 75, 64
1, 54432, Note_on_c, 0, 79, 103
1, 54464, Note_on_c, 0, 48, 59
1, 54548, Note_on_c, 0, 72, 58
1, 54616, Note_on_c, 0, 55, 72
1, 54622, Note_on_c, 0, 75, 47
1, 54674, Note_off_c, 0, 72, 64
1, 54690, Note_off_c, 0, 55, 64
1, 54726, Note_on_c, 0, 67, 72
1, 54740, Note_on_c, 0, 60, 70
1, 54752, Note_off_c, 0, 75, 64
1, 54800, Note_off_c, 0, 60, 64
1, 54834, Note_off_c, 0, 67, 64
1, 54848, Note_on_c, 0, 72, 51
1, 54848, Note_on_c, 0, 55, 67
1, 54892, Note_off_c, 0, 55, 64
1, 54900, Note_off_c, 0, 48, 64
1, 54902, Note_on_c, 0, 75, 57
1, 54906, Note_off_c, 0, 79, 64
1, 55004, Note_off_c, 0, 72, 64
1, 55024, Note_on_c, 0, 80, 86
1, 55028, Note_on_c, 0, 41, 84
1, 55048, Note_off_c, 0, 75, 64
1, 55062, Control_c, 0, 64, 0
1, 55170, Note_on_c, 0, 72, 46
1, 55188, Note_on_c, 0, 50, 82
1, 55210, Note_off_c, 0, 41, 64
1, 55246, Control_c, 0, 64, 127
1, 55260, Note_off_c, 0, 72, 64
1, 55270, Note_on_c, 0, 74, 53
1, 55326, Note_off_c, 0, 80, 64
1, 55350, Note_on_c, 0, 68, 51
1, 55392, Note_on_c, 0, 60, 58
1, 55395, Note_off_c, 0, 74, 64
1, 55448, Note_on_c, 0, 72, 60
1, 55478, Note_off_c, 0, 68, 64
1, 55524, Note_on_c, 0, 56, 55
1, 55526, Note_off_c, 0, 60, 64
1, 55560, Note_on_c, 0, 74, 59
1, 55588, Note_off_c, 0, 56, 64
1, 55604, Note_off_c, 0, 72, 64
1, 55634, Note_off_c, 0, 74, 64
1, 55674, Note_on_c, 0, 77, 79
1, 55704, Note_off_c, 0, 50, 64
1, 55724, Note_on_c, 0, 43, 61
1, 55726, Control_c, 0, 64, 0
1, 55790, Note_on_c, 0, 71, 44
1, 55844, Note_on_c, 0, 50, 77
1, 55852, Note_off_c, 0, 43, 64
1, 55862, Control_c, 0, 64, 127
1, 55865, Note_on_c, 0, 74, 52
1, 55876, Note_off_c, 0, 71, 64
1, 55990, Note_off_c, 0, 50, 64
1, 56000, Note_on_c, 0, 59, 52
1, 56006, Note_on_c, 0, 65, 39
1, 56030, Note_off_c, 0, 74, 64
1, 56060, Note_off_c, 0, 77, 64
1, 56068, Note_off_c, 0, 59, 64
1, 56104, Note_on_c, 0, 71, 51
1, 56120, Note_off_c, 0, 65, 64
1, 56142, Note_on_c, 0, 55, 46
1, 56192, Note_on_c, 0, 74, 68
1, 56194, Note_off_c, 0, 71, 64
1, 56216, Note_off_c, 0, 55, 64
1, 56230, Note_on_c, 0, 50, 46
1, 56254, Note_off_c, 0, 74, 64
1, 56354, Note_off_c, 0, 50, 64
1, 56360, Note_on_c, 0, 76, 84
1, 56390, Note_on_c, 0, 48, 47
1, 56492, Note_on_c, 0, 52, 59
1, 56496, Note_on_c, 0, 67, 55
1, 56506, Control_c, 0, 64, 0
1, 56574, Note_on_c, 0, 72, 59
1, 56582, Note_on_c, 0, 55, 62
1, 56592, Note_off_c, 0, 52, 64
1, 56628, Note_off_c, 0, 67, 64
1, 56660, Control_c, 0, 64, 127
1, 56666, Note_on_c, 0, 64, 73
1, 56668, Note_on_c, 0, 60, 60
1, 56671, Note_off_c, 0, 55, 64
1, 56742, Note_off_c, 0, 72, 64
1, 56758, Note_on_c, 0, 67, 47
1, 56766, Note_off_c, 0, 48, 64
1, 56768, Note_on_c, 0, 55, 58
1, 56800, Note_off_c, 0, 76, 64
1, 56808, Note_off_c, 0, 60, 64
1, 56814, Note_on_c, 0, 72, 59
1, 56834, Note_on_c, 0, 52, 71
1, 56854, Note_off_c, 0, 55, 64
1, 56860, Note_off_c, 0, 64, 64
1, 56890, Note_off_c, 0, 67, 64
1, 56904, Note_off_c, 0, 52, 64
1, 56924, Note_on_c, 0, 48, 56
1, 56934, Note_on_c, 0, 74, 95
1, 57006, Note_off_c, 0, 72, 64
1, 57014, Note_on_c, 0, 68, 60
1, 57014, Control_c, 0, 64, 0
1, 57017, Note_on_c, 0, 53, 81
1, 57092, Note_on_c, 0, 56, 59
1, 57092, Note_on_c, 0, 71, 62
1, 57150, Note_off_c, 0, 53, 64
1, 57164, Note_off_c, 0, 68, 64
1, 57167, Control_c, 0, 64, 127
1, 57200, Note_on_c, 0, 59, 66
1, 57210, Note_off_c, 0, 56, 64
1, 57222, Note_on_c, 0, 62, 81
1, 57226, Note_off_c, 0, 71, 64
1, 57272, Note_off_c, 0, 48, 64
1, 57308, Note_on_c, 0, 56, 53
1, 57326, Note_on_c, 0, 68, 48
1, 57332, Note_off_c, 0, 62, 64
1, 57386, Note_on_c, 0, 53, 78
1, 57392, Note_on_c, 0, 71, 65
1, 57420, Note_off_c, 0, 74, 64
1, 57428, Note_off_c, 0, 56, 64
1, 57468, Note_off_c, 0, 68, 64
1, 57496, Note_off_c, 0, 53, 64
1, 57522, Note_on_c, 0, 77, 93
1, 57524, Note_on_c, 0, 48, 36
1, 57552, Control_c, 0, 64, 0
1, 57562, Note_off_c, 0, 71, 64
1, 57614, Note_on_c, 0, 68, 62
1, 57622, Note_on_c, 0, 53, 39
1, 57638, Note_off_c, 0, 59, 64
1, 57694, Note_on_c, 0, 56, 60
1, 57706, Control_c, 0, 64, 127
1, 57720, Note_off_c, 0, 48, 64
1, 57723, Note_on_c, 0, 71, 56
1, 57768, Note_off_c, 0, 68, 64
1, 57784, Note_off_c, 0, 77, 64
1, 57792, Note_off_c, 0, 53, 64
1, 57812, Note_off_c, 0, 56, 64
1, 57816, Note_on_c, 0, 62, 60
1, 57818, Note_on_c, 0, 65, 55
1, 57864, Note_off_c, 0, 71, 64
1, 57910, Note_on_c, 0, 56, 45
1, 57913, Note_on_c, 0, 68, 50
1, 57956, Note_off_c, 0, 62, 64
1, 57984, Note_off_c, 0, 68, 64
1, 57986, Note_on_c, 0, 71, 57
1, 57994, Note_on_c, 0, 53, 65
1, 57998, Note_off_c, 0, 65, 64
1, 58044, Note_off_c, 0, 56, 64
1, 58080, Note_on_c, 0, 76, 73
1, 58088, Note_off_c, 0, 53, 64
1, 58094, Note_on_c, 0, 48, 47
1, 58120, Control_c, 0, 64, 0
1, 58124, Note_off_c, 0, 71, 64
1, 58182, Note_on_c, 0, 68, 50
1, 58208, Note_on_c, 0, 52, 60
1, 58264, Note_on_c, 0, 56, 46
1, 58274, Control_c, 0, 64, 127
1, 58277, Note_off_c, 0, 48, 64
1, 58294, Note_on_c, 0, 71, 53
1, 58308, Note_off_c, 0, 68, 64
1, 58310, Note_off_c, 0, 52, 64
1, 58360, Note_off_c, 0, 76, 64
1, 58368, Note_off_c, 0, 56, 64
1, 58390, Note_on_c, 0, 62, 47
1, 58398, Note_on_c, 0, 64, 43
1, 58410, Note_off_c, 0, 71, 64
1, 58474, Note_on_c, 0, 68, 50
1, 58478, Note_off_c, 0, 62, 64
1, 58486, Note_on_c, 0, 56, 44
1, 58528, Note_off_c, 0, 64, 64
1, 58566, Note_on_c, 0, 71, 71
1, 58598, Note_off_c, 0, 68, 64
1, 58604, Note_on_c, 0, 52, 36
1, 58612, Note_off_c, 0, 56, 64
1, 58662, Note_on_c, 0, 48, 53
1, 58666, Note_off_c, 0, 52, 64
1, 58666, Note_on_c, 0, 76, 83
1, 58704, Control_c, 0, 64, 0
1, 58712, Note_off_c, 0, 71, 64
1, 58762, Note_on_c, 0, 52, 49
1, 58770, Note_on_c, 0, 67, 47
1, 58856, Note_on_c, 0, 72, 55
1, 58874, Control_c, 0, 64, 127
1, 58877, Note_on_c, 0, 55, 39
1, 58880, Note_off_c, 0, 52, 64
1, 58892, Note_off_c, 0, 67, 64
1, 58942, Note_off_c, 0, 55, 64
1, 58954, Note_on_c, 0, 60, 53
1, 58978, Note_off_c, 0, 76, 64
1, 58988, Note_on_c, 0, 64, 62
1, 59006, Note_off_c, 0, 48, 64
1, 59020, Note_off_c, 0, 72, 64
1, 59042, Note_on_c, 0, 55, 27
1, 59068, Note_on_c, 0, 67, 38
1, 59116, Note_off_c, 0, 60, 64
1, 59124, Note_on_c, 0, 52, 56
1, 59130, Note_on_c, 0, 72, 22
1, 59140, Note_off_c, 0, 55, 64
1, 59142, Note_off_c, 0, 67, 64
1, 59178, Note_off_c, 0, 52, 64
1, 59188, Note_off_c, 0, 64, 64
1, 59226, Note_on_c, 0, 74, 83
1, 59254, Note_on_c, 0, 47, 26
1, 59272, Note_off_c, 0, 72, 64
1, 59304, Control_c, 0, 64, 0
1, 59324, Note_on_c, 0, 68, 47
1, 59366, Note_on_c, 0, 53, 56
1, 59412, Note_on_c, 0, 56, 51
1, 59415, Note_on_c, 0, 71, 55
1, 59422, Note_off_c, 0, 53, 64
1, 59442, Control_c, 0, 64, 127
1, 59445, Note_off_c, 0, 68, 64
1, 59450, Note_off_c, 0, 47, 64
1, 59494, Note_off_c, 0, 56, 64
1, 59526, Note_on_c, 0, 62, 54
1, 59529, Note_off_c, 0, 71, 64
1, 59540, Note_on_c, 0, 59, 43
1, 59596, Note_off_c, 0, 62, 64
1, 59610, Note_on_c, 0, 68, 46
1, 59642, Note_on_c, 0, 56, 52
1, 59676, Note_off_c, 0, 74, 64
1, 59706, Note_off_c, 0, 56, 64
1, 59709, Note_on_c, 0, 71, 42
1, 59718, Note_on_c, 0, 53, 58
1, 59766, Note_off_c, 0, 68, 64
1, 59796, Note_off_c, 0, 53, 64
1, 59814, Note_on_c, 0, 77, 75
1, 59834, Note_on_c, 0, 47, 40
1, 59840, Note_off_c, 0, 71, 64
1, 59840, Control_c, 0, 64, 0
1, 59882, Note_off_c, 0, 59, 64
1, 59912, Note_on_c, 0, 68, 33
1, 59970, Note_on_c, 0, 53, 61
1, 59982, Note_off_c, 0, 47, 64
1, 59994, Control_c, 0, 64, 127
1, 60026, Note_on_c, 0, 71, 40
1, 60028, Note_on_c, 0, 56, 49
1, 60040, Note_off_c, 0, 53, 64
1, 60054, Note_off_c, 0, 68, 64
1, 60064, Note_off_c, 0, 77, 64
1, 60116, Note_off_c, 0, 56, 64
1, 60158, Note_off_c, 0, 71, 64
1, 60158, Note_on_c, 0, 62, 39
1, 60170, Note_on_c, 0, 65, 24
1, 60228, Note_on_c, 0, 56, 38
1, 60230, Note_off_c, 0, 62, 64
1, 60256, Note_on_c, 0, 68, 39
1, 60320, Note_off_c, 0, 56, 64
1, 60324, Note_off_c, 0, 65, 64
1, 60334, Note_off_c, 0, 68, 64
1, 60334, Note_on_c, 0, 71, 50
1, 60418, Note_on_c, 0, 47, 44
1, 60424, Note_on_c, 0, 76, 46
1, 60432, Note_off_c, 0, 71, 64
1, 60440, Control_c, 0, 64, 0
1, 60526, Note_on_c, 0, 68, 34
1, 60546, Note_on_c, 0, 52, 52
1, 60572, Note_off_c, 0, 47, 64
1, 60610, Control_c, 0, 64, 127
1, 60610, Note_on_c, 0, 56, 45
1, 60613, Note_off_c, 0, 52, 64
1, 60648, Note_off_c, 0, 68, 64
1, 60654, Note_on_c, 0, 71, 30
1, 60676, Note_off_c, 0, 56, 64
1, 60706, Note_off_c, 0, 76, 64
1, 60728, Note_on_c, 0, 62, 42
1, 60752, Note_off_c, 0, 71, 64
1, 60776, Note_on_c, 0, 64, 28
1, 60794, Note_off_c, 0, 62, 64
1, 60846, Note_on_c, 0, 56, 28
1, 60864, Note_on_c, 0, 68, 35
1, 60906, Note_off_c, 0, 64, 64
1, 60914, Note_on_c, 0, 52, 52
1, 60916, Note_off_c, 0, 56, 64
1, 60954, Note_on_c, 0, 71, 55
1, 60964, Note_off_c, 0, 52, 64
1, 60968, Note_off_c, 0, 68, 64
1, 61018, Note_off_c, 0, 71, 64
1, 61070, Control_c, 0, 64, 0
1, 61084, Note_on_c, 0, 45, 34
1, 61089, Note_on_c, 0, 76, 60
1, 61182, Note_on_c, 0, 52, 54
1, 61214, Note_off_c, 0, 45, 64
1, 61226, Note_off_c, 0, 52, 64
1, 61226, Note_on_c, 0, 69, 13
1, 61238, Control_c, 0, 64, 127
1, 61278, Note_on_c, 0, 57, 34
1, 61310, Note_on_c, 0, 73, 26
1, 61324, Note_off_c, 0, 69, 64
1, 61340, Note_off_c, 0, 57, 64
1, 61372, Note_on_c, 0, 61, 60
1, 61382, Note_off_c, 0, 73, 64
1, 61406, Note_on_c, 0, 64, 16
1, 61432, Note_off_c, 0, 61, 64
1, 61452, Note_off_c, 0, 76, 64
1, 61498, Note_on_c, 0, 69, 31
1, 61508, Note_on_c, 0, 57, 47
1, 61544, Note_on_c, 0, 73, 47
1, 61574, Note_off_c, 0, 57, 64
1, 61578, Note_off_c, 0, 69, 64
1, 61594, Note_on_c, 0, 52, 70
1, 61642, Note_off_c, 0, 52, 64
1, 61672, Note_off_c, 0, 64, 64
1, 61686, Note_on_c, 0, 74, 74
1, 61686, Note_on_c, 0, 45, 54
1, 61701, Control_c, 0, 64, 0
1, 61740, Note_off_c, 0, 73, 64
1, 61812, Note_on_c, 0, 69, 33
1, 61822, Note_on_c, 0, 54, 63
1, 61822, Control_c, 0, 64, 127
1, 61825, Note_off_c, 0, 45, 64
1, 61888, Note_off_c, 0, 54, 64
1, 61894, Note_on_c, 0, 71, 62
1, 61902, Note_off_c, 0, 69, 64
1, 61922, Note_on_c, 0, 57, 51
1, 61972, Note_off_c, 0, 57, 64
1, 62016, Note_on_c, 0, 59, 44
1, 62022, Note_off_c, 0, 71, 64
1, 62036, Note_on_c, 0, 62, 55
1, 62068, Note_off_c, 0, 59, 64
1, 62104, Note_on_c, 0, 57, 47
1, 62108, Note_off_c, 0, 62, 64
1, 62140, Note_on_c, 0, 69, 39
1, 62226, Note_off_c, 0, 57, 64
1, 62240, Note_on_c, 0, 54, 44
1, 62256, Note_off_c, 0, 69, 64
1, 62266, Note_off_c, 0, 74, 64
1, 62270, Note_on_c, 0, 71, 54
1, 62308, Note_off_c, 0, 54, 64
1, 62414, Note_on_c, 0, 45, 33
1, 62566, Note_on_c, 0, 78, 70
1, 62566, Control_c, 0, 64, 0
1, 62622, Note_off_c, 0, 71, 64
1, 62714, Control_c, 0, 64, 127
1, 62736, Note_off_c, 0, 45, 64
1, 62744, Note_on_c, 0, 54, 41
1, 62774, Note_on_c, 0, 69, 29
1, 62866, Note_off_c, 0, 54, 64
1, 62884, Note_on_c, 0, 57, 46
1, 62904, Note_on_c, 0, 71, 51
1, 62942, Note_off_c, 0, 69, 64
1, 62950, Note_off_c, 0, 78, 64
1, 62956, Note_off_c, 0, 57, 64
1, 63026, Note_on_c, 0, 62, 41
1, 63032, Note_on_c, 0, 66, 40
1, 63078, Note_off_c, 0, 71, 64
1, 63134, Note_off_c, 0, 62, 64
1, 63140, Note_on_c, 0, 57, 26
1, 63154, Note_on_c, 0, 69, 39
1, 63164, Note_off_c, 0, 66, 64
1, 63192, Note_on_c, 0, 54, 70
1, 63202, Note_off_c, 0, 57, 64
1, 63234, Note_off_c, 0, 54, 64
1, 63258, Note_off_c, 0, 69, 64
1, 63260, Note_on_c, 0, 71, 44
1, 63370, Note_on_c, 0, 45, 49
1, 63398, Note_off_c, 0, 71, 64
1, 63398, Note_on_c, 0, 76, 62
1, 63422, Control_c, 0, 64, 0
1, 63500, Note_on_c, 0, 68, 46
1, 63508, Note_off_c, 0, 45, 64
1, 63524, Note_on_c, 0, 52, 42
1, 63574, Control_c, 0, 64, 127
1, 63588, Note_on_c, 0, 56, 42
1, 63596, Note_off_c, 0, 52, 64
1, 63600, Note_on_c, 0, 74, 54
1, 63652, Note_off_c, 0, 68, 64
1, 63704, Note_off_c, 0, 74, 64
1, 63710, Note_off_c, 0, 76, 64
1, 63714, Note_off_c, 0, 56, 64
1, 63720, Note_on_c, 0, 62, 58
1, 63726, Note_on_c, 0, 64, 58
1, 63796, Note_off_c, 0, 62, 64
1, 63814, Note_on_c, 0, 56, 39
1, 63814, Note_on_c, 0, 68, 51
1, 63824, Note_off_c, 0, 64, 64
1, 63870, Note_off_c, 0, 56, 64
1, 63892, Note_on_c, 0, 52, 43
1, 63908, Note_on_c, 0, 74, 60
1, 63938, Note_off_c, 0, 68, 64
1, 63950, Note_off_c, 0, 52, 64
1, 63968, Note_off_c, 0, 74, 64
1, 64006, Note_on_c, 0, 45, 53
1, 64014, Note_on_c, 0, 76, 76
1, 64036, Control_c, 0, 64, 0
1, 64127, Note_on_c, 0, 52, 66
1, 64136, Note_on_c, 0, 69, 33
1, 64144, Note_off_c, 0, 45, 64
1, 64172, Note_off_c, 0, 52, 64
1, 64190, Control_c, 0, 64, 127
1, 64200, Note_on_c, 0, 57, 54
1, 64222, Note_on_c, 0, 73, 54
1, 64232, Note_off_c, 0, 69, 64
1, 64290, Note_off_c, 0, 57, 64
1, 64320, Note_on_c, 0, 61, 69
1, 64350, Note_on_c, 0, 64, 73
1, 64360, Note_off_c, 0, 73, 64
1, 64370, Note_off_c, 0, 61, 64
1, 64454, Note_on_c, 0, 57, 32
1, 64464, Note_on_c, 0, 69, 50
1, 64478, Note_off_c, 0, 64, 64
1, 64516, Note_off_c, 0, 57, 64
1, 64526, Note_on_c, 0, 52, 88
1, 64526, Note_on_c, 0, 73, 66
1, 64532, Note_off_c, 0, 69, 64
1, 64534, Note_off_c, 0, 76, 64
1, 64570, Note_off_c, 0, 73, 64
1, 64584, Note_off_c, 0, 52, 64
1, 64632, Note_on_c, 0, 45, 63
1, 64660, Note_on_c, 0, 81, 102
1, 64760, Note_on_c, 0, 52, 52
1, 64766, Note_off_c, 0, 45, 64
1, 64778, Note_on_c, 0, 73, 69
1, 64808, Note_off_c, 0, 52, 64
1, 64824, Note_on_c, 0, 57, 59
1, 64886, Note_off_c, 0, 57, 64
1, 64889, Note_on_c, 0, 76, 53
1, 64928, Note_off_c, 0, 73, 64
1, 64954, Note_on_c, 0, 64, 44
1, 64986, Note_on_c, 0, 69, 57
1, 65008, Note_off_c, 0, 64, 64
1, 65028, Note_off_c, 0, 76, 64
1, 65068, Note_on_c, 0, 57, 67
1, 65104, Note_on_c, 0, 73, 48
1, 65122, Note_off_c, 0, 57, 64
1, 65160, Note_off_c, 0, 69, 64
1, 65168, Note_on_c, 0, 52, 86
1, 65214, Note_on_c, 0, 76, 56
1, 65248, Note_off_c, 0, 73, 64
1, 65248, Note_off_c, 0, 52, 64
1, 65258, Note_off_c, 0, 81, 64
1, 65258, Note_off_c, 0, 76, 64
1, 65310, Note_on_c, 0, 45, 60
1, 65336, Note_on_c, 0, 83, 119
1, 65372, Control_c, 0, 64, 0
1, 65454, Note_on_c, 0, 51, 58
1, 65456, Note_on_c, 0, 75, 61
1, 65510, Note_off_c, 0, 45, 64
1, 65526, Control_c, 0, 64, 127
1, 65528, Note_on_c, 0, 54, 76
1, 65540, Note_on_c, 0, 78, 75
1, 65564, Note_off_c, 0, 83, 64
1, 65610, Note_off_c, 0, 75, 64
1, 65612, Note_off_c, 0, 51, 64
1, 65634, Note_on_c, 0, 60, 70
1, 65654, Note_off_c, 0, 54, 64
1, 65654, Note_on_c, 0, 69, 68
1, 65718, Note_on_c, 0, 54, 76
1, 65724, Note_off_c, 0, 78, 64
1, 65726, Note_on_c, 0, 75, 43
1, 65740, Note_off_c, 0, 60, 64
1, 65788, Note_off_c, 0, 69, 64
1, 65800, Note_on_c, 0, 51, 73
1, 65814, Note_on_c, 0, 78, 66
1, 65820, Note_off_c, 0, 54, 64
1, 65880, Note_off_c, 0, 75, 64
1, 65910, Control_c, 0, 64, 0
1, 65916, Note_on_c, 0, 44, 92
1, 65928, Note_on_c, 0, 84, 106
1, 65932, Note_off_c, 0, 51, 64
1, 65970, Note_off_c, 0, 78, 64
1, 66034, Note_on_c, 0, 75, 62
1, 66044, Note_on_c, 0, 51, 63
1, 66048, Control_c, 0, 64, 127
1, 66080, Note_off_c, 0, 44, 64
1, 66106, Note_off_c, 0, 84, 64
1, 66122, Note_on_c, 0, 78, 64
1, 66140, Note_on_c, 0, 54, 76
1, 66182, Note_off_c, 0, 75, 64
1, 66198, Note_off_c, 0, 51, 64
1, 66264, Note_on_c, 0, 60, 74
1, 66270, Note_off_c, 0, 54, 64
1, 66272, Note_on_c, 0, 68, 81
1, 66346, Note_off_c, 0, 78, 64
1, 66364, Note_off_c, 0, 60, 64
1, 66376, Note_off_c, 0, 68, 64
1, 66379, Note_on_c, 0, 75, 72
1, 66388, Note_on_c, 0, 54, 65
1, 66482, Note_on_c, 0, 51, 67
1, 66490, Note_on_c, 0, 78, 76
1, 66510, Note_off_c, 0, 54, 64
1, 66526, Note_off_c, 0, 51, 64
1, 66554, Note_off_c, 0, 75, 64
1, 66678, Control_c, 0, 64, 0
1, 66684, Note_on_c, 0, 84, 106
1, 66694, Note_on_c, 0, 37, 98
1, 66724, Note_off_c, 0, 78, 64
1, 66786, Note_off_c, 0, 37, 64
1, 66816, Control_c, 0, 64, 127
1, 66834, Note_off_c, 0, 84, 64
1, 66932, Note_on_c, 0, 73, 55
1, 66942, Note_on_c, 0, 56, 61
1, 67002, Note_on_c, 0, 58, 44
1, 67016, Note_on_c, 0, 77, 52
1, 67018, Note_off_c, 0, 73, 64
1, 67018, Note_off_c, 0, 56, 64
1, 67072, Note_off_c, 0, 58, 64
1, 67090, Note_on_c, 0, 61, 64
1, 67138, Note_off_c, 0, 77, 64
1, 67148, Note_on_c, 0, 65, 68
1, 67196, Note_on_c, 0, 58, 42
1, 67216, Note_off_c, 0, 61, 64
1, 67236, Note_on_c, 0, 73, 70
1, 67270, Note_off_c, 0, 65, 64
1, 67316, Note_on_c, 0, 56, 56
1, 67348, Note_on_c, 0, 77, 74
1, 67364, Note_off_c, 0, 58, 64
1, 67394, Note_off_c, 0, 73, 64
1, 67500, Note_on_c, 0, 82, 92
1, 67508, Note_off_c, 0, 56, 64
1, 67511, Note_off_c, 0, 77, 64
1, 67511, Note_on_c, 0, 49, 67
1, 67624, Note_on_c, 0, 73, 56
1, 67636, Note_on_c, 0, 56, 44
1, 67648, Note_off_c, 0, 49, 64
1, 67672, Note_off_c, 0, 82, 64
1, 67728, Note_off_c, 0, 73, 64
1, 67728, Note_on_c, 0, 77, 42
1, 67742, Note_on_c, 0, 58, 46
1, 67756, Note_off_c, 0, 56, 64
1, 67798, Note_off_c, 0, 77, 64
1, 67804, Note_off_c, 0, 58, 64
1, 67824, Note_on_c, 0, 61, 70
1, 67834, Note_on_c, 0, 65, 67
1, 67912, Note_off_c, 0, 65, 64
1, 67948, Note_off_c, 0, 61, 64
1, 67950, Note_on_c, 0, 73, 56
1, 67956, Note_on_c, 0, 58, 47
1, 68026, Note_on_c, 0, 56, 51
1, 68028, Note_on_c, 0, 77, 70
1, 68034, Note_off_c, 0, 73, 64
1, 68040, Note_off_c, 0, 58, 64
1, 68072, Note_off_c, 0, 77, 64
1, 68078, Note_off_c, 0, 56, 64
1, 68210, Note_on_c, 0, 85, 93
1, 68222, Note_on_c, 0, 37, 72
1, 68260, Note_off_c, 0, 37, 64
1, 68284, Note_off_c, 0, 85, 64
1, 68444, Note_on_c, 0, 70, 52
1, 68466, Note_on_c, 0, 56, 44
1, 68544, Note_on_c, 0, 73, 35
1, 68546, Note_off_c, 0, 56, 64
1, 68558, Note_on_c, 0, 58, 17
1, 68574, Note_off_c, 0, 70, 64
1, 68604, Note_on_c, 0, 61, 55
1, 68628, Note_off_c, 0, 73, 64
1, 68628, Note_off_c, 0, 58, 64
1, 68628, Note_on_c, 0, 65, 57
1, 68696, Note_off_c, 0, 61, 64
1, 68696, Note_on_c, 0, 58, 51
1, 68708, Note_on_c, 0, 70, 36
1, 68760, Note_off_c, 0, 65, 64
1, 68768, Note_on_c, 0, 73, 64
1, 68778, Note_on_c, 0, 56, 53
1, 68786, Note_off_c, 0, 58, 64
1, 68816, Note_off_c, 0, 70, 64
1, 68838, Note_off_c, 0, 56, 64
1, 68868, Note_on_c, 0, 77, 87
1, 68876, Note_on_c, 0, 49, 64
1, 68900, Note_off_c, 0, 73, 64
1, 68972, Note_off_c, 0, 49, 64
1, 68972, Note_on_c, 0, 70, 64
1, 68982, Note_on_c, 0, 56, 47
1, 69058, Note_off_c, 0, 56, 64
1, 69058, Note_on_c, 0, 58, 47
1, 69076, Note_off_c, 0, 77, 64
1, 69078, Note_on_c, 0, 73, 50
1, 69100, Note_off_c, 0, 70, 64
1, 69126, Note_off_c, 0, 58, 64
1, 69150, Note_on_c, 0, 61, 62
1, 69174, Note_on_c, 0, 65, 59
1, 69222, Note_off_c, 0, 73, 64
1, 69276, Note_on_c, 0, 58, 45
1, 69284, Note_on_c, 0, 70, 26
1, 69286, Note_off_c, 0, 61, 64
1, 69298, Note_off_c, 0, 65, 64
1, 69346, Note_on_c, 0, 73, 65
1, 69364, Note_on_c, 0, 56, 61
1, 69380, Note_off_c, 0, 70, 64
1, 69384, Note_off_c, 0, 73, 64
1, 69408, Note_off_c, 0, 56, 64
1, 69410, Note_off_c, 0, 58, 64
1, 69614, Control_c, 0, 64, 0
1, 69644, Note_on_c, 0, 39, 72
1, 69648, Note_on_c, 0, 82, 87
1, 69780, Note_off_c, 0, 39, 64
1, 69780, Control_c, 0, 64, 127
1, 69783, Note_off_c, 0, 82, 64
1, 69908, Note_on_c, 0, 72, 46
1, 69922, Note_on_c, 0, 51, 50
1, 69962, Note_off_c, 0, 72, 64
1, 69965, Note_on_c, 0, 75, 57
1, 69992, Note_on_c, 0, 56, 36
1, 70042, Note_on_c, 0, 60, 53
1, 70056, Note_off_c, 0, 56, 64
1, 70056, Note_on_c, 0, 63, 65
1, 70074, Note_off_c, 0, 75, 64
1, 70084, Note_off_c, 0, 51, 64
1, 70118, Note_off_c, 0, 63, 64
1, 70122, Note_off_c, 0, 60, 64
1, 70122, Note_on_c, 0, 56, 52
1, 70142, Note_on_c, 0, 72, 48
1, 70186, Note_on_c, 0, 51, 34
1, 70230, Note_off_c, 0, 72, 64
1, 70236, Note_on_c, 0, 75, 46
1, 70252, Note_off_c, 0, 56, 64
1, 70284, Note_off_c, 0, 51, 64
1, 70302, Note_on_c, 0, 80, 90
1, 70310, Note_on_c, 0, 48, 48
1, 70316, Note_off_c, 0, 75, 64
1, 70406, Note_off_c, 0, 80, 64
1, 70409, Note_on_c, 0, 72, 62
1, 70416, Note_off_c, 0, 48, 64
1, 70434, Note_on_c, 0, 51, 52
1, 70478, Note_off_c, 0, 72, 64
1, 70492, Note_on_c, 0, 56, 49
1, 70500, Note_off_c, 0, 51, 64
1, 70524, Note_on_c, 0, 75, 41
1, 70566, Note_off_c, 0, 56, 64
1, 70620, Note_on_c, 0, 60, 49
1, 70628, Note_off_c, 0, 75, 64
1, 70638, Note_on_c, 0, 63, 50
1, 70688, Note_off_c, 0, 63, 64
1, 70734, Note_off_c, 0, 60, 64
1, 70734, Note_on_c, 0, 56, 42
1, 70736, Note_on_c, 0, 72, 42
1, 70804, Note_off_c, 0, 72, 64
1, 70812, Note_on_c, 0, 51, 47
1, 70822, Note_off_c, 0, 56, 64
1, 70824, Note_on_c, 0, 75, 59
1, 70862, Note_off_c, 0, 51, 64
1, 70864, Note_off_c, 0, 75, 64
1, 71018, Note_on_c, 0, 84, 81
1, 71021, Note_on_c, 0, 39, 58
1, 71064, Note_off_c, 0, 84, 64
1, 71084, Note_off_c, 0, 39, 64
1, 71290, Note_on_c, 0, 68, 42
1, 71302, Note_on_c, 0, 51, 33
1, 71350, Note_off_c, 0, 68, 64
1, 71382, Note_on_c, 0, 72, 42
1, 71384, Note_off_c, 0, 51, 64
1, 71386, Note_on_c, 0, 56, 28
1, 71446, Note_off_c, 0, 72, 64
1, 71454, Note_off_c, 0, 56, 64
1, 71488, Note_on_c, 0, 60, 33
1, 71510, Note_on_c, 0, 63, 45
1, 71554, Note_on_c, 0, 56, 28
1, 71564, Note_off_c, 0, 60, 64
1, 71596, Note_off_c, 0, 63, 64
1, 71596, Note_on_c, 0, 68, 37
1, 71642, Note_off_c, 0, 56, 64
1, 71662, Note_off_c, 0, 68, 64
1, 71676, Note_on_c, 0, 51, 22
1, 71688, Note_on_c, 0, 72, 45
1, 71756, Note_off_c, 0, 51, 64
1, 71780, Note_on_c, 0, 75, 67
1, 71796, Note_on_c, 0, 48, 23
1, 71798, Note_off_c, 0, 72, 64
1, 71884, Note_off_c, 0, 48, 64
1, 71886, Note_on_c, 0, 68, 41
1, 71904, Note_on_c, 0, 51, 36
1, 71966, Note_off_c, 0, 51, 64
1, 71972, Note_off_c, 0, 68, 64
1, 71976, Note_on_c, 0, 56, 48
1, 71978, Note_on_c, 0, 72, 36
1, 72008, Note_off_c, 0, 75, 64
1, 72042, Note_off_c, 0, 56, 64
1, 72062, Note_off_c, 0, 72, 64
1, 72072, Note_on_c, 0, 63, 54
1, 72098, Note_on_c, 0, 60, 37
1, 72156, Note_off_c, 0, 63, 64
1, 72160, Note_off_c, 0, 60, 64
1, 72180, Note_on_c, 0, 68, 48
1, 72252, Note_off_c, 0, 68, 64
1, 72258, Note_on_c, 0, 51, 14
1, 72278, Note_on_c, 0, 72, 33
1, 72314, Note_off_c, 0, 51, 64
1, 72348, Control_c, 0, 64, 0
1, 72386, Note_on_c, 0, 39, 70
1, 72386, Note_on_c, 0, 75, 73
1, 72406, Note_off_c, 0, 72, 64
1, 72434, Note_off_c, 0, 39, 64
1, 72502, Control_c, 0, 64, 127
1, 72514, Note_on_c, 0, 67, 43
1, 72576, Note_off_c, 0, 75, 64
1, 72590, Note_off_c, 0, 67, 64
1, 72602, Note_on_c, 0, 70, 38
1, 72632, Note_on_c, 0, 51, 37
1, 72648, Note_on_c, 0, 55, 29
1, 72698, Note_on_c, 0, 61, 76
1, 72708, Note_off_c, 0, 55, 64
1, 72734, Note_on_c, 0, 63, 67
1, 72784, Note_off_c, 0, 63, 64
1, 72790, Note_off_c, 0, 70, 64
1, 72790, Note_off_c, 0, 51, 64
1, 72793, Note_off_c, 0, 61, 64
1, 72796, Note_on_c, 0, 55, 32
1, 72806, Note_on_c, 0, 67, 39
1, 72872, Note_on_c, 0, 70, 41
1, 72892, Note_off_c, 0, 67, 64
1, 72920, Note_off_c, 0, 55, 64
1, 72926, Note_on_c, 0, 51, 38
1, 72994, Note_on_c, 0, 76, 85
1, 72997, Note_off_c, 0, 51, 64
1, 73000, Note_on_c, 0, 46, 57
1, 73022, Note_off_c, 0, 70, 64
1, 73064, Note_off_c, 0, 46, 64
1, 73096, Note_on_c, 0, 67, 65
1, 73100, Note_on_c, 0, 51, 38
1, 73104, Note_off_c, 0, 76, 64
1, 73172, Note_on_c, 0, 70, 50
1, 73196, Note_off_c, 0, 51, 64
1, 73200, Note_off_c, 0, 67, 64
1, 73214, Note_on_c, 0, 55, 32
1, 73282, Note_off_c, 0, 55, 64
1, 73290, Note_on_c, 0, 63, 75
1, 73293, Note_on_c, 0, 61, 62
1, 73318, Note_off_c, 0, 70, 64
1, 73340, Note_off_c, 0, 61, 64
1, 73343, Note_off_c, 0, 63, 64
1, 73366, Note_on_c, 0, 67, 60
1, 73408, Note_on_c, 0, 51, 57
1, 73452, Note_off_c, 0, 51, 64
1, 73458, Note_on_c, 0, 70, 68
1, 73506, Note_off_c, 0, 67, 64
1, 73584, Note_on_c, 0, 77, 95
1, 73590, Note_on_c, 0, 39, 52
1, 73596, Note_off_c, 0, 70, 64
1, 73632, Note_off_c, 0, 39, 64
1, 73652, Note_off_c, 0, 77, 64
1, 73684, Note_on_c, 0, 67, 61
1, 73766, Note_on_c, 0, 51, 62
1, 73778, Note_on_c, 0, 70, 55
1, 73818, Note_off_c, 0, 67, 64
1, 73842, Note_on_c, 0, 55, 36
1, 73890, Note_on_c, 0, 61, 79
1, 73898, Note_on_c, 0, 63, 56
1, 73904, Note_off_c, 0, 70, 64
1, 73904, Note_off_c, 0, 55, 64
1, 73948, Note_off_c, 0, 63, 64
1, 73951, Note_off_c, 0, 51, 64
1, 73972, Note_on_c, 0, 55, 70
1, 73988, Note_off_c, 0, 61, 64
1, 73990, Note_on_c, 0, 67, 58
1, 74048, Note_on_c, 0, 70, 62
1, 74076, Note_on_c, 0, 51, 66
1, 74094, Note_off_c, 0, 55, 64
1, 74094, Note_off_c, 0, 67, 64
1, 74160, Note_on_c, 0, 75, 90
1, 74170, Note_on_c, 0, 46, 68
1, 74202, Note_off_c, 0, 51, 64
1, 74244, Note_off_c, 0, 70, 64
1, 74244, Note_on_c, 0, 67, 65
1, 74264, Note_off_c, 0, 75, 64
1, 74282, Note_off_c, 0, 46, 64
1, 74282, Note_on_c, 0, 51, 51
1, 74318, Note_on_c, 0, 70, 57
1, 74368, Note_off_c, 0, 67, 64
1, 74384, Note_on_c, 0, 55, 17
1, 74396, Note_off_c, 0, 51, 64
1, 74428, Note_on_c, 0, 61, 68
1, 74430, Note_on_c, 0, 63, 76
1, 74494, Note_off_c, 0, 63, 64
1, 74500, Note_off_c, 0, 70, 64
1, 74532, Note_on_c, 0, 67, 65
1, 74542, Note_off_c, 0, 61, 64
1, 74554, Note_on_c, 0, 51, 68
1, 74568, Note_off_c, 0, 55, 64
1, 74602, Note_off_c, 0, 51, 64
1, 74620, Note_on_c, 0, 70, 57
1, 74704, Note_off_c, 0, 67, 64
1, 74772, Note_on_c, 0, 73, 83
1, 74772, Note_on_c, 0, 41, 99
1, 74812, Note_off_c, 0, 70, 64
1, 74822, Control_c, 0, 64, 0
1, 74892, Note_on_c, 0, 65, 50
1, 74956, Note_off_c, 0, 41, 64
1, 74976, Control_c, 0, 64, 127
1, 74986, Note_on_c, 0, 68, 54
1, 75036, Note_off_c, 0, 65, 64
1, 75042, Note_on_c, 0, 53, 80
1, 75072, Note_on_c, 0, 61, 74
1, 75126, Note_off_c, 0, 53, 64
1, 75126, Note_on_c, 0, 56, 57
1, 75134, Note_off_c, 0, 68, 64
1, 75144, Note_on_c, 0, 65, 26
1, 75182, Note_off_c, 0, 61, 64
1, 75206, Note_on_c, 0, 68, 57
1, 75238, Note_off_c, 0, 73, 64
1, 75238, Note_on_c, 0, 53, 66
1, 75250, Note_off_c, 0, 56, 64
1, 75282, Note_off_c, 0, 65, 64
1, 75342, Note_on_c, 0, 72, 90
1, 75364, Note_off_c, 0, 53, 64
1, 75376, Note_off_c, 0, 68, 64
1, 75382, Note_on_c, 0, 48, 67
1, 75436, Note_on_c, 0, 65, 62
1, 75528, Note_on_c, 0, 68, 65
1, 75528, Note_on_c, 0, 53, 89
1, 75574, Note_off_c, 0, 48, 64
1, 75588, Note_off_c, 0, 65, 64
1, 75592, Note_off_c, 0, 72, 64
1, 75594, Note_off_c, 0, 53, 64
1, 75630, Note_on_c, 0, 56, 62
1, 75633, Note_on_c, 0, 60, 73
1, 75712, Note_off_c, 0, 68, 64
1, 75720, Note_on_c, 0, 53, 66
1, 75728, Note_on_c, 0, 65, 54
1, 75742, Note_off_c, 0, 56, 64
1, 75748, Note_off_c, 0, 60, 64
1, 75788, Note_on_c, 0, 48, 65
1, 75814, Note_off_c, 0, 53, 64
1, 75814, Note_on_c, 0, 68, 70
1, 75838, Note_off_c, 0, 48, 64
1, 75884, Note_off_c, 0, 65, 64
1, 75940, Note_on_c, 0, 72, 90
1, 75954, Note_on_c, 0, 41, 89
1, 75958, Control_c, 0, 64, 0
1, 75966, Note_off_c, 0, 68, 64
1, 76050, Note_on_c, 0, 63, 73
1, 76094, Note_off_c, 0, 41, 64
1, 76112, Control_c, 0, 64, 127
1, 76126, Note_on_c, 0, 65, 67
1, 76144, Note_off_c, 0, 72, 64
1, 76180, Note_off_c, 0, 63, 64
1, 76186, Note_on_c, 0, 53, 74
1, 76236, Note_on_c, 0, 60, 76
1, 76276, Note_off_c, 0, 65, 64
1, 76284, Note_on_c, 0, 57, 40
1, 76296, Note_off_c, 0, 53, 64
1, 76336, Note_on_c, 0, 63, 66
1, 76360, Note_off_c, 0, 60, 64
1, 76420, Note_on_c, 0, 65, 61
1, 76442, Note_off_c, 0, 57, 64
1, 76446, Note_off_c, 0, 63, 64
1, 76458, Note_off_c, 0, 65, 64
1, 76482, Note_on_c, 0, 53, 76
1, 76548, Note_off_c, 0, 53, 64
1, 76748, Note_on_c, 0, 84, 98
1, 76790, Note_on_c, 0, 48, 36
1, 76868, Note_off_c, 0, 84, 64
1, 76882, Note_off_c, 0, 48, 64
1, 76900, Note_on_c, 0, 75, 49
1, 76960, Note_on_c, 0, 53, 51
1, 77018, Note_off_c, 0, 53, 64
1, 77028, Note_on_c, 0, 77, 57
1, 77036, Note_off_c, 0, 75, 64
1, 77074, Note_on_c, 0, 57, 40
1, 77130, Note_on_c, 0, 72, 67
1, 77146, Note_off_c, 0, 77, 64
1, 77154, Note_off_c, 0, 57, 64
1, 77214, Note_on_c, 0, 53, 56
1, 77234, Note_on_c, 0, 75, 57
1, 77240, Note_off_c, 0, 72, 64
1, 77276, Note_off_c, 0, 53, 64
1, 77284, Note_on_c, 0, 48, 42
1, 77346, Note_off_c, 0, 48, 64
1, 77370, Note_on_c, 0, 77, 70
1, 77398, Note_off_c, 0, 75, 64
1, 77508, Note_on_c, 0, 34, 72
1, 77526, Control_c, 0, 64, 0
1, 77590, Note_on_c, 0, 84, 98
1, 77606, Note_off_c, 0, 77, 64
1, 77628, Note_off_c, 0, 34, 64
1, 77664, Control_c, 0, 64, 127
1, 77690, Note_off_c, 0, 84, 64
1, 77790, Note_on_c, 0, 53, 60
1, 77800, Note_on_c, 0, 73, 46
1, 77898, Note_off_c, 0, 53, 64
1, 77922, Note_off_c, 0, 73, 64
1, 77924, Note_on_c, 0, 77, 50
1, 77946, Note_on_c, 0, 61, 63
1, 77997, Note_off_c, 0, 77, 64
1, 78012, Note_off_c, 0, 61, 64
1, 78038, Note_on_c, 0, 65, 54
1, 78038, Note_on_c, 0, 58, 33
1, 78094, Note_off_c, 0, 65, 64
1, 78100, Note_on_c, 0, 73, 52
1, 78106, Note_off_c, 0, 58, 64
1, 78114, Note_on_c, 0, 53, 73
1, 78186, Note_on_c, 0, 77, 68
1, 78232, Note_off_c, 0, 73, 64
1, 78244, Note_off_c, 0, 53, 64
1, 78256, Note_on_c, 0, 82, 85
1, 78262, Note_on_c, 0, 46, 52
1, 78284, Note_off_c, 0, 77, 64
1, 78342, Note_on_c, 0, 73, 51
1, 78384, Note_off_c, 0, 82, 64
1, 78386, Note_on_c, 0, 53, 54
1, 78388, Note_off_c, 0, 46, 64
1, 78454, Note_on_c, 0, 77, 50
1, 78470, Note_off_c, 0, 73, 64
1, 78510, Note_on_c, 0, 58, 41
1, 78518, Note_off_c, 0, 53, 64
1, 78558, Note_off_c, 0, 77, 64
1, 78564, Note_on_c, 0, 65, 72
1, 78566, Note_off_c, 0, 58, 64
1, 78578, Note_on_c, 0, 61, 61
1, 78618, Note_off_c, 0, 65, 64
1, 78644, Note_off_c, 0, 61, 64
1, 78668, Note_on_c, 0, 58, 18
1, 78672, Note_on_c, 0, 73, 56
1, 78734, Note_on_c, 0, 53, 88
1, 78758, Note_off_c, 0, 58, 64
1, 78768, Note_on_c, 0, 77, 76
1, 78771, Note_off_c, 0, 53, 64
1, 78806, Note_off_c, 0, 73, 64
1, 78842, Note_off_c, 0, 77, 64
1, 79042, Note_on_c, 0, 85, 90
1, 79048, Control_c, 0, 64, 0
1, 79058, Note_on_c, 0, 34, 69
1, 79138, Note_off_c, 0, 85, 64
1, 79154, Control_c, 0, 64, 127
1, 79164, Note_off_c, 0, 34, 64
1, 79314, Note_on_c, 0, 70, 48
1, 79348, Note_on_c, 0, 52, 27
1, 79398, Note_off_c, 0, 70, 64
1, 79406, Note_on_c, 0, 73, 38
1, 79438, Note_off_c, 0, 52, 64
1, 79462, Note_on_c, 0, 56, 16
1, 79492, Note_off_c, 0, 73, 64
1, 79504, Note_on_c, 0, 61, 50
1, 79524, Note_off_c, 0, 56, 64
1, 79526, Note_on_c, 0, 64, 41
1, 79590, Note_off_c, 0, 61, 64
1, 79596, Note_on_c, 0, 56, 53
1, 79602, Note_off_c, 0, 64, 64
1, 79616, Note_on_c, 0, 70, 47
1, 79680, Note_on_c, 0, 73, 49
1, 79692, Note_off_c, 0, 70, 64
1, 79706, Note_on_c, 0, 52, 56
1, 79726, Note_off_c, 0, 56, 64
1, 79750, Note_off_c, 0, 73, 64
1, 79762, Note_off_c, 0, 52, 64
1, 79798, Note_on_c, 0, 46, 61
1, 79798, Note_on_c, 0, 76, 78
1, 79900, Note_on_c, 0, 70, 47
1, 79908, Note_off_c, 0, 46, 64
1, 79934, Note_on_c, 0, 52, 54
1, 79976, Note_off_c, 0, 70, 64
1, 79982, Note_on_c, 0, 73, 52
1, 79985, Note_off_c, 0, 52, 64
1, 79994, Note_on_c, 0, 56, 46
1, 80056, Note_off_c, 0, 56, 64
1, 80088, Note_on_c, 0, 61, 60
1, 80091, Note_off_c, 0, 73, 64
1, 80102, Note_on_c, 0, 64, 68
1, 80152, Note_off_c, 0, 61, 64
1, 80168, Note_off_c, 0, 64, 64
1, 80194, Note_on_c, 0, 70, 47
1, 80202, Note_on_c, 0, 56, 60
1, 80230, Note_off_c, 0, 76, 64
1, 80280, Note_on_c, 0, 73, 66
1, 80290, Note_on_c, 0, 52, 62
1, 80328, Note_off_c, 0, 70, 64
1, 80328, Note_off_c, 0, 56, 64
1, 80331, Note_off_c, 0, 73, 64
1, 80334, Note_off_c, 0, 52, 64
1, 80414, Control_c, 0, 64, 0
1, 80455, Note_on_c, 0, 39, 65
1, 80468, Note_on_c, 0, 42, 17
1, 80494, Note_on_c, 0, 82, 91
1, 80528, Note_off_c, 0, 42, 64
1, 80568, Control_c, 0, 64, 127
1, 80572, Note_off_c, 0, 39, 64
1, 80598, Note_off_c, 0, 82, 64
1, 80635, Note_on_c, 0, 72, 47
1, 80703, Note_off_c, 0, 72, 64
1, 80746, Note_on_c, 0, 51, 49
1, 80784, Note_on_c, 0, 75, 47
1, 80864, Note_on_c, 0, 60, 40
1, 80880, Note_off_c, 0, 51, 64
1, 80890, Note_off_c, 0, 75, 64
1, 80892, Note_on_c, 0, 63, 61
1, 80938, Note_off_c, 0, 60, 64
1, 80938, Note_off_c, 0, 63, 64
1, 80952, Note_on_c, 0, 56, 47
1, 80984, Note_on_c, 0, 72, 47
1, 81022, Note_off_c, 0, 56, 64
1, 81026, Note_on_c, 0, 51, 52
1, 81046, Note_on_c, 0, 75, 52
1, 81052, Note_off_c, 0, 72, 64
1, 81098, Note_off_c, 0, 51, 64
1, 81130, Note_on_c, 0, 80, 86
1, 81154, Note_off_c, 0, 75, 64
1, 81160, Note_on_c, 0, 48, 38
1, 81234, Note_off_c, 0, 80, 64
1, 81238, Note_on_c, 0, 72, 55
1, 81242, Note_off_c, 0, 48, 64
1, 81258, Note_on_c, 0, 51, 55
1, 81304, Note_off_c, 0, 72, 64
1, 81328, Note_off_c, 0, 51, 64
1, 81328, Note_on_c, 0, 56, 38
1, 81348, Note_on_c, 0, 75, 47
1, 81408, Note_off_c, 0, 56, 64
1, 81464, Note_on_c, 0, 60, 40
1, 81464, Note_on_c, 0, 63, 55
1, 81492, Note_off_c, 0, 75, 64
1, 81522, Note_off_c, 0, 63, 64
1, 81542, Note_off_c, 0, 60, 64
1, 81570, Note_on_c, 0, 56, 35
1, 81580, Note_on_c, 0, 72, 33
1, 81634, Note_off_c, 0, 56, 64
1, 81640, Note_off_c, 0, 72, 64
1, 81646, Note_on_c, 0, 75, 55
1, 81688, Note_off_c, 0, 75, 64
1, 81844, Note_on_c, 0, 84, 78
1, 81864, Note_on_c, 0, 39, 45
1, 81908, Note_off_c, 0, 84, 64
1, 81914, Note_off_c, 0, 39, 64
1, 82146, Note_on_c, 0, 68, 24
1, 82149, Note_on_c, 0, 51, 10
1, 82214, Note_off_c, 0, 68, 64
1, 82224, Note_on_c, 0, 56, 38
1, 82236, Note_off_c, 0, 51, 64
1, 82236, Note_on_c, 0, 72, 40
1, 82282, Note_off_c, 0, 56, 64
1, 82314, Note_off_c, 0, 72, 64
1, 82332, Note_on_c, 0, 60, 35
1, 82360, Note_on_c, 0, 63, 36
1, 82410, Note_off_c, 0, 60, 64
1, 82434, Note_on_c, 0, 56, 24
1, 82438, Note_off_c, 0, 63, 64
1, 82450, Note_on_c, 0, 68, 23
1, 82508, Note_off_c, 0, 56, 64
1, 82522, Note_off_c, 0, 68, 64
1, 82530, Note_on_c, 0, 51, 30
1, 82556, Note_on_c, 0, 72, 21
1, 82612, Note_off_c, 0, 51, 64
1, 82634, Note_off_c, 0, 72, 64
1, 82644, Note_on_c, 0, 75, 55
1, 82664, Note_on_c, 0, 48, 25
1, 82760, Note_off_c, 0, 48, 64
1, 82766, Note_on_c, 0, 68, 31
1, 82800, Note_on_c, 0, 51, 33
1, 82848, Note_off_c, 0, 68, 64
1, 82868, Note_on_c, 0, 56, 41
1, 82872, Note_off_c, 0, 51, 64
1, 82900, Note_on_c, 0, 72, 23
1, 82936, Note_off_c, 0, 56, 64
1, 82966, Note_on_c, 0, 63, 43
1, 82974, Note_off_c, 0, 72, 64
1, 82998, Note_on_c, 0, 60, 32
1, 83004, Note_off_c, 0, 75, 64
1, 83082, Note_off_c, 0, 60, 64
1, 83098, Note_off_c, 0, 63, 64
1, 83100, Note_on_c, 0, 68, 35
1, 83110, Note_on_c, 0, 56, 31
1, 83174, Note_off_c, 0, 56, 64
1, 83218, Note_off_c, 0, 68, 64
1, 83226, Note_on_c, 0, 72, 15
1, 83288, Control_c, 0, 64, 0
1, 83330, Note_off_c, 0, 72, 64
1, 83332, Note_on_c, 0, 75, 57
1, 83340, Note_on_c, 0, 39, 43
1, 83404, Note_off_c, 0, 39, 64
1, 83426, Control_c, 0, 64, 127
1, 83470, Note_on_c, 0, 69, 16
1, 83550, Note_off_c, 0, 69, 64
1, 83552, Note_on_c, 0, 57, 38
1, 83558, Note_on_c, 0, 72, 31
1, 83632, Note_off_c, 0, 57, 64
1, 83632, Note_off_c, 0, 72, 64
1, 83638, Note_on_c, 0, 63, 43
1, 83676, Note_on_c, 0, 60, 16
1, 83734, Note_off_c, 0, 63, 64
1, 83752, Note_off_c, 0, 75, 64
1, 83758, Note_on_c, 0, 69, 19
1, 83780, Note_off_c, 0, 60, 64
1, 83808, Note_on_c, 0, 57, 41
1, 83836, Note_on_c, 0, 72, 41
1, 83839, Note_off_c, 0, 69, 64
1, 83876, Note_off_c, 0, 57, 64
1, 83926, Note_off_c, 0, 72, 64
1, 83930, Note_on_c, 0, 77, 67
1, 83970, Note_on_c, 0, 51, 38
1, 84026, Note_on_c, 0, 69, 44
1, 84048, Note_off_c, 0, 77, 64
1, 84078, Note_off_c, 0, 51, 64
1, 84094, Note_off_c, 0, 69, 64
1, 84094, Note_on_c, 0, 57, 19
1, 84112, Note_on_c, 0, 72, 42
1, 84168, Note_off_c, 0, 57, 64
1, 84206, Note_on_c, 0, 60, 44
1, 84212, Note_on_c, 0, 63, 40
1, 84236, Note_off_c, 0, 72, 64
1, 84278, Note_off_c, 0, 60, 64
1, 84294, Note_on_c, 0, 57, 17
1, 84308, Note_off_c, 0, 63, 64
1, 84322, Note_on_c, 0, 69, 33
1, 84354, Note_off_c, 0, 57, 64
1, 84354, Note_on_c, 0, 51, 65
1, 84396, Note_off_c, 0, 51, 64
1, 84404, Note_off_c, 0, 69, 64
1, 84408, Note_on_c, 0, 72, 41
1, 84522, Note_on_c, 0, 39, 68
1, 84528, Note_on_c, 0, 78, 69
1, 84548, Note_off_c, 0, 72, 64
1, 84572, Note_off_c, 0, 39, 64
1, 84624, Note_on_c, 0, 69, 54
1, 84658, Note_off_c, 0, 78, 64
1, 84706, Note_off_c, 0, 69, 64
1, 84722, Note_on_c, 0, 72, 43
1, 84736, Note_on_c, 0, 57, 63
1, 84794, Note_off_c, 0, 57, 64
1, 84818, Note_on_c, 0, 63, 64
1, 84832, Note_on_c, 0, 60, 49
1, 84874, Note_off_c, 0, 72, 64
1, 84908, Note_off_c, 0, 63, 64
1, 84920, Note_on_c, 0, 69, 40
1, 84956, Note_on_c, 0, 57, 58
1, 84976, Note_on_c, 0, 72, 39
1, 84984, Note_off_c, 0, 60, 64
1, 84998, Note_off_c, 0, 69, 64
1, 85006, Note_off_c, 0, 57, 64
1, 85082, Note_on_c, 0, 51, 59
1, 85082, Note_on_c, 0, 77, 81
1, 85122, Note_off_c, 0, 72, 64
1, 85184, Note_on_c, 0, 69, 55
1, 85186, Note_off_c, 0, 77, 64
1, 85210, Note_on_c, 0, 57, 27
1, 85222, Note_off_c, 0, 51, 64
1, 85262, Note_on_c, 0, 72, 58
1, 85296, Note_off_c, 0, 69, 64
1, 85306, Note_off_c, 0, 57, 64
1, 85330, Note_on_c, 0, 65, 63
1, 85374, Note_on_c, 0, 63, 74
1, 85402, Note_off_c, 0, 65, 64
1, 85444, Note_off_c, 0, 72, 64
1, 85444, Note_on_c, 0, 57, 54
1, 85460, Note_on_c, 0, 69, 45
1, 85484, Note_off_c, 0, 63, 64
1, 85520, Note_off_c, 0, 57, 64
1, 85542, Note_on_c, 0, 51, 61
1, 85552, Note_on_c, 0, 72, 44
1, 85584, Note_off_c, 0, 51, 64
1, 85610, Note_off_c, 0, 69, 64
1, 85684, Control_c, 0, 64, 0
1, 85706, Note_on_c, 0, 77, 90
1, 85716, Note_on_c, 0, 39, 83
1, 85736, Note_off_c, 0, 72, 64
1, 85762, Note_off_c, 0, 39, 64
1, 85794, Note_on_c, 0, 70, 59
1, 85824, Control_c, 0, 64, 127
1, 85827, Note_off_c, 0, 77, 64
1, 85870, Note_on_c, 0, 73, 47
1, 85938, Note_off_c, 0, 70, 64
1, 85940, Note_on_c, 0, 58, 52
1, 86028, Note_off_c, 0, 58, 64
1, 86031, Note_on_c, 0, 61, 59
1, 86042, Note_on_c, 0, 65, 36
1, 86078, Note_off_c, 0, 61, 64
1, 86086, Note_off_c, 0, 73, 64
1, 86094, Note_on_c, 0, 70, 60
1, 86116, Note_off_c, 0, 65, 64
1, 86146, Note_on_c, 0, 58, 36
1, 86188, Note_on_c, 0, 73, 48
1, 86260, Note_off_c, 0, 70, 64
1, 86272, Note_off_c, 0, 58, 64
1, 86278, Note_on_c, 0, 79, 103
1, 86314, Note_off_c, 0, 73, 64
1, 86318, Note_on_c, 0, 51, 61
1, 86370, Note_on_c, 0, 70, 52
1, 86404, Note_off_c, 0, 79, 64
1, 86408, Note_on_c, 0, 58, 45
1, 86428, Note_off_c, 0, 51, 64
1, 86454, Note_on_c, 0, 73, 45
1, 86480, Note_off_c, 0, 58, 64
1, 86504, Note_off_c, 0, 70, 64
1, 86514, Note_on_c, 0, 61, 69
1, 86548, Note_on_c, 0, 65, 64
1, 86592, Note_on_c, 0, 58, 41
1, 86595, Note_off_c, 0, 73, 64
1, 86606, Note_off_c, 0, 61, 64
1, 86634, Note_on_c, 0, 70, 56
1, 86664, Note_off_c, 0, 58, 64
1, 86670, Note_off_c, 0, 65, 64
1, 86672, Note_on_c, 0, 51, 72
1, 86718, Note_off_c, 0, 51, 64
1, 86724, Note_on_c, 0, 73, 69
1, 86752, Note_off_c, 0, 70, 64
1, 86822, Control_c, 0, 64, 0
1, 86830, Note_on_c, 0, 80, 95
1, 86830, Note_on_c, 0, 39, 87
1, 86840, Note_off_c, 0, 73, 64
1, 86876, Note_off_c, 0, 39, 64
1, 86920, Note_on_c, 0, 71, 66
1, 86930, Control_c, 0, 64, 127
1, 86990, Note_off_c, 0, 80, 64
1, 87010, Note_on_c, 0, 74, 57
1, 87050, Note_on_c, 0, 59, 27
1, 87056, Note_off_c, 0, 71, 64
1, 87072, Note_off_c, 0, 74, 64
1, 87090, Note_on_c, 0, 65, 70
1, 87090, Note_on_c, 0, 60, 10
1, 87124, Note_off_c, 0, 59, 64
1, 87127, Note_on_c, 0, 62, 64
1, 87138, Note_off_c, 0, 60, 64
1, 87141, Note_off_c, 0, 65, 64
1, 87166, Note_on_c, 0, 71, 58
1, 87234, Note_on_c, 0, 59, 40
1, 87244, Note_off_c, 0, 62, 64
1, 87254, Note_on_c, 0, 74, 81
1, 87284, Note_off_c, 0, 71, 64
1, 87332, Note_off_c, 0, 59, 64
1, 87348, Note_on_c, 0, 51, 79
1, 87352, Note_on_c, 0, 79, 103
1, 87376, Note_off_c, 0, 74, 64
1, 87438, Note_on_c, 0, 71, 83
1, 87498, Note_on_c, 0, 59, 68
1, 87514, Note_off_c, 0, 51, 64
1, 87528, Note_off_c, 0, 79, 64
1, 87530, Note_on_c, 0, 74, 80
1, 87564, Note_off_c, 0, 71, 64
1, 87582, Note_off_c, 0, 59, 64
1, 87624, Note_on_c, 0, 65, 63
1, 87634, Note_on_c, 0, 67, 78
1, 87646, Note_off_c, 0, 74, 64
1, 87690, Note_off_c, 0, 67, 64
1, 87714, Note_on_c, 0, 71, 80
1, 87722, Note_on_c, 0, 59, 64
1, 87736, Note_off_c, 0, 65, 64
1, 87806, Note_on_c, 0, 74, 73
1, 87832, Note_on_c, 0, 51, 78
1, 87836, Note_off_c, 0, 71, 64
1, 87852, Note_off_c, 0, 59, 64
1, 87878, Note_off_c, 0, 51, 64
1, 88006, Note_off_c, 0, 74, 64
1, 88020, Control_c, 0, 64, 0
1, 88028, Note_on_c, 0, 79, 100
1, 88032, Note_on_c, 0, 39, 96
1, 88126, Note_on_c, 0, 72, 55
1, 88140, Note_off_c, 0, 39, 64
1, 88144, Control_c, 0, 64, 127
1, 88168, Note_off_c, 0, 79, 64
1, 88216, Note_on_c, 0, 75, 59
1, 88238, Note_off_c, 0, 72, 64
1, 88258, Note_on_c, 0, 60, 66
1, 88314, Note_off_c, 0, 60, 64
1, 88330, Note_on_c, 0, 67, 75
1, 88338, Note_on_c, 0, 63, 67
1, 88376, Note_off_c, 0, 63, 64
1, 88398, Note_on_c, 0, 72, 59
1, 88410, Note_off_c, 0, 75, 64
1, 88424, Note_off_c, 0, 67, 64
1, 88446, Note_on_c, 0, 60, 69
1, 88478, Note_on_c, 0, 75, 61
1, 88530, Note_off_c, 0, 72, 64
1, 88552, Note_off_c, 0, 60, 64
1, 88582, Note_on_c, 0, 80, 101
1, 88598, Note_on_c, 0, 51, 74
1, 88650, Note_off_c, 0, 75, 64
1, 88682, Note_on_c, 0, 72, 67
1, 88710, Note_on_c, 0, 60, 60
1, 88746, Note_on_c, 0, 75, 47
1, 88772, Note_off_c, 0, 51, 64
1, 88812, Note_off_c, 0, 72, 64
1, 88824, Note_on_c, 0, 63, 83
1, 88836, Note_off_c, 0, 60, 64
1, 88868, Note_on_c, 0, 68, 90
1, 88900, Note_on_c, 0, 60, 71
1, 88920, Note_off_c, 0, 75, 64
1, 88930, Note_off_c, 0, 63, 64
1, 88966, Note_on_c, 0, 72, 67
1, 88972, Note_off_c, 0, 60, 64
1, 88976, Note_off_c, 0, 68, 64
1, 88976, Note_on_c, 0, 51, 66
1, 89014, Note_on_c, 0, 75, 55
1, 89016, Note_off_c, 0, 51, 64
1, 89036, Note_off_c, 0, 80, 64
1, 89094, Note_off_c, 0, 72, 64
1, 89142, Note_on_c, 0, 81, 107
1, 89142, Control_c, 0, 64, 0
1, 89150, Note_on_c, 0, 39, 82
1, 89184, Note_off_c, 0, 75, 64
1, 89200, Note_off_c, 0, 39, 64
1, 89234, Note_on_c, 0, 72, 63
1, 89264, Control_c, 0, 64, 127
1, 89314, Note_on_c, 0, 75, 75
1, 89364, Note_on_c, 0, 60, 63
1, 89394, Note_off_c, 0, 72, 64
1, 89404, Note_off_c, 0, 81, 64
1, 89452, Note_on_c, 0, 69, 79
1, 89460, Note_on_c, 0, 66, 64
1, 89488, Note_off_c, 0, 60, 64
1, 89518, Note_off_c, 0, 75, 64
1, 89556, Note_on_c, 0, 72, 83
1, 89590, Note_off_c, 0, 69, 64
1, 89602, Note_off_c, 0, 66, 64
1, 89602, Note_on_c, 0, 60, 33
1, 89658, Note_on_c, 0, 75, 80
1, 89696, Note_off_c, 0, 72, 64
1, 89712, Note_off_c, 0, 75, 64
1, 89836, Note_off_c, 0, 60, 64
1, 89938, Note_on_c, 0, 90, 95
1, 89952, Note_on_c, 0, 51, 52
1, 89998, Note_off_c, 0, 51, 64
1, 90124, Note_on_c, 0, 81, 52
1, 90132, Note_off_c, 0, 90, 64
1, 90142, Note_on_c, 0, 60, 16
1, 90192, Note_off_c, 0, 81, 64
1, 90204, Note_on_c, 0, 63, 62
1, 90218, Note_on_c, 0, 84, 62
1, 90226, Note_off_c, 0, 60, 64
1, 90264, Note_off_c, 0, 63, 64
1, 90306, Note_on_c, 0, 75, 76
1, 90322, Note_on_c, 0, 69, 53
1, 90378, Note_off_c, 0, 69, 64
1, 90386, Note_off_c, 0, 84, 64
1, 90400, Note_off_c, 0, 75, 64
1, 90420, Note_on_c, 0, 63, 62
1, 90426, Note_on_c, 0, 81, 65
1, 90482, Note_on_c, 0, 60, 70
1, 90508, Note_off_c, 0, 63, 64
1, 90512, Note_on_c, 0, 84, 72
1, 90526, Note_off_c, 0, 60, 64
1, 90544, Note_off_c, 0, 81, 64
1, 90622, Note_on_c, 0, 89, 100
1, 90625, Note_on_c, 0, 51, 66
1, 90632, Control_c, 0, 64, 0
1, 90684, Note_off_c, 0, 84, 64
1, 90724, Control_c, 0, 64, 127
1, 90742, Note_on_c, 0, 77, 52
1, 90758, Note_off_c, 0, 51, 64
1, 90758, Note_on_c, 0, 58, 43
1, 90796, Note_off_c, 0, 89, 64
1, 90846, Note_off_c, 0, 77, 64
1, 90876, Note_off_c, 0, 58, 64
1, 90882, Note_on_c, 0, 62, 55
1, 90944, Note_off_c, 0, 62, 64
1, 91002, Note_on_c, 0, 68, 50
1, 91084, Note_on_c, 0, 77, 63
1, 91090, Note_off_c, 0, 68, 64
1, 91110, Note_on_c, 0, 62, 53
1, 91158, Note_off_c, 0, 62, 64
1, 91166, Note_on_c, 0, 80, 66
1, 91176, Note_off_c, 0, 77, 64
1, 91182, Note_on_c, 0, 58, 52
1, 91234, Note_off_c, 0, 58, 64
1, 91270, Note_on_c, 0, 82, 90
1, 91290, Note_on_c, 0, 51, 65
1, 91338, Note_off_c, 0, 80, 64
1, 91338, Note_off_c, 0, 51, 64
1, 91366, Note_on_c, 0, 77, 53
1, 91376, Note_on_c, 0, 58, 25
1, 91444, Note_on_c, 0, 80, 46
1, 91470, Note_on_c, 0, 62, 45
1, 91473, Note_off_c, 0, 58, 64
1, 91480, Note_off_c, 0, 77, 64
1, 91532, Note_off_c, 0, 62, 64
1, 91566, Note_on_c, 0, 68, 54
1, 91570, Note_on_c, 0, 70, 58
1, 91590, Note_off_c, 0, 80, 64
1, 91664, Note_off_c, 0, 68, 64
1, 91686, Note_off_c, 0, 70, 64
1, 91686, Note_on_c, 0, 77, 56
1, 91696, Note_on_c, 0, 62, 31
1, 91742, Note_on_c, 0, 80, 64
1, 91748, Note_on_c, 0, 58, 46
1, 91762, Note_off_c, 0, 62, 64
1, 91770, Note_off_c, 0, 82, 64
1, 91800, Note_off_c, 0, 77, 64
1, 91878, Note_off_c, 0, 58, 64
1, 91878, Control_c, 0, 64, 0
1, 91878, Note_on_c, 0, 85, 88
1, 91888, Note_on_c, 0, 51, 62
1, 91892, Note_off_c, 0, 80, 64
1, 91968, Note_off_c, 0, 51, 64
1, 91982, Note_on_c, 0, 58, 25
1, 92008, Note_on_c, 0, 76, 52
1, 92030, Control_c, 0, 64, 127
1, 92074, Note_off_c, 0, 58, 64
1, 92077, Note_off_c, 0, 76, 64
1, 92077, Note_on_c, 0, 80, 40
1, 92090, Note_off_c, 0, 85, 64
1, 92104, Note_on_c, 0, 61, 22
1, 92180, Note_off_c, 0, 61, 64
1, 92190, Note_on_c, 0, 68, 45
1, 92212, Note_on_c, 0, 70, 46
1, 92268, Note_off_c, 0, 68, 64
1, 92294, Note_off_c, 0, 80, 64
1, 92322, Note_on_c, 0, 61, 46
1, 92328, Note_off_c, 0, 70, 64
1, 92344, Note_on_c, 0, 76, 25
1, 92412, Note_off_c, 0, 61, 64
1, 92416, Note_off_c, 0, 76, 64
1, 92416, Note_on_c, 0, 80, 56
1, 92462, Note_off_c, 0, 80, 64
1, 92462, Note_on_c, 0, 58, 17
1, 92548, Note_off_c, 0, 58, 64
1, 92558, Note_on_c, 0, 79, 88
1, 92606, Note_on_c, 0, 51, 35
1, 92630, Control_c, 0, 64, 0
1, 92680, Note_on_c, 0, 73, 46
1, 92714, Note_on_c, 0, 58, 35
1, 92784, Note_on_c, 0, 75, 34
1, 92784, Control_c, 0, 64, 127
1, 92787, Note_off_c, 0, 58, 64
1, 92804, Note_off_c, 0, 51, 64
1, 92804, Note_on_c, 0, 61, 32
1, 92828, Note_off_c, 0, 73, 64
1, 92862, Note_off_c, 0, 75, 64
1, 92868, Note_off_c, 0, 61, 64
1, 92888, Note_on_c, 0, 63, 53
1, 92900, Note_on_c, 0, 67, 52
1, 92958, Note_off_c, 0, 67, 64
1, 92970, Note_off_c, 0, 63, 64
1, 93034, Note_on_c, 0, 61, 25
1, 93052, Note_on_c, 0, 73, 24
1, 93118, Note_off_c, 0, 79, 64
1, 93118, Note_off_c, 0, 61, 64
1, 93124, Note_on_c, 0, 58, 29
1, 93152, Note_off_c, 0, 73, 64
1, 93160, Note_on_c, 0, 75, 39
1, 93188, Note_off_c, 0, 58, 64
1, 93220, Note_off_c, 0, 75, 64
1, 93428, Note_on_c, 0, 80, 73
1, 93444, Note_on_c, 0, 44, 45
1, 93460, Control_c, 0, 64, 0
1, 93628, Control_c, 0, 64, 127
1, 93648, Note_off_c, 0, 80, 64
1, 93668, Note_off_c, 0, 44, 64
1, 93794, Note_on_c, 0, 68, 31
1, 93818, Note_on_c, 0, 51, 7
1, 93862, Note_off_c, 0, 68, 64
1, 93882, Note_on_c, 0, 56, 20
1, 93888, Note_off_c, 0, 51, 64
1, 93904, Note_on_c, 0, 72, 34
1, 93960, Note_off_c, 0, 56, 64
1, 94030, Note_off_c, 0, 72, 64
1, 94040, Note_on_c, 0, 60, 29
1, 94078, Note_on_c, 0, 63, 22
1, 94124, Note_off_c, 0, 60, 64
1, 94176, Note_off_c, 0, 63, 64
1, 94194, Note_on_c, 0, 56, 29
1, 94194, Note_on_c, 0, 68, 19
1, 94260, Note_off_c, 0, 56, 64
1, 94280, Note_off_c, 0, 68, 64
1, 94332, Note_on_c, 0, 72, 12
1, 94468, Note_off_c, 0, 72, 64
1, 94500, Note_on_c, 0, 75, 48
1, 94514, Note_on_c, 0, 44, 25
1, 94604, Note_off_c, 0, 44, 64
1, 94626, Note_on_c, 0, 68, 26
1, 94678, Note_on_c, 0, 51, 13
1, 94716, Note_off_c, 0, 68, 64
1, 94760, Note_off_c, 0, 51, 64
1, 94764, Note_on_c, 0, 72, 21
1, 94764, Note_on_c, 0, 56, 36
1, 94824, Note_off_c, 0, 56, 64
1, 94846, Note_off_c, 0, 72, 64
1, 94854, Note_on_c, 0, 63, 35
1, 94880, Note_on_c, 0, 60, 29
1, 94952, Note_off_c, 0, 60, 64
1, 94962, Note_off_c, 0, 63, 64
1, 94984, Note_on_c, 0, 68, 33
1, 94994, Note_off_c, 0, 75, 64
1, 95052, Note_off_c, 0, 68, 64
1, 95082, Note_on_c, 0, 72, 28
1, 95160, Note_off_c, 0, 72, 64
1, 95160, Note_on_c, 0, 44, 52
1, 95162, Note_on_c, 0, 75, 58
1, 95216, Note_off_c, 0, 44, 64
1, 95268, Note_on_c, 0, 68, 29
1, 95336, Note_on_c, 0, 51, 2
1, 95356, Note_off_c, 0, 68, 64
1, 95386, Note_on_c, 0, 56, 44
1, 95404, Note_off_c, 0, 51, 64
1, 95412, Note_on_c, 0, 72, 26
1, 95462, Note_off_c, 0, 56, 64
1, 95518, Note_off_c, 0, 72, 64
1, 95528, Note_on_c, 0, 63, 40
1, 95548, Note_on_c, 0, 60, 39
1, 95610, Note_off_c, 0, 60, 64
1, 95650, Note_off_c, 0, 63, 64
1, 95650, Note_on_c, 0, 68, 36
1, 95692, Note_off_c, 0, 75, 64
1, 95720, Note_off_c, 0, 68, 64
1, 95742, Note_on_c, 0, 72, 34
1, 95768, Note_on_c, 0, 51, 5
1, 95832, Note_off_c, 0, 51, 64
1, 95836, Note_on_c, 0, 44, 43
1, 95838, Note_on_c, 0, 75, 61
1, 95850, Note_off_c, 0, 72, 64
1, 95890, Note_off_c, 0, 44, 64
1, 95926, Note_on_c, 0, 68, 37
1, 95932, Note_on_c, 0, 51, 26
1, 96012, Note_off_c, 0, 68, 64
1, 96014, Note_off_c, 0, 51, 64
1, 96046, Note_on_c, 0, 72, 30
1, 96060, Note_on_c, 0, 56, 24
1, 96130, Note_off_c, 0, 56, 64
1, 96134, Note_on_c, 0, 63, 41
1, 96136, Note_off_c, 0, 72, 64
1, 96152, Note_on_c, 0, 60, 38
1, 96210, Note_off_c, 0, 63, 64
1, 96218, Note_off_c, 0, 60, 64
1, 96234, Note_on_c, 0, 68, 41
1, 96240, Note_off_c, 0, 75, 64
1, 96348, Note_off_c, 0, 68, 64
1, 96378, Note_on_c, 0, 72, 20
1, 96434, Note_on_c, 0, 44, 51
1, 96440, Control_c, 0, 64, 0
1, 96452, Note_on_c, 0, 77, 59
1, 96460, Note_off_c, 0, 72, 64
1, 96506, Note_off_c, 0, 44, 64
1, 96550, Note_on_c, 0, 51, 29
1, 96562, Note_on_c, 0, 70, 30
1, 96562, Control_c, 0, 64, 127
1, 96632, Note_off_c, 0, 51, 64
1, 96648, Note_on_c, 0, 55, 45
1, 96656, Note_off_c, 0, 70, 64
1, 96682, Note_on_c, 0, 73, 22
1, 96708, Note_off_c, 0, 55, 64
1, 96732, Note_off_c, 0, 77, 64
1, 96762, Note_off_c, 0, 73, 64
1, 96765, Note_on_c, 0, 61, 43
1, 96796, Note_on_c, 0, 63, 21
1, 96824, Note_off_c, 0, 61, 64
1, 96874, Note_on_c, 0, 70, 36
1, 96914, Note_off_c, 0, 63, 64
1, 96950, Note_on_c, 0, 51, 26
1, 96953, Note_off_c, 0, 70, 64
1, 96968, Note_on_c, 0, 73, 32
1, 97030, Note_off_c, 0, 51, 64
1, 97056, Note_off_c, 0, 73, 64
1, 97062, Note_on_c, 0, 75, 53
1, 97065, Note_on_c, 0, 44, 44
1, 97070, Control_c, 0, 64, 0
1, 97150, Note_off_c, 0, 44, 64
1, 97166, Note_on_c, 0, 70, 29
1, 97178, Control_c, 0, 64, 127
1, 97234, Note_on_c, 0, 51, 2
1, 97298, Note_off_c, 0, 51, 64
1, 97298, Note_on_c, 0, 73, 29
1, 97304, Note_off_c, 0, 70, 64
1, 97304, Note_on_c, 0, 55, 30
1, 97372, Note_off_c, 0, 55, 64
1, 97380, Note_off_c, 0, 73, 64
1, 97420, Note_on_c, 0, 61, 43
1, 97442, Note_on_c, 0, 63, 34
1, 97500, Note_off_c, 0, 61, 64
1, 97512, Note_off_c, 0, 63, 64
1, 97562, Note_on_c, 0, 55, 31
1, 97570, Note_on_c, 0, 70, 22
1, 97626, Note_off_c, 0, 55, 64
1, 97658, Note_off_c, 0, 70, 64
1, 97670, Note_on_c, 0, 73, 29
1, 97676, Note_off_c, 0, 75, 64
1, 97678, Note_on_c, 0, 51, 31
1, 97730, Note_off_c, 0, 73, 64
1, 97752, Note_off_c, 0, 51, 64
1, 97918, Note_on_c, 0, 84, 65
1, 97962, Note_on_c, 0, 44, 33
1, 97998, Note_off_c, 0, 84, 64
1, 98030, Note_off_c, 0, 44, 64
1, 98178, Note_on_c, 0, 70, 28
1, 98252, Note_off_c, 0, 70, 64
1, 98266, Note_on_c, 0, 55, 23
1, 98294, Note_on_c, 0, 73, 24
1, 98344, Note_off_c, 0, 55, 64
1, 98358, Note_on_c, 0, 61, 39
1, 98364, Note_off_c, 0, 73, 64
1, 98406, Note_on_c, 0, 63, 20
1, 98430, Note_off_c, 0, 61, 64
1, 98464, Note_on_c, 0, 70, 40
1, 98472, Note_off_c, 0, 63, 64
1, 98562, Note_on_c, 0, 51, 27
1, 98594, Note_on_c, 0, 73, 20
1, 98602, Note_off_c, 0, 70, 64
1, 98632, Note_on_c, 0, 79, 81
1, 98638, Note_off_c, 0, 51, 64
1, 98662, Note_off_c, 0, 73, 64
1, 98670, Note_on_c, 0, 44, 41
1, 98724, Note_off_c, 0, 79, 64
1, 98727, Note_off_c, 0, 44, 64
1, 98754, Note_on_c, 0, 70, 38
1, 98764, Note_on_c, 0, 51, 17
1, 98846, Note_off_c, 0, 70, 64
1, 98852, Note_on_c, 0, 73, 31
1, 98874, Note_off_c, 0, 51, 64
1, 98886, Note_on_c, 0, 55, 34
1, 98950, Note_off_c, 0, 55, 64
1, 98982, Note_off_c, 0, 73, 64
1, 98982, Note_on_c, 0, 61, 47
1, 98994, Note_on_c, 0, 63, 22
1, 99060, Note_off_c, 0, 63, 64
1, 99064, Note_off_c, 0, 61, 64
1, 99068, Note_on_c, 0, 70, 35
1, 99196, Note_on_c, 0, 51, 20
1, 99199, Note_off_c, 0, 70, 64
1, 99203, Note_on_c, 0, 73, 27
1, 99268, Note_off_c, 0, 51, 64
1, 99308, Note_off_c, 0, 73, 64
1, 99314, Control_c, 0, 64, 0
1, 99328, Note_on_c, 0, 80, 65
1, 99340, Note_on_c, 0, 44, 43
1, 99462, Note_on_c, 0, 68, 32
1, 99468, Control_c, 0, 64, 127
1, 99492, Note_off_c, 0, 44, 64
1, 99524, Note_off_c, 0, 80, 64
1, 99538, Note_on_c, 0, 51, 17
1, 99544, Note_off_c, 0, 68, 64
1, 99580, Note_on_c, 0, 72, 33
1, 99620, Note_on_c, 0, 56, 33
1, 99626, Note_off_c, 0, 51, 64
1, 99658, Note_off_c, 0, 72, 64
1, 99688, Note_off_c, 0, 56, 64
1, 99736, Note_on_c, 0, 63, 34
1, 99768, Note_on_c, 0, 60, 37
1, 99830, Note_off_c, 0, 60, 64
1, 99846, Note_off_c, 0, 63, 64
1, 99888, Note_on_c, 0, 56, 10
1, 99888, Note_on_c, 0, 68, 32
1, 99940, Note_off_c, 0, 56, 64
1, 99952, Note_off_c, 0, 68, 64
1, 99960, Note_on_c, 0, 51, 32
1, 99988, Note_on_c, 0, 72, 39
1, 100026, Note_off_c, 0, 51, 64
1, 100058, Note_off_c, 0, 72, 64
1, 100061, Note_on_c, 0, 44, 55
1, 100072, Note_on_c, 0, 75, 62
1, 100114, Note_off_c, 0, 44, 64
1, 100172, Note_on_c, 0, 68, 38
1, 100254, Note_off_c, 0, 68, 64
1, 100274, Note_on_c, 0, 56, 46
1, 100292, Note_on_c, 0, 72, 37
1, 100332, Note_off_c, 0, 56, 64
1, 100354, Note_off_c, 0, 75, 64
1, 100364, Note_on_c, 0, 63, 43
1, 100370, Note_off_c, 0, 72, 64
1, 100380, Note_on_c, 0, 60, 35
1, 100438, Note_off_c, 0, 60, 64
1, 100470, Note_off_c, 0, 63, 64
1, 100476, Note_on_c, 0, 68, 40
1, 100556, Note_on_c, 0, 51, 29
1, 100556, Note_on_c, 0, 72, 48
1, 100564, Note_off_c, 0, 68, 64
1, 100644, Note_off_c, 0, 51, 64
1, 100666, Note_on_c, 0, 75, 68
1, 100684, Note_on_c, 0, 44, 41
1, 100688, Note_off_c, 0, 72, 64
1, 100696, Control_c, 0, 64, 0
1, 100758, Note_off_c, 0, 44, 64
1, 100758, Control_c, 0, 64, 127
1, 100768, Note_on_c, 0, 68, 41
1, 100834, Note_off_c, 0, 68, 64
1, 100874, Note_on_c, 0, 72, 31
1, 100908, Note_on_c, 0, 56, 37
1, 100960, Note_on_c, 0, 63, 41
1, 100964, Note_off_c, 0, 72, 64
1, 100970, Note_off_c, 0, 56, 64
1, 101010, Note_on_c, 0, 60, 15
1, 101020, Note_off_c, 0, 75, 64
1, 101046, Note_off_c, 0, 63, 64
1, 101070, Note_on_c, 0, 68, 45
1, 101078, Note_off_c, 0, 60, 64
1, 101146, Note_on_c, 0, 51, 38
1, 101148, Note_off_c, 0, 68, 64
1, 101156, Note_on_c, 0, 72, 51
1, 101216, Note_off_c, 0, 51, 64
1, 101260, Note_on_c, 0, 44, 53
1, 101260, Note_on_c, 0, 75, 64
1, 101288, Note_off_c, 0, 72, 64
1, 101296, Control_c, 0, 64, 0
1, 101324, Note_off_c, 0, 44, 64
1, 101358, Note_on_c, 0, 68, 35
1, 101386, Note_on_c, 0, 51, 31
1, 101404, Control_c, 0, 64, 127
1, 101436, Note_off_c, 0, 68, 64
1, 101464, Note_on_c, 0, 72, 43
1, 101467, Note_off_c, 0, 51, 64
1, 101472, Note_on_c, 0, 56, 46
1, 101534, Note_off_c, 0, 56, 64
1, 101540, Note_off_c, 0, 72, 64
1, 101570, Note_on_c, 0, 63, 38
1, 101582, Note_on_c, 0, 60, 27
1, 101646, Note_off_c, 0, 60, 64
1, 101656, Note_off_c, 0, 63, 64
1, 101667, Note_on_c, 0, 68, 49
1, 101740, Note_off_c, 0, 75, 64
1, 101756, Note_off_c, 0, 68, 64
1, 101759, Note_on_c, 0, 51, 30
1, 101766, Note_on_c, 0, 72, 47
1, 101836, Note_off_c, 0, 51, 64
1, 101850, Note_on_c, 0, 44, 59
1, 101850, Control_c, 0, 64, 0
1, 101856, Note_on_c, 0, 77, 68
1, 101906, Note_off_c, 0, 72, 64
1, 101909, Note_off_c, 0, 44, 64
1, 101954, Note_on_c, 0, 70, 28
1, 101974, Note_on_c, 0, 51, 16
1, 101986, Control_c, 0, 64, 127
1, 102052, Note_off_c, 0, 70, 64
1, 102062, Note_off_c, 0, 51, 64
1, 102068, Note_on_c, 0, 55, 38
1, 102068, Note_on_c, 0, 73, 34
1, 102132, Note_off_c, 0, 55, 64
1, 102172, Note_off_c, 0, 73, 64
1, 102202, Note_on_c, 0, 61, 32
1, 102228, Note_off_c, 0, 77, 64
1, 102230, Note_on_c, 0, 63, 30
1, 102286, Note_off_c, 0, 61, 64
1, 102344, Note_on_c, 0, 55, 20
1, 102354, Note_on_c, 0, 70, 30
1, 102416, Note_off_c, 0, 55, 64
1, 102432, Note_off_c, 0, 70, 64
1, 102442, Note_on_c, 0, 73, 37
1, 102447, Note_off_c, 0, 63, 64
1, 102502, Note_on_c, 0, 51, 2
1, 102584, Note_off_c, 0, 51, 64
1, 102598, Note_on_c, 0, 75, 49
1, 102608, Note_off_c, 0, 73, 64
1, 102612, Note_on_c, 0, 44, 36
1, 102632, Control_c, 0, 64, 0
1, 102690, Note_on_c, 0, 70, 32
1, 102693, Note_off_c, 0, 44, 64
1, 102756, Control_c, 0, 64, 127
1, 102802, Note_on_c, 0, 73, 28
1, 102806, Note_off_c, 0, 70, 64
1, 102866, Note_on_c, 0, 55, 23
1, 102910, Note_off_c, 0, 73, 64
1, 102942, Note_off_c, 0, 55, 64
1, 102956, Note_on_c, 0, 61, 39
1, 102962, Note_on_c, 0, 63, 31
1, 103026, Note_off_c, 0, 63, 64
1, 103031, Note_off_c, 0, 61, 64
1, 103100, Note_on_c, 0, 70, 20
1, 103156, Note_on_c, 0, 55, 12
1, 103192, Note_off_c, 0, 75, 64
1, 103197, Note_off_c, 0, 70, 64
1, 103220, Note_on_c, 0, 73, 32
1, 103232, Note_off_c, 0, 55, 64
1, 103282, Note_off_c, 0, 73, 64
1, 103308, Note_on_c, 0, 51, 7
1, 103386, Note_off_c, 0, 51, 64
1, 103626, Note_on_c, 0, 89, 50
1, 103672, Note_on_c, 0, 44, 26
1, 103718, Note_off_c, 0, 89, 64
1, 103800, Note_off_c, 0, 44, 64
1, 103946, Note_on_c, 0, 70, 30
1, 104028, Note_off_c, 0, 70, 64
1, 104090, Note_on_c, 0, 73, 23
1, 104096, Note_on_c, 0, 55, 13
1, 104162, Note_off_c, 0, 55, 64
1, 104180, Note_off_c, 0, 73, 64
1, 104188, Note_on_c, 0, 61, 29
1, 104228, Note_on_c, 0, 63, 26
1, 104284, Note_off_c, 0, 61, 64
1, 104287, Note_off_c, 0, 63, 64
1, 104340, Note_on_c, 0, 70, 27
1, 104422, Note_off_c, 0, 70, 64
1, 104434, Note_on_c, 0, 73, 26
1, 104452, Note_on_c, 0, 51, 17
1, 104558, Note_off_c, 0, 51, 64
1, 104564, Note_off_c, 0, 73, 64
1, 104576, Note_on_c, 0, 79, 57
1, 104602, Note_on_c, 0, 44, 35
1, 104666, Note_off_c, 0, 44, 64
1, 104668, Note_off_c, 0, 79, 64
1, 104718, Note_on_c, 0, 70, 25
1, 104792, Note_off_c, 0, 70, 64
1, 104834, Note_on_c, 0, 73, 29
1, 104908, Note_off_c, 0, 73, 64
1, 104966, Note_on_c, 0, 61, 38
1, 104972, Note_on_c, 0, 63, 25
1, 105034, Note_off_c, 0, 63, 64
1, 105036, Note_off_c, 0, 61, 64
1, 105078, Note_on_c, 0, 70, 27
1, 105160, Note_off_c, 0, 70, 64
1, 105220, Note_on_c, 0, 73, 36
1, 105284, Note_off_c, 0, 73, 64
1, 105468, Note_on_c, 0, 80, 46
1, 105476, Control_c, 0, 64, 0
1, 105494, Note_on_c, 0, 44, 27
1, 105660, Control_c, 0, 64, 127
1, 105663, Note_off_c, 0, 44, 64
1, 105663, Note_on_c, 0, 68, 18
1, 105708, Note_off_c, 0, 80, 64
1, 105806, Note_off_c, 0, 68, 64
1, 105820, Note_on_c, 0, 72, 35
1, 105826, Note_on_c, 0, 56, 24
1, 105900, Note_off_c, 0, 56, 64
1, 105922, Note_off_c, 0, 72, 64
1, 105994, Note_on_c, 0, 63, 41
1, 106000, Note_on_c, 0, 60, 33
1, 106076, Note_off_c, 0, 60, 64
1, 106100, Note_off_c, 0, 63, 64
1, 106118, Note_on_c, 0, 56, 23
1, 106164, Note_on_c, 0, 68, 20
1, 106188, Note_off_c, 0, 56, 64
1, 106226, Note_on_c, 0, 51, 20
1, 106236, Note_off_c, 0, 68, 64
1, 106250, Note_on_c, 0, 72, 36
1, 106342, Note_off_c, 0, 51, 64
1, 106378, Note_on_c, 0, 44, 26
1, 106378, Note_on_c, 0, 75, 52
1, 106386, Note_off_c, 0, 72, 64
1, 106446, Note_off_c, 0, 44, 64
1, 106466, Note_on_c, 0, 68, 35
1, 106492, Note_on_c, 0, 51, 21
1, 106546, Note_off_c, 0, 68, 64
1, 106586, Note_off_c, 0, 51, 64
1, 106600, Note_on_c, 0, 56, 27
1, 106600, Note_on_c, 0, 72, 30
1, 106670, Note_off_c, 0, 56, 64
1, 106680, Note_off_c, 0, 72, 64
1, 106702, Note_on_c, 0, 63, 24
1, 106702, Note_on_c, 0, 60, 23
1, 106760, Note_off_c, 0, 63, 64
1, 106770, Note_off_c, 0, 60, 64
1, 106788, Note_on_c, 0, 68, 35
1, 106796, Note_on_c, 0, 56, 11
1, 106834, Note_off_c, 0, 75, 64
1, 106854, Note_off_c, 0, 56, 64
1, 106866, Note_on_c, 0, 51, 41
1, 106888, Note_off_c, 0, 68, 64
1, 106904, Note_on_c, 0, 72, 23
1, 106930, Note_off_c, 0, 51, 64
1, 106972, Note_on_c, 0, 77, 68
1, 106982, Note_on_c, 0, 44, 54
1, 106992, Note_off_c, 0, 72, 64
1, 106995, Control_c, 0, 64, 0
1, 107038, Note_off_c, 0, 44, 64
1, 107058, Control_c, 0, 64, 127
1, 107070, Note_on_c, 0, 68, 39
1, 107108, Note_on_c, 0, 51, 32
1, 107120, Note_off_c, 0, 77, 64
1, 107182, Note_off_c, 0, 68, 64
1, 107186, Note_on_c, 0, 72, 25
1, 107190, Note_off_c, 0, 51, 64
1, 107196, Note_on_c, 0, 56, 36
1, 107254, Note_off_c, 0, 72, 64
1, 107258, Note_off_c, 0, 56, 64
1, 107270, Note_on_c, 0, 63, 58
1, 107296, Note_on_c, 0, 60, 39
1, 107356, Note_off_c, 0, 60, 64
1, 107381, Note_off_c, 0, 63, 64
1, 107392, Note_on_c, 0, 68, 40
1, 107434, Note_on_c, 0, 72, 53
1, 107450, Note_off_c, 0, 68, 64
1, 107454, Note_on_c, 0, 51, 38
1, 107518, Note_off_c, 0, 51, 64
1, 107536, Note_on_c, 0, 75, 70
1, 107558, Note_on_c, 0, 44, 60
1, 107594, Note_off_c, 0, 72, 64
1, 107606, Note_off_c, 0, 44, 64
1, 107630, Note_on_c, 0, 68, 48
1, 107698, Note_on_c, 0, 51, 8
1, 107726, Note_off_c, 0, 68, 64
1, 107758, Note_on_c, 0, 72, 34
1, 107758, Note_on_c, 0, 56, 25
1, 107766, Note_off_c, 0, 51, 64
1, 107816, Note_on_c, 0, 63, 56
1, 107819, Note_off_c, 0, 75, 64
1, 107826, Note_on_c, 0, 60, 47
1, 107828, Note_off_c, 0, 72, 64
1, 107828, Note_off_c, 0, 56, 64
1, 107886, Note_off_c, 0, 60, 64
1, 107928, Note_on_c, 0, 68, 38
1, 107950, Note_on_c, 0, 51, 44
1, 107954, Note_off_c, 0, 63, 64
1, 107988, Note_off_c, 0, 68, 64
1, 108000, Note_on_c, 0, 72, 41
1, 108008, Note_off_c, 0, 51, 64
1, 108056, Note_off_c, 0, 72, 64
1, 108080, Note_on_c, 0, 73, 72
1, 108096, Note_on_c, 0, 39, 54
1, 108102, Control_c, 0, 64, 0
1, 108152, Note_off_c, 0, 39, 64
1, 108190, Note_on_c, 0, 44, 49
1, 108195, Control_c, 0, 64, 127
1, 108200, Note_on_c, 0, 63, 51
1, 108252, Note_off_c, 0, 63, 64
1, 108260, Note_off_c, 0, 44, 64
1, 108272, Note_on_c, 0, 68, 46
1, 108336, Note_off_c, 0, 73, 64
1, 108346, Note_off_c, 0, 68, 64
1, 108352, Note_on_c, 0, 61, 66
1, 108370, Note_on_c, 0, 56, 61
1, 108424, Note_off_c, 0, 56, 64
1, 108436, Note_off_c, 0, 61, 64
1, 108446, Note_on_c, 0, 63, 35
1, 108496, Note_on_c, 0, 68, 55
1, 108508, Note_off_c, 0, 63, 64
1, 108520, Note_on_c, 0, 44, 31
1, 108584, Note_off_c, 0, 44, 64
1, 108596, Note_on_c, 0, 72, 73
1, 108600, Note_on_c, 0, 39, 55
1, 108640, Control_c, 0, 64, 0
1, 108648, Note_off_c, 0, 39, 64
1, 108654, Note_off_c, 0, 68, 64
1, 108666, Note_on_c, 0, 63, 51
1, 108704, Note_on_c, 0, 44, 28
1, 108716, Control_c, 0, 64, 127
1, 108764, Note_off_c, 0, 63, 64
1, 108764, Note_on_c, 0, 68, 26
1, 108776, Note_off_c, 0, 44, 64
1, 108812, Note_on_c, 0, 51, 24
1, 108838, Note_off_c, 0, 72, 64
1, 108860, Note_on_c, 0, 56, 51
1, 108862, Note_off_c, 0, 68, 64
1, 108864, Note_on_c, 0, 60, 61
1, 108884, Note_off_c, 0, 51, 64
1, 108930, Note_off_c, 0, 56, 64
1, 108948, Note_on_c, 0, 63, 40
1, 108964, Note_off_c, 0, 60, 64
1, 109004, Note_off_c, 0, 63, 64
1, 109016, Note_on_c, 0, 68, 34
1, 109022, Note_on_c, 0, 44, 25
1, 109098, Note_off_c, 0, 44, 64
1, 109108, Note_on_c, 0, 73, 59
1, 109114, Note_off_c, 0, 68, 64
1, 109114, Note_on_c, 0, 39, 48
1, 109132, Control_c, 0, 64, 0
1, 109170, Note_off_c, 0, 39, 64
1, 109198, Note_on_c, 0, 63, 41
1, 109224, Control_c, 0, 64, 127
1, 109230, Note_on_c, 0, 44, 23
1, 109292, Note_off_c, 0, 63, 64
1, 109300, Note_off_c, 0, 44, 64
1, 109304, Note_on_c, 0, 68, 30
1, 109344, Note_on_c, 0, 51, 22
1, 109402, Note_off_c, 0, 73, 64
1, 109416, Note_off_c, 0, 68, 64
1, 109418, Note_off_c, 0, 51, 64
1, 109418, Note_on_c, 0, 61, 50
1, 109426, Note_on_c, 0, 56, 33
1, 109508, Note_off_c, 0, 56, 64
1, 109544, Note_on_c, 0, 63, 46
1, 109546, Note_off_c, 0, 61, 64
1, 109608, Note_off_c, 0, 63, 64
1, 109616, Note_on_c, 0, 68, 34
1, 109631, Note_on_c, 0, 44, 23
1, 109706, Note_off_c, 0, 44, 64
1, 109718, Note_off_c, 0, 68, 64
1, 109730, Note_on_c, 0, 72, 45
1, 109736, Note_on_c, 0, 39, 44
1, 109762, Control_c, 0, 64, 0
1, 109790, Note_off_c, 0, 39, 64
1, 109810, Note_on_c, 0, 63, 38
1, 109823, Control_c, 0, 64, 127
1, 109846, Note_on_c, 0, 44, 20
1, 109920, Note_off_c, 0, 44, 64
1, 109924, Note_off_c, 0, 63, 64
1, 109930, Note_on_c, 0, 68, 29
1, 109962, Note_off_c, 0, 72, 64
1, 110002, Note_off_c, 0, 68, 64
1, 110008, Note_on_c, 0, 60, 41
1, 110020, Note_on_c, 0, 56, 47
1, 110068, Note_off_c, 0, 56, 64
1, 110118, Note_on_c, 0, 63, 36
1, 110140, Note_off_c, 0, 60, 64
1, 110174, Note_on_c, 0, 68, 23
1, 110200, Note_off_c, 0, 63, 64
1, 110248, Note_off_c, 0, 68, 64
1, 110256, Note_on_c, 0, 70, 45
1, 110272, Note_on_c, 0, 32, 53
1, 110300, Control_c, 0, 64, 0
1, 110360, Control_c, 0, 64, 127
1, 110372, Note_on_c, 0, 60, 36
1, 110386, Note_off_c, 0, 32, 64
1, 110428, Note_on_c, 0, 39, 19
1, 110436, Note_off_c, 0, 60, 64
1, 110456, Note_off_c, 0, 70, 64
1, 110459, Note_on_c, 0, 63, 42
1, 110518, Note_off_c, 0, 39, 64
1, 110528, Note_off_c, 0, 63, 64
1, 110548, Note_on_c, 0, 58, 57
1, 110584, Note_on_c, 0, 51, 43
1, 110638, Note_off_c, 0, 51, 64
1, 110668, Note_on_c, 0, 60, 47
1, 110692, Note_off_c, 0, 58, 64
1, 110738, Note_on_c, 0, 63, 40
1, 110740, Note_off_c, 0, 60, 64
1, 110756, Note_on_c, 0, 39, 8
1, 110796, Note_off_c, 0, 63, 64
1, 110810, Note_on_c, 0, 68, 38
1, 110826, Note_on_c, 0, 32, 47
1, 110829, Note_off_c, 0, 39, 64
1, 110876, Note_off_c, 0, 32, 64
1, 110912, Note_on_c, 0, 60, 36
1, 110920, Note_on_c, 0, 39, 26
1, 110980, Note_on_c, 0, 63, 35
1, 110988, Note_off_c, 0, 60, 64
1, 111032, Note_off_c, 0, 39, 64
1, 111046, Note_on_c, 0, 44, 18
1, 111054, Note_off_c, 0, 63, 64
1, 111070, Note_on_c, 0, 56, 50
1, 111086, Note_off_c, 0, 68, 64
1, 111104, Note_off_c, 0, 44, 64
1, 111108, Note_on_c, 0, 51, 46
1, 111164, Note_off_c, 0, 51, 64
1, 111164, Note_on_c, 0, 60, 43
1, 111184, Note_on_c, 0, 44, 41
1, 111186, Note_off_c, 0, 56, 64
1, 111234, Note_off_c, 0, 60, 64
1, 111244, Note_off_c, 0, 44, 64
1, 111252, Note_on_c, 0, 63, 40
1, 111278, Note_on_c, 0, 39, 11
1, 111326, Note_off_c, 0, 63, 64
1, 111328, Note_on_c, 0, 70, 59
1, 111342, Note_on_c, 0, 32, 54
1, 111344, Control_c, 0, 64, 0
1, 111360, Note_off_c, 0, 39, 64
1, 111398, Note_off_c, 0, 32, 64
1, 111436, Control_c, 0, 64, 127
1, 111472, Note_on_c, 0, 60, 27
1, 111474, Note_on_c, 0, 39, 5
1, 111484, Note_off_c, 0, 70, 64
1, 111524, Note_on_c, 0, 63, 35
1, 111530, Note_off_c, 0, 39, 64
1, 111558, Note_off_c, 0, 60, 64
1, 111572, Note_on_c, 0, 44, 31
1, 111594, Note_off_c, 0, 63, 64
1, 111608, Note_on_c, 0, 58, 49
1, 111642, Note_off_c, 0, 44, 64
1, 111645, Note_on_c, 0, 51, 49
1, 111702, Note_off_c, 0, 51, 64
1, 111718, Note_on_c, 0, 44, 34
1, 111736, Note_on_c, 0, 60, 24
1, 111740, Note_off_c, 0, 58, 64
1, 111786, Note_on_c, 0, 63, 47
1, 111788, Note_off_c, 0, 44, 64
1, 111814, Note_off_c, 0, 60, 64
1, 111856, Note_off_c, 0, 63, 64
1, 111864, Note_on_c, 0, 68, 47
1, 111886, Note_on_c, 0, 32, 47
1, 111912, Control_c, 0, 64, 0
1, 111936, Note_off_c, 0, 32, 64
1, 111962, Note_on_c, 0, 60, 40
1, 111984, Note_on_c, 0, 39, 18
1, 112004, Control_c, 0, 64, 127
1, 112052, Note_off_c, 0, 60, 64
1, 112080, Note_off_c, 0, 39, 64
1, 112090, Note_on_c, 0, 44, 44
1, 112096, Note_on_c, 0, 63, 23
1, 112116, Note_off_c, 0, 68, 64
1, 112132, Note_on_c, 0, 56, 48
1, 112146, Note_off_c, 0, 44, 64
1, 112158, Note_off_c, 0, 63, 64
1, 112172, Note_on_c, 0, 51, 42
1, 112230, Note_off_c, 0, 56, 64
1, 112230, Note_off_c, 0, 51, 64
1, 112233, Note_on_c, 0, 60, 37
1, 112250, Note_on_c, 0, 44, 16
1, 112298, Note_off_c, 0, 60, 64
1, 112300, Note_on_c, 0, 63, 40
1, 112308, Note_off_c, 0, 44, 64
1, 112310, Note_on_c, 0, 39, 32
1, 112372, Note_off_c, 0, 39, 64
1, 112382, Note_on_c, 0, 70, 55
1, 112388, Note_off_c, 0, 63, 64
1, 112402, Note_on_c, 0, 32, 50
1, 112404, Control_c, 0, 64, 0
1, 112450, Note_off_c, 0, 32, 64
1, 112490, Note_on_c, 0, 60, 45
1, 112496, Control_c, 0, 64, 127
1, 112526, Note_off_c, 0, 70, 64
1, 112542, Note_on_c, 0, 39, 8
1, 112582, Note_on_c, 0, 63, 35
1, 112602, Note_off_c, 0, 60, 64
1, 112618, Note_off_c, 0, 39, 64
1, 112634, Note_on_c, 0, 44, 25
1, 112660, Note_off_c, 0, 63, 64
1, 112676, Note_on_c, 0, 58, 36
1, 112690, Note_on_c, 0, 51, 44
1, 112706, Note_off_c, 0, 44, 64
1, 112752, Note_off_c, 0, 51, 64
1, 112780, Note_off_c, 0, 58, 64
1, 112785, Note_on_c, 0, 60, 33
1, 112785, Note_on_c, 0, 44, 34
1, 112852, Note_on_c, 0, 63, 43
1, 112855, Note_off_c, 0, 44, 64
1, 112855, Note_on_c, 0, 39, 28
1, 112860, Note_off_c, 0, 60, 64
1, 112920, Note_off_c, 0, 63, 64
1, 112920, Note_off_c, 0, 39, 64
1, 112940, Note_on_c, 0, 68, 38
1, 112950, Note_on_c, 0, 32, 45
1, 112998, Note_off_c, 0, 32, 64
1, 113020, Control_c, 0, 64, 0
1, 113030, Note_on_c, 0, 60, 39
1, 113096, Control_c, 0, 64, 127
1, 113134, Note_off_c, 0, 60, 64
1, 113170, Note_on_c, 0, 63, 26
1, 113176, Note_on_c, 0, 44, 27
1, 113196, Note_off_c, 0, 68, 64
1, 113222, Note_on_c, 0, 56, 40
1, 113232, Note_off_c, 0, 63, 64
1, 113248, Note_off_c, 0, 44, 64
1, 113248, Note_on_c, 0, 51, 32
1, 113312, Note_off_c, 0, 56, 64
1, 113312, Note_off_c, 0, 51, 64
1, 113338, Note_on_c, 0, 44, 20
1, 113396, Note_off_c, 0, 44, 64
1, 113414, Note_on_c, 0, 63, 38
1, 113418, Note_on_c, 0, 39, 17
1, 113480, Note_off_c, 0, 63, 64
1, 113492, Note_off_c, 0, 39, 64
1, 113502, Note_on_c, 0, 70, 35
1, 113502, Note_on_c, 0, 32, 40
1, 113562, Note_off_c, 0, 32, 64
1, 113606, Note_off_c, 0, 70, 64
1, 113620, Note_on_c, 0, 60, 29
1, 113638, Note_on_c, 0, 39, 2
1, 113710, Note_off_c, 0, 60, 64
1, 113710, Note_off_c, 0, 39, 64
1, 113710, Note_on_c, 0, 63, 25
1, 113738, Note_on_c, 0, 44, 32
1, 113786, Note_off_c, 0, 63, 64
1, 113798, Note_on_c, 0, 58, 40
1, 113808, Note_off_c, 0, 44, 64
1, 113840, Note_on_c, 0, 51, 39
1, 113902, Note_off_c, 0, 51, 64
1, 113924, Note_on_c, 0, 60, 24
1, 113952, Note_on_c, 0, 44, 14
1, 113990, Note_off_c, 0, 58, 64
1, 114008, Note_off_c, 0, 44, 64
1, 114010, Note_on_c, 0, 63, 30
1, 114022, Note_off_c, 0, 60, 64
1, 114084, Note_off_c, 0, 63, 64
1, 114128, Note_on_c, 0, 68, 26
1, 114144, Note_on_c, 0, 32, 30
1, 114206, Note_off_c, 0, 32, 64
1, 114242, Note_on_c, 0, 60, 28
1, 114336, Note_off_c, 0, 60, 64
1, 114380, Note_on_c, 0, 44, 24
1, 114398, Note_on_c, 0, 63, 13
1, 114458, Note_off_c, 0, 44, 64
1, 114472, Note_off_c, 0, 63, 64
1, 114480, Note_on_c, 0, 56, 32
1, 114500, Note_on_c, 0, 51, 33
1, 114562, Note_off_c, 0, 51, 64
1, 114598, Note_off_c, 0, 56, 64
1, 114636, Note_on_c, 0, 44, 29
1, 114704, Note_off_c, 0, 44, 64
1, 114742, Note_off_c, 0, 68, 64
1, 114762, Note_on_c, 0, 39, 20
1, 114838, Note_off_c, 0, 39, 64
1, 114950, Note_on_c, 0, 32, 37
1, 115016, Control_c, 0, 64, 0
1, 115094, Note_off_c, 0, 32, 64
1, 115108, Control_c, 0, 64, 127
1, 115128, Note_on_c, 0, 48, 19
1, 115140, Note_on_c, 0, 39, 31
1, 115210, Note_off_c, 0, 48, 64
1, 115212, Note_off_c, 0, 39, 64
1, 115232, Note_on_c, 0, 51, 33
1, 115290, Note_on_c, 0, 44, 9
1, 115300, Note_off_c, 0, 51, 64
1, 115336, Note_off_c, 0, 44, 64
1, 115374, Note_on_c, 0, 56, 41
1, 115384, Note_on_c, 0, 48, 23
1, 115432, Note_off_c, 0, 56, 64
1, 115448, Note_off_c, 0, 48, 64
1, 115496, Note_on_c, 0, 60, 48
1, 115520, Note_on_c, 0, 51, 39
1, 115558, Note_off_c, 0, 60, 64
1, 115616, Note_on_c, 0, 63, 48
1, 115634, Note_off_c, 0, 51, 64
1, 115646, Note_on_c, 0, 56, 42
1, 115674, Note_off_c, 0, 63, 64
1, 115702, Note_off_c, 0, 56, 64
1, 115736, Note_on_c, 0, 68, 51
1, 115754, Note_on_c, 0, 60, 44
1, 115780, Note_off_c, 0, 68, 64
1, 115810, Note_off_c, 0, 60, 64
1, 115876, Note_on_c, 0, 72, 32
1, 115876, Note_on_c, 0, 63, 48
1, 115946, Note_off_c, 0, 72, 64
1, 115960, Note_off_c, 0, 63, 64
1, 115964, Note_on_c, 0, 75, 55
1, 115974, Note_on_c, 0, 68, 54
1, 116020, Note_off_c, 0, 75, 64
1, 116023, Note_off_c, 0, 68, 64
1, 116064, Note_on_c, 0, 80, 60
1, 116068, Note_on_c, 0, 72, 53
1, 116104, Note_off_c, 0, 80, 64
1, 116114, Note_off_c, 0, 72, 64
1, 116182, Note_on_c, 0, 84, 55
1, 116198, Note_on_c, 0, 75, 46
1, 116230, Note_off_c, 0, 84, 64
1, 116272, Note_on_c, 0, 80, 54
1, 116274, Note_on_c, 0, 87, 40
1, 116275, Note_off_c, 0, 75, 64
1, 116326, Note_off_c, 0, 87, 64
1, 116328, Note_off_c, 0, 80, 64
1, 116374, Note_on_c, 0, 92, 50
1, 116400, Note_on_c, 0, 84, 67
1, 116452, Note_off_c, 0, 84, 64
1, 116496, Note_on_c, 0, 87, 42
1, 116500, Note_on_c, 0, 80, 43
1, 116518, Note_off_c, 0, 92, 64
1, 116544, Note_off_c, 0, 87, 64
1, 116554, Note_off_c, 0, 80, 64
1, 116590, Note_on_c, 0, 75, 32
1, 116598, Note_on_c, 0, 84, 37
1, 116658, Note_off_c, 0, 84, 64
1, 116660, Note_off_c, 0, 75, 64
1, 116704, Note_on_c, 0, 72, 59
1, 116714, Note_on_c, 0, 80, 49
1, 116752, Note_off_c, 0, 72, 64
1, 116810, Note_on_c, 0, 68, 48
1, 116818, Note_on_c, 0, 75, 51
1, 116824, Note_off_c, 0, 80, 64
1, 116864, Note_off_c, 0, 68, 64
1, 116874, Note_off_c, 0, 75, 64
1, 116908, Note_on_c, 0, 72, 58
1, 116930, Note_on_c, 0, 63, 36
1, 116978, Note_off_c, 0, 72, 64
1, 116988, Note_off_c, 0, 63, 64
1, 117022, Note_on_c, 0, 68, 64
1, 117044, Note_on_c, 0, 56, 49
1, 117082, Note_off_c, 0, 68, 64
1, 117098, Note_off_c, 0, 56, 64
1, 117150, Note_on_c, 0, 72, 54
1, 117164, Note_on_c, 0, 63, 30
1, 117204, Note_off_c, 0, 72, 64
1, 117240, Note_off_c, 0, 63, 64
1, 117258, Note_on_c, 0, 75, 47
1, 117260, Note_on_c, 0, 68, 48
1, 117308, Note_off_c, 0, 68, 64
1, 117314, Note_off_c, 0, 75, 64
1, 117342, Note_on_c, 0, 80, 69
1, 117348, Note_on_c, 0, 72, 36
1, 117384, Note_off_c, 0, 80, 64
1, 117412, Note_off_c, 0, 72, 64
1, 117460, Note_on_c, 0, 84, 69
1, 117466, Note_on_c, 0, 75, 28
1, 117502, Note_off_c, 0, 84, 64
1, 117546, Note_on_c, 0, 80, 52
1, 117548, Note_off_c, 0, 75, 64
1, 117556, Note_on_c, 0, 87, 54
1, 117604, Note_off_c, 0, 80, 64
1, 117607, Note_off_c, 0, 87, 64
1, 117650, Note_on_c, 0, 84, 73
1, 117650, Note_on_c, 0, 92, 66
1, 117694, Note_off_c, 0, 84, 64
1, 117740, Note_on_c, 0, 87, 58
1, 117750, Note_on_c, 0, 80, 42
1, 117776, Note_off_c, 0, 92, 64
1, 117792, Note_off_c, 0, 87, 64
1, 117802, Note_off_c, 0, 80, 64
1, 117826, Note_on_c, 0, 84, 55
1, 117828, Note_on_c, 0, 75, 53
1, 117870, Note_off_c, 0, 84, 64
1, 117872, Note_off_c, 0, 75, 64
1, 117926, Note_on_c, 0, 80, 52
1, 117928, Note_on_c, 0, 72, 59
1, 117980, Note_off_c, 0, 72, 64
1, 118035, Note_on_c, 0, 68, 48
1, 118038, Note_on_c, 0, 75, 57
1, 118064, Note_off_c, 0, 80, 64
1, 118083, Note_off_c, 0, 68, 64
1, 118098, Note_off_c, 0, 75, 64
1, 118134, Note_on_c, 0, 72, 60
1, 118136, Note_on_c, 0, 63, 68
1, 118178, Note_off_c, 0, 63, 64
1, 118190, Note_off_c, 0, 72, 64
1, 118240, Note_on_c, 0, 68, 60
1, 118240, Note_on_c, 0, 56, 51
1, 118284, Note_off_c, 0, 68, 64
1, 118296, Note_off_c, 0, 56, 64
1, 118336, Note_on_c, 0, 72, 63
1, 118352, Note_on_c, 0, 63, 35
1, 118386, Note_off_c, 0, 72, 64
1, 118414, Note_off_c, 0, 63, 64
1, 118444, Note_on_c, 0, 75, 59
1, 118444, Note_on_c, 0, 68, 43
1, 118496, Note_off_c, 0, 75, 64
1, 118500, Note_off_c, 0, 68, 64
1, 118540, Note_on_c, 0, 80, 67
1, 118541, Note_on_c, 0, 72, 50
1, 118576, Note_off_c, 0, 80, 64
1, 118591, Note_off_c, 0, 72, 64
1, 118644, Note_on_c, 0, 84, 74
1, 118654, Note_on_c, 0, 75, 42
1, 118688, Note_off_c, 0, 84, 64
1, 118718, Note_off_c, 0, 75, 64
1, 118746, Note_on_c, 0, 87, 47
1, 118748, Note_on_c, 0, 80, 52
1, 118798, Note_off_c, 0, 87, 64
1, 118798, Note_off_c, 0, 80, 64
1, 118830, Note_on_c, 0, 92, 59
1, 118850, Note_on_c, 0, 84, 50
1, 118900, Note_off_c, 0, 84, 64
1, 118944, Note_on_c, 0, 87, 38
1, 118948, Note_on_c, 0, 80, 12
1, 118964, Note_off_c, 0, 92, 64
1, 118994, Note_off_c, 0, 87, 64
1, 119002, Note_off_c, 0, 80, 64
1, 119037, Note_on_c, 0, 84, 48
1, 119037, Note_on_c, 0, 75, 29
1, 119084, Note_off_c, 0, 84, 64
1, 119104, Note_on_c, 0, 72, 39
1, 119109, Note_off_c, 0, 75, 64
1, 119110, Note_on_c, 0, 80, 54
1, 119166, Note_off_c, 0, 72, 64
1, 119216, Note_on_c, 0, 68, 37
1, 119220, Note_on_c, 0, 75, 43
1, 119240, Note_off_c, 0, 80, 64
1, 119270, Note_off_c, 0, 75, 64
1, 119278, Note_off_c, 0, 68, 64
1, 119296, Note_on_c, 0, 63, 44
1, 119302, Note_on_c, 0, 72, 44
1, 119346, Note_off_c, 0, 63, 64
1, 119360, Note_off_c, 0, 72, 64
1, 119406, Note_on_c, 0, 56, 41
1, 119415, Note_on_c, 0, 68, 59
1, 119458, Note_off_c, 0, 68, 64
1, 119466, Note_off_c, 0, 56, 64
1, 119515, Note_on_c, 0, 63, 44
1, 119520, Note_on_c, 0, 72, 53
1, 119565, Note_off_c, 0, 63, 64
1, 119572, Note_off_c, 0, 72, 64
1, 119608, Note_on_c, 0, 68, 21
1, 119614, Note_on_c, 0, 75, 44
1, 119672, Note_off_c, 0, 75, 64
1, 119678, Note_off_c, 0, 68, 64
1, 119702, Note_on_c, 0, 80, 59
1, 119706, Note_on_c, 0, 72, 50
1, 119750, Note_off_c, 0, 80, 64
1, 119756, Note_off_c, 0, 72, 64
1, 119828, Note_on_c, 0, 75, 39
1, 119836, Note_on_c, 0, 84, 53
1, 119884, Note_off_c, 0, 84, 64
1, 119908, Note_off_c, 0, 75, 64
1, 119936, Note_on_c, 0, 87, 39
1, 119938, Note_on_c, 0, 80, 60
1, 119994, Note_off_c, 0, 87, 64
1, 120024, Note_off_c, 0, 80, 64
1, 120054, Note_on_c, 0, 92, 52
1, 120078, Note_on_c, 0, 84, 54
1, 120126, Note_off_c, 0, 84, 64
1, 120162, Note_off_c, 0, 92, 64
1, 120162, Note_on_c, 0, 87, 55
1, 120178, Note_on_c, 0, 80, 29
1, 120214, Note_off_c, 0, 87, 64
1, 120246, Note_off_c, 0, 80, 64
1, 120270, Note_on_c, 0, 84, 30
1, 120272, Note_on_c, 0, 75, 25
1, 120336, Note_off_c, 0, 84, 64
1, 120340, Note_off_c, 0, 75, 64
1, 120354, Note_on_c, 0, 72, 51
1, 120366, Note_on_c, 0, 80, 53
1, 120406, Note_off_c, 0, 72, 64
1, 120468, Note_on_c, 0, 68, 33
1, 120470, Note_on_c, 0, 75, 62
1, 120502, Note_off_c, 0, 80, 64
1, 120530, Note_off_c, 0, 75, 64
1, 120533, Note_off_c, 0, 68, 64
1, 120556, Note_on_c, 0, 72, 74
1, 120562, Note_on_c, 0, 63, 51
1, 120610, Note_off_c, 0, 63, 64
1, 120628, Note_off_c, 0, 72, 64
1, 120676, Note_on_c, 0, 68, 69
1, 120692, Note_on_c, 0, 56, 49
1, 120740, Note_off_c, 0, 68, 64
1, 120746, Note_off_c, 0, 56, 64
1, 120792, Note_on_c, 0, 72, 62
1, 120800, Note_on_c, 0, 63, 23
1, 120844, Note_off_c, 0, 72, 64
1, 120872, Note_off_c, 0, 63, 64
1, 120906, Note_on_c, 0, 80, 69
1, 120912, Note_on_c, 0, 68, 34
1, 120952, Note_off_c, 0, 80, 64
1, 120980, Note_off_c, 0, 68, 64
1, 121014, Note_on_c, 0, 75, 58
1, 121022, Note_on_c, 0, 84, 81
1, 121080, Note_off_c, 0, 75, 64
1, 121120, Note_on_c, 0, 80, 68
1, 121130, Note_on_c, 0, 68, 47
1, 121138, Note_off_c, 0, 84, 64
1, 121174, Note_off_c, 0, 80, 64
1, 121180, Note_off_c, 0, 68, 64
1, 121216, Note_on_c, 0, 72, 60
1, 121226, Note_on_c, 0, 63, 49
1, 121274, Note_off_c, 0, 63, 64
1, 121280, Note_off_c, 0, 72, 64
1, 121320, Note_on_c, 0, 68, 74
1, 121334, Note_on_c, 0, 56, 55
1, 121378, Note_off_c, 0, 68, 64
1, 121386, Note_off_c, 0, 56, 64
1, 121434, Note_on_c, 0, 63, 3
1, 121440, Note_on_c, 0, 72, 56
1, 121484, Note_off_c, 0, 63, 64
1, 121488, Note_off_c, 0, 72, 64
1, 121536, Note_on_c, 0, 68, 38
1, 121539, Note_on_c, 0, 80, 65
1, 121598, Note_off_c, 0, 68, 64
1, 121630, Note_on_c, 0, 75, 62
1, 121638, Note_on_c, 0, 84, 81
1, 121646, Note_off_c, 0, 80, 64
1, 121674, Note_off_c, 0, 75, 64
1, 121720, Note_on_c, 0, 80, 65
1, 121720, Note_on_c, 0, 68, 38
1, 121748, Note_off_c, 0, 84, 64
1, 121782, Note_off_c, 0, 68, 64
1, 121786, Note_off_c, 0, 80, 64
1, 121818, Note_on_c, 0, 72, 54
1, 121828, Note_on_c, 0, 63, 32
1, 121882, Note_off_c, 0, 72, 64
1, 121892, Note_off_c, 0, 63, 64
1, 121906, Note_on_c, 0, 68, 62
1, 121916, Note_on_c, 0, 56, 50
1, 121954, Note_off_c, 0, 68, 64
1, 121966, Note_off_c, 0, 56, 64
1, 122030, Note_on_c, 0, 72, 34
1, 122030, Note_on_c, 0, 63, 32
1, 122094, Note_off_c, 0, 72, 64
1, 122094, Note_off_c, 0, 63, 64
1, 122120, Note_on_c, 0, 80, 50
1, 122120, Note_on_c, 0, 68, 38
1, 122172, Note_off_c, 0, 80, 64
1, 122182, Note_off_c, 0, 68, 64
1, 122192, Note_on_c, 0, 75, 40
1, 122200, Note_on_c, 0, 84, 66
1, 122250, Note_off_c, 0, 75, 64
1, 122270, Note_on_c, 0, 80, 38
1, 122274, Note_off_c, 0, 84, 64
1, 122280, Note_on_c, 0, 68, 25
1, 122326, Note_off_c, 0, 80, 64
1, 122356, Note_off_c, 0, 68, 64
1, 122360, Note_on_c, 0, 63, 45
1, 122360, Note_on_c, 0, 72, 44
1, 122408, Note_off_c, 0, 63, 64
1, 122440, Note_off_c, 0, 72, 64
1, 122456, Note_on_c, 0, 56, 42
1, 122462, Note_on_c, 0, 68, 41
1, 122512, Note_off_c, 0, 56, 64
1, 122520, Note_off_c, 0, 68, 64
1, 122566, Note_on_c, 0, 72, 49
1, 122616, Note_off_c, 0, 72, 64
1, 122675, Note_on_c, 0, 68, 38
1, 122684, Note_on_c, 0, 80, 54
1, 122737, Note_off_c, 0, 68, 64
1, 122738, Note_off_c, 0, 80, 64
1, 122752, Note_on_c, 0, 75, 45
1, 122772, Note_on_c, 0, 84, 55
1, 122800, Note_off_c, 0, 75, 64
1, 122850, Note_on_c, 0, 68, 38
1, 122852, Note_off_c, 0, 84, 64
1, 122855, Note_on_c, 0, 80, 35
1, 122906, Note_off_c, 0, 80, 64
1, 122912, Note_off_c, 0, 68, 64
1, 122938, Note_on_c, 0, 72, 37
1, 122962, Note_on_c, 0, 63, 15
1, 123004, Note_off_c, 0, 72, 64
1, 123018, Note_off_c, 0, 63, 64
1, 123030, Note_on_c, 0, 68, 55
1, 123036, Note_on_c, 0, 56, 39
1, 123090, Note_off_c, 0, 68, 64
1, 123094, Note_off_c, 0, 56, 64
1, 123160, Note_on_c, 0, 63, 45
1, 123174, Note_on_c, 0, 72, 30
1, 123220, Note_off_c, 0, 63, 64
1, 123248, Note_off_c, 0, 72, 64
1, 123255, Note_on_c, 0, 68, 38
1, 123264, Note_on_c, 0, 80, 51
1, 123314, Note_off_c, 0, 80, 64
1, 123317, Note_off_c, 0, 68, 64
1, 123336, Note_on_c, 0, 75, 42
1, 123338, Note_on_c, 0, 84, 62
1, 123386, Note_off_c, 0, 75, 64
1, 123408, Note_off_c, 0, 84, 64
1, 123418, Note_on_c, 0, 80, 27
1, 123428, Note_on_c, 0, 68, 29
1, 123470, Note_off_c, 0, 80, 64
1, 123496, Note_off_c, 0, 68, 64
1, 123496, Note_on_c, 0, 72, 45
1, 123518, Note_on_c, 0, 63, 32
1, 123566, Note_off_c, 0, 72, 64
1, 123580, Note_off_c, 0, 63, 64
1, 123598, Note_on_c, 0, 68, 40
1, 123630, Note_on_c, 0, 56, 24
1, 123656, Note_off_c, 0, 68, 64
1, 123692, Note_on_c, 0, 63, 15
1, 123700, Note_off_c, 0, 56, 64
1, 123732, Note_on_c, 0, 72, 26
1, 123780, Note_off_c, 0, 63, 64
1, 123802, Note_off_c, 0, 72, 64
1, 123835, Note_on_c, 0, 68, 38
1, 123838, Note_on_c, 0, 80, 35
1, 123896, Note_off_c, 0, 80, 64
1, 123897, Note_off_c, 0, 68, 64
1, 123912, Note_on_c, 0, 75, 32
1, 123926, Note_on_c, 0, 84, 50
1, 123972, Note_off_c, 0, 75, 64
1, 123988, Note_off_c, 0, 84, 64
1, 124000, Note_on_c, 0, 68, 38
1, 124006, Note_on_c, 0, 80, 19
1, 124062, Note_off_c, 0, 68, 64
1, 124064, Note_off_c, 0, 80, 64
1, 124094, Note_on_c, 0, 63, 31
1, 124108, Note_on_c, 0, 72, 32
1, 124154, Note_off_c, 0, 63, 64
1, 124178, Note_off_c, 0, 72, 64
1, 124222, Note_on_c, 0, 56, 40
1, 124224, Note_on_c, 0, 68, 41
1, 124282, Note_off_c, 0, 56, 64
1, 124282, Note_off_c, 0, 68, 64
1, 124352, Note_on_c, 0, 72, 36
1, 124398, Note_on_c, 0, 63, 2
1, 124410, Note_off_c, 0, 72, 64
1, 124452, Note_off_c, 0, 63, 64
1, 124455, Note_on_c, 0, 68, 30
1, 124474, Note_on_c, 0, 80, 41
1, 124526, Note_off_c, 0, 68, 64
1, 124542, Note_off_c, 0, 80, 64
1, 124592, Note_on_c, 0, 75, 37
1, 124595, Note_on_c, 0, 84, 49
1, 124648, Note_off_c, 0, 75, 64
1, 124666, Note_off_c, 0, 84, 64
1, 124714, Note_on_c, 0, 80, 36
1, 124746, Note_on_c, 0, 68, 16
1, 124772, Note_off_c, 0, 80, 64
1, 124814, Note_off_c, 0, 68, 64
1, 124834, Note_on_c, 0, 72, 31
1, 124858, Note_on_c, 0, 63, 20
1, 124920, Note_off_c, 0, 72, 64
1, 124954, Note_off_c, 0, 63, 64
1, 125032, Note_on_c, 0, 68, 37
1, 125110, Note_on_c, 0, 56, 7
1, 125142, Note_off_c, 0, 68, 64
1, 125180, Note_off_c, 0, 56, 64
1, 125534, Note_on_c, 0, 44, 28
1, 125682, Note_off_c, 0, 44, 64
1, 125698, Note_on_c, 0, 51, 17
1, 125774, Note_off_c, 0, 51, 64
1, 125806, Note_on_c, 0, 80, 33
1, 125930, Note_on_c, 0, 60, 21
1, 125938, Note_off_c, 0, 80, 64
1, 125980, Note_on_c, 0, 87, 11
1, 126042, Note_off_c, 0, 60, 64
1, 126188, Note_off_c, 0, 87, 64
1, 126196, Note_on_c, 0, 92, 22
1, 126330, Note_off_c, 0, 92, 64
1, 127254, Note_on_c, 0, 38, 67
1, 127490, Note_on_c, 0, 39, 68
1, 127564, Note_off_c, 0, 38, 64
1, 127648, Note_on_c, 0, 41, 76
1, 127676, Note_off_c, 0, 39, 64
1, 127812, Note_on_c, 0, 63, 60
1, 127812, Note_on_c, 0, 72, 75
1, 127830, Control_c, 0, 64, 0
1, 127832, Note_on_c, 0, 39, 62
1, 127856, Note_off_c, 0, 41, 64
1, 128046, Note_on_c, 0, 41, 55
1, 128060, Note_off_c, 0, 39, 64
1, 128092, Control_c, 0, 64, 127
1, 128170, Note_on_c, 0, 39, 49
1, 128188, Note_off_c, 0, 41, 64
1, 128270, Note_on_c, 0, 41, 53
1, 128286, Note_off_c, 0, 39, 64
1, 128354, Note_off_c, 0, 41, 64
1, 128354, Note_on_c, 0, 39, 31
1, 128432, Note_off_c, 0, 39, 64
1, 128434, Note_on_c, 0, 41, 70
1, 128498, Note_off_c, 0, 41, 64
1, 128522, Note_on_c, 0, 39, 36
1, 128584, Note_on_c, 0, 41, 54
1, 128602, Note_off_c, 0, 39, 64
1, 128654, Note_off_c, 0, 41, 64
1, 128668, Note_on_c, 0, 39, 27
1, 128742, Note_on_c, 0, 41, 48
1, 128752, Note_off_c, 0, 39, 64
1, 128810, Note_off_c, 0, 41, 64
1, 128832, Note_on_c, 0, 39, 32
1, 128898, Note_on_c, 0, 41, 43
1, 128924, Note_off_c, 0, 39, 64
1, 128992, Note_off_c, 0, 41, 64
1, 128998, Note_on_c, 0, 39, 16
1, 129082, Note_off_c, 0, 39, 64
1, 129084, Note_on_c, 0, 41, 64
1, 129258, Note_on_c, 0, 39, 51
1, 129282, Note_off_c, 0, 41, 64
1, 129368, Control_c, 0, 64, 0
1, 129470, Note_off_c, 0, 39, 64
1, 129470, Note_on_c, 0, 38, 61
1, 129758, Note_on_c, 0, 39, 51
1, 129792, Note_off_c, 0, 38, 64
1, 129966, Control_c, 0, 64, 127
1, 130152, Note_on_c, 0, 32, 43
1, 130192, Note_off_c, 0, 39, 64
1, 130228, Control_c, 0, 64, 0
1, 130536, Control_c, 0, 64, 127
1, 130536, Note_on_c, 0, 44, 48
1, 130566, Note_off_c, 0, 32, 64
1, 130732, Note_off_c, 0, 44, 64
1, 130974, Note_on_c, 0, 51, 41
1, 131142, Note_off_c, 0, 63, 64
1, 131166, Note_off_c, 0, 72, 64
1, 131502, Note_on_c, 0, 60, 48
1, 132764, Note_on_c, 0, 68, 41
1, 137070, Note_off_c, 0, 60, 64
1, 137084, Note_off_c, 0, 68, 64
1, 137178, Note_off_c, 0, 51, 64
1, 137250, Control_c, 0, 64, 0
1, 138240, Control_c, 0, 64, 0
1, 138240, End_track
0, 0, End_of_file
