0, 0, Header, 1, 3, 240
1, 0, Start_track
1, 0, Time_signature, 3, 2, 24, 8
1, 0, Key_signature, 0, "major"
1, 0, Tempo, 419580
1, 720, Marker_t, "A Section"
1, 12240, Marker_t, "A Section"
1, 23760, Marker_t, "Bridge"
1, 28800, Tempo, 437956
1, 28944, Tempo, 454545
1, 29076, Tempo, 465116
1, 29244, Tempo, 476190
1, 29400, Tempo, 491803
1, 29520, Tempo, 419580
1, 29520, Marker_t, "A Section"
1, 29520, End_track
2, 0, Start_track
2, 0, MIDI_port, 0
2, 0, Title_t, "Piano"
2, 0, Control_c, 0, 7, 127
2, 0, Control_c, 0, 10, 48
2, 480, Note_on_c, 0, 67, 80
2, 720, Note_on_c, 0, 67, 0
2, 720, Note_on_c, 0, 76, 60
2, 1080, Note_on_c, 0, 76, 0
2, 1080, Note_on_c, 0, 75, 60
2, 1200, Note_on_c, 0, 75, 0
2, 1200, Note_on_c, 0, 77, 60
2, 1320, Note_on_c, 0, 77, 0
2, 1320, Note_on_c, 0, 76, 60
2, 1440, Note_on_c, 0, 76, 0
2, 1440, Note_on_c, 0, 74, 60
2, 1560, Note_on_c, 0, 74, 0
2, 1560, Note_on_c, 0, 73, 60
2, 1680, Note_on_c, 0, 73, 0
2, 1680, Note_on_c, 0, 76, 60
2, 1920, Note_on_c, 0, 76, 0
2, 1920, Note_on_c, 0, 74, 60
2, 2160, Note_on_c, 0, 74, 0
2, 2160, Note_on_c, 0, 74, 60
2, 2520, Note_on_c, 0, 74, 0
2, 2520, Note_on_c, 0, 73, 60
2, 2640, Note_on_c, 0, 73, 0
2, 2640, Note_on_c, 0, 76, 60
2, 2760, Note_on_c, 0, 76, 0
2, 2760, Note_on_c, 0, 74, 60
2, 2880, Note_on_c, 0, 74, 0
2, 2880, Note_on_c, 0, 72, 60
2, 2904, Note_on_c, 0, 74, 60
2, 2910, Note_on_c, 0, 72, 0
2, 2934, Note_on_c, 0, 74, 0
2, 2940, Note_on_c, 0, 72, 60
2, 3000, Note_on_c, 0, 72, 0
2, 3060, Note_on_c, 0, 71, 60
2, 3120, Note_on_c, 0, 71, 0
2, 3120, Note_on_c, 0, 74, 60
2, 3360, Note_on_c, 0, 74, 0
2, 3360, Note_on_c, 0, 72, 60
2, 3600, Note_on_c, 0, 72, 0
2, 3600, Note_on_c, 0, 69, 60
2, 3960, Note_on_c, 0, 69, 0
2, 3960, Note_on_c, 0, 68, 60
2, 4080, Note_on_c, 0, 68, 0
2, 4080, Note_on_c, 0, 71, 60
2, 4200, Note_on_c, 0, 71, 0
2, 4200, Note_on_c, 0, 69, 60
2, 4320, Note_on_c, 0, 69, 0
2, 4320, Note_on_c, 0, 67, 60
2, 4440, Note_on_c, 0, 67, 0
2, 4500, Note_on_c, 0, 72, 60
2, 4560, Note_on_c, 0, 72, 0
2, 4560, Note_on_c, 0, 76, 60
2, 5160, Note_on_c, 0, 76, 0
2, 5160, Note_on_c, 0, 74, 60
2, 5190, Note_on_c, 0, 74, 0
2, 5196, Note_on_c, 0, 76, 60
2, 5220, Note_on_c, 0, 74, 60
2, 5226, Note_on_c, 0, 76, 0
2, 5280, Note_on_c, 0, 74, 0
2, 5280, Note_on_c, 0, 73, 60
2, 5400, Note_on_c, 0, 73, 0
2, 5400, Note_on_c, 0, 74, 60
2, 5520, Note_on_c, 0, 74, 0
2, 5520, Note_on_c, 0, 76, 60
2, 5640, Note_on_c, 0, 76, 0
2, 5640, Note_on_c, 0, 77, 60
2, 5760, Note_on_c, 0, 77, 0
2, 5760, Note_on_c, 0, 81, 60
2, 6240, Note_on_c, 0, 81, 0
2, 6240, Note_on_c, 0, 79, 60
2, 6480, Note_on_c, 0, 79, 0
2, 6480, Note_on_c, 0, 67, 95
2, 6480, Note_on_c, 0, 76, 95
2, 6840, Note_on_c, 0, 76, 0
2, 6840, Note_on_c, 0, 67, 0
2, 6840, Note_on_c, 0, 66, 95
2, 6840, Note_on_c, 0, 75, 95
2, 6960, Note_on_c, 0, 75, 0
2, 6960, Note_on_c, 0, 66, 0
2, 6960, Note_on_c, 0, 69, 95
2, 6960, Note_on_c, 0, 77, 95
2, 7080, Note_on_c, 0, 77, 0
2, 7080, Note_on_c, 0, 69, 0
2, 7080, Note_on_c, 0, 67, 95
2, 7080, Note_on_c, 0, 76, 95
2, 7200, Note_on_c, 0, 76, 0
2, 7200, Note_on_c, 0, 67, 0
2, 7200, Note_on_c, 0, 74, 95
2, 7200, Note_on_c, 0, 66, 95
2, 7224, Note_on_c, 0, 76, 95
2, 7230, Note_on_c, 0, 74, 0
2, 7254, Note_on_c, 0, 76, 0
2, 7260, Note_on_c, 0, 74, 95
2, 7320, Note_on_c, 0, 74, 0
2, 7320, Note_on_c, 0, 66, 0
2, 7320, Note_on_c, 0, 65, 95
2, 7320, Note_on_c, 0, 73, 95
2, 7440, Note_on_c, 0, 73, 0
2, 7440, Note_on_c, 0, 65, 0
2, 7440, Note_on_c, 0, 67, 95
2, 7440, Note_on_c, 0, 76, 95
2, 7680, Note_on_c, 0, 76, 0
2, 7680, Note_on_c, 0, 67, 0
2, 7680, Note_on_c, 0, 66, 95
2, 7680, Note_on_c, 0, 74, 95
2, 7920, Note_on_c, 0, 74, 0
2, 7920, Note_on_c, 0, 66, 0
2, 7920, Note_on_c, 0, 65, 95
2, 7920, Note_on_c, 0, 74, 95
2, 8280, Note_on_c, 0, 74, 0
2, 8280, Note_on_c, 0, 65, 0
2, 8280, Note_on_c, 0, 64, 95
2, 8280, Note_on_c, 0, 73, 95
2, 8400, Note_on_c, 0, 73, 0
2, 8400, Note_on_c, 0, 64, 0
2, 8400, Note_on_c, 0, 67, 95
2, 8400, Note_on_c, 0, 76, 95
2, 8520, Note_on_c, 0, 76, 0
2, 8520, Note_on_c, 0, 67, 0
2, 8520, Note_on_c, 0, 65, 95
2, 8520, Note_on_c, 0, 74, 95
2, 8640, Note_on_c, 0, 74, 0
2, 8640, Note_on_c, 0, 65, 0
2, 8640, Note_on_c, 0, 72, 95
2, 8640, Note_on_c, 0, 64, 95
2, 8664, Note_on_c, 0, 74, 95
2, 8670, Note_on_c, 0, 72, 0
2, 8694, Note_on_c, 0, 74, 0
2, 8700, Note_on_c, 0, 72, 95
2, 8760, Note_on_c, 0, 72, 0
2, 8760, Note_on_c, 0, 64, 0
2, 8760, Note_on_c, 0, 63, 95
2, 8760, Note_on_c, 0, 71, 95
2, 8880, Note_on_c, 0, 71, 0
2, 8880, Note_on_c, 0, 63, 0
2, 8880, Note_on_c, 0, 65, 95
2, 8880, Note_on_c, 0, 74, 95
2, 9120, Note_on_c, 0, 74, 0
2, 9120, Note_on_c, 0, 65, 0
2, 9120, Note_on_c, 0, 64, 95
2, 9120, Note_on_c, 0, 72, 95
2, 9360, Note_on_c, 0, 72, 0
2, 9360, Note_on_c, 0, 64, 0
2, 9360, Note_on_c, 0, 69, 95
2, 9360, Note_on_c, 0, 65, 95
2, 9384, Note_on_c, 0, 71, 95
2, 9390, Note_on_c, 0, 69, 0
2, 9414, Note_on_c, 0, 71, 0
2, 9420, Note_on_c, 0, 69, 95
2, 9720, Note_on_c, 0, 69, 0
2, 9720, Note_on_c, 0, 65, 0
2, 9720, Note_on_c, 0, 64, 95
2, 9720, Note_on_c, 0, 68, 95
2, 9840, Note_on_c, 0, 68, 0
2, 9840, Note_on_c, 0, 64, 0
2, 9840, Note_on_c, 0, 67, 95
2, 9840, Note_on_c, 0, 71, 95
2, 9960, Note_on_c, 0, 71, 0
2, 9960, Note_on_c, 0, 67, 0
2, 9960, Note_on_c, 0, 65, 95
2, 9960, Note_on_c, 0, 69, 95
2, 10080, Note_on_c, 0, 69, 0
2, 10080, Note_on_c, 0, 65, 0
2, 10080, Note_on_c, 0, 64, 95
2, 10080, Note_on_c, 0, 67, 95
2, 10200, Note_on_c, 0, 67, 0
2, 10200, Note_on_c, 0, 64, 0
2, 10260, Note_on_c, 0, 64, 95
2, 10260, Note_on_c, 0, 72, 95
2, 10320, Note_on_c, 0, 72, 0
2, 10320, Note_on_c, 0, 64, 0
2, 10320, Note_on_c, 0, 67, 95
2, 10320, Note_on_c, 0, 76, 95
2, 10920, Note_on_c, 0, 76, 0
2, 10920, Note_on_c, 0, 67, 0
2, 10920, Note_on_c, 0, 74, 95
2, 10920, Note_on_c, 0, 65, 95
2, 10950, Note_on_c, 0, 74, 0
2, 10956, Note_on_c, 0, 76, 95
2, 10980, Note_on_c, 0, 74, 95
2, 10986, Note_on_c, 0, 76, 0
2, 11040, Note_on_c, 0, 74, 0
2, 11040, Note_on_c, 0, 65, 0
2, 11040, Note_on_c, 0, 64, 95
2, 11040, Note_on_c, 0, 73, 95
2, 11160, Note_on_c, 0, 73, 0
2, 11160, Note_on_c, 0, 64, 0
2, 11160, Note_on_c, 0, 65, 95
2, 11160, Note_on_c, 0, 74, 95
2, 11280, Note_on_c, 0, 74, 0
2, 11280, Note_on_c, 0, 65, 0
2, 11280, Note_on_c, 0, 69, 95
2, 11280, Note_on_c, 0, 77, 95
2, 11400, Note_on_c, 0, 77, 0
2, 11400, Note_on_c, 0, 69, 0
2, 11460, Note_on_c, 0, 67, 95
2, 11460, Note_on_c, 0, 76, 95
2, 11520, Note_on_c, 0, 76, 0
2, 11520, Note_on_c, 0, 67, 0
2, 11520, Note_on_c, 0, 65, 95
2, 11520, Note_on_c, 0, 74, 95
2, 11640, Note_on_c, 0, 74, 0
2, 11640, Note_on_c, 0, 65, 0
2, 11700, Note_on_c, 0, 67, 95
2, 11700, Note_on_c, 0, 76, 95
2, 11760, Note_on_c, 0, 76, 0
2, 11760, Note_on_c, 0, 67, 0
2, 11760, Note_on_c, 0, 64, 95
2, 11760, Note_on_c, 0, 72, 95
2, 12000, Note_on_c, 0, 72, 0
2, 12000, Note_on_c, 0, 64, 0
2, 12000, Note_on_c, 0, 67, 95
2, 12240, Note_on_c, 0, 67, 0
2, 12240, Note_on_c, 0, 76, 60
2, 12600, Note_on_c, 0, 76, 0
2, 12600, Note_on_c, 0, 75, 60
2, 12720, Note_on_c, 0, 75, 0
2, 12720, Note_on_c, 0, 77, 60
2, 12840, Note_on_c, 0, 77, 0
2, 12840, Note_on_c, 0, 76, 60
2, 12960, Note_on_c, 0, 76, 0
2, 12960, Note_on_c, 0, 74, 60
2, 13080, Note_on_c, 0, 74, 0
2, 13080, Note_on_c, 0, 73, 60
2, 13200, Note_on_c, 0, 73, 0
2, 13200, Note_on_c, 0, 76, 60
2, 13440, Note_on_c, 0, 76, 0
2, 13440, Note_on_c, 0, 74, 60
2, 13680, Note_on_c, 0, 74, 0
2, 13680, Note_on_c, 0, 74, 60
2, 14040, Note_on_c, 0, 74, 0
2, 14040, Note_on_c, 0, 73, 60
2, 14160, Note_on_c, 0, 73, 0
2, 14160, Note_on_c, 0, 76, 60
2, 14280, Note_on_c, 0, 76, 0
2, 14280, Note_on_c, 0, 74, 60
2, 14400, Note_on_c, 0, 74, 0
2, 14400, Note_on_c, 0, 72, 60
2, 14424, Note_on_c, 0, 74, 60
2, 14430, Note_on_c, 0, 72, 0
2, 14454, Note_on_c, 0, 74, 0
2, 14460, Note_on_c, 0, 72, 60
2, 14520, Note_on_c, 0, 72, 0
2, 14580, Note_on_c, 0, 71, 60
2, 14640, Note_on_c, 0, 71, 0
2, 14640, Note_on_c, 0, 74, 60
2, 14880, Note_on_c, 0, 74, 0
2, 14880, Note_on_c, 0, 72, 60
2, 15120, Note_on_c, 0, 72, 0
2, 15120, Note_on_c, 0, 69, 60
2, 15480, Note_on_c, 0, 69, 0
2, 15480, Note_on_c, 0, 68, 60
2, 15600, Note_on_c, 0, 68, 0
2, 15600, Note_on_c, 0, 71, 60
2, 15720, Note_on_c, 0, 71, 0
2, 15720, Note_on_c, 0, 69, 60
2, 15840, Note_on_c, 0, 69, 0
2, 15840, Note_on_c, 0, 67, 60
2, 15960, Note_on_c, 0, 67, 0
2, 16020, Note_on_c, 0, 72, 60
2, 16080, Note_on_c, 0, 72, 0
2, 16080, Note_on_c, 0, 76, 60
2, 16680, Note_on_c, 0, 76, 0
2, 16680, Note_on_c, 0, 74, 60
2, 16710, Note_on_c, 0, 74, 0
2, 16716, Note_on_c, 0, 76, 60
2, 16740, Note_on_c, 0, 74, 60
2, 16746, Note_on_c, 0, 76, 0
2, 16800, Note_on_c, 0, 74, 0
2, 16800, Note_on_c, 0, 73, 60
2, 16920, Note_on_c, 0, 73, 0
2, 16920, Note_on_c, 0, 74, 60
2, 17040, Note_on_c, 0, 74, 0
2, 17040, Note_on_c, 0, 76, 60
2, 17160, Note_on_c, 0, 76, 0
2, 17160, Note_on_c, 0, 77, 60
2, 17280, Note_on_c, 0, 77, 0
2, 17280, Note_on_c, 0, 81, 60
2, 17760, Note_on_c, 0, 81, 0
2, 17760, Note_on_c, 0, 79, 60
2, 18000, Note_on_c, 0, 79, 0
2, 18000, Note_on_c, 0, 67, 95
2, 18000, Note_on_c, 0, 76, 95
2, 18360, Note_on_c, 0, 76, 0
2, 18360, Note_on_c, 0, 67, 0
2, 18360, Note_on_c, 0, 66, 95
2, 18360, Note_on_c, 0, 75, 95
2, 18480, Note_on_c, 0, 75, 0
2, 18480, Note_on_c, 0, 66, 0
2, 18480, Note_on_c, 0, 69, 95
2, 18480, Note_on_c, 0, 77, 95
2, 18600, Note_on_c, 0, 77, 0
2, 18600, Note_on_c, 0, 69, 0
2, 18600, Note_on_c, 0, 67, 95
2, 18600, Note_on_c, 0, 76, 95
2, 18720, Note_on_c, 0, 76, 0
2, 18720, Note_on_c, 0, 67, 0
2, 18720, Note_on_c, 0, 74, 95
2, 18720, Note_on_c, 0, 66, 95
2, 18744, Note_on_c, 0, 76, 95
2, 18750, Note_on_c, 0, 74, 0
2, 18774, Note_on_c, 0, 76, 0
2, 18780, Note_on_c, 0, 74, 95
2, 18840, Note_on_c, 0, 74, 0
2, 18840, Note_on_c, 0, 66, 0
2, 18840, Note_on_c, 0, 65, 95
2, 18840, Note_on_c, 0, 73, 95
2, 18960, Note_on_c, 0, 73, 0
2, 18960, Note_on_c, 0, 65, 0
2, 18960, Note_on_c, 0, 67, 95
2, 18960, Note_on_c, 0, 76, 95
2, 19200, Note_on_c, 0, 76, 0
2, 19200, Note_on_c, 0, 67, 0
2, 19200, Note_on_c, 0, 66, 95
2, 19200, Note_on_c, 0, 74, 95
2, 19440, Note_on_c, 0, 74, 0
2, 19440, Note_on_c, 0, 66, 0
2, 19440, Note_on_c, 0, 65, 95
2, 19440, Note_on_c, 0, 74, 95
2, 19800, Note_on_c, 0, 74, 0
2, 19800, Note_on_c, 0, 65, 0
2, 19800, Note_on_c, 0, 64, 95
2, 19800, Note_on_c, 0, 73, 95
2, 19920, Note_on_c, 0, 73, 0
2, 19920, Note_on_c, 0, 64, 0
2, 19920, Note_on_c, 0, 67, 95
2, 19920, Note_on_c, 0, 76, 95
2, 20040, Note_on_c, 0, 76, 0
2, 20040, Note_on_c, 0, 67, 0
2, 20040, Note_on_c, 0, 65, 95
2, 20040, Note_on_c, 0, 74, 95
2, 20160, Note_on_c, 0, 74, 0
2, 20160, Note_on_c, 0, 65, 0
2, 20160, Note_on_c, 0, 72, 95
2, 20160, Note_on_c, 0, 64, 95
2, 20184, Note_on_c, 0, 74, 95
2, 20190, Note_on_c, 0, 72, 0
2, 20214, Note_on_c, 0, 74, 0
2, 20220, Note_on_c, 0, 72, 95
2, 20280, Note_on_c, 0, 72, 0
2, 20280, Note_on_c, 0, 64, 0
2, 20280, Note_on_c, 0, 63, 95
2, 20280, Note_on_c, 0, 71, 95
2, 20400, Note_on_c, 0, 71, 0
2, 20400, Note_on_c, 0, 63, 0
2, 20400, Note_on_c, 0, 65, 95
2, 20400, Note_on_c, 0, 74, 95
2, 20640, Note_on_c, 0, 74, 0
2, 20640, Note_on_c, 0, 65, 0
2, 20640, Note_on_c, 0, 64, 95
2, 20640, Note_on_c, 0, 72, 95
2, 20880, Note_on_c, 0, 72, 0
2, 20880, Note_on_c, 0, 64, 0
2, 20880, Note_on_c, 0, 69, 95
2, 20880, Note_on_c, 0, 65, 95
2, 20904, Note_on_c, 0, 71, 95
2, 20910, Note_on_c, 0, 69, 0
2, 20934, Note_on_c, 0, 71, 0
2, 20940, Note_on_c, 0, 69, 95
2, 21240, Note_on_c, 0, 69, 0
2, 21240, Note_on_c, 0, 65, 0
2, 21240, Note_on_c, 0, 64, 95
2, 21240, Note_on_c, 0, 68, 95
2, 21360, Note_on_c, 0, 68, 0
2, 21360, Note_on_c, 0, 64, 0
2, 21360, Note_on_c, 0, 67, 95
2, 21360, Note_on_c, 0, 71, 95
2, 21480, Note_on_c, 0, 71, 0
2, 21480, Note_on_c, 0, 67, 0
2, 21480, Note_on_c, 0, 65, 95
2, 21480, Note_on_c, 0, 69, 95
2, 21600, Note_on_c, 0, 69, 0
2, 21600, Note_on_c, 0, 65, 0
2, 21600, Note_on_c, 0, 64, 95
2, 21600, Note_on_c, 0, 67, 95
2, 21720, Note_on_c, 0, 67, 0
2, 21720, Note_on_c, 0, 64, 0
2, 21780, Note_on_c, 0, 64, 95
2, 21780, Note_on_c, 0, 72, 95
2, 21840, Note_on_c, 0, 72, 0
2, 21840, Note_on_c, 0, 64, 0
2, 21840, Note_on_c, 0, 67, 95
2, 21840, Note_on_c, 0, 76, 95
2, 22440, Note_on_c, 0, 76, 0
2, 22440, Note_on_c, 0, 67, 0
2, 22440, Note_on_c, 0, 74, 95
2, 22440, Note_on_c, 0, 65, 95
2, 22470, Note_on_c, 0, 74, 0
2, 22476, Note_on_c, 0, 76, 95
2, 22500, Note_on_c, 0, 74, 95
2, 22506, Note_on_c, 0, 76, 0
2, 22560, Note_on_c, 0, 74, 0
2, 22560, Note_on_c, 0, 65, 0
2, 22560, Note_on_c, 0, 64, 95
2, 22560, Note_on_c, 0, 73, 95
2, 22680, Note_on_c, 0, 73, 0
2, 22680, Note_on_c, 0, 64, 0
2, 22680, Note_on_c, 0, 65, 95
2, 22680, Note_on_c, 0, 74, 95
2, 22800, Note_on_c, 0, 74, 0
2, 22800, Note_on_c, 0, 65, 0
2, 22800, Note_on_c, 0, 69, 95
2, 22800, Note_on_c, 0, 77, 95
2, 22920, Note_on_c, 0, 77, 0
2, 22920, Note_on_c, 0, 69, 0
2, 22980, Note_on_c, 0, 67, 95
2, 22980, Note_on_c, 0, 76, 95
2, 23040, Note_on_c, 0, 76, 0
2, 23040, Note_on_c, 0, 67, 0
2, 23040, Note_on_c, 0, 65, 95
2, 23040, Note_on_c, 0, 74, 95
2, 23160, Note_on_c, 0, 74, 0
2, 23160, Note_on_c, 0, 65, 0
2, 23220, Note_on_c, 0, 67, 95
2, 23220, Note_on_c, 0, 76, 95
2, 23280, Note_on_c, 0, 76, 0
2, 23280, Note_on_c, 0, 67, 0
2, 23280, Note_on_c, 0, 64, 95
2, 23280, Note_on_c, 0, 72, 95
2, 23760, Note_on_c, 0, 72, 0
2, 23760, Note_on_c, 0, 64, 0
2, 23760, Note_on_c, 0, 62, 95
2, 24120, Note_on_c, 0, 66, 45
2, 24120, Note_on_c, 0, 69, 45
2, 24240, Note_on_c, 0, 69, 0
2, 24240, Note_on_c, 0, 66, 0
2, 24240, Note_on_c, 0, 67, 45
2, 24240, Note_on_c, 0, 71, 45
2, 24360, Note_on_c, 0, 71, 0
2, 24360, Note_on_c, 0, 67, 0
2, 24360, Note_on_c, 0, 69, 45
2, 24360, Note_on_c, 0, 72, 45
2, 24480, Note_on_c, 0, 72, 0
2, 24480, Note_on_c, 0, 69, 0
2, 24480, Note_on_c, 0, 67, 45
2, 24480, Note_on_c, 0, 71, 45
2, 24600, Note_on_c, 0, 71, 0
2, 24600, Note_on_c, 0, 67, 0
2, 24600, Note_on_c, 0, 69, 45
2, 24600, Note_on_c, 0, 72, 45
2, 24720, Note_on_c, 0, 72, 0
2, 24720, Note_on_c, 0, 69, 0
2, 24720, Note_on_c, 0, 71, 45
2, 24720, Note_on_c, 0, 74, 45
2, 24960, Note_on_c, 0, 74, 0
2, 24960, Note_on_c, 0, 71, 0
2, 24960, Note_on_c, 0, 67, 45
2, 24960, Note_on_c, 0, 70, 45
2, 24960, Note_on_c, 0, 76, 45
2, 25200, Note_on_c, 0, 76, 0
2, 25200, Note_on_c, 0, 62, 0
2, 25200, Note_on_c, 0, 67, 0
2, 25200, Note_on_c, 0, 70, 0
2, 25200, Note_on_c, 0, 62, 95
2, 25560, Note_on_c, 0, 66, 45
2, 25560, Note_on_c, 0, 69, 45
2, 25680, Note_on_c, 0, 69, 0
2, 25680, Note_on_c, 0, 66, 0
2, 25680, Note_on_c, 0, 67, 45
2, 25680, Note_on_c, 0, 71, 45
2, 25800, Note_on_c, 0, 71, 0
2, 25800, Note_on_c, 0, 67, 0
2, 25800, Note_on_c, 0, 69, 45
2, 25800, Note_on_c, 0, 72, 45
2, 25920, Note_on_c, 0, 72, 0
2, 25920, Note_on_c, 0, 69, 0
2, 25920, Note_on_c, 0, 67, 45
2, 25920, Note_on_c, 0, 71, 45
2, 26040, Note_on_c, 0, 71, 0
2, 26040, Note_on_c, 0, 67, 0
2, 26040, Note_on_c, 0, 66, 45
2, 26040, Note_on_c, 0, 69, 45
2, 26160, Note_on_c, 0, 69, 0
2, 26160, Note_on_c, 0, 66, 0
2, 26160, Note_on_c, 0, 64, 45
2, 26160, Note_on_c, 0, 67, 45
2, 26400, Note_on_c, 0, 62, 0
2, 26400, Note_on_c, 0, 61, 45
2, 26640, Note_on_c, 0, 61, 0
2, 26640, Note_on_c, 0, 67, 0
2, 26640, Note_on_c, 0, 64, 0
2, 26640, Note_on_c, 0, 62, 95
2, 27000, Note_on_c, 0, 66, 45
2, 27000, Note_on_c, 0, 69, 45
2, 27120, Note_on_c, 0, 69, 0
2, 27120, Note_on_c, 0, 66, 0
2, 27120, Note_on_c, 0, 67, 45
2, 27120, Note_on_c, 0, 71, 45
2, 27240, Note_on_c, 0, 71, 0
2, 27240, Note_on_c, 0, 67, 0
2, 27240, Note_on_c, 0, 69, 45
2, 27240, Note_on_c, 0, 72, 45
2, 27360, Note_on_c, 0, 72, 0
2, 27360, Note_on_c, 0, 69, 0
2, 27360, Note_on_c, 0, 67, 45
2, 27360, Note_on_c, 0, 71, 45
2, 27480, Note_on_c, 0, 71, 0
2, 27480, Note_on_c, 0, 67, 0
2, 27480, Note_on_c, 0, 69, 45
2, 27480, Note_on_c, 0, 72, 45
2, 27600, Note_on_c, 0, 72, 0
2, 27600, Note_on_c, 0, 69, 0
2, 27600, Note_on_c, 0, 71, 45
2, 27600, Note_on_c, 0, 74, 45
2, 27840, Note_on_c, 0, 74, 0
2, 27840, Note_on_c, 0, 71, 0
2, 27840, Note_on_c, 0, 67, 45
2, 27840, Note_on_c, 0, 70, 45
2, 27840, Note_on_c, 0, 76, 45
2, 28080, Note_on_c, 0, 76, 0
2, 28080, Note_on_c, 0, 62, 0
2, 28080, Note_on_c, 0, 67, 0
2, 28080, Note_on_c, 0, 70, 0
2, 28080, Note_on_c, 0, 62, 95
2, 28440, Note_on_c, 0, 66, 45
2, 28440, Note_on_c, 0, 69, 45
2, 28560, Note_on_c, 0, 69, 0
2, 28560, Note_on_c, 0, 66, 0
2, 28560, Note_on_c, 0, 67, 45
2, 28560, Note_on_c, 0, 71, 45
2, 28680, Note_on_c, 0, 71, 0
2, 28680, Note_on_c, 0, 67, 0
2, 28680, Note_on_c, 0, 69, 45
2, 28680, Note_on_c, 0, 72, 45
2, 28800, Note_on_c, 0, 72, 0
2, 28800, Note_on_c, 0, 69, 0
2, 28800, Note_on_c, 0, 62, 0
2, 28800, Note_on_c, 0, 65, 45
2, 28800, Note_on_c, 0, 71, 45
2, 28920, Note_on_c, 0, 71, 0
2, 28920, Note_on_c, 0, 72, 45
2, 29040, Note_on_c, 0, 72, 0
2, 29040, Note_on_c, 0, 74, 45
2, 29280, Note_on_c, 0, 74, 0
2, 29280, Note_on_c, 0, 65, 0
2, 29280, Note_on_c, 0, 67, 45
2, 29480, Note_on_c, 0, 67, 0
2, 29484, Note_on_c, 0, 67, 87
2, 29514, Note_on_c, 0, 67, 0
2, 29520, Note_on_c, 0, 76, 60
2, 29880, Note_on_c, 0, 76, 0
2, 29880, Note_on_c, 0, 75, 60
2, 30000, Note_on_c, 0, 75, 0
2, 30000, Note_on_c, 0, 77, 60
2, 30120, Note_on_c, 0, 77, 0
2, 30120, Note_on_c, 0, 76, 60
2, 30240, Note_on_c, 0, 76, 0
2, 30240, Note_on_c, 0, 74, 60
2, 30360, Note_on_c, 0, 74, 0
2, 30360, Note_on_c, 0, 73, 60
2, 30480, Note_on_c, 0, 73, 0
2, 30480, Note_on_c, 0, 76, 60
2, 30720, Note_on_c, 0, 76, 0
2, 30720, Note_on_c, 0, 74, 60
2, 30960, Note_on_c, 0, 74, 0
2, 30960, Note_on_c, 0, 74, 60
2, 31320, Note_on_c, 0, 74, 0
2, 31320, Note_on_c, 0, 73, 60
2, 31440, Note_on_c, 0, 73, 0
2, 31440, Note_on_c, 0, 76, 60
2, 31560, Note_on_c, 0, 76, 0
2, 31560, Note_on_c, 0, 74, 60
2, 31680, Note_on_c, 0, 74, 0
2, 31680, Note_on_c, 0, 72, 60
2, 31704, Note_on_c, 0, 74, 60
2, 31710, Note_on_c, 0, 72, 0
2, 31734, Note_on_c, 0, 74, 0
2, 31740, Note_on_c, 0, 72, 60
2, 31800, Note_on_c, 0, 72, 0
2, 31860, Note_on_c, 0, 71, 60
2, 31920, Note_on_c, 0, 71, 0
2, 31920, Note_on_c, 0, 74, 60
2, 32160, Note_on_c, 0, 74, 0
2, 32160, Note_on_c, 0, 72, 60
2, 32400, Note_on_c, 0, 72, 0
2, 32400, Note_on_c, 0, 69, 60
2, 32760, Note_on_c, 0, 69, 0
2, 32760, Note_on_c, 0, 68, 60
2, 32880, Note_on_c, 0, 68, 0
2, 32880, Note_on_c, 0, 71, 60
2, 33000, Note_on_c, 0, 71, 0
2, 33000, Note_on_c, 0, 69, 60
2, 33120, Note_on_c, 0, 69, 0
2, 33120, Note_on_c, 0, 67, 60
2, 33240, Note_on_c, 0, 67, 0
2, 33300, Note_on_c, 0, 72, 60
2, 33360, Note_on_c, 0, 72, 0
2, 33360, Note_on_c, 0, 76, 60
2, 33960, Note_on_c, 0, 76, 0
2, 33960, Note_on_c, 0, 74, 62
2, 33990, Note_on_c, 0, 74, 0
2, 33996, Note_on_c, 0, 76, 63
2, 34020, Note_on_c, 0, 74, 63
2, 34026, Note_on_c, 0, 76, 0
2, 34080, Note_on_c, 0, 74, 0
2, 34080, Note_on_c, 0, 73, 65
2, 34200, Note_on_c, 0, 73, 0
2, 34200, Note_on_c, 0, 74, 68
2, 34320, Note_on_c, 0, 74, 0
2, 34320, Note_on_c, 0, 76, 71
2, 34440, Note_on_c, 0, 76, 0
2, 34440, Note_on_c, 0, 77, 73
2, 34560, Note_on_c, 0, 77, 0
2, 34560, Note_on_c, 0, 81, 77
2, 35040, Note_on_c, 0, 81, 0
2, 35040, Note_on_c, 0, 79, 88
2, 35280, Note_on_c, 0, 79, 0
2, 35280, Note_on_c, 0, 67, 95
2, 35280, Note_on_c, 0, 76, 95
2, 35640, Note_on_c, 0, 76, 0
2, 35640, Note_on_c, 0, 67, 0
2, 35640, Note_on_c, 0, 66, 95
2, 35640, Note_on_c, 0, 75, 95
2, 35760, Note_on_c, 0, 75, 0
2, 35760, Note_on_c, 0, 66, 0
2, 35760, Note_on_c, 0, 69, 95
2, 35760, Note_on_c, 0, 77, 95
2, 35880, Note_on_c, 0, 77, 0
2, 35880, Note_on_c, 0, 69, 0
2, 35880, Note_on_c, 0, 67, 95
2, 35880, Note_on_c, 0, 76, 95
2, 36000, Note_on_c, 0, 76, 0
2, 36000, Note_on_c, 0, 67, 0
2, 36000, Note_on_c, 0, 74, 95
2, 36000, Note_on_c, 0, 66, 95
2, 36024, Note_on_c, 0, 76, 95
2, 36030, Note_on_c, 0, 74, 0
2, 36054, Note_on_c, 0, 76, 0
2, 36060, Note_on_c, 0, 74, 95
2, 36120, Note_on_c, 0, 74, 0
2, 36120, Note_on_c, 0, 66, 0
2, 36120, Note_on_c, 0, 65, 95
2, 36120, Note_on_c, 0, 73, 95
2, 36240, Note_on_c, 0, 73, 0
2, 36240, Note_on_c, 0, 65, 0
2, 36240, Note_on_c, 0, 67, 95
2, 36240, Note_on_c, 0, 76, 95
2, 36480, Note_on_c, 0, 76, 0
2, 36480, Note_on_c, 0, 67, 0
2, 36480, Note_on_c, 0, 66, 95
2, 36480, Note_on_c, 0, 74, 95
2, 36720, Note_on_c, 0, 74, 0
2, 36720, Note_on_c, 0, 66, 0
2, 36720, Note_on_c, 0, 65, 95
2, 36720, Note_on_c, 0, 74, 95
2, 37080, Note_on_c, 0, 74, 0
2, 37080, Note_on_c, 0, 65, 0
2, 37080, Note_on_c, 0, 64, 95
2, 37080, Note_on_c, 0, 73, 95
2, 37200, Note_on_c, 0, 73, 0
2, 37200, Note_on_c, 0, 64, 0
2, 37200, Note_on_c, 0, 67, 95
2, 37200, Note_on_c, 0, 76, 95
2, 37320, Note_on_c, 0, 76, 0
2, 37320, Note_on_c, 0, 67, 0
2, 37320, Note_on_c, 0, 65, 95
2, 37320, Note_on_c, 0, 74, 95
2, 37440, Note_on_c, 0, 74, 0
2, 37440, Note_on_c, 0, 65, 0
2, 37440, Note_on_c, 0, 72, 95
2, 37440, Note_on_c, 0, 64, 95
2, 37464, Note_on_c, 0, 74, 95
2, 37470, Note_on_c, 0, 72, 0
2, 37494, Note_on_c, 0, 74, 0
2, 37500, Note_on_c, 0, 72, 95
2, 37560, Note_on_c, 0, 72, 0
2, 37560, Note_on_c, 0, 64, 0
2, 37560, Note_on_c, 0, 63, 95
2, 37560, Note_on_c, 0, 71, 95
2, 37680, Note_on_c, 0, 71, 0
2, 37680, Note_on_c, 0, 63, 0
2, 37680, Note_on_c, 0, 65, 95
2, 37680, Note_on_c, 0, 74, 95
2, 37920, Note_on_c, 0, 74, 0
2, 37920, Note_on_c, 0, 65, 0
2, 37920, Note_on_c, 0, 64, 95
2, 37920, Note_on_c, 0, 72, 95
2, 38160, Note_on_c, 0, 72, 0
2, 38160, Note_on_c, 0, 64, 0
2, 38160, Note_on_c, 0, 69, 95
2, 38160, Note_on_c, 0, 65, 95
2, 38184, Note_on_c, 0, 71, 95
2, 38190, Note_on_c, 0, 69, 0
2, 38214, Note_on_c, 0, 71, 0
2, 38220, Note_on_c, 0, 69, 95
2, 38520, Note_on_c, 0, 69, 0
2, 38520, Note_on_c, 0, 65, 0
2, 38520, Note_on_c, 0, 64, 95
2, 38520, Note_on_c, 0, 68, 95
2, 38640, Note_on_c, 0, 68, 0
2, 38640, Note_on_c, 0, 64, 0
2, 38640, Note_on_c, 0, 67, 95
2, 38640, Note_on_c, 0, 71, 95
2, 38760, Note_on_c, 0, 71, 0
2, 38760, Note_on_c, 0, 67, 0
2, 38760, Note_on_c, 0, 65, 95
2, 38760, Note_on_c, 0, 69, 95
2, 38880, Note_on_c, 0, 69, 0
2, 38880, Note_on_c, 0, 65, 0
2, 38880, Note_on_c, 0, 64, 95
2, 38880, Note_on_c, 0, 67, 95
2, 39000, Note_on_c, 0, 67, 0
2, 39000, Note_on_c, 0, 64, 0
2, 39060, Note_on_c, 0, 64, 95
2, 39060, Note_on_c, 0, 72, 95
2, 39120, Note_on_c, 0, 72, 0
2, 39120, Note_on_c, 0, 64, 0
2, 39120, Note_on_c, 0, 67, 95
2, 39120, Note_on_c, 0, 76, 95
2, 39720, Note_on_c, 0, 76, 0
2, 39720, Note_on_c, 0, 67, 0
2, 39720, Note_on_c, 0, 74, 95
2, 39720, Note_on_c, 0, 65, 95
2, 39750, Note_on_c, 0, 74, 0
2, 39756, Note_on_c, 0, 76, 95
2, 39780, Note_on_c, 0, 74, 95
2, 39786, Note_on_c, 0, 76, 0
2, 39840, Note_on_c, 0, 74, 0
2, 39840, Note_on_c, 0, 65, 0
2, 39840, Note_on_c, 0, 64, 95
2, 39840, Note_on_c, 0, 73, 95
2, 39960, Note_on_c, 0, 73, 0
2, 39960, Note_on_c, 0, 64, 0
2, 39960, Note_on_c, 0, 65, 95
2, 39960, Note_on_c, 0, 74, 95
2, 40080, Note_on_c, 0, 74, 0
2, 40080, Note_on_c, 0, 65, 0
2, 40080, Note_on_c, 0, 69, 95
2, 40080, Note_on_c, 0, 77, 95
2, 40200, Note_on_c, 0, 77, 0
2, 40200, Note_on_c, 0, 69, 0
2, 40260, Note_on_c, 0, 67, 95
2, 40260, Note_on_c, 0, 76, 95
2, 40320, Note_on_c, 0, 76, 0
2, 40320, Note_on_c, 0, 67, 0
2, 40320, Note_on_c, 0, 65, 80
2, 40320, Note_on_c, 0, 74, 80
2, 40440, Note_on_c, 0, 74, 0
2, 40440, Note_on_c, 0, 65, 0
2, 40500, Note_on_c, 0, 67, 80
2, 40500, Note_on_c, 0, 76, 80
2, 40560, Note_on_c, 0, 76, 0
2, 40560, Note_on_c, 0, 67, 0
2, 40560, Note_on_c, 0, 64, 80
2, 40560, Note_on_c, 0, 72, 80
2, 41040, Note_on_c, 0, 72, 0
2, 41040, Note_on_c, 0, 64, 0
2, 41040, End_track
3, 0, Start_track
3, 0, MIDI_port, 0
3, 0, Title_t, "Piano"
3, 0, Control_c, 1, 7, 127
3, 0, Control_c, 1, 10, 80
3, 720, Note_on_c, 1, 48, 60
3, 960, Note_on_c, 1, 55, 60
3, 960, Note_on_c, 1, 64, 60
3, 1200, Note_on_c, 1, 64, 0
3, 1200, Note_on_c, 1, 55, 0
3, 1200, Note_on_c, 1, 55, 60
3, 1200, Note_on_c, 1, 64, 60
3, 1440, Note_on_c, 1, 64, 0
3, 1440, Note_on_c, 1, 55, 0
3, 1440, Note_on_c, 1, 48, 0
3, 1440, Note_on_c, 1, 48, 60
3, 1680, Note_on_c, 1, 54, 60
3, 1680, Note_on_c, 1, 57, 60
3, 1680, Note_on_c, 1, 62, 60
3, 1920, Note_on_c, 1, 62, 0
3, 1920, Note_on_c, 1, 57, 0
3, 1920, Note_on_c, 1, 54, 0
3, 1920, Note_on_c, 1, 54, 60
3, 1920, Note_on_c, 1, 57, 60
3, 1920, Note_on_c, 1, 62, 60
3, 2160, Note_on_c, 1, 62, 0
3, 2160, Note_on_c, 1, 48, 0
3, 2160, Note_on_c, 1, 54, 0
3, 2160, Note_on_c, 1, 57, 0
3, 2160, Note_on_c, 1, 48, 60
3, 2400, Note_on_c, 1, 53, 60
3, 2400, Note_on_c, 1, 56, 60
3, 2400, Note_on_c, 1, 59, 60
3, 2400, Note_on_c, 1, 62, 60
3, 2640, Note_on_c, 1, 62, 0
3, 2640, Note_on_c, 1, 56, 0
3, 2640, Note_on_c, 1, 59, 0
3, 2640, Note_on_c, 1, 53, 0
3, 2640, Note_on_c, 1, 53, 60
3, 2640, Note_on_c, 1, 56, 60
3, 2640, Note_on_c, 1, 59, 60
3, 2640, Note_on_c, 1, 62, 60
3, 2880, Note_on_c, 1, 62, 0
3, 2880, Note_on_c, 1, 56, 0
3, 2880, Note_on_c, 1, 48, 0
3, 2880, Note_on_c, 1, 53, 0
3, 2880, Note_on_c, 1, 59, 0
3, 2880, Note_on_c, 1, 48, 60
3, 3120, Note_on_c, 1, 52, 60
3, 3120, Note_on_c, 1, 55, 60
3, 3120, Note_on_c, 1, 60, 60
3, 3360, Note_on_c, 1, 60, 0
3, 3360, Note_on_c, 1, 55, 0
3, 3360, Note_on_c, 1, 52, 0
3, 3360, Note_on_c, 1, 52, 60
3, 3360, Note_on_c, 1, 55, 60
3, 3360, Note_on_c, 1, 60, 60
3, 3600, Note_on_c, 1, 60, 0
3, 3600, Note_on_c, 1, 48, 0
3, 3600, Note_on_c, 1, 52, 0
3, 3600, Note_on_c, 1, 55, 0
3, 3600, Note_on_c, 1, 42, 60
3, 3840, Note_on_c, 1, 42, 0
3, 3840, Note_on_c, 1, 50, 60
3, 3840, Note_on_c, 1, 57, 60
3, 3840, Note_on_c, 1, 60, 60
3, 4080, Note_on_c, 1, 60, 0
3, 4080, Note_on_c, 1, 57, 0
3, 4080, Note_on_c, 1, 50, 0
3, 4320, Note_on_c, 1, 43, 60
3, 4560, Note_on_c, 1, 43, 0
3, 4560, Note_on_c, 1, 52, 60
3, 4560, Note_on_c, 1, 55, 60
3, 4560, Note_on_c, 1, 60, 60
3, 4800, Note_on_c, 1, 60, 0
3, 4800, Note_on_c, 1, 55, 0
3, 4800, Note_on_c, 1, 52, 0
3, 4800, Note_on_c, 1, 52, 60
3, 4800, Note_on_c, 1, 55, 60
3, 4800, Note_on_c, 1, 60, 60
3, 5040, Note_on_c, 1, 60, 0
3, 5040, Note_on_c, 1, 55, 0
3, 5040, Note_on_c, 1, 52, 0
3, 5040, Note_on_c, 1, 43, 60
3, 5280, Note_on_c, 1, 43, 0
3, 5280, Note_on_c, 1, 53, 60
3, 5280, Note_on_c, 1, 55, 60
3, 5280, Note_on_c, 1, 59, 60
3, 5520, Note_on_c, 1, 59, 0
3, 5520, Note_on_c, 1, 55, 0
3, 5520, Note_on_c, 1, 53, 0
3, 5520, Note_on_c, 1, 53, 60
3, 5520, Note_on_c, 1, 55, 60
3, 5520, Note_on_c, 1, 59, 60
3, 5760, Note_on_c, 1, 59, 0
3, 5760, Note_on_c, 1, 55, 0
3, 5760, Note_on_c, 1, 53, 0
3, 5760, Note_on_c, 1, 48, 60
3, 6000, Note_on_c, 1, 54, 60
3, 6000, Note_on_c, 1, 63, 60
3, 6240, Note_on_c, 1, 63, 0
3, 6240, Note_on_c, 1, 54, 0
3, 6240, Note_on_c, 1, 55, 60
3, 6240, Note_on_c, 1, 64, 60
3, 6480, Note_on_c, 1, 64, 0
3, 6480, Note_on_c, 1, 55, 0
3, 6480, Note_on_c, 1, 48, 0
3, 6480, Note_on_c, 1, 48, 95
3, 6720, Note_on_c, 1, 55, 95
3, 6720, Note_on_c, 1, 64, 95
3, 6960, Note_on_c, 1, 64, 0
3, 6960, Note_on_c, 1, 55, 0
3, 6960, Note_on_c, 1, 55, 95
3, 6960, Note_on_c, 1, 64, 95
3, 7200, Note_on_c, 1, 64, 0
3, 7200, Note_on_c, 1, 55, 0
3, 7200, Note_on_c, 1, 48, 0
3, 7200, Note_on_c, 1, 48, 95
3, 7440, Note_on_c, 1, 54, 95
3, 7440, Note_on_c, 1, 57, 95
3, 7440, Note_on_c, 1, 62, 95
3, 7680, Note_on_c, 1, 62, 0
3, 7680, Note_on_c, 1, 57, 0
3, 7680, Note_on_c, 1, 54, 0
3, 7680, Note_on_c, 1, 54, 95
3, 7680, Note_on_c, 1, 57, 95
3, 7680, Note_on_c, 1, 62, 95
3, 7920, Note_on_c, 1, 62, 0
3, 7920, Note_on_c, 1, 48, 0
3, 7920, Note_on_c, 1, 54, 0
3, 7920, Note_on_c, 1, 57, 0
3, 7920, Note_on_c, 1, 48, 95
3, 8160, Note_on_c, 1, 53, 95
3, 8160, Note_on_c, 1, 56, 95
3, 8160, Note_on_c, 1, 59, 95
3, 8160, Note_on_c, 1, 62, 95
3, 8400, Note_on_c, 1, 62, 0
3, 8400, Note_on_c, 1, 56, 0
3, 8400, Note_on_c, 1, 59, 0
3, 8400, Note_on_c, 1, 53, 0
3, 8400, Note_on_c, 1, 53, 95
3, 8400, Note_on_c, 1, 56, 95
3, 8400, Note_on_c, 1, 59, 95
3, 8400, Note_on_c, 1, 62, 95
3, 8640, Note_on_c, 1, 62, 0
3, 8640, Note_on_c, 1, 56, 0
3, 8640, Note_on_c, 1, 48, 0
3, 8640, Note_on_c, 1, 53, 0
3, 8640, Note_on_c, 1, 59, 0
3, 8640, Note_on_c, 1, 48, 95
3, 8880, Note_on_c, 1, 52, 95
3, 8880, Note_on_c, 1, 55, 95
3, 8880, Note_on_c, 1, 60, 95
3, 9120, Note_on_c, 1, 60, 0
3, 9120, Note_on_c, 1, 55, 0
3, 9120, Note_on_c, 1, 52, 0
3, 9120, Note_on_c, 1, 52, 95
3, 9120, Note_on_c, 1, 55, 95
3, 9120, Note_on_c, 1, 60, 95
3, 9360, Note_on_c, 1, 60, 0
3, 9360, Note_on_c, 1, 48, 0
3, 9360, Note_on_c, 1, 52, 0
3, 9360, Note_on_c, 1, 55, 0
3, 9360, Note_on_c, 1, 41, 95
3, 9600, Note_on_c, 1, 41, 0
3, 9600, Note_on_c, 1, 53, 95
3, 9600, Note_on_c, 1, 57, 95
3, 9600, Note_on_c, 1, 60, 95
3, 9840, Note_on_c, 1, 60, 0
3, 9840, Note_on_c, 1, 57, 0
3, 9840, Note_on_c, 1, 53, 0
3, 10080, Note_on_c, 1, 43, 95
3, 10320, Note_on_c, 1, 43, 0
3, 10320, Note_on_c, 1, 52, 95
3, 10320, Note_on_c, 1, 60, 95
3, 10560, Note_on_c, 1, 60, 0
3, 10560, Note_on_c, 1, 52, 0
3, 10560, Note_on_c, 1, 52, 95
3, 10560, Note_on_c, 1, 60, 95
3, 10800, Note_on_c, 1, 60, 0
3, 10800, Note_on_c, 1, 52, 0
3, 10800, Note_on_c, 1, 43, 95
3, 11040, Note_on_c, 1, 43, 0
3, 11040, Note_on_c, 1, 50, 95
3, 11040, Note_on_c, 1, 55, 95
3, 11040, Note_on_c, 1, 59, 95
3, 11280, Note_on_c, 1, 59, 0
3, 11280, Note_on_c, 1, 55, 0
3, 11280, Note_on_c, 1, 50, 0
3, 11280, Note_on_c, 1, 50, 95
3, 11280, Note_on_c, 1, 55, 95
3, 11280, Note_on_c, 1, 59, 95
3, 11520, Note_on_c, 1, 59, 0
3, 11520, Note_on_c, 1, 55, 0
3, 11520, Note_on_c, 1, 50, 0
3, 11520, Note_on_c, 1, 36, 95
3, 11520, Note_on_c, 1, 48, 95
3, 11760, Note_on_c, 1, 48, 0
3, 11760, Note_on_c, 1, 36, 0
3, 11760, Note_on_c, 1, 48, 95
3, 11760, Note_on_c, 1, 55, 95
3, 11760, Note_on_c, 1, 60, 95
3, 12240, Note_on_c, 1, 60, 0
3, 12240, Note_on_c, 1, 55, 0
3, 12240, Note_on_c, 1, 48, 0
3, 12240, Note_on_c, 1, 48, 60
3, 12480, Note_on_c, 1, 55, 60
3, 12480, Note_on_c, 1, 64, 60
3, 12720, Note_on_c, 1, 64, 0
3, 12720, Note_on_c, 1, 55, 0
3, 12720, Note_on_c, 1, 55, 60
3, 12720, Note_on_c, 1, 64, 60
3, 12960, Note_on_c, 1, 64, 0
3, 12960, Note_on_c, 1, 55, 0
3, 12960, Note_on_c, 1, 48, 0
3, 12960, Note_on_c, 1, 48, 60
3, 13200, Note_on_c, 1, 54, 60
3, 13200, Note_on_c, 1, 57, 60
3, 13200, Note_on_c, 1, 62, 60
3, 13440, Note_on_c, 1, 62, 0
3, 13440, Note_on_c, 1, 57, 0
3, 13440, Note_on_c, 1, 54, 0
3, 13440, Note_on_c, 1, 54, 60
3, 13440, Note_on_c, 1, 57, 60
3, 13440, Note_on_c, 1, 62, 60
3, 13680, Note_on_c, 1, 62, 0
3, 13680, Note_on_c, 1, 48, 0
3, 13680, Note_on_c, 1, 54, 0
3, 13680, Note_on_c, 1, 57, 0
3, 13680, Note_on_c, 1, 48, 60
3, 13920, Note_on_c, 1, 53, 60
3, 13920, Note_on_c, 1, 56, 60
3, 13920, Note_on_c, 1, 59, 60
3, 13920, Note_on_c, 1, 62, 60
3, 14160, Note_on_c, 1, 62, 0
3, 14160, Note_on_c, 1, 56, 0
3, 14160, Note_on_c, 1, 59, 0
3, 14160, Note_on_c, 1, 53, 0
3, 14160, Note_on_c, 1, 53, 60
3, 14160, Note_on_c, 1, 56, 60
3, 14160, Note_on_c, 1, 59, 60
3, 14160, Note_on_c, 1, 62, 60
3, 14400, Note_on_c, 1, 62, 0
3, 14400, Note_on_c, 1, 56, 0
3, 14400, Note_on_c, 1, 48, 0
3, 14400, Note_on_c, 1, 53, 0
3, 14400, Note_on_c, 1, 59, 0
3, 14400, Note_on_c, 1, 48, 60
3, 14640, Note_on_c, 1, 52, 60
3, 14640, Note_on_c, 1, 55, 60
3, 14640, Note_on_c, 1, 60, 60
3, 14880, Note_on_c, 1, 60, 0
3, 14880, Note_on_c, 1, 55, 0
3, 14880, Note_on_c, 1, 52, 0
3, 14880, Note_on_c, 1, 52, 60
3, 14880, Note_on_c, 1, 55, 60
3, 14880, Note_on_c, 1, 60, 60
3, 15120, Note_on_c, 1, 60, 0
3, 15120, Note_on_c, 1, 48, 0
3, 15120, Note_on_c, 1, 52, 0
3, 15120, Note_on_c, 1, 55, 0
3, 15120, Note_on_c, 1, 42, 60
3, 15360, Note_on_c, 1, 42, 0
3, 15360, Note_on_c, 1, 50, 60
3, 15360, Note_on_c, 1, 57, 60
3, 15360, Note_on_c, 1, 60, 60
3, 15600, Note_on_c, 1, 60, 0
3, 15600, Note_on_c, 1, 57, 0
3, 15600, Note_on_c, 1, 50, 0
3, 15840, Note_on_c, 1, 43, 60
3, 16080, Note_on_c, 1, 43, 0
3, 16080, Note_on_c, 1, 52, 60
3, 16080, Note_on_c, 1, 55, 60
3, 16080, Note_on_c, 1, 60, 60
3, 16320, Note_on_c, 1, 60, 0
3, 16320, Note_on_c, 1, 55, 0
3, 16320, Note_on_c, 1, 52, 0
3, 16320, Note_on_c, 1, 52, 60
3, 16320, Note_on_c, 1, 55, 60
3, 16320, Note_on_c, 1, 60, 60
3, 16560, Note_on_c, 1, 60, 0
3, 16560, Note_on_c, 1, 55, 0
3, 16560, Note_on_c, 1, 52, 0
3, 16560, Note_on_c, 1, 43, 60
3, 16800, Note_on_c, 1, 43, 0
3, 16800, Note_on_c, 1, 53, 60
3, 16800, Note_on_c, 1, 55, 60
3, 16800, Note_on_c, 1, 59, 60
3, 17040, Note_on_c, 1, 59, 0
3, 17040, Note_on_c, 1, 55, 0
3, 17040, Note_on_c, 1, 53, 0
3, 17040, Note_on_c, 1, 53, 60
3, 17040, Note_on_c, 1, 55, 60
3, 17040, Note_on_c, 1, 59, 60
3, 17280, Note_on_c, 1, 59, 0
3, 17280, Note_on_c, 1, 55, 0
3, 17280, Note_on_c, 1, 53, 0
3, 17280, Note_on_c, 1, 48, 60
3, 17520, Note_on_c, 1, 54, 60
3, 17520, Note_on_c, 1, 63, 60
3, 17760, Note_on_c, 1, 63, 0
3, 17760, Note_on_c, 1, 54, 0
3, 17760, Note_on_c, 1, 55, 60
3, 17760, Note_on_c, 1, 64, 60
3, 18000, Note_on_c, 1, 64, 0
3, 18000, Note_on_c, 1, 55, 0
3, 18000, Note_on_c, 1, 48, 0
3, 18000, Note_on_c, 1, 48, 95
3, 18240, Note_on_c, 1, 55, 95
3, 18240, Note_on_c, 1, 64, 95
3, 18480, Note_on_c, 1, 64, 0
3, 18480, Note_on_c, 1, 55, 0
3, 18480, Note_on_c, 1, 55, 95
3, 18480, Note_on_c, 1, 64, 95
3, 18720, Note_on_c, 1, 64, 0
3, 18720, Note_on_c, 1, 55, 0
3, 18720, Note_on_c, 1, 48, 0
3, 18720, Note_on_c, 1, 48, 95
3, 18960, Note_on_c, 1, 54, 95
3, 18960, Note_on_c, 1, 57, 95
3, 18960, Note_on_c, 1, 62, 95
3, 19200, Note_on_c, 1, 62, 0
3, 19200, Note_on_c, 1, 57, 0
3, 19200, Note_on_c, 1, 54, 0
3, 19200, Note_on_c, 1, 54, 95
3, 19200, Note_on_c, 1, 57, 95
3, 19200, Note_on_c, 1, 62, 95
3, 19440, Note_on_c, 1, 62, 0
3, 19440, Note_on_c, 1, 48, 0
3, 19440, Note_on_c, 1, 54, 0
3, 19440, Note_on_c, 1, 57, 0
3, 19440, Note_on_c, 1, 48, 95
3, 19680, Note_on_c, 1, 53, 95
3, 19680, Note_on_c, 1, 56, 95
3, 19680, Note_on_c, 1, 59, 95
3, 19680, Note_on_c, 1, 62, 95
3, 19920, Note_on_c, 1, 62, 0
3, 19920, Note_on_c, 1, 56, 0
3, 19920, Note_on_c, 1, 59, 0
3, 19920, Note_on_c, 1, 53, 0
3, 19920, Note_on_c, 1, 53, 95
3, 19920, Note_on_c, 1, 56, 95
3, 19920, Note_on_c, 1, 59, 95
3, 19920, Note_on_c, 1, 62, 95
3, 20160, Note_on_c, 1, 62, 0
3, 20160, Note_on_c, 1, 56, 0
3, 20160, Note_on_c, 1, 48, 0
3, 20160, Note_on_c, 1, 53, 0
3, 20160, Note_on_c, 1, 59, 0
3, 20160, Note_on_c, 1, 48, 95
3, 20400, Note_on_c, 1, 52, 95
3, 20400, Note_on_c, 1, 55, 95
3, 20400, Note_on_c, 1, 60, 95
3, 20640, Note_on_c, 1, 60, 0
3, 20640, Note_on_c, 1, 55, 0
3, 20640, Note_on_c, 1, 52, 0
3, 20640, Note_on_c, 1, 52, 95
3, 20640, Note_on_c, 1, 55, 95
3, 20640, Note_on_c, 1, 60, 95
3, 20880, Note_on_c, 1, 60, 0
3, 20880, Note_on_c, 1, 48, 0
3, 20880, Note_on_c, 1, 52, 0
3, 20880, Note_on_c, 1, 55, 0
3, 20880, Note_on_c, 1, 41, 95
3, 21120, Note_on_c, 1, 41, 0
3, 21120, Note_on_c, 1, 53, 95
3, 21120, Note_on_c, 1, 57, 95
3, 21120, Note_on_c, 1, 60, 95
3, 21360, Note_on_c, 1, 60, 0
3, 21360, Note_on_c, 1, 57, 0
3, 21360, Note_on_c, 1, 53, 0
3, 21600, Note_on_c, 1, 43, 95
3, 21840, Note_on_c, 1, 43, 0
3, 21840, Note_on_c, 1, 52, 95
3, 21840, Note_on_c, 1, 60, 95
3, 22080, Note_on_c, 1, 60, 0
3, 22080, Note_on_c, 1, 52, 0
3, 22080, Note_on_c, 1, 52, 95
3, 22080, Note_on_c, 1, 60, 95
3, 22320, Note_on_c, 1, 60, 0
3, 22320, Note_on_c, 1, 52, 0
3, 22320, Note_on_c, 1, 43, 95
3, 22560, Note_on_c, 1, 43, 0
3, 22560, Note_on_c, 1, 50, 95
3, 22560, Note_on_c, 1, 55, 95
3, 22560, Note_on_c, 1, 59, 95
3, 22800, Note_on_c, 1, 59, 0
3, 22800, Note_on_c, 1, 55, 0
3, 22800, Note_on_c, 1, 50, 0
3, 22800, Note_on_c, 1, 50, 95
3, 22800, Note_on_c, 1, 55, 95
3, 22800, Note_on_c, 1, 59, 95
3, 23040, Note_on_c, 1, 59, 0
3, 23040, Note_on_c, 1, 55, 0
3, 23040, Note_on_c, 1, 50, 0
3, 23040, Note_on_c, 1, 36, 95
3, 23040, Note_on_c, 1, 48, 95
3, 23280, Note_on_c, 1, 48, 0
3, 23280, Note_on_c, 1, 36, 0
3, 23280, Note_on_c, 1, 48, 95
3, 23280, Note_on_c, 1, 55, 95
3, 23280, Note_on_c, 1, 60, 95
3, 23724, Note_on_c, 1, 38, 100
3, 23754, Note_on_c, 1, 38, 0
3, 23760, Note_on_c, 1, 48, 0
3, 23760, Note_on_c, 1, 55, 0
3, 23760, Note_on_c, 1, 60, 0
3, 23760, Note_on_c, 1, 50, 95
3, 24120, Note_on_c, 1, 60, 45
3, 24240, Note_on_c, 1, 60, 0
3, 24240, Note_on_c, 1, 59, 45
3, 24360, Note_on_c, 1, 59, 0
3, 24360, Note_on_c, 1, 57, 45
3, 24480, Note_on_c, 1, 57, 0
3, 24480, Note_on_c, 1, 59, 45
3, 24600, Note_on_c, 1, 59, 0
3, 24600, Note_on_c, 1, 57, 45
3, 24720, Note_on_c, 1, 57, 0
3, 24720, Note_on_c, 1, 55, 45
3, 24960, Note_on_c, 1, 55, 0
3, 24960, Note_on_c, 1, 61, 45
3, 25164, Note_on_c, 1, 38, 100
3, 25180, Note_on_c, 1, 50, 0
3, 25194, Note_on_c, 1, 38, 0
3, 25200, Note_on_c, 1, 61, 0
3, 25200, Note_on_c, 1, 50, 95
3, 25560, Note_on_c, 1, 60, 45
3, 25680, Note_on_c, 1, 60, 0
3, 25680, Note_on_c, 1, 59, 45
3, 25800, Note_on_c, 1, 59, 0
3, 25800, Note_on_c, 1, 57, 45
3, 25920, Note_on_c, 1, 57, 0
3, 25920, Note_on_c, 1, 55, 45
3, 26040, Note_on_c, 1, 55, 0
3, 26040, Note_on_c, 1, 57, 45
3, 26160, Note_on_c, 1, 57, 0
3, 26160, Note_on_c, 1, 58, 45
3, 26400, Note_on_c, 1, 58, 0
3, 26400, Note_on_c, 1, 55, 45
3, 26604, Note_on_c, 1, 38, 100
3, 26620, Note_on_c, 1, 50, 0
3, 26634, Note_on_c, 1, 38, 0
3, 26640, Note_on_c, 1, 55, 0
3, 26640, Note_on_c, 1, 50, 95
3, 27000, Note_on_c, 1, 60, 45
3, 27120, Note_on_c, 1, 60, 0
3, 27120, Note_on_c, 1, 59, 45
3, 27240, Note_on_c, 1, 59, 0
3, 27240, Note_on_c, 1, 57, 45
3, 27360, Note_on_c, 1, 57, 0
3, 27360, Note_on_c, 1, 59, 45
3, 27480, Note_on_c, 1, 59, 0
3, 27480, Note_on_c, 1, 57, 45
3, 27600, Note_on_c, 1, 57, 0
3, 27600, Note_on_c, 1, 55, 45
3, 27840, Note_on_c, 1, 55, 0
3, 27840, Note_on_c, 1, 61, 45
3, 28044, Note_on_c, 1, 38, 100
3, 28060, Note_on_c, 1, 50, 0
3, 28074, Note_on_c, 1, 38, 0
3, 28080, Note_on_c, 1, 61, 0
3, 28080, Note_on_c, 1, 50, 95
3, 28440, Note_on_c, 1, 60, 45
3, 28560, Note_on_c, 1, 60, 0
3, 28560, Note_on_c, 1, 59, 45
3, 28680, Note_on_c, 1, 59, 0
3, 28680, Note_on_c, 1, 57, 45
3, 28800, Note_on_c, 1, 57, 0
3, 28800, Note_on_c, 1, 50, 0
3, 28800, Note_on_c, 1, 62, 45
3, 28920, Note_on_c, 1, 62, 0
3, 28920, Note_on_c, 1, 57, 45
3, 29040, Note_on_c, 1, 57, 0
3, 29040, Note_on_c, 1, 59, 45
3, 29280, Note_on_c, 1, 59, 0
3, 29280, Note_on_c, 1, 57, 45
3, 29400, Note_on_c, 1, 57, 0
3, 29400, Note_on_c, 1, 55, 45
3, 29520, Note_on_c, 1, 55, 0
3, 29520, Note_on_c, 1, 48, 60
3, 29760, Note_on_c, 1, 55, 60
3, 29760, Note_on_c, 1, 64, 60
3, 30000, Note_on_c, 1, 64, 0
3, 30000, Note_on_c, 1, 55, 0
3, 30000, Note_on_c, 1, 55, 60
3, 30000, Note_on_c, 1, 64, 60
3, 30240, Note_on_c, 1, 64, 0
3, 30240, Note_on_c, 1, 55, 0
3, 30240, Note_on_c, 1, 48, 0
3, 30240, Note_on_c, 1, 48, 60
3, 30480, Note_on_c, 1, 54, 60
3, 30480, Note_on_c, 1, 57, 60
3, 30480, Note_on_c, 1, 62, 60
3, 30720, Note_on_c, 1, 62, 0
3, 30720, Note_on_c, 1, 57, 0
3, 30720, Note_on_c, 1, 54, 0
3, 30720, Note_on_c, 1, 54, 60
3, 30720, Note_on_c, 1, 57, 60
3, 30720, Note_on_c, 1, 62, 60
3, 30960, Note_on_c, 1, 62, 0
3, 30960, Note_on_c, 1, 48, 0
3, 30960, Note_on_c, 1, 54, 0
3, 30960, Note_on_c, 1, 57, 0
3, 30960, Note_on_c, 1, 48, 60
3, 31200, Note_on_c, 1, 53, 60
3, 31200, Note_on_c, 1, 56, 60
3, 31200, Note_on_c, 1, 59, 60
3, 31200, Note_on_c, 1, 62, 60
3, 31440, Note_on_c, 1, 62, 0
3, 31440, Note_on_c, 1, 56, 0
3, 31440, Note_on_c, 1, 59, 0
3, 31440, Note_on_c, 1, 53, 0
3, 31440, Note_on_c, 1, 53, 60
3, 31440, Note_on_c, 1, 56, 60
3, 31440, Note_on_c, 1, 59, 60
3, 31440, Note_on_c, 1, 62, 60
3, 31680, Note_on_c, 1, 62, 0
3, 31680, Note_on_c, 1, 56, 0
3, 31680, Note_on_c, 1, 48, 0
3, 31680, Note_on_c, 1, 53, 0
3, 31680, Note_on_c, 1, 59, 0
3, 31680, Note_on_c, 1, 48, 60
3, 31920, Note_on_c, 1, 52, 60
3, 31920, Note_on_c, 1, 55, 60
3, 31920, Note_on_c, 1, 60, 60
3, 32160, Note_on_c, 1, 60, 0
3, 32160, Note_on_c, 1, 55, 0
3, 32160, Note_on_c, 1, 52, 0
3, 32160, Note_on_c, 1, 52, 60
3, 32160, Note_on_c, 1, 55, 60
3, 32160, Note_on_c, 1, 60, 60
3, 32400, Note_on_c, 1, 60, 0
3, 32400, Note_on_c, 1, 48, 0
3, 32400, Note_on_c, 1, 52, 0
3, 32400, Note_on_c, 1, 55, 0
3, 32400, Note_on_c, 1, 42, 60
3, 32640, Note_on_c, 1, 42, 0
3, 32640, Note_on_c, 1, 50, 60
3, 32640, Note_on_c, 1, 57, 60
3, 32640, Note_on_c, 1, 60, 60
3, 32880, Note_on_c, 1, 60, 0
3, 32880, Note_on_c, 1, 57, 0
3, 32880, Note_on_c, 1, 50, 0
3, 33120, Note_on_c, 1, 43, 60
3, 33360, Note_on_c, 1, 43, 0
3, 33360, Note_on_c, 1, 52, 60
3, 33360, Note_on_c, 1, 55, 60
3, 33360, Note_on_c, 1, 60, 60
3, 33600, Note_on_c, 1, 60, 0
3, 33600, Note_on_c, 1, 55, 0
3, 33600, Note_on_c, 1, 52, 0
3, 33600, Note_on_c, 1, 52, 60
3, 33600, Note_on_c, 1, 55, 60
3, 33600, Note_on_c, 1, 60, 60
3, 33840, Note_on_c, 1, 60, 0
3, 33840, Note_on_c, 1, 55, 0
3, 33840, Note_on_c, 1, 52, 0
3, 33840, Note_on_c, 1, 43, 60
3, 34080, Note_on_c, 1, 43, 0
3, 34080, Note_on_c, 1, 53, 65
3, 34080, Note_on_c, 1, 55, 65
3, 34080, Note_on_c, 1, 59, 65
3, 34320, Note_on_c, 1, 59, 0
3, 34320, Note_on_c, 1, 55, 0
3, 34320, Note_on_c, 1, 53, 0
3, 34320, Note_on_c, 1, 53, 71
3, 34320, Note_on_c, 1, 55, 71
3, 34320, Note_on_c, 1, 59, 71
3, 34560, Note_on_c, 1, 59, 0
3, 34560, Note_on_c, 1, 55, 0
3, 34560, Note_on_c, 1, 53, 0
3, 34560, Note_on_c, 1, 48, 77
3, 34800, Note_on_c, 1, 54, 82
3, 34800, Note_on_c, 1, 63, 82
3, 35040, Note_on_c, 1, 63, 0
3, 35040, Note_on_c, 1, 54, 0
3, 35040, Note_on_c, 1, 55, 88
3, 35040, Note_on_c, 1, 64, 88
3, 35280, Note_on_c, 1, 64, 0
3, 35280, Note_on_c, 1, 55, 0
3, 35280, Note_on_c, 1, 48, 0
3, 35280, Note_on_c, 1, 48, 95
3, 35520, Note_on_c, 1, 55, 95
3, 35520, Note_on_c, 1, 64, 95
3, 35760, Note_on_c, 1, 64, 0
3, 35760, Note_on_c, 1, 55, 0
3, 35760, Note_on_c, 1, 55, 95
3, 35760, Note_on_c, 1, 64, 95
3, 36000, Note_on_c, 1, 64, 0
3, 36000, Note_on_c, 1, 55, 0
3, 36000, Note_on_c, 1, 48, 0
3, 36000, Note_on_c, 1, 48, 95
3, 36240, Note_on_c, 1, 54, 95
3, 36240, Note_on_c, 1, 57, 95
3, 36240, Note_on_c, 1, 62, 95
3, 36480, Note_on_c, 1, 62, 0
3, 36480, Note_on_c, 1, 57, 0
3, 36480, Note_on_c, 1, 54, 0
3, 36480, Note_on_c, 1, 54, 95
3, 36480, Note_on_c, 1, 57, 95
3, 36480, Note_on_c, 1, 62, 95
3, 36720, Note_on_c, 1, 62, 0
3, 36720, Note_on_c, 1, 48, 0
3, 36720, Note_on_c, 1, 54, 0
3, 36720, Note_on_c, 1, 57, 0
3, 36720, Note_on_c, 1, 48, 95
3, 36960, Note_on_c, 1, 53, 95
3, 36960, Note_on_c, 1, 56, 95
3, 36960, Note_on_c, 1, 59, 95
3, 36960, Note_on_c, 1, 62, 95
3, 37200, Note_on_c, 1, 62, 0
3, 37200, Note_on_c, 1, 56, 0
3, 37200, Note_on_c, 1, 59, 0
3, 37200, Note_on_c, 1, 53, 0
3, 37200, Note_on_c, 1, 53, 95
3, 37200, Note_on_c, 1, 56, 95
3, 37200, Note_on_c, 1, 59, 95
3, 37200, Note_on_c, 1, 62, 95
3, 37440, Note_on_c, 1, 62, 0
3, 37440, Note_on_c, 1, 56, 0
3, 37440, Note_on_c, 1, 48, 0
3, 37440, Note_on_c, 1, 53, 0
3, 37440, Note_on_c, 1, 59, 0
3, 37440, Note_on_c, 1, 48, 95
3, 37680, Note_on_c, 1, 52, 95
3, 37680, Note_on_c, 1, 55, 95
3, 37680, Note_on_c, 1, 60, 95
3, 37920, Note_on_c, 1, 60, 0
3, 37920, Note_on_c, 1, 55, 0
3, 37920, Note_on_c, 1, 52, 0
3, 37920, Note_on_c, 1, 52, 95
3, 37920, Note_on_c, 1, 55, 95
3, 37920, Note_on_c, 1, 60, 95
3, 38160, Note_on_c, 1, 60, 0
3, 38160, Note_on_c, 1, 48, 0
3, 38160, Note_on_c, 1, 52, 0
3, 38160, Note_on_c, 1, 55, 0
3, 38160, Note_on_c, 1, 41, 95
3, 38400, Note_on_c, 1, 41, 0
3, 38400, Note_on_c, 1, 53, 95
3, 38400, Note_on_c, 1, 57, 95
3, 38400, Note_on_c, 1, 60, 95
3, 38640, Note_on_c, 1, 60, 0
3, 38640, Note_on_c, 1, 57, 0
3, 38640, Note_on_c, 1, 53, 0
3, 38880, Note_on_c, 1, 43, 95
3, 39120, Note_on_c, 1, 43, 0
3, 39120, Note_on_c, 1, 52, 95
3, 39120, Note_on_c, 1, 60, 95
3, 39360, Note_on_c, 1, 60, 0
3, 39360, Note_on_c, 1, 52, 0
3, 39360, Note_on_c, 1, 52, 95
3, 39360, Note_on_c, 1, 60, 95
3, 39600, Note_on_c, 1, 60, 0
3, 39600, Note_on_c, 1, 52, 0
3, 39600, Note_on_c, 1, 43, 95
3, 39840, Note_on_c, 1, 43, 0
3, 39840, Note_on_c, 1, 50, 95
3, 39840, Note_on_c, 1, 55, 95
3, 39840, Note_on_c, 1, 59, 95
3, 40080, Note_on_c, 1, 59, 0
3, 40080, Note_on_c, 1, 55, 0
3, 40080, Note_on_c, 1, 50, 0
3, 40080, Note_on_c, 1, 50, 95
3, 40080, Note_on_c, 1, 55, 95
3, 40080, Note_on_c, 1, 59, 95
3, 40320, Note_on_c, 1, 59, 0
3, 40320, Note_on_c, 1, 55, 0
3, 40320, Note_on_c, 1, 50, 0
3, 40320, Note_on_c, 1, 36, 80
3, 40320, Note_on_c, 1, 48, 80
3, 40560, Note_on_c, 1, 48, 0
3, 40560, Note_on_c, 1, 36, 0
3, 40560, Note_on_c, 1, 48, 80
3, 40560, Note_on_c, 1, 55, 80
3, 40560, Note_on_c, 1, 60, 80
3, 41040, Note_on_c, 1, 60, 0
3, 41040, Note_on_c, 1, 55, 0
3, 41040, Note_on_c, 1, 48, 0
3, 41040, End_track
0, 0, End_of_file
