0, 0, Header, 1, 6, 120
1, 0, Start_track
1, 0, Title_t, "untitled"
1, 0, SMPTE_offset, 96, 0, 3, 0, 0
1, 0, MIDI_port, 0
1, 0, System_exclusive, 10, 65, 16, 66, 18, 64, 0, 127, 0, 65, 247
1, 0, MIDI_port, 0
1, 0, System_exclusive, 10, 65, 16, 66, 18, 64, 1, 48, 3, 12, 247
1, 0, MIDI_port, 0
1, 0, Time_signature, 2, 2, 24, 8
1, 0, Key_signature, -6, "major"
1, 0, Tempo, 517241
1, 2160, Tempo, 600000
1, 2187, Tempo, 603015
1, 2215, Tempo, 574163
1, 2245, Tempo, 576923
1, 2270, Tempo, 579710
1, 2295, Tempo, 582524
1, 2315, Tempo, 659341
1, 2355, Tempo, 666667
1, 2395, Tempo, 674157
1, 2400, Tempo, 545455
1, 2415, Tempo, 542986
1, 2430, Tempo, 540541
1, 2445, Tempo, 538117
1, 2455, Tempo, 535714
1, 2470, Tempo, 533333
1, 2485, Tempo, 530973
1, 2500, Tempo, 528634
1, 2510, Tempo, 526316
1, 2525, Tempo, 524017
1, 2540, Tempo, 521739
1, 2555, Tempo, 519481
1, 2565, Tempo, 517241
1, 11510, Tempo, 533333
1, 11520, Tempo, 535714
1, 11530, Tempo, 538117
1, 11540, Tempo, 540541
1, 11550, Tempo, 542986
1, 11560, Tempo, 545455
1, 11570, Tempo, 547945
1, 11580, Tempo, 550459
1, 11590, Tempo, 552995
1, 11600, Tempo, 555556
1, 11610, Tempo, 558140
1, 11620, Tempo, 560748
1, 11630, Tempo, 563380
1, 11640, Tempo, 566038
1, 11650, Tempo, 568720
1, 11660, Tempo, 571429
1, 11670, Tempo, 574163
1, 11680, Tempo, 576923
1, 11690, Tempo, 579710
1, 11700, Tempo, 582524
1, 11710, Tempo, 585366
1, 11720, Tempo, 588235
1, 11730, Tempo, 591133
1, 11740, Tempo, 594059
1, 11750, Tempo, 597015
1, 11757, Tempo, 600000
1, 11760, Tempo, 677966
1, 11767, Tempo, 681818
1, 11775, Tempo, 685714
1, 11782, Tempo, 689655
1, 11790, Tempo, 693642
1, 11797, Tempo, 697674
1, 11802, Tempo, 701754
1, 11810, Tempo, 705882
1, 11817, Tempo, 710059
1, 11825, Tempo, 714286
1, 11832, Tempo, 718563
1, 11840, Tempo, 722892
1, 11845, Tempo, 727273
1, 11852, Tempo, 731707
1, 11860, Tempo, 736196
1, 11867, Tempo, 740741
1, 11875, Tempo, 745342
1, 11877, Tempo, 645161
1, 11887, Tempo, 652174
1, 11895, Tempo, 659341
1, 11903, Tempo, 666667
1, 11913, Tempo, 674157
1, 11921, Tempo, 681818
1, 11929, Tempo, 689655
1, 11939, Tempo, 697674
1, 11944, Tempo, 789474
1, 11954, Tempo, 800000
1, 11964, Tempo, 810811
1, 11974, Tempo, 821918
1, 11984, Tempo, 833333
1, 11992, Tempo, 845070
1, 11993, Tempo, 550459
1, 12019, Tempo, 545455
1, 12045, Tempo, 540541
1, 12071, Tempo, 535714
1, 12097, Tempo, 530973
1, 12123, Tempo, 526316
1, 12147, Tempo, 521739
1, 12153, Tempo, 517241
1, 15818, Tempo, 560748
1, 16100, Tempo, 535714
1, 16268, Tempo, 517241
1, 16414, Tempo, 540541
1, 16586, Tempo, 545455
1, 16676, Tempo, 571429
1, 16718, Tempo, 674157
1, 16742, Tempo, 594059
1, 16752, Tempo, 697674
1, 16796, Tempo, 600000
1, 16862, Tempo, 560748
1, 16874, Tempo, 555556
1, 16884, Tempo, 550459
1, 16894, Tempo, 545455
1, 16904, Tempo, 540541
1, 16914, Tempo, 535714
1, 16924, Tempo, 530973
1, 16934, Tempo, 526316
1, 16944, Tempo, 521739
1, 16954, Tempo, 517241
1, 19680, Tempo, 576923
1, 19740, Tempo, 526316
1, 20642, Tempo, 535714
1, 21840, Tempo, 545455
1, 21840, End_track
2, 0, Start_track
2, 0, MIDI_port, 0
2, 0, Title_t, "Etude No. 5"
2, 120, Control_c, 0, 0, 0
2, 120, Control_c, 0, 0, 0
2, 120, Control_c, 0, 93, 20
2, 120, Control_c, 0, 91, 80
2, 122, Program_c, 0, 0
2, 123, Control_c, 0, 7, 127
2, 230, Control_c, 0, 64, 127
2, 480, Note_on_c, 0, 66, 57
2, 480, Note_on_c, 0, 58, 67
2, 480, Note_on_c, 0, 54, 55
2, 480, Note_on_c, 0, 61, 69
2, 480, Note_on_c, 0, 90, 78
2, 494, Note_on_c, 0, 54, 0
2, 494, Note_on_c, 0, 58, 0
2, 496, Note_on_c, 0, 61, 0
2, 498, Note_on_c, 0, 90, 0
2, 498, Note_on_c, 0, 66, 0
2, 500, Note_on_c, 0, 94, 64
2, 518, Note_on_c, 0, 94, 0
2, 520, Note_on_c, 0, 85, 54
2, 537, Control_c, 0, 64, 0
2, 538, Note_on_c, 0, 85, 0
2, 539, Note_on_c, 0, 63, 73
2, 539, Note_on_c, 0, 66, 57
2, 539, Note_on_c, 0, 59, 76
2, 539, Note_on_c, 0, 54, 42
2, 540, Note_on_c, 0, 90, 78
2, 552, Note_on_c, 0, 54, 0
2, 552, Note_on_c, 0, 59, 0
2, 554, Note_on_c, 0, 66, 0
2, 555, Note_on_c, 0, 63, 0
2, 558, Note_on_c, 0, 90, 0
2, 560, Note_on_c, 0, 87, 76
2, 578, Note_on_c, 0, 87, 0
2, 580, Note_on_c, 0, 90, 72
2, 598, Note_on_c, 0, 90, 0
2, 598, Note_on_c, 0, 66, 66
2, 599, Note_on_c, 0, 54, 57
2, 599, Note_on_c, 0, 61, 76
2, 599, Note_on_c, 0, 58, 69
2, 600, Note_on_c, 0, 85, 63
2, 609, Note_on_c, 0, 54, 0
2, 610, Note_on_c, 0, 66, 0
2, 611, Note_on_c, 0, 61, 0
2, 612, Note_on_c, 0, 58, 0
2, 618, Note_on_c, 0, 85, 0
2, 620, Note_on_c, 0, 90, 69
2, 638, Note_on_c, 0, 90, 0
2, 640, Note_on_c, 0, 82, 58
2, 658, Note_on_c, 0, 82, 0
2, 660, Note_on_c, 0, 85, 57
2, 678, Note_on_c, 0, 85, 0
2, 680, Note_on_c, 0, 78, 57
2, 698, Note_on_c, 0, 78, 0
2, 700, Note_on_c, 0, 82, 62
2, 718, Note_on_c, 0, 82, 0
2, 718, Note_on_c, 0, 42, 77
2, 718, Note_on_c, 0, 54, 67
2, 720, Note_on_c, 0, 78, 50
2, 728, Note_on_c, 0, 42, 0
2, 730, Note_on_c, 0, 54, 0
2, 738, Note_on_c, 0, 78, 0
2, 740, Note_on_c, 0, 82, 37
2, 758, Note_on_c, 0, 82, 0
2, 760, Note_on_c, 0, 73, 43
2, 778, Note_on_c, 0, 73, 0
2, 779, Note_on_c, 0, 66, 50
2, 779, Note_on_c, 0, 63, 58
2, 780, Note_on_c, 0, 78, 54
2, 781, Note_on_c, 0, 59, 37
2, 790, Note_on_c, 0, 66, 0
2, 791, Note_on_c, 0, 59, 0
2, 792, Note_on_c, 0, 63, 0
2, 798, Note_on_c, 0, 78, 0
2, 800, Note_on_c, 0, 75, 52
2, 818, Note_on_c, 0, 75, 0
2, 820, Note_on_c, 0, 78, 53
2, 838, Note_on_c, 0, 78, 0
2, 839, Note_on_c, 0, 66, 48
2, 839, Note_on_c, 0, 58, 54
2, 839, Note_on_c, 0, 61, 52
2, 840, Note_on_c, 0, 73, 39
2, 847, Note_on_c, 0, 61, 0
2, 849, Note_on_c, 0, 66, 0
2, 849, Note_on_c, 0, 58, 0
2, 858, Note_on_c, 0, 73, 0
2, 860, Note_on_c, 0, 78, 51
2, 878, Note_on_c, 0, 78, 0
2, 880, Note_on_c, 0, 70, 40
2, 898, Note_on_c, 0, 70, 0
2, 900, Note_on_c, 0, 73, 50
2, 918, Note_on_c, 0, 73, 0
2, 920, Note_on_c, 0, 66, 43
2, 938, Note_on_c, 0, 66, 0
2, 940, Note_on_c, 0, 70, 38
2, 958, Note_on_c, 0, 70, 0
2, 960, Note_on_c, 0, 61, 42
2, 960, Control_c, 0, 64, 127
2, 961, Note_on_c, 0, 37, 59
2, 962, Note_on_c, 0, 49, 50
2, 969, Note_on_c, 0, 49, 0
2, 969, Note_on_c, 0, 37, 0
2, 978, Note_on_c, 0, 61, 0
2, 980, Note_on_c, 0, 73, 44
2, 998, Note_on_c, 0, 73, 0
2, 1000, Note_on_c, 0, 68, 36
2, 1014, Control_c, 0, 64, 0
2, 1018, Note_on_c, 0, 68, 0
2, 1020, Note_on_c, 0, 73, 42
2, 1022, Note_on_c, 0, 65, 42
2, 1023, Note_on_c, 0, 61, 54
2, 1024, Note_on_c, 0, 56, 56
2, 1028, Note_on_c, 0, 65, 0
2, 1029, Note_on_c, 0, 61, 0
2, 1030, Note_on_c, 0, 56, 0
2, 1038, Note_on_c, 0, 73, 0
2, 1040, Note_on_c, 0, 68, 41
2, 1058, Note_on_c, 0, 68, 0
2, 1060, Note_on_c, 0, 80, 43
2, 1078, Note_on_c, 0, 80, 0
2, 1079, Note_on_c, 0, 63, 42
2, 1079, Note_on_c, 0, 59, 45
2, 1079, Control_c, 0, 64, 127
2, 1080, Note_on_c, 0, 68, 47
2, 1080, Note_on_c, 0, 56, 53
2, 1085, Note_on_c, 0, 56, 0
2, 1085, Note_on_c, 0, 63, 0
2, 1086, Note_on_c, 0, 59, 0
2, 1098, Note_on_c, 0, 68, 0
2, 1100, Note_on_c, 0, 80, 58
2, 1118, Note_on_c, 0, 80, 0
2, 1120, Note_on_c, 0, 75, 41
2, 1138, Note_on_c, 0, 75, 0
2, 1139, Note_on_c, 0, 44, 58
2, 1140, Note_on_c, 0, 80, 46
2, 1151, Note_on_c, 0, 44, 0
2, 1158, Note_on_c, 0, 80, 0
2, 1160, Note_on_c, 0, 75, 46
2, 1178, Note_on_c, 0, 75, 0
2, 1180, Note_on_c, 0, 87, 61
2, 1198, Note_on_c, 0, 87, 0
2, 1199, Note_on_c, 0, 49, 58
2, 1200, Note_on_c, 0, 75, 45
2, 1200, Control_c, 0, 64, 0
2, 1218, Note_on_c, 0, 75, 0
2, 1220, Note_on_c, 0, 87, 57
2, 1238, Note_on_c, 0, 87, 0
2, 1240, Note_on_c, 0, 80, 46
2, 1258, Note_on_c, 0, 80, 0
2, 1259, Note_on_c, 0, 63, 60
2, 1259, Note_on_c, 0, 56, 49
2, 1259, Note_on_c, 0, 59, 62
2, 1260, Note_on_c, 0, 87, 49
2, 1267, Note_on_c, 0, 59, 0
2, 1268, Note_on_c, 0, 56, 0
2, 1270, Note_on_c, 0, 63, 0
2, 1278, Note_on_c, 0, 87, 0
2, 1280, Note_on_c, 0, 80, 55
2, 1298, Note_on_c, 0, 80, 0
2, 1300, Note_on_c, 0, 92, 66
2, 1318, Note_on_c, 0, 92, 0
2, 1319, Note_on_c, 0, 56, 46
2, 1319, Note_on_c, 0, 59, 62
2, 1319, Note_on_c, 0, 61, 59
2, 1320, Note_on_c, 0, 80, 62
2, 1323, Control_c, 0, 64, 127
2, 1330, Note_on_c, 0, 59, 0
2, 1330, Note_on_c, 0, 56, 0
2, 1331, Note_on_c, 0, 61, 0
2, 1338, Note_on_c, 0, 80, 0
2, 1339, Note_on_c, 0, 49, 0
2, 1340, Note_on_c, 0, 92, 55
2, 1358, Note_on_c, 0, 92, 0
2, 1360, Note_on_c, 0, 85, 57
2, 1378, Note_on_c, 0, 85, 0
2, 1380, Note_on_c, 0, 92, 63
2, 1398, Note_on_c, 0, 92, 0
2, 1400, Note_on_c, 0, 85, 54
2, 1401, Control_c, 0, 64, 0
2, 1418, Note_on_c, 0, 85, 0
2, 1420, Note_on_c, 0, 97, 50
2, 1436, Control_c, 0, 64, 127
2, 1438, Note_on_c, 0, 97, 0
2, 1439, Note_on_c, 0, 61, 74
2, 1439, Note_on_c, 0, 66, 69
2, 1439, Note_on_c, 0, 54, 68
2, 1439, Note_on_c, 0, 58, 70
2, 1440, Note_on_c, 0, 90, 61
2, 1444, Note_on_c, 0, 58, 0
2, 1446, Note_on_c, 0, 54, 0
2, 1447, Note_on_c, 0, 61, 0
2, 1450, Note_on_c, 0, 66, 0
2, 1458, Note_on_c, 0, 90, 0
2, 1460, Note_on_c, 0, 94, 69
2, 1478, Note_on_c, 0, 94, 0
2, 1480, Note_on_c, 0, 85, 66
2, 1498, Note_on_c, 0, 85, 0
2, 1499, Control_c, 0, 64, 0
2, 1500, Note_on_c, 0, 90, 61
2, 1500, Note_on_c, 0, 63, 82
2, 1501, Note_on_c, 0, 54, 62
2, 1501, Note_on_c, 0, 66, 70
2, 1501, Note_on_c, 0, 59, 81
2, 1508, Note_on_c, 0, 59, 0
2, 1509, Note_on_c, 0, 54, 0
2, 1511, Note_on_c, 0, 66, 0
2, 1511, Note_on_c, 0, 63, 0
2, 1518, Note_on_c, 0, 90, 0
2, 1520, Note_on_c, 0, 87, 69
2, 1538, Note_on_c, 0, 87, 0
2, 1540, Note_on_c, 0, 90, 64
2, 1558, Note_on_c, 0, 90, 0
2, 1559, Note_on_c, 0, 54, 65
2, 1559, Note_on_c, 0, 61, 78
2, 1560, Note_on_c, 0, 85, 56
2, 1560, Note_on_c, 0, 58, 77
2, 1561, Note_on_c, 0, 66, 72
2, 1568, Note_on_c, 0, 66, 0
2, 1568, Note_on_c, 0, 54, 0
2, 1569, Note_on_c, 0, 61, 0
2, 1570, Note_on_c, 0, 58, 0
2, 1578, Note_on_c, 0, 85, 0
2, 1580, Note_on_c, 0, 90, 66
2, 1598, Note_on_c, 0, 90, 0
2, 1600, Note_on_c, 0, 82, 56
2, 1618, Note_on_c, 0, 82, 0
2, 1620, Note_on_c, 0, 85, 63
2, 1638, Note_on_c, 0, 85, 0
2, 1640, Note_on_c, 0, 78, 52
2, 1658, Note_on_c, 0, 78, 0
2, 1660, Note_on_c, 0, 82, 72
2, 1678, Note_on_c, 0, 82, 0
2, 1680, Note_on_c, 0, 78, 50
2, 1681, Note_on_c, 0, 42, 63
2, 1681, Note_on_c, 0, 54, 58
2, 1689, Note_on_c, 0, 54, 0
2, 1689, Note_on_c, 0, 42, 0
2, 1698, Note_on_c, 0, 78, 0
2, 1700, Note_on_c, 0, 82, 45
2, 1718, Note_on_c, 0, 82, 0
2, 1720, Note_on_c, 0, 73, 41
2, 1738, Note_on_c, 0, 73, 0
2, 1740, Note_on_c, 0, 78, 51
2, 1741, Note_on_c, 0, 59, 55
2, 1742, Note_on_c, 0, 63, 60
2, 1742, Note_on_c, 0, 66, 46
2, 1748, Note_on_c, 0, 66, 0
2, 1751, Note_on_c, 0, 63, 0
2, 1753, Note_on_c, 0, 59, 0
2, 1758, Note_on_c, 0, 78, 0
2, 1760, Note_on_c, 0, 75, 53
2, 1778, Note_on_c, 0, 75, 0
2, 1780, Note_on_c, 0, 78, 53
2, 1798, Note_on_c, 0, 78, 0
2, 1800, Note_on_c, 0, 73, 43
2, 1801, Note_on_c, 0, 66, 52
2, 1801, Note_on_c, 0, 58, 53
2, 1801, Note_on_c, 0, 61, 56
2, 1806, Note_on_c, 0, 61, 0
2, 1807, Note_on_c, 0, 58, 0
2, 1808, Note_on_c, 0, 66, 0
2, 1818, Note_on_c, 0, 73, 0
2, 1820, Note_on_c, 0, 78, 46
2, 1838, Note_on_c, 0, 78, 0
2, 1840, Note_on_c, 0, 70, 38
2, 1858, Note_on_c, 0, 70, 0
2, 1860, Note_on_c, 0, 73, 44
2, 1878, Note_on_c, 0, 73, 0
2, 1880, Note_on_c, 0, 66, 41
2, 1898, Note_on_c, 0, 66, 0
2, 1900, Note_on_c, 0, 70, 26
2, 1918, Note_on_c, 0, 70, 0
2, 1920, Note_on_c, 0, 63, 42
2, 1921, Note_on_c, 0, 47, 60
2, 1928, Control_c, 0, 64, 127
2, 1938, Note_on_c, 0, 63, 0
2, 1940, Note_on_c, 0, 75, 51
2, 1947, Note_on_c, 0, 47, 0
2, 1958, Note_on_c, 0, 75, 0
2, 1960, Note_on_c, 0, 68, 43
2, 1978, Note_on_c, 0, 68, 0
2, 1980, Note_on_c, 0, 75, 38
2, 1980, Note_on_c, 0, 63, 59
2, 1982, Note_on_c, 0, 56, 39
2, 1998, Note_on_c, 0, 75, 0
2, 2000, Note_on_c, 0, 68, 39
2, 2018, Note_on_c, 0, 68, 0
2, 2020, Note_on_c, 0, 80, 42
2, 2038, Note_on_c, 0, 80, 0
2, 2040, Note_on_c, 0, 75, 38
2, 2054, Note_on_c, 0, 63, 0
2, 2058, Note_on_c, 0, 75, 0
2, 2060, Note_on_c, 0, 80, 46
2, 2061, Note_on_c, 0, 56, 0
2, 2078, Note_on_c, 0, 80, 0
2, 2080, Note_on_c, 0, 75, 38
2, 2098, Note_on_c, 0, 75, 0
2, 2098, Note_on_c, 0, 47, 64
2, 2100, Note_on_c, 0, 87, 48
2, 2112, Note_on_c, 0, 47, 0
2, 2118, Note_on_c, 0, 87, 0
2, 2120, Note_on_c, 0, 80, 43
2, 2138, Note_on_c, 0, 80, 0
2, 2138, Control_c, 0, 64, 0
2, 2140, Note_on_c, 0, 92, 40
2, 2147, Note_on_c, 0, 46, 53
2, 2154, Control_c, 0, 64, 127
2, 2157, Note_on_c, 0, 53, 62
2, 2158, Note_on_c, 0, 92, 0
2, 2159, Note_on_c, 0, 46, 0
2, 2160, Note_on_c, 0, 82, 49
2, 2169, Note_on_c, 0, 62, 59
2, 2175, Note_on_c, 0, 53, 0
2, 2178, Note_on_c, 0, 82, 0
2, 2180, Note_on_c, 0, 94, 53
2, 2183, Note_on_c, 0, 62, 0
2, 2198, Note_on_c, 0, 94, 0
2, 2200, Note_on_c, 0, 82, 45
2, 2218, Note_on_c, 0, 82, 0
2, 2220, Note_on_c, 0, 94, 56
2, 2221, Note_on_c, 0, 58, 40
2, 2238, Note_on_c, 0, 94, 0
2, 2240, Note_on_c, 0, 82, 48
2, 2243, Note_on_c, 0, 65, 58
2, 2245, Note_on_c, 0, 58, 0
2, 2258, Note_on_c, 0, 82, 0
2, 2260, Note_on_c, 0, 94, 54
2, 2260, Note_on_c, 0, 74, 62
2, 2262, Note_on_c, 0, 65, 0
2, 2275, Note_on_c, 0, 74, 0
2, 2278, Note_on_c, 0, 94, 0
2, 2280, Note_on_c, 0, 82, 49
2, 2298, Note_on_c, 0, 82, 0
2, 2300, Note_on_c, 0, 94, 59
2, 2318, Note_on_c, 0, 94, 0
2, 2320, Note_on_c, 0, 82, 46
2, 2338, Note_on_c, 0, 82, 0
2, 2340, Note_on_c, 0, 94, 42
2, 2358, Note_on_c, 0, 94, 0
2, 2360, Note_on_c, 0, 82, 43
2, 2374, Control_c, 0, 64, 0
2, 2378, Note_on_c, 0, 82, 0
2, 2380, Note_on_c, 0, 94, 43
2, 2390, Control_c, 0, 64, 127
2, 2398, Note_on_c, 0, 94, 0
2, 2399, Note_on_c, 0, 61, 76
2, 2399, Note_on_c, 0, 66, 67
2, 2400, Note_on_c, 0, 90, 69
2, 2400, Note_on_c, 0, 54, 64
2, 2400, Note_on_c, 0, 58, 69
2, 2413, Note_on_c, 0, 58, 0
2, 2413, Note_on_c, 0, 54, 0
2, 2415, Note_on_c, 0, 61, 0
2, 2416, Note_on_c, 0, 66, 0
2, 2418, Note_on_c, 0, 90, 0
2, 2420, Note_on_c, 0, 94, 65
2, 2438, Note_on_c, 0, 94, 0
2, 2440, Note_on_c, 0, 85, 54
2, 2458, Note_on_c, 0, 85, 0
2, 2459, Note_on_c, 0, 54, 52
2, 2459, Note_on_c, 0, 66, 65
2, 2459, Note_on_c, 0, 63, 74
2, 2459, Note_on_c, 0, 59, 78
2, 2460, Note_on_c, 0, 90, 60
2, 2462, Control_c, 0, 64, 0
2, 2468, Note_on_c, 0, 59, 0
2, 2468, Note_on_c, 0, 54, 0
2, 2470, Note_on_c, 0, 66, 0
2, 2470, Note_on_c, 0, 63, 0
2, 2478, Note_on_c, 0, 90, 0
2, 2480, Note_on_c, 0, 87, 70
2, 2498, Note_on_c, 0, 87, 0
2, 2500, Note_on_c, 0, 90, 72
2, 2518, Note_on_c, 0, 90, 0
2, 2518, Note_on_c, 0, 54, 60
2, 2518, Note_on_c, 0, 66, 65
2, 2518, Note_on_c, 0, 58, 74
2, 2518, Note_on_c, 0, 61, 74
2, 2527, Note_on_c, 0, 66, 0
2, 2528, Note_on_c, 0, 61, 0
2, 2530, Note_on_c, 0, 58, 0
2, 2531, Note_on_c, 0, 54, 0
2, 2540, Note_on_c, 0, 90, 64
2, 2558, Note_on_c, 0, 90, 0
2, 2560, Note_on_c, 0, 82, 61
2, 2578, Note_on_c, 0, 82, 0
2, 2580, Note_on_c, 0, 85, 68
2, 2598, Note_on_c, 0, 85, 0
2, 2600, Note_on_c, 0, 78, 55
2, 2618, Note_on_c, 0, 78, 0
2, 2620, Note_on_c, 0, 82, 63
2, 2638, Note_on_c, 0, 82, 0
2, 2639, Note_on_c, 0, 42, 64
2, 2639, Note_on_c, 0, 54, 59
2, 2640, Note_on_c, 0, 78, 53
2, 2647, Note_on_c, 0, 54, 0
2, 2647, Note_on_c, 0, 42, 0
2, 2658, Note_on_c, 0, 78, 0
2, 2660, Note_on_c, 0, 82, 52
2, 2678, Note_on_c, 0, 82, 0
2, 2680, Note_on_c, 0, 73, 36
2, 2698, Note_on_c, 0, 73, 0
2, 2700, Note_on_c, 0, 78, 52
2, 2701, Note_on_c, 0, 63, 62
2, 2701, Note_on_c, 0, 66, 50
2, 2701, Note_on_c, 0, 59, 50
2, 2710, Note_on_c, 0, 66, 0
2, 2711, Note_on_c, 0, 59, 0
2, 2713, Note_on_c, 0, 63, 0
2, 2718, Note_on_c, 0, 78, 0
2, 2720, Note_on_c, 0, 75, 47
2, 2738, Note_on_c, 0, 75, 0
2, 2740, Note_on_c, 0, 78, 42
2, 2758, Note_on_c, 0, 78, 0
2, 2759, Note_on_c, 0, 66, 56
2, 2760, Note_on_c, 0, 73, 40
2, 2760, Note_on_c, 0, 58, 55
2, 2761, Note_on_c, 0, 61, 57
2, 2766, Note_on_c, 0, 66, 0
2, 2767, Note_on_c, 0, 61, 0
2, 2767, Note_on_c, 0, 58, 0
2, 2778, Note_on_c, 0, 73, 0
2, 2780, Note_on_c, 0, 78, 45
2, 2798, Note_on_c, 0, 78, 0
2, 2800, Note_on_c, 0, 70, 43
2, 2818, Note_on_c, 0, 70, 0
2, 2820, Note_on_c, 0, 73, 45
2, 2838, Note_on_c, 0, 73, 0
2, 2840, Note_on_c, 0, 66, 38
2, 2858, Note_on_c, 0, 66, 0
2, 2860, Note_on_c, 0, 70, 43
2, 2878, Note_on_c, 0, 70, 0
2, 2878, Control_c, 0, 64, 127
2, 2880, Note_on_c, 0, 61, 39
2, 2881, Note_on_c, 0, 37, 60
2, 2881, Note_on_c, 0, 49, 54
2, 2888, Note_on_c, 0, 49, 0
2, 2888, Note_on_c, 0, 37, 0
2, 2898, Note_on_c, 0, 61, 0
2, 2900, Note_on_c, 0, 73, 45
2, 2918, Note_on_c, 0, 73, 0
2, 2920, Note_on_c, 0, 68, 41
2, 2937, Control_c, 0, 64, 0
2, 2938, Note_on_c, 0, 68, 0
2, 2940, Note_on_c, 0, 73, 36
2, 2942, Note_on_c, 0, 65, 47
2, 2942, Note_on_c, 0, 61, 54
2, 2942, Note_on_c, 0, 56, 53
2, 2951, Note_on_c, 0, 61, 0
2, 2951, Note_on_c, 0, 65, 0
2, 2953, Note_on_c, 0, 56, 0
2, 2958, Note_on_c, 0, 73, 0
2, 2960, Note_on_c, 0, 68, 42
2, 2978, Note_on_c, 0, 68, 0
2, 2980, Note_on_c, 0, 80, 46
2, 2998, Note_on_c, 0, 80, 0
2, 2999, Control_c, 0, 64, 127
2, 3000, Note_on_c, 0, 68, 36
2, 3001, Note_on_c, 0, 63, 58
2, 3001, Note_on_c, 0, 59, 60
2, 3001, Note_on_c, 0, 56, 58
2, 3007, Note_on_c, 0, 56, 0
2, 3007, Note_on_c, 0, 59, 0
2, 3007, Note_on_c, 0, 63, 0
2, 3018, Note_on_c, 0, 68, 0
2, 3020, Note_on_c, 0, 80, 40
2, 3038, Note_on_c, 0, 80, 0
2, 3040, Note_on_c, 0, 75, 45
2, 3058, Note_on_c, 0, 75, 0
2, 3060, Note_on_c, 0, 80, 45
2, 3061, Note_on_c, 0, 44, 65
2, 3068, Note_on_c, 0, 44, 0
2, 3078, Note_on_c, 0, 80, 0
2, 3080, Note_on_c, 0, 75, 46
2, 3098, Note_on_c, 0, 75, 0
2, 3100, Note_on_c, 0, 87, 52
2, 3118, Note_on_c, 0, 87, 0
2, 3120, Note_on_c, 0, 75, 45
2, 3121, Note_on_c, 0, 49, 64
2, 3121, Control_c, 0, 64, 0
2, 3128, Control_c, 0, 64, 127
2, 3138, Note_on_c, 0, 75, 0
2, 3140, Note_on_c, 0, 87, 48
2, 3158, Note_on_c, 0, 87, 0
2, 3160, Note_on_c, 0, 80, 48
2, 3178, Note_on_c, 0, 80, 0
2, 3180, Note_on_c, 0, 87, 50
2, 3181, Note_on_c, 0, 63, 58
2, 3181, Note_on_c, 0, 59, 66
2, 3181, Note_on_c, 0, 56, 65
2, 3190, Note_on_c, 0, 63, 0
2, 3192, Note_on_c, 0, 59, 0
2, 3192, Note_on_c, 0, 56, 0
2, 3198, Note_on_c, 0, 87, 0
2, 3200, Note_on_c, 0, 80, 44
2, 3218, Note_on_c, 0, 80, 0
2, 3220, Note_on_c, 0, 92, 59
2, 3221, Control_c, 0, 64, 0
2, 3222, Control_c, 0, 64, 0
2, 3238, Note_on_c, 0, 92, 0
2, 3239, Note_on_c, 0, 61, 58
2, 3239, Control_c, 0, 64, 127
2, 3240, Note_on_c, 0, 80, 49
2, 3240, Note_on_c, 0, 59, 71
2, 3241, Note_on_c, 0, 56, 69
2, 3246, Note_on_c, 0, 61, 0
2, 3247, Note_on_c, 0, 59, 0
2, 3248, Note_on_c, 0, 56, 0
2, 3252, Note_on_c, 0, 49, 0
2, 3258, Note_on_c, 0, 80, 0
2, 3260, Note_on_c, 0, 92, 57
2, 3278, Note_on_c, 0, 92, 0
2, 3280, Note_on_c, 0, 85, 50
2, 3298, Note_on_c, 0, 85, 0
2, 3300, Note_on_c, 0, 92, 52
2, 3318, Note_on_c, 0, 92, 0
2, 3318, Control_c, 0, 64, 0
2, 3320, Note_on_c, 0, 85, 45
2, 3338, Note_on_c, 0, 85, 0
2, 3340, Note_on_c, 0, 97, 47
2, 3354, Control_c, 0, 64, 127
2, 3358, Note_on_c, 0, 97, 0
2, 3360, Note_on_c, 0, 90, 63
2, 3361, Note_on_c, 0, 61, 74
2, 3361, Note_on_c, 0, 58, 74
2, 3361, Note_on_c, 0, 66, 70
2, 3361, Note_on_c, 0, 54, 52
2, 3367, Note_on_c, 0, 54, 0
2, 3369, Note_on_c, 0, 66, 0
2, 3371, Note_on_c, 0, 58, 0
2, 3371, Note_on_c, 0, 61, 0
2, 3378, Note_on_c, 0, 90, 0
2, 3380, Note_on_c, 0, 94, 74
2, 3398, Note_on_c, 0, 94, 0
2, 3400, Note_on_c, 0, 85, 65
2, 3418, Note_on_c, 0, 85, 0
2, 3418, Control_c, 0, 64, 0
2, 3420, Note_on_c, 0, 90, 72
2, 3421, Note_on_c, 0, 66, 67
2, 3421, Note_on_c, 0, 54, 61
2, 3421, Note_on_c, 0, 63, 78
2, 3421, Note_on_c, 0, 59, 78
2, 3429, Note_on_c, 0, 59, 0
2, 3430, Note_on_c, 0, 63, 0
2, 3432, Note_on_c, 0, 66, 0
2, 3433, Note_on_c, 0, 54, 0
2, 3438, Note_on_c, 0, 90, 0
2, 3440, Note_on_c, 0, 87, 72
2, 3458, Note_on_c, 0, 87, 0
2, 3460, Note_on_c, 0, 90, 68
2, 3478, Note_on_c, 0, 90, 0
2, 3480, Note_on_c, 0, 85, 60
2, 3480, Note_on_c, 0, 54, 63
2, 3480, Note_on_c, 0, 66, 76
2, 3481, Note_on_c, 0, 58, 76
2, 3481, Note_on_c, 0, 61, 76
2, 3489, Note_on_c, 0, 66, 0
2, 3490, Note_on_c, 0, 58, 0
2, 3490, Note_on_c, 0, 61, 0
2, 3490, Note_on_c, 0, 54, 0
2, 3498, Note_on_c, 0, 85, 0
2, 3500, Note_on_c, 0, 90, 76
2, 3518, Note_on_c, 0, 90, 0
2, 3520, Note_on_c, 0, 82, 55
2, 3538, Note_on_c, 0, 82, 0
2, 3540, Note_on_c, 0, 85, 53
2, 3558, Note_on_c, 0, 85, 0
2, 3560, Note_on_c, 0, 78, 54
2, 3578, Note_on_c, 0, 78, 0
2, 3580, Note_on_c, 0, 82, 57
2, 3598, Note_on_c, 0, 82, 0
2, 3599, Note_on_c, 0, 42, 60
2, 3599, Note_on_c, 0, 54, 56
2, 3600, Note_on_c, 0, 78, 46
2, 3608, Note_on_c, 0, 54, 0
2, 3608, Note_on_c, 0, 42, 0
2, 3618, Note_on_c, 0, 78, 0
2, 3620, Note_on_c, 0, 82, 53
2, 3638, Note_on_c, 0, 82, 0
2, 3640, Note_on_c, 0, 73, 43
2, 3658, Note_on_c, 0, 73, 0
2, 3660, Note_on_c, 0, 78, 52
2, 3660, Note_on_c, 0, 63, 59
2, 3660, Note_on_c, 0, 66, 48
2, 3660, Note_on_c, 0, 59, 58
2, 3668, Note_on_c, 0, 63, 0
2, 3670, Note_on_c, 0, 59, 0
2, 3672, Note_on_c, 0, 66, 0
2, 3678, Note_on_c, 0, 78, 0
2, 3680, Note_on_c, 0, 75, 51
2, 3698, Note_on_c, 0, 75, 0
2, 3700, Note_on_c, 0, 78, 52
2, 3718, Note_on_c, 0, 78, 0
2, 3719, Note_on_c, 0, 66, 57
2, 3719, Note_on_c, 0, 61, 60
2, 3719, Note_on_c, 0, 58, 57
2, 3720, Note_on_c, 0, 73, 49
2, 3726, Note_on_c, 0, 58, 0
2, 3728, Note_on_c, 0, 66, 0
2, 3728, Note_on_c, 0, 61, 0
2, 3738, Note_on_c, 0, 73, 0
2, 3740, Note_on_c, 0, 78, 45
2, 3758, Note_on_c, 0, 78, 0
2, 3760, Note_on_c, 0, 70, 46
2, 3778, Note_on_c, 0, 70, 0
2, 3780, Note_on_c, 0, 73, 52
2, 3798, Note_on_c, 0, 73, 0
2, 3800, Note_on_c, 0, 66, 45
2, 3818, Note_on_c, 0, 66, 0
2, 3820, Note_on_c, 0, 70, 48
2, 3838, Note_on_c, 0, 70, 0
2, 3839, Note_on_c, 0, 48, 58
2, 3840, Note_on_c, 0, 63, 42
2, 3844, Control_c, 0, 64, 127
2, 3849, Note_on_c, 0, 48, 0
2, 3858, Note_on_c, 0, 63, 0
2, 3860, Note_on_c, 0, 75, 48
2, 3878, Note_on_c, 0, 75, 0
2, 3880, Note_on_c, 0, 68, 43
2, 3898, Note_on_c, 0, 68, 0
2, 3899, Note_on_c, 0, 56, 57
2, 3900, Note_on_c, 0, 75, 42
2, 3900, Note_on_c, 0, 66, 54
2, 3918, Note_on_c, 0, 75, 0
2, 3920, Note_on_c, 0, 68, 37
2, 3938, Note_on_c, 0, 68, 0
2, 3940, Note_on_c, 0, 80, 44
2, 3958, Note_on_c, 0, 80, 0
2, 3960, Note_on_c, 0, 75, 41
2, 3975, Note_on_c, 0, 66, 0
2, 3977, Note_on_c, 0, 56, 0
2, 3978, Note_on_c, 0, 75, 0
2, 3980, Note_on_c, 0, 80, 51
2, 3998, Note_on_c, 0, 80, 0
2, 4000, Note_on_c, 0, 75, 40
2, 4018, Note_on_c, 0, 75, 0
2, 4019, Note_on_c, 0, 44, 64
2, 4020, Note_on_c, 0, 87, 50
2, 4023, Control_c, 0, 64, 0
2, 4025, Note_on_c, 0, 44, 0
2, 4038, Note_on_c, 0, 87, 0
2, 4040, Note_on_c, 0, 80, 43
2, 4058, Note_on_c, 0, 80, 0
2, 4060, Note_on_c, 0, 87, 44
2, 4075, Control_c, 0, 64, 127
2, 4078, Note_on_c, 0, 87, 0
2, 4079, Note_on_c, 0, 49, 65
2, 4080, Note_on_c, 0, 75, 41
2, 4089, Note_on_c, 0, 49, 0
2, 4098, Note_on_c, 0, 75, 0
2, 4100, Note_on_c, 0, 87, 56
2, 4118, Note_on_c, 0, 87, 0
2, 4120, Note_on_c, 0, 80, 53
2, 4138, Note_on_c, 0, 80, 0
2, 4139, Note_on_c, 0, 56, 68
2, 4139, Note_on_c, 0, 65, 63
2, 4140, Note_on_c, 0, 87, 53
2, 4146, Note_on_c, 0, 56, 0
2, 4147, Note_on_c, 0, 65, 0
2, 4158, Note_on_c, 0, 87, 0
2, 4160, Note_on_c, 0, 73, 50
2, 4178, Note_on_c, 0, 73, 0
2, 4180, Note_on_c, 0, 85, 55
2, 4198, Note_on_c, 0, 85, 0
2, 4200, Note_on_c, 0, 80, 56
2, 4218, Note_on_c, 0, 80, 0
2, 4220, Note_on_c, 0, 85, 51
2, 4238, Note_on_c, 0, 85, 0
2, 4240, Note_on_c, 0, 80, 58
2, 4258, Note_on_c, 0, 80, 0
2, 4260, Note_on_c, 0, 92, 64
2, 4278, Note_on_c, 0, 92, 0
2, 4280, Note_on_c, 0, 85, 48
2, 4298, Note_on_c, 0, 85, 0
2, 4300, Note_on_c, 0, 97, 52
2, 4318, Note_on_c, 0, 97, 0
2, 4318, Note_on_c, 0, 66, 68
2, 4318, Note_on_c, 0, 68, 58
2, 4319, Note_on_c, 0, 60, 65
2, 4320, Note_on_c, 0, 92, 64
2, 4327, Note_on_c, 0, 60, 0
2, 4330, Note_on_c, 0, 66, 0
2, 4331, Note_on_c, 0, 68, 0
2, 4338, Note_on_c, 0, 92, 0
2, 4340, Note_on_c, 0, 94, 68
2, 4346, Control_c, 0, 64, 0
2, 4358, Note_on_c, 0, 94, 0
2, 4360, Note_on_c, 0, 92, 61
2, 4378, Note_on_c, 0, 92, 0
2, 4378, Note_on_c, 0, 56, 62
2, 4379, Note_on_c, 0, 66, 64
2, 4379, Note_on_c, 0, 68, 56
2, 4380, Note_on_c, 0, 87, 70
2, 4386, Note_on_c, 0, 68, 0
2, 4387, Note_on_c, 0, 66, 0
2, 4388, Note_on_c, 0, 56, 0
2, 4398, Note_on_c, 0, 87, 0
2, 4400, Note_on_c, 0, 99, 70
2, 4418, Note_on_c, 0, 99, 0
2, 4420, Note_on_c, 0, 87, 59
2, 4438, Note_on_c, 0, 87, 0
2, 4439, Note_on_c, 0, 70, 62
2, 4439, Note_on_c, 0, 65, 71
2, 4439, Note_on_c, 0, 61, 63
2, 4440, Note_on_c, 0, 85, 59
2, 4440, Control_c, 0, 64, 127
2, 4458, Note_on_c, 0, 85, 0
2, 4460, Note_on_c, 0, 87, 66
2, 4478, Note_on_c, 0, 87, 0
2, 4480, Note_on_c, 0, 85, 47
2, 4484, Note_on_c, 0, 70, 0
2, 4485, Note_on_c, 0, 65, 0
2, 4485, Note_on_c, 0, 61, 0
2, 4498, Note_on_c, 0, 85, 0
2, 4498, Note_on_c, 0, 56, 61
2, 4498, Note_on_c, 0, 65, 69
2, 4498, Note_on_c, 0, 68, 56
2, 4500, Note_on_c, 0, 80, 59
2, 4518, Note_on_c, 0, 80, 0
2, 4520, Note_on_c, 0, 92, 56
2, 4527, Note_on_c, 0, 68, 0
2, 4528, Note_on_c, 0, 65, 0
2, 4531, Note_on_c, 0, 56, 0
2, 4538, Note_on_c, 0, 92, 0
2, 4540, Note_on_c, 0, 80, 60
2, 4548, Control_c, 0, 64, 0
2, 4557, Note_on_c, 0, 80, 0
2, 4559, Control_c, 0, 64, 127
2, 4560, Note_on_c, 0, 80, 65
2, 4561, Note_on_c, 0, 70, 60
2, 4561, Note_on_c, 0, 66, 68
2, 4561, Note_on_c, 0, 60, 69
2, 4578, Note_on_c, 0, 80, 0
2, 4580, Note_on_c, 0, 82, 66
2, 4598, Note_on_c, 0, 82, 0
2, 4600, Note_on_c, 0, 80, 63
2, 4603, Note_on_c, 0, 70, 0
2, 4608, Note_on_c, 0, 66, 0
2, 4610, Note_on_c, 0, 60, 0
2, 4618, Note_on_c, 0, 80, 0
2, 4620, Note_on_c, 0, 75, 54
2, 4621, Note_on_c, 0, 56, 56
2, 4621, Note_on_c, 0, 66, 45
2, 4622, Note_on_c, 0, 68, 69
2, 4638, Note_on_c, 0, 75, 0
2, 4640, Note_on_c, 0, 87, 55
2, 4658, Note_on_c, 0, 87, 0
2, 4658, Note_on_c, 0, 68, 0
2, 4660, Note_on_c, 0, 75, 52
2, 4665, Control_c, 0, 64, 0
2, 4673, Note_on_c, 0, 66, 0
2, 4678, Note_on_c, 0, 75, 0
2, 4679, Control_c, 0, 64, 127
2, 4680, Note_on_c, 0, 73, 68
2, 4681, Note_on_c, 0, 61, 67
2, 4682, Note_on_c, 0, 56, 0
2, 4682, Note_on_c, 0, 65, 66
2, 4698, Note_on_c, 0, 73, 0
2, 4700, Note_on_c, 0, 75, 65
2, 4718, Note_on_c, 0, 75, 0
2, 4720, Note_on_c, 0, 73, 63
2, 4737, Note_on_c, 0, 65, 0
2, 4738, Note_on_c, 0, 73, 0
2, 4739, Note_on_c, 0, 56, 64
2, 4740, Note_on_c, 0, 61, 0
2, 4740, Note_on_c, 0, 68, 89
2, 4784, Control_c, 0, 64, 0
2, 4796, Control_c, 0, 64, 127
2, 4797, Note_on_c, 0, 56, 0
2, 4799, Note_on_c, 0, 48, 60
2, 4807, Note_on_c, 0, 48, 0
2, 4818, Note_on_c, 0, 68, 0
2, 4820, Note_on_c, 0, 75, 50
2, 4838, Note_on_c, 0, 75, 0
2, 4840, Note_on_c, 0, 80, 50
2, 4858, Note_on_c, 0, 80, 0
2, 4859, Note_on_c, 0, 63, 59
2, 4859, Note_on_c, 0, 66, 57
2, 4860, Note_on_c, 0, 82, 53
2, 4860, Note_on_c, 0, 56, 55
2, 4867, Note_on_c, 0, 66, 0
2, 4870, Note_on_c, 0, 63, 0
2, 4870, Note_on_c, 0, 56, 0
2, 4878, Note_on_c, 0, 82, 0
2, 4880, Note_on_c, 0, 80, 44
2, 4898, Note_on_c, 0, 80, 0
2, 4900, Note_on_c, 0, 75, 43
2, 4918, Note_on_c, 0, 75, 0
2, 4919, Note_on_c, 0, 65, 57
2, 4919, Note_on_c, 0, 56, 60
2, 4919, Note_on_c, 0, 61, 59
2, 4920, Note_on_c, 0, 73, 43
2, 4921, Control_c, 0, 64, 0
2, 4926, Note_on_c, 0, 61, 0
2, 4927, Note_on_c, 0, 65, 0
2, 4930, Note_on_c, 0, 56, 0
2, 4938, Note_on_c, 0, 73, 0
2, 4940, Note_on_c, 0, 80, 47
2, 4958, Note_on_c, 0, 80, 0
2, 4960, Note_on_c, 0, 85, 44
2, 4978, Note_on_c, 0, 85, 0
2, 4979, Note_on_c, 0, 49, 58
2, 4980, Note_on_c, 0, 87, 46
2, 4988, Note_on_c, 0, 49, 0
2, 4998, Note_on_c, 0, 87, 0
2, 5000, Note_on_c, 0, 85, 43
2, 5018, Note_on_c, 0, 85, 0
2, 5020, Note_on_c, 0, 80, 46
2, 5034, Control_c, 0, 64, 127
2, 5037, Note_on_c, 0, 80, 0
2, 5039, Note_on_c, 0, 44, 62
2, 5040, Note_on_c, 0, 80, 41
2, 5046, Note_on_c, 0, 44, 0
2, 5058, Note_on_c, 0, 80, 0
2, 5060, Note_on_c, 0, 87, 55
2, 5078, Note_on_c, 0, 87, 0
2, 5080, Note_on_c, 0, 92, 50
2, 5098, Note_on_c, 0, 92, 0
2, 5099, Note_on_c, 0, 60, 55
2, 5099, Note_on_c, 0, 66, 55
2, 5099, Note_on_c, 0, 56, 55
2, 5100, Note_on_c, 0, 94, 52
2, 5106, Note_on_c, 0, 66, 0
2, 5107, Note_on_c, 0, 56, 0
2, 5108, Note_on_c, 0, 60, 0
2, 5118, Note_on_c, 0, 94, 0
2, 5120, Note_on_c, 0, 92, 46
2, 5138, Note_on_c, 0, 92, 0
2, 5140, Note_on_c, 0, 87, 49
2, 5150, Control_c, 0, 64, 0
2, 5158, Note_on_c, 0, 87, 0
2, 5159, Note_on_c, 0, 37, 66
2, 5160, Note_on_c, 0, 85, 39
2, 5160, Control_c, 0, 64, 127
2, 5166, Note_on_c, 0, 37, 0
2, 5178, Note_on_c, 0, 85, 0
2, 5180, Note_on_c, 0, 92, 50
2, 5198, Note_on_c, 0, 92, 0
2, 5200, Note_on_c, 0, 97, 45
2, 5218, Note_on_c, 0, 97, 0
2, 5219, Note_on_c, 0, 65, 51
2, 5219, Note_on_c, 0, 56, 51
2, 5219, Note_on_c, 0, 61, 51
2, 5220, Note_on_c, 0, 99, 49
2, 5224, Note_on_c, 0, 56, 0
2, 5226, Note_on_c, 0, 65, 0
2, 5226, Note_on_c, 0, 61, 0
2, 5238, Note_on_c, 0, 99, 0
2, 5240, Note_on_c, 0, 97, 38
2, 5251, Control_c, 0, 64, 0
2, 5258, Note_on_c, 0, 97, 0
2, 5260, Note_on_c, 0, 94, 47
2, 5271, Control_c, 0, 64, 127
2, 5278, Note_on_c, 0, 94, 0
2, 5280, Note_on_c, 0, 92, 62
2, 5280, Note_on_c, 0, 44, 69
2, 5287, Note_on_c, 0, 44, 0
2, 5298, Note_on_c, 0, 92, 0
2, 5300, Note_on_c, 0, 94, 62
2, 5318, Note_on_c, 0, 94, 0
2, 5320, Note_on_c, 0, 92, 64
2, 5338, Note_on_c, 0, 92, 0
2, 5340, Note_on_c, 0, 87, 54
2, 5340, Note_on_c, 0, 60, 62
2, 5341, Note_on_c, 0, 68, 62
2, 5341, Note_on_c, 0, 66, 62
2, 5341, Control_c, 0, 64, 0
2, 5348, Note_on_c, 0, 66, 0
2, 5348, Note_on_c, 0, 68, 0
2, 5348, Note_on_c, 0, 60, 0
2, 5358, Note_on_c, 0, 87, 0
2, 5360, Note_on_c, 0, 99, 65
2, 5378, Note_on_c, 0, 99, 0
2, 5380, Note_on_c, 0, 87, 54
2, 5393, Control_c, 0, 64, 127
2, 5398, Note_on_c, 0, 87, 0
2, 5399, Note_on_c, 0, 70, 57
2, 5400, Note_on_c, 0, 85, 57
2, 5400, Note_on_c, 0, 61, 60
2, 5400, Note_on_c, 0, 65, 65
2, 5418, Note_on_c, 0, 85, 0
2, 5420, Note_on_c, 0, 87, 63
2, 5438, Note_on_c, 0, 87, 0
2, 5440, Note_on_c, 0, 85, 48
2, 5443, Note_on_c, 0, 70, 0
2, 5445, Note_on_c, 0, 61, 0
2, 5446, Note_on_c, 0, 65, 0
2, 5458, Note_on_c, 0, 85, 0
2, 5459, Note_on_c, 0, 65, 71
2, 5459, Note_on_c, 0, 56, 68
2, 5459, Note_on_c, 0, 68, 61
2, 5460, Note_on_c, 0, 80, 59
2, 5478, Note_on_c, 0, 80, 0
2, 5480, Note_on_c, 0, 92, 60
2, 5498, Note_on_c, 0, 92, 0
2, 5500, Note_on_c, 0, 68, 0
2, 5500, Note_on_c, 0, 80, 48
2, 5501, Note_on_c, 0, 56, 0
2, 5501, Note_on_c, 0, 65, 0
2, 5506, Control_c, 0, 64, 0
2, 5515, Control_c, 0, 64, 127
2, 5517, Note_on_c, 0, 80, 0
2, 5519, Note_on_c, 0, 70, 67
2, 5519, Note_on_c, 0, 66, 71
2, 5519, Note_on_c, 0, 60, 64
2, 5520, Note_on_c, 0, 80, 65
2, 5538, Note_on_c, 0, 80, 0
2, 5540, Note_on_c, 0, 82, 63
2, 5558, Note_on_c, 0, 82, 0
2, 5560, Note_on_c, 0, 80, 46
2, 5570, Note_on_c, 0, 70, 0
2, 5571, Note_on_c, 0, 66, 0
2, 5572, Note_on_c, 0, 60, 0
2, 5578, Note_on_c, 0, 80, 0
2, 5579, Note_on_c, 0, 66, 67
2, 5579, Note_on_c, 0, 56, 65
2, 5580, Note_on_c, 0, 75, 58
2, 5581, Note_on_c, 0, 68, 60
2, 5598, Note_on_c, 0, 75, 0
2, 5600, Note_on_c, 0, 87, 48
2, 5612, Note_on_c, 0, 68, 0
2, 5618, Note_on_c, 0, 87, 0
2, 5620, Note_on_c, 0, 75, 49
2, 5624, Note_on_c, 0, 66, 0
2, 5626, Control_c, 0, 64, 0
2, 5633, Note_on_c, 0, 56, 0
2, 5638, Note_on_c, 0, 75, 0
2, 5639, Note_on_c, 0, 61, 68
2, 5639, Note_on_c, 0, 65, 60
2, 5639, Control_c, 0, 64, 127
2, 5640, Note_on_c, 0, 73, 57
2, 5658, Note_on_c, 0, 73, 0
2, 5660, Note_on_c, 0, 75, 59
2, 5678, Note_on_c, 0, 75, 0
2, 5680, Note_on_c, 0, 73, 52
2, 5698, Note_on_c, 0, 73, 0
2, 5699, Note_on_c, 0, 56, 71
2, 5700, Note_on_c, 0, 68, 82
2, 5707, Note_on_c, 0, 65, 0
2, 5708, Note_on_c, 0, 61, 0
2, 5732, Control_c, 0, 64, 0
2, 5751, Control_c, 0, 64, 127
2, 5761, Note_on_c, 0, 56, 0
2, 5761, Note_on_c, 0, 48, 58
2, 5771, Note_on_c, 0, 48, 0
2, 5778, Note_on_c, 0, 68, 0
2, 5780, Note_on_c, 0, 80, 43
2, 5798, Note_on_c, 0, 80, 0
2, 5800, Note_on_c, 0, 78, 42
2, 5818, Note_on_c, 0, 78, 0
2, 5820, Note_on_c, 0, 80, 46
2, 5821, Note_on_c, 0, 66, 53
2, 5821, Note_on_c, 0, 56, 53
2, 5821, Note_on_c, 0, 63, 53
2, 5830, Note_on_c, 0, 63, 0
2, 5831, Note_on_c, 0, 66, 0
2, 5834, Note_on_c, 0, 56, 0
2, 5838, Note_on_c, 0, 80, 0
2, 5840, Note_on_c, 0, 78, 43
2, 5858, Note_on_c, 0, 78, 0
2, 5860, Note_on_c, 0, 80, 41
2, 5878, Note_on_c, 0, 80, 0
2, 5880, Note_on_c, 0, 90, 50
2, 5887, Control_c, 0, 64, 0
2, 5898, Note_on_c, 0, 90, 0
2, 5900, Note_on_c, 0, 80, 46
2, 5918, Note_on_c, 0, 80, 0
2, 5920, Note_on_c, 0, 78, 41
2, 5935, Control_c, 0, 64, 127
2, 5938, Note_on_c, 0, 78, 0
2, 5939, Note_on_c, 0, 36, 58
2, 5940, Note_on_c, 0, 80, 47
2, 5958, Note_on_c, 0, 80, 0
2, 5960, Note_on_c, 0, 78, 37
2, 5978, Note_on_c, 0, 78, 0
2, 5980, Note_on_c, 0, 80, 44
2, 5998, Note_on_c, 0, 80, 0
2, 5999, Note_on_c, 0, 48, 52
2, 6000, Note_on_c, 0, 68, 52
2, 6001, Note_on_c, 0, 36, 0
2, 6006, Note_on_c, 0, 48, 0
2, 6018, Note_on_c, 0, 68, 0
2, 6020, Note_on_c, 0, 80, 40
2, 6038, Note_on_c, 0, 80, 0
2, 6040, Note_on_c, 0, 78, 42
2, 6058, Note_on_c, 0, 78, 0
2, 6060, Note_on_c, 0, 80, 46
2, 6061, Note_on_c, 0, 56, 51
2, 6061, Note_on_c, 0, 66, 51
2, 6061, Note_on_c, 0, 63, 51
2, 6068, Note_on_c, 0, 63, 0
2, 6068, Note_on_c, 0, 66, 0
2, 6070, Note_on_c, 0, 56, 0
2, 6078, Note_on_c, 0, 80, 0
2, 6080, Note_on_c, 0, 78, 43
2, 6098, Note_on_c, 0, 78, 0
2, 6100, Note_on_c, 0, 80, 49
2, 6118, Note_on_c, 0, 80, 0
2, 6119, Control_c, 0, 64, 0
2, 6120, Note_on_c, 0, 90, 58
2, 6138, Note_on_c, 0, 90, 0
2, 6140, Note_on_c, 0, 80, 42
2, 6158, Note_on_c, 0, 80, 0
2, 6160, Note_on_c, 0, 78, 45
2, 6178, Note_on_c, 0, 78, 0
2, 6180, Note_on_c, 0, 80, 49
2, 6180, Note_on_c, 0, 36, 58
2, 6181, Note_on_c, 0, 48, 61
2, 6198, Note_on_c, 0, 80, 0
2, 6200, Note_on_c, 0, 78, 36
2, 6218, Note_on_c, 0, 78, 0
2, 6220, Note_on_c, 0, 80, 47
2, 6227, Note_on_c, 0, 48, 0
2, 6238, Note_on_c, 0, 80, 0
2, 6240, Note_on_c, 0, 70, 61
2, 6241, Note_on_c, 0, 37, 59
2, 6241, Note_on_c, 0, 49, 63
2, 6252, Control_c, 0, 64, 127
2, 6253, Note_on_c, 0, 37, 0
2, 6253, Note_on_c, 0, 36, 0
2, 6255, Note_on_c, 0, 49, 0
2, 6258, Note_on_c, 0, 70, 0
2, 6260, Note_on_c, 0, 82, 46
2, 6278, Note_on_c, 0, 82, 0
2, 6280, Note_on_c, 0, 78, 57
2, 6298, Note_on_c, 0, 78, 0
2, 6300, Note_on_c, 0, 82, 64
2, 6301, Note_on_c, 0, 58, 52
2, 6301, Note_on_c, 0, 66, 52
2, 6301, Note_on_c, 0, 61, 52
2, 6308, Note_on_c, 0, 61, 0
2, 6313, Note_on_c, 0, 66, 0
2, 6316, Note_on_c, 0, 58, 0
2, 6318, Note_on_c, 0, 82, 0
2, 6320, Note_on_c, 0, 78, 56
2, 6338, Note_on_c, 0, 78, 0
2, 6340, Note_on_c, 0, 82, 57
2, 6357, Control_c, 0, 64, 0
2, 6358, Note_on_c, 0, 82, 0
2, 6360, Note_on_c, 0, 90, 50
2, 6360, Note_on_c, 0, 48, 53
2, 6361, Note_on_c, 0, 36, 61
2, 6378, Note_on_c, 0, 90, 0
2, 6380, Note_on_c, 0, 82, 46
2, 6398, Note_on_c, 0, 82, 0
2, 6400, Note_on_c, 0, 78, 42
2, 6402, Note_on_c, 0, 48, 0
2, 6418, Note_on_c, 0, 78, 0
2, 6419, Note_on_c, 0, 37, 56
2, 6420, Note_on_c, 0, 82, 46
2, 6420, Note_on_c, 0, 49, 63
2, 6431, Note_on_c, 0, 36, 0
2, 6438, Note_on_c, 0, 82, 0
2, 6440, Note_on_c, 0, 78, 41
2, 6458, Note_on_c, 0, 78, 0
2, 6460, Note_on_c, 0, 82, 50
2, 6475, Note_on_c, 0, 37, 0
2, 6478, Note_on_c, 0, 82, 0
2, 6479, Note_on_c, 0, 49, 0
2, 6479, Note_on_c, 0, 38, 59
2, 6479, Note_on_c, 0, 50, 67
2, 6480, Note_on_c, 0, 70, 47
2, 6488, Control_c, 0, 64, 127
2, 6492, Note_on_c, 0, 50, 0
2, 6493, Note_on_c, 0, 38, 0
2, 6498, Note_on_c, 0, 70, 0
2, 6500, Note_on_c, 0, 82, 46
2, 6518, Note_on_c, 0, 82, 0
2, 6520, Note_on_c, 0, 78, 40
2, 6538, Note_on_c, 0, 78, 0
2, 6539, Note_on_c, 0, 66, 52
2, 6539, Note_on_c, 0, 58, 52
2, 6540, Note_on_c, 0, 82, 49
2, 6546, Note_on_c, 0, 58, 0
2, 6546, Note_on_c, 0, 66, 0
2, 6558, Note_on_c, 0, 82, 0
2, 6560, Note_on_c, 0, 78, 36
2, 6578, Note_on_c, 0, 78, 0
2, 6580, Note_on_c, 0, 82, 53
2, 6591, Control_c, 0, 64, 0
2, 6598, Note_on_c, 0, 82, 0
2, 6599, Note_on_c, 0, 37, 61
2, 6599, Note_on_c, 0, 49, 69
2, 6600, Note_on_c, 0, 90, 55
2, 6618, Note_on_c, 0, 90, 0
2, 6620, Note_on_c, 0, 82, 44
2, 6638, Note_on_c, 0, 82, 0
2, 6640, Note_on_c, 0, 78, 42
2, 6655, Note_on_c, 0, 37, 0
2, 6658, Note_on_c, 0, 78, 0
2, 6659, Note_on_c, 0, 38, 63
2, 6659, Note_on_c, 0, 50, 55
2, 6660, Note_on_c, 0, 49, 0
2, 6660, Note_on_c, 0, 82, 51
2, 6678, Note_on_c, 0, 82, 0
2, 6680, Note_on_c, 0, 78, 43
2, 6695, Note_on_c, 0, 50, 0
2, 6698, Note_on_c, 0, 78, 0
2, 6700, Note_on_c, 0, 82, 49
2, 6718, Note_on_c, 0, 82, 0
2, 6719, Note_on_c, 0, 39, 59
2, 6719, Note_on_c, 0, 51, 62
2, 6720, Note_on_c, 0, 78, 36
2, 6728, Note_on_c, 0, 38, 0
2, 6728, Control_c, 0, 64, 127
2, 6735, Note_on_c, 0, 51, 0
2, 6736, Note_on_c, 0, 39, 0
2, 6738, Note_on_c, 0, 78, 0
2, 6740, Note_on_c, 0, 82, 42
2, 6758, Note_on_c, 0, 82, 0
2, 6760, Note_on_c, 0, 78, 39
2, 6778, Note_on_c, 0, 78, 0
2, 6779, Note_on_c, 0, 58, 56
2, 6779, Note_on_c, 0, 66, 56
2, 6780, Note_on_c, 0, 94, 63
2, 6798, Note_on_c, 0, 94, 0
2, 6800, Note_on_c, 0, 82, 40
2, 6818, Note_on_c, 0, 82, 0
2, 6820, Note_on_c, 0, 78, 41
2, 6838, Note_on_c, 0, 78, 0
2, 6840, Note_on_c, 0, 92, 65
2, 6848, Note_on_c, 0, 66, 0
2, 6850, Note_on_c, 0, 58, 0
2, 6858, Note_on_c, 0, 92, 0
2, 6860, Note_on_c, 0, 82, 46
2, 6878, Note_on_c, 0, 82, 0
2, 6880, Note_on_c, 0, 78, 36
2, 6898, Note_on_c, 0, 78, 0
2, 6899, Note_on_c, 0, 39, 59
2, 6899, Note_on_c, 0, 51, 63
2, 6900, Note_on_c, 0, 90, 63
2, 6918, Note_on_c, 0, 90, 0
2, 6920, Note_on_c, 0, 82, 43
2, 6938, Note_on_c, 0, 82, 0
2, 6940, Note_on_c, 0, 78, 47
2, 6948, Control_c, 0, 64, 0
2, 6958, Note_on_c, 0, 78, 0
2, 6960, Note_on_c, 0, 85, 64
2, 6960, Note_on_c, 0, 52, 63
2, 6961, Note_on_c, 0, 51, 0
2, 6961, Note_on_c, 0, 39, 0
2, 6961, Note_on_c, 0, 40, 61
2, 6976, Control_c, 0, 64, 127
2, 6978, Note_on_c, 0, 85, 0
2, 6980, Note_on_c, 0, 40, 0
2, 6980, Note_on_c, 0, 82, 49
2, 6983, Note_on_c, 0, 52, 0
2, 6998, Note_on_c, 0, 82, 0
2, 7000, Note_on_c, 0, 78, 40
2, 7018, Note_on_c, 0, 78, 0
2, 7020, Note_on_c, 0, 94, 62
2, 7021, Note_on_c, 0, 66, 55
2, 7021, Note_on_c, 0, 58, 55
2, 7038, Note_on_c, 0, 94, 0
2, 7040, Note_on_c, 0, 82, 50
2, 7058, Note_on_c, 0, 82, 0
2, 7060, Note_on_c, 0, 78, 43
2, 7077, Note_on_c, 0, 66, 0
2, 7078, Note_on_c, 0, 78, 0
2, 7078, Note_on_c, 0, 58, 0
2, 7080, Note_on_c, 0, 92, 70
2, 7098, Note_on_c, 0, 92, 0
2, 7100, Note_on_c, 0, 82, 51
2, 7118, Note_on_c, 0, 82, 0
2, 7120, Note_on_c, 0, 78, 38
2, 7138, Note_on_c, 0, 78, 0
2, 7139, Note_on_c, 0, 40, 69
2, 7139, Note_on_c, 0, 52, 69
2, 7140, Note_on_c, 0, 90, 65
2, 7158, Note_on_c, 0, 90, 0
2, 7160, Note_on_c, 0, 82, 48
2, 7178, Note_on_c, 0, 82, 0
2, 7180, Note_on_c, 0, 78, 40
2, 7185, Control_c, 0, 64, 0
2, 7190, Note_on_c, 0, 52, 0
2, 7194, Note_on_c, 0, 40, 0
2, 7198, Note_on_c, 0, 78, 0
2, 7199, Note_on_c, 0, 41, 74
2, 7199, Control_c, 0, 64, 127
2, 7200, Note_on_c, 0, 73, 44
2, 7200, Note_on_c, 0, 53, 74
2, 7211, Note_on_c, 0, 41, 0
2, 7214, Note_on_c, 0, 53, 0
2, 7218, Note_on_c, 0, 73, 0
2, 7220, Note_on_c, 0, 85, 66
2, 7238, Note_on_c, 0, 85, 0
2, 7240, Note_on_c, 0, 82, 53
2, 7258, Note_on_c, 0, 82, 0
2, 7259, Note_on_c, 0, 58, 58
2, 7259, Note_on_c, 0, 65, 58
2, 7259, Note_on_c, 0, 61, 58
2, 7260, Note_on_c, 0, 85, 59
2, 7276, Note_on_c, 0, 85, 0
2, 7280, Note_on_c, 0, 61, 0
2, 7280, Note_on_c, 0, 58, 0
2, 7280, Note_on_c, 0, 85, 44
2, 7281, Note_on_c, 0, 65, 0
2, 7298, Note_on_c, 0, 85, 0
2, 7300, Note_on_c, 0, 97, 53
2, 7318, Note_on_c, 0, 97, 0
2, 7319, Note_on_c, 0, 40, 67
2, 7320, Note_on_c, 0, 94, 58
2, 7320, Note_on_c, 0, 52, 73
2, 7320, Control_c, 0, 64, 0
2, 7338, Note_on_c, 0, 94, 0
2, 7340, Note_on_c, 0, 97, 54
2, 7358, Note_on_c, 0, 97, 0
2, 7360, Note_on_c, 0, 85, 44
2, 7365, Note_on_c, 0, 52, 0
2, 7376, Note_on_c, 0, 85, 0
2, 7379, Note_on_c, 0, 41, 62
2, 7380, Note_on_c, 0, 85, 52
2, 7381, Note_on_c, 0, 53, 72
2, 7386, Note_on_c, 0, 40, 0
2, 7398, Note_on_c, 0, 85, 0
2, 7400, Note_on_c, 0, 82, 59
2, 7418, Note_on_c, 0, 82, 0
2, 7420, Note_on_c, 0, 85, 50
2, 7421, Note_on_c, 0, 53, 0
2, 7438, Note_on_c, 0, 85, 0
2, 7439, Note_on_c, 0, 42, 62
2, 7440, Note_on_c, 0, 73, 56
2, 7441, Note_on_c, 0, 54, 74
2, 7442, Control_c, 0, 64, 127
2, 7450, Note_on_c, 0, 41, 0
2, 7451, Note_on_c, 0, 54, 0
2, 7452, Note_on_c, 0, 42, 0
2, 7458, Note_on_c, 0, 73, 0
2, 7460, Note_on_c, 0, 85, 49
2, 7478, Note_on_c, 0, 85, 0
2, 7480, Note_on_c, 0, 82, 52
2, 7498, Note_on_c, 0, 82, 0
2, 7500, Note_on_c, 0, 85, 51
2, 7501, Note_on_c, 0, 64, 61
2, 7501, Note_on_c, 0, 61, 61
2, 7501, Note_on_c, 0, 58, 61
2, 7507, Note_on_c, 0, 58, 0
2, 7507, Note_on_c, 0, 61, 0
2, 7508, Note_on_c, 0, 64, 0
2, 7517, Note_on_c, 0, 85, 0
2, 7520, Note_on_c, 0, 85, 53
2, 7538, Note_on_c, 0, 85, 0
2, 7540, Note_on_c, 0, 97, 61
2, 7558, Note_on_c, 0, 97, 0
2, 7560, Note_on_c, 0, 94, 56
2, 7561, Note_on_c, 0, 53, 76
2, 7561, Note_on_c, 0, 41, 79
2, 7566, Control_c, 0, 64, 0
2, 7578, Note_on_c, 0, 94, 0
2, 7580, Note_on_c, 0, 97, 59
2, 7598, Note_on_c, 0, 97, 0
2, 7600, Note_on_c, 0, 85, 53
2, 7604, Note_on_c, 0, 53, 0
2, 7615, Note_on_c, 0, 85, 0
2, 7619, Note_on_c, 0, 54, 76
2, 7619, Note_on_c, 0, 42, 70
2, 7620, Note_on_c, 0, 85, 52
2, 7626, Note_on_c, 0, 41, 0
2, 7638, Note_on_c, 0, 85, 0
2, 7640, Note_on_c, 0, 82, 56
2, 7658, Note_on_c, 0, 82, 0
2, 7660, Note_on_c, 0, 85, 46
2, 7675, Note_on_c, 0, 42, 0
2, 7678, Note_on_c, 0, 85, 0
2, 7679, Note_on_c, 0, 43, 68
2, 7679, Note_on_c, 0, 55, 78
2, 7680, Note_on_c, 0, 73, 52
2, 7681, Note_on_c, 0, 54, 0
2, 7686, Control_c, 0, 64, 127
2, 7689, Note_on_c, 0, 43, 0
2, 7689, Note_on_c, 0, 55, 0
2, 7698, Note_on_c, 0, 73, 0
2, 7700, Note_on_c, 0, 85, 62
2, 7718, Note_on_c, 0, 85, 0
2, 7720, Note_on_c, 0, 82, 63
2, 7738, Note_on_c, 0, 82, 0
2, 7740, Note_on_c, 0, 85, 64
2, 7740, Note_on_c, 0, 64, 65
2, 7740, Note_on_c, 0, 61, 65
2, 7741, Note_on_c, 0, 55, 65
2, 7747, Note_on_c, 0, 55, 0
2, 7747, Note_on_c, 0, 61, 0
2, 7747, Note_on_c, 0, 64, 0
2, 7757, Note_on_c, 0, 85, 0
2, 7760, Note_on_c, 0, 85, 53
2, 7778, Note_on_c, 0, 85, 0
2, 7780, Note_on_c, 0, 97, 62
2, 7790, Control_c, 0, 64, 0
2, 7798, Note_on_c, 0, 97, 0
2, 7799, Note_on_c, 0, 56, 82
2, 7799, Note_on_c, 0, 44, 82
2, 7800, Note_on_c, 0, 92, 62
2, 7804, Control_c, 0, 64, 127
2, 7805, Note_on_c, 0, 44, 0
2, 7806, Note_on_c, 0, 56, 0
2, 7818, Note_on_c, 0, 92, 0
2, 7820, Note_on_c, 0, 97, 64
2, 7838, Note_on_c, 0, 97, 0
2, 7840, Note_on_c, 0, 85, 51
2, 7856, Note_on_c, 0, 85, 0
2, 7859, Note_on_c, 0, 64, 63
2, 7859, Note_on_c, 0, 56, 63
2, 7859, Note_on_c, 0, 61, 63
2, 7860, Note_on_c, 0, 85, 62
2, 7864, Note_on_c, 0, 61, 0
2, 7865, Note_on_c, 0, 56, 0
2, 7866, Note_on_c, 0, 64, 0
2, 7878, Note_on_c, 0, 85, 0
2, 7880, Note_on_c, 0, 80, 66
2, 7898, Note_on_c, 0, 80, 0
2, 7900, Note_on_c, 0, 85, 63
2, 7907, Control_c, 0, 64, 0
2, 7918, Note_on_c, 0, 85, 0
2, 7918, Note_on_c, 0, 45, 81
2, 7918, Note_on_c, 0, 57, 71
2, 7920, Note_on_c, 0, 73, 54
2, 7924, Control_c, 0, 64, 127
2, 7925, Note_on_c, 0, 45, 0
2, 7926, Note_on_c, 0, 57, 0
2, 7938, Note_on_c, 0, 73, 0
2, 7940, Note_on_c, 0, 85, 60
2, 7958, Note_on_c, 0, 85, 0
2, 7960, Note_on_c, 0, 78, 56
2, 7978, Note_on_c, 0, 78, 0
2, 7978, Note_on_c, 0, 57, 65
2, 7979, Note_on_c, 0, 66, 65
2, 7979, Note_on_c, 0, 63, 65
2, 7980, Note_on_c, 0, 85, 64
2, 7985, Note_on_c, 0, 66, 0
2, 7986, Note_on_c, 0, 57, 0
2, 7986, Note_on_c, 0, 63, 0
2, 7998, Note_on_c, 0, 85, 0
2, 8000, Note_on_c, 0, 73, 57
2, 8018, Note_on_c, 0, 73, 0
2, 8020, Note_on_c, 0, 73, 64
2, 8038, Note_on_c, 0, 73, 0
2, 8040, Note_on_c, 0, 66, 65
2, 8058, Note_on_c, 0, 66, 0
2, 8060, Note_on_c, 0, 73, 67
2, 8078, Note_on_c, 0, 73, 0
2, 8080, Note_on_c, 0, 61, 56
2, 8097, Note_on_c, 0, 61, 0
2, 8099, Note_on_c, 0, 45, 80
2, 8099, Note_on_c, 0, 33, 80
2, 8100, Note_on_c, 0, 61, 68
2, 8108, Control_c, 0, 64, 0
2, 8118, Note_on_c, 0, 61, 0
2, 8120, Note_on_c, 0, 54, 72
2, 8138, Note_on_c, 0, 54, 0
2, 8140, Note_on_c, 0, 61, 66
2, 8151, Note_on_c, 0, 45, 0
2, 8157, Note_on_c, 0, 33, 0
2, 8158, Note_on_c, 0, 61, 0
2, 8159, Note_on_c, 0, 32, 74
2, 8159, Note_on_c, 0, 44, 85
2, 8160, Note_on_c, 0, 51, 64
2, 8164, Control_c, 0, 64, 127
2, 8178, Note_on_c, 0, 51, 0
2, 8180, Note_on_c, 0, 54, 66
2, 8198, Note_on_c, 0, 54, 0
2, 8200, Note_on_c, 0, 61, 65
2, 8218, Note_on_c, 0, 61, 0
2, 8220, Note_on_c, 0, 63, 66
2, 8238, Note_on_c, 0, 63, 0
2, 8240, Note_on_c, 0, 54, 64
2, 8258, Note_on_c, 0, 54, 0
2, 8260, Note_on_c, 0, 61, 70
2, 8278, Note_on_c, 0, 61, 0
2, 8280, Note_on_c, 0, 63, 68
2, 8298, Note_on_c, 0, 63, 0
2, 8300, Note_on_c, 0, 66, 70
2, 8318, Note_on_c, 0, 66, 0
2, 8320, Note_on_c, 0, 61, 57
2, 8338, Note_on_c, 0, 61, 0
2, 8340, Note_on_c, 0, 63, 59
2, 8358, Note_on_c, 0, 63, 0
2, 8360, Note_on_c, 0, 66, 68
2, 8378, Note_on_c, 0, 66, 0
2, 8380, Note_on_c, 0, 73, 73
2, 8386, Note_on_c, 0, 44, 0
2, 8388, Note_on_c, 0, 32, 0
2, 8398, Note_on_c, 0, 73, 0
2, 8400, Note_on_c, 0, 63, 57
2, 8418, Note_on_c, 0, 63, 0
2, 8420, Note_on_c, 0, 66, 66
2, 8438, Note_on_c, 0, 66, 0
2, 8440, Note_on_c, 0, 73, 64
2, 8458, Note_on_c, 0, 73, 0
2, 8460, Note_on_c, 0, 75, 68
2, 8478, Note_on_c, 0, 75, 0
2, 8480, Note_on_c, 0, 66, 62
2, 8498, Note_on_c, 0, 66, 0
2, 8500, Note_on_c, 0, 73, 70
2, 8518, Note_on_c, 0, 73, 0
2, 8520, Note_on_c, 0, 75, 60
2, 8521, Note_on_c, 0, 56, 63
2, 8521, Note_on_c, 0, 61, 64
2, 8521, Note_on_c, 0, 66, 61
2, 8538, Note_on_c, 0, 75, 0
2, 8540, Note_on_c, 0, 78, 69
2, 8558, Note_on_c, 0, 78, 0
2, 8560, Note_on_c, 0, 73, 54
2, 8578, Note_on_c, 0, 73, 0
2, 8580, Note_on_c, 0, 75, 62
2, 8594, Note_on_c, 0, 56, 0
2, 8595, Note_on_c, 0, 66, 0
2, 8596, Note_on_c, 0, 61, 0
2, 8598, Note_on_c, 0, 75, 0
2, 8600, Note_on_c, 0, 85, 62
2, 8609, Note_on_c, 0, 61, 65
2, 8609, Note_on_c, 0, 56, 61
2, 8610, Note_on_c, 0, 66, 61
2, 8618, Note_on_c, 0, 85, 0
2, 8620, Note_on_c, 0, 78, 63
2, 8626, Note_on_c, 0, 66, 0
2, 8626, Note_on_c, 0, 56, 0
2, 8627, Note_on_c, 0, 61, 0
2, 8638, Note_on_c, 0, 78, 0
2, 8640, Note_on_c, 0, 75, 53
2, 8641, Note_on_c, 0, 56, 64
2, 8641, Note_on_c, 0, 61, 68
2, 8641, Note_on_c, 0, 66, 69
2, 8658, Note_on_c, 0, 75, 0
2, 8660, Note_on_c, 0, 78, 62
2, 8678, Note_on_c, 0, 78, 0
2, 8680, Note_on_c, 0, 87, 69
2, 8698, Note_on_c, 0, 87, 0
2, 8700, Note_on_c, 0, 85, 65
2, 8718, Note_on_c, 0, 85, 0
2, 8720, Note_on_c, 0, 78, 60
2, 8738, Note_on_c, 0, 78, 0
2, 8740, Note_on_c, 0, 75, 45
2, 8758, Note_on_c, 0, 75, 0
2, 8760, Note_on_c, 0, 85, 61
2, 8778, Note_on_c, 0, 85, 0
2, 8780, Note_on_c, 0, 78, 55
2, 8798, Note_on_c, 0, 78, 0
2, 8800, Note_on_c, 0, 75, 64
2, 8818, Note_on_c, 0, 75, 0
2, 8820, Note_on_c, 0, 73, 45
2, 8838, Note_on_c, 0, 73, 0
2, 8840, Note_on_c, 0, 78, 59
2, 8858, Note_on_c, 0, 78, 0
2, 8860, Note_on_c, 0, 75, 51
2, 8867, Note_on_c, 0, 66, 0
2, 8867, Note_on_c, 0, 61, 0
2, 8870, Note_on_c, 0, 56, 0
2, 8878, Note_on_c, 0, 75, 0
2, 8880, Note_on_c, 0, 73, 54
2, 8898, Note_on_c, 0, 73, 0
2, 8900, Note_on_c, 0, 66, 47
2, 8918, Note_on_c, 0, 66, 0
2, 8920, Note_on_c, 0, 75, 57
2, 8938, Note_on_c, 0, 75, 0
2, 8940, Note_on_c, 0, 73, 52
2, 8958, Note_on_c, 0, 73, 0
2, 8960, Note_on_c, 0, 66, 40
2, 8978, Note_on_c, 0, 66, 0
2, 8980, Note_on_c, 0, 63, 45
2, 8998, Note_on_c, 0, 63, 0
2, 9000, Note_on_c, 0, 73, 54
2, 9018, Note_on_c, 0, 73, 0
2, 9020, Note_on_c, 0, 66, 52
2, 9038, Note_on_c, 0, 66, 0
2, 9040, Note_on_c, 0, 63, 46
2, 9058, Note_on_c, 0, 63, 0
2, 9060, Note_on_c, 0, 61, 43
2, 9078, Note_on_c, 0, 61, 0
2, 9080, Note_on_c, 0, 66, 50
2, 9098, Note_on_c, 0, 66, 0
2, 9100, Note_on_c, 0, 63, 42
2, 9108, Control_c, 0, 64, 0
2, 9118, Note_on_c, 0, 63, 0
2, 9119, Note_on_c, 0, 32, 59
2, 9119, Note_on_c, 0, 44, 80
2, 9120, Note_on_c, 0, 56, 46
2, 9120, Control_c, 0, 64, 127
2, 9138, Note_on_c, 0, 56, 0
2, 9140, Note_on_c, 0, 63, 45
2, 9158, Note_on_c, 0, 63, 0
2, 9160, Note_on_c, 0, 66, 53
2, 9178, Note_on_c, 0, 66, 0
2, 9180, Note_on_c, 0, 68, 53
2, 9198, Note_on_c, 0, 68, 0
2, 9200, Note_on_c, 0, 63, 46
2, 9218, Note_on_c, 0, 63, 0
2, 9220, Note_on_c, 0, 66, 56
2, 9238, Note_on_c, 0, 66, 0
2, 9240, Note_on_c, 0, 68, 60
2, 9258, Note_on_c, 0, 68, 0
2, 9260, Note_on_c, 0, 75, 61
2, 9278, Note_on_c, 0, 75, 0
2, 9280, Note_on_c, 0, 66, 46
2, 9298, Note_on_c, 0, 66, 0
2, 9300, Note_on_c, 0, 68, 59
2, 9318, Note_on_c, 0, 68, 0
2, 9320, Note_on_c, 0, 75, 60
2, 9338, Note_on_c, 0, 75, 0
2, 9340, Note_on_c, 0, 78, 65
2, 9343, Note_on_c, 0, 44, 0
2, 9345, Note_on_c, 0, 32, 0
2, 9358, Note_on_c, 0, 78, 0
2, 9360, Note_on_c, 0, 68, 54
2, 9378, Note_on_c, 0, 68, 0
2, 9380, Note_on_c, 0, 75, 60
2, 9398, Note_on_c, 0, 75, 0
2, 9400, Note_on_c, 0, 78, 62
2, 9418, Note_on_c, 0, 78, 0
2, 9420, Note_on_c, 0, 80, 63
2, 9438, Note_on_c, 0, 80, 0
2, 9440, Note_on_c, 0, 75, 55
2, 9458, Note_on_c, 0, 75, 0
2, 9460, Note_on_c, 0, 78, 67
2, 9478, Note_on_c, 0, 78, 0
2, 9480, Note_on_c, 0, 80, 72
2, 9481, Note_on_c, 0, 56, 55
2, 9481, Note_on_c, 0, 66, 64
2, 9481, Note_on_c, 0, 68, 56
2, 9481, Note_on_c, 0, 60, 63
2, 9498, Note_on_c, 0, 80, 0
2, 9500, Note_on_c, 0, 87, 62
2, 9518, Note_on_c, 0, 87, 0
2, 9520, Note_on_c, 0, 78, 54
2, 9538, Note_on_c, 0, 78, 0
2, 9540, Note_on_c, 0, 80, 73
2, 9549, Note_on_c, 0, 60, 0
2, 9551, Note_on_c, 0, 68, 0
2, 9552, Note_on_c, 0, 66, 0
2, 9554, Note_on_c, 0, 56, 0
2, 9558, Note_on_c, 0, 80, 0
2, 9560, Note_on_c, 0, 90, 70
2, 9569, Note_on_c, 0, 66, 63
2, 9569, Note_on_c, 0, 68, 52
2, 9569, Note_on_c, 0, 56, 47
2, 9569, Note_on_c, 0, 60, 62
2, 9578, Note_on_c, 0, 90, 0
2, 9580, Note_on_c, 0, 87, 64
2, 9582, Note_on_c, 0, 60, 0
2, 9584, Note_on_c, 0, 56, 0
2, 9586, Note_on_c, 0, 66, 0
2, 9587, Note_on_c, 0, 68, 0
2, 9598, Note_on_c, 0, 87, 0
2, 9600, Note_on_c, 0, 80, 55
2, 9601, Note_on_c, 0, 66, 64
2, 9601, Note_on_c, 0, 60, 64
2, 9601, Note_on_c, 0, 56, 53
2, 9601, Note_on_c, 0, 68, 65
2, 9618, Note_on_c, 0, 80, 0
2, 9620, Note_on_c, 0, 78, 48
2, 9638, Note_on_c, 0, 78, 0
2, 9640, Note_on_c, 0, 87, 63
2, 9658, Note_on_c, 0, 87, 0
2, 9660, Note_on_c, 0, 80, 66
2, 9678, Note_on_c, 0, 80, 0
2, 9680, Note_on_c, 0, 78, 63
2, 9698, Note_on_c, 0, 78, 0
2, 9700, Note_on_c, 0, 75, 54
2, 9718, Note_on_c, 0, 75, 0
2, 9720, Note_on_c, 0, 80, 59
2, 9738, Note_on_c, 0, 80, 0
2, 9740, Note_on_c, 0, 78, 64
2, 9758, Note_on_c, 0, 78, 0
2, 9758, Note_on_c, 0, 66, 0
2, 9759, Note_on_c, 0, 68, 0
2, 9760, Note_on_c, 0, 75, 52
2, 9779, Note_on_c, 0, 75, 0
2, 9780, Note_on_c, 0, 68, 55
2, 9794, Note_on_c, 0, 60, 0
2, 9799, Note_on_c, 0, 68, 0
2, 9800, Note_on_c, 0, 56, 0
2, 9800, Note_on_c, 0, 78, 48
2, 9819, Note_on_c, 0, 78, 0
2, 9820, Note_on_c, 0, 75, 58
2, 9839, Note_on_c, 0, 75, 0
2, 9840, Note_on_c, 0, 68, 57
2, 9858, Note_on_c, 0, 68, 0
2, 9860, Note_on_c, 0, 66, 48
2, 9878, Note_on_c, 0, 66, 0
2, 9880, Note_on_c, 0, 75, 51
2, 9898, Note_on_c, 0, 75, 0
2, 9900, Note_on_c, 0, 68, 55
2, 9918, Note_on_c, 0, 68, 0
2, 9920, Note_on_c, 0, 66, 42
2, 9938, Note_on_c, 0, 66, 0
2, 9940, Note_on_c, 0, 63, 39
2, 9958, Note_on_c, 0, 63, 0
2, 9960, Note_on_c, 0, 68, 44
2, 9978, Note_on_c, 0, 68, 0
2, 9980, Note_on_c, 0, 66, 54
2, 9998, Note_on_c, 0, 66, 0
2, 10000, Note_on_c, 0, 63, 54
2, 10018, Note_on_c, 0, 63, 0
2, 10020, Note_on_c, 0, 56, 53
2, 10038, Note_on_c, 0, 56, 0
2, 10040, Note_on_c, 0, 66, 42
2, 10058, Note_on_c, 0, 66, 0
2, 10060, Note_on_c, 0, 63, 44
2, 10065, Control_c, 0, 64, 0
2, 10078, Note_on_c, 0, 63, 0
2, 10079, Control_c, 0, 64, 127
2, 10080, Note_on_c, 0, 61, 46
2, 10080, Note_on_c, 0, 37, 62
2, 10098, Note_on_c, 0, 61, 0
2, 10100, Note_on_c, 0, 37, 0
2, 10100, Note_on_c, 0, 73, 53
2, 10118, Note_on_c, 0, 73, 0
2, 10120, Note_on_c, 0, 68, 50
2, 10138, Note_on_c, 0, 68, 0
2, 10140, Note_on_c, 0, 73, 50
2, 10158, Note_on_c, 0, 73, 0
2, 10160, Note_on_c, 0, 68, 46
2, 10178, Note_on_c, 0, 68, 0
2, 10180, Note_on_c, 0, 80, 54
2, 10198, Note_on_c, 0, 80, 0
2, 10199, Note_on_c, 0, 56, 54
2, 10199, Note_on_c, 0, 65, 58
2, 10200, Note_on_c, 0, 73, 47
2, 10218, Note_on_c, 0, 73, 0
2, 10220, Note_on_c, 0, 80, 43
2, 10238, Note_on_c, 0, 80, 0
2, 10240, Note_on_c, 0, 68, 46
2, 10258, Note_on_c, 0, 68, 0
2, 10260, Note_on_c, 0, 73, 48
2, 10278, Note_on_c, 0, 73, 0
2, 10280, Note_on_c, 0, 68, 44
2, 10298, Note_on_c, 0, 68, 0
2, 10300, Note_on_c, 0, 73, 42
2, 10318, Note_on_c, 0, 73, 0
2, 10320, Note_on_c, 0, 61, 48
2, 10338, Note_on_c, 0, 61, 0
2, 10340, Note_on_c, 0, 73, 46
2, 10358, Note_on_c, 0, 73, 0
2, 10360, Note_on_c, 0, 68, 45
2, 10378, Note_on_c, 0, 68, 0
2, 10380, Note_on_c, 0, 73, 44
2, 10398, Note_on_c, 0, 73, 0
2, 10400, Note_on_c, 0, 68, 37
2, 10418, Note_on_c, 0, 68, 0
2, 10420, Note_on_c, 0, 80, 45
2, 10427, Note_on_c, 0, 56, 0
2, 10430, Note_on_c, 0, 65, 0
2, 10436, Control_c, 0, 64, 0
2, 10438, Note_on_c, 0, 80, 0
2, 10439, Note_on_c, 0, 55, 50
2, 10439, Note_on_c, 0, 64, 59
2, 10440, Note_on_c, 0, 73, 36
2, 10458, Note_on_c, 0, 73, 0
2, 10460, Note_on_c, 0, 80, 38
2, 10478, Note_on_c, 0, 80, 0
2, 10480, Note_on_c, 0, 68, 43
2, 10498, Note_on_c, 0, 68, 0
2, 10500, Note_on_c, 0, 73, 52
2, 10518, Note_on_c, 0, 73, 0
2, 10520, Note_on_c, 0, 55, 0
2, 10520, Note_on_c, 0, 68, 49
2, 10520, Control_c, 0, 64, 127
2, 10529, Note_on_c, 0, 56, 51
2, 10529, Note_on_c, 0, 65, 51
2, 10531, Note_on_c, 0, 64, 0
2, 10538, Note_on_c, 0, 68, 0
2, 10540, Note_on_c, 0, 73, 49
2, 10545, Note_on_c, 0, 65, 0
2, 10553, Note_on_c, 0, 56, 0
2, 10558, Note_on_c, 0, 73, 0
2, 10559, Note_on_c, 0, 49, 55
2, 10560, Note_on_c, 0, 61, 55
2, 10580, Note_on_c, 0, 73, 42
2, 10593, Note_on_c, 0, 49, 0
2, 10594, Note_on_c, 0, 61, 0
2, 10598, Note_on_c, 0, 73, 0
2, 10600, Note_on_c, 0, 68, 46
2, 10618, Note_on_c, 0, 68, 0
2, 10620, Note_on_c, 0, 73, 50
2, 10637, Note_on_c, 0, 73, 0
2, 10640, Note_on_c, 0, 73, 38
2, 10658, Note_on_c, 0, 73, 0
2, 10660, Note_on_c, 0, 85, 50
2, 10678, Note_on_c, 0, 85, 0
2, 10680, Note_on_c, 0, 80, 50
2, 10680, Note_on_c, 0, 56, 55
2, 10680, Note_on_c, 0, 65, 58
2, 10698, Note_on_c, 0, 80, 0
2, 10700, Note_on_c, 0, 85, 37
2, 10718, Note_on_c, 0, 85, 0
2, 10720, Note_on_c, 0, 73, 41
2, 10736, Note_on_c, 0, 73, 0
2, 10740, Note_on_c, 0, 73, 46
2, 10758, Note_on_c, 0, 73, 0
2, 10760, Note_on_c, 0, 68, 48
2, 10778, Note_on_c, 0, 68, 0
2, 10780, Note_on_c, 0, 73, 48
2, 10798, Note_on_c, 0, 73, 0
2, 10800, Note_on_c, 0, 68, 41
2, 10818, Note_on_c, 0, 68, 0
2, 10820, Note_on_c, 0, 80, 43
2, 10838, Note_on_c, 0, 80, 0
2, 10840, Note_on_c, 0, 73, 43
2, 10858, Note_on_c, 0, 73, 0
2, 10860, Note_on_c, 0, 80, 50
2, 10877, Note_on_c, 0, 80, 0
2, 10880, Note_on_c, 0, 80, 50
2, 10898, Note_on_c, 0, 80, 0
2, 10900, Note_on_c, 0, 92, 49
2, 10902, Note_on_c, 0, 56, 0
2, 10905, Note_on_c, 0, 65, 0
2, 10913, Control_c, 0, 64, 0
2, 10918, Note_on_c, 0, 92, 0
2, 10920, Note_on_c, 0, 85, 52
2, 10921, Note_on_c, 0, 64, 58
2, 10921, Note_on_c, 0, 55, 51
2, 10938, Note_on_c, 0, 85, 0
2, 10940, Note_on_c, 0, 92, 54
2, 10958, Note_on_c, 0, 92, 0
2, 10960, Note_on_c, 0, 80, 45
2, 10976, Note_on_c, 0, 80, 0
2, 10980, Note_on_c, 0, 80, 56
2, 10998, Note_on_c, 0, 80, 0
2, 11000, Note_on_c, 0, 73, 52
2, 11003, Control_c, 0, 64, 127
2, 11005, Note_on_c, 0, 55, 0
2, 11009, Note_on_c, 0, 56, 63
2, 11009, Note_on_c, 0, 65, 63
2, 11010, Note_on_c, 0, 64, 0
2, 11018, Note_on_c, 0, 73, 0
2, 11020, Note_on_c, 0, 80, 54
2, 11021, Note_on_c, 0, 65, 0
2, 11029, Note_on_c, 0, 56, 0
2, 11038, Note_on_c, 0, 80, 0
2, 11040, Note_on_c, 0, 73, 43
2, 11040, Note_on_c, 0, 49, 55
2, 11047, Note_on_c, 0, 49, 0
2, 11058, Note_on_c, 0, 73, 0
2, 11060, Note_on_c, 0, 75, 42
2, 11078, Note_on_c, 0, 75, 0
2, 11080, Note_on_c, 0, 73, 50
2, 11098, Note_on_c, 0, 73, 0
2, 11100, Note_on_c, 0, 87, 54
2, 11100, Note_on_c, 0, 56, 51
2, 11101, Note_on_c, 0, 65, 52
2, 11101, Note_on_c, 0, 61, 58
2, 11118, Note_on_c, 0, 87, 0
2, 11120, Note_on_c, 0, 85, 45
2, 11138, Note_on_c, 0, 85, 0
2, 11140, Note_on_c, 0, 99, 62
2, 11142, Note_on_c, 0, 56, 0
2, 11142, Note_on_c, 0, 65, 0
2, 11143, Note_on_c, 0, 61, 0
2, 11158, Note_on_c, 0, 99, 0
2, 11159, Note_on_c, 0, 61, 60
2, 11159, Note_on_c, 0, 57, 50
2, 11159, Note_on_c, 0, 66, 47
2, 11160, Note_on_c, 0, 97, 52
2, 11178, Note_on_c, 0, 97, 0
2, 11180, Note_on_c, 0, 99, 54
2, 11198, Note_on_c, 0, 99, 0
2, 11200, Note_on_c, 0, 97, 47
2, 11205, Note_on_c, 0, 66, 0
2, 11207, Note_on_c, 0, 57, 0
2, 11211, Note_on_c, 0, 61, 0
2, 11218, Note_on_c, 0, 97, 0
2, 11219, Note_on_c, 0, 61, 57
2, 11219, Note_on_c, 0, 58, 54
2, 11219, Note_on_c, 0, 67, 66
2, 11220, Note_on_c, 0, 85, 50
2, 11238, Note_on_c, 0, 85, 0
2, 11239, Control_c, 0, 64, 0
2, 11240, Note_on_c, 0, 87, 54
2, 11258, Note_on_c, 0, 87, 0
2, 11259, Note_on_c, 0, 67, 0
2, 11260, Note_on_c, 0, 85, 49
2, 11264, Note_on_c, 0, 58, 0
2, 11268, Note_on_c, 0, 61, 0
2, 11278, Note_on_c, 0, 85, 0
2, 11279, Note_on_c, 0, 61, 68
2, 11279, Note_on_c, 0, 68, 73
2, 11279, Note_on_c, 0, 59, 67
2, 11280, Note_on_c, 0, 73, 49
2, 11281, Control_c, 0, 64, 127
2, 11298, Note_on_c, 0, 73, 0
2, 11300, Note_on_c, 0, 75, 47
2, 11318, Note_on_c, 0, 75, 0
2, 11320, Note_on_c, 0, 73, 49
2, 11338, Note_on_c, 0, 73, 0
2, 11340, Note_on_c, 0, 87, 60
2, 11358, Note_on_c, 0, 87, 0
2, 11360, Note_on_c, 0, 85, 50
2, 11378, Note_on_c, 0, 85, 0
2, 11380, Note_on_c, 0, 99, 58
2, 11397, Note_on_c, 0, 59, 0
2, 11397, Note_on_c, 0, 68, 0
2, 11398, Note_on_c, 0, 99, 0
2, 11399, Note_on_c, 0, 58, 55
2, 11399, Note_on_c, 0, 67, 58
2, 11400, Note_on_c, 0, 61, 0
2, 11400, Note_on_c, 0, 97, 50
2, 11400, Note_on_c, 0, 61, 59
2, 11418, Note_on_c, 0, 97, 0
2, 11420, Note_on_c, 0, 99, 52
2, 11438, Note_on_c, 0, 99, 0
2, 11440, Note_on_c, 0, 97, 47
2, 11445, Note_on_c, 0, 67, 0
2, 11450, Note_on_c, 0, 61, 0
2, 11450, Note_on_c, 0, 58, 0
2, 11458, Note_on_c, 0, 97, 0
2, 11459, Note_on_c, 0, 61, 61
2, 11459, Note_on_c, 0, 57, 62
2, 11460, Note_on_c, 0, 85, 48
2, 11460, Note_on_c, 0, 66, 52
2, 11478, Note_on_c, 0, 85, 0
2, 11480, Note_on_c, 0, 87, 47
2, 11482, Control_c, 0, 64, 0
2, 11493, Note_on_c, 0, 57, 0
2, 11498, Note_on_c, 0, 87, 0
2, 11500, Note_on_c, 0, 66, 0
2, 11500, Note_on_c, 0, 85, 40
2, 11511, Note_on_c, 0, 61, 0
2, 11512, Control_c, 0, 64, 127
2, 11518, Note_on_c, 0, 85, 0
2, 11519, Note_on_c, 0, 65, 57
2, 11519, Note_on_c, 0, 56, 59
2, 11519, Note_on_c, 0, 59, 62
2, 11520, Note_on_c, 0, 97, 42
2, 11537, Note_on_c, 0, 59, 0
2, 11537, Note_on_c, 0, 56, 0
2, 11538, Note_on_c, 0, 65, 0
2, 11538, Note_on_c, 0, 97, 0
2, 11540, Note_on_c, 0, 99, 48
2, 11558, Note_on_c, 0, 99, 0
2, 11560, Note_on_c, 0, 97, 43
2, 11576, Control_c, 0, 64, 0
2, 11578, Note_on_c, 0, 97, 0
2, 11578, Note_on_c, 0, 49, 58
2, 11580, Note_on_c, 0, 85, 40
2, 11582, Control_c, 0, 64, 127
2, 11590, Note_on_c, 0, 49, 0
2, 11598, Note_on_c, 0, 85, 0
2, 11600, Note_on_c, 0, 87, 51
2, 11618, Note_on_c, 0, 87, 0
2, 11620, Note_on_c, 0, 85, 44
2, 11638, Note_on_c, 0, 85, 0
2, 11639, Note_on_c, 0, 59, 49
2, 11639, Note_on_c, 0, 61, 47
2, 11639, Note_on_c, 0, 68, 56
2, 11639, Note_on_c, 0, 65, 53
2, 11640, Note_on_c, 0, 97, 48
2, 11658, Note_on_c, 0, 97, 0
2, 11660, Note_on_c, 0, 99, 50
2, 11678, Note_on_c, 0, 99, 0
2, 11680, Note_on_c, 0, 97, 46
2, 11697, Note_on_c, 0, 65, 0
2, 11698, Note_on_c, 0, 97, 0
2, 11699, Note_on_c, 0, 70, 62
2, 11700, Note_on_c, 0, 85, 45
2, 11702, Note_on_c, 0, 61, 0
2, 11705, Note_on_c, 0, 68, 0
2, 11718, Note_on_c, 0, 85, 0
2, 11720, Note_on_c, 0, 87, 46
2, 11738, Note_on_c, 0, 87, 0
2, 11740, Note_on_c, 0, 85, 44
2, 11743, Note_on_c, 0, 59, 0
2, 11751, Note_on_c, 0, 70, 0
2, 11758, Note_on_c, 0, 85, 0
2, 11759, Note_on_c, 0, 71, 66
2, 11760, Note_on_c, 0, 97, 55
2, 11760, Note_on_c, 0, 61, 51
2, 11760, Note_on_c, 0, 65, 54
2, 11761, Note_on_c, 0, 59, 49
2, 11778, Note_on_c, 0, 97, 0
2, 11780, Note_on_c, 0, 99, 40
2, 11798, Note_on_c, 0, 99, 0
2, 11800, Note_on_c, 0, 97, 56
2, 11818, Note_on_c, 0, 97, 0
2, 11820, Note_on_c, 0, 85, 43
2, 11838, Note_on_c, 0, 85, 0
2, 11840, Note_on_c, 0, 87, 57
2, 11857, Control_c, 0, 64, 0
2, 11858, Note_on_c, 0, 87, 0
2, 11860, Note_on_c, 0, 85, 48
2, 11878, Note_on_c, 0, 85, 0
2, 11879, Note_on_c, 0, 70, 69
2, 11880, Note_on_c, 0, 97, 53
2, 11885, Note_on_c, 0, 71, 0
2, 11898, Note_on_c, 0, 97, 0
2, 11900, Note_on_c, 0, 99, 64
2, 11918, Note_on_c, 0, 99, 0
2, 11920, Note_on_c, 0, 97, 59
2, 11938, Note_on_c, 0, 97, 0
2, 11940, Note_on_c, 0, 85, 54
2, 11940, Note_on_c, 0, 68, 69
2, 11944, Note_on_c, 0, 70, 0
2, 11958, Note_on_c, 0, 85, 0
2, 11960, Note_on_c, 0, 87, 64
2, 11978, Note_on_c, 0, 87, 0
2, 11980, Note_on_c, 0, 65, 0
2, 11980, Note_on_c, 0, 61, 0
2, 11980, Note_on_c, 0, 85, 53
2, 11981, Note_on_c, 0, 68, 0
2, 11983, Note_on_c, 0, 59, 0
2, 11998, Note_on_c, 0, 85, 0
2, 11999, Note_on_c, 0, 61, 69
2, 11999, Note_on_c, 0, 66, 57
2, 11999, Note_on_c, 0, 58, 67
2, 11999, Note_on_c, 0, 54, 55
2, 12000, Note_on_c, 0, 90, 64
2, 12000, Control_c, 0, 64, 127
2, 12013, Note_on_c, 0, 54, 0
2, 12013, Note_on_c, 0, 58, 0
2, 12015, Note_on_c, 0, 61, 0
2, 12017, Note_on_c, 0, 66, 0
2, 12018, Note_on_c, 0, 90, 0
2, 12020, Note_on_c, 0, 94, 52
2, 12038, Note_on_c, 0, 94, 0
2, 12040, Note_on_c, 0, 85, 59
2, 12054, Control_c, 0, 64, 0
2, 12058, Note_on_c, 0, 85, 0
2, 12059, Note_on_c, 0, 63, 73
2, 12059, Note_on_c, 0, 66, 57
2, 12059, Note_on_c, 0, 59, 76
2, 12059, Note_on_c, 0, 54, 42
2, 12060, Note_on_c, 0, 90, 58
2, 12072, Note_on_c, 0, 54, 0
2, 12072, Note_on_c, 0, 59, 0
2, 12074, Note_on_c, 0, 66, 0
2, 12075, Note_on_c, 0, 63, 0
2, 12078, Note_on_c, 0, 90, 0
2, 12080, Note_on_c, 0, 87, 61
2, 12098, Note_on_c, 0, 87, 0
2, 12100, Note_on_c, 0, 90, 62
2, 12118, Note_on_c, 0, 90, 0
2, 12118, Note_on_c, 0, 66, 66
2, 12119, Note_on_c, 0, 54, 57
2, 12119, Note_on_c, 0, 61, 76
2, 12119, Note_on_c, 0, 58, 69
2, 12120, Note_on_c, 0, 85, 53
2, 12129, Note_on_c, 0, 54, 0
2, 12130, Note_on_c, 0, 66, 0
2, 12131, Note_on_c, 0, 61, 0
2, 12132, Note_on_c, 0, 58, 0
2, 12138, Note_on_c, 0, 85, 0
2, 12140, Note_on_c, 0, 90, 59
2, 12158, Note_on_c, 0, 90, 0
2, 12160, Note_on_c, 0, 82, 54
2, 12178, Note_on_c, 0, 82, 0
2, 12180, Note_on_c, 0, 85, 58
2, 12198, Note_on_c, 0, 85, 0
2, 12200, Note_on_c, 0, 78, 52
2, 12218, Note_on_c, 0, 78, 0
2, 12220, Note_on_c, 0, 82, 65
2, 12238, Note_on_c, 0, 82, 0
2, 12238, Note_on_c, 0, 42, 77
2, 12238, Note_on_c, 0, 54, 67
2, 12240, Note_on_c, 0, 78, 40
2, 12248, Note_on_c, 0, 42, 0
2, 12250, Note_on_c, 0, 54, 0
2, 12258, Note_on_c, 0, 78, 0
2, 12260, Note_on_c, 0, 82, 34
2, 12278, Note_on_c, 0, 82, 0
2, 12280, Note_on_c, 0, 73, 35
2, 12298, Note_on_c, 0, 73, 0
2, 12299, Note_on_c, 0, 66, 50
2, 12299, Note_on_c, 0, 63, 58
2, 12300, Note_on_c, 0, 78, 43
2, 12301, Note_on_c, 0, 59, 45
2, 12310, Note_on_c, 0, 66, 0
2, 12311, Note_on_c, 0, 59, 0
2, 12312, Note_on_c, 0, 63, 0
2, 12318, Note_on_c, 0, 78, 0
2, 12320, Note_on_c, 0, 75, 44
2, 12338, Note_on_c, 0, 75, 0
2, 12340, Note_on_c, 0, 78, 43
2, 12358, Note_on_c, 0, 78, 0
2, 12359, Note_on_c, 0, 66, 48
2, 12359, Note_on_c, 0, 58, 54
2, 12359, Note_on_c, 0, 61, 52
2, 12360, Note_on_c, 0, 73, 43
2, 12367, Note_on_c, 0, 61, 0
2, 12369, Note_on_c, 0, 66, 0
2, 12369, Note_on_c, 0, 58, 0
2, 12378, Note_on_c, 0, 73, 0
2, 12380, Note_on_c, 0, 78, 44
2, 12398, Note_on_c, 0, 78, 0
2, 12400, Note_on_c, 0, 70, 39
2, 12418, Note_on_c, 0, 70, 0
2, 12420, Note_on_c, 0, 73, 41
2, 12438, Note_on_c, 0, 73, 0
2, 12440, Note_on_c, 0, 66, 38
2, 12458, Note_on_c, 0, 66, 0
2, 12460, Note_on_c, 0, 70, 46
2, 12478, Note_on_c, 0, 70, 0
2, 12480, Note_on_c, 0, 61, 39
2, 12480, Control_c, 0, 64, 127
2, 12481, Note_on_c, 0, 37, 59
2, 12482, Note_on_c, 0, 49, 50
2, 12489, Note_on_c, 0, 49, 0
2, 12489, Note_on_c, 0, 37, 0
2, 12498, Note_on_c, 0, 61, 0
2, 12500, Note_on_c, 0, 73, 43
2, 12518, Note_on_c, 0, 73, 0
2, 12520, Note_on_c, 0, 68, 42
2, 12531, Control_c, 0, 64, 0
2, 12538, Note_on_c, 0, 68, 0
2, 12540, Note_on_c, 0, 73, 35
2, 12542, Note_on_c, 0, 65, 42
2, 12543, Note_on_c, 0, 61, 54
2, 12544, Note_on_c, 0, 56, 56
2, 12548, Note_on_c, 0, 65, 0
2, 12549, Note_on_c, 0, 61, 0
2, 12550, Note_on_c, 0, 56, 0
2, 12558, Note_on_c, 0, 73, 0
2, 12560, Note_on_c, 0, 68, 39
2, 12578, Note_on_c, 0, 68, 0
2, 12580, Note_on_c, 0, 80, 42
2, 12597, Control_c, 0, 64, 127
2, 12598, Note_on_c, 0, 80, 0
2, 12599, Note_on_c, 0, 63, 42
2, 12599, Note_on_c, 0, 59, 45
2, 12600, Note_on_c, 0, 68, 48
2, 12600, Note_on_c, 0, 56, 53
2, 12605, Note_on_c, 0, 56, 0
2, 12605, Note_on_c, 0, 63, 0
2, 12606, Note_on_c, 0, 59, 0
2, 12618, Note_on_c, 0, 68, 0
2, 12620, Note_on_c, 0, 80, 53
2, 12638, Note_on_c, 0, 80, 0
2, 12640, Note_on_c, 0, 75, 46
2, 12658, Note_on_c, 0, 75, 0
2, 12659, Note_on_c, 0, 44, 58
2, 12660, Note_on_c, 0, 80, 38
2, 12671, Note_on_c, 0, 44, 0
2, 12678, Note_on_c, 0, 80, 0
2, 12680, Note_on_c, 0, 75, 42
2, 12698, Note_on_c, 0, 75, 0
2, 12700, Note_on_c, 0, 87, 48
2, 12716, Control_c, 0, 64, 0
2, 12718, Note_on_c, 0, 87, 0
2, 12719, Note_on_c, 0, 49, 59
2, 12720, Note_on_c, 0, 75, 43
2, 12738, Note_on_c, 0, 75, 0
2, 12740, Note_on_c, 0, 87, 47
2, 12758, Note_on_c, 0, 87, 0
2, 12760, Note_on_c, 0, 80, 48
2, 12778, Note_on_c, 0, 80, 0
2, 12779, Note_on_c, 0, 63, 61
2, 12779, Note_on_c, 0, 56, 50
2, 12779, Note_on_c, 0, 59, 63
2, 12780, Note_on_c, 0, 87, 47
2, 12787, Note_on_c, 0, 59, 0
2, 12788, Note_on_c, 0, 56, 0
2, 12790, Note_on_c, 0, 63, 0
2, 12798, Note_on_c, 0, 87, 0
2, 12800, Note_on_c, 0, 80, 51
2, 12818, Note_on_c, 0, 80, 0
2, 12820, Note_on_c, 0, 92, 63
2, 12837, Control_c, 0, 64, 127
2, 12838, Note_on_c, 0, 92, 0
2, 12839, Note_on_c, 0, 56, 48
2, 12839, Note_on_c, 0, 59, 64
2, 12839, Note_on_c, 0, 61, 62
2, 12840, Note_on_c, 0, 80, 52
2, 12850, Note_on_c, 0, 59, 0
2, 12850, Note_on_c, 0, 56, 0
2, 12851, Note_on_c, 0, 61, 0
2, 12858, Note_on_c, 0, 80, 0
2, 12859, Note_on_c, 0, 49, 0
2, 12860, Note_on_c, 0, 92, 52
2, 12878, Note_on_c, 0, 92, 0
2, 12880, Note_on_c, 0, 85, 46
2, 12898, Note_on_c, 0, 85, 0
2, 12900, Note_on_c, 0, 92, 62
2, 12909, Control_c, 0, 64, 0
2, 12918, Note_on_c, 0, 92, 0
2, 12920, Note_on_c, 0, 85, 43
2, 12938, Note_on_c, 0, 85, 0
2, 12940, Note_on_c, 0, 97, 49
2, 12951, Control_c, 0, 64, 127
2, 12958, Note_on_c, 0, 97, 0
2, 12959, Note_on_c, 0, 61, 74
2, 12959, Note_on_c, 0, 66, 69
2, 12959, Note_on_c, 0, 54, 68
2, 12959, Note_on_c, 0, 58, 70
2, 12960, Note_on_c, 0, 90, 61
2, 12964, Note_on_c, 0, 58, 0
2, 12966, Note_on_c, 0, 54, 0
2, 12967, Note_on_c, 0, 61, 0
2, 12970, Note_on_c, 0, 66, 0
2, 12978, Note_on_c, 0, 90, 0
2, 12980, Note_on_c, 0, 94, 74
2, 12998, Note_on_c, 0, 94, 0
2, 13000, Note_on_c, 0, 85, 64
2, 13014, Control_c, 0, 64, 0
2, 13018, Note_on_c, 0, 85, 0
2, 13020, Note_on_c, 0, 90, 62
2, 13020, Note_on_c, 0, 63, 82
2, 13021, Note_on_c, 0, 54, 62
2, 13021, Note_on_c, 0, 66, 70
2, 13021, Note_on_c, 0, 59, 81
2, 13028, Note_on_c, 0, 59, 0
2, 13029, Note_on_c, 0, 54, 0
2, 13031, Note_on_c, 0, 66, 0
2, 13031, Note_on_c, 0, 63, 0
2, 13038, Note_on_c, 0, 90, 0
2, 13040, Note_on_c, 0, 87, 55
2, 13058, Note_on_c, 0, 87, 0
2, 13060, Note_on_c, 0, 90, 64
2, 13078, Note_on_c, 0, 90, 0
2, 13079, Note_on_c, 0, 54, 65
2, 13079, Note_on_c, 0, 61, 78
2, 13080, Note_on_c, 0, 85, 58
2, 13080, Note_on_c, 0, 58, 77
2, 13081, Note_on_c, 0, 66, 72
2, 13088, Note_on_c, 0, 66, 0
2, 13088, Note_on_c, 0, 54, 0
2, 13089, Note_on_c, 0, 61, 0
2, 13090, Note_on_c, 0, 58, 0
2, 13098, Note_on_c, 0, 85, 0
2, 13100, Note_on_c, 0, 90, 64
2, 13118, Note_on_c, 0, 90, 0
2, 13120, Note_on_c, 0, 82, 57
2, 13138, Note_on_c, 0, 82, 0
2, 13140, Note_on_c, 0, 85, 64
2, 13158, Note_on_c, 0, 85, 0
2, 13160, Note_on_c, 0, 78, 55
2, 13178, Note_on_c, 0, 78, 0
2, 13180, Note_on_c, 0, 82, 66
2, 13198, Note_on_c, 0, 82, 0
2, 13200, Note_on_c, 0, 78, 46
2, 13201, Note_on_c, 0, 42, 63
2, 13201, Note_on_c, 0, 54, 58
2, 13209, Note_on_c, 0, 54, 0
2, 13209, Note_on_c, 0, 42, 0
2, 13218, Note_on_c, 0, 78, 0
2, 13220, Note_on_c, 0, 82, 54
2, 13238, Note_on_c, 0, 82, 0
2, 13240, Note_on_c, 0, 73, 43
2, 13258, Note_on_c, 0, 73, 0
2, 13260, Note_on_c, 0, 78, 47
2, 13261, Note_on_c, 0, 59, 55
2, 13262, Note_on_c, 0, 63, 60
2, 13262, Note_on_c, 0, 66, 46
2, 13268, Note_on_c, 0, 66, 0
2, 13271, Note_on_c, 0, 63, 0
2, 13273, Note_on_c, 0, 59, 0
2, 13278, Note_on_c, 0, 78, 0
2, 13280, Note_on_c, 0, 75, 43
2, 13298, Note_on_c, 0, 75, 0
2, 13300, Note_on_c, 0, 78, 43
2, 13318, Note_on_c, 0, 78, 0
2, 13320, Note_on_c, 0, 73, 44
2, 13321, Note_on_c, 0, 66, 52
2, 13321, Note_on_c, 0, 58, 53
2, 13321, Note_on_c, 0, 61, 56
2, 13326, Note_on_c, 0, 61, 0
2, 13327, Note_on_c, 0, 58, 0
2, 13328, Note_on_c, 0, 66, 0
2, 13338, Note_on_c, 0, 73, 0
2, 13340, Note_on_c, 0, 78, 52
2, 13358, Note_on_c, 0, 78, 0
2, 13360, Note_on_c, 0, 70, 44
2, 13378, Note_on_c, 0, 70, 0
2, 13380, Note_on_c, 0, 73, 48
2, 13398, Note_on_c, 0, 73, 0
2, 13400, Note_on_c, 0, 66, 39
2, 13418, Note_on_c, 0, 66, 0
2, 13420, Note_on_c, 0, 70, 41
2, 13438, Note_on_c, 0, 70, 0
2, 13438, Control_c, 0, 64, 127
2, 13439, Note_on_c, 0, 47, 58
2, 13440, Note_on_c, 0, 63, 59
2, 13454, Note_on_c, 0, 47, 0
2, 13458, Note_on_c, 0, 63, 0
2, 13460, Note_on_c, 0, 75, 34
2, 13478, Note_on_c, 0, 75, 0
2, 13480, Note_on_c, 0, 68, 38
2, 13498, Note_on_c, 0, 68, 0
2, 13500, Note_on_c, 0, 75, 41
2, 13501, Note_on_c, 0, 63, 54
2, 13501, Note_on_c, 0, 56, 58
2, 13518, Note_on_c, 0, 75, 0
2, 13520, Note_on_c, 0, 68, 61
2, 13538, Note_on_c, 0, 68, 0
2, 13540, Note_on_c, 0, 80, 32
2, 13547, Note_on_c, 0, 63, 0
2, 13550, Control_c, 0, 64, 0
2, 13558, Note_on_c, 0, 80, 0
2, 13559, Control_c, 0, 64, 127
2, 13560, Note_on_c, 0, 70, 64
2, 13561, Note_on_c, 0, 58, 54
2, 13561, Note_on_c, 0, 53, 54
2, 13561, Note_on_c, 0, 62, 54
2, 13562, Note_on_c, 0, 56, 0
2, 13578, Note_on_c, 0, 70, 0
2, 13580, Note_on_c, 0, 82, 45
2, 13585, Note_on_c, 0, 62, 0
2, 13589, Note_on_c, 0, 53, 0
2, 13590, Note_on_c, 0, 58, 0
2, 13598, Note_on_c, 0, 82, 0
2, 13600, Note_on_c, 0, 70, 44
2, 13618, Note_on_c, 0, 70, 0
2, 13619, Note_on_c, 0, 46, 58
2, 13620, Note_on_c, 0, 82, 43
2, 13638, Note_on_c, 0, 82, 0
2, 13640, Note_on_c, 0, 70, 38
2, 13658, Note_on_c, 0, 70, 0
2, 13660, Note_on_c, 0, 82, 37
2, 13664, Control_c, 0, 64, 0
2, 13678, Note_on_c, 0, 82, 0
2, 13678, Control_c, 0, 64, 127
2, 13679, Note_on_c, 0, 47, 66
2, 13680, Note_on_c, 0, 75, 63
2, 13687, Note_on_c, 0, 46, 0
2, 13692, Note_on_c, 0, 47, 0
2, 13698, Note_on_c, 0, 75, 0
2, 13700, Note_on_c, 0, 87, 38
2, 13718, Note_on_c, 0, 87, 0
2, 13720, Note_on_c, 0, 80, 45
2, 13738, Note_on_c, 0, 80, 0
2, 13740, Note_on_c, 0, 87, 40
2, 13741, Note_on_c, 0, 56, 62
2, 13741, Note_on_c, 0, 63, 64
2, 13758, Note_on_c, 0, 87, 0
2, 13760, Note_on_c, 0, 80, 68
2, 13778, Note_on_c, 0, 80, 0
2, 13780, Note_on_c, 0, 92, 47
2, 13787, Control_c, 0, 64, 0
2, 13794, Note_on_c, 0, 63, 0
2, 13798, Note_on_c, 0, 92, 0
2, 13799, Note_on_c, 0, 58, 63
2, 13799, Note_on_c, 0, 53, 63
2, 13800, Note_on_c, 0, 82, 76
2, 13800, Note_on_c, 0, 62, 63
2, 13800, Control_c, 0, 64, 127
2, 13803, Note_on_c, 0, 56, 0
2, 13818, Note_on_c, 0, 82, 0
2, 13820, Note_on_c, 0, 94, 62
2, 13824, Note_on_c, 0, 62, 0
2, 13828, Note_on_c, 0, 58, 0
2, 13828, Note_on_c, 0, 53, 0
2, 13838, Note_on_c, 0, 94, 0
2, 13840, Note_on_c, 0, 82, 44
2, 13854, Control_c, 0, 64, 0
2, 13858, Note_on_c, 0, 82, 0
2, 13860, Note_on_c, 0, 94, 59
2, 13861, Note_on_c, 0, 46, 62
2, 13875, Note_on_c, 0, 46, 0
2, 13878, Note_on_c, 0, 94, 0
2, 13880, Note_on_c, 0, 82, 46
2, 13898, Note_on_c, 0, 82, 0
2, 13900, Note_on_c, 0, 94, 59
2, 13918, Note_on_c, 0, 94, 0
2, 13920, Note_on_c, 0, 82, 82
2, 13920, Note_on_c, 0, 47, 70
2, 13925, Control_c, 0, 64, 127
2, 13932, Note_on_c, 0, 47, 0
2, 13938, Note_on_c, 0, 82, 0
2, 13940, Note_on_c, 0, 94, 57
2, 13958, Note_on_c, 0, 94, 0
2, 13960, Note_on_c, 0, 87, 54
2, 13978, Note_on_c, 0, 87, 0
2, 13980, Note_on_c, 0, 94, 42
2, 13980, Note_on_c, 0, 63, 62
2, 13980, Note_on_c, 0, 59, 62
2, 13980, Note_on_c, 0, 68, 62
2, 13992, Note_on_c, 0, 68, 0
2, 13992, Note_on_c, 0, 59, 0
2, 13992, Note_on_c, 0, 63, 0
2, 13998, Note_on_c, 0, 94, 0
2, 14000, Note_on_c, 0, 80, 75
2, 14018, Note_on_c, 0, 80, 0
2, 14020, Note_on_c, 0, 92, 49
2, 14031, Control_c, 0, 64, 0
2, 14038, Note_on_c, 0, 92, 0
2, 14039, Control_c, 0, 64, 127
2, 14040, Note_on_c, 0, 80, 78
2, 14040, Note_on_c, 0, 49, 69
2, 14052, Note_on_c, 0, 49, 0
2, 14058, Note_on_c, 0, 80, 0
2, 14060, Note_on_c, 0, 92, 52
2, 14078, Note_on_c, 0, 92, 0
2, 14080, Note_on_c, 0, 85, 55
2, 14098, Note_on_c, 0, 85, 0
2, 14100, Note_on_c, 0, 92, 62
2, 14100, Note_on_c, 0, 61, 64
2, 14100, Note_on_c, 0, 58, 64
2, 14100, Note_on_c, 0, 66, 64
2, 14112, Note_on_c, 0, 66, 0
2, 14112, Note_on_c, 0, 58, 0
2, 14112, Note_on_c, 0, 61, 0
2, 14118, Note_on_c, 0, 92, 0
2, 14120, Note_on_c, 0, 78, 83
2, 14138, Note_on_c, 0, 78, 0
2, 14140, Note_on_c, 0, 90, 57
2, 14142, Control_c, 0, 64, 0
2, 14154, Control_c, 0, 64, 127
2, 14158, Note_on_c, 0, 90, 0
2, 14160, Note_on_c, 0, 73, 82
2, 14160, Note_on_c, 0, 47, 71
2, 14172, Note_on_c, 0, 47, 0
2, 14178, Note_on_c, 0, 73, 0
2, 14180, Note_on_c, 0, 85, 61
2, 14198, Note_on_c, 0, 85, 0
2, 14200, Note_on_c, 0, 80, 54
2, 14218, Note_on_c, 0, 80, 0
2, 14220, Note_on_c, 0, 85, 43
2, 14220, Note_on_c, 0, 59, 65
2, 14220, Note_on_c, 0, 61, 65
2, 14220, Note_on_c, 0, 68, 65
2, 14220, Note_on_c, 0, 65, 65
2, 14232, Note_on_c, 0, 65, 0
2, 14232, Note_on_c, 0, 61, 0
2, 14232, Note_on_c, 0, 68, 0
2, 14232, Note_on_c, 0, 59, 0
2, 14238, Note_on_c, 0, 85, 0
2, 14240, Note_on_c, 0, 80, 83
2, 14258, Note_on_c, 0, 80, 0
2, 14260, Note_on_c, 0, 92, 55
2, 14264, Control_c, 0, 64, 0
2, 14276, Control_c, 0, 64, 127
2, 14278, Note_on_c, 0, 92, 0
2, 14280, Note_on_c, 0, 78, 87
2, 14280, Note_on_c, 0, 46, 70
2, 14292, Note_on_c, 0, 46, 0
2, 14298, Note_on_c, 0, 78, 0
2, 14300, Note_on_c, 0, 90, 66
2, 14318, Note_on_c, 0, 90, 0
2, 14320, Note_on_c, 0, 85, 59
2, 14338, Note_on_c, 0, 85, 0
2, 14340, Note_on_c, 0, 90, 45
2, 14340, Note_on_c, 0, 66, 64
2, 14340, Note_on_c, 0, 70, 64
2, 14340, Note_on_c, 0, 58, 64
2, 14340, Note_on_c, 0, 61, 64
2, 14352, Note_on_c, 0, 61, 0
2, 14352, Note_on_c, 0, 70, 0
2, 14352, Note_on_c, 0, 58, 0
2, 14352, Note_on_c, 0, 66, 0
2, 14358, Note_on_c, 0, 90, 0
2, 14360, Note_on_c, 0, 85, 80
2, 14378, Note_on_c, 0, 85, 0
2, 14380, Note_on_c, 0, 97, 61
2, 14383, Control_c, 0, 64, 0
2, 14395, Control_c, 0, 64, 127
2, 14398, Note_on_c, 0, 97, 0
2, 14400, Note_on_c, 0, 82, 75
2, 14400, Note_on_c, 0, 47, 63
2, 14412, Note_on_c, 0, 47, 0
2, 14418, Note_on_c, 0, 82, 0
2, 14420, Note_on_c, 0, 94, 43
2, 14438, Note_on_c, 0, 94, 0
2, 14440, Note_on_c, 0, 87, 47
2, 14458, Note_on_c, 0, 87, 0
2, 14460, Note_on_c, 0, 94, 42
2, 14460, Note_on_c, 0, 68, 55
2, 14460, Note_on_c, 0, 63, 55
2, 14460, Note_on_c, 0, 59, 55
2, 14472, Note_on_c, 0, 59, 0
2, 14472, Note_on_c, 0, 63, 0
2, 14472, Note_on_c, 0, 68, 0
2, 14478, Note_on_c, 0, 94, 0
2, 14480, Note_on_c, 0, 80, 69
2, 14498, Note_on_c, 0, 80, 0
2, 14500, Note_on_c, 0, 92, 36
2, 14505, Control_c, 0, 64, 0
2, 14515, Control_c, 0, 64, 127
2, 14518, Note_on_c, 0, 92, 0
2, 14520, Note_on_c, 0, 80, 77
2, 14520, Note_on_c, 0, 49, 62
2, 14532, Note_on_c, 0, 49, 0
2, 14538, Note_on_c, 0, 80, 0
2, 14540, Note_on_c, 0, 92, 57
2, 14558, Note_on_c, 0, 92, 0
2, 14560, Note_on_c, 0, 85, 50
2, 14578, Note_on_c, 0, 85, 0
2, 14580, Note_on_c, 0, 92, 53
2, 14580, Note_on_c, 0, 66, 55
2, 14580, Note_on_c, 0, 70, 55
2, 14580, Note_on_c, 0, 61, 55
2, 14580, Note_on_c, 0, 58, 55
2, 14592, Note_on_c, 0, 58, 0
2, 14592, Note_on_c, 0, 70, 0
2, 14592, Note_on_c, 0, 61, 0
2, 14592, Note_on_c, 0, 66, 0
2, 14598, Note_on_c, 0, 92, 0
2, 14600, Note_on_c, 0, 78, 77
2, 14613, Control_c, 0, 64, 0
2, 14618, Note_on_c, 0, 78, 0
2, 14620, Note_on_c, 0, 90, 46
2, 14630, Control_c, 0, 64, 127
2, 14638, Note_on_c, 0, 90, 0
2, 14640, Note_on_c, 0, 73, 74
2, 14640, Note_on_c, 0, 47, 62
2, 14652, Note_on_c, 0, 47, 0
2, 14658, Note_on_c, 0, 73, 0
2, 14660, Note_on_c, 0, 85, 45
2, 14678, Note_on_c, 0, 85, 0
2, 14680, Note_on_c, 0, 80, 44
2, 14698, Note_on_c, 0, 80, 0
2, 14700, Note_on_c, 0, 85, 37
2, 14700, Note_on_c, 0, 68, 55
2, 14700, Note_on_c, 0, 59, 55
2, 14700, Note_on_c, 0, 65, 55
2, 14700, Note_on_c, 0, 61, 55
2, 14712, Note_on_c, 0, 61, 0
2, 14712, Note_on_c, 0, 59, 0
2, 14712, Note_on_c, 0, 65, 0
2, 14712, Note_on_c, 0, 68, 0
2, 14718, Note_on_c, 0, 85, 0
2, 14720, Note_on_c, 0, 80, 82
2, 14735, Control_c, 0, 64, 0
2, 14738, Note_on_c, 0, 80, 0
2, 14740, Note_on_c, 0, 92, 61
2, 14749, Control_c, 0, 64, 127
2, 14758, Note_on_c, 0, 92, 0
2, 14760, Note_on_c, 0, 78, 72
2, 14760, Note_on_c, 0, 46, 62
2, 14772, Note_on_c, 0, 46, 0
2, 14778, Note_on_c, 0, 78, 0
2, 14780, Note_on_c, 0, 90, 50
2, 14798, Note_on_c, 0, 90, 0
2, 14800, Note_on_c, 0, 85, 42
2, 14818, Note_on_c, 0, 85, 0
2, 14820, Note_on_c, 0, 90, 50
2, 14820, Note_on_c, 0, 66, 57
2, 14820, Note_on_c, 0, 61, 57
2, 14820, Note_on_c, 0, 58, 57
2, 14820, Note_on_c, 0, 70, 57
2, 14832, Note_on_c, 0, 70, 0
2, 14832, Note_on_c, 0, 61, 0
2, 14832, Note_on_c, 0, 58, 0
2, 14832, Note_on_c, 0, 66, 0
2, 14838, Note_on_c, 0, 90, 0
2, 14840, Note_on_c, 0, 85, 77
2, 14850, Control_c, 0, 64, 0
2, 14858, Note_on_c, 0, 85, 0
2, 14860, Note_on_c, 0, 97, 59
2, 14866, Control_c, 0, 64, 127
2, 14878, Note_on_c, 0, 97, 0
2, 14880, Note_on_c, 0, 82, 80
2, 14880, Note_on_c, 0, 47, 62
2, 14892, Note_on_c, 0, 47, 0
2, 14898, Note_on_c, 0, 82, 0
2, 14900, Note_on_c, 0, 94, 53
2, 14918, Note_on_c, 0, 94, 0
2, 14920, Note_on_c, 0, 87, 41
2, 14938, Note_on_c, 0, 87, 0
2, 14940, Note_on_c, 0, 94, 54
2, 14940, Note_on_c, 0, 56, 53
2, 14941, Note_on_c, 0, 68, 62
2, 14941, Note_on_c, 0, 63, 63
2, 14958, Note_on_c, 0, 94, 0
2, 14960, Note_on_c, 0, 80, 72
2, 14978, Note_on_c, 0, 80, 0
2, 14980, Note_on_c, 0, 92, 60
2, 14998, Note_on_c, 0, 92, 0
2, 15000, Note_on_c, 0, 82, 80
2, 15018, Note_on_c, 0, 82, 0
2, 15020, Note_on_c, 0, 94, 51
2, 15038, Note_on_c, 0, 94, 0
2, 15038, Note_on_c, 0, 56, 0
2, 15038, Note_on_c, 0, 68, 0
2, 15039, Note_on_c, 0, 63, 0
2, 15040, Note_on_c, 0, 87, 44
2, 15058, Note_on_c, 0, 87, 0
2, 15060, Note_on_c, 0, 94, 59
2, 15060, Note_on_c, 0, 47, 66
2, 15078, Note_on_c, 0, 94, 0
2, 15080, Note_on_c, 0, 80, 69
2, 15098, Note_on_c, 0, 80, 0
2, 15100, Note_on_c, 0, 92, 45
2, 15110, Control_c, 0, 64, 0
2, 15118, Note_on_c, 0, 92, 0
2, 15119, Note_on_c, 0, 48, 61
2, 15120, Note_on_c, 0, 82, 75
2, 15123, Note_on_c, 0, 47, 0
2, 15128, Control_c, 0, 64, 127
2, 15129, Note_on_c, 0, 48, 0
2, 15138, Note_on_c, 0, 82, 0
2, 15140, Note_on_c, 0, 94, 47
2, 15158, Note_on_c, 0, 94, 0
2, 15160, Note_on_c, 0, 87, 39
2, 15178, Note_on_c, 0, 87, 0
2, 15180, Note_on_c, 0, 94, 45
2, 15181, Note_on_c, 0, 56, 60
2, 15181, Note_on_c, 0, 68, 55
2, 15181, Note_on_c, 0, 66, 58
2, 15181, Note_on_c, 0, 63, 58
2, 15198, Note_on_c, 0, 94, 0
2, 15200, Note_on_c, 0, 80, 81
2, 15218, Note_on_c, 0, 80, 0
2, 15220, Note_on_c, 0, 92, 61
2, 15238, Note_on_c, 0, 92, 0
2, 15240, Note_on_c, 0, 82, 81
2, 15258, Note_on_c, 0, 82, 0
2, 15258, Note_on_c, 0, 63, 0
2, 15260, Note_on_c, 0, 66, 0
2, 15260, Note_on_c, 0, 68, 0
2, 15260, Note_on_c, 0, 94, 47
2, 15262, Note_on_c, 0, 56, 0
2, 15278, Note_on_c, 0, 94, 0
2, 15280, Note_on_c, 0, 87, 47
2, 15298, Note_on_c, 0, 87, 0
2, 15300, Note_on_c, 0, 94, 41
2, 15300, Note_on_c, 0, 48, 62
2, 15318, Note_on_c, 0, 94, 0
2, 15320, Note_on_c, 0, 80, 76
2, 15338, Note_on_c, 0, 80, 0
2, 15340, Note_on_c, 0, 92, 37
2, 15348, Control_c, 0, 64, 0
2, 15358, Note_on_c, 0, 92, 0
2, 15359, Note_on_c, 0, 49, 70
2, 15360, Note_on_c, 0, 85, 42
2, 15362, Note_on_c, 0, 48, 0
2, 15362, Control_c, 0, 64, 127
2, 15378, Note_on_c, 0, 85, 0
2, 15380, Note_on_c, 0, 94, 71
2, 15398, Note_on_c, 0, 94, 0
2, 15400, Note_on_c, 0, 80, 44
2, 15418, Note_on_c, 0, 80, 0
2, 15420, Note_on_c, 0, 92, 78
2, 15421, Note_on_c, 0, 49, 0
2, 15438, Note_on_c, 0, 92, 0
2, 15440, Note_on_c, 0, 85, 46
2, 15458, Note_on_c, 0, 85, 0
2, 15460, Note_on_c, 0, 94, 69
2, 15478, Note_on_c, 0, 94, 0
2, 15479, Note_on_c, 0, 56, 55
2, 15479, Note_on_c, 0, 66, 73
2, 15479, Note_on_c, 0, 61, 70
2, 15479, Note_on_c, 0, 68, 65
2, 15480, Note_on_c, 0, 80, 39
2, 15498, Note_on_c, 0, 80, 0
2, 15500, Note_on_c, 0, 92, 66
2, 15518, Note_on_c, 0, 92, 0
2, 15520, Note_on_c, 0, 85, 42
2, 15538, Note_on_c, 0, 85, 0
2, 15540, Note_on_c, 0, 94, 69
2, 15551, Note_on_c, 0, 61, 0
2, 15553, Note_on_c, 0, 68, 0
2, 15553, Note_on_c, 0, 56, 0
2, 15553, Note_on_c, 0, 66, 0
2, 15558, Note_on_c, 0, 94, 0
2, 15560, Note_on_c, 0, 80, 38
2, 15578, Note_on_c, 0, 80, 0
2, 15580, Note_on_c, 0, 92, 66
2, 15598, Note_on_c, 0, 92, 0
2, 15599, Note_on_c, 0, 68, 57
2, 15599, Note_on_c, 0, 73, 42
2, 15599, Note_on_c, 0, 66, 52
2, 15600, Note_on_c, 0, 85, 39
2, 15618, Note_on_c, 0, 85, 0
2, 15620, Note_on_c, 0, 94, 67
2, 15638, Note_on_c, 0, 94, 0
2, 15640, Note_on_c, 0, 80, 46
2, 15658, Note_on_c, 0, 80, 0
2, 15660, Note_on_c, 0, 92, 64
2, 15677, Note_on_c, 0, 68, 0
2, 15678, Note_on_c, 0, 73, 0
2, 15678, Note_on_c, 0, 92, 0
2, 15680, Note_on_c, 0, 85, 35
2, 15681, Note_on_c, 0, 66, 0
2, 15698, Note_on_c, 0, 85, 0
2, 15700, Note_on_c, 0, 94, 54
2, 15718, Note_on_c, 0, 94, 0
2, 15720, Note_on_c, 0, 80, 37
2, 15738, Note_on_c, 0, 80, 0
2, 15740, Note_on_c, 0, 92, 56
2, 15758, Note_on_c, 0, 92, 0
2, 15760, Note_on_c, 0, 85, 34
2, 15778, Note_on_c, 0, 85, 0
2, 15780, Note_on_c, 0, 94, 50
2, 15798, Note_on_c, 0, 94, 0
2, 15807, Note_on_c, 0, 80, 34
2, 15815, Control_c, 0, 64, 0
2, 15825, Note_on_c, 0, 80, 0
2, 15832, Note_on_c, 0, 92, 52
2, 15834, Control_c, 0, 67, 127
2, 15842, Control_c, 0, 64, 127
2, 15844, Note_on_c, 0, 37, 56
2, 15850, Note_on_c, 0, 92, 0
2, 15856, Note_on_c, 0, 49, 62
2, 15859, Note_on_c, 0, 37, 0
2, 15867, Note_on_c, 0, 49, 0
2, 15882, Note_on_c, 0, 56, 62
2, 15895, Note_on_c, 0, 61, 62
2, 15902, Note_on_c, 0, 56, 0
2, 15905, Note_on_c, 0, 66, 65
2, 15907, Note_on_c, 0, 61, 0
2, 15914, Note_on_c, 0, 66, 0
2, 15914, Note_on_c, 0, 99, 67
2, 15992, Note_on_c, 0, 97, 52
2, 16002, Note_on_c, 0, 99, 0
2, 16005, Note_on_c, 0, 97, 0
2, 16036, Note_on_c, 0, 94, 44
2, 16044, Note_on_c, 0, 94, 0
2, 16070, Note_on_c, 0, 92, 47
2, 16080, Note_on_c, 0, 92, 0
2, 16099, Note_on_c, 0, 90, 52
2, 16109, Note_on_c, 0, 90, 0
2, 16126, Note_on_c, 0, 87, 45
2, 16135, Note_on_c, 0, 87, 0
2, 16155, Note_on_c, 0, 85, 43
2, 16161, Note_on_c, 0, 85, 0
2, 16183, Note_on_c, 0, 82, 54
2, 16190, Note_on_c, 0, 82, 0
2, 16215, Note_on_c, 0, 80, 48
2, 16223, Note_on_c, 0, 80, 0
2, 16245, Note_on_c, 0, 78, 56
2, 16254, Note_on_c, 0, 78, 0
2, 16276, Note_on_c, 0, 75, 57
2, 16286, Note_on_c, 0, 75, 0
2, 16306, Note_on_c, 0, 73, 44
2, 16314, Note_on_c, 0, 73, 0
2, 16344, Note_on_c, 0, 56, 50
2, 16345, Note_on_c, 0, 63, 45
2, 16346, Note_on_c, 0, 66, 45
2, 16346, Note_on_c, 0, 68, 62
2, 16346, Note_on_c, 0, 59, 46
2, 16346, Note_on_c, 0, 49, 31
2, 16516, Note_on_c, 0, 66, 0
2, 16516, Note_on_c, 0, 63, 0
2, 16519, Note_on_c, 0, 68, 0
2, 16560, Note_on_c, 0, 65, 39
2, 16560, Note_on_c, 0, 70, 60
2, 16562, Note_on_c, 0, 61, 37
2, 16566, Control_c, 0, 64, 0
2, 16582, Control_c, 0, 64, 127
2, 16731, Note_on_c, 0, 70, 0
2, 16740, Note_on_c, 0, 68, 55
2, 16756, Note_on_c, 0, 61, 0
2, 16757, Note_on_c, 0, 49, 0
2, 16758, Note_on_c, 0, 56, 0
2, 16760, Note_on_c, 0, 59, 0
2, 16777, Note_on_c, 0, 68, 0
2, 16786, Note_on_c, 0, 65, 0
2, 16800, Note_on_c, 0, 54, 55
2, 16801, Note_on_c, 0, 58, 57
2, 16801, Note_on_c, 0, 66, 67
2, 16804, Control_c, 0, 64, 0
2, 16822, Note_on_c, 0, 58, 0
2, 16823, Note_on_c, 0, 66, 0
2, 16861, Note_on_c, 0, 61, 43
2, 16862, Control_c, 0, 67, 0
2, 16919, Note_on_c, 0, 68, 50
2, 16919, Note_on_c, 0, 59, 39
2, 16920, Note_on_c, 0, 92, 42
2, 16920, Control_c, 0, 64, 127
2, 16924, Note_on_c, 0, 61, 0
2, 16938, Note_on_c, 0, 92, 0
2, 16940, Note_on_c, 0, 94, 55
2, 16942, Note_on_c, 0, 68, 0
2, 16958, Note_on_c, 0, 94, 0
2, 16960, Note_on_c, 0, 92, 54
2, 16978, Note_on_c, 0, 92, 0
2, 16979, Note_on_c, 0, 59, 0
2, 16979, Note_on_c, 0, 56, 44
2, 16979, Note_on_c, 0, 65, 48
2, 16980, Note_on_c, 0, 85, 51
2, 16998, Note_on_c, 0, 85, 0
2, 17000, Note_on_c, 0, 97, 50
2, 17001, Note_on_c, 0, 65, 0
2, 17018, Note_on_c, 0, 97, 0
2, 17020, Note_on_c, 0, 85, 59
2, 17023, Note_on_c, 0, 54, 0
2, 17036, Note_on_c, 0, 85, 0
2, 17038, Note_on_c, 0, 54, 42
2, 17039, Note_on_c, 0, 58, 40
2, 17039, Note_on_c, 0, 66, 50
2, 17040, Note_on_c, 0, 85, 52
2, 17045, Note_on_c, 0, 56, 0
2, 17048, Control_c, 0, 64, 0
2, 17058, Note_on_c, 0, 66, 0
2, 17058, Note_on_c, 0, 85, 0
2, 17059, Note_on_c, 0, 58, 0
2, 17060, Note_on_c, 0, 87, 48
2, 17078, Note_on_c, 0, 87, 0
2, 17080, Note_on_c, 0, 85, 50
2, 17098, Note_on_c, 0, 85, 0
2, 17100, Note_on_c, 0, 78, 43
2, 17100, Note_on_c, 0, 61, 44
2, 17118, Note_on_c, 0, 78, 0
2, 17120, Note_on_c, 0, 90, 49
2, 17138, Note_on_c, 0, 90, 0
2, 17140, Note_on_c, 0, 78, 39
2, 17158, Note_on_c, 0, 78, 0
2, 17159, Note_on_c, 0, 68, 49
2, 17159, Note_on_c, 0, 59, 42
2, 17160, Note_on_c, 0, 80, 46
2, 17162, Control_c, 0, 64, 127
2, 17164, Note_on_c, 0, 61, 0
2, 17178, Note_on_c, 0, 80, 0
2, 17180, Note_on_c, 0, 82, 46
2, 17183, Note_on_c, 0, 68, 0
2, 17198, Note_on_c, 0, 82, 0
2, 17200, Note_on_c, 0, 80, 43
2, 17218, Note_on_c, 0, 80, 0
2, 17219, Note_on_c, 0, 59, 0
2, 17219, Note_on_c, 0, 56, 43
2, 17219, Note_on_c, 0, 65, 50
2, 17220, Note_on_c, 0, 73, 59
2, 17241, Note_on_c, 0, 65, 0
2, 17248, Note_on_c, 0, 54, 0
2, 17259, Control_c, 0, 64, 0
2, 17268, Note_on_c, 0, 56, 0
2, 17278, Control_c, 0, 64, 127
2, 17279, Note_on_c, 0, 58, 43
2, 17279, Note_on_c, 0, 54, 46
2, 17279, Note_on_c, 0, 66, 48
2, 17298, Note_on_c, 0, 73, 0
2, 17300, Note_on_c, 0, 78, 43
2, 17318, Note_on_c, 0, 78, 0
2, 17320, Note_on_c, 0, 80, 50
2, 17325, Note_on_c, 0, 66, 0
2, 17328, Note_on_c, 0, 58, 0
2, 17330, Note_on_c, 0, 54, 0
2, 17338, Note_on_c, 0, 80, 0
2, 17340, Note_on_c, 0, 82, 47
2, 17346, Control_c, 0, 64, 0
2, 17358, Note_on_c, 0, 82, 0
2, 17360, Note_on_c, 0, 80, 47
2, 17378, Note_on_c, 0, 80, 0
2, 17380, Note_on_c, 0, 78, 45
2, 17392, Control_c, 0, 64, 127
2, 17398, Note_on_c, 0, 78, 0
2, 17400, Note_on_c, 0, 73, 37
2, 17400, Note_on_c, 0, 63, 43
2, 17400, Note_on_c, 0, 59, 58
2, 17401, Note_on_c, 0, 53, 53
2, 17418, Note_on_c, 0, 73, 0
2, 17420, Note_on_c, 0, 80, 54
2, 17438, Note_on_c, 0, 80, 0
2, 17440, Note_on_c, 0, 85, 45
2, 17441, Note_on_c, 0, 63, 0
2, 17458, Note_on_c, 0, 85, 0
2, 17459, Note_on_c, 0, 49, 58
2, 17459, Note_on_c, 0, 61, 48
2, 17460, Note_on_c, 0, 53, 0
2, 17460, Note_on_c, 0, 87, 42
2, 17472, Note_on_c, 0, 59, 0
2, 17478, Note_on_c, 0, 87, 0
2, 17480, Note_on_c, 0, 85, 46
2, 17483, Note_on_c, 0, 49, 0
2, 17483, Note_on_c, 0, 61, 0
2, 17498, Note_on_c, 0, 85, 0
2, 17500, Note_on_c, 0, 80, 42
2, 17502, Control_c, 0, 64, 0
2, 17517, Control_c, 0, 64, 127
2, 17518, Note_on_c, 0, 80, 0
2, 17519, Note_on_c, 0, 63, 53
2, 17520, Note_on_c, 0, 78, 45
2, 17520, Note_on_c, 0, 58, 57
2, 17521, Note_on_c, 0, 54, 57
2, 17538, Note_on_c, 0, 78, 0
2, 17540, Note_on_c, 0, 85, 42
2, 17558, Note_on_c, 0, 85, 0
2, 17560, Note_on_c, 0, 90, 48
2, 17561, Note_on_c, 0, 63, 0
2, 17576, Note_on_c, 0, 54, 0
2, 17578, Note_on_c, 0, 90, 0
2, 17580, Note_on_c, 0, 92, 46
2, 17580, Note_on_c, 0, 61, 39
2, 17580, Note_on_c, 0, 49, 58
2, 17586, Note_on_c, 0, 61, 0
2, 17591, Note_on_c, 0, 58, 0
2, 17595, Note_on_c, 0, 49, 0
2, 17598, Note_on_c, 0, 92, 0
2, 17600, Note_on_c, 0, 90, 45
2, 17618, Note_on_c, 0, 90, 0
2, 17620, Note_on_c, 0, 87, 41
2, 17625, Control_c, 0, 64, 0
2, 17638, Note_on_c, 0, 87, 0
2, 17639, Control_c, 0, 64, 127
2, 17640, Note_on_c, 0, 85, 33
2, 17640, Note_on_c, 0, 53, 58
2, 17640, Note_on_c, 0, 63, 43
2, 17641, Note_on_c, 0, 59, 58
2, 17658, Note_on_c, 0, 85, 0
2, 17660, Note_on_c, 0, 92, 43
2, 17678, Note_on_c, 0, 92, 0
2, 17680, Note_on_c, 0, 97, 44
2, 17681, Note_on_c, 0, 63, 0
2, 17698, Note_on_c, 0, 97, 0
2, 17699, Note_on_c, 0, 49, 56
2, 17700, Note_on_c, 0, 53, 0
2, 17700, Note_on_c, 0, 99, 42
2, 17701, Note_on_c, 0, 61, 41
2, 17710, Note_on_c, 0, 59, 0
2, 17718, Note_on_c, 0, 99, 0
2, 17720, Note_on_c, 0, 97, 49
2, 17727, Note_on_c, 0, 49, 0
2, 17727, Note_on_c, 0, 61, 0
2, 17738, Note_on_c, 0, 97, 0
2, 17740, Note_on_c, 0, 92, 38
2, 17743, Control_c, 0, 64, 0
2, 17758, Note_on_c, 0, 92, 0
2, 17759, Note_on_c, 0, 54, 41
2, 17759, Note_on_c, 0, 66, 47
2, 17760, Note_on_c, 0, 90, 47
2, 17760, Note_on_c, 0, 58, 44
2, 17778, Note_on_c, 0, 90, 0
2, 17780, Note_on_c, 0, 92, 52
2, 17790, Note_on_c, 0, 58, 0
2, 17791, Note_on_c, 0, 66, 0
2, 17798, Note_on_c, 0, 92, 0
2, 17800, Note_on_c, 0, 90, 33
2, 17818, Note_on_c, 0, 90, 0
2, 17819, Note_on_c, 0, 61, 44
2, 17820, Note_on_c, 0, 85, 41
2, 17838, Note_on_c, 0, 85, 0
2, 17840, Note_on_c, 0, 97, 49
2, 17858, Note_on_c, 0, 97, 0
2, 17860, Note_on_c, 0, 85, 44
2, 17876, Note_on_c, 0, 85, 0
2, 17879, Note_on_c, 0, 59, 44
2, 17879, Note_on_c, 0, 68, 49
2, 17879, Control_c, 0, 64, 127
2, 17880, Note_on_c, 0, 85, 48
2, 17883, Note_on_c, 0, 61, 0
2, 17898, Note_on_c, 0, 85, 0
2, 17900, Note_on_c, 0, 87, 47
2, 17901, Note_on_c, 0, 68, 0
2, 17918, Note_on_c, 0, 87, 0
2, 17920, Note_on_c, 0, 85, 50
2, 17938, Note_on_c, 0, 85, 0
2, 17940, Note_on_c, 0, 80, 40
2, 17940, Note_on_c, 0, 65, 48
2, 17941, Note_on_c, 0, 56, 43
2, 17943, Note_on_c, 0, 59, 0
2, 17958, Note_on_c, 0, 80, 0
2, 17960, Note_on_c, 0, 92, 53
2, 17961, Note_on_c, 0, 65, 0
2, 17978, Note_on_c, 0, 92, 0
2, 17979, Note_on_c, 0, 54, 0
2, 17980, Note_on_c, 0, 80, 43
2, 17997, Note_on_c, 0, 80, 0
2, 17999, Note_on_c, 0, 54, 39
2, 17999, Note_on_c, 0, 66, 49
2, 17999, Control_c, 0, 64, 0
2, 18000, Note_on_c, 0, 80, 52
2, 18001, Note_on_c, 0, 58, 48
2, 18012, Note_on_c, 0, 56, 0
2, 18018, Note_on_c, 0, 80, 0
2, 18019, Note_on_c, 0, 58, 0
2, 18019, Note_on_c, 0, 66, 0
2, 18020, Note_on_c, 0, 82, 44
2, 18038, Note_on_c, 0, 82, 0
2, 18040, Note_on_c, 0, 80, 46
2, 18058, Note_on_c, 0, 80, 0
2, 18059, Note_on_c, 0, 61, 39
2, 18060, Note_on_c, 0, 78, 34
2, 18078, Note_on_c, 0, 78, 0
2, 18080, Note_on_c, 0, 90, 46
2, 18098, Note_on_c, 0, 90, 0
2, 18100, Note_on_c, 0, 78, 38
2, 18118, Note_on_c, 0, 78, 0
2, 18118, Control_c, 0, 64, 127
2, 18119, Note_on_c, 0, 68, 47
2, 18119, Note_on_c, 0, 59, 41
2, 18120, Note_on_c, 0, 61, 0
2, 18120, Note_on_c, 0, 73, 63
2, 18138, Note_on_c, 0, 68, 0
2, 18175, Control_c, 0, 64, 0
2, 18179, Note_on_c, 0, 59, 0
2, 18180, Note_on_c, 0, 56, 42
2, 18181, Note_on_c, 0, 65, 49
2, 18198, Note_on_c, 0, 73, 0
2, 18199, Note_on_c, 0, 54, 0
2, 18204, Note_on_c, 0, 65, 0
2, 18220, Note_on_c, 0, 56, 0
2, 18238, Control_c, 0, 64, 127
2, 18239, Note_on_c, 0, 54, 41
2, 18239, Note_on_c, 0, 66, 38
2, 18239, Note_on_c, 0, 58, 50
2, 18260, Note_on_c, 0, 78, 39
2, 18278, Note_on_c, 0, 78, 0
2, 18280, Note_on_c, 0, 80, 48
2, 18284, Note_on_c, 0, 58, 0
2, 18284, Note_on_c, 0, 66, 0
2, 18286, Note_on_c, 0, 54, 0
2, 18298, Note_on_c, 0, 80, 0
2, 18300, Note_on_c, 0, 82, 42
2, 18301, Note_on_c, 0, 61, 46
2, 18318, Note_on_c, 0, 82, 0
2, 18320, Note_on_c, 0, 80, 47
2, 18333, Control_c, 0, 64, 0
2, 18334, Note_on_c, 0, 61, 0
2, 18338, Note_on_c, 0, 80, 0
2, 18340, Note_on_c, 0, 78, 48
2, 18352, Control_c, 0, 64, 127
2, 18358, Note_on_c, 0, 78, 0
2, 18359, Note_on_c, 0, 63, 32
2, 18359, Note_on_c, 0, 59, 40
2, 18360, Note_on_c, 0, 73, 47
2, 18360, Note_on_c, 0, 53, 51
2, 18378, Note_on_c, 0, 73, 0
2, 18380, Note_on_c, 0, 80, 47
2, 18398, Note_on_c, 0, 80, 0
2, 18400, Note_on_c, 0, 63, 0
2, 18400, Note_on_c, 0, 85, 50
2, 18418, Note_on_c, 0, 85, 0
2, 18420, Note_on_c, 0, 87, 48
2, 18421, Note_on_c, 0, 49, 56
2, 18421, Note_on_c, 0, 61, 38
2, 18429, Note_on_c, 0, 59, 0
2, 18429, Note_on_c, 0, 53, 0
2, 18438, Note_on_c, 0, 87, 0
2, 18440, Note_on_c, 0, 85, 49
2, 18458, Note_on_c, 0, 85, 0
2, 18458, Note_on_c, 0, 61, 0
2, 18460, Note_on_c, 0, 80, 56
2, 18462, Note_on_c, 0, 49, 0
2, 18465, Control_c, 0, 64, 0
2, 18478, Note_on_c, 0, 80, 0
2, 18478, Control_c, 0, 64, 127
2, 18479, Note_on_c, 0, 58, 59
2, 18479, Note_on_c, 0, 63, 48
2, 18480, Note_on_c, 0, 78, 45
2, 18480, Note_on_c, 0, 54, 56
2, 18498, Note_on_c, 0, 78, 0
2, 18500, Note_on_c, 0, 85, 50
2, 18518, Note_on_c, 0, 85, 0
2, 18519, Note_on_c, 0, 63, 0
2, 18520, Note_on_c, 0, 90, 50
2, 18538, Note_on_c, 0, 90, 0
2, 18540, Note_on_c, 0, 92, 51
2, 18541, Note_on_c, 0, 49, 53
2, 18541, Note_on_c, 0, 61, 40
2, 18558, Note_on_c, 0, 92, 0
2, 18558, Note_on_c, 0, 54, 0
2, 18560, Note_on_c, 0, 90, 60
2, 18565, Note_on_c, 0, 58, 0
2, 18575, Note_on_c, 0, 61, 0
2, 18578, Note_on_c, 0, 90, 0
2, 18580, Note_on_c, 0, 85, 56
2, 18581, Note_on_c, 0, 49, 0
2, 18586, Control_c, 0, 64, 0
2, 18598, Note_on_c, 0, 85, 0
2, 18599, Control_c, 0, 64, 127
2, 18600, Note_on_c, 0, 80, 47
2, 18600, Note_on_c, 0, 63, 43
2, 18600, Note_on_c, 0, 59, 62
2, 18601, Note_on_c, 0, 53, 54
2, 18618, Note_on_c, 0, 80, 0
2, 18620, Note_on_c, 0, 85, 52
2, 18635, Note_on_c, 0, 63, 0
2, 18638, Note_on_c, 0, 85, 0
2, 18640, Note_on_c, 0, 92, 66
2, 18658, Note_on_c, 0, 92, 0
2, 18660, Note_on_c, 0, 94, 62
2, 18661, Note_on_c, 0, 49, 64
2, 18661, Note_on_c, 0, 61, 43
2, 18665, Note_on_c, 0, 53, 0
2, 18677, Note_on_c, 0, 59, 0
2, 18678, Note_on_c, 0, 94, 0
2, 18679, Note_on_c, 0, 49, 0
2, 18680, Note_on_c, 0, 92, 56
2, 18682, Note_on_c, 0, 61, 0
2, 18692, Control_c, 0, 64, 0
2, 18698, Note_on_c, 0, 92, 0
2, 18700, Note_on_c, 0, 85, 60
2, 18702, Note_on_c, 0, 54, 68
2, 18713, Note_on_c, 0, 61, 64
2, 18714, Control_c, 0, 64, 127
2, 18716, Note_on_c, 0, 54, 0
2, 18718, Note_on_c, 0, 85, 0
2, 18720, Note_on_c, 0, 94, 80
2, 18724, Note_on_c, 0, 70, 72
2, 18732, Note_on_c, 0, 61, 0
2, 18736, Note_on_c, 0, 70, 0
2, 18738, Note_on_c, 0, 94, 0
2, 18740, Note_on_c, 0, 85, 52
2, 18758, Note_on_c, 0, 85, 0
2, 18760, Note_on_c, 0, 92, 55
2, 18778, Note_on_c, 0, 92, 0
2, 18780, Note_on_c, 0, 82, 61
2, 18798, Note_on_c, 0, 82, 0
2, 18800, Note_on_c, 0, 92, 64
2, 18818, Note_on_c, 0, 92, 0
2, 18820, Note_on_c, 0, 85, 74
2, 18835, Control_c, 0, 64, 0
2, 18838, Note_on_c, 0, 85, 0
2, 18840, Note_on_c, 0, 90, 60
2, 18858, Note_on_c, 0, 90, 0
2, 18860, Note_on_c, 0, 82, 57
2, 18878, Note_on_c, 0, 82, 0
2, 18878, Note_on_c, 0, 49, 63
2, 18880, Note_on_c, 0, 87, 60
2, 18890, Note_on_c, 0, 56, 72
2, 18893, Control_c, 0, 64, 127
2, 18896, Note_on_c, 0, 49, 0
2, 18897, Note_on_c, 0, 59, 66
2, 18898, Note_on_c, 0, 87, 0
2, 18900, Note_on_c, 0, 80, 52
2, 18910, Note_on_c, 0, 65, 64
2, 18918, Note_on_c, 0, 80, 0
2, 18920, Note_on_c, 0, 85, 66
2, 18931, Note_on_c, 0, 56, 0
2, 18931, Note_on_c, 0, 59, 0
2, 18932, Note_on_c, 0, 65, 0
2, 18938, Note_on_c, 0, 85, 0
2, 18940, Note_on_c, 0, 73, 53
2, 18948, Control_c, 0, 64, 0
2, 18958, Note_on_c, 0, 73, 0
2, 18958, Control_c, 0, 64, 127
2, 18959, Note_on_c, 0, 58, 73
2, 18959, Note_on_c, 0, 54, 58
2, 18959, Note_on_c, 0, 66, 72
2, 18960, Note_on_c, 0, 82, 62
2, 18978, Note_on_c, 0, 82, 0
2, 18980, Note_on_c, 0, 73, 54
2, 18998, Note_on_c, 0, 73, 0
2, 19000, Note_on_c, 0, 80, 74
2, 19018, Note_on_c, 0, 80, 0
2, 19020, Note_on_c, 0, 70, 65
2, 19038, Note_on_c, 0, 70, 0
2, 19040, Note_on_c, 0, 80, 68
2, 19052, Note_on_c, 0, 66, 0
2, 19056, Note_on_c, 0, 58, 0
2, 19058, Note_on_c, 0, 54, 0
2, 19058, Note_on_c, 0, 80, 0
2, 19060, Note_on_c, 0, 73, 57
2, 19078, Note_on_c, 0, 73, 0
2, 19078, Control_c, 0, 64, 0
2, 19080, Note_on_c, 0, 78, 63
2, 19098, Note_on_c, 0, 78, 0
2, 19100, Note_on_c, 0, 70, 57
2, 19118, Note_on_c, 0, 70, 0
2, 19120, Note_on_c, 0, 75, 61
2, 19127, Note_on_c, 0, 37, 67
2, 19129, Control_c, 0, 64, 127
2, 19138, Note_on_c, 0, 75, 0
2, 19140, Note_on_c, 0, 37, 0
2, 19140, Note_on_c, 0, 68, 50
2, 19140, Note_on_c, 0, 47, 66
2, 19149, Note_on_c, 0, 53, 76
2, 19157, Note_on_c, 0, 47, 0
2, 19158, Note_on_c, 0, 68, 0
2, 19159, Note_on_c, 0, 53, 0
2, 19160, Note_on_c, 0, 73, 64
2, 19178, Note_on_c, 0, 73, 0
2, 19180, Note_on_c, 0, 61, 62
2, 19186, Control_c, 0, 64, 0
2, 19198, Note_on_c, 0, 61, 0
2, 19199, Control_c, 0, 64, 127
2, 19200, Note_on_c, 0, 70, 68
2, 19201, Note_on_c, 0, 54, 65
2, 19201, Note_on_c, 0, 46, 73
2, 19202, Note_on_c, 0, 42, 69
2, 19218, Note_on_c, 0, 70, 0
2, 19220, Note_on_c, 0, 61, 59
2, 19238, Note_on_c, 0, 61, 0
2, 19240, Note_on_c, 0, 68, 68
2, 19258, Note_on_c, 0, 68, 0
2, 19260, Note_on_c, 0, 58, 61
2, 19278, Note_on_c, 0, 58, 0
2, 19280, Note_on_c, 0, 68, 64
2, 19286, Note_on_c, 0, 54, 0
2, 19286, Note_on_c, 0, 46, 0
2, 19287, Note_on_c, 0, 42, 0
2, 19298, Note_on_c, 0, 68, 0
2, 19300, Note_on_c, 0, 61, 54
2, 19313, Control_c, 0, 64, 0
2, 19318, Note_on_c, 0, 61, 0
2, 19320, Note_on_c, 0, 66, 63
2, 19338, Note_on_c, 0, 66, 0
2, 19340, Note_on_c, 0, 58, 60
2, 19358, Note_on_c, 0, 58, 0
2, 19360, Note_on_c, 0, 63, 67
2, 19378, Note_on_c, 0, 63, 0
2, 19380, Note_on_c, 0, 56, 70
2, 19381, Note_on_c, 0, 37, 77
2, 19398, Note_on_c, 0, 56, 0
2, 19400, Note_on_c, 0, 61, 68
2, 19418, Note_on_c, 0, 61, 0
2, 19420, Note_on_c, 0, 49, 72
2, 19436, Control_c, 0, 64, 127
2, 19438, Note_on_c, 0, 49, 0
2, 19440, Note_on_c, 0, 58, 70
2, 19440, Note_on_c, 0, 30, 80
2, 19441, Note_on_c, 0, 42, 78
2, 19444, Note_on_c, 0, 37, 0
2, 19458, Note_on_c, 0, 58, 0
2, 19460, Note_on_c, 0, 54, 68
2, 19474, Note_on_c, 0, 30, 0
2, 19474, Note_on_c, 0, 42, 0
2, 19478, Note_on_c, 0, 54, 0
2, 19480, Note_on_c, 0, 63, 73
2, 19497, Control_c, 0, 64, 0
2, 19498, Note_on_c, 0, 63, 0
2, 19500, Note_on_c, 0, 49, 70
2, 19501, Note_on_c, 0, 37, 77
2, 19518, Note_on_c, 0, 49, 0
2, 19520, Note_on_c, 0, 61, 68
2, 19538, Note_on_c, 0, 61, 0
2, 19540, Note_on_c, 0, 56, 68
2, 19553, Control_c, 0, 64, 127
2, 19558, Note_on_c, 0, 56, 0
2, 19560, Note_on_c, 0, 58, 66
2, 19561, Note_on_c, 0, 30, 77
2, 19561, Note_on_c, 0, 42, 78
2, 19565, Note_on_c, 0, 37, 0
2, 19578, Note_on_c, 0, 58, 0
2, 19580, Note_on_c, 0, 54, 58
2, 19585, Note_on_c, 0, 42, 0
2, 19590, Note_on_c, 0, 30, 0
2, 19598, Note_on_c, 0, 54, 0
2, 19600, Note_on_c, 0, 63, 67
2, 19615, Control_c, 0, 64, 0
2, 19618, Note_on_c, 0, 63, 0
2, 19619, Note_on_c, 0, 37, 78
2, 19620, Note_on_c, 0, 49, 68
2, 19638, Note_on_c, 0, 49, 0
2, 19640, Note_on_c, 0, 61, 69
2, 19658, Note_on_c, 0, 61, 0
2, 19660, Note_on_c, 0, 56, 65
2, 19676, Control_c, 0, 64, 127
2, 19678, Note_on_c, 0, 56, 0
2, 19679, Note_on_c, 0, 30, 82
2, 19679, Note_on_c, 0, 42, 87
2, 19680, Note_on_c, 0, 58, 70
2, 19686, Note_on_c, 0, 37, 0
2, 19704, Note_on_c, 0, 42, 0
2, 19709, Note_on_c, 0, 30, 0
2, 19732, Note_on_c, 0, 58, 0
2, 19740, Note_on_c, 0, 61, 72
2, 19740, Note_on_c, 0, 58, 72
2, 19758, Note_on_c, 0, 58, 0
2, 19758, Note_on_c, 0, 61, 0
2, 19760, Note_on_c, 0, 56, 65
2, 19778, Note_on_c, 0, 56, 0
2, 19780, Note_on_c, 0, 54, 65
2, 19798, Note_on_c, 0, 54, 0
2, 19800, Note_on_c, 0, 66, 77
2, 19800, Note_on_c, 0, 63, 77
2, 19818, Note_on_c, 0, 63, 0
2, 19818, Note_on_c, 0, 66, 0
2, 19820, Note_on_c, 0, 61, 63
2, 19838, Note_on_c, 0, 61, 0
2, 19840, Note_on_c, 0, 58, 55
2, 19858, Note_on_c, 0, 58, 0
2, 19860, Note_on_c, 0, 70, 75
2, 19860, Note_on_c, 0, 66, 75
2, 19860, Note_on_c, 0, 30, 59
2, 19878, Note_on_c, 0, 30, 0
2, 19878, Note_on_c, 0, 66, 0
2, 19878, Note_on_c, 0, 70, 0
2, 19880, Note_on_c, 0, 63, 59
2, 19880, Note_on_c, 0, 37, 54
2, 19898, Note_on_c, 0, 37, 0
2, 19898, Note_on_c, 0, 63, 0
2, 19900, Note_on_c, 0, 61, 57
2, 19900, Note_on_c, 0, 46, 55
2, 19918, Note_on_c, 0, 46, 0
2, 19918, Note_on_c, 0, 61, 0
2, 19920, Note_on_c, 0, 73, 77
2, 19920, Note_on_c, 0, 70, 77
2, 19920, Note_on_c, 0, 30, 82
2, 19938, Note_on_c, 0, 30, 0
2, 19938, Note_on_c, 0, 70, 0
2, 19938, Note_on_c, 0, 73, 0
2, 19940, Note_on_c, 0, 68, 62
2, 19940, Note_on_c, 0, 37, 54
2, 19958, Note_on_c, 0, 37, 0
2, 19958, Note_on_c, 0, 68, 0
2, 19960, Note_on_c, 0, 66, 62
2, 19960, Note_on_c, 0, 46, 56
2, 19978, Note_on_c, 0, 46, 0
2, 19978, Note_on_c, 0, 66, 0
2, 19980, Note_on_c, 0, 75, 77
2, 19980, Note_on_c, 0, 78, 77
2, 19980, Note_on_c, 0, 34, 74
2, 19998, Note_on_c, 0, 34, 0
2, 19998, Note_on_c, 0, 78, 0
2, 19998, Note_on_c, 0, 75, 0
2, 20000, Note_on_c, 0, 73, 59
2, 20000, Note_on_c, 0, 42, 61
2, 20018, Note_on_c, 0, 42, 0
2, 20018, Note_on_c, 0, 73, 0
2, 20020, Note_on_c, 0, 70, 54
2, 20020, Note_on_c, 0, 49, 51
2, 20038, Note_on_c, 0, 49, 0
2, 20038, Note_on_c, 0, 70, 0
2, 20040, Note_on_c, 0, 82, 75
2, 20040, Note_on_c, 0, 78, 75
2, 20040, Note_on_c, 0, 37, 78
2, 20058, Note_on_c, 0, 37, 0
2, 20058, Note_on_c, 0, 78, 0
2, 20058, Note_on_c, 0, 82, 0
2, 20060, Note_on_c, 0, 75, 54
2, 20060, Note_on_c, 0, 46, 57
2, 20078, Note_on_c, 0, 46, 0
2, 20078, Note_on_c, 0, 75, 0
2, 20080, Note_on_c, 0, 73, 59
2, 20080, Note_on_c, 0, 54, 48
2, 20098, Note_on_c, 0, 54, 0
2, 20098, Note_on_c, 0, 73, 0
2, 20100, Note_on_c, 0, 85, 76
2, 20100, Note_on_c, 0, 82, 76
2, 20100, Note_on_c, 0, 42, 72
2, 20118, Note_on_c, 0, 42, 0
2, 20118, Note_on_c, 0, 82, 0
2, 20118, Note_on_c, 0, 85, 0
2, 20120, Note_on_c, 0, 80, 64
2, 20120, Note_on_c, 0, 49, 54
2, 20138, Note_on_c, 0, 49, 0
2, 20138, Note_on_c, 0, 80, 0
2, 20140, Note_on_c, 0, 78, 52
2, 20140, Note_on_c, 0, 58, 54
2, 20158, Note_on_c, 0, 58, 0
2, 20158, Note_on_c, 0, 78, 0
2, 20160, Note_on_c, 0, 90, 77
2, 20160, Note_on_c, 0, 87, 77
2, 20160, Note_on_c, 0, 46, 77
2, 20178, Note_on_c, 0, 46, 0
2, 20178, Note_on_c, 0, 87, 0
2, 20178, Note_on_c, 0, 90, 0
2, 20180, Note_on_c, 0, 85, 58
2, 20180, Note_on_c, 0, 54, 57
2, 20198, Note_on_c, 0, 54, 0
2, 20198, Note_on_c, 0, 85, 0
2, 20200, Note_on_c, 0, 82, 55
2, 20200, Note_on_c, 0, 61, 54
2, 20218, Note_on_c, 0, 61, 0
2, 20218, Note_on_c, 0, 82, 0
2, 20220, Note_on_c, 0, 94, 77
2, 20220, Note_on_c, 0, 90, 77
2, 20220, Note_on_c, 0, 49, 62
2, 20238, Note_on_c, 0, 49, 0
2, 20238, Note_on_c, 0, 90, 0
2, 20238, Note_on_c, 0, 94, 0
2, 20240, Note_on_c, 0, 87, 56
2, 20240, Note_on_c, 0, 58, 63
2, 20258, Note_on_c, 0, 58, 0
2, 20258, Note_on_c, 0, 87, 0
2, 20260, Note_on_c, 0, 85, 54
2, 20260, Note_on_c, 0, 66, 54
2, 20278, Note_on_c, 0, 66, 0
2, 20278, Note_on_c, 0, 85, 0
2, 20280, Note_on_c, 0, 90, 83
2, 20280, Note_on_c, 0, 87, 83
2, 20280, Note_on_c, 0, 54, 70
2, 20298, Note_on_c, 0, 54, 0
2, 20298, Note_on_c, 0, 87, 0
2, 20298, Note_on_c, 0, 90, 0
2, 20300, Note_on_c, 0, 85, 62
2, 20300, Note_on_c, 0, 58, 61
2, 20318, Note_on_c, 0, 58, 0
2, 20318, Note_on_c, 0, 85, 0
2, 20320, Note_on_c, 0, 82, 62
2, 20320, Note_on_c, 0, 66, 62
2, 20338, Note_on_c, 0, 66, 0
2, 20338, Note_on_c, 0, 82, 0
2, 20340, Note_on_c, 0, 94, 84
2, 20340, Note_on_c, 0, 90, 84
2, 20340, Note_on_c, 0, 49, 71
2, 20358, Note_on_c, 0, 49, 0
2, 20358, Note_on_c, 0, 90, 0
2, 20358, Note_on_c, 0, 94, 0
2, 20360, Note_on_c, 0, 87, 58
2, 20360, Note_on_c, 0, 58, 66
2, 20378, Note_on_c, 0, 58, 0
2, 20378, Note_on_c, 0, 87, 0
2, 20380, Note_on_c, 0, 85, 64
2, 20380, Note_on_c, 0, 66, 60
2, 20398, Note_on_c, 0, 66, 0
2, 20398, Note_on_c, 0, 85, 0
2, 20400, Note_on_c, 0, 90, 84
2, 20400, Note_on_c, 0, 87, 84
2, 20400, Note_on_c, 0, 54, 71
2, 20418, Note_on_c, 0, 54, 0
2, 20418, Note_on_c, 0, 87, 0
2, 20418, Note_on_c, 0, 90, 0
2, 20420, Note_on_c, 0, 85, 63
2, 20420, Note_on_c, 0, 58, 60
2, 20438, Note_on_c, 0, 58, 0
2, 20438, Note_on_c, 0, 85, 0
2, 20440, Note_on_c, 0, 82, 64
2, 20440, Note_on_c, 0, 66, 58
2, 20458, Note_on_c, 0, 66, 0
2, 20458, Note_on_c, 0, 82, 0
2, 20460, Note_on_c, 0, 94, 89
2, 20460, Note_on_c, 0, 90, 89
2, 20460, Note_on_c, 0, 49, 85
2, 20478, Note_on_c, 0, 49, 0
2, 20478, Note_on_c, 0, 90, 0
2, 20478, Note_on_c, 0, 94, 0
2, 20480, Note_on_c, 0, 87, 71
2, 20480, Note_on_c, 0, 58, 51
2, 20498, Note_on_c, 0, 58, 0
2, 20498, Note_on_c, 0, 87, 0
2, 20500, Note_on_c, 0, 85, 65
2, 20500, Note_on_c, 0, 66, 52
2, 20518, Note_on_c, 0, 66, 0
2, 20518, Note_on_c, 0, 85, 0
2, 20520, Note_on_c, 0, 87, 86
2, 20520, Note_on_c, 0, 90, 86
2, 20520, Note_on_c, 0, 54, 90
2, 20538, Note_on_c, 0, 54, 0
2, 20538, Note_on_c, 0, 90, 0
2, 20538, Note_on_c, 0, 87, 0
2, 20540, Note_on_c, 0, 85, 70
2, 20540, Note_on_c, 0, 58, 56
2, 20558, Note_on_c, 0, 58, 0
2, 20558, Note_on_c, 0, 85, 0
2, 20560, Note_on_c, 0, 82, 63
2, 20560, Note_on_c, 0, 66, 64
2, 20578, Note_on_c, 0, 66, 0
2, 20578, Note_on_c, 0, 82, 0
2, 20580, Note_on_c, 0, 90, 87
2, 20580, Note_on_c, 0, 94, 87
2, 20580, Note_on_c, 0, 49, 89
2, 20598, Note_on_c, 0, 49, 0
2, 20598, Note_on_c, 0, 94, 0
2, 20598, Note_on_c, 0, 90, 0
2, 20600, Note_on_c, 0, 87, 64
2, 20600, Note_on_c, 0, 58, 57
2, 20618, Note_on_c, 0, 58, 0
2, 20618, Note_on_c, 0, 87, 0
2, 20620, Note_on_c, 0, 85, 63
2, 20620, Note_on_c, 0, 66, 69
2, 20638, Note_on_c, 0, 66, 0
2, 20638, Note_on_c, 0, 85, 0
2, 20640, Note_on_c, 0, 90, 92
2, 20640, Note_on_c, 0, 82, 92
2, 20640, Note_on_c, 0, 54, 96
2, 20669, Note_on_c, 0, 54, 0
2, 20669, Note_on_c, 0, 82, 0
2, 20669, Note_on_c, 0, 90, 0
2, 20698, Control_c, 0, 64, 0
2, 20706, Control_c, 0, 64, 127
2, 20718, Note_on_c, 0, 78, 82
2, 20718, Note_on_c, 0, 54, 82
2, 20719, Note_on_c, 0, 90, 91
2, 20719, Note_on_c, 0, 66, 91
2, 20727, Note_on_c, 0, 66, 0
2, 20727, Note_on_c, 0, 90, 0
2, 20729, Note_on_c, 0, 54, 0
2, 20729, Note_on_c, 0, 78, 0
2, 20747, Note_on_c, 0, 87, 89
2, 20747, Note_on_c, 0, 63, 89
2, 20748, Note_on_c, 0, 75, 87
2, 20748, Note_on_c, 0, 51, 87
2, 20755, Note_on_c, 0, 63, 0
2, 20755, Note_on_c, 0, 87, 0
2, 20757, Note_on_c, 0, 75, 0
2, 20757, Note_on_c, 0, 51, 0
2, 20774, Note_on_c, 0, 85, 91
2, 20774, Note_on_c, 0, 61, 91
2, 20775, Note_on_c, 0, 73, 87
2, 20775, Note_on_c, 0, 49, 87
2, 20782, Note_on_c, 0, 49, 0
2, 20782, Note_on_c, 0, 73, 0
2, 20783, Note_on_c, 0, 61, 0
2, 20783, Note_on_c, 0, 85, 0
2, 20800, Note_on_c, 0, 82, 93
2, 20800, Note_on_c, 0, 58, 93
2, 20801, Note_on_c, 0, 70, 85
2, 20801, Note_on_c, 0, 46, 85
2, 20807, Note_on_c, 0, 46, 0
2, 20807, Note_on_c, 0, 82, 0
2, 20807, Note_on_c, 0, 58, 0
2, 20807, Note_on_c, 0, 70, 0
2, 20826, Note_on_c, 0, 80, 95
2, 20826, Note_on_c, 0, 68, 85
2, 20826, Note_on_c, 0, 56, 95
2, 20826, Note_on_c, 0, 44, 85
2, 20833, Note_on_c, 0, 44, 0
2, 20833, Note_on_c, 0, 80, 0
2, 20833, Note_on_c, 0, 68, 0
2, 20833, Note_on_c, 0, 56, 0
2, 20851, Note_on_c, 0, 78, 93
2, 20851, Note_on_c, 0, 66, 83
2, 20851, Note_on_c, 0, 54, 93
2, 20851, Note_on_c, 0, 42, 83
2, 20858, Note_on_c, 0, 42, 0
2, 20858, Note_on_c, 0, 78, 0
2, 20858, Note_on_c, 0, 66, 0
2, 20858, Note_on_c, 0, 54, 0
2, 20879, Note_on_c, 0, 75, 95
2, 20879, Note_on_c, 0, 51, 95
2, 20880, Note_on_c, 0, 63, 83
2, 20880, Note_on_c, 0, 39, 83
2, 20886, Note_on_c, 0, 39, 0
2, 20886, Note_on_c, 0, 75, 0
2, 20886, Note_on_c, 0, 51, 0
2, 20886, Note_on_c, 0, 63, 0
2, 20906, Note_on_c, 0, 61, 83
2, 20906, Note_on_c, 0, 37, 83
2, 20907, Note_on_c, 0, 73, 95
2, 20907, Note_on_c, 0, 49, 95
2, 20914, Note_on_c, 0, 49, 0
2, 20914, Note_on_c, 0, 61, 0
2, 20914, Note_on_c, 0, 37, 0
2, 20914, Note_on_c, 0, 73, 0
2, 20933, Note_on_c, 0, 58, 83
2, 20933, Note_on_c, 0, 34, 83
2, 20934, Note_on_c, 0, 70, 91
2, 20934, Note_on_c, 0, 46, 91
2, 20941, Note_on_c, 0, 46, 0
2, 20941, Note_on_c, 0, 58, 0
2, 20941, Note_on_c, 0, 34, 0
2, 20941, Note_on_c, 0, 70, 0
2, 20960, Note_on_c, 0, 56, 87
2, 20960, Note_on_c, 0, 32, 87
2, 20961, Note_on_c, 0, 68, 95
2, 20961, Note_on_c, 0, 44, 95
2, 20968, Note_on_c, 0, 44, 0
2, 20968, Note_on_c, 0, 68, 0
2, 20969, Note_on_c, 0, 32, 0
2, 20969, Note_on_c, 0, 56, 0
2, 20976, Control_c, 0, 64, 0
2, 20990, Note_on_c, 0, 66, 98
2, 20990, Note_on_c, 0, 54, 95
2, 20990, Note_on_c, 0, 42, 98
2, 20990, Note_on_c, 0, 30, 95
2, 20991, Control_c, 0, 64, 127
2, 20998, Note_on_c, 0, 30, 0
2, 20998, Note_on_c, 0, 66, 0
2, 20998, Note_on_c, 0, 54, 0
2, 20998, Note_on_c, 0, 42, 0
2, 21116, Note_on_c, 0, 54, 76
2, 21125, Note_on_c, 0, 61, 86
2, 21130, Note_on_c, 0, 54, 0
2, 21143, Note_on_c, 0, 82, 75
2, 21145, Note_on_c, 0, 70, 92
2, 21151, Note_on_c, 0, 85, 90
2, 21160, Note_on_c, 0, 61, 0
2, 21163, Note_on_c, 0, 90, 86
2, 21166, Note_on_c, 0, 70, 0
2, 21167, Note_on_c, 0, 94, 92
2, 21175, Note_on_c, 0, 82, 0
2, 21183, Note_on_c, 0, 85, 0
2, 21186, Note_on_c, 0, 90, 0
2, 21195, Note_on_c, 0, 94, 0
2, 21344, Note_on_c, 0, 54, 105
2, 21345, Note_on_c, 0, 30, 99
2, 21345, Note_on_c, 0, 42, 100
2, 21378, Control_c, 0, 64, 0
2, 21434, Control_c, 0, 64, 127
2, 22032, Note_on_c, 0, 30, 0
2, 22033, Note_on_c, 0, 42, 0
2, 22033, Note_on_c, 0, 54, 0
2, 22274, Control_c, 0, 64, 0
2, 22274, End_track
3, 0, Start_track
3, 0, MIDI_port, 0
3, 0, Title_t, "in Gb Major"
3, 0, End_track
4, 0, Start_track
4, 0, MIDI_port, 0
4, 0, Title_t, "Op. 10, No. 5"
4, 0, End_track
5, 0, Start_track
5, 0, MIDI_port, 0
5, 0, Title_t, "Chopin, Frederic"
5, 0, End_track
6, 0, Start_track
6, 0, MIDI_port, 0
6, 0, Title_t, "Sequenced by Anousone Kitisa"
6, 0, End_track
0, 0, End_of_file
