0, 0, Header, 1, 4, 48
1, 0, Start_track
1, 0, Tempo, 500000
1, 0, Time_signature, 3, 2, 24, 8
1, 0, Key_signature, -2, "minor"
1, 0, Title_t, "F.F.Chopin  Nocturne No.6 in G minor Op.15-3"
1, 0, Text_t, "CVS Ver5.05 Created"
1, 96, Tempo, 1000000
1, 144, Tempo, 769230
1, 192, Tempo, 508474
1, 240, Tempo, 618556
1, 288, Tempo, 458015
1, 312, Tempo, 422535
1, 336, Tempo, 444444
1, 384, Tempo, 333333
1, 432, Tempo, 392156
1, 456, Tempo, 363636
1, 480, Tempo, 618556
1, 528, Tempo, 555555
1, 576, Tempo, 441176
1, 624, Tempo, 357142
1, 720, Tempo, 372670
1, 768, Tempo, 340909
1, 864, Tempo, 422535
1, 912, Tempo, 618556
1, 960, Tempo, 382165
1, 1008, Tempo, 594059
1, 1056, Tempo, 428571
1, 1104, Tempo, 500000
1, 1152, Tempo, 400000
1, 1200, Tempo, 327868
1, 1248, Tempo, 382165
1, 1296, Tempo, 357142
1, 1344, Tempo, 333333
1, 1392, Tempo, 400000
1, 1440, Tempo, 348837
1, 1488, Tempo, 363636
1, 1536, Tempo, 400000
1, 1584, Tempo, 382165
1, 1632, Tempo, 422535
1, 1680, Tempo, 472440
1, 1728, Tempo, 480000
1, 1776, Tempo, 472440
1, 1824, Tempo, 731707
1, 1872, Tempo, 571428
1, 1920, Tempo, 372670
1, 1968, Tempo, 363636
1, 2016, Tempo, 400000
1, 2040, Tempo, 410958
1, 2064, Tempo, 458015
1, 2112, Tempo, 333333
1, 2160, Tempo, 363636
1, 2184, Tempo, 382165
1, 2208, Tempo, 571428
1, 2256, Tempo, 594059
1, 2304, Tempo, 372670
1, 2352, Tempo, 333333
1, 2448, Tempo, 357142
1, 2496, Tempo, 392156
1, 2592, Tempo, 363636
1, 2640, Tempo, 410958
1, 2736, Tempo, 400000
1, 2784, Tempo, 372670
1, 2832, Tempo, 357142
1, 2880, Tempo, 363636
1, 2928, Tempo, 320855
1, 3024, Tempo, 348837
1, 3072, Tempo, 314136
1, 3120, Tempo, 357142
1, 3168, Tempo, 372670
1, 3216, Tempo, 348837
1, 3264, Tempo, 382165
1, 3312, Tempo, 392156
1, 3360, Tempo, 363636
1, 3408, Tempo, 535714
1, 3456, Tempo, 444444
1, 3504, Tempo, 535714
1, 3552, Tempo, 800000
1, 3600, Tempo, 555555
1, 3648, Tempo, 400000
1, 3696, Tempo, 444444
1, 3744, Tempo, 410958
1, 3768, Tempo, 422535
1, 3792, Tempo, 458015
1, 3840, Tempo, 333333
1, 3888, Tempo, 392156
1, 3912, Tempo, 363636
1, 3936, Tempo, 618556
1, 3984, Tempo, 555555
1, 4032, Tempo, 441176
1, 4080, Tempo, 357142
1, 4176, Tempo, 372670
1, 4224, Tempo, 340909
1, 4320, Tempo, 422535
1, 4368, Tempo, 618556
1, 4416, Tempo, 382165
1, 4464, Tempo, 594059
1, 4512, Tempo, 428571
1, 4560, Tempo, 500000
1, 4608, Tempo, 400000
1, 4656, Tempo, 327868
1, 4704, Tempo, 382165
1, 4752, Tempo, 357142
1, 4800, Tempo, 333333
1, 4848, Tempo, 400000
1, 4896, Tempo, 348837
1, 4944, Tempo, 363636
1, 4992, Tempo, 444444
1, 5040, Tempo, 400000
1, 5088, Tempo, 645161
1, 5104, Tempo, 400000
1, 5120, Tempo, 392156
1, 5136, Tempo, 363636
1, 5152, Tempo, 368098
1, 5168, Tempo, 410958
1, 5184, Tempo, 472440
1, 5232, Tempo, 400000
1, 5248, Tempo, 372670
1, 5264, Tempo, 535714
1, 5276, Tempo, 2307692
1, 5280, Tempo, 952380
1, 5296, Tempo, 666666
1, 5312, Tempo, 1071428
1, 5328, Tempo, 666666
1, 5376, Tempo, 500000
1, 5424, Tempo, 571428
1, 5472, Tempo, 458015
1, 5496, Tempo, 487804
1, 5520, Tempo, 434782
1, 5568, Tempo, 348837
1, 5616, Tempo, 387096
1, 5640, Tempo, 377358
1, 5664, Tempo, 594059
1, 5712, Tempo, 666666
1, 5760, Tempo, 372670
1, 5808, Tempo, 333333
1, 5904, Tempo, 357142
1, 5952, Tempo, 392156
1, 6048, Tempo, 363636
1, 6096, Tempo, 410958
1, 6192, Tempo, 400000
1, 6240, Tempo, 372670
1, 6288, Tempo, 357142
1, 6336, Tempo, 363636
1, 6384, Tempo, 320855
1, 6480, Tempo, 348837
1, 6528, Tempo, 314136
1, 6576, Tempo, 357142
1, 6624, Tempo, 392156
1, 6672, Tempo, 444444
1, 6720, Tempo, 769230
1, 6768, Tempo, 500000
1, 6816, Tempo, 434782
1, 6912, Tempo, 400000
1, 6960, Tempo, 410958
1, 7056, Tempo, 400000
1, 7104, Tempo, 571428
1, 7200, Tempo, 594059
1, 7248, Tempo, 800000
1, 7344, Tempo, 555555
1, 7392, Tempo, 392156
1, 7440, Tempo, 500000
1, 7488, Tempo, 382165
1, 7512, Tempo, 372670
1, 7536, Tempo, 377358
1, 7584, Tempo, 382165
1, 7632, Tempo, 372670
1, 7680, Tempo, 357142
1, 7728, Tempo, 410958
1, 7824, Tempo, 500000
1, 7920, Tempo, 487804
1, 7968, Tempo, 333333
1, 8016, Tempo, 582524
1, 8064, Tempo, 363636
1, 8088, Tempo, 382165
1, 8112, Tempo, 571428
1, 8160, Tempo, 618556
1, 8208, Tempo, 487804
1, 8232, Tempo, 444444
1, 8256, Tempo, 458015
1, 8304, Tempo, 594059
1, 8352, Tempo, 382165
1, 8400, Tempo, 357142
1, 8496, Tempo, 363636
1, 8544, Tempo, 357142
1, 8640, Tempo, 327868
1, 8664, Tempo, 320855
1, 8688, Tempo, 327868
1, 8736, Tempo, 297029
1, 8766, Tempo, 372670
1, 8784, Tempo, 392156
1, 8832, Tempo, 382165
1, 8880, Tempo, 571428
1, 8928, Tempo, 372670
1, 8976, Tempo, 333333
1, 9072, Tempo, 363636
1, 9120, Tempo, 340909
1, 9168, Tempo, 400000
1, 9216, Tempo, 422535
1, 9240, Tempo, 410958
1, 9264, Tempo, 594059
1, 9312, Tempo, 571428
1, 9384, Tempo, 535714
1, 9408, Tempo, 500000
1, 9456, Tempo, 422535
1, 9504, Tempo, 363636
1, 9552, Tempo, 372670
1, 9648, Tempo, 352941
1, 9696, Tempo, 327868
1, 9744, Tempo, 340909
1, 9768, Tempo, 307692
1, 9792, Tempo, 303030
1, 9816, Tempo, 340909
1, 9840, Tempo, 571428
1, 9888, Tempo, 535714
1, 9936, Tempo, 320855
1, 9960, Tempo, 307692
1, 9984, Tempo, 363636
1, 10032, Tempo, 303030
1, 10080, Tempo, 291262
1, 10104, Tempo, 285714
1, 10128, Tempo, 307692
1, 10176, Tempo, 281690
1, 10224, Tempo, 297029
1, 10248, Tempo, 291262
1, 10272, Tempo, 281690
1, 10320, Tempo, 291262
1, 10392, Tempo, 285714
1, 10416, Tempo, 297029
1, 10464, Tempo, 271493
1, 10512, Tempo, 281690
1, 10536, Tempo, 271493
1, 10560, Tempo, 297029
1, 10608, Tempo, 271493
1, 10656, Tempo, 291262
1, 10680, Tempo, 307692
1, 10704, Tempo, 285714
1, 10752, Tempo, 258620
1, 10800, Tempo, 297029
1, 10824, Tempo, 333333
1, 10848, Tempo, 363636
1, 10896, Tempo, 372670
1, 10944, Tempo, 363636
1, 10968, Tempo, 434782
1, 10992, Tempo, 517241
1, 11040, Tempo, 645161
1, 11088, Tempo, 357142
1, 11136, Tempo, 285714
1, 11184, Tempo, 271493
1, 11232, Tempo, 266666
1, 11280, Tempo, 271493
1, 11328, Tempo, 392156
1, 11376, Tempo, 500000
1, 11472, Tempo, 357142
1, 11520, Tempo, 258620
1, 11544, Tempo, 254237
1, 11568, Tempo, 372670
1, 11616, Tempo, 472440
1, 11664, Tempo, 428571
1, 11760, Tempo, 363636
1, 11808, Tempo, 276497
1, 11832, Tempo, 271493
1, 11856, Tempo, 372670
1, 11904, Tempo, 535714
1, 12048, Tempo, 368098
1, 12096, Tempo, 333333
1, 12120, Tempo, 340909
1, 12144, Tempo, 465116
1, 12192, Tempo, 952380
1, 12240, Tempo, 571428
1, 12384, Tempo, 769230
1, 12528, Tempo, 845070
1, 12672, Tempo, 1000000
1, 12768, Tempo, 845070
1, 12816, Tempo, 571428
1, 12912, Tempo, 472440
1, 12960, Tempo, 526315
1, 13056, Tempo, 571428
1, 13104, Tempo, 400000
1, 13152, Tempo, 340909
1, 13200, Tempo, 392156
1, 13248, Tempo, 333333
1, 13344, Tempo, 340909
1, 13392, Tempo, 314136
1, 13440, Tempo, 310880
1, 13488, Tempo, 333333
1, 13536, Tempo, 314136
1, 13584, Tempo, 327868
1, 13632, Tempo, 333333
1, 13680, Tempo, 320855
1, 13728, Tempo, 340909
1, 13776, Tempo, 372670
1, 13824, Tempo, 535714
1, 13872, Tempo, 500000
1, 13920, Tempo, 434782
1, 13968, Tempo, 422535
1, 14016, Tempo, 327868
1, 14064, Tempo, 331491
1, 14112, Tempo, 340909
1, 14208, Tempo, 327868
1, 14304, Tempo, 307692
1, 14352, Tempo, 310880
1, 14400, Tempo, 327868
1, 14496, Tempo, 307692
1, 14592, Tempo, 281690
1, 14640, Tempo, 291262
1, 14688, Tempo, 314136
1, 14784, Tempo, 303030
1, 14832, Tempo, 297029
1, 14928, Tempo, 306122
1, 14976, Tempo, 487804
1, 15024, Tempo, 697674
1, 15072, Tempo, 731707
1, 15120, Tempo, 500000
1, 15216, Tempo, 444444
1, 15264, Tempo, 363636
1, 15360, Tempo, 500000
1, 15408, Tempo, 400000
1, 15456, Tempo, 348837
1, 15504, Tempo, 327868
1, 15552, Tempo, 307692
1, 15600, Tempo, 303030
1, 15648, Tempo, 327868
1, 15696, Tempo, 333333
1, 15744, Tempo, 285714
1, 15792, Tempo, 303030
1, 15840, Tempo, 297029
1, 15936, Tempo, 291262
1, 15984, Tempo, 307692
1, 16032, Tempo, 291262
1, 16080, Tempo, 340909
1, 16128, Tempo, 400000
1, 16176, Tempo, 422535
1, 16224, Tempo, 410958
1, 16272, Tempo, 363636
1, 16320, Tempo, 291262
1, 16368, Tempo, 303030
1, 16416, Tempo, 291262
1, 16512, Tempo, 327868
1, 16560, Tempo, 303030
1, 16608, Tempo, 285714
1, 16656, Tempo, 297029
1, 16704, Tempo, 285714
1, 16800, Tempo, 303030
1, 16848, Tempo, 314136
1, 16896, Tempo, 291262
1, 16944, Tempo, 303030
1, 16992, Tempo, 297029
1, 17088, Tempo, 320855
1, 17136, Tempo, 303030
1, 17184, Tempo, 307692
1, 17232, Tempo, 422535
1, 17280, Tempo, 434782
1, 17376, Tempo, 500000
1, 17424, Tempo, 434782
1, 17520, Tempo, 363636
1, 17568, Tempo, 337078
1, 17616, Tempo, 500000
1, 17712, Tempo, 348837
1, 17808, Tempo, 320855
1, 17856, Tempo, 327868
1, 17904, Tempo, 357142
1, 18000, Tempo, 594059
1, 18036, Tempo, 444444
1, 18048, Tempo, 422535
1, 18096, Tempo, 340909
1, 18144, Tempo, 327868
1, 18192, Tempo, 333333
1, 18240, Tempo, 434782
1, 18288, Tempo, 517241
1, 18324, Tempo, 382165
1, 18336, Tempo, 372670
1, 18384, Tempo, 320855
1, 18432, Tempo, 327868
1, 18480, Tempo, 363636
1, 18528, Tempo, 392156
1, 18576, Tempo, 348837
1, 18672, Tempo, 357142
1, 18720, Tempo, 340909
1, 18816, Tempo, 422535
1, 18864, Tempo, 500000
1, 18900, Tempo, 422535
1, 18912, Tempo, 392156
1, 18960, Tempo, 372670
1, 19008, Tempo, 357142
1, 19104, Tempo, 348837
1, 19152, Tempo, 480000
1, 19248, Tempo, 434782
1, 19296, Tempo, 372670
1, 19392, Tempo, 410958
1, 19440, Tempo, 535714
1, 19536, Tempo, 458015
1, 19584, Tempo, 697674
1, 19728, Tempo, 517241
1, 19824, Tempo, 372670
1, 19920, Tempo, 500000
1, 20016, Tempo, 422535
1, 20112, Tempo, 361445
1, 20160, Tempo, 348837
1, 20208, Tempo, 422535
1, 20304, Tempo, 645161
1, 20340, Tempo, 422535
1, 20352, Tempo, 487804
1, 20400, Tempo, 340909
1, 20448, Tempo, 327868
1, 20496, Tempo, 357142
1, 20544, Tempo, 444444
1, 20592, Tempo, 517241
1, 20628, Tempo, 363636
1, 20640, Tempo, 357142
1, 20688, Tempo, 327868
1, 20736, Tempo, 340909
1, 20784, Tempo, 382165
1, 20832, Tempo, 444444
1, 20880, Tempo, 372670
1, 20976, Tempo, 410958
1, 21024, Tempo, 382165
1, 21120, Tempo, 472440
1, 21168, Tempo, 571428
1, 21204, Tempo, 434782
1, 21216, Tempo, 392156
1, 21264, Tempo, 382165
1, 21312, Tempo, 555555
1, 21408, Tempo, 535714
1, 21456, Tempo, 594059
1, 21552, Tempo, 566037
1, 21600, Tempo, 666666
1, 21696, Tempo, 555555
1, 21744, Tempo, 750000
1, 21840, Tempo, 1000000
1, 21888, Tempo, 2000000
1, 22176, Time_signature, 12, 3, 24, 8
1, 22176, End_track
2, 0, Start_track
2, 0, Title_t, "RIGHT HAND"
2, 0, MIDI_port, 0
2, 4, System_exclusive, 10, 65, 16, 66, 18, 64, 0, 127, 0, 65, 247
2, 6, System_exclusive, 10, 65, 16, 66, 18, 64, 0, 4, 127, 61, 247
2, 10, System_exclusive, 10, 65, 16, 66, 18, 64, 1, 48, 4, 11, 247
2, 12, System_exclusive, 10, 65, 16, 66, 18, 64, 1, 49, 3, 11, 247
2, 14, System_exclusive, 10, 65, 16, 66, 18, 64, 1, 51, 110, 30, 247
2, 16, System_exclusive, 10, 65, 16, 66, 18, 64, 1, 52, 60, 79, 247
2, 18, System_exclusive, 10, 65, 16, 66, 18, 64, 1, 56, 2, 5, 247
2, 20, System_exclusive, 10, 65, 16, 66, 18, 64, 1, 58, 100, 33, 247
2, 22, System_exclusive, 10, 65, 16, 66, 18, 64, 1, 61, 7, 123, 247
2, 24, System_exclusive, 10, 65, 16, 66, 18, 64, 1, 62, 8, 121, 247
2, 26, Control_c, 0, 0, 0
2, 28, Control_c, 0, 32, 1
2, 30, Program_c, 0, 0
2, 32, Control_c, 0, 7, 120
2, 34, Control_c, 0, 11, 120
2, 36, Control_c, 0, 91, 40
2, 38, Control_c, 0, 93, 0
2, 40, Control_c, 0, 10, 64
2, 42, Control_c, 0, 99, 1
2, 44, Control_c, 0, 98, 8
2, 46, Control_c, 0, 6, 64
2, 48, Control_c, 0, 98, 9
2, 50, Control_c, 0, 6, 64
2, 52, Control_c, 0, 98, 10
2, 54, Control_c, 0, 6, 64
2, 56, Control_c, 0, 98, 32
2, 58, Control_c, 0, 6, 64
2, 60, Control_c, 0, 98, 33
2, 62, Control_c, 0, 6, 64
2, 64, Control_c, 0, 98, 99
2, 66, Control_c, 0, 6, 64
2, 68, Control_c, 0, 98, 100
2, 70, Control_c, 0, 6, 80
2, 72, Control_c, 0, 98, 102
2, 74, Control_c, 0, 6, 64
2, 96, Note_on_c, 0, 74, 54
2, 142, Note_on_c, 0, 74, 0
2, 144, Note_on_c, 0, 67, 51
2, 240, Note_on_c, 0, 67, 0
2, 240, Note_on_c, 0, 70, 46
2, 288, Note_on_c, 0, 70, 0
2, 288, Note_on_c, 0, 69, 52
2, 312, Note_on_c, 0, 69, 0
2, 312, Note_on_c, 0, 70, 54
2, 336, Note_on_c, 0, 70, 0
2, 336, Note_on_c, 0, 67, 60
2, 384, Note_on_c, 0, 67, 0
2, 384, Note_on_c, 0, 69, 61
2, 432, Note_on_c, 0, 69, 0
2, 432, Note_on_c, 0, 70, 62
2, 456, Note_on_c, 0, 70, 0
2, 456, Note_on_c, 0, 72, 68
2, 480, Note_on_c, 0, 72, 0
2, 480, Note_on_c, 0, 74, 72
2, 528, Note_on_c, 0, 74, 0
2, 528, Note_on_c, 0, 79, 74
2, 576, Note_on_c, 0, 79, 0
2, 576, Note_on_c, 0, 77, 68
2, 1008, Note_on_c, 0, 77, 0
2, 1008, Note_on_c, 0, 74, 46
2, 1102, Note_on_c, 0, 74, 0
2, 1104, Note_on_c, 0, 74, 66
2, 1152, Note_on_c, 0, 74, 0
2, 1152, Note_on_c, 0, 72, 60
2, 1246, Note_on_c, 0, 72, 0
2, 1248, Note_on_c, 0, 74, 68
2, 1296, Note_on_c, 0, 74, 0
2, 1296, Note_on_c, 0, 65, 57
2, 1390, Note_on_c, 0, 65, 0
2, 1392, Note_on_c, 0, 74, 68
2, 1440, Note_on_c, 0, 74, 0
2, 1440, Note_on_c, 0, 72, 60
2, 1534, Note_on_c, 0, 72, 0
2, 1536, Note_on_c, 0, 74, 60
2, 1584, Note_on_c, 0, 74, 0
2, 1584, Note_on_c, 0, 70, 50
2, 1630, Note_on_c, 0, 70, 0
2, 1680, Note_on_c, 0, 74, 50
2, 1728, Note_on_c, 0, 74, 0
2, 1728, Note_on_c, 0, 69, 42
2, 1774, Note_on_c, 0, 69, 0
2, 1824, Note_on_c, 0, 74, 45
2, 1872, Note_on_c, 0, 74, 0
2, 1872, Note_on_c, 0, 67, 38
2, 1966, Note_on_c, 0, 67, 0
2, 1968, Note_on_c, 0, 70, 42
2, 2016, Note_on_c, 0, 70, 0
2, 2016, Note_on_c, 0, 69, 40
2, 2040, Note_on_c, 0, 69, 0
2, 2040, Note_on_c, 0, 70, 42
2, 2064, Note_on_c, 0, 70, 0
2, 2064, Note_on_c, 0, 67, 42
2, 2112, Note_on_c, 0, 67, 0
2, 2112, Note_on_c, 0, 69, 58
2, 2160, Note_on_c, 0, 69, 0
2, 2160, Note_on_c, 0, 70, 64
2, 2184, Note_on_c, 0, 70, 0
2, 2184, Note_on_c, 0, 72, 67
2, 2208, Note_on_c, 0, 72, 0
2, 2208, Note_on_c, 0, 74, 69
2, 2256, Note_on_c, 0, 74, 0
2, 2256, Note_on_c, 0, 79, 74
2, 2304, Note_on_c, 0, 79, 0
2, 2304, Note_on_c, 0, 77, 76
2, 2830, Note_on_c, 0, 77, 0
2, 2832, Note_on_c, 0, 77, 70
2, 2880, Note_on_c, 0, 77, 0
2, 2880, Note_on_c, 0, 76, 60
2, 2974, Note_on_c, 0, 76, 0
2, 2976, Note_on_c, 0, 77, 69
2, 3024, Note_on_c, 0, 77, 0
2, 3024, Note_on_c, 0, 69, 58
2, 3118, Note_on_c, 0, 69, 0
2, 3120, Note_on_c, 0, 77, 67
2, 3168, Note_on_c, 0, 77, 0
2, 3168, Note_on_c, 0, 76, 59
2, 3262, Note_on_c, 0, 76, 0
2, 3264, Note_on_c, 0, 77, 58
2, 3312, Note_on_c, 0, 77, 0
2, 3312, Note_on_c, 0, 74, 45
2, 3358, Note_on_c, 0, 74, 0
2, 3408, Note_on_c, 0, 75, 54
2, 3456, Note_on_c, 0, 75, 0
2, 3456, Note_on_c, 0, 72, 42
2, 3502, Note_on_c, 0, 72, 0
2, 3552, Note_on_c, 0, 74, 43
2, 3600, Note_on_c, 0, 74, 0
2, 3600, Note_on_c, 0, 67, 38
2, 3694, Note_on_c, 0, 67, 0
2, 3696, Note_on_c, 0, 70, 48
2, 3744, Note_on_c, 0, 70, 0
2, 3744, Note_on_c, 0, 69, 42
2, 3768, Note_on_c, 0, 69, 0
2, 3768, Note_on_c, 0, 70, 44
2, 3792, Note_on_c, 0, 70, 0
2, 3792, Note_on_c, 0, 67, 43
2, 3840, Note_on_c, 0, 67, 0
2, 3840, Note_on_c, 0, 69, 55
2, 3888, Note_on_c, 0, 69, 0
2, 3888, Note_on_c, 0, 70, 58
2, 3912, Note_on_c, 0, 70, 0
2, 3912, Note_on_c, 0, 72, 60
2, 3936, Note_on_c, 0, 72, 0
2, 3936, Note_on_c, 0, 74, 62
2, 3984, Note_on_c, 0, 74, 0
2, 3984, Note_on_c, 0, 79, 62
2, 4032, Note_on_c, 0, 79, 0
2, 4032, Note_on_c, 0, 77, 68
2, 4464, Note_on_c, 0, 77, 0
2, 4464, Note_on_c, 0, 74, 43
2, 4558, Note_on_c, 0, 74, 0
2, 4560, Note_on_c, 0, 74, 54
2, 4608, Note_on_c, 0, 74, 0
2, 4608, Note_on_c, 0, 72, 60
2, 4702, Note_on_c, 0, 72, 0
2, 4704, Note_on_c, 0, 74, 62
2, 4752, Note_on_c, 0, 74, 0
2, 4752, Note_on_c, 0, 65, 57
2, 4846, Note_on_c, 0, 65, 0
2, 4848, Note_on_c, 0, 74, 63
2, 4896, Note_on_c, 0, 74, 0
2, 4896, Note_on_c, 0, 72, 60
2, 4990, Note_on_c, 0, 72, 0
2, 4992, Note_on_c, 0, 74, 50
2, 5040, Note_on_c, 0, 74, 0
2, 5040, Note_on_c, 0, 70, 48
2, 5086, Note_on_c, 0, 70, 0
2, 5104, Note_on_c, 0, 74, 64
2, 5120, Note_on_c, 0, 74, 0
2, 5120, Note_on_c, 0, 74, 54
2, 5136, Note_on_c, 0, 74, 0
2, 5136, Note_on_c, 0, 77, 52
2, 5152, Note_on_c, 0, 77, 0
2, 5152, Note_on_c, 0, 75, 50
2, 5168, Note_on_c, 0, 75, 0
2, 5168, Note_on_c, 0, 74, 48
2, 5184, Note_on_c, 0, 74, 0
2, 5184, Note_on_c, 0, 69, 46
2, 5230, Note_on_c, 0, 69, 0
2, 5248, Note_on_c, 0, 74, 54
2, 5264, Note_on_c, 0, 74, 0
2, 5264, Note_on_c, 0, 74, 46
2, 5276, Note_on_c, 0, 74, 0
2, 5276, Note_on_c, 0, 74, 45
2, 5280, Note_on_c, 0, 74, 0
2, 5280, Note_on_c, 0, 77, 38
2, 5296, Note_on_c, 0, 77, 0
2, 5296, Note_on_c, 0, 75, 40
2, 5312, Note_on_c, 0, 75, 0
2, 5312, Note_on_c, 0, 74, 39
2, 5328, Note_on_c, 0, 74, 0
2, 5328, Note_on_c, 0, 67, 38
2, 5422, Note_on_c, 0, 67, 0
2, 5424, Note_on_c, 0, 70, 50
2, 5472, Note_on_c, 0, 70, 0
2, 5472, Note_on_c, 0, 69, 40
2, 5496, Note_on_c, 0, 69, 0
2, 5496, Note_on_c, 0, 70, 42
2, 5520, Note_on_c, 0, 70, 0
2, 5520, Note_on_c, 0, 67, 42
2, 5568, Note_on_c, 0, 67, 0
2, 5568, Note_on_c, 0, 69, 58
2, 5616, Note_on_c, 0, 69, 0
2, 5616, Note_on_c, 0, 70, 64
2, 5640, Note_on_c, 0, 70, 0
2, 5640, Note_on_c, 0, 72, 67
2, 5664, Note_on_c, 0, 72, 0
2, 5664, Note_on_c, 0, 74, 69
2, 5712, Note_on_c, 0, 74, 0
2, 5712, Note_on_c, 0, 79, 74
2, 5760, Note_on_c, 0, 79, 0
2, 5760, Note_on_c, 0, 77, 76
2, 6286, Note_on_c, 0, 77, 0
2, 6288, Note_on_c, 0, 77, 74
2, 6336, Note_on_c, 0, 77, 0
2, 6336, Note_on_c, 0, 76, 68
2, 6430, Note_on_c, 0, 76, 0
2, 6432, Note_on_c, 0, 77, 73
2, 6480, Note_on_c, 0, 77, 0
2, 6480, Note_on_c, 0, 69, 66
2, 6574, Note_on_c, 0, 69, 0
2, 6576, Note_on_c, 0, 77, 71
2, 6624, Note_on_c, 0, 77, 0
2, 6624, Note_on_c, 0, 76, 67
2, 6670, Note_on_c, 0, 76, 0
2, 6720, Note_on_c, 0, 77, 54
2, 6768, Note_on_c, 0, 77, 0
2, 6768, Note_on_c, 0, 74, 54
2, 7342, Note_on_c, 0, 74, 0
2, 7344, Note_on_c, 0, 72, 44
2, 7440, Note_on_c, 0, 72, 0
2, 7440, Note_on_c, 0, 72, 42
2, 7488, Note_on_c, 0, 72, 0
2, 7488, Note_on_c, 0, 71, 40
2, 7512, Note_on_c, 0, 71, 0
2, 7512, Note_on_c, 0, 69, 39
2, 7536, Note_on_c, 0, 69, 0
2, 7536, Note_on_c, 0, 67, 37
2, 7584, Note_on_c, 0, 67, 0
2, 7584, Note_on_c, 0, 66, 40
2, 7630, Note_on_c, 0, 66, 0
2, 7632, Note_on_c, 0, 72, 42
2, 7728, Note_on_c, 0, 72, 0
2, 7728, Note_on_c, 0, 72, 54
2, 7776, Note_on_c, 0, 72, 0
2, 7776, Note_on_c, 0, 71, 52
2, 8014, Note_on_c, 0, 71, 0
2, 8016, Note_on_c, 0, 71, 38
2, 8064, Note_on_c, 0, 71, 0
2, 8064, Note_on_c, 0, 69, 40
2, 8088, Note_on_c, 0, 69, 0
2, 8088, Note_on_c, 0, 67, 38
2, 8112, Note_on_c, 0, 67, 0
2, 8112, Note_on_c, 0, 66, 42
2, 8160, Note_on_c, 0, 66, 0
2, 8160, Note_on_c, 0, 64, 40
2, 8206, Note_on_c, 0, 64, 0
2, 8208, Note_on_c, 0, 62, 44
2, 8232, Note_on_c, 0, 62, 0
2, 8232, Note_on_c, 0, 76, 62
2, 8256, Note_on_c, 0, 76, 0
2, 8256, Note_on_c, 0, 74, 56
2, 8304, Note_on_c, 0, 74, 0
2, 8304, Note_on_c, 0, 69, 62
2, 8350, Note_on_c, 0, 69, 0
2, 8352, Note_on_c, 0, 71, 54
2, 8590, Note_on_c, 0, 71, 0
2, 8592, Note_on_c, 0, 71, 58
2, 8640, Note_on_c, 0, 71, 0
2, 8640, Note_on_c, 0, 70, 68
2, 8664, Note_on_c, 0, 70, 0
2, 8664, Note_on_c, 0, 68, 65
2, 8688, Note_on_c, 0, 68, 0
2, 8688, Note_on_c, 0, 66, 63
2, 8736, Note_on_c, 0, 66, 0
2, 8736, Note_on_c, 0, 65, 60
2, 8766, Note_on_c, 0, 65, 0
2, 8766, Note_on_c, 0, 65, 54
2, 8784, Note_on_c, 0, 65, 0
2, 8784, Note_on_c, 0, 71, 62
2, 8878, Note_on_c, 0, 71, 0
2, 8880, Note_on_c, 0, 71, 54
2, 8928, Note_on_c, 0, 71, 0
2, 8928, Note_on_c, 0, 70, 56
2, 9168, Note_on_c, 0, 70, 0
2, 9168, Note_on_c, 0, 70, 56
2, 9216, Note_on_c, 0, 70, 0
2, 9216, Note_on_c, 0, 68, 58
2, 9240, Note_on_c, 0, 68, 0
2, 9240, Note_on_c, 0, 66, 60
2, 9264, Note_on_c, 0, 66, 0
2, 9264, Note_on_c, 0, 65, 62
2, 9312, Note_on_c, 0, 65, 0
2, 9312, Note_on_c, 0, 63, 66
2, 9358, Note_on_c, 0, 63, 0
2, 9360, Note_on_c, 0, 61, 72
2, 9384, Note_on_c, 0, 61, 0
2, 9384, Note_on_c, 0, 75, 74
2, 9408, Note_on_c, 0, 75, 0
2, 9408, Note_on_c, 0, 73, 74
2, 9456, Note_on_c, 0, 73, 0
2, 9456, Note_on_c, 0, 68, 70
2, 9504, Note_on_c, 0, 68, 0
2, 9504, Note_on_c, 0, 70, 68
2, 9744, Note_on_c, 0, 70, 0
2, 9744, Note_on_c, 0, 71, 62
2, 9768, Note_on_c, 0, 71, 0
2, 9768, Note_on_c, 0, 70, 60
2, 9792, Note_on_c, 0, 70, 0
2, 9792, Note_on_c, 0, 68, 64
2, 9816, Note_on_c, 0, 68, 0
2, 9816, Note_on_c, 0, 66, 62
2, 9840, Note_on_c, 0, 66, 0
2, 9840, Note_on_c, 0, 65, 60
2, 9888, Note_on_c, 0, 65, 0
2, 9888, Note_on_c, 0, 63, 56
2, 9934, Note_on_c, 0, 63, 0
2, 9936, Note_on_c, 0, 64, 58
2, 9960, Note_on_c, 0, 76, 66
2, 9982, Note_on_c, 0, 64, 0
2, 9984, Note_on_c, 0, 76, 0
2, 9984, Note_on_c, 0, 75, 67
2, 10032, Note_on_c, 0, 63, 52
2, 10056, Note_on_c, 0, 63, 0
2, 10078, Note_on_c, 0, 75, 0
2, 10080, Note_on_c, 0, 66, 65
2, 10104, Note_on_c, 0, 78, 73
2, 10126, Note_on_c, 0, 66, 0
2, 10128, Note_on_c, 0, 78, 0
2, 10128, Note_on_c, 0, 77, 74
2, 10176, Note_on_c, 0, 65, 68
2, 10200, Note_on_c, 0, 65, 0
2, 10222, Note_on_c, 0, 77, 0
2, 10224, Note_on_c, 0, 68, 76
2, 10248, Note_on_c, 0, 80, 86
2, 10270, Note_on_c, 0, 68, 0
2, 10272, Note_on_c, 0, 80, 0
2, 10272, Note_on_c, 0, 79, 88
2, 10320, Note_on_c, 0, 67, 70
2, 10344, Note_on_c, 0, 67, 0
2, 10366, Note_on_c, 0, 79, 0
2, 10368, Note_on_c, 0, 76, 78
2, 10392, Note_on_c, 0, 88, 80
2, 10414, Note_on_c, 0, 76, 0
2, 10416, Note_on_c, 0, 88, 0
2, 10416, Note_on_c, 0, 87, 82
2, 10464, Note_on_c, 0, 75, 72
2, 10488, Note_on_c, 0, 75, 0
2, 10510, Note_on_c, 0, 87, 0
2, 10512, Note_on_c, 0, 66, 74
2, 10536, Note_on_c, 0, 78, 78
2, 10558, Note_on_c, 0, 66, 0
2, 10560, Note_on_c, 0, 78, 0
2, 10560, Note_on_c, 0, 77, 80
2, 10608, Note_on_c, 0, 65, 66
2, 10632, Note_on_c, 0, 65, 0
2, 10654, Note_on_c, 0, 77, 0
2, 10656, Note_on_c, 0, 74, 82
2, 10680, Note_on_c, 0, 86, 83
2, 10702, Note_on_c, 0, 74, 0
2, 10704, Note_on_c, 0, 86, 0
2, 10704, Note_on_c, 0, 85, 86
2, 10752, Note_on_c, 0, 73, 76
2, 10776, Note_on_c, 0, 73, 0
2, 10798, Note_on_c, 0, 85, 0
2, 10800, Note_on_c, 0, 73, 88
2, 10824, Note_on_c, 0, 85, 91
2, 10846, Note_on_c, 0, 73, 0
2, 10848, Note_on_c, 0, 85, 0
2, 10848, Note_on_c, 0, 84, 94
2, 10896, Note_on_c, 0, 72, 83
2, 10920, Note_on_c, 0, 72, 0
2, 10942, Note_on_c, 0, 84, 0
2, 10944, Note_on_c, 0, 77, 97
2, 10968, Note_on_c, 0, 89, 95
2, 10990, Note_on_c, 0, 77, 0
2, 10992, Note_on_c, 0, 89, 0
2, 10992, Note_on_c, 0, 87, 98
2, 11040, Note_on_c, 0, 75, 94
2, 11064, Note_on_c, 0, 75, 0
2, 11086, Note_on_c, 0, 87, 0
2, 11088, Note_on_c, 0, 78, 88
2, 11088, Note_on_c, 0, 84, 94
2, 11088, Note_on_c, 0, 90, 98
2, 11136, Note_on_c, 0, 90, 0
2, 11136, Note_on_c, 0, 84, 0
2, 11136, Note_on_c, 0, 78, 0
2, 11136, Note_on_c, 0, 77, 86
2, 11136, Note_on_c, 0, 83, 94
2, 11182, Note_on_c, 0, 83, 0
2, 11182, Note_on_c, 0, 77, 0
2, 11184, Note_on_c, 0, 75, 82
2, 11184, Note_on_c, 0, 81, 88
2, 11184, Note_on_c, 0, 87, 92
2, 11232, Note_on_c, 0, 87, 0
2, 11232, Note_on_c, 0, 81, 0
2, 11232, Note_on_c, 0, 75, 0
2, 11232, Note_on_c, 0, 74, 78
2, 11232, Note_on_c, 0, 80, 88
2, 11278, Note_on_c, 0, 80, 0
2, 11278, Note_on_c, 0, 74, 0
2, 11280, Note_on_c, 0, 72, 76
2, 11280, Note_on_c, 0, 78, 82
2, 11280, Note_on_c, 0, 84, 86
2, 11328, Note_on_c, 0, 84, 0
2, 11328, Note_on_c, 0, 78, 0
2, 11328, Note_on_c, 0, 72, 0
2, 11328, Note_on_c, 0, 71, 76
2, 11328, Note_on_c, 0, 77, 84
2, 11374, Note_on_c, 0, 77, 0
2, 11374, Note_on_c, 0, 71, 0
2, 11376, Note_on_c, 0, 69, 86
2, 11376, Note_on_c, 0, 75, 92
2, 11376, Note_on_c, 0, 81, 96
2, 11472, Note_on_c, 0, 81, 0
2, 11472, Note_on_c, 0, 75, 0
2, 11472, Note_on_c, 0, 69, 0
2, 11472, Note_on_c, 0, 68, 70
2, 11472, Note_on_c, 0, 77, 76
2, 11472, Note_on_c, 0, 80, 80
2, 11518, Note_on_c, 0, 80, 0
2, 11518, Note_on_c, 0, 77, 0
2, 11518, Note_on_c, 0, 68, 0
2, 11664, Note_on_c, 0, 66, 64
2, 11664, Note_on_c, 0, 72, 70
2, 11664, Note_on_c, 0, 78, 74
2, 11760, Note_on_c, 0, 78, 0
2, 11760, Note_on_c, 0, 72, 0
2, 11760, Note_on_c, 0, 66, 0
2, 11760, Note_on_c, 0, 65, 50
2, 11760, Note_on_c, 0, 73, 54
2, 11760, Note_on_c, 0, 77, 60
2, 11808, Note_on_c, 0, 77, 0
2, 11808, Note_on_c, 0, 73, 0
2, 11808, Note_on_c, 0, 65, 0
2, 11952, Note_on_c, 0, 62, 46
2, 11952, Note_on_c, 0, 69, 52
2, 11952, Note_on_c, 0, 74, 56
2, 12048, Note_on_c, 0, 74, 0
2, 12048, Note_on_c, 0, 69, 0
2, 12048, Note_on_c, 0, 62, 0
2, 12048, Note_on_c, 0, 68, 44
2, 12048, Note_on_c, 0, 73, 48
2, 12096, Note_on_c, 0, 73, 0
2, 12096, Note_on_c, 0, 68, 0
2, 12816, Note_on_c, 0, 64, 30
2, 12816, Note_on_c, 0, 69, 34
2, 12816, Note_on_c, 0, 72, 44
2, 12912, Note_on_c, 0, 72, 0
2, 12912, Note_on_c, 0, 69, 0
2, 12912, Note_on_c, 0, 64, 0
2, 12912, Note_on_c, 0, 60, 30
2, 12912, Note_on_c, 0, 64, 34
2, 12912, Note_on_c, 0, 69, 44
2, 12960, Note_on_c, 0, 69, 0
2, 12960, Note_on_c, 0, 64, 0
2, 12960, Note_on_c, 0, 60, 0
2, 12960, Note_on_c, 0, 57, 26
2, 12960, Note_on_c, 0, 62, 30
2, 12960, Note_on_c, 0, 65, 40
2, 13056, Note_on_c, 0, 65, 0
2, 13056, Note_on_c, 0, 62, 0
2, 13056, Note_on_c, 0, 57, 0
2, 13056, Note_on_c, 0, 62, 30
2, 13056, Note_on_c, 0, 67, 34
2, 13056, Note_on_c, 0, 70, 44
2, 13102, Note_on_c, 0, 70, 0
2, 13102, Note_on_c, 0, 67, 0
2, 13102, Note_on_c, 0, 62, 0
2, 13104, Note_on_c, 0, 60, 30
2, 13104, Note_on_c, 0, 64, 34
2, 13104, Note_on_c, 0, 69, 40
2, 13152, Note_on_c, 0, 69, 0
2, 13152, Note_on_c, 0, 67, 38
2, 13200, Note_on_c, 0, 67, 0
2, 13200, Note_on_c, 0, 69, 40
2, 13248, Note_on_c, 0, 69, 0
2, 13248, Note_on_c, 0, 64, 0
2, 13248, Note_on_c, 0, 60, 0
2, 13248, Note_on_c, 0, 57, 26
2, 13248, Note_on_c, 0, 62, 30
2, 13248, Note_on_c, 0, 65, 38
2, 13344, Note_on_c, 0, 65, 0
2, 13344, Note_on_c, 0, 62, 0
2, 13344, Note_on_c, 0, 57, 0
2, 13344, Note_on_c, 0, 60, 30
2, 13344, Note_on_c, 0, 64, 34
2, 13344, Note_on_c, 0, 67, 44
2, 13390, Note_on_c, 0, 67, 0
2, 13390, Note_on_c, 0, 64, 0
2, 13390, Note_on_c, 0, 60, 0
2, 13392, Note_on_c, 0, 60, 32
2, 13392, Note_on_c, 0, 65, 36
2, 13392, Note_on_c, 0, 69, 46
2, 13488, Note_on_c, 0, 69, 0
2, 13488, Note_on_c, 0, 65, 0
2, 13488, Note_on_c, 0, 60, 0
2, 13488, Note_on_c, 0, 60, 32
2, 13488, Note_on_c, 0, 67, 36
2, 13488, Note_on_c, 0, 72, 48
2, 13536, Note_on_c, 0, 72, 0
2, 13536, Note_on_c, 0, 67, 0
2, 13536, Note_on_c, 0, 60, 0
2, 13536, Note_on_c, 0, 64, 36
2, 13536, Note_on_c, 0, 69, 40
2, 13536, Note_on_c, 0, 72, 48
2, 13632, Note_on_c, 0, 72, 0
2, 13632, Note_on_c, 0, 69, 0
2, 13632, Note_on_c, 0, 64, 0
2, 13632, Note_on_c, 0, 65, 38
2, 13632, Note_on_c, 0, 69, 42
2, 13632, Note_on_c, 0, 74, 52
2, 13680, Note_on_c, 0, 74, 0
2, 13680, Note_on_c, 0, 69, 0
2, 13680, Note_on_c, 0, 65, 0
2, 13680, Note_on_c, 0, 67, 40
2, 13680, Note_on_c, 0, 70, 44
2, 13680, Note_on_c, 0, 74, 52
2, 13776, Note_on_c, 0, 74, 0
2, 13776, Note_on_c, 0, 70, 0
2, 13776, Note_on_c, 0, 67, 0
2, 13776, Note_on_c, 0, 67, 34
2, 13776, Note_on_c, 0, 72, 38
2, 13776, Note_on_c, 0, 76, 46
2, 13824, Note_on_c, 0, 76, 0
2, 13824, Note_on_c, 0, 72, 0
2, 13824, Note_on_c, 0, 67, 0
2, 13824, Note_on_c, 0, 69, 28
2, 13824, Note_on_c, 0, 72, 32
2, 13824, Note_on_c, 0, 77, 42
2, 13966, Note_on_c, 0, 77, 0
2, 13966, Note_on_c, 0, 72, 0
2, 13966, Note_on_c, 0, 69, 0
2, 13968, Note_on_c, 0, 69, 30
2, 13968, Note_on_c, 0, 74, 34
2, 13968, Note_on_c, 0, 77, 44
2, 14016, Note_on_c, 0, 77, 0
2, 14016, Note_on_c, 0, 74, 0
2, 14016, Note_on_c, 0, 69, 0
2, 14016, Note_on_c, 0, 68, 28
2, 14016, Note_on_c, 0, 71, 32
2, 14016, Note_on_c, 0, 76, 42
2, 14064, Note_on_c, 0, 76, 0
2, 14064, Note_on_c, 0, 71, 0
2, 14064, Note_on_c, 0, 68, 0
2, 14064, Note_on_c, 0, 64, 26
2, 14064, Note_on_c, 0, 69, 30
2, 14064, Note_on_c, 0, 72, 40
2, 14112, Note_on_c, 0, 72, 0
2, 14112, Note_on_c, 0, 69, 0
2, 14112, Note_on_c, 0, 64, 0
2, 14112, Note_on_c, 0, 65, 28
2, 14112, Note_on_c, 0, 69, 32
2, 14112, Note_on_c, 0, 74, 42
2, 14208, Note_on_c, 0, 74, 0
2, 14208, Note_on_c, 0, 69, 0
2, 14208, Note_on_c, 0, 65, 0
2, 14208, Note_on_c, 0, 64, 26
2, 14208, Note_on_c, 0, 69, 30
2, 14208, Note_on_c, 0, 72, 40
2, 14254, Note_on_c, 0, 72, 0
2, 14254, Note_on_c, 0, 69, 0
2, 14254, Note_on_c, 0, 64, 0
2, 14256, Note_on_c, 0, 65, 32
2, 14256, Note_on_c, 0, 69, 36
2, 14256, Note_on_c, 0, 74, 46
2, 14304, Note_on_c, 0, 74, 0
2, 14304, Note_on_c, 0, 69, 0
2, 14304, Note_on_c, 0, 65, 0
2, 14304, Note_on_c, 0, 64, 30
2, 14304, Note_on_c, 0, 69, 34
2, 14304, Note_on_c, 0, 72, 44
2, 14352, Note_on_c, 0, 72, 0
2, 14352, Note_on_c, 0, 69, 0
2, 14352, Note_on_c, 0, 64, 0
2, 14352, Note_on_c, 0, 62, 28
2, 14352, Note_on_c, 0, 65, 32
2, 14352, Note_on_c, 0, 69, 42
2, 14400, Note_on_c, 0, 69, 0
2, 14400, Note_on_c, 0, 65, 0
2, 14400, Note_on_c, 0, 62, 0
2, 14400, Note_on_c, 0, 62, 30
2, 14400, Note_on_c, 0, 67, 34
2, 14400, Note_on_c, 0, 70, 44
2, 14496, Note_on_c, 0, 70, 0
2, 14496, Note_on_c, 0, 67, 0
2, 14496, Note_on_c, 0, 62, 0
2, 14496, Note_on_c, 0, 62, 28
2, 14496, Note_on_c, 0, 65, 32
2, 14496, Note_on_c, 0, 69, 42
2, 14542, Note_on_c, 0, 69, 0
2, 14542, Note_on_c, 0, 65, 0
2, 14542, Note_on_c, 0, 62, 0
2, 14544, Note_on_c, 0, 62, 32
2, 14544, Note_on_c, 0, 67, 36
2, 14544, Note_on_c, 0, 70, 46
2, 14592, Note_on_c, 0, 70, 0
2, 14592, Note_on_c, 0, 67, 0
2, 14592, Note_on_c, 0, 62, 0
2, 14592, Note_on_c, 0, 61, 34
2, 14592, Note_on_c, 0, 64, 38
2, 14592, Note_on_c, 0, 69, 48
2, 14640, Note_on_c, 0, 69, 0
2, 14640, Note_on_c, 0, 64, 0
2, 14640, Note_on_c, 0, 61, 0
2, 14640, Note_on_c, 0, 57, 36
2, 14640, Note_on_c, 0, 62, 40
2, 14640, Note_on_c, 0, 65, 50
2, 14688, Note_on_c, 0, 65, 0
2, 14688, Note_on_c, 0, 62, 0
2, 14688, Note_on_c, 0, 57, 0
2, 14688, Note_on_c, 0, 60, 36
2, 14688, Note_on_c, 0, 64, 40
2, 14688, Note_on_c, 0, 67, 54
2, 14784, Note_on_c, 0, 67, 0
2, 14784, Note_on_c, 0, 64, 0
2, 14784, Note_on_c, 0, 60, 0
2, 14784, Note_on_c, 0, 60, 38
2, 14784, Note_on_c, 0, 65, 42
2, 14784, Note_on_c, 0, 69, 56
2, 14832, Note_on_c, 0, 69, 0
2, 14832, Note_on_c, 0, 65, 0
2, 14832, Note_on_c, 0, 60, 0
2, 14832, Note_on_c, 0, 62, 46
2, 14832, Note_on_c, 0, 67, 50
2, 14832, Note_on_c, 0, 70, 60
2, 14880, Note_on_c, 0, 70, 0
2, 14880, Note_on_c, 0, 67, 0
2, 14880, Note_on_c, 0, 62, 0
2, 14880, Note_on_c, 0, 61, 43
2, 14880, Note_on_c, 0, 64, 47
2, 14880, Note_on_c, 0, 69, 57
2, 14928, Note_on_c, 0, 69, 0
2, 14928, Note_on_c, 0, 64, 0
2, 14928, Note_on_c, 0, 61, 0
2, 14928, Note_on_c, 0, 62, 42
2, 14928, Note_on_c, 0, 67, 46
2, 14928, Note_on_c, 0, 70, 56
2, 14976, Note_on_c, 0, 70, 0
2, 14976, Note_on_c, 0, 67, 0
2, 14976, Note_on_c, 0, 62, 0
2, 14976, Note_on_c, 0, 61, 38
2, 14976, Note_on_c, 0, 64, 42
2, 14976, Note_on_c, 0, 69, 52
2, 15024, Note_on_c, 0, 69, 0
2, 15024, Note_on_c, 0, 64, 0
2, 15024, Note_on_c, 0, 61, 0
2, 15024, Note_on_c, 0, 62, 42
2, 15024, Note_on_c, 0, 67, 66
2, 15072, Note_on_c, 0, 62, 0
2, 15072, Note_on_c, 0, 64, 42
2, 15120, Note_on_c, 0, 67, 0
2, 15120, Note_on_c, 0, 69, 34
2, 15120, Note_on_c, 0, 72, 44
2, 15216, Note_on_c, 0, 72, 0
2, 15216, Note_on_c, 0, 69, 0
2, 15216, Note_on_c, 0, 64, 0
2, 15216, Note_on_c, 0, 60, 30
2, 15216, Note_on_c, 0, 64, 34
2, 15216, Note_on_c, 0, 69, 44
2, 15264, Note_on_c, 0, 69, 0
2, 15264, Note_on_c, 0, 64, 0
2, 15264, Note_on_c, 0, 60, 0
2, 15264, Note_on_c, 0, 57, 32
2, 15264, Note_on_c, 0, 62, 36
2, 15264, Note_on_c, 0, 65, 46
2, 15360, Note_on_c, 0, 65, 0
2, 15360, Note_on_c, 0, 62, 0
2, 15360, Note_on_c, 0, 57, 0
2, 15360, Note_on_c, 0, 62, 38
2, 15360, Note_on_c, 0, 67, 42
2, 15360, Note_on_c, 0, 70, 52
2, 15406, Note_on_c, 0, 70, 0
2, 15406, Note_on_c, 0, 67, 0
2, 15406, Note_on_c, 0, 62, 0
2, 15408, Note_on_c, 0, 60, 40
2, 15408, Note_on_c, 0, 64, 44
2, 15408, Note_on_c, 0, 69, 60
2, 15456, Note_on_c, 0, 69, 0
2, 15456, Note_on_c, 0, 67, 54
2, 15504, Note_on_c, 0, 67, 0
2, 15504, Note_on_c, 0, 69, 56
2, 15552, Note_on_c, 0, 69, 0
2, 15552, Note_on_c, 0, 64, 0
2, 15552, Note_on_c, 0, 60, 0
2, 15552, Note_on_c, 0, 57, 40
2, 15552, Note_on_c, 0, 62, 44
2, 15552, Note_on_c, 0, 65, 54
2, 15648, Note_on_c, 0, 65, 0
2, 15648, Note_on_c, 0, 62, 0
2, 15648, Note_on_c, 0, 57, 0
2, 15648, Note_on_c, 0, 60, 41
2, 15648, Note_on_c, 0, 64, 45
2, 15648, Note_on_c, 0, 67, 55
2, 15694, Note_on_c, 0, 67, 0
2, 15694, Note_on_c, 0, 64, 0
2, 15694, Note_on_c, 0, 60, 0
2, 15696, Note_on_c, 0, 60, 40
2, 15696, Note_on_c, 0, 65, 44
2, 15696, Note_on_c, 0, 69, 54
2, 15792, Note_on_c, 0, 69, 0
2, 15792, Note_on_c, 0, 65, 0
2, 15792, Note_on_c, 0, 60, 0
2, 15792, Note_on_c, 0, 60, 46
2, 15792, Note_on_c, 0, 67, 50
2, 15792, Note_on_c, 0, 72, 64
2, 15840, Note_on_c, 0, 72, 0
2, 15840, Note_on_c, 0, 67, 0
2, 15840, Note_on_c, 0, 60, 0
2, 15840, Note_on_c, 0, 64, 48
2, 15840, Note_on_c, 0, 69, 52
2, 15840, Note_on_c, 0, 72, 62
2, 15936, Note_on_c, 0, 72, 0
2, 15936, Note_on_c, 0, 69, 0
2, 15936, Note_on_c, 0, 64, 0
2, 15936, Note_on_c, 0, 65, 50
2, 15936, Note_on_c, 0, 69, 54
2, 15936, Note_on_c, 0, 74, 64
2, 15984, Note_on_c, 0, 74, 0
2, 15984, Note_on_c, 0, 69, 0
2, 15984, Note_on_c, 0, 65, 0
2, 15984, Note_on_c, 0, 67, 52
2, 15984, Note_on_c, 0, 70, 56
2, 15984, Note_on_c, 0, 74, 66
2, 16080, Note_on_c, 0, 74, 0
2, 16080, Note_on_c, 0, 70, 0
2, 16080, Note_on_c, 0, 67, 0
2, 16080, Note_on_c, 0, 67, 60
2, 16080, Note_on_c, 0, 72, 64
2, 16080, Note_on_c, 0, 76, 74
2, 16128, Note_on_c, 0, 76, 0
2, 16128, Note_on_c, 0, 72, 0
2, 16128, Note_on_c, 0, 67, 0
2, 16128, Note_on_c, 0, 69, 58
2, 16128, Note_on_c, 0, 72, 62
2, 16128, Note_on_c, 0, 77, 72
2, 16270, Note_on_c, 0, 77, 0
2, 16270, Note_on_c, 0, 72, 0
2, 16270, Note_on_c, 0, 69, 0
2, 16272, Note_on_c, 0, 69, 58
2, 16272, Note_on_c, 0, 74, 62
2, 16272, Note_on_c, 0, 77, 72
2, 16320, Note_on_c, 0, 77, 0
2, 16320, Note_on_c, 0, 74, 0
2, 16320, Note_on_c, 0, 69, 0
2, 16320, Note_on_c, 0, 68, 55
2, 16320, Note_on_c, 0, 71, 59
2, 16320, Note_on_c, 0, 76, 69
2, 16368, Note_on_c, 0, 76, 0
2, 16368, Note_on_c, 0, 71, 0
2, 16368, Note_on_c, 0, 68, 0
2, 16368, Note_on_c, 0, 64, 53
2, 16368, Note_on_c, 0, 69, 57
2, 16368, Note_on_c, 0, 72, 67
2, 16416, Note_on_c, 0, 72, 0
2, 16416, Note_on_c, 0, 69, 0
2, 16416, Note_on_c, 0, 64, 0
2, 16416, Note_on_c, 0, 65, 50
2, 16416, Note_on_c, 0, 69, 54
2, 16416, Note_on_c, 0, 74, 64
2, 16512, Note_on_c, 0, 74, 0
2, 16512, Note_on_c, 0, 69, 0
2, 16512, Note_on_c, 0, 65, 0
2, 16512, Note_on_c, 0, 64, 46
2, 16512, Note_on_c, 0, 69, 50
2, 16512, Note_on_c, 0, 72, 60
2, 16558, Note_on_c, 0, 72, 0
2, 16558, Note_on_c, 0, 69, 0
2, 16558, Note_on_c, 0, 64, 0
2, 16560, Note_on_c, 0, 65, 52
2, 16560, Note_on_c, 0, 69, 56
2, 16560, Note_on_c, 0, 74, 66
2, 16608, Note_on_c, 0, 74, 0
2, 16608, Note_on_c, 0, 69, 0
2, 16608, Note_on_c, 0, 65, 0
2, 16608, Note_on_c, 0, 64, 51
2, 16608, Note_on_c, 0, 69, 55
2, 16608, Note_on_c, 0, 72, 65
2, 16656, Note_on_c, 0, 72, 0
2, 16656, Note_on_c, 0, 69, 0
2, 16656, Note_on_c, 0, 64, 0
2, 16656, Note_on_c, 0, 62, 49
2, 16656, Note_on_c, 0, 65, 53
2, 16656, Note_on_c, 0, 69, 63
2, 16704, Note_on_c, 0, 69, 0
2, 16704, Note_on_c, 0, 65, 0
2, 16704, Note_on_c, 0, 62, 0
2, 16704, Note_on_c, 0, 62, 50
2, 16704, Note_on_c, 0, 67, 54
2, 16704, Note_on_c, 0, 70, 66
2, 16800, Note_on_c, 0, 70, 0
2, 16800, Note_on_c, 0, 67, 0
2, 16800, Note_on_c, 0, 62, 0
2, 16800, Note_on_c, 0, 62, 44
2, 16800, Note_on_c, 0, 65, 48
2, 16800, Note_on_c, 0, 69, 60
2, 16846, Note_on_c, 0, 69, 0
2, 16846, Note_on_c, 0, 65, 0
2, 16846, Note_on_c, 0, 62, 0
2, 16848, Note_on_c, 0, 62, 50
2, 16848, Note_on_c, 0, 67, 54
2, 16848, Note_on_c, 0, 70, 66
2, 16896, Note_on_c, 0, 70, 0
2, 16896, Note_on_c, 0, 67, 0
2, 16896, Note_on_c, 0, 62, 0
2, 16896, Note_on_c, 0, 61, 46
2, 16896, Note_on_c, 0, 64, 50
2, 16896, Note_on_c, 0, 69, 62
2, 16944, Note_on_c, 0, 69, 0
2, 16944, Note_on_c, 0, 64, 0
2, 16944, Note_on_c, 0, 61, 0
2, 16944, Note_on_c, 0, 57, 44
2, 16944, Note_on_c, 0, 62, 48
2, 16944, Note_on_c, 0, 65, 60
2, 16992, Note_on_c, 0, 65, 0
2, 16992, Note_on_c, 0, 62, 0
2, 16992, Note_on_c, 0, 57, 0
2, 16992, Note_on_c, 0, 60, 44
2, 16992, Note_on_c, 0, 64, 48
2, 16992, Note_on_c, 0, 67, 66
2, 17088, Note_on_c, 0, 67, 0
2, 17088, Note_on_c, 0, 64, 0
2, 17088, Note_on_c, 0, 60, 0
2, 17088, Note_on_c, 0, 60, 48
2, 17088, Note_on_c, 0, 65, 52
2, 17088, Note_on_c, 0, 69, 62
2, 17136, Note_on_c, 0, 69, 0
2, 17136, Note_on_c, 0, 65, 0
2, 17136, Note_on_c, 0, 60, 0
2, 17136, Note_on_c, 0, 62, 50
2, 17136, Note_on_c, 0, 67, 54
2, 17136, Note_on_c, 0, 70, 64
2, 17184, Note_on_c, 0, 70, 0
2, 17184, Note_on_c, 0, 67, 0
2, 17184, Note_on_c, 0, 62, 0
2, 17184, Note_on_c, 0, 61, 52
2, 17184, Note_on_c, 0, 64, 56
2, 17184, Note_on_c, 0, 69, 66
2, 17232, Note_on_c, 0, 69, 0
2, 17232, Note_on_c, 0, 64, 0
2, 17232, Note_on_c, 0, 61, 0
2, 17232, Note_on_c, 0, 62, 56
2, 17232, Note_on_c, 0, 67, 60
2, 17232, Note_on_c, 0, 70, 70
2, 17278, Note_on_c, 0, 70, 0
2, 17278, Note_on_c, 0, 67, 0
2, 17278, Note_on_c, 0, 62, 0
2, 17280, Note_on_c, 0, 60, 56
2, 17280, Note_on_c, 0, 64, 60
2, 17280, Note_on_c, 0, 67, 66
2, 17374, Note_on_c, 0, 67, 0
2, 17374, Note_on_c, 0, 64, 0
2, 17374, Note_on_c, 0, 60, 0
2, 17376, Note_on_c, 0, 60, 46
2, 17376, Note_on_c, 0, 65, 50
2, 17376, Note_on_c, 0, 69, 60
2, 17422, Note_on_c, 0, 69, 0
2, 17422, Note_on_c, 0, 65, 0
2, 17422, Note_on_c, 0, 60, 0
2, 17424, Note_on_c, 0, 72, 86
2, 17520, Note_on_c, 0, 65, 46
2, 17520, Note_on_c, 0, 69, 50
2, 17520, Note_on_c, 0, 74, 60
2, 17568, Note_on_c, 0, 74, 0
2, 17568, Note_on_c, 0, 69, 0
2, 17568, Note_on_c, 0, 65, 0
2, 17568, Note_on_c, 0, 64, 62
2, 17568, Note_on_c, 0, 67, 66
2, 17568, Note_on_c, 0, 76, 70
2, 17592, Note_on_c, 0, 76, 0
2, 17592, Note_on_c, 0, 67, 0
2, 17592, Note_on_c, 0, 64, 0
2, 17616, Note_on_c, 0, 64, 62
2, 17616, Note_on_c, 0, 67, 66
2, 17616, Note_on_c, 0, 76, 70
2, 17640, Note_on_c, 0, 76, 0
2, 17640, Note_on_c, 0, 67, 0
2, 17640, Note_on_c, 0, 64, 0
2, 17662, Note_on_c, 0, 72, 0
2, 17712, Note_on_c, 0, 69, 70
2, 17808, Note_on_c, 0, 62, 46
2, 17808, Note_on_c, 0, 65, 50
2, 17808, Note_on_c, 0, 71, 56
2, 17856, Note_on_c, 0, 71, 0
2, 17856, Note_on_c, 0, 65, 0
2, 17856, Note_on_c, 0, 62, 0
2, 17856, Note_on_c, 0, 60, 50
2, 17856, Note_on_c, 0, 64, 54
2, 17856, Note_on_c, 0, 72, 58
2, 17880, Note_on_c, 0, 72, 0
2, 17880, Note_on_c, 0, 64, 0
2, 17880, Note_on_c, 0, 60, 0
2, 17904, Note_on_c, 0, 60, 50
2, 17904, Note_on_c, 0, 64, 54
2, 17904, Note_on_c, 0, 72, 58
2, 17928, Note_on_c, 0, 72, 0
2, 17928, Note_on_c, 0, 64, 0
2, 17928, Note_on_c, 0, 60, 0
2, 17950, Note_on_c, 0, 69, 0
2, 18000, Note_on_c, 0, 72, 82
2, 18036, Note_on_c, 0, 72, 0
2, 18036, Note_on_c, 0, 74, 74
2, 18046, Note_on_c, 0, 74, 0
2, 18048, Note_on_c, 0, 72, 78
2, 18096, Note_on_c, 0, 65, 62
2, 18096, Note_on_c, 0, 69, 66
2, 18096, Note_on_c, 0, 74, 74
2, 18144, Note_on_c, 0, 74, 0
2, 18144, Note_on_c, 0, 69, 0
2, 18144, Note_on_c, 0, 65, 0
2, 18144, Note_on_c, 0, 64, 64
2, 18144, Note_on_c, 0, 67, 68
2, 18144, Note_on_c, 0, 76, 72
2, 18168, Note_on_c, 0, 76, 0
2, 18168, Note_on_c, 0, 67, 0
2, 18168, Note_on_c, 0, 64, 0
2, 18192, Note_on_c, 0, 64, 64
2, 18192, Note_on_c, 0, 67, 68
2, 18192, Note_on_c, 0, 76, 72
2, 18216, Note_on_c, 0, 76, 0
2, 18216, Note_on_c, 0, 67, 0
2, 18216, Note_on_c, 0, 64, 0
2, 18238, Note_on_c, 0, 72, 0
2, 18240, Note_on_c, 0, 70, 66
2, 18286, Note_on_c, 0, 70, 0
2, 18288, Note_on_c, 0, 69, 74
2, 18324, Note_on_c, 0, 69, 0
2, 18324, Note_on_c, 0, 70, 68
2, 18334, Note_on_c, 0, 70, 0
2, 18336, Note_on_c, 0, 69, 72
2, 18384, Note_on_c, 0, 62, 58
2, 18384, Note_on_c, 0, 65, 62
2, 18384, Note_on_c, 0, 71, 66
2, 18432, Note_on_c, 0, 71, 0
2, 18432, Note_on_c, 0, 65, 0
2, 18432, Note_on_c, 0, 62, 0
2, 18432, Note_on_c, 0, 60, 62
2, 18432, Note_on_c, 0, 64, 66
2, 18432, Note_on_c, 0, 72, 70
2, 18456, Note_on_c, 0, 72, 0
2, 18456, Note_on_c, 0, 64, 0
2, 18456, Note_on_c, 0, 60, 0
2, 18480, Note_on_c, 0, 60, 62
2, 18480, Note_on_c, 0, 64, 66
2, 18480, Note_on_c, 0, 72, 70
2, 18504, Note_on_c, 0, 72, 0
2, 18504, Note_on_c, 0, 64, 0
2, 18504, Note_on_c, 0, 60, 0
2, 18526, Note_on_c, 0, 69, 0
2, 18528, Note_on_c, 0, 67, 80
2, 18576, Note_on_c, 0, 67, 0
2, 18576, Note_on_c, 0, 65, 76
2, 18672, Note_on_c, 0, 58, 56
2, 18672, Note_on_c, 0, 62, 60
2, 18672, Note_on_c, 0, 67, 68
2, 18720, Note_on_c, 0, 67, 0
2, 18720, Note_on_c, 0, 62, 0
2, 18720, Note_on_c, 0, 58, 0
2, 18720, Note_on_c, 0, 57, 52
2, 18720, Note_on_c, 0, 61, 56
2, 18720, Note_on_c, 0, 69, 66
2, 18814, Note_on_c, 0, 69, 0
2, 18814, Note_on_c, 0, 61, 0
2, 18814, Note_on_c, 0, 57, 0
2, 18816, Note_on_c, 0, 65, 0
2, 18816, Note_on_c, 0, 64, 76
2, 18862, Note_on_c, 0, 64, 0
2, 18864, Note_on_c, 0, 65, 78
2, 18900, Note_on_c, 0, 65, 0
2, 18900, Note_on_c, 0, 67, 76
2, 18910, Note_on_c, 0, 67, 0
2, 18912, Note_on_c, 0, 65, 74
2, 18960, Note_on_c, 0, 58, 60
2, 18960, Note_on_c, 0, 62, 64
2, 18960, Note_on_c, 0, 67, 68
2, 19008, Note_on_c, 0, 67, 0
2, 19008, Note_on_c, 0, 62, 0
2, 19008, Note_on_c, 0, 58, 0
2, 19008, Note_on_c, 0, 57, 56
2, 19008, Note_on_c, 0, 61, 60
2, 19008, Note_on_c, 0, 69, 64
2, 19102, Note_on_c, 0, 69, 0
2, 19102, Note_on_c, 0, 61, 0
2, 19102, Note_on_c, 0, 57, 0
2, 19104, Note_on_c, 0, 65, 0
2, 19104, Note_on_c, 0, 64, 74
2, 19150, Note_on_c, 0, 64, 0
2, 19152, Note_on_c, 0, 62, 72
2, 19248, Note_on_c, 0, 54, 36
2, 19248, Note_on_c, 0, 57, 42
2, 19294, Note_on_c, 0, 57, 0
2, 19294, Note_on_c, 0, 54, 0
2, 19296, Note_on_c, 0, 55, 36
2, 19296, Note_on_c, 0, 58, 42
2, 19390, Note_on_c, 0, 58, 0
2, 19390, Note_on_c, 0, 55, 0
2, 19392, Note_on_c, 0, 54, 34
2, 19392, Note_on_c, 0, 57, 40
2, 19438, Note_on_c, 0, 57, 0
2, 19438, Note_on_c, 0, 54, 0
2, 19440, Note_on_c, 0, 55, 36
2, 19440, Note_on_c, 0, 58, 42
2, 19534, Note_on_c, 0, 62, 0
2, 19534, Note_on_c, 0, 58, 0
2, 19534, Note_on_c, 0, 55, 0
2, 19536, Note_on_c, 0, 55, 36
2, 19536, Note_on_c, 0, 60, 40
2, 19536, Note_on_c, 0, 64, 48
2, 19582, Note_on_c, 0, 64, 0
2, 19582, Note_on_c, 0, 60, 0
2, 19582, Note_on_c, 0, 55, 0
2, 19584, Note_on_c, 0, 57, 32
2, 19584, Note_on_c, 0, 60, 36
2, 19584, Note_on_c, 0, 65, 42
2, 19704, Note_on_c, 0, 65, 0
2, 19704, Note_on_c, 0, 60, 0
2, 19704, Note_on_c, 0, 57, 0
2, 19728, Note_on_c, 0, 72, 74
2, 19824, Note_on_c, 0, 65, 42
2, 19824, Note_on_c, 0, 69, 46
2, 19824, Note_on_c, 0, 74, 56
2, 19872, Note_on_c, 0, 74, 0
2, 19872, Note_on_c, 0, 69, 0
2, 19872, Note_on_c, 0, 65, 0
2, 19872, Note_on_c, 0, 64, 52
2, 19872, Note_on_c, 0, 67, 56
2, 19872, Note_on_c, 0, 76, 60
2, 19896, Note_on_c, 0, 76, 0
2, 19896, Note_on_c, 0, 67, 0
2, 19896, Note_on_c, 0, 64, 0
2, 19920, Note_on_c, 0, 64, 60
2, 19920, Note_on_c, 0, 67, 64
2, 19920, Note_on_c, 0, 76, 68
2, 19944, Note_on_c, 0, 76, 0
2, 19944, Note_on_c, 0, 67, 0
2, 19944, Note_on_c, 0, 64, 0
2, 19966, Note_on_c, 0, 72, 0
2, 20016, Note_on_c, 0, 69, 70
2, 20112, Note_on_c, 0, 62, 46
2, 20112, Note_on_c, 0, 65, 50
2, 20112, Note_on_c, 0, 71, 56
2, 20160, Note_on_c, 0, 71, 0
2, 20160, Note_on_c, 0, 65, 0
2, 20160, Note_on_c, 0, 62, 0
2, 20160, Note_on_c, 0, 60, 50
2, 20160, Note_on_c, 0, 64, 54
2, 20160, Note_on_c, 0, 72, 58
2, 20184, Note_on_c, 0, 72, 0
2, 20184, Note_on_c, 0, 64, 0
2, 20184, Note_on_c, 0, 60, 0
2, 20208, Note_on_c, 0, 60, 52
2, 20208, Note_on_c, 0, 64, 56
2, 20208, Note_on_c, 0, 72, 60
2, 20232, Note_on_c, 0, 72, 0
2, 20232, Note_on_c, 0, 64, 0
2, 20232, Note_on_c, 0, 60, 0
2, 20254, Note_on_c, 0, 69, 0
2, 20304, Note_on_c, 0, 72, 82
2, 20340, Note_on_c, 0, 72, 0
2, 20340, Note_on_c, 0, 74, 74
2, 20350, Note_on_c, 0, 74, 0
2, 20352, Note_on_c, 0, 72, 78
2, 20400, Note_on_c, 0, 65, 62
2, 20400, Note_on_c, 0, 69, 66
2, 20400, Note_on_c, 0, 74, 74
2, 20448, Note_on_c, 0, 74, 0
2, 20448, Note_on_c, 0, 69, 0
2, 20448, Note_on_c, 0, 65, 0
2, 20448, Note_on_c, 0, 64, 64
2, 20448, Note_on_c, 0, 67, 68
2, 20448, Note_on_c, 0, 76, 72
2, 20472, Note_on_c, 0, 76, 0
2, 20472, Note_on_c, 0, 67, 0
2, 20472, Note_on_c, 0, 64, 0
2, 20496, Note_on_c, 0, 64, 64
2, 20496, Note_on_c, 0, 67, 68
2, 20496, Note_on_c, 0, 76, 72
2, 20520, Note_on_c, 0, 76, 0
2, 20520, Note_on_c, 0, 67, 0
2, 20520, Note_on_c, 0, 64, 0
2, 20542, Note_on_c, 0, 72, 0
2, 20544, Note_on_c, 0, 70, 66
2, 20590, Note_on_c, 0, 70, 0
2, 20592, Note_on_c, 0, 69, 74
2, 20628, Note_on_c, 0, 69, 0
2, 20628, Note_on_c, 0, 70, 68
2, 20638, Note_on_c, 0, 70, 0
2, 20640, Note_on_c, 0, 69, 72
2, 20688, Note_on_c, 0, 62, 58
2, 20688, Note_on_c, 0, 65, 62
2, 20688, Note_on_c, 0, 71, 66
2, 20736, Note_on_c, 0, 71, 0
2, 20736, Note_on_c, 0, 65, 0
2, 20736, Note_on_c, 0, 62, 0
2, 20736, Note_on_c, 0, 60, 62
2, 20736, Note_on_c, 0, 64, 66
2, 20736, Note_on_c, 0, 72, 70
2, 20760, Note_on_c, 0, 72, 0
2, 20760, Note_on_c, 0, 64, 0
2, 20760, Note_on_c, 0, 60, 0
2, 20784, Note_on_c, 0, 60, 62
2, 20784, Note_on_c, 0, 64, 66
2, 20784, Note_on_c, 0, 72, 70
2, 20808, Note_on_c, 0, 72, 0
2, 20808, Note_on_c, 0, 64, 0
2, 20808, Note_on_c, 0, 60, 0
2, 20830, Note_on_c, 0, 69, 0
2, 20832, Note_on_c, 0, 67, 80
2, 20880, Note_on_c, 0, 67, 0
2, 20880, Note_on_c, 0, 65, 76
2, 20976, Note_on_c, 0, 58, 56
2, 20976, Note_on_c, 0, 62, 60
2, 20976, Note_on_c, 0, 67, 68
2, 21024, Note_on_c, 0, 67, 0
2, 21024, Note_on_c, 0, 62, 0
2, 21024, Note_on_c, 0, 58, 0
2, 21024, Note_on_c, 0, 57, 52
2, 21024, Note_on_c, 0, 61, 56
2, 21024, Note_on_c, 0, 69, 66
2, 21118, Note_on_c, 0, 69, 0
2, 21118, Note_on_c, 0, 61, 0
2, 21118, Note_on_c, 0, 57, 0
2, 21120, Note_on_c, 0, 65, 0
2, 21120, Note_on_c, 0, 64, 76
2, 21166, Note_on_c, 0, 64, 0
2, 21168, Note_on_c, 0, 65, 78
2, 21204, Note_on_c, 0, 65, 0
2, 21204, Note_on_c, 0, 67, 76
2, 21214, Note_on_c, 0, 67, 0
2, 21216, Note_on_c, 0, 65, 74
2, 21264, Note_on_c, 0, 58, 60
2, 21264, Note_on_c, 0, 62, 64
2, 21264, Note_on_c, 0, 67, 68
2, 21312, Note_on_c, 0, 67, 0
2, 21312, Note_on_c, 0, 62, 0
2, 21312, Note_on_c, 0, 58, 0
2, 21312, Note_on_c, 0, 57, 56
2, 21312, Note_on_c, 0, 61, 60
2, 21312, Note_on_c, 0, 69, 64
2, 21406, Note_on_c, 0, 69, 0
2, 21406, Note_on_c, 0, 65, 0
2, 21406, Note_on_c, 0, 61, 0
2, 21406, Note_on_c, 0, 57, 0
2, 21408, Note_on_c, 0, 64, 74
2, 21454, Note_on_c, 0, 64, 0
2, 21456, Note_on_c, 0, 62, 72
2, 21552, Note_on_c, 0, 54, 36
2, 21552, Note_on_c, 0, 57, 42
2, 21600, Note_on_c, 0, 57, 0
2, 21600, Note_on_c, 0, 54, 0
2, 21600, Note_on_c, 0, 55, 38
2, 21600, Note_on_c, 0, 58, 44
2, 21696, Note_on_c, 0, 62, 0
2, 21696, Note_on_c, 0, 58, 0
2, 21696, Note_on_c, 0, 55, 0
2, 21696, Note_on_c, 0, 55, 36
2, 21696, Note_on_c, 0, 60, 40
2, 21696, Note_on_c, 0, 63, 54
2, 21744, Note_on_c, 0, 63, 0
2, 21744, Note_on_c, 0, 60, 0
2, 21744, Note_on_c, 0, 55, 0
2, 21744, Note_on_c, 0, 55, 38
2, 21744, Note_on_c, 0, 57, 42
2, 21744, Note_on_c, 0, 62, 52
2, 21840, Note_on_c, 0, 62, 0
2, 21840, Note_on_c, 0, 57, 0
2, 21840, Note_on_c, 0, 55, 0
2, 21840, Note_on_c, 0, 54, 46
2, 21840, Note_on_c, 0, 57, 50
2, 21840, Note_on_c, 0, 62, 60
2, 21888, Note_on_c, 0, 62, 0
2, 21888, Note_on_c, 0, 57, 0
2, 21888, Note_on_c, 0, 54, 0
2, 21888, Note_on_c, 0, 50, 54
2, 21888, Note_on_c, 0, 55, 58
2, 21888, Note_on_c, 0, 59, 62
2, 21888, Note_on_c, 0, 62, 70
2, 22128, Note_on_c, 0, 62, 0
2, 22128, Note_on_c, 0, 59, 0
2, 22128, Note_on_c, 0, 55, 0
2, 22128, Note_on_c, 0, 50, 0
2, 22176, End_track
3, 0, Start_track
3, 0, Title_t, "LEFT HAND"
3, 0, MIDI_port, 0
3, 144, Note_on_c, 0, 55, 20
3, 144, Note_on_c, 0, 58, 22
3, 144, Note_on_c, 0, 62, 24
3, 192, Note_on_c, 0, 62, 0
3, 192, Note_on_c, 0, 58, 0
3, 192, Note_on_c, 0, 55, 0
3, 192, Note_on_c, 0, 43, 34
3, 216, Note_on_c, 0, 43, 0
3, 288, Note_on_c, 0, 55, 22
3, 288, Note_on_c, 0, 60, 24
3, 288, Note_on_c, 0, 63, 26
3, 336, Note_on_c, 0, 63, 0
3, 336, Note_on_c, 0, 60, 0
3, 336, Note_on_c, 0, 55, 0
3, 336, Note_on_c, 0, 43, 38
3, 360, Note_on_c, 0, 43, 0
3, 432, Note_on_c, 0, 55, 26
3, 432, Note_on_c, 0, 58, 28
3, 432, Note_on_c, 0, 62, 30
3, 480, Note_on_c, 0, 62, 0
3, 480, Note_on_c, 0, 58, 0
3, 480, Note_on_c, 0, 55, 0
3, 480, Note_on_c, 0, 43, 46
3, 504, Note_on_c, 0, 43, 0
3, 576, Note_on_c, 0, 45, 46
3, 600, Note_on_c, 0, 45, 0
3, 624, Note_on_c, 0, 53, 42
3, 624, Note_on_c, 0, 60, 44
3, 624, Note_on_c, 0, 63, 46
3, 670, Note_on_c, 0, 63, 0
3, 670, Note_on_c, 0, 60, 0
3, 670, Note_on_c, 0, 53, 0
3, 720, Note_on_c, 0, 45, 46
3, 744, Note_on_c, 0, 45, 0
3, 768, Note_on_c, 0, 53, 38
3, 768, Note_on_c, 0, 60, 40
3, 768, Note_on_c, 0, 63, 42
3, 814, Note_on_c, 0, 63, 0
3, 814, Note_on_c, 0, 60, 0
3, 814, Note_on_c, 0, 53, 0
3, 864, Note_on_c, 0, 53, 30
3, 864, Note_on_c, 0, 60, 32
3, 864, Note_on_c, 0, 63, 34
3, 912, Note_on_c, 0, 63, 0
3, 912, Note_on_c, 0, 60, 0
3, 912, Note_on_c, 0, 53, 0
3, 912, Note_on_c, 0, 45, 38
3, 936, Note_on_c, 0, 45, 0
3, 1008, Note_on_c, 0, 46, 26
3, 1032, Note_on_c, 0, 46, 0
3, 1056, Note_on_c, 0, 53, 28
3, 1056, Note_on_c, 0, 58, 30
3, 1056, Note_on_c, 0, 62, 32
3, 1102, Note_on_c, 0, 62, 0
3, 1102, Note_on_c, 0, 58, 0
3, 1102, Note_on_c, 0, 53, 0
3, 1152, Note_on_c, 0, 54, 34
3, 1152, Note_on_c, 0, 57, 36
3, 1152, Note_on_c, 0, 63, 38
3, 1198, Note_on_c, 0, 63, 0
3, 1198, Note_on_c, 0, 57, 0
3, 1198, Note_on_c, 0, 54, 0
3, 1200, Note_on_c, 0, 46, 48
3, 1200, Note_on_c, 0, 53, 58
3, 1246, Note_on_c, 0, 46, 0
3, 1296, Note_on_c, 0, 58, 32
3, 1296, Note_on_c, 0, 62, 34
3, 1342, Note_on_c, 0, 62, 0
3, 1342, Note_on_c, 0, 58, 0
3, 1344, Note_on_c, 0, 46, 42
3, 1368, Note_on_c, 0, 46, 0
3, 1438, Note_on_c, 0, 53, 0
3, 1440, Note_on_c, 0, 54, 34
3, 1440, Note_on_c, 0, 57, 36
3, 1440, Note_on_c, 0, 63, 38
3, 1486, Note_on_c, 0, 63, 0
3, 1486, Note_on_c, 0, 57, 0
3, 1486, Note_on_c, 0, 54, 0
3, 1488, Note_on_c, 0, 46, 47
3, 1488, Note_on_c, 0, 53, 57
3, 1534, Note_on_c, 0, 46, 0
3, 1584, Note_on_c, 0, 58, 30
3, 1584, Note_on_c, 0, 62, 32
3, 1630, Note_on_c, 0, 62, 0
3, 1630, Note_on_c, 0, 58, 0
3, 1632, Note_on_c, 0, 46, 36
3, 1656, Note_on_c, 0, 46, 0
3, 1726, Note_on_c, 0, 53, 0
3, 1728, Note_on_c, 0, 50, 24
3, 1728, Note_on_c, 0, 54, 26
3, 1728, Note_on_c, 0, 60, 28
3, 1776, Note_on_c, 0, 60, 0
3, 1776, Note_on_c, 0, 54, 0
3, 1776, Note_on_c, 0, 50, 0
3, 1776, Note_on_c, 0, 38, 30
3, 1800, Note_on_c, 0, 38, 0
3, 1872, Note_on_c, 0, 50, 26
3, 1872, Note_on_c, 0, 58, 30
3, 1920, Note_on_c, 0, 58, 0
3, 1920, Note_on_c, 0, 50, 0
3, 1920, Note_on_c, 0, 43, 32
3, 1944, Note_on_c, 0, 43, 0
3, 2016, Note_on_c, 0, 55, 24
3, 2016, Note_on_c, 0, 60, 26
3, 2016, Note_on_c, 0, 63, 28
3, 2064, Note_on_c, 0, 63, 0
3, 2064, Note_on_c, 0, 60, 0
3, 2064, Note_on_c, 0, 55, 0
3, 2064, Note_on_c, 0, 43, 36
3, 2088, Note_on_c, 0, 43, 0
3, 2160, Note_on_c, 0, 55, 32
3, 2160, Note_on_c, 0, 58, 34
3, 2160, Note_on_c, 0, 62, 36
3, 2208, Note_on_c, 0, 62, 0
3, 2208, Note_on_c, 0, 58, 0
3, 2208, Note_on_c, 0, 55, 0
3, 2208, Note_on_c, 0, 43, 50
3, 2232, Note_on_c, 0, 43, 0
3, 2304, Note_on_c, 0, 38, 46
3, 2350, Note_on_c, 0, 38, 0
3, 2352, Note_on_c, 0, 57, 38
3, 2352, Note_on_c, 0, 62, 42
3, 2352, Note_on_c, 0, 65, 46
3, 2352, Note_on_c, 0, 69, 52
3, 2398, Note_on_c, 0, 69, 0
3, 2398, Note_on_c, 0, 65, 0
3, 2398, Note_on_c, 0, 62, 0
3, 2398, Note_on_c, 0, 57, 0
3, 2448, Note_on_c, 0, 50, 42
3, 2472, Note_on_c, 0, 50, 0
3, 2496, Note_on_c, 0, 57, 38
3, 2496, Note_on_c, 0, 62, 40
3, 2496, Note_on_c, 0, 65, 42
3, 2496, Note_on_c, 0, 69, 48
3, 2542, Note_on_c, 0, 69, 0
3, 2542, Note_on_c, 0, 65, 0
3, 2542, Note_on_c, 0, 62, 0
3, 2542, Note_on_c, 0, 57, 0
3, 2592, Note_on_c, 0, 57, 40
3, 2592, Note_on_c, 0, 62, 44
3, 2592, Note_on_c, 0, 69, 48
3, 2640, Note_on_c, 0, 69, 0
3, 2640, Note_on_c, 0, 62, 0
3, 2640, Note_on_c, 0, 57, 0
3, 2640, Note_on_c, 0, 50, 38
3, 2664, Note_on_c, 0, 50, 0
3, 2736, Note_on_c, 0, 57, 34
3, 2736, Note_on_c, 0, 62, 36
3, 2736, Note_on_c, 0, 68, 56
3, 2784, Note_on_c, 0, 68, 0
3, 2784, Note_on_c, 0, 62, 0
3, 2784, Note_on_c, 0, 57, 0
3, 2784, Note_on_c, 0, 50, 32
3, 2808, Note_on_c, 0, 50, 0
3, 2880, Note_on_c, 0, 57, 34
3, 2880, Note_on_c, 0, 61, 36
3, 2880, Note_on_c, 0, 67, 40
3, 2928, Note_on_c, 0, 67, 0
3, 2928, Note_on_c, 0, 61, 0
3, 2928, Note_on_c, 0, 57, 0
3, 2928, Note_on_c, 0, 50, 36
3, 2952, Note_on_c, 0, 50, 0
3, 3024, Note_on_c, 0, 57, 32
3, 3024, Note_on_c, 0, 62, 34
3, 3024, Note_on_c, 0, 65, 36
3, 3072, Note_on_c, 0, 65, 0
3, 3072, Note_on_c, 0, 62, 0
3, 3072, Note_on_c, 0, 57, 0
3, 3072, Note_on_c, 0, 50, 36
3, 3096, Note_on_c, 0, 50, 0
3, 3168, Note_on_c, 0, 57, 34
3, 3168, Note_on_c, 0, 61, 36
3, 3168, Note_on_c, 0, 67, 40
3, 3216, Note_on_c, 0, 67, 0
3, 3216, Note_on_c, 0, 61, 0
3, 3216, Note_on_c, 0, 57, 0
3, 3216, Note_on_c, 0, 45, 40
3, 3240, Note_on_c, 0, 45, 0
3, 3312, Note_on_c, 0, 57, 30
3, 3312, Note_on_c, 0, 62, 32
3, 3312, Note_on_c, 0, 65, 34
3, 3360, Note_on_c, 0, 65, 0
3, 3360, Note_on_c, 0, 62, 0
3, 3360, Note_on_c, 0, 57, 0
3, 3360, Note_on_c, 0, 50, 30
3, 3384, Note_on_c, 0, 50, 0
3, 3456, Note_on_c, 0, 53, 24
3, 3456, Note_on_c, 0, 57, 26
3, 3456, Note_on_c, 0, 63, 30
3, 3504, Note_on_c, 0, 63, 0
3, 3504, Note_on_c, 0, 57, 0
3, 3504, Note_on_c, 0, 53, 0
3, 3504, Note_on_c, 0, 54, 26
3, 3528, Note_on_c, 0, 54, 0
3, 3600, Note_on_c, 0, 55, 22
3, 3600, Note_on_c, 0, 58, 24
3, 3600, Note_on_c, 0, 62, 26
3, 3648, Note_on_c, 0, 62, 0
3, 3648, Note_on_c, 0, 58, 0
3, 3648, Note_on_c, 0, 55, 0
3, 3648, Note_on_c, 0, 43, 36
3, 3672, Note_on_c, 0, 43, 0
3, 3744, Note_on_c, 0, 55, 24
3, 3744, Note_on_c, 0, 60, 26
3, 3744, Note_on_c, 0, 63, 28
3, 3792, Note_on_c, 0, 63, 0
3, 3792, Note_on_c, 0, 60, 0
3, 3792, Note_on_c, 0, 55, 0
3, 3792, Note_on_c, 0, 43, 38
3, 3816, Note_on_c, 0, 43, 0
3, 3888, Note_on_c, 0, 55, 30
3, 3888, Note_on_c, 0, 58, 32
3, 3888, Note_on_c, 0, 62, 34
3, 3936, Note_on_c, 0, 62, 0
3, 3936, Note_on_c, 0, 58, 0
3, 3936, Note_on_c, 0, 55, 0
3, 3936, Note_on_c, 0, 43, 46
3, 3960, Note_on_c, 0, 43, 0
3, 4032, Note_on_c, 0, 45, 42
3, 4056, Note_on_c, 0, 45, 0
3, 4080, Note_on_c, 0, 53, 38
3, 4080, Note_on_c, 0, 60, 40
3, 4080, Note_on_c, 0, 63, 42
3, 4126, Note_on_c, 0, 63, 0
3, 4126, Note_on_c, 0, 60, 0
3, 4126, Note_on_c, 0, 53, 0
3, 4176, Note_on_c, 0, 45, 46
3, 4200, Note_on_c, 0, 45, 0
3, 4224, Note_on_c, 0, 53, 36
3, 4224, Note_on_c, 0, 60, 38
3, 4224, Note_on_c, 0, 63, 40
3, 4270, Note_on_c, 0, 63, 0
3, 4270, Note_on_c, 0, 60, 0
3, 4270, Note_on_c, 0, 53, 0
3, 4320, Note_on_c, 0, 53, 32
3, 4320, Note_on_c, 0, 60, 34
3, 4320, Note_on_c, 0, 63, 36
3, 4368, Note_on_c, 0, 63, 0
3, 4368, Note_on_c, 0, 60, 0
3, 4368, Note_on_c, 0, 53, 0
3, 4368, Note_on_c, 0, 45, 36
3, 4392, Note_on_c, 0, 45, 0
3, 4464, Note_on_c, 0, 46, 26
3, 4488, Note_on_c, 0, 46, 0
3, 4512, Note_on_c, 0, 53, 24
3, 4512, Note_on_c, 0, 58, 26
3, 4512, Note_on_c, 0, 62, 28
3, 4558, Note_on_c, 0, 62, 0
3, 4558, Note_on_c, 0, 58, 0
3, 4558, Note_on_c, 0, 53, 0
3, 4608, Note_on_c, 0, 54, 32
3, 4608, Note_on_c, 0, 57, 34
3, 4608, Note_on_c, 0, 63, 36
3, 4654, Note_on_c, 0, 63, 0
3, 4654, Note_on_c, 0, 57, 0
3, 4654, Note_on_c, 0, 54, 0
3, 4656, Note_on_c, 0, 46, 48
3, 4656, Note_on_c, 0, 53, 58
3, 4702, Note_on_c, 0, 46, 0
3, 4752, Note_on_c, 0, 58, 32
3, 4752, Note_on_c, 0, 62, 34
3, 4798, Note_on_c, 0, 62, 0
3, 4798, Note_on_c, 0, 58, 0
3, 4800, Note_on_c, 0, 46, 42
3, 4824, Note_on_c, 0, 46, 0
3, 4894, Note_on_c, 0, 53, 0
3, 4896, Note_on_c, 0, 54, 34
3, 4896, Note_on_c, 0, 57, 36
3, 4896, Note_on_c, 0, 63, 38
3, 4942, Note_on_c, 0, 63, 0
3, 4942, Note_on_c, 0, 57, 0
3, 4942, Note_on_c, 0, 54, 0
3, 4944, Note_on_c, 0, 46, 47
3, 4944, Note_on_c, 0, 53, 57
3, 4990, Note_on_c, 0, 46, 0
3, 5040, Note_on_c, 0, 58, 30
3, 5040, Note_on_c, 0, 62, 32
3, 5086, Note_on_c, 0, 62, 0
3, 5086, Note_on_c, 0, 58, 0
3, 5088, Note_on_c, 0, 46, 38
3, 5112, Note_on_c, 0, 46, 0
3, 5182, Note_on_c, 0, 53, 0
3, 5184, Note_on_c, 0, 50, 26
3, 5184, Note_on_c, 0, 54, 28
3, 5184, Note_on_c, 0, 60, 32
3, 5232, Note_on_c, 0, 60, 0
3, 5232, Note_on_c, 0, 54, 0
3, 5232, Note_on_c, 0, 50, 0
3, 5232, Note_on_c, 0, 38, 32
3, 5256, Note_on_c, 0, 38, 0
3, 5328, Note_on_c, 0, 43, 22
3, 5328, Note_on_c, 0, 50, 26
3, 5328, Note_on_c, 0, 58, 30
3, 5376, Note_on_c, 0, 58, 0
3, 5376, Note_on_c, 0, 50, 0
3, 5376, Note_on_c, 0, 43, 0
3, 5376, Note_on_c, 0, 31, 35
3, 5400, Note_on_c, 0, 31, 0
3, 5472, Note_on_c, 0, 55, 24
3, 5472, Note_on_c, 0, 60, 26
3, 5472, Note_on_c, 0, 63, 28
3, 5520, Note_on_c, 0, 63, 0
3, 5520, Note_on_c, 0, 60, 0
3, 5520, Note_on_c, 0, 55, 0
3, 5520, Note_on_c, 0, 43, 42
3, 5544, Note_on_c, 0, 43, 0
3, 5616, Note_on_c, 0, 55, 30
3, 5616, Note_on_c, 0, 58, 32
3, 5616, Note_on_c, 0, 62, 34
3, 5664, Note_on_c, 0, 62, 0
3, 5664, Note_on_c, 0, 58, 0
3, 5664, Note_on_c, 0, 55, 0
3, 5664, Note_on_c, 0, 43, 48
3, 5688, Note_on_c, 0, 43, 0
3, 5760, Note_on_c, 0, 38, 48
3, 5806, Note_on_c, 0, 38, 0
3, 5808, Note_on_c, 0, 57, 38
3, 5808, Note_on_c, 0, 62, 42
3, 5808, Note_on_c, 0, 65, 46
3, 5808, Note_on_c, 0, 69, 52
3, 5854, Note_on_c, 0, 69, 0
3, 5854, Note_on_c, 0, 65, 0
3, 5854, Note_on_c, 0, 62, 0
3, 5854, Note_on_c, 0, 57, 0
3, 5904, Note_on_c, 0, 50, 42
3, 5928, Note_on_c, 0, 50, 0
3, 5952, Note_on_c, 0, 57, 38
3, 5952, Note_on_c, 0, 62, 40
3, 5952, Note_on_c, 0, 65, 42
3, 5952, Note_on_c, 0, 69, 48
3, 5998, Note_on_c, 0, 69, 0
3, 5998, Note_on_c, 0, 65, 0
3, 5998, Note_on_c, 0, 62, 0
3, 5998, Note_on_c, 0, 57, 0
3, 6048, Note_on_c, 0, 57, 40
3, 6048, Note_on_c, 0, 62, 44
3, 6048, Note_on_c, 0, 69, 48
3, 6096, Note_on_c, 0, 69, 0
3, 6096, Note_on_c, 0, 62, 0
3, 6096, Note_on_c, 0, 57, 0
3, 6096, Note_on_c, 0, 50, 36
3, 6120, Note_on_c, 0, 50, 0
3, 6192, Note_on_c, 0, 57, 36
3, 6192, Note_on_c, 0, 62, 38
3, 6192, Note_on_c, 0, 68, 56
3, 6240, Note_on_c, 0, 68, 0
3, 6240, Note_on_c, 0, 62, 0
3, 6240, Note_on_c, 0, 57, 0
3, 6240, Note_on_c, 0, 50, 34
3, 6264, Note_on_c, 0, 50, 0
3, 6336, Note_on_c, 0, 57, 32
3, 6336, Note_on_c, 0, 61, 34
3, 6336, Note_on_c, 0, 67, 38
3, 6384, Note_on_c, 0, 67, 0
3, 6384, Note_on_c, 0, 61, 0
3, 6384, Note_on_c, 0, 57, 0
3, 6384, Note_on_c, 0, 50, 32
3, 6408, Note_on_c, 0, 50, 0
3, 6480, Note_on_c, 0, 57, 30
3, 6480, Note_on_c, 0, 62, 32
3, 6480, Note_on_c, 0, 65, 34
3, 6528, Note_on_c, 0, 65, 0
3, 6528, Note_on_c, 0, 62, 0
3, 6528, Note_on_c, 0, 57, 0
3, 6528, Note_on_c, 0, 50, 32
3, 6552, Note_on_c, 0, 50, 0
3, 6624, Note_on_c, 0, 57, 32
3, 6624, Note_on_c, 0, 61, 34
3, 6624, Note_on_c, 0, 67, 38
3, 6672, Note_on_c, 0, 67, 0
3, 6672, Note_on_c, 0, 61, 0
3, 6672, Note_on_c, 0, 57, 0
3, 6672, Note_on_c, 0, 45, 38
3, 6696, Note_on_c, 0, 45, 0
3, 6768, Note_on_c, 0, 57, 28
3, 6768, Note_on_c, 0, 62, 30
3, 6768, Note_on_c, 0, 65, 32
3, 6816, Note_on_c, 0, 65, 0
3, 6816, Note_on_c, 0, 62, 0
3, 6816, Note_on_c, 0, 57, 0
3, 6816, Note_on_c, 0, 50, 30
3, 6840, Note_on_c, 0, 50, 0
3, 6912, Note_on_c, 0, 57, 26
3, 6912, Note_on_c, 0, 62, 28
3, 6912, Note_on_c, 0, 65, 30
3, 6960, Note_on_c, 0, 65, 0
3, 6960, Note_on_c, 0, 62, 0
3, 6960, Note_on_c, 0, 57, 0
3, 6960, Note_on_c, 0, 50, 29
3, 6984, Note_on_c, 0, 50, 0
3, 7056, Note_on_c, 0, 57, 26
3, 7056, Note_on_c, 0, 62, 28
3, 7056, Note_on_c, 0, 65, 30
3, 7104, Note_on_c, 0, 65, 0
3, 7104, Note_on_c, 0, 62, 0
3, 7104, Note_on_c, 0, 57, 0
3, 7104, Note_on_c, 0, 50, 30
3, 7128, Note_on_c, 0, 50, 0
3, 7200, Note_on_c, 0, 57, 22
3, 7200, Note_on_c, 0, 65, 26
3, 7248, Note_on_c, 0, 65, 0
3, 7248, Note_on_c, 0, 57, 0
3, 7248, Note_on_c, 0, 50, 26
3, 7342, Note_on_c, 0, 50, 0
3, 7344, Note_on_c, 0, 51, 22
3, 7344, Note_on_c, 0, 54, 23
3, 7344, Note_on_c, 0, 57, 25
3, 7344, Note_on_c, 0, 60, 26
3, 7390, Note_on_c, 0, 60, 0
3, 7390, Note_on_c, 0, 57, 0
3, 7390, Note_on_c, 0, 54, 0
3, 7390, Note_on_c, 0, 51, 0
3, 7392, Note_on_c, 0, 39, 54
3, 7416, Note_on_c, 0, 39, 0
3, 7488, Note_on_c, 0, 51, 20
3, 7488, Note_on_c, 0, 54, 22
3, 7488, Note_on_c, 0, 57, 23
3, 7488, Note_on_c, 0, 60, 24
3, 7534, Note_on_c, 0, 60, 0
3, 7534, Note_on_c, 0, 57, 0
3, 7534, Note_on_c, 0, 54, 0
3, 7534, Note_on_c, 0, 51, 0
3, 7536, Note_on_c, 0, 39, 40
3, 7560, Note_on_c, 0, 39, 0
3, 7632, Note_on_c, 0, 51, 20
3, 7632, Note_on_c, 0, 54, 22
3, 7632, Note_on_c, 0, 57, 23
3, 7632, Note_on_c, 0, 60, 24
3, 7678, Note_on_c, 0, 60, 0
3, 7678, Note_on_c, 0, 57, 0
3, 7678, Note_on_c, 0, 54, 0
3, 7678, Note_on_c, 0, 51, 0
3, 7680, Note_on_c, 0, 39, 38
3, 7704, Note_on_c, 0, 39, 0
3, 7776, Note_on_c, 0, 51, 24
3, 7776, Note_on_c, 0, 55, 26
3, 7776, Note_on_c, 0, 59, 28
3, 7824, Note_on_c, 0, 59, 0
3, 7824, Note_on_c, 0, 55, 0
3, 7824, Note_on_c, 0, 51, 0
3, 7824, Note_on_c, 0, 39, 58
3, 7848, Note_on_c, 0, 39, 0
3, 7920, Note_on_c, 0, 50, 24
3, 7920, Note_on_c, 0, 55, 26
3, 7920, Note_on_c, 0, 59, 28
3, 7968, Note_on_c, 0, 59, 0
3, 7968, Note_on_c, 0, 55, 0
3, 7968, Note_on_c, 0, 50, 0
3, 7968, Note_on_c, 0, 38, 35
3, 7992, Note_on_c, 0, 38, 0
3, 8064, Note_on_c, 0, 50, 24
3, 8064, Note_on_c, 0, 55, 26
3, 8064, Note_on_c, 0, 59, 28
3, 8112, Note_on_c, 0, 59, 0
3, 8112, Note_on_c, 0, 55, 0
3, 8112, Note_on_c, 0, 50, 0
3, 8112, Note_on_c, 0, 38, 32
3, 8136, Note_on_c, 0, 38, 0
3, 8208, Note_on_c, 0, 50, 28
3, 8208, Note_on_c, 0, 54, 30
3, 8208, Note_on_c, 0, 60, 34
3, 8256, Note_on_c, 0, 60, 0
3, 8256, Note_on_c, 0, 54, 0
3, 8256, Note_on_c, 0, 50, 0
3, 8256, Note_on_c, 0, 38, 46
3, 8280, Note_on_c, 0, 38, 0
3, 8352, Note_on_c, 0, 50, 28
3, 8352, Note_on_c, 0, 54, 30
3, 8352, Note_on_c, 0, 59, 32
3, 8400, Note_on_c, 0, 59, 0
3, 8400, Note_on_c, 0, 54, 0
3, 8400, Note_on_c, 0, 50, 0
3, 8400, Note_on_c, 0, 38, 42
3, 8424, Note_on_c, 0, 38, 0
3, 8496, Note_on_c, 0, 50, 41
3, 8496, Note_on_c, 0, 53, 43
3, 8496, Note_on_c, 0, 56, 45
3, 8496, Note_on_c, 0, 59, 47
3, 8542, Note_on_c, 0, 59, 0
3, 8542, Note_on_c, 0, 56, 0
3, 8542, Note_on_c, 0, 53, 0
3, 8542, Note_on_c, 0, 50, 0
3, 8544, Note_on_c, 0, 38, 40
3, 8568, Note_on_c, 0, 38, 0
3, 8640, Note_on_c, 0, 50, 36
3, 8640, Note_on_c, 0, 53, 38
3, 8640, Note_on_c, 0, 56, 40
3, 8640, Note_on_c, 0, 59, 42
3, 8686, Note_on_c, 0, 59, 0
3, 8686, Note_on_c, 0, 56, 0
3, 8686, Note_on_c, 0, 53, 0
3, 8686, Note_on_c, 0, 50, 0
3, 8688, Note_on_c, 0, 38, 40
3, 8712, Note_on_c, 0, 38, 0
3, 8784, Note_on_c, 0, 50, 38
3, 8784, Note_on_c, 0, 53, 40
3, 8784, Note_on_c, 0, 56, 42
3, 8784, Note_on_c, 0, 59, 44
3, 8830, Note_on_c, 0, 59, 0
3, 8830, Note_on_c, 0, 56, 0
3, 8830, Note_on_c, 0, 53, 0
3, 8830, Note_on_c, 0, 50, 0
3, 8832, Note_on_c, 0, 38, 42
3, 8856, Note_on_c, 0, 38, 0
3, 8928, Note_on_c, 0, 50, 32
3, 8928, Note_on_c, 0, 53, 34
3, 8928, Note_on_c, 0, 58, 36
3, 8976, Note_on_c, 0, 58, 0
3, 8976, Note_on_c, 0, 53, 0
3, 8976, Note_on_c, 0, 50, 0
3, 8976, Note_on_c, 0, 38, 56
3, 9000, Note_on_c, 0, 38, 0
3, 9072, Note_on_c, 0, 49, 44
3, 9072, Note_on_c, 0, 54, 48
3, 9072, Note_on_c, 0, 58, 52
3, 9120, Note_on_c, 0, 58, 0
3, 9120, Note_on_c, 0, 54, 0
3, 9120, Note_on_c, 0, 49, 0
3, 9120, Note_on_c, 0, 37, 56
3, 9144, Note_on_c, 0, 37, 0
3, 9216, Note_on_c, 0, 49, 44
3, 9216, Note_on_c, 0, 54, 48
3, 9216, Note_on_c, 0, 58, 52
3, 9264, Note_on_c, 0, 58, 0
3, 9264, Note_on_c, 0, 54, 0
3, 9264, Note_on_c, 0, 49, 0
3, 9264, Note_on_c, 0, 37, 54
3, 9288, Note_on_c, 0, 37, 0
3, 9360, Note_on_c, 0, 49, 38
3, 9360, Note_on_c, 0, 53, 40
3, 9360, Note_on_c, 0, 59, 42
3, 9408, Note_on_c, 0, 59, 0
3, 9408, Note_on_c, 0, 53, 0
3, 9408, Note_on_c, 0, 49, 0
3, 9408, Note_on_c, 0, 37, 50
3, 9432, Note_on_c, 0, 37, 0
3, 9504, Note_on_c, 0, 49, 34
3, 9504, Note_on_c, 0, 54, 36
3, 9504, Note_on_c, 0, 58, 38
3, 9552, Note_on_c, 0, 58, 0
3, 9552, Note_on_c, 0, 54, 0
3, 9552, Note_on_c, 0, 49, 0
3, 9552, Note_on_c, 0, 37, 42
3, 9576, Note_on_c, 0, 37, 0
3, 9648, Note_on_c, 0, 49, 40
3, 9648, Note_on_c, 0, 54, 42
3, 9648, Note_on_c, 0, 58, 44
3, 9696, Note_on_c, 0, 58, 0
3, 9696, Note_on_c, 0, 54, 0
3, 9696, Note_on_c, 0, 49, 0
3, 9696, Note_on_c, 0, 37, 41
3, 9720, Note_on_c, 0, 37, 0
3, 9792, Note_on_c, 0, 49, 38
3, 9792, Note_on_c, 0, 54, 40
3, 9792, Note_on_c, 0, 58, 42
3, 9840, Note_on_c, 0, 58, 0
3, 9840, Note_on_c, 0, 54, 0
3, 9840, Note_on_c, 0, 49, 0
3, 9840, Note_on_c, 0, 37, 40
3, 9864, Note_on_c, 0, 37, 0
3, 9936, Note_on_c, 0, 49, 36
3, 9936, Note_on_c, 0, 55, 38
3, 9936, Note_on_c, 0, 58, 40
3, 9982, Note_on_c, 0, 58, 0
3, 9982, Note_on_c, 0, 55, 0
3, 9982, Note_on_c, 0, 49, 0
3, 9984, Note_on_c, 0, 37, 42
3, 10008, Note_on_c, 0, 37, 0
3, 10080, Note_on_c, 0, 49, 42
3, 10080, Note_on_c, 0, 56, 44
3, 10080, Note_on_c, 0, 59, 46
3, 10126, Note_on_c, 0, 59, 0
3, 10126, Note_on_c, 0, 56, 0
3, 10126, Note_on_c, 0, 49, 0
3, 10128, Note_on_c, 0, 37, 46
3, 10152, Note_on_c, 0, 37, 0
3, 10224, Note_on_c, 0, 58, 50
3, 10224, Note_on_c, 0, 61, 52
3, 10224, Note_on_c, 0, 64, 54
3, 10270, Note_on_c, 0, 64, 0
3, 10270, Note_on_c, 0, 61, 0
3, 10270, Note_on_c, 0, 58, 0
3, 10272, Note_on_c, 0, 37, 58
3, 10296, Note_on_c, 0, 37, 0
3, 10368, Note_on_c, 0, 59, 52
3, 10368, Note_on_c, 0, 63, 54
3, 10368, Note_on_c, 0, 68, 56
3, 10414, Note_on_c, 0, 68, 0
3, 10414, Note_on_c, 0, 63, 0
3, 10414, Note_on_c, 0, 59, 0
3, 10416, Note_on_c, 0, 37, 62
3, 10416, Note_on_c, 0, 49, 66
3, 10440, Note_on_c, 0, 49, 0
3, 10440, Note_on_c, 0, 37, 0
3, 10512, Note_on_c, 0, 56, 54
3, 10512, Note_on_c, 0, 59, 56
3, 10512, Note_on_c, 0, 62, 58
3, 10558, Note_on_c, 0, 62, 0
3, 10558, Note_on_c, 0, 59, 0
3, 10558, Note_on_c, 0, 56, 0
3, 10560, Note_on_c, 0, 37, 66
3, 10560, Note_on_c, 0, 49, 70
3, 10584, Note_on_c, 0, 49, 0
3, 10584, Note_on_c, 0, 37, 0
3, 10656, Note_on_c, 0, 58, 58
3, 10656, Note_on_c, 0, 61, 60
3, 10656, Note_on_c, 0, 66, 62
3, 10702, Note_on_c, 0, 66, 0
3, 10702, Note_on_c, 0, 61, 0
3, 10702, Note_on_c, 0, 58, 0
3, 10704, Note_on_c, 0, 37, 70
3, 10704, Note_on_c, 0, 49, 74
3, 10728, Note_on_c, 0, 49, 0
3, 10728, Note_on_c, 0, 37, 0
3, 10800, Note_on_c, 0, 57, 60
3, 10800, Note_on_c, 0, 63, 62
3, 10800, Note_on_c, 0, 66, 64
3, 10846, Note_on_c, 0, 66, 0
3, 10846, Note_on_c, 0, 63, 0
3, 10846, Note_on_c, 0, 57, 0
3, 10848, Note_on_c, 0, 25, 62
3, 10848, Note_on_c, 0, 37, 72
3, 10872, Note_on_c, 0, 37, 0
3, 10872, Note_on_c, 0, 25, 0
3, 10944, Note_on_c, 0, 57, 60
3, 10944, Note_on_c, 0, 60, 62
3, 10944, Note_on_c, 0, 63, 63
3, 10944, Note_on_c, 0, 66, 64
3, 10944, Note_on_c, 0, 69, 66
3, 10990, Note_on_c, 0, 69, 0
3, 10990, Note_on_c, 0, 66, 0
3, 10990, Note_on_c, 0, 63, 0
3, 10990, Note_on_c, 0, 60, 0
3, 10990, Note_on_c, 0, 57, 0
3, 10992, Note_on_c, 0, 25, 64
3, 10992, Note_on_c, 0, 37, 74
3, 11016, Note_on_c, 0, 37, 0
3, 11016, Note_on_c, 0, 25, 0
3, 11088, Note_on_c, 0, 69, 76
3, 11088, Note_on_c, 0, 75, 82
3, 11136, Note_on_c, 0, 75, 0
3, 11136, Note_on_c, 0, 69, 0
3, 11136, Note_on_c, 0, 68, 68
3, 11136, Note_on_c, 0, 74, 72
3, 11182, Note_on_c, 0, 74, 0
3, 11182, Note_on_c, 0, 68, 0
3, 11184, Note_on_c, 0, 66, 68
3, 11184, Note_on_c, 0, 72, 74
3, 11232, Note_on_c, 0, 72, 0
3, 11232, Note_on_c, 0, 66, 0
3, 11232, Note_on_c, 0, 65, 64
3, 11232, Note_on_c, 0, 71, 68
3, 11278, Note_on_c, 0, 71, 0
3, 11278, Note_on_c, 0, 65, 0
3, 11280, Note_on_c, 0, 63, 66
3, 11280, Note_on_c, 0, 69, 72
3, 11328, Note_on_c, 0, 69, 0
3, 11328, Note_on_c, 0, 63, 0
3, 11328, Note_on_c, 0, 62, 62
3, 11328, Note_on_c, 0, 68, 66
3, 11374, Note_on_c, 0, 68, 0
3, 11374, Note_on_c, 0, 62, 0
3, 11376, Note_on_c, 0, 60, 74
3, 11376, Note_on_c, 0, 66, 80
3, 11472, Note_on_c, 0, 66, 0
3, 11472, Note_on_c, 0, 60, 0
3, 11472, Note_on_c, 0, 61, 60
3, 11472, Note_on_c, 0, 65, 66
3, 11518, Note_on_c, 0, 65, 0
3, 11518, Note_on_c, 0, 61, 0
3, 11520, Note_on_c, 0, 49, 70
3, 11544, Note_on_c, 0, 49, 0
3, 11544, Note_on_c, 0, 54, 74
3, 11566, Note_on_c, 0, 54, 0
3, 11568, Note_on_c, 0, 53, 78
3, 11592, Note_on_c, 0, 53, 0
3, 11616, Note_on_c, 0, 37, 68
3, 11640, Note_on_c, 0, 37, 0
3, 11664, Note_on_c, 0, 57, 56
3, 11664, Note_on_c, 0, 62, 60
3, 11760, Note_on_c, 0, 62, 0
3, 11760, Note_on_c, 0, 57, 0
3, 11760, Note_on_c, 0, 56, 42
3, 11760, Note_on_c, 0, 61, 46
3, 11806, Note_on_c, 0, 61, 0
3, 11806, Note_on_c, 0, 56, 0
3, 11808, Note_on_c, 0, 49, 58
3, 11832, Note_on_c, 0, 49, 0
3, 11832, Note_on_c, 0, 54, 60
3, 11854, Note_on_c, 0, 54, 0
3, 11856, Note_on_c, 0, 53, 64
3, 11880, Note_on_c, 0, 53, 0
3, 11904, Note_on_c, 0, 37, 46
3, 11928, Note_on_c, 0, 37, 0
3, 11952, Note_on_c, 0, 54, 38
3, 11952, Note_on_c, 0, 60, 42
3, 12048, Note_on_c, 0, 60, 0
3, 12048, Note_on_c, 0, 54, 0
3, 12048, Note_on_c, 0, 53, 33
3, 12048, Note_on_c, 0, 61, 36
3, 12094, Note_on_c, 0, 61, 0
3, 12094, Note_on_c, 0, 53, 0
3, 12096, Note_on_c, 0, 49, 50
3, 12120, Note_on_c, 0, 49, 0
3, 12120, Note_on_c, 0, 54, 52
3, 12142, Note_on_c, 0, 54, 0
3, 12144, Note_on_c, 0, 53, 50
3, 12168, Note_on_c, 0, 53, 0
3, 12192, Note_on_c, 0, 44, 44
3, 12216, Note_on_c, 0, 44, 0
3, 12240, Note_on_c, 0, 37, 34
3, 12382, Note_on_c, 0, 37, 0
3, 12384, Note_on_c, 0, 37, 36
3, 12526, Note_on_c, 0, 37, 0
3, 12528, Note_on_c, 0, 37, 32
3, 12670, Note_on_c, 0, 37, 0
3, 12672, Note_on_c, 0, 37, 30
3, 12768, Note_on_c, 0, 37, 0
3, 12768, Note_on_c, 0, 36, 28
3, 12814, Note_on_c, 0, 36, 0
3, 12816, Note_on_c, 0, 36, 30
3, 12960, Note_on_c, 0, 36, 0
3, 12960, Note_on_c, 0, 38, 32
3, 13054, Note_on_c, 0, 38, 0
3, 13056, Note_on_c, 0, 43, 32
3, 13102, Note_on_c, 0, 43, 0
3, 13104, Note_on_c, 0, 48, 28
3, 13246, Note_on_c, 0, 48, 0
3, 13248, Note_on_c, 0, 50, 28
3, 13294, Note_on_c, 0, 50, 0
3, 13296, Note_on_c, 0, 50, 28
3, 13342, Note_on_c, 0, 50, 0
3, 13344, Note_on_c, 0, 48, 26
3, 13390, Note_on_c, 0, 48, 0
3, 13392, Note_on_c, 0, 53, 30
3, 13438, Note_on_c, 0, 53, 0
3, 13440, Note_on_c, 0, 53, 30
3, 13486, Note_on_c, 0, 53, 0
3, 13488, Note_on_c, 0, 52, 28
3, 13534, Note_on_c, 0, 52, 0
3, 13536, Note_on_c, 0, 57, 34
3, 13582, Note_on_c, 0, 57, 0
3, 13584, Note_on_c, 0, 57, 34
3, 13630, Note_on_c, 0, 57, 0
3, 13632, Note_on_c, 0, 50, 32
3, 13678, Note_on_c, 0, 50, 0
3, 13680, Note_on_c, 0, 55, 33
3, 13726, Note_on_c, 0, 55, 0
3, 13728, Note_on_c, 0, 55, 33
3, 13774, Note_on_c, 0, 55, 0
3, 13776, Note_on_c, 0, 48, 31
3, 13822, Note_on_c, 0, 48, 0
3, 13824, Note_on_c, 0, 53, 30
3, 13848, Note_on_c, 0, 53, 0
3, 13872, Note_on_c, 0, 41, 26
3, 13920, Note_on_c, 0, 41, 0
3, 13920, Note_on_c, 0, 40, 34
3, 13968, Note_on_c, 0, 40, 0
3, 13968, Note_on_c, 0, 38, 28
3, 14016, Note_on_c, 0, 38, 0
3, 14016, Note_on_c, 0, 40, 29
3, 14064, Note_on_c, 0, 40, 0
3, 14064, Note_on_c, 0, 45, 29
3, 14110, Note_on_c, 0, 45, 0
3, 14112, Note_on_c, 0, 38, 26
3, 14206, Note_on_c, 0, 38, 0
3, 14208, Note_on_c, 0, 45, 28
3, 14254, Note_on_c, 0, 45, 0
3, 14256, Note_on_c, 0, 38, 28
3, 14302, Note_on_c, 0, 38, 0
3, 14304, Note_on_c, 0, 45, 29
3, 14350, Note_on_c, 0, 45, 0
3, 14352, Note_on_c, 0, 50, 30
3, 14398, Note_on_c, 0, 50, 0
3, 14400, Note_on_c, 0, 43, 32
3, 14494, Note_on_c, 0, 43, 0
3, 14496, Note_on_c, 0, 50, 28
3, 14542, Note_on_c, 0, 50, 0
3, 14544, Note_on_c, 0, 43, 30
3, 14590, Note_on_c, 0, 43, 0
3, 14592, Note_on_c, 0, 45, 31
3, 14638, Note_on_c, 0, 45, 0
3, 14640, Note_on_c, 0, 50, 33
3, 14686, Note_on_c, 0, 50, 0
3, 14688, Note_on_c, 0, 48, 28
3, 14782, Note_on_c, 0, 48, 0
3, 14784, Note_on_c, 0, 53, 34
3, 14830, Note_on_c, 0, 53, 0
3, 14832, Note_on_c, 0, 43, 34
3, 14878, Note_on_c, 0, 43, 0
3, 14880, Note_on_c, 0, 45, 35
3, 14926, Note_on_c, 0, 45, 0
3, 14928, Note_on_c, 0, 43, 34
3, 14974, Note_on_c, 0, 43, 0
3, 14976, Note_on_c, 0, 45, 32
3, 15022, Note_on_c, 0, 45, 0
3, 15024, Note_on_c, 0, 46, 30
3, 15070, Note_on_c, 0, 46, 0
3, 15072, Note_on_c, 0, 48, 26
3, 15118, Note_on_c, 0, 48, 0
3, 15120, Note_on_c, 0, 36, 28
3, 15262, Note_on_c, 0, 36, 0
3, 15264, Note_on_c, 0, 38, 30
3, 15358, Note_on_c, 0, 38, 0
3, 15360, Note_on_c, 0, 43, 31
3, 15406, Note_on_c, 0, 43, 0
3, 15408, Note_on_c, 0, 48, 30
3, 15550, Note_on_c, 0, 48, 0
3, 15552, Note_on_c, 0, 50, 30
3, 15598, Note_on_c, 0, 50, 0
3, 15600, Note_on_c, 0, 50, 32
3, 15646, Note_on_c, 0, 50, 0
3, 15648, Note_on_c, 0, 48, 30
3, 15694, Note_on_c, 0, 48, 0
3, 15696, Note_on_c, 0, 53, 35
3, 15742, Note_on_c, 0, 53, 0
3, 15744, Note_on_c, 0, 53, 37
3, 15790, Note_on_c, 0, 53, 0
3, 15792, Note_on_c, 0, 52, 35
3, 15838, Note_on_c, 0, 52, 0
3, 15840, Note_on_c, 0, 57, 41
3, 15886, Note_on_c, 0, 57, 0
3, 15888, Note_on_c, 0, 57, 41
3, 15934, Note_on_c, 0, 57, 0
3, 15936, Note_on_c, 0, 50, 39
3, 15982, Note_on_c, 0, 50, 0
3, 15984, Note_on_c, 0, 55, 44
3, 16030, Note_on_c, 0, 55, 0
3, 16032, Note_on_c, 0, 55, 44
3, 16078, Note_on_c, 0, 55, 0
3, 16080, Note_on_c, 0, 48, 42
3, 16126, Note_on_c, 0, 48, 0
3, 16128, Note_on_c, 0, 53, 42
3, 16174, Note_on_c, 0, 53, 0
3, 16176, Note_on_c, 0, 41, 44
3, 16222, Note_on_c, 0, 41, 0
3, 16224, Note_on_c, 0, 40, 48
3, 16270, Note_on_c, 0, 40, 0
3, 16272, Note_on_c, 0, 38, 42
3, 16318, Note_on_c, 0, 38, 0
3, 16320, Note_on_c, 0, 40, 45
3, 16366, Note_on_c, 0, 40, 0
3, 16368, Note_on_c, 0, 45, 43
3, 16414, Note_on_c, 0, 45, 0
3, 16416, Note_on_c, 0, 38, 42
3, 16510, Note_on_c, 0, 38, 0
3, 16512, Note_on_c, 0, 45, 41
3, 16558, Note_on_c, 0, 45, 0
3, 16560, Note_on_c, 0, 38, 42
3, 16606, Note_on_c, 0, 38, 0
3, 16608, Note_on_c, 0, 45, 40
3, 16654, Note_on_c, 0, 45, 0
3, 16656, Note_on_c, 0, 50, 38
3, 16702, Note_on_c, 0, 50, 0
3, 16704, Note_on_c, 0, 43, 44
3, 16798, Note_on_c, 0, 43, 0
3, 16800, Note_on_c, 0, 50, 36
3, 16846, Note_on_c, 0, 50, 0
3, 16848, Note_on_c, 0, 43, 42
3, 16894, Note_on_c, 0, 43, 0
3, 16896, Note_on_c, 0, 45, 40
3, 16942, Note_on_c, 0, 45, 0
3, 16944, Note_on_c, 0, 50, 38
3, 16990, Note_on_c, 0, 50, 0
3, 16992, Note_on_c, 0, 48, 38
3, 17086, Note_on_c, 0, 48, 0
3, 17088, Note_on_c, 0, 53, 36
3, 17134, Note_on_c, 0, 53, 0
3, 17136, Note_on_c, 0, 43, 39
3, 17182, Note_on_c, 0, 43, 0
3, 17184, Note_on_c, 0, 45, 41
3, 17230, Note_on_c, 0, 45, 0
3, 17232, Note_on_c, 0, 43, 39
3, 17278, Note_on_c, 0, 43, 0
3, 17280, Note_on_c, 0, 48, 40
3, 17374, Note_on_c, 0, 48, 0
3, 17376, Note_on_c, 0, 41, 38
3, 17422, Note_on_c, 0, 41, 0
3, 17424, Note_on_c, 0, 60, 68
3, 17520, Note_on_c, 0, 53, 42
3, 17568, Note_on_c, 0, 53, 0
3, 17568, Note_on_c, 0, 48, 48
3, 17592, Note_on_c, 0, 48, 0
3, 17616, Note_on_c, 0, 48, 48
3, 17640, Note_on_c, 0, 48, 0
3, 17662, Note_on_c, 0, 60, 0
3, 17712, Note_on_c, 0, 57, 58
3, 17808, Note_on_c, 0, 50, 40
3, 17856, Note_on_c, 0, 50, 0
3, 17856, Note_on_c, 0, 45, 40
3, 17880, Note_on_c, 0, 45, 0
3, 17904, Note_on_c, 0, 45, 40
3, 17928, Note_on_c, 0, 45, 0
3, 17950, Note_on_c, 0, 57, 0
3, 18000, Note_on_c, 0, 60, 66
3, 18036, Note_on_c, 0, 60, 0
3, 18036, Note_on_c, 0, 62, 60
3, 18046, Note_on_c, 0, 62, 0
3, 18048, Note_on_c, 0, 60, 62
3, 18096, Note_on_c, 0, 53, 54
3, 18144, Note_on_c, 0, 53, 0
3, 18144, Note_on_c, 0, 48, 56
3, 18168, Note_on_c, 0, 48, 0
3, 18192, Note_on_c, 0, 48, 56
3, 18216, Note_on_c, 0, 48, 0
3, 18238, Note_on_c, 0, 60, 0
3, 18240, Note_on_c, 0, 58, 54
3, 18286, Note_on_c, 0, 58, 0
3, 18288, Note_on_c, 0, 57, 58
3, 18324, Note_on_c, 0, 57, 0
3, 18324, Note_on_c, 0, 58, 52
3, 18334, Note_on_c, 0, 58, 0
3, 18336, Note_on_c, 0, 57, 56
3, 18384, Note_on_c, 0, 50, 42
3, 18432, Note_on_c, 0, 50, 0
3, 18432, Note_on_c, 0, 45, 44
3, 18456, Note_on_c, 0, 45, 0
3, 18480, Note_on_c, 0, 45, 44
3, 18504, Note_on_c, 0, 45, 0
3, 18526, Note_on_c, 0, 57, 0
3, 18528, Note_on_c, 0, 55, 70
3, 18576, Note_on_c, 0, 55, 0
3, 18576, Note_on_c, 0, 53, 66
3, 18672, Note_on_c, 0, 46, 42
3, 18720, Note_on_c, 0, 46, 0
3, 18720, Note_on_c, 0, 45, 38
3, 18814, Note_on_c, 0, 45, 0
3, 18816, Note_on_c, 0, 53, 0
3, 18816, Note_on_c, 0, 52, 66
3, 18862, Note_on_c, 0, 52, 0
3, 18864, Note_on_c, 0, 53, 62
3, 18900, Note_on_c, 0, 53, 0
3, 18900, Note_on_c, 0, 55, 60
3, 18910, Note_on_c, 0, 55, 0
3, 18912, Note_on_c, 0, 53, 62
3, 18960, Note_on_c, 0, 46, 40
3, 19008, Note_on_c, 0, 46, 0
3, 19008, Note_on_c, 0, 45, 48
3, 19102, Note_on_c, 0, 45, 0
3, 19104, Note_on_c, 0, 53, 0
3, 19104, Note_on_c, 0, 52, 64
3, 19150, Note_on_c, 0, 52, 0
3, 19152, Note_on_c, 0, 50, 62
3, 19248, Note_on_c, 0, 38, 32
3, 19294, Note_on_c, 0, 38, 0
3, 19296, Note_on_c, 0, 43, 32
3, 19390, Note_on_c, 0, 43, 0
3, 19392, Note_on_c, 0, 38, 30
3, 19438, Note_on_c, 0, 38, 0
3, 19440, Note_on_c, 0, 43, 30
3, 19534, Note_on_c, 0, 50, 0
3, 19534, Note_on_c, 0, 43, 0
3, 19536, Note_on_c, 0, 36, 30
3, 19536, Note_on_c, 0, 48, 32
3, 19582, Note_on_c, 0, 48, 0
3, 19582, Note_on_c, 0, 36, 0
3, 19584, Note_on_c, 0, 41, 28
3, 19584, Note_on_c, 0, 48, 30
3, 19704, Note_on_c, 0, 48, 0
3, 19704, Note_on_c, 0, 41, 0
3, 19728, Note_on_c, 0, 60, 68
3, 19824, Note_on_c, 0, 53, 42
3, 19872, Note_on_c, 0, 53, 0
3, 19872, Note_on_c, 0, 48, 48
3, 19896, Note_on_c, 0, 48, 0
3, 19920, Note_on_c, 0, 48, 48
3, 19944, Note_on_c, 0, 48, 0
3, 19966, Note_on_c, 0, 60, 0
3, 20016, Note_on_c, 0, 57, 58
3, 20112, Note_on_c, 0, 50, 40
3, 20160, Note_on_c, 0, 50, 0
3, 20160, Note_on_c, 0, 45, 40
3, 20184, Note_on_c, 0, 45, 0
3, 20208, Note_on_c, 0, 45, 40
3, 20232, Note_on_c, 0, 45, 0
3, 20254, Note_on_c, 0, 57, 0
3, 20304, Note_on_c, 0, 60, 66
3, 20340, Note_on_c, 0, 60, 0
3, 20340, Note_on_c, 0, 62, 60
3, 20350, Note_on_c, 0, 62, 0
3, 20352, Note_on_c, 0, 60, 62
3, 20400, Note_on_c, 0, 53, 54
3, 20448, Note_on_c, 0, 53, 0
3, 20448, Note_on_c, 0, 48, 56
3, 20472, Note_on_c, 0, 48, 0
3, 20496, Note_on_c, 0, 48, 56
3, 20520, Note_on_c, 0, 48, 0
3, 20542, Note_on_c, 0, 60, 0
3, 20544, Note_on_c, 0, 58, 54
3, 20590, Note_on_c, 0, 58, 0
3, 20592, Note_on_c, 0, 57, 58
3, 20628, Note_on_c, 0, 57, 0
3, 20628, Note_on_c, 0, 58, 52
3, 20638, Note_on_c, 0, 58, 0
3, 20640, Note_on_c, 0, 57, 56
3, 20688, Note_on_c, 0, 50, 42
3, 20736, Note_on_c, 0, 50, 0
3, 20736, Note_on_c, 0, 45, 44
3, 20760, Note_on_c, 0, 45, 0
3, 20784, Note_on_c, 0, 45, 44
3, 20808, Note_on_c, 0, 45, 0
3, 20830, Note_on_c, 0, 57, 0
3, 20832, Note_on_c, 0, 55, 70
3, 20880, Note_on_c, 0, 55, 0
3, 20880, Note_on_c, 0, 53, 66
3, 20976, Note_on_c, 0, 46, 42
3, 21024, Note_on_c, 0, 46, 0
3, 21024, Note_on_c, 0, 45, 38
3, 21118, Note_on_c, 0, 45, 0
3, 21120, Note_on_c, 0, 53, 0
3, 21120, Note_on_c, 0, 52, 66
3, 21166, Note_on_c, 0, 52, 0
3, 21168, Note_on_c, 0, 53, 62
3, 21204, Note_on_c, 0, 53, 0
3, 21204, Note_on_c, 0, 55, 60
3, 21214, Note_on_c, 0, 55, 0
3, 21216, Note_on_c, 0, 53, 62
3, 21264, Note_on_c, 0, 46, 40
3, 21312, Note_on_c, 0, 46, 0
3, 21312, Note_on_c, 0, 45, 48
3, 21406, Note_on_c, 0, 45, 0
3, 21408, Note_on_c, 0, 53, 0
3, 21408, Note_on_c, 0, 52, 64
3, 21454, Note_on_c, 0, 52, 0
3, 21456, Note_on_c, 0, 50, 62
3, 21552, Note_on_c, 0, 38, 32
3, 21598, Note_on_c, 0, 38, 0
3, 21600, Note_on_c, 0, 43, 34
3, 21696, Note_on_c, 0, 43, 0
3, 21696, Note_on_c, 0, 36, 32
3, 21696, Note_on_c, 0, 48, 34
3, 21744, Note_on_c, 0, 48, 0
3, 21744, Note_on_c, 0, 36, 0
3, 21744, Note_on_c, 0, 38, 30
3, 21838, Note_on_c, 0, 50, 0
3, 21840, Note_on_c, 0, 50, 44
3, 21888, Note_on_c, 0, 50, 0
3, 21888, Note_on_c, 0, 38, 0
3, 21888, Note_on_c, 0, 31, 54
3, 21888, Note_on_c, 0, 43, 52
3, 22128, Note_on_c, 0, 43, 0
3, 22128, Note_on_c, 0, 31, 0
3, 22176, End_track
4, 0, Start_track
4, 0, Title_t, "PEDAL"
4, 0, MIDI_port, 0
4, 144, Control_c, 0, 64, 0
4, 152, Control_c, 0, 64, 127
4, 242, Control_c, 0, 64, 0
4, 288, Control_c, 0, 64, 0
4, 296, Control_c, 0, 64, 127
4, 386, Control_c, 0, 64, 0
4, 432, Control_c, 0, 64, 0
4, 440, Control_c, 0, 64, 127
4, 530, Control_c, 0, 64, 0
4, 576, Control_c, 0, 64, 0
4, 584, Control_c, 0, 64, 127
4, 720, Control_c, 0, 64, 127
4, 864, Control_c, 0, 64, 127
4, 962, Control_c, 0, 64, 0
4, 1008, Control_c, 0, 64, 0
4, 1016, Control_c, 0, 64, 127
4, 1106, Control_c, 0, 64, 0
4, 1152, Control_c, 0, 64, 0
4, 1160, Control_c, 0, 64, 127
4, 1202, Control_c, 0, 64, 0
4, 1208, Control_c, 0, 64, 127
4, 1296, Control_c, 0, 64, 127
4, 1298, Control_c, 0, 64, 0
4, 1304, Control_c, 0, 64, 127
4, 1394, Control_c, 0, 64, 0
4, 1440, Control_c, 0, 64, 0
4, 1448, Control_c, 0, 64, 127
4, 1490, Control_c, 0, 64, 0
4, 1496, Control_c, 0, 64, 127
4, 1584, Control_c, 0, 64, 127
4, 1586, Control_c, 0, 64, 0
4, 1592, Control_c, 0, 64, 127
4, 1682, Control_c, 0, 64, 0
4, 1728, Control_c, 0, 64, 0
4, 1736, Control_c, 0, 64, 127
4, 1826, Control_c, 0, 64, 0
4, 1872, Control_c, 0, 64, 0
4, 1880, Control_c, 0, 64, 127
4, 1970, Control_c, 0, 64, 0
4, 2016, Control_c, 0, 64, 0
4, 2024, Control_c, 0, 64, 127
4, 2114, Control_c, 0, 64, 0
4, 2160, Control_c, 0, 64, 0
4, 2168, Control_c, 0, 64, 127
4, 2258, Control_c, 0, 64, 0
4, 2304, Control_c, 0, 64, 0
4, 2312, Control_c, 0, 64, 127
4, 2448, Control_c, 0, 64, 127
4, 2592, Control_c, 0, 64, 127
4, 2690, Control_c, 0, 64, 0
4, 2736, Control_c, 0, 64, 0
4, 2744, Control_c, 0, 64, 127
4, 2834, Control_c, 0, 64, 0
4, 2880, Control_c, 0, 64, 0
4, 2888, Control_c, 0, 64, 127
4, 2978, Control_c, 0, 64, 0
4, 3024, Control_c, 0, 64, 0
4, 3032, Control_c, 0, 64, 127
4, 3122, Control_c, 0, 64, 0
4, 3168, Control_c, 0, 64, 0
4, 3176, Control_c, 0, 64, 127
4, 3266, Control_c, 0, 64, 0
4, 3312, Control_c, 0, 64, 0
4, 3320, Control_c, 0, 64, 127
4, 3410, Control_c, 0, 64, 0
4, 3456, Control_c, 0, 64, 0
4, 3464, Control_c, 0, 64, 127
4, 3554, Control_c, 0, 64, 0
4, 3600, Control_c, 0, 64, 0
4, 3608, Control_c, 0, 64, 127
4, 3698, Control_c, 0, 64, 0
4, 3744, Control_c, 0, 64, 0
4, 3752, Control_c, 0, 64, 127
4, 3842, Control_c, 0, 64, 0
4, 3888, Control_c, 0, 64, 0
4, 3896, Control_c, 0, 64, 127
4, 3986, Control_c, 0, 64, 0
4, 4032, Control_c, 0, 64, 0
4, 4040, Control_c, 0, 64, 127
4, 4176, Control_c, 0, 64, 127
4, 4320, Control_c, 0, 64, 127
4, 4418, Control_c, 0, 64, 0
4, 4464, Control_c, 0, 64, 0
4, 4472, Control_c, 0, 64, 127
4, 4562, Control_c, 0, 64, 0
4, 4608, Control_c, 0, 64, 0
4, 4616, Control_c, 0, 64, 127
4, 4658, Control_c, 0, 64, 0
4, 4664, Control_c, 0, 64, 127
4, 4752, Control_c, 0, 64, 127
4, 4754, Control_c, 0, 64, 0
4, 4760, Control_c, 0, 64, 127
4, 4850, Control_c, 0, 64, 0
4, 4896, Control_c, 0, 64, 0
4, 4904, Control_c, 0, 64, 127
4, 4946, Control_c, 0, 64, 0
4, 4952, Control_c, 0, 64, 127
4, 5040, Control_c, 0, 64, 127
4, 5042, Control_c, 0, 64, 0
4, 5048, Control_c, 0, 64, 127
4, 5138, Control_c, 0, 64, 0
4, 5184, Control_c, 0, 64, 0
4, 5192, Control_c, 0, 64, 127
4, 5282, Control_c, 0, 64, 0
4, 5328, Control_c, 0, 64, 0
4, 5336, Control_c, 0, 64, 127
4, 5426, Control_c, 0, 64, 0
4, 5472, Control_c, 0, 64, 0
4, 5480, Control_c, 0, 64, 127
4, 5570, Control_c, 0, 64, 0
4, 5616, Control_c, 0, 64, 0
4, 5624, Control_c, 0, 64, 127
4, 5714, Control_c, 0, 64, 0
4, 5760, Control_c, 0, 64, 0
4, 5768, Control_c, 0, 64, 127
4, 5904, Control_c, 0, 64, 127
4, 6048, Control_c, 0, 64, 127
4, 6146, Control_c, 0, 64, 0
4, 6192, Control_c, 0, 64, 0
4, 6200, Control_c, 0, 64, 127
4, 6290, Control_c, 0, 64, 0
4, 6336, Control_c, 0, 64, 0
4, 6344, Control_c, 0, 64, 127
4, 6434, Control_c, 0, 64, 0
4, 6480, Control_c, 0, 64, 0
4, 6488, Control_c, 0, 64, 127
4, 6578, Control_c, 0, 64, 0
4, 6624, Control_c, 0, 64, 0
4, 6632, Control_c, 0, 64, 127
4, 6722, Control_c, 0, 64, 0
4, 6768, Control_c, 0, 64, 0
4, 6776, Control_c, 0, 64, 127
4, 6866, Control_c, 0, 64, 0
4, 6912, Control_c, 0, 64, 0
4, 6920, Control_c, 0, 64, 127
4, 7056, Control_c, 0, 64, 127
4, 7200, Control_c, 0, 64, 127
4, 7336, Control_c, 0, 64, 0
4, 7344, Control_c, 0, 64, 0
4, 7352, Control_c, 0, 64, 127
4, 7488, Control_c, 0, 64, 127
4, 7632, Control_c, 0, 64, 127
4, 7730, Control_c, 0, 64, 0
4, 7776, Control_c, 0, 64, 0
4, 7784, Control_c, 0, 64, 127
4, 7920, Control_c, 0, 64, 127
4, 7922, Control_c, 0, 64, 0
4, 7928, Control_c, 0, 64, 127
4, 8064, Control_c, 0, 64, 127
4, 8204, Control_c, 0, 64, 0
4, 8208, Control_c, 0, 64, 0
4, 8216, Control_c, 0, 64, 127
4, 8352, Control_c, 0, 64, 127
4, 8354, Control_c, 0, 64, 0
4, 8360, Control_c, 0, 64, 127
4, 8450, Control_c, 0, 64, 0
4, 8496, Control_c, 0, 64, 0
4, 8504, Control_c, 0, 64, 127
4, 8640, Control_c, 0, 64, 127
4, 8784, Control_c, 0, 64, 127
4, 8928, Control_c, 0, 64, 127
4, 8930, Control_c, 0, 64, 0
4, 8936, Control_c, 0, 64, 127
4, 9072, Control_c, 0, 64, 127
4, 9216, Control_c, 0, 64, 127
4, 9360, Control_c, 0, 64, 127
4, 9362, Control_c, 0, 64, 0
4, 9368, Control_c, 0, 64, 127
4, 9458, Control_c, 0, 64, 0
4, 9504, Control_c, 0, 64, 0
4, 9512, Control_c, 0, 64, 127
4, 9602, Control_c, 0, 64, 0
4, 9648, Control_c, 0, 64, 0
4, 9656, Control_c, 0, 64, 127
4, 9746, Control_c, 0, 64, 0
4, 9792, Control_c, 0, 64, 0
4, 9800, Control_c, 0, 64, 127
4, 9890, Control_c, 0, 64, 0
4, 9936, Control_c, 0, 64, 0
4, 9944, Control_c, 0, 64, 127
4, 9986, Control_c, 0, 64, 0
4, 9992, Control_c, 0, 64, 127
4, 10076, Control_c, 0, 64, 0
4, 10080, Control_c, 0, 64, 0
4, 10088, Control_c, 0, 64, 127
4, 10130, Control_c, 0, 64, 0
4, 10136, Control_c, 0, 64, 127
4, 10220, Control_c, 0, 64, 0
4, 10224, Control_c, 0, 64, 0
4, 10232, Control_c, 0, 64, 127
4, 10274, Control_c, 0, 64, 0
4, 10280, Control_c, 0, 64, 127
4, 10364, Control_c, 0, 64, 0
4, 10368, Control_c, 0, 64, 0
4, 10376, Control_c, 0, 64, 127
4, 10418, Control_c, 0, 64, 0
4, 10424, Control_c, 0, 64, 127
4, 10508, Control_c, 0, 64, 0
4, 10512, Control_c, 0, 64, 0
4, 10520, Control_c, 0, 64, 127
4, 10562, Control_c, 0, 64, 0
4, 10568, Control_c, 0, 64, 127
4, 10652, Control_c, 0, 64, 0
4, 10656, Control_c, 0, 64, 0
4, 10664, Control_c, 0, 64, 127
4, 10706, Control_c, 0, 64, 0
4, 10712, Control_c, 0, 64, 127
4, 10796, Control_c, 0, 64, 0
4, 10800, Control_c, 0, 64, 0
4, 10808, Control_c, 0, 64, 127
4, 10850, Control_c, 0, 64, 0
4, 10856, Control_c, 0, 64, 127
4, 10940, Control_c, 0, 64, 0
4, 10944, Control_c, 0, 64, 0
4, 10952, Control_c, 0, 64, 127
4, 10994, Control_c, 0, 64, 0
4, 11000, Control_c, 0, 64, 127
4, 11084, Control_c, 0, 64, 0
4, 11088, Control_c, 0, 64, 0
4, 11232, Control_c, 0, 64, 0
4, 11376, Control_c, 0, 64, 0
4, 11520, Control_c, 0, 64, 0
4, 11576, Control_c, 0, 64, 127
4, 11664, Control_c, 0, 64, 127
4, 11666, Control_c, 0, 64, 0
4, 11808, Control_c, 0, 64, 0
4, 11864, Control_c, 0, 64, 127
4, 11952, Control_c, 0, 64, 127
4, 11954, Control_c, 0, 64, 0
4, 12096, Control_c, 0, 64, 0
4, 12152, Control_c, 0, 64, 127
4, 12240, Control_c, 0, 64, 127
4, 12242, Control_c, 0, 64, 0
4, 12248, Control_c, 0, 64, 127
4, 12384, Control_c, 0, 64, 127
4, 12528, Control_c, 0, 64, 127
4, 12672, Control_c, 0, 64, 127
4, 12770, Control_c, 0, 64, 0
4, 12776, Control_c, 0, 64, 127
4, 12816, Control_c, 0, 64, 127
4, 12818, Control_c, 0, 64, 0
4, 12824, Control_c, 0, 64, 127
4, 12960, Control_c, 0, 64, 127
4, 12962, Control_c, 0, 64, 0
4, 12968, Control_c, 0, 64, 127
4, 13056, Control_c, 0, 64, 0
4, 13062, Control_c, 0, 64, 127
4, 13104, Control_c, 0, 64, 127
4, 13106, Control_c, 0, 64, 0
4, 13112, Control_c, 0, 64, 127
4, 13248, Control_c, 0, 64, 127
4, 13250, Control_c, 0, 64, 0
4, 13256, Control_c, 0, 64, 127
4, 13344, Control_c, 0, 64, 0
4, 13350, Control_c, 0, 64, 127
4, 13392, Control_c, 0, 64, 127
4, 13394, Control_c, 0, 64, 0
4, 13400, Control_c, 0, 64, 127
4, 13488, Control_c, 0, 64, 0
4, 13494, Control_c, 0, 64, 127
4, 13536, Control_c, 0, 64, 127
4, 13538, Control_c, 0, 64, 0
4, 13544, Control_c, 0, 64, 127
4, 13632, Control_c, 0, 64, 0
4, 13638, Control_c, 0, 64, 127
4, 13680, Control_c, 0, 64, 127
4, 13682, Control_c, 0, 64, 0
4, 13688, Control_c, 0, 64, 127
4, 13776, Control_c, 0, 64, 0
4, 13782, Control_c, 0, 64, 127
4, 13824, Control_c, 0, 64, 127
4, 13826, Control_c, 0, 64, 0
4, 13832, Control_c, 0, 64, 127
4, 13968, Control_c, 0, 64, 127
4, 13970, Control_c, 0, 64, 0
4, 13976, Control_c, 0, 64, 127
4, 14018, Control_c, 0, 64, 0
4, 14024, Control_c, 0, 64, 127
4, 14066, Control_c, 0, 64, 0
4, 14072, Control_c, 0, 64, 127
4, 14112, Control_c, 0, 64, 127
4, 14114, Control_c, 0, 64, 0
4, 14120, Control_c, 0, 64, 127
4, 14210, Control_c, 0, 64, 0
4, 14216, Control_c, 0, 64, 127
4, 14256, Control_c, 0, 64, 127
4, 14258, Control_c, 0, 64, 0
4, 14264, Control_c, 0, 64, 127
4, 14306, Control_c, 0, 64, 0
4, 14312, Control_c, 0, 64, 127
4, 14354, Control_c, 0, 64, 0
4, 14360, Control_c, 0, 64, 127
4, 14400, Control_c, 0, 64, 127
4, 14402, Control_c, 0, 64, 0
4, 14408, Control_c, 0, 64, 127
4, 14498, Control_c, 0, 64, 0
4, 14504, Control_c, 0, 64, 127
4, 14544, Control_c, 0, 64, 127
4, 14546, Control_c, 0, 64, 0
4, 14552, Control_c, 0, 64, 127
4, 14594, Control_c, 0, 64, 0
4, 14600, Control_c, 0, 64, 127
4, 14642, Control_c, 0, 64, 0
4, 14648, Control_c, 0, 64, 127
4, 14688, Control_c, 0, 64, 127
4, 14690, Control_c, 0, 64, 0
4, 14696, Control_c, 0, 64, 127
4, 14786, Control_c, 0, 64, 0
4, 14792, Control_c, 0, 64, 127
4, 14832, Control_c, 0, 64, 127
4, 14834, Control_c, 0, 64, 0
4, 14840, Control_c, 0, 64, 127
4, 14882, Control_c, 0, 64, 0
4, 14888, Control_c, 0, 64, 127
4, 14930, Control_c, 0, 64, 0
4, 14936, Control_c, 0, 64, 127
4, 14976, Control_c, 0, 64, 127
4, 14978, Control_c, 0, 64, 0
4, 14984, Control_c, 0, 64, 127
4, 15026, Control_c, 0, 64, 0
4, 15032, Control_c, 0, 64, 127
4, 15074, Control_c, 0, 64, 0
4, 15080, Control_c, 0, 64, 127
4, 15120, Control_c, 0, 64, 127
4, 15122, Control_c, 0, 64, 0
4, 15128, Control_c, 0, 64, 127
4, 15264, Control_c, 0, 64, 127
4, 15266, Control_c, 0, 64, 0
4, 15272, Control_c, 0, 64, 127
4, 15360, Control_c, 0, 64, 0
4, 15366, Control_c, 0, 64, 127
4, 15408, Control_c, 0, 64, 127
4, 15410, Control_c, 0, 64, 0
4, 15416, Control_c, 0, 64, 127
4, 15552, Control_c, 0, 64, 127
4, 15554, Control_c, 0, 64, 0
4, 15560, Control_c, 0, 64, 127
4, 15648, Control_c, 0, 64, 0
4, 15654, Control_c, 0, 64, 127
4, 15696, Control_c, 0, 64, 127
4, 15698, Control_c, 0, 64, 0
4, 15704, Control_c, 0, 64, 127
4, 15792, Control_c, 0, 64, 0
4, 15798, Control_c, 0, 64, 127
4, 15840, Control_c, 0, 64, 127
4, 15842, Control_c, 0, 64, 0
4, 15848, Control_c, 0, 64, 127
4, 15936, Control_c, 0, 64, 0
4, 15942, Control_c, 0, 64, 127
4, 15984, Control_c, 0, 64, 127
4, 15986, Control_c, 0, 64, 0
4, 15992, Control_c, 0, 64, 127
4, 16080, Control_c, 0, 64, 0
4, 16086, Control_c, 0, 64, 127
4, 16128, Control_c, 0, 64, 127
4, 16130, Control_c, 0, 64, 0
4, 16136, Control_c, 0, 64, 127
4, 16272, Control_c, 0, 64, 127
4, 16274, Control_c, 0, 64, 0
4, 16280, Control_c, 0, 64, 127
4, 16322, Control_c, 0, 64, 0
4, 16328, Control_c, 0, 64, 127
4, 16370, Control_c, 0, 64, 0
4, 16376, Control_c, 0, 64, 127
4, 16416, Control_c, 0, 64, 127
4, 16418, Control_c, 0, 64, 0
4, 16424, Control_c, 0, 64, 127
4, 16514, Control_c, 0, 64, 0
4, 16520, Control_c, 0, 64, 127
4, 16560, Control_c, 0, 64, 127
4, 16562, Control_c, 0, 64, 0
4, 16568, Control_c, 0, 64, 127
4, 16610, Control_c, 0, 64, 0
4, 16616, Control_c, 0, 64, 127
4, 16658, Control_c, 0, 64, 0
4, 16664, Control_c, 0, 64, 127
4, 16704, Control_c, 0, 64, 127
4, 16706, Control_c, 0, 64, 0
4, 16712, Control_c, 0, 64, 127
4, 16802, Control_c, 0, 64, 0
4, 16808, Control_c, 0, 64, 127
4, 16848, Control_c, 0, 64, 127
4, 16850, Control_c, 0, 64, 0
4, 16856, Control_c, 0, 64, 127
4, 16898, Control_c, 0, 64, 0
4, 16904, Control_c, 0, 64, 127
4, 16946, Control_c, 0, 64, 0
4, 16952, Control_c, 0, 64, 127
4, 16992, Control_c, 0, 64, 127
4, 16994, Control_c, 0, 64, 0
4, 17000, Control_c, 0, 64, 127
4, 17090, Control_c, 0, 64, 0
4, 17096, Control_c, 0, 64, 127
4, 17136, Control_c, 0, 64, 127
4, 17138, Control_c, 0, 64, 0
4, 17144, Control_c, 0, 64, 127
4, 17186, Control_c, 0, 64, 0
4, 17192, Control_c, 0, 64, 127
4, 17234, Control_c, 0, 64, 0
4, 17240, Control_c, 0, 64, 127
4, 17280, Control_c, 0, 64, 127
4, 17282, Control_c, 0, 64, 0
4, 17288, Control_c, 0, 64, 127
4, 17378, Control_c, 0, 64, 0
4, 17384, Control_c, 0, 64, 127
4, 17414, Control_c, 0, 64, 0
4, 17424, Control_c, 0, 64, 0
4, 17432, Control_c, 0, 64, 127
4, 17568, Control_c, 0, 64, 127
4, 17570, Control_c, 0, 64, 0
4, 17576, Control_c, 0, 64, 127
4, 17672, Control_c, 0, 64, 0
4, 17712, Control_c, 0, 64, 0
4, 17720, Control_c, 0, 64, 127
4, 17856, Control_c, 0, 64, 127
4, 17858, Control_c, 0, 64, 0
4, 17864, Control_c, 0, 64, 127
4, 17960, Control_c, 0, 64, 0
4, 18000, Control_c, 0, 64, 0
4, 18096, Control_c, 0, 64, 127
4, 18144, Control_c, 0, 64, 127
4, 18146, Control_c, 0, 64, 0
4, 18152, Control_c, 0, 64, 127
4, 18242, Control_c, 0, 64, 0
4, 18248, Control_c, 0, 64, 127
4, 18288, Control_c, 0, 64, 127
4, 18290, Control_c, 0, 64, 0
4, 18384, Control_c, 0, 64, 127
4, 18432, Control_c, 0, 64, 127
4, 18434, Control_c, 0, 64, 0
4, 18440, Control_c, 0, 64, 127
4, 18530, Control_c, 0, 64, 0
4, 18536, Control_c, 0, 64, 127
4, 18576, Control_c, 0, 64, 127
4, 18578, Control_c, 0, 64, 0
4, 18584, Control_c, 0, 64, 127
4, 18674, Control_c, 0, 64, 0
4, 18680, Control_c, 0, 64, 127
4, 18720, Control_c, 0, 64, 127
4, 18722, Control_c, 0, 64, 0
4, 18728, Control_c, 0, 64, 127
4, 18818, Control_c, 0, 64, 0
4, 18824, Control_c, 0, 64, 127
4, 18864, Control_c, 0, 64, 127
4, 18866, Control_c, 0, 64, 0
4, 18920, Control_c, 0, 64, 127
4, 19008, Control_c, 0, 64, 127
4, 19010, Control_c, 0, 64, 0
4, 19016, Control_c, 0, 64, 127
4, 19106, Control_c, 0, 64, 0
4, 19112, Control_c, 0, 64, 127
4, 19152, Control_c, 0, 64, 127
4, 19154, Control_c, 0, 64, 0
4, 19160, Control_c, 0, 64, 127
4, 19250, Control_c, 0, 64, 0
4, 19256, Control_c, 0, 64, 127
4, 19296, Control_c, 0, 64, 127
4, 19298, Control_c, 0, 64, 0
4, 19304, Control_c, 0, 64, 127
4, 19394, Control_c, 0, 64, 0
4, 19400, Control_c, 0, 64, 127
4, 19440, Control_c, 0, 64, 127
4, 19442, Control_c, 0, 64, 0
4, 19448, Control_c, 0, 64, 127
4, 19538, Control_c, 0, 64, 0
4, 19544, Control_c, 0, 64, 127
4, 19584, Control_c, 0, 64, 127
4, 19586, Control_c, 0, 64, 0
4, 19592, Control_c, 0, 64, 127
4, 19710, Control_c, 0, 64, 0
4, 19728, Control_c, 0, 64, 0
4, 19736, Control_c, 0, 64, 127
4, 19872, Control_c, 0, 64, 127
4, 19874, Control_c, 0, 64, 0
4, 19880, Control_c, 0, 64, 127
4, 19976, Control_c, 0, 64, 0
4, 20016, Control_c, 0, 64, 0
4, 20024, Control_c, 0, 64, 127
4, 20160, Control_c, 0, 64, 127
4, 20162, Control_c, 0, 64, 0
4, 20168, Control_c, 0, 64, 127
4, 20264, Control_c, 0, 64, 0
4, 20304, Control_c, 0, 64, 0
4, 20400, Control_c, 0, 64, 127
4, 20448, Control_c, 0, 64, 127
4, 20450, Control_c, 0, 64, 0
4, 20456, Control_c, 0, 64, 127
4, 20546, Control_c, 0, 64, 0
4, 20552, Control_c, 0, 64, 127
4, 20592, Control_c, 0, 64, 127
4, 20594, Control_c, 0, 64, 0
4, 20688, Control_c, 0, 64, 127
4, 20736, Control_c, 0, 64, 127
4, 20738, Control_c, 0, 64, 0
4, 20744, Control_c, 0, 64, 127
4, 20834, Control_c, 0, 64, 0
4, 20840, Control_c, 0, 64, 127
4, 20880, Control_c, 0, 64, 127
4, 20882, Control_c, 0, 64, 0
4, 20888, Control_c, 0, 64, 127
4, 20978, Control_c, 0, 64, 0
4, 20984, Control_c, 0, 64, 127
4, 21024, Control_c, 0, 64, 127
4, 21026, Control_c, 0, 64, 0
4, 21032, Control_c, 0, 64, 127
4, 21122, Control_c, 0, 64, 0
4, 21128, Control_c, 0, 64, 127
4, 21168, Control_c, 0, 64, 127
4, 21170, Control_c, 0, 64, 0
4, 21224, Control_c, 0, 64, 127
4, 21312, Control_c, 0, 64, 127
4, 21314, Control_c, 0, 64, 0
4, 21320, Control_c, 0, 64, 127
4, 21410, Control_c, 0, 64, 0
4, 21416, Control_c, 0, 64, 127
4, 21456, Control_c, 0, 64, 127
4, 21458, Control_c, 0, 64, 0
4, 21464, Control_c, 0, 64, 127
4, 21554, Control_c, 0, 64, 0
4, 21560, Control_c, 0, 64, 127
4, 21600, Control_c, 0, 64, 127
4, 21602, Control_c, 0, 64, 0
4, 21608, Control_c, 0, 64, 127
4, 21698, Control_c, 0, 64, 0
4, 21704, Control_c, 0, 64, 127
4, 21744, Control_c, 0, 64, 127
4, 21746, Control_c, 0, 64, 0
4, 21752, Control_c, 0, 64, 127
4, 21842, Control_c, 0, 64, 0
4, 21848, Control_c, 0, 64, 127
4, 21888, Control_c, 0, 64, 127
4, 21890, Control_c, 0, 64, 0
4, 21896, Control_c, 0, 64, 127
4, 22032, Control_c, 0, 64, 127
4, 22128, Control_c, 0, 64, 0
4, 22176, End_track
0, 0, End_of_file
