0, 0, Header, 1, 11, 384
1, 0, Start_track
1, 0, Time_signature, 4, 2, 96, 8
1, 0, Sequencer_specific, 3, 0, 0, 65
1, 0, Tempo, 434782
1, 79236, Tempo, 458015
1, 83052, Tempo, 500000
1, 87200, Tempo, 461538
1, 125688, Tempo, 413793
1, 150228, Tempo, 400000
1, 192200, Tempo, 387096
1, 214240, Tempo, 363636
1, 256000, Tempo, 363636
1, 277976, Tempo, 342857
1, 277976, End_track
2, 0, Start_track
2, 0, Title_t, "Chopin B minor Sonata"
2, 0, Key_signature, 0, "major"
2, 1132, Control_c, 0, 64, 24
2, 1144, Control_c, 0, 64, 72
2, 1156, Control_c, 0, 64, 127
2, 1176, Note_on_c, 0, 54, 83
2, 1176, Note_on_c, 0, 66, 89
2, 1180, Note_on_c, 0, 42, 70
2, 1180, Note_on_c, 0, 30, 61
2, 1232, Note_off_c, 0, 54, 0
2, 1232, Note_off_c, 0, 42, 0
2, 1232, Note_off_c, 0, 30, 0
2, 1260, Note_off_c, 0, 66, 0
2, 1588, Note_on_c, 0, 66, 84
2, 1588, Note_on_c, 0, 78, 97
2, 1588, Note_on_c, 0, 54, 65
2, 1588, Note_on_c, 0, 42, 57
2, 1628, Note_off_c, 0, 54, 0
2, 1632, Note_off_c, 0, 66, 0
2, 1636, Note_off_c, 0, 42, 0
2, 1660, Note_off_c, 0, 78, 0
2, 1976, Note_on_c, 0, 78, 90
2, 1976, Note_on_c, 0, 90, 95
2, 1976, Note_on_c, 0, 54, 68
2, 1976, Note_on_c, 0, 66, 72
2, 2016, Note_off_c, 0, 66, 0
2, 2024, Note_off_c, 0, 54, 0
2, 2028, Note_off_c, 0, 78, 0
2, 2036, Note_off_c, 0, 90, 0
2, 2372, Control_c, 0, 64, 40
2, 2384, Note_on_c, 0, 30, 71
2, 2384, Note_on_c, 0, 42, 87
2, 2384, Note_on_c, 0, 66, 89
2, 2384, Note_on_c, 0, 54, 88
2, 2384, Control_c, 0, 64, 0
2, 2432, Control_c, 0, 64, 72
2, 2444, Note_off_c, 0, 30, 0
2, 2444, Control_c, 0, 64, 127
2, 2452, Note_off_c, 0, 42, 0
2, 2468, Note_off_c, 0, 54, 0
2, 2500, Note_off_c, 0, 66, 0
2, 2716, Control_c, 0, 64, 40
2, 2732, Control_c, 0, 64, 0
2, 2808, Note_on_c, 0, 66, 97
2, 2808, Note_on_c, 0, 59, 85
2, 2808, Note_on_c, 0, 43, 84
2, 2808, Note_on_c, 0, 31, 66
2, 2808, Note_on_c, 0, 54, 85
2, 2828, Note_off_c, 0, 31, 0
2, 2832, Control_c, 0, 64, 127
2, 2856, Note_off_c, 0, 54, 0
2, 2868, Note_off_c, 0, 43, 0
2, 2872, Note_off_c, 0, 59, 0
2, 2912, Note_off_c, 0, 66, 0
2, 3212, Note_on_c, 0, 78, 89
2, 3212, Note_on_c, 0, 43, 68
2, 3212, Note_on_c, 0, 55, 73
2, 3212, Note_on_c, 0, 71, 82
2, 3212, Note_on_c, 0, 66, 79
2, 3236, Note_off_c, 0, 43, 0
2, 3256, Note_off_c, 0, 71, 0
2, 3256, Note_off_c, 0, 66, 0
2, 3264, Note_off_c, 0, 55, 0
2, 3304, Note_off_c, 0, 78, 0
2, 3600, Note_on_c, 0, 90, 86
2, 3604, Note_on_c, 0, 78, 85
2, 3612, Note_on_c, 0, 83, 86
2, 3624, Note_on_c, 0, 67, 74
2, 3636, Note_on_c, 0, 55, 61
2, 3648, Note_off_c, 0, 67, 0
2, 3656, Note_off_c, 0, 78, 0
2, 3664, Note_off_c, 0, 83, 0
2, 3664, Note_off_c, 0, 55, 0
2, 3672, Note_off_c, 0, 90, 0
2, 3984, Note_on_c, 0, 66, 87
2, 3992, Note_on_c, 0, 54, 78
2, 3992, Note_on_c, 0, 43, 77
2, 3992, Note_on_c, 0, 31, 66
2, 3996, Note_on_c, 0, 59, 73
2, 4036, Note_off_c, 0, 31, 0
2, 4040, Note_off_c, 0, 43, 0
2, 4044, Note_off_c, 0, 54, 0
2, 4052, Note_off_c, 0, 59, 0
2, 4076, Note_off_c, 0, 66, 0
2, 4256, Control_c, 0, 64, 40
2, 4268, Control_c, 0, 64, 0
2, 4360, Note_on_c, 0, 66, 90
2, 4360, Note_on_c, 0, 60, 84
2, 4360, Note_on_c, 0, 32, 64
2, 4360, Note_on_c, 0, 44, 83
2, 4360, Note_on_c, 0, 54, 85
2, 4380, Control_c, 0, 64, 88
2, 4392, Control_c, 0, 64, 127
2, 4400, Note_off_c, 0, 32, 0
2, 4404, Note_off_c, 0, 44, 0
2, 4404, Note_off_c, 0, 54, 0
2, 4412, Note_off_c, 0, 60, 0
2, 4452, Note_off_c, 0, 66, 0
2, 4728, Note_on_c, 0, 78, 91
2, 4728, Note_on_c, 0, 66, 77
2, 4736, Note_on_c, 0, 72, 86
2, 4740, Note_on_c, 0, 56, 75
2, 4752, Note_on_c, 0, 44, 44
2, 4768, Note_off_c, 0, 66, 0
2, 4772, Note_off_c, 0, 44, 0
2, 4776, Note_off_c, 0, 72, 0
2, 4788, Note_off_c, 0, 56, 0
2, 4808, Note_off_c, 0, 78, 0
2, 5072, Control_c, 0, 64, 56
2, 5084, Control_c, 0, 64, 0
2, 5092, Note_on_c, 0, 90, 95
2, 5096, Note_on_c, 0, 78, 88
2, 5100, Note_on_c, 0, 85, 85
2, 5108, Note_on_c, 0, 66, 62
2, 5108, Note_on_c, 0, 61, 60
2, 5112, Note_on_c, 0, 57, 68
2, 5112, Note_on_c, 0, 69, 74
2, 5156, Note_off_c, 0, 69, 0
2, 5160, Note_off_c, 0, 78, 0
2, 5164, Note_off_c, 0, 66, 0
2, 5172, Note_off_c, 0, 61, 0
2, 5172, Control_c, 0, 64, 127
2, 5176, Note_off_c, 0, 90, 0
2, 5180, Note_off_c, 0, 57, 0
2, 5184, Note_off_c, 0, 85, 0
2, 5456, Control_c, 0, 64, 104
2, 5460, Note_on_c, 0, 66, 85
2, 5468, Note_on_c, 0, 54, 84
2, 5468, Note_on_c, 0, 45, 83
2, 5468, Note_on_c, 0, 61, 78
2, 5472, Note_on_c, 0, 33, 74
2, 5472, Control_c, 0, 64, 0
2, 5508, Note_off_c, 0, 45, 0
2, 5520, Note_off_c, 0, 54, 0
2, 5520, Note_off_c, 0, 33, 0
2, 5532, Control_c, 0, 64, 88
2, 5540, Note_off_c, 0, 61, 0
2, 5544, Control_c, 0, 64, 127
2, 5564, Note_off_c, 0, 66, 0
2, 5792, Control_c, 0, 64, 24
2, 5804, Control_c, 0, 64, 0
2, 5836, Note_on_c, 0, 66, 89
2, 5836, Note_on_c, 0, 54, 90
2, 5836, Note_on_c, 0, 46, 85
2, 5836, Note_on_c, 0, 34, 68
2, 5840, Note_on_c, 0, 61, 79
2, 5848, Note_on_c, 0, 64, 78
2, 5876, Control_c, 0, 64, 88
2, 5884, Note_off_c, 0, 54, 0
2, 5884, Note_off_c, 0, 46, 0
2, 5884, Note_off_c, 0, 34, 0
2, 5892, Control_c, 0, 64, 127
2, 5896, Note_off_c, 0, 61, 0
2, 5912, Note_off_c, 0, 64, 0
2, 5920, Note_off_c, 0, 66, 0
2, 6232, Note_on_c, 0, 78, 93
2, 6236, Note_on_c, 0, 66, 79
2, 6240, Note_on_c, 0, 73, 80
2, 6240, Note_on_c, 0, 54, 65
2, 6244, Note_on_c, 0, 61, 62
2, 6248, Note_on_c, 0, 64, 75
2, 6252, Control_c, 0, 64, 24
2, 6256, Note_on_c, 0, 76, 66
2, 6264, Control_c, 0, 64, 0
2, 6276, Note_off_c, 0, 76, 0
2, 6280, Note_off_c, 0, 66, 0
2, 6284, Note_off_c, 0, 54, 0
2, 6288, Control_c, 0, 64, 72
2, 6292, Note_off_c, 0, 73, 0
2, 6296, Note_off_c, 0, 61, 0
2, 6296, Note_off_c, 0, 64, 0
2, 6300, Control_c, 0, 64, 127
2, 6324, Note_off_c, 0, 78, 0
2, 6656, Note_on_c, 0, 98, 110
2, 6656, Note_on_c, 0, 64, 76
2, 6656, Note_on_c, 0, 74, 79
2, 6656, Note_on_c, 0, 66, 64
2, 6656, Note_on_c, 0, 90, 80
2, 6656, Note_on_c, 0, 86, 89
2, 6724, Control_c, 0, 64, 56
2, 6732, Control_c, 0, 64, 72
2, 6744, Control_c, 0, 64, 127
2, 6764, Note_off_c, 0, 64, 0
2, 6792, Note_off_c, 0, 74, 0
2, 6800, Note_off_c, 0, 66, 0
2, 6804, Note_off_c, 0, 86, 0
2, 6812, Note_off_c, 0, 98, 0
2, 6836, Note_off_c, 0, 90, 0
2, 7096, Note_on_c, 0, 97, 92
2, 7100, Note_on_c, 0, 85, 84
2, 7108, Note_on_c, 0, 90, 78
2, 7108, Note_on_c, 0, 66, 61
2, 7108, Note_on_c, 0, 73, 73
2, 7112, Note_on_c, 0, 64, 70
2, 7144, Control_c, 0, 64, 56
2, 7156, Control_c, 0, 64, 0
2, 7216, Control_c, 0, 64, 56
2, 7232, Control_c, 0, 64, 127
2, 7236, Note_off_c, 0, 64, 0
2, 7252, Note_off_c, 0, 66, 0
2, 7252, Note_off_c, 0, 73, 0
2, 7268, Note_off_c, 0, 85, 0
2, 7280, Note_off_c, 0, 97, 0
2, 7280, Note_off_c, 0, 90, 0
2, 8024, Control_c, 0, 64, 104
2, 8036, Control_c, 0, 64, 88
2, 8048, Control_c, 0, 64, 72
2, 8060, Control_c, 0, 64, 56
2, 8072, Control_c, 0, 64, 40
2, 8084, Control_c, 0, 64, 0
2, 8460, Control_c, 0, 64, 24
2, 8472, Control_c, 0, 64, 40
2, 8484, Control_c, 0, 64, 56
2, 8508, Control_c, 0, 64, 72
2, 8520, Control_c, 0, 64, 88
2, 8532, Control_c, 0, 64, 104
2, 8544, Control_c, 0, 64, 127
2, 8752, Note_on_c, 0, 59, 60
2, 8764, Note_on_c, 0, 35, 48
2, 8876, Note_off_c, 0, 59, 0
2, 8876, Note_off_c, 0, 35, 0
2, 8908, Note_on_c, 0, 50, 43
2, 8944, Note_off_c, 0, 50, 0
2, 9028, Note_on_c, 0, 54, 60
2, 9048, Note_on_c, 0, 42, 39
2, 9116, Note_off_c, 0, 54, 0
2, 9120, Note_off_c, 0, 42, 0
2, 9188, Note_on_c, 0, 55, 58
2, 9188, Control_c, 0, 64, 104
2, 9192, Note_on_c, 0, 40, 47
2, 9200, Control_c, 0, 64, 24
2, 9212, Control_c, 0, 64, 0
2, 9316, Note_on_c, 0, 47, 37
2, 9324, Note_on_c, 0, 52, 42
2, 9388, Control_c, 0, 64, 24
2, 9412, Note_off_c, 0, 55, 0
2, 9412, Control_c, 0, 64, 40
2, 9416, Note_off_c, 0, 40, 0
2, 9424, Control_c, 0, 64, 56
2, 9432, Note_off_c, 0, 52, 0
2, 9436, Note_off_c, 0, 47, 0
2, 9436, Control_c, 0, 64, 72
2, 9444, Note_on_c, 0, 58, 56
2, 9472, Note_on_c, 0, 43, 36
2, 9500, Control_c, 0, 64, 88
2, 9512, Note_off_c, 0, 43, 0
2, 9556, Note_off_c, 0, 58, 0
2, 9560, Control_c, 0, 64, 40
2, 9572, Control_c, 0, 64, 0
2, 9592, Note_on_c, 0, 59, 62
2, 9608, Note_on_c, 0, 35, 52
2, 9712, Control_c, 0, 64, 24
2, 9724, Note_off_c, 0, 35, 0
2, 9736, Note_on_c, 0, 47, 44
2, 9736, Control_c, 0, 64, 40
2, 9740, Note_on_c, 0, 50, 53
2, 9748, Control_c, 0, 64, 56
2, 9756, Control_c, 0, 64, 72
2, 9808, Control_c, 0, 64, 0
2, 9812, Note_off_c, 0, 47, 0
2, 9856, Note_off_c, 0, 50, 0
2, 9856, Note_on_c, 0, 54, 61
2, 9868, Note_on_c, 0, 42, 40
2, 9880, Note_off_c, 0, 59, 0
2, 9908, Control_c, 0, 64, 24
2, 9920, Control_c, 0, 64, 40
2, 9932, Control_c, 0, 64, 72
2, 9968, Note_off_c, 0, 42, 0
2, 9980, Note_off_c, 0, 54, 0
2, 10008, Note_on_c, 0, 55, 65
2, 10008, Control_c, 0, 64, 40
2, 10020, Control_c, 0, 64, 0
2, 10024, Note_on_c, 0, 40, 41
2, 10144, Note_on_c, 0, 47, 37
2, 10144, Note_on_c, 0, 52, 44
2, 10156, Note_off_c, 0, 40, 0
2, 10180, Control_c, 0, 64, 40
2, 10192, Control_c, 0, 64, 56
2, 10204, Control_c, 0, 64, 72
2, 10220, Control_c, 0, 64, 88
2, 10228, Note_off_c, 0, 55, 0
2, 10268, Note_off_c, 0, 47, 0
2, 10268, Note_on_c, 0, 58, 60
2, 10276, Note_off_c, 0, 52, 0
2, 10280, Note_on_c, 0, 43, 38
2, 10316, Control_c, 0, 64, 104
2, 10368, Note_off_c, 0, 43, 0
2, 10392, Note_off_c, 0, 58, 0
2, 10392, Control_c, 0, 64, 72
2, 10404, Control_c, 0, 64, 40
2, 10416, Control_c, 0, 64, 0
2, 10420, Note_on_c, 0, 59, 69
2, 10420, Note_on_c, 0, 35, 53
2, 10508, Note_off_c, 0, 35, 0
2, 10528, Control_c, 0, 64, 40
2, 10540, Control_c, 0, 64, 56
2, 10552, Note_off_c, 0, 59, 0
2, 10552, Control_c, 0, 64, 72
2, 10560, Note_on_c, 0, 47, 34
2, 10572, Note_on_c, 0, 54, 37
2, 10576, Note_on_c, 0, 50, 25
2, 10604, Control_c, 0, 64, 88
2, 10620, Note_off_c, 0, 50, 0
2, 10636, Note_off_c, 0, 47, 0
2, 10656, Note_off_c, 0, 54, 0
2, 10664, Control_c, 0, 64, 104
2, 10684, Note_on_c, 0, 59, 70
2, 10700, Note_on_c, 0, 42, 37
2, 10712, Control_c, 0, 64, 127
2, 10764, Note_off_c, 0, 42, 0
2, 10764, Note_off_c, 0, 59, 0
2, 10776, Control_c, 0, 64, 104
2, 10788, Note_on_c, 0, 61, 64
2, 10788, Control_c, 0, 64, 88
2, 10800, Control_c, 0, 64, 72
2, 10812, Control_c, 0, 64, 40
2, 10828, Note_on_c, 0, 59, 67
2, 10828, Control_c, 0, 64, 0
2, 10852, Note_on_c, 0, 40, 45
2, 10856, Note_off_c, 0, 61, 0
2, 10952, Note_on_c, 0, 58, 75
2, 10956, Note_off_c, 0, 59, 0
2, 10964, Note_on_c, 0, 52, 54
2, 10968, Note_on_c, 0, 47, 49
2, 10988, Control_c, 0, 64, 40
2, 11000, Control_c, 0, 64, 56
2, 11016, Note_off_c, 0, 52, 0
2, 11032, Note_off_c, 0, 47, 0
2, 11040, Note_off_c, 0, 40, 0
2, 11060, Note_off_c, 0, 58, 0
2, 11060, Control_c, 0, 64, 72
2, 11084, Note_on_c, 0, 59, 74
2, 11100, Note_on_c, 0, 43, 49
2, 11112, Control_c, 0, 64, 88
2, 11140, Note_off_c, 0, 43, 0
2, 11172, Note_off_c, 0, 59, 0
2, 11184, Control_c, 0, 64, 40
2, 11196, Control_c, 0, 64, 24
2, 11208, Control_c, 0, 64, 0
2, 11232, Note_on_c, 0, 62, 70
2, 11248, Note_on_c, 0, 38, 56
2, 11364, Note_on_c, 0, 54, 45
2, 11372, Note_on_c, 0, 50, 54
2, 11440, Note_off_c, 0, 50, 0
2, 11472, Note_off_c, 0, 54, 0
2, 11484, Note_off_c, 0, 38, 0
2, 11500, Note_on_c, 0, 57, 32
2, 11500, Note_on_c, 0, 45, 55
2, 11636, Note_on_c, 0, 43, 51
2, 11656, Note_off_c, 0, 45, 0
2, 11712, Note_off_c, 0, 57, 0
2, 11768, Note_on_c, 0, 50, 41
2, 11780, Note_on_c, 0, 55, 33
2, 11832, Note_off_c, 0, 43, 0
2, 11900, Note_off_c, 0, 50, 0
2, 11916, Note_off_c, 0, 55, 0
2, 11916, Note_on_c, 0, 46, 37
2, 11932, Note_on_c, 0, 58, 26
2, 12024, Note_off_c, 0, 46, 0
2, 12056, Note_on_c, 0, 38, 54
2, 12152, Note_off_c, 0, 58, 0
2, 12180, Note_on_c, 0, 50, 52
2, 12192, Note_on_c, 0, 54, 43
2, 12220, Note_off_c, 0, 38, 0
2, 12236, Control_c, 0, 64, 24
2, 12248, Note_off_c, 0, 50, 0
2, 12248, Control_c, 0, 64, 40
2, 12264, Control_c, 0, 64, 56
2, 12292, Note_off_c, 0, 54, 0
2, 12320, Note_on_c, 0, 57, 71
2, 12324, Note_off_c, 0, 62, 0
2, 12336, Note_on_c, 0, 45, 48
2, 12352, Control_c, 0, 64, 40
2, 12360, Control_c, 0, 64, 24
2, 12412, Control_c, 0, 64, 56
2, 12440, Note_off_c, 0, 57, 0
2, 12448, Note_off_c, 0, 45, 0
2, 12468, Note_on_c, 0, 58, 69
2, 12472, Control_c, 0, 64, 24
2, 12484, Control_c, 0, 64, 0
2, 12500, Note_on_c, 0, 43, 40
2, 12600, Note_off_c, 0, 43, 0
2, 12608, Note_on_c, 0, 50, 34
2, 12616, Note_on_c, 0, 52, 45
2, 12624, Control_c, 0, 64, 24
2, 12636, Control_c, 0, 64, 40
2, 12648, Control_c, 0, 64, 56
2, 12660, Note_off_c, 0, 52, 0
2, 12688, Note_off_c, 0, 58, 0
2, 12696, Control_c, 0, 64, 72
2, 12732, Note_off_c, 0, 50, 0
2, 12736, Note_on_c, 0, 61, 74
2, 12736, Note_on_c, 0, 46, 46
2, 12748, Control_c, 0, 64, 88
2, 12832, Note_off_c, 0, 46, 0
2, 12844, Control_c, 0, 64, 56
2, 12868, Note_off_c, 0, 61, 0
2, 12872, Control_c, 0, 64, 24
2, 12880, Note_on_c, 0, 62, 80
2, 12884, Control_c, 0, 64, 0
2, 12908, Note_on_c, 0, 38, 44
2, 13012, Note_on_c, 0, 50, 52
2, 13028, Note_on_c, 0, 54, 46
2, 13148, Note_on_c, 0, 57, 71
2, 13156, Note_off_c, 0, 54, 0
2, 13156, Note_on_c, 0, 45, 49
2, 13160, Note_off_c, 0, 38, 0
2, 13176, Note_off_c, 0, 50, 0
2, 13180, Control_c, 0, 64, 56
2, 13184, Note_off_c, 0, 62, 0
2, 13192, Control_c, 0, 64, 88
2, 13208, Control_c, 0, 64, 104
2, 13248, Note_off_c, 0, 57, 0
2, 13248, Note_off_c, 0, 45, 0
2, 13276, Control_c, 0, 64, 72
2, 13288, Note_on_c, 0, 58, 69
2, 13292, Control_c, 0, 64, 24
2, 13304, Control_c, 0, 64, 0
2, 13316, Note_on_c, 0, 43, 37
2, 13420, Note_off_c, 0, 43, 0
2, 13440, Note_on_c, 0, 50, 41
2, 13444, Note_off_c, 0, 58, 0
2, 13444, Note_on_c, 0, 52, 38
2, 13444, Control_c, 0, 64, 40
2, 13456, Control_c, 0, 64, 56
2, 13468, Control_c, 0, 64, 72
2, 13480, Note_on_c, 0, 55, 48
2, 13480, Control_c, 0, 64, 88
2, 13496, Note_off_c, 0, 50, 0
2, 13496, Note_off_c, 0, 52, 0
2, 13552, Control_c, 0, 64, 104
2, 13556, Note_on_c, 0, 61, 74
2, 13564, Note_on_c, 0, 46, 42
2, 13568, Note_off_c, 0, 55, 0
2, 13588, Control_c, 0, 64, 127
2, 13652, Note_off_c, 0, 46, 0
2, 13664, Note_off_c, 0, 61, 0
2, 13664, Control_c, 0, 64, 88
2, 13676, Control_c, 0, 64, 56
2, 13688, Control_c, 0, 64, 0
2, 13704, Note_on_c, 0, 62, 79
2, 13728, Note_on_c, 0, 38, 48
2, 13788, Control_c, 0, 64, 40
2, 13800, Control_c, 0, 64, 72
2, 13812, Note_off_c, 0, 62, 0
2, 13812, Control_c, 0, 64, 104
2, 13824, Control_c, 0, 64, 127
2, 13836, Note_on_c, 0, 50, 37
2, 13844, Note_on_c, 0, 57, 45
2, 13872, Note_off_c, 0, 38, 0
2, 13916, Note_off_c, 0, 50, 0
2, 13920, Note_off_c, 0, 57, 0
2, 13960, Note_on_c, 0, 62, 76
2, 13972, Note_on_c, 0, 45, 46
2, 14008, Note_off_c, 0, 45, 0
2, 14028, Note_off_c, 0, 62, 0
2, 14060, Control_c, 0, 64, 104
2, 14076, Control_c, 0, 64, 88
2, 14080, Note_on_c, 0, 64, 74
2, 14088, Control_c, 0, 64, 56
2, 14100, Note_on_c, 0, 62, 74
2, 14100, Control_c, 0, 64, 0
2, 14124, Note_on_c, 0, 43, 52
2, 14128, Note_off_c, 0, 64, 0
2, 14220, Note_off_c, 0, 62, 0
2, 14220, Note_on_c, 0, 61, 73
2, 14220, Control_c, 0, 64, 24
2, 14232, Note_on_c, 0, 55, 58
2, 14232, Note_on_c, 0, 50, 52
2, 14232, Control_c, 0, 64, 40
2, 14240, Note_off_c, 0, 43, 0
2, 14248, Control_c, 0, 64, 72
2, 14296, Note_off_c, 0, 55, 0
2, 14316, Note_off_c, 0, 61, 0
2, 14324, Control_c, 0, 64, 88
2, 14328, Note_off_c, 0, 50, 0
2, 14336, Control_c, 0, 64, 104
2, 14340, Note_on_c, 0, 62, 82
2, 14352, Note_on_c, 0, 47, 54
2, 14360, Control_c, 0, 64, 127
2, 14380, Note_off_c, 0, 47, 0
2, 14408, Note_off_c, 0, 62, 0
2, 14484, Control_c, 0, 64, 104
2, 14496, Note_on_c, 0, 66, 79
2, 14496, Control_c, 0, 64, 72
2, 14504, Note_on_c, 0, 42, 53
2, 14508, Control_c, 0, 64, 40
2, 14520, Control_c, 0, 64, 0
2, 14636, Note_on_c, 0, 54, 45
2, 14640, Note_on_c, 0, 58, 36
2, 14692, Control_c, 0, 64, 24
2, 14704, Control_c, 0, 64, 56
2, 14716, Control_c, 0, 64, 72
2, 14728, Control_c, 0, 64, 104
2, 14752, Note_on_c, 0, 61, 48
2, 14756, Note_off_c, 0, 54, 0
2, 14756, Note_on_c, 0, 49, 45
2, 14756, Control_c, 0, 64, 127
2, 14768, Note_off_c, 0, 42, 0
2, 14788, Note_off_c, 0, 58, 0
2, 14816, Note_off_c, 0, 49, 0
2, 14852, Control_c, 0, 64, 104
2, 14864, Control_c, 0, 64, 56
2, 14880, Control_c, 0, 64, 0
2, 14904, Note_on_c, 0, 47, 49
2, 15000, Note_off_c, 0, 61, 0
2, 15020, Note_on_c, 0, 54, 39
2, 15024, Note_on_c, 0, 59, 38
2, 15028, Control_c, 0, 64, 40
2, 15040, Control_c, 0, 64, 56
2, 15088, Control_c, 0, 64, 72
2, 15112, Note_off_c, 0, 54, 0
2, 15120, Note_off_c, 0, 47, 0
2, 15132, Note_off_c, 0, 59, 0
2, 15152, Note_on_c, 0, 62, 42
2, 15164, Note_on_c, 0, 50, 38
2, 15164, Control_c, 0, 64, 56
2, 15188, Control_c, 0, 64, 40
2, 15204, Note_off_c, 0, 50, 0
2, 15204, Control_c, 0, 64, 24
2, 15216, Control_c, 0, 64, 0
2, 15288, Note_on_c, 0, 42, 48
2, 15324, Control_c, 0, 64, 40
2, 15336, Control_c, 0, 64, 88
2, 15352, Note_off_c, 0, 62, 0
2, 15352, Control_c, 0, 64, 127
2, 15408, Note_on_c, 0, 54, 33
2, 15440, Note_on_c, 0, 58, 32
2, 15504, Note_off_c, 0, 54, 0
2, 15556, Note_on_c, 0, 61, 61
2, 15560, Note_off_c, 0, 42, 0
2, 15560, Note_on_c, 0, 49, 32
2, 15568, Note_off_c, 0, 66, 0
2, 15580, Note_off_c, 0, 58, 0
2, 15612, Note_off_c, 0, 49, 0
2, 15628, Note_off_c, 0, 61, 0
2, 15684, Control_c, 0, 64, 104
2, 15696, Note_on_c, 0, 62, 70
2, 15696, Control_c, 0, 64, 40
2, 15708, Control_c, 0, 64, 0
2, 15720, Note_on_c, 0, 47, 45
2, 15784, Control_c, 0, 64, 24
2, 15796, Control_c, 0, 64, 72
2, 15804, Note_off_c, 0, 47, 0
2, 15808, Control_c, 0, 64, 127
2, 15820, Note_off_c, 0, 62, 0
2, 15836, Note_on_c, 0, 59, 42
2, 15840, Note_on_c, 0, 54, 43
2, 15852, Note_on_c, 0, 57, 34
2, 15892, Note_off_c, 0, 57, 0
2, 15920, Note_off_c, 0, 54, 0
2, 15924, Note_off_c, 0, 59, 0
2, 15960, Note_on_c, 0, 63, 74
2, 16000, Note_on_c, 0, 47, 30
2, 16044, Note_off_c, 0, 63, 0
2, 16044, Note_off_c, 0, 47, 0
2, 16096, Control_c, 0, 64, 88
2, 16108, Note_on_c, 0, 64, 78
2, 16108, Control_c, 0, 64, 40
2, 16120, Control_c, 0, 64, 0
2, 16124, Note_on_c, 0, 40, 54
2, 16232, Note_on_c, 0, 52, 43
2, 16232, Control_c, 0, 64, 72
2, 16244, Control_c, 0, 64, 127
2, 16288, Note_off_c, 0, 40, 0
2, 16308, Note_off_c, 0, 52, 0
2, 16372, Note_on_c, 0, 47, 49
2, 16372, Note_on_c, 0, 56, 35
2, 16400, Note_off_c, 0, 47, 0
2, 16468, Control_c, 0, 64, 56
2, 16480, Control_c, 0, 64, 0
2, 16512, Note_on_c, 0, 45, 63
2, 16532, Note_off_c, 0, 56, 0
2, 16540, Control_c, 0, 64, 24
2, 16552, Control_c, 0, 64, 72
2, 16564, Control_c, 0, 64, 127
2, 16640, Note_on_c, 0, 55, 34
2, 16660, Note_off_c, 0, 64, 0
2, 16720, Note_on_c, 0, 66, 78
2, 16744, Note_off_c, 0, 45, 0
2, 16744, Note_off_c, 0, 55, 0
2, 16744, Note_on_c, 0, 49, 46
2, 16768, Note_off_c, 0, 49, 0
2, 16776, Note_off_c, 0, 66, 0
2, 16800, Note_on_c, 0, 64, 74
2, 16848, Control_c, 0, 64, 104
2, 16864, Control_c, 0, 64, 24
2, 16876, Control_c, 0, 64, 0
2, 16916, Note_off_c, 0, 64, 0
2, 16940, Note_on_c, 0, 62, 75
2, 16952, Note_on_c, 0, 38, 62
2, 16976, Control_c, 0, 64, 56
2, 16988, Control_c, 0, 64, 104
2, 17000, Control_c, 0, 64, 127
2, 17004, Note_off_c, 0, 38, 0
2, 17088, Note_on_c, 0, 54, 40
2, 17152, Note_off_c, 0, 54, 0
2, 17172, Note_off_c, 0, 62, 0
2, 17200, Note_on_c, 0, 61, 71
2, 17232, Note_on_c, 0, 45, 55
2, 17264, Note_off_c, 0, 45, 0
2, 17332, Control_c, 0, 64, 104
2, 17340, Note_off_c, 0, 61, 0
2, 17348, Control_c, 0, 64, 56
2, 17352, Note_on_c, 0, 59, 70
2, 17360, Control_c, 0, 64, 0
2, 17376, Note_on_c, 0, 43, 60
2, 17456, Control_c, 0, 64, 56
2, 17460, Note_off_c, 0, 43, 0
2, 17468, Control_c, 0, 64, 104
2, 17480, Note_on_c, 0, 53, 60
2, 17480, Control_c, 0, 64, 127
2, 17556, Note_off_c, 0, 53, 0
2, 17600, Note_off_c, 0, 59, 0
2, 17616, Note_on_c, 0, 61, 67
2, 17624, Note_on_c, 0, 47, 50
2, 17652, Note_off_c, 0, 47, 0
2, 17728, Note_off_c, 0, 61, 0
2, 17756, Control_c, 0, 64, 104
2, 17768, Control_c, 0, 64, 40
2, 17772, Note_on_c, 0, 54, 70
2, 17780, Control_c, 0, 64, 0
2, 17788, Note_on_c, 0, 52, 56
2, 17796, Note_on_c, 0, 42, 40
2, 17872, Note_off_c, 0, 52, 0
2, 17880, Control_c, 0, 64, 72
2, 17884, Note_off_c, 0, 42, 0
2, 17888, Control_c, 0, 64, 127
2, 17908, Note_off_c, 0, 54, 0
2, 17928, Note_on_c, 0, 52, 56
2, 17964, Note_off_c, 0, 52, 0
2, 18056, Note_on_c, 0, 46, 53
2, 18080, Note_off_c, 0, 46, 0
2, 18188, Control_c, 0, 64, 40
2, 18200, Control_c, 0, 64, 0
2, 18208, Note_on_c, 0, 62, 66
2, 18228, Note_on_c, 0, 35, 56
2, 18264, Note_off_c, 0, 35, 0
2, 18276, Control_c, 0, 64, 56
2, 18288, Control_c, 0, 64, 104
2, 18300, Control_c, 0, 64, 127
2, 18344, Note_on_c, 0, 54, 56
2, 18356, Note_off_c, 0, 62, 0
2, 18404, Note_off_c, 0, 54, 0
2, 18412, Note_on_c, 0, 64, 68
2, 18444, Note_on_c, 0, 62, 76
2, 18464, Note_off_c, 0, 64, 0
2, 18464, Note_on_c, 0, 42, 53
2, 18476, Control_c, 0, 64, 104
2, 18488, Control_c, 0, 64, 40
2, 18496, Control_c, 0, 64, 0
2, 18516, Note_off_c, 0, 42, 0
2, 18592, Note_off_c, 0, 62, 0
2, 18600, Note_on_c, 0, 61, 61
2, 18612, Note_on_c, 0, 35, 66
2, 18656, Note_off_c, 0, 35, 0
2, 18744, Note_on_c, 0, 52, 56
2, 18780, Note_off_c, 0, 52, 0
2, 18848, Note_off_c, 0, 61, 0
2, 18856, Note_on_c, 0, 62, 72
2, 18864, Note_on_c, 0, 42, 56
2, 18912, Note_off_c, 0, 42, 0
2, 19008, Note_off_c, 0, 62, 0
2, 19008, Note_on_c, 0, 35, 64
2, 19012, Note_on_c, 0, 59, 70
2, 19032, Control_c, 0, 64, 24
2, 19044, Control_c, 0, 64, 72
2, 19052, Note_off_c, 0, 35, 0
2, 19056, Control_c, 0, 64, 127
2, 19136, Note_on_c, 0, 50, 55
2, 19144, Control_c, 0, 64, 104
2, 19156, Control_c, 0, 64, 88
2, 19168, Control_c, 0, 64, 56
2, 19172, Note_off_c, 0, 50, 0
2, 19180, Control_c, 0, 64, 24
2, 19192, Control_c, 0, 64, 0
2, 19240, Control_c, 0, 64, 24
2, 19252, Note_off_c, 0, 59, 0
2, 19256, Control_c, 0, 64, 56
2, 19260, Note_on_c, 0, 61, 69
2, 19268, Control_c, 0, 64, 88
2, 19280, Control_c, 0, 64, 104
2, 19332, Control_c, 0, 64, 88
2, 19344, Control_c, 0, 64, 72
2, 19356, Control_c, 0, 64, 40
2, 19364, Control_c, 0, 64, 0
2, 19376, Note_off_c, 0, 61, 0
2, 19416, Note_on_c, 0, 54, 71
2, 19420, Note_on_c, 0, 35, 60
2, 19424, Note_on_c, 0, 52, 60
2, 19452, Note_off_c, 0, 35, 0
2, 19516, Control_c, 0, 64, 24
2, 19528, Control_c, 0, 64, 88
2, 19540, Note_on_c, 0, 49, 57
2, 19540, Control_c, 0, 64, 127
2, 19548, Note_off_c, 0, 52, 0
2, 19568, Note_off_c, 0, 54, 0
2, 19600, Note_off_c, 0, 49, 0
2, 19684, Note_on_c, 0, 42, 45
2, 19744, Note_off_c, 0, 42, 0
2, 19764, Control_c, 0, 64, 72
2, 19776, Control_c, 0, 64, 0
2, 19812, Note_on_c, 0, 62, 76
2, 19824, Note_on_c, 0, 35, 60
2, 19860, Note_off_c, 0, 35, 0
2, 19876, Control_c, 0, 64, 56
2, 19888, Control_c, 0, 64, 104
2, 19900, Control_c, 0, 64, 127
2, 19948, Note_on_c, 0, 54, 52
2, 19956, Note_off_c, 0, 62, 0
2, 20000, Note_on_c, 0, 64, 69
2, 20004, Note_off_c, 0, 54, 0
2, 20052, Note_on_c, 0, 62, 84
2, 20060, Note_on_c, 0, 42, 58
2, 20068, Note_off_c, 0, 64, 0
2, 20072, Control_c, 0, 64, 88
2, 20084, Control_c, 0, 64, 56
2, 20096, Control_c, 0, 64, 24
2, 20108, Note_off_c, 0, 42, 0
2, 20108, Control_c, 0, 64, 0
2, 20192, Note_off_c, 0, 62, 0
2, 20192, Note_on_c, 0, 61, 84
2, 20204, Note_on_c, 0, 35, 62
2, 20256, Note_off_c, 0, 35, 0
2, 20332, Control_c, 0, 64, 40
2, 20344, Note_on_c, 0, 52, 62
2, 20344, Control_c, 0, 64, 72
2, 20360, Control_c, 0, 64, 104
2, 20372, Control_c, 0, 64, 127
2, 20376, Note_off_c, 0, 52, 0
2, 20436, Note_off_c, 0, 61, 0
2, 20456, Note_on_c, 0, 62, 80
2, 20468, Note_on_c, 0, 42, 53
2, 20504, Note_off_c, 0, 42, 0
2, 20544, Control_c, 0, 64, 72
2, 20556, Control_c, 0, 64, 0
2, 20588, Note_off_c, 0, 62, 0
2, 20596, Note_on_c, 0, 59, 77
2, 20600, Note_on_c, 0, 35, 60
2, 20628, Note_off_c, 0, 35, 0
2, 20644, Control_c, 0, 64, 24
2, 20656, Control_c, 0, 64, 56
2, 20668, Control_c, 0, 64, 88
2, 20732, Note_on_c, 0, 50, 60
2, 20744, Control_c, 0, 64, 127
2, 20828, Control_c, 0, 64, 104
2, 20840, Note_off_c, 0, 59, 0
2, 20844, Control_c, 0, 64, 24
2, 20848, Note_off_c, 0, 50, 0
2, 20852, Control_c, 0, 64, 0
2, 20864, Note_on_c, 0, 67, 88
2, 20884, Note_on_c, 0, 47, 57
2, 20916, Control_c, 0, 64, 56
2, 20928, Control_c, 0, 64, 104
2, 20940, Control_c, 0, 64, 127
2, 20972, Note_off_c, 0, 47, 0
2, 20976, Note_off_c, 0, 67, 0
2, 20980, Control_c, 0, 64, 104
2, 20992, Control_c, 0, 64, 40
2, 21004, Control_c, 0, 64, 0
2, 21020, Note_on_c, 0, 66, 89
2, 21024, Note_on_c, 0, 46, 54
2, 21108, Note_off_c, 0, 46, 0
2, 21128, Control_c, 0, 64, 40
2, 21136, Control_c, 0, 64, 56
2, 21152, Control_c, 0, 64, 40
2, 21156, Note_on_c, 0, 61, 53
2, 21164, Control_c, 0, 64, 0
2, 21228, Control_c, 0, 64, 24
2, 21232, Note_off_c, 0, 61, 0
2, 21240, Control_c, 0, 64, 56
2, 21252, Control_c, 0, 64, 72
2, 21276, Note_on_c, 0, 54, 49
2, 21288, Control_c, 0, 64, 40
2, 21300, Control_c, 0, 64, 0
2, 21372, Note_off_c, 0, 54, 0
2, 21400, Note_on_c, 0, 45, 65
2, 21436, Note_off_c, 0, 45, 0
2, 21464, Control_c, 0, 64, 24
2, 21476, Control_c, 0, 64, 40
2, 21488, Control_c, 0, 64, 56
2, 21500, Control_c, 0, 64, 88
2, 21512, Control_c, 0, 64, 127
2, 21532, Note_on_c, 0, 60, 56
2, 21592, Note_off_c, 0, 60, 0
2, 21672, Note_on_c, 0, 51, 50
2, 21692, Note_off_c, 0, 51, 0
2, 21776, Note_off_c, 0, 66, 0
2, 21804, Note_on_c, 0, 65, 76
2, 21816, Note_on_c, 0, 44, 57
2, 21820, Control_c, 0, 64, 72
2, 21832, Control_c, 0, 64, 0
2, 21908, Note_off_c, 0, 44, 0
2, 21908, Control_c, 0, 64, 40
2, 21920, Control_c, 0, 64, 104
2, 21936, Control_c, 0, 64, 127
2, 21952, Note_on_c, 0, 59, 50
2, 22016, Note_off_c, 0, 59, 0
2, 22088, Note_on_c, 0, 49, 44
2, 22164, Note_off_c, 0, 49, 0
2, 22220, Control_c, 0, 64, 104
2, 22224, Note_off_c, 0, 65, 0
2, 22228, Note_on_c, 0, 64, 79
2, 22232, Note_on_c, 0, 43, 59
2, 22232, Control_c, 0, 64, 56
2, 22244, Control_c, 0, 64, 0
2, 22292, Note_off_c, 0, 43, 0
2, 22328, Control_c, 0, 64, 56
2, 22344, Control_c, 0, 64, 127
2, 22376, Note_on_c, 0, 59, 31
2, 22424, Note_off_c, 0, 59, 0
2, 22500, Note_on_c, 0, 49, 43
2, 22560, Note_off_c, 0, 49, 0
2, 22616, Control_c, 0, 64, 104
2, 22624, Control_c, 0, 64, 56
2, 22640, Control_c, 0, 64, 0
2, 22644, Note_on_c, 0, 63, 71
2, 22644, Note_on_c, 0, 42, 48
2, 22652, Note_off_c, 0, 64, 0
2, 22724, Control_c, 0, 64, 40
2, 22740, Control_c, 0, 64, 104
2, 22752, Control_c, 0, 64, 127
2, 22760, Note_on_c, 0, 54, 49
2, 22788, Note_off_c, 0, 42, 0
2, 22852, Note_off_c, 0, 54, 0
2, 22912, Note_off_c, 0, 63, 0
2, 22912, Note_on_c, 0, 47, 42
2, 22992, Note_off_c, 0, 47, 0
2, 23052, Note_on_c, 0, 62, 69
2, 23060, Control_c, 0, 64, 88
2, 23068, Note_on_c, 0, 41, 51
2, 23076, Control_c, 0, 64, 24
2, 23088, Control_c, 0, 64, 0
2, 23156, Note_off_c, 0, 41, 0
2, 23172, Control_c, 0, 64, 56
2, 23184, Control_c, 0, 64, 104
2, 23196, Note_on_c, 0, 55, 49
2, 23196, Control_c, 0, 64, 127
2, 23284, Note_off_c, 0, 55, 0
2, 23324, Note_on_c, 0, 47, 52
2, 23356, Note_off_c, 0, 47, 0
2, 23464, Note_off_c, 0, 62, 0
2, 23464, Note_on_c, 0, 61, 73
2, 23464, Note_on_c, 0, 40, 59
2, 23468, Control_c, 0, 64, 56
2, 23484, Control_c, 0, 64, 0
2, 23496, Note_off_c, 0, 40, 0
2, 23556, Control_c, 0, 64, 40
2, 23568, Control_c, 0, 64, 104
2, 23580, Control_c, 0, 64, 127
2, 23600, Note_on_c, 0, 55, 62
2, 23656, Note_off_c, 0, 55, 0
2, 23720, Note_off_c, 0, 61, 0
2, 23728, Note_on_c, 0, 60, 86
2, 23744, Note_on_c, 0, 48, 51
2, 23772, Note_off_c, 0, 48, 0
2, 23828, Note_off_c, 0, 60, 0
2, 23856, Control_c, 0, 64, 72
2, 23868, Control_c, 0, 64, 24
2, 23880, Note_on_c, 0, 64, 78
2, 23880, Note_on_c, 0, 42, 61
2, 23880, Control_c, 0, 64, 0
2, 23948, Note_off_c, 0, 42, 0
2, 24000, Note_on_c, 0, 52, 63
2, 24028, Control_c, 0, 64, 40
2, 24040, Control_c, 0, 64, 72
2, 24052, Control_c, 0, 64, 88
2, 24116, Control_c, 0, 64, 104
2, 24124, Note_off_c, 0, 64, 0
2, 24128, Note_on_c, 0, 49, 61
2, 24128, Control_c, 0, 64, 127
2, 24140, Note_off_c, 0, 52, 0
2, 24140, Note_on_c, 0, 58, 71
2, 24156, Note_off_c, 0, 49, 0
2, 24232, Note_off_c, 0, 58, 0
2, 24236, Control_c, 0, 64, 88
2, 24252, Control_c, 0, 64, 0
2, 24300, Note_on_c, 0, 59, 78
2, 24320, Note_on_c, 0, 35, 66
2, 24368, Note_off_c, 0, 35, 0
2, 24376, Control_c, 0, 64, 72
2, 24380, Note_off_c, 0, 59, 0
2, 24384, Control_c, 0, 64, 127
2, 24456, Note_on_c, 0, 54, 65
2, 24512, Note_off_c, 0, 54, 0
2, 24580, Note_on_c, 0, 62, 63
2, 24588, Note_on_c, 0, 78, 88
2, 24596, Note_on_c, 0, 66, 64
2, 24624, Note_off_c, 0, 62, 0
2, 24644, Note_off_c, 0, 66, 0
2, 24672, Note_off_c, 0, 78, 0
2, 24672, Control_c, 0, 64, 104
2, 24684, Control_c, 0, 64, 56
2, 24696, Control_c, 0, 64, 0
2, 24732, Note_on_c, 0, 79, 83
2, 24736, Note_on_c, 0, 67, 65
2, 24740, Note_on_c, 0, 64, 59
2, 24800, Note_off_c, 0, 67, 0
2, 24808, Note_off_c, 0, 64, 0
2, 24812, Control_c, 0, 64, 72
2, 24820, Control_c, 0, 64, 127
2, 24860, Note_off_c, 0, 79, 0
2, 24868, Note_on_c, 0, 76, 66
2, 24872, Note_on_c, 0, 73, 48
2, 24872, Note_on_c, 0, 58, 34
2, 24888, Note_on_c, 0, 55, 36
2, 24924, Note_off_c, 0, 73, 0
2, 24932, Note_off_c, 0, 76, 0
2, 24976, Note_off_c, 0, 55, 0
2, 24988, Note_off_c, 0, 58, 0
2, 24996, Note_on_c, 0, 82, 76
2, 24996, Note_on_c, 0, 52, 59
2, 24996, Note_on_c, 0, 70, 67
2, 25016, Note_off_c, 0, 52, 0
2, 25056, Note_off_c, 0, 70, 0
2, 25080, Note_off_c, 0, 82, 0
2, 25104, Control_c, 0, 64, 72
2, 25116, Control_c, 0, 64, 0
2, 25136, Note_on_c, 0, 47, 59
2, 25148, Note_on_c, 0, 83, 80
2, 25156, Note_on_c, 0, 71, 54
2, 25188, Note_off_c, 0, 47, 0
2, 25208, Control_c, 0, 64, 40
2, 25212, Note_off_c, 0, 71, 0
2, 25216, Note_off_c, 0, 83, 0
2, 25220, Control_c, 0, 64, 104
2, 25228, Control_c, 0, 64, 127
2, 25272, Note_on_c, 0, 54, 52
2, 25284, Note_on_c, 0, 74, 60
2, 25328, Note_off_c, 0, 74, 0
2, 25336, Note_off_c, 0, 54, 0
2, 25400, Note_on_c, 0, 62, 59
2, 25408, Note_on_c, 0, 78, 81
2, 25408, Note_on_c, 0, 66, 59
2, 25432, Note_off_c, 0, 62, 0
2, 25468, Note_off_c, 0, 66, 0
2, 25476, Note_off_c, 0, 78, 0
2, 25504, Control_c, 0, 64, 72
2, 25516, Control_c, 0, 64, 0
2, 25544, Note_on_c, 0, 79, 84
2, 25552, Note_on_c, 0, 64, 65
2, 25556, Note_on_c, 0, 67, 64
2, 25604, Control_c, 0, 64, 72
2, 25608, Note_off_c, 0, 67, 0
2, 25616, Note_off_c, 0, 64, 0
2, 25616, Control_c, 0, 64, 127
2, 25628, Note_off_c, 0, 79, 0
2, 25676, Note_on_c, 0, 76, 62
2, 25680, Note_on_c, 0, 73, 39
2, 25688, Note_on_c, 0, 55, 47
2, 25692, Note_on_c, 0, 58, 32
2, 25704, Note_off_c, 0, 73, 0
2, 25736, Note_off_c, 0, 76, 0
2, 25788, Note_off_c, 0, 55, 0
2, 25800, Note_on_c, 0, 82, 77
2, 25804, Note_off_c, 0, 58, 0
2, 25808, Note_on_c, 0, 70, 62
2, 25812, Note_on_c, 0, 52, 52
2, 25836, Note_off_c, 0, 52, 0
2, 25864, Note_off_c, 0, 70, 0
2, 25872, Note_off_c, 0, 82, 0
2, 25900, Control_c, 0, 64, 104
2, 25912, Control_c, 0, 64, 56
2, 25924, Control_c, 0, 64, 0
2, 25948, Note_on_c, 0, 47, 63
2, 25956, Note_on_c, 0, 83, 82
2, 25964, Note_on_c, 0, 71, 63
2, 25972, Note_off_c, 0, 47, 0
2, 26012, Control_c, 0, 64, 72
2, 26024, Note_off_c, 0, 71, 0
2, 26024, Control_c, 0, 64, 127
2, 26036, Note_off_c, 0, 83, 0
2, 26084, Note_on_c, 0, 78, 60
2, 26096, Note_on_c, 0, 62, 48
2, 26156, Note_off_c, 0, 62, 0
2, 26160, Note_off_c, 0, 78, 0
2, 26212, Note_on_c, 0, 54, 46
2, 26216, Note_on_c, 0, 83, 82
2, 26220, Note_on_c, 0, 71, 65
2, 26280, Note_off_c, 0, 71, 0
2, 26304, Note_off_c, 0, 83, 0
2, 26312, Control_c, 0, 64, 72
2, 26324, Control_c, 0, 64, 0
2, 26332, Note_off_c, 0, 54, 0
2, 26356, Note_on_c, 0, 52, 60
2, 26356, Note_on_c, 0, 79, 76
2, 26376, Note_on_c, 0, 76, 52
2, 26380, Note_off_c, 0, 52, 0
2, 26400, Note_off_c, 0, 76, 0
2, 26408, Control_c, 0, 64, 56
2, 26420, Control_c, 0, 64, 104
2, 26432, Control_c, 0, 64, 127
2, 26436, Note_off_c, 0, 79, 0
2, 26472, Note_on_c, 0, 67, 58
2, 26488, Note_on_c, 0, 82, 81
2, 26488, Note_on_c, 0, 70, 69
2, 26544, Note_off_c, 0, 67, 0
2, 26548, Note_off_c, 0, 70, 0
2, 26568, Note_off_c, 0, 82, 0
2, 26604, Note_on_c, 0, 59, 50
2, 26608, Note_on_c, 0, 83, 92
2, 26612, Note_on_c, 0, 71, 76
2, 26616, Note_on_c, 0, 55, 52
2, 26628, Note_off_c, 0, 59, 0
2, 26640, Note_off_c, 0, 55, 0
2, 26648, Note_off_c, 0, 71, 0
2, 26660, Note_off_c, 0, 83, 0
2, 26732, Control_c, 0, 64, 56
2, 26744, Control_c, 0, 64, 0
2, 26764, Note_on_c, 0, 50, 63
2, 26768, Note_on_c, 0, 86, 87
2, 26776, Note_on_c, 0, 74, 74
2, 26820, Note_off_c, 0, 50, 0
2, 26828, Control_c, 0, 64, 56
2, 26840, Control_c, 0, 64, 104
2, 26856, Control_c, 0, 64, 127
2, 26904, Note_off_c, 0, 74, 0
2, 26904, Note_on_c, 0, 66, 47
2, 26904, Note_on_c, 0, 81, 66
2, 26912, Note_on_c, 0, 78, 35
2, 26944, Note_off_c, 0, 78, 0
2, 26972, Note_off_c, 0, 66, 0
2, 26992, Note_off_c, 0, 81, 0
2, 27004, Control_c, 0, 64, 104
2, 27016, Control_c, 0, 64, 88
2, 27040, Control_c, 0, 64, 72
2, 27044, Note_on_c, 0, 62, 48
2, 27048, Note_on_c, 0, 74, 61
2, 27052, Control_c, 0, 64, 56
2, 27064, Note_on_c, 0, 57, 31
2, 27076, Control_c, 0, 64, 40
2, 27084, Note_off_c, 0, 62, 0
2, 27088, Control_c, 0, 64, 0
2, 27108, Note_off_c, 0, 57, 0
2, 27136, Note_off_c, 0, 74, 0
2, 27180, Note_on_c, 0, 82, 59
2, 27192, Note_on_c, 0, 55, 65
2, 27200, Note_on_c, 0, 79, 41
2, 27244, Note_off_c, 0, 79, 0
2, 27264, Note_off_c, 0, 55, 0
2, 27280, Note_off_c, 0, 82, 0
2, 27308, Note_on_c, 0, 70, 56
2, 27312, Control_c, 0, 64, 24
2, 27316, Note_on_c, 0, 74, 57
2, 27324, Control_c, 0, 64, 40
2, 27340, Control_c, 0, 64, 56
2, 27352, Control_c, 0, 64, 72
2, 27364, Control_c, 0, 64, 88
2, 27376, Control_c, 0, 64, 104
2, 27380, Note_off_c, 0, 70, 0
2, 27388, Control_c, 0, 64, 127
2, 27404, Note_off_c, 0, 74, 0
2, 27432, Note_on_c, 0, 62, 55
2, 27432, Note_on_c, 0, 82, 60
2, 27444, Note_on_c, 0, 58, 40
2, 27452, Note_off_c, 0, 62, 0
2, 27464, Note_on_c, 0, 79, 26
2, 27472, Note_off_c, 0, 58, 0
2, 27496, Note_off_c, 0, 79, 0
2, 27512, Note_off_c, 0, 82, 0
2, 27512, Control_c, 0, 64, 104
2, 27524, Control_c, 0, 64, 56
2, 27536, Control_c, 0, 64, 0
2, 27576, Note_on_c, 0, 50, 74
2, 27580, Note_on_c, 0, 74, 59
2, 27600, Note_off_c, 0, 50, 0
2, 27624, Control_c, 0, 64, 24
2, 27636, Control_c, 0, 64, 56
2, 27648, Control_c, 0, 64, 72
2, 27660, Control_c, 0, 64, 104
2, 27668, Note_off_c, 0, 74, 0
2, 27684, Control_c, 0, 64, 127
2, 27700, Note_off_c, 0, 86, 0
2, 27704, Note_on_c, 0, 81, 68
2, 27708, Note_on_c, 0, 66, 60
2, 27708, Note_on_c, 0, 78, 48
2, 27736, Note_off_c, 0, 78, 0
2, 27756, Note_off_c, 0, 81, 0
2, 27772, Note_off_c, 0, 66, 0
2, 27772, Control_c, 0, 64, 104
2, 27832, Note_on_c, 0, 81, 87
2, 27848, Note_on_c, 0, 69, 69
2, 27848, Note_on_c, 0, 57, 54
2, 27860, Control_c, 0, 64, 127
2, 27872, Note_off_c, 0, 69, 0
2, 27876, Note_off_c, 0, 57, 0
2, 27892, Note_off_c, 0, 81, 0
2, 27932, Control_c, 0, 64, 88
2, 27944, Control_c, 0, 64, 24
2, 27956, Control_c, 0, 64, 0
2, 27988, Note_on_c, 0, 82, 87
2, 27996, Note_on_c, 0, 70, 71
2, 27996, Note_on_c, 0, 67, 60
2, 28032, Control_c, 0, 64, 24
2, 28048, Control_c, 0, 64, 88
2, 28052, Note_off_c, 0, 70, 0
2, 28060, Control_c, 0, 64, 127
2, 28064, Note_off_c, 0, 67, 0
2, 28124, Note_on_c, 0, 76, 68
2, 28128, Note_on_c, 0, 61, 35
2, 28144, Note_on_c, 0, 73, 27
2, 28144, Note_on_c, 0, 58, 25
2, 28156, Note_off_c, 0, 82, 0
2, 28168, Note_off_c, 0, 73, 0
2, 28180, Note_off_c, 0, 76, 0
2, 28260, Note_on_c, 0, 55, 58
2, 28260, Note_on_c, 0, 85, 85
2, 28268, Note_on_c, 0, 73, 73
2, 28280, Note_off_c, 0, 61, 0
2, 28288, Note_off_c, 0, 58, 0
2, 28288, Note_off_c, 0, 55, 0
2, 28324, Note_off_c, 0, 73, 0
2, 28340, Note_off_c, 0, 85, 0
2, 28380, Control_c, 0, 64, 104
2, 28392, Control_c, 0, 64, 24
2, 28404, Note_on_c, 0, 50, 62
2, 28404, Control_c, 0, 64, 0
2, 28408, Note_on_c, 0, 86, 80
2, 28416, Note_on_c, 0, 74, 65
2, 28428, Note_off_c, 0, 50, 0
2, 28456, Control_c, 0, 64, 24
2, 28468, Control_c, 0, 64, 72
2, 28480, Note_off_c, 0, 74, 0
2, 28480, Control_c, 0, 64, 127
2, 28492, Note_off_c, 0, 86, 0
2, 28532, Note_on_c, 0, 81, 64
2, 28536, Note_on_c, 0, 66, 58
2, 28560, Note_off_c, 0, 81, 0
2, 28600, Note_off_c, 0, 66, 0
2, 28660, Note_on_c, 0, 81, 87
2, 28676, Note_on_c, 0, 69, 66
2, 28684, Note_on_c, 0, 62, 47
2, 28692, Note_on_c, 0, 57, 42
2, 28696, Note_off_c, 0, 69, 0
2, 28716, Note_off_c, 0, 81, 0
2, 28716, Note_off_c, 0, 62, 0
2, 28716, Note_off_c, 0, 57, 0
2, 28752, Control_c, 0, 64, 104
2, 28764, Control_c, 0, 64, 56
2, 28776, Control_c, 0, 64, 0
2, 28812, Note_on_c, 0, 82, 87
2, 28816, Note_on_c, 0, 70, 80
2, 28820, Note_on_c, 0, 67, 68
2, 28852, Control_c, 0, 64, 40
2, 28864, Control_c, 0, 64, 104
2, 28876, Note_off_c, 0, 70, 0
2, 28876, Control_c, 0, 64, 127
2, 28896, Note_off_c, 0, 67, 0
2, 28932, Note_off_c, 0, 82, 0
2, 28944, Note_on_c, 0, 76, 74
2, 28944, Note_on_c, 0, 61, 46
2, 28960, Note_on_c, 0, 73, 32
2, 28964, Note_on_c, 0, 58, 33
2, 28984, Note_off_c, 0, 73, 0
2, 28996, Note_off_c, 0, 76, 0
2, 29072, Note_on_c, 0, 85, 88
2, 29072, Note_on_c, 0, 55, 63
2, 29080, Note_on_c, 0, 73, 79
2, 29092, Note_off_c, 0, 61, 0
2, 29100, Note_off_c, 0, 58, 0
2, 29104, Note_off_c, 0, 55, 0
2, 29136, Note_off_c, 0, 73, 0
2, 29148, Note_off_c, 0, 85, 0
2, 29164, Control_c, 0, 64, 88
2, 29176, Control_c, 0, 64, 0
2, 29216, Note_on_c, 0, 50, 68
2, 29232, Note_on_c, 0, 86, 92
2, 29236, Note_off_c, 0, 50, 0
2, 29236, Note_on_c, 0, 74, 80
2, 29260, Control_c, 0, 64, 72
2, 29272, Control_c, 0, 64, 127
2, 29292, Note_off_c, 0, 74, 0
2, 29316, Note_off_c, 0, 86, 0
2, 29356, Note_on_c, 0, 66, 60
2, 29360, Note_on_c, 0, 81, 67
2, 29368, Note_on_c, 0, 78, 51
2, 29420, Note_off_c, 0, 66, 0
2, 29420, Note_off_c, 0, 78, 0
2, 29436, Note_off_c, 0, 81, 0
2, 29496, Note_on_c, 0, 86, 86
2, 29500, Note_on_c, 0, 74, 76
2, 29504, Note_on_c, 0, 62, 34
2, 29564, Note_off_c, 0, 74, 0
2, 29568, Note_off_c, 0, 62, 0
2, 29576, Note_off_c, 0, 86, 0
2, 29596, Control_c, 0, 64, 56
2, 29608, Control_c, 0, 64, 0
2, 29632, Note_on_c, 0, 83, 87
2, 29648, Note_on_c, 0, 79, 74
2, 29648, Note_on_c, 0, 55, 66
2, 29672, Note_off_c, 0, 55, 0
2, 29680, Control_c, 0, 64, 56
2, 29692, Note_off_c, 0, 79, 0
2, 29696, Control_c, 0, 64, 127
2, 29724, Note_off_c, 0, 83, 0
2, 29768, Note_on_c, 0, 71, 63
2, 29768, Note_on_c, 0, 85, 86
2, 29776, Note_on_c, 0, 73, 74
2, 29824, Note_off_c, 0, 71, 0
2, 29828, Note_off_c, 0, 73, 0
2, 29844, Note_off_c, 0, 85, 0
2, 29896, Note_on_c, 0, 86, 94
2, 29904, Note_on_c, 0, 74, 74
2, 29908, Note_on_c, 0, 59, 45
2, 29916, Note_on_c, 0, 62, 52
2, 29924, Note_off_c, 0, 74, 0
2, 29940, Note_off_c, 0, 59, 0
2, 29940, Note_off_c, 0, 62, 0
2, 29952, Note_off_c, 0, 86, 0
2, 30032, Control_c, 0, 64, 88
2, 30044, Control_c, 0, 64, 24
2, 30056, Control_c, 0, 64, 0
2, 30060, Note_on_c, 0, 90, 86
2, 30068, Note_on_c, 0, 78, 77
2, 30076, Note_on_c, 0, 58, 60
2, 30120, Note_off_c, 0, 78, 0
2, 30152, Control_c, 0, 64, 88
2, 30160, Note_off_c, 0, 58, 0
2, 30164, Control_c, 0, 64, 127
2, 30208, Note_on_c, 0, 85, 61
2, 30212, Note_on_c, 0, 73, 57
2, 30216, Note_on_c, 0, 82, 43
2, 30244, Note_off_c, 0, 82, 0
2, 30280, Note_off_c, 0, 85, 0
2, 30284, Note_off_c, 0, 73, 0
2, 30340, Note_on_c, 0, 78, 64
2, 30344, Note_on_c, 0, 66, 43
2, 30356, Note_on_c, 0, 61, 30
2, 30412, Note_off_c, 0, 78, 0
2, 30416, Note_off_c, 0, 61, 0
2, 30452, Control_c, 0, 64, 72
2, 30456, Note_off_c, 0, 66, 0
2, 30464, Control_c, 0, 64, 0
2, 30492, Note_on_c, 0, 59, 70
2, 30492, Note_on_c, 0, 86, 64
2, 30512, Note_on_c, 0, 83, 37
2, 30548, Note_off_c, 0, 59, 0
2, 30548, Note_off_c, 0, 83, 0
2, 30576, Control_c, 0, 64, 40
2, 30588, Control_c, 0, 64, 104
2, 30596, Note_off_c, 0, 86, 0
2, 30600, Control_c, 0, 64, 127
2, 30616, Note_on_c, 0, 78, 59
2, 30628, Note_on_c, 0, 74, 29
2, 30672, Note_off_c, 0, 74, 0
2, 30696, Note_off_c, 0, 78, 0
2, 30748, Note_on_c, 0, 66, 38
2, 30768, Note_on_c, 0, 62, 42
2, 30772, Note_on_c, 0, 86, 37
2, 30776, Note_on_c, 0, 83, 28
2, 30804, Note_off_c, 0, 62, 0
2, 30812, Note_off_c, 0, 83, 0
2, 30816, Note_off_c, 0, 66, 0
2, 30820, Note_off_c, 0, 86, 0
2, 30860, Control_c, 0, 64, 104
2, 30872, Control_c, 0, 64, 24
2, 30884, Note_on_c, 0, 78, 52
2, 30884, Control_c, 0, 64, 0
2, 30892, Note_on_c, 0, 58, 80
2, 30956, Note_off_c, 0, 58, 0
2, 30960, Control_c, 0, 64, 88
2, 30972, Control_c, 0, 64, 127
2, 31024, Note_on_c, 0, 85, 58
2, 31028, Note_off_c, 0, 90, 0
2, 31032, Note_on_c, 0, 73, 61
2, 31044, Note_off_c, 0, 78, 0
2, 31044, Note_on_c, 0, 82, 31
2, 31068, Note_off_c, 0, 82, 0
2, 31084, Note_off_c, 0, 85, 0
2, 31104, Note_off_c, 0, 73, 0
2, 31160, Note_on_c, 0, 85, 85
2, 31168, Note_on_c, 0, 73, 77
2, 31184, Note_on_c, 0, 66, 32
2, 31188, Note_on_c, 0, 61, 32
2, 31208, Note_off_c, 0, 66, 0
2, 31216, Note_off_c, 0, 61, 0
2, 31232, Note_off_c, 0, 73, 0
2, 31248, Note_off_c, 0, 85, 0
2, 31308, Control_c, 0, 64, 88
2, 31312, Note_on_c, 0, 86, 84
2, 31320, Control_c, 0, 64, 0
2, 31324, Note_on_c, 0, 57, 68
2, 31324, Note_on_c, 0, 74, 73
2, 31380, Note_off_c, 0, 74, 0
2, 31396, Control_c, 0, 64, 40
2, 31404, Note_off_c, 0, 57, 0
2, 31408, Control_c, 0, 64, 88
2, 31416, Note_off_c, 0, 86, 0
2, 31420, Control_c, 0, 64, 127
2, 31444, Note_on_c, 0, 83, 66
2, 31448, Note_on_c, 0, 78, 46
2, 31468, Note_on_c, 0, 71, 58
2, 31480, Note_off_c, 0, 78, 0
2, 31512, Note_off_c, 0, 83, 0
2, 31524, Note_off_c, 0, 71, 0
2, 31580, Note_on_c, 0, 87, 83
2, 31584, Note_on_c, 0, 66, 44
2, 31588, Note_on_c, 0, 75, 71
2, 31624, Note_off_c, 0, 66, 0
2, 31644, Note_off_c, 0, 75, 0
2, 31656, Note_off_c, 0, 87, 0
2, 31716, Control_c, 0, 64, 88
2, 31728, Control_c, 0, 64, 0
2, 31736, Note_on_c, 0, 88, 83
2, 31736, Note_on_c, 0, 56, 54
2, 31740, Note_on_c, 0, 76, 72
2, 31796, Note_off_c, 0, 56, 0
2, 31800, Note_off_c, 0, 76, 0
2, 31804, Control_c, 0, 64, 40
2, 31816, Control_c, 0, 64, 104
2, 31828, Control_c, 0, 64, 127
2, 31840, Note_off_c, 0, 88, 0
2, 31864, Note_on_c, 0, 83, 64
2, 31864, Note_on_c, 0, 88, 18
2, 31868, Note_on_c, 0, 71, 58
2, 31872, Note_on_c, 0, 80, 53
2, 31936, Note_off_c, 0, 71, 0
2, 31936, Note_off_c, 0, 80, 0
2, 31940, Note_off_c, 0, 83, 0
2, 31996, Note_on_c, 0, 76, 69
2, 32000, Note_on_c, 0, 64, 55
2, 32004, Note_on_c, 0, 59, 51
2, 32056, Note_off_c, 0, 59, 0
2, 32068, Note_off_c, 0, 76, 0
2, 32096, Note_off_c, 0, 64, 0
2, 32112, Note_off_c, 0, 88, 0
2, 32112, Control_c, 0, 64, 56
2, 32124, Note_on_c, 0, 85, 73
2, 32124, Control_c, 0, 64, 0
2, 32140, Note_on_c, 0, 81, 62
2, 32156, Note_on_c, 0, 55, 58
2, 32180, Note_off_c, 0, 55, 0
2, 32188, Control_c, 0, 64, 40
2, 32200, Control_c, 0, 64, 104
2, 32208, Note_off_c, 0, 81, 0
2, 32212, Control_c, 0, 64, 127
2, 32256, Note_off_c, 0, 85, 0
2, 32264, Note_on_c, 0, 69, 53
2, 32332, Note_off_c, 0, 69, 0
2, 32336, Note_on_c, 0, 90, 80
2, 32340, Note_on_c, 0, 78, 69
2, 32364, Note_off_c, 0, 78, 0
2, 32372, Note_off_c, 0, 90, 0
2, 32404, Note_on_c, 0, 61, 25
2, 32424, Note_on_c, 0, 88, 68
2, 32424, Note_on_c, 0, 76, 82
2, 32432, Note_off_c, 0, 61, 0
2, 32456, Note_off_c, 0, 76, 0
2, 32468, Note_off_c, 0, 88, 0
2, 32536, Control_c, 0, 64, 88
2, 32548, Control_c, 0, 64, 0
2, 32568, Note_on_c, 0, 86, 88
2, 32572, Note_on_c, 0, 74, 71
2, 32580, Note_on_c, 0, 54, 58
2, 32620, Control_c, 0, 64, 56
2, 32628, Note_off_c, 0, 74, 0
2, 32632, Control_c, 0, 64, 127
2, 32640, Note_off_c, 0, 54, 0
2, 32688, Note_off_c, 0, 86, 0
2, 32696, Note_on_c, 0, 78, 58
2, 32696, Note_on_c, 0, 69, 56
2, 32700, Note_on_c, 0, 81, 64
2, 32756, Note_off_c, 0, 69, 0
2, 32760, Note_off_c, 0, 78, 0
2, 32768, Note_off_c, 0, 81, 0
2, 32824, Note_on_c, 0, 85, 76
2, 32836, Note_on_c, 0, 73, 71
2, 32836, Note_on_c, 0, 62, 44
2, 32848, Note_on_c, 0, 57, 40
2, 32880, Note_off_c, 0, 73, 0
2, 32884, Note_off_c, 0, 57, 0
2, 32888, Note_off_c, 0, 85, 0
2, 32944, Control_c, 0, 64, 104
2, 32956, Control_c, 0, 64, 40
2, 32968, Control_c, 0, 64, 0
2, 32972, Note_on_c, 0, 83, 85
2, 32976, Note_on_c, 0, 54, 70
2, 32976, Note_on_c, 0, 71, 66
2, 33028, Note_off_c, 0, 71, 0
2, 33028, Control_c, 0, 64, 24
2, 33036, Note_off_c, 0, 54, 0
2, 33040, Note_on_c, 0, 56, 27
2, 33040, Control_c, 0, 64, 88
2, 33056, Note_off_c, 0, 83, 0
2, 33056, Control_c, 0, 64, 127
2, 33108, Note_on_c, 0, 80, 69
2, 33112, Note_on_c, 0, 68, 61
2, 33144, Note_off_c, 0, 62, 0
2, 33172, Note_off_c, 0, 68, 0
2, 33176, Note_off_c, 0, 56, 0
2, 33176, Note_off_c, 0, 80, 0
2, 33240, Note_on_c, 0, 85, 82
2, 33248, Note_on_c, 0, 53, 66
2, 33252, Note_on_c, 0, 73, 72
2, 33272, Note_off_c, 0, 53, 0
2, 33292, Note_off_c, 0, 85, 0
2, 33292, Note_off_c, 0, 73, 0
2, 33392, Control_c, 0, 64, 104
2, 33404, Note_on_c, 0, 78, 78
2, 33404, Control_c, 0, 64, 56
2, 33416, Note_on_c, 0, 66, 55
2, 33416, Control_c, 0, 64, 0
2, 33428, Note_on_c, 0, 52, 52
2, 33528, Note_on_c, 0, 64, 58
2, 33536, Note_off_c, 0, 66, 0
2, 33552, Note_on_c, 0, 73, 46
2, 33560, Note_on_c, 0, 70, 35
2, 33576, Control_c, 0, 64, 24
2, 33588, Control_c, 0, 64, 40
2, 33592, Note_off_c, 0, 70, 0
2, 33600, Note_off_c, 0, 64, 0
2, 33600, Control_c, 0, 64, 56
2, 33612, Control_c, 0, 64, 72
2, 33620, Note_off_c, 0, 73, 0
2, 33628, Note_off_c, 0, 52, 0
2, 33636, Control_c, 0, 64, 88
2, 33648, Control_c, 0, 64, 104
2, 33664, Note_on_c, 0, 66, 51
2, 33672, Note_on_c, 0, 58, 34
2, 33672, Note_on_c, 0, 54, 35
2, 33676, Control_c, 0, 64, 127
2, 33736, Control_c, 0, 64, 72
2, 33744, Note_off_c, 0, 66, 0
2, 33752, Note_off_c, 0, 54, 0
2, 33752, Control_c, 0, 64, 0
2, 33760, Note_off_c, 0, 58, 0
2, 33788, Note_on_c, 0, 74, 70
2, 33804, Note_off_c, 0, 78, 0
2, 33820, Note_off_c, 0, 74, 0
2, 33820, Note_on_c, 0, 50, 55
2, 33824, Control_c, 0, 64, 40
2, 33836, Control_c, 0, 64, 88
2, 33848, Control_c, 0, 64, 127
2, 33852, Note_off_c, 0, 50, 0
2, 33936, Note_on_c, 0, 66, 58
2, 34000, Note_off_c, 0, 66, 0
2, 34012, Note_on_c, 0, 88, 92
2, 34020, Note_on_c, 0, 76, 78
2, 34040, Note_off_c, 0, 76, 0
2, 34056, Note_on_c, 0, 59, 52
2, 34064, Note_off_c, 0, 88, 0
2, 34076, Note_on_c, 0, 54, 38
2, 34084, Note_off_c, 0, 59, 0
2, 34096, Note_on_c, 0, 86, 96
2, 34104, Note_on_c, 0, 74, 80
2, 34124, Note_off_c, 0, 54, 0
2, 34128, Note_off_c, 0, 74, 0
2, 34144, Note_off_c, 0, 86, 0
2, 34196, Control_c, 0, 64, 88
2, 34208, Control_c, 0, 64, 24
2, 34220, Control_c, 0, 64, 0
2, 34260, Note_on_c, 0, 46, 75
2, 34264, Note_on_c, 0, 85, 81
2, 34264, Note_on_c, 0, 73, 79
2, 34296, Control_c, 0, 64, 40
2, 34304, Note_off_c, 0, 46, 0
2, 34308, Control_c, 0, 64, 88
2, 34320, Control_c, 0, 64, 127
2, 34324, Note_off_c, 0, 73, 0
2, 34348, Note_off_c, 0, 85, 0
2, 34396, Note_on_c, 0, 78, 69
2, 34408, Note_on_c, 0, 64, 58
2, 34408, Note_on_c, 0, 76, 51
2, 34432, Note_off_c, 0, 76, 0
2, 34444, Note_off_c, 0, 64, 0
2, 34456, Note_off_c, 0, 78, 0
2, 34536, Note_on_c, 0, 86, 82
2, 34540, Note_on_c, 0, 54, 56
2, 34540, Note_on_c, 0, 74, 63
2, 34564, Note_off_c, 0, 54, 0
2, 34568, Note_off_c, 0, 74, 0
2, 34572, Note_off_c, 0, 86, 0
2, 34632, Control_c, 0, 64, 104
2, 34644, Control_c, 0, 64, 56
2, 34656, Control_c, 0, 64, 0
2, 34684, Note_on_c, 0, 83, 83
2, 34688, Note_on_c, 0, 71, 77
2, 34688, Note_on_c, 0, 47, 66
2, 34712, Note_off_c, 0, 47, 0
2, 34716, Control_c, 0, 64, 40
2, 34728, Control_c, 0, 64, 88
2, 34732, Note_off_c, 0, 71, 0
2, 34736, Note_off_c, 0, 83, 0
2, 34740, Control_c, 0, 64, 127
2, 34804, Note_on_c, 0, 78, 69
2, 34824, Note_on_c, 0, 62, 41
2, 34860, Note_off_c, 0, 62, 0
2, 34864, Note_off_c, 0, 78, 0
2, 34948, Note_on_c, 0, 86, 82
2, 34964, Note_on_c, 0, 74, 67
2, 34964, Note_on_c, 0, 54, 44
2, 34984, Note_off_c, 0, 74, 0
2, 34984, Note_off_c, 0, 54, 0
2, 34996, Note_off_c, 0, 86, 0
2, 35088, Control_c, 0, 64, 104
2, 35100, Control_c, 0, 64, 40
2, 35116, Note_on_c, 0, 78, 85
2, 35116, Control_c, 0, 64, 0
2, 35120, Note_on_c, 0, 66, 72
2, 35128, Note_on_c, 0, 45, 63
2, 35176, Control_c, 0, 64, 40
2, 35180, Note_off_c, 0, 66, 0
2, 35188, Note_off_c, 0, 45, 0
2, 35188, Control_c, 0, 64, 104
2, 35200, Note_off_c, 0, 78, 0
2, 35200, Control_c, 0, 64, 127
2, 35248, Note_on_c, 0, 75, 60
2, 35260, Note_on_c, 0, 60, 51
2, 35272, Note_on_c, 0, 72, 46
2, 35300, Note_off_c, 0, 60, 0
2, 35300, Note_off_c, 0, 72, 0
2, 35324, Note_off_c, 0, 75, 0
2, 35376, Note_on_c, 0, 79, 83
2, 35392, Note_on_c, 0, 51, 46
2, 35392, Note_on_c, 0, 67, 39
2, 35416, Note_off_c, 0, 51, 0
2, 35424, Note_off_c, 0, 67, 0
2, 35428, Note_off_c, 0, 79, 0
2, 35500, Control_c, 0, 64, 56
2, 35508, Control_c, 0, 64, 0
2, 35528, Note_on_c, 0, 76, 88
2, 35528, Note_on_c, 0, 64, 80
2, 35532, Note_on_c, 0, 43, 66
2, 35572, Control_c, 0, 64, 56
2, 35584, Control_c, 0, 64, 127
2, 35588, Note_off_c, 0, 64, 0
2, 35588, Note_off_c, 0, 43, 0
2, 35612, Note_off_c, 0, 76, 0
2, 35664, Note_on_c, 0, 71, 70
2, 35664, Note_on_c, 0, 59, 49
2, 35664, Note_on_c, 0, 67, 60
2, 35712, Note_off_c, 0, 59, 0
2, 35716, Note_off_c, 0, 71, 0
2, 35732, Note_off_c, 0, 67, 0
2, 35800, Note_on_c, 0, 83, 85
2, 35800, Note_on_c, 0, 71, 61
2, 35800, Note_on_c, 0, 52, 60
2, 35824, Note_off_c, 0, 71, 0
2, 35844, Note_off_c, 0, 83, 0
2, 35868, Note_off_c, 0, 52, 0
2, 35932, Control_c, 0, 64, 104
2, 35944, Control_c, 0, 64, 24
2, 35952, Note_on_c, 0, 42, 64
2, 35956, Note_on_c, 0, 74, 93
2, 35956, Control_c, 0, 64, 0
2, 35964, Note_on_c, 0, 62, 80
2, 36012, Note_off_c, 0, 62, 0
2, 36020, Control_c, 0, 64, 56
2, 36032, Note_off_c, 0, 74, 0
2, 36032, Control_c, 0, 64, 127
2, 36048, Note_off_c, 0, 42, 0
2, 36080, Note_on_c, 0, 54, 51
2, 36088, Note_on_c, 0, 71, 68
2, 36096, Note_on_c, 0, 66, 34
2, 36124, Note_off_c, 0, 66, 0
2, 36148, Note_off_c, 0, 71, 0
2, 36160, Note_off_c, 0, 54, 0
2, 36224, Note_on_c, 0, 76, 83
2, 36224, Note_on_c, 0, 47, 53
2, 36240, Note_on_c, 0, 64, 64
2, 36252, Note_off_c, 0, 47, 0
2, 36264, Note_off_c, 0, 64, 0
2, 36272, Note_off_c, 0, 76, 0
2, 36328, Control_c, 0, 64, 72
2, 36340, Control_c, 0, 64, 0
2, 36372, Note_on_c, 0, 73, 90
2, 36372, Note_on_c, 0, 61, 79
2, 36372, Note_on_c, 0, 40, 61
2, 36416, Control_c, 0, 64, 24
2, 36424, Note_off_c, 0, 40, 0
2, 36428, Control_c, 0, 64, 104
2, 36440, Control_c, 0, 64, 127
2, 36448, Note_off_c, 0, 61, 0
2, 36468, Note_off_c, 0, 73, 0
2, 36500, Note_on_c, 0, 70, 65
2, 36512, Note_on_c, 0, 55, 57
2, 36512, Note_on_c, 0, 67, 50
2, 36536, Note_off_c, 0, 67, 0
2, 36552, Note_off_c, 0, 70, 0
2, 36572, Note_off_c, 0, 55, 0
2, 36632, Note_on_c, 0, 79, 97
2, 36632, Note_on_c, 0, 67, 82
2, 36644, Note_on_c, 0, 46, 45
2, 36668, Note_off_c, 0, 79, 0
2, 36672, Note_off_c, 0, 67, 0
2, 36724, Note_off_c, 0, 46, 0
2, 36780, Note_on_c, 0, 79, 102
2, 36784, Note_on_c, 0, 67, 94
2, 36788, Note_on_c, 0, 40, 52
2, 36820, Note_off_c, 0, 40, 0
2, 36840, Note_off_c, 0, 67, 0
2, 36868, Note_off_c, 0, 79, 0
2, 36912, Note_on_c, 0, 73, 70
2, 36916, Note_on_c, 0, 70, 55
2, 36920, Note_on_c, 0, 55, 47
2, 36960, Note_off_c, 0, 70, 0
2, 36980, Note_off_c, 0, 73, 0
2, 36984, Note_off_c, 0, 55, 0
2, 37040, Note_on_c, 0, 49, 60
2, 37056, Note_on_c, 0, 82, 99
2, 37056, Note_on_c, 0, 70, 91
2, 37092, Note_off_c, 0, 70, 0
2, 37100, Note_off_c, 0, 82, 0
2, 37144, Note_off_c, 0, 49, 0
2, 37204, Note_on_c, 0, 85, 105
2, 37208, Note_on_c, 0, 73, 95
2, 37216, Note_on_c, 0, 46, 43
2, 37248, Note_off_c, 0, 73, 0
2, 37252, Note_off_c, 0, 85, 0
2, 37324, Note_on_c, 0, 55, 54
2, 37332, Note_on_c, 0, 86, 107
2, 37336, Note_on_c, 0, 74, 96
2, 37368, Note_off_c, 0, 74, 0
2, 37380, Note_off_c, 0, 86, 0
2, 37404, Note_off_c, 0, 55, 0
2, 37432, Note_off_c, 0, 46, 0
2, 37436, Note_on_c, 0, 49, 61
2, 37456, Note_off_c, 0, 49, 0
2, 37464, Note_on_c, 0, 88, 109
2, 37464, Note_on_c, 0, 76, 99
2, 37504, Note_off_c, 0, 76, 0
2, 37512, Note_off_c, 0, 88, 0
2, 37592, Control_c, 0, 64, 104
2, 37604, Control_c, 0, 64, 0
2, 37636, Note_on_c, 0, 38, 75
2, 37636, Note_on_c, 0, 91, 103
2, 37644, Note_on_c, 0, 79, 89
2, 37684, Note_off_c, 0, 38, 0
2, 37704, Control_c, 0, 64, 104
2, 37720, Control_c, 0, 64, 127
2, 37744, Note_off_c, 0, 79, 0
2, 37780, Note_on_c, 0, 86, 67
2, 37780, Note_on_c, 0, 59, 59
2, 37796, Note_on_c, 0, 83, 36
2, 37848, Note_off_c, 0, 59, 0
2, 37880, Note_off_c, 0, 83, 0
2, 37892, Note_off_c, 0, 91, 0
2, 37908, Note_on_c, 0, 79, 74
2, 37940, Note_on_c, 0, 50, 57
2, 37964, Note_off_c, 0, 79, 0
2, 38008, Note_off_c, 0, 86, 0
2, 38012, Note_off_c, 0, 50, 0
2, 38064, Note_on_c, 0, 90, 86
2, 38064, Control_c, 0, 64, 88
2, 38068, Note_on_c, 0, 62, 62
2, 38076, Note_on_c, 0, 78, 83
2, 38076, Control_c, 0, 64, 0
2, 38140, Control_c, 0, 64, 56
2, 38144, Note_off_c, 0, 62, 0
2, 38152, Note_off_c, 0, 78, 0
2, 38152, Control_c, 0, 64, 127
2, 38192, Note_on_c, 0, 59, 47
2, 38208, Note_on_c, 0, 86, 62
2, 38224, Note_on_c, 0, 83, 42
2, 38256, Note_off_c, 0, 83, 0
2, 38268, Note_off_c, 0, 59, 0
2, 38308, Note_off_c, 0, 90, 0
2, 38320, Note_off_c, 0, 86, 0
2, 38332, Note_on_c, 0, 50, 59
2, 38348, Note_on_c, 0, 78, 69
2, 38352, Note_off_c, 0, 50, 0
2, 38404, Note_off_c, 0, 78, 0
2, 38436, Control_c, 0, 64, 72
2, 38448, Control_c, 0, 64, 0
2, 38496, Note_on_c, 0, 89, 89
2, 38496, Note_on_c, 0, 37, 64
2, 38504, Note_on_c, 0, 77, 72
2, 38548, Note_off_c, 0, 37, 0
2, 38560, Control_c, 0, 64, 104
2, 38568, Note_off_c, 0, 77, 0
2, 38572, Control_c, 0, 64, 127
2, 38640, Note_on_c, 0, 85, 54
2, 38656, Note_on_c, 0, 61, 42
2, 38664, Note_on_c, 0, 83, 35
2, 38696, Note_off_c, 0, 61, 0
2, 38712, Note_off_c, 0, 83, 0
2, 38744, Note_off_c, 0, 89, 0
2, 38760, Note_off_c, 0, 85, 0
2, 38764, Note_on_c, 0, 56, 57
2, 38776, Note_on_c, 0, 77, 66
2, 38788, Note_off_c, 0, 56, 0
2, 38804, Note_off_c, 0, 77, 0
2, 38896, Control_c, 0, 64, 24
2, 38908, Control_c, 0, 64, 0
2, 38912, Note_on_c, 0, 42, 73
2, 38916, Note_on_c, 0, 88, 77
2, 38932, Note_on_c, 0, 76, 57
2, 38964, Note_off_c, 0, 42, 0
2, 38980, Control_c, 0, 64, 72
2, 38996, Note_off_c, 0, 76, 0
2, 38996, Control_c, 0, 64, 127
2, 39016, Note_off_c, 0, 88, 0
2, 39052, Note_on_c, 0, 82, 51
2, 39064, Note_on_c, 0, 61, 53
2, 39096, Note_on_c, 0, 78, 22
2, 39116, Note_off_c, 0, 61, 0
2, 39136, Note_off_c, 0, 78, 0
2, 39160, Note_off_c, 0, 82, 0
2, 39192, Note_on_c, 0, 76, 58
2, 39204, Note_on_c, 0, 54, 37
2, 39244, Note_off_c, 0, 76, 0
2, 39288, Note_off_c, 0, 54, 0
2, 39328, Control_c, 0, 64, 104
2, 39340, Note_on_c, 0, 47, 62
2, 39340, Control_c, 0, 64, 24
2, 39344, Note_on_c, 0, 86, 74
2, 39352, Note_on_c, 0, 74, 61
2, 39352, Control_c, 0, 64, 0
2, 39392, Note_off_c, 0, 47, 0
2, 39416, Note_off_c, 0, 74, 0
2, 39416, Control_c, 0, 64, 40
2, 39428, Control_c, 0, 64, 127
2, 39436, Note_off_c, 0, 86, 0
2, 39472, Note_on_c, 0, 62, 44
2, 39484, Note_on_c, 0, 83, 60
2, 39484, Note_on_c, 0, 78, 46
2, 39540, Note_off_c, 0, 62, 0
2, 39584, Note_off_c, 0, 83, 0
2, 39584, Note_off_c, 0, 78, 0
2, 39600, Note_on_c, 0, 54, 58
2, 39608, Note_on_c, 0, 74, 74
2, 39620, Note_off_c, 0, 54, 0
2, 39628, Note_off_c, 0, 74, 0
2, 39740, Control_c, 0, 64, 72
2, 39752, Control_c, 0, 64, 0
2, 39776, Note_on_c, 0, 74, 92
2, 39780, Note_on_c, 0, 62, 74
2, 39796, Note_on_c, 0, 41, 56
2, 39824, Control_c, 0, 64, 88
2, 39836, Control_c, 0, 64, 127
2, 39848, Note_off_c, 0, 62, 0
2, 39860, Note_off_c, 0, 41, 0
2, 39896, Note_off_c, 0, 74, 0
2, 39920, Note_on_c, 0, 71, 67
2, 39920, Note_on_c, 0, 56, 60
2, 39924, Note_on_c, 0, 68, 52
2, 39972, Note_off_c, 0, 56, 0
2, 40016, Note_off_c, 0, 68, 0
2, 40040, Note_on_c, 0, 62, 66
2, 40060, Note_off_c, 0, 62, 0
2, 40068, Note_off_c, 0, 71, 0
2, 40068, Note_on_c, 0, 47, 60
2, 40108, Note_off_c, 0, 47, 0
2, 40220, Control_c, 0, 64, 72
2, 40224, Note_on_c, 0, 86, 93
2, 40232, Note_on_c, 0, 74, 80
2, 40232, Note_on_c, 0, 42, 57
2, 40232, Control_c, 0, 64, 0
2, 40320, Note_off_c, 0, 74, 0
2, 40320, Control_c, 0, 64, 127
2, 40368, Note_on_c, 0, 54, 51
2, 40380, Note_on_c, 0, 83, 63
2, 40388, Note_on_c, 0, 78, 51
2, 40460, Note_off_c, 0, 54, 0
2, 40496, Note_off_c, 0, 86, 0
2, 40500, Note_on_c, 0, 47, 59
2, 40512, Note_off_c, 0, 42, 0
2, 40520, Note_on_c, 0, 74, 66
2, 40544, Note_off_c, 0, 47, 0
2, 40568, Note_off_c, 0, 74, 0
2, 40604, Note_off_c, 0, 78, 0
2, 40612, Note_off_c, 0, 83, 0
2, 40660, Note_on_c, 0, 85, 88
2, 40672, Note_on_c, 0, 73, 60
2, 40700, Note_on_c, 0, 40, 54
2, 40744, Control_c, 0, 64, 104
2, 40756, Control_c, 0, 64, 0
2, 40788, Note_off_c, 0, 73, 0
2, 40820, Note_on_c, 0, 78, 26
2, 40828, Note_on_c, 0, 82, 47
2, 40832, Note_on_c, 0, 54, 36
2, 40840, Control_c, 0, 64, 40
2, 40852, Control_c, 0, 64, 104
2, 40868, Control_c, 0, 64, 127
2, 40916, Note_off_c, 0, 54, 0
2, 40936, Note_off_c, 0, 40, 0
2, 40952, Note_off_c, 0, 78, 0
2, 40956, Note_off_c, 0, 85, 0
2, 40964, Note_on_c, 0, 73, 53
2, 40972, Note_off_c, 0, 82, 0
2, 40980, Note_on_c, 0, 46, 42
2, 41004, Note_off_c, 0, 73, 0
2, 41044, Note_off_c, 0, 46, 0
2, 41144, Note_on_c, 0, 66, 74
2, 41144, Note_on_c, 0, 38, 48
2, 41176, Control_c, 0, 64, 40
2, 41188, Control_c, 0, 64, 0
2, 41204, Note_off_c, 0, 38, 0
2, 41240, Control_c, 0, 64, 72
2, 41252, Control_c, 0, 64, 127
2, 41304, Note_on_c, 0, 78, 68
2, 41304, Note_on_c, 0, 73, 67
2, 41304, Note_on_c, 0, 59, 46
2, 41328, Note_off_c, 0, 66, 0
2, 41384, Note_off_c, 0, 59, 0
2, 41408, Note_off_c, 0, 73, 0
2, 41432, Note_on_c, 0, 66, 64
2, 41432, Note_on_c, 0, 54, 60
2, 41444, Note_off_c, 0, 78, 0
2, 41500, Note_off_c, 0, 54, 0
2, 41536, Note_off_c, 0, 66, 0
2, 41560, Note_on_c, 0, 78, 75
2, 41572, Note_on_c, 0, 50, 58
2, 41580, Note_on_c, 0, 71, 71
2, 41656, Note_off_c, 0, 71, 0
2, 41680, Note_on_c, 0, 62, 51
2, 41684, Note_off_c, 0, 50, 0
2, 41688, Note_off_c, 0, 78, 0
2, 41696, Note_on_c, 0, 66, 67
2, 41764, Note_off_c, 0, 62, 0
2, 41792, Note_off_c, 0, 66, 0
2, 41828, Note_on_c, 0, 78, 79
2, 41840, Note_on_c, 0, 54, 55
2, 41848, Note_on_c, 0, 71, 63
2, 41892, Note_off_c, 0, 71, 0
2, 41916, Note_off_c, 0, 54, 0
2, 41928, Note_off_c, 0, 78, 0
2, 41968, Control_c, 0, 64, 88
2, 41980, Note_on_c, 0, 65, 82
2, 41980, Control_c, 0, 64, 0
2, 41992, Note_on_c, 0, 49, 55
2, 42068, Control_c, 0, 64, 56
2, 42084, Note_off_c, 0, 65, 0
2, 42084, Control_c, 0, 64, 127
2, 42108, Note_on_c, 0, 61, 34
2, 42112, Note_on_c, 0, 77, 77
2, 42112, Note_on_c, 0, 71, 61
2, 42172, Note_off_c, 0, 77, 0
2, 42172, Note_off_c, 0, 71, 0
2, 42196, Note_off_c, 0, 61, 0
2, 42224, Note_off_c, 0, 49, 0
2, 42224, Note_on_c, 0, 56, 35
2, 42244, Note_off_c, 0, 56, 0
2, 42244, Note_on_c, 0, 64, 82
2, 42336, Note_off_c, 0, 64, 0
2, 42344, Control_c, 0, 64, 72
2, 42356, Control_c, 0, 64, 0
2, 42376, Note_on_c, 0, 42, 62
2, 42388, Note_on_c, 0, 76, 82
2, 42392, Note_on_c, 0, 70, 69
2, 42416, Control_c, 0, 64, 40
2, 42428, Control_c, 0, 64, 127
2, 42432, Note_off_c, 0, 42, 0
2, 42476, Note_off_c, 0, 70, 0
2, 42484, Note_off_c, 0, 76, 0
2, 42524, Note_on_c, 0, 64, 75
2, 42528, Note_on_c, 0, 61, 60
2, 42604, Note_off_c, 0, 64, 0
2, 42612, Note_off_c, 0, 61, 0
2, 42660, Note_on_c, 0, 70, 69
2, 42664, Note_on_c, 0, 76, 70
2, 42688, Note_off_c, 0, 76, 0
2, 42732, Note_off_c, 0, 70, 0
2, 42808, Note_on_c, 0, 63, 77
2, 42812, Note_on_c, 0, 47, 65
2, 42812, Control_c, 0, 64, 56
2, 42824, Control_c, 0, 64, 0
2, 42900, Control_c, 0, 64, 72
2, 42908, Note_off_c, 0, 63, 0
2, 42912, Control_c, 0, 64, 127
2, 42936, Note_on_c, 0, 75, 77
2, 42952, Note_on_c, 0, 71, 64
2, 42952, Note_on_c, 0, 66, 45
2, 42952, Note_on_c, 0, 59, 42
2, 42980, Note_off_c, 0, 66, 0
2, 43004, Note_off_c, 0, 47, 0
2, 43012, Note_off_c, 0, 59, 0
2, 43020, Note_off_c, 0, 71, 0
2, 43020, Note_off_c, 0, 75, 0
2, 43064, Note_on_c, 0, 62, 81
2, 43072, Note_on_c, 0, 54, 59
2, 43092, Note_off_c, 0, 54, 0
2, 43152, Note_off_c, 0, 62, 0
2, 43212, Control_c, 0, 64, 56
2, 43224, Note_on_c, 0, 74, 85
2, 43224, Control_c, 0, 64, 0
2, 43236, Note_on_c, 0, 71, 74
2, 43240, Note_on_c, 0, 41, 67
2, 43240, Note_on_c, 0, 67, 74
2, 43280, Control_c, 0, 64, 40
2, 43296, Note_off_c, 0, 41, 0
2, 43296, Note_off_c, 0, 67, 0
2, 43296, Control_c, 0, 64, 104
2, 43308, Control_c, 0, 64, 127
2, 43332, Note_off_c, 0, 71, 0
2, 43336, Note_off_c, 0, 74, 0
2, 43368, Note_on_c, 0, 62, 72
2, 43372, Note_on_c, 0, 55, 51
2, 43416, Note_off_c, 0, 55, 0
2, 43440, Note_off_c, 0, 62, 0
2, 43500, Note_on_c, 0, 47, 63
2, 43504, Note_on_c, 0, 74, 74
2, 43508, Note_on_c, 0, 67, 66
2, 43512, Note_on_c, 0, 71, 60
2, 43524, Note_off_c, 0, 47, 0
2, 43564, Note_off_c, 0, 74, 0
2, 43576, Note_off_c, 0, 67, 0
2, 43592, Note_off_c, 0, 71, 0
2, 43644, Control_c, 0, 64, 24
2, 43656, Control_c, 0, 64, 0
2, 43660, Note_on_c, 0, 60, 86
2, 43664, Note_on_c, 0, 40, 66
2, 43716, Control_c, 0, 64, 88
2, 43728, Note_off_c, 0, 40, 0
2, 43728, Control_c, 0, 64, 127
2, 43792, Note_on_c, 0, 72, 83
2, 43800, Note_on_c, 0, 67, 68
2, 43812, Note_on_c, 0, 55, 22
2, 43824, Note_off_c, 0, 60, 0
2, 43852, Note_off_c, 0, 67, 0
2, 43856, Note_off_c, 0, 55, 0
2, 43868, Note_off_c, 0, 72, 0
2, 43928, Note_on_c, 0, 59, 83
2, 43940, Note_on_c, 0, 48, 60
2, 43964, Note_off_c, 0, 48, 0
2, 44044, Note_off_c, 0, 59, 0
2, 44068, Control_c, 0, 64, 72
2, 44072, Note_on_c, 0, 71, 86
2, 44076, Note_on_c, 0, 66, 71
2, 44080, Control_c, 0, 64, 0
2, 44084, Note_on_c, 0, 64, 74
2, 44084, Note_on_c, 0, 42, 69
2, 44148, Note_off_c, 0, 71, 0
2, 44152, Control_c, 0, 64, 104
2, 44156, Note_off_c, 0, 64, 0
2, 44164, Control_c, 0, 64, 127
2, 44180, Note_off_c, 0, 66, 0
2, 44208, Note_on_c, 0, 58, 79
2, 44224, Note_on_c, 0, 54, 64
2, 44304, Note_off_c, 0, 54, 0
2, 44328, Note_on_c, 0, 66, 65
2, 44336, Note_on_c, 0, 70, 80
2, 44340, Note_off_c, 0, 58, 0
2, 44340, Note_on_c, 0, 49, 58
2, 44348, Note_off_c, 0, 42, 0
2, 44360, Note_off_c, 0, 49, 0
2, 44372, Note_off_c, 0, 66, 0
2, 44380, Note_off_c, 0, 70, 0
2, 44476, Control_c, 0, 64, 0
2, 44588, Note_on_c, 0, 83, 91
2, 44592, Note_on_c, 0, 71, 80
2, 44592, Note_on_c, 0, 75, 80
2, 44608, Note_on_c, 0, 35, 79
2, 44612, Note_on_c, 0, 47, 82
2, 44656, Control_c, 0, 64, 127
2, 44668, Note_off_c, 0, 47, 0
2, 44672, Note_off_c, 0, 35, 0
2, 44684, Note_off_c, 0, 71, 0
2, 44700, Note_off_c, 0, 83, 0
2, 44724, Note_off_c, 0, 75, 0
2, 45112, Note_on_c, 0, 63, 85
2, 45124, Note_on_c, 0, 59, 75
2, 45132, Note_on_c, 0, 54, 76
2, 45132, Note_on_c, 0, 47, 76
2, 45188, Control_c, 0, 64, 24
2, 45200, Control_c, 0, 64, 0
2, 45300, Control_c, 0, 64, 56
2, 45312, Control_c, 0, 64, 127
2, 45420, Note_off_c, 0, 54, 0
2, 45448, Note_off_c, 0, 59, 0
2, 45520, Note_off_c, 0, 63, 0
2, 45560, Control_c, 0, 64, 72
2, 45564, Note_on_c, 0, 64, 81
2, 45572, Control_c, 0, 64, 0
2, 45580, Note_on_c, 0, 56, 68
2, 45584, Note_on_c, 0, 59, 38
2, 45616, Note_off_c, 0, 59, 0
2, 45636, Control_c, 0, 64, 24
2, 45648, Control_c, 0, 64, 104
2, 45660, Control_c, 0, 64, 127
2, 45664, Note_off_c, 0, 56, 0
2, 45676, Note_off_c, 0, 64, 0
2, 45692, Note_on_c, 0, 63, 78
2, 45700, Note_on_c, 0, 54, 67
2, 45776, Note_off_c, 0, 63, 0
2, 45776, Note_off_c, 0, 54, 0
2, 45820, Note_on_c, 0, 52, 62
2, 45824, Note_on_c, 0, 68, 81
2, 45828, Note_off_c, 0, 47, 0
2, 45828, Note_on_c, 0, 58, 51
2, 45892, Note_off_c, 0, 58, 0
2, 45916, Note_off_c, 0, 68, 0
2, 45920, Note_off_c, 0, 52, 0
2, 45932, Control_c, 0, 64, 72
2, 45944, Control_c, 0, 64, 0
2, 45980, Note_on_c, 0, 59, 71
2, 45980, Note_on_c, 0, 66, 79
2, 45980, Note_on_c, 0, 51, 75
2, 46020, Control_c, 0, 64, 88
2, 46032, Control_c, 0, 64, 127
2, 46036, Note_off_c, 0, 51, 64
2, 46052, Note_off_c, 0, 59, 0
2, 46072, Note_off_c, 0, 66, 0
2, 46080, Control_c, 0, 64, 88
2, 46096, Control_c, 0, 64, 0
2, 46288, Note_on_c, 0, 59, 86
2, 46292, Note_on_c, 0, 53, 77
2, 46300, Note_on_c, 0, 46, 72
2, 46300, Note_on_c, 0, 49, 62
2, 46320, Note_off_c, 0, 46, 0
2, 46328, Note_off_c, 0, 49, 0
2, 46344, Note_off_c, 0, 53, 0
2, 46388, Note_off_c, 0, 59, 0
2, 46456, Note_on_c, 0, 61, 86
2, 46464, Note_on_c, 0, 52, 82
2, 46464, Note_on_c, 0, 59, 83
2, 46472, Note_on_c, 0, 42, 85
2, 46480, Note_on_c, 0, 30, 71
2, 46548, Note_off_c, 0, 52, 0
2, 46564, Control_c, 0, 64, 127
2, 46572, Note_off_c, 0, 59, 0
2, 46612, Note_off_c, 0, 61, 0
2, 46624, Note_off_c, 0, 42, 0
2, 46632, Note_off_c, 0, 30, 0
2, 46944, Note_on_c, 0, 92, 77
2, 46952, Note_on_c, 0, 58, 83
2, 46952, Control_c, 0, 64, 88
2, 46960, Note_on_c, 0, 49, 60
2, 46964, Note_on_c, 0, 52, 64
2, 46964, Control_c, 0, 64, 0
2, 46976, Note_on_c, 0, 54, 47
2, 46996, Note_off_c, 0, 54, 0
2, 47032, Note_on_c, 0, 90, 69
2, 47048, Control_c, 0, 64, 40
2, 47060, Control_c, 0, 64, 88
2, 47064, Note_off_c, 0, 92, 0
2, 47072, Control_c, 0, 64, 127
2, 47104, Note_off_c, 0, 90, 0
2, 47108, Note_on_c, 0, 88, 72
2, 47156, Note_off_c, 0, 88, 0
2, 47172, Note_on_c, 0, 87, 70
2, 47244, Note_on_c, 0, 85, 69
2, 47256, Note_off_c, 0, 52, 0
2, 47268, Note_off_c, 0, 58, 0
2, 47280, Note_off_c, 0, 87, 0
2, 47288, Note_off_c, 0, 49, 0
2, 47308, Note_off_c, 0, 85, 0
2, 47316, Note_on_c, 0, 83, 72
2, 47372, Note_off_c, 0, 83, 0
2, 47396, Note_on_c, 0, 82, 58
2, 47408, Note_on_c, 0, 59, 84
2, 47408, Control_c, 0, 64, 104
2, 47420, Note_on_c, 0, 54, 58
2, 47424, Note_on_c, 0, 49, 25
2, 47424, Note_on_c, 0, 52, 59
2, 47424, Control_c, 0, 64, 56
2, 47432, Control_c, 0, 64, 0
2, 47460, Note_off_c, 0, 49, 0
2, 47480, Note_on_c, 0, 80, 60
2, 47488, Note_off_c, 0, 82, 0
2, 47520, Control_c, 0, 64, 56
2, 47532, Control_c, 0, 64, 127
2, 47556, Note_on_c, 0, 78, 63
2, 47588, Note_off_c, 0, 52, 64
2, 47588, Note_off_c, 0, 80, 64
2, 47608, Note_off_c, 0, 54, 64
2, 47612, Note_off_c, 0, 78, 0
2, 47620, Note_off_c, 0, 59, 64
2, 47632, Note_on_c, 0, 76, 63
2, 47688, Note_off_c, 0, 76, 0
2, 47696, Note_on_c, 0, 75, 65
2, 47772, Note_off_c, 0, 75, 0
2, 47776, Note_on_c, 0, 73, 63
2, 47840, Note_off_c, 0, 73, 0
2, 47864, Note_on_c, 0, 71, 56
2, 47864, Note_on_c, 0, 63, 85
2, 47868, Note_on_c, 0, 52, 52
2, 47868, Control_c, 0, 64, 88
2, 47876, Note_on_c, 0, 54, 53
2, 47880, Control_c, 0, 64, 24
2, 47892, Control_c, 0, 64, 0
2, 47920, Note_off_c, 0, 71, 0
2, 47940, Note_on_c, 0, 70, 53
2, 47976, Control_c, 0, 64, 40
2, 47992, Control_c, 0, 64, 88
2, 48004, Control_c, 0, 64, 127
2, 48008, Note_off_c, 0, 70, 0
2, 48008, Note_on_c, 0, 68, 64
2, 48080, Note_off_c, 0, 63, 0
2, 48084, Note_off_c, 0, 68, 0
2, 48088, Note_on_c, 0, 66, 59
2, 48100, Control_c, 0, 64, 104
2, 48112, Control_c, 0, 64, 40
2, 48124, Control_c, 0, 64, 0
2, 48136, Note_off_c, 0, 66, 0
2, 48156, Note_on_c, 0, 65, 67
2, 48156, Note_on_c, 0, 61, 85
2, 48160, Note_off_c, 0, 52, 0
2, 48176, Control_c, 0, 64, 40
2, 48188, Control_c, 0, 64, 72
2, 48192, Note_off_c, 0, 54, 0
2, 48200, Control_c, 0, 64, 127
2, 48204, Note_off_c, 0, 61, 0
2, 48216, Note_off_c, 0, 65, 0
2, 48232, Note_on_c, 0, 64, 70
2, 48312, Note_off_c, 0, 64, 0
2, 48348, Note_on_c, 0, 63, 82
2, 48364, Control_c, 0, 64, 104
2, 48376, Control_c, 0, 64, 72
2, 48380, Note_on_c, 0, 54, 54
2, 48380, Note_on_c, 0, 59, 55
2, 48388, Control_c, 0, 64, 24
2, 48392, Note_on_c, 0, 47, 57
2, 48400, Control_c, 0, 64, 0
2, 48600, Control_c, 0, 64, 56
2, 48612, Control_c, 0, 64, 104
2, 48616, Note_off_c, 0, 59, 0
2, 48616, Note_off_c, 0, 47, 0
2, 48624, Control_c, 0, 64, 127
2, 48632, Note_off_c, 0, 54, 0
2, 48756, Note_off_c, 0, 63, 0
2, 48852, Note_on_c, 0, 65, 85
2, 48852, Note_on_c, 0, 56, 57
2, 48852, Note_on_c, 0, 46, 52
2, 48852, Note_on_c, 0, 62, 60
2, 48884, Note_off_c, 0, 62, 0
2, 48884, Control_c, 0, 64, 56
2, 48896, Control_c, 0, 64, 0
2, 49020, Control_c, 0, 64, 40
2, 49032, Note_off_c, 0, 46, 64
2, 49032, Control_c, 0, 64, 88
2, 49044, Note_off_c, 0, 65, 64
2, 49044, Control_c, 0, 64, 127
2, 49064, Note_off_c, 0, 56, 64
2, 49256, Control_c, 0, 64, 56
2, 49268, Control_c, 0, 64, 0
2, 49292, Note_on_c, 0, 68, 81
2, 49292, Note_on_c, 0, 51, 54
2, 49292, Note_on_c, 0, 59, 58
2, 49292, Note_on_c, 0, 63, 59
2, 49368, Control_c, 0, 64, 24
2, 49380, Control_c, 0, 64, 56
2, 49392, Control_c, 0, 64, 72
2, 49408, Note_off_c, 0, 59, 0
2, 49420, Note_off_c, 0, 63, 0
2, 49428, Control_c, 0, 64, 56
2, 49436, Note_off_c, 0, 68, 0
2, 49440, Note_on_c, 0, 58, 63
2, 49444, Note_on_c, 0, 66, 78
2, 49476, Control_c, 0, 64, 72
2, 49536, Note_off_c, 0, 58, 0
2, 49560, Note_off_c, 0, 66, 0
2, 49564, Control_c, 0, 64, 40
2, 49572, Note_on_c, 0, 56, 55
2, 49580, Note_on_c, 0, 71, 84
2, 49584, Note_on_c, 0, 62, 70
2, 49592, Control_c, 0, 64, 24
2, 49604, Control_c, 0, 64, 0
2, 49636, Note_off_c, 0, 62, 0
2, 49680, Note_off_c, 0, 71, 0
2, 49688, Note_off_c, 0, 56, 0
2, 49720, Note_on_c, 0, 54, 65
2, 49728, Note_on_c, 0, 70, 81
2, 49732, Note_on_c, 0, 63, 69
2, 49740, Note_off_c, 0, 51, 0
2, 49788, Note_off_c, 0, 63, 0
2, 49796, Note_off_c, 0, 54, 0
2, 49800, Note_off_c, 0, 70, 0
2, 49800, Control_c, 0, 64, 40
2, 49816, Control_c, 0, 64, 88
2, 49828, Control_c, 0, 64, 127
2, 49876, Control_c, 0, 64, 104
2, 49888, Control_c, 0, 64, 72
2, 49900, Control_c, 0, 64, 24
2, 49912, Control_c, 0, 64, 0
2, 50044, Note_on_c, 0, 63, 85
2, 50044, Note_on_c, 0, 53, 80
2, 50044, Note_on_c, 0, 35, 77
2, 50044, Note_on_c, 0, 47, 87
2, 50044, Note_on_c, 0, 57, 65
2, 50048, Control_c, 0, 64, 40
2, 50064, Control_c, 0, 64, 104
2, 50076, Control_c, 0, 64, 127
2, 50088, Note_off_c, 0, 35, 0
2, 50088, Note_off_c, 0, 47, 0
2, 50116, Note_off_c, 0, 53, 0
2, 50120, Note_off_c, 0, 57, 0
2, 50160, Note_off_c, 0, 63, 0
2, 50172, Control_c, 0, 64, 104
2, 50184, Control_c, 0, 64, 72
2, 50196, Control_c, 0, 64, 24
2, 50208, Note_on_c, 0, 65, 83
2, 50208, Note_on_c, 0, 34, 77
2, 50208, Note_on_c, 0, 46, 85
2, 50208, Note_on_c, 0, 63, 53
2, 50208, Note_on_c, 0, 53, 74
2, 50208, Note_on_c, 0, 58, 64
2, 50212, Control_c, 0, 64, 0
2, 50320, Note_off_c, 0, 53, 0
2, 50336, Note_off_c, 0, 34, 0
2, 50336, Control_c, 0, 64, 56
2, 50348, Note_off_c, 0, 58, 0
2, 50348, Control_c, 0, 64, 127
2, 50372, Note_off_c, 0, 46, 0
2, 50376, Note_off_c, 0, 63, 0
2, 50384, Note_off_c, 0, 65, 0
2, 50708, Note_on_c, 0, 95, 88
2, 50716, Note_on_c, 0, 62, 78
2, 50716, Note_on_c, 0, 56, 59
2, 50716, Note_on_c, 0, 58, 58
2, 50720, Control_c, 0, 64, 88
2, 50732, Note_on_c, 0, 53, 48
2, 50732, Control_c, 0, 64, 0
2, 50792, Note_on_c, 0, 94, 80
2, 50804, Note_off_c, 0, 95, 0
2, 50816, Control_c, 0, 64, 56
2, 50828, Control_c, 0, 64, 104
2, 50840, Control_c, 0, 64, 127
2, 50872, Note_on_c, 0, 92, 85
2, 50904, Note_off_c, 0, 94, 0
2, 50940, Note_off_c, 0, 53, 0
2, 50964, Note_off_c, 0, 62, 0
2, 50964, Note_on_c, 0, 90, 71
2, 50984, Note_off_c, 0, 56, 0
2, 50984, Note_off_c, 0, 58, 0
2, 50996, Note_off_c, 0, 92, 0
2, 51024, Note_off_c, 0, 90, 0
2, 51028, Note_on_c, 0, 89, 78
2, 51076, Note_off_c, 0, 89, 0
2, 51096, Note_on_c, 0, 87, 73
2, 51180, Note_on_c, 0, 86, 82
2, 51188, Note_on_c, 0, 63, 78
2, 51188, Note_on_c, 0, 58, 38
2, 51188, Note_on_c, 0, 53, 35
2, 51188, Note_on_c, 0, 56, 38
2, 51204, Control_c, 0, 64, 88
2, 51216, Control_c, 0, 64, 40
2, 51228, Note_off_c, 0, 86, 0
2, 51228, Control_c, 0, 64, 0
2, 51236, Note_off_c, 0, 87, 0
2, 51252, Note_on_c, 0, 83, 68
2, 51304, Note_off_c, 0, 83, 0
2, 51324, Note_on_c, 0, 82, 70
2, 51328, Control_c, 0, 64, 56
2, 51340, Note_off_c, 0, 53, 0
2, 51340, Control_c, 0, 64, 104
2, 51352, Control_c, 0, 64, 127
2, 51376, Note_off_c, 0, 58, 0
2, 51384, Note_off_c, 0, 56, 0
2, 51400, Note_on_c, 0, 80, 77
2, 51424, Note_off_c, 0, 82, 0
2, 51436, Note_off_c, 0, 63, 0
2, 51472, Note_on_c, 0, 78, 71
2, 51512, Note_off_c, 0, 80, 0
2, 51536, Note_off_c, 0, 78, 0
2, 51544, Note_on_c, 0, 77, 75
2, 51608, Note_off_c, 0, 77, 0
2, 51612, Control_c, 0, 64, 104
2, 51616, Note_on_c, 0, 75, 74
2, 51616, Note_on_c, 0, 58, 50
2, 51616, Note_on_c, 0, 62, 60
2, 51616, Note_on_c, 0, 56, 45
2, 51616, Note_on_c, 0, 66, 83
2, 51624, Control_c, 0, 64, 56
2, 51636, Control_c, 0, 64, 0
2, 51708, Note_on_c, 0, 74, 68
2, 51708, Control_c, 0, 64, 40
2, 51724, Control_c, 0, 64, 88
2, 51728, Note_off_c, 0, 74, 0
2, 51736, Control_c, 0, 64, 127
2, 51748, Note_off_c, 0, 75, 0
2, 51764, Note_on_c, 0, 71, 66
2, 51808, Note_off_c, 0, 66, 0
2, 51820, Note_off_c, 0, 71, 0
2, 51840, Note_on_c, 0, 70, 67
2, 51904, Note_off_c, 0, 62, 0
2, 51920, Note_on_c, 0, 69, 70
2, 51920, Note_on_c, 0, 65, 71
2, 51924, Note_off_c, 0, 58, 0
2, 51928, Note_off_c, 0, 70, 0
2, 51936, Note_off_c, 0, 56, 0
2, 51980, Note_off_c, 0, 69, 0
2, 51980, Note_off_c, 0, 65, 0
2, 51996, Note_on_c, 0, 68, 77
2, 52072, Note_off_c, 0, 68, 0
2, 52084, Control_c, 0, 64, 88
2, 52096, Control_c, 0, 64, 40
2, 52100, Note_on_c, 0, 67, 82
2, 52104, Note_on_c, 0, 58, 46
2, 52108, Note_on_c, 0, 51, 53
2, 52108, Control_c, 0, 64, 0
2, 52256, Control_c, 0, 64, 40
2, 52268, Control_c, 0, 64, 72
2, 52272, Note_off_c, 0, 67, 0
2, 52276, Note_off_c, 0, 51, 0
2, 52280, Control_c, 0, 64, 104
2, 52288, Note_off_c, 0, 58, 0
2, 52328, Control_c, 0, 64, 56
2, 52340, Control_c, 0, 64, 24
2, 52356, Control_c, 0, 64, 0
2, 52404, Control_c, 0, 64, 24
2, 52412, Note_on_c, 0, 75, 74
2, 52416, Note_on_c, 0, 58, 49
2, 52416, Note_on_c, 0, 67, 62
2, 52416, Control_c, 0, 64, 72
2, 52424, Note_on_c, 0, 51, 47
2, 52428, Control_c, 0, 64, 127
2, 52488, Note_off_c, 0, 67, 0
2, 52508, Note_off_c, 0, 58, 0
2, 52520, Note_off_c, 0, 75, 0
2, 52544, Note_off_c, 0, 51, 0
2, 52568, Note_on_c, 0, 76, 79
2, 52572, Note_on_c, 0, 50, 63
2, 52584, Note_on_c, 0, 68, 56
2, 52616, Control_c, 0, 64, 104
2, 52628, Note_off_c, 0, 68, 0
2, 52648, Note_off_c, 0, 76, 0
2, 52656, Note_off_c, 0, 50, 0
2, 52680, Control_c, 0, 64, 88
2, 52692, Control_c, 0, 64, 72
2, 52704, Control_c, 0, 64, 40
2, 52708, Note_on_c, 0, 75, 77
2, 52716, Note_on_c, 0, 67, 59
2, 52716, Note_on_c, 0, 51, 55
2, 52716, Control_c, 0, 64, 24
2, 52728, Control_c, 0, 64, 0
2, 52772, Note_off_c, 0, 67, 0
2, 52776, Control_c, 0, 64, 24
2, 52788, Control_c, 0, 64, 40
2, 52800, Note_off_c, 0, 75, 0
2, 52800, Control_c, 0, 64, 56
2, 52812, Control_c, 0, 64, 72
2, 52852, Note_on_c, 0, 59, 51
2, 52864, Control_c, 0, 64, 40
2, 52872, Note_on_c, 0, 74, 70
2, 52876, Control_c, 0, 64, 24
2, 52880, Note_on_c, 0, 68, 54
2, 52888, Control_c, 0, 64, 0
2, 52944, Note_off_c, 0, 68, 0
2, 52948, Note_off_c, 0, 59, 0
2, 52980, Note_off_c, 0, 74, 0
2, 53016, Note_on_c, 0, 75, 67
2, 53032, Note_on_c, 0, 67, 43
2, 53036, Note_on_c, 0, 58, 45
2, 53168, Note_off_c, 0, 58, 0
2, 53172, Note_off_c, 0, 67, 0
2, 53184, Control_c, 0, 64, 24
2, 53188, Note_off_c, 0, 75, 0
2, 53196, Note_off_c, 0, 51, 0
2, 53200, Control_c, 0, 64, 56
2, 53208, Control_c, 0, 64, 88
2, 53224, Control_c, 0, 64, 127
2, 53336, Control_c, 0, 64, 104
2, 53344, Note_on_c, 0, 75, 70
2, 53348, Control_c, 0, 64, 40
2, 53352, Note_on_c, 0, 58, 57
2, 53356, Note_on_c, 0, 67, 51
2, 53360, Control_c, 0, 64, 0
2, 53364, Note_on_c, 0, 51, 57
2, 53444, Control_c, 0, 64, 24
2, 53456, Note_off_c, 0, 75, 0
2, 53460, Control_c, 0, 64, 40
2, 53472, Control_c, 0, 64, 56
2, 53476, Note_off_c, 0, 67, 0
2, 53492, Note_off_c, 0, 51, 0
2, 53504, Note_on_c, 0, 76, 72
2, 53512, Note_on_c, 0, 50, 62
2, 53512, Note_on_c, 0, 68, 51
2, 53520, Control_c, 0, 64, 72
2, 53576, Note_off_c, 0, 76, 0
2, 53588, Note_off_c, 0, 68, 0
2, 53636, Note_on_c, 0, 75, 72
2, 53644, Note_off_c, 0, 50, 64
2, 53644, Note_on_c, 0, 67, 61
2, 53656, Note_on_c, 0, 51, 60
2, 53676, Note_off_c, 0, 58, 64
2, 53680, Control_c, 0, 64, 88
2, 53708, Note_off_c, 0, 67, 0
2, 53720, Note_off_c, 0, 75, 0
2, 53744, Control_c, 0, 64, 40
2, 53756, Control_c, 0, 64, 0
2, 53784, Note_on_c, 0, 74, 73
2, 53784, Note_on_c, 0, 68, 50
2, 53800, Note_on_c, 0, 59, 49
2, 53836, Note_off_c, 0, 68, 0
2, 53840, Note_off_c, 0, 59, 0
2, 53856, Control_c, 0, 64, 24
2, 53908, Note_off_c, 0, 74, 0
2, 53916, Control_c, 0, 64, 0
2, 53944, Note_on_c, 0, 75, 68
2, 53964, Note_on_c, 0, 67, 40
2, 53968, Note_on_c, 0, 58, 34
2, 54088, Note_off_c, 0, 51, 0
2, 54096, Note_off_c, 0, 58, 0
2, 54104, Note_off_c, 0, 67, 0
2, 54172, Note_off_c, 0, 75, 0
2, 54280, Note_on_c, 0, 74, 65
2, 54280, Note_on_c, 0, 64, 49
2, 54284, Note_on_c, 0, 68, 40
2, 54388, Note_off_c, 0, 68, 0
2, 54444, Note_off_c, 0, 64, 0
2, 54448, Note_off_c, 0, 74, 0
2, 54460, Note_on_c, 0, 75, 60
2, 54460, Note_on_c, 0, 63, 47
2, 54484, Note_on_c, 0, 67, 44
2, 54604, Note_off_c, 0, 63, 0
2, 54636, Note_off_c, 0, 67, 0
2, 54644, Note_off_c, 0, 75, 0
2, 54772, Note_on_c, 0, 59, 56
2, 54780, Note_on_c, 0, 74, 65
2, 54784, Note_on_c, 0, 68, 37
2, 54892, Note_off_c, 0, 68, 0
2, 54932, Note_off_c, 0, 74, 0
2, 54932, Note_on_c, 0, 75, 79
2, 54940, Note_on_c, 0, 51, 52
2, 54944, Note_on_c, 0, 58, 46
2, 54948, Note_on_c, 0, 67, 54
2, 54952, Note_off_c, 0, 59, 0
2, 55048, Note_off_c, 0, 67, 0
2, 55056, Note_off_c, 0, 75, 0
2, 55076, Note_off_c, 0, 58, 0
2, 55080, Note_on_c, 0, 74, 79
2, 55080, Note_on_c, 0, 68, 57
2, 55084, Note_on_c, 0, 59, 66
2, 55148, Note_off_c, 0, 68, 0
2, 55204, Note_off_c, 0, 59, 64
2, 55212, Note_on_c, 0, 75, 78
2, 55216, Note_off_c, 0, 74, 64
2, 55224, Note_on_c, 0, 58, 55
2, 55236, Note_on_c, 0, 67, 66
2, 55316, Note_off_c, 0, 67, 0
2, 55316, Note_off_c, 0, 75, 0
2, 55336, Note_off_c, 0, 58, 0
2, 55372, Note_on_c, 0, 74, 71
2, 55372, Note_on_c, 0, 59, 55
2, 55380, Note_on_c, 0, 68, 48
2, 55432, Note_off_c, 0, 68, 0
2, 55488, Note_off_c, 0, 59, 0
2, 55492, Note_off_c, 0, 74, 0
2, 55508, Note_on_c, 0, 58, 46
2, 55508, Note_on_c, 0, 75, 64
2, 55520, Note_on_c, 0, 67, 55
2, 55580, Note_off_c, 0, 75, 0
2, 55584, Note_off_c, 0, 67, 0
2, 55600, Note_off_c, 0, 58, 0
2, 55644, Note_on_c, 0, 59, 44
2, 55652, Note_on_c, 0, 74, 64
2, 55652, Note_on_c, 0, 68, 39
2, 55684, Note_off_c, 0, 68, 0
2, 55740, Note_off_c, 0, 59, 0
2, 55756, Note_off_c, 0, 74, 0
2, 55812, Note_on_c, 0, 58, 35
2, 55812, Note_on_c, 0, 67, 49
2, 55812, Note_on_c, 0, 75, 60
2, 55936, Note_off_c, 0, 67, 0
2, 55972, Note_off_c, 0, 51, 64
2, 56004, Note_off_c, 0, 58, 0
2, 56016, Note_off_c, 0, 75, 0
2, 56248, Note_on_c, 0, 92, 82
2, 56264, Note_on_c, 0, 66, 64
2, 56272, Note_on_c, 0, 60, 59
2, 56272, Note_on_c, 0, 56, 44
2, 56296, Control_c, 0, 64, 40
2, 56308, Note_off_c, 0, 92, 0
2, 56308, Control_c, 0, 64, 88
2, 56324, Control_c, 0, 64, 127
2, 56328, Note_off_c, 0, 66, 0
2, 56328, Note_off_c, 0, 60, 0
2, 56328, Note_on_c, 0, 93, 80
2, 56348, Note_off_c, 0, 56, 0
2, 56392, Note_on_c, 0, 92, 76
2, 56400, Note_off_c, 0, 93, 0
2, 56476, Note_on_c, 0, 90, 57
2, 56484, Control_c, 0, 64, 104
2, 56496, Control_c, 0, 64, 88
2, 56504, Note_off_c, 0, 92, 0
2, 56508, Control_c, 0, 64, 56
2, 56520, Control_c, 0, 64, 40
2, 56528, Note_off_c, 0, 90, 0
2, 56532, Control_c, 0, 64, 0
2, 56540, Note_on_c, 0, 88, 68
2, 56596, Note_off_c, 0, 88, 0
2, 56600, Note_on_c, 0, 49, 52
2, 56608, Note_on_c, 0, 87, 62
2, 56640, Note_on_c, 0, 56, 48
2, 56660, Note_off_c, 0, 49, 0
2, 56668, Control_c, 0, 64, 40
2, 56676, Note_off_c, 0, 87, 0
2, 56680, Note_on_c, 0, 85, 73
2, 56684, Control_c, 0, 64, 88
2, 56696, Note_on_c, 0, 64, 66
2, 56696, Control_c, 0, 64, 127
2, 56712, Note_off_c, 0, 56, 64
2, 56764, Note_off_c, 0, 85, 64
2, 56768, Note_on_c, 0, 87, 71
2, 56840, Note_on_c, 0, 85, 67
2, 56860, Note_off_c, 0, 87, 0
2, 56876, Note_off_c, 0, 64, 64
2, 56892, Note_off_c, 0, 85, 0
2, 56904, Note_on_c, 0, 83, 40
2, 56948, Note_off_c, 0, 83, 0
2, 56968, Note_on_c, 0, 82, 65
2, 57016, Control_c, 0, 64, 104
2, 57032, Control_c, 0, 64, 88
2, 57044, Note_on_c, 0, 80, 69
2, 57044, Control_c, 0, 64, 56
2, 57056, Note_off_c, 0, 82, 0
2, 57056, Control_c, 0, 64, 24
2, 57068, Control_c, 0, 64, 0
2, 57096, Note_off_c, 0, 80, 0
2, 57108, Note_on_c, 0, 79, 66
2, 57108, Note_on_c, 0, 64, 67
2, 57112, Note_on_c, 0, 58, 41
2, 57132, Note_on_c, 0, 54, 42
2, 57140, Control_c, 0, 64, 40
2, 57152, Control_c, 0, 64, 88
2, 57164, Control_c, 0, 64, 127
2, 57168, Note_on_c, 0, 80, 71
2, 57176, Note_off_c, 0, 79, 0
2, 57176, Note_off_c, 0, 64, 0
2, 57184, Note_off_c, 0, 58, 0
2, 57212, Note_off_c, 0, 54, 0
2, 57240, Note_on_c, 0, 78, 64
2, 57260, Note_off_c, 0, 80, 0
2, 57292, Note_off_c, 0, 78, 0
2, 57304, Note_on_c, 0, 76, 66
2, 57352, Control_c, 0, 64, 104
2, 57364, Note_off_c, 0, 76, 0
2, 57364, Control_c, 0, 64, 72
2, 57368, Note_on_c, 0, 75, 71
2, 57376, Control_c, 0, 64, 24
2, 57388, Control_c, 0, 64, 0
2, 57420, Note_off_c, 0, 75, 0
2, 57436, Note_on_c, 0, 73, 76
2, 57452, Note_on_c, 0, 47, 58
2, 57484, Note_on_c, 0, 54, 62
2, 57488, Note_off_c, 0, 47, 0
2, 57508, Note_off_c, 0, 73, 0
2, 57536, Note_off_c, 0, 54, 0
2, 57536, Note_on_c, 0, 75, 71
2, 57540, Control_c, 0, 64, 40
2, 57552, Note_on_c, 0, 63, 85
2, 57552, Control_c, 0, 64, 104
2, 57564, Control_c, 0, 64, 127
2, 57584, Note_off_c, 0, 63, 0
2, 57596, Note_off_c, 0, 75, 0
2, 57612, Note_on_c, 0, 76, 73
2, 57680, Note_on_c, 0, 75, 64
2, 57692, Note_off_c, 0, 76, 0
2, 57744, Note_on_c, 0, 73, 54
2, 57764, Note_off_c, 0, 75, 0
2, 57792, Note_off_c, 0, 73, 0
2, 57808, Note_on_c, 0, 71, 70
2, 57872, Note_off_c, 0, 71, 0
2, 57872, Note_on_c, 0, 70, 63
2, 57872, Control_c, 0, 64, 104
2, 57884, Control_c, 0, 64, 88
2, 57900, Control_c, 0, 64, 56
2, 57912, Control_c, 0, 64, 40
2, 57924, Control_c, 0, 64, 0
2, 57952, Note_on_c, 0, 68, 71
2, 57956, Note_off_c, 0, 70, 0
2, 57964, Note_on_c, 0, 63, 90
2, 57968, Note_on_c, 0, 53, 74
2, 57968, Note_on_c, 0, 56, 70
2, 58020, Control_c, 0, 64, 40
2, 58028, Note_off_c, 0, 68, 0
2, 58032, Control_c, 0, 64, 88
2, 58036, Note_on_c, 0, 70, 67
2, 58044, Control_c, 0, 64, 127
2, 58116, Note_on_c, 0, 68, 73
2, 58136, Note_off_c, 0, 63, 0
2, 58136, Note_off_c, 0, 70, 0
2, 58148, Note_off_c, 0, 53, 0
2, 58160, Note_off_c, 0, 56, 0
2, 58188, Note_on_c, 0, 66, 60
2, 58216, Note_off_c, 0, 68, 0
2, 58248, Note_off_c, 0, 66, 64
2, 58260, Note_on_c, 0, 65, 64
2, 58320, Note_on_c, 0, 63, 73
2, 58324, Note_off_c, 0, 65, 0
2, 58332, Control_c, 0, 64, 104
2, 58344, Control_c, 0, 64, 72
2, 58356, Control_c, 0, 64, 40
2, 58368, Control_c, 0, 64, 0
2, 58396, Note_on_c, 0, 62, 97
2, 58404, Note_off_c, 0, 63, 0
2, 58408, Note_on_c, 0, 56, 74
2, 58412, Note_on_c, 0, 46, 70
2, 58416, Note_on_c, 0, 53, 71
2, 58472, Note_off_c, 0, 62, 0
2, 58492, Control_c, 0, 64, 72
2, 58496, Note_on_c, 0, 59, 61
2, 58504, Note_on_c, 0, 60, 38
2, 58504, Control_c, 0, 64, 127
2, 58512, Note_off_c, 0, 53, 0
2, 58524, Note_off_c, 0, 56, 0
2, 58528, Note_off_c, 0, 60, 0
2, 58544, Note_off_c, 0, 46, 0
2, 58560, Note_off_c, 0, 59, 0
2, 58576, Note_on_c, 0, 58, 69
2, 58652, Note_on_c, 0, 56, 71
2, 58672, Note_off_c, 0, 58, 0
2, 58716, Note_on_c, 0, 54, 59
2, 58744, Note_off_c, 0, 56, 0
2, 58776, Note_off_c, 0, 54, 0
2, 58780, Note_on_c, 0, 53, 78
2, 58828, Control_c, 0, 64, 104
2, 58840, Control_c, 0, 64, 0
2, 58848, Note_off_c, 0, 53, 0
2, 58848, Note_on_c, 0, 51, 81
2, 58856, Note_on_c, 0, 34, 93
2, 58912, Control_c, 0, 64, 88
2, 58920, Note_off_c, 0, 34, 0
2, 58924, Control_c, 0, 64, 127
2, 58944, Note_on_c, 0, 50, 68
2, 58964, Note_off_c, 0, 50, 0
2, 58968, Note_off_c, 0, 51, 0
2, 58988, Note_on_c, 0, 47, 60
2, 59048, Note_off_c, 0, 47, 0
2, 59060, Note_on_c, 0, 46, 82
2, 59104, Note_off_c, 0, 46, 0
2, 59136, Note_on_c, 0, 41, 82
2, 59196, Note_on_c, 0, 46, 79
2, 59200, Note_off_c, 0, 41, 0
2, 59268, Note_off_c, 0, 46, 0
2, 59288, Control_c, 0, 64, 40
2, 59300, Control_c, 0, 64, 0
2, 59308, Note_on_c, 0, 39, 93
2, 59328, Note_on_c, 0, 27, 91
2, 59376, Note_off_c, 0, 39, 0
2, 59380, Note_off_c, 0, 27, 0
2, 59384, Control_c, 0, 64, 72
2, 59396, Control_c, 0, 64, 127
2, 59732, Control_c, 0, 64, 88
2, 59744, Control_c, 0, 64, 40
2, 59756, Control_c, 0, 64, 0
2, 59796, Note_on_c, 0, 66, 88
2, 59804, Note_on_c, 0, 63, 74
2, 59816, Note_on_c, 0, 51, 77
2, 59816, Note_on_c, 0, 58, 71
2, 59852, Note_off_c, 0, 63, 0
2, 59884, Control_c, 0, 64, 104
2, 59896, Control_c, 0, 64, 127
2, 59908, Note_on_c, 0, 63, 19
2, 60004, Note_off_c, 0, 63, 0
2, 60064, Note_off_c, 0, 58, 0
2, 60184, Note_off_c, 0, 66, 0
2, 60216, Control_c, 0, 64, 88
2, 60228, Control_c, 0, 64, 0
2, 60240, Note_on_c, 0, 68, 74
2, 60252, Note_on_c, 0, 59, 69
2, 60256, Note_on_c, 0, 62, 68
2, 60316, Control_c, 0, 64, 24
2, 60324, Note_off_c, 0, 62, 0
2, 60328, Note_off_c, 0, 59, 0
2, 60328, Control_c, 0, 64, 88
2, 60340, Control_c, 0, 64, 127
2, 60356, Note_off_c, 0, 68, 0
2, 60372, Note_on_c, 0, 66, 78
2, 60388, Note_on_c, 0, 58, 62
2, 60404, Note_on_c, 0, 63, 46
2, 60444, Note_off_c, 0, 63, 0
2, 60476, Note_off_c, 0, 58, 0
2, 60480, Note_off_c, 0, 66, 0
2, 60500, Control_c, 0, 64, 88
2, 60512, Note_on_c, 0, 56, 65
2, 60516, Control_c, 0, 64, 72
2, 60520, Note_on_c, 0, 71, 82
2, 60528, Control_c, 0, 64, 40
2, 60532, Note_on_c, 0, 62, 70
2, 60540, Control_c, 0, 64, 0
2, 60584, Note_off_c, 0, 62, 0
2, 60632, Note_off_c, 0, 56, 0
2, 60640, Note_off_c, 0, 71, 0
2, 60660, Note_on_c, 0, 54, 65
2, 60672, Note_on_c, 0, 70, 83
2, 60680, Note_on_c, 0, 63, 70
2, 60740, Note_off_c, 0, 51, 0
2, 60744, Note_off_c, 0, 54, 0
2, 60748, Note_off_c, 0, 63, 0
2, 60752, Note_off_c, 0, 70, 0
2, 60752, Control_c, 0, 64, 56
2, 60764, Control_c, 0, 64, 72
2, 60812, Control_c, 0, 64, 40
2, 60824, Control_c, 0, 64, 0
2, 60980, Note_on_c, 0, 63, 86
2, 60980, Note_on_c, 0, 47, 85
2, 60980, Note_on_c, 0, 35, 71
2, 60980, Note_on_c, 0, 53, 83
2, 60980, Note_on_c, 0, 57, 68
2, 60984, Control_c, 0, 64, 40
2, 61000, Control_c, 0, 64, 104
2, 61008, Control_c, 0, 64, 127
2, 61016, Note_off_c, 0, 47, 0
2, 61016, Note_off_c, 0, 35, 0
2, 61044, Note_off_c, 0, 53, 0
2, 61056, Note_off_c, 0, 57, 0
2, 61116, Note_off_c, 0, 63, 0
2, 61132, Control_c, 0, 64, 72
2, 61140, Note_on_c, 0, 65, 90
2, 61144, Control_c, 0, 64, 0
2, 61152, Note_on_c, 0, 53, 78
2, 61152, Note_on_c, 0, 58, 60
2, 61156, Note_on_c, 0, 63, 48
2, 61168, Note_on_c, 0, 46, 88
2, 61176, Note_on_c, 0, 34, 74
2, 61256, Note_off_c, 0, 53, 0
2, 61272, Note_off_c, 0, 58, 0
2, 61280, Note_off_c, 0, 34, 0
2, 61280, Control_c, 0, 64, 56
2, 61292, Control_c, 0, 64, 127
2, 61312, Note_off_c, 0, 63, 0
2, 61324, Note_off_c, 0, 65, 64
2, 61324, Note_off_c, 0, 46, 64
2, 61616, Control_c, 0, 64, 104
2, 61632, Control_c, 0, 64, 88
2, 61644, Control_c, 0, 64, 40
2, 61656, Note_on_c, 0, 95, 84
2, 61656, Note_on_c, 0, 58, 51
2, 61656, Note_on_c, 0, 56, 57
2, 61656, Note_on_c, 0, 53, 68
2, 61656, Note_on_c, 0, 62, 80
2, 61656, Control_c, 0, 64, 0
2, 61744, Note_off_c, 0, 95, 0
2, 61744, Note_on_c, 0, 94, 73
2, 61804, Control_c, 0, 64, 24
2, 61816, Note_on_c, 0, 92, 77
2, 61816, Control_c, 0, 64, 88
2, 61828, Control_c, 0, 64, 127
2, 61856, Note_off_c, 0, 94, 0
2, 61884, Note_on_c, 0, 90, 61
2, 61920, Note_off_c, 0, 92, 0
2, 61944, Note_on_c, 0, 89, 79
2, 61948, Note_off_c, 0, 90, 0
2, 61972, Note_off_c, 0, 58, 0
2, 61976, Note_off_c, 0, 56, 0
2, 61988, Note_off_c, 0, 62, 0
2, 61992, Note_off_c, 0, 53, 0
2, 61996, Note_off_c, 0, 89, 0
2, 62020, Note_on_c, 0, 87, 73
2, 62092, Note_on_c, 0, 86, 79
2, 62092, Note_on_c, 0, 58, 55
2, 62092, Note_on_c, 0, 56, 55
2, 62092, Note_on_c, 0, 53, 58
2, 62092, Note_on_c, 0, 63, 83
2, 62136, Note_off_c, 0, 87, 0
2, 62140, Note_off_c, 0, 86, 0
2, 62156, Note_on_c, 0, 83, 68
2, 62176, Control_c, 0, 64, 56
2, 62188, Control_c, 0, 64, 0
2, 62204, Note_off_c, 0, 83, 0
2, 62236, Note_on_c, 0, 82, 61
2, 62268, Note_off_c, 0, 53, 0
2, 62276, Control_c, 0, 64, 40
2, 62280, Note_off_c, 0, 58, 0
2, 62288, Control_c, 0, 64, 88
2, 62296, Note_off_c, 0, 56, 0
2, 62300, Control_c, 0, 64, 127
2, 62304, Note_on_c, 0, 80, 72
2, 62308, Note_off_c, 0, 82, 0
2, 62344, Note_off_c, 0, 63, 0
2, 62380, Note_on_c, 0, 78, 70
2, 62408, Note_off_c, 0, 80, 0
2, 62448, Note_off_c, 0, 78, 0
2, 62460, Note_on_c, 0, 77, 69
2, 62524, Note_off_c, 0, 77, 0
2, 62524, Note_on_c, 0, 75, 71
2, 62524, Note_on_c, 0, 58, 50
2, 62524, Note_on_c, 0, 56, 45
2, 62524, Note_on_c, 0, 66, 85
2, 62524, Note_on_c, 0, 62, 54
2, 62548, Note_off_c, 0, 62, 0
2, 62548, Control_c, 0, 64, 104
2, 62556, Control_c, 0, 64, 56
2, 62568, Control_c, 0, 64, 0
2, 62612, Note_on_c, 0, 74, 70
2, 62640, Note_off_c, 0, 74, 0
2, 62644, Note_off_c, 0, 75, 0
2, 62656, Control_c, 0, 64, 40
2, 62672, Note_on_c, 0, 71, 69
2, 62672, Control_c, 0, 64, 88
2, 62684, Control_c, 0, 64, 127
2, 62704, Note_off_c, 0, 71, 0
2, 62724, Note_off_c, 0, 66, 0
2, 62740, Note_on_c, 0, 70, 64
2, 62820, Note_on_c, 0, 69, 72
2, 62824, Note_on_c, 0, 65, 65
2, 62836, Note_off_c, 0, 70, 0
2, 62844, Note_off_c, 0, 58, 64
2, 62852, Note_off_c, 0, 65, 64
2, 62856, Note_off_c, 0, 56, 64
2, 62880, Note_off_c, 0, 69, 64
2, 62888, Note_on_c, 0, 68, 69
2, 62964, Note_off_c, 0, 68, 0
2, 62996, Note_on_c, 0, 66, 83
2, 62996, Note_on_c, 0, 51, 53
2, 62996, Note_on_c, 0, 58, 58
2, 63044, Control_c, 0, 64, 104
2, 63056, Control_c, 0, 64, 56
2, 63068, Control_c, 0, 64, 0
2, 63204, Control_c, 0, 64, 24
2, 63216, Control_c, 0, 64, 72
2, 63228, Control_c, 0, 64, 127
2, 63260, Note_off_c, 0, 51, 0
2, 63276, Note_off_c, 0, 58, 0
2, 63380, Note_off_c, 0, 66, 0
2, 63488, Note_on_c, 0, 68, 85
2, 63488, Note_on_c, 0, 50, 56
2, 63488, Note_on_c, 0, 60, 58
2, 63488, Note_on_c, 0, 66, 48
2, 63564, Control_c, 0, 64, 88
2, 63576, Control_c, 0, 64, 0
2, 63664, Control_c, 0, 64, 88
2, 63676, Control_c, 0, 64, 127
2, 63876, Note_off_c, 0, 66, 0
2, 63892, Note_off_c, 0, 50, 0
2, 63904, Note_off_c, 0, 60, 0
2, 63932, Note_off_c, 0, 68, 0
2, 63952, Note_on_c, 0, 71, 82
2, 63956, Note_on_c, 0, 66, 50
2, 63960, Note_on_c, 0, 63, 67
2, 63960, Control_c, 0, 64, 72
2, 63972, Note_on_c, 0, 49, 51
2, 63972, Control_c, 0, 64, 0
2, 64048, Note_off_c, 0, 63, 0
2, 64048, Control_c, 0, 64, 56
2, 64060, Control_c, 0, 64, 104
2, 64072, Control_c, 0, 64, 127
2, 64088, Note_off_c, 0, 71, 0
2, 64100, Note_off_c, 0, 66, 0
2, 64108, Note_on_c, 0, 70, 77
2, 64120, Note_on_c, 0, 61, 61
2, 64180, Note_off_c, 0, 61, 0
2, 64216, Note_off_c, 0, 70, 0
2, 64248, Note_on_c, 0, 75, 84
2, 64260, Note_on_c, 0, 65, 68
2, 64264, Note_on_c, 0, 68, 55
2, 64272, Note_on_c, 0, 59, 58
2, 64292, Note_off_c, 0, 65, 0
2, 64316, Note_off_c, 0, 68, 0
2, 64344, Note_off_c, 0, 75, 0
2, 64344, Note_off_c, 0, 59, 0
2, 64428, Note_on_c, 0, 73, 80
2, 64436, Note_on_c, 0, 66, 64
2, 64456, Control_c, 0, 64, 88
2, 64460, Note_on_c, 0, 58, 55
2, 64468, Control_c, 0, 64, 0
2, 64556, Control_c, 0, 64, 56
2, 64560, Note_off_c, 0, 73, 0
2, 64564, Note_off_c, 0, 58, 0
2, 64568, Control_c, 0, 64, 127
2, 64580, Note_off_c, 0, 66, 0
2, 64588, Note_off_c, 0, 49, 64
2, 64788, Note_on_c, 0, 66, 80
2, 64788, Note_on_c, 0, 50, 72
2, 64788, Note_on_c, 0, 38, 60
2, 64788, Note_on_c, 0, 60, 61
2, 64788, Note_on_c, 0, 56, 64
2, 64792, Control_c, 0, 64, 104
2, 64804, Control_c, 0, 64, 0
2, 64864, Control_c, 0, 64, 56
2, 64876, Note_off_c, 0, 38, 0
2, 64876, Note_off_c, 0, 60, 0
2, 64876, Control_c, 0, 64, 127
2, 64884, Note_off_c, 0, 50, 0
2, 64884, Note_off_c, 0, 56, 0
2, 64976, Note_on_c, 0, 68, 77
2, 64976, Note_on_c, 0, 56, 57
2, 64976, Note_on_c, 0, 37, 66
2, 64976, Note_on_c, 0, 49, 55
2, 64976, Note_on_c, 0, 61, 47
2, 65000, Control_c, 0, 64, 88
2, 65012, Control_c, 0, 64, 0
2, 65120, Note_off_c, 0, 56, 0
2, 65136, Note_off_c, 0, 61, 0
2, 65148, Note_off_c, 0, 49, 0
2, 65148, Control_c, 0, 64, 56
2, 65160, Note_off_c, 0, 37, 0
2, 65160, Control_c, 0, 64, 127
2, 65164, Note_off_c, 0, 66, 0
2, 65180, Note_off_c, 0, 68, 0
2, 65464, Note_on_c, 0, 99, 75
2, 65472, Note_on_c, 0, 65, 77
2, 65484, Note_on_c, 0, 61, 46
2, 65484, Note_on_c, 0, 56, 43
2, 65488, Note_on_c, 0, 59, 53
2, 65508, Control_c, 0, 64, 40
2, 65524, Control_c, 0, 64, 0
2, 65548, Note_on_c, 0, 97, 71
2, 65572, Control_c, 0, 64, 40
2, 65584, Control_c, 0, 64, 104
2, 65592, Note_off_c, 0, 99, 0
2, 65596, Control_c, 0, 64, 127
2, 65612, Note_off_c, 0, 97, 0
2, 65620, Note_on_c, 0, 95, 79
2, 65668, Note_off_c, 0, 95, 0
2, 65688, Note_on_c, 0, 94, 65
2, 65720, Note_off_c, 0, 59, 0
2, 65728, Note_off_c, 0, 65, 0
2, 65728, Note_off_c, 0, 56, 0
2, 65732, Note_off_c, 0, 61, 0
2, 65760, Note_on_c, 0, 92, 78
2, 65792, Note_off_c, 0, 94, 0
2, 65832, Note_on_c, 0, 90, 62
2, 65868, Note_off_c, 0, 92, 0
2, 65892, Control_c, 0, 64, 56
2, 65900, Note_off_c, 0, 90, 0
2, 65900, Note_on_c, 0, 89, 74
2, 65908, Note_on_c, 0, 66, 79
2, 65908, Control_c, 0, 64, 0
2, 65920, Note_on_c, 0, 61, 51
2, 65924, Note_on_c, 0, 56, 36
2, 65924, Note_on_c, 0, 59, 51
2, 65960, Note_off_c, 0, 89, 64
2, 65976, Note_on_c, 0, 87, 64
2, 66032, Control_c, 0, 64, 56
2, 66040, Control_c, 0, 64, 127
2, 66052, Note_on_c, 0, 85, 65
2, 66084, Note_off_c, 0, 87, 0
2, 66100, Note_off_c, 0, 56, 0
2, 66104, Note_off_c, 0, 59, 0
2, 66108, Note_off_c, 0, 85, 0
2, 66116, Note_off_c, 0, 61, 0
2, 66128, Note_on_c, 0, 83, 63
2, 66156, Note_off_c, 0, 66, 64
2, 66184, Note_off_c, 0, 83, 0
2, 66196, Note_on_c, 0, 82, 59
2, 66264, Note_on_c, 0, 80, 71
2, 66276, Note_off_c, 0, 82, 0
2, 66348, Note_off_c, 0, 80, 0
2, 66360, Note_on_c, 0, 78, 60
2, 66360, Note_on_c, 0, 70, 74
2, 66360, Note_on_c, 0, 61, 40
2, 66360, Note_on_c, 0, 59, 42
2, 66360, Note_on_c, 0, 65, 56
2, 66436, Note_off_c, 0, 78, 0
2, 66452, Control_c, 0, 64, 88
2, 66460, Note_on_c, 0, 77, 65
2, 66464, Control_c, 0, 64, 24
2, 66476, Control_c, 0, 64, 0
2, 66504, Note_off_c, 0, 77, 0
2, 66548, Note_on_c, 0, 75, 56
2, 66552, Control_c, 0, 64, 56
2, 66564, Control_c, 0, 64, 104
2, 66568, Note_off_c, 0, 70, 0
2, 66576, Control_c, 0, 64, 127
2, 66600, Note_off_c, 0, 75, 0
2, 66604, Note_off_c, 0, 65, 0
2, 66620, Note_on_c, 0, 73, 58
2, 66668, Note_off_c, 0, 59, 0
2, 66684, Note_off_c, 0, 73, 0
2, 66688, Note_off_c, 0, 61, 0
2, 66708, Note_on_c, 0, 72, 64
2, 66708, Note_on_c, 0, 68, 68
2, 66756, Note_off_c, 0, 72, 0
2, 66764, Note_off_c, 0, 68, 0
2, 66784, Note_on_c, 0, 71, 62
2, 66844, Note_off_c, 0, 71, 0
2, 66884, Note_on_c, 0, 70, 57
2, 66884, Note_on_c, 0, 66, 51
2, 66884, Note_on_c, 0, 61, 44
2, 66884, Note_on_c, 0, 54, 49
2, 66888, Control_c, 0, 64, 56
2, 66896, Control_c, 0, 64, 0
2, 66952, Note_off_c, 0, 70, 0
2, 66976, Note_on_c, 0, 71, 62
2, 66984, Control_c, 0, 64, 56
2, 66996, Control_c, 0, 64, 104
2, 67008, Control_c, 0, 64, 127
2, 67044, Note_on_c, 0, 73, 64
2, 67048, Note_off_c, 0, 71, 0
2, 67092, Note_off_c, 0, 54, 0
2, 67108, Note_off_c, 0, 61, 0
2, 67112, Note_on_c, 0, 75, 73
2, 67116, Note_off_c, 0, 73, 0
2, 67152, Note_off_c, 0, 75, 0
2, 67176, Note_off_c, 0, 66, 0
2, 67196, Note_on_c, 0, 77, 72
2, 67252, Note_off_c, 0, 77, 0
2, 67264, Note_on_c, 0, 78, 64
2, 67320, Control_c, 0, 64, 72
2, 67332, Control_c, 0, 64, 0
2, 67336, Note_off_c, 0, 78, 0
2, 67336, Note_on_c, 0, 51, 62
2, 67348, Note_on_c, 0, 83, 78
2, 67416, Note_off_c, 0, 51, 0
2, 67420, Note_on_c, 0, 82, 75
2, 67420, Control_c, 0, 64, 72
2, 67432, Control_c, 0, 64, 104
2, 67436, Note_off_c, 0, 83, 0
2, 67444, Control_c, 0, 64, 127
2, 67500, Note_on_c, 0, 80, 71
2, 67508, Note_on_c, 0, 66, 51
2, 67532, Note_off_c, 0, 82, 64
2, 67572, Note_on_c, 0, 78, 61
2, 67616, Note_off_c, 0, 80, 0
2, 67640, Note_off_c, 0, 78, 0
2, 67640, Note_on_c, 0, 77, 78
2, 67644, Note_off_c, 0, 66, 0
2, 67656, Note_on_c, 0, 58, 33
2, 67692, Note_off_c, 0, 77, 0
2, 67712, Note_on_c, 0, 75, 67
2, 67756, Control_c, 0, 64, 88
2, 67764, Note_off_c, 0, 58, 0
2, 67764, Control_c, 0, 64, 24
2, 67776, Control_c, 0, 64, 0
2, 67792, Note_on_c, 0, 73, 68
2, 67792, Note_on_c, 0, 56, 68
2, 67824, Note_off_c, 0, 75, 0
2, 67852, Note_off_c, 0, 73, 0
2, 67860, Note_on_c, 0, 72, 67
2, 67876, Control_c, 0, 64, 40
2, 67884, Note_off_c, 0, 72, 0
2, 67888, Control_c, 0, 64, 56
2, 67904, Control_c, 0, 64, 72
2, 67924, Note_on_c, 0, 71, 68
2, 67932, Note_on_c, 0, 63, 52
2, 68004, Note_off_c, 0, 71, 0
2, 68004, Control_c, 0, 64, 88
2, 68008, Note_on_c, 0, 70, 62
2, 68052, Note_off_c, 0, 56, 0
2, 68056, Note_off_c, 0, 63, 0
2, 68064, Control_c, 0, 64, 72
2, 68068, Note_off_c, 0, 70, 0
2, 68072, Note_on_c, 0, 59, 48
2, 68076, Control_c, 0, 64, 56
2, 68080, Note_on_c, 0, 67, 58
2, 68088, Control_c, 0, 64, 40
2, 68100, Control_c, 0, 64, 24
2, 68124, Control_c, 0, 64, 0
2, 68140, Note_on_c, 0, 68, 64
2, 68148, Note_off_c, 0, 67, 0
2, 68216, Note_on_c, 0, 49, 45
2, 68220, Note_off_c, 0, 68, 0
2, 68220, Note_on_c, 0, 70, 62
2, 68252, Note_off_c, 0, 59, 0
2, 68272, Note_off_c, 0, 70, 0
2, 68284, Note_off_c, 0, 49, 0
2, 68292, Note_on_c, 0, 71, 64
2, 68360, Note_off_c, 0, 71, 0
2, 68364, Note_on_c, 0, 72, 65
2, 68364, Note_on_c, 0, 65, 57
2, 68424, Note_on_c, 0, 73, 64
2, 68436, Note_off_c, 0, 72, 0
2, 68468, Note_off_c, 0, 65, 0
2, 68496, Note_off_c, 0, 73, 0
2, 68496, Note_on_c, 0, 75, 67
2, 68496, Note_on_c, 0, 59, 54
2, 68576, Note_off_c, 0, 75, 0
2, 68576, Note_on_c, 0, 73, 65
2, 68588, Note_off_c, 0, 59, 0
2, 68652, Note_off_c, 0, 73, 0
2, 68668, Note_on_c, 0, 70, 65
2, 68668, Note_on_c, 0, 54, 68
2, 68732, Note_off_c, 0, 70, 0
2, 68752, Note_on_c, 0, 71, 62
2, 68812, Note_on_c, 0, 73, 65
2, 68812, Note_on_c, 0, 66, 56
2, 68816, Note_off_c, 0, 71, 0
2, 68868, Note_on_c, 0, 75, 67
2, 68876, Note_off_c, 0, 73, 0
2, 68904, Note_off_c, 0, 75, 0
2, 68912, Note_off_c, 0, 66, 0
2, 68928, Note_off_c, 0, 54, 0
2, 68948, Note_on_c, 0, 77, 75
2, 68948, Note_on_c, 0, 58, 54
2, 69000, Note_off_c, 0, 77, 64
2, 69004, Note_on_c, 0, 78, 72
2, 69028, Note_off_c, 0, 58, 0
2, 69068, Note_off_c, 0, 78, 0
2, 69080, Note_on_c, 0, 51, 69
2, 69092, Note_on_c, 0, 83, 75
2, 69132, Note_off_c, 0, 51, 0
2, 69156, Note_on_c, 0, 82, 72
2, 69172, Note_off_c, 0, 83, 0
2, 69224, Note_on_c, 0, 80, 67
2, 69232, Note_on_c, 0, 66, 59
2, 69268, Note_off_c, 0, 82, 0
2, 69292, Note_on_c, 0, 78, 67
2, 69340, Note_off_c, 0, 80, 0
2, 69356, Note_off_c, 0, 78, 0
2, 69364, Note_on_c, 0, 77, 75
2, 69368, Note_on_c, 0, 58, 46
2, 69384, Note_off_c, 0, 66, 0
2, 69416, Note_off_c, 0, 77, 0
2, 69432, Note_on_c, 0, 75, 65
2, 69460, Note_off_c, 0, 58, 0
2, 69504, Note_on_c, 0, 56, 68
2, 69508, Note_on_c, 0, 73, 71
2, 69544, Note_off_c, 0, 75, 0
2, 69572, Note_off_c, 0, 73, 0
2, 69584, Note_on_c, 0, 72, 74
2, 69608, Note_off_c, 0, 72, 0
2, 69652, Note_on_c, 0, 71, 69
2, 69652, Note_on_c, 0, 63, 51
2, 69720, Note_on_c, 0, 70, 67
2, 69724, Note_off_c, 0, 71, 0
2, 69760, Note_off_c, 0, 63, 0
2, 69792, Note_off_c, 0, 56, 0
2, 69796, Note_off_c, 0, 70, 0
2, 69808, Note_on_c, 0, 59, 47
2, 69808, Note_on_c, 0, 67, 60
2, 69868, Note_off_c, 0, 67, 0
2, 69868, Note_on_c, 0, 68, 65
2, 69900, Note_off_c, 0, 59, 0
2, 69944, Note_on_c, 0, 70, 64
2, 69948, Note_off_c, 0, 68, 0
2, 69952, Note_on_c, 0, 49, 45
2, 69988, Note_off_c, 0, 49, 0
2, 70000, Note_off_c, 0, 70, 0
2, 70024, Note_on_c, 0, 71, 67
2, 70100, Note_off_c, 0, 71, 0
2, 70100, Note_on_c, 0, 65, 42
2, 70100, Note_on_c, 0, 72, 66
2, 70168, Note_off_c, 0, 72, 0
2, 70180, Note_on_c, 0, 73, 59
2, 70224, Note_off_c, 0, 65, 0
2, 70260, Note_on_c, 0, 75, 62
2, 70260, Note_on_c, 0, 59, 55
2, 70276, Note_off_c, 0, 73, 0
2, 70340, Note_on_c, 0, 73, 48
2, 70352, Note_off_c, 0, 75, 0
2, 70368, Note_off_c, 0, 59, 0
2, 70420, Note_on_c, 0, 70, 73
2, 70420, Note_on_c, 0, 54, 72
2, 70432, Note_off_c, 0, 73, 0
2, 70500, Note_on_c, 0, 71, 72
2, 70512, Note_off_c, 0, 70, 64
2, 70552, Note_off_c, 0, 54, 0
2, 70576, Note_on_c, 0, 64, 47
2, 70576, Note_on_c, 0, 73, 73
2, 70588, Note_off_c, 0, 71, 64
2, 70624, Control_c, 0, 64, 24
2, 70652, Control_c, 0, 64, 40
2, 70656, Note_on_c, 0, 75, 75
2, 70668, Note_off_c, 0, 73, 0
2, 70704, Note_off_c, 0, 64, 0
2, 70708, Note_off_c, 0, 75, 0
2, 70728, Note_on_c, 0, 76, 80
2, 70728, Note_on_c, 0, 58, 55
2, 70788, Control_c, 0, 64, 0
2, 70800, Note_on_c, 0, 78, 67
2, 70816, Note_off_c, 0, 76, 0
2, 70864, Note_on_c, 0, 80, 69
2, 70864, Note_on_c, 0, 53, 70
2, 70904, Note_off_c, 0, 58, 0
2, 70908, Note_off_c, 0, 78, 0
2, 70936, Note_on_c, 0, 82, 65
2, 70936, Control_c, 0, 64, 24
2, 70960, Control_c, 0, 64, 40
2, 70968, Note_off_c, 0, 80, 0
2, 70984, Note_off_c, 0, 82, 0
2, 70996, Control_c, 0, 64, 56
2, 71020, Note_on_c, 0, 83, 68
2, 71020, Note_on_c, 0, 64, 55
2, 71036, Control_c, 0, 64, 40
2, 71048, Note_off_c, 0, 53, 0
2, 71072, Control_c, 0, 64, 24
2, 71080, Note_on_c, 0, 85, 69
2, 71096, Note_off_c, 0, 83, 0
2, 71124, Control_c, 0, 64, 40
2, 71132, Control_c, 0, 64, 56
2, 71144, Note_on_c, 0, 87, 71
2, 71144, Note_on_c, 0, 54, 72
2, 71144, Control_c, 0, 64, 72
2, 71156, Note_off_c, 0, 85, 0
2, 71172, Control_c, 0, 64, 88
2, 71192, Note_off_c, 0, 87, 0
2, 71220, Note_off_c, 0, 64, 0
2, 71232, Note_on_c, 0, 88, 67
2, 71244, Control_c, 0, 64, 56
2, 71256, Control_c, 0, 64, 0
2, 71284, Note_off_c, 0, 88, 0
2, 71296, Note_on_c, 0, 99, 82
2, 71296, Note_on_c, 0, 56, 74
2, 71300, Note_off_c, 0, 54, 0
2, 71360, Control_c, 0, 64, 24
2, 71364, Note_off_c, 0, 99, 0
2, 71372, Note_on_c, 0, 97, 80
2, 71372, Control_c, 0, 64, 40
2, 71384, Control_c, 0, 64, 56
2, 71396, Control_c, 0, 64, 72
2, 71432, Control_c, 0, 64, 88
2, 71452, Note_on_c, 0, 95, 79
2, 71452, Note_on_c, 0, 64, 55
2, 71464, Note_off_c, 0, 97, 0
2, 71512, Note_off_c, 0, 95, 0
2, 71532, Note_on_c, 0, 88, 64
2, 71568, Note_off_c, 0, 56, 0
2, 71604, Note_on_c, 0, 91, 74
2, 71604, Note_on_c, 0, 59, 76
2, 71620, Note_off_c, 0, 88, 0
2, 71644, Control_c, 0, 64, 72
2, 71664, Note_off_c, 0, 91, 0
2, 71668, Control_c, 0, 64, 56
2, 71672, Note_off_c, 0, 64, 0
2, 71680, Note_on_c, 0, 92, 82
2, 71680, Control_c, 0, 64, 40
2, 71692, Control_c, 0, 64, 0
2, 71756, Note_off_c, 0, 59, 0
2, 71756, Note_on_c, 0, 58, 73
2, 71756, Note_on_c, 0, 95, 92
2, 71760, Note_off_c, 0, 92, 0
2, 71828, Note_on_c, 0, 94, 77
2, 71836, Note_off_c, 0, 95, 0
2, 71840, Control_c, 0, 64, 40
2, 71852, Control_c, 0, 64, 56
2, 71876, Control_c, 0, 64, 72
2, 71900, Note_on_c, 0, 68, 43
2, 71900, Note_on_c, 0, 92, 80
2, 71940, Note_off_c, 0, 94, 0
2, 71960, Note_off_c, 0, 58, 0
2, 71964, Note_on_c, 0, 90, 61
2, 71976, Control_c, 0, 64, 88
2, 72012, Note_off_c, 0, 92, 64
2, 72024, Note_off_c, 0, 90, 0
2, 72024, Note_on_c, 0, 88, 70
2, 72040, Note_on_c, 0, 64, 45
2, 72044, Note_off_c, 0, 68, 64
2, 72092, Note_off_c, 0, 88, 64
2, 72092, Note_on_c, 0, 87, 73
2, 72136, Control_c, 0, 64, 56
2, 72152, Control_c, 0, 64, 0
2, 72168, Note_on_c, 0, 85, 74
2, 72168, Note_on_c, 0, 58, 65
2, 72176, Note_off_c, 0, 64, 64
2, 72212, Note_off_c, 0, 87, 0
2, 72240, Note_off_c, 0, 85, 0
2, 72252, Note_on_c, 0, 83, 55
2, 72260, Control_c, 0, 64, 40
2, 72276, Control_c, 0, 64, 72
2, 72284, Control_c, 0, 64, 88
2, 72292, Note_off_c, 0, 58, 0
2, 72292, Note_off_c, 0, 83, 0
2, 72332, Note_on_c, 0, 82, 66
2, 72332, Note_on_c, 0, 68, 44
2, 72336, Control_c, 0, 64, 104
2, 72364, Note_off_c, 0, 82, 0
2, 72412, Note_on_c, 0, 80, 69
2, 72460, Note_off_c, 0, 68, 0
2, 72476, Note_on_c, 0, 78, 59
2, 72476, Note_on_c, 0, 64, 49
2, 72516, Note_off_c, 0, 78, 0
2, 72520, Note_off_c, 0, 80, 0
2, 72540, Note_on_c, 0, 76, 60
2, 72584, Control_c, 0, 64, 72
2, 72596, Note_on_c, 0, 75, 69
2, 72596, Control_c, 0, 64, 56
2, 72604, Note_off_c, 0, 64, 0
2, 72604, Note_on_c, 0, 59, 67
2, 72608, Note_off_c, 0, 76, 0
2, 72608, Control_c, 0, 64, 0
2, 72668, Note_on_c, 0, 73, 67
2, 72688, Note_off_c, 0, 75, 0
2, 72696, Control_c, 0, 64, 24
2, 72708, Control_c, 0, 64, 56
2, 72724, Control_c, 0, 64, 72
2, 72732, Note_off_c, 0, 73, 0
2, 72732, Note_on_c, 0, 68, 47
2, 72736, Note_on_c, 0, 72, 68
2, 72736, Control_c, 0, 64, 88
2, 72772, Control_c, 0, 64, 104
2, 72800, Note_off_c, 0, 72, 0
2, 72800, Note_on_c, 0, 73, 69
2, 72820, Control_c, 0, 64, 88
2, 72828, Note_off_c, 0, 59, 0
2, 72844, Note_off_c, 0, 68, 0
2, 72872, Note_on_c, 0, 64, 51
2, 72876, Note_off_c, 0, 73, 0
2, 72880, Note_on_c, 0, 74, 64
2, 72908, Note_off_c, 0, 64, 0
2, 72908, Control_c, 0, 64, 56
2, 72920, Control_c, 0, 64, 40
2, 72932, Control_c, 0, 64, 24
2, 72944, Control_c, 0, 64, 0
2, 72952, Note_on_c, 0, 75, 77
2, 72956, Note_off_c, 0, 74, 0
2, 73016, Note_off_c, 0, 75, 0
2, 73024, Note_on_c, 0, 68, 69
2, 73024, Note_on_c, 0, 76, 94
2, 73024, Note_on_c, 0, 61, 58
2, 73024, Note_on_c, 0, 64, 59
2, 73056, Note_off_c, 0, 61, 0
2, 73088, Note_off_c, 0, 68, 0
2, 73088, Note_off_c, 0, 64, 0
2, 73100, Note_on_c, 0, 77, 88
2, 73112, Note_off_c, 0, 76, 0
2, 73176, Note_off_c, 0, 77, 0
2, 73176, Note_on_c, 0, 78, 71
2, 73176, Note_on_c, 0, 64, 62
2, 73176, Note_on_c, 0, 54, 54
2, 73176, Note_on_c, 0, 66, 57
2, 73236, Note_off_c, 0, 78, 0
2, 73236, Note_on_c, 0, 79, 82
2, 73308, Note_off_c, 0, 79, 0
2, 73312, Note_on_c, 0, 80, 72
2, 73372, Note_off_c, 0, 54, 0
2, 73380, Note_off_c, 0, 80, 0
2, 73380, Note_on_c, 0, 79, 76
2, 73440, Note_off_c, 0, 66, 0
2, 73444, Note_off_c, 0, 64, 0
2, 73452, Note_off_c, 0, 79, 0
2, 73464, Note_on_c, 0, 82, 73
2, 73540, Note_on_c, 0, 80, 78
2, 73568, Note_off_c, 0, 82, 64
2, 73624, Note_on_c, 0, 78, 71
2, 73652, Note_off_c, 0, 80, 64
2, 73680, Note_off_c, 0, 78, 0
2, 73688, Note_on_c, 0, 76, 68
2, 73752, Note_on_c, 0, 75, 70
2, 73756, Note_off_c, 0, 76, 0
2, 73812, Note_off_c, 0, 75, 0
2, 73848, Note_on_c, 0, 74, 52
2, 73912, Note_off_c, 0, 74, 0
2, 73920, Note_on_c, 0, 75, 71
2, 73920, Note_on_c, 0, 59, 70
2, 73976, Note_off_c, 0, 75, 0
2, 74000, Note_on_c, 0, 76, 70
2, 74064, Note_off_c, 0, 76, 0
2, 74068, Note_on_c, 0, 78, 62
2, 74076, Note_on_c, 0, 71, 50
2, 74144, Note_on_c, 0, 80, 62
2, 74156, Note_off_c, 0, 78, 0
2, 74164, Note_off_c, 0, 71, 0
2, 74180, Note_off_c, 0, 59, 0
2, 74204, Note_on_c, 0, 82, 76
2, 74204, Note_on_c, 0, 63, 41
2, 74232, Note_off_c, 0, 80, 0
2, 74240, Note_off_c, 0, 82, 0
2, 74284, Note_on_c, 0, 83, 81
2, 74360, Note_off_c, 0, 83, 0
2, 74372, Note_on_c, 0, 88, 82
2, 74380, Note_on_c, 0, 56, 68
2, 74384, Note_off_c, 0, 63, 0
2, 74452, Note_on_c, 0, 87, 78
2, 74456, Note_off_c, 0, 56, 0
2, 74472, Note_off_c, 0, 88, 0
2, 74528, Control_c, 0, 64, 40
2, 74540, Note_on_c, 0, 85, 65
2, 74540, Note_on_c, 0, 71, 53
2, 74544, Control_c, 0, 64, 56
2, 74556, Control_c, 0, 64, 72
2, 74580, Note_off_c, 0, 87, 0
2, 74580, Control_c, 0, 64, 88
2, 74596, Note_off_c, 0, 85, 0
2, 74608, Note_on_c, 0, 83, 63
2, 74632, Note_off_c, 0, 71, 0
2, 74632, Control_c, 0, 64, 104
2, 74652, Note_off_c, 0, 83, 0
2, 74680, Note_on_c, 0, 82, 60
2, 74684, Note_on_c, 0, 63, 35
2, 74748, Note_off_c, 0, 82, 0
2, 74748, Note_on_c, 0, 80, 69
2, 74768, Control_c, 0, 64, 88
2, 74772, Note_off_c, 0, 63, 0
2, 74792, Control_c, 0, 64, 72
2, 74804, Control_c, 0, 64, 56
2, 74816, Control_c, 0, 64, 24
2, 74828, Note_on_c, 0, 61, 74
2, 74828, Note_on_c, 0, 78, 67
2, 74828, Control_c, 0, 64, 0
2, 74852, Note_off_c, 0, 80, 0
2, 74876, Note_off_c, 0, 78, 0
2, 74904, Note_on_c, 0, 77, 69
2, 74944, Note_off_c, 0, 77, 0
2, 74960, Note_on_c, 0, 76, 56
2, 74960, Note_on_c, 0, 68, 48
2, 75004, Control_c, 0, 64, 24
2, 75016, Control_c, 0, 64, 40
2, 75024, Note_on_c, 0, 75, 54
2, 75028, Note_off_c, 0, 76, 0
2, 75072, Note_off_c, 0, 61, 64
2, 75092, Control_c, 0, 64, 56
2, 75104, Note_off_c, 0, 68, 64
2, 75104, Note_off_c, 0, 75, 0
2, 75112, Note_on_c, 0, 72, 56
2, 75112, Note_on_c, 0, 64, 47
2, 75176, Note_off_c, 0, 72, 64
2, 75184, Note_on_c, 0, 73, 55
2, 75200, Control_c, 0, 64, 40
2, 75208, Note_off_c, 0, 64, 64
2, 75212, Control_c, 0, 64, 0
2, 75252, Note_on_c, 0, 75, 69
2, 75252, Note_on_c, 0, 54, 70
2, 75276, Note_off_c, 0, 73, 0
2, 75308, Note_off_c, 0, 54, 0
2, 75320, Note_off_c, 0, 75, 0
2, 75332, Note_on_c, 0, 76, 78
2, 75400, Note_on_c, 0, 70, 53
2, 75404, Note_off_c, 0, 76, 0
2, 75404, Note_on_c, 0, 77, 83
2, 75476, Note_on_c, 0, 78, 75
2, 75480, Note_off_c, 0, 77, 0
2, 75488, Control_c, 0, 64, 24
2, 75500, Note_off_c, 0, 70, 0
2, 75500, Control_c, 0, 64, 40
2, 75536, Note_off_c, 0, 78, 0
2, 75548, Note_on_c, 0, 64, 48
2, 75548, Control_c, 0, 64, 56
2, 75552, Note_on_c, 0, 80, 65
2, 75620, Note_on_c, 0, 78, 65
2, 75628, Note_off_c, 0, 80, 0
2, 75660, Control_c, 0, 64, 24
2, 75672, Control_c, 0, 64, 0
2, 75676, Note_off_c, 0, 64, 0
2, 75692, Note_off_c, 0, 78, 0
2, 75696, Note_on_c, 0, 75, 69
2, 75696, Note_on_c, 0, 59, 70
2, 75756, Note_off_c, 0, 75, 0
2, 75764, Note_on_c, 0, 76, 72
2, 75832, Note_on_c, 0, 78, 64
2, 75832, Note_on_c, 0, 71, 53
2, 75856, Note_off_c, 0, 76, 0
2, 75900, Note_on_c, 0, 80, 71
2, 75928, Note_off_c, 0, 59, 0
2, 75932, Note_off_c, 0, 78, 0
2, 75936, Note_off_c, 0, 71, 0
2, 75968, Note_on_c, 0, 82, 73
2, 75968, Note_on_c, 0, 63, 48
2, 75968, Control_c, 0, 64, 24
2, 76000, Note_off_c, 0, 80, 0
2, 76016, Note_off_c, 0, 82, 0
2, 76044, Note_on_c, 0, 83, 81
2, 76080, Control_c, 0, 64, 0
2, 76112, Note_off_c, 0, 83, 0
2, 76124, Note_on_c, 0, 88, 84
2, 76124, Note_on_c, 0, 56, 68
2, 76148, Note_off_c, 0, 63, 0
2, 76200, Note_on_c, 0, 87, 85
2, 76204, Note_off_c, 0, 56, 0
2, 76208, Control_c, 0, 64, 24
2, 76220, Control_c, 0, 64, 40
2, 76224, Note_off_c, 0, 88, 0
2, 76232, Control_c, 0, 64, 56
2, 76280, Note_on_c, 0, 85, 73
2, 76280, Note_on_c, 0, 71, 46
2, 76336, Note_off_c, 0, 87, 0
2, 76340, Note_off_c, 0, 85, 0
2, 76360, Note_on_c, 0, 83, 73
2, 76384, Note_off_c, 0, 71, 0
2, 76412, Note_off_c, 0, 83, 0
2, 76420, Control_c, 0, 64, 72
2, 76424, Note_on_c, 0, 82, 69
2, 76428, Note_on_c, 0, 63, 28
2, 76496, Note_on_c, 0, 80, 71
2, 76508, Note_off_c, 0, 82, 0
2, 76520, Note_off_c, 0, 63, 0
2, 76576, Note_on_c, 0, 78, 57
2, 76576, Note_on_c, 0, 61, 75
2, 76576, Control_c, 0, 64, 40
2, 76604, Note_off_c, 0, 80, 64
2, 76604, Control_c, 0, 64, 0
2, 76628, Note_off_c, 0, 78, 0
2, 76652, Note_on_c, 0, 77, 79
2, 76704, Note_off_c, 0, 77, 0
2, 76732, Note_on_c, 0, 76, 68
2, 76732, Note_on_c, 0, 68, 45
2, 76764, Control_c, 0, 64, 24
2, 76776, Control_c, 0, 64, 40
2, 76784, Note_off_c, 0, 76, 0
2, 76812, Note_on_c, 0, 75, 65
2, 76824, Control_c, 0, 64, 56
2, 76852, Note_off_c, 0, 68, 64
2, 76856, Note_off_c, 0, 61, 64
2, 76864, Note_off_c, 0, 75, 64
2, 76876, Control_c, 0, 64, 72
2, 76892, Note_on_c, 0, 72, 67
2, 76892, Note_on_c, 0, 64, 46
2, 76960, Note_off_c, 0, 72, 0
2, 76972, Note_on_c, 0, 73, 67
2, 77012, Note_off_c, 0, 64, 0
2, 77044, Note_off_c, 0, 73, 0
2, 77052, Note_on_c, 0, 75, 62
2, 77052, Note_on_c, 0, 54, 70
2, 77052, Control_c, 0, 64, 24
2, 77064, Control_c, 0, 64, 0
2, 77116, Note_off_c, 0, 54, 0
2, 77128, Note_off_c, 0, 75, 0
2, 77132, Note_on_c, 0, 76, 70
2, 77196, Note_off_c, 0, 76, 0
2, 77204, Note_on_c, 0, 77, 74
2, 77204, Note_on_c, 0, 70, 54
2, 77272, Note_on_c, 0, 78, 67
2, 77272, Control_c, 0, 64, 24
2, 77276, Note_off_c, 0, 77, 0
2, 77308, Note_off_c, 0, 70, 0
2, 77336, Note_off_c, 0, 78, 0
2, 77336, Note_on_c, 0, 80, 60
2, 77336, Note_on_c, 0, 64, 49
2, 77348, Control_c, 0, 64, 40
2, 77388, Control_c, 0, 64, 56
2, 77408, Note_on_c, 0, 78, 60
2, 77412, Note_off_c, 0, 80, 0
2, 77440, Note_off_c, 0, 78, 0
2, 77480, Note_on_c, 0, 75, 65
2, 77480, Note_on_c, 0, 59, 68
2, 77484, Control_c, 0, 64, 24
2, 77492, Note_off_c, 0, 64, 0
2, 77496, Control_c, 0, 64, 0
2, 77552, Note_off_c, 0, 75, 0
2, 77560, Note_on_c, 0, 76, 64
2, 77584, Control_c, 0, 64, 40
2, 77596, Control_c, 0, 64, 56
2, 77608, Control_c, 0, 64, 72
2, 77620, Control_c, 0, 64, 88
2, 77636, Note_on_c, 0, 77, 82
2, 77636, Note_on_c, 0, 69, 49
2, 77640, Note_off_c, 0, 76, 0
2, 77688, Note_off_c, 0, 59, 0
2, 77704, Note_off_c, 0, 77, 0
2, 77708, Note_on_c, 0, 78, 71
2, 77776, Note_off_c, 0, 78, 0
2, 77780, Note_on_c, 0, 79, 77
2, 77780, Note_on_c, 0, 63, 50
2, 77808, Control_c, 0, 64, 72
2, 77856, Control_c, 0, 64, 56
2, 77860, Note_off_c, 0, 79, 0
2, 77860, Note_on_c, 0, 80, 75
2, 77872, Note_off_c, 0, 69, 0
2, 77872, Control_c, 0, 64, 40
2, 77892, Control_c, 0, 64, 24
2, 77904, Control_c, 0, 64, 0
2, 77924, Note_off_c, 0, 63, 0
2, 77928, Note_off_c, 0, 80, 0
2, 77932, Note_on_c, 0, 81, 83
2, 77932, Note_on_c, 0, 60, 71
2, 78008, Note_on_c, 0, 82, 77
2, 78012, Note_off_c, 0, 81, 0
2, 78020, Control_c, 0, 64, 24
2, 78032, Control_c, 0, 64, 40
2, 78044, Control_c, 0, 64, 56
2, 78056, Control_c, 0, 64, 72
2, 78076, Note_off_c, 0, 82, 0
2, 78084, Note_on_c, 0, 83, 81
2, 78084, Note_on_c, 0, 69, 55
2, 78116, Control_c, 0, 64, 88
2, 78152, Note_on_c, 0, 84, 84
2, 78156, Note_off_c, 0, 83, 0
2, 78192, Note_off_c, 0, 60, 64
2, 78220, Note_on_c, 0, 85, 76
2, 78220, Note_on_c, 0, 63, 55
2, 78224, Note_off_c, 0, 84, 64
2, 78284, Note_off_c, 0, 85, 64
2, 78288, Note_on_c, 0, 86, 76
2, 78320, Note_off_c, 0, 69, 64
2, 78340, Control_c, 0, 64, 56
2, 78352, Note_off_c, 0, 63, 0
2, 78352, Control_c, 0, 64, 40
2, 78360, Note_off_c, 0, 86, 0
2, 78360, Note_on_c, 0, 87, 81
2, 78364, Control_c, 0, 64, 0
2, 78372, Note_on_c, 0, 60, 75
2, 78428, Note_off_c, 0, 87, 64
2, 78432, Note_on_c, 0, 88, 81
2, 78476, Control_c, 0, 64, 24
2, 78488, Control_c, 0, 64, 40
2, 78504, Note_on_c, 0, 89, 83
2, 78504, Control_c, 0, 64, 56
2, 78508, Note_on_c, 0, 69, 48
2, 78512, Note_off_c, 0, 88, 0
2, 78516, Control_c, 0, 64, 72
2, 78568, Note_off_c, 0, 89, 0
2, 78568, Note_on_c, 0, 90, 65
2, 78600, Control_c, 0, 64, 88
2, 78632, Note_off_c, 0, 60, 64
2, 78640, Note_off_c, 0, 90, 0
2, 78640, Note_on_c, 0, 91, 69
2, 78640, Note_on_c, 0, 63, 49
2, 78652, Control_c, 0, 64, 104
2, 78696, Note_off_c, 0, 91, 0
2, 78712, Note_on_c, 0, 92, 68
2, 78724, Control_c, 0, 64, 127
2, 78732, Note_off_c, 0, 69, 0
2, 78772, Note_off_c, 0, 92, 0
2, 78792, Note_on_c, 0, 93, 70
2, 78792, Note_on_c, 0, 59, 68
2, 78800, Control_c, 0, 64, 72
2, 78812, Control_c, 0, 64, 40
2, 78820, Note_off_c, 0, 63, 0
2, 78824, Control_c, 0, 64, 0
2, 78860, Note_on_c, 0, 94, 71
2, 78864, Note_off_c, 0, 93, 0
2, 78884, Control_c, 0, 64, 24
2, 78896, Control_c, 0, 64, 56
2, 78912, Control_c, 0, 64, 88
2, 78924, Control_c, 0, 64, 104
2, 78928, Note_on_c, 0, 95, 76
2, 78928, Note_on_c, 0, 69, 64
2, 78936, Control_c, 0, 64, 127
2, 78940, Note_off_c, 0, 94, 0
2, 78992, Note_off_c, 0, 95, 0
2, 79004, Note_on_c, 0, 96, 80
2, 79028, Note_off_c, 0, 59, 0
2, 79084, Note_off_c, 0, 96, 0
2, 79084, Note_on_c, 0, 93, 74
2, 79084, Note_on_c, 0, 63, 52
2, 79156, Note_off_c, 0, 63, 0
2, 79164, Note_on_c, 0, 90, 70
2, 79168, Note_off_c, 0, 93, 0
2, 79184, Control_c, 0, 64, 104
2, 79196, Control_c, 0, 64, 88
2, 79208, Control_c, 0, 64, 72
2, 79216, Note_off_c, 0, 90, 0
2, 79220, Control_c, 0, 64, 24
2, 79232, Control_c, 0, 64, 0
2, 79236, Note_on_c, 0, 86, 76
2, 79236, Note_on_c, 0, 59, 70
2, 79284, Control_c, 0, 64, 127
2, 79304, Note_on_c, 0, 90, 72
2, 79320, Note_on_c, 0, 90, 65
2, 79324, Note_off_c, 0, 86, 0
2, 79372, Note_off_c, 0, 90, 0
2, 79376, Control_c, 0, 64, 104
2, 79384, Note_on_c, 0, 87, 73
2, 79384, Control_c, 0, 64, 88
2, 79396, Note_off_c, 0, 90, 0
2, 79396, Control_c, 0, 64, 56
2, 79404, Control_c, 0, 64, 40
2, 79412, Control_c, 0, 64, 0
2, 79440, Note_off_c, 0, 87, 0
2, 79456, Note_on_c, 0, 93, 76
2, 79480, Note_off_c, 0, 69, 0
2, 79492, Note_off_c, 0, 93, 0
2, 79516, Note_on_c, 0, 90, 68
2, 79572, Note_off_c, 0, 90, 0
2, 79584, Note_on_c, 0, 87, 73
2, 79640, Note_off_c, 0, 87, 0
2, 79664, Note_on_c, 0, 83, 74
2, 79728, Note_on_c, 0, 87, 77
2, 79748, Note_off_c, 0, 83, 0
2, 79784, Note_off_c, 0, 87, 0
2, 79796, Note_on_c, 0, 84, 82
2, 79852, Note_off_c, 0, 84, 0
2, 79864, Note_on_c, 0, 90, 80
2, 79872, Note_off_c, 0, 59, 64
2, 79916, Note_off_c, 0, 90, 0
2, 79928, Note_on_c, 0, 87, 74
2, 79984, Note_off_c, 0, 87, 0
2, 79996, Note_on_c, 0, 84, 79
2, 80048, Note_off_c, 0, 84, 0
2, 80064, Note_on_c, 0, 80, 74
2, 80140, Note_on_c, 0, 84, 66
2, 80152, Note_off_c, 0, 80, 0
2, 80192, Note_off_c, 0, 84, 0
2, 80208, Note_on_c, 0, 81, 74
2, 80264, Note_off_c, 0, 81, 0
2, 80280, Note_on_c, 0, 87, 73
2, 80324, Note_off_c, 0, 87, 0
2, 80348, Note_on_c, 0, 84, 72
2, 80400, Note_off_c, 0, 84, 0
2, 80420, Note_on_c, 0, 81, 78
2, 80468, Note_off_c, 0, 81, 0
2, 80492, Note_on_c, 0, 77, 79
2, 80552, Note_off_c, 0, 77, 0
2, 80556, Note_on_c, 0, 81, 77
2, 80616, Note_off_c, 0, 81, 0
2, 80628, Note_on_c, 0, 78, 77
2, 80684, Note_off_c, 0, 78, 0
2, 80708, Note_on_c, 0, 84, 75
2, 80744, Note_off_c, 0, 84, 0
2, 80776, Note_on_c, 0, 81, 71
2, 80828, Note_off_c, 0, 81, 0
2, 80836, Note_on_c, 0, 78, 71
2, 80900, Note_off_c, 0, 78, 0
2, 80916, Note_on_c, 0, 74, 70
2, 80916, Note_on_c, 0, 35, 63
2, 80972, Note_off_c, 0, 35, 0
2, 80984, Note_on_c, 0, 78, 71
2, 80988, Note_off_c, 0, 74, 0
2, 81044, Note_off_c, 0, 78, 0
2, 81060, Note_on_c, 0, 75, 78
2, 81060, Note_on_c, 0, 36, 65
2, 81112, Note_off_c, 0, 75, 0
2, 81116, Note_off_c, 0, 36, 0
2, 81136, Note_on_c, 0, 81, 78
2, 81180, Note_off_c, 0, 81, 0
2, 81200, Note_on_c, 0, 78, 73
2, 81208, Note_on_c, 0, 37, 67
2, 81260, Note_off_c, 0, 78, 0
2, 81264, Note_on_c, 0, 75, 76
2, 81320, Note_off_c, 0, 37, 0
2, 81324, Note_off_c, 0, 75, 0
2, 81344, Note_on_c, 0, 71, 74
2, 81348, Note_on_c, 0, 38, 69
2, 81404, Note_on_c, 0, 75, 75
2, 81408, Note_off_c, 0, 71, 0
2, 81412, Note_off_c, 0, 38, 0
2, 81464, Note_off_c, 0, 75, 0
2, 81476, Note_on_c, 0, 72, 84
2, 81480, Note_on_c, 0, 39, 71
2, 81528, Note_off_c, 0, 72, 0
2, 81536, Note_off_c, 0, 39, 0
2, 81544, Note_on_c, 0, 78, 77
2, 81604, Note_off_c, 0, 78, 0
2, 81616, Note_on_c, 0, 75, 75
2, 81628, Note_on_c, 0, 40, 73
2, 81676, Note_off_c, 0, 75, 0
2, 81680, Note_on_c, 0, 72, 81
2, 81684, Note_off_c, 0, 40, 0
2, 81736, Note_off_c, 0, 72, 0
2, 81752, Note_on_c, 0, 68, 72
2, 81760, Note_on_c, 0, 41, 75
2, 81808, Note_off_c, 0, 41, 0
2, 81828, Note_on_c, 0, 72, 81
2, 81848, Note_off_c, 0, 68, 0
2, 81892, Note_off_c, 0, 72, 0
2, 81904, Note_on_c, 0, 69, 80
2, 81908, Note_on_c, 0, 42, 77
2, 81912, Note_on_c, 0, 30, 78
2, 81956, Note_off_c, 0, 30, 0
2, 81960, Note_off_c, 0, 69, 0
2, 81976, Note_on_c, 0, 75, 79
2, 81988, Note_off_c, 0, 42, 0
2, 82032, Note_off_c, 0, 75, 0
2, 82048, Note_on_c, 0, 43, 79
2, 82052, Note_on_c, 0, 72, 80
2, 82056, Note_on_c, 0, 31, 76
2, 82096, Note_off_c, 0, 43, 0
2, 82096, Note_off_c, 0, 31, 0
2, 82104, Note_off_c, 0, 72, 0
2, 82116, Note_on_c, 0, 69, 79
2, 82164, Note_off_c, 0, 69, 0
2, 82192, Note_on_c, 0, 65, 71
2, 82192, Note_on_c, 0, 44, 81
2, 82196, Note_on_c, 0, 32, 79
2, 82232, Note_off_c, 0, 32, 0
2, 82248, Note_off_c, 0, 65, 0
2, 82256, Note_on_c, 0, 69, 79
2, 82260, Note_off_c, 0, 44, 0
2, 82316, Note_off_c, 0, 69, 0
2, 82328, Note_on_c, 0, 66, 75
2, 82340, Note_on_c, 0, 45, 83
2, 82344, Note_on_c, 0, 33, 73
2, 82388, Note_off_c, 0, 45, 0
2, 82392, Note_off_c, 0, 66, 0
2, 82396, Note_off_c, 0, 33, 0
2, 82404, Note_on_c, 0, 72, 83
2, 82460, Note_off_c, 0, 72, 0
2, 82468, Note_on_c, 0, 69, 77
2, 82472, Note_on_c, 0, 34, 80
2, 82476, Note_on_c, 0, 46, 85
2, 82532, Note_off_c, 0, 69, 0
2, 82532, Note_on_c, 0, 66, 77
2, 82536, Note_off_c, 0, 34, 0
2, 82548, Note_off_c, 0, 46, 0
2, 82592, Note_off_c, 0, 66, 0
2, 82608, Note_on_c, 0, 62, 80
2, 82616, Note_on_c, 0, 47, 87
2, 82616, Note_on_c, 0, 35, 81
2, 82656, Note_off_c, 0, 35, 0
2, 82676, Note_off_c, 0, 47, 0
2, 82676, Note_on_c, 0, 66, 75
2, 82684, Note_off_c, 0, 62, 0
2, 82744, Note_off_c, 0, 66, 0
2, 82752, Note_on_c, 0, 63, 74
2, 82756, Note_on_c, 0, 48, 91
2, 82768, Note_on_c, 0, 36, 83
2, 82784, Note_off_c, 0, 36, 0
2, 82796, Note_off_c, 0, 48, 0
2, 82812, Note_off_c, 0, 63, 0
2, 82828, Note_on_c, 0, 69, 79
2, 82888, Note_off_c, 0, 69, 0
2, 82896, Note_on_c, 0, 47, 95
2, 82896, Note_on_c, 0, 35, 89
2, 82896, Note_on_c, 0, 66, 63
2, 82904, Control_c, 0, 64, 40
2, 82912, Control_c, 0, 64, 56
2, 82920, Control_c, 0, 64, 88
2, 82924, Note_off_c, 0, 35, 0
2, 82928, Note_off_c, 0, 47, 0
2, 82928, Control_c, 0, 64, 104
2, 82940, Control_c, 0, 64, 127
2, 82968, Note_on_c, 0, 63, 68
2, 82976, Note_off_c, 0, 66, 0
2, 82996, Control_c, 0, 64, 104
2, 83004, Control_c, 0, 64, 72
2, 83012, Control_c, 0, 64, 40
2, 83020, Control_c, 0, 64, 0
2, 83036, Note_off_c, 0, 63, 0
2, 83048, Note_on_c, 0, 54, 100
2, 83048, Note_on_c, 0, 59, 85
2, 83048, Note_on_c, 0, 42, 90
2, 83112, Control_c, 0, 64, 24
2, 83120, Note_off_c, 0, 59, 0
2, 83120, Note_on_c, 0, 63, 71
2, 83120, Control_c, 0, 64, 40
2, 83128, Control_c, 0, 64, 56
2, 83152, Control_c, 0, 64, 72
2, 83176, Note_off_c, 0, 63, 0
2, 83184, Control_c, 0, 64, 88
2, 83188, Note_on_c, 0, 60, 76
2, 83236, Note_off_c, 0, 60, 0
2, 83252, Note_on_c, 0, 66, 70
2, 83292, Control_c, 0, 64, 72
2, 83312, Note_off_c, 0, 66, 0
2, 83312, Control_c, 0, 64, 56
2, 83320, Control_c, 0, 64, 40
2, 83324, Note_on_c, 0, 63, 69
2, 83328, Control_c, 0, 64, 0
2, 83384, Control_c, 0, 64, 24
2, 83392, Note_off_c, 0, 63, 0
2, 83392, Control_c, 0, 64, 56
2, 83396, Note_on_c, 0, 60, 72
2, 83400, Control_c, 0, 64, 72
2, 83408, Control_c, 0, 64, 88
2, 83440, Note_off_c, 0, 60, 0
2, 83444, Control_c, 0, 64, 104
2, 83460, Note_off_c, 0, 42, 0
2, 83460, Note_on_c, 0, 56, 64
2, 83468, Control_c, 0, 64, 72
2, 83476, Control_c, 0, 64, 56
2, 83484, Control_c, 0, 64, 40
2, 83492, Control_c, 0, 64, 24
2, 83516, Control_c, 0, 64, 56
2, 83524, Control_c, 0, 64, 72
2, 83532, Control_c, 0, 64, 88
2, 83536, Note_on_c, 0, 60, 73
2, 83536, Note_on_c, 0, 61, 36
2, 83548, Control_c, 0, 64, 104
2, 83556, Note_off_c, 0, 56, 0
2, 83568, Note_off_c, 0, 61, 0
2, 83580, Control_c, 0, 64, 127
2, 83588, Note_off_c, 0, 60, 0
2, 83600, Note_on_c, 0, 57, 73
2, 83652, Note_off_c, 0, 57, 0
2, 83664, Note_on_c, 0, 63, 71
2, 83664, Control_c, 0, 64, 104
2, 83672, Control_c, 0, 64, 88
2, 83680, Control_c, 0, 64, 72
2, 83688, Control_c, 0, 64, 56
2, 83716, Control_c, 0, 64, 72
2, 83720, Note_off_c, 0, 63, 0
2, 83732, Note_off_c, 0, 54, 0
2, 83736, Note_on_c, 0, 60, 68
2, 83740, Control_c, 0, 64, 104
2, 83772, Control_c, 0, 64, 127
2, 83800, Note_off_c, 0, 60, 0
2, 83808, Note_on_c, 0, 57, 58
2, 83832, Note_off_c, 0, 57, 0
2, 83876, Note_on_c, 0, 50, 64
2, 83888, Control_c, 0, 64, 72
2, 83896, Control_c, 0, 64, 24
2, 83904, Control_c, 0, 64, 0
2, 83936, Note_off_c, 0, 50, 0
2, 83944, Note_on_c, 0, 54, 68
2, 83952, Control_c, 0, 64, 40
2, 83964, Control_c, 0, 64, 88
2, 83972, Control_c, 0, 64, 104
2, 83980, Control_c, 0, 64, 127
2, 84000, Note_off_c, 0, 54, 0
2, 84012, Note_on_c, 0, 51, 75
2, 84064, Control_c, 0, 64, 104
2, 84072, Note_off_c, 0, 51, 0
2, 84072, Control_c, 0, 64, 56
2, 84076, Control_c, 0, 64, 24
2, 84088, Note_on_c, 0, 57, 68
2, 84088, Control_c, 0, 64, 0
2, 84112, Control_c, 0, 64, 56
2, 84120, Control_c, 0, 64, 88
2, 84128, Note_off_c, 0, 57, 0
2, 84128, Control_c, 0, 64, 104
2, 84136, Control_c, 0, 64, 127
2, 84152, Note_on_c, 0, 54, 61
2, 84208, Note_off_c, 0, 54, 0
2, 84224, Note_on_c, 0, 48, 69
2, 84284, Note_off_c, 0, 48, 0
2, 84300, Note_on_c, 0, 47, 73
2, 84316, Note_on_c, 0, 35, 73
2, 84316, Control_c, 0, 64, 104
2, 84324, Control_c, 0, 64, 88
2, 84336, Control_c, 0, 64, 40
2, 84344, Control_c, 0, 64, 0
2, 84368, Note_on_c, 0, 48, 65
2, 84372, Note_off_c, 0, 47, 0
2, 84408, Control_c, 0, 64, 40
2, 84416, Note_off_c, 0, 48, 0
2, 84416, Control_c, 0, 64, 72
2, 84424, Control_c, 0, 64, 88
2, 84432, Control_c, 0, 64, 104
2, 84444, Note_on_c, 0, 51, 65
2, 84500, Note_off_c, 0, 51, 0
2, 84520, Note_on_c, 0, 57, 66
2, 84556, Note_off_c, 0, 57, 0
2, 84584, Note_on_c, 0, 54, 65
2, 84620, Note_off_c, 0, 35, 0
2, 84636, Note_off_c, 0, 54, 0
2, 84660, Note_on_c, 0, 48, 65
2, 84668, Note_on_c, 0, 36, 65
2, 84712, Note_off_c, 0, 36, 0
2, 84720, Note_off_c, 0, 48, 0
2, 84732, Note_on_c, 0, 47, 74
2, 84732, Control_c, 0, 64, 72
2, 84740, Control_c, 0, 64, 40
2, 84744, Note_on_c, 0, 35, 74
2, 84748, Control_c, 0, 64, 0
2, 84796, Note_off_c, 0, 47, 0
2, 84800, Note_on_c, 0, 48, 66
2, 84840, Control_c, 0, 64, 40
2, 84848, Control_c, 0, 64, 72
2, 84852, Note_off_c, 0, 48, 0
2, 84880, Note_on_c, 0, 51, 65
2, 84888, Control_c, 0, 64, 56
2, 84928, Control_c, 0, 64, 72
2, 84932, Note_off_c, 0, 51, 0
2, 84936, Control_c, 0, 64, 88
2, 84952, Note_on_c, 0, 57, 64
2, 84968, Control_c, 0, 64, 104
2, 84984, Note_off_c, 0, 35, 0
2, 84988, Note_off_c, 0, 57, 0
2, 84996, Control_c, 0, 64, 127
2, 85012, Note_on_c, 0, 54, 64
2, 85068, Note_off_c, 0, 54, 0
2, 85084, Note_on_c, 0, 48, 65
2, 85092, Note_on_c, 0, 36, 65
2, 85128, Note_off_c, 0, 36, 0
2, 85148, Note_off_c, 0, 48, 0
2, 85160, Note_on_c, 0, 47, 76
2, 85164, Note_on_c, 0, 35, 75
2, 85168, Control_c, 0, 64, 72
2, 85176, Control_c, 0, 64, 24
2, 85184, Control_c, 0, 64, 0
2, 85212, Note_off_c, 0, 47, 0
2, 85224, Note_on_c, 0, 48, 64
2, 85244, Control_c, 0, 64, 40
2, 85252, Control_c, 0, 64, 72
2, 85260, Control_c, 0, 64, 88
2, 85268, Control_c, 0, 64, 104
2, 85276, Control_c, 0, 64, 127
2, 85280, Note_off_c, 0, 48, 0
2, 85296, Note_on_c, 0, 54, 64
2, 85300, Note_off_c, 0, 35, 0
2, 85352, Note_off_c, 0, 54, 0
2, 85376, Note_on_c, 0, 57, 64
2, 85412, Note_off_c, 0, 57, 0
2, 85444, Note_on_c, 0, 51, 63
2, 85500, Note_off_c, 0, 51, 0
2, 85516, Note_on_c, 0, 48, 63
2, 85520, Note_on_c, 0, 36, 63
2, 85568, Note_off_c, 0, 36, 0
2, 85576, Note_off_c, 0, 48, 0
2, 85592, Note_on_c, 0, 47, 74
2, 85600, Note_on_c, 0, 35, 74
2, 85600, Control_c, 0, 64, 72
2, 85608, Control_c, 0, 64, 24
2, 85616, Control_c, 0, 64, 0
2, 85644, Note_off_c, 0, 47, 0
2, 85656, Note_on_c, 0, 48, 64
2, 85672, Control_c, 0, 64, 56
2, 85680, Control_c, 0, 64, 104
2, 85688, Control_c, 0, 64, 127
2, 85708, Note_off_c, 0, 48, 0
2, 85720, Note_off_c, 0, 35, 0
2, 85728, Note_on_c, 0, 51, 63
2, 85788, Note_off_c, 0, 51, 0
2, 85800, Note_on_c, 0, 57, 64
2, 85848, Note_off_c, 0, 57, 0
2, 85860, Note_on_c, 0, 54, 64
2, 85920, Note_off_c, 0, 54, 0
2, 85932, Note_on_c, 0, 36, 65
2, 85936, Note_on_c, 0, 48, 65
2, 85972, Note_off_c, 0, 36, 0
2, 86000, Note_off_c, 0, 48, 0
2, 86012, Note_on_c, 0, 47, 74
2, 86012, Control_c, 0, 64, 88
2, 86016, Note_on_c, 0, 35, 73
2, 86020, Control_c, 0, 64, 40
2, 86028, Control_c, 0, 64, 0
2, 86068, Control_c, 0, 64, 40
2, 86076, Control_c, 0, 64, 88
2, 86084, Control_c, 0, 64, 127
2, 86156, Note_off_c, 0, 47, 0
2, 86172, Note_on_c, 0, 42, 46
2, 86196, Note_off_c, 0, 35, 0
2, 86224, Note_off_c, 0, 42, 0
2, 86248, Note_on_c, 0, 45, 57
2, 86280, Note_off_c, 0, 45, 0
2, 86300, Note_on_c, 0, 48, 85
2, 86312, Note_on_c, 0, 42, 50
2, 86368, Note_off_c, 0, 42, 0
2, 86380, Note_on_c, 0, 39, 36
2, 86444, Note_off_c, 0, 39, 0
2, 86456, Note_off_c, 0, 48, 0
2, 86460, Note_on_c, 0, 47, 85
2, 86472, Note_on_c, 0, 35, 51
2, 86480, Control_c, 0, 64, 88
2, 86492, Control_c, 0, 64, 40
2, 86500, Control_c, 0, 64, 0
2, 86540, Control_c, 0, 64, 24
2, 86548, Note_on_c, 0, 39, 46
2, 86548, Control_c, 0, 64, 88
2, 86556, Control_c, 0, 64, 127
2, 86608, Note_off_c, 0, 47, 0
2, 86616, Note_off_c, 0, 39, 0
2, 86616, Note_on_c, 0, 42, 55
2, 86704, Note_on_c, 0, 45, 64
2, 86708, Note_off_c, 0, 42, 0
2, 86748, Note_on_c, 0, 54, 77
2, 86788, Note_off_c, 0, 45, 0
2, 86796, Note_off_c, 0, 35, 0
2, 86800, Note_on_c, 0, 42, 58
2, 86892, Note_off_c, 0, 42, 0
2, 86900, Note_off_c, 0, 54, 0
2, 86904, Note_on_c, 0, 47, 82
2, 86920, Control_c, 0, 64, 72
2, 86924, Note_on_c, 0, 35, 46
2, 86928, Control_c, 0, 64, 0
2, 86972, Control_c, 0, 64, 40
2, 86980, Control_c, 0, 64, 88
2, 86988, Control_c, 0, 64, 127
2, 87008, Note_off_c, 0, 47, 0
2, 87012, Note_on_c, 0, 39, 61
2, 87080, Note_on_c, 0, 42, 50
2, 87116, Note_off_c, 0, 39, 0
2, 87188, Note_off_c, 0, 42, 0
2, 87200, Note_on_c, 0, 60, 83
2, 87256, Note_on_c, 0, 42, 62
2, 87276, Note_off_c, 0, 35, 0
2, 87336, Note_off_c, 0, 42, 0
2, 87340, Note_off_c, 0, 60, 0
2, 87340, Note_on_c, 0, 39, 47
2, 87360, Note_on_c, 0, 59, 75
2, 87392, Note_off_c, 0, 39, 0
2, 87400, Control_c, 0, 64, 72
2, 87408, Control_c, 0, 64, 0
2, 87416, Note_on_c, 0, 35, 40
2, 87464, Control_c, 0, 64, 72
2, 87472, Control_c, 0, 64, 127
2, 87500, Note_off_c, 0, 59, 0
2, 87504, Note_on_c, 0, 51, 58
2, 87508, Note_on_c, 0, 57, 67
2, 87516, Note_on_c, 0, 42, 52
2, 87572, Note_off_c, 0, 42, 0
2, 87584, Note_on_c, 0, 47, 54
2, 87628, Note_off_c, 0, 57, 0
2, 87640, Note_on_c, 0, 63, 79
2, 87648, Note_off_c, 0, 35, 0
2, 87668, Note_on_c, 0, 42, 52
2, 87684, Note_off_c, 0, 51, 0
2, 87708, Note_off_c, 0, 42, 0
2, 87736, Note_off_c, 0, 47, 0
2, 87756, Note_off_c, 0, 63, 0
2, 87776, Control_c, 0, 64, 104
2, 87796, Control_c, 0, 64, 88
2, 87804, Control_c, 0, 64, 56
2, 87808, Note_on_c, 0, 64, 79
2, 87812, Note_on_c, 0, 40, 48
2, 87816, Control_c, 0, 64, 24
2, 87824, Control_c, 0, 64, 0
2, 87920, Note_on_c, 0, 47, 48
2, 87928, Control_c, 0, 64, 72
2, 87940, Control_c, 0, 64, 104
2, 87948, Control_c, 0, 64, 127
2, 87984, Note_on_c, 0, 55, 60
2, 88040, Note_off_c, 0, 47, 0
2, 88056, Note_on_c, 0, 52, 56
2, 88080, Note_off_c, 0, 40, 0
2, 88116, Note_on_c, 0, 59, 79
2, 88120, Note_off_c, 0, 64, 0
2, 88120, Note_off_c, 0, 55, 0
2, 88152, Note_off_c, 0, 52, 0
2, 88160, Note_on_c, 0, 47, 52
2, 88236, Control_c, 0, 64, 88
2, 88240, Note_off_c, 0, 59, 0
2, 88244, Note_off_c, 0, 47, 0
2, 88244, Control_c, 0, 64, 56
2, 88252, Control_c, 0, 64, 0
2, 88256, Note_on_c, 0, 60, 80
2, 88264, Note_on_c, 0, 45, 58
2, 88368, Control_c, 0, 64, 104
2, 88380, Note_on_c, 0, 48, 55
2, 88380, Control_c, 0, 64, 127
2, 88396, Note_on_c, 0, 54, 60
2, 88456, Note_off_c, 0, 48, 0
2, 88476, Note_on_c, 0, 52, 54
2, 88516, Note_off_c, 0, 60, 0
2, 88536, Note_on_c, 0, 63, 80
2, 88544, Note_off_c, 0, 52, 0
2, 88548, Note_off_c, 0, 45, 0
2, 88556, Note_off_c, 0, 54, 0
2, 88556, Note_on_c, 0, 48, 63
2, 88612, Note_off_c, 0, 48, 0
2, 88660, Note_off_c, 0, 63, 0
2, 88692, Note_on_c, 0, 64, 80
2, 88692, Control_c, 0, 64, 104
2, 88704, Control_c, 0, 64, 72
2, 88712, Note_on_c, 0, 40, 43
2, 88712, Control_c, 0, 64, 0
2, 88804, Note_on_c, 0, 47, 43
2, 88816, Control_c, 0, 64, 104
2, 88828, Control_c, 0, 64, 127
2, 88836, Note_on_c, 0, 55, 61
2, 88892, Note_off_c, 0, 47, 0
2, 88900, Note_on_c, 0, 52, 55
2, 88952, Note_off_c, 0, 64, 0
2, 88972, Note_on_c, 0, 59, 76
2, 88996, Note_off_c, 0, 52, 0
2, 88996, Note_on_c, 0, 47, 47
2, 89000, Note_off_c, 0, 40, 0
2, 89088, Note_off_c, 0, 55, 0
2, 89108, Note_off_c, 0, 47, 0
2, 89108, Note_off_c, 0, 59, 0
2, 89124, Note_on_c, 0, 60, 77
2, 89132, Note_on_c, 0, 45, 59
2, 89144, Control_c, 0, 64, 72
2, 89152, Control_c, 0, 64, 0
2, 89228, Control_c, 0, 64, 56
2, 89232, Note_on_c, 0, 48, 60
2, 89240, Control_c, 0, 64, 127
2, 89272, Note_off_c, 0, 60, 0
2, 89276, Note_on_c, 0, 57, 61
2, 89316, Note_off_c, 0, 48, 0
2, 89336, Note_on_c, 0, 52, 53
2, 89404, Note_on_c, 0, 63, 76
2, 89436, Note_off_c, 0, 52, 0
2, 89448, Note_off_c, 0, 45, 0
2, 89448, Note_on_c, 0, 48, 53
2, 89540, Note_off_c, 0, 48, 0
2, 89544, Note_off_c, 0, 57, 0
2, 89552, Note_off_c, 0, 63, 0
2, 89564, Note_on_c, 0, 64, 83
2, 89584, Note_on_c, 0, 40, 51
2, 89600, Control_c, 0, 64, 72
2, 89612, Control_c, 0, 64, 0
2, 89672, Note_on_c, 0, 47, 47
2, 89676, Control_c, 0, 64, 56
2, 89688, Control_c, 0, 64, 127
2, 89704, Note_off_c, 0, 64, 0
2, 89716, Note_on_c, 0, 59, 59
2, 89720, Note_on_c, 0, 55, 59
2, 89748, Note_off_c, 0, 47, 0
2, 89768, Note_on_c, 0, 52, 43
2, 89808, Note_off_c, 0, 55, 0
2, 89816, Note_off_c, 0, 59, 0
2, 89844, Note_on_c, 0, 64, 82
2, 89852, Note_off_c, 0, 40, 0
2, 89856, Note_off_c, 0, 52, 0
2, 89856, Note_on_c, 0, 47, 60
2, 89936, Note_off_c, 0, 64, 0
2, 89940, Note_off_c, 0, 47, 0
2, 89976, Note_on_c, 0, 66, 70
2, 90000, Note_on_c, 0, 64, 82
2, 90004, Note_on_c, 0, 45, 60
2, 90020, Control_c, 0, 64, 72
2, 90028, Note_off_c, 0, 66, 0
2, 90032, Control_c, 0, 64, 0
2, 90108, Control_c, 0, 64, 88
2, 90116, Control_c, 0, 64, 127
2, 90124, Note_off_c, 0, 64, 0
2, 90132, Note_on_c, 0, 63, 77
2, 90136, Note_on_c, 0, 48, 60
2, 90152, Note_on_c, 0, 57, 54
2, 90156, Note_on_c, 0, 60, 31
2, 90176, Note_off_c, 0, 60, 0
2, 90204, Note_off_c, 0, 57, 0
2, 90216, Note_off_c, 0, 48, 0
2, 90228, Note_off_c, 0, 45, 0
2, 90228, Note_on_c, 0, 52, 52
2, 90252, Note_off_c, 0, 63, 0
2, 90268, Note_on_c, 0, 64, 80
2, 90304, Note_off_c, 0, 52, 0
2, 90308, Note_on_c, 0, 48, 64
2, 90400, Note_off_c, 0, 48, 0
2, 90416, Note_off_c, 0, 64, 0
2, 90424, Note_on_c, 0, 67, 82
2, 90436, Note_on_c, 0, 43, 56
2, 90448, Control_c, 0, 64, 72
2, 90460, Control_c, 0, 64, 0
2, 90524, Note_on_c, 0, 50, 59
2, 90548, Control_c, 0, 64, 104
2, 90556, Control_c, 0, 64, 127
2, 90572, Note_on_c, 0, 59, 55
2, 90616, Note_off_c, 0, 50, 0
2, 90628, Note_on_c, 0, 55, 52
2, 90700, Note_off_c, 0, 59, 0
2, 90708, Note_off_c, 0, 55, 0
2, 90712, Note_on_c, 0, 62, 58
2, 90720, Note_on_c, 0, 50, 52
2, 90800, Note_off_c, 0, 43, 0
2, 90832, Note_off_c, 0, 50, 0
2, 90844, Note_on_c, 0, 48, 62
2, 90872, Control_c, 0, 64, 104
2, 90880, Control_c, 0, 64, 40
2, 90892, Control_c, 0, 64, 0
2, 90936, Note_on_c, 0, 51, 60
2, 90956, Note_off_c, 0, 48, 0
2, 90960, Note_off_c, 0, 62, 0
2, 90968, Control_c, 0, 64, 40
2, 90976, Control_c, 0, 64, 104
2, 90980, Note_on_c, 0, 60, 60
2, 90984, Control_c, 0, 64, 127
2, 91028, Note_off_c, 0, 51, 0
2, 91044, Note_on_c, 0, 55, 53
2, 91120, Note_on_c, 0, 63, 56
2, 91128, Note_on_c, 0, 51, 57
2, 91132, Note_off_c, 0, 55, 0
2, 91204, Note_off_c, 0, 60, 0
2, 91232, Note_off_c, 0, 51, 0
2, 91252, Note_on_c, 0, 43, 59
2, 91264, Control_c, 0, 64, 104
2, 91272, Control_c, 0, 64, 40
2, 91284, Control_c, 0, 64, 0
2, 91348, Note_on_c, 0, 50, 49
2, 91356, Control_c, 0, 64, 40
2, 91368, Note_off_c, 0, 63, 0
2, 91368, Control_c, 0, 64, 88
2, 91376, Note_on_c, 0, 59, 61
2, 91376, Control_c, 0, 64, 127
2, 91440, Note_off_c, 0, 50, 0
2, 91448, Note_on_c, 0, 55, 46
2, 91520, Note_off_c, 0, 43, 0
2, 91520, Note_on_c, 0, 62, 79
2, 91532, Note_off_c, 0, 55, 0
2, 91536, Note_off_c, 0, 67, 0
2, 91544, Note_off_c, 0, 59, 0
2, 91544, Note_on_c, 0, 50, 53
2, 91632, Note_off_c, 0, 50, 0
2, 91636, Note_off_c, 0, 62, 0
2, 91660, Note_on_c, 0, 63, 81
2, 91668, Note_on_c, 0, 48, 56
2, 91684, Control_c, 0, 64, 56
2, 91692, Control_c, 0, 64, 0
2, 91760, Note_on_c, 0, 51, 54
2, 91772, Note_off_c, 0, 48, 0
2, 91772, Control_c, 0, 64, 56
2, 91780, Control_c, 0, 64, 127
2, 91812, Note_on_c, 0, 60, 63
2, 91828, Note_on_c, 0, 57, 54
2, 91840, Note_off_c, 0, 63, 0
2, 91860, Note_off_c, 0, 51, 0
2, 91868, Note_on_c, 0, 55, 52
2, 91936, Note_off_c, 0, 60, 0
2, 91940, Note_off_c, 0, 55, 0
2, 91944, Note_on_c, 0, 66, 82
2, 91952, Note_on_c, 0, 51, 52
2, 91988, Note_off_c, 0, 57, 0
2, 92056, Note_off_c, 0, 51, 0
2, 92072, Note_off_c, 0, 66, 0
2, 92080, Note_on_c, 0, 67, 84
2, 92096, Note_on_c, 0, 43, 51
2, 92112, Control_c, 0, 64, 88
2, 92124, Control_c, 0, 64, 0
2, 92168, Note_on_c, 0, 50, 60
2, 92192, Control_c, 0, 64, 40
2, 92200, Control_c, 0, 64, 104
2, 92208, Control_c, 0, 64, 127
2, 92228, Note_on_c, 0, 59, 61
2, 92288, Note_off_c, 0, 50, 0
2, 92292, Note_on_c, 0, 55, 51
2, 92300, Note_off_c, 0, 43, 0
2, 92368, Note_off_c, 0, 67, 0
2, 92368, Note_on_c, 0, 62, 77
2, 92372, Note_off_c, 0, 55, 0
2, 92376, Note_on_c, 0, 50, 55
2, 92404, Note_off_c, 0, 59, 0
2, 92480, Note_off_c, 0, 62, 0
2, 92484, Note_off_c, 0, 50, 0
2, 92508, Note_on_c, 0, 63, 81
2, 92512, Note_on_c, 0, 48, 53
2, 92516, Control_c, 0, 64, 88
2, 92524, Control_c, 0, 64, 0
2, 92612, Note_on_c, 0, 51, 56
2, 92620, Note_off_c, 0, 48, 0
2, 92640, Control_c, 0, 64, 88
2, 92648, Control_c, 0, 64, 127
2, 92672, Note_on_c, 0, 60, 61
2, 92688, Note_on_c, 0, 57, 28
2, 92696, Note_off_c, 0, 51, 0
2, 92708, Note_on_c, 0, 55, 53
2, 92716, Note_off_c, 0, 63, 0
2, 92772, Note_off_c, 0, 55, 0
2, 92780, Note_off_c, 0, 60, 0
2, 92780, Note_on_c, 0, 51, 57
2, 92792, Note_on_c, 0, 66, 79
2, 92848, Note_off_c, 0, 57, 0
2, 92880, Note_off_c, 0, 66, 0
2, 92892, Note_off_c, 0, 51, 0
2, 92940, Note_on_c, 0, 67, 83
2, 92964, Note_on_c, 0, 43, 53
2, 92972, Control_c, 0, 64, 56
2, 92984, Control_c, 0, 64, 0
2, 93048, Control_c, 0, 64, 88
2, 93060, Note_on_c, 0, 50, 54
2, 93060, Control_c, 0, 64, 127
2, 93084, Note_on_c, 0, 62, 62
2, 93096, Note_on_c, 0, 59, 59
2, 93104, Note_off_c, 0, 67, 0
2, 93104, Note_off_c, 0, 43, 0
2, 93136, Note_off_c, 0, 50, 0
2, 93148, Note_on_c, 0, 55, 54
2, 93176, Note_off_c, 0, 62, 0
2, 93200, Note_on_c, 0, 50, 60
2, 93216, Note_off_c, 0, 59, 0
2, 93220, Note_on_c, 0, 67, 85
2, 93244, Note_off_c, 0, 50, 0
2, 93296, Note_off_c, 0, 67, 0
2, 93328, Note_on_c, 0, 69, 75
2, 93344, Note_off_c, 0, 55, 0
2, 93356, Note_on_c, 0, 67, 82
2, 93380, Note_off_c, 0, 69, 0
2, 93384, Note_on_c, 0, 48, 66
2, 93384, Control_c, 0, 64, 104
2, 93392, Control_c, 0, 64, 0
2, 93468, Control_c, 0, 64, 104
2, 93480, Control_c, 0, 64, 127
2, 93484, Note_on_c, 0, 66, 80
2, 93488, Note_off_c, 0, 67, 0
2, 93492, Note_on_c, 0, 52, 55
2, 93496, Note_on_c, 0, 60, 65
2, 93548, Note_off_c, 0, 52, 0
2, 93564, Note_on_c, 0, 55, 42
2, 93576, Note_off_c, 0, 60, 0
2, 93592, Note_off_c, 0, 66, 0
2, 93600, Note_off_c, 0, 48, 0
2, 93632, Note_on_c, 0, 67, 86
2, 93640, Note_on_c, 0, 52, 61
2, 93668, Note_off_c, 0, 55, 0
2, 93684, Note_off_c, 0, 67, 0
2, 93688, Note_off_c, 0, 52, 0
2, 93784, Note_on_c, 0, 71, 90
2, 93800, Note_on_c, 0, 47, 57
2, 93812, Control_c, 0, 64, 88
2, 93824, Control_c, 0, 64, 0
2, 93900, Note_on_c, 0, 54, 50
2, 93920, Note_on_c, 0, 63, 56
2, 93920, Control_c, 0, 64, 72
2, 93928, Control_c, 0, 64, 127
2, 93976, Note_off_c, 0, 54, 0
2, 94008, Note_on_c, 0, 59, 42
2, 94028, Note_off_c, 0, 63, 0
2, 94044, Note_on_c, 0, 66, 57
2, 94072, Note_off_c, 0, 59, 0
2, 94072, Note_on_c, 0, 54, 51
2, 94084, Note_off_c, 0, 47, 0
2, 94156, Note_off_c, 0, 54, 0
2, 94180, Note_on_c, 0, 52, 65
2, 94208, Control_c, 0, 64, 104
2, 94216, Control_c, 0, 64, 24
2, 94224, Control_c, 0, 64, 0
2, 94236, Note_off_c, 0, 66, 0
2, 94284, Control_c, 0, 64, 88
2, 94292, Control_c, 0, 64, 127
2, 94304, Note_on_c, 0, 55, 49
2, 94308, Note_on_c, 0, 64, 58
2, 94368, Note_off_c, 0, 55, 0
2, 94384, Note_on_c, 0, 59, 49
2, 94460, Note_off_c, 0, 52, 0
2, 94464, Note_on_c, 0, 67, 62
2, 94468, Note_off_c, 0, 64, 0
2, 94472, Note_off_c, 0, 59, 0
2, 94476, Note_on_c, 0, 55, 53
2, 94576, Note_off_c, 0, 55, 0
2, 94596, Note_on_c, 0, 47, 59
2, 94624, Control_c, 0, 64, 88
2, 94636, Control_c, 0, 64, 0
2, 94684, Note_off_c, 0, 67, 0
2, 94692, Control_c, 0, 64, 88
2, 94700, Note_on_c, 0, 54, 49
2, 94704, Control_c, 0, 64, 127
2, 94728, Note_on_c, 0, 63, 56
2, 94784, Note_off_c, 0, 54, 0
2, 94792, Note_on_c, 0, 59, 53
2, 94824, Note_off_c, 0, 63, 0
2, 94828, Note_off_c, 0, 47, 0
2, 94852, Note_on_c, 0, 54, 53
2, 94856, Note_off_c, 0, 59, 0
2, 94860, Note_on_c, 0, 66, 77
2, 94872, Note_off_c, 0, 71, 0
2, 94872, Note_off_c, 0, 54, 0
2, 94936, Note_off_c, 0, 66, 0
2, 95020, Note_on_c, 0, 67, 82
2, 95028, Note_on_c, 0, 40, 58
2, 95028, Control_c, 0, 64, 88
2, 95036, Control_c, 0, 64, 0
2, 95096, Control_c, 0, 64, 72
2, 95104, Control_c, 0, 64, 127
2, 95124, Note_on_c, 0, 52, 43
2, 95128, Note_off_c, 0, 40, 0
2, 95148, Note_off_c, 0, 67, 0
2, 95156, Note_off_c, 0, 52, 0
2, 95176, Note_on_c, 0, 64, 63
2, 95184, Note_on_c, 0, 62, 59
2, 95244, Note_on_c, 0, 59, 59
2, 95284, Note_off_c, 0, 64, 0
2, 95288, Note_off_c, 0, 62, 0
2, 95296, Note_on_c, 0, 68, 77
2, 95352, Note_on_c, 0, 52, 64
2, 95360, Note_off_c, 0, 59, 0
2, 95392, Note_off_c, 0, 52, 0
2, 95416, Note_off_c, 0, 68, 0
2, 95448, Note_on_c, 0, 69, 85
2, 95476, Note_on_c, 0, 45, 70
2, 95496, Control_c, 0, 64, 56
2, 95504, Control_c, 0, 64, 0
2, 95572, Control_c, 0, 64, 88
2, 95580, Note_on_c, 0, 52, 52
2, 95580, Control_c, 0, 64, 127
2, 95584, Note_off_c, 0, 45, 0
2, 95612, Note_on_c, 0, 61, 56
2, 95656, Note_off_c, 0, 52, 0
2, 95684, Note_on_c, 0, 57, 43
2, 95712, Note_off_c, 0, 61, 0
2, 95728, Note_on_c, 0, 52, 64
2, 95740, Note_off_c, 0, 57, 0
2, 95744, Note_on_c, 0, 67, 62
2, 95748, Note_off_c, 0, 52, 0
2, 95868, Note_off_c, 0, 67, 0
2, 95876, Note_on_c, 0, 66, 63
2, 95884, Note_on_c, 0, 60, 60
2, 95888, Control_c, 0, 64, 24
2, 95896, Note_on_c, 0, 38, 59
2, 95896, Control_c, 0, 64, 0
2, 95900, Note_off_c, 0, 69, 0
2, 95944, Control_c, 0, 64, 40
2, 95952, Control_c, 0, 64, 127
2, 95984, Note_on_c, 0, 50, 58
2, 95996, Note_off_c, 0, 38, 0
2, 96024, Note_off_c, 0, 50, 0
2, 96088, Note_on_c, 0, 57, 64
2, 96120, Note_off_c, 0, 66, 0
2, 96120, Note_off_c, 0, 57, 0
2, 96140, Note_on_c, 0, 71, 72
2, 96184, Note_on_c, 0, 69, 83
2, 96192, Note_on_c, 0, 50, 67
2, 96208, Note_off_c, 0, 71, 0
2, 96220, Note_off_c, 0, 50, 0
2, 96248, Note_off_c, 0, 69, 0
2, 96260, Note_off_c, 0, 60, 0
2, 96320, Note_on_c, 0, 67, 76
2, 96336, Note_on_c, 0, 43, 63
2, 96344, Control_c, 0, 64, 56
2, 96356, Control_c, 0, 64, 0
2, 96412, Control_c, 0, 64, 56
2, 96420, Control_c, 0, 64, 127
2, 96424, Note_on_c, 0, 50, 66
2, 96484, Note_on_c, 0, 59, 56
2, 96516, Note_off_c, 0, 50, 0
2, 96532, Note_off_c, 0, 43, 0
2, 96544, Note_on_c, 0, 55, 45
2, 96552, Note_off_c, 0, 67, 0
2, 96588, Note_off_c, 0, 59, 0
2, 96592, Note_on_c, 0, 66, 74
2, 96604, Note_on_c, 0, 50, 70
2, 96608, Note_off_c, 0, 55, 0
2, 96620, Note_off_c, 0, 50, 0
2, 96724, Note_off_c, 0, 66, 0
2, 96740, Note_on_c, 0, 64, 82
2, 96748, Control_c, 0, 64, 40
2, 96756, Control_c, 0, 64, 0
2, 96760, Note_on_c, 0, 36, 66
2, 96804, Control_c, 0, 64, 56
2, 96812, Control_c, 0, 64, 127
2, 96828, Note_on_c, 0, 48, 63
2, 96832, Note_off_c, 0, 36, 0
2, 96852, Note_off_c, 0, 48, 0
2, 96884, Note_off_c, 0, 64, 0
2, 96896, Note_on_c, 0, 58, 58
2, 96932, Note_on_c, 0, 54, 67
2, 96968, Note_off_c, 0, 54, 0
2, 97016, Note_on_c, 0, 66, 73
2, 97064, Note_off_c, 0, 58, 0
2, 97092, Note_on_c, 0, 36, 66
2, 97100, Note_off_c, 0, 66, 0
2, 97132, Note_off_c, 0, 36, 0
2, 97184, Note_on_c, 0, 59, 80
2, 97212, Control_c, 0, 64, 40
2, 97224, Control_c, 0, 64, 0
2, 97236, Note_on_c, 0, 35, 24
2, 97292, Control_c, 0, 64, 40
2, 97300, Control_c, 0, 64, 127
2, 97324, Note_on_c, 0, 42, 58
2, 97328, Note_on_c, 0, 51, 60
2, 97384, Note_off_c, 0, 51, 0
2, 97396, Note_off_c, 0, 42, 0
2, 97420, Note_on_c, 0, 47, 48
2, 97456, Note_off_c, 0, 35, 0
2, 97456, Note_on_c, 0, 57, 63
2, 97492, Note_on_c, 0, 42, 44
2, 97504, Note_off_c, 0, 59, 0
2, 97516, Note_off_c, 0, 42, 0
2, 97552, Note_off_c, 0, 47, 0
2, 97604, Note_on_c, 0, 55, 60
2, 97616, Control_c, 0, 64, 88
2, 97624, Note_off_c, 0, 57, 0
2, 97628, Note_on_c, 0, 40, 50
2, 97628, Control_c, 0, 64, 0
2, 97692, Control_c, 0, 64, 127
2, 97704, Note_off_c, 0, 55, 0
2, 97708, Note_on_c, 0, 47, 54
2, 97772, Note_off_c, 0, 47, 0
2, 97780, Note_on_c, 0, 52, 63
2, 97832, Note_on_c, 0, 69, 80
2, 97852, Note_off_c, 0, 52, 0
2, 97864, Note_off_c, 0, 40, 0
2, 97864, Note_on_c, 0, 47, 54
2, 97880, Note_off_c, 0, 69, 0
2, 97904, Note_on_c, 0, 67, 86
2, 97960, Note_off_c, 0, 67, 0
2, 98000, Note_off_c, 0, 47, 0
2, 98044, Note_on_c, 0, 66, 85
2, 98060, Note_on_c, 0, 40, 51
2, 98064, Control_c, 0, 64, 56
2, 98076, Control_c, 0, 64, 0
2, 98140, Control_c, 0, 64, 104
2, 98152, Control_c, 0, 64, 127
2, 98164, Note_on_c, 0, 47, 47
2, 98180, Note_on_c, 0, 59, 55
2, 98192, Note_on_c, 0, 57, 58
2, 98248, Note_off_c, 0, 47, 0
2, 98256, Note_on_c, 0, 51, 64
2, 98288, Note_off_c, 0, 66, 0
2, 98324, Note_off_c, 0, 57, 0
2, 98328, Note_off_c, 0, 51, 0
2, 98336, Note_on_c, 0, 67, 82
2, 98348, Note_off_c, 0, 40, 0
2, 98352, Note_on_c, 0, 47, 55
2, 98360, Note_off_c, 0, 59, 0
2, 98432, Note_off_c, 0, 67, 0
2, 98468, Note_off_c, 0, 47, 0
2, 98480, Note_on_c, 0, 64, 76
2, 98496, Note_on_c, 0, 40, 53
2, 98504, Control_c, 0, 64, 72
2, 98516, Control_c, 0, 64, 0
2, 98592, Note_on_c, 0, 47, 60
2, 98592, Control_c, 0, 64, 72
2, 98600, Control_c, 0, 64, 127
2, 98620, Note_off_c, 0, 64, 0
2, 98632, Note_on_c, 0, 59, 60
2, 98640, Note_on_c, 0, 55, 42
2, 98668, Note_off_c, 0, 47, 0
2, 98680, Note_on_c, 0, 52, 54
2, 98720, Note_off_c, 0, 55, 0
2, 98732, Note_off_c, 0, 40, 0
2, 98740, Note_off_c, 0, 59, 0
2, 98752, Note_off_c, 0, 52, 0
2, 98752, Note_on_c, 0, 66, 77
2, 98764, Note_on_c, 0, 47, 55
2, 98844, Note_off_c, 0, 66, 0
2, 98892, Note_off_c, 0, 47, 0
2, 98896, Note_on_c, 0, 59, 82
2, 98924, Note_on_c, 0, 40, 50
2, 98924, Control_c, 0, 64, 88
2, 98932, Control_c, 0, 64, 0
2, 99000, Control_c, 0, 64, 56
2, 99012, Control_c, 0, 64, 127
2, 99020, Note_on_c, 0, 47, 53
2, 99048, Note_on_c, 0, 54, 42
2, 99056, Note_on_c, 0, 57, 52
2, 99088, Note_off_c, 0, 59, 0
2, 99104, Note_off_c, 0, 47, 0
2, 99112, Note_on_c, 0, 51, 47
2, 99148, Note_off_c, 0, 54, 0
2, 99160, Note_off_c, 0, 57, 0
2, 99184, Note_off_c, 0, 40, 0
2, 99184, Note_off_c, 0, 51, 0
2, 99196, Note_on_c, 0, 59, 58
2, 99204, Note_on_c, 0, 47, 44
2, 99304, Note_off_c, 0, 47, 0
2, 99316, Control_c, 0, 64, 56
2, 99320, Note_on_c, 0, 55, 52
2, 99324, Control_c, 0, 64, 0
2, 99336, Note_on_c, 0, 40, 46
2, 99372, Control_c, 0, 64, 88
2, 99384, Control_c, 0, 64, 127
2, 99388, Note_off_c, 0, 59, 0
2, 99412, Note_off_c, 0, 55, 0
2, 99424, Note_on_c, 0, 47, 54
2, 99492, Note_off_c, 0, 47, 0
2, 99496, Note_on_c, 0, 52, 60
2, 99556, Note_off_c, 0, 40, 0
2, 99572, Note_off_c, 0, 52, 0
2, 99572, Note_on_c, 0, 69, 82
2, 99576, Note_on_c, 0, 47, 49
2, 99616, Note_off_c, 0, 69, 0
2, 99640, Note_on_c, 0, 67, 89
2, 99692, Note_off_c, 0, 67, 0
2, 99752, Note_off_c, 0, 47, 0
2, 99772, Note_on_c, 0, 66, 87
2, 99784, Note_on_c, 0, 40, 48
2, 99792, Control_c, 0, 64, 56
2, 99804, Control_c, 0, 64, 0
2, 99860, Control_c, 0, 64, 56
2, 99872, Control_c, 0, 64, 127
2, 99876, Note_on_c, 0, 47, 48
2, 99912, Note_on_c, 0, 59, 58
2, 99920, Note_on_c, 0, 57, 56
2, 99932, Note_off_c, 0, 40, 0
2, 99964, Note_off_c, 0, 47, 0
2, 99972, Note_on_c, 0, 51, 40
2, 99976, Note_off_c, 0, 66, 0
2, 100032, Note_off_c, 0, 57, 0
2, 100036, Note_off_c, 0, 59, 0
2, 100044, Note_off_c, 0, 51, 0
2, 100048, Note_on_c, 0, 47, 48
2, 100052, Note_on_c, 0, 67, 83
2, 100140, Note_off_c, 0, 67, 0
2, 100176, Note_off_c, 0, 47, 0
2, 100188, Note_on_c, 0, 64, 82
2, 100200, Note_on_c, 0, 40, 49
2, 100204, Control_c, 0, 64, 104
2, 100216, Control_c, 0, 64, 24
2, 100224, Control_c, 0, 64, 0
2, 100272, Control_c, 0, 64, 56
2, 100280, Control_c, 0, 64, 127
2, 100296, Note_on_c, 0, 47, 64
2, 100340, Note_off_c, 0, 64, 0
2, 100344, Note_on_c, 0, 59, 64
2, 100344, Note_on_c, 0, 55, 63
2, 100368, Note_off_c, 0, 55, 0
2, 100380, Note_off_c, 0, 59, 0
2, 100408, Note_off_c, 0, 47, 0
2, 100424, Note_on_c, 0, 52, 63
2, 100504, Note_on_c, 0, 72, 90
2, 100508, Note_off_c, 0, 40, 0
2, 100508, Note_on_c, 0, 60, 70
2, 100516, Note_on_c, 0, 47, 64
2, 100528, Note_off_c, 0, 52, 0
2, 100556, Note_off_c, 0, 60, 0
2, 100576, Note_off_c, 0, 72, 0
2, 100652, Note_off_c, 0, 47, 0
2, 100672, Note_on_c, 0, 71, 93
2, 100676, Note_on_c, 0, 66, 70
2, 100688, Note_on_c, 0, 39, 52
2, 100692, Control_c, 0, 64, 40
2, 100700, Control_c, 0, 64, 0
2, 100760, Control_c, 0, 64, 56
2, 100768, Control_c, 0, 64, 127
2, 100796, Note_off_c, 0, 39, 0
2, 100796, Note_on_c, 0, 47, 55
2, 100804, Note_off_c, 0, 66, 0
2, 100816, Note_on_c, 0, 59, 60
2, 100872, Note_off_c, 0, 47, 0
2, 100880, Note_on_c, 0, 54, 56
2, 100920, Note_off_c, 0, 59, 0
2, 100952, Note_on_c, 0, 66, 62
2, 100956, Note_off_c, 0, 54, 0
2, 100968, Note_on_c, 0, 47, 58
2, 101056, Note_off_c, 0, 47, 0
2, 101072, Note_off_c, 0, 66, 0
2, 101096, Note_on_c, 0, 38, 65
2, 101100, Note_on_c, 0, 59, 63
2, 101112, Control_c, 0, 64, 72
2, 101120, Control_c, 0, 64, 0
2, 101176, Note_off_c, 0, 38, 0
2, 101180, Control_c, 0, 64, 104
2, 101188, Control_c, 0, 64, 127
2, 101192, Note_on_c, 0, 44, 55
2, 101248, Note_off_c, 0, 59, 0
2, 101252, Note_on_c, 0, 65, 64
2, 101276, Note_off_c, 0, 44, 0
2, 101292, Note_on_c, 0, 53, 58
2, 101316, Note_off_c, 0, 71, 0
2, 101368, Note_off_c, 0, 53, 0
2, 101380, Note_off_c, 0, 65, 0
2, 101384, Note_on_c, 0, 59, 63
2, 101388, Note_on_c, 0, 44, 51
2, 101456, Note_off_c, 0, 44, 0
2, 101472, Note_off_c, 0, 59, 0
2, 101532, Note_on_c, 0, 70, 83
2, 101540, Note_on_c, 0, 64, 74
2, 101544, Note_on_c, 0, 37, 62
2, 101552, Control_c, 0, 64, 56
2, 101560, Control_c, 0, 64, 0
2, 101616, Control_c, 0, 64, 88
2, 101628, Control_c, 0, 64, 127
2, 101632, Note_off_c, 0, 37, 0
2, 101652, Note_on_c, 0, 40, 48
2, 101660, Note_off_c, 0, 64, 0
2, 101688, Note_on_c, 0, 58, 63
2, 101708, Note_off_c, 0, 40, 0
2, 101740, Note_on_c, 0, 52, 56
2, 101796, Note_off_c, 0, 52, 0
2, 101804, Note_off_c, 0, 58, 0
2, 101820, Note_off_c, 0, 70, 0
2, 101824, Note_on_c, 0, 64, 64
2, 101848, Note_on_c, 0, 40, 54
2, 101960, Note_off_c, 0, 40, 0
2, 101976, Note_on_c, 0, 69, 84
2, 101980, Note_off_c, 0, 64, 0
2, 101984, Note_on_c, 0, 57, 64
2, 101988, Note_on_c, 0, 36, 64
2, 101992, Control_c, 0, 64, 88
2, 102000, Control_c, 0, 64, 0
2, 102056, Control_c, 0, 64, 56
2, 102068, Control_c, 0, 64, 127
2, 102076, Note_off_c, 0, 36, 0
2, 102088, Note_on_c, 0, 40, 54
2, 102092, Note_off_c, 0, 57, 0
2, 102120, Note_on_c, 0, 64, 65
2, 102156, Note_off_c, 0, 40, 0
2, 102200, Note_on_c, 0, 52, 55
2, 102204, Note_off_c, 0, 69, 0
2, 102244, Note_off_c, 0, 64, 0
2, 102256, Note_off_c, 0, 52, 0
2, 102264, Note_on_c, 0, 57, 63
2, 102292, Note_on_c, 0, 40, 59
2, 102340, Note_off_c, 0, 57, 0
2, 102344, Note_off_c, 0, 40, 0
2, 102404, Note_on_c, 0, 68, 85
2, 102412, Note_on_c, 0, 64, 73
2, 102412, Note_on_c, 0, 35, 66
2, 102420, Control_c, 0, 64, 56
2, 102432, Control_c, 0, 64, 0
2, 102488, Control_c, 0, 64, 56
2, 102496, Control_c, 0, 64, 127
2, 102516, Note_off_c, 0, 64, 0
2, 102520, Note_on_c, 0, 40, 51
2, 102528, Note_off_c, 0, 35, 0
2, 102552, Note_on_c, 0, 56, 64
2, 102564, Note_off_c, 0, 40, 0
2, 102628, Note_on_c, 0, 52, 55
2, 102656, Note_off_c, 0, 56, 0
2, 102672, Note_off_c, 0, 68, 0
2, 102684, Note_off_c, 0, 52, 0
2, 102684, Note_on_c, 0, 64, 63
2, 102732, Note_on_c, 0, 40, 50
2, 102752, Note_off_c, 0, 40, 0
2, 102776, Note_off_c, 0, 64, 0
2, 102840, Note_on_c, 0, 67, 84
2, 102848, Note_on_c, 0, 55, 74
2, 102852, Note_on_c, 0, 34, 63
2, 102852, Control_c, 0, 64, 88
2, 102860, Control_c, 0, 64, 24
2, 102868, Control_c, 0, 64, 0
2, 102916, Control_c, 0, 64, 40
2, 102924, Note_off_c, 0, 34, 0
2, 102928, Note_on_c, 0, 39, 52
2, 102928, Control_c, 0, 64, 127
2, 102948, Note_off_c, 0, 55, 0
2, 102948, Note_off_c, 0, 39, 0
2, 102964, Note_on_c, 0, 40, 53
2, 102988, Note_on_c, 0, 60, 65
2, 103020, Note_off_c, 0, 40, 0
2, 103036, Note_on_c, 0, 48, 57
2, 103096, Note_off_c, 0, 48, 0
2, 103104, Note_off_c, 0, 67, 0
2, 103104, Note_off_c, 0, 60, 0
2, 103120, Note_on_c, 0, 40, 59
2, 103120, Note_on_c, 0, 55, 65
2, 103160, Note_off_c, 0, 40, 0
2, 103236, Note_off_c, 0, 55, 0
2, 103272, Note_on_c, 0, 64, 78
2, 103284, Note_on_c, 0, 60, 69
2, 103292, Note_on_c, 0, 33, 66
2, 103292, Control_c, 0, 64, 56
2, 103300, Control_c, 0, 64, 0
2, 103356, Control_c, 0, 64, 72
2, 103368, Control_c, 0, 64, 127
2, 103376, Note_off_c, 0, 33, 0
2, 103392, Note_on_c, 0, 41, 53
2, 103412, Note_off_c, 0, 60, 0
2, 103424, Note_off_c, 0, 64, 0
2, 103432, Note_on_c, 0, 53, 64
2, 103460, Note_off_c, 0, 41, 0
2, 103476, Note_on_c, 0, 48, 63
2, 103540, Note_off_c, 0, 48, 0
2, 103552, Note_off_c, 0, 53, 0
2, 103560, Note_on_c, 0, 65, 87
2, 103564, Note_on_c, 0, 60, 82
2, 103564, Note_on_c, 0, 41, 60
2, 103592, Note_off_c, 0, 60, 0
2, 103608, Note_off_c, 0, 65, 0
2, 103680, Note_off_c, 0, 41, 0
2, 103724, Note_on_c, 0, 69, 81
2, 103732, Note_on_c, 0, 57, 63
2, 103732, Control_c, 0, 64, 72
2, 103736, Note_on_c, 0, 35, 62
2, 103740, Control_c, 0, 64, 0
2, 103796, Control_c, 0, 64, 104
2, 103804, Note_off_c, 0, 69, 0
2, 103808, Control_c, 0, 64, 127
2, 103836, Note_on_c, 0, 42, 62
2, 103864, Note_off_c, 0, 57, 0
2, 103892, Note_on_c, 0, 59, 64
2, 103904, Note_off_c, 0, 42, 0
2, 103932, Note_on_c, 0, 47, 40
2, 103968, Note_off_c, 0, 59, 0
2, 103980, Note_off_c, 0, 35, 0
2, 103984, Note_on_c, 0, 42, 65
2, 103988, Note_off_c, 0, 47, 0
2, 104016, Note_off_c, 0, 42, 0
2, 104020, Note_on_c, 0, 63, 82
2, 104024, Note_on_c, 0, 51, 82
2, 104084, Note_off_c, 0, 51, 0
2, 104092, Note_off_c, 0, 63, 0
2, 104168, Control_c, 0, 64, 104
2, 104180, Control_c, 0, 64, 24
2, 104184, Note_on_c, 0, 64, 88
2, 104188, Note_on_c, 0, 52, 82
2, 104188, Note_on_c, 0, 28, 62
2, 104188, Control_c, 0, 64, 0
2, 104236, Note_off_c, 0, 52, 0
2, 104236, Control_c, 0, 64, 88
2, 104244, Control_c, 0, 64, 127
2, 104252, Note_on_c, 0, 40, 47
2, 104256, Note_off_c, 0, 28, 0
2, 104276, Note_off_c, 0, 40, 0
2, 104280, Note_off_c, 0, 64, 0
2, 104352, Note_on_c, 0, 55, 60
2, 104460, Note_on_c, 0, 71, 89
2, 104460, Note_on_c, 0, 59, 81
2, 104496, Note_off_c, 0, 55, 0
2, 104512, Note_off_c, 0, 59, 0
2, 104520, Note_on_c, 0, 47, 56
2, 104540, Note_off_c, 0, 71, 0
2, 104544, Note_off_c, 0, 47, 0
2, 104628, Note_on_c, 0, 72, 93
2, 104636, Note_on_c, 0, 60, 72
2, 104652, Note_on_c, 0, 40, 55
2, 104656, Control_c, 0, 64, 72
2, 104664, Control_c, 0, 64, 0
2, 104724, Control_c, 0, 64, 88
2, 104732, Control_c, 0, 64, 127
2, 104740, Note_off_c, 0, 40, 0
2, 104744, Note_on_c, 0, 48, 68
2, 104756, Note_off_c, 0, 60, 0
2, 104764, Note_off_c, 0, 72, 0
2, 104776, Note_on_c, 0, 69, 63
2, 104784, Note_on_c, 0, 66, 49
2, 104796, Note_off_c, 0, 48, 0
2, 104800, Note_off_c, 0, 66, 0
2, 104816, Note_off_c, 0, 69, 0
2, 104844, Note_on_c, 0, 57, 47
2, 104912, Note_on_c, 0, 75, 92
2, 104916, Note_on_c, 0, 63, 77
2, 104944, Note_off_c, 0, 57, 0
2, 104960, Note_on_c, 0, 48, 60
2, 105004, Note_off_c, 0, 48, 0
2, 105008, Note_off_c, 0, 63, 0
2, 105012, Note_off_c, 0, 75, 0
2, 105080, Note_on_c, 0, 76, 87
2, 105088, Note_on_c, 0, 64, 75
2, 105096, Note_on_c, 0, 40, 64
2, 105096, Control_c, 0, 64, 104
2, 105104, Control_c, 0, 64, 24
2, 105116, Control_c, 0, 64, 0
2, 105164, Control_c, 0, 64, 88
2, 105172, Control_c, 0, 64, 127
2, 105188, Note_off_c, 0, 40, 0
2, 105192, Note_off_c, 0, 76, 0
2, 105200, Note_on_c, 0, 47, 56
2, 105228, Note_on_c, 0, 67, 59
2, 105232, Note_off_c, 0, 64, 0
2, 105248, Note_off_c, 0, 47, 0
2, 105272, Note_off_c, 0, 67, 0
2, 105276, Note_on_c, 0, 55, 54
2, 105352, Note_off_c, 0, 55, 0
2, 105360, Note_on_c, 0, 71, 82
2, 105368, Note_on_c, 0, 59, 62
2, 105380, Note_on_c, 0, 47, 62
2, 105404, Note_off_c, 0, 59, 0
2, 105432, Note_off_c, 0, 71, 0
2, 105432, Note_off_c, 0, 47, 0
2, 105516, Note_on_c, 0, 72, 87
2, 105520, Note_on_c, 0, 60, 74
2, 105536, Note_on_c, 0, 40, 55
2, 105536, Control_c, 0, 64, 88
2, 105544, Control_c, 0, 64, 0
2, 105604, Control_c, 0, 64, 72
2, 105612, Note_off_c, 0, 40, 0
2, 105612, Control_c, 0, 64, 127
2, 105632, Note_off_c, 0, 60, 0
2, 105632, Note_on_c, 0, 48, 65
2, 105644, Note_off_c, 0, 72, 0
2, 105656, Note_on_c, 0, 66, 57
2, 105656, Note_on_c, 0, 69, 64
2, 105680, Note_off_c, 0, 48, 0
2, 105692, Note_off_c, 0, 66, 0
2, 105704, Note_off_c, 0, 69, 0
2, 105732, Note_on_c, 0, 57, 50
2, 105792, Note_off_c, 0, 57, 0
2, 105796, Note_on_c, 0, 75, 88
2, 105800, Note_on_c, 0, 63, 77
2, 105836, Note_on_c, 0, 48, 62
2, 105856, Note_off_c, 0, 48, 0
2, 105884, Note_off_c, 0, 63, 0
2, 105900, Note_off_c, 0, 75, 0
2, 105956, Note_on_c, 0, 76, 84
2, 105964, Note_on_c, 0, 64, 70
2, 105968, Note_on_c, 0, 40, 55
2, 105976, Control_c, 0, 64, 104
2, 105984, Control_c, 0, 64, 0
2, 106040, Control_c, 0, 64, 88
2, 106052, Control_c, 0, 64, 127
2, 106060, Note_off_c, 0, 40, 0
2, 106068, Note_on_c, 0, 47, 60
2, 106076, Note_off_c, 0, 64, 0
2, 106080, Note_off_c, 0, 76, 0
2, 106100, Note_on_c, 0, 71, 63
2, 106104, Note_on_c, 0, 67, 55
2, 106136, Note_off_c, 0, 47, 0
2, 106156, Note_off_c, 0, 67, 0
2, 106156, Note_on_c, 0, 55, 57
2, 106212, Note_off_c, 0, 71, 0
2, 106212, Note_off_c, 0, 55, 0
2, 106232, Note_on_c, 0, 47, 67
2, 106236, Note_on_c, 0, 76, 88
2, 106244, Note_on_c, 0, 64, 77
2, 106296, Note_off_c, 0, 47, 0
2, 106352, Note_off_c, 0, 64, 0
2, 106376, Note_off_c, 0, 76, 0
2, 106384, Note_on_c, 0, 72, 64
2, 106392, Note_on_c, 0, 45, 71
2, 106396, Note_on_c, 0, 69, 64
2, 106396, Control_c, 0, 64, 104
2, 106404, Control_c, 0, 64, 0
2, 106452, Control_c, 0, 64, 72
2, 106464, Control_c, 0, 64, 127
2, 106472, Note_off_c, 0, 45, 0
2, 106484, Note_off_c, 0, 69, 0
2, 106492, Note_on_c, 0, 48, 61
2, 106496, Note_off_c, 0, 72, 0
2, 106532, Note_on_c, 0, 75, 86
2, 106540, Note_off_c, 0, 48, 0
2, 106540, Note_on_c, 0, 63, 69
2, 106588, Note_on_c, 0, 60, 54
2, 106608, Note_off_c, 0, 63, 0
2, 106632, Note_off_c, 0, 75, 0
2, 106652, Note_off_c, 0, 60, 0
2, 106672, Note_on_c, 0, 76, 96
2, 106672, Note_on_c, 0, 64, 78
2, 106684, Note_on_c, 0, 48, 64
2, 106708, Note_off_c, 0, 64, 0
2, 106724, Note_off_c, 0, 76, 0
2, 106792, Note_off_c, 0, 48, 0
2, 106824, Note_on_c, 0, 79, 86
2, 106828, Note_on_c, 0, 67, 69
2, 106828, Note_on_c, 0, 43, 58
2, 106836, Control_c, 0, 64, 88
2, 106844, Control_c, 0, 64, 0
2, 106912, Control_c, 0, 64, 104
2, 106920, Control_c, 0, 64, 127
2, 106936, Note_off_c, 0, 43, 0
2, 106936, Note_on_c, 0, 50, 58
2, 106944, Note_off_c, 0, 67, 0
2, 106976, Note_on_c, 0, 74, 63
2, 106980, Note_on_c, 0, 71, 50
2, 107000, Note_off_c, 0, 50, 0
2, 107028, Note_on_c, 0, 59, 42
2, 107044, Note_off_c, 0, 71, 0
2, 107080, Note_off_c, 0, 74, 0
2, 107108, Note_on_c, 0, 67, 62
2, 107116, Note_off_c, 0, 59, 0
2, 107116, Note_on_c, 0, 50, 64
2, 107248, Note_off_c, 0, 50, 0
2, 107252, Note_on_c, 0, 48, 60
2, 107264, Note_on_c, 0, 75, 65
2, 107268, Note_on_c, 0, 72, 69
2, 107276, Note_off_c, 0, 67, 0
2, 107296, Control_c, 0, 64, 24
2, 107304, Control_c, 0, 64, 0
2, 107364, Note_off_c, 0, 48, 0
2, 107368, Note_on_c, 0, 51, 65
2, 107368, Control_c, 0, 64, 127
2, 107392, Note_off_c, 0, 72, 0
2, 107400, Note_off_c, 0, 75, 0
2, 107416, Note_on_c, 0, 67, 66
2, 107448, Note_off_c, 0, 51, 0
2, 107476, Note_on_c, 0, 60, 58
2, 107540, Note_off_c, 0, 60, 0
2, 107552, Note_on_c, 0, 75, 64
2, 107556, Note_on_c, 0, 72, 69
2, 107568, Note_on_c, 0, 51, 60
2, 107576, Note_off_c, 0, 67, 0
2, 107656, Note_off_c, 0, 72, 0
2, 107664, Note_off_c, 0, 51, 0
2, 107684, Note_off_c, 0, 75, 0
2, 107696, Note_on_c, 0, 43, 59
2, 107700, Note_on_c, 0, 67, 65
2, 107716, Control_c, 0, 64, 56
2, 107724, Control_c, 0, 64, 0
2, 107768, Control_c, 0, 64, 40
2, 107780, Control_c, 0, 64, 127
2, 107796, Note_off_c, 0, 43, 0
2, 107800, Note_on_c, 0, 50, 55
2, 107840, Note_off_c, 0, 79, 0
2, 107848, Note_on_c, 0, 74, 63
2, 107852, Note_on_c, 0, 71, 49
2, 107856, Note_off_c, 0, 67, 0
2, 107864, Note_off_c, 0, 50, 0
2, 107872, Note_off_c, 0, 74, 0
2, 107872, Note_off_c, 0, 71, 0
2, 107884, Note_on_c, 0, 59, 44
2, 107936, Note_off_c, 0, 59, 0
2, 107972, Note_on_c, 0, 50, 56
2, 107980, Note_on_c, 0, 74, 88
2, 107988, Note_on_c, 0, 62, 68
2, 108024, Note_off_c, 0, 62, 0
2, 108044, Note_off_c, 0, 74, 0
2, 108136, Note_off_c, 0, 50, 0
2, 108140, Note_on_c, 0, 75, 90
2, 108144, Note_on_c, 0, 63, 78
2, 108144, Control_c, 0, 64, 88
2, 108156, Control_c, 0, 64, 0
2, 108168, Note_on_c, 0, 43, 50
2, 108212, Control_c, 0, 64, 40
2, 108220, Control_c, 0, 64, 127
2, 108240, Note_off_c, 0, 43, 0
2, 108256, Note_on_c, 0, 51, 60
2, 108280, Note_off_c, 0, 75, 0
2, 108288, Note_off_c, 0, 63, 0
2, 108292, Note_on_c, 0, 72, 61
2, 108300, Note_on_c, 0, 69, 45
2, 108320, Note_off_c, 0, 69, 0
2, 108324, Note_off_c, 0, 51, 0
2, 108332, Note_off_c, 0, 72, 0
2, 108352, Note_on_c, 0, 60, 46
2, 108388, Note_off_c, 0, 60, 0
2, 108424, Note_on_c, 0, 78, 92
2, 108428, Note_on_c, 0, 66, 78
2, 108444, Note_on_c, 0, 51, 53
2, 108504, Note_off_c, 0, 66, 0
2, 108524, Note_off_c, 0, 78, 0
2, 108536, Note_off_c, 0, 51, 0
2, 108588, Note_on_c, 0, 79, 89
2, 108596, Note_on_c, 0, 67, 69
2, 108604, Note_on_c, 0, 43, 65
2, 108604, Control_c, 0, 64, 72
2, 108612, Control_c, 0, 64, 0
2, 108668, Control_c, 0, 64, 88
2, 108680, Control_c, 0, 64, 127
2, 108688, Note_off_c, 0, 43, 0
2, 108696, Note_on_c, 0, 50, 63
2, 108712, Note_off_c, 0, 79, 0
2, 108732, Note_on_c, 0, 74, 62
2, 108736, Note_on_c, 0, 71, 53
2, 108752, Note_off_c, 0, 67, 0
2, 108756, Note_off_c, 0, 50, 0
2, 108772, Note_off_c, 0, 74, 0
2, 108776, Note_off_c, 0, 71, 0
2, 108784, Note_on_c, 0, 59, 42
2, 108828, Note_off_c, 0, 59, 0
2, 108868, Note_on_c, 0, 50, 61
2, 108876, Note_on_c, 0, 74, 94
2, 108876, Note_on_c, 0, 62, 74
2, 108908, Note_off_c, 0, 62, 0
2, 108928, Note_off_c, 0, 74, 0
2, 109012, Note_off_c, 0, 50, 0
2, 109024, Note_on_c, 0, 75, 89
2, 109028, Note_on_c, 0, 63, 77
2, 109032, Control_c, 0, 64, 40
2, 109044, Note_on_c, 0, 43, 55
2, 109044, Control_c, 0, 64, 0
2, 109096, Control_c, 0, 64, 104
2, 109108, Control_c, 0, 64, 127
2, 109124, Note_off_c, 0, 43, 0
2, 109140, Note_off_c, 0, 63, 0
2, 109140, Note_off_c, 0, 75, 0
2, 109144, Note_on_c, 0, 51, 57
2, 109176, Note_on_c, 0, 72, 65
2, 109204, Note_off_c, 0, 72, 0
2, 109208, Note_off_c, 0, 51, 0
2, 109248, Note_on_c, 0, 60, 46
2, 109280, Note_off_c, 0, 60, 0
2, 109308, Note_on_c, 0, 78, 92
2, 109312, Note_on_c, 0, 66, 81
2, 109328, Note_on_c, 0, 51, 65
2, 109396, Note_off_c, 0, 66, 0
2, 109400, Note_off_c, 0, 78, 0
2, 109404, Note_off_c, 0, 51, 0
2, 109464, Note_on_c, 0, 79, 88
2, 109468, Note_on_c, 0, 67, 74
2, 109472, Control_c, 0, 64, 104
2, 109484, Note_on_c, 0, 43, 64
2, 109484, Control_c, 0, 64, 0
2, 109540, Control_c, 0, 64, 88
2, 109548, Control_c, 0, 64, 127
2, 109568, Note_on_c, 0, 50, 65
2, 109572, Note_off_c, 0, 43, 0
2, 109580, Note_off_c, 0, 79, 0
2, 109584, Note_off_c, 0, 67, 0
2, 109600, Note_on_c, 0, 74, 64
2, 109612, Note_on_c, 0, 71, 49
2, 109640, Note_off_c, 0, 50, 0
2, 109668, Note_on_c, 0, 59, 30
2, 109676, Note_off_c, 0, 71, 0
2, 109712, Note_off_c, 0, 74, 0
2, 109716, Note_off_c, 0, 59, 0
2, 109732, Note_on_c, 0, 79, 82
2, 109736, Note_on_c, 0, 50, 70
2, 109744, Note_on_c, 0, 67, 70
2, 109816, Note_off_c, 0, 50, 0
2, 109844, Note_off_c, 0, 67, 0
2, 109848, Note_off_c, 0, 79, 0
2, 109880, Note_on_c, 0, 76, 65
2, 109880, Control_c, 0, 64, 88
2, 109884, Note_on_c, 0, 48, 69
2, 109888, Note_on_c, 0, 72, 74
2, 109892, Control_c, 0, 64, 0
2, 109932, Control_c, 0, 64, 24
2, 109940, Control_c, 0, 64, 88
2, 109952, Control_c, 0, 64, 127
2, 109964, Note_off_c, 0, 48, 0
2, 109964, Note_off_c, 0, 72, 0
2, 109984, Note_on_c, 0, 52, 66
2, 109988, Note_off_c, 0, 76, 0
2, 110024, Note_on_c, 0, 78, 86
2, 110028, Note_on_c, 0, 66, 69
2, 110040, Note_off_c, 0, 52, 0
2, 110084, Note_on_c, 0, 62, 53
2, 110096, Note_off_c, 0, 66, 0
2, 110116, Note_off_c, 0, 78, 0
2, 110140, Note_off_c, 0, 62, 0
2, 110160, Note_on_c, 0, 79, 94
2, 110164, Note_on_c, 0, 67, 80
2, 110176, Note_on_c, 0, 52, 45
2, 110200, Note_off_c, 0, 67, 0
2, 110220, Note_off_c, 0, 79, 0
2, 110236, Note_off_c, 0, 52, 0
2, 110320, Note_on_c, 0, 83, 89
2, 110328, Note_on_c, 0, 71, 75
2, 110340, Note_on_c, 0, 47, 63
2, 110340, Control_c, 0, 64, 104
2, 110352, Control_c, 0, 64, 24
2, 110360, Control_c, 0, 64, 0
2, 110420, Control_c, 0, 64, 104
2, 110424, Control_c, 0, 64, 127
2, 110428, Note_off_c, 0, 47, 0
2, 110448, Note_on_c, 0, 54, 50
2, 110456, Note_off_c, 0, 71, 0
2, 110476, Note_on_c, 0, 75, 58
2, 110476, Note_on_c, 0, 78, 63
2, 110516, Note_off_c, 0, 54, 0
2, 110540, Note_on_c, 0, 63, 54
2, 110584, Note_off_c, 0, 75, 0
2, 110584, Note_off_c, 0, 78, 0
2, 110616, Note_on_c, 0, 54, 58
2, 110624, Note_on_c, 0, 71, 65
2, 110628, Note_off_c, 0, 63, 0
2, 110688, Note_off_c, 0, 54, 0
2, 110748, Note_off_c, 0, 71, 0
2, 110756, Note_on_c, 0, 52, 62
2, 110768, Note_on_c, 0, 79, 67
2, 110772, Note_on_c, 0, 76, 62
2, 110772, Control_c, 0, 64, 40
2, 110780, Control_c, 0, 64, 0
2, 110812, Control_c, 0, 64, 40
2, 110820, Control_c, 0, 64, 104
2, 110828, Control_c, 0, 64, 127
2, 110844, Note_off_c, 0, 52, 0
2, 110856, Note_on_c, 0, 55, 59
2, 110864, Note_off_c, 0, 76, 0
2, 110900, Note_off_c, 0, 55, 0
2, 110908, Note_on_c, 0, 71, 63
2, 110912, Note_off_c, 0, 79, 0
2, 110948, Note_on_c, 0, 67, 46
2, 111036, Note_off_c, 0, 67, 0
2, 111052, Note_on_c, 0, 79, 66
2, 111052, Note_on_c, 0, 76, 62
2, 111072, Note_on_c, 0, 55, 58
2, 111092, Note_off_c, 0, 71, 0
2, 111116, Note_off_c, 0, 76, 0
2, 111144, Note_off_c, 0, 55, 0
2, 111192, Note_off_c, 0, 79, 0
2, 111212, Note_on_c, 0, 71, 65
2, 111216, Note_on_c, 0, 51, 74
2, 111228, Control_c, 0, 64, 56
2, 111240, Control_c, 0, 64, 0
2, 111288, Control_c, 0, 64, 104
2, 111296, Control_c, 0, 64, 127
2, 111312, Note_off_c, 0, 51, 0
2, 111316, Note_on_c, 0, 59, 43
2, 111356, Note_on_c, 0, 75, 66
2, 111364, Note_off_c, 0, 83, 0
2, 111384, Note_off_c, 0, 59, 0
2, 111388, Note_off_c, 0, 71, 0
2, 111388, Note_on_c, 0, 66, 56
2, 111424, Note_off_c, 0, 75, 0
2, 111444, Note_off_c, 0, 66, 0
2, 111464, Note_on_c, 0, 59, 52
2, 111492, Note_on_c, 0, 78, 91
2, 111496, Note_on_c, 0, 66, 76
2, 111556, Note_off_c, 0, 59, 0
2, 111564, Note_off_c, 0, 66, 0
2, 111576, Note_off_c, 0, 78, 0
2, 111636, Note_on_c, 0, 50, 62
2, 111636, Note_on_c, 0, 79, 92
2, 111640, Note_on_c, 0, 67, 75
2, 111640, Control_c, 0, 64, 88
2, 111648, Control_c, 0, 64, 0
2, 111696, Control_c, 0, 64, 88
2, 111708, Control_c, 0, 64, 127
2, 111712, Note_off_c, 0, 50, 0
2, 111724, Note_off_c, 0, 67, 0
2, 111728, Note_on_c, 0, 52, 57
2, 111744, Note_off_c, 0, 79, 0
2, 111768, Note_on_c, 0, 76, 70
2, 111776, Note_on_c, 0, 71, 60
2, 111796, Note_off_c, 0, 71, 0
2, 111808, Note_off_c, 0, 52, 0
2, 111828, Note_off_c, 0, 76, 0
2, 111848, Note_on_c, 0, 65, 29
2, 111876, Note_off_c, 0, 65, 0
2, 111908, Note_on_c, 0, 80, 90
2, 111908, Note_on_c, 0, 68, 77
2, 111956, Note_on_c, 0, 52, 31
2, 111964, Note_on_c, 0, 53, 32
2, 111976, Note_off_c, 0, 68, 0
2, 111980, Note_off_c, 0, 53, 0
2, 111996, Note_off_c, 0, 80, 0
2, 112052, Note_off_c, 0, 52, 0
2, 112068, Note_on_c, 0, 81, 85
2, 112072, Note_on_c, 0, 69, 74
2, 112080, Note_on_c, 0, 49, 58
2, 112088, Control_c, 0, 64, 104
2, 112100, Control_c, 0, 64, 24
2, 112108, Control_c, 0, 64, 0
2, 112144, Control_c, 0, 64, 88
2, 112156, Control_c, 0, 64, 127
2, 112172, Note_off_c, 0, 49, 0
2, 112176, Note_on_c, 0, 52, 59
2, 112180, Note_off_c, 0, 69, 0
2, 112204, Note_on_c, 0, 76, 68
2, 112208, Note_on_c, 0, 73, 48
2, 112252, Note_off_c, 0, 52, 0
2, 112280, Note_on_c, 0, 64, 62
2, 112296, Note_off_c, 0, 73, 0
2, 112324, Note_off_c, 0, 76, 0
2, 112332, Note_off_c, 0, 64, 0
2, 112352, Note_on_c, 0, 69, 64
2, 112376, Note_on_c, 0, 52, 54
2, 112480, Note_off_c, 0, 69, 0
2, 112500, Note_off_c, 0, 52, 0
2, 112508, Note_off_c, 0, 81, 0
2, 112508, Note_on_c, 0, 78, 67
2, 112512, Note_on_c, 0, 48, 66
2, 112516, Note_on_c, 0, 74, 78
2, 112548, Control_c, 0, 64, 56
2, 112556, Control_c, 0, 64, 0
2, 112588, Control_c, 0, 64, 24
2, 112596, Control_c, 0, 64, 88
2, 112600, Note_off_c, 0, 74, 0
2, 112608, Control_c, 0, 64, 127
2, 112612, Note_on_c, 0, 54, 63
2, 112628, Note_off_c, 0, 48, 0
2, 112680, Note_off_c, 0, 78, 0
2, 112684, Note_off_c, 0, 54, 0
2, 112700, Note_on_c, 0, 62, 56
2, 112748, Note_on_c, 0, 83, 92
2, 112772, Note_off_c, 0, 62, 0
2, 112776, Note_off_c, 0, 83, 0
2, 112776, Note_on_c, 0, 54, 52
2, 112816, Note_on_c, 0, 81, 97
2, 112820, Note_on_c, 0, 69, 90
2, 112860, Note_off_c, 0, 69, 0
2, 112872, Note_off_c, 0, 81, 0
2, 112928, Note_off_c, 0, 54, 0
2, 112972, Note_on_c, 0, 79, 88
2, 112976, Note_on_c, 0, 67, 76
2, 112976, Note_on_c, 0, 47, 63
2, 112976, Control_c, 0, 64, 72
2, 112988, Control_c, 0, 64, 0
2, 113024, Control_c, 0, 64, 56
2, 113036, Control_c, 0, 64, 127
2, 113044, Note_off_c, 0, 47, 0
2, 113076, Note_on_c, 0, 55, 59
2, 113084, Note_off_c, 0, 79, 0
2, 113096, Note_off_c, 0, 67, 0
2, 113120, Note_on_c, 0, 74, 67
2, 113124, Note_on_c, 0, 71, 55
2, 113156, Note_off_c, 0, 55, 0
2, 113172, Note_on_c, 0, 62, 56
2, 113188, Note_off_c, 0, 71, 0
2, 113224, Note_off_c, 0, 74, 0
2, 113236, Note_off_c, 0, 62, 0
2, 113248, Note_on_c, 0, 78, 83
2, 113256, Note_on_c, 0, 66, 77
2, 113256, Note_on_c, 0, 55, 59
2, 113312, Note_off_c, 0, 78, 0
2, 113312, Note_off_c, 0, 66, 0
2, 113372, Note_off_c, 0, 55, 0
2, 113408, Note_on_c, 0, 76, 85
2, 113412, Note_on_c, 0, 47, 64
2, 113412, Note_on_c, 0, 64, 74
2, 113416, Control_c, 0, 64, 56
2, 113428, Control_c, 0, 64, 0
2, 113464, Control_c, 0, 64, 88
2, 113476, Control_c, 0, 64, 127
2, 113480, Note_off_c, 0, 47, 0
2, 113492, Note_off_c, 0, 64, 0
2, 113496, Note_on_c, 0, 55, 59
2, 113512, Note_off_c, 0, 76, 0
2, 113536, Note_on_c, 0, 73, 66
2, 113540, Note_on_c, 0, 67, 59
2, 113560, Note_off_c, 0, 67, 0
2, 113572, Note_on_c, 0, 61, 50
2, 113580, Note_off_c, 0, 55, 0
2, 113588, Note_off_c, 0, 73, 0
2, 113628, Note_off_c, 0, 61, 0
2, 113632, Note_on_c, 0, 55, 44
2, 113688, Note_on_c, 0, 78, 83
2, 113688, Note_on_c, 0, 66, 78
2, 113708, Note_off_c, 0, 55, 0
2, 113716, Note_off_c, 0, 78, 0
2, 113732, Note_off_c, 0, 66, 0
2, 113740, Note_on_c, 0, 46, 65
2, 113804, Note_off_c, 0, 46, 0
2, 113856, Note_on_c, 0, 71, 83
2, 113864, Note_on_c, 0, 59, 66
2, 113868, Control_c, 0, 64, 88
2, 113876, Note_on_c, 0, 45, 67
2, 113876, Control_c, 0, 64, 0
2, 113924, Control_c, 0, 64, 56
2, 113936, Control_c, 0, 64, 127
2, 113952, Note_off_c, 0, 59, 0
2, 113960, Note_off_c, 0, 45, 0
2, 113964, Note_on_c, 0, 54, 56
2, 114008, Note_on_c, 0, 63, 51
2, 114012, Note_on_c, 0, 66, 54
2, 114036, Note_off_c, 0, 54, 0
2, 114076, Note_off_c, 0, 63, 0
2, 114076, Note_on_c, 0, 59, 24
2, 114088, Note_off_c, 0, 66, 0
2, 114104, Note_off_c, 0, 59, 0
2, 114120, Note_on_c, 0, 54, 53
2, 114156, Note_on_c, 0, 59, 66
2, 114196, Note_off_c, 0, 54, 0
2, 114208, Note_on_c, 0, 45, 64
2, 114240, Note_off_c, 0, 45, 0
2, 114248, Note_off_c, 0, 59, 0
2, 114284, Note_on_c, 0, 67, 68
2, 114288, Note_on_c, 0, 64, 59
2, 114296, Control_c, 0, 64, 40
2, 114300, Note_off_c, 0, 71, 0
2, 114304, Control_c, 0, 64, 0
2, 114312, Note_off_c, 0, 64, 0
2, 114316, Note_on_c, 0, 43, 66
2, 114336, Note_off_c, 0, 67, 0
2, 114336, Control_c, 0, 64, 72
2, 114344, Control_c, 0, 64, 127
2, 114368, Note_off_c, 0, 43, 0
2, 114396, Note_on_c, 0, 52, 62
2, 114448, Note_off_c, 0, 52, 0
2, 114464, Note_on_c, 0, 59, 64
2, 114512, Note_on_c, 0, 81, 82
2, 114516, Note_on_c, 0, 69, 64
2, 114520, Note_off_c, 0, 59, 0
2, 114528, Note_on_c, 0, 52, 69
2, 114536, Note_off_c, 0, 69, 0
2, 114544, Note_off_c, 0, 81, 0
2, 114548, Note_off_c, 0, 52, 0
2, 114584, Note_on_c, 0, 79, 79
2, 114584, Note_on_c, 0, 67, 89
2, 114624, Note_off_c, 0, 67, 0
2, 114632, Note_off_c, 0, 79, 0
2, 114736, Note_on_c, 0, 78, 91
2, 114740, Note_on_c, 0, 66, 85
2, 114744, Control_c, 0, 64, 24
2, 114752, Note_on_c, 0, 39, 64
2, 114756, Control_c, 0, 64, 0
2, 114784, Control_c, 0, 64, 56
2, 114792, Control_c, 0, 64, 127
2, 114804, Note_off_c, 0, 78, 0
2, 114824, Note_off_c, 0, 66, 0
2, 114852, Note_off_c, 0, 39, 0
2, 114860, Note_on_c, 0, 47, 49
2, 114872, Note_on_c, 0, 69, 59
2, 114880, Note_on_c, 0, 71, 65
2, 114904, Note_off_c, 0, 47, 0
2, 114908, Note_off_c, 0, 69, 0
2, 114916, Note_off_c, 0, 71, 0
2, 114948, Note_on_c, 0, 57, 51
2, 115012, Note_off_c, 0, 57, 0
2, 115028, Note_on_c, 0, 79, 93
2, 115032, Note_on_c, 0, 67, 74
2, 115048, Note_on_c, 0, 47, 56
2, 115068, Note_off_c, 0, 67, 0
2, 115072, Note_off_c, 0, 79, 0
2, 115084, Note_off_c, 0, 47, 0
2, 115188, Note_on_c, 0, 76, 89
2, 115192, Note_on_c, 0, 64, 78
2, 115200, Note_on_c, 0, 40, 65
2, 115204, Control_c, 0, 64, 40
2, 115212, Control_c, 0, 64, 0
2, 115252, Control_c, 0, 64, 88
2, 115264, Control_c, 0, 64, 127
2, 115280, Note_off_c, 0, 76, 0
2, 115292, Note_off_c, 0, 64, 0
2, 115292, Note_off_c, 0, 40, 0
2, 115304, Note_on_c, 0, 47, 56
2, 115316, Note_on_c, 0, 71, 62
2, 115336, Note_off_c, 0, 71, 0
2, 115372, Note_off_c, 0, 47, 0
2, 115388, Note_on_c, 0, 55, 55
2, 115468, Note_off_c, 0, 55, 0
2, 115480, Note_on_c, 0, 67, 68
2, 115484, Note_on_c, 0, 79, 85
2, 115484, Note_on_c, 0, 47, 64
2, 115528, Note_off_c, 0, 67, 0
2, 115532, Note_off_c, 0, 79, 0
2, 115616, Note_on_c, 0, 68, 52
2, 115620, Note_off_c, 0, 47, 0
2, 115660, Note_on_c, 0, 71, 85
2, 115668, Note_on_c, 0, 59, 70
2, 115668, Note_on_c, 0, 38, 63
2, 115672, Note_off_c, 0, 68, 0
2, 115672, Control_c, 0, 64, 88
2, 115680, Control_c, 0, 64, 0
2, 115720, Control_c, 0, 64, 24
2, 115732, Control_c, 0, 64, 88
2, 115740, Control_c, 0, 64, 127
2, 115744, Note_off_c, 0, 59, 0
2, 115760, Note_off_c, 0, 38, 0
2, 115776, Note_on_c, 0, 44, 57
2, 115780, Note_off_c, 0, 71, 0
2, 115796, Note_on_c, 0, 68, 59
2, 115804, Note_on_c, 0, 65, 52
2, 115860, Note_off_c, 0, 44, 0
2, 115864, Note_on_c, 0, 53, 62
2, 115888, Note_off_c, 0, 65, 0
2, 115904, Note_off_c, 0, 68, 0
2, 115940, Note_off_c, 0, 53, 0
2, 115940, Note_on_c, 0, 72, 88
2, 115948, Note_on_c, 0, 60, 74
2, 115952, Note_on_c, 0, 44, 63
2, 115984, Note_off_c, 0, 60, 0
2, 115988, Note_off_c, 0, 72, 0
2, 116020, Note_off_c, 0, 44, 0
2, 116072, Note_on_c, 0, 45, 26
2, 116092, Note_off_c, 0, 45, 0
2, 116100, Note_on_c, 0, 69, 86
2, 116104, Control_c, 0, 64, 40
2, 116108, Note_on_c, 0, 57, 70
2, 116112, Control_c, 0, 64, 0
2, 116116, Note_on_c, 0, 36, 69
2, 116160, Control_c, 0, 64, 88
2, 116168, Control_c, 0, 64, 127
2, 116176, Note_off_c, 0, 36, 0
2, 116204, Note_off_c, 0, 57, 0
2, 116208, Note_on_c, 0, 45, 68
2, 116216, Note_off_c, 0, 69, 0
2, 116244, Note_on_c, 0, 64, 67
2, 116276, Note_off_c, 0, 45, 0
2, 116280, Note_off_c, 0, 64, 0
2, 116292, Note_on_c, 0, 52, 68
2, 116356, Note_on_c, 0, 45, 70
2, 116364, Note_off_c, 0, 52, 0
2, 116392, Note_on_c, 0, 76, 92
2, 116396, Note_on_c, 0, 64, 78
2, 116404, Note_off_c, 0, 45, 0
2, 116436, Note_off_c, 0, 76, 0
2, 116436, Note_off_c, 0, 64, 0
2, 116564, Note_on_c, 0, 67, 86
2, 116568, Note_on_c, 0, 55, 70
2, 116568, Control_c, 0, 64, 88
2, 116572, Note_on_c, 0, 35, 65
2, 116580, Control_c, 0, 64, 0
2, 116628, Control_c, 0, 64, 72
2, 116636, Control_c, 0, 64, 127
2, 116640, Note_off_c, 0, 35, 0
2, 116656, Note_off_c, 0, 55, 0
2, 116664, Note_on_c, 0, 43, 55
2, 116676, Note_off_c, 0, 67, 0
2, 116700, Note_on_c, 0, 64, 60
2, 116716, Note_off_c, 0, 43, 0
2, 116736, Note_off_c, 0, 64, 0
2, 116744, Note_on_c, 0, 52, 56
2, 116788, Note_off_c, 0, 52, 0
2, 116820, Note_on_c, 0, 43, 70
2, 116856, Note_on_c, 0, 69, 87
2, 116860, Note_on_c, 0, 57, 73
2, 116872, Note_off_c, 0, 43, 0
2, 116904, Note_off_c, 0, 57, 0
2, 116912, Note_off_c, 0, 69, 0
2, 117008, Control_c, 0, 64, 88
2, 117012, Note_on_c, 0, 54, 85
2, 117012, Note_on_c, 0, 66, 70
2, 117020, Control_c, 0, 64, 0
2, 117024, Note_on_c, 0, 33, 70
2, 117060, Control_c, 0, 64, 88
2, 117068, Control_c, 0, 64, 127
2, 117108, Note_off_c, 0, 66, 0
2, 117116, Note_off_c, 0, 54, 0
2, 117124, Note_off_c, 0, 33, 0
2, 117124, Note_on_c, 0, 40, 56
2, 117148, Note_on_c, 0, 64, 55
2, 117164, Note_off_c, 0, 64, 0
2, 117176, Note_off_c, 0, 40, 0
2, 117228, Note_on_c, 0, 52, 58
2, 117272, Note_off_c, 0, 52, 0
2, 117304, Note_on_c, 0, 72, 93
2, 117308, Note_on_c, 0, 60, 81
2, 117324, Note_on_c, 0, 40, 61
2, 117364, Note_off_c, 0, 40, 0
2, 117380, Note_off_c, 0, 60, 0
2, 117404, Note_off_c, 0, 72, 0
2, 117468, Note_on_c, 0, 72, 89
2, 117472, Note_on_c, 0, 60, 85
2, 117476, Control_c, 0, 64, 104
2, 117488, Control_c, 0, 64, 24
2, 117492, Note_on_c, 0, 33, 62
2, 117500, Control_c, 0, 64, 0
2, 117528, Control_c, 0, 64, 72
2, 117536, Control_c, 0, 64, 127
2, 117572, Note_off_c, 0, 72, 0
2, 117580, Note_on_c, 0, 45, 58
2, 117584, Note_off_c, 0, 33, 0
2, 117604, Note_on_c, 0, 63, 54
2, 117608, Note_on_c, 0, 66, 61
2, 117624, Note_off_c, 0, 60, 0
2, 117624, Note_off_c, 0, 45, 0
2, 117632, Note_off_c, 0, 63, 0
2, 117644, Note_off_c, 0, 66, 0
2, 117684, Note_on_c, 0, 48, 70
2, 117752, Note_on_c, 0, 63, 79
2, 117756, Note_on_c, 0, 75, 93
2, 117768, Note_off_c, 0, 48, 0
2, 117768, Note_on_c, 0, 54, 48
2, 117796, Note_off_c, 0, 63, 0
2, 117816, Note_off_c, 0, 75, 0
2, 117872, Note_off_c, 0, 54, 0
2, 117920, Note_on_c, 0, 78, 93
2, 117920, Note_on_c, 0, 66, 83
2, 117936, Note_on_c, 0, 45, 68
2, 117956, Control_c, 0, 64, 72
2, 117964, Control_c, 0, 64, 0
2, 117996, Control_c, 0, 64, 56
2, 118004, Control_c, 0, 64, 127
2, 118024, Note_off_c, 0, 78, 0
2, 118028, Note_off_c, 0, 45, 0
2, 118032, Note_off_c, 0, 66, 0
2, 118036, Note_on_c, 0, 51, 48
2, 118068, Note_on_c, 0, 79, 94
2, 118072, Note_on_c, 0, 67, 83
2, 118116, Note_off_c, 0, 67, 0
2, 118124, Note_off_c, 0, 51, 0
2, 118136, Note_on_c, 0, 60, 64
2, 118140, Note_off_c, 0, 79, 0
2, 118204, Note_off_c, 0, 60, 0
2, 118204, Note_on_c, 0, 81, 93
2, 118212, Note_on_c, 0, 69, 82
2, 118228, Note_on_c, 0, 51, 64
2, 118248, Note_off_c, 0, 69, 0
2, 118272, Note_off_c, 0, 51, 0
2, 118280, Note_off_c, 0, 81, 0
2, 118368, Note_on_c, 0, 84, 92
2, 118376, Note_on_c, 0, 72, 85
2, 118384, Note_on_c, 0, 43, 66
2, 118388, Control_c, 0, 64, 72
2, 118396, Control_c, 0, 64, 0
2, 118444, Control_c, 0, 64, 56
2, 118452, Control_c, 0, 64, 127
2, 118468, Note_off_c, 0, 43, 0
2, 118488, Note_off_c, 0, 72, 0
2, 118492, Note_on_c, 0, 51, 69
2, 118516, Note_on_c, 0, 79, 70
2, 118520, Note_on_c, 0, 75, 58
2, 118548, Note_off_c, 0, 51, 0
2, 118576, Note_on_c, 0, 60, 48
2, 118616, Note_off_c, 0, 79, 0
2, 118628, Note_off_c, 0, 75, 0
2, 118644, Note_off_c, 0, 60, 0
2, 118668, Note_on_c, 0, 72, 69
2, 118676, Note_on_c, 0, 51, 62
2, 118684, Note_off_c, 0, 84, 0
2, 118748, Note_off_c, 0, 72, 0
2, 118796, Note_off_c, 0, 51, 0
2, 118820, Note_on_c, 0, 83, 88
2, 118820, Note_on_c, 0, 71, 74
2, 118828, Note_on_c, 0, 43, 52
2, 118836, Control_c, 0, 64, 56
2, 118844, Control_c, 0, 64, 0
2, 118892, Control_c, 0, 64, 88
2, 118896, Note_off_c, 0, 43, 0
2, 118900, Control_c, 0, 64, 127
2, 118920, Note_on_c, 0, 52, 55
2, 118956, Note_off_c, 0, 71, 0
2, 118992, Note_on_c, 0, 79, 70
2, 118996, Note_on_c, 0, 76, 65
2, 119004, Note_off_c, 0, 52, 0
2, 119016, Note_on_c, 0, 59, 51
2, 119088, Note_off_c, 0, 59, 0
2, 119104, Note_off_c, 0, 76, 0
2, 119104, Note_on_c, 0, 52, 64
2, 119108, Note_off_c, 0, 83, 0
2, 119128, Note_off_c, 0, 79, 0
2, 119132, Note_on_c, 0, 71, 66
2, 119148, Note_off_c, 0, 52, 0
2, 119192, Note_off_c, 0, 71, 0
2, 119264, Note_on_c, 0, 42, 62
2, 119276, Control_c, 0, 64, 88
2, 119280, Note_on_c, 0, 82, 87
2, 119280, Note_on_c, 0, 70, 85
2, 119284, Control_c, 0, 64, 0
2, 119312, Control_c, 0, 64, 24
2, 119324, Control_c, 0, 64, 104
2, 119328, Note_off_c, 0, 42, 0
2, 119332, Control_c, 0, 64, 127
2, 119392, Note_off_c, 0, 70, 0
2, 119392, Note_on_c, 0, 54, 52
2, 119424, Note_on_c, 0, 78, 65
2, 119440, Note_on_c, 0, 76, 64
2, 119460, Note_off_c, 0, 54, 0
2, 119476, Note_off_c, 0, 82, 0
2, 119476, Note_on_c, 0, 61, 42
2, 119528, Note_off_c, 0, 76, 0
2, 119552, Note_on_c, 0, 54, 62
2, 119556, Note_off_c, 0, 61, 0
2, 119564, Note_off_c, 0, 78, 0
2, 119568, Note_on_c, 0, 70, 64
2, 119652, Note_off_c, 0, 70, 0
2, 119684, Note_off_c, 0, 54, 0
2, 119696, Note_on_c, 0, 47, 62
2, 119708, Note_on_c, 0, 81, 84
2, 119716, Note_on_c, 0, 69, 70
2, 119724, Control_c, 0, 64, 72
2, 119732, Control_c, 0, 64, 0
2, 119772, Control_c, 0, 64, 56
2, 119780, Control_c, 0, 64, 127
2, 119796, Note_off_c, 0, 47, 0
2, 119804, Note_on_c, 0, 54, 64
2, 119816, Note_off_c, 0, 69, 0
2, 119860, Note_on_c, 0, 78, 70
2, 119864, Note_on_c, 0, 75, 65
2, 119900, Note_off_c, 0, 54, 0
2, 119908, Note_off_c, 0, 81, 0
2, 119920, Note_on_c, 0, 63, 59
2, 119996, Note_off_c, 0, 75, 0
2, 120004, Note_off_c, 0, 78, 0
2, 120004, Note_on_c, 0, 54, 64
2, 120012, Note_off_c, 0, 63, 0
2, 120012, Note_on_c, 0, 69, 68
2, 120068, Note_off_c, 0, 54, 0
2, 120084, Note_off_c, 0, 69, 0
2, 120152, Note_on_c, 0, 79, 85
2, 120156, Note_on_c, 0, 67, 71
2, 120164, Note_on_c, 0, 52, 66
2, 120172, Control_c, 0, 64, 72
2, 120184, Control_c, 0, 64, 0
2, 120228, Control_c, 0, 64, 127
2, 120248, Note_on_c, 0, 55, 64
2, 120252, Note_off_c, 0, 67, 0
2, 120272, Note_off_c, 0, 79, 0
2, 120272, Note_off_c, 0, 52, 0
2, 120312, Note_on_c, 0, 76, 69
2, 120316, Note_on_c, 0, 71, 69
2, 120320, Note_off_c, 0, 55, 0
2, 120336, Note_on_c, 0, 64, 59
2, 120380, Note_off_c, 0, 64, 0
2, 120428, Note_off_c, 0, 71, 0
2, 120428, Note_on_c, 0, 55, 57
2, 120444, Note_off_c, 0, 76, 0
2, 120472, Note_on_c, 0, 67, 47
2, 120476, Note_off_c, 0, 55, 0
2, 120492, Note_off_c, 0, 67, 0
2, 120616, Note_on_c, 0, 67, 87
2, 120620, Note_on_c, 0, 55, 78
2, 120632, Control_c, 0, 64, 56
2, 120640, Control_c, 0, 64, 0
2, 120644, Note_on_c, 0, 46, 62
2, 120680, Control_c, 0, 64, 56
2, 120688, Control_c, 0, 64, 127
2, 120696, Note_off_c, 0, 55, 0
2, 120704, Note_off_c, 0, 46, 0
2, 120716, Note_on_c, 0, 52, 59
2, 120760, Note_on_c, 0, 64, 66
2, 120772, Note_on_c, 0, 61, 48
2, 120792, Note_off_c, 0, 52, 0
2, 120836, Note_off_c, 0, 64, 0
2, 120864, Note_off_c, 0, 67, 0
2, 120864, Note_off_c, 0, 61, 0
2, 120904, Note_on_c, 0, 52, 44
2, 120920, Note_on_c, 0, 55, 75
2, 120940, Note_off_c, 0, 55, 0
2, 120976, Note_off_c, 0, 52, 0
2, 121088, Note_on_c, 0, 79, 88
2, 121096, Note_on_c, 0, 67, 73
2, 121108, Note_on_c, 0, 45, 62
2, 121120, Control_c, 0, 64, 104
2, 121128, Control_c, 0, 64, 0
2, 121184, Control_c, 0, 64, 127
2, 121188, Note_off_c, 0, 45, 0
2, 121192, Note_on_c, 0, 51, 54
2, 121204, Note_off_c, 0, 67, 0
2, 121248, Note_on_c, 0, 75, 63
2, 121260, Note_on_c, 0, 72, 57
2, 121280, Note_off_c, 0, 51, 0
2, 121300, Note_on_c, 0, 60, 55
2, 121332, Note_off_c, 0, 79, 0
2, 121360, Note_off_c, 0, 72, 0
2, 121376, Note_off_c, 0, 60, 0
2, 121388, Note_on_c, 0, 51, 59
2, 121392, Note_on_c, 0, 67, 63
2, 121452, Note_off_c, 0, 67, 0
2, 121472, Note_off_c, 0, 75, 0
2, 121488, Note_off_c, 0, 51, 0
2, 121560, Note_on_c, 0, 78, 77
2, 121564, Note_on_c, 0, 66, 60
2, 121568, Note_on_c, 0, 45, 61
2, 121604, Control_c, 0, 64, 88
2, 121616, Control_c, 0, 64, 0
2, 121652, Note_on_c, 0, 51, 60
2, 121672, Note_off_c, 0, 66, 0
2, 121672, Note_off_c, 0, 45, 0
2, 121680, Control_c, 0, 64, 104
2, 121692, Control_c, 0, 64, 127
2, 121700, Note_on_c, 0, 75, 61
2, 121704, Note_on_c, 0, 71, 53
2, 121724, Note_off_c, 0, 51, 0
2, 121740, Note_on_c, 0, 59, 59
2, 121804, Note_off_c, 0, 59, 0
2, 121828, Note_off_c, 0, 71, 0
2, 121840, Note_on_c, 0, 51, 61
2, 121848, Note_off_c, 0, 78, 0
2, 121848, Note_on_c, 0, 66, 62
2, 121856, Note_off_c, 0, 75, 0
2, 121884, Note_off_c, 0, 66, 0
2, 121976, Note_off_c, 0, 51, 0
2, 122008, Note_on_c, 0, 59, 75
2, 122024, Note_on_c, 0, 43, 53
2, 122036, Control_c, 0, 64, 24
2, 122044, Control_c, 0, 64, 0
2, 122092, Control_c, 0, 64, 56
2, 122100, Control_c, 0, 64, 127
2, 122124, Note_on_c, 0, 51, 54
2, 122132, Note_off_c, 0, 43, 0
2, 122144, Note_off_c, 0, 59, 0
2, 122160, Note_on_c, 0, 71, 78
2, 122164, Note_on_c, 0, 66, 60
2, 122184, Note_off_c, 0, 51, 0
2, 122200, Note_on_c, 0, 54, 46
2, 122252, Note_off_c, 0, 66, 0
2, 122276, Note_off_c, 0, 71, 0
2, 122280, Note_off_c, 0, 54, 0
2, 122280, Note_on_c, 0, 51, 54
2, 122300, Note_on_c, 0, 59, 76
2, 122392, Note_off_c, 0, 51, 0
2, 122400, Note_off_c, 0, 59, 0
2, 122444, Note_on_c, 0, 71, 76
2, 122452, Note_on_c, 0, 43, 56
2, 122456, Note_on_c, 0, 64, 72
2, 122456, Control_c, 0, 64, 104
2, 122464, Control_c, 0, 64, 40
2, 122476, Control_c, 0, 64, 0
2, 122532, Control_c, 0, 64, 127
2, 122548, Note_on_c, 0, 52, 56
2, 122556, Note_off_c, 0, 64, 0
2, 122580, Note_off_c, 0, 43, 0
2, 122592, Note_on_c, 0, 59, 70
2, 122600, Note_off_c, 0, 71, 0
2, 122608, Note_off_c, 0, 52, 0
2, 122628, Note_on_c, 0, 55, 40
2, 122696, Note_off_c, 0, 59, 0
2, 122704, Note_off_c, 0, 55, 0
2, 122708, Note_on_c, 0, 52, 56
2, 122728, Note_on_c, 0, 71, 74
2, 122736, Note_on_c, 0, 64, 69
2, 122768, Note_off_c, 0, 52, 0
2, 122776, Note_off_c, 0, 71, 0
2, 122816, Note_off_c, 0, 64, 0
2, 122880, Note_on_c, 0, 58, 79
2, 122888, Note_on_c, 0, 42, 55
2, 122904, Control_c, 0, 64, 24
2, 122916, Control_c, 0, 64, 0
2, 122960, Control_c, 0, 64, 104
2, 122972, Control_c, 0, 64, 127
2, 122976, Note_on_c, 0, 49, 61
2, 123000, Note_off_c, 0, 42, 0
2, 123020, Note_off_c, 0, 58, 0
2, 123036, Note_off_c, 0, 49, 0
2, 123036, Note_on_c, 0, 70, 62
2, 123044, Note_on_c, 0, 64, 63
2, 123056, Note_on_c, 0, 54, 42
2, 123104, Note_off_c, 0, 64, 0
2, 123140, Note_off_c, 0, 70, 0
2, 123140, Note_on_c, 0, 49, 53
2, 123144, Note_off_c, 0, 54, 0
2, 123184, Note_on_c, 0, 57, 81
2, 123192, Note_off_c, 0, 49, 0
2, 123296, Note_off_c, 0, 57, 0
2, 123324, Note_on_c, 0, 69, 78
2, 123336, Note_on_c, 0, 64, 66
2, 123336, Control_c, 0, 64, 56
2, 123344, Note_on_c, 0, 36, 62
2, 123344, Control_c, 0, 64, 0
2, 123400, Control_c, 0, 64, 104
2, 123412, Control_c, 0, 64, 127
2, 123428, Note_off_c, 0, 36, 0
2, 123448, Note_on_c, 0, 48, 68
2, 123460, Note_off_c, 0, 69, 0
2, 123460, Note_off_c, 0, 64, 0
2, 123492, Note_on_c, 0, 57, 62
2, 123512, Note_off_c, 0, 48, 0
2, 123560, Note_on_c, 0, 52, 39
2, 123572, Note_off_c, 0, 57, 0
2, 123588, Note_off_c, 0, 52, 0
2, 123608, Note_on_c, 0, 69, 82
2, 123616, Note_on_c, 0, 64, 66
2, 123668, Note_off_c, 0, 69, 0
2, 123716, Note_off_c, 0, 64, 0
2, 123760, Note_on_c, 0, 56, 87
2, 123768, Note_on_c, 0, 35, 60
2, 123776, Control_c, 0, 64, 72
2, 123784, Control_c, 0, 64, 0
2, 123824, Control_c, 0, 64, 40
2, 123832, Control_c, 0, 64, 127
2, 123848, Note_off_c, 0, 35, 0
2, 123860, Note_on_c, 0, 47, 65
2, 123908, Note_on_c, 0, 68, 79
2, 123920, Note_on_c, 0, 64, 77
2, 123936, Note_off_c, 0, 56, 0
2, 123964, Note_off_c, 0, 47, 0
2, 123976, Note_on_c, 0, 52, 34
2, 123976, Note_on_c, 0, 50, 40
2, 123996, Note_off_c, 0, 52, 0
2, 124000, Note_off_c, 0, 50, 0
2, 124004, Note_off_c, 0, 68, 0
2, 124016, Note_off_c, 0, 64, 0
2, 124040, Note_on_c, 0, 55, 85
2, 124116, Note_off_c, 0, 55, 0
2, 124204, Note_on_c, 0, 67, 82
2, 124212, Note_on_c, 0, 64, 71
2, 124216, Note_on_c, 0, 60, 71
2, 124220, Note_on_c, 0, 34, 55
2, 124224, Control_c, 0, 64, 40
2, 124232, Control_c, 0, 64, 0
2, 124288, Control_c, 0, 64, 127
2, 124324, Note_on_c, 0, 46, 56
2, 124328, Note_off_c, 0, 60, 0
2, 124328, Note_off_c, 0, 34, 0
2, 124356, Note_off_c, 0, 64, 0
2, 124360, Note_off_c, 0, 67, 0
2, 124364, Note_on_c, 0, 55, 70
2, 124396, Note_off_c, 0, 46, 0
2, 124412, Note_on_c, 0, 49, 38
2, 124432, Note_off_c, 0, 49, 0
2, 124448, Note_off_c, 0, 55, 0
2, 124488, Note_on_c, 0, 67, 80
2, 124496, Note_on_c, 0, 60, 65
2, 124496, Note_on_c, 0, 64, 65
2, 124552, Note_off_c, 0, 67, 0
2, 124560, Note_off_c, 0, 64, 0
2, 124604, Note_off_c, 0, 60, 0
2, 124636, Note_on_c, 0, 53, 88
2, 124644, Control_c, 0, 64, 24
2, 124652, Note_on_c, 0, 33, 61
2, 124652, Control_c, 0, 64, 0
2, 124692, Control_c, 0, 64, 72
2, 124700, Control_c, 0, 64, 127
2, 124720, Note_off_c, 0, 33, 0
2, 124732, Note_on_c, 0, 45, 65
2, 124796, Note_off_c, 0, 45, 0
2, 124804, Note_on_c, 0, 65, 76
2, 124812, Note_on_c, 0, 60, 66
2, 124828, Note_off_c, 0, 53, 0
2, 124828, Note_on_c, 0, 48, 54
2, 124852, Note_off_c, 0, 48, 0
2, 124864, Note_off_c, 0, 60, 0
2, 124872, Note_off_c, 0, 65, 0
2, 124928, Note_on_c, 0, 52, 86
2, 125052, Note_off_c, 0, 52, 0
2, 125076, Note_on_c, 0, 64, 79
2, 125080, Control_c, 0, 64, 56
2, 125084, Note_on_c, 0, 59, 64
2, 125092, Note_on_c, 0, 57, 55
2, 125092, Control_c, 0, 64, 0
2, 125096, Note_on_c, 0, 35, 62
2, 125152, Control_c, 0, 64, 127
2, 125156, Note_off_c, 0, 64, 0
2, 125180, Note_on_c, 0, 42, 67
2, 125184, Note_off_c, 0, 59, 0
2, 125208, Note_off_c, 0, 57, 0
2, 125212, Note_off_c, 0, 35, 0
2, 125256, Note_off_c, 0, 42, 0
2, 125272, Note_on_c, 0, 51, 89
2, 125272, Note_on_c, 0, 47, 74
2, 125388, Note_on_c, 0, 42, 56
2, 125408, Note_on_c, 0, 63, 85
2, 125412, Note_off_c, 0, 47, 0
2, 125416, Note_on_c, 0, 57, 68
2, 125420, Note_on_c, 0, 59, 62
2, 125436, Note_off_c, 0, 51, 0
2, 125436, Note_off_c, 0, 57, 0
2, 125440, Note_off_c, 0, 59, 0
2, 125456, Note_off_c, 0, 42, 0
2, 125472, Note_off_c, 0, 63, 0
2, 125656, Control_c, 0, 64, 24
2, 125664, Control_c, 0, 64, 0
2, 125688, Note_on_c, 0, 67, 90
2, 125688, Note_on_c, 0, 55, 87
2, 125688, Note_on_c, 0, 63, 80
2, 125688, Note_on_c, 0, 46, 88
2, 125688, Note_on_c, 0, 58, 75
2, 125688, Note_on_c, 0, 34, 91
2, 125724, Control_c, 0, 64, 88
2, 125732, Control_c, 0, 64, 127
2, 125744, Note_off_c, 0, 58, 0
2, 125752, Note_off_c, 0, 55, 0
2, 125756, Note_off_c, 0, 34, 0
2, 125768, Note_off_c, 0, 63, 0
2, 125772, Note_off_c, 0, 67, 0
2, 125776, Note_off_c, 0, 46, 0
2, 125876, Control_c, 0, 64, 68
2, 125888, Control_c, 0, 64, 83
2, 125896, Control_c, 0, 64, 61
2, 125908, Control_c, 0, 64, 88
2, 125920, Control_c, 0, 64, 104
2, 125964, Control_c, 0, 64, 127
2, 126268, Note_on_c, 0, 67, 82
2, 126268, Note_on_c, 0, 63, 59
2, 126268, Note_on_c, 0, 58, 56
2, 126268, Note_on_c, 0, 46, 55
2, 126328, Control_c, 0, 64, 88
2, 126336, Control_c, 0, 64, 56
2, 126348, Control_c, 0, 64, 0
2, 126432, Control_c, 0, 64, 40
2, 126444, Control_c, 0, 64, 104
2, 126456, Control_c, 0, 64, 127
2, 126600, Note_off_c, 0, 63, 0
2, 126616, Note_off_c, 0, 46, 0
2, 126636, Note_off_c, 0, 58, 0
2, 126716, Note_off_c, 0, 67, 0
2, 126780, Note_on_c, 0, 68, 77
2, 126780, Note_on_c, 0, 60, 66
2, 126780, Note_on_c, 0, 63, 68
2, 126904, Note_off_c, 0, 68, 0
2, 126904, Note_off_c, 0, 60, 0
2, 126912, Note_off_c, 0, 63, 0
2, 126936, Note_on_c, 0, 67, 86
2, 126936, Note_on_c, 0, 58, 58
2, 127044, Note_off_c, 0, 58, 0
2, 127048, Note_off_c, 0, 67, 0
2, 127080, Note_on_c, 0, 72, 92
2, 127080, Note_on_c, 0, 62, 78
2, 127080, Note_on_c, 0, 56, 59
2, 127132, Note_off_c, 0, 62, 0
2, 127180, Note_off_c, 0, 72, 0
2, 127240, Note_off_c, 0, 56, 0
2, 127244, Note_on_c, 0, 70, 80
2, 127244, Note_on_c, 0, 63, 63
2, 127244, Note_on_c, 0, 55, 67
2, 127244, Control_c, 0, 64, 104
2, 127260, Control_c, 0, 64, 24
2, 127272, Control_c, 0, 64, 0
2, 127324, Note_off_c, 0, 63, 0
2, 127324, Control_c, 0, 64, 40
2, 127332, Note_off_c, 0, 55, 0
2, 127332, Control_c, 0, 64, 127
2, 127344, Note_off_c, 0, 70, 0
2, 127460, Control_c, 0, 64, 72
2, 127476, Control_c, 0, 64, 0
2, 127580, Note_on_c, 0, 53, 82
2, 127580, Control_c, 0, 64, 72
2, 127584, Note_on_c, 0, 63, 84
2, 127584, Note_on_c, 0, 35, 65
2, 127584, Note_on_c, 0, 57, 61
2, 127584, Note_on_c, 0, 47, 75
2, 127588, Control_c, 0, 64, 127
2, 127600, Note_off_c, 0, 57, 0
2, 127632, Note_off_c, 0, 35, 0
2, 127632, Note_off_c, 0, 47, 0
2, 127672, Note_off_c, 0, 53, 0
2, 127732, Note_off_c, 0, 63, 0
2, 127756, Note_on_c, 0, 65, 86
2, 127756, Note_on_c, 0, 58, 54
2, 127756, Note_on_c, 0, 34, 84
2, 127756, Note_on_c, 0, 63, 56
2, 127756, Note_on_c, 0, 46, 83
2, 127756, Note_on_c, 0, 53, 71
2, 127804, Control_c, 0, 64, 88
2, 127816, Control_c, 0, 64, 0
2, 127892, Note_off_c, 0, 53, 0
2, 127900, Control_c, 0, 64, 56
2, 127912, Control_c, 0, 64, 127
2, 127916, Note_off_c, 0, 58, 0
2, 127936, Note_off_c, 0, 63, 0
2, 127964, Note_off_c, 0, 65, 0
2, 127976, Note_off_c, 0, 34, 0
2, 128008, Note_off_c, 0, 46, 0
2, 128320, Note_on_c, 0, 62, 79
2, 128320, Note_on_c, 0, 96, 96
2, 128320, Note_on_c, 0, 53, 62
2, 128320, Note_on_c, 0, 56, 49
2, 128328, Note_on_c, 0, 58, 49
2, 128340, Control_c, 0, 64, 104
2, 128352, Control_c, 0, 64, 24
2, 128364, Control_c, 0, 64, 0
2, 128408, Note_off_c, 0, 96, 0
2, 128416, Note_on_c, 0, 94, 81
2, 128416, Control_c, 0, 64, 88
2, 128428, Control_c, 0, 64, 127
2, 128504, Note_on_c, 0, 92, 86
2, 128528, Note_off_c, 0, 94, 0
2, 128596, Note_off_c, 0, 92, 0
2, 128600, Note_on_c, 0, 91, 80
2, 128664, Note_off_c, 0, 91, 0
2, 128668, Note_off_c, 0, 53, 0
2, 128676, Note_on_c, 0, 89, 76
2, 128700, Note_off_c, 0, 62, 0
2, 128712, Note_off_c, 0, 56, 0
2, 128716, Note_off_c, 0, 58, 0
2, 128732, Note_off_c, 0, 89, 0
2, 128748, Note_on_c, 0, 87, 77
2, 128832, Note_off_c, 0, 87, 0
2, 128840, Note_on_c, 0, 86, 84
2, 128852, Note_on_c, 0, 63, 81
2, 128856, Note_on_c, 0, 58, 49
2, 128856, Control_c, 0, 64, 104
2, 128860, Note_on_c, 0, 56, 46
2, 128860, Note_on_c, 0, 53, 58
2, 128868, Control_c, 0, 64, 40
2, 128876, Control_c, 0, 64, 0
2, 128908, Note_off_c, 0, 86, 0
2, 128924, Note_on_c, 0, 84, 80
2, 128932, Control_c, 0, 64, 24
2, 128940, Control_c, 0, 64, 104
2, 128952, Control_c, 0, 64, 127
2, 128980, Note_off_c, 0, 84, 0
2, 129008, Note_on_c, 0, 82, 69
2, 129092, Note_on_c, 0, 80, 73
2, 129112, Note_off_c, 0, 53, 0
2, 129112, Note_off_c, 0, 82, 0
2, 129132, Note_off_c, 0, 58, 0
2, 129136, Note_off_c, 0, 56, 0
2, 129172, Note_off_c, 0, 63, 0
2, 129172, Note_on_c, 0, 79, 74
2, 129188, Note_off_c, 0, 80, 0
2, 129232, Note_off_c, 0, 79, 0
2, 129244, Note_on_c, 0, 77, 81
2, 129320, Note_off_c, 0, 77, 0
2, 129332, Note_on_c, 0, 75, 64
2, 129340, Note_on_c, 0, 67, 84
2, 129340, Control_c, 0, 64, 88
2, 129344, Note_on_c, 0, 58, 55
2, 129348, Note_on_c, 0, 56, 46
2, 129348, Control_c, 0, 64, 24
2, 129360, Control_c, 0, 64, 0
2, 129412, Control_c, 0, 64, 56
2, 129420, Note_on_c, 0, 74, 80
2, 129424, Control_c, 0, 64, 127
2, 129476, Note_off_c, 0, 75, 0
2, 129480, Note_off_c, 0, 74, 0
2, 129500, Note_on_c, 0, 72, 70
2, 129556, Note_off_c, 0, 67, 0
2, 129560, Note_on_c, 0, 70, 75
2, 129576, Note_off_c, 0, 72, 0
2, 129664, Note_on_c, 0, 69, 82
2, 129676, Note_on_c, 0, 65, 73
2, 129684, Note_off_c, 0, 70, 0
2, 129704, Note_off_c, 0, 65, 0
2, 129720, Note_off_c, 0, 58, 0
2, 129732, Note_off_c, 0, 56, 0
2, 129736, Note_off_c, 0, 69, 0
2, 129744, Note_on_c, 0, 68, 73
2, 129852, Note_off_c, 0, 68, 0
2, 129864, Note_on_c, 0, 67, 80
2, 129884, Note_on_c, 0, 58, 57
2, 129892, Note_on_c, 0, 51, 59
2, 129908, Control_c, 0, 64, 88
2, 129916, Control_c, 0, 64, 24
2, 129928, Control_c, 0, 64, 0
2, 130056, Control_c, 0, 64, 104
2, 130064, Control_c, 0, 64, 127
2, 130204, Note_off_c, 0, 58, 0
2, 130216, Note_off_c, 0, 51, 0
2, 130320, Note_off_c, 0, 67, 0
2, 130388, Note_on_c, 0, 69, 82
2, 130388, Note_on_c, 0, 50, 55
2, 130388, Note_on_c, 0, 60, 58
2, 130388, Note_on_c, 0, 66, 61
2, 130464, Control_c, 0, 64, 72
2, 130472, Control_c, 0, 64, 0
2, 130572, Control_c, 0, 64, 88
2, 130584, Control_c, 0, 64, 127
2, 130592, Note_off_c, 0, 50, 0
2, 130620, Note_off_c, 0, 66, 0
2, 130636, Note_off_c, 0, 69, 0
2, 130640, Note_off_c, 0, 60, 0
2, 130860, Note_on_c, 0, 72, 83
2, 130868, Note_on_c, 0, 67, 54
2, 130868, Note_on_c, 0, 63, 58
2, 130868, Control_c, 0, 64, 56
2, 130880, Note_on_c, 0, 55, 50
2, 130880, Control_c, 0, 64, 0
2, 130944, Control_c, 0, 64, 40
2, 130956, Control_c, 0, 64, 104
2, 130968, Control_c, 0, 64, 127
2, 131008, Note_off_c, 0, 72, 0
2, 131012, Note_on_c, 0, 70, 71
2, 131024, Note_off_c, 0, 63, 0
2, 131024, Note_on_c, 0, 62, 73
2, 131140, Note_off_c, 0, 67, 0
2, 131140, Control_c, 0, 64, 88
2, 131144, Note_off_c, 0, 70, 0
2, 131148, Control_c, 0, 64, 24
2, 131156, Note_on_c, 0, 75, 81
2, 131156, Note_on_c, 0, 66, 57
2, 131156, Note_on_c, 0, 60, 58
2, 131160, Control_c, 0, 64, 0
2, 131184, Note_off_c, 0, 62, 0
2, 131192, Control_c, 0, 64, 40
2, 131204, Control_c, 0, 64, 88
2, 131212, Control_c, 0, 64, 127
2, 131264, Note_off_c, 0, 75, 0
2, 131280, Note_off_c, 0, 66, 0
2, 131288, Note_off_c, 0, 60, 0
2, 131320, Control_c, 0, 64, 88
2, 131332, Note_on_c, 0, 74, 77
2, 131332, Note_on_c, 0, 58, 60
2, 131332, Control_c, 0, 64, 0
2, 131340, Note_on_c, 0, 67, 58
2, 131408, Control_c, 0, 64, 72
2, 131412, Note_off_c, 0, 67, 0
2, 131416, Note_off_c, 0, 74, 0
2, 131416, Control_c, 0, 64, 127
2, 131428, Note_off_c, 0, 55, 0
2, 131436, Note_off_c, 0, 58, 0
2, 131632, Control_c, 0, 64, 88
2, 131640, Control_c, 0, 64, 0
2, 131648, Note_on_c, 0, 67, 82
2, 131648, Note_on_c, 0, 39, 77
2, 131648, Note_on_c, 0, 51, 75
2, 131648, Note_on_c, 0, 57, 61
2, 131648, Note_on_c, 0, 61, 67
2, 131696, Control_c, 0, 64, 40
2, 131708, Control_c, 0, 64, 127
2, 131740, Note_off_c, 0, 57, 0
2, 131740, Note_off_c, 0, 61, 0
2, 131768, Note_off_c, 0, 39, 0
2, 131768, Note_off_c, 0, 51, 0
2, 131836, Note_on_c, 0, 57, 62
2, 131840, Note_on_c, 0, 69, 83
2, 131840, Note_on_c, 0, 50, 75
2, 131840, Note_on_c, 0, 38, 80
2, 131840, Note_on_c, 0, 62, 65
2, 131912, Control_c, 0, 64, 40
2, 131920, Control_c, 0, 64, 0
2, 131980, Control_c, 0, 64, 40
2, 131984, Note_off_c, 0, 57, 0
2, 131992, Control_c, 0, 64, 88
2, 131996, Note_off_c, 0, 62, 0
2, 132004, Control_c, 0, 64, 127
2, 132028, Note_off_c, 0, 38, 0
2, 132040, Note_off_c, 0, 67, 0
2, 132056, Note_off_c, 0, 69, 0
2, 132072, Note_off_c, 0, 50, 0
2, 132388, Note_on_c, 0, 99, 94
2, 132388, Note_on_c, 0, 66, 79
2, 132388, Note_on_c, 0, 62, 60
2, 132388, Note_on_c, 0, 57, 63
2, 132388, Note_on_c, 0, 60, 52
2, 132420, Control_c, 0, 64, 72
2, 132432, Control_c, 0, 64, 24
2, 132444, Control_c, 0, 64, 0
2, 132464, Control_c, 0, 64, 56
2, 132476, Control_c, 0, 64, 127
2, 132496, Note_on_c, 0, 98, 90
2, 132504, Note_off_c, 0, 99, 0
2, 132564, Note_off_c, 0, 98, 0
2, 132576, Note_on_c, 0, 96, 79
2, 132648, Note_off_c, 0, 96, 0
2, 132656, Note_on_c, 0, 94, 69
2, 132660, Note_off_c, 0, 57, 0
2, 132676, Note_off_c, 0, 62, 0
2, 132684, Note_off_c, 0, 60, 0
2, 132692, Note_off_c, 0, 66, 0
2, 132732, Note_off_c, 0, 94, 0
2, 132736, Note_on_c, 0, 93, 82
2, 132800, Note_off_c, 0, 93, 0
2, 132816, Note_on_c, 0, 91, 80
2, 132896, Note_on_c, 0, 90, 77
2, 132896, Note_on_c, 0, 67, 81
2, 132896, Note_on_c, 0, 62, 49
2, 132896, Note_on_c, 0, 60, 69
2, 132896, Note_on_c, 0, 57, 63
2, 132904, Control_c, 0, 64, 104
2, 132912, Control_c, 0, 64, 40
2, 132916, Note_off_c, 0, 91, 0
2, 132928, Note_off_c, 0, 90, 0
2, 132928, Control_c, 0, 64, 0
2, 132956, Control_c, 0, 64, 56
2, 132968, Control_c, 0, 64, 127
2, 132992, Note_on_c, 0, 87, 72
2, 133060, Note_off_c, 0, 87, 0
2, 133072, Note_on_c, 0, 86, 68
2, 133112, Note_off_c, 0, 57, 0
2, 133120, Note_off_c, 0, 86, 0
2, 133124, Note_off_c, 0, 62, 0
2, 133124, Note_off_c, 0, 60, 0
2, 133140, Note_on_c, 0, 84, 73
2, 133176, Note_off_c, 0, 67, 0
2, 133208, Note_off_c, 0, 84, 0
2, 133228, Note_on_c, 0, 82, 69
2, 133308, Note_on_c, 0, 81, 83
2, 133320, Note_off_c, 0, 82, 0
2, 133372, Note_off_c, 0, 81, 0
2, 133372, Control_c, 0, 64, 56
2, 133388, Control_c, 0, 64, 0
2, 133392, Note_on_c, 0, 79, 80
2, 133392, Note_on_c, 0, 70, 82
2, 133400, Note_on_c, 0, 62, 62
2, 133404, Note_on_c, 0, 60, 55
2, 133440, Control_c, 0, 64, 40
2, 133452, Control_c, 0, 64, 104
2, 133456, Note_off_c, 0, 79, 0
2, 133460, Control_c, 0, 64, 127
2, 133468, Note_on_c, 0, 78, 72
2, 133552, Note_off_c, 0, 78, 0
2, 133552, Note_on_c, 0, 75, 73
2, 133600, Note_off_c, 0, 70, 0
2, 133636, Note_on_c, 0, 74, 77
2, 133660, Note_off_c, 0, 75, 0
2, 133704, Note_off_c, 0, 74, 0
2, 133712, Note_on_c, 0, 73, 72
2, 133728, Note_on_c, 0, 69, 75
2, 133748, Note_off_c, 0, 62, 0
2, 133756, Note_off_c, 0, 69, 0
2, 133760, Note_off_c, 0, 60, 0
2, 133760, Note_off_c, 0, 73, 0
2, 133792, Note_on_c, 0, 72, 74
2, 133864, Note_off_c, 0, 72, 0
2, 133904, Note_on_c, 0, 71, 76
2, 133912, Note_on_c, 0, 62, 58
2, 133928, Note_on_c, 0, 55, 51
2, 133932, Control_c, 0, 64, 72
2, 133944, Control_c, 0, 64, 0
2, 134032, Control_c, 0, 64, 104
2, 134040, Note_off_c, 0, 71, 0
2, 134040, Control_c, 0, 64, 127
2, 134060, Note_off_c, 0, 62, 0
2, 134084, Note_off_c, 0, 55, 0
2, 134212, Control_c, 0, 64, 88
2, 134220, Control_c, 0, 64, 0
2, 134240, Note_on_c, 0, 79, 74
2, 134240, Note_on_c, 0, 55, 54
2, 134240, Note_on_c, 0, 71, 63
2, 134240, Note_on_c, 0, 62, 49
2, 134268, Control_c, 0, 64, 24
2, 134276, Control_c, 0, 64, 88
2, 134288, Control_c, 0, 64, 127
2, 134320, Note_off_c, 0, 71, 0
2, 134324, Note_off_c, 0, 55, 0
2, 134340, Note_off_c, 0, 79, 0
2, 134388, Note_on_c, 0, 80, 71
2, 134396, Note_on_c, 0, 72, 73
2, 134400, Note_on_c, 0, 54, 56
2, 134460, Note_off_c, 0, 72, 0
2, 134476, Note_off_c, 0, 80, 0
2, 134476, Note_off_c, 0, 54, 0
2, 134540, Note_on_c, 0, 79, 80
2, 134548, Note_on_c, 0, 71, 66
2, 134556, Note_on_c, 0, 55, 53
2, 134636, Note_off_c, 0, 79, 0
2, 134636, Note_off_c, 0, 71, 0
2, 134692, Note_on_c, 0, 78, 77
2, 134704, Note_on_c, 0, 72, 73
2, 134704, Note_on_c, 0, 63, 64
2, 134724, Note_off_c, 0, 72, 0
2, 134728, Note_off_c, 0, 62, 0
2, 134788, Note_off_c, 0, 63, 0
2, 134800, Note_off_c, 0, 78, 0
2, 134856, Control_c, 0, 64, 72
2, 134864, Note_on_c, 0, 79, 80
2, 134864, Control_c, 0, 64, 0
2, 134872, Note_on_c, 0, 71, 54
2, 134876, Note_on_c, 0, 62, 59
2, 134952, Note_off_c, 0, 62, 0
2, 134952, Control_c, 0, 64, 72
2, 134956, Note_off_c, 0, 79, 0
2, 134956, Note_off_c, 0, 71, 0
2, 134960, Control_c, 0, 64, 127
2, 134968, Note_off_c, 0, 55, 0
2, 135176, Control_c, 0, 64, 72
2, 135180, Note_on_c, 0, 67, 72
2, 135184, Note_on_c, 0, 50, 57
2, 135184, Note_on_c, 0, 59, 61
2, 135188, Note_on_c, 0, 43, 55
2, 135188, Control_c, 0, 64, 0
2, 135252, Control_c, 0, 64, 24
2, 135260, Control_c, 0, 64, 72
2, 135272, Control_c, 0, 64, 127
2, 135292, Note_off_c, 0, 59, 0
2, 135296, Note_off_c, 0, 67, 0
2, 135332, Note_on_c, 0, 68, 68
2, 135344, Note_on_c, 0, 60, 62
2, 135348, Note_off_c, 0, 43, 0
2, 135364, Note_on_c, 0, 42, 43
2, 135404, Note_off_c, 0, 60, 0
2, 135428, Note_off_c, 0, 68, 0
2, 135444, Control_c, 0, 64, 72
2, 135456, Control_c, 0, 64, 0
2, 135476, Note_off_c, 0, 42, 0
2, 135476, Note_on_c, 0, 67, 73
2, 135484, Note_on_c, 0, 59, 60
2, 135484, Note_on_c, 0, 43, 63
2, 135496, Control_c, 0, 64, 40
2, 135508, Control_c, 0, 64, 72
2, 135520, Control_c, 0, 64, 104
2, 135528, Control_c, 0, 64, 127
2, 135560, Note_off_c, 0, 67, 0
2, 135560, Note_off_c, 0, 59, 0
2, 135592, Note_off_c, 0, 50, 0
2, 135596, Control_c, 0, 64, 72
2, 135604, Control_c, 0, 64, 0
2, 135620, Note_on_c, 0, 51, 65
2, 135620, Note_on_c, 0, 66, 62
2, 135632, Note_on_c, 0, 60, 64
2, 135668, Control_c, 0, 64, 24
2, 135680, Control_c, 0, 64, 72
2, 135688, Note_off_c, 0, 60, 0
2, 135692, Control_c, 0, 64, 104
2, 135700, Control_c, 0, 64, 127
2, 135728, Note_off_c, 0, 51, 0
2, 135740, Note_off_c, 0, 66, 0
2, 135808, Control_c, 0, 64, 88
2, 135812, Note_on_c, 0, 67, 63
2, 135820, Note_on_c, 0, 59, 50
2, 135820, Control_c, 0, 64, 56
2, 135832, Note_on_c, 0, 50, 44
2, 135832, Control_c, 0, 64, 0
2, 135944, Note_off_c, 0, 59, 0
2, 135948, Control_c, 0, 64, 72
2, 135960, Control_c, 0, 64, 127
2, 135972, Note_off_c, 0, 43, 0
2, 135976, Note_off_c, 0, 67, 0
2, 135992, Note_off_c, 0, 50, 0
2, 136136, Note_on_c, 0, 68, 67
2, 136140, Note_on_c, 0, 78, 73
2, 136164, Note_on_c, 0, 72, 56
2, 136164, Control_c, 0, 64, 72
2, 136172, Control_c, 0, 64, 0
2, 136248, Control_c, 0, 64, 40
2, 136260, Control_c, 0, 64, 88
2, 136268, Control_c, 0, 64, 127
2, 136276, Note_off_c, 0, 72, 0
2, 136316, Note_off_c, 0, 78, 0
2, 136320, Note_on_c, 0, 79, 70
2, 136324, Note_off_c, 0, 68, 0
2, 136328, Note_on_c, 0, 71, 52
2, 136332, Note_on_c, 0, 67, 66
2, 136368, Control_c, 0, 64, 72
2, 136376, Control_c, 0, 64, 0
2, 136464, Control_c, 0, 64, 56
2, 136472, Control_c, 0, 64, 104
2, 136484, Control_c, 0, 64, 127
2, 136540, Note_off_c, 0, 79, 0
2, 136544, Note_off_c, 0, 67, 0
2, 136556, Note_off_c, 0, 71, 0
2, 136612, Control_c, 0, 64, 56
2, 136624, Note_on_c, 0, 78, 70
2, 136624, Control_c, 0, 64, 0
2, 136636, Note_on_c, 0, 63, 42
2, 136640, Note_on_c, 0, 72, 65
2, 136668, Control_c, 0, 64, 24
2, 136676, Control_c, 0, 64, 72
2, 136688, Control_c, 0, 64, 104
2, 136700, Control_c, 0, 64, 127
2, 136704, Note_off_c, 0, 72, 0
2, 136752, Control_c, 0, 64, 104
2, 136760, Control_c, 0, 64, 40
2, 136772, Control_c, 0, 64, 0
2, 136776, Note_off_c, 0, 78, 0
2, 136780, Note_off_c, 0, 63, 0
2, 136784, Note_on_c, 0, 79, 74
2, 136792, Note_on_c, 0, 71, 58
2, 136792, Note_on_c, 0, 62, 56
2, 136804, Note_on_c, 0, 55, 42
2, 136840, Control_c, 0, 64, 40
2, 136848, Control_c, 0, 64, 72
2, 136860, Control_c, 0, 64, 88
2, 136872, Control_c, 0, 64, 104
2, 136908, Note_off_c, 0, 79, 0
2, 136908, Note_off_c, 0, 71, 0
2, 136916, Note_on_c, 0, 78, 73
2, 136924, Control_c, 0, 64, 56
2, 136932, Control_c, 0, 64, 40
2, 136936, Note_on_c, 0, 72, 64
2, 136936, Note_on_c, 0, 63, 61
2, 136940, Note_off_c, 0, 62, 0
2, 136964, Control_c, 0, 64, 56
2, 136976, Control_c, 0, 64, 72
2, 136988, Control_c, 0, 64, 88
2, 137004, Note_off_c, 0, 72, 0
2, 137040, Control_c, 0, 64, 24
2, 137052, Control_c, 0, 64, 0
2, 137076, Note_off_c, 0, 78, 0
2, 137076, Note_off_c, 0, 63, 0
2, 137084, Note_on_c, 0, 79, 71
2, 137088, Note_on_c, 0, 71, 53
2, 137096, Note_on_c, 0, 62, 57
2, 137148, Control_c, 0, 64, 24
2, 137160, Control_c, 0, 64, 40
2, 137192, Control_c, 0, 64, 0
2, 137216, Note_off_c, 0, 79, 0
2, 137220, Note_off_c, 0, 71, 0
2, 137232, Note_off_c, 0, 62, 0
2, 137232, Note_on_c, 0, 78, 70
2, 137244, Note_on_c, 0, 63, 46
2, 137248, Note_on_c, 0, 72, 52
2, 137288, Control_c, 0, 64, 24
2, 137300, Control_c, 0, 64, 40
2, 137312, Control_c, 0, 64, 56
2, 137348, Note_off_c, 0, 72, 0
2, 137352, Control_c, 0, 64, 88
2, 137372, Note_off_c, 0, 78, 0
2, 137380, Note_off_c, 0, 63, 0
2, 137384, Note_on_c, 0, 79, 72
2, 137392, Note_on_c, 0, 71, 54
2, 137396, Control_c, 0, 64, 104
2, 137400, Note_on_c, 0, 62, 48
2, 137480, Note_off_c, 0, 79, 0
2, 137496, Note_off_c, 0, 71, 0
2, 137528, Note_on_c, 0, 78, 71
2, 137532, Note_off_c, 0, 62, 0
2, 137532, Note_on_c, 0, 72, 61
2, 137536, Note_on_c, 0, 63, 57
2, 137588, Note_off_c, 0, 72, 0
2, 137652, Note_off_c, 0, 63, 0
2, 137660, Note_off_c, 0, 78, 0
2, 137700, Note_on_c, 0, 79, 71
2, 137708, Note_on_c, 0, 62, 52
2, 137712, Note_on_c, 0, 71, 51
2, 137736, Control_c, 0, 64, 72
2, 137748, Control_c, 0, 64, 56
2, 137760, Control_c, 0, 64, 0
2, 137856, Control_c, 0, 64, 40
2, 137868, Control_c, 0, 64, 88
2, 137876, Control_c, 0, 64, 127
2, 137888, Note_off_c, 0, 71, 0
2, 137932, Note_off_c, 0, 79, 0
2, 137940, Note_off_c, 0, 55, 0
2, 137948, Note_off_c, 0, 62, 0
2, 138080, Control_c, 0, 64, 104
2, 138104, Control_c, 0, 64, 88
2, 138112, Control_c, 0, 64, 72
2, 138124, Control_c, 0, 64, 56
2, 138136, Control_c, 0, 64, 40
2, 138232, Control_c, 0, 64, 24
2, 138240, Control_c, 0, 64, 0
2, 138272, Note_on_c, 0, 48, 54
2, 138272, Note_on_c, 0, 58, 54
2, 138276, Note_on_c, 0, 64, 70
2, 138280, Note_on_c, 0, 96, 92
2, 138340, Control_c, 0, 64, 24
2, 138348, Control_c, 0, 64, 88
2, 138360, Control_c, 0, 64, 127
2, 138376, Note_off_c, 0, 96, 0
2, 138376, Note_on_c, 0, 97, 77
2, 138432, Note_off_c, 0, 97, 0
2, 138456, Note_on_c, 0, 96, 78
2, 138476, Note_off_c, 0, 48, 0
2, 138540, Note_off_c, 0, 64, 0
2, 138540, Note_on_c, 0, 94, 73
2, 138552, Note_off_c, 0, 96, 0
2, 138620, Note_on_c, 0, 92, 74
2, 138652, Note_off_c, 0, 94, 0
2, 138700, Note_off_c, 0, 92, 0
2, 138700, Note_on_c, 0, 91, 78
2, 138760, Note_off_c, 0, 91, 0
2, 138776, Note_off_c, 0, 58, 0
2, 138788, Note_on_c, 0, 89, 80
2, 138788, Control_c, 0, 64, 88
2, 138792, Note_on_c, 0, 56, 57
2, 138796, Note_on_c, 0, 65, 74
2, 138800, Control_c, 0, 64, 40
2, 138808, Note_on_c, 0, 53, 60
2, 138808, Control_c, 0, 64, 0
2, 138852, Note_off_c, 0, 89, 0
2, 138852, Control_c, 0, 64, 40
2, 138864, Control_c, 0, 64, 88
2, 138876, Control_c, 0, 64, 127
2, 138880, Note_on_c, 0, 91, 75
2, 138956, Note_off_c, 0, 91, 0
2, 138976, Note_on_c, 0, 89, 74
2, 139020, Note_off_c, 0, 65, 0
2, 139036, Note_off_c, 0, 89, 0
2, 139040, Note_off_c, 0, 53, 0
2, 139072, Note_on_c, 0, 87, 73
2, 139112, Note_off_c, 0, 56, 0
2, 139120, Note_off_c, 0, 87, 0
2, 139148, Note_on_c, 0, 86, 72
2, 139200, Note_off_c, 0, 86, 0
2, 139224, Note_on_c, 0, 84, 77
2, 139268, Control_c, 0, 64, 88
2, 139280, Note_off_c, 0, 84, 0
2, 139280, Control_c, 0, 64, 24
2, 139292, Note_on_c, 0, 46, 63
2, 139292, Note_on_c, 0, 56, 61
2, 139292, Control_c, 0, 64, 0
2, 139308, Note_off_c, 0, 46, 0
2, 139312, Note_on_c, 0, 82, 69
2, 139348, Control_c, 0, 64, 24
2, 139352, Note_on_c, 0, 62, 71
2, 139356, Control_c, 0, 64, 88
2, 139368, Control_c, 0, 64, 127
2, 139376, Note_off_c, 0, 82, 0
2, 139416, Note_on_c, 0, 84, 68
2, 139504, Note_on_c, 0, 82, 62
2, 139512, Note_off_c, 0, 84, 0
2, 139588, Note_on_c, 0, 80, 76
2, 139616, Note_off_c, 0, 82, 0
2, 139668, Note_on_c, 0, 79, 81
2, 139696, Note_off_c, 0, 80, 0
2, 139708, Note_off_c, 0, 62, 0
2, 139732, Note_off_c, 0, 79, 0
2, 139744, Note_on_c, 0, 77, 82
2, 139804, Note_off_c, 0, 77, 0
2, 139828, Control_c, 0, 64, 104
2, 139836, Note_on_c, 0, 79, 76
2, 139836, Note_on_c, 0, 63, 75
2, 139836, Control_c, 0, 64, 56
2, 139840, Note_off_c, 0, 56, 0
2, 139844, Note_on_c, 0, 51, 61
2, 139852, Control_c, 0, 64, 0
2, 139856, Note_on_c, 0, 55, 58
2, 139892, Note_off_c, 0, 79, 0
2, 139916, Note_on_c, 0, 77, 77
2, 139936, Control_c, 0, 64, 56
2, 139944, Control_c, 0, 64, 104
2, 139956, Control_c, 0, 64, 127
2, 140004, Note_on_c, 0, 75, 77
2, 140008, Note_off_c, 0, 77, 0
2, 140032, Note_off_c, 0, 55, 0
2, 140036, Note_off_c, 0, 63, 0
2, 140064, Note_off_c, 0, 51, 0
2, 140096, Note_on_c, 0, 74, 75
2, 140136, Note_off_c, 0, 75, 0
2, 140144, Note_off_c, 0, 74, 0
2, 140164, Note_on_c, 0, 72, 78
2, 140228, Note_off_c, 0, 72, 0
2, 140236, Note_on_c, 0, 70, 74
2, 140244, Control_c, 0, 64, 88
2, 140256, Note_on_c, 0, 44, 63
2, 140256, Control_c, 0, 64, 40
2, 140268, Control_c, 0, 64, 0
2, 140292, Note_on_c, 0, 51, 63
2, 140300, Note_off_c, 0, 44, 0
2, 140332, Note_on_c, 0, 68, 76
2, 140336, Note_off_c, 0, 70, 0
2, 140344, Control_c, 0, 64, 24
2, 140356, Note_on_c, 0, 60, 67
2, 140356, Control_c, 0, 64, 88
2, 140364, Control_c, 0, 64, 127
2, 140416, Note_off_c, 0, 68, 0
2, 140416, Note_on_c, 0, 67, 79
2, 140484, Note_off_c, 0, 67, 0
2, 140504, Note_on_c, 0, 65, 74
2, 140520, Note_off_c, 0, 60, 0
2, 140576, Note_off_c, 0, 65, 0
2, 140580, Note_on_c, 0, 63, 71
2, 140656, Note_off_c, 0, 63, 0
2, 140668, Note_on_c, 0, 62, 80
2, 140744, Note_off_c, 0, 62, 0
2, 140752, Note_on_c, 0, 60, 82
2, 140780, Note_off_c, 0, 51, 0
2, 140812, Note_off_c, 0, 60, 0
2, 140816, Control_c, 0, 64, 104
2, 140824, Control_c, 0, 64, 88
2, 140836, Control_c, 0, 64, 56
2, 140844, Note_on_c, 0, 59, 72
2, 140848, Control_c, 0, 64, 0
2, 140856, Note_on_c, 0, 53, 62
2, 140860, Note_on_c, 0, 50, 58
2, 140932, Note_on_c, 0, 56, 73
2, 140932, Control_c, 0, 64, 40
2, 140936, Note_off_c, 0, 59, 0
2, 140940, Control_c, 0, 64, 88
2, 140952, Control_c, 0, 64, 127
2, 141020, Note_off_c, 0, 53, 0
2, 141020, Note_on_c, 0, 55, 77
2, 141028, Note_off_c, 0, 56, 0
2, 141048, Note_off_c, 0, 50, 0
2, 141084, Note_off_c, 0, 55, 0
2, 141092, Note_on_c, 0, 53, 77
2, 141172, Note_on_c, 0, 51, 77
2, 141180, Note_off_c, 0, 53, 0
2, 141252, Note_off_c, 0, 51, 0
2, 141252, Note_on_c, 0, 50, 86
2, 141332, Note_off_c, 0, 50, 0
2, 141336, Note_on_c, 0, 48, 85
2, 141340, Control_c, 0, 64, 104
2, 141348, Note_on_c, 0, 31, 83
2, 141348, Control_c, 0, 64, 56
2, 141360, Control_c, 0, 64, 0
2, 141400, Note_off_c, 0, 48, 0
2, 141424, Note_on_c, 0, 47, 74
2, 141436, Control_c, 0, 64, 40
2, 141448, Control_c, 0, 64, 104
2, 141456, Control_c, 0, 64, 127
2, 141508, Note_off_c, 0, 47, 0
2, 141508, Note_on_c, 0, 44, 70
2, 141592, Note_on_c, 0, 43, 60
2, 141596, Note_off_c, 0, 44, 0
2, 141660, Note_off_c, 0, 43, 0
2, 141680, Note_on_c, 0, 41, 60
2, 141696, Note_off_c, 0, 41, 0
2, 141768, Note_on_c, 0, 38, 63
2, 141836, Note_off_c, 0, 38, 0
2, 141840, Note_off_c, 0, 31, 0
2, 141860, Note_on_c, 0, 24, 81
2, 141868, Note_on_c, 0, 36, 83
2, 141896, Control_c, 0, 64, 88
2, 141908, Control_c, 0, 64, 40
2, 141920, Control_c, 0, 64, 0
2, 142004, Control_c, 0, 64, 72
2, 142016, Control_c, 0, 64, 127
2, 142020, Note_off_c, 0, 36, 0
2, 142084, Note_off_c, 0, 24, 0
2, 142396, Note_on_c, 0, 63, 76
2, 142404, Note_on_c, 0, 60, 72
2, 142412, Note_on_c, 0, 55, 66
2, 142416, Note_on_c, 0, 48, 66
2, 142464, Control_c, 0, 64, 104
2, 142472, Control_c, 0, 64, 56
2, 142484, Control_c, 0, 64, 0
2, 142580, Control_c, 0, 64, 40
2, 142592, Control_c, 0, 64, 88
2, 142604, Control_c, 0, 64, 127
2, 142672, Note_off_c, 0, 60, 0
2, 142828, Control_c, 0, 64, 88
2, 142836, Note_off_c, 0, 63, 0
2, 142840, Control_c, 0, 64, 0
2, 142852, Note_on_c, 0, 65, 78
2, 142860, Note_on_c, 0, 59, 66
2, 142864, Note_on_c, 0, 56, 71
2, 142884, Note_off_c, 0, 55, 0
2, 142904, Control_c, 0, 64, 40
2, 142916, Control_c, 0, 64, 72
2, 142924, Control_c, 0, 64, 127
2, 142936, Note_off_c, 0, 59, 0
2, 142992, Note_off_c, 0, 65, 0
2, 143012, Note_on_c, 0, 63, 73
2, 143016, Note_off_c, 0, 56, 0
2, 143016, Note_on_c, 0, 60, 73
2, 143032, Note_on_c, 0, 55, 67
2, 143064, Control_c, 0, 64, 104
2, 143076, Control_c, 0, 64, 56
2, 143084, Control_c, 0, 64, 0
2, 143088, Note_off_c, 0, 60, 0
2, 143152, Control_c, 0, 64, 24
2, 143160, Control_c, 0, 64, 56
2, 143168, Note_on_c, 0, 68, 80
2, 143172, Control_c, 0, 64, 104
2, 143176, Note_off_c, 0, 63, 0
2, 143180, Note_on_c, 0, 59, 64
2, 143184, Control_c, 0, 64, 127
2, 143188, Note_on_c, 0, 53, 66
2, 143200, Note_off_c, 0, 55, 0
2, 143248, Note_off_c, 0, 59, 0
2, 143272, Note_off_c, 0, 68, 0
2, 143316, Note_off_c, 0, 53, 0
2, 143336, Note_on_c, 0, 67, 79
2, 143336, Note_on_c, 0, 51, 69
2, 143344, Control_c, 0, 64, 72
2, 143348, Note_on_c, 0, 60, 63
2, 143352, Control_c, 0, 64, 0
2, 143420, Control_c, 0, 64, 24
2, 143424, Note_off_c, 0, 67, 0
2, 143428, Control_c, 0, 64, 88
2, 143432, Note_off_c, 0, 60, 0
2, 143440, Control_c, 0, 64, 127
2, 143448, Note_off_c, 0, 48, 0
2, 143456, Note_off_c, 0, 51, 0
2, 143664, Note_on_c, 0, 60, 89
2, 143664, Control_c, 0, 64, 88
2, 143672, Note_on_c, 0, 48, 81
2, 143676, Note_on_c, 0, 53, 71
2, 143676, Control_c, 0, 64, 24
2, 143680, Note_on_c, 0, 44, 71
2, 143680, Note_on_c, 0, 32, 68
2, 143688, Control_c, 0, 64, 0
2, 143728, Control_c, 0, 64, 40
2, 143736, Control_c, 0, 64, 104
2, 143748, Control_c, 0, 64, 127
2, 143756, Note_off_c, 0, 48, 0
2, 143820, Note_off_c, 0, 44, 0
2, 143820, Note_off_c, 0, 32, 0
2, 143868, Note_on_c, 0, 62, 86
2, 143868, Note_on_c, 0, 50, 74
2, 143868, Note_on_c, 0, 53, 65
2, 143888, Note_on_c, 0, 43, 68
2, 143892, Note_on_c, 0, 31, 55
2, 143924, Control_c, 0, 64, 56
2, 143932, Control_c, 0, 64, 0
2, 144044, Note_off_c, 0, 53, 0
2, 144052, Control_c, 0, 64, 40
2, 144056, Note_off_c, 0, 50, 0
2, 144060, Control_c, 0, 64, 88
2, 144068, Note_off_c, 0, 53, 0
2, 144072, Control_c, 0, 64, 127
2, 144092, Note_off_c, 0, 31, 0
2, 144120, Note_off_c, 0, 60, 0
2, 144120, Note_off_c, 0, 62, 0
2, 144124, Note_off_c, 0, 43, 0
2, 144404, Note_on_c, 0, 92, 86
2, 144404, Note_on_c, 0, 59, 68
2, 144408, Note_on_c, 0, 53, 63
2, 144412, Note_on_c, 0, 50, 60
2, 144412, Note_on_c, 0, 55, 59
2, 144436, Control_c, 0, 64, 104
2, 144448, Control_c, 0, 64, 40
2, 144460, Control_c, 0, 64, 0
2, 144480, Control_c, 0, 64, 40
2, 144492, Control_c, 0, 64, 88
2, 144500, Note_on_c, 0, 91, 88
2, 144500, Control_c, 0, 64, 127
2, 144508, Note_off_c, 0, 92, 0
2, 144580, Note_off_c, 0, 91, 0
2, 144588, Note_on_c, 0, 89, 89
2, 144664, Note_on_c, 0, 87, 76
2, 144680, Note_off_c, 0, 89, 0
2, 144744, Note_on_c, 0, 86, 84
2, 144752, Note_off_c, 0, 87, 0
2, 144784, Note_off_c, 0, 53, 0
2, 144792, Note_off_c, 0, 59, 0
2, 144792, Note_off_c, 0, 50, 0
2, 144808, Note_off_c, 0, 55, 0
2, 144820, Note_off_c, 0, 86, 0
2, 144832, Note_on_c, 0, 84, 87
2, 144896, Note_off_c, 0, 84, 0
2, 144912, Note_on_c, 0, 83, 80
2, 144912, Note_on_c, 0, 55, 59
2, 144912, Note_on_c, 0, 50, 56
2, 144912, Note_on_c, 0, 53, 58
2, 144912, Note_on_c, 0, 60, 71
2, 144984, Control_c, 0, 64, 72
2, 144996, Control_c, 0, 64, 0
2, 145008, Note_on_c, 0, 80, 78
2, 145032, Note_off_c, 0, 83, 0
2, 145056, Control_c, 0, 64, 72
2, 145068, Control_c, 0, 64, 127
2, 145096, Note_on_c, 0, 79, 73
2, 145108, Note_off_c, 0, 50, 0
2, 145116, Note_off_c, 0, 80, 0
2, 145120, Note_off_c, 0, 53, 0
2, 145124, Note_off_c, 0, 55, 0
2, 145156, Note_off_c, 0, 79, 0
2, 145168, Note_on_c, 0, 77, 74
2, 145176, Note_off_c, 0, 60, 0
2, 145232, Note_off_c, 0, 77, 0
2, 145244, Note_on_c, 0, 75, 70
2, 145324, Note_on_c, 0, 74, 76
2, 145384, Note_off_c, 0, 75, 0
2, 145384, Note_off_c, 0, 74, 0
2, 145404, Note_on_c, 0, 72, 76
2, 145404, Note_on_c, 0, 63, 75
2, 145404, Note_on_c, 0, 53, 50
2, 145404, Note_on_c, 0, 55, 53
2, 145436, Control_c, 0, 64, 72
2, 145444, Control_c, 0, 64, 0
2, 145452, Note_off_c, 0, 72, 0
2, 145488, Note_on_c, 0, 71, 74
2, 145488, Control_c, 0, 64, 56
2, 145496, Control_c, 0, 64, 127
2, 145552, Note_off_c, 0, 71, 0
2, 145576, Note_on_c, 0, 68, 73
2, 145632, Note_off_c, 0, 63, 0
2, 145656, Note_off_c, 0, 68, 0
2, 145656, Note_on_c, 0, 67, 73
2, 145728, Note_off_c, 0, 67, 0
2, 145760, Note_off_c, 0, 55, 0
2, 145764, Note_on_c, 0, 66, 74
2, 145764, Note_on_c, 0, 62, 71
2, 145776, Note_off_c, 0, 53, 0
2, 145836, Note_off_c, 0, 62, 0
2, 145844, Note_off_c, 0, 66, 0
2, 145848, Note_on_c, 0, 65, 74
2, 145892, Control_c, 0, 64, 0
2, 145896, Note_off_c, 0, 65, 0
2, 145936, Control_c, 0, 64, 100
2, 145944, Note_on_c, 0, 48, 65
2, 145944, Note_on_c, 0, 63, 75
2, 145944, Note_on_c, 0, 55, 63
2, 146120, Control_c, 0, 64, 24
2, 146132, Control_c, 0, 64, 40
2, 146144, Note_off_c, 0, 48, 0
2, 146144, Control_c, 0, 64, 56
2, 146152, Control_c, 0, 64, 72
2, 146156, Note_off_c, 0, 55, 0
2, 146164, Control_c, 0, 64, 88
2, 146172, Control_c, 0, 64, 104
2, 146176, Note_off_c, 0, 63, 0
2, 146208, Control_c, 0, 64, 127
2, 146504, Note_on_c, 0, 65, 78
2, 146504, Note_on_c, 0, 63, 56
2, 146504, Note_on_c, 0, 47, 57
2, 146504, Note_on_c, 0, 57, 60
2, 146548, Control_c, 0, 64, 104
2, 146556, Control_c, 0, 64, 88
2, 146568, Control_c, 0, 64, 56
2, 146580, Control_c, 0, 64, 24
2, 146592, Control_c, 0, 64, 0
2, 146724, Control_c, 0, 64, 88
2, 146736, Control_c, 0, 64, 127
2, 146768, Note_off_c, 0, 47, 0
2, 146792, Note_off_c, 0, 57, 0
2, 146816, Note_off_c, 0, 65, 0
2, 146816, Note_off_c, 0, 63, 0
2, 147016, Note_on_c, 0, 68, 79
2, 147016, Note_on_c, 0, 63, 50
2, 147016, Note_on_c, 0, 46, 63
2, 147016, Note_on_c, 0, 60, 55
2, 147028, Control_c, 0, 64, 88
2, 147040, Control_c, 0, 64, 0
2, 147116, Control_c, 0, 64, 56
2, 147132, Control_c, 0, 64, 127
2, 147160, Note_off_c, 0, 68, 0
2, 147160, Note_off_c, 0, 63, 0
2, 147172, Note_off_c, 0, 60, 0
2, 147180, Note_on_c, 0, 67, 77
2, 147180, Note_on_c, 0, 58, 58
2, 147312, Note_off_c, 0, 58, 0
2, 147328, Note_off_c, 0, 67, 0
2, 147340, Note_on_c, 0, 72, 84
2, 147340, Note_on_c, 0, 56, 50
2, 147340, Note_on_c, 0, 62, 60
2, 147440, Note_off_c, 0, 56, 0
2, 147448, Note_off_c, 0, 62, 0
2, 147468, Note_off_c, 0, 72, 0
2, 147532, Note_on_c, 0, 70, 80
2, 147532, Note_on_c, 0, 63, 59
2, 147532, Note_on_c, 0, 55, 61
2, 147556, Control_c, 0, 64, 72
2, 147568, Control_c, 0, 64, 0
2, 147632, Note_off_c, 0, 55, 0
2, 147644, Note_off_c, 0, 63, 0
2, 147648, Control_c, 0, 64, 40
2, 147656, Control_c, 0, 64, 104
2, 147664, Note_off_c, 0, 46, 64
2, 147668, Note_off_c, 0, 70, 0
2, 147668, Control_c, 0, 64, 127
2, 147872, Note_on_c, 0, 63, 82
2, 147872, Note_on_c, 0, 57, 66
2, 147872, Note_on_c, 0, 53, 64
2, 147872, Note_on_c, 0, 35, 64
2, 147872, Note_on_c, 0, 47, 64
2, 147876, Control_c, 0, 64, 56
2, 147888, Control_c, 0, 64, 0
2, 147920, Control_c, 0, 64, 56
2, 147928, Note_off_c, 0, 47, 0
2, 147932, Control_c, 0, 64, 127
2, 147936, Note_off_c, 0, 35, 0
2, 147968, Note_off_c, 0, 57, 0
2, 148084, Note_on_c, 0, 65, 89
2, 148084, Note_on_c, 0, 58, 62
2, 148084, Note_on_c, 0, 63, 66
2, 148104, Note_on_c, 0, 46, 61
2, 148112, Note_on_c, 0, 34, 63
2, 148148, Control_c, 0, 64, 72
2, 148160, Control_c, 0, 64, 0
2, 148196, Note_off_c, 0, 63, 0
2, 148256, Note_off_c, 0, 53, 0
2, 148260, Note_off_c, 0, 63, 0
2, 148272, Control_c, 0, 64, 104
2, 148280, Control_c, 0, 64, 127
2, 148288, Note_off_c, 0, 58, 0
2, 148292, Note_off_c, 0, 34, 0
2, 148320, Note_off_c, 0, 65, 0
2, 148320, Note_off_c, 0, 46, 0
2, 148640, Note_on_c, 0, 96, 90
2, 148644, Note_on_c, 0, 62, 68
2, 148648, Note_on_c, 0, 53, 62
2, 148648, Note_on_c, 0, 58, 56
2, 148652, Note_on_c, 0, 56, 53
2, 148656, Control_c, 0, 64, 104
2, 148664, Control_c, 0, 64, 40
2, 148676, Control_c, 0, 64, 0
2, 148712, Control_c, 0, 64, 56
2, 148720, Note_off_c, 0, 96, 0
2, 148720, Control_c, 0, 64, 127
2, 148724, Note_on_c, 0, 94, 76
2, 148812, Note_on_c, 0, 92, 91
2, 148832, Note_off_c, 0, 94, 0
2, 148900, Note_on_c, 0, 91, 79
2, 148916, Note_off_c, 0, 92, 0
2, 148964, Note_off_c, 0, 62, 0
2, 148964, Note_off_c, 0, 53, 0
2, 148964, Note_off_c, 0, 91, 0
2, 148984, Note_off_c, 0, 58, 0
2, 148984, Note_on_c, 0, 89, 78
2, 148988, Note_off_c, 0, 56, 0
2, 149056, Note_off_c, 0, 89, 0
2, 149064, Note_on_c, 0, 87, 78
2, 149144, Note_off_c, 0, 87, 0
2, 149152, Note_on_c, 0, 86, 84
2, 149164, Note_on_c, 0, 63, 71
2, 149168, Note_on_c, 0, 56, 62
2, 149168, Note_on_c, 0, 58, 61
2, 149172, Note_on_c, 0, 53, 63
2, 149180, Control_c, 0, 64, 104
2, 149192, Control_c, 0, 64, 40
2, 149204, Control_c, 0, 64, 0
2, 149208, Note_on_c, 0, 87, 26
2, 149220, Note_off_c, 0, 86, 0
2, 149232, Note_off_c, 0, 87, 0
2, 149244, Note_on_c, 0, 84, 79
2, 149260, Control_c, 0, 64, 40
2, 149268, Control_c, 0, 64, 127
2, 149312, Note_off_c, 0, 84, 0
2, 149324, Note_on_c, 0, 82, 71
2, 149392, Note_off_c, 0, 53, 0
2, 149412, Note_on_c, 0, 80, 81
2, 149428, Note_off_c, 0, 56, 0
2, 149436, Note_off_c, 0, 82, 0
2, 149440, Note_off_c, 0, 58, 0
2, 149456, Note_off_c, 0, 63, 0
2, 149492, Note_off_c, 0, 80, 0
2, 149496, Note_on_c, 0, 79, 84
2, 149564, Note_off_c, 0, 79, 0
2, 149580, Note_on_c, 0, 77, 82
2, 149652, Note_off_c, 0, 77, 0
2, 149672, Note_on_c, 0, 67, 79
2, 149672, Note_on_c, 0, 75, 74
2, 149676, Note_on_c, 0, 58, 59
2, 149676, Control_c, 0, 64, 72
2, 149684, Note_on_c, 0, 56, 60
2, 149688, Control_c, 0, 64, 24
2, 149696, Control_c, 0, 64, 0
2, 149752, Note_off_c, 0, 75, 0
2, 149752, Control_c, 0, 64, 56
2, 149764, Note_on_c, 0, 74, 76
2, 149764, Control_c, 0, 64, 0
2, 149824, Note_off_c, 0, 74, 0
2, 149852, Note_on_c, 0, 72, 74
2, 149876, Note_off_c, 0, 67, 0
2, 149900, Note_off_c, 0, 72, 0
2, 149920, Note_on_c, 0, 70, 74
2, 149996, Note_off_c, 0, 70, 0
2, 150028, Note_on_c, 0, 69, 74
2, 150040, Note_on_c, 0, 65, 68
2, 150072, Note_off_c, 0, 65, 0
2, 150084, Note_off_c, 0, 58, 0
2, 150084, Note_off_c, 0, 56, 0
2, 150088, Note_off_c, 0, 69, 0
2, 150116, Note_on_c, 0, 68, 72
2, 150200, Note_off_c, 0, 68, 0
2, 150228, Note_on_c, 0, 67, 70
2, 150236, Control_c, 0, 64, 15
2, 150248, Note_on_c, 0, 63, 56
2, 150248, Control_c, 0, 64, 40
2, 150256, Note_on_c, 0, 58, 56
2, 150256, Control_c, 0, 64, 0
2, 150260, Note_on_c, 0, 51, 60
2, 150308, Note_off_c, 0, 67, 0
2, 150328, Note_on_c, 0, 68, 69
2, 150368, Control_c, 0, 64, 0
2, 150376, Control_c, 0, 64, 0
2, 150388, Control_c, 0, 64, 0
2, 150400, Note_off_c, 0, 68, 0
2, 150420, Note_on_c, 0, 70, 65
2, 150520, Note_on_c, 0, 72, 72
2, 150544, Note_off_c, 0, 70, 0
2, 150560, Note_off_c, 0, 72, 0
2, 150604, Note_on_c, 0, 74, 75
2, 150620, Note_off_c, 0, 51, 0
2, 150628, Note_off_c, 0, 58, 0
2, 150660, Note_off_c, 0, 74, 0
2, 150664, Note_off_c, 0, 63, 0
2, 150688, Note_on_c, 0, 75, 71
2, 150752, Note_off_c, 0, 75, 0
2, 150764, Control_c, 0, 64, 56
2, 150772, Control_c, 0, 64, 0
2, 150780, Note_on_c, 0, 80, 74
2, 150792, Note_on_c, 0, 48, 64
2, 150832, Note_off_c, 0, 80, 0
2, 150840, Control_c, 0, 64, 72
2, 150848, Control_c, 0, 64, 127
2, 150868, Note_on_c, 0, 79, 77
2, 150880, Note_off_c, 0, 48, 0
2, 150936, Note_off_c, 0, 79, 0
2, 150952, Note_on_c, 0, 77, 76
2, 150964, Note_on_c, 0, 63, 55
2, 151036, Note_on_c, 0, 75, 77
2, 151048, Note_off_c, 0, 77, 0
2, 151116, Note_off_c, 0, 75, 0
2, 151116, Note_on_c, 0, 56, 39
2, 151128, Note_off_c, 0, 63, 0
2, 151128, Note_on_c, 0, 74, 81
2, 151180, Note_off_c, 0, 74, 0
2, 151212, Note_on_c, 0, 72, 74
2, 151296, Note_off_c, 0, 72, 0
2, 151300, Note_off_c, 0, 56, 0
2, 151308, Note_on_c, 0, 70, 64
2, 151312, Control_c, 0, 64, 1
2, 151316, Note_on_c, 0, 53, 67
2, 151320, Control_c, 0, 64, 0
2, 151396, Note_on_c, 0, 68, 67
2, 151404, Note_off_c, 0, 70, 0
2, 151408, Control_c, 0, 64, 40
2, 151420, Control_c, 0, 64, 88
2, 151432, Control_c, 0, 64, 104
2, 151440, Control_c, 0, 64, 0
2, 151472, Note_off_c, 0, 68, 0
2, 151484, Note_on_c, 0, 67, 68
2, 151508, Note_on_c, 0, 60, 52
2, 151552, Note_off_c, 0, 67, 0
2, 151564, Note_on_c, 0, 65, 63
2, 151612, Note_off_c, 0, 53, 0
2, 151640, Note_off_c, 0, 65, 0
2, 151648, Note_off_c, 0, 60, 0
2, 151664, Note_on_c, 0, 64, 66
2, 151664, Note_on_c, 0, 56, 48
2, 151728, Note_off_c, 0, 64, 0
2, 151752, Note_on_c, 0, 65, 60
2, 151780, Control_c, 0, 64, 104
2, 151796, Control_c, 0, 64, 72
2, 151804, Control_c, 0, 64, 0
2, 151836, Note_off_c, 0, 65, 0
2, 151836, Note_on_c, 0, 46, 65
2, 151836, Note_on_c, 0, 67, 71
2, 151840, Note_off_c, 0, 56, 0
2, 151904, Control_c, 0, 64, 56
2, 151908, Note_off_c, 0, 67, 0
2, 151916, Control_c, 0, 64, 104
2, 151920, Note_on_c, 0, 68, 62
2, 151924, Note_off_c, 0, 46, 0
2, 151924, Control_c, 0, 64, 0
2, 151992, Note_off_c, 0, 68, 0
2, 152008, Note_on_c, 0, 62, 55
2, 152008, Note_on_c, 0, 69, 73
2, 152084, Note_off_c, 0, 69, 64
2, 152096, Note_on_c, 0, 70, 63
2, 152168, Note_off_c, 0, 70, 0
2, 152180, Note_on_c, 0, 72, 76
2, 152180, Note_on_c, 0, 56, 56
2, 152244, Note_off_c, 0, 62, 0
2, 152256, Note_on_c, 0, 70, 71
2, 152260, Note_off_c, 0, 72, 0
2, 152332, Control_c, 0, 64, 104
2, 152336, Note_off_c, 0, 70, 0
2, 152344, Control_c, 0, 64, 56
2, 152348, Note_off_c, 0, 56, 0
2, 152348, Note_on_c, 0, 67, 75
2, 152348, Note_on_c, 0, 51, 61
2, 152352, Control_c, 0, 64, 0
2, 152432, Note_on_c, 0, 68, 70
2, 152452, Note_off_c, 0, 67, 0
2, 152452, Control_c, 0, 64, 72
2, 152464, Control_c, 0, 64, 104
2, 152472, Control_c, 0, 64, 127
2, 152520, Note_on_c, 0, 70, 69
2, 152528, Note_off_c, 0, 68, 0
2, 152532, Note_on_c, 0, 63, 51
2, 152564, Note_off_c, 0, 70, 0
2, 152600, Note_on_c, 0, 72, 81
2, 152636, Note_off_c, 0, 51, 0
2, 152668, Note_off_c, 0, 72, 0
2, 152672, Note_off_c, 0, 63, 0
2, 152692, Note_on_c, 0, 74, 83
2, 152692, Note_on_c, 0, 55, 46
2, 152752, Note_off_c, 0, 74, 0
2, 152760, Control_c, 0, 64, 104
2, 152768, Control_c, 0, 64, 88
2, 152772, Note_on_c, 0, 75, 77
2, 152792, Control_c, 0, 64, 56
2, 152804, Control_c, 0, 64, 24
2, 152816, Control_c, 0, 64, 0
2, 152848, Note_off_c, 0, 55, 0
2, 152852, Note_off_c, 0, 75, 0
2, 152872, Note_on_c, 0, 80, 73
2, 152880, Note_on_c, 0, 48, 63
2, 152892, Control_c, 0, 64, 40
2, 152900, Control_c, 0, 64, 88
2, 152912, Control_c, 0, 64, 127
2, 152928, Note_off_c, 0, 80, 0
2, 152948, Note_off_c, 0, 48, 0
2, 152964, Note_on_c, 0, 79, 73
2, 153032, Note_off_c, 0, 79, 0
2, 153048, Note_on_c, 0, 77, 78
2, 153064, Note_on_c, 0, 63, 52
2, 153132, Note_off_c, 0, 77, 0
2, 153132, Note_on_c, 0, 75, 76
2, 153192, Note_off_c, 0, 63, 0
2, 153208, Note_off_c, 0, 75, 0
2, 153216, Note_on_c, 0, 55, 49
2, 153220, Note_on_c, 0, 74, 80
2, 153268, Note_off_c, 0, 74, 0
2, 153304, Note_on_c, 0, 72, 72
2, 153360, Note_off_c, 0, 55, 0
2, 153372, Note_off_c, 0, 72, 0
2, 153384, Control_c, 0, 64, 104
2, 153392, Note_on_c, 0, 70, 65
2, 153392, Control_c, 0, 64, 56
2, 153400, Note_on_c, 0, 53, 68
2, 153404, Control_c, 0, 64, 0
2, 153476, Note_on_c, 0, 68, 65
2, 153488, Note_off_c, 0, 70, 0
2, 153504, Control_c, 0, 64, 40
2, 153516, Control_c, 0, 64, 72
2, 153528, Control_c, 0, 64, 88
2, 153536, Control_c, 0, 64, 104
2, 153548, Control_c, 0, 64, 127
2, 153552, Note_off_c, 0, 68, 0
2, 153560, Note_on_c, 0, 67, 71
2, 153580, Note_on_c, 0, 60, 51
2, 153624, Note_off_c, 0, 67, 0
2, 153644, Note_on_c, 0, 65, 67
2, 153688, Note_off_c, 0, 60, 0
2, 153704, Note_off_c, 0, 53, 0
2, 153712, Note_off_c, 0, 65, 0
2, 153728, Note_on_c, 0, 56, 37
2, 153744, Note_on_c, 0, 64, 67
2, 153804, Note_off_c, 0, 64, 0
2, 153832, Note_on_c, 0, 65, 70
2, 153856, Control_c, 0, 64, 104
2, 153868, Control_c, 0, 64, 88
2, 153880, Control_c, 0, 64, 72
2, 153892, Note_off_c, 0, 56, 0
2, 153892, Control_c, 0, 64, 40
2, 153900, Control_c, 0, 64, 0
2, 153904, Note_off_c, 0, 65, 0
2, 153920, Note_on_c, 0, 67, 68
2, 153932, Note_on_c, 0, 46, 63
2, 153996, Note_off_c, 0, 67, 0
2, 154008, Control_c, 0, 64, 24
2, 154012, Note_off_c, 0, 46, 0
2, 154012, Note_on_c, 0, 68, 61
2, 154020, Control_c, 0, 64, 56
2, 154032, Control_c, 0, 64, 88
2, 154044, Control_c, 0, 64, 104
2, 154052, Control_c, 0, 64, 127
2, 154068, Note_off_c, 0, 68, 0
2, 154092, Note_on_c, 0, 69, 67
2, 154112, Note_on_c, 0, 62, 53
2, 154164, Note_off_c, 0, 69, 0
2, 154168, Note_on_c, 0, 70, 61
2, 154244, Note_off_c, 0, 70, 0
2, 154252, Note_on_c, 0, 56, 32
2, 154264, Note_on_c, 0, 72, 70
2, 154280, Note_off_c, 0, 62, 0
2, 154324, Note_off_c, 0, 72, 0
2, 154348, Note_on_c, 0, 70, 65
2, 154396, Note_off_c, 0, 56, 0
2, 154404, Control_c, 0, 64, 104
2, 154416, Note_off_c, 0, 70, 0
2, 154416, Control_c, 0, 64, 72
2, 154428, Control_c, 0, 64, 24
2, 154436, Control_c, 0, 64, 0
2, 154444, Note_on_c, 0, 67, 63
2, 154448, Note_on_c, 0, 51, 64
2, 154516, Control_c, 0, 64, 40
2, 154520, Note_on_c, 0, 68, 62
2, 154524, Control_c, 0, 64, 72
2, 154532, Note_off_c, 0, 67, 0
2, 154536, Control_c, 0, 64, 104
2, 154548, Control_c, 0, 64, 127
2, 154604, Note_on_c, 0, 70, 64
2, 154604, Note_on_c, 0, 61, 60
2, 154608, Note_off_c, 0, 68, 0
2, 154644, Note_off_c, 0, 70, 0
2, 154680, Note_on_c, 0, 72, 66
2, 154728, Note_off_c, 0, 51, 0
2, 154756, Note_off_c, 0, 72, 0
2, 154768, Note_on_c, 0, 73, 72
2, 154780, Note_off_c, 0, 61, 0
2, 154788, Note_on_c, 0, 55, 51
2, 154856, Note_on_c, 0, 75, 76
2, 154860, Note_off_c, 0, 73, 0
2, 154916, Note_off_c, 0, 75, 0
2, 154936, Note_off_c, 0, 55, 0
2, 154944, Note_on_c, 0, 77, 81
2, 154944, Control_c, 0, 64, 104
2, 154952, Control_c, 0, 64, 56
2, 154956, Note_on_c, 0, 50, 68
2, 154964, Control_c, 0, 64, 0
2, 155016, Note_off_c, 0, 77, 0
2, 155036, Note_on_c, 0, 79, 84
2, 155040, Control_c, 0, 64, 24
2, 155052, Control_c, 0, 64, 72
2, 155064, Control_c, 0, 64, 104
2, 155076, Control_c, 0, 64, 127
2, 155108, Note_off_c, 0, 79, 0
2, 155120, Note_on_c, 0, 80, 78
2, 155128, Note_off_c, 0, 50, 0
2, 155136, Note_on_c, 0, 61, 50
2, 155204, Note_on_c, 0, 82, 73
2, 155232, Note_off_c, 0, 80, 0
2, 155256, Note_off_c, 0, 82, 0
2, 155300, Note_on_c, 0, 84, 76
2, 155300, Note_on_c, 0, 51, 69
2, 155304, Control_c, 0, 64, 104
2, 155316, Control_c, 0, 64, 72
2, 155328, Control_c, 0, 64, 0
2, 155380, Note_on_c, 0, 85, 75
2, 155388, Note_off_c, 0, 84, 0
2, 155396, Control_c, 0, 64, 56
2, 155404, Control_c, 0, 64, 104
2, 155416, Control_c, 0, 64, 127
2, 155420, Note_off_c, 0, 61, 0
2, 155424, Note_off_c, 0, 51, 0
2, 155472, Note_on_c, 0, 87, 77
2, 155480, Note_on_c, 0, 53, 72
2, 155488, Note_off_c, 0, 85, 0
2, 155528, Note_off_c, 0, 87, 0
2, 155568, Note_on_c, 0, 89, 81
2, 155600, Control_c, 0, 64, 104
2, 155612, Control_c, 0, 64, 0
2, 155648, Note_on_c, 0, 61, 55
2, 155652, Note_on_c, 0, 91, 81
2, 155660, Note_off_c, 0, 89, 0
2, 155700, Control_c, 0, 64, 88
2, 155712, Control_c, 0, 64, 127
2, 155732, Note_on_c, 0, 92, 88
2, 155736, Note_off_c, 0, 91, 0
2, 155780, Note_off_c, 0, 92, 0
2, 155816, Note_on_c, 0, 56, 76
2, 155820, Note_off_c, 0, 53, 0
2, 155840, Note_on_c, 0, 101, 85
2, 155892, Note_off_c, 0, 101, 0
2, 155900, Note_off_c, 0, 56, 0
2, 155916, Note_on_c, 0, 99, 85
2, 155976, Note_off_c, 0, 61, 0
2, 156000, Note_on_c, 0, 97, 78
2, 156000, Note_on_c, 0, 55, 73
2, 156008, Control_c, 0, 64, 88
2, 156012, Note_off_c, 0, 99, 0
2, 156020, Control_c, 0, 64, 24
2, 156028, Control_c, 0, 64, 0
2, 156076, Note_off_c, 0, 97, 0
2, 156080, Note_on_c, 0, 96, 77
2, 156116, Control_c, 0, 64, 40
2, 156124, Note_off_c, 0, 96, 0
2, 156128, Control_c, 0, 64, 72
2, 156140, Control_c, 0, 64, 104
2, 156152, Control_c, 0, 64, 127
2, 156168, Note_on_c, 0, 94, 60
2, 156188, Note_on_c, 0, 65, 40
2, 156244, Note_on_c, 0, 92, 78
2, 156264, Note_off_c, 0, 94, 0
2, 156296, Note_off_c, 0, 55, 0
2, 156312, Note_on_c, 0, 61, 48
2, 156316, Note_off_c, 0, 92, 0
2, 156324, Note_on_c, 0, 91, 74
2, 156384, Note_off_c, 0, 91, 0
2, 156408, Note_on_c, 0, 89, 74
2, 156444, Note_off_c, 0, 65, 0
2, 156476, Note_off_c, 0, 89, 0
2, 156488, Note_on_c, 0, 87, 64
2, 156496, Note_on_c, 0, 55, 79
2, 156524, Control_c, 0, 64, 88
2, 156532, Note_off_c, 0, 61, 0
2, 156536, Control_c, 0, 64, 72
2, 156544, Control_c, 0, 64, 24
2, 156556, Control_c, 0, 64, 0
2, 156572, Note_off_c, 0, 87, 0
2, 156572, Note_on_c, 0, 85, 65
2, 156656, Note_off_c, 0, 85, 0
2, 156656, Control_c, 0, 64, 56
2, 156668, Control_c, 0, 64, 72
2, 156672, Note_on_c, 0, 84, 70
2, 156680, Control_c, 0, 64, 88
2, 156688, Control_c, 0, 64, 104
2, 156696, Note_on_c, 0, 65, 55
2, 156728, Note_off_c, 0, 84, 0
2, 156732, Control_c, 0, 64, 127
2, 156756, Note_on_c, 0, 82, 46
2, 156832, Note_on_c, 0, 80, 65
2, 156836, Note_on_c, 0, 61, 44
2, 156840, Note_off_c, 0, 82, 0
2, 156868, Note_off_c, 0, 55, 0
2, 156876, Note_off_c, 0, 65, 0
2, 156904, Note_off_c, 0, 80, 0
2, 156920, Note_on_c, 0, 79, 66
2, 156976, Note_off_c, 0, 79, 0
2, 157004, Note_on_c, 0, 56, 70
2, 157008, Note_on_c, 0, 77, 70
2, 157012, Note_off_c, 0, 61, 0
2, 157016, Control_c, 0, 64, 104
2, 157040, Control_c, 0, 64, 56
2, 157052, Control_c, 0, 64, 0
2, 157064, Note_off_c, 0, 77, 0
2, 157092, Note_on_c, 0, 75, 50
2, 157136, Control_c, 0, 64, 40
2, 157152, Control_c, 0, 64, 56
2, 157160, Control_c, 0, 64, 88
2, 157184, Control_c, 0, 64, 104
2, 157188, Note_off_c, 0, 75, 0
2, 157188, Note_on_c, 0, 73, 62
2, 157188, Note_on_c, 0, 65, 52
2, 157216, Control_c, 0, 64, 127
2, 157264, Note_off_c, 0, 73, 0
2, 157280, Note_on_c, 0, 72, 68
2, 157308, Note_off_c, 0, 56, 0
2, 157344, Note_off_c, 0, 72, 0
2, 157360, Note_on_c, 0, 70, 48
2, 157360, Note_on_c, 0, 61, 42
2, 157376, Note_off_c, 0, 65, 0
2, 157436, Note_off_c, 0, 70, 0
2, 157448, Note_on_c, 0, 68, 67
2, 157488, Note_off_c, 0, 61, 0
2, 157500, Control_c, 0, 64, 88
2, 157512, Control_c, 0, 64, 40
2, 157524, Control_c, 0, 64, 0
2, 157532, Note_off_c, 0, 68, 0
2, 157556, Note_on_c, 0, 67, 60
2, 157556, Note_on_c, 0, 61, 61
2, 157556, Note_on_c, 0, 65, 64
2, 157556, Note_on_c, 0, 58, 62
2, 157568, Control_c, 0, 64, 24
2, 157576, Control_c, 0, 64, 56
2, 157588, Control_c, 0, 64, 88
2, 157600, Control_c, 0, 64, 104
2, 157608, Control_c, 0, 64, 127
2, 157620, Note_off_c, 0, 61, 0
2, 157624, Note_off_c, 0, 65, 0
2, 157624, Note_off_c, 0, 58, 0
2, 157640, Note_on_c, 0, 68, 74
2, 157652, Note_off_c, 0, 67, 0
2, 157688, Control_c, 0, 64, 104
2, 157700, Control_c, 0, 64, 56
2, 157708, Control_c, 0, 64, 0
2, 157716, Note_on_c, 0, 61, 58
2, 157728, Note_off_c, 0, 68, 0
2, 157728, Note_on_c, 0, 63, 66
2, 157728, Note_on_c, 0, 70, 60
2, 157732, Note_on_c, 0, 58, 58
2, 157752, Note_on_c, 0, 51, 59
2, 157784, Note_off_c, 0, 70, 0
2, 157808, Control_c, 0, 64, 72
2, 157816, Note_on_c, 0, 71, 76
2, 157820, Control_c, 0, 64, 104
2, 157828, Control_c, 0, 64, 127
2, 157896, Note_off_c, 0, 71, 0
2, 157900, Note_on_c, 0, 72, 80
2, 157972, Note_off_c, 0, 72, 0
2, 157992, Note_on_c, 0, 73, 69
2, 158060, Note_off_c, 0, 73, 0
2, 158076, Note_on_c, 0, 74, 64
2, 158152, Note_off_c, 0, 74, 0
2, 158160, Control_c, 0, 64, 104
2, 158164, Note_on_c, 0, 75, 77
2, 158184, Control_c, 0, 64, 88
2, 158192, Control_c, 0, 64, 56
2, 158204, Control_c, 0, 64, 40
2, 158216, Control_c, 0, 64, 24
2, 158236, Control_c, 0, 64, 0
2, 158260, Note_on_c, 0, 79, 78
2, 158272, Note_off_c, 0, 51, 0
2, 158284, Note_off_c, 0, 75, 0
2, 158324, Note_off_c, 0, 58, 0
2, 158324, Note_off_c, 0, 79, 0
2, 158340, Note_on_c, 0, 77, 76
2, 158356, Note_off_c, 0, 63, 0
2, 158360, Note_off_c, 0, 61, 0
2, 158424, Note_off_c, 0, 77, 0
2, 158424, Note_on_c, 0, 75, 68
2, 158492, Note_off_c, 0, 75, 0
2, 158532, Note_on_c, 0, 73, 51
2, 158604, Note_off_c, 0, 73, 0
2, 158612, Note_on_c, 0, 72, 69
2, 158628, Note_on_c, 0, 56, 62
2, 158664, Control_c, 0, 64, 56
2, 158672, Control_c, 0, 64, 88
2, 158684, Note_off_c, 0, 72, 0
2, 158688, Control_c, 0, 64, 104
2, 158696, Note_on_c, 0, 73, 70
2, 158696, Control_c, 0, 64, 127
2, 158772, Note_off_c, 0, 73, 0
2, 158788, Note_on_c, 0, 75, 71
2, 158812, Note_on_c, 0, 68, 49
2, 158884, Note_on_c, 0, 77, 72
2, 158912, Note_off_c, 0, 75, 0
2, 158932, Note_off_c, 0, 77, 0
2, 158944, Note_off_c, 0, 56, 0
2, 158964, Note_on_c, 0, 60, 48
2, 158968, Note_off_c, 0, 68, 0
2, 158968, Note_on_c, 0, 79, 73
2, 159008, Note_off_c, 0, 60, 0
2, 159032, Note_off_c, 0, 79, 0
2, 159040, Note_on_c, 0, 80, 75
2, 159104, Control_c, 0, 64, 104
2, 159112, Control_c, 0, 64, 56
2, 159116, Note_off_c, 0, 80, 0
2, 159124, Control_c, 0, 64, 0
2, 159148, Note_on_c, 0, 85, 76
2, 159164, Note_on_c, 0, 53, 63
2, 159188, Control_c, 0, 64, 56
2, 159196, Note_off_c, 0, 85, 0
2, 159204, Control_c, 0, 64, 88
2, 159212, Control_c, 0, 64, 104
2, 159224, Control_c, 0, 64, 127
2, 159228, Note_off_c, 0, 53, 0
2, 159232, Note_on_c, 0, 84, 76
2, 159304, Note_off_c, 0, 84, 0
2, 159312, Note_on_c, 0, 82, 75
2, 159332, Note_on_c, 0, 68, 56
2, 159400, Note_on_c, 0, 80, 75
2, 159456, Note_off_c, 0, 82, 0
2, 159476, Note_off_c, 0, 80, 0
2, 159484, Note_on_c, 0, 79, 74
2, 159508, Note_on_c, 0, 60, 56
2, 159536, Note_off_c, 0, 79, 0
2, 159560, Note_off_c, 0, 68, 0
2, 159576, Note_on_c, 0, 77, 73
2, 159632, Note_off_c, 0, 60, 0
2, 159636, Note_off_c, 0, 77, 0
2, 159640, Control_c, 0, 64, 104
2, 159652, Control_c, 0, 64, 72
2, 159664, Note_on_c, 0, 75, 70
2, 159664, Control_c, 0, 64, 40
2, 159668, Note_on_c, 0, 58, 64
2, 159672, Control_c, 0, 64, 0
2, 159740, Note_on_c, 0, 73, 71
2, 159764, Control_c, 0, 64, 24
2, 159776, Control_c, 0, 64, 40
2, 159784, Control_c, 0, 64, 56
2, 159796, Note_off_c, 0, 75, 0
2, 159796, Control_c, 0, 64, 72
2, 159808, Control_c, 0, 64, 88
2, 159820, Note_off_c, 0, 73, 0
2, 159824, Note_on_c, 0, 72, 76
2, 159832, Note_on_c, 0, 65, 60
2, 159852, Control_c, 0, 64, 104
2, 159904, Note_on_c, 0, 70, 74
2, 159920, Note_off_c, 0, 72, 0
2, 159928, Control_c, 0, 64, 127
2, 159972, Note_off_c, 0, 58, 0
2, 159976, Note_off_c, 0, 65, 0
2, 159976, Note_off_c, 0, 70, 0
2, 159976, Note_on_c, 0, 61, 49
2, 160000, Note_on_c, 0, 69, 72
2, 160076, Note_off_c, 0, 69, 0
2, 160080, Control_c, 0, 64, 104
2, 160084, Note_on_c, 0, 70, 71
2, 160092, Control_c, 0, 64, 88
2, 160116, Control_c, 0, 64, 72
2, 160124, Control_c, 0, 64, 40
2, 160136, Control_c, 0, 64, 0
2, 160148, Note_off_c, 0, 70, 0
2, 160152, Note_off_c, 0, 61, 0
2, 160180, Note_on_c, 0, 71, 70
2, 160188, Note_on_c, 0, 51, 62
2, 160236, Control_c, 0, 64, 40
2, 160248, Control_c, 0, 64, 56
2, 160256, Note_off_c, 0, 71, 0
2, 160256, Control_c, 0, 64, 88
2, 160264, Note_off_c, 0, 51, 0
2, 160264, Note_on_c, 0, 72, 72
2, 160280, Control_c, 0, 64, 104
2, 160312, Control_c, 0, 64, 127
2, 160336, Note_off_c, 0, 72, 0
2, 160352, Note_on_c, 0, 73, 73
2, 160376, Note_on_c, 0, 67, 49
2, 160412, Note_off_c, 0, 73, 0
2, 160428, Note_on_c, 0, 74, 74
2, 160516, Note_off_c, 0, 74, 0
2, 160520, Note_on_c, 0, 61, 42
2, 160520, Control_c, 0, 64, 104
2, 160524, Note_on_c, 0, 77, 76
2, 160612, Note_off_c, 0, 77, 0
2, 160612, Note_on_c, 0, 75, 71
2, 160624, Note_off_c, 0, 67, 0
2, 160652, Control_c, 0, 64, 72
2, 160664, Note_off_c, 0, 61, 0
2, 160664, Control_c, 0, 64, 56
2, 160672, Control_c, 0, 64, 0
2, 160680, Note_off_c, 0, 75, 0
2, 160696, Note_on_c, 0, 56, 63
2, 160700, Note_on_c, 0, 72, 74
2, 160784, Note_off_c, 0, 72, 0
2, 160784, Note_on_c, 0, 73, 65
2, 160784, Control_c, 0, 64, 40
2, 160796, Control_c, 0, 64, 72
2, 160808, Control_c, 0, 64, 104
2, 160816, Control_c, 0, 64, 127
2, 160868, Note_off_c, 0, 73, 0
2, 160872, Note_on_c, 0, 75, 62
2, 160884, Note_on_c, 0, 68, 47
2, 160916, Note_off_c, 0, 75, 0
2, 160956, Note_on_c, 0, 77, 76
2, 161000, Note_off_c, 0, 56, 0
2, 161020, Note_off_c, 0, 77, 0
2, 161036, Note_on_c, 0, 79, 74
2, 161040, Note_on_c, 0, 60, 42
2, 161052, Note_off_c, 0, 68, 0
2, 161064, Note_off_c, 0, 60, 0
2, 161100, Note_off_c, 0, 79, 0
2, 161120, Note_on_c, 0, 80, 75
2, 161168, Control_c, 0, 64, 88
2, 161180, Control_c, 0, 64, 56
2, 161188, Note_off_c, 0, 80, 0
2, 161188, Control_c, 0, 64, 0
2, 161216, Note_on_c, 0, 53, 72
2, 161220, Note_on_c, 0, 85, 73
2, 161268, Note_off_c, 0, 85, 0
2, 161268, Control_c, 0, 64, 40
2, 161280, Control_c, 0, 64, 88
2, 161288, Control_c, 0, 64, 104
2, 161300, Control_c, 0, 64, 127
2, 161308, Note_on_c, 0, 84, 74
2, 161328, Note_off_c, 0, 53, 0
2, 161388, Note_on_c, 0, 82, 69
2, 161396, Note_off_c, 0, 84, 0
2, 161396, Note_on_c, 0, 68, 43
2, 161472, Note_on_c, 0, 80, 69
2, 161516, Note_off_c, 0, 82, 0
2, 161544, Note_off_c, 0, 68, 0
2, 161548, Note_off_c, 0, 80, 0
2, 161548, Note_on_c, 0, 79, 76
2, 161568, Note_on_c, 0, 60, 57
2, 161596, Note_off_c, 0, 79, 0
2, 161632, Note_on_c, 0, 77, 72
2, 161700, Note_off_c, 0, 60, 0
2, 161704, Note_off_c, 0, 77, 0
2, 161716, Control_c, 0, 64, 88
2, 161720, Note_on_c, 0, 75, 62
2, 161724, Note_on_c, 0, 58, 72
2, 161728, Control_c, 0, 64, 40
2, 161736, Control_c, 0, 64, 0
2, 161820, Note_on_c, 0, 73, 58
2, 161828, Control_c, 0, 64, 40
2, 161840, Control_c, 0, 64, 72
2, 161848, Control_c, 0, 64, 104
2, 161856, Control_c, 0, 64, 127
2, 161872, Note_off_c, 0, 75, 0
2, 161900, Note_off_c, 0, 73, 0
2, 161904, Note_on_c, 0, 72, 78
2, 161920, Note_on_c, 0, 65, 49
2, 161980, Note_on_c, 0, 70, 55
2, 161996, Note_off_c, 0, 72, 0
2, 162044, Note_off_c, 0, 65, 0
2, 162056, Note_off_c, 0, 70, 0
2, 162068, Note_off_c, 0, 58, 0
2, 162068, Note_on_c, 0, 61, 46
2, 162076, Note_on_c, 0, 69, 68
2, 162144, Note_off_c, 0, 69, 0
2, 162156, Note_on_c, 0, 70, 69
2, 162168, Control_c, 0, 64, 104
2, 162176, Control_c, 0, 64, 88
2, 162188, Control_c, 0, 64, 56
2, 162200, Control_c, 0, 64, 0
2, 162216, Note_off_c, 0, 70, 0
2, 162236, Note_off_c, 0, 61, 0
2, 162236, Note_on_c, 0, 51, 73
2, 162244, Note_on_c, 0, 71, 68
2, 162300, Control_c, 0, 64, 56
2, 162312, Control_c, 0, 64, 72
2, 162320, Control_c, 0, 64, 88
2, 162324, Note_off_c, 0, 51, 0
2, 162328, Note_off_c, 0, 71, 0
2, 162328, Note_on_c, 0, 72, 69
2, 162332, Control_c, 0, 64, 104
2, 162344, Control_c, 0, 64, 127
2, 162400, Note_off_c, 0, 72, 0
2, 162408, Note_on_c, 0, 73, 63
2, 162420, Note_on_c, 0, 67, 52
2, 162464, Note_off_c, 0, 73, 0
2, 162484, Note_on_c, 0, 74, 74
2, 162564, Note_on_c, 0, 61, 46
2, 162576, Note_off_c, 0, 74, 0
2, 162596, Note_on_c, 0, 77, 74
2, 162672, Note_on_c, 0, 75, 71
2, 162684, Note_off_c, 0, 77, 0
2, 162720, Note_off_c, 0, 67, 0
2, 162736, Control_c, 0, 64, 88
2, 162748, Note_off_c, 0, 75, 0
2, 162748, Control_c, 0, 64, 72
2, 162752, Note_off_c, 0, 61, 0
2, 162760, Control_c, 0, 64, 24
2, 162768, Note_on_c, 0, 72, 78
2, 162768, Control_c, 0, 64, 0
2, 162780, Note_on_c, 0, 56, 70
2, 162848, Note_on_c, 0, 73, 62
2, 162848, Control_c, 0, 64, 24
2, 162860, Control_c, 0, 64, 56
2, 162868, Control_c, 0, 64, 88
2, 162880, Note_off_c, 0, 72, 0
2, 162880, Control_c, 0, 64, 104
2, 162888, Control_c, 0, 64, 127
2, 162936, Note_on_c, 0, 75, 71
2, 162936, Note_on_c, 0, 68, 53
2, 162940, Note_off_c, 0, 73, 0
2, 162948, Note_off_c, 0, 56, 0
2, 162984, Note_off_c, 0, 75, 0
2, 163028, Note_on_c, 0, 77, 78
2, 163080, Note_on_c, 0, 60, 34
2, 163092, Note_off_c, 0, 77, 0
2, 163104, Note_off_c, 0, 68, 0
2, 163112, Note_on_c, 0, 78, 72
2, 163200, Note_on_c, 0, 80, 80
2, 163208, Note_off_c, 0, 78, 0
2, 163240, Control_c, 0, 64, 104
2, 163248, Note_off_c, 0, 60, 0
2, 163252, Control_c, 0, 64, 72
2, 163264, Control_c, 0, 64, 24
2, 163276, Control_c, 0, 64, 0
2, 163280, Note_on_c, 0, 82, 72
2, 163284, Note_on_c, 0, 55, 69
2, 163312, Note_off_c, 0, 80, 0
2, 163332, Note_off_c, 0, 82, 0
2, 163332, Control_c, 0, 64, 40
2, 163340, Control_c, 0, 64, 88
2, 163352, Control_c, 0, 64, 127
2, 163376, Note_on_c, 0, 84, 82
2, 163448, Note_on_c, 0, 85, 75
2, 163456, Note_off_c, 0, 84, 0
2, 163460, Note_on_c, 0, 66, 57
2, 163532, Note_off_c, 0, 55, 0
2, 163544, Note_on_c, 0, 87, 75
2, 163556, Note_off_c, 0, 85, 0
2, 163596, Note_off_c, 0, 87, 0
2, 163612, Note_on_c, 0, 56, 73
2, 163632, Note_on_c, 0, 89, 80
2, 163712, Note_on_c, 0, 90, 80
2, 163728, Note_off_c, 0, 89, 0
2, 163768, Note_off_c, 0, 66, 0
2, 163768, Note_off_c, 0, 56, 0
2, 163784, Note_off_c, 0, 90, 0
2, 163792, Control_c, 0, 64, 88
2, 163796, Note_on_c, 0, 58, 76
2, 163800, Control_c, 0, 64, 40
2, 163804, Note_on_c, 0, 96, 84
2, 163816, Control_c, 0, 64, 0
2, 163876, Note_on_c, 0, 94, 74
2, 163892, Note_off_c, 0, 96, 0
2, 163908, Control_c, 0, 64, 24
2, 163924, Control_c, 0, 64, 56
2, 163932, Control_c, 0, 64, 88
2, 163944, Control_c, 0, 64, 104
2, 163952, Control_c, 0, 64, 127
2, 163964, Note_on_c, 0, 92, 90
2, 163972, Note_on_c, 0, 66, 60
2, 163980, Note_off_c, 0, 94, 0
2, 164052, Note_on_c, 0, 90, 77
2, 164116, Note_off_c, 0, 92, 0
2, 164140, Note_off_c, 0, 58, 0
2, 164140, Note_off_c, 0, 90, 0
2, 164140, Note_on_c, 0, 89, 82
2, 164144, Note_on_c, 0, 61, 78
2, 164196, Note_off_c, 0, 89, 0
2, 164212, Note_off_c, 0, 61, 0
2, 164220, Note_on_c, 0, 87, 71
2, 164300, Note_off_c, 0, 87, 0
2, 164316, Control_c, 0, 64, 88
2, 164320, Note_off_c, 0, 66, 0
2, 164320, Note_on_c, 0, 89, 82
2, 164332, Control_c, 0, 64, 56
2, 164336, Note_on_c, 0, 60, 73
2, 164340, Control_c, 0, 64, 0
2, 164400, Note_off_c, 0, 89, 0
2, 164404, Note_on_c, 0, 87, 76
2, 164416, Control_c, 0, 64, 40
2, 164428, Control_c, 0, 64, 72
2, 164436, Control_c, 0, 64, 104
2, 164448, Control_c, 0, 64, 127
2, 164492, Note_on_c, 0, 85, 73
2, 164492, Note_on_c, 0, 70, 55
2, 164516, Note_off_c, 0, 87, 0
2, 164568, Note_off_c, 0, 85, 0
2, 164580, Note_on_c, 0, 84, 77
2, 164596, Note_off_c, 0, 60, 0
2, 164632, Note_off_c, 0, 84, 0
2, 164648, Note_on_c, 0, 66, 42
2, 164664, Note_on_c, 0, 82, 60
2, 164756, Note_off_c, 0, 82, 0
2, 164756, Note_on_c, 0, 84, 74
2, 164788, Control_c, 0, 64, 104
2, 164800, Note_off_c, 0, 70, 0
2, 164800, Control_c, 0, 64, 88
2, 164812, Control_c, 0, 64, 72
2, 164820, Control_c, 0, 64, 24
2, 164828, Note_off_c, 0, 66, 0
2, 164832, Note_off_c, 0, 84, 0
2, 164832, Note_on_c, 0, 82, 62
2, 164836, Note_on_c, 0, 60, 69
2, 164836, Control_c, 0, 64, 0
2, 164900, Control_c, 0, 64, 56
2, 164912, Control_c, 0, 64, 72
2, 164916, Note_on_c, 0, 80, 76
2, 164920, Control_c, 0, 64, 88
2, 164932, Control_c, 0, 64, 104
2, 164936, Note_off_c, 0, 82, 0
2, 165004, Note_on_c, 0, 78, 73
2, 165016, Note_on_c, 0, 70, 49
2, 165048, Note_off_c, 0, 80, 0
2, 165080, Note_off_c, 0, 78, 0
2, 165088, Note_on_c, 0, 77, 78
2, 165160, Note_off_c, 0, 77, 0
2, 165172, Note_on_c, 0, 75, 67
2, 165176, Note_on_c, 0, 66, 37
2, 165180, Note_off_c, 0, 60, 0
2, 165256, Note_off_c, 0, 75, 0
2, 165264, Note_on_c, 0, 77, 76
2, 165272, Note_off_c, 0, 70, 0
2, 165304, Control_c, 0, 64, 40
2, 165316, Control_c, 0, 64, 0
2, 165332, Note_off_c, 0, 66, 0
2, 165344, Note_on_c, 0, 61, 72
2, 165348, Note_on_c, 0, 75, 74
2, 165364, Note_off_c, 0, 77, 0
2, 165384, Control_c, 0, 64, 24
2, 165396, Control_c, 0, 64, 56
2, 165404, Control_c, 0, 64, 72
2, 165416, Control_c, 0, 64, 88
2, 165428, Control_c, 0, 64, 104
2, 165436, Note_on_c, 0, 73, 71
2, 165472, Control_c, 0, 64, 127
2, 165492, Note_off_c, 0, 75, 0
2, 165508, Note_off_c, 0, 73, 0
2, 165520, Note_on_c, 0, 72, 78
2, 165524, Note_on_c, 0, 66, 51
2, 165532, Note_off_c, 0, 61, 0
2, 165584, Note_off_c, 0, 72, 0
2, 165600, Note_on_c, 0, 73, 68
2, 165692, Note_on_c, 0, 72, 69
2, 165696, Note_on_c, 0, 62, 74
2, 165708, Note_off_c, 0, 73, 0
2, 165772, Note_off_c, 0, 72, 0
2, 165780, Note_on_c, 0, 70, 58
2, 165820, Note_off_c, 0, 66, 0
2, 165828, Note_off_c, 0, 70, 0
2, 165844, Note_off_c, 0, 62, 0
2, 165868, Note_on_c, 0, 66, 34
2, 165880, Note_on_c, 0, 63, 74
2, 165888, Note_on_c, 0, 68, 73
2, 165912, Control_c, 0, 64, 88
2, 165920, Control_c, 0, 64, 24
2, 165932, Control_c, 0, 64, 0
2, 165948, Note_off_c, 0, 68, 0
2, 165980, Note_on_c, 0, 69, 78
2, 166008, Control_c, 0, 64, 40
2, 166020, Control_c, 0, 64, 104
2, 166028, Control_c, 0, 64, 127
2, 166064, Note_on_c, 0, 81, 81
2, 166072, Note_off_c, 0, 69, 0
2, 166116, Note_off_c, 0, 81, 0
2, 166148, Note_on_c, 0, 78, 80
2, 166220, Note_off_c, 0, 78, 0
2, 166232, Note_on_c, 0, 75, 79
2, 166248, Note_off_c, 0, 66, 0
2, 166252, Note_off_c, 0, 63, 0
2, 166316, Note_on_c, 0, 72, 78
2, 166388, Note_off_c, 0, 75, 0
2, 166392, Note_off_c, 0, 72, 0
2, 166400, Note_on_c, 0, 69, 77
2, 166464, Note_off_c, 0, 69, 0
2, 166484, Note_on_c, 0, 66, 76
2, 166556, Note_off_c, 0, 66, 0
2, 166568, Note_on_c, 0, 63, 75
2, 166612, Note_off_c, 0, 63, 0
2, 166652, Note_on_c, 0, 60, 74
2, 166724, Note_off_c, 0, 60, 0
2, 166740, Note_on_c, 0, 57, 73
2, 166800, Note_off_c, 0, 57, 0
2, 166828, Note_on_c, 0, 54, 72
2, 166912, Note_on_c, 0, 32, 64
2, 166916, Note_off_c, 0, 54, 0
2, 166916, Note_on_c, 0, 51, 71
2, 166964, Control_c, 0, 64, 56
2, 166972, Control_c, 0, 64, 0
2, 166984, Control_c, 0, 64, 24
2, 166992, Control_c, 0, 64, 56
2, 167020, Note_off_c, 0, 32, 0
2, 167020, Note_off_c, 0, 51, 0
2, 167096, Control_c, 0, 64, 104
2, 167100, Note_on_c, 0, 44, 50
2, 167108, Control_c, 0, 64, 72
2, 167156, Control_c, 0, 64, 40
2, 167180, Note_off_c, 0, 44, 0
2, 167188, Control_c, 0, 64, 88
2, 167192, Note_on_c, 0, 51, 56
2, 167196, Control_c, 0, 64, 127
2, 167268, Note_on_c, 0, 68, 65
2, 167272, Note_off_c, 0, 51, 0
2, 167284, Note_on_c, 0, 60, 53
2, 167296, Note_on_c, 0, 44, 45
2, 167356, Note_off_c, 0, 44, 0
2, 167372, Note_on_c, 0, 51, 46
2, 167404, Note_off_c, 0, 60, 0
2, 167412, Note_off_c, 0, 68, 0
2, 167452, Note_off_c, 0, 51, 0
2, 167460, Note_on_c, 0, 61, 64
2, 167460, Control_c, 0, 64, 104
2, 167464, Note_on_c, 0, 69, 79
2, 167472, Control_c, 0, 64, 40
2, 167476, Note_on_c, 0, 43, 58
2, 167484, Control_c, 0, 64, 0
2, 167528, Control_c, 0, 64, 24
2, 167536, Control_c, 0, 64, 72
2, 167548, Control_c, 0, 64, 127
2, 167556, Note_off_c, 0, 43, 0
2, 167564, Note_on_c, 0, 51, 48
2, 167596, Note_off_c, 0, 61, 0
2, 167608, Note_off_c, 0, 69, 0
2, 167636, Note_off_c, 0, 51, 0
2, 167640, Note_on_c, 0, 68, 65
2, 167648, Note_on_c, 0, 60, 60
2, 167652, Note_on_c, 0, 44, 51
2, 167708, Note_off_c, 0, 44, 0
2, 167712, Note_off_c, 0, 60, 0
2, 167724, Note_off_c, 0, 68, 0
2, 167732, Note_on_c, 0, 51, 54
2, 167812, Note_off_c, 0, 51, 0
2, 167812, Control_c, 0, 64, 72
2, 167816, Note_on_c, 0, 61, 53
2, 167824, Note_on_c, 0, 67, 74
2, 167824, Control_c, 0, 64, 0
2, 167840, Note_on_c, 0, 45, 56
2, 167888, Note_off_c, 0, 45, 0
2, 167888, Control_c, 0, 64, 72
2, 167896, Note_off_c, 0, 61, 0
2, 167900, Control_c, 0, 64, 127
2, 167904, Note_off_c, 0, 67, 0
2, 167912, Note_on_c, 0, 51, 54
2, 167996, Note_off_c, 0, 51, 0
2, 168000, Control_c, 0, 64, 72
2, 168008, Note_on_c, 0, 44, 58
2, 168008, Note_on_c, 0, 68, 73
2, 168008, Control_c, 0, 64, 0
2, 168012, Note_on_c, 0, 60, 69
2, 168084, Note_off_c, 0, 44, 0
2, 168096, Note_on_c, 0, 51, 61
2, 168108, Control_c, 0, 64, 88
2, 168120, Control_c, 0, 64, 127
2, 168164, Note_off_c, 0, 51, 0
2, 168184, Note_on_c, 0, 39, 56
2, 168204, Note_off_c, 0, 60, 0
2, 168252, Note_off_c, 0, 39, 0
2, 168264, Note_on_c, 0, 51, 58
2, 168300, Note_off_c, 0, 68, 0
2, 168364, Note_off_c, 0, 51, 0
2, 168380, Note_on_c, 0, 68, 73
2, 168384, Note_on_c, 0, 44, 56
2, 168384, Note_on_c, 0, 60, 69
2, 168384, Control_c, 0, 64, 56
2, 168396, Control_c, 0, 64, 0
2, 168440, Control_c, 0, 64, 56
2, 168448, Control_c, 0, 64, 104
2, 168460, Control_c, 0, 64, 127
2, 168464, Note_off_c, 0, 44, 0
2, 168472, Note_on_c, 0, 51, 65
2, 168524, Note_off_c, 0, 60, 0
2, 168556, Note_off_c, 0, 68, 0
2, 168556, Control_c, 0, 64, 88
2, 168564, Note_on_c, 0, 61, 71
2, 168568, Note_off_c, 0, 51, 0
2, 168568, Note_on_c, 0, 69, 85
2, 168568, Control_c, 0, 64, 0
2, 168588, Note_on_c, 0, 43, 56
2, 168636, Control_c, 0, 64, 24
2, 168648, Control_c, 0, 64, 72
2, 168656, Control_c, 0, 64, 127
2, 168660, Note_on_c, 0, 51, 56
2, 168664, Note_off_c, 0, 43, 0
2, 168724, Note_off_c, 0, 61, 0
2, 168724, Control_c, 0, 64, 104
2, 168736, Note_on_c, 0, 68, 76
2, 168736, Control_c, 0, 64, 24
2, 168740, Note_off_c, 0, 51, 0
2, 168740, Note_on_c, 0, 60, 73
2, 168744, Control_c, 0, 64, 0
2, 168748, Note_off_c, 0, 69, 0
2, 168752, Note_on_c, 0, 44, 57
2, 168788, Control_c, 0, 64, 24
2, 168800, Control_c, 0, 64, 72
2, 168812, Control_c, 0, 64, 127
2, 168816, Note_off_c, 0, 44, 0
2, 168836, Note_on_c, 0, 51, 63
2, 168848, Note_off_c, 0, 68, 0
2, 168876, Note_off_c, 0, 60, 0
2, 168912, Control_c, 0, 64, 104
2, 168916, Note_off_c, 0, 51, 0
2, 168916, Note_on_c, 0, 61, 64
2, 168916, Note_on_c, 0, 67, 81
2, 168920, Control_c, 0, 64, 40
2, 168932, Control_c, 0, 64, 0
2, 168936, Note_on_c, 0, 45, 60
2, 168976, Control_c, 0, 64, 40
2, 168988, Note_off_c, 0, 61, 0
2, 168988, Control_c, 0, 64, 88
2, 168996, Note_off_c, 0, 45, 0
2, 168996, Note_off_c, 0, 67, 0
2, 168996, Control_c, 0, 64, 127
2, 169020, Note_on_c, 0, 51, 55
2, 169096, Control_c, 0, 64, 104
2, 169100, Note_on_c, 0, 68, 79
2, 169108, Note_on_c, 0, 60, 68
2, 169108, Control_c, 0, 64, 24
2, 169112, Note_off_c, 0, 51, 0
2, 169112, Note_on_c, 0, 44, 61
2, 169116, Control_c, 0, 64, 0
2, 169184, Note_off_c, 0, 44, 0
2, 169196, Control_c, 0, 64, 40
2, 169200, Note_on_c, 0, 51, 60
2, 169208, Control_c, 0, 64, 104
2, 169212, Note_off_c, 0, 68, 0
2, 169216, Control_c, 0, 64, 127
2, 169220, Note_off_c, 0, 60, 0
2, 169260, Note_off_c, 0, 51, 0
2, 169280, Note_on_c, 0, 60, 70
2, 169292, Control_c, 0, 64, 104
2, 169300, Note_on_c, 0, 39, 53
2, 169304, Control_c, 0, 64, 40
2, 169316, Control_c, 0, 64, 0
2, 169328, Note_off_c, 0, 39, 0
2, 169336, Control_c, 0, 64, 40
2, 169344, Note_off_c, 0, 60, 0
2, 169348, Control_c, 0, 64, 88
2, 169356, Note_on_c, 0, 51, 55
2, 169360, Control_c, 0, 64, 127
2, 169380, Note_on_c, 0, 63, 71
2, 169428, Note_off_c, 0, 51, 0
2, 169444, Note_on_c, 0, 44, 46
2, 169452, Note_on_c, 0, 68, 74
2, 169460, Note_off_c, 0, 63, 0
2, 169508, Note_off_c, 0, 44, 0
2, 169520, Note_on_c, 0, 51, 62
2, 169528, Note_on_c, 0, 70, 77
2, 169564, Note_off_c, 0, 68, 0
2, 169568, Note_off_c, 0, 70, 0
2, 169588, Note_off_c, 0, 51, 0
2, 169616, Note_on_c, 0, 72, 80
2, 169624, Note_on_c, 0, 39, 49
2, 169668, Note_off_c, 0, 72, 0
2, 169680, Note_on_c, 0, 51, 64
2, 169684, Note_off_c, 0, 39, 0
2, 169704, Note_on_c, 0, 75, 77
2, 169768, Note_off_c, 0, 51, 0
2, 169780, Note_on_c, 0, 44, 69
2, 169784, Note_on_c, 0, 80, 75
2, 169832, Note_off_c, 0, 75, 0
2, 169844, Note_off_c, 0, 44, 0
2, 169852, Note_on_c, 0, 82, 73
2, 169856, Note_on_c, 0, 51, 76
2, 169884, Note_off_c, 0, 80, 0
2, 169888, Note_off_c, 0, 82, 0
2, 169928, Note_off_c, 0, 51, 0
2, 169944, Note_on_c, 0, 84, 90
2, 169956, Note_on_c, 0, 39, 70
2, 170012, Note_off_c, 0, 84, 0
2, 170012, Note_on_c, 0, 51, 75
2, 170028, Note_off_c, 0, 39, 0
2, 170036, Note_on_c, 0, 96, 96
2, 170080, Note_off_c, 0, 51, 0
2, 170100, Note_off_c, 0, 96, 0
2, 170112, Note_on_c, 0, 44, 81
2, 170116, Note_on_c, 0, 94, 81
2, 170184, Note_off_c, 0, 44, 0
2, 170192, Note_on_c, 0, 51, 81
2, 170200, Note_off_c, 0, 94, 0
2, 170200, Note_on_c, 0, 92, 86
2, 170260, Note_off_c, 0, 51, 0
2, 170284, Note_on_c, 0, 87, 79
2, 170288, Note_on_c, 0, 39, 73
2, 170340, Note_off_c, 0, 92, 0
2, 170352, Note_off_c, 0, 39, 0
2, 170356, Note_on_c, 0, 51, 73
2, 170368, Note_off_c, 0, 87, 0
2, 170368, Note_on_c, 0, 84, 82
2, 170408, Note_off_c, 0, 84, 0
2, 170428, Note_off_c, 0, 51, 0
2, 170456, Note_on_c, 0, 82, 76
2, 170456, Note_on_c, 0, 44, 71
2, 170516, Note_off_c, 0, 82, 0
2, 170520, Note_off_c, 0, 44, 0
2, 170520, Note_on_c, 0, 51, 76
2, 170544, Note_on_c, 0, 80, 78
2, 170600, Note_off_c, 0, 51, 0
2, 170608, Note_off_c, 0, 80, 0
2, 170628, Note_on_c, 0, 75, 80
2, 170628, Note_on_c, 0, 39, 71
2, 170696, Note_on_c, 0, 51, 74
2, 170708, Note_off_c, 0, 75, 0
2, 170708, Note_off_c, 0, 39, 0
2, 170716, Note_on_c, 0, 72, 82
2, 170760, Note_off_c, 0, 72, 0
2, 170772, Note_off_c, 0, 51, 0
2, 170796, Note_on_c, 0, 44, 73
2, 170804, Note_on_c, 0, 70, 81
2, 170868, Note_off_c, 0, 70, 0
2, 170872, Note_off_c, 0, 44, 0
2, 170872, Note_on_c, 0, 51, 73
2, 170896, Note_on_c, 0, 68, 73
2, 170912, Note_off_c, 0, 51, 0
2, 170980, Note_off_c, 0, 68, 0
2, 170984, Control_c, 0, 64, 104
2, 170992, Note_on_c, 0, 63, 83
2, 170996, Control_c, 0, 64, 40
2, 171000, Note_on_c, 0, 44, 83
2, 171008, Control_c, 0, 64, 0
2, 171012, Note_on_c, 0, 32, 76
2, 171040, Control_c, 0, 64, 40
2, 171048, Note_off_c, 0, 44, 0
2, 171048, Control_c, 0, 64, 104
2, 171060, Control_c, 0, 64, 127
2, 171064, Note_off_c, 0, 32, 0
2, 171080, Note_off_c, 0, 63, 0
2, 171084, Note_on_c, 0, 60, 85
2, 171148, Note_off_c, 0, 60, 0
2, 171160, Control_c, 0, 64, 40
2, 171168, Control_c, 0, 64, 0
2, 171216, Note_on_c, 0, 61, 76
2, 171220, Note_on_c, 0, 69, 100
2, 171220, Note_on_c, 0, 57, 83
2, 171224, Note_on_c, 0, 64, 82
2, 171228, Note_on_c, 0, 43, 90
2, 171232, Note_on_c, 0, 31, 78
2, 171264, Note_off_c, 0, 57, 0
2, 171268, Note_off_c, 0, 64, 0
2, 171268, Control_c, 0, 64, 127
2, 171272, Note_off_c, 0, 31, 0
2, 171280, Note_off_c, 0, 61, 0
2, 171284, Note_off_c, 0, 43, 0
2, 171312, Note_off_c, 0, 69, 0
2, 171552, Note_on_c, 0, 69, 82
2, 171560, Note_on_c, 0, 64, 65
2, 171564, Note_on_c, 0, 55, 76
2, 171564, Note_on_c, 0, 61, 62
2, 171576, Control_c, 0, 64, 72
2, 171588, Control_c, 0, 64, 0
2, 171620, Control_c, 0, 64, 56
2, 171632, Control_c, 0, 64, 104
2, 171640, Control_c, 0, 64, 127
2, 171688, Note_off_c, 0, 64, 0
2, 171704, Note_off_c, 0, 69, 0
2, 171732, Note_off_c, 0, 61, 0
2, 171732, Note_on_c, 0, 71, 80
2, 171736, Note_on_c, 0, 62, 78
2, 171740, Note_on_c, 0, 67, 66
2, 171740, Control_c, 0, 64, 88
2, 171752, Control_c, 0, 64, 0
2, 171796, Note_off_c, 0, 67, 0
2, 171796, Control_c, 0, 64, 72
2, 171808, Control_c, 0, 64, 127
2, 171880, Note_off_c, 0, 71, 0
2, 171884, Control_c, 0, 64, 56
2, 171896, Note_on_c, 0, 69, 88
2, 171896, Control_c, 0, 64, 0
2, 171904, Note_on_c, 0, 64, 67
2, 171908, Note_off_c, 0, 62, 0
2, 171912, Note_on_c, 0, 61, 69
2, 171928, Control_c, 0, 64, 24
2, 171936, Control_c, 0, 64, 72
2, 171948, Control_c, 0, 64, 127
2, 172020, Note_off_c, 0, 69, 0
2, 172044, Note_off_c, 0, 64, 0
2, 172048, Note_off_c, 0, 61, 0
2, 172068, Note_on_c, 0, 74, 88
2, 172068, Note_on_c, 0, 59, 58
2, 172076, Note_on_c, 0, 67, 63
2, 172080, Control_c, 0, 64, 104
2, 172092, Control_c, 0, 64, 40
2, 172104, Control_c, 0, 64, 0
2, 172116, Control_c, 0, 64, 24
2, 172124, Control_c, 0, 64, 56
2, 172136, Control_c, 0, 64, 104
2, 172148, Control_c, 0, 64, 127
2, 172180, Note_off_c, 0, 67, 0
2, 172192, Note_off_c, 0, 74, 0
2, 172216, Note_off_c, 0, 59, 0
2, 172224, Control_c, 0, 64, 104
2, 172236, Control_c, 0, 64, 24
2, 172240, Note_on_c, 0, 73, 78
2, 172244, Note_on_c, 0, 57, 57
2, 172248, Control_c, 0, 64, 0
2, 172252, Note_on_c, 0, 64, 63
2, 172308, Note_off_c, 0, 55, 0
2, 172320, Note_off_c, 0, 64, 0
2, 172332, Control_c, 0, 64, 72
2, 172344, Control_c, 0, 64, 127
2, 172348, Note_off_c, 0, 73, 0
2, 172348, Note_off_c, 0, 57, 0
2, 172552, Control_c, 0, 64, 88
2, 172556, Note_on_c, 0, 69, 82
2, 172560, Note_on_c, 0, 64, 64
2, 172564, Note_on_c, 0, 55, 70
2, 172564, Note_on_c, 0, 61, 64
2, 172564, Control_c, 0, 64, 0
2, 172640, Control_c, 0, 64, 56
2, 172652, Control_c, 0, 64, 127
2, 172700, Note_off_c, 0, 69, 0
2, 172708, Note_off_c, 0, 64, 0
2, 172708, Control_c, 0, 64, 104
2, 172720, Note_off_c, 0, 61, 0
2, 172720, Control_c, 0, 64, 40
2, 172724, Note_on_c, 0, 71, 74
2, 172732, Note_on_c, 0, 67, 67
2, 172732, Note_on_c, 0, 62, 64
2, 172732, Control_c, 0, 64, 0
2, 172764, Control_c, 0, 64, 40
2, 172772, Control_c, 0, 64, 72
2, 172784, Control_c, 0, 64, 127
2, 172832, Note_off_c, 0, 67, 0
2, 172868, Note_off_c, 0, 62, 0
2, 172872, Note_off_c, 0, 71, 0
2, 172872, Control_c, 0, 64, 56
2, 172880, Note_on_c, 0, 61, 64
2, 172884, Note_on_c, 0, 69, 83
2, 172884, Control_c, 0, 64, 0
2, 172892, Note_on_c, 0, 64, 67
2, 172936, Control_c, 0, 64, 40
2, 172948, Control_c, 0, 64, 104
2, 172960, Control_c, 0, 64, 127
2, 173012, Note_off_c, 0, 61, 0
2, 173012, Note_off_c, 0, 64, 0
2, 173016, Note_off_c, 0, 69, 0
2, 173048, Note_on_c, 0, 59, 44
2, 173048, Control_c, 0, 64, 72
2, 173052, Note_on_c, 0, 74, 82
2, 173060, Note_on_c, 0, 67, 66
2, 173060, Control_c, 0, 64, 0
2, 173124, Control_c, 0, 64, 56
2, 173136, Control_c, 0, 64, 127
2, 173168, Note_off_c, 0, 74, 0
2, 173180, Note_off_c, 0, 67, 0
2, 173188, Control_c, 0, 64, 88
2, 173196, Note_off_c, 0, 59, 0
2, 173200, Control_c, 0, 64, 24
2, 173212, Control_c, 0, 64, 0
2, 173232, Note_off_c, 0, 55, 0
2, 173232, Note_on_c, 0, 73, 72
2, 173236, Note_on_c, 0, 57, 63
2, 173244, Control_c, 0, 64, 24
2, 173248, Note_on_c, 0, 64, 65
2, 173256, Control_c, 0, 64, 88
2, 173260, Note_off_c, 0, 57, 0
2, 173268, Control_c, 0, 64, 127
2, 173288, Note_off_c, 0, 73, 0
2, 173372, Note_off_c, 0, 64, 0
2, 173420, Note_on_c, 0, 63, 50
2, 173432, Note_on_c, 0, 31, 56
2, 173468, Note_off_c, 0, 63, 0
2, 173480, Note_off_c, 0, 31, 0
2, 173500, Note_on_c, 0, 64, 59
2, 173508, Note_on_c, 0, 45, 57
2, 173556, Note_off_c, 0, 64, 0
2, 173556, Note_off_c, 0, 45, 0
2, 173596, Note_on_c, 0, 33, 55
2, 173600, Note_on_c, 0, 69, 70
2, 173656, Note_off_c, 0, 33, 0
2, 173676, Note_on_c, 0, 45, 63
2, 173676, Note_on_c, 0, 73, 69
2, 173680, Note_off_c, 0, 69, 0
2, 173708, Note_off_c, 0, 73, 0
2, 173716, Note_off_c, 0, 45, 0
2, 173756, Note_on_c, 0, 31, 66
2, 173760, Note_on_c, 0, 76, 83
2, 173808, Note_off_c, 0, 31, 0
2, 173820, Note_off_c, 0, 76, 0
2, 173836, Note_on_c, 0, 45, 65
2, 173852, Note_on_c, 0, 81, 77
2, 173892, Note_off_c, 0, 45, 0
2, 173924, Note_on_c, 0, 33, 69
2, 173928, Note_on_c, 0, 85, 77
2, 173936, Note_off_c, 0, 81, 0
2, 173964, Note_off_c, 0, 85, 0
2, 173996, Note_off_c, 0, 33, 0
2, 174000, Note_on_c, 0, 45, 82
2, 174004, Note_on_c, 0, 88, 93
2, 174064, Note_off_c, 0, 45, 0
2, 174092, Note_on_c, 0, 31, 79
2, 174092, Note_on_c, 0, 93, 96
2, 174116, Note_off_c, 0, 88, 0
2, 174148, Note_off_c, 0, 31, 0
2, 174164, Note_on_c, 0, 45, 79
2, 174168, Note_off_c, 0, 93, 0
2, 174180, Note_on_c, 0, 98, 96
2, 174220, Note_off_c, 0, 45, 0
2, 174252, Note_off_c, 0, 98, 0
2, 174256, Note_on_c, 0, 97, 83
2, 174256, Note_on_c, 0, 33, 74
2, 174268, Note_on_c, 0, 34, 43
2, 174300, Note_off_c, 0, 34, 0
2, 174332, Note_off_c, 0, 33, 0
2, 174344, Note_on_c, 0, 45, 77
2, 174352, Note_on_c, 0, 93, 86
2, 174400, Note_off_c, 0, 45, 0
2, 174420, Note_off_c, 0, 97, 0
2, 174424, Note_off_c, 0, 93, 0
2, 174432, Note_on_c, 0, 88, 88
2, 174440, Note_on_c, 0, 31, 71
2, 174484, Note_off_c, 0, 88, 0
2, 174496, Note_off_c, 0, 31, 0
2, 174512, Note_on_c, 0, 45, 66
2, 174516, Note_on_c, 0, 85, 86
2, 174572, Note_off_c, 0, 45, 0
2, 174596, Note_on_c, 0, 33, 74
2, 174600, Note_off_c, 0, 85, 0
2, 174608, Note_on_c, 0, 81, 85
2, 174668, Note_off_c, 0, 33, 0
2, 174672, Note_on_c, 0, 45, 71
2, 174676, Note_off_c, 0, 81, 0
2, 174692, Note_on_c, 0, 76, 82
2, 174732, Note_off_c, 0, 45, 0
2, 174740, Note_off_c, 0, 76, 0
2, 174768, Note_on_c, 0, 31, 82
2, 174776, Note_on_c, 0, 73, 85
2, 174832, Note_off_c, 0, 31, 0
2, 174848, Note_on_c, 0, 45, 81
2, 174852, Note_off_c, 0, 73, 0
2, 174864, Note_on_c, 0, 69, 85
2, 174912, Note_off_c, 0, 45, 0
2, 174928, Note_off_c, 0, 69, 0
2, 174940, Note_on_c, 0, 33, 78
2, 174948, Note_on_c, 0, 64, 76
2, 175000, Note_off_c, 0, 64, 0
2, 175020, Note_off_c, 0, 33, 0
2, 175028, Note_on_c, 0, 45, 88
2, 175040, Note_on_c, 0, 61, 68
2, 175060, Note_on_c, 0, 62, 37
2, 175088, Note_off_c, 0, 45, 0
2, 175108, Note_off_c, 0, 62, 0
2, 175112, Note_off_c, 0, 61, 0
2, 175128, Note_on_c, 0, 31, 66
2, 175132, Note_on_c, 0, 57, 74
2, 175204, Note_off_c, 0, 31, 0
2, 175216, Note_off_c, 0, 57, 0
2, 175220, Note_on_c, 0, 61, 8
2, 175224, Note_on_c, 0, 52, 77
2, 175292, Note_off_c, 0, 52, 0
2, 175308, Control_c, 0, 64, 72
2, 175316, Note_off_c, 0, 61, 0
2, 175320, Control_c, 0, 64, 0
2, 175352, Note_on_c, 0, 58, 85
2, 175360, Note_on_c, 0, 52, 78
2, 175360, Note_on_c, 0, 42, 85
2, 175364, Note_on_c, 0, 30, 78
2, 175384, Note_off_c, 0, 52, 0
2, 175404, Note_off_c, 0, 30, 0
2, 175408, Note_off_c, 0, 42, 0
2, 175408, Control_c, 0, 64, 127
2, 175436, Note_off_c, 0, 58, 0
2, 175688, Note_on_c, 0, 70, 83
2, 175704, Note_on_c, 0, 64, 58
2, 175708, Note_on_c, 0, 61, 65
2, 175712, Note_on_c, 0, 54, 57
2, 175748, Control_c, 0, 64, 24
2, 175756, Control_c, 0, 64, 0
2, 175792, Control_c, 0, 64, 56
2, 175800, Control_c, 0, 64, 127
2, 175828, Note_off_c, 0, 64, 0
2, 175832, Note_off_c, 0, 70, 0
2, 175856, Note_on_c, 0, 71, 82
2, 175860, Note_off_c, 0, 61, 0
2, 175868, Note_on_c, 0, 62, 70
2, 175872, Note_on_c, 0, 67, 63
2, 175896, Note_off_c, 0, 67, 0
2, 175992, Note_off_c, 0, 71, 0
2, 176000, Note_on_c, 0, 70, 80
2, 176004, Note_off_c, 0, 62, 0
2, 176016, Note_on_c, 0, 61, 68
2, 176020, Note_on_c, 0, 64, 68
2, 176064, Note_off_c, 0, 64, 0
2, 176116, Note_off_c, 0, 70, 0
2, 176132, Note_off_c, 0, 61, 0
2, 176156, Note_on_c, 0, 74, 90
2, 176168, Note_on_c, 0, 59, 59
2, 176172, Note_on_c, 0, 67, 68
2, 176224, Note_off_c, 0, 67, 0
2, 176268, Note_off_c, 0, 74, 0
2, 176312, Note_off_c, 0, 59, 0
2, 176336, Note_on_c, 0, 58, 56
2, 176336, Note_on_c, 0, 73, 82
2, 176352, Note_on_c, 0, 64, 62
2, 176384, Control_c, 0, 64, 56
2, 176396, Control_c, 0, 64, 0
2, 176400, Note_off_c, 0, 64, 0
2, 176460, Note_off_c, 0, 54, 0
2, 176460, Control_c, 0, 64, 40
2, 176472, Note_off_c, 0, 73, 0
2, 176472, Control_c, 0, 64, 127
2, 176476, Note_off_c, 0, 58, 0
2, 176648, Note_on_c, 0, 70, 90
2, 176660, Note_on_c, 0, 54, 65
2, 176660, Note_on_c, 0, 61, 73
2, 176660, Note_on_c, 0, 64, 68
2, 176668, Control_c, 0, 64, 72
2, 176680, Control_c, 0, 64, 0
2, 176744, Control_c, 0, 64, 72
2, 176756, Control_c, 0, 64, 127
2, 176792, Note_off_c, 0, 70, 0
2, 176792, Note_off_c, 0, 64, 0
2, 176816, Note_on_c, 0, 71, 82
2, 176820, Note_off_c, 0, 61, 0
2, 176824, Control_c, 0, 64, 0
2, 176828, Note_on_c, 0, 62, 77
2, 176828, Note_on_c, 0, 67, 69
2, 176868, Note_off_c, 0, 67, 0
2, 176868, Control_c, 0, 64, 24
2, 176880, Control_c, 0, 64, 72
2, 176888, Control_c, 0, 64, 127
2, 176956, Control_c, 0, 64, 72
2, 176964, Note_off_c, 0, 71, 0
2, 176964, Note_on_c, 0, 70, 79
2, 176964, Control_c, 0, 64, 0
2, 176976, Note_off_c, 0, 62, 0
2, 176976, Note_on_c, 0, 61, 60
2, 176976, Note_on_c, 0, 64, 66
2, 177032, Control_c, 0, 64, 72
2, 177036, Note_off_c, 0, 64, 0
2, 177040, Control_c, 0, 64, 127
2, 177096, Note_off_c, 0, 61, 0
2, 177108, Note_off_c, 0, 70, 0
2, 177132, Note_on_c, 0, 59, 52
2, 177136, Note_on_c, 0, 74, 85
2, 177144, Note_on_c, 0, 67, 60
2, 177208, Note_off_c, 0, 67, 0
2, 177248, Note_off_c, 0, 59, 0
2, 177256, Note_off_c, 0, 74, 0
2, 177304, Note_on_c, 0, 73, 83
2, 177312, Note_on_c, 0, 58, 46
2, 177316, Control_c, 0, 64, 104
2, 177320, Note_on_c, 0, 64, 65
2, 177328, Control_c, 0, 64, 72
2, 177336, Control_c, 0, 64, 0
2, 177380, Note_off_c, 0, 64, 0
2, 177416, Control_c, 0, 64, 56
2, 177420, Note_off_c, 0, 58, 0
2, 177424, Note_off_c, 0, 54, 0
2, 177428, Control_c, 0, 64, 127
2, 177436, Note_off_c, 0, 73, 0
2, 177588, Control_c, 0, 64, 104
2, 177600, Control_c, 0, 64, 40
2, 177612, Control_c, 0, 64, 0
2, 177620, Note_on_c, 0, 70, 86
2, 177636, Note_on_c, 0, 61, 64
2, 177636, Note_on_c, 0, 64, 65
2, 177640, Note_on_c, 0, 49, 60
2, 177648, Control_c, 0, 64, 40
2, 177656, Control_c, 0, 64, 88
2, 177668, Control_c, 0, 64, 127
2, 177700, Note_off_c, 0, 49, 0
2, 177740, Note_off_c, 0, 61, 0
2, 177752, Note_off_c, 0, 64, 0
2, 177768, Note_off_c, 0, 70, 0
2, 177788, Control_c, 0, 64, 104
2, 177800, Note_on_c, 0, 71, 83
2, 177800, Control_c, 0, 64, 40
2, 177808, Note_on_c, 0, 67, 72
2, 177808, Control_c, 0, 64, 24
2, 177816, Note_on_c, 0, 62, 75
2, 177820, Note_on_c, 0, 50, 71
2, 177820, Control_c, 0, 64, 40
2, 177832, Control_c, 0, 64, 56
2, 177844, Control_c, 0, 64, 88
2, 177852, Control_c, 0, 64, 127
2, 177872, Note_off_c, 0, 67, 0
2, 177884, Note_off_c, 0, 62, 0
2, 177884, Note_off_c, 0, 50, 0
2, 177944, Note_off_c, 0, 71, 0
2, 177952, Control_c, 0, 64, 72
2, 177964, Note_on_c, 0, 70, 77
2, 177964, Control_c, 0, 64, 56
2, 177972, Note_on_c, 0, 64, 71
2, 177984, Note_on_c, 0, 61, 73
2, 177988, Control_c, 0, 64, 88
2, 177992, Note_on_c, 0, 49, 69
2, 177996, Control_c, 0, 64, 127
2, 178024, Note_off_c, 0, 64, 0
2, 178036, Note_off_c, 0, 61, 0
2, 178068, Note_off_c, 0, 70, 0
2, 178092, Note_off_c, 0, 49, 0
2, 178104, Control_c, 0, 64, 88
2, 178120, Note_on_c, 0, 74, 89
2, 178120, Note_on_c, 0, 67, 79
2, 178120, Note_on_c, 0, 47, 65
2, 178120, Note_on_c, 0, 59, 63
2, 178120, Control_c, 0, 64, 56
2, 178128, Control_c, 0, 64, 72
2, 178140, Control_c, 0, 64, 88
2, 178152, Control_c, 0, 64, 127
2, 178164, Note_off_c, 0, 59, 0
2, 178168, Note_off_c, 0, 67, 0
2, 178176, Note_off_c, 0, 47, 0
2, 178204, Note_off_c, 0, 74, 0
2, 178268, Control_c, 0, 64, 56
2, 178284, Control_c, 0, 64, 40
2, 178288, Control_c, 0, 64, 56
2, 178292, Note_on_c, 0, 74, 93
2, 178292, Note_on_c, 0, 59, 72
2, 178292, Note_on_c, 0, 47, 72
2, 178292, Note_on_c, 0, 67, 76
2, 178304, Control_c, 0, 64, 88
2, 178316, Control_c, 0, 64, 127
2, 178340, Note_off_c, 0, 67, 0
2, 178348, Note_off_c, 0, 47, 0
2, 178356, Note_off_c, 0, 59, 0
2, 178392, Note_off_c, 0, 74, 0
2, 178424, Control_c, 0, 64, 88
2, 178436, Control_c, 0, 64, 40
2, 178460, Note_on_c, 0, 73, 92
2, 178460, Note_on_c, 0, 64, 79
2, 178460, Note_on_c, 0, 46, 77
2, 178460, Note_on_c, 0, 58, 78
2, 178472, Control_c, 0, 64, 127
2, 178492, Note_off_c, 0, 58, 0
2, 178500, Note_off_c, 0, 46, 0
2, 178504, Note_off_c, 0, 64, 0
2, 178552, Note_off_c, 0, 73, 0
2, 178620, Note_on_c, 0, 71, 89
2, 178620, Note_on_c, 0, 67, 71
2, 178620, Note_on_c, 0, 38, 70
2, 178620, Note_on_c, 0, 50, 80
2, 178624, Control_c, 0, 64, 56
2, 178636, Control_c, 0, 64, 0
2, 178664, Note_off_c, 0, 67, 0
2, 178668, Note_off_c, 0, 38, 0
2, 178668, Note_off_c, 0, 50, 0
2, 178668, Control_c, 0, 64, 56
2, 178680, Control_c, 0, 64, 104
2, 178688, Control_c, 0, 64, 127
2, 178708, Note_off_c, 0, 71, 0
2, 178792, Note_on_c, 0, 71, 94
2, 178792, Note_on_c, 0, 67, 82
2, 178792, Note_on_c, 0, 38, 76
2, 178792, Note_on_c, 0, 50, 86
2, 178792, Control_c, 0, 64, 40
2, 178808, Control_c, 0, 64, 0
2, 178832, Control_c, 0, 64, 24
2, 178836, Note_off_c, 0, 38, 0
2, 178840, Note_off_c, 0, 67, 0
2, 178840, Note_off_c, 0, 50, 0
2, 178840, Control_c, 0, 64, 72
2, 178856, Control_c, 0, 64, 127
2, 178896, Note_off_c, 0, 71, 0
2, 178952, Control_c, 0, 64, 40
2, 178956, Note_on_c, 0, 70, 85
2, 178956, Note_on_c, 0, 49, 90
2, 178956, Note_on_c, 0, 37, 82
2, 178964, Control_c, 0, 64, 0
2, 178968, Note_on_c, 0, 64, 69
2, 178984, Control_c, 0, 64, 56
2, 178996, Control_c, 0, 64, 127
2, 179004, Note_off_c, 0, 49, 0
2, 179024, Note_off_c, 0, 64, 0
2, 179028, Note_off_c, 0, 37, 0
2, 179060, Note_off_c, 0, 70, 0
2, 179124, Control_c, 0, 64, 56
2, 179128, Note_on_c, 0, 74, 96
2, 179128, Note_on_c, 0, 35, 79
2, 179128, Note_on_c, 0, 67, 82
2, 179132, Note_on_c, 0, 47, 90
2, 179140, Control_c, 0, 64, 0
2, 179192, Control_c, 0, 64, 56
2, 179200, Note_off_c, 0, 35, 0
2, 179200, Note_off_c, 0, 47, 0
2, 179204, Control_c, 0, 64, 127
2, 179212, Note_off_c, 0, 67, 0
2, 179272, Note_off_c, 0, 74, 0
2, 179352, Note_on_c, 0, 73, 99
2, 179352, Note_on_c, 0, 46, 87
2, 179352, Note_on_c, 0, 34, 84
2, 179352, Note_on_c, 0, 64, 81
2, 179404, Control_c, 0, 64, 104
2, 179412, Control_c, 0, 64, 24
2, 179424, Control_c, 0, 64, 0
2, 179552, Note_off_c, 0, 64, 0
2, 179556, Control_c, 0, 64, 127
2, 179592, Note_off_c, 0, 34, 0
2, 179600, Note_off_c, 0, 46, 0
2, 179608, Note_off_c, 0, 73, 0
2, 179916, Note_on_c, 0, 90, 99
2, 179920, Note_on_c, 0, 64, 93
2, 179920, Note_on_c, 0, 61, 82
2, 179920, Note_on_c, 0, 54, 79
2, 179952, Control_c, 0, 64, 72
2, 179964, Control_c, 0, 64, 0
2, 180004, Control_c, 0, 64, 127
2, 180016, Note_on_c, 0, 94, 82
2, 180036, Note_off_c, 0, 90, 0
2, 180088, Note_off_c, 0, 94, 0
2, 180100, Note_on_c, 0, 91, 85
2, 180168, Note_off_c, 0, 91, 0
2, 180184, Note_on_c, 0, 97, 77
2, 180248, Note_off_c, 0, 97, 0
2, 180264, Note_on_c, 0, 94, 65
2, 180344, Note_on_c, 0, 91, 79
2, 180352, Note_off_c, 0, 94, 0
2, 180412, Note_off_c, 0, 91, 0
2, 180428, Note_on_c, 0, 87, 72
2, 180508, Note_off_c, 0, 87, 0
2, 180520, Note_on_c, 0, 91, 78
2, 180584, Note_off_c, 0, 91, 0
2, 180596, Note_on_c, 0, 88, 81
2, 180660, Note_off_c, 0, 88, 0
2, 180680, Note_on_c, 0, 94, 73
2, 180732, Note_off_c, 0, 94, 0
2, 180760, Note_on_c, 0, 91, 81
2, 180836, Note_off_c, 0, 91, 0
2, 180848, Note_on_c, 0, 88, 81
2, 180904, Note_off_c, 0, 88, 0
2, 180916, Control_c, 0, 64, 104
2, 180928, Note_on_c, 0, 84, 81
2, 180928, Control_c, 0, 64, 24
2, 180936, Control_c, 0, 64, 0
2, 180992, Control_c, 0, 64, 104
2, 181004, Note_off_c, 0, 84, 0
2, 181004, Note_on_c, 0, 88, 83
2, 181004, Control_c, 0, 64, 127
2, 181084, Note_off_c, 0, 88, 0
2, 181084, Note_on_c, 0, 85, 80
2, 181108, Note_off_c, 0, 54, 0
2, 181120, Note_off_c, 0, 64, 0
2, 181120, Note_off_c, 0, 61, 0
2, 181156, Note_off_c, 0, 85, 0
2, 181176, Note_on_c, 0, 91, 84
2, 181236, Note_off_c, 0, 91, 0
2, 181252, Note_on_c, 0, 88, 81
2, 181336, Note_off_c, 0, 88, 0
2, 181344, Note_on_c, 0, 85, 78
2, 181408, Note_off_c, 0, 85, 0
2, 181428, Note_on_c, 0, 81, 76
2, 181464, Control_c, 0, 64, 56
2, 181476, Control_c, 0, 64, 0
2, 181484, Control_c, 0, 64, 24
2, 181500, Control_c, 0, 64, 56
2, 181508, Note_on_c, 0, 85, 83
2, 181508, Control_c, 0, 64, 127
2, 181528, Note_off_c, 0, 81, 0
2, 181600, Note_on_c, 0, 82, 77
2, 181632, Note_off_c, 0, 85, 0
2, 181676, Note_off_c, 0, 82, 0
2, 181680, Note_on_c, 0, 88, 79
2, 181756, Note_off_c, 0, 88, 0
2, 181760, Note_on_c, 0, 85, 73
2, 181840, Note_off_c, 0, 85, 0
2, 181852, Note_on_c, 0, 82, 74
2, 181916, Note_off_c, 0, 82, 0
2, 181940, Note_on_c, 0, 78, 82
2, 181968, Control_c, 0, 64, 104
2, 181980, Control_c, 0, 64, 88
2, 181992, Control_c, 0, 64, 104
2, 182000, Control_c, 0, 64, 127
2, 182020, Note_on_c, 0, 82, 69
2, 182048, Note_off_c, 0, 78, 0
2, 182100, Note_on_c, 0, 79, 78
2, 182112, Note_off_c, 0, 82, 0
2, 182160, Note_off_c, 0, 79, 0
2, 182176, Note_on_c, 0, 85, 76
2, 182260, Note_off_c, 0, 85, 0
2, 182260, Note_on_c, 0, 82, 67
2, 182336, Note_on_c, 0, 79, 55
2, 182364, Note_off_c, 0, 82, 0
2, 182388, Note_off_c, 0, 79, 0
2, 182400, Note_on_c, 0, 75, 77
2, 182472, Control_c, 0, 64, 56
2, 182484, Note_on_c, 0, 79, 74
2, 182488, Control_c, 0, 64, 40
2, 182496, Control_c, 0, 64, 72
2, 182500, Note_off_c, 0, 75, 0
2, 182508, Control_c, 0, 64, 127
2, 182564, Note_on_c, 0, 76, 82
2, 182596, Note_off_c, 0, 79, 0
2, 182632, Note_off_c, 0, 76, 0
2, 182648, Note_on_c, 0, 82, 71
2, 182708, Note_off_c, 0, 82, 0
2, 182720, Note_on_c, 0, 79, 77
2, 182808, Note_on_c, 0, 76, 76
2, 182828, Note_off_c, 0, 79, 0
2, 182864, Note_off_c, 0, 76, 0
2, 182884, Note_on_c, 0, 72, 79
2, 182964, Note_off_c, 0, 72, 0
2, 182964, Note_on_c, 0, 76, 82
2, 183052, Note_off_c, 0, 76, 0
2, 183052, Note_on_c, 0, 73, 79
2, 183136, Note_off_c, 0, 73, 0
2, 183140, Note_on_c, 0, 79, 84
2, 183216, Note_off_c, 0, 79, 0
2, 183216, Note_on_c, 0, 76, 77
2, 183300, Note_on_c, 0, 73, 77
2, 183324, Note_off_c, 0, 76, 0
2, 183376, Note_off_c, 0, 73, 0
2, 183388, Note_on_c, 0, 29, 68
2, 183392, Note_on_c, 0, 69, 78
2, 183428, Control_c, 0, 64, 88
2, 183440, Control_c, 0, 64, 72
2, 183448, Control_c, 0, 64, 56
2, 183460, Control_c, 0, 64, 40
2, 183468, Note_off_c, 0, 29, 0
2, 183472, Note_on_c, 0, 73, 73
2, 183472, Control_c, 0, 64, 24
2, 183496, Control_c, 0, 64, 0
2, 183508, Note_off_c, 0, 69, 0
2, 183544, Note_on_c, 0, 30, 70
2, 183564, Note_on_c, 0, 70, 77
2, 183600, Note_off_c, 0, 73, 0
2, 183620, Note_off_c, 0, 30, 0
2, 183648, Note_off_c, 0, 70, 0
2, 183652, Note_on_c, 0, 76, 82
2, 183724, Note_on_c, 0, 31, 72
2, 183728, Note_on_c, 0, 73, 73
2, 183732, Note_off_c, 0, 76, 0
2, 183776, Note_off_c, 0, 31, 0
2, 183816, Note_on_c, 0, 70, 74
2, 183836, Note_off_c, 0, 73, 0
2, 183880, Note_off_c, 0, 70, 0
2, 183880, Note_on_c, 0, 32, 74
2, 183900, Note_on_c, 0, 66, 69
2, 183944, Note_off_c, 0, 32, 0
2, 183988, Note_off_c, 0, 66, 0
2, 183988, Note_on_c, 0, 70, 70
2, 184048, Note_on_c, 0, 33, 76
2, 184072, Note_on_c, 0, 67, 77
2, 184084, Note_off_c, 0, 70, 0
2, 184108, Note_off_c, 0, 33, 0
2, 184144, Note_on_c, 0, 73, 73
2, 184160, Note_off_c, 0, 67, 0
2, 184220, Note_on_c, 0, 34, 78
2, 184228, Note_on_c, 0, 70, 69
2, 184244, Note_off_c, 0, 73, 0
2, 184288, Note_off_c, 0, 34, 0
2, 184312, Note_on_c, 0, 67, 71
2, 184344, Note_off_c, 0, 70, 0
2, 184384, Note_off_c, 0, 67, 0
2, 184384, Note_on_c, 0, 35, 80
2, 184388, Note_on_c, 0, 63, 72
2, 184464, Note_off_c, 0, 35, 0
2, 184484, Note_on_c, 0, 67, 63
2, 184492, Note_on_c, 0, 68, 51
2, 184496, Note_off_c, 0, 63, 0
2, 184536, Note_off_c, 0, 68, 0
2, 184544, Note_on_c, 0, 36, 82
2, 184560, Note_on_c, 0, 64, 78
2, 184580, Note_off_c, 0, 67, 0
2, 184608, Note_off_c, 0, 36, 0
2, 184640, Note_off_c, 0, 64, 0
2, 184640, Note_on_c, 0, 70, 74
2, 184712, Note_off_c, 0, 70, 0
2, 184716, Note_on_c, 0, 37, 84
2, 184716, Note_on_c, 0, 67, 69
2, 184780, Note_off_c, 0, 37, 0
2, 184804, Note_on_c, 0, 64, 77
2, 184840, Note_off_c, 0, 67, 0
2, 184872, Note_off_c, 0, 64, 0
2, 184872, Note_on_c, 0, 38, 86
2, 184888, Note_on_c, 0, 60, 77
2, 184932, Note_off_c, 0, 38, 0
2, 184972, Note_on_c, 0, 64, 76
2, 184980, Note_off_c, 0, 60, 0
2, 185028, Note_on_c, 0, 39, 88
2, 185048, Note_on_c, 0, 61, 73
2, 185064, Note_off_c, 0, 64, 0
2, 185144, Note_on_c, 0, 67, 79
2, 185148, Note_off_c, 0, 39, 0
2, 185168, Note_off_c, 0, 61, 0
2, 185196, Note_on_c, 0, 40, 90
2, 185212, Note_on_c, 0, 64, 74
2, 185232, Note_off_c, 0, 67, 0
2, 185280, Note_on_c, 0, 61, 73
2, 185292, Note_off_c, 0, 40, 0
2, 185316, Note_off_c, 0, 64, 0
2, 185356, Note_off_c, 0, 61, 0
2, 185372, Note_on_c, 0, 57, 79
2, 185376, Note_on_c, 0, 41, 92
2, 185380, Note_on_c, 0, 29, 93
2, 185440, Note_off_c, 0, 29, 0
2, 185444, Note_off_c, 0, 41, 0
2, 185452, Note_on_c, 0, 61, 78
2, 185484, Note_off_c, 0, 57, 0
2, 185536, Note_on_c, 0, 43, 94
2, 185544, Note_on_c, 0, 58, 76
2, 185548, Note_on_c, 0, 31, 97
2, 185568, Note_off_c, 0, 61, 0
2, 185592, Note_off_c, 0, 43, 0
2, 185596, Note_off_c, 0, 31, 0
2, 185624, Note_on_c, 0, 64, 83
2, 185640, Note_off_c, 0, 58, 0
2, 185696, Note_on_c, 0, 30, 97
2, 185696, Note_on_c, 0, 42, 98
2, 185700, Note_on_c, 0, 61, 72
2, 185700, Control_c, 0, 64, 40
2, 185712, Control_c, 0, 64, 88
2, 185720, Note_off_c, 0, 64, 0
2, 185724, Control_c, 0, 64, 127
2, 185736, Note_off_c, 0, 42, 0
2, 185740, Note_off_c, 0, 30, 0
2, 185792, Note_on_c, 0, 58, 74
2, 185820, Note_off_c, 0, 61, 0
2, 185864, Note_off_c, 0, 58, 0
2, 185888, Note_on_c, 0, 49, 96
2, 185892, Note_on_c, 0, 37, 95
2, 185896, Note_on_c, 0, 54, 68
2, 185908, Control_c, 0, 64, 104
2, 185920, Control_c, 0, 64, 40
2, 185932, Control_c, 0, 64, 0
2, 185984, Note_on_c, 0, 58, 62
2, 186000, Note_off_c, 0, 54, 0
2, 186032, Control_c, 0, 64, 56
2, 186040, Control_c, 0, 64, 88
2, 186052, Control_c, 0, 64, 127
2, 186068, Note_on_c, 0, 55, 72
2, 186080, Note_off_c, 0, 58, 0
2, 186144, Note_off_c, 0, 55, 0
2, 186144, Note_on_c, 0, 61, 63
2, 186208, Note_off_c, 0, 49, 0
2, 186228, Note_on_c, 0, 58, 62
2, 186236, Note_off_c, 0, 61, 0
2, 186308, Note_on_c, 0, 55, 68
2, 186328, Note_off_c, 0, 58, 0
2, 186380, Note_off_c, 0, 55, 0
2, 186392, Note_on_c, 0, 51, 74
2, 186404, Control_c, 0, 64, 72
2, 186412, Control_c, 0, 64, 0
2, 186480, Control_c, 0, 64, 56
2, 186488, Note_on_c, 0, 55, 67
2, 186492, Note_off_c, 0, 51, 0
2, 186492, Note_on_c, 0, 56, 37
2, 186492, Control_c, 0, 64, 127
2, 186540, Note_off_c, 0, 56, 0
2, 186564, Note_off_c, 0, 55, 0
2, 186564, Note_on_c, 0, 52, 81
2, 186580, Control_c, 0, 64, 88
2, 186588, Control_c, 0, 64, 40
2, 186600, Control_c, 0, 64, 24
2, 186612, Control_c, 0, 64, 40
2, 186624, Control_c, 0, 64, 72
2, 186632, Control_c, 0, 64, 104
2, 186644, Control_c, 0, 64, 127
2, 186656, Note_on_c, 0, 58, 71
2, 186676, Note_off_c, 0, 52, 0
2, 186688, Note_off_c, 0, 37, 0
2, 186736, Note_off_c, 0, 58, 0
2, 186740, Note_on_c, 0, 55, 59
2, 186808, Note_on_c, 0, 52, 66
2, 186860, Note_off_c, 0, 55, 0
2, 186876, Note_off_c, 0, 52, 0
2, 186888, Note_on_c, 0, 48, 78
2, 186928, Control_c, 0, 64, 72
2, 186940, Control_c, 0, 64, 0
2, 186972, Note_on_c, 0, 52, 73
2, 186976, Note_off_c, 0, 48, 0
2, 187020, Control_c, 0, 64, 24
2, 187028, Control_c, 0, 64, 88
2, 187040, Control_c, 0, 64, 127
2, 187052, Note_on_c, 0, 49, 67
2, 187088, Note_off_c, 0, 52, 0
2, 187144, Note_on_c, 0, 55, 69
2, 187156, Note_off_c, 0, 49, 0
2, 187204, Note_on_c, 0, 52, 63
2, 187236, Note_off_c, 0, 55, 0
2, 187272, Note_on_c, 0, 49, 63
2, 187292, Note_off_c, 0, 52, 0
2, 187332, Note_off_c, 0, 49, 0
2, 187440, Note_on_c, 0, 42, 72
2, 187456, Note_on_c, 0, 30, 72
2, 187592, Control_c, 0, 64, 24
2, 187604, Control_c, 0, 64, 40
2, 187624, Control_c, 0, 64, 44
2, 187636, Control_c, 0, 64, 47
2, 187648, Control_c, 0, 64, 51
2, 187656, Note_off_c, 0, 42, 0
2, 187660, Note_on_c, 0, 43, 68
2, 187756, Note_on_c, 0, 52, 72
2, 187764, Note_off_c, 0, 43, 0
2, 187832, Note_on_c, 0, 49, 69
2, 187832, Note_on_c, 0, 31, 60
2, 187836, Note_off_c, 0, 52, 0
2, 187920, Note_off_c, 0, 49, 0
2, 187920, Note_off_c, 0, 31, 0
2, 187924, Note_off_c, 0, 30, 0
2, 187924, Note_on_c, 0, 43, 63
2, 188004, Note_off_c, 0, 43, 0
2, 188020, Control_c, 0, 64, 40
2, 188024, Note_on_c, 0, 42, 61
2, 188024, Note_on_c, 0, 30, 68
2, 188028, Control_c, 0, 64, 0
2, 188108, Control_c, 0, 64, 24
2, 188112, Note_off_c, 0, 42, 0
2, 188120, Control_c, 0, 64, 56
2, 188124, Note_on_c, 0, 43, 65
2, 188128, Control_c, 0, 64, 72
2, 188140, Control_c, 0, 64, 88
2, 188192, Note_off_c, 0, 43, 0
2, 188220, Note_on_c, 0, 46, 69
2, 188308, Note_on_c, 0, 52, 73
2, 188320, Note_off_c, 0, 46, 0
2, 188340, Control_c, 0, 64, 40
2, 188348, Note_off_c, 0, 30, 0
2, 188348, Control_c, 0, 64, 0
2, 188372, Note_off_c, 0, 52, 0
2, 188380, Note_on_c, 0, 49, 70
2, 188380, Note_on_c, 0, 31, 60
2, 188416, Control_c, 0, 64, 24
2, 188428, Control_c, 0, 64, 40
2, 188440, Control_c, 0, 64, 72
2, 188448, Control_c, 0, 64, 88
2, 188460, Note_off_c, 0, 49, 0
2, 188472, Note_on_c, 0, 43, 66
2, 188556, Control_c, 0, 64, 40
2, 188564, Note_off_c, 0, 31, 0
2, 188568, Control_c, 0, 64, 0
2, 188576, Note_on_c, 0, 42, 70
2, 188580, Note_off_c, 0, 43, 0
2, 188580, Note_on_c, 0, 30, 61
2, 188656, Control_c, 0, 64, 40
2, 188660, Note_off_c, 0, 42, 0
2, 188668, Control_c, 0, 64, 56
2, 188676, Note_on_c, 0, 43, 72
2, 188680, Control_c, 0, 64, 72
2, 188732, Note_off_c, 0, 43, 0
2, 188764, Note_on_c, 0, 46, 70
2, 188796, Control_c, 0, 64, 88
2, 188852, Note_on_c, 0, 52, 73
2, 188864, Control_c, 0, 64, 104
2, 188872, Note_off_c, 0, 46, 0
2, 188920, Note_off_c, 0, 52, 0
2, 188932, Note_off_c, 0, 30, 0
2, 188932, Control_c, 0, 64, 40
2, 188944, Note_on_c, 0, 49, 62
2, 188944, Control_c, 0, 64, 0
2, 188956, Note_on_c, 0, 31, 63
2, 189020, Control_c, 0, 64, 40
2, 189024, Note_off_c, 0, 49, 0
2, 189032, Control_c, 0, 64, 72
2, 189040, Note_on_c, 0, 43, 63
2, 189052, Control_c, 0, 64, 88
2, 189128, Note_off_c, 0, 43, 0
2, 189128, Control_c, 0, 64, 56
2, 189136, Note_on_c, 0, 42, 67
2, 189140, Control_c, 0, 64, 0
2, 189144, Note_on_c, 0, 30, 64
2, 189148, Note_off_c, 0, 31, 0
2, 189212, Note_off_c, 0, 42, 0
2, 189232, Note_on_c, 0, 43, 73
2, 189240, Control_c, 0, 64, 24
2, 189252, Control_c, 0, 64, 56
2, 189260, Control_c, 0, 64, 72
2, 189272, Control_c, 0, 64, 88
2, 189296, Note_off_c, 0, 43, 0
2, 189304, Control_c, 0, 64, 104
2, 189324, Note_on_c, 0, 46, 70
2, 189412, Note_on_c, 0, 52, 72
2, 189416, Note_off_c, 0, 46, 0
2, 189480, Note_off_c, 0, 52, 0
2, 189500, Note_on_c, 0, 49, 69
2, 189508, Note_off_c, 0, 30, 0
2, 189508, Note_on_c, 0, 31, 59
2, 189568, Note_off_c, 0, 31, 0
2, 189580, Note_off_c, 0, 49, 0
2, 189592, Note_on_c, 0, 43, 64
2, 189656, Control_c, 0, 64, 56
2, 189664, Control_c, 0, 64, 0
2, 189700, Note_on_c, 0, 42, 75
2, 189704, Note_off_c, 0, 43, 0
2, 189704, Note_on_c, 0, 30, 61
2, 189732, Control_c, 0, 64, 40
2, 189744, Note_off_c, 0, 42, 0
2, 189744, Control_c, 0, 64, 88
2, 189756, Control_c, 0, 64, 127
2, 189776, Note_off_c, 0, 30, 0
2, 189792, Note_on_c, 0, 37, 36
2, 189856, Note_off_c, 0, 37, 0
2, 189872, Note_on_c, 0, 42, 50
2, 189936, Note_off_c, 0, 42, 0
2, 189972, Note_on_c, 0, 49, 61
2, 190040, Note_off_c, 0, 49, 0
2, 190076, Note_on_c, 0, 42, 45
2, 190080, Note_on_c, 0, 55, 76
2, 190088, Note_on_c, 0, 52, 66
2, 190152, Note_off_c, 0, 42, 0
2, 190180, Note_on_c, 0, 37, 52
2, 190236, Control_c, 0, 64, 104
2, 190248, Control_c, 0, 64, 88
2, 190260, Note_off_c, 0, 37, 0
2, 190260, Control_c, 0, 64, 72
2, 190272, Control_c, 0, 64, 56
2, 190280, Control_c, 0, 64, 0
2, 190292, Note_on_c, 0, 54, 77
2, 190300, Note_off_c, 0, 55, 0
2, 190300, Note_on_c, 0, 30, 43
2, 190396, Note_off_c, 0, 30, 0
2, 190396, Note_on_c, 0, 37, 53
2, 190424, Control_c, 0, 64, 104
2, 190436, Control_c, 0, 64, 127
2, 190456, Note_off_c, 0, 52, 0
2, 190472, Note_off_c, 0, 37, 0
2, 190492, Note_on_c, 0, 42, 62
2, 190584, Note_off_c, 0, 42, 0
2, 190588, Note_on_c, 0, 49, 68
2, 190640, Note_off_c, 0, 54, 0
2, 190676, Note_off_c, 0, 49, 0
2, 190676, Note_on_c, 0, 56, 87
2, 190688, Note_on_c, 0, 52, 63
2, 190708, Note_on_c, 0, 42, 60
2, 190712, Control_c, 0, 64, 56
2, 190720, Control_c, 0, 64, 0
2, 190764, Control_c, 0, 64, 24
2, 190772, Note_off_c, 0, 42, 0
2, 190776, Control_c, 0, 64, 88
2, 190788, Control_c, 0, 64, 127
2, 190796, Note_on_c, 0, 37, 55
2, 190880, Note_off_c, 0, 37, 0
2, 190896, Note_on_c, 0, 54, 80
2, 190896, Note_on_c, 0, 30, 59
2, 190912, Note_off_c, 0, 56, 0
2, 190928, Control_c, 0, 64, 40
2, 190940, Control_c, 0, 64, 0
2, 190980, Note_off_c, 0, 30, 0
2, 190992, Control_c, 0, 64, 24
2, 190996, Note_on_c, 0, 37, 55
2, 191004, Control_c, 0, 64, 88
2, 191016, Control_c, 0, 64, 127
2, 191056, Note_off_c, 0, 37, 0
2, 191088, Note_on_c, 0, 42, 69
2, 191104, Note_off_c, 0, 52, 0
2, 191168, Note_off_c, 0, 42, 0
2, 191176, Note_on_c, 0, 49, 77
2, 191184, Note_off_c, 0, 54, 0
2, 191256, Note_off_c, 0, 49, 0
2, 191300, Note_on_c, 0, 62, 84
2, 191304, Note_on_c, 0, 42, 65
2, 191304, Note_on_c, 0, 52, 75
2, 191308, Note_on_c, 0, 57, 68
2, 191344, Control_c, 0, 64, 40
2, 191356, Control_c, 0, 64, 0
2, 191376, Note_off_c, 0, 42, 0
2, 191408, Note_on_c, 0, 37, 56
2, 191432, Control_c, 0, 64, 72
2, 191444, Control_c, 0, 64, 127
2, 191484, Note_off_c, 0, 37, 0
2, 191496, Note_off_c, 0, 57, 0
2, 191508, Note_on_c, 0, 54, 77
2, 191508, Control_c, 0, 64, 104
2, 191512, Note_on_c, 0, 30, 58
2, 191524, Control_c, 0, 64, 24
2, 191532, Control_c, 0, 64, 0
2, 191576, Control_c, 0, 64, 40
2, 191588, Control_c, 0, 64, 127
2, 191592, Note_off_c, 0, 30, 0
2, 191612, Note_on_c, 0, 37, 64
2, 191676, Note_off_c, 0, 62, 0
2, 191680, Note_off_c, 0, 37, 0
2, 191688, Note_off_c, 0, 52, 0
2, 191720, Note_on_c, 0, 42, 56
2, 191808, Note_off_c, 0, 54, 0
2, 191808, Note_off_c, 0, 42, 0
2, 191824, Note_on_c, 0, 49, 69
2, 191900, Note_off_c, 0, 49, 0
2, 191920, Note_on_c, 0, 61, 85
2, 191932, Note_on_c, 0, 42, 64
2, 191932, Note_on_c, 0, 52, 68
2, 191936, Note_on_c, 0, 58, 52
2, 191988, Note_off_c, 0, 52, 0
2, 192004, Note_off_c, 0, 58, 0
2, 192012, Note_off_c, 0, 42, 0
2, 192020, Note_off_c, 0, 61, 0
2, 192028, Note_on_c, 0, 37, 56
2, 192148, Note_off_c, 0, 37, 0
2, 192156, Control_c, 0, 64, 88
2, 192168, Control_c, 0, 64, 24
2, 192180, Control_c, 0, 64, 0
2, 192188, Note_on_c, 0, 35, 64
2, 192188, Note_on_c, 0, 59, 84
2, 192192, Note_on_c, 0, 50, 74
2, 192244, Note_off_c, 0, 50, 0
2, 192248, Note_off_c, 0, 35, 0
2, 192264, Note_on_c, 0, 42, 62
2, 192300, Control_c, 0, 64, 88
2, 192312, Control_c, 0, 64, 127
2, 192340, Note_off_c, 0, 42, 0
2, 192364, Note_on_c, 0, 47, 64
2, 192444, Note_off_c, 0, 47, 0
2, 192476, Note_on_c, 0, 50, 64
2, 192500, Note_off_c, 0, 59, 0
2, 192520, Note_off_c, 0, 50, 0
2, 192568, Note_on_c, 0, 47, 60
2, 192572, Note_on_c, 0, 54, 78
2, 192628, Note_off_c, 0, 47, 0
2, 192668, Note_on_c, 0, 42, 60
2, 192720, Note_off_c, 0, 42, 0
2, 192740, Note_off_c, 0, 54, 0
2, 192788, Note_on_c, 0, 55, 80
2, 192792, Control_c, 0, 64, 88
2, 192808, Control_c, 0, 64, 24
2, 192816, Note_on_c, 0, 35, 60
2, 192816, Control_c, 0, 64, 0
2, 192884, Note_off_c, 0, 35, 0
2, 192888, Note_on_c, 0, 40, 60
2, 192904, Control_c, 0, 64, 88
2, 192916, Control_c, 0, 64, 127
2, 192960, Note_off_c, 0, 40, 0
2, 192976, Note_on_c, 0, 43, 63
2, 193040, Note_off_c, 0, 43, 0
2, 193056, Note_on_c, 0, 52, 62
2, 193120, Note_off_c, 0, 52, 0
2, 193164, Note_on_c, 0, 43, 60
2, 193172, Note_on_c, 0, 58, 75
2, 193188, Note_off_c, 0, 55, 0
2, 193256, Note_off_c, 0, 43, 0
2, 193268, Note_on_c, 0, 40, 60
2, 193356, Note_off_c, 0, 58, 0
2, 193376, Note_off_c, 0, 40, 0
2, 193376, Control_c, 0, 64, 72
2, 193380, Note_on_c, 0, 59, 73
2, 193388, Control_c, 0, 64, 24
2, 193392, Note_on_c, 0, 35, 59
2, 193396, Control_c, 0, 64, 0
2, 193456, Note_off_c, 0, 35, 0
2, 193484, Note_on_c, 0, 42, 62
2, 193520, Control_c, 0, 64, 88
2, 193528, Control_c, 0, 64, 127
2, 193548, Note_off_c, 0, 42, 0
2, 193572, Note_on_c, 0, 47, 61
2, 193624, Note_off_c, 0, 47, 0
2, 193676, Note_on_c, 0, 50, 60
2, 193724, Note_off_c, 0, 50, 0
2, 193744, Note_off_c, 0, 59, 0
2, 193760, Note_on_c, 0, 54, 86
2, 193772, Note_on_c, 0, 47, 60
2, 193828, Note_off_c, 0, 47, 0
2, 193844, Note_on_c, 0, 42, 60
2, 193916, Note_off_c, 0, 42, 0
2, 193972, Note_on_c, 0, 55, 86
2, 193984, Note_off_c, 0, 54, 0
2, 193992, Control_c, 0, 64, 72
2, 194000, Control_c, 0, 64, 24
2, 194004, Note_on_c, 0, 35, 62
2, 194012, Control_c, 0, 64, 0
2, 194076, Note_on_c, 0, 40, 60
2, 194080, Note_off_c, 0, 35, 0
2, 194112, Control_c, 0, 64, 40
2, 194124, Control_c, 0, 64, 104
2, 194132, Control_c, 0, 64, 127
2, 194148, Note_off_c, 0, 40, 0
2, 194152, Note_on_c, 0, 43, 58
2, 194208, Note_off_c, 0, 43, 0
2, 194232, Note_on_c, 0, 52, 60
2, 194296, Note_off_c, 0, 52, 0
2, 194336, Note_on_c, 0, 58, 83
2, 194340, Note_on_c, 0, 43, 60
2, 194364, Note_off_c, 0, 55, 0
2, 194428, Note_off_c, 0, 43, 0
2, 194436, Note_on_c, 0, 40, 58
2, 194516, Note_off_c, 0, 58, 0
2, 194544, Note_off_c, 0, 40, 0
2, 194556, Note_on_c, 0, 59, 84
2, 194560, Note_on_c, 0, 35, 62
2, 194572, Control_c, 0, 64, 104
2, 194584, Control_c, 0, 64, 40
2, 194592, Control_c, 0, 64, 0
2, 194636, Note_off_c, 0, 35, 0
2, 194656, Note_on_c, 0, 42, 61
2, 194684, Control_c, 0, 64, 56
2, 194692, Control_c, 0, 64, 127
2, 194720, Note_off_c, 0, 42, 0
2, 194740, Note_on_c, 0, 47, 60
2, 194756, Note_off_c, 0, 59, 0
2, 194816, Note_off_c, 0, 47, 0
2, 194840, Note_on_c, 0, 50, 61
2, 194904, Note_off_c, 0, 50, 0
2, 194928, Note_on_c, 0, 59, 87
2, 194936, Note_on_c, 0, 47, 59
2, 195020, Note_off_c, 0, 47, 0
2, 195028, Note_on_c, 0, 42, 58
2, 195032, Note_off_c, 0, 59, 0
2, 195140, Note_off_c, 0, 42, 0
2, 195152, Note_on_c, 0, 59, 90
2, 195160, Note_on_c, 0, 40, 60
2, 195164, Control_c, 0, 64, 104
2, 195176, Control_c, 0, 64, 56
2, 195188, Control_c, 0, 64, 0
2, 195232, Note_off_c, 0, 40, 0
2, 195248, Note_on_c, 0, 43, 61
2, 195264, Control_c, 0, 64, 24
2, 195276, Control_c, 0, 64, 88
2, 195284, Control_c, 0, 64, 127
2, 195340, Note_off_c, 0, 43, 0
2, 195352, Note_on_c, 0, 47, 60
2, 195408, Note_off_c, 0, 47, 0
2, 195416, Note_off_c, 0, 59, 0
2, 195444, Note_on_c, 0, 58, 76
2, 195444, Note_on_c, 0, 55, 59
2, 195504, Note_off_c, 0, 58, 0
2, 195508, Note_off_c, 0, 55, 0
2, 195528, Note_on_c, 0, 59, 93
2, 195544, Note_on_c, 0, 47, 60
2, 195632, Note_off_c, 0, 47, 0
2, 195636, Note_on_c, 0, 43, 60
2, 195712, Note_off_c, 0, 59, 0
2, 195724, Control_c, 0, 64, 104
2, 195736, Control_c, 0, 64, 72
2, 195740, Note_on_c, 0, 62, 84
2, 195744, Note_off_c, 0, 43, 0
2, 195748, Note_on_c, 0, 38, 61
2, 195748, Control_c, 0, 64, 0
2, 195824, Note_off_c, 0, 38, 0
2, 195832, Control_c, 0, 64, 72
2, 195844, Control_c, 0, 64, 127
2, 195872, Note_on_c, 0, 45, 60
2, 195900, Note_off_c, 0, 45, 0
2, 195928, Note_on_c, 0, 50, 61
2, 196024, Note_off_c, 0, 50, 0
2, 196036, Note_on_c, 0, 54, 62
2, 196104, Note_off_c, 0, 54, 0
2, 196124, Note_on_c, 0, 50, 60
2, 196220, Note_off_c, 0, 50, 0
2, 196220, Note_on_c, 0, 45, 61
2, 196284, Control_c, 0, 64, 104
2, 196304, Control_c, 0, 64, 88
2, 196308, Note_off_c, 0, 45, 0
2, 196316, Note_on_c, 0, 43, 66
2, 196316, Control_c, 0, 64, 56
2, 196328, Control_c, 0, 64, 0
2, 196396, Note_off_c, 0, 43, 0
2, 196412, Note_on_c, 0, 46, 61
2, 196436, Control_c, 0, 64, 72
2, 196448, Control_c, 0, 64, 104
2, 196460, Control_c, 0, 64, 127
2, 196484, Note_off_c, 0, 46, 0
2, 196496, Note_off_c, 0, 62, 0
2, 196508, Note_on_c, 0, 50, 60
2, 196576, Note_off_c, 0, 50, 0
2, 196592, Note_on_c, 0, 55, 62
2, 196656, Note_off_c, 0, 55, 0
2, 196676, Note_on_c, 0, 58, 78
2, 196688, Note_on_c, 0, 50, 61
2, 196740, Note_off_c, 0, 50, 0
2, 196748, Note_on_c, 0, 46, 60
2, 196836, Note_off_c, 0, 58, 0
2, 196888, Control_c, 0, 64, 88
2, 196892, Note_on_c, 0, 62, 78
2, 196896, Control_c, 0, 64, 40
2, 196908, Note_off_c, 0, 46, 0
2, 196908, Control_c, 0, 64, 0
2, 196920, Note_on_c, 0, 38, 61
2, 196980, Note_off_c, 0, 38, 0
2, 197000, Note_on_c, 0, 45, 60
2, 197008, Control_c, 0, 64, 72
2, 197020, Control_c, 0, 64, 127
2, 197040, Note_off_c, 0, 45, 0
2, 197056, Note_on_c, 0, 50, 61
2, 197156, Note_off_c, 0, 50, 0
2, 197156, Note_on_c, 0, 54, 62
2, 197244, Note_off_c, 0, 54, 0
2, 197252, Note_on_c, 0, 50, 61
2, 197252, Note_on_c, 0, 57, 81
2, 197256, Note_off_c, 0, 62, 0
2, 197344, Note_off_c, 0, 50, 0
2, 197352, Note_on_c, 0, 45, 60
2, 197376, Note_off_c, 0, 45, 0
2, 197452, Note_on_c, 0, 58, 77
2, 197456, Control_c, 0, 64, 88
2, 197468, Note_off_c, 0, 57, 0
2, 197468, Control_c, 0, 64, 40
2, 197476, Note_on_c, 0, 38, 61
2, 197480, Control_c, 0, 64, 0
2, 197552, Note_off_c, 0, 38, 0
2, 197564, Note_on_c, 0, 43, 60
2, 197580, Control_c, 0, 64, 40
2, 197592, Control_c, 0, 64, 88
2, 197600, Control_c, 0, 64, 127
2, 197628, Note_off_c, 0, 43, 0
2, 197632, Note_on_c, 0, 46, 62
2, 197704, Note_off_c, 0, 46, 0
2, 197724, Note_on_c, 0, 55, 62
2, 197788, Note_off_c, 0, 55, 0
2, 197792, Note_off_c, 0, 58, 0
2, 197808, Note_on_c, 0, 61, 74
2, 197824, Note_on_c, 0, 46, 61
2, 197908, Note_off_c, 0, 46, 0
2, 197916, Note_on_c, 0, 43, 60
2, 198004, Control_c, 0, 64, 88
2, 198016, Note_off_c, 0, 43, 0
2, 198020, Control_c, 0, 64, 56
2, 198028, Note_on_c, 0, 62, 83
2, 198028, Note_on_c, 0, 38, 62
2, 198028, Control_c, 0, 64, 0
2, 198048, Note_off_c, 0, 61, 0
2, 198100, Note_off_c, 0, 38, 0
2, 198120, Note_on_c, 0, 45, 60
2, 198148, Control_c, 0, 64, 72
2, 198160, Control_c, 0, 64, 127
2, 198168, Note_off_c, 0, 45, 0
2, 198196, Note_on_c, 0, 50, 60
2, 198292, Note_off_c, 0, 50, 0
2, 198296, Note_on_c, 0, 54, 60
2, 198368, Note_off_c, 0, 54, 0
2, 198384, Note_off_c, 0, 62, 0
2, 198396, Note_on_c, 0, 50, 61
2, 198400, Note_on_c, 0, 57, 82
2, 198496, Note_off_c, 0, 50, 0
2, 198512, Note_on_c, 0, 45, 60
2, 198532, Note_off_c, 0, 45, 0
2, 198580, Control_c, 0, 64, 104
2, 198588, Control_c, 0, 64, 88
2, 198600, Note_off_c, 0, 57, 0
2, 198600, Control_c, 0, 64, 56
2, 198604, Note_on_c, 0, 58, 83
2, 198612, Control_c, 0, 64, 0
2, 198640, Note_on_c, 0, 38, 62
2, 198716, Note_off_c, 0, 38, 0
2, 198728, Note_on_c, 0, 43, 62
2, 198732, Control_c, 0, 64, 56
2, 198740, Control_c, 0, 64, 88
2, 198752, Control_c, 0, 64, 127
2, 198784, Note_off_c, 0, 43, 0
2, 198796, Note_on_c, 0, 46, 61
2, 198860, Note_off_c, 0, 46, 0
2, 198896, Note_on_c, 0, 55, 61
2, 198956, Note_off_c, 0, 55, 0
2, 198972, Note_on_c, 0, 61, 78
2, 198976, Note_off_c, 0, 58, 0
2, 199000, Note_on_c, 0, 46, 60
2, 199084, Note_off_c, 0, 46, 0
2, 199092, Note_on_c, 0, 43, 61
2, 199164, Note_off_c, 0, 61, 0
2, 199180, Note_on_c, 0, 62, 79
2, 199180, Control_c, 0, 64, 72
2, 199184, Note_off_c, 0, 43, 0
2, 199192, Control_c, 0, 64, 0
2, 199212, Note_on_c, 0, 38, 61
2, 199280, Note_off_c, 0, 38, 0
2, 199288, Control_c, 0, 64, 40
2, 199304, Control_c, 0, 64, 88
2, 199312, Control_c, 0, 64, 127
2, 199324, Note_on_c, 0, 45, 61
2, 199348, Note_off_c, 0, 45, 0
2, 199364, Note_on_c, 0, 50, 62
2, 199388, Note_off_c, 0, 62, 0
2, 199456, Note_off_c, 0, 50, 0
2, 199468, Note_on_c, 0, 54, 60
2, 199536, Note_off_c, 0, 54, 0
2, 199552, Note_on_c, 0, 62, 94
2, 199556, Note_on_c, 0, 50, 60
2, 199644, Note_off_c, 0, 50, 0
2, 199656, Note_on_c, 0, 45, 61
2, 199676, Note_off_c, 0, 62, 0
2, 199736, Note_off_c, 0, 45, 0
2, 199740, Control_c, 0, 64, 104
2, 199752, Control_c, 0, 64, 72
2, 199756, Note_on_c, 0, 62, 88
2, 199764, Control_c, 0, 64, 40
2, 199772, Note_on_c, 0, 43, 58
2, 199772, Control_c, 0, 64, 0
2, 199856, Note_off_c, 0, 43, 0
2, 199868, Note_on_c, 0, 47, 51
2, 199872, Control_c, 0, 64, 40
2, 199884, Control_c, 0, 64, 88
2, 199896, Control_c, 0, 64, 127
2, 199952, Note_off_c, 0, 47, 0
2, 199964, Note_on_c, 0, 50, 62
2, 200012, Note_off_c, 0, 62, 0
2, 200016, Note_off_c, 0, 50, 0
2, 200028, Note_on_c, 0, 59, 44
2, 200052, Note_on_c, 0, 61, 78
2, 200112, Note_off_c, 0, 59, 0
2, 200116, Note_off_c, 0, 61, 0
2, 200136, Note_on_c, 0, 50, 66
2, 200140, Note_on_c, 0, 62, 92
2, 200196, Note_off_c, 0, 50, 0
2, 200212, Note_on_c, 0, 47, 42
2, 200268, Note_off_c, 0, 62, 0
2, 200300, Note_off_c, 0, 47, 0
2, 200348, Note_on_c, 0, 42, 60
2, 200356, Control_c, 0, 64, 72
2, 200360, Note_on_c, 0, 66, 88
2, 200368, Control_c, 0, 64, 24
2, 200380, Control_c, 0, 64, 0
2, 200440, Note_off_c, 0, 42, 0
2, 200440, Note_on_c, 0, 49, 58
2, 200464, Control_c, 0, 64, 40
2, 200476, Control_c, 0, 64, 88
2, 200488, Control_c, 0, 64, 127
2, 200512, Note_off_c, 0, 49, 0
2, 200528, Note_on_c, 0, 54, 62
2, 200596, Note_off_c, 0, 54, 0
2, 200620, Note_on_c, 0, 58, 50
2, 200716, Note_off_c, 0, 58, 0
2, 200716, Note_on_c, 0, 54, 60
2, 200812, Note_off_c, 0, 54, 0
2, 200816, Note_on_c, 0, 49, 63
2, 200900, Note_off_c, 0, 49, 0
2, 200920, Note_on_c, 0, 47, 74
2, 200928, Control_c, 0, 64, 88
2, 200936, Control_c, 0, 64, 40
2, 200948, Control_c, 0, 64, 0
2, 201004, Note_off_c, 0, 47, 0
2, 201012, Note_on_c, 0, 50, 68
2, 201036, Control_c, 0, 64, 24
2, 201048, Control_c, 0, 64, 72
2, 201056, Control_c, 0, 64, 127
2, 201096, Note_off_c, 0, 50, 0
2, 201100, Note_on_c, 0, 54, 61
2, 201156, Note_off_c, 0, 54, 0
2, 201184, Note_on_c, 0, 62, 52
2, 201244, Note_off_c, 0, 62, 0
2, 201280, Note_on_c, 0, 54, 61
2, 201372, Note_on_c, 0, 50, 69
2, 201380, Note_off_c, 0, 54, 0
2, 201432, Note_off_c, 0, 50, 0
2, 201472, Note_on_c, 0, 46, 69
2, 201476, Control_c, 0, 64, 88
2, 201484, Control_c, 0, 64, 56
2, 201496, Control_c, 0, 64, 0
2, 201556, Note_off_c, 0, 46, 0
2, 201564, Note_on_c, 0, 49, 62
2, 201596, Control_c, 0, 64, 40
2, 201604, Control_c, 0, 64, 88
2, 201616, Control_c, 0, 64, 127
2, 201652, Note_off_c, 0, 49, 0
2, 201656, Note_off_c, 0, 66, 0
2, 201656, Note_on_c, 0, 54, 62
2, 201720, Note_off_c, 0, 54, 0
2, 201748, Note_on_c, 0, 61, 56
2, 201812, Note_off_c, 0, 61, 0
2, 201844, Note_on_c, 0, 54, 55
2, 201848, Note_on_c, 0, 61, 71
2, 201928, Note_off_c, 0, 54, 0
2, 201944, Note_on_c, 0, 49, 56
2, 202000, Note_off_c, 0, 61, 0
2, 202020, Note_off_c, 0, 49, 0
2, 202036, Note_on_c, 0, 62, 87
2, 202056, Control_c, 0, 64, 104
2, 202068, Control_c, 0, 64, 88
2, 202072, Note_on_c, 0, 45, 71
2, 202076, Control_c, 0, 64, 56
2, 202088, Control_c, 0, 64, 24
2, 202100, Control_c, 0, 64, 0
2, 202140, Note_off_c, 0, 45, 0
2, 202152, Note_on_c, 0, 47, 54
2, 202200, Control_c, 0, 64, 40
2, 202212, Control_c, 0, 64, 104
2, 202216, Note_on_c, 0, 54, 56
2, 202220, Note_off_c, 0, 47, 0
2, 202220, Control_c, 0, 64, 127
2, 202292, Note_off_c, 0, 54, 0
2, 202320, Note_on_c, 0, 59, 51
2, 202392, Note_off_c, 0, 62, 0
2, 202392, Note_off_c, 0, 59, 0
2, 202404, Note_on_c, 0, 63, 87
2, 202420, Note_on_c, 0, 54, 52
2, 202516, Note_off_c, 0, 54, 0
2, 202528, Note_on_c, 0, 47, 58
2, 202560, Note_off_c, 0, 63, 0
2, 202604, Note_off_c, 0, 47, 0
2, 202608, Note_on_c, 0, 64, 84
2, 202632, Note_on_c, 0, 44, 61
2, 202636, Control_c, 0, 64, 88
2, 202648, Control_c, 0, 64, 40
2, 202660, Control_c, 0, 64, 0
2, 202716, Note_off_c, 0, 44, 0
2, 202724, Note_on_c, 0, 47, 67
2, 202760, Control_c, 0, 64, 56
2, 202768, Control_c, 0, 64, 104
2, 202780, Control_c, 0, 64, 127
2, 202816, Note_off_c, 0, 47, 0
2, 202824, Note_on_c, 0, 52, 64
2, 202880, Note_off_c, 0, 52, 0
2, 202932, Note_on_c, 0, 59, 21
2, 202976, Note_off_c, 0, 59, 0
2, 203016, Note_on_c, 0, 52, 66
2, 203108, Note_off_c, 0, 52, 0
2, 203124, Note_on_c, 0, 47, 51
2, 203160, Note_off_c, 0, 47, 0
2, 203196, Control_c, 0, 64, 104
2, 203208, Control_c, 0, 64, 72
2, 203220, Note_on_c, 0, 43, 68
2, 203220, Control_c, 0, 64, 0
2, 203304, Note_off_c, 0, 43, 0
2, 203308, Note_on_c, 0, 45, 68
2, 203308, Control_c, 0, 64, 24
2, 203320, Control_c, 0, 64, 88
2, 203328, Control_c, 0, 64, 127
2, 203384, Note_off_c, 0, 45, 0
2, 203392, Note_on_c, 0, 49, 61
2, 203460, Note_off_c, 0, 49, 0
2, 203476, Note_off_c, 0, 64, 0
2, 203492, Note_on_c, 0, 66, 73
2, 203496, Note_on_c, 0, 57, 41
2, 203556, Note_off_c, 0, 57, 0
2, 203584, Note_off_c, 0, 66, 0
2, 203588, Note_on_c, 0, 64, 85
2, 203596, Note_on_c, 0, 49, 69
2, 203680, Note_off_c, 0, 49, 0
2, 203680, Note_on_c, 0, 45, 74
2, 203756, Note_off_c, 0, 45, 0
2, 203776, Control_c, 0, 64, 104
2, 203780, Note_off_c, 0, 64, 0
2, 203792, Note_on_c, 0, 62, 83
2, 203792, Control_c, 0, 64, 88
2, 203800, Note_on_c, 0, 42, 63
2, 203800, Control_c, 0, 64, 40
2, 203812, Control_c, 0, 64, 0
2, 203888, Note_off_c, 0, 42, 0
2, 203896, Note_on_c, 0, 45, 62
2, 203920, Control_c, 0, 64, 72
2, 203932, Control_c, 0, 64, 104
2, 203944, Control_c, 0, 64, 127
2, 203996, Note_off_c, 0, 45, 0
2, 204008, Note_on_c, 0, 50, 66
2, 204072, Note_off_c, 0, 62, 0
2, 204076, Note_off_c, 0, 50, 0
2, 204112, Note_on_c, 0, 57, 33
2, 204156, Note_off_c, 0, 57, 0
2, 204176, Note_on_c, 0, 61, 76
2, 204200, Note_on_c, 0, 50, 74
2, 204284, Note_off_c, 0, 50, 0
2, 204284, Note_on_c, 0, 45, 68
2, 204360, Note_off_c, 0, 45, 0
2, 204368, Note_off_c, 0, 61, 0
2, 204372, Control_c, 0, 64, 88
2, 204384, Control_c, 0, 64, 56
2, 204388, Note_on_c, 0, 59, 78
2, 204392, Control_c, 0, 64, 0
2, 204404, Note_on_c, 0, 42, 61
2, 204480, Note_off_c, 0, 42, 0
2, 204480, Control_c, 0, 64, 40
2, 204484, Note_on_c, 0, 44, 60
2, 204492, Control_c, 0, 64, 72
2, 204504, Control_c, 0, 64, 104
2, 204512, Control_c, 0, 64, 127
2, 204592, Note_on_c, 0, 50, 66
2, 204600, Note_off_c, 0, 44, 0
2, 204660, Note_off_c, 0, 50, 0
2, 204676, Note_on_c, 0, 56, 60
2, 204744, Note_off_c, 0, 56, 0
2, 204780, Note_off_c, 0, 59, 0
2, 204780, Note_on_c, 0, 44, 71
2, 204780, Note_on_c, 0, 61, 76
2, 204852, Note_off_c, 0, 61, 0
2, 204864, Note_off_c, 0, 44, 0
2, 204872, Note_on_c, 0, 41, 76
2, 204948, Note_off_c, 0, 41, 0
2, 204980, Note_on_c, 0, 40, 68
2, 204996, Control_c, 0, 64, 104
2, 205008, Note_on_c, 0, 54, 74
2, 205008, Control_c, 0, 64, 72
2, 205020, Control_c, 0, 64, 40
2, 205028, Control_c, 0, 64, 0
2, 205112, Note_on_c, 0, 42, 60
2, 205128, Note_off_c, 0, 40, 0
2, 205152, Control_c, 0, 64, 40
2, 205160, Control_c, 0, 64, 88
2, 205172, Control_c, 0, 64, 127
2, 205180, Note_off_c, 0, 54, 0
2, 205180, Note_off_c, 0, 42, 0
2, 205192, Note_on_c, 0, 46, 67
2, 205268, Note_off_c, 0, 46, 0
2, 205292, Note_on_c, 0, 54, 49
2, 205300, Note_on_c, 0, 56, 62
2, 205340, Note_off_c, 0, 56, 0
2, 205376, Note_off_c, 0, 54, 0
2, 205388, Note_on_c, 0, 46, 69
2, 205460, Note_off_c, 0, 46, 0
2, 205472, Note_on_c, 0, 42, 69
2, 205576, Note_off_c, 0, 42, 0
2, 205580, Note_on_c, 0, 62, 85
2, 205580, Control_c, 0, 64, 104
2, 205588, Note_on_c, 0, 38, 66
2, 205588, Control_c, 0, 64, 72
2, 205600, Control_c, 0, 64, 24
2, 205612, Control_c, 0, 64, 0
2, 205668, Note_off_c, 0, 38, 0
2, 205680, Note_on_c, 0, 42, 42
2, 205728, Note_off_c, 0, 42, 0
2, 205732, Control_c, 0, 64, 88
2, 205744, Control_c, 0, 64, 127
2, 205752, Note_on_c, 0, 47, 66
2, 205836, Note_off_c, 0, 47, 0
2, 205844, Note_off_c, 0, 62, 0
2, 205848, Note_on_c, 0, 54, 57
2, 205876, Note_on_c, 0, 64, 78
2, 205936, Note_off_c, 0, 54, 0
2, 205944, Note_off_c, 0, 64, 0
2, 205956, Note_on_c, 0, 62, 90
2, 205960, Note_on_c, 0, 47, 63
2, 206028, Note_off_c, 0, 47, 0
2, 206060, Note_on_c, 0, 42, 55
2, 206140, Note_off_c, 0, 62, 0
2, 206160, Note_off_c, 0, 42, 0
2, 206160, Control_c, 0, 64, 104
2, 206164, Note_on_c, 0, 61, 72
2, 206172, Control_c, 0, 64, 56
2, 206176, Note_on_c, 0, 34, 54
2, 206184, Control_c, 0, 64, 0
2, 206248, Note_off_c, 0, 34, 0
2, 206268, Note_on_c, 0, 42, 58
2, 206280, Control_c, 0, 64, 56
2, 206292, Control_c, 0, 64, 127
2, 206316, Note_off_c, 0, 42, 0
2, 206376, Note_on_c, 0, 48, 47
2, 206396, Note_off_c, 0, 48, 0
2, 206460, Note_on_c, 0, 54, 60
2, 206512, Note_off_c, 0, 61, 0
2, 206552, Note_off_c, 0, 54, 0
2, 206552, Note_on_c, 0, 62, 77
2, 206568, Note_on_c, 0, 49, 57
2, 206616, Note_off_c, 0, 62, 0
2, 206632, Note_off_c, 0, 49, 0
2, 206660, Note_on_c, 0, 42, 54
2, 206740, Note_off_c, 0, 42, 0
2, 206780, Note_on_c, 0, 59, 79
2, 206800, Note_on_c, 0, 35, 68
2, 206820, Control_c, 0, 64, 104
2, 206828, Control_c, 0, 64, 24
2, 206840, Control_c, 0, 64, 0
2, 206876, Note_off_c, 0, 35, 0
2, 206888, Note_on_c, 0, 42, 55
2, 206920, Control_c, 0, 64, 56
2, 206928, Control_c, 0, 64, 127
2, 206960, Note_off_c, 0, 42, 0
2, 206972, Note_on_c, 0, 47, 70
2, 207052, Note_off_c, 0, 47, 0
2, 207068, Note_on_c, 0, 50, 61
2, 207128, Note_off_c, 0, 59, 0
2, 207136, Note_off_c, 0, 50, 0
2, 207148, Note_on_c, 0, 61, 79
2, 207156, Note_on_c, 0, 47, 58
2, 207204, Note_off_c, 0, 47, 0
2, 207240, Note_on_c, 0, 42, 57
2, 207328, Note_off_c, 0, 61, 0
2, 207348, Note_off_c, 0, 42, 0
2, 207368, Note_on_c, 0, 54, 77
2, 207376, Control_c, 0, 64, 88
2, 207380, Note_on_c, 0, 35, 57
2, 207388, Note_on_c, 0, 52, 43
2, 207388, Control_c, 0, 64, 40
2, 207400, Control_c, 0, 64, 0
2, 207456, Note_off_c, 0, 35, 0
2, 207476, Note_on_c, 0, 42, 51
2, 207488, Control_c, 0, 64, 40
2, 207500, Control_c, 0, 64, 104
2, 207508, Control_c, 0, 64, 127
2, 207512, Note_off_c, 0, 52, 0
2, 207544, Note_off_c, 0, 42, 0
2, 207552, Note_on_c, 0, 46, 60
2, 207568, Note_off_c, 0, 54, 0
2, 207628, Note_off_c, 0, 46, 0
2, 207656, Note_on_c, 0, 52, 56
2, 207732, Note_off_c, 0, 52, 0
2, 207760, Note_on_c, 0, 46, 44
2, 207804, Note_off_c, 0, 46, 0
2, 207820, Note_on_c, 0, 42, 54
2, 207912, Note_off_c, 0, 42, 0
2, 207944, Note_on_c, 0, 62, 78
2, 207948, Note_on_c, 0, 35, 60
2, 207948, Control_c, 0, 64, 88
2, 207960, Control_c, 0, 64, 40
2, 207972, Control_c, 0, 64, 0
2, 208024, Note_off_c, 0, 35, 0
2, 208036, Note_on_c, 0, 42, 54
2, 208044, Control_c, 0, 64, 40
2, 208060, Control_c, 0, 64, 88
2, 208068, Control_c, 0, 64, 127
2, 208116, Note_off_c, 0, 42, 0
2, 208120, Note_on_c, 0, 47, 74
2, 208172, Note_off_c, 0, 47, 0
2, 208180, Note_off_c, 0, 62, 0
2, 208220, Note_on_c, 0, 64, 80
2, 208228, Note_on_c, 0, 50, 53
2, 208288, Note_off_c, 0, 64, 0
2, 208300, Note_on_c, 0, 62, 89
2, 208304, Note_off_c, 0, 50, 0
2, 208320, Note_on_c, 0, 47, 61
2, 208388, Note_off_c, 0, 47, 0
2, 208400, Note_on_c, 0, 42, 60
2, 208488, Control_c, 0, 64, 88
2, 208500, Note_off_c, 0, 62, 0
2, 208500, Control_c, 0, 64, 56
2, 208504, Note_off_c, 0, 42, 0
2, 208504, Note_on_c, 0, 61, 82
2, 208508, Control_c, 0, 64, 0
2, 208528, Note_on_c, 0, 35, 40
2, 208584, Note_off_c, 0, 35, 0
2, 208604, Note_on_c, 0, 42, 57
2, 208616, Control_c, 0, 64, 40
2, 208628, Control_c, 0, 64, 88
2, 208640, Control_c, 0, 64, 127
2, 208672, Note_on_c, 0, 46, 64
2, 208676, Note_off_c, 0, 42, 0
2, 208752, Note_off_c, 0, 46, 0
2, 208780, Note_on_c, 0, 52, 58
2, 208852, Note_off_c, 0, 61, 0
2, 208856, Note_off_c, 0, 52, 0
2, 208868, Note_on_c, 0, 62, 86
2, 208884, Note_on_c, 0, 46, 54
2, 208960, Note_off_c, 0, 46, 0
2, 208960, Note_on_c, 0, 42, 60
2, 209056, Note_off_c, 0, 62, 0
2, 209056, Note_on_c, 0, 59, 75
2, 209060, Note_off_c, 0, 42, 0
2, 209076, Control_c, 0, 64, 88
2, 209080, Note_on_c, 0, 35, 59
2, 209088, Control_c, 0, 64, 40
2, 209100, Control_c, 0, 64, 0
2, 209160, Note_off_c, 0, 35, 0
2, 209168, Note_on_c, 0, 42, 53
2, 209188, Control_c, 0, 64, 72
2, 209200, Control_c, 0, 64, 104
2, 209208, Control_c, 0, 64, 127
2, 209260, Note_on_c, 0, 47, 64
2, 209264, Note_off_c, 0, 42, 0
2, 209316, Note_off_c, 0, 47, 0
2, 209368, Note_on_c, 0, 54, 62
2, 209436, Note_off_c, 0, 54, 0
2, 209464, Note_on_c, 0, 50, 62
2, 209468, Note_on_c, 0, 67, 84
2, 209504, Note_off_c, 0, 59, 0
2, 209540, Note_off_c, 0, 50, 0
2, 209568, Note_on_c, 0, 47, 49
2, 209636, Note_off_c, 0, 47, 0
2, 209664, Note_off_c, 0, 67, 0
2, 209696, Note_on_c, 0, 66, 79
2, 209696, Note_on_c, 0, 46, 53
2, 209704, Control_c, 0, 64, 88
2, 209716, Control_c, 0, 64, 40
2, 209724, Control_c, 0, 64, 0
2, 209800, Note_off_c, 0, 46, 0
2, 209800, Note_on_c, 0, 49, 60
2, 209824, Control_c, 0, 64, 40
2, 209836, Control_c, 0, 64, 104
2, 209848, Control_c, 0, 64, 127
2, 209880, Note_off_c, 0, 49, 0
2, 209896, Note_on_c, 0, 54, 51
2, 209952, Note_off_c, 0, 54, 0
2, 209972, Note_on_c, 0, 61, 49
2, 210052, Note_off_c, 0, 61, 0
2, 210080, Note_on_c, 0, 54, 46
2, 210152, Note_off_c, 0, 54, 0
2, 210152, Note_on_c, 0, 49, 51
2, 210240, Note_off_c, 0, 49, 0
2, 210252, Note_on_c, 0, 45, 76
2, 210284, Control_c, 0, 64, 104
2, 210300, Control_c, 0, 64, 56
2, 210308, Control_c, 0, 64, 0
2, 210344, Note_on_c, 0, 51, 64
2, 210348, Note_off_c, 0, 45, 0
2, 210384, Control_c, 0, 64, 24
2, 210396, Control_c, 0, 64, 88
2, 210408, Note_off_c, 0, 51, 0
2, 210408, Control_c, 0, 64, 127
2, 210424, Note_on_c, 0, 54, 57
2, 210500, Note_off_c, 0, 54, 0
2, 210520, Note_on_c, 0, 60, 60
2, 210584, Note_off_c, 0, 60, 0
2, 210624, Note_on_c, 0, 54, 49
2, 210656, Note_off_c, 0, 66, 0
2, 210700, Note_off_c, 0, 54, 0
2, 210704, Note_on_c, 0, 51, 55
2, 210772, Note_off_c, 0, 51, 0
2, 210812, Note_on_c, 0, 65, 82
2, 210824, Note_on_c, 0, 44, 51
2, 210824, Control_c, 0, 64, 104
2, 210836, Control_c, 0, 64, 72
2, 210848, Control_c, 0, 64, 24
2, 210856, Control_c, 0, 64, 0
2, 210908, Note_off_c, 0, 44, 0
2, 210912, Note_on_c, 0, 49, 55
2, 210944, Control_c, 0, 64, 56
2, 210956, Control_c, 0, 64, 104
2, 210968, Control_c, 0, 64, 127
2, 210972, Note_off_c, 0, 49, 0
2, 210988, Note_on_c, 0, 53, 57
2, 211064, Note_off_c, 0, 65, 0
2, 211064, Note_off_c, 0, 53, 0
2, 211092, Note_on_c, 0, 59, 39
2, 211152, Note_off_c, 0, 59, 0
2, 211176, Note_on_c, 0, 71, 86
2, 211180, Note_on_c, 0, 65, 83
2, 211200, Note_on_c, 0, 53, 42
2, 211244, Note_off_c, 0, 53, 0
2, 211264, Note_on_c, 0, 49, 57
2, 211360, Note_off_c, 0, 65, 0
2, 211360, Note_off_c, 0, 49, 0
2, 211368, Note_on_c, 0, 64, 79
2, 211384, Control_c, 0, 64, 104
2, 211396, Control_c, 0, 64, 88
2, 211404, Control_c, 0, 64, 56
2, 211416, Note_on_c, 0, 43, 24
2, 211416, Control_c, 0, 64, 24
2, 211428, Control_c, 0, 64, 0
2, 211468, Note_on_c, 0, 49, 60
2, 211480, Note_off_c, 0, 43, 0
2, 211516, Control_c, 0, 64, 56
2, 211524, Control_c, 0, 64, 104
2, 211536, Control_c, 0, 64, 127
2, 211540, Note_off_c, 0, 49, 0
2, 211544, Note_on_c, 0, 52, 62
2, 211608, Note_off_c, 0, 71, 0
2, 211628, Note_off_c, 0, 52, 0
2, 211636, Note_off_c, 0, 64, 0
2, 211644, Note_on_c, 0, 59, 55
2, 211716, Note_off_c, 0, 59, 0
2, 211728, Note_on_c, 0, 71, 78
2, 211732, Note_on_c, 0, 64, 74
2, 211744, Note_on_c, 0, 52, 47
2, 211804, Note_off_c, 0, 52, 0
2, 211812, Note_on_c, 0, 49, 61
2, 211888, Note_off_c, 0, 49, 0
2, 211900, Note_off_c, 0, 64, 0
2, 211920, Note_on_c, 0, 63, 76
2, 211932, Note_off_c, 0, 71, 0
2, 211932, Control_c, 0, 64, 104
2, 211936, Note_on_c, 0, 42, 57
2, 211940, Control_c, 0, 64, 56
2, 211952, Control_c, 0, 64, 0
2, 212020, Note_off_c, 0, 42, 0
2, 212036, Note_on_c, 0, 47, 50
2, 212040, Control_c, 0, 64, 56
2, 212052, Control_c, 0, 64, 104
2, 212064, Note_off_c, 0, 47, 0
2, 212064, Control_c, 0, 64, 127
2, 212112, Note_on_c, 0, 54, 53
2, 212136, Note_off_c, 0, 63, 0
2, 212188, Note_off_c, 0, 54, 0
2, 212264, Note_on_c, 0, 71, 76
2, 212264, Note_on_c, 0, 63, 69
2, 212300, Note_on_c, 0, 54, 47
2, 212388, Note_off_c, 0, 54, 0
2, 212400, Note_on_c, 0, 47, 45
2, 212424, Note_off_c, 0, 47, 0
2, 212472, Note_off_c, 0, 71, 0
2, 212472, Note_on_c, 0, 62, 86
2, 212476, Note_off_c, 0, 63, 0
2, 212480, Control_c, 0, 64, 104
2, 212492, Control_c, 0, 64, 56
2, 212500, Note_on_c, 0, 41, 66
2, 212500, Control_c, 0, 64, 0
2, 212568, Note_off_c, 0, 41, 0
2, 212576, Note_on_c, 0, 43, 63
2, 212588, Control_c, 0, 64, 72
2, 212600, Control_c, 0, 64, 104
2, 212612, Control_c, 0, 64, 127
2, 212648, Note_off_c, 0, 62, 0
2, 212656, Note_off_c, 0, 43, 0
2, 212656, Note_on_c, 0, 47, 62
2, 212712, Note_off_c, 0, 47, 0
2, 212744, Note_on_c, 0, 55, 58
2, 212820, Note_off_c, 0, 55, 0
2, 212828, Note_on_c, 0, 67, 81
2, 212828, Note_on_c, 0, 62, 69
2, 212860, Note_on_c, 0, 47, 47
2, 212932, Note_on_c, 0, 43, 60
2, 212936, Note_off_c, 0, 47, 0
2, 213004, Note_off_c, 0, 62, 0
2, 213024, Note_off_c, 0, 43, 0
2, 213032, Note_on_c, 0, 59, 74
2, 213056, Note_on_c, 0, 40, 38
2, 213064, Control_c, 0, 64, 88
2, 213072, Control_c, 0, 64, 24
2, 213084, Control_c, 0, 64, 0
2, 213148, Note_off_c, 0, 40, 0
2, 213152, Note_on_c, 0, 43, 64
2, 213184, Control_c, 0, 64, 88
2, 213196, Control_c, 0, 64, 127
2, 213240, Note_on_c, 0, 48, 70
2, 213244, Note_off_c, 0, 43, 0
2, 213252, Note_off_c, 0, 67, 0
2, 213312, Note_off_c, 0, 48, 0
2, 213328, Note_off_c, 0, 59, 0
2, 213332, Note_on_c, 0, 55, 51
2, 213408, Note_off_c, 0, 55, 0
2, 213424, Note_on_c, 0, 48, 56
2, 213428, Note_on_c, 0, 67, 70
2, 213428, Note_on_c, 0, 60, 71
2, 213504, Note_on_c, 0, 43, 50
2, 213516, Note_off_c, 0, 48, 0
2, 213544, Note_off_c, 0, 60, 0
2, 213564, Note_off_c, 0, 43, 0
2, 213616, Note_off_c, 0, 67, 0
2, 213632, Note_on_c, 0, 64, 82
2, 213632, Note_on_c, 0, 42, 71
2, 213656, Control_c, 0, 64, 72
2, 213664, Control_c, 0, 64, 0
2, 213724, Note_off_c, 0, 42, 0
2, 213744, Note_on_c, 0, 48, 39
2, 213764, Control_c, 0, 64, 40
2, 213772, Note_off_c, 0, 48, 0
2, 213772, Control_c, 0, 64, 104
2, 213784, Control_c, 0, 64, 127
2, 213796, Note_on_c, 0, 52, 72
2, 213896, Note_on_c, 0, 54, 53
2, 213900, Note_off_c, 0, 52, 0
2, 213980, Note_off_c, 0, 64, 0
2, 213992, Note_on_c, 0, 58, 75
2, 214000, Note_off_c, 0, 54, 0
2, 214000, Note_on_c, 0, 66, 71
2, 214000, Note_on_c, 0, 52, 63
2, 214092, Note_off_c, 0, 52, 0
2, 214096, Note_on_c, 0, 49, 62
2, 214120, Note_off_c, 0, 49, 0
2, 214164, Note_off_c, 0, 58, 0
2, 214224, Note_off_c, 0, 66, 0
2, 214228, Note_on_c, 0, 59, 78
2, 214228, Note_on_c, 0, 35, 53
2, 214232, Control_c, 0, 64, 88
2, 214244, Control_c, 0, 64, 0
2, 214256, Control_c, 0, 64, 0
2, 214276, Control_c, 0, 64, 0
2, 214276, Control_c, 0, 64, 72
2, 214284, Control_c, 0, 64, 127
2, 214456, Note_on_c, 0, 54, 59
2, 214536, Note_off_c, 0, 54, 0
2, 214548, Note_off_c, 0, 35, 0
2, 214552, Note_on_c, 0, 62, 58
2, 214592, Note_off_c, 0, 62, 0
2, 214600, Note_off_c, 0, 59, 0
2, 214636, Note_on_c, 0, 78, 85
2, 214636, Note_on_c, 0, 66, 71
2, 214668, Note_on_c, 0, 59, 42
2, 214736, Note_off_c, 0, 66, 0
2, 214740, Note_off_c, 0, 59, 0
2, 214752, Note_on_c, 0, 54, 57
2, 214756, Note_off_c, 0, 78, 0
2, 214820, Note_off_c, 0, 54, 0
2, 214828, Control_c, 0, 64, 104
2, 214840, Control_c, 0, 64, 24
2, 214848, Note_on_c, 0, 79, 85
2, 214852, Note_on_c, 0, 67, 74
2, 214852, Control_c, 0, 64, 0
2, 214880, Note_on_c, 0, 47, 57
2, 214944, Note_off_c, 0, 47, 0
2, 214960, Note_on_c, 0, 52, 68
2, 214964, Control_c, 0, 64, 127
2, 215032, Note_off_c, 0, 79, 0
2, 215032, Note_off_c, 0, 52, 0
2, 215048, Note_off_c, 0, 67, 0
2, 215056, Note_on_c, 0, 55, 68
2, 215056, Note_on_c, 0, 76, 68
2, 215068, Note_on_c, 0, 73, 37
2, 215092, Note_off_c, 0, 73, 0
2, 215108, Note_off_c, 0, 55, 0
2, 215108, Note_off_c, 0, 76, 0
2, 215132, Note_on_c, 0, 64, 64
2, 215220, Note_off_c, 0, 64, 0
2, 215248, Note_on_c, 0, 82, 85
2, 215248, Note_on_c, 0, 55, 72
2, 215248, Note_on_c, 0, 70, 77
2, 215308, Note_off_c, 0, 70, 0
2, 215328, Note_off_c, 0, 55, 0
2, 215348, Note_on_c, 0, 52, 66
2, 215372, Note_off_c, 0, 82, 0
2, 215448, Note_off_c, 0, 52, 0
2, 215448, Control_c, 0, 64, 72
2, 215456, Note_on_c, 0, 47, 68
2, 215456, Control_c, 0, 64, 0
2, 215460, Note_on_c, 0, 71, 69
2, 215460, Note_on_c, 0, 83, 79
2, 215524, Note_off_c, 0, 47, 0
2, 215552, Control_c, 0, 64, 56
2, 215556, Note_on_c, 0, 54, 69
2, 215564, Control_c, 0, 64, 127
2, 215620, Note_off_c, 0, 54, 0
2, 215624, Note_off_c, 0, 83, 0
2, 215636, Note_on_c, 0, 59, 74
2, 215640, Note_off_c, 0, 71, 0
2, 215652, Note_on_c, 0, 74, 68
2, 215704, Note_off_c, 0, 59, 0
2, 215716, Note_off_c, 0, 74, 0
2, 215736, Note_on_c, 0, 62, 67
2, 215800, Note_off_c, 0, 62, 0
2, 215832, Note_on_c, 0, 59, 59
2, 215836, Note_on_c, 0, 78, 88
2, 215840, Note_on_c, 0, 66, 68
2, 215888, Note_off_c, 0, 59, 0
2, 215916, Note_off_c, 0, 66, 0
2, 215916, Note_on_c, 0, 54, 56
2, 215940, Note_off_c, 0, 78, 0
2, 215976, Note_off_c, 0, 54, 0
2, 216000, Control_c, 0, 64, 104
2, 216012, Control_c, 0, 64, 56
2, 216024, Control_c, 0, 64, 0
2, 216032, Note_on_c, 0, 79, 89
2, 216036, Note_on_c, 0, 67, 74
2, 216060, Note_on_c, 0, 47, 58
2, 216120, Note_off_c, 0, 47, 0
2, 216136, Note_on_c, 0, 52, 60
2, 216140, Control_c, 0, 64, 104
2, 216152, Control_c, 0, 64, 127
2, 216200, Note_off_c, 0, 52, 0
2, 216216, Note_off_c, 0, 67, 0
2, 216220, Note_off_c, 0, 79, 0
2, 216232, Note_on_c, 0, 55, 57
2, 216240, Note_on_c, 0, 76, 63
2, 216248, Note_on_c, 0, 73, 45
2, 216272, Note_off_c, 0, 73, 0
2, 216276, Note_off_c, 0, 55, 0
2, 216288, Note_off_c, 0, 76, 0
2, 216300, Note_on_c, 0, 64, 60
2, 216372, Note_off_c, 0, 64, 0
2, 216412, Note_on_c, 0, 55, 59
2, 216420, Note_on_c, 0, 82, 93
2, 216420, Note_on_c, 0, 70, 83
2, 216484, Note_off_c, 0, 55, 0
2, 216532, Note_on_c, 0, 52, 21
2, 216540, Note_off_c, 0, 70, 0
2, 216576, Note_off_c, 0, 82, 0
2, 216612, Note_off_c, 0, 52, 0
2, 216644, Note_on_c, 0, 47, 58
2, 216644, Note_on_c, 0, 83, 86
2, 216644, Control_c, 0, 64, 88
2, 216648, Note_on_c, 0, 71, 74
2, 216656, Control_c, 0, 64, 24
2, 216664, Control_c, 0, 64, 0
2, 216712, Note_off_c, 0, 47, 0
2, 216740, Note_on_c, 0, 54, 58
2, 216748, Control_c, 0, 64, 56
2, 216760, Control_c, 0, 64, 127
2, 216808, Note_off_c, 0, 54, 0
2, 216828, Note_off_c, 0, 83, 0
2, 216828, Note_on_c, 0, 59, 64
2, 216836, Note_on_c, 0, 78, 62
2, 216840, Note_on_c, 0, 74, 60
2, 216856, Note_off_c, 0, 71, 0
2, 216892, Note_off_c, 0, 59, 0
2, 216896, Note_off_c, 0, 74, 0
2, 216928, Note_on_c, 0, 62, 53
2, 216972, Note_off_c, 0, 78, 0
2, 217000, Note_off_c, 0, 62, 0
2, 217024, Note_on_c, 0, 83, 88
2, 217024, Note_on_c, 0, 71, 75
2, 217024, Note_on_c, 0, 59, 56
2, 217120, Note_on_c, 0, 54, 61
2, 217124, Note_off_c, 0, 59, 0
2, 217204, Note_off_c, 0, 71, 0
2, 217220, Note_off_c, 0, 83, 0
2, 217220, Note_off_c, 0, 54, 0
2, 217228, Note_on_c, 0, 79, 76
2, 217236, Note_on_c, 0, 76, 65
2, 217244, Control_c, 0, 64, 72
2, 217248, Note_on_c, 0, 52, 62
2, 217252, Control_c, 0, 64, 0
2, 217312, Note_off_c, 0, 52, 0
2, 217332, Note_on_c, 0, 55, 59
2, 217356, Control_c, 0, 64, 88
2, 217368, Control_c, 0, 64, 127
2, 217388, Note_off_c, 0, 76, 0
2, 217392, Note_off_c, 0, 79, 0
2, 217416, Note_on_c, 0, 82, 73
2, 217420, Note_off_c, 0, 55, 0
2, 217420, Note_on_c, 0, 70, 68
2, 217432, Note_on_c, 0, 59, 63
2, 217496, Note_off_c, 0, 70, 0
2, 217512, Note_off_c, 0, 59, 0
2, 217532, Note_on_c, 0, 64, 60
2, 217556, Note_off_c, 0, 82, 0
2, 217588, Note_on_c, 0, 83, 88
2, 217588, Note_on_c, 0, 71, 77
2, 217624, Note_off_c, 0, 64, 0
2, 217632, Note_on_c, 0, 59, 54
2, 217644, Note_off_c, 0, 71, 0
2, 217680, Note_off_c, 0, 83, 0
2, 217704, Note_on_c, 0, 55, 59
2, 217708, Note_off_c, 0, 59, 0
2, 217804, Note_on_c, 0, 86, 85
2, 217804, Note_on_c, 0, 74, 75
2, 217804, Control_c, 0, 64, 88
2, 217808, Note_off_c, 0, 55, 0
2, 217816, Control_c, 0, 64, 0
2, 217844, Note_on_c, 0, 50, 61
2, 217892, Note_off_c, 0, 50, 0
2, 217920, Note_on_c, 0, 57, 52
2, 217920, Control_c, 0, 64, 72
2, 217932, Control_c, 0, 64, 127
2, 217964, Note_off_c, 0, 74, 0
2, 217976, Note_off_c, 0, 57, 0
2, 217992, Note_on_c, 0, 81, 64
2, 217996, Note_on_c, 0, 78, 43
2, 218000, Note_on_c, 0, 62, 45
2, 218072, Note_off_c, 0, 62, 0
2, 218088, Note_off_c, 0, 78, 0
2, 218088, Note_on_c, 0, 66, 63
2, 218148, Note_off_c, 0, 81, 0
2, 218168, Note_off_c, 0, 66, 0
2, 218172, Note_on_c, 0, 62, 57
2, 218176, Note_on_c, 0, 74, 72
2, 218264, Note_off_c, 0, 62, 0
2, 218272, Note_on_c, 0, 57, 60
2, 218364, Note_off_c, 0, 57, 0
2, 218372, Note_on_c, 0, 82, 61
2, 218388, Note_on_c, 0, 79, 56
2, 218388, Note_on_c, 0, 55, 56
2, 218392, Control_c, 0, 64, 104
2, 218400, Note_off_c, 0, 74, 0
2, 218400, Control_c, 0, 64, 56
2, 218412, Control_c, 0, 64, 0
2, 218468, Note_off_c, 0, 55, 0
2, 218484, Note_on_c, 0, 58, 47
2, 218504, Control_c, 0, 64, 72
2, 218516, Control_c, 0, 64, 127
2, 218540, Note_off_c, 0, 79, 0
2, 218548, Note_off_c, 0, 58, 0
2, 218552, Note_off_c, 0, 82, 0
2, 218568, Note_on_c, 0, 74, 65
2, 218568, Note_on_c, 0, 62, 54
2, 218632, Note_off_c, 0, 62, 0
2, 218652, Note_on_c, 0, 70, 54
2, 218708, Note_off_c, 0, 70, 0
2, 218712, Note_off_c, 0, 74, 0
2, 218748, Note_on_c, 0, 82, 51
2, 218756, Note_on_c, 0, 79, 55
2, 218756, Note_on_c, 0, 62, 38
2, 218796, Note_off_c, 0, 62, 0
2, 218820, Note_on_c, 0, 58, 42
2, 218892, Note_off_c, 0, 79, 0
2, 218912, Note_off_c, 0, 58, 0
2, 218916, Note_off_c, 0, 82, 0
2, 218948, Note_on_c, 0, 74, 63
2, 218952, Control_c, 0, 64, 88
2, 218960, Note_on_c, 0, 50, 63
2, 218964, Control_c, 0, 64, 0
2, 219028, Note_off_c, 0, 50, 0
2, 219032, Control_c, 0, 64, 40
2, 219044, Control_c, 0, 64, 88
2, 219056, Control_c, 0, 64, 127
2, 219060, Note_on_c, 0, 57, 42
2, 219096, Note_off_c, 0, 57, 0
2, 219116, Note_on_c, 0, 62, 66
2, 219128, Note_off_c, 0, 86, 0
2, 219132, Note_off_c, 0, 74, 0
2, 219132, Note_on_c, 0, 78, 45
2, 219132, Note_on_c, 0, 81, 58
2, 219160, Note_off_c, 0, 81, 0
2, 219180, Note_off_c, 0, 78, 0
2, 219208, Note_off_c, 0, 62, 0
2, 219220, Note_on_c, 0, 66, 62
2, 219288, Note_off_c, 0, 66, 0
2, 219304, Note_on_c, 0, 81, 82
2, 219304, Note_on_c, 0, 62, 54
2, 219308, Note_on_c, 0, 69, 70
2, 219352, Note_off_c, 0, 69, 0
2, 219376, Note_off_c, 0, 81, 0
2, 219388, Note_off_c, 0, 62, 0
2, 219392, Note_on_c, 0, 57, 57
2, 219420, Note_off_c, 0, 57, 0
2, 219500, Note_on_c, 0, 70, 71
2, 219504, Note_on_c, 0, 82, 81
2, 219504, Control_c, 0, 64, 88
2, 219516, Control_c, 0, 64, 24
2, 219524, Note_on_c, 0, 50, 65
2, 219528, Control_c, 0, 64, 0
2, 219580, Note_off_c, 0, 50, 0
2, 219584, Control_c, 0, 64, 40
2, 219596, Control_c, 0, 64, 104
2, 219612, Note_on_c, 0, 55, 63
2, 219612, Control_c, 0, 64, 127
2, 219656, Note_off_c, 0, 70, 0
2, 219664, Note_off_c, 0, 55, 0
2, 219676, Note_off_c, 0, 82, 0
2, 219696, Note_on_c, 0, 79, 66
2, 219696, Note_on_c, 0, 58, 51
2, 219708, Note_on_c, 0, 76, 51
2, 219728, Note_off_c, 0, 76, 0
2, 219748, Note_off_c, 0, 79, 0
2, 219756, Note_off_c, 0, 58, 0
2, 219784, Note_on_c, 0, 67, 62
2, 219856, Note_off_c, 0, 67, 0
2, 219880, Note_on_c, 0, 58, 59
2, 219888, Note_on_c, 0, 85, 83
2, 219888, Note_on_c, 0, 73, 70
2, 219960, Note_off_c, 0, 58, 0
2, 219964, Note_off_c, 0, 73, 0
2, 219988, Note_off_c, 0, 85, 0
2, 220004, Note_on_c, 0, 55, 17
2, 220064, Note_off_c, 0, 55, 0
2, 220084, Note_on_c, 0, 50, 67
2, 220088, Note_on_c, 0, 86, 80
2, 220092, Note_on_c, 0, 74, 70
2, 220092, Control_c, 0, 64, 72
2, 220104, Control_c, 0, 64, 0
2, 220160, Note_off_c, 0, 50, 0
2, 220184, Note_on_c, 0, 57, 64
2, 220184, Control_c, 0, 64, 72
2, 220196, Control_c, 0, 64, 127
2, 220232, Note_off_c, 0, 57, 0
2, 220248, Note_off_c, 0, 74, 0
2, 220264, Note_on_c, 0, 62, 37
2, 220268, Note_off_c, 0, 86, 0
2, 220268, Note_on_c, 0, 78, 53
2, 220272, Note_on_c, 0, 81, 64
2, 220324, Note_off_c, 0, 81, 0
2, 220328, Note_off_c, 0, 78, 0
2, 220348, Note_off_c, 0, 62, 0
2, 220360, Note_on_c, 0, 66, 62
2, 220432, Note_off_c, 0, 66, 0
2, 220456, Note_on_c, 0, 81, 78
2, 220460, Note_on_c, 0, 69, 65
2, 220460, Note_on_c, 0, 62, 60
2, 220512, Note_off_c, 0, 69, 0
2, 220528, Note_off_c, 0, 81, 0
2, 220544, Note_off_c, 0, 62, 0
2, 220552, Note_on_c, 0, 57, 52
2, 220580, Note_off_c, 0, 57, 0
2, 220656, Note_on_c, 0, 82, 80
2, 220656, Control_c, 0, 64, 72
2, 220660, Note_on_c, 0, 70, 73
2, 220664, Control_c, 0, 64, 0
2, 220688, Note_on_c, 0, 50, 61
2, 220748, Note_off_c, 0, 50, 0
2, 220748, Control_c, 0, 64, 88
2, 220760, Control_c, 0, 64, 127
2, 220776, Note_on_c, 0, 55, 62
2, 220796, Note_off_c, 0, 70, 0
2, 220812, Note_off_c, 0, 82, 0
2, 220828, Note_off_c, 0, 55, 0
2, 220840, Note_on_c, 0, 79, 67
2, 220852, Note_on_c, 0, 76, 54
2, 220856, Note_on_c, 0, 58, 57
2, 220872, Note_off_c, 0, 76, 0
2, 220896, Note_off_c, 0, 79, 0
2, 220916, Note_off_c, 0, 58, 0
2, 220952, Note_on_c, 0, 67, 62
2, 221020, Note_off_c, 0, 67, 0
2, 221040, Note_on_c, 0, 85, 88
2, 221044, Note_on_c, 0, 73, 77
2, 221052, Note_on_c, 0, 58, 55
2, 221128, Note_off_c, 0, 73, 0
2, 221144, Note_off_c, 0, 58, 0
2, 221148, Note_on_c, 0, 55, 64
2, 221152, Note_off_c, 0, 85, 0
2, 221232, Note_off_c, 0, 55, 0
2, 221244, Note_on_c, 0, 86, 86
2, 221244, Control_c, 0, 64, 72
2, 221248, Note_on_c, 0, 74, 75
2, 221252, Note_on_c, 0, 50, 74
2, 221252, Control_c, 0, 64, 0
2, 221312, Note_off_c, 0, 50, 0
2, 221332, Control_c, 0, 64, 88
2, 221344, Control_c, 0, 64, 127
2, 221412, Note_off_c, 0, 86, 0
2, 221416, Note_off_c, 0, 74, 0
2, 221436, Note_on_c, 0, 62, 79
2, 221448, Note_on_c, 0, 78, 52
2, 221448, Note_on_c, 0, 81, 64
2, 221496, Note_off_c, 0, 62, 0
2, 221536, Note_on_c, 0, 66, 72
2, 221572, Note_off_c, 0, 78, 0
2, 221592, Note_off_c, 0, 81, 0
2, 221608, Note_off_c, 0, 66, 0
2, 221616, Note_on_c, 0, 86, 83
2, 221620, Note_on_c, 0, 62, 67
2, 221620, Note_on_c, 0, 74, 74
2, 221712, Note_off_c, 0, 62, 0
2, 221720, Note_on_c, 0, 57, 66
2, 221776, Note_off_c, 0, 86, 0
2, 221800, Note_off_c, 0, 74, 0
2, 221804, Control_c, 0, 64, 104
2, 221812, Note_off_c, 0, 57, 0
2, 221816, Note_on_c, 0, 83, 82
2, 221816, Control_c, 0, 64, 40
2, 221828, Note_on_c, 0, 79, 60
2, 221828, Control_c, 0, 64, 0
2, 221840, Note_on_c, 0, 55, 60
2, 221896, Control_c, 0, 64, 40
2, 221900, Note_off_c, 0, 55, 0
2, 221908, Control_c, 0, 64, 127
2, 221916, Note_on_c, 0, 59, 52
2, 221932, Note_off_c, 0, 79, 0
2, 221948, Note_off_c, 0, 83, 0
2, 221988, Note_off_c, 0, 59, 0
2, 221996, Note_on_c, 0, 85, 90
2, 221996, Note_on_c, 0, 73, 81
2, 222012, Note_on_c, 0, 62, 57
2, 222052, Note_off_c, 0, 62, 0
2, 222084, Note_off_c, 0, 73, 0
2, 222092, Note_on_c, 0, 71, 36
2, 222096, Note_on_c, 0, 69, 30
2, 222100, Note_off_c, 0, 85, 0
2, 222140, Note_off_c, 0, 69, 0
2, 222160, Note_off_c, 0, 71, 0
2, 222168, Note_on_c, 0, 86, 92
2, 222168, Note_on_c, 0, 74, 82
2, 222172, Note_on_c, 0, 62, 56
2, 222212, Note_off_c, 0, 74, 0
2, 222244, Note_off_c, 0, 86, 0
2, 222252, Note_off_c, 0, 62, 0
2, 222256, Note_on_c, 0, 59, 44
2, 222352, Note_off_c, 0, 59, 0
2, 222376, Note_on_c, 0, 78, 79
2, 222376, Note_on_c, 0, 90, 85
2, 222384, Note_on_c, 0, 54, 67
2, 222404, Control_c, 0, 64, 40
2, 222412, Control_c, 0, 64, 0
2, 222476, Note_off_c, 0, 54, 0
2, 222480, Note_on_c, 0, 61, 58
2, 222484, Control_c, 0, 64, 40
2, 222492, Control_c, 0, 64, 104
2, 222500, Note_off_c, 0, 78, 0
2, 222504, Control_c, 0, 64, 127
2, 222552, Note_off_c, 0, 61, 0
2, 222564, Note_on_c, 0, 85, 58
2, 222568, Note_on_c, 0, 82, 48
2, 222576, Note_on_c, 0, 64, 58
2, 222648, Note_off_c, 0, 64, 0
2, 222656, Note_off_c, 0, 85, 0
2, 222668, Note_on_c, 0, 70, 56
2, 222692, Note_off_c, 0, 82, 0
2, 222748, Note_off_c, 0, 70, 0
2, 222752, Note_on_c, 0, 78, 58
2, 222764, Note_on_c, 0, 64, 55
2, 222816, Note_off_c, 0, 64, 0
2, 222820, Note_on_c, 0, 61, 53
2, 222916, Note_off_c, 0, 61, 0
2, 222924, Note_on_c, 0, 58, 58
2, 222940, Control_c, 0, 64, 104
2, 222944, Note_off_c, 0, 58, 0
2, 222956, Note_on_c, 0, 59, 68
2, 222956, Control_c, 0, 64, 56
2, 222960, Note_on_c, 0, 86, 62
2, 222964, Note_off_c, 0, 78, 0
2, 222964, Control_c, 0, 64, 0
2, 222976, Note_on_c, 0, 83, 46
2, 223008, Note_off_c, 0, 83, 0
2, 223016, Note_off_c, 0, 59, 0
2, 223044, Note_on_c, 0, 62, 57
2, 223048, Control_c, 0, 64, 72
2, 223056, Control_c, 0, 64, 127
2, 223108, Note_off_c, 0, 86, 0
2, 223124, Note_off_c, 0, 62, 0
2, 223132, Note_on_c, 0, 66, 51
2, 223136, Note_on_c, 0, 78, 62
2, 223176, Note_off_c, 0, 66, 0
2, 223220, Note_on_c, 0, 74, 36
2, 223232, Note_on_c, 0, 72, 25
2, 223252, Note_off_c, 0, 72, 0
2, 223268, Note_off_c, 0, 74, 0
2, 223312, Note_on_c, 0, 66, 61
2, 223320, Note_on_c, 0, 86, 59
2, 223332, Note_on_c, 0, 83, 49
2, 223348, Note_off_c, 0, 78, 0
2, 223404, Note_off_c, 0, 66, 0
2, 223408, Note_on_c, 0, 62, 58
2, 223464, Note_off_c, 0, 62, 0
2, 223484, Note_off_c, 0, 83, 0
2, 223492, Note_off_c, 0, 86, 0
2, 223512, Note_on_c, 0, 78, 67
2, 223512, Note_on_c, 0, 58, 65
2, 223528, Control_c, 0, 64, 72
2, 223540, Control_c, 0, 64, 0
2, 223600, Note_off_c, 0, 58, 0
2, 223608, Note_on_c, 0, 61, 55
2, 223624, Control_c, 0, 64, 88
2, 223632, Control_c, 0, 64, 127
2, 223696, Note_off_c, 0, 61, 0
2, 223700, Note_on_c, 0, 66, 58
2, 223704, Note_on_c, 0, 85, 62
2, 223712, Note_on_c, 0, 82, 44
2, 223720, Note_off_c, 0, 90, 0
2, 223740, Note_off_c, 0, 78, 0
2, 223764, Note_off_c, 0, 85, 0
2, 223764, Note_off_c, 0, 82, 0
2, 223772, Note_off_c, 0, 66, 0
2, 223796, Note_on_c, 0, 73, 57
2, 223848, Note_off_c, 0, 73, 0
2, 223880, Note_on_c, 0, 66, 58
2, 223888, Note_on_c, 0, 85, 90
2, 223888, Note_on_c, 0, 73, 79
2, 223972, Note_off_c, 0, 66, 0
2, 223980, Note_on_c, 0, 61, 54
2, 224012, Note_off_c, 0, 73, 0
2, 224020, Note_off_c, 0, 85, 0
2, 224064, Note_off_c, 0, 61, 0
2, 224080, Note_on_c, 0, 86, 88
2, 224084, Note_on_c, 0, 74, 82
2, 224104, Control_c, 0, 64, 88
2, 224108, Note_on_c, 0, 57, 64
2, 224116, Control_c, 0, 64, 24
2, 224124, Control_c, 0, 64, 0
2, 224172, Note_off_c, 0, 57, 0
2, 224184, Control_c, 0, 64, 72
2, 224196, Note_on_c, 0, 59, 47
2, 224196, Control_c, 0, 64, 127
2, 224240, Note_off_c, 0, 86, 0
2, 224272, Note_off_c, 0, 59, 0
2, 224280, Note_on_c, 0, 66, 61
2, 224284, Note_off_c, 0, 74, 0
2, 224296, Note_on_c, 0, 78, 32
2, 224296, Note_on_c, 0, 83, 53
2, 224316, Note_off_c, 0, 78, 0
2, 224316, Note_off_c, 0, 83, 0
2, 224352, Note_off_c, 0, 66, 0
2, 224412, Note_on_c, 0, 71, 18
2, 224448, Note_off_c, 0, 71, 0
2, 224456, Note_on_c, 0, 87, 89
2, 224460, Note_on_c, 0, 75, 81
2, 224484, Note_on_c, 0, 66, 56
2, 224564, Note_off_c, 0, 66, 0
2, 224568, Note_off_c, 0, 75, 0
2, 224572, Note_on_c, 0, 59, 55
2, 224576, Note_off_c, 0, 87, 0
2, 224664, Note_off_c, 0, 59, 0
2, 224664, Note_on_c, 0, 88, 82
2, 224668, Note_on_c, 0, 76, 72
2, 224692, Note_on_c, 0, 56, 63
2, 224704, Control_c, 0, 64, 88
2, 224712, Control_c, 0, 64, 24
2, 224724, Control_c, 0, 64, 0
2, 224784, Note_off_c, 0, 56, 0
2, 224792, Control_c, 0, 64, 40
2, 224800, Note_on_c, 0, 59, 53
2, 224804, Control_c, 0, 64, 104
2, 224816, Control_c, 0, 64, 127
2, 224848, Note_off_c, 0, 76, 0
2, 224864, Note_on_c, 0, 83, 58
2, 224872, Note_on_c, 0, 80, 39
2, 224892, Note_off_c, 0, 59, 0
2, 224900, Note_on_c, 0, 64, 62
2, 224960, Note_off_c, 0, 64, 0
2, 224980, Note_on_c, 0, 71, 45
2, 225004, Note_off_c, 0, 83, 0
2, 225012, Note_off_c, 0, 80, 0
2, 225040, Note_on_c, 0, 76, 64
2, 225072, Note_off_c, 0, 71, 0
2, 225080, Note_on_c, 0, 64, 65
2, 225172, Note_off_c, 0, 76, 0
2, 225180, Note_off_c, 0, 64, 0
2, 225184, Note_on_c, 0, 61, 54
2, 225196, Note_on_c, 0, 59, 21
2, 225216, Note_off_c, 0, 59, 0
2, 225240, Note_off_c, 0, 88, 0
2, 225264, Note_on_c, 0, 85, 74
2, 225272, Note_off_c, 0, 61, 0
2, 225272, Note_on_c, 0, 81, 70
2, 225276, Control_c, 0, 64, 104
2, 225288, Control_c, 0, 64, 40
2, 225296, Note_on_c, 0, 55, 64
2, 225300, Control_c, 0, 64, 0
2, 225368, Control_c, 0, 64, 104
2, 225376, Note_off_c, 0, 81, 0
2, 225376, Note_off_c, 0, 55, 0
2, 225376, Note_on_c, 0, 61, 64
2, 225380, Control_c, 0, 64, 127
2, 225460, Note_off_c, 0, 61, 0
2, 225464, Note_on_c, 0, 64, 68
2, 225504, Note_off_c, 0, 85, 0
2, 225536, Note_off_c, 0, 64, 0
2, 225556, Note_on_c, 0, 69, 38
2, 225568, Note_on_c, 0, 90, 84
2, 225568, Note_on_c, 0, 78, 80
2, 225592, Note_on_c, 0, 91, 45
2, 225612, Note_off_c, 0, 78, 0
2, 225616, Note_off_c, 0, 91, 0
2, 225620, Note_off_c, 0, 90, 0
2, 225652, Note_off_c, 0, 69, 0
2, 225676, Note_on_c, 0, 88, 96
2, 225680, Note_on_c, 0, 64, 28
2, 225684, Note_on_c, 0, 76, 87
2, 225704, Note_off_c, 0, 64, 0
2, 225708, Note_on_c, 0, 61, 46
2, 225724, Note_off_c, 0, 76, 0
2, 225736, Note_off_c, 0, 88, 0
2, 225828, Note_off_c, 0, 61, 0
2, 225872, Note_on_c, 0, 86, 85
2, 225876, Note_on_c, 0, 54, 64
2, 225880, Note_on_c, 0, 74, 78
2, 225896, Control_c, 0, 64, 56
2, 225908, Control_c, 0, 64, 0
2, 225952, Note_off_c, 0, 54, 0
2, 225976, Note_on_c, 0, 57, 58
2, 225976, Control_c, 0, 64, 88
2, 225988, Control_c, 0, 64, 127
2, 226056, Note_off_c, 0, 86, 0
2, 226072, Note_off_c, 0, 57, 0
2, 226072, Note_on_c, 0, 62, 65
2, 226076, Note_on_c, 0, 78, 56
2, 226076, Note_on_c, 0, 81, 67
2, 226092, Note_off_c, 0, 74, 0
2, 226144, Note_off_c, 0, 62, 0
2, 226152, Note_off_c, 0, 81, 0
2, 226160, Note_off_c, 0, 78, 0
2, 226164, Note_on_c, 0, 69, 66
2, 226232, Note_off_c, 0, 69, 0
2, 226252, Note_on_c, 0, 85, 87
2, 226252, Note_on_c, 0, 73, 83
2, 226268, Note_on_c, 0, 62, 54
2, 226304, Note_off_c, 0, 85, 0
2, 226316, Note_off_c, 0, 73, 0
2, 226328, Note_off_c, 0, 62, 0
2, 226328, Note_on_c, 0, 57, 56
2, 226424, Note_off_c, 0, 57, 0
2, 226460, Control_c, 0, 64, 88
2, 226464, Note_on_c, 0, 83, 83
2, 226468, Note_on_c, 0, 71, 72
2, 226472, Note_on_c, 0, 54, 49
2, 226472, Control_c, 0, 64, 0
2, 226540, Control_c, 0, 64, 40
2, 226552, Control_c, 0, 64, 104
2, 226556, Note_off_c, 0, 54, 0
2, 226556, Note_on_c, 0, 56, 56
2, 226564, Control_c, 0, 64, 127
2, 226600, Note_off_c, 0, 71, 0
2, 226616, Note_off_c, 0, 83, 0
2, 226652, Note_on_c, 0, 80, 60
2, 226652, Note_on_c, 0, 62, 60
2, 226660, Note_on_c, 0, 74, 56
2, 226664, Note_off_c, 0, 56, 0
2, 226684, Note_off_c, 0, 74, 0
2, 226708, Note_off_c, 0, 80, 0
2, 226720, Note_off_c, 0, 62, 0
2, 226728, Note_on_c, 0, 68, 56
2, 226808, Note_off_c, 0, 68, 0
2, 226864, Note_on_c, 0, 85, 82
2, 226864, Note_on_c, 0, 73, 69
2, 226864, Note_on_c, 0, 56, 58
2, 226904, Note_off_c, 0, 73, 0
2, 226920, Note_off_c, 0, 85, 0
2, 226944, Note_off_c, 0, 56, 0
2, 226944, Note_on_c, 0, 53, 60
2, 226992, Note_off_c, 0, 53, 0
2, 227056, Note_on_c, 0, 66, 65
2, 227056, Note_on_c, 0, 78, 84
2, 227060, Note_on_c, 0, 52, 70
2, 227128, Control_c, 0, 64, 88
2, 227140, Control_c, 0, 64, 0
2, 227164, Note_on_c, 0, 54, 52
2, 227168, Note_off_c, 0, 52, 0
2, 227220, Control_c, 0, 64, 88
2, 227228, Note_off_c, 0, 54, 0
2, 227232, Control_c, 0, 64, 127
2, 227248, Note_on_c, 0, 58, 52
2, 227268, Note_on_c, 0, 73, 54
2, 227272, Note_off_c, 0, 66, 0
2, 227272, Note_on_c, 0, 70, 45
2, 227316, Note_off_c, 0, 58, 0
2, 227348, Note_on_c, 0, 64, 55
2, 227352, Note_off_c, 0, 73, 0
2, 227368, Note_off_c, 0, 70, 0
2, 227428, Note_off_c, 0, 64, 0
2, 227432, Note_on_c, 0, 58, 49
2, 227468, Note_on_c, 0, 66, 64
2, 227508, Note_off_c, 0, 58, 0
2, 227516, Note_on_c, 0, 54, 60
2, 227616, Note_off_c, 0, 54, 0
2, 227628, Note_on_c, 0, 50, 65
2, 227680, Note_on_c, 0, 74, 64
2, 227680, Control_c, 0, 64, 56
2, 227684, Note_on_c, 0, 71, 52
2, 227692, Control_c, 0, 64, 0
2, 227712, Note_off_c, 0, 66, 0
2, 227720, Note_off_c, 0, 50, 0
2, 227720, Note_off_c, 0, 71, 0
2, 227732, Note_on_c, 0, 54, 47
2, 227744, Note_off_c, 0, 74, 0
2, 227756, Note_off_c, 0, 78, 0
2, 227760, Control_c, 0, 64, 72
2, 227772, Control_c, 0, 64, 127
2, 227788, Note_off_c, 0, 54, 0
2, 227808, Note_on_c, 0, 59, 61
2, 227888, Note_off_c, 0, 59, 0
2, 227900, Note_on_c, 0, 66, 64
2, 227920, Note_on_c, 0, 88, 84
2, 227928, Note_on_c, 0, 76, 70
2, 227972, Note_off_c, 0, 76, 0
2, 227976, Note_off_c, 0, 88, 0
2, 228000, Note_off_c, 0, 66, 0
2, 228008, Note_on_c, 0, 59, 54
2, 228032, Note_on_c, 0, 74, 79
2, 228032, Note_on_c, 0, 86, 65
2, 228084, Note_off_c, 0, 59, 0
2, 228100, Note_off_c, 0, 74, 0
2, 228104, Note_off_c, 0, 86, 0
2, 228116, Note_on_c, 0, 54, 48
2, 228232, Note_on_c, 0, 85, 84
2, 228232, Note_on_c, 0, 73, 79
2, 228232, Control_c, 0, 64, 56
2, 228240, Control_c, 0, 64, 0
2, 228252, Note_on_c, 0, 46, 53
2, 228264, Note_off_c, 0, 54, 0
2, 228308, Note_off_c, 0, 46, 0
2, 228324, Control_c, 0, 64, 104
2, 228332, Control_c, 0, 64, 127
2, 228348, Note_on_c, 0, 54, 44
2, 228356, Note_off_c, 0, 73, 0
2, 228368, Note_off_c, 0, 85, 0
2, 228416, Note_on_c, 0, 78, 70
2, 228420, Note_off_c, 0, 54, 0
2, 228420, Note_on_c, 0, 76, 64
2, 228440, Note_off_c, 0, 76, 0
2, 228444, Note_on_c, 0, 61, 61
2, 228456, Note_off_c, 0, 78, 0
2, 228520, Note_off_c, 0, 61, 0
2, 228544, Note_on_c, 0, 64, 61
2, 228592, Note_on_c, 0, 86, 82
2, 228600, Note_on_c, 0, 74, 64
2, 228628, Note_off_c, 0, 64, 0
2, 228632, Note_on_c, 0, 61, 53
2, 228644, Note_off_c, 0, 74, 0
2, 228648, Note_off_c, 0, 86, 0
2, 228688, Note_off_c, 0, 61, 0
2, 228724, Note_on_c, 0, 54, 45
2, 228752, Note_off_c, 0, 54, 0
2, 228804, Note_on_c, 0, 71, 70
2, 228804, Control_c, 0, 64, 88
2, 228808, Note_on_c, 0, 83, 71
2, 228816, Control_c, 0, 64, 0
2, 228824, Note_on_c, 0, 47, 64
2, 228888, Note_off_c, 0, 47, 0
2, 228896, Control_c, 0, 64, 56
2, 228908, Control_c, 0, 64, 127
2, 228920, Note_on_c, 0, 54, 54
2, 228940, Note_off_c, 0, 71, 0
2, 228948, Note_off_c, 0, 83, 0
2, 228996, Note_off_c, 0, 54, 0
2, 228996, Note_on_c, 0, 78, 68
2, 229008, Note_on_c, 0, 59, 60
2, 229036, Note_off_c, 0, 78, 0
2, 229084, Note_off_c, 0, 59, 0
2, 229100, Note_on_c, 0, 62, 58
2, 229172, Note_on_c, 0, 86, 87
2, 229180, Note_on_c, 0, 74, 72
2, 229180, Note_on_c, 0, 59, 54
2, 229188, Note_off_c, 0, 62, 0
2, 229224, Note_off_c, 0, 86, 0
2, 229228, Note_off_c, 0, 74, 0
2, 229240, Note_off_c, 0, 59, 0
2, 229260, Note_on_c, 0, 54, 57
2, 229308, Note_off_c, 0, 54, 0
2, 229380, Control_c, 0, 64, 72
2, 229384, Note_on_c, 0, 78, 88
2, 229388, Note_on_c, 0, 66, 73
2, 229388, Note_on_c, 0, 45, 63
2, 229392, Control_c, 0, 64, 0
2, 229460, Control_c, 0, 64, 56
2, 229464, Note_off_c, 0, 45, 0
2, 229472, Control_c, 0, 64, 127
2, 229480, Note_on_c, 0, 51, 65
2, 229492, Note_off_c, 0, 66, 0
2, 229516, Note_off_c, 0, 78, 0
2, 229548, Note_off_c, 0, 51, 0
2, 229600, Note_on_c, 0, 75, 64
2, 229600, Note_on_c, 0, 72, 51
2, 229600, Note_on_c, 0, 54, 55
2, 229664, Note_off_c, 0, 54, 0
2, 229676, Note_on_c, 0, 60, 57
2, 229684, Note_off_c, 0, 72, 0
2, 229700, Note_off_c, 0, 75, 0
2, 229764, Note_on_c, 0, 54, 47
2, 229772, Note_on_c, 0, 79, 85
2, 229776, Note_off_c, 0, 60, 0
2, 229780, Note_on_c, 0, 67, 66
2, 229828, Note_off_c, 0, 79, 0
2, 229828, Note_off_c, 0, 67, 0
2, 229844, Note_off_c, 0, 54, 0
2, 229848, Note_on_c, 0, 51, 60
2, 229900, Note_off_c, 0, 51, 0
2, 229976, Note_on_c, 0, 76, 82
2, 229976, Note_on_c, 0, 64, 71
2, 229976, Note_on_c, 0, 43, 64
2, 229976, Control_c, 0, 64, 56
2, 229988, Control_c, 0, 64, 0
2, 230020, Note_off_c, 0, 43, 0
2, 230048, Control_c, 0, 64, 40
2, 230060, Note_on_c, 0, 47, 60
2, 230060, Control_c, 0, 64, 104
2, 230072, Control_c, 0, 64, 127
2, 230092, Note_off_c, 0, 76, 0
2, 230104, Note_off_c, 0, 64, 0
2, 230136, Note_off_c, 0, 47, 0
2, 230152, Note_on_c, 0, 71, 66
2, 230152, Note_on_c, 0, 67, 44
2, 230164, Note_on_c, 0, 52, 64
2, 230180, Note_off_c, 0, 67, 0
2, 230204, Note_off_c, 0, 71, 0
2, 230224, Note_off_c, 0, 52, 0
2, 230256, Note_on_c, 0, 59, 52
2, 230336, Note_off_c, 0, 59, 0
2, 230340, Note_on_c, 0, 52, 62
2, 230368, Note_on_c, 0, 83, 90
2, 230372, Note_on_c, 0, 71, 74
2, 230412, Note_off_c, 0, 71, 0
2, 230416, Note_off_c, 0, 83, 0
2, 230436, Note_off_c, 0, 52, 0
2, 230440, Note_on_c, 0, 47, 65
2, 230504, Note_off_c, 0, 47, 0
2, 230584, Note_on_c, 0, 74, 86
2, 230584, Note_on_c, 0, 62, 75
2, 230588, Control_c, 0, 64, 40
2, 230600, Control_c, 0, 64, 0
2, 230608, Note_on_c, 0, 42, 64
2, 230668, Control_c, 0, 64, 88
2, 230676, Note_off_c, 0, 42, 0
2, 230676, Note_on_c, 0, 47, 61
2, 230680, Note_off_c, 0, 62, 0
2, 230680, Control_c, 0, 64, 127
2, 230720, Note_off_c, 0, 74, 0
2, 230756, Note_off_c, 0, 47, 0
2, 230776, Note_on_c, 0, 54, 69
2, 230780, Note_on_c, 0, 71, 70
2, 230784, Note_on_c, 0, 66, 54
2, 230816, Note_off_c, 0, 66, 0
2, 230828, Note_off_c, 0, 71, 0
2, 230864, Note_off_c, 0, 54, 0
2, 230880, Note_on_c, 0, 59, 39
2, 230952, Note_off_c, 0, 59, 0
2, 230956, Note_on_c, 0, 54, 59
2, 230964, Note_on_c, 0, 76, 87
2, 230968, Note_on_c, 0, 64, 75
2, 231016, Note_off_c, 0, 64, 0
2, 231028, Note_off_c, 0, 76, 0
2, 231056, Note_on_c, 0, 47, 75
2, 231060, Note_off_c, 0, 54, 0
2, 231108, Note_off_c, 0, 47, 0
2, 231172, Note_on_c, 0, 73, 85
2, 231172, Note_on_c, 0, 61, 75
2, 231172, Note_on_c, 0, 40, 62
2, 231172, Control_c, 0, 64, 40
2, 231184, Control_c, 0, 64, 0
2, 231228, Note_off_c, 0, 40, 0
2, 231240, Control_c, 0, 64, 72
2, 231252, Control_c, 0, 64, 127
2, 231284, Note_on_c, 0, 46, 63
2, 231304, Note_off_c, 0, 73, 0
2, 231304, Note_off_c, 0, 61, 0
2, 231344, Note_on_c, 0, 70, 59
2, 231344, Note_on_c, 0, 67, 57
2, 231348, Note_off_c, 0, 46, 0
2, 231372, Note_on_c, 0, 49, 62
2, 231400, Note_off_c, 0, 70, 0
2, 231404, Note_off_c, 0, 67, 0
2, 231448, Note_off_c, 0, 49, 0
2, 231448, Note_on_c, 0, 58, 64
2, 231556, Note_on_c, 0, 79, 92
2, 231556, Note_on_c, 0, 67, 76
2, 231560, Note_off_c, 0, 58, 0
2, 231568, Note_on_c, 0, 49, 56
2, 231624, Note_off_c, 0, 67, 0
2, 231632, Note_off_c, 0, 49, 0
2, 231640, Note_on_c, 0, 46, 60
2, 231668, Note_off_c, 0, 79, 0
2, 231760, Note_off_c, 0, 46, 0
2, 231760, Note_on_c, 0, 79, 87
2, 231760, Note_on_c, 0, 40, 62
2, 231768, Note_on_c, 0, 67, 78
2, 231772, Control_c, 0, 64, 104
2, 231784, Control_c, 0, 64, 0
2, 231852, Control_c, 0, 64, 72
2, 231860, Note_on_c, 0, 46, 64
2, 231860, Control_c, 0, 64, 127
2, 231872, Note_off_c, 0, 40, 0
2, 231908, Note_off_c, 0, 79, 0
2, 231936, Note_off_c, 0, 46, 0
2, 231948, Note_on_c, 0, 49, 65
2, 231956, Note_on_c, 0, 73, 67
2, 231964, Note_on_c, 0, 70, 44
2, 231980, Note_off_c, 0, 67, 0
2, 231984, Note_off_c, 0, 70, 0
2, 232004, Note_off_c, 0, 73, 0
2, 232020, Note_off_c, 0, 49, 0
2, 232032, Note_on_c, 0, 55, 64
2, 232132, Note_on_c, 0, 82, 91
2, 232132, Note_on_c, 0, 70, 77
2, 232136, Note_off_c, 0, 55, 0
2, 232136, Note_on_c, 0, 49, 60
2, 232176, Note_off_c, 0, 70, 0
2, 232196, Note_off_c, 0, 82, 0
2, 232204, Note_on_c, 0, 46, 61
2, 232208, Note_off_c, 0, 49, 0
2, 232308, Note_off_c, 0, 46, 0
2, 232332, Note_on_c, 0, 73, 80
2, 232332, Control_c, 0, 64, 56
2, 232336, Note_on_c, 0, 85, 92
2, 232340, Note_on_c, 0, 40, 67
2, 232344, Control_c, 0, 64, 0
2, 232392, Control_c, 0, 64, 40
2, 232404, Control_c, 0, 64, 127
2, 232428, Note_off_c, 0, 85, 0
2, 232428, Note_off_c, 0, 40, 0
2, 232432, Note_on_c, 0, 42, 56
2, 232440, Note_off_c, 0, 73, 0
2, 232520, Note_on_c, 0, 86, 93
2, 232520, Note_on_c, 0, 74, 87
2, 232540, Note_on_c, 0, 46, 62
2, 232552, Note_off_c, 0, 42, 0
2, 232572, Note_off_c, 0, 74, 0
2, 232608, Note_off_c, 0, 86, 0
2, 232616, Note_off_c, 0, 46, 0
2, 232632, Note_on_c, 0, 54, 61
2, 232692, Note_on_c, 0, 88, 97
2, 232692, Note_on_c, 0, 76, 88
2, 232720, Note_on_c, 0, 46, 53
2, 232724, Note_off_c, 0, 54, 0
2, 232744, Note_off_c, 0, 76, 0
2, 232780, Note_off_c, 0, 46, 0
2, 232780, Note_on_c, 0, 42, 43
2, 232784, Note_off_c, 0, 88, 0
2, 232856, Note_off_c, 0, 42, 0
2, 232896, Control_c, 0, 64, 88
2, 232908, Note_on_c, 0, 91, 97
2, 232908, Control_c, 0, 64, 0
2, 232912, Note_on_c, 0, 79, 92
2, 232924, Note_on_c, 0, 38, 67
2, 233000, Control_c, 0, 64, 104
2, 233008, Note_off_c, 0, 38, 0
2, 233012, Control_c, 0, 64, 127
2, 233024, Note_on_c, 0, 43, 48
2, 233080, Note_off_c, 0, 79, 0
2, 233112, Note_off_c, 0, 43, 0
2, 233124, Note_on_c, 0, 46, 56
2, 233128, Note_on_c, 0, 85, 76
2, 233128, Note_on_c, 0, 82, 68
2, 233184, Note_off_c, 0, 46, 0
2, 233192, Note_on_c, 0, 55, 47
2, 233272, Note_off_c, 0, 82, 0
2, 233280, Note_off_c, 0, 85, 0
2, 233280, Note_off_c, 0, 55, 0
2, 233292, Note_on_c, 0, 46, 56
2, 233296, Note_on_c, 0, 79, 74
2, 233360, Note_off_c, 0, 46, 0
2, 233368, Note_on_c, 0, 43, 56
2, 233388, Note_off_c, 0, 91, 0
2, 233388, Note_off_c, 0, 79, 0
2, 233452, Note_off_c, 0, 43, 0
2, 233492, Note_on_c, 0, 38, 68
2, 233496, Note_on_c, 0, 78, 85
2, 233496, Note_on_c, 0, 90, 88
2, 233496, Control_c, 0, 64, 104
2, 233508, Control_c, 0, 64, 0
2, 233596, Note_off_c, 0, 38, 0
2, 233596, Note_on_c, 0, 42, 54
2, 233600, Control_c, 0, 64, 104
2, 233612, Control_c, 0, 64, 127
2, 233636, Note_off_c, 0, 78, 0
2, 233668, Note_off_c, 0, 42, 0
2, 233684, Note_on_c, 0, 47, 54
2, 233704, Note_on_c, 0, 86, 60
2, 233716, Note_on_c, 0, 83, 48
2, 233760, Note_off_c, 0, 47, 0
2, 233760, Note_on_c, 0, 54, 61
2, 233828, Note_off_c, 0, 83, 0
2, 233848, Note_off_c, 0, 54, 0
2, 233864, Note_on_c, 0, 78, 75
2, 233876, Note_on_c, 0, 47, 61
2, 233912, Note_off_c, 0, 90, 0
2, 233920, Note_off_c, 0, 86, 0
2, 233932, Note_on_c, 0, 42, 63
2, 233940, Note_off_c, 0, 47, 0
2, 233980, Note_off_c, 0, 78, 0
2, 234028, Note_off_c, 0, 42, 0
2, 234052, Note_on_c, 0, 89, 90
2, 234056, Note_on_c, 0, 77, 76
2, 234060, Note_on_c, 0, 37, 70
2, 234060, Control_c, 0, 64, 104
2, 234072, Control_c, 0, 64, 0
2, 234144, Note_off_c, 0, 37, 0
2, 234152, Control_c, 0, 64, 88
2, 234160, Note_on_c, 0, 44, 53
2, 234160, Control_c, 0, 64, 127
2, 234200, Note_off_c, 0, 77, 0
2, 234220, Note_off_c, 0, 44, 0
2, 234240, Note_on_c, 0, 49, 60
2, 234248, Note_on_c, 0, 85, 58
2, 234264, Note_on_c, 0, 83, 49
2, 234324, Note_off_c, 0, 49, 0
2, 234340, Note_on_c, 0, 56, 60
2, 234400, Note_off_c, 0, 83, 0
2, 234424, Note_on_c, 0, 77, 68
2, 234428, Note_on_c, 0, 49, 60
2, 234432, Note_off_c, 0, 56, 0
2, 234436, Note_off_c, 0, 89, 0
2, 234440, Note_off_c, 0, 85, 0
2, 234500, Note_off_c, 0, 77, 0
2, 234520, Note_on_c, 0, 44, 55
2, 234524, Note_off_c, 0, 49, 0
2, 234604, Note_off_c, 0, 44, 0
2, 234612, Note_on_c, 0, 42, 72
2, 234624, Note_on_c, 0, 88, 84
2, 234624, Control_c, 0, 64, 72
2, 234628, Note_on_c, 0, 76, 79
2, 234632, Control_c, 0, 64, 0
2, 234692, Control_c, 0, 64, 40
2, 234700, Note_off_c, 0, 42, 0
2, 234700, Control_c, 0, 64, 127
2, 234712, Note_on_c, 0, 49, 58
2, 234772, Note_off_c, 0, 76, 0
2, 234796, Note_on_c, 0, 82, 59
2, 234796, Note_on_c, 0, 54, 62
2, 234804, Note_off_c, 0, 88, 0
2, 234804, Note_off_c, 0, 49, 0
2, 234808, Note_on_c, 0, 78, 54
2, 234876, Note_off_c, 0, 54, 0
2, 234896, Note_on_c, 0, 61, 61
2, 234972, Note_off_c, 0, 61, 0
2, 234976, Note_off_c, 0, 78, 0
2, 234988, Note_off_c, 0, 82, 0
2, 234988, Note_on_c, 0, 54, 53
2, 235000, Note_on_c, 0, 76, 69
2, 235056, Note_on_c, 0, 49, 48
2, 235064, Note_off_c, 0, 54, 0
2, 235084, Note_off_c, 0, 76, 0
2, 235168, Note_off_c, 0, 49, 0
2, 235200, Note_on_c, 0, 86, 82
2, 235200, Note_on_c, 0, 74, 77
2, 235200, Note_on_c, 0, 47, 73
2, 235220, Control_c, 0, 64, 24
2, 235232, Control_c, 0, 64, 0
2, 235272, Note_on_c, 0, 54, 62
2, 235280, Note_off_c, 0, 47, 0
2, 235300, Control_c, 0, 64, 104
2, 235312, Control_c, 0, 64, 127
2, 235328, Note_off_c, 0, 74, 0
2, 235356, Note_off_c, 0, 54, 0
2, 235364, Note_on_c, 0, 59, 60
2, 235400, Note_on_c, 0, 78, 54
2, 235408, Note_on_c, 0, 83, 64
2, 235440, Note_off_c, 0, 59, 0
2, 235444, Note_off_c, 0, 86, 0
2, 235460, Note_on_c, 0, 62, 63
2, 235540, Note_off_c, 0, 62, 0
2, 235548, Note_on_c, 0, 59, 58
2, 235588, Note_off_c, 0, 78, 0
2, 235588, Note_on_c, 0, 74, 73
2, 235592, Note_off_c, 0, 83, 0
2, 235640, Note_off_c, 0, 74, 0
2, 235648, Note_off_c, 0, 59, 0
2, 235652, Note_on_c, 0, 54, 60
2, 235692, Note_off_c, 0, 54, 0
2, 235792, Note_on_c, 0, 62, 82
2, 235792, Note_on_c, 0, 74, 93
2, 235804, Note_on_c, 0, 41, 70
2, 235804, Control_c, 0, 64, 56
2, 235816, Control_c, 0, 64, 0
2, 235868, Note_off_c, 0, 62, 0
2, 235880, Note_off_c, 0, 41, 0
2, 235884, Control_c, 0, 64, 127
2, 235904, Note_on_c, 0, 47, 54
2, 235972, Note_off_c, 0, 47, 0
2, 235984, Note_on_c, 0, 50, 64
2, 235992, Note_on_c, 0, 71, 70
2, 236000, Note_on_c, 0, 68, 50
2, 236012, Note_off_c, 0, 74, 0
2, 236052, Note_off_c, 0, 50, 0
2, 236064, Note_on_c, 0, 56, 53
2, 236128, Note_off_c, 0, 71, 0
2, 236148, Note_off_c, 0, 68, 0
2, 236160, Note_off_c, 0, 56, 0
2, 236164, Note_on_c, 0, 50, 49
2, 236168, Note_on_c, 0, 62, 87
2, 236200, Note_on_c, 0, 71, 39
2, 236208, Note_off_c, 0, 62, 0
2, 236220, Note_on_c, 0, 47, 64
2, 236224, Note_off_c, 0, 50, 0
2, 236224, Note_off_c, 0, 71, 0
2, 236244, Note_off_c, 0, 47, 0
2, 236392, Note_on_c, 0, 86, 92
2, 236396, Note_on_c, 0, 74, 80
2, 236408, Note_on_c, 0, 40, 71
2, 236440, Control_c, 0, 64, 40
2, 236452, Control_c, 0, 64, 0
2, 236496, Note_off_c, 0, 40, 0
2, 236496, Note_on_c, 0, 46, 55
2, 236520, Control_c, 0, 64, 127
2, 236560, Note_off_c, 0, 74, 0
2, 236580, Note_off_c, 0, 46, 0
2, 236588, Note_on_c, 0, 50, 70
2, 236600, Note_on_c, 0, 82, 56
2, 236624, Note_on_c, 0, 79, 39
2, 236652, Note_off_c, 0, 50, 0
2, 236684, Note_on_c, 0, 55, 46
2, 236720, Note_off_c, 0, 86, 0
2, 236752, Note_off_c, 0, 55, 0
2, 236756, Note_off_c, 0, 79, 0
2, 236784, Note_off_c, 0, 82, 0
2, 236784, Note_on_c, 0, 74, 74
2, 236784, Note_on_c, 0, 50, 40
2, 236816, Note_off_c, 0, 50, 0
2, 236824, Note_on_c, 0, 46, 55
2, 236836, Note_off_c, 0, 74, 0
2, 236960, Note_off_c, 0, 46, 0
2, 236980, Note_on_c, 0, 85, 79
2, 236980, Note_on_c, 0, 73, 75
2, 236980, Note_on_c, 0, 40, 66
2, 237024, Control_c, 0, 64, 88
2, 237036, Control_c, 0, 64, 0
2, 237088, Note_off_c, 0, 40, 0
2, 237088, Note_on_c, 0, 46, 58
2, 237104, Control_c, 0, 64, 40
2, 237116, Control_c, 0, 64, 127
2, 237120, Note_off_c, 0, 73, 0
2, 237164, Note_off_c, 0, 46, 0
2, 237168, Note_on_c, 0, 49, 55
2, 237172, Note_on_c, 0, 82, 50
2, 237176, Note_on_c, 0, 78, 48
2, 237232, Note_off_c, 0, 49, 0
2, 237252, Note_on_c, 0, 54, 55
2, 237340, Note_on_c, 0, 49, 42
2, 237348, Note_off_c, 0, 54, 0
2, 237352, Note_off_c, 0, 85, 0
2, 237356, Note_on_c, 0, 73, 61
2, 237364, Note_off_c, 0, 78, 0
2, 237376, Note_off_c, 0, 82, 0
2, 237400, Note_off_c, 0, 49, 0
2, 237408, Note_off_c, 0, 73, 0
2, 237408, Note_on_c, 0, 46, 49
2, 237444, Note_off_c, 0, 46, 0
2, 237552, Note_on_c, 0, 66, 76
2, 237564, Control_c, 0, 64, 88
2, 237568, Note_on_c, 0, 38, 68
2, 237576, Control_c, 0, 64, 0
2, 237636, Note_off_c, 0, 38, 0
2, 237644, Control_c, 0, 64, 88
2, 237648, Note_on_c, 0, 42, 55
2, 237656, Control_c, 0, 64, 127
2, 237708, Note_off_c, 0, 42, 0
2, 237740, Note_off_c, 0, 66, 0
2, 237744, Note_on_c, 0, 78, 67
2, 237744, Note_on_c, 0, 49, 50
2, 237748, Note_on_c, 0, 73, 60
2, 237796, Note_off_c, 0, 49, 0
2, 237828, Note_on_c, 0, 54, 58
2, 237912, Note_off_c, 0, 78, 0
2, 237920, Note_off_c, 0, 54, 0
2, 237932, Note_on_c, 0, 49, 52
2, 237936, Note_off_c, 0, 73, 0
2, 237936, Note_on_c, 0, 66, 65
2, 238008, Note_off_c, 0, 49, 0
2, 238016, Note_on_c, 0, 44, 34
2, 238104, Note_off_c, 0, 44, 0
2, 238128, Note_on_c, 0, 78, 70
2, 238136, Note_on_c, 0, 71, 69
2, 238140, Note_on_c, 0, 38, 68
2, 238152, Note_off_c, 0, 66, 0
2, 238160, Control_c, 0, 64, 40
2, 238172, Control_c, 0, 64, 0
2, 238224, Note_off_c, 0, 38, 0
2, 238232, Note_on_c, 0, 42, 60
2, 238232, Control_c, 0, 64, 56
2, 238240, Control_c, 0, 64, 127
2, 238272, Note_off_c, 0, 71, 0
2, 238296, Note_off_c, 0, 78, 0
2, 238300, Note_off_c, 0, 42, 0
2, 238324, Note_on_c, 0, 47, 55
2, 238336, Note_on_c, 0, 66, 67
2, 238396, Note_off_c, 0, 47, 0
2, 238420, Note_on_c, 0, 54, 61
2, 238508, Note_off_c, 0, 54, 0
2, 238512, Note_on_c, 0, 78, 71
2, 238524, Note_on_c, 0, 71, 64
2, 238528, Note_on_c, 0, 47, 58
2, 238560, Note_off_c, 0, 66, 0
2, 238584, Note_off_c, 0, 47, 0
2, 238608, Note_on_c, 0, 42, 56
2, 238632, Note_off_c, 0, 78, 0
2, 238676, Note_off_c, 0, 71, 0
2, 238696, Note_off_c, 0, 42, 0
2, 238708, Note_on_c, 0, 65, 81
2, 238712, Control_c, 0, 64, 104
2, 238716, Note_on_c, 0, 37, 68
2, 238724, Control_c, 0, 64, 0
2, 238792, Control_c, 0, 64, 88
2, 238796, Note_off_c, 0, 37, 0
2, 238804, Control_c, 0, 64, 127
2, 238812, Note_on_c, 0, 44, 56
2, 238888, Note_off_c, 0, 44, 0
2, 238900, Note_on_c, 0, 49, 65
2, 238904, Note_on_c, 0, 77, 82
2, 238908, Note_on_c, 0, 71, 70
2, 238936, Note_off_c, 0, 65, 0
2, 238972, Note_off_c, 0, 49, 0
2, 238980, Note_off_c, 0, 71, 0
2, 239000, Note_off_c, 0, 77, 0
2, 239000, Note_on_c, 0, 56, 58
2, 239076, Note_on_c, 0, 64, 83
2, 239100, Note_off_c, 0, 56, 0
2, 239100, Note_on_c, 0, 49, 67
2, 239176, Note_on_c, 0, 44, 39
2, 239184, Note_off_c, 0, 49, 0
2, 239220, Note_off_c, 0, 44, 0
2, 239256, Note_off_c, 0, 64, 0
2, 239276, Note_on_c, 0, 76, 86
2, 239280, Note_on_c, 0, 71, 74
2, 239288, Control_c, 0, 64, 40
2, 239296, Note_on_c, 0, 43, 70
2, 239300, Control_c, 0, 64, 0
2, 239356, Control_c, 0, 64, 56
2, 239360, Note_off_c, 0, 43, 0
2, 239368, Control_c, 0, 64, 127
2, 239380, Note_on_c, 0, 47, 54
2, 239448, Note_off_c, 0, 47, 0
2, 239456, Note_off_c, 0, 76, 0
2, 239468, Note_off_c, 0, 71, 0
2, 239480, Note_on_c, 0, 64, 70
2, 239524, Note_on_c, 0, 53, 21
2, 239544, Note_off_c, 0, 53, 0
2, 239560, Note_on_c, 0, 59, 59
2, 239628, Note_off_c, 0, 59, 0
2, 239660, Note_on_c, 0, 76, 82
2, 239664, Note_on_c, 0, 71, 70
2, 239676, Note_on_c, 0, 52, 60
2, 239696, Note_off_c, 0, 64, 0
2, 239728, Note_off_c, 0, 76, 0
2, 239732, Note_off_c, 0, 71, 0
2, 239752, Note_on_c, 0, 47, 62
2, 239764, Note_off_c, 0, 52, 0
2, 239832, Note_off_c, 0, 47, 0
2, 239852, Note_on_c, 0, 63, 83
2, 239852, Note_on_c, 0, 42, 69
2, 239872, Control_c, 0, 64, 88
2, 239888, Control_c, 0, 64, 0
2, 239900, Note_off_c, 0, 42, 0
2, 239944, Control_c, 0, 64, 104
2, 239956, Control_c, 0, 64, 127
2, 239960, Note_on_c, 0, 47, 56
2, 240024, Note_off_c, 0, 63, 0
2, 240028, Note_off_c, 0, 47, 0
2, 240044, Note_on_c, 0, 54, 72
2, 240048, Note_on_c, 0, 75, 72
2, 240052, Note_on_c, 0, 66, 60
2, 240064, Note_on_c, 0, 71, 63
2, 240116, Note_off_c, 0, 54, 0
2, 240140, Note_on_c, 0, 59, 52
2, 240144, Note_off_c, 0, 71, 0
2, 240156, Note_off_c, 0, 75, 0
2, 240192, Note_off_c, 0, 66, 0
2, 240212, Note_off_c, 0, 59, 0
2, 240220, Note_on_c, 0, 62, 86
2, 240236, Note_on_c, 0, 54, 67
2, 240328, Note_off_c, 0, 54, 0
2, 240328, Note_on_c, 0, 47, 66
2, 240368, Note_off_c, 0, 47, 0
2, 240400, Note_off_c, 0, 62, 0
2, 240428, Note_on_c, 0, 74, 82
2, 240428, Note_on_c, 0, 71, 67
2, 240428, Note_on_c, 0, 67, 69
2, 240428, Note_on_c, 0, 41, 69
2, 240448, Control_c, 0, 64, 24
2, 240460, Control_c, 0, 64, 0
2, 240488, Note_off_c, 0, 41, 0
2, 240520, Control_c, 0, 64, 104
2, 240532, Control_c, 0, 64, 127
2, 240540, Note_on_c, 0, 43, 66
2, 240556, Note_off_c, 0, 67, 0
2, 240572, Note_off_c, 0, 74, 0
2, 240592, Note_off_c, 0, 71, 0
2, 240620, Note_off_c, 0, 43, 0
2, 240632, Note_on_c, 0, 47, 64
2, 240632, Note_on_c, 0, 62, 80
2, 240680, Note_off_c, 0, 47, 0
2, 240700, Note_on_c, 0, 55, 64
2, 240788, Note_off_c, 0, 55, 0
2, 240804, Note_on_c, 0, 47, 66
2, 240808, Note_on_c, 0, 74, 79
2, 240808, Note_on_c, 0, 67, 65
2, 240816, Note_on_c, 0, 71, 66
2, 240836, Note_off_c, 0, 62, 0
2, 240876, Note_off_c, 0, 47, 0
2, 240876, Note_on_c, 0, 43, 62
2, 240908, Note_off_c, 0, 74, 0
2, 240916, Note_off_c, 0, 71, 0
2, 240972, Note_off_c, 0, 67, 0
2, 240972, Note_off_c, 0, 43, 0
2, 241004, Note_on_c, 0, 40, 69
2, 241008, Note_on_c, 0, 60, 84
2, 241012, Control_c, 0, 64, 104
2, 241024, Control_c, 0, 64, 0
2, 241092, Control_c, 0, 64, 88
2, 241096, Note_off_c, 0, 40, 0
2, 241100, Note_on_c, 0, 43, 66
2, 241104, Control_c, 0, 64, 127
2, 241196, Note_off_c, 0, 43, 0
2, 241204, Note_on_c, 0, 48, 70
2, 241208, Note_on_c, 0, 72, 82
2, 241212, Note_on_c, 0, 67, 68
2, 241252, Note_off_c, 0, 60, 0
2, 241256, Note_off_c, 0, 48, 0
2, 241268, Note_off_c, 0, 67, 0
2, 241280, Note_on_c, 0, 55, 62
2, 241296, Note_off_c, 0, 72, 0
2, 241384, Note_on_c, 0, 59, 80
2, 241388, Note_off_c, 0, 55, 0
2, 241388, Note_on_c, 0, 48, 73
2, 241468, Note_off_c, 0, 48, 0
2, 241468, Note_on_c, 0, 43, 64
2, 241564, Note_off_c, 0, 43, 0
2, 241592, Note_on_c, 0, 71, 87
2, 241592, Note_on_c, 0, 64, 73
2, 241592, Note_on_c, 0, 40, 68
2, 241600, Control_c, 0, 64, 104
2, 241612, Control_c, 0, 64, 0
2, 241668, Note_off_c, 0, 59, 0
2, 241680, Control_c, 0, 64, 104
2, 241692, Control_c, 0, 64, 127
2, 241692, Note_on_c, 0, 42, 63
2, 241716, Note_off_c, 0, 71, 0
2, 241744, Note_off_c, 0, 64, 0
2, 241744, Note_off_c, 0, 40, 0
2, 241772, Note_off_c, 0, 42, 0
2, 241784, Note_on_c, 0, 58, 75
2, 241784, Note_on_c, 0, 49, 64
2, 241816, Note_off_c, 0, 49, 0
2, 241872, Note_on_c, 0, 54, 63
2, 241952, Note_on_c, 0, 70, 75
2, 241956, Note_on_c, 0, 66, 62
2, 241960, Note_off_c, 0, 54, 0
2, 241960, Note_on_c, 0, 61, 61
2, 241988, Note_off_c, 0, 58, 0
2, 241988, Note_off_c, 0, 61, 0
2, 241992, Note_on_c, 0, 49, 63
2, 242020, Note_off_c, 0, 66, 0
2, 242028, Note_off_c, 0, 70, 0
2, 242036, Note_off_c, 0, 49, 0
2, 242060, Note_on_c, 0, 42, 47
2, 242164, Note_off_c, 0, 42, 0
2, 242164, Note_on_c, 0, 61, 85
2, 242184, Note_on_c, 0, 38, 69
2, 242196, Control_c, 0, 64, 88
2, 242208, Control_c, 0, 64, 0
2, 242276, Control_c, 0, 64, 104
2, 242280, Note_off_c, 0, 38, 0
2, 242280, Note_on_c, 0, 42, 49
2, 242288, Control_c, 0, 64, 127
2, 242344, Note_off_c, 0, 42, 0
2, 242360, Note_on_c, 0, 73, 71
2, 242368, Note_on_c, 0, 47, 58
2, 242376, Note_on_c, 0, 66, 55
2, 242408, Note_off_c, 0, 61, 0
2, 242436, Note_off_c, 0, 47, 0
2, 242440, Note_off_c, 0, 73, 0
2, 242468, Note_on_c, 0, 54, 51
2, 242500, Note_off_c, 0, 66, 0
2, 242552, Note_off_c, 0, 54, 0
2, 242552, Note_on_c, 0, 71, 89
2, 242560, Note_on_c, 0, 59, 73
2, 242564, Note_on_c, 0, 47, 61
2, 242568, Note_on_c, 0, 66, 61
2, 242604, Note_off_c, 0, 59, 0
2, 242628, Note_off_c, 0, 71, 0
2, 242636, Note_off_c, 0, 66, 0
2, 242640, Note_off_c, 0, 47, 0
2, 242640, Note_on_c, 0, 42, 64
2, 242728, Note_off_c, 0, 42, 0
2, 242744, Note_on_c, 0, 61, 88
2, 242748, Control_c, 0, 64, 88
2, 242756, Note_on_c, 0, 38, 69
2, 242760, Control_c, 0, 64, 0
2, 242804, Control_c, 0, 64, 40
2, 242816, Control_c, 0, 64, 127
2, 242844, Note_off_c, 0, 38, 0
2, 242856, Note_on_c, 0, 42, 50
2, 242924, Note_on_c, 0, 73, 79
2, 242932, Note_off_c, 0, 42, 0
2, 242936, Note_on_c, 0, 66, 64
2, 242936, Note_on_c, 0, 47, 64
2, 242968, Note_off_c, 0, 61, 0
2, 243016, Note_off_c, 0, 47, 0
2, 243032, Note_on_c, 0, 54, 68
2, 243036, Note_off_c, 0, 73, 0
2, 243116, Note_on_c, 0, 74, 87
2, 243116, Note_on_c, 0, 62, 73
2, 243124, Note_off_c, 0, 54, 0
2, 243136, Note_on_c, 0, 47, 49
2, 243140, Note_off_c, 0, 66, 0
2, 243156, Note_off_c, 0, 62, 0
2, 243164, Note_on_c, 0, 42, 55
2, 243176, Note_off_c, 0, 74, 0
2, 243208, Note_off_c, 0, 47, 0
2, 243232, Note_off_c, 0, 42, 0
2, 243312, Note_on_c, 0, 63, 85
2, 243316, Note_on_c, 0, 43, 69
2, 243320, Control_c, 0, 64, 40
2, 243332, Control_c, 0, 64, 0
2, 243380, Control_c, 0, 64, 56
2, 243392, Control_c, 0, 64, 127
2, 243400, Note_off_c, 0, 43, 0
2, 243424, Note_on_c, 0, 47, 51
2, 243472, Note_off_c, 0, 63, 0
2, 243500, Note_off_c, 0, 47, 0
2, 243500, Note_on_c, 0, 75, 78
2, 243500, Note_on_c, 0, 49, 65
2, 243508, Note_on_c, 0, 73, 68
2, 243516, Note_on_c, 0, 71, 67
2, 243572, Note_off_c, 0, 49, 0
2, 243600, Note_off_c, 0, 75, 0
2, 243604, Note_on_c, 0, 59, 31
2, 243608, Note_off_c, 0, 73, 0
2, 243616, Note_off_c, 0, 71, 0
2, 243684, Note_on_c, 0, 76, 97
2, 243688, Note_off_c, 0, 59, 0
2, 243688, Note_on_c, 0, 64, 80
2, 243692, Note_on_c, 0, 71, 66
2, 243704, Note_on_c, 0, 73, 32
2, 243704, Note_on_c, 0, 49, 62
2, 243724, Note_off_c, 0, 73, 0
2, 243728, Note_off_c, 0, 64, 0
2, 243744, Note_off_c, 0, 71, 0
2, 243756, Note_on_c, 0, 47, 54
2, 243760, Note_off_c, 0, 76, 0
2, 243768, Note_off_c, 0, 49, 0
2, 243864, Note_off_c, 0, 47, 0
2, 243872, Note_on_c, 0, 66, 89
2, 243884, Control_c, 0, 64, 0
2, 243888, Note_on_c, 0, 40, 70
2, 243944, Control_c, 0, 64, 72
2, 243956, Note_off_c, 0, 40, 0
2, 243956, Control_c, 0, 64, 127
2, 243984, Note_on_c, 0, 47, 51
2, 244028, Note_off_c, 0, 66, 0
2, 244032, Note_off_c, 0, 47, 0
2, 244060, Note_on_c, 0, 52, 68
2, 244064, Note_on_c, 0, 78, 79
2, 244064, Note_on_c, 0, 73, 74
2, 244076, Note_on_c, 0, 71, 71
2, 244136, Note_off_c, 0, 52, 0
2, 244136, Note_off_c, 0, 71, 0
2, 244160, Note_off_c, 0, 73, 0
2, 244164, Note_on_c, 0, 59, 54
2, 244172, Note_off_c, 0, 78, 0
2, 244216, Note_off_c, 0, 59, 0
2, 244248, Note_on_c, 0, 79, 90
2, 244248, Note_on_c, 0, 52, 63
2, 244252, Note_on_c, 0, 67, 71
2, 244264, Note_on_c, 0, 71, 42
2, 244292, Note_off_c, 0, 71, 0
2, 244316, Note_on_c, 0, 47, 60
2, 244332, Note_off_c, 0, 52, 0
2, 244332, Note_off_c, 0, 67, 0
2, 244344, Note_off_c, 0, 79, 0
2, 244392, Note_off_c, 0, 47, 0
2, 244420, Note_on_c, 0, 51, 27
2, 244436, Note_on_c, 0, 65, 93
2, 244448, Control_c, 0, 64, 72
2, 244460, Control_c, 0, 64, 0
2, 244464, Note_on_c, 0, 42, 70
2, 244520, Control_c, 0, 64, 88
2, 244524, Note_off_c, 0, 51, 0
2, 244528, Control_c, 0, 64, 127
2, 244536, Note_off_c, 0, 42, 0
2, 244556, Note_on_c, 0, 50, 68
2, 244608, Note_off_c, 0, 65, 0
2, 244632, Note_off_c, 0, 50, 0
2, 244632, Note_on_c, 0, 54, 73
2, 244644, Note_on_c, 0, 77, 92
2, 244656, Note_on_c, 0, 74, 70
2, 244664, Note_on_c, 0, 71, 63
2, 244720, Note_off_c, 0, 77, 0
2, 244728, Note_off_c, 0, 54, 0
2, 244732, Note_off_c, 0, 71, 0
2, 244752, Note_on_c, 0, 59, 61
2, 244772, Note_off_c, 0, 74, 0
2, 244824, Note_on_c, 0, 66, 85
2, 244828, Note_on_c, 0, 78, 95
2, 244836, Note_on_c, 0, 54, 55
2, 244844, Note_off_c, 0, 59, 0
2, 244880, Note_off_c, 0, 66, 0
2, 244896, Note_off_c, 0, 54, 0
2, 244900, Note_on_c, 0, 50, 66
2, 244904, Note_off_c, 0, 78, 0
2, 244992, Note_off_c, 0, 50, 0
2, 245016, Note_on_c, 0, 70, 86
2, 245032, Note_on_c, 0, 42, 70
2, 245036, Control_c, 0, 64, 72
2, 245048, Control_c, 0, 64, 0
2, 245092, Control_c, 0, 64, 56
2, 245096, Note_off_c, 0, 42, 0
2, 245104, Control_c, 0, 64, 127
2, 245108, Note_on_c, 0, 50, 70
2, 245172, Note_off_c, 0, 50, 0
2, 245184, Note_on_c, 0, 54, 71
2, 245188, Note_off_c, 0, 70, 0
2, 245200, Note_on_c, 0, 82, 81
2, 245204, Note_on_c, 0, 78, 71
2, 245212, Note_on_c, 0, 74, 67
2, 245260, Note_off_c, 0, 54, 0
2, 245284, Note_off_c, 0, 74, 0
2, 245292, Note_on_c, 0, 62, 62
2, 245300, Note_off_c, 0, 78, 0
2, 245320, Note_off_c, 0, 82, 0
2, 245360, Note_off_c, 0, 62, 0
2, 245372, Note_on_c, 0, 83, 92
2, 245372, Note_on_c, 0, 71, 83
2, 245384, Note_on_c, 0, 54, 65
2, 245432, Note_off_c, 0, 71, 0
2, 245460, Note_off_c, 0, 83, 0
2, 245480, Note_on_c, 0, 50, 72
2, 245484, Note_off_c, 0, 54, 0
2, 245528, Note_off_c, 0, 50, 0
2, 245580, Note_on_c, 0, 72, 97
2, 245596, Note_on_c, 0, 42, 72
2, 245612, Control_c, 0, 64, 24
2, 245620, Control_c, 0, 64, 0
2, 245680, Control_c, 0, 64, 72
2, 245684, Note_off_c, 0, 42, 0
2, 245684, Note_on_c, 0, 49, 57
2, 245692, Control_c, 0, 64, 127
2, 245744, Note_off_c, 0, 49, 0
2, 245756, Note_on_c, 0, 53, 68
2, 245784, Note_on_c, 0, 84, 93
2, 245788, Note_on_c, 0, 80, 73
2, 245792, Note_on_c, 0, 77, 74
2, 245824, Note_off_c, 0, 72, 0
2, 245848, Note_off_c, 0, 53, 0
2, 245860, Note_off_c, 0, 84, 0
2, 245860, Note_off_c, 0, 77, 0
2, 245864, Note_on_c, 0, 59, 63
2, 245908, Note_off_c, 0, 80, 0
2, 245952, Note_off_c, 0, 59, 0
2, 245956, Note_on_c, 0, 73, 89
2, 245960, Note_on_c, 0, 85, 100
2, 245968, Note_on_c, 0, 53, 43
2, 245996, Note_off_c, 0, 73, 0
2, 246008, Note_off_c, 0, 53, 0
2, 246012, Note_on_c, 0, 49, 63
2, 246024, Note_off_c, 0, 85, 0
2, 246136, Note_off_c, 0, 49, 0
2, 246148, Note_on_c, 0, 42, 73
2, 246152, Note_on_c, 0, 77, 102
2, 246172, Control_c, 0, 64, 88
2, 246184, Control_c, 0, 64, 0
2, 246240, Control_c, 0, 64, 88
2, 246252, Note_off_c, 0, 42, 0
2, 246252, Note_on_c, 0, 49, 61
2, 246252, Control_c, 0, 64, 127
2, 246336, Note_off_c, 0, 49, 0
2, 246344, Note_on_c, 0, 52, 68
2, 246348, Note_on_c, 0, 89, 96
2, 246348, Note_on_c, 0, 82, 75
2, 246352, Note_on_c, 0, 85, 76
2, 246376, Note_off_c, 0, 77, 0
2, 246412, Note_off_c, 0, 89, 0
2, 246412, Note_off_c, 0, 82, 0
2, 246424, Note_off_c, 0, 85, 0
2, 246428, Note_off_c, 0, 52, 0
2, 246428, Note_on_c, 0, 58, 63
2, 246512, Note_off_c, 0, 58, 0
2, 246532, Note_on_c, 0, 78, 82
2, 246536, Note_on_c, 0, 90, 91
2, 246568, Note_off_c, 0, 78, 0
2, 246568, Note_on_c, 0, 49, 46
2, 246588, Note_off_c, 0, 90, 0
2, 246628, Note_off_c, 0, 49, 0
2, 246648, Note_on_c, 0, 47, 69
2, 246656, Control_c, 0, 64, 88
2, 246668, Control_c, 0, 64, 0
2, 246720, Note_on_c, 0, 51, 67
2, 246724, Note_off_c, 0, 47, 0
2, 246724, Note_on_c, 0, 83, 86
2, 246736, Control_c, 0, 64, 88
2, 246744, Note_on_c, 0, 54, 55
2, 246748, Control_c, 0, 64, 127
2, 246792, Note_off_c, 0, 51, 0
2, 246816, Note_on_c, 0, 63, 87
2, 246820, Note_on_c, 0, 95, 110
2, 246832, Note_off_c, 0, 54, 0
2, 246844, Note_off_c, 0, 63, 0
2, 246936, Note_off_c, 0, 95, 0
2, 247024, Note_on_c, 0, 92, 84
2, 247068, Note_off_c, 0, 83, 0
2, 247096, Note_off_c, 0, 92, 0
2, 247120, Note_on_c, 0, 90, 83
2, 247208, Note_on_c, 0, 85, 77
2, 247264, Note_off_c, 0, 90, 0
2, 247296, Note_off_c, 0, 85, 0
2, 247296, Note_on_c, 0, 83, 85
2, 247340, Note_off_c, 0, 83, 0
2, 247392, Note_on_c, 0, 80, 76
2, 247452, Note_off_c, 0, 80, 0
2, 247472, Note_on_c, 0, 78, 78
2, 247560, Note_off_c, 0, 78, 0
2, 247560, Note_on_c, 0, 73, 77
2, 247640, Note_off_c, 0, 73, 0
2, 247644, Note_on_c, 0, 71, 80
2, 247700, Note_off_c, 0, 71, 0
2, 247740, Note_on_c, 0, 68, 74
2, 247816, Note_off_c, 0, 68, 0
2, 247828, Note_on_c, 0, 66, 69
2, 247904, Note_off_c, 0, 66, 0
2, 247924, Note_on_c, 0, 61, 70
2, 248000, Note_off_c, 0, 61, 0
2, 248012, Note_on_c, 0, 59, 78
2, 248068, Note_off_c, 0, 59, 0
2, 248116, Note_on_c, 0, 56, 76
2, 248188, Note_off_c, 0, 56, 0
2, 248216, Note_on_c, 0, 54, 50
2, 248276, Note_off_c, 0, 54, 0
2, 248292, Note_on_c, 0, 49, 73
2, 248356, Note_off_c, 0, 49, 0
2, 248372, Note_on_c, 0, 47, 78
2, 248424, Note_off_c, 0, 47, 0
2, 248512, Note_on_c, 0, 59, 89
2, 248520, Note_on_c, 0, 49, 87
2, 248520, Note_on_c, 0, 53, 83
2, 248524, Note_on_c, 0, 44, 62
2, 248564, Control_c, 0, 64, 40
2, 248576, Control_c, 0, 64, 0
2, 248680, Control_c, 0, 64, 88
2, 248688, Control_c, 0, 64, 127
2, 248760, Note_off_c, 0, 49, 0
2, 248768, Note_off_c, 0, 53, 0
2, 248792, Note_off_c, 0, 44, 0
2, 248800, Note_off_c, 0, 59, 0
2, 249152, Control_c, 0, 64, 40
2, 249160, Control_c, 0, 64, 0
2, 249168, Note_on_c, 0, 52, 89
2, 249172, Note_on_c, 0, 42, 93
2, 249180, Note_on_c, 0, 30, 93
2, 249192, Note_on_c, 0, 32, 53
2, 249212, Note_off_c, 0, 32, 0
2, 249240, Control_c, 0, 64, 127
2, 249244, Note_off_c, 0, 52, 0
2, 249276, Note_off_c, 0, 30, 0
2, 249276, Note_on_c, 0, 55, 81
2, 249300, Note_off_c, 0, 42, 0
2, 249364, Note_on_c, 0, 59, 70
2, 249388, Note_off_c, 0, 55, 0
2, 249428, Note_on_c, 0, 61, 59
2, 249440, Note_off_c, 0, 59, 0
2, 249448, Note_off_c, 0, 61, 0
2, 249500, Note_on_c, 0, 64, 83
2, 249556, Note_off_c, 0, 64, 0
2, 249592, Note_on_c, 0, 67, 82
2, 249680, Note_on_c, 0, 71, 78
2, 249684, Note_off_c, 0, 67, 0
2, 249704, Note_on_c, 0, 59, 73
2, 249708, Note_on_c, 0, 55, 81
2, 249712, Note_on_c, 0, 64, 81
2, 249712, Note_on_c, 0, 61, 62
2, 249776, Note_on_c, 0, 73, 76
2, 249800, Note_off_c, 0, 59, 0
2, 249808, Note_off_c, 0, 71, 0
2, 249828, Note_off_c, 0, 73, 0
2, 249876, Note_on_c, 0, 66, 85
2, 249876, Note_on_c, 0, 76, 92
2, 249904, Note_off_c, 0, 64, 0
2, 249944, Note_off_c, 0, 76, 0
2, 249956, Note_off_c, 0, 66, 0
2, 249976, Note_on_c, 0, 79, 92
2, 250060, Note_off_c, 0, 61, 0
2, 250060, Note_on_c, 0, 83, 82
2, 250076, Note_on_c, 0, 67, 96
2, 250092, Note_off_c, 0, 79, 0
2, 250148, Note_on_c, 0, 85, 71
2, 250172, Note_off_c, 0, 83, 0
2, 250188, Note_off_c, 0, 85, 0
2, 250236, Note_on_c, 0, 88, 84
2, 250252, Note_on_c, 0, 61, 86
2, 250280, Note_off_c, 0, 67, 0
2, 250320, Control_c, 0, 64, 56
2, 250332, Note_on_c, 0, 91, 89
2, 250356, Control_c, 0, 64, 127
2, 250396, Note_off_c, 0, 91, 0
2, 250420, Note_off_c, 0, 55, 0
2, 250424, Note_on_c, 0, 100, 85
2, 250516, Note_on_c, 0, 97, 75
2, 250528, Note_off_c, 0, 100, 0
2, 250588, Note_on_c, 0, 94, 73
2, 250596, Note_off_c, 0, 88, 0
2, 250608, Note_off_c, 0, 97, 0
2, 250684, Note_on_c, 0, 90, 64
2, 250732, Note_off_c, 0, 61, 0
2, 250768, Note_off_c, 0, 94, 0
2, 250772, Note_off_c, 0, 90, 0
2, 250772, Note_on_c, 0, 88, 78
2, 250776, Note_on_c, 0, 64, 87
2, 250784, Note_on_c, 0, 58, 59
2, 250788, Note_on_c, 0, 54, 69
2, 250792, Control_c, 0, 64, 104
2, 250804, Control_c, 0, 64, 40
2, 250816, Control_c, 0, 64, 24
2, 250824, Note_off_c, 0, 88, 0
2, 250828, Control_c, 0, 64, 72
2, 250836, Control_c, 0, 64, 127
2, 250880, Note_on_c, 0, 85, 76
2, 250952, Note_off_c, 0, 85, 0
2, 250976, Note_on_c, 0, 82, 71
2, 251012, Note_off_c, 0, 64, 0
2, 251020, Note_on_c, 0, 81, 21
2, 251028, Note_off_c, 0, 58, 0
2, 251036, Note_off_c, 0, 54, 0
2, 251052, Note_off_c, 0, 82, 0
2, 251052, Note_off_c, 0, 81, 0
2, 251080, Note_on_c, 0, 78, 68
2, 251144, Note_off_c, 0, 78, 0
2, 251160, Note_on_c, 0, 76, 79
2, 251232, Note_on_c, 0, 73, 77
2, 251240, Control_c, 0, 64, 72
2, 251252, Note_off_c, 0, 76, 0
2, 251252, Control_c, 0, 64, 0
2, 251268, Note_off_c, 0, 73, 0
2, 251276, Note_on_c, 0, 47, 69
2, 251308, Note_on_c, 0, 51, 74
2, 251324, Control_c, 0, 64, 127
2, 251328, Note_off_c, 0, 47, 0
2, 251340, Note_on_c, 0, 54, 62
2, 251388, Note_off_c, 0, 51, 0
2, 251408, Note_on_c, 0, 63, 85
2, 251412, Note_off_c, 0, 54, 0
2, 251424, Note_on_c, 0, 95, 103
2, 251428, Note_on_c, 0, 83, 90
2, 251440, Note_off_c, 0, 63, 0
2, 251568, Note_off_c, 0, 95, 0
2, 251624, Note_off_c, 0, 83, 0
2, 251624, Note_on_c, 0, 92, 81
2, 251704, Note_on_c, 0, 90, 74
2, 251708, Note_off_c, 0, 92, 0
2, 251792, Note_on_c, 0, 85, 67
2, 251868, Note_off_c, 0, 90, 0
2, 251880, Note_off_c, 0, 85, 0
2, 251884, Note_on_c, 0, 83, 81
2, 251932, Note_off_c, 0, 83, 0
2, 251984, Note_on_c, 0, 80, 25
2, 251992, Note_on_c, 0, 81, 51
2, 252016, Note_off_c, 0, 80, 0
2, 252016, Note_off_c, 0, 81, 0
2, 252060, Note_on_c, 0, 78, 72
2, 252148, Note_on_c, 0, 73, 69
2, 252156, Note_off_c, 0, 78, 0
2, 252240, Note_off_c, 0, 73, 0
2, 252244, Note_on_c, 0, 71, 73
2, 252292, Note_off_c, 0, 71, 0
2, 252324, Note_on_c, 0, 68, 74
2, 252396, Note_off_c, 0, 68, 0
2, 252412, Note_on_c, 0, 66, 67
2, 252500, Note_off_c, 0, 66, 0
2, 252508, Note_on_c, 0, 61, 76
2, 252592, Note_off_c, 0, 61, 0
2, 252600, Note_on_c, 0, 59, 77
2, 252664, Note_off_c, 0, 59, 0
2, 252700, Note_on_c, 0, 56, 75
2, 252772, Note_off_c, 0, 56, 0
2, 252792, Note_on_c, 0, 54, 65
2, 252880, Note_on_c, 0, 49, 77
2, 252888, Note_off_c, 0, 54, 0
2, 252928, Note_off_c, 0, 49, 0
2, 252952, Note_on_c, 0, 47, 74
2, 252996, Note_off_c, 0, 47, 0
2, 253092, Note_on_c, 0, 59, 78
2, 253096, Note_on_c, 0, 60, 77
2, 253096, Note_on_c, 0, 53, 70
2, 253100, Note_on_c, 0, 49, 89
2, 253100, Note_on_c, 0, 44, 71
2, 253136, Control_c, 0, 64, 40
2, 253148, Control_c, 0, 64, 0
2, 253196, Note_off_c, 0, 60, 0
2, 253252, Control_c, 0, 64, 72
2, 253264, Control_c, 0, 64, 127
2, 253348, Note_off_c, 0, 49, 0
2, 253376, Note_off_c, 0, 44, 0
2, 253412, Note_off_c, 0, 53, 0
2, 253452, Note_off_c, 0, 59, 0
2, 253688, Control_c, 0, 64, 88
2, 253700, Control_c, 0, 64, 0
2, 253740, Note_on_c, 0, 52, 82
2, 253744, Note_on_c, 0, 42, 95
2, 253748, Note_on_c, 0, 30, 93
2, 253804, Control_c, 0, 64, 127
2, 253812, Note_off_c, 0, 52, 0
2, 253844, Note_on_c, 0, 55, 75
2, 253876, Note_off_c, 0, 30, 0
2, 253892, Note_off_c, 0, 42, 0
2, 253936, Note_on_c, 0, 59, 68
2, 253960, Note_off_c, 0, 55, 0
2, 254012, Note_on_c, 0, 61, 57
2, 254032, Note_off_c, 0, 59, 0
2, 254036, Note_off_c, 0, 61, 0
2, 254088, Note_on_c, 0, 64, 74
2, 254144, Note_off_c, 0, 64, 0
2, 254184, Note_on_c, 0, 67, 83
2, 254260, Note_off_c, 0, 67, 0
2, 254272, Note_on_c, 0, 64, 85
2, 254276, Note_on_c, 0, 71, 81
2, 254280, Note_on_c, 0, 59, 58
2, 254280, Note_on_c, 0, 61, 65
2, 254288, Control_c, 0, 64, 72
2, 254292, Note_on_c, 0, 55, 70
2, 254300, Control_c, 0, 64, 0
2, 254332, Control_c, 0, 64, 40
2, 254344, Control_c, 0, 64, 104
2, 254356, Control_c, 0, 64, 127
2, 254368, Note_on_c, 0, 73, 72
2, 254396, Note_off_c, 0, 71, 0
2, 254408, Note_off_c, 0, 64, 0
2, 254416, Note_off_c, 0, 73, 0
2, 254448, Note_on_c, 0, 66, 89
2, 254464, Note_on_c, 0, 76, 85
2, 254524, Note_off_c, 0, 76, 0
2, 254532, Note_off_c, 0, 66, 0
2, 254560, Note_on_c, 0, 79, 88
2, 254576, Note_off_c, 0, 61, 0
2, 254644, Note_on_c, 0, 67, 95
2, 254648, Note_on_c, 0, 83, 80
2, 254684, Note_off_c, 0, 79, 0
2, 254740, Note_on_c, 0, 85, 71
2, 254768, Note_off_c, 0, 83, 0
2, 254780, Note_off_c, 0, 85, 0
2, 254816, Note_off_c, 0, 67, 0
2, 254824, Note_on_c, 0, 61, 87
2, 254832, Note_on_c, 0, 88, 82
2, 254924, Note_on_c, 0, 91, 89
2, 254996, Note_off_c, 0, 91, 0
2, 255004, Note_off_c, 0, 59, 0
2, 255024, Note_on_c, 0, 100, 87
2, 255072, Note_off_c, 0, 55, 0
2, 255112, Note_on_c, 0, 97, 72
2, 255132, Note_off_c, 0, 100, 0
2, 255164, Note_off_c, 0, 61, 0
2, 255200, Note_on_c, 0, 94, 30
2, 255204, Note_on_c, 0, 95, 78
2, 255212, Note_off_c, 0, 88, 0
2, 255224, Note_off_c, 0, 97, 0
2, 255280, Note_off_c, 0, 95, 0
2, 255296, Note_on_c, 0, 90, 59
2, 255316, Note_off_c, 0, 94, 0
2, 255392, Note_on_c, 0, 88, 75
2, 255396, Note_off_c, 0, 90, 0
2, 255396, Note_on_c, 0, 64, 87
2, 255396, Note_on_c, 0, 58, 64
2, 255400, Note_on_c, 0, 54, 64
2, 255412, Control_c, 0, 64, 104
2, 255424, Control_c, 0, 64, 40
2, 255436, Control_c, 0, 64, 0
2, 255448, Note_off_c, 0, 88, 0
2, 255468, Control_c, 0, 64, 24
2, 255484, Control_c, 0, 64, 88
2, 255492, Note_on_c, 0, 85, 80
2, 255492, Control_c, 0, 64, 127
2, 255568, Note_off_c, 0, 85, 0
2, 255584, Note_on_c, 0, 82, 69
2, 255668, Note_off_c, 0, 64, 0
2, 255684, Note_on_c, 0, 78, 69
2, 255696, Note_off_c, 0, 82, 0
2, 255712, Note_off_c, 0, 58, 0
2, 255720, Note_off_c, 0, 54, 0
2, 255752, Note_off_c, 0, 78, 0
2, 255768, Note_on_c, 0, 76, 68
2, 255836, Note_off_c, 0, 76, 0
2, 255868, Note_on_c, 0, 73, 62
2, 255936, Note_off_c, 0, 73, 0
2, 255956, Control_c, 0, 64, 40
2, 255964, Control_c, 0, 64, 0
2, 255972, Note_on_c, 0, 70, 68
2, 255992, Note_on_c, 0, 47, 70
2, 256020, Control_c, 0, 64, 40
2, 256032, Note_off_c, 0, 47, 0
2, 256032, Control_c, 0, 64, 88
2, 256044, Control_c, 0, 64, 127
2, 256056, Note_off_c, 0, 70, 0
2, 256072, Note_on_c, 0, 71, 76
2, 256148, Note_off_c, 0, 71, 0
2, 256168, Note_on_c, 0, 75, 58
2, 256172, Note_on_c, 0, 63, 55
2, 256228, Note_off_c, 0, 75, 0
2, 256248, Note_on_c, 0, 71, 64
2, 256276, Note_off_c, 0, 63, 0
2, 256340, Note_on_c, 0, 72, 75
2, 256364, Note_on_c, 0, 54, 33
2, 256372, Note_on_c, 0, 51, 37
2, 256392, Note_off_c, 0, 54, 0
2, 256400, Note_off_c, 0, 51, 0
2, 256404, Note_off_c, 0, 71, 0
2, 256408, Note_off_c, 0, 72, 0
2, 256428, Note_on_c, 0, 76, 74
2, 256496, Note_off_c, 0, 76, 0
2, 256504, Note_on_c, 0, 72, 64
2, 256504, Control_c, 0, 64, 72
2, 256516, Control_c, 0, 64, 0
2, 256548, Note_on_c, 0, 46, 70
2, 256584, Control_c, 0, 64, 40
2, 256596, Control_c, 0, 64, 104
2, 256608, Control_c, 0, 64, 127
2, 256612, Note_off_c, 0, 46, 0
2, 256612, Note_on_c, 0, 73, 77
2, 256636, Note_off_c, 0, 72, 0
2, 256704, Note_on_c, 0, 77, 79
2, 256708, Note_off_c, 0, 73, 0
2, 256712, Note_on_c, 0, 63, 60
2, 256772, Note_off_c, 0, 77, 0
2, 256792, Note_off_c, 0, 63, 0
2, 256796, Note_on_c, 0, 73, 65
2, 256864, Note_off_c, 0, 73, 0
2, 256888, Note_on_c, 0, 74, 82
2, 256892, Note_on_c, 0, 54, 53
2, 256896, Note_on_c, 0, 51, 50
2, 256940, Note_off_c, 0, 54, 0
2, 256944, Note_off_c, 0, 51, 0
2, 256956, Note_off_c, 0, 74, 0
2, 256980, Note_on_c, 0, 78, 68
2, 257036, Control_c, 0, 64, 88
2, 257044, Control_c, 0, 64, 24
2, 257048, Note_off_c, 0, 78, 0
2, 257056, Control_c, 0, 64, 0
2, 257060, Note_on_c, 0, 74, 76
2, 257072, Note_on_c, 0, 46, 70
2, 257124, Control_c, 0, 64, 88
2, 257136, Note_off_c, 0, 46, 0
2, 257136, Control_c, 0, 64, 127
2, 257156, Note_off_c, 0, 74, 0
2, 257164, Note_on_c, 0, 75, 79
2, 257256, Note_off_c, 0, 75, 0
2, 257256, Note_on_c, 0, 63, 64
2, 257260, Note_on_c, 0, 79, 82
2, 257336, Note_off_c, 0, 79, 0
2, 257344, Note_on_c, 0, 75, 71
2, 257352, Note_off_c, 0, 63, 0
2, 257432, Note_on_c, 0, 76, 85
2, 257436, Note_on_c, 0, 51, 44
2, 257476, Note_off_c, 0, 75, 0
2, 257488, Note_off_c, 0, 51, 0
2, 257508, Note_off_c, 0, 76, 0
2, 257516, Note_on_c, 0, 80, 70
2, 257588, Note_off_c, 0, 80, 0
2, 257588, Control_c, 0, 64, 88
2, 257596, Note_on_c, 0, 76, 78
2, 257596, Control_c, 0, 64, 24
2, 257608, Note_on_c, 0, 44, 71
2, 257608, Control_c, 0, 64, 0
2, 257664, Note_off_c, 0, 44, 0
2, 257664, Control_c, 0, 64, 88
2, 257676, Control_c, 0, 64, 127
2, 257696, Note_on_c, 0, 77, 87
2, 257752, Note_off_c, 0, 76, 0
2, 257768, Note_off_c, 0, 77, 0
2, 257780, Note_on_c, 0, 63, 64
2, 257792, Note_on_c, 0, 81, 76
2, 257860, Note_on_c, 0, 77, 75
2, 257868, Note_off_c, 0, 81, 0
2, 257880, Note_off_c, 0, 63, 0
2, 257948, Note_on_c, 0, 56, 53
2, 257952, Note_on_c, 0, 78, 76
2, 257980, Note_off_c, 0, 77, 0
2, 258036, Note_off_c, 0, 56, 0
2, 258036, Note_off_c, 0, 78, 0
2, 258040, Note_on_c, 0, 82, 71
2, 258092, Note_off_c, 0, 82, 0
2, 258116, Note_on_c, 0, 78, 73
2, 258128, Control_c, 0, 64, 72
2, 258132, Note_on_c, 0, 49, 71
2, 258136, Control_c, 0, 64, 0
2, 258180, Note_off_c, 0, 49, 0
2, 258184, Control_c, 0, 64, 40
2, 258192, Note_off_c, 0, 78, 0
2, 258196, Control_c, 0, 64, 104
2, 258208, Control_c, 0, 64, 127
2, 258216, Note_on_c, 0, 79, 82
2, 258284, Note_off_c, 0, 79, 0
2, 258308, Note_on_c, 0, 83, 78
2, 258312, Note_on_c, 0, 64, 66
2, 258368, Note_off_c, 0, 83, 0
2, 258372, Note_off_c, 0, 64, 0
2, 258392, Note_on_c, 0, 79, 80
2, 258480, Note_on_c, 0, 80, 75
2, 258480, Note_on_c, 0, 56, 53
2, 258508, Note_off_c, 0, 79, 0
2, 258508, Note_on_c, 0, 52, 53
2, 258536, Note_off_c, 0, 52, 0
2, 258548, Note_off_c, 0, 56, 0
2, 258572, Note_on_c, 0, 84, 81
2, 258600, Note_off_c, 0, 80, 0
2, 258644, Note_off_c, 0, 84, 0
2, 258656, Control_c, 0, 64, 104
2, 258668, Control_c, 0, 64, 40
2, 258672, Note_on_c, 0, 80, 72
2, 258676, Control_c, 0, 64, 0
2, 258680, Note_on_c, 0, 47, 72
2, 258736, Control_c, 0, 64, 56
2, 258744, Note_off_c, 0, 47, 0
2, 258748, Control_c, 0, 64, 127
2, 258768, Note_on_c, 0, 81, 85
2, 258780, Note_off_c, 0, 80, 0
2, 258832, Note_off_c, 0, 81, 0
2, 258848, Note_on_c, 0, 85, 81
2, 258856, Note_on_c, 0, 64, 63
2, 258912, Note_off_c, 0, 85, 0
2, 258920, Note_off_c, 0, 64, 0
2, 258936, Note_on_c, 0, 81, 75
2, 259000, Note_on_c, 0, 56, 61
2, 259020, Note_on_c, 0, 82, 72
2, 259028, Note_on_c, 0, 52, 61
2, 259048, Note_off_c, 0, 81, 0
2, 259076, Note_off_c, 0, 56, 0
2, 259084, Note_off_c, 0, 52, 0
2, 259096, Note_on_c, 0, 86, 77
2, 259112, Note_off_c, 0, 82, 0
2, 259148, Control_c, 0, 64, 56
2, 259160, Control_c, 0, 64, 0
2, 259168, Note_off_c, 0, 86, 0
2, 259200, Note_on_c, 0, 82, 73
2, 259208, Note_on_c, 0, 47, 73
2, 259228, Control_c, 0, 64, 72
2, 259240, Control_c, 0, 64, 127
2, 259260, Note_off_c, 0, 47, 0
2, 259288, Note_on_c, 0, 83, 72
2, 259328, Note_off_c, 0, 82, 0
2, 259360, Note_on_c, 0, 87, 73
2, 259372, Note_off_c, 0, 83, 0
2, 259376, Note_on_c, 0, 64, 65
2, 259432, Note_off_c, 0, 87, 0
2, 259444, Note_off_c, 0, 64, 0
2, 259448, Note_on_c, 0, 83, 77
2, 259532, Note_on_c, 0, 56, 48
2, 259540, Note_on_c, 0, 84, 83
2, 259548, Note_on_c, 0, 52, 63
2, 259564, Note_off_c, 0, 83, 0
2, 259608, Note_off_c, 0, 56, 0
2, 259612, Note_off_c, 0, 52, 0
2, 259624, Note_on_c, 0, 88, 74
2, 259636, Note_off_c, 0, 84, 0
2, 259688, Note_off_c, 0, 88, 0
2, 259700, Control_c, 0, 64, 104
2, 259712, Control_c, 0, 64, 40
2, 259716, Note_on_c, 0, 84, 81
2, 259720, Note_on_c, 0, 46, 74
2, 259724, Control_c, 0, 64, 0
2, 259760, Control_c, 0, 64, 40
2, 259768, Control_c, 0, 64, 104
2, 259772, Note_off_c, 0, 46, 0
2, 259780, Control_c, 0, 64, 127
2, 259808, Note_on_c, 0, 85, 77
2, 259848, Note_off_c, 0, 84, 0
2, 259900, Note_on_c, 0, 89, 80
2, 259900, Note_on_c, 0, 64, 66
2, 259908, Note_off_c, 0, 85, 0
2, 259960, Note_off_c, 0, 89, 0
2, 259976, Note_on_c, 0, 85, 72
2, 259984, Note_off_c, 0, 64, 0
2, 260056, Note_on_c, 0, 56, 49
2, 260060, Note_on_c, 0, 86, 80
2, 260064, Note_off_c, 0, 85, 0
2, 260092, Note_on_c, 0, 52, 42
2, 260128, Note_on_c, 0, 90, 72
2, 260132, Note_off_c, 0, 86, 0
2, 260156, Note_off_c, 0, 56, 0
2, 260168, Note_off_c, 0, 52, 0
2, 260200, Note_off_c, 0, 90, 0
2, 260232, Note_on_c, 0, 86, 84
2, 260232, Control_c, 0, 64, 104
2, 260240, Control_c, 0, 64, 24
2, 260252, Note_on_c, 0, 51, 77
2, 260252, Control_c, 0, 64, 0
2, 260288, Control_c, 0, 64, 24
2, 260300, Control_c, 0, 64, 88
2, 260308, Control_c, 0, 64, 127
2, 260316, Note_off_c, 0, 51, 0
2, 260328, Note_on_c, 0, 87, 77
2, 260356, Note_off_c, 0, 86, 0
2, 260424, Note_on_c, 0, 66, 67
2, 260432, Note_on_c, 0, 91, 82
2, 260444, Note_off_c, 0, 87, 0
2, 260500, Note_off_c, 0, 91, 0
2, 260516, Note_off_c, 0, 66, 0
2, 260520, Note_on_c, 0, 87, 76
2, 260596, Note_on_c, 0, 63, 71
2, 260612, Note_on_c, 0, 88, 89
2, 260616, Note_on_c, 0, 54, 60
2, 260632, Note_off_c, 0, 87, 0
2, 260656, Note_off_c, 0, 63, 0
2, 260676, Note_off_c, 0, 54, 0
2, 260688, Note_off_c, 0, 88, 0
2, 260692, Note_on_c, 0, 92, 78
2, 260772, Note_off_c, 0, 92, 0
2, 260772, Control_c, 0, 64, 72
2, 260780, Note_on_c, 0, 88, 76
2, 260780, Control_c, 0, 64, 0
2, 260816, Note_on_c, 0, 49, 75
2, 260828, Control_c, 0, 64, 72
2, 260836, Control_c, 0, 64, 127
2, 260868, Note_off_c, 0, 49, 0
2, 260868, Note_on_c, 0, 89, 75
2, 260932, Note_off_c, 0, 88, 0
2, 260944, Note_on_c, 0, 93, 75
2, 260948, Note_off_c, 0, 89, 0
2, 260964, Note_on_c, 0, 66, 74
2, 261008, Note_off_c, 0, 93, 0
2, 261028, Note_on_c, 0, 89, 76
2, 261064, Note_off_c, 0, 66, 0
2, 261124, Note_on_c, 0, 90, 77
2, 261128, Note_on_c, 0, 63, 67
2, 261148, Note_on_c, 0, 54, 55
2, 261152, Note_off_c, 0, 89, 0
2, 261168, Note_off_c, 0, 63, 0
2, 261180, Note_off_c, 0, 54, 0
2, 261212, Note_off_c, 0, 90, 0
2, 261212, Note_on_c, 0, 94, 76
2, 261280, Note_off_c, 0, 94, 0
2, 261300, Note_on_c, 0, 90, 79
2, 261300, Control_c, 0, 64, 88
2, 261312, Control_c, 0, 64, 0
2, 261316, Note_on_c, 0, 49, 78
2, 261344, Control_c, 0, 64, 40
2, 261356, Control_c, 0, 64, 88
2, 261368, Note_off_c, 0, 90, 0
2, 261368, Control_c, 0, 64, 127
2, 261376, Note_off_c, 0, 49, 0
2, 261384, Note_on_c, 0, 91, 74
2, 261456, Note_off_c, 0, 91, 0
2, 261460, Note_on_c, 0, 96, 76
2, 261480, Note_on_c, 0, 66, 77
2, 261540, Note_off_c, 0, 96, 0
2, 261568, Note_on_c, 0, 91, 79
2, 261572, Note_off_c, 0, 66, 0
2, 261632, Note_on_c, 0, 63, 62
2, 261652, Note_on_c, 0, 92, 73
2, 261652, Note_on_c, 0, 56, 50
2, 261664, Note_off_c, 0, 63, 0
2, 261672, Note_off_c, 0, 56, 0
2, 261688, Note_off_c, 0, 91, 0
2, 261740, Note_off_c, 0, 92, 0
2, 261740, Note_on_c, 0, 96, 73
2, 261804, Control_c, 0, 64, 56
2, 261808, Note_off_c, 0, 96, 0
2, 261816, Control_c, 0, 64, 0
2, 261832, Note_on_c, 0, 91, 86
2, 261836, Note_on_c, 0, 48, 84
2, 261852, Control_c, 0, 64, 24
2, 261864, Control_c, 0, 64, 104
2, 261872, Control_c, 0, 64, 127
2, 261880, Note_off_c, 0, 48, 0
2, 261916, Note_on_c, 0, 92, 76
2, 261940, Note_off_c, 0, 91, 0
2, 262000, Note_on_c, 0, 66, 74
2, 262004, Note_on_c, 0, 97, 77
2, 262016, Note_off_c, 0, 92, 0
2, 262076, Note_off_c, 0, 97, 0
2, 262096, Note_off_c, 0, 66, 0
2, 262100, Note_on_c, 0, 91, 84
2, 262140, Note_on_c, 0, 63, 67
2, 262156, Note_on_c, 0, 56, 51
2, 262180, Note_on_c, 0, 92, 76
2, 262188, Note_off_c, 0, 63, 0
2, 262200, Note_off_c, 0, 56, 0
2, 262204, Note_off_c, 0, 91, 0
2, 262256, Note_on_c, 0, 99, 85
2, 262276, Note_off_c, 0, 92, 0
2, 262320, Control_c, 0, 64, 104
2, 262328, Note_on_c, 0, 49, 70
2, 262332, Control_c, 0, 64, 0
2, 262364, Note_off_c, 0, 99, 0
2, 262376, Note_on_c, 0, 91, 76
2, 262376, Note_on_c, 0, 56, 72
2, 262392, Note_off_c, 0, 49, 0
2, 262404, Control_c, 0, 64, 104
2, 262412, Control_c, 0, 64, 127
2, 262412, Note_on_c, 0, 64, 69
2, 262436, Note_off_c, 0, 56, 0
2, 262452, Note_off_c, 0, 64, 0
2, 262476, Note_on_c, 0, 92, 92
2, 262492, Note_off_c, 0, 91, 0
2, 262560, Note_on_c, 0, 100, 90
2, 262572, Note_off_c, 0, 92, 0
2, 262636, Note_on_c, 0, 97, 73
2, 262680, Control_c, 0, 64, 40
2, 262684, Note_off_c, 0, 100, 0
2, 262688, Control_c, 0, 64, 0
2, 262700, Note_on_c, 0, 70, 91
2, 262712, Note_on_c, 0, 92, 81
2, 262716, Note_on_c, 0, 64, 63
2, 262720, Note_on_c, 0, 58, 58
2, 262724, Control_c, 0, 64, 72
2, 262736, Control_c, 0, 64, 127
2, 262740, Note_off_c, 0, 64, 0
2, 262788, Note_off_c, 0, 97, 0
2, 262800, Note_on_c, 0, 88, 85
2, 262804, Note_off_c, 0, 92, 0
2, 262804, Note_off_c, 0, 58, 0
2, 262820, Note_off_c, 0, 70, 0
2, 262844, Note_off_c, 0, 88, 0
2, 262872, Control_c, 0, 64, 40
2, 262884, Control_c, 0, 64, 0
2, 262904, Note_on_c, 0, 71, 92
2, 262904, Note_on_c, 0, 85, 75
2, 262904, Note_on_c, 0, 59, 71
2, 262904, Note_on_c, 0, 83, 62
2, 262904, Note_on_c, 0, 64, 75
2, 262904, Note_on_c, 0, 61, 60
2, 262952, Control_c, 0, 64, 56
2, 262960, Note_on_c, 0, 85, 76
2, 262964, Control_c, 0, 64, 127
2, 262968, Note_off_c, 0, 83, 0
2, 262972, Note_off_c, 0, 85, 0
2, 262976, Note_off_c, 0, 59, 0
2, 262980, Note_on_c, 0, 80, 76
2, 262980, Control_c, 0, 64, 56
2, 262984, Note_off_c, 0, 61, 0
2, 262992, Control_c, 0, 64, 88
2, 262996, Note_off_c, 0, 71, 0
2, 263004, Control_c, 0, 64, 127
2, 263016, Note_off_c, 0, 64, 0
2, 263020, Note_off_c, 0, 85, 0
2, 263044, Note_off_c, 0, 80, 0
2, 263084, Note_on_c, 0, 88, 86
2, 263156, Note_off_c, 0, 88, 0
2, 263168, Note_on_c, 0, 85, 71
2, 263192, Control_c, 0, 64, 104
2, 263204, Control_c, 0, 64, 56
2, 263216, Control_c, 0, 64, 0
2, 263252, Note_on_c, 0, 80, 79
2, 263252, Note_on_c, 0, 61, 81
2, 263256, Note_on_c, 0, 49, 65
2, 263276, Control_c, 0, 64, 24
2, 263288, Control_c, 0, 64, 72
2, 263300, Note_off_c, 0, 49, 0
2, 263300, Control_c, 0, 64, 104
2, 263312, Note_off_c, 0, 85, 0
2, 263312, Control_c, 0, 64, 127
2, 263328, Note_off_c, 0, 61, 0
2, 263336, Note_off_c, 0, 80, 0
2, 263344, Note_on_c, 0, 76, 74
2, 263372, Note_off_c, 0, 76, 0
2, 263452, Control_c, 0, 64, 104
2, 263456, Note_on_c, 0, 64, 88
2, 263464, Note_on_c, 0, 52, 77
2, 263468, Note_on_c, 0, 74, 28
2, 263468, Control_c, 0, 64, 40
2, 263476, Control_c, 0, 64, 0
2, 263492, Note_off_c, 0, 74, 0
2, 263524, Note_on_c, 0, 68, 67
2, 263536, Control_c, 0, 64, 72
2, 263548, Control_c, 0, 64, 104
2, 263560, Control_c, 0, 64, 127
2, 263564, Note_off_c, 0, 64, 0
2, 263584, Note_off_c, 0, 52, 0
2, 263596, Note_off_c, 0, 68, 0
2, 263636, Note_on_c, 0, 76, 79
2, 263688, Note_off_c, 0, 76, 0
2, 263720, Note_on_c, 0, 73, 67
2, 263772, Control_c, 0, 64, 88
2, 263784, Control_c, 0, 64, 40
2, 263800, Control_c, 0, 64, 0
2, 263812, Note_off_c, 0, 73, 0
2, 263812, Note_on_c, 0, 68, 70
2, 263816, Note_on_c, 0, 56, 85
2, 263816, Note_on_c, 0, 44, 67
2, 263836, Control_c, 0, 64, 24
2, 263848, Control_c, 0, 64, 56
2, 263860, Control_c, 0, 64, 88
2, 263868, Note_off_c, 0, 44, 0
2, 263868, Control_c, 0, 64, 127
2, 263900, Note_off_c, 0, 68, 0
2, 263908, Note_off_c, 0, 56, 0
2, 263908, Note_on_c, 0, 64, 71
2, 263948, Note_off_c, 0, 64, 0
2, 264000, Control_c, 0, 64, 88
2, 264012, Note_on_c, 0, 61, 71
2, 264012, Control_c, 0, 64, 40
2, 264020, Note_on_c, 0, 59, 96
2, 264020, Note_on_c, 0, 47, 82
2, 264024, Control_c, 0, 64, 0
2, 264072, Control_c, 0, 64, 40
2, 264076, Note_off_c, 0, 61, 0
2, 264084, Control_c, 0, 64, 88
2, 264092, Note_off_c, 0, 59, 0
2, 264096, Control_c, 0, 64, 127
2, 264104, Note_on_c, 0, 56, 67
2, 264120, Note_off_c, 0, 47, 0
2, 264176, Note_off_c, 0, 56, 0
2, 264204, Note_on_c, 0, 64, 76
2, 264276, Note_off_c, 0, 64, 0
2, 264276, Note_on_c, 0, 61, 62
2, 264356, Control_c, 0, 64, 72
2, 264364, Note_on_c, 0, 56, 74
2, 264368, Control_c, 0, 64, 0
2, 264384, Note_on_c, 0, 40, 74
2, 264388, Note_on_c, 0, 28, 66
2, 264408, Note_off_c, 0, 61, 0
2, 264416, Control_c, 0, 64, 24
2, 264428, Control_c, 0, 64, 88
2, 264436, Note_off_c, 0, 56, 0
2, 264436, Control_c, 0, 64, 127
2, 264440, Note_off_c, 0, 28, 0
2, 264460, Note_on_c, 0, 52, 82
2, 264464, Note_off_c, 0, 40, 0
2, 264512, Note_off_c, 0, 52, 0
2, 264524, Control_c, 0, 64, 104
2, 264536, Control_c, 0, 64, 40
2, 264544, Control_c, 0, 64, 0
2, 264568, Note_on_c, 0, 56, 85
2, 264576, Note_on_c, 0, 49, 69
2, 264576, Note_on_c, 0, 40, 67
2, 264580, Note_on_c, 0, 28, 65
2, 264604, Control_c, 0, 64, 88
2, 264620, Control_c, 0, 64, 127
2, 264624, Note_off_c, 0, 28, 0
2, 264632, Note_off_c, 0, 40, 0
2, 264636, Note_off_c, 0, 49, 0
2, 264656, Note_off_c, 0, 56, 0
2, 264772, Control_c, 0, 64, 104
2, 264784, Control_c, 0, 64, 56
2, 264796, Control_c, 0, 64, 0
2, 264944, Note_on_c, 0, 58, 88
2, 264948, Note_on_c, 0, 49, 69
2, 264952, Note_on_c, 0, 51, 69
2, 264952, Note_on_c, 0, 55, 72
2, 264952, Control_c, 0, 64, 40
2, 264956, Note_on_c, 0, 39, 70
2, 264956, Note_on_c, 0, 27, 73
2, 264964, Control_c, 0, 64, 127
2, 265004, Note_off_c, 0, 27, 0
2, 265008, Note_off_c, 0, 39, 0
2, 265032, Note_off_c, 0, 55, 0
2, 265088, Note_off_c, 0, 58, 0
2, 265120, Note_off_c, 0, 49, 0
2, 265168, Note_on_c, 0, 59, 89
2, 265168, Note_on_c, 0, 44, 74
2, 265168, Note_on_c, 0, 56, 66
2, 265168, Note_on_c, 0, 47, 70
2, 265168, Note_on_c, 0, 32, 69
2, 265168, Control_c, 0, 64, 40
2, 265184, Control_c, 0, 64, 0
2, 265224, Control_c, 0, 64, 24
2, 265236, Control_c, 0, 64, 127
2, 265308, Note_off_c, 0, 51, 0
2, 265344, Note_off_c, 0, 47, 0
2, 265348, Note_off_c, 0, 32, 0
2, 265392, Note_off_c, 0, 44, 0
2, 265392, Note_off_c, 0, 56, 0
2, 265400, Control_c, 0, 64, 88
2, 265404, Note_off_c, 0, 59, 0
2, 265412, Control_c, 0, 64, 40
2, 265424, Control_c, 0, 64, 0
2, 265532, Note_on_c, 0, 61, 82
2, 265532, Note_on_c, 0, 49, 67
2, 265532, Control_c, 0, 64, 72
2, 265544, Note_on_c, 0, 58, 60
2, 265544, Note_on_c, 0, 52, 69
2, 265544, Control_c, 0, 64, 127
2, 265548, Note_on_c, 0, 42, 69
2, 265548, Note_on_c, 0, 30, 73
2, 265564, Note_off_c, 0, 52, 0
2, 265580, Note_off_c, 0, 49, 0
2, 265584, Note_off_c, 0, 58, 0
2, 265584, Note_off_c, 0, 42, 0
2, 265584, Note_off_c, 0, 30, 0
2, 265604, Note_off_c, 0, 61, 0
2, 265696, Control_c, 0, 64, 88
2, 265712, Control_c, 0, 64, 0
2, 265732, Note_on_c, 0, 59, 82
2, 265732, Note_on_c, 0, 63, 84
2, 265736, Note_on_c, 0, 54, 66
2, 265744, Note_on_c, 0, 47, 76
2, 265748, Note_on_c, 0, 35, 78
2, 265748, Control_c, 0, 64, 40
2, 265760, Control_c, 0, 64, 127
2, 265768, Note_off_c, 0, 54, 0
2, 265788, Note_off_c, 0, 59, 0
2, 265788, Note_off_c, 0, 47, 0
2, 265796, Note_off_c, 0, 35, 0
2, 265816, Note_off_c, 0, 63, 0
2, 265876, Control_c, 0, 64, 88
2, 265888, Control_c, 0, 64, 56
2, 265900, Control_c, 0, 64, 24
2, 265904, Note_on_c, 0, 46, 74
2, 265904, Note_on_c, 0, 34, 77
2, 265912, Control_c, 0, 64, 0
2, 265948, Note_off_c, 0, 46, 0
2, 265964, Note_off_c, 0, 34, 0
2, 266080, Note_on_c, 0, 54, 63
2, 266080, Note_on_c, 0, 63, 88
2, 266084, Note_on_c, 0, 60, 68
2, 266088, Note_on_c, 0, 45, 74
2, 266096, Note_on_c, 0, 33, 76
2, 266140, Note_off_c, 0, 45, 0
2, 266140, Note_off_c, 0, 33, 0
2, 266152, Note_off_c, 0, 54, 0
2, 266152, Note_off_c, 0, 60, 0
2, 266160, Note_off_c, 0, 63, 0
2, 266292, Note_on_c, 0, 64, 92
2, 266300, Note_on_c, 0, 55, 70
2, 266300, Note_on_c, 0, 60, 70
2, 266304, Note_on_c, 0, 43, 75
2, 266308, Note_on_c, 0, 31, 76
2, 266328, Control_c, 0, 64, 72
2, 266340, Control_c, 0, 64, 127
2, 266344, Note_off_c, 0, 55, 0
2, 266352, Note_off_c, 0, 31, 0
2, 266356, Note_off_c, 0, 43, 0
2, 266368, Note_off_c, 0, 60, 0
2, 266376, Note_off_c, 0, 64, 0
2, 266624, Control_c, 0, 64, 104
2, 266636, Control_c, 0, 64, 56
2, 266648, Control_c, 0, 64, 0
2, 266664, Note_on_c, 0, 65, 85
2, 266668, Note_on_c, 0, 59, 72
2, 266680, Note_on_c, 0, 55, 72
2, 266688, Note_on_c, 0, 43, 73
2, 266708, Control_c, 0, 64, 72
2, 266716, Note_off_c, 0, 59, 0
2, 266720, Control_c, 0, 64, 127
2, 266732, Note_off_c, 0, 65, 0
2, 266732, Note_off_c, 0, 43, 0
2, 266740, Note_off_c, 0, 55, 0
2, 266860, Note_on_c, 0, 66, 87
2, 266860, Note_on_c, 0, 58, 72
2, 266868, Note_on_c, 0, 61, 70
2, 266872, Note_on_c, 0, 54, 74
2, 266872, Note_on_c, 0, 42, 74
2, 266888, Note_on_c, 0, 49, 46
2, 266896, Note_off_c, 0, 58, 0
2, 266900, Note_off_c, 0, 61, 0
2, 266908, Note_off_c, 0, 49, 0
2, 266912, Note_off_c, 0, 54, 0
2, 266916, Note_off_c, 0, 42, 0
2, 266920, Note_off_c, 0, 66, 0
2, 266968, Control_c, 0, 64, 104
2, 266980, Control_c, 0, 64, 72
2, 266992, Control_c, 0, 64, 40
2, 267004, Control_c, 0, 64, 0
2, 267024, Note_on_c, 0, 53, 76
2, 267028, Note_on_c, 0, 41, 77
2, 267072, Note_off_c, 0, 53, 0
2, 267076, Note_off_c, 0, 41, 0
2, 267196, Note_on_c, 0, 58, 77
2, 267196, Note_on_c, 0, 70, 88
2, 267196, Note_on_c, 0, 66, 72
2, 267196, Note_on_c, 0, 61, 70
2, 267196, Control_c, 0, 64, 40
2, 267208, Note_on_c, 0, 52, 77
2, 267208, Control_c, 0, 64, 104
2, 267216, Note_on_c, 0, 40, 78
2, 267220, Control_c, 0, 64, 127
2, 267240, Note_off_c, 0, 61, 0
2, 267244, Note_off_c, 0, 40, 0
2, 267252, Note_off_c, 0, 52, 0
2, 267264, Note_off_c, 0, 66, 0
2, 267272, Note_off_c, 0, 58, 0
2, 267288, Note_off_c, 0, 70, 0
2, 267312, Control_c, 0, 64, 104
2, 267324, Control_c, 0, 64, 40
2, 267336, Control_c, 0, 64, 0
2, 267392, Note_on_c, 0, 71, 91
2, 267392, Note_on_c, 0, 59, 77
2, 267396, Note_on_c, 0, 66, 73
2, 267400, Note_on_c, 0, 63, 70
2, 267408, Note_on_c, 0, 51, 84
2, 267408, Note_on_c, 0, 39, 86
2, 267444, Control_c, 0, 64, 40
2, 267456, Control_c, 0, 64, 104
2, 267468, Note_off_c, 0, 51, 0
2, 267468, Control_c, 0, 64, 127
2, 267476, Note_off_c, 0, 39, 0
2, 267492, Note_off_c, 0, 59, 0
2, 267516, Note_off_c, 0, 63, 0
2, 267536, Note_off_c, 0, 66, 0
2, 267540, Note_off_c, 0, 71, 0
2, 267716, Control_c, 0, 64, 72
2, 267732, Control_c, 0, 64, 0
2, 267752, Note_on_c, 0, 72, 88
2, 267752, Note_on_c, 0, 60, 70
2, 267752, Note_on_c, 0, 68, 73
2, 267760, Note_on_c, 0, 56, 74
2, 267768, Note_on_c, 0, 44, 76
2, 267788, Control_c, 0, 64, 40
2, 267800, Control_c, 0, 64, 104
2, 267812, Note_off_c, 0, 60, 0
2, 267812, Note_off_c, 0, 56, 0
2, 267812, Control_c, 0, 64, 127
2, 267816, Note_off_c, 0, 44, 0
2, 267828, Note_off_c, 0, 72, 0
2, 267844, Note_off_c, 0, 68, 0
2, 267956, Note_on_c, 0, 61, 83
2, 267956, Note_on_c, 0, 73, 90
2, 267956, Note_on_c, 0, 68, 73
2, 267956, Control_c, 0, 64, 88
2, 267968, Control_c, 0, 64, 0
2, 267972, Note_on_c, 0, 52, 77
2, 267972, Note_on_c, 0, 40, 79
2, 268052, Control_c, 0, 64, 56
2, 268064, Control_c, 0, 64, 127
2, 268080, Note_off_c, 0, 52, 0
2, 268088, Note_off_c, 0, 61, 0
2, 268092, Note_off_c, 0, 73, 0
2, 268092, Note_off_c, 0, 40, 0
2, 268128, Note_off_c, 0, 68, 0
2, 268332, Note_on_c, 0, 75, 93
2, 268332, Note_on_c, 0, 68, 78
2, 268332, Note_on_c, 0, 63, 84
2, 268332, Control_c, 0, 64, 72
2, 268344, Note_on_c, 0, 48, 80
2, 268348, Note_on_c, 0, 36, 83
2, 268348, Control_c, 0, 64, 0
2, 268400, Note_off_c, 0, 36, 0
2, 268408, Note_off_c, 0, 48, 0
2, 268408, Control_c, 0, 64, 104
2, 268420, Control_c, 0, 64, 127
2, 268424, Note_off_c, 0, 63, 0
2, 268460, Note_off_c, 0, 75, 0
2, 268520, Note_off_c, 0, 68, 0
2, 268556, Note_on_c, 0, 76, 95
2, 268560, Note_on_c, 0, 68, 74
2, 268560, Note_on_c, 0, 64, 77
2, 268560, Control_c, 0, 64, 24
2, 268568, Note_on_c, 0, 37, 85
2, 268568, Note_on_c, 0, 49, 81
2, 268572, Control_c, 0, 64, 0
2, 268644, Control_c, 0, 64, 72
2, 268656, Control_c, 0, 64, 127
2, 268680, Note_off_c, 0, 76, 0
2, 268688, Note_off_c, 0, 49, 0
2, 268692, Note_off_c, 0, 37, 0
2, 268736, Note_off_c, 0, 68, 0
2, 268752, Note_off_c, 0, 64, 0
2, 268988, Control_c, 0, 64, 104
2, 268992, Note_on_c, 0, 70, 93
2, 269000, Note_on_c, 0, 66, 73
2, 269000, Note_on_c, 0, 64, 76
2, 269004, Note_on_c, 0, 54, 86
2, 269004, Note_on_c, 0, 42, 87
2, 269004, Control_c, 0, 64, 0
2, 269044, Note_off_c, 0, 64, 0
2, 269048, Note_off_c, 0, 66, 0
2, 269060, Control_c, 0, 64, 56
2, 269068, Note_off_c, 0, 54, 0
2, 269072, Note_off_c, 0, 42, 0
2, 269072, Control_c, 0, 64, 127
2, 269076, Note_off_c, 0, 70, 0
2, 269316, Note_on_c, 0, 35, 84
2, 269320, Note_on_c, 0, 47, 107
2, 269328, Note_on_c, 0, 95, 97
2, 269336, Control_c, 0, 64, 24
2, 269348, Control_c, 0, 64, 0
2, 269428, Control_c, 0, 64, 88
2, 269440, Control_c, 0, 64, 127
2, 269444, Note_off_c, 0, 95, 0
2, 269448, Note_on_c, 0, 99, 79
2, 269496, Note_off_c, 0, 35, 0
2, 269528, Note_off_c, 0, 47, 0
2, 269548, Note_on_c, 0, 98, 89
2, 269552, Note_off_c, 0, 99, 0
2, 269628, Note_off_c, 0, 98, 0
2, 269632, Note_on_c, 0, 95, 80
2, 269724, Note_on_c, 0, 94, 76
2, 269752, Note_off_c, 0, 95, 0
2, 269796, Note_off_c, 0, 94, 0
2, 269804, Note_on_c, 0, 97, 72
2, 269836, Note_on_c, 0, 98, 44
2, 269880, Note_off_c, 0, 98, 0
2, 269884, Note_off_c, 0, 97, 0
2, 269908, Note_on_c, 0, 66, 93
2, 269912, Note_on_c, 0, 63, 79
2, 269920, Note_on_c, 0, 54, 73
2, 269920, Note_on_c, 0, 59, 70
2, 269920, Note_on_c, 0, 96, 58
2, 269936, Note_on_c, 0, 95, 29
2, 269952, Control_c, 0, 64, 88
2, 269960, Note_off_c, 0, 95, 0
2, 269964, Control_c, 0, 64, 72
2, 269976, Control_c, 0, 64, 127
2, 269992, Note_off_c, 0, 96, 0
2, 270008, Note_on_c, 0, 93, 80
2, 270096, Note_on_c, 0, 92, 80
2, 270160, Note_off_c, 0, 93, 0
2, 270160, Note_off_c, 0, 92, 0
2, 270184, Note_on_c, 0, 95, 81
2, 270244, Note_off_c, 0, 54, 0
2, 270252, Note_off_c, 0, 59, 0
2, 270256, Note_off_c, 0, 95, 0
2, 270268, Note_off_c, 0, 63, 0
2, 270276, Note_on_c, 0, 94, 80
2, 270316, Note_off_c, 0, 66, 0
2, 270360, Note_off_c, 0, 94, 0
2, 270376, Note_on_c, 0, 91, 75
2, 270476, Note_on_c, 0, 90, 73
2, 270480, Note_on_c, 0, 68, 92
2, 270484, Note_on_c, 0, 63, 73
2, 270488, Note_on_c, 0, 59, 69
2, 270492, Note_on_c, 0, 54, 56
2, 270496, Note_off_c, 0, 91, 0
2, 270496, Control_c, 0, 64, 40
2, 270508, Control_c, 0, 64, 0
2, 270544, Control_c, 0, 64, 56
2, 270552, Note_off_c, 0, 90, 0
2, 270556, Control_c, 0, 64, 127
2, 270564, Note_on_c, 0, 93, 85
2, 270656, Note_off_c, 0, 93, 0
2, 270656, Note_on_c, 0, 92, 86
2, 270716, Note_off_c, 0, 68, 0
2, 270740, Note_off_c, 0, 92, 0
2, 270740, Note_on_c, 0, 89, 47
2, 270772, Note_off_c, 0, 59, 0
2, 270800, Note_off_c, 0, 63, 0
2, 270804, Note_off_c, 0, 54, 0
2, 270824, Note_on_c, 0, 88, 69
2, 270836, Note_off_c, 0, 89, 0
2, 270884, Note_off_c, 0, 88, 0
2, 270912, Note_on_c, 0, 91, 86
2, 270992, Note_off_c, 0, 91, 0
2, 271000, Note_on_c, 0, 90, 79
2, 271024, Note_on_c, 0, 66, 90
2, 271024, Note_on_c, 0, 63, 73
2, 271032, Note_on_c, 0, 54, 67
2, 271032, Note_on_c, 0, 59, 62
2, 271032, Control_c, 0, 64, 40
2, 271044, Control_c, 0, 64, 0
2, 271056, Note_off_c, 0, 59, 0
2, 271076, Control_c, 0, 64, 40
2, 271092, Control_c, 0, 64, 127
2, 271104, Note_off_c, 0, 54, 0
2, 271108, Note_on_c, 0, 87, 78
2, 271136, Note_off_c, 0, 90, 0
2, 271140, Note_off_c, 0, 66, 0
2, 271144, Note_off_c, 0, 63, 0
2, 271204, Note_off_c, 0, 87, 0
2, 271204, Note_on_c, 0, 86, 79
2, 271272, Note_off_c, 0, 86, 0
2, 271300, Note_on_c, 0, 89, 78
2, 271368, Note_off_c, 0, 89, 0
2, 271392, Note_on_c, 0, 88, 77
2, 271464, Note_off_c, 0, 88, 0
2, 271472, Note_on_c, 0, 85, 77
2, 271556, Note_off_c, 0, 85, 0
2, 271572, Note_on_c, 0, 75, 102
2, 271572, Note_on_c, 0, 66, 69
2, 271572, Note_on_c, 0, 63, 72
2, 271576, Note_on_c, 0, 71, 83
2, 271576, Note_on_c, 0, 84, 74
2, 271632, Note_off_c, 0, 63, 0
2, 271648, Note_off_c, 0, 75, 0
2, 271648, Note_off_c, 0, 71, 0
2, 271656, Note_off_c, 0, 66, 0
2, 271656, Note_off_c, 0, 84, 0
2, 271664, Note_on_c, 0, 87, 53
2, 271756, Note_on_c, 0, 86, 82
2, 271816, Note_off_c, 0, 87, 0
2, 271836, Note_off_c, 0, 86, 0
2, 271844, Note_on_c, 0, 83, 71
2, 271932, Note_on_c, 0, 82, 73
2, 271936, Note_off_c, 0, 83, 0
2, 272000, Note_off_c, 0, 82, 0
2, 272000, Note_on_c, 0, 85, 55
2, 272092, Note_off_c, 0, 85, 0
2, 272092, Note_on_c, 0, 84, 64
2, 272180, Note_off_c, 0, 84, 0
2, 272188, Note_on_c, 0, 81, 74
2, 272264, Note_on_c, 0, 80, 72
2, 272276, Note_off_c, 0, 81, 0
2, 272336, Note_off_c, 0, 80, 0
2, 272352, Note_on_c, 0, 83, 79
2, 272440, Note_on_c, 0, 82, 78
2, 272444, Note_off_c, 0, 83, 0
2, 272520, Note_off_c, 0, 82, 0
2, 272524, Note_on_c, 0, 79, 77
2, 272596, Note_off_c, 0, 79, 0
2, 272612, Note_on_c, 0, 78, 81
2, 272696, Note_off_c, 0, 78, 0
2, 272708, Note_on_c, 0, 81, 75
2, 272788, Note_on_c, 0, 80, 81
2, 272800, Note_off_c, 0, 81, 0
2, 272868, Note_off_c, 0, 80, 0
2, 272868, Note_on_c, 0, 77, 79
2, 272944, Note_off_c, 0, 77, 0
2, 272968, Note_on_c, 0, 76, 80
2, 273028, Note_off_c, 0, 76, 0
2, 273060, Note_on_c, 0, 79, 76
2, 273136, Note_off_c, 0, 79, 0
2, 273152, Note_on_c, 0, 78, 77
2, 273248, Note_on_c, 0, 75, 74
2, 273252, Note_off_c, 0, 78, 0
2, 273324, Note_off_c, 0, 75, 0
2, 273332, Note_on_c, 0, 74, 74
2, 273428, Note_on_c, 0, 77, 80
2, 273448, Note_off_c, 0, 74, 0
2, 273476, Control_c, 0, 64, 56
2, 273488, Control_c, 0, 64, 0
2, 273504, Note_on_c, 0, 54, 75
2, 273512, Note_on_c, 0, 42, 55
2, 273516, Note_off_c, 0, 77, 0
2, 273516, Note_on_c, 0, 76, 81
2, 273536, Note_off_c, 0, 42, 0
2, 273552, Control_c, 0, 64, 56
2, 273564, Control_c, 0, 64, 127
2, 273572, Note_off_c, 0, 54, 0
2, 273596, Note_off_c, 0, 76, 0
2, 273600, Note_on_c, 0, 73, 74
2, 273684, Note_off_c, 0, 73, 0
2, 273696, Note_on_c, 0, 72, 70
2, 273708, Note_on_c, 0, 59, 90
2, 273712, Note_on_c, 0, 47, 72
2, 273716, Control_c, 0, 64, 40
2, 273728, Control_c, 0, 64, 0
2, 273780, Note_on_c, 0, 75, 58
2, 273792, Note_off_c, 0, 72, 0
2, 273812, Control_c, 0, 64, 56
2, 273824, Control_c, 0, 64, 127
2, 273876, Note_on_c, 0, 74, 78
2, 273920, Note_off_c, 0, 75, 0
2, 273952, Note_off_c, 0, 74, 0
2, 273956, Note_off_c, 0, 47, 0
2, 273968, Note_on_c, 0, 71, 64
2, 274000, Note_off_c, 0, 59, 0
2, 274064, Note_off_c, 0, 71, 0
2, 274064, Note_on_c, 0, 70, 50
2, 274120, Control_c, 0, 64, 88
2, 274132, Control_c, 0, 64, 24
2, 274136, Note_on_c, 0, 73, 60
2, 274144, Control_c, 0, 64, 0
2, 274168, Note_off_c, 0, 70, 0
2, 274180, Control_c, 0, 64, 24
2, 274192, Control_c, 0, 64, 72
2, 274200, Control_c, 0, 64, 127
2, 274228, Note_on_c, 0, 72, 81
2, 274248, Note_off_c, 0, 73, 0
2, 274300, Note_off_c, 0, 72, 0
2, 274312, Note_on_c, 0, 69, 74
2, 274396, Note_on_c, 0, 68, 71
2, 274400, Note_off_c, 0, 69, 0
2, 274476, Note_off_c, 0, 68, 0
2, 274484, Note_on_c, 0, 71, 76
2, 274548, Control_c, 0, 64, 88
2, 274552, Note_on_c, 0, 30, 56
2, 274560, Note_on_c, 0, 42, 91
2, 274560, Control_c, 0, 64, 72
2, 274564, Note_on_c, 0, 70, 79
2, 274572, Control_c, 0, 64, 88
2, 274584, Control_c, 0, 64, 127
2, 274588, Note_off_c, 0, 71, 0
2, 274600, Note_off_c, 0, 30, 0
2, 274624, Note_off_c, 0, 42, 0
2, 274656, Note_on_c, 0, 67, 75
2, 274664, Note_off_c, 0, 70, 0
2, 274724, Control_c, 0, 64, 56
2, 274736, Control_c, 0, 64, 0
2, 274752, Note_on_c, 0, 47, 102
2, 274752, Note_on_c, 0, 35, 80
2, 274760, Note_off_c, 0, 67, 0
2, 274760, Note_on_c, 0, 66, 72
2, 274772, Control_c, 0, 64, 24
2, 274784, Control_c, 0, 64, 88
2, 274796, Control_c, 0, 64, 127
2, 274840, Note_off_c, 0, 66, 0
2, 274844, Note_off_c, 0, 47, 0
2, 274852, Note_off_c, 0, 35, 0
2, 274856, Note_on_c, 0, 69, 74
2, 274932, Note_on_c, 0, 68, 67
2, 274948, Note_off_c, 0, 69, 0
2, 275024, Note_on_c, 0, 65, 66
2, 275032, Note_off_c, 0, 68, 0
2, 275056, Control_c, 0, 64, 88
2, 275068, Control_c, 0, 64, 24
2, 275080, Control_c, 0, 64, 0
2, 275104, Note_on_c, 0, 42, 88
2, 275104, Control_c, 0, 64, 24
2, 275108, Note_on_c, 0, 64, 82
2, 275108, Note_on_c, 0, 30, 67
2, 275116, Control_c, 0, 64, 72
2, 275120, Note_off_c, 0, 65, 0
2, 275128, Control_c, 0, 64, 127
2, 275144, Note_off_c, 0, 30, 0
2, 275152, Note_off_c, 0, 42, 0
2, 275184, Note_off_c, 0, 64, 0
2, 275200, Note_on_c, 0, 67, 74
2, 275272, Control_c, 0, 64, 56
2, 275284, Note_on_c, 0, 66, 75
2, 275284, Control_c, 0, 64, 0
2, 275292, Note_off_c, 0, 67, 0
2, 275292, Note_on_c, 0, 47, 96
2, 275292, Note_on_c, 0, 35, 81
2, 275320, Control_c, 0, 64, 88
2, 275332, Control_c, 0, 64, 127
2, 275356, Note_off_c, 0, 47, 0
2, 275364, Note_off_c, 0, 35, 0
2, 275384, Note_on_c, 0, 63, 74
2, 275432, Note_off_c, 0, 66, 0
2, 275472, Note_off_c, 0, 63, 0
2, 275476, Note_on_c, 0, 62, 74
2, 275556, Note_off_c, 0, 62, 0
2, 275580, Note_on_c, 0, 65, 74
2, 275580, Control_c, 0, 64, 56
2, 275592, Control_c, 0, 64, 0
2, 275640, Note_on_c, 0, 42, 92
2, 275640, Control_c, 0, 64, 40
2, 275648, Note_on_c, 0, 30, 73
2, 275652, Control_c, 0, 64, 88
2, 275660, Note_on_c, 0, 64, 82
2, 275664, Control_c, 0, 64, 127
2, 275676, Note_off_c, 0, 65, 0
2, 275676, Note_off_c, 0, 30, 0
2, 275684, Note_off_c, 0, 42, 0
2, 275744, Note_on_c, 0, 61, 76
2, 275764, Note_off_c, 0, 64, 0
2, 275832, Note_off_c, 0, 61, 0
2, 275832, Note_on_c, 0, 60, 80
2, 275832, Note_on_c, 0, 35, 80
2, 275832, Note_on_c, 0, 47, 96
2, 275852, Control_c, 0, 64, 56
2, 275864, Control_c, 0, 64, 0
2, 275880, Note_on_c, 0, 60, 68
2, 275880, Note_on_c, 0, 35, 61
2, 275920, Note_on_c, 0, 63, 58
2, 275948, Note_on_c, 0, 63, 59
2, 275960, Note_off_c, 0, 60, 0
2, 275960, Note_off_c, 0, 60, 0
2, 276036, Note_on_c, 0, 62, 83
2, 276076, Note_off_c, 0, 63, 0
2, 276096, Note_off_c, 0, 63, 0
2, 276104, Note_off_c, 0, 62, 0
2, 276112, Note_on_c, 0, 59, 74
2, 276200, Note_on_c, 0, 58, 72
2, 276216, Note_off_c, 0, 59, 0
2, 276272, Note_on_c, 0, 61, 62
2, 276276, Note_off_c, 0, 58, 0
2, 276368, Note_on_c, 0, 60, 83
2, 276428, Note_off_c, 0, 61, 0
2, 276452, Note_off_c, 0, 60, 0
2, 276452, Note_on_c, 0, 57, 73
2, 276456, Note_off_c, 0, 35, 0
2, 276456, Note_off_c, 0, 47, 0
2, 276536, Note_on_c, 0, 56, 71
2, 276568, Note_off_c, 0, 57, 0
2, 276628, Note_off_c, 0, 56, 0
2, 276628, Note_on_c, 0, 59, 75
2, 276636, Note_off_c, 0, 35, 0
2, 276704, Note_off_c, 0, 59, 0
2, 276708, Note_on_c, 0, 54, 81
2, 276720, Note_on_c, 0, 42, 76
2, 276792, Note_off_c, 0, 54, 0
2, 276800, Note_on_c, 0, 59, 81
2, 276816, Note_off_c, 0, 42, 0
2, 276876, Note_off_c, 0, 59, 0
2, 276892, Note_on_c, 0, 53, 86
2, 276900, Note_on_c, 0, 41, 76
2, 276976, Note_off_c, 0, 53, 0
2, 276976, Note_on_c, 0, 59, 76
2, 277000, Note_off_c, 0, 41, 0
2, 277056, Note_off_c, 0, 59, 0
2, 277060, Note_on_c, 0, 40, 74
2, 277060, Note_on_c, 0, 52, 82
2, 277124, Note_off_c, 0, 40, 0
2, 277148, Note_on_c, 0, 59, 81
2, 277164, Note_off_c, 0, 52, 0
2, 277232, Note_off_c, 0, 59, 0
2, 277232, Note_on_c, 0, 51, 83
2, 277240, Note_on_c, 0, 39, 71
2, 277316, Note_on_c, 0, 59, 80
2, 277328, Note_off_c, 0, 51, 0
2, 277328, Note_off_c, 0, 39, 0
2, 277396, Note_off_c, 0, 59, 0
2, 277408, Note_on_c, 0, 50, 85
2, 277408, Note_on_c, 0, 38, 80
2, 277476, Note_off_c, 0, 38, 0
2, 277492, Note_off_c, 0, 50, 0
2, 277500, Note_on_c, 0, 59, 83
2, 277576, Note_off_c, 0, 59, 0
2, 277580, Note_on_c, 0, 49, 84
2, 277584, Note_on_c, 0, 37, 77
2, 277668, Note_on_c, 0, 59, 82
2, 277676, Note_off_c, 0, 49, 0
2, 277688, Note_off_c, 0, 37, 0
2, 277752, Note_off_c, 0, 59, 0
2, 277760, Note_on_c, 0, 48, 87
2, 277764, Note_on_c, 0, 36, 78
2, 277832, Note_off_c, 0, 36, 0
2, 277844, Note_off_c, 0, 48, 0
2, 277856, Note_on_c, 0, 59, 81
2, 277940, Note_off_c, 0, 59, 0
2, 277960, Note_on_c, 0, 47, 99
2, 277960, Note_on_c, 0, 35, 88
2, 278028, Control_c, 0, 64, 72
2, 278040, Control_c, 0, 64, 127
2, 278056, Note_off_c, 0, 35, 64
2, 278068, Note_off_c, 0, 47, 0
2, 278492, Control_c, 0, 64, 104
2, 278504, Control_c, 0, 64, 72
2, 278512, Control_c, 0, 64, 40
2, 278524, Control_c, 0, 64, 0
2, 278548, Note_on_c, 0, 70, 95
2, 278548, Note_on_c, 0, 58, 81
2, 278552, Note_on_c, 0, 66, 75
2, 278556, Note_on_c, 0, 64, 82
2, 278560, Note_on_c, 0, 54, 82
2, 278564, Note_on_c, 0, 49, 77
2, 278564, Note_on_c, 0, 42, 72
2, 278608, Control_c, 0, 64, 40
2, 278620, Note_off_c, 0, 54, 0
2, 278620, Note_off_c, 0, 42, 0
2, 278620, Control_c, 0, 64, 127
2, 278624, Note_off_c, 0, 49, 0
2, 278632, Note_off_c, 0, 58, 0
2, 278636, Note_off_c, 0, 64, 0
2, 278652, Note_off_c, 0, 70, 0
2, 278656, Note_off_c, 0, 66, 0
2, 279164, Note_on_c, 0, 71, 97
2, 279164, Note_on_c, 0, 66, 75
2, 279168, Note_on_c, 0, 63, 71
2, 279168, Note_on_c, 0, 59, 83
2, 279180, Note_on_c, 0, 54, 79
2, 279184, Note_on_c, 0, 47, 74
2, 279200, Control_c, 0, 64, 40
2, 279212, Control_c, 0, 64, 0
2, 279296, Control_c, 0, 64, 72
2, 279308, Control_c, 0, 64, 127
2, 279320, Note_off_c, 0, 59, 0
2, 279340, Note_off_c, 0, 63, 0
2, 279340, Note_off_c, 0, 47, 0
2, 279348, Note_off_c, 0, 66, 0
2, 279352, Note_off_c, 0, 54, 0
2, 279364, Note_off_c, 0, 71, 0
2, 279800, Note_on_c, 0, 78, 95
2, 279804, Note_on_c, 0, 66, 83
2, 279808, Note_on_c, 0, 73, 78
2, 279812, Note_on_c, 0, 70, 77
2, 279816, Note_on_c, 0, 64, 78
2, 279816, Note_on_c, 0, 61, 65
2, 279816, Note_on_c, 0, 54, 64
2, 279848, Control_c, 0, 64, 88
2, 279856, Control_c, 0, 64, 0
2, 279944, Control_c, 0, 64, 88
2, 279952, Control_c, 0, 64, 127
2, 279988, Note_off_c, 0, 66, 0
2, 279992, Note_off_c, 0, 78, 0
2, 280000, Note_off_c, 0, 70, 0
2, 280004, Note_off_c, 0, 73, 0
2, 280004, Note_off_c, 0, 64, 0
2, 280004, Note_off_c, 0, 54, 0
2, 280016, Note_off_c, 0, 61, 0
2, 280452, Note_on_c, 0, 75, 106
2, 280452, Note_on_c, 0, 63, 83
2, 280452, Note_on_c, 0, 71, 83
2, 280452, Note_on_c, 0, 59, 81
2, 280452, Note_on_c, 0, 47, 82
2, 280452, Note_on_c, 0, 54, 80
2, 280452, Note_on_c, 0, 66, 69
2, 280580, Control_c, 0, 64, 56
2, 280588, Control_c, 0, 64, 0
2, 280692, Control_c, 0, 64, 127
2, 281108, Note_off_c, 0, 71, 64
2, 281116, Note_off_c, 0, 59, 64
2, 281120, Note_off_c, 0, 63, 64
2, 281132, Note_off_c, 0, 75, 0
2, 281132, Note_off_c, 0, 47, 64
2, 281148, Note_off_c, 0, 66, 64
2, 281180, Note_off_c, 0, 54, 64
2, 281624, Control_c, 0, 64, 88
2, 281632, Note_on_c, 0, 63, 100
2, 281636, Note_on_c, 0, 51, 85
2, 281636, Note_on_c, 0, 54, 73
2, 281636, Control_c, 0, 64, 0
2, 281640, Note_on_c, 0, 35, 91
2, 281640, Note_on_c, 0, 23, 96
2, 281644, Note_on_c, 0, 59, 76
2, 281692, Note_off_c, 0, 23, 0
2, 281696, Note_off_c, 0, 35, 0
2, 281700, Control_c, 0, 64, 104
2, 281708, Note_off_c, 0, 51, 0
2, 281708, Control_c, 0, 64, 127
2, 281736, Note_off_c, 0, 54, 0
2, 281736, Note_off_c, 0, 59, 0
2, 281764, Note_off_c, 0, 63, 0
2, 282912, Note_on_c, 0, 95, 110
2, 282916, Note_on_c, 0, 75, 82
2, 282920, Note_on_c, 0, 83, 94
2, 282920, Note_on_c, 0, 66, 74
2, 282924, Note_on_c, 0, 63, 73
2, 282928, Note_on_c, 0, 71, 75
2, 282980, Note_off_c, 0, 63, 0
2, 282988, Note_off_c, 0, 75, 0
2, 282988, Note_off_c, 0, 66, 0
2, 282988, Note_off_c, 0, 71, 0
2, 282992, Note_off_c, 0, 83, 0
2, 283012, Note_off_c, 0, 95, 0
2, 284252, Control_c, 0, 64, 88
2, 284260, Control_c, 0, 64, 24
2, 284268, Control_c, 0, 64, 0
2, 284268, End_track
3, 0, Start_track
3, 0, Title_t, "4th mov: Presto"
3, 0, Key_signature, 0, "major"
3, 0, End_track
4, 0, Start_track
4, 0, Title_t, "Robert Finley, piano"
4, 0, Key_signature, 0, "major"
4, 0, End_track
5, 0, Start_track
5, 0, Key_signature, 0, "major"
5, 0, End_track
6, 0, Start_track
6, 0, Key_signature, 0, "major"
6, 0, End_track
7, 0, Start_track
7, 0, Key_signature, 0, "major"
7, 0, End_track
8, 0, Start_track
8, 0, Key_signature, 0, "major"
8, 0, End_track
9, 0, Start_track
9, 0, Key_signature, 0, "major"
9, 0, End_track
10, 0, Start_track
10, 0, Key_signature, 0, "major"
10, 0, End_track
11, 0, Start_track
11, 0, Key_signature, 0, "major"
11, 0, End_track
0, 0, End_of_file
