0, 0, Header, 1, 13, 240
1, 0, Start_track
1, 0, Time_signature, 4, 2, 24, 8
1, 0, Tempo, 540541
1, 460, Tempo, 535714
1, 1004, Tempo, 530973
1, 1548, Tempo, 526316
1, 2092, Tempo, 521739
1, 2636, Tempo, 517241
1, 3180, Tempo, 512821
1, 3724, Tempo, 508475
1, 4268, Tempo, 504202
1, 4543, Tempo, 500000
1, 4573, Tempo, 504202
1, 4603, Tempo, 508475
1, 4670, Tempo, 512821
1, 4700, Tempo, 517241
1, 4730, Tempo, 521739
1, 5077, Tempo, 517241
1, 5418, Tempo, 512821
1, 5759, Tempo, 508475
1, 5789, Tempo, 504202
1, 5819, Tempo, 495868
1, 5849, Tempo, 491803
1, 5854, Tempo, 487805
1, 7770, Tempo, 491803
1, 7860, Tempo, 495868
1, 7950, Tempo, 500000
1, 8068, Tempo, 504202
1, 8098, Tempo, 508475
1, 8167, Tempo, 512821
1, 8497, Tempo, 517241
1, 8857, Tempo, 521739
1, 9217, Tempo, 526316
1, 9307, Tempo, 530973
1, 9397, Tempo, 535714
1, 9517, Tempo, 540541
1, 9607, Tempo, 545455
1, 9727, Tempo, 550459
1, 9817, Tempo, 555556
1, 9937, Tempo, 560748
1, 10027, Tempo, 566038
1, 10147, Tempo, 571429
1, 10237, Tempo, 576923
1, 10357, Tempo, 582524
1, 10447, Tempo, 588235
1, 10567, Tempo, 594059
1, 10853, Tempo, 588235
1, 10922, Tempo, 582524
1, 11115, Tempo, 576923
1, 11145, Tempo, 566038
1, 11167, Tempo, 555556
1, 12330, Tempo, 550459
1, 12360, Tempo, 540541
1, 12387, Tempo, 530973
1, 13085, Tempo, 526316
1, 13116, Tempo, 521739
1, 13639, Tempo, 517241
1, 13699, Tempo, 512821
1, 13759, Tempo, 508475
1, 13819, Tempo, 504202
1, 13858, Tempo, 500000
1, 14342, Tempo, 495868
1, 14406, Tempo, 491803
1, 14440, Tempo, 487805
1, 14500, Tempo, 483871
1, 14538, Tempo, 480000
1, 15073, Tempo, 483871
1, 15103, Tempo, 487805
1, 15174, Tempo, 500000
1, 15204, Tempo, 508475
1, 15234, Tempo, 521739
1, 15274, Tempo, 526316
1, 15304, Tempo, 530973
1, 16091, Tempo, 526316
1, 16343, Tempo, 521739
1, 16373, Tempo, 512821
1, 16403, Tempo, 500000
1, 16433, Tempo, 491803
1, 16434, Tempo, 487805
1, 16494, Tempo, 483871
1, 16524, Tempo, 480000
1, 16554, Tempo, 476190
1, 16614, Tempo, 472441
1, 16644, Tempo, 468750
1, 16674, Tempo, 465116
1, 16713, Tempo, 461538
1, 18103, Tempo, 465116
1, 18133, Tempo, 468750
1, 18163, Tempo, 472441
1, 18208, Tempo, 476190
1, 18238, Tempo, 480000
1, 20561, Tempo, 476190
1, 20602, Tempo, 472441
1, 20703, Tempo, 468750
1, 20770, Tempo, 465116
1, 20806, Tempo, 461538
1, 24090, Tempo, 465116
1, 24150, Tempo, 468750
1, 24210, Tempo, 472441
1, 24300, Tempo, 480000
1, 24330, Tempo, 483871
1, 24360, Tempo, 487805
1, 24404, Tempo, 491803
1, 24464, Tempo, 495868
1, 24524, Tempo, 500000
1, 24603, Tempo, 508475
1, 24633, Tempo, 517241
1, 24663, Tempo, 521739
1, 24702, Tempo, 526316
1, 24732, Tempo, 530973
1, 24796, Tempo, 566038
1, 24826, Tempo, 606061
1, 24856, Tempo, 645161
1, 24888, Tempo, 631579
1, 24918, Tempo, 618557
1, 24931, Tempo, 612245
1, 24961, Tempo, 606061
1, 24991, Tempo, 594059
1, 25009, Tempo, 582524
1, 25039, Tempo, 566038
1, 25069, Tempo, 545455
1, 25092, Tempo, 530973
1, 26394, Tempo, 535714
1, 26484, Tempo, 540541
1, 26574, Tempo, 545455
1, 86400, Tempo, 342857
1, 96960, Tempo, 375000
1, 97920, Tempo, 342857
1, 104640, Tempo, 400000
1, 105600, Tempo, 342857
1, 137280, Tempo, 400000
1, 138240, Tempo, 342857
1, 138240, End_track
2, 0, Start_track
2, 0, Text_t, "Piano Part 1"
2, 303, Note_on_c, 0, 56, 78
2, 303, Note_on_c, 0, 44, 74
2, 304, Control_c, 0, 64, 64
2, 304, Control_c, 0, 64, 96
2, 305, Control_c, 0, 64, 127
2, 1309, Control_c, 0, 64, 96
2, 1362, Control_c, 0, 64, 64
2, 1385, Control_c, 0, 64, 0
2, 1604, Control_c, 0, 64, 64
2, 1658, Note_off_c, 0, 56, 64
2, 1659, Note_off_c, 0, 44, 64
2, 1661, Note_on_c, 0, 37, 55
2, 1661, Note_on_c, 0, 49, 38
2, 1715, Note_off_c, 0, 49, 64
2, 1715, Note_off_c, 0, 37, 64
2, 1717, Note_on_c, 0, 56, 48
2, 1747, Control_c, 0, 64, 96
2, 1764, Control_c, 0, 64, 127
2, 1771, Note_off_c, 0, 56, 64
2, 1773, Note_on_c, 0, 61, 48
2, 1827, Note_off_c, 0, 61, 64
2, 1829, Note_on_c, 0, 64, 39
2, 1886, Note_off_c, 0, 64, 64
2, 1886, Note_on_c, 0, 61, 39
2, 1942, Note_off_c, 0, 61, 64
2, 1943, Note_on_c, 0, 56, 18
2, 1998, Note_off_c, 0, 56, 64
2, 1999, Note_on_c, 0, 49, 55
2, 2055, Note_off_c, 0, 49, 64
2, 2055, Note_on_c, 0, 56, 33
2, 2111, Note_off_c, 0, 56, 64
2, 2113, Note_on_c, 0, 61, 36
2, 2167, Note_off_c, 0, 61, 64
2, 2169, Note_on_c, 0, 64, 39
2, 2224, Note_off_c, 0, 64, 64
2, 2226, Note_on_c, 0, 61, 39
2, 2280, Note_off_c, 0, 61, 64
2, 2282, Note_on_c, 0, 56, 36
2, 2339, Note_off_c, 0, 56, 64
2, 2339, Note_on_c, 0, 49, 47
2, 2395, Note_off_c, 0, 49, 64
2, 2395, Note_on_c, 0, 56, 39
2, 2451, Note_off_c, 0, 56, 64
2, 2451, Note_on_c, 0, 61, 33
2, 2508, Note_off_c, 0, 61, 64
2, 2508, Note_on_c, 0, 64, 39
2, 2564, Note_off_c, 0, 64, 64
2, 2566, Note_on_c, 0, 61, 44
2, 2620, Note_off_c, 0, 61, 64
2, 2622, Note_on_c, 0, 56, 48
2, 2676, Note_off_c, 0, 56, 64
2, 2678, Note_on_c, 0, 49, 50
2, 2733, Note_off_c, 0, 49, 64
2, 2735, Note_on_c, 0, 56, 42
2, 2791, Note_off_c, 0, 56, 64
2, 2791, Note_on_c, 0, 61, 39
2, 2847, Note_off_c, 0, 61, 64
2, 2847, Note_on_c, 0, 64, 39
2, 2904, Note_off_c, 0, 64, 64
2, 2904, Note_on_c, 0, 61, 36
2, 2960, Note_off_c, 0, 61, 64
2, 2960, Note_on_c, 0, 56, 23
2, 3016, Note_off_c, 0, 56, 64
2, 3018, Note_on_c, 0, 49, 55
2, 3059, Note_on_c, 0, 68, 40
2, 3072, Note_off_c, 0, 49, 64
2, 3074, Note_on_c, 0, 56, 42
2, 3100, Note_off_c, 0, 68, 64
2, 3102, Note_on_c, 0, 69, 34
2, 3129, Note_off_c, 0, 56, 64
2, 3131, Note_on_c, 0, 61, 36
2, 3144, Note_off_c, 0, 69, 64
2, 3144, Note_on_c, 0, 68, 35
2, 3185, Note_off_c, 0, 68, 64
2, 3185, Note_off_c, 0, 61, 64
2, 3187, Note_on_c, 0, 67, 47
2, 3187, Note_on_c, 0, 64, 31
2, 3211, Control_c, 0, 64, 96
2, 3219, Control_c, 0, 64, 64
2, 3228, Note_off_c, 0, 67, 64
2, 3228, Note_on_c, 0, 68, 47
2, 3243, Note_off_c, 0, 64, 64
2, 3243, Note_on_c, 0, 61, 42
2, 3271, Note_off_c, 0, 68, 64
2, 3272, Note_on_c, 0, 73, 38
2, 3288, Control_c, 0, 64, 0
2, 3300, Note_off_c, 0, 61, 64
2, 3300, Note_on_c, 0, 56, 44
2, 3312, Note_off_c, 0, 73, 64
2, 3314, Note_on_c, 0, 76, 41
2, 3356, Note_off_c, 0, 76, 64
2, 3356, Note_off_c, 0, 56, 64
2, 3357, Note_on_c, 0, 75, 58
2, 3357, Note_on_c, 0, 52, 59
2, 3397, Note_off_c, 0, 75, 64
2, 3399, Note_on_c, 0, 73, 40
2, 3412, Note_off_c, 0, 52, 64
2, 3412, Note_on_c, 0, 56, 36
2, 3440, Note_off_c, 0, 73, 64
2, 3441, Note_on_c, 0, 75, 38
2, 3468, Note_off_c, 0, 56, 64
2, 3470, Note_on_c, 0, 61, 42
2, 3483, Note_off_c, 0, 75, 64
2, 3484, Note_on_c, 0, 73, 44
2, 3525, Note_off_c, 0, 73, 64
2, 3525, Note_off_c, 0, 61, 64
2, 3527, Note_on_c, 0, 72, 47
2, 3527, Note_on_c, 0, 64, 42
2, 3568, Note_off_c, 0, 72, 64
2, 3568, Note_on_c, 0, 73, 40
2, 3581, Note_off_c, 0, 64, 64
2, 3583, Note_on_c, 0, 61, 33
2, 3609, Note_off_c, 0, 73, 64
2, 3611, Note_on_c, 0, 76, 34
2, 3637, Note_off_c, 0, 61, 64
2, 3640, Note_on_c, 0, 56, 48
2, 3652, Note_off_c, 0, 76, 64
2, 3653, Note_on_c, 0, 80, 38
2, 3696, Note_off_c, 0, 80, 64
2, 3696, Note_off_c, 0, 56, 64
2, 3696, Note_on_c, 0, 49, 55
2, 3724, Control_c, 0, 64, 64
2, 3732, Control_c, 0, 64, 96
2, 3739, Note_on_c, 0, 68, 44
2, 3741, Control_c, 0, 64, 127
2, 3752, Note_off_c, 0, 49, 64
2, 3753, Note_on_c, 0, 56, 18
2, 3780, Note_off_c, 0, 68, 64
2, 3780, Note_on_c, 0, 69, 20
2, 3809, Note_off_c, 0, 56, 64
2, 3809, Note_on_c, 0, 61, 31
2, 3821, Note_off_c, 0, 69, 64
2, 3823, Note_on_c, 0, 68, 35
2, 3865, Note_off_c, 0, 61, 64
2, 3865, Note_off_c, 0, 68, 64
2, 3865, Note_on_c, 0, 67, 47
2, 3866, Note_on_c, 0, 64, 33
2, 3906, Note_off_c, 0, 67, 64
2, 3908, Note_on_c, 0, 68, 50
2, 3921, Note_off_c, 0, 64, 64
2, 3923, Note_on_c, 0, 61, 42
2, 3949, Note_off_c, 0, 68, 64
2, 3951, Note_on_c, 0, 73, 47
2, 3977, Note_off_c, 0, 61, 64
2, 3979, Note_on_c, 0, 56, 42
2, 3992, Note_off_c, 0, 73, 64
2, 3993, Note_on_c, 0, 76, 47
2, 4033, Note_off_c, 0, 76, 64
2, 4034, Note_off_c, 0, 56, 64
2, 4035, Note_on_c, 0, 75, 50
2, 4036, Note_on_c, 0, 52, 56
2, 4077, Note_off_c, 0, 75, 64
2, 4077, Note_on_c, 0, 73, 40
2, 4090, Note_off_c, 0, 52, 64
2, 4092, Note_on_c, 0, 56, 36
2, 4118, Note_off_c, 0, 73, 64
2, 4120, Note_on_c, 0, 75, 44
2, 4148, Note_off_c, 0, 56, 64
2, 4148, Note_on_c, 0, 61, 33
2, 4161, Note_off_c, 0, 75, 64
2, 4163, Note_on_c, 0, 73, 44
2, 4204, Note_off_c, 0, 73, 64
2, 4205, Note_off_c, 0, 61, 64
2, 4205, Note_on_c, 0, 72, 52
2, 4205, Note_on_c, 0, 64, 33
2, 4246, Note_off_c, 0, 72, 64
2, 4248, Note_on_c, 0, 73, 58
2, 4260, Note_off_c, 0, 64, 64
2, 4261, Note_on_c, 0, 61, 33
2, 4289, Note_off_c, 0, 73, 64
2, 4289, Note_on_c, 0, 76, 41
2, 4317, Note_off_c, 0, 61, 64
2, 4317, Note_on_c, 0, 56, 42
2, 4331, Note_off_c, 0, 76, 64
2, 4332, Note_on_c, 0, 80, 55
2, 4373, Note_off_c, 0, 80, 64
2, 4374, Note_off_c, 0, 56, 64
2, 4375, Note_on_c, 0, 51, 55
2, 4376, Control_c, 0, 64, 96
2, 4390, Control_c, 0, 64, 0
2, 4416, Note_on_c, 0, 69, 47
2, 4429, Note_off_c, 0, 51, 64
2, 4432, Note_on_c, 0, 57, 31
2, 4456, Control_c, 0, 64, 64
2, 4458, Note_off_c, 0, 69, 64
2, 4460, Note_on_c, 0, 73, 44
2, 4471, Control_c, 0, 64, 96
2, 4480, Control_c, 0, 64, 127
2, 4486, Note_off_c, 0, 57, 64
2, 4488, Note_on_c, 0, 61, 51
2, 4501, Note_off_c, 0, 73, 64
2, 4501, Note_on_c, 0, 75, 50
2, 4542, Note_off_c, 0, 75, 64
2, 4543, Note_off_c, 0, 61, 64
2, 4544, Note_on_c, 0, 78, 55
2, 4545, Note_on_c, 0, 66, 38
2, 4585, Note_off_c, 0, 78, 64
2, 4586, Note_on_c, 0, 81, 52
2, 4600, Note_off_c, 0, 66, 64
2, 4601, Note_on_c, 0, 61, 39
2, 4629, Note_off_c, 0, 81, 64
2, 4629, Note_on_c, 0, 85, 58
2, 4657, Note_off_c, 0, 61, 64
2, 4657, Note_on_c, 0, 57, 29
2, 4670, Note_off_c, 0, 85, 64
2, 4672, Note_on_c, 0, 87, 58
2, 4713, Note_off_c, 0, 87, 64
2, 4714, Note_off_c, 0, 57, 64
2, 4714, Note_on_c, 0, 95, 52
2, 4714, Note_on_c, 0, 54, 47
2, 4754, Note_off_c, 0, 95, 64
2, 4756, Note_on_c, 0, 93, 52
2, 4769, Note_off_c, 0, 54, 64
2, 4770, Note_on_c, 0, 61, 28
2, 4798, Note_off_c, 0, 93, 64
2, 4798, Note_on_c, 0, 92, 47
2, 4826, Note_off_c, 0, 61, 64
2, 4828, Note_on_c, 0, 63, 38
2, 4841, Note_off_c, 0, 92, 64
2, 4841, Note_on_c, 0, 90, 44
2, 4882, Note_off_c, 0, 90, 64
2, 4883, Note_off_c, 0, 63, 64
2, 4884, Note_on_c, 0, 88, 47
2, 4884, Note_on_c, 0, 69, 44
2, 4925, Note_off_c, 0, 88, 64
2, 4926, Note_on_c, 0, 87, 44
2, 4938, Note_off_c, 0, 69, 64
2, 4940, Note_on_c, 0, 63, 32
2, 4967, Note_off_c, 0, 87, 64
2, 4968, Note_on_c, 0, 90, 50
2, 4995, Note_off_c, 0, 63, 64
2, 4997, Note_on_c, 0, 61, 26
2, 5010, Note_off_c, 0, 90, 64
2, 5010, Note_on_c, 0, 85, 44
2, 5043, Control_c, 0, 64, 96
2, 5053, Note_off_c, 0, 85, 64
2, 5053, Note_off_c, 0, 61, 64
2, 5054, Note_on_c, 0, 84, 47
2, 5054, Note_on_c, 0, 44, 50
2, 5054, Control_c, 0, 64, 0
2, 5094, Note_off_c, 0, 84, 64
2, 5096, Note_on_c, 0, 87, 40
2, 5104, Control_c, 0, 64, 64
2, 5110, Note_off_c, 0, 44, 64
2, 5110, Note_on_c, 0, 51, 32
2, 5115, Control_c, 0, 64, 127
2, 5137, Note_off_c, 0, 87, 64
2, 5138, Note_on_c, 0, 81, 44
2, 5166, Note_off_c, 0, 51, 64
2, 5166, Note_on_c, 0, 54, 32
2, 5179, Note_off_c, 0, 81, 64
2, 5181, Note_on_c, 0, 80, 47
2, 5222, Note_off_c, 0, 80, 64
2, 5222, Note_off_c, 0, 54, 64
2, 5223, Note_on_c, 0, 78, 47
2, 5223, Note_on_c, 0, 60, 32
2, 5263, Note_off_c, 0, 78, 64
2, 5265, Note_on_c, 0, 81, 44
2, 5279, Note_off_c, 0, 60, 64
2, 5280, Note_on_c, 0, 54, 40
2, 5306, Note_off_c, 0, 81, 64
2, 5308, Note_on_c, 0, 76, 52
2, 5335, Note_off_c, 0, 54, 64
2, 5337, Note_on_c, 0, 51, 44
2, 5350, Note_off_c, 0, 76, 64
2, 5350, Note_on_c, 0, 75, 44
2, 5391, Note_off_c, 0, 75, 64
2, 5391, Note_off_c, 0, 51, 64
2, 5393, Note_on_c, 0, 78, 47
2, 5393, Note_on_c, 0, 44, 58
2, 5434, Note_off_c, 0, 78, 64
2, 5435, Note_on_c, 0, 73, 40
2, 5447, Note_off_c, 0, 44, 64
2, 5449, Note_on_c, 0, 51, 47
2, 5475, Note_off_c, 0, 73, 64
2, 5477, Note_on_c, 0, 72, 44
2, 5506, Note_off_c, 0, 51, 64
2, 5506, Note_on_c, 0, 54, 50
2, 5519, Note_off_c, 0, 72, 64
2, 5520, Note_on_c, 0, 75, 27
2, 5562, Note_off_c, 0, 75, 64
2, 5562, Note_off_c, 0, 54, 64
2, 5562, Note_on_c, 0, 69, 44
2, 5563, Note_on_c, 0, 60, 34
2, 5603, Note_off_c, 0, 69, 64
2, 5605, Note_on_c, 0, 68, 27
2, 5618, Note_off_c, 0, 60, 64
2, 5618, Note_on_c, 0, 54, 32
2, 5646, Note_off_c, 0, 68, 64
2, 5647, Note_on_c, 0, 71, 36
2, 5675, Note_off_c, 0, 54, 64
2, 5675, Note_on_c, 0, 51, 40
2, 5688, Note_off_c, 0, 71, 64
2, 5689, Note_on_c, 0, 69, 39
2, 5731, Note_off_c, 0, 51, 64
2, 5733, Note_on_c, 0, 49, 58
2, 5748, Control_c, 0, 64, 96
2, 5759, Control_c, 0, 64, 0
2, 5774, Note_off_c, 0, 69, 64
2, 5774, Note_on_c, 0, 68, 47
2, 5787, Note_off_c, 0, 49, 64
2, 5789, Note_on_c, 0, 56, 42
2, 5815, Note_off_c, 0, 68, 64
2, 5817, Note_on_c, 0, 69, 31
2, 5823, Control_c, 0, 64, 64
2, 5838, Control_c, 0, 64, 96
2, 5844, Note_off_c, 0, 56, 64
2, 5845, Note_on_c, 0, 61, 39
2, 5845, Control_c, 0, 64, 127
2, 5858, Note_off_c, 0, 69, 64
2, 5858, Note_on_c, 0, 68, 35
2, 5900, Note_off_c, 0, 68, 64
2, 5900, Note_off_c, 0, 61, 64
2, 5902, Note_on_c, 0, 67, 41
2, 5902, Note_on_c, 0, 64, 24
2, 5943, Note_off_c, 0, 67, 64
2, 5943, Note_on_c, 0, 68, 50
2, 5958, Note_off_c, 0, 64, 64
2, 5958, Note_on_c, 0, 61, 31
2, 5986, Note_off_c, 0, 68, 64
2, 5986, Note_on_c, 0, 73, 47
2, 6014, Note_off_c, 0, 61, 64
2, 6014, Note_on_c, 0, 56, 39
2, 6027, Note_off_c, 0, 73, 64
2, 6029, Note_on_c, 0, 76, 47
2, 6071, Note_off_c, 0, 76, 64
2, 6071, Note_off_c, 0, 56, 64
2, 6071, Note_on_c, 0, 75, 47
2, 6072, Note_on_c, 0, 52, 59
2, 6097, Control_c, 0, 64, 96
2, 6108, Control_c, 0, 64, 0
2, 6112, Note_off_c, 0, 75, 64
2, 6114, Note_on_c, 0, 73, 29
2, 6127, Note_off_c, 0, 52, 64
2, 6127, Note_on_c, 0, 56, 39
2, 6155, Note_off_c, 0, 73, 64
2, 6155, Note_on_c, 0, 75, 47
2, 6183, Note_off_c, 0, 56, 64
2, 6185, Note_on_c, 0, 61, 31
2, 6198, Note_off_c, 0, 75, 64
2, 6198, Note_on_c, 0, 73, 47
2, 6240, Note_off_c, 0, 73, 64
2, 6240, Note_off_c, 0, 61, 64
2, 6241, Note_on_c, 0, 72, 47
2, 6242, Note_on_c, 0, 64, 33
2, 6283, Note_off_c, 0, 72, 64
2, 6283, Note_on_c, 0, 73, 47
2, 6296, Note_off_c, 0, 64, 64
2, 6298, Note_on_c, 0, 61, 33
2, 6324, Note_off_c, 0, 73, 64
2, 6326, Note_on_c, 0, 76, 47
2, 6352, Note_off_c, 0, 61, 64
2, 6354, Note_on_c, 0, 56, 33
2, 6367, Note_off_c, 0, 76, 64
2, 6367, Note_on_c, 0, 80, 44
2, 6410, Note_off_c, 0, 80, 64
2, 6411, Note_off_c, 0, 56, 64
2, 6411, Note_on_c, 0, 49, 50
2, 6429, Control_c, 0, 64, 64
2, 6440, Control_c, 0, 64, 127
2, 6454, Note_on_c, 0, 68, 29
2, 6467, Note_off_c, 0, 49, 64
2, 6467, Note_on_c, 0, 56, 51
2, 6495, Note_off_c, 0, 68, 64
2, 6495, Note_on_c, 0, 70, 32
2, 6523, Note_off_c, 0, 56, 64
2, 6524, Note_on_c, 0, 58, 40
2, 6536, Note_off_c, 0, 70, 64
2, 6538, Note_on_c, 0, 68, 29
2, 6579, Note_off_c, 0, 68, 64
2, 6580, Note_off_c, 0, 58, 64
2, 6580, Note_on_c, 0, 67, 47
2, 6581, Note_on_c, 0, 64, 44
2, 6621, Note_off_c, 0, 67, 64
2, 6623, Note_on_c, 0, 68, 50
2, 6636, Note_off_c, 0, 64, 64
2, 6637, Note_on_c, 0, 58, 40
2, 6664, Note_off_c, 0, 68, 64
2, 6666, Note_on_c, 0, 73, 55
2, 6692, Note_off_c, 0, 58, 64
2, 6694, Note_on_c, 0, 56, 33
2, 6707, Note_off_c, 0, 73, 64
2, 6707, Note_on_c, 0, 76, 47
2, 6748, Note_off_c, 0, 76, 64
2, 6749, Note_off_c, 0, 56, 64
2, 6750, Note_on_c, 0, 75, 44
2, 6750, Note_on_c, 0, 52, 52
2, 6792, Note_off_c, 0, 75, 64
2, 6792, Note_on_c, 0, 73, 44
2, 6793, Control_c, 0, 64, 96
2, 6804, Note_off_c, 0, 52, 64
2, 6806, Note_on_c, 0, 56, 42
2, 6808, Control_c, 0, 64, 0
2, 6833, Note_off_c, 0, 73, 64
2, 6835, Note_on_c, 0, 75, 44
2, 6863, Note_off_c, 0, 56, 64
2, 6863, Note_on_c, 0, 58, 50
2, 6876, Note_off_c, 0, 75, 64
2, 6878, Note_on_c, 0, 73, 47
2, 6919, Note_off_c, 0, 73, 64
2, 6919, Note_off_c, 0, 58, 64
2, 6920, Note_on_c, 0, 72, 47
2, 6920, Note_on_c, 0, 61, 42
2, 6960, Note_off_c, 0, 72, 64
2, 6962, Note_on_c, 0, 73, 44
2, 6975, Note_off_c, 0, 61, 64
2, 6976, Note_on_c, 0, 58, 32
2, 7004, Note_off_c, 0, 73, 64
2, 7004, Note_on_c, 0, 76, 50
2, 7032, Note_off_c, 0, 58, 64
2, 7032, Note_on_c, 0, 56, 39
2, 7045, Note_off_c, 0, 76, 64
2, 7047, Note_on_c, 0, 80, 55
2, 7088, Note_off_c, 0, 80, 64
2, 7088, Note_off_c, 0, 56, 64
2, 7090, Note_on_c, 0, 75, 47
2, 7090, Note_on_c, 0, 51, 50
2, 7105, Control_c, 0, 64, 64
2, 7116, Control_c, 0, 64, 127
2, 7131, Note_off_c, 0, 75, 64
2, 7131, Note_on_c, 0, 76, 39
2, 7144, Note_off_c, 0, 51, 64
2, 7146, Note_on_c, 0, 56, 44
2, 7173, Note_off_c, 0, 76, 64
2, 7175, Note_on_c, 0, 75, 44
2, 7200, Note_off_c, 0, 56, 64
2, 7202, Note_on_c, 0, 59, 25
2, 7216, Note_off_c, 0, 75, 64
2, 7216, Note_on_c, 0, 74, 39
2, 7257, Note_off_c, 0, 74, 64
2, 7257, Note_off_c, 0, 59, 64
2, 7259, Note_on_c, 0, 75, 50
2, 7259, Note_on_c, 0, 63, 40
2, 7300, Note_off_c, 0, 75, 64
2, 7300, Note_on_c, 0, 83, 39
2, 7315, Note_off_c, 0, 63, 64
2, 7315, Note_on_c, 0, 59, 36
2, 7343, Note_off_c, 0, 83, 64
2, 7344, Note_on_c, 0, 82, 44
2, 7371, Note_off_c, 0, 59, 64
2, 7372, Note_on_c, 0, 56, 42
2, 7385, Note_off_c, 0, 82, 64
2, 7387, Note_on_c, 0, 80, 40
2, 7411, Control_c, 0, 64, 96
2, 7420, Control_c, 0, 64, 0
2, 7428, Note_off_c, 0, 80, 64
2, 7428, Note_off_c, 0, 56, 64
2, 7428, Note_on_c, 0, 79, 56
2, 7429, Note_on_c, 0, 51, 47
2, 7469, Note_off_c, 0, 79, 64
2, 7471, Note_on_c, 0, 88, 56
2, 7484, Note_off_c, 0, 51, 64
2, 7484, Note_on_c, 0, 58, 29
2, 7492, Control_c, 0, 64, 64
2, 7503, Control_c, 0, 64, 127
2, 7512, Note_off_c, 0, 88, 64
2, 7512, Note_on_c, 0, 87, 55
2, 7540, Note_off_c, 0, 58, 64
2, 7542, Note_on_c, 0, 61, 42
2, 7556, Note_off_c, 0, 87, 64
2, 7556, Note_on_c, 0, 85, 50
2, 7597, Note_off_c, 0, 85, 64
2, 7597, Note_off_c, 0, 61, 64
2, 7599, Note_on_c, 0, 83, 50
2, 7599, Note_on_c, 0, 67, 47
2, 7640, Note_off_c, 0, 83, 64
2, 7640, Note_on_c, 0, 82, 38
2, 7653, Note_off_c, 0, 67, 64
2, 7655, Note_on_c, 0, 61, 44
2, 7681, Note_off_c, 0, 82, 64
2, 7683, Note_on_c, 0, 80, 35
2, 7709, Note_off_c, 0, 61, 64
2, 7711, Note_on_c, 0, 58, 35
2, 7724, Note_off_c, 0, 80, 64
2, 7725, Note_on_c, 0, 79, 31
2, 7767, Note_off_c, 0, 79, 64
2, 7768, Note_off_c, 0, 58, 64
2, 7768, Note_on_c, 0, 82, 38
2, 7769, Note_on_c, 0, 44, 50
2, 7773, Control_c, 0, 64, 96
2, 7788, Control_c, 0, 64, 0
2, 7809, Note_off_c, 0, 82, 64
2, 7811, Note_on_c, 0, 80, 44
2, 7824, Note_off_c, 0, 44, 64
2, 7824, Note_on_c, 0, 51, 35
2, 7841, Control_c, 0, 64, 64
2, 7850, Control_c, 0, 64, 127
2, 7852, Note_off_c, 0, 80, 64
2, 7852, Note_on_c, 0, 83, 44
2, 7881, Note_off_c, 0, 51, 64
2, 7881, Note_on_c, 0, 56, 44
2, 7894, Note_off_c, 0, 83, 64
2, 7895, Note_on_c, 0, 74, 44
2, 7937, Note_off_c, 0, 74, 64
2, 7937, Note_off_c, 0, 56, 64
2, 7937, Note_on_c, 0, 76, 44
2, 7938, Note_on_c, 0, 59, 36
2, 7978, Note_off_c, 0, 76, 64
2, 7980, Note_on_c, 0, 75, 47
2, 7993, Note_off_c, 0, 59, 64
2, 7995, Note_on_c, 0, 56, 42
2, 8021, Note_off_c, 0, 75, 64
2, 8023, Note_on_c, 0, 80, 55
2, 8050, Note_off_c, 0, 56, 64
2, 8051, Note_on_c, 0, 51, 27
2, 8064, Note_off_c, 0, 80, 64
2, 8064, Note_on_c, 0, 70, 38
2, 8106, Note_off_c, 0, 70, 64
2, 8106, Note_off_c, 0, 51, 64
2, 8108, Note_on_c, 0, 73, 44
2, 8108, Note_on_c, 0, 44, 55
2, 8148, Note_off_c, 0, 73, 64
2, 8149, Note_on_c, 0, 71, 32
2, 8162, Note_off_c, 0, 44, 64
2, 8164, Note_on_c, 0, 51, 40
2, 8190, Note_off_c, 0, 71, 64
2, 8192, Note_on_c, 0, 75, 47
2, 8220, Note_off_c, 0, 51, 64
2, 8220, Note_on_c, 0, 56, 42
2, 8233, Note_off_c, 0, 75, 64
2, 8235, Note_on_c, 0, 67, 39
2, 8276, Note_off_c, 0, 67, 64
2, 8277, Note_off_c, 0, 56, 64
2, 8277, Note_on_c, 0, 70, 38
2, 8278, Note_on_c, 0, 59, 35
2, 8317, Note_off_c, 0, 70, 64
2, 8320, Note_on_c, 0, 68, 38
2, 8333, Note_off_c, 0, 59, 64
2, 8333, Note_on_c, 0, 56, 44
2, 8361, Note_off_c, 0, 68, 64
2, 8361, Note_on_c, 0, 67, 26
2, 8389, Note_off_c, 0, 56, 64
2, 8389, Note_on_c, 0, 51, 29
2, 8402, Note_off_c, 0, 67, 64
2, 8404, Note_on_c, 0, 68, 32
2, 8430, Control_c, 0, 64, 96
2, 8442, Control_c, 0, 64, 0
2, 8445, Note_off_c, 0, 68, 64
2, 8446, Note_off_c, 0, 51, 64
2, 8447, Note_on_c, 0, 68, 55
2, 8448, Note_on_c, 0, 45, 56
2, 8488, Note_off_c, 0, 68, 64
2, 8489, Note_on_c, 0, 80, 40
2, 8492, Control_c, 0, 64, 64
2, 8502, Note_off_c, 0, 45, 64
2, 8504, Note_on_c, 0, 49, 44
2, 8506, Control_c, 0, 64, 127
2, 8530, Note_off_c, 0, 80, 64
2, 8532, Note_on_c, 0, 72, 29
2, 8558, Note_off_c, 0, 49, 64
2, 8560, Note_on_c, 0, 54, 47
2, 8573, Note_off_c, 0, 72, 64
2, 8573, Note_on_c, 0, 73, 29
2, 8614, Note_off_c, 0, 73, 64
2, 8615, Note_off_c, 0, 54, 64
2, 8616, Note_on_c, 0, 57, 32
2, 8616, Note_on_c, 0, 66, 58
2, 8657, Note_off_c, 0, 66, 64
2, 8658, Note_on_c, 0, 78, 38
2, 8673, Note_off_c, 0, 57, 64
2, 8673, Note_on_c, 0, 54, 35
2, 8700, Note_off_c, 0, 78, 64
2, 8701, Note_on_c, 0, 72, 32
2, 8729, Note_off_c, 0, 54, 64
2, 8729, Note_on_c, 0, 49, 29
2, 8742, Note_off_c, 0, 72, 64
2, 8744, Note_on_c, 0, 73, 40
2, 8785, Note_off_c, 0, 73, 64
2, 8785, Note_off_c, 0, 49, 64
2, 8786, Note_on_c, 0, 65, 59
2, 8786, Note_on_c, 0, 45, 47
2, 8826, Note_off_c, 0, 65, 64
2, 8829, Note_on_c, 0, 77, 26
2, 8842, Note_off_c, 0, 45, 64
2, 8842, Note_on_c, 0, 49, 40
2, 8869, Note_off_c, 0, 77, 64
2, 8870, Note_on_c, 0, 72, 39
2, 8898, Note_off_c, 0, 49, 64
2, 8900, Note_on_c, 0, 54, 38
2, 8913, Note_off_c, 0, 72, 64
2, 8913, Note_on_c, 0, 73, 40
2, 8954, Note_off_c, 0, 73, 64
2, 8954, Note_off_c, 0, 54, 64
2, 8956, Note_on_c, 0, 66, 63
2, 8956, Note_on_c, 0, 57, 36
2, 8997, Note_off_c, 0, 66, 64
2, 8998, Note_on_c, 0, 78, 58
2, 9011, Note_off_c, 0, 57, 64
2, 9012, Note_on_c, 0, 54, 40
2, 9038, Note_off_c, 0, 78, 64
2, 9040, Note_on_c, 0, 72, 31
2, 9067, Note_off_c, 0, 54, 64
2, 9069, Note_on_c, 0, 49, 32
2, 9082, Note_off_c, 0, 72, 64
2, 9082, Note_on_c, 0, 73, 32
2, 9099, Control_c, 0, 64, 64
2, 9110, Control_c, 0, 64, 0
2, 9125, Note_off_c, 0, 73, 64
2, 9125, Note_off_c, 0, 49, 64
2, 9126, Note_on_c, 0, 61, 67
2, 9126, Note_on_c, 0, 47, 52
2, 9155, Control_c, 0, 64, 64
2, 9166, Note_off_c, 0, 61, 64
2, 9167, Control_c, 0, 64, 127
2, 9168, Note_on_c, 0, 73, 47
2, 9181, Note_off_c, 0, 47, 64
2, 9181, Note_on_c, 0, 54, 35
2, 9209, Note_off_c, 0, 73, 64
2, 9210, Note_on_c, 0, 66, 38
2, 9238, Note_off_c, 0, 54, 64
2, 9238, Note_on_c, 0, 57, 41
2, 9251, Note_off_c, 0, 66, 64
2, 9252, Note_on_c, 0, 69, 36
2, 9294, Note_off_c, 0, 69, 64
2, 9295, Note_off_c, 0, 57, 64
2, 9295, Note_on_c, 0, 63, 63
2, 9295, Note_on_c, 0, 59, 40
2, 9335, Note_off_c, 0, 63, 64
2, 9337, Note_on_c, 0, 75, 50
2, 9350, Note_off_c, 0, 59, 64
2, 9352, Note_on_c, 0, 57, 39
2, 9378, Note_off_c, 0, 75, 64
2, 9380, Note_on_c, 0, 66, 35
2, 9407, Note_off_c, 0, 57, 64
2, 9408, Note_on_c, 0, 54, 40
2, 9421, Note_off_c, 0, 66, 64
2, 9422, Note_on_c, 0, 69, 41
2, 9454, Control_c, 0, 64, 96
2, 9461, Control_c, 0, 64, 0
2, 9463, Note_off_c, 0, 69, 64
2, 9463, Note_off_c, 0, 54, 64
2, 9465, Note_on_c, 0, 64, 60
2, 9465, Note_on_c, 0, 40, 59
2, 9493, Control_c, 0, 64, 64
2, 9503, Control_c, 0, 64, 127
2, 9506, Note_off_c, 0, 64, 64
2, 9506, Note_on_c, 0, 76, 32
2, 9519, Note_off_c, 0, 40, 64
2, 9521, Note_on_c, 0, 47, 47
2, 9547, Note_off_c, 0, 76, 64
2, 9549, Note_on_c, 0, 68, 38
2, 9577, Note_off_c, 0, 47, 64
2, 9578, Note_on_c, 0, 52, 50
2, 9590, Note_off_c, 0, 68, 64
2, 9592, Note_on_c, 0, 71, 44
2, 9634, Note_off_c, 0, 71, 64
2, 9634, Note_off_c, 0, 52, 64
2, 9635, Note_on_c, 0, 68, 63
2, 9635, Note_on_c, 0, 56, 48
2, 9675, Note_off_c, 0, 68, 64
2, 9677, Note_on_c, 0, 80, 38
2, 9690, Note_off_c, 0, 56, 64
2, 9690, Note_on_c, 0, 52, 50
2, 9718, Note_off_c, 0, 80, 64
2, 9719, Note_on_c, 0, 71, 16
2, 9746, Note_off_c, 0, 52, 64
2, 9747, Note_on_c, 0, 47, 39
2, 9759, Note_off_c, 0, 71, 64
2, 9761, Note_on_c, 0, 76, 21
2, 9803, Note_off_c, 0, 76, 64
2, 9803, Note_off_c, 0, 47, 64
2, 9804, Note_on_c, 0, 68, 63
2, 9805, Note_on_c, 0, 45, 47
2, 9820, Control_c, 0, 64, 64
2, 9831, Control_c, 0, 64, 0
2, 9839, Control_c, 0, 64, 64
2, 9846, Note_off_c, 0, 68, 64
2, 9846, Note_on_c, 0, 80, 40
2, 9850, Control_c, 0, 64, 96
2, 9859, Note_off_c, 0, 45, 64
2, 9861, Note_on_c, 0, 49, 32
2, 9865, Control_c, 0, 64, 127
2, 9887, Note_off_c, 0, 80, 64
2, 9889, Note_on_c, 0, 72, 20
2, 9915, Note_off_c, 0, 49, 64
2, 9917, Note_on_c, 0, 54, 44
2, 9930, Note_off_c, 0, 72, 64
2, 9931, Note_on_c, 0, 73, 24
2, 9972, Note_off_c, 0, 73, 64
2, 9972, Note_off_c, 0, 54, 64
2, 9973, Note_on_c, 0, 66, 58
2, 9974, Note_on_c, 0, 57, 34
2, 10015, Note_off_c, 0, 66, 64
2, 10015, Note_on_c, 0, 78, 55
2, 10030, Note_off_c, 0, 57, 64
2, 10030, Note_on_c, 0, 54, 38
2, 10058, Note_off_c, 0, 78, 64
2, 10058, Note_on_c, 0, 72, 41
2, 10086, Note_off_c, 0, 54, 64
2, 10086, Note_on_c, 0, 49, 38
2, 10099, Note_off_c, 0, 72, 64
2, 10101, Note_on_c, 0, 73, 50
2, 10142, Note_off_c, 0, 73, 64
2, 10143, Note_off_c, 0, 49, 64
2, 10143, Note_on_c, 0, 65, 67
2, 10144, Note_on_c, 0, 45, 50
2, 10184, Note_off_c, 0, 65, 64
2, 10186, Note_on_c, 0, 77, 44
2, 10199, Note_off_c, 0, 45, 64
2, 10199, Note_on_c, 0, 49, 29
2, 10227, Note_off_c, 0, 77, 64
2, 10227, Note_on_c, 0, 72, 39
2, 10255, Note_off_c, 0, 49, 64
2, 10257, Note_on_c, 0, 54, 38
2, 10270, Note_off_c, 0, 72, 64
2, 10271, Note_on_c, 0, 73, 38
2, 10311, Note_off_c, 0, 73, 64
2, 10312, Note_off_c, 0, 54, 64
2, 10313, Note_on_c, 0, 66, 58
2, 10314, Note_on_c, 0, 57, 36
2, 10355, Note_off_c, 0, 66, 64
2, 10355, Note_on_c, 0, 78, 44
2, 10368, Note_off_c, 0, 57, 64
2, 10370, Note_on_c, 0, 54, 44
2, 10396, Note_off_c, 0, 78, 64
2, 10398, Note_on_c, 0, 72, 34
2, 10424, Note_off_c, 0, 54, 64
2, 10426, Note_on_c, 0, 49, 38
2, 10439, Note_off_c, 0, 72, 64
2, 10440, Note_on_c, 0, 73, 32
2, 10467, Control_c, 0, 64, 96
2, 10478, Control_c, 0, 64, 0
2, 10482, Note_off_c, 0, 73, 64
2, 10483, Note_off_c, 0, 49, 64
2, 10483, Note_on_c, 0, 65, 59
2, 10484, Note_on_c, 0, 47, 50
2, 10512, Control_c, 0, 64, 64
2, 10524, Note_off_c, 0, 65, 64
2, 10524, Control_c, 0, 64, 127
2, 10525, Note_on_c, 0, 77, 50
2, 10538, Note_off_c, 0, 47, 64
2, 10539, Note_on_c, 0, 51, 40
2, 10567, Note_off_c, 0, 77, 64
2, 10567, Note_on_c, 0, 71, 44
2, 10595, Note_off_c, 0, 51, 64
2, 10596, Note_on_c, 0, 57, 29
2, 10608, Note_off_c, 0, 71, 64
2, 10610, Note_on_c, 0, 75, 50
2, 10652, Note_off_c, 0, 75, 64
2, 10652, Note_off_c, 0, 57, 64
2, 10652, Note_on_c, 0, 66, 58
2, 10653, Note_on_c, 0, 59, 48
2, 10692, Note_off_c, 0, 66, 64
2, 10694, Note_on_c, 0, 78, 47
2, 10708, Note_off_c, 0, 59, 64
2, 10709, Note_on_c, 0, 57, 36
2, 10736, Note_off_c, 0, 78, 64
2, 10738, Note_on_c, 0, 71, 31
2, 10764, Note_off_c, 0, 57, 64
2, 10766, Note_on_c, 0, 51, 47
2, 10779, Note_off_c, 0, 71, 64
2, 10779, Note_on_c, 0, 75, 38
2, 10800, Control_c, 0, 64, 96
2, 10811, Control_c, 0, 64, 0
2, 10821, Note_off_c, 0, 75, 64
2, 10821, Note_off_c, 0, 51, 64
2, 10822, Note_on_c, 0, 69, 67
2, 10823, Note_on_c, 0, 40, 59
2, 10848, Control_c, 0, 64, 64
2, 10860, Control_c, 0, 64, 127
2, 10863, Note_off_c, 0, 69, 64
2, 10864, Note_on_c, 0, 81, 52
2, 10877, Note_off_c, 0, 40, 64
2, 10879, Note_on_c, 0, 47, 44
2, 10905, Note_off_c, 0, 81, 64
2, 10907, Note_on_c, 0, 71, 34
2, 10935, Note_off_c, 0, 47, 64
2, 10935, Note_on_c, 0, 52, 39
2, 10948, Note_off_c, 0, 71, 64
2, 10950, Note_on_c, 0, 76, 32
2, 10991, Note_off_c, 0, 76, 64
2, 10992, Note_off_c, 0, 52, 64
2, 10992, Note_on_c, 0, 68, 58
2, 10992, Note_on_c, 0, 56, 48
2, 11032, Note_off_c, 0, 68, 64
2, 11034, Note_on_c, 0, 80, 38
2, 11047, Note_off_c, 0, 56, 64
2, 11048, Note_on_c, 0, 52, 41
2, 11076, Note_off_c, 0, 80, 64
2, 11076, Note_on_c, 0, 71, 34
2, 11104, Note_off_c, 0, 52, 64
2, 11104, Note_on_c, 0, 47, 29
2, 11117, Note_off_c, 0, 71, 64
2, 11119, Note_on_c, 0, 76, 41
2, 11136, Control_c, 0, 64, 64
2, 11145, Control_c, 0, 64, 0
2, 11160, Note_off_c, 0, 76, 64
2, 11160, Note_off_c, 0, 47, 64
2, 11162, Note_on_c, 0, 68, 20
2, 11162, Note_on_c, 0, 45, 36
2, 11181, Control_c, 0, 64, 96
2, 11192, Control_c, 0, 64, 127
2, 11203, Note_off_c, 0, 68, 64
2, 11204, Note_on_c, 0, 80, 58
2, 11216, Note_off_c, 0, 45, 64
2, 11219, Note_on_c, 0, 49, 27
2, 11244, Note_off_c, 0, 80, 64
2, 11246, Note_on_c, 0, 72, 29
2, 11273, Note_off_c, 0, 49, 64
2, 11275, Note_on_c, 0, 54, 29
2, 11288, Note_off_c, 0, 72, 64
2, 11288, Note_on_c, 0, 73, 27
2, 11329, Note_off_c, 0, 73, 64
2, 11329, Note_off_c, 0, 54, 64
2, 11331, Note_on_c, 0, 66, 38
2, 11331, Note_on_c, 0, 57, 32
2, 11372, Note_off_c, 0, 66, 64
2, 11373, Note_on_c, 0, 78, 63
2, 11387, Note_off_c, 0, 57, 64
2, 11388, Note_on_c, 0, 54, 40
2, 11415, Note_off_c, 0, 78, 64
2, 11415, Note_on_c, 0, 72, 36
2, 11444, Note_off_c, 0, 54, 64
2, 11444, Note_on_c, 0, 49, 35
2, 11457, Note_off_c, 0, 72, 64
2, 11459, Note_on_c, 0, 73, 47
2, 11477, Control_c, 0, 64, 64
2, 11485, Control_c, 0, 64, 0
2, 11500, Note_off_c, 0, 73, 64
2, 11500, Note_off_c, 0, 49, 64
2, 11500, Note_on_c, 0, 65, 36
2, 11501, Note_on_c, 0, 45, 36
2, 11522, Control_c, 0, 64, 96
2, 11530, Control_c, 0, 64, 127
2, 11541, Note_off_c, 0, 65, 64
2, 11544, Note_on_c, 0, 77, 62
2, 11556, Note_off_c, 0, 45, 64
2, 11556, Note_on_c, 0, 49, 20
2, 11584, Note_off_c, 0, 77, 64
2, 11584, Note_on_c, 0, 72, 41
2, 11613, Note_off_c, 0, 49, 64
2, 11615, Note_on_c, 0, 54, 32
2, 11628, Note_off_c, 0, 72, 64
2, 11628, Note_on_c, 0, 73, 35
2, 11669, Note_off_c, 0, 73, 64
2, 11669, Note_off_c, 0, 54, 64
2, 11671, Note_on_c, 0, 66, 35
2, 11671, Note_on_c, 0, 57, 26
2, 11712, Note_off_c, 0, 66, 64
2, 11712, Note_on_c, 0, 78, 63
2, 11725, Note_off_c, 0, 57, 64
2, 11727, Note_on_c, 0, 54, 32
2, 11753, Note_off_c, 0, 78, 64
2, 11755, Note_on_c, 0, 72, 29
2, 11782, Note_off_c, 0, 54, 64
2, 11784, Note_on_c, 0, 49, 38
2, 11796, Note_off_c, 0, 72, 64
2, 11797, Note_on_c, 0, 73, 32
2, 11840, Note_off_c, 0, 73, 64
2, 11840, Note_off_c, 0, 49, 64
2, 11841, Note_on_c, 0, 61, 33
2, 11841, Note_on_c, 0, 47, 34
2, 11845, Control_c, 0, 64, 64
2, 11860, Control_c, 0, 64, 0
2, 11881, Note_off_c, 0, 61, 64
2, 11883, Note_on_c, 0, 73, 63
2, 11892, Control_c, 0, 64, 64
2, 11896, Note_off_c, 0, 47, 64
2, 11897, Note_on_c, 0, 54, 22
2, 11905, Control_c, 0, 64, 127
2, 11924, Note_off_c, 0, 73, 64
2, 11925, Note_on_c, 0, 66, 17
2, 11952, Note_off_c, 0, 54, 64
2, 11953, Note_on_c, 0, 57, 26
2, 11965, Note_off_c, 0, 66, 64
2, 11967, Note_on_c, 0, 69, 15
2, 12009, Note_off_c, 0, 69, 64
2, 12009, Note_off_c, 0, 57, 64
2, 12009, Note_on_c, 0, 63, 55
2, 12010, Note_on_c, 0, 59, 36
2, 12050, Note_off_c, 0, 63, 64
2, 12052, Note_on_c, 0, 75, 58
2, 12065, Note_off_c, 0, 59, 64
2, 12067, Note_on_c, 0, 57, 34
2, 12093, Note_off_c, 0, 75, 64
2, 12095, Note_on_c, 0, 66, 15
2, 12121, Note_off_c, 0, 57, 64
2, 12123, Note_on_c, 0, 54, 24
2, 12136, Note_off_c, 0, 66, 64
2, 12136, Note_on_c, 0, 69, 11
2, 12168, Control_c, 0, 64, 96
2, 12176, Control_c, 0, 64, 0
2, 12178, Note_off_c, 0, 69, 64
2, 12178, Note_off_c, 0, 54, 64
2, 12180, Note_on_c, 0, 64, 26
2, 12180, Note_on_c, 0, 40, 52
2, 12208, Control_c, 0, 64, 64
2, 12219, Control_c, 0, 64, 127
2, 12221, Note_off_c, 0, 64, 64
2, 12221, Note_on_c, 0, 76, 59
2, 12234, Note_off_c, 0, 40, 64
2, 12236, Note_on_c, 0, 47, 20
2, 12262, Note_off_c, 0, 76, 64
2, 12264, Note_on_c, 0, 68, 47
2, 12292, Note_off_c, 0, 47, 64
2, 12292, Note_on_c, 0, 52, 29
2, 12305, Note_off_c, 0, 68, 64
2, 12307, Note_on_c, 0, 71, 36
2, 12348, Note_off_c, 0, 71, 64
2, 12348, Note_off_c, 0, 52, 64
2, 12349, Note_on_c, 0, 68, 44
2, 12349, Note_on_c, 0, 56, 48
2, 12390, Note_off_c, 0, 68, 64
2, 12392, Note_on_c, 0, 80, 55
2, 12405, Note_off_c, 0, 56, 64
2, 12405, Note_on_c, 0, 52, 36
2, 12433, Note_off_c, 0, 80, 64
2, 12433, Note_on_c, 0, 71, 16
2, 12461, Note_off_c, 0, 52, 64
2, 12461, Note_on_c, 0, 47, 31
2, 12474, Note_off_c, 0, 71, 64
2, 12476, Note_on_c, 0, 76, 25
2, 12506, Control_c, 0, 64, 96
2, 12517, Note_off_c, 0, 76, 64
2, 12517, Note_off_c, 0, 47, 64
2, 12518, Control_c, 0, 64, 64
2, 12519, Note_on_c, 0, 68, 50
2, 12520, Note_on_c, 0, 45, 47
2, 12534, Control_c, 0, 64, 0
2, 12546, Control_c, 0, 64, 64
2, 12555, Control_c, 0, 64, 96
2, 12561, Note_off_c, 0, 68, 64
2, 12561, Note_on_c, 0, 80, 50
2, 12564, Control_c, 0, 64, 127
2, 12574, Note_off_c, 0, 45, 64
2, 12576, Note_on_c, 0, 49, 50
2, 12602, Note_off_c, 0, 80, 64
2, 12604, Note_on_c, 0, 72, 15
2, 12630, Note_off_c, 0, 49, 64
2, 12632, Note_on_c, 0, 54, 50
2, 12645, Note_off_c, 0, 72, 64
2, 12645, Note_on_c, 0, 73, 15
2, 12686, Note_off_c, 0, 73, 64
2, 12686, Note_off_c, 0, 54, 64
2, 12688, Note_on_c, 0, 66, 20
2, 12689, Note_on_c, 0, 57, 39
2, 12730, Note_off_c, 0, 66, 64
2, 12730, Note_on_c, 0, 78, 50
2, 12744, Note_off_c, 0, 57, 64
2, 12745, Note_on_c, 0, 54, 35
2, 12773, Note_off_c, 0, 78, 64
2, 12773, Note_on_c, 0, 72, 44
2, 12801, Note_off_c, 0, 54, 64
2, 12801, Note_on_c, 0, 49, 27
2, 12814, Note_off_c, 0, 72, 64
2, 12816, Note_on_c, 0, 73, 40
2, 12857, Note_off_c, 0, 73, 64
2, 12857, Note_off_c, 0, 49, 64
2, 12858, Note_on_c, 0, 75, 29
2, 12858, Note_on_c, 0, 45, 36
2, 12880, Control_c, 0, 64, 64
2, 12888, Control_c, 0, 64, 0
2, 12899, Note_off_c, 0, 75, 64
2, 12900, Note_on_c, 0, 87, 68
2, 12913, Note_off_c, 0, 45, 64
2, 12914, Note_on_c, 0, 49, 32
2, 12942, Note_off_c, 0, 87, 64
2, 12942, Note_on_c, 0, 78, 50
2, 12970, Note_off_c, 0, 49, 64
2, 12972, Note_on_c, 0, 54, 29
2, 12985, Note_off_c, 0, 78, 64
2, 12985, Note_on_c, 0, 81, 39
2, 13026, Note_off_c, 0, 81, 64
2, 13026, Note_off_c, 0, 54, 64
2, 13028, Note_on_c, 0, 73, 44
2, 13028, Note_on_c, 0, 57, 34
2, 13069, Note_off_c, 0, 73, 64
2, 13070, Note_on_c, 0, 85, 68
2, 13082, Note_off_c, 0, 57, 64
2, 13084, Note_on_c, 0, 54, 29
2, 13111, Note_off_c, 0, 85, 64
2, 13113, Note_on_c, 0, 78, 47
2, 13139, Note_off_c, 0, 54, 64
2, 13141, Note_on_c, 0, 49, 44
2, 13154, Note_off_c, 0, 78, 64
2, 13154, Note_on_c, 0, 81, 34
2, 13197, Note_off_c, 0, 81, 64
2, 13197, Note_off_c, 0, 49, 64
2, 13198, Note_on_c, 0, 73, 27
2, 13198, Note_on_c, 0, 44, 58
2, 13220, Control_c, 0, 64, 64
2, 13229, Control_c, 0, 64, 127
2, 13238, Note_off_c, 0, 73, 64
2, 13240, Note_on_c, 0, 85, 55
2, 13253, Note_off_c, 0, 44, 64
2, 13254, Note_on_c, 0, 51, 40
2, 13282, Note_off_c, 0, 85, 64
2, 13282, Note_on_c, 0, 75, 35
2, 13309, Note_off_c, 0, 51, 64
2, 13310, Note_on_c, 0, 54, 35
2, 13323, Note_off_c, 0, 75, 64
2, 13325, Note_on_c, 0, 78, 29
2, 13366, Note_off_c, 0, 78, 64
2, 13366, Note_off_c, 0, 54, 64
2, 13367, Note_on_c, 0, 72, 32
2, 13367, Note_on_c, 0, 60, 31
2, 13407, Note_off_c, 0, 72, 64
2, 13409, Note_on_c, 0, 84, 56
2, 13422, Note_off_c, 0, 60, 64
2, 13424, Note_on_c, 0, 54, 27
2, 13451, Note_off_c, 0, 84, 64
2, 13452, Note_on_c, 0, 75, 38
2, 13479, Note_off_c, 0, 54, 64
2, 13480, Note_on_c, 0, 51, 15
2, 13494, Note_off_c, 0, 75, 64
2, 13494, Note_on_c, 0, 78, 32
2, 13511, Control_c, 0, 64, 64
2, 13520, Control_c, 0, 64, 0
2, 13535, Note_off_c, 0, 78, 64
2, 13536, Note_off_c, 0, 51, 64
2, 13537, Note_on_c, 0, 72, 34
2, 13537, Note_on_c, 0, 44, 63
2, 13561, Control_c, 0, 64, 64
2, 13572, Control_c, 0, 64, 127
2, 13578, Note_off_c, 0, 72, 64
2, 13578, Note_on_c, 0, 84, 59
2, 13592, Note_off_c, 0, 44, 64
2, 13593, Note_on_c, 0, 51, 50
2, 13620, Note_off_c, 0, 84, 64
2, 13621, Note_on_c, 0, 75, 29
2, 13649, Note_off_c, 0, 51, 64
2, 13650, Note_on_c, 0, 54, 40
2, 13663, Note_off_c, 0, 75, 64
2, 13665, Note_on_c, 0, 78, 29
2, 13706, Note_off_c, 0, 78, 64
2, 13706, Note_off_c, 0, 54, 64
2, 13706, Note_on_c, 0, 72, 41
2, 13707, Note_on_c, 0, 60, 31
2, 13747, Note_off_c, 0, 72, 64
2, 13749, Note_on_c, 0, 84, 56
2, 13762, Note_off_c, 0, 60, 64
2, 13762, Note_on_c, 0, 54, 35
2, 13790, Note_off_c, 0, 84, 64
2, 13790, Note_on_c, 0, 75, 40
2, 13818, Note_off_c, 0, 54, 64
2, 13819, Note_on_c, 0, 51, 40
2, 13832, Note_off_c, 0, 75, 64
2, 13834, Note_on_c, 0, 78, 24
2, 13875, Note_off_c, 0, 78, 64
2, 13875, Note_off_c, 0, 51, 64
2, 13877, Note_on_c, 0, 72, 26
2, 13877, Note_on_c, 0, 45, 50
2, 13918, Note_off_c, 0, 72, 64
2, 13918, Note_on_c, 0, 84, 56
2, 13931, Note_off_c, 0, 45, 64
2, 13933, Note_on_c, 0, 51, 32
2, 13959, Note_off_c, 0, 84, 64
2, 13961, Note_on_c, 0, 75, 24
2, 13987, Note_off_c, 0, 51, 64
2, 13989, Note_on_c, 0, 54, 44
2, 14003, Note_off_c, 0, 75, 64
2, 14003, Note_on_c, 0, 78, 24
2, 14044, Note_off_c, 0, 78, 64
2, 14044, Note_off_c, 0, 54, 64
2, 14046, Note_on_c, 0, 71, 25
2, 14046, Note_on_c, 0, 59, 43
2, 14087, Note_off_c, 0, 71, 64
2, 14087, Note_on_c, 0, 83, 56
2, 14102, Note_off_c, 0, 59, 64
2, 14102, Note_on_c, 0, 54, 38
2, 14130, Note_off_c, 0, 83, 64
2, 14130, Note_on_c, 0, 75, 44
2, 14158, Note_off_c, 0, 54, 64
2, 14159, Note_on_c, 0, 51, 44
2, 14172, Note_off_c, 0, 75, 64
2, 14173, Note_on_c, 0, 78, 29
2, 14215, Note_off_c, 0, 78, 64
2, 14215, Note_off_c, 0, 51, 64
2, 14215, Note_on_c, 0, 71, 18
2, 14216, Note_on_c, 0, 46, 51
2, 14230, Control_c, 0, 64, 96
2, 14239, Control_c, 0, 64, 0
2, 14256, Note_off_c, 0, 71, 64
2, 14258, Note_on_c, 0, 83, 62
2, 14271, Note_off_c, 0, 46, 64
2, 14271, Note_on_c, 0, 51, 47
2, 14288, Control_c, 0, 64, 64
2, 14297, Control_c, 0, 64, 127
2, 14299, Note_off_c, 0, 83, 64
2, 14299, Note_on_c, 0, 75, 29
2, 14327, Note_off_c, 0, 51, 64
2, 14329, Note_on_c, 0, 54, 44
2, 14342, Note_off_c, 0, 75, 64
2, 14342, Note_on_c, 0, 78, 40
2, 14383, Note_off_c, 0, 78, 64
2, 14384, Note_off_c, 0, 54, 64
2, 14386, Note_on_c, 0, 58, 27
2, 14386, Note_on_c, 0, 70, 15
2, 14427, Note_off_c, 0, 70, 64
2, 14427, Note_on_c, 0, 82, 58
2, 14440, Note_off_c, 0, 58, 64
2, 14442, Note_on_c, 0, 54, 29
2, 14468, Note_off_c, 0, 82, 64
2, 14470, Note_on_c, 0, 75, 20
2, 14496, Note_off_c, 0, 54, 64
2, 14498, Note_on_c, 0, 51, 35
2, 14511, Note_off_c, 0, 75, 64
2, 14511, Note_on_c, 0, 78, 20
2, 14554, Note_off_c, 0, 78, 64
2, 14555, Note_off_c, 0, 51, 64
2, 14555, Note_on_c, 0, 70, 20
2, 14556, Note_on_c, 0, 48, 47
2, 14575, Control_c, 0, 64, 96
2, 14584, Control_c, 0, 64, 0
2, 14595, Note_off_c, 0, 70, 64
2, 14598, Note_on_c, 0, 82, 38
2, 14611, Note_off_c, 0, 48, 64
2, 14611, Note_on_c, 0, 51, 35
2, 14620, Control_c, 0, 64, 64
2, 14631, Control_c, 0, 64, 127
2, 14639, Note_off_c, 0, 82, 64
2, 14639, Note_on_c, 0, 75, 29
2, 14667, Note_off_c, 0, 51, 64
2, 14667, Note_on_c, 0, 54, 38
2, 14680, Note_off_c, 0, 75, 64
2, 14682, Note_on_c, 0, 78, 17
2, 14723, Note_off_c, 0, 78, 64
2, 14724, Note_off_c, 0, 54, 64
2, 14724, Note_on_c, 0, 69, 36
2, 14724, Note_on_c, 0, 57, 34
2, 14748, Control_c, 0, 64, 96
2, 14755, Control_c, 0, 64, 0
2, 14764, Note_off_c, 0, 69, 64
2, 14767, Note_on_c, 0, 81, 39
2, 14780, Note_off_c, 0, 57, 64
2, 14782, Note_on_c, 0, 54, 35
2, 14785, Control_c, 0, 64, 64
2, 14796, Control_c, 0, 64, 127
2, 14808, Note_off_c, 0, 81, 64
2, 14810, Note_on_c, 0, 75, 35
2, 14836, Note_off_c, 0, 54, 64
2, 14838, Note_on_c, 0, 51, 35
2, 14851, Note_off_c, 0, 75, 64
2, 14851, Note_on_c, 0, 78, 27
2, 14887, Control_c, 0, 64, 96
2, 14892, Note_off_c, 0, 78, 64
2, 14893, Note_off_c, 0, 51, 64
2, 14894, Note_on_c, 0, 69, 26
2, 14894, Note_on_c, 0, 48, 50
2, 14898, Control_c, 0, 64, 64
2, 14915, Control_c, 0, 64, 0
2, 14922, Control_c, 0, 64, 64
2, 14932, Control_c, 0, 64, 127
2, 14935, Note_off_c, 0, 69, 64
2, 14936, Note_on_c, 0, 81, 31
2, 14949, Note_off_c, 0, 48, 64
2, 14951, Note_on_c, 0, 51, 58
2, 14976, Note_off_c, 0, 81, 64
2, 14979, Note_on_c, 0, 75, 35
2, 15007, Note_off_c, 0, 51, 64
2, 15007, Note_on_c, 0, 54, 38
2, 15020, Note_off_c, 0, 75, 64
2, 15022, Note_on_c, 0, 78, 20
2, 15041, Control_c, 0, 64, 96
2, 15052, Control_c, 0, 64, 64
2, 15063, Note_off_c, 0, 78, 64
2, 15063, Note_off_c, 0, 54, 64
2, 15064, Note_on_c, 0, 69, 29
2, 15064, Note_on_c, 0, 57, 39
2, 15084, Control_c, 0, 64, 96
2, 15095, Control_c, 0, 64, 127
2, 15104, Note_off_c, 0, 69, 64
2, 15106, Note_on_c, 0, 81, 32
2, 15120, Note_off_c, 0, 57, 64
2, 15120, Note_on_c, 0, 54, 40
2, 15147, Note_off_c, 0, 81, 64
2, 15148, Note_on_c, 0, 75, 27
2, 15176, Note_off_c, 0, 54, 64
2, 15176, Note_on_c, 0, 51, 38
2, 15178, Control_c, 0, 64, 96
2, 15189, Note_off_c, 0, 75, 64
2, 15191, Note_on_c, 0, 78, 32
2, 15191, Control_c, 0, 64, 64
2, 15204, Control_c, 0, 64, 0
2, 15232, Note_off_c, 0, 78, 64
2, 15232, Note_off_c, 0, 51, 64
2, 15233, Control_c, 0, 64, 64
2, 15234, Note_on_c, 0, 72, 27
2, 15234, Note_on_c, 0, 45, 47
2, 15249, Control_c, 0, 64, 96
2, 15256, Control_c, 0, 64, 127
2, 15275, Note_off_c, 0, 72, 64
2, 15276, Note_on_c, 0, 84, 34
2, 15288, Note_off_c, 0, 45, 64
2, 15290, Note_on_c, 0, 51, 39
2, 15316, Note_off_c, 0, 84, 64
2, 15319, Note_on_c, 0, 75, 32
2, 15345, Note_off_c, 0, 51, 64
2, 15347, Note_on_c, 0, 54, 42
2, 15360, Note_off_c, 0, 75, 64
2, 15360, Note_on_c, 0, 78, 34
2, 15401, Note_off_c, 0, 78, 64
2, 15401, Note_off_c, 0, 54, 64
2, 15403, Note_on_c, 0, 71, 30
2, 15403, Note_on_c, 0, 59, 30
2, 15444, Note_off_c, 0, 71, 64
2, 15444, Note_on_c, 0, 83, 33
2, 15459, Note_off_c, 0, 59, 64
2, 15459, Note_on_c, 0, 54, 39
2, 15487, Note_off_c, 0, 83, 64
2, 15488, Note_on_c, 0, 75, 27
2, 15516, Note_off_c, 0, 54, 64
2, 15516, Note_on_c, 0, 51, 34
2, 15528, Note_off_c, 0, 75, 64
2, 15530, Note_on_c, 0, 78, 24
2, 15532, Control_c, 0, 64, 64
2, 15546, Control_c, 0, 64, 0
2, 15572, Note_off_c, 0, 78, 64
2, 15572, Note_off_c, 0, 51, 64
2, 15573, Note_on_c, 0, 71, 26
2, 15573, Note_on_c, 0, 46, 45
2, 15591, Control_c, 0, 64, 96
2, 15598, Control_c, 0, 64, 127
2, 15613, Note_off_c, 0, 71, 64
2, 15615, Note_on_c, 0, 83, 28
2, 15628, Note_off_c, 0, 46, 64
2, 15628, Note_on_c, 0, 51, 37
2, 15656, Note_off_c, 0, 83, 64
2, 15657, Note_on_c, 0, 75, 17
2, 15684, Note_off_c, 0, 51, 64
2, 15686, Note_on_c, 0, 54, 27
2, 15699, Note_off_c, 0, 75, 64
2, 15700, Note_on_c, 0, 78, 6
2, 15741, Note_off_c, 0, 78, 64
2, 15741, Note_off_c, 0, 54, 64
2, 15743, Note_on_c, 0, 70, 24
2, 15743, Note_on_c, 0, 58, 24
2, 15784, Note_off_c, 0, 70, 64
2, 15784, Note_on_c, 0, 82, 32
2, 15797, Note_off_c, 0, 58, 64
2, 15799, Note_on_c, 0, 54, 27
2, 15825, Note_off_c, 0, 82, 64
2, 15827, Note_on_c, 0, 75, 27
2, 15853, Note_off_c, 0, 54, 64
2, 15855, Note_on_c, 0, 51, 29
2, 15868, Note_off_c, 0, 75, 64
2, 15869, Note_on_c, 0, 78, 18
2, 15912, Note_off_c, 0, 78, 64
2, 15912, Note_off_c, 0, 51, 64
2, 15912, Note_on_c, 0, 70, 24
2, 15913, Note_on_c, 0, 47, 42
2, 15933, Control_c, 0, 64, 64
2, 15944, Control_c, 0, 64, 0
2, 15953, Note_off_c, 0, 70, 64
2, 15955, Note_on_c, 0, 82, 32
2, 15968, Note_off_c, 0, 47, 64
2, 15970, Note_on_c, 0, 51, 37
2, 15972, Control_c, 0, 64, 64
2, 15985, Control_c, 0, 64, 127
2, 15998, Note_off_c, 0, 82, 64
2, 15998, Note_on_c, 0, 75, 22
2, 16028, Note_off_c, 0, 51, 64
2, 16028, Note_on_c, 0, 54, 34
2, 16043, Note_off_c, 0, 75, 64
2, 16044, Note_on_c, 0, 78, 24
2, 16088, Note_off_c, 0, 78, 64
2, 16089, Note_off_c, 0, 54, 64
2, 16090, Note_on_c, 0, 69, 37
2, 16091, Note_on_c, 0, 57, 22
2, 16128, Control_c, 0, 64, 96
2, 16135, Note_off_c, 0, 69, 64
2, 16137, Note_on_c, 0, 81, 33
2, 16139, Control_c, 0, 64, 0
2, 16152, Note_off_c, 0, 57, 64
2, 16154, Note_on_c, 0, 54, 29
2, 16184, Note_off_c, 0, 81, 64
2, 16186, Note_on_c, 0, 75, 24
2, 16191, Control_c, 0, 64, 64
2, 16207, Control_c, 0, 64, 127
2, 16218, Note_off_c, 0, 54, 64
2, 16218, Note_on_c, 0, 51, 29
2, 16235, Note_off_c, 0, 75, 64
2, 16235, Note_on_c, 0, 78, 29
2, 16285, Note_off_c, 0, 78, 64
2, 16285, Note_off_c, 0, 51, 64
2, 16286, Note_on_c, 0, 48, 37
2, 16286, Note_on_c, 0, 69, 33
2, 16287, Control_c, 0, 64, 96
2, 16308, Control_c, 0, 64, 0
2, 16331, Control_c, 0, 64, 64
2, 16336, Note_off_c, 0, 69, 64
2, 16338, Note_on_c, 0, 81, 27
2, 16342, Control_c, 0, 64, 96
2, 16353, Note_off_c, 0, 48, 64
2, 16355, Note_on_c, 0, 51, 37
2, 16360, Control_c, 0, 64, 127
2, 16389, Note_off_c, 0, 81, 64
2, 16389, Note_on_c, 0, 75, 24
2, 16422, Note_off_c, 0, 51, 64
2, 16424, Note_on_c, 0, 54, 27
2, 16439, Note_off_c, 0, 75, 64
2, 16441, Note_on_c, 0, 78, 24
2, 16464, Control_c, 0, 64, 96
2, 16475, Control_c, 0, 64, 64
2, 16492, Note_off_c, 0, 78, 64
2, 16492, Note_off_c, 0, 54, 64
2, 16492, Note_on_c, 0, 68, 29
2, 16493, Note_on_c, 0, 56, 33
2, 16516, Control_c, 0, 64, 96
2, 16527, Control_c, 0, 64, 127
2, 16542, Note_off_c, 0, 68, 64
2, 16544, Note_on_c, 0, 80, 39
2, 16560, Note_off_c, 0, 56, 64
2, 16561, Note_on_c, 0, 54, 24
2, 16593, Note_off_c, 0, 80, 64
2, 16596, Note_on_c, 0, 75, 27
2, 16629, Note_off_c, 0, 54, 64
2, 16629, Note_on_c, 0, 51, 32
2, 16646, Note_off_c, 0, 75, 64
2, 16646, Note_on_c, 0, 78, 27
2, 16652, Control_c, 0, 64, 96
2, 16668, Control_c, 0, 64, 64
2, 16680, Control_c, 0, 64, 0
2, 16691, Control_c, 0, 64, 64
2, 16696, Note_off_c, 0, 78, 64
2, 16697, Note_off_c, 0, 51, 64
2, 16698, Note_on_c, 0, 49, 44
2, 16702, Control_c, 0, 64, 127
2, 16749, Note_on_c, 0, 68, 40
2, 16766, Note_off_c, 0, 49, 64
2, 16766, Note_on_c, 0, 56, 33
2, 16800, Note_off_c, 0, 68, 64
2, 16800, Note_on_c, 0, 69, 34
2, 16834, Note_off_c, 0, 56, 64
2, 16834, Note_on_c, 0, 61, 33
2, 16848, Note_off_c, 0, 69, 64
2, 16850, Note_on_c, 0, 68, 35
2, 16856, Control_c, 0, 64, 96
2, 16873, Control_c, 0, 64, 64
2, 16899, Note_off_c, 0, 68, 64
2, 16899, Note_off_c, 0, 61, 64
2, 16900, Note_on_c, 0, 67, 47
2, 16900, Note_on_c, 0, 64, 29
2, 16901, Control_c, 0, 64, 96
2, 16920, Control_c, 0, 64, 127
2, 16946, Note_off_c, 0, 67, 64
2, 16948, Note_on_c, 0, 68, 47
2, 16963, Note_off_c, 0, 64, 64
2, 16963, Note_on_c, 0, 61, 42
2, 16995, Note_off_c, 0, 68, 64
2, 16995, Note_on_c, 0, 73, 38
2, 17025, Note_off_c, 0, 61, 64
2, 17027, Note_on_c, 0, 56, 39
2, 17042, Note_off_c, 0, 73, 64
2, 17042, Note_on_c, 0, 76, 41
2, 17087, Note_off_c, 0, 76, 64
2, 17087, Note_off_c, 0, 56, 64
2, 17089, Note_on_c, 0, 75, 58
2, 17089, Note_on_c, 0, 52, 50
2, 17102, Control_c, 0, 64, 96
2, 17115, Control_c, 0, 64, 0
2, 17132, Note_off_c, 0, 75, 64
2, 17134, Note_on_c, 0, 73, 40
2, 17147, Note_off_c, 0, 52, 64
2, 17149, Note_on_c, 0, 56, 44
2, 17177, Note_off_c, 0, 73, 64
2, 17179, Note_on_c, 0, 75, 38
2, 17207, Note_off_c, 0, 56, 64
2, 17208, Note_on_c, 0, 61, 42
2, 17222, Note_off_c, 0, 75, 64
2, 17222, Note_on_c, 0, 73, 44
2, 17265, Note_off_c, 0, 73, 64
2, 17266, Note_off_c, 0, 61, 64
2, 17266, Note_on_c, 0, 72, 47
2, 17267, Note_on_c, 0, 64, 40
2, 17306, Note_off_c, 0, 72, 64
2, 17309, Note_on_c, 0, 73, 40
2, 17322, Note_off_c, 0, 64, 64
2, 17322, Note_on_c, 0, 61, 33
2, 17350, Note_off_c, 0, 73, 64
2, 17350, Note_on_c, 0, 76, 34
2, 17378, Note_off_c, 0, 61, 64
2, 17378, Note_on_c, 0, 56, 54
2, 17391, Note_off_c, 0, 76, 64
2, 17393, Note_on_c, 0, 80, 38
2, 17434, Note_off_c, 0, 80, 64
2, 17435, Note_off_c, 0, 56, 64
2, 17436, Note_on_c, 0, 49, 55
2, 17438, Control_c, 0, 64, 64
2, 17453, Control_c, 0, 64, 127
2, 17477, Note_on_c, 0, 68, 44
2, 17491, Note_off_c, 0, 49, 64
2, 17493, Note_on_c, 0, 56, 26
2, 17519, Note_off_c, 0, 68, 64
2, 17520, Note_on_c, 0, 69, 20
2, 17547, Note_off_c, 0, 56, 64
2, 17549, Note_on_c, 0, 61, 28
2, 17562, Note_off_c, 0, 69, 64
2, 17562, Note_on_c, 0, 68, 35
2, 17603, Note_off_c, 0, 68, 64
2, 17604, Note_off_c, 0, 61, 64
2, 17605, Note_on_c, 0, 67, 47
2, 17605, Note_on_c, 0, 64, 26
2, 17646, Note_off_c, 0, 67, 64
2, 17648, Note_on_c, 0, 68, 50
2, 17661, Note_off_c, 0, 64, 64
2, 17662, Note_on_c, 0, 61, 33
2, 17689, Note_off_c, 0, 68, 64
2, 17690, Note_on_c, 0, 73, 47
2, 17718, Note_off_c, 0, 61, 64
2, 17718, Note_on_c, 0, 56, 39
2, 17731, Note_off_c, 0, 73, 64
2, 17733, Note_on_c, 0, 76, 47
2, 17774, Note_off_c, 0, 76, 64
2, 17774, Note_off_c, 0, 56, 64
2, 17775, Note_on_c, 0, 75, 50
2, 17775, Note_on_c, 0, 52, 47
2, 17815, Note_off_c, 0, 75, 64
2, 17817, Note_on_c, 0, 73, 40
2, 17830, Note_off_c, 0, 52, 64
2, 17831, Note_on_c, 0, 56, 44
2, 17858, Note_off_c, 0, 73, 64
2, 17859, Note_on_c, 0, 75, 44
2, 17887, Note_off_c, 0, 56, 64
2, 17889, Note_on_c, 0, 61, 33
2, 17902, Note_off_c, 0, 75, 64
2, 17902, Note_on_c, 0, 73, 44
2, 17943, Note_off_c, 0, 73, 64
2, 17943, Note_off_c, 0, 61, 64
2, 17945, Note_on_c, 0, 72, 52
2, 17945, Note_on_c, 0, 64, 31
2, 17986, Note_off_c, 0, 72, 64
2, 17987, Note_on_c, 0, 73, 58
2, 17999, Note_off_c, 0, 64, 64
2, 18001, Note_on_c, 0, 61, 42
2, 18027, Note_off_c, 0, 73, 64
2, 18029, Note_on_c, 0, 76, 41
2, 18050, Control_c, 0, 64, 96
2, 18056, Note_off_c, 0, 61, 64
2, 18058, Note_on_c, 0, 56, 39
2, 18061, Control_c, 0, 64, 64
2, 18071, Note_off_c, 0, 76, 64
2, 18071, Note_on_c, 0, 80, 55
2, 18074, Control_c, 0, 64, 0
2, 18114, Note_off_c, 0, 80, 64
2, 18114, Note_off_c, 0, 56, 64
2, 18115, Note_on_c, 0, 51, 58
2, 18125, Control_c, 0, 64, 64
2, 18136, Control_c, 0, 64, 127
2, 18157, Note_on_c, 0, 69, 47
2, 18170, Note_off_c, 0, 51, 64
2, 18170, Note_on_c, 0, 57, 31
2, 18198, Note_off_c, 0, 69, 64
2, 18199, Note_on_c, 0, 73, 44
2, 18227, Note_off_c, 0, 57, 64
2, 18227, Note_on_c, 0, 61, 44
2, 18240, Note_off_c, 0, 73, 64
2, 18242, Note_on_c, 0, 75, 50
2, 18283, Note_off_c, 0, 75, 64
2, 18283, Note_off_c, 0, 61, 64
2, 18284, Note_on_c, 0, 78, 55
2, 18284, Note_on_c, 0, 66, 44
2, 18326, Note_off_c, 0, 78, 64
2, 18326, Note_on_c, 0, 81, 52
2, 18339, Note_off_c, 0, 66, 64
2, 18341, Note_on_c, 0, 61, 48
2, 18367, Note_off_c, 0, 81, 64
2, 18369, Note_on_c, 0, 85, 58
2, 18396, Note_off_c, 0, 61, 64
2, 18397, Note_on_c, 0, 57, 39
2, 18411, Note_off_c, 0, 85, 64
2, 18411, Note_on_c, 0, 87, 58
2, 18452, Note_off_c, 0, 87, 64
2, 18452, Note_off_c, 0, 57, 64
2, 18454, Note_on_c, 0, 95, 52
2, 18454, Note_on_c, 0, 54, 50
2, 18495, Note_off_c, 0, 95, 64
2, 18495, Note_on_c, 0, 93, 52
2, 18508, Note_off_c, 0, 54, 64
2, 18510, Note_on_c, 0, 61, 39
2, 18538, Note_off_c, 0, 93, 64
2, 18539, Note_on_c, 0, 92, 47
2, 18566, Note_off_c, 0, 61, 64
2, 18566, Note_on_c, 0, 63, 40
2, 18579, Note_off_c, 0, 92, 64
2, 18581, Note_on_c, 0, 90, 44
2, 18623, Note_off_c, 0, 90, 64
2, 18623, Note_off_c, 0, 63, 64
2, 18623, Note_on_c, 0, 88, 47
2, 18624, Note_on_c, 0, 69, 36
2, 18664, Note_off_c, 0, 88, 64
2, 18666, Note_on_c, 0, 87, 44
2, 18679, Note_off_c, 0, 69, 64
2, 18679, Note_on_c, 0, 63, 40
2, 18707, Note_off_c, 0, 87, 64
2, 18708, Note_on_c, 0, 90, 50
2, 18735, Note_off_c, 0, 63, 64
2, 18735, Note_on_c, 0, 61, 31
2, 18748, Note_off_c, 0, 90, 64
2, 18750, Note_on_c, 0, 85, 44
2, 18756, Control_c, 0, 64, 64
2, 18769, Control_c, 0, 64, 0
2, 18792, Note_off_c, 0, 85, 64
2, 18792, Note_off_c, 0, 61, 64
2, 18793, Note_on_c, 0, 84, 47
2, 18794, Note_on_c, 0, 44, 55
2, 18806, Control_c, 0, 64, 64
2, 18818, Control_c, 0, 64, 127
2, 18835, Note_off_c, 0, 84, 64
2, 18835, Note_on_c, 0, 87, 40
2, 18848, Note_off_c, 0, 44, 64
2, 18850, Note_on_c, 0, 51, 40
2, 18876, Note_off_c, 0, 87, 64
2, 18878, Note_on_c, 0, 81, 44
2, 18904, Note_off_c, 0, 51, 64
2, 18906, Note_on_c, 0, 54, 38
2, 18919, Note_off_c, 0, 81, 64
2, 18920, Note_on_c, 0, 80, 47
2, 18960, Note_off_c, 0, 80, 64
2, 18961, Note_off_c, 0, 54, 64
2, 18962, Note_on_c, 0, 78, 47
2, 18963, Note_on_c, 0, 60, 29
2, 19004, Note_off_c, 0, 78, 64
2, 19006, Note_on_c, 0, 81, 44
2, 19019, Note_off_c, 0, 60, 64
2, 19019, Note_on_c, 0, 54, 35
2, 19047, Note_off_c, 0, 81, 64
2, 19047, Note_on_c, 0, 76, 52
2, 19075, Note_off_c, 0, 54, 64
2, 19075, Note_on_c, 0, 51, 35
2, 19088, Note_off_c, 0, 76, 64
2, 19090, Note_on_c, 0, 75, 44
2, 19131, Note_off_c, 0, 75, 64
2, 19132, Note_off_c, 0, 51, 64
2, 19132, Note_on_c, 0, 78, 47
2, 19132, Note_on_c, 0, 44, 47
2, 19173, Note_off_c, 0, 78, 64
2, 19175, Note_on_c, 0, 73, 40
2, 19188, Note_off_c, 0, 44, 64
2, 19188, Note_on_c, 0, 51, 44
2, 19216, Note_off_c, 0, 73, 64
2, 19216, Note_on_c, 0, 72, 44
2, 19244, Note_off_c, 0, 51, 64
2, 19246, Note_on_c, 0, 54, 35
2, 19259, Note_off_c, 0, 72, 64
2, 19260, Note_on_c, 0, 75, 27
2, 19300, Note_off_c, 0, 75, 64
2, 19301, Note_off_c, 0, 54, 64
2, 19302, Note_on_c, 0, 69, 44
2, 19303, Note_on_c, 0, 60, 39
2, 19344, Note_off_c, 0, 69, 64
2, 19344, Note_on_c, 0, 68, 27
2, 19356, Note_off_c, 0, 60, 64
2, 19358, Note_on_c, 0, 54, 40
2, 19385, Note_off_c, 0, 68, 64
2, 19387, Note_on_c, 0, 71, 36
2, 19413, Note_off_c, 0, 54, 64
2, 19415, Note_on_c, 0, 51, 47
2, 19428, Note_off_c, 0, 71, 64
2, 19428, Note_on_c, 0, 69, 39
2, 19447, Control_c, 0, 64, 64
2, 19458, Control_c, 0, 64, 0
2, 19471, Note_off_c, 0, 51, 64
2, 19471, Note_on_c, 0, 49, 58
2, 19492, Control_c, 0, 64, 64
2, 19503, Control_c, 0, 64, 127
2, 19512, Note_off_c, 0, 69, 64
2, 19514, Note_on_c, 0, 68, 47
2, 19527, Note_off_c, 0, 49, 64
2, 19528, Note_on_c, 0, 56, 33
2, 19556, Note_off_c, 0, 68, 64
2, 19556, Note_on_c, 0, 69, 31
2, 19584, Note_off_c, 0, 56, 64
2, 19584, Note_on_c, 0, 61, 33
2, 19597, Note_off_c, 0, 69, 64
2, 19599, Note_on_c, 0, 68, 35
2, 19640, Note_off_c, 0, 68, 64
2, 19640, Note_off_c, 0, 61, 64
2, 19641, Note_on_c, 0, 67, 41
2, 19641, Note_on_c, 0, 64, 37
2, 19683, Note_off_c, 0, 67, 64
2, 19683, Note_on_c, 0, 68, 50
2, 19696, Note_off_c, 0, 64, 64
2, 19698, Note_on_c, 0, 61, 28
2, 19725, Note_off_c, 0, 68, 64
2, 19727, Note_on_c, 0, 73, 47
2, 19747, Control_c, 0, 64, 96
2, 19752, Note_off_c, 0, 61, 64
2, 19755, Note_on_c, 0, 56, 39
2, 19758, Control_c, 0, 64, 0
2, 19768, Note_off_c, 0, 73, 64
2, 19768, Note_on_c, 0, 76, 47
2, 19790, Control_c, 0, 64, 64
2, 19800, Control_c, 0, 64, 127
2, 19809, Note_off_c, 0, 76, 64
2, 19809, Note_off_c, 0, 56, 64
2, 19811, Note_on_c, 0, 75, 47
2, 19812, Note_on_c, 0, 52, 62
2, 19852, Note_off_c, 0, 75, 64
2, 19852, Note_on_c, 0, 73, 29
2, 19865, Note_off_c, 0, 52, 64
2, 19867, Note_on_c, 0, 56, 36
2, 19896, Note_off_c, 0, 73, 64
2, 19896, Note_on_c, 0, 75, 47
2, 19923, Note_off_c, 0, 56, 64
2, 19924, Note_on_c, 0, 61, 39
2, 19937, Note_off_c, 0, 75, 64
2, 19939, Note_on_c, 0, 73, 47
2, 19980, Note_off_c, 0, 73, 64
2, 19980, Note_off_c, 0, 61, 64
2, 19980, Note_on_c, 0, 72, 47
2, 19981, Note_on_c, 0, 64, 31
2, 20021, Note_off_c, 0, 72, 64
2, 20023, Note_on_c, 0, 73, 47
2, 20036, Note_off_c, 0, 64, 64
2, 20037, Note_on_c, 0, 61, 36
2, 20064, Note_off_c, 0, 73, 64
2, 20065, Note_on_c, 0, 76, 47
2, 20092, Note_off_c, 0, 61, 64
2, 20093, Note_on_c, 0, 56, 42
2, 20106, Note_off_c, 0, 76, 64
2, 20108, Note_on_c, 0, 80, 44
2, 20124, Control_c, 0, 64, 64
2, 20134, Control_c, 0, 64, 0
2, 20149, Note_off_c, 0, 80, 64
2, 20149, Note_off_c, 0, 56, 64
2, 20151, Note_on_c, 0, 54, 50
2, 20151, Note_on_c, 0, 76, 44
2, 20168, Control_c, 0, 64, 96
2, 20177, Control_c, 0, 64, 127
2, 20192, Note_off_c, 0, 76, 64
2, 20192, Note_on_c, 0, 75, 44
2, 20205, Note_off_c, 0, 54, 64
2, 20207, Note_on_c, 0, 61, 39
2, 20233, Note_off_c, 0, 75, 64
2, 20235, Note_on_c, 0, 76, 39
2, 20261, Note_off_c, 0, 61, 64
2, 20264, Note_on_c, 0, 63, 29
2, 20277, Note_off_c, 0, 76, 64
2, 20277, Note_on_c, 0, 75, 38
2, 20318, Note_off_c, 0, 75, 64
2, 20318, Note_off_c, 0, 63, 64
2, 20320, Note_on_c, 0, 74, 32
2, 20320, Note_on_c, 0, 69, 32
2, 20361, Note_off_c, 0, 74, 64
2, 20363, Note_on_c, 0, 75, 50
2, 20376, Note_off_c, 0, 69, 64
2, 20376, Note_on_c, 0, 63, 38
2, 20404, Note_off_c, 0, 75, 64
2, 20404, Note_on_c, 0, 78, 38
2, 20432, Note_off_c, 0, 63, 64
2, 20433, Note_on_c, 0, 61, 23
2, 20446, Note_off_c, 0, 78, 64
2, 20448, Note_on_c, 0, 81, 47
2, 20449, Control_c, 0, 64, 96
2, 20462, Control_c, 0, 64, 0
2, 20485, Control_c, 0, 64, 64
2, 20489, Note_off_c, 0, 81, 64
2, 20489, Note_off_c, 0, 61, 64
2, 20489, Note_on_c, 0, 78, 40
2, 20490, Note_on_c, 0, 56, 39
2, 20498, Control_c, 0, 64, 127
2, 20530, Note_off_c, 0, 78, 64
2, 20532, Note_on_c, 0, 77, 26
2, 20545, Note_off_c, 0, 56, 64
2, 20545, Note_on_c, 0, 61, 42
2, 20573, Note_off_c, 0, 77, 64
2, 20573, Note_on_c, 0, 78, 35
2, 20601, Note_off_c, 0, 61, 64
2, 20604, Note_on_c, 0, 65, 36
2, 20616, Note_off_c, 0, 78, 64
2, 20616, Note_on_c, 0, 77, 34
2, 20658, Note_off_c, 0, 77, 64
2, 20658, Note_off_c, 0, 65, 64
2, 20660, Note_on_c, 0, 76, 56
2, 20660, Note_on_c, 0, 71, 39
2, 20701, Note_off_c, 0, 76, 64
2, 20701, Note_on_c, 0, 77, 41
2, 20714, Note_off_c, 0, 71, 64
2, 20716, Note_on_c, 0, 65, 39
2, 20742, Note_off_c, 0, 77, 64
2, 20744, Note_on_c, 0, 80, 50
2, 20770, Note_off_c, 0, 65, 64
2, 20772, Note_on_c, 0, 61, 23
2, 20785, Note_off_c, 0, 80, 64
2, 20785, Note_on_c, 0, 85, 50
2, 20812, Control_c, 0, 64, 96
2, 20821, Control_c, 0, 64, 64
2, 20829, Note_off_c, 0, 85, 64
2, 20829, Note_off_c, 0, 61, 64
2, 20829, Note_on_c, 0, 57, 50
2, 20845, Control_c, 0, 64, 96
2, 20855, Control_c, 0, 64, 127
2, 20872, Note_on_c, 0, 73, 27
2, 20885, Note_off_c, 0, 57, 64
2, 20885, Note_on_c, 0, 61, 26
2, 20913, Note_off_c, 0, 73, 64
2, 20913, Note_on_c, 0, 74, 29
2, 20941, Note_off_c, 0, 61, 64
2, 20941, Note_on_c, 0, 66, 35
2, 20954, Note_off_c, 0, 74, 64
2, 20956, Note_on_c, 0, 73, 40
2, 20998, Note_off_c, 0, 73, 64
2, 20998, Note_off_c, 0, 66, 64
2, 20998, Note_on_c, 0, 72, 47
2, 20999, Note_on_c, 0, 69, 29
2, 21041, Note_off_c, 0, 72, 64
2, 21041, Note_on_c, 0, 73, 47
2, 21054, Note_off_c, 0, 69, 64
2, 21056, Note_on_c, 0, 66, 44
2, 21082, Note_off_c, 0, 73, 64
2, 21084, Note_on_c, 0, 78, 44
2, 21110, Note_off_c, 0, 66, 64
2, 21112, Note_on_c, 0, 61, 31
2, 21125, Note_off_c, 0, 78, 64
2, 21126, Note_on_c, 0, 81, 36
2, 21152, Control_c, 0, 64, 96
2, 21161, Control_c, 0, 64, 64
2, 21167, Note_off_c, 0, 81, 64
2, 21167, Note_off_c, 0, 61, 64
2, 21168, Note_on_c, 0, 78, 35
2, 21168, Note_on_c, 0, 56, 51
2, 21172, Control_c, 0, 64, 0
2, 21187, Control_c, 0, 64, 127
2, 21210, Note_off_c, 0, 78, 64
2, 21210, Note_on_c, 0, 77, 32
2, 21223, Note_off_c, 0, 56, 64
2, 21225, Note_on_c, 0, 61, 44
2, 21253, Note_off_c, 0, 77, 64
2, 21253, Note_on_c, 0, 78, 40
2, 21281, Note_off_c, 0, 61, 64
2, 21281, Note_on_c, 0, 65, 39
2, 21294, Note_off_c, 0, 78, 64
2, 21296, Note_on_c, 0, 77, 36
2, 21337, Note_off_c, 0, 77, 64
2, 21337, Note_off_c, 0, 65, 64
2, 21338, Note_on_c, 0, 76, 52
2, 21338, Note_on_c, 0, 71, 41
2, 21379, Note_off_c, 0, 76, 64
2, 21381, Note_on_c, 0, 77, 41
2, 21394, Note_off_c, 0, 71, 64
2, 21394, Note_on_c, 0, 65, 41
2, 21422, Note_off_c, 0, 77, 64
2, 21422, Note_on_c, 0, 80, 47
2, 21450, Note_off_c, 0, 65, 64
2, 21450, Note_on_c, 0, 61, 36
2, 21463, Note_off_c, 0, 80, 64
2, 21465, Note_on_c, 0, 85, 38
2, 21501, Control_c, 0, 64, 96
2, 21506, Note_off_c, 0, 85, 64
2, 21506, Note_off_c, 0, 61, 64
2, 21508, Note_on_c, 0, 80, 47
2, 21508, Note_on_c, 0, 57, 56
2, 21510, Control_c, 0, 64, 64
2, 21532, Control_c, 0, 64, 96
2, 21542, Control_c, 0, 64, 127
2, 21550, Note_off_c, 0, 80, 64
2, 21550, Note_on_c, 0, 78, 44
2, 21563, Note_off_c, 0, 57, 64
2, 21564, Note_on_c, 0, 61, 33
2, 21590, Note_off_c, 0, 78, 64
2, 21593, Note_on_c, 0, 80, 40
2, 21619, Note_off_c, 0, 61, 64
2, 21621, Note_on_c, 0, 66, 38
2, 21634, Note_off_c, 0, 80, 64
2, 21634, Note_on_c, 0, 78, 38
2, 21675, Note_off_c, 0, 78, 64
2, 21675, Note_off_c, 0, 66, 64
2, 21677, Note_on_c, 0, 77, 44
2, 21677, Note_on_c, 0, 69, 36
2, 21719, Note_off_c, 0, 77, 64
2, 21720, Note_on_c, 0, 78, 47
2, 21733, Note_off_c, 0, 69, 64
2, 21733, Note_on_c, 0, 66, 35
2, 21761, Note_off_c, 0, 78, 64
2, 21762, Note_on_c, 0, 81, 50
2, 21790, Note_off_c, 0, 66, 64
2, 21790, Note_on_c, 0, 61, 21
2, 21803, Note_off_c, 0, 81, 64
2, 21805, Note_on_c, 0, 85, 55
2, 21824, Control_c, 0, 64, 64
2, 21833, Control_c, 0, 64, 0
2, 21846, Note_off_c, 0, 85, 64
2, 21846, Note_off_c, 0, 61, 64
2, 21847, Note_on_c, 0, 81, 34
2, 21847, Note_on_c, 0, 48, 47
2, 21850, Control_c, 0, 64, 64
2, 21867, Control_c, 0, 64, 127
2, 21888, Note_off_c, 0, 81, 64
2, 21889, Note_on_c, 0, 80, 55
2, 21902, Note_off_c, 0, 48, 64
2, 21902, Note_on_c, 0, 54, 24
2, 21931, Note_off_c, 0, 80, 64
2, 21931, Note_on_c, 0, 81, 52
2, 21959, Note_off_c, 0, 54, 64
2, 21961, Note_on_c, 0, 56, 51
2, 21973, Note_off_c, 0, 81, 64
2, 21974, Note_on_c, 0, 80, 55
2, 22015, Note_off_c, 0, 80, 64
2, 22015, Note_off_c, 0, 56, 64
2, 22017, Note_on_c, 0, 79, 59
2, 22018, Note_on_c, 0, 63, 35
2, 22058, Note_off_c, 0, 79, 64
2, 22058, Note_on_c, 0, 80, 58
2, 22071, Note_off_c, 0, 63, 64
2, 22074, Note_on_c, 0, 56, 36
2, 22099, Note_off_c, 0, 80, 64
2, 22102, Note_on_c, 0, 84, 44
2, 22128, Note_off_c, 0, 56, 64
2, 22129, Note_on_c, 0, 54, 32
2, 22142, Note_off_c, 0, 84, 64
2, 22143, Note_on_c, 0, 87, 58
2, 22173, Control_c, 0, 64, 96
2, 22182, Control_c, 0, 64, 64
2, 22186, Note_off_c, 0, 87, 64
2, 22186, Note_off_c, 0, 54, 64
2, 22187, Note_on_c, 0, 80, 58
2, 22187, Note_on_c, 0, 49, 58
2, 22199, Control_c, 0, 64, 0
2, 22209, Control_c, 0, 64, 96
2, 22218, Control_c, 0, 64, 127
2, 22227, Note_off_c, 0, 80, 64
2, 22229, Note_on_c, 0, 81, 44
2, 22242, Note_off_c, 0, 49, 64
2, 22242, Note_on_c, 0, 56, 48
2, 22270, Note_off_c, 0, 81, 64
2, 22271, Note_on_c, 0, 80, 50
2, 22298, Note_off_c, 0, 56, 64
2, 22299, Note_on_c, 0, 61, 36
2, 22311, Note_off_c, 0, 80, 64
2, 22313, Note_on_c, 0, 79, 56
2, 22355, Note_off_c, 0, 79, 64
2, 22355, Note_off_c, 0, 61, 64
2, 22356, Note_on_c, 0, 80, 58
2, 22356, Note_on_c, 0, 64, 29
2, 22398, Note_off_c, 0, 80, 64
2, 22398, Note_on_c, 0, 88, 70
2, 22411, Note_off_c, 0, 64, 64
2, 22413, Note_on_c, 0, 61, 31
2, 22439, Note_off_c, 0, 88, 64
2, 22441, Note_on_c, 0, 87, 58
2, 22467, Note_off_c, 0, 61, 64
2, 22469, Note_on_c, 0, 56, 42
2, 22483, Note_off_c, 0, 87, 64
2, 22483, Note_on_c, 0, 86, 54
2, 22498, Control_c, 0, 64, 64
2, 22524, Note_off_c, 0, 86, 64
2, 22524, Note_off_c, 0, 56, 64
2, 22525, Note_on_c, 0, 85, 47
2, 22526, Note_on_c, 0, 51, 58
2, 22527, Control_c, 0, 64, 96
2, 22545, Control_c, 0, 64, 127
2, 22567, Note_off_c, 0, 85, 64
2, 22567, Note_on_c, 0, 84, 50
2, 22580, Note_off_c, 0, 51, 64
2, 22582, Note_on_c, 0, 56, 39
2, 22610, Note_off_c, 0, 84, 64
2, 22610, Note_on_c, 0, 83, 47
2, 22638, Note_off_c, 0, 56, 64
2, 22639, Note_on_c, 0, 60, 26
2, 22652, Note_off_c, 0, 83, 64
2, 22653, Note_on_c, 0, 82, 40
2, 22694, Note_off_c, 0, 82, 64
2, 22695, Note_off_c, 0, 60, 64
2, 22695, Note_on_c, 0, 81, 47
2, 22696, Note_on_c, 0, 66, 47
2, 22736, Note_off_c, 0, 81, 64
2, 22738, Note_on_c, 0, 80, 50
2, 22751, Note_off_c, 0, 66, 64
2, 22751, Note_on_c, 0, 60, 32
2, 22779, Note_off_c, 0, 80, 64
2, 22779, Note_on_c, 0, 79, 52
2, 22807, Note_off_c, 0, 60, 64
2, 22808, Note_on_c, 0, 56, 31
2, 22820, Note_off_c, 0, 79, 64
2, 22822, Note_on_c, 0, 78, 55
2, 22828, Control_c, 0, 64, 96
2, 22841, Control_c, 0, 64, 0
2, 22856, Control_c, 0, 64, 64
2, 22863, Note_off_c, 0, 78, 64
2, 22864, Note_off_c, 0, 56, 64
2, 22865, Note_on_c, 0, 76, 38
2, 22866, Note_on_c, 0, 52, 59
2, 22867, Control_c, 0, 64, 127
2, 22907, Note_off_c, 0, 76, 64
2, 22907, Note_on_c, 0, 78, 44
2, 22920, Note_off_c, 0, 52, 64
2, 22922, Note_on_c, 0, 56, 42
2, 22948, Note_off_c, 0, 78, 64
2, 22950, Note_on_c, 0, 76, 39
2, 22976, Note_off_c, 0, 56, 64
2, 22978, Note_on_c, 0, 61, 36
2, 22991, Note_off_c, 0, 76, 64
2, 22992, Note_on_c, 0, 75, 50
2, 23032, Note_off_c, 0, 75, 64
2, 23033, Note_off_c, 0, 61, 64
2, 23034, Note_on_c, 0, 76, 59
2, 23035, Note_on_c, 0, 64, 33
2, 23076, Note_off_c, 0, 76, 64
2, 23077, Note_on_c, 0, 88, 62
2, 23091, Note_off_c, 0, 64, 64
2, 23091, Note_on_c, 0, 61, 33
2, 23119, Note_off_c, 0, 88, 64
2, 23119, Note_on_c, 0, 87, 58
2, 23147, Note_off_c, 0, 61, 64
2, 23148, Note_on_c, 0, 56, 44
2, 23160, Note_off_c, 0, 87, 64
2, 23162, Note_on_c, 0, 86, 51
2, 23164, Control_c, 0, 64, 64
2, 23177, Control_c, 0, 64, 0
2, 23190, Control_c, 0, 64, 64
2, 23201, Control_c, 0, 64, 96
2, 23203, Note_off_c, 0, 86, 64
2, 23204, Note_off_c, 0, 56, 64
2, 23204, Note_on_c, 0, 85, 47
2, 23205, Note_on_c, 0, 54, 50
2, 23213, Control_c, 0, 64, 127
2, 23244, Note_off_c, 0, 85, 64
2, 23246, Note_on_c, 0, 84, 44
2, 23260, Note_off_c, 0, 54, 64
2, 23260, Note_on_c, 0, 61, 28
2, 23288, Note_off_c, 0, 84, 64
2, 23288, Note_on_c, 0, 83, 41
2, 23316, Note_off_c, 0, 61, 64
2, 23318, Note_on_c, 0, 63, 38
2, 23331, Note_off_c, 0, 83, 64
2, 23331, Note_on_c, 0, 82, 55
2, 23372, Note_off_c, 0, 82, 64
2, 23373, Note_off_c, 0, 63, 64
2, 23375, Note_on_c, 0, 81, 52
2, 23375, Note_on_c, 0, 69, 47
2, 23415, Note_off_c, 0, 81, 64
2, 23416, Note_on_c, 0, 80, 55
2, 23429, Note_off_c, 0, 69, 64
2, 23431, Note_on_c, 0, 63, 29
2, 23457, Note_off_c, 0, 80, 64
2, 23459, Note_on_c, 0, 79, 39
2, 23485, Note_off_c, 0, 63, 64
2, 23487, Note_on_c, 0, 61, 15
2, 23496, Control_c, 0, 64, 96
2, 23500, Note_off_c, 0, 79, 64
2, 23500, Note_on_c, 0, 78, 44
2, 23508, Control_c, 0, 64, 0
2, 23530, Control_c, 0, 64, 64
2, 23540, Control_c, 0, 64, 127
2, 23543, Note_off_c, 0, 78, 64
2, 23544, Note_off_c, 0, 61, 64
2, 23544, Note_on_c, 0, 80, 55
2, 23544, Note_on_c, 0, 68, 58
2, 23544, Note_on_c, 0, 56, 54
2, 23545, Note_on_c, 0, 61, 48
2, 23545, Note_on_c, 0, 64, 40
2, 23584, Note_off_c, 0, 80, 64
2, 23628, Note_off_c, 0, 64, 64
2, 23628, Note_off_c, 0, 61, 64
2, 23628, Note_off_c, 0, 56, 64
2, 23628, Note_off_c, 0, 68, 64
2, 23629, Note_on_c, 0, 92, 25
2, 23669, Note_off_c, 0, 92, 64
2, 23671, Note_on_c, 0, 91, 45
2, 23712, Note_off_c, 0, 91, 64
2, 23712, Note_on_c, 0, 90, 62
2, 23755, Note_off_c, 0, 90, 64
2, 23756, Note_on_c, 0, 89, 52
2, 23796, Note_off_c, 0, 89, 64
2, 23798, Note_on_c, 0, 88, 40
2, 23836, Control_c, 0, 64, 96
2, 23840, Note_off_c, 0, 88, 64
2, 23840, Note_on_c, 0, 87, 40
2, 23849, Control_c, 0, 64, 0
2, 23866, Control_c, 0, 64, 64
2, 23876, Control_c, 0, 64, 127
2, 23881, Note_off_c, 0, 87, 64
2, 23883, Note_on_c, 0, 55, 75
2, 23883, Note_on_c, 0, 86, 47
2, 23884, Note_on_c, 0, 64, 64
2, 23884, Note_on_c, 0, 69, 70
2, 23884, Note_on_c, 0, 61, 67
2, 23885, Note_on_c, 0, 67, 62
2, 23924, Note_off_c, 0, 86, 64
2, 23925, Note_on_c, 0, 85, 41
2, 23967, Note_off_c, 0, 85, 64
2, 23968, Note_on_c, 0, 84, 45
2, 24009, Note_off_c, 0, 84, 64
2, 24011, Note_on_c, 0, 83, 42
2, 24052, Note_off_c, 0, 83, 64
2, 24052, Note_off_c, 0, 67, 64
2, 24053, Note_off_c, 0, 61, 64
2, 24053, Note_off_c, 0, 69, 64
2, 24053, Note_off_c, 0, 64, 64
2, 24054, Note_off_c, 0, 55, 64
2, 24054, Note_on_c, 0, 82, 62
2, 24093, Note_off_c, 0, 82, 64
2, 24095, Note_on_c, 0, 81, 43
2, 24136, Note_off_c, 0, 81, 64
2, 24137, Note_on_c, 0, 80, 36
2, 24178, Note_off_c, 0, 80, 64
2, 24180, Note_on_c, 0, 79, 35
2, 24221, Note_off_c, 0, 79, 64
2, 24223, Note_on_c, 0, 78, 42
2, 24264, Note_off_c, 0, 78, 64
2, 24264, Note_on_c, 0, 77, 40
2, 24305, Note_off_c, 0, 77, 64
2, 24307, Note_on_c, 0, 76, 27
2, 24348, Note_off_c, 0, 76, 64
2, 24349, Note_on_c, 0, 75, 38
2, 24390, Note_off_c, 0, 75, 64
2, 24392, Note_on_c, 0, 74, 55
2, 24433, Note_off_c, 0, 74, 64
2, 24435, Note_on_c, 0, 73, 42
2, 24476, Note_off_c, 0, 73, 64
2, 24477, Note_on_c, 0, 72, 30
2, 24517, Note_off_c, 0, 72, 64
2, 24519, Note_on_c, 0, 71, 34
2, 24561, Note_off_c, 0, 71, 64
2, 24561, Note_on_c, 0, 70, 52
2, 24602, Note_off_c, 0, 70, 64
2, 24604, Note_on_c, 0, 69, 42
2, 24645, Note_off_c, 0, 69, 64
2, 24646, Note_on_c, 0, 68, 31
2, 24688, Note_off_c, 0, 68, 64
2, 24689, Note_on_c, 0, 67, 42
2, 24730, Note_off_c, 0, 67, 64
2, 24732, Note_on_c, 0, 66, 50
2, 24773, Note_off_c, 0, 66, 64
2, 24773, Note_on_c, 0, 64, 40
2, 24814, Note_off_c, 0, 64, 64
2, 24816, Note_on_c, 0, 63, 52
2, 24857, Note_off_c, 0, 63, 64
2, 24858, Note_on_c, 0, 61, 56
2, 24900, Note_off_c, 0, 61, 64
2, 24901, Note_on_c, 0, 32, 86
2, 24901, Note_on_c, 0, 56, 70
2, 24902, Note_on_c, 0, 44, 80
2, 24985, Note_off_c, 0, 32, 64
2, 24985, Note_off_c, 0, 44, 64
2, 24986, Note_off_c, 0, 56, 64
2, 25069, Note_on_c, 0, 93, 50
2, 25070, Note_on_c, 0, 64, 51
2, 25070, Note_on_c, 0, 76, 49
2, 25113, Note_off_c, 0, 93, 64
2, 25113, Note_on_c, 0, 92, 36
2, 25135, Control_c, 0, 64, 96
2, 25145, Control_c, 0, 64, 64
2, 25154, Note_off_c, 0, 92, 64
2, 25156, Note_on_c, 0, 100, 46
2, 25167, Control_c, 0, 64, 127
2, 25197, Note_off_c, 0, 100, 64
2, 25198, Note_on_c, 0, 88, 33
2, 25238, Note_off_c, 0, 88, 64
2, 25239, Note_off_c, 0, 76, 64
2, 25239, Note_off_c, 0, 64, 64
2, 25240, Note_on_c, 0, 90, 57
2, 25241, Note_on_c, 0, 73, 59
2, 25241, Note_on_c, 0, 61, 57
2, 25282, Note_off_c, 0, 90, 64
2, 25282, Note_on_c, 0, 88, 41
2, 25325, Note_off_c, 0, 88, 64
2, 25325, Note_on_c, 0, 97, 50
2, 25367, Note_off_c, 0, 97, 64
2, 25368, Note_on_c, 0, 85, 43
2, 25409, Note_off_c, 0, 85, 64
2, 25410, Note_off_c, 0, 61, 64
2, 25410, Note_off_c, 0, 73, 64
2, 25410, Note_on_c, 0, 87, 53
2, 25411, Note_on_c, 0, 68, 54
2, 25411, Note_on_c, 0, 56, 53
2, 25451, Note_off_c, 0, 87, 64
2, 25452, Note_on_c, 0, 85, 53
2, 25494, Note_off_c, 0, 85, 64
2, 25494, Note_on_c, 0, 92, 36
2, 25535, Note_off_c, 0, 92, 64
2, 25537, Note_on_c, 0, 80, 36
2, 25578, Note_off_c, 0, 80, 64
2, 25579, Note_off_c, 0, 56, 64
2, 25579, Note_off_c, 0, 68, 64
2, 25580, Note_on_c, 0, 81, 57
2, 25581, Note_on_c, 0, 64, 53
2, 25581, Note_on_c, 0, 52, 56
2, 25621, Note_off_c, 0, 81, 64
2, 25622, Note_on_c, 0, 80, 25
2, 25663, Note_off_c, 0, 80, 64
2, 25665, Note_on_c, 0, 88, 44
2, 25706, Note_off_c, 0, 88, 64
2, 25706, Note_on_c, 0, 76, 44
2, 25747, Note_off_c, 0, 76, 64
2, 25748, Note_off_c, 0, 52, 64
2, 25748, Note_off_c, 0, 64, 64
2, 25749, Note_on_c, 0, 78, 62
2, 25750, Note_on_c, 0, 61, 57
2, 25750, Note_on_c, 0, 49, 59
2, 25790, Note_off_c, 0, 78, 64
2, 25792, Note_on_c, 0, 76, 38
2, 25834, Note_off_c, 0, 76, 64
2, 25834, Note_on_c, 0, 85, 53
2, 25875, Note_off_c, 0, 85, 64
2, 25877, Note_on_c, 0, 73, 17
2, 25918, Note_off_c, 0, 73, 64
2, 25918, Note_off_c, 0, 49, 64
2, 25919, Note_off_c, 0, 61, 64
2, 25919, Note_on_c, 0, 75, 50
2, 25920, Note_on_c, 0, 56, 67
2, 25920, Note_on_c, 0, 44, 64
2, 25959, Note_off_c, 0, 75, 64
2, 25961, Note_on_c, 0, 73, 36
2, 26003, Note_off_c, 0, 73, 64
2, 26003, Note_on_c, 0, 80, 53
2, 26046, Note_off_c, 0, 80, 64
2, 26046, Note_on_c, 0, 68, 27
2, 26087, Note_off_c, 0, 68, 64
2, 26088, Note_off_c, 0, 44, 64
2, 26088, Note_off_c, 0, 56, 64
2, 26089, Note_on_c, 0, 69, 57
2, 26089, Note_on_c, 0, 40, 56
2, 26090, Note_on_c, 0, 52, 60
2, 26091, Control_c, 0, 64, 96
2, 26110, Control_c, 0, 64, 0
2, 26130, Note_off_c, 0, 69, 64
2, 26130, Note_on_c, 0, 68, 36
2, 26146, Control_c, 0, 64, 96
2, 26155, Control_c, 0, 64, 127
2, 26172, Note_off_c, 0, 68, 64
2, 26173, Note_on_c, 0, 76, 36
2, 26215, Note_off_c, 0, 76, 64
2, 26215, Note_on_c, 0, 64, 18
2, 26258, Note_off_c, 0, 64, 64
2, 26258, Note_off_c, 0, 52, 64
2, 26259, Note_off_c, 0, 40, 64
2, 26259, Note_on_c, 0, 66, 45
2, 26259, Note_on_c, 0, 49, 59
2, 26260, Note_on_c, 0, 37, 64
2, 26299, Note_off_c, 0, 66, 64
2, 26301, Note_on_c, 0, 64, 12
2, 26344, Note_off_c, 0, 64, 64
2, 26344, Note_on_c, 0, 73, 45
2, 26389, Note_off_c, 0, 73, 64
2, 26389, Note_on_c, 0, 61, 50
2, 26435, Note_off_c, 0, 61, 64
2, 26435, Note_off_c, 0, 37, 64
2, 26436, Note_off_c, 0, 49, 64
2, 26436, Note_on_c, 0, 63, 57
2, 26436, Note_on_c, 0, 32, 68
2, 26437, Note_on_c, 0, 44, 64
2, 26483, Note_off_c, 0, 63, 64
2, 26484, Note_on_c, 0, 61, 44
2, 26530, Note_off_c, 0, 61, 64
2, 26532, Note_on_c, 0, 68, 43
2, 26580, Note_off_c, 0, 68, 64
2, 26581, Note_on_c, 0, 56, 50
2, 26631, Note_off_c, 0, 56, 64
2, 26632, Note_off_c, 0, 44, 64
2, 26632, Note_off_c, 0, 32, 64
2, 26632, Note_on_c, 0, 63, 50
2, 26633, Note_on_c, 0, 32, 64
2, 26633, Note_on_c, 0, 44, 68
2, 26684, Note_off_c, 0, 63, 64
2, 26684, Note_on_c, 0, 61, 41
2, 26736, Note_off_c, 0, 61, 64
2, 26738, Note_on_c, 0, 68, 57
2, 26793, Note_off_c, 0, 68, 64
2, 26793, Note_on_c, 0, 56, 35
2, 26825, Control_c, 0, 64, 96
2, 26840, Control_c, 0, 64, 64
2, 26849, Note_off_c, 0, 56, 64
2, 26850, Note_off_c, 0, 44, 64
2, 26850, Note_off_c, 0, 32, 64
2, 26851, Note_on_c, 0, 63, 53
2, 26852, Note_on_c, 0, 33, 64
2, 26852, Note_on_c, 0, 45, 56
2, 26907, Note_off_c, 0, 63, 64
2, 26909, Note_on_c, 0, 61, 26
2, 26969, Note_off_c, 0, 61, 64
2, 26970, Note_on_c, 0, 68, 50
2, 26973, Control_c, 0, 64, 0
2, 27031, Note_off_c, 0, 68, 64
2, 27033, Note_on_c, 0, 56, 19
2, 27095, Note_off_c, 0, 56, 64
2, 27096, Note_off_c, 0, 45, 64
2, 27096, Note_off_c, 0, 33, 64
2, 27097, Note_on_c, 0, 63, 45
2, 27097, Note_on_c, 0, 44, 64
2, 27098, Note_on_c, 0, 32, 64
2, 27161, Note_off_c, 0, 63, 64
2, 27163, Note_on_c, 0, 61, 17
2, 27227, Note_off_c, 0, 61, 64
2, 27228, Note_on_c, 0, 68, 43
2, 27292, Note_off_c, 0, 68, 64
2, 27294, Note_on_c, 0, 56, 29
2, 27358, Note_off_c, 0, 56, 64
2, 27359, Note_off_c, 0, 32, 64
2, 27359, Note_off_c, 0, 44, 64
2, 27360, Note_on_c, 0, 63, 50
2, 27360, Note_on_c, 0, 43, 60
2, 27360, Note_on_c, 0, 31, 64
2, 27424, Note_off_c, 0, 63, 64
2, 27426, Note_on_c, 0, 61, 29
2, 27490, Note_off_c, 0, 61, 64
2, 27492, Note_on_c, 0, 67, 53
2, 27555, Note_off_c, 0, 67, 64
2, 27557, Note_on_c, 0, 55, 29
2, 27621, Note_off_c, 0, 55, 64
2, 27621, Note_off_c, 0, 31, 64
2, 27622, Note_off_c, 0, 43, 64
2, 27623, Note_on_c, 0, 44, 75
2, 27623, Note_on_c, 0, 63, 50
2, 27624, Note_on_c, 0, 32, 68
2, 27686, Note_off_c, 0, 63, 64
2, 27687, Note_on_c, 0, 61, 31
2, 27752, Note_off_c, 0, 61, 64
2, 27753, Note_on_c, 0, 68, 45
2, 27818, Note_off_c, 0, 68, 64
2, 27818, Note_on_c, 0, 56, 41
2, 27882, Note_off_c, 0, 56, 64
2, 27884, Note_on_c, 0, 63, 45
2, 27948, Note_off_c, 0, 63, 64
2, 27949, Note_on_c, 0, 60, 22
2, 28013, Note_off_c, 0, 60, 64
2, 28015, Note_on_c, 0, 68, 39
2, 28079, Note_off_c, 0, 68, 64
2, 28081, Note_on_c, 0, 56, 31
2, 28144, Note_off_c, 0, 56, 64
2, 28145, Note_off_c, 0, 44, 64
2, 28145, Note_off_c, 0, 32, 64
2, 28145, End_track
3, 0, Start_track
3, 0, Text_t, "RealTime1"
3, 28214, Note_on_c, 0, 37, 40
3, 28282, Control_c, 0, 64, 64
3, 28291, Control_c, 0, 64, 96
3, 28299, Control_c, 0, 64, 127
3, 28459, Note_on_c, 0, 44, 15
3, 28598, Note_on_c, 0, 49, 24
3, 28686, Note_on_c, 0, 53, 33
3, 28766, Note_off_c, 0, 53, 64
3, 28773, Note_on_c, 0, 56, 48
3, 28851, Note_off_c, 0, 44, 64
3, 28858, Note_on_c, 0, 61, 44
3, 28875, Note_off_c, 0, 56, 64
3, 28882, Note_off_c, 0, 49, 64
3, 28932, Note_off_c, 0, 61, 64
3, 28937, Note_on_c, 0, 65, 47
3, 29008, Note_on_c, 0, 61, 51
3, 29015, Note_off_c, 0, 65, 64
3, 29078, Note_on_c, 0, 56, 51
3, 29113, Note_off_c, 0, 61, 64
3, 29158, Note_on_c, 0, 53, 45
3, 29189, Note_off_c, 0, 56, 64
3, 29239, Note_on_c, 0, 49, 24
3, 29309, Note_on_c, 0, 44, 44
3, 29315, Note_off_c, 0, 37, 64
3, 29332, Note_off_c, 0, 49, 64
3, 29419, Note_off_c, 0, 44, 64
3, 29438, Note_on_c, 0, 37, 40
3, 29462, Note_off_c, 0, 53, 64
3, 29506, Control_c, 0, 64, 96
3, 29517, Control_c, 0, 64, 64
3, 29551, Control_c, 0, 64, 96
3, 29561, Control_c, 0, 64, 127
3, 29594, Note_on_c, 0, 44, 32
3, 29686, Note_on_c, 0, 49, 35
3, 29758, Note_on_c, 0, 53, 29
3, 29836, Note_off_c, 0, 53, 64
3, 29843, Note_on_c, 0, 56, 42
3, 29921, Note_off_c, 0, 56, 64
3, 29925, Note_on_c, 0, 61, 42
3, 30001, Note_off_c, 0, 61, 64
3, 30012, Note_on_c, 0, 65, 36
3, 30035, Note_off_c, 0, 44, 64
3, 30103, Note_off_c, 0, 65, 64
3, 30117, Note_on_c, 0, 61, 42
3, 30188, Note_off_c, 0, 49, 64
3, 30225, Note_on_c, 0, 56, 39
3, 30342, Note_on_c, 0, 53, 40
3, 30377, Note_off_c, 0, 56, 64
3, 30480, Note_off_c, 0, 61, 64
3, 30480, Note_on_c, 0, 49, 32
3, 30585, Note_off_c, 0, 53, 64
3, 30639, Note_on_c, 0, 44, 40
3, 30643, Note_off_c, 0, 37, 64
3, 30651, Note_off_c, 0, 49, 64
3, 30720, Note_off_c, 0, 44, 64
3, 30720, End_track
4, 0, Start_track
4, 0, Text_t, "RealTime2"
4, 29338, Control_c, 0, 64, 64
4, 29424, Control_c, 0, 64, 96
4, 29544, Control_c, 0, 64, 127
4, 30821, Control_c, 0, 64, 96
4, 30829, Control_c, 0, 64, 64
4, 30839, Control_c, 0, 64, 0
4, 30848, Note_on_c, 0, 68, 47
4, 30863, Note_on_c, 0, 37, 38
4, 30880, Control_c, 0, 64, 64
4, 30890, Control_c, 0, 64, 127
4, 30893, Note_off_c, 0, 37, 64
4, 31125, Note_on_c, 0, 56, 39
4, 31211, Note_off_c, 0, 56, 64
4, 31230, Note_on_c, 0, 60, 32
4, 31323, Note_off_c, 0, 60, 64
4, 31328, Note_on_c, 0, 63, 47
4, 31446, Note_on_c, 0, 60, 32
4, 31452, Note_off_c, 0, 63, 64
4, 31513, Note_off_c, 0, 60, 64
4, 31516, Note_off_c, 0, 68, 64
4, 31543, Note_on_c, 0, 56, 39
4, 31640, Control_c, 0, 64, 96
4, 31648, Control_c, 0, 64, 64
4, 31651, Note_off_c, 0, 56, 64
4, 31679, Control_c, 0, 64, 96
4, 31682, Note_on_c, 0, 70, 35
4, 31690, Control_c, 0, 64, 127
4, 31694, Note_on_c, 0, 49, 29
4, 31708, Note_off_c, 0, 70, 64
4, 31721, Note_on_c, 0, 72, 41
4, 31748, Note_off_c, 0, 72, 64
4, 31759, Note_on_c, 0, 70, 55
4, 31780, Note_off_c, 0, 49, 64
4, 31799, Note_off_c, 0, 70, 64
4, 31806, Note_on_c, 0, 72, 39
4, 31821, Note_on_c, 0, 56, 44
4, 31855, Note_on_c, 0, 70, 63
4, 31870, Note_off_c, 0, 72, 64
4, 31921, Note_on_c, 0, 68, 58
4, 31927, Note_off_c, 0, 56, 64
4, 31931, Note_off_c, 0, 70, 64
4, 32052, Note_off_c, 0, 68, 64
4, 32055, Note_on_c, 0, 73, 68
4, 32161, Note_off_c, 0, 73, 64
4, 32180, Note_on_c, 0, 75, 68
4, 32312, Note_off_c, 0, 75, 64
4, 32322, Note_on_c, 0, 77, 56
4, 32334, Control_c, 0, 64, 64
4, 32340, Note_on_c, 0, 49, 44
4, 32346, Control_c, 0, 64, 0
4, 32400, Control_c, 0, 64, 64
4, 32411, Control_c, 0, 64, 127
4, 32438, Note_off_c, 0, 49, 64
4, 32472, Note_on_c, 0, 56, 39
4, 32557, Note_off_c, 0, 56, 64
4, 32557, Note_on_c, 0, 61, 42
4, 32579, Note_off_c, 0, 77, 64
4, 32628, Note_off_c, 0, 61, 64
4, 32638, Note_on_c, 0, 65, 41
4, 32692, Note_off_c, 0, 65, 64
4, 32729, Note_on_c, 0, 61, 33
4, 32765, Note_off_c, 0, 61, 64
4, 32792, Note_on_c, 0, 56, 39
4, 32878, Note_on_c, 0, 80, 63
4, 32888, Note_off_c, 0, 56, 64
4, 32898, Note_on_c, 0, 49, 47
4, 32965, Note_off_c, 0, 49, 64
4, 33009, Note_on_c, 0, 56, 44
4, 33106, Note_on_c, 0, 61, 48
4, 33185, Note_off_c, 0, 56, 64
4, 33196, Note_off_c, 0, 61, 64
4, 33200, Note_on_c, 0, 68, 58
4, 33308, Note_on_c, 0, 65, 41
4, 33368, Note_off_c, 0, 80, 64
4, 33425, Note_off_c, 0, 65, 64
4, 33429, Note_on_c, 0, 56, 28
4, 33444, Note_off_c, 0, 56, 64
4, 33547, Note_off_c, 0, 68, 64
4, 33583, Note_on_c, 0, 78, 58
4, 33592, Note_on_c, 0, 66, 35
4, 33605, Control_c, 0, 64, 64
4, 33614, Control_c, 0, 64, 0
4, 33654, Control_c, 0, 64, 64
4, 33662, Control_c, 0, 64, 127
4, 33718, Note_on_c, 0, 63, 35
4, 33740, Note_off_c, 0, 66, 64
4, 33802, Note_off_c, 0, 63, 64
4, 33819, Note_on_c, 0, 56, 48
4, 33885, Note_off_c, 0, 78, 64
4, 33919, Note_on_c, 0, 77, 67
4, 33925, Control_c, 0, 64, 96
4, 33932, Note_on_c, 0, 65, 39
4, 33937, Control_c, 0, 64, 64
4, 33947, Note_off_c, 0, 56, 64
4, 33969, Control_c, 0, 64, 96
4, 33979, Control_c, 0, 64, 127
4, 34055, Note_on_c, 0, 61, 31
4, 34061, Note_off_c, 0, 65, 64
4, 34136, Note_off_c, 0, 61, 64
4, 34156, Note_on_c, 0, 56, 44
4, 34182, Note_off_c, 0, 77, 64
4, 34247, Note_on_c, 0, 75, 68
4, 34252, Control_c, 0, 64, 96
4, 34255, Note_off_c, 0, 56, 64
4, 34263, Control_c, 0, 64, 64
4, 34265, Note_on_c, 0, 63, 44
4, 34274, Control_c, 0, 64, 0
4, 34305, Control_c, 0, 64, 64
4, 34314, Control_c, 0, 64, 96
4, 34323, Control_c, 0, 64, 127
4, 34356, Note_on_c, 0, 60, 41
4, 34365, Note_off_c, 0, 63, 64
4, 34453, Note_off_c, 0, 60, 64
4, 34463, Note_on_c, 0, 56, 48
4, 34499, Note_off_c, 0, 56, 64
4, 34557, Note_off_c, 0, 75, 64
4, 34582, Control_c, 0, 64, 96
4, 34584, Note_on_c, 0, 77, 67
4, 34585, Note_on_c, 0, 61, 42
4, 34596, Control_c, 0, 64, 0
4, 34633, Control_c, 0, 64, 64
4, 34643, Control_c, 0, 64, 127
4, 34710, Note_on_c, 0, 56, 48
4, 34816, Note_off_c, 0, 61, 64
4, 34820, Note_on_c, 0, 53, 56
4, 34825, Note_off_c, 0, 56, 64
4, 34839, Note_off_c, 0, 53, 64
4, 34899, Note_off_c, 0, 77, 64
4, 34906, Note_on_c, 0, 73, 58
4, 34963, Note_off_c, 0, 73, 64
4, 34983, Note_on_c, 0, 68, 68
4, 34992, Control_c, 0, 64, 64
4, 35002, Control_c, 0, 64, 0
4, 35007, Note_on_c, 0, 44, 63
4, 35055, Control_c, 0, 64, 64
4, 35065, Control_c, 0, 64, 127
4, 35149, Note_off_c, 0, 44, 64
4, 35168, Note_on_c, 0, 51, 50
4, 35263, Note_on_c, 0, 56, 59
4, 35300, Note_off_c, 0, 51, 64
4, 35356, Note_off_c, 0, 56, 64
4, 35360, Note_on_c, 0, 60, 52
4, 35462, Note_on_c, 0, 56, 39
4, 35487, Note_off_c, 0, 60, 64
4, 35549, Note_off_c, 0, 56, 64
4, 35557, Note_on_c, 0, 51, 44
4, 35572, Note_off_c, 0, 51, 64
4, 35635, Note_off_c, 0, 68, 64
4, 35678, Control_c, 0, 64, 96
4, 35686, Control_c, 0, 64, 64
4, 35695, Control_c, 0, 64, 0
4, 35698, Note_on_c, 0, 70, 58
4, 35707, Note_on_c, 0, 42, 63
4, 35731, Control_c, 0, 64, 64
4, 35736, Note_off_c, 0, 42, 64
4, 35740, Control_c, 0, 64, 127
4, 35890, Note_on_c, 0, 54, 47
4, 36002, Note_on_c, 0, 58, 47
4, 36008, Note_off_c, 0, 54, 64
4, 36083, Note_off_c, 0, 58, 64
4, 36093, Note_on_c, 0, 61, 44
4, 36186, Note_on_c, 0, 58, 44
4, 36211, Note_off_c, 0, 61, 64
4, 36258, Note_off_c, 0, 58, 64
4, 36280, Note_on_c, 0, 54, 32
4, 36302, Note_off_c, 0, 54, 64
4, 36373, Control_c, 0, 64, 96
4, 36375, Note_on_c, 0, 46, 54
4, 36383, Control_c, 0, 64, 0
4, 36430, Control_c, 0, 64, 64
4, 36440, Control_c, 0, 64, 127
4, 36467, Note_off_c, 0, 46, 64
4, 36474, Note_on_c, 0, 53, 45
4, 36507, Note_off_c, 0, 70, 64
4, 36567, Note_on_c, 0, 58, 40
4, 36579, Note_off_c, 0, 53, 64
4, 36673, Note_off_c, 0, 58, 64
4, 36680, Note_on_c, 0, 62, 41
4, 36779, Note_off_c, 0, 62, 64
4, 36783, Note_on_c, 0, 58, 38
4, 36825, Note_off_c, 0, 58, 64
4, 36850, Note_on_c, 0, 53, 35
4, 36933, Control_c, 0, 64, 96
4, 36939, Note_off_c, 0, 53, 64
4, 36943, Control_c, 0, 64, 64
4, 36953, Control_c, 0, 64, 0
4, 36955, Note_on_c, 0, 46, 51
4, 36961, Note_on_c, 0, 71, 39
4, 36980, Control_c, 0, 64, 64
4, 36989, Control_c, 0, 64, 96
4, 36994, Note_off_c, 0, 71, 64
4, 36998, Control_c, 0, 64, 127
4, 37001, Note_on_c, 0, 73, 40
4, 37018, Note_off_c, 0, 73, 64
4, 37036, Note_off_c, 0, 46, 64
4, 37043, Note_on_c, 0, 71, 44
4, 37054, Note_on_c, 0, 53, 43
4, 37068, Note_off_c, 0, 71, 64
4, 37072, Note_on_c, 0, 73, 55
4, 37114, Note_on_c, 0, 71, 56
4, 37120, Note_off_c, 0, 73, 64
4, 37153, Note_on_c, 0, 58, 20
4, 37162, Note_on_c, 0, 70, 58
4, 37170, Note_off_c, 0, 71, 64
4, 37188, Note_off_c, 0, 53, 64
4, 37195, Note_off_c, 0, 70, 64
4, 37279, Note_off_c, 0, 58, 64
4, 37295, Note_on_c, 0, 62, 41
4, 37328, Note_on_c, 0, 75, 74
4, 37359, Note_off_c, 0, 62, 64
4, 37387, Note_off_c, 0, 75, 64
4, 37438, Note_on_c, 0, 77, 70
4, 37552, Note_off_c, 0, 77, 64
4, 37557, Control_c, 0, 64, 96
4, 37559, Note_on_c, 0, 51, 58
4, 37560, Note_on_c, 0, 78, 63
4, 37570, Control_c, 0, 64, 0
4, 37617, Control_c, 0, 64, 64
4, 37622, Note_off_c, 0, 51, 64
4, 37627, Control_c, 0, 64, 127
4, 37684, Note_on_c, 0, 66, 38
4, 37766, Note_on_c, 0, 58, 44
4, 37798, Note_off_c, 0, 66, 64
4, 37829, Note_off_c, 0, 78, 64
4, 37860, Note_on_c, 0, 77, 62
4, 37870, Note_off_c, 0, 58, 64
4, 37877, Control_c, 0, 64, 96
4, 37879, Note_on_c, 0, 53, 56
4, 37887, Control_c, 0, 64, 0
4, 37931, Control_c, 0, 64, 64
4, 37940, Control_c, 0, 64, 127
4, 37977, Note_on_c, 0, 65, 34
4, 38056, Note_off_c, 0, 53, 64
4, 38072, Note_on_c, 0, 57, 44
4, 38077, Note_off_c, 0, 65, 64
4, 38150, Note_off_c, 0, 57, 64
4, 38172, Control_c, 0, 64, 96
4, 38175, Note_on_c, 0, 54, 55
4, 38176, Note_on_c, 0, 75, 63
4, 38182, Note_off_c, 0, 77, 64
4, 38187, Control_c, 0, 64, 64
4, 38197, Control_c, 0, 64, 0
4, 38230, Control_c, 0, 64, 64
4, 38240, Control_c, 0, 64, 127
4, 38295, Note_on_c, 0, 63, 38
4, 38373, Note_off_c, 0, 54, 64
4, 38399, Note_on_c, 0, 58, 44
4, 38446, Note_off_c, 0, 63, 64
4, 38471, Note_off_c, 0, 58, 64
4, 38503, Control_c, 0, 64, 96
4, 38511, Control_c, 0, 64, 64
4, 38514, Note_off_c, 0, 75, 64
4, 38522, Control_c, 0, 64, 0
4, 38530, Note_on_c, 0, 77, 56
4, 38542, Note_on_c, 0, 56, 39
4, 38575, Control_c, 0, 64, 64
4, 38584, Control_c, 0, 64, 127
4, 38681, Note_on_c, 0, 66, 32
4, 38783, Note_off_c, 0, 56, 64
4, 38818, Note_off_c, 0, 66, 64
4, 38818, Note_on_c, 0, 60, 20
4, 38839, Note_off_c, 0, 60, 64
4, 38969, Note_off_c, 0, 77, 64
4, 38987, Note_on_c, 0, 73, 50
4, 39009, Note_on_c, 0, 49, 50
4, 39015, Control_c, 0, 64, 96
4, 39023, Control_c, 0, 64, 0
4, 39073, Control_c, 0, 64, 64
4, 39082, Control_c, 0, 64, 127
4, 39153, Note_off_c, 0, 49, 64
4, 39183, Note_on_c, 0, 56, 39
4, 39286, Note_on_c, 0, 61, 39
4, 39321, Note_off_c, 0, 56, 64
4, 39334, Note_off_c, 0, 73, 64
4, 39372, Note_off_c, 0, 61, 64
4, 39377, Note_on_c, 0, 65, 39
4, 39457, Note_off_c, 0, 65, 64
4, 39480, Note_on_c, 0, 72, 41
4, 39487, Note_on_c, 0, 61, 31
4, 39531, Note_off_c, 0, 61, 64
4, 39539, Note_on_c, 0, 73, 50
4, 39550, Note_off_c, 0, 72, 64
4, 39575, Note_on_c, 0, 56, 33
4, 39601, Note_on_c, 0, 75, 68
4, 39609, Note_off_c, 0, 73, 64
4, 39635, Note_off_c, 0, 56, 64
4, 39653, Note_on_c, 0, 73, 63
4, 39661, Note_off_c, 0, 75, 64
4, 39686, Note_on_c, 0, 72, 52
4, 39697, Note_off_c, 0, 73, 64
4, 39743, Note_on_c, 0, 73, 63
4, 39768, Note_off_c, 0, 72, 64
4, 39820, Note_on_c, 0, 77, 70
4, 39828, Note_off_c, 0, 73, 64
4, 39835, Control_c, 0, 64, 64
4, 39844, Control_c, 0, 64, 0
4, 39847, Note_on_c, 0, 51, 58
4, 39891, Control_c, 0, 64, 64
4, 39901, Control_c, 0, 64, 127
4, 39977, Note_on_c, 0, 55, 52
4, 40068, Note_on_c, 0, 61, 51
4, 40101, Note_off_c, 0, 61, 64
4, 40112, Note_off_c, 0, 55, 64
4, 40165, Note_on_c, 0, 63, 58
4, 40195, Note_off_c, 0, 63, 64
4, 40258, Note_on_c, 0, 61, 54
4, 40309, Note_off_c, 0, 51, 64
4, 40347, Note_off_c, 0, 77, 64
4, 40367, Note_on_c, 0, 75, 68
4, 40377, Note_off_c, 0, 61, 64
4, 40410, Note_off_c, 0, 75, 64
4, 40556, Note_on_c, 0, 75, 68
4, 40562, Control_c, 0, 64, 96
4, 40572, Control_c, 0, 64, 0
4, 40574, Note_on_c, 0, 44, 55
4, 40610, Control_c, 0, 64, 64
4, 40619, Control_c, 0, 64, 127
4, 40715, Note_off_c, 0, 44, 64
4, 40731, Note_on_c, 0, 51, 50
4, 40837, Note_on_c, 0, 56, 54
4, 40874, Note_off_c, 0, 51, 64
4, 40918, Note_off_c, 0, 56, 64
4, 40922, Note_on_c, 0, 60, 44
4, 41018, Note_on_c, 0, 56, 44
4, 41024, Note_off_c, 0, 60, 64
4, 41089, Note_off_c, 0, 56, 64
4, 41112, Note_on_c, 0, 51, 40
4, 41216, Note_off_c, 0, 51, 64
4, 41226, Note_on_c, 0, 44, 63
4, 41234, Control_c, 0, 64, 64
4, 41244, Control_c, 0, 64, 0
4, 41280, Control_c, 0, 64, 64
4, 41290, Control_c, 0, 64, 96
4, 41299, Control_c, 0, 64, 127
4, 41354, Note_off_c, 0, 44, 64
4, 41363, Note_on_c, 0, 51, 50
4, 41504, Note_on_c, 0, 54, 55
4, 41560, Note_off_c, 0, 51, 64
4, 41601, Note_off_c, 0, 54, 64
4, 41623, Note_on_c, 0, 58, 32
4, 41734, Note_on_c, 0, 54, 44
4, 41765, Note_off_c, 0, 58, 64
4, 41802, Note_off_c, 0, 54, 64
4, 41821, Note_on_c, 0, 51, 44
4, 41922, Note_off_c, 0, 75, 64
4, 41930, Note_on_c, 0, 68, 68
4, 41935, Control_c, 0, 64, 96
4, 41938, Note_off_c, 0, 51, 64
4, 41942, Note_on_c, 0, 44, 58
4, 41948, Control_c, 0, 64, 0
4, 42000, Control_c, 0, 64, 64
4, 42009, Control_c, 0, 64, 127
4, 42046, Note_off_c, 0, 44, 64
4, 42067, Note_on_c, 0, 51, 55
4, 42167, Note_on_c, 0, 56, 54
4, 42211, Note_off_c, 0, 51, 64
4, 42261, Note_on_c, 0, 60, 47
4, 42267, Note_off_c, 0, 56, 64
4, 42346, Note_off_c, 0, 68, 64
4, 42362, Note_off_c, 0, 60, 64
4, 42375, Note_on_c, 0, 56, 42
4, 42440, Note_off_c, 0, 56, 64
4, 42461, Note_on_c, 0, 51, 44
4, 42551, Control_c, 0, 64, 96
4, 42554, Note_off_c, 0, 51, 64
4, 42554, Note_on_c, 0, 44, 55
4, 42585, Control_c, 0, 64, 127
4, 42591, Note_on_c, 0, 70, 40
4, 42641, Note_off_c, 0, 44, 64
4, 42654, Note_off_c, 0, 70, 64
4, 42659, Note_on_c, 0, 51, 50
4, 42663, Note_on_c, 0, 72, 47
4, 42707, Note_on_c, 0, 70, 63
4, 42719, Note_off_c, 0, 72, 64
4, 42736, Note_off_c, 0, 51, 64
4, 42764, Note_on_c, 0, 68, 74
4, 42779, Note_off_c, 0, 70, 64
4, 42873, Note_on_c, 0, 73, 86
4, 42879, Note_off_c, 0, 68, 64
4, 42961, Note_off_c, 0, 73, 64
4, 42980, Note_on_c, 0, 75, 80
4, 43094, Note_on_c, 0, 77, 75
4, 43107, Control_c, 0, 64, 96
4, 43110, Note_on_c, 0, 49, 58
4, 43115, Note_off_c, 0, 75, 64
4, 43119, Control_c, 0, 64, 0
4, 43178, Control_c, 0, 64, 64
4, 43187, Control_c, 0, 64, 127
4, 43193, Note_off_c, 0, 49, 64
4, 43209, Note_on_c, 0, 56, 54
4, 43294, Note_on_c, 0, 61, 48
4, 43299, Note_off_c, 0, 77, 64
4, 43316, Note_off_c, 0, 56, 64
4, 43374, Note_off_c, 0, 61, 64
4, 43379, Note_on_c, 0, 65, 47
4, 43453, Note_off_c, 0, 65, 64
4, 43478, Note_on_c, 0, 61, 28
4, 43517, Note_off_c, 0, 61, 64
4, 43536, Note_on_c, 0, 56, 33
4, 43632, Note_on_c, 0, 80, 74
4, 43640, Note_off_c, 0, 56, 64
4, 43645, Note_on_c, 0, 49, 47
4, 43718, Note_off_c, 0, 49, 64
4, 43746, Note_on_c, 0, 56, 48
4, 43847, Note_on_c, 0, 65, 52
4, 43857, Note_off_c, 0, 56, 64
4, 43876, Note_off_c, 0, 65, 64
4, 43931, Note_on_c, 0, 68, 68
4, 43965, Note_off_c, 0, 68, 64
4, 44029, Note_on_c, 0, 65, 50
4, 44050, Note_off_c, 0, 80, 64
4, 44123, Note_off_c, 0, 65, 64
4, 44130, Note_on_c, 0, 56, 28
4, 44145, Note_off_c, 0, 56, 64
4, 44237, Control_c, 0, 64, 96
4, 44240, Note_on_c, 0, 78, 68
4, 44249, Control_c, 0, 64, 0
4, 44261, Note_on_c, 0, 66, 40
4, 44292, Control_c, 0, 64, 64
4, 44301, Control_c, 0, 64, 127
4, 44368, Note_on_c, 0, 63, 40
4, 44380, Note_off_c, 0, 66, 64
4, 44452, Note_off_c, 0, 63, 64
4, 44471, Note_on_c, 0, 56, 54
4, 44521, Note_off_c, 0, 78, 64
4, 44530, Control_c, 0, 64, 96
4, 44539, Control_c, 0, 64, 64
4, 44561, Note_on_c, 0, 77, 62
4, 44585, Control_c, 0, 64, 96
4, 44588, Note_off_c, 0, 56, 64
4, 44588, Note_on_c, 0, 65, 11
4, 44598, Control_c, 0, 64, 127
4, 44678, Note_on_c, 0, 61, 33
4, 44716, Note_off_c, 0, 65, 64
4, 44764, Note_off_c, 0, 61, 64
4, 44770, Note_on_c, 0, 56, 51
4, 44843, Control_c, 0, 64, 96
4, 44853, Control_c, 0, 64, 64
4, 44865, Note_on_c, 0, 63, 38
4, 44871, Control_c, 0, 64, 0
4, 44873, Note_off_c, 0, 56, 64
4, 44873, Note_off_c, 0, 77, 64
4, 44873, Note_on_c, 0, 75, 63
4, 44896, Control_c, 0, 64, 64
4, 44906, Control_c, 0, 64, 127
4, 44967, Note_on_c, 0, 60, 36
4, 44973, Note_off_c, 0, 75, 64
4, 44977, Note_off_c, 0, 63, 64
4, 45029, Note_off_c, 0, 60, 64
4, 45033, Note_on_c, 0, 56, 59
4, 45066, Note_off_c, 0, 56, 64
4, 45114, Note_on_c, 0, 75, 58
4, 45153, Note_on_c, 0, 73, 68
4, 45159, Note_off_c, 0, 75, 64
4, 45181, Control_c, 0, 64, 96
4, 45190, Control_c, 0, 64, 64
4, 45192, Note_on_c, 0, 75, 50
4, 45202, Control_c, 0, 64, 0
4, 45226, Note_off_c, 0, 73, 64
4, 45239, Note_on_c, 0, 61, 42
4, 45245, Note_on_c, 0, 77, 70
4, 45252, Note_off_c, 0, 75, 64
4, 45289, Control_c, 0, 64, 64
4, 45299, Control_c, 0, 64, 127
4, 45357, Note_on_c, 0, 56, 62
4, 45413, Note_off_c, 0, 61, 64
4, 45436, Note_on_c, 0, 53, 66
4, 45444, Note_off_c, 0, 56, 64
4, 45461, Note_off_c, 0, 53, 64
4, 45485, Note_off_c, 0, 77, 64
4, 45501, Note_on_c, 0, 73, 68
4, 45551, Note_off_c, 0, 73, 64
4, 45573, Note_on_c, 0, 68, 74
4, 45586, Control_c, 0, 64, 96
4, 45596, Control_c, 0, 64, 0
4, 45600, Note_on_c, 0, 44, 58
4, 45658, Control_c, 0, 64, 64
4, 45667, Control_c, 0, 64, 127
4, 45731, Note_off_c, 0, 44, 64
4, 45738, Note_on_c, 0, 51, 58
4, 45838, Note_on_c, 0, 56, 59
4, 45881, Note_off_c, 0, 51, 64
4, 45923, Note_on_c, 0, 60, 56
4, 45929, Note_off_c, 0, 56, 64
4, 46016, Note_on_c, 0, 56, 54
4, 46047, Note_off_c, 0, 60, 64
4, 46108, Note_on_c, 0, 51, 58
4, 46112, Note_off_c, 0, 56, 64
4, 46129, Note_off_c, 0, 51, 64
4, 46190, Note_off_c, 0, 68, 64
4, 46218, Control_c, 0, 64, 96
4, 46227, Control_c, 0, 64, 0
4, 46235, Note_on_c, 0, 70, 74
4, 46252, Note_on_c, 0, 42, 74
4, 46282, Control_c, 0, 64, 64
4, 46285, Note_off_c, 0, 42, 64
4, 46292, Control_c, 0, 64, 127
4, 46405, Note_on_c, 0, 54, 63
4, 46513, Note_on_c, 0, 58, 63
4, 46540, Note_off_c, 0, 54, 64
4, 46597, Note_on_c, 0, 61, 67
4, 46603, Note_off_c, 0, 58, 64
4, 46696, Note_on_c, 0, 58, 58
4, 46724, Note_off_c, 0, 61, 64
4, 46777, Note_off_c, 0, 58, 64
4, 46781, Note_on_c, 0, 54, 58
4, 46834, Note_off_c, 0, 54, 64
4, 46877, Note_on_c, 0, 46, 54
4, 46895, Control_c, 0, 64, 96
4, 46905, Control_c, 0, 64, 0
4, 46957, Control_c, 0, 64, 64
4, 46967, Control_c, 0, 64, 127
4, 46975, Note_off_c, 0, 46, 64
4, 46976, Note_on_c, 0, 53, 51
4, 47065, Note_on_c, 0, 58, 44
4, 47077, Note_off_c, 0, 53, 64
4, 47090, Note_off_c, 0, 70, 64
4, 47166, Note_off_c, 0, 58, 64
4, 47176, Note_on_c, 0, 62, 50
4, 47269, Note_off_c, 0, 62, 64
4, 47269, Note_on_c, 0, 58, 44
4, 47319, Note_off_c, 0, 58, 64
4, 47338, Note_on_c, 0, 53, 48
4, 47416, Control_c, 0, 64, 96
4, 47425, Control_c, 0, 64, 64
4, 47428, Note_off_c, 0, 53, 64
4, 47437, Control_c, 0, 64, 0
4, 47448, Note_on_c, 0, 46, 51
4, 47460, Control_c, 0, 64, 64
4, 47469, Control_c, 0, 64, 96
4, 47478, Control_c, 0, 64, 127
4, 47484, Note_on_c, 0, 71, 44
4, 47510, Note_on_c, 0, 73, 40
4, 47516, Note_off_c, 0, 71, 64
4, 47516, Note_off_c, 0, 46, 64
4, 47527, Note_off_c, 0, 73, 64
4, 47527, Note_on_c, 0, 53, 48
4, 47561, Note_on_c, 0, 71, 34
4, 47584, Note_off_c, 0, 71, 64
4, 47584, Note_on_c, 0, 73, 63
4, 47617, Note_on_c, 0, 58, 44
4, 47622, Note_on_c, 0, 71, 50
4, 47629, Note_off_c, 0, 73, 64
4, 47650, Note_off_c, 0, 53, 64
4, 47678, Note_off_c, 0, 71, 64
4, 47678, Note_on_c, 0, 70, 50
4, 47711, Note_off_c, 0, 70, 64
4, 47730, Note_off_c, 0, 58, 64
4, 47774, Note_on_c, 0, 62, 10
4, 47798, Note_off_c, 0, 62, 64
4, 47818, Note_on_c, 0, 75, 68
4, 47893, Note_off_c, 0, 75, 64
4, 47920, Note_on_c, 0, 77, 70
4, 48015, Note_off_c, 0, 77, 64
4, 48023, Control_c, 0, 64, 96
4, 48027, Note_on_c, 0, 78, 63
4, 48027, Note_on_c, 0, 51, 63
4, 48038, Control_c, 0, 64, 0
4, 48077, Control_c, 0, 64, 64
4, 48087, Control_c, 0, 64, 127
4, 48098, Note_off_c, 0, 51, 64
4, 48153, Note_on_c, 0, 66, 29
4, 48245, Note_on_c, 0, 58, 44
4, 48267, Note_off_c, 0, 66, 64
4, 48336, Note_off_c, 0, 78, 64
4, 48346, Note_off_c, 0, 58, 64
4, 48350, Note_on_c, 0, 77, 59
4, 48355, Note_on_c, 0, 53, 56
4, 48361, Control_c, 0, 64, 64
4, 48371, Control_c, 0, 64, 0
4, 48411, Control_c, 0, 64, 64
4, 48419, Control_c, 0, 64, 127
4, 48459, Note_on_c, 0, 65, 39
4, 48532, Note_off_c, 0, 53, 64
4, 48555, Note_on_c, 0, 57, 39
4, 48563, Note_off_c, 0, 65, 64
4, 48632, Note_off_c, 0, 57, 64
4, 48651, Note_on_c, 0, 54, 55
4, 48656, Note_on_c, 0, 75, 63
4, 48662, Control_c, 0, 64, 96
4, 48671, Control_c, 0, 64, 64
4, 48674, Note_off_c, 0, 77, 64
4, 48709, Control_c, 0, 64, 96
4, 48718, Control_c, 0, 64, 127
4, 48770, Note_on_c, 0, 63, 24
4, 48849, Note_off_c, 0, 54, 64
4, 48871, Note_on_c, 0, 58, 35
4, 48950, Note_off_c, 0, 58, 64
4, 48977, Control_c, 0, 64, 96
4, 48979, Note_off_c, 0, 63, 64
4, 48979, Note_off_c, 0, 75, 64
4, 48987, Control_c, 0, 64, 64
4, 48989, Note_on_c, 0, 77, 56
4, 48999, Control_c, 0, 64, 0
4, 49008, Note_on_c, 0, 56, 42
4, 49040, Control_c, 0, 64, 64
4, 49050, Control_c, 0, 64, 127
4, 49118, Note_on_c, 0, 66, 27
4, 49225, Note_off_c, 0, 56, 64
4, 49242, Note_on_c, 0, 60, 32
4, 49251, Note_off_c, 0, 66, 64
4, 49261, Note_off_c, 0, 60, 64
4, 49412, Note_off_c, 0, 77, 64
4, 49417, Note_on_c, 0, 73, 55
4, 49437, Note_on_c, 0, 49, 44
4, 49449, Control_c, 0, 64, 96
4, 49458, Control_c, 0, 64, 64
4, 49467, Control_c, 0, 64, 0
4, 49507, Control_c, 0, 64, 64
4, 49516, Control_c, 0, 64, 127
4, 49602, Note_off_c, 0, 49, 64
4, 49620, Note_on_c, 0, 56, 33
4, 49668, Note_off_c, 0, 73, 64
4, 49750, Note_on_c, 0, 61, 36
4, 49830, Note_off_c, 0, 56, 64
4, 49846, Note_off_c, 0, 61, 64
4, 49846, Note_on_c, 0, 65, 39
4, 49920, Note_on_c, 0, 67, 50
4, 49941, Note_off_c, 0, 65, 64
4, 49967, Note_on_c, 0, 68, 55
4, 49977, Note_off_c, 0, 67, 64
4, 50035, Note_off_c, 0, 68, 64
4, 50035, Note_on_c, 0, 70, 68
4, 50086, Note_on_c, 0, 68, 55
4, 50093, Note_off_c, 0, 70, 64
4, 50128, Note_off_c, 0, 68, 64
4, 50128, Note_on_c, 0, 67, 59
4, 50183, Note_on_c, 0, 68, 63
4, 50195, Note_off_c, 0, 67, 64
4, 50272, Note_off_c, 0, 68, 64
4, 50287, Note_on_c, 0, 77, 59
4, 50300, Control_c, 0, 64, 64
4, 50309, Control_c, 0, 64, 0
4, 50312, Note_on_c, 0, 49, 50
4, 50357, Control_c, 0, 64, 64
4, 50367, Control_c, 0, 64, 127
4, 50406, Note_off_c, 0, 49, 64
4, 50437, Note_on_c, 0, 56, 44
4, 50541, Note_off_c, 0, 56, 64
4, 50545, Note_on_c, 0, 60, 39
4, 50628, Note_off_c, 0, 60, 64
4, 50635, Note_on_c, 0, 66, 38
4, 50734, Note_on_c, 0, 60, 47
4, 50741, Note_off_c, 0, 66, 64
4, 50818, Note_off_c, 0, 60, 64
4, 50832, Note_off_c, 0, 77, 64
4, 50845, Note_on_c, 0, 75, 58
4, 50866, Note_on_c, 0, 56, 39
4, 50884, Note_off_c, 0, 75, 64
4, 50988, Control_c, 0, 64, 96
4, 50997, Control_c, 0, 64, 64
4, 50999, Note_on_c, 0, 75, 58
4, 51005, Note_off_c, 0, 56, 64
4, 51005, Note_on_c, 0, 49, 55
4, 51018, Control_c, 0, 64, 0
4, 51033, Control_c, 0, 64, 64
4, 51042, Control_c, 0, 64, 96
4, 51051, Control_c, 0, 64, 127
4, 51091, Note_off_c, 0, 49, 64
4, 51128, Note_on_c, 0, 56, 51
4, 51231, Note_off_c, 0, 56, 64
4, 51238, Note_on_c, 0, 60, 36
4, 51322, Note_off_c, 0, 60, 64
4, 51335, Note_on_c, 0, 66, 38
4, 51437, Note_off_c, 0, 66, 64
4, 51441, Note_on_c, 0, 60, 41
4, 51514, Note_off_c, 0, 60, 64
4, 51548, Note_on_c, 0, 56, 39
4, 51649, Control_c, 0, 64, 96
4, 51653, Note_off_c, 0, 75, 64
4, 51653, Note_on_c, 0, 73, 50
4, 51663, Control_c, 0, 64, 0
4, 51665, Note_off_c, 0, 56, 64
4, 51669, Note_on_c, 0, 49, 50
4, 51714, Control_c, 0, 64, 64
4, 51724, Control_c, 0, 64, 127
4, 51754, Note_off_c, 0, 49, 64
4, 51776, Note_on_c, 0, 56, 51
4, 51841, Note_off_c, 0, 73, 64
4, 51862, Note_on_c, 0, 61, 44
4, 51952, Note_off_c, 0, 56, 64
4, 51955, Note_off_c, 0, 61, 64
4, 51965, Note_on_c, 0, 65, 44
4, 52068, Note_on_c, 0, 61, 51
4, 52086, Note_off_c, 0, 65, 64
4, 52114, Note_off_c, 0, 61, 64
4, 52212, Note_on_c, 0, 80, 80
4, 52365, Control_c, 0, 64, 96
4, 52368, Note_on_c, 0, 68, 74
4, 52377, Control_c, 0, 64, 0
4, 52379, Note_on_c, 0, 44, 74
4, 52397, Note_off_c, 0, 80, 64
4, 52433, Control_c, 0, 64, 64
4, 52442, Control_c, 0, 64, 127
4, 52564, Note_off_c, 0, 44, 64
4, 52564, Note_on_c, 0, 51, 68
4, 52668, Note_on_c, 0, 56, 67
4, 52718, Note_off_c, 0, 51, 64
4, 52759, Note_on_c, 0, 60, 59
4, 52765, Note_off_c, 0, 56, 64
4, 52856, Note_on_c, 0, 56, 51
4, 52897, Note_off_c, 0, 60, 64
4, 52938, Note_off_c, 0, 68, 64
4, 52948, Note_on_c, 0, 51, 55
4, 52959, Note_off_c, 0, 56, 64
4, 53101, Note_off_c, 0, 51, 64
4, 53101, Note_on_c, 0, 70, 63
4, 53109, Note_on_c, 0, 44, 55
4, 53117, Control_c, 0, 64, 64
4, 53126, Control_c, 0, 64, 0
4, 53169, Control_c, 0, 64, 64
4, 53178, Control_c, 0, 64, 127
4, 53186, Note_off_c, 0, 70, 64
4, 53197, Note_on_c, 0, 72, 41
4, 53244, Note_off_c, 0, 72, 64
4, 53249, Note_off_c, 0, 44, 64
4, 53249, Note_on_c, 0, 70, 47
4, 53256, Note_on_c, 0, 51, 50
4, 53285, Note_on_c, 0, 72, 50
4, 53291, Note_off_c, 0, 70, 64
4, 53329, Note_on_c, 0, 70, 50
4, 53341, Note_off_c, 0, 72, 64
4, 53368, Note_on_c, 0, 69, 75
4, 53380, Note_off_c, 0, 70, 64
4, 53384, Note_off_c, 0, 51, 64
4, 53409, Note_off_c, 0, 69, 64
4, 53439, Note_on_c, 0, 70, 74
4, 53487, Note_off_c, 0, 70, 64
4, 53590, Note_on_c, 0, 72, 67
4, 53657, Note_off_c, 0, 72, 64
4, 53662, Note_on_c, 0, 68, 86
4, 53667, Control_c, 0, 64, 96
4, 53677, Control_c, 0, 64, 0
4, 53680, Note_on_c, 0, 44, 63
4, 53713, Control_c, 0, 64, 64
4, 53722, Control_c, 0, 64, 127
4, 53737, Note_off_c, 0, 68, 64
4, 53770, Note_off_c, 0, 44, 64
4, 53799, Note_on_c, 0, 51, 55
4, 53887, Note_on_c, 0, 56, 59
4, 53936, Note_off_c, 0, 51, 64
4, 53978, Note_on_c, 0, 84, 86
4, 54016, Note_off_c, 0, 56, 64
4, 54017, Note_on_c, 0, 60, 34
4, 54130, Note_off_c, 0, 60, 64
4, 54147, Note_on_c, 0, 56, 36
4, 54223, Note_off_c, 0, 56, 64
4, 54248, Note_on_c, 0, 51, 44
4, 54308, Note_off_c, 0, 84, 64
4, 54345, Note_on_c, 0, 82, 55
4, 54350, Note_off_c, 0, 51, 64
4, 54361, Note_on_c, 0, 44, 29
4, 54376, Note_off_c, 0, 44, 64
4, 54389, Note_on_c, 0, 80, 63
4, 54413, Note_off_c, 0, 82, 64
4, 54448, Note_on_c, 0, 76, 52
4, 54466, Note_off_c, 0, 80, 64
4, 54503, Note_on_c, 0, 73, 68
4, 54508, Note_off_c, 0, 76, 64
4, 54540, Note_off_c, 0, 73, 64
4, 54583, Note_on_c, 0, 70, 55
4, 54637, Note_off_c, 0, 70, 64
4, 54688, Note_on_c, 0, 80, 58
4, 54702, Note_off_c, 0, 80, 64
4, 54877, Note_on_c, 0, 63, 55
4, 54885, Control_c, 0, 64, 64
4, 54891, Note_on_c, 0, 39, 58
4, 54897, Control_c, 0, 64, 0
4, 54912, Note_off_c, 0, 39, 64
4, 54920, Control_c, 0, 64, 64
4, 54929, Control_c, 0, 64, 127
4, 55130, Note_on_c, 0, 51, 38
4, 55240, Note_on_c, 0, 56, 54
4, 55283, Note_off_c, 0, 63, 64
4, 55331, Note_off_c, 0, 56, 64
4, 55337, Note_on_c, 0, 60, 44
4, 55343, Note_off_c, 0, 51, 64
4, 55428, Note_on_c, 0, 56, 51
4, 55456, Note_off_c, 0, 60, 64
4, 55513, Note_off_c, 0, 56, 64
4, 55518, Note_on_c, 0, 51, 47
4, 55529, Note_off_c, 0, 51, 64
4, 55624, Note_on_c, 0, 72, 59
4, 55630, Control_c, 0, 64, 96
4, 55639, Control_c, 0, 64, 64
4, 55649, Control_c, 0, 64, 0
4, 55651, Note_on_c, 0, 70, 58
4, 55657, Note_on_c, 0, 39, 68
4, 55665, Note_off_c, 0, 72, 64
4, 55669, Control_c, 0, 64, 64
4, 55676, Note_off_c, 0, 70, 64
4, 55678, Control_c, 0, 64, 127
4, 55683, Note_off_c, 0, 39, 64
4, 55859, Note_on_c, 0, 51, 38
4, 55937, Note_on_c, 0, 69, 67
4, 55970, Note_off_c, 0, 69, 64
4, 55970, Note_off_c, 0, 51, 64
4, 55988, Note_on_c, 0, 55, 21
4, 56014, Note_on_c, 0, 70, 68
4, 56048, Note_off_c, 0, 70, 64
4, 56073, Note_off_c, 0, 55, 64
4, 56086, Note_on_c, 0, 61, 31
4, 56181, Note_off_c, 0, 61, 64
4, 56186, Note_on_c, 0, 55, 36
4, 56204, Note_off_c, 0, 55, 64
4, 56304, Note_on_c, 0, 75, 63
4, 56428, Control_c, 0, 64, 96
4, 56429, Note_off_c, 0, 75, 64
4, 56429, Note_on_c, 0, 68, 58
4, 56436, Note_on_c, 0, 44, 44
4, 56442, Control_c, 0, 64, 0
4, 56487, Control_c, 0, 64, 64
4, 56497, Control_c, 0, 64, 127
4, 56528, Note_off_c, 0, 44, 64
4, 56556, Note_on_c, 0, 51, 47
4, 56659, Note_on_c, 0, 56, 51
4, 56696, Note_off_c, 0, 51, 64
4, 56747, Note_on_c, 0, 60, 47
4, 56753, Note_off_c, 0, 56, 64
4, 56865, Note_on_c, 0, 56, 31
4, 56874, Note_off_c, 0, 60, 64
4, 56930, Note_off_c, 0, 56, 64
4, 56950, Note_on_c, 0, 51, 40
4, 56967, Note_off_c, 0, 51, 64
4, 57098, Control_c, 0, 64, 96
4, 57103, Note_off_c, 0, 68, 64
4, 57108, Control_c, 0, 64, 0
4, 57119, Note_on_c, 0, 70, 47
4, 57132, Note_on_c, 0, 42, 47
4, 57143, Control_c, 0, 64, 64
4, 57153, Control_c, 0, 64, 127
4, 57161, Note_off_c, 0, 42, 64
4, 57333, Note_on_c, 0, 54, 40
4, 57450, Note_off_c, 0, 54, 64
4, 57450, Note_on_c, 0, 58, 38
4, 57555, Note_off_c, 0, 58, 64
4, 57555, Note_on_c, 0, 73, 63
4, 57564, Note_off_c, 0, 70, 64
4, 57583, Note_on_c, 0, 61, 15
4, 57589, Note_off_c, 0, 73, 64
4, 57689, Note_on_c, 0, 58, 35
4, 57723, Note_on_c, 0, 72, 56
4, 57764, Note_off_c, 0, 72, 64
4, 57845, Note_off_c, 0, 58, 64
4, 57850, Note_on_c, 0, 54, 35
4, 57854, Note_off_c, 0, 61, 64
4, 57858, Note_off_c, 0, 54, 64
4, 57890, Note_on_c, 0, 70, 47
4, 57952, Note_off_c, 0, 70, 64
4, 58030, Control_c, 0, 64, 96
4, 58039, Control_c, 0, 64, 64
4, 58048, Control_c, 0, 64, 0
4, 58051, Note_on_c, 0, 68, 55
4, 58071, Note_on_c, 0, 44, 47
4, 58079, Control_c, 0, 64, 64
4, 58089, Control_c, 0, 64, 127
4, 58104, Note_off_c, 0, 44, 64
4, 58263, Note_on_c, 0, 56, 44
4, 58359, Note_off_c, 0, 56, 64
4, 58372, Note_on_c, 0, 60, 39
4, 58467, Note_off_c, 0, 60, 64
4, 58480, Note_on_c, 0, 63, 40
4, 58588, Note_on_c, 0, 60, 39
4, 58594, Note_off_c, 0, 68, 64
4, 58614, Note_off_c, 0, 63, 64
4, 58677, Note_off_c, 0, 60, 64
4, 58694, Note_on_c, 0, 56, 39
4, 58860, Note_off_c, 0, 56, 64
4, 58860, Note_on_c, 0, 72, 39
4, 58870, Note_on_c, 0, 51, 38
4, 58898, Note_on_c, 0, 70, 63
4, 58903, Note_off_c, 0, 72, 64
4, 58945, Note_off_c, 0, 70, 64
4, 58950, Note_on_c, 0, 72, 56
4, 58985, Note_on_c, 0, 70, 44
4, 59002, Note_off_c, 0, 72, 64
4, 59046, Note_on_c, 0, 68, 63
4, 59056, Note_off_c, 0, 70, 64
4, 59075, Note_off_c, 0, 51, 64
4, 59166, Note_off_c, 0, 68, 64
4, 59174, Note_on_c, 0, 73, 74
4, 59284, Note_off_c, 0, 73, 64
4, 59291, Note_on_c, 0, 75, 74
4, 59421, Note_on_c, 0, 77, 67
4, 59427, Control_c, 0, 64, 96
4, 59433, Note_on_c, 0, 49, 50
4, 59438, Control_c, 0, 64, 0
4, 59441, Note_off_c, 0, 75, 64
4, 59486, Control_c, 0, 64, 64
4, 59495, Control_c, 0, 64, 127
4, 59543, Note_off_c, 0, 49, 64
4, 59562, Note_on_c, 0, 56, 54
4, 59666, Note_on_c, 0, 61, 48
4, 59688, Note_off_c, 0, 56, 64
4, 59695, Note_off_c, 0, 77, 64
4, 59763, Note_off_c, 0, 61, 64
4, 59763, Note_on_c, 0, 65, 47
4, 59842, Note_off_c, 0, 65, 64
4, 59863, Note_on_c, 0, 61, 42
4, 59927, Note_off_c, 0, 61, 64
4, 59951, Note_on_c, 0, 56, 48
4, 60040, Note_on_c, 0, 80, 63
4, 60056, Note_off_c, 0, 56, 64
4, 60060, Note_on_c, 0, 49, 47
4, 60142, Note_off_c, 0, 49, 64
4, 60180, Note_on_c, 0, 56, 51
4, 60303, Note_off_c, 0, 56, 64
4, 60303, Note_on_c, 0, 65, 47
4, 60341, Note_off_c, 0, 65, 64
4, 60375, Note_on_c, 0, 68, 55
4, 60473, Note_on_c, 0, 65, 44
4, 60495, Note_off_c, 0, 80, 64
4, 60579, Note_on_c, 0, 56, 44
4, 60585, Note_off_c, 0, 65, 64
4, 60595, Note_off_c, 0, 56, 64
4, 60662, Note_off_c, 0, 68, 64
4, 60701, Note_on_c, 0, 78, 58
4, 60714, Control_c, 0, 64, 64
4, 60720, Note_on_c, 0, 66, 29
4, 60733, Control_c, 0, 64, 0
4, 60757, Control_c, 0, 64, 64
4, 60766, Control_c, 0, 64, 96
4, 60775, Control_c, 0, 64, 127
4, 60836, Note_on_c, 0, 63, 38
4, 60852, Note_off_c, 0, 66, 64
4, 60933, Note_off_c, 0, 63, 64
4, 60939, Note_on_c, 0, 56, 44
4, 60994, Note_off_c, 0, 78, 64
4, 61029, Control_c, 0, 64, 96
4, 61035, Note_on_c, 0, 77, 62
4, 61047, Control_c, 0, 64, 64
4, 61050, Note_on_c, 0, 65, 44
4, 61062, Control_c, 0, 64, 96
4, 61071, Control_c, 0, 64, 127
4, 61077, Note_off_c, 0, 56, 64
4, 61165, Note_on_c, 0, 61, 42
4, 61186, Note_off_c, 0, 65, 64
4, 61249, Note_off_c, 0, 61, 64
4, 61265, Note_on_c, 0, 56, 51
4, 61339, Control_c, 0, 64, 96
4, 61347, Control_c, 0, 64, 64
4, 61363, Note_on_c, 0, 75, 68
4, 61373, Note_on_c, 0, 63, 38
4, 61378, Note_off_c, 0, 56, 64
4, 61385, Note_off_c, 0, 77, 64
4, 61393, Control_c, 0, 64, 96
4, 61402, Control_c, 0, 64, 127
4, 61472, Note_off_c, 0, 75, 64
4, 61476, Note_on_c, 0, 60, 36
4, 61495, Note_off_c, 0, 63, 64
4, 61544, Note_on_c, 0, 56, 54
4, 61549, Note_off_c, 0, 60, 64
4, 61580, Note_off_c, 0, 56, 64
4, 61584, Note_on_c, 0, 77, 10
4, 61605, Note_off_c, 0, 77, 64
4, 61605, Note_on_c, 0, 75, 50
4, 61645, Note_on_c, 0, 73, 63
4, 61652, Note_off_c, 0, 75, 64
4, 61701, Note_on_c, 0, 75, 74
4, 61714, Control_c, 0, 64, 96
4, 61723, Control_c, 0, 64, 64
4, 61732, Control_c, 0, 64, 0
4, 61744, Note_off_c, 0, 73, 64
4, 61754, Note_off_c, 0, 75, 64
4, 61755, Note_on_c, 0, 77, 70
4, 61763, Note_on_c, 0, 61, 48
4, 61794, Control_c, 0, 64, 64
4, 61803, Control_c, 0, 64, 127
4, 61892, Note_on_c, 0, 56, 59
4, 61983, Note_off_c, 0, 61, 64
4, 61983, Note_on_c, 0, 53, 60
4, 61996, Note_off_c, 0, 56, 64
4, 62006, Note_off_c, 0, 53, 64
4, 62038, Note_off_c, 0, 77, 64
4, 62064, Note_on_c, 0, 73, 63
4, 62116, Note_off_c, 0, 73, 64
4, 62155, Note_on_c, 0, 68, 55
4, 62170, Control_c, 0, 64, 96
4, 62179, Control_c, 0, 64, 64
4, 62181, Note_on_c, 0, 44, 55
4, 62191, Control_c, 0, 64, 0
4, 62258, Control_c, 0, 64, 64
4, 62268, Control_c, 0, 64, 127
4, 62319, Note_off_c, 0, 44, 64
4, 62332, Note_on_c, 0, 51, 50
4, 62442, Note_on_c, 0, 56, 54
4, 62473, Note_off_c, 0, 51, 64
4, 62535, Note_off_c, 0, 56, 64
4, 62539, Note_on_c, 0, 60, 50
4, 62597, Note_off_c, 0, 68, 64
4, 62640, Note_on_c, 0, 56, 39
4, 62667, Note_off_c, 0, 60, 64
4, 62726, Note_off_c, 0, 56, 64
4, 62727, Note_on_c, 0, 51, 50
4, 62744, Note_off_c, 0, 51, 64
4, 62848, Control_c, 0, 64, 96
4, 62856, Control_c, 0, 64, 64
4, 62859, Note_on_c, 0, 70, 74
4, 62869, Control_c, 0, 64, 0
4, 62878, Note_on_c, 0, 42, 63
4, 62901, Control_c, 0, 64, 64
4, 62910, Control_c, 0, 64, 127
4, 62913, Note_off_c, 0, 42, 64
4, 63054, Note_on_c, 0, 54, 58
4, 63152, Note_on_c, 0, 58, 55
4, 63182, Note_off_c, 0, 54, 64
4, 63241, Note_off_c, 0, 58, 64
4, 63245, Note_on_c, 0, 61, 59
4, 63339, Note_on_c, 0, 58, 55
4, 63363, Note_off_c, 0, 61, 64
4, 63423, Note_off_c, 0, 58, 64
4, 63433, Note_on_c, 0, 54, 47
4, 63496, Note_off_c, 0, 54, 64
4, 63524, Control_c, 0, 64, 96
4, 63527, Note_on_c, 0, 46, 59
4, 63536, Control_c, 0, 64, 0
4, 63570, Control_c, 0, 64, 64
4, 63579, Control_c, 0, 64, 96
4, 63588, Control_c, 0, 64, 127
4, 63624, Note_off_c, 0, 46, 64
4, 63628, Note_on_c, 0, 53, 48
4, 63716, Note_on_c, 0, 58, 50
4, 63721, Note_off_c, 0, 53, 64
4, 63778, Note_off_c, 0, 70, 64
4, 63817, Note_off_c, 0, 58, 64
4, 63825, Note_on_c, 0, 62, 47
4, 63922, Note_off_c, 0, 62, 64
4, 63922, Note_on_c, 0, 58, 40
4, 63970, Note_off_c, 0, 58, 64
4, 64001, Note_on_c, 0, 53, 18
4, 64075, Note_off_c, 0, 53, 64
4, 64086, Control_c, 0, 64, 96
4, 64091, Note_on_c, 0, 46, 51
4, 64097, Control_c, 0, 64, 64
4, 64107, Control_c, 0, 64, 0
4, 64128, Control_c, 0, 64, 64
4, 64134, Note_on_c, 0, 71, 56
4, 64141, Control_c, 0, 64, 127
4, 64150, Note_off_c, 0, 46, 64
4, 64163, Note_on_c, 0, 53, 48
4, 64175, Note_off_c, 0, 71, 64
4, 64179, Note_on_c, 0, 73, 58
4, 64219, Note_off_c, 0, 73, 64
4, 64224, Note_on_c, 0, 71, 67
4, 64231, Note_off_c, 0, 53, 64
4, 64250, Note_on_c, 0, 58, 20
4, 64290, Note_on_c, 0, 70, 63
4, 64304, Note_off_c, 0, 71, 64
4, 64307, Note_off_c, 0, 58, 64
4, 64348, Note_off_c, 0, 70, 64
4, 64419, Note_on_c, 0, 75, 74
4, 64509, Note_off_c, 0, 75, 64
4, 64525, Note_on_c, 0, 77, 70
4, 64634, Note_on_c, 0, 51, 58
4, 64643, Note_on_c, 0, 78, 74
4, 64648, Control_c, 0, 64, 96
4, 64651, Note_off_c, 0, 77, 64
4, 64660, Control_c, 0, 64, 0
4, 64711, Control_c, 0, 64, 64
4, 64717, Note_off_c, 0, 51, 64
4, 64722, Control_c, 0, 64, 127
4, 64791, Note_on_c, 0, 66, 35
4, 64880, Note_on_c, 0, 58, 44
4, 64910, Note_off_c, 0, 66, 64
4, 64979, Note_off_c, 0, 58, 64
4, 64986, Note_on_c, 0, 53, 54
4, 64992, Control_c, 0, 64, 96
4, 64994, Note_off_c, 0, 78, 64
4, 64994, Note_on_c, 0, 77, 62
4, 65004, Control_c, 0, 64, 64
4, 65013, Control_c, 0, 64, 0
4, 65041, Control_c, 0, 64, 64
4, 65050, Control_c, 0, 64, 127
4, 65083, Note_on_c, 0, 65, 32
4, 65175, Note_off_c, 0, 53, 64
4, 65200, Note_on_c, 0, 57, 36
4, 65206, Note_off_c, 0, 65, 64
4, 65279, Note_off_c, 0, 57, 64
4, 65297, Control_c, 0, 64, 96
4, 65306, Control_c, 0, 64, 64
4, 65309, Note_on_c, 0, 54, 55
4, 65310, Note_on_c, 0, 75, 63
4, 65327, Control_c, 0, 64, 0
4, 65333, Note_off_c, 0, 77, 64
4, 65345, Control_c, 0, 64, 64
4, 65356, Control_c, 0, 64, 96
4, 65364, Control_c, 0, 64, 127
4, 65429, Note_on_c, 0, 63, 22
4, 65492, Note_off_c, 0, 54, 64
4, 65543, Note_on_c, 0, 58, 38
4, 65609, Note_off_c, 0, 63, 64
4, 65613, Note_off_c, 0, 58, 64
4, 65620, Control_c, 0, 64, 96
4, 65628, Control_c, 0, 64, 64
4, 65637, Control_c, 0, 64, 0
4, 65643, Note_off_c, 0, 75, 64
4, 65648, Note_on_c, 0, 56, 39
4, 65653, Note_on_c, 0, 77, 52
4, 65686, Control_c, 0, 64, 64
4, 65695, Control_c, 0, 64, 127
4, 65750, Note_on_c, 0, 66, 35
4, 65874, Note_off_c, 0, 56, 64
4, 65877, Note_on_c, 0, 60, 41
4, 65888, Note_off_c, 0, 66, 64
4, 65895, Note_off_c, 0, 60, 64
4, 66025, Note_off_c, 0, 77, 64
4, 66026, Note_on_c, 0, 73, 55
4, 66041, Control_c, 0, 64, 96
4, 66050, Control_c, 0, 64, 64
4, 66053, Note_on_c, 0, 49, 50
4, 66061, Control_c, 0, 64, 0
4, 66104, Control_c, 0, 64, 64
4, 66113, Control_c, 0, 64, 127
4, 66205, Note_off_c, 0, 49, 64
4, 66226, Note_on_c, 0, 56, 31
4, 66333, Note_off_c, 0, 73, 64
4, 66349, Note_off_c, 0, 56, 64
4, 66358, Note_on_c, 0, 60, 18
4, 66449, Note_off_c, 0, 60, 64
4, 66539, Note_on_c, 0, 67, 39
4, 66659, Note_on_c, 0, 68, 58
4, 66665, Note_off_c, 0, 67, 64
4, 66747, Note_on_c, 0, 70, 58
4, 66755, Note_off_c, 0, 68, 64
4, 66813, Note_on_c, 0, 68, 50
4, 66837, Note_off_c, 0, 70, 64
4, 66885, Note_off_c, 0, 68, 64
4, 66890, Note_on_c, 0, 67, 59
4, 66951, Note_on_c, 0, 68, 74
4, 66962, Note_off_c, 0, 67, 64
4, 67022, Note_off_c, 0, 68, 64
4, 67039, Note_on_c, 0, 69, 13
4, 67079, Note_off_c, 0, 69, 64
4, 67107, Note_on_c, 0, 77, 52
4, 67120, Note_on_c, 0, 49, 38
4, 67131, Control_c, 0, 64, 96
4, 67140, Control_c, 0, 64, 64
4, 67149, Control_c, 0, 64, 0
4, 67190, Control_c, 0, 64, 64
4, 67199, Control_c, 0, 64, 127
4, 67263, Note_off_c, 0, 49, 64
4, 67275, Note_on_c, 0, 56, 33
4, 67374, Note_off_c, 0, 56, 64
4, 67384, Note_on_c, 0, 60, 34
4, 67464, Note_off_c, 0, 60, 64
4, 67481, Note_on_c, 0, 66, 29
4, 67572, Note_on_c, 0, 60, 41
4, 67579, Note_off_c, 0, 66, 64
4, 67660, Note_off_c, 0, 60, 64
4, 67676, Note_off_c, 0, 77, 64
4, 67681, Note_on_c, 0, 75, 63
4, 67699, Note_on_c, 0, 56, 42
4, 67723, Note_off_c, 0, 75, 64
4, 67848, Control_c, 0, 64, 96
4, 67850, Note_off_c, 0, 56, 64
4, 67851, Note_on_c, 0, 75, 58
4, 67856, Note_on_c, 0, 49, 55
4, 67861, Control_c, 0, 64, 64
4, 67893, Control_c, 0, 64, 96
4, 67902, Control_c, 0, 64, 127
4, 67947, Note_off_c, 0, 49, 64
4, 67985, Note_on_c, 0, 56, 48
4, 68089, Note_off_c, 0, 56, 64
4, 68096, Note_on_c, 0, 60, 32
4, 68176, Note_off_c, 0, 60, 64
4, 68191, Note_on_c, 0, 66, 32
4, 68306, Note_off_c, 0, 66, 64
4, 68306, Note_on_c, 0, 60, 44
4, 68393, Note_off_c, 0, 60, 64
4, 68427, Note_on_c, 0, 56, 31
4, 68507, Control_c, 0, 64, 96
4, 68516, Control_c, 0, 64, 64
4, 68519, Note_on_c, 0, 73, 55
4, 68528, Control_c, 0, 64, 0
4, 68531, Note_off_c, 0, 56, 64
4, 68531, Note_off_c, 0, 75, 64
4, 68535, Note_on_c, 0, 49, 44
4, 68578, Control_c, 0, 64, 64
4, 68587, Control_c, 0, 64, 127
4, 68630, Note_off_c, 0, 49, 64
4, 68655, Note_on_c, 0, 56, 48
4, 68744, Note_off_c, 0, 73, 64
4, 68744, Note_on_c, 0, 61, 44
4, 68819, Note_off_c, 0, 56, 64
4, 68835, Note_off_c, 0, 61, 64
4, 68839, Note_on_c, 0, 65, 47
4, 68928, Note_on_c, 0, 61, 54
4, 68959, Note_off_c, 0, 65, 64
4, 69002, Note_off_c, 0, 61, 64
4, 69021, Note_on_c, 0, 56, 51
4, 69039, Note_off_c, 0, 56, 64
4, 69092, Note_on_c, 0, 80, 80
4, 69200, Note_on_c, 0, 68, 80
4, 69210, Note_on_c, 0, 44, 68
4, 69215, Control_c, 0, 64, 0
4, 69276, Control_c, 0, 64, 127
4, 69357, Note_off_c, 0, 44, 64
4, 69368, Note_on_c, 0, 51, 58
4, 69436, Note_off_c, 0, 80, 64
4, 69464, Note_on_c, 0, 56, 62
4, 69543, Note_off_c, 0, 51, 64
4, 69553, Note_on_c, 0, 60, 62
4, 69559, Note_off_c, 0, 56, 64
4, 69644, Note_off_c, 0, 68, 64
4, 69654, Note_on_c, 0, 56, 48
4, 69659, Note_off_c, 0, 60, 64
4, 69712, Note_off_c, 0, 56, 64
4, 69744, Note_on_c, 0, 51, 29
4, 69837, Note_off_c, 0, 51, 64
4, 69842, Control_c, 0, 64, 96
4, 69851, Control_c, 0, 64, 0
4, 69853, Note_on_c, 0, 44, 55
4, 69883, Note_on_c, 0, 70, 40
4, 69894, Control_c, 0, 64, 64
4, 69904, Control_c, 0, 64, 127
4, 69909, Note_on_c, 0, 72, 56
4, 69917, Note_off_c, 0, 70, 64
4, 69924, Note_off_c, 0, 44, 64
4, 69952, Note_off_c, 0, 72, 64
4, 69952, Note_on_c, 0, 70, 55
4, 69964, Note_on_c, 0, 51, 58
4, 69987, Note_on_c, 0, 72, 44
4, 69997, Note_off_c, 0, 70, 64
4, 70032, Note_on_c, 0, 70, 55
4, 70053, Note_off_c, 0, 72, 64
4, 70057, Note_off_c, 0, 51, 64
4, 70057, Note_on_c, 0, 55, 26
4, 70097, Note_on_c, 0, 69, 70
4, 70103, Note_off_c, 0, 70, 64
4, 70169, Note_off_c, 0, 55, 64
4, 70192, Note_on_c, 0, 70, 74
4, 70197, Note_off_c, 0, 69, 64
4, 70261, Note_off_c, 0, 70, 64
4, 70365, Note_on_c, 0, 72, 67
4, 70422, Control_c, 0, 64, 96
4, 70424, Note_off_c, 0, 72, 64
4, 70433, Control_c, 0, 64, 0
4, 70438, Note_on_c, 0, 68, 86
4, 70456, Note_on_c, 0, 44, 58
4, 70482, Control_c, 0, 64, 64
4, 70492, Control_c, 0, 64, 127
4, 70541, Note_off_c, 0, 68, 64
4, 70550, Note_off_c, 0, 44, 64
4, 70566, Note_on_c, 0, 51, 63
4, 70679, Note_on_c, 0, 84, 86
4, 70679, Note_on_c, 0, 56, 44
4, 70753, Note_off_c, 0, 51, 64
4, 70801, Note_off_c, 0, 56, 64
4, 70805, Note_on_c, 0, 60, 39
4, 70903, Note_off_c, 0, 60, 64
4, 70907, Note_on_c, 0, 56, 42
4, 70999, Note_off_c, 0, 84, 64
4, 70999, Note_on_c, 0, 82, 80
4, 71087, Note_on_c, 0, 80, 68
4, 71117, Note_off_c, 0, 82, 64
4, 71165, Note_on_c, 0, 76, 62
4, 71183, Note_off_c, 0, 56, 64
4, 71188, Note_off_c, 0, 80, 64
4, 71204, Note_on_c, 0, 49, 38
4, 71253, Note_on_c, 0, 73, 63
4, 71269, Note_off_c, 0, 76, 64
4, 71294, Note_off_c, 0, 73, 64
4, 71340, Note_on_c, 0, 53, 38
4, 71362, Note_on_c, 0, 70, 32
4, 71393, Note_off_c, 0, 49, 64
4, 71425, Note_off_c, 0, 70, 64
4, 71512, Note_off_c, 0, 53, 64
4, 71531, Note_on_c, 0, 80, 68
4, 71574, Note_off_c, 0, 80, 64
4, 71745, Control_c, 0, 64, 96
4, 71754, Control_c, 0, 64, 64
4, 71763, Control_c, 0, 64, 0
4, 71765, Note_on_c, 0, 63, 63
4, 71776, Note_on_c, 0, 39, 44
4, 71795, Control_c, 0, 64, 64
4, 71804, Control_c, 0, 64, 127
4, 71809, Note_off_c, 0, 39, 64
4, 72014, Note_on_c, 0, 51, 35
4, 72128, Note_on_c, 0, 56, 51
4, 72216, Note_off_c, 0, 63, 64
4, 72223, Note_off_c, 0, 56, 64
4, 72223, Note_off_c, 0, 51, 64
4, 72237, Note_on_c, 0, 60, 34
4, 72324, Note_on_c, 0, 56, 51
4, 72351, Note_off_c, 0, 60, 64
4, 72433, Note_on_c, 0, 51, 47
4, 72438, Note_off_c, 0, 56, 64
4, 72449, Note_off_c, 0, 51, 64
4, 72543, Control_c, 0, 64, 96
4, 72552, Control_c, 0, 64, 64
4, 72555, Note_on_c, 0, 72, 52
4, 72564, Control_c, 0, 64, 0
4, 72591, Note_on_c, 0, 70, 63
4, 72598, Note_on_c, 0, 39, 58
4, 72605, Control_c, 0, 64, 96
4, 72611, Note_off_c, 0, 72, 64
4, 72615, Control_c, 0, 64, 127
4, 72619, Note_off_c, 0, 70, 64
4, 72622, Note_off_c, 0, 39, 64
4, 72784, Note_on_c, 0, 51, 58
4, 72859, Note_on_c, 0, 69, 75
4, 72893, Note_off_c, 0, 69, 64
4, 72906, Note_off_c, 0, 51, 64
4, 72919, Note_on_c, 0, 55, 39
4, 72959, Note_on_c, 0, 70, 68
4, 73000, Note_off_c, 0, 70, 64
4, 73030, Note_off_c, 0, 55, 64
4, 73067, Note_on_c, 0, 58, 27
4, 73096, Note_off_c, 0, 58, 64
4, 73177, Note_on_c, 0, 75, 74
4, 73207, Note_off_c, 0, 75, 64
4, 73258, Note_on_c, 0, 61, 51
4, 73291, Note_off_c, 0, 61, 64
4, 73459, Note_on_c, 0, 68, 63
4, 73483, Note_on_c, 0, 44, 50
4, 73495, Control_c, 0, 64, 96
4, 73504, Control_c, 0, 64, 0
4, 73571, Control_c, 0, 64, 64
4, 73581, Control_c, 0, 64, 127
4, 73642, Note_off_c, 0, 44, 64
4, 73666, Note_on_c, 0, 51, 40
4, 73766, Note_on_c, 0, 56, 48
4, 73798, Note_off_c, 0, 51, 64
4, 73853, Note_off_c, 0, 56, 64
4, 73858, Note_on_c, 0, 60, 44
4, 73948, Note_on_c, 0, 56, 39
4, 73962, Note_off_c, 0, 60, 64
4, 74035, Note_off_c, 0, 56, 64
4, 74049, Note_on_c, 0, 51, 27
4, 74063, Note_off_c, 0, 51, 64
4, 74157, Control_c, 0, 64, 96
4, 74166, Control_c, 0, 64, 64
4, 74169, Note_off_c, 0, 68, 64
4, 74173, Note_on_c, 0, 70, 68
4, 74179, Control_c, 0, 64, 0
4, 74191, Note_on_c, 0, 42, 63
4, 74205, Control_c, 0, 64, 64
4, 74215, Control_c, 0, 64, 127
4, 74221, Note_off_c, 0, 42, 64
4, 74362, Note_on_c, 0, 54, 50
4, 74460, Note_on_c, 0, 58, 55
4, 74510, Note_off_c, 0, 54, 64
4, 74526, Note_off_c, 0, 70, 64
4, 74539, Note_on_c, 0, 73, 86
4, 74570, Note_off_c, 0, 58, 64
4, 74585, Note_off_c, 0, 73, 64
4, 74622, Note_on_c, 0, 61, 28
4, 74713, Note_on_c, 0, 72, 75
4, 74737, Note_on_c, 0, 58, 27
4, 74755, Note_off_c, 0, 72, 64
4, 74840, Note_on_c, 0, 54, 47
4, 74845, Note_off_c, 0, 58, 64
4, 74849, Note_off_c, 0, 61, 64
4, 74863, Note_on_c, 0, 70, 68
4, 74868, Note_off_c, 0, 54, 64
4, 74894, Note_off_c, 0, 70, 64
4, 75051, Control_c, 0, 64, 96
4, 75055, Note_on_c, 0, 68, 50
4, 75062, Control_c, 0, 64, 0
4, 75074, Note_on_c, 0, 44, 38
4, 75131, Control_c, 0, 64, 96
4, 75140, Control_c, 0, 64, 127
4, 75244, Note_off_c, 0, 44, 64
4, 75266, Note_on_c, 0, 51, 40
4, 75391, Note_on_c, 0, 56, 42
4, 75465, Note_off_c, 0, 68, 64
4, 75489, Note_off_c, 0, 56, 64
4, 75489, Note_off_c, 0, 51, 64
4, 75489, Note_on_c, 0, 60, 41
4, 75583, Note_on_c, 0, 56, 51
4, 75589, Note_off_c, 0, 60, 64
4, 75666, Note_off_c, 0, 56, 64
4, 75690, Note_on_c, 0, 51, 44
4, 75783, Note_off_c, 0, 51, 64
4, 75787, Control_c, 0, 64, 96
4, 75790, Note_on_c, 0, 44, 55
4, 75795, Note_on_c, 0, 70, 44
4, 75801, Control_c, 0, 64, 0
4, 75825, Control_c, 0, 64, 64
4, 75834, Control_c, 0, 64, 96
4, 75843, Control_c, 0, 64, 127
4, 75861, Note_off_c, 0, 44, 64
4, 75898, Note_off_c, 0, 70, 64
4, 75903, Note_on_c, 0, 72, 41
4, 75903, Note_on_c, 0, 51, 47
4, 75942, Note_off_c, 0, 72, 64
4, 75949, Note_on_c, 0, 70, 55
4, 75980, Note_on_c, 0, 72, 29
4, 75986, Note_off_c, 0, 70, 64
4, 76003, Note_on_c, 0, 56, 51
4, 76014, Note_on_c, 0, 70, 44
4, 76020, Note_off_c, 0, 51, 64
4, 76024, Note_off_c, 0, 72, 64
4, 76041, Note_on_c, 0, 68, 58
4, 76053, Note_off_c, 0, 70, 64
4, 76116, Note_off_c, 0, 56, 64
4, 76120, Note_off_c, 0, 68, 64
4, 76150, Note_on_c, 0, 73, 80
4, 76181, Note_on_c, 0, 61, 12
4, 76224, Note_off_c, 0, 61, 64
4, 76233, Note_off_c, 0, 73, 64
4, 76259, Note_on_c, 0, 75, 74
4, 76274, Note_on_c, 0, 73, 22
4, 76292, Note_off_c, 0, 73, 64
4, 76368, Note_on_c, 0, 77, 75
4, 76374, Control_c, 0, 64, 96
4, 76383, Control_c, 0, 64, 0
4, 76386, Note_off_c, 0, 75, 64
4, 76391, Note_on_c, 0, 49, 50
4, 76436, Control_c, 0, 64, 64
4, 76445, Control_c, 0, 64, 127
4, 76484, Note_off_c, 0, 49, 64
4, 76500, Note_on_c, 0, 56, 51
4, 76602, Note_on_c, 0, 61, 48
4, 76639, Note_off_c, 0, 56, 64
4, 76659, Note_off_c, 0, 77, 64
4, 76687, Note_off_c, 0, 61, 64
4, 76688, Note_on_c, 0, 65, 50
4, 76785, Note_on_c, 0, 61, 51
4, 76789, Note_off_c, 0, 65, 64
4, 76855, Note_off_c, 0, 61, 64
4, 76858, Note_on_c, 0, 56, 44
4, 76945, Note_on_c, 0, 80, 74
4, 76951, Note_off_c, 0, 56, 64
4, 76955, Control_c, 0, 64, 96
4, 76957, Note_on_c, 0, 49, 58
4, 76988, Control_c, 0, 64, 127
4, 77041, Note_off_c, 0, 49, 64
4, 77059, Note_on_c, 0, 56, 59
4, 77166, Note_on_c, 0, 65, 56
4, 77180, Note_off_c, 0, 56, 64
4, 77202, Note_off_c, 0, 65, 64
4, 77248, Note_on_c, 0, 68, 80
4, 77347, Note_on_c, 0, 65, 59
4, 77404, Note_off_c, 0, 80, 64
4, 77445, Note_on_c, 0, 56, 54
4, 77450, Note_off_c, 0, 65, 64
4, 77485, Note_off_c, 0, 56, 64
4, 77535, Note_off_c, 0, 68, 64
4, 77550, Note_on_c, 0, 78, 74
4, 77563, Control_c, 0, 64, 96
4, 77571, Control_c, 0, 64, 64
4, 77574, Note_on_c, 0, 66, 50
4, 77584, Control_c, 0, 64, 0
4, 77605, Control_c, 0, 64, 64
4, 77614, Control_c, 0, 64, 96
4, 77623, Control_c, 0, 64, 127
4, 77675, Note_on_c, 0, 63, 50
4, 77700, Note_off_c, 0, 66, 64
4, 77766, Note_off_c, 0, 63, 64
4, 77770, Note_on_c, 0, 56, 54
4, 77800, Note_off_c, 0, 78, 64
4, 77828, Control_c, 0, 64, 96
4, 77837, Control_c, 0, 64, 64
4, 77848, Note_on_c, 0, 77, 70
4, 77855, Control_c, 0, 64, 0
4, 77874, Control_c, 0, 64, 64
4, 77876, Note_on_c, 0, 65, 44
4, 77885, Control_c, 0, 64, 127
4, 77945, Note_off_c, 0, 56, 64
4, 77970, Note_on_c, 0, 61, 42
4, 77990, Note_off_c, 0, 65, 64
4, 78067, Note_off_c, 0, 61, 64
4, 78078, Note_on_c, 0, 56, 51
4, 78117, Control_c, 0, 64, 96
4, 78127, Control_c, 0, 64, 64
4, 78169, Control_c, 0, 64, 96
4, 78172, Note_on_c, 0, 75, 74
4, 78173, Note_on_c, 0, 63, 44
4, 78180, Note_off_c, 0, 56, 64
4, 78185, Control_c, 0, 64, 127
4, 78188, Note_off_c, 0, 77, 64
4, 78216, Note_off_c, 0, 75, 64
4, 78274, Note_on_c, 0, 60, 41
4, 78290, Note_off_c, 0, 63, 64
4, 78342, Note_off_c, 0, 60, 64
4, 78386, Note_on_c, 0, 75, 58
4, 78428, Note_on_c, 0, 73, 68
4, 78435, Note_off_c, 0, 75, 64
4, 78478, Note_on_c, 0, 75, 68
4, 78494, Control_c, 0, 64, 96
4, 78503, Control_c, 0, 64, 64
4, 78512, Control_c, 0, 64, 0
4, 78515, Note_off_c, 0, 73, 64
4, 78530, Note_off_c, 0, 75, 64
4, 78530, Note_on_c, 0, 61, 48
4, 78530, Note_on_c, 0, 77, 75
4, 78574, Control_c, 0, 64, 64
4, 78579, Note_off_c, 0, 77, 64
4, 78584, Control_c, 0, 64, 127
4, 78644, Note_on_c, 0, 56, 59
4, 78719, Note_off_c, 0, 61, 64
4, 78727, Note_on_c, 0, 53, 60
4, 78736, Note_off_c, 0, 56, 64
4, 78745, Note_off_c, 0, 53, 64
4, 78805, Note_on_c, 0, 73, 68
4, 78857, Note_off_c, 0, 73, 64
4, 78860, Control_c, 0, 64, 96
4, 78870, Control_c, 0, 64, 64
4, 78878, Control_c, 0, 64, 0
4, 78882, Note_on_c, 0, 68, 80
4, 78902, Note_on_c, 0, 44, 63
4, 78925, Control_c, 0, 64, 64
4, 78934, Control_c, 0, 64, 127
4, 79024, Note_off_c, 0, 44, 64
4, 79033, Note_on_c, 0, 51, 58
4, 79131, Note_on_c, 0, 56, 51
4, 79190, Note_off_c, 0, 51, 64
4, 79210, Note_on_c, 0, 60, 56
4, 79216, Note_off_c, 0, 56, 64
4, 79312, Note_on_c, 0, 56, 54
4, 79340, Note_off_c, 0, 60, 64
4, 79403, Note_off_c, 0, 56, 64
4, 79404, Note_on_c, 0, 51, 50
4, 79422, Note_off_c, 0, 51, 64
4, 79435, Note_off_c, 0, 68, 64
4, 79495, Control_c, 0, 64, 96
4, 79504, Control_c, 0, 64, 64
4, 79513, Control_c, 0, 64, 0
4, 79518, Note_on_c, 0, 70, 68
4, 79527, Note_on_c, 0, 42, 63
4, 79541, Control_c, 0, 64, 64
4, 79550, Control_c, 0, 64, 127
4, 79560, Note_off_c, 0, 42, 64
4, 79719, Note_on_c, 0, 54, 58
4, 79826, Note_on_c, 0, 58, 47
4, 79838, Note_off_c, 0, 54, 64
4, 79906, Note_off_c, 0, 58, 64
4, 79920, Note_on_c, 0, 61, 44
4, 80021, Note_on_c, 0, 58, 44
4, 80039, Note_off_c, 0, 61, 64
4, 80092, Note_off_c, 0, 58, 64
4, 80114, Note_on_c, 0, 54, 38
4, 80147, Note_off_c, 0, 54, 64
4, 80194, Control_c, 0, 64, 96
4, 80196, Note_on_c, 0, 46, 51
4, 80204, Control_c, 0, 64, 64
4, 80213, Control_c, 0, 64, 0
4, 80232, Control_c, 0, 64, 64
4, 80241, Control_c, 0, 64, 96
4, 80250, Control_c, 0, 64, 127
4, 80280, Note_off_c, 0, 46, 64
4, 80296, Note_on_c, 0, 53, 40
4, 80375, Note_on_c, 0, 58, 40
4, 80381, Note_off_c, 0, 70, 64
4, 80385, Note_off_c, 0, 53, 64
4, 80478, Note_off_c, 0, 58, 64
4, 80488, Note_on_c, 0, 62, 39
4, 80578, Note_off_c, 0, 62, 64
4, 80578, Note_on_c, 0, 58, 35
4, 80628, Note_off_c, 0, 58, 64
4, 80661, Note_on_c, 0, 53, 24
4, 80729, Control_c, 0, 64, 96
4, 80732, Note_off_c, 0, 53, 64
4, 80740, Control_c, 0, 64, 64
4, 80745, Note_on_c, 0, 46, 54
4, 80763, Note_on_c, 0, 71, 36
4, 80772, Control_c, 0, 64, 96
4, 80781, Control_c, 0, 64, 127
4, 80793, Note_off_c, 0, 71, 64
4, 80806, Note_off_c, 0, 46, 64
4, 80810, Note_on_c, 0, 73, 50
4, 80834, Note_on_c, 0, 53, 24
4, 80850, Note_off_c, 0, 73, 64
4, 80860, Note_on_c, 0, 71, 50
4, 80903, Note_on_c, 0, 58, 40
4, 80915, Note_on_c, 0, 70, 55
4, 80921, Note_off_c, 0, 71, 64
4, 80935, Note_off_c, 0, 53, 64
4, 80948, Note_off_c, 0, 70, 64
4, 81039, Note_off_c, 0, 58, 64
4, 81055, Note_on_c, 0, 62, 36
4, 81079, Note_on_c, 0, 75, 68
4, 81115, Note_off_c, 0, 75, 64
4, 81201, Note_on_c, 0, 77, 67
4, 81223, Note_off_c, 0, 62, 64
4, 81304, Note_off_c, 0, 77, 64
4, 81315, Control_c, 0, 64, 96
4, 81317, Note_on_c, 0, 78, 58
4, 81324, Note_on_c, 0, 51, 55
4, 81328, Control_c, 0, 64, 64
4, 81339, Control_c, 0, 64, 0
4, 81365, Control_c, 0, 64, 64
4, 81375, Control_c, 0, 64, 96
4, 81383, Control_c, 0, 64, 127
4, 81390, Note_off_c, 0, 51, 64
4, 81463, Note_on_c, 0, 66, 32
4, 81561, Note_on_c, 0, 58, 38
4, 81573, Note_off_c, 0, 66, 64
4, 81651, Note_off_c, 0, 78, 64
4, 81658, Note_off_c, 0, 58, 64
4, 81665, Control_c, 0, 64, 96
4, 81668, Note_on_c, 0, 77, 50
4, 81668, Note_on_c, 0, 53, 54
4, 81680, Control_c, 0, 64, 64
4, 81689, Control_c, 0, 64, 0
4, 81707, Control_c, 0, 64, 64
4, 81716, Control_c, 0, 64, 96
4, 81725, Control_c, 0, 64, 127
4, 81746, Note_on_c, 0, 65, 14
4, 81838, Note_off_c, 0, 53, 64
4, 81857, Note_on_c, 0, 57, 36
4, 81863, Note_off_c, 0, 65, 64
4, 81935, Note_off_c, 0, 57, 64
4, 81956, Control_c, 0, 64, 96
4, 81962, Note_on_c, 0, 75, 58
4, 81968, Control_c, 0, 64, 64
4, 81971, Note_on_c, 0, 54, 55
4, 81976, Note_off_c, 0, 77, 64
4, 82005, Control_c, 0, 64, 96
4, 82014, Control_c, 0, 64, 127
4, 82085, Note_on_c, 0, 63, 27
4, 82174, Note_off_c, 0, 54, 64
4, 82187, Note_on_c, 0, 58, 44
4, 82246, Note_off_c, 0, 63, 64
4, 82266, Note_off_c, 0, 58, 64
4, 82277, Control_c, 0, 64, 96
4, 82285, Control_c, 0, 64, 64
4, 82294, Note_off_c, 0, 75, 64
4, 82302, Control_c, 0, 64, 0
4, 82304, Note_on_c, 0, 77, 62
4, 82316, Note_on_c, 0, 56, 21
4, 82328, Control_c, 0, 64, 64
4, 82337, Control_c, 0, 64, 127
4, 82404, Note_on_c, 0, 66, 35
4, 82509, Note_off_c, 0, 56, 64
4, 82525, Note_on_c, 0, 60, 41
4, 82531, Note_off_c, 0, 66, 64
4, 82545, Note_off_c, 0, 60, 64
4, 82671, Note_off_c, 0, 77, 64
4, 82678, Note_on_c, 0, 73, 50
4, 82685, Control_c, 0, 64, 96
4, 82693, Control_c, 0, 64, 64
4, 82699, Note_on_c, 0, 49, 47
4, 82705, Control_c, 0, 64, 0
4, 82741, Control_c, 0, 64, 64
4, 82751, Control_c, 0, 64, 127
4, 82825, Note_off_c, 0, 49, 64
4, 82862, Note_on_c, 0, 56, 33
4, 82867, Note_off_c, 0, 73, 64
4, 82967, Note_on_c, 0, 61, 36
4, 83034, Note_off_c, 0, 56, 64
4, 83051, Note_off_c, 0, 61, 64
4, 83058, Note_on_c, 0, 65, 44
4, 83129, Note_on_c, 0, 67, 50
4, 83147, Note_off_c, 0, 65, 64
4, 83176, Note_on_c, 0, 68, 55
4, 83182, Note_off_c, 0, 67, 64
4, 83182, Note_on_c, 0, 61, 8
4, 83198, Note_off_c, 0, 61, 64
4, 83235, Note_off_c, 0, 68, 64
4, 83235, Note_on_c, 0, 70, 63
4, 83292, Note_off_c, 0, 70, 64
4, 83292, Note_on_c, 0, 68, 58
4, 83324, Note_off_c, 0, 68, 64
4, 83324, Note_on_c, 0, 67, 62
4, 83376, Note_on_c, 0, 68, 63
4, 83385, Note_off_c, 0, 67, 64
4, 83404, Control_c, 0, 64, 96
4, 83413, Control_c, 0, 64, 64
4, 83422, Control_c, 0, 64, 0
4, 83437, Note_off_c, 0, 68, 64
4, 83444, Note_on_c, 0, 49, 38
4, 83449, Note_on_c, 0, 77, 56
4, 83470, Control_c, 0, 64, 64
4, 83479, Control_c, 0, 64, 127
4, 83531, Note_off_c, 0, 49, 64
4, 83574, Note_on_c, 0, 56, 44
4, 83672, Note_off_c, 0, 56, 64
4, 83687, Note_on_c, 0, 60, 26
4, 83768, Note_off_c, 0, 60, 64
4, 83784, Note_on_c, 0, 66, 35
4, 83889, Note_on_c, 0, 60, 32
4, 83895, Note_off_c, 0, 66, 64
4, 83969, Note_off_c, 0, 60, 64
4, 83974, Note_off_c, 0, 77, 64
4, 83995, Note_on_c, 0, 75, 58
4, 84025, Note_off_c, 0, 75, 64
4, 84025, Note_on_c, 0, 56, 39
4, 84143, Note_off_c, 0, 56, 64
4, 84151, Control_c, 0, 64, 96
4, 84153, Note_on_c, 0, 75, 55
4, 84162, Note_on_c, 0, 49, 40
4, 84184, Control_c, 0, 64, 127
4, 84229, Note_off_c, 0, 49, 64
4, 84269, Note_on_c, 0, 56, 42
4, 84370, Note_off_c, 0, 56, 64
4, 84392, Note_on_c, 0, 60, 12
4, 84469, Note_off_c, 0, 60, 64
4, 84497, Note_on_c, 0, 66, 35
4, 84606, Note_off_c, 0, 66, 64
4, 84613, Note_on_c, 0, 60, 29
4, 84714, Note_off_c, 0, 60, 64
4, 84760, Note_on_c, 0, 56, 26
4, 84886, Note_off_c, 0, 75, 64
4, 84890, Note_on_c, 0, 73, 40
4, 84899, Control_c, 0, 64, 64
4, 84902, Note_off_c, 0, 56, 64
4, 84906, Note_on_c, 0, 49, 44
4, 84912, Control_c, 0, 64, 0
4, 84946, Control_c, 0, 64, 64
4, 84954, Control_c, 0, 64, 96
4, 84964, Control_c, 0, 64, 127
4, 85025, Note_off_c, 0, 49, 64
4, 85056, Note_on_c, 0, 56, 36
4, 85175, Note_off_c, 0, 56, 64
4, 85182, Note_on_c, 0, 60, 26
4, 85300, Note_off_c, 0, 60, 64
4, 85334, Note_on_c, 0, 66, 15
4, 85506, Note_on_c, 0, 60, 34
4, 85518, Note_off_c, 0, 66, 64
4, 85761, Note_off_c, 0, 60, 64
4, 85783, Note_on_c, 0, 56, 26
4, 85853, Note_off_c, 0, 56, 64
4, 85863, Note_off_c, 0, 73, 64
4, 85863, End_track
5, 0, Start_track
5, 0, Text_t, "Right Part3"
5, 86460, Note_on_c, 0, 68, 30
5, 86520, Note_off_c, 0, 68, 64
5, 86520, Note_on_c, 0, 69, 35
5, 86580, Note_off_c, 0, 69, 64
5, 86580, Note_on_c, 0, 68, 40
5, 86640, Note_off_c, 0, 68, 64
5, 86640, Note_on_c, 0, 67, 37
5, 86700, Note_off_c, 0, 67, 64
5, 86700, Note_on_c, 0, 68, 35
5, 86760, Note_off_c, 0, 68, 64
5, 86760, Note_on_c, 0, 73, 44
5, 86820, Note_off_c, 0, 73, 64
5, 86820, Note_on_c, 0, 76, 35
5, 86880, Note_off_c, 0, 76, 64
5, 86880, Note_on_c, 0, 75, 40
5, 86940, Note_off_c, 0, 75, 64
5, 86940, Note_on_c, 0, 73, 37
5, 87000, Note_off_c, 0, 73, 64
5, 87000, Note_on_c, 0, 75, 32
5, 87060, Note_off_c, 0, 75, 64
5, 87060, Note_on_c, 0, 73, 35
5, 87120, Note_off_c, 0, 73, 64
5, 87120, Note_on_c, 0, 72, 31
5, 87180, Note_off_c, 0, 72, 64
5, 87180, Note_on_c, 0, 73, 35
5, 87240, Note_off_c, 0, 73, 64
5, 87240, Note_on_c, 0, 76, 31
5, 87300, Note_off_c, 0, 76, 64
5, 87300, Note_on_c, 0, 80, 35
5, 87360, Note_off_c, 0, 80, 64
5, 87420, Note_on_c, 0, 68, 32
5, 87480, Note_off_c, 0, 68, 64
5, 87480, Note_on_c, 0, 69, 37
5, 87540, Note_off_c, 0, 69, 64
5, 87540, Note_on_c, 0, 68, 21
5, 87600, Note_off_c, 0, 68, 64
5, 87600, Note_on_c, 0, 67, 31
5, 87660, Note_off_c, 0, 67, 64
5, 87660, Note_on_c, 0, 68, 37
5, 87720, Note_off_c, 0, 68, 64
5, 87720, Note_on_c, 0, 73, 44
5, 87780, Note_off_c, 0, 73, 64
5, 87780, Note_on_c, 0, 76, 37
5, 87840, Note_off_c, 0, 76, 64
5, 87840, Note_on_c, 0, 75, 32
5, 87900, Note_off_c, 0, 75, 64
5, 87900, Note_on_c, 0, 73, 30
5, 87960, Note_off_c, 0, 73, 64
5, 87960, Note_on_c, 0, 75, 30
5, 88020, Note_off_c, 0, 75, 64
5, 88020, Note_on_c, 0, 73, 32
5, 88080, Note_off_c, 0, 73, 64
5, 88080, Note_on_c, 0, 72, 40
5, 88140, Note_off_c, 0, 72, 64
5, 88140, Note_on_c, 0, 73, 35
5, 88200, Note_off_c, 0, 73, 64
5, 88200, Note_on_c, 0, 76, 37
5, 88260, Note_off_c, 0, 76, 64
5, 88260, Note_on_c, 0, 80, 32
5, 88320, Note_off_c, 0, 80, 64
5, 88380, Note_on_c, 0, 69, 24
5, 88440, Note_off_c, 0, 69, 64
5, 88440, Note_on_c, 0, 73, 35
5, 88500, Note_off_c, 0, 73, 64
5, 88500, Note_on_c, 0, 75, 38
5, 88560, Note_off_c, 0, 75, 64
5, 88560, Note_on_c, 0, 78, 37
5, 88620, Note_off_c, 0, 78, 64
5, 88620, Note_on_c, 0, 81, 39
5, 88680, Note_off_c, 0, 81, 64
5, 88680, Note_on_c, 0, 85, 50
5, 88740, Note_off_c, 0, 85, 64
5, 88740, Note_on_c, 0, 87, 48
5, 88800, Note_off_c, 0, 87, 64
5, 88800, Note_on_c, 0, 95, 55
5, 88860, Note_off_c, 0, 95, 64
5, 88860, Note_on_c, 0, 93, 40
5, 88920, Note_off_c, 0, 93, 64
5, 88920, Note_on_c, 0, 92, 40
5, 88980, Note_off_c, 0, 92, 64
5, 88980, Note_on_c, 0, 90, 47
5, 89040, Note_off_c, 0, 90, 64
5, 89040, Note_on_c, 0, 88, 40
5, 89100, Note_off_c, 0, 88, 64
5, 89100, Note_on_c, 0, 87, 45
5, 89160, Note_off_c, 0, 87, 64
5, 89160, Note_on_c, 0, 90, 39
5, 89220, Note_off_c, 0, 90, 64
5, 89220, Note_on_c, 0, 85, 31
5, 89280, Note_off_c, 0, 85, 64
5, 89280, Note_on_c, 0, 84, 39
5, 89340, Note_off_c, 0, 84, 64
5, 89340, Note_on_c, 0, 87, 26
5, 89400, Note_off_c, 0, 87, 64
5, 89400, Note_on_c, 0, 81, 25
5, 89460, Note_off_c, 0, 81, 64
5, 89460, Note_on_c, 0, 80, 26
5, 89520, Note_off_c, 0, 80, 64
5, 89520, Note_on_c, 0, 78, 34
5, 89580, Note_off_c, 0, 78, 64
5, 89580, Note_on_c, 0, 81, 31
5, 89640, Note_off_c, 0, 81, 64
5, 89640, Note_on_c, 0, 76, 28
5, 89700, Note_off_c, 0, 76, 64
5, 89700, Note_on_c, 0, 75, 28
5, 89760, Note_off_c, 0, 75, 64
5, 89760, Note_on_c, 0, 78, 30
5, 89820, Note_off_c, 0, 78, 64
5, 89820, Note_on_c, 0, 73, 24
5, 89880, Note_off_c, 0, 73, 64
5, 89880, Note_on_c, 0, 72, 24
5, 89940, Note_off_c, 0, 72, 64
5, 89940, Note_on_c, 0, 73, 27
5, 90000, Note_off_c, 0, 73, 64
5, 90000, Note_on_c, 0, 69, 22
5, 90060, Note_off_c, 0, 69, 64
5, 90060, Note_on_c, 0, 68, 24
5, 90120, Note_off_c, 0, 68, 64
5, 90120, Note_on_c, 0, 71, 20
5, 90180, Note_off_c, 0, 71, 64
5, 90180, Note_on_c, 0, 69, 28
5, 90240, Note_off_c, 0, 69, 64
5, 90240, Note_on_c, 0, 69, 39
5, 90300, Note_off_c, 0, 69, 64
5, 90300, Note_on_c, 0, 68, 38
5, 90360, Note_off_c, 0, 68, 64
5, 90360, Note_on_c, 0, 69, 29
5, 90420, Note_off_c, 0, 69, 64
5, 90420, Note_on_c, 0, 68, 24
5, 90480, Note_off_c, 0, 68, 64
5, 90480, Note_on_c, 0, 67, 50
5, 90540, Note_off_c, 0, 67, 64
5, 90540, Note_on_c, 0, 68, 47
5, 90600, Note_off_c, 0, 68, 64
5, 90600, Note_on_c, 0, 73, 44
5, 90660, Note_off_c, 0, 73, 64
5, 90660, Note_on_c, 0, 76, 44
5, 90720, Note_off_c, 0, 76, 64
5, 90720, Note_on_c, 0, 75, 40
5, 90780, Note_off_c, 0, 75, 64
5, 90780, Note_on_c, 0, 73, 44
5, 90840, Note_off_c, 0, 73, 64
5, 90840, Note_on_c, 0, 75, 47
5, 90900, Note_off_c, 0, 75, 64
5, 90900, Note_on_c, 0, 73, 38
5, 90960, Note_off_c, 0, 73, 64
5, 90960, Note_on_c, 0, 72, 52
5, 91020, Note_off_c, 0, 72, 64
5, 91020, Note_on_c, 0, 73, 47
5, 91080, Note_off_c, 0, 73, 64
5, 91080, Note_on_c, 0, 76, 41
5, 91140, Note_off_c, 0, 76, 64
5, 91140, Note_on_c, 0, 80, 24
5, 91200, Note_off_c, 0, 80, 64
5, 91260, Note_on_c, 0, 68, 44
5, 91320, Note_off_c, 0, 68, 64
5, 91320, Note_on_c, 0, 70, 32
5, 91380, Note_off_c, 0, 70, 64
5, 91380, Note_on_c, 0, 68, 40
5, 91440, Note_off_c, 0, 68, 64
5, 91440, Note_on_c, 0, 67, 48
5, 91500, Note_off_c, 0, 67, 64
5, 91500, Note_on_c, 0, 68, 48
5, 91560, Note_off_c, 0, 68, 64
5, 91560, Note_on_c, 0, 73, 48
5, 91620, Note_off_c, 0, 73, 64
5, 91620, Note_on_c, 0, 76, 54
5, 91680, Note_off_c, 0, 76, 64
5, 91680, Note_on_c, 0, 75, 49
5, 91740, Note_off_c, 0, 75, 64
5, 91740, Note_on_c, 0, 73, 47
5, 91800, Note_off_c, 0, 73, 64
5, 91800, Note_on_c, 0, 75, 42
5, 91860, Note_off_c, 0, 75, 64
5, 91860, Note_on_c, 0, 73, 47
5, 91920, Note_off_c, 0, 73, 64
5, 91920, Note_on_c, 0, 72, 44
5, 91980, Note_off_c, 0, 72, 64
5, 91980, Note_on_c, 0, 73, 44
5, 92040, Note_off_c, 0, 73, 64
5, 92040, Note_on_c, 0, 76, 48
5, 92100, Note_off_c, 0, 76, 64
5, 92100, Note_on_c, 0, 80, 35
5, 92160, Note_off_c, 0, 80, 64
5, 92160, Note_on_c, 0, 75, 44
5, 92220, Note_off_c, 0, 75, 64
5, 92220, Note_on_c, 0, 76, 44
5, 92280, Note_off_c, 0, 76, 64
5, 92280, Note_on_c, 0, 75, 39
5, 92340, Note_off_c, 0, 75, 64
5, 92340, Note_on_c, 0, 74, 44
5, 92400, Note_off_c, 0, 74, 64
5, 92400, Note_on_c, 0, 75, 57
5, 92460, Note_off_c, 0, 75, 64
5, 92460, Note_on_c, 0, 83, 68
5, 92520, Note_off_c, 0, 83, 64
5, 92520, Note_on_c, 0, 82, 64
5, 92580, Note_off_c, 0, 82, 64
5, 92580, Note_on_c, 0, 80, 51
5, 92640, Note_off_c, 0, 80, 64
5, 92640, Note_on_c, 0, 79, 61
5, 92700, Note_off_c, 0, 79, 64
5, 92700, Note_on_c, 0, 88, 66
5, 92760, Note_off_c, 0, 88, 64
5, 92760, Note_on_c, 0, 87, 56
5, 92820, Note_off_c, 0, 87, 64
5, 92820, Note_on_c, 0, 85, 53
5, 92880, Note_off_c, 0, 85, 64
5, 92880, Note_on_c, 0, 83, 56
5, 92940, Note_off_c, 0, 83, 64
5, 92940, Note_on_c, 0, 82, 57
5, 93000, Note_off_c, 0, 82, 64
5, 93000, Note_on_c, 0, 80, 61
5, 93060, Note_off_c, 0, 80, 64
5, 93060, Note_on_c, 0, 79, 39
5, 93120, Note_off_c, 0, 79, 64
5, 93120, Note_on_c, 0, 82, 47
5, 93180, Note_off_c, 0, 82, 64
5, 93180, Note_on_c, 0, 80, 39
5, 93240, Note_off_c, 0, 80, 64
5, 93240, Note_on_c, 0, 83, 46
5, 93300, Note_off_c, 0, 83, 64
5, 93300, Note_on_c, 0, 74, 45
5, 93360, Note_off_c, 0, 74, 64
5, 93360, Note_on_c, 0, 76, 37
5, 93420, Note_off_c, 0, 76, 64
5, 93420, Note_on_c, 0, 75, 35
5, 93480, Note_off_c, 0, 75, 64
5, 93480, Note_on_c, 0, 80, 43
5, 93540, Note_off_c, 0, 80, 64
5, 93540, Note_on_c, 0, 70, 34
5, 93600, Note_off_c, 0, 70, 64
5, 93600, Note_on_c, 0, 73, 45
5, 93660, Note_off_c, 0, 73, 64
5, 93660, Note_on_c, 0, 71, 36
5, 93720, Note_off_c, 0, 71, 64
5, 93720, Note_on_c, 0, 75, 35
5, 93780, Note_off_c, 0, 75, 64
5, 93780, Note_on_c, 0, 67, 31
5, 93840, Note_off_c, 0, 67, 64
5, 93840, Note_on_c, 0, 70, 39
5, 93900, Note_off_c, 0, 70, 64
5, 93900, Note_on_c, 0, 68, 31
5, 93960, Note_off_c, 0, 68, 64
5, 93960, Note_on_c, 0, 67, 28
5, 94020, Note_off_c, 0, 67, 64
5, 94020, Note_on_c, 0, 68, 22
5, 94080, Note_off_c, 0, 68, 64
5, 94080, Note_on_c, 0, 68, 66
5, 94140, Note_off_c, 0, 68, 64
5, 94140, Note_on_c, 0, 80, 54
5, 94200, Note_off_c, 0, 80, 64
5, 94200, Note_on_c, 0, 72, 26
5, 94260, Note_off_c, 0, 72, 64
5, 94260, Note_on_c, 0, 73, 17
5, 94320, Note_off_c, 0, 73, 64
5, 94320, Note_on_c, 0, 66, 63
5, 94380, Note_off_c, 0, 66, 64
5, 94380, Note_on_c, 0, 78, 36
5, 94440, Note_off_c, 0, 78, 64
5, 94440, Note_on_c, 0, 72, 33
5, 94500, Note_off_c, 0, 72, 64
5, 94500, Note_on_c, 0, 73, 27
5, 94560, Note_off_c, 0, 73, 64
5, 94560, Note_on_c, 0, 65, 64
5, 94620, Note_off_c, 0, 65, 64
5, 94620, Note_on_c, 0, 77, 44
5, 94680, Note_off_c, 0, 77, 64
5, 94680, Note_on_c, 0, 72, 8
5, 94740, Note_off_c, 0, 72, 64
5, 94740, Note_on_c, 0, 73, 21
5, 94800, Note_off_c, 0, 73, 64
5, 94800, Note_on_c, 0, 66, 63
5, 94860, Note_off_c, 0, 66, 64
5, 94860, Note_on_c, 0, 78, 43
5, 94920, Note_off_c, 0, 78, 64
5, 94920, Note_on_c, 0, 72, 29
5, 94980, Note_off_c, 0, 72, 64
5, 94980, Note_on_c, 0, 73, 31
5, 95040, Note_off_c, 0, 73, 64
5, 95040, Note_on_c, 0, 61, 71
5, 95100, Note_off_c, 0, 61, 64
5, 95100, Note_on_c, 0, 73, 46
5, 95160, Note_off_c, 0, 73, 64
5, 95160, Note_on_c, 0, 66, 25
5, 95220, Note_off_c, 0, 66, 64
5, 95220, Note_on_c, 0, 69, 41
5, 95280, Note_off_c, 0, 69, 64
5, 95280, Note_on_c, 0, 63, 57
5, 95340, Note_off_c, 0, 63, 64
5, 95340, Note_on_c, 0, 75, 23
5, 95400, Note_off_c, 0, 75, 64
5, 95400, Note_on_c, 0, 66, 54
5, 95460, Note_off_c, 0, 66, 64
5, 95460, Note_on_c, 0, 69, 47
5, 95520, Note_off_c, 0, 69, 64
5, 95520, Note_on_c, 0, 64, 73
5, 95580, Note_off_c, 0, 64, 64
5, 95580, Note_on_c, 0, 76, 36
5, 95640, Note_off_c, 0, 76, 64
5, 95640, Note_on_c, 0, 68, 43
5, 95700, Note_off_c, 0, 68, 64
5, 95700, Note_on_c, 0, 71, 39
5, 95760, Note_off_c, 0, 71, 64
5, 95760, Note_on_c, 0, 68, 85
5, 95820, Note_off_c, 0, 68, 64
5, 95820, Note_on_c, 0, 80, 57
5, 95880, Note_off_c, 0, 80, 64
5, 95880, Note_on_c, 0, 71, 44
5, 95940, Note_off_c, 0, 71, 64
5, 95940, Note_on_c, 0, 76, 47
5, 96000, Note_off_c, 0, 76, 64
5, 96000, Note_on_c, 0, 68, 78
5, 96060, Note_off_c, 0, 68, 64
5, 96060, Note_on_c, 0, 80, 50
5, 96120, Note_off_c, 0, 80, 64
5, 96120, Note_on_c, 0, 72, 41
5, 96180, Note_off_c, 0, 72, 64
5, 96180, Note_on_c, 0, 73, 40
5, 96240, Note_off_c, 0, 73, 64
5, 96240, Note_on_c, 0, 66, 66
5, 96300, Note_off_c, 0, 66, 64
5, 96300, Note_on_c, 0, 78, 46
5, 96360, Note_off_c, 0, 78, 64
5, 96360, Note_on_c, 0, 72, 47
5, 96420, Note_off_c, 0, 72, 64
5, 96420, Note_on_c, 0, 73, 46
5, 96480, Note_off_c, 0, 73, 64
5, 96480, Note_on_c, 0, 65, 80
5, 96540, Note_off_c, 0, 65, 64
5, 96540, Note_on_c, 0, 77, 57
5, 96600, Note_off_c, 0, 77, 64
5, 96600, Note_on_c, 0, 71, 54
5, 96660, Note_off_c, 0, 71, 64
5, 96660, Note_on_c, 0, 73, 50
5, 96720, Note_off_c, 0, 73, 64
5, 96720, Note_on_c, 0, 66, 78
5, 96780, Note_off_c, 0, 66, 64
5, 96780, Note_on_c, 0, 78, 54
5, 96840, Note_off_c, 0, 78, 64
5, 96840, Note_on_c, 0, 72, 47
5, 96900, Note_off_c, 0, 72, 64
5, 96900, Note_on_c, 0, 73, 57
5, 96960, Note_off_c, 0, 73, 64
5, 96960, Note_on_c, 0, 65, 80
5, 97020, Note_off_c, 0, 65, 64
5, 97020, Note_on_c, 0, 77, 59
5, 97080, Note_off_c, 0, 77, 64
5, 97080, Note_on_c, 0, 71, 44
5, 97140, Note_off_c, 0, 71, 64
5, 97140, Note_on_c, 0, 75, 46
5, 97200, Note_off_c, 0, 75, 64
5, 97200, Note_on_c, 0, 66, 66
5, 97260, Note_off_c, 0, 66, 64
5, 97260, Note_on_c, 0, 78, 50
5, 97320, Note_off_c, 0, 78, 64
5, 97320, Note_on_c, 0, 71, 24
5, 97380, Note_off_c, 0, 71, 64
5, 97380, Note_on_c, 0, 75, 33
5, 97440, Note_off_c, 0, 75, 64
5, 97440, Note_on_c, 0, 69, 71
5, 97500, Note_off_c, 0, 69, 64
5, 97500, Note_on_c, 0, 81, 57
5, 97560, Note_off_c, 0, 81, 64
5, 97560, Note_on_c, 0, 71, 29
5, 97620, Note_off_c, 0, 71, 64
5, 97620, Note_on_c, 0, 76, 47
5, 97680, Note_off_c, 0, 76, 64
5, 97680, Note_on_c, 0, 68, 72
5, 97740, Note_off_c, 0, 68, 64
5, 97740, Note_on_c, 0, 80, 57
5, 97800, Note_off_c, 0, 80, 64
5, 97800, Note_on_c, 0, 71, 41
5, 97860, Note_off_c, 0, 71, 64
5, 97860, Note_on_c, 0, 76, 36
5, 97920, Note_off_c, 0, 76, 64
5, 97920, Note_on_c, 0, 68, 32
5, 97980, Note_off_c, 0, 68, 64
5, 97980, Note_on_c, 0, 80, 46
5, 98040, Note_off_c, 0, 80, 64
5, 98040, Note_on_c, 0, 72, 18
5, 98100, Note_off_c, 0, 72, 64
5, 98100, Note_on_c, 0, 73, 25
5, 98160, Note_off_c, 0, 73, 64
5, 98160, Note_on_c, 0, 66, 19
5, 98220, Note_off_c, 0, 66, 64
5, 98220, Note_on_c, 0, 78, 54
5, 98280, Note_off_c, 0, 78, 64
5, 98280, Note_on_c, 0, 72, 28
5, 98340, Note_off_c, 0, 72, 64
5, 98340, Note_on_c, 0, 73, 30
5, 98400, Note_off_c, 0, 73, 64
5, 98400, Note_on_c, 0, 65, 41
5, 98460, Note_off_c, 0, 65, 64
5, 98460, Note_on_c, 0, 77, 53
5, 98520, Note_off_c, 0, 77, 64
5, 98520, Note_on_c, 0, 72, 25
5, 98580, Note_off_c, 0, 72, 64
5, 98580, Note_on_c, 0, 73, 25
5, 98640, Note_off_c, 0, 73, 64
5, 98640, Note_on_c, 0, 66, 23
5, 98700, Note_off_c, 0, 66, 64
5, 98700, Note_on_c, 0, 78, 50
5, 98760, Note_off_c, 0, 78, 64
5, 98760, Note_on_c, 0, 72, 25
5, 98820, Note_off_c, 0, 72, 64
5, 98820, Note_on_c, 0, 73, 16
5, 98880, Note_off_c, 0, 73, 64
5, 98880, Note_on_c, 0, 61, 19
5, 98940, Note_off_c, 0, 61, 64
5, 98940, Note_on_c, 0, 73, 50
5, 99000, Note_off_c, 0, 73, 64
5, 99000, Note_on_c, 0, 66, 25
5, 99060, Note_off_c, 0, 66, 64
5, 99060, Note_on_c, 0, 69, 23
5, 99120, Note_off_c, 0, 69, 64
5, 99120, Note_on_c, 0, 63, 30
5, 99180, Note_off_c, 0, 63, 64
5, 99180, Note_on_c, 0, 75, 50
5, 99240, Note_off_c, 0, 75, 64
5, 99240, Note_on_c, 0, 66, 30
5, 99300, Note_off_c, 0, 66, 64
5, 99300, Note_on_c, 0, 69, 28
5, 99360, Note_off_c, 0, 69, 64
5, 99360, Note_on_c, 0, 64, 26
5, 99420, Note_off_c, 0, 64, 64
5, 99420, Note_on_c, 0, 76, 53
5, 99480, Note_off_c, 0, 76, 64
5, 99480, Note_on_c, 0, 68, 30
5, 99540, Note_off_c, 0, 68, 64
5, 99540, Note_on_c, 0, 71, 20
5, 99600, Note_off_c, 0, 71, 64
5, 99600, Note_on_c, 0, 68, 21
5, 99660, Note_off_c, 0, 68, 64
5, 99660, Note_on_c, 0, 80, 54
5, 99720, Note_off_c, 0, 80, 64
5, 99720, Note_on_c, 0, 71, 20
5, 99780, Note_off_c, 0, 71, 64
5, 99780, Note_on_c, 0, 76, 32
5, 99840, Note_off_c, 0, 76, 64
5, 99840, Note_on_c, 0, 68, 29
5, 99900, Note_off_c, 0, 68, 64
5, 99900, Note_on_c, 0, 80, 68
5, 99960, Note_off_c, 0, 80, 64
5, 99960, Note_on_c, 0, 72, 20
5, 100020, Note_off_c, 0, 72, 64
5, 100020, Note_on_c, 0, 73, 36
5, 100080, Note_off_c, 0, 73, 64
5, 100080, Note_on_c, 0, 66, 23
5, 100140, Note_off_c, 0, 66, 64
5, 100140, Note_on_c, 0, 78, 66
5, 100200, Note_off_c, 0, 78, 64
5, 100200, Note_on_c, 0, 72, 41
5, 100260, Note_off_c, 0, 72, 64
5, 100260, Note_on_c, 0, 73, 50
5, 100320, Note_off_c, 0, 73, 64
5, 100320, Note_on_c, 0, 75, 51
5, 100380, Note_off_c, 0, 75, 64
5, 100380, Note_on_c, 0, 87, 82
5, 100440, Note_off_c, 0, 87, 64
5, 100440, Note_on_c, 0, 78, 39
5, 100500, Note_off_c, 0, 78, 64
5, 100500, Note_on_c, 0, 81, 38
5, 100560, Note_off_c, 0, 81, 64
5, 100560, Note_on_c, 0, 73, 25
5, 100620, Note_off_c, 0, 73, 64
5, 100620, Note_on_c, 0, 85, 78
5, 100680, Note_off_c, 0, 85, 64
5, 100680, Note_on_c, 0, 78, 44
5, 100740, Note_off_c, 0, 78, 64
5, 100740, Note_on_c, 0, 81, 34
5, 100800, Note_off_c, 0, 81, 64
5, 100800, Note_on_c, 0, 73, 15
5, 100860, Note_off_c, 0, 73, 64
5, 100860, Note_on_c, 0, 85, 63
5, 100920, Note_off_c, 0, 85, 64
5, 100920, Note_on_c, 0, 75, 34
5, 100980, Note_off_c, 0, 75, 64
5, 100980, Note_on_c, 0, 78, 14
5, 101040, Note_off_c, 0, 78, 64
5, 101040, Note_on_c, 0, 72, 38
5, 101100, Note_off_c, 0, 72, 64
5, 101100, Note_on_c, 0, 84, 64
5, 101160, Note_off_c, 0, 84, 64
5, 101160, Note_on_c, 0, 75, 31
5, 101220, Note_off_c, 0, 75, 64
5, 101220, Note_on_c, 0, 78, 25
5, 101280, Note_off_c, 0, 78, 64
5, 101280, Note_on_c, 0, 72, 38
5, 101340, Note_off_c, 0, 72, 64
5, 101340, Note_on_c, 0, 84, 56
5, 101400, Note_off_c, 0, 84, 64
5, 101400, Note_on_c, 0, 75, 30
5, 101460, Note_off_c, 0, 75, 64
5, 101460, Note_on_c, 0, 78, 35
5, 101520, Note_off_c, 0, 78, 64
5, 101520, Note_on_c, 0, 72, 33
5, 101580, Note_off_c, 0, 72, 64
5, 101580, Note_on_c, 0, 84, 61
5, 101640, Note_off_c, 0, 84, 64
5, 101640, Note_on_c, 0, 75, 34
5, 101700, Note_off_c, 0, 75, 64
5, 101700, Note_on_c, 0, 78, 29
5, 101760, Note_off_c, 0, 78, 64
5, 101760, Note_on_c, 0, 72, 28
5, 101820, Note_off_c, 0, 72, 64
5, 101820, Note_on_c, 0, 84, 60
5, 101880, Note_off_c, 0, 84, 64
5, 101880, Note_on_c, 0, 75, 24
5, 101940, Note_off_c, 0, 75, 64
5, 101940, Note_on_c, 0, 78, 39
5, 102000, Note_off_c, 0, 78, 64
5, 102000, Note_on_c, 0, 71, 28
5, 102060, Note_off_c, 0, 71, 64
5, 102060, Note_on_c, 0, 83, 51
5, 102120, Note_off_c, 0, 83, 64
5, 102120, Note_on_c, 0, 75, 43
5, 102180, Note_off_c, 0, 75, 64
5, 102180, Note_on_c, 0, 78, 37
5, 102240, Note_off_c, 0, 78, 64
5, 102240, Note_on_c, 0, 71, 27
5, 102300, Note_off_c, 0, 71, 64
5, 102300, Note_on_c, 0, 83, 50
5, 102360, Note_off_c, 0, 83, 64
5, 102360, Note_on_c, 0, 75, 33
5, 102420, Note_off_c, 0, 75, 64
5, 102420, Note_on_c, 0, 78, 24
5, 102480, Note_off_c, 0, 78, 64
5, 102480, Note_on_c, 0, 70, 39
5, 102540, Note_off_c, 0, 70, 64
5, 102540, Note_on_c, 0, 82, 55
5, 102600, Note_off_c, 0, 82, 64
5, 102600, Note_on_c, 0, 75, 26
5, 102660, Note_off_c, 0, 75, 64
5, 102660, Note_on_c, 0, 78, 15
5, 102720, Note_off_c, 0, 78, 64
5, 102720, Note_on_c, 0, 70, 12
5, 102780, Note_off_c, 0, 70, 64
5, 102780, Note_on_c, 0, 82, 12
5, 102840, Note_off_c, 0, 82, 64
5, 102840, Note_on_c, 0, 75, 17
5, 102900, Note_off_c, 0, 75, 64
5, 102900, Note_on_c, 0, 78, 22
5, 102960, Note_off_c, 0, 78, 64
5, 102960, Note_on_c, 0, 69, 30
5, 103020, Note_off_c, 0, 69, 64
5, 103020, Note_on_c, 0, 81, 23
5, 103080, Note_off_c, 0, 81, 64
5, 103080, Note_on_c, 0, 75, 30
5, 103140, Note_off_c, 0, 75, 64
5, 103140, Note_on_c, 0, 78, 28
5, 103200, Note_off_c, 0, 78, 64
5, 103200, Note_on_c, 0, 69, 24
5, 103260, Note_off_c, 0, 69, 64
5, 103260, Note_on_c, 0, 81, 30
5, 103320, Note_off_c, 0, 81, 64
5, 103320, Note_on_c, 0, 75, 28
5, 103380, Note_off_c, 0, 75, 64
5, 103380, Note_on_c, 0, 78, 28
5, 103440, Note_off_c, 0, 78, 64
5, 103440, Note_on_c, 0, 69, 29
5, 103500, Note_off_c, 0, 69, 64
5, 103500, Note_on_c, 0, 81, 28
5, 103560, Note_off_c, 0, 81, 64
5, 103560, Note_on_c, 0, 75, 23
5, 103620, Note_off_c, 0, 75, 64
5, 103620, Note_on_c, 0, 78, 24
5, 103680, Note_off_c, 0, 78, 64
5, 103680, Note_on_c, 0, 72, 24
5, 103740, Note_off_c, 0, 72, 64
5, 103740, Note_on_c, 0, 84, 12
5, 103800, Note_off_c, 0, 84, 64
5, 103800, Note_on_c, 0, 75, 28
5, 103860, Note_off_c, 0, 75, 64
5, 103860, Note_on_c, 0, 78, 25
5, 103920, Note_off_c, 0, 78, 64
5, 103920, Note_on_c, 0, 71, 28
5, 103980, Note_off_c, 0, 71, 64
5, 103980, Note_on_c, 0, 83, 40
5, 104040, Note_off_c, 0, 83, 64
5, 104040, Note_on_c, 0, 75, 23
5, 104100, Note_off_c, 0, 75, 64
5, 104100, Note_on_c, 0, 78, 30
5, 104160, Note_off_c, 0, 78, 64
5, 104160, Note_on_c, 0, 71, 12
5, 104220, Note_off_c, 0, 71, 64
5, 104220, Note_on_c, 0, 83, 41
5, 104280, Note_off_c, 0, 83, 64
5, 104280, Note_on_c, 0, 75, 32
5, 104340, Note_off_c, 0, 75, 64
5, 104340, Note_on_c, 0, 78, 28
5, 104400, Note_off_c, 0, 78, 64
5, 104400, Note_on_c, 0, 70, 30
5, 104460, Note_off_c, 0, 70, 64
5, 104460, Note_on_c, 0, 82, 37
5, 104520, Note_off_c, 0, 82, 64
5, 104520, Note_on_c, 0, 75, 28
5, 104580, Note_off_c, 0, 75, 64
5, 104580, Note_on_c, 0, 78, 25
5, 104640, Note_off_c, 0, 78, 64
5, 104640, Note_on_c, 0, 70, 28
5, 104700, Note_off_c, 0, 70, 64
5, 104700, Note_on_c, 0, 82, 37
5, 104760, Note_off_c, 0, 82, 64
5, 104760, Note_on_c, 0, 75, 15
5, 104820, Note_off_c, 0, 75, 64
5, 104820, Note_on_c, 0, 78, 21
5, 104880, Note_off_c, 0, 78, 64
5, 104880, Note_on_c, 0, 69, 24
5, 104940, Note_off_c, 0, 69, 64
5, 104940, Note_on_c, 0, 81, 24
5, 105000, Note_off_c, 0, 81, 64
5, 105000, Note_on_c, 0, 75, 25
5, 105060, Note_off_c, 0, 75, 64
5, 105060, Note_on_c, 0, 78, 30
5, 105120, Note_off_c, 0, 78, 64
5, 105120, Note_on_c, 0, 69, 35
5, 105180, Note_off_c, 0, 69, 64
5, 105180, Note_on_c, 0, 81, 25
5, 105240, Note_off_c, 0, 81, 64
5, 105240, Note_on_c, 0, 75, 28
5, 105300, Note_off_c, 0, 75, 64
5, 105300, Note_on_c, 0, 78, 30
5, 105360, Note_off_c, 0, 78, 64
5, 105360, Note_on_c, 0, 68, 32
5, 105420, Note_off_c, 0, 68, 64
5, 105420, Note_on_c, 0, 80, 30
5, 105480, Note_off_c, 0, 80, 64
5, 105480, Note_on_c, 0, 75, 16
5, 105540, Note_off_c, 0, 75, 64
5, 105540, Note_on_c, 0, 78, 23
5, 105600, Note_off_c, 0, 78, 64
5, 105660, Note_on_c, 0, 68, 44
5, 105720, Note_off_c, 0, 68, 64
5, 105720, Note_on_c, 0, 69, 34
5, 105780, Note_off_c, 0, 69, 64
5, 105780, Note_on_c, 0, 68, 27
5, 105840, Note_off_c, 0, 68, 64
5, 105840, Note_on_c, 0, 67, 41
5, 105900, Note_off_c, 0, 67, 64
5, 105900, Note_on_c, 0, 68, 50
5, 105960, Note_off_c, 0, 68, 64
5, 105960, Note_on_c, 0, 73, 50
5, 106020, Note_off_c, 0, 73, 64
5, 106020, Note_on_c, 0, 76, 44
5, 106080, Note_off_c, 0, 76, 64
5, 106080, Note_on_c, 0, 75, 55
5, 106140, Note_off_c, 0, 75, 64
5, 106140, Note_on_c, 0, 73, 44
5, 106200, Note_off_c, 0, 73, 64
5, 106200, Note_on_c, 0, 75, 55
5, 106260, Note_off_c, 0, 75, 64
5, 106260, Note_on_c, 0, 73, 55
5, 106320, Note_off_c, 0, 73, 64
5, 106320, Note_on_c, 0, 72, 52
5, 106380, Note_off_c, 0, 72, 64
5, 106380, Note_on_c, 0, 73, 58
5, 106440, Note_off_c, 0, 73, 64
5, 106440, Note_on_c, 0, 76, 56
5, 106500, Note_off_c, 0, 76, 64
5, 106500, Note_on_c, 0, 80, 58
5, 106560, Note_off_c, 0, 80, 64
5, 106620, Note_on_c, 0, 68, 44
5, 106680, Note_off_c, 0, 68, 64
5, 106680, Note_on_c, 0, 69, 36
5, 106740, Note_off_c, 0, 69, 64
5, 106740, Note_on_c, 0, 68, 40
5, 106800, Note_off_c, 0, 68, 64
5, 106800, Note_on_c, 0, 67, 59
5, 106860, Note_off_c, 0, 67, 64
5, 106860, Note_on_c, 0, 68, 50
5, 106920, Note_off_c, 0, 68, 64
5, 106920, Note_on_c, 0, 73, 50
5, 106980, Note_off_c, 0, 73, 64
5, 106980, Note_on_c, 0, 76, 44
5, 107040, Note_off_c, 0, 76, 64
5, 107040, Note_on_c, 0, 75, 40
5, 107100, Note_off_c, 0, 75, 64
5, 107100, Note_on_c, 0, 73, 47
5, 107160, Note_off_c, 0, 73, 64
5, 107160, Note_on_c, 0, 75, 47
5, 107220, Note_off_c, 0, 75, 64
5, 107220, Note_on_c, 0, 73, 50
5, 107280, Note_off_c, 0, 73, 64
5, 107280, Note_on_c, 0, 72, 50
5, 107340, Note_off_c, 0, 72, 64
5, 107340, Note_on_c, 0, 73, 63
5, 107400, Note_off_c, 0, 73, 64
5, 107400, Note_on_c, 0, 76, 62
5, 107460, Note_off_c, 0, 76, 64
5, 107460, Note_on_c, 0, 80, 50
5, 107520, Note_off_c, 0, 80, 64
5, 107580, Note_on_c, 0, 69, 52
5, 107640, Note_off_c, 0, 69, 64
5, 107640, Note_on_c, 0, 73, 58
5, 107700, Note_off_c, 0, 73, 64
5, 107700, Note_on_c, 0, 75, 55
5, 107760, Note_off_c, 0, 75, 64
5, 107760, Note_on_c, 0, 78, 63
5, 107820, Note_off_c, 0, 78, 64
5, 107820, Note_on_c, 0, 81, 59
5, 107880, Note_off_c, 0, 81, 64
5, 107880, Note_on_c, 0, 85, 74
5, 107940, Note_off_c, 0, 85, 64
5, 107940, Note_on_c, 0, 87, 63
5, 108000, Note_off_c, 0, 87, 64
5, 108000, Note_on_c, 0, 95, 70
5, 108060, Note_off_c, 0, 95, 64
5, 108060, Note_on_c, 0, 93, 56
5, 108120, Note_off_c, 0, 93, 64
5, 108120, Note_on_c, 0, 92, 58
5, 108180, Note_off_c, 0, 92, 64
5, 108180, Note_on_c, 0, 90, 58
5, 108240, Note_off_c, 0, 90, 64
5, 108240, Note_on_c, 0, 88, 52
5, 108300, Note_off_c, 0, 88, 64
5, 108300, Note_on_c, 0, 87, 58
5, 108360, Note_off_c, 0, 87, 64
5, 108360, Note_on_c, 0, 90, 50
5, 108420, Note_off_c, 0, 90, 64
5, 108420, Note_on_c, 0, 85, 50
5, 108480, Note_off_c, 0, 85, 64
5, 108480, Note_on_c, 0, 84, 62
5, 108540, Note_off_c, 0, 84, 64
5, 108540, Note_on_c, 0, 87, 50
5, 108600, Note_off_c, 0, 87, 64
5, 108600, Note_on_c, 0, 81, 47
5, 108660, Note_off_c, 0, 81, 64
5, 108660, Note_on_c, 0, 80, 47
5, 108720, Note_off_c, 0, 80, 64
5, 108720, Note_on_c, 0, 78, 55
5, 108780, Note_off_c, 0, 78, 64
5, 108780, Note_on_c, 0, 81, 41
5, 108840, Note_off_c, 0, 81, 64
5, 108840, Note_on_c, 0, 76, 41
5, 108900, Note_off_c, 0, 76, 64
5, 108900, Note_on_c, 0, 75, 40
5, 108960, Note_off_c, 0, 75, 64
5, 108960, Note_on_c, 0, 78, 58
5, 109020, Note_off_c, 0, 78, 64
5, 109020, Note_on_c, 0, 73, 40
5, 109080, Note_off_c, 0, 73, 64
5, 109080, Note_on_c, 0, 72, 50
5, 109140, Note_off_c, 0, 72, 64
5, 109140, Note_on_c, 0, 75, 50
5, 109200, Note_off_c, 0, 75, 64
5, 109200, Note_on_c, 0, 69, 56
5, 109260, Note_off_c, 0, 69, 64
5, 109260, Note_on_c, 0, 68, 50
5, 109320, Note_off_c, 0, 68, 64
5, 109320, Note_on_c, 0, 71, 50
5, 109380, Note_off_c, 0, 71, 64
5, 109380, Note_on_c, 0, 69, 44
5, 109440, Note_off_c, 0, 69, 64
5, 109440, Note_on_c, 0, 69, 41
5, 109500, Note_off_c, 0, 69, 64
5, 109500, Note_on_c, 0, 68, 40
5, 109560, Note_off_c, 0, 68, 64
5, 109560, Note_on_c, 0, 69, 40
5, 109620, Note_off_c, 0, 69, 64
5, 109620, Note_on_c, 0, 68, 37
5, 109680, Note_off_c, 0, 68, 64
5, 109680, Note_on_c, 0, 67, 47
5, 109740, Note_off_c, 0, 67, 64
5, 109740, Note_on_c, 0, 68, 46
5, 109800, Note_off_c, 0, 68, 64
5, 109800, Note_on_c, 0, 73, 50
5, 109860, Note_off_c, 0, 73, 64
5, 109860, Note_on_c, 0, 76, 44
5, 109920, Note_off_c, 0, 76, 64
5, 109920, Note_on_c, 0, 75, 46
5, 109980, Note_off_c, 0, 75, 64
5, 109980, Note_on_c, 0, 73, 46
5, 110040, Note_off_c, 0, 73, 64
5, 110040, Note_on_c, 0, 75, 47
5, 110100, Note_off_c, 0, 75, 64
5, 110100, Note_on_c, 0, 73, 47
5, 110160, Note_off_c, 0, 73, 64
5, 110160, Note_on_c, 0, 72, 55
5, 110220, Note_off_c, 0, 72, 64
5, 110220, Note_on_c, 0, 73, 47
5, 110280, Note_off_c, 0, 73, 64
5, 110280, Note_on_c, 0, 76, 48
5, 110340, Note_off_c, 0, 76, 64
5, 110340, Note_on_c, 0, 80, 48
5, 110400, Note_off_c, 0, 80, 64
5, 110400, Note_on_c, 0, 76, 43
5, 110460, Note_off_c, 0, 76, 64
5, 110460, Note_on_c, 0, 75, 43
5, 110520, Note_off_c, 0, 75, 64
5, 110520, Note_on_c, 0, 76, 39
5, 110580, Note_off_c, 0, 76, 64
5, 110580, Note_on_c, 0, 75, 43
5, 110640, Note_off_c, 0, 75, 64
5, 110640, Note_on_c, 0, 74, 50
5, 110700, Note_off_c, 0, 74, 64
5, 110700, Note_on_c, 0, 75, 55
5, 110760, Note_off_c, 0, 75, 64
5, 110760, Note_on_c, 0, 78, 49
5, 110820, Note_off_c, 0, 78, 64
5, 110820, Note_on_c, 0, 81, 44
5, 110880, Note_off_c, 0, 81, 64
5, 110880, Note_on_c, 0, 78, 40
5, 110940, Note_off_c, 0, 78, 64
5, 110940, Note_on_c, 0, 77, 52
5, 111000, Note_off_c, 0, 77, 64
5, 111000, Note_on_c, 0, 78, 51
5, 111060, Note_off_c, 0, 78, 64
5, 111060, Note_on_c, 0, 77, 54
5, 111120, Note_off_c, 0, 77, 64
5, 111120, Note_on_c, 0, 76, 49
5, 111180, Note_off_c, 0, 76, 64
5, 111180, Note_on_c, 0, 77, 54
5, 111240, Note_off_c, 0, 77, 64
5, 111240, Note_on_c, 0, 80, 61
5, 111300, Note_off_c, 0, 80, 64
5, 111300, Note_on_c, 0, 85, 61
5, 111360, Note_off_c, 0, 85, 64
5, 111420, Note_on_c, 0, 73, 46
5, 111480, Note_off_c, 0, 73, 64
5, 111480, Note_on_c, 0, 74, 42
5, 111540, Note_off_c, 0, 74, 64
5, 111540, Note_on_c, 0, 73, 47
5, 111600, Note_off_c, 0, 73, 64
5, 111600, Note_on_c, 0, 72, 55
5, 111660, Note_off_c, 0, 72, 64
5, 111660, Note_on_c, 0, 73, 58
5, 111720, Note_off_c, 0, 73, 64
5, 111720, Note_on_c, 0, 78, 58
5, 111780, Note_off_c, 0, 78, 64
5, 111780, Note_on_c, 0, 81, 48
5, 111840, Note_off_c, 0, 81, 64
5, 111840, Note_on_c, 0, 78, 55
5, 111900, Note_off_c, 0, 78, 64
5, 111900, Note_on_c, 0, 77, 56
5, 111960, Note_off_c, 0, 77, 64
5, 111960, Note_on_c, 0, 78, 44
5, 112020, Note_off_c, 0, 78, 64
5, 112020, Note_on_c, 0, 77, 52
5, 112080, Note_off_c, 0, 77, 64
5, 112080, Note_on_c, 0, 76, 64
5, 112140, Note_off_c, 0, 76, 64
5, 112140, Note_on_c, 0, 77, 59
5, 112200, Note_off_c, 0, 77, 64
5, 112200, Note_on_c, 0, 80, 66
5, 112260, Note_off_c, 0, 80, 64
5, 112260, Note_on_c, 0, 85, 66
5, 112320, Note_off_c, 0, 85, 64
5, 112320, Note_on_c, 0, 80, 62
5, 112380, Note_off_c, 0, 80, 64
5, 112380, Note_on_c, 0, 78, 57
5, 112440, Note_off_c, 0, 78, 64
5, 112440, Note_on_c, 0, 80, 68
5, 112500, Note_off_c, 0, 80, 64
5, 112500, Note_on_c, 0, 78, 62
5, 112560, Note_off_c, 0, 78, 64
5, 112560, Note_on_c, 0, 77, 67
5, 112620, Note_off_c, 0, 77, 64
5, 112620, Note_on_c, 0, 78, 64
5, 112680, Note_off_c, 0, 78, 64
5, 112680, Note_on_c, 0, 81, 67
5, 112740, Note_off_c, 0, 81, 64
5, 112740, Note_on_c, 0, 85, 69
5, 112800, Note_off_c, 0, 85, 64
5, 112800, Note_on_c, 0, 81, 56
5, 112860, Note_off_c, 0, 81, 64
5, 112860, Note_on_c, 0, 80, 58
5, 112920, Note_off_c, 0, 80, 64
5, 112920, Note_on_c, 0, 81, 63
5, 112980, Note_off_c, 0, 81, 64
5, 112980, Note_on_c, 0, 80, 60
5, 113040, Note_off_c, 0, 80, 64
5, 113040, Note_on_c, 0, 79, 69
5, 113100, Note_off_c, 0, 79, 64
5, 113100, Note_on_c, 0, 80, 71
5, 113160, Note_off_c, 0, 80, 64
5, 113160, Note_on_c, 0, 84, 79
5, 113220, Note_off_c, 0, 84, 64
5, 113220, Note_on_c, 0, 87, 79
5, 113280, Note_off_c, 0, 87, 64
5, 113280, Note_on_c, 0, 80, 67
5, 113340, Note_off_c, 0, 80, 64
5, 113340, Note_on_c, 0, 81, 55
5, 113400, Note_off_c, 0, 81, 64
5, 113400, Note_on_c, 0, 80, 58
5, 113460, Note_off_c, 0, 80, 64
5, 113460, Note_on_c, 0, 79, 65
5, 113520, Note_off_c, 0, 79, 64
5, 113520, Note_on_c, 0, 80, 74
5, 113580, Note_off_c, 0, 80, 64
5, 113580, Note_on_c, 0, 88, 76
5, 113640, Note_off_c, 0, 88, 64
5, 113640, Note_on_c, 0, 87, 50
5, 113700, Note_off_c, 0, 87, 64
5, 113700, Note_on_c, 0, 86, 57
5, 113760, Note_off_c, 0, 86, 64
5, 113760, Note_on_c, 0, 85, 74
5, 113820, Note_off_c, 0, 85, 64
5, 113820, Note_on_c, 0, 84, 55
5, 113880, Note_off_c, 0, 84, 64
5, 113880, Note_on_c, 0, 83, 56
5, 113940, Note_off_c, 0, 83, 64
5, 113940, Note_on_c, 0, 82, 51
5, 114000, Note_off_c, 0, 82, 64
5, 114000, Note_on_c, 0, 81, 74
5, 114060, Note_off_c, 0, 81, 64
5, 114060, Note_on_c, 0, 80, 52
5, 114120, Note_off_c, 0, 80, 64
5, 114120, Note_on_c, 0, 79, 56
5, 114180, Note_off_c, 0, 79, 64
5, 114180, Note_on_c, 0, 78, 52
5, 114240, Note_off_c, 0, 78, 64
5, 114240, Note_on_c, 0, 76, 70
5, 114300, Note_off_c, 0, 76, 64
5, 114300, Note_on_c, 0, 78, 49
5, 114360, Note_off_c, 0, 78, 64
5, 114360, Note_on_c, 0, 76, 59
5, 114420, Note_off_c, 0, 76, 64
5, 114420, Note_on_c, 0, 75, 66
5, 114480, Note_off_c, 0, 75, 64
5, 114480, Note_on_c, 0, 76, 71
5, 114540, Note_off_c, 0, 76, 64
5, 114540, Note_on_c, 0, 88, 93
5, 114600, Note_off_c, 0, 88, 64
5, 114600, Note_on_c, 0, 87, 79
5, 114660, Note_off_c, 0, 87, 64
5, 114660, Note_on_c, 0, 86, 69
5, 114720, Note_off_c, 0, 86, 64
5, 114720, Note_on_c, 0, 85, 68
5, 114780, Note_off_c, 0, 85, 64
5, 114780, Note_on_c, 0, 84, 64
5, 114840, Note_off_c, 0, 84, 64
5, 114840, Note_on_c, 0, 83, 61
5, 114900, Note_off_c, 0, 83, 64
5, 114900, Note_on_c, 0, 82, 55
5, 114960, Note_off_c, 0, 82, 64
5, 114960, Note_on_c, 0, 81, 55
5, 115020, Note_off_c, 0, 81, 64
5, 115020, Note_on_c, 0, 80, 60
5, 115080, Note_off_c, 0, 80, 64
5, 115080, Note_on_c, 0, 79, 55
5, 115140, Note_off_c, 0, 79, 64
5, 115140, Note_on_c, 0, 78, 53
5, 115200, Note_off_c, 0, 78, 64
5, 115200, Note_on_c, 0, 80, 55
5, 115260, Note_off_c, 0, 80, 64
5, 115320, Note_on_c, 0, 92, 74
5, 115380, Note_off_c, 0, 92, 64
5, 115380, Note_on_c, 0, 91, 62
5, 115440, Note_off_c, 0, 91, 64
5, 115440, Note_on_c, 0, 90, 68
5, 115500, Note_off_c, 0, 90, 64
5, 115500, Note_on_c, 0, 89, 67
5, 115560, Note_off_c, 0, 89, 64
5, 115560, Note_on_c, 0, 88, 67
5, 115620, Note_off_c, 0, 88, 64
5, 115620, Note_on_c, 0, 87, 68
5, 115680, Note_off_c, 0, 87, 64
5, 115680, Note_on_c, 0, 86, 70
5, 115740, Note_off_c, 0, 86, 64
5, 115740, Note_on_c, 0, 85, 74
5, 115800, Note_off_c, 0, 85, 64
5, 115800, Note_on_c, 0, 84, 67
5, 115860, Note_off_c, 0, 84, 64
5, 115860, Note_on_c, 0, 83, 62
5, 115920, Note_off_c, 0, 83, 64
5, 115920, Note_on_c, 0, 82, 80
5, 115980, Note_off_c, 0, 82, 64
5, 115980, Note_on_c, 0, 81, 56
5, 116040, Note_off_c, 0, 81, 64
5, 116040, Note_on_c, 0, 80, 50
5, 116100, Note_off_c, 0, 80, 64
5, 116100, Note_on_c, 0, 79, 56
5, 116160, Note_off_c, 0, 79, 64
5, 116160, Note_on_c, 0, 78, 74
5, 116220, Note_off_c, 0, 78, 64
5, 116220, Note_on_c, 0, 77, 59
5, 116280, Note_off_c, 0, 77, 64
5, 116280, Note_on_c, 0, 76, 59
5, 116340, Note_off_c, 0, 76, 64
5, 116340, Note_on_c, 0, 75, 58
5, 116400, Note_off_c, 0, 75, 64
5, 116400, Note_on_c, 0, 74, 67
5, 116460, Note_off_c, 0, 74, 64
5, 116460, Note_on_c, 0, 73, 44
5, 116520, Note_off_c, 0, 73, 64
5, 116520, Note_on_c, 0, 72, 47
5, 116580, Note_off_c, 0, 72, 64
5, 116580, Note_on_c, 0, 71, 47
5, 116640, Note_off_c, 0, 71, 64
5, 116640, Note_on_c, 0, 70, 63
5, 116700, Note_off_c, 0, 70, 64
5, 116700, Note_on_c, 0, 69, 50
5, 116760, Note_off_c, 0, 69, 64
5, 116760, Note_on_c, 0, 68, 50
5, 116820, Note_off_c, 0, 68, 64
5, 116820, Note_on_c, 0, 67, 56
5, 116880, Note_off_c, 0, 67, 64
5, 116880, Note_on_c, 0, 66, 58
5, 116940, Note_off_c, 0, 66, 64
5, 116940, Note_on_c, 0, 64, 55
5, 117000, Note_off_c, 0, 64, 64
5, 117000, Note_on_c, 0, 63, 63
5, 117060, Note_off_c, 0, 63, 64
5, 117060, Note_on_c, 0, 61, 59
5, 117120, Note_off_c, 0, 61, 64
5, 117120, Note_on_c, 0, 56, 89
5, 117240, Note_off_c, 0, 56, 64
5, 117360, Note_on_c, 0, 93, 77
5, 117420, Note_off_c, 0, 93, 64
5, 117420, Note_on_c, 0, 92, 57
5, 117480, Note_off_c, 0, 92, 64
5, 117480, Note_on_c, 0, 100, 54
5, 117540, Note_off_c, 0, 100, 64
5, 117540, Note_on_c, 0, 88, 47
5, 117600, Note_off_c, 0, 88, 64
5, 117600, Note_on_c, 0, 90, 72
5, 117660, Note_off_c, 0, 90, 64
5, 117660, Note_on_c, 0, 88, 64
5, 117720, Note_off_c, 0, 88, 64
5, 117720, Note_on_c, 0, 97, 72
5, 117780, Note_off_c, 0, 97, 64
5, 117780, Note_on_c, 0, 85, 63
5, 117840, Note_off_c, 0, 85, 64
5, 117840, Note_on_c, 0, 87, 72
5, 117900, Note_off_c, 0, 87, 64
5, 117900, Note_on_c, 0, 85, 63
5, 117960, Note_off_c, 0, 85, 64
5, 117960, Note_on_c, 0, 92, 72
5, 118020, Note_off_c, 0, 92, 64
5, 118020, Note_on_c, 0, 80, 63
5, 118080, Note_off_c, 0, 80, 64
5, 118080, Note_on_c, 0, 81, 80
5, 118140, Note_off_c, 0, 81, 64
5, 118140, Note_on_c, 0, 80, 63
5, 118200, Note_off_c, 0, 80, 64
5, 118200, Note_on_c, 0, 88, 67
5, 118260, Note_off_c, 0, 88, 64
5, 118260, Note_on_c, 0, 76, 54
5, 118320, Note_off_c, 0, 76, 64
5, 118320, Note_on_c, 0, 78, 85
5, 118380, Note_off_c, 0, 78, 64
5, 118380, Note_on_c, 0, 76, 67
5, 118440, Note_off_c, 0, 76, 64
5, 118440, Note_on_c, 0, 85, 72
5, 118500, Note_off_c, 0, 85, 64
5, 118500, Note_on_c, 0, 73, 54
5, 118560, Note_off_c, 0, 73, 64
5, 118560, Note_on_c, 0, 75, 72
5, 118620, Note_off_c, 0, 75, 64
5, 118620, Note_on_c, 0, 73, 54
5, 118680, Note_off_c, 0, 73, 64
5, 118680, Note_on_c, 0, 80, 72
5, 118740, Note_off_c, 0, 80, 64
5, 118740, Note_on_c, 0, 68, 36
5, 118800, Note_off_c, 0, 68, 64
5, 118800, Note_on_c, 0, 69, 80
5, 118860, Note_off_c, 0, 69, 64
5, 118860, Note_on_c, 0, 68, 57
5, 118920, Note_off_c, 0, 68, 64
5, 118920, Note_on_c, 0, 76, 67
5, 118980, Note_off_c, 0, 76, 64
5, 118980, Note_on_c, 0, 64, 56
5, 119040, Note_off_c, 0, 64, 64
5, 119040, Note_on_c, 0, 66, 66
5, 119100, Note_off_c, 0, 66, 64
5, 119100, Note_on_c, 0, 64, 54
5, 119160, Note_off_c, 0, 64, 64
5, 119160, Note_on_c, 0, 73, 66
5, 119220, Note_off_c, 0, 73, 64
5, 119220, Note_on_c, 0, 61, 62
5, 119280, Note_off_c, 0, 61, 64
5, 119280, Note_on_c, 0, 63, 78
5, 119340, Note_off_c, 0, 63, 64
5, 119340, Note_on_c, 0, 61, 62
5, 119400, Note_off_c, 0, 61, 64
5, 119400, Note_on_c, 0, 68, 72
5, 119460, Note_off_c, 0, 68, 64
5, 119460, Note_on_c, 0, 56, 71
5, 119520, Note_off_c, 0, 56, 64
5, 119520, Note_on_c, 0, 63, 78
5, 119580, Note_off_c, 0, 63, 64
5, 119580, Note_on_c, 0, 61, 67
5, 119640, Note_off_c, 0, 61, 64
5, 119640, Note_on_c, 0, 68, 72
5, 119700, Note_off_c, 0, 68, 64
5, 119700, Note_on_c, 0, 56, 67
5, 119760, Note_off_c, 0, 56, 64
5, 119760, Note_on_c, 0, 63, 72
5, 119820, Note_off_c, 0, 63, 64
5, 119820, Note_on_c, 0, 61, 62
5, 119880, Note_off_c, 0, 61, 64
5, 119880, Note_on_c, 0, 69, 77
5, 119940, Note_off_c, 0, 69, 64
5, 119940, Note_on_c, 0, 57, 64
5, 120000, Note_off_c, 0, 57, 64
5, 120000, Note_on_c, 0, 63, 63
5, 120060, Note_off_c, 0, 63, 64
5, 120060, Note_on_c, 0, 61, 62
5, 120120, Note_off_c, 0, 61, 64
5, 120120, Note_on_c, 0, 68, 78
5, 120180, Note_off_c, 0, 68, 64
5, 120180, Note_on_c, 0, 56, 67
5, 120240, Note_off_c, 0, 56, 64
5, 120240, Note_on_c, 0, 63, 63
5, 120300, Note_off_c, 0, 63, 64
5, 120300, Note_on_c, 0, 61, 62
5, 120360, Note_off_c, 0, 61, 64
5, 120360, Note_on_c, 0, 67, 71
5, 120420, Note_off_c, 0, 67, 64
5, 120420, Note_on_c, 0, 55, 50
5, 120480, Note_off_c, 0, 55, 64
5, 120480, Note_on_c, 0, 63, 57
5, 120540, Note_off_c, 0, 63, 64
5, 120540, Note_on_c, 0, 61, 67
5, 120600, Note_off_c, 0, 61, 64
5, 120600, Note_on_c, 0, 68, 66
5, 120660, Note_off_c, 0, 68, 64
5, 120660, Note_on_c, 0, 56, 62
5, 120720, Note_off_c, 0, 56, 64
5, 120720, Note_on_c, 0, 63, 66
5, 120780, Note_off_c, 0, 63, 64
5, 120780, Note_on_c, 0, 60, 64
5, 120840, Note_off_c, 0, 60, 64
5, 120840, Note_on_c, 0, 68, 63
5, 120900, Note_off_c, 0, 68, 64
5, 120900, Note_on_c, 0, 56, 55
5, 120960, Note_off_c, 0, 56, 64
5, 120960, Note_on_c, 0, 63, 63
5, 121020, Note_off_c, 0, 63, 64
5, 121020, Note_on_c, 0, 61, 54
5, 121080, Note_off_c, 0, 61, 64
5, 121080, Note_on_c, 0, 68, 68
5, 121140, Note_off_c, 0, 68, 64
5, 121140, Note_on_c, 0, 56, 62
5, 121200, Note_off_c, 0, 56, 64
5, 121200, Note_on_c, 0, 69, 56
5, 121260, Note_off_c, 0, 69, 64
5, 121260, Note_on_c, 0, 68, 63
5, 121320, Note_off_c, 0, 68, 64
5, 121320, Note_on_c, 0, 76, 80
5, 121380, Note_off_c, 0, 76, 64
5, 121380, Note_on_c, 0, 64, 37
5, 121440, Note_off_c, 0, 64, 64
5, 121440, Note_on_c, 0, 69, 52
5, 121500, Note_off_c, 0, 69, 64
5, 121500, Note_on_c, 0, 68, 47
5, 121560, Note_off_c, 0, 68, 64
5, 121560, Note_on_c, 0, 76, 75
5, 121620, Note_off_c, 0, 76, 64
5, 121620, Note_on_c, 0, 64, 33
5, 121680, Note_off_c, 0, 64, 64
5, 121680, Note_on_c, 0, 69, 44
5, 121740, Note_off_c, 0, 69, 64
5, 121740, Note_on_c, 0, 68, 50
5, 121800, Note_off_c, 0, 68, 64
5, 121800, Note_on_c, 0, 75, 80
5, 121860, Note_off_c, 0, 75, 64
5, 121860, Note_on_c, 0, 63, 38
5, 121920, Note_off_c, 0, 63, 64
5, 121920, Note_on_c, 0, 69, 44
5, 121980, Note_off_c, 0, 69, 64
5, 121980, Note_on_c, 0, 68, 38
5, 122040, Note_off_c, 0, 68, 64
5, 122040, Note_on_c, 0, 75, 74
5, 122100, Note_off_c, 0, 75, 64
5, 122100, Note_on_c, 0, 63, 35
5, 122160, Note_off_c, 0, 63, 64
5, 122160, Note_on_c, 0, 69, 25
5, 122220, Note_off_c, 0, 69, 64
5, 122220, Note_on_c, 0, 68, 32
5, 122280, Note_off_c, 0, 68, 64
5, 122280, Note_on_c, 0, 73, 74
5, 122340, Note_off_c, 0, 73, 64
5, 122340, Note_on_c, 0, 61, 28
5, 122400, Note_off_c, 0, 61, 64
5, 122400, Note_on_c, 0, 64, 18
5, 122460, Note_off_c, 0, 64, 64
5, 122460, Note_on_c, 0, 63, 28
5, 122520, Note_off_c, 0, 63, 64
5, 122520, Note_on_c, 0, 68, 51
5, 122580, Note_off_c, 0, 68, 64
5, 122580, Note_on_c, 0, 56, 22
5, 122640, Note_off_c, 0, 56, 64
5, 122640, Note_on_c, 0, 64, 16
5, 122700, Note_off_c, 0, 64, 64
5, 122700, Note_on_c, 0, 63, 25
5, 122760, Note_off_c, 0, 63, 64
5, 122760, Note_on_c, 0, 68, 47
5, 122820, Note_off_c, 0, 68, 64
5, 122820, Note_on_c, 0, 56, 30
5, 122880, Note_off_c, 0, 56, 64
5, 122880, Note_on_c, 0, 63, 44
5, 122940, Note_off_c, 0, 63, 64
5, 122940, Note_on_c, 0, 61, 48
5, 123000, Note_off_c, 0, 61, 64
5, 123000, Note_on_c, 0, 68, 74
5, 123060, Note_off_c, 0, 68, 64
5, 123060, Note_on_c, 0, 56, 36
5, 123120, Note_off_c, 0, 56, 64
5, 123120, Note_on_c, 0, 69, 67
5, 123180, Note_off_c, 0, 69, 64
5, 123180, Note_on_c, 0, 68, 74
5, 123240, Note_off_c, 0, 68, 64
5, 123240, Note_on_c, 0, 76, 75
5, 123300, Note_off_c, 0, 76, 64
5, 123300, Note_on_c, 0, 64, 60
5, 123360, Note_off_c, 0, 64, 64
5, 123360, Note_on_c, 0, 69, 62
5, 123420, Note_off_c, 0, 69, 64
5, 123420, Note_on_c, 0, 68, 68
5, 123480, Note_off_c, 0, 68, 64
5, 123480, Note_on_c, 0, 76, 75
5, 123540, Note_off_c, 0, 76, 64
5, 123540, Note_on_c, 0, 64, 55
5, 123600, Note_off_c, 0, 64, 64
5, 123600, Note_on_c, 0, 69, 67
5, 123660, Note_off_c, 0, 69, 64
5, 123660, Note_on_c, 0, 68, 63
5, 123720, Note_off_c, 0, 68, 64
5, 123720, Note_on_c, 0, 75, 80
5, 123780, Note_off_c, 0, 75, 64
5, 123780, Note_on_c, 0, 63, 63
5, 123840, Note_off_c, 0, 63, 64
5, 123840, Note_on_c, 0, 69, 62
5, 123900, Note_off_c, 0, 69, 64
5, 123900, Note_on_c, 0, 68, 68
5, 123960, Note_off_c, 0, 68, 64
5, 123960, Note_on_c, 0, 75, 74
5, 124020, Note_off_c, 0, 75, 64
5, 124020, Note_on_c, 0, 63, 58
5, 124080, Note_off_c, 0, 63, 64
5, 124080, Note_on_c, 0, 69, 47
5, 124140, Note_off_c, 0, 69, 64
5, 124140, Note_on_c, 0, 68, 63
5, 124200, Note_off_c, 0, 68, 64
5, 124200, Note_on_c, 0, 73, 80
5, 124260, Note_off_c, 0, 73, 64
5, 124260, Note_on_c, 0, 61, 59
5, 124320, Note_off_c, 0, 61, 64
5, 124320, Note_on_c, 0, 64, 35
5, 124380, Note_off_c, 0, 64, 64
5, 124380, Note_on_c, 0, 63, 28
5, 124440, Note_off_c, 0, 63, 64
5, 124440, Note_on_c, 0, 68, 28
5, 124500, Note_off_c, 0, 68, 64
5, 124500, Note_on_c, 0, 56, 30
5, 124560, Note_off_c, 0, 56, 64
5, 124560, Note_on_c, 0, 64, 26
5, 124620, Note_off_c, 0, 64, 64
5, 124620, Note_on_c, 0, 63, 29
5, 124680, Note_off_c, 0, 63, 64
5, 124680, Note_on_c, 0, 68, 43
5, 124740, Note_off_c, 0, 68, 64
5, 124740, Note_on_c, 0, 56, 26
5, 124800, Note_off_c, 0, 56, 64
5, 124800, Note_on_c, 0, 63, 47
5, 124860, Note_off_c, 0, 63, 64
5, 124860, Note_on_c, 0, 61, 54
5, 124920, Note_off_c, 0, 61, 64
5, 124920, Note_on_c, 0, 68, 74
5, 124980, Note_off_c, 0, 68, 64
5, 124980, Note_on_c, 0, 56, 67
5, 125040, Note_off_c, 0, 56, 64
5, 125040, Note_on_c, 0, 69, 62
5, 125100, Note_off_c, 0, 69, 64
5, 125100, Note_on_c, 0, 68, 58
5, 125160, Note_off_c, 0, 68, 64
5, 125160, Note_on_c, 0, 76, 75
5, 125220, Note_off_c, 0, 76, 64
5, 125220, Note_on_c, 0, 64, 33
5, 125280, Note_off_c, 0, 64, 64
5, 125280, Note_on_c, 0, 66, 55
5, 125340, Note_off_c, 0, 66, 64
5, 125340, Note_on_c, 0, 64, 52
5, 125400, Note_off_c, 0, 64, 64
5, 125400, Note_on_c, 0, 73, 80
5, 125460, Note_off_c, 0, 73, 64
5, 125460, Note_on_c, 0, 61, 62
5, 125520, Note_off_c, 0, 61, 64
5, 125520, Note_on_c, 0, 69, 67
5, 125580, Note_off_c, 0, 69, 64
5, 125580, Note_on_c, 0, 68, 68
5, 125640, Note_off_c, 0, 68, 64
5, 125640, Note_on_c, 0, 76, 80
5, 125700, Note_off_c, 0, 76, 64
5, 125700, Note_on_c, 0, 64, 42
5, 125760, Note_off_c, 0, 64, 64
5, 125760, Note_on_c, 0, 63, 68
5, 125820, Note_off_c, 0, 63, 64
5, 125820, Note_on_c, 0, 61, 54
5, 125880, Note_off_c, 0, 61, 64
5, 125880, Note_on_c, 0, 68, 68
5, 125940, Note_off_c, 0, 68, 64
5, 125940, Note_on_c, 0, 56, 67
5, 126000, Note_off_c, 0, 56, 64
5, 126000, Note_on_c, 0, 69, 62
5, 126060, Note_off_c, 0, 69, 64
5, 126060, Note_on_c, 0, 68, 63
5, 126120, Note_off_c, 0, 68, 64
5, 126120, Note_on_c, 0, 76, 75
5, 126180, Note_off_c, 0, 76, 64
5, 126180, Note_on_c, 0, 64, 52
5, 126240, Note_off_c, 0, 64, 64
5, 126240, Note_on_c, 0, 66, 55
5, 126300, Note_off_c, 0, 66, 64
5, 126300, Note_on_c, 0, 64, 55
5, 126360, Note_off_c, 0, 64, 64
5, 126360, Note_on_c, 0, 73, 68
5, 126420, Note_off_c, 0, 73, 64
5, 126420, Note_on_c, 0, 61, 59
5, 126480, Note_off_c, 0, 61, 64
5, 126480, Note_on_c, 0, 69, 62
5, 126540, Note_off_c, 0, 69, 64
5, 126540, Note_on_c, 0, 68, 63
5, 126600, Note_off_c, 0, 68, 64
5, 126600, Note_on_c, 0, 76, 67
5, 126660, Note_off_c, 0, 76, 64
5, 126660, Note_on_c, 0, 64, 47
5, 126720, Note_off_c, 0, 64, 64
5, 126720, Note_on_c, 0, 66, 58
5, 126780, Note_off_c, 0, 66, 64
5, 126780, Note_on_c, 0, 64, 47
5, 126840, Note_off_c, 0, 64, 64
5, 126840, Note_on_c, 0, 73, 71
5, 126900, Note_off_c, 0, 73, 64
5, 126900, Note_on_c, 0, 61, 56
5, 126960, Note_off_c, 0, 61, 64
5, 126960, Note_on_c, 0, 69, 41
5, 127020, Note_off_c, 0, 69, 64
5, 127020, Note_on_c, 0, 68, 52
5, 127080, Note_off_c, 0, 68, 64
5, 127080, Note_on_c, 0, 73, 52
5, 127140, Note_off_c, 0, 73, 64
5, 127140, Note_on_c, 0, 61, 33
5, 127200, Note_off_c, 0, 61, 64
5, 127200, Note_on_c, 0, 66, 36
5, 127260, Note_off_c, 0, 66, 64
5, 127260, Note_on_c, 0, 64, 35
5, 127320, Note_off_c, 0, 64, 64
5, 127320, Note_on_c, 0, 73, 55
5, 127380, Note_off_c, 0, 73, 64
5, 127380, Note_on_c, 0, 61, 44
5, 127440, Note_off_c, 0, 61, 64
5, 127440, Note_on_c, 0, 69, 46
5, 127500, Note_off_c, 0, 69, 64
5, 127500, Note_on_c, 0, 68, 44
5, 127560, Note_off_c, 0, 68, 64
5, 127560, Note_on_c, 0, 73, 44
5, 127620, Note_off_c, 0, 73, 64
5, 127620, Note_on_c, 0, 61, 32
5, 127680, Note_off_c, 0, 61, 64
5, 127680, Note_on_c, 0, 66, 39
5, 127740, Note_off_c, 0, 66, 64
5, 127740, Note_on_c, 0, 64, 35
5, 127800, Note_off_c, 0, 64, 64
5, 127800, Note_on_c, 0, 73, 43
5, 127860, Note_off_c, 0, 73, 64
5, 127860, Note_on_c, 0, 61, 35
5, 127920, Note_off_c, 0, 61, 64
5, 127920, Note_on_c, 0, 69, 38
5, 127980, Note_off_c, 0, 69, 64
5, 127980, Note_on_c, 0, 68, 37
5, 128040, Note_off_c, 0, 68, 64
5, 128040, Note_on_c, 0, 73, 44
5, 128100, Note_off_c, 0, 73, 64
5, 128100, Note_on_c, 0, 61, 25
5, 128160, Note_off_c, 0, 61, 64
5, 128160, Note_on_c, 0, 66, 33
5, 128220, Note_off_c, 0, 66, 64
5, 128220, Note_on_c, 0, 64, 31
5, 128280, Note_off_c, 0, 64, 64
5, 128280, Note_on_c, 0, 73, 36
5, 128340, Note_off_c, 0, 73, 64
5, 128340, Note_on_c, 0, 61, 29
5, 128400, Note_off_c, 0, 61, 64
5, 128400, Note_on_c, 0, 69, 28
5, 128460, Note_off_c, 0, 69, 64
5, 128460, Note_on_c, 0, 68, 27
5, 128520, Note_off_c, 0, 68, 64
5, 128520, Note_on_c, 0, 73, 33
5, 128580, Note_off_c, 0, 73, 64
5, 128580, Note_on_c, 0, 61, 26
5, 128640, Note_off_c, 0, 61, 64
5, 128640, Note_on_c, 0, 63, 37
5, 128700, Note_off_c, 0, 63, 64
5, 128700, Note_on_c, 0, 61, 38
5, 128760, Note_off_c, 0, 61, 64
5, 128760, Note_on_c, 0, 68, 39
5, 128820, Note_off_c, 0, 68, 64
5, 128820, Note_on_c, 0, 56, 40
5, 128880, Note_off_c, 0, 56, 64
5, 128880, Note_on_c, 0, 63, 45
5, 128940, Note_off_c, 0, 63, 64
5, 128940, Note_on_c, 0, 61, 41
5, 129000, Note_off_c, 0, 61, 64
5, 129000, Note_on_c, 0, 68, 33
5, 129060, Note_off_c, 0, 68, 64
5, 129060, Note_on_c, 0, 56, 36
5, 129120, Note_off_c, 0, 56, 64
5, 129120, Note_on_c, 0, 63, 37
5, 129180, Note_off_c, 0, 63, 64
5, 129180, Note_on_c, 0, 61, 36
5, 129240, Note_off_c, 0, 61, 64
5, 129240, Note_on_c, 0, 68, 34
5, 129300, Note_off_c, 0, 68, 64
5, 129300, Note_on_c, 0, 56, 35
5, 129360, Note_off_c, 0, 56, 64
5, 129360, Note_on_c, 0, 63, 34
5, 129420, Note_off_c, 0, 63, 64
5, 129420, Note_on_c, 0, 61, 34
5, 129480, Note_off_c, 0, 61, 64
5, 129480, Note_on_c, 0, 68, 36
5, 129540, Note_off_c, 0, 68, 64
5, 129540, Note_on_c, 0, 56, 36
5, 129600, Note_off_c, 0, 56, 64
5, 129600, Note_on_c, 0, 63, 35
5, 129660, Note_off_c, 0, 63, 64
5, 129660, Note_on_c, 0, 61, 23
5, 129720, Note_off_c, 0, 61, 64
5, 129720, Note_on_c, 0, 68, 27
5, 129780, Note_off_c, 0, 68, 64
5, 129780, Note_on_c, 0, 56, 35
5, 129840, Note_off_c, 0, 56, 64
5, 129840, Note_on_c, 0, 63, 34
5, 129900, Note_off_c, 0, 63, 64
5, 129900, Note_on_c, 0, 61, 32
5, 129960, Note_off_c, 0, 61, 64
5, 129960, Note_on_c, 0, 68, 31
5, 130020, Note_off_c, 0, 68, 64
5, 130020, Note_on_c, 0, 56, 38
5, 130080, Note_off_c, 0, 56, 64
5, 130080, Note_on_c, 0, 63, 32
5, 130140, Note_off_c, 0, 63, 64
5, 130140, Note_on_c, 0, 61, 28
5, 130200, Note_off_c, 0, 61, 64
5, 130200, Note_on_c, 0, 68, 32
5, 130260, Note_off_c, 0, 68, 64
5, 130260, Note_on_c, 0, 56, 34
5, 130320, Note_off_c, 0, 56, 64
5, 130320, Note_on_c, 0, 63, 31
5, 130380, Note_off_c, 0, 63, 64
5, 130380, Note_on_c, 0, 61, 27
5, 130440, Note_off_c, 0, 61, 64
5, 130440, Note_on_c, 0, 68, 23
5, 130500, Note_off_c, 0, 68, 64
5, 130500, Note_on_c, 0, 56, 26
5, 130560, Note_off_c, 0, 56, 64
5, 130560, Note_on_c, 0, 63, 16
5, 130620, Note_off_c, 0, 63, 64
5, 130620, Note_on_c, 0, 61, 14
5, 130680, Note_off_c, 0, 61, 64
5, 130680, Note_on_c, 0, 68, 24
5, 130740, Note_off_c, 0, 68, 64
5, 130740, Note_on_c, 0, 56, 26
5, 130800, Note_off_c, 0, 56, 64
5, 130800, Note_on_c, 0, 63, 28
5, 130860, Note_off_c, 0, 63, 64
5, 130860, Note_on_c, 0, 61, 25
5, 130920, Note_off_c, 0, 61, 64
5, 130920, Note_on_c, 0, 68, 26
5, 130980, Note_off_c, 0, 68, 64
5, 130980, Note_on_c, 0, 56, 25
5, 131040, Note_off_c, 0, 56, 64
5, 131040, Note_on_c, 0, 63, 24
5, 131100, Note_off_c, 0, 63, 64
5, 131100, Note_on_c, 0, 61, 23
5, 131160, Note_off_c, 0, 61, 64
5, 131160, Note_on_c, 0, 68, 28
5, 131220, Note_off_c, 0, 68, 64
5, 131220, Note_on_c, 0, 56, 30
5, 131280, Note_off_c, 0, 56, 64
5, 131280, Note_on_c, 0, 63, 30
5, 131340, Note_off_c, 0, 63, 64
5, 131340, Note_on_c, 0, 61, 25
5, 131400, Note_off_c, 0, 61, 64
5, 131400, Note_on_c, 0, 68, 28
5, 131460, Note_off_c, 0, 68, 64
5, 131460, Note_on_c, 0, 56, 32
5, 131520, Note_off_c, 0, 56, 64
5, 131520, Note_on_c, 0, 63, 30
5, 131580, Note_off_c, 0, 63, 64
5, 131580, Note_on_c, 0, 61, 25
5, 131640, Note_off_c, 0, 61, 64
5, 131640, Note_on_c, 0, 68, 22
5, 131700, Note_off_c, 0, 68, 64
5, 131700, Note_on_c, 0, 56, 30
5, 131760, Note_off_c, 0, 56, 64
5, 131760, Note_on_c, 0, 63, 33
5, 131820, Note_off_c, 0, 63, 64
5, 131820, Note_on_c, 0, 61, 28
5, 131880, Note_off_c, 0, 61, 64
5, 131880, Note_on_c, 0, 68, 28
5, 131940, Note_off_c, 0, 68, 64
5, 131940, Note_on_c, 0, 56, 16
5, 132000, Note_off_c, 0, 56, 64
5, 132000, Note_on_c, 0, 63, 30
5, 132060, Note_off_c, 0, 63, 64
5, 132060, Note_on_c, 0, 61, 23
5, 132120, Note_off_c, 0, 61, 64
5, 132120, Note_on_c, 0, 68, 22
5, 132180, Note_off_c, 0, 68, 64
5, 132180, Note_on_c, 0, 56, 18
5, 132240, Note_off_c, 0, 56, 64
5, 132240, Note_on_c, 0, 63, 30
5, 132300, Note_off_c, 0, 63, 64
5, 132300, Note_on_c, 0, 61, 26
5, 132360, Note_off_c, 0, 61, 64
5, 132360, Note_on_c, 0, 68, 24
5, 132420, Note_off_c, 0, 68, 64
5, 132420, Note_on_c, 0, 56, 30
5, 132480, Note_off_c, 0, 56, 64
5, 132480, Note_on_c, 0, 63, 34
5, 132540, Note_off_c, 0, 63, 64
5, 132540, Note_on_c, 0, 61, 21
5, 132600, Note_off_c, 0, 61, 64
5, 132600, Note_on_c, 0, 68, 24
5, 132660, Note_off_c, 0, 68, 64
5, 132660, Note_on_c, 0, 56, 26
5, 132720, Note_off_c, 0, 56, 64
5, 132720, Note_on_c, 0, 63, 30
5, 132780, Note_off_c, 0, 63, 64
5, 132780, Note_on_c, 0, 61, 30
5, 132840, Note_off_c, 0, 61, 64
5, 132840, Note_on_c, 0, 68, 26
5, 132900, Note_off_c, 0, 68, 64
5, 132900, Note_on_c, 0, 56, 30
5, 132960, Note_off_c, 0, 56, 64
5, 132960, Note_on_c, 0, 63, 33
5, 133020, Note_off_c, 0, 63, 64
5, 133020, Note_on_c, 0, 61, 28
5, 133080, Note_off_c, 0, 61, 64
5, 133080, Note_on_c, 0, 68, 22
5, 133140, Note_off_c, 0, 68, 64
5, 133140, Note_on_c, 0, 56, 28
5, 133200, Note_off_c, 0, 56, 64
5, 133200, Note_on_c, 0, 63, 30
5, 133260, Note_off_c, 0, 63, 64
5, 133260, Note_on_c, 0, 61, 25
5, 133320, Note_off_c, 0, 61, 64
5, 133320, Note_on_c, 0, 68, 26
5, 133380, Note_off_c, 0, 68, 64
5, 133380, Note_on_c, 0, 56, 21
5, 133440, Note_off_c, 0, 56, 64
5, 133440, Note_on_c, 0, 63, 34
5, 133500, Note_off_c, 0, 63, 64
5, 133500, Note_on_c, 0, 61, 25
5, 133560, Note_off_c, 0, 61, 64
5, 133560, Note_on_c, 0, 68, 26
5, 133620, Note_off_c, 0, 68, 64
5, 133620, Note_on_c, 0, 56, 25
5, 133680, Note_off_c, 0, 56, 64
5, 133680, Note_on_c, 0, 63, 34
5, 133740, Note_off_c, 0, 63, 64
5, 133740, Note_on_c, 0, 61, 30
5, 133800, Note_off_c, 0, 61, 64
5, 133800, Note_on_c, 0, 68, 30
5, 133860, Note_off_c, 0, 68, 64
5, 133860, Note_on_c, 0, 56, 16
5, 133920, Note_off_c, 0, 56, 64
5, 133920, Note_on_c, 0, 63, 33
5, 133980, Note_off_c, 0, 63, 64
5, 133980, Note_on_c, 0, 61, 28
5, 134040, Note_off_c, 0, 61, 64
5, 134040, Note_on_c, 0, 68, 24
5, 134100, Note_off_c, 0, 68, 64
5, 134100, Note_on_c, 0, 56, 23
5, 134160, Note_off_c, 0, 56, 64
5, 134160, Note_on_c, 0, 63, 28
5, 134220, Note_off_c, 0, 63, 64
5, 134220, Note_on_c, 0, 61, 28
5, 134280, Note_off_c, 0, 61, 64
5, 134280, Note_on_c, 0, 68, 26
5, 134340, Note_off_c, 0, 68, 64
5, 134340, Note_on_c, 0, 56, 26
5, 134400, Note_off_c, 0, 56, 64
5, 134400, Note_on_c, 0, 63, 33
5, 134460, Note_off_c, 0, 63, 64
5, 134460, Note_on_c, 0, 61, 30
5, 134520, Note_off_c, 0, 61, 64
5, 134520, Note_on_c, 0, 68, 30
5, 134580, Note_off_c, 0, 68, 64
5, 134580, Note_on_c, 0, 56, 19
5, 134640, Note_off_c, 0, 56, 64
5, 134640, Note_on_c, 0, 63, 33
5, 134700, Note_off_c, 0, 63, 64
5, 134700, Note_on_c, 0, 61, 26
5, 134760, Note_off_c, 0, 61, 64
5, 134760, Note_on_c, 0, 68, 33
5, 134820, Note_off_c, 0, 68, 64
5, 134820, Note_on_c, 0, 56, 26
5, 134880, Note_off_c, 0, 56, 64
5, 134880, Note_on_c, 0, 63, 37
5, 134940, Note_off_c, 0, 63, 64
5, 134940, Note_on_c, 0, 61, 28
5, 135000, Note_off_c, 0, 61, 64
5, 135000, Note_on_c, 0, 68, 34
5, 135060, Note_off_c, 0, 68, 64
5, 135060, Note_on_c, 0, 56, 16
5, 135120, Note_off_c, 0, 56, 64
5, 135120, Note_on_c, 0, 63, 28
5, 135180, Note_off_c, 0, 63, 64
5, 135180, Note_on_c, 0, 61, 26
5, 135240, Note_off_c, 0, 61, 64
5, 135240, Note_on_c, 0, 68, 28
5, 135300, Note_off_c, 0, 68, 64
5, 135300, Note_on_c, 0, 56, 18
5, 135360, Note_off_c, 0, 56, 64
5, 135360, Note_on_c, 0, 63, 33
5, 135420, Note_off_c, 0, 63, 64
5, 135420, Note_on_c, 0, 61, 28
5, 135480, Note_off_c, 0, 61, 64
5, 135480, Note_on_c, 0, 68, 28
5, 135540, Note_off_c, 0, 68, 64
5, 135540, Note_on_c, 0, 56, 30
5, 135600, Note_off_c, 0, 56, 64
5, 135600, Note_on_c, 0, 63, 30
5, 135660, Note_off_c, 0, 63, 64
5, 135660, Note_on_c, 0, 61, 19
5, 135720, Note_off_c, 0, 61, 64
5, 135720, Note_on_c, 0, 68, 33
5, 135780, Note_off_c, 0, 68, 64
5, 135780, Note_on_c, 0, 56, 28
5, 135840, Note_off_c, 0, 56, 64
5, 135840, Note_on_c, 0, 63, 30
5, 135900, Note_off_c, 0, 63, 64
5, 135900, Note_on_c, 0, 61, 19
5, 135960, Note_off_c, 0, 61, 64
5, 135960, Note_on_c, 0, 68, 24
5, 136020, Note_off_c, 0, 68, 64
5, 136020, Note_on_c, 0, 56, 28
5, 136080, Note_off_c, 0, 56, 64
5, 136080, Note_on_c, 0, 63, 28
5, 136140, Note_off_c, 0, 63, 64
5, 136140, Note_on_c, 0, 61, 21
5, 136200, Note_off_c, 0, 61, 64
5, 136200, Note_on_c, 0, 68, 28
5, 136260, Note_off_c, 0, 68, 64
5, 136260, Note_on_c, 0, 56, 28
5, 136320, Note_off_c, 0, 56, 64
5, 136320, Note_on_c, 0, 63, 34
5, 136380, Note_off_c, 0, 63, 64
5, 136380, Note_on_c, 0, 61, 26
5, 136440, Note_off_c, 0, 61, 64
5, 136440, Note_on_c, 0, 68, 26
5, 136500, Note_off_c, 0, 68, 64
5, 136500, Note_on_c, 0, 53, 24
5, 136560, Note_off_c, 0, 53, 64
5, 136560, Note_on_c, 0, 63, 34
5, 136620, Note_off_c, 0, 63, 64
5, 136620, Note_on_c, 0, 61, 28
5, 136680, Note_off_c, 0, 61, 64
5, 136680, Note_on_c, 0, 68, 30
5, 136740, Note_off_c, 0, 68, 64
5, 136740, Note_on_c, 0, 53, 27
5, 136800, Note_off_c, 0, 53, 64
5, 136800, Note_on_c, 0, 63, 30
5, 136860, Note_off_c, 0, 63, 64
5, 136860, Note_on_c, 0, 61, 28
5, 136920, Note_off_c, 0, 61, 64
5, 136920, Note_on_c, 0, 68, 33
5, 136980, Note_off_c, 0, 68, 64
5, 136980, Note_on_c, 0, 53, 22
5, 137040, Note_off_c, 0, 53, 64
5, 137040, Note_on_c, 0, 63, 30
5, 137100, Note_off_c, 0, 63, 64
5, 137100, Note_on_c, 0, 61, 32
5, 137160, Note_off_c, 0, 61, 64
5, 137160, Note_on_c, 0, 68, 33
5, 137220, Note_off_c, 0, 68, 64
5, 137220, Note_on_c, 0, 53, 18
5, 137280, Note_off_c, 0, 53, 64
5, 137280, Note_on_c, 0, 65, 35
5, 137340, Note_off_c, 0, 65, 64
5, 137340, Note_on_c, 0, 63, 30
5, 137400, Note_off_c, 0, 63, 64
5, 137400, Note_on_c, 0, 68, 26
5, 137460, Note_off_c, 0, 68, 64
5, 137460, Note_on_c, 0, 54, 28
5, 137520, Note_off_c, 0, 54, 64
5, 137520, Note_on_c, 0, 65, 28
5, 137580, Note_off_c, 0, 65, 64
5, 137580, Note_on_c, 0, 63, 26
5, 137640, Note_off_c, 0, 63, 64
5, 137640, Note_on_c, 0, 68, 33
5, 137700, Note_off_c, 0, 68, 64
5, 137700, Note_on_c, 0, 54, 30
5, 137760, Note_off_c, 0, 54, 64
5, 137760, Note_on_c, 0, 65, 33
5, 137820, Note_off_c, 0, 65, 64
5, 137820, Note_on_c, 0, 63, 28
5, 137880, Note_off_c, 0, 63, 64
5, 137880, Note_on_c, 0, 68, 30
5, 137940, Note_off_c, 0, 68, 64
5, 137940, Note_on_c, 0, 54, 30
5, 138000, Note_off_c, 0, 54, 64
5, 138000, Note_on_c, 0, 65, 33
5, 138060, Note_off_c, 0, 65, 64
5, 138060, Note_on_c, 0, 63, 33
5, 138120, Note_off_c, 0, 63, 64
5, 138120, Note_on_c, 0, 68, 34
5, 138180, Note_off_c, 0, 68, 64
5, 138180, Note_on_c, 0, 54, 24
5, 138240, Note_off_c, 0, 54, 64
5, 138240, End_track
6, 0, Start_track
6, 0, Text_t, "Left Part 3"
6, 86400, Note_on_c, 0, 49, 37
6, 86480, Note_off_c, 0, 49, 64
6, 86480, Note_on_c, 0, 56, 31
6, 86560, Note_off_c, 0, 56, 64
6, 86560, Note_on_c, 0, 61, 35
6, 86640, Note_off_c, 0, 61, 64
6, 86640, Note_on_c, 0, 64, 24
6, 86720, Note_off_c, 0, 64, 64
6, 86720, Note_on_c, 0, 61, 28
6, 86800, Note_off_c, 0, 61, 64
6, 86800, Note_on_c, 0, 56, 18
6, 86880, Note_off_c, 0, 56, 64
6, 86880, Note_on_c, 0, 52, 53
6, 86960, Note_off_c, 0, 52, 64
6, 86960, Note_on_c, 0, 56, 43
6, 87040, Note_off_c, 0, 56, 64
6, 87040, Note_on_c, 0, 61, 33
6, 87120, Note_off_c, 0, 61, 64
6, 87120, Note_on_c, 0, 64, 31
6, 87200, Note_off_c, 0, 64, 64
6, 87200, Note_on_c, 0, 61, 26
6, 87280, Note_off_c, 0, 61, 64
6, 87280, Note_on_c, 0, 56, 40
6, 87360, Note_off_c, 0, 56, 64
6, 87360, Note_on_c, 0, 49, 35
6, 87440, Note_off_c, 0, 49, 64
6, 87440, Note_on_c, 0, 56, 28
6, 87520, Note_off_c, 0, 56, 64
6, 87520, Note_on_c, 0, 61, 40
6, 87600, Note_off_c, 0, 61, 64
6, 87600, Note_on_c, 0, 64, 26
6, 87680, Note_off_c, 0, 64, 64
6, 87680, Note_on_c, 0, 61, 33
6, 87760, Note_off_c, 0, 61, 64
6, 87760, Note_on_c, 0, 56, 33
6, 87840, Note_off_c, 0, 56, 64
6, 87840, Note_on_c, 0, 52, 44
6, 87920, Note_off_c, 0, 52, 64
6, 87920, Note_on_c, 0, 56, 40
6, 88000, Note_off_c, 0, 56, 64
6, 88000, Note_on_c, 0, 61, 28
6, 88080, Note_off_c, 0, 61, 64
6, 88080, Note_on_c, 0, 64, 27
6, 88160, Note_off_c, 0, 64, 64
6, 88160, Note_on_c, 0, 61, 33
6, 88240, Note_off_c, 0, 61, 64
6, 88240, Note_on_c, 0, 56, 33
6, 88320, Note_off_c, 0, 56, 64
6, 88320, Note_on_c, 0, 51, 44
6, 88400, Note_off_c, 0, 51, 64
6, 88400, Note_on_c, 0, 57, 35
6, 88480, Note_off_c, 0, 57, 64
6, 88480, Note_on_c, 0, 61, 31
6, 88560, Note_off_c, 0, 61, 64
6, 88560, Note_on_c, 0, 66, 35
6, 88640, Note_off_c, 0, 66, 64
6, 88640, Note_on_c, 0, 61, 28
6, 88720, Note_off_c, 0, 61, 64
6, 88720, Note_on_c, 0, 57, 31
6, 88800, Note_off_c, 0, 57, 64
6, 88800, Note_on_c, 0, 54, 46
6, 88880, Note_off_c, 0, 54, 64
6, 88880, Note_on_c, 0, 61, 33
6, 88960, Note_off_c, 0, 61, 64
6, 88960, Note_on_c, 0, 63, 44
6, 89040, Note_off_c, 0, 63, 64
6, 89040, Note_on_c, 0, 69, 41
6, 89120, Note_off_c, 0, 69, 64
6, 89120, Note_on_c, 0, 63, 35
6, 89200, Note_off_c, 0, 63, 64
6, 89200, Note_on_c, 0, 61, 22
6, 89280, Note_off_c, 0, 61, 64
6, 89280, Note_on_c, 0, 44, 46
6, 89360, Note_off_c, 0, 44, 64
6, 89360, Note_on_c, 0, 51, 30
6, 89440, Note_off_c, 0, 51, 64
6, 89440, Note_on_c, 0, 54, 40
6, 89520, Note_off_c, 0, 54, 64
6, 89520, Note_on_c, 0, 60, 31
6, 89600, Note_off_c, 0, 60, 64
6, 89600, Note_on_c, 0, 54, 28
6, 89680, Note_off_c, 0, 54, 64
6, 89680, Note_on_c, 0, 51, 25
6, 89760, Note_off_c, 0, 51, 64
6, 89760, Note_on_c, 0, 44, 50
6, 89840, Note_off_c, 0, 44, 64
6, 89840, Note_on_c, 0, 51, 44
6, 89920, Note_off_c, 0, 51, 64
6, 89920, Note_on_c, 0, 54, 44
6, 90000, Note_off_c, 0, 54, 64
6, 90000, Note_on_c, 0, 60, 31
6, 90080, Note_off_c, 0, 60, 64
6, 90080, Note_on_c, 0, 54, 32
6, 90160, Note_off_c, 0, 54, 64
6, 90160, Note_on_c, 0, 51, 21
6, 90240, Note_off_c, 0, 51, 64
6, 90240, Note_on_c, 0, 49, 63
6, 90320, Note_off_c, 0, 49, 64
6, 90320, Note_on_c, 0, 56, 54
6, 90400, Note_off_c, 0, 56, 64
6, 90400, Note_on_c, 0, 61, 44
6, 90480, Note_off_c, 0, 61, 64
6, 90480, Note_on_c, 0, 64, 34
6, 90560, Note_off_c, 0, 64, 64
6, 90560, Note_on_c, 0, 61, 36
6, 90640, Note_off_c, 0, 61, 64
6, 90640, Note_on_c, 0, 56, 39
6, 90720, Note_off_c, 0, 56, 64
6, 90720, Note_on_c, 0, 52, 59
6, 90800, Note_off_c, 0, 52, 64
6, 90800, Note_on_c, 0, 56, 51
6, 90880, Note_off_c, 0, 56, 64
6, 90880, Note_on_c, 0, 61, 59
6, 90960, Note_off_c, 0, 61, 64
6, 90960, Note_on_c, 0, 64, 40
6, 91040, Note_off_c, 0, 64, 64
6, 91040, Note_on_c, 0, 61, 48
6, 91120, Note_off_c, 0, 61, 64
6, 91120, Note_on_c, 0, 56, 48
6, 91200, Note_off_c, 0, 56, 64
6, 91200, Note_on_c, 0, 49, 55
6, 91280, Note_off_c, 0, 49, 64
6, 91280, Note_on_c, 0, 56, 51
6, 91360, Note_off_c, 0, 56, 64
6, 91360, Note_on_c, 0, 58, 40
6, 91440, Note_off_c, 0, 58, 64
6, 91440, Note_on_c, 0, 64, 31
6, 91520, Note_off_c, 0, 64, 64
6, 91520, Note_on_c, 0, 58, 41
6, 91600, Note_off_c, 0, 58, 64
6, 91600, Note_on_c, 0, 56, 46
6, 91680, Note_off_c, 0, 56, 64
6, 91680, Note_on_c, 0, 52, 55
6, 91760, Note_off_c, 0, 52, 64
6, 91760, Note_on_c, 0, 56, 54
6, 91840, Note_off_c, 0, 56, 64
6, 91840, Note_on_c, 0, 58, 54
6, 91920, Note_off_c, 0, 58, 64
6, 91920, Note_on_c, 0, 61, 47
6, 92000, Note_off_c, 0, 61, 64
6, 92000, Note_on_c, 0, 58, 38
6, 92080, Note_off_c, 0, 58, 64
6, 92080, Note_on_c, 0, 56, 53
6, 92160, Note_off_c, 0, 56, 64
6, 92160, Note_on_c, 0, 51, 56
6, 92240, Note_off_c, 0, 51, 64
6, 92240, Note_on_c, 0, 56, 61
6, 92320, Note_off_c, 0, 56, 64
6, 92320, Note_on_c, 0, 59, 43
6, 92400, Note_off_c, 0, 59, 64
6, 92400, Note_on_c, 0, 63, 54
6, 92480, Note_off_c, 0, 63, 64
6, 92480, Note_on_c, 0, 59, 34
6, 92560, Note_off_c, 0, 59, 64
6, 92560, Note_on_c, 0, 56, 32
6, 92640, Note_off_c, 0, 56, 64
6, 92640, Note_on_c, 0, 51, 64
6, 92720, Note_off_c, 0, 51, 64
6, 92720, Note_on_c, 0, 58, 34
6, 92800, Note_off_c, 0, 58, 64
6, 92800, Note_on_c, 0, 61, 50
6, 92880, Note_off_c, 0, 61, 64
6, 92880, Note_on_c, 0, 67, 60
6, 92960, Note_off_c, 0, 67, 64
6, 92960, Note_on_c, 0, 61, 58
6, 93040, Note_off_c, 0, 61, 64
6, 93040, Note_on_c, 0, 58, 46
6, 93120, Note_off_c, 0, 58, 64
6, 93120, Note_on_c, 0, 44, 58
6, 93200, Note_off_c, 0, 44, 64
6, 93200, Note_on_c, 0, 51, 39
6, 93280, Note_off_c, 0, 51, 64
6, 93280, Note_on_c, 0, 56, 49
6, 93360, Note_off_c, 0, 56, 64
6, 93360, Note_on_c, 0, 59, 38
6, 93440, Note_off_c, 0, 59, 64
6, 93440, Note_on_c, 0, 56, 45
6, 93520, Note_off_c, 0, 56, 64
6, 93520, Note_on_c, 0, 51, 36
6, 93600, Note_off_c, 0, 51, 64
6, 93600, Note_on_c, 0, 44, 45
6, 93680, Note_off_c, 0, 44, 64
6, 93680, Note_on_c, 0, 51, 41
6, 93760, Note_off_c, 0, 51, 64
6, 93760, Note_on_c, 0, 56, 33
6, 93840, Note_off_c, 0, 56, 64
6, 93840, Note_on_c, 0, 59, 30
6, 93920, Note_off_c, 0, 59, 64
6, 93920, Note_on_c, 0, 56, 35
6, 94000, Note_off_c, 0, 56, 64
6, 94000, Note_on_c, 0, 51, 38
6, 94080, Note_off_c, 0, 51, 64
6, 94080, Note_on_c, 0, 45, 59
6, 94160, Note_off_c, 0, 45, 64
6, 94160, Note_on_c, 0, 49, 63
6, 94240, Note_off_c, 0, 49, 64
6, 94240, Note_on_c, 0, 54, 40
6, 94320, Note_off_c, 0, 54, 64
6, 94320, Note_on_c, 0, 57, 39
6, 94400, Note_off_c, 0, 57, 64
6, 94400, Note_on_c, 0, 54, 40
6, 94480, Note_off_c, 0, 54, 64
6, 94480, Note_on_c, 0, 49, 50
6, 94560, Note_off_c, 0, 49, 64
6, 94560, Note_on_c, 0, 45, 64
6, 94640, Note_off_c, 0, 45, 64
6, 94640, Note_on_c, 0, 49, 54
6, 94720, Note_off_c, 0, 49, 64
6, 94720, Note_on_c, 0, 54, 50
6, 94800, Note_off_c, 0, 54, 64
6, 94800, Note_on_c, 0, 57, 36
6, 94880, Note_off_c, 0, 57, 64
6, 94880, Note_on_c, 0, 54, 50
6, 94960, Note_off_c, 0, 54, 64
6, 94960, Note_on_c, 0, 49, 43
6, 95040, Note_off_c, 0, 49, 64
6, 95040, Note_on_c, 0, 47, 64
6, 95120, Note_off_c, 0, 47, 64
6, 95120, Note_on_c, 0, 54, 57
6, 95200, Note_off_c, 0, 54, 64
6, 95200, Note_on_c, 0, 57, 57
6, 95280, Note_off_c, 0, 57, 64
6, 95280, Note_on_c, 0, 59, 58
6, 95360, Note_off_c, 0, 59, 64
6, 95360, Note_on_c, 0, 57, 54
6, 95440, Note_off_c, 0, 57, 64
6, 95440, Note_on_c, 0, 54, 46
6, 95520, Note_off_c, 0, 54, 64
6, 95520, Note_on_c, 0, 40, 71
6, 95600, Note_off_c, 0, 40, 64
6, 95600, Note_on_c, 0, 47, 57
6, 95680, Note_off_c, 0, 47, 64
6, 95680, Note_on_c, 0, 52, 57
6, 95760, Note_off_c, 0, 52, 64
6, 95760, Note_on_c, 0, 56, 50
6, 95840, Note_off_c, 0, 56, 64
6, 95840, Note_on_c, 0, 52, 50
6, 95920, Note_off_c, 0, 52, 64
6, 95920, Note_on_c, 0, 47, 41
6, 96000, Note_off_c, 0, 47, 64
6, 96000, Note_on_c, 0, 45, 54
6, 96080, Note_off_c, 0, 45, 64
6, 96080, Note_on_c, 0, 49, 66
6, 96160, Note_off_c, 0, 49, 64
6, 96160, Note_on_c, 0, 54, 50
6, 96240, Note_off_c, 0, 54, 64
6, 96240, Note_on_c, 0, 57, 44
6, 96320, Note_off_c, 0, 57, 64
6, 96320, Note_on_c, 0, 54, 46
6, 96400, Note_off_c, 0, 54, 64
6, 96400, Note_on_c, 0, 49, 50
6, 96480, Note_off_c, 0, 49, 64
6, 96480, Note_on_c, 0, 45, 54
6, 96560, Note_off_c, 0, 45, 64
6, 96560, Note_on_c, 0, 49, 54
6, 96640, Note_off_c, 0, 49, 64
6, 96640, Note_on_c, 0, 54, 46
6, 96720, Note_off_c, 0, 54, 64
6, 96720, Note_on_c, 0, 57, 50
6, 96800, Note_off_c, 0, 57, 64
6, 96800, Note_on_c, 0, 54, 54
6, 96880, Note_off_c, 0, 54, 64
6, 96880, Note_on_c, 0, 49, 54
6, 96960, Note_off_c, 0, 49, 64
6, 96960, Note_on_c, 0, 47, 44
6, 97040, Note_off_c, 0, 47, 64
6, 97040, Note_on_c, 0, 51, 54
6, 97120, Note_off_c, 0, 51, 64
6, 97120, Note_on_c, 0, 57, 57
6, 97200, Note_off_c, 0, 57, 64
6, 97200, Note_on_c, 0, 59, 58
6, 97280, Note_off_c, 0, 59, 64
6, 97280, Note_on_c, 0, 57, 50
6, 97360, Note_off_c, 0, 57, 64
6, 97360, Note_on_c, 0, 51, 50
6, 97440, Note_off_c, 0, 51, 64
6, 97440, Note_on_c, 0, 40, 67
6, 97520, Note_off_c, 0, 40, 64
6, 97520, Note_on_c, 0, 47, 47
6, 97600, Note_off_c, 0, 47, 64
6, 97600, Note_on_c, 0, 52, 47
6, 97680, Note_off_c, 0, 52, 64
6, 97680, Note_on_c, 0, 56, 50
6, 97760, Note_off_c, 0, 56, 64
6, 97760, Note_on_c, 0, 52, 59
6, 97840, Note_off_c, 0, 52, 64
6, 97840, Note_on_c, 0, 47, 50
6, 97920, Note_off_c, 0, 47, 64
6, 97920, Note_on_c, 0, 45, 41
6, 98000, Note_off_c, 0, 45, 64
6, 98000, Note_on_c, 0, 49, 37
6, 98080, Note_off_c, 0, 49, 64
6, 98080, Note_on_c, 0, 54, 35
6, 98160, Note_off_c, 0, 54, 64
6, 98160, Note_on_c, 0, 57, 23
6, 98240, Note_off_c, 0, 57, 64
6, 98240, Note_on_c, 0, 54, 30
6, 98320, Note_off_c, 0, 54, 64
6, 98320, Note_on_c, 0, 49, 32
6, 98400, Note_off_c, 0, 49, 64
6, 98400, Note_on_c, 0, 45, 32
6, 98480, Note_off_c, 0, 45, 64
6, 98480, Note_on_c, 0, 49, 32
6, 98560, Note_off_c, 0, 49, 64
6, 98560, Note_on_c, 0, 54, 28
6, 98640, Note_off_c, 0, 54, 64
6, 98640, Note_on_c, 0, 57, 23
6, 98720, Note_off_c, 0, 57, 64
6, 98720, Note_on_c, 0, 54, 32
6, 98800, Note_off_c, 0, 54, 64
6, 98800, Note_on_c, 0, 49, 28
6, 98880, Note_off_c, 0, 49, 64
6, 98880, Note_on_c, 0, 47, 44
6, 98960, Note_off_c, 0, 47, 64
6, 98960, Note_on_c, 0, 54, 32
6, 99040, Note_off_c, 0, 54, 64
6, 99040, Note_on_c, 0, 57, 37
6, 99120, Note_off_c, 0, 57, 64
6, 99120, Note_on_c, 0, 59, 43
6, 99200, Note_off_c, 0, 59, 64
6, 99200, Note_on_c, 0, 57, 41
6, 99280, Note_off_c, 0, 57, 64
6, 99280, Note_on_c, 0, 54, 44
6, 99360, Note_off_c, 0, 54, 64
6, 99360, Note_on_c, 0, 40, 40
6, 99440, Note_off_c, 0, 40, 64
6, 99440, Note_on_c, 0, 47, 31
6, 99520, Note_off_c, 0, 47, 64
6, 99520, Note_on_c, 0, 52, 32
6, 99600, Note_off_c, 0, 52, 64
6, 99600, Note_on_c, 0, 56, 38
6, 99680, Note_off_c, 0, 56, 64
6, 99680, Note_on_c, 0, 52, 31
6, 99760, Note_off_c, 0, 52, 64
6, 99760, Note_on_c, 0, 47, 31
6, 99840, Note_off_c, 0, 47, 64
6, 99840, Note_on_c, 0, 45, 50
6, 99920, Note_off_c, 0, 45, 64
6, 99920, Note_on_c, 0, 49, 47
6, 100000, Note_off_c, 0, 49, 64
6, 100000, Note_on_c, 0, 54, 48
6, 100080, Note_off_c, 0, 54, 64
6, 100080, Note_on_c, 0, 57, 43
6, 100160, Note_off_c, 0, 57, 64
6, 100160, Note_on_c, 0, 54, 49
6, 100240, Note_off_c, 0, 54, 64
6, 100240, Note_on_c, 0, 49, 47
6, 100320, Note_off_c, 0, 49, 64
6, 100320, Note_on_c, 0, 45, 57
6, 100400, Note_off_c, 0, 45, 64
6, 100400, Note_on_c, 0, 51, 64
6, 100480, Note_off_c, 0, 51, 64
6, 100480, Note_on_c, 0, 54, 62
6, 100560, Note_off_c, 0, 54, 64
6, 100560, Note_on_c, 0, 57, 57
6, 100640, Note_off_c, 0, 57, 64
6, 100640, Note_on_c, 0, 54, 63
6, 100720, Note_off_c, 0, 54, 64
6, 100720, Note_on_c, 0, 51, 59
6, 100800, Note_off_c, 0, 51, 64
6, 100800, Note_on_c, 0, 44, 55
6, 100880, Note_off_c, 0, 44, 64
6, 100880, Note_on_c, 0, 51, 55
6, 100960, Note_off_c, 0, 51, 64
6, 100960, Note_on_c, 0, 54, 57
6, 101040, Note_off_c, 0, 54, 64
6, 101040, Note_on_c, 0, 60, 49
6, 101120, Note_off_c, 0, 60, 64
6, 101120, Note_on_c, 0, 54, 45
6, 101200, Note_off_c, 0, 54, 64
6, 101200, Note_on_c, 0, 51, 38
6, 101280, Note_off_c, 0, 51, 64
6, 101280, Note_on_c, 0, 44, 55
6, 101360, Note_off_c, 0, 44, 64
6, 101360, Note_on_c, 0, 51, 47
6, 101440, Note_off_c, 0, 51, 64
6, 101440, Note_on_c, 0, 54, 44
6, 101520, Note_off_c, 0, 54, 64
6, 101520, Note_on_c, 0, 60, 40
6, 101600, Note_off_c, 0, 60, 64
6, 101600, Note_on_c, 0, 54, 43
6, 101680, Note_off_c, 0, 54, 64
6, 101680, Note_on_c, 0, 51, 42
6, 101760, Note_off_c, 0, 51, 64
6, 101760, Note_on_c, 0, 45, 53
6, 101840, Note_off_c, 0, 45, 64
6, 101840, Note_on_c, 0, 51, 39
6, 101920, Note_off_c, 0, 51, 64
6, 101920, Note_on_c, 0, 54, 41
6, 102000, Note_off_c, 0, 54, 64
6, 102000, Note_on_c, 0, 59, 42
6, 102080, Note_off_c, 0, 59, 64
6, 102080, Note_on_c, 0, 54, 38
6, 102160, Note_off_c, 0, 54, 64
6, 102160, Note_on_c, 0, 51, 30
6, 102240, Note_off_c, 0, 51, 64
6, 102240, Note_on_c, 0, 46, 50
6, 102320, Note_off_c, 0, 46, 64
6, 102320, Note_on_c, 0, 51, 42
6, 102400, Note_off_c, 0, 51, 64
6, 102400, Note_on_c, 0, 54, 39
6, 102480, Note_off_c, 0, 54, 64
6, 102480, Note_on_c, 0, 58, 39
6, 102560, Note_off_c, 0, 58, 64
6, 102560, Note_on_c, 0, 54, 32
6, 102640, Note_off_c, 0, 54, 64
6, 102640, Note_on_c, 0, 51, 28
6, 102720, Note_off_c, 0, 51, 64
6, 102720, Note_on_c, 0, 48, 44
6, 102800, Note_off_c, 0, 48, 64
6, 102800, Note_on_c, 0, 51, 44
6, 102880, Note_off_c, 0, 51, 64
6, 102880, Note_on_c, 0, 54, 37
6, 102960, Note_off_c, 0, 54, 64
6, 102960, Note_on_c, 0, 57, 31
6, 103040, Note_off_c, 0, 57, 64
6, 103040, Note_on_c, 0, 54, 33
6, 103120, Note_off_c, 0, 54, 64
6, 103120, Note_on_c, 0, 51, 30
6, 103200, Note_off_c, 0, 51, 64
6, 103200, Note_on_c, 0, 48, 37
6, 103280, Note_off_c, 0, 48, 64
6, 103280, Note_on_c, 0, 51, 35
6, 103360, Note_off_c, 0, 51, 64
6, 103360, Note_on_c, 0, 54, 37
6, 103440, Note_off_c, 0, 54, 64
6, 103440, Note_on_c, 0, 57, 32
6, 103520, Note_off_c, 0, 57, 64
6, 103520, Note_on_c, 0, 54, 31
6, 103600, Note_off_c, 0, 54, 64
6, 103600, Note_on_c, 0, 51, 31
6, 103680, Note_off_c, 0, 51, 64
6, 103680, Note_on_c, 0, 45, 32
6, 103760, Note_off_c, 0, 45, 64
6, 103760, Note_on_c, 0, 51, 40
6, 103840, Note_off_c, 0, 51, 64
6, 103840, Note_on_c, 0, 54, 30
6, 103920, Note_off_c, 0, 54, 64
6, 103920, Note_on_c, 0, 59, 23
6, 104000, Note_off_c, 0, 59, 64
6, 104000, Note_on_c, 0, 54, 28
6, 104080, Note_off_c, 0, 54, 64
6, 104080, Note_on_c, 0, 51, 28
6, 104160, Note_off_c, 0, 51, 64
6, 104160, Note_on_c, 0, 46, 38
6, 104240, Note_off_c, 0, 46, 64
6, 104240, Note_on_c, 0, 51, 35
6, 104320, Note_off_c, 0, 51, 64
6, 104320, Note_on_c, 0, 54, 37
6, 104400, Note_off_c, 0, 54, 64
6, 104400, Note_on_c, 0, 58, 35
6, 104480, Note_off_c, 0, 58, 64
6, 104480, Note_on_c, 0, 54, 35
6, 104560, Note_off_c, 0, 54, 64
6, 104560, Note_on_c, 0, 51, 16
6, 104640, Note_off_c, 0, 51, 64
6, 104640, Note_on_c, 0, 47, 35
6, 104720, Note_off_c, 0, 47, 64
6, 104720, Note_on_c, 0, 51, 35
6, 104800, Note_off_c, 0, 51, 64
6, 104800, Note_on_c, 0, 54, 35
6, 104880, Note_off_c, 0, 54, 64
6, 104880, Note_on_c, 0, 57, 32
6, 104960, Note_off_c, 0, 57, 64
6, 104960, Note_on_c, 0, 54, 37
6, 105040, Note_off_c, 0, 54, 64
6, 105040, Note_on_c, 0, 51, 30
6, 105120, Note_off_c, 0, 51, 64
6, 105120, Note_on_c, 0, 48, 28
6, 105200, Note_off_c, 0, 48, 64
6, 105200, Note_on_c, 0, 51, 40
6, 105280, Note_off_c, 0, 51, 64
6, 105280, Note_on_c, 0, 54, 40
6, 105360, Note_off_c, 0, 54, 64
6, 105360, Note_on_c, 0, 56, 31
6, 105440, Note_off_c, 0, 56, 64
6, 105440, Note_on_c, 0, 54, 32
6, 105520, Note_off_c, 0, 54, 64
6, 105520, Note_on_c, 0, 51, 21
6, 105600, Note_off_c, 0, 51, 64
6, 105600, Note_on_c, 0, 49, 47
6, 105680, Note_off_c, 0, 49, 64
6, 105680, Note_on_c, 0, 56, 31
6, 105760, Note_off_c, 0, 56, 64
6, 105760, Note_on_c, 0, 61, 16
6, 105840, Note_off_c, 0, 61, 64
6, 105840, Note_on_c, 0, 64, 34
6, 105920, Note_off_c, 0, 64, 64
6, 105920, Note_on_c, 0, 61, 42
6, 106000, Note_off_c, 0, 61, 64
6, 106000, Note_on_c, 0, 56, 36
6, 106080, Note_off_c, 0, 56, 64
6, 106080, Note_on_c, 0, 52, 56
6, 106160, Note_off_c, 0, 52, 64
6, 106160, Note_on_c, 0, 56, 51
6, 106240, Note_off_c, 0, 56, 64
6, 106240, Note_on_c, 0, 61, 51
6, 106320, Note_off_c, 0, 61, 64
6, 106320, Note_on_c, 0, 64, 37
6, 106400, Note_off_c, 0, 64, 64
6, 106400, Note_on_c, 0, 61, 44
6, 106480, Note_off_c, 0, 61, 64
6, 106480, Note_on_c, 0, 56, 39
6, 106560, Note_off_c, 0, 56, 64
6, 106560, Note_on_c, 0, 49, 58
6, 106640, Note_off_c, 0, 49, 64
6, 106640, Note_on_c, 0, 56, 44
6, 106720, Note_off_c, 0, 56, 64
6, 106720, Note_on_c, 0, 61, 33
6, 106800, Note_off_c, 0, 61, 64
6, 106800, Note_on_c, 0, 64, 44
6, 106880, Note_off_c, 0, 64, 64
6, 106880, Note_on_c, 0, 61, 48
6, 106960, Note_off_c, 0, 61, 64
6, 106960, Note_on_c, 0, 56, 48
6, 107040, Note_off_c, 0, 56, 64
6, 107040, Note_on_c, 0, 52, 62
6, 107120, Note_off_c, 0, 52, 64
6, 107120, Note_on_c, 0, 56, 48
6, 107200, Note_off_c, 0, 56, 64
6, 107200, Note_on_c, 0, 61, 36
6, 107280, Note_off_c, 0, 61, 64
6, 107280, Note_on_c, 0, 64, 37
6, 107360, Note_off_c, 0, 64, 64
6, 107360, Note_on_c, 0, 61, 48
6, 107440, Note_off_c, 0, 61, 64
6, 107440, Note_on_c, 0, 56, 48
6, 107520, Note_off_c, 0, 56, 64
6, 107520, Note_on_c, 0, 51, 63
6, 107600, Note_off_c, 0, 51, 64
6, 107600, Note_on_c, 0, 57, 56
6, 107680, Note_off_c, 0, 57, 64
6, 107680, Note_on_c, 0, 61, 59
6, 107760, Note_off_c, 0, 61, 64
6, 107760, Note_on_c, 0, 66, 50
6, 107840, Note_off_c, 0, 66, 64
6, 107840, Note_on_c, 0, 61, 51
6, 107920, Note_off_c, 0, 61, 64
6, 107920, Note_on_c, 0, 57, 32
6, 108000, Note_off_c, 0, 57, 64
6, 108000, Note_on_c, 0, 54, 58
6, 108080, Note_off_c, 0, 54, 64
6, 108080, Note_on_c, 0, 61, 39
6, 108160, Note_off_c, 0, 61, 64
6, 108160, Note_on_c, 0, 63, 50
6, 108240, Note_off_c, 0, 63, 64
6, 108240, Note_on_c, 0, 69, 62
6, 108320, Note_off_c, 0, 69, 64
6, 108320, Note_on_c, 0, 63, 50
6, 108400, Note_off_c, 0, 63, 64
6, 108400, Note_on_c, 0, 61, 44
6, 108480, Note_off_c, 0, 61, 64
6, 108480, Note_on_c, 0, 44, 63
6, 108560, Note_off_c, 0, 44, 64
6, 108560, Note_on_c, 0, 51, 50
6, 108640, Note_off_c, 0, 51, 64
6, 108640, Note_on_c, 0, 54, 44
6, 108720, Note_off_c, 0, 54, 64
6, 108720, Note_on_c, 0, 60, 41
6, 108800, Note_off_c, 0, 60, 64
6, 108800, Note_on_c, 0, 54, 40
6, 108880, Note_off_c, 0, 54, 64
6, 108880, Note_on_c, 0, 51, 58
6, 108960, Note_off_c, 0, 51, 64
6, 108960, Note_on_c, 0, 44, 50
6, 109040, Note_off_c, 0, 44, 64
6, 109040, Note_on_c, 0, 51, 44
6, 109120, Note_off_c, 0, 51, 64
6, 109120, Note_on_c, 0, 54, 55
6, 109200, Note_off_c, 0, 54, 64
6, 109200, Note_on_c, 0, 60, 52
6, 109280, Note_off_c, 0, 60, 64
6, 109280, Note_on_c, 0, 54, 47
6, 109360, Note_off_c, 0, 54, 64
6, 109360, Note_on_c, 0, 51, 44
6, 109440, Note_off_c, 0, 51, 64
6, 109440, Note_on_c, 0, 49, 50
6, 109520, Note_off_c, 0, 49, 64
6, 109520, Note_on_c, 0, 56, 28
6, 109600, Note_off_c, 0, 56, 64
6, 109600, Note_on_c, 0, 61, 40
6, 109680, Note_off_c, 0, 61, 64
6, 109680, Note_on_c, 0, 64, 37
6, 109760, Note_off_c, 0, 64, 64
6, 109760, Note_on_c, 0, 61, 31
6, 109840, Note_off_c, 0, 61, 64
6, 109840, Note_on_c, 0, 56, 38
6, 109920, Note_off_c, 0, 56, 64
6, 109920, Note_on_c, 0, 52, 47
6, 110000, Note_off_c, 0, 52, 64
6, 110000, Note_on_c, 0, 56, 47
6, 110080, Note_off_c, 0, 56, 64
6, 110080, Note_on_c, 0, 61, 39
6, 110160, Note_off_c, 0, 61, 64
6, 110160, Note_on_c, 0, 64, 33
6, 110240, Note_off_c, 0, 64, 64
6, 110240, Note_on_c, 0, 61, 39
6, 110320, Note_off_c, 0, 61, 64
6, 110320, Note_on_c, 0, 56, 42
6, 110400, Note_off_c, 0, 56, 64
6, 110400, Note_on_c, 0, 54, 57
6, 110480, Note_off_c, 0, 54, 64
6, 110480, Note_on_c, 0, 61, 50
6, 110560, Note_off_c, 0, 61, 64
6, 110560, Note_on_c, 0, 63, 47
6, 110640, Note_off_c, 0, 63, 64
6, 110640, Note_on_c, 0, 69, 50
6, 110720, Note_off_c, 0, 69, 64
6, 110720, Note_on_c, 0, 63, 38
6, 110800, Note_off_c, 0, 63, 64
6, 110800, Note_on_c, 0, 61, 28
6, 110880, Note_off_c, 0, 61, 64
6, 110880, Note_on_c, 0, 56, 54
6, 110960, Note_off_c, 0, 56, 64
6, 110960, Note_on_c, 0, 61, 38
6, 111040, Note_off_c, 0, 61, 64
6, 111040, Note_on_c, 0, 65, 40
6, 111120, Note_off_c, 0, 65, 64
6, 111120, Note_on_c, 0, 71, 45
6, 111200, Note_off_c, 0, 71, 64
6, 111200, Note_on_c, 0, 65, 45
6, 111280, Note_off_c, 0, 65, 64
6, 111280, Note_on_c, 0, 61, 31
6, 111360, Note_off_c, 0, 61, 64
6, 111360, Note_on_c, 0, 57, 54
6, 111440, Note_off_c, 0, 57, 64
6, 111440, Note_on_c, 0, 61, 49
6, 111520, Note_off_c, 0, 61, 64
6, 111520, Note_on_c, 0, 66, 53
6, 111600, Note_off_c, 0, 66, 64
6, 111600, Note_on_c, 0, 69, 55
6, 111680, Note_off_c, 0, 69, 64
6, 111680, Note_on_c, 0, 66, 54
6, 111760, Note_off_c, 0, 66, 64
6, 111760, Note_on_c, 0, 61, 47
6, 111840, Note_off_c, 0, 61, 64
6, 111840, Note_on_c, 0, 56, 58
6, 111920, Note_off_c, 0, 56, 64
6, 111920, Note_on_c, 0, 61, 51
6, 112000, Note_off_c, 0, 61, 64
6, 112000, Note_on_c, 0, 65, 52
6, 112080, Note_off_c, 0, 65, 64
6, 112080, Note_on_c, 0, 71, 50
6, 112160, Note_off_c, 0, 71, 64
6, 112160, Note_on_c, 0, 65, 59
6, 112240, Note_off_c, 0, 65, 64
6, 112240, Note_on_c, 0, 61, 42
6, 112320, Note_off_c, 0, 61, 64
6, 112320, Note_on_c, 0, 57, 59
6, 112400, Note_off_c, 0, 57, 64
6, 112400, Note_on_c, 0, 61, 47
6, 112480, Note_off_c, 0, 61, 64
6, 112480, Note_on_c, 0, 66, 44
6, 112560, Note_off_c, 0, 66, 64
6, 112560, Note_on_c, 0, 69, 50
6, 112640, Note_off_c, 0, 69, 64
6, 112640, Note_on_c, 0, 66, 51
6, 112720, Note_off_c, 0, 66, 64
6, 112720, Note_on_c, 0, 61, 44
6, 112800, Note_off_c, 0, 61, 64
6, 112800, Note_on_c, 0, 48, 63
6, 112880, Note_off_c, 0, 48, 64
6, 112880, Note_on_c, 0, 54, 56
6, 112960, Note_off_c, 0, 54, 64
6, 112960, Note_on_c, 0, 56, 63
6, 113040, Note_off_c, 0, 56, 64
6, 113040, Note_on_c, 0, 63, 48
6, 113120, Note_off_c, 0, 63, 64
6, 113120, Note_on_c, 0, 56, 50
6, 113200, Note_off_c, 0, 56, 64
6, 113200, Note_on_c, 0, 54, 39
6, 113280, Note_off_c, 0, 54, 64
6, 113280, Note_on_c, 0, 49, 62
6, 113360, Note_off_c, 0, 49, 64
6, 113360, Note_on_c, 0, 56, 57
6, 113440, Note_off_c, 0, 56, 64
6, 113440, Note_on_c, 0, 61, 57
6, 113520, Note_off_c, 0, 61, 64
6, 113520, Note_on_c, 0, 64, 53
6, 113600, Note_off_c, 0, 64, 64
6, 113600, Note_on_c, 0, 61, 63
6, 113680, Note_off_c, 0, 61, 64
6, 113680, Note_on_c, 0, 56, 54
6, 113760, Note_off_c, 0, 56, 64
6, 113760, Note_on_c, 0, 51, 74
6, 113840, Note_off_c, 0, 51, 64
6, 113840, Note_on_c, 0, 56, 67
6, 113920, Note_off_c, 0, 56, 64
6, 113920, Note_on_c, 0, 60, 57
6, 114000, Note_off_c, 0, 60, 64
6, 114000, Note_on_c, 0, 66, 64
6, 114080, Note_off_c, 0, 66, 64
6, 114080, Note_on_c, 0, 60, 58
6, 114160, Note_off_c, 0, 60, 64
6, 114160, Note_on_c, 0, 56, 56
6, 114240, Note_off_c, 0, 56, 64
6, 114240, Note_on_c, 0, 52, 76
6, 114320, Note_off_c, 0, 52, 64
6, 114320, Note_on_c, 0, 56, 67
6, 114400, Note_off_c, 0, 56, 64
6, 114400, Note_on_c, 0, 61, 62
6, 114480, Note_off_c, 0, 61, 64
6, 114480, Note_on_c, 0, 64, 57
6, 114560, Note_off_c, 0, 64, 64
6, 114560, Note_on_c, 0, 61, 58
6, 114640, Note_off_c, 0, 61, 64
6, 114640, Note_on_c, 0, 56, 59
6, 114720, Note_off_c, 0, 56, 64
6, 114720, Note_on_c, 0, 54, 64
6, 114800, Note_off_c, 0, 54, 64
6, 114800, Note_on_c, 0, 61, 59
6, 114880, Note_off_c, 0, 61, 64
6, 114880, Note_on_c, 0, 63, 66
6, 114960, Note_off_c, 0, 63, 64
6, 114960, Note_on_c, 0, 69, 66
6, 115040, Note_off_c, 0, 69, 64
6, 115040, Note_on_c, 0, 63, 53
6, 115120, Note_off_c, 0, 63, 64
6, 115120, Note_on_c, 0, 61, 49
6, 115200, Note_off_c, 0, 61, 64
6, 115200, Note_on_c, 0, 56, 72
6, 115200, Note_on_c, 0, 68, 68
6, 115200, Note_on_c, 0, 64, 58
6, 115200, Note_on_c, 0, 61, 51
6, 115260, Note_off_c, 0, 61, 64
6, 115260, Note_off_c, 0, 64, 64
6, 115260, Note_off_c, 0, 68, 64
6, 115260, Note_off_c, 0, 56, 64
6, 115680, Note_on_c, 0, 69, 83
6, 115680, Note_on_c, 0, 55, 87
6, 115680, Note_on_c, 0, 61, 73
6, 115680, Note_on_c, 0, 64, 75
6, 115920, Note_off_c, 0, 64, 64
6, 115920, Note_off_c, 0, 61, 64
6, 115920, Note_off_c, 0, 55, 64
6, 115920, Note_off_c, 0, 69, 64
6, 117120, Note_on_c, 0, 44, 82
6, 117120, Note_on_c, 0, 32, 78
6, 117240, Note_off_c, 0, 32, 64
6, 117240, Note_off_c, 0, 44, 64
6, 117360, Note_on_c, 0, 64, 86
6, 117360, Note_on_c, 0, 76, 92
6, 117600, Note_off_c, 0, 76, 64
6, 117600, Note_off_c, 0, 64, 64
6, 117600, Note_on_c, 0, 73, 98
6, 117600, Note_on_c, 0, 61, 96
6, 117840, Note_off_c, 0, 61, 64
6, 117840, Note_off_c, 0, 73, 64
6, 117840, Note_on_c, 0, 68, 98
6, 117840, Note_on_c, 0, 56, 96
6, 118080, Note_off_c, 0, 56, 64
6, 118080, Note_off_c, 0, 68, 64
6, 118080, Note_on_c, 0, 52, 86
6, 118080, Note_on_c, 0, 64, 86
6, 118320, Note_off_c, 0, 64, 64
6, 118320, Note_off_c, 0, 52, 64
6, 118320, Note_on_c, 0, 61, 96
6, 118320, Note_on_c, 0, 49, 92
6, 118560, Note_off_c, 0, 49, 64
6, 118560, Note_off_c, 0, 61, 64
6, 118560, Note_on_c, 0, 44, 98
6, 118560, Note_on_c, 0, 56, 103
6, 118800, Note_off_c, 0, 56, 64
6, 118800, Note_off_c, 0, 44, 64
6, 118800, Note_on_c, 0, 40, 92
6, 118800, Note_on_c, 0, 52, 92
6, 119040, Note_off_c, 0, 52, 64
6, 119040, Note_off_c, 0, 40, 64
6, 119040, Note_on_c, 0, 49, 85
6, 119040, Note_on_c, 0, 37, 92
6, 119280, Note_off_c, 0, 37, 64
6, 119280, Note_off_c, 0, 49, 64
6, 119280, Note_on_c, 0, 44, 96
6, 119280, Note_on_c, 0, 32, 85
6, 119520, Note_off_c, 0, 32, 64
6, 119520, Note_off_c, 0, 44, 64
6, 119520, Note_on_c, 0, 44, 82
6, 119520, Note_on_c, 0, 32, 85
6, 119760, Note_off_c, 0, 32, 64
6, 119760, Note_off_c, 0, 44, 64
6, 119760, Note_on_c, 0, 45, 86
6, 119760, Note_on_c, 0, 33, 71
6, 120000, Note_off_c, 0, 33, 64
6, 120000, Note_off_c, 0, 45, 64
6, 120000, Note_on_c, 0, 44, 89
6, 120000, Note_on_c, 0, 32, 85
6, 120240, Note_off_c, 0, 32, 64
6, 120240, Note_off_c, 0, 44, 64
6, 120240, Note_on_c, 0, 43, 92
6, 120240, Note_on_c, 0, 31, 86
6, 120480, Note_off_c, 0, 31, 64
6, 120480, Note_off_c, 0, 43, 64
6, 120480, Note_on_c, 0, 44, 96
6, 120480, Note_on_c, 0, 32, 85
6, 120960, Note_off_c, 0, 32, 64
6, 120960, Note_off_c, 0, 44, 64
6, 120960, Note_on_c, 0, 37, 58
6, 121080, Note_off_c, 0, 37, 64
6, 121080, Note_on_c, 0, 52, 44
6, 121200, Note_off_c, 0, 52, 64
6, 121200, Note_on_c, 0, 49, 50
6, 121320, Note_off_c, 0, 49, 64
6, 121320, Note_on_c, 0, 44, 47
6, 121440, Note_off_c, 0, 44, 64
6, 121440, Note_on_c, 0, 37, 58
6, 121560, Note_off_c, 0, 37, 64
6, 121560, Note_on_c, 0, 54, 44
6, 121680, Note_off_c, 0, 54, 64
6, 121680, Note_on_c, 0, 48, 44
6, 121800, Note_off_c, 0, 48, 64
6, 121800, Note_on_c, 0, 44, 40
6, 121920, Note_off_c, 0, 44, 64
6, 121920, Note_on_c, 0, 37, 58
6, 122040, Note_off_c, 0, 37, 64
6, 122040, Note_on_c, 0, 52, 52
6, 122160, Note_off_c, 0, 52, 64
6, 122160, Note_on_c, 0, 49, 55
6, 122280, Note_off_c, 0, 49, 64
6, 122280, Note_on_c, 0, 44, 47
6, 122400, Note_off_c, 0, 44, 64
6, 122400, Note_on_c, 0, 37, 54
6, 122520, Note_off_c, 0, 37, 64
6, 122520, Note_on_c, 0, 54, 32
6, 122640, Note_off_c, 0, 54, 64
6, 122640, Note_on_c, 0, 48, 28
6, 122760, Note_off_c, 0, 48, 64
6, 122760, Note_on_c, 0, 44, 40
6, 122880, Note_off_c, 0, 44, 64
6, 122880, Note_on_c, 0, 37, 58
6, 123000, Note_off_c, 0, 37, 64
6, 123000, Note_on_c, 0, 52, 59
6, 123120, Note_off_c, 0, 52, 64
6, 123120, Note_on_c, 0, 49, 63
6, 123240, Note_off_c, 0, 49, 64
6, 123240, Note_on_c, 0, 44, 55
6, 123360, Note_off_c, 0, 44, 64
6, 123360, Note_on_c, 0, 37, 63
6, 123480, Note_off_c, 0, 37, 64
6, 123480, Note_on_c, 0, 54, 50
6, 123600, Note_off_c, 0, 54, 64
6, 123600, Note_on_c, 0, 48, 44
6, 123720, Note_off_c, 0, 48, 64
6, 123720, Note_on_c, 0, 44, 55
6, 123840, Note_off_c, 0, 44, 64
6, 123840, Note_on_c, 0, 37, 58
6, 123960, Note_off_c, 0, 37, 64
6, 123960, Note_on_c, 0, 52, 56
6, 124080, Note_off_c, 0, 52, 64
6, 124080, Note_on_c, 0, 49, 55
6, 124200, Note_off_c, 0, 49, 64
6, 124200, Note_on_c, 0, 44, 58
6, 124320, Note_off_c, 0, 44, 64
6, 124320, Note_on_c, 0, 37, 54
6, 124440, Note_off_c, 0, 37, 64
6, 124440, Note_on_c, 0, 54, 54
6, 124560, Note_off_c, 0, 54, 64
6, 124560, Note_on_c, 0, 48, 44
6, 124680, Note_off_c, 0, 48, 64
6, 124680, Note_on_c, 0, 44, 35
6, 124800, Note_off_c, 0, 44, 64
6, 124800, Note_on_c, 0, 37, 74
6, 124920, Note_off_c, 0, 37, 64
6, 124920, Note_on_c, 0, 52, 62
6, 125040, Note_off_c, 0, 52, 64
6, 125040, Note_on_c, 0, 49, 63
6, 125160, Note_off_c, 0, 49, 64
6, 125160, Note_on_c, 0, 44, 50
6, 125280, Note_off_c, 0, 44, 64
6, 125280, Note_on_c, 0, 37, 68
6, 125400, Note_off_c, 0, 37, 64
6, 125400, Note_on_c, 0, 56, 62
6, 125520, Note_off_c, 0, 56, 64
6, 125520, Note_on_c, 0, 49, 58
6, 125640, Note_off_c, 0, 49, 64
6, 125640, Note_on_c, 0, 44, 50
6, 125760, Note_off_c, 0, 44, 64
6, 125760, Note_on_c, 0, 37, 68
6, 125880, Note_off_c, 0, 37, 64
6, 125880, Note_on_c, 0, 52, 44
6, 126000, Note_off_c, 0, 52, 64
6, 126000, Note_on_c, 0, 49, 50
6, 126120, Note_off_c, 0, 49, 64
6, 126120, Note_on_c, 0, 44, 50
6, 126240, Note_off_c, 0, 44, 64
6, 126240, Note_on_c, 0, 37, 63
6, 126360, Note_off_c, 0, 37, 64
6, 126360, Note_on_c, 0, 56, 59
6, 126480, Note_off_c, 0, 56, 64
6, 126480, Note_on_c, 0, 49, 40
6, 126600, Note_off_c, 0, 49, 64
6, 126600, Note_on_c, 0, 44, 40
6, 126720, Note_off_c, 0, 44, 64
6, 126720, Note_on_c, 0, 37, 63
6, 126840, Note_off_c, 0, 37, 64
6, 126840, Note_on_c, 0, 52, 47
6, 126960, Note_off_c, 0, 52, 64
6, 126960, Note_on_c, 0, 49, 41
6, 127080, Note_off_c, 0, 49, 64
6, 127080, Note_on_c, 0, 44, 41
6, 127200, Note_off_c, 0, 44, 64
6, 127200, Note_on_c, 0, 37, 49
6, 127320, Note_off_c, 0, 37, 64
6, 127320, Note_on_c, 0, 52, 38
6, 127440, Note_off_c, 0, 52, 64
6, 127440, Note_on_c, 0, 49, 39
6, 127560, Note_off_c, 0, 49, 64
6, 127560, Note_on_c, 0, 44, 38
6, 127680, Note_off_c, 0, 44, 64
6, 127680, Note_on_c, 0, 37, 41
6, 127800, Note_off_c, 0, 37, 64
6, 127800, Note_on_c, 0, 52, 30
6, 127920, Note_off_c, 0, 52, 64
6, 127920, Note_on_c, 0, 49, 31
6, 128040, Note_off_c, 0, 49, 64
6, 128040, Note_on_c, 0, 44, 29
6, 128160, Note_off_c, 0, 44, 64
6, 128160, Note_on_c, 0, 37, 33
6, 128280, Note_off_c, 0, 37, 64
6, 128280, Note_on_c, 0, 52, 26
6, 128400, Note_off_c, 0, 52, 64
6, 128400, Note_on_c, 0, 49, 32
6, 128520, Note_off_c, 0, 49, 64
6, 128520, Note_on_c, 0, 44, 29
6, 128640, Note_off_c, 0, 44, 64
6, 128640, Note_on_c, 0, 37, 54
6, 128880, Note_off_c, 0, 37, 64
6, 128880, End_track
7, 0, Start_track
7, 0, Text_t, "Pedal"
7, 84614, Control_c, 0, 64, 64
7, 84720, Control_c, 0, 64, 96
7, 84846, Control_c, 0, 64, 127
7, 86129, Control_c, 0, 64, 96
7, 86138, Control_c, 0, 64, 64
7, 86153, Control_c, 0, 64, 0
7, 86275, Control_c, 0, 64, 64
7, 86289, Control_c, 0, 64, 96
7, 86320, Control_c, 0, 64, 127
7, 86860, Control_c, 0, 64, 96
7, 86874, Control_c, 0, 64, 64
7, 86888, Control_c, 0, 64, 0
7, 86991, Control_c, 0, 64, 64
7, 87004, Control_c, 0, 64, 96
7, 87024, Control_c, 0, 64, 127
7, 87322, Control_c, 0, 64, 96
7, 87354, Control_c, 0, 64, 64
7, 87384, Control_c, 0, 64, 0
7, 87487, Control_c, 0, 64, 64
7, 87506, Control_c, 0, 64, 96
7, 87521, Control_c, 0, 64, 127
7, 87839, Control_c, 0, 64, 96
7, 87874, Control_c, 0, 64, 64
7, 87888, Control_c, 0, 64, 0
7, 88419, Control_c, 0, 64, 64
7, 88433, Control_c, 0, 64, 96
7, 88447, Control_c, 0, 64, 127
7, 89422, Control_c, 0, 64, 96
7, 89436, Control_c, 0, 64, 64
7, 89452, Control_c, 0, 64, 0
7, 89512, Control_c, 0, 64, 64
7, 89527, Control_c, 0, 64, 96
7, 89550, Control_c, 0, 64, 127
7, 90240, Control_c, 0, 64, 96
7, 90265, Control_c, 0, 64, 64
7, 90280, Control_c, 0, 64, 0
7, 90345, Control_c, 0, 64, 64
7, 90360, Control_c, 0, 64, 96
7, 90380, Control_c, 0, 64, 127
7, 90709, Control_c, 0, 64, 96
7, 90722, Control_c, 0, 64, 64
7, 90746, Control_c, 0, 64, 0
7, 91297, Control_c, 0, 64, 64
7, 91310, Control_c, 0, 64, 96
7, 91325, Control_c, 0, 64, 127
7, 91769, Control_c, 0, 64, 96
7, 91787, Control_c, 0, 64, 64
7, 91800, Control_c, 0, 64, 0
7, 92203, Control_c, 0, 64, 64
7, 92219, Control_c, 0, 64, 96
7, 92239, Control_c, 0, 64, 127
7, 92661, Control_c, 0, 64, 96
7, 92677, Control_c, 0, 64, 0
7, 92729, Control_c, 0, 64, 64
7, 92748, Control_c, 0, 64, 96
7, 92761, Control_c, 0, 64, 127
7, 93093, Control_c, 0, 64, 96
7, 93107, Control_c, 0, 64, 64
7, 93121, Control_c, 0, 64, 0
7, 93159, Control_c, 0, 64, 64
7, 93172, Control_c, 0, 64, 96
7, 93187, Control_c, 0, 64, 127
7, 93569, Control_c, 0, 64, 96
7, 93583, Control_c, 0, 64, 64
7, 93597, Control_c, 0, 64, 0
7, 93630, Control_c, 0, 64, 64
7, 93644, Control_c, 0, 64, 96
7, 93659, Control_c, 0, 64, 127
7, 94011, Control_c, 0, 64, 96
7, 94030, Control_c, 0, 64, 0
7, 94133, Control_c, 0, 64, 64
7, 94147, Control_c, 0, 64, 127
7, 94520, Control_c, 0, 64, 96
7, 94534, Control_c, 0, 64, 0
7, 94590, Control_c, 0, 64, 64
7, 94606, Control_c, 0, 64, 127
7, 94961, Control_c, 0, 64, 96
7, 94981, Control_c, 0, 64, 0
7, 95038, Control_c, 0, 64, 64
7, 95061, Control_c, 0, 64, 127
7, 95986, Control_c, 0, 64, 96
7, 96000, Control_c, 0, 64, 64
7, 96023, Control_c, 0, 64, 0
7, 96067, Control_c, 0, 64, 64
7, 96086, Control_c, 0, 64, 127
7, 96457, Control_c, 0, 64, 96
7, 96471, Control_c, 0, 64, 0
7, 96513, Control_c, 0, 64, 64
7, 96527, Control_c, 0, 64, 127
7, 96879, Control_c, 0, 64, 96
7, 96898, Control_c, 0, 64, 64
7, 96917, Control_c, 0, 64, 0
7, 96954, Control_c, 0, 64, 64
7, 96970, Control_c, 0, 64, 127
7, 97388, Control_c, 0, 64, 96
7, 97408, Control_c, 0, 64, 0
7, 97474, Control_c, 0, 64, 64
7, 97489, Control_c, 0, 64, 127
7, 97864, Control_c, 0, 64, 64
7, 97884, Control_c, 0, 64, 0
7, 97927, Control_c, 0, 64, 64
7, 97952, Control_c, 0, 64, 127
7, 98313, Control_c, 0, 64, 96
7, 98327, Control_c, 0, 64, 64
7, 98346, Control_c, 0, 64, 0
7, 98368, Control_c, 0, 64, 64
7, 98384, Control_c, 0, 64, 127
7, 98802, Control_c, 0, 64, 96
7, 98820, Control_c, 0, 64, 0
7, 98859, Control_c, 0, 64, 64
7, 98872, Control_c, 0, 64, 127
7, 99302, Control_c, 0, 64, 64
7, 99321, Control_c, 0, 64, 0
7, 99382, Control_c, 0, 64, 64
7, 99397, Control_c, 0, 64, 127
7, 99719, Control_c, 0, 64, 96
7, 99738, Control_c, 0, 64, 64
7, 99754, Control_c, 0, 64, 0
7, 99818, Control_c, 0, 64, 64
7, 99833, Control_c, 0, 64, 127
7, 99992, Control_c, 0, 64, 96
7, 100006, Control_c, 0, 64, 64
7, 100039, Control_c, 0, 64, 0
7, 100073, Control_c, 0, 64, 64
7, 100088, Control_c, 0, 64, 96
7, 100112, Control_c, 0, 64, 127
7, 100179, Control_c, 0, 64, 96
7, 100193, Control_c, 0, 64, 0
7, 100283, Control_c, 0, 64, 64
7, 100298, Control_c, 0, 64, 96
7, 100312, Control_c, 0, 64, 127
7, 100388, Control_c, 0, 64, 96
7, 100408, Control_c, 0, 64, 64
7, 100446, Control_c, 0, 64, 0
7, 100535, Control_c, 0, 64, 64
7, 100550, Control_c, 0, 64, 96
7, 100565, Control_c, 0, 64, 127
7, 100655, Control_c, 0, 64, 96
7, 100670, Control_c, 0, 64, 64
7, 100685, Control_c, 0, 64, 0
7, 100760, Control_c, 0, 64, 64
7, 100774, Control_c, 0, 64, 127
7, 101667, Control_c, 0, 64, 96
7, 101680, Control_c, 0, 64, 64
7, 101700, Control_c, 0, 64, 0
7, 101760, Control_c, 0, 64, 64
7, 101785, Control_c, 0, 64, 127
7, 102143, Control_c, 0, 64, 96
7, 102155, Control_c, 0, 64, 0
7, 102231, Control_c, 0, 64, 64
7, 102246, Control_c, 0, 64, 96
7, 102269, Control_c, 0, 64, 127
7, 102449, Control_c, 0, 64, 96
7, 102462, Control_c, 0, 64, 64
7, 102505, Control_c, 0, 64, 96
7, 102519, Control_c, 0, 64, 127
7, 102622, Control_c, 0, 64, 96
7, 102636, Control_c, 0, 64, 64
7, 102708, Control_c, 0, 64, 96
7, 102720, Control_c, 0, 64, 127
7, 103163, Control_c, 0, 64, 96
7, 103234, Control_c, 0, 64, 127
7, 103577, Control_c, 0, 64, 96
7, 103592, Control_c, 0, 64, 64
7, 103606, Control_c, 0, 64, 0
7, 103680, Control_c, 0, 64, 64
7, 103706, Control_c, 0, 64, 96
7, 103721, Control_c, 0, 64, 127
7, 104086, Control_c, 0, 64, 96
7, 104105, Control_c, 0, 64, 64
7, 104157, Control_c, 0, 64, 96
7, 104191, Control_c, 0, 64, 127
7, 104586, Control_c, 0, 64, 96
7, 104607, Control_c, 0, 64, 0
7, 104639, Control_c, 0, 64, 64
7, 104663, Control_c, 0, 64, 96
7, 104678, Control_c, 0, 64, 127
7, 105048, Control_c, 0, 64, 96
7, 105067, Control_c, 0, 64, 64
7, 105087, Control_c, 0, 64, 0
7, 105105, Control_c, 0, 64, 64
7, 105120, Control_c, 0, 64, 96
7, 105144, Control_c, 0, 64, 127
7, 105499, Control_c, 0, 64, 96
7, 105513, Control_c, 0, 64, 64
7, 105528, Control_c, 0, 64, 0
7, 105599, Control_c, 0, 64, 64
7, 105620, Control_c, 0, 64, 127
7, 106031, Control_c, 0, 64, 96
7, 106049, Control_c, 0, 64, 64
7, 106065, Control_c, 0, 64, 0
7, 106593, Control_c, 0, 64, 64
7, 106607, Control_c, 0, 64, 96
7, 106619, Control_c, 0, 64, 127
7, 107127, Control_c, 0, 64, 64
7, 107146, Control_c, 0, 64, 0
7, 107564, Control_c, 0, 64, 64
7, 107579, Control_c, 0, 64, 96
7, 107596, Control_c, 0, 64, 127
7, 108490, Control_c, 0, 64, 96
7, 108513, Control_c, 0, 64, 0
7, 108588, Control_c, 0, 64, 64
7, 108603, Control_c, 0, 64, 96
7, 108622, Control_c, 0, 64, 127
7, 109447, Control_c, 0, 64, 96
7, 109472, Control_c, 0, 64, 0
7, 109555, Control_c, 0, 64, 64
7, 109576, Control_c, 0, 64, 127
7, 109919, Control_c, 0, 64, 96
7, 109944, Control_c, 0, 64, 0
7, 110001, Control_c, 0, 64, 96
7, 110020, Control_c, 0, 64, 127
7, 110398, Control_c, 0, 64, 96
7, 110422, Control_c, 0, 64, 0
7, 110469, Control_c, 0, 64, 64
7, 110489, Control_c, 0, 64, 127
7, 110854, Control_c, 0, 64, 96
7, 110869, Control_c, 0, 64, 0
7, 110910, Control_c, 0, 64, 64
7, 110926, Control_c, 0, 64, 127
7, 111330, Control_c, 0, 64, 64
7, 111344, Control_c, 0, 64, 0
7, 111387, Control_c, 0, 64, 64
7, 111402, Control_c, 0, 64, 127
7, 111827, Control_c, 0, 64, 64
7, 111843, Control_c, 0, 64, 0
7, 111885, Control_c, 0, 64, 64
7, 111899, Control_c, 0, 64, 127
7, 112279, Control_c, 0, 64, 64
7, 112294, Control_c, 0, 64, 0
7, 112347, Control_c, 0, 64, 127
7, 112746, Control_c, 0, 64, 64
7, 112765, Control_c, 0, 64, 0
7, 112794, Control_c, 0, 64, 64
7, 112809, Control_c, 0, 64, 127
7, 113252, Control_c, 0, 64, 96
7, 113266, Control_c, 0, 64, 0
7, 113314, Control_c, 0, 64, 64
7, 113329, Control_c, 0, 64, 127
7, 113668, Control_c, 0, 64, 96
7, 113683, Control_c, 0, 64, 0
7, 113731, Control_c, 0, 64, 96
7, 113743, Control_c, 0, 64, 127
7, 114210, Control_c, 0, 64, 96
7, 114225, Control_c, 0, 64, 0
7, 114272, Control_c, 0, 64, 96
7, 114286, Control_c, 0, 64, 127
7, 114664, Control_c, 0, 64, 64
7, 114683, Control_c, 0, 64, 0
7, 114711, Control_c, 0, 64, 64
7, 114727, Control_c, 0, 64, 127
7, 115174, Control_c, 0, 64, 96
7, 115189, Control_c, 0, 64, 0
7, 115242, Control_c, 0, 64, 96
7, 115256, Control_c, 0, 64, 127
7, 115602, Control_c, 0, 64, 96
7, 115616, Control_c, 0, 64, 0
7, 115705, Control_c, 0, 64, 64
7, 115725, Control_c, 0, 64, 127
7, 117098, Control_c, 0, 64, 96
7, 117112, Control_c, 0, 64, 64
7, 117128, Control_c, 0, 64, 0
7, 117230, Control_c, 0, 64, 64
7, 117246, Control_c, 0, 64, 96
7, 117263, Control_c, 0, 64, 127
7, 119249, Control_c, 0, 64, 96
7, 119264, Control_c, 0, 64, 0
7, 119333, Control_c, 0, 64, 64
7, 119348, Control_c, 0, 64, 127
7, 119902, Control_c, 0, 64, 96
7, 119943, Control_c, 0, 64, 127
7, 120206, Control_c, 0, 64, 96
7, 120218, Control_c, 0, 64, 64
7, 120234, Control_c, 0, 64, 0
7, 120360, Control_c, 0, 64, 64
7, 120390, Control_c, 0, 64, 96
7, 120413, Control_c, 0, 64, 127
7, 120684, Control_c, 0, 64, 64
7, 120699, Control_c, 0, 64, 0
7, 120760, Control_c, 0, 64, 64
7, 120775, Control_c, 0, 64, 127
7, 121118, Control_c, 0, 64, 64
7, 121133, Control_c, 0, 64, 0
7, 121199, Control_c, 0, 64, 64
7, 121223, Control_c, 0, 64, 127
7, 121596, Control_c, 0, 64, 96
7, 121609, Control_c, 0, 64, 64
7, 121624, Control_c, 0, 64, 0
7, 121643, Control_c, 0, 64, 64
7, 121658, Control_c, 0, 64, 127
7, 121964, Control_c, 0, 64, 96
7, 121977, Control_c, 0, 64, 64
7, 121996, Control_c, 0, 64, 0
7, 122019, Control_c, 0, 64, 64
7, 122035, Control_c, 0, 64, 127
7, 122469, Control_c, 0, 64, 96
7, 122488, Control_c, 0, 64, 0
7, 122550, Control_c, 0, 64, 96
7, 122565, Control_c, 0, 64, 127
7, 122945, Control_c, 0, 64, 96
7, 122964, Control_c, 0, 64, 0
7, 123024, Control_c, 0, 64, 96
7, 123040, Control_c, 0, 64, 127
7, 123426, Control_c, 0, 64, 96
7, 123446, Control_c, 0, 64, 0
7, 123484, Control_c, 0, 64, 64
7, 123507, Control_c, 0, 64, 127
7, 123885, Control_c, 0, 64, 96
7, 123899, Control_c, 0, 64, 64
7, 123919, Control_c, 0, 64, 0
7, 123942, Control_c, 0, 64, 64
7, 123955, Control_c, 0, 64, 127
7, 124362, Control_c, 0, 64, 96
7, 124378, Control_c, 0, 64, 0
7, 124424, Control_c, 0, 64, 64
7, 124439, Control_c, 0, 64, 127
7, 124848, Control_c, 0, 64, 96
7, 124864, Control_c, 0, 64, 0
7, 124902, Control_c, 0, 64, 64
7, 124915, Control_c, 0, 64, 127
7, 125327, Control_c, 0, 64, 96
7, 125340, Control_c, 0, 64, 64
7, 125360, Control_c, 0, 64, 0
7, 125378, Control_c, 0, 64, 64
7, 125393, Control_c, 0, 64, 96
7, 125408, Control_c, 0, 64, 127
7, 125848, Control_c, 0, 64, 96
7, 125861, Control_c, 0, 64, 64
7, 125915, Control_c, 0, 64, 96
7, 125927, Control_c, 0, 64, 127
7, 126300, Control_c, 0, 64, 96
7, 126320, Control_c, 0, 64, 64
7, 126335, Control_c, 0, 64, 0
7, 126359, Control_c, 0, 64, 64
7, 126382, Control_c, 0, 64, 127
7, 126765, Control_c, 0, 64, 96
7, 126779, Control_c, 0, 64, 0
7, 126822, Control_c, 0, 64, 64
7, 126835, Control_c, 0, 64, 127
7, 127257, Control_c, 0, 64, 96
7, 127299, Control_c, 0, 64, 127
7, 127764, Control_c, 0, 64, 96
7, 127779, Control_c, 0, 64, 64
7, 127826, Control_c, 0, 64, 127
7, 128258, Control_c, 0, 64, 96
7, 128280, Control_c, 0, 64, 64
7, 128311, Control_c, 0, 64, 96
7, 128324, Control_c, 0, 64, 127
7, 128736, Control_c, 0, 64, 96
7, 128750, Control_c, 0, 64, 64
7, 128810, Control_c, 0, 64, 96
7, 128824, Control_c, 0, 64, 127
7, 128824, End_track
8, 0, Start_track
8, 0, Text_t, "Pedal & Ending"
8, 128877, Control_c, 0, 64, 64
8, 128984, Control_c, 0, 64, 96
8, 129104, Control_c, 0, 64, 127
8, 130581, Note_on_c, 0, 44, 80
8, 130590, Note_on_c, 0, 37, 80
8, 131354, Note_off_c, 0, 44, 64
8, 131414, Note_off_c, 0, 37, 64
8, 131584, Note_on_c, 0, 46, 84
8, 131617, Control_c, 0, 64, 96
8, 131631, Control_c, 0, 64, 64
8, 131661, Control_c, 0, 64, 96
8, 131675, Control_c, 0, 64, 127
8, 131836, Note_on_c, 0, 44, 74
8, 131844, Note_off_c, 0, 46, 64
8, 132075, Note_off_c, 0, 44, 64
8, 132076, Note_on_c, 0, 49, 86
8, 132118, Note_off_c, 0, 49, 64
8, 132312, Note_on_c, 0, 51, 94
8, 132364, Note_off_c, 0, 51, 64
8, 132580, Note_on_c, 0, 53, 84
8, 132650, Control_c, 0, 64, 96
8, 132664, Control_c, 0, 64, 64
8, 132683, Control_c, 0, 64, 0
8, 132727, Control_c, 0, 64, 64
8, 132746, Control_c, 0, 64, 127
8, 133478, Note_off_c, 0, 53, 64
8, 133523, Note_on_c, 0, 56, 90
8, 133566, Control_c, 0, 64, 96
8, 133585, Control_c, 0, 64, 0
8, 133614, Control_c, 0, 64, 64
8, 133629, Control_c, 0, 64, 96
8, 133648, Control_c, 0, 64, 127
8, 134476, Note_on_c, 0, 54, 80
8, 134496, Note_off_c, 0, 56, 64
8, 134507, Control_c, 0, 64, 96
8, 134521, Control_c, 0, 64, 64
8, 134541, Control_c, 0, 64, 0
8, 134568, Control_c, 0, 64, 64
8, 134585, Control_c, 0, 64, 127
8, 134955, Note_off_c, 0, 54, 64
8, 134956, Note_on_c, 0, 53, 79
8, 134984, Control_c, 0, 64, 96
8, 134998, Control_c, 0, 64, 64
8, 135017, Control_c, 0, 64, 0
8, 135037, Control_c, 0, 64, 64
8, 135052, Control_c, 0, 64, 96
8, 135066, Control_c, 0, 64, 127
8, 135427, Note_on_c, 0, 51, 80
8, 135444, Note_off_c, 0, 53, 64
8, 135455, Control_c, 0, 64, 96
8, 135469, Control_c, 0, 64, 64
8, 135499, Control_c, 0, 64, 96
8, 135514, Control_c, 0, 64, 127
8, 135908, Control_c, 0, 64, 96
8, 135918, Note_on_c, 0, 53, 71
8, 135925, Note_off_c, 0, 51, 64
8, 135932, Control_c, 0, 64, 0
8, 135962, Control_c, 0, 64, 64
8, 135982, Control_c, 0, 64, 127
8, 136157, Note_on_c, 0, 49, 68
8, 136164, Note_off_c, 0, 53, 64
8, 136199, Note_off_c, 0, 49, 64
8, 136404, Note_on_c, 0, 44, 74
8, 136423, Control_c, 0, 64, 96
8, 136437, Control_c, 0, 64, 0
8, 136476, Control_c, 0, 64, 64
8, 136491, Control_c, 0, 64, 96
8, 136504, Control_c, 0, 64, 127
8, 137119, Note_off_c, 0, 44, 64
8, 137363, Note_on_c, 0, 44, 35
8, 137382, Note_on_c, 0, 32, 44
8, 137487, Control_c, 0, 64, 96
8, 137500, Control_c, 0, 64, 64
8, 137526, Control_c, 0, 64, 0
8, 137560, Control_c, 0, 64, 64
8, 137575, Control_c, 0, 64, 96
8, 137590, Control_c, 0, 64, 127
8, 138218, Note_off_c, 0, 32, 64
8, 138632, Note_off_c, 0, 44, 64
8, 138654, Note_on_c, 0, 37, 58
8, 138710, Control_c, 0, 64, 96
8, 138724, Control_c, 0, 64, 64
8, 138738, Control_c, 0, 64, 0
8, 138772, Control_c, 0, 64, 64
8, 138786, Control_c, 0, 64, 96
8, 138801, Control_c, 0, 64, 127
8, 139102, Note_on_c, 0, 44, 50
8, 139333, Note_on_c, 0, 49, 50
8, 139504, Note_on_c, 0, 54, 29
8, 139664, Note_on_c, 0, 56, 51
8, 139738, Note_off_c, 0, 54, 64
8, 139834, Note_on_c, 0, 60, 34
8, 139844, Note_off_c, 0, 56, 64
8, 140032, Note_off_c, 0, 60, 64
8, 140044, Note_on_c, 0, 63, 35
8, 140372, Note_off_c, 0, 37, 64
8, 140414, Note_off_c, 0, 63, 64
8, 140530, Note_off_c, 0, 44, 64
8, 140536, Note_off_c, 0, 49, 64
8, 141168, Note_on_c, 0, 37, 44
8, 141187, Control_c, 0, 64, 96
8, 141235, Control_c, 0, 64, 127
8, 141363, Note_on_c, 0, 44, 29
8, 141515, Note_on_c, 0, 49, 24
8, 141660, Note_on_c, 0, 53, 27
8, 141900, Note_on_c, 0, 56, 16
8, 141957, Note_off_c, 0, 53, 64
8, 142168, Note_on_c, 0, 61, 31
8, 142232, Note_off_c, 0, 56, 64
8, 142754, Note_off_c, 0, 44, 64
8, 142807, Note_off_c, 0, 37, 64
8, 142808, Note_off_c, 0, 49, 64
8, 142863, Note_off_c, 0, 61, 64
8, 142863, End_track
9, 0, Start_track
9, 0, Text_t, "Chopin Fantasie-Impromptu"
9, 0, End_track
10, 0, Start_track
10, 0, Text_t, "Performed and Step Recorded by"
10, 0, End_track
11, 0, Start_track
11, 0, Text_t, """SlowEater"" (America Online)"
11, 0, End_track
12, 0, Start_track
12, 0, Text_t, "Performed on Technics PX66."
12, 0, End_track
13, 0, Start_track
13, 0, Text_t, "Created 1992."
13, 0, End_track
0, 0, End_of_file
