0, 0, Header, 0, 1, 480
1, 0, Start_track
1, 0, SMPTE_offset, 96, 0, 0, 0, 0
1, 0, Time_signature, 4, 2, 24, 8
1, 0, Key_signature, 0, "major"
1, 0, Tempo, 500000
1, 0, Control_c, 0, 64, 127
1, 0, Control_c, 0, 64, 0
1, 0, Control_c, 0, 64, 127
1, 0, Control_c, 0, 64, 0
1, 0, Note_on_c, 0, 51, 100
1, 3, Note_on_c, 0, 63, 100
1, 12, Note_on_c, 0, 39, 98
1, 16, Note_on_c, 0, 27, 94
1, 24, Control_c, 0, 64, 127
1, 74, Note_off_c, 0, 27, 64
1, 94, Note_off_c, 0, 39, 64
1, 292, Note_off_c, 0, 51, 64
1, 552, Note_off_c, 0, 63, 64
1, 1360, Control_c, 0, 64, 0
1, 1416, Note_on_c, 0, 57, 47
1, 1419, Note_on_c, 0, 52, 49
1, 1426, Note_on_c, 0, 49, 50
1, 1468, Note_off_c, 0, 52, 64
1, 1514, Control_c, 0, 64, 127
1, 1544, Note_off_c, 0, 57, 64
1, 1592, Note_on_c, 0, 58, 61
1, 1596, Note_off_c, 0, 49, 64
1, 1596, Note_on_c, 0, 53, 72
1, 1606, Note_on_c, 0, 50, 56
1, 1648, Note_off_c, 0, 53, 64
1, 1718, Note_off_c, 0, 50, 64
1, 1718, Note_on_c, 0, 51, 69
1, 1721, Note_on_c, 0, 59, 68
1, 1728, Note_on_c, 0, 54, 76
1, 1786, Note_off_c, 0, 58, 64
1, 1824, Note_on_c, 0, 52, 85
1, 1834, Note_on_c, 0, 60, 67
1, 1834, Note_on_c, 0, 55, 76
1, 1837, Note_off_c, 0, 59, 64
1, 1842, Note_off_c, 0, 54, 64
1, 1872, Note_off_c, 0, 51, 64
1, 1888, Note_off_c, 0, 52, 64
1, 1898, Note_on_c, 0, 53, 103
1, 1910, Note_off_c, 0, 55, 64
1, 1918, Note_on_c, 0, 61, 84
1, 1934, Note_on_c, 0, 56, 73
1, 1946, Note_off_c, 0, 60, 64
1, 2004, Note_on_c, 0, 54, 95
1, 2008, Note_off_c, 0, 53, 64
1, 2034, Note_on_c, 0, 62, 85
1, 2036, Note_on_c, 0, 57, 75
1, 2056, Note_off_c, 0, 61, 64
1, 2064, Note_off_c, 0, 56, 64
1, 2110, Note_on_c, 0, 58, 82
1, 2110, Note_on_c, 0, 63, 99
1, 2116, Note_off_c, 0, 54, 64
1, 2116, Note_on_c, 0, 55, 105
1, 2134, Note_off_c, 0, 57, 64
1, 2158, Note_off_c, 0, 62, 64
1, 2190, Control_c, 0, 64, 0
1, 2208, Note_off_c, 0, 55, 64
1, 2266, Control_c, 0, 64, 127
1, 2304, Note_off_c, 0, 58, 64
1, 2368, Note_off_c, 0, 63, 64
1, 2436, Control_c, 0, 64, 0
1, 2646, Note_on_c, 0, 58, 83
1, 2650, Note_on_c, 0, 55, 92
1, 2654, Note_on_c, 0, 46, 84
1, 2656, Note_on_c, 0, 39, 87
1, 2690, Note_off_c, 0, 39, 64
1, 2693, Note_off_c, 0, 46, 64
1, 2728, Control_c, 0, 64, 127
1, 2796, Note_off_c, 0, 55, 64
1, 2876, Note_off_c, 0, 58, 64
1, 3266, Control_c, 0, 64, 0
1, 3274, Note_on_c, 0, 68, 88
1, 3280, Note_on_c, 0, 56, 83
1, 3286, Note_on_c, 0, 59, 84
1, 3292, Note_on_c, 0, 64, 76
1, 3296, Note_on_c, 0, 50, 73
1, 3618, Control_c, 0, 64, 127
1, 3628, Note_off_c, 0, 59, 64
1, 3756, Note_off_c, 0, 56, 64
1, 3936, Note_off_c, 0, 50, 64
1, 3950, Note_off_c, 0, 68, 64
1, 4036, Note_off_c, 0, 64, 64
1, 4072, Note_on_c, 0, 67, 38
1, 4078, Note_on_c, 0, 55, 35
1, 4078, Note_on_c, 0, 63, 40
1, 4078, Note_on_c, 0, 58, 26
1, 4096, Control_c, 0, 64, 0
1, 4114, Note_on_c, 0, 51, 27
1, 4388, Note_off_c, 0, 58, 64
1, 4388, Control_c, 0, 64, 127
1, 4400, Note_off_c, 0, 67, 64
1, 4426, Note_off_c, 0, 63, 64
1, 4480, Note_off_c, 0, 51, 64
1, 4498, Note_off_c, 0, 55, 64
1, 4734, Note_on_c, 0, 44, 39
1, 4750, Note_on_c, 0, 59, 31
1, 4862, Note_off_c, 0, 44, 64
1, 4870, Note_off_c, 0, 59, 64
1, 4886, Note_on_c, 0, 43, 40
1, 4896, Note_on_c, 0, 58, 22
1, 4994, Note_off_c, 0, 43, 64
1, 5004, Note_on_c, 0, 52, 46
1, 5006, Note_off_c, 0, 58, 64
1, 5018, Control_c, 0, 64, 0
1, 5024, Note_on_c, 0, 38, 47
1, 5118, Note_on_c, 0, 51, 46
1, 5150, Note_on_c, 0, 39, 47
1, 5170, Note_off_c, 0, 52, 64
1, 5216, Control_c, 0, 64, 127
1, 5221, Note_off_c, 0, 38, 64
1, 5242, Note_off_c, 0, 51, 64
1, 5248, Note_on_c, 0, 59, 36
1, 5266, Note_on_c, 0, 44, 54
1, 5300, Note_off_c, 0, 39, 64
1, 5348, Note_on_c, 0, 58, 36
1, 5366, Note_off_c, 0, 59, 64
1, 5369, Note_off_c, 0, 44, 64
1, 5406, Note_on_c, 0, 43, 26
1, 5478, Note_off_c, 0, 58, 64
1, 5480, Note_off_c, 0, 43, 64
1, 5484, Note_on_c, 0, 52, 43
1, 5502, Note_on_c, 0, 38, 44
1, 5590, Note_off_c, 0, 52, 64
1, 5600, Note_on_c, 0, 51, 39
1, 5606, Note_on_c, 0, 39, 50
1, 5616, Note_off_c, 0, 38, 64
1, 5676, Note_off_c, 0, 51, 64
1, 5679, Control_c, 0, 64, 0
1, 5720, Note_on_c, 0, 44, 66
1, 5724, Note_on_c, 0, 59, 66
1, 5794, Note_off_c, 0, 39, 64
1, 5834, Note_on_c, 0, 58, 55
1, 5846, Note_off_c, 0, 44, 64
1, 5856, Note_on_c, 0, 43, 55
1, 5862, Control_c, 0, 64, 127
1, 5888, Note_off_c, 0, 59, 64
1, 5952, Note_on_c, 0, 52, 74
1, 5964, Note_on_c, 0, 38, 57
1, 5976, Note_off_c, 0, 43, 64
1, 5984, Note_off_c, 0, 58, 64
1, 6048, Note_on_c, 0, 51, 63
1, 6058, Note_on_c, 0, 39, 61
1, 6068, Note_off_c, 0, 52, 64
1, 6104, Note_off_c, 0, 38, 64
1, 6162, Note_on_c, 0, 44, 77
1, 6164, Note_on_c, 0, 59, 77
1, 6182, Note_off_c, 0, 51, 64
1, 6222, Note_off_c, 0, 39, 64
1, 6258, Note_on_c, 0, 58, 68
1, 6262, Note_on_c, 0, 43, 73
1, 6276, Note_off_c, 0, 44, 64
1, 6328, Note_off_c, 0, 59, 64
1, 6374, Note_on_c, 0, 38, 77
1, 6380, Note_on_c, 0, 52, 91
1, 6388, Note_off_c, 0, 43, 64
1, 6412, Note_off_c, 0, 58, 64
1, 6476, Note_on_c, 0, 39, 73
1, 6481, Note_on_c, 0, 51, 83
1, 6516, Note_off_c, 0, 52, 64
1, 6528, Note_off_c, 0, 38, 64
1, 6598, Note_on_c, 0, 59, 87
1, 6602, Note_on_c, 0, 44, 78
1, 6604, Note_off_c, 0, 51, 64
1, 6656, Note_off_c, 0, 39, 64
1, 6686, Note_on_c, 0, 43, 83
1, 6696, Note_on_c, 0, 58, 76
1, 6698, Note_off_c, 0, 44, 64
1, 6768, Note_off_c, 0, 59, 64
1, 6808, Note_on_c, 0, 38, 74
1, 6811, Note_on_c, 0, 52, 88
1, 6836, Note_off_c, 0, 43, 64
1, 6836, Note_on_c, 0, 39, 76
1, 6856, Note_off_c, 0, 58, 64
1, 6914, Note_on_c, 0, 51, 89
1, 6916, Note_on_c, 0, 43, 65
1, 6924, Note_off_c, 0, 38, 64
1, 6946, Note_off_c, 0, 52, 64
1, 6978, Note_off_c, 0, 39, 64
1, 6978, Note_off_c, 0, 51, 64
1, 6981, Note_off_c, 0, 43, 64
1, 7038, Note_on_c, 0, 39, 86
1, 7114, Note_on_c, 0, 44, 86
1, 7220, Note_on_c, 0, 64, 106
1, 7220, Note_on_c, 0, 56, 88
1, 7220, Note_on_c, 0, 52, 113
1, 7226, Note_on_c, 0, 59, 95
1, 7234, Note_on_c, 0, 51, 106
1, 7630, Control_c, 0, 64, 0
1, 7844, Control_c, 0, 64, 127
1, 7846, Note_off_c, 0, 39, 64
1, 7849, Note_off_c, 0, 52, 64
1, 7860, Note_off_c, 0, 64, 64
1, 7866, Note_off_c, 0, 51, 64
1, 7894, Note_off_c, 0, 44, 64
1, 7898, Note_off_c, 0, 59, 64
1, 7908, Note_off_c, 0, 56, 64
1, 8420, Note_on_c, 0, 58, 42
1, 8432, Note_on_c, 0, 53, 64
1, 8444, Control_c, 0, 64, 0
1, 8448, Note_on_c, 0, 50, 64
1, 8496, Note_off_c, 0, 53, 64
1, 8562, Note_off_c, 0, 58, 64
1, 8570, Note_on_c, 0, 54, 63
1, 8578, Note_on_c, 0, 51, 60
1, 8584, Note_on_c, 0, 59, 41
1, 8614, Note_off_c, 0, 50, 64
1, 8628, Control_c, 0, 64, 127
1, 8652, Note_off_c, 0, 59, 64
1, 8678, Note_on_c, 0, 60, 67
1, 8690, Note_off_c, 0, 54, 64
1, 8690, Note_on_c, 0, 55, 71
1, 8704, Note_on_c, 0, 52, 73
1, 8756, Note_off_c, 0, 51, 64
1, 8760, Note_off_c, 0, 55, 64
1, 8772, Note_off_c, 0, 52, 64
1, 8772, Note_on_c, 0, 61, 76
1, 8786, Note_on_c, 0, 56, 64
1, 8794, Note_off_c, 0, 60, 64
1, 8794, Note_on_c, 0, 53, 102
1, 8890, Note_off_c, 0, 53, 64
1, 8896, Note_on_c, 0, 62, 71
1, 8900, Note_off_c, 0, 61, 64
1, 8900, Note_off_c, 0, 56, 64
1, 8900, Note_on_c, 0, 57, 70
1, 8908, Note_on_c, 0, 54, 88
1, 8978, Note_on_c, 0, 63, 79
1, 8982, Note_off_c, 0, 57, 64
1, 8988, Note_on_c, 0, 58, 66
1, 8992, Note_on_c, 0, 55, 90
1, 9004, Note_off_c, 0, 54, 64
1, 9010, Note_off_c, 0, 62, 64
1, 9056, Control_c, 0, 64, 0
1, 9088, Note_on_c, 0, 64, 108
1, 9094, Note_on_c, 0, 59, 103
1, 9096, Note_on_c, 0, 56, 101
1, 9130, Note_off_c, 0, 58, 64
1, 9138, Note_off_c, 0, 63, 64
1, 9141, Note_off_c, 0, 55, 64
1, 9198, Note_off_c, 0, 56, 64
1, 9238, Note_off_c, 0, 59, 64
1, 9242, Control_c, 0, 64, 127
1, 9274, Note_off_c, 0, 64, 64
1, 9636, Note_on_c, 0, 59, 97
1, 9638, Note_on_c, 0, 39, 88
1, 9640, Note_on_c, 0, 56, 77
1, 9640, Note_on_c, 0, 52, 98
1, 9640, Note_on_c, 0, 47, 85
1, 9738, Note_off_c, 0, 52, 64
1, 9778, Note_off_c, 0, 39, 64
1, 9802, Note_off_c, 0, 56, 64
1, 9812, Note_off_c, 0, 47, 64
1, 9818, Note_off_c, 0, 59, 64
1, 10336, Note_on_c, 0, 73, 100
1, 10339, Note_on_c, 0, 61, 96
1, 10348, Note_on_c, 0, 70, 68
1, 10356, Note_on_c, 0, 64, 89
1, 10360, Note_on_c, 0, 58, 61
1, 10366, Note_on_c, 0, 55, 67
1, 10472, Control_c, 0, 64, 0
1, 10734, Control_c, 0, 64, 127
1, 10834, Note_off_c, 0, 64, 64
1, 10844, Note_off_c, 0, 61, 64
1, 10974, Note_off_c, 0, 70, 64
1, 11084, Note_off_c, 0, 58, 64
1, 11122, Note_on_c, 0, 71, 75
1, 11122, Note_on_c, 0, 56, 48
1, 11125, Note_on_c, 0, 68, 40
1, 11130, Note_on_c, 0, 64, 53
1, 11132, Note_on_c, 0, 59, 46
1, 11146, Note_off_c, 0, 55, 64
1, 11164, Control_c, 0, 64, 0
1, 11194, Note_off_c, 0, 73, 64
1, 11410, Note_off_c, 0, 71, 64
1, 11410, Note_off_c, 0, 59, 64
1, 11412, Control_c, 0, 64, 127
1, 11438, Note_off_c, 0, 68, 64
1, 11438, Note_off_c, 0, 64, 64
1, 11472, Note_off_c, 0, 56, 64
1, 11720, Note_on_c, 0, 61, 51
1, 11724, Note_on_c, 0, 46, 46
1, 11830, Note_off_c, 0, 46, 64
1, 11849, Note_off_c, 0, 61, 64
1, 11870, Note_on_c, 0, 59, 49
1, 11878, Note_on_c, 0, 44, 47
1, 11970, Note_off_c, 0, 44, 64
1, 11984, Note_on_c, 0, 54, 42
1, 11992, Note_off_c, 0, 59, 64
1, 12002, Note_on_c, 0, 39, 38
1, 12102, Note_on_c, 0, 52, 55
1, 12136, Note_off_c, 0, 54, 64
1, 12144, Note_on_c, 0, 44, 29
1, 12168, Note_off_c, 0, 39, 64
1, 12214, Note_off_c, 0, 44, 64
1, 12217, Note_on_c, 0, 61, 51
1, 12222, Note_on_c, 0, 46, 40
1, 12236, Note_off_c, 0, 52, 64
1, 12322, Note_on_c, 0, 44, 30
1, 12330, Note_off_c, 0, 46, 64
1, 12332, Note_on_c, 0, 59, 49
1, 12346, Note_off_c, 0, 61, 64
1, 12426, Note_on_c, 0, 54, 62
1, 12452, Note_on_c, 0, 39, 44
1, 12454, Note_off_c, 0, 59, 64
1, 12462, Note_off_c, 0, 44, 64
1, 12534, Note_on_c, 0, 52, 66
1, 12550, Note_off_c, 0, 54, 64
1, 12566, Note_on_c, 0, 44, 43
1, 12596, Note_off_c, 0, 39, 64
1, 12640, Note_on_c, 0, 61, 79
1, 12646, Note_off_c, 0, 52, 64
1, 12656, Note_off_c, 0, 44, 64
1, 12668, Note_on_c, 0, 46, 60
1, 12754, Note_on_c, 0, 44, 62
1, 12757, Note_on_c, 0, 59, 71
1, 12790, Note_off_c, 0, 46, 64
1, 12816, Note_off_c, 0, 61, 64
1, 12862, Note_on_c, 0, 54, 84
1, 12865, Note_on_c, 0, 39, 61
1, 12876, Note_off_c, 0, 44, 64
1, 12946, Note_off_c, 0, 59, 64
1, 12968, Note_on_c, 0, 52, 93
1, 12990, Note_on_c, 0, 44, 56
1, 13025, Note_off_c, 0, 54, 64
1, 13028, Note_off_c, 0, 39, 64
1, 13072, Note_on_c, 0, 61, 86
1, 13078, Note_off_c, 0, 52, 64
1, 13084, Note_on_c, 0, 46, 68
1, 13102, Note_off_c, 0, 44, 64
1, 13172, Note_on_c, 0, 59, 85
1, 13178, Note_on_c, 0, 44, 68
1, 13216, Note_off_c, 0, 46, 64
1, 13264, Note_off_c, 0, 61, 64
1, 13278, Note_on_c, 0, 54, 90
1, 13290, Note_on_c, 0, 39, 75
1, 13316, Note_off_c, 0, 44, 64
1, 13382, Note_off_c, 0, 59, 64
1, 13384, Note_on_c, 0, 52, 100
1, 13398, Note_on_c, 0, 44, 65
1, 13454, Note_off_c, 0, 54, 64
1, 13468, Note_off_c, 0, 39, 64
1, 13480, Note_off_c, 0, 52, 64
1, 13494, Note_on_c, 0, 61, 90
1, 13502, Note_on_c, 0, 46, 76
1, 13522, Note_off_c, 0, 44, 64
1, 13592, Note_on_c, 0, 59, 88
1, 13602, Note_on_c, 0, 44, 72
1, 13660, Note_off_c, 0, 46, 64
1, 13702, Note_on_c, 0, 39, 76
1, 13705, Note_on_c, 0, 54, 90
1, 13712, Note_off_c, 0, 61, 64
1, 13726, Note_off_c, 0, 44, 64
1, 13794, Note_on_c, 0, 44, 86
1, 13810, Note_on_c, 0, 52, 96
1, 13838, Note_off_c, 0, 39, 64
1, 13841, Note_off_c, 0, 59, 64
1, 13864, Note_off_c, 0, 54, 64
1, 13894, Note_on_c, 0, 39, 86
1, 13910, Note_off_c, 0, 52, 64
1, 13922, Note_off_c, 0, 44, 64
1, 13968, Note_on_c, 0, 45, 74
1, 14022, Control_c, 0, 64, 0
1, 14070, Note_on_c, 0, 65, 101
1, 14070, Note_on_c, 0, 57, 89
1, 14070, Note_on_c, 0, 53, 119
1, 14070, Note_on_c, 0, 60, 97
1, 14084, Note_on_c, 0, 51, 102
1, 14188, Note_off_c, 0, 53, 64
1, 14198, Note_off_c, 0, 39, 64
1, 14252, Control_c, 0, 64, 127
1, 14296, Note_off_c, 0, 45, 64
1, 14314, Note_off_c, 0, 51, 64
1, 14386, Note_off_c, 0, 57, 64
1, 14404, Note_off_c, 0, 60, 64
1, 14506, Note_off_c, 0, 65, 64
1, 14834, Note_on_c, 0, 57, 55
1, 14838, Note_on_c, 0, 62, 58
1, 14850, Note_on_c, 0, 54, 80
1, 14902, Note_off_c, 0, 62, 64
1, 14926, Note_off_c, 0, 57, 64
1, 14952, Note_off_c, 0, 54, 64
1, 14968, Note_on_c, 0, 63, 58
1, 14971, Note_on_c, 0, 55, 85
1, 14974, Note_on_c, 0, 58, 56
1, 15050, Note_off_c, 0, 63, 64
1, 15062, Note_off_c, 0, 58, 64
1, 15074, Note_off_c, 0, 55, 64
1, 15088, Note_on_c, 0, 64, 59
1, 15094, Note_on_c, 0, 56, 78
1, 15134, Note_off_c, 0, 64, 64
1, 15196, Note_on_c, 0, 57, 77
1, 15202, Note_on_c, 0, 65, 75
1, 15220, Note_off_c, 0, 56, 64
1, 15223, Note_on_c, 0, 60, 47
1, 15264, Note_off_c, 0, 65, 64
1, 15298, Note_off_c, 0, 57, 64
1, 15298, Note_on_c, 0, 58, 75
1, 15298, Note_on_c, 0, 67, 72
1, 15376, Note_off_c, 0, 60, 64
1, 15376, Note_on_c, 0, 63, 49
1, 15384, Note_on_c, 0, 68, 75
1, 15390, Note_on_c, 0, 59, 85
1, 15400, Note_off_c, 0, 67, 64
1, 15428, Note_off_c, 0, 63, 64
1, 15451, Note_off_c, 0, 58, 64
1, 15466, Control_c, 0, 64, 0
1, 15492, Note_on_c, 0, 69, 100
1, 15495, Note_on_c, 0, 63, 87
1, 15498, Note_off_c, 0, 59, 64
1, 15504, Note_on_c, 0, 60, 103
1, 15556, Note_off_c, 0, 68, 64
1, 15644, Note_off_c, 0, 60, 64
1, 15656, Note_off_c, 0, 63, 64
1, 15658, Note_off_c, 0, 69, 64
1, 15666, Control_c, 0, 64, 127
1, 15974, Control_c, 0, 64, 0
1, 15974, Note_on_c, 0, 65, 91
1, 15974, Note_on_c, 0, 57, 78
1, 15977, Note_on_c, 0, 53, 107
1, 15980, Note_on_c, 0, 60, 90
1, 15984, Note_on_c, 0, 51, 91
1, 15992, Note_on_c, 0, 39, 83
1, 15996, Note_on_c, 0, 45, 74
1, 16048, Note_off_c, 0, 39, 64
1, 16072, Note_off_c, 0, 45, 64
1, 16090, Note_off_c, 0, 51, 64
1, 16096, Note_off_c, 0, 53, 64
1, 16142, Control_c, 0, 64, 127
1, 16156, Note_off_c, 0, 57, 64
1, 16200, Note_off_c, 0, 60, 64
1, 16230, Note_off_c, 0, 65, 64
1, 16476, Note_on_c, 0, 72, 103
1, 16481, Note_on_c, 0, 65, 88
1, 16484, Note_on_c, 0, 60, 92
1, 16490, Note_on_c, 0, 63, 90
1, 16496, Note_on_c, 0, 51, 83
1, 16500, Note_on_c, 0, 57, 69
1, 16518, Note_off_c, 0, 63, 64
1, 16536, Note_off_c, 0, 51, 64
1, 16542, Note_off_c, 0, 57, 64
1, 16676, Note_off_c, 0, 72, 64
1, 16698, Note_off_c, 0, 65, 64
1, 16760, Note_off_c, 0, 60, 64
1, 17092, Note_on_c, 0, 70, 88
1, 17095, Note_on_c, 0, 56, 90
1, 17098, Note_on_c, 0, 58, 73
1, 17104, Note_on_c, 0, 65, 80
1, 17110, Note_on_c, 0, 62, 80
1, 17118, Note_on_c, 0, 39, 93
1, 17124, Note_on_c, 0, 27, 98
1, 17172, Control_c, 0, 64, 0
1, 17370, Note_off_c, 0, 27, 64
1, 17386, Control_c, 0, 64, 127
1, 17396, Note_off_c, 0, 39, 64
1, 17418, Note_off_c, 0, 56, 64
1, 17426, Note_off_c, 0, 70, 64
1, 17426, Note_off_c, 0, 62, 64
1, 17434, Note_off_c, 0, 58, 64
1, 17440, Note_off_c, 0, 65, 64
1, 17776, Note_on_c, 0, 64, 85
1, 17782, Note_on_c, 0, 59, 66
1, 17784, Note_on_c, 0, 56, 77
1, 17816, Note_off_c, 0, 64, 64
1, 17824, Note_off_c, 0, 59, 64
1, 17886, Note_on_c, 0, 57, 80
1, 17892, Note_off_c, 0, 56, 64
1, 17894, Note_on_c, 0, 65, 78
1, 17898, Note_on_c, 0, 60, 82
1, 17980, Note_on_c, 0, 66, 75
1, 17996, Note_off_c, 0, 60, 64
1, 17996, Note_on_c, 0, 58, 70
1, 17996, Note_on_c, 0, 61, 76
1, 17999, Note_off_c, 0, 57, 64
1, 18006, Note_off_c, 0, 65, 64
1, 18042, Note_off_c, 0, 61, 64
1, 18092, Note_on_c, 0, 62, 79
1, 18094, Note_on_c, 0, 59, 70
1, 18100, Note_on_c, 0, 67, 81
1, 18126, Note_off_c, 0, 66, 64
1, 18140, Note_off_c, 0, 58, 64
1, 18166, Note_off_c, 0, 59, 64
1, 18166, Note_on_c, 0, 60, 79
1, 18188, Note_off_c, 0, 62, 64
1, 18190, Note_on_c, 0, 68, 79
1, 18206, Note_on_c, 0, 63, 71
1, 18220, Note_off_c, 0, 67, 64
1, 18272, Note_on_c, 0, 61, 90
1, 18280, Note_off_c, 0, 60, 64
1, 18280, Note_on_c, 0, 69, 61
1, 18292, Note_off_c, 0, 63, 64
1, 18304, Note_on_c, 0, 64, 67
1, 18320, Note_off_c, 0, 68, 64
1, 18340, Control_c, 0, 64, 0
1, 18346, Note_off_c, 0, 64, 64
1, 18354, Note_off_c, 0, 69, 64
1, 18370, Note_on_c, 0, 70, 86
1, 18384, Note_off_c, 0, 61, 64
1, 18384, Note_on_c, 0, 65, 79
1, 18398, Note_on_c, 0, 62, 105
1, 18486, Note_off_c, 0, 62, 64
1, 18538, Control_c, 0, 64, 127
1, 18546, Note_off_c, 0, 65, 64
1, 18558, Note_off_c, 0, 70, 64
1, 18872, Note_on_c, 0, 65, 98
1, 18876, Note_on_c, 0, 58, 76
1, 18884, Note_on_c, 0, 53, 105
1, 18892, Note_on_c, 0, 50, 99
1, 18894, Note_on_c, 0, 39, 88
1, 18926, Note_off_c, 0, 50, 64
1, 18926, Note_off_c, 0, 39, 64
1, 18966, Note_off_c, 0, 53, 64
1, 19034, Note_off_c, 0, 58, 64
1, 19064, Note_off_c, 0, 65, 64
1, 19446, Note_on_c, 0, 77, 104
1, 19448, Note_on_c, 0, 70, 82
1, 19452, Note_on_c, 0, 65, 93
1, 19454, Note_on_c, 0, 68, 86
1, 19460, Control_c, 0, 64, 0
1, 19470, Note_on_c, 0, 56, 54
1, 19480, Note_on_c, 0, 62, 65
1, 19488, Note_on_c, 0, 58, 49
1, 19628, Note_off_c, 0, 68, 64
1, 19646, Control_c, 0, 64, 127
1, 19668, Note_off_c, 0, 77, 64
1, 19670, Note_off_c, 0, 62, 64
1, 19714, Note_off_c, 0, 70, 64
1, 19722, Note_off_c, 0, 65, 64
1, 19744, Note_off_c, 0, 58, 64
1, 19768, Note_off_c, 0, 56, 64
1, 20132, Note_on_c, 0, 70, 63
1, 20134, Note_on_c, 0, 75, 89
1, 20134, Note_on_c, 0, 63, 74
1, 20144, Note_on_c, 0, 61, 90
1, 20148, Note_on_c, 0, 39, 86
1, 20152, Note_on_c, 0, 27, 93
1, 20156, Note_on_c, 0, 67, 74
1, 20306, Control_c, 0, 64, 0
1, 20558, Note_off_c, 0, 27, 64
1, 20566, Note_off_c, 0, 39, 64
1, 20568, Control_c, 0, 64, 127
1, 20592, Note_off_c, 0, 61, 64
1, 20650, Note_off_c, 0, 63, 64
1, 20668, Note_off_c, 0, 67, 64
1, 20690, Note_off_c, 0, 70, 64
1, 20720, Note_off_c, 0, 75, 64
1, 20800, Note_on_c, 0, 46, 89
1, 20803, Note_on_c, 0, 77, 72
1, 20806, Note_on_c, 0, 73, 60
1, 20808, Note_on_c, 0, 34, 90
1, 20842, Note_off_c, 0, 34, 64
1, 20845, Note_off_c, 0, 46, 64
1, 20968, Note_on_c, 0, 68, 55
1, 21098, Note_on_c, 0, 51, 81
1, 21104, Note_off_c, 0, 73, 64
1, 21104, Note_on_c, 0, 39, 75
1, 21116, Note_on_c, 0, 67, 67
1, 21126, Note_off_c, 0, 68, 64
1, 21150, Note_off_c, 0, 39, 64
1, 21152, Note_off_c, 0, 77, 64
1, 21170, Note_off_c, 0, 51, 64
1, 21242, Note_on_c, 0, 75, 67
1, 21248, Note_on_c, 0, 41, 87
1, 21248, Note_on_c, 0, 53, 105
1, 21286, Note_off_c, 0, 41, 64
1, 21286, Note_off_c, 0, 53, 64
1, 21358, Note_off_c, 0, 67, 64
1, 21398, Note_on_c, 0, 55, 95
1, 21401, Note_on_c, 0, 77, 73
1, 21401, Note_on_c, 0, 43, 92
1, 21405, Note_on_c, 0, 73, 67
1, 21412, Note_off_c, 0, 75, 64
1, 21436, Note_off_c, 0, 43, 64
1, 21438, Note_off_c, 0, 55, 64
1, 21530, Note_on_c, 0, 56, 90
1, 21538, Note_on_c, 0, 68, 65
1, 21544, Note_on_c, 0, 44, 79
1, 21574, Note_off_c, 0, 77, 64
1, 21584, Note_off_c, 0, 44, 64
1, 21587, Note_off_c, 0, 56, 64
1, 21618, Note_off_c, 0, 73, 64
1, 21666, Note_on_c, 0, 58, 83
1, 21674, Note_on_c, 0, 67, 57
1, 21676, Note_on_c, 0, 46, 73
1, 21680, Note_off_c, 0, 68, 64
1, 21744, Note_off_c, 0, 46, 64
1, 21764, Note_off_c, 0, 58, 64
1, 21766, Note_on_c, 0, 75, 70
1, 21822, Note_on_c, 0, 48, 51
1, 21826, Note_off_c, 0, 67, 64
1, 21828, Note_on_c, 0, 60, 65
1, 21878, Note_off_c, 0, 60, 64
1, 21880, Note_off_c, 0, 48, 64
1, 21888, Control_c, 0, 64, 0
1, 21906, Note_off_c, 0, 75, 64
1, 21906, Note_on_c, 0, 70, 74
1, 21912, Note_on_c, 0, 77, 73
1, 21946, Note_on_c, 0, 61, 104
1, 21960, Note_on_c, 0, 49, 92
1, 22038, Note_on_c, 0, 67, 70
1, 22058, Control_c, 0, 64, 127
1, 22070, Note_off_c, 0, 77, 64
1, 22084, Note_off_c, 0, 67, 64
1, 22096, Note_off_c, 0, 61, 64
1, 22100, Note_off_c, 0, 70, 64
1, 22154, Note_off_c, 0, 49, 64
1, 22198, Note_on_c, 0, 63, 82
1, 22286, Note_off_c, 0, 63, 64
1, 22320, Note_on_c, 0, 75, 78
1, 22442, Note_on_c, 0, 72, 85
1, 22442, Note_on_c, 0, 77, 88
1, 22448, Note_on_c, 0, 51, 89
1, 22458, Note_on_c, 0, 39, 80
1, 22484, Note_off_c, 0, 75, 64
1, 22494, Note_off_c, 0, 39, 64
1, 22504, Note_off_c, 0, 51, 64
1, 22552, Note_on_c, 0, 67, 70
1, 22586, Note_off_c, 0, 77, 64
1, 22598, Note_off_c, 0, 67, 64
1, 22628, Note_off_c, 0, 72, 64
1, 22708, Note_on_c, 0, 63, 78
1, 22784, Note_off_c, 0, 63, 64
1, 22820, Note_on_c, 0, 75, 78
1, 22918, Note_on_c, 0, 67, 98
1, 22922, Note_on_c, 0, 73, 82
1, 22928, Note_on_c, 0, 55, 88
1, 22931, Note_on_c, 0, 77, 92
1, 22934, Control_c, 0, 64, 0
1, 23002, Note_off_c, 0, 75, 64
1, 23058, Note_on_c, 0, 70, 72
1, 23062, Note_off_c, 0, 77, 64
1, 23102, Control_c, 0, 64, 127
1, 23126, Note_off_c, 0, 73, 64
1, 23176, Note_on_c, 0, 63, 85
1, 23222, Note_off_c, 0, 70, 64
1, 23276, Note_off_c, 0, 63, 64
1, 23284, Note_on_c, 0, 75, 86
1, 23424, Note_on_c, 0, 73, 76
1, 23426, Note_on_c, 0, 77, 87
1, 23450, Note_off_c, 0, 75, 64
1, 23558, Note_off_c, 0, 67, 64
1, 23558, Note_off_c, 0, 77, 64
1, 23568, Note_on_c, 0, 70, 59
1, 23578, Note_on_c, 0, 61, 64
1, 23580, Note_off_c, 0, 55, 64
1, 23598, Note_off_c, 0, 73, 64
1, 23704, Note_on_c, 0, 63, 73
1, 23716, Note_off_c, 0, 61, 64
1, 23742, Note_off_c, 0, 70, 64
1, 23760, Note_on_c, 0, 57, 20
1, 23778, Note_off_c, 0, 63, 64
1, 23830, Note_off_c, 0, 57, 64
1, 23830, Note_on_c, 0, 51, 52
1, 23842, Note_on_c, 0, 75, 65
1, 23892, Note_off_c, 0, 51, 64
1, 23968, Note_off_c, 0, 75, 64
1, 23974, Note_on_c, 0, 73, 59
1, 23977, Note_on_c, 0, 67, 76
1, 23977, Note_on_c, 0, 77, 66
1, 24066, Note_off_c, 0, 77, 64
1, 24102, Note_on_c, 0, 70, 51
1, 24110, Note_on_c, 0, 61, 66
1, 24120, Note_off_c, 0, 67, 64
1, 24124, Note_off_c, 0, 73, 64
1, 24220, Note_on_c, 0, 63, 78
1, 24232, Note_off_c, 0, 61, 64
1, 24234, Note_on_c, 0, 58, 51
1, 24266, Note_off_c, 0, 70, 64
1, 24272, Note_off_c, 0, 63, 64
1, 24326, Note_on_c, 0, 75, 74
1, 24348, Note_on_c, 0, 51, 55
1, 24398, Note_off_c, 0, 58, 64
1, 24404, Note_off_c, 0, 51, 64
1, 24442, Note_on_c, 0, 73, 76
1, 24448, Note_on_c, 0, 77, 84
1, 24462, Note_on_c, 0, 67, 87
1, 24500, Note_off_c, 0, 75, 64
1, 24506, Note_on_c, 0, 58, 12
1, 24564, Note_on_c, 0, 70, 70
1, 24566, Note_on_c, 0, 61, 72
1, 24576, Note_off_c, 0, 67, 64
1, 24576, Note_off_c, 0, 58, 64
1, 24586, Note_off_c, 0, 77, 64
1, 24616, Note_off_c, 0, 73, 64
1, 24662, Note_on_c, 0, 58, 38
1, 24698, Note_on_c, 0, 63, 84
1, 24718, Note_off_c, 0, 61, 64
1, 24740, Note_off_c, 0, 63, 64
1, 24748, Note_off_c, 0, 70, 64
1, 24786, Note_on_c, 0, 51, 76
1, 24806, Note_on_c, 0, 75, 76
1, 24836, Note_off_c, 0, 51, 64
1, 24924, Note_on_c, 0, 73, 79
1, 24927, Note_on_c, 0, 67, 87
1, 24927, Note_on_c, 0, 77, 87
1, 24960, Note_off_c, 0, 58, 64
1, 24968, Note_off_c, 0, 75, 64
1, 25032, Note_on_c, 0, 61, 76
1, 25042, Note_on_c, 0, 70, 75
1, 25052, Note_off_c, 0, 67, 64
1, 25058, Note_off_c, 0, 77, 64
1, 25100, Note_off_c, 0, 73, 64
1, 25144, Note_on_c, 0, 58, 50
1, 25170, Note_on_c, 0, 63, 88
1, 25172, Note_off_c, 0, 61, 64
1, 25236, Note_off_c, 0, 70, 64
1, 25251, Note_on_c, 0, 51, 79
1, 25274, Note_off_c, 0, 63, 64
1, 25278, Note_off_c, 0, 58, 64
1, 25286, Note_on_c, 0, 75, 86
1, 25340, Note_off_c, 0, 51, 64
1, 25402, Note_on_c, 0, 61, 97
1, 25412, Note_on_c, 0, 77, 88
1, 25414, Note_on_c, 0, 73, 79
1, 25442, Note_off_c, 0, 75, 64
1, 25540, Note_on_c, 0, 55, 84
1, 25554, Note_on_c, 0, 70, 72
1, 25556, Note_off_c, 0, 77, 64
1, 25564, Note_off_c, 0, 61, 64
1, 25596, Note_off_c, 0, 73, 64
1, 25674, Note_on_c, 0, 51, 81
1, 25677, Note_on_c, 0, 63, 90
1, 25698, Note_off_c, 0, 55, 64
1, 25738, Note_off_c, 0, 70, 64
1, 25764, Note_off_c, 0, 63, 64
1, 25798, Note_on_c, 0, 75, 88
1, 25810, Note_on_c, 0, 46, 79
1, 25838, Note_off_c, 0, 51, 64
1, 25922, Note_off_c, 0, 46, 64
1, 25944, Note_on_c, 0, 73, 83
1, 25944, Note_on_c, 0, 77, 92
1, 25947, Note_on_c, 0, 55, 100
1, 25990, Note_off_c, 0, 75, 64
1, 26104, Note_off_c, 0, 77, 64
1, 26107, Note_on_c, 0, 70, 74
1, 26118, Note_on_c, 0, 49, 89
1, 26142, Note_off_c, 0, 55, 64
1, 26156, Note_off_c, 0, 73, 64
1, 26272, Note_on_c, 0, 46, 84
1, 26278, Note_on_c, 0, 63, 92
1, 26306, Note_off_c, 0, 49, 64
1, 26342, Note_off_c, 0, 70, 64
1, 26372, Note_off_c, 0, 46, 64
1, 26392, Note_off_c, 0, 63, 64
1, 26436, Note_on_c, 0, 39, 90
1, 26446, Note_on_c, 0, 75, 94
1, 26534, Note_off_c, 0, 39, 64
1, 26790, Control_c, 0, 64, 0
1, 26800, Note_on_c, 0, 73, 89
1, 26800, Note_on_c, 0, 77, 101
1, 26803, Note_on_c, 0, 44, 103
1, 26808, Note_on_c, 0, 32, 96
1, 26876, Note_off_c, 0, 75, 64
1, 27022, Note_off_c, 0, 32, 64
1, 27044, Note_off_c, 0, 44, 64
1, 27066, Control_c, 0, 64, 127
1, 27356, Note_on_c, 0, 63, 88
1, 27361, Note_on_c, 0, 60, 74
1, 27366, Note_on_c, 0, 51, 76
1, 27408, Note_off_c, 0, 73, 64
1, 27492, Note_off_c, 0, 51, 64
1, 27526, Note_off_c, 0, 60, 64
1, 27552, Note_off_c, 0, 63, 64
1, 27636, Note_on_c, 0, 72, 84
1, 27636, Note_on_c, 0, 75, 79
1, 27674, Note_off_c, 0, 72, 64
1, 27684, Note_off_c, 0, 75, 64
1, 27724, Note_off_c, 0, 77, 64
1, 27760, Note_on_c, 0, 75, 83
1, 27764, Note_on_c, 0, 68, 88
1, 27768, Note_on_c, 0, 72, 56
1, 27780, Note_on_c, 0, 56, 63
1, 27782, Note_on_c, 0, 60, 67
1, 27788, Control_c, 0, 64, 0
1, 27906, Note_off_c, 0, 68, 64
1, 27948, Note_off_c, 0, 60, 64
1, 27972, Control_c, 0, 64, 127
1, 27996, Note_off_c, 0, 56, 64
1, 28132, Note_on_c, 0, 51, 86
1, 28140, Note_on_c, 0, 39, 83
1, 28182, Note_off_c, 0, 39, 64
1, 28188, Note_off_c, 0, 51, 64
1, 28318, Note_off_c, 0, 72, 64
1, 28464, Control_c, 0, 64, 0
1, 28496, Note_on_c, 0, 56, 92
1, 28502, Note_on_c, 0, 44, 94
1, 28588, Note_off_c, 0, 56, 64
1, 28634, Control_c, 0, 64, 127
1, 28662, Note_off_c, 0, 44, 64
1, 28668, Note_off_c, 0, 75, 64
1, 28824, Note_on_c, 0, 68, 82
1, 28830, Note_on_c, 0, 72, 90
1, 28844, Note_on_c, 0, 39, 85
1, 28848, Note_on_c, 0, 27, 88
1, 28888, Note_off_c, 0, 27, 64
1, 28926, Note_off_c, 0, 68, 64
1, 28926, Note_off_c, 0, 72, 64
1, 28940, Note_off_c, 0, 39, 64
1, 28988, Note_on_c, 0, 73, 87
1, 28988, Note_on_c, 0, 70, 76
1, 29048, Note_off_c, 0, 70, 64
1, 29074, Note_off_c, 0, 73, 64
1, 29110, Control_c, 0, 64, 0
1, 29142, Note_on_c, 0, 44, 100
1, 29144, Note_on_c, 0, 32, 88
1, 29147, Note_on_c, 0, 73, 72
1, 29147, Note_on_c, 0, 77, 103
1, 29208, Note_off_c, 0, 32, 64
1, 29228, Note_off_c, 0, 44, 64
1, 29282, Note_off_c, 0, 73, 64
1, 29294, Control_c, 0, 64, 127
1, 29324, Note_on_c, 0, 75, 83
1, 29326, Note_on_c, 0, 72, 80
1, 29362, Note_off_c, 0, 77, 64
1, 29394, Note_off_c, 0, 72, 64
1, 29424, Note_off_c, 0, 75, 64
1, 29486, Note_on_c, 0, 77, 74
1, 29510, Note_on_c, 0, 63, 75
1, 29522, Note_on_c, 0, 60, 58
1, 29530, Note_on_c, 0, 72, 76
1, 29536, Note_on_c, 0, 51, 54
1, 29540, Control_c, 0, 64, 0
1, 29542, Note_on_c, 0, 75, 76
1, 29618, Note_off_c, 0, 77, 64
1, 29682, Note_off_c, 0, 51, 64
1, 29698, Note_off_c, 0, 72, 64
1, 29706, Note_off_c, 0, 60, 64
1, 29718, Note_off_c, 0, 63, 64
1, 29718, Control_c, 0, 64, 127
1, 29738, Note_on_c, 0, 71, 85
1, 29742, Note_on_c, 0, 74, 90
1, 29776, Note_off_c, 0, 75, 64
1, 29874, Note_off_c, 0, 71, 64
1, 29908, Control_c, 0, 64, 0
1, 29910, Note_on_c, 0, 75, 88
1, 29916, Note_on_c, 0, 72, 80
1, 29924, Note_on_c, 0, 68, 76
1, 29946, Note_on_c, 0, 60, 56
1, 29948, Note_on_c, 0, 56, 47
1, 29956, Note_off_c, 0, 74, 64
1, 30048, Note_off_c, 0, 68, 64
1, 30092, Control_c, 0, 64, 127
1, 30094, Note_off_c, 0, 60, 64
1, 30132, Note_off_c, 0, 56, 64
1, 30314, Note_on_c, 0, 51, 79
1, 30324, Note_on_c, 0, 39, 71
1, 30360, Note_off_c, 0, 51, 64
1, 30368, Note_off_c, 0, 39, 64
1, 30510, Note_off_c, 0, 72, 64
1, 30706, Note_on_c, 0, 56, 86
1, 30710, Note_on_c, 0, 44, 92
1, 30778, Note_off_c, 0, 56, 64
1, 30844, Note_off_c, 0, 44, 64
1, 30990, Note_off_c, 0, 75, 64
1, 31042, Note_on_c, 0, 68, 75
1, 31050, Note_on_c, 0, 72, 84
1, 31054, Note_on_c, 0, 39, 81
1, 31062, Note_on_c, 0, 27, 81
1, 31098, Note_off_c, 0, 27, 64
1, 31116, Note_off_c, 0, 39, 64
1, 31140, Note_off_c, 0, 68, 64
1, 31154, Note_off_c, 0, 72, 64
1, 31208, Note_on_c, 0, 70, 80
1, 31208, Note_on_c, 0, 73, 84
1, 31300, Note_off_c, 0, 70, 64
1, 31302, Note_off_c, 0, 73, 64
1, 31338, Control_c, 0, 64, 0
1, 31360, Note_on_c, 0, 73, 76
1, 31362, Note_on_c, 0, 44, 98
1, 31366, Note_on_c, 0, 77, 99
1, 31366, Note_on_c, 0, 32, 86
1, 31434, Note_off_c, 0, 32, 64
1, 31460, Note_off_c, 0, 44, 64
1, 31508, Control_c, 0, 64, 127
1, 31526, Note_off_c, 0, 73, 64
1, 31530, Note_on_c, 0, 75, 84
1, 31532, Note_on_c, 0, 72, 77
1, 31572, Note_off_c, 0, 77, 64
1, 31596, Note_off_c, 0, 72, 64
1, 31624, Note_off_c, 0, 75, 64
1, 31670, Note_on_c, 0, 77, 78
1, 31698, Note_on_c, 0, 63, 83
1, 31702, Note_on_c, 0, 72, 79
1, 31716, Note_on_c, 0, 75, 61
1, 31719, Note_on_c, 0, 60, 55
1, 31719, Note_on_c, 0, 51, 65
1, 31792, Note_off_c, 0, 60, 64
1, 31794, Note_off_c, 0, 51, 64
1, 31798, Note_off_c, 0, 63, 64
1, 31838, Note_off_c, 0, 77, 64
1, 31841, Note_off_c, 0, 72, 64
1, 31854, Note_on_c, 0, 71, 92
1, 31860, Note_on_c, 0, 74, 98
1, 31930, Note_off_c, 0, 75, 64
1, 31982, Note_off_c, 0, 71, 64
1, 31998, Control_c, 0, 64, 0
1, 32020, Note_on_c, 0, 73, 85
1, 32022, Note_on_c, 0, 77, 97
1, 32025, Note_off_c, 0, 74, 64
1, 32028, Note_on_c, 0, 68, 83
1, 32054, Note_on_c, 0, 60, 63
1, 32057, Note_on_c, 0, 56, 52
1, 32134, Note_off_c, 0, 68, 64
1, 32154, Note_off_c, 0, 60, 64
1, 32178, Note_off_c, 0, 73, 64
1, 32182, Control_c, 0, 64, 127
1, 32194, Note_off_c, 0, 56, 64
1, 32210, Note_on_c, 0, 75, 81
1, 32212, Note_on_c, 0, 72, 79
1, 32238, Note_off_c, 0, 77, 64
1, 32306, Note_off_c, 0, 72, 64
1, 32320, Note_off_c, 0, 75, 64
1, 32342, Note_on_c, 0, 77, 74
1, 32364, Note_on_c, 0, 72, 80
1, 32367, Note_on_c, 0, 51, 73
1, 32374, Note_on_c, 0, 39, 74
1, 32388, Note_on_c, 0, 75, 69
1, 32412, Note_off_c, 0, 51, 64
1, 32420, Note_off_c, 0, 39, 64
1, 32492, Note_off_c, 0, 72, 64
1, 32502, Note_off_c, 0, 77, 64
1, 32518, Note_on_c, 0, 71, 88
1, 32524, Note_on_c, 0, 74, 94
1, 32564, Note_off_c, 0, 75, 64
1, 32598, Control_c, 0, 64, 0
1, 32634, Note_off_c, 0, 74, 64
1, 32636, Note_off_c, 0, 71, 64
1, 32668, Note_on_c, 0, 56, 78
1, 32678, Note_on_c, 0, 44, 79
1, 32680, Note_on_c, 0, 75, 79
1, 32680, Note_on_c, 0, 72, 76
1, 32724, Note_off_c, 0, 56, 64
1, 32734, Note_off_c, 0, 44, 64
1, 32758, Note_off_c, 0, 72, 64
1, 32796, Control_c, 0, 64, 127
1, 32846, Note_on_c, 0, 63, 79
1, 32852, Note_off_c, 0, 75, 64
1, 32858, Note_on_c, 0, 39, 75
1, 32886, Note_on_c, 0, 46, 48
1, 32894, Note_off_c, 0, 63, 64
1, 32924, Note_on_c, 0, 70, 55
1, 32950, Control_c, 0, 64, 0
1, 32982, Note_off_c, 0, 39, 64
1, 33000, Note_on_c, 0, 54, 90
1, 33008, Note_on_c, 0, 78, 94
1, 33090, Control_c, 0, 64, 127
1, 33114, Note_off_c, 0, 54, 64
1, 33138, Note_off_c, 0, 46, 64
1, 33156, Note_off_c, 0, 78, 64
1, 33200, Note_off_c, 0, 70, 64
1, 33206, Note_on_c, 0, 41, 82
1, 33208, Note_on_c, 0, 63, 75
1, 33256, Note_on_c, 0, 48, 38
1, 33270, Note_off_c, 0, 63, 64
1, 33314, Note_on_c, 0, 69, 55
1, 33320, Control_c, 0, 64, 0
1, 33320, Note_on_c, 0, 51, 70
1, 33326, Note_off_c, 0, 41, 64
1, 33380, Note_on_c, 0, 77, 99
1, 33388, Note_on_c, 0, 57, 76
1, 33400, Note_off_c, 0, 48, 64
1, 33446, Note_off_c, 0, 51, 64
1, 33466, Note_off_c, 0, 57, 64
1, 33474, Control_c, 0, 64, 127
1, 33504, Note_off_c, 0, 69, 64
1, 33548, Note_off_c, 0, 77, 64
1, 33682, Note_on_c, 0, 63, 77
1, 33688, Note_on_c, 0, 69, 66
1, 33690, Note_on_c, 0, 72, 90
1, 33694, Note_on_c, 0, 65, 69
1, 33706, Note_on_c, 0, 57, 41
1, 33718, Note_on_c, 0, 53, 55
1, 33732, Note_off_c, 0, 63, 64
1, 33752, Note_off_c, 0, 65, 64
1, 33758, Note_off_c, 0, 57, 64
1, 33774, Note_off_c, 0, 53, 64
1, 33806, Note_off_c, 0, 69, 64
1, 33890, Note_on_c, 0, 46, 36
1, 33908, Note_on_c, 0, 44, 52
1, 33950, Control_c, 0, 64, 0
1, 33962, Note_off_c, 0, 44, 64
1, 33970, Note_on_c, 0, 53, 87
1, 34032, Note_off_c, 0, 72, 64
1, 34042, Note_on_c, 0, 73, 86
1, 34042, Note_on_c, 0, 70, 67
1, 34042, Note_on_c, 0, 65, 83
1, 34050, Note_off_c, 0, 46, 64
1, 34062, Note_on_c, 0, 61, 90
1, 34118, Control_c, 0, 64, 127
1, 34130, Note_off_c, 0, 53, 64
1, 34154, Note_off_c, 0, 65, 64
1, 34154, Note_off_c, 0, 61, 64
1, 34157, Note_off_c, 0, 73, 64
1, 34164, Note_off_c, 0, 70, 64
1, 34394, Note_on_c, 0, 66, 72
1, 34404, Note_on_c, 0, 42, 77
1, 34407, Note_on_c, 0, 30, 78
1, 34468, Note_off_c, 0, 30, 64
1, 34496, Note_off_c, 0, 66, 64
1, 34496, Note_on_c, 0, 54, 92
1, 34520, Note_off_c, 0, 42, 64
1, 34596, Note_on_c, 0, 66, 53
1, 34654, Note_off_c, 0, 54, 64
1, 34700, Note_on_c, 0, 65, 88
1, 34704, Control_c, 0, 64, 0
1, 34704, Note_on_c, 0, 41, 90
1, 34704, Note_on_c, 0, 53, 103
1, 34707, Note_on_c, 0, 29, 85
1, 34728, Note_off_c, 0, 66, 64
1, 34822, Note_off_c, 0, 29, 64
1, 34854, Note_off_c, 0, 41, 64
1, 34860, Control_c, 0, 64, 127
1, 34932, Note_off_c, 0, 53, 64
1, 34996, Note_off_c, 0, 65, 64
1, 35062, Note_on_c, 0, 61, 92
1, 35070, Note_on_c, 0, 49, 88
1, 35078, Note_on_c, 0, 37, 83
1, 35158, Note_off_c, 0, 61, 64
1, 35338, Note_on_c, 0, 66, 82
1, 35350, Note_off_c, 0, 49, 64
1, 35394, Note_off_c, 0, 37, 64
1, 35456, Control_c, 0, 64, 0
1, 35480, Note_on_c, 0, 78, 99
1, 35494, Note_on_c, 0, 46, 74
1, 35496, Note_on_c, 0, 75, 83
1, 35502, Note_on_c, 0, 34, 79
1, 35542, Note_off_c, 0, 66, 64
1, 35694, Note_off_c, 0, 34, 64
1, 35730, Note_off_c, 0, 46, 64
1, 35733, Control_c, 0, 64, 127
1, 36046, Note_on_c, 0, 65, 76
1, 36056, Note_on_c, 0, 61, 56
1, 36064, Note_on_c, 0, 53, 77
1, 36184, Note_off_c, 0, 75, 64
1, 36187, Note_off_c, 0, 53, 64
1, 36198, Note_off_c, 0, 65, 64
1, 36238, Note_off_c, 0, 78, 64
1, 36241, Note_off_c, 0, 61, 64
1, 36278, Note_on_c, 0, 77, 85
1, 36280, Note_on_c, 0, 73, 65
1, 36320, Note_off_c, 0, 73, 64
1, 36325, Note_off_c, 0, 77, 64
1, 36394, Control_c, 0, 64, 0
1, 36430, Note_on_c, 0, 73, 52
1, 36430, Note_on_c, 0, 77, 88
1, 36444, Note_on_c, 0, 70, 73
1, 36458, Note_on_c, 0, 58, 43
1, 36468, Note_on_c, 0, 61, 53
1, 36560, Note_off_c, 0, 70, 64
1, 36592, Control_c, 0, 64, 127
1, 36604, Note_off_c, 0, 61, 64
1, 36638, Note_off_c, 0, 58, 64
1, 36834, Note_on_c, 0, 53, 95
1, 36842, Note_on_c, 0, 41, 70
1, 37020, Note_off_c, 0, 41, 64
1, 37072, Note_off_c, 0, 53, 64
1, 37208, Control_c, 0, 64, 0
1, 37248, Note_on_c, 0, 58, 81
1, 37254, Note_on_c, 0, 46, 78
1, 37350, Note_off_c, 0, 73, 64
1, 37360, Control_c, 0, 64, 127
1, 37362, Note_off_c, 0, 58, 64
1, 37418, Note_off_c, 0, 77, 64
1, 37436, Note_off_c, 0, 46, 64
1, 37586, Note_on_c, 0, 70, 77
1, 37586, Note_on_c, 0, 73, 84
1, 37610, Note_on_c, 0, 41, 86
1, 37610, Note_on_c, 0, 29, 84
1, 37648, Note_off_c, 0, 29, 64
1, 37658, Note_off_c, 0, 70, 64
1, 37660, Note_off_c, 0, 41, 64
1, 37730, Note_off_c, 0, 73, 64
1, 37754, Note_on_c, 0, 75, 88
1, 37757, Note_on_c, 0, 72, 86
1, 37844, Note_off_c, 0, 72, 64
1, 37866, Note_off_c, 0, 75, 64
1, 37882, Control_c, 0, 64, 0
1, 37924, Note_on_c, 0, 75, 87
1, 37924, Note_on_c, 0, 46, 75
1, 37927, Note_on_c, 0, 78, 95
1, 37940, Note_on_c, 0, 34, 81
1, 37982, Note_off_c, 0, 34, 64
1, 38024, Note_off_c, 0, 46, 64
1, 38076, Note_off_c, 0, 75, 64
1, 38098, Control_c, 0, 64, 127
1, 38104, Note_on_c, 0, 77, 91
1, 38110, Note_on_c, 0, 73, 73
1, 38160, Note_off_c, 0, 78, 64
1, 38182, Note_off_c, 0, 73, 64
1, 38202, Note_off_c, 0, 77, 64
1, 38270, Note_on_c, 0, 78, 77
1, 38318, Note_on_c, 0, 73, 72
1, 38320, Note_on_c, 0, 61, 55
1, 38322, Note_on_c, 0, 77, 73
1, 38334, Note_on_c, 0, 65, 31
1, 38340, Note_on_c, 0, 53, 81
1, 38370, Note_on_c, 0, 64, 20
1, 38422, Note_off_c, 0, 78, 64
1, 38422, Note_off_c, 0, 53, 64
1, 38430, Note_off_c, 0, 64, 64
1, 38434, Note_off_c, 0, 65, 64
1, 38452, Note_off_c, 0, 73, 64
1, 38474, Note_off_c, 0, 61, 64
1, 38506, Note_on_c, 0, 76, 88
1, 38512, Note_on_c, 0, 72, 81
1, 38562, Note_off_c, 0, 77, 64
1, 38634, Note_off_c, 0, 72, 64
1, 38637, Control_c, 0, 64, 0
1, 38694, Note_on_c, 0, 70, 66
1, 38702, Note_on_c, 0, 77, 93
1, 38706, Note_on_c, 0, 73, 73
1, 38712, Note_on_c, 0, 58, 39
1, 38718, Note_on_c, 0, 61, 63
1, 38772, Note_off_c, 0, 76, 64
1, 38786, Note_off_c, 0, 70, 64
1, 38836, Control_c, 0, 64, 127
1, 38850, Note_off_c, 0, 61, 64
1, 38854, Note_off_c, 0, 58, 64
1, 39060, Note_on_c, 0, 53, 101
1, 39065, Note_on_c, 0, 41, 85
1, 39118, Note_off_c, 0, 41, 64
1, 39128, Note_off_c, 0, 53, 64
1, 39454, Note_on_c, 0, 58, 70
1, 39457, Note_on_c, 0, 46, 79
1, 39464, Note_off_c, 0, 73, 64
1, 39512, Control_c, 0, 64, 0
1, 39666, Note_off_c, 0, 58, 64
1, 39696, Control_c, 0, 64, 127
1, 39740, Note_off_c, 0, 46, 64
1, 39782, Note_off_c, 0, 77, 64
1, 39900, Note_on_c, 0, 46, 74
1, 39902, Note_on_c, 0, 79, 103
1, 39906, Note_on_c, 0, 67, 89
1, 39908, Note_on_c, 0, 73, 75
1, 39910, Note_on_c, 0, 34, 78
1, 39984, Note_off_c, 0, 67, 64
1, 39996, Note_off_c, 0, 73, 64
1, 40140, Note_on_c, 0, 80, 97
1, 40148, Note_off_c, 0, 46, 64
1, 40148, Note_on_c, 0, 68, 69
1, 40196, Note_off_c, 0, 79, 64
1, 40196, Note_off_c, 0, 68, 64
1, 40260, Note_off_c, 0, 34, 64
1, 40342, Control_c, 0, 64, 0
1, 40342, Note_on_c, 0, 84, 108
1, 40345, Note_on_c, 0, 72, 89
1, 40350, Note_on_c, 0, 39, 88
1, 40360, Note_on_c, 0, 27, 95
1, 40410, Note_off_c, 0, 80, 64
1, 40484, Note_off_c, 0, 27, 64
1, 40524, Note_off_c, 0, 39, 64
1, 40557, Control_c, 0, 64, 127
1, 40600, Note_on_c, 0, 79, 95
1, 40608, Note_on_c, 0, 75, 69
1, 40644, Note_off_c, 0, 84, 64
1, 40688, Note_off_c, 0, 72, 64
1, 40784, Note_off_c, 0, 75, 64
1, 40880, Note_on_c, 0, 84, 101
1, 40883, Note_on_c, 0, 72, 85
1, 40898, Note_on_c, 0, 67, 79
1, 40898, Note_on_c, 0, 63, 67
1, 40901, Note_on_c, 0, 61, 68
1, 40960, Note_off_c, 0, 79, 64
1, 40982, Note_off_c, 0, 72, 64
1, 40996, Note_off_c, 0, 84, 64
1, 41070, Note_off_c, 0, 67, 64
1, 41124, Note_off_c, 0, 63, 64
1, 41127, Note_off_c, 0, 61, 64
1, 41230, Note_on_c, 0, 70, 70
1, 41240, Note_on_c, 0, 82, 52
1, 41270, Note_off_c, 0, 70, 64
1, 41292, Note_off_c, 0, 82, 64
1, 41310, Control_c, 0, 64, 0
1, 41344, Note_on_c, 0, 82, 73
1, 41352, Note_on_c, 0, 70, 44
1, 41368, Note_on_c, 0, 51, 61
1, 41478, Control_c, 0, 64, 127
1, 41494, Note_off_c, 0, 82, 64
1, 41556, Note_off_c, 0, 70, 64
1, 41580, Note_on_c, 0, 72, 77
1, 41584, Note_off_c, 0, 51, 64
1, 41590, Note_on_c, 0, 75, 70
1, 41624, Note_off_c, 0, 72, 64
1, 41712, Note_off_c, 0, 75, 64
1, 41760, Note_on_c, 0, 82, 86
1, 41768, Note_on_c, 0, 70, 72
1, 41782, Note_on_c, 0, 63, 65
1, 41798, Note_off_c, 0, 82, 64
1, 41804, Note_on_c, 0, 60, 45
1, 41814, Note_off_c, 0, 70, 64
1, 41954, Note_off_c, 0, 63, 64
1, 41986, Note_off_c, 0, 60, 64
1, 42038, Note_on_c, 0, 80, 83
1, 42040, Note_on_c, 0, 68, 83
1, 42072, Note_off_c, 0, 80, 64
1, 42078, Note_off_c, 0, 68, 64
1, 42130, Note_on_c, 0, 80, 68
1, 42140, Note_on_c, 0, 68, 56
1, 42154, Note_on_c, 0, 51, 59
1, 42334, Note_on_c, 0, 75, 76
1, 42336, Note_on_c, 0, 70, 69
1, 42350, Note_off_c, 0, 68, 64
1, 42372, Note_off_c, 0, 80, 64
1, 42468, Note_off_c, 0, 70, 64
1, 42508, Control_c, 0, 64, 0
1, 42518, Note_on_c, 0, 80, 81
1, 42518, Note_on_c, 0, 68, 73
1, 42521, Note_on_c, 0, 63, 60
1, 42540, Note_on_c, 0, 58, 50
1, 42626, Note_off_c, 0, 63, 64
1, 42646, Control_c, 0, 64, 127
1, 42660, Note_off_c, 0, 68, 64
1, 42678, Note_off_c, 0, 80, 64
1, 42681, Note_off_c, 0, 58, 64
1, 42692, Note_off_c, 0, 75, 64
1, 42714, Note_off_c, 0, 51, 64
1, 42764, Note_on_c, 0, 79, 89
1, 42774, Note_on_c, 0, 67, 65
1, 42802, Note_off_c, 0, 79, 64
1, 42824, Note_off_c, 0, 67, 64
1, 42846, Control_c, 0, 64, 0
1, 42856, Note_on_c, 0, 79, 92
1, 42876, Note_on_c, 0, 67, 80
1, 42888, Note_on_c, 0, 46, 52
1, 42922, Note_on_c, 0, 44, 21
1, 42980, Note_off_c, 0, 44, 64
1, 43000, Control_c, 0, 64, 127
1, 43064, Note_on_c, 0, 74, 82
1, 43066, Note_on_c, 0, 70, 56
1, 43076, Note_off_c, 0, 79, 64
1, 43084, Note_off_c, 0, 46, 64
1, 43100, Note_off_c, 0, 67, 64
1, 43194, Note_off_c, 0, 70, 64
1, 43232, Note_on_c, 0, 79, 98
1, 43232, Note_on_c, 0, 67, 88
1, 43248, Note_on_c, 0, 56, 41
1, 43250, Note_on_c, 0, 62, 48
1, 43264, Note_on_c, 0, 58, 23
1, 43272, Note_off_c, 0, 74, 64
1, 43336, Note_off_c, 0, 79, 64
1, 43336, Note_off_c, 0, 67, 64
1, 43339, Note_off_c, 0, 62, 64
1, 43394, Note_off_c, 0, 58, 64
1, 43410, Note_off_c, 0, 56, 64
1, 43484, Note_on_c, 0, 77, 76
1, 43490, Note_on_c, 0, 65, 57
1, 43520, Note_off_c, 0, 77, 64
1, 43538, Note_off_c, 0, 65, 64
1, 43552, Control_c, 0, 64, 0
1, 43570, Note_on_c, 0, 77, 92
1, 43588, Note_on_c, 0, 65, 84
1, 43602, Note_on_c, 0, 51, 55
1, 43690, Note_off_c, 0, 77, 64
1, 43708, Control_c, 0, 64, 127
1, 43772, Note_on_c, 0, 70, 73
1, 43775, Note_off_c, 0, 65, 64
1, 43782, Note_on_c, 0, 67, 73
1, 43810, Note_off_c, 0, 51, 64
1, 43824, Note_off_c, 0, 67, 64
1, 43884, Note_off_c, 0, 70, 64
1, 43930, Note_on_c, 0, 77, 100
1, 43934, Note_on_c, 0, 65, 78
1, 43948, Note_on_c, 0, 58, 48
1, 43972, Note_off_c, 0, 77, 64
1, 43972, Note_on_c, 0, 55, 57
1, 43975, Note_off_c, 0, 65, 64
1, 44024, Note_off_c, 0, 55, 64
1, 44042, Note_off_c, 0, 58, 64
1, 44198, Note_on_c, 0, 75, 88
1, 44201, Note_on_c, 0, 63, 93
1, 44232, Note_off_c, 0, 75, 64
1, 44240, Note_off_c, 0, 63, 64
1, 44322, Control_c, 0, 64, 0
1, 44325, Note_on_c, 0, 73, 84
1, 44338, Note_on_c, 0, 61, 76
1, 44352, Note_on_c, 0, 41, 54
1, 44520, Control_c, 0, 64, 127
1, 44526, Note_off_c, 0, 41, 64
1, 44548, Note_on_c, 0, 68, 76
1, 44558, Note_on_c, 0, 65, 61
1, 44592, Note_off_c, 0, 61, 64
1, 44606, Note_off_c, 0, 73, 64
1, 44734, Note_off_c, 0, 65, 64
1, 44758, Note_on_c, 0, 56, 39
1, 44782, Note_on_c, 0, 53, 61
1, 44800, Note_on_c, 0, 73, 79
1, 44808, Note_on_c, 0, 61, 74
1, 44838, Note_off_c, 0, 68, 64
1, 44858, Note_off_c, 0, 53, 64
1, 44892, Note_off_c, 0, 56, 64
1, 44908, Note_off_c, 0, 61, 64
1, 44948, Note_off_c, 0, 73, 64
1, 45120, Note_on_c, 0, 72, 80
1, 45176, Note_off_c, 0, 72, 64
1, 45196, Control_c, 0, 64, 0
1, 45238, Note_on_c, 0, 65, 92
1, 45262, Note_on_c, 0, 49, 48
1, 45266, Note_on_c, 0, 37, 49
1, 45430, Note_off_c, 0, 37, 64
1, 45438, Note_off_c, 0, 49, 64
1, 45457, Control_c, 0, 64, 127
1, 45692, Note_on_c, 0, 58, 37
1, 45726, Note_on_c, 0, 53, 51
1, 45750, Note_off_c, 0, 58, 64
1, 45784, Note_off_c, 0, 53, 64
1, 46020, Note_off_c, 0, 65, 64
1, 46042, Control_c, 0, 64, 0
1, 46080, Note_on_c, 0, 67, 81
1, 46084, Note_on_c, 0, 36, 67
1, 46090, Note_on_c, 0, 48, 48
1, 46124, Note_off_c, 0, 67, 64
1, 46130, Note_on_c, 0, 68, 69
1, 46132, Note_off_c, 0, 36, 64
1, 46150, Note_off_c, 0, 48, 64
1, 46202, Note_off_c, 0, 68, 64
1, 46206, Note_on_c, 0, 67, 51
1, 46210, Control_c, 0, 64, 127
1, 46264, Note_off_c, 0, 67, 64
1, 46270, Note_on_c, 0, 68, 65
1, 46338, Note_on_c, 0, 67, 50
1, 46382, Note_off_c, 0, 68, 64
1, 46434, Note_on_c, 0, 58, 56
1, 46438, Note_on_c, 0, 65, 82
1, 46442, Note_on_c, 0, 60, 49
1, 46466, Note_off_c, 0, 67, 64
1, 46498, Note_off_c, 0, 60, 64
1, 46508, Note_off_c, 0, 58, 64
1, 46644, Note_on_c, 0, 67, 94
1, 46704, Note_off_c, 0, 65, 64
1, 46810, Control_c, 0, 64, 0
1, 46834, Note_on_c, 0, 68, 77
1, 46834, Note_on_c, 0, 29, 83
1, 46844, Note_on_c, 0, 41, 67
1, 46856, Note_off_c, 0, 67, 64
1, 46890, Note_off_c, 0, 29, 64
1, 46900, Note_on_c, 0, 70, 62
1, 46936, Note_off_c, 0, 68, 64
1, 46946, Note_off_c, 0, 41, 64
1, 46958, Note_off_c, 0, 70, 64
1, 46978, Control_c, 0, 64, 127
1, 46988, Note_on_c, 0, 68, 69
1, 47030, Note_off_c, 0, 68, 64
1, 47044, Note_on_c, 0, 70, 44
1, 47082, Note_on_c, 0, 68, 70
1, 47102, Note_off_c, 0, 70, 64
1, 47162, Note_on_c, 0, 70, 67
1, 47190, Note_off_c, 0, 68, 64
1, 47244, Note_on_c, 0, 68, 80
1, 47338, Note_on_c, 0, 67, 88
1, 47341, Note_off_c, 0, 70, 64
1, 47341, Note_on_c, 0, 60, 45
1, 47344, Note_on_c, 0, 56, 34
1, 47356, Note_on_c, 0, 53, 69
1, 47392, Note_off_c, 0, 68, 64
1, 47426, Note_off_c, 0, 60, 64
1, 47426, Note_off_c, 0, 53, 64
1, 47464, Note_off_c, 0, 56, 64
1, 47506, Note_off_c, 0, 67, 64
1, 47524, Note_on_c, 0, 68, 86
1, 47716, Control_c, 0, 64, 0
1, 47738, Note_on_c, 0, 69, 85
1, 47752, Note_on_c, 0, 67, 60
1, 47764, Note_on_c, 0, 61, 61
1, 47764, Note_on_c, 0, 39, 46
1, 47767, Note_on_c, 0, 51, 47
1, 47772, Note_off_c, 0, 68, 64
1, 47896, Note_off_c, 0, 67, 64
1, 47932, Note_off_c, 0, 39, 64
1, 47932, Control_c, 0, 64, 127
1, 47938, Note_off_c, 0, 51, 64
1, 47962, Note_on_c, 0, 70, 83
1, 47992, Note_off_c, 0, 69, 64
1, 47992, Note_off_c, 0, 61, 64
1, 48136, Note_off_c, 0, 70, 64
1, 48144, Note_on_c, 0, 72, 87
1, 48162, Note_on_c, 0, 61, 72
1, 48165, Note_on_c, 0, 67, 74
1, 48168, Note_on_c, 0, 58, 49
1, 48184, Note_on_c, 0, 51, 43
1, 48232, Note_off_c, 0, 67, 64
1, 48268, Note_off_c, 0, 58, 64
1, 48278, Note_off_c, 0, 61, 64
1, 48316, Note_off_c, 0, 51, 64
1, 48344, Note_on_c, 0, 73, 89
1, 48368, Note_off_c, 0, 72, 64
1, 48476, Note_off_c, 0, 73, 64
1, 48530, Control_c, 0, 64, 0
1, 48556, Note_on_c, 0, 72, 86
1, 48562, Note_on_c, 0, 68, 67
1, 48566, Note_on_c, 0, 56, 48
1, 48568, Note_on_c, 0, 44, 56
1, 48574, Note_on_c, 0, 60, 72
1, 48584, Note_on_c, 0, 51, 45
1, 48668, Note_off_c, 0, 60, 64
1, 48682, Note_off_c, 0, 56, 64
1, 48684, Note_off_c, 0, 44, 64
1, 48700, Control_c, 0, 64, 127
1, 48713, Note_off_c, 0, 51, 64
1, 48756, Note_off_c, 0, 72, 64
1, 48772, Note_off_c, 0, 68, 64
1, 48978, Note_on_c, 0, 77, 95
1, 48981, Note_on_c, 0, 62, 60
1, 48984, Note_on_c, 0, 68, 72
1, 48992, Note_on_c, 0, 65, 53
1, 49004, Note_on_c, 0, 59, 40
1, 49112, Note_off_c, 0, 59, 64
1, 49188, Note_off_c, 0, 62, 64
1, 49210, Note_off_c, 0, 65, 64
1, 49270, Note_off_c, 0, 77, 64
1, 49322, Note_on_c, 0, 63, 64
1, 49334, Note_on_c, 0, 60, 47
1, 49342, Note_on_c, 0, 75, 62
1, 49354, Note_off_c, 0, 68, 64
1, 49364, Note_off_c, 0, 63, 64
1, 49384, Note_off_c, 0, 75, 64
1, 49390, Note_off_c, 0, 60, 64
1, 49406, Control_c, 0, 64, 0
1, 49428, Note_on_c, 0, 75, 87
1, 49432, Note_on_c, 0, 63, 64
1, 49456, Note_on_c, 0, 60, 75
1, 49592, Control_c, 0, 64, 127
1, 49606, Note_off_c, 0, 63, 64
1, 49612, Note_off_c, 0, 60, 64
1, 49624, Note_on_c, 0, 68, 84
1, 49710, Note_off_c, 0, 75, 64
1, 49808, Note_on_c, 0, 80, 92
1, 49840, Note_on_c, 0, 44, 45
1, 49898, Note_off_c, 0, 44, 64
1, 49990, Note_off_c, 0, 68, 64
1, 50028, Note_off_c, 0, 80, 64
1, 50150, Note_on_c, 0, 79, 91
1, 50152, Note_on_c, 0, 67, 89
1, 50184, Note_off_c, 0, 79, 64
1, 50192, Note_off_c, 0, 67, 64
1, 50236, Control_c, 0, 64, 0
1, 50266, Note_on_c, 0, 77, 103
1, 50269, Note_on_c, 0, 65, 97
1, 50272, Note_on_c, 0, 49, 78
1, 50284, Note_on_c, 0, 37, 74
1, 50452, Note_off_c, 0, 37, 64
1, 50480, Note_off_c, 0, 49, 64
1, 50514, Control_c, 0, 64, 127
1, 50646, Note_off_c, 0, 65, 64
1, 50692, Note_on_c, 0, 58, 68
1, 50704, Note_on_c, 0, 53, 98
1, 50782, Note_off_c, 0, 53, 64
1, 50788, Note_off_c, 0, 58, 64
1, 51050, Control_c, 0, 64, 0
1, 51088, Note_on_c, 0, 67, 94
1, 51091, Note_on_c, 0, 48, 84
1, 51100, Note_on_c, 0, 36, 84
1, 51134, Note_off_c, 0, 36, 64
1, 51155, Note_off_c, 0, 48, 64
1, 51158, Note_off_c, 0, 77, 64
1, 51190, Note_off_c, 0, 67, 64
1, 51204, Control_c, 0, 64, 127
1, 51282, Note_on_c, 0, 79, 87
1, 51334, Note_off_c, 0, 79, 64
1, 51358, Note_on_c, 0, 80, 75
1, 51404, Note_on_c, 0, 79, 86
1, 51458, Note_off_c, 0, 79, 64
1, 51472, Note_off_c, 0, 80, 64
1, 51558, Note_on_c, 0, 64, 67
1, 51566, Note_on_c, 0, 58, 48
1, 51566, Note_on_c, 0, 77, 92
1, 51570, Note_on_c, 0, 65, 81
1, 51582, Note_on_c, 0, 60, 37
1, 51600, Note_off_c, 0, 64, 64
1, 51608, Note_off_c, 0, 65, 64
1, 51626, Note_off_c, 0, 58, 64
1, 51644, Note_off_c, 0, 60, 64
1, 51650, Note_off_c, 0, 77, 64
1, 51760, Note_on_c, 0, 79, 103
1, 51770, Note_on_c, 0, 67, 80
1, 51796, Note_on_c, 0, 69, 42
1, 51820, Note_off_c, 0, 67, 64
1, 51842, Note_off_c, 0, 79, 64
1, 51870, Note_off_c, 0, 69, 64
1, 51942, Control_c, 0, 64, 0
1, 51964, Note_on_c, 0, 68, 100
1, 51976, Note_on_c, 0, 41, 101
1, 51984, Note_on_c, 0, 29, 93
1, 52016, Note_off_c, 0, 29, 64
1, 52024, Note_off_c, 0, 41, 64
1, 52104, Note_off_c, 0, 68, 64
1, 52112, Control_c, 0, 64, 127
1, 52144, Note_on_c, 0, 80, 71
1, 52188, Note_off_c, 0, 80, 64
1, 52190, Note_on_c, 0, 82, 64
1, 52278, Note_on_c, 0, 80, 59
1, 52340, Note_off_c, 0, 82, 64
1, 52370, Note_off_c, 0, 80, 64
1, 52396, Note_on_c, 0, 67, 86
1, 52400, Note_on_c, 0, 79, 94
1, 52408, Note_on_c, 0, 65, 69
1, 52408, Note_on_c, 0, 56, 62
1, 52424, Note_on_c, 0, 60, 57
1, 52456, Note_off_c, 0, 65, 64
1, 52468, Note_off_c, 0, 67, 64
1, 52504, Note_off_c, 0, 79, 64
1, 52510, Note_off_c, 0, 60, 64
1, 52576, Note_off_c, 0, 56, 64
1, 52580, Note_on_c, 0, 80, 92
1, 52584, Note_on_c, 0, 68, 87
1, 52674, Note_off_c, 0, 80, 64
1, 52692, Note_off_c, 0, 68, 64
1, 52710, Control_c, 0, 64, 0
1, 52764, Note_on_c, 0, 81, 103
1, 52768, Note_on_c, 0, 69, 92
1, 52774, Note_on_c, 0, 39, 84
1, 52778, Note_on_c, 0, 51, 79
1, 52783, Note_on_c, 0, 75, 64
1, 52810, Note_off_c, 0, 39, 64
1, 52820, Note_off_c, 0, 51, 64
1, 52848, Note_off_c, 0, 81, 64
1, 52876, Note_off_c, 0, 69, 64
1, 52880, Control_c, 0, 64, 127
1, 52894, Note_off_c, 0, 75, 64
1, 52966, Note_on_c, 0, 82, 91
1, 52966, Note_on_c, 0, 70, 84
1, 53050, Note_off_c, 0, 70, 64
1, 53060, Note_off_c, 0, 82, 64
1, 53150, Note_on_c, 0, 84, 95
1, 53153, Note_on_c, 0, 79, 87
1, 53156, Note_on_c, 0, 72, 91
1, 53158, Note_on_c, 0, 61, 62
1, 53160, Note_on_c, 0, 67, 79
1, 53160, Note_on_c, 0, 58, 55
1, 53168, Note_on_c, 0, 63, 60
1, 53212, Note_off_c, 0, 72, 64
1, 53236, Note_off_c, 0, 84, 64
1, 53244, Note_off_c, 0, 63, 64
1, 53260, Note_off_c, 0, 67, 64
1, 53310, Note_off_c, 0, 79, 64
1, 53332, Note_on_c, 0, 85, 92
1, 53336, Note_on_c, 0, 73, 86
1, 53368, Note_off_c, 0, 58, 64
1, 53400, Note_off_c, 0, 61, 64
1, 53456, Note_off_c, 0, 73, 64
1, 53462, Note_off_c, 0, 85, 64
1, 53462, Control_c, 0, 64, 0
1, 53510, Note_on_c, 0, 68, 88
1, 53515, Note_on_c, 0, 84, 108
1, 53515, Note_on_c, 0, 72, 105
1, 53518, Note_on_c, 0, 80, 87
1, 53526, Note_on_c, 0, 56, 74
1, 53526, Note_on_c, 0, 63, 75
1, 53590, Note_off_c, 0, 56, 64
1, 53590, Note_off_c, 0, 63, 64
1, 53618, Control_c, 0, 64, 127
1, 53626, Note_off_c, 0, 72, 64
1, 53628, Note_off_c, 0, 80, 64
1, 53631, Note_off_c, 0, 68, 64
1, 53678, Note_off_c, 0, 84, 64
1, 53884, Note_on_c, 0, 89, 103
1, 53888, Note_on_c, 0, 80, 90
1, 53890, Note_on_c, 0, 77, 97
1, 53890, Note_on_c, 0, 71, 89
1, 53892, Note_on_c, 0, 68, 71
1, 53908, Note_on_c, 0, 59, 60
1, 53908, Control_c, 0, 64, 0
1, 53916, Note_on_c, 0, 62, 63
1, 54034, Note_off_c, 0, 77, 64
1, 54036, Note_off_c, 0, 89, 64
1, 54058, Note_off_c, 0, 59, 64
1, 54070, Control_c, 0, 64, 127
1, 54072, Note_off_c, 0, 71, 64
1, 54082, Note_off_c, 0, 68, 64
1, 54082, Note_off_c, 0, 62, 64
1, 54106, Note_off_c, 0, 80, 64
1, 54218, Note_on_c, 0, 87, 76
1, 54228, Note_on_c, 0, 75, 82
1, 54236, Note_on_c, 0, 72, 78
1, 54240, Note_on_c, 0, 63, 68
1, 54244, Note_on_c, 0, 60, 51
1, 54254, Note_off_c, 0, 87, 64
1, 54264, Note_off_c, 0, 75, 64
1, 54274, Note_off_c, 0, 72, 64
1, 54278, Control_c, 0, 64, 0
1, 54280, Note_off_c, 0, 63, 64
1, 54304, Note_off_c, 0, 60, 64
1, 54320, Note_on_c, 0, 87, 71
1, 54326, Note_on_c, 0, 75, 75
1, 54332, Note_on_c, 0, 72, 73
1, 54332, Note_on_c, 0, 80, 90
1, 54344, Note_on_c, 0, 63, 66
1, 54358, Note_on_c, 0, 68, 47
1, 54362, Note_on_c, 0, 60, 85
1, 54436, Note_off_c, 0, 72, 64
1, 54460, Note_off_c, 0, 68, 64
1, 54463, Control_c, 0, 64, 127
1, 54466, Note_off_c, 0, 63, 64
1, 54482, Note_off_c, 0, 60, 64
1, 54484, Note_off_c, 0, 75, 64
1, 54496, Note_off_c, 0, 87, 64
1, 54496, Note_off_c, 0, 80, 64
1, 54582, Note_on_c, 0, 87, 57
1, 54594, Note_on_c, 0, 75, 65
1, 54628, Note_on_c, 0, 53, 60
1, 54646, Note_off_c, 0, 75, 64
1, 54652, Note_off_c, 0, 87, 64
1, 54684, Note_off_c, 0, 53, 64
1, 54708, Note_on_c, 0, 85, 88
1, 54708, Note_on_c, 0, 73, 97
1, 54711, Note_on_c, 0, 81, 81
1, 54720, Note_on_c, 0, 69, 83
1, 54730, Note_on_c, 0, 63, 85
1, 54784, Note_off_c, 0, 69, 64
1, 54816, Note_off_c, 0, 63, 64
1, 54856, Note_off_c, 0, 73, 64
1, 54872, Note_off_c, 0, 81, 64
1, 54908, Note_off_c, 0, 85, 64
1, 54998, Note_on_c, 0, 72, 73
1, 55001, Note_on_c, 0, 84, 69
1, 55016, Control_c, 0, 64, 0
1, 55026, Note_on_c, 0, 46, 50
1, 55038, Note_off_c, 0, 72, 64
1, 55042, Note_off_c, 0, 84, 64
1, 55092, Note_on_c, 0, 53, 94
1, 55100, Note_on_c, 0, 82, 83
1, 55100, Note_on_c, 0, 70, 90
1, 55106, Note_on_c, 0, 61, 88
1, 55160, Note_off_c, 0, 46, 64
1, 55168, Control_c, 0, 64, 127
1, 55198, Note_off_c, 0, 53, 64
1, 55202, Note_off_c, 0, 82, 64
1, 55210, Note_off_c, 0, 61, 64
1, 55212, Note_off_c, 0, 70, 64
1, 55476, Control_c, 0, 64, 0
1, 55488, Note_on_c, 0, 39, 67
1, 55514, Note_on_c, 0, 70, 81
1, 55522, Note_on_c, 0, 58, 83
1, 55524, Note_on_c, 0, 66, 74
1, 55530, Note_on_c, 0, 46, 55
1, 55544, Note_on_c, 0, 54, 86
1, 55610, Note_off_c, 0, 39, 64
1, 55630, Control_c, 0, 64, 127
1, 55644, Note_off_c, 0, 46, 64
1, 55649, Note_off_c, 0, 54, 64
1, 55662, Note_off_c, 0, 58, 64
1, 55692, Note_off_c, 0, 70, 64
1, 55695, Note_off_c, 0, 66, 64
1, 55800, Note_on_c, 0, 60, 59
1, 55812, Note_on_c, 0, 72, 36
1, 55848, Note_on_c, 0, 34, 63
1, 55856, Note_off_c, 0, 60, 64
1, 55860, Control_c, 0, 64, 0
1, 55882, Note_off_c, 0, 72, 64
1, 55888, Note_on_c, 0, 73, 90
1, 55890, Note_on_c, 0, 61, 95
1, 55896, Note_on_c, 0, 65, 57
1, 55904, Note_on_c, 0, 49, 78
1, 55914, Note_on_c, 0, 41, 70
1, 55982, Note_off_c, 0, 34, 64
1, 55996, Note_off_c, 0, 49, 64
1, 56014, Control_c, 0, 64, 127
1, 56050, Note_off_c, 0, 41, 64
1, 56082, Note_off_c, 0, 61, 64
1, 56089, Note_off_c, 0, 65, 64
1, 56146, Note_off_c, 0, 73, 64
1, 56260, Control_c, 0, 64, 0
1, 56276, Note_on_c, 0, 73, 92
1, 56282, Note_on_c, 0, 63, 86
1, 56284, Note_on_c, 0, 27, 83
1, 56286, Note_on_c, 0, 39, 75
1, 56288, Note_on_c, 0, 66, 69
1, 56288, Note_on_c, 0, 61, 94
1, 56324, Note_off_c, 0, 27, 64
1, 56336, Note_off_c, 0, 39, 64
1, 56412, Control_c, 0, 64, 127
1, 56440, Note_off_c, 0, 63, 64
1, 56480, Note_off_c, 0, 61, 64
1, 56482, Note_off_c, 0, 66, 64
1, 56484, Note_off_c, 0, 73, 64
1, 56576, Note_on_c, 0, 60, 81
1, 56579, Note_on_c, 0, 72, 60
1, 56618, Note_off_c, 0, 60, 64
1, 56628, Note_off_c, 0, 72, 64
1, 56636, Note_on_c, 0, 34, 47
1, 56674, Control_c, 0, 64, 0
1, 56682, Note_on_c, 0, 70, 85
1, 56684, Note_on_c, 0, 49, 69
1, 56684, Note_on_c, 0, 58, 93
1, 56688, Note_on_c, 0, 41, 61
1, 56692, Note_on_c, 0, 65, 79
1, 56808, Note_off_c, 0, 34, 64
1, 56816, Note_off_c, 0, 41, 64
1, 56842, Control_c, 0, 64, 127
1, 56872, Note_off_c, 0, 65, 64
1, 56876, Note_off_c, 0, 49, 64
1, 56918, Note_off_c, 0, 70, 64
1, 56968, Note_off_c, 0, 58, 64
1, 57090, Control_c, 0, 64, 0
1, 57116, Note_on_c, 0, 68, 88
1, 57122, Note_on_c, 0, 56, 73
1, 57124, Note_on_c, 0, 63, 75
1, 57126, Note_on_c, 0, 58, 68
1, 57128, Note_on_c, 0, 51, 78
1, 57134, Note_on_c, 0, 39, 62
1, 57137, Note_on_c, 0, 46, 54
1, 57242, Note_off_c, 0, 51, 64
1, 57258, Control_c, 0, 64, 127
1, 57270, Note_off_c, 0, 46, 64
1, 57290, Note_off_c, 0, 39, 64
1, 57294, Note_off_c, 0, 58, 64
1, 57302, Note_off_c, 0, 63, 64
1, 57314, Note_off_c, 0, 56, 64
1, 57338, Note_off_c, 0, 68, 64
1, 57500, Note_on_c, 0, 66, 62
1, 57503, Note_on_c, 0, 54, 73
1, 57544, Note_off_c, 0, 66, 64
1, 57544, Note_off_c, 0, 54, 64
1, 57550, Control_c, 0, 64, 0
1, 57554, Note_on_c, 0, 34, 58
1, 57618, Note_on_c, 0, 65, 88
1, 57620, Note_on_c, 0, 61, 79
1, 57620, Note_on_c, 0, 53, 109
1, 57624, Note_on_c, 0, 41, 64
1, 57654, Note_on_c, 0, 49, 70
1, 57672, Note_on_c, 0, 63, 20
1, 57732, Note_off_c, 0, 63, 64
1, 57820, Note_off_c, 0, 49, 64
1, 57826, Control_c, 0, 64, 127
1, 57848, Note_off_c, 0, 41, 64
1, 57884, Note_off_c, 0, 65, 64
1, 57890, Note_off_c, 0, 53, 64
1, 57900, Note_off_c, 0, 34, 64
1, 57914, Note_off_c, 0, 61, 64
1, 58240, Note_on_c, 0, 33, 37
1, 58243, Note_on_c, 0, 45, 33
1, 58284, Note_on_c, 0, 34, 51
1, 58304, Note_off_c, 0, 33, 64
1, 58318, Note_off_c, 0, 45, 64
1, 58318, Note_on_c, 0, 46, 56
1, 58334, Note_off_c, 0, 34, 64
1, 58362, Note_off_c, 0, 46, 64
1, 58364, Note_on_c, 0, 36, 55
1, 58392, Note_on_c, 0, 48, 62
1, 58422, Note_off_c, 0, 36, 64
1, 58452, Note_on_c, 0, 37, 70
1, 58460, Note_off_c, 0, 48, 64
1, 58472, Note_on_c, 0, 49, 65
1, 58528, Note_on_c, 0, 39, 55
1, 58576, Note_off_c, 0, 37, 64
1, 58590, Note_off_c, 0, 49, 64
1, 58606, Note_on_c, 0, 41, 63
1, 58630, Note_on_c, 0, 53, 87
1, 58638, Note_off_c, 0, 39, 64
1, 58650, Note_off_c, 0, 41, 64
1, 58662, Note_on_c, 0, 43, 70
1, 58704, Note_on_c, 0, 55, 82
1, 58740, Note_off_c, 0, 53, 64
1, 58760, Note_off_c, 0, 43, 64
1, 58760, Note_on_c, 0, 45, 65
1, 58782, Note_on_c, 0, 57, 63
1, 58804, Note_off_c, 0, 55, 64
1, 58830, Note_on_c, 0, 46, 72
1, 58848, Note_on_c, 0, 58, 67
1, 58854, Note_off_c, 0, 45, 64
1, 58876, Note_off_c, 0, 57, 64
1, 58886, Note_off_c, 0, 58, 64
1, 58892, Note_off_c, 0, 46, 64
1, 58904, Note_on_c, 0, 48, 71
1, 58928, Note_on_c, 0, 60, 62
1, 58982, Note_on_c, 0, 61, 86
1, 58985, Note_on_c, 0, 49, 78
1, 58992, Note_off_c, 0, 48, 64
1, 59010, Note_off_c, 0, 60, 64
1, 59038, Note_on_c, 0, 51, 69
1, 59062, Note_on_c, 0, 63, 81
1, 59100, Note_off_c, 0, 63, 64
1, 59102, Note_on_c, 0, 53, 101
1, 59106, Note_off_c, 0, 61, 64
1, 59132, Note_off_c, 0, 49, 64
1, 59136, Note_off_c, 0, 53, 64
1, 59154, Note_on_c, 0, 65, 74
1, 59157, Note_off_c, 0, 51, 64
1, 59164, Note_on_c, 0, 55, 88
1, 59212, Note_off_c, 0, 65, 64
1, 59214, Note_on_c, 0, 67, 88
1, 59238, Note_off_c, 0, 55, 64
1, 59244, Note_on_c, 0, 57, 79
1, 59270, Note_on_c, 0, 69, 63
1, 59320, Note_on_c, 0, 58, 78
1, 59326, Note_on_c, 0, 70, 78
1, 59336, Note_off_c, 0, 67, 64
1, 59342, Note_off_c, 0, 57, 64
1, 59370, Note_off_c, 0, 70, 64
1, 59373, Note_off_c, 0, 69, 64
1, 59386, Note_on_c, 0, 60, 83
1, 59412, Note_on_c, 0, 72, 75
1, 59420, Note_off_c, 0, 58, 64
1, 59444, Note_off_c, 0, 60, 64
1, 59476, Note_on_c, 0, 61, 81
1, 59480, Note_on_c, 0, 73, 76
1, 59516, Note_on_c, 0, 63, 81
1, 59526, Note_off_c, 0, 72, 64
1, 59554, Note_on_c, 0, 75, 82
1, 59588, Note_off_c, 0, 75, 64
1, 59592, Note_off_c, 0, 73, 64
1, 59597, Note_off_c, 0, 61, 64
1, 59597, Note_on_c, 0, 65, 40
1, 59630, Note_off_c, 0, 63, 64
1, 59630, Note_on_c, 0, 67, 78
1, 59650, Note_off_c, 0, 65, 64
1, 59650, Note_on_c, 0, 77, 75
1, 59676, Note_off_c, 0, 67, 64
1, 59732, Note_on_c, 0, 79, 84
1, 59734, Note_on_c, 0, 67, 61
1, 59746, Note_off_c, 0, 77, 64
1, 59756, Note_on_c, 0, 69, 47
1, 59782, Note_off_c, 0, 67, 64
1, 59800, Note_off_c, 0, 69, 64
1, 59803, Note_on_c, 0, 81, 78
1, 59834, Note_off_c, 0, 79, 64
1, 59848, Note_on_c, 0, 82, 95
1, 59851, Note_on_c, 0, 70, 104
1, 59936, Note_off_c, 0, 70, 64
1, 59938, Note_off_c, 0, 81, 64
1, 60058, Note_off_c, 0, 82, 64
1, 60254, Control_c, 0, 64, 0
1, 60304, Note_on_c, 0, 84, 95
1, 60318, Note_on_c, 0, 73, 88
1, 60330, Note_on_c, 0, 82, 83
1, 60334, Note_on_c, 0, 79, 92
1, 60337, Note_on_c, 0, 39, 92
1, 60344, Note_on_c, 0, 27, 91
1, 60450, Note_off_c, 0, 27, 64
1, 60453, Control_c, 0, 64, 127
1, 60460, Note_off_c, 0, 39, 64
1, 60472, Note_off_c, 0, 79, 64
1, 60475, Note_off_c, 0, 84, 64
1, 60488, Note_off_c, 0, 73, 64
1, 60504, Note_off_c, 0, 82, 64
1, 60540, Note_on_c, 0, 81, 92
1, 60546, Note_on_c, 0, 72, 83
1, 60550, Note_on_c, 0, 78, 72
1, 60652, Note_off_c, 0, 72, 64
1, 60676, Note_off_c, 0, 78, 64
1, 60760, Note_on_c, 0, 82, 90
1, 60762, Note_on_c, 0, 73, 93
1, 60768, Note_on_c, 0, 79, 91
1, 60768, Note_on_c, 0, 51, 90
1, 60782, Note_on_c, 0, 39, 81
1, 60804, Note_off_c, 0, 81, 64
1, 60822, Note_off_c, 0, 39, 64
1, 60868, Note_off_c, 0, 51, 64
1, 60928, Note_off_c, 0, 73, 64
1, 60932, Note_off_c, 0, 79, 64
1, 60964, Note_off_c, 0, 82, 64
1, 61084, Control_c, 0, 64, 0
1, 61142, Note_on_c, 0, 84, 104
1, 61144, Note_on_c, 0, 79, 98
1, 61144, Note_on_c, 0, 72, 100
1, 61154, Note_on_c, 0, 63, 90
1, 61166, Note_on_c, 0, 51, 78
1, 61252, Control_c, 0, 64, 127
1, 61257, Note_off_c, 0, 84, 64
1, 61272, Note_off_c, 0, 79, 64
1, 61302, Note_off_c, 0, 72, 64
1, 61308, Note_off_c, 0, 51, 64
1, 61324, Note_off_c, 0, 63, 64
1, 61530, Note_on_c, 0, 80, 94
1, 61532, Note_on_c, 0, 68, 90
1, 61540, Note_on_c, 0, 72, 82
1, 61544, Note_on_c, 0, 65, 84
1, 61554, Note_on_c, 0, 53, 92
1, 61560, Control_c, 0, 64, 0
1, 61692, Note_off_c, 0, 80, 64
1, 61695, Note_off_c, 0, 72, 64
1, 61700, Note_off_c, 0, 65, 64
1, 61714, Control_c, 0, 64, 127
1, 61740, Note_off_c, 0, 68, 64
1, 61744, Note_off_c, 0, 53, 64
1, 61906, Note_on_c, 0, 75, 87
1, 61909, Note_on_c, 0, 63, 92
1, 61912, Note_on_c, 0, 68, 69
1, 61914, Note_on_c, 0, 60, 71
1, 61920, Note_on_c, 0, 56, 66
1, 61954, Note_on_c, 0, 48, 21
1, 62064, Note_off_c, 0, 63, 64
1, 62064, Note_off_c, 0, 60, 64
1, 62074, Note_off_c, 0, 68, 64
1, 62082, Note_off_c, 0, 48, 64
1, 62096, Note_off_c, 0, 56, 64
1, 62122, Note_off_c, 0, 75, 64
1, 62222, Control_c, 0, 64, 0
1, 62258, Note_on_c, 0, 77, 100
1, 62258, Note_on_c, 0, 68, 79
1, 62262, Note_on_c, 0, 65, 89
1, 62268, Note_on_c, 0, 61, 88
1, 62278, Note_on_c, 0, 49, 73
1, 62292, Note_on_c, 0, 56, 64
1, 62348, Note_off_c, 0, 56, 64
1, 62358, Note_off_c, 0, 65, 64
1, 62374, Control_c, 0, 64, 127
1, 62384, Note_off_c, 0, 61, 64
1, 62388, Note_off_c, 0, 77, 64
1, 62398, Note_off_c, 0, 49, 64
1, 62404, Note_off_c, 0, 68, 64
1, 62590, Control_c, 0, 64, 0
1, 62610, Note_on_c, 0, 80, 96
1, 62612, Note_on_c, 0, 68, 94
1, 62624, Note_on_c, 0, 72, 81
1, 62626, Note_on_c, 0, 53, 101
1, 62636, Note_on_c, 0, 41, 74
1, 62638, Note_on_c, 0, 48, 58
1, 62728, Note_off_c, 0, 48, 64
1, 62728, Control_c, 0, 64, 127
1, 62740, Note_off_c, 0, 41, 64
1, 62742, Note_off_c, 0, 80, 64
1, 62760, Note_off_c, 0, 53, 64
1, 62768, Note_off_c, 0, 72, 64
1, 62788, Note_off_c, 0, 68, 64
1, 62988, Note_on_c, 0, 73, 89
1, 62988, Control_c, 0, 64, 0
1, 62991, Note_on_c, 0, 61, 97
1, 62994, Note_on_c, 0, 70, 77
1, 62996, Note_on_c, 0, 65, 85
1, 62998, Note_on_c, 0, 58, 72
1, 63010, Note_on_c, 0, 53, 93
1, 63010, Note_on_c, 0, 46, 58
1, 63120, Note_off_c, 0, 65, 64
1, 63122, Note_off_c, 0, 61, 64
1, 63122, Note_off_c, 0, 58, 64
1, 63138, Note_off_c, 0, 53, 64
1, 63138, Control_c, 0, 64, 127
1, 63170, Note_off_c, 0, 70, 64
1, 63178, Note_off_c, 0, 73, 64
1, 63226, Note_off_c, 0, 46, 64
1, 63366, Note_on_c, 0, 68, 83
1, 63366, Note_on_c, 0, 73, 75
1, 63366, Note_on_c, 0, 77, 102
1, 63372, Note_on_c, 0, 65, 96
1, 63380, Note_on_c, 0, 46, 75
1, 63388, Note_on_c, 0, 34, 81
1, 63436, Note_off_c, 0, 34, 64
1, 63442, Note_off_c, 0, 77, 64
1, 63466, Note_off_c, 0, 65, 64
1, 63466, Note_off_c, 0, 46, 64
1, 63486, Note_off_c, 0, 73, 64
1, 63492, Note_off_c, 0, 68, 64
1, 63772, Control_c, 0, 64, 0
1, 63790, Note_on_c, 0, 70, 85
1, 63790, Note_on_c, 0, 58, 88
1, 63793, Note_on_c, 0, 68, 79
1, 63796, Note_on_c, 0, 63, 88
1, 63802, Note_on_c, 0, 51, 86
1, 63812, Note_on_c, 0, 39, 75
1, 63818, Note_on_c, 0, 46, 61
1, 63902, Note_off_c, 0, 51, 64
1, 63926, Note_off_c, 0, 46, 64
1, 63934, Note_off_c, 0, 63, 64
1, 63937, Note_off_c, 0, 58, 64
1, 63940, Note_off_c, 0, 39, 64
1, 63942, Control_c, 0, 64, 127
1, 63974, Note_off_c, 0, 68, 64
1, 63984, Note_off_c, 0, 70, 64
1, 64324, Note_on_c, 0, 75, 95
1, 64330, Note_on_c, 0, 39, 86
1, 64330, Note_on_c, 0, 63, 83
1, 64330, Note_on_c, 0, 70, 73
1, 64333, Note_on_c, 0, 61, 99
1, 64338, Note_on_c, 0, 27, 87
1, 64344, Note_on_c, 0, 67, 77
1, 64358, Control_c, 0, 64, 0
1, 64376, Note_on_c, 0, 73, 21
1, 64440, Note_off_c, 0, 73, 64
1, 64510, Note_off_c, 0, 61, 64
1, 64520, Note_off_c, 0, 63, 64
1, 64526, Control_c, 0, 64, 127
1, 64530, Note_off_c, 0, 27, 64
1, 64558, Note_off_c, 0, 67, 64
1, 64584, Note_off_c, 0, 39, 64
1, 64592, Note_off_c, 0, 70, 64
1, 64602, Note_off_c, 0, 75, 64
1, 65142, Note_on_c, 0, 89, 110
1, 65142, Note_on_c, 0, 85, 105
1, 65145, Note_on_c, 0, 77, 114
1, 65150, Note_on_c, 0, 44, 102
1, 65152, Note_on_c, 0, 32, 89
1, 65232, Control_c, 0, 64, 0
1, 65416, Control_c, 0, 64, 127
1, 65456, Note_off_c, 0, 32, 64
1, 65496, Note_off_c, 0, 44, 64
1, 65732, Note_off_c, 0, 85, 64
1, 65746, Note_off_c, 0, 89, 64
1, 65758, Note_on_c, 0, 63, 94
1, 65766, Note_on_c, 0, 60, 80
1, 65774, Note_on_c, 0, 51, 75
1, 65796, Note_off_c, 0, 77, 64
1, 65894, Note_off_c, 0, 51, 64
1, 65908, Note_off_c, 0, 60, 64
1, 65910, Note_off_c, 0, 63, 64
1, 66046, Note_on_c, 0, 75, 98
1, 66054, Note_on_c, 0, 87, 75
1, 66056, Note_on_c, 0, 84, 83
1, 66074, Note_off_c, 0, 75, 64
1, 66088, Note_off_c, 0, 87, 64
1, 66092, Note_off_c, 0, 84, 64
1, 66138, Note_on_c, 0, 87, 74
1, 66140, Note_on_c, 0, 84, 92
1, 66142, Note_on_c, 0, 75, 49
1, 66146, Note_on_c, 0, 68, 87
1, 66162, Note_on_c, 0, 60, 73
1, 66165, Note_on_c, 0, 56, 61
1, 66248, Note_off_c, 0, 87, 64
1, 66256, Note_off_c, 0, 84, 64
1, 66256, Note_off_c, 0, 68, 64
1, 66286, Note_off_c, 0, 75, 64
1, 66320, Note_off_c, 0, 60, 64
1, 66370, Note_off_c, 0, 56, 64
1, 66504, Note_on_c, 0, 63, 75
1, 66524, Note_on_c, 0, 51, 81
1, 66532, Note_on_c, 0, 39, 80
1, 66540, Note_off_c, 0, 63, 64
1, 66542, Note_on_c, 0, 65, 67
1, 66574, Note_off_c, 0, 39, 64
1, 66580, Note_off_c, 0, 51, 64
1, 66614, Note_on_c, 0, 63, 62
1, 66660, Note_off_c, 0, 65, 64
1, 66708, Note_off_c, 0, 63, 64
1, 66711, Note_on_c, 0, 62, 83
1, 66780, Note_on_c, 0, 63, 70
1, 66788, Note_off_c, 0, 62, 64
1, 66850, Note_on_c, 0, 56, 90
1, 66853, Note_on_c, 0, 68, 92
1, 66860, Note_on_c, 0, 44, 86
1, 66896, Note_off_c, 0, 63, 64
1, 66904, Note_off_c, 0, 56, 64
1, 66922, Note_off_c, 0, 68, 64
1, 66960, Note_off_c, 0, 44, 64
1, 67222, Note_on_c, 0, 84, 105
1, 67222, Note_on_c, 0, 80, 94
1, 67224, Note_on_c, 0, 72, 103
1, 67230, Note_on_c, 0, 39, 89
1, 67236, Note_on_c, 0, 27, 87
1, 67326, Note_off_c, 0, 72, 64
1, 67329, Note_off_c, 0, 84, 64
1, 67356, Note_off_c, 0, 27, 64
1, 67359, Note_off_c, 0, 80, 64
1, 67394, Note_off_c, 0, 39, 64
1, 67454, Note_on_c, 0, 85, 95
1, 67457, Note_on_c, 0, 73, 98
1, 67464, Note_on_c, 0, 82, 83
1, 67542, Note_off_c, 0, 73, 64
1, 67586, Note_off_c, 0, 85, 64
1, 67592, Note_off_c, 0, 82, 64
1, 67706, Control_c, 0, 64, 0
1, 67724, Note_on_c, 0, 85, 98
1, 67726, Note_on_c, 0, 89, 108
1, 67726, Note_on_c, 0, 77, 111
1, 67736, Note_on_c, 0, 44, 105
1, 67742, Note_on_c, 0, 32, 89
1, 67800, Note_off_c, 0, 32, 64
1, 67820, Note_off_c, 0, 77, 64
1, 67836, Note_off_c, 0, 89, 64
1, 67842, Note_off_c, 0, 44, 64
1, 67874, Note_off_c, 0, 85, 64
1, 67874, Control_c, 0, 64, 127
1, 68024, Note_on_c, 0, 75, 90
1, 68028, Note_on_c, 0, 87, 65
1, 68030, Note_on_c, 0, 84, 75
1, 68052, Note_off_c, 0, 75, 64
1, 68068, Note_off_c, 0, 87, 64
1, 68068, Note_off_c, 0, 84, 64
1, 68104, Note_on_c, 0, 75, 73
1, 68110, Note_on_c, 0, 87, 89
1, 68112, Note_on_c, 0, 63, 85
1, 68114, Note_on_c, 0, 84, 100
1, 68124, Note_on_c, 0, 60, 62
1, 68126, Note_on_c, 0, 51, 68
1, 68184, Note_off_c, 0, 60, 64
1, 68208, Note_off_c, 0, 51, 64
1, 68214, Note_off_c, 0, 87, 64
1, 68222, Note_off_c, 0, 63, 64
1, 68230, Note_off_c, 0, 75, 64
1, 68242, Note_off_c, 0, 84, 64
1, 68306, Note_on_c, 0, 86, 91
1, 68308, Note_on_c, 0, 74, 96
1, 68312, Note_on_c, 0, 83, 99
1, 68376, Note_off_c, 0, 74, 64
1, 68396, Note_off_c, 0, 86, 64
1, 68406, Note_off_c, 0, 83, 64
1, 68460, Control_c, 0, 64, 0
1, 68478, Note_on_c, 0, 87, 92
1, 68481, Note_on_c, 0, 75, 98
1, 68484, Note_on_c, 0, 84, 95
1, 68488, Note_on_c, 0, 68, 81
1, 68504, Note_on_c, 0, 60, 66
1, 68506, Note_on_c, 0, 56, 60
1, 68560, Note_off_c, 0, 68, 64
1, 68584, Note_off_c, 0, 60, 64
1, 68584, Control_c, 0, 64, 127
1, 68590, Note_off_c, 0, 75, 64
1, 68596, Note_off_c, 0, 87, 64
1, 68614, Note_off_c, 0, 84, 64
1, 68634, Note_off_c, 0, 56, 64
1, 68894, Note_on_c, 0, 39, 69
1, 68897, Note_on_c, 0, 63, 86
1, 68897, Note_on_c, 0, 51, 68
1, 68934, Note_off_c, 0, 63, 64
1, 68964, Note_on_c, 0, 65, 51
1, 69002, Note_off_c, 0, 39, 64
1, 69012, Note_off_c, 0, 51, 64
1, 69022, Note_on_c, 0, 63, 62
1, 69082, Note_off_c, 0, 65, 64
1, 69124, Note_off_c, 0, 63, 64
1, 69126, Note_on_c, 0, 62, 76
1, 69188, Note_on_c, 0, 63, 77
1, 69194, Note_off_c, 0, 62, 64
1, 69212, Control_c, 0, 64, 0
1, 69262, Note_on_c, 0, 56, 84
1, 69266, Note_on_c, 0, 68, 92
1, 69270, Note_on_c, 0, 44, 81
1, 69320, Note_off_c, 0, 63, 64
1, 69336, Control_c, 0, 64, 127
1, 69364, Note_off_c, 0, 56, 64
1, 69384, Note_off_c, 0, 68, 64
1, 69398, Note_off_c, 0, 44, 64
1, 69636, Note_on_c, 0, 72, 95
1, 69642, Note_on_c, 0, 84, 95
1, 69642, Note_on_c, 0, 80, 83
1, 69652, Note_on_c, 0, 39, 77
1, 69666, Note_on_c, 0, 27, 67
1, 69694, Note_off_c, 0, 72, 64
1, 69710, Note_off_c, 0, 27, 64
1, 69728, Note_off_c, 0, 84, 64
1, 69748, Note_off_c, 0, 39, 64
1, 69756, Note_off_c, 0, 80, 64
1, 69826, Note_on_c, 0, 73, 88
1, 69828, Note_on_c, 0, 85, 87
1, 69834, Note_on_c, 0, 82, 75
1, 69866, Note_off_c, 0, 73, 64
1, 69904, Note_off_c, 0, 82, 64
1, 69942, Note_off_c, 0, 85, 64
1, 69950, Control_c, 0, 64, 0
1, 70006, Note_on_c, 0, 44, 95
1, 70012, Note_on_c, 0, 32, 82
1, 70014, Note_on_c, 0, 85, 78
1, 70014, Note_on_c, 0, 89, 101
1, 70020, Note_on_c, 0, 77, 94
1, 70060, Note_off_c, 0, 32, 64
1, 70078, Note_off_c, 0, 77, 64
1, 70088, Note_off_c, 0, 44, 64
1, 70088, Control_c, 0, 64, 127
1, 70124, Note_off_c, 0, 89, 64
1, 70178, Note_off_c, 0, 85, 64
1, 70224, Note_on_c, 0, 75, 83
1, 70230, Note_on_c, 0, 87, 69
1, 70242, Note_on_c, 0, 84, 59
1, 70298, Note_off_c, 0, 84, 64
1, 70314, Note_off_c, 0, 87, 64
1, 70326, Note_off_c, 0, 75, 64
1, 70396, Note_on_c, 0, 89, 93
1, 70414, Note_on_c, 0, 84, 55
1, 70424, Note_on_c, 0, 87, 75
1, 70424, Note_on_c, 0, 63, 81
1, 70426, Note_on_c, 0, 60, 69
1, 70430, Note_on_c, 0, 51, 72
1, 70460, Note_off_c, 0, 84, 64
1, 70468, Note_off_c, 0, 89, 64
1, 70488, Note_off_c, 0, 60, 64
1, 70502, Note_off_c, 0, 87, 64
1, 70530, Note_off_c, 0, 63, 64
1, 70538, Note_off_c, 0, 51, 64
1, 70584, Note_on_c, 0, 83, 95
1, 70586, Note_on_c, 0, 74, 86
1, 70592, Note_on_c, 0, 86, 76
1, 70622, Note_off_c, 0, 74, 64
1, 70622, Note_on_c, 0, 82, 27
1, 70680, Note_off_c, 0, 83, 64
1, 70680, Note_off_c, 0, 86, 64
1, 70683, Note_off_c, 0, 82, 64
1, 70742, Note_on_c, 0, 89, 101
1, 70748, Note_on_c, 0, 77, 90
1, 70754, Note_on_c, 0, 68, 86
1, 70760, Note_on_c, 0, 85, 78
1, 70770, Note_on_c, 0, 60, 76
1, 70773, Note_on_c, 0, 56, 65
1, 70802, Note_off_c, 0, 85, 64
1, 70804, Note_off_c, 0, 77, 64
1, 70832, Note_off_c, 0, 89, 64
1, 70846, Note_off_c, 0, 68, 64
1, 70888, Note_off_c, 0, 60, 64
1, 70900, Note_on_c, 0, 87, 81
1, 70903, Note_on_c, 0, 75, 94
1, 70924, Note_on_c, 0, 84, 63
1, 70928, Note_off_c, 0, 56, 64
1, 70976, Note_off_c, 0, 75, 64
1, 70982, Note_off_c, 0, 84, 64
1, 70994, Note_off_c, 0, 87, 64
1, 71060, Note_on_c, 0, 89, 92
1, 71066, Note_on_c, 0, 84, 72
1, 71072, Note_on_c, 0, 51, 94
1, 71074, Note_on_c, 0, 87, 62
1, 71076, Note_on_c, 0, 39, 92
1, 71112, Note_off_c, 0, 89, 64
1, 71116, Note_off_c, 0, 84, 64
1, 71118, Note_off_c, 0, 39, 64
1, 71150, Note_off_c, 0, 51, 64
1, 71176, Note_off_c, 0, 87, 64
1, 71238, Note_on_c, 0, 86, 87
1, 71240, Note_on_c, 0, 74, 97
1, 71246, Note_on_c, 0, 83, 103
1, 71318, Note_off_c, 0, 86, 64
1, 71318, Note_off_c, 0, 74, 64
1, 71356, Note_off_c, 0, 83, 64
1, 71396, Note_on_c, 0, 56, 86
1, 71402, Note_on_c, 0, 87, 86
1, 71406, Note_on_c, 0, 75, 86
1, 71406, Note_on_c, 0, 84, 85
1, 71412, Note_on_c, 0, 44, 83
1, 71468, Note_off_c, 0, 44, 64
1, 71474, Note_off_c, 0, 56, 64
1, 71494, Note_off_c, 0, 75, 64
1, 71586, Note_on_c, 0, 75, 48
1, 71602, Note_on_c, 0, 39, 86
1, 71610, Control_c, 0, 64, 0
1, 71624, Note_on_c, 0, 46, 60
1, 71636, Note_off_c, 0, 87, 64
1, 71672, Note_on_c, 0, 82, 65
1, 71690, Note_off_c, 0, 39, 64
1, 71708, Note_off_c, 0, 75, 64
1, 71728, Note_on_c, 0, 54, 99
1, 71740, Note_on_c, 0, 90, 92
1, 71794, Control_c, 0, 64, 127
1, 71814, Note_off_c, 0, 46, 64
1, 71824, Note_off_c, 0, 82, 64
1, 71838, Note_off_c, 0, 54, 64
1, 71870, Note_off_c, 0, 90, 64
1, 71892, Note_off_c, 0, 84, 64
1, 71922, Note_on_c, 0, 75, 69
1, 71928, Note_on_c, 0, 41, 90
1, 71960, Note_on_c, 0, 48, 68
1, 71978, Control_c, 0, 64, 0
1, 71992, Note_off_c, 0, 75, 64
1, 72012, Note_on_c, 0, 51, 82
1, 72022, Note_on_c, 0, 81, 67
1, 72028, Note_off_c, 0, 41, 64
1, 72066, Note_on_c, 0, 57, 88
1, 72066, Note_on_c, 0, 89, 99
1, 72069, Note_off_c, 0, 81, 64
1, 72082, Note_off_c, 0, 48, 64
1, 72100, Note_off_c, 0, 89, 64
1, 72116, Control_c, 0, 64, 127
1, 72118, Note_off_c, 0, 51, 64
1, 72132, Note_off_c, 0, 57, 64
1, 72270, Note_on_c, 0, 72, 63
1, 72284, Note_on_c, 0, 53, 78
1, 72308, Note_on_c, 0, 60, 70
1, 72328, Note_off_c, 0, 72, 64
1, 72328, Note_off_c, 0, 53, 64
1, 72364, Note_on_c, 0, 63, 66
1, 72370, Note_on_c, 0, 77, 65
1, 72383, Note_on_c, 0, 69, 73
1, 72394, Note_on_c, 0, 84, 101
1, 72404, Note_off_c, 0, 77, 64
1, 72428, Note_off_c, 0, 84, 64
1, 72452, Note_off_c, 0, 69, 64
1, 72498, Note_off_c, 0, 63, 64
1, 72516, Note_off_c, 0, 60, 64
1, 72638, Note_on_c, 0, 46, 75
1, 72646, Note_on_c, 0, 70, 61
1, 72654, Control_c, 0, 64, 0
1, 72696, Note_on_c, 0, 53, 90
1, 72712, Note_on_c, 0, 77, 74
1, 72750, Note_off_c, 0, 70, 64
1, 72768, Note_on_c, 0, 61, 87
1, 72774, Note_on_c, 0, 85, 95
1, 72824, Control_c, 0, 64, 127
1, 72830, Note_off_c, 0, 46, 64
1, 72928, Note_off_c, 0, 61, 64
1, 72942, Note_off_c, 0, 85, 64
1, 72956, Note_off_c, 0, 77, 64
1, 72976, Note_off_c, 0, 53, 64
1, 73162, Note_on_c, 0, 54, 88
1, 73167, Note_on_c, 0, 42, 76
1, 73174, Note_on_c, 0, 78, 85
1, 73274, Note_on_c, 0, 66, 75
1, 73280, Note_off_c, 0, 78, 64
1, 73366, Note_on_c, 0, 78, 69
1, 73390, Note_off_c, 0, 42, 64
1, 73398, Note_off_c, 0, 54, 64
1, 73426, Note_off_c, 0, 66, 64
1, 73438, Control_c, 0, 64, 0
1, 73464, Note_on_c, 0, 53, 108
1, 73466, Note_off_c, 0, 78, 64
1, 73469, Note_on_c, 0, 41, 88
1, 73474, Note_on_c, 0, 65, 92
1, 73474, Note_on_c, 0, 77, 97
1, 73608, Control_c, 0, 64, 127
1, 73652, Note_off_c, 0, 53, 64
1, 73660, Note_off_c, 0, 77, 64
1, 73692, Note_off_c, 0, 65, 64
1, 73718, Note_off_c, 0, 41, 64
1, 73816, Note_on_c, 0, 73, 88
1, 73816, Note_on_c, 0, 61, 98
1, 73824, Note_on_c, 0, 49, 86
1, 73834, Note_on_c, 0, 37, 83
1, 73888, Note_off_c, 0, 61, 64
1, 73902, Note_off_c, 0, 37, 64
1, 73918, Note_off_c, 0, 73, 64
1, 73928, Note_off_c, 0, 49, 64
1, 74268, Control_c, 0, 64, 0
1, 74274, Note_on_c, 0, 90, 99
1, 74276, Note_on_c, 0, 87, 93
1, 74276, Note_on_c, 0, 78, 107
1, 74279, Note_on_c, 0, 46, 88
1, 74290, Note_on_c, 0, 34, 88
1, 74400, Note_off_c, 0, 34, 64
1, 74474, Note_off_c, 0, 46, 64
1, 74498, Control_c, 0, 64, 127
1, 74764, Note_on_c, 0, 65, 83
1, 74768, Note_on_c, 0, 61, 73
1, 74780, Note_on_c, 0, 53, 84
1, 74812, Note_off_c, 0, 90, 64
1, 74812, Note_off_c, 0, 78, 64
1, 74841, Note_off_c, 0, 87, 64
1, 74876, Note_off_c, 0, 65, 64
1, 74884, Note_off_c, 0, 53, 64
1, 74904, Note_off_c, 0, 61, 64
1, 74970, Note_on_c, 0, 77, 101
1, 74972, Note_on_c, 0, 89, 95
1, 74976, Note_on_c, 0, 85, 83
1, 75016, Note_off_c, 0, 89, 64
1, 75030, Note_off_c, 0, 77, 64
1, 75038, Note_off_c, 0, 85, 64
1, 75096, Control_c, 0, 64, 0
1, 75132, Note_on_c, 0, 70, 84
1, 75134, Note_on_c, 0, 77, 103
1, 75136, Note_on_c, 0, 89, 103
1, 75138, Note_on_c, 0, 85, 78
1, 75144, Note_on_c, 0, 61, 69
1, 75146, Note_on_c, 0, 58, 55
1, 75170, Note_off_c, 0, 70, 64
1, 75202, Note_off_c, 0, 77, 64
1, 75205, Note_off_c, 0, 89, 64
1, 75220, Control_c, 0, 64, 127
1, 75228, Note_off_c, 0, 61, 64
1, 75232, Note_off_c, 0, 85, 64
1, 75264, Note_off_c, 0, 58, 64
1, 75512, Note_on_c, 0, 41, 81
1, 75518, Note_on_c, 0, 53, 94
1, 75532, Note_on_c, 0, 65, 51
1, 75550, Note_off_c, 0, 41, 64
1, 75566, Note_on_c, 0, 66, 66
1, 75582, Note_off_c, 0, 65, 64
1, 75590, Note_off_c, 0, 53, 64
1, 75639, Note_on_c, 0, 65, 77
1, 75702, Note_off_c, 0, 66, 64
1, 75722, Note_off_c, 0, 65, 64
1, 75732, Note_on_c, 0, 64, 69
1, 75792, Note_on_c, 0, 65, 80
1, 75804, Control_c, 0, 64, 0
1, 75814, Note_off_c, 0, 64, 64
1, 75858, Note_on_c, 0, 58, 84
1, 75864, Note_on_c, 0, 70, 84
1, 75864, Note_on_c, 0, 46, 77
1, 75934, Note_off_c, 0, 65, 64
1, 75958, Control_c, 0, 64, 127
1, 75976, Note_off_c, 0, 58, 64
1, 75992, Note_off_c, 0, 70, 64
1, 76034, Note_off_c, 0, 46, 64
1, 76232, Note_on_c, 0, 85, 89
1, 76234, Note_on_c, 0, 73, 91
1, 76234, Note_on_c, 0, 82, 81
1, 76250, Note_on_c, 0, 41, 97
1, 76258, Note_on_c, 0, 29, 78
1, 76320, Note_off_c, 0, 29, 64
1, 76370, Note_off_c, 0, 73, 64
1, 76376, Note_off_c, 0, 85, 64
1, 76458, Note_off_c, 0, 41, 64
1, 76461, Note_on_c, 0, 87, 88
1, 76466, Note_on_c, 0, 75, 93
1, 76470, Note_on_c, 0, 84, 88
1, 76500, Note_off_c, 0, 82, 64
1, 76572, Note_off_c, 0, 75, 64
1, 76604, Note_off_c, 0, 84, 64
1, 76624, Note_off_c, 0, 87, 64
1, 76664, Control_c, 0, 64, 0
1, 76700, Note_on_c, 0, 78, 102
1, 76703, Note_on_c, 0, 90, 94
1, 76706, Note_on_c, 0, 46, 88
1, 76706, Note_on_c, 0, 87, 58
1, 76712, Note_on_c, 0, 34, 88
1, 76752, Note_off_c, 0, 34, 64
1, 76804, Note_off_c, 0, 46, 64
1, 76862, Note_off_c, 0, 78, 64
1, 76862, Control_c, 0, 64, 127
1, 76872, Note_off_c, 0, 90, 64
1, 76900, Note_off_c, 0, 87, 64
1, 77002, Note_on_c, 0, 77, 91
1, 77002, Note_on_c, 0, 85, 73
1, 77002, Note_on_c, 0, 89, 76
1, 77032, Note_off_c, 0, 77, 64
1, 77040, Note_off_c, 0, 85, 64
1, 77042, Note_off_c, 0, 89, 64
1, 77084, Note_on_c, 0, 77, 85
1, 77086, Note_on_c, 0, 89, 95
1, 77088, Note_on_c, 0, 65, 75
1, 77090, Note_on_c, 0, 85, 75
1, 77092, Note_on_c, 0, 61, 56
1, 77104, Note_on_c, 0, 53, 79
1, 77156, Note_off_c, 0, 53, 64
1, 77170, Note_off_c, 0, 65, 64
1, 77172, Note_off_c, 0, 77, 64
1, 77184, Note_off_c, 0, 89, 64
1, 77188, Note_off_c, 0, 85, 64
1, 77190, Note_off_c, 0, 61, 64
1, 77262, Note_on_c, 0, 88, 86
1, 77268, Note_on_c, 0, 76, 92
1, 77274, Note_on_c, 0, 84, 92
1, 77354, Note_off_c, 0, 84, 64
1, 77356, Note_off_c, 0, 88, 64
1, 77356, Control_c, 0, 64, 0
1, 77360, Note_off_c, 0, 76, 64
1, 77434, Note_on_c, 0, 70, 83
1, 77434, Note_on_c, 0, 89, 100
1, 77434, Note_on_c, 0, 77, 97
1, 77442, Note_on_c, 0, 85, 81
1, 77446, Note_on_c, 0, 58, 55
1, 77450, Note_on_c, 0, 61, 69
1, 77474, Note_off_c, 0, 70, 64
1, 77500, Note_off_c, 0, 85, 64
1, 77506, Note_off_c, 0, 61, 64
1, 77522, Note_off_c, 0, 89, 64
1, 77524, Note_off_c, 0, 77, 64
1, 77524, Control_c, 0, 64, 127
1, 77562, Note_off_c, 0, 58, 64
1, 77810, Note_on_c, 0, 53, 96
1, 77810, Note_on_c, 0, 41, 78
1, 77810, Note_on_c, 0, 65, 85
1, 77848, Note_off_c, 0, 65, 64
1, 77850, Note_off_c, 0, 41, 64
1, 77862, Note_off_c, 0, 53, 64
1, 77868, Note_on_c, 0, 66, 55
1, 77946, Note_on_c, 0, 65, 48
1, 77998, Note_off_c, 0, 66, 64
1, 78028, Note_off_c, 0, 65, 64
1, 78030, Note_on_c, 0, 64, 75
1, 78094, Control_c, 0, 64, 0
1, 78098, Note_off_c, 0, 64, 64
1, 78108, Note_on_c, 0, 65, 77
1, 78158, Note_on_c, 0, 58, 84
1, 78164, Note_on_c, 0, 46, 78
1, 78164, Note_on_c, 0, 70, 90
1, 78228, Note_off_c, 0, 65, 64
1, 78248, Control_c, 0, 64, 127
1, 78274, Note_off_c, 0, 58, 64
1, 78294, Note_off_c, 0, 70, 64
1, 78334, Note_off_c, 0, 46, 64
1, 78570, Note_on_c, 0, 46, 76
1, 78573, Note_on_c, 0, 91, 106
1, 78578, Note_on_c, 0, 79, 108
1, 78578, Note_on_c, 0, 34, 78
1, 78590, Note_on_c, 0, 85, 80
1, 78634, Note_off_c, 0, 34, 64
1, 78642, Note_off_c, 0, 85, 64
1, 78654, Note_off_c, 0, 46, 64
1, 78684, Note_off_c, 0, 79, 64
1, 78874, Note_on_c, 0, 80, 100
1, 78878, Note_on_c, 0, 92, 92
1, 78948, Note_off_c, 0, 91, 64
1, 78996, Note_off_c, 0, 80, 64
1, 79148, Note_on_c, 0, 96, 111
1, 79156, Note_on_c, 0, 84, 98
1, 79162, Note_on_c, 0, 39, 106
1, 79167, Note_on_c, 0, 27, 98
1, 79194, Note_off_c, 0, 92, 64
1, 79214, Control_c, 0, 64, 0
1, 79322, Note_off_c, 0, 27, 64
1, 79350, Note_off_c, 0, 39, 64
1, 79354, Control_c, 0, 64, 127
1, 79428, Note_off_c, 0, 96, 64
1, 79428, Note_on_c, 0, 91, 91
1, 79434, Note_on_c, 0, 87, 72
1, 79496, Note_off_c, 0, 84, 64
1, 79636, Note_off_c, 0, 87, 64
1, 79730, Note_on_c, 0, 96, 103
1, 79738, Note_on_c, 0, 84, 96
1, 79748, Note_on_c, 0, 72, 101
1, 79756, Note_on_c, 0, 61, 76
1, 79758, Note_on_c, 0, 67, 79
1, 79762, Note_on_c, 0, 63, 71
1, 79840, Note_off_c, 0, 67, 64
1, 79846, Note_off_c, 0, 91, 64
1, 79904, Note_off_c, 0, 72, 64
1, 79954, Note_off_c, 0, 96, 64
1, 79994, Note_off_c, 0, 84, 64
1, 80042, Note_on_c, 0, 70, 84
1, 80140, Note_off_c, 0, 70, 64
1, 80152, Note_on_c, 0, 82, 89
1, 80155, Note_off_c, 0, 61, 64
1, 80155, Note_on_c, 0, 94, 85
1, 80158, Note_off_c, 0, 63, 64
1, 80188, Note_off_c, 0, 94, 64
1, 80196, Note_off_c, 0, 82, 64
1, 80260, Control_c, 0, 64, 0
1, 80264, Note_on_c, 0, 94, 48
1, 80272, Note_on_c, 0, 82, 84
1, 80302, Note_on_c, 0, 51, 85
1, 80352, Note_off_c, 0, 51, 64
1, 80382, Control_c, 0, 64, 127
1, 80414, Note_off_c, 0, 94, 64
1, 80466, Note_off_c, 0, 82, 64
1, 80492, Note_on_c, 0, 87, 89
1, 80504, Note_on_c, 0, 84, 88
1, 80544, Note_off_c, 0, 84, 64
1, 80640, Note_off_c, 0, 87, 64
1, 80672, Note_on_c, 0, 70, 84
1, 80682, Note_on_c, 0, 60, 75
1, 80690, Note_on_c, 0, 63, 68
1, 80732, Note_on_c, 0, 94, 94
1, 80732, Note_on_c, 0, 82, 93
1, 80816, Note_off_c, 0, 94, 64
1, 80822, Note_off_c, 0, 82, 64
1, 80836, Note_off_c, 0, 70, 64
1, 80948, Note_on_c, 0, 68, 84
1, 81002, Note_off_c, 0, 60, 64
1, 81030, Note_off_c, 0, 68, 64
1, 81042, Note_off_c, 0, 63, 64
1, 81044, Note_on_c, 0, 92, 85
1, 81050, Note_on_c, 0, 80, 82
1, 81076, Note_off_c, 0, 92, 64
1, 81086, Note_off_c, 0, 80, 64
1, 81136, Control_c, 0, 64, 0
1, 81136, Note_on_c, 0, 92, 53
1, 81144, Note_on_c, 0, 80, 76
1, 81180, Note_on_c, 0, 51, 79
1, 81258, Control_c, 0, 64, 127
1, 81292, Note_off_c, 0, 92, 64
1, 81294, Note_off_c, 0, 51, 64
1, 81306, Note_off_c, 0, 80, 64
1, 81342, Note_on_c, 0, 87, 81
1, 81342, Note_on_c, 0, 82, 84
1, 81456, Note_off_c, 0, 82, 64
1, 81508, Note_on_c, 0, 68, 88
1, 81520, Note_on_c, 0, 63, 81
1, 81532, Note_on_c, 0, 80, 95
1, 81532, Note_on_c, 0, 58, 45
1, 81535, Note_on_c, 0, 92, 90
1, 81574, Note_off_c, 0, 63, 64
1, 81580, Note_off_c, 0, 68, 64
1, 81606, Note_off_c, 0, 58, 64
1, 81658, Note_off_c, 0, 80, 64
1, 81658, Note_on_c, 0, 63, 7
1, 81668, Note_off_c, 0, 87, 64
1, 81682, Note_off_c, 0, 92, 64
1, 81708, Note_on_c, 0, 67, 84
1, 81716, Note_on_c, 0, 58, 38
1, 81756, Note_off_c, 0, 67, 64
1, 81796, Note_off_c, 0, 63, 64
1, 81826, Note_off_c, 0, 58, 64
1, 81829, Note_on_c, 0, 91, 89
1, 81832, Note_on_c, 0, 79, 85
1, 81862, Note_off_c, 0, 91, 64
1, 81870, Note_off_c, 0, 79, 64
1, 81920, Control_c, 0, 64, 0
1, 81926, Note_on_c, 0, 91, 62
1, 81928, Note_on_c, 0, 79, 88
1, 81964, Note_on_c, 0, 46, 86
1, 82072, Control_c, 0, 64, 127
1, 82102, Note_off_c, 0, 46, 64
1, 82118, Note_off_c, 0, 91, 64
1, 82126, Note_on_c, 0, 86, 84
1, 82129, Note_on_c, 0, 82, 67
1, 82148, Note_off_c, 0, 79, 64
1, 82256, Note_off_c, 0, 82, 64
1, 82298, Note_on_c, 0, 67, 93
1, 82308, Note_on_c, 0, 79, 100
1, 82310, Note_on_c, 0, 91, 95
1, 82310, Note_on_c, 0, 56, 61
1, 82312, Note_on_c, 0, 62, 66
1, 82316, Note_on_c, 0, 58, 45
1, 82350, Note_off_c, 0, 67, 64
1, 82384, Note_off_c, 0, 62, 64
1, 82402, Note_off_c, 0, 86, 64
1, 82412, Note_off_c, 0, 58, 64
1, 82422, Note_off_c, 0, 91, 64
1, 82425, Note_off_c, 0, 79, 64
1, 82508, Note_on_c, 0, 65, 78
1, 82522, Note_on_c, 0, 58, 49
1, 82552, Note_off_c, 0, 65, 64
1, 82590, Note_off_c, 0, 58, 64
1, 82602, Note_off_c, 0, 56, 64
1, 82602, Note_on_c, 0, 89, 55
1, 82605, Note_on_c, 0, 77, 52
1, 82652, Note_off_c, 0, 77, 64
1, 82654, Control_c, 0, 64, 0
1, 82656, Note_off_c, 0, 89, 64
1, 82694, Note_on_c, 0, 89, 87
1, 82696, Note_on_c, 0, 77, 101
1, 82702, Note_on_c, 0, 51, 88
1, 82764, Control_c, 0, 64, 127
1, 82786, Note_off_c, 0, 89, 64
1, 82856, Note_off_c, 0, 51, 64
1, 82882, Note_on_c, 0, 82, 79
1, 82882, Note_on_c, 0, 79, 89
1, 82892, Note_off_c, 0, 77, 64
1, 82920, Note_off_c, 0, 79, 64
1, 83004, Note_off_c, 0, 82, 64
1, 83050, Note_on_c, 0, 65, 88
1, 83054, Note_on_c, 0, 89, 98
1, 83054, Note_on_c, 0, 77, 90
1, 83056, Note_on_c, 0, 58, 67
1, 83064, Note_on_c, 0, 55, 75
1, 83122, Note_off_c, 0, 77, 64
1, 83128, Note_off_c, 0, 89, 64
1, 83138, Note_off_c, 0, 65, 64
1, 83248, Note_on_c, 0, 63, 87
1, 83284, Note_off_c, 0, 63, 64
1, 83316, Note_off_c, 0, 58, 64
1, 83328, Note_off_c, 0, 55, 64
1, 83338, Note_on_c, 0, 75, 86
1, 83338, Note_on_c, 0, 87, 78
1, 83372, Note_off_c, 0, 87, 64
1, 83380, Note_off_c, 0, 75, 64
1, 83456, Note_on_c, 0, 73, 82
1, 83456, Control_c, 0, 64, 0
1, 83459, Note_on_c, 0, 85, 83
1, 83482, Note_on_c, 0, 41, 97
1, 83485, Note_on_c, 0, 53, 105
1, 83654, Note_off_c, 0, 41, 64
1, 83656, Control_c, 0, 64, 127
1, 83676, Note_on_c, 0, 80, 86
1, 83682, Note_on_c, 0, 77, 83
1, 83690, Note_off_c, 0, 53, 64
1, 83724, Note_off_c, 0, 85, 64
1, 83744, Note_off_c, 0, 73, 64
1, 83830, Note_off_c, 0, 77, 64
1, 83864, Note_on_c, 0, 85, 92
1, 83874, Note_on_c, 0, 73, 87
1, 83882, Note_on_c, 0, 61, 88
1, 83900, Note_on_c, 0, 56, 55
1, 83920, Note_off_c, 0, 80, 64
1, 84026, Note_off_c, 0, 61, 64
1, 84072, Note_off_c, 0, 73, 64
1, 84104, Note_off_c, 0, 85, 64
1, 84107, Note_on_c, 0, 60, 83
1, 84148, Note_off_c, 0, 60, 64
1, 84174, Note_off_c, 0, 56, 64
1, 84226, Note_on_c, 0, 84, 92
1, 84232, Note_on_c, 0, 72, 64
1, 84256, Note_off_c, 0, 84, 64
1, 84278, Note_off_c, 0, 72, 64
1, 84470, Control_c, 0, 64, 0
1, 84472, Note_on_c, 0, 49, 65
1, 84484, Note_on_c, 0, 65, 96
1, 84486, Note_on_c, 0, 37, 60
1, 84666, Note_off_c, 0, 37, 64
1, 84670, Control_c, 0, 64, 127
1, 84676, Note_off_c, 0, 49, 64
1, 84870, Note_on_c, 0, 58, 58
1, 84886, Note_on_c, 0, 53, 86
1, 84948, Note_off_c, 0, 53, 64
1, 84964, Note_off_c, 0, 58, 64
1, 85184, Note_off_c, 0, 65, 64
1, 85222, Control_c, 0, 64, 0
1, 85256, Note_on_c, 0, 48, 79
1, 85259, Note_on_c, 0, 36, 87
1, 85264, Note_on_c, 0, 67, 85
1, 85306, Note_off_c, 0, 67, 64
1, 85312, Note_off_c, 0, 36, 64
1, 85312, Note_on_c, 0, 68, 73
1, 85340, Note_off_c, 0, 48, 64
1, 85376, Control_c, 0, 64, 127
1, 85376, Note_on_c, 0, 67, 55
1, 85410, Note_off_c, 0, 68, 64
1, 85450, Note_off_c, 0, 67, 64
1, 85468, Note_on_c, 0, 68, 75
1, 85530, Note_on_c, 0, 67, 56
1, 85588, Note_off_c, 0, 68, 64
1, 85612, Note_on_c, 0, 60, 78
1, 85618, Note_on_c, 0, 52, 80
1, 85624, Note_on_c, 0, 58, 58
1, 85630, Note_on_c, 0, 65, 88
1, 85664, Note_off_c, 0, 67, 64
1, 85667, Note_off_c, 0, 60, 64
1, 85686, Note_off_c, 0, 52, 64
1, 85710, Note_off_c, 0, 58, 64
1, 85802, Note_on_c, 0, 67, 98
1, 85842, Note_off_c, 0, 65, 64
1, 85986, Note_on_c, 0, 68, 83
1, 85992, Control_c, 0, 64, 0
1, 86004, Note_on_c, 0, 41, 95
1, 86006, Note_on_c, 0, 29, 103
1, 86009, Note_off_c, 0, 67, 64
1, 86052, Note_on_c, 0, 70, 68
1, 86080, Note_off_c, 0, 68, 64
1, 86102, Note_off_c, 0, 29, 64
1, 86130, Note_on_c, 0, 68, 82
1, 86138, Note_off_c, 0, 70, 64
1, 86144, Control_c, 0, 64, 127
1, 86152, Note_off_c, 0, 41, 64
1, 86206, Note_on_c, 0, 70, 67
1, 86234, Note_off_c, 0, 68, 64
1, 86294, Note_on_c, 0, 68, 78
1, 86378, Note_off_c, 0, 70, 64
1, 86384, Note_on_c, 0, 67, 97
1, 86398, Note_on_c, 0, 60, 78
1, 86406, Note_on_c, 0, 56, 60
1, 86418, Note_on_c, 0, 53, 84
1, 86444, Note_off_c, 0, 68, 64
1, 86528, Note_off_c, 0, 60, 64
1, 86550, Note_off_c, 0, 67, 64
1, 86570, Note_on_c, 0, 68, 95
1, 86578, Note_off_c, 0, 56, 64
1, 86580, Note_off_c, 0, 53, 64
1, 86762, Note_on_c, 0, 69, 88
1, 86772, Note_on_c, 0, 67, 68
1, 86775, Note_on_c, 0, 51, 83
1, 86775, Control_c, 0, 64, 0
1, 86778, Note_on_c, 0, 39, 82
1, 86786, Note_on_c, 0, 61, 82
1, 86796, Note_off_c, 0, 68, 64
1, 86946, Note_off_c, 0, 61, 64
1, 86954, Note_on_c, 0, 70, 86
1, 86962, Note_off_c, 0, 39, 64
1, 86965, Note_off_c, 0, 51, 64
1, 86974, Control_c, 0, 64, 127
1, 87006, Note_off_c, 0, 67, 64
1, 87009, Note_off_c, 0, 69, 64
1, 87138, Note_on_c, 0, 72, 88
1, 87144, Note_on_c, 0, 61, 79
1, 87147, Note_on_c, 0, 67, 79
1, 87150, Note_on_c, 0, 58, 56
1, 87160, Note_off_c, 0, 70, 64
1, 87164, Note_on_c, 0, 51, 53
1, 87270, Note_off_c, 0, 67, 64
1, 87298, Note_off_c, 0, 61, 64
1, 87312, Note_off_c, 0, 58, 64
1, 87314, Note_on_c, 0, 73, 92
1, 87342, Note_off_c, 0, 51, 64
1, 87366, Note_off_c, 0, 72, 64
1, 87452, Note_off_c, 0, 73, 64
1, 87486, Control_c, 0, 64, 0
1, 87506, Note_on_c, 0, 72, 89
1, 87506, Note_on_c, 0, 56, 81
1, 87509, Note_on_c, 0, 68, 79
1, 87512, Note_on_c, 0, 44, 68
1, 87515, Note_on_c, 0, 51, 64
1, 87528, Note_on_c, 0, 60, 81
1, 87608, Note_off_c, 0, 60, 64
1, 87650, Control_c, 0, 64, 127
1, 87662, Note_off_c, 0, 44, 64
1, 87665, Note_off_c, 0, 56, 64
1, 87684, Note_off_c, 0, 51, 64
1, 87716, Note_off_c, 0, 72, 64
1, 87734, Note_off_c, 0, 68, 64
1, 87881, Note_on_c, 0, 77, 99
1, 87888, Note_on_c, 0, 62, 82
1, 87888, Note_on_c, 0, 68, 78
1, 87891, Note_on_c, 0, 65, 76
1, 87912, Note_on_c, 0, 59, 43
1, 88094, Note_off_c, 0, 59, 64
1, 88096, Note_off_c, 0, 62, 64
1, 88166, Note_off_c, 0, 77, 64
1, 88194, Note_on_c, 0, 63, 75
1, 88200, Note_on_c, 0, 60, 65
1, 88208, Note_on_c, 0, 75, 71
1, 88234, Note_off_c, 0, 68, 64
1, 88244, Note_off_c, 0, 63, 64
1, 88246, Note_off_c, 0, 65, 64
1, 88250, Note_off_c, 0, 60, 64
1, 88252, Note_off_c, 0, 75, 64
1, 88306, Note_on_c, 0, 63, 85
1, 88308, Note_on_c, 0, 75, 88
1, 88320, Note_on_c, 0, 60, 60
1, 88326, Control_c, 0, 64, 0
1, 88496, Control_c, 0, 64, 127
1, 88496, Note_on_c, 0, 68, 97
1, 88502, Note_off_c, 0, 60, 64
1, 88508, Note_off_c, 0, 63, 64
1, 88588, Note_off_c, 0, 75, 64
1, 88695, Note_on_c, 0, 80, 99
1, 88695, Note_on_c, 0, 56, 75
1, 88702, Note_on_c, 0, 44, 93
1, 88834, Note_off_c, 0, 56, 64
1, 88926, Note_off_c, 0, 68, 64
1, 88926, Note_off_c, 0, 44, 64
1, 88938, Note_off_c, 0, 80, 64
1, 89024, Note_on_c, 0, 79, 98
1, 89027, Note_on_c, 0, 67, 85
1, 89056, Note_off_c, 0, 79, 64
1, 89070, Note_off_c, 0, 67, 64
1, 89154, Note_on_c, 0, 49, 93
1, 89154, Note_on_c, 0, 77, 101
1, 89157, Control_c, 0, 64, 0
1, 89157, Note_on_c, 0, 65, 100
1, 89164, Note_on_c, 0, 37, 92
1, 89402, Note_off_c, 0, 37, 64
1, 89404, Control_c, 0, 64, 127
1, 89428, Note_off_c, 0, 49, 64
1, 89554, Note_on_c, 0, 58, 75
1, 89562, Note_on_c, 0, 53, 98
1, 89656, Note_off_c, 0, 53, 64
1, 89660, Note_off_c, 0, 58, 64
1, 89810, Note_off_c, 0, 65, 64
1, 89908, Control_c, 0, 64, 0
1, 89942, Note_on_c, 0, 67, 98
1, 89952, Note_on_c, 0, 48, 94
1, 89964, Note_on_c, 0, 36, 97
1, 90048, Note_off_c, 0, 67, 64
1, 90056, Note_off_c, 0, 77, 64
1, 90062, Note_off_c, 0, 36, 64
1, 90078, Control_c, 0, 64, 127
1, 90090, Note_off_c, 0, 48, 64
1, 90176, Note_on_c, 0, 79, 87
1, 90222, Note_off_c, 0, 79, 64
1, 90258, Note_on_c, 0, 80, 79
1, 90304, Note_on_c, 0, 79, 85
1, 90364, Note_off_c, 0, 79, 64
1, 90370, Note_off_c, 0, 80, 64
1, 90438, Note_on_c, 0, 64, 89
1, 90444, Note_on_c, 0, 58, 63
1, 90448, Note_on_c, 0, 60, 71
1, 90470, Note_on_c, 0, 77, 84
1, 90472, Note_on_c, 0, 65, 78
1, 90476, Note_off_c, 0, 64, 64
1, 90498, Note_off_c, 0, 60, 64
1, 90510, Note_off_c, 0, 65, 64
1, 90512, Note_off_c, 0, 58, 64
1, 90574, Note_off_c, 0, 77, 64
1, 90638, Note_on_c, 0, 79, 101
1, 90644, Note_on_c, 0, 67, 93
1, 90734, Note_off_c, 0, 79, 64
1, 90746, Note_off_c, 0, 67, 64
1, 90832, Control_c, 0, 64, 0
1, 90846, Note_on_c, 0, 68, 98
1, 90864, Note_on_c, 0, 41, 105
1, 90866, Note_on_c, 0, 29, 108
1, 90948, Note_off_c, 0, 29, 64
1, 90984, Note_off_c, 0, 41, 64
1, 90992, Note_off_c, 0, 68, 64
1, 91000, Control_c, 0, 64, 127
1, 91026, Note_on_c, 0, 80, 66
1, 91074, Note_off_c, 0, 80, 64
1, 91082, Note_on_c, 0, 82, 59
1, 91162, Note_on_c, 0, 80, 64
1, 91236, Note_off_c, 0, 82, 64
1, 91256, Note_off_c, 0, 80, 64
1, 91294, Note_on_c, 0, 65, 79
1, 91296, Note_on_c, 0, 67, 92
1, 91300, Note_on_c, 0, 79, 97
1, 91300, Note_on_c, 0, 60, 74
1, 91302, Note_on_c, 0, 78, 30
1, 91304, Note_on_c, 0, 56, 69
1, 91368, Note_off_c, 0, 78, 64
1, 91374, Note_off_c, 0, 65, 64
1, 91388, Note_off_c, 0, 67, 64
1, 91404, Note_off_c, 0, 79, 64
1, 91442, Note_off_c, 0, 60, 64
1, 91464, Note_on_c, 0, 80, 90
1, 91472, Note_on_c, 0, 68, 84
1, 91480, Note_off_c, 0, 56, 64
1, 91578, Note_off_c, 0, 68, 64
1, 91600, Note_off_c, 0, 80, 64
1, 91614, Control_c, 0, 64, 0
1, 91662, Note_on_c, 0, 81, 101
1, 91664, Note_on_c, 0, 69, 92
1, 91672, Note_on_c, 0, 75, 75
1, 91672, Note_on_c, 0, 51, 97
1, 91676, Note_on_c, 0, 39, 95
1, 91770, Note_off_c, 0, 51, 64
1, 91778, Note_off_c, 0, 81, 64
1, 91778, Note_off_c, 0, 69, 64
1, 91780, Note_off_c, 0, 39, 64
1, 91798, Control_c, 0, 64, 127
1, 91812, Note_off_c, 0, 75, 64
1, 91868, Note_on_c, 0, 82, 90
1, 91876, Note_on_c, 0, 70, 84
1, 91938, Note_off_c, 0, 70, 64
1, 91964, Note_off_c, 0, 82, 64
1, 92042, Note_on_c, 0, 79, 94
1, 92044, Note_on_c, 0, 84, 101
1, 92046, Note_on_c, 0, 72, 90
1, 92048, Note_on_c, 0, 58, 70
1, 92048, Note_on_c, 0, 67, 94
1, 92054, Note_on_c, 0, 63, 79
1, 92068, Note_on_c, 0, 61, 64
1, 92096, Note_off_c, 0, 67, 64
1, 92104, Note_off_c, 0, 63, 64
1, 92118, Note_off_c, 0, 84, 64
1, 92132, Note_off_c, 0, 72, 64
1, 92186, Note_off_c, 0, 58, 64
1, 92212, Note_on_c, 0, 85, 96
1, 92215, Note_on_c, 0, 73, 95
1, 92232, Note_off_c, 0, 61, 64
1, 92322, Note_off_c, 0, 79, 64
1, 92346, Note_off_c, 0, 85, 64
1, 92346, Note_off_c, 0, 73, 64
1, 92352, Control_c, 0, 64, 0
1, 92396, Note_on_c, 0, 68, 92
1, 92404, Note_on_c, 0, 80, 87
1, 92404, Note_on_c, 0, 84, 106
1, 92404, Note_on_c, 0, 72, 107
1, 92407, Note_on_c, 0, 63, 84
1, 92410, Note_on_c, 0, 56, 79
1, 92506, Control_c, 0, 64, 127
1, 92526, Note_off_c, 0, 63, 64
1, 92530, Note_off_c, 0, 56, 64
1, 92536, Note_off_c, 0, 72, 64
1, 92548, Note_off_c, 0, 80, 64
1, 92550, Note_off_c, 0, 68, 64
1, 92576, Note_off_c, 0, 84, 64
1, 92794, Note_on_c, 0, 89, 101
1, 92796, Note_on_c, 0, 71, 98
1, 92798, Control_c, 0, 64, 0
1, 92800, Note_on_c, 0, 80, 91
1, 92800, Note_on_c, 0, 77, 100
1, 92804, Note_on_c, 0, 68, 73
1, 92808, Note_on_c, 0, 62, 73
1, 92822, Note_on_c, 0, 59, 64
1, 92930, Note_off_c, 0, 89, 64
1, 92948, Note_off_c, 0, 77, 64
1, 92952, Control_c, 0, 64, 127
1, 92990, Note_off_c, 0, 59, 64
1, 93008, Note_off_c, 0, 71, 64
1, 93008, Note_off_c, 0, 62, 64
1, 93018, Note_off_c, 0, 80, 64
1, 93028, Note_off_c, 0, 68, 64
1, 93120, Note_on_c, 0, 87, 70
1, 93122, Note_on_c, 0, 75, 84
1, 93154, Note_off_c, 0, 87, 64
1, 93158, Note_off_c, 0, 75, 64
1, 93222, Note_on_c, 0, 87, 62
1, 93228, Note_on_c, 0, 75, 78
1, 93230, Control_c, 0, 64, 0
1, 93234, Note_on_c, 0, 80, 96
1, 93258, Note_on_c, 0, 72, 67
1, 93260, Note_on_c, 0, 68, 2
1, 93272, Note_on_c, 0, 63, 72
1, 93282, Note_on_c, 0, 60, 78
1, 93358, Note_off_c, 0, 72, 64
1, 93372, Note_off_c, 0, 63, 64
1, 93388, Note_off_c, 0, 68, 64
1, 93396, Control_c, 0, 64, 127
1, 93404, Note_off_c, 0, 75, 64
1, 93406, Note_off_c, 0, 87, 64
1, 93406, Note_off_c, 0, 60, 64
1, 93426, Note_off_c, 0, 80, 64
1, 93480, Note_on_c, 0, 75, 78
1, 93480, Note_on_c, 0, 87, 64
1, 93534, Note_off_c, 0, 87, 64
1, 93562, Note_off_c, 0, 75, 64
1, 93570, Note_on_c, 0, 53, 62
1, 93610, Note_on_c, 0, 60, 63
1, 93612, Note_on_c, 0, 85, 90
1, 93612, Note_on_c, 0, 69, 84
1, 93614, Note_on_c, 0, 73, 100
1, 93614, Note_on_c, 0, 81, 92
1, 93620, Note_on_c, 0, 63, 77
1, 93624, Note_off_c, 0, 53, 64
1, 93652, Note_off_c, 0, 69, 64
1, 93670, Note_off_c, 0, 63, 64
1, 93678, Note_off_c, 0, 60, 64
1, 93780, Note_off_c, 0, 81, 64
1, 93794, Note_off_c, 0, 73, 64
1, 93812, Note_off_c, 0, 85, 64
1, 93898, Note_on_c, 0, 72, 94
1, 93901, Note_on_c, 0, 84, 83
1, 93932, Note_on_c, 0, 46, 66
1, 93936, Note_off_c, 0, 72, 64
1, 93938, Note_off_c, 0, 84, 64
1, 93978, Note_on_c, 0, 53, 96
1, 93980, Control_c, 0, 64, 0
1, 94010, Note_on_c, 0, 70, 90
1, 94016, Note_on_c, 0, 82, 90
1, 94028, Note_on_c, 0, 61, 88
1, 94080, Note_off_c, 0, 46, 64
1, 94112, Note_off_c, 0, 53, 64
1, 94150, Control_c, 0, 64, 127
1, 94158, Note_off_c, 0, 61, 64
1, 94190, Note_off_c, 0, 70, 64
1, 94202, Note_off_c, 0, 82, 64
1, 94334, Note_on_c, 0, 51, 69
1, 94364, Control_c, 0, 64, 0
1, 94372, Note_on_c, 0, 58, 52
1, 94386, Note_off_c, 0, 51, 64
1, 94389, Note_on_c, 0, 82, 90
1, 94389, Note_on_c, 0, 70, 99
1, 94398, Note_on_c, 0, 78, 80
1, 94422, Note_on_c, 0, 66, 79
1, 94504, Control_c, 0, 64, 127
1, 94532, Note_off_c, 0, 66, 64
1, 94546, Note_off_c, 0, 70, 64
1, 94549, Note_off_c, 0, 78, 64
1, 94566, Note_off_c, 0, 82, 64
1, 94580, Note_off_c, 0, 58, 64
1, 94666, Note_on_c, 0, 72, 91
1, 94671, Note_on_c, 0, 84, 74
1, 94686, Note_on_c, 0, 46, 81
1, 94702, Note_off_c, 0, 72, 64
1, 94712, Note_off_c, 0, 84, 64
1, 94742, Note_on_c, 0, 53, 77
1, 94744, Note_on_c, 0, 80, 5
1, 94760, Note_on_c, 0, 85, 100
1, 94768, Note_on_c, 0, 73, 88
1, 94774, Note_on_c, 0, 77, 85
1, 94778, Note_off_c, 0, 46, 64
1, 94780, Control_c, 0, 64, 0
1, 94780, Note_on_c, 0, 61, 95
1, 94810, Note_off_c, 0, 80, 64
1, 94918, Control_c, 0, 64, 127
1, 94926, Note_off_c, 0, 61, 64
1, 94962, Note_off_c, 0, 53, 64
1, 94992, Note_off_c, 0, 73, 64
1, 94995, Note_off_c, 0, 77, 64
1, 95002, Note_off_c, 0, 85, 64
1, 95068, Note_on_c, 0, 39, 83
1, 95106, Note_off_c, 0, 39, 64
1, 95109, Note_on_c, 0, 46, 61
1, 95148, Control_c, 0, 64, 0
1, 95158, Note_on_c, 0, 85, 97
1, 95158, Note_on_c, 0, 73, 101
1, 95161, Note_on_c, 0, 78, 89
1, 95180, Note_on_c, 0, 54, 98
1, 95302, Control_c, 0, 64, 127
1, 95312, Note_off_c, 0, 54, 64
1, 95334, Note_off_c, 0, 78, 64
1, 95337, Note_off_c, 0, 73, 64
1, 95342, Note_off_c, 0, 85, 64
1, 95360, Note_off_c, 0, 46, 64
1, 95452, Note_on_c, 0, 84, 78
1, 95452, Note_on_c, 0, 72, 80
1, 95468, Note_on_c, 0, 34, 85
1, 95490, Note_off_c, 0, 84, 64
1, 95490, Note_off_c, 0, 72, 64
1, 95514, Note_on_c, 0, 41, 68
1, 95552, Note_on_c, 0, 82, 88
1, 95556, Note_on_c, 0, 70, 97
1, 95556, Note_on_c, 0, 77, 87
1, 95564, Control_c, 0, 64, 0
1, 95572, Note_on_c, 0, 49, 90
1, 95586, Note_off_c, 0, 34, 64
1, 95640, Note_off_c, 0, 41, 64
1, 95718, Control_c, 0, 64, 127
1, 95744, Note_off_c, 0, 70, 64
1, 95747, Note_off_c, 0, 82, 64
1, 95752, Note_off_c, 0, 49, 64
1, 95760, Note_off_c, 0, 77, 64
1, 95900, Note_on_c, 0, 39, 74
1, 95960, Note_on_c, 0, 46, 64
1, 96008, Note_off_c, 0, 39, 64
1, 96008, Control_c, 0, 64, 0
1, 96030, Note_on_c, 0, 80, 100
1, 96030, Note_on_c, 0, 68, 95
1, 96033, Note_on_c, 0, 54, 97
1, 96046, Note_on_c, 0, 75, 69
1, 96049, Note_on_c, 0, 70, 57
1, 96096, Note_off_c, 0, 75, 64
1, 96110, Note_off_c, 0, 70, 64
1, 96170, Note_off_c, 0, 46, 64
1, 96170, Control_c, 0, 64, 127
1, 96178, Note_off_c, 0, 68, 64
1, 96192, Note_off_c, 0, 54, 64
1, 96220, Note_off_c, 0, 80, 64
1, 96400, Note_on_c, 0, 66, 77
1, 96402, Note_on_c, 0, 78, 83
1, 96418, Note_on_c, 0, 46, 69
1, 96454, Control_c, 0, 64, 0
1, 96456, Note_off_c, 0, 66, 64
1, 96458, Note_off_c, 0, 78, 64
1, 96512, Note_on_c, 0, 53, 100
1, 96540, Note_on_c, 0, 77, 100
1, 96544, Note_on_c, 0, 65, 99
1, 96546, Note_on_c, 0, 73, 80
1, 96556, Note_on_c, 0, 61, 101
1, 96578, Note_off_c, 0, 46, 64
1, 96610, Note_off_c, 0, 53, 64
1, 96626, Note_off_c, 0, 65, 64
1, 96640, Control_c, 0, 64, 127
1, 96646, Note_off_c, 0, 61, 64
1, 96648, Note_off_c, 0, 77, 64
1, 96688, Note_off_c, 0, 73, 64
1, 97112, Note_on_c, 0, 33, 71
1, 97118, Note_on_c, 0, 45, 75
1, 97182, Note_on_c, 0, 34, 44
1, 97184, Note_off_c, 0, 33, 64
1, 97208, Note_off_c, 0, 45, 64
1, 97228, Note_on_c, 0, 36, 74
1, 97232, Note_off_c, 0, 34, 64
1, 97276, Note_on_c, 0, 48, 56
1, 97294, Note_off_c, 0, 36, 64
1, 97322, Note_on_c, 0, 37, 78
1, 97334, Note_off_c, 0, 48, 64
1, 97356, Note_on_c, 0, 49, 70
1, 97374, Note_on_c, 0, 39, 55
1, 97432, Note_on_c, 0, 51, 62
1, 97454, Note_off_c, 0, 37, 64
1, 97456, Note_on_c, 0, 41, 75
1, 97464, Note_off_c, 0, 49, 64
1, 97476, Note_off_c, 0, 51, 64
1, 97500, Note_off_c, 0, 39, 64
1, 97500, Note_off_c, 0, 41, 64
1, 97522, Note_on_c, 0, 43, 69
1, 97522, Note_on_c, 0, 53, 80
1, 97572, Note_on_c, 0, 55, 84
1, 97576, Note_off_c, 0, 53, 64
1, 97584, Note_off_c, 0, 43, 64
1, 97614, Note_on_c, 0, 45, 69
1, 97644, Note_on_c, 0, 57, 69
1, 97658, Note_off_c, 0, 55, 64
1, 97692, Note_on_c, 0, 46, 72
1, 97712, Note_on_c, 0, 58, 71
1, 97720, Note_off_c, 0, 45, 64
1, 97742, Note_off_c, 0, 57, 64
1, 97746, Note_off_c, 0, 58, 64
1, 97762, Note_on_c, 0, 48, 76
1, 97772, Note_off_c, 0, 46, 64
1, 97786, Note_on_c, 0, 60, 70
1, 97840, Note_on_c, 0, 49, 78
1, 97846, Note_off_c, 0, 48, 64
1, 97846, Note_on_c, 0, 61, 86
1, 97874, Note_off_c, 0, 60, 64
1, 97884, Note_on_c, 0, 51, 70
1, 97918, Note_on_c, 0, 63, 83
1, 97942, Note_on_c, 0, 53, 96
1, 97945, Note_off_c, 0, 61, 64
1, 97948, Note_off_c, 0, 63, 64
1, 97970, Note_off_c, 0, 49, 64
1, 97978, Note_off_c, 0, 53, 64
1, 98000, Note_off_c, 0, 51, 64
1, 98000, Note_on_c, 0, 55, 89
1, 98006, Note_on_c, 0, 65, 70
1, 98052, Note_on_c, 0, 67, 78
1, 98056, Note_off_c, 0, 55, 64
1, 98066, Note_off_c, 0, 65, 64
1, 98088, Note_on_c, 0, 57, 75
1, 98118, Note_on_c, 0, 69, 65
1, 98160, Note_on_c, 0, 58, 76
1, 98170, Note_off_c, 0, 67, 64
1, 98170, Note_on_c, 0, 70, 75
1, 98196, Note_off_c, 0, 57, 64
1, 98204, Note_off_c, 0, 70, 64
1, 98220, Note_off_c, 0, 69, 64
1, 98226, Note_on_c, 0, 60, 84
1, 98244, Note_on_c, 0, 72, 85
1, 98262, Note_off_c, 0, 58, 64
1, 98296, Note_off_c, 0, 60, 64
1, 98310, Note_on_c, 0, 73, 79
1, 98310, Note_on_c, 0, 61, 85
1, 98352, Note_off_c, 0, 72, 64
1, 98352, Note_on_c, 0, 63, 76
1, 98370, Note_on_c, 0, 75, 84
1, 98396, Note_off_c, 0, 73, 64
1, 98402, Note_off_c, 0, 75, 64
1, 98408, Note_on_c, 0, 65, 66
1, 98450, Note_off_c, 0, 65, 64
1, 98453, Note_on_c, 0, 67, 89
1, 98456, Note_on_c, 0, 77, 83
1, 98458, Note_off_c, 0, 61, 64
1, 98462, Note_off_c, 0, 63, 64
1, 98508, Note_off_c, 0, 67, 64
1, 98508, Note_on_c, 0, 79, 88
1, 98516, Note_off_c, 0, 77, 64
1, 98544, Note_on_c, 0, 69, 74
1, 98570, Note_on_c, 0, 81, 77
1, 98602, Note_off_c, 0, 79, 64
1, 98608, Note_on_c, 0, 70, 80
1, 98620, Note_on_c, 0, 82, 78
1, 98652, Note_off_c, 0, 82, 64
1, 98656, Note_off_c, 0, 69, 64
1, 98666, Note_off_c, 0, 81, 64
1, 98678, Note_on_c, 0, 72, 79
1, 98704, Note_off_c, 0, 70, 64
1, 98704, Note_on_c, 0, 84, 94
1, 98748, Note_off_c, 0, 72, 64
1, 98766, Note_on_c, 0, 73, 79
1, 98766, Note_on_c, 0, 85, 79
1, 98808, Note_on_c, 0, 75, 63
1, 98810, Note_off_c, 0, 84, 64
1, 98840, Note_on_c, 0, 87, 77
1, 98874, Note_off_c, 0, 87, 64
1, 98884, Note_on_c, 0, 77, 62
1, 98890, Note_off_c, 0, 85, 64
1, 98920, Note_off_c, 0, 75, 64
1, 98924, Note_off_c, 0, 73, 64
1, 98926, Note_on_c, 0, 79, 94
1, 98930, Note_off_c, 0, 77, 64
1, 98932, Note_on_c, 0, 89, 81
1, 98972, Note_off_c, 0, 79, 64
1, 99000, Note_on_c, 0, 91, 83
1, 99014, Note_on_c, 0, 79, 64
1, 99050, Note_off_c, 0, 89, 64
1, 99052, Note_on_c, 0, 81, 84
1, 99054, Note_off_c, 0, 79, 64
1, 99086, Note_off_c, 0, 81, 64
1, 99086, Note_on_c, 0, 93, 74
1, 99106, Note_off_c, 0, 91, 64
1, 99132, Note_on_c, 0, 94, 97
1, 99134, Note_on_c, 0, 82, 108
1, 99214, Note_off_c, 0, 82, 64
1, 99250, Note_off_c, 0, 93, 64
1, 99376, Note_off_c, 0, 94, 64
1, 99680, Control_c, 0, 64, 0
1, 99696, Note_on_c, 0, 96, 99
1, 99704, Note_on_c, 0, 85, 90
1, 99710, Note_on_c, 0, 94, 83
1, 99712, Note_on_c, 0, 91, 85
1, 99720, Note_on_c, 0, 39, 103
1, 99725, Note_on_c, 0, 27, 102
1, 99788, Note_off_c, 0, 27, 64
1, 99814, Note_off_c, 0, 39, 64
1, 99850, Control_c, 0, 64, 127
1, 99864, Note_off_c, 0, 96, 64
1, 99866, Note_off_c, 0, 91, 64
1, 99898, Note_off_c, 0, 85, 64
1, 99920, Note_off_c, 0, 94, 64
1, 99950, Note_on_c, 0, 93, 99
1, 99964, Note_on_c, 0, 90, 78
1, 99964, Note_on_c, 0, 84, 88
1, 100100, Note_off_c, 0, 84, 64
1, 100138, Note_off_c, 0, 90, 64
1, 100204, Note_off_c, 0, 93, 64
1, 100224, Note_on_c, 0, 94, 83
1, 100232, Note_on_c, 0, 85, 98
1, 100234, Note_on_c, 0, 91, 85
1, 100252, Note_on_c, 0, 63, 100
1, 100255, Note_on_c, 0, 51, 97
1, 100278, Note_off_c, 0, 63, 64
1, 100281, Note_off_c, 0, 51, 64
1, 100434, Note_off_c, 0, 91, 64
1, 100439, Note_off_c, 0, 94, 64
1, 100452, Note_off_c, 0, 85, 64
1, 100648, Note_on_c, 0, 96, 100
1, 100650, Control_c, 0, 64, 0
1, 100650, Note_on_c, 0, 84, 103
1, 100656, Note_on_c, 0, 91, 91
1, 100670, Note_on_c, 0, 75, 90
1, 100684, Note_on_c, 0, 72, 68
1, 100684, Note_on_c, 0, 67, 67
1, 100684, Note_on_c, 0, 63, 68
1, 100772, Control_c, 0, 64, 127
1, 100780, Note_off_c, 0, 96, 64
1, 100806, Note_off_c, 0, 72, 64
1, 100818, Note_off_c, 0, 91, 64
1, 100821, Note_off_c, 0, 67, 64
1, 100830, Note_off_c, 0, 63, 64
1, 100836, Note_off_c, 0, 84, 64
1, 100848, Note_off_c, 0, 75, 64
1, 101018, Control_c, 0, 64, 0
1, 101042, Note_on_c, 0, 92, 91
1, 101046, Note_on_c, 0, 80, 100
1, 101048, Note_on_c, 0, 77, 95
1, 101050, Note_on_c, 0, 84, 95
1, 101056, Note_on_c, 0, 68, 64
1, 101068, Note_on_c, 0, 65, 58
1, 101068, Note_on_c, 0, 72, 66
1, 101172, Control_c, 0, 64, 127
1, 101175, Note_off_c, 0, 77, 64
1, 101178, Note_off_c, 0, 72, 64
1, 101180, Note_off_c, 0, 92, 64
1, 101196, Note_off_c, 0, 68, 64
1, 101204, Note_off_c, 0, 65, 64
1, 101208, Note_off_c, 0, 84, 64
1, 101236, Note_off_c, 0, 80, 64
1, 101434, Note_on_c, 0, 87, 86
1, 101436, Note_on_c, 0, 75, 94
1, 101436, Note_on_c, 0, 80, 84
1, 101440, Note_on_c, 0, 72, 87
1, 101444, Note_on_c, 0, 68, 70
1, 101456, Note_on_c, 0, 60, 64
1, 101464, Control_c, 0, 64, 0
1, 101602, Control_c, 0, 64, 127
1, 101630, Note_off_c, 0, 75, 64
1, 101630, Note_off_c, 0, 60, 64
1, 101646, Note_off_c, 0, 80, 64
1, 101646, Note_off_c, 0, 72, 64
1, 101674, Note_off_c, 0, 87, 64
1, 101676, Note_off_c, 0, 68, 64
1, 101786, Control_c, 0, 64, 0
1, 101812, Note_on_c, 0, 89, 102
1, 101812, Note_on_c, 0, 77, 99
1, 101815, Note_on_c, 0, 80, 85
1, 101824, Note_on_c, 0, 73, 88
1, 101840, Note_on_c, 0, 68, 63
1, 101842, Note_on_c, 0, 61, 59
1, 101870, Note_off_c, 0, 73, 64
1, 101886, Note_off_c, 0, 77, 64
1, 101890, Note_off_c, 0, 68, 64
1, 101900, Note_off_c, 0, 89, 64
1, 101924, Control_c, 0, 64, 127
1, 101944, Note_off_c, 0, 80, 64
1, 101954, Note_off_c, 0, 61, 64
1, 102280, Note_on_c, 0, 63, 102
1, 102290, Note_on_c, 0, 61, 88
1, 102292, Note_on_c, 0, 55, 100
1, 102292, Note_on_c, 0, 51, 89
1, 102294, Control_c, 0, 64, 0
1, 102298, Note_on_c, 0, 39, 83
1, 102308, Note_on_c, 0, 46, 66
1, 102532, Note_off_c, 0, 55, 64
1, 102560, Note_off_c, 0, 61, 64
1, 102570, Control_c, 0, 64, 127
1, 102592, Note_off_c, 0, 63, 64
1, 102656, Note_on_c, 0, 61, 73
1, 102680, Note_on_c, 0, 55, 84
1, 102708, Note_on_c, 0, 63, 59
1, 102754, Note_off_c, 0, 55, 64
1, 102812, Note_off_c, 0, 51, 64
1, 102924, Note_on_c, 0, 70, 99
1, 102966, Note_off_c, 0, 46, 64
1, 103014, Note_off_c, 0, 39, 64
1, 103422, Note_on_c, 0, 27, 100
1, 103424, Note_on_c, 0, 39, 99
1, 103792, Note_off_c, 0, 70, 64
1, 103810, Note_off_c, 0, 61, 64
1, 103902, Note_off_c, 0, 27, 64
1, 103910, Note_off_c, 0, 39, 64
1, 104044, Note_on_c, 0, 68, 90
1, 104046, Note_on_c, 0, 56, 95
1, 104050, Note_on_c, 0, 44, 91
1, 104054, Note_on_c, 0, 60, 91
1, 104057, Note_on_c, 0, 32, 80
1, 104136, Control_c, 0, 64, 0
1, 104392, Note_off_c, 0, 63, 64
1, 104660, Control_c, 0, 64, 127
1, 104724, Note_off_c, 0, 56, 64
1, 104774, Note_off_c, 0, 44, 64
1, 104796, Note_off_c, 0, 60, 64
1, 104822, Note_off_c, 0, 32, 64
1, 104872, Note_off_c, 0, 68, 64
1, 105060, Control_c, 0, 64, 0
1, 105590, Note_on_c, 0, 84, 103
1, 105593, Note_on_c, 0, 72, 95
1, 105602, Note_on_c, 0, 36, 97
1, 105606, Note_on_c, 0, 24, 88
1, 105710, Note_off_c, 0, 84, 64
1, 105724, Note_off_c, 0, 24, 64
1, 105734, Control_c, 0, 64, 127
1, 105770, Note_off_c, 0, 72, 64
1, 105784, Note_off_c, 0, 36, 64
1, 106084, Note_on_c, 0, 72, 65
1, 106084, Note_on_c, 0, 48, 76
1, 106084, Note_on_c, 0, 60, 67
1, 106090, Note_on_c, 0, 36, 82
1, 106188, Note_off_c, 0, 48, 64
1, 106202, Note_off_c, 0, 36, 64
1, 106230, Note_off_c, 0, 72, 64
1, 106230, Note_off_c, 0, 60, 64
1, 106398, Note_on_c, 0, 48, 60
1, 106401, Note_on_c, 0, 60, 80
1, 106401, Note_on_c, 0, 36, 68
1, 106406, Note_on_c, 0, 72, 63
1, 106442, Note_off_c, 0, 60, 64
1, 106442, Control_c, 0, 64, 0
1, 106446, Note_off_c, 0, 48, 64
1, 106448, Note_off_c, 0, 36, 64
1, 106452, Note_off_c, 0, 72, 64
1, 106508, Note_on_c, 0, 72, 75
1, 106524, Note_on_c, 0, 61, 84
1, 106536, Note_on_c, 0, 49, 73
1, 106536, Note_on_c, 0, 40, 83
1, 106744, Note_off_c, 0, 49, 64
1, 106780, Control_c, 0, 64, 127
1, 106788, Note_off_c, 0, 40, 64
1, 106812, Note_off_c, 0, 61, 64
1, 106836, Note_off_c, 0, 72, 64
1, 106968, Note_on_c, 0, 28, 71
1, 106970, Note_on_c, 0, 72, 67
1, 106970, Note_on_c, 0, 60, 63
1, 106994, Note_on_c, 0, 40, 40
1, 107004, Note_off_c, 0, 28, 64
1, 107044, Note_off_c, 0, 60, 64
1, 107047, Note_off_c, 0, 40, 64
1, 107062, Note_off_c, 0, 72, 64
1, 107280, Note_on_c, 0, 48, 63
1, 107280, Note_on_c, 0, 72, 58
1, 107283, Note_on_c, 0, 60, 61
1, 107286, Note_on_c, 0, 40, 75
1, 107326, Note_off_c, 0, 72, 64
1, 107329, Note_off_c, 0, 48, 64
1, 107332, Control_c, 0, 64, 0
1, 107338, Note_off_c, 0, 60, 64
1, 107340, Note_off_c, 0, 40, 64
1, 107374, Note_on_c, 0, 72, 86
1, 107380, Note_on_c, 0, 63, 85
1, 107394, Note_on_c, 0, 51, 94
1, 107397, Note_on_c, 0, 41, 85
1, 107582, Note_off_c, 0, 51, 64
1, 107594, Control_c, 0, 64, 127
1, 107630, Note_off_c, 0, 41, 64
1, 107648, Note_off_c, 0, 72, 64
1, 107772, Note_off_c, 0, 63, 64
1, 107778, Note_on_c, 0, 72, 83
1, 107780, Note_on_c, 0, 60, 74
1, 107784, Note_on_c, 0, 29, 89
1, 107798, Note_on_c, 0, 41, 57
1, 107818, Note_off_c, 0, 29, 64
1, 107828, Note_off_c, 0, 60, 64
1, 107848, Note_off_c, 0, 41, 64
1, 107900, Note_off_c, 0, 72, 64
1, 108072, Note_on_c, 0, 41, 72
1, 108072, Note_on_c, 0, 61, 69
1, 108080, Note_on_c, 0, 49, 62
1, 108088, Note_on_c, 0, 72, 56
1, 108126, Note_off_c, 0, 61, 64
1, 108136, Note_off_c, 0, 72, 64
1, 108142, Note_off_c, 0, 49, 64
1, 108162, Control_c, 0, 64, 0
1, 108172, Note_off_c, 0, 41, 64
1, 108182, Note_on_c, 0, 53, 109
1, 108184, Note_on_c, 0, 72, 97
1, 108184, Note_on_c, 0, 43, 87
1, 108186, Note_on_c, 0, 65, 87
1, 108362, Note_off_c, 0, 53, 64
1, 108408, Control_c, 0, 64, 127
1, 108434, Note_off_c, 0, 43, 64
1, 108484, Note_off_c, 0, 72, 64
1, 108590, Note_on_c, 0, 72, 83
1, 108593, Note_on_c, 0, 31, 89
1, 108596, Note_on_c, 0, 60, 81
1, 108628, Note_off_c, 0, 65, 64
1, 108628, Note_off_c, 0, 31, 64
1, 108634, Note_on_c, 0, 43, 22
1, 108698, Note_off_c, 0, 43, 64
1, 108716, Note_off_c, 0, 60, 64
1, 108764, Note_off_c, 0, 72, 64
1, 108882, Note_on_c, 0, 43, 53
1, 108885, Note_on_c, 0, 52, 63
1, 108885, Note_on_c, 0, 72, 55
1, 108892, Note_on_c, 0, 64, 72
1, 108898, Note_on_c, 0, 51, 20
1, 108930, Note_off_c, 0, 52, 64
1, 108933, Note_off_c, 0, 72, 64
1, 108933, Note_off_c, 0, 64, 64
1, 108936, Note_off_c, 0, 43, 64
1, 108958, Note_off_c, 0, 51, 64
1, 108962, Control_c, 0, 64, 0
1, 108986, Note_on_c, 0, 72, 85
1, 108994, Note_on_c, 0, 67, 90
1, 108997, Note_on_c, 0, 44, 92
1, 109000, Note_on_c, 0, 55, 96
1, 109042, Note_on_c, 0, 53, 55
1, 109102, Note_off_c, 0, 53, 64
1, 109140, Note_off_c, 0, 55, 64
1, 109202, Note_off_c, 0, 44, 64
1, 109208, Control_c, 0, 64, 127
1, 109242, Note_off_c, 0, 72, 64
1, 109366, Note_on_c, 0, 32, 88
1, 109372, Note_on_c, 0, 44, 90
1, 109374, Note_on_c, 0, 60, 91
1, 109376, Note_on_c, 0, 72, 91
1, 109416, Note_off_c, 0, 32, 64
1, 109424, Note_off_c, 0, 44, 64
1, 109500, Note_off_c, 0, 60, 64
1, 109514, Note_off_c, 0, 67, 64
1, 109536, Note_off_c, 0, 72, 64
1, 109642, Note_on_c, 0, 72, 62
1, 109644, Note_on_c, 0, 44, 72
1, 109652, Note_on_c, 0, 65, 68
1, 109658, Note_on_c, 0, 53, 74
1, 109690, Note_off_c, 0, 72, 64
1, 109690, Note_off_c, 0, 44, 64
1, 109696, Note_off_c, 0, 65, 64
1, 109700, Control_c, 0, 64, 0
1, 109714, Note_off_c, 0, 53, 64
1, 109744, Note_on_c, 0, 72, 88
1, 109748, Note_on_c, 0, 68, 92
1, 109764, Note_on_c, 0, 56, 95
1, 109776, Note_on_c, 0, 44, 72
1, 109910, Note_off_c, 0, 56, 64
1, 109930, Control_c, 0, 64, 127
1, 109966, Note_off_c, 0, 44, 64
1, 109984, Note_off_c, 0, 72, 64
1, 110124, Note_on_c, 0, 44, 75
1, 110124, Note_on_c, 0, 72, 84
1, 110126, Note_on_c, 0, 32, 79
1, 110128, Note_on_c, 0, 60, 91
1, 110162, Note_off_c, 0, 32, 64
1, 110164, Note_off_c, 0, 44, 64
1, 110166, Note_off_c, 0, 68, 64
1, 110190, Note_off_c, 0, 60, 64
1, 110226, Note_off_c, 0, 72, 64
1, 110432, Note_on_c, 0, 72, 70
1, 110436, Note_on_c, 0, 54, 92
1, 110444, Note_on_c, 0, 66, 62
1, 110470, Note_on_c, 0, 44, 49
1, 110490, Note_off_c, 0, 54, 64
1, 110506, Note_off_c, 0, 66, 64
1, 110528, Note_off_c, 0, 44, 64
1, 110528, Control_c, 0, 64, 0
1, 110578, Note_on_c, 0, 76, 95
1, 110578, Note_on_c, 0, 67, 91
1, 110578, Note_on_c, 0, 55, 100
1, 110584, Note_on_c, 0, 64, 100
1, 110584, Note_on_c, 0, 43, 88
1, 110774, Note_off_c, 0, 64, 64
1, 110776, Note_off_c, 0, 43, 64
1, 110826, Note_off_c, 0, 67, 64
1, 110829, Note_off_c, 0, 55, 64
1, 110836, Control_c, 0, 64, 127
1, 110850, Note_off_c, 0, 72, 64
1, 110898, Note_off_c, 0, 76, 64
1, 111170, Note_on_c, 0, 88, 100
1, 111172, Note_on_c, 0, 76, 98
1, 111174, Note_on_c, 0, 84, 95
1, 111190, Note_on_c, 0, 67, 94
1, 111198, Note_on_c, 0, 55, 92
1, 111234, Note_off_c, 0, 67, 64
1, 111242, Note_off_c, 0, 55, 64
1, 111404, Note_on_c, 0, 67, 88
1, 111404, Note_on_c, 0, 55, 81
1, 111452, Note_off_c, 0, 55, 64
1, 111460, Note_off_c, 0, 67, 64
1, 111588, Note_on_c, 0, 69, 84
1, 111596, Note_on_c, 0, 57, 84
1, 111676, Note_off_c, 0, 57, 64
1, 111686, Note_off_c, 0, 69, 64
1, 111756, Note_on_c, 0, 67, 85
1, 111766, Note_on_c, 0, 55, 85
1, 111784, Note_off_c, 0, 88, 64
1, 111820, Note_off_c, 0, 55, 64
1, 111824, Note_off_c, 0, 84, 64
1, 111826, Note_off_c, 0, 76, 64
1, 111872, Note_off_c, 0, 67, 64
1, 111936, Note_on_c, 0, 86, 93
1, 111938, Note_on_c, 0, 83, 110
1, 111940, Note_on_c, 0, 74, 103
1, 111940, Note_on_c, 0, 67, 76
1, 111960, Note_on_c, 0, 55, 81
1, 111984, Note_on_c, 0, 76, 31
1, 112004, Note_off_c, 0, 55, 64
1, 112007, Note_off_c, 0, 74, 64
1, 112010, Note_off_c, 0, 67, 64
1, 112012, Note_off_c, 0, 83, 64
1, 112026, Note_off_c, 0, 86, 64
1, 112036, Note_off_c, 0, 76, 64
1, 112108, Note_on_c, 0, 76, 88
1, 112114, Note_on_c, 0, 88, 86
1, 112118, Note_on_c, 0, 67, 80
1, 112124, Note_on_c, 0, 55, 70
1, 112124, Note_on_c, 0, 84, 84
1, 112190, Note_off_c, 0, 55, 64
1, 112192, Note_off_c, 0, 84, 64
1, 112204, Note_off_c, 0, 67, 64
1, 112208, Note_off_c, 0, 88, 64
1, 112220, Control_c, 0, 64, 0
1, 112224, Note_off_c, 0, 76, 64
1, 112288, Note_on_c, 0, 77, 103
1, 112288, Note_on_c, 0, 89, 99
1, 112291, Note_on_c, 0, 86, 92
1, 112302, Note_on_c, 0, 67, 89
1, 112314, Note_on_c, 0, 55, 85
1, 112352, Note_off_c, 0, 55, 64
1, 112368, Note_off_c, 0, 67, 64
1, 112404, Control_c, 0, 64, 127
1, 112418, Note_off_c, 0, 86, 64
1, 112434, Note_off_c, 0, 89, 64
1, 112456, Note_off_c, 0, 77, 64
1, 112664, Control_c, 0, 64, 0
1, 112666, Note_on_c, 0, 88, 98
1, 112668, Note_on_c, 0, 76, 90
1, 112674, Note_on_c, 0, 79, 88
1, 112676, Note_on_c, 0, 71, 87
1, 112690, Note_on_c, 0, 62, 62
1, 112690, Note_on_c, 0, 67, 64
1, 112690, Note_on_c, 0, 65, 61
1, 112806, Note_off_c, 0, 88, 64
1, 112806, Note_off_c, 0, 76, 64
1, 112834, Control_c, 0, 64, 127
1, 112852, Note_off_c, 0, 79, 64
1, 112888, Note_off_c, 0, 67, 64
1, 112896, Note_off_c, 0, 62, 64
1, 112926, Note_off_c, 0, 71, 64
1, 112942, Note_off_c, 0, 65, 64
1, 112986, Note_on_c, 0, 86, 88
1, 112990, Note_on_c, 0, 74, 87
1, 113022, Note_off_c, 0, 86, 64
1, 113022, Note_off_c, 0, 74, 64
1, 113034, Control_c, 0, 64, 0
1, 113082, Note_on_c, 0, 88, 98
1, 113086, Note_on_c, 0, 76, 98
1, 113092, Note_on_c, 0, 84, 94
1, 113104, Note_on_c, 0, 72, 88
1, 113107, Note_on_c, 0, 67, 78
1, 113114, Note_on_c, 0, 60, 71
1, 113218, Note_off_c, 0, 88, 64
1, 113218, Note_off_c, 0, 72, 64
1, 113230, Note_off_c, 0, 76, 64
1, 113233, Control_c, 0, 64, 127
1, 113246, Note_off_c, 0, 84, 64
1, 113268, Note_off_c, 0, 67, 64
1, 113278, Note_off_c, 0, 60, 64
1, 113604, Note_on_c, 0, 48, 62
1, 113626, Note_on_c, 0, 60, 65
1, 113680, Control_c, 0, 64, 0
1, 113724, Note_on_c, 0, 52, 83
1, 113732, Note_on_c, 0, 64, 73
1, 113736, Note_off_c, 0, 60, 64
1, 113746, Note_off_c, 0, 48, 64
1, 113802, Note_off_c, 0, 64, 64
1, 113808, Note_on_c, 0, 55, 81
1, 113818, Control_c, 0, 64, 127
1, 113832, Note_on_c, 0, 67, 71
1, 113844, Note_off_c, 0, 52, 64
1, 113902, Note_on_c, 0, 59, 81
1, 113914, Note_off_c, 0, 55, 64
1, 113934, Note_on_c, 0, 71, 76
1, 113946, Note_off_c, 0, 59, 64
1, 113962, Note_off_c, 0, 67, 64
1, 113974, Note_off_c, 0, 71, 64
1, 114010, Note_on_c, 0, 60, 70
1, 114028, Note_on_c, 0, 72, 89
1, 114058, Note_off_c, 0, 60, 64
1, 114104, Note_on_c, 0, 76, 87
1, 114106, Note_on_c, 0, 64, 87
1, 114130, Note_off_c, 0, 72, 64
1, 114202, Note_on_c, 0, 79, 96
1, 114202, Note_on_c, 0, 67, 87
1, 114220, Note_off_c, 0, 64, 64
1, 114242, Note_off_c, 0, 76, 64
1, 114292, Note_on_c, 0, 83, 102
1, 114295, Note_on_c, 0, 71, 93
1, 114322, Note_off_c, 0, 79, 64
1, 114322, Note_off_c, 0, 67, 64
1, 114325, Note_off_c, 0, 83, 64
1, 114354, Note_off_c, 0, 71, 64
1, 114400, Note_on_c, 0, 84, 100
1, 114406, Note_on_c, 0, 72, 99
1, 114490, Note_on_c, 0, 88, 88
1, 114536, Note_off_c, 0, 84, 64
1, 114582, Note_on_c, 0, 91, 89
1, 114594, Note_on_c, 0, 60, 89
1, 114612, Note_off_c, 0, 88, 64
1, 114642, Note_off_c, 0, 60, 64
1, 114660, Note_off_c, 0, 72, 64
1, 114680, Note_on_c, 0, 96, 81
1, 114714, Note_off_c, 0, 91, 64
1, 114714, Note_off_c, 0, 96, 64
1, 114778, Note_on_c, 0, 73, 100
1, 114784, Note_on_c, 0, 85, 106
1, 114786, Note_on_c, 0, 97, 96
1, 114792, Note_on_c, 0, 61, 90
1, 114832, Control_c, 0, 64, 0
1, 115046, Control_c, 0, 64, 127
1, 115092, Note_off_c, 0, 61, 64
1, 115097, Note_off_c, 0, 85, 64
1, 115106, Note_off_c, 0, 73, 64
1, 115108, Note_off_c, 0, 97, 64
1, 115174, Note_on_c, 0, 98, 111
1, 115177, Note_on_c, 0, 86, 98
1, 115180, Note_on_c, 0, 74, 97
1, 115184, Control_c, 0, 64, 0
1, 115192, Note_on_c, 0, 62, 83
1, 115354, Note_off_c, 0, 62, 64
1, 115370, Control_c, 0, 64, 127
1, 115380, Note_off_c, 0, 74, 64
1, 115430, Note_off_c, 0, 86, 64
1, 115442, Note_off_c, 0, 98, 64
1, 115688, Note_on_c, 0, 99, 100
1, 115690, Note_on_c, 0, 75, 95
1, 115690, Note_on_c, 0, 87, 98
1, 115696, Note_on_c, 0, 63, 89
1, 115784, Control_c, 0, 64, 0
1, 115936, Note_off_c, 0, 99, 64
1, 115938, Control_c, 0, 64, 127
1, 115952, Note_off_c, 0, 75, 64
1, 115972, Note_off_c, 0, 87, 64
1, 116028, Note_off_c, 0, 63, 64
1, 116276, Note_on_c, 0, 75, 65
1, 116278, Note_on_c, 0, 63, 76
1, 116290, Note_on_c, 0, 39, 73
1, 116290, Note_on_c, 0, 51, 67
1, 116332, Note_off_c, 0, 39, 64
1, 116336, Note_off_c, 0, 51, 64
1, 116358, Note_off_c, 0, 63, 64
1, 116424, Note_off_c, 0, 75, 64
1, 116598, Note_on_c, 0, 39, 67
1, 116600, Note_on_c, 0, 51, 76
1, 116614, Note_on_c, 0, 63, 69
1, 116617, Note_on_c, 0, 75, 50
1, 116644, Note_off_c, 0, 39, 64
1, 116660, Control_c, 0, 64, 0
1, 116664, Note_off_c, 0, 51, 64
1, 116666, Note_off_c, 0, 75, 64
1, 116672, Note_off_c, 0, 63, 64
1, 116718, Note_on_c, 0, 75, 76
1, 116724, Note_on_c, 0, 52, 89
1, 116726, Note_on_c, 0, 43, 74
1, 116726, Note_on_c, 0, 64, 70
1, 116888, Note_off_c, 0, 52, 64
1, 116936, Control_c, 0, 64, 127
1, 116964, Note_off_c, 0, 64, 64
1, 116972, Note_off_c, 0, 43, 64
1, 116994, Note_off_c, 0, 75, 64
1, 117170, Note_on_c, 0, 75, 38
1, 117176, Note_on_c, 0, 63, 53
1, 117178, Note_on_c, 0, 43, 52
1, 117180, Note_on_c, 0, 31, 35
1, 117230, Note_off_c, 0, 43, 64
1, 117249, Note_off_c, 0, 31, 64
1, 117258, Note_off_c, 0, 63, 64
1, 117266, Note_off_c, 0, 75, 64
1, 117456, Note_on_c, 0, 51, 85
1, 117459, Note_on_c, 0, 43, 74
1, 117462, Note_on_c, 0, 75, 55
1, 117470, Note_on_c, 0, 63, 63
1, 117500, Note_off_c, 0, 51, 64
1, 117500, Note_off_c, 0, 43, 64
1, 117506, Note_off_c, 0, 75, 64
1, 117510, Note_off_c, 0, 63, 64
1, 117550, Control_c, 0, 64, 0
1, 117562, Note_on_c, 0, 75, 68
1, 117570, Note_on_c, 0, 44, 89
1, 117570, Note_on_c, 0, 54, 101
1, 117572, Note_on_c, 0, 66, 61
1, 117758, Note_off_c, 0, 54, 64
1, 117796, Control_c, 0, 64, 127
1, 117830, Note_off_c, 0, 44, 64
1, 117844, Note_off_c, 0, 75, 64
1, 117906, Note_off_c, 0, 66, 64
1, 117954, Note_on_c, 0, 75, 61
1, 117954, Note_on_c, 0, 32, 79
1, 117962, Note_on_c, 0, 44, 76
1, 117970, Note_on_c, 0, 65, 65
1, 117992, Note_off_c, 0, 32, 64
1, 118006, Note_off_c, 0, 44, 64
1, 118040, Note_off_c, 0, 65, 64
1, 118074, Note_off_c, 0, 75, 64
1, 118262, Note_on_c, 0, 53, 103
1, 118268, Note_on_c, 0, 44, 76
1, 118271, Note_on_c, 0, 63, 75
1, 118271, Note_on_c, 0, 75, 62
1, 118314, Note_off_c, 0, 75, 64
1, 118320, Note_off_c, 0, 63, 64
1, 118328, Note_off_c, 0, 53, 64
1, 118346, Note_off_c, 0, 44, 64
1, 118366, Control_c, 0, 64, 0
1, 118369, Note_on_c, 0, 75, 75
1, 118380, Note_on_c, 0, 56, 97
1, 118394, Note_on_c, 0, 68, 76
1, 118394, Note_on_c, 0, 46, 75
1, 118562, Note_off_c, 0, 56, 64
1, 118596, Control_c, 0, 64, 127
1, 118612, Note_off_c, 0, 75, 64
1, 118630, Note_off_c, 0, 46, 64
1, 118736, Note_off_c, 0, 68, 64
1, 118740, Note_on_c, 0, 46, 67
1, 118740, Note_on_c, 0, 63, 89
1, 118744, Note_on_c, 0, 34, 82
1, 118748, Note_on_c, 0, 75, 62
1, 118778, Note_off_c, 0, 34, 64
1, 118792, Note_off_c, 0, 46, 64
1, 118846, Note_off_c, 0, 63, 64
1, 118874, Note_off_c, 0, 75, 64
1, 119018, Note_on_c, 0, 46, 72
1, 119024, Note_on_c, 0, 55, 81
1, 119034, Note_on_c, 0, 75, 65
1, 119037, Note_on_c, 0, 63, 72
1, 119074, Note_off_c, 0, 63, 64
1, 119080, Note_off_c, 0, 75, 64
1, 119096, Note_off_c, 0, 55, 64
1, 119118, Control_c, 0, 64, 0
1, 119120, Note_off_c, 0, 46, 64
1, 119150, Note_on_c, 0, 75, 80
1, 119160, Note_on_c, 0, 58, 90
1, 119170, Note_on_c, 0, 47, 80
1, 119178, Note_on_c, 0, 70, 81
1, 119320, Note_off_c, 0, 58, 64
1, 119334, Control_c, 0, 64, 127
1, 119368, Note_off_c, 0, 47, 64
1, 119376, Note_off_c, 0, 75, 64
1, 119528, Note_on_c, 0, 35, 101
1, 119531, Note_on_c, 0, 75, 65
1, 119540, Note_on_c, 0, 63, 78
1, 119548, Note_on_c, 0, 47, 40
1, 119556, Note_off_c, 0, 35, 64
1, 119608, Note_off_c, 0, 47, 64
1, 119648, Note_off_c, 0, 63, 64
1, 119651, Note_off_c, 0, 70, 64
1, 119660, Note_off_c, 0, 75, 64
1, 119790, Note_on_c, 0, 47, 79
1, 119790, Note_on_c, 0, 56, 90
1, 119798, Note_on_c, 0, 68, 84
1, 119798, Note_on_c, 0, 75, 76
1, 119830, Note_off_c, 0, 47, 64
1, 119838, Note_off_c, 0, 75, 64
1, 119844, Note_off_c, 0, 68, 64
1, 119850, Note_off_c, 0, 56, 64
1, 119872, Control_c, 0, 64, 0
1, 119902, Note_on_c, 0, 75, 77
1, 119906, Note_on_c, 0, 71, 106
1, 119914, Note_on_c, 0, 59, 105
1, 119916, Note_on_c, 0, 47, 56
1, 120058, Note_off_c, 0, 59, 64
1, 120070, Control_c, 0, 64, 127
1, 120118, Note_off_c, 0, 47, 64
1, 120140, Note_off_c, 0, 75, 64
1, 120278, Note_on_c, 0, 63, 93
1, 120281, Note_on_c, 0, 75, 84
1, 120290, Note_on_c, 0, 35, 92
1, 120306, Note_on_c, 0, 47, 54
1, 120320, Note_off_c, 0, 35, 64
1, 120322, Note_off_c, 0, 63, 64
1, 120330, Note_off_c, 0, 71, 64
1, 120356, Note_off_c, 0, 47, 64
1, 120376, Note_off_c, 0, 75, 64
1, 120584, Note_on_c, 0, 75, 85
1, 120594, Note_on_c, 0, 69, 73
1, 120594, Note_on_c, 0, 57, 79
1, 120606, Note_on_c, 0, 47, 72
1, 120648, Note_off_c, 0, 69, 64
1, 120650, Note_off_c, 0, 57, 64
1, 120652, Note_off_c, 0, 47, 64
1, 120710, Note_off_c, 0, 75, 64
1, 120762, Control_c, 0, 64, 0
1, 120766, Note_on_c, 0, 79, 110
1, 120768, Note_on_c, 0, 75, 78
1, 120771, Note_on_c, 0, 67, 96
1, 120778, Note_on_c, 0, 58, 83
1, 120782, Note_on_c, 0, 46, 86
1, 120784, Note_on_c, 0, 70, 66
1, 121010, Note_off_c, 0, 46, 64
1, 121013, Note_off_c, 0, 58, 64
1, 121030, Note_off_c, 0, 67, 64
1, 121040, Control_c, 0, 64, 127
1, 121054, Note_off_c, 0, 70, 64
1, 121068, Note_off_c, 0, 75, 64
1, 121108, Note_off_c, 0, 79, 64
1, 121332, Note_on_c, 0, 70, 92
1, 121334, Note_on_c, 0, 91, 103
1, 121337, Note_on_c, 0, 79, 104
1, 121337, Note_on_c, 0, 87, 85
1, 121340, Note_on_c, 0, 58, 83
1, 121394, Note_off_c, 0, 58, 64
1, 121420, Note_off_c, 0, 70, 64
1, 121548, Note_on_c, 0, 70, 86
1, 121558, Note_on_c, 0, 58, 81
1, 121618, Note_off_c, 0, 58, 64
1, 121644, Note_off_c, 0, 70, 64
1, 121746, Note_on_c, 0, 72, 98
1, 121756, Note_on_c, 0, 60, 95
1, 121830, Note_off_c, 0, 72, 64
1, 121836, Note_off_c, 0, 60, 64
1, 121922, Note_off_c, 0, 91, 64
1, 121926, Note_on_c, 0, 70, 81
1, 121936, Note_on_c, 0, 58, 77
1, 121944, Note_off_c, 0, 87, 64
1, 121972, Note_off_c, 0, 79, 64
1, 122010, Note_off_c, 0, 58, 64
1, 122018, Note_off_c, 0, 70, 64
1, 122094, Note_on_c, 0, 90, 83
1, 122094, Note_on_c, 0, 78, 93
1, 122100, Note_on_c, 0, 70, 68
1, 122100, Note_on_c, 0, 86, 81
1, 122112, Note_on_c, 0, 58, 72
1, 122166, Note_off_c, 0, 86, 64
1, 122180, Note_off_c, 0, 58, 64
1, 122192, Note_off_c, 0, 70, 64
1, 122195, Note_off_c, 0, 78, 64
1, 122210, Note_off_c, 0, 90, 64
1, 122272, Note_on_c, 0, 79, 105
1, 122272, Note_on_c, 0, 70, 67
1, 122275, Note_on_c, 0, 91, 86
1, 122278, Note_on_c, 0, 87, 77
1, 122290, Note_on_c, 0, 58, 69
1, 122320, Note_on_c, 0, 89, 29
1, 122338, Note_off_c, 0, 58, 64
1, 122346, Note_off_c, 0, 79, 64
1, 122354, Note_off_c, 0, 91, 64
1, 122366, Note_off_c, 0, 70, 64
1, 122376, Note_off_c, 0, 87, 64
1, 122388, Note_off_c, 0, 89, 64
1, 122442, Note_on_c, 0, 87, 77
1, 122445, Note_on_c, 0, 92, 84
1, 122450, Note_on_c, 0, 80, 91
1, 122452, Control_c, 0, 64, 0
1, 122466, Note_on_c, 0, 70, 73
1, 122478, Note_on_c, 0, 58, 75
1, 122592, Note_off_c, 0, 70, 64
1, 122600, Note_off_c, 0, 58, 64
1, 122638, Control_c, 0, 64, 127
1, 122674, Note_off_c, 0, 92, 64
1, 122680, Note_off_c, 0, 80, 64
1, 122710, Note_on_c, 0, 58, 57
1, 122713, Note_off_c, 0, 87, 64
1, 122744, Note_on_c, 0, 65, 41
1, 122826, Note_on_c, 0, 68, 62
1, 122836, Note_off_c, 0, 58, 64
1, 122844, Note_on_c, 0, 91, 98
1, 122844, Note_on_c, 0, 86, 92
1, 122844, Note_on_c, 0, 79, 105
1, 122868, Note_on_c, 0, 74, 96
1, 122936, Note_off_c, 0, 79, 64
1, 122939, Note_off_c, 0, 91, 64
1, 122968, Note_off_c, 0, 86, 64
1, 122972, Note_off_c, 0, 65, 64
1, 122998, Note_off_c, 0, 74, 64
1, 123032, Note_off_c, 0, 68, 64
1, 123120, Note_on_c, 0, 89, 89
1, 123123, Note_on_c, 0, 77, 88
1, 123154, Note_off_c, 0, 89, 64
1, 123154, Note_off_c, 0, 77, 64
1, 123174, Control_c, 0, 64, 0
1, 123226, Note_on_c, 0, 91, 98
1, 123231, Note_on_c, 0, 87, 83
1, 123234, Note_on_c, 0, 79, 103
1, 123240, Note_on_c, 0, 75, 86
1, 123243, Note_on_c, 0, 70, 72
1, 123252, Note_on_c, 0, 63, 71
1, 123294, Note_off_c, 0, 91, 64
1, 123320, Note_off_c, 0, 63, 64
1, 123326, Note_off_c, 0, 79, 64
1, 123328, Note_off_c, 0, 87, 64
1, 123328, Control_c, 0, 64, 127
1, 123348, Note_off_c, 0, 75, 64
1, 123354, Note_off_c, 0, 70, 64
1, 123650, Note_on_c, 0, 79, 98
1, 123650, Note_on_c, 0, 63, 82
1, 123650, Note_on_c, 0, 59, 80
1, 123656, Note_on_c, 0, 68, 83
1, 123666, Note_on_c, 0, 51, 66
1, 123820, Note_off_c, 0, 63, 64
1, 123850, Note_off_c, 0, 51, 64
1, 123872, Note_off_c, 0, 59, 64
1, 123880, Note_off_c, 0, 68, 64
1, 123948, Note_on_c, 0, 77, 83
1, 123954, Note_off_c, 0, 79, 64
1, 123958, Control_c, 0, 64, 0
1, 124034, Note_on_c, 0, 63, 90
1, 124040, Note_on_c, 0, 67, 93
1, 124046, Note_on_c, 0, 51, 67
1, 124049, Note_on_c, 0, 75, 86
1, 124054, Note_on_c, 0, 58, 59
1, 124078, Note_off_c, 0, 77, 64
1, 124142, Control_c, 0, 64, 127
1, 124150, Note_off_c, 0, 63, 64
1, 124150, Note_off_c, 0, 67, 64
1, 124150, Note_off_c, 0, 75, 64
1, 124200, Note_off_c, 0, 58, 64
1, 124220, Note_off_c, 0, 51, 64
1, 124486, Note_on_c, 0, 56, 79
1, 124488, Note_on_c, 0, 67, 88
1, 124488, Note_on_c, 0, 51, 70
1, 124490, Note_on_c, 0, 47, 74
1, 124510, Note_on_c, 0, 39, 50
1, 124664, Note_off_c, 0, 51, 64
1, 124704, Note_off_c, 0, 39, 64
1, 124782, Note_off_c, 0, 56, 64
1, 124854, Note_on_c, 0, 65, 70
1, 124876, Note_off_c, 0, 67, 64
1, 124936, Note_off_c, 0, 47, 64
1, 124968, Note_off_c, 0, 65, 64
1, 124980, Note_on_c, 0, 63, 86
1, 124982, Note_on_c, 0, 51, 67
1, 124984, Note_on_c, 0, 55, 85
1, 124986, Note_on_c, 0, 46, 63
1, 125004, Note_on_c, 0, 39, 52
1, 125080, Control_c, 0, 64, 0
1, 125188, Note_off_c, 0, 51, 64
1, 125280, Control_c, 0, 64, 127
1, 125310, Note_off_c, 0, 46, 64
1, 125318, Note_off_c, 0, 55, 64
1, 125368, Note_off_c, 0, 63, 64
1, 125370, Note_off_c, 0, 39, 64
1, 125544, Note_on_c, 0, 27, 95
1, 125544, Note_on_c, 0, 39, 76
1, 126086, Note_off_c, 0, 39, 64
1, 126260, Note_off_c, 0, 27, 64
1, 126294, Control_c, 0, 64, 0
1, 126310, Note_on_c, 0, 65, 109
1, 126336, Note_on_c, 0, 25, 68
1, 126338, Note_on_c, 0, 37, 65
1, 126458, Note_off_c, 0, 25, 64
1, 126490, Note_off_c, 0, 37, 64
1, 126540, Control_c, 0, 64, 127
1, 126786, Note_on_c, 0, 55, 48
1, 126800, Note_on_c, 0, 53, 61
1, 126841, Note_off_c, 0, 55, 64
1, 126852, Note_off_c, 0, 53, 64
1, 126932, Note_on_c, 0, 55, 40
1, 126940, Note_on_c, 0, 53, 63
1, 126988, Note_off_c, 0, 53, 64
1, 126992, Note_off_c, 0, 55, 64
1, 127068, Note_on_c, 0, 55, 58
1, 127074, Note_on_c, 0, 53, 76
1, 127126, Note_off_c, 0, 53, 64
1, 127136, Note_off_c, 0, 55, 64
1, 127396, Note_on_c, 0, 55, 73
1, 127408, Note_on_c, 0, 53, 76
1, 127442, Note_off_c, 0, 55, 64
1, 127452, Note_off_c, 0, 53, 64
1, 127736, Note_on_c, 0, 58, 90
1, 127738, Control_c, 0, 64, 0
1, 127760, Note_on_c, 0, 55, 66
1, 127770, Note_on_c, 0, 53, 75
1, 127814, Note_off_c, 0, 65, 64
1, 127900, Note_off_c, 0, 55, 64
1, 127918, Note_off_c, 0, 53, 64
1, 127952, Control_c, 0, 64, 127
1, 128154, Note_on_c, 0, 55, 41
1, 128166, Note_on_c, 0, 53, 65
1, 128214, Note_off_c, 0, 55, 64
1, 128214, Note_off_c, 0, 53, 64
1, 128640, Note_on_c, 0, 60, 95
1, 128656, Note_on_c, 0, 24, 79
1, 128660, Control_c, 0, 64, 0
1, 128674, Note_on_c, 0, 36, 45
1, 128718, Note_off_c, 0, 58, 64
1, 128794, Note_off_c, 0, 24, 64
1, 128850, Note_off_c, 0, 36, 64
1, 128906, Control_c, 0, 64, 127
1, 129082, Note_on_c, 0, 52, 79
1, 129085, Note_on_c, 0, 55, 52
1, 129124, Note_off_c, 0, 52, 64
1, 129138, Note_off_c, 0, 55, 64
1, 129214, Note_on_c, 0, 55, 57
1, 129222, Note_on_c, 0, 52, 59
1, 129264, Note_off_c, 0, 52, 64
1, 129270, Note_off_c, 0, 55, 64
1, 129338, Note_on_c, 0, 55, 72
1, 129341, Note_on_c, 0, 52, 62
1, 129458, Note_off_c, 0, 52, 64
1, 129460, Note_off_c, 0, 55, 64
1, 129546, Note_off_c, 0, 60, 64
1, 129654, Note_on_c, 0, 60, 87
1, 129678, Note_on_c, 0, 55, 63
1, 129681, Note_on_c, 0, 52, 70
1, 129726, Note_off_c, 0, 55, 64
1, 129728, Note_off_c, 0, 52, 64
1, 129786, Note_off_c, 0, 60, 64
1, 129848, Note_on_c, 0, 61, 87
1, 129888, Control_c, 0, 64, 0
1, 129900, Note_off_c, 0, 61, 64
1, 129948, Note_on_c, 0, 46, 78
1, 129951, Note_on_c, 0, 34, 79
1, 129956, Note_on_c, 0, 61, 90
1, 130036, Note_on_c, 0, 63, 84
1, 130046, Note_off_c, 0, 61, 64
1, 130056, Note_off_c, 0, 34, 64
1, 130072, Note_off_c, 0, 46, 64
1, 130088, Control_c, 0, 64, 127
1, 130118, Note_off_c, 0, 63, 64
1, 130122, Note_on_c, 0, 61, 63
1, 130176, Note_off_c, 0, 61, 64
1, 130192, Note_on_c, 0, 63, 79
1, 130256, Note_on_c, 0, 61, 62
1, 130272, Note_off_c, 0, 63, 64
1, 130276, Note_on_c, 0, 56, 64
1, 130298, Note_on_c, 0, 53, 85
1, 130332, Note_off_c, 0, 61, 64
1, 130340, Note_on_c, 0, 63, 81
1, 130346, Note_off_c, 0, 53, 64
1, 130356, Note_off_c, 0, 56, 64
1, 130422, Note_on_c, 0, 61, 75
1, 130466, Note_off_c, 0, 63, 64
1, 130512, Note_on_c, 0, 60, 81
1, 130522, Note_off_c, 0, 61, 64
1, 130594, Note_on_c, 0, 61, 73
1, 130622, Note_off_c, 0, 60, 64
1, 130672, Control_c, 0, 64, 0
1, 130732, Note_on_c, 0, 48, 26
1, 130748, Note_on_c, 0, 36, 35
1, 130756, Note_on_c, 0, 60, 89
1, 130760, Note_off_c, 0, 61, 64
1, 130943, Note_off_c, 0, 36, 64
1, 130988, Note_off_c, 0, 48, 64
1, 131026, Control_c, 0, 64, 127
1, 131170, Note_on_c, 0, 52, 39
1, 131176, Note_on_c, 0, 55, 55
1, 131226, Note_off_c, 0, 52, 64
1, 131232, Note_off_c, 0, 55, 64
1, 131316, Note_on_c, 0, 55, 52
1, 131350, Note_on_c, 0, 52, 39
1, 131394, Note_off_c, 0, 55, 64
1, 131406, Note_off_c, 0, 52, 64
1, 131444, Note_on_c, 0, 55, 52
1, 131472, Note_on_c, 0, 52, 72
1, 131512, Note_off_c, 0, 52, 64
1, 131546, Note_off_c, 0, 55, 64
1, 131562, Note_off_c, 0, 60, 64
1, 131758, Note_on_c, 0, 55, 70
1, 131760, Note_on_c, 0, 60, 84
1, 131768, Note_on_c, 0, 52, 63
1, 131802, Note_off_c, 0, 55, 64
1, 131810, Note_off_c, 0, 52, 64
1, 131864, Note_off_c, 0, 60, 64
1, 131934, Note_on_c, 0, 61, 81
1, 131978, Note_off_c, 0, 61, 64
1, 131978, Control_c, 0, 64, 0
1, 132040, Note_on_c, 0, 61, 76
1, 132050, Note_on_c, 0, 46, 73
1, 132056, Note_on_c, 0, 34, 74
1, 132122, Note_off_c, 0, 61, 64
1, 132122, Note_on_c, 0, 63, 81
1, 132166, Note_off_c, 0, 46, 64
1, 132176, Note_off_c, 0, 63, 64
1, 132178, Control_c, 0, 64, 127
1, 132180, Note_off_c, 0, 34, 64
1, 132202, Note_on_c, 0, 61, 72
1, 132266, Note_off_c, 0, 61, 64
1, 132266, Note_on_c, 0, 63, 74
1, 132338, Note_on_c, 0, 61, 73
1, 132366, Note_off_c, 0, 63, 64
1, 132366, Note_on_c, 0, 56, 66
1, 132390, Note_on_c, 0, 53, 85
1, 132424, Note_on_c, 0, 63, 83
1, 132434, Note_off_c, 0, 53, 64
1, 132444, Note_off_c, 0, 61, 64
1, 132456, Note_off_c, 0, 56, 64
1, 132506, Note_on_c, 0, 61, 78
1, 132580, Note_off_c, 0, 63, 64
1, 132602, Note_on_c, 0, 60, 86
1, 132628, Note_off_c, 0, 61, 64
1, 132684, Note_on_c, 0, 61, 86
1, 132724, Note_off_c, 0, 60, 64
1, 132746, Control_c, 0, 64, 0
1, 132818, Note_on_c, 0, 48, 38
1, 132834, Note_on_c, 0, 60, 85
1, 132842, Note_on_c, 0, 36, 48
1, 132854, Note_off_c, 0, 61, 64
1, 132956, Note_off_c, 0, 36, 64
1, 133002, Note_off_c, 0, 48, 64
1, 133038, Control_c, 0, 64, 127
1, 133134, Note_off_c, 0, 60, 64
1, 133182, Note_on_c, 0, 55, 63
1, 133186, Note_on_c, 0, 62, 80
1, 133194, Note_on_c, 0, 58, 29
1, 133214, Note_on_c, 0, 60, 34
1, 133232, Note_off_c, 0, 55, 64
1, 133260, Note_off_c, 0, 58, 64
1, 133288, Note_off_c, 0, 60, 64
1, 133302, Note_off_c, 0, 62, 64
1, 133316, Note_on_c, 0, 64, 87
1, 133322, Note_on_c, 0, 58, 44
1, 133338, Note_on_c, 0, 55, 32
1, 133358, Note_on_c, 0, 60, 54
1, 133400, Note_off_c, 0, 58, 64
1, 133403, Note_off_c, 0, 55, 64
1, 133414, Note_off_c, 0, 60, 64
1, 133438, Note_off_c, 0, 64, 64
1, 133468, Note_on_c, 0, 65, 92
1, 133480, Note_on_c, 0, 60, 65
1, 133498, Note_on_c, 0, 55, 42
1, 133514, Note_on_c, 0, 58, 28
1, 133582, Note_off_c, 0, 60, 64
1, 133592, Note_off_c, 0, 55, 64
1, 133608, Note_off_c, 0, 58, 64
1, 133780, Note_on_c, 0, 67, 88
1, 133810, Note_on_c, 0, 60, 55
1, 133828, Note_on_c, 0, 58, 22
1, 133854, Note_off_c, 0, 65, 64
1, 133890, Note_off_c, 0, 60, 64
1, 133904, Note_off_c, 0, 58, 64
1, 134174, Control_c, 0, 64, 0
1, 134182, Note_on_c, 0, 70, 65
1, 134199, Note_on_c, 0, 53, 79
1, 134214, Note_on_c, 0, 41, 53
1, 134242, Note_off_c, 0, 67, 64
1, 134340, Note_off_c, 0, 41, 64
1, 134390, Note_on_c, 0, 68, 68
1, 134392, Control_c, 0, 64, 127
1, 134396, Note_off_c, 0, 53, 64
1, 134480, Note_off_c, 0, 70, 64
1, 134542, Note_on_c, 0, 67, 78
1, 134556, Note_on_c, 0, 56, 46
1, 134582, Note_off_c, 0, 68, 64
1, 134584, Note_on_c, 0, 60, 39
1, 134642, Note_off_c, 0, 67, 64
1, 134648, Note_off_c, 0, 60, 64
1, 134650, Note_off_c, 0, 56, 64
1, 134658, Note_on_c, 0, 65, 72
1, 134700, Note_off_c, 0, 65, 64
1, 134766, Note_on_c, 0, 65, 71
1, 134816, Note_off_c, 0, 65, 64
1, 134878, Note_on_c, 0, 65, 75
1, 134944, Control_c, 0, 64, 0
1, 135013, Note_on_c, 0, 37, 36
1, 135024, Note_on_c, 0, 49, 22
1, 135186, Note_off_c, 0, 65, 64
1, 135222, Note_on_c, 0, 77, 88
1, 135336, Note_off_c, 0, 49, 64
1, 135344, Note_off_c, 0, 37, 64
1, 135346, Control_c, 0, 64, 127
1, 135734, Note_on_c, 0, 65, 22
1, 135734, Note_on_c, 0, 58, 17
1, 135748, Note_on_c, 0, 55, 19
1, 135802, Note_off_c, 0, 65, 64
1, 135822, Note_off_c, 0, 58, 64
1, 135827, Note_off_c, 0, 55, 64
1, 135896, Note_on_c, 0, 65, 29
1, 135906, Note_on_c, 0, 58, 33
1, 135910, Note_on_c, 0, 55, 51
1, 135980, Note_off_c, 0, 55, 64
1, 135982, Note_off_c, 0, 65, 64
1, 135984, Note_off_c, 0, 58, 64
1, 136078, Note_on_c, 0, 58, 25
1, 136078, Note_on_c, 0, 65, 37
1, 136088, Note_on_c, 0, 55, 34
1, 136096, Note_off_c, 0, 77, 64
1, 136152, Note_off_c, 0, 65, 64
1, 136158, Note_off_c, 0, 58, 64
1, 136162, Note_off_c, 0, 55, 64
1, 136416, Note_on_c, 0, 65, 36
1, 136421, Note_on_c, 0, 58, 23
1, 136452, Note_on_c, 0, 55, 20
1, 136482, Note_off_c, 0, 65, 64
1, 136498, Note_off_c, 0, 58, 64
1, 136534, Note_off_c, 0, 55, 64
1, 136700, Note_on_c, 0, 70, 65
1, 136714, Note_on_c, 0, 58, 39
1, 136722, Note_on_c, 0, 65, 39
1, 136732, Note_on_c, 0, 55, 44
1, 136794, Note_off_c, 0, 58, 64
1, 136800, Note_off_c, 0, 65, 64
1, 136834, Note_off_c, 0, 55, 64
1, 137116, Note_on_c, 0, 65, 22
1, 137120, Note_on_c, 0, 58, 39
1, 137134, Note_on_c, 0, 55, 22
1, 137184, Note_off_c, 0, 65, 64
1, 137200, Note_off_c, 0, 58, 64
1, 137202, Note_off_c, 0, 55, 64
1, 137526, Control_c, 0, 64, 0
1, 137540, Note_on_c, 0, 48, 30
1, 137548, Note_on_c, 0, 36, 24
1, 137556, Note_on_c, 0, 72, 61
1, 137572, Note_on_c, 0, 60, 36
1, 137594, Note_off_c, 0, 70, 64
1, 137698, Note_off_c, 0, 36, 64
1, 137726, Note_off_c, 0, 48, 64
1, 137734, Note_off_c, 0, 60, 64
1, 137756, Control_c, 0, 64, 127
1, 137956, Note_on_c, 0, 64, 49
1, 137959, Note_on_c, 0, 55, 51
1, 138006, Note_off_c, 0, 64, 64
1, 138014, Note_off_c, 0, 55, 64
1, 138094, Note_on_c, 0, 64, 41
1, 138097, Note_on_c, 0, 55, 42
1, 138146, Note_off_c, 0, 64, 64
1, 138160, Note_off_c, 0, 55, 64
1, 138170, Note_off_c, 0, 72, 64
1, 138228, Note_on_c, 0, 64, 55
1, 138248, Note_on_c, 0, 55, 27
1, 138312, Note_off_c, 0, 64, 64
1, 138336, Note_off_c, 0, 55, 64
1, 138518, Note_on_c, 0, 72, 87
1, 138544, Note_on_c, 0, 55, 67
1, 138550, Note_on_c, 0, 64, 42
1, 138596, Note_off_c, 0, 55, 64
1, 138606, Note_off_c, 0, 64, 64
1, 138628, Note_off_c, 0, 72, 64
1, 138712, Note_on_c, 0, 73, 80
1, 138820, Note_off_c, 0, 73, 64
1, 138830, Note_on_c, 0, 61, 75
1, 138846, Control_c, 0, 64, 0
1, 138884, Note_off_c, 0, 61, 64
1, 138884, Note_on_c, 0, 46, 56
1, 138898, Note_on_c, 0, 34, 62
1, 138908, Note_on_c, 0, 73, 60
1, 138942, Note_off_c, 0, 34, 64
1, 138958, Note_off_c, 0, 46, 64
1, 138984, Control_c, 0, 64, 127
1, 139022, Note_on_c, 0, 75, 77
1, 139060, Note_off_c, 0, 73, 64
1, 139083, Note_off_c, 0, 75, 64
1, 139118, Note_on_c, 0, 73, 70
1, 139216, Note_on_c, 0, 75, 73
1, 139224, Note_off_c, 0, 73, 64
1, 139266, Note_off_c, 0, 75, 64
1, 139269, Note_on_c, 0, 65, 51
1, 139274, Note_on_c, 0, 56, 51
1, 139290, Note_on_c, 0, 53, 59
1, 139290, Note_on_c, 0, 73, 57
1, 139314, Note_off_c, 0, 65, 64
1, 139338, Note_off_c, 0, 56, 64
1, 139344, Note_off_c, 0, 73, 64
1, 139350, Note_off_c, 0, 53, 64
1, 139360, Note_on_c, 0, 75, 68
1, 139436, Note_off_c, 0, 75, 64
1, 139442, Note_on_c, 0, 73, 47
1, 139504, Note_off_c, 0, 73, 64
1, 139510, Note_on_c, 0, 75, 64
1, 139602, Note_on_c, 0, 73, 58
1, 139644, Note_off_c, 0, 75, 64
1, 139650, Note_off_c, 0, 73, 64
1, 139690, Note_on_c, 0, 36, 40
1, 139708, Note_on_c, 0, 48, 36
1, 139776, Note_on_c, 0, 72, 87
1, 139784, Control_c, 0, 64, 0
1, 139794, Note_on_c, 0, 60, 67
1, 139920, Note_off_c, 0, 36, 64
1, 139962, Note_off_c, 0, 48, 64
1, 139968, Control_c, 0, 64, 127
1, 139970, Note_off_c, 0, 60, 64
1, 140162, Note_on_c, 0, 55, 66
1, 140164, Note_on_c, 0, 64, 65
1, 140206, Note_off_c, 0, 64, 64
1, 140209, Note_off_c, 0, 55, 64
1, 140274, Note_on_c, 0, 55, 67
1, 140284, Note_on_c, 0, 64, 53
1, 140334, Note_off_c, 0, 55, 64
1, 140340, Note_off_c, 0, 64, 64
1, 140382, Note_off_c, 0, 72, 64
1, 140418, Note_on_c, 0, 64, 67
1, 140428, Note_on_c, 0, 55, 45
1, 140550, Note_off_c, 0, 64, 64
1, 140594, Note_off_c, 0, 55, 64
1, 140722, Note_on_c, 0, 72, 89
1, 140756, Note_on_c, 0, 64, 59
1, 140759, Note_on_c, 0, 55, 59
1, 140800, Note_off_c, 0, 64, 64
1, 140816, Note_off_c, 0, 55, 64
1, 140830, Note_off_c, 0, 72, 64
1, 140922, Note_on_c, 0, 73, 82
1, 141044, Control_c, 0, 64, 0
1, 141044, Note_on_c, 0, 61, 86
1, 141047, Note_off_c, 0, 73, 64
1, 141098, Note_on_c, 0, 46, 63
1, 141110, Note_on_c, 0, 34, 67
1, 141146, Note_off_c, 0, 61, 64
1, 141154, Note_off_c, 0, 34, 64
1, 141160, Note_on_c, 0, 73, 69
1, 141166, Control_c, 0, 64, 127
1, 141190, Note_off_c, 0, 46, 64
1, 141260, Note_on_c, 0, 75, 77
1, 141300, Note_off_c, 0, 73, 64
1, 141314, Note_off_c, 0, 75, 64
1, 141356, Note_on_c, 0, 73, 71
1, 141444, Note_off_c, 0, 73, 64
1, 141444, Note_on_c, 0, 75, 76
1, 141494, Note_on_c, 0, 65, 91
1, 141502, Note_on_c, 0, 56, 70
1, 141508, Note_off_c, 0, 75, 64
1, 141512, Note_on_c, 0, 53, 72
1, 141518, Note_on_c, 0, 73, 64
1, 141534, Note_off_c, 0, 65, 64
1, 141576, Note_off_c, 0, 73, 64
1, 141594, Note_on_c, 0, 75, 79
1, 141622, Note_off_c, 0, 53, 64
1, 141634, Note_off_c, 0, 56, 64
1, 141672, Note_on_c, 0, 73, 67
1, 141732, Note_off_c, 0, 75, 64
1, 141748, Note_on_c, 0, 72, 85
1, 141768, Note_off_c, 0, 73, 64
1, 141804, Note_off_c, 0, 72, 64
1, 141816, Note_on_c, 0, 73, 89
1, 141828, Control_c, 0, 64, 0
1, 141858, Note_on_c, 0, 46, 78
1, 141858, Note_on_c, 0, 34, 97
1, 141924, Note_on_c, 0, 74, 101
1, 141946, Note_off_c, 0, 73, 64
1, 141982, Control_c, 0, 64, 127
1, 141990, Note_off_c, 0, 46, 64
1, 141990, Note_off_c, 0, 34, 64
1, 142008, Note_off_c, 0, 74, 64
1, 142014, Note_on_c, 0, 75, 89
1, 142106, Note_on_c, 0, 74, 79
1, 142110, Note_off_c, 0, 75, 64
1, 142188, Note_off_c, 0, 74, 64
1, 142188, Note_on_c, 0, 75, 73
1, 142276, Note_on_c, 0, 74, 79
1, 142292, Note_off_c, 0, 75, 64
1, 142292, Note_on_c, 0, 68, 94
1, 142300, Note_on_c, 0, 62, 80
1, 142302, Note_on_c, 0, 56, 72
1, 142314, Note_on_c, 0, 58, 54
1, 142360, Note_off_c, 0, 68, 64
1, 142362, Note_off_c, 0, 74, 64
1, 142362, Note_on_c, 0, 75, 78
1, 142368, Note_off_c, 0, 62, 64
1, 142450, Note_on_c, 0, 74, 67
1, 142458, Note_off_c, 0, 58, 64
1, 142462, Note_off_c, 0, 56, 64
1, 142478, Note_off_c, 0, 75, 64
1, 142532, Note_on_c, 0, 75, 89
1, 142554, Note_off_c, 0, 74, 64
1, 142624, Note_on_c, 0, 74, 83
1, 142668, Note_off_c, 0, 75, 64
1, 142720, Note_on_c, 0, 73, 90
1, 142726, Note_off_c, 0, 74, 64
1, 142824, Note_on_c, 0, 74, 87
1, 142854, Note_off_c, 0, 73, 64
1, 142884, Note_on_c, 0, 39, 93
1, 142887, Note_on_c, 0, 27, 100
1, 142902, Control_c, 0, 64, 0
1, 142948, Note_on_c, 0, 75, 92
1, 142988, Note_off_c, 0, 74, 64
1, 143044, Note_off_c, 0, 27, 64
1, 143068, Note_off_c, 0, 39, 64
1, 143086, Control_c, 0, 64, 127
1, 143098, Note_on_c, 0, 77, 94
1, 143108, Note_off_c, 0, 75, 64
1, 143214, Note_on_c, 0, 75, 79
1, 143232, Note_off_c, 0, 77, 64
1, 143332, Note_on_c, 0, 77, 85
1, 143356, Note_off_c, 0, 75, 64
1, 143420, Note_on_c, 0, 63, 101
1, 143422, Note_on_c, 0, 55, 91
1, 143438, Note_on_c, 0, 61, 76
1, 143440, Note_on_c, 0, 75, 72
1, 143442, Note_on_c, 0, 58, 63
1, 143464, Note_off_c, 0, 77, 64
1, 143550, Note_on_c, 0, 77, 70
1, 143580, Note_off_c, 0, 75, 64
1, 143604, Note_off_c, 0, 55, 64
1, 143618, Note_off_c, 0, 61, 64
1, 143620, Note_off_c, 0, 58, 64
1, 143634, Note_off_c, 0, 63, 64
1, 143654, Note_on_c, 0, 75, 68
1, 143657, Note_off_c, 0, 77, 64
1, 143750, Note_on_c, 0, 77, 69
1, 143780, Note_off_c, 0, 75, 64
1, 143832, Note_on_c, 0, 67, 103
1, 143838, Note_on_c, 0, 63, 79
1, 143838, Note_on_c, 0, 58, 79
1, 143838, Note_on_c, 0, 61, 84
1, 143856, Note_off_c, 0, 77, 64
1, 143856, Note_on_c, 0, 75, 67
1, 143948, Note_on_c, 0, 77, 76
1, 143962, Note_off_c, 0, 75, 64
1, 143974, Note_off_c, 0, 61, 64
1, 143983, Note_off_c, 0, 63, 64
1, 143996, Note_off_c, 0, 67, 64
1, 144006, Note_off_c, 0, 58, 64
1, 144048, Note_on_c, 0, 75, 79
1, 144118, Note_off_c, 0, 77, 64
1, 144162, Note_on_c, 0, 74, 94
1, 144186, Note_off_c, 0, 75, 64
1, 144248, Note_on_c, 0, 75, 80
1, 144262, Note_on_c, 0, 73, 99
1, 144270, Note_on_c, 0, 67, 75
1, 144276, Note_on_c, 0, 63, 68
1, 144280, Note_on_c, 0, 70, 64
1, 144292, Note_off_c, 0, 74, 64
1, 144300, Note_off_c, 0, 75, 64
1, 144342, Note_on_c, 0, 77, 98
1, 144370, Note_off_c, 0, 70, 64
1, 144376, Note_off_c, 0, 73, 64
1, 144394, Note_off_c, 0, 67, 64
1, 144422, Note_on_c, 0, 79, 100
1, 144442, Note_off_c, 0, 63, 64
1, 144452, Note_off_c, 0, 77, 64
1, 144482, Note_on_c, 0, 80, 78
1, 144544, Note_off_c, 0, 79, 64
1, 144546, Note_on_c, 0, 82, 80
1, 144586, Note_off_c, 0, 82, 64
1, 144594, Note_off_c, 0, 80, 64
1, 144626, Note_on_c, 0, 84, 99
1, 144720, Note_off_c, 0, 84, 64
1, 144720, Note_on_c, 0, 85, 81
1, 144784, Note_off_c, 0, 85, 64
1, 144810, Note_on_c, 0, 87, 81
1, 144874, Note_off_c, 0, 87, 64
1, 144886, Note_on_c, 0, 44, 105
1, 144892, Note_on_c, 0, 85, 99
1, 144894, Note_on_c, 0, 89, 106
1, 144896, Note_on_c, 0, 32, 97
1, 144896, Note_on_c, 0, 77, 111
1, 144916, Control_c, 0, 64, 0
1, 145118, Note_off_c, 0, 32, 64
1, 145138, Note_off_c, 0, 44, 64
1, 145146, Control_c, 0, 64, 127
1, 145388, Note_off_c, 0, 77, 64
1, 145398, Note_on_c, 0, 60, 80
1, 145401, Note_on_c, 0, 63, 94
1, 145410, Note_on_c, 0, 51, 73
1, 145424, Note_off_c, 0, 89, 64
1, 145526, Note_off_c, 0, 51, 64
1, 145536, Note_off_c, 0, 60, 64
1, 145560, Note_off_c, 0, 63, 64
1, 145600, Note_on_c, 0, 75, 100
1, 145603, Note_on_c, 0, 87, 82
1, 145608, Note_on_c, 0, 84, 81
1, 145638, Note_off_c, 0, 85, 64
1, 145643, Note_off_c, 0, 87, 64
1, 145664, Note_off_c, 0, 75, 64
1, 145672, Note_off_c, 0, 84, 64
1, 145742, Note_on_c, 0, 84, 92
1, 145745, Note_on_c, 0, 75, 99
1, 145745, Note_on_c, 0, 68, 90
1, 145745, Note_on_c, 0, 87, 80
1, 145756, Note_on_c, 0, 56, 67
1, 145758, Note_on_c, 0, 60, 75
1, 145826, Note_off_c, 0, 87, 64
1, 145830, Note_off_c, 0, 84, 64
1, 145866, Note_off_c, 0, 75, 64
1, 145876, Note_off_c, 0, 68, 64
1, 145920, Note_off_c, 0, 60, 64
1, 145964, Note_off_c, 0, 56, 64
1, 146114, Note_on_c, 0, 63, 84
1, 146130, Note_on_c, 0, 51, 79
1, 146140, Note_on_c, 0, 39, 74
1, 146150, Note_off_c, 0, 63, 64
1, 146153, Note_on_c, 0, 65, 62
1, 146170, Note_off_c, 0, 51, 64
1, 146180, Note_off_c, 0, 39, 64
1, 146234, Note_on_c, 0, 63, 58
1, 146282, Note_off_c, 0, 65, 64
1, 146320, Note_off_c, 0, 63, 64
1, 146323, Note_on_c, 0, 62, 88
1, 146404, Note_on_c, 0, 63, 78
1, 146422, Note_off_c, 0, 62, 64
1, 146454, Note_on_c, 0, 56, 93
1, 146462, Note_on_c, 0, 68, 95
1, 146466, Note_on_c, 0, 44, 90
1, 146508, Note_off_c, 0, 63, 64
1, 146522, Note_off_c, 0, 56, 64
1, 146544, Note_off_c, 0, 68, 64
1, 146556, Note_off_c, 0, 44, 64
1, 146836, Note_on_c, 0, 84, 107
1, 146840, Note_on_c, 0, 72, 104
1, 146840, Note_on_c, 0, 80, 95
1, 146848, Note_on_c, 0, 39, 90
1, 146854, Note_on_c, 0, 27, 92
1, 146924, Note_off_c, 0, 84, 64
1, 146930, Note_off_c, 0, 72, 64
1, 146944, Note_off_c, 0, 27, 64
1, 146966, Note_off_c, 0, 80, 64
1, 147000, Note_off_c, 0, 39, 64
1, 147066, Note_on_c, 0, 73, 99
1, 147068, Note_on_c, 0, 85, 96
1, 147072, Note_on_c, 0, 82, 86
1, 147138, Note_off_c, 0, 73, 64
1, 147156, Note_off_c, 0, 82, 64
1, 147168, Note_off_c, 0, 85, 64
1, 147268, Control_c, 0, 64, 0
1, 147294, Note_on_c, 0, 89, 106
1, 147294, Note_on_c, 0, 77, 108
1, 147297, Note_on_c, 0, 85, 98
1, 147300, Note_on_c, 0, 44, 109
1, 147306, Note_on_c, 0, 32, 90
1, 147360, Note_off_c, 0, 32, 64
1, 147396, Note_off_c, 0, 89, 64
1, 147412, Note_off_c, 0, 44, 64
1, 147414, Control_c, 0, 64, 127
1, 147420, Note_off_c, 0, 77, 64
1, 147436, Note_off_c, 0, 85, 64
1, 147552, Note_on_c, 0, 75, 97
1, 147560, Note_on_c, 0, 84, 81
1, 147566, Note_on_c, 0, 87, 52
1, 147582, Note_off_c, 0, 75, 64
1, 147596, Note_off_c, 0, 84, 64
1, 147612, Note_off_c, 0, 87, 64
1, 147640, Note_on_c, 0, 75, 73
1, 147643, Note_on_c, 0, 84, 98
1, 147658, Note_on_c, 0, 87, 85
1, 147662, Note_on_c, 0, 60, 71
1, 147664, Note_on_c, 0, 63, 86
1, 147682, Note_on_c, 0, 51, 61
1, 147746, Note_off_c, 0, 84, 64
1, 147746, Note_off_c, 0, 51, 64
1, 147756, Note_off_c, 0, 87, 64
1, 147762, Note_off_c, 0, 75, 64
1, 147762, Note_off_c, 0, 63, 64
1, 147765, Note_off_c, 0, 60, 64
1, 147836, Note_on_c, 0, 74, 99
1, 147839, Note_on_c, 0, 83, 100
1, 147839, Note_on_c, 0, 86, 88
1, 147924, Note_off_c, 0, 86, 64
1, 147932, Note_off_c, 0, 74, 64
1, 147942, Note_off_c, 0, 83, 64
1, 148000, Note_on_c, 0, 87, 92
1, 148000, Note_on_c, 0, 84, 96
1, 148002, Note_on_c, 0, 75, 102
1, 148004, Note_on_c, 0, 68, 89
1, 148018, Note_on_c, 0, 60, 80
1, 148024, Note_on_c, 0, 56, 63
1, 148064, Note_off_c, 0, 68, 64
1, 148080, Note_off_c, 0, 87, 64
1, 148088, Note_off_c, 0, 75, 64
1, 148098, Note_off_c, 0, 60, 64
1, 148104, Note_off_c, 0, 84, 64
1, 148144, Note_off_c, 0, 56, 64
1, 148396, Note_on_c, 0, 63, 82
1, 148398, Note_on_c, 0, 51, 79
1, 148400, Note_on_c, 0, 39, 75
1, 148438, Note_off_c, 0, 63, 64
1, 148484, Note_on_c, 0, 65, 37
1, 148538, Note_on_c, 0, 63, 68
1, 148588, Control_c, 0, 64, 0
1, 148592, Note_off_c, 0, 65, 64
1, 148624, Note_on_c, 0, 62, 87
1, 148642, Note_off_c, 0, 63, 64
1, 148704, Note_on_c, 0, 63, 83
1, 148707, Note_off_c, 0, 39, 64
1, 148716, Note_off_c, 0, 51, 64
1, 148726, Control_c, 0, 64, 127
1, 148756, Note_off_c, 0, 62, 64
1, 148796, Note_on_c, 0, 68, 96
1, 148818, Note_on_c, 0, 56, 90
1, 148826, Note_on_c, 0, 44, 86
1, 148848, Note_off_c, 0, 63, 64
1, 148896, Note_off_c, 0, 68, 64
1, 148896, Note_off_c, 0, 44, 64
1, 148904, Note_off_c, 0, 56, 64
1, 149186, Note_on_c, 0, 72, 94
1, 149186, Note_on_c, 0, 84, 101
1, 149189, Note_on_c, 0, 80, 84
1, 149192, Note_on_c, 0, 39, 83
1, 149202, Note_on_c, 0, 27, 92
1, 149260, Note_off_c, 0, 84, 64
1, 149270, Note_off_c, 0, 72, 64
1, 149294, Note_off_c, 0, 80, 64
1, 149326, Note_off_c, 0, 27, 64
1, 149344, Note_off_c, 0, 39, 64
1, 149368, Note_on_c, 0, 73, 95
1, 149374, Note_on_c, 0, 85, 92
1, 149378, Note_on_c, 0, 82, 82
1, 149418, Note_off_c, 0, 73, 64
1, 149456, Note_off_c, 0, 82, 64
1, 149484, Note_off_c, 0, 85, 64
1, 149510, Control_c, 0, 64, 0
1, 149558, Note_on_c, 0, 85, 78
1, 149558, Note_on_c, 0, 44, 101
1, 149558, Note_on_c, 0, 32, 88
1, 149558, Note_on_c, 0, 89, 103
1, 149564, Note_on_c, 0, 77, 100
1, 149612, Note_off_c, 0, 77, 64
1, 149640, Note_off_c, 0, 32, 64
1, 149648, Control_c, 0, 64, 127
1, 149650, Note_off_c, 0, 89, 64
1, 149668, Note_off_c, 0, 44, 64
1, 149692, Note_off_c, 0, 85, 64
1, 149744, Note_on_c, 0, 75, 92
1, 149747, Note_on_c, 0, 87, 77
1, 149758, Note_on_c, 0, 84, 74
1, 149780, Note_off_c, 0, 75, 64
1, 149804, Note_off_c, 0, 87, 64
1, 149810, Note_off_c, 0, 84, 64
1, 149894, Note_on_c, 0, 90, 69
1, 149910, Note_on_c, 0, 84, 57
1, 149913, Note_on_c, 0, 63, 90
1, 149913, Note_on_c, 0, 60, 75
1, 149918, Note_on_c, 0, 89, 76
1, 149922, Note_on_c, 0, 87, 83
1, 149924, Note_on_c, 0, 51, 71
1, 149942, Note_off_c, 0, 90, 64
1, 149954, Note_off_c, 0, 84, 64
1, 149957, Note_off_c, 0, 89, 64
1, 149976, Note_off_c, 0, 87, 64
1, 150010, Note_off_c, 0, 60, 64
1, 150020, Note_off_c, 0, 63, 64
1, 150034, Note_off_c, 0, 51, 64
1, 150070, Note_on_c, 0, 86, 89
1, 150072, Note_on_c, 0, 74, 98
1, 150082, Note_on_c, 0, 83, 100
1, 150096, Note_on_c, 0, 82, 32
1, 150106, Note_off_c, 0, 74, 64
1, 150126, Note_off_c, 0, 83, 64
1, 150156, Note_off_c, 0, 86, 64
1, 150164, Note_off_c, 0, 82, 64
1, 150228, Note_on_c, 0, 89, 103
1, 150234, Note_on_c, 0, 85, 88
1, 150238, Note_on_c, 0, 68, 88
1, 150238, Note_on_c, 0, 77, 88
1, 150254, Note_on_c, 0, 60, 72
1, 150256, Note_on_c, 0, 56, 65
1, 150278, Note_off_c, 0, 77, 64
1, 150340, Note_off_c, 0, 89, 64
1, 150346, Note_off_c, 0, 68, 64
1, 150348, Note_off_c, 0, 85, 64
1, 150388, Note_off_c, 0, 60, 64
1, 150398, Note_on_c, 0, 87, 85
1, 150402, Note_on_c, 0, 75, 90
1, 150416, Note_on_c, 0, 84, 68
1, 150432, Note_off_c, 0, 75, 64
1, 150434, Note_off_c, 0, 56, 64
1, 150468, Note_off_c, 0, 84, 64
1, 150504, Note_off_c, 0, 87, 64
1, 150540, Control_c, 0, 64, 0
1, 150550, Note_on_c, 0, 89, 100
1, 150556, Note_on_c, 0, 84, 68
1, 150570, Note_on_c, 0, 51, 92
1, 150574, Note_on_c, 0, 87, 77
1, 150576, Note_on_c, 0, 39, 92
1, 150612, Note_off_c, 0, 39, 64
1, 150620, Note_off_c, 0, 51, 64
1, 150622, Note_off_c, 0, 84, 64
1, 150640, Note_off_c, 0, 89, 64
1, 150646, Control_c, 0, 64, 127
1, 150682, Note_off_c, 0, 87, 64
1, 150720, Note_on_c, 0, 86, 88
1, 150722, Note_on_c, 0, 74, 99
1, 150722, Note_on_c, 0, 83, 105
1, 150790, Note_off_c, 0, 74, 64
1, 150814, Note_off_c, 0, 86, 64
1, 150826, Note_off_c, 0, 83, 64
1, 150876, Control_c, 0, 64, 0
1, 150894, Note_on_c, 0, 87, 91
1, 150896, Note_on_c, 0, 56, 90
1, 150900, Note_on_c, 0, 84, 95
1, 150902, Note_on_c, 0, 75, 89
1, 150906, Note_on_c, 0, 44, 90
1, 150982, Note_off_c, 0, 75, 64
1, 150996, Note_off_c, 0, 56, 64
1, 151016, Note_off_c, 0, 44, 64
1, 151016, Control_c, 0, 64, 127
1, 151088, Note_off_c, 0, 87, 64
1, 151108, Note_on_c, 0, 39, 81
1, 151118, Note_on_c, 0, 75, 52
1, 151122, Note_on_c, 0, 46, 65
1, 151170, Control_c, 0, 64, 0
1, 151180, Note_on_c, 0, 82, 66
1, 151182, Note_off_c, 0, 75, 64
1, 151196, Note_off_c, 0, 39, 64
1, 151204, Note_off_c, 0, 84, 64
1, 151236, Note_on_c, 0, 54, 97
1, 151248, Note_on_c, 0, 90, 95
1, 151328, Note_off_c, 0, 46, 64
1, 151330, Note_off_c, 0, 82, 64
1, 151330, Control_c, 0, 64, 127
1, 151352, Note_off_c, 0, 54, 64
1, 151362, Note_off_c, 0, 90, 64
1, 151422, Note_on_c, 0, 75, 70
1, 151436, Note_on_c, 0, 41, 91
1, 151464, Note_on_c, 0, 48, 60
1, 151476, Control_c, 0, 64, 0
1, 151494, Note_off_c, 0, 75, 64
1, 151522, Note_on_c, 0, 51, 75
1, 151534, Note_on_c, 0, 81, 52
1, 151542, Note_off_c, 0, 41, 64
1, 151564, Note_on_c, 0, 89, 110
1, 151564, Note_on_c, 0, 57, 89
1, 151580, Note_off_c, 0, 81, 64
1, 151583, Note_off_c, 0, 48, 64
1, 151614, Note_off_c, 0, 57, 64
1, 151617, Note_off_c, 0, 51, 64
1, 151630, Control_c, 0, 64, 127
1, 151652, Note_off_c, 0, 89, 64
1, 151782, Note_on_c, 0, 72, 68
1, 151794, Note_on_c, 0, 53, 94
1, 151828, Note_off_c, 0, 72, 64
1, 151836, Note_on_c, 0, 60, 63
1, 151844, Note_off_c, 0, 53, 64
1, 151854, Note_on_c, 0, 75, 54
1, 151878, Note_on_c, 0, 63, 67
1, 151894, Note_on_c, 0, 77, 81
1, 151898, Note_off_c, 0, 75, 64
1, 151910, Note_on_c, 0, 69, 75
1, 151913, Note_on_c, 0, 84, 103
1, 151926, Note_off_c, 0, 77, 64
1, 151976, Note_off_c, 0, 69, 64
1, 151982, Note_off_c, 0, 84, 64
1, 152022, Note_off_c, 0, 63, 64
1, 152028, Note_off_c, 0, 60, 64
1, 152170, Note_on_c, 0, 46, 75
1, 152198, Note_on_c, 0, 70, 68
1, 152230, Control_c, 0, 64, 0
1, 152252, Note_on_c, 0, 53, 93
1, 152272, Note_on_c, 0, 77, 72
1, 152276, Note_off_c, 0, 70, 64
1, 152306, Note_on_c, 0, 61, 87
1, 152330, Note_on_c, 0, 85, 95
1, 152398, Control_c, 0, 64, 127
1, 152462, Note_off_c, 0, 61, 64
1, 152480, Note_off_c, 0, 77, 64
1, 152486, Note_off_c, 0, 85, 64
1, 152504, Note_off_c, 0, 53, 64
1, 152538, Note_off_c, 0, 46, 64
1, 152724, Note_on_c, 0, 54, 87
1, 152738, Note_on_c, 0, 42, 60
1, 152742, Note_on_c, 0, 78, 90
1, 152842, Note_off_c, 0, 78, 64
1, 152848, Note_on_c, 0, 66, 79
1, 152942, Note_on_c, 0, 78, 66
1, 152962, Note_off_c, 0, 54, 64
1, 152978, Note_off_c, 0, 42, 64
1, 153022, Note_off_c, 0, 66, 64
1, 153028, Control_c, 0, 64, 0
1, 153054, Note_off_c, 0, 78, 64
1, 153054, Note_on_c, 0, 65, 96
1, 153056, Note_on_c, 0, 77, 94
1, 153060, Note_on_c, 0, 53, 108
1, 153066, Note_on_c, 0, 41, 90
1, 153146, Note_off_c, 0, 53, 64
1, 153166, Control_c, 0, 64, 127
1, 153182, Note_off_c, 0, 65, 64
1, 153190, Note_off_c, 0, 77, 64
1, 153228, Note_off_c, 0, 41, 64
1, 153418, Note_on_c, 0, 73, 89
1, 153418, Note_on_c, 0, 61, 88
1, 153421, Note_on_c, 0, 49, 75
1, 153432, Note_on_c, 0, 37, 76
1, 153456, Note_off_c, 0, 61, 64
1, 153532, Note_off_c, 0, 73, 64
1, 153558, Note_off_c, 0, 49, 64
1, 153762, Note_off_c, 0, 37, 64
1, 153844, Control_c, 0, 64, 0
1, 153868, Note_on_c, 0, 90, 103
1, 153870, Note_on_c, 0, 46, 81
1, 153870, Note_on_c, 0, 78, 110
1, 153874, Note_on_c, 0, 87, 88
1, 153886, Note_on_c, 0, 34, 84
1, 154006, Note_off_c, 0, 34, 64
1, 154012, Note_off_c, 0, 46, 64
1, 154042, Control_c, 0, 64, 127
1, 154358, Note_on_c, 0, 65, 75
1, 154364, Note_on_c, 0, 61, 67
1, 154372, Note_off_c, 0, 90, 64
1, 154372, Note_on_c, 0, 53, 86
1, 154378, Note_off_c, 0, 78, 64
1, 154432, Note_off_c, 0, 87, 64
1, 154438, Note_off_c, 0, 53, 64
1, 154474, Note_off_c, 0, 65, 64
1, 154486, Note_off_c, 0, 61, 64
1, 154566, Note_on_c, 0, 85, 90
1, 154568, Note_on_c, 0, 77, 100
1, 154568, Note_on_c, 0, 89, 91
1, 154600, Note_off_c, 0, 77, 64
1, 154604, Note_off_c, 0, 89, 64
1, 154618, Note_off_c, 0, 85, 64
1, 154672, Control_c, 0, 64, 0
1, 154720, Note_on_c, 0, 70, 75
1, 154724, Note_on_c, 0, 89, 91
1, 154726, Note_on_c, 0, 77, 103
1, 154726, Note_on_c, 0, 85, 81
1, 154734, Note_on_c, 0, 58, 52
1, 154738, Note_on_c, 0, 61, 60
1, 154764, Note_off_c, 0, 77, 64
1, 154770, Note_off_c, 0, 70, 64
1, 154778, Note_on_c, 0, 87, 17
1, 154796, Control_c, 0, 64, 127
1, 154806, Note_off_c, 0, 61, 64
1, 154810, Note_off_c, 0, 89, 64
1, 154832, Note_off_c, 0, 85, 64
1, 154842, Note_off_c, 0, 87, 64
1, 154860, Note_off_c, 0, 58, 64
1, 155136, Note_on_c, 0, 65, 77
1, 155138, Note_on_c, 0, 53, 83
1, 155140, Note_on_c, 0, 41, 58
1, 155176, Note_off_c, 0, 65, 64
1, 155184, Note_on_c, 0, 66, 66
1, 155188, Note_off_c, 0, 41, 64
1, 155212, Note_off_c, 0, 53, 64
1, 155268, Note_on_c, 0, 65, 43
1, 155314, Note_off_c, 0, 66, 64
1, 155334, Note_off_c, 0, 65, 64
1, 155338, Note_on_c, 0, 64, 76
1, 155408, Note_on_c, 0, 65, 65
1, 155424, Note_off_c, 0, 64, 64
1, 155424, Control_c, 0, 64, 0
1, 155472, Note_on_c, 0, 70, 88
1, 155474, Note_on_c, 0, 58, 81
1, 155482, Note_on_c, 0, 46, 69
1, 155540, Note_off_c, 0, 65, 64
1, 155564, Control_c, 0, 64, 127
1, 155566, Note_off_c, 0, 58, 64
1, 155592, Note_off_c, 0, 70, 64
1, 155628, Note_off_c, 0, 46, 64
1, 155846, Note_on_c, 0, 73, 92
1, 155846, Note_on_c, 0, 85, 90
1, 155854, Note_on_c, 0, 82, 77
1, 155864, Note_on_c, 0, 41, 99
1, 155869, Note_on_c, 0, 29, 96
1, 155960, Note_off_c, 0, 29, 64
1, 155986, Note_off_c, 0, 73, 64
1, 156002, Note_off_c, 0, 85, 64
1, 156030, Note_off_c, 0, 41, 64
1, 156072, Note_on_c, 0, 75, 92
1, 156075, Note_on_c, 0, 84, 89
1, 156075, Note_on_c, 0, 87, 87
1, 156100, Note_off_c, 0, 82, 64
1, 156196, Note_off_c, 0, 75, 64
1, 156218, Note_off_c, 0, 84, 64
1, 156241, Note_off_c, 0, 87, 64
1, 156302, Control_c, 0, 64, 0
1, 156328, Note_on_c, 0, 78, 100
1, 156330, Note_on_c, 0, 90, 93
1, 156330, Note_on_c, 0, 87, 62
1, 156336, Note_on_c, 0, 46, 91
1, 156344, Note_on_c, 0, 34, 93
1, 156406, Note_off_c, 0, 34, 64
1, 156420, Note_off_c, 0, 46, 64
1, 156470, Control_c, 0, 64, 127
1, 156490, Note_off_c, 0, 78, 64
1, 156498, Note_off_c, 0, 90, 64
1, 156516, Note_off_c, 0, 87, 64
1, 156626, Note_on_c, 0, 85, 76
1, 156629, Note_on_c, 0, 89, 71
1, 156629, Note_on_c, 0, 77, 81
1, 156660, Note_off_c, 0, 85, 64
1, 156666, Note_off_c, 0, 77, 64
1, 156672, Note_off_c, 0, 89, 64
1, 156710, Note_on_c, 0, 85, 77
1, 156718, Note_on_c, 0, 77, 87
1, 156718, Note_on_c, 0, 89, 92
1, 156734, Note_on_c, 0, 65, 73
1, 156740, Note_on_c, 0, 61, 67
1, 156746, Note_on_c, 0, 53, 88
1, 156778, Note_off_c, 0, 89, 64
1, 156794, Note_off_c, 0, 65, 64
1, 156800, Note_off_c, 0, 53, 64
1, 156802, Note_off_c, 0, 61, 64
1, 156808, Note_off_c, 0, 77, 64
1, 156818, Note_off_c, 0, 85, 64
1, 156882, Note_on_c, 0, 88, 82
1, 156890, Note_on_c, 0, 76, 86
1, 156890, Note_on_c, 0, 84, 88
1, 156984, Note_off_c, 0, 88, 64
1, 156986, Note_off_c, 0, 76, 64
1, 156988, Note_off_c, 0, 84, 64
1, 157008, Control_c, 0, 64, 0
1, 157062, Note_on_c, 0, 89, 104
1, 157070, Note_on_c, 0, 77, 91
1, 157070, Note_on_c, 0, 85, 83
1, 157074, Note_on_c, 0, 70, 81
1, 157084, Note_on_c, 0, 61, 68
1, 157086, Note_on_c, 0, 58, 53
1, 157112, Note_off_c, 0, 70, 64
1, 157140, Note_off_c, 0, 89, 64
1, 157146, Control_c, 0, 64, 127
1, 157148, Note_off_c, 0, 61, 64
1, 157166, Note_off_c, 0, 77, 64
1, 157170, Note_off_c, 0, 85, 64
1, 157216, Note_off_c, 0, 58, 64
1, 157434, Note_on_c, 0, 65, 86
1, 157450, Note_on_c, 0, 41, 70
1, 157454, Note_on_c, 0, 53, 86
1, 157472, Note_off_c, 0, 65, 64
1, 157492, Note_off_c, 0, 41, 64
1, 157500, Note_on_c, 0, 66, 61
1, 157514, Note_off_c, 0, 53, 64
1, 157586, Note_on_c, 0, 65, 48
1, 157624, Note_off_c, 0, 66, 64
1, 157636, Note_off_c, 0, 65, 64
1, 157654, Note_on_c, 0, 64, 84
1, 157730, Control_c, 0, 64, 0
1, 157748, Note_on_c, 0, 65, 71
1, 157752, Note_off_c, 0, 64, 64
1, 157794, Note_on_c, 0, 58, 81
1, 157794, Note_on_c, 0, 70, 90
1, 157800, Note_on_c, 0, 46, 73
1, 157840, Note_off_c, 0, 65, 64
1, 157868, Control_c, 0, 64, 127
1, 157904, Note_off_c, 0, 58, 64
1, 157907, Note_off_c, 0, 70, 64
1, 158008, Note_off_c, 0, 46, 64
1, 158218, Note_on_c, 0, 79, 106
1, 158221, Note_on_c, 0, 46, 87
1, 158221, Note_on_c, 0, 85, 91
1, 158221, Note_on_c, 0, 91, 100
1, 158236, Note_on_c, 0, 34, 83
1, 158292, Note_off_c, 0, 34, 64
1, 158326, Note_off_c, 0, 46, 64
1, 158332, Note_off_c, 0, 79, 64
1, 158380, Note_off_c, 0, 85, 64
1, 158514, Note_on_c, 0, 80, 99
1, 158514, Note_on_c, 0, 92, 95
1, 158586, Note_off_c, 0, 91, 64
1, 158634, Note_off_c, 0, 80, 64
1, 158744, Control_c, 0, 64, 0
1, 158758, Note_on_c, 0, 84, 103
1, 158758, Note_on_c, 0, 96, 107
1, 158766, Note_on_c, 0, 39, 100
1, 158778, Note_on_c, 0, 27, 92
1, 158804, Note_off_c, 0, 92, 64
1, 158870, Note_off_c, 0, 27, 64
1, 158888, Note_off_c, 0, 39, 64
1, 158898, Control_c, 0, 64, 127
1, 159016, Note_on_c, 0, 91, 92
1, 159020, Note_on_c, 0, 87, 74
1, 159026, Note_off_c, 0, 96, 64
1, 159074, Note_off_c, 0, 84, 64
1, 159330, Note_off_c, 0, 87, 64
1, 159338, Note_on_c, 0, 96, 102
1, 159344, Note_on_c, 0, 84, 97
1, 159354, Note_on_c, 0, 72, 103
1, 159360, Note_on_c, 0, 67, 87
1, 159360, Note_on_c, 0, 63, 87
1, 159372, Note_on_c, 0, 61, 64
1, 159392, Note_off_c, 0, 72, 64
1, 159406, Note_off_c, 0, 67, 64
1, 159422, Note_off_c, 0, 61, 64
1, 159432, Note_off_c, 0, 91, 64
1, 159510, Note_on_c, 0, 61, 22
1, 159560, Note_off_c, 0, 63, 64
1, 159574, Note_off_c, 0, 96, 64
1, 159582, Note_off_c, 0, 61, 64
1, 159594, Note_off_c, 0, 84, 64
1, 159656, Note_on_c, 0, 70, 77
1, 159728, Note_off_c, 0, 70, 64
1, 159750, Note_on_c, 0, 82, 90
1, 159754, Note_on_c, 0, 94, 77
1, 159790, Note_off_c, 0, 94, 64
1, 159802, Note_off_c, 0, 82, 64
1, 159834, Control_c, 0, 64, 0
1, 159858, Note_on_c, 0, 94, 49
1, 159864, Note_on_c, 0, 82, 90
1, 159874, Note_on_c, 0, 51, 91
1, 159958, Control_c, 0, 64, 127
1, 159980, Note_off_c, 0, 51, 64
1, 160000, Note_off_c, 0, 94, 64
1, 160044, Note_off_c, 0, 82, 64
1, 160098, Note_on_c, 0, 87, 84
1, 160100, Note_on_c, 0, 84, 89
1, 160150, Note_off_c, 0, 84, 64
1, 160224, Note_off_c, 0, 87, 64
1, 160280, Note_on_c, 0, 70, 75
1, 160306, Note_on_c, 0, 60, 59
1, 160306, Note_on_c, 0, 63, 66
1, 160328, Note_on_c, 0, 82, 97
1, 160330, Note_on_c, 0, 94, 93
1, 160406, Note_off_c, 0, 82, 64
1, 160426, Note_off_c, 0, 94, 64
1, 160434, Note_off_c, 0, 70, 64
1, 160482, Note_off_c, 0, 60, 64
1, 160544, Note_on_c, 0, 68, 79
1, 160644, Note_off_c, 0, 63, 64
1, 160648, Note_on_c, 0, 92, 84
1, 160656, Note_off_c, 0, 68, 64
1, 160658, Note_on_c, 0, 80, 70
1, 160680, Note_off_c, 0, 92, 64
1, 160696, Note_off_c, 0, 80, 64
1, 160754, Note_on_c, 0, 92, 20
1, 160764, Note_on_c, 0, 80, 68
1, 160772, Control_c, 0, 64, 0
1, 160792, Note_on_c, 0, 51, 78
1, 160880, Control_c, 0, 64, 127
1, 160920, Note_off_c, 0, 92, 64
1, 160925, Note_off_c, 0, 51, 64
1, 160930, Note_off_c, 0, 80, 64
1, 160974, Note_on_c, 0, 87, 79
1, 160974, Note_on_c, 0, 82, 81
1, 161078, Note_off_c, 0, 82, 64
1, 161142, Note_on_c, 0, 68, 84
1, 161158, Note_on_c, 0, 58, 56
1, 161162, Note_on_c, 0, 63, 59
1, 161174, Note_on_c, 0, 92, 83
1, 161174, Note_on_c, 0, 80, 91
1, 161202, Note_off_c, 0, 68, 64
1, 161218, Note_off_c, 0, 63, 64
1, 161232, Note_off_c, 0, 58, 64
1, 161318, Note_off_c, 0, 80, 64
1, 161322, Note_off_c, 0, 92, 64
1, 161338, Note_off_c, 0, 87, 64
1, 161348, Note_on_c, 0, 58, 50
1, 161354, Note_on_c, 0, 67, 80
1, 161378, Note_on_c, 0, 63, 38
1, 161396, Note_off_c, 0, 67, 64
1, 161430, Note_off_c, 0, 63, 64
1, 161454, Note_on_c, 0, 91, 88
1, 161472, Note_on_c, 0, 79, 55
1, 161480, Note_off_c, 0, 58, 64
1, 161488, Note_off_c, 0, 91, 64
1, 161530, Note_off_c, 0, 79, 64
1, 161556, Note_on_c, 0, 91, 58
1, 161558, Control_c, 0, 64, 0
1, 161574, Note_on_c, 0, 79, 101
1, 161607, Note_on_c, 0, 46, 79
1, 161682, Note_off_c, 0, 46, 64
1, 161694, Control_c, 0, 64, 127
1, 161748, Note_off_c, 0, 91, 64
1, 161756, Note_off_c, 0, 79, 64
1, 161762, Note_on_c, 0, 86, 84
1, 161764, Note_on_c, 0, 82, 63
1, 161886, Note_off_c, 0, 82, 64
1, 161926, Note_on_c, 0, 67, 92
1, 161936, Note_on_c, 0, 56, 66
1, 161939, Note_on_c, 0, 62, 70
1, 161946, Note_on_c, 0, 58, 41
1, 161948, Note_on_c, 0, 91, 94
1, 161950, Note_on_c, 0, 79, 98
1, 161966, Note_off_c, 0, 67, 64
1, 161990, Note_off_c, 0, 62, 64
1, 162010, Note_off_c, 0, 58, 64
1, 162036, Note_off_c, 0, 86, 64
1, 162036, Note_off_c, 0, 91, 64
1, 162039, Note_off_c, 0, 79, 64
1, 162122, Note_on_c, 0, 65, 78
1, 162126, Note_on_c, 0, 58, 28
1, 162172, Note_off_c, 0, 65, 64
1, 162206, Note_off_c, 0, 58, 64
1, 162208, Note_on_c, 0, 77, 70
1, 162212, Note_on_c, 0, 89, 64
1, 162222, Note_off_c, 0, 56, 64
1, 162248, Note_off_c, 0, 77, 64
1, 162248, Control_c, 0, 64, 0
1, 162260, Note_off_c, 0, 89, 64
1, 162306, Note_on_c, 0, 77, 89
1, 162308, Note_on_c, 0, 89, 95
1, 162320, Note_on_c, 0, 51, 92
1, 162386, Control_c, 0, 64, 127
1, 162404, Note_off_c, 0, 89, 64
1, 162438, Note_off_c, 0, 51, 64
1, 162446, Note_off_c, 0, 77, 64
1, 162492, Note_on_c, 0, 79, 87
1, 162494, Note_on_c, 0, 82, 77
1, 162532, Note_off_c, 0, 79, 64
1, 162616, Note_off_c, 0, 82, 64
1, 162660, Note_on_c, 0, 65, 88
1, 162670, Note_on_c, 0, 58, 62
1, 162670, Note_on_c, 0, 55, 78
1, 162670, Note_on_c, 0, 89, 98
1, 162673, Note_on_c, 0, 77, 95
1, 162706, Note_off_c, 0, 65, 64
1, 162726, Note_off_c, 0, 77, 64
1, 162746, Note_off_c, 0, 55, 64
1, 162754, Note_off_c, 0, 89, 64
1, 162766, Note_off_c, 0, 58, 64
1, 162854, Note_on_c, 0, 63, 86
1, 162862, Note_on_c, 0, 58, 40
1, 162882, Note_on_c, 0, 55, 29
1, 162885, Note_off_c, 0, 63, 64
1, 162922, Note_off_c, 0, 58, 64
1, 162940, Note_on_c, 0, 75, 81
1, 162942, Note_on_c, 0, 87, 72
1, 162952, Note_off_c, 0, 55, 64
1, 162976, Note_off_c, 0, 87, 64
1, 162978, Note_off_c, 0, 75, 64
1, 163046, Control_c, 0, 64, 0
1, 163064, Note_on_c, 0, 85, 83
1, 163064, Note_on_c, 0, 73, 85
1, 163074, Note_on_c, 0, 41, 98
1, 163076, Note_on_c, 0, 53, 108
1, 163198, Note_off_c, 0, 41, 64
1, 163232, Control_c, 0, 64, 127
1, 163248, Note_off_c, 0, 53, 64
1, 163266, Note_on_c, 0, 80, 84
1, 163270, Note_on_c, 0, 77, 76
1, 163310, Note_off_c, 0, 85, 64
1, 163322, Note_off_c, 0, 73, 64
1, 163386, Note_off_c, 0, 77, 64
1, 163436, Note_on_c, 0, 61, 88
1, 163439, Note_on_c, 0, 56, 81
1, 163446, Note_on_c, 0, 85, 92
1, 163456, Note_on_c, 0, 73, 81
1, 163504, Note_off_c, 0, 80, 64
1, 163564, Note_off_c, 0, 61, 64
1, 163618, Note_off_c, 0, 73, 64
1, 163650, Note_off_c, 0, 85, 64
1, 163666, Note_on_c, 0, 60, 77
1, 163712, Note_off_c, 0, 60, 64
1, 163722, Note_off_c, 0, 56, 64
1, 163778, Note_on_c, 0, 84, 95
1, 163784, Note_on_c, 0, 72, 79
1, 163808, Note_off_c, 0, 84, 64
1, 163824, Note_off_c, 0, 72, 64
1, 164046, Control_c, 0, 64, 0
1, 164068, Note_on_c, 0, 65, 103
1, 164080, Note_on_c, 0, 49, 66
1, 164088, Note_on_c, 0, 37, 68
1, 164240, Note_off_c, 0, 37, 64
1, 164243, Note_off_c, 0, 49, 64
1, 164260, Control_c, 0, 64, 127
1, 164490, Note_on_c, 0, 58, 60
1, 164518, Note_on_c, 0, 53, 70
1, 164536, Note_off_c, 0, 58, 64
1, 164568, Note_off_c, 0, 53, 64
1, 164824, Note_off_c, 0, 65, 64
1, 164844, Control_c, 0, 64, 0
1, 164900, Note_on_c, 0, 48, 81
1, 164902, Note_on_c, 0, 67, 88
1, 164906, Note_on_c, 0, 36, 85
1, 164960, Note_off_c, 0, 67, 64
1, 164962, Note_off_c, 0, 36, 64
1, 164970, Note_on_c, 0, 68, 73
1, 164988, Note_off_c, 0, 48, 64
1, 164998, Control_c, 0, 64, 127
1, 165054, Note_off_c, 0, 68, 64
1, 165062, Note_on_c, 0, 67, 64
1, 165114, Note_off_c, 0, 67, 64
1, 165124, Note_on_c, 0, 68, 67
1, 165192, Note_on_c, 0, 67, 50
1, 165238, Note_off_c, 0, 68, 64
1, 165252, Note_on_c, 0, 60, 81
1, 165260, Note_on_c, 0, 58, 58
1, 165263, Note_on_c, 0, 52, 79
1, 165288, Note_on_c, 0, 65, 86
1, 165300, Note_off_c, 0, 67, 64
1, 165302, Note_off_c, 0, 60, 64
1, 165312, Note_off_c, 0, 52, 64
1, 165322, Note_off_c, 0, 58, 64
1, 165432, Note_off_c, 0, 65, 64
1, 165438, Note_on_c, 0, 67, 94
1, 165596, Control_c, 0, 64, 0
1, 165602, Note_on_c, 0, 68, 82
1, 165628, Note_off_c, 0, 67, 64
1, 165652, Note_on_c, 0, 41, 100
1, 165656, Note_on_c, 0, 29, 94
1, 165678, Note_on_c, 0, 70, 71
1, 165690, Note_off_c, 0, 41, 64
1, 165690, Note_off_c, 0, 29, 64
1, 165710, Note_off_c, 0, 68, 64
1, 165750, Control_c, 0, 64, 127
1, 165755, Note_off_c, 0, 70, 64
1, 165758, Note_on_c, 0, 68, 84
1, 165844, Note_on_c, 0, 70, 59
1, 165866, Note_off_c, 0, 68, 64
1, 165902, Note_on_c, 0, 68, 38
1, 165916, Note_off_c, 0, 70, 64
1, 165982, Note_on_c, 0, 70, 66
1, 166009, Note_off_c, 0, 68, 64
1, 166072, Note_on_c, 0, 68, 77
1, 166086, Note_on_c, 0, 60, 66
1, 166092, Note_on_c, 0, 56, 55
1, 166102, Note_on_c, 0, 53, 80
1, 166172, Note_off_c, 0, 60, 64
1, 166176, Note_off_c, 0, 70, 64
1, 166176, Note_on_c, 0, 67, 84
1, 166220, Note_off_c, 0, 53, 64
1, 166223, Note_off_c, 0, 68, 64
1, 166226, Note_off_c, 0, 56, 64
1, 166312, Note_off_c, 0, 67, 64
1, 166315, Note_on_c, 0, 68, 79
1, 166492, Note_on_c, 0, 39, 69
1, 166495, Note_on_c, 0, 51, 69
1, 166504, Control_c, 0, 64, 0
1, 166532, Note_on_c, 0, 69, 84
1, 166546, Note_on_c, 0, 67, 66
1, 166556, Note_off_c, 0, 68, 64
1, 166559, Note_on_c, 0, 61, 67
1, 166628, Note_off_c, 0, 39, 64
1, 166650, Note_off_c, 0, 51, 64
1, 166672, Control_c, 0, 64, 127
1, 166692, Note_off_c, 0, 61, 64
1, 166732, Note_on_c, 0, 70, 83
1, 166738, Note_off_c, 0, 67, 64
1, 166758, Note_off_c, 0, 69, 64
1, 166884, Note_off_c, 0, 70, 64
1, 166906, Note_on_c, 0, 72, 94
1, 166916, Note_on_c, 0, 67, 78
1, 166922, Note_on_c, 0, 61, 75
1, 166938, Note_on_c, 0, 51, 60
1, 166938, Note_on_c, 0, 58, 50
1, 167016, Note_off_c, 0, 58, 64
1, 167036, Note_off_c, 0, 67, 64
1, 167036, Note_off_c, 0, 61, 64
1, 167070, Note_off_c, 0, 51, 64
1, 167092, Note_on_c, 0, 73, 88
1, 167146, Note_off_c, 0, 72, 64
1, 167242, Note_off_c, 0, 73, 64
1, 167256, Control_c, 0, 64, 0
1, 167308, Note_on_c, 0, 56, 70
1, 167308, Note_on_c, 0, 44, 81
1, 167318, Note_on_c, 0, 72, 95
1, 167322, Note_on_c, 0, 68, 74
1, 167324, Note_on_c, 0, 51, 63
1, 167334, Note_on_c, 0, 60, 70
1, 167358, Note_off_c, 0, 44, 64
1, 167370, Note_off_c, 0, 51, 64
1, 167378, Note_off_c, 0, 56, 64
1, 167380, Note_off_c, 0, 68, 64
1, 167384, Note_off_c, 0, 60, 64
1, 167394, Control_c, 0, 64, 127
1, 167414, Note_off_c, 0, 72, 64
1, 167724, Note_on_c, 0, 77, 92
1, 167724, Note_on_c, 0, 68, 78
1, 167736, Note_on_c, 0, 62, 67
1, 167739, Note_on_c, 0, 65, 66
1, 167748, Note_on_c, 0, 59, 58
1, 167864, Note_off_c, 0, 59, 64
1, 167874, Note_off_c, 0, 62, 64
1, 167886, Note_off_c, 0, 65, 64
1, 167994, Note_off_c, 0, 77, 64
1, 168036, Note_off_c, 0, 68, 64
1, 168039, Note_on_c, 0, 63, 62
1, 168052, Note_on_c, 0, 60, 39
1, 168064, Note_on_c, 0, 75, 57
1, 168092, Note_off_c, 0, 63, 64
1, 168108, Note_off_c, 0, 75, 64
1, 168114, Note_off_c, 0, 60, 64
1, 168148, Note_on_c, 0, 75, 96
1, 168164, Control_c, 0, 64, 0
1, 168164, Note_on_c, 0, 63, 60
1, 168174, Note_on_c, 0, 60, 74
1, 168316, Control_c, 0, 64, 127
1, 168320, Note_off_c, 0, 60, 64
1, 168332, Note_off_c, 0, 63, 64
1, 168340, Note_on_c, 0, 68, 92
1, 168424, Note_off_c, 0, 75, 64
1, 168510, Note_on_c, 0, 56, 78
1, 168516, Note_on_c, 0, 80, 94
1, 168522, Note_on_c, 0, 44, 79
1, 168584, Note_off_c, 0, 56, 64
1, 168587, Note_off_c, 0, 44, 64
1, 168702, Note_off_c, 0, 68, 64
1, 168722, Note_off_c, 0, 80, 64
1, 168826, Note_on_c, 0, 79, 84
1, 168828, Note_on_c, 0, 67, 83
1, 168866, Note_off_c, 0, 79, 64
1, 168870, Note_off_c, 0, 67, 64
1, 168932, Control_c, 0, 64, 0
1, 168942, Note_on_c, 0, 77, 97
1, 168945, Note_on_c, 0, 65, 91
1, 168945, Note_on_c, 0, 49, 83
1, 168960, Note_on_c, 0, 37, 73
1, 169156, Note_off_c, 0, 37, 64
1, 169162, Control_c, 0, 64, 127
1, 169172, Note_off_c, 0, 49, 64
1, 169320, Note_on_c, 0, 58, 61
1, 169325, Note_on_c, 0, 53, 90
1, 169414, Note_off_c, 0, 58, 64
1, 169424, Note_off_c, 0, 53, 64
1, 169566, Note_off_c, 0, 65, 64
1, 169654, Control_c, 0, 64, 0
1, 169702, Note_on_c, 0, 67, 92
1, 169704, Note_on_c, 0, 48, 91
1, 169716, Note_on_c, 0, 36, 90
1, 169756, Note_off_c, 0, 77, 64
1, 169756, Note_off_c, 0, 36, 64
1, 169768, Note_off_c, 0, 67, 64
1, 169792, Control_c, 0, 64, 127
1, 169814, Note_off_c, 0, 48, 64
1, 169892, Note_on_c, 0, 79, 82
1, 169938, Note_off_c, 0, 79, 64
1, 169960, Note_on_c, 0, 80, 68
1, 170016, Note_on_c, 0, 79, 76
1, 170064, Note_off_c, 0, 79, 64
1, 170074, Note_off_c, 0, 80, 64
1, 170146, Note_on_c, 0, 64, 84
1, 170150, Note_on_c, 0, 58, 60
1, 170164, Note_on_c, 0, 60, 53
1, 170180, Note_on_c, 0, 65, 75
1, 170182, Note_off_c, 0, 64, 64
1, 170186, Note_on_c, 0, 77, 80
1, 170214, Note_off_c, 0, 60, 64
1, 170220, Note_off_c, 0, 65, 64
1, 170260, Note_off_c, 0, 77, 64
1, 170263, Note_off_c, 0, 58, 64
1, 170340, Note_on_c, 0, 67, 92
1, 170340, Note_on_c, 0, 79, 98
1, 170412, Note_off_c, 0, 79, 64
1, 170426, Note_off_c, 0, 67, 64
1, 170500, Control_c, 0, 64, 0
1, 170512, Note_on_c, 0, 68, 92
1, 170548, Note_on_c, 0, 29, 98
1, 170548, Note_on_c, 0, 41, 89
1, 170582, Note_off_c, 0, 29, 64
1, 170592, Note_off_c, 0, 41, 64
1, 170652, Control_c, 0, 64, 127
1, 170660, Note_off_c, 0, 68, 64
1, 170668, Note_on_c, 0, 80, 74
1, 170726, Note_off_c, 0, 80, 64
1, 170730, Note_on_c, 0, 82, 64
1, 170800, Note_on_c, 0, 80, 72
1, 170862, Note_off_c, 0, 82, 64
1, 170892, Note_off_c, 0, 80, 64
1, 170916, Note_on_c, 0, 65, 76
1, 170924, Note_on_c, 0, 56, 68
1, 170927, Note_on_c, 0, 79, 94
1, 170930, Note_on_c, 0, 67, 79
1, 170932, Note_on_c, 0, 60, 60
1, 170974, Note_off_c, 0, 67, 64
1, 170978, Note_off_c, 0, 65, 64
1, 170982, Note_off_c, 0, 79, 64
1, 171018, Note_off_c, 0, 60, 64
1, 171090, Note_off_c, 0, 56, 64
1, 171104, Note_on_c, 0, 80, 92
1, 171104, Note_on_c, 0, 68, 90
1, 171198, Note_off_c, 0, 80, 64
1, 171218, Note_off_c, 0, 68, 64
1, 171252, Control_c, 0, 64, 0
1, 171290, Note_on_c, 0, 81, 98
1, 171290, Note_on_c, 0, 69, 88
1, 171294, Note_on_c, 0, 51, 97
1, 171298, Note_on_c, 0, 39, 95
1, 171302, Note_on_c, 0, 75, 62
1, 171374, Note_off_c, 0, 81, 64
1, 171390, Control_c, 0, 64, 127
1, 171398, Note_off_c, 0, 69, 64
1, 171408, Note_off_c, 0, 51, 64
1, 171408, Note_off_c, 0, 39, 64
1, 171430, Note_off_c, 0, 75, 64
1, 171476, Note_on_c, 0, 82, 87
1, 171476, Note_on_c, 0, 70, 83
1, 171560, Note_off_c, 0, 82, 64
1, 171564, Note_off_c, 0, 70, 64
1, 171652, Note_on_c, 0, 79, 88
1, 171652, Note_on_c, 0, 84, 100
1, 171658, Note_on_c, 0, 72, 91
1, 171660, Note_on_c, 0, 67, 91
1, 171662, Note_on_c, 0, 58, 70
1, 171668, Note_on_c, 0, 63, 73
1, 171690, Note_on_c, 0, 61, 53
1, 171708, Note_off_c, 0, 67, 64
1, 171718, Note_off_c, 0, 63, 64
1, 171728, Note_off_c, 0, 72, 64
1, 171732, Note_off_c, 0, 84, 64
1, 171754, Note_off_c, 0, 61, 64
1, 171800, Note_off_c, 0, 58, 64
1, 171804, Note_off_c, 0, 79, 64
1, 171830, Note_on_c, 0, 73, 93
1, 171830, Note_on_c, 0, 85, 95
1, 171932, Note_off_c, 0, 73, 64
1, 171946, Note_off_c, 0, 85, 64
1, 171958, Control_c, 0, 64, 0
1, 172004, Note_on_c, 0, 68, 95
1, 172004, Note_on_c, 0, 72, 108
1, 172004, Note_on_c, 0, 84, 106
1, 172010, Note_on_c, 0, 56, 86
1, 172010, Note_on_c, 0, 80, 79
1, 172020, Note_on_c, 0, 63, 79
1, 172062, Note_off_c, 0, 56, 64
1, 172065, Note_off_c, 0, 63, 64
1, 172096, Control_c, 0, 64, 127
1, 172098, Note_off_c, 0, 72, 64
1, 172122, Note_off_c, 0, 68, 64
1, 172124, Note_off_c, 0, 80, 64
1, 172142, Note_off_c, 0, 84, 64
1, 172314, Note_on_c, 0, 85, 4
1, 172362, Note_off_c, 0, 85, 64
1, 172374, Note_on_c, 0, 89, 103
1, 172376, Note_on_c, 0, 71, 97
1, 172376, Note_on_c, 0, 80, 87
1, 172378, Note_on_c, 0, 77, 97
1, 172384, Note_on_c, 0, 68, 71
1, 172394, Note_on_c, 0, 62, 65
1, 172397, Note_on_c, 0, 59, 73
1, 172512, Note_off_c, 0, 89, 64
1, 172514, Note_off_c, 0, 77, 64
1, 172584, Note_off_c, 0, 80, 64
1, 172592, Note_off_c, 0, 59, 64
1, 172616, Note_off_c, 0, 68, 64
1, 172622, Note_off_c, 0, 62, 64
1, 172674, Note_on_c, 0, 87, 73
1, 172679, Note_on_c, 0, 75, 84
1, 172682, Note_off_c, 0, 71, 64
1, 172710, Note_off_c, 0, 87, 64
1, 172718, Note_off_c, 0, 75, 64
1, 172780, Note_on_c, 0, 87, 70
1, 172783, Note_on_c, 0, 75, 83
1, 172787, Control_c, 0, 64, 0
1, 172792, Note_on_c, 0, 80, 91
1, 172794, Note_on_c, 0, 72, 100
1, 172802, Note_on_c, 0, 63, 81
1, 172807, Note_on_c, 0, 68, 70
1, 172816, Note_on_c, 0, 60, 64
1, 172890, Note_off_c, 0, 72, 64
1, 172942, Note_off_c, 0, 68, 64
1, 172942, Control_c, 0, 64, 127
1, 172952, Note_off_c, 0, 75, 64
1, 172952, Note_off_c, 0, 63, 64
1, 172955, Note_off_c, 0, 87, 64
1, 172955, Note_off_c, 0, 60, 64
1, 172972, Note_off_c, 0, 80, 64
1, 173042, Note_on_c, 0, 75, 68
1, 173044, Note_on_c, 0, 87, 60
1, 173074, Note_on_c, 0, 53, 90
1, 173088, Note_off_c, 0, 87, 64
1, 173108, Note_off_c, 0, 75, 64
1, 173111, Note_off_c, 0, 53, 64
1, 173162, Note_on_c, 0, 85, 91
1, 173165, Note_on_c, 0, 73, 95
1, 173170, Note_on_c, 0, 81, 87
1, 173174, Note_on_c, 0, 69, 84
1, 173182, Note_on_c, 0, 63, 90
1, 173232, Note_off_c, 0, 69, 64
1, 173276, Note_off_c, 0, 63, 64
1, 173294, Note_off_c, 0, 81, 64
1, 173336, Note_off_c, 0, 73, 64
1, 173342, Note_off_c, 0, 85, 64
1, 173426, Note_on_c, 0, 72, 91
1, 173432, Note_on_c, 0, 84, 84
1, 173434, Note_on_c, 0, 46, 81
1, 173460, Note_off_c, 0, 72, 64
1, 173466, Note_off_c, 0, 84, 64
1, 173480, Control_c, 0, 64, 0
1, 173488, Note_on_c, 0, 53, 80
1, 173538, Note_on_c, 0, 70, 97
1, 173538, Note_on_c, 0, 82, 92
1, 173550, Note_on_c, 0, 61, 95
1, 173560, Note_off_c, 0, 46, 64
1, 173610, Note_off_c, 0, 53, 64
1, 173632, Control_c, 0, 64, 127
1, 173706, Note_off_c, 0, 61, 64
1, 173746, Note_off_c, 0, 70, 64
1, 173778, Note_off_c, 0, 82, 64
1, 173834, Note_on_c, 0, 51, 75
1, 173872, Note_on_c, 0, 58, 58
1, 173880, Control_c, 0, 64, 0
1, 173912, Note_off_c, 0, 51, 64
1, 173920, Note_on_c, 0, 82, 87
1, 173920, Note_on_c, 0, 70, 92
1, 173923, Note_on_c, 0, 78, 85
1, 173942, Note_on_c, 0, 66, 85
1, 174032, Control_c, 0, 64, 127
1, 174068, Note_off_c, 0, 66, 64
1, 174078, Note_off_c, 0, 70, 64
1, 174088, Note_off_c, 0, 78, 64
1, 174092, Note_off_c, 0, 82, 64
1, 174110, Note_off_c, 0, 58, 64
1, 174192, Note_on_c, 0, 72, 80
1, 174202, Note_on_c, 0, 46, 84
1, 174208, Note_on_c, 0, 84, 56
1, 174230, Note_off_c, 0, 72, 64
1, 174256, Note_off_c, 0, 84, 64
1, 174262, Note_off_c, 0, 46, 64
1, 174286, Note_on_c, 0, 53, 82
1, 174292, Note_on_c, 0, 85, 95
1, 174298, Note_on_c, 0, 77, 87
1, 174304, Note_on_c, 0, 73, 84
1, 174308, Note_on_c, 0, 61, 99
1, 174446, Note_off_c, 0, 61, 64
1, 174480, Note_off_c, 0, 53, 64
1, 174530, Note_off_c, 0, 77, 64
1, 174586, Note_off_c, 0, 73, 64
1, 174590, Note_on_c, 0, 39, 85
1, 174602, Note_off_c, 0, 85, 64
1, 174662, Control_c, 0, 64, 0
1, 174680, Note_on_c, 0, 85, 81
1, 174682, Note_on_c, 0, 46, 30
1, 174684, Note_on_c, 0, 73, 84
1, 174690, Note_on_c, 0, 78, 83
1, 174700, Note_on_c, 0, 75, 81
1, 174710, Note_off_c, 0, 39, 64
1, 174710, Note_on_c, 0, 54, 103
1, 174816, Control_c, 0, 64, 127
1, 174828, Note_off_c, 0, 75, 64
1, 174834, Note_off_c, 0, 54, 64
1, 174882, Note_off_c, 0, 78, 64
1, 174890, Note_off_c, 0, 46, 64
1, 174898, Note_off_c, 0, 85, 64
1, 174910, Note_off_c, 0, 73, 64
1, 174982, Note_on_c, 0, 84, 81
1, 174986, Note_on_c, 0, 34, 92
1, 174995, Note_on_c, 0, 72, 47
1, 175018, Note_off_c, 0, 84, 64
1, 175056, Note_off_c, 0, 72, 64
1, 175070, Note_on_c, 0, 41, 32
1, 175092, Note_on_c, 0, 70, 97
1, 175094, Note_on_c, 0, 82, 90
1, 175094, Note_on_c, 0, 77, 81
1, 175102, Note_on_c, 0, 49, 95
1, 175106, Note_off_c, 0, 34, 64
1, 175108, Control_c, 0, 64, 0
1, 175180, Note_off_c, 0, 41, 64
1, 175262, Control_c, 0, 64, 127
1, 175310, Note_off_c, 0, 77, 64
1, 175314, Note_off_c, 0, 49, 64
1, 175322, Note_off_c, 0, 70, 64
1, 175340, Note_off_c, 0, 82, 64
1, 175440, Note_on_c, 0, 39, 77
1, 175500, Note_on_c, 0, 46, 72
1, 175544, Note_on_c, 0, 80, 97
1, 175550, Note_on_c, 0, 70, 71
1, 175552, Note_on_c, 0, 68, 86
1, 175554, Control_c, 0, 64, 0
1, 175564, Note_on_c, 0, 75, 70
1, 175606, Note_on_c, 0, 54, 97
1, 175608, Note_off_c, 0, 39, 64
1, 175708, Control_c, 0, 64, 127
1, 175722, Note_off_c, 0, 46, 64
1, 175732, Note_off_c, 0, 54, 64
1, 175754, Note_off_c, 0, 70, 64
1, 175782, Note_off_c, 0, 68, 64
1, 175794, Note_off_c, 0, 80, 64
1, 175812, Note_off_c, 0, 75, 64
1, 175942, Note_on_c, 0, 66, 81
1, 175942, Note_on_c, 0, 78, 86
1, 175966, Note_on_c, 0, 46, 79
1, 175984, Control_c, 0, 64, 0
1, 176002, Note_off_c, 0, 78, 64
1, 176006, Note_off_c, 0, 66, 64
1, 176062, Note_on_c, 0, 53, 103
1, 176094, Note_on_c, 0, 77, 101
1, 176098, Note_on_c, 0, 73, 81
1, 176098, Note_on_c, 0, 65, 102
1, 176142, Note_off_c, 0, 46, 64
1, 176150, Note_on_c, 0, 61, 104
1, 176152, Control_c, 0, 64, 127
1, 176164, Note_off_c, 0, 77, 64
1, 176182, Note_off_c, 0, 53, 64
1, 176186, Note_off_c, 0, 65, 64
1, 176236, Note_off_c, 0, 73, 64
1, 176246, Note_off_c, 0, 61, 64
1, 176602, Note_on_c, 0, 33, 69
1, 176605, Note_on_c, 0, 45, 94
1, 176666, Note_off_c, 0, 33, 64
1, 176668, Note_on_c, 0, 34, 60
1, 176684, Note_on_c, 0, 46, 66
1, 176687, Note_off_c, 0, 45, 64
1, 176718, Note_off_c, 0, 34, 64
1, 176721, Note_on_c, 0, 36, 79
1, 176740, Note_off_c, 0, 46, 64
1, 176764, Note_on_c, 0, 48, 64
1, 176800, Note_on_c, 0, 37, 84
1, 176812, Note_off_c, 0, 48, 64
1, 176820, Note_off_c, 0, 36, 64
1, 176830, Note_on_c, 0, 49, 78
1, 176860, Note_on_c, 0, 39, 64
1, 176890, Note_on_c, 0, 51, 76
1, 176926, Note_off_c, 0, 51, 64
1, 176932, Note_on_c, 0, 41, 78
1, 176934, Note_off_c, 0, 49, 64
1, 176960, Note_off_c, 0, 37, 64
1, 176968, Note_on_c, 0, 53, 93
1, 176974, Note_off_c, 0, 41, 64
1, 176982, Note_off_c, 0, 39, 64
1, 176992, Note_on_c, 0, 43, 78
1, 177018, Note_off_c, 0, 53, 64
1, 177020, Note_on_c, 0, 55, 91
1, 177048, Note_off_c, 0, 43, 64
1, 177074, Note_on_c, 0, 45, 81
1, 177092, Note_on_c, 0, 57, 79
1, 177126, Note_off_c, 0, 55, 64
1, 177152, Note_on_c, 0, 46, 79
1, 177155, Note_on_c, 0, 58, 75
1, 177190, Note_off_c, 0, 57, 64
1, 177194, Note_off_c, 0, 45, 64
1, 177200, Note_off_c, 0, 58, 64
1, 177222, Note_on_c, 0, 48, 78
1, 177228, Note_off_c, 0, 46, 64
1, 177238, Note_on_c, 0, 60, 82
1, 177288, Note_off_c, 0, 48, 64
1, 177288, Note_on_c, 0, 61, 91
1, 177298, Note_on_c, 0, 49, 81
1, 177314, Note_off_c, 0, 60, 64
1, 177348, Note_on_c, 0, 51, 79
1, 177366, Note_on_c, 0, 63, 76
1, 177378, Note_off_c, 0, 61, 64
1, 177400, Note_off_c, 0, 63, 64
1, 177404, Note_on_c, 0, 53, 103
1, 177437, Note_off_c, 0, 53, 64
1, 177450, Note_on_c, 0, 65, 65
1, 177456, Note_off_c, 0, 49, 64
1, 177466, Note_off_c, 0, 51, 64
1, 177466, Note_on_c, 0, 55, 94
1, 177490, Note_on_c, 0, 67, 82
1, 177493, Note_off_c, 0, 65, 64
1, 177514, Note_off_c, 0, 55, 64
1, 177548, Note_on_c, 0, 57, 80
1, 177554, Note_on_c, 0, 69, 71
1, 177588, Note_off_c, 0, 67, 64
1, 177606, Note_on_c, 0, 70, 75
1, 177622, Note_on_c, 0, 58, 75
1, 177638, Note_off_c, 0, 70, 64
1, 177644, Note_off_c, 0, 57, 64
1, 177660, Note_off_c, 0, 69, 64
1, 177660, Note_off_c, 0, 58, 64
1, 177686, Note_on_c, 0, 72, 88
1, 177692, Note_on_c, 0, 60, 79
1, 177738, Note_off_c, 0, 60, 64
1, 177741, Note_on_c, 0, 73, 80
1, 177745, Note_off_c, 0, 72, 64
1, 177766, Note_on_c, 0, 61, 90
1, 177804, Note_on_c, 0, 75, 84
1, 177814, Note_on_c, 0, 63, 65
1, 177824, Note_off_c, 0, 73, 64
1, 177836, Note_off_c, 0, 75, 64
1, 177844, Note_on_c, 0, 64, 78
1, 177860, Note_off_c, 0, 63, 64
1, 177870, Note_on_c, 0, 65, 79
1, 177882, Note_off_c, 0, 61, 64
1, 177885, Note_off_c, 0, 64, 64
1, 177888, Note_on_c, 0, 77, 86
1, 177924, Note_on_c, 0, 67, 88
1, 177930, Note_off_c, 0, 65, 64
1, 177940, Note_off_c, 0, 77, 64
1, 177946, Note_on_c, 0, 79, 94
1, 177988, Note_off_c, 0, 67, 64
1, 178006, Note_on_c, 0, 69, 77
1, 178016, Note_on_c, 0, 81, 70
1, 178044, Note_off_c, 0, 79, 64
1, 178054, Note_on_c, 0, 82, 78
1, 178068, Note_off_c, 0, 81, 64
1, 178076, Note_on_c, 0, 70, 82
1, 178086, Note_off_c, 0, 82, 64
1, 178118, Note_off_c, 0, 69, 64
1, 178130, Note_off_c, 0, 70, 64
1, 178140, Note_on_c, 0, 72, 74
1, 178142, Note_on_c, 0, 84, 94
1, 178188, Note_off_c, 0, 72, 64
1, 178190, Note_on_c, 0, 85, 82
1, 178222, Note_off_c, 0, 84, 64
1, 178222, Note_on_c, 0, 73, 79
1, 178258, Note_on_c, 0, 87, 76
1, 178261, Note_on_c, 0, 75, 66
1, 178290, Note_off_c, 0, 87, 64
1, 178298, Note_off_c, 0, 85, 64
1, 178330, Note_on_c, 0, 89, 87
1, 178354, Note_on_c, 0, 77, 34
1, 178358, Note_off_c, 0, 75, 64
1, 178360, Note_off_c, 0, 73, 64
1, 178410, Note_on_c, 0, 91, 83
1, 178412, Note_off_c, 0, 77, 64
1, 178412, Note_on_c, 0, 79, 5
1, 178452, Note_off_c, 0, 89, 64
1, 178470, Note_off_c, 0, 79, 64
1, 178470, Note_on_c, 0, 81, 75
1, 178476, Note_on_c, 0, 93, 55
1, 178506, Note_off_c, 0, 81, 64
1, 178530, Note_off_c, 0, 91, 64
1, 178532, Note_on_c, 0, 94, 97
1, 178550, Note_on_c, 0, 82, 106
1, 178624, Note_off_c, 0, 82, 64
1, 178640, Note_off_c, 0, 93, 64
1, 178746, Note_off_c, 0, 94, 64
1, 178980, Control_c, 0, 64, 0
1, 179022, Note_on_c, 0, 96, 98
1, 179028, Note_on_c, 0, 85, 98
1, 179034, Note_on_c, 0, 94, 86
1, 179036, Note_on_c, 0, 91, 92
1, 179044, Note_on_c, 0, 39, 106
1, 179050, Note_on_c, 0, 27, 101
1, 179094, Note_off_c, 0, 27, 64
1, 179130, Note_off_c, 0, 39, 64
1, 179150, Control_c, 0, 64, 127
1, 179162, Note_off_c, 0, 96, 64
1, 179172, Note_off_c, 0, 91, 64
1, 179188, Note_off_c, 0, 85, 64
1, 179222, Note_off_c, 0, 94, 64
1, 179242, Note_on_c, 0, 93, 99
1, 179250, Note_on_c, 0, 84, 94
1, 179252, Note_on_c, 0, 90, 82
1, 179374, Note_off_c, 0, 84, 64
1, 179414, Note_off_c, 0, 90, 64
1, 179490, Note_off_c, 0, 93, 64
1, 179516, Note_on_c, 0, 94, 83
1, 179520, Note_on_c, 0, 85, 101
1, 179528, Note_on_c, 0, 91, 85
1, 179536, Note_on_c, 0, 63, 103
1, 179542, Note_on_c, 0, 51, 98
1, 179576, Note_off_c, 0, 63, 64
1, 179594, Note_off_c, 0, 51, 64
1, 179704, Note_off_c, 0, 85, 64
1, 179706, Note_off_c, 0, 94, 64
1, 179712, Note_off_c, 0, 91, 64
1, 179928, Note_on_c, 0, 96, 103
1, 179932, Note_on_c, 0, 84, 105
1, 179934, Note_on_c, 0, 91, 96
1, 179934, Control_c, 0, 64, 0
1, 179936, Note_on_c, 0, 75, 92
1, 179952, Note_on_c, 0, 72, 70
1, 179954, Note_on_c, 0, 63, 72
1, 179956, Note_on_c, 0, 67, 69
1, 180040, Control_c, 0, 64, 127
1, 180058, Note_off_c, 0, 96, 64
1, 180098, Note_off_c, 0, 67, 64
1, 180100, Note_off_c, 0, 91, 64
1, 180108, Note_off_c, 0, 84, 64
1, 180120, Note_off_c, 0, 63, 64
1, 180128, Note_off_c, 0, 72, 64
1, 180174, Note_off_c, 0, 75, 64
1, 180302, Control_c, 0, 64, 0
1, 180336, Note_on_c, 0, 92, 96
1, 180339, Note_on_c, 0, 80, 101
1, 180339, Note_on_c, 0, 77, 94
1, 180342, Note_on_c, 0, 84, 100
1, 180350, Note_on_c, 0, 65, 69
1, 180352, Note_on_c, 0, 68, 65
1, 180360, Note_on_c, 0, 72, 68
1, 180456, Control_c, 0, 64, 127
1, 180480, Note_off_c, 0, 77, 64
1, 180486, Note_off_c, 0, 92, 64
1, 180508, Note_off_c, 0, 84, 64
1, 180522, Note_off_c, 0, 72, 64
1, 180530, Note_off_c, 0, 80, 64
1, 180530, Note_off_c, 0, 65, 64
1, 180544, Note_off_c, 0, 68, 64
1, 180726, Note_on_c, 0, 87, 86
1, 180726, Note_on_c, 0, 75, 93
1, 180729, Note_on_c, 0, 80, 82
1, 180729, Note_on_c, 0, 72, 91
1, 180732, Note_on_c, 0, 68, 75
1, 180738, Note_on_c, 0, 60, 78
1, 180898, Note_off_c, 0, 75, 64
1, 180901, Note_off_c, 0, 72, 64
1, 180908, Note_off_c, 0, 60, 64
1, 180928, Note_off_c, 0, 80, 64
1, 180938, Note_off_c, 0, 68, 64
1, 180972, Note_off_c, 0, 87, 64
1, 181070, Control_c, 0, 64, 0
1, 181108, Note_on_c, 0, 77, 100
1, 181112, Note_on_c, 0, 89, 94
1, 181112, Note_on_c, 0, 80, 92
1, 181115, Note_on_c, 0, 73, 90
1, 181124, Note_on_c, 0, 61, 76
1, 181130, Note_on_c, 0, 68, 74
1, 181158, Note_off_c, 0, 73, 64
1, 181172, Note_off_c, 0, 89, 64
1, 181186, Note_off_c, 0, 68, 64
1, 181189, Note_off_c, 0, 77, 64
1, 181208, Control_c, 0, 64, 127
1, 181214, Note_off_c, 0, 80, 64
1, 181256, Note_off_c, 0, 61, 64
1, 181578, Note_on_c, 0, 63, 100
1, 181590, Note_on_c, 0, 51, 88
1, 181590, Note_on_c, 0, 61, 85
1, 181596, Note_on_c, 0, 55, 94
1, 181596, Note_on_c, 0, 39, 82
1, 181599, Note_on_c, 0, 46, 73
1, 181638, Control_c, 0, 64, 0
1, 181800, Note_off_c, 0, 55, 64
1, 181868, Note_off_c, 0, 61, 64
1, 181898, Control_c, 0, 64, 127
1, 181922, Note_off_c, 0, 63, 64
1, 181942, Note_on_c, 0, 55, 81
1, 181988, Note_on_c, 0, 61, 55
1, 182036, Note_off_c, 0, 51, 64
1, 182039, Note_off_c, 0, 55, 64
1, 182080, Note_on_c, 0, 63, 73
1, 182100, Note_off_c, 0, 46, 64
1, 182142, Note_off_c, 0, 39, 64
1, 182212, Note_on_c, 0, 70, 91
1, 182714, Note_on_c, 0, 27, 94
1, 182716, Note_on_c, 0, 39, 90
1, 183090, Note_off_c, 0, 70, 64
1, 183148, Note_off_c, 0, 61, 64
1, 183190, Note_off_c, 0, 27, 64
1, 183218, Note_off_c, 0, 39, 64
1, 183326, Note_on_c, 0, 68, 84
1, 183328, Note_on_c, 0, 56, 89
1, 183334, Note_on_c, 0, 44, 78
1, 183336, Note_on_c, 0, 60, 87
1, 183346, Note_on_c, 0, 32, 67
1, 183436, Control_c, 0, 64, 0
1, 183906, Note_off_c, 0, 63, 64
1, 184036, Control_c, 0, 64, 127
1, 184062, Note_off_c, 0, 56, 64
1, 184074, Note_off_c, 0, 32, 64
1, 184106, Note_off_c, 0, 44, 64
1, 184128, Note_off_c, 0, 60, 64
1, 184134, Note_off_c, 0, 68, 64
1, 184664, Control_c, 0, 64, 0
1, 185486, Note_on_c, 0, 40, 93
1, 185514, Note_on_c, 0, 47, 81
1, 185540, Note_on_c, 0, 56, 89
1, 185543, Note_on_c, 0, 52, 110
1, 185558, Note_on_c, 0, 59, 96
1, 185566, Note_on_c, 0, 68, 92
1, 185569, Note_off_c, 0, 40, 64
1, 185569, Control_c, 0, 64, 127
1, 185573, Note_on_c, 0, 64, 92
1, 185586, Note_off_c, 0, 52, 64
1, 185608, Note_off_c, 0, 47, 64
1, 185672, Note_off_c, 0, 56, 64
1, 185766, Note_off_c, 0, 59, 64
1, 185908, Note_off_c, 0, 64, 64
1, 186066, Note_off_c, 0, 68, 64
1, 186294, Note_on_c, 0, 40, 73
1, 186304, Note_on_c, 0, 47, 86
1, 186304, Note_on_c, 0, 56, 93
1, 186312, Note_on_c, 0, 68, 90
1, 186316, Note_on_c, 0, 59, 85
1, 186320, Note_on_c, 0, 52, 105
1, 186322, Note_on_c, 0, 64, 84
1, 186378, Note_off_c, 0, 40, 64
1, 186398, Note_off_c, 0, 47, 64
1, 186410, Note_off_c, 0, 52, 64
1, 186414, Note_off_c, 0, 56, 64
1, 186470, Note_off_c, 0, 59, 64
1, 186610, Note_off_c, 0, 64, 64
1, 186754, Note_off_c, 0, 68, 64
1, 186992, Note_on_c, 0, 40, 94
1, 187016, Control_c, 0, 64, 0
1, 187018, Note_on_c, 0, 47, 82
1, 187022, Note_on_c, 0, 56, 92
1, 187030, Note_on_c, 0, 68, 93
1, 187034, Note_off_c, 0, 40, 64
1, 187034, Note_on_c, 0, 52, 107
1, 187042, Note_on_c, 0, 59, 85
1, 187045, Note_on_c, 0, 64, 88
1, 187104, Note_off_c, 0, 47, 64
1, 187107, Control_c, 0, 64, 127
1, 187128, Note_off_c, 0, 56, 64
1, 187134, Note_off_c, 0, 52, 64
1, 187170, Note_off_c, 0, 59, 64
1, 187290, Note_off_c, 0, 64, 64
1, 187412, Note_off_c, 0, 68, 64
1, 187646, Control_c, 0, 64, 0
1, 187668, Note_on_c, 0, 40, 87
1, 187716, Note_on_c, 0, 47, 88
1, 187722, Note_on_c, 0, 56, 84
1, 187736, Note_on_c, 0, 68, 88
1, 187744, Note_on_c, 0, 59, 80
1, 187748, Note_off_c, 0, 40, 64
1, 187748, Note_on_c, 0, 52, 95
1, 187748, Note_on_c, 0, 64, 85
1, 187784, Control_c, 0, 64, 127
1, 187788, Note_off_c, 0, 52, 64
1, 187810, Note_off_c, 0, 47, 64
1, 187812, Note_off_c, 0, 56, 64
1, 187856, Note_off_c, 0, 59, 64
1, 187946, Note_off_c, 0, 64, 64
1, 188140, Note_off_c, 0, 68, 64
1, 188306, Control_c, 0, 64, 0
1, 188328, Note_on_c, 0, 40, 94
1, 188354, Note_on_c, 0, 56, 62
1, 188362, Note_on_c, 0, 47, 76
1, 188378, Note_off_c, 0, 40, 64
1, 188398, Note_off_c, 0, 56, 64
1, 188398, Note_on_c, 0, 59, 69
1, 188398, Note_on_c, 0, 52, 94
1, 188401, Note_on_c, 0, 68, 85
1, 188408, Note_on_c, 0, 64, 75
1, 188442, Note_off_c, 0, 47, 64
1, 188445, Note_off_c, 0, 59, 64
1, 188445, Control_c, 0, 64, 127
1, 188454, Note_off_c, 0, 52, 64
1, 188512, Note_off_c, 0, 64, 64
1, 188762, Note_off_c, 0, 68, 64
1, 188988, Note_on_c, 0, 40, 84
1, 188998, Control_c, 0, 64, 0
1, 189014, Note_on_c, 0, 56, 63
1, 189028, Note_on_c, 0, 47, 67
1, 189032, Note_off_c, 0, 40, 64
1, 189052, Note_on_c, 0, 52, 95
1, 189056, Note_off_c, 0, 56, 64
1, 189072, Note_on_c, 0, 59, 39
1, 189072, Note_on_c, 0, 68, 90
1, 189075, Note_on_c, 0, 64, 79
1, 189082, Note_off_c, 0, 47, 64
1, 189090, Control_c, 0, 64, 127
1, 189102, Note_off_c, 0, 52, 64
1, 189121, Note_off_c, 0, 64, 64
1, 189128, Note_off_c, 0, 59, 64
1, 189192, Note_off_c, 0, 68, 64
1, 189534, Note_on_c, 0, 56, 62
1, 189562, Note_on_c, 0, 40, 81
1, 189602, Note_off_c, 0, 56, 64
1, 189606, Note_on_c, 0, 59, 55
1, 189610, Note_on_c, 0, 47, 67
1, 189612, Control_c, 0, 64, 0
1, 189650, Note_on_c, 0, 68, 93
1, 189658, Note_off_c, 0, 59, 64
1, 189658, Note_on_c, 0, 64, 69
1, 189664, Note_on_c, 0, 52, 100
1, 189674, Control_c, 0, 64, 127
1, 189684, Note_off_c, 0, 40, 64
1, 189686, Note_off_c, 0, 68, 64
1, 189698, Note_off_c, 0, 47, 64
1, 189700, Note_off_c, 0, 64, 64
1, 189706, Note_off_c, 0, 52, 64
1, 189846, Note_on_c, 0, 51, 75
1, 189854, Note_on_c, 0, 39, 74
1, 189904, Note_off_c, 0, 51, 64
1, 189918, Note_off_c, 0, 39, 64
1, 189972, Note_on_c, 0, 49, 66
1, 189978, Note_on_c, 0, 37, 68
1, 190020, Note_off_c, 0, 49, 64
1, 190056, Note_off_c, 0, 37, 64
1, 190108, Note_on_c, 0, 35, 81
1, 190126, Note_on_c, 0, 47, 64
1, 190158, Note_off_c, 0, 35, 64
1, 190172, Note_off_c, 0, 47, 64
1, 190196, Control_c, 0, 64, 0
1, 190264, Note_on_c, 0, 40, 97
1, 190268, Note_on_c, 0, 52, 81
1, 190312, Note_off_c, 0, 52, 64
1, 190346, Note_off_c, 0, 40, 64
1, 190396, Note_on_c, 0, 51, 70
1, 190402, Note_on_c, 0, 39, 70
1, 190458, Note_off_c, 0, 39, 64
1, 190474, Note_off_c, 0, 51, 64
1, 190546, Note_on_c, 0, 37, 72
1, 190562, Note_on_c, 0, 49, 44
1, 190594, Note_off_c, 0, 37, 64
1, 190620, Note_off_c, 0, 49, 64
1, 190684, Note_on_c, 0, 47, 53
1, 190686, Note_on_c, 0, 35, 84
1, 190736, Note_off_c, 0, 35, 64
1, 190742, Note_off_c, 0, 47, 64
1, 190828, Note_on_c, 0, 40, 91
1, 190828, Note_on_c, 0, 52, 68
1, 190878, Note_off_c, 0, 40, 64
1, 190880, Note_off_c, 0, 52, 64
1, 190960, Note_on_c, 0, 39, 58
1, 190962, Note_on_c, 0, 51, 49
1, 191030, Note_off_c, 0, 39, 64
1, 191030, Note_off_c, 0, 51, 64
1, 191102, Note_on_c, 0, 49, 52
1, 191102, Note_on_c, 0, 37, 60
1, 191152, Note_off_c, 0, 37, 64
1, 191166, Note_off_c, 0, 49, 64
1, 191246, Note_on_c, 0, 47, 53
1, 191256, Note_on_c, 0, 35, 56
1, 191304, Note_off_c, 0, 35, 64
1, 191307, Note_off_c, 0, 47, 64
1, 191392, Note_on_c, 0, 40, 69
1, 191398, Note_on_c, 0, 52, 65
1, 191444, Note_off_c, 0, 40, 64
1, 191458, Note_off_c, 0, 52, 64
1, 191520, Note_on_c, 0, 39, 57
1, 191528, Note_on_c, 0, 51, 51
1, 191586, Note_off_c, 0, 39, 64
1, 191602, Note_off_c, 0, 51, 64
1, 191674, Note_on_c, 0, 37, 52
1, 191674, Note_on_c, 0, 49, 34
1, 191726, Note_off_c, 0, 37, 64
1, 191752, Note_off_c, 0, 49, 64
1, 191808, Note_on_c, 0, 47, 40
1, 191810, Note_on_c, 0, 35, 50
1, 191858, Note_off_c, 0, 35, 64
1, 191868, Note_off_c, 0, 47, 64
1, 191948, Note_on_c, 0, 52, 60
1, 191951, Note_on_c, 0, 40, 59
1, 192004, Note_off_c, 0, 52, 64
1, 192006, Note_off_c, 0, 40, 64
1, 192080, Note_on_c, 0, 39, 43
1, 192084, Note_on_c, 0, 51, 42
1, 192142, Note_off_c, 0, 39, 64
1, 192152, Note_off_c, 0, 51, 64
1, 192222, Note_on_c, 0, 37, 45
1, 192242, Note_on_c, 0, 49, 24
1, 192276, Note_off_c, 0, 37, 64
1, 192322, Note_off_c, 0, 49, 64
1, 192360, Note_on_c, 0, 35, 50
1, 192374, Note_on_c, 0, 47, 41
1, 192408, Note_off_c, 0, 35, 64
1, 192430, Note_off_c, 0, 47, 64
1, 192526, Note_on_c, 0, 52, 62
1, 192532, Note_on_c, 0, 40, 57
1, 192576, Note_off_c, 0, 52, 64
1, 192582, Note_off_c, 0, 40, 64
1, 192642, Note_on_c, 0, 39, 44
1, 192668, Note_on_c, 0, 51, 34
1, 192710, Note_off_c, 0, 39, 64
1, 192740, Note_off_c, 0, 51, 64
1, 192780, Note_on_c, 0, 37, 61
1, 192786, Note_on_c, 0, 49, 37
1, 192826, Note_off_c, 0, 37, 64
1, 192856, Note_off_c, 0, 49, 64
1, 192916, Note_on_c, 0, 35, 91
1, 192928, Note_on_c, 0, 47, 60
1, 192950, Note_off_c, 0, 35, 64
1, 192976, Note_off_c, 0, 47, 64
1, 193058, Note_on_c, 0, 56, 51
1, 193062, Note_on_c, 0, 59, 73
1, 193070, Note_on_c, 0, 40, 87
1, 193076, Note_on_c, 0, 52, 69
1, 193104, Note_off_c, 0, 40, 64
1, 193118, Note_off_c, 0, 52, 64
1, 193196, Note_on_c, 0, 51, 76
1, 193199, Note_on_c, 0, 39, 82
1, 193236, Note_off_c, 0, 51, 64
1, 193236, Note_off_c, 0, 39, 64
1, 193344, Note_on_c, 0, 37, 76
1, 193346, Note_on_c, 0, 49, 57
1, 193388, Note_off_c, 0, 37, 64
1, 193394, Note_off_c, 0, 49, 64
1, 193506, Note_on_c, 0, 47, 31
1, 193510, Note_on_c, 0, 35, 50
1, 193558, Note_off_c, 0, 35, 64
1, 193576, Note_off_c, 0, 47, 64
1, 193640, Note_on_c, 0, 40, 59
1, 193646, Note_on_c, 0, 52, 46
1, 193686, Note_off_c, 0, 40, 64
1, 193702, Note_off_c, 0, 52, 64
1, 193760, Note_on_c, 0, 51, 75
1, 193768, Note_on_c, 0, 39, 72
1, 193800, Note_off_c, 0, 51, 64
1, 193805, Note_off_c, 0, 39, 64
1, 193906, Note_on_c, 0, 49, 53
1, 193908, Note_on_c, 0, 37, 68
1, 193946, Note_off_c, 0, 37, 64
1, 193956, Note_off_c, 0, 49, 64
1, 193992, Note_off_c, 0, 59, 64
1, 194036, Note_on_c, 0, 35, 72
1, 194038, Note_on_c, 0, 47, 63
1, 194078, Note_off_c, 0, 35, 64
1, 194081, Note_off_c, 0, 47, 64
1, 194158, Note_off_c, 0, 56, 64
1, 194184, Note_on_c, 0, 57, 73
1, 194184, Note_on_c, 0, 59, 85
1, 194190, Note_on_c, 0, 40, 42
1, 194204, Note_on_c, 0, 52, 64
1, 194244, Note_off_c, 0, 40, 64
1, 194250, Note_off_c, 0, 52, 64
1, 194290, Note_off_c, 0, 57, 64
1, 194336, Note_on_c, 0, 51, 65
1, 194344, Note_on_c, 0, 39, 51
1, 194350, Note_off_c, 0, 59, 64
1, 194380, Note_off_c, 0, 51, 64
1, 194392, Note_off_c, 0, 39, 64
1, 194462, Note_on_c, 0, 49, 58
1, 194474, Note_on_c, 0, 37, 54
1, 194510, Note_off_c, 0, 49, 64
1, 194520, Note_off_c, 0, 37, 64
1, 194596, Note_on_c, 0, 57, 63
1, 194602, Note_on_c, 0, 59, 80
1, 194606, Note_on_c, 0, 35, 84
1, 194608, Note_on_c, 0, 47, 61
1, 194640, Note_off_c, 0, 57, 64
1, 194640, Note_off_c, 0, 59, 64
1, 194640, Note_off_c, 0, 35, 64
1, 194654, Note_off_c, 0, 47, 64
1, 194730, Note_on_c, 0, 59, 62
1, 194744, Note_on_c, 0, 56, 62
1, 194776, Note_on_c, 0, 40, 42
1, 194786, Note_on_c, 0, 52, 26
1, 194830, Note_off_c, 0, 40, 64
1, 194846, Note_off_c, 0, 52, 64
1, 194896, Note_on_c, 0, 51, 67
1, 194914, Control_c, 0, 64, 127
1, 194914, Note_on_c, 0, 39, 41
1, 194936, Note_off_c, 0, 51, 64
1, 194968, Note_off_c, 0, 39, 64
1, 195030, Note_on_c, 0, 37, 50
1, 195040, Note_on_c, 0, 49, 37
1, 195044, Note_off_c, 0, 56, 64
1, 195054, Note_off_c, 0, 59, 64
1, 195078, Note_off_c, 0, 37, 64
1, 195108, Note_off_c, 0, 49, 64
1, 195158, Note_on_c, 0, 56, 66
1, 195162, Note_on_c, 0, 59, 54
1, 195174, Note_on_c, 0, 64, 68
1, 195176, Note_on_c, 0, 47, 73
1, 195190, Control_c, 0, 64, 0
1, 195196, Note_on_c, 0, 35, 72
1, 195212, Note_off_c, 0, 56, 64
1, 195216, Note_off_c, 0, 47, 64
1, 195222, Note_off_c, 0, 59, 64
1, 195236, Note_off_c, 0, 64, 64
1, 195236, Note_off_c, 0, 35, 64
1, 195312, Note_on_c, 0, 68, 80
1, 195320, Note_on_c, 0, 59, 45
1, 195324, Note_on_c, 0, 56, 47
1, 195338, Note_on_c, 0, 40, 81
1, 195338, Note_on_c, 0, 52, 72
1, 195372, Note_off_c, 0, 40, 64
1, 195378, Note_off_c, 0, 52, 64
1, 195470, Note_on_c, 0, 51, 62
1, 195486, Note_on_c, 0, 39, 47
1, 195514, Note_off_c, 0, 51, 64
1, 195538, Note_off_c, 0, 39, 64
1, 195560, Control_c, 0, 64, 127
1, 195610, Note_on_c, 0, 49, 53
1, 195626, Note_on_c, 0, 37, 50
1, 195660, Note_off_c, 0, 49, 64
1, 195674, Note_off_c, 0, 37, 64
1, 195684, Note_off_c, 0, 59, 64
1, 195702, Note_off_c, 0, 56, 64
1, 195768, Note_on_c, 0, 35, 47
1, 195780, Note_on_c, 0, 47, 20
1, 195820, Control_c, 0, 64, 0
1, 195822, Note_off_c, 0, 35, 64
1, 195840, Note_off_c, 0, 47, 64
1, 195916, Note_on_c, 0, 57, 44
1, 195920, Note_on_c, 0, 40, 86
1, 195920, Note_on_c, 0, 66, 53
1, 195926, Note_on_c, 0, 59, 45
1, 195926, Note_on_c, 0, 52, 64
1, 195938, Note_off_c, 0, 68, 64
1, 195954, Note_off_c, 0, 40, 64
1, 195970, Note_off_c, 0, 52, 64
1, 196052, Note_on_c, 0, 51, 62
1, 196072, Note_on_c, 0, 39, 50
1, 196098, Note_off_c, 0, 51, 64
1, 196120, Note_off_c, 0, 39, 64
1, 196182, Note_on_c, 0, 49, 71
1, 196200, Note_on_c, 0, 37, 48
1, 196223, Note_off_c, 0, 49, 64
1, 196230, Note_off_c, 0, 59, 64
1, 196250, Note_off_c, 0, 37, 64
1, 196262, Note_off_c, 0, 57, 64
1, 196330, Note_on_c, 0, 47, 63
1, 196330, Note_on_c, 0, 35, 79
1, 196366, Note_off_c, 0, 35, 64
1, 196372, Note_off_c, 0, 47, 64
1, 196410, Note_off_c, 0, 66, 64
1, 196456, Note_on_c, 0, 56, 69
1, 196460, Note_on_c, 0, 59, 87
1, 196470, Note_on_c, 0, 40, 81
1, 196470, Note_on_c, 0, 52, 72
1, 196504, Note_off_c, 0, 40, 64
1, 196510, Note_off_c, 0, 52, 64
1, 196600, Note_on_c, 0, 39, 42
1, 196614, Note_on_c, 0, 51, 69
1, 196654, Note_off_c, 0, 39, 64
1, 196656, Note_off_c, 0, 51, 64
1, 196666, Control_c, 0, 64, 127
1, 196724, Note_off_c, 0, 56, 64
1, 196736, Note_off_c, 0, 59, 64
1, 196746, Note_on_c, 0, 37, 75
1, 196746, Note_on_c, 0, 49, 63
1, 196790, Note_off_c, 0, 49, 64
1, 196792, Note_off_c, 0, 37, 64
1, 196864, Control_c, 0, 64, 0
1, 196872, Note_on_c, 0, 56, 73
1, 196888, Note_on_c, 0, 64, 69
1, 196888, Note_on_c, 0, 59, 62
1, 196898, Note_on_c, 0, 47, 49
1, 196902, Note_on_c, 0, 35, 52
1, 196920, Note_off_c, 0, 56, 64
1, 196934, Note_off_c, 0, 59, 64
1, 196942, Note_off_c, 0, 64, 64
1, 196954, Note_off_c, 0, 47, 64
1, 196954, Note_off_c, 0, 35, 64
1, 197016, Note_on_c, 0, 59, 52
1, 197016, Note_on_c, 0, 68, 84
1, 197020, Note_on_c, 0, 40, 64
1, 197028, Note_on_c, 0, 56, 50
1, 197042, Note_on_c, 0, 52, 56
1, 197062, Note_off_c, 0, 40, 64
1, 197090, Note_off_c, 0, 52, 64
1, 197154, Note_on_c, 0, 51, 66
1, 197170, Note_on_c, 0, 39, 51
1, 197188, Control_c, 0, 64, 127
1, 197198, Note_off_c, 0, 51, 64
1, 197216, Note_off_c, 0, 39, 64
1, 197250, Note_off_c, 0, 59, 64
1, 197288, Note_on_c, 0, 49, 70
1, 197320, Note_off_c, 0, 56, 64
1, 197326, Note_on_c, 0, 37, 33
1, 197334, Note_off_c, 0, 49, 64
1, 197356, Note_off_c, 0, 68, 64
1, 197384, Note_off_c, 0, 37, 64
1, 197418, Control_c, 0, 64, 0
1, 197418, Note_on_c, 0, 57, 69
1, 197426, Note_on_c, 0, 63, 75
1, 197428, Note_on_c, 0, 47, 61
1, 197436, Note_on_c, 0, 35, 63
1, 197466, Note_off_c, 0, 57, 64
1, 197472, Note_off_c, 0, 47, 64
1, 197480, Note_off_c, 0, 35, 64
1, 197486, Note_off_c, 0, 63, 64
1, 197550, Note_on_c, 0, 56, 83
1, 197553, Note_on_c, 0, 64, 87
1, 197580, Note_on_c, 0, 52, 78
1, 197590, Note_on_c, 0, 40, 64
1, 197614, Note_off_c, 0, 56, 64
1, 197617, Note_off_c, 0, 52, 64
1, 197632, Note_off_c, 0, 40, 64
1, 197648, Note_off_c, 0, 64, 64
1, 197710, Note_on_c, 0, 51, 69
1, 197726, Note_on_c, 0, 39, 49
1, 197752, Note_off_c, 0, 51, 64
1, 197774, Note_off_c, 0, 39, 64
1, 197840, Note_on_c, 0, 68, 86
1, 197840, Note_on_c, 0, 56, 80
1, 197843, Note_on_c, 0, 49, 65
1, 197852, Note_on_c, 0, 64, 71
1, 197866, Note_on_c, 0, 37, 47
1, 197880, Note_off_c, 0, 56, 64
1, 197890, Note_off_c, 0, 49, 64
1, 197892, Note_off_c, 0, 64, 64
1, 197894, Control_c, 0, 64, 127
1, 197914, Note_off_c, 0, 37, 64
1, 197940, Note_off_c, 0, 68, 64
1, 197978, Note_on_c, 0, 35, 85
1, 197978, Note_on_c, 0, 47, 58
1, 198012, Note_off_c, 0, 35, 64
1, 198018, Control_c, 0, 64, 0
1, 198024, Note_off_c, 0, 47, 64
1, 198122, Note_on_c, 0, 71, 105
1, 198132, Note_on_c, 0, 59, 89
1, 198134, Note_on_c, 0, 52, 89
1, 198134, Note_on_c, 0, 68, 75
1, 198142, Note_on_c, 0, 40, 86
1, 198166, Note_off_c, 0, 52, 64
1, 198176, Note_off_c, 0, 40, 64
1, 198222, Note_off_c, 0, 59, 64
1, 198232, Control_c, 0, 64, 127
1, 198272, Note_on_c, 0, 51, 71
1, 198298, Note_on_c, 0, 39, 43
1, 198314, Note_off_c, 0, 71, 64
1, 198317, Note_off_c, 0, 51, 64
1, 198348, Note_off_c, 0, 68, 64
1, 198352, Note_off_c, 0, 39, 64
1, 198402, Note_on_c, 0, 49, 72
1, 198407, Note_on_c, 0, 61, 85
1, 198412, Note_on_c, 0, 68, 66
1, 198414, Note_on_c, 0, 73, 81
1, 198426, Note_on_c, 0, 37, 39
1, 198444, Note_off_c, 0, 49, 64
1, 198444, Note_off_c, 0, 61, 64
1, 198447, Note_off_c, 0, 68, 64
1, 198458, Note_off_c, 0, 73, 64
1, 198484, Note_off_c, 0, 37, 64
1, 198524, Control_c, 0, 64, 0
1, 198532, Note_on_c, 0, 75, 89
1, 198537, Note_on_c, 0, 63, 84
1, 198540, Note_on_c, 0, 68, 29
1, 198544, Note_on_c, 0, 35, 80
1, 198544, Note_on_c, 0, 47, 63
1, 198574, Note_off_c, 0, 75, 64
1, 198576, Note_off_c, 0, 63, 64
1, 198580, Note_off_c, 0, 35, 64
1, 198588, Note_off_c, 0, 47, 64
1, 198602, Note_off_c, 0, 68, 64
1, 198672, Note_on_c, 0, 76, 97
1, 198674, Note_on_c, 0, 68, 60
1, 198682, Note_on_c, 0, 64, 85
1, 198686, Note_on_c, 0, 52, 85
1, 198694, Note_on_c, 0, 40, 80
1, 198714, Note_off_c, 0, 76, 64
1, 198720, Note_off_c, 0, 52, 64
1, 198722, Note_off_c, 0, 68, 64
1, 198730, Note_off_c, 0, 64, 64
1, 198730, Note_off_c, 0, 40, 64
1, 198756, Control_c, 0, 64, 127
1, 198820, Note_on_c, 0, 51, 72
1, 198832, Control_c, 0, 64, 0
1, 198834, Note_on_c, 0, 39, 68
1, 198864, Note_off_c, 0, 51, 64
1, 198872, Note_off_c, 0, 39, 64
1, 198968, Note_on_c, 0, 71, 95
1, 198972, Note_on_c, 0, 49, 64
1, 198972, Note_on_c, 0, 59, 89
1, 198978, Note_on_c, 0, 37, 66
1, 198978, Note_on_c, 0, 68, 62
1, 199004, Note_off_c, 0, 59, 64
1, 199016, Control_c, 0, 64, 127
1, 199018, Note_off_c, 0, 49, 64
1, 199020, Note_off_c, 0, 68, 64
1, 199024, Note_off_c, 0, 37, 64
1, 199068, Note_off_c, 0, 71, 64
1, 199132, Note_on_c, 0, 35, 78
1, 199140, Note_on_c, 0, 47, 48
1, 199154, Control_c, 0, 64, 0
1, 199170, Note_off_c, 0, 35, 64
1, 199194, Note_off_c, 0, 47, 64
1, 199264, Note_on_c, 0, 80, 83
1, 199270, Note_on_c, 0, 68, 62
1, 199298, Note_on_c, 0, 71, 53
1, 199300, Note_on_c, 0, 40, 64
1, 199304, Note_on_c, 0, 52, 53
1, 199342, Note_off_c, 0, 40, 64
1, 199356, Note_off_c, 0, 52, 64
1, 199420, Note_on_c, 0, 39, 68
1, 199424, Note_on_c, 0, 51, 63
1, 199458, Note_off_c, 0, 39, 64
1, 199470, Note_off_c, 0, 51, 64
1, 199478, Control_c, 0, 64, 127
1, 199574, Note_on_c, 0, 49, 56
1, 199594, Note_off_c, 0, 80, 64
1, 199594, Note_on_c, 0, 37, 41
1, 199612, Note_off_c, 0, 71, 64
1, 199622, Note_off_c, 0, 49, 64
1, 199648, Note_off_c, 0, 37, 64
1, 199672, Note_off_c, 0, 68, 64
1, 199732, Note_on_c, 0, 35, 72
1, 199748, Note_on_c, 0, 47, 37
1, 199770, Note_off_c, 0, 35, 64
1, 199784, Control_c, 0, 64, 0
1, 199814, Note_off_c, 0, 47, 64
1, 199866, Note_on_c, 0, 59, 56
1, 199874, Note_on_c, 0, 71, 77
1, 199876, Note_on_c, 0, 69, 54
1, 199882, Note_on_c, 0, 66, 33
1, 199910, Note_on_c, 0, 52, 34
1, 199910, Note_on_c, 0, 40, 64
1, 199952, Note_off_c, 0, 40, 64
1, 199976, Note_off_c, 0, 52, 64
1, 200020, Note_on_c, 0, 39, 68
1, 200024, Note_on_c, 0, 51, 50
1, 200058, Note_off_c, 0, 39, 64
1, 200080, Note_off_c, 0, 51, 64
1, 200132, Note_on_c, 0, 49, 69
1, 200142, Note_on_c, 0, 37, 46
1, 200174, Note_off_c, 0, 49, 64
1, 200192, Note_off_c, 0, 37, 64
1, 200272, Note_on_c, 0, 35, 87
1, 200282, Note_on_c, 0, 47, 55
1, 200308, Note_off_c, 0, 35, 64
1, 200330, Note_off_c, 0, 47, 64
1, 200356, Note_off_c, 0, 69, 64
1, 200400, Note_off_c, 0, 71, 64
1, 200420, Note_on_c, 0, 52, 85
1, 200424, Note_off_c, 0, 59, 64
1, 200436, Note_on_c, 0, 40, 68
1, 200456, Note_off_c, 0, 52, 64
1, 200476, Note_off_c, 0, 40, 64
1, 200504, Note_off_c, 0, 66, 64
1, 200530, Note_on_c, 0, 39, 68
1, 200544, Note_on_c, 0, 51, 67
1, 200568, Note_off_c, 0, 39, 64
1, 200588, Note_off_c, 0, 51, 64
1, 200676, Note_on_c, 0, 49, 72
1, 200692, Note_on_c, 0, 69, 57
1, 200694, Note_on_c, 0, 59, 69
1, 200714, Note_on_c, 0, 71, 31
1, 200718, Note_off_c, 0, 49, 64
1, 200736, Note_off_c, 0, 59, 64
1, 200736, Note_on_c, 0, 37, 7
1, 200739, Note_off_c, 0, 69, 64
1, 200780, Note_off_c, 0, 37, 64
1, 200790, Note_on_c, 0, 69, 74
1, 200793, Note_on_c, 0, 59, 80
1, 200822, Note_on_c, 0, 47, 53
1, 200830, Note_on_c, 0, 35, 45
1, 200854, Note_off_c, 0, 71, 64
1, 200854, Note_off_c, 0, 69, 64
1, 200857, Note_off_c, 0, 59, 64
1, 200872, Note_off_c, 0, 47, 64
1, 200884, Note_off_c, 0, 35, 64
1, 200924, Note_on_c, 0, 71, 69
1, 200932, Note_on_c, 0, 59, 67
1, 200932, Note_on_c, 0, 69, 54
1, 200962, Note_on_c, 0, 52, 77
1, 200980, Note_on_c, 0, 40, 46
1, 201002, Note_off_c, 0, 52, 64
1, 201024, Note_off_c, 0, 59, 64
1, 201032, Note_off_c, 0, 40, 64
1, 201042, Note_off_c, 0, 69, 64
1, 201046, Note_off_c, 0, 71, 64
1, 201096, Note_on_c, 0, 51, 72
1, 201120, Note_on_c, 0, 39, 40
1, 201138, Note_off_c, 0, 51, 64
1, 201176, Note_off_c, 0, 39, 64
1, 201220, Note_on_c, 0, 69, 58
1, 201230, Note_on_c, 0, 71, 76
1, 201238, Note_on_c, 0, 59, 50
1, 201240, Note_on_c, 0, 49, 58
1, 201243, Note_on_c, 0, 37, 59
1, 201282, Note_off_c, 0, 71, 64
1, 201288, Note_off_c, 0, 49, 64
1, 201288, Note_off_c, 0, 37, 64
1, 201291, Note_off_c, 0, 59, 64
1, 201294, Note_off_c, 0, 69, 64
1, 201374, Note_on_c, 0, 35, 81
1, 201380, Note_on_c, 0, 47, 61
1, 201410, Note_off_c, 0, 35, 64
1, 201424, Note_off_c, 0, 47, 64
1, 201516, Note_on_c, 0, 71, 93
1, 201522, Note_on_c, 0, 59, 76
1, 201528, Note_on_c, 0, 68, 60
1, 201542, Note_on_c, 0, 52, 75
1, 201556, Note_on_c, 0, 40, 55
1, 201582, Note_off_c, 0, 52, 64
1, 201598, Control_c, 0, 64, 127
1, 201604, Note_off_c, 0, 40, 64
1, 201640, Note_off_c, 0, 59, 64
1, 201660, Note_on_c, 0, 39, 68
1, 201664, Note_on_c, 0, 51, 70
1, 201682, Note_off_c, 0, 68, 64
1, 201698, Note_off_c, 0, 39, 64
1, 201706, Note_off_c, 0, 51, 64
1, 201716, Note_off_c, 0, 71, 64
1, 201796, Note_on_c, 0, 49, 70
1, 201799, Note_on_c, 0, 37, 67
1, 201838, Note_off_c, 0, 49, 64
1, 201842, Note_off_c, 0, 37, 64
1, 201954, Note_on_c, 0, 35, 86
1, 201968, Note_on_c, 0, 47, 40
1, 201988, Note_off_c, 0, 35, 64
1, 201994, Note_on_c, 0, 76, 76
1, 201997, Note_on_c, 0, 64, 72
1, 202012, Note_on_c, 0, 68, 42
1, 202014, Control_c, 0, 64, 0
1, 202030, Note_off_c, 0, 47, 64
1, 202030, Note_off_c, 0, 76, 64
1, 202040, Note_off_c, 0, 64, 64
1, 202066, Note_off_c, 0, 68, 64
1, 202112, Note_on_c, 0, 76, 49
1, 202124, Note_on_c, 0, 68, 64
1, 202127, Note_on_c, 0, 64, 61
1, 202130, Note_on_c, 0, 40, 64
1, 202132, Note_on_c, 0, 52, 40
1, 202172, Note_off_c, 0, 40, 64
1, 202194, Note_off_c, 0, 52, 64
1, 202212, Control_c, 0, 64, 127
1, 202244, Note_on_c, 0, 51, 65
1, 202278, Note_on_c, 0, 39, 21
1, 202288, Note_off_c, 0, 51, 64
1, 202344, Note_off_c, 0, 39, 64
1, 202378, Note_off_c, 0, 76, 64
1, 202388, Note_on_c, 0, 49, 56
1, 202400, Note_off_c, 0, 68, 64
1, 202406, Note_on_c, 0, 37, 35
1, 202436, Note_off_c, 0, 64, 64
1, 202436, Note_off_c, 0, 49, 64
1, 202466, Note_off_c, 0, 37, 64
1, 202548, Note_on_c, 0, 35, 61
1, 202566, Note_on_c, 0, 47, 27
1, 202594, Note_off_c, 0, 35, 64
1, 202626, Control_c, 0, 64, 0
1, 202631, Note_off_c, 0, 47, 64
1, 202682, Note_on_c, 0, 68, 56
1, 202690, Note_on_c, 0, 59, 50
1, 202700, Note_on_c, 0, 64, 37
1, 202702, Note_on_c, 0, 52, 67
1, 202722, Note_on_c, 0, 40, 36
1, 202746, Note_off_c, 0, 52, 64
1, 202784, Note_off_c, 0, 40, 64
1, 202812, Control_c, 0, 64, 127
1, 202850, Note_on_c, 0, 51, 42
1, 202850, Note_on_c, 0, 39, 68
1, 202888, Note_off_c, 0, 39, 64
1, 202912, Note_off_c, 0, 51, 64
1, 202944, Note_off_c, 0, 64, 64
1, 202980, Note_on_c, 0, 49, 52
1, 202986, Note_on_c, 0, 37, 51
1, 202994, Note_off_c, 0, 68, 64
1, 203032, Note_off_c, 0, 49, 64
1, 203032, Note_off_c, 0, 37, 64
1, 203035, Note_off_c, 0, 59, 64
1, 203122, Note_on_c, 0, 35, 59
1, 203126, Note_on_c, 0, 47, 46
1, 203170, Note_off_c, 0, 35, 64
1, 203182, Note_off_c, 0, 47, 64
1, 203182, Control_c, 0, 64, 0
1, 203232, Note_on_c, 0, 66, 69
1, 203250, Note_on_c, 0, 57, 42
1, 203264, Note_on_c, 0, 59, 48
1, 203306, Note_on_c, 0, 52, 33
1, 203310, Note_on_c, 0, 40, 64
1, 203350, Note_off_c, 0, 57, 64
1, 203350, Note_off_c, 0, 59, 64
1, 203352, Note_off_c, 0, 40, 64
1, 203372, Note_off_c, 0, 52, 64
1, 203396, Control_c, 0, 64, 127
1, 203400, Note_on_c, 0, 39, 68
1, 203402, Note_on_c, 0, 51, 72
1, 203438, Note_off_c, 0, 39, 64
1, 203442, Note_off_c, 0, 51, 64
1, 203534, Note_on_c, 0, 49, 69
1, 203540, Note_on_c, 0, 37, 68
1, 203549, Note_on_c, 0, 59, 63
1, 203549, Note_on_c, 0, 57, 51
1, 203576, Note_off_c, 0, 49, 64
1, 203579, Note_off_c, 0, 37, 64
1, 203579, Control_c, 0, 64, 0
1, 203592, Note_off_c, 0, 59, 64
1, 203602, Note_off_c, 0, 57, 64
1, 203656, Note_on_c, 0, 59, 69
1, 203662, Note_on_c, 0, 57, 70
1, 203664, Note_on_c, 0, 35, 84
1, 203668, Note_on_c, 0, 47, 63
1, 203698, Note_off_c, 0, 35, 64
1, 203712, Note_off_c, 0, 47, 64
1, 203718, Note_off_c, 0, 59, 64
1, 203720, Note_off_c, 0, 57, 64
1, 203802, Note_on_c, 0, 59, 59
1, 203808, Note_on_c, 0, 57, 55
1, 203808, Note_on_c, 0, 52, 82
1, 203818, Note_on_c, 0, 40, 69
1, 203844, Note_off_c, 0, 52, 64
1, 203858, Note_off_c, 0, 40, 64
1, 203902, Control_c, 0, 64, 127
1, 203930, Note_off_c, 0, 59, 64
1, 203942, Note_off_c, 0, 57, 64
1, 203945, Note_on_c, 0, 51, 67
1, 203976, Note_on_c, 0, 39, 30
1, 203990, Note_off_c, 0, 51, 64
1, 204010, Note_off_c, 0, 66, 64
1, 204010, Control_c, 0, 64, 0
1, 204042, Note_off_c, 0, 39, 64
1, 204062, Note_on_c, 0, 66, 80
1, 204084, Note_on_c, 0, 57, 56
1, 204084, Note_on_c, 0, 49, 68
1, 204087, Note_on_c, 0, 59, 44
1, 204100, Note_on_c, 0, 37, 47
1, 204126, Note_off_c, 0, 49, 64
1, 204140, Note_off_c, 0, 59, 64
1, 204150, Note_off_c, 0, 57, 64
1, 204152, Note_off_c, 0, 37, 64
1, 204164, Control_c, 0, 64, 127
1, 204218, Note_on_c, 0, 47, 66
1, 204218, Note_on_c, 0, 35, 80
1, 204224, Note_off_c, 0, 66, 64
1, 204254, Note_off_c, 0, 35, 64
1, 204260, Note_off_c, 0, 47, 64
1, 204270, Control_c, 0, 64, 0
1, 204354, Note_on_c, 0, 68, 86
1, 204363, Note_on_c, 0, 57, 65
1, 204363, Note_on_c, 0, 59, 76
1, 204367, Note_on_c, 0, 52, 85
1, 204382, Note_on_c, 0, 40, 62
1, 204402, Note_off_c, 0, 68, 64
1, 204402, Note_off_c, 0, 59, 64
1, 204402, Note_off_c, 0, 52, 64
1, 204408, Note_off_c, 0, 57, 64
1, 204426, Note_off_c, 0, 40, 64
1, 204480, Note_on_c, 0, 57, 51
1, 204490, Note_on_c, 0, 51, 81
1, 204496, Note_on_c, 0, 66, 71
1, 204496, Note_on_c, 0, 59, 50
1, 204518, Note_on_c, 0, 39, 43
1, 204532, Note_off_c, 0, 51, 64
1, 204540, Note_off_c, 0, 59, 64
1, 204543, Note_off_c, 0, 66, 64
1, 204552, Note_off_c, 0, 57, 64
1, 204570, Note_off_c, 0, 39, 64
1, 204606, Note_on_c, 0, 57, 85
1, 204606, Note_on_c, 0, 64, 84
1, 204620, Note_on_c, 0, 49, 68
1, 204620, Note_on_c, 0, 59, 76
1, 204644, Note_on_c, 0, 37, 32
1, 204659, Note_off_c, 0, 59, 64
1, 204660, Note_off_c, 0, 49, 64
1, 204662, Note_off_c, 0, 64, 64
1, 204670, Note_off_c, 0, 57, 64
1, 204710, Note_off_c, 0, 37, 64
1, 204716, Note_on_c, 0, 66, 79
1, 204720, Note_on_c, 0, 57, 85
1, 204720, Note_on_c, 0, 63, 73
1, 204734, Note_on_c, 0, 59, 76
1, 204770, Note_on_c, 0, 47, 70
1, 204773, Note_off_c, 0, 59, 64
1, 204776, Note_on_c, 0, 35, 72
1, 204780, Note_off_c, 0, 63, 64
1, 204784, Note_off_c, 0, 57, 64
1, 204810, Note_off_c, 0, 47, 64
1, 204818, Note_off_c, 0, 35, 64
1, 204838, Note_off_c, 0, 66, 64
1, 204868, Note_on_c, 0, 56, 89
1, 204884, Note_on_c, 0, 64, 83
1, 204884, Note_on_c, 0, 68, 79
1, 204910, Note_on_c, 0, 52, 85
1, 204918, Note_on_c, 0, 40, 76
1, 204946, Note_off_c, 0, 52, 64
1, 204956, Note_off_c, 0, 40, 64
1, 204978, Control_c, 0, 64, 127
1, 205042, Note_on_c, 0, 51, 81
1, 205068, Note_on_c, 0, 39, 50
1, 205084, Note_off_c, 0, 51, 64
1, 205114, Note_off_c, 0, 39, 64
1, 205144, Note_off_c, 0, 56, 64
1, 205192, Note_on_c, 0, 49, 72
1, 205202, Note_on_c, 0, 37, 66
1, 205232, Note_off_c, 0, 49, 64
1, 205244, Note_off_c, 0, 37, 64
1, 205314, Note_on_c, 0, 61, 73
1, 205324, Note_on_c, 0, 47, 73
1, 205326, Note_on_c, 0, 35, 83
1, 205328, Note_off_c, 0, 64, 64
1, 205346, Control_c, 0, 64, 0
1, 205362, Note_off_c, 0, 35, 64
1, 205364, Note_off_c, 0, 47, 64
1, 205446, Note_on_c, 0, 59, 97
1, 205454, Note_off_c, 0, 61, 64
1, 205470, Note_on_c, 0, 52, 84
1, 205484, Note_on_c, 0, 40, 64
1, 205506, Note_off_c, 0, 52, 64
1, 205528, Note_off_c, 0, 40, 64
1, 205546, Control_c, 0, 64, 127
1, 205600, Note_on_c, 0, 39, 43
1, 205604, Note_on_c, 0, 51, 69
1, 205650, Note_off_c, 0, 51, 64
1, 205652, Note_off_c, 0, 39, 64
1, 205730, Note_off_c, 0, 68, 64
1, 205744, Note_on_c, 0, 49, 68
1, 205768, Note_on_c, 0, 37, 45
1, 205786, Note_off_c, 0, 49, 64
1, 205820, Note_off_c, 0, 37, 64
1, 205878, Note_on_c, 0, 71, 79
1, 205881, Note_on_c, 0, 68, 59
1, 205890, Note_on_c, 0, 47, 49
1, 205910, Note_on_c, 0, 35, 25
1, 205914, Control_c, 0, 64, 0
1, 205918, Note_off_c, 0, 71, 64
1, 205928, Note_off_c, 0, 68, 64
1, 205944, Note_off_c, 0, 47, 64
1, 205970, Note_off_c, 0, 35, 64
1, 205991, Note_on_c, 0, 71, 68
1, 205994, Note_on_c, 0, 68, 56
1, 206032, Note_on_c, 0, 52, 80
1, 206054, Note_on_c, 0, 40, 38
1, 206070, Note_off_c, 0, 52, 64
1, 206112, Note_off_c, 0, 40, 64
1, 206115, Control_c, 0, 64, 127
1, 206166, Note_on_c, 0, 51, 62
1, 206170, Note_on_c, 0, 39, 43
1, 206210, Note_off_c, 0, 51, 64
1, 206222, Note_off_c, 0, 39, 64
1, 206248, Note_off_c, 0, 71, 64
1, 206266, Note_off_c, 0, 68, 64
1, 206292, Note_on_c, 0, 49, 68
1, 206320, Note_on_c, 0, 37, 25
1, 206334, Note_off_c, 0, 49, 64
1, 206342, Note_off_c, 0, 59, 64
1, 206386, Note_off_c, 0, 37, 64
1, 206438, Note_on_c, 0, 35, 76
1, 206450, Note_on_c, 0, 47, 34
1, 206476, Note_off_c, 0, 35, 64
1, 206484, Control_c, 0, 64, 0
1, 206518, Note_off_c, 0, 47, 64
1, 206584, Note_on_c, 0, 56, 68
1, 206588, Note_on_c, 0, 59, 81
1, 206600, Note_on_c, 0, 52, 79
1, 206612, Note_on_c, 0, 40, 61
1, 206638, Note_off_c, 0, 52, 64
1, 206656, Note_off_c, 0, 40, 64
1, 206734, Note_on_c, 0, 51, 78
1, 206746, Note_on_c, 0, 39, 62
1, 206772, Note_off_c, 0, 51, 64
1, 206788, Note_off_c, 0, 39, 64
1, 206890, Note_on_c, 0, 49, 49
1, 206912, Note_on_c, 0, 37, 26
1, 206946, Note_off_c, 0, 49, 64
1, 206978, Note_off_c, 0, 37, 64
1, 207008, Note_on_c, 0, 35, 89
1, 207010, Note_on_c, 0, 47, 66
1, 207040, Note_off_c, 0, 35, 64
1, 207052, Note_off_c, 0, 47, 64
1, 207160, Note_on_c, 0, 52, 94
1, 207163, Note_on_c, 0, 40, 93
1, 207192, Note_off_c, 0, 52, 64
1, 207195, Note_off_c, 0, 40, 64
1, 207218, Note_off_c, 0, 59, 64
1, 207310, Note_on_c, 0, 51, 63
1, 207328, Note_on_c, 0, 39, 40
1, 207356, Note_off_c, 0, 51, 64
1, 207366, Note_off_c, 0, 56, 64
1, 207384, Note_off_c, 0, 39, 64
1, 207424, Note_on_c, 0, 55, 71
1, 207427, Note_on_c, 0, 49, 76
1, 207432, Note_on_c, 0, 59, 69
1, 207454, Note_on_c, 0, 37, 48
1, 207470, Note_off_c, 0, 49, 64
1, 207472, Note_off_c, 0, 59, 64
1, 207478, Note_off_c, 0, 55, 64
1, 207502, Note_off_c, 0, 37, 64
1, 207542, Note_on_c, 0, 59, 76
1, 207548, Note_on_c, 0, 56, 78
1, 207562, Note_on_c, 0, 47, 69
1, 207576, Note_on_c, 0, 35, 60
1, 207594, Note_off_c, 0, 56, 64
1, 207600, Note_off_c, 0, 47, 64
1, 207616, Note_off_c, 0, 59, 64
1, 207622, Note_off_c, 0, 35, 64
1, 207692, Note_on_c, 0, 59, 88
1, 207700, Note_on_c, 0, 57, 79
1, 207710, Note_on_c, 0, 40, 65
1, 207714, Note_on_c, 0, 52, 72
1, 207752, Note_off_c, 0, 40, 64
1, 207756, Note_off_c, 0, 52, 64
1, 207822, Note_off_c, 0, 57, 64
1, 207826, Note_on_c, 0, 51, 86
1, 207850, Note_on_c, 0, 39, 54
1, 207866, Note_off_c, 0, 51, 64
1, 207888, Note_off_c, 0, 59, 64
1, 207894, Note_off_c, 0, 39, 64
1, 207968, Note_on_c, 0, 57, 68
1, 207968, Note_on_c, 0, 61, 82
1, 207982, Note_on_c, 0, 49, 67
1, 207990, Note_on_c, 0, 37, 69
1, 208014, Note_off_c, 0, 57, 64
1, 208017, Note_off_c, 0, 61, 64
1, 208024, Note_off_c, 0, 49, 64
1, 208028, Note_off_c, 0, 37, 64
1, 208092, Note_on_c, 0, 57, 58
1, 208095, Note_on_c, 0, 35, 93
1, 208098, Note_on_c, 0, 63, 90
1, 208102, Note_on_c, 0, 47, 65
1, 208128, Note_off_c, 0, 35, 64
1, 208146, Note_off_c, 0, 47, 64
1, 208148, Note_off_c, 0, 57, 64
1, 208164, Note_off_c, 0, 63, 64
1, 208246, Note_on_c, 0, 64, 100
1, 208252, Note_on_c, 0, 56, 76
1, 208270, Note_on_c, 0, 52, 69
1, 208276, Note_on_c, 0, 40, 65
1, 208312, Note_off_c, 0, 52, 64
1, 208318, Note_off_c, 0, 40, 64
1, 208342, Control_c, 0, 64, 127
1, 208398, Note_on_c, 0, 51, 78
1, 208420, Note_off_c, 0, 56, 64
1, 208434, Note_on_c, 0, 39, 39
1, 208446, Note_off_c, 0, 51, 64
1, 208490, Note_off_c, 0, 39, 64
1, 208532, Note_off_c, 0, 64, 64
1, 208538, Note_on_c, 0, 49, 73
1, 208548, Note_on_c, 0, 37, 62
1, 208582, Note_off_c, 0, 49, 64
1, 208594, Note_off_c, 0, 37, 64
1, 208666, Note_on_c, 0, 56, 69
1, 208676, Note_on_c, 0, 59, 72
1, 208684, Note_on_c, 0, 35, 87
1, 208694, Note_on_c, 0, 47, 39
1, 208696, Control_c, 0, 64, 0
1, 208716, Note_off_c, 0, 35, 64
1, 208718, Note_off_c, 0, 56, 64
1, 208730, Note_off_c, 0, 59, 64
1, 208754, Note_off_c, 0, 47, 64
1, 208798, Note_on_c, 0, 68, 90
1, 208812, Note_on_c, 0, 59, 50
1, 208824, Note_on_c, 0, 56, 35
1, 208832, Note_on_c, 0, 52, 88
1, 208842, Note_on_c, 0, 40, 73
1, 208864, Note_off_c, 0, 52, 64
1, 208884, Note_off_c, 0, 40, 64
1, 208950, Note_on_c, 0, 39, 39
1, 208958, Control_c, 0, 64, 127
1, 208958, Note_on_c, 0, 51, 72
1, 208986, Note_off_c, 0, 56, 64
1, 209000, Note_off_c, 0, 51, 64
1, 209006, Note_off_c, 0, 39, 64
1, 209104, Note_on_c, 0, 49, 66
1, 209110, Note_off_c, 0, 59, 64
1, 209120, Note_on_c, 0, 37, 52
1, 209146, Note_off_c, 0, 49, 64
1, 209166, Note_off_c, 0, 37, 64
1, 209208, Note_off_c, 0, 68, 64
1, 209234, Note_on_c, 0, 35, 78
1, 209242, Note_on_c, 0, 47, 54
1, 209272, Note_off_c, 0, 35, 64
1, 209290, Note_off_c, 0, 47, 64
1, 209310, Control_c, 0, 64, 0
1, 209372, Note_on_c, 0, 66, 65
1, 209386, Note_on_c, 0, 57, 55
1, 209392, Note_on_c, 0, 59, 55
1, 209416, Note_on_c, 0, 52, 36
1, 209419, Note_on_c, 0, 40, 39
1, 209478, Note_off_c, 0, 40, 64
1, 209481, Note_off_c, 0, 52, 64
1, 209496, Control_c, 0, 64, 127
1, 209520, Note_on_c, 0, 51, 68
1, 209520, Note_on_c, 0, 39, 39
1, 209564, Note_off_c, 0, 51, 64
1, 209576, Note_off_c, 0, 39, 64
1, 209658, Note_on_c, 0, 49, 80
1, 209668, Note_off_c, 0, 59, 64
1, 209680, Note_on_c, 0, 37, 54
1, 209696, Note_off_c, 0, 49, 64
1, 209702, Note_off_c, 0, 57, 64
1, 209724, Note_off_c, 0, 37, 64
1, 209792, Note_on_c, 0, 35, 94
1, 209795, Note_on_c, 0, 47, 71
1, 209822, Note_off_c, 0, 35, 64
1, 209832, Control_c, 0, 64, 0
1, 209836, Note_off_c, 0, 47, 64
1, 209838, Note_off_c, 0, 66, 64
1, 209926, Note_on_c, 0, 56, 67
1, 209931, Note_on_c, 0, 59, 92
1, 209944, Note_on_c, 0, 52, 89
1, 209972, Note_on_c, 0, 40, 42
1, 209975, Note_off_c, 0, 52, 64
1, 209988, Note_off_c, 0, 56, 64
1, 210018, Control_c, 0, 64, 127
1, 210026, Note_off_c, 0, 40, 64
1, 210080, Note_on_c, 0, 51, 76
1, 210100, Note_off_c, 0, 59, 64
1, 210103, Note_on_c, 0, 39, 50
1, 210118, Note_off_c, 0, 51, 64
1, 210154, Note_off_c, 0, 39, 64
1, 210206, Note_on_c, 0, 49, 79
1, 210218, Note_on_c, 0, 37, 70
1, 210250, Note_off_c, 0, 49, 64
1, 210260, Note_off_c, 0, 37, 64
1, 210342, Note_on_c, 0, 47, 74
1, 210342, Note_on_c, 0, 35, 88
1, 210344, Note_on_c, 0, 56, 61
1, 210344, Note_on_c, 0, 64, 79
1, 210348, Note_on_c, 0, 59, 65
1, 210376, Note_off_c, 0, 35, 64
1, 210382, Note_off_c, 0, 47, 64
1, 210386, Control_c, 0, 64, 0
1, 210392, Note_off_c, 0, 56, 64
1, 210396, Note_off_c, 0, 59, 64
1, 210410, Note_off_c, 0, 64, 64
1, 210468, Note_on_c, 0, 59, 75
1, 210468, Note_on_c, 0, 68, 90
1, 210474, Note_on_c, 0, 56, 55
1, 210484, Note_on_c, 0, 52, 99
1, 210492, Note_on_c, 0, 40, 88
1, 210514, Note_off_c, 0, 52, 64
1, 210526, Note_off_c, 0, 40, 64
1, 210586, Control_c, 0, 64, 127
1, 210610, Note_off_c, 0, 59, 64
1, 210628, Note_on_c, 0, 51, 84
1, 210640, Note_on_c, 0, 39, 69
1, 210672, Note_off_c, 0, 51, 64
1, 210678, Note_off_c, 0, 39, 64
1, 210710, Note_off_c, 0, 56, 64
1, 210732, Note_off_c, 0, 68, 64
1, 210766, Note_on_c, 0, 49, 78
1, 210774, Note_on_c, 0, 37, 75
1, 210808, Note_off_c, 0, 49, 64
1, 210818, Note_off_c, 0, 37, 64
1, 210870, Note_on_c, 0, 57, 62
1, 210878, Note_on_c, 0, 63, 69
1, 210896, Note_on_c, 0, 47, 83
1, 210902, Note_on_c, 0, 35, 91
1, 210922, Note_off_c, 0, 57, 64
1, 210934, Note_off_c, 0, 47, 64
1, 210934, Note_off_c, 0, 35, 64
1, 210940, Control_c, 0, 64, 0
1, 210944, Note_off_c, 0, 63, 64
1, 211010, Note_on_c, 0, 56, 86
1, 211012, Note_on_c, 0, 64, 85
1, 211036, Note_on_c, 0, 52, 99
1, 211040, Note_on_c, 0, 40, 95
1, 211068, Note_off_c, 0, 52, 64
1, 211071, Note_off_c, 0, 40, 64
1, 211112, Note_off_c, 0, 56, 64
1, 211132, Note_off_c, 0, 64, 64
1, 211140, Control_c, 0, 64, 127
1, 211180, Note_on_c, 0, 51, 87
1, 211190, Note_on_c, 0, 39, 73
1, 211216, Note_off_c, 0, 51, 64
1, 211226, Note_off_c, 0, 39, 64
1, 211282, Note_on_c, 0, 56, 88
1, 211285, Note_on_c, 0, 68, 86
1, 211296, Note_on_c, 0, 64, 74
1, 211310, Note_on_c, 0, 49, 86
1, 211320, Note_on_c, 0, 37, 76
1, 211322, Note_off_c, 0, 56, 64
1, 211332, Note_off_c, 0, 64, 64
1, 211350, Note_off_c, 0, 49, 64
1, 211356, Note_off_c, 0, 37, 64
1, 211400, Note_off_c, 0, 68, 64
1, 211444, Note_on_c, 0, 47, 80
1, 211447, Note_on_c, 0, 35, 94
1, 211480, Note_off_c, 0, 35, 64
1, 211483, Note_off_c, 0, 47, 64
1, 211492, Control_c, 0, 64, 0
1, 211578, Note_on_c, 0, 71, 107
1, 211581, Note_on_c, 0, 68, 75
1, 211584, Note_on_c, 0, 59, 99
1, 211598, Note_on_c, 0, 52, 98
1, 211606, Note_on_c, 0, 40, 85
1, 211628, Note_off_c, 0, 52, 64
1, 211642, Note_off_c, 0, 40, 64
1, 211662, Control_c, 0, 64, 127
1, 211728, Note_on_c, 0, 51, 91
1, 211744, Note_on_c, 0, 39, 75
1, 211762, Note_off_c, 0, 59, 64
1, 211780, Note_off_c, 0, 51, 64
1, 211782, Note_off_c, 0, 39, 64
1, 211826, Note_off_c, 0, 71, 64
1, 211840, Note_off_c, 0, 68, 64
1, 211870, Note_on_c, 0, 49, 89
1, 211873, Note_on_c, 0, 37, 87
1, 211924, Note_off_c, 0, 37, 64
1, 211926, Note_off_c, 0, 49, 64
1, 212020, Note_on_c, 0, 47, 94
1, 212023, Note_on_c, 0, 35, 104
1, 212054, Note_off_c, 0, 35, 64
1, 212064, Note_off_c, 0, 47, 64
1, 212154, Note_on_c, 0, 73, 89
1, 212154, Note_on_c, 0, 61, 97
1, 212162, Note_on_c, 0, 52, 105
1, 212168, Note_on_c, 0, 40, 104
1, 212188, Note_off_c, 0, 73, 64
1, 212191, Note_off_c, 0, 61, 64
1, 212196, Note_off_c, 0, 52, 64
1, 212198, Note_off_c, 0, 40, 64
1, 212286, Note_on_c, 0, 75, 97
1, 212292, Note_on_c, 0, 63, 90
1, 212298, Note_on_c, 0, 68, 68
1, 212304, Note_on_c, 0, 51, 92
1, 212312, Note_on_c, 0, 39, 79
1, 212326, Note_off_c, 0, 63, 64
1, 212336, Note_off_c, 0, 51, 64
1, 212344, Note_off_c, 0, 68, 64
1, 212346, Note_off_c, 0, 39, 64
1, 212352, Note_off_c, 0, 75, 64
1, 212426, Note_on_c, 0, 49, 91
1, 212432, Note_on_c, 0, 37, 92
1, 212432, Note_on_c, 0, 76, 97
1, 212435, Note_on_c, 0, 64, 95
1, 212466, Note_off_c, 0, 76, 64
1, 212466, Note_off_c, 0, 64, 64
1, 212469, Note_off_c, 0, 37, 64
1, 212474, Note_off_c, 0, 49, 64
1, 212562, Note_on_c, 0, 66, 85
1, 212568, Note_on_c, 0, 78, 91
1, 212572, Note_on_c, 0, 47, 80
1, 212576, Note_on_c, 0, 35, 103
1, 212604, Note_off_c, 0, 35, 64
1, 212614, Note_off_c, 0, 47, 64
1, 212616, Note_off_c, 0, 78, 64
1, 212666, Note_off_c, 0, 66, 64
1, 212706, Note_on_c, 0, 80, 101
1, 212709, Note_on_c, 0, 68, 96
1, 212712, Note_on_c, 0, 76, 88
1, 212714, Note_on_c, 0, 71, 97
1, 212720, Note_on_c, 0, 52, 110
1, 212722, Note_on_c, 0, 40, 107
1, 212754, Note_off_c, 0, 40, 64
1, 212770, Note_off_c, 0, 52, 64
1, 212866, Note_on_c, 0, 51, 94
1, 212878, Note_on_c, 0, 39, 86
1, 212916, Note_off_c, 0, 39, 64
1, 212928, Note_off_c, 0, 51, 64
1, 213010, Note_on_c, 0, 40, 105
1, 213012, Note_on_c, 0, 52, 104
1, 213024, Note_off_c, 0, 71, 64
1, 213060, Note_off_c, 0, 52, 64
1, 213070, Note_off_c, 0, 40, 64
1, 213126, Note_on_c, 0, 70, 79
1, 213144, Note_on_c, 0, 50, 101
1, 213148, Note_on_c, 0, 38, 103
1, 213172, Note_off_c, 0, 76, 64
1, 213192, Note_off_c, 0, 38, 64
1, 213210, Note_off_c, 0, 80, 64
1, 213210, Note_off_c, 0, 50, 64
1, 213218, Note_off_c, 0, 68, 64
1, 213272, Note_off_c, 0, 70, 64
1, 213290, Control_c, 0, 64, 0
1, 213308, Note_on_c, 0, 79, 111
1, 213308, Note_on_c, 0, 75, 92
1, 213314, Note_on_c, 0, 70, 93
1, 213314, Note_on_c, 0, 67, 103
1, 213314, Note_on_c, 0, 51, 108
1, 213322, Note_on_c, 0, 39, 100
1, 213396, Note_off_c, 0, 51, 64
1, 213430, Note_off_c, 0, 39, 64
1, 213450, Note_on_c, 0, 38, 96
1, 213452, Note_on_c, 0, 50, 103
1, 213474, Control_c, 0, 64, 127
1, 213508, Note_off_c, 0, 50, 64
1, 213540, Note_off_c, 0, 38, 64
1, 213598, Note_on_c, 0, 48, 84
1, 213608, Note_on_c, 0, 36, 78
1, 213644, Note_off_c, 0, 48, 64
1, 213646, Note_off_c, 0, 36, 64
1, 213728, Note_on_c, 0, 46, 80
1, 213742, Note_on_c, 0, 34, 81
1, 213770, Note_off_c, 0, 79, 64
1, 213776, Note_off_c, 0, 34, 64
1, 213810, Note_off_c, 0, 46, 64
1, 213848, Note_off_c, 0, 75, 64
1, 213866, Note_off_c, 0, 70, 64
1, 213874, Note_off_c, 0, 67, 64
1, 213874, Note_on_c, 0, 51, 99
1, 213880, Note_on_c, 0, 39, 88
1, 213946, Note_off_c, 0, 39, 64
1, 213984, Note_off_c, 0, 51, 64
1, 214002, Note_on_c, 0, 50, 95
1, 214010, Note_on_c, 0, 38, 81
1, 214052, Note_off_c, 0, 50, 64
1, 214058, Note_off_c, 0, 38, 64
1, 214126, Note_on_c, 0, 58, 88
1, 214134, Note_on_c, 0, 67, 81
1, 214134, Note_on_c, 0, 70, 75
1, 214152, Note_on_c, 0, 48, 86
1, 214162, Note_off_c, 0, 58, 64
1, 214174, Note_off_c, 0, 67, 64
1, 214177, Note_on_c, 0, 36, 55
1, 214202, Note_off_c, 0, 48, 64
1, 214216, Note_off_c, 0, 70, 64
1, 214226, Note_off_c, 0, 36, 64
1, 214288, Note_on_c, 0, 46, 78
1, 214300, Note_on_c, 0, 34, 73
1, 214330, Note_off_c, 0, 46, 64
1, 214338, Note_off_c, 0, 34, 64
1, 214400, Note_on_c, 0, 75, 100
1, 214402, Note_on_c, 0, 63, 100
1, 214404, Note_on_c, 0, 67, 96
1, 214426, Note_on_c, 0, 51, 100
1, 214432, Note_on_c, 0, 39, 88
1, 214446, Note_off_c, 0, 67, 64
1, 214450, Note_off_c, 0, 63, 64
1, 214500, Note_off_c, 0, 75, 64
1, 214514, Note_off_c, 0, 39, 64
1, 214516, Note_off_c, 0, 51, 64
1, 214570, Note_on_c, 0, 50, 94
1, 214574, Note_on_c, 0, 38, 81
1, 214610, Note_off_c, 0, 50, 64
1, 214630, Note_off_c, 0, 38, 64
1, 214722, Note_on_c, 0, 67, 106
1, 214722, Note_on_c, 0, 79, 110
1, 214728, Note_on_c, 0, 48, 95
1, 214732, Note_on_c, 0, 75, 79
1, 214736, Note_on_c, 0, 36, 102
1, 214754, Note_off_c, 0, 67, 64
1, 214764, Note_off_c, 0, 75, 64
1, 214770, Note_off_c, 0, 36, 64
1, 214782, Note_off_c, 0, 79, 64
1, 214798, Note_off_c, 0, 48, 64
1, 214874, Note_on_c, 0, 46, 92
1, 214884, Note_on_c, 0, 34, 86
1, 214918, Note_off_c, 0, 34, 64
1, 214966, Note_off_c, 0, 46, 64
1, 215042, Note_on_c, 0, 82, 98
1, 215042, Note_on_c, 0, 70, 104
1, 215042, Note_on_c, 0, 79, 104
1, 215045, Control_c, 0, 64, 0
1, 215054, Note_on_c, 0, 51, 105
1, 215060, Note_on_c, 0, 39, 95
1, 215134, Note_off_c, 0, 39, 64
1, 215164, Note_off_c, 0, 51, 64
1, 215164, Control_c, 0, 64, 127
1, 215194, Note_on_c, 0, 50, 96
1, 215199, Note_on_c, 0, 38, 89
1, 215202, Note_off_c, 0, 70, 64
1, 215226, Note_off_c, 0, 79, 64
1, 215240, Note_off_c, 0, 50, 64
1, 215260, Note_off_c, 0, 38, 64
1, 215280, Note_off_c, 0, 82, 64
1, 215360, Note_on_c, 0, 48, 80
1, 215422, Note_off_c, 0, 48, 64
1, 215504, Note_on_c, 0, 46, 83
1, 215518, Note_on_c, 0, 34, 75
1, 215521, Note_on_c, 0, 75, 93
1, 215521, Note_on_c, 0, 87, 89
1, 215536, Note_on_c, 0, 79, 77
1, 215546, Note_off_c, 0, 46, 64
1, 215550, Note_off_c, 0, 87, 64
1, 215554, Note_off_c, 0, 34, 64
1, 215554, Note_off_c, 0, 75, 64
1, 215576, Note_off_c, 0, 79, 64
1, 215614, Note_on_c, 0, 87, 57
1, 215620, Note_on_c, 0, 75, 78
1, 215623, Note_on_c, 0, 79, 100
1, 215638, Note_on_c, 0, 51, 93
1, 215644, Note_on_c, 0, 39, 84
1, 215724, Note_off_c, 0, 39, 64
1, 215742, Note_off_c, 0, 51, 64
1, 215772, Note_on_c, 0, 50, 98
1, 215775, Note_off_c, 0, 87, 64
1, 215780, Note_on_c, 0, 38, 80
1, 215783, Note_off_c, 0, 79, 64
1, 215812, Note_off_c, 0, 50, 64
1, 215816, Note_off_c, 0, 75, 64
1, 215830, Note_off_c, 0, 38, 64
1, 215928, Note_on_c, 0, 48, 74
1, 215942, Note_on_c, 0, 36, 63
1, 215984, Note_off_c, 0, 48, 64
1, 215987, Note_off_c, 0, 36, 64
1, 216050, Note_on_c, 0, 67, 101
1, 216050, Note_on_c, 0, 79, 95
1, 216054, Note_on_c, 0, 75, 82
1, 216056, Note_on_c, 0, 46, 75
1, 216076, Note_on_c, 0, 34, 66
1, 216082, Note_off_c, 0, 79, 64
1, 216084, Note_off_c, 0, 67, 64
1, 216090, Note_off_c, 0, 75, 64
1, 216104, Note_off_c, 0, 46, 64
1, 216116, Note_off_c, 0, 34, 64
1, 216158, Note_on_c, 0, 79, 59
1, 216158, Note_on_c, 0, 67, 78
1, 216158, Note_on_c, 0, 75, 64
1, 216184, Note_on_c, 0, 51, 93
1, 216194, Note_on_c, 0, 39, 78
1, 216220, Note_off_c, 0, 67, 64
1, 216236, Note_off_c, 0, 75, 64
1, 216256, Note_off_c, 0, 79, 64
1, 216259, Note_off_c, 0, 39, 64
1, 216304, Note_off_c, 0, 51, 64
1, 216326, Note_on_c, 0, 50, 83
1, 216326, Note_on_c, 0, 38, 81
1, 216372, Note_off_c, 0, 50, 64
1, 216380, Note_off_c, 0, 38, 64
1, 216447, Note_on_c, 0, 79, 100
1, 216452, Note_on_c, 0, 72, 90
1, 216454, Note_on_c, 0, 84, 101
1, 216472, Note_on_c, 0, 48, 87
1, 216482, Note_on_c, 0, 36, 88
1, 216514, Note_off_c, 0, 36, 64
1, 216530, Note_off_c, 0, 48, 64
1, 216552, Note_off_c, 0, 84, 64
1, 216588, Note_off_c, 0, 72, 64
1, 216626, Note_off_c, 0, 79, 64
1, 216642, Note_on_c, 0, 46, 86
1, 216654, Note_on_c, 0, 34, 74
1, 216686, Note_off_c, 0, 46, 64
1, 216692, Note_off_c, 0, 34, 64
1, 216746, Control_c, 0, 64, 0
1, 216782, Note_on_c, 0, 70, 97
1, 216782, Note_on_c, 0, 79, 97
1, 216782, Note_on_c, 0, 82, 90
1, 216798, Note_on_c, 0, 51, 93
1, 216801, Note_on_c, 0, 39, 88
1, 216894, Note_off_c, 0, 39, 64
1, 216900, Control_c, 0, 64, 127
1, 216902, Note_off_c, 0, 51, 64
1, 216926, Note_on_c, 0, 50, 92
1, 216938, Note_on_c, 0, 38, 76
1, 216970, Note_off_c, 0, 50, 64
1, 216982, Note_off_c, 0, 38, 64
1, 217082, Note_on_c, 0, 48, 81
1, 217094, Note_on_c, 0, 36, 83
1, 217130, Note_off_c, 0, 79, 64
1, 217130, Note_off_c, 0, 48, 64
1, 217130, Note_off_c, 0, 36, 64
1, 217164, Note_off_c, 0, 82, 64
1, 217230, Note_on_c, 0, 46, 84
1, 217238, Note_on_c, 0, 34, 76
1, 217242, Note_off_c, 0, 70, 64
1, 217276, Note_off_c, 0, 34, 64
1, 217279, Note_off_c, 0, 46, 64
1, 217374, Note_on_c, 0, 51, 90
1, 217377, Note_on_c, 0, 39, 82
1, 217466, Note_off_c, 0, 39, 64
1, 217474, Note_off_c, 0, 51, 64
1, 217528, Note_on_c, 0, 50, 98
1, 217534, Note_on_c, 0, 38, 88
1, 217568, Note_off_c, 0, 50, 64
1, 217578, Note_off_c, 0, 38, 64
1, 217618, Note_on_c, 0, 58, 84
1, 217621, Note_on_c, 0, 70, 78
1, 217668, Note_off_c, 0, 70, 64
1, 217672, Note_on_c, 0, 48, 83
1, 217674, Note_off_c, 0, 58, 64
1, 217684, Note_on_c, 0, 36, 87
1, 217722, Note_off_c, 0, 36, 64
1, 217738, Note_off_c, 0, 48, 64
1, 217760, Note_on_c, 0, 70, 54
1, 217762, Note_on_c, 0, 58, 55
1, 217816, Note_off_c, 0, 70, 64
1, 217834, Note_off_c, 0, 58, 64
1, 217842, Note_on_c, 0, 46, 90
1, 217842, Note_on_c, 0, 34, 88
1, 217876, Note_off_c, 0, 34, 64
1, 217882, Note_off_c, 0, 46, 64
1, 217896, Note_on_c, 0, 58, 70
1, 217904, Note_on_c, 0, 70, 62
1, 217912, Note_on_c, 0, 68, 75
1, 217956, Note_off_c, 0, 68, 64
1, 217974, Note_off_c, 0, 58, 64
1, 217978, Note_on_c, 0, 51, 92
1, 217980, Note_on_c, 0, 39, 86
1, 218018, Note_off_c, 0, 70, 64
1, 218044, Note_off_c, 0, 51, 64
1, 218070, Note_off_c, 0, 39, 64
1, 218130, Note_on_c, 0, 50, 95
1, 218140, Note_on_c, 0, 38, 83
1, 218170, Note_off_c, 0, 50, 64
1, 218182, Note_off_c, 0, 38, 64
1, 218224, Note_on_c, 0, 77, 95
1, 218228, Note_on_c, 0, 65, 83
1, 218230, Note_on_c, 0, 68, 71
1, 218288, Note_on_c, 0, 48, 59
1, 218288, Note_on_c, 0, 50, 73
1, 218288, Note_on_c, 0, 36, 87
1, 218322, Note_off_c, 0, 36, 64
1, 218328, Note_off_c, 0, 77, 64
1, 218330, Note_off_c, 0, 48, 64
1, 218332, Note_off_c, 0, 50, 64
1, 218390, Note_off_c, 0, 65, 64
1, 218410, Note_off_c, 0, 68, 64
1, 218428, Note_on_c, 0, 46, 86
1, 218442, Note_on_c, 0, 34, 76
1, 218480, Note_off_c, 0, 34, 64
1, 218514, Note_off_c, 0, 46, 64
1, 218550, Control_c, 0, 64, 0
1, 218588, Note_on_c, 0, 63, 100
1, 218588, Note_on_c, 0, 75, 92
1, 218594, Note_on_c, 0, 67, 87
1, 218600, Note_on_c, 0, 51, 96
1, 218604, Note_on_c, 0, 39, 86
1, 218652, Note_off_c, 0, 39, 64
1, 218660, Note_off_c, 0, 51, 64
1, 218692, Note_off_c, 0, 75, 64
1, 218700, Control_c, 0, 64, 127
1, 218726, Note_off_c, 0, 67, 64
1, 218758, Note_off_c, 0, 63, 64
1, 219094, Note_on_c, 0, 57, 81
1, 219094, Note_on_c, 0, 51, 84
1, 219102, Note_on_c, 0, 63, 90
1, 219102, Note_on_c, 0, 59, 86
1, 219114, Note_on_c, 0, 35, 102
1, 219114, Note_on_c, 0, 42, 79
1, 219117, Note_on_c, 0, 47, 83
1, 219268, Control_c, 0, 64, 0
1, 219370, Note_off_c, 0, 47, 64
1, 219396, Note_off_c, 0, 35, 64
1, 219406, Note_off_c, 0, 51, 64
1, 219416, Note_off_c, 0, 42, 64
1, 219420, Control_c, 0, 64, 127
1, 219424, Note_off_c, 0, 63, 64
1, 219426, Note_off_c, 0, 57, 64
1, 219450, Note_off_c, 0, 59, 64
1, 219510, Note_on_c, 0, 51, 88
1, 219510, Note_on_c, 0, 57, 63
1, 219516, Note_on_c, 0, 59, 82
1, 219520, Note_on_c, 0, 63, 81
1, 219522, Note_on_c, 0, 35, 93
1, 219526, Note_on_c, 0, 47, 93
1, 219542, Note_on_c, 0, 42, 64
1, 219590, Control_c, 0, 64, 0
1, 219696, Note_off_c, 0, 47, 64
1, 219704, Note_off_c, 0, 35, 64
1, 219726, Note_off_c, 0, 51, 64
1, 219728, Control_c, 0, 64, 127
1, 219752, Note_off_c, 0, 42, 64
1, 219770, Note_off_c, 0, 57, 64
1, 219776, Note_off_c, 0, 63, 64
1, 219800, Note_off_c, 0, 59, 64
1, 219866, Note_on_c, 0, 35, 88
1, 219876, Note_on_c, 0, 51, 96
1, 219878, Note_on_c, 0, 57, 65
1, 219882, Control_c, 0, 64, 0
1, 219886, Note_on_c, 0, 59, 75
1, 219888, Note_on_c, 0, 63, 89
1, 219892, Note_on_c, 0, 47, 93
1, 219894, Note_on_c, 0, 42, 80
1, 220018, Note_off_c, 0, 47, 64
1, 220020, Note_off_c, 0, 35, 64
1, 220034, Control_c, 0, 64, 127
1, 220036, Note_off_c, 0, 51, 64
1, 220074, Note_off_c, 0, 42, 64
1, 220102, Note_off_c, 0, 57, 64
1, 220116, Note_off_c, 0, 63, 64
1, 220136, Note_off_c, 0, 59, 64
1, 220208, Note_on_c, 0, 35, 94
1, 220220, Note_on_c, 0, 51, 99
1, 220230, Note_on_c, 0, 59, 79
1, 220230, Note_on_c, 0, 57, 78
1, 220236, Note_on_c, 0, 42, 75
1, 220236, Note_on_c, 0, 63, 91
1, 220240, Note_on_c, 0, 47, 90
1, 220356, Note_off_c, 0, 35, 64
1, 220360, Note_off_c, 0, 51, 64
1, 220360, Note_off_c, 0, 47, 64
1, 220422, Note_off_c, 0, 42, 64
1, 220426, Note_off_c, 0, 57, 64
1, 220446, Note_off_c, 0, 59, 64
1, 220462, Note_off_c, 0, 63, 64
1, 220536, Note_on_c, 0, 35, 95
1, 220558, Control_c, 0, 64, 0
1, 220596, Note_on_c, 0, 42, 83
1, 220602, Note_on_c, 0, 51, 97
1, 220614, Note_on_c, 0, 47, 94
1, 220618, Note_on_c, 0, 57, 84
1, 220628, Note_on_c, 0, 63, 93
1, 220631, Note_on_c, 0, 59, 89
1, 220646, Note_off_c, 0, 35, 64
1, 220654, Note_off_c, 0, 47, 64
1, 220692, Note_off_c, 0, 42, 64
1, 220700, Control_c, 0, 64, 127
1, 220750, Note_off_c, 0, 51, 64
1, 220812, Note_off_c, 0, 57, 64
1, 220838, Note_off_c, 0, 59, 64
1, 220932, Note_off_c, 0, 63, 64
1, 221162, Note_on_c, 0, 56, 79
1, 221165, Note_on_c, 0, 52, 107
1, 221168, Note_on_c, 0, 64, 103
1, 221170, Note_on_c, 0, 59, 92
1, 221172, Note_on_c, 0, 40, 111
1, 221174, Note_on_c, 0, 28, 101
1, 221184, Note_on_c, 0, 35, 88
1, 221218, Note_off_c, 0, 35, 64
1, 221294, Control_c, 0, 64, 0
1, 221320, Note_on_c, 0, 35, 23
1, 221540, Note_off_c, 0, 28, 64
1, 221542, Note_off_c, 0, 52, 64
1, 221572, Control_c, 0, 64, 127
1, 221578, Note_off_c, 0, 40, 64
1, 221592, Note_off_c, 0, 59, 64
1, 221592, Note_off_c, 0, 35, 64
1, 221632, Note_off_c, 0, 56, 64
1, 221635, Note_off_c, 0, 64, 64
1, 222086, Note_on_c, 0, 40, 94
1, 222111, Note_on_c, 0, 47, 84
1, 222115, Note_on_c, 0, 56, 97
1, 222126, Note_on_c, 0, 68, 91
1, 222128, Note_on_c, 0, 59, 95
1, 222130, Note_on_c, 0, 52, 100
1, 222136, Note_on_c, 0, 64, 92
1, 222426, Note_off_c, 0, 56, 64
1, 222508, Note_off_c, 0, 52, 64
1, 222544, Note_off_c, 0, 59, 64
1, 222550, Note_off_c, 0, 64, 64
1, 222564, Note_off_c, 0, 47, 64
1, 222574, Note_off_c, 0, 40, 64
1, 222626, Note_off_c, 0, 68, 64
1, 222830, Note_on_c, 0, 40, 97
1, 222854, Note_on_c, 0, 47, 90
1, 222857, Note_on_c, 0, 56, 97
1, 222864, Note_on_c, 0, 68, 95
1, 222869, Note_on_c, 0, 59, 92
1, 222872, Note_on_c, 0, 64, 92
1, 222880, Note_on_c, 0, 52, 94
1, 223002, Note_off_c, 0, 40, 64
1, 223152, Note_off_c, 0, 56, 64
1, 223226, Note_off_c, 0, 47, 64
1, 223232, Note_off_c, 0, 52, 64
1, 223242, Note_off_c, 0, 59, 64
1, 223286, Note_off_c, 0, 64, 64
1, 223314, Note_off_c, 0, 68, 64
1, 223492, Note_on_c, 0, 40, 93
1, 223522, Note_on_c, 0, 47, 74
1, 223538, Control_c, 0, 64, 0
1, 223552, Note_on_c, 0, 56, 96
1, 223555, Note_on_c, 0, 68, 94
1, 223558, Note_on_c, 0, 52, 105
1, 223562, Note_on_c, 0, 59, 88
1, 223568, Note_on_c, 0, 64, 89
1, 223624, Note_off_c, 0, 40, 64
1, 223674, Note_off_c, 0, 47, 64
1, 223677, Control_c, 0, 64, 127
1, 223682, Note_off_c, 0, 52, 64
1, 223714, Note_off_c, 0, 56, 64
1, 223800, Note_off_c, 0, 59, 64
1, 223924, Note_off_c, 0, 64, 64
1, 224026, Note_off_c, 0, 68, 64
1, 224184, Note_on_c, 0, 40, 97
1, 224210, Note_on_c, 0, 47, 81
1, 224232, Note_on_c, 0, 56, 81
1, 224235, Note_on_c, 0, 68, 92
1, 224244, Note_on_c, 0, 52, 96
1, 224244, Note_on_c, 0, 59, 84
1, 224247, Control_c, 0, 64, 0
1, 224252, Note_on_c, 0, 64, 85
1, 224320, Note_off_c, 0, 40, 64
1, 224328, Note_off_c, 0, 56, 64
1, 224344, Note_off_c, 0, 52, 64
1, 224378, Note_off_c, 0, 59, 64
1, 224384, Note_off_c, 0, 47, 64
1, 224384, Control_c, 0, 64, 127
1, 224512, Note_off_c, 0, 64, 64
1, 224666, Note_off_c, 0, 68, 64
1, 224820, Note_on_c, 0, 40, 82
1, 224856, Note_on_c, 0, 47, 75
1, 224856, Note_on_c, 0, 56, 57
1, 224874, Note_off_c, 0, 40, 64
1, 224886, Note_on_c, 0, 52, 100
1, 224894, Note_on_c, 0, 68, 92
1, 224896, Note_on_c, 0, 59, 74
1, 224904, Note_off_c, 0, 56, 64
1, 224904, Note_on_c, 0, 64, 81
1, 224932, Note_off_c, 0, 47, 64
1, 224935, Note_off_c, 0, 52, 64
1, 224962, Note_off_c, 0, 59, 64
1, 225090, Note_off_c, 0, 64, 64
1, 225278, Note_off_c, 0, 68, 64
1, 225414, Note_on_c, 0, 56, 62
1, 225450, Note_on_c, 0, 40, 87
1, 225474, Control_c, 0, 64, 0
1, 225476, Note_off_c, 0, 56, 64
1, 225480, Note_on_c, 0, 47, 68
1, 225490, Note_on_c, 0, 59, 47
1, 225518, Note_on_c, 0, 68, 92
1, 225526, Note_on_c, 0, 64, 75
1, 225526, Note_on_c, 0, 52, 100
1, 225534, Note_off_c, 0, 59, 64
1, 225542, Note_off_c, 0, 40, 64
1, 225562, Note_off_c, 0, 68, 64
1, 225562, Note_off_c, 0, 64, 64
1, 225562, Note_off_c, 0, 52, 64
1, 225576, Note_off_c, 0, 47, 64
1, 225582, Control_c, 0, 64, 127
1, 225716, Note_on_c, 0, 51, 84
1, 225719, Note_on_c, 0, 39, 70
1, 225808, Note_off_c, 0, 51, 64
1, 225840, Note_off_c, 0, 39, 64
1, 225846, Note_on_c, 0, 49, 70
1, 225856, Note_on_c, 0, 37, 74
1, 225940, Note_off_c, 0, 49, 64
1, 225962, Note_off_c, 0, 37, 64
1, 225976, Note_on_c, 0, 47, 80
1, 225984, Note_on_c, 0, 35, 83
1, 226042, Note_off_c, 0, 47, 64
1, 226042, Note_off_c, 0, 35, 64
1, 226058, Control_c, 0, 64, 0
1, 226126, Note_on_c, 0, 52, 90
1, 226134, Note_on_c, 0, 40, 97
1, 226204, Note_off_c, 0, 52, 64
1, 226234, Note_off_c, 0, 40, 64
1, 226260, Note_on_c, 0, 51, 75
1, 226268, Note_on_c, 0, 39, 70
1, 226348, Note_off_c, 0, 39, 64
1, 226368, Note_off_c, 0, 51, 64
1, 226416, Note_on_c, 0, 49, 65
1, 226424, Note_on_c, 0, 37, 72
1, 226478, Note_off_c, 0, 37, 64
1, 226494, Note_off_c, 0, 49, 64
1, 226546, Note_on_c, 0, 47, 79
1, 226562, Note_on_c, 0, 35, 87
1, 226606, Note_off_c, 0, 47, 64
1, 226628, Note_off_c, 0, 35, 64
1, 226698, Note_on_c, 0, 52, 94
1, 226700, Note_on_c, 0, 40, 96
1, 226800, Note_off_c, 0, 52, 64
1, 226828, Note_off_c, 0, 40, 64
1, 226831, Note_on_c, 0, 39, 66
1, 226836, Note_on_c, 0, 51, 69
1, 226928, Note_off_c, 0, 51, 64
1, 226942, Note_off_c, 0, 39, 64
1, 226984, Note_on_c, 0, 37, 65
1, 226987, Note_on_c, 0, 49, 51
1, 227032, Note_off_c, 0, 37, 64
1, 227058, Note_off_c, 0, 49, 64
1, 227116, Note_on_c, 0, 47, 62
1, 227134, Note_on_c, 0, 35, 68
1, 227170, Note_off_c, 0, 47, 64
1, 227186, Note_off_c, 0, 35, 64
1, 227258, Note_on_c, 0, 52, 82
1, 227266, Note_on_c, 0, 40, 84
1, 227332, Note_off_c, 0, 40, 64
1, 227338, Note_off_c, 0, 52, 64
1, 227388, Note_on_c, 0, 39, 57
1, 227398, Note_on_c, 0, 51, 58
1, 227450, Note_off_c, 0, 39, 64
1, 227472, Note_off_c, 0, 51, 64
1, 227538, Note_on_c, 0, 49, 47
1, 227546, Note_on_c, 0, 37, 49
1, 227594, Note_off_c, 0, 37, 64
1, 227610, Note_off_c, 0, 49, 64
1, 227690, Note_on_c, 0, 47, 48
1, 227692, Note_on_c, 0, 35, 55
1, 227740, Note_off_c, 0, 35, 64
1, 227746, Note_off_c, 0, 47, 64
1, 227830, Note_on_c, 0, 40, 76
1, 227834, Note_on_c, 0, 52, 77
1, 227886, Note_off_c, 0, 40, 64
1, 227910, Note_off_c, 0, 52, 64
1, 227958, Note_on_c, 0, 39, 50
1, 227974, Note_on_c, 0, 51, 47
1, 228014, Note_off_c, 0, 39, 64
1, 228040, Note_off_c, 0, 51, 64
1, 228114, Note_on_c, 0, 49, 40
1, 228120, Note_on_c, 0, 37, 52
1, 228164, Note_off_c, 0, 37, 64
1, 228182, Note_off_c, 0, 49, 64
1, 228254, Note_on_c, 0, 35, 61
1, 228257, Note_on_c, 0, 47, 37
1, 228300, Note_off_c, 0, 35, 64
1, 228316, Note_off_c, 0, 47, 64
1, 228394, Note_on_c, 0, 52, 67
1, 228396, Note_on_c, 0, 40, 75
1, 228444, Note_off_c, 0, 52, 64
1, 228444, Note_off_c, 0, 40, 64
1, 228514, Note_on_c, 0, 51, 57
1, 228517, Note_on_c, 0, 39, 40
1, 228588, Note_off_c, 0, 51, 64
1, 228590, Note_off_c, 0, 39, 64
1, 228660, Note_on_c, 0, 49, 74
1, 228670, Note_on_c, 0, 37, 34
1, 228706, Note_off_c, 0, 49, 64
1, 228728, Note_off_c, 0, 37, 64
1, 228798, Note_on_c, 0, 35, 82
1, 228812, Note_on_c, 0, 47, 43
1, 228832, Note_off_c, 0, 35, 64
1, 228872, Note_off_c, 0, 47, 64
1, 228926, Note_on_c, 0, 59, 66
1, 228926, Note_on_c, 0, 56, 44
1, 228954, Note_on_c, 0, 40, 78
1, 228957, Note_on_c, 0, 52, 63
1, 228992, Note_off_c, 0, 40, 64
1, 229002, Note_off_c, 0, 52, 64
1, 229074, Note_on_c, 0, 51, 75
1, 229084, Note_on_c, 0, 39, 61
1, 229114, Note_off_c, 0, 51, 64
1, 229126, Note_off_c, 0, 39, 64
1, 229208, Note_on_c, 0, 49, 74
1, 229220, Note_on_c, 0, 37, 67
1, 229254, Note_off_c, 0, 49, 64
1, 229274, Note_off_c, 0, 37, 64
1, 229356, Note_on_c, 0, 35, 88
1, 229368, Note_on_c, 0, 47, 57
1, 229390, Note_off_c, 0, 35, 64
1, 229416, Note_off_c, 0, 47, 64
1, 229508, Note_on_c, 0, 52, 78
1, 229512, Note_on_c, 0, 40, 81
1, 229548, Note_off_c, 0, 52, 64
1, 229548, Note_off_c, 0, 40, 64
1, 229624, Note_on_c, 0, 51, 81
1, 229652, Note_on_c, 0, 39, 47
1, 229666, Note_off_c, 0, 51, 64
1, 229702, Note_off_c, 0, 39, 64
1, 229778, Note_on_c, 0, 37, 72
1, 229778, Note_on_c, 0, 49, 60
1, 229818, Note_off_c, 0, 59, 64
1, 229821, Note_off_c, 0, 37, 64
1, 229824, Note_off_c, 0, 49, 64
1, 229920, Note_on_c, 0, 35, 83
1, 229928, Note_on_c, 0, 47, 55
1, 229956, Note_off_c, 0, 35, 64
1, 229968, Note_off_c, 0, 56, 64
1, 229976, Note_off_c, 0, 47, 64
1, 230050, Note_on_c, 0, 57, 74
1, 230056, Note_on_c, 0, 59, 83
1, 230066, Note_on_c, 0, 52, 87
1, 230070, Note_on_c, 0, 40, 80
1, 230100, Note_off_c, 0, 52, 64
1, 230108, Note_off_c, 0, 40, 64
1, 230216, Note_on_c, 0, 51, 73
1, 230232, Note_on_c, 0, 39, 50
1, 230246, Note_off_c, 0, 59, 64
1, 230258, Note_off_c, 0, 51, 64
1, 230272, Note_off_c, 0, 57, 64
1, 230284, Note_off_c, 0, 39, 64
1, 230356, Note_on_c, 0, 49, 59
1, 230358, Note_on_c, 0, 37, 64
1, 230404, Note_off_c, 0, 49, 64
1, 230408, Note_off_c, 0, 37, 64
1, 230464, Note_on_c, 0, 57, 63
1, 230476, Note_on_c, 0, 59, 75
1, 230492, Note_on_c, 0, 35, 62
1, 230508, Note_off_c, 0, 57, 64
1, 230511, Note_off_c, 0, 59, 64
1, 230514, Note_on_c, 0, 47, 22
1, 230538, Note_off_c, 0, 35, 64
1, 230576, Note_off_c, 0, 47, 64
1, 230592, Note_on_c, 0, 59, 56
1, 230606, Note_on_c, 0, 56, 67
1, 230640, Note_on_c, 0, 52, 63
1, 230640, Note_on_c, 0, 40, 70
1, 230682, Note_off_c, 0, 40, 64
1, 230686, Note_off_c, 0, 52, 64
1, 230760, Control_c, 0, 64, 127
1, 230788, Note_on_c, 0, 51, 42
1, 230790, Note_on_c, 0, 39, 50
1, 230842, Note_off_c, 0, 39, 64
1, 230850, Note_off_c, 0, 51, 64
1, 230888, Note_off_c, 0, 56, 64
1, 230910, Note_off_c, 0, 59, 64
1, 230940, Note_on_c, 0, 49, 59
1, 230950, Note_on_c, 0, 37, 23
1, 230988, Note_off_c, 0, 49, 64
1, 231014, Note_off_c, 0, 37, 64
1, 231040, Note_on_c, 0, 56, 48
1, 231050, Note_on_c, 0, 64, 54
1, 231056, Note_on_c, 0, 59, 43
1, 231066, Control_c, 0, 64, 0
1, 231070, Note_on_c, 0, 47, 68
1, 231076, Note_on_c, 0, 35, 47
1, 231094, Note_off_c, 0, 56, 64
1, 231102, Note_off_c, 0, 64, 64
1, 231106, Note_off_c, 0, 59, 64
1, 231112, Note_off_c, 0, 47, 64
1, 231130, Note_off_c, 0, 35, 64
1, 231180, Note_on_c, 0, 59, 54
1, 231188, Note_on_c, 0, 68, 67
1, 231198, Note_on_c, 0, 56, 30
1, 231218, Note_on_c, 0, 52, 66
1, 231224, Note_on_c, 0, 40, 61
1, 231262, Note_off_c, 0, 52, 64
1, 231270, Note_off_c, 0, 40, 64
1, 231362, Note_on_c, 0, 39, 48
1, 231364, Note_on_c, 0, 51, 46
1, 231412, Note_off_c, 0, 39, 64
1, 231422, Note_off_c, 0, 51, 64
1, 231502, Note_on_c, 0, 37, 41
1, 231502, Note_on_c, 0, 49, 32
1, 231556, Note_off_c, 0, 37, 64
1, 231572, Note_off_c, 0, 49, 64
1, 231604, Note_off_c, 0, 59, 64
1, 231614, Note_off_c, 0, 56, 64
1, 231628, Note_on_c, 0, 35, 58
1, 231630, Note_on_c, 0, 47, 38
1, 231676, Note_off_c, 0, 35, 64
1, 231692, Note_off_c, 0, 47, 64
1, 231786, Note_on_c, 0, 66, 62
1, 231794, Note_on_c, 0, 57, 44
1, 231800, Note_on_c, 0, 59, 54
1, 231800, Note_on_c, 0, 40, 59
1, 231800, Note_on_c, 0, 52, 66
1, 231806, Note_on_c, 0, 40, 28
1, 231836, Note_off_c, 0, 68, 64
1, 231844, Note_off_c, 0, 52, 64
1, 231846, Note_off_c, 0, 40, 64
1, 231866, Note_off_c, 0, 40, 64
1, 231904, Note_on_c, 0, 51, 75
1, 231920, Note_on_c, 0, 39, 46
1, 231942, Note_off_c, 0, 51, 64
1, 231972, Note_off_c, 0, 39, 64
1, 232036, Note_on_c, 0, 49, 70
1, 232039, Note_on_c, 0, 37, 66
1, 232078, Note_off_c, 0, 49, 64
1, 232081, Note_off_c, 0, 37, 64
1, 232090, Note_off_c, 0, 59, 64
1, 232114, Note_off_c, 0, 57, 64
1, 232176, Note_on_c, 0, 47, 68
1, 232180, Note_on_c, 0, 35, 88
1, 232212, Note_off_c, 0, 35, 64
1, 232218, Note_off_c, 0, 47, 64
1, 232262, Note_off_c, 0, 66, 64
1, 232314, Note_on_c, 0, 56, 67
1, 232314, Note_on_c, 0, 59, 86
1, 232318, Note_on_c, 0, 52, 97
1, 232330, Note_on_c, 0, 40, 78
1, 232348, Note_off_c, 0, 52, 64
1, 232368, Note_off_c, 0, 40, 64
1, 232458, Note_on_c, 0, 51, 77
1, 232496, Note_off_c, 0, 51, 64
1, 232498, Note_on_c, 0, 39, 15
1, 232556, Note_off_c, 0, 39, 64
1, 232592, Note_on_c, 0, 49, 71
1, 232606, Note_on_c, 0, 37, 53
1, 232634, Note_off_c, 0, 49, 64
1, 232652, Note_off_c, 0, 56, 64
1, 232652, Note_off_c, 0, 59, 64
1, 232655, Note_off_c, 0, 37, 64
1, 232730, Note_on_c, 0, 47, 57
1, 232733, Note_on_c, 0, 56, 62
1, 232740, Note_on_c, 0, 59, 55
1, 232742, Note_on_c, 0, 35, 49
1, 232748, Note_on_c, 0, 64, 70
1, 232776, Note_off_c, 0, 47, 64
1, 232786, Note_off_c, 0, 56, 64
1, 232794, Note_off_c, 0, 35, 64
1, 232794, Note_off_c, 0, 64, 64
1, 232802, Note_off_c, 0, 59, 64
1, 232870, Note_on_c, 0, 68, 84
1, 232873, Note_on_c, 0, 59, 67
1, 232888, Note_on_c, 0, 56, 42
1, 232890, Note_on_c, 0, 52, 70
1, 232902, Note_on_c, 0, 40, 57
1, 232932, Note_off_c, 0, 52, 64
1, 232948, Note_off_c, 0, 40, 64
1, 232998, Note_on_c, 0, 51, 82
1, 233014, Note_on_c, 0, 39, 40
1, 233032, Note_off_c, 0, 59, 64
1, 233036, Note_off_c, 0, 51, 64
1, 233050, Control_c, 0, 64, 127
1, 233070, Note_off_c, 0, 39, 64
1, 233138, Note_on_c, 0, 49, 72
1, 233156, Note_on_c, 0, 37, 60
1, 233162, Note_off_c, 0, 56, 64
1, 233180, Note_off_c, 0, 49, 64
1, 233200, Note_off_c, 0, 37, 64
1, 233203, Note_off_c, 0, 68, 64
1, 233234, Control_c, 0, 64, 0
1, 233266, Note_on_c, 0, 63, 79
1, 233268, Note_on_c, 0, 57, 62
1, 233276, Note_on_c, 0, 35, 77
1, 233284, Note_on_c, 0, 47, 45
1, 233312, Note_off_c, 0, 57, 64
1, 233314, Note_off_c, 0, 63, 64
1, 233314, Note_off_c, 0, 35, 64
1, 233340, Note_off_c, 0, 47, 64
1, 233398, Note_on_c, 0, 64, 85
1, 233402, Note_on_c, 0, 56, 77
1, 233422, Note_on_c, 0, 52, 76
1, 233452, Note_on_c, 0, 40, 27
1, 233455, Note_off_c, 0, 56, 64
1, 233462, Note_off_c, 0, 52, 64
1, 233464, Note_off_c, 0, 64, 64
1, 233512, Note_off_c, 0, 40, 64
1, 233556, Note_on_c, 0, 51, 75
1, 233572, Note_on_c, 0, 39, 57
1, 233598, Note_off_c, 0, 51, 64
1, 233616, Note_off_c, 0, 39, 64
1, 233672, Note_on_c, 0, 56, 71
1, 233676, Note_on_c, 0, 68, 81
1, 233688, Note_on_c, 0, 49, 72
1, 233702, Note_on_c, 0, 64, 45
1, 233712, Note_off_c, 0, 56, 64
1, 233718, Note_on_c, 0, 37, 23
1, 233728, Note_off_c, 0, 49, 64
1, 233752, Note_off_c, 0, 64, 64
1, 233772, Note_off_c, 0, 68, 64
1, 233780, Note_off_c, 0, 37, 64
1, 233786, Control_c, 0, 64, 127
1, 233820, Note_on_c, 0, 47, 64
1, 233824, Note_on_c, 0, 35, 85
1, 233832, Control_c, 0, 64, 0
1, 233858, Note_off_c, 0, 35, 64
1, 233864, Note_off_c, 0, 47, 64
1, 233962, Note_on_c, 0, 71, 103
1, 233972, Note_on_c, 0, 59, 87
1, 233974, Note_on_c, 0, 68, 72
1, 233976, Note_on_c, 0, 52, 80
1, 233992, Note_on_c, 0, 40, 58
1, 234012, Note_off_c, 0, 52, 64
1, 234026, Note_off_c, 0, 59, 64
1, 234036, Note_off_c, 0, 40, 64
1, 234048, Control_c, 0, 64, 127
1, 234118, Note_on_c, 0, 51, 68
1, 234126, Note_on_c, 0, 39, 60
1, 234148, Note_off_c, 0, 71, 64
1, 234160, Note_off_c, 0, 51, 64
1, 234168, Note_off_c, 0, 39, 64
1, 234171, Note_off_c, 0, 68, 64
1, 234240, Note_on_c, 0, 61, 81
1, 234242, Note_on_c, 0, 73, 83
1, 234250, Note_on_c, 0, 49, 64
1, 234254, Note_on_c, 0, 37, 55
1, 234278, Note_off_c, 0, 61, 64
1, 234286, Note_off_c, 0, 73, 64
1, 234294, Note_off_c, 0, 49, 64
1, 234300, Note_off_c, 0, 37, 64
1, 234340, Control_c, 0, 64, 0
1, 234350, Note_on_c, 0, 75, 88
1, 234358, Note_on_c, 0, 63, 79
1, 234364, Note_on_c, 0, 68, 66
1, 234372, Note_on_c, 0, 47, 73
1, 234382, Note_on_c, 0, 35, 80
1, 234404, Note_off_c, 0, 63, 64
1, 234410, Note_off_c, 0, 47, 64
1, 234416, Note_off_c, 0, 75, 64
1, 234416, Note_off_c, 0, 68, 64
1, 234416, Note_off_c, 0, 35, 64
1, 234498, Note_on_c, 0, 68, 61
1, 234501, Note_on_c, 0, 76, 92
1, 234506, Note_on_c, 0, 64, 84
1, 234512, Note_on_c, 0, 52, 91
1, 234520, Note_on_c, 0, 40, 81
1, 234540, Note_off_c, 0, 76, 64
1, 234546, Note_off_c, 0, 52, 64
1, 234552, Note_off_c, 0, 68, 64
1, 234556, Note_off_c, 0, 40, 64
1, 234560, Note_off_c, 0, 64, 64
1, 234632, Note_on_c, 0, 51, 83
1, 234650, Note_on_c, 0, 39, 55
1, 234678, Note_off_c, 0, 51, 64
1, 234696, Note_off_c, 0, 39, 64
1, 234786, Note_on_c, 0, 49, 75
1, 234792, Note_on_c, 0, 37, 72
1, 234798, Note_on_c, 0, 68, 45
1, 234802, Note_on_c, 0, 71, 52
1, 234824, Note_off_c, 0, 49, 64
1, 234832, Note_off_c, 0, 37, 64
1, 234852, Note_off_c, 0, 71, 64
1, 234854, Note_off_c, 0, 68, 64
1, 234878, Control_c, 0, 64, 127
1, 234928, Note_on_c, 0, 47, 53
1, 234931, Note_on_c, 0, 35, 78
1, 234940, Control_c, 0, 64, 0
1, 234970, Note_off_c, 0, 35, 64
1, 234980, Note_off_c, 0, 47, 64
1, 235080, Note_on_c, 0, 80, 86
1, 235082, Note_on_c, 0, 71, 54
1, 235086, Note_on_c, 0, 52, 87
1, 235086, Note_on_c, 0, 68, 62
1, 235092, Note_on_c, 0, 40, 88
1, 235120, Note_off_c, 0, 52, 64
1, 235128, Note_off_c, 0, 40, 64
1, 235216, Control_c, 0, 64, 127
1, 235230, Note_on_c, 0, 39, 55
1, 235240, Note_on_c, 0, 51, 65
1, 235276, Note_off_c, 0, 39, 64
1, 235284, Note_off_c, 0, 51, 64
1, 235350, Note_off_c, 0, 80, 64
1, 235374, Note_off_c, 0, 71, 64
1, 235378, Note_on_c, 0, 49, 50
1, 235378, Note_on_c, 0, 37, 48
1, 235420, Note_off_c, 0, 68, 64
1, 235430, Note_off_c, 0, 37, 64
1, 235432, Note_off_c, 0, 49, 64
1, 235548, Note_on_c, 0, 35, 75
1, 235548, Note_on_c, 0, 47, 62
1, 235588, Note_off_c, 0, 35, 64
1, 235604, Note_off_c, 0, 47, 64
1, 235728, Note_on_c, 0, 69, 48
1, 235732, Note_on_c, 0, 71, 79
1, 235734, Note_on_c, 0, 59, 49
1, 235748, Note_on_c, 0, 40, 59
1, 235754, Control_c, 0, 64, 0
1, 235756, Note_on_c, 0, 66, 29
1, 235760, Note_on_c, 0, 52, 32
1, 235794, Note_off_c, 0, 40, 64
1, 235828, Note_off_c, 0, 52, 64
1, 235860, Note_on_c, 0, 51, 81
1, 235898, Note_off_c, 0, 51, 64
1, 235906, Note_on_c, 0, 39, 19
1, 235968, Note_off_c, 0, 39, 64
1, 235998, Note_on_c, 0, 37, 76
1, 236002, Note_on_c, 0, 49, 67
1, 236038, Note_off_c, 0, 37, 64
1, 236044, Note_off_c, 0, 49, 64
1, 236134, Note_on_c, 0, 47, 62
1, 236140, Note_on_c, 0, 35, 66
1, 236176, Note_off_c, 0, 47, 64
1, 236184, Note_off_c, 0, 35, 64
1, 236222, Note_off_c, 0, 69, 64
1, 236250, Note_off_c, 0, 71, 64
1, 236322, Note_off_c, 0, 59, 64
1, 236324, Note_off_c, 0, 66, 64
1, 236327, Note_on_c, 0, 52, 22
1, 236330, Note_on_c, 0, 40, 59
1, 236376, Note_off_c, 0, 40, 64
1, 236384, Note_off_c, 0, 52, 64
1, 236410, Note_on_c, 0, 51, 86
1, 236438, Note_on_c, 0, 39, 35
1, 236448, Note_off_c, 0, 51, 64
1, 236460, Control_c, 0, 64, 127
1, 236492, Control_c, 0, 64, 0
1, 236498, Note_off_c, 0, 39, 64
1, 236546, Note_on_c, 0, 49, 71
1, 236548, Note_on_c, 0, 69, 57
1, 236548, Note_on_c, 0, 59, 69
1, 236548, Note_on_c, 0, 37, 70
1, 236554, Note_on_c, 0, 71, 41
1, 236586, Note_off_c, 0, 49, 64
1, 236588, Note_off_c, 0, 37, 64
1, 236592, Note_off_c, 0, 59, 64
1, 236598, Note_off_c, 0, 69, 64
1, 236614, Note_off_c, 0, 71, 64
1, 236640, Note_on_c, 0, 71, 41
1, 236648, Note_on_c, 0, 69, 74
1, 236654, Note_on_c, 0, 59, 77
1, 236688, Note_on_c, 0, 35, 71
1, 236688, Note_on_c, 0, 47, 43
1, 236700, Note_off_c, 0, 71, 64
1, 236704, Note_off_c, 0, 59, 64
1, 236726, Note_off_c, 0, 69, 64
1, 236728, Note_off_c, 0, 35, 64
1, 236748, Note_off_c, 0, 47, 64
1, 236780, Note_on_c, 0, 71, 66
1, 236785, Note_on_c, 0, 59, 68
1, 236785, Note_on_c, 0, 69, 80
1, 236814, Note_on_c, 0, 52, 87
1, 236838, Note_on_c, 0, 40, 46
1, 236850, Note_off_c, 0, 52, 64
1, 236880, Note_off_c, 0, 59, 64
1, 236890, Note_off_c, 0, 40, 64
1, 236904, Note_off_c, 0, 71, 64
1, 236904, Note_off_c, 0, 69, 64
1, 236948, Note_on_c, 0, 51, 87
1, 236970, Note_on_c, 0, 39, 57
1, 236990, Note_off_c, 0, 51, 64
1, 237014, Note_off_c, 0, 39, 64
1, 237066, Note_on_c, 0, 69, 65
1, 237084, Note_on_c, 0, 59, 81
1, 237087, Note_on_c, 0, 71, 81
1, 237092, Note_on_c, 0, 49, 75
1, 237126, Note_on_c, 0, 37, 17
1, 237129, Note_off_c, 0, 49, 64
1, 237154, Note_off_c, 0, 59, 64
1, 237184, Note_off_c, 0, 37, 64
1, 237190, Note_off_c, 0, 69, 64
1, 237196, Note_off_c, 0, 71, 64
1, 237202, Note_on_c, 0, 47, 70
1, 237210, Note_on_c, 0, 35, 90
1, 237246, Note_off_c, 0, 35, 64
1, 237264, Note_off_c, 0, 47, 64
1, 237366, Note_on_c, 0, 71, 100
1, 237372, Note_on_c, 0, 68, 72
1, 237374, Note_on_c, 0, 59, 93
1, 237378, Note_on_c, 0, 52, 72
1, 237412, Note_on_c, 0, 40, 16
1, 237418, Note_off_c, 0, 52, 64
1, 237460, Note_off_c, 0, 40, 64
1, 237460, Control_c, 0, 64, 127
1, 237480, Note_off_c, 0, 59, 64
1, 237498, Note_on_c, 0, 51, 81
1, 237526, Note_on_c, 0, 39, 45
1, 237534, Note_off_c, 0, 68, 64
1, 237538, Note_off_c, 0, 51, 64
1, 237560, Note_off_c, 0, 71, 64
1, 237578, Note_off_c, 0, 39, 64
1, 237646, Note_on_c, 0, 49, 58
1, 237646, Note_on_c, 0, 37, 59
1, 237694, Note_off_c, 0, 49, 64
1, 237697, Note_off_c, 0, 37, 64
1, 237778, Note_on_c, 0, 47, 54
1, 237778, Note_on_c, 0, 35, 75
1, 237816, Note_off_c, 0, 35, 64
1, 237826, Note_off_c, 0, 47, 64
1, 237838, Note_on_c, 0, 76, 79
1, 237841, Note_on_c, 0, 64, 82
1, 237854, Note_on_c, 0, 68, 43
1, 237857, Control_c, 0, 64, 0
1, 237872, Note_off_c, 0, 76, 64
1, 237878, Note_off_c, 0, 64, 64
1, 237916, Note_off_c, 0, 68, 64
1, 237932, Note_on_c, 0, 76, 72
1, 237950, Note_on_c, 0, 52, 72
1, 237952, Note_on_c, 0, 64, 64
1, 237966, Note_on_c, 0, 68, 45
1, 237984, Note_on_c, 0, 40, 16
1, 237990, Note_off_c, 0, 52, 64
1, 238032, Note_off_c, 0, 40, 64
1, 238044, Control_c, 0, 64, 127
1, 238090, Note_on_c, 0, 39, 45
1, 238094, Note_on_c, 0, 51, 41
1, 238142, Note_off_c, 0, 39, 64
1, 238158, Note_off_c, 0, 51, 64
1, 238210, Note_off_c, 0, 76, 64
1, 238213, Note_on_c, 0, 49, 50
1, 238228, Note_off_c, 0, 68, 64
1, 238228, Note_on_c, 0, 37, 23
1, 238268, Note_off_c, 0, 49, 64
1, 238271, Note_off_c, 0, 64, 64
1, 238290, Note_off_c, 0, 37, 64
1, 238360, Note_on_c, 0, 35, 75
1, 238362, Note_on_c, 0, 47, 44
1, 238398, Note_off_c, 0, 35, 64
1, 238418, Note_off_c, 0, 47, 64
1, 238450, Control_c, 0, 64, 0
1, 238494, Note_on_c, 0, 40, 94
1, 238496, Note_on_c, 0, 52, 87
1, 238498, Note_on_c, 0, 68, 69
1, 238512, Note_on_c, 0, 64, 48
1, 238522, Note_on_c, 0, 59, 41
1, 238525, Note_off_c, 0, 40, 64
1, 238530, Note_off_c, 0, 52, 64
1, 238612, Control_c, 0, 64, 127
1, 238650, Note_on_c, 0, 39, 45
1, 238652, Note_on_c, 0, 51, 62
1, 238698, Note_off_c, 0, 51, 64
1, 238702, Note_off_c, 0, 39, 64
1, 238780, Note_on_c, 0, 49, 62
1, 238780, Note_on_c, 0, 37, 62
1, 238824, Note_off_c, 0, 49, 64
1, 238824, Note_off_c, 0, 37, 64
1, 238840, Note_off_c, 0, 64, 64
1, 238876, Note_off_c, 0, 68, 64
1, 238914, Note_on_c, 0, 35, 84
1, 238914, Note_on_c, 0, 47, 48
1, 238922, Note_off_c, 0, 59, 64
1, 238948, Note_off_c, 0, 35, 64
1, 238970, Note_off_c, 0, 47, 64
1, 238996, Control_c, 0, 64, 0
1, 239054, Note_on_c, 0, 66, 74
1, 239074, Note_on_c, 0, 57, 51
1, 239077, Note_on_c, 0, 52, 67
1, 239080, Note_on_c, 0, 59, 61
1, 239090, Note_on_c, 0, 40, 46
1, 239120, Note_off_c, 0, 52, 64
1, 239142, Note_off_c, 0, 40, 64
1, 239196, Control_c, 0, 64, 127
1, 239196, Note_on_c, 0, 51, 86
1, 239222, Note_on_c, 0, 39, 55
1, 239240, Note_off_c, 0, 51, 64
1, 239266, Note_off_c, 0, 57, 64
1, 239268, Note_off_c, 0, 39, 64
1, 239282, Note_off_c, 0, 59, 64
1, 239348, Note_on_c, 0, 49, 66
1, 239348, Note_on_c, 0, 57, 58
1, 239352, Note_on_c, 0, 37, 65
1, 239354, Note_on_c, 0, 59, 69
1, 239390, Note_off_c, 0, 49, 64
1, 239392, Note_off_c, 0, 37, 64
1, 239410, Note_off_c, 0, 59, 64
1, 239422, Note_off_c, 0, 57, 64
1, 239426, Control_c, 0, 64, 0
1, 239472, Note_on_c, 0, 35, 82
1, 239475, Note_on_c, 0, 59, 83
1, 239480, Note_on_c, 0, 47, 42
1, 239488, Note_on_c, 0, 57, 78
1, 239506, Note_off_c, 0, 35, 64
1, 239538, Note_off_c, 0, 57, 64
1, 239540, Note_off_c, 0, 47, 64
1, 239552, Note_off_c, 0, 59, 64
1, 239620, Note_on_c, 0, 52, 88
1, 239620, Note_on_c, 0, 59, 79
1, 239623, Note_on_c, 0, 40, 87
1, 239626, Note_on_c, 0, 57, 64
1, 239654, Note_off_c, 0, 52, 64
1, 239660, Note_off_c, 0, 40, 64
1, 239704, Note_off_c, 0, 59, 64
1, 239714, Note_off_c, 0, 57, 64
1, 239717, Control_c, 0, 64, 127
1, 239770, Note_on_c, 0, 39, 45
1, 239786, Note_on_c, 0, 51, 37
1, 239822, Note_off_c, 0, 39, 64
1, 239854, Note_off_c, 0, 51, 64
1, 239872, Note_off_c, 0, 66, 64
1, 239902, Note_on_c, 0, 49, 76
1, 239922, Note_on_c, 0, 66, 78
1, 239922, Note_on_c, 0, 59, 60
1, 239922, Note_on_c, 0, 57, 59
1, 239922, Note_on_c, 0, 37, 41
1, 239938, Note_off_c, 0, 49, 64
1, 239974, Note_off_c, 0, 57, 64
1, 239976, Note_off_c, 0, 59, 64
1, 239984, Note_off_c, 0, 37, 64
1, 240006, Note_off_c, 0, 66, 64
1, 240042, Note_on_c, 0, 47, 73
1, 240044, Note_on_c, 0, 35, 96
1, 240078, Note_off_c, 0, 35, 64
1, 240088, Note_off_c, 0, 47, 64
1, 240118, Control_c, 0, 64, 0
1, 240194, Note_on_c, 0, 68, 81
1, 240204, Note_on_c, 0, 57, 64
1, 240207, Note_on_c, 0, 52, 77
1, 240207, Note_on_c, 0, 59, 67
1, 240210, Note_on_c, 0, 40, 76
1, 240246, Note_off_c, 0, 52, 64
1, 240246, Note_off_c, 0, 40, 64
1, 240249, Note_off_c, 0, 59, 64
1, 240256, Note_off_c, 0, 57, 64
1, 240276, Note_off_c, 0, 68, 64
1, 240302, Control_c, 0, 64, 127
1, 240326, Note_on_c, 0, 57, 54
1, 240332, Note_on_c, 0, 59, 58
1, 240332, Note_on_c, 0, 51, 81
1, 240332, Note_on_c, 0, 66, 75
1, 240362, Note_on_c, 0, 39, 32
1, 240370, Note_off_c, 0, 51, 64
1, 240372, Note_off_c, 0, 59, 64
1, 240386, Note_off_c, 0, 57, 64
1, 240426, Note_off_c, 0, 39, 64
1, 240454, Note_on_c, 0, 57, 60
1, 240462, Note_on_c, 0, 49, 71
1, 240464, Note_off_c, 0, 66, 64
1, 240470, Note_on_c, 0, 64, 81
1, 240472, Note_on_c, 0, 59, 57
1, 240478, Note_on_c, 0, 37, 42
1, 240506, Note_off_c, 0, 49, 64
1, 240509, Note_off_c, 0, 64, 64
1, 240518, Note_off_c, 0, 59, 64
1, 240534, Note_off_c, 0, 57, 64
1, 240534, Note_off_c, 0, 37, 64
1, 240584, Note_on_c, 0, 57, 72
1, 240586, Note_on_c, 0, 66, 81
1, 240594, Note_on_c, 0, 47, 59
1, 240606, Note_on_c, 0, 63, 73
1, 240614, Note_on_c, 0, 35, 58
1, 240622, Note_off_c, 0, 57, 64
1, 240640, Control_c, 0, 64, 0
1, 240642, Note_off_c, 0, 47, 64
1, 240648, Note_off_c, 0, 63, 64
1, 240660, Note_off_c, 0, 35, 64
1, 240716, Note_off_c, 0, 66, 64
1, 240724, Note_on_c, 0, 68, 84
1, 240728, Note_on_c, 0, 56, 81
1, 240728, Note_on_c, 0, 64, 74
1, 240754, Note_on_c, 0, 52, 84
1, 240776, Note_on_c, 0, 40, 43
1, 240790, Note_off_c, 0, 52, 64
1, 240830, Note_off_c, 0, 40, 64
1, 240830, Control_c, 0, 64, 127
1, 240870, Note_on_c, 0, 39, 45
1, 240874, Note_off_c, 0, 56, 64
1, 240876, Note_on_c, 0, 51, 84
1, 240918, Note_off_c, 0, 51, 64
1, 240922, Note_off_c, 0, 39, 64
1, 241012, Note_on_c, 0, 49, 79
1, 241022, Note_on_c, 0, 37, 70
1, 241056, Note_off_c, 0, 49, 64
1, 241064, Note_off_c, 0, 37, 64
1, 241130, Note_on_c, 0, 61, 76
1, 241150, Note_on_c, 0, 47, 72
1, 241162, Note_on_c, 0, 35, 73
1, 241164, Control_c, 0, 64, 0
1, 241172, Note_off_c, 0, 64, 64
1, 241202, Note_off_c, 0, 35, 64
1, 241205, Note_off_c, 0, 47, 64
1, 241266, Note_off_c, 0, 61, 64
1, 241304, Note_on_c, 0, 59, 80
1, 241340, Note_on_c, 0, 52, 54
1, 241340, Note_on_c, 0, 40, 72
1, 241345, Control_c, 0, 64, 127
1, 241380, Note_off_c, 0, 40, 64
1, 241392, Note_off_c, 0, 52, 64
1, 241438, Note_off_c, 0, 68, 64
1, 241490, Note_on_c, 0, 39, 45
1, 241498, Note_on_c, 0, 51, 55
1, 241542, Note_off_c, 0, 39, 64
1, 241548, Note_off_c, 0, 51, 64
1, 241618, Note_on_c, 0, 49, 68
1, 241624, Note_on_c, 0, 37, 64
1, 241660, Note_off_c, 0, 49, 64
1, 241664, Note_off_c, 0, 37, 64
1, 241736, Note_on_c, 0, 68, 57
1, 241738, Note_on_c, 0, 71, 69
1, 241752, Note_on_c, 0, 47, 59
1, 241762, Note_on_c, 0, 35, 74
1, 241782, Note_off_c, 0, 71, 64
1, 241784, Note_off_c, 0, 68, 64
1, 241792, Control_c, 0, 64, 0
1, 241800, Note_off_c, 0, 35, 64
1, 241802, Note_off_c, 0, 47, 64
1, 241860, Note_on_c, 0, 71, 70
1, 241876, Note_on_c, 0, 68, 34
1, 241908, Note_on_c, 0, 52, 89
1, 241922, Note_on_c, 0, 40, 72
1, 241940, Note_off_c, 0, 52, 64
1, 241960, Control_c, 0, 64, 127
1, 241962, Note_off_c, 0, 40, 64
1, 242070, Note_on_c, 0, 51, 54
1, 242080, Note_on_c, 0, 39, 45
1, 242122, Note_off_c, 0, 51, 64
1, 242132, Note_off_c, 0, 39, 64
1, 242200, Note_on_c, 0, 49, 54
1, 242202, Note_on_c, 0, 37, 56
1, 242208, Note_off_c, 0, 71, 64
1, 242208, Note_off_c, 0, 68, 64
1, 242250, Note_off_c, 0, 49, 64
1, 242250, Note_off_c, 0, 37, 64
1, 242332, Note_off_c, 0, 59, 64
1, 242360, Note_on_c, 0, 47, 67
1, 242374, Note_on_c, 0, 35, 50
1, 242404, Note_off_c, 0, 47, 64
1, 242424, Note_off_c, 0, 35, 64
1, 242504, Note_on_c, 0, 56, 75
1, 242514, Control_c, 0, 64, 0
1, 242516, Note_on_c, 0, 59, 85
1, 242546, Note_on_c, 0, 52, 57
1, 242554, Note_on_c, 0, 40, 52
1, 242596, Note_off_c, 0, 52, 64
1, 242602, Note_off_c, 0, 40, 64
1, 242670, Note_on_c, 0, 39, 45
1, 242684, Control_c, 0, 64, 127
1, 242684, Note_on_c, 0, 51, 52
1, 242722, Note_off_c, 0, 39, 64
1, 242738, Note_off_c, 0, 51, 64
1, 242810, Note_on_c, 0, 49, 62
1, 242820, Note_on_c, 0, 37, 48
1, 242856, Note_off_c, 0, 49, 64
1, 242872, Note_off_c, 0, 37, 64
1, 242932, Note_on_c, 0, 47, 67
1, 242944, Note_on_c, 0, 35, 64
1, 242976, Note_off_c, 0, 47, 64
1, 242988, Note_off_c, 0, 35, 64
1, 243090, Note_on_c, 0, 52, 89
1, 243106, Note_on_c, 0, 40, 61
1, 243122, Note_off_c, 0, 52, 64
1, 243148, Note_off_c, 0, 59, 64
1, 243152, Note_off_c, 0, 40, 64
1, 243222, Note_on_c, 0, 51, 82
1, 243246, Note_on_c, 0, 39, 6
1, 243248, Note_off_c, 0, 56, 64
1, 243264, Note_off_c, 0, 51, 64
1, 243296, Note_off_c, 0, 39, 64
1, 243298, Control_c, 0, 64, 0
1, 243338, Note_on_c, 0, 59, 90
1, 243338, Note_on_c, 0, 55, 82
1, 243352, Note_on_c, 0, 49, 77
1, 243358, Note_on_c, 0, 37, 71
1, 243382, Note_off_c, 0, 59, 64
1, 243386, Note_off_c, 0, 55, 64
1, 243400, Note_off_c, 0, 49, 64
1, 243403, Note_off_c, 0, 37, 64
1, 243456, Note_on_c, 0, 59, 88
1, 243464, Note_on_c, 0, 56, 79
1, 243468, Control_c, 0, 64, 127
1, 243490, Note_on_c, 0, 47, 60
1, 243500, Note_on_c, 0, 35, 66
1, 243528, Note_off_c, 0, 56, 64
1, 243538, Note_off_c, 0, 47, 64
1, 243542, Note_off_c, 0, 35, 64
1, 243546, Note_off_c, 0, 59, 64
1, 243590, Control_c, 0, 64, 0
1, 243614, Note_on_c, 0, 59, 94
1, 243619, Note_on_c, 0, 57, 81
1, 243638, Note_on_c, 0, 52, 93
1, 243648, Note_on_c, 0, 40, 77
1, 243672, Note_off_c, 0, 52, 64
1, 243686, Note_off_c, 0, 40, 64
1, 243744, Control_c, 0, 64, 127
1, 243778, Note_off_c, 0, 57, 64
1, 243784, Note_on_c, 0, 51, 88
1, 243806, Note_on_c, 0, 39, 59
1, 243828, Note_off_c, 0, 51, 64
1, 243834, Note_off_c, 0, 59, 64
1, 243848, Note_off_c, 0, 39, 64
1, 243916, Note_on_c, 0, 61, 86
1, 243922, Note_on_c, 0, 57, 62
1, 243924, Note_on_c, 0, 49, 74
1, 243924, Note_on_c, 0, 37, 69
1, 243966, Note_off_c, 0, 37, 64
1, 243970, Note_off_c, 0, 57, 64
1, 243972, Note_off_c, 0, 49, 64
1, 243978, Note_off_c, 0, 61, 64
1, 244038, Note_on_c, 0, 57, 69
1, 244052, Note_on_c, 0, 47, 72
1, 244054, Note_on_c, 0, 63, 93
1, 244062, Note_on_c, 0, 35, 92
1, 244096, Note_off_c, 0, 35, 64
1, 244102, Note_off_c, 0, 47, 64
1, 244112, Control_c, 0, 64, 0
1, 244130, Note_off_c, 0, 57, 64
1, 244174, Note_off_c, 0, 63, 64
1, 244196, Note_on_c, 0, 64, 100
1, 244200, Note_on_c, 0, 56, 84
1, 244224, Note_on_c, 0, 52, 83
1, 244224, Note_on_c, 0, 40, 80
1, 244258, Note_off_c, 0, 52, 64
1, 244262, Note_off_c, 0, 40, 64
1, 244312, Control_c, 0, 64, 127
1, 244364, Note_off_c, 0, 56, 64
1, 244364, Note_on_c, 0, 51, 82
1, 244384, Note_on_c, 0, 39, 55
1, 244406, Note_off_c, 0, 51, 64
1, 244430, Note_off_c, 0, 39, 64
1, 244484, Note_off_c, 0, 64, 64
1, 244490, Note_on_c, 0, 49, 76
1, 244492, Note_on_c, 0, 37, 70
1, 244542, Note_off_c, 0, 37, 64
1, 244552, Note_off_c, 0, 49, 64
1, 244614, Note_on_c, 0, 56, 73
1, 244628, Note_on_c, 0, 59, 67
1, 244634, Note_on_c, 0, 47, 65
1, 244642, Note_on_c, 0, 35, 72
1, 244682, Note_off_c, 0, 35, 64
1, 244686, Note_off_c, 0, 47, 64
1, 244690, Note_off_c, 0, 59, 64
1, 244702, Note_off_c, 0, 56, 64
1, 244712, Control_c, 0, 64, 0
1, 244760, Note_on_c, 0, 68, 91
1, 244764, Note_on_c, 0, 56, 73
1, 244768, Note_on_c, 0, 59, 74
1, 244792, Note_on_c, 0, 52, 96
1, 244800, Note_on_c, 0, 40, 82
1, 244826, Note_off_c, 0, 52, 64
1, 244836, Note_off_c, 0, 40, 64
1, 244880, Control_c, 0, 64, 127
1, 244920, Note_on_c, 0, 39, 45
1, 244924, Note_on_c, 0, 51, 85
1, 244966, Note_off_c, 0, 51, 64
1, 244972, Note_off_c, 0, 39, 64
1, 245050, Note_off_c, 0, 59, 64
1, 245056, Note_on_c, 0, 49, 80
1, 245066, Note_on_c, 0, 37, 74
1, 245076, Note_off_c, 0, 56, 64
1, 245116, Note_off_c, 0, 49, 64
1, 245116, Note_off_c, 0, 37, 64
1, 245194, Note_on_c, 0, 47, 78
1, 245197, Note_on_c, 0, 35, 92
1, 245234, Note_off_c, 0, 35, 64
1, 245254, Note_off_c, 0, 47, 64
1, 245296, Control_c, 0, 64, 0
1, 245350, Note_on_c, 0, 57, 71
1, 245354, Note_on_c, 0, 59, 90
1, 245354, Note_on_c, 0, 66, 83
1, 245366, Note_on_c, 0, 52, 80
1, 245368, Note_on_c, 0, 40, 67
1, 245396, Note_off_c, 0, 68, 64
1, 245404, Note_off_c, 0, 52, 64
1, 245410, Note_off_c, 0, 40, 64
1, 245480, Control_c, 0, 64, 127
1, 245496, Note_on_c, 0, 51, 88
1, 245520, Note_on_c, 0, 39, 56
1, 245538, Note_off_c, 0, 51, 64
1, 245564, Note_off_c, 0, 39, 64
1, 245602, Note_off_c, 0, 59, 64
1, 245626, Note_on_c, 0, 49, 83
1, 245632, Note_on_c, 0, 37, 78
1, 245634, Note_off_c, 0, 57, 64
1, 245684, Note_off_c, 0, 37, 64
1, 245690, Note_off_c, 0, 49, 64
1, 245738, Note_off_c, 0, 66, 64
1, 245748, Note_on_c, 0, 47, 84
1, 245756, Note_on_c, 0, 35, 93
1, 245800, Note_off_c, 0, 35, 64
1, 245822, Note_off_c, 0, 47, 64
1, 245834, Control_c, 0, 64, 0
1, 245912, Note_on_c, 0, 56, 78
1, 245920, Note_on_c, 0, 59, 94
1, 245938, Note_on_c, 0, 52, 81
1, 245940, Note_on_c, 0, 40, 84
1, 245974, Note_off_c, 0, 40, 64
1, 245976, Note_off_c, 0, 52, 64
1, 246018, Control_c, 0, 64, 127
1, 246056, Note_off_c, 0, 56, 64
1, 246070, Note_on_c, 0, 39, 45
1, 246078, Note_on_c, 0, 51, 66
1, 246098, Note_off_c, 0, 59, 64
1, 246122, Note_off_c, 0, 39, 64
1, 246122, Note_off_c, 0, 51, 64
1, 246198, Note_on_c, 0, 49, 81
1, 246208, Note_on_c, 0, 37, 75
1, 246240, Note_off_c, 0, 49, 64
1, 246248, Note_off_c, 0, 37, 64
1, 246334, Note_on_c, 0, 56, 65
1, 246336, Note_on_c, 0, 47, 80
1, 246342, Note_on_c, 0, 64, 76
1, 246346, Note_on_c, 0, 35, 91
1, 246350, Note_on_c, 0, 59, 46
1, 246378, Note_off_c, 0, 35, 64
1, 246380, Note_off_c, 0, 47, 64
1, 246390, Note_off_c, 0, 56, 64
1, 246398, Note_off_c, 0, 59, 64
1, 246402, Control_c, 0, 64, 0
1, 246412, Note_off_c, 0, 64, 64
1, 246462, Note_on_c, 0, 56, 72
1, 246466, Note_on_c, 0, 68, 88
1, 246466, Note_on_c, 0, 59, 74
1, 246480, Note_on_c, 0, 52, 102
1, 246492, Note_on_c, 0, 40, 86
1, 246512, Note_off_c, 0, 52, 64
1, 246526, Note_off_c, 0, 40, 64
1, 246586, Control_c, 0, 64, 127
1, 246624, Note_on_c, 0, 51, 84
1, 246628, Note_off_c, 0, 59, 64
1, 246646, Note_on_c, 0, 39, 50
1, 246666, Note_off_c, 0, 51, 64
1, 246694, Note_off_c, 0, 39, 64
1, 246720, Note_off_c, 0, 56, 64
1, 246736, Note_off_c, 0, 68, 64
1, 246754, Note_on_c, 0, 49, 74
1, 246764, Note_on_c, 0, 37, 62
1, 246822, Note_off_c, 0, 49, 64
1, 246830, Note_off_c, 0, 37, 64
1, 246874, Note_on_c, 0, 57, 64
1, 246880, Note_on_c, 0, 63, 71
1, 246890, Note_on_c, 0, 35, 91
1, 246896, Note_on_c, 0, 47, 65
1, 246922, Note_off_c, 0, 35, 64
1, 246924, Note_off_c, 0, 57, 64
1, 246938, Note_on_c, 0, 45, 32
1, 246952, Note_off_c, 0, 47, 64
1, 246964, Note_off_c, 0, 63, 64
1, 246972, Control_c, 0, 64, 0
1, 247010, Note_off_c, 0, 45, 64
1, 247015, Note_on_c, 0, 64, 88
1, 247019, Note_on_c, 0, 56, 88
1, 247038, Note_on_c, 0, 52, 105
1, 247044, Note_on_c, 0, 40, 100
1, 247070, Note_off_c, 0, 52, 64
1, 247073, Note_off_c, 0, 40, 64
1, 247100, Note_off_c, 0, 56, 64
1, 247122, Note_off_c, 0, 64, 64
1, 247140, Control_c, 0, 64, 127
1, 247178, Note_on_c, 0, 51, 84
1, 247202, Note_on_c, 0, 39, 32
1, 247222, Note_off_c, 0, 51, 64
1, 247264, Note_off_c, 0, 39, 64
1, 247292, Note_on_c, 0, 56, 84
1, 247292, Note_on_c, 0, 68, 84
1, 247314, Note_on_c, 0, 64, 53
1, 247317, Note_on_c, 0, 49, 81
1, 247328, Note_off_c, 0, 56, 64
1, 247332, Note_on_c, 0, 37, 66
1, 247354, Note_off_c, 0, 68, 64
1, 247362, Note_off_c, 0, 64, 64
1, 247366, Note_off_c, 0, 49, 64
1, 247380, Note_off_c, 0, 37, 64
1, 247438, Note_on_c, 0, 47, 91
1, 247466, Note_on_c, 0, 35, 64
1, 247508, Note_off_c, 0, 35, 64
1, 247528, Note_off_c, 0, 47, 64
1, 247538, Control_c, 0, 64, 0
1, 247576, Note_on_c, 0, 71, 109
1, 247576, Note_on_c, 0, 59, 109
1, 247584, Note_on_c, 0, 68, 75
1, 247600, Note_on_c, 0, 52, 104
1, 247616, Note_on_c, 0, 40, 80
1, 247630, Note_off_c, 0, 52, 64
1, 247652, Note_off_c, 0, 40, 64
1, 247676, Control_c, 0, 64, 127
1, 247740, Note_on_c, 0, 51, 84
1, 247744, Note_off_c, 0, 59, 64
1, 247768, Note_on_c, 0, 39, 43
1, 247784, Note_off_c, 0, 71, 64
1, 247784, Note_off_c, 0, 51, 64
1, 247802, Note_off_c, 0, 68, 64
1, 247820, Note_off_c, 0, 39, 64
1, 247872, Note_on_c, 0, 49, 86
1, 247878, Note_on_c, 0, 37, 84
1, 247952, Note_off_c, 0, 37, 64
1, 247970, Note_off_c, 0, 49, 64
1, 248022, Note_on_c, 0, 47, 57
1, 248032, Note_on_c, 0, 35, 94
1, 248064, Note_off_c, 0, 35, 64
1, 248090, Note_off_c, 0, 47, 64
1, 248110, Note_on_c, 0, 73, 57
1, 248120, Note_on_c, 0, 68, 56
1, 248136, Note_on_c, 0, 61, 97
1, 248158, Note_off_c, 0, 73, 64
1, 248168, Note_off_c, 0, 61, 64
1, 248168, Note_on_c, 0, 52, 103
1, 248170, Note_off_c, 0, 68, 64
1, 248174, Note_on_c, 0, 40, 97
1, 248208, Note_off_c, 0, 40, 64
1, 248212, Note_off_c, 0, 52, 64
1, 248250, Note_on_c, 0, 75, 57
1, 248250, Note_on_c, 0, 68, 56
1, 248284, Note_on_c, 0, 63, 99
1, 248298, Note_off_c, 0, 75, 64
1, 248300, Note_off_c, 0, 68, 64
1, 248300, Note_on_c, 0, 39, 43
1, 248302, Note_on_c, 0, 51, 90
1, 248320, Note_off_c, 0, 63, 64
1, 248352, Note_off_c, 0, 39, 64
1, 248360, Note_off_c, 0, 51, 64
1, 248417, Note_on_c, 0, 76, 92
1, 248420, Note_on_c, 0, 68, 56
1, 248428, Note_on_c, 0, 49, 87
1, 248440, Note_on_c, 0, 37, 78
1, 248450, Note_on_c, 0, 64, 96
1, 248470, Note_off_c, 0, 68, 64
1, 248478, Note_off_c, 0, 37, 64
1, 248490, Note_off_c, 0, 76, 64
1, 248500, Note_off_c, 0, 64, 64
1, 248518, Note_off_c, 0, 49, 64
1, 248540, Note_on_c, 0, 78, 100
1, 248550, Note_on_c, 0, 71, 56
1, 248566, Note_on_c, 0, 66, 86
1, 248570, Note_on_c, 0, 47, 79
1, 248584, Note_on_c, 0, 35, 77
1, 248600, Note_off_c, 0, 71, 64
1, 248608, Note_off_c, 0, 66, 64
1, 248624, Note_off_c, 0, 35, 64
1, 248644, Note_off_c, 0, 78, 64
1, 248666, Note_off_c, 0, 47, 64
1, 248708, Note_on_c, 0, 80, 70
1, 248720, Note_on_c, 0, 76, 81
1, 248726, Note_on_c, 0, 68, 81
1, 248732, Note_on_c, 0, 52, 110
1, 248736, Note_on_c, 0, 71, 72
1, 248738, Note_on_c, 0, 40, 106
1, 248765, Note_off_c, 0, 40, 64
1, 248788, Note_off_c, 0, 52, 64
1, 248836, Note_off_c, 0, 68, 64
1, 248860, Note_on_c, 0, 39, 26
1, 248874, Note_on_c, 0, 51, 95
1, 248920, Note_off_c, 0, 39, 64
1, 248954, Note_off_c, 0, 71, 64
1, 248954, Note_off_c, 0, 51, 64
1, 248978, Note_on_c, 0, 40, 26
1, 249030, Note_on_c, 0, 52, 98
1, 249038, Note_off_c, 0, 40, 64
1, 249074, Note_off_c, 0, 52, 64
1, 249132, Note_off_c, 0, 80, 64
1, 249140, Note_off_c, 0, 76, 64
1, 249146, Note_on_c, 0, 70, 81
1, 249154, Note_on_c, 0, 38, 106
1, 249158, Note_on_c, 0, 50, 92
1, 249184, Note_off_c, 0, 38, 64
1, 249210, Note_off_c, 0, 50, 64
1, 249260, Note_off_c, 0, 70, 64
1, 249320, Control_c, 0, 64, 0
1, 249322, Note_on_c, 0, 70, 79
1, 249322, Note_on_c, 0, 79, 111
1, 249325, Note_on_c, 0, 75, 90
1, 249328, Note_on_c, 0, 67, 104
1, 249336, Note_on_c, 0, 51, 108
1, 249344, Note_on_c, 0, 39, 98
1, 249444, Note_off_c, 0, 39, 64
1, 249448, Note_off_c, 0, 51, 64
1, 249466, Note_on_c, 0, 50, 89
1, 249466, Note_on_c, 0, 38, 94
1, 249490, Control_c, 0, 64, 127
1, 249542, Note_off_c, 0, 50, 64
1, 249545, Note_off_c, 0, 38, 64
1, 249614, Note_on_c, 0, 48, 87
1, 249630, Note_on_c, 0, 36, 84
1, 249662, Note_off_c, 0, 79, 64
1, 249665, Note_off_c, 0, 36, 64
1, 249720, Note_off_c, 0, 48, 64
1, 249770, Note_on_c, 0, 46, 90
1, 249776, Note_on_c, 0, 34, 94
1, 249820, Note_off_c, 0, 70, 64
1, 249828, Note_off_c, 0, 75, 64
1, 249838, Note_off_c, 0, 34, 64
1, 249854, Note_off_c, 0, 46, 64
1, 249888, Note_off_c, 0, 67, 64
1, 249956, Note_on_c, 0, 39, 93
1, 249960, Note_on_c, 0, 51, 95
1, 250054, Note_off_c, 0, 39, 64
1, 250078, Note_off_c, 0, 51, 64
1, 250112, Note_on_c, 0, 50, 84
1, 250122, Note_on_c, 0, 38, 56
1, 250152, Note_off_c, 0, 50, 64
1, 250172, Note_off_c, 0, 38, 64
1, 250222, Note_on_c, 0, 58, 88
1, 250232, Note_on_c, 0, 70, 75
1, 250240, Note_on_c, 0, 67, 76
1, 250250, Note_on_c, 0, 36, 62
1, 250256, Note_on_c, 0, 48, 36
1, 250266, Note_off_c, 0, 58, 64
1, 250282, Note_off_c, 0, 67, 64
1, 250298, Note_off_c, 0, 36, 64
1, 250326, Note_off_c, 0, 48, 64
1, 250342, Note_off_c, 0, 70, 64
1, 250394, Note_on_c, 0, 46, 91
1, 250412, Note_on_c, 0, 35, 88
1, 250432, Note_off_c, 0, 46, 64
1, 250446, Note_off_c, 0, 35, 64
1, 250512, Note_on_c, 0, 75, 96
1, 250514, Note_on_c, 0, 63, 95
1, 250514, Note_on_c, 0, 67, 87
1, 250532, Note_on_c, 0, 51, 92
1, 250540, Note_on_c, 0, 39, 80
1, 250548, Note_off_c, 0, 63, 64
1, 250556, Note_off_c, 0, 67, 64
1, 250590, Note_off_c, 0, 39, 64
1, 250622, Note_off_c, 0, 75, 64
1, 250626, Note_off_c, 0, 51, 64
1, 250670, Note_on_c, 0, 50, 89
1, 250672, Note_on_c, 0, 38, 81
1, 250724, Note_off_c, 0, 50, 64
1, 250752, Note_off_c, 0, 38, 64
1, 250800, Note_on_c, 0, 79, 103
1, 250810, Note_on_c, 0, 67, 73
1, 250820, Note_on_c, 0, 48, 80
1, 250820, Note_on_c, 0, 75, 65
1, 250850, Note_on_c, 0, 36, 40
1, 250856, Note_off_c, 0, 67, 64
1, 250862, Note_off_c, 0, 75, 64
1, 250878, Note_off_c, 0, 48, 64
1, 250902, Note_off_c, 0, 79, 64
1, 250912, Note_off_c, 0, 36, 64
1, 250964, Note_on_c, 0, 46, 93
1, 250974, Note_on_c, 0, 34, 90
1, 251012, Note_off_c, 0, 34, 64
1, 251056, Note_off_c, 0, 46, 64
1, 251106, Note_on_c, 0, 70, 100
1, 251108, Note_on_c, 0, 82, 95
1, 251112, Note_on_c, 0, 79, 98
1, 251124, Note_on_c, 0, 51, 94
1, 251124, Note_on_c, 0, 39, 88
1, 251206, Note_off_c, 0, 39, 64
1, 251212, Note_off_c, 0, 51, 64
1, 251250, Note_off_c, 0, 70, 64
1, 251272, Note_on_c, 0, 50, 95
1, 251272, Note_on_c, 0, 38, 95
1, 251284, Note_off_c, 0, 79, 64
1, 251316, Note_off_c, 0, 50, 64
1, 251336, Note_off_c, 0, 82, 64
1, 251374, Note_off_c, 0, 38, 64
1, 251442, Note_on_c, 0, 48, 81
1, 251462, Note_on_c, 0, 36, 72
1, 251504, Note_off_c, 0, 36, 64
1, 251507, Note_off_c, 0, 48, 64
1, 251588, Note_on_c, 0, 46, 87
1, 251594, Note_on_c, 0, 34, 90
1, 251614, Note_on_c, 0, 75, 91
1, 251614, Note_on_c, 0, 87, 92
1, 251622, Note_on_c, 0, 79, 85
1, 251648, Note_off_c, 0, 75, 64
1, 251654, Note_off_c, 0, 87, 64
1, 251668, Note_off_c, 0, 34, 64
1, 251668, Note_off_c, 0, 79, 64
1, 251674, Note_off_c, 0, 46, 64
1, 251744, Note_on_c, 0, 87, 95
1, 251744, Note_on_c, 0, 75, 92
1, 251746, Note_on_c, 0, 79, 90
1, 251754, Note_on_c, 0, 51, 90
1, 251754, Note_on_c, 0, 39, 86
1, 251848, Note_off_c, 0, 39, 64
1, 251862, Note_off_c, 0, 51, 64
1, 251892, Note_off_c, 0, 87, 64
1, 251916, Note_off_c, 0, 79, 64
1, 251916, Note_on_c, 0, 50, 87
1, 251924, Note_on_c, 0, 38, 78
1, 251960, Note_off_c, 0, 75, 64
1, 251962, Note_off_c, 0, 50, 64
1, 251994, Note_off_c, 0, 38, 64
1, 252102, Note_on_c, 0, 48, 53
1, 252104, Note_on_c, 0, 36, 66
1, 252148, Note_off_c, 0, 36, 64
1, 252150, Note_off_c, 0, 48, 64
1, 252228, Note_on_c, 0, 79, 99
1, 252231, Note_on_c, 0, 67, 104
1, 252234, Note_on_c, 0, 75, 82
1, 252260, Note_off_c, 0, 79, 64
1, 252260, Note_on_c, 0, 46, 67
1, 252262, Note_on_c, 0, 34, 78
1, 252264, Note_off_c, 0, 67, 64
1, 252270, Note_off_c, 0, 75, 64
1, 252298, Note_off_c, 0, 34, 64
1, 252304, Note_off_c, 0, 46, 64
1, 252358, Note_on_c, 0, 79, 72
1, 252358, Note_on_c, 0, 67, 81
1, 252358, Note_on_c, 0, 75, 57
1, 252376, Note_on_c, 0, 51, 91
1, 252384, Note_on_c, 0, 39, 81
1, 252406, Note_off_c, 0, 67, 64
1, 252412, Note_off_c, 0, 75, 64
1, 252448, Note_off_c, 0, 79, 64
1, 252464, Note_off_c, 0, 51, 64
1, 252486, Note_off_c, 0, 39, 64
1, 252526, Note_on_c, 0, 50, 96
1, 252526, Note_on_c, 0, 38, 91
1, 252562, Note_on_c, 0, 78, 39
1, 252590, Note_off_c, 0, 50, 64
1, 252604, Note_off_c, 0, 38, 64
1, 252628, Note_off_c, 0, 78, 64
1, 252660, Note_on_c, 0, 72, 91
1, 252662, Note_on_c, 0, 84, 103
1, 252662, Note_on_c, 0, 79, 97
1, 252686, Note_on_c, 0, 48, 76
1, 252689, Note_on_c, 0, 36, 83
1, 252730, Note_off_c, 0, 36, 64
1, 252760, Note_off_c, 0, 48, 64
1, 252786, Note_off_c, 0, 84, 64
1, 252798, Note_off_c, 0, 72, 64
1, 252842, Note_off_c, 0, 79, 64
1, 252852, Note_on_c, 0, 46, 74
1, 252858, Note_on_c, 0, 34, 77
1, 252898, Note_off_c, 0, 34, 64
1, 252901, Note_off_c, 0, 46, 64
1, 252978, Control_c, 0, 64, 0
1, 253002, Note_on_c, 0, 79, 100
1, 253002, Note_on_c, 0, 82, 93
1, 253002, Note_on_c, 0, 70, 101
1, 253008, Note_on_c, 0, 51, 94
1, 253012, Note_on_c, 0, 39, 86
1, 253100, Control_c, 0, 64, 127
1, 253106, Note_off_c, 0, 51, 64
1, 253108, Note_off_c, 0, 39, 64
1, 253160, Note_on_c, 0, 50, 88
1, 253164, Note_on_c, 0, 38, 85
1, 253210, Note_off_c, 0, 50, 64
1, 253220, Note_off_c, 0, 38, 64
1, 253300, Note_off_c, 0, 79, 64
1, 253312, Note_on_c, 0, 48, 81
1, 253320, Note_on_c, 0, 36, 87
1, 253342, Note_off_c, 0, 82, 64
1, 253364, Note_off_c, 0, 36, 64
1, 253380, Note_off_c, 0, 48, 64
1, 253424, Note_off_c, 0, 70, 64
1, 253470, Note_on_c, 0, 46, 76
1, 253486, Note_on_c, 0, 34, 69
1, 253526, Note_on_c, 0, 44, 15
1, 253528, Note_off_c, 0, 34, 64
1, 253546, Note_off_c, 0, 46, 64
1, 253578, Note_off_c, 0, 44, 64
1, 253612, Note_on_c, 0, 51, 98
1, 253616, Note_on_c, 0, 39, 86
1, 253702, Note_off_c, 0, 51, 64
1, 253712, Note_off_c, 0, 39, 64
1, 253756, Note_on_c, 0, 50, 95
1, 253764, Note_on_c, 0, 38, 87
1, 253826, Note_off_c, 0, 38, 64
1, 253832, Note_off_c, 0, 50, 64
1, 253880, Note_on_c, 0, 58, 85
1, 253884, Note_on_c, 0, 70, 79
1, 253902, Note_on_c, 0, 48, 81
1, 253918, Note_on_c, 0, 36, 79
1, 253938, Note_off_c, 0, 70, 64
1, 253946, Note_off_c, 0, 58, 64
1, 253958, Note_off_c, 0, 36, 64
1, 253998, Note_off_c, 0, 48, 64
1, 254024, Note_on_c, 0, 70, 62
1, 254027, Note_on_c, 0, 58, 58
1, 254052, Note_on_c, 0, 34, 86
1, 254052, Note_on_c, 0, 46, 83
1, 254078, Note_off_c, 0, 70, 64
1, 254100, Note_off_c, 0, 58, 64
1, 254102, Note_off_c, 0, 34, 64
1, 254134, Note_off_c, 0, 46, 64
1, 254188, Note_on_c, 0, 58, 70
1, 254196, Note_on_c, 0, 68, 81
1, 254199, Note_on_c, 0, 70, 80
1, 254218, Note_on_c, 0, 51, 100
1, 254226, Note_on_c, 0, 39, 81
1, 254228, Note_off_c, 0, 58, 64
1, 254248, Note_off_c, 0, 68, 64
1, 254260, Note_off_c, 0, 70, 64
1, 254272, Note_off_c, 0, 39, 64
1, 254318, Note_off_c, 0, 51, 64
1, 254356, Note_on_c, 0, 50, 96
1, 254366, Note_on_c, 0, 38, 85
1, 254422, Note_off_c, 0, 38, 64
1, 254458, Note_off_c, 0, 50, 64
1, 254510, Note_on_c, 0, 77, 106
1, 254516, Note_on_c, 0, 68, 83
1, 254518, Note_on_c, 0, 65, 92
1, 254518, Note_on_c, 0, 70, 68
1, 254528, Note_on_c, 0, 48, 89
1, 254538, Note_on_c, 0, 36, 93
1, 254576, Note_off_c, 0, 36, 64
1, 254582, Note_off_c, 0, 48, 64
1, 254614, Note_off_c, 0, 77, 64
1, 254654, Note_off_c, 0, 65, 64
1, 254688, Note_on_c, 0, 46, 90
1, 254696, Note_off_c, 0, 68, 64
1, 254698, Note_on_c, 0, 34, 81
1, 254744, Note_off_c, 0, 34, 64
1, 254792, Note_off_c, 0, 46, 64
1, 254896, Note_on_c, 0, 75, 95
1, 254896, Note_on_c, 0, 63, 100
1, 254904, Note_on_c, 0, 67, 91
1, 254904, Note_on_c, 0, 51, 97
1, 254907, Note_on_c, 0, 39, 85
1, 254930, Control_c, 0, 64, 0
1, 255016, Note_off_c, 0, 70, 64
1, 255176, Control_c, 0, 64, 127
1, 255188, Note_off_c, 0, 51, 64
1, 255198, Note_off_c, 0, 39, 64
1, 255212, Note_off_c, 0, 63, 64
1, 255222, Note_off_c, 0, 75, 64
1, 255310, Note_off_c, 0, 67, 64
1, 255336, Note_on_c, 0, 51, 85
1, 255339, Note_on_c, 0, 39, 83
1, 255342, Note_on_c, 0, 75, 79
1, 255346, Note_on_c, 0, 63, 90
1, 255422, Note_off_c, 0, 63, 64
1, 255425, Note_off_c, 0, 51, 64
1, 255425, Note_off_c, 0, 39, 64
1, 255444, Note_off_c, 0, 75, 64
1, 255494, Note_on_c, 0, 51, 81
1, 255500, Note_on_c, 0, 63, 85
1, 255502, Note_on_c, 0, 75, 83
1, 255502, Note_on_c, 0, 39, 74
1, 255586, Note_off_c, 0, 63, 64
1, 255594, Note_off_c, 0, 39, 64
1, 255618, Note_off_c, 0, 51, 64
1, 255621, Note_off_c, 0, 75, 64
1, 255654, Note_on_c, 0, 63, 95
1, 255662, Note_on_c, 0, 75, 97
1, 255670, Note_on_c, 0, 40, 106
1, 255670, Note_on_c, 0, 52, 104
1, 255682, Control_c, 0, 64, 0
1, 255870, Note_off_c, 0, 40, 64
1, 255888, Control_c, 0, 64, 127
1, 255890, Note_off_c, 0, 52, 64
1, 255914, Note_off_c, 0, 63, 64
1, 255930, Note_off_c, 0, 75, 64
1, 256000, Note_on_c, 0, 75, 73
1, 256004, Note_on_c, 0, 63, 83
1, 256010, Note_on_c, 0, 52, 96
1, 256013, Note_on_c, 0, 40, 106
1, 256086, Note_off_c, 0, 40, 64
1, 256088, Note_off_c, 0, 63, 64
1, 256108, Note_off_c, 0, 75, 64
1, 256114, Note_off_c, 0, 52, 64
1, 256164, Note_on_c, 0, 63, 85
1, 256166, Note_on_c, 0, 75, 84
1, 256166, Note_on_c, 0, 40, 91
1, 256172, Note_on_c, 0, 52, 98
1, 256258, Note_off_c, 0, 40, 64
1, 256260, Note_off_c, 0, 75, 64
1, 256268, Note_off_c, 0, 63, 64
1, 256274, Note_off_c, 0, 52, 64
1, 256328, Note_on_c, 0, 75, 83
1, 256334, Note_on_c, 0, 63, 91
1, 256342, Control_c, 0, 64, 0
1, 256350, Note_on_c, 0, 53, 106
1, 256353, Note_on_c, 0, 41, 90
1, 256620, Control_c, 0, 64, 127
1, 256644, Note_off_c, 0, 41, 64
1, 256646, Note_off_c, 0, 53, 64
1, 256666, Note_off_c, 0, 63, 64
1, 256684, Note_off_c, 0, 75, 64
1, 256738, Note_on_c, 0, 75, 87
1, 256746, Note_on_c, 0, 63, 82
1, 256762, Note_on_c, 0, 41, 68
1, 256762, Note_on_c, 0, 53, 95
1, 256836, Note_off_c, 0, 63, 64
1, 256848, Note_off_c, 0, 41, 64
1, 256852, Note_off_c, 0, 53, 64
1, 256908, Note_off_c, 0, 75, 64
1, 256956, Note_on_c, 0, 75, 92
1, 256968, Note_on_c, 0, 63, 82
1, 256974, Note_on_c, 0, 53, 72
1, 256988, Note_on_c, 0, 41, 49
1, 257030, Note_off_c, 0, 53, 64
1, 257034, Note_off_c, 0, 63, 64
1, 257044, Note_off_c, 0, 41, 64
1, 257162, Note_on_c, 0, 42, 61
1, 257174, Note_off_c, 0, 75, 64
1, 257286, Note_on_c, 0, 75, 83
1, 257296, Control_c, 0, 64, 0
1, 257306, Note_on_c, 0, 63, 76
1, 257312, Note_on_c, 0, 54, 86
1, 257520, Note_off_c, 0, 63, 64
1, 257562, Note_off_c, 0, 42, 64
1, 257572, Control_c, 0, 64, 127
1, 257590, Note_off_c, 0, 54, 64
1, 257736, Note_on_c, 0, 61, 65
1, 257748, Note_on_c, 0, 63, 57
1, 257770, Note_on_c, 0, 54, 57
1, 257802, Note_off_c, 0, 63, 64
1, 257826, Note_off_c, 0, 54, 64
1, 257850, Note_off_c, 0, 61, 64
1, 257942, Note_on_c, 0, 63, 60
1, 257956, Note_on_c, 0, 61, 33
1, 257968, Note_on_c, 0, 54, 50
1, 258026, Note_off_c, 0, 61, 64
1, 258029, Note_off_c, 0, 63, 64
1, 258038, Note_off_c, 0, 54, 64
1, 258136, Note_on_c, 0, 70, 84
1, 258164, Note_on_c, 0, 63, 49
1, 258166, Note_on_c, 0, 61, 43
1, 258176, Note_on_c, 0, 54, 51
1, 258228, Note_off_c, 0, 75, 64
1, 258250, Note_off_c, 0, 54, 64
1, 258272, Note_off_c, 0, 63, 64
1, 258272, Note_off_c, 0, 61, 64
1, 258446, Note_on_c, 0, 54, 60
1, 258448, Note_on_c, 0, 63, 79
1, 258451, Note_on_c, 0, 61, 41
1, 258496, Note_off_c, 0, 63, 64
1, 258508, Note_off_c, 0, 54, 64
1, 258511, Note_off_c, 0, 61, 64
1, 258604, Note_on_c, 0, 63, 62
1, 258610, Note_on_c, 0, 54, 65
1, 258652, Note_off_c, 0, 54, 64
1, 258718, Note_off_c, 0, 63, 64
1, 258796, Note_on_c, 0, 44, 68
1, 258892, Note_on_c, 0, 51, 40
1, 258894, Note_on_c, 0, 72, 84
1, 258910, Note_on_c, 0, 60, 55
1, 258910, Control_c, 0, 64, 0
1, 258920, Note_on_c, 0, 66, 42
1, 258922, Note_on_c, 0, 56, 40
1, 258972, Note_off_c, 0, 70, 64
1, 259100, Note_off_c, 0, 44, 64
1, 259122, Note_off_c, 0, 56, 64
1, 259124, Note_off_c, 0, 60, 64
1, 259124, Control_c, 0, 64, 127
1, 259130, Note_off_c, 0, 51, 64
1, 259158, Note_off_c, 0, 72, 64
1, 259162, Note_off_c, 0, 66, 64
1, 259260, Note_on_c, 0, 51, 42
1, 259266, Note_on_c, 0, 77, 92
1, 259278, Note_on_c, 0, 66, 50
1, 259326, Note_off_c, 0, 51, 64
1, 259402, Note_off_c, 0, 77, 64
1, 259418, Note_on_c, 0, 75, 84
1, 259432, Note_on_c, 0, 51, 36
1, 259436, Note_on_c, 0, 56, 66
1, 259442, Note_on_c, 0, 60, 37
1, 259486, Note_off_c, 0, 56, 64
1, 259494, Note_off_c, 0, 51, 64
1, 259508, Note_off_c, 0, 66, 64
1, 259516, Note_off_c, 0, 60, 64
1, 259520, Note_off_c, 0, 75, 64
1, 259570, Control_c, 0, 64, 0
1, 259578, Note_on_c, 0, 75, 88
1, 259596, Note_on_c, 0, 60, 36
1, 259602, Note_on_c, 0, 65, 62
1, 259626, Note_on_c, 0, 56, 26
1, 259636, Note_on_c, 0, 49, 34
1, 259738, Note_on_c, 0, 73, 83
1, 259746, Note_off_c, 0, 60, 64
1, 259754, Control_c, 0, 64, 127
1, 259784, Note_off_c, 0, 49, 64
1, 259796, Note_off_c, 0, 56, 64
1, 259798, Note_off_c, 0, 65, 64
1, 259802, Note_off_c, 0, 75, 64
1, 259860, Note_off_c, 0, 73, 64
1, 259880, Note_on_c, 0, 61, 73
1, 259892, Note_on_c, 0, 49, 41
1, 259900, Note_on_c, 0, 56, 33
1, 259903, Note_on_c, 0, 73, 79
1, 259906, Note_on_c, 0, 65, 49
1, 259938, Note_off_c, 0, 61, 64
1, 259958, Note_off_c, 0, 56, 64
1, 259958, Note_off_c, 0, 65, 64
1, 259961, Note_off_c, 0, 49, 64
1, 260046, Note_on_c, 0, 72, 87
1, 260062, Note_off_c, 0, 73, 64
1, 260065, Note_on_c, 0, 65, 41
1, 260065, Note_on_c, 0, 56, 38
1, 260072, Note_on_c, 0, 61, 42
1, 260075, Note_on_c, 0, 49, 22
1, 260130, Note_off_c, 0, 61, 64
1, 260133, Note_off_c, 0, 65, 64
1, 260146, Note_off_c, 0, 49, 64
1, 260152, Note_off_c, 0, 56, 64
1, 260230, Note_on_c, 0, 49, 34
1, 260230, Control_c, 0, 64, 0
1, 260230, Note_on_c, 0, 61, 25
1, 260233, Note_on_c, 0, 70, 79
1, 260250, Note_on_c, 0, 65, 54
1, 260258, Note_on_c, 0, 55, 50
1, 260272, Note_off_c, 0, 72, 64
1, 260390, Note_off_c, 0, 49, 64
1, 260392, Note_off_c, 0, 61, 64
1, 260394, Note_off_c, 0, 65, 64
1, 260430, Control_c, 0, 64, 127
1, 260436, Note_off_c, 0, 55, 64
1, 260522, Note_on_c, 0, 65, 48
1, 260548, Note_on_c, 0, 61, 43
1, 260553, Note_on_c, 0, 49, 41
1, 260556, Note_on_c, 0, 55, 29
1, 260574, Note_off_c, 0, 65, 64
1, 260610, Note_off_c, 0, 61, 64
1, 260624, Note_off_c, 0, 49, 64
1, 260626, Note_off_c, 0, 55, 64
1, 260680, Note_on_c, 0, 65, 49
1, 260680, Note_on_c, 0, 61, 56
1, 260694, Note_on_c, 0, 49, 40
1, 260704, Note_on_c, 0, 55, 61
1, 260728, Note_off_c, 0, 65, 64
1, 260732, Note_off_c, 0, 61, 64
1, 260756, Note_off_c, 0, 55, 64
1, 260772, Note_off_c, 0, 49, 64
1, 260836, Note_on_c, 0, 72, 89
1, 260848, Note_on_c, 0, 55, 40
1, 260851, Note_on_c, 0, 64, 65
1, 260860, Control_c, 0, 64, 0
1, 260870, Note_on_c, 0, 58, 40
1, 260876, Note_off_c, 0, 70, 64
1, 260878, Note_on_c, 0, 60, 33
1, 260892, Note_on_c, 0, 48, 37
1, 260976, Note_off_c, 0, 60, 64
1, 261002, Note_off_c, 0, 58, 64
1, 261006, Note_off_c, 0, 64, 64
1, 261024, Note_off_c, 0, 55, 64
1, 261029, Note_off_c, 0, 48, 64
1, 261060, Control_c, 0, 64, 127
1, 261112, Note_on_c, 0, 48, 52
1, 261118, Note_on_c, 0, 60, 59
1, 261118, Note_on_c, 0, 64, 36
1, 261118, Note_on_c, 0, 58, 40
1, 261124, Note_on_c, 0, 55, 40
1, 261174, Note_off_c, 0, 60, 64
1, 261182, Note_off_c, 0, 58, 64
1, 261182, Note_off_c, 0, 55, 64
1, 261185, Note_off_c, 0, 64, 64
1, 261210, Note_off_c, 0, 48, 64
1, 261258, Note_on_c, 0, 64, 75
1, 261260, Note_on_c, 0, 60, 58
1, 261268, Note_on_c, 0, 58, 33
1, 261271, Note_on_c, 0, 48, 34
1, 261284, Note_off_c, 0, 72, 64
1, 261290, Note_on_c, 0, 55, 28
1, 261320, Note_off_c, 0, 60, 64
1, 261334, Note_off_c, 0, 64, 64
1, 261340, Note_off_c, 0, 58, 64
1, 261354, Note_off_c, 0, 55, 64
1, 261414, Note_off_c, 0, 48, 64
1, 261416, Note_on_c, 0, 70, 83
1, 261428, Control_c, 0, 64, 0
1, 261448, Note_on_c, 0, 65, 43
1, 261448, Note_on_c, 0, 60, 39
1, 261451, Note_on_c, 0, 56, 35
1, 261462, Note_on_c, 0, 53, 78
1, 261556, Note_off_c, 0, 53, 64
1, 261574, Note_off_c, 0, 56, 64
1, 261574, Note_on_c, 0, 68, 80
1, 261592, Note_off_c, 0, 65, 64
1, 261594, Note_off_c, 0, 60, 64
1, 261598, Control_c, 0, 64, 127
1, 261626, Note_off_c, 0, 70, 64
1, 261646, Note_off_c, 0, 68, 64
1, 261722, Note_on_c, 0, 68, 75
1, 261730, Note_on_c, 0, 56, 41
1, 261736, Note_on_c, 0, 53, 61
1, 261738, Note_on_c, 0, 60, 70
1, 261788, Note_off_c, 0, 60, 64
1, 261791, Note_off_c, 0, 56, 64
1, 261810, Note_off_c, 0, 53, 64
1, 261832, Note_off_c, 0, 68, 64
1, 261868, Note_on_c, 0, 67, 84
1, 261874, Note_on_c, 0, 56, 42
1, 261877, Note_on_c, 0, 60, 49
1, 261896, Note_on_c, 0, 51, 55
1, 261946, Note_off_c, 0, 56, 64
1, 261954, Note_off_c, 0, 60, 64
1, 261962, Note_off_c, 0, 51, 64
1, 262030, Note_off_c, 0, 67, 64
1, 262050, Note_on_c, 0, 65, 78
1, 262058, Control_c, 0, 64, 0
1, 262060, Note_on_c, 0, 60, 54
1, 262070, Note_on_c, 0, 56, 34
1, 262098, Note_on_c, 0, 50, 40
1, 262240, Note_off_c, 0, 60, 64
1, 262246, Note_off_c, 0, 56, 64
1, 262258, Note_off_c, 0, 50, 64
1, 262258, Control_c, 0, 64, 127
1, 262392, Note_on_c, 0, 62, 60
1, 262394, Note_on_c, 0, 60, 55
1, 262400, Note_on_c, 0, 56, 47
1, 262436, Note_on_c, 0, 50, 29
1, 262452, Note_off_c, 0, 60, 64
1, 262454, Note_off_c, 0, 62, 64
1, 262458, Note_off_c, 0, 56, 64
1, 262522, Note_off_c, 0, 50, 64
1, 262540, Note_on_c, 0, 62, 57
1, 262543, Note_on_c, 0, 60, 47
1, 262550, Note_on_c, 0, 56, 36
1, 262584, Note_on_c, 0, 50, 32
1, 262608, Note_off_c, 0, 60, 64
1, 262630, Note_off_c, 0, 56, 64
1, 262644, Note_off_c, 0, 50, 64
1, 262646, Note_off_c, 0, 62, 64
1, 262742, Note_on_c, 0, 67, 71
1, 262747, Note_on_c, 0, 55, 53
1, 262747, Note_on_c, 0, 62, 40
1, 262751, Control_c, 0, 64, 0
1, 262756, Note_off_c, 0, 65, 64
1, 262758, Note_on_c, 0, 50, 21
1, 262760, Note_on_c, 0, 43, 43
1, 262774, Note_on_c, 0, 59, 44
1, 262918, Note_off_c, 0, 55, 64
1, 262946, Note_off_c, 0, 62, 64
1, 262960, Control_c, 0, 64, 127
1, 262970, Note_off_c, 0, 50, 64
1, 262982, Note_off_c, 0, 43, 64
1, 263002, Note_off_c, 0, 59, 64
1, 263102, Note_on_c, 0, 43, 29
1, 263112, Note_on_c, 0, 59, 41
1, 263118, Note_on_c, 0, 62, 52
1, 263122, Note_on_c, 0, 55, 20
1, 263134, Note_on_c, 0, 50, 14
1, 263170, Note_off_c, 0, 62, 64
1, 263176, Note_off_c, 0, 59, 64
1, 263194, Note_off_c, 0, 55, 64
1, 263220, Note_off_c, 0, 50, 64
1, 263264, Note_on_c, 0, 62, 39
1, 263264, Note_on_c, 0, 59, 64
1, 263286, Note_on_c, 0, 55, 33
1, 263298, Note_off_c, 0, 67, 64
1, 263318, Note_off_c, 0, 59, 64
1, 263348, Note_off_c, 0, 62, 64
1, 263362, Note_off_c, 0, 55, 64
1, 263368, Note_off_c, 0, 43, 64
1, 263422, Note_on_c, 0, 48, 44
1, 263436, Note_on_c, 0, 63, 78
1, 263442, Control_c, 0, 64, 0
1, 263454, Note_on_c, 0, 55, 54
1, 263468, Note_on_c, 0, 60, 49
1, 263524, Note_on_c, 0, 65, 55
1, 263550, Note_off_c, 0, 63, 64
1, 263602, Note_on_c, 0, 63, 81
1, 263610, Control_c, 0, 64, 127
1, 263614, Note_off_c, 0, 55, 64
1, 263640, Note_off_c, 0, 60, 64
1, 263658, Note_off_c, 0, 48, 64
1, 263682, Note_off_c, 0, 65, 64
1, 263738, Note_on_c, 0, 62, 79
1, 263738, Note_on_c, 0, 48, 41
1, 263741, Note_on_c, 0, 59, 64
1, 263746, Note_on_c, 0, 55, 34
1, 263764, Note_off_c, 0, 63, 64
1, 263792, Note_off_c, 0, 59, 64
1, 263806, Note_off_c, 0, 48, 64
1, 263808, Note_off_c, 0, 55, 64
1, 263866, Note_on_c, 0, 63, 83
1, 263869, Note_on_c, 0, 55, 81
1, 263884, Note_on_c, 0, 48, 61
1, 263892, Note_on_c, 0, 60, 74
1, 263926, Note_off_c, 0, 62, 64
1, 263938, Note_off_c, 0, 55, 64
1, 263980, Note_off_c, 0, 60, 64
1, 264008, Note_off_c, 0, 48, 64
1, 264024, Note_on_c, 0, 46, 55
1, 264026, Note_on_c, 0, 62, 66
1, 264026, Note_on_c, 0, 56, 51
1, 264030, Note_on_c, 0, 65, 85
1, 264040, Control_c, 0, 64, 0
1, 264066, Note_off_c, 0, 63, 64
1, 264130, Note_on_c, 0, 67, 81
1, 264140, Note_off_c, 0, 65, 64
1, 264200, Note_on_c, 0, 65, 79
1, 264220, Note_off_c, 0, 56, 64
1, 264240, Control_c, 0, 64, 127
1, 264262, Note_off_c, 0, 46, 64
1, 264324, Note_off_c, 0, 67, 64
1, 264334, Note_off_c, 0, 62, 64
1, 264346, Note_on_c, 0, 63, 96
1, 264348, Note_on_c, 0, 46, 57
1, 264350, Note_on_c, 0, 60, 86
1, 264354, Note_on_c, 0, 56, 72
1, 264404, Note_off_c, 0, 65, 64
1, 264416, Note_off_c, 0, 56, 64
1, 264462, Note_off_c, 0, 60, 64
1, 264468, Note_off_c, 0, 46, 64
1, 264488, Note_on_c, 0, 65, 73
1, 264496, Note_on_c, 0, 62, 83
1, 264508, Note_on_c, 0, 56, 43
1, 264522, Note_on_c, 0, 46, 78
1, 264551, Note_off_c, 0, 63, 64
1, 264568, Note_off_c, 0, 56, 64
1, 264576, Note_off_c, 0, 62, 64
1, 264578, Note_off_c, 0, 46, 64
1, 264670, Note_on_c, 0, 67, 92
1, 264688, Note_on_c, 0, 51, 76
1, 264696, Note_on_c, 0, 39, 76
1, 264698, Note_on_c, 0, 63, 84
1, 264704, Note_on_c, 0, 55, 67
1, 264706, Note_on_c, 0, 46, 56
1, 264708, Note_off_c, 0, 65, 64
1, 264716, Control_c, 0, 64, 0
1, 264732, Note_on_c, 0, 57, 34
1, 264800, Note_off_c, 0, 57, 64
1, 264822, Note_off_c, 0, 63, 64
1, 264886, Note_off_c, 0, 39, 64
1, 264900, Note_off_c, 0, 51, 64
1, 264916, Note_off_c, 0, 55, 64
1, 264916, Control_c, 0, 64, 127
1, 264932, Note_off_c, 0, 46, 64
1, 264972, Note_off_c, 0, 67, 64
1, 265012, Note_on_c, 0, 51, 82
1, 265015, Note_on_c, 0, 55, 67
1, 265015, Note_on_c, 0, 39, 67
1, 265020, Note_on_c, 0, 63, 80
1, 265024, Note_on_c, 0, 46, 36
1, 265090, Note_off_c, 0, 39, 64
1, 265098, Note_off_c, 0, 51, 64
1, 265106, Note_off_c, 0, 55, 64
1, 265116, Note_off_c, 0, 46, 64
1, 265124, Note_off_c, 0, 63, 64
1, 265186, Note_on_c, 0, 55, 65
1, 265188, Note_on_c, 0, 63, 83
1, 265218, Note_on_c, 0, 51, 65
1, 265226, Note_on_c, 0, 46, 48
1, 265229, Note_off_c, 0, 55, 64
1, 265233, Note_on_c, 0, 39, 64
1, 265262, Note_off_c, 0, 51, 64
1, 265270, Note_off_c, 0, 63, 64
1, 265273, Note_off_c, 0, 46, 64
1, 265276, Note_off_c, 0, 39, 64
1, 265600, Note_on_c, 0, 79, 111
1, 265608, Control_c, 0, 64, 0
1, 265618, Note_on_c, 0, 35, 98
1, 265618, Note_on_c, 0, 47, 86
1, 265620, Note_on_c, 0, 67, 74
1, 265624, Note_on_c, 0, 74, 70
1, 265627, Note_on_c, 0, 65, 75
1, 265804, Note_off_c, 0, 35, 64
1, 265826, Note_off_c, 0, 47, 64
1, 265838, Control_c, 0, 64, 127
1, 265886, Note_off_c, 0, 65, 64
1, 265896, Note_off_c, 0, 67, 64
1, 265990, Note_off_c, 0, 79, 64
1, 266004, Note_off_c, 0, 74, 64
1, 266062, Note_on_c, 0, 59, 74
1, 266072, Note_on_c, 0, 47, 38
1, 266075, Note_on_c, 0, 55, 67
1, 266082, Note_on_c, 0, 65, 55
1, 266082, Note_on_c, 0, 67, 33
1, 266108, Note_off_c, 0, 59, 64
1, 266132, Note_off_c, 0, 55, 64
1, 266132, Note_off_c, 0, 65, 64
1, 266135, Note_off_c, 0, 47, 64
1, 266152, Note_off_c, 0, 67, 64
1, 266236, Note_on_c, 0, 67, 62
1, 266244, Note_on_c, 0, 65, 54
1, 266254, Note_on_c, 0, 59, 72
1, 266274, Note_on_c, 0, 47, 28
1, 266286, Note_on_c, 0, 55, 41
1, 266300, Note_off_c, 0, 65, 64
1, 266310, Note_off_c, 0, 59, 64
1, 266344, Note_off_c, 0, 47, 64
1, 266346, Note_off_c, 0, 67, 64
1, 266364, Note_off_c, 0, 55, 64
1, 266460, Note_on_c, 0, 74, 102
1, 266468, Note_on_c, 0, 67, 77
1, 266480, Note_on_c, 0, 59, 60
1, 266480, Note_on_c, 0, 65, 55
1, 266486, Note_on_c, 0, 47, 51
1, 266488, Note_on_c, 0, 55, 30
1, 266534, Note_off_c, 0, 65, 64
1, 266538, Note_off_c, 0, 67, 64
1, 266576, Note_off_c, 0, 47, 64
1, 266616, Note_off_c, 0, 59, 64
1, 266630, Note_off_c, 0, 55, 64
1, 266814, Note_on_c, 0, 67, 64
1, 266818, Note_on_c, 0, 65, 54
1, 266820, Note_on_c, 0, 47, 52
1, 266822, Note_on_c, 0, 59, 52
1, 266850, Note_on_c, 0, 55, 36
1, 266870, Note_off_c, 0, 67, 64
1, 266872, Note_off_c, 0, 65, 64
1, 266872, Note_off_c, 0, 47, 64
1, 266878, Note_off_c, 0, 59, 64
1, 266926, Note_off_c, 0, 55, 64
1, 266962, Note_on_c, 0, 59, 51
1, 266962, Note_on_c, 0, 65, 51
1, 266974, Note_on_c, 0, 47, 33
1, 266977, Note_on_c, 0, 67, 38
1, 266984, Note_on_c, 0, 55, 29
1, 267038, Note_off_c, 0, 47, 64
1, 267041, Note_off_c, 0, 74, 64
1, 267048, Note_off_c, 0, 65, 64
1, 267050, Note_off_c, 0, 67, 64
1, 267072, Note_off_c, 0, 59, 64
1, 267128, Note_on_c, 0, 76, 95
1, 267128, Control_c, 0, 64, 0
1, 267134, Note_on_c, 0, 72, 65
1, 267142, Note_on_c, 0, 67, 60
1, 267150, Note_on_c, 0, 64, 83
1, 267152, Note_on_c, 0, 70, 46
1, 267154, Note_on_c, 0, 60, 73
1, 267166, Note_on_c, 0, 48, 52
1, 267282, Note_off_c, 0, 64, 64
1, 267304, Note_off_c, 0, 67, 64
1, 267320, Note_off_c, 0, 55, 64
1, 267328, Control_c, 0, 64, 127
1, 267330, Note_off_c, 0, 48, 64
1, 267352, Note_off_c, 0, 70, 64
1, 267358, Note_off_c, 0, 72, 64
1, 267366, Note_off_c, 0, 60, 64
1, 267458, Note_on_c, 0, 58, 57
1, 267462, Note_on_c, 0, 72, 51
1, 267464, Note_on_c, 0, 70, 59
1, 267466, Note_on_c, 0, 60, 29
1, 267470, Note_on_c, 0, 64, 65
1, 267518, Note_off_c, 0, 64, 64
1, 267540, Note_off_c, 0, 76, 64
1, 267552, Note_off_c, 0, 70, 64
1, 267562, Note_off_c, 0, 58, 64
1, 267564, Note_off_c, 0, 60, 64
1, 267586, Note_off_c, 0, 72, 64
1, 267632, Note_on_c, 0, 70, 49
1, 267636, Note_on_c, 0, 72, 54
1, 267642, Note_on_c, 0, 58, 44
1, 267644, Note_on_c, 0, 64, 62
1, 267654, Note_on_c, 0, 60, 51
1, 267674, Note_off_c, 0, 72, 64
1, 267680, Note_off_c, 0, 70, 64
1, 267682, Note_on_c, 0, 55, 27
1, 267728, Note_off_c, 0, 64, 64
1, 267738, Note_off_c, 0, 60, 64
1, 267752, Note_off_c, 0, 55, 64
1, 267770, Note_off_c, 0, 58, 64
1, 267894, Note_on_c, 0, 79, 98
1, 267910, Note_on_c, 0, 64, 73
1, 267912, Note_on_c, 0, 68, 55
1, 267916, Note_on_c, 0, 72, 52
1, 267924, Note_on_c, 0, 60, 49
1, 267928, Control_c, 0, 64, 0
1, 267936, Note_on_c, 0, 53, 68
1, 268112, Control_c, 0, 64, 127
1, 268132, Note_on_c, 0, 77, 85
1, 268168, Note_off_c, 0, 64, 64
1, 268168, Note_off_c, 0, 53, 64
1, 268180, Note_off_c, 0, 79, 64
1, 268182, Note_off_c, 0, 60, 64
1, 268184, Note_off_c, 0, 68, 64
1, 268220, Note_off_c, 0, 72, 64
1, 268230, Note_off_c, 0, 77, 64
1, 268292, Note_on_c, 0, 65, 61
1, 268295, Note_on_c, 0, 77, 88
1, 268295, Note_on_c, 0, 53, 70
1, 268298, Note_on_c, 0, 60, 29
1, 268302, Note_on_c, 0, 72, 47
1, 268314, Note_on_c, 0, 68, 61
1, 268358, Note_off_c, 0, 65, 64
1, 268361, Note_off_c, 0, 53, 64
1, 268361, Note_off_c, 0, 68, 64
1, 268380, Note_off_c, 0, 72, 64
1, 268388, Note_off_c, 0, 60, 64
1, 268398, Note_off_c, 0, 77, 64
1, 268462, Note_on_c, 0, 75, 86
1, 268468, Note_on_c, 0, 72, 57
1, 268471, Note_on_c, 0, 68, 49
1, 268474, Note_on_c, 0, 53, 72
1, 268480, Note_on_c, 0, 65, 51
1, 268482, Note_on_c, 0, 60, 41
1, 268514, Note_off_c, 0, 72, 64
1, 268526, Note_off_c, 0, 65, 64
1, 268532, Note_off_c, 0, 68, 64
1, 268542, Note_off_c, 0, 53, 64
1, 268566, Note_off_c, 0, 75, 64
1, 268569, Note_off_c, 0, 60, 64
1, 268654, Note_on_c, 0, 74, 100
1, 268666, Control_c, 0, 64, 0
1, 268680, Note_on_c, 0, 65, 68
1, 268680, Note_on_c, 0, 62, 63
1, 268684, Note_on_c, 0, 72, 59
1, 268686, Note_on_c, 0, 68, 41
1, 268686, Note_on_c, 0, 60, 24
1, 268700, Note_on_c, 0, 53, 51
1, 268818, Note_off_c, 0, 62, 64
1, 268834, Control_c, 0, 64, 127
1, 268839, Note_off_c, 0, 72, 64
1, 268848, Note_off_c, 0, 60, 64
1, 268850, Note_off_c, 0, 53, 64
1, 268854, Note_off_c, 0, 68, 64
1, 268868, Note_off_c, 0, 65, 64
1, 268966, Note_on_c, 0, 68, 44
1, 268966, Note_on_c, 0, 53, 62
1, 268972, Note_on_c, 0, 65, 35
1, 268974, Note_on_c, 0, 72, 63
1, 268978, Note_on_c, 0, 62, 51
1, 268984, Note_on_c, 0, 60, 28
1, 269022, Note_off_c, 0, 72, 64
1, 269028, Note_off_c, 0, 68, 64
1, 269028, Note_off_c, 0, 53, 64
1, 269028, Note_off_c, 0, 65, 64
1, 269028, Note_off_c, 0, 62, 64
1, 269050, Note_off_c, 0, 60, 64
1, 269116, Note_on_c, 0, 68, 46
1, 269118, Note_on_c, 0, 65, 54
1, 269122, Note_on_c, 0, 72, 57
1, 269124, Note_on_c, 0, 53, 80
1, 269128, Note_on_c, 0, 62, 43
1, 269132, Note_on_c, 0, 60, 45
1, 269172, Note_off_c, 0, 53, 64
1, 269180, Note_off_c, 0, 62, 64
1, 269186, Note_off_c, 0, 74, 64
1, 269190, Note_off_c, 0, 65, 64
1, 269200, Note_off_c, 0, 60, 64
1, 269210, Note_off_c, 0, 68, 64
1, 269248, Note_off_c, 0, 72, 64
1, 269288, Note_on_c, 0, 76, 85
1, 269296, Control_c, 0, 64, 0
1, 269302, Note_on_c, 0, 70, 48
1, 269304, Note_on_c, 0, 60, 44
1, 269306, Note_on_c, 0, 72, 68
1, 269308, Note_on_c, 0, 64, 66
1, 269324, Note_on_c, 0, 58, 46
1, 269334, Note_on_c, 0, 55, 43
1, 269444, Note_off_c, 0, 70, 64
1, 269446, Note_off_c, 0, 72, 64
1, 269474, Note_off_c, 0, 60, 64
1, 269488, Note_off_c, 0, 64, 64
1, 269488, Control_c, 0, 64, 127
1, 269492, Note_off_c, 0, 58, 64
1, 269506, Note_off_c, 0, 55, 64
1, 269590, Note_on_c, 0, 72, 69
1, 269592, Note_on_c, 0, 55, 44
1, 269592, Note_on_c, 0, 58, 29
1, 269594, Note_on_c, 0, 60, 57
1, 269604, Note_on_c, 0, 70, 56
1, 269654, Note_off_c, 0, 76, 64
1, 269654, Note_off_c, 0, 70, 64
1, 269657, Note_off_c, 0, 55, 64
1, 269660, Note_off_c, 0, 72, 64
1, 269666, Note_off_c, 0, 60, 64
1, 269672, Note_off_c, 0, 58, 64
1, 269762, Note_on_c, 0, 72, 59
1, 269766, Note_on_c, 0, 60, 48
1, 269770, Note_on_c, 0, 55, 42
1, 269776, Note_on_c, 0, 58, 31
1, 269779, Note_on_c, 0, 70, 28
1, 269804, Note_off_c, 0, 72, 64
1, 269826, Note_off_c, 0, 55, 64
1, 269829, Note_off_c, 0, 60, 64
1, 269834, Note_off_c, 0, 58, 64
1, 269856, Note_off_c, 0, 70, 64
1, 270014, Note_on_c, 0, 79, 97
1, 270034, Control_c, 0, 64, 0
1, 270034, Note_on_c, 0, 68, 59
1, 270046, Note_on_c, 0, 72, 44
1, 270046, Note_on_c, 0, 64, 78
1, 270060, Note_on_c, 0, 56, 53
1, 270066, Note_on_c, 0, 60, 46
1, 270232, Control_c, 0, 64, 127
1, 270236, Note_on_c, 0, 77, 84
1, 270280, Note_off_c, 0, 79, 64
1, 270280, Note_off_c, 0, 68, 64
1, 270284, Note_off_c, 0, 56, 64
1, 270292, Note_off_c, 0, 64, 64
1, 270294, Note_off_c, 0, 60, 64
1, 270294, Note_off_c, 0, 77, 64
1, 270304, Note_off_c, 0, 72, 64
1, 270400, Note_on_c, 0, 77, 82
1, 270406, Note_on_c, 0, 65, 58
1, 270406, Note_on_c, 0, 60, 36
1, 270406, Note_on_c, 0, 72, 50
1, 270418, Note_on_c, 0, 68, 57
1, 270420, Note_on_c, 0, 56, 47
1, 270466, Note_off_c, 0, 65, 64
1, 270469, Note_off_c, 0, 68, 64
1, 270480, Note_off_c, 0, 56, 64
1, 270482, Note_off_c, 0, 72, 64
1, 270488, Note_off_c, 0, 60, 64
1, 270518, Note_off_c, 0, 77, 64
1, 270566, Note_on_c, 0, 75, 82
1, 270572, Note_on_c, 0, 72, 53
1, 270575, Note_on_c, 0, 68, 41
1, 270590, Note_on_c, 0, 60, 42
1, 270590, Note_on_c, 0, 65, 59
1, 270598, Note_on_c, 0, 56, 45
1, 270628, Note_off_c, 0, 72, 64
1, 270640, Note_off_c, 0, 65, 64
1, 270642, Note_off_c, 0, 68, 64
1, 270670, Note_off_c, 0, 60, 64
1, 270672, Note_off_c, 0, 56, 64
1, 270680, Note_off_c, 0, 75, 64
1, 270724, Control_c, 0, 64, 0
1, 270752, Note_on_c, 0, 75, 78
1, 270774, Note_on_c, 0, 65, 67
1, 270782, Note_on_c, 0, 60, 36
1, 270788, Note_on_c, 0, 68, 53
1, 270796, Note_on_c, 0, 53, 75
1, 270864, Note_off_c, 0, 68, 64
1, 270878, Control_c, 0, 64, 127
1, 270894, Note_off_c, 0, 65, 64
1, 270908, Note_off_c, 0, 60, 64
1, 270924, Note_on_c, 0, 74, 88
1, 270940, Note_off_c, 0, 75, 64
1, 270954, Note_off_c, 0, 53, 64
1, 270966, Note_off_c, 0, 74, 64
1, 271090, Note_on_c, 0, 60, 45
1, 271090, Note_on_c, 0, 74, 81
1, 271096, Note_on_c, 0, 68, 56
1, 271102, Note_on_c, 0, 53, 72
1, 271108, Note_on_c, 0, 65, 46
1, 271144, Note_off_c, 0, 60, 64
1, 271148, Note_off_c, 0, 53, 64
1, 271150, Note_off_c, 0, 68, 64
1, 271158, Note_off_c, 0, 65, 64
1, 271208, Note_off_c, 0, 74, 64
1, 271250, Note_on_c, 0, 72, 88
1, 271258, Note_on_c, 0, 65, 51
1, 271266, Note_on_c, 0, 53, 66
1, 271268, Note_on_c, 0, 68, 39
1, 271286, Note_on_c, 0, 60, 29
1, 271316, Note_off_c, 0, 53, 64
1, 271319, Note_off_c, 0, 68, 64
1, 271332, Note_off_c, 0, 65, 64
1, 271354, Note_off_c, 0, 72, 64
1, 271359, Note_off_c, 0, 60, 64
1, 271416, Control_c, 0, 64, 0
1, 271438, Note_on_c, 0, 72, 77
1, 271448, Note_on_c, 0, 60, 36
1, 271466, Note_on_c, 0, 62, 63
1, 271469, Note_on_c, 0, 65, 42
1, 271469, Note_on_c, 0, 56, 40
1, 271482, Note_on_c, 0, 50, 37
1, 271556, Note_off_c, 0, 65, 64
1, 271586, Note_off_c, 0, 62, 64
1, 271586, Control_c, 0, 64, 127
1, 271606, Note_off_c, 0, 50, 64
1, 271612, Note_off_c, 0, 60, 64
1, 271622, Note_on_c, 0, 70, 75
1, 271627, Note_off_c, 0, 56, 64
1, 271678, Note_off_c, 0, 72, 64
1, 271742, Note_off_c, 0, 70, 64
1, 271798, Note_on_c, 0, 56, 48
1, 271801, Note_on_c, 0, 70, 65
1, 271824, Note_on_c, 0, 62, 48
1, 271824, Note_on_c, 0, 65, 44
1, 271830, Note_on_c, 0, 50, 28
1, 271864, Note_off_c, 0, 56, 64
1, 271888, Note_off_c, 0, 65, 64
1, 271892, Note_off_c, 0, 62, 64
1, 271900, Note_off_c, 0, 50, 64
1, 271956, Note_off_c, 0, 70, 64
1, 272002, Note_on_c, 0, 68, 70
1, 272010, Note_on_c, 0, 53, 75
1, 272012, Note_on_c, 0, 50, 25
1, 272022, Note_on_c, 0, 62, 45
1, 272054, Note_off_c, 0, 53, 64
1, 272078, Note_off_c, 0, 62, 64
1, 272082, Note_off_c, 0, 50, 64
1, 272112, Note_off_c, 0, 68, 64
1, 272252, Note_on_c, 0, 67, 75
1, 272260, Note_on_c, 0, 62, 56
1, 272260, Control_c, 0, 64, 0
1, 272270, Note_on_c, 0, 43, 49
1, 272272, Note_on_c, 0, 59, 49
1, 272278, Note_on_c, 0, 55, 40
1, 272280, Note_on_c, 0, 50, 39
1, 272456, Note_off_c, 0, 55, 64
1, 272492, Note_off_c, 0, 43, 64
1, 272492, Control_c, 0, 64, 127
1, 272516, Note_off_c, 0, 59, 64
1, 272520, Note_off_c, 0, 50, 64
1, 272542, Note_off_c, 0, 67, 64
1, 272547, Note_off_c, 0, 62, 64
1, 272616, Note_on_c, 0, 67, 57
1, 272638, Note_on_c, 0, 48, 39
1, 272638, Note_on_c, 0, 60, 56
1, 272640, Note_on_c, 0, 63, 61
1, 272650, Note_on_c, 0, 55, 35
1, 272680, Note_on_c, 0, 43, 25
1, 272692, Note_off_c, 0, 67, 64
1, 272694, Note_off_c, 0, 60, 64
1, 272718, Note_off_c, 0, 48, 64
1, 272718, Note_off_c, 0, 55, 64
1, 272724, Note_off_c, 0, 63, 64
1, 272756, Note_off_c, 0, 43, 64
1, 272836, Note_on_c, 0, 67, 66
1, 272840, Note_on_c, 0, 60, 55
1, 272842, Note_on_c, 0, 43, 36
1, 272842, Note_on_c, 0, 57, 49
1, 272854, Note_on_c, 0, 55, 14
1, 272860, Note_on_c, 0, 51, 41
1, 272908, Note_off_c, 0, 43, 64
1, 272912, Note_off_c, 0, 57, 64
1, 272918, Note_off_c, 0, 60, 64
1, 272920, Note_off_c, 0, 55, 64
1, 272924, Note_off_c, 0, 51, 64
1, 272930, Note_off_c, 0, 67, 64
1, 273044, Control_c, 0, 64, 0
1, 273056, Note_on_c, 0, 67, 47
1, 273068, Note_on_c, 0, 62, 51
1, 273074, Note_on_c, 0, 59, 39
1, 273090, Note_on_c, 0, 43, 29
1, 273098, Note_on_c, 0, 50, 39
1, 273118, Note_on_c, 0, 55, 16
1, 273220, Note_off_c, 0, 55, 64
1, 273256, Note_off_c, 0, 43, 64
1, 273276, Note_off_c, 0, 50, 64
1, 273276, Control_c, 0, 64, 127
1, 273288, Note_off_c, 0, 59, 64
1, 273300, Note_off_c, 0, 67, 64
1, 273330, Note_off_c, 0, 62, 64
1, 273490, Note_on_c, 0, 67, 40
1, 273496, Note_on_c, 0, 63, 43
1, 273502, Note_on_c, 0, 60, 37
1, 273518, Note_on_c, 0, 55, 19
1, 273518, Note_on_c, 0, 43, 30
1, 273528, Note_on_c, 0, 48, 7
1, 273600, Note_off_c, 0, 60, 64
1, 273604, Note_off_c, 0, 43, 64
1, 273610, Note_off_c, 0, 55, 64
1, 273618, Note_off_c, 0, 67, 64
1, 273624, Note_off_c, 0, 48, 64
1, 273782, Note_off_c, 0, 63, 64
1, 273782, Control_c, 0, 64, 0
1, 273788, Note_on_c, 0, 67, 44
1, 273790, Note_on_c, 0, 60, 36
1, 273798, Note_on_c, 0, 57, 30
1, 273812, Note_on_c, 0, 55, 19
1, 273822, Note_on_c, 0, 51, 33
1, 273854, Note_on_c, 0, 43, 8
1, 273928, Note_off_c, 0, 55, 64
1, 273966, Note_off_c, 0, 43, 64
1, 273982, Control_c, 0, 64, 127
1, 273998, Note_off_c, 0, 57, 64
1, 274006, Note_off_c, 0, 67, 64
1, 274034, Note_off_c, 0, 51, 64
1, 274196, Control_c, 0, 64, 0
1, 274208, Note_on_c, 0, 67, 28
1, 274222, Note_off_c, 0, 60, 64
1, 274222, Note_on_c, 0, 62, 28
1, 274225, Note_on_c, 0, 59, 15
1, 274230, Note_on_c, 0, 43, 15
1, 274246, Note_on_c, 0, 50, 24
1, 274249, Note_on_c, 0, 55, 5
1, 274490, Note_off_c, 0, 59, 64
1, 274490, Note_off_c, 0, 55, 64
1, 274492, Note_off_c, 0, 43, 64
1, 274504, Control_c, 0, 64, 127
1, 274554, Note_off_c, 0, 50, 64
1, 274594, Note_off_c, 0, 62, 64
1, 274646, Note_off_c, 0, 67, 64
1, 274960, Note_on_c, 0, 74, 48
1, 275000, Note_on_c, 0, 62, 25
1, 275566, Control_c, 0, 64, 0
1, 275948, Control_c, 0, 64, 127
1, 276198, Note_on_c, 0, 72, 36
1, 276278, Note_off_c, 0, 62, 64
1, 276298, Note_off_c, 0, 74, 64
1, 276602, Note_on_c, 0, 71, 56
1, 276660, Note_on_c, 0, 62, 24
1, 276664, Note_off_c, 0, 72, 64
1, 276866, Note_on_c, 0, 69, 51
1, 276882, Note_off_c, 0, 71, 64
1, 277094, Note_on_c, 0, 68, 64
1, 277112, Note_off_c, 0, 69, 64
1, 277138, Note_on_c, 0, 60, 20
1, 277144, Note_on_c, 0, 54, 23
1, 277170, Note_off_c, 0, 62, 64
1, 277210, Control_c, 0, 64, 0
1, 277332, Control_c, 0, 64, 127
1, 277340, Note_on_c, 0, 69, 66
1, 277368, Note_off_c, 0, 60, 64
1, 277394, Note_off_c, 0, 54, 64
1, 277410, Note_off_c, 0, 68, 64
1, 277540, Note_on_c, 0, 71, 79
1, 277566, Note_on_c, 0, 50, 31
1, 277574, Note_on_c, 0, 62, 15
1, 277578, Note_off_c, 0, 69, 64
1, 277656, Note_off_c, 0, 50, 64
1, 277659, Note_off_c, 0, 71, 64
1, 277704, Note_on_c, 0, 72, 75
1, 277708, Note_off_c, 0, 62, 64
1, 277886, Note_on_c, 0, 73, 68
1, 277900, Control_c, 0, 64, 0
1, 277900, Note_on_c, 0, 59, 31
1, 277914, Note_on_c, 0, 55, 29
1, 277920, Note_off_c, 0, 72, 64
1, 278064, Note_on_c, 0, 74, 75
1, 278070, Control_c, 0, 64, 127
1, 278084, Note_off_c, 0, 73, 64
1, 278220, Note_off_c, 0, 55, 64
1, 278224, Note_off_c, 0, 59, 64
1, 278234, Note_off_c, 0, 74, 64
1, 278238, Note_on_c, 0, 79, 87
1, 278258, Note_on_c, 0, 62, 36
1, 278266, Note_on_c, 0, 50, 21
1, 278314, Note_off_c, 0, 62, 64
1, 278348, Note_off_c, 0, 50, 64
1, 278414, Note_on_c, 0, 76, 74
1, 278470, Note_off_c, 0, 79, 64
1, 278606, Control_c, 0, 64, 0
1, 278611, Note_on_c, 0, 73, 64
1, 278628, Note_off_c, 0, 76, 64
1, 278656, Note_on_c, 0, 38, 32
1, 278760, Note_off_c, 0, 38, 64
1, 278776, Control_c, 0, 64, 127
1, 278834, Note_on_c, 0, 74, 65
1, 278858, Note_off_c, 0, 73, 64
1, 278994, Note_on_c, 0, 78, 58
1, 279000, Note_on_c, 0, 50, 34
1, 279004, Note_on_c, 0, 62, 20
1, 279016, Note_off_c, 0, 74, 64
1, 279144, Note_off_c, 0, 50, 64
1, 279149, Note_on_c, 0, 76, 55
1, 279190, Note_off_c, 0, 78, 64
1, 279200, Note_off_c, 0, 62, 64
1, 279316, Note_on_c, 0, 74, 73
1, 279320, Note_on_c, 0, 60, 40
1, 279324, Note_off_c, 0, 76, 64
1, 279366, Note_on_c, 0, 57, 23
1, 279446, Note_off_c, 0, 57, 64
1, 279486, Note_off_c, 0, 60, 64
1, 279492, Note_on_c, 0, 72, 69
1, 279508, Note_off_c, 0, 74, 64
1, 279556, Note_off_c, 0, 72, 64
1, 279650, Note_on_c, 0, 64, 78
1, 279660, Note_on_c, 0, 62, 47
1, 279678, Note_on_c, 0, 50, 44
1, 279768, Note_off_c, 0, 64, 64
1, 279816, Note_on_c, 0, 66, 61
1, 279844, Note_off_c, 0, 50, 64
1, 279912, Note_off_c, 0, 62, 64
1, 279926, Note_on_c, 0, 67, 57
1, 279942, Note_off_c, 0, 66, 64
1, 279980, Note_off_c, 0, 67, 64
1, 279980, Note_on_c, 0, 69, 60
1, 280020, Control_c, 0, 64, 0
1, 280026, Note_on_c, 0, 59, 31
1, 280034, Note_on_c, 0, 55, 28
1, 280046, Note_on_c, 0, 67, 63
1, 280124, Note_off_c, 0, 69, 64
1, 280204, Control_c, 0, 64, 127
1, 280240, Note_on_c, 0, 66, 70
1, 280274, Note_off_c, 0, 67, 64
1, 280404, Note_off_c, 0, 59, 64
1, 280418, Note_on_c, 0, 67, 88
1, 280426, Note_off_c, 0, 55, 64
1, 280436, Note_on_c, 0, 62, 42
1, 280446, Note_on_c, 0, 50, 43
1, 280460, Note_off_c, 0, 66, 64
1, 280538, Note_off_c, 0, 62, 64
1, 280538, Note_off_c, 0, 50, 64
1, 280570, Note_on_c, 0, 68, 74
1, 280610, Note_off_c, 0, 67, 64
1, 280702, Note_off_c, 0, 68, 64
1, 280728, Control_c, 0, 64, 0
1, 280731, Note_on_c, 0, 69, 71
1, 280734, Note_on_c, 0, 57, 45
1, 280742, Note_on_c, 0, 54, 46
1, 280906, Note_on_c, 0, 78, 77
1, 280912, Control_c, 0, 64, 127
1, 280938, Note_off_c, 0, 69, 64
1, 281052, Note_off_c, 0, 54, 64
1, 281070, Note_on_c, 0, 62, 39
1, 281074, Note_off_c, 0, 57, 64
1, 281078, Note_on_c, 0, 76, 80
1, 281086, Note_on_c, 0, 50, 39
1, 281136, Note_off_c, 0, 78, 64
1, 281236, Note_on_c, 0, 74, 89
1, 281239, Note_off_c, 0, 50, 64
1, 281258, Note_off_c, 0, 62, 64
1, 281288, Note_off_c, 0, 76, 64
1, 281380, Note_on_c, 0, 58, 40
1, 281384, Note_off_c, 0, 74, 64
1, 281388, Control_c, 0, 64, 0
1, 281390, Note_on_c, 0, 73, 75
1, 281400, Note_on_c, 0, 55, 43
1, 281558, Note_on_c, 0, 78, 79
1, 281572, Control_c, 0, 64, 127
1, 281596, Note_off_c, 0, 73, 64
1, 281714, Note_on_c, 0, 62, 39
1, 281717, Note_on_c, 0, 79, 91
1, 281734, Note_on_c, 0, 50, 36
1, 281742, Note_off_c, 0, 78, 64
1, 281756, Control_c, 0, 64, 0
1, 281878, Note_on_c, 0, 81, 84
1, 281932, Note_off_c, 0, 79, 64
1, 281940, Control_c, 0, 64, 127
1, 282002, Control_c, 0, 64, 0
1, 282056, Note_on_c, 0, 84, 83
1, 282094, Note_off_c, 0, 81, 64
1, 282172, Control_c, 0, 64, 127
1, 282175, Note_off_c, 0, 62, 64
1, 282200, Note_off_c, 0, 50, 64
1, 282236, Note_on_c, 0, 82, 66
1, 282288, Note_off_c, 0, 84, 64
1, 282410, Note_on_c, 0, 79, 75
1, 282416, Note_off_c, 0, 82, 64
1, 282418, Note_on_c, 0, 50, 38
1, 282420, Note_on_c, 0, 62, 36
1, 282504, Note_off_c, 0, 55, 64
1, 282530, Note_off_c, 0, 58, 64
1, 282556, Note_off_c, 0, 79, 64
1, 282582, Note_on_c, 0, 73, 64
1, 282588, Note_off_c, 0, 62, 64
1, 282766, Note_off_c, 0, 73, 64
1, 282820, Note_on_c, 0, 74, 61
1, 282836, Note_on_c, 0, 57, 38
1, 282846, Note_on_c, 0, 54, 38
1, 282849, Note_off_c, 0, 50, 64
1, 282878, Control_c, 0, 64, 0
1, 283062, Control_c, 0, 64, 127
1, 283210, Note_off_c, 0, 74, 64
1, 283244, Note_on_c, 0, 76, 49
1, 283304, Note_off_c, 0, 76, 64
1, 283307, Note_on_c, 0, 74, 59
1, 283324, Note_on_c, 0, 62, 24
1, 283366, Note_on_c, 0, 50, 27
1, 283422, Note_off_c, 0, 57, 64
1, 283426, Note_off_c, 0, 54, 64
1, 283560, Note_off_c, 0, 74, 64
1, 283596, Note_on_c, 0, 75, 55
1, 283618, Note_off_c, 0, 62, 64
1, 283642, Note_on_c, 0, 58, 38
1, 283650, Note_on_c, 0, 74, 59
1, 283658, Note_off_c, 0, 50, 64
1, 283661, Control_c, 0, 64, 0
1, 283666, Note_on_c, 0, 55, 45
1, 283676, Note_off_c, 0, 75, 64
1, 283816, Control_c, 0, 64, 127
1, 283888, Note_off_c, 0, 74, 64
1, 283922, Note_on_c, 0, 76, 48
1, 283968, Note_on_c, 0, 74, 61
1, 283968, Control_c, 0, 64, 0
1, 283971, Note_on_c, 0, 62, 39
1, 283976, Note_off_c, 0, 76, 64
1, 283988, Note_on_c, 0, 50, 42
1, 284056, Note_off_c, 0, 55, 64
1, 284124, Control_c, 0, 64, 127
1, 284156, Note_off_c, 0, 58, 64
1, 284214, Note_off_c, 0, 74, 64
1, 284232, Note_on_c, 0, 75, 52
1, 284270, Note_off_c, 0, 62, 64
1, 284270, Note_off_c, 0, 50, 64
1, 284294, Note_on_c, 0, 59, 50
1, 284300, Note_on_c, 0, 56, 38
1, 284310, Note_on_c, 0, 74, 43
1, 284316, Note_off_c, 0, 75, 64
1, 284322, Control_c, 0, 64, 0
1, 284506, Control_c, 0, 64, 127
1, 284562, Note_off_c, 0, 74, 64
1, 284616, Note_on_c, 0, 76, 26
1, 284676, Control_c, 0, 64, 0
1, 284686, Note_off_c, 0, 76, 64
1, 284688, Note_on_c, 0, 74, 39
1, 284708, Note_on_c, 0, 62, 38
1, 284724, Note_on_c, 0, 50, 28
1, 284890, Control_c, 0, 64, 127
1, 284912, Note_off_c, 0, 56, 64
1, 284916, Note_off_c, 0, 59, 64
1, 284976, Note_off_c, 0, 50, 64
1, 285016, Note_off_c, 0, 74, 64
1, 285016, Note_on_c, 0, 75, 43
1, 285072, Note_off_c, 0, 62, 64
1, 285138, Control_c, 0, 64, 0
1, 285166, Note_on_c, 0, 60, 34
1, 285176, Note_on_c, 0, 57, 21
1, 285188, Note_off_c, 0, 75, 64
1, 285190, Note_on_c, 0, 74, 62
1, 285410, Note_off_c, 0, 74, 64
1, 285413, Note_on_c, 0, 72, 53
1, 285413, Control_c, 0, 64, 127
1, 285616, Note_on_c, 0, 70, 45
1, 285640, Note_off_c, 0, 72, 64
1, 285660, Note_on_c, 0, 50, 34
1, 285662, Note_on_c, 0, 62, 29
1, 285808, Note_on_c, 0, 69, 59
1, 285860, Note_off_c, 0, 70, 64
1, 285924, Note_off_c, 0, 50, 64
1, 285964, Note_off_c, 0, 62, 64
1, 285970, Note_on_c, 0, 68, 67
1, 285996, Note_off_c, 0, 69, 64
1, 286028, Note_off_c, 0, 57, 64
1, 286034, Note_off_c, 0, 60, 64
1, 286142, Note_off_c, 0, 68, 64
1, 286142, Note_on_c, 0, 69, 58
1, 286286, Note_on_c, 0, 62, 32
1, 286304, Note_on_c, 0, 50, 32
1, 286312, Note_on_c, 0, 70, 59
1, 286322, Note_off_c, 0, 69, 64
1, 286368, Note_off_c, 0, 70, 64
1, 286400, Note_off_c, 0, 62, 64
1, 286434, Note_off_c, 0, 50, 64
1, 286476, Note_on_c, 0, 72, 54
1, 286594, Note_on_c, 0, 58, 28
1, 286624, Note_on_c, 0, 55, 28
1, 286628, Control_c, 0, 64, 0
1, 286640, Note_off_c, 0, 72, 64
1, 286660, Note_on_c, 0, 73, 57
1, 286856, Control_c, 0, 64, 127
1, 286862, Note_off_c, 0, 73, 64
1, 286868, Note_on_c, 0, 74, 63
1, 287058, Control_c, 0, 64, 0
1, 287104, Note_off_c, 0, 74, 64
1, 287104, Note_on_c, 0, 50, 20
1, 287107, Note_on_c, 0, 62, 14
1, 287144, Note_on_c, 0, 79, 43
1, 287268, Note_off_c, 0, 62, 64
1, 287273, Control_c, 0, 64, 127
1, 287282, Note_off_c, 0, 55, 64
1, 287302, Note_off_c, 0, 58, 64
1, 287342, Note_off_c, 0, 50, 64
1, 287452, Note_on_c, 0, 78, 47
1, 287460, Note_off_c, 0, 79, 64
1, 287684, Note_on_c, 0, 77, 47
1, 287686, Control_c, 0, 64, 0
1, 287698, Note_off_c, 0, 78, 64
1, 287698, Note_on_c, 0, 38, 30
1, 287808, Note_off_c, 0, 38, 64
1, 287826, Control_c, 0, 64, 127
1, 287886, Note_off_c, 0, 77, 64
1, 287908, Note_on_c, 0, 76, 32
1, 288074, Note_on_c, 0, 75, 39
1, 288088, Note_on_c, 0, 62, 22
1, 288100, Note_on_c, 0, 50, 26
1, 288116, Note_off_c, 0, 76, 64
1, 288198, Note_off_c, 0, 50, 64
1, 288230, Note_off_c, 0, 62, 64
1, 288246, Note_on_c, 0, 74, 48
1, 288252, Note_off_c, 0, 75, 64
1, 288382, Note_off_c, 0, 74, 64
1, 288394, Note_on_c, 0, 73, 42
1, 288412, Note_on_c, 0, 54, 28
1, 288416, Note_on_c, 0, 60, 25
1, 288522, Note_off_c, 0, 60, 64
1, 288540, Note_off_c, 0, 73, 64
1, 288562, Note_off_c, 0, 54, 64
1, 288562, Note_on_c, 0, 72, 52
1, 288712, Note_on_c, 0, 69, 43
1, 288734, Note_off_c, 0, 72, 64
1, 288736, Note_on_c, 0, 62, 33
1, 288748, Note_on_c, 0, 50, 36
1, 288830, Note_off_c, 0, 69, 64
1, 288854, Note_on_c, 0, 70, 48
1, 288858, Note_off_c, 0, 50, 64
1, 288916, Note_off_c, 0, 62, 64
1, 288918, Note_off_c, 0, 70, 64
1, 288966, Note_on_c, 0, 67, 45
1, 289019, Note_on_c, 0, 69, 59
1, 289028, Note_off_c, 0, 67, 64
1, 289030, Note_on_c, 0, 58, 22
1, 289054, Note_on_c, 0, 55, 26
1, 289070, Control_c, 0, 64, 0
1, 289096, Note_on_c, 0, 67, 59
1, 289160, Note_off_c, 0, 69, 64
1, 289270, Control_c, 0, 64, 127
1, 289276, Note_on_c, 0, 66, 58
1, 289286, Note_off_c, 0, 67, 64
1, 289428, Note_off_c, 0, 55, 64
1, 289466, Note_on_c, 0, 67, 70
1, 289470, Note_off_c, 0, 58, 64
1, 289472, Note_on_c, 0, 62, 39
1, 289496, Note_on_c, 0, 50, 34
1, 289498, Note_off_c, 0, 66, 64
1, 289646, Note_on_c, 0, 69, 69
1, 289650, Note_off_c, 0, 67, 64
1, 289674, Note_off_c, 0, 50, 64
1, 289694, Note_off_c, 0, 62, 64
1, 289712, Note_off_c, 0, 69, 64
1, 289822, Note_on_c, 0, 58, 27
1, 289836, Note_on_c, 0, 70, 68
1, 289854, Control_c, 0, 64, 0
1, 289864, Note_on_c, 0, 55, 24
1, 290024, Control_c, 0, 64, 127
1, 290068, Note_off_c, 0, 70, 64
1, 290070, Note_on_c, 0, 82, 70
1, 290254, Note_off_c, 0, 82, 64
1, 290300, Note_on_c, 0, 81, 69
1, 290322, Note_on_c, 0, 63, 49
1, 290334, Note_on_c, 0, 50, 42
1, 290494, Note_on_c, 0, 79, 84
1, 290520, Note_off_c, 0, 81, 64
1, 290672, Note_on_c, 0, 81, 78
1, 290700, Note_off_c, 0, 50, 64
1, 290706, Note_off_c, 0, 79, 64
1, 290744, Note_off_c, 0, 63, 64
1, 290850, Note_on_c, 0, 79, 86
1, 290912, Note_off_c, 0, 81, 64
1, 291002, Note_on_c, 0, 63, 59
1, 291012, Note_on_c, 0, 50, 49
1, 291014, Note_on_c, 0, 77, 81
1, 291017, Note_off_c, 0, 55, 64
1, 291034, Note_off_c, 0, 58, 64
1, 291044, Note_off_c, 0, 79, 64
1, 291172, Note_on_c, 0, 75, 75
1, 291192, Note_off_c, 0, 50, 64
1, 291192, Note_off_c, 0, 77, 64
1, 291200, Note_off_c, 0, 63, 64
1, 291346, Note_on_c, 0, 58, 45
1, 291348, Note_on_c, 0, 77, 75
1, 291360, Note_on_c, 0, 55, 54
1, 291368, Note_off_c, 0, 75, 64
1, 291376, Control_c, 0, 64, 0
1, 291512, Note_on_c, 0, 75, 68
1, 291514, Control_c, 0, 64, 127
1, 291528, Note_off_c, 0, 77, 64
1, 291630, Note_off_c, 0, 55, 64
1, 291642, Note_off_c, 0, 75, 64
1, 291664, Note_on_c, 0, 70, 60
1, 291668, Note_on_c, 0, 63, 63
1, 291672, Note_on_c, 0, 50, 42
1, 291782, Note_off_c, 0, 70, 64
1, 291820, Note_on_c, 0, 72, 72
1, 291844, Note_off_c, 0, 58, 64
1, 291864, Note_off_c, 0, 63, 64
1, 291864, Note_off_c, 0, 72, 64
1, 291922, Note_off_c, 0, 50, 64
1, 291996, Note_on_c, 0, 62, 59
1, 292000, Note_on_c, 0, 74, 73
1, 292012, Note_on_c, 0, 57, 38
1, 292028, Note_on_c, 0, 54, 38
1, 292040, Note_off_c, 0, 74, 64
1, 292060, Note_on_c, 0, 75, 62
1, 292098, Control_c, 0, 64, 0
1, 292112, Note_off_c, 0, 75, 64
1, 292142, Note_on_c, 0, 74, 52
1, 292198, Note_off_c, 0, 74, 64
1, 292202, Note_on_c, 0, 75, 56
1, 292256, Note_off_c, 0, 75, 64
1, 292266, Control_c, 0, 64, 127
1, 292280, Note_on_c, 0, 74, 57
1, 292328, Note_off_c, 0, 74, 64
1, 292332, Note_on_c, 0, 75, 73
1, 292374, Note_on_c, 0, 50, 41
1, 292420, Note_on_c, 0, 74, 63
1, 292428, Note_off_c, 0, 75, 64
1, 292450, Note_off_c, 0, 57, 64
1, 292466, Note_off_c, 0, 54, 64
1, 292478, Note_off_c, 0, 74, 64
1, 292492, Note_off_c, 0, 62, 64
1, 292508, Note_on_c, 0, 73, 76
1, 292568, Note_off_c, 0, 73, 64
1, 292588, Note_on_c, 0, 74, 72
1, 292666, Note_on_c, 0, 63, 86
1, 292666, Control_c, 0, 64, 0
1, 292688, Note_off_c, 0, 74, 64
1, 292688, Note_on_c, 0, 58, 45
1, 292698, Note_on_c, 0, 75, 79
1, 292704, Note_on_c, 0, 55, 37
1, 292718, Note_off_c, 0, 50, 64
1, 292764, Note_off_c, 0, 75, 64
1, 292784, Note_on_c, 0, 77, 73
1, 292826, Note_off_c, 0, 77, 64
1, 292850, Control_c, 0, 64, 127
1, 292860, Note_on_c, 0, 75, 58
1, 292920, Note_off_c, 0, 75, 64
1, 292940, Note_on_c, 0, 77, 69
1, 292982, Note_off_c, 0, 77, 64
1, 293000, Note_on_c, 0, 75, 66
1, 293010, Note_on_c, 0, 49, 73
1, 293066, Note_off_c, 0, 58, 64
1, 293070, Note_off_c, 0, 75, 64
1, 293082, Note_on_c, 0, 77, 73
1, 293128, Note_off_c, 0, 55, 64
1, 293156, Note_on_c, 0, 75, 62
1, 293198, Note_off_c, 0, 77, 64
1, 293240, Note_on_c, 0, 74, 83
1, 293254, Note_off_c, 0, 75, 64
1, 293300, Note_off_c, 0, 74, 64
1, 293312, Note_off_c, 0, 49, 64
1, 293316, Note_on_c, 0, 75, 76
1, 293348, Note_off_c, 0, 63, 64
1, 293422, Note_on_c, 0, 76, 81
1, 293430, Note_off_c, 0, 75, 64
1, 293433, Note_on_c, 0, 64, 82
1, 293438, Note_on_c, 0, 58, 48
1, 293464, Note_on_c, 0, 55, 48
1, 293480, Control_c, 0, 64, 0
1, 293536, Note_off_c, 0, 76, 64
1, 293542, Note_on_c, 0, 77, 74
1, 293592, Note_off_c, 0, 77, 64
1, 293630, Note_on_c, 0, 76, 54
1, 293650, Control_c, 0, 64, 127
1, 293684, Note_off_c, 0, 64, 64
1, 293698, Note_off_c, 0, 76, 64
1, 293718, Note_on_c, 0, 77, 67
1, 293762, Note_off_c, 0, 77, 64
1, 293780, Note_on_c, 0, 76, 58
1, 293842, Note_off_c, 0, 76, 64
1, 293852, Note_on_c, 0, 77, 62
1, 293866, Note_off_c, 0, 55, 64
1, 293910, Note_on_c, 0, 48, 48
1, 293928, Note_off_c, 0, 77, 64
1, 293938, Note_off_c, 0, 58, 64
1, 293940, Note_on_c, 0, 76, 56
1, 293990, Note_off_c, 0, 76, 64
1, 294012, Note_on_c, 0, 77, 70
1, 294110, Note_on_c, 0, 76, 63
1, 294146, Note_off_c, 0, 77, 64
1, 294198, Note_off_c, 0, 48, 64
1, 294216, Note_on_c, 0, 75, 75
1, 294224, Note_off_c, 0, 76, 64
1, 294352, Note_on_c, 0, 76, 68
1, 294386, Note_off_c, 0, 75, 64
1, 294540, Control_c, 0, 64, 0
1, 294570, Note_on_c, 0, 77, 66
1, 294570, Note_on_c, 0, 41, 44
1, 294596, Note_off_c, 0, 76, 64
1, 294764, Note_off_c, 0, 41, 64
1, 294770, Control_c, 0, 64, 127
1, 294842, Note_on_c, 0, 75, 61
1, 294912, Note_off_c, 0, 77, 64
1, 295108, Note_on_c, 0, 73, 50
1, 295142, Note_on_c, 0, 65, 42
1, 295150, Note_off_c, 0, 75, 64
1, 295168, Note_on_c, 0, 53, 53
1, 295322, Note_on_c, 0, 72, 56
1, 295346, Note_off_c, 0, 73, 64
1, 295524, Note_on_c, 0, 71, 75
1, 295538, Note_off_c, 0, 72, 64
1, 295586, Note_off_c, 0, 53, 64
1, 295704, Note_on_c, 0, 72, 75
1, 295714, Note_off_c, 0, 65, 64
1, 295744, Note_off_c, 0, 71, 64
1, 295882, Note_on_c, 0, 73, 73
1, 295884, Note_on_c, 0, 65, 40
1, 295896, Note_off_c, 0, 72, 64
1, 295910, Note_on_c, 0, 53, 56
1, 295986, Note_off_c, 0, 53, 64
1, 296042, Note_on_c, 0, 75, 73
1, 296080, Note_off_c, 0, 73, 64
1, 296122, Note_off_c, 0, 65, 64
1, 296214, Note_on_c, 0, 58, 32
1, 296220, Note_on_c, 0, 61, 39
1, 296230, Control_c, 0, 64, 0
1, 296236, Note_off_c, 0, 75, 64
1, 296236, Note_on_c, 0, 76, 72
1, 296444, Note_on_c, 0, 77, 74
1, 296446, Control_c, 0, 64, 127
1, 296464, Note_off_c, 0, 76, 64
1, 296600, Control_c, 0, 64, 0
1, 296680, Note_on_c, 0, 53, 50
1, 296686, Note_on_c, 0, 65, 23
1, 296692, Note_off_c, 0, 77, 64
1, 296692, Note_on_c, 0, 82, 48
1, 296758, Note_off_c, 0, 61, 64
1, 296768, Note_off_c, 0, 65, 64
1, 296768, Control_c, 0, 64, 127
1, 296788, Note_off_c, 0, 58, 64
1, 296824, Note_off_c, 0, 53, 64
1, 296980, Note_off_c, 0, 82, 64
1, 296980, Note_on_c, 0, 81, 60
1, 297182, Control_c, 0, 64, 0
1, 297196, Note_on_c, 0, 80, 54
1, 297202, Note_on_c, 0, 29, 29
1, 297222, Note_off_c, 0, 81, 64
1, 297314, Note_off_c, 0, 29, 64
1, 297336, Control_c, 0, 64, 127
1, 297414, Note_on_c, 0, 79, 70
1, 297456, Note_off_c, 0, 80, 64
1, 297586, Note_on_c, 0, 78, 68
1, 297614, Note_off_c, 0, 79, 64
1, 297616, Note_on_c, 0, 65, 33
1, 297624, Note_on_c, 0, 53, 43
1, 297728, Note_off_c, 0, 53, 64
1, 297748, Note_off_c, 0, 65, 64
1, 297762, Note_on_c, 0, 77, 75
1, 297772, Note_off_c, 0, 78, 64
1, 297906, Note_on_c, 0, 63, 46
1, 297918, Note_on_c, 0, 76, 63
1, 297922, Note_on_c, 0, 57, 35
1, 297952, Note_off_c, 0, 77, 64
1, 298072, Note_on_c, 0, 75, 65
1, 298096, Note_off_c, 0, 76, 64
1, 298194, Note_off_c, 0, 63, 64
1, 298228, Note_on_c, 0, 72, 60
1, 298230, Note_off_c, 0, 75, 64
1, 298240, Note_on_c, 0, 65, 32
1, 298260, Note_off_c, 0, 57, 64
1, 298263, Note_on_c, 0, 53, 35
1, 298358, Note_off_c, 0, 72, 64
1, 298372, Note_on_c, 0, 73, 62
1, 298450, Note_off_c, 0, 65, 64
1, 298480, Note_on_c, 0, 70, 46
1, 298496, Note_off_c, 0, 73, 64
1, 298534, Note_off_c, 0, 70, 64
1, 298534, Note_on_c, 0, 72, 54
1, 298554, Note_off_c, 0, 53, 64
1, 298557, Note_on_c, 0, 58, 23
1, 298560, Note_on_c, 0, 61, 39
1, 298580, Control_c, 0, 64, 0
1, 298590, Note_on_c, 0, 70, 58
1, 298618, Note_off_c, 0, 72, 64
1, 298766, Control_c, 0, 64, 127
1, 298784, Note_on_c, 0, 69, 59
1, 298798, Note_off_c, 0, 70, 64
1, 298964, Note_on_c, 0, 70, 65
1, 298988, Note_off_c, 0, 58, 64
1, 298988, Note_on_c, 0, 65, 36
1, 298992, Note_off_c, 0, 61, 64
1, 298994, Note_off_c, 0, 69, 64
1, 299020, Note_on_c, 0, 53, 50
1, 299142, Note_on_c, 0, 72, 78
1, 299162, Note_off_c, 0, 70, 64
1, 299236, Note_off_c, 0, 65, 64
1, 299246, Note_off_c, 0, 72, 64
1, 299284, Note_off_c, 0, 53, 64
1, 299302, Note_on_c, 0, 58, 29
1, 299305, Note_on_c, 0, 61, 37
1, 299308, Note_on_c, 0, 73, 72
1, 299334, Control_c, 0, 64, 0
1, 299456, Note_off_c, 0, 73, 64
1, 299476, Note_on_c, 0, 85, 83
1, 299488, Control_c, 0, 64, 127
1, 299558, Note_off_c, 0, 58, 64
1, 299646, Note_off_c, 0, 85, 64
1, 299664, Note_on_c, 0, 84, 91
1, 299688, Note_on_c, 0, 66, 48
1, 299693, Note_on_c, 0, 53, 57
1, 299718, Note_on_c, 0, 58, 2
1, 299834, Note_on_c, 0, 82, 78
1, 299864, Note_off_c, 0, 84, 64
1, 300016, Note_on_c, 0, 84, 91
1, 300042, Note_off_c, 0, 82, 64
1, 300110, Note_off_c, 0, 66, 64
1, 300110, Note_off_c, 0, 53, 64
1, 300174, Note_on_c, 0, 82, 84
1, 300206, Note_off_c, 0, 84, 64
1, 300332, Note_on_c, 0, 80, 81
1, 300332, Note_on_c, 0, 66, 42
1, 300344, Note_on_c, 0, 53, 60
1, 300374, Note_off_c, 0, 58, 64
1, 300378, Note_off_c, 0, 82, 64
1, 300384, Note_off_c, 0, 61, 64
1, 300482, Note_on_c, 0, 78, 76
1, 300506, Note_off_c, 0, 80, 64
1, 300636, Note_off_c, 0, 66, 64
1, 300640, Control_c, 0, 64, 0
1, 300656, Note_on_c, 0, 61, 59
1, 300666, Note_on_c, 0, 80, 67
1, 300678, Note_off_c, 0, 78, 64
1, 300704, Note_off_c, 0, 53, 64
1, 300704, Note_on_c, 0, 58, 20
1, 300816, Control_c, 0, 64, 127
1, 300824, Note_on_c, 0, 78, 66
1, 300860, Note_off_c, 0, 80, 64
1, 300992, Note_on_c, 0, 66, 43
1, 300992, Note_on_c, 0, 73, 53
1, 300995, Note_off_c, 0, 78, 64
1, 300995, Note_on_c, 0, 53, 51
1, 301088, Note_off_c, 0, 61, 64
1, 301116, Note_off_c, 0, 58, 64
1, 301138, Note_off_c, 0, 73, 64
1, 301150, Note_on_c, 0, 75, 62
1, 301174, Note_off_c, 0, 66, 64
1, 301288, Note_off_c, 0, 75, 64
1, 301298, Note_off_c, 0, 53, 64
1, 301322, Note_on_c, 0, 60, 52
1, 301332, Control_c, 0, 64, 0
1, 301342, Note_on_c, 0, 57, 39
1, 301342, Note_on_c, 0, 77, 63
1, 301490, Note_on_c, 0, 78, 67
1, 301492, Note_off_c, 0, 77, 64
1, 301546, Control_c, 0, 64, 127
1, 301614, Note_on_c, 0, 77, 57
1, 301628, Note_off_c, 0, 78, 64
1, 301722, Note_off_c, 0, 77, 64
1, 301738, Note_on_c, 0, 76, 59
1, 301748, Note_on_c, 0, 65, 41
1, 301762, Note_on_c, 0, 53, 58
1, 301834, Note_off_c, 0, 76, 64
1, 301860, Note_on_c, 0, 77, 60
1, 301886, Note_off_c, 0, 57, 64
1, 301904, Note_off_c, 0, 60, 64
1, 301938, Note_off_c, 0, 77, 64
1, 301966, Note_on_c, 0, 78, 57
1, 302020, Note_off_c, 0, 78, 64
1, 302038, Control_c, 0, 64, 0
1, 302058, Note_on_c, 0, 61, 63
1, 302062, Note_on_c, 0, 77, 63
1, 302070, Note_on_c, 0, 58, 41
1, 302144, Note_off_c, 0, 77, 64
1, 302166, Note_on_c, 0, 78, 73
1, 302169, Note_off_c, 0, 65, 64
1, 302176, Note_off_c, 0, 53, 64
1, 302222, Control_c, 0, 64, 127
1, 302282, Note_on_c, 0, 77, 73
1, 302294, Note_off_c, 0, 78, 64
1, 302358, Note_off_c, 0, 77, 64
1, 302382, Note_on_c, 0, 76, 63
1, 302400, Note_on_c, 0, 65, 45
1, 302400, Note_on_c, 0, 53, 65
1, 302426, Note_off_c, 0, 58, 64
1, 302500, Note_off_c, 0, 61, 64
1, 302504, Note_on_c, 0, 77, 72
1, 302526, Note_off_c, 0, 76, 64
1, 302594, Note_on_c, 0, 78, 65
1, 302612, Note_off_c, 0, 77, 64
1, 302652, Control_c, 0, 64, 0
1, 302668, Note_off_c, 0, 65, 64
1, 302690, Note_on_c, 0, 62, 68
1, 302693, Note_on_c, 0, 77, 54
1, 302702, Note_on_c, 0, 59, 52
1, 302714, Note_off_c, 0, 78, 64
1, 302734, Note_off_c, 0, 53, 64
1, 302804, Note_on_c, 0, 78, 55
1, 302818, Note_off_c, 0, 77, 64
1, 302914, Control_c, 0, 64, 127
1, 302922, Note_on_c, 0, 77, 52
1, 302952, Note_off_c, 0, 78, 64
1, 303036, Note_off_c, 0, 77, 64
1, 303056, Note_on_c, 0, 76, 42
1, 303059, Note_on_c, 0, 65, 35
1, 303082, Note_on_c, 0, 53, 65
1, 303150, Note_off_c, 0, 62, 64
1, 303150, Note_off_c, 0, 76, 64
1, 303153, Note_off_c, 0, 59, 64
1, 303208, Note_on_c, 0, 77, 44
1, 303314, Note_off_c, 0, 77, 64
1, 303322, Note_on_c, 0, 78, 56
1, 303462, Note_off_c, 0, 65, 64
1, 303470, Note_off_c, 0, 78, 64
1, 303488, Note_on_c, 0, 77, 55
1, 303526, Note_on_c, 0, 63, 47
1, 303530, Control_c, 0, 64, 0
1, 303558, Note_on_c, 0, 60, 25
1, 303740, Note_off_c, 0, 53, 64
1, 303766, Note_on_c, 0, 75, 44
1, 303824, Note_off_c, 0, 77, 64
1, 303824, Control_c, 0, 64, 127
1, 303990, Note_on_c, 0, 73, 38
1, 304016, Note_off_c, 0, 75, 64
1, 304056, Note_on_c, 0, 65, 26
1, 304090, Note_on_c, 0, 53, 43
1, 304180, Note_on_c, 0, 72, 42
1, 304196, Note_off_c, 0, 73, 64
1, 304328, Note_off_c, 0, 72, 64
1, 304358, Note_on_c, 0, 71, 55
1, 304404, Note_off_c, 0, 53, 64
1, 304436, Note_off_c, 0, 65, 64
1, 304508, Note_off_c, 0, 60, 64
1, 304518, Note_off_c, 0, 71, 64
1, 304530, Note_on_c, 0, 72, 60
1, 304682, Note_off_c, 0, 63, 64
1, 304696, Note_on_c, 0, 73, 62
1, 304706, Note_off_c, 0, 72, 64
1, 304722, Note_on_c, 0, 53, 55
1, 304730, Note_on_c, 0, 65, 20
1, 304804, Note_off_c, 0, 53, 64
1, 304820, Note_off_c, 0, 65, 64
1, 304866, Note_on_c, 0, 75, 62
1, 304872, Note_off_c, 0, 73, 64
1, 305040, Note_off_c, 0, 75, 64
1, 305048, Note_on_c, 0, 58, 26
1, 305054, Note_on_c, 0, 76, 59
1, 305060, Note_on_c, 0, 61, 35
1, 305096, Control_c, 0, 64, 0
1, 305266, Control_c, 0, 64, 127
1, 305282, Note_on_c, 0, 77, 62
1, 305298, Note_off_c, 0, 76, 64
1, 305576, Note_on_c, 0, 65, 12
1, 305579, Note_on_c, 0, 53, 32
1, 305588, Control_c, 0, 64, 0
1, 305618, Note_off_c, 0, 77, 64
1, 305621, Note_on_c, 0, 82, 37
1, 305732, Note_off_c, 0, 65, 64
1, 305742, Control_c, 0, 64, 127
1, 305766, Note_off_c, 0, 58, 64
1, 305772, Note_off_c, 0, 61, 64
1, 305812, Note_off_c, 0, 53, 64
1, 305868, Note_off_c, 0, 82, 64
1, 305960, Note_on_c, 0, 81, 43
1, 306186, Control_c, 0, 64, 0
1, 306230, Note_on_c, 0, 80, 39
1, 306244, Note_off_c, 0, 81, 64
1, 306254, Note_on_c, 0, 29, 8
1, 306372, Control_c, 0, 64, 127
1, 306380, Note_off_c, 0, 29, 64
1, 306464, Note_on_c, 0, 79, 56
1, 306484, Note_off_c, 0, 80, 64
1, 306544, Note_off_c, 0, 79, 64
1, 306654, Note_on_c, 0, 78, 36
1, 306726, Note_on_c, 0, 65, 17
1, 306744, Note_on_c, 0, 53, 26
1, 306828, Note_off_c, 0, 78, 64
1, 306836, Note_on_c, 0, 77, 58
1, 306864, Note_off_c, 0, 65, 64
1, 306942, Note_off_c, 0, 53, 64
1, 307008, Note_on_c, 0, 76, 45
1, 307022, Note_off_c, 0, 77, 64
1, 307058, Note_on_c, 0, 63, 25
1, 307058, Note_on_c, 0, 57, 6
1, 307210, Note_on_c, 0, 75, 45
1, 307230, Note_off_c, 0, 76, 64
1, 307294, Note_off_c, 0, 63, 64
1, 307390, Note_off_c, 0, 57, 64
1, 307393, Note_on_c, 0, 73, 43
1, 307402, Note_off_c, 0, 75, 64
1, 307422, Note_on_c, 0, 65, 11
1, 307504, Note_on_c, 0, 53, 2
1, 307532, Note_off_c, 0, 73, 64
1, 307562, Note_on_c, 0, 72, 46
1, 307628, Note_off_c, 0, 72, 64
1, 307692, Note_on_c, 0, 70, 41
1, 307738, Note_off_c, 0, 65, 64
1, 307750, Note_off_c, 0, 70, 64
1, 307762, Note_on_c, 0, 72, 56
1, 307790, Note_on_c, 0, 61, 30
1, 307806, Note_on_c, 0, 58, 3
1, 307808, Note_off_c, 0, 53, 64
1, 307826, Note_on_c, 0, 70, 36
1, 307878, Note_off_c, 0, 72, 64
1, 308044, Note_on_c, 0, 69, 41
1, 308047, Note_off_c, 0, 70, 64
1, 308062, Control_c, 0, 64, 0
1, 308204, Note_on_c, 0, 70, 48
1, 308214, Control_c, 0, 64, 127
1, 308228, Note_off_c, 0, 69, 64
1, 308234, Note_on_c, 0, 65, 10
1, 308242, Note_on_c, 0, 53, 31
1, 308276, Note_off_c, 0, 61, 64
1, 308294, Note_off_c, 0, 58, 64
1, 308297, Note_off_c, 0, 65, 64
1, 308328, Note_off_c, 0, 53, 64
1, 308424, Note_on_c, 0, 73, 38
1, 308428, Note_off_c, 0, 70, 64
1, 308630, Control_c, 0, 64, 0
1, 308644, Note_off_c, 0, 73, 64
1, 308656, Note_on_c, 0, 41, 33
1, 308658, Note_on_c, 0, 72, 37
1, 308814, Control_c, 0, 64, 127
1, 308820, Note_off_c, 0, 41, 64
1, 308874, Note_on_c, 0, 70, 34
1, 308880, Note_off_c, 0, 72, 64
1, 309050, Note_on_c, 0, 68, 40
1, 309064, Note_off_c, 0, 70, 64
1, 309100, Note_on_c, 0, 48, 22
1, 309112, Note_on_c, 0, 60, 31
1, 309208, Note_off_c, 0, 68, 64
1, 309238, Note_on_c, 0, 67, 41
1, 309398, Note_off_c, 0, 67, 64
1, 309404, Note_on_c, 0, 66, 41
1, 309458, Note_off_c, 0, 60, 64
1, 309486, Note_off_c, 0, 48, 64
1, 309558, Note_on_c, 0, 67, 51
1, 309566, Note_off_c, 0, 66, 64
1, 309716, Note_off_c, 0, 67, 64
1, 309728, Note_on_c, 0, 68, 43
1, 309734, Note_on_c, 0, 60, 29
1, 309750, Note_on_c, 0, 48, 25
1, 309882, Note_on_c, 0, 70, 46
1, 309888, Note_off_c, 0, 68, 64
1, 309896, Note_off_c, 0, 60, 64
1, 309912, Note_off_c, 0, 48, 64
1, 310046, Note_off_c, 0, 70, 64
1, 310056, Note_on_c, 0, 71, 60
1, 310059, Note_on_c, 0, 56, 32
1, 310068, Note_on_c, 0, 53, 46
1, 310138, Note_off_c, 0, 53, 64
1, 310196, Note_off_c, 0, 71, 64
1, 310230, Note_on_c, 0, 72, 52
1, 310326, Note_off_c, 0, 56, 64
1, 310380, Note_off_c, 0, 72, 64
1, 310434, Note_on_c, 0, 77, 49
1, 310452, Note_on_c, 0, 60, 22
1, 310466, Note_on_c, 0, 48, 25
1, 310530, Note_off_c, 0, 60, 64
1, 310600, Note_off_c, 0, 77, 64
1, 310602, Note_off_c, 0, 48, 64
1, 310626, Note_on_c, 0, 73, 46
1, 310730, Note_off_c, 0, 73, 64
1, 310853, Note_on_c, 0, 39, 52
1, 310858, Control_c, 0, 64, 0
1, 310862, Note_on_c, 0, 72, 43
1, 311026, Control_c, 0, 64, 127
1, 311044, Note_off_c, 0, 39, 64
1, 311074, Note_on_c, 0, 70, 47
1, 311258, Note_off_c, 0, 72, 64
1, 311264, Note_on_c, 0, 68, 44
1, 311278, Note_on_c, 0, 60, 43
1, 311281, Note_off_c, 0, 70, 64
1, 311300, Note_on_c, 0, 48, 26
1, 311408, Note_off_c, 0, 68, 64
1, 311426, Note_on_c, 0, 67, 46
1, 311546, Note_off_c, 0, 67, 64
1, 311570, Note_off_c, 0, 48, 64
1, 311588, Note_on_c, 0, 66, 37
1, 311594, Note_off_c, 0, 60, 64
1, 311770, Note_on_c, 0, 67, 44
1, 311798, Note_off_c, 0, 66, 64
1, 311862, Note_off_c, 0, 67, 64
1, 311924, Note_on_c, 0, 60, 24
1, 311926, Note_on_c, 0, 48, 35
1, 311936, Note_on_c, 0, 72, 40
1, 311998, Note_off_c, 0, 60, 64
1, 312038, Note_off_c, 0, 48, 64
1, 312080, Note_on_c, 0, 71, 56
1, 312262, Note_on_c, 0, 70, 48
1, 312272, Control_c, 0, 64, 0
1, 312278, Note_off_c, 0, 71, 64
1, 312283, Note_on_c, 0, 37, 54
1, 312356, Note_off_c, 0, 72, 64
1, 312440, Control_c, 0, 64, 127
1, 312450, Note_on_c, 0, 68, 48
1, 312460, Note_off_c, 0, 37, 64
1, 312494, Note_off_c, 0, 70, 64
1, 312624, Note_off_c, 0, 68, 64
1, 312624, Note_on_c, 0, 72, 2
1, 312646, Note_on_c, 0, 67, 46
1, 312654, Note_on_c, 0, 49, 42
1, 312672, Note_on_c, 0, 60, 20
1, 312726, Note_off_c, 0, 49, 64
1, 312732, Note_off_c, 0, 60, 64
1, 312804, Note_off_c, 0, 67, 64
1, 312834, Note_on_c, 0, 65, 43
1, 312984, Note_on_c, 0, 36, 66
1, 313010, Control_c, 0, 64, 0
1, 313036, Note_off_c, 0, 72, 64
1, 313066, Note_on_c, 0, 64, 49
1, 313074, Note_off_c, 0, 65, 64
1, 313176, Note_off_c, 0, 36, 64
1, 313192, Control_c, 0, 64, 127
1, 313252, Note_on_c, 0, 72, 54
1, 313398, Note_on_c, 0, 70, 48
1, 313400, Note_on_c, 0, 60, 54
1, 313410, Note_on_c, 0, 48, 46
1, 313420, Note_off_c, 0, 64, 64
1, 313438, Note_off_c, 0, 72, 64
1, 313560, Note_on_c, 0, 68, 52
1, 313660, Note_off_c, 0, 70, 64
1, 313686, Note_off_c, 0, 48, 64
1, 313689, Note_off_c, 0, 60, 64
1, 313716, Note_on_c, 0, 66, 52
1, 313736, Note_off_c, 0, 68, 64
1, 313886, Note_on_c, 0, 67, 63
1, 313902, Note_off_c, 0, 66, 64
1, 314044, Note_on_c, 0, 68, 66
1, 314044, Note_on_c, 0, 60, 43
1, 314056, Note_on_c, 0, 48, 37
1, 314068, Note_off_c, 0, 67, 64
1, 314194, Note_off_c, 0, 60, 64
1, 314197, Note_on_c, 0, 70, 61
1, 314236, Note_off_c, 0, 68, 64
1, 314258, Note_off_c, 0, 48, 64
1, 314360, Note_on_c, 0, 56, 48
1, 314364, Note_on_c, 0, 53, 60
1, 314382, Note_on_c, 0, 71, 69
1, 314386, Note_off_c, 0, 70, 64
1, 314392, Control_c, 0, 64, 0
1, 314544, Note_on_c, 0, 72, 66
1, 314562, Control_c, 0, 64, 127
1, 314602, Note_off_c, 0, 53, 64
1, 314602, Note_off_c, 0, 71, 64
1, 314680, Note_off_c, 0, 56, 64
1, 314692, Note_off_c, 0, 72, 64
1, 314716, Note_on_c, 0, 77, 54
1, 314728, Note_on_c, 0, 60, 44
1, 314734, Note_on_c, 0, 48, 42
1, 314786, Note_off_c, 0, 60, 64
1, 314864, Note_off_c, 0, 48, 64
1, 314872, Note_on_c, 0, 73, 56
1, 314888, Note_off_c, 0, 77, 64
1, 314944, Note_off_c, 0, 73, 64
1, 315054, Note_on_c, 0, 72, 63
1, 315057, Note_on_c, 0, 39, 62
1, 315068, Control_c, 0, 64, 0
1, 315236, Control_c, 0, 64, 127
1, 315240, Note_off_c, 0, 39, 64
1, 315246, Note_on_c, 0, 70, 48
1, 315426, Note_on_c, 0, 68, 53
1, 315429, Note_on_c, 0, 60, 45
1, 315440, Note_on_c, 0, 48, 38
1, 315460, Note_off_c, 0, 70, 64
1, 315472, Note_off_c, 0, 72, 64
1, 315576, Note_on_c, 0, 67, 51
1, 315586, Note_off_c, 0, 68, 64
1, 315710, Note_off_c, 0, 48, 64
1, 315720, Note_off_c, 0, 60, 64
1, 315726, Note_off_c, 0, 67, 64
1, 315734, Note_on_c, 0, 66, 47
1, 315892, Note_on_c, 0, 67, 52
1, 315930, Note_off_c, 0, 66, 64
1, 316070, Note_on_c, 0, 72, 49
1, 316078, Note_off_c, 0, 67, 64
1, 316081, Note_on_c, 0, 48, 36
1, 316100, Note_on_c, 0, 60, 20
1, 316164, Note_off_c, 0, 60, 64
1, 316180, Note_off_c, 0, 48, 64
1, 316224, Note_on_c, 0, 71, 57
1, 316356, Control_c, 0, 64, 0
1, 316378, Note_on_c, 0, 70, 49
1, 316390, Note_on_c, 0, 37, 59
1, 316410, Note_off_c, 0, 71, 64
1, 316496, Control_c, 0, 64, 127
1, 316542, Note_off_c, 0, 37, 64
1, 316556, Note_on_c, 0, 68, 50
1, 316582, Note_off_c, 0, 70, 64
1, 316706, Note_off_c, 0, 68, 64
1, 316722, Note_on_c, 0, 67, 46
1, 316728, Note_on_c, 0, 49, 52
1, 316804, Note_off_c, 0, 49, 64
1, 316824, Note_off_c, 0, 67, 64
1, 316908, Note_on_c, 0, 65, 48
1, 317066, Control_c, 0, 64, 0
1, 317096, Note_on_c, 0, 36, 55
1, 317118, Note_on_c, 0, 64, 51
1, 317134, Note_off_c, 0, 65, 64
1, 317178, Note_off_c, 0, 72, 64
1, 317248, Note_off_c, 0, 36, 64
1, 317250, Control_c, 0, 64, 127
1, 317302, Note_on_c, 0, 72, 32
1, 317416, Note_off_c, 0, 64, 64
1, 317462, Note_on_c, 0, 70, 47
1, 317476, Note_on_c, 0, 60, 47
1, 317484, Note_on_c, 0, 48, 36
1, 317500, Note_off_c, 0, 72, 64
1, 317622, Note_on_c, 0, 68, 52
1, 317672, Note_off_c, 0, 70, 64
1, 317690, Note_off_c, 0, 60, 64
1, 317772, Note_on_c, 0, 67, 55
1, 317798, Note_off_c, 0, 68, 64
1, 317801, Note_off_c, 0, 48, 64
1, 317914, Note_off_c, 0, 67, 64
1, 317920, Note_on_c, 0, 66, 51
1, 318068, Note_on_c, 0, 67, 65
1, 318084, Note_off_c, 0, 66, 64
1, 318110, Note_on_c, 0, 60, 34
1, 318118, Note_on_c, 0, 48, 26
1, 318168, Note_off_c, 0, 67, 64
1, 318212, Note_on_c, 0, 70, 60
1, 318354, Note_off_c, 0, 48, 64
1, 318360, Note_off_c, 0, 60, 64
1, 318380, Note_on_c, 0, 71, 71
1, 318386, Note_on_c, 0, 56, 46
1, 318389, Note_off_c, 0, 70, 64
1, 318414, Note_on_c, 0, 53, 57
1, 318420, Control_c, 0, 64, 0
1, 318532, Note_on_c, 0, 72, 70
1, 318564, Note_off_c, 0, 71, 64
1, 318618, Control_c, 0, 64, 127
1, 318700, Note_on_c, 0, 75, 62
1, 318712, Note_off_c, 0, 72, 64
1, 318714, Note_off_c, 0, 53, 64
1, 318744, Note_on_c, 0, 60, 42
1, 318774, Note_on_c, 0, 48, 23
1, 318850, Note_off_c, 0, 56, 64
1, 318860, Note_on_c, 0, 73, 63
1, 318912, Note_off_c, 0, 75, 64
1, 318928, Note_off_c, 0, 60, 64
1, 319024, Note_off_c, 0, 48, 64
1, 319036, Note_off_c, 0, 73, 64
1, 319058, Note_on_c, 0, 72, 57
1, 319084, Note_on_c, 0, 55, 55
1, 319094, Control_c, 0, 64, 0
1, 319126, Note_on_c, 0, 51, 21
1, 319258, Note_on_c, 0, 70, 46
1, 319261, Control_c, 0, 64, 127
1, 319298, Note_off_c, 0, 72, 64
1, 319424, Note_on_c, 0, 68, 45
1, 319456, Note_off_c, 0, 70, 64
1, 319456, Note_on_c, 0, 60, 42
1, 319486, Note_on_c, 0, 48, 27
1, 319566, Note_on_c, 0, 67, 48
1, 319584, Note_off_c, 0, 68, 64
1, 319714, Note_off_c, 0, 60, 64
1, 319716, Note_off_c, 0, 48, 64
1, 319724, Note_off_c, 0, 67, 64
1, 319732, Note_on_c, 0, 66, 51
1, 319890, Note_on_c, 0, 67, 46
1, 319906, Note_off_c, 0, 66, 64
1, 320020, Note_on_c, 0, 68, 52
1, 320026, Note_off_c, 0, 67, 64
1, 320026, Note_on_c, 0, 60, 30
1, 320036, Note_on_c, 0, 48, 28
1, 320042, Note_off_c, 0, 55, 64
1, 320066, Note_off_c, 0, 51, 64
1, 320160, Note_off_c, 0, 60, 64
1, 320162, Note_on_c, 0, 70, 44
1, 320186, Note_off_c, 0, 68, 64
1, 320282, Note_off_c, 0, 48, 64
1, 320282, Note_off_c, 0, 70, 64
1, 320310, Note_on_c, 0, 71, 52
1, 320316, Note_on_c, 0, 53, 82
1, 320330, Note_on_c, 0, 49, 40
1, 320368, Control_c, 0, 64, 0
1, 320458, Note_off_c, 0, 71, 64
1, 320472, Note_on_c, 0, 72, 45
1, 320522, Control_c, 0, 64, 127
1, 320608, Note_off_c, 0, 72, 64
1, 320611, Note_on_c, 0, 73, 50
1, 320652, Note_on_c, 0, 48, 39
1, 320664, Note_off_c, 0, 49, 64
1, 320684, Note_on_c, 0, 60, 14
1, 320762, Note_off_c, 0, 73, 64
1, 320774, Note_on_c, 0, 71, 61
1, 320794, Note_off_c, 0, 60, 64
1, 320942, Note_off_c, 0, 71, 64
1, 320960, Note_off_c, 0, 53, 64
1, 320960, Note_on_c, 0, 72, 59
1, 320978, Note_off_c, 0, 48, 64
1, 320982, Note_on_c, 0, 52, 76
1, 321092, Control_c, 0, 64, 0
1, 321118, Note_on_c, 0, 70, 46
1, 321260, Control_c, 0, 64, 127
1, 321260, Note_on_c, 0, 68, 43
1, 321272, Note_off_c, 0, 70, 64
1, 321328, Note_on_c, 0, 60, 39
1, 321364, Note_on_c, 0, 48, 27
1, 321400, Note_off_c, 0, 68, 64
1, 321414, Note_on_c, 0, 67, 49
1, 321540, Note_off_c, 0, 67, 64
1, 321542, Note_on_c, 0, 66, 53
1, 321574, Note_off_c, 0, 60, 64
1, 321626, Note_off_c, 0, 48, 64
1, 321696, Note_on_c, 0, 67, 59
1, 321702, Note_off_c, 0, 66, 64
1, 321836, Note_off_c, 0, 67, 64
1, 321838, Note_on_c, 0, 68, 61
1, 321856, Note_off_c, 0, 52, 64
1, 321868, Note_on_c, 0, 48, 36
1, 321872, Note_on_c, 0, 60, 29
1, 321984, Note_on_c, 0, 70, 55
1, 321996, Note_off_c, 0, 72, 64
1, 321996, Note_off_c, 0, 68, 64
1, 322044, Note_off_c, 0, 60, 64
1, 322054, Note_off_c, 0, 48, 64
1, 322136, Note_off_c, 0, 70, 64
1, 322148, Note_on_c, 0, 71, 63
1, 322160, Note_on_c, 0, 56, 45
1, 322190, Note_on_c, 0, 53, 44
1, 322196, Control_c, 0, 64, 0
1, 322328, Note_on_c, 0, 72, 48
1, 322348, Note_off_c, 0, 71, 64
1, 322398, Control_c, 0, 64, 127
1, 322480, Note_off_c, 0, 72, 64
1, 322494, Note_off_c, 0, 53, 64
1, 322500, Note_on_c, 0, 75, 47
1, 322534, Note_on_c, 0, 60, 34
1, 322544, Note_off_c, 0, 56, 64
1, 322554, Note_on_c, 0, 48, 29
1, 322700, Note_on_c, 0, 73, 38
1, 322712, Note_off_c, 0, 75, 64
1, 322756, Note_off_c, 0, 73, 64
1, 322824, Note_off_c, 0, 48, 64
1, 322836, Note_off_c, 0, 60, 64
1, 322910, Note_on_c, 0, 72, 34
1, 322922, Note_on_c, 0, 55, 39
1, 322934, Control_c, 0, 64, 0
1, 322954, Note_on_c, 0, 51, 35
1, 323098, Note_on_c, 0, 70, 28
1, 323120, Control_c, 0, 64, 127
1, 323244, Note_on_c, 0, 68, 29
1, 323274, Note_off_c, 0, 72, 64
1, 323282, Note_off_c, 0, 70, 64
1, 323292, Note_on_c, 0, 60, 26
1, 323314, Note_on_c, 0, 48, 22
1, 323366, Note_off_c, 0, 68, 64
1, 323420, Note_on_c, 0, 67, 36
1, 323500, Note_off_c, 0, 48, 64
1, 323532, Note_off_c, 0, 67, 64
1, 323534, Note_off_c, 0, 60, 64
1, 323546, Note_on_c, 0, 72, 2
1, 323574, Note_on_c, 0, 66, 32
1, 323642, Note_off_c, 0, 72, 64
1, 323646, Note_off_c, 0, 51, 64
1, 323728, Note_on_c, 0, 67, 30
1, 323744, Note_off_c, 0, 66, 64
1, 323760, Note_off_c, 0, 55, 64
1, 323876, Note_off_c, 0, 67, 64
1, 323876, Note_on_c, 0, 68, 38
1, 323888, Note_on_c, 0, 60, 25
1, 323892, Note_on_c, 0, 48, 19
1, 324000, Note_off_c, 0, 60, 64
1, 324038, Note_on_c, 0, 70, 34
1, 324050, Note_off_c, 0, 68, 64
1, 324128, Note_off_c, 0, 48, 64
1, 324198, Note_off_c, 0, 70, 64
1, 324226, Note_on_c, 0, 53, 65
1, 324232, Note_on_c, 0, 71, 44
1, 324238, Note_on_c, 0, 49, 31
1, 324240, Control_c, 0, 64, 0
1, 324394, Note_off_c, 0, 71, 64
1, 324406, Note_on_c, 0, 72, 34
1, 324426, Control_c, 0, 64, 127
1, 324516, Note_off_c, 0, 72, 64
1, 324560, Note_off_c, 0, 49, 64
1, 324566, Note_on_c, 0, 73, 32
1, 324582, Note_on_c, 0, 48, 24
1, 324594, Note_off_c, 0, 53, 64
1, 324612, Note_on_c, 0, 60, 9
1, 324702, Note_off_c, 0, 60, 64
1, 324710, Note_off_c, 0, 73, 64
1, 324758, Note_on_c, 0, 71, 47
1, 324956, Note_off_c, 0, 71, 64
1, 325038, Note_on_c, 0, 72, 31
1, 325044, Note_on_c, 0, 52, 47
1, 325070, Control_c, 0, 64, 0
1, 325256, Note_on_c, 0, 70, 44
1, 325268, Note_on_c, 0, 60, 10
1, 325316, Control_c, 0, 64, 127
1, 325406, Note_off_c, 0, 48, 64
1, 325412, Note_off_c, 0, 52, 64
1, 325436, Note_on_c, 0, 68, 35
1, 325456, Note_off_c, 0, 70, 64
1, 325470, Note_off_c, 0, 72, 64
1, 325528, Note_off_c, 0, 60, 64
1, 325568, Note_off_c, 0, 68, 64
1, 325608, Note_on_c, 0, 67, 36
1, 325704, Note_off_c, 0, 67, 64
1, 325746, Note_on_c, 0, 54, 62
1, 325768, Note_on_c, 0, 66, 22
1, 325906, Note_off_c, 0, 54, 64
1, 325912, Note_on_c, 0, 67, 43
1, 325918, Note_on_c, 0, 55, 56
1, 325920, Note_off_c, 0, 66, 64
1, 326038, Note_on_c, 0, 56, 54
1, 326050, Note_on_c, 0, 68, 39
1, 326052, Note_off_c, 0, 55, 64
1, 326072, Note_off_c, 0, 67, 64
1, 326178, Note_off_c, 0, 56, 64
1, 326186, Note_on_c, 0, 58, 43
1, 326186, Note_on_c, 0, 70, 50
1, 326200, Note_off_c, 0, 68, 64
1, 326320, Note_off_c, 0, 58, 64
1, 326334, Note_on_c, 0, 56, 59
1, 326340, Note_on_c, 0, 68, 53
1, 326376, Note_off_c, 0, 70, 64
1, 326394, Note_off_c, 0, 56, 64
1, 326470, Note_on_c, 0, 55, 66
1, 326476, Note_on_c, 0, 67, 58
1, 326500, Note_off_c, 0, 68, 64
1, 326602, Note_off_c, 0, 55, 64
1, 326616, Note_on_c, 0, 53, 85
1, 326620, Note_on_c, 0, 65, 59
1, 326626, Note_off_c, 0, 67, 64
1, 326752, Note_off_c, 0, 53, 64
1, 326760, Note_on_c, 0, 52, 66
1, 326770, Note_on_c, 0, 64, 62
1, 326812, Note_off_c, 0, 65, 64
1, 326894, Note_off_c, 0, 52, 64
1, 326897, Note_on_c, 0, 63, 72
1, 326897, Note_on_c, 0, 51, 72
1, 326914, Note_off_c, 0, 64, 64
1, 326914, Control_c, 0, 64, 0
1, 327054, Note_on_c, 0, 52, 71
1, 327056, Note_on_c, 0, 64, 80
1, 327068, Control_c, 0, 64, 127
1, 327132, Note_off_c, 0, 63, 64
1, 327190, Note_on_c, 0, 65, 75
1, 327194, Note_on_c, 0, 53, 96
1, 327222, Note_off_c, 0, 52, 64
1, 327228, Note_off_c, 0, 51, 64
1, 327238, Note_off_c, 0, 64, 64
1, 327326, Note_on_c, 0, 67, 81
1, 327328, Note_off_c, 0, 53, 64
1, 327340, Note_on_c, 0, 55, 79
1, 327384, Note_off_c, 0, 65, 64
1, 327522, Note_on_c, 0, 49, 74
1, 327524, Note_on_c, 0, 61, 80
1, 327536, Note_off_c, 0, 55, 64
1, 327574, Control_c, 0, 64, 0
1, 327620, Note_off_c, 0, 67, 64
1, 327744, Control_c, 0, 64, 127
1, 327780, Note_on_c, 0, 55, 46
1, 327790, Note_on_c, 0, 67, 57
1, 327852, Note_off_c, 0, 61, 64
1, 327930, Note_off_c, 0, 55, 64
1, 327934, Note_on_c, 0, 48, 63
1, 327948, Note_on_c, 0, 60, 81
1, 327972, Note_off_c, 0, 67, 64
1, 328016, Note_off_c, 0, 49, 64
1, 328104, Note_on_c, 0, 67, 59
1, 328107, Note_on_c, 0, 55, 59
1, 328134, Note_off_c, 0, 60, 64
1, 328228, Note_off_c, 0, 48, 64
1, 328252, Note_on_c, 0, 47, 65
1, 328264, Note_on_c, 0, 59, 73
1, 328296, Control_c, 0, 64, 0
1, 328406, Note_on_c, 0, 48, 72
1, 328414, Note_on_c, 0, 60, 78
1, 328466, Control_c, 0, 64, 127
1, 328488, Note_off_c, 0, 67, 64
1, 328548, Note_on_c, 0, 49, 75
1, 328550, Note_off_c, 0, 55, 64
1, 328556, Note_on_c, 0, 61, 77
1, 328564, Note_off_c, 0, 47, 64
1, 328590, Note_off_c, 0, 59, 64
1, 328636, Note_off_c, 0, 48, 64
1, 328664, Note_off_c, 0, 60, 64
1, 328678, Note_on_c, 0, 63, 84
1, 328700, Note_on_c, 0, 51, 83
1, 328732, Note_off_c, 0, 61, 64
1, 328734, Note_off_c, 0, 49, 64
1, 328818, Note_on_c, 0, 61, 68
1, 328826, Note_on_c, 0, 49, 61
1, 328894, Note_off_c, 0, 51, 64
1, 328918, Note_off_c, 0, 63, 64
1, 328960, Note_on_c, 0, 60, 81
1, 328965, Note_on_c, 0, 48, 78
1, 328972, Note_off_c, 0, 49, 64
1, 328990, Note_off_c, 0, 61, 64
1, 329096, Note_on_c, 0, 58, 68
1, 329100, Note_on_c, 0, 46, 69
1, 329156, Note_off_c, 0, 48, 64
1, 329172, Note_off_c, 0, 60, 64
1, 329222, Note_on_c, 0, 56, 68
1, 329244, Note_on_c, 0, 44, 70
1, 329266, Note_off_c, 0, 46, 64
1, 329312, Note_off_c, 0, 58, 64
1, 329376, Note_on_c, 0, 55, 85
1, 329378, Note_on_c, 0, 43, 92
1, 329418, Control_c, 0, 64, 0
1, 329424, Note_off_c, 0, 44, 64
1, 329536, Note_off_c, 0, 56, 64
1, 329562, Note_on_c, 0, 48, 62
1, 329566, Note_on_c, 0, 60, 73
1, 329602, Control_c, 0, 64, 127
1, 329648, Note_off_c, 0, 43, 64
1, 329702, Note_on_c, 0, 58, 70
1, 329712, Note_on_c, 0, 46, 72
1, 329744, Note_off_c, 0, 48, 64
1, 329766, Note_off_c, 0, 55, 64
1, 329800, Note_off_c, 0, 60, 64
1, 329820, Note_on_c, 0, 42, 80
1, 329830, Note_on_c, 0, 54, 93
1, 329864, Note_off_c, 0, 46, 64
1, 329938, Note_off_c, 0, 58, 64
1, 329946, Note_on_c, 0, 41, 101
1, 329948, Note_off_c, 0, 42, 64
1, 329964, Note_on_c, 0, 53, 111
1, 330050, Control_c, 0, 64, 0
1, 330056, Note_off_c, 0, 54, 64
1, 330096, Note_on_c, 0, 48, 68
1, 330124, Note_on_c, 0, 60, 79
1, 330188, Control_c, 0, 64, 127
1, 330216, Note_off_c, 0, 53, 64
1, 330250, Note_on_c, 0, 58, 75
1, 330264, Note_on_c, 0, 46, 76
1, 330296, Note_off_c, 0, 48, 64
1, 330320, Note_off_c, 0, 60, 64
1, 330323, Note_off_c, 0, 41, 64
1, 330386, Note_off_c, 0, 58, 64
1, 330386, Note_off_c, 0, 46, 64
1, 330404, Note_on_c, 0, 52, 105
1, 330428, Note_on_c, 0, 40, 103
1, 330504, Note_on_c, 0, 39, 88
1, 330520, Note_on_c, 0, 51, 105
1, 330560, Note_off_c, 0, 40, 64
1, 330596, Note_off_c, 0, 52, 64
1, 330732, Note_on_c, 0, 56, 75
1, 330762, Note_on_c, 0, 44, 81
1, 330816, Note_off_c, 0, 51, 64
1, 330822, Note_off_c, 0, 39, 64
1, 330876, Note_on_c, 0, 55, 93
1, 330900, Note_on_c, 0, 43, 92
1, 330908, Note_off_c, 0, 44, 64
1, 330944, Note_off_c, 0, 56, 64
1, 331012, Note_on_c, 0, 51, 97
1, 331015, Note_on_c, 0, 39, 88
1, 331058, Note_off_c, 0, 55, 64
1, 331070, Note_off_c, 0, 43, 64
1, 331148, Note_on_c, 0, 37, 103
1, 331156, Note_on_c, 0, 49, 108
1, 331210, Note_off_c, 0, 39, 64
1, 331320, Note_off_c, 0, 51, 64
1, 331352, Note_on_c, 0, 43, 88
1, 331362, Note_on_c, 0, 55, 93
1, 331426, Note_off_c, 0, 49, 64
1, 331448, Note_off_c, 0, 37, 64
1, 331498, Note_on_c, 0, 53, 110
1, 331514, Note_off_c, 0, 43, 64
1, 331514, Note_on_c, 0, 41, 91
1, 331622, Note_off_c, 0, 55, 64
1, 331650, Note_on_c, 0, 49, 103
1, 331660, Note_on_c, 0, 37, 88
1, 331736, Note_off_c, 0, 41, 64
1, 331836, Note_on_c, 0, 36, 104
1, 331844, Note_on_c, 0, 48, 105
1, 331916, Note_off_c, 0, 37, 64
1, 331932, Note_off_c, 0, 49, 64
1, 331978, Note_off_c, 0, 53, 64
1, 332032, Note_on_c, 0, 39, 95
1, 332040, Note_on_c, 0, 51, 100
1, 332098, Note_off_c, 0, 36, 64
1, 332110, Note_off_c, 0, 48, 64
1, 332152, Note_off_c, 0, 39, 64
1, 332262, Control_c, 0, 64, 0
1, 332274, Note_on_c, 0, 46, 108
1, 332276, Note_on_c, 0, 34, 103
1, 332360, Note_off_c, 0, 51, 64
1, 332414, Control_c, 0, 64, 127
1, 332490, Note_off_c, 0, 34, 64
1, 332494, Note_off_c, 0, 46, 64
1, 332586, Note_on_c, 0, 51, 110
1, 332588, Note_on_c, 0, 39, 100
1, 332748, Note_off_c, 0, 51, 64
1, 332826, Note_off_c, 0, 39, 64
1, 333190, Note_on_c, 0, 89, 108
1, 333192, Note_on_c, 0, 85, 101
1, 333192, Note_on_c, 0, 32, 93
1, 333194, Note_on_c, 0, 77, 108
1, 333196, Note_on_c, 0, 44, 107
1, 333228, Control_c, 0, 64, 0
1, 333460, Control_c, 0, 64, 127
1, 333472, Note_off_c, 0, 32, 64
1, 333502, Note_off_c, 0, 44, 64
1, 333766, Note_off_c, 0, 85, 64
1, 333776, Note_off_c, 0, 89, 64
1, 333798, Note_on_c, 0, 63, 97
1, 333804, Note_off_c, 0, 77, 64
1, 333808, Note_on_c, 0, 60, 80
1, 333808, Note_on_c, 0, 51, 84
1, 333930, Note_off_c, 0, 51, 64
1, 333956, Note_off_c, 0, 60, 64
1, 333984, Note_off_c, 0, 63, 64
1, 334074, Note_on_c, 0, 87, 83
1, 334076, Note_on_c, 0, 75, 98
1, 334082, Note_on_c, 0, 84, 84
1, 334104, Note_off_c, 0, 87, 64
1, 334106, Note_off_c, 0, 75, 64
1, 334116, Note_off_c, 0, 84, 64
1, 334170, Note_on_c, 0, 87, 51
1, 334170, Note_on_c, 0, 84, 93
1, 334173, Note_on_c, 0, 75, 86
1, 334186, Note_on_c, 0, 68, 91
1, 334196, Note_on_c, 0, 60, 87
1, 334200, Note_on_c, 0, 56, 71
1, 334270, Note_off_c, 0, 87, 64
1, 334272, Note_off_c, 0, 84, 64
1, 334272, Note_off_c, 0, 68, 64
1, 334314, Note_off_c, 0, 75, 64
1, 334324, Note_off_c, 0, 60, 64
1, 334332, Note_off_c, 0, 56, 64
1, 334540, Note_on_c, 0, 63, 86
1, 334564, Note_on_c, 0, 39, 94
1, 334570, Note_on_c, 0, 51, 88
1, 334576, Note_on_c, 0, 65, 67
1, 334578, Note_off_c, 0, 63, 64
1, 334598, Note_off_c, 0, 39, 64
1, 334622, Note_off_c, 0, 51, 64
1, 334650, Note_on_c, 0, 63, 68
1, 334696, Note_off_c, 0, 65, 64
1, 334730, Note_on_c, 0, 62, 87
1, 334752, Note_off_c, 0, 63, 64
1, 334812, Note_on_c, 0, 63, 90
1, 334834, Note_off_c, 0, 62, 64
1, 334882, Note_on_c, 0, 68, 97
1, 334885, Note_on_c, 0, 56, 95
1, 334892, Note_on_c, 0, 44, 97
1, 334934, Note_off_c, 0, 63, 64
1, 334962, Note_off_c, 0, 56, 64
1, 334986, Note_off_c, 0, 68, 64
1, 335016, Note_off_c, 0, 44, 64
1, 335284, Note_on_c, 0, 84, 110
1, 335284, Note_on_c, 0, 72, 111
1, 335286, Note_on_c, 0, 80, 93
1, 335292, Note_on_c, 0, 39, 99
1, 335292, Note_on_c, 0, 27, 98
1, 335374, Note_off_c, 0, 72, 64
1, 335374, Note_off_c, 0, 27, 64
1, 335400, Note_off_c, 0, 39, 64
1, 335414, Note_off_c, 0, 84, 64
1, 335436, Note_off_c, 0, 80, 64
1, 335550, Note_on_c, 0, 85, 100
1, 335552, Note_on_c, 0, 73, 97
1, 335556, Note_on_c, 0, 82, 87
1, 335590, Note_off_c, 0, 82, 64
1, 335598, Note_on_c, 0, 75, 19
1, 335608, Note_off_c, 0, 73, 64
1, 335644, Note_off_c, 0, 85, 64
1, 335658, Note_off_c, 0, 75, 64
1, 335826, Control_c, 0, 64, 0
1, 335840, Note_on_c, 0, 89, 108
1, 335842, Note_on_c, 0, 77, 110
1, 335842, Note_on_c, 0, 85, 94
1, 335844, Note_on_c, 0, 44, 111
1, 335846, Note_on_c, 0, 32, 93
1, 335926, Note_off_c, 0, 32, 64
1, 335938, Note_off_c, 0, 44, 64
1, 335948, Control_c, 0, 64, 127
1, 335962, Note_off_c, 0, 89, 64
1, 335988, Note_off_c, 0, 77, 64
1, 336016, Note_off_c, 0, 85, 64
1, 336126, Note_on_c, 0, 75, 101
1, 336129, Note_on_c, 0, 87, 76
1, 336136, Note_on_c, 0, 84, 78
1, 336154, Note_off_c, 0, 75, 64
1, 336164, Note_off_c, 0, 87, 64
1, 336172, Note_off_c, 0, 84, 64
1, 336206, Note_on_c, 0, 87, 83
1, 336212, Note_on_c, 0, 63, 90
1, 336212, Note_on_c, 0, 75, 71
1, 336215, Note_on_c, 0, 84, 105
1, 336226, Note_on_c, 0, 60, 69
1, 336226, Note_on_c, 0, 51, 69
1, 336318, Note_off_c, 0, 84, 64
1, 336326, Note_off_c, 0, 87, 64
1, 336334, Note_off_c, 0, 63, 64
1, 336338, Note_off_c, 0, 75, 64
1, 336338, Note_off_c, 0, 60, 64
1, 336338, Note_off_c, 0, 51, 64
1, 336408, Note_on_c, 0, 83, 110
1, 336412, Note_on_c, 0, 74, 106
1, 336412, Note_on_c, 0, 86, 100
1, 336512, Note_off_c, 0, 74, 64
1, 336518, Note_off_c, 0, 86, 64
1, 336578, Note_off_c, 0, 83, 64
1, 336594, Control_c, 0, 64, 0
1, 336626, Note_on_c, 0, 84, 98
1, 336626, Note_on_c, 0, 87, 96
1, 336628, Note_on_c, 0, 75, 106
1, 336636, Note_on_c, 0, 68, 95
1, 336646, Note_on_c, 0, 56, 80
1, 336648, Note_on_c, 0, 60, 79
1, 336728, Note_off_c, 0, 87, 64
1, 336732, Control_c, 0, 64, 127
1, 336737, Note_off_c, 0, 68, 64
1, 336742, Note_off_c, 0, 84, 64
1, 336782, Note_off_c, 0, 75, 64
1, 336784, Note_off_c, 0, 56, 64
1, 336784, Note_off_c, 0, 60, 64
1, 336998, Note_on_c, 0, 63, 90
1, 337028, Note_on_c, 0, 51, 76
1, 337028, Note_on_c, 0, 39, 86
1, 337042, Note_off_c, 0, 63, 64
1, 337048, Note_on_c, 0, 65, 55
1, 337064, Note_off_c, 0, 39, 64
1, 337072, Note_off_c, 0, 51, 64
1, 337120, Note_on_c, 0, 63, 72
1, 337176, Note_off_c, 0, 65, 64
1, 337192, Note_off_c, 0, 63, 64
1, 337195, Note_on_c, 0, 62, 86
1, 337274, Note_on_c, 0, 63, 80
1, 337310, Note_off_c, 0, 62, 64
1, 337332, Control_c, 0, 64, 0
1, 337342, Note_on_c, 0, 68, 95
1, 337358, Note_on_c, 0, 56, 92
1, 337358, Note_on_c, 0, 44, 99
1, 337404, Note_off_c, 0, 63, 64
1, 337424, Control_c, 0, 64, 127
1, 337462, Note_off_c, 0, 56, 64
1, 337467, Note_off_c, 0, 44, 64
1, 337470, Note_off_c, 0, 68, 64
1, 337746, Note_on_c, 0, 84, 109
1, 337746, Note_on_c, 0, 72, 106
1, 337746, Note_on_c, 0, 80, 97
1, 337746, Note_on_c, 0, 39, 92
1, 337752, Note_on_c, 0, 27, 88
1, 337792, Note_off_c, 0, 72, 64
1, 337826, Note_off_c, 0, 27, 64
1, 337844, Note_off_c, 0, 84, 64
1, 337868, Note_off_c, 0, 39, 64
1, 337874, Note_off_c, 0, 80, 64
1, 337968, Note_on_c, 0, 73, 101
1, 337968, Note_on_c, 0, 85, 100
1, 337974, Note_on_c, 0, 82, 83
1, 338022, Note_off_c, 0, 82, 64
1, 338028, Note_off_c, 0, 73, 64
1, 338056, Note_off_c, 0, 85, 64
1, 338192, Control_c, 0, 64, 0
1, 338206, Note_on_c, 0, 89, 109
1, 338206, Note_on_c, 0, 85, 96
1, 338212, Note_on_c, 0, 77, 109
1, 338220, Note_on_c, 0, 44, 109
1, 338226, Note_on_c, 0, 32, 88
1, 338270, Note_off_c, 0, 32, 64
1, 338316, Note_off_c, 0, 77, 64
1, 338316, Control_c, 0, 64, 127
1, 338322, Note_off_c, 0, 44, 64
1, 338326, Note_off_c, 0, 89, 64
1, 338372, Note_off_c, 0, 85, 64
1, 338426, Note_on_c, 0, 75, 100
1, 338429, Note_on_c, 0, 87, 84
1, 338438, Note_on_c, 0, 84, 79
1, 338480, Note_off_c, 0, 84, 64
1, 338500, Note_off_c, 0, 87, 64
1, 338524, Note_off_c, 0, 75, 64
1, 338580, Note_on_c, 0, 89, 95
1, 338588, Note_on_c, 0, 84, 56
1, 338596, Note_on_c, 0, 63, 91
1, 338600, Note_on_c, 0, 87, 81
1, 338606, Note_on_c, 0, 60, 74
1, 338610, Note_on_c, 0, 51, 70
1, 338642, Note_off_c, 0, 84, 64
1, 338648, Note_off_c, 0, 89, 64
1, 338660, Note_off_c, 0, 60, 64
1, 338672, Note_off_c, 0, 51, 64
1, 338698, Note_off_c, 0, 63, 64
1, 338710, Note_off_c, 0, 87, 64
1, 338758, Note_on_c, 0, 86, 94
1, 338762, Note_on_c, 0, 74, 105
1, 338766, Note_on_c, 0, 83, 105
1, 338800, Note_off_c, 0, 74, 64
1, 338840, Note_off_c, 0, 83, 64
1, 338848, Note_off_c, 0, 86, 64
1, 338928, Note_on_c, 0, 89, 107
1, 338936, Note_on_c, 0, 85, 90
1, 338939, Note_on_c, 0, 77, 89
1, 338939, Note_on_c, 0, 68, 90
1, 338952, Note_on_c, 0, 60, 81
1, 338960, Note_on_c, 0, 56, 69
1, 338988, Note_off_c, 0, 77, 64
1, 339008, Note_off_c, 0, 89, 64
1, 339040, Note_off_c, 0, 85, 64
1, 339072, Note_off_c, 0, 68, 64
1, 339108, Note_off_c, 0, 60, 64
1, 339118, Note_on_c, 0, 87, 87
1, 339121, Note_on_c, 0, 84, 90
1, 339121, Note_on_c, 0, 75, 90
1, 339148, Note_off_c, 0, 56, 64
1, 339158, Note_off_c, 0, 75, 64
1, 339214, Note_off_c, 0, 87, 64
1, 339238, Note_off_c, 0, 84, 64
1, 339276, Note_on_c, 0, 89, 97
1, 339298, Note_on_c, 0, 51, 85
1, 339298, Note_on_c, 0, 39, 88
1, 339320, Note_on_c, 0, 87, 75
1, 339384, Note_off_c, 0, 89, 64
1, 339416, Note_off_c, 0, 87, 64
1, 339472, Note_off_c, 0, 39, 64
1, 339484, Note_off_c, 0, 51, 64
1, 339490, Note_on_c, 0, 86, 94
1, 339490, Note_on_c, 0, 83, 108
1, 339496, Note_on_c, 0, 74, 101
1, 339538, Note_off_c, 0, 74, 64
1, 339576, Note_off_c, 0, 86, 64
1, 339600, Note_off_c, 0, 83, 64
1, 339634, Note_on_c, 0, 56, 88
1, 339644, Note_on_c, 0, 44, 86
1, 339660, Note_on_c, 0, 87, 88
1, 339664, Note_on_c, 0, 75, 85
1, 339690, Note_on_c, 0, 84, 83
1, 339706, Note_off_c, 0, 56, 64
1, 339724, Note_off_c, 0, 44, 64
1, 339768, Note_off_c, 0, 75, 64
1, 339822, Control_c, 0, 64, 0
1, 339824, Note_on_c, 0, 39, 89
1, 339842, Note_on_c, 0, 75, 73
1, 339842, Note_on_c, 0, 46, 75
1, 339850, Note_off_c, 0, 84, 64
1, 339888, Note_off_c, 0, 87, 64
1, 339910, Note_on_c, 0, 82, 75
1, 339926, Note_off_c, 0, 39, 64
1, 339936, Note_off_c, 0, 75, 64
1, 339952, Note_on_c, 0, 54, 100
1, 339976, Note_on_c, 0, 90, 98
1, 339990, Control_c, 0, 64, 127
1, 340002, Note_on_c, 0, 84, 31
1, 340048, Note_off_c, 0, 82, 64
1, 340060, Note_off_c, 0, 54, 64
1, 340082, Note_off_c, 0, 46, 64
1, 340084, Note_off_c, 0, 84, 64
1, 340108, Note_off_c, 0, 90, 64
1, 340156, Note_on_c, 0, 75, 85
1, 340159, Note_on_c, 0, 41, 97
1, 340188, Note_on_c, 0, 48, 73
1, 340204, Control_c, 0, 64, 0
1, 340242, Note_on_c, 0, 51, 85
1, 340260, Note_off_c, 0, 41, 64
1, 340260, Note_on_c, 0, 81, 60
1, 340276, Note_off_c, 0, 75, 64
1, 340292, Note_off_c, 0, 48, 64
1, 340292, Note_on_c, 0, 57, 92
1, 340300, Note_off_c, 0, 81, 64
1, 340300, Note_on_c, 0, 89, 110
1, 340328, Control_c, 0, 64, 127
1, 340334, Note_off_c, 0, 51, 64
1, 340337, Note_off_c, 0, 57, 64
1, 340344, Note_off_c, 0, 89, 64
1, 340500, Note_on_c, 0, 72, 48
1, 340526, Note_on_c, 0, 53, 85
1, 340554, Note_on_c, 0, 60, 75
1, 340560, Note_off_c, 0, 72, 64
1, 340560, Note_on_c, 0, 75, 73
1, 340570, Note_off_c, 0, 53, 64
1, 340598, Note_off_c, 0, 75, 64
1, 340616, Note_on_c, 0, 77, 68
1, 340616, Note_on_c, 0, 63, 64
1, 340644, Note_on_c, 0, 84, 108
1, 340654, Note_off_c, 0, 77, 64
1, 340656, Note_on_c, 0, 69, 72
1, 340714, Note_off_c, 0, 84, 64
1, 340740, Note_off_c, 0, 69, 64
1, 340780, Note_off_c, 0, 63, 64
1, 340790, Note_off_c, 0, 60, 64
1, 340910, Note_on_c, 0, 46, 81
1, 340916, Note_on_c, 0, 70, 79
1, 340928, Control_c, 0, 64, 0
1, 340970, Note_on_c, 0, 53, 84
1, 340988, Note_on_c, 0, 77, 76
1, 340996, Note_off_c, 0, 70, 64
1, 341018, Note_on_c, 0, 85, 100
1, 341024, Note_on_c, 0, 61, 90
1, 341032, Note_off_c, 0, 46, 64
1, 341066, Control_c, 0, 64, 127
1, 341206, Note_off_c, 0, 61, 64
1, 341224, Note_off_c, 0, 85, 64
1, 341234, Note_off_c, 0, 77, 64
1, 341256, Note_off_c, 0, 53, 64
1, 341362, Note_on_c, 0, 54, 84
1, 341362, Note_on_c, 0, 42, 74
1, 341368, Note_on_c, 0, 78, 91
1, 341452, Note_off_c, 0, 78, 64
1, 341452, Note_on_c, 0, 66, 78
1, 341548, Note_on_c, 0, 78, 84
1, 341584, Note_off_c, 0, 66, 64
1, 341586, Note_off_c, 0, 42, 64
1, 341594, Note_off_c, 0, 54, 64
1, 341650, Control_c, 0, 64, 0
1, 341656, Note_off_c, 0, 78, 64
1, 341660, Note_on_c, 0, 65, 91
1, 341660, Note_on_c, 0, 77, 98
1, 341664, Note_on_c, 0, 53, 107
1, 341668, Note_on_c, 0, 41, 89
1, 341818, Control_c, 0, 64, 127
1, 341880, Note_off_c, 0, 53, 64
1, 341896, Note_off_c, 0, 77, 64
1, 341930, Note_off_c, 0, 65, 64
1, 341976, Note_off_c, 0, 41, 64
1, 342072, Note_on_c, 0, 61, 102
1, 342074, Note_on_c, 0, 73, 92
1, 342078, Note_on_c, 0, 49, 89
1, 342084, Note_on_c, 0, 37, 94
1, 342126, Control_c, 0, 64, 0
1, 342270, Note_off_c, 0, 61, 64
1, 342280, Control_c, 0, 64, 127
1, 342348, Note_off_c, 0, 73, 64
1, 342374, Note_off_c, 0, 49, 64
1, 342480, Note_off_c, 0, 37, 64
1, 342534, Note_on_c, 0, 78, 106
1, 342534, Note_on_c, 0, 90, 100
1, 342534, Note_on_c, 0, 46, 87
1, 342537, Note_on_c, 0, 87, 85
1, 342542, Note_on_c, 0, 34, 93
1, 342572, Control_c, 0, 64, 0
1, 342786, Note_off_c, 0, 34, 64
1, 342786, Control_c, 0, 64, 127
1, 342802, Note_off_c, 0, 46, 64
1, 343032, Note_on_c, 0, 65, 94
1, 343040, Note_on_c, 0, 61, 79
1, 343042, Note_on_c, 0, 53, 101
1, 343086, Note_off_c, 0, 53, 64
1, 343098, Note_off_c, 0, 61, 64
1, 343102, Note_off_c, 0, 90, 64
1, 343112, Note_off_c, 0, 78, 64
1, 343138, Note_off_c, 0, 65, 64
1, 343146, Note_off_c, 0, 87, 64
1, 343270, Note_on_c, 0, 89, 91
1, 343276, Note_on_c, 0, 77, 97
1, 343278, Note_on_c, 0, 85, 84
1, 343302, Note_off_c, 0, 89, 64
1, 343305, Note_off_c, 0, 77, 64
1, 343310, Note_off_c, 0, 85, 64
1, 343354, Control_c, 0, 64, 0
1, 343370, Note_on_c, 0, 85, 73
1, 343374, Note_on_c, 0, 89, 39
1, 343378, Note_on_c, 0, 77, 85
1, 343386, Note_on_c, 0, 70, 92
1, 343394, Note_on_c, 0, 61, 83
1, 343398, Note_on_c, 0, 58, 67
1, 343474, Note_off_c, 0, 70, 64
1, 343474, Control_c, 0, 64, 127
1, 343502, Note_off_c, 0, 89, 64
1, 343505, Note_off_c, 0, 77, 64
1, 343518, Note_off_c, 0, 61, 64
1, 343542, Note_off_c, 0, 85, 64
1, 343544, Note_off_c, 0, 58, 64
1, 343778, Note_on_c, 0, 41, 78
1, 343780, Note_on_c, 0, 65, 88
1, 343780, Note_on_c, 0, 53, 95
1, 343826, Note_off_c, 0, 65, 64
1, 343836, Note_on_c, 0, 66, 62
1, 343870, Note_off_c, 0, 41, 64
1, 343898, Note_off_c, 0, 53, 64
1, 343914, Note_on_c, 0, 65, 64
1, 343960, Note_off_c, 0, 66, 64
1, 343972, Note_off_c, 0, 65, 64
1, 343994, Note_on_c, 0, 64, 74
1, 344076, Note_on_c, 0, 65, 74
1, 344108, Control_c, 0, 64, 0
1, 344112, Note_off_c, 0, 64, 64
1, 344130, Note_on_c, 0, 70, 93
1, 344136, Note_on_c, 0, 58, 93
1, 344138, Note_on_c, 0, 46, 87
1, 344178, Note_off_c, 0, 65, 64
1, 344216, Control_c, 0, 64, 127
1, 344234, Note_off_c, 0, 70, 64
1, 344242, Note_off_c, 0, 58, 64
1, 344274, Note_off_c, 0, 46, 64
1, 344514, Note_on_c, 0, 73, 93
1, 344514, Note_on_c, 0, 85, 95
1, 344520, Note_on_c, 0, 82, 81
1, 344523, Note_on_c, 0, 41, 105
1, 344526, Note_on_c, 0, 29, 100
1, 344558, Note_off_c, 0, 41, 64
1, 344558, Note_off_c, 0, 29, 64
1, 344646, Note_off_c, 0, 73, 64
1, 344668, Note_off_c, 0, 85, 64
1, 344738, Note_on_c, 0, 75, 99
1, 344738, Note_on_c, 0, 84, 92
1, 344741, Note_on_c, 0, 87, 91
1, 344752, Note_off_c, 0, 82, 64
1, 344862, Note_off_c, 0, 75, 64
1, 344896, Note_off_c, 0, 84, 64
1, 344916, Note_off_c, 0, 87, 64
1, 345052, Note_on_c, 0, 78, 104
1, 345054, Note_on_c, 0, 90, 97
1, 345054, Note_on_c, 0, 87, 88
1, 345062, Note_on_c, 0, 46, 103
1, 345068, Note_on_c, 0, 34, 96
1, 345090, Control_c, 0, 64, 0
1, 345186, Note_off_c, 0, 46, 64
1, 345188, Note_off_c, 0, 34, 64
1, 345230, Control_c, 0, 64, 127
1, 345250, Note_off_c, 0, 90, 64
1, 345252, Note_off_c, 0, 78, 64
1, 345266, Note_off_c, 0, 87, 64
1, 345368, Note_on_c, 0, 89, 57
1, 345368, Note_on_c, 0, 85, 60
1, 345378, Note_on_c, 0, 77, 54
1, 345410, Note_off_c, 0, 85, 64
1, 345420, Note_off_c, 0, 89, 64
1, 345426, Note_off_c, 0, 77, 64
1, 345452, Note_on_c, 0, 89, 83
1, 345454, Note_on_c, 0, 77, 72
1, 345458, Note_on_c, 0, 85, 88
1, 345460, Note_on_c, 0, 65, 89
1, 345466, Note_on_c, 0, 53, 98
1, 345466, Note_on_c, 0, 61, 78
1, 345512, Note_off_c, 0, 89, 64
1, 345512, Note_off_c, 0, 53, 64
1, 345522, Note_off_c, 0, 65, 64
1, 345525, Note_off_c, 0, 61, 64
1, 345542, Note_off_c, 0, 77, 64
1, 345544, Note_off_c, 0, 85, 64
1, 345638, Note_on_c, 0, 88, 84
1, 345640, Note_on_c, 0, 76, 90
1, 345644, Note_on_c, 0, 84, 87
1, 345708, Note_off_c, 0, 84, 64
1, 345714, Note_off_c, 0, 76, 64
1, 345742, Note_off_c, 0, 88, 64
1, 345798, Control_c, 0, 64, 0
1, 345830, Note_on_c, 0, 89, 108
1, 345838, Note_on_c, 0, 85, 96
1, 345838, Note_on_c, 0, 77, 109
1, 345846, Note_on_c, 0, 70, 88
1, 345856, Note_on_c, 0, 58, 66
1, 345856, Note_on_c, 0, 61, 81
1, 345886, Note_off_c, 0, 70, 64
1, 345902, Note_off_c, 0, 89, 64
1, 345906, Note_off_c, 0, 77, 64
1, 345914, Note_off_c, 0, 61, 64
1, 345926, Note_off_c, 0, 85, 64
1, 345926, Control_c, 0, 64, 127
1, 345980, Note_off_c, 0, 58, 64
1, 346232, Note_on_c, 0, 65, 87
1, 346238, Note_on_c, 0, 41, 88
1, 346240, Note_on_c, 0, 53, 98
1, 346272, Note_off_c, 0, 65, 64
1, 346282, Note_on_c, 0, 66, 72
1, 346294, Note_off_c, 0, 41, 64
1, 346352, Note_off_c, 0, 53, 64
1, 346360, Note_on_c, 0, 65, 48
1, 346394, Note_off_c, 0, 66, 64
1, 346416, Note_off_c, 0, 65, 64
1, 346440, Note_on_c, 0, 64, 83
1, 346512, Note_off_c, 0, 64, 64
1, 346520, Note_on_c, 0, 65, 73
1, 346550, Control_c, 0, 64, 0
1, 346578, Note_on_c, 0, 70, 93
1, 346592, Note_on_c, 0, 58, 93
1, 346598, Note_on_c, 0, 46, 91
1, 346642, Note_off_c, 0, 65, 64
1, 346674, Control_c, 0, 64, 127
1, 346696, Note_off_c, 0, 70, 64
1, 346698, Note_off_c, 0, 58, 64
1, 346708, Note_off_c, 0, 46, 64
1, 346996, Note_on_c, 0, 91, 106
1, 346998, Note_on_c, 0, 79, 105
1, 347000, Note_on_c, 0, 85, 91
1, 347002, Note_on_c, 0, 46, 96
1, 347010, Note_on_c, 0, 34, 95
1, 347082, Note_off_c, 0, 79, 64
1, 347098, Note_off_c, 0, 85, 64
1, 347100, Note_off_c, 0, 46, 64
1, 347126, Note_off_c, 0, 34, 64
1, 347218, Note_on_c, 0, 92, 95
1, 347220, Note_on_c, 0, 80, 102
1, 347282, Note_off_c, 0, 91, 64
1, 347336, Note_off_c, 0, 80, 64
1, 347538, Note_on_c, 0, 96, 113
1, 347542, Note_off_c, 0, 92, 64
1, 347542, Note_on_c, 0, 84, 111
1, 347548, Note_on_c, 0, 39, 108
1, 347560, Note_on_c, 0, 27, 102
1, 347596, Control_c, 0, 64, 0
1, 347692, Note_off_c, 0, 27, 64
1, 347726, Note_off_c, 0, 39, 64
1, 347734, Control_c, 0, 64, 127
1, 347820, Note_on_c, 0, 91, 95
1, 347824, Note_on_c, 0, 87, 82
1, 347838, Note_off_c, 0, 96, 64
1, 347872, Note_off_c, 0, 84, 64
1, 348014, Note_off_c, 0, 87, 64
1, 348100, Note_on_c, 0, 72, 104
1, 348102, Note_on_c, 0, 96, 110
1, 348104, Note_on_c, 0, 84, 115
1, 348106, Note_on_c, 0, 67, 87
1, 348108, Note_on_c, 0, 61, 84
1, 348116, Note_on_c, 0, 63, 73
1, 348156, Note_off_c, 0, 67, 64
1, 348162, Note_off_c, 0, 63, 64
1, 348188, Note_off_c, 0, 91, 64
1, 348244, Note_off_c, 0, 72, 64
1, 348288, Note_on_c, 0, 63, 17
1, 348290, Note_off_c, 0, 96, 64
1, 348322, Note_off_c, 0, 84, 64
1, 348350, Note_off_c, 0, 61, 64
1, 348408, Note_on_c, 0, 70, 69
1, 348460, Note_off_c, 0, 70, 64
1, 348474, Note_off_c, 0, 63, 64
1, 348484, Note_on_c, 0, 94, 85
1, 348484, Note_on_c, 0, 82, 90
1, 348516, Note_off_c, 0, 94, 64
1, 348519, Note_off_c, 0, 82, 64
1, 348580, Control_c, 0, 64, 0
1, 348580, Note_on_c, 0, 94, 61
1, 348588, Note_on_c, 0, 82, 86
1, 348608, Note_on_c, 0, 51, 94
1, 348686, Control_c, 0, 64, 127
1, 348706, Note_off_c, 0, 51, 64
1, 348716, Note_off_c, 0, 94, 64
1, 348788, Note_off_c, 0, 82, 64
1, 348814, Note_on_c, 0, 87, 88
1, 348818, Note_on_c, 0, 84, 93
1, 348878, Note_off_c, 0, 84, 64
1, 348966, Note_off_c, 0, 87, 64
1, 349008, Note_on_c, 0, 70, 83
1, 349016, Note_on_c, 0, 60, 79
1, 349028, Note_on_c, 0, 63, 73
1, 349056, Note_on_c, 0, 94, 95
1, 349060, Note_on_c, 0, 82, 97
1, 349174, Note_off_c, 0, 70, 64
1, 349190, Note_off_c, 0, 82, 64
1, 349193, Note_off_c, 0, 94, 64
1, 349222, Note_off_c, 0, 60, 64
1, 349274, Note_on_c, 0, 68, 82
1, 349326, Note_off_c, 0, 68, 64
1, 349356, Note_on_c, 0, 92, 76
1, 349359, Note_off_c, 0, 63, 64
1, 349359, Note_on_c, 0, 80, 81
1, 349392, Note_off_c, 0, 92, 64
1, 349395, Note_off_c, 0, 80, 64
1, 349434, Note_on_c, 0, 92, 80
1, 349440, Control_c, 0, 64, 0
1, 349442, Note_on_c, 0, 80, 85
1, 349474, Note_on_c, 0, 51, 85
1, 349578, Control_c, 0, 64, 127
1, 349588, Note_off_c, 0, 51, 64
1, 349612, Note_off_c, 0, 92, 64
1, 349628, Note_off_c, 0, 80, 64
1, 349648, Note_on_c, 0, 87, 83
1, 349650, Note_on_c, 0, 82, 79
1, 349780, Note_off_c, 0, 82, 64
1, 349806, Note_on_c, 0, 68, 86
1, 349814, Note_on_c, 0, 63, 78
1, 349826, Note_on_c, 0, 58, 50
1, 349836, Note_on_c, 0, 80, 90
1, 349840, Note_on_c, 0, 92, 86
1, 349928, Note_off_c, 0, 68, 64
1, 349974, Note_off_c, 0, 63, 64
1, 349977, Note_off_c, 0, 80, 64
1, 349998, Note_off_c, 0, 92, 64
1, 350014, Note_on_c, 0, 67, 83
1, 350018, Note_off_c, 0, 87, 64
1, 350054, Note_on_c, 0, 63, 14
1, 350057, Note_off_c, 0, 67, 64
1, 350088, Note_off_c, 0, 58, 64
1, 350102, Note_on_c, 0, 91, 89
1, 350110, Note_on_c, 0, 79, 87
1, 350112, Note_off_c, 0, 63, 64
1, 350136, Note_off_c, 0, 91, 64
1, 350148, Note_off_c, 0, 79, 64
1, 350178, Control_c, 0, 64, 0
1, 350196, Note_on_c, 0, 91, 67
1, 350202, Note_on_c, 0, 79, 94
1, 350230, Note_on_c, 0, 46, 83
1, 350330, Control_c, 0, 64, 127
1, 350352, Note_off_c, 0, 46, 64
1, 350402, Note_on_c, 0, 82, 74
1, 350406, Note_on_c, 0, 86, 89
1, 350412, Note_off_c, 0, 91, 64
1, 350430, Note_off_c, 0, 79, 64
1, 350544, Note_off_c, 0, 82, 64
1, 350564, Note_on_c, 0, 67, 82
1, 350564, Note_on_c, 0, 56, 67
1, 350567, Note_on_c, 0, 62, 68
1, 350588, Note_on_c, 0, 58, 33
1, 350590, Note_on_c, 0, 91, 101
1, 350593, Note_on_c, 0, 79, 103
1, 350644, Note_off_c, 0, 67, 64
1, 350668, Note_off_c, 0, 86, 64
1, 350672, Note_off_c, 0, 91, 64
1, 350680, Note_off_c, 0, 79, 64
1, 350702, Note_off_c, 0, 62, 64
1, 350712, Note_off_c, 0, 58, 64
1, 350722, Note_off_c, 0, 56, 64
1, 350776, Note_on_c, 0, 65, 75
1, 350806, Note_on_c, 0, 58, 44
1, 350818, Note_off_c, 0, 65, 64
1, 350846, Note_on_c, 0, 89, 91
1, 350854, Note_on_c, 0, 77, 78
1, 350862, Note_off_c, 0, 58, 64
1, 350876, Note_off_c, 0, 89, 64
1, 350890, Note_off_c, 0, 77, 64
1, 350900, Control_c, 0, 64, 0
1, 350940, Note_on_c, 0, 89, 61
1, 350946, Note_on_c, 0, 77, 97
1, 350970, Note_on_c, 0, 51, 84
1, 351022, Control_c, 0, 64, 127
1, 351048, Note_off_c, 0, 51, 64
1, 351062, Note_off_c, 0, 89, 64
1, 351104, Note_off_c, 0, 77, 64
1, 351134, Note_on_c, 0, 82, 88
1, 351136, Note_on_c, 0, 79, 96
1, 351172, Note_off_c, 0, 79, 64
1, 351270, Note_off_c, 0, 82, 64
1, 351310, Note_on_c, 0, 65, 84
1, 351310, Note_on_c, 0, 55, 81
1, 351324, Note_on_c, 0, 58, 50
1, 351328, Note_on_c, 0, 89, 101
1, 351334, Note_on_c, 0, 77, 96
1, 351378, Note_off_c, 0, 65, 64
1, 351394, Note_off_c, 0, 58, 64
1, 351408, Note_off_c, 0, 77, 64
1, 351422, Note_off_c, 0, 89, 64
1, 351536, Note_on_c, 0, 63, 80
1, 351570, Note_off_c, 0, 63, 64
1, 351594, Note_off_c, 0, 55, 64
1, 351634, Note_on_c, 0, 87, 87
1, 351638, Note_on_c, 0, 75, 90
1, 351668, Note_off_c, 0, 87, 64
1, 351682, Note_off_c, 0, 75, 64
1, 351760, Note_on_c, 0, 85, 96
1, 351762, Note_on_c, 0, 73, 95
1, 351776, Control_c, 0, 64, 0
1, 351779, Note_on_c, 0, 41, 94
1, 351783, Note_on_c, 0, 53, 106
1, 351944, Control_c, 0, 64, 127
1, 351974, Note_off_c, 0, 41, 64
1, 351974, Note_on_c, 0, 80, 88
1, 351984, Note_on_c, 0, 77, 83
1, 352012, Note_off_c, 0, 53, 64
1, 352018, Note_off_c, 0, 85, 64
1, 352034, Note_off_c, 0, 73, 64
1, 352138, Note_off_c, 0, 77, 64
1, 352164, Note_on_c, 0, 85, 93
1, 352168, Note_on_c, 0, 73, 88
1, 352178, Note_on_c, 0, 61, 82
1, 352178, Note_on_c, 0, 56, 79
1, 352234, Note_off_c, 0, 80, 64
1, 352322, Note_off_c, 0, 73, 64
1, 352330, Note_off_c, 0, 61, 64
1, 352360, Note_off_c, 0, 56, 64
1, 352366, Note_off_c, 0, 85, 64
1, 352374, Note_on_c, 0, 60, 80
1, 352418, Note_off_c, 0, 60, 64
1, 352484, Note_on_c, 0, 84, 89
1, 352500, Note_on_c, 0, 72, 51
1, 352516, Note_off_c, 0, 84, 64
1, 352554, Note_off_c, 0, 72, 64
1, 352712, Control_c, 0, 64, 0
1, 352722, Note_on_c, 0, 65, 100
1, 352734, Note_on_c, 0, 49, 47
1, 352752, Note_on_c, 0, 37, 40
1, 352946, Note_off_c, 0, 37, 64
1, 352960, Note_off_c, 0, 49, 64
1, 352990, Control_c, 0, 64, 127
1, 353156, Note_on_c, 0, 58, 41
1, 353178, Note_on_c, 0, 53, 72
1, 353226, Note_off_c, 0, 53, 64
1, 353232, Note_off_c, 0, 58, 64
1, 353542, Control_c, 0, 64, 0
1, 353546, Note_on_c, 0, 67, 84
1, 353554, Note_on_c, 0, 36, 80
1, 353566, Note_off_c, 0, 65, 64
1, 353566, Note_on_c, 0, 48, 49
1, 353588, Note_off_c, 0, 67, 64
1, 353602, Note_on_c, 0, 68, 72
1, 353664, Note_off_c, 0, 36, 64
1, 353664, Control_c, 0, 64, 127
1, 353664, Note_on_c, 0, 67, 55
1, 353670, Note_off_c, 0, 48, 64
1, 353704, Note_off_c, 0, 68, 64
1, 353734, Note_off_c, 0, 67, 64
1, 353758, Note_on_c, 0, 68, 69
1, 353828, Note_on_c, 0, 67, 55
1, 353862, Note_off_c, 0, 68, 64
1, 353924, Note_on_c, 0, 65, 89
1, 353930, Note_on_c, 0, 60, 75
1, 353932, Note_on_c, 0, 58, 64
1, 353938, Note_on_c, 0, 52, 77
1, 353964, Note_off_c, 0, 67, 64
1, 353976, Note_off_c, 0, 60, 64
1, 353984, Note_off_c, 0, 52, 64
1, 353986, Note_off_c, 0, 58, 64
1, 354114, Note_on_c, 0, 67, 92
1, 354160, Note_off_c, 0, 65, 64
1, 354312, Note_on_c, 0, 68, 76
1, 354322, Note_off_c, 0, 67, 64
1, 354325, Control_c, 0, 64, 0
1, 354342, Note_on_c, 0, 29, 96
1, 354352, Note_on_c, 0, 41, 79
1, 354376, Note_on_c, 0, 70, 65
1, 354404, Note_off_c, 0, 68, 64
1, 354448, Control_c, 0, 64, 127
1, 354450, Note_off_c, 0, 70, 64
1, 354454, Note_off_c, 0, 29, 64
1, 354456, Note_on_c, 0, 68, 72
1, 354480, Note_off_c, 0, 41, 64
1, 354498, Note_off_c, 0, 68, 64
1, 354512, Note_on_c, 0, 70, 66
1, 354572, Note_on_c, 0, 68, 44
1, 354618, Note_off_c, 0, 70, 64
1, 354666, Note_on_c, 0, 70, 83
1, 354668, Note_off_c, 0, 68, 64
1, 354754, Note_on_c, 0, 68, 65
1, 354808, Note_on_c, 0, 60, 70
1, 354816, Note_on_c, 0, 53, 90
1, 354819, Note_on_c, 0, 56, 57
1, 354842, Note_on_c, 0, 67, 92
1, 354854, Note_off_c, 0, 70, 64
1, 354890, Note_off_c, 0, 68, 64
1, 354938, Note_off_c, 0, 60, 64
1, 354976, Note_off_c, 0, 67, 64
1, 354988, Note_on_c, 0, 68, 83
1, 354996, Note_off_c, 0, 53, 64
1, 354996, Note_off_c, 0, 56, 64
1, 355202, Control_c, 0, 64, 0
1, 355205, Note_on_c, 0, 69, 93
1, 355209, Note_on_c, 0, 51, 83
1, 355209, Note_on_c, 0, 67, 72
1, 355216, Note_on_c, 0, 39, 75
1, 355222, Note_on_c, 0, 61, 79
1, 355248, Note_off_c, 0, 68, 64
1, 355392, Note_off_c, 0, 67, 64
1, 355396, Note_off_c, 0, 39, 64
1, 355400, Note_off_c, 0, 61, 64
1, 355410, Note_off_c, 0, 51, 64
1, 355416, Note_on_c, 0, 70, 88
1, 355416, Control_c, 0, 64, 127
1, 355464, Note_off_c, 0, 69, 64
1, 355596, Note_on_c, 0, 72, 90
1, 355606, Note_off_c, 0, 70, 64
1, 355612, Note_on_c, 0, 61, 78
1, 355614, Note_on_c, 0, 67, 65
1, 355622, Note_on_c, 0, 58, 52
1, 355632, Note_on_c, 0, 51, 50
1, 355672, Note_off_c, 0, 67, 64
1, 355740, Note_off_c, 0, 61, 64
1, 355748, Note_off_c, 0, 58, 64
1, 355780, Note_off_c, 0, 51, 64
1, 355780, Note_on_c, 0, 73, 90
1, 355794, Note_off_c, 0, 72, 64
1, 355902, Note_off_c, 0, 73, 64
1, 355970, Control_c, 0, 64, 0
1, 355988, Note_on_c, 0, 72, 97
1, 355996, Note_on_c, 0, 56, 58
1, 355998, Note_on_c, 0, 68, 70
1, 356000, Note_on_c, 0, 44, 65
1, 356006, Note_on_c, 0, 60, 82
1, 356010, Note_on_c, 0, 51, 59
1, 356154, Control_c, 0, 64, 127
1, 356164, Note_off_c, 0, 44, 64
1, 356178, Note_off_c, 0, 60, 64
1, 356194, Note_off_c, 0, 51, 64
1, 356196, Note_off_c, 0, 56, 64
1, 356250, Note_off_c, 0, 72, 64
1, 356264, Note_off_c, 0, 68, 64
1, 356392, Note_on_c, 0, 77, 101
1, 356400, Note_on_c, 0, 68, 78
1, 356410, Note_on_c, 0, 65, 71
1, 356412, Note_on_c, 0, 62, 68
1, 356418, Note_on_c, 0, 59, 59
1, 356594, Note_off_c, 0, 62, 64
1, 356608, Note_off_c, 0, 59, 64
1, 356652, Note_off_c, 0, 65, 64
1, 356676, Note_off_c, 0, 77, 64
1, 356686, Note_off_c, 0, 68, 64
1, 356704, Note_on_c, 0, 63, 70
1, 356712, Note_on_c, 0, 60, 57
1, 356722, Note_on_c, 0, 75, 69
1, 356752, Note_off_c, 0, 63, 64
1, 356762, Note_off_c, 0, 60, 64
1, 356762, Note_off_c, 0, 75, 64
1, 356814, Note_on_c, 0, 75, 89
1, 356830, Note_on_c, 0, 63, 79
1, 356830, Control_c, 0, 64, 0
1, 356833, Note_on_c, 0, 60, 63
1, 356984, Control_c, 0, 64, 127
1, 357008, Note_off_c, 0, 60, 64
1, 357008, Note_on_c, 0, 68, 95
1, 357014, Note_off_c, 0, 63, 64
1, 357098, Note_off_c, 0, 75, 64
1, 357198, Note_on_c, 0, 80, 97
1, 357198, Note_on_c, 0, 56, 77
1, 357214, Note_on_c, 0, 44, 74
1, 357270, Note_off_c, 0, 56, 64
1, 357270, Note_off_c, 0, 44, 64
1, 357414, Note_off_c, 0, 68, 64
1, 357420, Note_off_c, 0, 80, 64
1, 357538, Note_on_c, 0, 79, 85
1, 357538, Note_on_c, 0, 67, 83
1, 357574, Note_off_c, 0, 79, 64
1, 357582, Note_off_c, 0, 67, 64
1, 357672, Note_on_c, 0, 49, 88
1, 357672, Note_on_c, 0, 77, 98
1, 357675, Note_on_c, 0, 65, 94
1, 357686, Note_on_c, 0, 37, 81
1, 357706, Control_c, 0, 64, 0
1, 357902, Note_off_c, 0, 37, 64
1, 357920, Control_c, 0, 64, 127
1, 357944, Note_off_c, 0, 49, 64
1, 358118, Note_on_c, 0, 58, 65
1, 358124, Note_on_c, 0, 53, 95
1, 358234, Note_off_c, 0, 58, 64
1, 358242, Note_off_c, 0, 53, 64
1, 358408, Note_off_c, 0, 65, 64
1, 358474, Control_c, 0, 64, 0
1, 358500, Note_on_c, 0, 67, 94
1, 358508, Note_on_c, 0, 48, 94
1, 358516, Note_on_c, 0, 36, 97
1, 358584, Note_off_c, 0, 36, 64
1, 358608, Note_off_c, 0, 77, 64
1, 358611, Control_c, 0, 64, 127
1, 358622, Note_off_c, 0, 67, 64
1, 358622, Note_off_c, 0, 48, 64
1, 358724, Note_on_c, 0, 79, 91
1, 358764, Note_off_c, 0, 79, 64
1, 358790, Note_on_c, 0, 80, 77
1, 358838, Note_on_c, 0, 79, 81
1, 358910, Note_off_c, 0, 80, 64
1, 358916, Note_off_c, 0, 79, 64
1, 358968, Note_on_c, 0, 64, 74
1, 358978, Note_on_c, 0, 60, 63
1, 358978, Note_on_c, 0, 58, 52
1, 358996, Note_on_c, 0, 65, 93
1, 359002, Note_on_c, 0, 77, 87
1, 359010, Note_off_c, 0, 64, 64
1, 359030, Note_off_c, 0, 60, 64
1, 359042, Note_off_c, 0, 58, 64
1, 359058, Note_off_c, 0, 65, 64
1, 359086, Note_off_c, 0, 77, 64
1, 359182, Note_on_c, 0, 79, 106
1, 359188, Note_on_c, 0, 67, 94
1, 359260, Note_off_c, 0, 67, 64
1, 359298, Note_off_c, 0, 79, 64
1, 359350, Control_c, 0, 64, 0
1, 359378, Note_on_c, 0, 68, 97
1, 359381, Note_on_c, 0, 41, 108
1, 359386, Note_on_c, 0, 29, 105
1, 359440, Note_off_c, 0, 29, 64
1, 359482, Note_off_c, 0, 41, 64
1, 359504, Control_c, 0, 64, 127
1, 359520, Note_off_c, 0, 68, 64
1, 359522, Note_on_c, 0, 80, 72
1, 359580, Note_on_c, 0, 82, 71
1, 359588, Note_off_c, 0, 80, 64
1, 359652, Note_on_c, 0, 80, 79
1, 359726, Note_off_c, 0, 82, 64
1, 359744, Note_off_c, 0, 80, 64
1, 359782, Note_on_c, 0, 65, 83
1, 359784, Note_on_c, 0, 67, 89
1, 359788, Note_on_c, 0, 56, 73
1, 359788, Note_on_c, 0, 79, 98
1, 359791, Note_on_c, 0, 60, 69
1, 359844, Note_off_c, 0, 67, 64
1, 359886, Note_off_c, 0, 79, 64
1, 359888, Note_off_c, 0, 65, 64
1, 359936, Note_off_c, 0, 60, 64
1, 359956, Note_on_c, 0, 80, 92
1, 359966, Note_on_c, 0, 68, 89
1, 359986, Note_off_c, 0, 56, 64
1, 360074, Note_off_c, 0, 68, 64
1, 360092, Note_off_c, 0, 80, 64
1, 360102, Control_c, 0, 64, 0
1, 360142, Note_on_c, 0, 81, 105
1, 360148, Note_on_c, 0, 69, 91
1, 360152, Note_on_c, 0, 51, 101
1, 360154, Note_on_c, 0, 75, 73
1, 360154, Note_on_c, 0, 39, 95
1, 360242, Control_c, 0, 64, 127
1, 360258, Note_off_c, 0, 69, 64
1, 360262, Note_off_c, 0, 81, 64
1, 360266, Note_off_c, 0, 39, 64
1, 360290, Note_off_c, 0, 51, 64
1, 360302, Note_off_c, 0, 75, 64
1, 360354, Note_on_c, 0, 70, 83
1, 360356, Note_on_c, 0, 82, 90
1, 360450, Note_off_c, 0, 70, 64
1, 360458, Note_off_c, 0, 82, 64
1, 360538, Note_on_c, 0, 84, 106
1, 360538, Note_on_c, 0, 72, 95
1, 360541, Note_on_c, 0, 79, 92
1, 360548, Note_on_c, 0, 67, 90
1, 360550, Note_on_c, 0, 58, 64
1, 360554, Note_on_c, 0, 63, 77
1, 360556, Note_on_c, 0, 61, 69
1, 360606, Note_off_c, 0, 67, 64
1, 360644, Note_off_c, 0, 72, 64
1, 360652, Note_off_c, 0, 84, 64
1, 360720, Note_on_c, 0, 85, 98
1, 360724, Note_on_c, 0, 73, 90
1, 360730, Note_off_c, 0, 63, 64
1, 360772, Note_off_c, 0, 58, 64
1, 360820, Note_off_c, 0, 61, 64
1, 360826, Note_off_c, 0, 79, 64
1, 360832, Note_off_c, 0, 73, 64
1, 360846, Note_off_c, 0, 85, 64
1, 360856, Control_c, 0, 64, 0
1, 360900, Note_on_c, 0, 84, 105
1, 360902, Note_on_c, 0, 72, 99
1, 360906, Note_on_c, 0, 68, 95
1, 360906, Note_on_c, 0, 80, 86
1, 360912, Note_on_c, 0, 56, 88
1, 360926, Note_on_c, 0, 63, 79
1, 360994, Control_c, 0, 64, 127
1, 360998, Note_off_c, 0, 63, 64
1, 361010, Note_off_c, 0, 68, 64
1, 361020, Note_off_c, 0, 72, 64
1, 361022, Note_off_c, 0, 56, 64
1, 361052, Note_off_c, 0, 80, 64
1, 361060, Note_off_c, 0, 84, 64
1, 361270, Note_on_c, 0, 89, 107
1, 361274, Note_on_c, 0, 77, 104
1, 361276, Note_on_c, 0, 80, 90
1, 361276, Note_on_c, 0, 71, 100
1, 361280, Note_on_c, 0, 68, 77
1, 361290, Note_on_c, 0, 59, 80
1, 361298, Note_on_c, 0, 62, 61
1, 361316, Control_c, 0, 64, 0
1, 361428, Note_off_c, 0, 77, 64
1, 361434, Note_off_c, 0, 89, 64
1, 361452, Note_off_c, 0, 59, 64
1, 361455, Control_c, 0, 64, 127
1, 361466, Note_off_c, 0, 62, 64
1, 361496, Note_off_c, 0, 71, 64
1, 361498, Note_off_c, 0, 80, 64
1, 361500, Note_off_c, 0, 68, 64
1, 361592, Note_on_c, 0, 87, 72
1, 361598, Note_on_c, 0, 75, 84
1, 361624, Note_on_c, 0, 72, 86
1, 361626, Note_off_c, 0, 87, 64
1, 361634, Note_off_c, 0, 75, 64
1, 361634, Note_on_c, 0, 63, 61
1, 361637, Note_on_c, 0, 60, 56
1, 361660, Note_off_c, 0, 72, 64
1, 361676, Note_off_c, 0, 63, 64
1, 361686, Note_on_c, 0, 87, 70
1, 361691, Note_off_c, 0, 60, 64
1, 361694, Note_on_c, 0, 75, 83
1, 361696, Note_on_c, 0, 80, 98
1, 361700, Control_c, 0, 64, 0
1, 361712, Note_on_c, 0, 68, 2
1, 361714, Note_on_c, 0, 72, 87
1, 361734, Note_on_c, 0, 63, 78
1, 361737, Note_on_c, 0, 60, 84
1, 361842, Note_off_c, 0, 72, 64
1, 361854, Control_c, 0, 64, 127
1, 361866, Note_off_c, 0, 75, 64
1, 361866, Note_off_c, 0, 68, 64
1, 361874, Note_off_c, 0, 87, 64
1, 361888, Note_off_c, 0, 80, 64
1, 361888, Note_off_c, 0, 63, 64
1, 361894, Note_off_c, 0, 60, 64
1, 361982, Note_on_c, 0, 87, 60
1, 361988, Note_on_c, 0, 75, 65
1, 362012, Note_on_c, 0, 53, 94
1, 362020, Note_off_c, 0, 87, 64
1, 362026, Note_off_c, 0, 75, 64
1, 362050, Note_off_c, 0, 53, 64
1, 362082, Note_on_c, 0, 85, 91
1, 362086, Note_on_c, 0, 73, 98
1, 362090, Note_on_c, 0, 81, 90
1, 362102, Note_on_c, 0, 69, 92
1, 362112, Note_on_c, 0, 63, 93
1, 362170, Note_off_c, 0, 69, 64
1, 362190, Note_off_c, 0, 63, 64
1, 362260, Note_off_c, 0, 81, 64
1, 362270, Note_off_c, 0, 73, 64
1, 362282, Note_off_c, 0, 85, 64
1, 362386, Note_on_c, 0, 72, 89
1, 362392, Note_on_c, 0, 84, 76
1, 362406, Note_on_c, 0, 46, 64
1, 362424, Note_off_c, 0, 72, 64
1, 362430, Note_off_c, 0, 84, 64
1, 362438, Control_c, 0, 64, 0
1, 362444, Note_on_c, 0, 53, 90
1, 362492, Note_on_c, 0, 70, 92
1, 362494, Note_on_c, 0, 82, 95
1, 362508, Note_on_c, 0, 61, 97
1, 362530, Note_off_c, 0, 46, 64
1, 362578, Note_off_c, 0, 53, 64
1, 362592, Control_c, 0, 64, 127
1, 362796, Note_off_c, 0, 61, 64
1, 362808, Note_off_c, 0, 82, 64
1, 362824, Note_off_c, 0, 70, 64
1, 362880, Note_on_c, 0, 51, 70
1, 362914, Control_c, 0, 64, 0
1, 362926, Note_on_c, 0, 58, 60
1, 362966, Note_on_c, 0, 82, 92
1, 362972, Note_on_c, 0, 70, 99
1, 362976, Note_on_c, 0, 78, 86
1, 362984, Note_off_c, 0, 51, 64
1, 362987, Note_on_c, 0, 66, 91
1, 363084, Control_c, 0, 64, 127
1, 363148, Note_off_c, 0, 66, 64
1, 363170, Note_off_c, 0, 70, 64
1, 363184, Note_off_c, 0, 78, 64
1, 363190, Note_off_c, 0, 82, 64
1, 363192, Note_off_c, 0, 58, 64
1, 363292, Note_on_c, 0, 46, 86
1, 363294, Note_on_c, 0, 84, 77
1, 363300, Note_on_c, 0, 72, 73
1, 363332, Note_off_c, 0, 84, 64
1, 363342, Note_off_c, 0, 72, 64
1, 363364, Note_on_c, 0, 80, 21
1, 363367, Note_on_c, 0, 53, 79
1, 363376, Note_on_c, 0, 85, 96
1, 363388, Note_on_c, 0, 77, 92
1, 363390, Note_on_c, 0, 73, 82
1, 363390, Note_on_c, 0, 61, 100
1, 363402, Note_off_c, 0, 46, 64
1, 363440, Note_off_c, 0, 80, 64
1, 363522, Note_off_c, 0, 61, 64
1, 363562, Note_off_c, 0, 53, 64
1, 363638, Note_off_c, 0, 77, 64
1, 363658, Note_off_c, 0, 73, 64
1, 363672, Note_off_c, 0, 85, 64
1, 363672, Note_on_c, 0, 39, 88
1, 363728, Control_c, 0, 64, 0
1, 363736, Note_on_c, 0, 46, 27
1, 363746, Note_off_c, 0, 39, 64
1, 363763, Note_on_c, 0, 85, 82
1, 363772, Note_on_c, 0, 73, 95
1, 363778, Note_on_c, 0, 78, 84
1, 363780, Note_on_c, 0, 75, 80
1, 363788, Note_on_c, 0, 54, 101
1, 363882, Control_c, 0, 64, 127
1, 363886, Note_off_c, 0, 75, 64
1, 363934, Note_off_c, 0, 54, 64
1, 363950, Note_off_c, 0, 78, 64
1, 363962, Note_off_c, 0, 85, 64
1, 363976, Note_off_c, 0, 46, 64
1, 363976, Note_off_c, 0, 73, 64
1, 364052, Note_on_c, 0, 84, 72
1, 364054, Note_on_c, 0, 72, 78
1, 364068, Note_on_c, 0, 34, 87
1, 364092, Note_off_c, 0, 84, 64
1, 364092, Note_off_c, 0, 72, 64
1, 364120, Note_off_c, 0, 34, 64
1, 364134, Note_on_c, 0, 41, 51
1, 364158, Note_on_c, 0, 77, 95
1, 364160, Note_on_c, 0, 70, 99
1, 364160, Note_on_c, 0, 82, 93
1, 364166, Note_on_c, 0, 49, 100
1, 364190, Control_c, 0, 64, 0
1, 364246, Note_off_c, 0, 41, 64
1, 364314, Control_c, 0, 64, 127
1, 364390, Note_off_c, 0, 49, 64
1, 364462, Note_off_c, 0, 77, 64
1, 364478, Note_off_c, 0, 70, 64
1, 364490, Note_off_c, 0, 82, 64
1, 364494, Note_on_c, 0, 39, 78
1, 364546, Note_on_c, 0, 46, 70
1, 364606, Note_on_c, 0, 80, 96
1, 364609, Note_off_c, 0, 39, 64
1, 364609, Note_on_c, 0, 70, 76
1, 364614, Note_on_c, 0, 68, 88
1, 364618, Note_on_c, 0, 75, 74
1, 364620, Control_c, 0, 64, 0
1, 364626, Note_on_c, 0, 54, 103
1, 364774, Control_c, 0, 64, 127
1, 364832, Note_off_c, 0, 46, 64
1, 364854, Note_off_c, 0, 70, 64
1, 364857, Note_off_c, 0, 54, 64
1, 364892, Note_off_c, 0, 68, 64
1, 364904, Note_off_c, 0, 80, 64
1, 364916, Note_off_c, 0, 75, 64
1, 365046, Note_on_c, 0, 78, 81
1, 365052, Note_on_c, 0, 66, 70
1, 365070, Note_on_c, 0, 46, 67
1, 365102, Note_off_c, 0, 78, 64
1, 365114, Note_off_c, 0, 66, 64
1, 365144, Control_c, 0, 64, 0
1, 365166, Note_on_c, 0, 53, 92
1, 365194, Note_on_c, 0, 77, 103
1, 365194, Note_on_c, 0, 73, 88
1, 365200, Note_on_c, 0, 65, 101
1, 365250, Note_on_c, 0, 61, 88
1, 365278, Note_off_c, 0, 46, 64
1, 365312, Control_c, 0, 64, 127
1, 365348, Note_off_c, 0, 53, 64
1, 365366, Note_off_c, 0, 61, 64
1, 365374, Note_off_c, 0, 77, 64
1, 365396, Note_off_c, 0, 65, 64
1, 365432, Note_off_c, 0, 73, 64
1, 365772, Note_on_c, 0, 33, 68
1, 365804, Note_on_c, 0, 45, 46
1, 365840, Note_on_c, 0, 34, 67
1, 365846, Note_off_c, 0, 33, 64
1, 365864, Note_on_c, 0, 46, 68
1, 365868, Note_off_c, 0, 45, 64
1, 365902, Note_off_c, 0, 34, 64
1, 365905, Note_off_c, 0, 46, 64
1, 365914, Note_on_c, 0, 36, 63
1, 365950, Note_on_c, 0, 48, 61
1, 365974, Note_off_c, 0, 36, 64
1, 366000, Note_on_c, 0, 37, 73
1, 366002, Note_off_c, 0, 48, 64
1, 366024, Note_on_c, 0, 49, 69
1, 366068, Note_on_c, 0, 39, 57
1, 366094, Note_on_c, 0, 51, 74
1, 366112, Note_off_c, 0, 49, 64
1, 366124, Note_off_c, 0, 37, 64
1, 366134, Note_on_c, 0, 41, 69
1, 366136, Note_off_c, 0, 51, 64
1, 366172, Note_on_c, 0, 53, 90
1, 366175, Note_off_c, 0, 41, 64
1, 366186, Note_off_c, 0, 39, 64
1, 366202, Note_on_c, 0, 43, 63
1, 366216, Note_off_c, 0, 53, 64
1, 366238, Note_on_c, 0, 55, 87
1, 366258, Note_off_c, 0, 43, 64
1, 366292, Note_on_c, 0, 45, 67
1, 366304, Note_on_c, 0, 57, 75
1, 366314, Note_off_c, 0, 55, 64
1, 366360, Note_on_c, 0, 46, 78
1, 366363, Note_off_c, 0, 45, 64
1, 366370, Note_on_c, 0, 58, 73
1, 366400, Note_off_c, 0, 57, 64
1, 366406, Note_off_c, 0, 58, 64
1, 366418, Note_off_c, 0, 46, 64
1, 366430, Note_on_c, 0, 48, 70
1, 366452, Note_on_c, 0, 60, 78
1, 366494, Note_on_c, 0, 49, 79
1, 366504, Note_off_c, 0, 48, 64
1, 366504, Note_on_c, 0, 61, 83
1, 366512, Note_off_c, 0, 60, 64
1, 366550, Note_on_c, 0, 51, 68
1, 366572, Note_on_c, 0, 63, 87
1, 366596, Note_off_c, 0, 61, 64
1, 366602, Note_off_c, 0, 63, 64
1, 366602, Note_on_c, 0, 53, 101
1, 366652, Note_off_c, 0, 49, 64
1, 366652, Note_off_c, 0, 53, 64
1, 366655, Note_on_c, 0, 65, 71
1, 366659, Note_off_c, 0, 51, 64
1, 366666, Note_on_c, 0, 55, 88
1, 366706, Note_off_c, 0, 65, 64
1, 366706, Note_on_c, 0, 67, 84
1, 366720, Note_off_c, 0, 55, 64
1, 366754, Note_on_c, 0, 57, 81
1, 366764, Note_on_c, 0, 69, 67
1, 366816, Note_off_c, 0, 67, 64
1, 366820, Note_on_c, 0, 58, 78
1, 366824, Note_on_c, 0, 70, 81
1, 366862, Note_off_c, 0, 57, 64
1, 366865, Note_off_c, 0, 69, 64
1, 366865, Note_off_c, 0, 70, 64
1, 366892, Note_on_c, 0, 60, 82
1, 366910, Note_on_c, 0, 72, 80
1, 366922, Note_off_c, 0, 58, 64
1, 366960, Note_on_c, 0, 73, 81
1, 366966, Note_off_c, 0, 72, 64
1, 366968, Note_on_c, 0, 61, 85
1, 366972, Note_off_c, 0, 60, 64
1, 367006, Note_on_c, 0, 63, 74
1, 367028, Note_on_c, 0, 75, 82
1, 367048, Note_off_c, 0, 73, 64
1, 367060, Note_off_c, 0, 75, 64
1, 367060, Note_on_c, 0, 65, 83
1, 367102, Note_off_c, 0, 65, 64
1, 367114, Note_on_c, 0, 77, 80
1, 367120, Note_off_c, 0, 61, 64
1, 367124, Note_off_c, 0, 63, 64
1, 367126, Note_on_c, 0, 67, 84
1, 367156, Note_on_c, 0, 79, 98
1, 367160, Note_off_c, 0, 77, 64
1, 367186, Note_off_c, 0, 67, 64
1, 367198, Note_on_c, 0, 69, 84
1, 367216, Note_on_c, 0, 81, 79
1, 367254, Note_off_c, 0, 79, 64
1, 367262, Note_on_c, 0, 82, 84
1, 367274, Note_on_c, 0, 70, 84
1, 367300, Note_off_c, 0, 69, 64
1, 367302, Note_off_c, 0, 81, 64
1, 367302, Note_off_c, 0, 82, 64
1, 367336, Note_on_c, 0, 72, 72
1, 367346, Note_on_c, 0, 84, 92
1, 367360, Note_off_c, 0, 70, 64
1, 367386, Note_off_c, 0, 72, 64
1, 367396, Note_on_c, 0, 85, 84
1, 367418, Note_on_c, 0, 73, 81
1, 367424, Note_off_c, 0, 84, 64
1, 367468, Note_on_c, 0, 75, 72
1, 367468, Note_on_c, 0, 87, 81
1, 367512, Note_off_c, 0, 85, 64
1, 367518, Note_off_c, 0, 87, 64
1, 367554, Note_off_c, 0, 73, 64
1, 367554, Note_on_c, 0, 89, 87
1, 367556, Note_on_c, 0, 77, 89
1, 367570, Note_off_c, 0, 75, 64
1, 367608, Note_off_c, 0, 77, 64
1, 367624, Note_on_c, 0, 91, 83
1, 367630, Note_on_c, 0, 79, 83
1, 367664, Note_off_c, 0, 79, 64
1, 367670, Note_off_c, 0, 89, 64
1, 367710, Note_on_c, 0, 93, 71
1, 367724, Note_on_c, 0, 81, 83
1, 367728, Note_off_c, 0, 91, 64
1, 367754, Note_on_c, 0, 94, 99
1, 367758, Note_off_c, 0, 81, 64
1, 367762, Note_on_c, 0, 82, 95
1, 367868, Note_off_c, 0, 93, 64
1, 367874, Note_off_c, 0, 82, 64
1, 368008, Note_off_c, 0, 94, 64
1, 368292, Control_c, 0, 64, 0
1, 368326, Note_on_c, 0, 96, 100
1, 368332, Note_on_c, 0, 85, 100
1, 368336, Note_on_c, 0, 91, 92
1, 368338, Note_on_c, 0, 94, 86
1, 368344, Note_on_c, 0, 39, 98
1, 368346, Note_on_c, 0, 27, 101
1, 368462, Control_c, 0, 64, 127
1, 368468, Note_off_c, 0, 39, 64
1, 368474, Note_off_c, 0, 27, 64
1, 368486, Note_off_c, 0, 91, 64
1, 368504, Note_off_c, 0, 96, 64
1, 368532, Note_off_c, 0, 85, 64
1, 368562, Note_off_c, 0, 94, 64
1, 368604, Note_on_c, 0, 93, 105
1, 368612, Note_on_c, 0, 84, 103
1, 368616, Note_on_c, 0, 90, 81
1, 368758, Note_off_c, 0, 84, 64
1, 368842, Note_off_c, 0, 90, 64
1, 368880, Note_off_c, 0, 93, 64
1, 368890, Note_on_c, 0, 94, 87
1, 368900, Note_on_c, 0, 85, 102
1, 368900, Note_on_c, 0, 91, 92
1, 368906, Note_on_c, 0, 63, 106
1, 368909, Note_on_c, 0, 51, 103
1, 368978, Note_off_c, 0, 63, 64
1, 369000, Note_off_c, 0, 51, 64
1, 369130, Note_off_c, 0, 91, 64
1, 369132, Note_off_c, 0, 94, 64
1, 369138, Note_off_c, 0, 85, 64
1, 369292, Control_c, 0, 64, 0
1, 369322, Note_on_c, 0, 96, 104
1, 369322, Note_on_c, 0, 84, 110
1, 369322, Note_on_c, 0, 75, 95
1, 369328, Note_on_c, 0, 91, 95
1, 369331, Note_on_c, 0, 63, 82
1, 369338, Note_on_c, 0, 72, 74
1, 369346, Note_on_c, 0, 67, 66
1, 369430, Control_c, 0, 64, 127
1, 369462, Note_off_c, 0, 96, 64
1, 369498, Note_off_c, 0, 91, 64
1, 369520, Note_off_c, 0, 67, 64
1, 369524, Note_off_c, 0, 63, 64
1, 369526, Note_off_c, 0, 84, 64
1, 369529, Note_off_c, 0, 72, 64
1, 369624, Note_off_c, 0, 75, 64
1, 369728, Note_on_c, 0, 92, 97
1, 369728, Note_on_c, 0, 80, 106
1, 369731, Note_on_c, 0, 77, 101
1, 369731, Note_on_c, 0, 84, 100
1, 369735, Control_c, 0, 64, 0
1, 369741, Note_on_c, 0, 68, 66
1, 369744, Note_on_c, 0, 65, 72
1, 369747, Note_on_c, 0, 72, 76
1, 369844, Control_c, 0, 64, 127
1, 369864, Note_off_c, 0, 92, 64
1, 369884, Note_off_c, 0, 77, 64
1, 369888, Note_off_c, 0, 84, 64
1, 369924, Note_off_c, 0, 72, 64
1, 369927, Note_off_c, 0, 80, 64
1, 369948, Note_off_c, 0, 68, 64
1, 369948, Note_off_c, 0, 65, 64
1, 370100, Note_on_c, 0, 80, 79
1, 370100, Note_on_c, 0, 87, 90
1, 370100, Note_on_c, 0, 75, 99
1, 370103, Note_on_c, 0, 72, 96
1, 370103, Note_on_c, 0, 68, 80
1, 370108, Note_on_c, 0, 60, 91
1, 370122, Control_c, 0, 64, 0
1, 370228, Control_c, 0, 64, 127
1, 370268, Note_off_c, 0, 60, 64
1, 370274, Note_off_c, 0, 75, 64
1, 370284, Note_off_c, 0, 72, 64
1, 370308, Note_off_c, 0, 80, 64
1, 370326, Note_off_c, 0, 87, 64
1, 370326, Note_off_c, 0, 68, 64
1, 370460, Note_on_c, 0, 89, 101
1, 370460, Note_on_c, 0, 77, 103
1, 370460, Control_c, 0, 64, 0
1, 370463, Note_on_c, 0, 80, 90
1, 370466, Note_on_c, 0, 73, 93
1, 370480, Note_on_c, 0, 61, 81
1, 370483, Note_on_c, 0, 68, 65
1, 370590, Control_c, 0, 64, 127
1, 370602, Note_off_c, 0, 89, 64
1, 370648, Note_off_c, 0, 77, 64
1, 370648, Note_off_c, 0, 73, 64
1, 370666, Note_off_c, 0, 68, 64
1, 370682, Note_off_c, 0, 61, 64
1, 370692, Note_off_c, 0, 80, 64
1, 370766, Control_c, 0, 64, 0
1, 370784, Note_on_c, 0, 87, 88
1, 370784, Note_on_c, 0, 80, 72
1, 370787, Note_on_c, 0, 75, 102
1, 370790, Note_on_c, 0, 72, 94
1, 370798, Note_on_c, 0, 60, 83
1, 370798, Note_on_c, 0, 68, 81
1, 370824, Note_off_c, 0, 72, 64
1, 370850, Note_off_c, 0, 68, 64
1, 370853, Note_off_c, 0, 60, 64
1, 370858, Control_c, 0, 64, 127
1, 370882, Note_off_c, 0, 80, 64
1, 370896, Note_off_c, 0, 87, 64
1, 370899, Note_off_c, 0, 75, 64
1, 371092, Note_on_c, 0, 84, 106
1, 371094, Note_on_c, 0, 72, 97
1, 371100, Note_on_c, 0, 68, 87
1, 371100, Note_on_c, 0, 75, 86
1, 371108, Note_on_c, 0, 56, 79
1, 371120, Note_on_c, 0, 63, 80
1, 371140, Note_off_c, 0, 84, 64
1, 371158, Note_off_c, 0, 75, 64
1, 371158, Note_off_c, 0, 63, 64
1, 371168, Note_off_c, 0, 56, 64
1, 371186, Note_off_c, 0, 68, 64
1, 371189, Note_off_c, 0, 72, 64
1, 371392, Note_on_c, 0, 80, 93
1, 371395, Note_on_c, 0, 68, 99
1, 371395, Note_on_c, 0, 65, 82
1, 371395, Note_on_c, 0, 53, 93
1, 371398, Note_on_c, 0, 72, 89
1, 371402, Note_on_c, 0, 60, 81
1, 371446, Note_off_c, 0, 65, 64
1, 371488, Note_off_c, 0, 80, 64
1, 371494, Note_off_c, 0, 72, 64
1, 371508, Note_off_c, 0, 53, 64
1, 371510, Note_off_c, 0, 60, 64
1, 371532, Note_off_c, 0, 68, 64
1, 371688, Control_c, 0, 64, 0
1, 371698, Note_on_c, 0, 77, 106
1, 371700, Note_on_c, 0, 56, 87
1, 371700, Note_on_c, 0, 68, 93
1, 371700, Note_on_c, 0, 65, 99
1, 371704, Note_on_c, 0, 61, 89
1, 371708, Note_on_c, 0, 49, 79
1, 371772, Note_off_c, 0, 77, 64
1, 371808, Note_off_c, 0, 65, 64
1, 371814, Control_c, 0, 64, 127
1, 371838, Note_off_c, 0, 61, 64
1, 371850, Note_off_c, 0, 68, 64
1, 371864, Note_off_c, 0, 56, 64
1, 371864, Note_off_c, 0, 49, 64
1, 371980, Control_c, 0, 64, 0
1, 372012, Note_on_c, 0, 67, 92
1, 372014, Note_on_c, 0, 75, 96
1, 372020, Note_on_c, 0, 63, 99
1, 372024, Note_on_c, 0, 61, 86
1, 372026, Note_on_c, 0, 58, 74
1, 372028, Note_on_c, 0, 51, 82
1, 372060, Note_off_c, 0, 61, 64
1, 372092, Note_off_c, 0, 58, 64
1, 372104, Control_c, 0, 64, 127
1, 372152, Note_off_c, 0, 51, 64
1, 372166, Note_off_c, 0, 75, 64
1, 372182, Note_off_c, 0, 63, 64
1, 372190, Note_off_c, 0, 67, 64
1, 372380, Control_c, 0, 64, 0
1, 372383, Note_on_c, 0, 60, 108
1, 372386, Note_on_c, 0, 68, 88
1, 372386, Note_on_c, 0, 72, 100
1, 372392, Note_on_c, 0, 44, 108
1, 372398, Note_on_c, 0, 32, 95
1, 372434, Note_off_c, 0, 32, 64
1, 372466, Note_off_c, 0, 44, 64
1, 372518, Control_c, 0, 64, 127
1, 372548, Note_off_c, 0, 72, 64
1, 372556, Note_off_c, 0, 60, 64
1, 372606, Note_off_c, 0, 68, 64
1, 372816, Note_on_c, 0, 51, 90
1, 372826, Note_on_c, 0, 60, 80
1, 372828, Note_on_c, 0, 56, 63
1, 372830, Note_on_c, 0, 63, 71
1, 372867, Note_off_c, 0, 63, 64
1, 372880, Note_off_c, 0, 56, 64
1, 372902, Note_on_c, 0, 65, 30
1, 372904, Note_off_c, 0, 60, 64
1, 372922, Note_on_c, 0, 63, 81
1, 372956, Note_off_c, 0, 65, 64
1, 372960, Note_off_c, 0, 51, 64
1, 373012, Note_off_c, 0, 63, 64
1, 373012, Note_on_c, 0, 65, 79
1, 373080, Note_on_c, 0, 63, 84
1, 373130, Note_off_c, 0, 65, 64
1, 373164, Control_c, 0, 64, 0
1, 373164, Note_on_c, 0, 59, 94
1, 373167, Note_on_c, 0, 62, 108
1, 373167, Note_on_c, 0, 56, 76
1, 373172, Note_on_c, 0, 53, 111
1, 373228, Note_off_c, 0, 63, 64
1, 373302, Note_off_c, 0, 59, 64
1, 373308, Note_off_c, 0, 53, 64
1, 373316, Note_off_c, 0, 56, 64
1, 373332, Control_c, 0, 64, 127
1, 373476, Note_off_c, 0, 62, 64
1, 373510, Note_on_c, 0, 65, 59
1, 373522, Note_on_c, 0, 53, 108
1, 373536, Note_on_c, 0, 41, 79
1, 373592, Note_on_c, 0, 68, 84
1, 373614, Note_off_c, 0, 53, 64
1, 373642, Note_off_c, 0, 65, 64
1, 373686, Note_off_c, 0, 41, 64
1, 373708, Note_on_c, 0, 71, 84
1, 373750, Note_off_c, 0, 71, 64
1, 373752, Note_off_c, 0, 68, 64
1, 373822, Note_on_c, 0, 74, 97
1, 373838, Note_on_c, 0, 41, 105
1, 373844, Note_on_c, 0, 29, 99
1, 373930, Note_on_c, 0, 77, 86
1, 373960, Note_off_c, 0, 74, 64
1, 374002, Note_off_c, 0, 41, 64
1, 374016, Note_off_c, 0, 29, 64
1, 374018, Note_on_c, 0, 80, 82
1, 374066, Note_off_c, 0, 77, 64
1, 374094, Note_on_c, 0, 40, 108
1, 374102, Note_on_c, 0, 28, 91
1, 374105, Note_on_c, 0, 83, 106
1, 374134, Note_off_c, 0, 83, 64
1, 374137, Note_off_c, 0, 80, 64
1, 374210, Note_on_c, 0, 86, 101
1, 374242, Note_off_c, 0, 40, 64
1, 374274, Note_off_c, 0, 28, 64
1, 374298, Note_off_c, 0, 86, 64
1, 374324, Note_on_c, 0, 98, 100
1, 374438, Control_c, 0, 64, 0
1, 374444, Note_on_c, 0, 87, 106
1, 374446, Note_on_c, 0, 39, 111
1, 374446, Note_on_c, 0, 27, 96
1, 374449, Note_on_c, 0, 99, 103
1, 374550, Note_off_c, 0, 98, 64
1, 374588, Note_off_c, 0, 27, 64
1, 374616, Note_off_c, 0, 39, 64
1, 374619, Note_off_c, 0, 99, 64
1, 374638, Control_c, 0, 64, 127
1, 374664, Note_off_c, 0, 87, 64
1, 374900, Note_on_c, 0, 67, 97
1, 374904, Note_on_c, 0, 61, 79
1, 374906, Note_on_c, 0, 58, 64
1, 374912, Note_on_c, 0, 70, 97
1, 374912, Note_on_c, 0, 63, 72
1, 374915, Note_on_c, 0, 82, 87
1, 374928, Note_on_c, 0, 75, 72
1, 374934, Note_off_c, 0, 67, 64
1, 374950, Note_off_c, 0, 61, 64
1, 374950, Note_off_c, 0, 63, 64
1, 374953, Note_off_c, 0, 58, 64
1, 374953, Note_off_c, 0, 82, 64
1, 374964, Note_off_c, 0, 75, 64
1, 374970, Note_off_c, 0, 70, 64
1, 375028, Note_on_c, 0, 75, 60
1, 375030, Note_on_c, 0, 82, 78
1, 375032, Note_on_c, 0, 70, 82
1, 375034, Note_on_c, 0, 58, 43
1, 375036, Note_on_c, 0, 63, 58
1, 375038, Note_on_c, 0, 67, 41
1, 375040, Note_on_c, 0, 61, 62
1, 375080, Note_off_c, 0, 82, 64
1, 375090, Note_off_c, 0, 67, 64
1, 375096, Note_off_c, 0, 63, 64
1, 375096, Note_off_c, 0, 61, 64
1, 375098, Note_off_c, 0, 70, 64
1, 375112, Note_off_c, 0, 58, 64
1, 375136, Note_off_c, 0, 75, 64
1, 375170, Note_on_c, 0, 70, 90
1, 375170, Note_on_c, 0, 82, 90
1, 375176, Note_on_c, 0, 67, 87
1, 375178, Note_on_c, 0, 58, 72
1, 375181, Note_on_c, 0, 75, 95
1, 375186, Note_on_c, 0, 61, 76
1, 375189, Note_on_c, 0, 63, 74
1, 375260, Note_off_c, 0, 63, 64
1, 375278, Note_off_c, 0, 67, 64
1, 375278, Note_off_c, 0, 61, 64
1, 375288, Note_off_c, 0, 58, 64
1, 375326, Note_off_c, 0, 75, 64
1, 375336, Note_off_c, 0, 82, 64
1, 375338, Note_off_c, 0, 70, 64
1, 375476, Note_on_c, 0, 66, 86
1, 375482, Note_on_c, 0, 69, 95
1, 375484, Note_on_c, 0, 75, 87
1, 375484, Note_on_c, 0, 81, 96
1, 375488, Note_on_c, 0, 58, 59
1, 375492, Note_on_c, 0, 61, 66
1, 375506, Note_off_c, 0, 66, 64
1, 375512, Note_off_c, 0, 81, 64
1, 375518, Note_off_c, 0, 69, 64
1, 375518, Note_on_c, 0, 63, 29
1, 375528, Note_off_c, 0, 75, 64
1, 375538, Note_off_c, 0, 58, 64
1, 375538, Note_off_c, 0, 61, 64
1, 375590, Note_off_c, 0, 63, 64
1, 375606, Note_on_c, 0, 58, 50
1, 375606, Note_on_c, 0, 61, 65
1, 375606, Note_on_c, 0, 82, 88
1, 375609, Note_on_c, 0, 70, 81
1, 375614, Note_on_c, 0, 67, 71
1, 375622, Note_on_c, 0, 75, 59
1, 375622, Note_on_c, 0, 63, 33
1, 375654, Note_off_c, 0, 70, 64
1, 375658, Note_off_c, 0, 58, 64
1, 375658, Note_off_c, 0, 67, 64
1, 375668, Note_off_c, 0, 63, 64
1, 375670, Note_off_c, 0, 75, 64
1, 375696, Note_off_c, 0, 61, 64
1, 375700, Note_off_c, 0, 82, 64
1, 375714, Control_c, 0, 64, 0
1, 375750, Note_on_c, 0, 75, 81
1, 375750, Note_on_c, 0, 58, 62
1, 375750, Note_on_c, 0, 68, 100
1, 375753, Note_on_c, 0, 84, 108
1, 375753, Note_on_c, 0, 72, 91
1, 375758, Note_on_c, 0, 61, 75
1, 375764, Note_on_c, 0, 63, 59
1, 375768, Note_on_c, 0, 82, 50
1, 375820, Note_off_c, 0, 82, 64
1, 375852, Control_c, 0, 64, 127
1, 375874, Note_off_c, 0, 84, 64
1, 375876, Note_off_c, 0, 68, 64
1, 375892, Note_off_c, 0, 72, 64
1, 375898, Note_off_c, 0, 61, 64
1, 375900, Note_off_c, 0, 58, 64
1, 375900, Note_off_c, 0, 63, 64
1, 375924, Note_off_c, 0, 75, 64
1, 376072, Note_on_c, 0, 79, 105
1, 376074, Note_on_c, 0, 73, 90
1, 376076, Note_on_c, 0, 67, 104
1, 376080, Note_on_c, 0, 75, 77
1, 376082, Note_on_c, 0, 70, 90
1, 376100, Note_on_c, 0, 63, 68
1, 376104, Note_on_c, 0, 58, 45
1, 376106, Note_on_c, 0, 69, 44
1, 376122, Note_off_c, 0, 70, 64
1, 376140, Note_on_c, 0, 61, 43
1, 376150, Note_off_c, 0, 63, 64
1, 376156, Note_off_c, 0, 58, 64
1, 376176, Note_off_c, 0, 69, 64
1, 376194, Note_off_c, 0, 67, 64
1, 376197, Note_off_c, 0, 61, 64
1, 376254, Note_off_c, 0, 79, 64
1, 376260, Note_off_c, 0, 73, 64
1, 376436, Control_c, 0, 64, 0
1, 376464, Note_on_c, 0, 68, 106
1, 376466, Note_off_c, 0, 75, 64
1, 376466, Note_on_c, 0, 80, 100
1, 376472, Note_on_c, 0, 72, 91
1, 376474, Note_on_c, 0, 44, 107
1, 376482, Note_on_c, 0, 32, 99
1, 376518, Note_off_c, 0, 32, 64
1, 376550, Note_off_c, 0, 44, 64
1, 376590, Control_c, 0, 64, 127
1, 376593, Note_off_c, 0, 80, 64
1, 376632, Note_off_c, 0, 72, 64
1, 376648, Note_off_c, 0, 68, 64
1, 376864, Note_on_c, 0, 60, 98
1, 376867, Note_on_c, 0, 63, 79
1, 376870, Note_on_c, 0, 51, 79
1, 376870, Note_on_c, 0, 56, 70
1, 376896, Note_on_c, 0, 65, 69
1, 376904, Note_off_c, 0, 63, 64
1, 376916, Note_off_c, 0, 56, 64
1, 376940, Note_off_c, 0, 51, 64
1, 376970, Note_off_c, 0, 65, 64
1, 376973, Note_on_c, 0, 63, 69
1, 376980, Note_off_c, 0, 60, 64
1, 377026, Note_off_c, 0, 63, 64
1, 377046, Note_on_c, 0, 65, 79
1, 377130, Note_on_c, 0, 63, 81
1, 377174, Control_c, 0, 64, 0
1, 377180, Note_off_c, 0, 65, 64
1, 377192, Note_on_c, 0, 56, 88
1, 377194, Note_on_c, 0, 59, 97
1, 377200, Note_on_c, 0, 53, 107
1, 377203, Note_on_c, 0, 62, 108
1, 377264, Note_off_c, 0, 63, 64
1, 377276, Note_off_c, 0, 59, 64
1, 377290, Note_off_c, 0, 53, 64
1, 377304, Note_off_c, 0, 56, 64
1, 377326, Control_c, 0, 64, 127
1, 377446, Note_off_c, 0, 62, 64
1, 377512, Note_on_c, 0, 65, 83
1, 377526, Note_on_c, 0, 53, 110
1, 377532, Note_on_c, 0, 41, 91
1, 377608, Note_on_c, 0, 68, 81
1, 377614, Note_off_c, 0, 53, 64
1, 377660, Note_off_c, 0, 65, 64
1, 377680, Note_off_c, 0, 41, 64
1, 377716, Note_on_c, 0, 71, 85
1, 377748, Note_off_c, 0, 68, 64
1, 377752, Note_off_c, 0, 71, 64
1, 377812, Note_on_c, 0, 41, 106
1, 377816, Note_on_c, 0, 29, 98
1, 377816, Note_on_c, 0, 74, 98
1, 377916, Note_on_c, 0, 77, 92
1, 377930, Note_off_c, 0, 74, 64
1, 377948, Note_off_c, 0, 41, 64
1, 377954, Note_off_c, 0, 29, 64
1, 378012, Note_on_c, 0, 80, 85
1, 378060, Note_on_c, 0, 40, 111
1, 378064, Note_on_c, 0, 28, 95
1, 378066, Note_off_c, 0, 77, 64
1, 378098, Note_on_c, 0, 83, 105
1, 378126, Note_off_c, 0, 83, 64
1, 378128, Note_off_c, 0, 80, 64
1, 378210, Note_on_c, 0, 86, 100
1, 378240, Note_off_c, 0, 40, 64
1, 378296, Note_off_c, 0, 86, 64
1, 378306, Note_off_c, 0, 28, 64
1, 378314, Note_on_c, 0, 98, 105
1, 378402, Control_c, 0, 64, 0
1, 378418, Note_off_c, 0, 98, 64
1, 378432, Note_on_c, 0, 87, 110
1, 378436, Note_on_c, 0, 39, 111
1, 378440, Note_on_c, 0, 99, 102
1, 378440, Note_on_c, 0, 27, 98
1, 378616, Note_off_c, 0, 27, 64
1, 378632, Note_off_c, 0, 99, 64
1, 378656, Note_off_c, 0, 39, 64
1, 378656, Control_c, 0, 64, 127
1, 378708, Note_off_c, 0, 87, 64
1, 378952, Note_on_c, 0, 67, 101
1, 378957, Note_on_c, 0, 61, 78
1, 378960, Note_on_c, 0, 58, 67
1, 378966, Note_on_c, 0, 70, 103
1, 378966, Note_on_c, 0, 82, 94
1, 378969, Note_on_c, 0, 63, 76
1, 378978, Note_on_c, 0, 75, 85
1, 378990, Note_off_c, 0, 67, 64
1, 379008, Note_off_c, 0, 61, 64
1, 379008, Note_off_c, 0, 58, 64
1, 379011, Note_off_c, 0, 63, 64
1, 379018, Note_off_c, 0, 75, 64
1, 379054, Note_off_c, 0, 70, 64
1, 379074, Note_off_c, 0, 82, 64
1, 379138, Note_on_c, 0, 67, 88
1, 379142, Note_on_c, 0, 82, 78
1, 379144, Note_on_c, 0, 70, 79
1, 379150, Note_on_c, 0, 75, 86
1, 379153, Note_on_c, 0, 63, 69
1, 379153, Note_on_c, 0, 61, 67
1, 379153, Note_on_c, 0, 58, 59
1, 379194, Note_off_c, 0, 67, 64
1, 379206, Note_off_c, 0, 61, 64
1, 379208, Note_off_c, 0, 63, 64
1, 379210, Note_off_c, 0, 58, 64
1, 379234, Note_off_c, 0, 75, 64
1, 379246, Note_off_c, 0, 82, 64
1, 379252, Note_off_c, 0, 70, 64
1, 379300, Note_on_c, 0, 70, 79
1, 379302, Note_on_c, 0, 82, 79
1, 379304, Note_on_c, 0, 75, 83
1, 379310, Note_on_c, 0, 58, 62
1, 379310, Note_on_c, 0, 67, 94
1, 379316, Note_on_c, 0, 63, 72
1, 379318, Note_on_c, 0, 61, 67
1, 379348, Note_off_c, 0, 67, 64
1, 379356, Note_off_c, 0, 58, 64
1, 379370, Note_off_c, 0, 61, 64
1, 379376, Note_off_c, 0, 75, 64
1, 379390, Note_off_c, 0, 82, 64
1, 379398, Note_off_c, 0, 70, 64
1, 379400, Note_off_c, 0, 63, 64
1, 379446, Note_on_c, 0, 58, 52
1, 379448, Note_on_c, 0, 68, 100
1, 379448, Note_on_c, 0, 72, 90
1, 379450, Note_on_c, 0, 84, 94
1, 379460, Note_on_c, 0, 61, 59
1, 379463, Note_on_c, 0, 63, 81
1, 379480, Note_off_c, 0, 84, 64
1, 379484, Note_off_c, 0, 68, 64
1, 379490, Note_off_c, 0, 72, 64
1, 379496, Note_off_c, 0, 58, 64
1, 379500, Note_off_c, 0, 63, 64
1, 379510, Note_off_c, 0, 61, 64
1, 379600, Note_on_c, 0, 61, 69
1, 379602, Note_on_c, 0, 58, 59
1, 379604, Note_on_c, 0, 63, 66
1, 379608, Note_on_c, 0, 81, 94
1, 379610, Note_on_c, 0, 67, 71
1, 379610, Note_on_c, 0, 69, 91
1, 379620, Note_on_c, 0, 65, 62
1, 379620, Note_on_c, 0, 75, 76
1, 379638, Note_off_c, 0, 81, 64
1, 379646, Note_off_c, 0, 58, 64
1, 379646, Note_off_c, 0, 69, 64
1, 379649, Note_off_c, 0, 67, 64
1, 379656, Note_off_c, 0, 75, 64
1, 379660, Note_off_c, 0, 63, 64
1, 379662, Note_off_c, 0, 65, 64
1, 379682, Note_off_c, 0, 61, 64
1, 379738, Note_on_c, 0, 70, 89
1, 379740, Note_on_c, 0, 68, 103
1, 379740, Note_on_c, 0, 82, 87
1, 379742, Note_on_c, 0, 58, 56
1, 379748, Note_on_c, 0, 75, 40
1, 379750, Note_on_c, 0, 61, 71
1, 379760, Note_on_c, 0, 63, 62
1, 379804, Note_off_c, 0, 58, 64
1, 379810, Note_off_c, 0, 63, 64
1, 379818, Note_off_c, 0, 68, 64
1, 379824, Note_off_c, 0, 61, 64
1, 379838, Note_off_c, 0, 70, 64
1, 379838, Note_off_c, 0, 82, 64
1, 379838, Note_off_c, 0, 75, 64
1, 379908, Control_c, 0, 64, 0
1, 379910, Note_on_c, 0, 84, 108
1, 379910, Note_on_c, 0, 72, 99
1, 379912, Note_on_c, 0, 75, 81
1, 379916, Note_on_c, 0, 68, 82
1, 379922, Note_on_c, 0, 58, 62
1, 379950, Note_on_c, 0, 63, 62
1, 379960, Note_on_c, 0, 61, 55
1, 380026, Note_off_c, 0, 61, 64
1, 380028, Note_off_c, 0, 84, 64
1, 380040, Control_c, 0, 64, 127
1, 380078, Note_off_c, 0, 68, 64
1, 380090, Note_off_c, 0, 58, 64
1, 380092, Note_off_c, 0, 75, 64
1, 380094, Note_off_c, 0, 72, 64
1, 380098, Note_off_c, 0, 63, 64
1, 380294, Note_on_c, 0, 79, 104
1, 380298, Note_on_c, 0, 75, 88
1, 380300, Note_on_c, 0, 67, 101
1, 380300, Note_on_c, 0, 70, 97
1, 380303, Note_on_c, 0, 73, 83
1, 380306, Note_on_c, 0, 58, 75
1, 380318, Note_on_c, 0, 63, 79
1, 380322, Note_on_c, 0, 61, 70
1, 380342, Note_off_c, 0, 70, 64
1, 380348, Note_off_c, 0, 58, 64
1, 380358, Note_off_c, 0, 63, 64
1, 380372, Note_off_c, 0, 61, 64
1, 380482, Note_off_c, 0, 67, 64
1, 380518, Note_off_c, 0, 73, 64
1, 380542, Note_off_c, 0, 79, 64
1, 380712, Note_off_c, 0, 75, 64
1, 380806, Note_on_c, 0, 80, 98
1, 380806, Note_on_c, 0, 68, 104
1, 380814, Note_on_c, 0, 77, 90
1, 380814, Control_c, 0, 64, 0
1, 380817, Note_on_c, 0, 72, 92
1, 380822, Note_on_c, 0, 44, 111
1, 380828, Note_on_c, 0, 32, 97
1, 380984, Control_c, 0, 64, 127
1, 381016, Note_off_c, 0, 32, 64
1, 381036, Note_off_c, 0, 44, 64
1, 381156, Note_off_c, 0, 80, 64
1, 381159, Note_off_c, 0, 72, 64
1, 381168, Note_off_c, 0, 77, 64
1, 381186, Note_on_c, 0, 51, 97
1, 381194, Note_on_c, 0, 39, 84
1, 381210, Note_off_c, 0, 68, 64
1, 381304, Note_on_c, 0, 75, 75
1, 381309, Note_off_c, 0, 39, 64
1, 381316, Note_off_c, 0, 51, 64
1, 381344, Note_off_c, 0, 75, 64
1, 381462, Note_on_c, 0, 56, 91
1, 381464, Note_on_c, 0, 75, 83
1, 381466, Note_on_c, 0, 63, 105
1, 381468, Note_on_c, 0, 44, 91
1, 381470, Note_on_c, 0, 72, 85
1, 381522, Note_off_c, 0, 44, 64
1, 381564, Note_off_c, 0, 56, 64
1, 381648, Note_off_c, 0, 63, 64
1, 381650, Note_off_c, 0, 75, 64
1, 381718, Note_off_c, 0, 72, 64
1, 381752, Note_on_c, 0, 63, 96
1, 381758, Note_on_c, 0, 51, 92
1, 381874, Note_off_c, 0, 63, 64
1, 381878, Note_off_c, 0, 51, 64
1, 382030, Note_on_c, 0, 68, 102
1, 382038, Note_on_c, 0, 56, 91
1, 382152, Note_off_c, 0, 68, 64
1, 382164, Note_off_c, 0, 56, 64
1, 382350, Note_on_c, 0, 75, 96
1, 382358, Note_on_c, 0, 72, 109
1, 382358, Note_on_c, 0, 63, 87
1, 382360, Note_on_c, 0, 84, 103
1, 382362, Note_on_c, 0, 80, 91
1, 382402, Note_off_c, 0, 75, 64
1, 382410, Note_off_c, 0, 72, 64
1, 382414, Note_off_c, 0, 63, 64
1, 382418, Note_off_c, 0, 84, 64
1, 382476, Note_off_c, 0, 80, 64
1, 382530, Note_on_c, 0, 73, 103
1, 382532, Note_on_c, 0, 85, 97
1, 382536, Note_on_c, 0, 82, 85
1, 382612, Note_off_c, 0, 73, 64
1, 382674, Note_off_c, 0, 82, 64
1, 382684, Note_off_c, 0, 85, 64
1, 382794, Note_on_c, 0, 89, 109
1, 382794, Note_on_c, 0, 77, 115
1, 382800, Note_on_c, 0, 85, 94
1, 382804, Note_on_c, 0, 44, 103
1, 382808, Note_on_c, 0, 32, 100
1, 382896, Note_off_c, 0, 44, 64
1, 382908, Note_off_c, 0, 32, 64
1, 383058, Note_off_c, 0, 89, 64
1, 383072, Note_off_c, 0, 85, 64
1, 383106, Note_off_c, 0, 77, 64
1, 383130, Note_on_c, 0, 51, 99
1, 383133, Note_on_c, 0, 39, 92
1, 383218, Note_off_c, 0, 51, 64
1, 383230, Note_off_c, 0, 39, 64
1, 383262, Note_on_c, 0, 75, 102
1, 383264, Note_on_c, 0, 87, 79
1, 383270, Note_on_c, 0, 84, 85
1, 383292, Note_off_c, 0, 75, 64
1, 383296, Note_off_c, 0, 87, 64
1, 383302, Note_off_c, 0, 84, 64
1, 383352, Note_on_c, 0, 84, 96
1, 383354, Note_on_c, 0, 87, 61
1, 383358, Note_on_c, 0, 75, 81
1, 383378, Note_on_c, 0, 56, 91
1, 383386, Note_on_c, 0, 44, 95
1, 383470, Note_off_c, 0, 44, 64
1, 383480, Note_off_c, 0, 56, 64
1, 383650, Note_on_c, 0, 63, 103
1, 383654, Note_on_c, 0, 51, 95
1, 383758, Note_off_c, 0, 63, 64
1, 383776, Note_off_c, 0, 51, 64
1, 383902, Note_off_c, 0, 84, 64
1, 383920, Note_off_c, 0, 87, 64
1, 383930, Note_on_c, 0, 68, 100
1, 383933, Note_on_c, 0, 56, 92
1, 383954, Note_off_c, 0, 75, 64
1, 384114, Note_off_c, 0, 56, 64
1, 384134, Note_off_c, 0, 68, 64
1, 384246, Note_on_c, 0, 75, 99
1, 384249, Note_on_c, 0, 84, 105
1, 384249, Note_on_c, 0, 72, 107
1, 384254, Note_on_c, 0, 63, 89
1, 384260, Note_on_c, 0, 80, 85
1, 384304, Note_off_c, 0, 63, 64
1, 384307, Note_off_c, 0, 75, 64
1, 384348, Note_off_c, 0, 84, 64
1, 384351, Note_off_c, 0, 72, 64
1, 384400, Note_off_c, 0, 80, 64
1, 384440, Note_on_c, 0, 73, 100
1, 384443, Note_on_c, 0, 85, 92
1, 384446, Note_on_c, 0, 82, 79
1, 384538, Note_off_c, 0, 82, 64
1, 384546, Note_off_c, 0, 85, 64
1, 384552, Note_off_c, 0, 73, 64
1, 384738, Note_on_c, 0, 89, 107
1, 384740, Note_on_c, 0, 44, 106
1, 384740, Note_on_c, 0, 85, 94
1, 384740, Note_on_c, 0, 77, 109
1, 384746, Note_on_c, 0, 32, 97
1, 384800, Note_off_c, 0, 32, 64
1, 384824, Note_off_c, 0, 44, 64
1, 384942, Note_off_c, 0, 85, 64
1, 384958, Note_off_c, 0, 89, 64
1, 384990, Note_off_c, 0, 77, 64
1, 385068, Note_on_c, 0, 51, 100
1, 385072, Note_on_c, 0, 39, 95
1, 385164, Note_on_c, 0, 75, 84
1, 385166, Note_off_c, 0, 39, 64
1, 385166, Note_on_c, 0, 87, 73
1, 385169, Note_off_c, 0, 51, 64
1, 385172, Note_on_c, 0, 84, 68
1, 385206, Note_off_c, 0, 75, 64
1, 385212, Note_off_c, 0, 87, 64
1, 385214, Note_off_c, 0, 84, 64
1, 385306, Note_on_c, 0, 89, 108
1, 385310, Note_on_c, 0, 77, 108
1, 385310, Note_on_c, 0, 85, 94
1, 385312, Note_on_c, 0, 56, 92
1, 385318, Note_on_c, 0, 44, 95
1, 385368, Note_off_c, 0, 44, 64
1, 385414, Note_off_c, 0, 56, 64
1, 385470, Note_off_c, 0, 85, 64
1, 385473, Note_off_c, 0, 89, 64
1, 385506, Note_off_c, 0, 77, 64
1, 385574, Note_on_c, 0, 63, 103
1, 385578, Note_on_c, 0, 51, 92
1, 385636, Note_off_c, 0, 51, 64
1, 385658, Note_on_c, 0, 87, 73
1, 385658, Note_on_c, 0, 75, 92
1, 385661, Note_off_c, 0, 63, 64
1, 385664, Note_on_c, 0, 84, 75
1, 385696, Note_off_c, 0, 75, 64
1, 385698, Note_off_c, 0, 87, 64
1, 385704, Note_off_c, 0, 84, 64
1, 385790, Note_on_c, 0, 89, 108
1, 385790, Note_on_c, 0, 68, 99
1, 385790, Note_on_c, 0, 77, 108
1, 385793, Note_on_c, 0, 85, 94
1, 385796, Note_on_c, 0, 56, 93
1, 385904, Note_off_c, 0, 68, 64
1, 385914, Note_off_c, 0, 56, 64
1, 385938, Note_off_c, 0, 85, 64
1, 385996, Note_off_c, 0, 89, 64
1, 386028, Note_off_c, 0, 77, 64
1, 386042, Note_on_c, 0, 63, 97
1, 386046, Note_on_c, 0, 51, 98
1, 386130, Note_on_c, 0, 84, 83
1, 386138, Note_on_c, 0, 75, 83
1, 386140, Note_on_c, 0, 87, 64
1, 386146, Note_off_c, 0, 63, 64
1, 386164, Note_off_c, 0, 51, 64
1, 386172, Note_off_c, 0, 75, 64
1, 386178, Note_off_c, 0, 84, 64
1, 386180, Note_off_c, 0, 87, 64
1, 386268, Note_on_c, 0, 56, 97
1, 386270, Note_on_c, 0, 85, 97
1, 386272, Note_on_c, 0, 77, 105
1, 386274, Note_on_c, 0, 89, 104
1, 386274, Note_on_c, 0, 44, 100
1, 386360, Note_off_c, 0, 56, 64
1, 386386, Note_off_c, 0, 44, 64
1, 386428, Note_off_c, 0, 77, 64
1, 386456, Note_off_c, 0, 89, 64
1, 386516, Note_off_c, 0, 85, 64
1, 386536, Note_on_c, 0, 39, 97
1, 386539, Note_on_c, 0, 51, 97
1, 386634, Note_off_c, 0, 39, 64
1, 386640, Note_off_c, 0, 51, 64
1, 386648, Note_on_c, 0, 87, 88
1, 386648, Note_on_c, 0, 75, 105
1, 386658, Note_on_c, 0, 84, 87
1, 386684, Note_off_c, 0, 87, 64
1, 386692, Note_off_c, 0, 75, 64
1, 386694, Note_off_c, 0, 84, 64
1, 386760, Control_c, 0, 64, 0
1, 386774, Note_on_c, 0, 84, 79
1, 386774, Note_on_c, 0, 87, 83
1, 386777, Note_on_c, 0, 75, 99
1, 386780, Note_on_c, 0, 44, 111
1, 386784, Note_on_c, 0, 32, 101
1, 386872, Note_off_c, 0, 44, 64
1, 386878, Note_off_c, 0, 32, 64
1, 386884, Control_c, 0, 64, 127
1, 386924, Note_on_c, 0, 43, 94
1, 386928, Note_on_c, 0, 31, 104
1, 387006, Note_off_c, 0, 43, 64
1, 387012, Note_off_c, 0, 31, 64
1, 387068, Note_off_c, 0, 84, 64
1, 387074, Note_on_c, 0, 41, 100
1, 387080, Note_on_c, 0, 29, 103
1, 387108, Note_off_c, 0, 75, 64
1, 387130, Note_off_c, 0, 29, 64
1, 387148, Note_off_c, 0, 41, 64
1, 387206, Note_on_c, 0, 39, 103
1, 387218, Note_on_c, 0, 27, 92
1, 387246, Note_off_c, 0, 87, 64
1, 387272, Note_off_c, 0, 27, 64
1, 387296, Note_off_c, 0, 39, 64
1, 387358, Note_on_c, 0, 84, 97
1, 387360, Note_on_c, 0, 89, 97
1, 387362, Note_on_c, 0, 44, 111
1, 387364, Note_on_c, 0, 77, 106
1, 387370, Note_on_c, 0, 32, 94
1, 387466, Note_off_c, 0, 77, 64
1, 387486, Note_off_c, 0, 89, 64
1, 387494, Note_off_c, 0, 44, 64
1, 387508, Note_off_c, 0, 32, 64
1, 387511, Note_off_c, 0, 84, 64
1, 387572, Note_on_c, 0, 84, 94
1, 387572, Note_on_c, 0, 79, 102
1, 387575, Note_on_c, 0, 43, 93
1, 387578, Note_on_c, 0, 91, 100
1, 387578, Note_on_c, 0, 31, 98
1, 387608, Note_off_c, 0, 79, 64
1, 387608, Note_off_c, 0, 91, 64
1, 387618, Note_off_c, 0, 43, 64
1, 387630, Note_off_c, 0, 31, 64
1, 387660, Note_off_c, 0, 84, 64
1, 387682, Note_on_c, 0, 80, 106
1, 387685, Note_on_c, 0, 92, 100
1, 387692, Note_on_c, 0, 84, 67
1, 387700, Note_on_c, 0, 41, 95
1, 387704, Note_on_c, 0, 29, 105
1, 387756, Note_off_c, 0, 29, 64
1, 387776, Note_off_c, 0, 80, 64
1, 387788, Note_off_c, 0, 84, 64
1, 387792, Note_off_c, 0, 41, 64
1, 387796, Note_off_c, 0, 92, 64
1, 387880, Note_on_c, 0, 39, 103
1, 387880, Note_on_c, 0, 82, 105
1, 387883, Note_on_c, 0, 94, 101
1, 387886, Note_on_c, 0, 87, 91
1, 387888, Note_on_c, 0, 27, 99
1, 387930, Note_off_c, 0, 27, 64
1, 387954, Note_off_c, 0, 39, 64
1, 387992, Note_off_c, 0, 82, 64
1, 388022, Note_off_c, 0, 94, 64
1, 388032, Note_off_c, 0, 87, 64
1, 388216, Note_on_c, 0, 44, 111
1, 388218, Note_on_c, 0, 96, 113
1, 388220, Note_on_c, 0, 32, 99
1, 388226, Note_on_c, 0, 92, 77
1, 388228, Note_on_c, 0, 84, 101
1, 388228, Note_on_c, 0, 39, 89
1, 388228, Note_on_c, 0, 87, 82
1, 388420, Control_c, 0, 64, 0
1, 388620, Control_c, 0, 64, 127
1, 388656, Note_off_c, 0, 96, 64
1, 388668, Note_off_c, 0, 32, 64
1, 388671, Note_off_c, 0, 44, 64
1, 388690, Note_off_c, 0, 39, 64
1, 388706, Note_off_c, 0, 92, 64
1, 388714, Note_off_c, 0, 84, 64
1, 388730, Note_off_c, 0, 87, 64
1, 388958, Control_c, 0, 64, 0
1, 389542, Note_on_c, 0, 60, 95
1, 389544, Note_on_c, 0, 55, 100
1, 389546, Note_on_c, 0, 52, 111
1, 389548, Note_on_c, 0, 64, 105
1, 389548, Note_on_c, 0, 48, 113
1, 389552, Note_on_c, 0, 36, 113
1, 389554, Note_on_c, 0, 43, 104
1, 389588, Note_off_c, 0, 43, 64
1, 389620, Note_off_c, 0, 60, 64
1, 389628, Note_off_c, 0, 52, 64
1, 389631, Note_off_c, 0, 48, 64
1, 389635, Note_off_c, 0, 55, 64
1, 389648, Note_off_c, 0, 64, 64
1, 389652, Note_off_c, 0, 36, 64
1, 389670, Note_on_c, 0, 55, 100
1, 389678, Note_on_c, 0, 48, 94
1, 389680, Note_on_c, 0, 60, 95
1, 389684, Note_on_c, 0, 52, 100
1, 389684, Note_on_c, 0, 43, 83
1, 389687, Note_on_c, 0, 64, 59
1, 389690, Note_on_c, 0, 36, 89
1, 389726, Control_c, 0, 64, 127
1, 389732, Note_off_c, 0, 36, 64
1, 389734, Note_off_c, 0, 64, 64
1, 389758, Note_off_c, 0, 60, 64
1, 389758, Note_off_c, 0, 52, 64
1, 389761, Note_off_c, 0, 55, 64
1, 389764, Note_off_c, 0, 48, 64
1, 389768, Note_off_c, 0, 43, 64
1, 389810, Note_on_c, 0, 60, 95
1, 389814, Note_on_c, 0, 48, 101
1, 389816, Note_on_c, 0, 64, 92
1, 389820, Note_on_c, 0, 43, 104
1, 389820, Note_on_c, 0, 36, 92
1, 389822, Note_on_c, 0, 52, 88
1, 389830, Note_on_c, 0, 55, 81
1, 389894, Note_off_c, 0, 48, 64
1, 389894, Note_off_c, 0, 36, 64
1, 389904, Note_off_c, 0, 43, 64
1, 389926, Note_off_c, 0, 52, 64
1, 389966, Note_off_c, 0, 64, 64
1, 389968, Note_off_c, 0, 60, 64
1, 389986, Note_off_c, 0, 55, 64
1, 390034, Control_c, 0, 64, 0
1, 390132, Note_on_c, 0, 55, 97
1, 390134, Note_on_c, 0, 64, 106
1, 390134, Note_on_c, 0, 48, 111
1, 390134, Note_on_c, 0, 52, 113
1, 390136, Note_on_c, 0, 60, 92
1, 390136, Note_on_c, 0, 43, 102
1, 390136, Note_on_c, 0, 36, 110
1, 390174, Note_off_c, 0, 43, 64
1, 390190, Note_off_c, 0, 36, 64
1, 390218, Control_c, 0, 64, 127
1, 390230, Note_off_c, 0, 48, 64
1, 390258, Note_off_c, 0, 52, 64
1, 390268, Note_off_c, 0, 64, 64
1, 390320, Note_off_c, 0, 55, 64
1, 390344, Note_off_c, 0, 60, 64
1, 390372, Control_c, 0, 64, 0
1, 390504, Note_on_c, 0, 55, 104
1, 390506, Note_on_c, 0, 64, 109
1, 390506, Note_on_c, 0, 36, 106
1, 390506, Note_on_c, 0, 60, 98
1, 390508, Note_on_c, 0, 52, 117
1, 390508, Note_on_c, 0, 43, 105
1, 390510, Note_on_c, 0, 48, 111
1, 390544, Note_off_c, 0, 43, 64
1, 390564, Note_off_c, 0, 36, 64
1, 390572, Note_off_c, 0, 48, 64
1, 390616, Control_c, 0, 64, 127
1, 390650, Note_off_c, 0, 52, 64
1, 390672, Note_off_c, 0, 64, 64
1, 390726, Note_off_c, 0, 55, 64
1, 390768, Note_off_c, 0, 60, 64
1, 390986, Control_c, 0, 64, 0
1, 391240, Note_on_c, 0, 64, 110
1, 391242, Note_on_c, 0, 60, 100
1, 391242, Note_on_c, 0, 55, 106
1, 391242, Note_on_c, 0, 36, 104
1, 391244, Note_on_c, 0, 52, 117
1, 391248, Note_on_c, 0, 43, 101
1, 391248, Note_on_c, 0, 48, 103
1, 391292, Note_off_c, 0, 36, 64
1, 391295, Note_off_c, 0, 43, 64
1, 391314, Note_off_c, 0, 48, 64
1, 391382, Note_off_c, 0, 52, 64
1, 391385, Control_c, 0, 64, 127
1, 391396, Note_off_c, 0, 64, 64
1, 391474, Note_off_c, 0, 55, 64
1, 391502, Note_off_c, 0, 60, 64
1, 391770, Control_c, 0, 64, 0
1, 392018, Note_on_c, 0, 61, 95
1, 392020, Note_on_c, 0, 51, 110
1, 392022, Note_on_c, 0, 63, 103
1, 392026, Note_on_c, 0, 55, 101
1, 392028, Note_on_c, 0, 39, 108
1, 392034, Note_on_c, 0, 46, 97
1, 392126, Note_off_c, 0, 39, 64
1, 392130, Note_off_c, 0, 46, 64
1, 392182, Note_off_c, 0, 51, 64
1, 392184, Control_c, 0, 64, 127
1, 392258, Note_off_c, 0, 55, 64
1, 392364, Note_off_c, 0, 63, 64
1, 392378, Note_off_c, 0, 61, 64
1, 392676, Control_c, 0, 64, 0
1, 393094, Note_on_c, 0, 68, 103
1, 393097, Note_on_c, 0, 56, 110
1, 393100, Note_on_c, 0, 32, 99
1, 393100, Note_on_c, 0, 44, 100
1, 393102, Note_on_c, 0, 60, 107
1, 393460, Control_c, 0, 64, 127
1, 393506, Note_off_c, 0, 56, 64
1, 393518, Note_off_c, 0, 44, 64
1, 393584, Note_off_c, 0, 32, 64
1, 393662, Note_off_c, 0, 60, 64
1, 393708, Note_off_c, 0, 68, 64
1, 394844, Control_c, 0, 64, 0
1, 395520, Control_c, 0, 64, 0
1, 397440, Control_c, 0, 64, 0
1, 397440, End_track
0, 0, End_of_file
