0, 0, Header, 1, 2, 480
1, 0, Start_track
1, 0, Key_signature, 0, "major"
1, 0, SMPTE_offset, 96, 0, 0, 0, 0
1, 0, Tempo, 500000
1, 0, Time_signature, 4, 2, 24, 8
1, 0, End_track
2, 0, Start_track
2, 0, Control_c, 0, 64, 127
2, 0, Note_on_c, 0, 70, 92
2, 94, Note_on_c, 0, 70, 0
2, 664, Note_on_c, 0, 70, 81
2, 714, Note_on_c, 0, 70, 0
2, 788, Note_on_c, 0, 70, 72
2, 866, Note_on_c, 0, 70, 0
2, 880, Control_c, 0, 64, 0
2, 914, Note_on_c, 0, 70, 99
2, 1152, Note_on_c, 0, 70, 0
2, 1158, Control_c, 0, 64, 127
2, 1674, Note_on_c, 0, 70, 76
2, 1724, Note_on_c, 0, 70, 0
2, 1800, Note_on_c, 0, 70, 65
2, 1832, Control_c, 0, 64, 0
2, 1856, Note_on_c, 0, 70, 0
2, 1936, Note_on_c, 0, 70, 75
2, 2026, Note_on_c, 0, 70, 0
2, 2048, Control_c, 0, 64, 127
2, 2110, Control_c, 0, 64, 0
2, 2244, Note_on_c, 0, 70, 75
2, 2298, Note_on_c, 0, 70, 0
2, 2370, Note_on_c, 0, 70, 62
2, 2418, Note_on_c, 0, 70, 0
2, 2478, Control_c, 0, 64, 127
2, 2514, Note_on_c, 0, 70, 55
2, 2540, Control_c, 0, 64, 0
2, 2608, Note_on_c, 0, 70, 0
2, 2796, Note_on_c, 0, 70, 65
2, 2846, Note_on_c, 0, 70, 0
2, 2916, Note_on_c, 0, 70, 55
2, 2968, Note_on_c, 0, 70, 0
2, 3054, Note_on_c, 0, 70, 54
2, 3180, Note_on_c, 0, 70, 0
2, 3364, Note_on_c, 0, 70, 41
2, 3418, Note_on_c, 0, 70, 0
2, 3480, Note_on_c, 0, 70, 52
2, 3536, Note_on_c, 0, 70, 0
2, 3620, Note_on_c, 0, 70, 45
2, 3632, Note_on_c, 0, 46, 41
2, 3686, Note_on_c, 0, 46, 0
2, 3708, Control_c, 0, 64, 127
2, 3712, Note_on_c, 0, 70, 0
2, 3846, Control_c, 0, 64, 0
2, 3926, Note_on_c, 0, 68, 49
2, 3929, Note_on_c, 0, 58, 31
2, 3936, Note_on_c, 0, 74, 62
2, 3948, Note_on_c, 0, 65, 44
2, 3993, Note_on_c, 0, 68, 0
2, 4002, Note_on_c, 0, 58, 0
2, 4002, Note_on_c, 0, 65, 0
2, 4054, Note_on_c, 0, 75, 59
2, 4060, Note_on_c, 0, 74, 0
2, 4178, Note_on_c, 0, 68, 55
2, 4178, Note_on_c, 0, 58, 46
2, 4181, Note_on_c, 0, 77, 63
2, 4197, Note_on_c, 0, 75, 0
2, 4202, Note_on_c, 0, 74, 47
2, 4205, Note_on_c, 0, 65, 41
2, 4226, Note_on_c, 0, 68, 0
2, 4242, Note_on_c, 0, 58, 0
2, 4254, Note_on_c, 0, 65, 0
2, 4258, Note_on_c, 0, 74, 0
2, 4390, Note_on_c, 0, 77, 0
2, 4422, Note_on_c, 0, 70, 52
2, 4450, Note_on_c, 0, 51, 54
2, 4496, Note_on_c, 0, 70, 0
2, 4498, Note_on_c, 0, 51, 0
2, 4538, Control_c, 0, 64, 127
2, 4614, Control_c, 0, 64, 0
2, 4710, Note_on_c, 0, 75, 57
2, 4720, Note_on_c, 0, 58, 48
2, 4724, Note_on_c, 0, 67, 52
2, 4730, Note_on_c, 0, 63, 47
2, 4778, Note_on_c, 0, 58, 0
2, 4778, Note_on_c, 0, 63, 0
2, 4781, Note_on_c, 0, 67, 0
2, 4806, Note_on_c, 0, 75, 0
2, 4824, Note_on_c, 0, 77, 71
2, 4948, Note_on_c, 0, 75, 67
2, 4951, Note_on_c, 0, 79, 94
2, 4962, Note_on_c, 0, 67, 66
2, 4968, Note_on_c, 0, 58, 58
2, 4978, Note_on_c, 0, 63, 51
2, 4984, Note_on_c, 0, 77, 0
2, 5012, Note_on_c, 0, 67, 0
2, 5030, Note_on_c, 0, 63, 0
2, 5044, Note_on_c, 0, 58, 0
2, 5094, Note_on_c, 0, 75, 0
2, 5198, Note_on_c, 0, 79, 0
2, 5204, Note_on_c, 0, 70, 71
2, 5212, Note_on_c, 0, 50, 80
2, 5254, Note_on_c, 0, 50, 0
2, 5290, Control_c, 0, 64, 127
2, 5324, Note_on_c, 0, 70, 0
2, 5368, Control_c, 0, 64, 0
2, 5466, Note_on_c, 0, 68, 65
2, 5478, Note_on_c, 0, 77, 81
2, 5478, Note_on_c, 0, 58, 48
2, 5478, Note_on_c, 0, 65, 59
2, 5530, Note_on_c, 0, 68, 0
2, 5550, Note_on_c, 0, 65, 0
2, 5558, Note_on_c, 0, 58, 0
2, 5572, Note_on_c, 0, 79, 94
2, 5608, Note_on_c, 0, 77, 0
2, 5698, Note_on_c, 0, 68, 81
2, 5698, Note_on_c, 0, 77, 68
2, 5701, Note_on_c, 0, 58, 67
2, 5704, Note_on_c, 0, 79, 0
2, 5706, Note_on_c, 0, 80, 91
2, 5710, Note_on_c, 0, 65, 57
2, 5740, Note_on_c, 0, 68, 0
2, 5756, Note_on_c, 0, 65, 0
2, 5770, Note_on_c, 0, 58, 0
2, 5984, Note_on_c, 0, 77, 0
2, 6010, Note_on_c, 0, 73, 76
2, 6014, Note_on_c, 0, 82, 92
2, 6022, Note_on_c, 0, 79, 72
2, 6034, Note_on_c, 0, 51, 61
2, 6056, Note_on_c, 0, 80, 0
2, 6072, Note_on_c, 0, 79, 0
2, 6104, Note_on_c, 0, 51, 0
2, 6166, Control_c, 0, 64, 127
2, 6178, Note_on_c, 0, 79, 26
2, 6260, Note_on_c, 0, 79, 0
2, 6376, Note_on_c, 0, 73, 0
2, 6380, Note_on_c, 0, 67, 66
2, 6396, Note_on_c, 0, 61, 47
2, 6406, Note_on_c, 0, 58, 23
2, 6442, Note_on_c, 0, 67, 0
2, 6452, Note_on_c, 0, 61, 0
2, 6456, Note_on_c, 0, 82, 0
2, 6476, Note_on_c, 0, 58, 0
2, 6706, Note_on_c, 0, 82, 77
2, 6708, Note_on_c, 0, 73, 72
2, 6710, Note_on_c, 0, 52, 86
2, 6712, Note_on_c, 0, 79, 79
2, 6746, Note_on_c, 0, 82, 0
2, 6746, Note_on_c, 0, 73, 0
2, 6754, Note_on_c, 0, 79, 0
2, 6756, Note_on_c, 0, 52, 0
2, 6824, Note_on_c, 0, 82, 67
2, 6828, Note_on_c, 0, 73, 57
2, 6830, Note_on_c, 0, 79, 62
2, 6878, Note_on_c, 0, 79, 0
2, 6880, Note_on_c, 0, 73, 0
2, 6888, Control_c, 0, 64, 0
2, 6904, Note_on_c, 0, 82, 0
2, 6958, Note_on_c, 0, 82, 90
2, 6966, Note_on_c, 0, 73, 68
2, 6969, Note_on_c, 0, 79, 69
2, 6988, Note_on_c, 0, 53, 92
2, 7174, Note_on_c, 0, 53, 0
2, 7196, Control_c, 0, 64, 127
2, 7222, Note_on_c, 0, 79, 0
2, 7248, Note_on_c, 0, 84, 87
2, 7252, Note_on_c, 0, 73, 0
2, 7258, Note_on_c, 0, 65, 63
2, 7264, Note_on_c, 0, 82, 0
2, 7276, Note_on_c, 0, 56, 48
2, 7298, Note_on_c, 0, 65, 0
2, 7328, Note_on_c, 0, 56, 0
2, 7356, Note_on_c, 0, 82, 64
2, 7386, Note_on_c, 0, 84, 0
2, 7410, Control_c, 0, 64, 0
2, 7484, Note_on_c, 0, 80, 82
2, 7487, Note_on_c, 0, 72, 64
2, 7494, Note_on_c, 0, 44, 70
2, 7506, Note_on_c, 0, 82, 0
2, 7544, Note_on_c, 0, 44, 0
2, 7614, Note_on_c, 0, 72, 0
2, 7624, Note_on_c, 0, 80, 0
2, 7760, Note_on_c, 0, 46, 44
2, 7766, Note_on_c, 0, 80, 84
2, 7778, Note_on_c, 0, 71, 79
2, 7814, Note_on_c, 0, 46, 0
2, 7886, Control_c, 0, 64, 127
2, 8000, Note_on_c, 0, 71, 0
2, 8012, Note_on_c, 0, 80, 0
2, 8042, Note_on_c, 0, 82, 60
2, 8044, Note_on_c, 0, 63, 48
2, 8058, Note_on_c, 0, 55, 47
2, 8102, Note_on_c, 0, 63, 0
2, 8116, Note_on_c, 0, 55, 0
2, 8148, Control_c, 0, 64, 0
2, 8160, Note_on_c, 0, 80, 66
2, 8165, Note_on_c, 0, 82, 0
2, 8286, Note_on_c, 0, 70, 55
2, 8290, Note_on_c, 0, 79, 75
2, 8294, Note_on_c, 0, 55, 54
2, 8302, Note_on_c, 0, 80, 0
2, 8302, Note_on_c, 0, 63, 47
2, 8340, Note_on_c, 0, 79, 0
2, 8343, Note_on_c, 0, 55, 0
2, 8354, Note_on_c, 0, 63, 0
2, 8420, Note_on_c, 0, 70, 0
2, 8562, Note_on_c, 0, 79, 81
2, 8564, Note_on_c, 0, 46, 38
2, 8570, Note_on_c, 0, 70, 48
2, 8624, Note_on_c, 0, 46, 0
2, 8624, Control_c, 0, 64, 127
2, 8656, Note_on_c, 0, 70, 0
2, 8702, Note_on_c, 0, 79, 0
2, 8836, Note_on_c, 0, 80, 60
2, 8840, Note_on_c, 0, 62, 39
2, 8842, Note_on_c, 0, 53, 54
2, 8896, Note_on_c, 0, 62, 0
2, 8900, Note_on_c, 0, 53, 0
2, 8958, Note_on_c, 0, 80, 0
2, 8958, Note_on_c, 0, 79, 71
2, 9080, Note_on_c, 0, 79, 0
2, 9080, Note_on_c, 0, 68, 45
2, 9080, Note_on_c, 0, 62, 45
2, 9092, Note_on_c, 0, 77, 54
2, 9106, Note_on_c, 0, 58, 20
2, 9132, Note_on_c, 0, 62, 0
2, 9138, Note_on_c, 0, 77, 0
2, 9146, Control_c, 0, 64, 0
2, 9150, Note_on_c, 0, 68, 0
2, 9178, Note_on_c, 0, 58, 0
2, 9348, Note_on_c, 0, 68, 46
2, 9356, Note_on_c, 0, 77, 59
2, 9372, Note_on_c, 0, 51, 31
2, 9472, Note_on_c, 0, 51, 0
2, 9516, Control_c, 0, 64, 127
2, 9580, Note_on_c, 0, 77, 0
2, 9614, Note_on_c, 0, 79, 56
2, 9626, Note_on_c, 0, 63, 35
2, 9636, Note_on_c, 0, 68, 0
2, 9650, Note_on_c, 0, 58, 19
2, 9690, Note_on_c, 0, 63, 0
2, 9726, Note_on_c, 0, 58, 0
2, 9744, Note_on_c, 0, 79, 0
2, 9748, Note_on_c, 0, 77, 54
2, 9832, Note_on_c, 0, 77, 0
2, 9860, Note_on_c, 0, 75, 50
2, 9888, Note_on_c, 0, 67, 31
2, 9896, Note_on_c, 0, 58, 30
2, 9896, Note_on_c, 0, 63, 42
2, 9948, Note_on_c, 0, 63, 0
2, 9958, Note_on_c, 0, 67, 0
2, 9958, Note_on_c, 0, 58, 0
2, 10052, Note_on_c, 0, 75, 0
2, 10084, Control_c, 0, 64, 0
2, 10190, Note_on_c, 0, 70, 55
2, 10208, Note_on_c, 0, 46, 55
2, 10256, Note_on_c, 0, 46, 0
2, 10268, Control_c, 0, 64, 127
2, 10282, Note_on_c, 0, 70, 0
2, 10438, Control_c, 0, 64, 0
2, 10466, Note_on_c, 0, 74, 69
2, 10469, Note_on_c, 0, 68, 50
2, 10469, Note_on_c, 0, 58, 48
2, 10470, Note_on_c, 0, 65, 35
2, 10520, Note_on_c, 0, 65, 0
2, 10532, Note_on_c, 0, 68, 0
2, 10536, Note_on_c, 0, 58, 0
2, 10567, Note_on_c, 0, 74, 0
2, 10568, Note_on_c, 0, 75, 62
2, 10700, Note_on_c, 0, 77, 71
2, 10700, Note_on_c, 0, 68, 62
2, 10703, Note_on_c, 0, 74, 59
2, 10710, Note_on_c, 0, 58, 47
2, 10712, Note_on_c, 0, 75, 0
2, 10712, Note_on_c, 0, 65, 16
2, 10744, Note_on_c, 0, 68, 0
2, 10772, Note_on_c, 0, 65, 0
2, 10774, Note_on_c, 0, 58, 0
2, 10798, Note_on_c, 0, 74, 0
2, 10916, Note_on_c, 0, 77, 0
2, 10958, Note_on_c, 0, 70, 54
2, 10978, Note_on_c, 0, 51, 56
2, 11024, Note_on_c, 0, 70, 0
2, 11024, Note_on_c, 0, 51, 0
2, 11068, Control_c, 0, 64, 127
2, 11220, Control_c, 0, 64, 0
2, 11222, Note_on_c, 0, 75, 63
2, 11230, Note_on_c, 0, 67, 54
2, 11232, Note_on_c, 0, 58, 39
2, 11240, Note_on_c, 0, 63, 47
2, 11288, Note_on_c, 0, 67, 0
2, 11294, Note_on_c, 0, 58, 0
2, 11294, Note_on_c, 0, 63, 0
2, 11340, Note_on_c, 0, 77, 68
2, 11350, Note_on_c, 0, 75, 0
2, 11458, Note_on_c, 0, 67, 62
2, 11458, Note_on_c, 0, 75, 57
2, 11461, Note_on_c, 0, 58, 56
2, 11464, Note_on_c, 0, 79, 92
2, 11468, Note_on_c, 0, 63, 57
2, 11492, Note_on_c, 0, 77, 0
2, 11506, Note_on_c, 0, 67, 0
2, 11516, Note_on_c, 0, 63, 0
2, 11528, Note_on_c, 0, 58, 0
2, 11580, Note_on_c, 0, 75, 0
2, 11708, Note_on_c, 0, 70, 74
2, 11710, Note_on_c, 0, 79, 0
2, 11732, Note_on_c, 0, 50, 78
2, 11772, Note_on_c, 0, 50, 0
2, 11806, Control_c, 0, 64, 127
2, 11818, Note_on_c, 0, 70, 0
2, 11976, Note_on_c, 0, 77, 82
2, 11979, Note_on_c, 0, 68, 65
2, 11986, Note_on_c, 0, 58, 54
2, 11990, Control_c, 0, 64, 0
2, 11990, Note_on_c, 0, 65, 58
2, 12060, Note_on_c, 0, 68, 0
2, 12064, Note_on_c, 0, 79, 95
2, 12066, Note_on_c, 0, 58, 0
2, 12076, Note_on_c, 0, 65, 0
2, 12112, Note_on_c, 0, 77, 0
2, 12196, Note_on_c, 0, 77, 72
2, 12206, Note_on_c, 0, 80, 93
2, 12206, Note_on_c, 0, 68, 81
2, 12216, Note_on_c, 0, 58, 62
2, 12226, Note_on_c, 0, 65, 70
2, 12236, Note_on_c, 0, 79, 0
2, 12248, Note_on_c, 0, 68, 0
2, 12262, Note_on_c, 0, 65, 0
2, 12280, Note_on_c, 0, 58, 0
2, 12522, Note_on_c, 0, 77, 0
2, 12522, Note_on_c, 0, 73, 78
2, 12528, Note_on_c, 0, 82, 85
2, 12534, Note_on_c, 0, 79, 80
2, 12540, Note_on_c, 0, 51, 76
2, 12572, Note_on_c, 0, 80, 0
2, 12634, Control_c, 0, 64, 127
2, 12766, Note_on_c, 0, 79, 0
2, 12772, Note_on_c, 0, 51, 0
2, 12868, Note_on_c, 0, 82, 0
2, 12918, Note_on_c, 0, 67, 72
2, 12930, Note_on_c, 0, 58, 36
2, 12933, Note_on_c, 0, 61, 43
2, 12982, Note_on_c, 0, 73, 0
2, 13022, Note_on_c, 0, 67, 0
2, 13062, Note_on_c, 0, 61, 0
2, 13082, Note_on_c, 0, 58, 0
2, 13086, Note_on_c, 0, 82, 75
2, 13088, Note_on_c, 0, 79, 85
2, 13256, Note_on_c, 0, 79, 0
2, 13266, Note_on_c, 0, 73, 83
2, 13276, Note_on_c, 0, 52, 85
2, 13336, Note_on_c, 0, 82, 0
2, 13396, Note_on_c, 0, 82, 75
2, 13408, Note_on_c, 0, 79, 85
2, 13422, Note_on_c, 0, 52, 0
2, 13448, Note_on_c, 0, 73, 0
2, 13510, Control_c, 0, 64, 0
2, 13556, Note_on_c, 0, 73, 83
2, 13574, Note_on_c, 0, 53, 91
2, 13582, Note_on_c, 0, 79, 0
2, 13586, Note_on_c, 0, 82, 0
2, 13680, Note_on_c, 0, 82, 69
2, 13748, Note_on_c, 0, 53, 0
2, 13772, Control_c, 0, 64, 127
2, 13818, Note_on_c, 0, 84, 86
2, 13828, Note_on_c, 0, 65, 64
2, 13838, Note_on_c, 0, 82, 0
2, 13841, Note_on_c, 0, 56, 53
2, 13864, Control_c, 0, 64, 0
2, 13868, Note_on_c, 0, 65, 0
2, 13896, Note_on_c, 0, 56, 0
2, 13932, Note_on_c, 0, 82, 64
2, 13970, Note_on_c, 0, 84, 0
2, 14022, Note_on_c, 0, 73, 0
2, 14074, Note_on_c, 0, 80, 77
2, 14082, Note_on_c, 0, 72, 55
2, 14088, Note_on_c, 0, 44, 72
2, 14108, Note_on_c, 0, 82, 0
2, 14156, Note_on_c, 0, 44, 0
2, 14288, Note_on_c, 0, 80, 0
2, 14294, Note_on_c, 0, 72, 0
2, 14356, Note_on_c, 0, 46, 50
2, 14366, Note_on_c, 0, 71, 83
2, 14404, Note_on_c, 0, 46, 0
2, 14448, Control_c, 0, 64, 127
2, 14502, Note_on_c, 0, 80, 60
2, 14624, Note_on_c, 0, 80, 0
2, 14630, Note_on_c, 0, 63, 39
2, 14640, Note_on_c, 0, 82, 56
2, 14666, Note_on_c, 0, 55, 16
2, 14688, Note_on_c, 0, 63, 0
2, 14720, Note_on_c, 0, 71, 0
2, 14724, Note_on_c, 0, 55, 0
2, 14740, Control_c, 0, 64, 0
2, 14758, Note_on_c, 0, 80, 52
2, 14794, Note_on_c, 0, 82, 0
2, 14878, Note_on_c, 0, 70, 50
2, 14892, Note_on_c, 0, 80, 0
2, 14894, Note_on_c, 0, 63, 55
2, 14896, Note_on_c, 0, 79, 72
2, 14902, Note_on_c, 0, 55, 52
2, 14908, Control_c, 0, 64, 127
2, 14942, Note_on_c, 0, 63, 0
2, 14952, Note_on_c, 0, 55, 0
2, 14990, Note_on_c, 0, 79, 0
2, 15052, Note_on_c, 0, 70, 0
2, 15092, Control_c, 0, 64, 0
2, 15148, Note_on_c, 0, 46, 48
2, 15168, Note_on_c, 0, 70, 42
2, 15206, Note_on_c, 0, 46, 0
2, 15292, Control_c, 0, 64, 127
2, 15302, Note_on_c, 0, 79, 61
2, 15384, Control_c, 0, 64, 0
2, 15386, Note_on_c, 0, 79, 0
2, 15410, Note_on_c, 0, 62, 53
2, 15416, Note_on_c, 0, 53, 74
2, 15440, Note_on_c, 0, 80, 51
2, 15460, Note_on_c, 0, 62, 0
2, 15462, Note_on_c, 0, 53, 0
2, 15554, Note_on_c, 0, 70, 0
2, 15558, Note_on_c, 0, 79, 59
2, 15572, Note_on_c, 0, 80, 0
2, 15684, Note_on_c, 0, 79, 0
2, 15687, Note_on_c, 0, 62, 46
2, 15687, Note_on_c, 0, 68, 42
2, 15706, Note_on_c, 0, 77, 55
2, 15709, Note_on_c, 0, 58, 29
2, 15744, Note_on_c, 0, 62, 0
2, 15774, Note_on_c, 0, 58, 0
2, 15860, Control_c, 0, 64, 127
2, 15890, Note_on_c, 0, 68, 0
2, 16004, Note_on_c, 0, 77, 0
2, 16014, Control_c, 0, 64, 0
2, 16074, Note_on_c, 0, 75, 36
2, 16076, Note_on_c, 0, 67, 31
2, 16082, Note_on_c, 0, 63, 25
2, 16106, Note_on_c, 0, 51, 21
2, 16122, Note_on_c, 0, 58, 17
2, 16276, Control_c, 0, 64, 127
2, 16306, Note_on_c, 0, 63, 0
2, 16320, Note_on_c, 0, 75, 0
2, 16322, Note_on_c, 0, 51, 0
2, 16374, Note_on_c, 0, 58, 0
2, 16526, Note_on_c, 0, 70, 43
2, 16556, Note_on_c, 0, 67, 0
2, 16620, Note_on_c, 0, 70, 0
2, 16688, Note_on_c, 0, 70, 52
2, 16690, Control_c, 0, 64, 0
2, 16738, Note_on_c, 0, 70, 0
2, 16786, Note_on_c, 0, 70, 68
2, 16836, Note_on_c, 0, 70, 0
2, 16892, Note_on_c, 0, 70, 68
2, 16958, Note_on_c, 0, 70, 0
2, 16982, Control_c, 0, 64, 127
2, 17016, Note_on_c, 0, 70, 71
2, 17028, Note_on_c, 0, 46, 59
2, 17072, Note_on_c, 0, 46, 0
2, 17076, Control_c, 0, 64, 0
2, 17122, Note_on_c, 0, 70, 0
2, 17294, Note_on_c, 0, 74, 63
2, 17294, Note_on_c, 0, 68, 54
2, 17296, Note_on_c, 0, 65, 15
2, 17310, Note_on_c, 0, 58, 41
2, 17320, Control_c, 0, 64, 127
2, 17354, Note_on_c, 0, 68, 0
2, 17364, Note_on_c, 0, 65, 0
2, 17382, Note_on_c, 0, 58, 0
2, 17398, Note_on_c, 0, 75, 61
2, 17402, Note_on_c, 0, 74, 0
2, 17490, Control_c, 0, 64, 0
2, 17520, Note_on_c, 0, 77, 75
2, 17524, Note_on_c, 0, 75, 0
2, 17524, Note_on_c, 0, 68, 63
2, 17524, Note_on_c, 0, 74, 55
2, 17530, Note_on_c, 0, 58, 47
2, 17540, Note_on_c, 0, 65, 28
2, 17564, Note_on_c, 0, 68, 0
2, 17584, Note_on_c, 0, 74, 0
2, 17584, Note_on_c, 0, 58, 0
2, 17596, Note_on_c, 0, 65, 0
2, 17720, Note_on_c, 0, 77, 0
2, 17778, Note_on_c, 0, 70, 47
2, 17781, Note_on_c, 0, 51, 72
2, 17822, Note_on_c, 0, 51, 0
2, 17836, Note_on_c, 0, 70, 0
2, 17844, Control_c, 0, 64, 127
2, 17874, Control_c, 0, 64, 0
2, 18044, Note_on_c, 0, 75, 55
2, 18052, Note_on_c, 0, 67, 50
2, 18058, Note_on_c, 0, 58, 38
2, 18066, Note_on_c, 0, 63, 36
2, 18108, Note_on_c, 0, 67, 0
2, 18122, Note_on_c, 0, 58, 0
2, 18122, Note_on_c, 0, 63, 0
2, 18156, Note_on_c, 0, 75, 0
2, 18164, Note_on_c, 0, 77, 63
2, 18284, Note_on_c, 0, 77, 0
2, 18284, Note_on_c, 0, 67, 54
2, 18284, Note_on_c, 0, 79, 82
2, 18287, Note_on_c, 0, 58, 44
2, 18287, Note_on_c, 0, 75, 44
2, 18294, Note_on_c, 0, 63, 46
2, 18336, Note_on_c, 0, 67, 0
2, 18342, Note_on_c, 0, 75, 0
2, 18344, Note_on_c, 0, 63, 0
2, 18346, Note_on_c, 0, 58, 0
2, 18512, Note_on_c, 0, 79, 0
2, 18518, Note_on_c, 0, 70, 53
2, 18542, Note_on_c, 0, 50, 72
2, 18586, Note_on_c, 0, 50, 0
2, 18596, Control_c, 0, 64, 127
2, 18602, Note_on_c, 0, 70, 0
2, 18688, Control_c, 0, 64, 0
2, 18780, Note_on_c, 0, 68, 54
2, 18782, Note_on_c, 0, 77, 83
2, 18792, Note_on_c, 0, 65, 52
2, 18792, Note_on_c, 0, 58, 45
2, 18840, Note_on_c, 0, 68, 0
2, 18860, Note_on_c, 0, 58, 0
2, 18863, Note_on_c, 0, 65, 0
2, 18872, Note_on_c, 0, 79, 92
2, 18916, Note_on_c, 0, 77, 0
2, 19004, Note_on_c, 0, 77, 62
2, 19006, Note_on_c, 0, 79, 0
2, 19006, Note_on_c, 0, 68, 72
2, 19008, Note_on_c, 0, 80, 92
2, 19018, Note_on_c, 0, 58, 51
2, 19022, Note_on_c, 0, 65, 53
2, 19048, Note_on_c, 0, 68, 0
2, 19064, Note_on_c, 0, 65, 0
2, 19076, Note_on_c, 0, 58, 0
2, 19282, Note_on_c, 0, 77, 0
2, 19304, Note_on_c, 0, 82, 88
2, 19308, Note_on_c, 0, 73, 68
2, 19310, Note_on_c, 0, 79, 74
2, 19324, Note_on_c, 0, 51, 61
2, 19364, Note_on_c, 0, 80, 0
2, 19376, Note_on_c, 0, 79, 0
2, 19396, Control_c, 0, 64, 127
2, 19468, Note_on_c, 0, 51, 0
2, 19630, Note_on_c, 0, 67, 55
2, 19630, Note_on_c, 0, 58, 39
2, 19648, Note_on_c, 0, 73, 0
2, 19656, Note_on_c, 0, 61, 36
2, 19696, Note_on_c, 0, 67, 0
2, 19710, Note_on_c, 0, 58, 0
2, 19718, Note_on_c, 0, 61, 0
2, 19738, Note_on_c, 0, 82, 0
2, 19952, Note_on_c, 0, 82, 82
2, 19958, Note_on_c, 0, 73, 77
2, 19964, Note_on_c, 0, 52, 68
2, 19970, Note_on_c, 0, 79, 66
2, 19984, Note_on_c, 0, 82, 0
2, 19996, Note_on_c, 0, 73, 0
2, 20016, Note_on_c, 0, 52, 0
2, 20018, Note_on_c, 0, 79, 0
2, 20064, Note_on_c, 0, 82, 31
2, 20067, Note_on_c, 0, 73, 48
2, 20070, Note_on_c, 0, 79, 91
2, 20112, Note_on_c, 0, 79, 0
2, 20126, Note_on_c, 0, 73, 0
2, 20174, Note_on_c, 0, 82, 0
2, 20178, Control_c, 0, 64, 0
2, 20218, Note_on_c, 0, 73, 80
2, 20218, Note_on_c, 0, 82, 100
2, 20240, Note_on_c, 0, 79, 69
2, 20243, Note_on_c, 0, 53, 86
2, 20406, Note_on_c, 0, 53, 0
2, 20440, Control_c, 0, 64, 127
2, 20482, Note_on_c, 0, 79, 0
2, 20504, Note_on_c, 0, 84, 85
2, 20508, Note_on_c, 0, 82, 0
2, 20510, Note_on_c, 0, 65, 47
2, 20518, Note_on_c, 0, 56, 43
2, 20560, Note_on_c, 0, 65, 0
2, 20570, Note_on_c, 0, 56, 0
2, 20598, Note_on_c, 0, 73, 0
2, 20618, Note_on_c, 0, 82, 70
2, 20650, Note_on_c, 0, 84, 0
2, 20732, Note_on_c, 0, 80, 84
2, 20736, Note_on_c, 0, 44, 72
2, 20738, Note_on_c, 0, 72, 69
2, 20770, Note_on_c, 0, 82, 0
2, 20788, Note_on_c, 0, 44, 0
2, 20804, Note_on_c, 0, 72, 0
2, 20834, Note_on_c, 0, 80, 0
2, 20916, Control_c, 0, 64, 0
2, 21010, Note_on_c, 0, 46, 44
2, 21010, Note_on_c, 0, 80, 80
2, 21020, Note_on_c, 0, 71, 78
2, 21062, Note_on_c, 0, 46, 0
2, 21146, Control_c, 0, 64, 127
2, 21260, Note_on_c, 0, 80, 0
2, 21290, Note_on_c, 0, 63, 41
2, 21292, Note_on_c, 0, 82, 55
2, 21310, Note_on_c, 0, 55, 39
2, 21330, Note_on_c, 0, 71, 0
2, 21348, Note_on_c, 0, 63, 0
2, 21372, Note_on_c, 0, 55, 0
2, 21412, Note_on_c, 0, 80, 66
2, 21440, Note_on_c, 0, 82, 0
2, 21530, Note_on_c, 0, 79, 79
2, 21533, Note_on_c, 0, 70, 53
2, 21536, Note_on_c, 0, 63, 51
2, 21540, Note_on_c, 0, 80, 0
2, 21544, Note_on_c, 0, 55, 54
2, 21582, Note_on_c, 0, 79, 0
2, 21582, Note_on_c, 0, 63, 0
2, 21592, Note_on_c, 0, 55, 0
2, 21626, Note_on_c, 0, 70, 0
2, 21684, Control_c, 0, 64, 0
2, 21810, Note_on_c, 0, 46, 48
2, 21814, Note_on_c, 0, 79, 78
2, 21816, Note_on_c, 0, 70, 50
2, 21870, Note_on_c, 0, 46, 0
2, 21946, Control_c, 0, 64, 127
2, 21970, Note_on_c, 0, 79, 0
2, 22080, Note_on_c, 0, 80, 52
2, 22086, Note_on_c, 0, 62, 43
2, 22110, Note_on_c, 0, 70, 0
2, 22110, Note_on_c, 0, 53, 49
2, 22144, Note_on_c, 0, 62, 0
2, 22172, Note_on_c, 0, 53, 0
2, 22194, Note_on_c, 0, 79, 69
2, 22214, Note_on_c, 0, 80, 0
2, 22306, Note_on_c, 0, 68, 38
2, 22318, Note_on_c, 0, 79, 0
2, 22320, Note_on_c, 0, 58, 19
2, 22321, Note_on_c, 0, 62, 41
2, 22338, Note_on_c, 0, 77, 37
2, 22378, Note_on_c, 0, 62, 0
2, 22394, Note_on_c, 0, 77, 0
2, 22396, Note_on_c, 0, 58, 0
2, 22422, Note_on_c, 0, 68, 0
2, 22546, Control_c, 0, 64, 0
2, 22600, Note_on_c, 0, 68, 44
2, 22602, Note_on_c, 0, 77, 50
2, 22628, Note_on_c, 0, 51, 28
2, 22808, Note_on_c, 0, 51, 0
2, 22822, Control_c, 0, 64, 127
2, 22854, Note_on_c, 0, 77, 0
2, 22894, Note_on_c, 0, 79, 54
2, 22894, Note_on_c, 0, 63, 29
2, 22897, Note_on_c, 0, 58, 23
2, 22962, Note_on_c, 0, 63, 0
2, 22976, Note_on_c, 0, 58, 0
2, 22998, Note_on_c, 0, 68, 0
2, 23018, Note_on_c, 0, 79, 0
2, 23024, Note_on_c, 0, 77, 48
2, 23118, Note_on_c, 0, 77, 0
2, 23144, Note_on_c, 0, 75, 40
2, 23172, Note_on_c, 0, 67, 20
2, 23174, Note_on_c, 0, 63, 31
2, 23180, Note_on_c, 0, 58, 15
2, 23230, Note_on_c, 0, 63, 0
2, 23252, Note_on_c, 0, 67, 0
2, 23255, Note_on_c, 0, 58, 0
2, 23344, Control_c, 0, 64, 0
2, 23398, Note_on_c, 0, 75, 0
2, 23434, Note_on_c, 0, 70, 46
2, 23442, Note_on_c, 0, 46, 49
2, 23500, Note_on_c, 0, 46, 0
2, 23510, Note_on_c, 0, 70, 0
2, 23528, Control_c, 0, 64, 127
2, 23712, Note_on_c, 0, 58, 41
2, 23714, Note_on_c, 0, 68, 42
2, 23718, Note_on_c, 0, 74, 54
2, 23724, Note_on_c, 0, 65, 37
2, 23728, Control_c, 0, 64, 0
2, 23774, Note_on_c, 0, 74, 0
2, 23774, Note_on_c, 0, 65, 0
2, 23784, Note_on_c, 0, 68, 0
2, 23788, Note_on_c, 0, 58, 0
2, 23810, Note_on_c, 0, 75, 59
2, 23936, Note_on_c, 0, 75, 0
2, 23938, Note_on_c, 0, 68, 51
2, 23944, Note_on_c, 0, 77, 70
2, 23944, Note_on_c, 0, 74, 54
2, 23945, Note_on_c, 0, 65, 37
2, 23956, Note_on_c, 0, 58, 31
2, 23988, Note_on_c, 0, 68, 0
2, 23995, Note_on_c, 0, 65, 0
2, 24028, Note_on_c, 0, 58, 0
2, 24042, Note_on_c, 0, 74, 0
2, 24173, Note_on_c, 0, 77, 0
2, 24198, Note_on_c, 0, 70, 52
2, 24200, Note_on_c, 0, 51, 65
2, 24244, Note_on_c, 0, 51, 0
2, 24282, Control_c, 0, 64, 127
2, 24288, Note_on_c, 0, 70, 0
2, 24434, Control_c, 0, 64, 0
2, 24462, Note_on_c, 0, 75, 62
2, 24464, Note_on_c, 0, 58, 56
2, 24468, Note_on_c, 0, 67, 57
2, 24476, Note_on_c, 0, 63, 51
2, 24522, Note_on_c, 0, 58, 0
2, 24522, Note_on_c, 0, 67, 0
2, 24525, Note_on_c, 0, 63, 0
2, 24572, Note_on_c, 0, 77, 77
2, 24596, Note_on_c, 0, 75, 0
2, 24684, Note_on_c, 0, 75, 50
2, 24690, Note_on_c, 0, 79, 95
2, 24700, Note_on_c, 0, 67, 62
2, 24708, Note_on_c, 0, 58, 57
2, 24710, Note_on_c, 0, 63, 53
2, 24712, Note_on_c, 0, 77, 0
2, 24748, Note_on_c, 0, 67, 0
2, 24758, Note_on_c, 0, 63, 0
2, 24764, Note_on_c, 0, 58, 0
2, 24852, Note_on_c, 0, 75, 0
2, 24948, Note_on_c, 0, 70, 67
2, 24956, Note_on_c, 0, 50, 85
2, 24968, Note_on_c, 0, 79, 0
2, 24992, Note_on_c, 0, 50, 0
2, 25003, Control_c, 0, 64, 127
2, 25056, Note_on_c, 0, 70, 0
2, 25202, Control_c, 0, 64, 0
2, 25212, Note_on_c, 0, 77, 87
2, 25218, Note_on_c, 0, 68, 65
2, 25224, Note_on_c, 0, 58, 57
2, 25224, Note_on_c, 0, 65, 65
2, 25276, Note_on_c, 0, 68, 0
2, 25284, Note_on_c, 0, 58, 0
2, 25286, Note_on_c, 0, 65, 0
2, 25308, Note_on_c, 0, 79, 95
2, 25340, Note_on_c, 0, 77, 0
2, 25432, Note_on_c, 0, 77, 75
2, 25435, Note_on_c, 0, 80, 97
2, 25440, Note_on_c, 0, 68, 79
2, 25450, Note_on_c, 0, 58, 58
2, 25450, Note_on_c, 0, 65, 63
2, 25480, Note_on_c, 0, 68, 0
2, 25484, Note_on_c, 0, 79, 0
2, 25494, Note_on_c, 0, 65, 0
2, 25508, Note_on_c, 0, 58, 0
2, 25774, Note_on_c, 0, 82, 90
2, 25774, Note_on_c, 0, 79, 90
2, 25774, Note_on_c, 0, 73, 75
2, 25788, Note_on_c, 0, 51, 74
2, 25791, Note_on_c, 0, 77, 0
2, 25842, Note_on_c, 0, 80, 0
2, 25864, Control_c, 0, 64, 127
2, 26038, Note_on_c, 0, 51, 0
2, 26066, Note_on_c, 0, 79, 0
2, 26166, Note_on_c, 0, 67, 84
2, 26174, Note_on_c, 0, 58, 54
2, 26176, Note_on_c, 0, 61, 66
2, 26182, Note_on_c, 0, 82, 0
2, 26242, Note_on_c, 0, 73, 0
2, 26308, Note_on_c, 0, 67, 0
2, 26328, Note_on_c, 0, 82, 82
2, 26336, Note_on_c, 0, 79, 85
2, 26344, Note_on_c, 0, 61, 0
2, 26370, Note_on_c, 0, 58, 0
2, 26516, Note_on_c, 0, 73, 89
2, 26519, Note_on_c, 0, 52, 92
2, 26554, Note_on_c, 0, 79, 0
2, 26582, Note_on_c, 0, 82, 0
2, 26658, Note_on_c, 0, 82, 70
2, 26662, Note_on_c, 0, 79, 79
2, 26694, Note_on_c, 0, 52, 0
2, 26712, Note_on_c, 0, 73, 0
2, 26850, Note_on_c, 0, 73, 86
2, 26854, Note_on_c, 0, 53, 85
2, 26880, Note_on_c, 0, 82, 0
2, 26914, Note_on_c, 0, 79, 0
2, 26924, Control_c, 0, 64, 0
2, 27012, Note_on_c, 0, 82, 82
2, 27080, Note_on_c, 0, 53, 0
2, 27142, Note_on_c, 0, 65, 50
2, 27142, Note_on_c, 0, 56, 42
2, 27152, Note_on_c, 0, 84, 89
2, 27182, Note_on_c, 0, 82, 0
2, 27186, Note_on_c, 0, 65, 0
2, 27186, Control_c, 0, 64, 127
2, 27210, Note_on_c, 0, 56, 0
2, 27276, Note_on_c, 0, 82, 57
2, 27300, Note_on_c, 0, 84, 0
2, 27376, Note_on_c, 0, 73, 0
2, 27406, Note_on_c, 0, 44, 56
2, 27411, Note_on_c, 0, 80, 73
2, 27422, Note_on_c, 0, 82, 0
2, 27436, Note_on_c, 0, 72, 66
2, 27486, Note_on_c, 0, 44, 0
2, 27492, Control_c, 0, 64, 0
2, 27554, Control_c, 0, 64, 127
2, 27616, Note_on_c, 0, 72, 0
2, 27624, Note_on_c, 0, 80, 0
2, 27662, Control_c, 0, 64, 0
2, 27704, Note_on_c, 0, 46, 41
2, 27724, Note_on_c, 0, 71, 77
2, 27760, Note_on_c, 0, 46, 0
2, 27862, Control_c, 0, 64, 127
2, 27862, Note_on_c, 0, 80, 62
2, 27980, Note_on_c, 0, 80, 0
2, 27994, Note_on_c, 0, 63, 38
2, 28002, Note_on_c, 0, 55, 44
2, 28006, Note_on_c, 0, 82, 53
2, 28050, Note_on_c, 0, 63, 0
2, 28058, Note_on_c, 0, 55, 0
2, 28062, Note_on_c, 0, 71, 0
2, 28124, Note_on_c, 0, 80, 64
2, 28154, Note_on_c, 0, 82, 0
2, 28236, Note_on_c, 0, 80, 0
2, 28236, Control_c, 0, 64, 0
2, 28248, Note_on_c, 0, 70, 40
2, 28259, Note_on_c, 0, 79, 64
2, 28270, Note_on_c, 0, 63, 40
2, 28290, Note_on_c, 0, 55, 30
2, 28324, Note_on_c, 0, 63, 0
2, 28360, Note_on_c, 0, 55, 0
2, 28368, Control_c, 0, 64, 127
2, 28378, Note_on_c, 0, 70, 0
2, 28386, Note_on_c, 0, 79, 0
2, 28476, Control_c, 0, 64, 0
2, 28520, Note_on_c, 0, 46, 46
2, 28532, Note_on_c, 0, 70, 41
2, 28578, Note_on_c, 0, 46, 0
2, 28676, Control_c, 0, 64, 127
2, 28682, Note_on_c, 0, 79, 57
2, 28722, Control_c, 0, 64, 0
2, 28760, Note_on_c, 0, 79, 0
2, 28792, Note_on_c, 0, 62, 36
2, 28812, Note_on_c, 0, 80, 53
2, 28814, Note_on_c, 0, 53, 44
2, 28852, Note_on_c, 0, 62, 0
2, 28890, Note_on_c, 0, 53, 0
2, 28930, Note_on_c, 0, 80, 0
2, 28932, Note_on_c, 0, 79, 49
2, 28942, Note_on_c, 0, 70, 0
2, 29016, Note_on_c, 0, 79, 0
2, 29080, Note_on_c, 0, 68, 34
2, 29090, Note_on_c, 0, 62, 34
2, 29094, Note_on_c, 0, 77, 44
2, 29096, Note_on_c, 0, 58, 17
2, 29154, Note_on_c, 0, 62, 0
2, 29190, Note_on_c, 0, 58, 0
2, 29214, Control_c, 0, 64, 127
2, 29256, Note_on_c, 0, 68, 0
2, 29376, Note_on_c, 0, 77, 0
2, 29436, Note_on_c, 0, 75, 40
2, 29456, Note_on_c, 0, 51, 28
2, 29458, Control_c, 0, 64, 0
2, 29468, Note_on_c, 0, 67, 24
2, 29690, Control_c, 0, 64, 127
2, 29704, Note_on_c, 0, 75, 0
2, 29818, Note_on_c, 0, 51, 0
2, 29834, Note_on_c, 0, 67, 0
2, 29838, Note_on_c, 0, 75, 43
2, 29844, Note_on_c, 0, 63, 39
2, 29898, Note_on_c, 0, 75, 0
2, 29901, Note_on_c, 0, 63, 0
2, 29986, Note_on_c, 0, 75, 41
2, 30066, Note_on_c, 0, 75, 0
2, 30134, Note_on_c, 0, 75, 60
2, 30142, Note_on_c, 0, 61, 32
2, 30178, Note_on_c, 0, 75, 0
2, 30178, Note_on_c, 0, 55, 12
2, 30208, Note_on_c, 0, 61, 0
2, 30240, Note_on_c, 0, 55, 0
2, 30268, Note_on_c, 0, 75, 46
2, 30324, Note_on_c, 0, 75, 0
2, 30382, Control_c, 0, 64, 0
2, 30418, Note_on_c, 0, 75, 47
2, 30428, Note_on_c, 0, 44, 43
2, 30474, Note_on_c, 0, 75, 0
2, 30502, Note_on_c, 0, 44, 0
2, 30544, Note_on_c, 0, 75, 54
2, 30596, Note_on_c, 0, 75, 0
2, 30668, Note_on_c, 0, 75, 54
2, 30686, Note_on_c, 0, 60, 41
2, 30692, Note_on_c, 0, 56, 35
2, 30701, Note_on_c, 0, 51, 28
2, 30718, Note_on_c, 0, 75, 0
2, 30748, Note_on_c, 0, 60, 0
2, 30756, Note_on_c, 0, 56, 0
2, 30772, Note_on_c, 0, 51, 0
2, 30784, Note_on_c, 0, 75, 54
2, 30846, Note_on_c, 0, 75, 0
2, 30910, Note_on_c, 0, 75, 65
2, 30920, Note_on_c, 0, 60, 45
2, 30922, Note_on_c, 0, 56, 44
2, 30940, Note_on_c, 0, 51, 42
2, 30958, Note_on_c, 0, 75, 0
2, 30976, Note_on_c, 0, 60, 0
2, 30982, Note_on_c, 0, 56, 0
2, 30998, Note_on_c, 0, 51, 0
2, 31026, Note_on_c, 0, 75, 66
2, 31078, Note_on_c, 0, 75, 0
2, 31164, Note_on_c, 0, 44, 52
2, 31167, Note_on_c, 0, 77, 74
2, 31238, Note_on_c, 0, 44, 0
2, 31272, Control_c, 0, 64, 127
2, 31283, Note_on_c, 0, 77, 0
2, 31286, Note_on_c, 0, 75, 68
2, 31386, Note_on_c, 0, 75, 0
2, 31398, Note_on_c, 0, 72, 66
2, 31412, Note_on_c, 0, 60, 34
2, 31416, Note_on_c, 0, 56, 31
2, 31442, Note_on_c, 0, 51, 10
2, 31472, Control_c, 0, 64, 0
2, 31480, Note_on_c, 0, 60, 0
2, 31482, Note_on_c, 0, 56, 0
2, 31492, Note_on_c, 0, 72, 0
2, 31500, Note_on_c, 0, 51, 0
2, 31518, Note_on_c, 0, 68, 65
2, 31634, Note_on_c, 0, 68, 0
2, 31642, Note_on_c, 0, 63, 69
2, 31644, Note_on_c, 0, 56, 43
2, 31644, Note_on_c, 0, 60, 56
2, 31662, Note_on_c, 0, 51, 32
2, 31696, Note_on_c, 0, 60, 0
2, 31704, Note_on_c, 0, 63, 0
2, 31706, Note_on_c, 0, 56, 0
2, 31726, Note_on_c, 0, 51, 0
2, 31752, Note_on_c, 0, 64, 74
2, 31804, Note_on_c, 0, 64, 0
2, 31866, Note_on_c, 0, 44, 60
2, 31886, Note_on_c, 0, 65, 72
2, 31920, Note_on_c, 0, 44, 0
2, 31924, Note_on_c, 0, 65, 0
2, 31948, Control_c, 0, 64, 127
2, 31992, Note_on_c, 0, 65, 57
2, 32044, Note_on_c, 0, 65, 0
2, 32072, Control_c, 0, 64, 0
2, 32112, Note_on_c, 0, 59, 55
2, 32114, Note_on_c, 0, 56, 50
2, 32116, Note_on_c, 0, 65, 67
2, 32140, Note_on_c, 0, 50, 32
2, 32166, Note_on_c, 0, 59, 0
2, 32178, Note_on_c, 0, 65, 0
2, 32181, Note_on_c, 0, 56, 0
2, 32206, Note_on_c, 0, 50, 0
2, 32250, Note_on_c, 0, 65, 65
2, 32292, Note_on_c, 0, 65, 0
2, 32358, Note_on_c, 0, 59, 62
2, 32358, Note_on_c, 0, 65, 58
2, 32370, Note_on_c, 0, 56, 47
2, 32372, Note_on_c, 0, 50, 57
2, 32400, Note_on_c, 0, 59, 0
2, 32418, Note_on_c, 0, 65, 0
2, 32421, Note_on_c, 0, 50, 0
2, 32424, Note_on_c, 0, 56, 0
2, 32478, Note_on_c, 0, 65, 75
2, 32526, Note_on_c, 0, 65, 0
2, 32594, Note_on_c, 0, 44, 66
2, 32606, Note_on_c, 0, 63, 79
2, 32646, Note_on_c, 0, 44, 0
2, 32716, Control_c, 0, 64, 127
2, 32719, Note_on_c, 0, 63, 0
2, 32728, Note_on_c, 0, 68, 69
2, 32768, Note_on_c, 0, 68, 0
2, 32838, Note_on_c, 0, 60, 49
2, 32841, Note_on_c, 0, 56, 45
2, 32846, Note_on_c, 0, 72, 77
2, 32856, Note_on_c, 0, 51, 33
2, 32870, Control_c, 0, 64, 0
2, 32900, Note_on_c, 0, 60, 0
2, 32910, Note_on_c, 0, 56, 0
2, 32922, Note_on_c, 0, 51, 0
2, 32942, Note_on_c, 0, 72, 0
2, 32956, Note_on_c, 0, 75, 79
2, 33072, Note_on_c, 0, 56, 53
2, 33072, Note_on_c, 0, 60, 53
2, 33075, Note_on_c, 0, 75, 0
2, 33078, Note_on_c, 0, 80, 86
2, 33082, Note_on_c, 0, 51, 54
2, 33134, Note_on_c, 0, 60, 0
2, 33138, Note_on_c, 0, 56, 0
2, 33156, Note_on_c, 0, 51, 0
2, 33190, Note_on_c, 0, 76, 77
2, 33228, Note_on_c, 0, 80, 0
2, 33254, Note_on_c, 0, 76, 0
2, 33318, Note_on_c, 0, 50, 59
2, 33321, Note_on_c, 0, 77, 88
2, 33356, Note_on_c, 0, 77, 0
2, 33362, Control_c, 0, 64, 127
2, 33370, Note_on_c, 0, 50, 0
2, 33432, Note_on_c, 0, 77, 63
2, 33482, Note_on_c, 0, 77, 0
2, 33548, Note_on_c, 0, 77, 79
2, 33550, Note_on_c, 0, 56, 48
2, 33550, Note_on_c, 0, 65, 42
2, 33562, Control_c, 0, 64, 0
2, 33568, Note_on_c, 0, 59, 37
2, 33596, Note_on_c, 0, 77, 0
2, 33608, Note_on_c, 0, 65, 0
2, 33614, Note_on_c, 0, 56, 0
2, 33624, Note_on_c, 0, 59, 0
2, 33652, Note_on_c, 0, 77, 91
2, 33692, Note_on_c, 0, 77, 0
2, 33764, Note_on_c, 0, 65, 59
2, 33770, Note_on_c, 0, 77, 73
2, 33788, Note_on_c, 0, 59, 57
2, 33791, Note_on_c, 0, 56, 38
2, 33808, Note_on_c, 0, 65, 0
2, 33826, Note_on_c, 0, 77, 0
2, 33834, Note_on_c, 0, 59, 0
2, 33858, Note_on_c, 0, 56, 0
2, 33890, Note_on_c, 0, 77, 79
2, 33924, Note_on_c, 0, 77, 0
2, 33998, Note_on_c, 0, 51, 72
2, 34000, Note_on_c, 0, 77, 59
2, 34044, Note_on_c, 0, 51, 0
2, 34068, Control_c, 0, 64, 127
2, 34082, Note_on_c, 0, 79, 88
2, 34098, Note_on_c, 0, 77, 0
2, 34162, Note_on_c, 0, 77, 80
2, 34166, Note_on_c, 0, 79, 0
2, 34200, Note_on_c, 0, 77, 0
2, 34228, Note_on_c, 0, 68, 44
2, 34258, Note_on_c, 0, 63, 40
2, 34266, Note_on_c, 0, 75, 85
2, 34274, Note_on_c, 0, 60, 23
2, 34304, Note_on_c, 0, 68, 0
2, 34312, Note_on_c, 0, 63, 0
2, 34348, Note_on_c, 0, 60, 0
2, 34368, Note_on_c, 0, 75, 0
2, 34380, Note_on_c, 0, 80, 88
2, 34422, Control_c, 0, 64, 0
2, 34488, Note_on_c, 0, 68, 60
2, 34492, Note_on_c, 0, 80, 0
2, 34500, Note_on_c, 0, 84, 98
2, 34508, Note_on_c, 0, 63, 57
2, 34536, Note_on_c, 0, 60, 39
2, 34542, Note_on_c, 0, 68, 0
2, 34554, Note_on_c, 0, 63, 0
2, 34572, Note_on_c, 0, 84, 0
2, 34600, Note_on_c, 0, 60, 0
2, 34798, Note_on_c, 0, 89, 98
2, 34824, Note_on_c, 0, 51, 48
2, 34868, Control_c, 0, 64, 127
2, 34918, Note_on_c, 0, 51, 0
2, 35090, Note_on_c, 0, 87, 70
2, 35110, Note_on_c, 0, 89, 0
2, 35112, Note_on_c, 0, 63, 44
2, 35112, Note_on_c, 0, 61, 41
2, 35114, Note_on_c, 0, 67, 42
2, 35172, Note_on_c, 0, 61, 0
2, 35174, Note_on_c, 0, 63, 0
2, 35178, Note_on_c, 0, 67, 0
2, 35220, Note_on_c, 0, 85, 71
2, 35248, Note_on_c, 0, 87, 0
2, 35264, Note_on_c, 0, 85, 0
2, 35314, Note_on_c, 0, 79, 88
2, 35336, Note_on_c, 0, 61, 42
2, 35344, Note_on_c, 0, 67, 47
2, 35362, Note_on_c, 0, 63, 23
2, 35394, Note_on_c, 0, 61, 0
2, 35406, Note_on_c, 0, 67, 0
2, 35430, Note_on_c, 0, 63, 0
2, 35436, Note_on_c, 0, 79, 0
2, 35512, Control_c, 0, 64, 0
2, 35590, Note_on_c, 0, 56, 38
2, 35598, Note_on_c, 0, 82, 69
2, 35764, Note_on_c, 0, 82, 0
2, 35790, Control_c, 0, 64, 127
2, 35793, Note_on_c, 0, 56, 0
2, 35894, Note_on_c, 0, 68, 31
2, 35924, Note_on_c, 0, 80, 44
2, 35934, Note_on_c, 0, 63, 28
2, 35936, Note_on_c, 0, 60, 18
2, 35994, Note_on_c, 0, 68, 0
2, 35997, Note_on_c, 0, 63, 0
2, 36010, Note_on_c, 0, 60, 0
2, 36012, Note_on_c, 0, 80, 0
2, 36032, Note_on_c, 0, 75, 52
2, 36082, Note_on_c, 0, 75, 0
2, 36148, Note_on_c, 0, 72, 53
2, 36150, Note_on_c, 0, 68, 42
2, 36186, Note_on_c, 0, 63, 29
2, 36200, Note_on_c, 0, 68, 0
2, 36254, Note_on_c, 0, 63, 0
2, 36370, Note_on_c, 0, 72, 0
2, 36396, Note_on_c, 0, 75, 70
2, 36422, Note_on_c, 0, 44, 50
2, 36440, Note_on_c, 0, 75, 0
2, 36482, Control_c, 0, 64, 0
2, 36518, Note_on_c, 0, 75, 56
2, 36534, Note_on_c, 0, 44, 0
2, 36566, Note_on_c, 0, 75, 0
2, 36624, Note_on_c, 0, 75, 75
2, 36660, Note_on_c, 0, 60, 53
2, 36672, Note_on_c, 0, 56, 41
2, 36676, Note_on_c, 0, 51, 42
2, 36704, Note_on_c, 0, 75, 0
2, 36716, Note_on_c, 0, 60, 0
2, 36734, Note_on_c, 0, 56, 0
2, 36740, Note_on_c, 0, 51, 0
2, 36764, Note_on_c, 0, 75, 73
2, 36800, Note_on_c, 0, 75, 0
2, 36866, Note_on_c, 0, 75, 55
2, 36884, Note_on_c, 0, 60, 55
2, 36890, Note_on_c, 0, 56, 47
2, 36896, Note_on_c, 0, 51, 51
2, 36920, Note_on_c, 0, 75, 0
2, 36936, Note_on_c, 0, 60, 0
2, 36944, Note_on_c, 0, 56, 0
2, 36956, Note_on_c, 0, 51, 0
2, 36982, Note_on_c, 0, 75, 71
2, 37044, Note_on_c, 0, 75, 0
2, 37118, Note_on_c, 0, 44, 58
2, 37124, Note_on_c, 0, 77, 74
2, 37194, Note_on_c, 0, 44, 0
2, 37225, Note_on_c, 0, 77, 0
2, 37234, Note_on_c, 0, 75, 70
2, 37250, Control_c, 0, 64, 127
2, 37326, Note_on_c, 0, 75, 0
2, 37340, Note_on_c, 0, 72, 65
2, 37358, Note_on_c, 0, 60, 43
2, 37366, Note_on_c, 0, 56, 35
2, 37372, Control_c, 0, 64, 0
2, 37378, Note_on_c, 0, 51, 28
2, 37420, Note_on_c, 0, 60, 0
2, 37429, Note_on_c, 0, 72, 0
2, 37430, Note_on_c, 0, 56, 0
2, 37448, Note_on_c, 0, 51, 0
2, 37452, Note_on_c, 0, 68, 66
2, 37574, Note_on_c, 0, 63, 70
2, 37582, Note_on_c, 0, 68, 0
2, 37584, Note_on_c, 0, 60, 55
2, 37590, Note_on_c, 0, 56, 47
2, 37614, Note_on_c, 0, 51, 43
2, 37636, Note_on_c, 0, 63, 0
2, 37636, Note_on_c, 0, 60, 0
2, 37650, Note_on_c, 0, 56, 0
2, 37672, Note_on_c, 0, 51, 0
2, 37678, Note_on_c, 0, 64, 74
2, 37738, Note_on_c, 0, 64, 0
2, 37804, Note_on_c, 0, 65, 78
2, 37806, Note_on_c, 0, 44, 64
2, 37840, Note_on_c, 0, 65, 0
2, 37856, Note_on_c, 0, 44, 0
2, 37910, Control_c, 0, 64, 127
2, 37914, Note_on_c, 0, 65, 50
2, 37940, Control_c, 0, 64, 0
2, 37968, Note_on_c, 0, 65, 0
2, 38038, Note_on_c, 0, 65, 70
2, 38041, Note_on_c, 0, 56, 53
2, 38046, Note_on_c, 0, 59, 51
2, 38056, Note_on_c, 0, 50, 44
2, 38092, Note_on_c, 0, 65, 0
2, 38096, Note_on_c, 0, 59, 0
2, 38110, Note_on_c, 0, 56, 0
2, 38120, Note_on_c, 0, 50, 0
2, 38152, Note_on_c, 0, 65, 76
2, 38194, Note_on_c, 0, 65, 0
2, 38276, Note_on_c, 0, 65, 53
2, 38280, Note_on_c, 0, 59, 55
2, 38286, Note_on_c, 0, 50, 61
2, 38288, Note_on_c, 0, 56, 55
2, 38324, Note_on_c, 0, 59, 0
2, 38332, Note_on_c, 0, 65, 0
2, 38334, Note_on_c, 0, 56, 0
2, 38340, Note_on_c, 0, 50, 0
2, 38396, Note_on_c, 0, 65, 85
2, 38438, Note_on_c, 0, 65, 0
2, 38510, Note_on_c, 0, 44, 72
2, 38513, Note_on_c, 0, 63, 84
2, 38564, Note_on_c, 0, 44, 0
2, 38616, Control_c, 0, 64, 127
2, 38624, Note_on_c, 0, 68, 73
2, 38632, Note_on_c, 0, 63, 0
2, 38664, Note_on_c, 0, 68, 0
2, 38724, Control_c, 0, 64, 0
2, 38734, Note_on_c, 0, 72, 83
2, 38737, Note_on_c, 0, 60, 50
2, 38742, Note_on_c, 0, 56, 47
2, 38758, Note_on_c, 0, 51, 27
2, 38796, Note_on_c, 0, 72, 0
2, 38796, Note_on_c, 0, 60, 0
2, 38799, Note_on_c, 0, 56, 0
2, 38828, Note_on_c, 0, 51, 0
2, 38846, Note_on_c, 0, 75, 83
2, 38946, Note_on_c, 0, 56, 62
2, 38954, Note_on_c, 0, 80, 92
2, 38962, Note_on_c, 0, 51, 27
2, 38962, Note_on_c, 0, 60, 44
2, 38978, Note_on_c, 0, 75, 0
2, 38994, Note_on_c, 0, 56, 0
2, 39028, Note_on_c, 0, 60, 0
2, 39033, Note_on_c, 0, 51, 0
2, 39052, Note_on_c, 0, 76, 81
2, 39098, Note_on_c, 0, 76, 0
2, 39101, Note_on_c, 0, 80, 0
2, 39168, Note_on_c, 0, 50, 58
2, 39172, Note_on_c, 0, 77, 93
2, 39210, Note_on_c, 0, 77, 0
2, 39216, Note_on_c, 0, 50, 0
2, 39216, Control_c, 0, 64, 127
2, 39296, Note_on_c, 0, 77, 62
2, 39340, Note_on_c, 0, 77, 0
2, 39400, Control_c, 0, 64, 0
2, 39402, Note_on_c, 0, 77, 73
2, 39404, Note_on_c, 0, 65, 40
2, 39406, Note_on_c, 0, 56, 52
2, 39428, Note_on_c, 0, 59, 42
2, 39452, Note_on_c, 0, 77, 0
2, 39460, Note_on_c, 0, 65, 0
2, 39472, Note_on_c, 0, 56, 0
2, 39480, Note_on_c, 0, 59, 0
2, 39508, Note_on_c, 0, 77, 85
2, 39548, Note_on_c, 0, 77, 0
2, 39620, Note_on_c, 0, 65, 54
2, 39622, Note_on_c, 0, 77, 69
2, 39652, Note_on_c, 0, 56, 35
2, 39652, Note_on_c, 0, 59, 52
2, 39666, Note_on_c, 0, 65, 0
2, 39674, Note_on_c, 0, 77, 0
2, 39700, Note_on_c, 0, 59, 0
2, 39712, Note_on_c, 0, 56, 0
2, 39736, Note_on_c, 0, 77, 80
2, 39776, Note_on_c, 0, 77, 0
2, 39848, Note_on_c, 0, 51, 66
2, 39851, Note_on_c, 0, 77, 73
2, 39896, Note_on_c, 0, 51, 0
2, 39920, Note_on_c, 0, 77, 0
2, 39923, Control_c, 0, 64, 127
2, 39934, Note_on_c, 0, 79, 85
2, 39998, Note_on_c, 0, 79, 0
2, 40020, Note_on_c, 0, 77, 55
2, 40060, Note_on_c, 0, 77, 0
2, 40098, Note_on_c, 0, 68, 35
2, 40114, Note_on_c, 0, 75, 83
2, 40118, Note_on_c, 0, 63, 40
2, 40138, Note_on_c, 0, 60, 25
2, 40164, Note_on_c, 0, 68, 0
2, 40172, Note_on_c, 0, 63, 0
2, 40212, Note_on_c, 0, 60, 0
2, 40220, Control_c, 0, 64, 0
2, 40224, Note_on_c, 0, 75, 0
2, 40228, Note_on_c, 0, 80, 88
2, 40356, Note_on_c, 0, 80, 0
2, 40358, Note_on_c, 0, 68, 57
2, 40360, Note_on_c, 0, 84, 100
2, 40380, Note_on_c, 0, 63, 52
2, 40386, Note_on_c, 0, 60, 46
2, 40410, Note_on_c, 0, 68, 0
2, 40426, Note_on_c, 0, 63, 0
2, 40444, Note_on_c, 0, 60, 0
2, 40446, Note_on_c, 0, 84, 0
2, 40664, Note_on_c, 0, 89, 81
2, 40678, Note_on_c, 0, 51, 46
2, 40736, Control_c, 0, 64, 127
2, 40762, Note_on_c, 0, 51, 0
2, 41072, Note_on_c, 0, 87, 61
2, 41078, Note_on_c, 0, 61, 43
2, 41080, Note_on_c, 0, 67, 29
2, 41090, Note_on_c, 0, 63, 29
2, 41094, Note_on_c, 0, 89, 0
2, 41138, Note_on_c, 0, 61, 0
2, 41154, Note_on_c, 0, 63, 0
2, 41160, Note_on_c, 0, 67, 0
2, 41212, Note_on_c, 0, 85, 64
2, 41236, Note_on_c, 0, 87, 0
2, 41330, Note_on_c, 0, 85, 0
2, 41334, Note_on_c, 0, 79, 90
2, 41356, Note_on_c, 0, 61, 35
2, 41356, Note_on_c, 0, 67, 25
2, 41362, Note_on_c, 0, 63, 26
2, 41424, Note_on_c, 0, 61, 0
2, 41430, Note_on_c, 0, 63, 0
2, 41442, Note_on_c, 0, 67, 0
2, 41640, Note_on_c, 0, 80, 84
2, 41662, Note_on_c, 0, 79, 0
2, 41662, Note_on_c, 0, 56, 23
2, 41828, Control_c, 0, 64, 0
2, 42000, Note_on_c, 0, 68, 46
2, 42016, Note_on_c, 0, 60, 46
2, 42088, Control_c, 0, 64, 127
2, 42144, Note_on_c, 0, 56, 0
2, 42154, Note_on_c, 0, 80, 0
2, 42176, Note_on_c, 0, 60, 0
2, 42204, Note_on_c, 0, 68, 0
2, 42436, Note_on_c, 0, 68, 53
2, 42446, Note_on_c, 0, 74, 77
2, 42449, Note_on_c, 0, 65, 50
2, 42462, Note_on_c, 0, 60, 44
2, 42486, Note_on_c, 0, 74, 0
2, 42500, Note_on_c, 0, 72, 74
2, 42510, Note_on_c, 0, 68, 0
2, 42512, Note_on_c, 0, 65, 0
2, 42530, Note_on_c, 0, 60, 0
2, 42550, Note_on_c, 0, 72, 0
2, 42572, Note_on_c, 0, 74, 55
2, 42644, Note_on_c, 0, 74, 0
2, 42662, Note_on_c, 0, 72, 49
2, 42702, Note_on_c, 0, 74, 73
2, 42714, Note_on_c, 0, 72, 0
2, 42754, Note_on_c, 0, 74, 0
2, 42772, Note_on_c, 0, 72, 80
2, 42836, Note_on_c, 0, 74, 72
2, 42844, Note_on_c, 0, 72, 0
2, 42906, Note_on_c, 0, 72, 80
2, 42960, Note_on_c, 0, 74, 0
2, 42996, Note_on_c, 0, 58, 69
2, 42999, Note_on_c, 0, 46, 79
2, 43002, Note_on_c, 0, 70, 94
2, 43012, Control_c, 0, 64, 0
2, 43040, Note_on_c, 0, 72, 0
2, 43100, Note_on_c, 0, 58, 0
2, 43108, Note_on_c, 0, 46, 0
2, 43150, Control_c, 0, 64, 127
2, 43186, Note_on_c, 0, 70, 0
2, 43292, Control_c, 0, 64, 0
2, 43300, Note_on_c, 0, 74, 84
2, 43302, Note_on_c, 0, 68, 64
2, 43316, Note_on_c, 0, 58, 50
2, 43320, Note_on_c, 0, 65, 56
2, 43374, Note_on_c, 0, 68, 0
2, 43386, Note_on_c, 0, 65, 0
2, 43406, Note_on_c, 0, 58, 0
2, 43406, Note_on_c, 0, 75, 85
2, 43442, Note_on_c, 0, 74, 0
2, 43522, Note_on_c, 0, 74, 74
2, 43532, Note_on_c, 0, 77, 94
2, 43534, Note_on_c, 0, 68, 78
2, 43544, Note_on_c, 0, 75, 0
2, 43544, Note_on_c, 0, 58, 61
2, 43544, Note_on_c, 0, 65, 58
2, 43574, Note_on_c, 0, 68, 0
2, 43586, Note_on_c, 0, 65, 0
2, 43608, Note_on_c, 0, 58, 0
2, 43638, Note_on_c, 0, 74, 0
2, 43724, Note_on_c, 0, 77, 0
2, 43780, Note_on_c, 0, 70, 69
2, 43792, Note_on_c, 0, 51, 81
2, 43832, Note_on_c, 0, 51, 0
2, 43872, Control_c, 0, 64, 127
2, 43896, Note_on_c, 0, 70, 0
2, 43948, Control_c, 0, 64, 0
2, 44052, Note_on_c, 0, 75, 63
2, 44070, Note_on_c, 0, 58, 38
2, 44072, Note_on_c, 0, 67, 41
2, 44084, Note_on_c, 0, 63, 33
2, 44136, Note_on_c, 0, 58, 0
2, 44139, Note_on_c, 0, 67, 0
2, 44142, Note_on_c, 0, 63, 0
2, 44150, Note_on_c, 0, 75, 0
2, 44154, Note_on_c, 0, 77, 73
2, 44270, Note_on_c, 0, 77, 0
2, 44286, Note_on_c, 0, 58, 55
2, 44292, Note_on_c, 0, 67, 67
2, 44294, Note_on_c, 0, 79, 80
2, 44296, Note_on_c, 0, 75, 60
2, 44316, Note_on_c, 0, 63, 48
2, 44340, Note_on_c, 0, 67, 0
2, 44348, Note_on_c, 0, 58, 0
2, 44350, Note_on_c, 0, 75, 0
2, 44364, Note_on_c, 0, 63, 0
2, 44536, Note_on_c, 0, 70, 68
2, 44544, Note_on_c, 0, 79, 0
2, 44544, Note_on_c, 0, 50, 88
2, 44580, Note_on_c, 0, 50, 0
2, 44610, Control_c, 0, 64, 127
2, 44656, Note_on_c, 0, 70, 0
2, 44778, Control_c, 0, 64, 0
2, 44798, Note_on_c, 0, 68, 58
2, 44798, Note_on_c, 0, 77, 86
2, 44798, Note_on_c, 0, 58, 61
2, 44806, Note_on_c, 0, 65, 61
2, 44856, Note_on_c, 0, 68, 0
2, 44868, Note_on_c, 0, 65, 0
2, 44870, Note_on_c, 0, 58, 0
2, 44880, Note_on_c, 0, 79, 95
2, 44928, Note_on_c, 0, 77, 0
2, 45018, Note_on_c, 0, 80, 97
2, 45018, Note_on_c, 0, 68, 85
2, 45021, Note_on_c, 0, 77, 76
2, 45030, Note_on_c, 0, 58, 66
2, 45032, Note_on_c, 0, 65, 73
2, 45058, Note_on_c, 0, 68, 0
2, 45066, Note_on_c, 0, 65, 0
2, 45084, Note_on_c, 0, 79, 0
2, 45092, Note_on_c, 0, 58, 0
2, 45294, Note_on_c, 0, 77, 0
2, 45297, Note_on_c, 0, 82, 92
2, 45301, Note_on_c, 0, 73, 84
2, 45301, Note_on_c, 0, 51, 87
2, 45304, Note_on_c, 0, 79, 89
2, 45368, Note_on_c, 0, 80, 0
2, 45394, Control_c, 0, 64, 127
2, 45418, Note_on_c, 0, 51, 0
2, 45504, Note_on_c, 0, 79, 0
2, 45594, Note_on_c, 0, 67, 86
2, 45598, Note_on_c, 0, 61, 76
2, 45600, Note_on_c, 0, 58, 62
2, 45670, Note_on_c, 0, 67, 0
2, 45700, Note_on_c, 0, 61, 0
2, 45726, Note_on_c, 0, 58, 0
2, 45729, Note_on_c, 0, 82, 0
2, 45734, Note_on_c, 0, 73, 0
2, 45876, Note_on_c, 0, 73, 86
2, 45876, Note_on_c, 0, 82, 81
2, 45884, Control_c, 0, 64, 0
2, 45888, Note_on_c, 0, 52, 92
2, 45890, Note_on_c, 0, 79, 80
2, 45910, Note_on_c, 0, 82, 0
2, 45912, Note_on_c, 0, 73, 0
2, 45928, Note_on_c, 0, 79, 0
2, 45931, Note_on_c, 0, 52, 0
2, 45990, Note_on_c, 0, 82, 73
2, 45996, Note_on_c, 0, 73, 62
2, 46000, Note_on_c, 0, 79, 63
2, 46046, Note_on_c, 0, 73, 0
2, 46046, Note_on_c, 0, 79, 0
2, 46074, Note_on_c, 0, 82, 0
2, 46126, Note_on_c, 0, 82, 90
2, 46132, Note_on_c, 0, 73, 84
2, 46134, Note_on_c, 0, 79, 74
2, 46154, Note_on_c, 0, 53, 99
2, 46284, Control_c, 0, 64, 127
2, 46298, Note_on_c, 0, 53, 0
2, 46336, Note_on_c, 0, 79, 0
2, 46388, Note_on_c, 0, 82, 0
2, 46392, Note_on_c, 0, 73, 0
2, 46414, Note_on_c, 0, 65, 56
2, 46414, Note_on_c, 0, 84, 88
2, 46430, Note_on_c, 0, 56, 47
2, 46456, Note_on_c, 0, 65, 0
2, 46480, Note_on_c, 0, 56, 0
2, 46524, Note_on_c, 0, 82, 75
2, 46540, Note_on_c, 0, 84, 0
2, 46590, Control_c, 0, 64, 0
2, 46630, Note_on_c, 0, 44, 77
2, 46630, Note_on_c, 0, 80, 78
2, 46633, Note_on_c, 0, 72, 60
2, 46666, Note_on_c, 0, 82, 0
2, 46686, Note_on_c, 0, 44, 0
2, 46740, Note_on_c, 0, 72, 0
2, 46762, Note_on_c, 0, 80, 0
2, 46892, Note_on_c, 0, 46, 58
2, 46914, Note_on_c, 0, 80, 83
2, 46926, Note_on_c, 0, 71, 80
2, 46938, Note_on_c, 0, 46, 0
2, 46990, Note_on_c, 0, 71, 0
2, 47006, Control_c, 0, 64, 127
2, 47136, Note_on_c, 0, 80, 0
2, 47184, Note_on_c, 0, 63, 43
2, 47192, Note_on_c, 0, 82, 62
2, 47210, Note_on_c, 0, 55, 34
2, 47240, Note_on_c, 0, 63, 0
2, 47272, Note_on_c, 0, 55, 0
2, 47286, Note_on_c, 0, 80, 67
2, 47304, Note_on_c, 0, 82, 0
2, 47314, Control_c, 0, 64, 0
2, 47414, Note_on_c, 0, 63, 55
2, 47416, Note_on_c, 0, 79, 78
2, 47422, Note_on_c, 0, 70, 49
2, 47430, Note_on_c, 0, 80, 0
2, 47458, Note_on_c, 0, 55, 37
2, 47462, Note_on_c, 0, 63, 0
2, 47472, Note_on_c, 0, 79, 0
2, 47528, Note_on_c, 0, 55, 0
2, 47564, Note_on_c, 0, 70, 0
2, 47672, Note_on_c, 0, 46, 51
2, 47680, Note_on_c, 0, 70, 45
2, 47682, Note_on_c, 0, 79, 74
2, 47730, Note_on_c, 0, 46, 0
2, 47790, Control_c, 0, 64, 127
2, 47838, Note_on_c, 0, 79, 0
2, 47936, Note_on_c, 0, 70, 0
2, 47954, Note_on_c, 0, 80, 39
2, 47964, Note_on_c, 0, 53, 47
2, 47966, Note_on_c, 0, 62, 30
2, 48030, Note_on_c, 0, 62, 0
2, 48040, Note_on_c, 0, 53, 0
2, 48046, Note_on_c, 0, 79, 61
2, 48050, Control_c, 0, 64, 0
2, 48060, Note_on_c, 0, 80, 0
2, 48150, Note_on_c, 0, 79, 0
2, 48166, Note_on_c, 0, 77, 55
2, 48169, Note_on_c, 0, 68, 44
2, 48174, Note_on_c, 0, 62, 34
2, 48186, Note_on_c, 0, 58, 26
2, 48210, Note_on_c, 0, 77, 0
2, 48236, Note_on_c, 0, 62, 0
2, 48260, Note_on_c, 0, 58, 0
2, 48266, Note_on_c, 0, 68, 0
2, 48442, Note_on_c, 0, 51, 40
2, 48444, Note_on_c, 0, 77, 50
2, 48450, Note_on_c, 0, 68, 40
2, 48552, Note_on_c, 0, 68, 0
2, 48588, Control_c, 0, 64, 127
2, 48630, Note_on_c, 0, 77, 0
2, 48633, Note_on_c, 0, 51, 0
2, 48718, Note_on_c, 0, 63, 36
2, 48720, Note_on_c, 0, 79, 54
2, 48744, Note_on_c, 0, 58, 23
2, 48780, Note_on_c, 0, 63, 0
2, 48816, Note_on_c, 0, 58, 0
2, 48822, Note_on_c, 0, 79, 0
2, 48848, Note_on_c, 0, 77, 41
2, 48866, Control_c, 0, 64, 0
2, 48914, Note_on_c, 0, 77, 0
2, 48950, Note_on_c, 0, 67, 31
2, 48954, Note_on_c, 0, 75, 33
2, 48958, Note_on_c, 0, 63, 47
2, 48978, Note_on_c, 0, 58, 34
2, 49008, Note_on_c, 0, 63, 0
2, 49022, Note_on_c, 0, 67, 0
2, 49042, Note_on_c, 0, 58, 0
2, 49116, Note_on_c, 0, 75, 0
2, 49226, Note_on_c, 0, 46, 41
2, 49250, Note_on_c, 0, 70, 41
2, 49294, Note_on_c, 0, 46, 0
2, 49342, Control_c, 0, 64, 127
2, 49380, Note_on_c, 0, 70, 0
2, 49406, Note_on_c, 0, 74, 46
2, 49471, Note_on_c, 0, 74, 0
2, 49524, Note_on_c, 0, 75, 48
2, 49546, Note_on_c, 0, 68, 29
2, 49558, Note_on_c, 0, 58, 26
2, 49574, Note_on_c, 0, 65, 25
2, 49606, Note_on_c, 0, 75, 0
2, 49614, Note_on_c, 0, 68, 0
2, 49634, Note_on_c, 0, 58, 0
2, 49634, Note_on_c, 0, 65, 0
2, 49652, Note_on_c, 0, 76, 54
2, 49680, Control_c, 0, 64, 0
2, 49752, Note_on_c, 0, 76, 0
2, 49770, Note_on_c, 0, 77, 56
2, 49772, Note_on_c, 0, 74, 58
2, 49776, Note_on_c, 0, 68, 39
2, 49798, Note_on_c, 0, 58, 31
2, 49842, Note_on_c, 0, 65, 22
2, 49846, Note_on_c, 0, 68, 0
2, 49914, Note_on_c, 0, 65, 0
2, 49922, Note_on_c, 0, 58, 0
2, 49948, Note_on_c, 0, 74, 0
2, 50030, Note_on_c, 0, 77, 0
2, 50070, Note_on_c, 0, 51, 60
2, 50082, Note_on_c, 0, 70, 54
2, 50094, Control_c, 0, 64, 127
2, 50130, Note_on_c, 0, 51, 0
2, 50178, Note_on_c, 0, 70, 0
2, 50208, Note_on_c, 0, 74, 76
2, 50312, Note_on_c, 0, 67, 59
2, 50315, Note_on_c, 0, 58, 45
2, 50320, Note_on_c, 0, 75, 80
2, 50322, Note_on_c, 0, 63, 57
2, 50340, Control_c, 0, 64, 0
2, 50368, Note_on_c, 0, 67, 0
2, 50370, Note_on_c, 0, 63, 0
2, 50376, Note_on_c, 0, 74, 0
2, 50388, Note_on_c, 0, 58, 0
2, 50420, Note_on_c, 0, 77, 80
2, 50466, Note_on_c, 0, 75, 0
2, 50546, Note_on_c, 0, 79, 96
2, 50546, Note_on_c, 0, 75, 56
2, 50564, Note_on_c, 0, 67, 67
2, 50572, Note_on_c, 0, 58, 52
2, 50576, Note_on_c, 0, 77, 0
2, 50590, Note_on_c, 0, 63, 55
2, 50616, Note_on_c, 0, 67, 0
2, 50642, Note_on_c, 0, 63, 0
2, 50694, Note_on_c, 0, 58, 0
2, 50810, Note_on_c, 0, 75, 0
2, 50815, Control_c, 0, 64, 127
2, 50834, Note_on_c, 0, 79, 0
2, 50844, Note_on_c, 0, 70, 76
2, 50860, Note_on_c, 0, 50, 84
2, 50898, Note_on_c, 0, 50, 0
2, 50970, Note_on_c, 0, 70, 0
2, 50982, Note_on_c, 0, 76, 79
2, 51099, Note_on_c, 0, 77, 87
2, 51120, Note_on_c, 0, 68, 59
2, 51134, Note_on_c, 0, 58, 49
2, 51134, Note_on_c, 0, 65, 52
2, 51150, Note_on_c, 0, 76, 0
2, 51186, Note_on_c, 0, 68, 0
2, 51200, Note_on_c, 0, 79, 98
2, 51204, Note_on_c, 0, 65, 0
2, 51224, Note_on_c, 0, 58, 0
2, 51260, Note_on_c, 0, 77, 0
2, 51278, Control_c, 0, 64, 0
2, 51346, Note_on_c, 0, 80, 95
2, 51346, Note_on_c, 0, 77, 68
2, 51364, Note_on_c, 0, 68, 72
2, 51374, Note_on_c, 0, 58, 54
2, 51374, Note_on_c, 0, 65, 60
2, 51410, Note_on_c, 0, 79, 0
2, 51428, Note_on_c, 0, 68, 0
2, 51436, Note_on_c, 0, 65, 0
2, 51504, Note_on_c, 0, 58, 0
2, 51520, Control_c, 0, 64, 127
2, 51598, Note_on_c, 0, 80, 0
2, 51672, Note_on_c, 0, 79, 93
2, 51682, Note_on_c, 0, 82, 88
2, 51685, Note_on_c, 0, 51, 78
2, 51685, Note_on_c, 0, 73, 66
2, 51722, Note_on_c, 0, 77, 0
2, 51738, Control_c, 0, 64, 0
2, 51954, Control_c, 0, 64, 127
2, 51976, Note_on_c, 0, 51, 0
2, 51982, Note_on_c, 0, 79, 0
2, 52052, Note_on_c, 0, 82, 0
2, 52116, Note_on_c, 0, 67, 71
2, 52138, Note_on_c, 0, 61, 42
2, 52142, Note_on_c, 0, 58, 33
2, 52190, Note_on_c, 0, 73, 0
2, 52268, Note_on_c, 0, 67, 0
2, 52272, Note_on_c, 0, 82, 75
2, 52282, Note_on_c, 0, 61, 0
2, 52286, Note_on_c, 0, 79, 72
2, 52290, Note_on_c, 0, 58, 0
2, 52456, Note_on_c, 0, 73, 81
2, 52460, Control_c, 0, 64, 0
2, 52464, Note_on_c, 0, 52, 79
2, 52476, Note_on_c, 0, 79, 0
2, 52516, Note_on_c, 0, 82, 0
2, 52580, Note_on_c, 0, 82, 70
2, 52598, Note_on_c, 0, 79, 84
2, 52610, Note_on_c, 0, 52, 0
2, 52614, Control_c, 0, 64, 127
2, 52636, Note_on_c, 0, 73, 0
2, 52706, Control_c, 0, 64, 0
2, 52754, Note_on_c, 0, 73, 80
2, 52757, Note_on_c, 0, 53, 81
2, 52768, Note_on_c, 0, 82, 0
2, 52800, Note_on_c, 0, 79, 0
2, 52890, Note_on_c, 0, 82, 79
2, 52942, Note_on_c, 0, 53, 0
2, 52952, Control_c, 0, 64, 127
2, 53036, Note_on_c, 0, 84, 77
2, 53042, Note_on_c, 0, 82, 0
2, 53047, Note_on_c, 0, 65, 47
2, 53058, Note_on_c, 0, 56, 44
2, 53074, Control_c, 0, 64, 0
2, 53092, Note_on_c, 0, 65, 0
2, 53126, Note_on_c, 0, 56, 0
2, 53148, Note_on_c, 0, 82, 57
2, 53174, Note_on_c, 0, 84, 0
2, 53278, Note_on_c, 0, 73, 0
2, 53302, Note_on_c, 0, 80, 72
2, 53308, Note_on_c, 0, 44, 62
2, 53328, Note_on_c, 0, 72, 48
2, 53334, Note_on_c, 0, 82, 0
2, 53376, Note_on_c, 0, 44, 0
2, 53414, Control_c, 0, 64, 127
2, 53478, Note_on_c, 0, 80, 0
2, 53480, Note_on_c, 0, 72, 0
2, 53520, Control_c, 0, 64, 0
2, 53588, Note_on_c, 0, 46, 52
2, 53596, Note_on_c, 0, 71, 67
2, 53646, Note_on_c, 0, 46, 0
2, 53720, Control_c, 0, 64, 127
2, 53724, Note_on_c, 0, 80, 57
2, 53828, Control_c, 0, 64, 0
2, 53856, Note_on_c, 0, 63, 39
2, 53859, Note_on_c, 0, 80, 0
2, 53862, Note_on_c, 0, 82, 53
2, 53866, Note_on_c, 0, 55, 46
2, 53916, Note_on_c, 0, 63, 0
2, 53926, Note_on_c, 0, 55, 0
2, 53958, Note_on_c, 0, 71, 0
2, 53986, Note_on_c, 0, 80, 46
2, 54000, Note_on_c, 0, 82, 0
2, 54116, Note_on_c, 0, 70, 39
2, 54124, Note_on_c, 0, 79, 62
2, 54132, Note_on_c, 0, 63, 37
2, 54134, Note_on_c, 0, 80, 0
2, 54150, Note_on_c, 0, 55, 35
2, 54186, Note_on_c, 0, 63, 0
2, 54212, Note_on_c, 0, 55, 0
2, 54222, Note_on_c, 0, 79, 0
2, 54228, Control_c, 0, 64, 127
2, 54246, Note_on_c, 0, 70, 0
2, 54366, Control_c, 0, 64, 0
2, 54390, Note_on_c, 0, 46, 43
2, 54398, Note_on_c, 0, 70, 39
2, 54444, Note_on_c, 0, 46, 0
2, 54536, Note_on_c, 0, 79, 44
2, 54610, Note_on_c, 0, 79, 0
2, 54650, Note_on_c, 0, 80, 55
2, 54650, Note_on_c, 0, 62, 38
2, 54653, Note_on_c, 0, 53, 56
2, 54708, Note_on_c, 0, 62, 0
2, 54712, Note_on_c, 0, 53, 0
2, 54776, Note_on_c, 0, 80, 0
2, 54778, Note_on_c, 0, 79, 53
2, 54782, Note_on_c, 0, 70, 0
2, 54924, Note_on_c, 0, 79, 0
2, 54940, Note_on_c, 0, 62, 34
2, 54946, Note_on_c, 0, 58, 32
2, 54950, Note_on_c, 0, 77, 51
2, 54952, Note_on_c, 0, 68, 34
2, 55002, Note_on_c, 0, 62, 0
2, 55022, Note_on_c, 0, 58, 0
2, 55172, Note_on_c, 0, 68, 0
2, 55212, Note_on_c, 0, 77, 0
2, 55304, Note_on_c, 0, 75, 39
2, 55320, Note_on_c, 0, 63, 34
2, 55332, Note_on_c, 0, 67, 18
2, 55340, Note_on_c, 0, 51, 25
2, 55518, Control_c, 0, 64, 127
2, 55524, Note_on_c, 0, 75, 0
2, 55582, Note_on_c, 0, 63, 0
2, 55584, Note_on_c, 0, 67, 0
2, 55596, Note_on_c, 0, 51, 0
2, 55692, Note_on_c, 0, 75, 41
2, 55744, Note_on_c, 0, 75, 0
2, 55806, Note_on_c, 0, 75, 52
2, 55890, Note_on_c, 0, 75, 0
2, 55950, Note_on_c, 0, 75, 70
2, 55952, Note_on_c, 0, 61, 38
2, 55972, Note_on_c, 0, 55, 25
2, 56006, Note_on_c, 0, 75, 0
2, 56012, Note_on_c, 0, 61, 0
2, 56038, Note_on_c, 0, 55, 0
2, 56084, Note_on_c, 0, 75, 64
2, 56134, Control_c, 0, 64, 0
2, 56137, Note_on_c, 0, 75, 0
2, 56216, Note_on_c, 0, 75, 63
2, 56222, Note_on_c, 0, 44, 49
2, 56270, Note_on_c, 0, 75, 0
2, 56302, Note_on_c, 0, 44, 0
2, 56346, Note_on_c, 0, 75, 60
2, 56392, Note_on_c, 0, 75, 0
2, 56464, Note_on_c, 0, 75, 64
2, 56482, Note_on_c, 0, 60, 38
2, 56485, Note_on_c, 0, 56, 35
2, 56492, Note_on_c, 0, 51, 32
2, 56524, Note_on_c, 0, 75, 0
2, 56546, Note_on_c, 0, 60, 0
2, 56548, Note_on_c, 0, 56, 0
2, 56558, Note_on_c, 0, 51, 0
2, 56580, Note_on_c, 0, 75, 70
2, 56632, Note_on_c, 0, 75, 0
2, 56712, Note_on_c, 0, 75, 55
2, 56712, Note_on_c, 0, 60, 43
2, 56718, Note_on_c, 0, 56, 38
2, 56726, Note_on_c, 0, 51, 40
2, 56760, Note_on_c, 0, 75, 0
2, 56774, Note_on_c, 0, 60, 0
2, 56776, Note_on_c, 0, 56, 0
2, 56788, Note_on_c, 0, 51, 0
2, 56818, Note_on_c, 0, 75, 75
2, 56880, Note_on_c, 0, 75, 0
2, 56942, Note_on_c, 0, 44, 59
2, 56960, Note_on_c, 0, 77, 73
2, 57000, Note_on_c, 0, 44, 0
2, 57006, Note_on_c, 0, 77, 0
2, 57068, Note_on_c, 0, 75, 70
2, 57086, Control_c, 0, 64, 127
2, 57144, Note_on_c, 0, 75, 0
2, 57146, Control_c, 0, 64, 0
2, 57172, Note_on_c, 0, 72, 68
2, 57188, Note_on_c, 0, 60, 40
2, 57188, Note_on_c, 0, 56, 41
2, 57202, Note_on_c, 0, 51, 26
2, 57216, Note_on_c, 0, 72, 0
2, 57250, Note_on_c, 0, 56, 0
2, 57253, Note_on_c, 0, 60, 0
2, 57276, Note_on_c, 0, 51, 0
2, 57292, Note_on_c, 0, 68, 62
2, 57418, Note_on_c, 0, 63, 61
2, 57418, Note_on_c, 0, 60, 49
2, 57421, Note_on_c, 0, 68, 0
2, 57438, Note_on_c, 0, 51, 47
2, 57452, Note_on_c, 0, 56, 25
2, 57474, Note_on_c, 0, 60, 0
2, 57484, Note_on_c, 0, 63, 0
2, 57498, Note_on_c, 0, 51, 0
2, 57520, Note_on_c, 0, 64, 74
2, 57526, Note_on_c, 0, 56, 0
2, 57578, Note_on_c, 0, 64, 0
2, 57634, Note_on_c, 0, 44, 67
2, 57650, Note_on_c, 0, 65, 71
2, 57684, Note_on_c, 0, 44, 0
2, 57686, Note_on_c, 0, 65, 0
2, 57716, Control_c, 0, 64, 127
2, 57762, Note_on_c, 0, 65, 48
2, 57818, Note_on_c, 0, 65, 0
2, 57838, Control_c, 0, 64, 0
2, 57876, Note_on_c, 0, 56, 50
2, 57876, Note_on_c, 0, 59, 53
2, 57884, Note_on_c, 0, 65, 70
2, 57892, Note_on_c, 0, 50, 46
2, 57930, Note_on_c, 0, 59, 0
2, 57930, Note_on_c, 0, 65, 0
2, 57942, Note_on_c, 0, 56, 0
2, 57952, Note_on_c, 0, 50, 0
2, 57988, Note_on_c, 0, 65, 79
2, 58034, Note_on_c, 0, 65, 0
2, 58118, Note_on_c, 0, 50, 62
2, 58122, Note_on_c, 0, 59, 45
2, 58124, Note_on_c, 0, 56, 46
2, 58126, Note_on_c, 0, 65, 53
2, 58168, Note_on_c, 0, 50, 0
2, 58174, Note_on_c, 0, 59, 0
2, 58176, Note_on_c, 0, 65, 0
2, 58178, Note_on_c, 0, 56, 0
2, 58230, Note_on_c, 0, 65, 72
2, 58286, Note_on_c, 0, 65, 0
2, 58350, Note_on_c, 0, 44, 66
2, 58352, Note_on_c, 0, 63, 83
2, 58402, Note_on_c, 0, 44, 0
2, 58464, Note_on_c, 0, 63, 0
2, 58468, Note_on_c, 0, 68, 71
2, 58470, Control_c, 0, 64, 127
2, 58518, Note_on_c, 0, 68, 0
2, 58576, Control_c, 0, 64, 0
2, 58588, Note_on_c, 0, 56, 48
2, 58588, Note_on_c, 0, 72, 77
2, 58592, Note_on_c, 0, 60, 41
2, 58598, Note_on_c, 0, 51, 37
2, 58642, Note_on_c, 0, 72, 0
2, 58650, Note_on_c, 0, 56, 0
2, 58654, Note_on_c, 0, 60, 0
2, 58662, Note_on_c, 0, 51, 0
2, 58694, Note_on_c, 0, 75, 79
2, 58798, Note_on_c, 0, 56, 52
2, 58808, Note_on_c, 0, 80, 88
2, 58810, Note_on_c, 0, 75, 0
2, 58822, Note_on_c, 0, 60, 43
2, 58824, Note_on_c, 0, 51, 39
2, 58854, Note_on_c, 0, 56, 0
2, 58886, Note_on_c, 0, 60, 0
2, 58886, Note_on_c, 0, 51, 0
2, 58908, Note_on_c, 0, 76, 78
2, 58918, Note_on_c, 0, 80, 0
2, 58954, Note_on_c, 0, 76, 0
2, 59028, Note_on_c, 0, 77, 92
2, 59032, Note_on_c, 0, 50, 54
2, 59058, Note_on_c, 0, 77, 0
2, 59082, Control_c, 0, 64, 127
2, 59084, Note_on_c, 0, 50, 0
2, 59130, Note_on_c, 0, 77, 47
2, 59174, Control_c, 0, 64, 0
2, 59196, Note_on_c, 0, 77, 0
2, 59255, Note_on_c, 0, 56, 43
2, 59255, Note_on_c, 0, 77, 88
2, 59258, Note_on_c, 0, 65, 39
2, 59264, Note_on_c, 0, 59, 41
2, 59298, Note_on_c, 0, 77, 0
2, 59314, Note_on_c, 0, 65, 0
2, 59316, Note_on_c, 0, 59, 0
2, 59328, Note_on_c, 0, 56, 0
2, 59350, Note_on_c, 0, 77, 91
2, 59386, Note_on_c, 0, 77, 0
2, 59466, Note_on_c, 0, 77, 64
2, 59482, Note_on_c, 0, 59, 54
2, 59484, Note_on_c, 0, 65, 39
2, 59492, Note_on_c, 0, 56, 39
2, 59514, Note_on_c, 0, 77, 0
2, 59536, Note_on_c, 0, 65, 0
2, 59538, Note_on_c, 0, 59, 0
2, 59568, Note_on_c, 0, 56, 0
2, 59574, Note_on_c, 0, 77, 83
2, 59616, Note_on_c, 0, 77, 0
2, 59714, Note_on_c, 0, 77, 61
2, 59717, Note_on_c, 0, 51, 53
2, 59758, Note_on_c, 0, 77, 0
2, 59768, Note_on_c, 0, 51, 0
2, 59790, Note_on_c, 0, 79, 79
2, 59806, Control_c, 0, 64, 127
2, 59840, Note_on_c, 0, 79, 0
2, 59870, Note_on_c, 0, 77, 53
2, 59910, Note_on_c, 0, 77, 0
2, 59930, Note_on_c, 0, 68, 38
2, 59952, Note_on_c, 0, 63, 39
2, 59955, Note_on_c, 0, 60, 34
2, 59970, Note_on_c, 0, 75, 77
2, 59990, Control_c, 0, 64, 0
2, 59996, Note_on_c, 0, 68, 0
2, 60004, Note_on_c, 0, 63, 0
2, 60020, Note_on_c, 0, 60, 0
2, 60022, Note_on_c, 0, 75, 0
2, 60090, Note_on_c, 0, 80, 75
2, 60128, Note_on_c, 0, 80, 0
2, 60184, Note_on_c, 0, 68, 47
2, 60194, Note_on_c, 0, 84, 92
2, 60198, Note_on_c, 0, 60, 44
2, 60200, Note_on_c, 0, 63, 35
2, 60240, Note_on_c, 0, 68, 0
2, 60252, Note_on_c, 0, 84, 0
2, 60252, Note_on_c, 0, 63, 0
2, 60260, Note_on_c, 0, 60, 0
2, 60458, Note_on_c, 0, 51, 50
2, 60468, Note_on_c, 0, 89, 74
2, 60532, Note_on_c, 0, 51, 0
2, 60544, Control_c, 0, 64, 127
2, 60746, Note_on_c, 0, 87, 49
2, 60748, Note_on_c, 0, 89, 0
2, 60766, Note_on_c, 0, 67, 35
2, 60772, Note_on_c, 0, 61, 35
2, 60786, Note_on_c, 0, 63, 28
2, 60836, Note_on_c, 0, 61, 0
2, 60838, Note_on_c, 0, 67, 0
2, 60846, Note_on_c, 0, 63, 0
2, 60862, Note_on_c, 0, 85, 52
2, 60878, Note_on_c, 0, 87, 0
2, 60964, Note_on_c, 0, 85, 0
2, 60978, Note_on_c, 0, 79, 79
2, 60988, Control_c, 0, 64, 0
2, 61006, Note_on_c, 0, 67, 37
2, 61012, Note_on_c, 0, 61, 27
2, 61022, Note_on_c, 0, 79, 0
2, 61076, Note_on_c, 0, 67, 0
2, 61084, Note_on_c, 0, 61, 0
2, 61264, Note_on_c, 0, 82, 61
2, 61274, Note_on_c, 0, 56, 30
2, 61450, Control_c, 0, 64, 127
2, 61486, Note_on_c, 0, 56, 0
2, 61530, Note_on_c, 0, 68, 25
2, 61550, Note_on_c, 0, 82, 0
2, 61550, Note_on_c, 0, 80, 50
2, 61556, Note_on_c, 0, 60, 24
2, 61558, Note_on_c, 0, 63, 25
2, 61608, Note_on_c, 0, 68, 0
2, 61626, Note_on_c, 0, 63, 0
2, 61638, Note_on_c, 0, 60, 0
2, 61664, Note_on_c, 0, 80, 0
2, 61666, Note_on_c, 0, 75, 49
2, 61734, Note_on_c, 0, 75, 0
2, 61742, Control_c, 0, 64, 0
2, 61798, Note_on_c, 0, 72, 53
2, 61810, Note_on_c, 0, 68, 34
2, 61822, Note_on_c, 0, 63, 35
2, 61830, Note_on_c, 0, 60, 32
2, 61870, Note_on_c, 0, 68, 0
2, 61876, Note_on_c, 0, 63, 0
2, 61890, Note_on_c, 0, 60, 0
2, 61926, Control_c, 0, 64, 127
2, 62024, Note_on_c, 0, 72, 0
2, 62090, Note_on_c, 0, 44, 54
2, 62093, Note_on_c, 0, 75, 66
2, 62146, Note_on_c, 0, 75, 0
2, 62162, Note_on_c, 0, 44, 0
2, 62172, Control_c, 0, 64, 0
2, 62216, Note_on_c, 0, 75, 62
2, 62268, Note_on_c, 0, 75, 0
2, 62324, Note_on_c, 0, 60, 45
2, 62330, Note_on_c, 0, 75, 68
2, 62334, Note_on_c, 0, 56, 40
2, 62346, Note_on_c, 0, 51, 30
2, 62378, Note_on_c, 0, 75, 0
2, 62382, Note_on_c, 0, 60, 0
2, 62394, Note_on_c, 0, 56, 0
2, 62414, Note_on_c, 0, 51, 0
2, 62438, Note_on_c, 0, 75, 69
2, 62478, Note_on_c, 0, 75, 0
2, 62564, Note_on_c, 0, 75, 47
2, 62564, Note_on_c, 0, 60, 46
2, 62574, Note_on_c, 0, 56, 41
2, 62582, Note_on_c, 0, 51, 41
2, 62616, Note_on_c, 0, 75, 0
2, 62622, Note_on_c, 0, 60, 0
2, 62630, Note_on_c, 0, 56, 0
2, 62646, Note_on_c, 0, 51, 0
2, 62682, Note_on_c, 0, 75, 57
2, 62728, Note_on_c, 0, 75, 0
2, 62804, Note_on_c, 0, 44, 56
2, 62810, Note_on_c, 0, 77, 58
2, 62856, Note_on_c, 0, 44, 0
2, 62868, Note_on_c, 0, 77, 0
2, 62918, Note_on_c, 0, 75, 60
2, 62924, Control_c, 0, 64, 127
2, 62974, Note_on_c, 0, 75, 0
2, 63018, Note_on_c, 0, 72, 59
2, 63032, Control_c, 0, 64, 0
2, 63048, Note_on_c, 0, 51, 38
2, 63050, Note_on_c, 0, 56, 34
2, 63050, Note_on_c, 0, 60, 30
2, 63064, Note_on_c, 0, 72, 0
2, 63114, Note_on_c, 0, 56, 0
2, 63117, Note_on_c, 0, 51, 0
2, 63122, Note_on_c, 0, 60, 0
2, 63132, Note_on_c, 0, 68, 60
2, 63246, Note_on_c, 0, 63, 54
2, 63250, Note_on_c, 0, 68, 0
2, 63272, Note_on_c, 0, 60, 31
2, 63276, Note_on_c, 0, 51, 47
2, 63278, Note_on_c, 0, 56, 38
2, 63320, Note_on_c, 0, 63, 0
2, 63336, Note_on_c, 0, 51, 0
2, 63336, Note_on_c, 0, 56, 0
2, 63348, Note_on_c, 0, 60, 0
2, 63348, Note_on_c, 0, 64, 64
2, 63398, Note_on_c, 0, 64, 0
2, 63470, Note_on_c, 0, 65, 65
2, 63472, Note_on_c, 0, 44, 62
2, 63508, Note_on_c, 0, 65, 0
2, 63518, Note_on_c, 0, 44, 0
2, 63524, Control_c, 0, 64, 127
2, 63568, Note_on_c, 0, 65, 59
2, 63616, Control_c, 0, 64, 0
2, 63619, Note_on_c, 0, 65, 0
2, 63686, Note_on_c, 0, 65, 67
2, 63696, Note_on_c, 0, 59, 55
2, 63698, Note_on_c, 0, 56, 45
2, 63704, Note_on_c, 0, 50, 52
2, 63736, Note_on_c, 0, 65, 0
2, 63750, Note_on_c, 0, 59, 0
2, 63764, Note_on_c, 0, 56, 0
2, 63768, Note_on_c, 0, 50, 0
2, 63792, Note_on_c, 0, 65, 80
2, 63828, Note_on_c, 0, 65, 0
2, 63908, Note_on_c, 0, 65, 51
2, 63928, Note_on_c, 0, 56, 55
2, 63928, Note_on_c, 0, 59, 52
2, 63931, Note_on_c, 0, 50, 63
2, 63968, Note_on_c, 0, 65, 0
2, 63974, Note_on_c, 0, 59, 0
2, 63976, Note_on_c, 0, 56, 0
2, 63984, Note_on_c, 0, 50, 0
2, 64032, Note_on_c, 0, 65, 67
2, 64074, Note_on_c, 0, 65, 0
2, 64136, Note_on_c, 0, 44, 78
2, 64144, Note_on_c, 0, 63, 83
2, 64184, Note_on_c, 0, 44, 0
2, 64240, Note_on_c, 0, 63, 0
2, 64246, Control_c, 0, 64, 127
2, 64252, Note_on_c, 0, 68, 73
2, 64288, Note_on_c, 0, 68, 0
2, 64354, Control_c, 0, 64, 0
2, 64354, Note_on_c, 0, 60, 56
2, 64364, Note_on_c, 0, 51, 46
2, 64364, Note_on_c, 0, 56, 42
2, 64370, Note_on_c, 0, 72, 70
2, 64418, Note_on_c, 0, 60, 0
2, 64426, Note_on_c, 0, 51, 0
2, 64426, Note_on_c, 0, 56, 0
2, 64442, Note_on_c, 0, 72, 0
2, 64476, Note_on_c, 0, 75, 79
2, 64570, Note_on_c, 0, 60, 63
2, 64574, Note_on_c, 0, 56, 58
2, 64576, Note_on_c, 0, 80, 86
2, 64578, Note_on_c, 0, 51, 62
2, 64594, Note_on_c, 0, 75, 0
2, 64626, Note_on_c, 0, 60, 0
2, 64630, Note_on_c, 0, 56, 0
2, 64632, Note_on_c, 0, 51, 0
2, 64674, Note_on_c, 0, 76, 78
2, 64702, Note_on_c, 0, 80, 0
2, 64720, Note_on_c, 0, 76, 0
2, 64782, Note_on_c, 0, 50, 78
2, 64792, Note_on_c, 0, 77, 92
2, 64824, Note_on_c, 0, 50, 0
2, 64824, Note_on_c, 0, 77, 0
2, 64844, Control_c, 0, 64, 127
2, 64902, Note_on_c, 0, 77, 53
2, 64952, Control_c, 0, 64, 0
2, 64956, Note_on_c, 0, 77, 0
2, 65004, Note_on_c, 0, 65, 56
2, 65014, Note_on_c, 0, 56, 50
2, 65018, Note_on_c, 0, 77, 81
2, 65024, Note_on_c, 0, 59, 34
2, 65056, Note_on_c, 0, 65, 0
2, 65059, Note_on_c, 0, 77, 0
2, 65074, Note_on_c, 0, 56, 0
2, 65084, Note_on_c, 0, 59, 0
2, 65110, Note_on_c, 0, 77, 97
2, 65140, Note_on_c, 0, 77, 0
2, 65224, Note_on_c, 0, 77, 25
2, 65238, Note_on_c, 0, 65, 42
2, 65238, Note_on_c, 0, 59, 55
2, 65241, Note_on_c, 0, 56, 44
2, 65288, Note_on_c, 0, 65, 0
2, 65291, Note_on_c, 0, 77, 0
2, 65291, Note_on_c, 0, 59, 0
2, 65316, Note_on_c, 0, 56, 0
2, 65348, Note_on_c, 0, 77, 53
2, 65392, Note_on_c, 0, 77, 0
2, 65458, Note_on_c, 0, 77, 75
2, 65464, Note_on_c, 0, 51, 70
2, 65506, Note_on_c, 0, 51, 0
2, 65512, Note_on_c, 0, 77, 0
2, 65544, Note_on_c, 0, 79, 76
2, 65552, Control_c, 0, 64, 127
2, 65596, Note_on_c, 0, 79, 0
2, 65622, Note_on_c, 0, 77, 57
2, 65664, Note_on_c, 0, 77, 0
2, 65716, Note_on_c, 0, 75, 79
2, 65718, Note_on_c, 0, 56, 27
2, 65726, Note_on_c, 0, 63, 41
2, 65730, Note_on_c, 0, 60, 29
2, 65752, Control_c, 0, 64, 0
2, 65772, Note_on_c, 0, 75, 0
2, 65790, Note_on_c, 0, 60, 0
2, 65792, Note_on_c, 0, 56, 0
2, 65792, Note_on_c, 0, 63, 0
2, 65830, Note_on_c, 0, 80, 40
2, 65900, Note_on_c, 0, 80, 0
2, 65940, Note_on_c, 0, 56, 27
2, 65944, Note_on_c, 0, 84, 89
2, 65948, Note_on_c, 0, 63, 41
2, 65952, Note_on_c, 0, 60, 29
2, 66012, Note_on_c, 0, 60, 0
2, 66014, Note_on_c, 0, 56, 0
2, 66014, Note_on_c, 0, 63, 0
2, 66030, Note_on_c, 0, 84, 0
2, 66236, Note_on_c, 0, 51, 52
2, 66238, Note_on_c, 0, 89, 73
2, 66308, Note_on_c, 0, 51, 0
2, 66350, Control_c, 0, 64, 127
2, 66570, Note_on_c, 0, 87, 55
2, 66576, Note_on_c, 0, 89, 0
2, 66579, Note_on_c, 0, 63, 35
2, 66586, Note_on_c, 0, 58, 32
2, 66590, Note_on_c, 0, 61, 32
2, 66648, Note_on_c, 0, 63, 0
2, 66654, Note_on_c, 0, 61, 0
2, 66660, Note_on_c, 0, 58, 0
2, 66704, Note_on_c, 0, 85, 53
2, 66730, Note_on_c, 0, 87, 0
2, 66844, Note_on_c, 0, 85, 0
2, 66845, Note_on_c, 0, 58, 27
2, 66852, Note_on_c, 0, 79, 68
2, 66853, Note_on_c, 0, 63, 41
2, 66857, Note_on_c, 0, 61, 29
2, 66917, Note_on_c, 0, 61, 0
2, 66919, Note_on_c, 0, 58, 0
2, 66919, Note_on_c, 0, 63, 0
2, 67120, Control_c, 0, 64, 0
2, 67180, Note_on_c, 0, 79, 0
2, 67204, Note_on_c, 0, 80, 62
2, 67226, Note_on_c, 0, 44, 23
2, 67380, Note_on_c, 0, 80, 0
2, 67380, Control_c, 0, 64, 127
2, 67494, Note_on_c, 0, 44, 0
2, 67680, Note_on_c, 0, 60, 15
2, 67680, Note_on_c, 0, 51, 15
2, 67760, Note_on_c, 0, 51, 0
2, 67792, Note_on_c, 0, 60, 0
2, 68438, Note_on_c, 0, 68, 40
2, 68920, Note_on_c, 0, 78, 63
2, 68925, Note_on_c, 0, 75, 50
2, 68929, Note_on_c, 0, 68, 0
2, 68940, Note_on_c, 0, 44, 29
2, 69074, Note_on_c, 0, 44, 0
2, 69092, Control_c, 0, 64, 127
2, 69404, Note_on_c, 0, 51, 19
2, 69410, Note_on_c, 0, 60, 34
2, 69496, Note_on_c, 0, 51, 0
2, 69610, Note_on_c, 0, 75, 0
2, 69648, Note_on_c, 0, 60, 0
2, 69738, Note_on_c, 0, 66, 30
2, 69741, Note_on_c, 0, 56, 32
2, 69748, Note_on_c, 0, 74, 61
2, 69752, Note_on_c, 0, 71, 55
2, 69782, Note_on_c, 0, 78, 0
2, 69798, Note_on_c, 0, 66, 0
2, 69812, Note_on_c, 0, 56, 0
2, 69834, Note_on_c, 0, 71, 0
2, 70030, Control_c, 0, 64, 0
2, 70036, Note_on_c, 0, 74, 0
2, 70064, Note_on_c, 0, 75, 62
2, 70067, Note_on_c, 0, 72, 54
2, 70070, Note_on_c, 0, 44, 48
2, 70134, Note_on_c, 0, 44, 0
2, 70194, Note_on_c, 0, 72, 0
2, 70214, Control_c, 0, 64, 127
2, 70216, Note_on_c, 0, 75, 0
2, 70372, Note_on_c, 0, 68, 63
2, 70394, Note_on_c, 0, 51, 27
2, 70422, Note_on_c, 0, 60, 8
2, 70448, Note_on_c, 0, 68, 0
2, 70468, Note_on_c, 0, 51, 0
2, 70504, Note_on_c, 0, 68, 73
2, 70556, Note_on_c, 0, 68, 0
2, 70574, Note_on_c, 0, 60, 0
2, 70610, Note_on_c, 0, 66, 44
2, 70624, Note_on_c, 0, 68, 72
2, 70634, Note_on_c, 0, 56, 35
2, 70670, Note_on_c, 0, 66, 0
2, 70702, Note_on_c, 0, 56, 0
2, 70768, Note_on_c, 0, 68, 0
2, 70890, Control_c, 0, 64, 0
2, 70944, Note_on_c, 0, 82, 78
2, 70948, Note_on_c, 0, 78, 75
2, 70966, Note_on_c, 0, 49, 59
2, 71044, Note_on_c, 0, 49, 0
2, 71120, Control_c, 0, 64, 127
2, 71230, Note_on_c, 0, 61, 72
2, 71246, Note_on_c, 0, 53, 81
2, 71330, Note_on_c, 0, 53, 0
2, 71352, Note_on_c, 0, 61, 0
2, 71446, Note_on_c, 0, 82, 0
2, 71496, Note_on_c, 0, 78, 0
2, 71508, Note_on_c, 0, 79, 92
2, 71511, Note_on_c, 0, 76, 69
2, 71518, Note_on_c, 0, 65, 58
2, 71522, Note_on_c, 0, 56, 55
2, 71570, Note_on_c, 0, 65, 0
2, 71616, Note_on_c, 0, 56, 0
2, 71680, Note_on_c, 0, 76, 0
2, 71750, Control_c, 0, 64, 0
2, 71772, Note_on_c, 0, 80, 86
2, 71784, Note_on_c, 0, 77, 82
2, 71786, Note_on_c, 0, 79, 0
2, 71802, Note_on_c, 0, 49, 54
2, 71858, Note_on_c, 0, 49, 0
2, 71900, Note_on_c, 0, 80, 0
2, 71906, Note_on_c, 0, 77, 0
2, 71936, Control_c, 0, 64, 127
2, 72042, Note_on_c, 0, 61, 52
2, 72046, Note_on_c, 0, 68, 76
2, 72060, Note_on_c, 0, 53, 60
2, 72102, Note_on_c, 0, 68, 0
2, 72114, Note_on_c, 0, 61, 0
2, 72114, Note_on_c, 0, 53, 0
2, 72166, Note_on_c, 0, 68, 73
2, 72210, Note_on_c, 0, 68, 0
2, 72258, Control_c, 0, 64, 0
2, 72274, Note_on_c, 0, 65, 50
2, 72276, Note_on_c, 0, 68, 75
2, 72279, Note_on_c, 0, 56, 53
2, 72318, Note_on_c, 0, 65, 0
2, 72366, Note_on_c, 0, 56, 0
2, 72564, Note_on_c, 0, 68, 0
2, 72582, Note_on_c, 0, 78, 79
2, 72594, Note_on_c, 0, 75, 59
2, 72616, Note_on_c, 0, 44, 44
2, 72686, Note_on_c, 0, 44, 0
2, 72704, Control_c, 0, 64, 127
2, 72950, Note_on_c, 0, 51, 29
2, 72958, Note_on_c, 0, 60, 32
2, 73022, Note_on_c, 0, 51, 0
2, 73066, Note_on_c, 0, 75, 0
2, 73078, Note_on_c, 0, 60, 0
2, 73266, Note_on_c, 0, 71, 57
2, 73271, Note_on_c, 0, 74, 63
2, 73276, Note_on_c, 0, 66, 26
2, 73280, Note_on_c, 0, 78, 0
2, 73283, Note_on_c, 0, 56, 34
2, 73348, Note_on_c, 0, 56, 0
2, 73350, Note_on_c, 0, 66, 0
2, 73376, Note_on_c, 0, 71, 0
2, 73548, Note_on_c, 0, 74, 0
2, 73548, Control_c, 0, 64, 0
2, 73552, Note_on_c, 0, 44, 40
2, 73586, Note_on_c, 0, 75, 62
2, 73586, Note_on_c, 0, 72, 51
2, 73670, Note_on_c, 0, 72, 0
2, 73673, Note_on_c, 0, 44, 0
2, 73702, Note_on_c, 0, 75, 0
2, 73718, Control_c, 0, 64, 127
2, 73882, Note_on_c, 0, 68, 49
2, 73885, Note_on_c, 0, 51, 32
2, 73902, Note_on_c, 0, 60, 18
2, 73934, Note_on_c, 0, 68, 0
2, 73948, Note_on_c, 0, 51, 0
2, 73986, Note_on_c, 0, 68, 72
2, 74024, Note_on_c, 0, 60, 0
2, 74050, Note_on_c, 0, 68, 0
2, 74118, Note_on_c, 0, 68, 67
2, 74128, Note_on_c, 0, 66, 32
2, 74142, Note_on_c, 0, 56, 29
2, 74188, Note_on_c, 0, 66, 0
2, 74202, Note_on_c, 0, 56, 0
2, 74332, Control_c, 0, 64, 0
2, 74370, Note_on_c, 0, 68, 0
2, 74384, Note_on_c, 0, 78, 78
2, 74384, Note_on_c, 0, 49, 52
2, 74392, Note_on_c, 0, 70, 52
2, 74562, Control_c, 0, 64, 127
2, 74626, Note_on_c, 0, 78, 0
2, 74638, Control_c, 0, 64, 0
2, 74656, Note_on_c, 0, 56, 42
2, 74656, Note_on_c, 0, 68, 55
2, 74668, Note_on_c, 0, 77, 74
2, 74708, Note_on_c, 0, 70, 0
2, 74790, Note_on_c, 0, 68, 0
2, 74840, Control_c, 0, 64, 127
2, 74910, Note_on_c, 0, 49, 0
2, 74942, Note_on_c, 0, 75, 59
2, 74946, Note_on_c, 0, 77, 0
2, 74946, Note_on_c, 0, 60, 41
2, 74960, Note_on_c, 0, 66, 39
2, 75020, Note_on_c, 0, 60, 0
2, 75052, Note_on_c, 0, 56, 0
2, 75130, Note_on_c, 0, 66, 0
2, 75238, Control_c, 0, 64, 0
2, 75282, Note_on_c, 0, 61, 33
2, 75288, Note_on_c, 0, 73, 46
2, 75290, Note_on_c, 0, 75, 0
2, 75298, Note_on_c, 0, 65, 34
2, 75302, Note_on_c, 0, 49, 34
2, 75398, Note_on_c, 0, 49, 0
2, 75426, Note_on_c, 0, 65, 0
2, 75430, Note_on_c, 0, 61, 0
2, 75454, Control_c, 0, 64, 127
2, 75482, Note_on_c, 0, 73, 0
2, 75608, Note_on_c, 0, 61, 48
2, 75632, Note_on_c, 0, 68, 47
2, 75666, Note_on_c, 0, 53, 26
2, 75682, Note_on_c, 0, 68, 0
2, 75692, Note_on_c, 0, 61, 0
2, 75732, Note_on_c, 0, 53, 0
2, 75732, Note_on_c, 0, 68, 73
2, 75806, Note_on_c, 0, 68, 0
2, 75858, Note_on_c, 0, 68, 81
2, 75888, Note_on_c, 0, 56, 47
2, 75891, Note_on_c, 0, 65, 44
2, 75940, Note_on_c, 0, 65, 0
2, 76000, Note_on_c, 0, 56, 0
2, 76098, Control_c, 0, 64, 0
2, 76152, Note_on_c, 0, 78, 92
2, 76166, Note_on_c, 0, 75, 73
2, 76170, Note_on_c, 0, 44, 78
2, 76210, Note_on_c, 0, 68, 0
2, 76288, Note_on_c, 0, 44, 0
2, 76330, Control_c, 0, 64, 127
2, 76432, Note_on_c, 0, 60, 58
2, 76450, Note_on_c, 0, 51, 57
2, 76506, Note_on_c, 0, 51, 0
2, 76618, Note_on_c, 0, 75, 0
2, 76658, Note_on_c, 0, 60, 0
2, 76688, Note_on_c, 0, 78, 0
2, 76691, Note_on_c, 0, 74, 92
2, 76691, Note_on_c, 0, 71, 86
2, 76695, Note_on_c, 0, 66, 65
2, 76714, Note_on_c, 0, 56, 48
2, 76740, Note_on_c, 0, 66, 0
2, 76780, Note_on_c, 0, 56, 0
2, 76862, Note_on_c, 0, 71, 0
2, 76928, Control_c, 0, 64, 0
2, 76932, Note_on_c, 0, 74, 0
2, 76952, Note_on_c, 0, 44, 75
2, 76964, Note_on_c, 0, 75, 88
2, 76964, Note_on_c, 0, 72, 87
2, 77006, Note_on_c, 0, 44, 0
2, 77078, Note_on_c, 0, 72, 0
2, 77098, Control_c, 0, 64, 127
2, 77108, Note_on_c, 0, 75, 0
2, 77240, Note_on_c, 0, 68, 76
2, 77256, Note_on_c, 0, 60, 64
2, 77270, Note_on_c, 0, 51, 43
2, 77296, Note_on_c, 0, 68, 0
2, 77324, Note_on_c, 0, 51, 0
2, 77364, Note_on_c, 0, 68, 75
2, 77418, Note_on_c, 0, 60, 0
2, 77418, Note_on_c, 0, 68, 0
2, 77488, Note_on_c, 0, 66, 70
2, 77492, Note_on_c, 0, 68, 79
2, 77504, Note_on_c, 0, 56, 59
2, 77534, Note_on_c, 0, 66, 0
2, 77562, Note_on_c, 0, 56, 0
2, 77626, Note_on_c, 0, 68, 0
2, 77834, Control_c, 0, 64, 0
2, 77862, Note_on_c, 0, 78, 90
2, 77864, Note_on_c, 0, 82, 92
2, 77876, Note_on_c, 0, 37, 89
2, 77962, Note_on_c, 0, 37, 0
2, 78050, Control_c, 0, 64, 127
2, 78228, Note_on_c, 0, 61, 75
2, 78242, Note_on_c, 0, 53, 87
2, 78390, Note_on_c, 0, 53, 0
2, 78474, Note_on_c, 0, 78, 0
2, 78474, Note_on_c, 0, 61, 0
2, 78480, Note_on_c, 0, 82, 0
2, 78514, Note_on_c, 0, 79, 99
2, 78528, Note_on_c, 0, 76, 78
2, 78530, Note_on_c, 0, 65, 67
2, 78540, Note_on_c, 0, 56, 58
2, 78594, Note_on_c, 0, 65, 0
2, 78672, Note_on_c, 0, 56, 0
2, 78718, Note_on_c, 0, 76, 0
2, 78758, Control_c, 0, 64, 0
2, 78782, Note_on_c, 0, 80, 93
2, 78788, Note_on_c, 0, 79, 0
2, 78790, Note_on_c, 0, 77, 89
2, 78798, Note_on_c, 0, 49, 73
2, 78850, Note_on_c, 0, 49, 0
2, 78882, Note_on_c, 0, 77, 0
2, 78912, Note_on_c, 0, 80, 0
2, 78926, Control_c, 0, 64, 127
2, 79054, Note_on_c, 0, 61, 66
2, 79058, Note_on_c, 0, 68, 81
2, 79070, Note_on_c, 0, 53, 76
2, 79106, Note_on_c, 0, 68, 0
2, 79126, Note_on_c, 0, 61, 0
2, 79132, Note_on_c, 0, 53, 0
2, 79176, Note_on_c, 0, 68, 72
2, 79218, Note_on_c, 0, 68, 0
2, 79290, Note_on_c, 0, 65, 65
2, 79292, Note_on_c, 0, 68, 68
2, 79300, Note_on_c, 0, 56, 58
2, 79328, Note_on_c, 0, 65, 0
2, 79362, Note_on_c, 0, 56, 0
2, 79464, Control_c, 0, 64, 0
2, 79528, Note_on_c, 0, 68, 0
2, 79552, Note_on_c, 0, 80, 96
2, 79566, Note_on_c, 0, 42, 79
2, 79602, Note_on_c, 0, 42, 0
2, 79680, Control_c, 0, 64, 127
2, 79686, Note_on_c, 0, 80, 0
2, 79856, Note_on_c, 0, 70, 81
2, 79872, Note_on_c, 0, 54, 58
2, 79875, Note_on_c, 0, 62, 67
2, 79938, Note_on_c, 0, 54, 0
2, 79942, Note_on_c, 0, 62, 0
2, 79967, Note_on_c, 0, 80, 92
2, 80008, Note_on_c, 0, 70, 0
2, 80106, Note_on_c, 0, 78, 93
2, 80106, Note_on_c, 0, 63, 74
2, 80109, Note_on_c, 0, 75, 76
2, 80122, Note_on_c, 0, 58, 55
2, 80154, Note_on_c, 0, 63, 0
2, 80168, Note_on_c, 0, 80, 0
2, 80170, Note_on_c, 0, 58, 0
2, 80294, Control_c, 0, 64, 0
2, 80384, Note_on_c, 0, 44, 86
2, 80390, Note_on_c, 0, 75, 0
2, 80422, Note_on_c, 0, 44, 0
2, 80488, Note_on_c, 0, 78, 0
2, 80494, Control_c, 0, 64, 127
2, 80654, Note_on_c, 0, 68, 85
2, 80654, Note_on_c, 0, 60, 78
2, 80678, Note_on_c, 0, 53, 75
2, 80790, Note_on_c, 0, 78, 79
2, 80812, Note_on_c, 0, 68, 0
2, 80818, Note_on_c, 0, 53, 0
2, 80878, Note_on_c, 0, 60, 0
2, 80922, Note_on_c, 0, 77, 91
2, 80928, Note_on_c, 0, 73, 63
2, 80930, Note_on_c, 0, 61, 84
2, 80938, Note_on_c, 0, 56, 64
2, 80942, Note_on_c, 0, 78, 0
2, 81024, Note_on_c, 0, 56, 0
2, 81032, Note_on_c, 0, 61, 0
2, 81124, Control_c, 0, 64, 0
2, 81150, Note_on_c, 0, 73, 0
2, 81190, Note_on_c, 0, 44, 89
2, 81236, Note_on_c, 0, 44, 0
2, 81324, Control_c, 0, 64, 127
2, 81360, Note_on_c, 0, 77, 0
2, 81448, Note_on_c, 0, 66, 78
2, 81451, Note_on_c, 0, 60, 75
2, 81454, Note_on_c, 0, 56, 68
2, 81460, Note_on_c, 0, 51, 67
2, 81514, Note_on_c, 0, 60, 0
2, 81518, Note_on_c, 0, 56, 0
2, 81522, Note_on_c, 0, 51, 0
2, 81570, Note_on_c, 0, 77, 85
2, 81600, Note_on_c, 0, 66, 0
2, 81646, Control_c, 0, 64, 0
2, 81688, Note_on_c, 0, 75, 89
2, 81690, Note_on_c, 0, 66, 73
2, 81698, Note_on_c, 0, 60, 76
2, 81706, Note_on_c, 0, 56, 61
2, 81709, Note_on_c, 0, 51, 61
2, 81738, Note_on_c, 0, 77, 0
2, 81760, Note_on_c, 0, 60, 0
2, 81774, Note_on_c, 0, 56, 0
2, 81774, Note_on_c, 0, 51, 0
2, 81924, Note_on_c, 0, 66, 0
2, 81962, Note_on_c, 0, 73, 87
2, 81962, Note_on_c, 0, 65, 85
2, 81970, Note_on_c, 0, 61, 85
2, 81982, Note_on_c, 0, 56, 63
2, 81986, Note_on_c, 0, 49, 62
2, 82012, Note_on_c, 0, 61, 0
2, 82026, Note_on_c, 0, 65, 0
2, 82028, Note_on_c, 0, 56, 0
2, 82030, Note_on_c, 0, 75, 0
2, 82032, Note_on_c, 0, 49, 0
2, 82060, Control_c, 0, 64, 127
2, 82098, Note_on_c, 0, 73, 0
2, 82260, Control_c, 0, 64, 0
2, 82262, Note_on_c, 0, 68, 86
2, 82314, Note_on_c, 0, 68, 0
2, 82378, Note_on_c, 0, 68, 81
2, 82436, Note_on_c, 0, 68, 0
2, 82512, Note_on_c, 0, 68, 69
2, 82840, Note_on_c, 0, 68, 0
2, 82856, Note_on_c, 0, 78, 55
2, 82864, Note_on_c, 0, 75, 34
2, 82872, Note_on_c, 0, 44, 37
2, 82978, Note_on_c, 0, 44, 0
2, 83028, Control_c, 0, 64, 127
2, 83350, Note_on_c, 0, 51, 2
2, 83354, Note_on_c, 0, 60, 23
2, 83416, Note_on_c, 0, 51, 0
2, 83642, Note_on_c, 0, 75, 0
2, 83708, Note_on_c, 0, 66, 27
2, 83724, Note_on_c, 0, 78, 0
2, 83724, Note_on_c, 0, 74, 36
2, 83740, Note_on_c, 0, 56, 26
2, 83740, Note_on_c, 0, 71, 15
2, 83748, Note_on_c, 0, 60, 0
2, 83788, Note_on_c, 0, 66, 0
2, 83810, Note_on_c, 0, 56, 0
2, 83998, Note_on_c, 0, 71, 0
2, 84044, Note_on_c, 0, 74, 0
2, 84056, Note_on_c, 0, 75, 46
2, 84058, Control_c, 0, 64, 0
2, 84074, Note_on_c, 0, 44, 30
2, 84074, Note_on_c, 0, 72, 33
2, 84190, Note_on_c, 0, 44, 0
2, 84193, Note_on_c, 0, 72, 0
2, 84204, Note_on_c, 0, 75, 0
2, 84212, Control_c, 0, 64, 127
2, 84370, Note_on_c, 0, 68, 41
2, 84378, Note_on_c, 0, 51, 35
2, 84380, Note_on_c, 0, 60, 26
2, 84428, Note_on_c, 0, 68, 0
2, 84484, Note_on_c, 0, 68, 64
2, 84490, Note_on_c, 0, 60, 0
2, 84520, Note_on_c, 0, 51, 0
2, 84560, Note_on_c, 0, 68, 0
2, 84622, Note_on_c, 0, 68, 65
2, 84650, Note_on_c, 0, 66, 42
2, 84662, Note_on_c, 0, 56, 25
2, 84712, Note_on_c, 0, 66, 0
2, 84728, Note_on_c, 0, 56, 0
2, 84802, Note_on_c, 0, 68, 0
2, 84912, Note_on_c, 0, 82, 68
2, 84918, Control_c, 0, 64, 0
2, 84922, Note_on_c, 0, 78, 62
2, 84940, Note_on_c, 0, 49, 43
2, 85068, Note_on_c, 0, 49, 0
2, 85118, Control_c, 0, 64, 127
2, 85206, Note_on_c, 0, 61, 49
2, 85232, Note_on_c, 0, 53, 59
2, 85308, Note_on_c, 0, 53, 0
2, 85456, Note_on_c, 0, 82, 0
2, 85476, Note_on_c, 0, 61, 0
2, 85500, Note_on_c, 0, 79, 85
2, 85508, Note_on_c, 0, 56, 36
2, 85510, Note_on_c, 0, 76, 44
2, 85510, Note_on_c, 0, 65, 44
2, 85568, Note_on_c, 0, 65, 0
2, 85614, Note_on_c, 0, 56, 0
2, 85632, Note_on_c, 0, 78, 0
2, 85652, Note_on_c, 0, 76, 0
2, 85748, Control_c, 0, 64, 0
2, 85768, Note_on_c, 0, 49, 45
2, 85782, Note_on_c, 0, 79, 0
2, 85786, Note_on_c, 0, 80, 62
2, 85796, Note_on_c, 0, 77, 61
2, 85900, Note_on_c, 0, 49, 0
2, 85914, Note_on_c, 0, 80, 0
2, 85922, Note_on_c, 0, 77, 0
2, 85932, Control_c, 0, 64, 127
2, 86110, Note_on_c, 0, 68, 52
2, 86120, Note_on_c, 0, 61, 35
2, 86138, Note_on_c, 0, 53, 39
2, 86162, Note_on_c, 0, 68, 0
2, 86202, Note_on_c, 0, 53, 0
2, 86216, Note_on_c, 0, 68, 66
2, 86222, Note_on_c, 0, 61, 0
2, 86268, Note_on_c, 0, 68, 0
2, 86322, Note_on_c, 0, 68, 72
2, 86354, Note_on_c, 0, 56, 36
2, 86358, Note_on_c, 0, 65, 29
2, 86418, Note_on_c, 0, 56, 0
2, 86420, Note_on_c, 0, 65, 0
2, 86532, Control_c, 0, 64, 0
2, 86612, Note_on_c, 0, 78, 81
2, 86616, Note_on_c, 0, 75, 67
2, 86630, Note_on_c, 0, 44, 54
2, 86636, Note_on_c, 0, 68, 0
2, 86700, Note_on_c, 0, 44, 0
2, 86762, Control_c, 0, 64, 127
2, 86898, Note_on_c, 0, 60, 51
2, 86916, Note_on_c, 0, 51, 46
2, 86974, Note_on_c, 0, 51, 0
2, 87176, Note_on_c, 0, 75, 0
2, 87250, Note_on_c, 0, 66, 36
2, 87258, Note_on_c, 0, 71, 60
2, 87262, Note_on_c, 0, 74, 67
2, 87266, Note_on_c, 0, 56, 38
2, 87288, Note_on_c, 0, 78, 0
2, 87314, Note_on_c, 0, 66, 0
2, 87328, Note_on_c, 0, 60, 0
2, 87350, Note_on_c, 0, 56, 0
2, 87450, Note_on_c, 0, 71, 0
2, 87516, Control_c, 0, 64, 0
2, 87546, Note_on_c, 0, 74, 0
2, 87548, Note_on_c, 0, 44, 53
2, 87562, Note_on_c, 0, 75, 65
2, 87568, Note_on_c, 0, 72, 59
2, 87652, Note_on_c, 0, 72, 0
2, 87658, Note_on_c, 0, 44, 0
2, 87684, Note_on_c, 0, 75, 0
2, 87700, Control_c, 0, 64, 127
2, 87868, Note_on_c, 0, 51, 42
2, 87870, Note_on_c, 0, 68, 55
2, 87884, Note_on_c, 0, 60, 34
2, 87918, Note_on_c, 0, 68, 0
2, 87942, Note_on_c, 0, 51, 0
2, 87986, Note_on_c, 0, 68, 52
2, 88040, Note_on_c, 0, 68, 0
2, 88110, Note_on_c, 0, 68, 61
2, 88140, Note_on_c, 0, 56, 35
2, 88146, Note_on_c, 0, 66, 35
2, 88226, Note_on_c, 0, 66, 0
2, 88234, Note_on_c, 0, 60, 0
2, 88292, Note_on_c, 0, 56, 0
2, 88376, Control_c, 0, 64, 0
2, 88388, Note_on_c, 0, 78, 65
2, 88388, Note_on_c, 0, 70, 56
2, 88406, Note_on_c, 0, 68, 0
2, 88428, Note_on_c, 0, 49, 41
2, 88560, Control_c, 0, 64, 127
2, 88612, Note_on_c, 0, 78, 0
2, 88668, Control_c, 0, 64, 0
2, 88696, Note_on_c, 0, 68, 41
2, 88698, Note_on_c, 0, 77, 58
2, 88704, Note_on_c, 0, 56, 38
2, 88738, Note_on_c, 0, 70, 0
2, 88832, Note_on_c, 0, 68, 0
2, 88868, Control_c, 0, 64, 127
2, 88956, Note_on_c, 0, 56, 0
2, 88960, Control_c, 0, 64, 0
2, 88988, Note_on_c, 0, 77, 0
2, 89000, Note_on_c, 0, 75, 44
2, 89008, Note_on_c, 0, 66, 31
2, 89022, Note_on_c, 0, 60, 29
2, 89120, Note_on_c, 0, 49, 0
2, 89128, Note_on_c, 0, 60, 0
2, 89130, Control_c, 0, 64, 127
2, 89260, Note_on_c, 0, 66, 0
2, 89328, Control_c, 0, 64, 0
2, 89352, Note_on_c, 0, 73, 38
2, 89352, Note_on_c, 0, 61, 32
2, 89356, Note_on_c, 0, 75, 0
2, 89370, Note_on_c, 0, 49, 21
2, 89374, Note_on_c, 0, 65, 24
2, 89504, Note_on_c, 0, 65, 0
2, 89506, Note_on_c, 0, 49, 0
2, 89526, Note_on_c, 0, 61, 0
2, 89529, Control_c, 0, 64, 127
2, 89556, Note_on_c, 0, 73, 0
2, 89724, Note_on_c, 0, 61, 28
2, 89729, Note_on_c, 0, 68, 35
2, 89764, Note_on_c, 0, 53, 36
2, 89794, Note_on_c, 0, 68, 0
2, 89836, Note_on_c, 0, 53, 0
2, 89848, Note_on_c, 0, 68, 62
2, 89882, Note_on_c, 0, 61, 0
2, 89916, Note_on_c, 0, 68, 0
2, 89976, Note_on_c, 0, 68, 64
2, 90002, Note_on_c, 0, 65, 38
2, 90012, Note_on_c, 0, 56, 37
2, 90052, Note_on_c, 0, 65, 0
2, 90086, Note_on_c, 0, 56, 0
2, 90266, Control_c, 0, 64, 0
2, 90278, Note_on_c, 0, 78, 90
2, 90286, Note_on_c, 0, 75, 71
2, 90308, Note_on_c, 0, 44, 50
2, 90330, Note_on_c, 0, 68, 0
2, 90426, Note_on_c, 0, 44, 0
2, 90480, Control_c, 0, 64, 127
2, 90584, Note_on_c, 0, 60, 50
2, 90608, Note_on_c, 0, 51, 52
2, 90668, Note_on_c, 0, 51, 0
2, 90850, Note_on_c, 0, 75, 0
2, 90904, Note_on_c, 0, 66, 60
2, 90904, Note_on_c, 0, 71, 85
2, 90907, Note_on_c, 0, 74, 85
2, 90920, Note_on_c, 0, 56, 47
2, 90950, Note_on_c, 0, 78, 0
2, 90970, Note_on_c, 0, 60, 0
2, 90980, Note_on_c, 0, 66, 0
2, 91056, Note_on_c, 0, 56, 0
2, 91130, Note_on_c, 0, 71, 0
2, 91142, Control_c, 0, 64, 0
2, 91180, Note_on_c, 0, 74, 0
2, 91194, Note_on_c, 0, 75, 86
2, 91198, Note_on_c, 0, 44, 62
2, 91200, Note_on_c, 0, 72, 82
2, 91246, Note_on_c, 0, 44, 0
2, 91294, Control_c, 0, 64, 127
2, 91316, Note_on_c, 0, 72, 0
2, 91358, Note_on_c, 0, 75, 0
2, 91476, Note_on_c, 0, 68, 82
2, 91484, Note_on_c, 0, 60, 69
2, 91494, Note_on_c, 0, 51, 53
2, 91542, Note_on_c, 0, 68, 0
2, 91578, Note_on_c, 0, 51, 0
2, 91600, Note_on_c, 0, 68, 85
2, 91670, Note_on_c, 0, 68, 0
2, 91736, Note_on_c, 0, 66, 74
2, 91744, Note_on_c, 0, 68, 90
2, 91747, Note_on_c, 0, 56, 60
2, 91768, Note_on_c, 0, 60, 0
2, 91790, Note_on_c, 0, 66, 0
2, 91834, Note_on_c, 0, 56, 0
2, 91906, Note_on_c, 0, 68, 0
2, 92110, Control_c, 0, 64, 0
2, 92140, Note_on_c, 0, 82, 92
2, 92142, Note_on_c, 0, 78, 90
2, 92160, Note_on_c, 0, 37, 88
2, 92286, Note_on_c, 0, 37, 0
2, 92324, Control_c, 0, 64, 127
2, 92564, Note_on_c, 0, 61, 77
2, 92578, Note_on_c, 0, 53, 84
2, 92720, Note_on_c, 0, 53, 0
2, 92798, Note_on_c, 0, 61, 0
2, 92801, Note_on_c, 0, 82, 0
2, 92828, Note_on_c, 0, 78, 0
2, 92876, Note_on_c, 0, 79, 101
2, 92882, Note_on_c, 0, 76, 78
2, 92890, Note_on_c, 0, 65, 69
2, 92896, Note_on_c, 0, 56, 61
2, 92988, Note_on_c, 0, 65, 0
2, 93052, Note_on_c, 0, 56, 0
2, 93076, Note_on_c, 0, 76, 0
2, 93124, Control_c, 0, 64, 0
2, 93168, Note_on_c, 0, 80, 90
2, 93170, Note_on_c, 0, 79, 0
2, 93170, Note_on_c, 0, 49, 79
2, 93176, Note_on_c, 0, 77, 88
2, 93276, Note_on_c, 0, 77, 0
2, 93288, Note_on_c, 0, 49, 0
2, 93308, Control_c, 0, 64, 127
2, 93316, Note_on_c, 0, 80, 0
2, 93444, Note_on_c, 0, 68, 78
2, 93448, Note_on_c, 0, 61, 66
2, 93454, Note_on_c, 0, 53, 85
2, 93508, Note_on_c, 0, 68, 0
2, 93542, Note_on_c, 0, 53, 0
2, 93548, Note_on_c, 0, 61, 0
2, 93566, Note_on_c, 0, 68, 81
2, 93610, Note_on_c, 0, 68, 0
2, 93686, Note_on_c, 0, 68, 76
2, 93688, Note_on_c, 0, 65, 65
2, 93694, Note_on_c, 0, 56, 63
2, 93724, Note_on_c, 0, 65, 0
2, 93780, Note_on_c, 0, 56, 0
2, 93922, Control_c, 0, 64, 0
2, 93974, Note_on_c, 0, 68, 0
2, 93990, Note_on_c, 0, 80, 100
2, 94004, Note_on_c, 0, 42, 83
2, 94042, Note_on_c, 0, 42, 0
2, 94138, Control_c, 0, 64, 127
2, 94156, Note_on_c, 0, 80, 0
2, 94322, Note_on_c, 0, 70, 81
2, 94322, Note_on_c, 0, 54, 64
2, 94324, Note_on_c, 0, 62, 77
2, 94472, Note_on_c, 0, 70, 0
2, 94477, Note_on_c, 0, 80, 88
2, 94524, Note_on_c, 0, 62, 0
2, 94556, Note_on_c, 0, 54, 0
2, 94642, Note_on_c, 0, 78, 93
2, 94644, Note_on_c, 0, 63, 76
2, 94644, Note_on_c, 0, 75, 75
2, 94666, Note_on_c, 0, 58, 60
2, 94698, Note_on_c, 0, 63, 0
2, 94704, Note_on_c, 0, 80, 0
2, 94716, Note_on_c, 0, 58, 0
2, 94844, Control_c, 0, 64, 0
2, 94930, Note_on_c, 0, 44, 88
2, 94966, Note_on_c, 0, 75, 0
2, 94978, Note_on_c, 0, 44, 0
2, 95060, Control_c, 0, 64, 127
2, 95120, Note_on_c, 0, 78, 0
2, 95192, Note_on_c, 0, 68, 81
2, 95196, Note_on_c, 0, 60, 80
2, 95212, Note_on_c, 0, 53, 80
2, 95282, Note_on_c, 0, 53, 0
2, 95308, Note_on_c, 0, 78, 78
2, 95316, Note_on_c, 0, 68, 0
2, 95328, Note_on_c, 0, 60, 0
2, 95404, Note_on_c, 0, 78, 0
2, 95444, Note_on_c, 0, 73, 74
2, 95444, Note_on_c, 0, 77, 93
2, 95450, Note_on_c, 0, 61, 84
2, 95465, Note_on_c, 0, 56, 68
2, 95528, Note_on_c, 0, 56, 0
2, 95564, Note_on_c, 0, 61, 0
2, 95628, Control_c, 0, 64, 0
2, 95728, Note_on_c, 0, 44, 86
2, 95784, Note_on_c, 0, 44, 0
2, 95828, Control_c, 0, 64, 127
2, 95852, Note_on_c, 0, 77, 0
2, 95932, Note_on_c, 0, 73, 0
2, 95976, Note_on_c, 0, 66, 69
2, 95988, Note_on_c, 0, 56, 69
2, 95990, Note_on_c, 0, 60, 71
2, 96002, Note_on_c, 0, 51, 59
2, 96012, Control_c, 0, 64, 0
2, 96054, Note_on_c, 0, 56, 0
2, 96064, Note_on_c, 0, 51, 0
2, 96066, Note_on_c, 0, 60, 0
2, 96092, Note_on_c, 0, 77, 81
2, 96130, Note_on_c, 0, 66, 0
2, 96224, Note_on_c, 0, 75, 90
2, 96227, Note_on_c, 0, 66, 73
2, 96230, Note_on_c, 0, 60, 87
2, 96240, Note_on_c, 0, 51, 76
2, 96242, Note_on_c, 0, 56, 65
2, 96274, Note_on_c, 0, 77, 0
2, 96418, Note_on_c, 0, 60, 0
2, 96456, Note_on_c, 0, 56, 0
2, 96502, Note_on_c, 0, 66, 0
2, 96524, Note_on_c, 0, 51, 0
2, 96534, Note_on_c, 0, 73, 91
2, 96534, Note_on_c, 0, 65, 94
2, 96537, Note_on_c, 0, 61, 89
2, 96537, Note_on_c, 0, 56, 58
2, 96546, Note_on_c, 0, 49, 70
2, 96600, Note_on_c, 0, 75, 0
2, 96646, Note_on_c, 0, 49, 0
2, 96662, Note_on_c, 0, 61, 0
2, 96686, Note_on_c, 0, 56, 0
2, 96688, Control_c, 0, 64, 127
2, 96758, Note_on_c, 0, 65, 0
2, 96822, Note_on_c, 0, 73, 0
2, 96904, Control_c, 0, 64, 0
2, 97210, Note_on_c, 0, 61, 90
2, 97213, Note_on_c, 0, 77, 100
2, 97218, Note_on_c, 0, 65, 92
2, 97222, Note_on_c, 0, 56, 69
2, 97224, Note_on_c, 0, 49, 73
2, 97256, Control_c, 0, 64, 127
2, 97318, Note_on_c, 0, 65, 0
2, 97344, Note_on_c, 0, 61, 0
2, 97347, Note_on_c, 0, 49, 0
2, 97360, Note_on_c, 0, 77, 0
2, 97366, Note_on_c, 0, 56, 0
2, 97522, Note_on_c, 0, 77, 97
2, 97534, Note_on_c, 0, 67, 92
2, 97538, Note_on_c, 0, 61, 100
2, 97542, Note_on_c, 0, 75, 95
2, 97546, Note_on_c, 0, 51, 89
2, 97552, Note_on_c, 0, 58, 79
2, 97586, Note_on_c, 0, 67, 0
2, 97594, Control_c, 0, 64, 0
2, 97612, Note_on_c, 0, 77, 0
2, 97626, Note_on_c, 0, 61, 0
2, 97650, Note_on_c, 0, 58, 0
2, 97654, Note_on_c, 0, 51, 0
2, 97680, Note_on_c, 0, 75, 0
2, 97806, Note_on_c, 0, 67, 83
2, 97856, Note_on_c, 0, 67, 0
2, 98040, Note_on_c, 0, 77, 87
2, 98050, Note_on_c, 0, 61, 85
2, 98052, Note_on_c, 0, 67, 80
2, 98060, Note_on_c, 0, 75, 89
2, 98064, Note_on_c, 0, 51, 72
2, 98068, Note_on_c, 0, 58, 67
2, 98082, Note_on_c, 0, 77, 0
2, 98102, Note_on_c, 0, 67, 0
2, 98118, Note_on_c, 0, 51, 0
2, 98118, Note_on_c, 0, 58, 0
2, 98142, Note_on_c, 0, 61, 0
2, 98180, Note_on_c, 0, 75, 0
2, 98332, Note_on_c, 0, 67, 87
2, 98332, Note_on_c, 0, 61, 90
2, 98338, Note_on_c, 0, 51, 86
2, 98340, Note_on_c, 0, 58, 64
2, 98386, Note_on_c, 0, 58, 0
2, 98398, Note_on_c, 0, 51, 0
2, 98424, Note_on_c, 0, 61, 0
2, 98432, Note_on_c, 0, 67, 0
2, 98578, Note_on_c, 0, 77, 81
2, 98596, Note_on_c, 0, 67, 71
2, 98618, Note_on_c, 0, 75, 73
2, 98650, Note_on_c, 0, 77, 0
2, 98656, Note_on_c, 0, 67, 0
2, 98694, Note_on_c, 0, 75, 0
2, 98836, Note_on_c, 0, 61, 69
2, 98844, Note_on_c, 0, 67, 64
2, 98850, Note_on_c, 0, 58, 42
2, 98854, Note_on_c, 0, 51, 55
2, 98880, Note_on_c, 0, 61, 0
2, 98896, Note_on_c, 0, 67, 0
2, 98900, Note_on_c, 0, 51, 0
2, 98908, Note_on_c, 0, 58, 0
2, 99110, Note_on_c, 0, 68, 59
2, 99118, Note_on_c, 0, 44, 66
2, 99164, Note_on_c, 0, 44, 0
2, 99204, Note_on_c, 0, 68, 0
2, 99216, Note_on_c, 0, 72, 73
2, 99254, Control_c, 0, 64, 127
2, 99334, Note_on_c, 0, 72, 0
2, 99340, Note_on_c, 0, 75, 73
2, 99358, Note_on_c, 0, 60, 47
2, 99364, Note_on_c, 0, 56, 45
2, 99370, Note_on_c, 0, 51, 34
2, 99428, Note_on_c, 0, 60, 0
2, 99432, Note_on_c, 0, 56, 0
2, 99440, Note_on_c, 0, 51, 0
2, 99450, Note_on_c, 0, 80, 79
2, 99466, Note_on_c, 0, 75, 0
2, 99578, Control_c, 0, 64, 0
2, 99581, Note_on_c, 0, 84, 95
2, 99608, Note_on_c, 0, 80, 0
2, 99608, Note_on_c, 0, 60, 59
2, 99614, Note_on_c, 0, 51, 52
2, 99622, Note_on_c, 0, 56, 48
2, 99704, Note_on_c, 0, 60, 0
2, 99738, Note_on_c, 0, 56, 0
2, 99764, Note_on_c, 0, 51, 0
2, 99876, Note_on_c, 0, 80, 72
2, 99880, Note_on_c, 0, 44, 74
2, 99884, Note_on_c, 0, 84, 0
2, 99884, Control_c, 0, 64, 127
2, 99920, Note_on_c, 0, 44, 0
2, 99930, Note_on_c, 0, 80, 0
2, 99952, Note_on_c, 0, 82, 63
2, 100034, Note_on_c, 0, 80, 62
2, 100038, Control_c, 0, 64, 0
2, 100076, Note_on_c, 0, 82, 0
2, 100096, Note_on_c, 0, 59, 56
2, 100100, Note_on_c, 0, 56, 52
2, 100116, Note_on_c, 0, 50, 57
2, 100146, Note_on_c, 0, 77, 71
2, 100168, Note_on_c, 0, 80, 0
2, 100168, Note_on_c, 0, 56, 0
2, 100172, Note_on_c, 0, 59, 0
2, 100212, Note_on_c, 0, 50, 0
2, 100214, Note_on_c, 0, 77, 0
2, 100227, Note_on_c, 0, 53, 61
2, 100252, Note_on_c, 0, 74, 63
2, 100309, Note_on_c, 0, 53, 0
2, 100316, Note_on_c, 0, 74, 0
2, 100349, Note_on_c, 0, 51, 46
2, 100364, Note_on_c, 0, 75, 63
2, 100366, Note_on_c, 0, 60, 41
2, 100376, Note_on_c, 0, 56, 41
2, 100432, Note_on_c, 0, 60, 0
2, 100450, Note_on_c, 0, 56, 0
2, 100472, Note_on_c, 0, 51, 0
2, 100498, Control_c, 0, 64, 127
2, 100550, Note_on_c, 0, 75, 0
2, 100606, Control_c, 0, 64, 0
2, 100646, Note_on_c, 0, 77, 94
2, 100658, Note_on_c, 0, 67, 83
2, 100660, Note_on_c, 0, 61, 85
2, 100662, Note_on_c, 0, 75, 95
2, 100670, Note_on_c, 0, 51, 80
2, 100674, Note_on_c, 0, 58, 65
2, 100704, Note_on_c, 0, 67, 0
2, 100707, Note_on_c, 0, 61, 0
2, 100712, Note_on_c, 0, 51, 0
2, 100732, Note_on_c, 0, 77, 0
2, 100752, Note_on_c, 0, 75, 0
2, 100766, Note_on_c, 0, 58, 0
2, 100924, Note_on_c, 0, 67, 76
2, 100974, Note_on_c, 0, 67, 0
2, 101158, Note_on_c, 0, 77, 74
2, 101174, Note_on_c, 0, 61, 73
2, 101176, Note_on_c, 0, 67, 52
2, 101184, Note_on_c, 0, 75, 74
2, 101184, Note_on_c, 0, 51, 67
2, 101187, Note_on_c, 0, 58, 54
2, 101212, Note_on_c, 0, 77, 0
2, 101228, Note_on_c, 0, 61, 0
2, 101231, Note_on_c, 0, 51, 0
2, 101238, Note_on_c, 0, 67, 0
2, 101238, Note_on_c, 0, 58, 0
2, 101241, Note_on_c, 0, 75, 0
2, 101436, Note_on_c, 0, 61, 83
2, 101439, Note_on_c, 0, 67, 76
2, 101444, Note_on_c, 0, 51, 76
2, 101448, Note_on_c, 0, 58, 58
2, 101486, Note_on_c, 0, 61, 0
2, 101500, Note_on_c, 0, 51, 0
2, 101520, Note_on_c, 0, 58, 0
2, 101562, Note_on_c, 0, 67, 0
2, 101686, Note_on_c, 0, 77, 71
2, 101716, Note_on_c, 0, 67, 63
2, 101720, Note_on_c, 0, 75, 69
2, 101728, Note_on_c, 0, 77, 0
2, 101764, Note_on_c, 0, 67, 0
2, 101774, Note_on_c, 0, 75, 0
2, 101944, Note_on_c, 0, 61, 59
2, 101956, Note_on_c, 0, 67, 55
2, 101958, Note_on_c, 0, 58, 43
2, 101968, Note_on_c, 0, 51, 43
2, 101992, Note_on_c, 0, 61, 0
2, 102010, Note_on_c, 0, 58, 0
2, 102024, Note_on_c, 0, 67, 0
2, 102034, Note_on_c, 0, 51, 0
2, 102204, Note_on_c, 0, 39, 60
2, 102228, Note_on_c, 0, 63, 55
2, 102248, Note_on_c, 0, 39, 0
2, 102282, Note_on_c, 0, 63, 0
2, 102302, Note_on_c, 0, 65, 51
2, 102326, Control_c, 0, 64, 127
2, 102378, Note_on_c, 0, 63, 54
2, 102384, Note_on_c, 0, 65, 0
2, 102482, Note_on_c, 0, 62, 68
2, 102484, Note_on_c, 0, 61, 46
2, 102490, Note_on_c, 0, 55, 49
2, 102494, Note_on_c, 0, 63, 0
2, 102556, Note_on_c, 0, 61, 0
2, 102570, Note_on_c, 0, 55, 0
2, 102630, Note_on_c, 0, 62, 0
2, 102632, Note_on_c, 0, 63, 70
2, 102718, Note_on_c, 0, 63, 0
2, 102748, Note_on_c, 0, 61, 52
2, 102754, Note_on_c, 0, 51, 31
2, 102758, Note_on_c, 0, 72, 63
2, 102804, Note_on_c, 0, 61, 0
2, 102818, Note_on_c, 0, 51, 0
2, 102824, Note_on_c, 0, 72, 0
2, 102868, Note_on_c, 0, 70, 52
2, 102918, Note_on_c, 0, 70, 0
2, 102942, Note_on_c, 0, 68, 33
2, 102956, Control_c, 0, 64, 0
2, 102968, Note_on_c, 0, 70, 73
2, 103004, Note_on_c, 0, 68, 0
2, 103016, Note_on_c, 0, 44, 56
2, 103056, Note_on_c, 0, 68, 75
2, 103116, Note_on_c, 0, 70, 0
2, 103166, Note_on_c, 0, 44, 0
2, 103192, Note_on_c, 0, 67, 75
2, 103204, Note_on_c, 0, 68, 0
2, 103218, Control_c, 0, 64, 127
2, 103324, Note_on_c, 0, 56, 55
2, 103324, Note_on_c, 0, 68, 74
2, 103328, Note_on_c, 0, 60, 45
2, 103346, Note_on_c, 0, 67, 0
2, 103384, Note_on_c, 0, 56, 0
2, 103394, Note_on_c, 0, 60, 0
2, 103440, Note_on_c, 0, 70, 75
2, 103468, Note_on_c, 0, 68, 0
2, 103544, Note_on_c, 0, 70, 0
2, 103549, Note_on_c, 0, 60, 60
2, 103558, Note_on_c, 0, 72, 83
2, 103564, Note_on_c, 0, 51, 52
2, 103598, Note_on_c, 0, 60, 0
2, 103616, Note_on_c, 0, 51, 0
2, 103638, Note_on_c, 0, 72, 0
2, 103666, Note_on_c, 0, 73, 73
2, 103720, Note_on_c, 0, 73, 0
2, 103790, Note_on_c, 0, 61, 87
2, 103790, Note_on_c, 0, 77, 98
2, 103798, Note_on_c, 0, 67, 98
2, 103802, Note_on_c, 0, 75, 99
2, 103806, Note_on_c, 0, 51, 81
2, 103808, Note_on_c, 0, 58, 66
2, 103816, Control_c, 0, 64, 0
2, 103864, Note_on_c, 0, 67, 0
2, 103872, Note_on_c, 0, 51, 0
2, 103874, Note_on_c, 0, 58, 0
2, 103900, Note_on_c, 0, 61, 0
2, 103906, Note_on_c, 0, 77, 0
2, 103942, Note_on_c, 0, 75, 0
2, 104090, Note_on_c, 0, 67, 74
2, 104148, Note_on_c, 0, 67, 0
2, 104332, Note_on_c, 0, 77, 81
2, 104342, Note_on_c, 0, 61, 73
2, 104345, Note_on_c, 0, 67, 71
2, 104350, Note_on_c, 0, 75, 81
2, 104352, Note_on_c, 0, 51, 67
2, 104358, Note_on_c, 0, 58, 51
2, 104382, Note_on_c, 0, 77, 0
2, 104396, Note_on_c, 0, 67, 0
2, 104399, Note_on_c, 0, 61, 0
2, 104402, Note_on_c, 0, 51, 0
2, 104410, Note_on_c, 0, 58, 0
2, 104470, Note_on_c, 0, 75, 0
2, 104614, Note_on_c, 0, 61, 84
2, 104620, Note_on_c, 0, 67, 82
2, 104622, Note_on_c, 0, 58, 55
2, 104624, Note_on_c, 0, 51, 73
2, 104678, Note_on_c, 0, 61, 0
2, 104678, Note_on_c, 0, 58, 0
2, 104698, Note_on_c, 0, 51, 0
2, 104740, Note_on_c, 0, 67, 0
2, 104858, Note_on_c, 0, 77, 74
2, 104882, Note_on_c, 0, 67, 70
2, 104906, Note_on_c, 0, 75, 73
2, 104934, Note_on_c, 0, 77, 0
2, 104942, Note_on_c, 0, 67, 0
2, 104966, Note_on_c, 0, 75, 0
2, 105144, Note_on_c, 0, 67, 70
2, 105144, Note_on_c, 0, 61, 66
2, 105160, Note_on_c, 0, 51, 52
2, 105164, Note_on_c, 0, 58, 38
2, 105194, Note_on_c, 0, 61, 0
2, 105200, Note_on_c, 0, 67, 0
2, 105222, Note_on_c, 0, 58, 0
2, 105230, Note_on_c, 0, 51, 0
2, 105406, Note_on_c, 0, 68, 63
2, 105412, Note_on_c, 0, 44, 57
2, 105462, Note_on_c, 0, 44, 0
2, 105498, Note_on_c, 0, 68, 0
2, 105510, Note_on_c, 0, 72, 80
2, 105522, Control_c, 0, 64, 127
2, 105635, Note_on_c, 0, 72, 0
2, 105642, Note_on_c, 0, 75, 75
2, 105658, Note_on_c, 0, 56, 44
2, 105661, Note_on_c, 0, 60, 39
2, 105661, Note_on_c, 0, 51, 39
2, 105722, Note_on_c, 0, 56, 0
2, 105730, Note_on_c, 0, 51, 0
2, 105732, Note_on_c, 0, 60, 0
2, 105760, Note_on_c, 0, 75, 0
2, 105760, Note_on_c, 0, 80, 85
2, 105874, Note_on_c, 0, 80, 0
2, 105876, Control_c, 0, 64, 0
2, 105894, Note_on_c, 0, 84, 92
2, 105898, Note_on_c, 0, 60, 57
2, 105918, Note_on_c, 0, 51, 54
2, 105922, Note_on_c, 0, 56, 49
2, 105988, Note_on_c, 0, 60, 0
2, 105996, Note_on_c, 0, 56, 0
2, 106060, Note_on_c, 0, 51, 0
2, 106122, Control_c, 0, 64, 127
2, 106132, Note_on_c, 0, 84, 0
2, 106162, Note_on_c, 0, 80, 72
2, 106170, Note_on_c, 0, 44, 72
2, 106212, Note_on_c, 0, 44, 0
2, 106218, Note_on_c, 0, 80, 0
2, 106236, Note_on_c, 0, 82, 67
2, 106314, Note_on_c, 0, 80, 64
2, 106352, Control_c, 0, 64, 0
2, 106364, Note_on_c, 0, 82, 0
2, 106378, Note_on_c, 0, 56, 52
2, 106392, Note_on_c, 0, 59, 46
2, 106396, Note_on_c, 0, 50, 55
2, 106422, Note_on_c, 0, 77, 65
2, 106464, Note_on_c, 0, 80, 0
2, 106470, Note_on_c, 0, 53, 83
2, 106472, Note_on_c, 0, 59, 0
2, 106484, Note_on_c, 0, 56, 0
2, 106510, Note_on_c, 0, 50, 0
2, 106510, Note_on_c, 0, 77, 0
2, 106518, Note_on_c, 0, 74, 63
2, 106552, Note_on_c, 0, 53, 0
2, 106588, Note_on_c, 0, 74, 0
2, 106626, Note_on_c, 0, 75, 63
2, 106638, Note_on_c, 0, 51, 41
2, 106644, Note_on_c, 0, 56, 36
2, 106650, Note_on_c, 0, 60, 39
2, 106716, Note_on_c, 0, 60, 0
2, 106754, Note_on_c, 0, 51, 0
2, 106760, Note_on_c, 0, 56, 0
2, 106798, Control_c, 0, 64, 127
2, 106800, Note_on_c, 0, 75, 0
2, 106890, Control_c, 0, 64, 0
2, 106902, Note_on_c, 0, 77, 95
2, 106904, Note_on_c, 0, 61, 92
2, 106914, Note_on_c, 0, 67, 89
2, 106914, Note_on_c, 0, 75, 95
2, 106917, Note_on_c, 0, 51, 81
2, 106920, Note_on_c, 0, 58, 72
2, 106960, Note_on_c, 0, 51, 0
2, 106963, Note_on_c, 0, 67, 0
2, 106963, Note_on_c, 0, 58, 0
2, 106968, Note_on_c, 0, 61, 0
2, 107020, Note_on_c, 0, 77, 0
2, 107034, Note_on_c, 0, 75, 0
2, 107182, Note_on_c, 0, 67, 77
2, 107234, Note_on_c, 0, 67, 0
2, 107416, Note_on_c, 0, 77, 80
2, 107436, Note_on_c, 0, 61, 81
2, 107438, Note_on_c, 0, 67, 59
2, 107440, Note_on_c, 0, 51, 79
2, 107442, Note_on_c, 0, 75, 81
2, 107464, Note_on_c, 0, 58, 39
2, 107482, Note_on_c, 0, 77, 0
2, 107496, Note_on_c, 0, 67, 0
2, 107512, Note_on_c, 0, 51, 0
2, 107524, Note_on_c, 0, 61, 0
2, 107524, Note_on_c, 0, 58, 0
2, 107556, Note_on_c, 0, 75, 0
2, 107702, Note_on_c, 0, 61, 81
2, 107708, Note_on_c, 0, 67, 81
2, 107714, Note_on_c, 0, 51, 69
2, 107718, Note_on_c, 0, 58, 64
2, 107766, Control_c, 0, 64, 127
2, 107769, Note_on_c, 0, 58, 0
2, 107792, Note_on_c, 0, 51, 0
2, 107812, Control_c, 0, 64, 0
2, 107816, Note_on_c, 0, 67, 0
2, 107820, Note_on_c, 0, 61, 0
2, 107950, Note_on_c, 0, 77, 81
2, 107964, Note_on_c, 0, 67, 72
2, 107978, Note_on_c, 0, 75, 79
2, 107996, Note_on_c, 0, 77, 0
2, 108016, Note_on_c, 0, 67, 0
2, 108048, Note_on_c, 0, 75, 0
2, 108220, Note_on_c, 0, 67, 66
2, 108248, Note_on_c, 0, 61, 58
2, 108260, Note_on_c, 0, 51, 48
2, 108260, Note_on_c, 0, 58, 32
2, 108288, Note_on_c, 0, 67, 0
2, 108380, Control_c, 0, 64, 127
2, 108418, Note_on_c, 0, 68, 55
2, 108464, Note_on_c, 0, 68, 0
2, 108464, Note_on_c, 0, 70, 63
2, 108484, Note_on_c, 0, 61, 0
2, 108487, Note_on_c, 0, 58, 0
2, 108504, Control_c, 0, 64, 0
2, 108516, Note_on_c, 0, 68, 67
2, 108560, Note_on_c, 0, 56, 34
2, 108568, Note_on_c, 0, 60, 32
2, 108572, Note_on_c, 0, 51, 0
2, 108592, Note_on_c, 0, 70, 0
2, 108708, Note_on_c, 0, 67, 74
2, 108744, Note_on_c, 0, 68, 0
2, 108866, Note_on_c, 0, 68, 73
2, 108872, Control_c, 0, 64, 127
2, 108910, Note_on_c, 0, 67, 0
2, 108970, Note_on_c, 0, 60, 0
2, 108974, Note_on_c, 0, 56, 0
2, 108998, Note_on_c, 0, 70, 71
2, 109038, Note_on_c, 0, 68, 0
2, 109146, Note_on_c, 0, 72, 85
2, 109164, Control_c, 0, 64, 0
2, 109166, Note_on_c, 0, 70, 0
2, 109288, Note_on_c, 0, 73, 83
2, 109344, Note_on_c, 0, 72, 0
2, 109450, Note_on_c, 0, 75, 77
2, 109494, Note_on_c, 0, 73, 0
2, 109624, Note_on_c, 0, 77, 72
2, 109666, Note_on_c, 0, 75, 0
2, 109802, Note_on_c, 0, 78, 69
2, 109870, Note_on_c, 0, 77, 0
2, 110016, Note_on_c, 0, 79, 73
2, 110082, Note_on_c, 0, 78, 0
2, 110316, Control_c, 0, 64, 127
2, 110428, Note_on_c, 0, 82, 34
2, 110460, Note_on_c, 0, 79, 0
2, 110578, Control_c, 0, 64, 0
2, 111146, Control_c, 0, 64, 127
2, 111450, Note_on_c, 0, 80, 40
2, 111468, Note_on_c, 0, 82, 0
2, 111768, Note_on_c, 0, 78, 47
2, 111790, Note_on_c, 0, 80, 0
2, 111798, Note_on_c, 0, 75, 23
2, 111808, Note_on_c, 0, 44, 21
2, 111892, Note_on_c, 0, 44, 0
2, 112324, Note_on_c, 0, 60, 26
2, 112344, Note_on_c, 0, 51, 24
2, 112392, Note_on_c, 0, 75, 0
2, 112442, Note_on_c, 0, 51, 0
2, 112694, Note_on_c, 0, 60, 0
2, 112717, Note_on_c, 0, 66, 26
2, 112722, Note_on_c, 0, 74, 47
2, 112725, Note_on_c, 0, 71, 34
2, 112734, Note_on_c, 0, 56, 24
2, 112742, Note_on_c, 0, 78, 0
2, 112792, Note_on_c, 0, 66, 0
2, 112800, Note_on_c, 0, 56, 0
2, 112858, Note_on_c, 0, 71, 0
2, 113006, Control_c, 0, 64, 0
2, 113040, Note_on_c, 0, 74, 0
2, 113048, Note_on_c, 0, 44, 35
2, 113051, Note_on_c, 0, 75, 48
2, 113068, Note_on_c, 0, 72, 36
2, 113132, Note_on_c, 0, 44, 0
2, 113180, Note_on_c, 0, 72, 0
2, 113204, Control_c, 0, 64, 127
2, 113224, Note_on_c, 0, 75, 0
2, 113413, Note_on_c, 0, 60, 17
2, 113414, Note_on_c, 0, 51, 47
2, 113420, Note_on_c, 0, 68, 33
2, 113474, Note_on_c, 0, 68, 0
2, 113526, Note_on_c, 0, 68, 65
2, 113567, Note_on_c, 0, 51, 0
2, 113582, Note_on_c, 0, 68, 0
2, 113611, Note_on_c, 0, 60, 0
2, 113620, Control_c, 0, 64, 0
2, 113650, Note_on_c, 0, 68, 65
2, 113672, Note_on_c, 0, 66, 39
2, 113676, Note_on_c, 0, 56, 46
2, 113740, Note_on_c, 0, 66, 0
2, 113804, Control_c, 0, 64, 127
2, 113816, Note_on_c, 0, 56, 0
2, 113960, Note_on_c, 0, 68, 0
2, 114060, Note_on_c, 0, 82, 85
2, 114070, Note_on_c, 0, 78, 74
2, 114084, Note_on_c, 0, 37, 56
2, 114138, Note_on_c, 0, 37, 0
2, 114430, Note_on_c, 0, 61, 64
2, 114436, Note_on_c, 0, 53, 69
2, 114554, Note_on_c, 0, 53, 0
2, 114574, Note_on_c, 0, 61, 0
2, 114676, Note_on_c, 0, 78, 0
2, 114679, Note_on_c, 0, 82, 0
2, 114718, Note_on_c, 0, 79, 90
2, 114728, Note_on_c, 0, 76, 61
2, 114730, Note_on_c, 0, 65, 51
2, 114746, Note_on_c, 0, 56, 45
2, 114774, Note_on_c, 0, 65, 0
2, 114808, Note_on_c, 0, 56, 0
2, 114916, Note_on_c, 0, 76, 0
2, 114942, Control_c, 0, 64, 0
2, 114998, Note_on_c, 0, 79, 0
2, 115006, Note_on_c, 0, 80, 81
2, 115008, Note_on_c, 0, 77, 76
2, 115014, Note_on_c, 0, 49, 39
2, 115086, Note_on_c, 0, 49, 0
2, 115110, Note_on_c, 0, 77, 0
2, 115126, Control_c, 0, 64, 127
2, 115142, Note_on_c, 0, 80, 0
2, 115304, Note_on_c, 0, 61, 52
2, 115310, Note_on_c, 0, 68, 65
2, 115312, Note_on_c, 0, 53, 71
2, 115368, Note_on_c, 0, 61, 0
2, 115372, Note_on_c, 0, 53, 0
2, 115374, Note_on_c, 0, 68, 0
2, 115430, Note_on_c, 0, 68, 74
2, 115474, Note_on_c, 0, 68, 0
2, 115532, Note_on_c, 0, 65, 55
2, 115542, Note_on_c, 0, 68, 73
2, 115544, Note_on_c, 0, 56, 54
2, 115574, Note_on_c, 0, 65, 0
2, 115602, Note_on_c, 0, 56, 0
2, 115726, Control_c, 0, 64, 0
2, 115800, Note_on_c, 0, 68, 0
2, 115816, Note_on_c, 0, 78, 86
2, 115824, Note_on_c, 0, 75, 68
2, 115836, Note_on_c, 0, 44, 60
2, 115894, Note_on_c, 0, 44, 0
2, 115970, Control_c, 0, 64, 127
2, 116106, Note_on_c, 0, 60, 50
2, 116130, Note_on_c, 0, 51, 45
2, 116188, Note_on_c, 0, 51, 0
2, 116196, Note_on_c, 0, 75, 0
2, 116402, Note_on_c, 0, 66, 45
2, 116408, Note_on_c, 0, 74, 73
2, 116410, Note_on_c, 0, 60, 0
2, 116414, Note_on_c, 0, 71, 63
2, 116418, Note_on_c, 0, 78, 0
2, 116426, Note_on_c, 0, 56, 29
2, 116456, Note_on_c, 0, 66, 0
2, 116486, Note_on_c, 0, 71, 0
2, 116492, Note_on_c, 0, 56, 0
2, 116648, Control_c, 0, 64, 0
2, 116670, Note_on_c, 0, 74, 0
2, 116670, Note_on_c, 0, 44, 62
2, 116704, Note_on_c, 0, 72, 52
2, 116704, Note_on_c, 0, 75, 62
2, 116784, Note_on_c, 0, 44, 0
2, 116806, Note_on_c, 0, 72, 0
2, 116830, Control_c, 0, 64, 127
2, 116846, Note_on_c, 0, 75, 0
2, 116994, Note_on_c, 0, 68, 59
2, 117008, Note_on_c, 0, 60, 43
2, 117016, Note_on_c, 0, 51, 16
2, 117048, Note_on_c, 0, 68, 0
2, 117088, Note_on_c, 0, 51, 0
2, 117114, Note_on_c, 0, 68, 56
2, 117166, Note_on_c, 0, 68, 0
2, 117210, Note_on_c, 0, 60, 0
2, 117226, Note_on_c, 0, 66, 38
2, 117232, Note_on_c, 0, 68, 65
2, 117246, Note_on_c, 0, 56, 38
2, 117283, Note_on_c, 0, 66, 0
2, 117308, Note_on_c, 0, 56, 0
2, 117442, Note_on_c, 0, 68, 0
2, 117445, Control_c, 0, 64, 0
2, 117486, Note_on_c, 0, 78, 75
2, 117490, Note_on_c, 0, 70, 56
2, 117502, Note_on_c, 0, 49, 58
2, 117620, Note_on_c, 0, 49, 0
2, 117676, Control_c, 0, 64, 127
2, 117686, Note_on_c, 0, 78, 0
2, 117772, Note_on_c, 0, 68, 46
2, 117782, Note_on_c, 0, 77, 75
2, 117788, Note_on_c, 0, 56, 47
2, 117796, Note_on_c, 0, 70, 0
2, 117858, Note_on_c, 0, 56, 0
2, 117886, Note_on_c, 0, 68, 0
2, 118044, Note_on_c, 0, 75, 64
2, 118050, Note_on_c, 0, 77, 0
2, 118050, Note_on_c, 0, 66, 41
2, 118064, Note_on_c, 0, 60, 35
2, 118128, Note_on_c, 0, 60, 0
2, 118190, Note_on_c, 0, 66, 0
2, 118322, Control_c, 0, 64, 0
2, 118394, Note_on_c, 0, 61, 27
2, 118398, Note_on_c, 0, 49, 23
2, 118402, Note_on_c, 0, 73, 53
2, 118404, Note_on_c, 0, 75, 0
2, 118418, Note_on_c, 0, 65, 36
2, 118526, Note_on_c, 0, 49, 0
2, 118528, Note_on_c, 0, 65, 0
2, 118530, Note_on_c, 0, 61, 0
2, 118584, Control_c, 0, 64, 127
2, 118602, Note_on_c, 0, 73, 0
2, 118762, Note_on_c, 0, 61, 37
2, 118788, Note_on_c, 0, 68, 41
2, 118816, Note_on_c, 0, 53, 25
2, 118854, Note_on_c, 0, 68, 0
2, 118878, Note_on_c, 0, 53, 0
2, 118896, Note_on_c, 0, 61, 0
2, 118912, Note_on_c, 0, 68, 62
2, 118980, Note_on_c, 0, 68, 0
2, 119044, Note_on_c, 0, 68, 64
2, 119070, Note_on_c, 0, 65, 31
2, 119072, Note_on_c, 0, 56, 33
2, 119126, Note_on_c, 0, 65, 0
2, 119144, Note_on_c, 0, 56, 0
2, 119304, Control_c, 0, 64, 0
2, 119348, Note_on_c, 0, 78, 88
2, 119354, Note_on_c, 0, 44, 68
2, 119358, Note_on_c, 0, 75, 73
2, 119398, Note_on_c, 0, 68, 0
2, 119488, Note_on_c, 0, 44, 0
2, 119536, Control_c, 0, 64, 127
2, 119640, Note_on_c, 0, 60, 69
2, 119652, Note_on_c, 0, 51, 68
2, 119710, Note_on_c, 0, 51, 0
2, 119804, Note_on_c, 0, 75, 0
2, 119912, Note_on_c, 0, 66, 66
2, 119922, Note_on_c, 0, 74, 92
2, 119924, Note_on_c, 0, 71, 88
2, 119934, Note_on_c, 0, 56, 52
2, 119946, Note_on_c, 0, 78, 0
2, 119952, Note_on_c, 0, 60, 0
2, 119956, Note_on_c, 0, 66, 0
2, 120000, Note_on_c, 0, 56, 0
2, 120092, Note_on_c, 0, 71, 0
2, 120134, Control_c, 0, 64, 0
2, 120178, Note_on_c, 0, 74, 0
2, 120180, Note_on_c, 0, 44, 79
2, 120186, Note_on_c, 0, 75, 88
2, 120189, Note_on_c, 0, 72, 83
2, 120254, Note_on_c, 0, 44, 0
2, 120298, Note_on_c, 0, 72, 0
2, 120320, Control_c, 0, 64, 127
2, 120344, Note_on_c, 0, 75, 0
2, 120476, Note_on_c, 0, 68, 79
2, 120486, Note_on_c, 0, 60, 69
2, 120488, Note_on_c, 0, 51, 51
2, 120522, Note_on_c, 0, 68, 0
2, 120542, Note_on_c, 0, 51, 0
2, 120590, Note_on_c, 0, 68, 72
2, 120646, Note_on_c, 0, 68, 0
2, 120692, Note_on_c, 0, 60, 0
2, 120720, Note_on_c, 0, 66, 77
2, 120722, Note_on_c, 0, 68, 86
2, 120732, Note_on_c, 0, 56, 61
2, 120778, Note_on_c, 0, 66, 0
2, 120804, Note_on_c, 0, 56, 0
2, 120874, Note_on_c, 0, 68, 0
2, 121072, Control_c, 0, 64, 0
2, 121110, Note_on_c, 0, 78, 92
2, 121112, Note_on_c, 0, 82, 92
2, 121124, Note_on_c, 0, 37, 87
2, 121166, Note_on_c, 0, 37, 0
2, 121272, Control_c, 0, 64, 127
2, 121504, Note_on_c, 0, 61, 73
2, 121520, Note_on_c, 0, 53, 78
2, 121628, Note_on_c, 0, 53, 0
2, 121686, Note_on_c, 0, 61, 0
2, 121724, Note_on_c, 0, 82, 0
2, 121746, Note_on_c, 0, 78, 0
2, 121800, Note_on_c, 0, 79, 99
2, 121812, Note_on_c, 0, 76, 74
2, 121815, Note_on_c, 0, 65, 60
2, 121826, Note_on_c, 0, 56, 55
2, 121866, Note_on_c, 0, 65, 0
2, 121944, Note_on_c, 0, 56, 0
2, 121972, Note_on_c, 0, 76, 0
2, 122024, Control_c, 0, 64, 0
2, 122064, Note_on_c, 0, 79, 0
2, 122068, Note_on_c, 0, 80, 88
2, 122080, Note_on_c, 0, 77, 87
2, 122092, Note_on_c, 0, 49, 58
2, 122142, Note_on_c, 0, 49, 0
2, 122192, Note_on_c, 0, 77, 0
2, 122210, Control_c, 0, 64, 127
2, 122216, Note_on_c, 0, 80, 0
2, 122364, Note_on_c, 0, 61, 68
2, 122367, Note_on_c, 0, 68, 81
2, 122388, Note_on_c, 0, 53, 54
2, 122426, Note_on_c, 0, 68, 0
2, 122438, Note_on_c, 0, 61, 0
2, 122442, Note_on_c, 0, 53, 0
2, 122492, Note_on_c, 0, 68, 76
2, 122546, Note_on_c, 0, 68, 0
2, 122606, Note_on_c, 0, 65, 68
2, 122616, Note_on_c, 0, 56, 64
2, 122616, Note_on_c, 0, 68, 81
2, 122642, Note_on_c, 0, 65, 0
2, 122688, Note_on_c, 0, 56, 0
2, 122824, Control_c, 0, 64, 0
2, 122894, Note_on_c, 0, 80, 96
2, 122900, Note_on_c, 0, 68, 0
2, 122904, Note_on_c, 0, 42, 78
2, 122942, Note_on_c, 0, 42, 0
2, 123024, Control_c, 0, 64, 127
2, 123060, Note_on_c, 0, 80, 0
2, 123236, Note_on_c, 0, 70, 83
2, 123238, Note_on_c, 0, 62, 73
2, 123252, Note_on_c, 0, 54, 50
2, 123314, Note_on_c, 0, 54, 0
2, 123376, Note_on_c, 0, 80, 92
2, 123379, Note_on_c, 0, 70, 0
2, 123379, Note_on_c, 0, 62, 0
2, 123530, Note_on_c, 0, 63, 76
2, 123536, Note_on_c, 0, 78, 92
2, 123538, Note_on_c, 0, 75, 74
2, 123550, Note_on_c, 0, 58, 56
2, 123580, Note_on_c, 0, 63, 0
2, 123596, Note_on_c, 0, 58, 0
2, 123600, Note_on_c, 0, 80, 0
2, 123714, Control_c, 0, 64, 0
2, 123808, Note_on_c, 0, 44, 86
2, 123858, Note_on_c, 0, 44, 0
2, 123914, Control_c, 0, 64, 127
2, 123924, Note_on_c, 0, 75, 0
2, 123990, Note_on_c, 0, 78, 0
2, 124070, Note_on_c, 0, 60, 80
2, 124080, Note_on_c, 0, 68, 83
2, 124092, Note_on_c, 0, 53, 86
2, 124174, Note_on_c, 0, 53, 0
2, 124204, Note_on_c, 0, 78, 78
2, 124214, Note_on_c, 0, 60, 0
2, 124217, Note_on_c, 0, 68, 0
2, 124310, Note_on_c, 0, 78, 0
2, 124336, Note_on_c, 0, 61, 85
2, 124338, Note_on_c, 0, 73, 73
2, 124340, Note_on_c, 0, 77, 91
2, 124350, Note_on_c, 0, 56, 70
2, 124404, Note_on_c, 0, 56, 0
2, 124406, Control_c, 0, 64, 0
2, 124436, Note_on_c, 0, 61, 0
2, 124596, Note_on_c, 0, 44, 88
2, 124622, Control_c, 0, 64, 127
2, 124641, Note_on_c, 0, 44, 0
2, 124652, Note_on_c, 0, 77, 0
2, 124808, Note_on_c, 0, 73, 0
2, 124846, Note_on_c, 0, 66, 76
2, 124856, Note_on_c, 0, 56, 77
2, 124859, Note_on_c, 0, 60, 83
2, 124882, Control_c, 0, 64, 0
2, 124884, Note_on_c, 0, 51, 47
2, 124928, Note_on_c, 0, 56, 0
2, 124932, Note_on_c, 0, 60, 0
2, 124940, Note_on_c, 0, 51, 0
2, 124982, Note_on_c, 0, 77, 82
2, 125012, Note_on_c, 0, 66, 0
2, 125104, Note_on_c, 0, 60, 88
2, 125110, Note_on_c, 0, 66, 78
2, 125112, Note_on_c, 0, 56, 73
2, 125112, Note_on_c, 0, 75, 90
2, 125122, Note_on_c, 0, 51, 65
2, 125172, Note_on_c, 0, 77, 0
2, 125178, Note_on_c, 0, 60, 0
2, 125190, Note_on_c, 0, 56, 0
2, 125224, Note_on_c, 0, 51, 0
2, 125282, Note_on_c, 0, 66, 0
2, 125338, Note_on_c, 0, 75, 0
2, 125392, Note_on_c, 0, 61, 95
2, 125397, Note_on_c, 0, 73, 87
2, 125400, Note_on_c, 0, 56, 78
2, 125404, Note_on_c, 0, 65, 86
2, 125404, Note_on_c, 0, 49, 69
2, 125426, Note_on_c, 0, 61, 0
2, 125439, Note_on_c, 0, 56, 0
2, 125448, Note_on_c, 0, 49, 0
2, 125468, Control_c, 0, 64, 127
2, 125471, Note_on_c, 0, 73, 0
2, 125506, Note_on_c, 0, 65, 0
2, 125682, Control_c, 0, 64, 0
2, 125758, Note_on_c, 0, 61, 86
2, 125810, Note_on_c, 0, 61, 0
2, 125872, Note_on_c, 0, 61, 86
2, 125960, Note_on_c, 0, 61, 0
2, 126004, Note_on_c, 0, 61, 106
2, 126408, Note_on_c, 0, 68, 92
2, 126414, Note_on_c, 0, 65, 87
2, 126432, Note_on_c, 0, 37, 83
2, 126456, Note_on_c, 0, 61, 0
2, 126470, Note_on_c, 0, 37, 0
2, 126542, Control_c, 0, 64, 127
2, 126708, Note_on_c, 0, 65, 0
2, 126758, Note_on_c, 0, 68, 0
2, 126808, Note_on_c, 0, 49, 67
2, 126810, Note_on_c, 0, 59, 69
2, 126812, Note_on_c, 0, 56, 61
2, 126866, Note_on_c, 0, 49, 0
2, 126890, Note_on_c, 0, 59, 0
2, 126902, Note_on_c, 0, 56, 0
2, 127062, Note_on_c, 0, 68, 91
2, 127068, Note_on_c, 0, 65, 87
2, 127088, Note_on_c, 0, 59, 66
2, 127099, Note_on_c, 0, 56, 52
2, 127106, Note_on_c, 0, 49, 58
2, 127130, Note_on_c, 0, 65, 0
2, 127130, Note_on_c, 0, 59, 0
2, 127150, Note_on_c, 0, 56, 0
2, 127153, Note_on_c, 0, 68, 0
2, 127153, Note_on_c, 0, 49, 0
2, 127218, Control_c, 0, 64, 0
2, 127246, Note_on_c, 0, 68, 59
2, 127272, Note_on_c, 0, 65, 51
2, 127290, Note_on_c, 0, 68, 0
2, 127308, Note_on_c, 0, 70, 81
2, 127320, Note_on_c, 0, 65, 0
2, 127346, Note_on_c, 0, 37, 83
2, 127360, Note_on_c, 0, 68, 74
2, 127374, Note_on_c, 0, 65, 85
2, 127390, Note_on_c, 0, 37, 0
2, 127448, Control_c, 0, 64, 127
2, 127468, Note_on_c, 0, 70, 0
2, 127538, Note_on_c, 0, 65, 0
2, 127618, Note_on_c, 0, 56, 62
2, 127620, Note_on_c, 0, 59, 66
2, 127620, Note_on_c, 0, 49, 65
2, 127668, Note_on_c, 0, 68, 0
2, 127668, Note_on_c, 0, 49, 0
2, 127671, Note_on_c, 0, 59, 0
2, 127682, Note_on_c, 0, 56, 0
2, 127754, Note_on_c, 0, 63, 77
2, 127757, Note_on_c, 0, 66, 78
2, 127798, Note_on_c, 0, 63, 0
2, 127850, Note_on_c, 0, 68, 90
2, 127856, Note_on_c, 0, 59, 74
2, 127860, Note_on_c, 0, 65, 85
2, 127864, Note_on_c, 0, 56, 61
2, 127866, Note_on_c, 0, 49, 65
2, 127897, Note_on_c, 0, 59, 0
2, 127908, Note_on_c, 0, 66, 0
2, 127914, Note_on_c, 0, 56, 0
2, 127952, Note_on_c, 0, 49, 0
2, 128032, Control_c, 0, 64, 0
2, 128110, Note_on_c, 0, 65, 0
2, 128113, Note_on_c, 0, 70, 90
2, 128113, Note_on_c, 0, 66, 75
2, 128117, Note_on_c, 0, 42, 84
2, 128164, Note_on_c, 0, 68, 0
2, 128212, Note_on_c, 0, 42, 0
2, 128230, Note_on_c, 0, 66, 0
2, 128262, Control_c, 0, 64, 127
2, 128272, Note_on_c, 0, 70, 0
2, 128358, Note_on_c, 0, 58, 65
2, 128370, Note_on_c, 0, 54, 75
2, 128388, Note_on_c, 0, 49, 43
2, 128452, Note_on_c, 0, 58, 0
2, 128458, Note_on_c, 0, 54, 0
2, 128462, Note_on_c, 0, 49, 0
2, 128570, Control_c, 0, 64, 0
2, 128628, Note_on_c, 0, 70, 78
2, 128628, Note_on_c, 0, 73, 86
2, 128644, Note_on_c, 0, 58, 68
2, 128654, Note_on_c, 0, 54, 76
2, 128664, Note_on_c, 0, 49, 56
2, 128706, Note_on_c, 0, 58, 0
2, 128722, Note_on_c, 0, 49, 0
2, 128724, Note_on_c, 0, 54, 0
2, 128750, Note_on_c, 0, 70, 0
2, 128818, Note_on_c, 0, 73, 0
2, 128894, Control_c, 0, 64, 127
2, 128924, Note_on_c, 0, 78, 100
2, 128932, Note_on_c, 0, 70, 72
2, 128932, Note_on_c, 0, 42, 61
2, 128974, Note_on_c, 0, 42, 0
2, 128988, Note_on_c, 0, 70, 0
2, 129094, Note_on_c, 0, 70, 36
2, 129216, Note_on_c, 0, 50, 63
2, 129218, Note_on_c, 0, 58, 40
2, 129350, Note_on_c, 0, 58, 0
2, 129492, Control_c, 0, 64, 0
2, 129566, Note_on_c, 0, 50, 0
2, 129568, Note_on_c, 0, 58, 44
2, 129584, Note_on_c, 0, 51, 48
2, 129708, Control_c, 0, 64, 127
2, 129726, Note_on_c, 0, 70, 0
2, 129768, Control_c, 0, 64, 0
2, 129770, Note_on_c, 0, 58, 0
2, 129794, Note_on_c, 0, 51, 0
2, 129844, Note_on_c, 0, 77, 82
2, 129847, Note_on_c, 0, 68, 52
2, 129854, Note_on_c, 0, 44, 54
2, 129872, Note_on_c, 0, 78, 0
2, 129976, Note_on_c, 0, 44, 0
2, 129984, Control_c, 0, 64, 127
2, 130012, Note_on_c, 0, 68, 0
2, 130016, Note_on_c, 0, 77, 0
2, 130134, Note_on_c, 0, 56, 34
2, 130137, Note_on_c, 0, 60, 34
2, 130144, Note_on_c, 0, 51, 29
2, 130210, Note_on_c, 0, 56, 0
2, 130210, Note_on_c, 0, 60, 0
2, 130214, Note_on_c, 0, 51, 0
2, 130260, Note_on_c, 0, 75, 57
2, 130304, Note_on_c, 0, 75, 0
2, 130362, Note_on_c, 0, 75, 75
2, 130376, Note_on_c, 0, 66, 61
2, 130388, Note_on_c, 0, 60, 54
2, 130394, Note_on_c, 0, 51, 46
2, 130416, Note_on_c, 0, 56, 28
2, 130458, Note_on_c, 0, 60, 0
2, 130486, Note_on_c, 0, 56, 0
2, 130530, Note_on_c, 0, 66, 0
2, 130530, Note_on_c, 0, 51, 0
2, 130584, Control_c, 0, 64, 0
2, 130654, Note_on_c, 0, 44, 62
2, 130656, Note_on_c, 0, 68, 60
2, 130658, Note_on_c, 0, 77, 78
2, 130692, Note_on_c, 0, 75, 0
2, 130772, Note_on_c, 0, 44, 0
2, 130814, Control_c, 0, 64, 127
2, 130822, Note_on_c, 0, 68, 0
2, 130830, Note_on_c, 0, 77, 0
2, 130916, Note_on_c, 0, 56, 44
2, 130918, Note_on_c, 0, 60, 47
2, 130918, Note_on_c, 0, 51, 44
2, 130984, Note_on_c, 0, 60, 0
2, 130984, Note_on_c, 0, 51, 0
2, 130986, Note_on_c, 0, 56, 0
2, 131054, Note_on_c, 0, 75, 65
2, 131094, Note_on_c, 0, 75, 0
2, 131164, Note_on_c, 0, 75, 53
2, 131184, Note_on_c, 0, 66, 62
2, 131187, Note_on_c, 0, 60, 51
2, 131202, Note_on_c, 0, 51, 41
2, 131220, Note_on_c, 0, 56, 25
2, 131250, Note_on_c, 0, 60, 0
2, 131290, Note_on_c, 0, 56, 0
2, 131318, Note_on_c, 0, 66, 0
2, 131326, Note_on_c, 0, 51, 0
2, 131398, Control_c, 0, 64, 0
2, 131464, Note_on_c, 0, 68, 40
2, 131472, Note_on_c, 0, 44, 46
2, 131474, Note_on_c, 0, 77, 53
2, 131490, Note_on_c, 0, 75, 0
2, 131552, Note_on_c, 0, 44, 0
2, 131644, Control_c, 0, 64, 127
2, 131654, Note_on_c, 0, 77, 0
2, 131696, Note_on_c, 0, 68, 0
2, 131750, Note_on_c, 0, 60, 22
2, 131752, Note_on_c, 0, 56, 22
2, 131838, Note_on_c, 0, 60, 0
2, 131838, Note_on_c, 0, 56, 0
2, 131882, Note_on_c, 0, 75, 55
2, 131928, Note_on_c, 0, 75, 0
2, 132010, Note_on_c, 0, 75, 45
2, 132026, Note_on_c, 0, 66, 41
2, 132026, Note_on_c, 0, 60, 25
2, 132050, Note_on_c, 0, 56, 21
2, 132050, Note_on_c, 0, 51, 17
2, 132162, Note_on_c, 0, 56, 0
2, 132165, Note_on_c, 0, 51, 0
2, 132178, Note_on_c, 0, 60, 0
2, 132216, Note_on_c, 0, 66, 0
2, 132318, Note_on_c, 0, 75, 0
2, 132318, Control_c, 0, 64, 0
2, 132332, Note_on_c, 0, 72, 41
2, 132342, Note_on_c, 0, 64, 38
2, 132358, Note_on_c, 0, 49, 18
2, 132560, Note_on_c, 0, 64, 0
2, 132580, Note_on_c, 0, 49, 0
2, 132580, Control_c, 0, 64, 127
2, 132630, Note_on_c, 0, 61, 26
2, 132632, Note_on_c, 0, 56, 23
2, 132660, Note_on_c, 0, 72, 0
2, 132720, Note_on_c, 0, 61, 0
2, 132723, Note_on_c, 0, 56, 0
2, 132788, Note_on_c, 0, 73, 27
2, 132860, Note_on_c, 0, 73, 0
2, 132928, Note_on_c, 0, 73, 47
2, 132946, Note_on_c, 0, 61, 26
2, 132950, Control_c, 0, 64, 0
2, 132956, Note_on_c, 0, 56, 27
2, 132972, Note_on_c, 0, 65, 14
2, 133078, Note_on_c, 0, 65, 0
2, 133112, Note_on_c, 0, 56, 0
2, 133118, Note_on_c, 0, 61, 0
2, 133164, Control_c, 0, 64, 127
2, 133210, Note_on_c, 0, 73, 0
2, 133218, Note_on_c, 0, 49, 35
2, 133238, Note_on_c, 0, 80, 68
2, 133266, Note_on_c, 0, 77, 37
2, 133278, Note_on_c, 0, 49, 0
2, 133318, Note_on_c, 0, 77, 0
2, 133348, Note_on_c, 0, 80, 0
2, 133456, Note_on_c, 0, 71, 45
2, 133474, Note_on_c, 0, 68, 23
2, 133488, Note_on_c, 0, 61, 24
2, 133526, Note_on_c, 0, 71, 0
2, 133542, Note_on_c, 0, 68, 0
2, 133560, Note_on_c, 0, 61, 0
2, 133614, Note_on_c, 0, 80, 76
2, 133628, Note_on_c, 0, 77, 65
2, 133648, Note_on_c, 0, 80, 0
2, 133666, Note_on_c, 0, 77, 0
2, 133722, Note_on_c, 0, 77, 76
2, 133726, Note_on_c, 0, 71, 54
2, 133728, Note_on_c, 0, 80, 40
2, 133734, Note_on_c, 0, 68, 37
2, 133736, Note_on_c, 0, 61, 41
2, 133776, Note_on_c, 0, 71, 0
2, 133786, Note_on_c, 0, 68, 0
2, 133806, Note_on_c, 0, 77, 0
2, 133814, Note_on_c, 0, 80, 0
2, 133818, Note_on_c, 0, 61, 0
2, 133872, Control_c, 0, 64, 0
2, 133924, Note_on_c, 0, 77, 57
2, 133942, Note_on_c, 0, 80, 35
2, 133964, Note_on_c, 0, 77, 0
2, 133984, Note_on_c, 0, 82, 75
2, 134002, Note_on_c, 0, 49, 50
2, 134008, Note_on_c, 0, 80, 0
2, 134038, Note_on_c, 0, 77, 62
2, 134044, Note_on_c, 0, 80, 62
2, 134054, Note_on_c, 0, 49, 0
2, 134090, Note_on_c, 0, 82, 0
2, 134102, Control_c, 0, 64, 127
2, 134158, Note_on_c, 0, 77, 0
2, 134270, Note_on_c, 0, 80, 0
2, 134288, Note_on_c, 0, 61, 43
2, 134288, Note_on_c, 0, 68, 35
2, 134350, Note_on_c, 0, 61, 0
2, 134350, Note_on_c, 0, 68, 0
2, 134416, Note_on_c, 0, 75, 55
2, 134416, Note_on_c, 0, 78, 67
2, 134464, Note_on_c, 0, 75, 0
2, 134466, Note_on_c, 0, 78, 0
2, 134518, Note_on_c, 0, 80, 83
2, 134526, Note_on_c, 0, 77, 71
2, 134536, Note_on_c, 0, 71, 66
2, 134540, Note_on_c, 0, 61, 37
2, 134548, Note_on_c, 0, 68, 34
2, 134582, Note_on_c, 0, 71, 0
2, 134604, Note_on_c, 0, 68, 0
2, 134628, Note_on_c, 0, 61, 0
2, 134700, Control_c, 0, 64, 0
2, 134720, Note_on_c, 0, 77, 0
2, 134774, Note_on_c, 0, 80, 0
2, 134774, Note_on_c, 0, 82, 78
2, 134774, Note_on_c, 0, 78, 65
2, 134806, Note_on_c, 0, 54, 51
2, 134868, Note_on_c, 0, 54, 0
2, 134890, Note_on_c, 0, 78, 0
2, 134928, Note_on_c, 0, 82, 0
2, 134932, Control_c, 0, 64, 127
2, 135032, Note_on_c, 0, 70, 44
2, 135050, Note_on_c, 0, 61, 44
2, 135076, Note_on_c, 0, 66, 24
2, 135106, Note_on_c, 0, 70, 0
2, 135114, Note_on_c, 0, 61, 0
2, 135140, Note_on_c, 0, 66, 0
2, 135292, Note_on_c, 0, 85, 80
2, 135297, Note_on_c, 0, 82, 61
2, 135297, Note_on_c, 0, 70, 52
2, 135308, Note_on_c, 0, 66, 40
2, 135328, Note_on_c, 0, 61, 38
2, 135348, Note_on_c, 0, 82, 0
2, 135350, Note_on_c, 0, 70, 0
2, 135364, Note_on_c, 0, 66, 0
2, 135390, Note_on_c, 0, 61, 0
2, 135472, Note_on_c, 0, 85, 0
2, 135516, Control_c, 0, 64, 0
2, 135586, Note_on_c, 0, 54, 58
2, 135589, Note_on_c, 0, 90, 83
2, 135589, Note_on_c, 0, 82, 57
2, 135640, Note_on_c, 0, 54, 0
2, 135730, Control_c, 0, 64, 127
2, 135872, Note_on_c, 0, 70, 41
2, 135900, Note_on_c, 0, 62, 35
2, 135962, Note_on_c, 0, 70, 0
2, 136146, Control_c, 0, 64, 0
2, 136226, Note_on_c, 0, 70, 25
2, 136236, Note_on_c, 0, 62, 0
2, 136242, Note_on_c, 0, 63, 37
2, 136360, Control_c, 0, 64, 127
2, 136376, Note_on_c, 0, 82, 0
2, 136388, Note_on_c, 0, 70, 0
2, 136388, Note_on_c, 0, 63, 0
2, 136468, Control_c, 0, 64, 0
2, 136532, Note_on_c, 0, 89, 62
2, 136532, Note_on_c, 0, 80, 47
2, 136544, Note_on_c, 0, 90, 0
2, 136547, Note_on_c, 0, 56, 33
2, 136612, Note_on_c, 0, 56, 0
2, 136668, Control_c, 0, 64, 127
2, 136676, Note_on_c, 0, 89, 0
2, 136676, Note_on_c, 0, 80, 0
2, 136800, Note_on_c, 0, 72, 37
2, 136832, Note_on_c, 0, 63, 31
2, 136835, Note_on_c, 0, 68, 18
2, 136874, Note_on_c, 0, 72, 0
2, 136892, Note_on_c, 0, 63, 0
2, 136910, Note_on_c, 0, 68, 0
2, 136936, Note_on_c, 0, 87, 47
2, 136984, Note_on_c, 0, 87, 0
2, 137022, Control_c, 0, 64, 0
2, 137034, Note_on_c, 0, 87, 72
2, 137054, Note_on_c, 0, 78, 69
2, 137070, Note_on_c, 0, 72, 48
2, 137076, Note_on_c, 0, 63, 41
2, 137080, Note_on_c, 0, 68, 35
2, 137124, Note_on_c, 0, 72, 0
2, 137148, Note_on_c, 0, 68, 0
2, 137172, Note_on_c, 0, 78, 0
2, 137175, Control_c, 0, 64, 127
2, 137196, Note_on_c, 0, 63, 0
2, 137252, Control_c, 0, 64, 0
2, 137332, Note_on_c, 0, 89, 76
2, 137338, Note_on_c, 0, 56, 55
2, 137338, Note_on_c, 0, 80, 52
2, 137354, Note_on_c, 0, 87, 0
2, 137408, Note_on_c, 0, 56, 0
2, 137466, Control_c, 0, 64, 127
2, 137496, Note_on_c, 0, 80, 0
2, 137504, Note_on_c, 0, 89, 0
2, 137590, Note_on_c, 0, 72, 44
2, 137610, Note_on_c, 0, 68, 30
2, 137612, Note_on_c, 0, 63, 37
2, 137648, Note_on_c, 0, 72, 0
2, 137672, Note_on_c, 0, 63, 0
2, 137675, Note_on_c, 0, 68, 0
2, 137738, Note_on_c, 0, 87, 58
2, 137780, Note_on_c, 0, 87, 0
2, 137836, Control_c, 0, 64, 0
2, 137852, Note_on_c, 0, 87, 45
2, 137870, Note_on_c, 0, 72, 41
2, 137872, Note_on_c, 0, 78, 61
2, 137890, Note_on_c, 0, 63, 31
2, 137893, Note_on_c, 0, 68, 32
2, 137934, Note_on_c, 0, 72, 0
2, 137966, Note_on_c, 0, 68, 0
2, 137974, Note_on_c, 0, 78, 0
2, 137990, Note_on_c, 0, 63, 0
2, 138034, Control_c, 0, 64, 127
2, 138096, Control_c, 0, 64, 0
2, 138150, Note_on_c, 0, 80, 41
2, 138150, Note_on_c, 0, 56, 44
2, 138158, Note_on_c, 0, 89, 47
2, 138166, Note_on_c, 0, 87, 0
2, 138222, Note_on_c, 0, 56, 0
2, 138312, Control_c, 0, 64, 127
2, 138338, Note_on_c, 0, 89, 0
2, 138344, Note_on_c, 0, 80, 0
2, 138426, Note_on_c, 0, 72, 27
2, 138446, Note_on_c, 0, 68, 23
2, 138452, Note_on_c, 0, 63, 22
2, 138500, Note_on_c, 0, 72, 0
2, 138518, Note_on_c, 0, 68, 0
2, 138522, Note_on_c, 0, 63, 0
2, 138564, Note_on_c, 0, 87, 35
2, 138622, Note_on_c, 0, 87, 0
2, 138684, Note_on_c, 0, 72, 38
2, 138688, Note_on_c, 0, 87, 48
2, 138700, Note_on_c, 0, 68, 26
2, 138702, Note_on_c, 0, 78, 37
2, 138716, Note_on_c, 0, 63, 31
2, 138766, Note_on_c, 0, 72, 0
2, 138780, Note_on_c, 0, 63, 0
2, 138782, Note_on_c, 0, 68, 0
2, 138790, Note_on_c, 0, 78, 0
2, 138972, Control_c, 0, 64, 0
2, 139054, Note_on_c, 0, 87, 0
2, 139060, Note_on_c, 0, 85, 41
2, 139066, Note_on_c, 0, 73, 19
2, 139084, Note_on_c, 0, 68, 27
2, 139088, Note_on_c, 0, 61, 25
2, 139100, Note_on_c, 0, 77, 26
2, 139230, Note_on_c, 0, 73, 0
2, 139242, Note_on_c, 0, 61, 0
2, 139264, Control_c, 0, 64, 127
2, 139268, Note_on_c, 0, 77, 0
2, 139286, Note_on_c, 0, 85, 0
2, 139300, Note_on_c, 0, 68, 0
2, 139648, Control_c, 0, 64, 0
2, 139662, Note_on_c, 0, 61, 66
2, 140008, Note_on_c, 0, 68, 72
2, 140016, Note_on_c, 0, 65, 54
2, 140024, Note_on_c, 0, 37, 50
2, 140030, Note_on_c, 0, 61, 0
2, 140048, Control_c, 0, 64, 127
2, 140068, Note_on_c, 0, 37, 0
2, 140070, Note_on_c, 0, 65, 0
2, 140250, Note_on_c, 0, 68, 0
2, 140268, Note_on_c, 0, 59, 55
2, 140271, Note_on_c, 0, 49, 47
2, 140271, Note_on_c, 0, 56, 42
2, 140338, Note_on_c, 0, 59, 0
2, 140338, Note_on_c, 0, 56, 0
2, 140354, Note_on_c, 0, 49, 0
2, 140490, Note_on_c, 0, 68, 79
2, 140498, Note_on_c, 0, 65, 66
2, 140514, Note_on_c, 0, 59, 49
2, 140518, Note_on_c, 0, 49, 51
2, 140538, Note_on_c, 0, 56, 20
2, 140541, Note_on_c, 0, 65, 0
2, 140544, Note_on_c, 0, 68, 0
2, 140566, Note_on_c, 0, 59, 0
2, 140572, Note_on_c, 0, 49, 0
2, 140602, Note_on_c, 0, 56, 0
2, 140616, Control_c, 0, 64, 0
2, 140652, Note_on_c, 0, 68, 66
2, 140692, Note_on_c, 0, 68, 0
2, 140722, Note_on_c, 0, 70, 63
2, 140760, Note_on_c, 0, 65, 66
2, 140764, Note_on_c, 0, 68, 47
2, 140768, Note_on_c, 0, 37, 60
2, 140812, Note_on_c, 0, 37, 0
2, 140846, Control_c, 0, 64, 127
2, 140854, Note_on_c, 0, 70, 0
2, 141012, Note_on_c, 0, 59, 51
2, 141020, Note_on_c, 0, 56, 41
2, 141022, Note_on_c, 0, 49, 41
2, 141028, Note_on_c, 0, 65, 0
2, 141052, Note_on_c, 0, 68, 0
2, 141072, Note_on_c, 0, 59, 0
2, 141086, Note_on_c, 0, 56, 0
2, 141092, Note_on_c, 0, 49, 0
2, 141154, Note_on_c, 0, 63, 61
2, 141158, Note_on_c, 0, 66, 59
2, 141208, Note_on_c, 0, 63, 0
2, 141222, Note_on_c, 0, 66, 0
2, 141254, Note_on_c, 0, 68, 76
2, 141254, Note_on_c, 0, 59, 51
2, 141257, Note_on_c, 0, 49, 49
2, 141272, Note_on_c, 0, 56, 35
2, 141284, Note_on_c, 0, 65, 46
2, 141304, Note_on_c, 0, 59, 0
2, 141328, Note_on_c, 0, 56, 0
2, 141346, Note_on_c, 0, 49, 0
2, 141446, Control_c, 0, 64, 0
2, 141488, Note_on_c, 0, 65, 0
2, 141516, Note_on_c, 0, 70, 77
2, 141522, Note_on_c, 0, 66, 53
2, 141522, Note_on_c, 0, 42, 54
2, 141532, Note_on_c, 0, 68, 0
2, 141596, Note_on_c, 0, 42, 0
2, 141654, Note_on_c, 0, 66, 0
2, 141662, Control_c, 0, 64, 127
2, 141670, Note_on_c, 0, 70, 0
2, 141760, Note_on_c, 0, 58, 49
2, 141778, Note_on_c, 0, 54, 53
2, 141786, Note_on_c, 0, 49, 42
2, 141836, Note_on_c, 0, 54, 0
2, 141856, Note_on_c, 0, 49, 0
2, 141859, Note_on_c, 0, 58, 0
2, 141876, Control_c, 0, 64, 0
2, 142020, Note_on_c, 0, 73, 81
2, 142022, Note_on_c, 0, 70, 70
2, 142030, Note_on_c, 0, 58, 61
2, 142050, Note_on_c, 0, 54, 55
2, 142064, Note_on_c, 0, 49, 38
2, 142088, Note_on_c, 0, 70, 0
2, 142106, Note_on_c, 0, 58, 0
2, 142106, Note_on_c, 0, 54, 0
2, 142124, Note_on_c, 0, 49, 0
2, 142138, Control_c, 0, 64, 127
2, 142188, Note_on_c, 0, 73, 0
2, 142246, Control_c, 0, 64, 0
2, 142330, Note_on_c, 0, 78, 92
2, 142334, Note_on_c, 0, 70, 61
2, 142342, Note_on_c, 0, 42, 52
2, 142398, Note_on_c, 0, 42, 0
2, 142460, Control_c, 0, 64, 127
2, 142628, Note_on_c, 0, 58, 40
2, 142644, Note_on_c, 0, 50, 48
2, 142732, Note_on_c, 0, 58, 0
2, 142830, Control_c, 0, 64, 0
2, 142984, Note_on_c, 0, 58, 30
2, 143004, Note_on_c, 0, 50, 0
2, 143014, Control_c, 0, 64, 127
2, 143018, Note_on_c, 0, 51, 39
2, 143118, Note_on_c, 0, 70, 0
2, 143136, Control_c, 0, 64, 0
2, 143270, Note_on_c, 0, 58, 0
2, 143292, Note_on_c, 0, 51, 0
2, 143300, Note_on_c, 0, 77, 67
2, 143306, Note_on_c, 0, 68, 33
2, 143318, Note_on_c, 0, 44, 49
2, 143326, Note_on_c, 0, 78, 0
2, 143395, Note_on_c, 0, 44, 0
2, 143428, Control_c, 0, 64, 127
2, 143470, Note_on_c, 0, 77, 0
2, 143473, Note_on_c, 0, 68, 0
2, 143592, Note_on_c, 0, 60, 33
2, 143606, Note_on_c, 0, 56, 29
2, 143618, Note_on_c, 0, 51, 23
2, 143668, Note_on_c, 0, 60, 0
2, 143678, Note_on_c, 0, 56, 0
2, 143694, Note_on_c, 0, 51, 0
2, 143718, Note_on_c, 0, 75, 56
2, 143736, Control_c, 0, 64, 0
2, 143764, Note_on_c, 0, 75, 0
2, 143818, Note_on_c, 0, 75, 78
2, 143830, Note_on_c, 0, 66, 55
2, 143842, Note_on_c, 0, 60, 48
2, 143872, Note_on_c, 0, 51, 35
2, 143875, Note_on_c, 0, 56, 25
2, 143910, Note_on_c, 0, 60, 0
2, 143936, Control_c, 0, 64, 127
2, 143944, Note_on_c, 0, 56, 0
2, 143984, Note_on_c, 0, 51, 0
2, 143988, Note_on_c, 0, 66, 0
2, 144042, Control_c, 0, 64, 0
2, 144098, Note_on_c, 0, 44, 70
2, 144101, Note_on_c, 0, 68, 56
2, 144104, Note_on_c, 0, 77, 75
2, 144134, Note_on_c, 0, 75, 0
2, 144194, Note_on_c, 0, 44, 0
2, 144258, Control_c, 0, 64, 127
2, 144278, Note_on_c, 0, 68, 0
2, 144284, Note_on_c, 0, 77, 0
2, 144362, Note_on_c, 0, 60, 52
2, 144372, Note_on_c, 0, 51, 44
2, 144375, Note_on_c, 0, 56, 39
2, 144428, Note_on_c, 0, 60, 0
2, 144440, Note_on_c, 0, 56, 0
2, 144442, Note_on_c, 0, 51, 0
2, 144502, Note_on_c, 0, 75, 70
2, 144542, Note_on_c, 0, 75, 0
2, 144566, Control_c, 0, 64, 0
2, 144626, Note_on_c, 0, 75, 53
2, 144638, Note_on_c, 0, 60, 53
2, 144641, Note_on_c, 0, 66, 62
2, 144652, Note_on_c, 0, 51, 45
2, 144664, Note_on_c, 0, 56, 35
2, 144706, Note_on_c, 0, 60, 0
2, 144734, Note_on_c, 0, 56, 0
2, 144770, Note_on_c, 0, 66, 0
2, 144780, Control_c, 0, 64, 127
2, 144786, Note_on_c, 0, 51, 0
2, 144872, Control_c, 0, 64, 0
2, 144916, Note_on_c, 0, 44, 52
2, 144920, Note_on_c, 0, 68, 44
2, 144922, Note_on_c, 0, 77, 63
2, 144942, Note_on_c, 0, 75, 0
2, 144994, Note_on_c, 0, 44, 0
2, 145088, Note_on_c, 0, 77, 0
2, 145088, Control_c, 0, 64, 127
2, 145094, Note_on_c, 0, 68, 0
2, 145204, Note_on_c, 0, 60, 28
2, 145216, Note_on_c, 0, 56, 20
2, 145216, Note_on_c, 0, 51, 18
2, 145280, Note_on_c, 0, 60, 0
2, 145294, Note_on_c, 0, 56, 0
2, 145296, Note_on_c, 0, 51, 0
2, 145324, Note_on_c, 0, 75, 58
2, 145368, Note_on_c, 0, 75, 0
2, 145448, Note_on_c, 0, 75, 47
2, 145458, Control_c, 0, 64, 0
2, 145466, Note_on_c, 0, 60, 29
2, 145470, Note_on_c, 0, 66, 44
2, 145488, Note_on_c, 0, 56, 23
2, 145504, Note_on_c, 0, 51, 16
2, 145578, Note_on_c, 0, 60, 0
2, 145594, Note_on_c, 0, 56, 0
2, 145626, Note_on_c, 0, 51, 0
2, 145640, Control_c, 0, 64, 127
2, 145666, Note_on_c, 0, 66, 0
2, 145732, Control_c, 0, 64, 0
2, 145754, Note_on_c, 0, 75, 0
2, 145760, Note_on_c, 0, 72, 54
2, 145768, Note_on_c, 0, 64, 47
2, 145774, Note_on_c, 0, 49, 29
2, 145906, Note_on_c, 0, 64, 0
2, 145910, Note_on_c, 0, 49, 0
2, 145980, Control_c, 0, 64, 127
2, 145998, Note_on_c, 0, 72, 0
2, 146024, Note_on_c, 0, 56, 36
2, 146030, Note_on_c, 0, 61, 30
2, 146100, Note_on_c, 0, 61, 0
2, 146104, Note_on_c, 0, 56, 0
2, 146190, Note_on_c, 0, 73, 45
2, 146242, Note_on_c, 0, 73, 0
2, 146348, Control_c, 0, 64, 0
2, 146350, Note_on_c, 0, 73, 25
2, 146354, Note_on_c, 0, 61, 28
2, 146360, Note_on_c, 0, 56, 31
2, 146374, Note_on_c, 0, 65, 37
2, 146506, Note_on_c, 0, 56, 0
2, 146514, Note_on_c, 0, 65, 0
2, 146544, Note_on_c, 0, 61, 0
2, 146578, Control_c, 0, 64, 127
2, 146678, Note_on_c, 0, 49, 29
2, 146702, Note_on_c, 0, 73, 0
2, 146716, Note_on_c, 0, 80, 63
2, 146738, Note_on_c, 0, 49, 0
2, 146740, Note_on_c, 0, 77, 39
2, 146790, Note_on_c, 0, 77, 0
2, 146810, Note_on_c, 0, 80, 0
2, 146926, Note_on_c, 0, 71, 51
2, 146940, Note_on_c, 0, 61, 36
2, 146944, Note_on_c, 0, 68, 25
2, 146986, Note_on_c, 0, 71, 0
2, 147004, Note_on_c, 0, 61, 0
2, 147007, Note_on_c, 0, 68, 0
2, 147084, Note_on_c, 0, 80, 78
2, 147096, Note_on_c, 0, 77, 69
2, 147120, Note_on_c, 0, 80, 0
2, 147132, Note_on_c, 0, 77, 0
2, 147186, Note_on_c, 0, 71, 61
2, 147196, Note_on_c, 0, 68, 36
2, 147198, Note_on_c, 0, 61, 39
2, 147198, Note_on_c, 0, 80, 43
2, 147201, Note_on_c, 0, 77, 67
2, 147234, Note_on_c, 0, 71, 0
2, 147248, Note_on_c, 0, 68, 0
2, 147254, Control_c, 0, 64, 0
2, 147264, Note_on_c, 0, 61, 0
2, 147264, Note_on_c, 0, 77, 0
2, 147274, Note_on_c, 0, 80, 0
2, 147364, Note_on_c, 0, 80, 67
2, 147380, Note_on_c, 0, 77, 44
2, 147408, Note_on_c, 0, 80, 0
2, 147428, Note_on_c, 0, 77, 0
2, 147430, Note_on_c, 0, 82, 70
2, 147442, Note_on_c, 0, 49, 62
2, 147486, Control_c, 0, 64, 127
2, 147489, Note_on_c, 0, 49, 0
2, 147489, Note_on_c, 0, 80, 70
2, 147492, Note_on_c, 0, 77, 75
2, 147546, Note_on_c, 0, 82, 0
2, 147612, Note_on_c, 0, 77, 0
2, 147694, Note_on_c, 0, 71, 73
2, 147704, Note_on_c, 0, 80, 0
2, 147704, Note_on_c, 0, 61, 56
2, 147718, Note_on_c, 0, 68, 41
2, 147748, Note_on_c, 0, 71, 0
2, 147768, Note_on_c, 0, 61, 0
2, 147776, Note_on_c, 0, 68, 0
2, 147858, Note_on_c, 0, 75, 66
2, 147860, Note_on_c, 0, 78, 80
2, 147902, Note_on_c, 0, 78, 0
2, 147904, Note_on_c, 0, 75, 0
2, 147958, Note_on_c, 0, 71, 76
2, 147960, Note_on_c, 0, 80, 94
2, 147963, Note_on_c, 0, 77, 91
2, 147970, Note_on_c, 0, 61, 58
2, 147980, Note_on_c, 0, 68, 52
2, 148008, Note_on_c, 0, 71, 0
2, 148036, Note_on_c, 0, 68, 0
2, 148106, Note_on_c, 0, 61, 0
2, 148160, Control_c, 0, 64, 0
2, 148204, Note_on_c, 0, 77, 0
2, 148214, Note_on_c, 0, 82, 89
2, 148222, Note_on_c, 0, 80, 0
2, 148222, Note_on_c, 0, 78, 70
2, 148230, Note_on_c, 0, 54, 78
2, 148328, Note_on_c, 0, 54, 0
2, 148344, Note_on_c, 0, 78, 0
2, 148376, Control_c, 0, 64, 127
2, 148408, Note_on_c, 0, 82, 0
2, 148470, Note_on_c, 0, 70, 62
2, 148482, Note_on_c, 0, 61, 61
2, 148496, Note_on_c, 0, 66, 47
2, 148498, Control_c, 0, 64, 0
2, 148554, Note_on_c, 0, 70, 0
2, 148560, Note_on_c, 0, 61, 0
2, 148564, Note_on_c, 0, 66, 0
2, 148718, Note_on_c, 0, 85, 90
2, 148722, Note_on_c, 0, 82, 75
2, 148730, Note_on_c, 0, 70, 68
2, 148750, Note_on_c, 0, 66, 52
2, 148752, Note_on_c, 0, 61, 57
2, 148790, Note_on_c, 0, 70, 0
2, 148818, Note_on_c, 0, 66, 0
2, 148821, Note_on_c, 0, 61, 0
2, 148840, Note_on_c, 0, 82, 0
2, 148894, Note_on_c, 0, 85, 0
2, 148930, Control_c, 0, 64, 127
2, 148976, Control_c, 0, 64, 0
2, 149014, Note_on_c, 0, 90, 99
2, 149018, Note_on_c, 0, 54, 78
2, 149022, Note_on_c, 0, 82, 79
2, 149078, Note_on_c, 0, 54, 0
2, 149144, Control_c, 0, 64, 127
2, 149298, Note_on_c, 0, 70, 52
2, 149310, Note_on_c, 0, 62, 62
2, 149422, Note_on_c, 0, 70, 0
2, 149608, Note_on_c, 0, 70, 55
2, 149622, Note_on_c, 0, 62, 0
2, 149622, Note_on_c, 0, 63, 64
2, 149636, Control_c, 0, 64, 0
2, 149802, Note_on_c, 0, 82, 0
2, 149828, Note_on_c, 0, 70, 0
2, 149848, Note_on_c, 0, 63, 0
2, 149876, Note_on_c, 0, 89, 87
2, 149876, Note_on_c, 0, 80, 68
2, 149888, Note_on_c, 0, 56, 65
2, 149930, Note_on_c, 0, 90, 0
2, 149956, Note_on_c, 0, 56, 0
2, 150004, Control_c, 0, 64, 127
2, 150009, Note_on_c, 0, 80, 0
2, 150040, Note_on_c, 0, 89, 0
2, 150142, Note_on_c, 0, 72, 62
2, 150160, Note_on_c, 0, 63, 47
2, 150162, Note_on_c, 0, 68, 37
2, 150196, Note_on_c, 0, 72, 0
2, 150228, Note_on_c, 0, 63, 0
2, 150228, Note_on_c, 0, 68, 0
2, 150276, Note_on_c, 0, 87, 72
2, 150312, Control_c, 0, 64, 0
2, 150316, Note_on_c, 0, 87, 0
2, 150380, Note_on_c, 0, 87, 73
2, 150388, Note_on_c, 0, 78, 85
2, 150412, Note_on_c, 0, 72, 59
2, 150430, Note_on_c, 0, 63, 48
2, 150430, Note_on_c, 0, 68, 38
2, 150480, Note_on_c, 0, 72, 0
2, 150504, Note_on_c, 0, 68, 0
2, 150528, Control_c, 0, 64, 127
2, 150540, Note_on_c, 0, 78, 0
2, 150568, Note_on_c, 0, 63, 0
2, 150604, Control_c, 0, 64, 0
2, 150662, Note_on_c, 0, 80, 66
2, 150664, Note_on_c, 0, 89, 80
2, 150678, Note_on_c, 0, 56, 62
2, 150694, Note_on_c, 0, 87, 0
2, 150742, Note_on_c, 0, 56, 0
2, 150798, Note_on_c, 0, 80, 0
2, 150820, Note_on_c, 0, 89, 0
2, 150820, Control_c, 0, 64, 127
2, 150908, Note_on_c, 0, 72, 54
2, 150922, Note_on_c, 0, 68, 39
2, 150932, Note_on_c, 0, 63, 44
2, 150968, Note_on_c, 0, 72, 0
2, 150984, Note_on_c, 0, 68, 0
2, 150998, Note_on_c, 0, 63, 0
2, 151050, Note_on_c, 0, 87, 72
2, 151090, Note_on_c, 0, 87, 0
2, 151096, Control_c, 0, 64, 0
2, 151154, Note_on_c, 0, 87, 63
2, 151170, Note_on_c, 0, 78, 72
2, 151182, Note_on_c, 0, 72, 52
2, 151196, Note_on_c, 0, 63, 46
2, 151196, Note_on_c, 0, 68, 38
2, 151240, Note_on_c, 0, 72, 0
2, 151268, Note_on_c, 0, 68, 0
2, 151296, Note_on_c, 0, 78, 0
2, 151296, Note_on_c, 0, 63, 0
2, 151296, Control_c, 0, 64, 127
2, 151388, Control_c, 0, 64, 0
2, 151448, Note_on_c, 0, 56, 48
2, 151448, Note_on_c, 0, 89, 53
2, 151451, Note_on_c, 0, 80, 42
2, 151464, Note_on_c, 0, 87, 0
2, 151510, Note_on_c, 0, 56, 0
2, 151604, Control_c, 0, 64, 127
2, 151630, Note_on_c, 0, 89, 0
2, 151648, Note_on_c, 0, 80, 0
2, 151738, Note_on_c, 0, 72, 28
2, 151756, Note_on_c, 0, 68, 21
2, 151766, Note_on_c, 0, 63, 18
2, 151810, Note_on_c, 0, 72, 0
2, 151828, Note_on_c, 0, 68, 0
2, 151836, Note_on_c, 0, 63, 0
2, 151888, Note_on_c, 0, 87, 33
2, 151946, Note_on_c, 0, 87, 0
2, 151956, Control_c, 0, 64, 0
2, 152014, Note_on_c, 0, 87, 44
2, 152028, Note_on_c, 0, 78, 36
2, 152030, Note_on_c, 0, 72, 25
2, 152032, Note_on_c, 0, 68, 24
2, 152034, Note_on_c, 0, 63, 26
2, 152120, Note_on_c, 0, 63, 0
2, 152132, Note_on_c, 0, 72, 0
2, 152152, Note_on_c, 0, 68, 0
2, 152186, Control_c, 0, 64, 127
2, 152320, Note_on_c, 0, 78, 0
2, 152370, Control_c, 0, 64, 0
2, 152438, Note_on_c, 0, 73, 22
2, 152444, Note_on_c, 0, 85, 34
2, 152462, Note_on_c, 0, 68, 24
2, 152472, Note_on_c, 0, 87, 0
2, 152482, Note_on_c, 0, 77, 21
2, 152496, Note_on_c, 0, 61, 11
2, 152738, Note_on_c, 0, 73, 0
2, 152738, Control_c, 0, 64, 127
2, 152772, Note_on_c, 0, 68, 0
2, 152792, Note_on_c, 0, 85, 0
2, 152792, Note_on_c, 0, 61, 0
2, 152914, Note_on_c, 0, 77, 0
2, 153248, Control_c, 0, 64, 0
2, 153282, Note_on_c, 0, 77, 53
2, 153394, Note_on_c, 0, 77, 0
2, 153416, Control_c, 0, 64, 127
2, 153538, Control_c, 0, 64, 0
2, 153568, Note_on_c, 0, 77, 49
2, 153618, Note_on_c, 0, 46, 26
2, 153628, Note_on_c, 0, 78, 60
2, 153640, Note_on_c, 0, 77, 0
2, 153706, Note_on_c, 0, 78, 0
2, 153716, Note_on_c, 0, 46, 0
2, 153738, Control_c, 0, 64, 127
2, 153840, Note_on_c, 0, 78, 58
2, 153868, Note_on_c, 0, 61, 33
2, 153888, Note_on_c, 0, 76, 58
2, 153898, Note_on_c, 0, 53, 48
2, 153938, Note_on_c, 0, 76, 0
2, 153940, Note_on_c, 0, 61, 0
2, 153948, Note_on_c, 0, 78, 0
2, 153952, Note_on_c, 0, 53, 0
2, 154100, Note_on_c, 0, 61, 50
2, 154104, Note_on_c, 0, 76, 50
2, 154120, Note_on_c, 0, 77, 80
2, 154146, Note_on_c, 0, 53, 55
2, 154154, Note_on_c, 0, 61, 0
2, 154164, Note_on_c, 0, 76, 0
2, 154168, Control_c, 0, 64, 0
2, 154198, Note_on_c, 0, 53, 0
2, 154210, Note_on_c, 0, 77, 0
2, 154320, Note_on_c, 0, 77, 59
2, 154330, Note_on_c, 0, 45, 56
2, 154358, Note_on_c, 0, 78, 81
2, 154378, Note_on_c, 0, 45, 0
2, 154398, Note_on_c, 0, 77, 0
2, 154446, Control_c, 0, 64, 127
2, 154472, Note_on_c, 0, 78, 0
2, 154548, Note_on_c, 0, 78, 62
2, 154570, Note_on_c, 0, 63, 53
2, 154584, Note_on_c, 0, 53, 76
2, 154588, Note_on_c, 0, 60, 38
2, 154596, Note_on_c, 0, 76, 73
2, 154636, Note_on_c, 0, 63, 0
2, 154639, Note_on_c, 0, 53, 0
2, 154650, Note_on_c, 0, 76, 0
2, 154656, Note_on_c, 0, 60, 0
2, 154694, Note_on_c, 0, 78, 0
2, 154794, Note_on_c, 0, 76, 64
2, 154814, Note_on_c, 0, 63, 52
2, 154823, Note_on_c, 0, 77, 91
2, 154828, Note_on_c, 0, 53, 63
2, 154830, Note_on_c, 0, 60, 44
2, 154840, Note_on_c, 0, 76, 0
2, 154862, Note_on_c, 0, 77, 0
2, 154864, Note_on_c, 0, 63, 0
2, 154884, Note_on_c, 0, 53, 0
2, 154884, Note_on_c, 0, 60, 0
2, 154968, Control_c, 0, 64, 0
2, 154988, Note_on_c, 0, 77, 57
2, 155048, Note_on_c, 0, 85, 89
2, 155052, Note_on_c, 0, 46, 57
2, 155076, Note_on_c, 0, 77, 0
2, 155142, Note_on_c, 0, 46, 0
2, 155196, Note_on_c, 0, 85, 0
2, 155196, Control_c, 0, 64, 127
2, 155268, Note_on_c, 0, 85, 55
2, 155306, Note_on_c, 0, 61, 52
2, 155318, Note_on_c, 0, 84, 74
2, 155328, Note_on_c, 0, 53, 63
2, 155386, Note_on_c, 0, 61, 0
2, 155386, Note_on_c, 0, 53, 0
2, 155394, Note_on_c, 0, 84, 0
2, 155404, Note_on_c, 0, 85, 0
2, 155514, Note_on_c, 0, 84, 68
2, 155540, Note_on_c, 0, 83, 103
2, 155552, Note_on_c, 0, 61, 47
2, 155560, Note_on_c, 0, 53, 71
2, 155596, Note_on_c, 0, 83, 0
2, 155608, Note_on_c, 0, 53, 0
2, 155612, Note_on_c, 0, 84, 0
2, 155612, Note_on_c, 0, 61, 0
2, 155674, Control_c, 0, 64, 0
2, 155724, Note_on_c, 0, 83, 99
2, 155756, Note_on_c, 0, 82, 79
2, 155764, Note_on_c, 0, 51, 57
2, 155784, Note_on_c, 0, 83, 0
2, 155818, Note_on_c, 0, 51, 0
2, 155866, Note_on_c, 0, 82, 0
2, 155904, Control_c, 0, 64, 127
2, 155942, Note_on_c, 0, 82, 51
2, 155970, Note_on_c, 0, 66, 38
2, 155986, Note_on_c, 0, 81, 78
2, 155994, Note_on_c, 0, 60, 34
2, 156010, Note_on_c, 0, 58, 13
2, 156040, Note_on_c, 0, 66, 0
2, 156046, Note_on_c, 0, 81, 0
2, 156058, Note_on_c, 0, 60, 0
2, 156076, Note_on_c, 0, 58, 0
2, 156078, Note_on_c, 0, 82, 0
2, 156184, Note_on_c, 0, 81, 77
2, 156218, Note_on_c, 0, 66, 45
2, 156221, Note_on_c, 0, 80, 76
2, 156242, Note_on_c, 0, 81, 0
2, 156254, Note_on_c, 0, 58, 14
2, 156264, Note_on_c, 0, 60, 25
2, 156288, Note_on_c, 0, 66, 0
2, 156296, Note_on_c, 0, 80, 0
2, 156326, Note_on_c, 0, 58, 0
2, 156340, Note_on_c, 0, 60, 0
2, 156352, Control_c, 0, 64, 0
2, 156400, Note_on_c, 0, 80, 61
2, 156434, Note_on_c, 0, 79, 91
2, 156454, Note_on_c, 0, 53, 68
2, 156506, Note_on_c, 0, 53, 0
2, 156512, Note_on_c, 0, 79, 0
2, 156532, Note_on_c, 0, 80, 0
2, 156566, Control_c, 0, 64, 127
2, 156644, Note_on_c, 0, 79, 70
2, 156658, Note_on_c, 0, 78, 79
2, 156670, Note_on_c, 0, 61, 49
2, 156676, Note_on_c, 0, 65, 39
2, 156696, Note_on_c, 0, 58, 19
2, 156698, Note_on_c, 0, 79, 0
2, 156734, Note_on_c, 0, 65, 0
2, 156740, Note_on_c, 0, 61, 0
2, 156762, Note_on_c, 0, 78, 0
2, 156774, Note_on_c, 0, 58, 0
2, 156834, Note_on_c, 0, 78, 60
2, 156880, Note_on_c, 0, 77, 78
2, 156894, Note_on_c, 0, 65, 45
2, 156902, Note_on_c, 0, 58, 18
2, 156916, Note_on_c, 0, 61, 30
2, 156936, Note_on_c, 0, 77, 0
2, 156950, Note_on_c, 0, 78, 0
2, 156956, Note_on_c, 0, 65, 0
2, 156978, Note_on_c, 0, 58, 0
2, 156984, Note_on_c, 0, 61, 0
2, 156996, Control_c, 0, 64, 0
2, 157078, Note_on_c, 0, 77, 74
2, 157096, Note_on_c, 0, 76, 76
2, 157106, Note_on_c, 0, 53, 75
2, 157142, Note_on_c, 0, 77, 0
2, 157148, Note_on_c, 0, 76, 0
2, 157158, Note_on_c, 0, 53, 0
2, 157210, Control_c, 0, 64, 127
2, 157294, Note_on_c, 0, 76, 48
2, 157299, Note_on_c, 0, 75, 67
2, 157318, Note_on_c, 0, 65, 37
2, 157318, Note_on_c, 0, 63, 47
2, 157332, Note_on_c, 0, 57, 35
2, 157354, Note_on_c, 0, 76, 0
2, 157374, Note_on_c, 0, 63, 0
2, 157377, Note_on_c, 0, 75, 0
2, 157380, Note_on_c, 0, 65, 0
2, 157404, Note_on_c, 0, 57, 0
2, 157500, Note_on_c, 0, 75, 62
2, 157534, Note_on_c, 0, 72, 68
2, 157554, Note_on_c, 0, 63, 30
2, 157556, Note_on_c, 0, 75, 0
2, 157566, Note_on_c, 0, 65, 12
2, 157568, Note_on_c, 0, 57, 31
2, 157586, Note_on_c, 0, 72, 0
2, 157620, Note_on_c, 0, 63, 0
2, 157620, Note_on_c, 0, 65, 0
2, 157636, Note_on_c, 0, 57, 0
2, 157672, Control_c, 0, 64, 0
2, 157708, Note_on_c, 0, 72, 64
2, 157772, Note_on_c, 0, 73, 67
2, 157775, Note_on_c, 0, 46, 48
2, 157826, Note_on_c, 0, 72, 0
2, 157844, Note_on_c, 0, 46, 0
2, 157864, Note_on_c, 0, 73, 0
2, 157902, Control_c, 0, 64, 127
2, 157946, Note_on_c, 0, 73, 53
2, 157974, Note_on_c, 0, 61, 55
2, 157996, Note_on_c, 0, 53, 63
2, 158004, Note_on_c, 0, 69, 54
2, 158040, Note_on_c, 0, 61, 0
2, 158050, Note_on_c, 0, 53, 0
2, 158058, Note_on_c, 0, 69, 0
2, 158072, Note_on_c, 0, 73, 0
2, 158162, Note_on_c, 0, 69, 34
2, 158218, Note_on_c, 0, 61, 50
2, 158228, Note_on_c, 0, 70, 62
2, 158244, Note_on_c, 0, 53, 58
2, 158276, Note_on_c, 0, 69, 0
2, 158282, Note_on_c, 0, 61, 0
2, 158284, Note_on_c, 0, 70, 0
2, 158300, Note_on_c, 0, 53, 0
2, 158348, Control_c, 0, 64, 0
2, 158394, Note_on_c, 0, 70, 56
2, 158454, Note_on_c, 0, 46, 36
2, 158454, Note_on_c, 0, 73, 62
2, 158484, Note_on_c, 0, 70, 0
2, 158518, Note_on_c, 0, 73, 0
2, 158520, Note_on_c, 0, 46, 0
2, 158578, Control_c, 0, 64, 127
2, 158618, Note_on_c, 0, 73, 47
2, 158648, Note_on_c, 0, 61, 43
2, 158678, Note_on_c, 0, 53, 63
2, 158698, Note_on_c, 0, 75, 45
2, 158710, Note_on_c, 0, 61, 0
2, 158713, Note_on_c, 0, 73, 0
2, 158726, Note_on_c, 0, 53, 0
2, 158746, Note_on_c, 0, 75, 0
2, 158844, Note_on_c, 0, 75, 30
2, 158898, Note_on_c, 0, 61, 36
2, 158916, Note_on_c, 0, 76, 55
2, 158930, Note_on_c, 0, 53, 54
2, 158962, Note_on_c, 0, 61, 0
2, 158962, Note_on_c, 0, 76, 0
2, 158965, Note_on_c, 0, 75, 0
2, 158986, Note_on_c, 0, 53, 0
2, 159040, Control_c, 0, 64, 0
2, 159108, Note_on_c, 0, 76, 54
2, 159128, Note_on_c, 0, 78, 78
2, 159142, Note_on_c, 0, 46, 40
2, 159160, Note_on_c, 0, 76, 0
2, 159208, Note_on_c, 0, 46, 0
2, 159222, Note_on_c, 0, 78, 0
2, 159254, Control_c, 0, 64, 127
2, 159294, Note_on_c, 0, 78, 69
2, 159346, Note_on_c, 0, 61, 49
2, 159358, Note_on_c, 0, 76, 52
2, 159382, Note_on_c, 0, 53, 57
2, 159406, Note_on_c, 0, 61, 0
2, 159406, Note_on_c, 0, 76, 0
2, 159409, Note_on_c, 0, 78, 0
2, 159434, Note_on_c, 0, 53, 0
2, 159522, Note_on_c, 0, 76, 51
2, 159566, Note_on_c, 0, 77, 87
2, 159578, Note_on_c, 0, 61, 49
2, 159626, Note_on_c, 0, 77, 0
2, 159630, Note_on_c, 0, 61, 0
2, 159640, Note_on_c, 0, 76, 0
2, 159714, Control_c, 0, 64, 0
2, 159754, Note_on_c, 0, 77, 77
2, 159776, Note_on_c, 0, 45, 70
2, 159788, Note_on_c, 0, 78, 95
2, 159828, Note_on_c, 0, 45, 0
2, 159860, Note_on_c, 0, 77, 0
2, 159892, Note_on_c, 0, 78, 0
2, 159900, Control_c, 0, 64, 127
2, 159974, Note_on_c, 0, 78, 72
2, 160012, Note_on_c, 0, 63, 60
2, 160020, Note_on_c, 0, 60, 41
2, 160024, Note_on_c, 0, 76, 81
2, 160028, Note_on_c, 0, 53, 79
2, 160072, Note_on_c, 0, 63, 0
2, 160088, Note_on_c, 0, 53, 0
2, 160091, Note_on_c, 0, 60, 0
2, 160110, Note_on_c, 0, 76, 0
2, 160116, Note_on_c, 0, 78, 0
2, 160226, Note_on_c, 0, 76, 77
2, 160240, Note_on_c, 0, 63, 59
2, 160258, Note_on_c, 0, 77, 91
2, 160266, Note_on_c, 0, 53, 78
2, 160278, Note_on_c, 0, 76, 0
2, 160288, Note_on_c, 0, 63, 0
2, 160296, Note_on_c, 0, 77, 0
2, 160306, Note_on_c, 0, 53, 0
2, 160472, Note_on_c, 0, 77, 80
2, 160484, Control_c, 0, 64, 0
2, 160548, Note_on_c, 0, 77, 0
2, 160564, Note_on_c, 0, 46, 57
2, 160581, Note_on_c, 0, 89, 63
2, 160622, Note_on_c, 0, 46, 0
2, 160628, Note_on_c, 0, 89, 0
2, 160684, Control_c, 0, 64, 127
2, 160786, Note_on_c, 0, 89, 63
2, 160816, Note_on_c, 0, 61, 35
2, 160818, Note_on_c, 0, 85, 79
2, 160828, Note_on_c, 0, 53, 66
2, 160834, Note_on_c, 0, 58, 31
2, 160848, Note_on_c, 0, 89, 0
2, 160880, Note_on_c, 0, 53, 0
2, 160890, Note_on_c, 0, 85, 0
2, 160898, Note_on_c, 0, 58, 0
2, 160908, Note_on_c, 0, 61, 0
2, 161016, Note_on_c, 0, 85, 73
2, 161048, Note_on_c, 0, 82, 73
2, 161060, Note_on_c, 0, 53, 71
2, 161066, Note_on_c, 0, 58, 28
2, 161066, Note_on_c, 0, 61, 49
2, 161094, Note_on_c, 0, 85, 0
2, 161118, Note_on_c, 0, 53, 0
2, 161121, Note_on_c, 0, 61, 0
2, 161124, Note_on_c, 0, 82, 0
2, 161132, Note_on_c, 0, 58, 0
2, 161176, Control_c, 0, 64, 0
2, 161240, Note_on_c, 0, 82, 73
2, 161272, Note_on_c, 0, 51, 62
2, 161276, Note_on_c, 0, 78, 79
2, 161328, Note_on_c, 0, 51, 0
2, 161344, Note_on_c, 0, 78, 0
2, 161364, Note_on_c, 0, 82, 0
2, 161376, Control_c, 0, 64, 127
2, 161466, Note_on_c, 0, 78, 70
2, 161482, Note_on_c, 0, 66, 41
2, 161490, Note_on_c, 0, 75, 79
2, 161512, Note_on_c, 0, 58, 21
2, 161526, Note_on_c, 0, 78, 0
2, 161526, Note_on_c, 0, 60, 21
2, 161546, Note_on_c, 0, 66, 0
2, 161554, Note_on_c, 0, 75, 0
2, 161588, Note_on_c, 0, 58, 0
2, 161600, Note_on_c, 0, 60, 0
2, 161682, Note_on_c, 0, 75, 64
2, 161708, Note_on_c, 0, 72, 79
2, 161722, Note_on_c, 0, 66, 42
2, 161725, Note_on_c, 0, 60, 7
2, 161740, Note_on_c, 0, 58, 18
2, 161784, Note_on_c, 0, 72, 0
2, 161794, Note_on_c, 0, 66, 0
2, 161802, Note_on_c, 0, 75, 0
2, 161812, Note_on_c, 0, 60, 0
2, 161818, Note_on_c, 0, 58, 0
2, 161852, Control_c, 0, 64, 0
2, 161902, Note_on_c, 0, 78, 75
2, 161942, Note_on_c, 0, 77, 75
2, 161954, Note_on_c, 0, 53, 76
2, 162006, Note_on_c, 0, 53, 0
2, 162012, Note_on_c, 0, 78, 0
2, 162056, Note_on_c, 0, 77, 0
2, 162066, Control_c, 0, 64, 127
2, 162122, Note_on_c, 0, 77, 78
2, 162165, Note_on_c, 0, 76, 75
2, 162172, Note_on_c, 0, 61, 47
2, 162172, Note_on_c, 0, 65, 41
2, 162180, Note_on_c, 0, 58, 32
2, 162218, Note_on_c, 0, 76, 0
2, 162232, Note_on_c, 0, 65, 0
2, 162238, Note_on_c, 0, 77, 0
2, 162242, Note_on_c, 0, 61, 0
2, 162252, Note_on_c, 0, 58, 0
2, 162340, Note_on_c, 0, 76, 65
2, 162376, Note_on_c, 0, 75, 78
2, 162390, Note_on_c, 0, 65, 44
2, 162416, Note_on_c, 0, 58, 29
2, 162440, Note_on_c, 0, 61, 18
2, 162446, Note_on_c, 0, 65, 0
2, 162450, Note_on_c, 0, 76, 0
2, 162486, Note_on_c, 0, 58, 0
2, 162496, Control_c, 0, 64, 0
2, 162498, Note_on_c, 0, 75, 0
2, 162503, Note_on_c, 0, 61, 0
2, 162562, Note_on_c, 0, 75, 80
2, 162594, Note_on_c, 0, 74, 87
2, 162598, Note_on_c, 0, 53, 83
2, 162642, Note_on_c, 0, 53, 0
2, 162652, Note_on_c, 0, 74, 0
2, 162678, Note_on_c, 0, 75, 0
2, 162712, Control_c, 0, 64, 127
2, 162784, Note_on_c, 0, 74, 79
2, 162802, Note_on_c, 0, 73, 87
2, 162816, Note_on_c, 0, 63, 58
2, 162816, Note_on_c, 0, 57, 57
2, 162816, Note_on_c, 0, 65, 48
2, 162858, Note_on_c, 0, 74, 0
2, 162868, Note_on_c, 0, 63, 0
2, 162872, Note_on_c, 0, 65, 0
2, 162888, Note_on_c, 0, 57, 0
2, 162900, Note_on_c, 0, 73, 0
2, 162984, Note_on_c, 0, 73, 58
2, 163022, Note_on_c, 0, 72, 91
2, 163025, Note_on_c, 0, 65, 58
2, 163028, Note_on_c, 0, 63, 58
2, 163044, Note_on_c, 0, 57, 48
2, 163078, Note_on_c, 0, 65, 0
2, 163086, Note_on_c, 0, 63, 0
2, 163098, Note_on_c, 0, 57, 0
2, 163118, Note_on_c, 0, 72, 0
2, 163128, Note_on_c, 0, 73, 0
2, 163142, Control_c, 0, 64, 0
2, 163224, Note_on_c, 0, 72, 83
2, 163248, Note_on_c, 0, 71, 100
2, 163254, Note_on_c, 0, 58, 52
2, 163254, Note_on_c, 0, 65, 59
2, 163272, Note_on_c, 0, 61, 51
2, 163340, Note_on_c, 0, 72, 0
2, 163350, Note_on_c, 0, 71, 0
2, 163372, Control_c, 0, 64, 127
2, 163424, Note_on_c, 0, 65, 0
2, 163430, Note_on_c, 0, 71, 83
2, 163446, Note_on_c, 0, 61, 0
2, 163462, Note_on_c, 0, 70, 88
2, 163472, Note_on_c, 0, 58, 0
2, 163532, Note_on_c, 0, 71, 0
2, 163596, Note_on_c, 0, 70, 0
2, 163644, Note_on_c, 0, 70, 83
2, 163678, Note_on_c, 0, 69, 89
2, 163782, Note_on_c, 0, 70, 0
2, 163802, Note_on_c, 0, 69, 0
2, 163864, Note_on_c, 0, 69, 82
2, 163864, Control_c, 0, 64, 0
2, 163894, Note_on_c, 0, 68, 93
2, 163972, Note_on_c, 0, 69, 0
2, 164018, Control_c, 0, 64, 127
2, 164044, Note_on_c, 0, 68, 0
2, 164092, Note_on_c, 0, 68, 86
2, 164126, Note_on_c, 0, 67, 98
2, 164226, Note_on_c, 0, 68, 0
2, 164246, Note_on_c, 0, 67, 0
2, 164320, Note_on_c, 0, 67, 85
2, 164354, Note_on_c, 0, 66, 100
2, 164438, Note_on_c, 0, 67, 0
2, 164616, Control_c, 0, 64, 0
2, 164646, Note_on_c, 0, 65, 101
2, 164648, Note_on_c, 0, 68, 100
2, 164654, Note_on_c, 0, 37, 107
2, 164716, Note_on_c, 0, 66, 0
2, 164742, Note_on_c, 0, 37, 0
2, 164802, Control_c, 0, 64, 127
2, 164856, Note_on_c, 0, 65, 0
2, 164880, Note_on_c, 0, 68, 0
2, 164982, Note_on_c, 0, 56, 70
2, 164982, Note_on_c, 0, 59, 79
2, 164996, Note_on_c, 0, 49, 61
2, 165074, Note_on_c, 0, 49, 0
2, 165092, Note_on_c, 0, 56, 0
2, 165104, Note_on_c, 0, 59, 0
2, 165116, Note_on_c, 0, 68, 95
2, 165126, Note_on_c, 0, 65, 95
2, 165150, Note_on_c, 0, 68, 0
2, 165162, Note_on_c, 0, 65, 0
2, 165236, Note_on_c, 0, 68, 80
2, 165236, Note_on_c, 0, 65, 79
2, 165244, Note_on_c, 0, 59, 91
2, 165248, Note_on_c, 0, 56, 70
2, 165252, Note_on_c, 0, 49, 72
2, 165280, Note_on_c, 0, 59, 0
2, 165294, Note_on_c, 0, 56, 0
2, 165320, Note_on_c, 0, 49, 0
2, 165324, Note_on_c, 0, 65, 0
2, 165364, Note_on_c, 0, 68, 0
2, 165446, Note_on_c, 0, 68, 69
2, 165460, Note_on_c, 0, 65, 81
2, 165494, Note_on_c, 0, 65, 0
2, 165494, Control_c, 0, 64, 0
2, 165510, Note_on_c, 0, 70, 79
2, 165520, Note_on_c, 0, 68, 0
2, 165566, Note_on_c, 0, 65, 55
2, 165566, Note_on_c, 0, 68, 102
2, 165576, Note_on_c, 0, 37, 106
2, 165664, Note_on_c, 0, 37, 0
2, 165680, Note_on_c, 0, 70, 0
2, 165692, Control_c, 0, 64, 127
2, 165728, Note_on_c, 0, 65, 0
2, 165800, Note_on_c, 0, 68, 0
2, 165852, Note_on_c, 0, 59, 76
2, 165856, Note_on_c, 0, 56, 63
2, 165856, Note_on_c, 0, 49, 67
2, 165910, Note_on_c, 0, 49, 0
2, 165916, Note_on_c, 0, 59, 0
2, 165928, Note_on_c, 0, 66, 83
2, 165930, Note_on_c, 0, 63, 82
2, 165936, Note_on_c, 0, 56, 0
2, 165966, Note_on_c, 0, 63, 0
2, 165990, Note_on_c, 0, 66, 0
2, 166028, Note_on_c, 0, 68, 95
2, 166038, Note_on_c, 0, 65, 100
2, 166050, Note_on_c, 0, 59, 85
2, 166056, Note_on_c, 0, 49, 72
2, 166060, Note_on_c, 0, 56, 64
2, 166168, Note_on_c, 0, 59, 0
2, 166190, Note_on_c, 0, 56, 0
2, 166230, Note_on_c, 0, 49, 0
2, 166230, Control_c, 0, 64, 0
2, 166292, Note_on_c, 0, 66, 85
2, 166294, Note_on_c, 0, 70, 94
2, 166298, Note_on_c, 0, 68, 0
2, 166316, Note_on_c, 0, 42, 92
2, 166332, Note_on_c, 0, 65, 0
2, 166412, Note_on_c, 0, 66, 0
2, 166418, Note_on_c, 0, 42, 0
2, 166438, Note_on_c, 0, 70, 0
2, 166446, Control_c, 0, 64, 127
2, 166538, Note_on_c, 0, 58, 78
2, 166550, Note_on_c, 0, 49, 72
2, 166550, Note_on_c, 0, 54, 78
2, 166553, Control_c, 0, 64, 0
2, 166652, Note_on_c, 0, 58, 0
2, 166666, Note_on_c, 0, 54, 0
2, 166682, Note_on_c, 0, 49, 0
2, 166790, Note_on_c, 0, 73, 97
2, 166798, Note_on_c, 0, 70, 81
2, 166808, Note_on_c, 0, 58, 72
2, 166818, Note_on_c, 0, 54, 80
2, 166828, Note_on_c, 0, 49, 67
2, 166868, Note_on_c, 0, 58, 0
2, 166871, Note_on_c, 0, 70, 0
2, 166878, Control_c, 0, 64, 127
2, 166882, Note_on_c, 0, 54, 0
2, 166890, Note_on_c, 0, 49, 0
2, 166956, Note_on_c, 0, 73, 0
2, 166982, Control_c, 0, 64, 0
2, 167100, Note_on_c, 0, 78, 105
2, 167108, Note_on_c, 0, 70, 87
2, 167112, Note_on_c, 0, 42, 80
2, 167154, Note_on_c, 0, 42, 0
2, 167184, Control_c, 0, 64, 127
2, 167392, Note_on_c, 0, 50, 75
2, 167402, Note_on_c, 0, 58, 61
2, 167524, Note_on_c, 0, 58, 0
2, 167720, Control_c, 0, 64, 0
2, 167738, Note_on_c, 0, 58, 61
2, 167752, Note_on_c, 0, 51, 74
2, 167778, Note_on_c, 0, 50, 0
2, 167948, Note_on_c, 0, 70, 0
2, 168012, Note_on_c, 0, 58, 0
2, 168016, Note_on_c, 0, 68, 73
2, 168016, Note_on_c, 0, 77, 94
2, 168036, Note_on_c, 0, 44, 83
2, 168064, Note_on_c, 0, 51, 0
2, 168106, Note_on_c, 0, 78, 0
2, 168150, Note_on_c, 0, 44, 0
2, 168150, Control_c, 0, 64, 127
2, 168180, Note_on_c, 0, 68, 0
2, 168184, Note_on_c, 0, 77, 0
2, 168300, Note_on_c, 0, 56, 61
2, 168300, Note_on_c, 0, 60, 69
2, 168308, Note_on_c, 0, 51, 51
2, 168380, Note_on_c, 0, 60, 0
2, 168390, Note_on_c, 0, 56, 0
2, 168426, Note_on_c, 0, 75, 82
2, 168442, Note_on_c, 0, 51, 0
2, 168460, Note_on_c, 0, 75, 0
2, 168528, Note_on_c, 0, 75, 72
2, 168538, Note_on_c, 0, 66, 82
2, 168554, Note_on_c, 0, 60, 69
2, 168562, Note_on_c, 0, 51, 50
2, 168574, Note_on_c, 0, 56, 48
2, 168644, Note_on_c, 0, 60, 0
2, 168654, Note_on_c, 0, 56, 0
2, 168690, Note_on_c, 0, 66, 0
2, 168728, Note_on_c, 0, 51, 0
2, 168766, Control_c, 0, 64, 0
2, 168818, Note_on_c, 0, 77, 93
2, 168818, Note_on_c, 0, 68, 68
2, 168818, Note_on_c, 0, 44, 83
2, 168882, Note_on_c, 0, 75, 0
2, 168968, Note_on_c, 0, 44, 0
2, 168988, Note_on_c, 0, 77, 0
2, 168988, Note_on_c, 0, 68, 0
2, 168996, Control_c, 0, 64, 127
2, 169078, Note_on_c, 0, 60, 61
2, 169086, Note_on_c, 0, 56, 47
2, 169098, Note_on_c, 0, 51, 38
2, 169144, Note_on_c, 0, 60, 0
2, 169152, Note_on_c, 0, 56, 0
2, 169170, Note_on_c, 0, 51, 0
2, 169208, Note_on_c, 0, 75, 77
2, 169246, Note_on_c, 0, 75, 0
2, 169312, Note_on_c, 0, 75, 70
2, 169330, Note_on_c, 0, 66, 78
2, 169333, Note_on_c, 0, 60, 69
2, 169342, Note_on_c, 0, 51, 44
2, 169350, Note_on_c, 0, 56, 41
2, 169392, Note_on_c, 0, 60, 0
2, 169424, Note_on_c, 0, 56, 0
2, 169474, Note_on_c, 0, 66, 0
2, 169492, Note_on_c, 0, 51, 0
2, 169550, Control_c, 0, 64, 0
2, 169602, Note_on_c, 0, 68, 48
2, 169604, Note_on_c, 0, 77, 78
2, 169616, Note_on_c, 0, 44, 62
2, 169626, Note_on_c, 0, 75, 0
2, 169746, Note_on_c, 0, 44, 0
2, 169794, Control_c, 0, 64, 127
2, 169802, Note_on_c, 0, 77, 0
2, 169812, Note_on_c, 0, 68, 0
2, 169902, Note_on_c, 0, 56, 38
2, 169905, Note_on_c, 0, 60, 31
2, 169912, Note_on_c, 0, 51, 30
2, 169982, Note_on_c, 0, 56, 0
2, 169982, Note_on_c, 0, 60, 0
2, 169982, Note_on_c, 0, 51, 0
2, 170054, Note_on_c, 0, 75, 66
2, 170092, Note_on_c, 0, 75, 0
2, 170184, Note_on_c, 0, 75, 43
2, 170202, Note_on_c, 0, 60, 29
2, 170205, Note_on_c, 0, 56, 24
2, 170205, Note_on_c, 0, 66, 51
2, 170218, Note_on_c, 0, 51, 19
2, 170326, Note_on_c, 0, 56, 0
2, 170328, Note_on_c, 0, 60, 0
2, 170338, Note_on_c, 0, 51, 0
2, 170396, Note_on_c, 0, 66, 0
2, 170460, Note_on_c, 0, 75, 0
2, 170514, Note_on_c, 0, 72, 47
2, 170516, Note_on_c, 0, 49, 25
2, 170518, Control_c, 0, 64, 0
2, 170522, Note_on_c, 0, 64, 36
2, 170760, Note_on_c, 0, 64, 0
2, 170778, Control_c, 0, 64, 127
2, 170790, Note_on_c, 0, 49, 0
2, 170790, Note_on_c, 0, 56, 28
2, 170790, Note_on_c, 0, 61, 28
2, 170836, Note_on_c, 0, 72, 0
2, 170876, Note_on_c, 0, 61, 0
2, 170888, Note_on_c, 0, 56, 0
2, 170954, Note_on_c, 0, 73, 44
2, 171006, Note_on_c, 0, 73, 0
2, 171112, Note_on_c, 0, 73, 20
2, 171122, Note_on_c, 0, 61, 30
2, 171138, Note_on_c, 0, 65, 20
2, 171140, Note_on_c, 0, 56, 26
2, 171236, Note_on_c, 0, 56, 0
2, 171262, Note_on_c, 0, 61, 0
2, 171262, Note_on_c, 0, 65, 0
2, 171378, Control_c, 0, 64, 0
2, 171392, Note_on_c, 0, 49, 32
2, 171472, Note_on_c, 0, 80, 54
2, 171472, Note_on_c, 0, 77, 46
2, 171475, Note_on_c, 0, 73, 0
2, 171500, Note_on_c, 0, 49, 0
2, 171584, Note_on_c, 0, 77, 0
2, 171594, Control_c, 0, 64, 127
2, 171636, Note_on_c, 0, 80, 0
2, 171688, Note_on_c, 0, 71, 44
2, 171698, Note_on_c, 0, 61, 32
2, 171712, Note_on_c, 0, 68, 23
2, 171750, Note_on_c, 0, 71, 0
2, 171772, Note_on_c, 0, 61, 0
2, 171776, Note_on_c, 0, 68, 0
2, 171844, Note_on_c, 0, 80, 74
2, 171852, Note_on_c, 0, 77, 65
2, 171880, Note_on_c, 0, 80, 0
2, 171890, Note_on_c, 0, 77, 0
2, 171940, Note_on_c, 0, 80, 69
2, 171948, Note_on_c, 0, 71, 42
2, 171950, Note_on_c, 0, 77, 73
2, 171952, Note_on_c, 0, 68, 33
2, 171958, Note_on_c, 0, 61, 32
2, 171998, Note_on_c, 0, 77, 0
2, 172010, Note_on_c, 0, 71, 0
2, 172010, Note_on_c, 0, 68, 0
2, 172022, Note_on_c, 0, 61, 0
2, 172028, Note_on_c, 0, 80, 0
2, 172084, Note_on_c, 0, 80, 86
2, 172084, Control_c, 0, 64, 0
2, 172104, Note_on_c, 0, 77, 46
2, 172138, Note_on_c, 0, 80, 0
2, 172152, Note_on_c, 0, 77, 0
2, 172154, Note_on_c, 0, 82, 76
2, 172192, Note_on_c, 0, 49, 64
2, 172208, Note_on_c, 0, 77, 85
2, 172212, Note_on_c, 0, 80, 88
2, 172242, Note_on_c, 0, 49, 0
2, 172286, Note_on_c, 0, 82, 0
2, 172314, Control_c, 0, 64, 127
2, 172354, Note_on_c, 0, 77, 0
2, 172426, Note_on_c, 0, 80, 0
2, 172434, Note_on_c, 0, 71, 66
2, 172448, Note_on_c, 0, 61, 45
2, 172452, Note_on_c, 0, 68, 36
2, 172488, Note_on_c, 0, 71, 0
2, 172512, Note_on_c, 0, 68, 0
2, 172516, Note_on_c, 0, 61, 0
2, 172598, Note_on_c, 0, 75, 79
2, 172600, Note_on_c, 0, 78, 83
2, 172632, Note_on_c, 0, 75, 0
2, 172638, Note_on_c, 0, 78, 0
2, 172688, Note_on_c, 0, 80, 95
2, 172700, Note_on_c, 0, 77, 83
2, 172704, Note_on_c, 0, 71, 63
2, 172720, Note_on_c, 0, 61, 51
2, 172728, Note_on_c, 0, 68, 44
2, 172744, Control_c, 0, 64, 0
2, 172828, Note_on_c, 0, 68, 0
2, 172831, Note_on_c, 0, 71, 0
2, 172868, Note_on_c, 0, 61, 0
2, 172940, Note_on_c, 0, 77, 0
2, 172950, Note_on_c, 0, 82, 91
2, 172956, Note_on_c, 0, 78, 72
2, 172968, Note_on_c, 0, 54, 80
2, 173010, Note_on_c, 0, 54, 0
2, 173018, Note_on_c, 0, 80, 0
2, 173026, Note_on_c, 0, 78, 0
2, 173026, Control_c, 0, 64, 127
2, 173074, Note_on_c, 0, 82, 0
2, 173200, Note_on_c, 0, 70, 68
2, 173226, Note_on_c, 0, 66, 50
2, 173230, Note_on_c, 0, 61, 48
2, 173292, Note_on_c, 0, 66, 0
2, 173295, Note_on_c, 0, 61, 0
2, 173318, Note_on_c, 0, 70, 0
2, 173390, Control_c, 0, 64, 0
2, 173464, Note_on_c, 0, 85, 102
2, 173470, Note_on_c, 0, 82, 79
2, 173476, Note_on_c, 0, 70, 62
2, 173484, Note_on_c, 0, 66, 59
2, 173494, Note_on_c, 0, 61, 54
2, 173516, Note_on_c, 0, 82, 0
2, 173532, Note_on_c, 0, 70, 0
2, 173572, Note_on_c, 0, 61, 0
2, 173575, Note_on_c, 0, 66, 0
2, 173606, Control_c, 0, 64, 127
2, 173618, Note_on_c, 0, 85, 0
2, 173682, Control_c, 0, 64, 0
2, 173754, Note_on_c, 0, 90, 100
2, 173764, Note_on_c, 0, 82, 78
2, 173764, Note_on_c, 0, 54, 67
2, 173812, Note_on_c, 0, 54, 0
2, 173882, Control_c, 0, 64, 127
2, 174066, Note_on_c, 0, 70, 43
2, 174080, Note_on_c, 0, 62, 44
2, 174082, Control_c, 0, 64, 0
2, 174236, Note_on_c, 0, 70, 0
2, 174312, Control_c, 0, 64, 127
2, 174374, Control_c, 0, 64, 0
2, 174388, Note_on_c, 0, 70, 44
2, 174407, Note_on_c, 0, 62, 0
2, 174407, Note_on_c, 0, 63, 47
2, 174562, Note_on_c, 0, 82, 0
2, 174628, Note_on_c, 0, 70, 0
2, 174654, Note_on_c, 0, 63, 0
2, 174654, Note_on_c, 0, 80, 68
2, 174657, Note_on_c, 0, 89, 83
2, 174672, Note_on_c, 0, 56, 49
2, 174706, Note_on_c, 0, 90, 0
2, 174732, Note_on_c, 0, 80, 0
2, 174732, Note_on_c, 0, 56, 0
2, 174768, Note_on_c, 0, 89, 0
2, 174771, Control_c, 0, 64, 127
2, 174916, Note_on_c, 0, 72, 47
2, 174938, Note_on_c, 0, 63, 34
2, 174941, Note_on_c, 0, 68, 30
2, 174992, Note_on_c, 0, 72, 0
2, 175008, Note_on_c, 0, 68, 0
2, 175010, Note_on_c, 0, 63, 0
2, 175060, Note_on_c, 0, 87, 56
2, 175102, Note_on_c, 0, 87, 0
2, 175142, Control_c, 0, 64, 0
2, 175164, Note_on_c, 0, 87, 62
2, 175176, Note_on_c, 0, 78, 71
2, 175192, Note_on_c, 0, 72, 51
2, 175198, Note_on_c, 0, 63, 44
2, 175224, Note_on_c, 0, 68, 30
2, 175250, Control_c, 0, 64, 127
2, 175254, Note_on_c, 0, 72, 0
2, 175288, Note_on_c, 0, 68, 0
2, 175302, Note_on_c, 0, 78, 0
2, 175308, Note_on_c, 0, 63, 0
2, 175342, Control_c, 0, 64, 0
2, 175442, Note_on_c, 0, 80, 54
2, 175452, Note_on_c, 0, 89, 67
2, 175458, Note_on_c, 0, 56, 51
2, 175478, Note_on_c, 0, 87, 0
2, 175520, Note_on_c, 0, 56, 0
2, 175612, Note_on_c, 0, 80, 0
2, 175612, Note_on_c, 0, 89, 0
2, 175634, Control_c, 0, 64, 127
2, 175692, Note_on_c, 0, 72, 42
2, 175720, Note_on_c, 0, 68, 21
2, 175732, Note_on_c, 0, 63, 24
2, 175754, Note_on_c, 0, 72, 0
2, 175790, Note_on_c, 0, 68, 0
2, 175794, Note_on_c, 0, 63, 0
2, 175826, Note_on_c, 0, 87, 60
2, 175868, Note_on_c, 0, 87, 0
2, 175880, Control_c, 0, 64, 0
2, 175924, Note_on_c, 0, 87, 66
2, 175948, Note_on_c, 0, 78, 64
2, 175951, Note_on_c, 0, 72, 50
2, 175966, Note_on_c, 0, 68, 34
2, 176000, Note_on_c, 0, 63, 29
2, 176014, Note_on_c, 0, 72, 0
2, 176035, Note_on_c, 0, 78, 0
2, 176044, Note_on_c, 0, 68, 0
2, 176064, Note_on_c, 0, 63, 0
2, 176064, Control_c, 0, 64, 127
2, 176156, Control_c, 0, 64, 0
2, 176208, Note_on_c, 0, 89, 63
2, 176212, Note_on_c, 0, 80, 43
2, 176226, Note_on_c, 0, 87, 0
2, 176226, Note_on_c, 0, 56, 40
2, 176282, Note_on_c, 0, 56, 0
2, 176340, Note_on_c, 0, 80, 0
2, 176370, Control_c, 0, 64, 127
2, 176375, Note_on_c, 0, 89, 0
2, 176466, Note_on_c, 0, 72, 35
2, 176472, Note_on_c, 0, 63, 30
2, 176480, Control_c, 0, 64, 0
2, 176480, Note_on_c, 0, 68, 27
2, 176542, Note_on_c, 0, 72, 0
2, 176542, Note_on_c, 0, 63, 0
2, 176554, Note_on_c, 0, 68, 0
2, 176610, Note_on_c, 0, 87, 32
2, 176674, Note_on_c, 0, 87, 0
2, 176734, Note_on_c, 0, 87, 69
2, 176744, Note_on_c, 0, 78, 48
2, 176752, Note_on_c, 0, 72, 40
2, 176758, Note_on_c, 0, 68, 31
2, 176770, Note_on_c, 0, 63, 35
2, 176866, Note_on_c, 0, 63, 0
2, 176872, Note_on_c, 0, 68, 0
2, 176874, Note_on_c, 0, 72, 0
2, 176894, Control_c, 0, 64, 127
2, 177026, Note_on_c, 0, 78, 0
2, 177078, Control_c, 0, 64, 0
2, 177140, Note_on_c, 0, 85, 58
2, 177156, Note_on_c, 0, 73, 27
2, 177162, Note_on_c, 0, 87, 0
2, 177170, Note_on_c, 0, 77, 30
2, 177180, Note_on_c, 0, 68, 31
2, 177182, Note_on_c, 0, 61, 24
2, 177352, Note_on_c, 0, 73, 0
2, 177384, Note_on_c, 0, 68, 0
2, 177384, Control_c, 0, 64, 127
2, 177390, Note_on_c, 0, 61, 0
2, 177396, Note_on_c, 0, 85, 0
2, 177492, Note_on_c, 0, 77, 0
2, 177922, Control_c, 0, 64, 0
2, 177946, Note_on_c, 0, 77, 55
2, 178082, Note_on_c, 0, 77, 0
2, 178108, Control_c, 0, 64, 127
2, 178184, Note_on_c, 0, 77, 47
2, 178200, Control_c, 0, 64, 0
2, 178216, Note_on_c, 0, 46, 36
2, 178226, Note_on_c, 0, 78, 62
2, 178246, Note_on_c, 0, 77, 0
2, 178278, Note_on_c, 0, 46, 0
2, 178294, Note_on_c, 0, 78, 0
2, 178448, Note_on_c, 0, 78, 52
2, 178458, Note_on_c, 0, 61, 40
2, 178472, Note_on_c, 0, 76, 58
2, 178478, Note_on_c, 0, 53, 50
2, 178520, Note_on_c, 0, 76, 0
2, 178524, Note_on_c, 0, 61, 0
2, 178526, Note_on_c, 0, 78, 0
2, 178536, Note_on_c, 0, 53, 0
2, 178680, Note_on_c, 0, 76, 52
2, 178692, Note_on_c, 0, 61, 41
2, 178698, Note_on_c, 0, 77, 80
2, 178716, Note_on_c, 0, 53, 50
2, 178732, Note_on_c, 0, 76, 0
2, 178744, Note_on_c, 0, 77, 0
2, 178754, Note_on_c, 0, 61, 0
2, 178768, Note_on_c, 0, 53, 0
2, 178886, Note_on_c, 0, 77, 69
2, 178910, Note_on_c, 0, 45, 40
2, 178924, Note_on_c, 0, 78, 80
2, 178970, Note_on_c, 0, 45, 0
2, 178982, Note_on_c, 0, 77, 0
2, 179028, Control_c, 0, 64, 127
2, 179038, Note_on_c, 0, 78, 0
2, 179112, Note_on_c, 0, 78, 70
2, 179140, Note_on_c, 0, 63, 50
2, 179144, Note_on_c, 0, 53, 80
2, 179154, Note_on_c, 0, 76, 69
2, 179164, Note_on_c, 0, 60, 34
2, 179194, Note_on_c, 0, 53, 0
2, 179212, Note_on_c, 0, 63, 0
2, 179228, Note_on_c, 0, 60, 0
2, 179250, Note_on_c, 0, 78, 0
2, 179254, Note_on_c, 0, 76, 0
2, 179260, Control_c, 0, 64, 0
2, 179342, Note_on_c, 0, 76, 62
2, 179364, Note_on_c, 0, 63, 62
2, 179372, Note_on_c, 0, 53, 89
2, 179374, Note_on_c, 0, 77, 90
2, 179408, Note_on_c, 0, 63, 0
2, 179424, Note_on_c, 0, 53, 0
2, 179434, Note_on_c, 0, 76, 0
2, 179438, Note_on_c, 0, 77, 0
2, 179460, Control_c, 0, 64, 127
2, 179522, Control_c, 0, 64, 0
2, 179528, Note_on_c, 0, 77, 66
2, 179576, Note_on_c, 0, 46, 68
2, 179586, Note_on_c, 0, 85, 93
2, 179620, Note_on_c, 0, 77, 0
2, 179630, Note_on_c, 0, 46, 0
2, 179696, Note_on_c, 0, 85, 0
2, 179704, Control_c, 0, 64, 127
2, 179766, Control_c, 0, 64, 0
2, 179772, Note_on_c, 0, 85, 66
2, 179792, Note_on_c, 0, 61, 59
2, 179820, Note_on_c, 0, 53, 75
2, 179823, Note_on_c, 0, 84, 83
2, 179828, Note_on_c, 0, 58, 35
2, 179890, Note_on_c, 0, 58, 0
2, 179896, Note_on_c, 0, 61, 0
2, 179899, Note_on_c, 0, 85, 0
2, 179906, Note_on_c, 0, 84, 0
2, 179910, Note_on_c, 0, 53, 0
2, 179920, Control_c, 0, 64, 127
2, 179982, Control_c, 0, 64, 0
2, 180012, Note_on_c, 0, 84, 75
2, 180038, Note_on_c, 0, 83, 103
2, 180048, Note_on_c, 0, 61, 54
2, 180060, Note_on_c, 0, 53, 44
2, 180064, Note_on_c, 0, 58, 28
2, 180096, Note_on_c, 0, 83, 0
2, 180116, Note_on_c, 0, 61, 0
2, 180118, Note_on_c, 0, 84, 0
2, 180124, Note_on_c, 0, 53, 0
2, 180130, Note_on_c, 0, 58, 0
2, 180152, Control_c, 0, 64, 127
2, 180182, Control_c, 0, 64, 0
2, 180214, Note_on_c, 0, 83, 100
2, 180248, Note_on_c, 0, 51, 69
2, 180262, Note_on_c, 0, 82, 78
2, 180304, Note_on_c, 0, 51, 0
2, 180314, Note_on_c, 0, 83, 0
2, 180366, Control_c, 0, 64, 127
2, 180374, Note_on_c, 0, 82, 0
2, 180428, Control_c, 0, 64, 0
2, 180434, Note_on_c, 0, 82, 65
2, 180446, Note_on_c, 0, 66, 48
2, 180470, Note_on_c, 0, 81, 85
2, 180478, Note_on_c, 0, 58, 32
2, 180498, Note_on_c, 0, 60, 27
2, 180516, Note_on_c, 0, 66, 0
2, 180542, Note_on_c, 0, 81, 0
2, 180544, Note_on_c, 0, 58, 0
2, 180550, Note_on_c, 0, 82, 0
2, 180566, Note_on_c, 0, 60, 0
2, 180596, Control_c, 0, 64, 127
2, 180640, Note_on_c, 0, 81, 69
2, 180642, Control_c, 0, 64, 0
2, 180684, Note_on_c, 0, 66, 51
2, 180688, Note_on_c, 0, 80, 74
2, 180708, Note_on_c, 0, 60, 13
2, 180720, Note_on_c, 0, 58, 24
2, 180748, Note_on_c, 0, 81, 0
2, 180756, Note_on_c, 0, 66, 0
2, 180782, Note_on_c, 0, 80, 0
2, 180782, Note_on_c, 0, 60, 0
2, 180796, Note_on_c, 0, 58, 0
2, 180812, Control_c, 0, 64, 127
2, 180858, Control_c, 0, 64, 0
2, 180864, Note_on_c, 0, 80, 45
2, 180912, Note_on_c, 0, 79, 80
2, 180930, Note_on_c, 0, 53, 73
2, 180964, Note_on_c, 0, 79, 0
2, 180982, Note_on_c, 0, 53, 0
2, 180996, Note_on_c, 0, 80, 0
2, 181028, Control_c, 0, 64, 127
2, 181104, Control_c, 0, 64, 0
2, 181122, Note_on_c, 0, 79, 54
2, 181136, Note_on_c, 0, 78, 68
2, 181146, Note_on_c, 0, 61, 41
2, 181146, Note_on_c, 0, 58, 31
2, 181154, Note_on_c, 0, 65, 32
2, 181182, Note_on_c, 0, 79, 0
2, 181206, Note_on_c, 0, 78, 0
2, 181216, Note_on_c, 0, 58, 0
2, 181220, Note_on_c, 0, 61, 0
2, 181220, Note_on_c, 0, 65, 0
2, 181242, Control_c, 0, 64, 127
2, 181304, Note_on_c, 0, 78, 47
2, 181318, Control_c, 0, 64, 0
2, 181358, Note_on_c, 0, 77, 69
2, 181380, Note_on_c, 0, 65, 33
2, 181384, Note_on_c, 0, 61, 22
2, 181386, Note_on_c, 0, 58, 23
2, 181410, Note_on_c, 0, 77, 0
2, 181430, Note_on_c, 0, 78, 0
2, 181452, Note_on_c, 0, 65, 0
2, 181458, Note_on_c, 0, 61, 0
2, 181464, Note_on_c, 0, 58, 0
2, 181486, Control_c, 0, 64, 127
2, 181548, Control_c, 0, 64, 0
2, 181562, Note_on_c, 0, 77, 68
2, 181588, Note_on_c, 0, 76, 63
2, 181592, Note_on_c, 0, 53, 69
2, 181634, Note_on_c, 0, 76, 0
2, 181648, Note_on_c, 0, 53, 0
2, 181652, Note_on_c, 0, 77, 0
2, 181718, Control_c, 0, 64, 127
2, 181766, Note_on_c, 0, 76, 54
2, 181780, Control_c, 0, 64, 0
2, 181800, Note_on_c, 0, 75, 65
2, 181812, Note_on_c, 0, 63, 44
2, 181816, Note_on_c, 0, 65, 26
2, 181816, Note_on_c, 0, 57, 38
2, 181838, Note_on_c, 0, 76, 0
2, 181850, Note_on_c, 0, 75, 0
2, 181874, Note_on_c, 0, 63, 0
2, 181884, Note_on_c, 0, 65, 0
2, 181887, Note_on_c, 0, 57, 0
2, 181918, Control_c, 0, 64, 127
2, 181966, Note_on_c, 0, 75, 57
2, 181980, Control_c, 0, 64, 0
2, 182010, Note_on_c, 0, 65, 35
2, 182012, Note_on_c, 0, 72, 73
2, 182054, Note_on_c, 0, 57, 16
2, 182057, Note_on_c, 0, 72, 0
2, 182060, Note_on_c, 0, 65, 0
2, 182080, Note_on_c, 0, 75, 0
2, 182118, Note_on_c, 0, 57, 0
2, 182148, Control_c, 0, 64, 127
2, 182194, Control_c, 0, 64, 0
2, 182206, Note_on_c, 0, 72, 74
2, 182232, Note_on_c, 0, 73, 73
2, 182232, Note_on_c, 0, 46, 56
2, 182264, Note_on_c, 0, 72, 0
2, 182292, Note_on_c, 0, 46, 0
2, 182316, Note_on_c, 0, 73, 0
2, 182362, Control_c, 0, 64, 127
2, 182410, Control_c, 0, 64, 0
2, 182418, Note_on_c, 0, 73, 57
2, 182438, Note_on_c, 0, 61, 53
2, 182464, Note_on_c, 0, 53, 68
2, 182474, Note_on_c, 0, 69, 59
2, 182500, Note_on_c, 0, 61, 0
2, 182514, Note_on_c, 0, 53, 0
2, 182532, Note_on_c, 0, 69, 0
2, 182544, Note_on_c, 0, 73, 0
2, 182580, Control_c, 0, 64, 127
2, 182640, Control_c, 0, 64, 0
2, 182646, Note_on_c, 0, 69, 46
2, 182696, Note_on_c, 0, 61, 50
2, 182716, Note_on_c, 0, 53, 60
2, 182719, Note_on_c, 0, 70, 59
2, 182754, Note_on_c, 0, 61, 0
2, 182770, Note_on_c, 0, 69, 0
2, 182772, Note_on_c, 0, 53, 0
2, 182776, Note_on_c, 0, 70, 0
2, 182810, Control_c, 0, 64, 127
2, 182856, Control_c, 0, 64, 0
2, 182876, Note_on_c, 0, 70, 44
2, 182918, Note_on_c, 0, 46, 39
2, 182930, Note_on_c, 0, 73, 62
2, 182970, Note_on_c, 0, 70, 0
2, 182982, Note_on_c, 0, 73, 0
2, 182984, Note_on_c, 0, 46, 0
2, 183024, Control_c, 0, 64, 127
2, 183070, Control_c, 0, 64, 0
2, 183104, Note_on_c, 0, 73, 52
2, 183120, Note_on_c, 0, 61, 36
2, 183146, Note_on_c, 0, 53, 62
2, 183166, Note_on_c, 0, 75, 59
2, 183190, Note_on_c, 0, 73, 0
2, 183190, Note_on_c, 0, 61, 0
2, 183200, Note_on_c, 0, 53, 0
2, 183218, Note_on_c, 0, 75, 0
2, 183240, Control_c, 0, 64, 127
2, 183286, Control_c, 0, 64, 0
2, 183346, Note_on_c, 0, 75, 62
2, 183356, Note_on_c, 0, 61, 51
2, 183384, Note_on_c, 0, 53, 73
2, 183400, Note_on_c, 0, 76, 60
2, 183422, Note_on_c, 0, 61, 0
2, 183438, Control_c, 0, 64, 127
2, 183442, Note_on_c, 0, 53, 0
2, 183452, Note_on_c, 0, 76, 0
2, 183460, Note_on_c, 0, 75, 0
2, 183516, Control_c, 0, 64, 0
2, 183552, Note_on_c, 0, 76, 60
2, 183586, Note_on_c, 0, 78, 88
2, 183586, Note_on_c, 0, 46, 53
2, 183604, Note_on_c, 0, 76, 0
2, 183654, Note_on_c, 0, 46, 0
2, 183670, Control_c, 0, 64, 127
2, 183686, Note_on_c, 0, 78, 0
2, 183746, Control_c, 0, 64, 0
2, 183760, Note_on_c, 0, 78, 70
2, 183794, Note_on_c, 0, 76, 91
2, 183804, Note_on_c, 0, 61, 64
2, 183832, Note_on_c, 0, 53, 68
2, 183880, Note_on_c, 0, 78, 0
2, 183884, Note_on_c, 0, 61, 0
2, 183886, Note_on_c, 0, 53, 0
2, 183900, Control_c, 0, 64, 127
2, 183906, Note_on_c, 0, 76, 0
2, 183968, Note_on_c, 0, 76, 76
2, 183976, Control_c, 0, 64, 0
2, 184014, Note_on_c, 0, 77, 95
2, 184022, Note_on_c, 0, 61, 49
2, 184036, Note_on_c, 0, 53, 65
2, 184066, Note_on_c, 0, 76, 0
2, 184076, Note_on_c, 0, 61, 0
2, 184088, Note_on_c, 0, 53, 0
2, 184096, Note_on_c, 0, 77, 0
2, 184130, Control_c, 0, 64, 127
2, 184188, Note_on_c, 0, 77, 72
2, 184192, Control_c, 0, 64, 0
2, 184220, Note_on_c, 0, 45, 66
2, 184220, Note_on_c, 0, 78, 93
2, 184264, Note_on_c, 0, 45, 0
2, 184310, Note_on_c, 0, 77, 0
2, 184344, Control_c, 0, 64, 127
2, 184350, Note_on_c, 0, 78, 0
2, 184402, Note_on_c, 0, 78, 85
2, 184434, Note_on_c, 0, 63, 68
2, 184438, Control_c, 0, 64, 0
2, 184440, Note_on_c, 0, 76, 91
2, 184446, Note_on_c, 0, 60, 47
2, 184456, Note_on_c, 0, 53, 69
2, 184514, Note_on_c, 0, 63, 0
2, 184526, Note_on_c, 0, 60, 0
2, 184536, Note_on_c, 0, 76, 0
2, 184536, Note_on_c, 0, 53, 0
2, 184554, Note_on_c, 0, 78, 0
2, 184560, Control_c, 0, 64, 127
2, 184640, Note_on_c, 0, 76, 63
2, 184652, Control_c, 0, 64, 0
2, 184660, Note_on_c, 0, 63, 69
2, 184668, Note_on_c, 0, 77, 95
2, 184696, Note_on_c, 0, 53, 73
2, 184696, Note_on_c, 0, 60, 46
2, 184724, Note_on_c, 0, 63, 0
2, 184748, Note_on_c, 0, 77, 0
2, 184750, Note_on_c, 0, 60, 0
2, 184754, Note_on_c, 0, 53, 0
2, 184760, Note_on_c, 0, 76, 0
2, 184774, Control_c, 0, 64, 127
2, 184860, Note_on_c, 0, 77, 71
2, 184868, Control_c, 0, 64, 0
2, 184962, Note_on_c, 0, 77, 0
2, 184962, Note_on_c, 0, 46, 62
2, 184962, Note_on_c, 0, 89, 88
2, 185022, Note_on_c, 0, 46, 0
2, 185052, Control_c, 0, 64, 127
2, 185092, Note_on_c, 0, 89, 0
2, 185178, Note_on_c, 0, 89, 55
2, 185202, Note_on_c, 0, 61, 47
2, 185220, Note_on_c, 0, 85, 79
2, 185228, Note_on_c, 0, 58, 32
2, 185236, Note_on_c, 0, 53, 60
2, 185268, Note_on_c, 0, 89, 0
2, 185300, Note_on_c, 0, 61, 0
2, 185306, Note_on_c, 0, 58, 0
2, 185314, Note_on_c, 0, 85, 0
2, 185316, Note_on_c, 0, 53, 0
2, 185406, Note_on_c, 0, 85, 69
2, 185442, Note_on_c, 0, 82, 73
2, 185450, Note_on_c, 0, 61, 49
2, 185456, Note_on_c, 0, 58, 40
2, 185482, Note_on_c, 0, 53, 33
2, 185508, Note_on_c, 0, 85, 0
2, 185520, Note_on_c, 0, 61, 0
2, 185542, Note_on_c, 0, 58, 0
2, 185548, Note_on_c, 0, 53, 0
2, 185560, Note_on_c, 0, 82, 0
2, 185574, Control_c, 0, 64, 0
2, 185627, Note_on_c, 0, 82, 75
2, 185662, Note_on_c, 0, 78, 79
2, 185662, Note_on_c, 0, 51, 68
2, 185722, Note_on_c, 0, 51, 0
2, 185744, Control_c, 0, 64, 127
2, 185752, Note_on_c, 0, 82, 0
2, 185778, Note_on_c, 0, 78, 0
2, 185836, Control_c, 0, 64, 0
2, 185836, Note_on_c, 0, 78, 75
2, 185860, Note_on_c, 0, 66, 50
2, 185866, Note_on_c, 0, 75, 79
2, 185894, Note_on_c, 0, 60, 39
2, 185894, Note_on_c, 0, 58, 27
2, 185926, Note_on_c, 0, 66, 0
2, 185954, Note_on_c, 0, 78, 0
2, 185958, Note_on_c, 0, 60, 0
2, 185964, Note_on_c, 0, 58, 0
2, 185974, Control_c, 0, 64, 127
2, 185977, Note_on_c, 0, 75, 0
2, 186042, Note_on_c, 0, 75, 78
2, 186066, Control_c, 0, 64, 0
2, 186086, Note_on_c, 0, 72, 84
2, 186092, Note_on_c, 0, 66, 56
2, 186122, Note_on_c, 0, 58, 28
2, 186132, Note_on_c, 0, 60, 34
2, 186166, Note_on_c, 0, 75, 0
2, 186194, Note_on_c, 0, 58, 0
2, 186197, Note_on_c, 0, 60, 0
2, 186200, Note_on_c, 0, 66, 0
2, 186204, Control_c, 0, 64, 127
2, 186206, Note_on_c, 0, 72, 0
2, 186272, Note_on_c, 0, 78, 78
2, 186282, Control_c, 0, 64, 0
2, 186308, Note_on_c, 0, 77, 88
2, 186334, Note_on_c, 0, 53, 76
2, 186390, Note_on_c, 0, 53, 0
2, 186416, Note_on_c, 0, 78, 0
2, 186432, Note_on_c, 0, 77, 0
2, 186434, Control_c, 0, 64, 127
2, 186490, Note_on_c, 0, 77, 84
2, 186512, Control_c, 0, 64, 0
2, 186530, Note_on_c, 0, 65, 51
2, 186540, Note_on_c, 0, 76, 71
2, 186542, Note_on_c, 0, 58, 37
2, 186542, Note_on_c, 0, 61, 48
2, 186610, Note_on_c, 0, 65, 0
2, 186610, Note_on_c, 0, 76, 0
2, 186610, Note_on_c, 0, 58, 0
2, 186613, Note_on_c, 0, 61, 0
2, 186620, Note_on_c, 0, 77, 0
2, 186666, Control_c, 0, 64, 127
2, 186702, Note_on_c, 0, 76, 41
2, 186716, Note_on_c, 0, 77, 37
2, 186742, Note_on_c, 0, 75, 84
2, 186742, Control_c, 0, 64, 0
2, 186760, Note_on_c, 0, 65, 53
2, 186766, Note_on_c, 0, 77, 0
2, 186766, Note_on_c, 0, 58, 35
2, 186772, Note_on_c, 0, 61, 41
2, 186808, Note_on_c, 0, 76, 0
2, 186824, Note_on_c, 0, 65, 0
2, 186832, Note_on_c, 0, 61, 0
2, 186840, Note_on_c, 0, 58, 0
2, 186846, Note_on_c, 0, 75, 0
2, 186880, Control_c, 0, 64, 127
2, 186910, Note_on_c, 0, 75, 61
2, 186942, Control_c, 0, 64, 0
2, 186966, Note_on_c, 0, 74, 81
2, 186969, Note_on_c, 0, 53, 88
2, 187014, Note_on_c, 0, 53, 0
2, 187017, Note_on_c, 0, 74, 0
2, 187052, Note_on_c, 0, 75, 0
2, 187110, Control_c, 0, 64, 127
2, 187144, Note_on_c, 0, 74, 61
2, 187156, Control_c, 0, 64, 0
2, 187168, Note_on_c, 0, 73, 76
2, 187176, Note_on_c, 0, 63, 51
2, 187184, Note_on_c, 0, 65, 38
2, 187187, Note_on_c, 0, 57, 41
2, 187216, Note_on_c, 0, 74, 0
2, 187242, Note_on_c, 0, 63, 0
2, 187245, Note_on_c, 0, 65, 0
2, 187248, Note_on_c, 0, 57, 0
2, 187286, Note_on_c, 0, 73, 0
2, 187346, Note_on_c, 0, 73, 64
2, 187390, Note_on_c, 0, 72, 71
2, 187406, Note_on_c, 0, 63, 51
2, 187406, Note_on_c, 0, 65, 46
2, 187422, Note_on_c, 0, 57, 35
2, 187462, Note_on_c, 0, 65, 0
2, 187466, Note_on_c, 0, 63, 0
2, 187472, Note_on_c, 0, 72, 0
2, 187484, Note_on_c, 0, 57, 0
2, 187486, Note_on_c, 0, 73, 0
2, 187596, Note_on_c, 0, 72, 75
2, 187632, Note_on_c, 0, 71, 76
2, 187634, Note_on_c, 0, 65, 39
2, 187640, Note_on_c, 0, 58, 34
2, 187672, Note_on_c, 0, 61, 32
2, 187696, Control_c, 0, 64, 127
2, 187716, Note_on_c, 0, 71, 0
2, 187718, Note_on_c, 0, 72, 0
2, 187756, Control_c, 0, 64, 0
2, 187794, Note_on_c, 0, 71, 71
2, 187844, Note_on_c, 0, 65, 0
2, 187852, Note_on_c, 0, 61, 0
2, 187852, Note_on_c, 0, 70, 84
2, 187894, Control_c, 0, 64, 127
2, 187900, Note_on_c, 0, 58, 0
2, 187900, Note_on_c, 0, 71, 0
2, 187958, Note_on_c, 0, 70, 0
2, 187972, Control_c, 0, 64, 0
2, 188010, Note_on_c, 0, 70, 74
2, 188042, Note_on_c, 0, 69, 83
2, 188126, Control_c, 0, 64, 127
2, 188152, Note_on_c, 0, 70, 0
2, 188174, Note_on_c, 0, 69, 0
2, 188218, Control_c, 0, 64, 0
2, 188218, Note_on_c, 0, 69, 89
2, 188254, Note_on_c, 0, 68, 92
2, 188344, Note_on_c, 0, 69, 0
2, 188370, Control_c, 0, 64, 127
2, 188398, Note_on_c, 0, 68, 0
2, 188442, Note_on_c, 0, 68, 95
2, 188462, Control_c, 0, 64, 0
2, 188476, Note_on_c, 0, 67, 100
2, 188588, Note_on_c, 0, 68, 0
2, 188602, Control_c, 0, 64, 127
2, 188612, Note_on_c, 0, 67, 0
2, 188674, Note_on_c, 0, 67, 96
2, 188694, Control_c, 0, 64, 0
2, 188697, Note_on_c, 0, 66, 99
2, 188758, Note_on_c, 0, 67, 0
2, 188816, Control_c, 0, 64, 127
2, 188866, Note_on_c, 0, 66, 0
2, 188956, Control_c, 0, 64, 0
2, 188966, Note_on_c, 0, 68, 104
2, 188970, Note_on_c, 0, 65, 106
2, 188984, Note_on_c, 0, 37, 103
2, 189072, Note_on_c, 0, 37, 0
2, 189094, Control_c, 0, 64, 127
2, 189098, Note_on_c, 0, 65, 0
2, 189142, Note_on_c, 0, 68, 0
2, 189274, Note_on_c, 0, 56, 73
2, 189280, Note_on_c, 0, 59, 74
2, 189286, Note_on_c, 0, 49, 66
2, 189356, Note_on_c, 0, 49, 0
2, 189376, Note_on_c, 0, 59, 0
2, 189378, Note_on_c, 0, 56, 0
2, 189416, Note_on_c, 0, 68, 95
2, 189419, Note_on_c, 0, 65, 96
2, 189448, Note_on_c, 0, 68, 0
2, 189454, Note_on_c, 0, 65, 0
2, 189526, Note_on_c, 0, 68, 72
2, 189528, Note_on_c, 0, 65, 84
2, 189540, Note_on_c, 0, 59, 84
2, 189548, Note_on_c, 0, 56, 68
2, 189552, Note_on_c, 0, 49, 64
2, 189580, Note_on_c, 0, 59, 0
2, 189598, Note_on_c, 0, 56, 0
2, 189626, Note_on_c, 0, 65, 0
2, 189658, Note_on_c, 0, 68, 0
2, 189660, Note_on_c, 0, 49, 0
2, 189724, Note_on_c, 0, 68, 77
2, 189724, Control_c, 0, 64, 0
2, 189736, Note_on_c, 0, 65, 69
2, 189772, Note_on_c, 0, 65, 0
2, 189788, Note_on_c, 0, 70, 77
2, 189834, Note_on_c, 0, 65, 78
2, 189834, Note_on_c, 0, 37, 95
2, 189922, Control_c, 0, 64, 127
2, 189928, Note_on_c, 0, 37, 0
2, 189946, Note_on_c, 0, 70, 0
2, 189980, Note_on_c, 0, 65, 0
2, 190028, Note_on_c, 0, 68, 0
2, 190104, Note_on_c, 0, 59, 71
2, 190107, Note_on_c, 0, 56, 62
2, 190112, Note_on_c, 0, 49, 63
2, 190166, Note_on_c, 0, 49, 0
2, 190174, Note_on_c, 0, 56, 0
2, 190176, Note_on_c, 0, 59, 0
2, 190204, Note_on_c, 0, 63, 93
2, 190214, Note_on_c, 0, 66, 78
2, 190238, Note_on_c, 0, 63, 0
2, 190254, Note_on_c, 0, 66, 0
2, 190292, Note_on_c, 0, 68, 92
2, 190306, Note_on_c, 0, 65, 94
2, 190318, Note_on_c, 0, 59, 82
2, 190328, Note_on_c, 0, 56, 63
2, 190332, Note_on_c, 0, 49, 66
2, 190338, Control_c, 0, 64, 0
2, 190444, Note_on_c, 0, 59, 0
2, 190464, Note_on_c, 0, 56, 0
2, 190468, Note_on_c, 0, 49, 0
2, 190524, Note_on_c, 0, 65, 0
2, 190546, Note_on_c, 0, 70, 93
2, 190546, Note_on_c, 0, 66, 83
2, 190562, Note_on_c, 0, 42, 89
2, 190630, Note_on_c, 0, 68, 0
2, 190630, Note_on_c, 0, 42, 0
2, 190658, Note_on_c, 0, 66, 0
2, 190676, Control_c, 0, 64, 127
2, 190682, Note_on_c, 0, 70, 0
2, 190790, Note_on_c, 0, 58, 79
2, 190806, Note_on_c, 0, 49, 68
2, 190812, Note_on_c, 0, 54, 69
2, 190884, Note_on_c, 0, 54, 0
2, 190916, Note_on_c, 0, 58, 0
2, 190930, Note_on_c, 0, 49, 0
2, 191068, Note_on_c, 0, 73, 96
2, 191071, Note_on_c, 0, 70, 81
2, 191078, Note_on_c, 0, 58, 69
2, 191092, Note_on_c, 0, 54, 79
2, 191094, Note_on_c, 0, 49, 67
2, 191180, Note_on_c, 0, 49, 0
2, 191183, Note_on_c, 0, 70, 0
2, 191190, Note_on_c, 0, 58, 0
2, 191214, Note_on_c, 0, 54, 0
2, 191344, Note_on_c, 0, 73, 0
2, 191414, Note_on_c, 0, 78, 101
2, 191414, Control_c, 0, 64, 0
2, 191417, Note_on_c, 0, 70, 81
2, 191420, Note_on_c, 0, 42, 84
2, 191582, Note_on_c, 0, 42, 0
2, 191598, Control_c, 0, 64, 127
2, 191754, Note_on_c, 0, 58, 48
2, 191756, Note_on_c, 0, 50, 68
2, 191910, Note_on_c, 0, 58, 0
2, 191950, Control_c, 0, 64, 0
2, 192106, Note_on_c, 0, 58, 42
2, 192114, Note_on_c, 0, 51, 61
2, 192134, Control_c, 0, 64, 127
2, 192139, Note_on_c, 0, 50, 0
2, 192308, Note_on_c, 0, 70, 0
2, 192350, Control_c, 0, 64, 0
2, 192366, Note_on_c, 0, 58, 0
2, 192369, Note_on_c, 0, 77, 89
2, 192372, Note_on_c, 0, 68, 64
2, 192394, Note_on_c, 0, 44, 62
2, 192418, Note_on_c, 0, 51, 0
2, 192434, Note_on_c, 0, 78, 0
2, 192556, Note_on_c, 0, 44, 0
2, 192566, Control_c, 0, 64, 127
2, 192652, Note_on_c, 0, 77, 0
2, 192682, Note_on_c, 0, 68, 0
2, 192710, Note_on_c, 0, 60, 51
2, 192734, Note_on_c, 0, 51, 30
2, 192792, Note_on_c, 0, 60, 0
2, 192804, Note_on_c, 0, 75, 73
2, 192842, Note_on_c, 0, 75, 0
2, 192847, Note_on_c, 0, 51, 0
2, 192916, Note_on_c, 0, 75, 69
2, 192930, Note_on_c, 0, 66, 73
2, 192946, Note_on_c, 0, 60, 60
2, 192946, Note_on_c, 0, 51, 61
2, 193020, Note_on_c, 0, 60, 0
2, 193058, Note_on_c, 0, 66, 0
2, 193110, Note_on_c, 0, 51, 0
2, 193150, Control_c, 0, 64, 0
2, 193194, Note_on_c, 0, 68, 55
2, 193194, Note_on_c, 0, 77, 84
2, 193216, Note_on_c, 0, 44, 76
2, 193264, Note_on_c, 0, 75, 0
2, 193332, Note_on_c, 0, 44, 0
2, 193348, Control_c, 0, 64, 127
2, 193394, Note_on_c, 0, 77, 0
2, 193396, Note_on_c, 0, 68, 0
2, 193460, Note_on_c, 0, 60, 49
2, 193464, Note_on_c, 0, 51, 47
2, 193480, Note_on_c, 0, 56, 32
2, 193526, Note_on_c, 0, 60, 0
2, 193542, Note_on_c, 0, 51, 0
2, 193545, Note_on_c, 0, 56, 0
2, 193576, Note_on_c, 0, 75, 70
2, 193616, Note_on_c, 0, 75, 0
2, 193684, Note_on_c, 0, 75, 68
2, 193700, Note_on_c, 0, 66, 70
2, 193710, Note_on_c, 0, 60, 52
2, 193718, Note_on_c, 0, 51, 41
2, 193720, Note_on_c, 0, 56, 32
2, 193772, Note_on_c, 0, 60, 0
2, 193794, Note_on_c, 0, 56, 0
2, 193832, Note_on_c, 0, 66, 0
2, 193848, Note_on_c, 0, 51, 0
2, 193918, Control_c, 0, 64, 0
2, 193960, Note_on_c, 0, 77, 76
2, 193972, Note_on_c, 0, 68, 42
2, 193980, Note_on_c, 0, 44, 52
2, 193984, Note_on_c, 0, 75, 0
2, 194074, Note_on_c, 0, 44, 0
2, 194148, Control_c, 0, 64, 127
2, 194182, Note_on_c, 0, 77, 0
2, 194216, Note_on_c, 0, 68, 0
2, 194268, Note_on_c, 0, 56, 24
2, 194270, Note_on_c, 0, 51, 26
2, 194270, Note_on_c, 0, 60, 24
2, 194348, Note_on_c, 0, 51, 0
2, 194350, Note_on_c, 0, 60, 0
2, 194354, Note_on_c, 0, 56, 0
2, 194396, Note_on_c, 0, 75, 60
2, 194438, Note_on_c, 0, 75, 0
2, 194512, Note_on_c, 0, 75, 51
2, 194530, Note_on_c, 0, 66, 50
2, 194550, Note_on_c, 0, 56, 17
2, 194556, Note_on_c, 0, 60, 16
2, 194556, Note_on_c, 0, 51, 8
2, 194578, Control_c, 0, 64, 0
2, 194670, Note_on_c, 0, 56, 0
2, 194744, Note_on_c, 0, 60, 0
2, 194762, Control_c, 0, 64, 127
2, 194767, Note_on_c, 0, 51, 0
2, 194780, Note_on_c, 0, 66, 0
2, 194844, Note_on_c, 0, 75, 0
2, 194864, Note_on_c, 0, 49, 20
2, 194884, Note_on_c, 0, 72, 43
2, 194900, Control_c, 0, 64, 0
2, 194902, Note_on_c, 0, 64, 35
2, 195106, Note_on_c, 0, 49, 0
2, 195132, Control_c, 0, 64, 127
2, 195172, Note_on_c, 0, 56, 32
2, 195184, Note_on_c, 0, 64, 0
2, 195188, Note_on_c, 0, 61, 19
2, 195232, Note_on_c, 0, 72, 0
2, 195266, Note_on_c, 0, 56, 0
2, 195274, Note_on_c, 0, 61, 0
2, 195324, Note_on_c, 0, 73, 44
2, 195378, Note_on_c, 0, 73, 0
2, 195434, Note_on_c, 0, 73, 58
2, 195452, Note_on_c, 0, 65, 44
2, 195476, Note_on_c, 0, 61, 30
2, 195486, Control_c, 0, 64, 0
2, 195492, Note_on_c, 0, 56, 26
2, 195572, Note_on_c, 0, 56, 0
2, 195586, Note_on_c, 0, 61, 0
2, 195591, Note_on_c, 0, 65, 0
2, 195674, Note_on_c, 0, 49, 41
2, 195700, Control_c, 0, 64, 127
2, 195718, Note_on_c, 0, 73, 0
2, 195718, Note_on_c, 0, 80, 76
2, 195721, Note_on_c, 0, 77, 58
2, 195726, Note_on_c, 0, 49, 0
2, 195790, Note_on_c, 0, 77, 0
2, 195842, Note_on_c, 0, 80, 0
2, 195922, Note_on_c, 0, 71, 50
2, 195938, Note_on_c, 0, 68, 28
2, 195956, Note_on_c, 0, 61, 32
2, 195986, Note_on_c, 0, 71, 0
2, 196010, Note_on_c, 0, 68, 0
2, 196020, Note_on_c, 0, 61, 0
2, 196082, Note_on_c, 0, 80, 78
2, 196085, Note_on_c, 0, 77, 78
2, 196116, Note_on_c, 0, 80, 0
2, 196119, Note_on_c, 0, 77, 0
2, 196182, Note_on_c, 0, 77, 74
2, 196182, Note_on_c, 0, 80, 60
2, 196182, Note_on_c, 0, 71, 64
2, 196192, Note_on_c, 0, 61, 43
2, 196192, Note_on_c, 0, 68, 40
2, 196228, Note_on_c, 0, 71, 0
2, 196246, Note_on_c, 0, 68, 0
2, 196262, Note_on_c, 0, 61, 0
2, 196272, Note_on_c, 0, 77, 0
2, 196278, Note_on_c, 0, 80, 0
2, 196330, Control_c, 0, 64, 0
2, 196342, Note_on_c, 0, 80, 78
2, 196346, Note_on_c, 0, 77, 56
2, 196388, Note_on_c, 0, 77, 0
2, 196391, Note_on_c, 0, 79, 28
2, 196414, Note_on_c, 0, 82, 73
2, 196422, Note_on_c, 0, 49, 77
2, 196426, Note_on_c, 0, 80, 0
2, 196450, Note_on_c, 0, 79, 0
2, 196464, Note_on_c, 0, 77, 71
2, 196474, Note_on_c, 0, 49, 0
2, 196474, Note_on_c, 0, 80, 100
2, 196544, Control_c, 0, 64, 127
2, 196550, Note_on_c, 0, 82, 0
2, 196590, Note_on_c, 0, 77, 0
2, 196646, Note_on_c, 0, 80, 0
2, 196674, Note_on_c, 0, 71, 72
2, 196692, Note_on_c, 0, 61, 48
2, 196696, Note_on_c, 0, 68, 39
2, 196734, Note_on_c, 0, 71, 0
2, 196756, Note_on_c, 0, 68, 0
2, 196766, Note_on_c, 0, 61, 0
2, 196854, Note_on_c, 0, 78, 84
2, 196858, Note_on_c, 0, 75, 67
2, 196890, Note_on_c, 0, 78, 0
2, 196896, Note_on_c, 0, 75, 0
2, 196940, Note_on_c, 0, 80, 95
2, 196948, Note_on_c, 0, 71, 72
2, 196950, Note_on_c, 0, 77, 87
2, 196956, Note_on_c, 0, 61, 60
2, 196968, Note_on_c, 0, 68, 46
2, 197020, Control_c, 0, 64, 0
2, 197028, Note_on_c, 0, 71, 0
2, 197062, Note_on_c, 0, 68, 0
2, 197102, Note_on_c, 0, 61, 0
2, 197194, Note_on_c, 0, 78, 82
2, 197194, Note_on_c, 0, 82, 94
2, 197197, Note_on_c, 0, 77, 0
2, 197208, Note_on_c, 0, 54, 80
2, 197248, Note_on_c, 0, 80, 0
2, 197252, Note_on_c, 0, 54, 0
2, 197254, Note_on_c, 0, 78, 0
2, 197282, Control_c, 0, 64, 127
2, 197306, Note_on_c, 0, 82, 0
2, 197422, Note_on_c, 0, 70, 56
2, 197444, Note_on_c, 0, 61, 48
2, 197450, Note_on_c, 0, 66, 44
2, 197518, Note_on_c, 0, 66, 0
2, 197530, Note_on_c, 0, 61, 0
2, 197536, Note_on_c, 0, 70, 0
2, 197700, Note_on_c, 0, 85, 97
2, 197704, Note_on_c, 0, 70, 61
2, 197710, Note_on_c, 0, 82, 77
2, 197722, Note_on_c, 0, 66, 52
2, 197734, Note_on_c, 0, 61, 43
2, 197766, Note_on_c, 0, 82, 0
2, 197769, Note_on_c, 0, 70, 0
2, 197794, Note_on_c, 0, 66, 0
2, 197818, Note_on_c, 0, 61, 0
2, 197878, Note_on_c, 0, 85, 0
2, 197958, Control_c, 0, 64, 0
2, 198004, Note_on_c, 0, 90, 98
2, 198008, Note_on_c, 0, 82, 79
2, 198014, Note_on_c, 0, 54, 68
2, 198086, Note_on_c, 0, 54, 0
2, 198158, Control_c, 0, 64, 127
2, 198292, Note_on_c, 0, 70, 54
2, 198304, Note_on_c, 0, 62, 62
2, 198416, Note_on_c, 0, 70, 0
2, 198496, Control_c, 0, 64, 0
2, 198598, Note_on_c, 0, 70, 57
2, 198606, Note_on_c, 0, 63, 64
2, 198634, Note_on_c, 0, 62, 0
2, 198680, Control_c, 0, 64, 127
2, 198754, Note_on_c, 0, 82, 0
2, 198758, Control_c, 0, 64, 0
2, 198824, Note_on_c, 0, 70, 0
2, 198856, Note_on_c, 0, 89, 91
2, 198859, Note_on_c, 0, 80, 69
2, 198878, Note_on_c, 0, 56, 50
2, 198900, Note_on_c, 0, 63, 0
2, 198914, Note_on_c, 0, 90, 0
2, 198942, Note_on_c, 0, 56, 0
2, 198974, Note_on_c, 0, 80, 0
2, 198988, Control_c, 0, 64, 127
2, 199028, Note_on_c, 0, 89, 0
2, 199114, Note_on_c, 0, 72, 51
2, 199126, Note_on_c, 0, 68, 35
2, 199134, Note_on_c, 0, 63, 39
2, 199184, Note_on_c, 0, 72, 0
2, 199198, Note_on_c, 0, 68, 0
2, 199202, Note_on_c, 0, 63, 0
2, 199240, Note_on_c, 0, 87, 72
2, 199276, Note_on_c, 0, 87, 0
2, 199360, Note_on_c, 0, 87, 57
2, 199370, Note_on_c, 0, 78, 79
2, 199378, Note_on_c, 0, 72, 59
2, 199390, Note_on_c, 0, 63, 48
2, 199398, Note_on_c, 0, 68, 40
2, 199434, Note_on_c, 0, 72, 0
2, 199464, Note_on_c, 0, 78, 0
2, 199467, Note_on_c, 0, 68, 0
2, 199490, Note_on_c, 0, 63, 0
2, 199572, Control_c, 0, 64, 0
2, 199636, Note_on_c, 0, 89, 81
2, 199646, Note_on_c, 0, 80, 59
2, 199646, Note_on_c, 0, 56, 55
2, 199664, Note_on_c, 0, 87, 0
2, 199742, Note_on_c, 0, 56, 0
2, 199802, Control_c, 0, 64, 127
2, 199812, Note_on_c, 0, 80, 0
2, 199816, Note_on_c, 0, 89, 0
2, 199888, Note_on_c, 0, 72, 47
2, 199906, Note_on_c, 0, 68, 31
2, 199916, Note_on_c, 0, 63, 33
2, 199948, Note_on_c, 0, 72, 0
2, 199978, Note_on_c, 0, 68, 0
2, 199978, Note_on_c, 0, 63, 0
2, 200034, Note_on_c, 0, 87, 58
2, 200076, Note_on_c, 0, 87, 0
2, 200136, Note_on_c, 0, 87, 63
2, 200146, Control_c, 0, 64, 0
2, 200156, Note_on_c, 0, 72, 49
2, 200162, Note_on_c, 0, 78, 67
2, 200176, Note_on_c, 0, 63, 30
2, 200184, Note_on_c, 0, 68, 29
2, 200222, Note_on_c, 0, 72, 0
2, 200262, Note_on_c, 0, 68, 0
2, 200288, Note_on_c, 0, 78, 0
2, 200304, Note_on_c, 0, 63, 0
2, 200356, Control_c, 0, 64, 127
2, 200432, Control_c, 0, 64, 0
2, 200438, Note_on_c, 0, 56, 48
2, 200450, Note_on_c, 0, 89, 66
2, 200456, Note_on_c, 0, 80, 43
2, 200466, Note_on_c, 0, 87, 0
2, 200534, Note_on_c, 0, 56, 0
2, 200632, Note_on_c, 0, 89, 0
2, 200632, Control_c, 0, 64, 127
2, 200640, Note_on_c, 0, 80, 0
2, 200734, Note_on_c, 0, 72, 28
2, 200748, Note_on_c, 0, 68, 21
2, 200774, Note_on_c, 0, 63, 14
2, 200812, Note_on_c, 0, 72, 0
2, 200824, Note_on_c, 0, 68, 0
2, 200846, Note_on_c, 0, 63, 0
2, 200896, Note_on_c, 0, 87, 48
2, 200944, Note_on_c, 0, 87, 0
2, 201008, Note_on_c, 0, 87, 48
2, 201028, Note_on_c, 0, 72, 26
2, 201032, Note_on_c, 0, 78, 51
2, 201044, Note_on_c, 0, 68, 21
2, 201054, Note_on_c, 0, 63, 16
2, 201130, Note_on_c, 0, 72, 0
2, 201136, Note_on_c, 0, 63, 0
2, 201141, Note_on_c, 0, 68, 0
2, 201146, Note_on_c, 0, 78, 0
2, 201416, Control_c, 0, 64, 0
2, 201448, Note_on_c, 0, 85, 46
2, 201462, Note_on_c, 0, 73, 9
2, 201474, Note_on_c, 0, 68, 18
2, 201482, Note_on_c, 0, 77, 19
2, 201494, Note_on_c, 0, 87, 0
2, 201502, Note_on_c, 0, 61, 13
2, 201736, Note_on_c, 0, 73, 0
2, 201750, Note_on_c, 0, 77, 0
2, 201754, Control_c, 0, 64, 127
2, 201764, Note_on_c, 0, 61, 0
2, 201784, Note_on_c, 0, 68, 0
2, 201802, Note_on_c, 0, 85, 0
2, 202260, Control_c, 0, 64, 0
2, 202280, Note_on_c, 0, 73, 42
2, 202446, Control_c, 0, 64, 127
2, 202494, Note_on_c, 0, 73, 0
2, 202552, Note_on_c, 0, 73, 71
2, 202710, Note_on_c, 0, 73, 0
2, 202762, Note_on_c, 0, 73, 78
2, 202782, Note_on_c, 0, 46, 25
2, 202882, Note_on_c, 0, 46, 0
2, 202972, Note_on_c, 0, 75, 74
2, 203020, Note_on_c, 0, 73, 0
2, 203136, Note_on_c, 0, 73, 63
2, 203158, Note_on_c, 0, 61, 28
2, 203184, Note_on_c, 0, 54, 19
2, 203220, Note_on_c, 0, 75, 0
2, 203238, Note_on_c, 0, 61, 0
2, 203262, Note_on_c, 0, 54, 0
2, 203290, Note_on_c, 0, 72, 80
2, 203314, Note_on_c, 0, 73, 0
2, 203452, Note_on_c, 0, 73, 81
2, 203468, Note_on_c, 0, 61, 29
2, 203478, Note_on_c, 0, 54, 24
2, 203494, Note_on_c, 0, 72, 0
2, 203546, Note_on_c, 0, 61, 0
2, 203552, Note_on_c, 0, 54, 0
2, 203594, Note_on_c, 0, 74, 88
2, 203642, Note_on_c, 0, 73, 0
2, 203706, Control_c, 0, 64, 0
2, 203786, Note_on_c, 0, 77, 71
2, 203802, Note_on_c, 0, 74, 0
2, 203808, Note_on_c, 0, 47, 20
2, 203956, Note_on_c, 0, 47, 0
2, 203966, Control_c, 0, 64, 127
2, 204206, Note_on_c, 0, 63, 19
2, 204226, Note_on_c, 0, 54, 29
2, 204229, Note_on_c, 0, 56, 15
2, 204338, Note_on_c, 0, 54, 0
2, 204364, Note_on_c, 0, 56, 0
2, 204367, Note_on_c, 0, 63, 0
2, 204554, Note_on_c, 0, 75, 57
2, 204576, Note_on_c, 0, 77, 0
2, 204590, Note_on_c, 0, 63, 37
2, 204604, Note_on_c, 0, 54, 21
2, 204626, Note_on_c, 0, 56, 16
2, 204678, Note_on_c, 0, 63, 0
2, 204744, Note_on_c, 0, 54, 0
2, 204792, Note_on_c, 0, 56, 0
2, 204810, Note_on_c, 0, 75, 0
2, 204816, Note_on_c, 0, 68, 48
2, 204852, Note_on_c, 0, 49, 46
2, 204874, Control_c, 0, 64, 0
2, 204984, Note_on_c, 0, 70, 48
2, 205000, Note_on_c, 0, 68, 0
2, 205148, Note_on_c, 0, 68, 55
2, 205154, Note_on_c, 0, 53, 52
2, 205162, Note_on_c, 0, 70, 0
2, 205162, Note_on_c, 0, 59, 33
2, 205244, Note_on_c, 0, 59, 0
2, 205288, Note_on_c, 0, 53, 0
2, 205296, Note_on_c, 0, 67, 55
2, 205304, Note_on_c, 0, 68, 0
2, 205350, Control_c, 0, 64, 127
2, 205448, Note_on_c, 0, 67, 0
2, 205454, Note_on_c, 0, 68, 52
2, 205482, Note_on_c, 0, 59, 14
2, 205504, Note_on_c, 0, 53, 41
2, 205550, Note_on_c, 0, 59, 0
2, 205582, Note_on_c, 0, 53, 0
2, 205602, Note_on_c, 0, 68, 0
2, 205608, Note_on_c, 0, 69, 44
2, 205642, Note_on_c, 0, 49, 0
2, 205794, Control_c, 0, 64, 0
2, 205812, Note_on_c, 0, 42, 35
2, 205842, Note_on_c, 0, 70, 30
2, 205852, Note_on_c, 0, 69, 0
2, 206102, Control_c, 0, 64, 127
2, 206116, Note_on_c, 0, 42, 0
2, 206266, Note_on_c, 0, 70, 0
2, 206298, Note_on_c, 0, 58, 13
2, 206318, Note_on_c, 0, 66, 19
2, 206330, Note_on_c, 0, 49, 15
2, 206480, Note_on_c, 0, 58, 0
2, 206488, Note_on_c, 0, 49, 0
2, 206554, Note_on_c, 0, 66, 0
2, 206557, Note_on_c, 0, 70, 49
2, 206738, Note_on_c, 0, 70, 0
2, 206741, Note_on_c, 0, 71, 77
2, 206750, Note_on_c, 0, 58, 30
2, 206770, Note_on_c, 0, 49, 28
2, 206839, Note_on_c, 0, 71, 0
2, 206872, Note_on_c, 0, 49, 0
2, 206875, Note_on_c, 0, 72, 72
2, 206918, Note_on_c, 0, 58, 0
2, 206934, Note_on_c, 0, 73, 57
2, 206937, Note_on_c, 0, 72, 0
2, 206980, Note_on_c, 0, 73, 0
2, 206988, Note_on_c, 0, 75, 71
2, 207024, Control_c, 0, 64, 0
2, 207058, Note_on_c, 0, 73, 54
2, 207066, Note_on_c, 0, 46, 35
2, 207140, Note_on_c, 0, 75, 0
2, 207208, Note_on_c, 0, 72, 87
2, 207226, Note_on_c, 0, 73, 0
2, 207302, Control_c, 0, 64, 127
2, 207362, Control_c, 0, 64, 0
2, 207364, Note_on_c, 0, 73, 83
2, 207390, Note_on_c, 0, 61, 14
2, 207392, Note_on_c, 0, 54, 41
2, 207412, Note_on_c, 0, 72, 0
2, 207478, Note_on_c, 0, 54, 0
2, 207554, Note_on_c, 0, 82, 62
2, 207580, Note_on_c, 0, 73, 0
2, 207580, Note_on_c, 0, 61, 0
2, 207592, Control_c, 0, 64, 127
2, 207788, Note_on_c, 0, 46, 0
2, 207794, Note_on_c, 0, 80, 71
2, 207830, Note_on_c, 0, 61, 29
2, 207836, Note_on_c, 0, 82, 0
2, 207866, Note_on_c, 0, 54, 30
2, 207918, Note_on_c, 0, 61, 0
2, 207946, Note_on_c, 0, 54, 0
2, 207998, Note_on_c, 0, 78, 72
2, 208032, Note_on_c, 0, 80, 0
2, 208070, Note_on_c, 0, 78, 0
2, 208146, Control_c, 0, 64, 0
2, 208180, Note_on_c, 0, 77, 68
2, 208194, Note_on_c, 0, 47, 38
2, 208354, Note_on_c, 0, 47, 0
2, 208376, Control_c, 0, 64, 127
2, 208516, Note_on_c, 0, 63, 36
2, 208522, Note_on_c, 0, 54, 29
2, 208542, Note_on_c, 0, 56, 26
2, 208616, Note_on_c, 0, 63, 0
2, 208622, Note_on_c, 0, 54, 0
2, 208630, Note_on_c, 0, 56, 0
2, 208848, Note_on_c, 0, 75, 62
2, 208858, Note_on_c, 0, 77, 0
2, 208876, Note_on_c, 0, 54, 41
2, 208876, Note_on_c, 0, 63, 37
2, 208912, Note_on_c, 0, 56, 17
2, 208982, Note_on_c, 0, 75, 0
2, 209016, Note_on_c, 0, 63, 0
2, 209144, Note_on_c, 0, 56, 0
2, 209144, Note_on_c, 0, 68, 58
2, 209156, Note_on_c, 0, 54, 0
2, 209168, Note_on_c, 0, 49, 41
2, 209190, Control_c, 0, 64, 0
2, 209202, Note_on_c, 0, 68, 0
2, 209214, Note_on_c, 0, 70, 52
2, 209304, Note_on_c, 0, 68, 47
2, 209352, Note_on_c, 0, 70, 0
2, 209422, Note_on_c, 0, 67, 63
2, 209438, Note_on_c, 0, 53, 55
2, 209444, Note_on_c, 0, 68, 0
2, 209448, Note_on_c, 0, 59, 35
2, 209526, Note_on_c, 0, 53, 0
2, 209544, Note_on_c, 0, 59, 0
2, 209594, Note_on_c, 0, 68, 62
2, 209620, Control_c, 0, 64, 127
2, 209634, Note_on_c, 0, 67, 0
2, 209698, Control_c, 0, 64, 0
2, 209792, Note_on_c, 0, 53, 52
2, 209794, Note_on_c, 0, 68, 0
2, 209797, Note_on_c, 0, 71, 67
2, 209806, Note_on_c, 0, 59, 32
2, 209912, Control_c, 0, 64, 127
2, 209917, Note_on_c, 0, 59, 0
2, 209982, Note_on_c, 0, 53, 0
2, 210008, Note_on_c, 0, 71, 0
2, 210008, Note_on_c, 0, 70, 54
2, 210011, Note_on_c, 0, 49, 0
2, 210220, Control_c, 0, 64, 0
2, 210224, Note_on_c, 0, 42, 29
2, 210254, Note_on_c, 0, 70, 0
2, 210274, Note_on_c, 0, 66, 44
2, 210496, Control_c, 0, 64, 127
2, 210526, Note_on_c, 0, 42, 0
2, 210530, Note_on_c, 0, 60, 55
2, 210550, Note_on_c, 0, 66, 0
2, 210756, Note_on_c, 0, 61, 71
2, 210764, Note_on_c, 0, 58, 17
2, 210784, Note_on_c, 0, 49, 28
2, 210794, Note_on_c, 0, 60, 0
2, 210874, Note_on_c, 0, 49, 0
2, 210904, Note_on_c, 0, 58, 0
2, 210946, Note_on_c, 0, 65, 72
2, 210978, Note_on_c, 0, 61, 0
2, 211122, Note_on_c, 0, 66, 73
2, 211134, Note_on_c, 0, 65, 0
2, 211136, Note_on_c, 0, 58, 27
2, 211148, Note_on_c, 0, 49, 32
2, 211206, Note_on_c, 0, 66, 0
2, 211276, Note_on_c, 0, 70, 80
2, 211372, Control_c, 0, 64, 0
2, 211422, Note_on_c, 0, 49, 0
2, 211444, Note_on_c, 0, 73, 75
2, 211454, Note_on_c, 0, 46, 33
2, 211466, Note_on_c, 0, 58, 0
2, 211486, Note_on_c, 0, 70, 0
2, 211596, Note_on_c, 0, 75, 79
2, 211634, Note_on_c, 0, 73, 0
2, 211664, Control_c, 0, 64, 127
2, 211710, Control_c, 0, 64, 0
2, 211744, Note_on_c, 0, 73, 67
2, 211754, Note_on_c, 0, 61, 32
2, 211772, Note_on_c, 0, 54, 37
2, 211814, Note_on_c, 0, 75, 0
2, 211858, Note_on_c, 0, 54, 0
2, 211896, Note_on_c, 0, 61, 0
2, 211908, Note_on_c, 0, 72, 83
2, 211940, Control_c, 0, 64, 127
2, 211962, Note_on_c, 0, 73, 0
2, 212064, Control_c, 0, 64, 0
2, 212098, Note_on_c, 0, 61, 37
2, 212100, Note_on_c, 0, 73, 79
2, 212132, Note_on_c, 0, 54, 36
2, 212136, Note_on_c, 0, 72, 0
2, 212264, Note_on_c, 0, 61, 0
2, 212264, Control_c, 0, 64, 127
2, 212274, Note_on_c, 0, 74, 77
2, 212302, Note_on_c, 0, 73, 0
2, 212312, Note_on_c, 0, 74, 0
2, 212336, Note_on_c, 0, 46, 0
2, 212348, Note_on_c, 0, 54, 0
2, 212376, Note_on_c, 0, 74, 80
2, 212494, Control_c, 0, 64, 0
2, 212558, Note_on_c, 0, 47, 31
2, 212698, Note_on_c, 0, 77, 66
2, 212710, Note_on_c, 0, 74, 0
2, 212876, Note_on_c, 0, 47, 0
2, 212876, Control_c, 0, 64, 127
2, 213170, Note_on_c, 0, 54, 27
2, 213176, Note_on_c, 0, 63, 30
2, 213180, Note_on_c, 0, 56, 23
2, 213282, Note_on_c, 0, 63, 0
2, 213492, Note_on_c, 0, 56, 0
2, 213552, Note_on_c, 0, 77, 0
2, 213558, Note_on_c, 0, 75, 37
2, 213568, Note_on_c, 0, 54, 0
2, 213584, Note_on_c, 0, 56, 23
2, 213585, Note_on_c, 0, 54, 27
2, 213596, Note_on_c, 0, 63, 27
2, 213630, Control_c, 0, 64, 0
2, 213786, Control_c, 0, 64, 127
2, 213789, Note_on_c, 0, 63, 0
2, 213882, Note_on_c, 0, 75, 0
2, 213900, Note_on_c, 0, 68, 37
2, 213908, Control_c, 0, 64, 0
2, 213934, Note_on_c, 0, 49, 24
2, 213946, Note_on_c, 0, 56, 0
2, 213983, Note_on_c, 0, 54, 0
2, 214102, Note_on_c, 0, 70, 40
2, 214106, Note_on_c, 0, 68, 0
2, 214138, Control_c, 0, 64, 127
2, 214164, Note_on_c, 0, 70, 0
2, 214186, Note_on_c, 0, 68, 41
2, 214252, Note_on_c, 0, 70, 35
2, 214254, Note_on_c, 0, 68, 0
2, 214322, Control_c, 0, 64, 0
2, 214328, Note_on_c, 0, 68, 60
2, 214336, Note_on_c, 0, 59, 23
2, 214350, Note_on_c, 0, 53, 41
2, 214358, Note_on_c, 0, 70, 0
2, 214500, Note_on_c, 0, 59, 0
2, 214504, Note_on_c, 0, 67, 51
2, 214508, Note_on_c, 0, 53, 0
2, 214528, Note_on_c, 0, 68, 0
2, 214538, Control_c, 0, 64, 127
2, 214600, Control_c, 0, 64, 0
2, 214652, Note_on_c, 0, 68, 48
2, 214690, Note_on_c, 0, 53, 57
2, 214692, Note_on_c, 0, 67, 0
2, 214692, Note_on_c, 0, 59, 31
2, 214746, Note_on_c, 0, 53, 0
2, 214768, Control_c, 0, 64, 127
2, 214770, Note_on_c, 0, 59, 0
2, 214814, Note_on_c, 0, 69, 52
2, 214830, Note_on_c, 0, 68, 0
2, 214842, Note_on_c, 0, 49, 0
2, 214998, Control_c, 0, 64, 0
2, 215000, Note_on_c, 0, 42, 40
2, 215028, Note_on_c, 0, 70, 50
2, 215040, Note_on_c, 0, 69, 0
2, 215252, Note_on_c, 0, 42, 0
2, 215274, Control_c, 0, 64, 127
2, 215364, Note_on_c, 0, 58, 25
2, 215367, Note_on_c, 0, 49, 40
2, 215367, Note_on_c, 0, 66, 49
2, 215378, Note_on_c, 0, 70, 0
2, 215476, Note_on_c, 0, 49, 0
2, 215528, Note_on_c, 0, 58, 0
2, 215584, Note_on_c, 0, 70, 69
2, 215604, Note_on_c, 0, 66, 0
2, 215766, Note_on_c, 0, 70, 0
2, 215780, Note_on_c, 0, 58, 31
2, 215782, Note_on_c, 0, 71, 78
2, 215792, Note_on_c, 0, 49, 33
2, 215886, Note_on_c, 0, 72, 74
2, 215889, Note_on_c, 0, 49, 0
2, 215896, Note_on_c, 0, 71, 0
2, 215974, Note_on_c, 0, 73, 58
2, 215998, Note_on_c, 0, 72, 0
2, 216004, Note_on_c, 0, 58, 0
2, 216018, Note_on_c, 0, 75, 66
2, 216020, Note_on_c, 0, 73, 0
2, 216074, Control_c, 0, 64, 0
2, 216098, Note_on_c, 0, 73, 58
2, 216110, Note_on_c, 0, 46, 25
2, 216182, Note_on_c, 0, 75, 0
2, 216320, Note_on_c, 0, 72, 73
2, 216336, Note_on_c, 0, 73, 0
2, 216382, Control_c, 0, 64, 127
2, 216534, Note_on_c, 0, 54, 28
2, 216540, Note_on_c, 0, 61, 22
2, 216612, Control_c, 0, 64, 0
2, 216634, Note_on_c, 0, 73, 49
2, 216660, Note_on_c, 0, 72, 0
2, 216876, Note_on_c, 0, 73, 0
2, 216888, Control_c, 0, 64, 127
2, 216906, Note_on_c, 0, 54, 0
2, 216916, Note_on_c, 0, 83, 72
2, 217022, Note_on_c, 0, 61, 0
2, 217198, Note_on_c, 0, 82, 54
2, 217220, Note_on_c, 0, 83, 0
2, 217320, Note_on_c, 0, 82, 0
2, 217380, Note_on_c, 0, 82, 58
2, 217388, Note_on_c, 0, 61, 19
2, 217426, Note_on_c, 0, 54, 26
2, 217554, Note_on_c, 0, 80, 61
2, 217564, Note_on_c, 0, 82, 0
2, 217570, Note_on_c, 0, 61, 0
2, 217624, Note_on_c, 0, 54, 0
2, 217646, Note_on_c, 0, 46, 0
2, 217706, Note_on_c, 0, 80, 0
2, 217716, Note_on_c, 0, 78, 58
2, 217788, Note_on_c, 0, 78, 0
2, 217872, Control_c, 0, 64, 0
2, 217912, Note_on_c, 0, 77, 56
2, 217914, Note_on_c, 0, 47, 25
2, 218110, Note_on_c, 0, 47, 0
2, 218132, Control_c, 0, 64, 127
2, 218412, Note_on_c, 0, 63, 10
2, 218428, Note_on_c, 0, 55, 15
2, 218538, Note_on_c, 0, 55, 0
2, 218568, Note_on_c, 0, 63, 0
2, 218812, Note_on_c, 0, 77, 0
2, 218815, Note_on_c, 0, 63, 37
2, 218820, Note_on_c, 0, 75, 29
2, 218836, Note_on_c, 0, 56, 18
2, 218884, Note_on_c, 0, 75, 0
2, 218932, Note_on_c, 0, 56, 0
2, 218965, Note_on_c, 0, 63, 0
2, 219210, Note_on_c, 0, 68, 45
2, 219226, Note_on_c, 0, 49, 32
2, 219272, Note_on_c, 0, 68, 0
2, 219306, Note_on_c, 0, 70, 28
2, 219408, Note_on_c, 0, 68, 43
2, 219416, Note_on_c, 0, 70, 0
2, 219470, Control_c, 0, 64, 0
2, 219492, Note_on_c, 0, 68, 0
2, 219534, Note_on_c, 0, 67, 44
2, 219546, Note_on_c, 0, 59, 30
2, 219548, Note_on_c, 0, 53, 43
2, 219666, Note_on_c, 0, 59, 0
2, 219712, Note_on_c, 0, 53, 0
2, 219738, Note_on_c, 0, 68, 43
2, 219746, Control_c, 0, 64, 127
2, 219752, Note_on_c, 0, 67, 0
2, 219900, Control_c, 0, 64, 0
2, 219978, Note_on_c, 0, 68, 0
2, 219988, Note_on_c, 0, 71, 31
2, 220002, Note_on_c, 0, 59, 21
2, 220024, Note_on_c, 0, 53, 31
2, 220138, Note_on_c, 0, 59, 0
2, 220150, Note_on_c, 0, 53, 0
2, 220162, Control_c, 0, 64, 127
2, 220222, Note_on_c, 0, 49, 0
2, 220248, Note_on_c, 0, 71, 0
2, 220276, Note_on_c, 0, 70, 19
2, 220576, Control_c, 0, 64, 0
2, 220624, Note_on_c, 0, 70, 0
2, 220628, Note_on_c, 0, 66, 21
2, 220628, Note_on_c, 0, 42, 26
2, 220872, Note_on_c, 0, 42, 0
2, 220884, Control_c, 0, 64, 127
2, 221230, Note_on_c, 0, 58, 12
2, 221242, Note_on_c, 0, 49, 21
2, 221362, Note_on_c, 0, 66, 0
2, 221364, Note_on_c, 0, 49, 0
2, 221410, Note_on_c, 0, 58, 0
2, 221790, Control_c, 0, 64, 0
2, 221960, Note_on_c, 0, 70, 44
2, 222082, Control_c, 0, 64, 127
2, 222084, Note_on_c, 0, 70, 0
2, 222138, Note_on_c, 0, 70, 75
2, 222238, Note_on_c, 0, 70, 0
2, 222288, Note_on_c, 0, 70, 92
2, 222304, Note_on_c, 0, 46, 70
2, 222316, Note_on_c, 0, 34, 68
2, 222358, Note_on_c, 0, 34, 0
2, 222364, Note_on_c, 0, 46, 0
2, 222390, Note_on_c, 0, 70, 0
2, 222968, Note_on_c, 0, 70, 98
2, 222980, Note_on_c, 0, 65, 87
2, 222986, Note_on_c, 0, 58, 53
2, 222986, Note_on_c, 0, 56, 62
2, 223058, Note_on_c, 0, 70, 0
2, 223112, Note_on_c, 0, 70, 87
2, 223167, Note_on_c, 0, 65, 0
2, 223192, Note_on_c, 0, 58, 0
2, 223216, Note_on_c, 0, 56, 0
2, 223216, Note_on_c, 0, 70, 0
2, 223256, Note_on_c, 0, 70, 98
2, 223262, Note_on_c, 0, 58, 58
2, 223266, Note_on_c, 0, 64, 98
2, 223278, Note_on_c, 0, 55, 81
2, 223280, Control_c, 0, 64, 0
2, 223436, Note_on_c, 0, 70, 0
2, 223480, Note_on_c, 0, 55, 0
2, 223492, Note_on_c, 0, 58, 0
2, 223502, Note_on_c, 0, 64, 0
2, 223510, Control_c, 0, 64, 127
2, 223772, Control_c, 0, 64, 0
2, 223838, Note_on_c, 0, 70, 97
2, 223848, Note_on_c, 0, 63, 94
2, 223852, Note_on_c, 0, 58, 62
2, 223858, Note_on_c, 0, 54, 70
2, 223914, Note_on_c, 0, 70, 0
2, 223966, Note_on_c, 0, 70, 88
2, 224036, Note_on_c, 0, 58, 0
2, 224036, Control_c, 0, 64, 127
2, 224070, Note_on_c, 0, 70, 0
2, 224086, Note_on_c, 0, 63, 0
2, 224094, Control_c, 0, 64, 0
2, 224098, Note_on_c, 0, 54, 0
2, 224120, Note_on_c, 0, 70, 99
2, 224136, Note_on_c, 0, 62, 97
2, 224142, Note_on_c, 0, 58, 65
2, 224148, Note_on_c, 0, 53, 98
2, 224214, Note_on_c, 0, 62, 0
2, 224242, Note_on_c, 0, 58, 0
2, 224248, Note_on_c, 0, 53, 0
2, 224294, Control_c, 0, 64, 127
2, 224340, Note_on_c, 0, 70, 0
2, 224402, Control_c, 0, 64, 0
2, 224482, Note_on_c, 0, 70, 100
2, 224484, Note_on_c, 0, 82, 97
2, 224492, Note_on_c, 0, 46, 79
2, 224494, Note_on_c, 0, 34, 86
2, 224528, Note_on_c, 0, 34, 0
2, 224536, Note_on_c, 0, 46, 0
2, 224544, Note_on_c, 0, 70, 0
2, 224574, Note_on_c, 0, 82, 0
2, 224598, Note_on_c, 0, 46, 63
2, 224606, Note_on_c, 0, 34, 60
2, 224606, Note_on_c, 0, 70, 95
2, 224614, Note_on_c, 0, 82, 98
2, 224674, Note_on_c, 0, 82, 0
2, 224678, Note_on_c, 0, 70, 0
2, 224682, Note_on_c, 0, 46, 0
2, 224686, Note_on_c, 0, 34, 0
2, 224740, Note_on_c, 0, 70, 89
2, 224742, Note_on_c, 0, 82, 95
2, 224748, Note_on_c, 0, 46, 84
2, 224754, Note_on_c, 0, 34, 83
2, 224756, Control_c, 0, 64, 127
2, 224844, Note_on_c, 0, 34, 0
2, 224848, Note_on_c, 0, 46, 0
2, 224862, Note_on_c, 0, 70, 0
2, 224864, Note_on_c, 0, 82, 0
2, 224894, Control_c, 0, 64, 0
2, 225066, Note_on_c, 0, 70, 105
2, 225068, Note_on_c, 0, 46, 97
2, 225070, Note_on_c, 0, 82, 102
2, 225072, Note_on_c, 0, 34, 93
2, 225108, Note_on_c, 0, 34, 0
2, 225122, Note_on_c, 0, 46, 0
2, 225128, Note_on_c, 0, 82, 0
2, 225154, Note_on_c, 0, 70, 0
2, 225194, Note_on_c, 0, 82, 97
2, 225194, Note_on_c, 0, 70, 105
2, 225197, Note_on_c, 0, 46, 83
2, 225200, Note_on_c, 0, 34, 84
2, 225260, Note_on_c, 0, 82, 0
2, 225262, Note_on_c, 0, 70, 0
2, 225284, Note_on_c, 0, 34, 0
2, 225288, Note_on_c, 0, 46, 0
2, 225340, Note_on_c, 0, 82, 83
2, 225340, Note_on_c, 0, 70, 89
2, 225343, Note_on_c, 0, 46, 86
2, 225352, Note_on_c, 0, 34, 83
2, 225386, Control_c, 0, 64, 127
2, 225458, Note_on_c, 0, 46, 0
2, 225460, Note_on_c, 0, 34, 0
2, 225480, Note_on_c, 0, 82, 0
2, 225482, Note_on_c, 0, 70, 0
2, 225524, Control_c, 0, 64, 0
2, 225670, Note_on_c, 0, 70, 103
2, 225670, Note_on_c, 0, 82, 100
2, 225674, Note_on_c, 0, 46, 89
2, 225678, Note_on_c, 0, 34, 83
2, 225718, Note_on_c, 0, 34, 0
2, 225724, Note_on_c, 0, 82, 0
2, 225726, Note_on_c, 0, 70, 0
2, 225742, Note_on_c, 0, 46, 0
2, 225798, Note_on_c, 0, 46, 80
2, 225801, Note_on_c, 0, 34, 73
2, 225804, Note_on_c, 0, 70, 95
2, 225804, Note_on_c, 0, 82, 95
2, 225874, Note_on_c, 0, 70, 0
2, 225874, Note_on_c, 0, 82, 0
2, 225892, Note_on_c, 0, 34, 0
2, 225895, Note_on_c, 0, 46, 0
2, 225952, Note_on_c, 0, 82, 83
2, 225952, Note_on_c, 0, 70, 91
2, 225960, Note_on_c, 0, 46, 85
2, 225968, Control_c, 0, 64, 127
2, 225970, Note_on_c, 0, 34, 82
2, 226026, Note_on_c, 0, 34, 0
2, 226062, Note_on_c, 0, 46, 0
2, 226068, Note_on_c, 0, 82, 0
2, 226078, Note_on_c, 0, 70, 0
2, 226246, Control_c, 0, 64, 0
2, 226556, Note_on_c, 0, 70, 69
2, 226561, Note_on_c, 0, 58, 59
2, 226570, Note_on_c, 0, 56, 73
2, 226573, Note_on_c, 0, 65, 67
2, 226582, Note_on_c, 0, 46, 59
2, 226632, Note_on_c, 0, 58, 0
2, 226660, Control_c, 0, 64, 127
2, 226690, Note_on_c, 0, 70, 0
2, 226720, Note_on_c, 0, 58, 56
2, 226726, Note_on_c, 0, 70, 44
2, 226770, Note_on_c, 0, 46, 0
2, 226780, Note_on_c, 0, 58, 0
2, 226800, Note_on_c, 0, 70, 0
2, 226806, Note_on_c, 0, 56, 0
2, 226886, Note_on_c, 0, 70, 53
2, 226892, Control_c, 0, 64, 0
2, 226898, Note_on_c, 0, 58, 41
2, 226910, Note_on_c, 0, 64, 63
2, 226914, Note_on_c, 0, 55, 53
2, 226932, Note_on_c, 0, 46, 44
2, 226934, Note_on_c, 0, 65, 0
2, 227090, Note_on_c, 0, 55, 0
2, 227114, Note_on_c, 0, 46, 0
2, 227118, Note_on_c, 0, 58, 0
2, 227122, Control_c, 0, 64, 127
2, 227128, Note_on_c, 0, 70, 0
2, 227134, Note_on_c, 0, 64, 0
2, 227306, Control_c, 0, 64, 0
2, 227620, Note_on_c, 0, 70, 42
2, 227632, Note_on_c, 0, 58, 26
2, 227634, Note_on_c, 0, 63, 46
2, 227664, Note_on_c, 0, 46, 26
2, 227666, Note_on_c, 0, 54, 38
2, 227706, Note_on_c, 0, 70, 0
2, 227706, Note_on_c, 0, 63, 0
2, 227712, Note_on_c, 0, 58, 0
2, 227736, Control_c, 0, 64, 127
2, 227782, Note_on_c, 0, 46, 0
2, 227796, Note_on_c, 0, 70, 35
2, 227799, Note_on_c, 0, 58, 31
2, 227866, Note_on_c, 0, 70, 0
2, 227868, Note_on_c, 0, 58, 0
2, 227874, Note_on_c, 0, 54, 0
2, 227952, Control_c, 0, 64, 0
2, 227988, Note_on_c, 0, 70, 35
2, 228002, Note_on_c, 0, 58, 25
2, 228016, Note_on_c, 0, 62, 38
2, 228022, Note_on_c, 0, 53, 57
2, 228022, Note_on_c, 0, 46, 32
2, 228070, Note_on_c, 0, 53, 0
2, 228082, Note_on_c, 0, 46, 0
2, 228146, Note_on_c, 0, 58, 0
2, 228150, Note_on_c, 0, 70, 0
2, 228166, Control_c, 0, 64, 127
2, 228214, Note_on_c, 0, 62, 0
2, 228428, Note_on_c, 0, 58, 54
2, 228431, Note_on_c, 0, 70, 43
2, 228458, Control_c, 0, 64, 0
2, 228482, Note_on_c, 0, 58, 0
2, 228486, Note_on_c, 0, 70, 0
2, 228546, Note_on_c, 0, 70, 55
2, 228550, Note_on_c, 0, 58, 52
2, 228630, Note_on_c, 0, 58, 0
2, 228654, Note_on_c, 0, 70, 0
2, 228688, Note_on_c, 0, 58, 65
2, 228700, Note_on_c, 0, 70, 62
2, 228866, Note_on_c, 0, 58, 0
2, 228869, Note_on_c, 0, 70, 0
2, 228872, Control_c, 0, 64, 127
2, 228982, Control_c, 0, 64, 0
2, 229000, Note_on_c, 0, 58, 73
2, 229008, Note_on_c, 0, 70, 68
2, 229046, Note_on_c, 0, 58, 0
2, 229052, Note_on_c, 0, 70, 0
2, 229110, Note_on_c, 0, 58, 60
2, 229114, Note_on_c, 0, 70, 64
2, 229180, Control_c, 0, 64, 127
2, 229202, Note_on_c, 0, 58, 0
2, 229226, Control_c, 0, 64, 0
2, 229230, Note_on_c, 0, 70, 0
2, 229264, Note_on_c, 0, 58, 76
2, 229272, Note_on_c, 0, 70, 95
2, 229430, Note_on_c, 0, 58, 0
2, 229442, Control_c, 0, 64, 127
2, 229446, Note_on_c, 0, 70, 0
2, 229654, Note_on_c, 0, 58, 95
2, 229660, Note_on_c, 0, 70, 90
2, 229695, Note_on_c, 0, 58, 0
2, 229695, Note_on_c, 0, 70, 0
2, 229782, Note_on_c, 0, 70, 70
2, 229785, Note_on_c, 0, 58, 85
2, 229842, Control_c, 0, 64, 0
2, 229866, Note_on_c, 0, 58, 0
2, 229872, Note_on_c, 0, 70, 0
2, 229952, Note_on_c, 0, 46, 110
2, 229956, Note_on_c, 0, 34, 101
2, 229958, Note_on_c, 0, 58, 88
2, 229958, Note_on_c, 0, 70, 93
2, 229992, Note_on_c, 0, 34, 0
2, 230026, Note_on_c, 0, 46, 0
2, 230056, Note_on_c, 0, 58, 0
2, 230056, Control_c, 0, 64, 127
2, 230104, Note_on_c, 0, 70, 0
2, 230348, Note_on_c, 0, 74, 92
2, 230348, Note_on_c, 0, 65, 84
2, 230354, Note_on_c, 0, 68, 83
2, 230366, Note_on_c, 0, 58, 41
2, 230410, Note_on_c, 0, 68, 0
2, 230420, Note_on_c, 0, 58, 0
2, 230466, Note_on_c, 0, 75, 86
2, 230506, Note_on_c, 0, 74, 0
2, 230518, Note_on_c, 0, 65, 0
2, 230584, Note_on_c, 0, 68, 91
2, 230588, Note_on_c, 0, 74, 81
2, 230592, Note_on_c, 0, 77, 102
2, 230594, Note_on_c, 0, 58, 76
2, 230612, Note_on_c, 0, 65, 70
2, 230626, Control_c, 0, 64, 0
2, 230668, Note_on_c, 0, 65, 0
2, 230674, Note_on_c, 0, 75, 0
2, 230688, Note_on_c, 0, 68, 0
2, 230728, Note_on_c, 0, 58, 0
2, 230754, Note_on_c, 0, 74, 0
2, 230798, Note_on_c, 0, 77, 0
2, 230856, Note_on_c, 0, 70, 99
2, 230864, Note_on_c, 0, 51, 107
2, 230870, Note_on_c, 0, 39, 97
2, 230898, Note_on_c, 0, 39, 0
2, 230916, Note_on_c, 0, 51, 0
2, 230964, Control_c, 0, 64, 127
2, 231022, Note_on_c, 0, 70, 0
2, 231126, Note_on_c, 0, 75, 88
2, 231146, Note_on_c, 0, 58, 64
2, 231148, Note_on_c, 0, 67, 67
2, 231172, Note_on_c, 0, 63, 42
2, 231210, Note_on_c, 0, 58, 0
2, 231226, Note_on_c, 0, 77, 89
2, 231228, Note_on_c, 0, 63, 0
2, 231240, Note_on_c, 0, 67, 0
2, 231274, Note_on_c, 0, 75, 0
2, 231342, Note_on_c, 0, 77, 0
2, 231348, Control_c, 0, 64, 0
2, 231358, Note_on_c, 0, 75, 75
2, 231361, Note_on_c, 0, 79, 109
2, 231366, Note_on_c, 0, 67, 95
2, 231372, Note_on_c, 0, 58, 72
2, 231376, Note_on_c, 0, 63, 83
2, 231402, Note_on_c, 0, 67, 0
2, 231412, Note_on_c, 0, 63, 0
2, 231440, Note_on_c, 0, 58, 0
2, 231512, Note_on_c, 0, 75, 0
2, 231616, Note_on_c, 0, 79, 0
2, 231626, Note_on_c, 0, 70, 96
2, 231632, Note_on_c, 0, 46, 91
2, 231634, Note_on_c, 0, 58, 83
2, 231672, Note_on_c, 0, 46, 0
2, 231678, Note_on_c, 0, 58, 0
2, 231730, Control_c, 0, 64, 127
2, 231774, Note_on_c, 0, 70, 0
2, 231884, Note_on_c, 0, 68, 80
2, 231886, Note_on_c, 0, 77, 92
2, 231888, Note_on_c, 0, 58, 64
2, 231914, Note_on_c, 0, 62, 50
2, 231966, Note_on_c, 0, 68, 0
2, 231968, Note_on_c, 0, 62, 0
2, 231982, Note_on_c, 0, 79, 95
2, 232010, Note_on_c, 0, 58, 0
2, 232038, Note_on_c, 0, 77, 0
2, 232104, Note_on_c, 0, 77, 87
2, 232108, Note_on_c, 0, 68, 84
2, 232112, Note_on_c, 0, 80, 98
2, 232120, Note_on_c, 0, 58, 54
2, 232126, Note_on_c, 0, 62, 62
2, 232150, Note_on_c, 0, 79, 0
2, 232170, Note_on_c, 0, 68, 0
2, 232172, Note_on_c, 0, 62, 0
2, 232208, Note_on_c, 0, 58, 0
2, 232376, Control_c, 0, 64, 0
2, 232390, Note_on_c, 0, 77, 0
2, 232398, Note_on_c, 0, 82, 95
2, 232401, Note_on_c, 0, 73, 88
2, 232401, Note_on_c, 0, 51, 91
2, 232401, Note_on_c, 0, 79, 91
2, 232430, Note_on_c, 0, 80, 0
2, 232678, Note_on_c, 0, 51, 0
2, 232684, Control_c, 0, 64, 127
2, 232736, Note_on_c, 0, 79, 0
2, 232770, Note_on_c, 0, 67, 88
2, 232782, Note_on_c, 0, 61, 69
2, 232782, Note_on_c, 0, 58, 51
2, 232826, Note_on_c, 0, 73, 0
2, 232846, Note_on_c, 0, 82, 0
2, 232908, Note_on_c, 0, 67, 0
2, 232972, Note_on_c, 0, 58, 0
2, 232978, Note_on_c, 0, 61, 0
2, 233048, Note_on_c, 0, 73, 88
2, 233048, Note_on_c, 0, 82, 85
2, 233054, Note_on_c, 0, 79, 88
2, 233064, Note_on_c, 0, 52, 100
2, 233084, Note_on_c, 0, 82, 0
2, 233086, Note_on_c, 0, 73, 0
2, 233090, Note_on_c, 0, 79, 0
2, 233156, Note_on_c, 0, 52, 0
2, 233166, Note_on_c, 0, 82, 80
2, 233168, Note_on_c, 0, 73, 69
2, 233170, Note_on_c, 0, 79, 55
2, 233218, Note_on_c, 0, 79, 0
2, 233228, Note_on_c, 0, 73, 0
2, 233236, Control_c, 0, 64, 0
2, 233278, Note_on_c, 0, 82, 0
2, 233296, Note_on_c, 0, 73, 89
2, 233296, Note_on_c, 0, 82, 62
2, 233302, Note_on_c, 0, 79, 79
2, 233312, Note_on_c, 0, 53, 113
2, 233498, Control_c, 0, 64, 127
2, 233520, Note_on_c, 0, 53, 0
2, 233568, Note_on_c, 0, 79, 0
2, 233576, Note_on_c, 0, 82, 0
2, 233582, Note_on_c, 0, 84, 95
2, 233586, Note_on_c, 0, 65, 68
2, 233594, Note_on_c, 0, 73, 0
2, 233600, Note_on_c, 0, 56, 65
2, 233624, Note_on_c, 0, 65, 0
2, 233680, Note_on_c, 0, 56, 0
2, 233692, Note_on_c, 0, 82, 82
2, 233742, Note_on_c, 0, 84, 0
2, 233810, Note_on_c, 0, 80, 92
2, 233812, Note_on_c, 0, 72, 83
2, 233814, Note_on_c, 0, 44, 90
2, 233860, Note_on_c, 0, 82, 0
2, 233912, Note_on_c, 0, 80, 0
2, 233924, Note_on_c, 0, 72, 0
2, 233948, Note_on_c, 0, 44, 0
2, 233990, Control_c, 0, 64, 0
2, 234084, Note_on_c, 0, 46, 72
2, 234084, Note_on_c, 0, 80, 99
2, 234090, Note_on_c, 0, 71, 101
2, 234178, Note_on_c, 0, 46, 0
2, 234222, Control_c, 0, 64, 127
2, 234324, Note_on_c, 0, 80, 0
2, 234352, Note_on_c, 0, 63, 55
2, 234354, Note_on_c, 0, 82, 82
2, 234370, Note_on_c, 0, 71, 0
2, 234372, Note_on_c, 0, 55, 57
2, 234426, Note_on_c, 0, 63, 0
2, 234428, Note_on_c, 0, 55, 0
2, 234468, Note_on_c, 0, 80, 78
2, 234544, Note_on_c, 0, 82, 0
2, 234572, Note_on_c, 0, 70, 70
2, 234575, Note_on_c, 0, 79, 89
2, 234582, Note_on_c, 0, 63, 67
2, 234595, Note_on_c, 0, 55, 62
2, 234624, Note_on_c, 0, 80, 0
2, 234624, Note_on_c, 0, 63, 0
2, 234642, Note_on_c, 0, 55, 0
2, 234650, Note_on_c, 0, 79, 0
2, 234688, Note_on_c, 0, 70, 0
2, 234696, Control_c, 0, 64, 0
2, 234840, Note_on_c, 0, 46, 63
2, 234844, Note_on_c, 0, 70, 66
2, 234844, Note_on_c, 0, 79, 93
2, 234896, Note_on_c, 0, 46, 0
2, 234958, Control_c, 0, 64, 127
2, 235006, Note_on_c, 0, 79, 0
2, 235012, Note_on_c, 0, 70, 0
2, 235118, Note_on_c, 0, 80, 68
2, 235118, Note_on_c, 0, 62, 53
2, 235128, Note_on_c, 0, 53, 70
2, 235176, Note_on_c, 0, 62, 0
2, 235190, Note_on_c, 0, 53, 0
2, 235228, Note_on_c, 0, 79, 76
2, 235264, Note_on_c, 0, 80, 0
2, 235340, Note_on_c, 0, 62, 60
2, 235346, Note_on_c, 0, 68, 59
2, 235350, Note_on_c, 0, 77, 73
2, 235364, Note_on_c, 0, 58, 40
2, 235366, Note_on_c, 0, 79, 0
2, 235390, Note_on_c, 0, 62, 0
2, 235393, Note_on_c, 0, 77, 0
2, 235424, Note_on_c, 0, 58, 0
2, 235468, Note_on_c, 0, 68, 0
2, 235496, Control_c, 0, 64, 0
2, 235608, Note_on_c, 0, 68, 60
2, 235608, Note_on_c, 0, 77, 84
2, 235616, Note_on_c, 0, 51, 59
2, 235772, Control_c, 0, 64, 127
2, 235794, Note_on_c, 0, 51, 0
2, 235828, Note_on_c, 0, 77, 0
2, 235880, Note_on_c, 0, 68, 0
2, 235880, Note_on_c, 0, 63, 61
2, 235880, Note_on_c, 0, 79, 82
2, 235902, Note_on_c, 0, 58, 38
2, 235942, Note_on_c, 0, 63, 0
2, 235962, Note_on_c, 0, 58, 0
2, 235980, Note_on_c, 0, 77, 63
2, 235996, Note_on_c, 0, 79, 0
2, 236034, Control_c, 0, 64, 0
2, 236072, Note_on_c, 0, 67, 57
2, 236082, Note_on_c, 0, 75, 82
2, 236086, Note_on_c, 0, 63, 75
2, 236110, Note_on_c, 0, 58, 50
2, 236113, Note_on_c, 0, 77, 0
2, 236124, Note_on_c, 0, 67, 0
2, 236124, Note_on_c, 0, 63, 0
2, 236162, Note_on_c, 0, 58, 0
2, 236180, Note_on_c, 0, 75, 0
2, 236344, Note_on_c, 0, 70, 98
2, 236346, Note_on_c, 0, 82, 100
2, 236346, Note_on_c, 0, 46, 98
2, 236352, Note_on_c, 0, 58, 80
2, 236404, Note_on_c, 0, 58, 0
2, 236410, Note_on_c, 0, 46, 0
2, 236418, Control_c, 0, 64, 127
2, 236458, Note_on_c, 0, 82, 0
2, 236494, Note_on_c, 0, 70, 0
2, 236598, Note_on_c, 0, 68, 80
2, 236606, Note_on_c, 0, 58, 60
2, 236608, Note_on_c, 0, 74, 79
2, 236616, Note_on_c, 0, 65, 63
2, 236670, Note_on_c, 0, 65, 0
2, 236673, Note_on_c, 0, 68, 0
2, 236678, Note_on_c, 0, 75, 83
2, 236702, Note_on_c, 0, 58, 0
2, 236724, Note_on_c, 0, 74, 0
2, 236806, Note_on_c, 0, 77, 96
2, 236809, Note_on_c, 0, 74, 71
2, 236814, Note_on_c, 0, 68, 80
2, 236836, Note_on_c, 0, 65, 64
2, 236836, Note_on_c, 0, 58, 60
2, 236844, Note_on_c, 0, 68, 0
2, 236866, Note_on_c, 0, 75, 0
2, 236874, Note_on_c, 0, 65, 0
2, 236898, Note_on_c, 0, 58, 0
2, 236910, Note_on_c, 0, 74, 0
2, 236910, Control_c, 0, 64, 0
2, 236936, Note_on_c, 0, 77, 0
2, 237054, Note_on_c, 0, 70, 102
2, 237056, Note_on_c, 0, 82, 102
2, 237066, Note_on_c, 0, 51, 103
2, 237070, Note_on_c, 0, 39, 96
2, 237102, Note_on_c, 0, 39, 0
2, 237166, Note_on_c, 0, 51, 0
2, 237186, Control_c, 0, 64, 127
2, 237200, Note_on_c, 0, 70, 0
2, 237248, Note_on_c, 0, 82, 0
2, 237330, Note_on_c, 0, 75, 84
2, 237334, Note_on_c, 0, 67, 88
2, 237338, Note_on_c, 0, 58, 62
2, 237348, Note_on_c, 0, 63, 62
2, 237398, Note_on_c, 0, 63, 0
2, 237400, Note_on_c, 0, 67, 0
2, 237406, Note_on_c, 0, 58, 0
2, 237428, Note_on_c, 0, 77, 84
2, 237466, Note_on_c, 0, 75, 0
2, 237542, Note_on_c, 0, 75, 75
2, 237542, Note_on_c, 0, 79, 106
2, 237550, Note_on_c, 0, 58, 66
2, 237552, Note_on_c, 0, 67, 76
2, 237558, Note_on_c, 0, 63, 73
2, 237590, Note_on_c, 0, 67, 0
2, 237594, Note_on_c, 0, 63, 0
2, 237598, Note_on_c, 0, 77, 0
2, 237604, Note_on_c, 0, 58, 0
2, 237628, Note_on_c, 0, 75, 0
2, 237662, Control_c, 0, 64, 0
2, 237684, Note_on_c, 0, 79, 0
2, 237784, Note_on_c, 0, 70, 99
2, 237786, Note_on_c, 0, 82, 100
2, 237794, Note_on_c, 0, 46, 93
2, 237800, Note_on_c, 0, 58, 81
2, 237832, Note_on_c, 0, 46, 0
2, 237842, Note_on_c, 0, 58, 0
2, 237892, Control_c, 0, 64, 127
2, 237926, Note_on_c, 0, 70, 0
2, 237972, Note_on_c, 0, 82, 0
2, 238042, Note_on_c, 0, 68, 67
2, 238046, Note_on_c, 0, 58, 49
2, 238056, Note_on_c, 0, 77, 88
2, 238090, Note_on_c, 0, 62, 54
2, 238140, Note_on_c, 0, 62, 0
2, 238162, Note_on_c, 0, 58, 0
2, 238170, Note_on_c, 0, 79, 95
2, 238172, Note_on_c, 0, 68, 0
2, 238220, Note_on_c, 0, 77, 0
2, 238294, Note_on_c, 0, 68, 83
2, 238298, Note_on_c, 0, 62, 76
2, 238300, Note_on_c, 0, 58, 63
2, 238300, Note_on_c, 0, 77, 81
2, 238300, Note_on_c, 0, 80, 99
2, 238336, Note_on_c, 0, 68, 0
2, 238350, Note_on_c, 0, 62, 0
2, 238366, Note_on_c, 0, 79, 0
2, 238398, Note_on_c, 0, 58, 0
2, 238618, Note_on_c, 0, 82, 94
2, 238622, Note_on_c, 0, 51, 90
2, 238624, Note_on_c, 0, 73, 87
2, 238626, Note_on_c, 0, 79, 91
2, 238636, Note_on_c, 0, 77, 0
2, 238676, Control_c, 0, 64, 0
2, 238684, Note_on_c, 0, 80, 0
2, 238906, Control_c, 0, 64, 127
2, 238918, Note_on_c, 0, 79, 0
2, 238936, Note_on_c, 0, 51, 0
2, 238998, Note_on_c, 0, 67, 86
2, 239006, Note_on_c, 0, 82, 0
2, 239006, Note_on_c, 0, 58, 57
2, 239009, Note_on_c, 0, 61, 66
2, 239072, Note_on_c, 0, 73, 0
2, 239122, Note_on_c, 0, 67, 0
2, 239128, Note_on_c, 0, 79, 88
2, 239128, Note_on_c, 0, 82, 81
2, 239194, Note_on_c, 0, 61, 0
2, 239294, Note_on_c, 0, 58, 0
2, 239338, Note_on_c, 0, 52, 89
2, 239338, Note_on_c, 0, 73, 83
2, 239362, Note_on_c, 0, 79, 0
2, 239388, Note_on_c, 0, 82, 0
2, 239470, Note_on_c, 0, 82, 74
2, 239479, Note_on_c, 0, 79, 87
2, 239506, Note_on_c, 0, 52, 0
2, 239524, Note_on_c, 0, 73, 0
2, 239614, Control_c, 0, 64, 0
2, 239630, Note_on_c, 0, 73, 81
2, 239644, Note_on_c, 0, 53, 92
2, 239660, Note_on_c, 0, 82, 0
2, 239696, Note_on_c, 0, 79, 0
2, 239760, Note_on_c, 0, 82, 73
2, 239866, Note_on_c, 0, 53, 0
2, 239890, Control_c, 0, 64, 127
2, 239900, Note_on_c, 0, 84, 95
2, 239908, Note_on_c, 0, 65, 66
2, 239911, Note_on_c, 0, 56, 50
2, 239932, Note_on_c, 0, 82, 0
2, 239950, Note_on_c, 0, 65, 0
2, 240010, Note_on_c, 0, 56, 0
2, 240010, Note_on_c, 0, 82, 64
2, 240084, Note_on_c, 0, 84, 0
2, 240096, Note_on_c, 0, 73, 0
2, 240152, Note_on_c, 0, 80, 88
2, 240158, Note_on_c, 0, 72, 78
2, 240158, Note_on_c, 0, 44, 83
2, 240192, Note_on_c, 0, 82, 0
2, 240262, Note_on_c, 0, 80, 0
2, 240272, Note_on_c, 0, 72, 0
2, 240274, Note_on_c, 0, 44, 0
2, 240382, Control_c, 0, 64, 0
2, 240414, Note_on_c, 0, 46, 78
2, 240430, Note_on_c, 0, 71, 91
2, 240472, Note_on_c, 0, 46, 0
2, 240558, Note_on_c, 0, 80, 78
2, 240596, Control_c, 0, 64, 127
2, 240688, Note_on_c, 0, 63, 55
2, 240696, Note_on_c, 0, 82, 76
2, 240698, Note_on_c, 0, 80, 0
2, 240700, Note_on_c, 0, 55, 51
2, 240744, Note_on_c, 0, 63, 0
2, 240756, Note_on_c, 0, 55, 0
2, 240782, Note_on_c, 0, 71, 0
2, 240812, Note_on_c, 0, 80, 50
2, 240882, Note_on_c, 0, 82, 0
2, 240940, Note_on_c, 0, 70, 60
2, 240946, Note_on_c, 0, 79, 79
2, 240948, Note_on_c, 0, 63, 65
2, 240962, Note_on_c, 0, 80, 0
2, 240972, Note_on_c, 0, 55, 49
2, 240994, Note_on_c, 0, 63, 0
2, 241022, Note_on_c, 0, 55, 0
2, 241058, Note_on_c, 0, 79, 0
2, 241080, Note_on_c, 0, 70, 0
2, 241150, Control_c, 0, 64, 0
2, 241192, Note_on_c, 0, 46, 47
2, 241236, Note_on_c, 0, 70, 60
2, 241272, Note_on_c, 0, 46, 0
2, 241364, Control_c, 0, 64, 127
2, 241374, Note_on_c, 0, 79, 66
2, 241496, Note_on_c, 0, 80, 60
2, 241500, Note_on_c, 0, 62, 51
2, 241508, Note_on_c, 0, 79, 0
2, 241522, Note_on_c, 0, 53, 55
2, 241552, Note_on_c, 0, 62, 0
2, 241600, Note_on_c, 0, 53, 0
2, 241612, Note_on_c, 0, 79, 51
2, 241624, Note_on_c, 0, 70, 0
2, 241630, Note_on_c, 0, 80, 0
2, 241752, Note_on_c, 0, 79, 0
2, 241760, Note_on_c, 0, 68, 44
2, 241772, Note_on_c, 0, 77, 55
2, 241774, Note_on_c, 0, 62, 46
2, 241790, Note_on_c, 0, 58, 27
2, 241834, Note_on_c, 0, 62, 0
2, 241868, Note_on_c, 0, 58, 0
2, 241940, Note_on_c, 0, 68, 0
2, 242030, Note_on_c, 0, 77, 0
2, 242072, Control_c, 0, 64, 0
2, 242102, Note_on_c, 0, 75, 42
2, 242105, Note_on_c, 0, 67, 35
2, 242108, Note_on_c, 0, 63, 21
2, 242132, Note_on_c, 0, 58, 9
2, 242162, Note_on_c, 0, 51, 35
2, 242254, Note_on_c, 0, 51, 0
2, 242312, Note_on_c, 0, 75, 0
2, 242330, Control_c, 0, 64, 127
2, 242348, Note_on_c, 0, 63, 0
2, 242362, Note_on_c, 0, 58, 0
2, 242416, Note_on_c, 0, 75, 50
2, 242432, Note_on_c, 0, 67, 0
2, 242500, Note_on_c, 0, 75, 0
2, 242572, Note_on_c, 0, 75, 64
2, 242624, Note_on_c, 0, 75, 0
2, 242684, Note_on_c, 0, 75, 71
2, 242690, Note_on_c, 0, 61, 42
2, 242744, Note_on_c, 0, 75, 0
2, 242744, Note_on_c, 0, 55, 21
2, 242747, Note_on_c, 0, 51, 22
2, 242768, Note_on_c, 0, 61, 0
2, 242814, Note_on_c, 0, 55, 0
2, 242814, Note_on_c, 0, 51, 0
2, 242826, Control_c, 0, 64, 0
2, 242830, Note_on_c, 0, 75, 62
2, 242892, Note_on_c, 0, 75, 0
2, 242956, Note_on_c, 0, 44, 56
2, 242958, Note_on_c, 0, 75, 67
2, 243046, Note_on_c, 0, 75, 0
2, 243056, Note_on_c, 0, 44, 0
2, 243108, Note_on_c, 0, 75, 52
2, 243156, Note_on_c, 0, 75, 0
2, 243208, Note_on_c, 0, 75, 73
2, 243222, Note_on_c, 0, 60, 39
2, 243224, Note_on_c, 0, 56, 38
2, 243230, Note_on_c, 0, 51, 29
2, 243270, Note_on_c, 0, 75, 0
2, 243284, Note_on_c, 0, 60, 0
2, 243286, Note_on_c, 0, 56, 0
2, 243300, Note_on_c, 0, 51, 0
2, 243330, Note_on_c, 0, 75, 73
2, 243384, Note_on_c, 0, 75, 0
2, 243456, Note_on_c, 0, 75, 66
2, 243458, Note_on_c, 0, 60, 51
2, 243466, Note_on_c, 0, 51, 47
2, 243468, Note_on_c, 0, 56, 39
2, 243510, Note_on_c, 0, 60, 0
2, 243513, Note_on_c, 0, 75, 0
2, 243524, Note_on_c, 0, 56, 0
2, 243528, Note_on_c, 0, 51, 0
2, 243572, Note_on_c, 0, 75, 78
2, 243624, Note_on_c, 0, 75, 0
2, 243712, Note_on_c, 0, 44, 55
2, 243714, Note_on_c, 0, 77, 74
2, 243798, Note_on_c, 0, 44, 0
2, 243822, Note_on_c, 0, 77, 0
2, 243822, Control_c, 0, 64, 127
2, 243830, Note_on_c, 0, 75, 73
2, 243938, Note_on_c, 0, 75, 0
2, 243944, Note_on_c, 0, 72, 69
2, 243946, Control_c, 0, 64, 0
2, 243964, Note_on_c, 0, 60, 45
2, 243974, Note_on_c, 0, 56, 34
2, 243980, Note_on_c, 0, 51, 32
2, 244028, Note_on_c, 0, 60, 0
2, 244038, Note_on_c, 0, 56, 0
2, 244050, Note_on_c, 0, 51, 0
2, 244068, Note_on_c, 0, 68, 61
2, 244080, Note_on_c, 0, 72, 0
2, 244186, Note_on_c, 0, 60, 59
2, 244188, Note_on_c, 0, 63, 77
2, 244200, Note_on_c, 0, 68, 0
2, 244200, Note_on_c, 0, 56, 41
2, 244220, Note_on_c, 0, 51, 41
2, 244240, Note_on_c, 0, 60, 0
2, 244262, Note_on_c, 0, 56, 0
2, 244280, Note_on_c, 0, 51, 0
2, 244304, Note_on_c, 0, 64, 80
2, 244306, Note_on_c, 0, 63, 0
2, 244374, Note_on_c, 0, 64, 0
2, 244426, Note_on_c, 0, 44, 56
2, 244438, Note_on_c, 0, 65, 71
2, 244474, Note_on_c, 0, 65, 0
2, 244478, Note_on_c, 0, 44, 0
2, 244500, Control_c, 0, 64, 127
2, 244552, Note_on_c, 0, 65, 48
2, 244576, Control_c, 0, 64, 0
2, 244622, Note_on_c, 0, 65, 0
2, 244670, Note_on_c, 0, 59, 51
2, 244674, Note_on_c, 0, 56, 42
2, 244688, Note_on_c, 0, 65, 70
2, 244706, Note_on_c, 0, 50, 29
2, 244726, Note_on_c, 0, 59, 0
2, 244732, Note_on_c, 0, 65, 0
2, 244738, Note_on_c, 0, 56, 0
2, 244776, Note_on_c, 0, 50, 0
2, 244786, Note_on_c, 0, 65, 76
2, 244842, Note_on_c, 0, 65, 0
2, 244916, Note_on_c, 0, 59, 54
2, 244920, Note_on_c, 0, 65, 61
2, 244928, Note_on_c, 0, 56, 48
2, 244944, Note_on_c, 0, 50, 38
2, 244960, Note_on_c, 0, 59, 0
2, 244978, Note_on_c, 0, 65, 0
2, 244978, Note_on_c, 0, 56, 0
2, 245006, Note_on_c, 0, 50, 0
2, 245034, Note_on_c, 0, 65, 60
2, 245088, Note_on_c, 0, 65, 0
2, 245148, Note_on_c, 0, 63, 75
2, 245148, Note_on_c, 0, 44, 73
2, 245200, Note_on_c, 0, 44, 0
2, 245238, Note_on_c, 0, 63, 0
2, 245238, Control_c, 0, 64, 127
2, 245268, Note_on_c, 0, 68, 65
2, 245330, Control_c, 0, 64, 0
2, 245366, Note_on_c, 0, 68, 0
2, 245380, Note_on_c, 0, 60, 57
2, 245384, Note_on_c, 0, 72, 70
2, 245386, Note_on_c, 0, 51, 51
2, 245388, Note_on_c, 0, 56, 46
2, 245440, Note_on_c, 0, 60, 0
2, 245454, Note_on_c, 0, 56, 0
2, 245456, Note_on_c, 0, 51, 0
2, 245469, Note_on_c, 0, 72, 0
2, 245494, Note_on_c, 0, 75, 73
2, 245572, Note_on_c, 0, 75, 0
2, 245598, Note_on_c, 0, 56, 62
2, 245602, Note_on_c, 0, 60, 57
2, 245612, Note_on_c, 0, 80, 84
2, 245612, Note_on_c, 0, 51, 56
2, 245662, Note_on_c, 0, 56, 0
2, 245664, Note_on_c, 0, 60, 0
2, 245678, Note_on_c, 0, 51, 0
2, 245718, Note_on_c, 0, 76, 70
2, 245730, Note_on_c, 0, 80, 0
2, 245760, Note_on_c, 0, 76, 0
2, 245822, Note_on_c, 0, 50, 70
2, 245830, Note_on_c, 0, 77, 92
2, 245860, Note_on_c, 0, 77, 0
2, 245868, Note_on_c, 0, 50, 0
2, 245882, Control_c, 0, 64, 127
2, 245936, Note_on_c, 0, 77, 52
2, 245992, Note_on_c, 0, 77, 0
2, 246004, Control_c, 0, 64, 0
2, 246056, Note_on_c, 0, 65, 37
2, 246062, Note_on_c, 0, 77, 79
2, 246066, Note_on_c, 0, 56, 37
2, 246070, Note_on_c, 0, 59, 41
2, 246116, Note_on_c, 0, 65, 0
2, 246116, Note_on_c, 0, 77, 0
2, 246126, Note_on_c, 0, 59, 0
2, 246138, Note_on_c, 0, 56, 0
2, 246180, Note_on_c, 0, 77, 76
2, 246218, Note_on_c, 0, 77, 0
2, 246280, Note_on_c, 0, 77, 74
2, 246290, Note_on_c, 0, 59, 57
2, 246293, Note_on_c, 0, 65, 50
2, 246298, Note_on_c, 0, 56, 50
2, 246330, Note_on_c, 0, 77, 0
2, 246338, Note_on_c, 0, 65, 0
2, 246346, Note_on_c, 0, 59, 0
2, 246380, Note_on_c, 0, 56, 0
2, 246390, Note_on_c, 0, 77, 83
2, 246428, Note_on_c, 0, 77, 0
2, 246510, Note_on_c, 0, 77, 61
2, 246516, Note_on_c, 0, 51, 65
2, 246562, Note_on_c, 0, 51, 0
2, 246565, Note_on_c, 0, 77, 0
2, 246598, Note_on_c, 0, 79, 82
2, 246620, Control_c, 0, 64, 127
2, 246660, Note_on_c, 0, 79, 0
2, 246666, Note_on_c, 0, 77, 66
2, 246712, Note_on_c, 0, 77, 0
2, 246734, Note_on_c, 0, 68, 44
2, 246766, Note_on_c, 0, 63, 41
2, 246770, Note_on_c, 0, 60, 35
2, 246772, Note_on_c, 0, 75, 83
2, 246804, Control_c, 0, 64, 0
2, 246810, Note_on_c, 0, 68, 0
2, 246822, Note_on_c, 0, 63, 0
2, 246840, Note_on_c, 0, 60, 0
2, 246882, Note_on_c, 0, 75, 0
2, 246890, Note_on_c, 0, 80, 81
2, 246990, Note_on_c, 0, 68, 59
2, 246994, Note_on_c, 0, 80, 0
2, 246997, Note_on_c, 0, 84, 99
2, 247004, Note_on_c, 0, 63, 47
2, 247010, Note_on_c, 0, 60, 48
2, 247042, Note_on_c, 0, 68, 0
2, 247056, Note_on_c, 0, 63, 0
2, 247072, Note_on_c, 0, 60, 0
2, 247080, Note_on_c, 0, 84, 0
2, 247248, Note_on_c, 0, 89, 92
2, 247258, Note_on_c, 0, 51, 59
2, 247316, Note_on_c, 0, 51, 0
2, 247342, Control_c, 0, 64, 127
2, 247514, Note_on_c, 0, 87, 68
2, 247528, Note_on_c, 0, 63, 42
2, 247530, Note_on_c, 0, 67, 45
2, 247540, Note_on_c, 0, 61, 44
2, 247542, Note_on_c, 0, 89, 0
2, 247596, Note_on_c, 0, 67, 0
2, 247606, Note_on_c, 0, 63, 0
2, 247609, Note_on_c, 0, 61, 0
2, 247624, Note_on_c, 0, 85, 65
2, 247640, Note_on_c, 0, 87, 0
2, 247748, Note_on_c, 0, 79, 83
2, 247756, Note_on_c, 0, 67, 54
2, 247760, Note_on_c, 0, 61, 52
2, 247790, Note_on_c, 0, 63, 33
2, 247798, Note_on_c, 0, 85, 0
2, 247818, Note_on_c, 0, 67, 0
2, 247821, Note_on_c, 0, 61, 0
2, 247834, Note_on_c, 0, 79, 0
2, 247846, Note_on_c, 0, 63, 0
2, 247910, Control_c, 0, 64, 0
2, 248032, Note_on_c, 0, 82, 66
2, 248062, Note_on_c, 0, 56, 36
2, 248202, Control_c, 0, 64, 127
2, 248226, Note_on_c, 0, 56, 0
2, 248306, Note_on_c, 0, 68, 29
2, 248320, Note_on_c, 0, 80, 50
2, 248326, Note_on_c, 0, 82, 0
2, 248334, Note_on_c, 0, 60, 18
2, 248350, Note_on_c, 0, 63, 20
2, 248384, Note_on_c, 0, 68, 0
2, 248416, Note_on_c, 0, 63, 0
2, 248420, Note_on_c, 0, 60, 0
2, 248426, Note_on_c, 0, 75, 50
2, 248434, Note_on_c, 0, 80, 0
2, 248478, Control_c, 0, 64, 0
2, 248508, Note_on_c, 0, 75, 0
2, 248540, Note_on_c, 0, 68, 46
2, 248546, Note_on_c, 0, 72, 63
2, 248548, Note_on_c, 0, 60, 27
2, 248586, Note_on_c, 0, 63, 15
2, 248588, Note_on_c, 0, 68, 0
2, 248612, Note_on_c, 0, 60, 0
2, 248644, Note_on_c, 0, 63, 0
2, 248770, Control_c, 0, 64, 127
2, 248782, Note_on_c, 0, 72, 0
2, 248786, Note_on_c, 0, 44, 62
2, 248804, Note_on_c, 0, 75, 62
2, 248838, Note_on_c, 0, 44, 0
2, 248860, Note_on_c, 0, 75, 0
2, 248922, Note_on_c, 0, 75, 67
2, 248926, Control_c, 0, 64, 0
2, 248970, Note_on_c, 0, 75, 0
2, 249034, Note_on_c, 0, 75, 69
2, 249036, Note_on_c, 0, 60, 38
2, 249038, Note_on_c, 0, 56, 31
2, 249042, Note_on_c, 0, 51, 33
2, 249088, Note_on_c, 0, 75, 0
2, 249098, Note_on_c, 0, 60, 0
2, 249104, Note_on_c, 0, 56, 0
2, 249110, Note_on_c, 0, 51, 0
2, 249148, Note_on_c, 0, 75, 68
2, 249192, Note_on_c, 0, 75, 0
2, 249264, Note_on_c, 0, 75, 61
2, 249264, Note_on_c, 0, 60, 52
2, 249270, Note_on_c, 0, 56, 40
2, 249276, Note_on_c, 0, 51, 43
2, 249314, Note_on_c, 0, 75, 0
2, 249317, Note_on_c, 0, 60, 0
2, 249332, Note_on_c, 0, 56, 0
2, 249346, Note_on_c, 0, 51, 0
2, 249370, Note_on_c, 0, 75, 74
2, 249448, Note_on_c, 0, 75, 0
2, 249500, Note_on_c, 0, 44, 58
2, 249512, Note_on_c, 0, 77, 67
2, 249548, Note_on_c, 0, 44, 0
2, 249606, Note_on_c, 0, 77, 0
2, 249614, Note_on_c, 0, 75, 68
2, 249632, Control_c, 0, 64, 127
2, 249708, Control_c, 0, 64, 0
2, 249715, Note_on_c, 0, 75, 0
2, 249718, Note_on_c, 0, 72, 66
2, 249732, Note_on_c, 0, 60, 34
2, 249740, Note_on_c, 0, 51, 32
2, 249742, Note_on_c, 0, 56, 30
2, 249802, Note_on_c, 0, 60, 0
2, 249808, Note_on_c, 0, 56, 0
2, 249812, Note_on_c, 0, 51, 0
2, 249817, Note_on_c, 0, 72, 0
2, 249828, Note_on_c, 0, 68, 65
2, 249940, Note_on_c, 0, 63, 69
2, 249962, Note_on_c, 0, 68, 0
2, 249965, Note_on_c, 0, 60, 44
2, 249978, Note_on_c, 0, 56, 35
2, 249992, Note_on_c, 0, 51, 27
2, 250004, Note_on_c, 0, 63, 0
2, 250026, Note_on_c, 0, 60, 0
2, 250038, Note_on_c, 0, 56, 0
2, 250042, Note_on_c, 0, 64, 74
2, 250062, Note_on_c, 0, 51, 0
2, 250104, Note_on_c, 0, 64, 0
2, 250174, Note_on_c, 0, 44, 68
2, 250174, Note_on_c, 0, 65, 67
2, 250214, Note_on_c, 0, 65, 0
2, 250222, Note_on_c, 0, 44, 0
2, 250262, Control_c, 0, 64, 127
2, 250274, Note_on_c, 0, 65, 64
2, 250308, Control_c, 0, 64, 0
2, 250332, Note_on_c, 0, 65, 0
2, 250396, Note_on_c, 0, 65, 74
2, 250410, Note_on_c, 0, 56, 50
2, 250410, Note_on_c, 0, 59, 52
2, 250418, Note_on_c, 0, 50, 57
2, 250464, Note_on_c, 0, 59, 0
2, 250468, Note_on_c, 0, 65, 0
2, 250478, Note_on_c, 0, 56, 0
2, 250480, Note_on_c, 0, 50, 0
2, 250532, Note_on_c, 0, 65, 47
2, 250582, Note_on_c, 0, 65, 0
2, 250636, Note_on_c, 0, 65, 81
2, 250642, Note_on_c, 0, 59, 62
2, 250652, Note_on_c, 0, 50, 66
2, 250652, Note_on_c, 0, 56, 58
2, 250684, Note_on_c, 0, 59, 0
2, 250686, Note_on_c, 0, 65, 0
2, 250698, Note_on_c, 0, 56, 0
2, 250706, Note_on_c, 0, 50, 0
2, 250750, Note_on_c, 0, 65, 75
2, 250806, Note_on_c, 0, 65, 0
2, 250866, Note_on_c, 0, 63, 84
2, 250872, Note_on_c, 0, 44, 69
2, 250924, Note_on_c, 0, 44, 0
2, 250954, Control_c, 0, 64, 127
2, 250976, Note_on_c, 0, 63, 0
2, 250980, Note_on_c, 0, 68, 73
2, 251076, Control_c, 0, 64, 0
2, 251084, Note_on_c, 0, 68, 0
2, 251088, Note_on_c, 0, 72, 82
2, 251096, Note_on_c, 0, 60, 59
2, 251102, Note_on_c, 0, 51, 51
2, 251102, Note_on_c, 0, 56, 51
2, 251160, Note_on_c, 0, 60, 0
2, 251166, Note_on_c, 0, 72, 0
2, 251168, Note_on_c, 0, 56, 0
2, 251170, Note_on_c, 0, 51, 0
2, 251202, Note_on_c, 0, 75, 84
2, 251312, Note_on_c, 0, 60, 63
2, 251312, Note_on_c, 0, 56, 58
2, 251318, Note_on_c, 0, 80, 90
2, 251322, Note_on_c, 0, 51, 57
2, 251330, Note_on_c, 0, 75, 0
2, 251374, Note_on_c, 0, 60, 0
2, 251386, Note_on_c, 0, 56, 0
2, 251386, Note_on_c, 0, 51, 0
2, 251426, Note_on_c, 0, 76, 76
2, 251460, Note_on_c, 0, 80, 0
2, 251476, Note_on_c, 0, 76, 0
2, 251542, Note_on_c, 0, 50, 59
2, 251542, Note_on_c, 0, 77, 94
2, 251574, Note_on_c, 0, 77, 0
2, 251592, Note_on_c, 0, 50, 0
2, 251598, Control_c, 0, 64, 127
2, 251654, Note_on_c, 0, 77, 60
2, 251704, Note_on_c, 0, 77, 0
2, 251704, Control_c, 0, 64, 0
2, 251750, Note_on_c, 0, 65, 45
2, 251760, Note_on_c, 0, 56, 41
2, 251764, Note_on_c, 0, 77, 84
2, 251788, Note_on_c, 0, 59, 35
2, 251808, Note_on_c, 0, 65, 0
2, 251810, Note_on_c, 0, 77, 0
2, 251834, Note_on_c, 0, 56, 0
2, 251840, Note_on_c, 0, 59, 0
2, 251866, Note_on_c, 0, 77, 90
2, 251896, Note_on_c, 0, 77, 0
2, 251968, Note_on_c, 0, 77, 42
2, 251992, Note_on_c, 0, 65, 43
2, 251998, Note_on_c, 0, 56, 42
2, 252010, Note_on_c, 0, 59, 40
2, 252042, Note_on_c, 0, 77, 0
2, 252042, Note_on_c, 0, 65, 0
2, 252060, Note_on_c, 0, 59, 0
2, 252086, Note_on_c, 0, 56, 0
2, 252106, Note_on_c, 0, 77, 58
2, 252152, Note_on_c, 0, 77, 0
2, 252204, Note_on_c, 0, 77, 88
2, 252212, Note_on_c, 0, 51, 59
2, 252242, Note_on_c, 0, 77, 0
2, 252258, Note_on_c, 0, 51, 0
2, 252288, Note_on_c, 0, 79, 67
2, 252290, Control_c, 0, 64, 127
2, 252342, Note_on_c, 0, 79, 0
2, 252345, Note_on_c, 0, 77, 64
2, 252392, Note_on_c, 0, 77, 0
2, 252430, Note_on_c, 0, 68, 39
2, 252456, Note_on_c, 0, 75, 77
2, 252458, Note_on_c, 0, 63, 39
2, 252460, Control_c, 0, 64, 0
2, 252464, Note_on_c, 0, 60, 28
2, 252502, Note_on_c, 0, 68, 0
2, 252512, Note_on_c, 0, 75, 0
2, 252512, Note_on_c, 0, 63, 0
2, 252536, Note_on_c, 0, 60, 0
2, 252568, Note_on_c, 0, 80, 72
2, 252642, Note_on_c, 0, 80, 0
2, 252682, Note_on_c, 0, 68, 55
2, 252682, Note_on_c, 0, 84, 96
2, 252694, Note_on_c, 0, 63, 46
2, 252726, Note_on_c, 0, 60, 33
2, 252734, Note_on_c, 0, 68, 0
2, 252746, Note_on_c, 0, 63, 0
2, 252758, Note_on_c, 0, 84, 0
2, 252792, Note_on_c, 0, 60, 0
2, 252942, Note_on_c, 0, 89, 81
2, 252952, Note_on_c, 0, 51, 58
2, 253010, Note_on_c, 0, 51, 0
2, 253012, Control_c, 0, 64, 127
2, 253250, Note_on_c, 0, 87, 73
2, 253260, Note_on_c, 0, 67, 49
2, 253260, Note_on_c, 0, 63, 49
2, 253274, Note_on_c, 0, 61, 47
2, 253277, Note_on_c, 0, 89, 0
2, 253334, Note_on_c, 0, 67, 0
2, 253338, Note_on_c, 0, 61, 0
2, 253344, Note_on_c, 0, 63, 0
2, 253374, Note_on_c, 0, 85, 78
2, 253428, Note_on_c, 0, 87, 0
2, 253500, Note_on_c, 0, 79, 99
2, 253512, Note_on_c, 0, 85, 0
2, 253515, Note_on_c, 0, 67, 64
2, 253532, Note_on_c, 0, 63, 47
2, 253536, Note_on_c, 0, 61, 48
2, 253632, Note_on_c, 0, 67, 0
2, 253636, Note_on_c, 0, 63, 0
2, 253648, Note_on_c, 0, 61, 0
2, 253816, Note_on_c, 0, 80, 97
2, 253834, Note_on_c, 0, 79, 0
2, 253840, Note_on_c, 0, 56, 61
2, 254026, Control_c, 0, 64, 0
2, 254140, Note_on_c, 0, 68, 73
2, 254156, Note_on_c, 0, 60, 64
2, 254242, Note_on_c, 0, 56, 0
2, 254256, Control_c, 0, 64, 127
2, 254258, Note_on_c, 0, 80, 0
2, 254278, Note_on_c, 0, 60, 0
2, 254306, Note_on_c, 0, 68, 0
2, 254492, Note_on_c, 0, 74, 98
2, 254495, Note_on_c, 0, 68, 63
2, 254504, Note_on_c, 0, 65, 57
2, 254514, Note_on_c, 0, 60, 53
2, 254526, Note_on_c, 0, 74, 0
2, 254554, Note_on_c, 0, 68, 0
2, 254557, Note_on_c, 0, 65, 0
2, 254570, Note_on_c, 0, 72, 69
2, 254572, Note_on_c, 0, 60, 0
2, 254632, Note_on_c, 0, 72, 0
2, 254644, Note_on_c, 0, 74, 81
2, 254692, Note_on_c, 0, 74, 0
2, 254724, Note_on_c, 0, 72, 73
2, 254774, Note_on_c, 0, 72, 0
2, 254784, Note_on_c, 0, 74, 85
2, 254870, Note_on_c, 0, 72, 76
2, 254916, Control_c, 0, 64, 0
2, 254918, Note_on_c, 0, 74, 0
2, 254944, Note_on_c, 0, 58, 82
2, 254946, Note_on_c, 0, 70, 100
2, 254950, Note_on_c, 0, 46, 86
2, 254990, Note_on_c, 0, 72, 0
2, 255102, Note_on_c, 0, 46, 0
2, 255108, Note_on_c, 0, 58, 0
2, 255148, Control_c, 0, 64, 127
2, 255174, Note_on_c, 0, 70, 0
2, 255258, Note_on_c, 0, 74, 92
2, 255268, Note_on_c, 0, 68, 68
2, 255280, Note_on_c, 0, 58, 46
2, 255284, Note_on_c, 0, 65, 61
2, 255366, Note_on_c, 0, 68, 0
2, 255376, Note_on_c, 0, 75, 86
2, 255394, Note_on_c, 0, 65, 0
2, 255410, Note_on_c, 0, 58, 0
2, 255434, Note_on_c, 0, 74, 0
2, 255490, Note_on_c, 0, 74, 97
2, 255492, Note_on_c, 0, 68, 83
2, 255492, Note_on_c, 0, 77, 100
2, 255500, Note_on_c, 0, 58, 48
2, 255514, Note_on_c, 0, 65, 62
2, 255556, Note_on_c, 0, 65, 0
2, 255568, Note_on_c, 0, 68, 0
2, 255580, Note_on_c, 0, 75, 0
2, 255634, Note_on_c, 0, 58, 0
2, 255644, Note_on_c, 0, 74, 0
2, 255686, Control_c, 0, 64, 0
2, 255766, Note_on_c, 0, 77, 0
2, 255778, Note_on_c, 0, 70, 90
2, 255792, Note_on_c, 0, 51, 97
2, 255898, Note_on_c, 0, 51, 0
2, 255932, Control_c, 0, 64, 127
2, 255964, Note_on_c, 0, 70, 0
2, 256064, Note_on_c, 0, 75, 88
2, 256072, Note_on_c, 0, 67, 78
2, 256076, Note_on_c, 0, 58, 55
2, 256088, Note_on_c, 0, 63, 63
2, 256122, Note_on_c, 0, 67, 0
2, 256140, Note_on_c, 0, 63, 0
2, 256168, Note_on_c, 0, 58, 0
2, 256168, Note_on_c, 0, 77, 84
2, 256206, Note_on_c, 0, 75, 0
2, 256290, Note_on_c, 0, 79, 107
2, 256293, Note_on_c, 0, 75, 67
2, 256306, Note_on_c, 0, 67, 74
2, 256312, Note_on_c, 0, 58, 64
2, 256326, Note_on_c, 0, 63, 62
2, 256348, Note_on_c, 0, 77, 0
2, 256354, Note_on_c, 0, 67, 0
2, 256368, Note_on_c, 0, 63, 0
2, 256382, Note_on_c, 0, 58, 0
2, 256412, Note_on_c, 0, 75, 0
2, 256438, Control_c, 0, 64, 0
2, 256544, Note_on_c, 0, 70, 88
2, 256556, Note_on_c, 0, 50, 100
2, 256594, Note_on_c, 0, 79, 0
2, 256618, Note_on_c, 0, 50, 0
2, 256684, Control_c, 0, 64, 127
2, 256702, Note_on_c, 0, 70, 0
2, 256806, Note_on_c, 0, 77, 92
2, 256814, Note_on_c, 0, 68, 76
2, 256818, Note_on_c, 0, 58, 69
2, 256828, Note_on_c, 0, 65, 67
2, 256872, Note_on_c, 0, 68, 0
2, 256884, Note_on_c, 0, 65, 0
2, 256898, Note_on_c, 0, 79, 96
2, 256914, Note_on_c, 0, 58, 0
2, 256962, Note_on_c, 0, 77, 0
2, 257036, Note_on_c, 0, 80, 100
2, 257044, Note_on_c, 0, 77, 82
2, 257048, Note_on_c, 0, 68, 79
2, 257058, Note_on_c, 0, 58, 59
2, 257064, Note_on_c, 0, 65, 69
2, 257106, Note_on_c, 0, 65, 0
2, 257108, Note_on_c, 0, 79, 0
2, 257108, Note_on_c, 0, 68, 0
2, 257182, Note_on_c, 0, 58, 0
2, 257318, Note_on_c, 0, 77, 0
2, 257330, Note_on_c, 0, 82, 93
2, 257330, Note_on_c, 0, 73, 88
2, 257336, Note_on_c, 0, 51, 92
2, 257336, Note_on_c, 0, 79, 86
2, 257344, Control_c, 0, 64, 0
2, 257392, Note_on_c, 0, 80, 0
2, 257592, Note_on_c, 0, 51, 0
2, 257606, Control_c, 0, 64, 127
2, 257616, Note_on_c, 0, 79, 0
2, 257662, Note_on_c, 0, 58, 69
2, 257670, Note_on_c, 0, 67, 79
2, 257676, Note_on_c, 0, 61, 68
2, 257752, Note_on_c, 0, 67, 0
2, 257782, Note_on_c, 0, 82, 0
2, 257796, Note_on_c, 0, 58, 0
2, 257812, Note_on_c, 0, 61, 0
2, 257822, Note_on_c, 0, 73, 0
2, 257984, Note_on_c, 0, 73, 86
2, 257987, Note_on_c, 0, 82, 83
2, 257987, Note_on_c, 0, 79, 94
2, 257996, Note_on_c, 0, 52, 94
2, 258028, Note_on_c, 0, 73, 0
2, 258028, Note_on_c, 0, 82, 0
2, 258028, Note_on_c, 0, 79, 0
2, 258118, Note_on_c, 0, 82, 83
2, 258122, Note_on_c, 0, 52, 0
2, 258124, Note_on_c, 0, 73, 72
2, 258130, Note_on_c, 0, 79, 69
2, 258190, Note_on_c, 0, 79, 0
2, 258194, Note_on_c, 0, 73, 0
2, 258218, Note_on_c, 0, 82, 0
2, 258236, Control_c, 0, 64, 0
2, 258298, Note_on_c, 0, 82, 83
2, 258306, Note_on_c, 0, 73, 95
2, 258312, Note_on_c, 0, 79, 100
2, 258320, Note_on_c, 0, 53, 104
2, 258506, Note_on_c, 0, 53, 0
2, 258544, Control_c, 0, 64, 127
2, 258550, Note_on_c, 0, 79, 0
2, 258594, Note_on_c, 0, 82, 0
2, 258599, Note_on_c, 0, 84, 94
2, 258602, Note_on_c, 0, 65, 63
2, 258608, Note_on_c, 0, 56, 62
2, 258630, Note_on_c, 0, 73, 0
2, 258642, Note_on_c, 0, 65, 0
2, 258716, Note_on_c, 0, 82, 83
2, 258720, Note_on_c, 0, 56, 0
2, 258784, Note_on_c, 0, 84, 0
2, 258838, Note_on_c, 0, 80, 88
2, 258838, Note_on_c, 0, 72, 78
2, 258850, Note_on_c, 0, 44, 80
2, 258884, Note_on_c, 0, 82, 0
2, 258932, Note_on_c, 0, 44, 0
2, 258954, Note_on_c, 0, 72, 0
2, 258986, Note_on_c, 0, 80, 0
2, 259020, Control_c, 0, 64, 0
2, 259118, Note_on_c, 0, 46, 65
2, 259121, Note_on_c, 0, 80, 92
2, 259121, Note_on_c, 0, 71, 97
2, 259168, Note_on_c, 0, 46, 0
2, 259266, Control_c, 0, 64, 127
2, 259358, Note_on_c, 0, 80, 0
2, 259396, Note_on_c, 0, 71, 0
2, 259408, Note_on_c, 0, 63, 53
2, 259408, Note_on_c, 0, 82, 76
2, 259426, Note_on_c, 0, 55, 45
2, 259470, Note_on_c, 0, 63, 0
2, 259484, Note_on_c, 0, 55, 0
2, 259504, Note_on_c, 0, 80, 73
2, 259580, Note_on_c, 0, 82, 0
2, 259636, Note_on_c, 0, 79, 88
2, 259642, Note_on_c, 0, 70, 61
2, 259650, Note_on_c, 0, 63, 66
2, 259666, Note_on_c, 0, 55, 53
2, 259678, Note_on_c, 0, 80, 0
2, 259696, Note_on_c, 0, 63, 0
2, 259718, Note_on_c, 0, 55, 0
2, 259738, Note_on_c, 0, 79, 0
2, 259792, Note_on_c, 0, 70, 0
2, 259818, Control_c, 0, 64, 0
2, 259912, Note_on_c, 0, 79, 89
2, 259920, Note_on_c, 0, 46, 55
2, 259920, Note_on_c, 0, 70, 57
2, 259984, Note_on_c, 0, 46, 0
2, 260064, Control_c, 0, 64, 127
2, 260102, Note_on_c, 0, 79, 0
2, 260202, Note_on_c, 0, 62, 55
2, 260204, Note_on_c, 0, 80, 50
2, 260208, Note_on_c, 0, 70, 0
2, 260212, Note_on_c, 0, 53, 61
2, 260256, Note_on_c, 0, 62, 0
2, 260274, Note_on_c, 0, 53, 0
2, 260296, Note_on_c, 0, 79, 80
2, 260360, Note_on_c, 0, 80, 0
2, 260422, Note_on_c, 0, 68, 68
2, 260428, Note_on_c, 0, 77, 64
2, 260430, Note_on_c, 0, 79, 0
2, 260438, Note_on_c, 0, 62, 54
2, 260446, Note_on_c, 0, 58, 50
2, 260476, Note_on_c, 0, 77, 0
2, 260488, Note_on_c, 0, 62, 0
2, 260500, Note_on_c, 0, 58, 0
2, 260542, Note_on_c, 0, 68, 0
2, 260632, Control_c, 0, 64, 0
2, 260690, Note_on_c, 0, 68, 79
2, 260692, Note_on_c, 0, 77, 91
2, 260704, Note_on_c, 0, 51, 60
2, 260864, Control_c, 0, 64, 127
2, 260870, Note_on_c, 0, 51, 0
2, 260894, Note_on_c, 0, 77, 0
2, 260936, Note_on_c, 0, 68, 0
2, 260954, Note_on_c, 0, 79, 84
2, 260970, Note_on_c, 0, 63, 61
2, 260994, Note_on_c, 0, 58, 34
2, 261024, Note_on_c, 0, 63, 0
2, 261040, Note_on_c, 0, 77, 75
2, 261058, Note_on_c, 0, 58, 0
2, 261072, Note_on_c, 0, 79, 0
2, 261142, Note_on_c, 0, 75, 84
2, 261144, Note_on_c, 0, 67, 79
2, 261160, Note_on_c, 0, 63, 74
2, 261164, Note_on_c, 0, 58, 44
2, 261186, Note_on_c, 0, 77, 0
2, 261198, Note_on_c, 0, 63, 0
2, 261208, Note_on_c, 0, 67, 0
2, 261210, Note_on_c, 0, 58, 0
2, 261262, Note_on_c, 0, 75, 0
2, 261264, Control_c, 0, 64, 0
2, 261404, Note_on_c, 0, 70, 98
2, 261406, Note_on_c, 0, 46, 99
2, 261408, Note_on_c, 0, 82, 100
2, 261410, Note_on_c, 0, 34, 101
2, 261448, Note_on_c, 0, 34, 0
2, 261480, Note_on_c, 0, 46, 0
2, 261508, Control_c, 0, 64, 127
2, 261538, Note_on_c, 0, 82, 0
2, 261572, Note_on_c, 0, 70, 0
2, 261672, Note_on_c, 0, 68, 93
2, 261676, Note_on_c, 0, 74, 88
2, 261680, Note_on_c, 0, 58, 63
2, 261694, Note_on_c, 0, 65, 64
2, 261744, Note_on_c, 0, 65, 0
2, 261758, Note_on_c, 0, 68, 0
2, 261758, Note_on_c, 0, 75, 80
2, 261796, Note_on_c, 0, 58, 0
2, 261804, Note_on_c, 0, 74, 0
2, 261882, Note_on_c, 0, 74, 79
2, 261885, Note_on_c, 0, 77, 96
2, 261892, Note_on_c, 0, 68, 71
2, 261912, Note_on_c, 0, 65, 69
2, 261912, Note_on_c, 0, 58, 50
2, 261930, Note_on_c, 0, 68, 0
2, 261948, Note_on_c, 0, 65, 0
2, 261956, Note_on_c, 0, 75, 0
2, 261990, Note_on_c, 0, 74, 0
2, 261990, Note_on_c, 0, 58, 0
2, 262016, Note_on_c, 0, 77, 0
2, 262032, Control_c, 0, 64, 0
2, 262142, Note_on_c, 0, 70, 101
2, 262142, Note_on_c, 0, 82, 102
2, 262145, Note_on_c, 0, 51, 104
2, 262148, Note_on_c, 0, 39, 96
2, 262182, Note_on_c, 0, 39, 0
2, 262244, Note_on_c, 0, 51, 0
2, 262272, Note_on_c, 0, 70, 0
2, 262275, Control_c, 0, 64, 127
2, 262312, Note_on_c, 0, 82, 0
2, 262412, Note_on_c, 0, 67, 89
2, 262414, Note_on_c, 0, 58, 66
2, 262418, Note_on_c, 0, 75, 90
2, 262422, Note_on_c, 0, 63, 73
2, 262478, Note_on_c, 0, 67, 0
2, 262482, Note_on_c, 0, 58, 0
2, 262488, Note_on_c, 0, 63, 0
2, 262508, Note_on_c, 0, 77, 83
2, 262560, Note_on_c, 0, 75, 0
2, 262634, Note_on_c, 0, 79, 107
2, 262636, Note_on_c, 0, 75, 73
2, 262638, Note_on_c, 0, 67, 92
2, 262646, Note_on_c, 0, 63, 83
2, 262646, Note_on_c, 0, 58, 71
2, 262672, Note_on_c, 0, 67, 0
2, 262684, Note_on_c, 0, 63, 0
2, 262696, Note_on_c, 0, 77, 0
2, 262706, Note_on_c, 0, 58, 0
2, 262762, Note_on_c, 0, 75, 0
2, 262784, Control_c, 0, 64, 0
2, 262796, Note_on_c, 0, 79, 0
2, 262892, Note_on_c, 0, 70, 99
2, 262892, Note_on_c, 0, 82, 100
2, 262904, Note_on_c, 0, 46, 96
2, 262904, Note_on_c, 0, 58, 90
2, 262942, Note_on_c, 0, 46, 0
2, 262954, Note_on_c, 0, 58, 0
2, 263030, Control_c, 0, 64, 127
2, 263034, Note_on_c, 0, 70, 0
2, 263094, Note_on_c, 0, 82, 0
2, 263186, Note_on_c, 0, 68, 81
2, 263194, Note_on_c, 0, 58, 55
2, 263196, Note_on_c, 0, 77, 89
2, 263212, Note_on_c, 0, 62, 49
2, 263260, Note_on_c, 0, 68, 0
2, 263263, Note_on_c, 0, 58, 0
2, 263272, Note_on_c, 0, 62, 0
2, 263294, Note_on_c, 0, 79, 91
2, 263346, Note_on_c, 0, 77, 0
2, 263404, Note_on_c, 0, 79, 0
2, 263428, Note_on_c, 0, 68, 83
2, 263436, Note_on_c, 0, 62, 65
2, 263439, Note_on_c, 0, 77, 75
2, 263439, Note_on_c, 0, 58, 58
2, 263442, Note_on_c, 0, 80, 99
2, 263470, Note_on_c, 0, 68, 0
2, 263480, Note_on_c, 0, 62, 0
2, 263506, Note_on_c, 0, 58, 0
2, 263570, Note_on_c, 0, 77, 0
2, 263598, Control_c, 0, 64, 0
2, 263626, Note_on_c, 0, 51, 90
2, 263644, Note_on_c, 0, 80, 0
2, 263708, Note_on_c, 0, 58, 63
2, 263808, Note_on_c, 0, 61, 76
2, 263850, Note_on_c, 0, 51, 0
2, 263890, Control_c, 0, 64, 127
2, 263902, Note_on_c, 0, 58, 0
2, 263902, Note_on_c, 0, 82, 100
2, 263905, Note_on_c, 0, 73, 90
2, 263908, Note_on_c, 0, 79, 101
2, 263910, Note_on_c, 0, 67, 99
2, 263950, Note_on_c, 0, 67, 0
2, 263956, Note_on_c, 0, 61, 0
2, 264132, Note_on_c, 0, 73, 0
2, 264188, Note_on_c, 0, 79, 0
2, 264340, Note_on_c, 0, 82, 0
2, 264766, Control_c, 0, 64, 0
2, 265840, Note_on_c, 0, 82, 67
2, 265842, Note_on_c, 0, 73, 60
2, 265858, Note_on_c, 0, 79, 60
2, 265864, Note_on_c, 0, 52, 41
2, 265902, Note_on_c, 0, 73, 0
2, 265908, Note_on_c, 0, 79, 0
2, 265942, Note_on_c, 0, 52, 0
2, 265948, Note_on_c, 0, 82, 0
2, 266000, Note_on_c, 0, 82, 87
2, 266002, Note_on_c, 0, 73, 62
2, 266004, Note_on_c, 0, 79, 55
2, 266064, Note_on_c, 0, 79, 0
2, 266076, Note_on_c, 0, 73, 0
2, 266124, Note_on_c, 0, 82, 0
2, 266186, Note_on_c, 0, 82, 73
2, 266204, Note_on_c, 0, 73, 70
2, 266210, Note_on_c, 0, 79, 74
2, 266228, Note_on_c, 0, 53, 72
2, 266288, Note_on_c, 0, 53, 0
2, 266380, Control_c, 0, 64, 127
2, 266498, Note_on_c, 0, 79, 0
2, 266550, Note_on_c, 0, 84, 86
2, 266558, Note_on_c, 0, 82, 0
2, 266566, Note_on_c, 0, 65, 41
2, 266584, Note_on_c, 0, 56, 36
2, 266616, Note_on_c, 0, 65, 0
2, 266644, Note_on_c, 0, 56, 0
2, 266692, Note_on_c, 0, 82, 73
2, 266706, Note_on_c, 0, 84, 0
2, 266750, Note_on_c, 0, 73, 0
2, 266832, Note_on_c, 0, 82, 0
2, 266834, Note_on_c, 0, 80, 73
2, 266836, Note_on_c, 0, 44, 54
2, 266846, Note_on_c, 0, 72, 61
2, 266904, Note_on_c, 0, 44, 0
2, 266944, Note_on_c, 0, 72, 0
2, 266956, Note_on_c, 0, 80, 0
2, 267024, Control_c, 0, 64, 0
2, 267140, Note_on_c, 0, 46, 41
2, 267148, Note_on_c, 0, 80, 72
2, 267152, Note_on_c, 0, 71, 65
2, 267198, Note_on_c, 0, 46, 0
2, 267270, Control_c, 0, 64, 127
2, 267448, Note_on_c, 0, 80, 0
2, 267500, Note_on_c, 0, 63, 43
2, 267503, Note_on_c, 0, 82, 51
2, 267542, Note_on_c, 0, 71, 0
2, 267550, Note_on_c, 0, 55, 11
2, 267566, Note_on_c, 0, 63, 0
2, 267618, Note_on_c, 0, 55, 0
2, 267628, Note_on_c, 0, 80, 45
2, 267664, Note_on_c, 0, 82, 0
2, 267784, Note_on_c, 0, 80, 0
2, 267808, Note_on_c, 0, 63, 42
2, 267816, Note_on_c, 0, 79, 61
2, 267828, Note_on_c, 0, 70, 30
2, 267838, Note_on_c, 0, 55, 24
2, 267886, Note_on_c, 0, 63, 0
2, 267908, Note_on_c, 0, 55, 0
2, 267946, Note_on_c, 0, 70, 0
2, 267949, Note_on_c, 0, 79, 0
2, 268084, Control_c, 0, 64, 0
2, 268152, Note_on_c, 0, 46, 35
2, 268174, Note_on_c, 0, 79, 63
2, 268188, Note_on_c, 0, 70, 29
2, 268310, Note_on_c, 0, 46, 0
2, 268362, Control_c, 0, 64, 127
2, 268442, Note_on_c, 0, 79, 0
2, 268646, Note_on_c, 0, 62, 23
2, 268646, Note_on_c, 0, 80, 38
2, 268648, Note_on_c, 0, 53, 28
2, 268652, Note_on_c, 0, 58, 15
2, 268726, Note_on_c, 0, 53, 0
2, 268756, Note_on_c, 0, 62, 0
2, 268766, Note_on_c, 0, 58, 0
2, 268856, Note_on_c, 0, 80, 0
2, 268882, Note_on_c, 0, 79, 39
2, 268946, Note_on_c, 0, 70, 0
2, 268998, Note_on_c, 0, 79, 0
2, 269176, Control_c, 0, 64, 0
2, 269236, Note_on_c, 0, 77, 25
2, 269244, Note_on_c, 0, 53, 32
2, 269245, Note_on_c, 0, 68, 18
2, 269250, Note_on_c, 0, 58, 6
2, 269250, Note_on_c, 0, 62, 19
2, 269352, Note_on_c, 0, 53, 0
2, 269358, Note_on_c, 0, 62, 0
2, 269454, Note_on_c, 0, 58, 0
2, 269466, Control_c, 0, 64, 127
2, 269501, Note_on_c, 0, 68, 0
2, 269508, Note_on_c, 0, 77, 0
2, 270358, Control_c, 0, 64, 0
2, 271102, Note_on_c, 0, 39, 33
2, 271220, Control_c, 0, 64, 127
2, 271226, Note_on_c, 0, 39, 0
2, 271388, Note_on_c, 0, 46, 38
2, 271390, Note_on_c, 0, 55, 28
2, 271456, Note_on_c, 0, 46, 0
2, 271466, Note_on_c, 0, 55, 0
2, 271650, Note_on_c, 0, 46, 31
2, 271658, Note_on_c, 0, 55, 26
2, 271720, Note_on_c, 0, 46, 0
2, 271726, Note_on_c, 0, 55, 0
2, 271868, Note_on_c, 0, 39, 47
2, 271940, Note_on_c, 0, 39, 0
2, 272106, Note_on_c, 0, 55, 39
2, 272108, Note_on_c, 0, 46, 37
2, 272174, Note_on_c, 0, 55, 0
2, 272176, Note_on_c, 0, 46, 0
2, 272344, Note_on_c, 0, 55, 40
2, 272358, Note_on_c, 0, 46, 36
2, 272406, Note_on_c, 0, 55, 0
2, 272420, Note_on_c, 0, 46, 0
2, 272566, Note_on_c, 0, 39, 51
2, 272628, Note_on_c, 0, 39, 0
2, 272800, Note_on_c, 0, 46, 41
2, 272810, Note_on_c, 0, 55, 44
2, 272874, Note_on_c, 0, 46, 0
2, 272877, Note_on_c, 0, 55, 0
2, 273038, Note_on_c, 0, 55, 49
2, 273058, Note_on_c, 0, 46, 37
2, 273092, Note_on_c, 0, 55, 0
2, 273130, Note_on_c, 0, 46, 0
2, 273270, Note_on_c, 0, 39, 49
2, 273326, Note_on_c, 0, 39, 0
2, 273494, Note_on_c, 0, 46, 36
2, 273504, Note_on_c, 0, 55, 41
2, 273566, Note_on_c, 0, 55, 0
2, 273570, Note_on_c, 0, 46, 0
2, 273732, Note_on_c, 0, 55, 42
2, 273752, Note_on_c, 0, 46, 39
2, 273796, Note_on_c, 0, 55, 0
2, 273814, Note_on_c, 0, 46, 0
2, 273950, Note_on_c, 0, 39, 52
2, 273952, Note_on_c, 0, 63, 69
2, 273994, Note_on_c, 0, 63, 0
2, 274006, Note_on_c, 0, 39, 0
2, 274056, Note_on_c, 0, 63, 68
2, 274098, Note_on_c, 0, 63, 0
2, 274154, Note_on_c, 0, 63, 81
2, 274166, Note_on_c, 0, 46, 47
2, 274192, Note_on_c, 0, 55, 30
2, 274196, Note_on_c, 0, 63, 0
2, 274226, Note_on_c, 0, 46, 0
2, 274262, Note_on_c, 0, 55, 0
2, 274262, Note_on_c, 0, 63, 79
2, 274304, Note_on_c, 0, 63, 0
2, 274364, Note_on_c, 0, 63, 92
2, 274392, Note_on_c, 0, 55, 32
2, 274416, Note_on_c, 0, 46, 40
2, 274462, Note_on_c, 0, 55, 0
2, 274518, Note_on_c, 0, 46, 0
2, 274610, Note_on_c, 0, 63, 0
2, 274630, Control_c, 0, 64, 0
2, 274636, Note_on_c, 0, 39, 49
2, 274656, Note_on_c, 0, 55, 94
2, 274762, Note_on_c, 0, 55, 0
2, 274772, Note_on_c, 0, 58, 75
2, 274796, Note_on_c, 0, 39, 0
2, 274846, Control_c, 0, 64, 127
2, 274886, Note_on_c, 0, 63, 80
2, 274890, Note_on_c, 0, 58, 0
2, 274900, Note_on_c, 0, 46, 53
2, 274926, Note_on_c, 0, 55, 42
2, 274952, Note_on_c, 0, 63, 0
2, 274980, Note_on_c, 0, 46, 0
2, 274986, Note_on_c, 0, 55, 0
2, 275000, Note_on_c, 0, 67, 78
2, 275084, Note_on_c, 0, 67, 0
2, 275106, Note_on_c, 0, 72, 94
2, 275114, Note_on_c, 0, 55, 55
2, 275142, Note_on_c, 0, 46, 43
2, 275176, Note_on_c, 0, 55, 0
2, 275258, Note_on_c, 0, 72, 0
2, 275276, Note_on_c, 0, 46, 0
2, 275292, Control_c, 0, 64, 0
2, 275326, Note_on_c, 0, 72, 75
2, 275350, Note_on_c, 0, 39, 68
2, 275358, Note_on_c, 0, 71, 97
2, 275392, Note_on_c, 0, 39, 0
2, 275456, Note_on_c, 0, 71, 0
2, 275464, Note_on_c, 0, 72, 0
2, 275474, Control_c, 0, 64, 127
2, 275564, Note_on_c, 0, 71, 67
2, 275604, Note_on_c, 0, 55, 29
2, 275606, Note_on_c, 0, 70, 66
2, 275606, Note_on_c, 0, 51, 44
2, 275608, Note_on_c, 0, 61, 44
2, 275670, Note_on_c, 0, 55, 0
2, 275670, Note_on_c, 0, 51, 0
2, 275676, Note_on_c, 0, 61, 0
2, 275684, Note_on_c, 0, 71, 0
2, 275722, Note_on_c, 0, 70, 0
2, 275782, Note_on_c, 0, 70, 64
2, 275802, Note_on_c, 0, 69, 73
2, 275836, Note_on_c, 0, 51, 39
2, 275836, Note_on_c, 0, 61, 43
2, 275840, Note_on_c, 0, 55, 26
2, 275874, Note_on_c, 0, 69, 0
2, 275902, Note_on_c, 0, 61, 0
2, 275904, Note_on_c, 0, 70, 0
2, 275904, Note_on_c, 0, 55, 0
2, 275910, Note_on_c, 0, 51, 0
2, 275994, Note_on_c, 0, 69, 74
2, 276026, Note_on_c, 0, 68, 68
2, 276029, Note_on_c, 0, 61, 45
2, 276036, Note_on_c, 0, 51, 36
2, 276046, Note_on_c, 0, 55, 26
2, 276088, Note_on_c, 0, 69, 0
2, 276096, Note_on_c, 0, 61, 0
2, 276106, Note_on_c, 0, 51, 0
2, 276110, Note_on_c, 0, 55, 0
2, 276112, Note_on_c, 0, 68, 0
2, 276174, Note_on_c, 0, 68, 73
2, 276226, Note_on_c, 0, 61, 55
2, 276234, Note_on_c, 0, 67, 56
2, 276246, Note_on_c, 0, 55, 27
2, 276250, Note_on_c, 0, 51, 27
2, 276292, Note_on_c, 0, 67, 0
2, 276295, Note_on_c, 0, 61, 0
2, 276302, Note_on_c, 0, 68, 0
2, 276312, Note_on_c, 0, 55, 0
2, 276322, Note_on_c, 0, 51, 0
2, 276370, Note_on_c, 0, 67, 50
2, 276420, Note_on_c, 0, 65, 82
2, 276436, Note_on_c, 0, 61, 60
2, 276452, Note_on_c, 0, 55, 22
2, 276452, Note_on_c, 0, 51, 34
2, 276482, Note_on_c, 0, 61, 0
2, 276492, Note_on_c, 0, 65, 0
2, 276502, Note_on_c, 0, 67, 0
2, 276514, Note_on_c, 0, 51, 0
2, 276518, Note_on_c, 0, 55, 0
2, 276596, Control_c, 0, 64, 0
2, 276666, Note_on_c, 0, 39, 72
2, 276672, Note_on_c, 0, 63, 90
2, 276710, Note_on_c, 0, 39, 0
2, 276762, Note_on_c, 0, 63, 0
2, 276796, Control_c, 0, 64, 127
2, 276800, Note_on_c, 0, 63, 56
2, 276838, Note_on_c, 0, 63, 0
2, 276898, Note_on_c, 0, 63, 83
2, 276906, Note_on_c, 0, 60, 56
2, 276912, Note_on_c, 0, 51, 47
2, 276930, Note_on_c, 0, 56, 31
2, 276962, Note_on_c, 0, 60, 0
2, 276970, Note_on_c, 0, 63, 0
2, 276974, Note_on_c, 0, 51, 0
2, 276994, Note_on_c, 0, 56, 0
2, 277012, Note_on_c, 0, 63, 81
2, 277048, Note_on_c, 0, 63, 0
2, 277106, Note_on_c, 0, 63, 93
2, 277146, Note_on_c, 0, 56, 60
2, 277146, Note_on_c, 0, 60, 61
2, 277162, Note_on_c, 0, 51, 54
2, 277194, Note_on_c, 0, 60, 0
2, 277212, Note_on_c, 0, 56, 0
2, 277250, Note_on_c, 0, 51, 0
2, 277300, Note_on_c, 0, 63, 0
2, 277350, Control_c, 0, 64, 0
2, 277394, Note_on_c, 0, 60, 94
2, 277394, Note_on_c, 0, 39, 77
2, 277442, Note_on_c, 0, 39, 0
2, 277510, Note_on_c, 0, 63, 96
2, 277534, Note_on_c, 0, 60, 0
2, 277534, Control_c, 0, 64, 127
2, 277610, Note_on_c, 0, 60, 58
2, 277624, Note_on_c, 0, 63, 0
2, 277627, Note_on_c, 0, 51, 55
2, 277627, Note_on_c, 0, 68, 75
2, 277648, Note_on_c, 0, 56, 40
2, 277666, Note_on_c, 0, 68, 0
2, 277708, Note_on_c, 0, 56, 0
2, 277714, Note_on_c, 0, 60, 0
2, 277714, Note_on_c, 0, 51, 0
2, 277728, Note_on_c, 0, 72, 91
2, 277832, Note_on_c, 0, 72, 0
2, 277834, Note_on_c, 0, 77, 103
2, 277850, Note_on_c, 0, 60, 75
2, 277858, Note_on_c, 0, 51, 65
2, 277858, Note_on_c, 0, 56, 57
2, 277918, Note_on_c, 0, 60, 0
2, 277940, Note_on_c, 0, 56, 0
2, 277972, Note_on_c, 0, 77, 0
2, 277994, Note_on_c, 0, 51, 0
2, 278056, Control_c, 0, 64, 0
2, 278078, Note_on_c, 0, 79, 106
2, 278106, Note_on_c, 0, 77, 105
2, 278110, Note_on_c, 0, 39, 78
2, 278148, Note_on_c, 0, 39, 0
2, 278226, Control_c, 0, 64, 127
2, 278229, Note_on_c, 0, 79, 0
2, 278248, Note_on_c, 0, 77, 0
2, 278334, Note_on_c, 0, 77, 63
2, 278337, Note_on_c, 0, 76, 90
2, 278354, Note_on_c, 0, 60, 62
2, 278354, Note_on_c, 0, 51, 60
2, 278378, Note_on_c, 0, 56, 41
2, 278414, Note_on_c, 0, 60, 0
2, 278414, Note_on_c, 0, 51, 0
2, 278436, Note_on_c, 0, 76, 0
2, 278436, Note_on_c, 0, 56, 0
2, 278448, Note_on_c, 0, 77, 0
2, 278534, Note_on_c, 0, 76, 70
2, 278556, Note_on_c, 0, 75, 82
2, 278578, Note_on_c, 0, 60, 57
2, 278588, Note_on_c, 0, 51, 52
2, 278598, Note_on_c, 0, 56, 41
2, 278632, Note_on_c, 0, 76, 0
2, 278638, Note_on_c, 0, 60, 0
2, 278646, Note_on_c, 0, 51, 0
2, 278658, Note_on_c, 0, 56, 0
2, 278674, Note_on_c, 0, 75, 0
2, 278730, Note_on_c, 0, 75, 84
2, 278748, Note_on_c, 0, 74, 98
2, 278792, Note_on_c, 0, 60, 59
2, 278806, Note_on_c, 0, 51, 49
2, 278822, Note_on_c, 0, 56, 31
2, 278844, Note_on_c, 0, 74, 0
2, 278847, Note_on_c, 0, 60, 0
2, 278860, Note_on_c, 0, 51, 0
2, 278888, Note_on_c, 0, 75, 0
2, 278888, Note_on_c, 0, 56, 0
2, 278940, Note_on_c, 0, 74, 91
2, 278962, Note_on_c, 0, 73, 85
2, 278988, Note_on_c, 0, 60, 56
2, 278990, Note_on_c, 0, 56, 32
2, 278990, Note_on_c, 0, 51, 54
2, 279048, Note_on_c, 0, 51, 0
2, 279052, Note_on_c, 0, 60, 0
2, 279056, Note_on_c, 0, 56, 0
2, 279058, Note_on_c, 0, 74, 0
2, 279092, Note_on_c, 0, 73, 0
2, 279146, Note_on_c, 0, 73, 83
2, 279184, Note_on_c, 0, 72, 87
2, 279186, Note_on_c, 0, 60, 59
2, 279194, Note_on_c, 0, 51, 74
2, 279198, Note_on_c, 0, 56, 52
2, 279238, Note_on_c, 0, 60, 0
2, 279244, Note_on_c, 0, 51, 0
2, 279246, Note_on_c, 0, 56, 0
2, 279286, Note_on_c, 0, 73, 0
2, 279288, Note_on_c, 0, 72, 0
2, 279316, Control_c, 0, 64, 0
2, 279388, Note_on_c, 0, 39, 83
2, 279424, Note_on_c, 0, 39, 0
2, 279428, Note_on_c, 0, 71, 101
2, 279516, Control_c, 0, 64, 127
2, 279522, Note_on_c, 0, 71, 0
2, 279545, Note_on_c, 0, 71, 101
2, 279614, Note_on_c, 0, 71, 0
2, 279614, Note_on_c, 0, 62, 72
2, 279616, Note_on_c, 0, 56, 50
2, 279622, Note_on_c, 0, 51, 55
2, 279626, Note_on_c, 0, 59, 45
2, 279646, Note_on_c, 0, 71, 50
2, 279670, Note_on_c, 0, 62, 0
2, 279682, Note_on_c, 0, 56, 0
2, 279690, Note_on_c, 0, 59, 0
2, 279702, Note_on_c, 0, 71, 0
2, 279724, Note_on_c, 0, 51, 0
2, 279754, Note_on_c, 0, 71, 101
2, 279796, Note_on_c, 0, 71, 0
2, 279848, Note_on_c, 0, 59, 45
2, 279852, Note_on_c, 0, 56, 53
2, 279854, Note_on_c, 0, 51, 55
2, 279855, Note_on_c, 0, 62, 56
2, 279864, Note_on_c, 0, 71, 85
2, 279898, Note_on_c, 0, 59, 0
2, 279904, Note_on_c, 0, 62, 0
2, 279906, Note_on_c, 0, 56, 0
2, 279918, Note_on_c, 0, 51, 0
2, 279932, Note_on_c, 0, 71, 0
2, 279966, Note_on_c, 0, 71, 61
2, 280014, Note_on_c, 0, 71, 0
2, 280068, Note_on_c, 0, 39, 79
2, 280071, Note_on_c, 0, 68, 89
2, 280104, Note_on_c, 0, 39, 0
2, 280164, Note_on_c, 0, 68, 0
2, 280170, Note_on_c, 0, 71, 100
2, 280280, Note_on_c, 0, 62, 70
2, 280280, Note_on_c, 0, 74, 100
2, 280280, Note_on_c, 0, 51, 66
2, 280298, Note_on_c, 0, 56, 52
2, 280298, Note_on_c, 0, 59, 39
2, 280330, Note_on_c, 0, 71, 0
2, 280344, Note_on_c, 0, 62, 0
2, 280364, Note_on_c, 0, 56, 0
2, 280364, Note_on_c, 0, 59, 0
2, 280386, Note_on_c, 0, 51, 0
2, 280386, Note_on_c, 0, 77, 95
2, 280424, Note_on_c, 0, 74, 0
2, 280490, Note_on_c, 0, 83, 124
2, 280496, Note_on_c, 0, 62, 86
2, 280502, Note_on_c, 0, 56, 67
2, 280502, Note_on_c, 0, 59, 52
2, 280512, Note_on_c, 0, 51, 60
2, 280532, Note_on_c, 0, 62, 0
2, 280546, Note_on_c, 0, 77, 0
2, 280546, Note_on_c, 0, 59, 0
2, 280562, Note_on_c, 0, 56, 0
2, 280574, Note_on_c, 0, 83, 0
2, 280622, Note_on_c, 0, 51, 0
2, 280760, Control_c, 0, 64, 0
2, 280780, Note_on_c, 0, 83, 123
2, 280812, Note_on_c, 0, 82, 94
2, 280815, Note_on_c, 0, 39, 90
2, 280900, Note_on_c, 0, 39, 0
2, 280924, Note_on_c, 0, 83, 0
2, 280930, Control_c, 0, 64, 127
2, 280982, Note_on_c, 0, 82, 0
2, 281040, Note_on_c, 0, 82, 84
2, 281064, Note_on_c, 0, 81, 91
2, 281078, Note_on_c, 0, 62, 72
2, 281090, Note_on_c, 0, 51, 55
2, 281104, Note_on_c, 0, 56, 44
2, 281106, Note_on_c, 0, 59, 46
2, 281152, Note_on_c, 0, 62, 0
2, 281162, Note_on_c, 0, 56, 0
2, 281170, Note_on_c, 0, 81, 0
2, 281180, Note_on_c, 0, 59, 0
2, 281196, Note_on_c, 0, 82, 0
2, 281200, Note_on_c, 0, 51, 0
2, 281268, Note_on_c, 0, 81, 87
2, 281304, Note_on_c, 0, 80, 83
2, 281310, Note_on_c, 0, 59, 52
2, 281310, Note_on_c, 0, 62, 58
2, 281312, Note_on_c, 0, 56, 43
2, 281318, Note_on_c, 0, 51, 39
2, 281366, Note_on_c, 0, 62, 0
2, 281378, Note_on_c, 0, 56, 0
2, 281384, Note_on_c, 0, 81, 0
2, 281388, Note_on_c, 0, 59, 0
2, 281390, Note_on_c, 0, 51, 0
2, 281422, Note_on_c, 0, 80, 0
2, 281476, Note_on_c, 0, 80, 88
2, 281494, Note_on_c, 0, 79, 101
2, 281514, Note_on_c, 0, 62, 74
2, 281526, Note_on_c, 0, 51, 57
2, 281528, Note_on_c, 0, 56, 49
2, 281534, Note_on_c, 0, 59, 55
2, 281572, Note_on_c, 0, 62, 0
2, 281588, Note_on_c, 0, 56, 0
2, 281590, Note_on_c, 0, 59, 0
2, 281596, Note_on_c, 0, 51, 0
2, 281606, Note_on_c, 0, 79, 0
2, 281632, Note_on_c, 0, 80, 0
2, 281684, Note_on_c, 0, 79, 97
2, 281718, Note_on_c, 0, 78, 89
2, 281722, Note_on_c, 0, 62, 77
2, 281736, Note_on_c, 0, 56, 57
2, 281740, Note_on_c, 0, 51, 61
2, 281752, Note_on_c, 0, 59, 55
2, 281778, Note_on_c, 0, 62, 0
2, 281804, Note_on_c, 0, 51, 0
2, 281807, Note_on_c, 0, 79, 0
2, 281807, Note_on_c, 0, 56, 0
2, 281807, Note_on_c, 0, 59, 0
2, 281846, Note_on_c, 0, 78, 0
2, 281920, Note_on_c, 0, 77, 98
2, 281923, Note_on_c, 0, 78, 76
2, 281938, Note_on_c, 0, 62, 76
2, 281948, Note_on_c, 0, 56, 55
2, 281950, Note_on_c, 0, 51, 65
2, 281954, Note_on_c, 0, 59, 60
2, 281998, Note_on_c, 0, 77, 0
2, 282001, Note_on_c, 0, 62, 0
2, 282014, Note_on_c, 0, 59, 0
2, 282024, Note_on_c, 0, 56, 0
2, 282028, Note_on_c, 0, 78, 0
2, 282054, Note_on_c, 0, 51, 0
2, 282094, Note_on_c, 0, 77, 69
2, 282170, Note_on_c, 0, 77, 0
2, 282206, Note_on_c, 0, 62, 86
2, 282206, Note_on_c, 0, 51, 72
2, 282214, Note_on_c, 0, 91, 69
2, 282216, Note_on_c, 0, 56, 61
2, 282220, Note_on_c, 0, 59, 70
2, 282264, Note_on_c, 0, 91, 0
2, 282318, Note_on_c, 0, 62, 0
2, 282326, Note_on_c, 0, 56, 0
2, 282342, Note_on_c, 0, 59, 0
2, 282354, Note_on_c, 0, 51, 0
2, 282418, Note_on_c, 0, 91, 106
2, 282442, Note_on_c, 0, 51, 58
2, 282446, Note_on_c, 0, 89, 97
2, 282454, Note_on_c, 0, 62, 73
2, 282462, Note_on_c, 0, 56, 55
2, 282464, Note_on_c, 0, 59, 44
2, 282525, Note_on_c, 0, 62, 0
2, 282536, Note_on_c, 0, 56, 0
2, 282548, Note_on_c, 0, 91, 0
2, 282560, Note_on_c, 0, 59, 0
2, 282580, Note_on_c, 0, 51, 0
2, 282583, Note_on_c, 0, 89, 0
2, 282644, Note_on_c, 0, 89, 94
2, 282652, Note_on_c, 0, 88, 103
2, 282664, Note_on_c, 0, 51, 60
2, 282670, Note_on_c, 0, 62, 73
2, 282674, Note_on_c, 0, 56, 59
2, 282674, Note_on_c, 0, 59, 53
2, 282746, Note_on_c, 0, 56, 0
2, 282756, Note_on_c, 0, 62, 0
2, 282770, Note_on_c, 0, 89, 0
2, 282782, Note_on_c, 0, 59, 0
2, 282785, Note_on_c, 0, 88, 0
2, 282794, Note_on_c, 0, 51, 0
2, 282850, Note_on_c, 0, 88, 89
2, 282888, Note_on_c, 0, 87, 89
2, 282888, Note_on_c, 0, 51, 54
2, 282891, Note_on_c, 0, 56, 59
2, 282896, Note_on_c, 0, 62, 73
2, 282898, Note_on_c, 0, 59, 47
2, 282962, Note_on_c, 0, 62, 0
2, 282974, Note_on_c, 0, 88, 0
2, 282978, Note_on_c, 0, 56, 0
2, 282980, Note_on_c, 0, 59, 0
2, 282992, Note_on_c, 0, 51, 0
2, 283028, Note_on_c, 0, 87, 0
2, 283074, Note_on_c, 0, 87, 96
2, 283100, Note_on_c, 0, 86, 95
2, 283108, Note_on_c, 0, 62, 75
2, 283122, Note_on_c, 0, 56, 53
2, 283122, Note_on_c, 0, 51, 54
2, 283134, Note_on_c, 0, 59, 55
2, 283168, Note_on_c, 0, 62, 0
2, 283184, Note_on_c, 0, 56, 0
2, 283190, Note_on_c, 0, 59, 0
2, 283204, Note_on_c, 0, 51, 0
2, 283218, Note_on_c, 0, 86, 0
2, 283221, Note_on_c, 0, 87, 0
2, 283292, Note_on_c, 0, 86, 94
2, 283322, Note_on_c, 0, 62, 80
2, 283332, Note_on_c, 0, 56, 53
2, 283335, Note_on_c, 0, 85, 89
2, 283335, Note_on_c, 0, 51, 62
2, 283346, Note_on_c, 0, 59, 67
2, 283404, Note_on_c, 0, 62, 0
2, 283406, Note_on_c, 0, 59, 0
2, 283418, Note_on_c, 0, 51, 0
2, 283420, Note_on_c, 0, 56, 0
2, 283430, Note_on_c, 0, 86, 0
2, 283462, Note_on_c, 0, 85, 0
2, 283480, Control_c, 0, 64, 0
2, 283516, Note_on_c, 0, 85, 97
2, 283536, Note_on_c, 0, 84, 105
2, 283546, Note_on_c, 0, 62, 91
2, 283554, Note_on_c, 0, 58, 61
2, 283556, Note_on_c, 0, 56, 67
2, 283560, Note_on_c, 0, 51, 74
2, 283656, Note_on_c, 0, 51, 0
2, 283664, Control_c, 0, 64, 127
2, 283666, Note_on_c, 0, 62, 0
2, 283680, Note_on_c, 0, 56, 0
2, 283684, Note_on_c, 0, 84, 0
2, 283692, Note_on_c, 0, 85, 0
2, 283698, Note_on_c, 0, 58, 0
2, 283752, Note_on_c, 0, 84, 97
2, 283766, Note_on_c, 0, 83, 119
2, 283776, Note_on_c, 0, 62, 79
2, 283779, Note_on_c, 0, 58, 40
2, 283788, Note_on_c, 0, 56, 50
2, 283794, Note_on_c, 0, 51, 65
2, 283856, Note_on_c, 0, 51, 0
2, 283874, Note_on_c, 0, 56, 0
2, 283890, Note_on_c, 0, 83, 0
2, 283890, Note_on_c, 0, 62, 0
2, 283900, Note_on_c, 0, 84, 0
2, 283908, Note_on_c, 0, 58, 0
2, 283960, Note_on_c, 0, 83, 113
2, 283982, Note_on_c, 0, 82, 92
2, 283994, Note_on_c, 0, 62, 75
2, 284002, Note_on_c, 0, 51, 72
2, 284004, Note_on_c, 0, 58, 39
2, 284014, Note_on_c, 0, 56, 62
2, 284068, Note_on_c, 0, 83, 0
2, 284076, Note_on_c, 0, 56, 0
2, 284084, Note_on_c, 0, 51, 0
2, 284092, Note_on_c, 0, 62, 0
2, 284108, Note_on_c, 0, 58, 0
2, 284140, Note_on_c, 0, 82, 0
2, 284182, Note_on_c, 0, 82, 98
2, 284198, Note_on_c, 0, 81, 105
2, 284206, Note_on_c, 0, 62, 85
2, 284214, Note_on_c, 0, 56, 65
2, 284217, Note_on_c, 0, 51, 76
2, 284220, Note_on_c, 0, 58, 46
2, 284298, Note_on_c, 0, 51, 0
2, 284316, Note_on_c, 0, 56, 0
2, 284316, Note_on_c, 0, 58, 0
2, 284319, Note_on_c, 0, 62, 0
2, 284334, Note_on_c, 0, 81, 0
2, 284344, Note_on_c, 0, 82, 0
2, 284392, Note_on_c, 0, 82, 95
2, 284424, Note_on_c, 0, 80, 90
2, 284427, Note_on_c, 0, 62, 86
2, 284438, Note_on_c, 0, 51, 75
2, 284444, Note_on_c, 0, 56, 59
2, 284446, Note_on_c, 0, 58, 54
2, 284464, Note_on_c, 0, 81, 43
2, 284492, Note_on_c, 0, 62, 0
2, 284506, Note_on_c, 0, 56, 0
2, 284510, Note_on_c, 0, 58, 0
2, 284514, Note_on_c, 0, 51, 0
2, 284514, Note_on_c, 0, 81, 0
2, 284522, Note_on_c, 0, 82, 0
2, 284576, Note_on_c, 0, 80, 0
2, 284624, Note_on_c, 0, 80, 100
2, 284642, Note_on_c, 0, 77, 97
2, 284648, Note_on_c, 0, 62, 91
2, 284648, Note_on_c, 0, 58, 66
2, 284648, Note_on_c, 0, 56, 70
2, 284658, Note_on_c, 0, 51, 72
2, 284688, Note_on_c, 0, 62, 0
2, 284722, Note_on_c, 0, 56, 0
2, 284732, Note_on_c, 0, 77, 0
2, 284752, Note_on_c, 0, 58, 0
2, 284784, Note_on_c, 0, 80, 0
2, 284792, Note_on_c, 0, 51, 0
2, 284848, Control_c, 0, 64, 0
2, 284912, Note_on_c, 0, 87, 103
2, 284914, Note_on_c, 0, 75, 107
2, 284920, Note_on_c, 0, 51, 106
2, 284922, Note_on_c, 0, 39, 99
2, 284952, Note_on_c, 0, 39, 0
2, 285000, Note_on_c, 0, 51, 0
2, 285018, Note_on_c, 0, 87, 0
2, 285042, Control_c, 0, 64, 127
2, 285080, Note_on_c, 0, 75, 0
2, 285200, Note_on_c, 0, 79, 92
2, 285204, Note_on_c, 0, 70, 86
2, 285218, Note_on_c, 0, 61, 60
2, 285232, Note_on_c, 0, 63, 58
2, 285236, Note_on_c, 0, 67, 56
2, 285272, Note_on_c, 0, 70, 0
2, 285284, Note_on_c, 0, 61, 0
2, 285286, Note_on_c, 0, 80, 87
2, 285292, Note_on_c, 0, 67, 0
2, 285300, Note_on_c, 0, 63, 0
2, 285340, Note_on_c, 0, 79, 0
2, 285408, Note_on_c, 0, 70, 81
2, 285408, Note_on_c, 0, 79, 91
2, 285411, Note_on_c, 0, 82, 92
2, 285426, Note_on_c, 0, 61, 73
2, 285430, Note_on_c, 0, 63, 67
2, 285434, Note_on_c, 0, 67, 52
2, 285444, Note_on_c, 0, 70, 0
2, 285474, Note_on_c, 0, 63, 0
2, 285488, Note_on_c, 0, 80, 0
2, 285494, Note_on_c, 0, 67, 0
2, 285504, Note_on_c, 0, 79, 0
2, 285520, Note_on_c, 0, 61, 0
2, 285574, Note_on_c, 0, 82, 0
2, 285574, Control_c, 0, 64, 0
2, 285650, Note_on_c, 0, 75, 106
2, 285650, Note_on_c, 0, 51, 103
2, 285650, Note_on_c, 0, 39, 100
2, 285652, Note_on_c, 0, 87, 98
2, 285678, Note_on_c, 0, 39, 0
2, 285706, Note_on_c, 0, 51, 0
2, 285738, Note_on_c, 0, 87, 0
2, 285740, Control_c, 0, 64, 127
2, 285788, Note_on_c, 0, 75, 0
2, 285898, Note_on_c, 0, 78, 86
2, 285901, Note_on_c, 0, 60, 73
2, 285901, Note_on_c, 0, 69, 83
2, 285918, Note_on_c, 0, 66, 48
2, 285921, Note_on_c, 0, 63, 54
2, 285948, Note_on_c, 0, 69, 0
2, 285976, Note_on_c, 0, 60, 0
2, 285982, Note_on_c, 0, 66, 0
2, 285986, Note_on_c, 0, 80, 85
2, 285992, Note_on_c, 0, 63, 0
2, 286022, Note_on_c, 0, 78, 0
2, 286096, Note_on_c, 0, 81, 98
2, 286104, Note_on_c, 0, 69, 73
2, 286104, Note_on_c, 0, 78, 80
2, 286107, Note_on_c, 0, 66, 69
2, 286110, Note_on_c, 0, 63, 75
2, 286112, Note_on_c, 0, 60, 74
2, 286144, Note_on_c, 0, 69, 0
2, 286150, Note_on_c, 0, 80, 0
2, 286152, Note_on_c, 0, 66, 0
2, 286156, Note_on_c, 0, 63, 0
2, 286160, Note_on_c, 0, 60, 0
2, 286182, Note_on_c, 0, 81, 0
2, 286212, Note_on_c, 0, 78, 0
2, 286232, Control_c, 0, 64, 0
2, 286330, Note_on_c, 0, 75, 104
2, 286330, Note_on_c, 0, 87, 97
2, 286342, Note_on_c, 0, 39, 99
2, 286346, Note_on_c, 0, 51, 103
2, 286372, Note_on_c, 0, 39, 0
2, 286402, Note_on_c, 0, 51, 0
2, 286416, Control_c, 0, 64, 127
2, 286438, Note_on_c, 0, 87, 0
2, 286468, Note_on_c, 0, 75, 0
2, 286611, Note_on_c, 0, 68, 101
2, 286630, Note_on_c, 0, 59, 76
2, 286630, Note_on_c, 0, 76, 37
2, 286634, Note_on_c, 0, 77, 50
2, 286636, Note_on_c, 0, 65, 61
2, 286662, Note_on_c, 0, 68, 0
2, 286670, Note_on_c, 0, 59, 0
2, 286682, Note_on_c, 0, 65, 0
2, 286690, Note_on_c, 0, 79, 89
2, 286692, Note_on_c, 0, 76, 0
2, 286710, Note_on_c, 0, 77, 0
2, 286812, Note_on_c, 0, 68, 85
2, 286815, Note_on_c, 0, 77, 77
2, 286815, Note_on_c, 0, 80, 95
2, 286819, Note_on_c, 0, 59, 69
2, 286832, Note_on_c, 0, 65, 51
2, 286832, Note_on_c, 0, 63, 69
2, 286852, Note_on_c, 0, 79, 0
2, 286854, Note_on_c, 0, 68, 0
2, 286872, Note_on_c, 0, 63, 0
2, 286875, Note_on_c, 0, 65, 0
2, 286918, Note_on_c, 0, 59, 0
2, 287046, Note_on_c, 0, 77, 0
2, 287046, Control_c, 0, 64, 0
2, 287108, Note_on_c, 0, 79, 94
2, 287108, Note_on_c, 0, 82, 94
2, 287108, Note_on_c, 0, 70, 90
2, 287111, Note_on_c, 0, 51, 91
2, 287118, Note_on_c, 0, 39, 95
2, 287148, Note_on_c, 0, 39, 0
2, 287172, Note_on_c, 0, 80, 0
2, 287182, Note_on_c, 0, 51, 0
2, 287244, Control_c, 0, 64, 127
2, 287394, Note_on_c, 0, 70, 0
2, 287400, Note_on_c, 0, 79, 0
2, 287408, Note_on_c, 0, 82, 0
2, 287412, Note_on_c, 0, 67, 87
2, 287420, Note_on_c, 0, 58, 59
2, 287420, Note_on_c, 0, 63, 76
2, 287436, Note_on_c, 0, 55, 53
2, 287458, Note_on_c, 0, 67, 0
2, 287480, Note_on_c, 0, 63, 0
2, 287490, Note_on_c, 0, 55, 0
2, 287544, Note_on_c, 0, 58, 0
2, 287658, Note_on_c, 0, 58, 54
2, 287661, Note_on_c, 0, 70, 91
2, 287666, Note_on_c, 0, 82, 79
2, 287668, Note_on_c, 0, 67, 58
2, 287668, Note_on_c, 0, 79, 92
2, 287676, Note_on_c, 0, 55, 71
2, 287676, Note_on_c, 0, 63, 46
2, 287696, Note_on_c, 0, 70, 0
2, 287706, Note_on_c, 0, 82, 0
2, 287706, Note_on_c, 0, 79, 0
2, 287709, Note_on_c, 0, 58, 0
2, 287722, Note_on_c, 0, 67, 0
2, 287722, Note_on_c, 0, 55, 0
2, 287730, Note_on_c, 0, 63, 0
2, 287778, Note_on_c, 0, 79, 79
2, 287781, Note_on_c, 0, 70, 61
2, 287781, Note_on_c, 0, 82, 58
2, 287844, Control_c, 0, 64, 0
2, 287872, Note_on_c, 0, 70, 0
2, 287880, Note_on_c, 0, 79, 0
2, 287880, Note_on_c, 0, 82, 0
2, 287934, Note_on_c, 0, 82, 90
2, 287934, Note_on_c, 0, 79, 98
2, 287940, Note_on_c, 0, 70, 89
2, 287944, Note_on_c, 0, 46, 96
2, 287946, Note_on_c, 0, 34, 94
2, 287980, Note_on_c, 0, 34, 0
2, 288028, Note_on_c, 0, 46, 0
2, 288060, Control_c, 0, 64, 127
2, 288132, Note_on_c, 0, 70, 0
2, 288156, Note_on_c, 0, 79, 0
2, 288228, Note_on_c, 0, 80, 79
2, 288234, Note_on_c, 0, 61, 29
2, 288234, Note_on_c, 0, 56, 68
2, 288240, Note_on_c, 0, 65, 68
2, 288250, Note_on_c, 0, 62, 67
2, 288288, Note_on_c, 0, 56, 0
2, 288288, Note_on_c, 0, 65, 0
2, 288302, Note_on_c, 0, 62, 0
2, 288308, Note_on_c, 0, 61, 0
2, 288314, Note_on_c, 0, 79, 74
2, 288336, Note_on_c, 0, 82, 0
2, 288422, Note_on_c, 0, 65, 83
2, 288426, Note_on_c, 0, 58, 55
2, 288430, Note_on_c, 0, 62, 73
2, 288430, Note_on_c, 0, 77, 87
2, 288433, Note_on_c, 0, 56, 64
2, 288436, Note_on_c, 0, 80, 0
2, 288456, Note_on_c, 0, 65, 0
2, 288459, Note_on_c, 0, 79, 0
2, 288466, Note_on_c, 0, 62, 0
2, 288476, Note_on_c, 0, 77, 0
2, 288486, Note_on_c, 0, 58, 0
2, 288522, Note_on_c, 0, 56, 0
2, 288582, Control_c, 0, 64, 0
2, 288654, Note_on_c, 0, 82, 90
2, 288654, Note_on_c, 0, 70, 84
2, 288656, Note_on_c, 0, 77, 89
2, 288672, Note_on_c, 0, 39, 97
2, 288674, Note_on_c, 0, 51, 97
2, 288700, Note_on_c, 0, 39, 0
2, 288724, Note_on_c, 0, 51, 0
2, 288810, Control_c, 0, 64, 127
2, 288846, Note_on_c, 0, 70, 0
2, 288868, Note_on_c, 0, 77, 0
2, 288886, Note_on_c, 0, 82, 0
2, 288898, Note_on_c, 0, 63, 88
2, 288904, Note_on_c, 0, 55, 75
2, 288906, Note_on_c, 0, 79, 87
2, 288956, Note_on_c, 0, 55, 0
2, 288962, Note_on_c, 0, 58, 16
2, 288968, Note_on_c, 0, 63, 0
2, 288978, Note_on_c, 0, 77, 59
2, 289042, Note_on_c, 0, 58, 0
2, 289060, Note_on_c, 0, 79, 0
2, 289100, Note_on_c, 0, 63, 84
2, 289102, Note_on_c, 0, 75, 90
2, 289104, Note_on_c, 0, 58, 52
2, 289104, Note_on_c, 0, 55, 77
2, 289140, Note_on_c, 0, 63, 0
2, 289150, Note_on_c, 0, 77, 0
2, 289158, Note_on_c, 0, 55, 0
2, 289160, Note_on_c, 0, 58, 0
2, 289192, Note_on_c, 0, 75, 0
2, 289258, Control_c, 0, 64, 0
2, 289326, Note_on_c, 0, 79, 111
2, 289328, Note_on_c, 0, 70, 96
2, 289342, Note_on_c, 0, 46, 83
2, 289346, Note_on_c, 0, 58, 73
2, 289396, Note_on_c, 0, 46, 0
2, 289404, Note_on_c, 0, 58, 0
2, 289442, Control_c, 0, 64, 127
2, 289450, Note_on_c, 0, 79, 0
2, 289482, Note_on_c, 0, 70, 0
2, 289576, Note_on_c, 0, 73, 13
2, 289592, Note_on_c, 0, 62, 72
2, 289595, Note_on_c, 0, 56, 46
2, 289610, Note_on_c, 0, 72, 84
2, 289618, Note_on_c, 0, 58, 28
2, 289644, Note_on_c, 0, 62, 0
2, 289654, Note_on_c, 0, 73, 0
2, 289686, Note_on_c, 0, 56, 0
2, 289692, Note_on_c, 0, 58, 0
2, 289706, Note_on_c, 0, 70, 78
2, 289728, Note_on_c, 0, 72, 0
2, 289766, Note_on_c, 0, 70, 0
2, 289820, Note_on_c, 0, 62, 79
2, 289834, Note_on_c, 0, 56, 48
2, 289834, Note_on_c, 0, 68, 96
2, 289834, Note_on_c, 0, 58, 51
2, 289837, Note_on_c, 0, 77, 103
2, 289846, Note_on_c, 0, 53, 66
2, 289858, Note_on_c, 0, 62, 0
2, 289886, Note_on_c, 0, 56, 0
2, 289886, Note_on_c, 0, 58, 0
2, 289894, Note_on_c, 0, 53, 0
2, 289924, Note_on_c, 0, 68, 0
2, 289970, Note_on_c, 0, 77, 0
2, 290026, Control_c, 0, 64, 0
2, 290080, Note_on_c, 0, 77, 92
2, 290084, Note_on_c, 0, 68, 90
2, 290100, Note_on_c, 0, 39, 86
2, 290104, Note_on_c, 0, 51, 81
2, 290134, Note_on_c, 0, 39, 0
2, 290148, Note_on_c, 0, 51, 0
2, 290226, Control_c, 0, 64, 127
2, 290232, Note_on_c, 0, 68, 0
2, 290362, Note_on_c, 0, 61, 69
2, 290362, Note_on_c, 0, 70, 82
2, 290372, Note_on_c, 0, 77, 0
2, 290376, Note_on_c, 0, 51, 57
2, 290378, Note_on_c, 0, 58, 46
2, 290460, Note_on_c, 0, 51, 0
2, 290466, Note_on_c, 0, 61, 0
2, 290472, Note_on_c, 0, 58, 0
2, 290474, Note_on_c, 0, 68, 83
2, 290548, Note_on_c, 0, 70, 0
2, 290604, Note_on_c, 0, 61, 74
2, 290610, Note_on_c, 0, 67, 94
2, 290612, Note_on_c, 0, 75, 94
2, 290614, Note_on_c, 0, 58, 52
2, 290622, Note_on_c, 0, 51, 58
2, 290638, Note_on_c, 0, 68, 0
2, 290684, Note_on_c, 0, 61, 0
2, 290684, Note_on_c, 0, 58, 0
2, 290716, Note_on_c, 0, 67, 0
2, 290726, Note_on_c, 0, 51, 0
2, 290742, Note_on_c, 0, 75, 0
2, 290794, Control_c, 0, 64, 0
2, 290872, Note_on_c, 0, 75, 100
2, 290876, Note_on_c, 0, 63, 107
2, 290878, Note_on_c, 0, 56, 84
2, 290882, Note_on_c, 0, 44, 95
2, 290940, Note_on_c, 0, 44, 0
2, 290948, Note_on_c, 0, 56, 0
2, 291008, Control_c, 0, 64, 127
2, 291036, Note_on_c, 0, 63, 0
2, 291156, Note_on_c, 0, 68, 79
2, 291162, Note_on_c, 0, 60, 61
2, 291168, Note_on_c, 0, 51, 49
2, 291198, Note_on_c, 0, 56, 28
2, 291224, Note_on_c, 0, 51, 0
2, 291226, Note_on_c, 0, 60, 0
2, 291238, Note_on_c, 0, 75, 0
2, 291254, Note_on_c, 0, 70, 71
2, 291264, Note_on_c, 0, 56, 0
2, 291288, Note_on_c, 0, 68, 0
2, 291348, Note_on_c, 0, 72, 94
2, 291348, Note_on_c, 0, 68, 67
2, 291374, Note_on_c, 0, 60, 73
2, 291384, Note_on_c, 0, 56, 40
2, 291388, Note_on_c, 0, 51, 42
2, 291418, Note_on_c, 0, 60, 0
2, 291424, Note_on_c, 0, 70, 0
2, 291428, Note_on_c, 0, 68, 0
2, 291434, Note_on_c, 0, 56, 0
2, 291446, Note_on_c, 0, 51, 0
2, 291494, Note_on_c, 0, 72, 0
2, 291516, Control_c, 0, 64, 0
2, 291588, Note_on_c, 0, 75, 101
2, 291594, Note_on_c, 0, 63, 98
2, 291600, Note_on_c, 0, 56, 75
2, 291602, Note_on_c, 0, 44, 89
2, 291646, Note_on_c, 0, 44, 0
2, 291664, Note_on_c, 0, 56, 0
2, 291694, Note_on_c, 0, 63, 0
2, 291716, Control_c, 0, 64, 127
2, 291756, Note_on_c, 0, 75, 0
2, 291838, Note_on_c, 0, 59, 70
2, 291840, Note_on_c, 0, 68, 77
2, 291844, Note_on_c, 0, 51, 57
2, 291862, Note_on_c, 0, 56, 43
2, 291896, Note_on_c, 0, 59, 0
2, 291922, Note_on_c, 0, 51, 0
2, 291922, Note_on_c, 0, 56, 0
2, 291932, Note_on_c, 0, 70, 72
2, 291954, Note_on_c, 0, 68, 0
2, 292042, Note_on_c, 0, 68, 60
2, 292044, Note_on_c, 0, 71, 99
2, 292046, Note_on_c, 0, 59, 75
2, 292060, Note_on_c, 0, 56, 65
2, 292064, Note_on_c, 0, 51, 61
2, 292086, Note_on_c, 0, 59, 0
2, 292102, Note_on_c, 0, 56, 0
2, 292112, Note_on_c, 0, 68, 0
2, 292120, Note_on_c, 0, 70, 0
2, 292124, Note_on_c, 0, 51, 0
2, 292188, Note_on_c, 0, 71, 0
2, 292208, Control_c, 0, 64, 0
2, 292290, Note_on_c, 0, 75, 100
2, 292296, Note_on_c, 0, 63, 103
2, 292300, Note_on_c, 0, 39, 89
2, 292360, Note_on_c, 0, 39, 0
2, 292422, Note_on_c, 0, 63, 0
2, 292422, Control_c, 0, 64, 127
2, 292456, Note_on_c, 0, 75, 0
2, 292546, Note_on_c, 0, 55, 61
2, 292546, Note_on_c, 0, 67, 59
2, 292549, Note_on_c, 0, 46, 48
2, 292572, Note_on_c, 0, 51, 40
2, 292608, Note_on_c, 0, 55, 0
2, 292626, Note_on_c, 0, 68, 70
2, 292636, Note_on_c, 0, 46, 0
2, 292636, Note_on_c, 0, 51, 0
2, 292642, Note_on_c, 0, 67, 0
2, 292766, Note_on_c, 0, 70, 79
2, 292784, Note_on_c, 0, 67, 71
2, 292792, Note_on_c, 0, 55, 67
2, 292795, Note_on_c, 0, 46, 55
2, 292808, Note_on_c, 0, 51, 36
2, 292828, Note_on_c, 0, 67, 0
2, 292838, Note_on_c, 0, 68, 0
2, 292838, Note_on_c, 0, 55, 0
2, 292856, Note_on_c, 0, 46, 0
2, 292866, Note_on_c, 0, 51, 0
2, 292896, Note_on_c, 0, 70, 0
2, 293038, Control_c, 0, 64, 0
2, 293046, Note_on_c, 0, 67, 83
2, 293048, Note_on_c, 0, 70, 83
2, 293050, Note_on_c, 0, 58, 78
2, 293082, Note_on_c, 0, 39, 66
2, 293226, Note_on_c, 0, 39, 0
2, 293238, Control_c, 0, 64, 127
2, 293376, Note_on_c, 0, 70, 0
2, 293380, Note_on_c, 0, 67, 0
2, 293380, Note_on_c, 0, 46, 36
2, 293380, Note_on_c, 0, 55, 52
2, 293392, Note_on_c, 0, 51, 44
2, 293434, Note_on_c, 0, 58, 0
2, 293450, Note_on_c, 0, 55, 0
2, 293470, Note_on_c, 0, 46, 0
2, 293470, Note_on_c, 0, 51, 0
2, 293592, Note_on_c, 0, 70, 73
2, 293594, Note_on_c, 0, 58, 76
2, 293600, Note_on_c, 0, 67, 72
2, 293624, Note_on_c, 0, 55, 55
2, 293636, Note_on_c, 0, 58, 0
2, 293639, Note_on_c, 0, 70, 0
2, 293639, Note_on_c, 0, 51, 41
2, 293644, Note_on_c, 0, 67, 0
2, 293644, Note_on_c, 0, 46, 37
2, 293674, Note_on_c, 0, 55, 0
2, 293696, Note_on_c, 0, 51, 0
2, 293706, Note_on_c, 0, 67, 68
2, 293710, Note_on_c, 0, 70, 54
2, 293712, Note_on_c, 0, 58, 38
2, 293734, Note_on_c, 0, 46, 0
2, 293760, Note_on_c, 0, 70, 0
2, 293766, Note_on_c, 0, 58, 0
2, 293796, Note_on_c, 0, 67, 0
2, 293798, Control_c, 0, 64, 0
2, 293834, Note_on_c, 0, 70, 61
2, 293844, Note_on_c, 0, 58, 60
2, 293850, Note_on_c, 0, 67, 97
2, 293864, Note_on_c, 0, 39, 76
2, 293930, Note_on_c, 0, 39, 0
2, 294006, Control_c, 0, 64, 127
2, 294048, Note_on_c, 0, 58, 0
2, 294082, Note_on_c, 0, 67, 0
2, 294106, Note_on_c, 0, 56, 49
2, 294128, Note_on_c, 0, 68, 70
2, 294142, Note_on_c, 0, 50, 39
2, 294145, Note_on_c, 0, 46, 25
2, 294188, Note_on_c, 0, 56, 0
2, 294218, Note_on_c, 0, 50, 0
2, 294221, Note_on_c, 0, 46, 0
2, 294232, Note_on_c, 0, 67, 73
2, 294250, Note_on_c, 0, 70, 0
2, 294314, Note_on_c, 0, 68, 0
2, 294332, Note_on_c, 0, 56, 65
2, 294344, Note_on_c, 0, 65, 76
2, 294358, Note_on_c, 0, 67, 0
2, 294372, Note_on_c, 0, 46, 33
2, 294372, Note_on_c, 0, 50, 36
2, 294390, Note_on_c, 0, 56, 0
2, 294393, Note_on_c, 0, 65, 0
2, 294434, Note_on_c, 0, 50, 0
2, 294444, Note_on_c, 0, 46, 0
2, 294528, Control_c, 0, 64, 0
2, 294574, Note_on_c, 0, 70, 82
2, 294574, Note_on_c, 0, 65, 67
2, 294577, Note_on_c, 0, 58, 69
2, 294598, Note_on_c, 0, 39, 69
2, 294664, Note_on_c, 0, 39, 0
2, 294742, Control_c, 0, 64, 127
2, 294816, Note_on_c, 0, 65, 0
2, 294816, Note_on_c, 0, 58, 0
2, 294834, Note_on_c, 0, 67, 73
2, 294840, Note_on_c, 0, 46, 48
2, 294844, Note_on_c, 0, 55, 52
2, 294854, Note_on_c, 0, 51, 46
2, 294904, Note_on_c, 0, 55, 0
2, 294918, Note_on_c, 0, 51, 0
2, 294924, Note_on_c, 0, 46, 0
2, 294942, Note_on_c, 0, 65, 53
2, 294978, Note_on_c, 0, 70, 0
2, 295010, Note_on_c, 0, 67, 0
2, 295060, Note_on_c, 0, 63, 87
2, 295060, Note_on_c, 0, 55, 63
2, 295070, Note_on_c, 0, 46, 46
2, 295080, Note_on_c, 0, 51, 46
2, 295106, Note_on_c, 0, 55, 0
2, 295126, Note_on_c, 0, 65, 0
2, 295136, Note_on_c, 0, 51, 0
2, 295156, Note_on_c, 0, 46, 0
2, 295202, Note_on_c, 0, 63, 0
2, 295236, Control_c, 0, 64, 0
2, 295286, Note_on_c, 0, 39, 73
2, 295298, Note_on_c, 0, 62, 90
2, 295300, Note_on_c, 0, 71, 96
2, 295396, Note_on_c, 0, 39, 0
2, 295398, Note_on_c, 0, 62, 0
2, 295398, Note_on_c, 0, 71, 0
2, 295410, Control_c, 0, 64, 127
2, 295450, Note_on_c, 0, 71, 92
2, 295538, Note_on_c, 0, 71, 0
2, 295570, Note_on_c, 0, 56, 51
2, 295586, Note_on_c, 0, 71, 97
2, 295590, Note_on_c, 0, 53, 72
2, 295596, Note_on_c, 0, 46, 29
2, 295638, Note_on_c, 0, 56, 0
2, 295646, Note_on_c, 0, 53, 0
2, 295657, Note_on_c, 0, 71, 0
2, 295670, Note_on_c, 0, 46, 0
2, 295705, Note_on_c, 0, 71, 97
2, 295776, Note_on_c, 0, 71, 0
2, 295822, Note_on_c, 0, 56, 60
2, 295828, Note_on_c, 0, 53, 76
2, 295832, Note_on_c, 0, 46, 42
2, 295846, Note_on_c, 0, 71, 81
2, 295876, Note_on_c, 0, 56, 0
2, 295876, Note_on_c, 0, 53, 0
2, 295894, Note_on_c, 0, 71, 0
2, 295940, Note_on_c, 0, 71, 97
2, 295942, Note_on_c, 0, 46, 0
2, 296004, Control_c, 0, 64, 0
2, 296011, Note_on_c, 0, 71, 0
2, 296058, Note_on_c, 0, 71, 92
2, 296070, Note_on_c, 0, 39, 73
2, 296160, Note_on_c, 0, 70, 73
2, 296178, Note_on_c, 0, 39, 0
2, 296206, Note_on_c, 0, 71, 0
2, 296218, Control_c, 0, 64, 127
2, 296260, Note_on_c, 0, 67, 75
2, 296298, Note_on_c, 0, 55, 59
2, 296302, Note_on_c, 0, 70, 0
2, 296306, Note_on_c, 0, 46, 42
2, 296316, Note_on_c, 0, 51, 46
2, 296360, Note_on_c, 0, 55, 0
2, 296380, Note_on_c, 0, 46, 0
2, 296380, Note_on_c, 0, 51, 0
2, 296380, Note_on_c, 0, 63, 78
2, 296460, Note_on_c, 0, 67, 0
2, 296478, Note_on_c, 0, 58, 85
2, 296512, Note_on_c, 0, 63, 0
2, 296512, Note_on_c, 0, 55, 68
2, 296520, Note_on_c, 0, 46, 53
2, 296536, Note_on_c, 0, 51, 39
2, 296556, Note_on_c, 0, 55, 0
2, 296574, Note_on_c, 0, 58, 0
2, 296580, Note_on_c, 0, 46, 0
2, 296598, Note_on_c, 0, 51, 0
2, 296618, Control_c, 0, 64, 0
2, 296720, Note_on_c, 0, 67, 92
2, 296724, Note_on_c, 0, 70, 85
2, 296728, Note_on_c, 0, 58, 82
2, 296740, Note_on_c, 0, 39, 73
2, 296786, Note_on_c, 0, 39, 0
2, 296848, Control_c, 0, 64, 127
2, 296864, Note_on_c, 0, 58, 0
2, 296928, Note_on_c, 0, 67, 0
2, 297014, Note_on_c, 0, 68, 69
2, 297014, Note_on_c, 0, 56, 49
2, 297038, Note_on_c, 0, 50, 46
2, 297042, Note_on_c, 0, 46, 32
2, 297082, Note_on_c, 0, 56, 0
2, 297100, Note_on_c, 0, 70, 0
2, 297106, Note_on_c, 0, 50, 0
2, 297116, Note_on_c, 0, 67, 63
2, 297122, Note_on_c, 0, 46, 0
2, 297216, Note_on_c, 0, 65, 89
2, 297218, Note_on_c, 0, 68, 0
2, 297230, Note_on_c, 0, 56, 64
2, 297260, Note_on_c, 0, 67, 0
2, 297262, Note_on_c, 0, 46, 40
2, 297274, Note_on_c, 0, 50, 39
2, 297284, Note_on_c, 0, 56, 0
2, 297326, Note_on_c, 0, 65, 0
2, 297329, Note_on_c, 0, 46, 0
2, 297336, Note_on_c, 0, 50, 0
2, 297416, Control_c, 0, 64, 0
2, 297480, Note_on_c, 0, 70, 78
2, 297486, Note_on_c, 0, 58, 66
2, 297488, Note_on_c, 0, 65, 66
2, 297510, Note_on_c, 0, 39, 66
2, 297582, Note_on_c, 0, 39, 0
2, 297648, Control_c, 0, 64, 127
2, 297682, Note_on_c, 0, 58, 0
2, 297710, Note_on_c, 0, 65, 0
2, 297756, Note_on_c, 0, 67, 68
2, 297776, Note_on_c, 0, 46, 40
2, 297778, Note_on_c, 0, 55, 47
2, 297792, Note_on_c, 0, 51, 39
2, 297840, Note_on_c, 0, 55, 0
2, 297852, Note_on_c, 0, 70, 0
2, 297858, Note_on_c, 0, 51, 0
2, 297860, Note_on_c, 0, 46, 0
2, 297866, Note_on_c, 0, 65, 56
2, 297896, Note_on_c, 0, 67, 0
2, 297980, Note_on_c, 0, 63, 86
2, 297998, Note_on_c, 0, 55, 54
2, 298006, Note_on_c, 0, 46, 41
2, 298026, Note_on_c, 0, 65, 0
2, 298039, Note_on_c, 0, 63, 0
2, 298050, Note_on_c, 0, 55, 0
2, 298088, Note_on_c, 0, 46, 0
2, 298124, Control_c, 0, 64, 0
2, 298200, Note_on_c, 0, 62, 91
2, 298203, Note_on_c, 0, 72, 87
2, 298206, Note_on_c, 0, 39, 77
2, 298238, Note_on_c, 0, 62, 0
2, 298260, Note_on_c, 0, 72, 0
2, 298262, Note_on_c, 0, 39, 0
2, 298308, Control_c, 0, 64, 127
2, 298332, Note_on_c, 0, 72, 73
2, 298378, Note_on_c, 0, 72, 0
2, 298458, Note_on_c, 0, 72, 45
2, 298461, Note_on_c, 0, 56, 49
2, 298480, Note_on_c, 0, 46, 37
2, 298480, Note_on_c, 0, 53, 60
2, 298508, Note_on_c, 0, 72, 0
2, 298526, Note_on_c, 0, 56, 0
2, 298544, Note_on_c, 0, 53, 0
2, 298560, Note_on_c, 0, 72, 80
2, 298562, Note_on_c, 0, 46, 0
2, 298598, Note_on_c, 0, 72, 0
2, 298668, Note_on_c, 0, 72, 59
2, 298688, Note_on_c, 0, 56, 60
2, 298720, Note_on_c, 0, 46, 35
2, 298726, Note_on_c, 0, 72, 0
2, 298740, Note_on_c, 0, 56, 0
2, 298784, Note_on_c, 0, 46, 0
2, 298787, Note_on_c, 0, 72, 86
2, 298840, Note_on_c, 0, 72, 0
2, 298862, Control_c, 0, 64, 0
2, 298918, Note_on_c, 0, 72, 71
2, 298930, Note_on_c, 0, 39, 73
2, 299002, Note_on_c, 0, 39, 0
2, 299022, Note_on_c, 0, 70, 71
2, 299052, Note_on_c, 0, 72, 0
2, 299060, Control_c, 0, 64, 127
2, 299128, Note_on_c, 0, 67, 68
2, 299148, Note_on_c, 0, 55, 55
2, 299150, Note_on_c, 0, 70, 0
2, 299158, Note_on_c, 0, 46, 37
2, 299160, Note_on_c, 0, 51, 46
2, 299206, Note_on_c, 0, 55, 0
2, 299224, Note_on_c, 0, 51, 0
2, 299230, Note_on_c, 0, 46, 0
2, 299254, Note_on_c, 0, 67, 0
2, 299260, Note_on_c, 0, 63, 52
2, 299320, Note_on_c, 0, 63, 0
2, 299340, Note_on_c, 0, 58, 74
2, 299360, Note_on_c, 0, 55, 73
2, 299376, Note_on_c, 0, 46, 50
2, 299394, Note_on_c, 0, 51, 36
2, 299404, Note_on_c, 0, 55, 0
2, 299426, Note_on_c, 0, 58, 0
2, 299454, Note_on_c, 0, 46, 0
2, 299456, Note_on_c, 0, 51, 0
2, 299522, Control_c, 0, 64, 0
2, 299614, Note_on_c, 0, 62, 79
2, 299620, Note_on_c, 0, 71, 80
2, 299636, Note_on_c, 0, 39, 59
2, 299658, Note_on_c, 0, 62, 0
2, 299694, Note_on_c, 0, 39, 0
2, 299697, Note_on_c, 0, 71, 0
2, 299722, Control_c, 0, 64, 127
2, 299745, Note_on_c, 0, 71, 97
2, 299816, Note_on_c, 0, 71, 0
2, 299870, Note_on_c, 0, 71, 97
2, 299882, Note_on_c, 0, 56, 42
2, 299892, Note_on_c, 0, 46, 37
2, 299941, Note_on_c, 0, 71, 0
2, 299946, Note_on_c, 0, 56, 0
2, 299966, Note_on_c, 0, 46, 0
2, 299990, Note_on_c, 0, 71, 97
2, 300061, Note_on_c, 0, 71, 0
2, 300084, Note_on_c, 0, 71, 97
2, 300094, Note_on_c, 0, 56, 47
2, 300128, Note_on_c, 0, 71, 0
2, 300128, Note_on_c, 0, 46, 33
2, 300148, Note_on_c, 0, 56, 0
2, 300188, Note_on_c, 0, 46, 0
2, 300210, Note_on_c, 0, 71, 78
2, 300268, Note_on_c, 0, 71, 0
2, 300312, Note_on_c, 0, 39, 71
2, 300320, Note_on_c, 0, 71, 95
2, 300360, Note_on_c, 0, 39, 0
2, 300422, Note_on_c, 0, 70, 61
2, 300476, Note_on_c, 0, 71, 0
2, 300494, Note_on_c, 0, 68, 69
2, 300498, Note_on_c, 0, 56, 70
2, 300512, Note_on_c, 0, 46, 58
2, 300526, Note_on_c, 0, 53, 80
2, 300558, Note_on_c, 0, 56, 0
2, 300568, Note_on_c, 0, 70, 0
2, 300574, Note_on_c, 0, 53, 0
2, 300586, Note_on_c, 0, 46, 0
2, 300600, Note_on_c, 0, 65, 71
2, 300638, Note_on_c, 0, 68, 0
2, 300696, Note_on_c, 0, 62, 94
2, 300702, Note_on_c, 0, 56, 73
2, 300706, Note_on_c, 0, 65, 0
2, 300728, Note_on_c, 0, 46, 55
2, 300731, Note_on_c, 0, 53, 63
2, 300738, Note_on_c, 0, 62, 0
2, 300752, Note_on_c, 0, 56, 0
2, 300782, Note_on_c, 0, 53, 0
2, 300806, Note_on_c, 0, 46, 0
2, 300828, Control_c, 0, 64, 0
2, 300932, Note_on_c, 0, 79, 103
2, 300942, Note_on_c, 0, 39, 80
2, 300980, Note_on_c, 0, 39, 0
2, 301022, Note_on_c, 0, 77, 75
2, 301028, Control_c, 0, 64, 127
2, 301090, Note_on_c, 0, 79, 0
2, 301116, Note_on_c, 0, 56, 60
2, 301120, Note_on_c, 0, 74, 88
2, 301130, Note_on_c, 0, 46, 57
2, 301132, Note_on_c, 0, 53, 86
2, 301194, Note_on_c, 0, 56, 0
2, 301200, Note_on_c, 0, 77, 0
2, 301212, Note_on_c, 0, 46, 0
2, 301214, Note_on_c, 0, 53, 0
2, 301228, Note_on_c, 0, 71, 88
2, 301284, Note_on_c, 0, 74, 0
2, 301320, Note_on_c, 0, 68, 78
2, 301323, Note_on_c, 0, 56, 74
2, 301328, Note_on_c, 0, 53, 81
2, 301338, Note_on_c, 0, 71, 0
2, 301344, Note_on_c, 0, 46, 56
2, 301378, Note_on_c, 0, 56, 0
2, 301378, Note_on_c, 0, 53, 0
2, 301422, Note_on_c, 0, 68, 0
2, 301456, Note_on_c, 0, 46, 0
2, 301488, Control_c, 0, 64, 0
2, 301542, Note_on_c, 0, 83, 121
2, 301556, Note_on_c, 0, 39, 95
2, 301600, Note_on_c, 0, 39, 0
2, 301622, Note_on_c, 0, 80, 49
2, 301656, Control_c, 0, 64, 127
2, 301706, Note_on_c, 0, 77, 84
2, 301724, Note_on_c, 0, 56, 73
2, 301738, Note_on_c, 0, 83, 0
2, 301738, Note_on_c, 0, 53, 89
2, 301744, Note_on_c, 0, 46, 59
2, 301806, Note_on_c, 0, 56, 0
2, 301812, Note_on_c, 0, 46, 0
2, 301818, Note_on_c, 0, 74, 91
2, 301832, Note_on_c, 0, 53, 0
2, 301846, Note_on_c, 0, 80, 0
2, 301906, Note_on_c, 0, 56, 66
2, 301910, Note_on_c, 0, 71, 103
2, 301912, Note_on_c, 0, 53, 90
2, 301922, Note_on_c, 0, 46, 60
2, 301930, Note_on_c, 0, 77, 0
2, 301948, Note_on_c, 0, 74, 0
2, 301951, Note_on_c, 0, 71, 0
2, 301998, Note_on_c, 0, 53, 0
2, 302012, Note_on_c, 0, 56, 0
2, 302042, Note_on_c, 0, 46, 0
2, 302102, Control_c, 0, 64, 0
2, 302198, Note_on_c, 0, 95, 117
2, 302198, Note_on_c, 0, 39, 97
2, 302201, Note_on_c, 0, 51, 100
2, 302232, Note_on_c, 0, 39, 0
2, 302266, Note_on_c, 0, 51, 0
2, 302318, Control_c, 0, 64, 127
2, 302358, Note_on_c, 0, 91, 83
2, 302400, Note_on_c, 0, 95, 0
2, 302476, Note_on_c, 0, 95, 79
2, 302488, Note_on_c, 0, 59, 91
2, 302488, Note_on_c, 0, 62, 98
2, 302498, Note_on_c, 0, 51, 78
2, 302501, Note_on_c, 0, 56, 62
2, 302508, Note_on_c, 0, 91, 0
2, 302592, Note_on_c, 0, 92, 80
2, 302608, Note_on_c, 0, 62, 0
2, 302632, Note_on_c, 0, 51, 0
2, 302632, Note_on_c, 0, 56, 0
2, 302638, Note_on_c, 0, 59, 0
2, 302686, Note_on_c, 0, 89, 81
2, 302700, Note_on_c, 0, 95, 0
2, 302760, Note_on_c, 0, 92, 0
2, 302778, Note_on_c, 0, 86, 90
2, 302784, Note_on_c, 0, 89, 0
2, 302816, Note_on_c, 0, 86, 0
2, 302880, Note_on_c, 0, 62, 83
2, 302882, Note_on_c, 0, 83, 118
2, 302884, Note_on_c, 0, 59, 78
2, 302884, Note_on_c, 0, 51, 78
2, 302888, Note_on_c, 0, 56, 62
2, 302948, Note_on_c, 0, 56, 0
2, 302950, Note_on_c, 0, 62, 0
2, 302980, Note_on_c, 0, 79, 97
2, 302992, Note_on_c, 0, 59, 0
2, 302994, Note_on_c, 0, 51, 0
2, 303018, Note_on_c, 0, 83, 0
2, 303082, Note_on_c, 0, 83, 106
2, 303086, Note_on_c, 0, 62, 83
2, 303086, Note_on_c, 0, 56, 64
2, 303088, Note_on_c, 0, 79, 0
2, 303088, Note_on_c, 0, 59, 50
2, 303090, Note_on_c, 0, 51, 62
2, 303150, Note_on_c, 0, 62, 0
2, 303156, Note_on_c, 0, 56, 0
2, 303156, Note_on_c, 0, 59, 0
2, 303176, Note_on_c, 0, 51, 0
2, 303176, Note_on_c, 0, 80, 79
2, 303244, Note_on_c, 0, 83, 0
2, 303266, Note_on_c, 0, 77, 84
2, 303332, Note_on_c, 0, 80, 0
2, 303358, Note_on_c, 0, 77, 0
2, 303362, Note_on_c, 0, 74, 83
2, 303398, Note_on_c, 0, 74, 0
2, 303452, Note_on_c, 0, 62, 85
2, 303458, Note_on_c, 0, 71, 95
2, 303458, Note_on_c, 0, 59, 76
2, 303460, Note_on_c, 0, 51, 75
2, 303460, Note_on_c, 0, 56, 62
2, 303530, Note_on_c, 0, 56, 0
2, 303532, Note_on_c, 0, 62, 0
2, 303556, Note_on_c, 0, 67, 88
2, 303560, Note_on_c, 0, 51, 0
2, 303572, Note_on_c, 0, 59, 0
2, 303586, Note_on_c, 0, 71, 0
2, 303652, Note_on_c, 0, 59, 67
2, 303652, Note_on_c, 0, 71, 85
2, 303658, Note_on_c, 0, 62, 85
2, 303660, Note_on_c, 0, 67, 0
2, 303666, Note_on_c, 0, 51, 62
2, 303669, Note_on_c, 0, 56, 63
2, 303704, Note_on_c, 0, 62, 0
2, 303730, Note_on_c, 0, 56, 0
2, 303740, Note_on_c, 0, 59, 0
2, 303742, Note_on_c, 0, 68, 70
2, 303786, Note_on_c, 0, 51, 0
2, 303812, Note_on_c, 0, 71, 0
2, 303846, Note_on_c, 0, 65, 66
2, 303884, Note_on_c, 0, 64, 22
2, 303896, Note_on_c, 0, 68, 0
2, 303944, Note_on_c, 0, 65, 0
2, 303947, Note_on_c, 0, 64, 0
2, 303952, Note_on_c, 0, 62, 36
2, 303956, Note_on_c, 0, 60, 28
2, 304016, Note_on_c, 0, 62, 0
2, 304022, Note_on_c, 0, 60, 0
2, 304022, Note_on_c, 0, 59, 92
2, 304118, Note_on_c, 0, 55, 91
2, 304142, Note_on_c, 0, 59, 0
2, 304178, Control_c, 0, 64, 0
2, 304204, Note_on_c, 0, 59, 88
2, 304228, Note_on_c, 0, 55, 0
2, 304282, Note_on_c, 0, 56, 79
2, 304346, Note_on_c, 0, 59, 0
2, 304384, Note_on_c, 0, 53, 106
2, 304436, Note_on_c, 0, 56, 0
2, 304476, Note_on_c, 0, 53, 0
2, 304482, Note_on_c, 0, 50, 88
2, 304562, Note_on_c, 0, 39, 104
2, 304564, Note_on_c, 0, 27, 101
2, 304568, Note_on_c, 0, 51, 106
2, 304616, Note_on_c, 0, 50, 0
2, 304710, Note_on_c, 0, 51, 0
2, 304776, Control_c, 0, 64, 127
2, 304796, Note_on_c, 0, 55, 89
2, 304816, Note_on_c, 0, 39, 0
2, 304882, Note_on_c, 0, 27, 0
2, 304886, Note_on_c, 0, 56, 78
2, 304894, Note_on_c, 0, 55, 0
2, 304962, Note_on_c, 0, 58, 65
2, 305018, Note_on_c, 0, 56, 0
2, 305030, Note_on_c, 0, 58, 0
2, 305058, Note_on_c, 0, 60, 82
2, 305140, Note_on_c, 0, 60, 0
2, 305160, Note_on_c, 0, 62, 91
2, 305244, Note_on_c, 0, 63, 87
2, 305266, Note_on_c, 0, 62, 0
2, 305306, Note_on_c, 0, 63, 0
2, 305336, Note_on_c, 0, 65, 79
2, 305422, Note_on_c, 0, 67, 88
2, 305458, Note_on_c, 0, 65, 0
2, 305510, Note_on_c, 0, 68, 80
2, 305534, Note_on_c, 0, 67, 0
2, 305588, Note_on_c, 0, 69, 73
2, 305616, Note_on_c, 0, 68, 0
2, 305692, Note_on_c, 0, 69, 0
2, 305700, Note_on_c, 0, 72, 86
2, 305744, Control_c, 0, 64, 0
2, 305790, Note_on_c, 0, 70, 64
2, 305858, Note_on_c, 0, 72, 0
2, 305870, Note_on_c, 0, 67, 77
2, 305882, Note_on_c, 0, 63, 70
2, 305884, Note_on_c, 0, 58, 47
2, 305888, Note_on_c, 0, 55, 59
2, 305918, Note_on_c, 0, 70, 0
2, 305938, Note_on_c, 0, 55, 0
2, 305954, Note_on_c, 0, 63, 0
2, 305964, Note_on_c, 0, 68, 64
2, 305966, Note_on_c, 0, 58, 0
2, 305986, Note_on_c, 0, 67, 0
2, 306020, Control_c, 0, 64, 127
2, 306040, Note_on_c, 0, 70, 52
2, 306048, Note_on_c, 0, 67, 76
2, 306050, Note_on_c, 0, 58, 39
2, 306050, Note_on_c, 0, 63, 54
2, 306058, Note_on_c, 0, 55, 50
2, 306080, Note_on_c, 0, 68, 0
2, 306090, Note_on_c, 0, 70, 0
2, 306122, Note_on_c, 0, 72, 72
2, 306125, Note_on_c, 0, 55, 0
2, 306134, Note_on_c, 0, 67, 0
2, 306152, Note_on_c, 0, 63, 0
2, 306162, Note_on_c, 0, 58, 0
2, 306228, Note_on_c, 0, 58, 47
2, 306228, Note_on_c, 0, 63, 65
2, 306234, Note_on_c, 0, 67, 56
2, 306234, Note_on_c, 0, 74, 87
2, 306240, Note_on_c, 0, 55, 55
2, 306258, Note_on_c, 0, 72, 0
2, 306304, Note_on_c, 0, 55, 0
2, 306308, Note_on_c, 0, 67, 0
2, 306322, Note_on_c, 0, 75, 76
2, 306334, Note_on_c, 0, 63, 0
2, 306334, Note_on_c, 0, 74, 0
2, 306340, Note_on_c, 0, 58, 0
2, 306370, Note_on_c, 0, 75, 0
2, 306404, Note_on_c, 0, 58, 50
2, 306408, Note_on_c, 0, 67, 64
2, 306412, Note_on_c, 0, 63, 60
2, 306416, Note_on_c, 0, 77, 87
2, 306424, Note_on_c, 0, 55, 53
2, 306478, Note_on_c, 0, 55, 0
2, 306490, Note_on_c, 0, 67, 0
2, 306498, Note_on_c, 0, 63, 0
2, 306506, Note_on_c, 0, 79, 88
2, 306518, Note_on_c, 0, 58, 0
2, 306536, Note_on_c, 0, 77, 0
2, 306580, Note_on_c, 0, 80, 87
2, 306586, Note_on_c, 0, 58, 45
2, 306590, Note_on_c, 0, 67, 63
2, 306594, Note_on_c, 0, 63, 62
2, 306606, Note_on_c, 0, 79, 0
2, 306610, Note_on_c, 0, 55, 50
2, 306652, Control_c, 0, 64, 0
2, 306658, Note_on_c, 0, 81, 82
2, 306663, Note_on_c, 0, 55, 0
2, 306682, Note_on_c, 0, 67, 0
2, 306688, Note_on_c, 0, 80, 0
2, 306698, Note_on_c, 0, 63, 0
2, 306704, Note_on_c, 0, 58, 0
2, 306748, Note_on_c, 0, 84, 109
2, 306760, Note_on_c, 0, 67, 76
2, 306762, Note_on_c, 0, 58, 61
2, 306762, Note_on_c, 0, 63, 81
2, 306768, Note_on_c, 0, 81, 0
2, 306770, Note_on_c, 0, 55, 59
2, 306824, Note_on_c, 0, 82, 71
2, 306828, Note_on_c, 0, 55, 0
2, 306836, Control_c, 0, 64, 127
2, 306852, Note_on_c, 0, 67, 0
2, 306868, Note_on_c, 0, 58, 0
2, 306868, Note_on_c, 0, 63, 0
2, 306910, Note_on_c, 0, 79, 93
2, 306916, Note_on_c, 0, 84, 0
2, 306938, Note_on_c, 0, 67, 64
2, 306938, Note_on_c, 0, 63, 73
2, 306941, Note_on_c, 0, 58, 49
2, 306958, Note_on_c, 0, 82, 0
2, 306964, Note_on_c, 0, 55, 57
2, 307002, Note_on_c, 0, 67, 0
2, 307002, Note_on_c, 0, 80, 87
2, 307009, Note_on_c, 0, 79, 0
2, 307014, Note_on_c, 0, 55, 0
2, 307018, Note_on_c, 0, 63, 0
2, 307028, Note_on_c, 0, 58, 0
2, 307090, Note_on_c, 0, 82, 70
2, 307114, Note_on_c, 0, 58, 43
2, 307114, Note_on_c, 0, 63, 62
2, 307120, Note_on_c, 0, 67, 65
2, 307126, Note_on_c, 0, 80, 0
2, 307128, Note_on_c, 0, 82, 0
2, 307130, Note_on_c, 0, 55, 23
2, 307166, Note_on_c, 0, 84, 95
2, 307172, Note_on_c, 0, 67, 0
2, 307182, Note_on_c, 0, 63, 0
2, 307186, Note_on_c, 0, 58, 0
2, 307202, Note_on_c, 0, 55, 0
2, 307268, Note_on_c, 0, 86, 94
2, 307284, Note_on_c, 0, 63, 68
2, 307284, Note_on_c, 0, 58, 47
2, 307287, Note_on_c, 0, 55, 57
2, 307287, Note_on_c, 0, 67, 67
2, 307290, Note_on_c, 0, 84, 0
2, 307338, Note_on_c, 0, 55, 0
2, 307340, Note_on_c, 0, 67, 0
2, 307344, Note_on_c, 0, 87, 79
2, 307346, Note_on_c, 0, 63, 0
2, 307349, Note_on_c, 0, 58, 0
2, 307370, Note_on_c, 0, 86, 0
2, 307390, Note_on_c, 0, 87, 0
2, 307438, Note_on_c, 0, 89, 84
2, 307442, Note_on_c, 0, 63, 65
2, 307444, Note_on_c, 0, 58, 41
2, 307444, Note_on_c, 0, 67, 61
2, 307456, Note_on_c, 0, 55, 39
2, 307512, Note_on_c, 0, 67, 0
2, 307512, Note_on_c, 0, 55, 0
2, 307526, Note_on_c, 0, 58, 0
2, 307528, Note_on_c, 0, 63, 0
2, 307528, Note_on_c, 0, 91, 90
2, 307536, Note_on_c, 0, 89, 0
2, 307602, Note_on_c, 0, 92, 69
2, 307607, Note_on_c, 0, 58, 47
2, 307607, Note_on_c, 0, 63, 67
2, 307611, Note_on_c, 0, 67, 62
2, 307630, Note_on_c, 0, 55, 34
2, 307632, Note_on_c, 0, 91, 0
2, 307662, Note_on_c, 0, 92, 0
2, 307678, Note_on_c, 0, 93, 81
2, 307686, Note_on_c, 0, 67, 0
2, 307688, Note_on_c, 0, 55, 0
2, 307700, Note_on_c, 0, 63, 0
2, 307714, Note_on_c, 0, 58, 0
2, 307792, Note_on_c, 0, 67, 75
2, 307794, Note_on_c, 0, 93, 0
2, 307794, Note_on_c, 0, 58, 47
2, 307800, Note_on_c, 0, 63, 55
2, 307802, Note_on_c, 0, 55, 58
2, 307830, Note_on_c, 0, 96, 88
2, 307862, Note_on_c, 0, 63, 0
2, 307862, Note_on_c, 0, 55, 0
2, 307900, Note_on_c, 0, 58, 0
2, 307906, Note_on_c, 0, 67, 0
2, 307934, Note_on_c, 0, 94, 76
2, 307978, Note_on_c, 0, 67, 61
2, 307984, Note_on_c, 0, 58, 38
2, 307992, Note_on_c, 0, 96, 0
2, 307995, Note_on_c, 0, 91, 76
2, 307998, Note_on_c, 0, 63, 57
2, 308032, Note_on_c, 0, 94, 0
2, 308032, Note_on_c, 0, 55, 18
2, 308054, Note_on_c, 0, 63, 0
2, 308074, Note_on_c, 0, 67, 0
2, 308080, Note_on_c, 0, 92, 79
2, 308086, Note_on_c, 0, 58, 0
2, 308088, Note_on_c, 0, 55, 0
2, 308100, Note_on_c, 0, 91, 0
2, 308166, Note_on_c, 0, 93, 83
2, 308172, Note_on_c, 0, 58, 34
2, 308174, Note_on_c, 0, 67, 54
2, 308180, Note_on_c, 0, 63, 55
2, 308188, Note_on_c, 0, 92, 0
2, 308192, Note_on_c, 0, 55, 24
2, 308248, Note_on_c, 0, 63, 0
2, 308250, Note_on_c, 0, 94, 65
2, 308254, Note_on_c, 0, 67, 0
2, 308262, Note_on_c, 0, 55, 0
2, 308270, Note_on_c, 0, 58, 0
2, 308284, Note_on_c, 0, 93, 0
2, 308340, Note_on_c, 0, 96, 89
2, 308358, Note_on_c, 0, 67, 58
2, 308358, Note_on_c, 0, 58, 36
2, 308364, Note_on_c, 0, 94, 0
2, 308364, Note_on_c, 0, 63, 55
2, 308364, Note_on_c, 0, 55, 37
2, 308426, Note_on_c, 0, 94, 59
2, 308432, Note_on_c, 0, 55, 0
2, 308438, Note_on_c, 0, 67, 0
2, 308438, Note_on_c, 0, 63, 0
2, 308454, Note_on_c, 0, 58, 0
2, 308504, Note_on_c, 0, 96, 0
2, 308514, Note_on_c, 0, 91, 69
2, 308540, Note_on_c, 0, 67, 53
2, 308548, Note_on_c, 0, 58, 29
2, 308548, Note_on_c, 0, 63, 46
2, 308564, Note_on_c, 0, 94, 0
2, 308570, Note_on_c, 0, 55, 16
2, 308600, Note_on_c, 0, 91, 0
2, 308600, Note_on_c, 0, 92, 71
2, 308610, Note_on_c, 0, 67, 0
2, 308618, Note_on_c, 0, 63, 0
2, 308622, Note_on_c, 0, 58, 0
2, 308632, Note_on_c, 0, 55, 0
2, 308690, Note_on_c, 0, 93, 74
2, 308712, Note_on_c, 0, 92, 0
2, 308715, Note_on_c, 0, 63, 53
2, 308718, Note_on_c, 0, 58, 34
2, 308722, Note_on_c, 0, 67, 51
2, 308734, Note_on_c, 0, 55, 28
2, 308782, Note_on_c, 0, 94, 72
2, 308785, Note_on_c, 0, 67, 0
2, 308804, Note_on_c, 0, 55, 0
2, 308810, Note_on_c, 0, 93, 0
2, 308816, Note_on_c, 0, 63, 0
2, 308822, Note_on_c, 0, 58, 0
2, 308878, Note_on_c, 0, 99, 87
2, 308900, Note_on_c, 0, 94, 0
2, 308904, Note_on_c, 0, 63, 61
2, 308908, Note_on_c, 0, 67, 66
2, 308916, Note_on_c, 0, 58, 31
2, 308920, Note_on_c, 0, 99, 0
2, 308926, Note_on_c, 0, 55, 33
2, 308958, Note_on_c, 0, 67, 0
2, 308978, Note_on_c, 0, 63, 0
2, 308990, Note_on_c, 0, 55, 0
2, 309002, Note_on_c, 0, 58, 0
2, 309098, Note_on_c, 0, 91, 74
2, 309152, Note_on_c, 0, 91, 0
2, 309176, Note_on_c, 0, 92, 70
2, 309260, Note_on_c, 0, 93, 74
2, 309294, Control_c, 0, 64, 0
2, 309298, Note_on_c, 0, 92, 0
2, 309338, Note_on_c, 0, 94, 62
2, 309376, Note_on_c, 0, 93, 0
2, 309418, Note_on_c, 0, 63, 67
2, 309421, Note_on_c, 0, 99, 83
2, 309434, Note_on_c, 0, 51, 44
2, 309438, Note_on_c, 0, 55, 54
2, 309464, Note_on_c, 0, 94, 0
2, 309492, Note_on_c, 0, 55, 0
2, 309496, Note_on_c, 0, 63, 0
2, 309498, Note_on_c, 0, 51, 0
2, 309524, Control_c, 0, 64, 127
2, 309532, Note_on_c, 0, 99, 0
2, 309630, Note_on_c, 0, 91, 63
2, 309684, Note_on_c, 0, 91, 0
2, 309702, Note_on_c, 0, 92, 53
2, 309776, Note_on_c, 0, 92, 0
2, 309786, Note_on_c, 0, 93, 65
2, 309862, Control_c, 0, 64, 0
2, 309874, Note_on_c, 0, 93, 0
2, 309882, Note_on_c, 0, 94, 42
2, 309944, Note_on_c, 0, 67, 53
2, 309944, Note_on_c, 0, 55, 62
2, 309944, Note_on_c, 0, 99, 70
2, 309945, Note_on_c, 0, 58, 38
2, 309954, Note_on_c, 0, 63, 59
2, 309976, Note_on_c, 0, 94, 0
2, 310012, Note_on_c, 0, 55, 0
2, 310017, Note_on_c, 0, 58, 0
2, 310020, Note_on_c, 0, 99, 0
2, 310030, Note_on_c, 0, 67, 0
2, 310032, Note_on_c, 0, 63, 0
2, 310062, Control_c, 0, 64, 127
2, 310142, Note_on_c, 0, 91, 52
2, 310198, Note_on_c, 0, 91, 0
2, 310208, Note_on_c, 0, 92, 47
2, 310278, Note_on_c, 0, 92, 0
2, 310306, Note_on_c, 0, 93, 54
2, 310378, Note_on_c, 0, 94, 35
2, 310384, Note_on_c, 0, 93, 0
2, 310384, Control_c, 0, 64, 0
2, 310466, Note_on_c, 0, 70, 43
2, 310470, Note_on_c, 0, 99, 62
2, 310484, Note_on_c, 0, 58, 38
2, 310492, Note_on_c, 0, 67, 41
2, 310514, Note_on_c, 0, 94, 0
2, 310538, Note_on_c, 0, 99, 0
2, 310556, Note_on_c, 0, 58, 0
2, 310580, Note_on_c, 0, 67, 0
2, 310600, Note_on_c, 0, 70, 0
2, 310614, Control_c, 0, 64, 127
2, 310674, Note_on_c, 0, 91, 48
2, 310734, Note_on_c, 0, 91, 0
2, 310740, Note_on_c, 0, 92, 48
2, 310812, Note_on_c, 0, 92, 0
2, 310834, Note_on_c, 0, 93, 52
2, 310902, Note_on_c, 0, 94, 42
2, 310908, Control_c, 0, 64, 0
2, 310914, Note_on_c, 0, 93, 0
2, 311000, Note_on_c, 0, 75, 44
2, 311000, Note_on_c, 0, 99, 60
2, 311024, Note_on_c, 0, 63, 35
2, 311030, Note_on_c, 0, 67, 30
2, 311038, Note_on_c, 0, 94, 0
2, 311074, Note_on_c, 0, 99, 0
2, 311104, Note_on_c, 0, 67, 0
2, 311108, Control_c, 0, 64, 127
2, 311136, Note_on_c, 0, 75, 0
2, 311144, Note_on_c, 0, 63, 0
2, 311192, Note_on_c, 0, 91, 48
2, 311250, Note_on_c, 0, 91, 0
2, 311256, Note_on_c, 0, 92, 49
2, 311344, Note_on_c, 0, 92, 0
2, 311362, Note_on_c, 0, 93, 49
2, 311398, Control_c, 0, 64, 0
2, 311434, Note_on_c, 0, 94, 39
2, 311446, Note_on_c, 0, 93, 0
2, 311518, Note_on_c, 0, 70, 35
2, 311528, Note_on_c, 0, 99, 57
2, 311530, Note_on_c, 0, 58, 26
2, 311548, Note_on_c, 0, 67, 33
2, 311570, Note_on_c, 0, 94, 0
2, 311596, Note_on_c, 0, 99, 0
2, 311610, Note_on_c, 0, 58, 0
2, 311610, Control_c, 0, 64, 127
2, 311622, Note_on_c, 0, 67, 0
2, 311670, Note_on_c, 0, 70, 0
2, 311732, Note_on_c, 0, 91, 48
2, 311790, Note_on_c, 0, 91, 0
2, 311808, Note_on_c, 0, 92, 41
2, 311882, Note_on_c, 0, 92, 0
2, 311906, Note_on_c, 0, 93, 48
2, 311938, Control_c, 0, 64, 0
2, 311990, Note_on_c, 0, 94, 38
2, 312008, Note_on_c, 0, 93, 0
2, 312066, Note_on_c, 0, 79, 39
2, 312074, Note_on_c, 0, 75, 34
2, 312074, Note_on_c, 0, 67, 36
2, 312077, Note_on_c, 0, 99, 51
2, 312134, Note_on_c, 0, 94, 0
2, 312137, Note_on_c, 0, 99, 0
2, 312162, Note_on_c, 0, 67, 0
2, 312162, Control_c, 0, 64, 127
2, 312170, Note_on_c, 0, 75, 0
2, 312174, Note_on_c, 0, 79, 0
2, 312266, Note_on_c, 0, 91, 37
2, 312318, Note_on_c, 0, 92, 47
2, 312334, Note_on_c, 0, 91, 0
2, 312388, Note_on_c, 0, 92, 0
2, 312434, Note_on_c, 0, 93, 43
2, 312490, Control_c, 0, 64, 0
2, 312510, Note_on_c, 0, 93, 0
2, 312512, Note_on_c, 0, 94, 29
2, 312594, Note_on_c, 0, 82, 36
2, 312597, Note_on_c, 0, 99, 51
2, 312618, Note_on_c, 0, 79, 43
2, 312620, Note_on_c, 0, 70, 28
2, 312642, Note_on_c, 0, 94, 0
2, 312676, Note_on_c, 0, 99, 0
2, 312696, Note_on_c, 0, 79, 0
2, 312704, Note_on_c, 0, 70, 0
2, 312720, Control_c, 0, 64, 127
2, 312752, Note_on_c, 0, 82, 0
2, 312814, Note_on_c, 0, 91, 42
2, 312878, Note_on_c, 0, 91, 0
2, 312900, Note_on_c, 0, 92, 33
2, 312980, Note_on_c, 0, 92, 0
2, 313018, Note_on_c, 0, 93, 29
2, 313092, Note_on_c, 0, 94, 34
2, 313102, Note_on_c, 0, 93, 0
2, 313166, Control_c, 0, 64, 0
2, 313254, Note_on_c, 0, 87, 26
2, 313256, Note_on_c, 0, 99, 42
2, 313278, Note_on_c, 0, 75, 25
2, 313288, Note_on_c, 0, 94, 0
2, 313290, Note_on_c, 0, 82, 17
2, 313368, Note_on_c, 0, 75, 0
2, 313380, Control_c, 0, 64, 127
2, 313390, Note_on_c, 0, 87, 0
2, 313406, Note_on_c, 0, 99, 0
2, 313422, Note_on_c, 0, 82, 0
2, 313888, Control_c, 0, 64, 0
2, 314300, Note_on_c, 0, 91, 104
2, 314303, Note_on_c, 0, 79, 103
2, 314303, Note_on_c, 0, 82, 84
2, 314303, Note_on_c, 0, 87, 83
2, 314303, Note_on_c, 0, 75, 86
2, 314312, Note_on_c, 0, 63, 75
2, 314316, Note_on_c, 0, 70, 68
2, 314356, Note_on_c, 0, 63, 0
2, 314366, Note_on_c, 0, 75, 0
2, 314368, Note_on_c, 0, 70, 0
2, 314402, Note_on_c, 0, 79, 0
2, 314410, Control_c, 0, 64, 127
2, 314412, Note_on_c, 0, 91, 0
2, 314456, Note_on_c, 0, 82, 0
2, 314459, Note_on_c, 0, 87, 0
2, 315100, Note_on_c, 0, 79, 106
2, 315102, Note_on_c, 0, 70, 81
2, 315104, Note_on_c, 0, 75, 83
2, 315104, Note_on_c, 0, 67, 98
2, 315106, Note_on_c, 0, 63, 90
2, 315108, Note_on_c, 0, 58, 40
2, 315112, Note_on_c, 0, 51, 86
2, 315174, Note_on_c, 0, 58, 0
2, 315264, Note_on_c, 0, 79, 0
2, 315266, Note_on_c, 0, 63, 0
2, 315269, Note_on_c, 0, 67, 0
2, 315269, Note_on_c, 0, 51, 0
2, 315300, Note_on_c, 0, 70, 0
2, 315304, Note_on_c, 0, 75, 0
2, 315348, Control_c, 0, 64, 0
2, 315358, Note_on_c, 0, 58, 59
2, 315358, Note_on_c, 0, 51, 70
2, 315360, Note_on_c, 0, 70, 72
2, 315360, Note_on_c, 0, 75, 79
2, 315362, Note_on_c, 0, 79, 94
2, 315366, Note_on_c, 0, 67, 85
2, 315368, Note_on_c, 0, 63, 79
2, 315498, Note_on_c, 0, 51, 0
2, 315500, Note_on_c, 0, 58, 0
2, 315506, Note_on_c, 0, 63, 0
2, 315518, Note_on_c, 0, 79, 0
2, 315518, Note_on_c, 0, 67, 0
2, 315530, Control_c, 0, 64, 127
2, 315544, Note_on_c, 0, 70, 0
2, 315552, Note_on_c, 0, 75, 0
2, 315604, Note_on_c, 0, 70, 80
2, 315604, Note_on_c, 0, 79, 94
2, 315604, Note_on_c, 0, 75, 86
2, 315607, Note_on_c, 0, 67, 87
2, 315608, Note_on_c, 0, 51, 69
2, 315612, Note_on_c, 0, 63, 84
2, 315612, Note_on_c, 0, 58, 43
2, 315656, Note_on_c, 0, 63, 0
2, 315678, Note_on_c, 0, 58, 0
2, 315680, Note_on_c, 0, 51, 0
2, 315704, Note_on_c, 0, 79, 0
2, 315716, Note_on_c, 0, 67, 0
2, 315720, Note_on_c, 0, 75, 0
2, 315740, Note_on_c, 0, 70, 0
2, 316100, Control_c, 0, 64, 0
2, 316122, Note_on_c, 0, 51, 108
2, 316130, Note_on_c, 0, 39, 101
2, 316134, Note_on_c, 0, 27, 103
2, 316278, Note_on_c, 0, 39, 0
2, 316360, Note_on_c, 0, 27, 0
2, 316376, Control_c, 0, 64, 127
2, 316450, Note_on_c, 0, 51, 0
2, 317406, Control_c, 0, 64, 0
2, 317406, End_track
0, 0, End_of_file
