0, 0, Header, 1, 7, 240
1, 0, Start_track
1, 0, Time_signature, 4, 2, 24, 8
1, 0, Tempo, 500000
1, 0, Marker_t, "A-1"
1, 23040, Marker_t, "B-1"
1, 34560, Marker_t, "C"
1, 52800, Marker_t, "B-2"
1, 64320, Marker_t, "A-2"
1, 87360, Marker_t, "B-3"
1, 97200, Tempo, 512821
1, 97440, Tempo, 530973
1, 97680, Tempo, 550459
1, 97920, Tempo, 571429
1, 98160, Tempo, 588235
1, 98400, Tempo, 612245
1, 98640, Tempo, 638298
1, 98640, End_track
2, 0, Start_track
2, 0, Title_t, "Piano"
2, 0, Program_c, 0, 0
2, 854, Note_on_c, 0, 68, 38
2, 1095, Note_on_c, 0, 76, 53
2, 1095, Note_on_c, 0, 37, 33
2, 1279, Control_c, 0, 64, 64
2, 1294, Control_c, 0, 64, 96
2, 1334, Note_off_c, 0, 37, 64
2, 1335, Note_on_c, 0, 61, 25
2, 1337, Note_on_c, 0, 64, 23
2, 1337, Note_on_c, 0, 56, 24
2, 1354, Control_c, 0, 64, 127
2, 1574, Note_off_c, 0, 56, 64
2, 1574, Note_off_c, 0, 64, 64
2, 1574, Note_off_c, 0, 61, 64
2, 1576, Note_on_c, 0, 56, 24
2, 1576, Note_on_c, 0, 64, 24
2, 1577, Note_on_c, 0, 61, 24
2, 1754, Control_c, 0, 64, 96
2, 1763, Control_c, 0, 64, 64
2, 1770, Control_c, 0, 64, 0
2, 1815, Note_off_c, 0, 61, 64
2, 1815, Note_off_c, 0, 64, 64
2, 1815, Note_off_c, 0, 56, 64
2, 1815, Note_off_c, 0, 76, 64
2, 1815, Note_off_c, 0, 68, 64
2, 1816, Note_on_c, 0, 75, 35
2, 1818, Note_on_c, 0, 67, 32
2, 1818, Note_on_c, 0, 39, 32
2, 2057, Control_c, 0, 64, 64
2, 2077, Note_off_c, 0, 39, 64
2, 2077, Control_c, 0, 64, 96
2, 2078, Note_on_c, 0, 61, 24
2, 2078, Note_on_c, 0, 51, 22
2, 2078, Note_on_c, 0, 58, 20
2, 2127, Control_c, 0, 64, 127
2, 2338, Note_off_c, 0, 58, 64
2, 2338, Note_off_c, 0, 51, 64
2, 2339, Note_off_c, 0, 61, 64
2, 2340, Note_on_c, 0, 58, 22
2, 2340, Note_on_c, 0, 61, 21
2, 2340, Note_on_c, 0, 51, 22
2, 2601, Note_off_c, 0, 51, 64
2, 2601, Note_off_c, 0, 61, 64
2, 2601, Note_off_c, 0, 58, 64
2, 2601, Note_off_c, 0, 67, 64
2, 2603, Note_off_c, 0, 75, 64
2, 2603, Note_on_c, 0, 44, 36
2, 2623, Control_c, 0, 64, 96
2, 2634, Control_c, 0, 64, 64
2, 2643, Control_c, 0, 64, 0
2, 2735, Note_on_c, 0, 68, 36
2, 2735, Note_on_c, 0, 66, 31
2, 2788, Note_on_c, 0, 71, 40
2, 2843, Note_off_c, 0, 71, 64
2, 2843, Note_off_c, 0, 66, 64
2, 2843, Note_off_c, 0, 68, 64
2, 2844, Note_off_c, 0, 44, 64
2, 2846, Note_on_c, 0, 69, 38
2, 2846, Note_on_c, 0, 66, 29
2, 2846, Note_on_c, 0, 51, 24
2, 2846, Note_on_c, 0, 60, 28
2, 2846, Note_on_c, 0, 56, 25
2, 2954, Note_off_c, 0, 66, 64
2, 2954, Note_off_c, 0, 69, 64
2, 3012, Note_on_c, 0, 68, 42
2, 3013, Note_on_c, 0, 66, 34
2, 3065, Note_off_c, 0, 66, 64
2, 3065, Note_off_c, 0, 68, 64
2, 3065, Note_off_c, 0, 56, 64
2, 3065, Note_off_c, 0, 60, 64
2, 3066, Note_off_c, 0, 51, 64
2, 3066, Note_on_c, 0, 75, 51
2, 3066, Note_on_c, 0, 66, 43
2, 3068, Note_on_c, 0, 51, 26
2, 3068, Note_on_c, 0, 56, 24
2, 3068, Note_on_c, 0, 60, 28
2, 3288, Note_off_c, 0, 60, 64
2, 3288, Note_off_c, 0, 56, 64
2, 3288, Note_off_c, 0, 51, 64
2, 3288, Note_off_c, 0, 66, 64
2, 3289, Note_off_c, 0, 75, 64
2, 3289, Note_on_c, 0, 49, 40
2, 3397, Note_on_c, 0, 68, 33
2, 3399, Note_on_c, 0, 66, 27
2, 3455, Note_on_c, 0, 71, 36
2, 3510, Note_off_c, 0, 71, 64
2, 3510, Note_off_c, 0, 66, 64
2, 3510, Note_off_c, 0, 68, 64
2, 3510, Note_off_c, 0, 49, 64
2, 3511, Note_on_c, 0, 69, 39
2, 3511, Note_on_c, 0, 66, 30
2, 3511, Note_on_c, 0, 63, 33
2, 3511, Note_on_c, 0, 56, 35
2, 3621, Note_off_c, 0, 66, 64
2, 3621, Note_off_c, 0, 69, 64
2, 3677, Note_on_c, 0, 66, 34
2, 3677, Note_on_c, 0, 68, 39
2, 3732, Note_off_c, 0, 68, 64
2, 3732, Note_off_c, 0, 66, 64
2, 3732, Note_off_c, 0, 56, 64
2, 3732, Note_off_c, 0, 63, 64
2, 3733, Note_on_c, 0, 73, 44
2, 3733, Note_on_c, 0, 64, 39
2, 3733, Note_on_c, 0, 56, 31
2, 3734, Note_on_c, 0, 61, 32
2, 3937, Control_c, 0, 64, 64
2, 3952, Note_off_c, 0, 61, 64
2, 3953, Note_off_c, 0, 56, 64
2, 3953, Note_off_c, 0, 64, 64
2, 3953, Note_off_c, 0, 73, 64
2, 3955, Note_on_c, 0, 73, 52
2, 3955, Note_on_c, 0, 64, 45
2, 3955, Note_on_c, 0, 40, 34
2, 3979, Control_c, 0, 64, 0
2, 4097, Control_c, 0, 64, 64
2, 4112, Control_c, 0, 64, 96
2, 4145, Control_c, 0, 64, 127
2, 4192, Note_off_c, 0, 40, 64
2, 4195, Note_on_c, 0, 57, 23
2, 4195, Note_on_c, 0, 52, 29
2, 4433, Note_off_c, 0, 52, 64
2, 4433, Note_off_c, 0, 57, 64
2, 4436, Note_on_c, 0, 52, 27
2, 4436, Note_on_c, 0, 57, 21
2, 4562, Control_c, 0, 64, 96
2, 4572, Control_c, 0, 64, 64
2, 4588, Control_c, 0, 64, 0
2, 4673, Note_off_c, 0, 57, 64
2, 4673, Note_off_c, 0, 52, 64
2, 4673, Note_off_c, 0, 64, 64
2, 4675, Note_off_c, 0, 73, 64
2, 4675, Note_on_c, 0, 72, 34
2, 4676, Note_on_c, 0, 63, 31
2, 4676, Note_on_c, 0, 40, 30
2, 4699, Control_c, 0, 64, 64
2, 4721, Control_c, 0, 64, 96
2, 4768, Control_c, 0, 64, 127
2, 4937, Note_off_c, 0, 40, 64
2, 4937, Note_on_c, 0, 57, 26
2, 4937, Note_on_c, 0, 54, 28
2, 5197, Note_off_c, 0, 54, 64
2, 5197, Note_off_c, 0, 57, 64
2, 5199, Note_on_c, 0, 54, 26
2, 5199, Note_on_c, 0, 57, 24
2, 5452, Control_c, 0, 64, 96
2, 5460, Note_off_c, 0, 57, 64
2, 5460, Note_off_c, 0, 54, 64
2, 5461, Note_off_c, 0, 72, 64
2, 5461, Note_off_c, 0, 63, 64
2, 5462, Note_on_c, 0, 40, 36
2, 5472, Control_c, 0, 64, 64
2, 5491, Control_c, 0, 64, 0
2, 5593, Note_on_c, 0, 62, 34
2, 5593, Note_on_c, 0, 64, 35
2, 5638, Control_c, 0, 64, 64
2, 5647, Note_on_c, 0, 68, 40
2, 5654, Control_c, 0, 64, 96
2, 5701, Note_off_c, 0, 68, 64
2, 5703, Note_off_c, 0, 64, 64
2, 5703, Note_off_c, 0, 62, 64
2, 5703, Note_off_c, 0, 40, 64
2, 5704, Note_on_c, 0, 66, 39
2, 5704, Note_on_c, 0, 62, 31
2, 5704, Note_on_c, 0, 56, 36
2, 5706, Control_c, 0, 64, 127
2, 5812, Note_off_c, 0, 62, 64
2, 5814, Note_off_c, 0, 66, 64
2, 5870, Note_on_c, 0, 64, 49
2, 5870, Note_on_c, 0, 62, 42
2, 5923, Note_off_c, 0, 62, 64
2, 5923, Note_off_c, 0, 64, 64
2, 5925, Note_off_c, 0, 56, 64
2, 5926, Note_on_c, 0, 71, 47
2, 5926, Note_on_c, 0, 62, 36
2, 5926, Note_on_c, 0, 52, 32
2, 5926, Note_on_c, 0, 56, 22
2, 6145, Control_c, 0, 64, 96
2, 6146, Note_off_c, 0, 56, 64
2, 6148, Note_off_c, 0, 52, 64
2, 6148, Note_off_c, 0, 62, 64
2, 6148, Note_off_c, 0, 71, 64
2, 6148, Note_on_c, 0, 45, 35
2, 6163, Control_c, 0, 64, 64
2, 6171, Control_c, 0, 64, 0
2, 6257, Note_on_c, 0, 62, 27
2, 6259, Note_on_c, 0, 64, 34
2, 6276, Control_c, 0, 64, 64
2, 6285, Control_c, 0, 64, 96
2, 6315, Note_on_c, 0, 68, 40
2, 6352, Control_c, 0, 64, 127
2, 6368, Note_off_c, 0, 68, 64
2, 6368, Note_off_c, 0, 64, 64
2, 6370, Note_off_c, 0, 62, 64
2, 6370, Note_off_c, 0, 45, 64
2, 6370, Note_on_c, 0, 66, 38
2, 6370, Note_on_c, 0, 61, 33
2, 6370, Note_on_c, 0, 57, 31
2, 6370, Note_on_c, 0, 52, 40
2, 6479, Note_off_c, 0, 61, 64
2, 6479, Note_off_c, 0, 66, 64
2, 6535, Note_on_c, 0, 64, 44
2, 6537, Note_on_c, 0, 61, 34
2, 6590, Note_off_c, 0, 61, 64
2, 6590, Note_off_c, 0, 64, 64
2, 6590, Note_off_c, 0, 52, 64
2, 6591, Note_off_c, 0, 57, 64
2, 6591, Note_on_c, 0, 61, 37
2, 6593, Note_on_c, 0, 51, 31
2, 6593, Note_on_c, 0, 57, 28
2, 6593, Note_on_c, 0, 69, 40
2, 6700, Note_off_c, 0, 69, 64
2, 6700, Note_off_c, 0, 61, 64
2, 6781, Control_c, 0, 64, 96
2, 6790, Control_c, 0, 64, 64
2, 6800, Control_c, 0, 64, 0
2, 6812, Note_off_c, 0, 57, 64
2, 6812, Note_off_c, 0, 51, 64
2, 6813, Note_on_c, 0, 69, 45
2, 6815, Note_on_c, 0, 60, 39
2, 6815, Note_on_c, 0, 66, 43
2, 6815, Note_on_c, 0, 44, 37
2, 7052, Note_off_c, 0, 44, 64
2, 7054, Note_on_c, 0, 63, 24
2, 7055, Note_on_c, 0, 56, 27
2, 7293, Note_off_c, 0, 56, 64
2, 7293, Note_off_c, 0, 63, 64
2, 7293, Note_off_c, 0, 69, 64
2, 7294, Note_on_c, 0, 68, 42
2, 7294, Note_on_c, 0, 56, 28
2, 7296, Note_on_c, 0, 63, 24
2, 7520, Control_c, 0, 64, 64
2, 7532, Note_off_c, 0, 63, 64
2, 7533, Note_off_c, 0, 56, 64
2, 7533, Note_off_c, 0, 66, 64
2, 7533, Note_off_c, 0, 60, 64
2, 7535, Note_on_c, 0, 64, 44
2, 7535, Note_on_c, 0, 49, 40
2, 7536, Control_c, 0, 64, 96
2, 7635, Note_off_c, 0, 68, 64
2, 7638, Note_on_c, 0, 68, 42
2, 7660, Control_c, 0, 64, 127
2, 7738, Note_off_c, 0, 68, 64
2, 7739, Note_off_c, 0, 49, 64
2, 7740, Note_on_c, 0, 68, 39
2, 7742, Note_on_c, 0, 61, 31
2, 7742, Note_on_c, 0, 56, 33
2, 7843, Note_off_c, 0, 68, 64
2, 7843, Note_on_c, 0, 69, 45
2, 7945, Note_off_c, 0, 69, 64
2, 7945, Note_off_c, 0, 56, 64
2, 7946, Note_off_c, 0, 61, 64
2, 7946, Note_on_c, 0, 69, 52
2, 7946, Note_on_c, 0, 54, 35
2, 8049, Note_off_c, 0, 69, 64
2, 8049, Note_on_c, 0, 70, 54
2, 8142, Control_c, 0, 64, 96
2, 8152, Note_off_c, 0, 70, 64
2, 8152, Note_off_c, 0, 54, 64
2, 8152, Note_off_c, 0, 64, 64
2, 8152, Note_on_c, 0, 73, 43
2, 8154, Note_on_c, 0, 63, 36
2, 8154, Note_on_c, 0, 69, 46
2, 8154, Note_on_c, 0, 47, 40
2, 8177, Control_c, 0, 64, 64
2, 8187, Control_c, 0, 64, 0
2, 8390, Note_off_c, 0, 47, 64
2, 8393, Note_on_c, 0, 66, 29
2, 8393, Note_on_c, 0, 59, 28
2, 8630, Note_off_c, 0, 59, 64
2, 8630, Note_off_c, 0, 66, 64
2, 8632, Note_off_c, 0, 73, 64
2, 8633, Note_on_c, 0, 71, 47
2, 8633, Note_on_c, 0, 59, 29
2, 8633, Note_on_c, 0, 66, 27
2, 8822, Control_c, 0, 64, 64
2, 8864, Control_c, 0, 64, 96
2, 8870, Note_off_c, 0, 66, 64
2, 8871, Note_off_c, 0, 69, 64
2, 8871, Note_off_c, 0, 59, 64
2, 8872, Note_off_c, 0, 63, 64
2, 8872, Note_on_c, 0, 68, 43
2, 8874, Note_on_c, 0, 52, 40
2, 8891, Control_c, 0, 64, 127
2, 8972, Note_off_c, 0, 71, 64
2, 8973, Note_on_c, 0, 71, 43
2, 9071, Note_off_c, 0, 71, 64
2, 9072, Note_off_c, 0, 52, 64
2, 9072, Note_on_c, 0, 71, 50
2, 9072, Note_on_c, 0, 64, 31
2, 9072, Note_on_c, 0, 59, 40
2, 9172, Note_off_c, 0, 71, 64
2, 9172, Note_on_c, 0, 73, 45
2, 9271, Note_off_c, 0, 73, 64
2, 9271, Note_off_c, 0, 59, 64
2, 9271, Note_off_c, 0, 64, 64
2, 9271, Note_off_c, 0, 68, 64
2, 9273, Note_on_c, 0, 73, 46
2, 9273, Note_on_c, 0, 68, 40
2, 9273, Note_on_c, 0, 58, 29
2, 9273, Note_on_c, 0, 64, 29
2, 9371, Note_off_c, 0, 73, 64
2, 9371, Note_on_c, 0, 74, 51
2, 9378, Control_c, 0, 64, 96
2, 9396, Control_c, 0, 64, 64
2, 9420, Control_c, 0, 64, 0
2, 9470, Note_off_c, 0, 74, 64
2, 9470, Note_off_c, 0, 64, 64
2, 9470, Note_off_c, 0, 58, 64
2, 9471, Note_off_c, 0, 68, 64
2, 9471, Note_on_c, 0, 51, 36
2, 9471, Note_on_c, 0, 74, 57
2, 9565, Note_off_c, 0, 74, 64
2, 9568, Note_on_c, 0, 75, 56
2, 9650, Control_c, 0, 64, 64
2, 9660, Note_off_c, 0, 51, 64
2, 9660, Note_off_c, 0, 75, 64
2, 9660, Note_on_c, 0, 75, 66
2, 9660, Note_on_c, 0, 59, 38
2, 9661, Note_on_c, 0, 68, 36
2, 9661, Note_on_c, 0, 71, 36
2, 9661, Note_on_c, 0, 63, 33
2, 9692, Control_c, 0, 64, 96
2, 9741, Control_c, 0, 64, 127
2, 9749, Note_off_c, 0, 75, 64
2, 9749, Note_on_c, 0, 80, 60
2, 9836, Note_off_c, 0, 80, 64
2, 9836, Note_off_c, 0, 63, 64
2, 9837, Note_off_c, 0, 71, 64
2, 9837, Note_off_c, 0, 68, 64
2, 9837, Note_off_c, 0, 59, 64
2, 9837, Note_on_c, 0, 80, 70
2, 9921, Note_off_c, 0, 80, 64
2, 9921, Note_on_c, 0, 79, 65
2, 10004, Note_off_c, 0, 79, 64
2, 10006, Note_on_c, 0, 79, 60
2, 10006, Note_on_c, 0, 39, 37
2, 10027, Control_c, 0, 64, 64
2, 10036, Control_c, 0, 64, 0
2, 10089, Note_off_c, 0, 79, 64
2, 10091, Note_on_c, 0, 78, 48
2, 10174, Note_off_c, 0, 78, 64
2, 10174, Note_off_c, 0, 39, 64
2, 10176, Note_on_c, 0, 78, 44
2, 10176, Note_on_c, 0, 67, 35
2, 10177, Note_on_c, 0, 61, 40
2, 10194, Control_c, 0, 64, 64
2, 10204, Control_c, 0, 64, 96
2, 10237, Control_c, 0, 64, 127
2, 10260, Note_off_c, 0, 78, 64
2, 10260, Note_on_c, 0, 77, 47
2, 10344, Note_off_c, 0, 77, 64
2, 10345, Note_off_c, 0, 61, 64
2, 10345, Note_off_c, 0, 67, 64
2, 10345, Note_on_c, 0, 77, 47
2, 10429, Note_off_c, 0, 77, 64
2, 10429, Note_on_c, 0, 76, 49
2, 10514, Note_off_c, 0, 76, 64
2, 10515, Note_on_c, 0, 76, 48
2, 10515, Note_on_c, 0, 44, 40
2, 10520, Control_c, 0, 64, 96
2, 10536, Control_c, 0, 64, 64
2, 10544, Control_c, 0, 64, 0
2, 10600, Note_off_c, 0, 76, 64
2, 10602, Note_on_c, 0, 75, 38
2, 10644, Control_c, 0, 64, 64
2, 10656, Control_c, 0, 64, 96
2, 10672, Control_c, 0, 64, 127
2, 10688, Note_off_c, 0, 75, 64
2, 10688, Note_off_c, 0, 44, 64
2, 10690, Note_on_c, 0, 75, 37
2, 10691, Note_on_c, 0, 60, 40
2, 10691, Note_on_c, 0, 66, 32
2, 10780, Note_off_c, 0, 75, 64
2, 10782, Note_on_c, 0, 74, 38
2, 10875, Note_off_c, 0, 74, 64
2, 10875, Note_off_c, 0, 66, 64
2, 10877, Note_off_c, 0, 60, 64
2, 10877, Note_on_c, 0, 74, 38
2, 10973, Note_off_c, 0, 74, 64
2, 10976, Note_on_c, 0, 73, 34
2, 11063, Control_c, 0, 64, 96
2, 11076, Note_off_c, 0, 73, 64
2, 11077, Note_on_c, 0, 73, 35
2, 11090, Control_c, 0, 64, 64
2, 11120, Control_c, 0, 64, 0
2, 11181, Note_off_c, 0, 73, 64
2, 11182, Note_on_c, 0, 72, 28
2, 11289, Note_off_c, 0, 72, 64
2, 11292, Note_on_c, 0, 72, 34
2, 11404, Note_off_c, 0, 72, 64
2, 11404, Note_on_c, 0, 71, 32
2, 11522, Note_off_c, 0, 71, 64
2, 11522, Note_on_c, 0, 71, 30
2, 11644, Note_off_c, 0, 71, 64
2, 11644, Note_on_c, 0, 69, 30
2, 11774, Note_off_c, 0, 69, 64
2, 11775, Note_on_c, 0, 76, 49
2, 11775, Note_on_c, 0, 68, 38
2, 11777, Note_on_c, 0, 37, 33
2, 11830, Control_c, 0, 64, 64
2, 11844, Control_c, 0, 64, 96
2, 11873, Control_c, 0, 64, 127
2, 12013, Note_off_c, 0, 37, 64
2, 12016, Note_on_c, 0, 61, 25
2, 12016, Note_on_c, 0, 64, 23
2, 12016, Note_on_c, 0, 56, 24
2, 12253, Note_off_c, 0, 56, 64
2, 12253, Note_off_c, 0, 64, 64
2, 12255, Note_off_c, 0, 61, 64
2, 12256, Note_on_c, 0, 56, 24
2, 12256, Note_on_c, 0, 64, 24
2, 12256, Note_on_c, 0, 61, 24
2, 12426, Control_c, 0, 64, 96
2, 12436, Control_c, 0, 64, 64
2, 12451, Control_c, 0, 64, 0
2, 12494, Note_off_c, 0, 61, 64
2, 12494, Note_off_c, 0, 64, 64
2, 12495, Note_off_c, 0, 68, 64
2, 12495, Note_off_c, 0, 76, 64
2, 12495, Note_off_c, 0, 56, 64
2, 12497, Note_on_c, 0, 75, 34
2, 12497, Note_on_c, 0, 67, 30
2, 12497, Note_on_c, 0, 39, 34
2, 12572, Control_c, 0, 64, 64
2, 12580, Control_c, 0, 64, 96
2, 12600, Control_c, 0, 64, 127
2, 12757, Note_off_c, 0, 39, 64
2, 12757, Note_on_c, 0, 61, 24
2, 12757, Note_on_c, 0, 51, 22
2, 12757, Note_on_c, 0, 58, 20
2, 13018, Note_off_c, 0, 58, 64
2, 13018, Note_off_c, 0, 51, 64
2, 13018, Note_off_c, 0, 61, 64
2, 13020, Note_on_c, 0, 58, 22
2, 13020, Note_on_c, 0, 61, 21
2, 13021, Note_on_c, 0, 51, 22
2, 13240, Control_c, 0, 64, 96
2, 13256, Control_c, 0, 64, 64
2, 13277, Control_c, 0, 64, 0
2, 13280, Note_off_c, 0, 51, 64
2, 13282, Note_off_c, 0, 61, 64
2, 13282, Note_off_c, 0, 58, 64
2, 13282, Note_off_c, 0, 67, 64
2, 13282, Note_off_c, 0, 75, 64
2, 13283, Note_on_c, 0, 44, 36
2, 13413, Note_on_c, 0, 68, 36
2, 13413, Note_on_c, 0, 66, 33
2, 13469, Note_on_c, 0, 71, 40
2, 13522, Note_off_c, 0, 71, 64
2, 13524, Note_off_c, 0, 44, 64
2, 13524, Note_off_c, 0, 66, 64
2, 13524, Note_off_c, 0, 68, 64
2, 13525, Note_on_c, 0, 69, 44
2, 13525, Note_on_c, 0, 66, 29
2, 13525, Note_on_c, 0, 51, 24
2, 13526, Note_on_c, 0, 60, 28
2, 13526, Note_on_c, 0, 56, 25
2, 13633, Note_off_c, 0, 66, 64
2, 13634, Note_off_c, 0, 69, 64
2, 13691, Note_on_c, 0, 68, 44
2, 13691, Note_on_c, 0, 66, 34
2, 13744, Note_off_c, 0, 66, 64
2, 13745, Note_off_c, 0, 68, 64
2, 13745, Note_off_c, 0, 56, 64
2, 13745, Note_off_c, 0, 60, 64
2, 13745, Note_off_c, 0, 51, 64
2, 13747, Note_on_c, 0, 75, 53
2, 13747, Note_on_c, 0, 66, 46
2, 13747, Note_on_c, 0, 51, 26
2, 13747, Note_on_c, 0, 56, 24
2, 13748, Note_on_c, 0, 60, 28
2, 13909, Control_c, 0, 64, 64
2, 13957, Control_c, 0, 64, 96
2, 13966, Note_off_c, 0, 60, 64
2, 13966, Note_off_c, 0, 56, 64
2, 13967, Note_off_c, 0, 51, 64
2, 13967, Note_off_c, 0, 66, 64
2, 13967, Note_off_c, 0, 75, 64
2, 13968, Note_on_c, 0, 49, 40
2, 13987, Control_c, 0, 64, 127
2, 14078, Note_on_c, 0, 68, 33
2, 14079, Note_on_c, 0, 66, 27
2, 14134, Note_on_c, 0, 71, 36
2, 14187, Note_off_c, 0, 71, 64
2, 14187, Note_off_c, 0, 66, 64
2, 14187, Note_off_c, 0, 68, 64
2, 14189, Note_off_c, 0, 49, 64
2, 14189, Note_on_c, 0, 69, 40
2, 14190, Note_on_c, 0, 63, 33
2, 14190, Note_on_c, 0, 56, 35
2, 14190, Note_on_c, 0, 66, 28
2, 14216, Control_c, 0, 64, 96
2, 14225, Control_c, 0, 64, 0
2, 14300, Note_off_c, 0, 66, 64
2, 14300, Note_off_c, 0, 69, 64
2, 14356, Note_on_c, 0, 66, 37
2, 14357, Note_on_c, 0, 68, 42
2, 14411, Note_off_c, 0, 66, 64
2, 14411, Note_off_c, 0, 68, 64
2, 14412, Note_off_c, 0, 56, 64
2, 14412, Note_off_c, 0, 63, 64
2, 14412, Note_on_c, 0, 73, 45
2, 14412, Note_on_c, 0, 64, 28
2, 14413, Note_on_c, 0, 56, 31
2, 14413, Note_on_c, 0, 61, 32
2, 14632, Note_off_c, 0, 61, 64
2, 14632, Note_off_c, 0, 56, 64
2, 14632, Note_off_c, 0, 64, 64
2, 14634, Note_off_c, 0, 73, 64
2, 14634, Note_on_c, 0, 73, 51
2, 14634, Note_on_c, 0, 64, 44
2, 14634, Note_on_c, 0, 40, 34
2, 14637, Control_c, 0, 64, 64
2, 14655, Control_c, 0, 64, 96
2, 14670, Control_c, 0, 64, 127
2, 14873, Note_off_c, 0, 40, 64
2, 14873, Note_on_c, 0, 57, 23
2, 14873, Note_on_c, 0, 52, 29
2, 15113, Note_off_c, 0, 52, 64
2, 15113, Note_off_c, 0, 57, 64
2, 15115, Note_on_c, 0, 52, 27
2, 15115, Note_on_c, 0, 57, 21
2, 15250, Control_c, 0, 64, 96
2, 15279, Control_c, 0, 64, 64
2, 15292, Control_c, 0, 64, 0
2, 15354, Note_off_c, 0, 57, 64
2, 15354, Note_off_c, 0, 52, 64
2, 15354, Note_off_c, 0, 64, 64
2, 15354, Note_off_c, 0, 73, 64
2, 15355, Note_on_c, 0, 72, 35
2, 15355, Note_on_c, 0, 63, 31
2, 15357, Note_on_c, 0, 40, 36
2, 15398, Control_c, 0, 64, 64
2, 15410, Control_c, 0, 64, 96
2, 15444, Control_c, 0, 64, 127
2, 15614, Note_off_c, 0, 40, 64
2, 15616, Note_on_c, 0, 57, 26
2, 15616, Note_on_c, 0, 54, 28
2, 15876, Note_off_c, 0, 54, 64
2, 15878, Note_off_c, 0, 57, 64
2, 15879, Note_on_c, 0, 54, 26
2, 15879, Note_on_c, 0, 57, 24
2, 16090, Control_c, 0, 64, 96
2, 16105, Control_c, 0, 64, 64
2, 16127, Control_c, 0, 64, 0
2, 16140, Note_off_c, 0, 57, 64
2, 16140, Note_off_c, 0, 54, 64
2, 16140, Note_off_c, 0, 63, 64
2, 16140, Note_off_c, 0, 72, 64
2, 16141, Note_on_c, 0, 40, 36
2, 16251, Control_c, 0, 64, 64
2, 16260, Control_c, 0, 64, 96
2, 16271, Note_on_c, 0, 62, 30
2, 16271, Note_on_c, 0, 64, 39
2, 16290, Control_c, 0, 64, 127
2, 16327, Note_on_c, 0, 68, 40
2, 16382, Note_off_c, 0, 68, 64
2, 16382, Note_off_c, 0, 64, 64
2, 16382, Note_off_c, 0, 62, 64
2, 16383, Note_off_c, 0, 40, 64
2, 16383, Note_on_c, 0, 66, 38
2, 16383, Note_on_c, 0, 62, 30
2, 16383, Note_on_c, 0, 56, 36
2, 16493, Note_off_c, 0, 62, 64
2, 16493, Note_off_c, 0, 66, 64
2, 16549, Note_on_c, 0, 64, 44
2, 16549, Note_on_c, 0, 62, 34
2, 16602, Note_off_c, 0, 62, 64
2, 16604, Note_off_c, 0, 64, 64
2, 16604, Note_off_c, 0, 56, 64
2, 16605, Note_on_c, 0, 62, 45
2, 16605, Note_on_c, 0, 71, 51
2, 16607, Note_on_c, 0, 52, 32
2, 16607, Note_on_c, 0, 56, 22
2, 16815, Control_c, 0, 64, 96
2, 16825, Note_off_c, 0, 56, 64
2, 16825, Note_off_c, 0, 52, 64
2, 16825, Note_off_c, 0, 71, 64
2, 16825, Note_off_c, 0, 62, 64
2, 16827, Note_on_c, 0, 45, 35
2, 16831, Control_c, 0, 64, 64
2, 16846, Control_c, 0, 64, 0
2, 16912, Control_c, 0, 64, 64
2, 16920, Control_c, 0, 64, 96
2, 16935, Control_c, 0, 64, 127
2, 16938, Note_on_c, 0, 62, 37
2, 16938, Note_on_c, 0, 64, 39
2, 16992, Note_on_c, 0, 68, 40
2, 17046, Note_off_c, 0, 68, 64
2, 17047, Note_off_c, 0, 64, 64
2, 17047, Note_off_c, 0, 62, 64
2, 17047, Note_off_c, 0, 45, 64
2, 17047, Note_on_c, 0, 66, 38
2, 17049, Note_on_c, 0, 61, 36
2, 17049, Note_on_c, 0, 57, 31
2, 17050, Note_on_c, 0, 52, 40
2, 17158, Note_off_c, 0, 61, 64
2, 17158, Note_off_c, 0, 66, 64
2, 17216, Note_on_c, 0, 64, 53
2, 17216, Note_on_c, 0, 61, 34
2, 17270, Note_off_c, 0, 61, 64
2, 17270, Note_off_c, 0, 64, 64
2, 17270, Note_off_c, 0, 52, 64
2, 17270, Note_off_c, 0, 57, 64
2, 17272, Note_on_c, 0, 69, 51
2, 17272, Note_on_c, 0, 61, 51
2, 17272, Note_on_c, 0, 51, 31
2, 17272, Note_on_c, 0, 57, 28
2, 17440, Control_c, 0, 64, 96
2, 17450, Control_c, 0, 64, 64
2, 17458, Control_c, 0, 64, 0
2, 17491, Note_off_c, 0, 57, 64
2, 17492, Note_off_c, 0, 51, 64
2, 17492, Note_off_c, 0, 61, 64
2, 17492, Note_off_c, 0, 69, 64
2, 17492, Note_on_c, 0, 60, 42
2, 17494, Note_on_c, 0, 69, 44
2, 17494, Note_on_c, 0, 66, 42
2, 17494, Note_on_c, 0, 44, 37
2, 17540, Control_c, 0, 64, 64
2, 17551, Control_c, 0, 64, 96
2, 17560, Control_c, 0, 64, 127
2, 17731, Note_off_c, 0, 44, 64
2, 17733, Note_on_c, 0, 63, 24
2, 17733, Note_on_c, 0, 56, 27
2, 17972, Note_off_c, 0, 56, 64
2, 17972, Note_off_c, 0, 63, 64
2, 17973, Note_off_c, 0, 69, 64
2, 17973, Note_on_c, 0, 68, 42
2, 17973, Note_on_c, 0, 56, 28
2, 17973, Note_on_c, 0, 63, 24
2, 18172, Control_c, 0, 64, 96
2, 18193, Control_c, 0, 64, 64
2, 18212, Note_off_c, 0, 63, 64
2, 18212, Note_off_c, 0, 56, 64
2, 18212, Note_off_c, 0, 66, 64
2, 18214, Note_off_c, 0, 60, 64
2, 18214, Note_on_c, 0, 65, 45
2, 18214, Note_on_c, 0, 49, 37
2, 18232, Control_c, 0, 64, 0
2, 18314, Note_off_c, 0, 68, 64
2, 18314, Note_off_c, 0, 65, 64
2, 18314, Note_on_c, 0, 70, 48
2, 18411, Note_off_c, 0, 70, 64
2, 18411, Note_off_c, 0, 49, 64
2, 18412, Note_on_c, 0, 70, 49
2, 18412, Note_on_c, 0, 59, 24
2, 18412, Note_on_c, 0, 61, 27
2, 18412, Note_on_c, 0, 56, 24
2, 18504, Note_off_c, 0, 70, 64
2, 18506, Note_on_c, 0, 71, 53
2, 18597, Note_off_c, 0, 71, 64
2, 18598, Note_off_c, 0, 56, 64
2, 18598, Note_off_c, 0, 61, 64
2, 18598, Note_off_c, 0, 59, 64
2, 18598, Note_on_c, 0, 71, 53
2, 18600, Note_on_c, 0, 61, 28
2, 18600, Note_on_c, 0, 59, 24
2, 18600, Note_on_c, 0, 56, 24
2, 18687, Note_off_c, 0, 71, 64
2, 18687, Note_on_c, 0, 72, 49
2, 18777, Note_off_c, 0, 72, 64
2, 18778, Note_off_c, 0, 56, 64
2, 18778, Note_off_c, 0, 59, 64
2, 18778, Note_off_c, 0, 61, 64
2, 18778, Note_on_c, 0, 75, 54
2, 18780, Note_on_c, 0, 64, 42
2, 18780, Note_on_c, 0, 42, 37
2, 18805, Control_c, 0, 64, 64
2, 18814, Control_c, 0, 64, 96
2, 18837, Control_c, 0, 64, 127
2, 19016, Note_off_c, 0, 42, 64
2, 19017, Note_on_c, 0, 66, 24
2, 19019, Note_on_c, 0, 58, 27
2, 19256, Note_off_c, 0, 75, 64
2, 19256, Note_off_c, 0, 66, 64
2, 19256, Note_off_c, 0, 58, 64
2, 19258, Note_on_c, 0, 73, 43
2, 19259, Note_on_c, 0, 58, 28
2, 19259, Note_on_c, 0, 66, 24
2, 19417, Control_c, 0, 64, 96
2, 19443, Control_c, 0, 64, 64
2, 19462, Control_c, 0, 64, 0
2, 19497, Note_off_c, 0, 66, 64
2, 19497, Note_off_c, 0, 58, 64
2, 19497, Note_off_c, 0, 64, 64
2, 19498, Note_on_c, 0, 63, 40
2, 19500, Note_on_c, 0, 47, 37
2, 19597, Note_off_c, 0, 73, 64
2, 19600, Note_on_c, 0, 66, 43
2, 19695, Note_off_c, 0, 66, 64
2, 19695, Note_off_c, 0, 47, 64
2, 19697, Note_on_c, 0, 66, 44
2, 19698, Note_on_c, 0, 59, 24
2, 19698, Note_on_c, 0, 57, 27
2, 19789, Note_off_c, 0, 66, 64
2, 19792, Note_on_c, 0, 68, 47
2, 19881, Note_off_c, 0, 68, 64
2, 19881, Note_off_c, 0, 57, 64
2, 19881, Note_off_c, 0, 59, 64
2, 19884, Note_on_c, 0, 68, 45
2, 19884, Note_on_c, 0, 57, 28
2, 19884, Note_on_c, 0, 59, 24
2, 19972, Note_off_c, 0, 68, 64
2, 19973, Note_on_c, 0, 69, 51
2, 20052, Control_c, 0, 64, 64
2, 20061, Note_off_c, 0, 69, 64
2, 20061, Note_off_c, 0, 59, 64
2, 20063, Note_off_c, 0, 57, 64
2, 20063, Note_off_c, 0, 63, 64
2, 20064, Note_on_c, 0, 73, 50
2, 20064, Note_on_c, 0, 62, 40
2, 20064, Note_on_c, 0, 40, 37
2, 20084, Control_c, 0, 64, 96
2, 20093, Control_c, 0, 64, 127
2, 20302, Note_off_c, 0, 40, 64
2, 20302, Note_on_c, 0, 56, 24
2, 20303, Note_on_c, 0, 47, 27
2, 20542, Note_off_c, 0, 47, 64
2, 20542, Note_off_c, 0, 56, 64
2, 20542, Note_off_c, 0, 73, 64
2, 20544, Note_on_c, 0, 71, 53
2, 20544, Note_on_c, 0, 41, 22
2, 20640, Control_c, 0, 64, 96
2, 20662, Control_c, 0, 64, 64
2, 20703, Control_c, 0, 64, 0
2, 20783, Note_off_c, 0, 41, 64
2, 20783, Note_off_c, 0, 62, 64
2, 20783, Note_on_c, 0, 61, 43
2, 20784, Note_on_c, 0, 42, 37
2, 20902, Note_off_c, 0, 71, 64
2, 20905, Note_on_c, 0, 69, 51
2, 21023, Note_off_c, 0, 69, 64
2, 21023, Note_off_c, 0, 42, 64
2, 21024, Note_on_c, 0, 68, 47
2, 21024, Note_on_c, 0, 57, 24
2, 21024, Note_on_c, 0, 51, 27
2, 21143, Note_off_c, 0, 68, 64
2, 21145, Note_on_c, 0, 66, 43
2, 21181, Note_off_c, 0, 66, 64
2, 21183, Note_on_c, 0, 68, 43
2, 21223, Note_off_c, 0, 68, 64
2, 21223, Note_on_c, 0, 66, 43
2, 21264, Note_off_c, 0, 66, 64
2, 21264, Note_off_c, 0, 51, 64
2, 21264, Note_off_c, 0, 57, 64
2, 21265, Note_on_c, 0, 64, 50
2, 21383, Note_off_c, 0, 64, 64
2, 21384, Note_on_c, 0, 66, 46
2, 21503, Note_off_c, 0, 66, 64
2, 21504, Note_off_c, 0, 61, 64
2, 21505, Note_on_c, 0, 67, 45
2, 21505, Note_on_c, 0, 44, 37
2, 21638, Note_off_c, 0, 67, 64
2, 21639, Note_on_c, 0, 68, 43
2, 21779, Note_off_c, 0, 68, 64
2, 21779, Note_off_c, 0, 44, 64
2, 21780, Note_on_c, 0, 56, 43
2, 21782, Note_on_c, 0, 61, 24
2, 21782, Note_on_c, 0, 52, 27
2, 21927, Note_off_c, 0, 56, 64
2, 21929, Note_on_c, 0, 64, 50
2, 22083, Note_off_c, 0, 64, 64
2, 22083, Note_off_c, 0, 52, 64
2, 22084, Note_off_c, 0, 61, 64
2, 22086, Note_on_c, 0, 64, 53
2, 22086, Note_on_c, 0, 54, 22
2, 22086, Note_on_c, 0, 60, 22
2, 22266, Control_c, 0, 64, 64
2, 22272, Note_off_c, 0, 64, 64
2, 22273, Note_on_c, 0, 63, 43
2, 22447, Control_c, 0, 64, 96
2, 22467, Control_c, 0, 64, 127
2, 22470, Note_off_c, 0, 63, 64
2, 22470, Note_off_c, 0, 60, 64
2, 22470, Note_off_c, 0, 54, 64
2, 22475, Note_on_c, 0, 61, 34
2, 22475, Note_on_c, 0, 37, 37
2, 22744, Control_c, 0, 64, 96
2, 22758, Control_c, 0, 64, 64
2, 22824, Control_c, 0, 64, 96
2, 22860, Control_c, 0, 64, 127
2, 22884, Note_off_c, 0, 37, 64
2, 22884, Note_off_c, 0, 61, 64
2, 22885, Note_on_c, 0, 64, 24
2, 22885, Note_on_c, 0, 56, 27
2, 23294, Note_off_c, 0, 56, 64
2, 23294, Note_off_c, 0, 64, 64
2, 23297, Note_on_c, 0, 68, 38
2, 23487, Control_c, 0, 64, 96
2, 23534, Control_c, 0, 64, 64
2, 23586, Control_c, 0, 64, 0
2, 23696, Control_c, 0, 64, 64
2, 23707, Note_off_c, 0, 68, 64
2, 23710, Control_c, 0, 64, 127
2, 23710, Note_on_c, 0, 80, 64
2, 23710, Control_c, 0, 64, 127
2, 23712, Note_on_c, 0, 48, 33
2, 23713, Control_c, 0, 64, 96
2, 23739, Control_c, 0, 64, 127
2, 23762, Note_off_c, 0, 80, 64
2, 23762, Note_on_c, 0, 81, 42
2, 23814, Note_off_c, 0, 81, 64
2, 23814, Note_off_c, 0, 48, 64
2, 23815, Note_on_c, 0, 80, 38
2, 23815, Note_on_c, 0, 63, 22
2, 23815, Note_on_c, 0, 56, 20
2, 23867, Note_off_c, 0, 56, 64
2, 23867, Note_off_c, 0, 63, 64
2, 23867, Note_off_c, 0, 80, 64
2, 23867, Note_on_c, 0, 78, 37
2, 23919, Note_off_c, 0, 78, 64
2, 23920, Note_on_c, 0, 75, 30
2, 23920, Note_on_c, 0, 63, 21
2, 23920, Note_on_c, 0, 56, 21
2, 23972, Note_off_c, 0, 56, 64
2, 23972, Note_off_c, 0, 63, 64
2, 23972, Note_off_c, 0, 75, 64
2, 23972, Control_c, 0, 64, 0
2, 23974, Note_on_c, 0, 68, 31
2, 23974, Control_c, 0, 64, 0
2, 23992, Control_c, 0, 64, 64
2, 24002, Control_c, 0, 64, 0
2, 24024, Note_off_c, 0, 68, 64
2, 24025, Note_on_c, 0, 78, 53
2, 24025, Control_c, 0, 64, 127
2, 24025, Note_on_c, 0, 49, 25
2, 24054, Control_c, 0, 64, 64
2, 24064, Control_c, 0, 64, 96
2, 24073, Control_c, 0, 64, 127
2, 24077, Note_off_c, 0, 78, 64
2, 24077, Note_on_c, 0, 80, 45
2, 24129, Note_off_c, 0, 80, 64
2, 24129, Note_off_c, 0, 49, 64
2, 24131, Note_on_c, 0, 78, 45
2, 24131, Note_on_c, 0, 56, 25
2, 24131, Note_on_c, 0, 64, 19
2, 24180, Note_off_c, 0, 64, 64
2, 24181, Note_off_c, 0, 56, 64
2, 24181, Note_off_c, 0, 78, 64
2, 24182, Note_on_c, 0, 76, 38
2, 24233, Note_off_c, 0, 76, 64
2, 24234, Note_on_c, 0, 73, 35
2, 24236, Note_on_c, 0, 56, 23
2, 24236, Note_on_c, 0, 64, 25
2, 24285, Note_off_c, 0, 64, 64
2, 24286, Note_off_c, 0, 56, 64
2, 24286, Note_off_c, 0, 73, 64
2, 24288, Note_on_c, 0, 68, 30
2, 24288, Control_c, 0, 64, 0
2, 24306, Control_c, 0, 64, 64
2, 24313, Control_c, 0, 64, 0
2, 24338, Note_off_c, 0, 68, 64
2, 24339, Note_on_c, 0, 76, 59
2, 24341, Control_c, 0, 64, 127
2, 24341, Note_on_c, 0, 44, 29
2, 24364, Control_c, 0, 64, 96
2, 24380, Control_c, 0, 64, 127
2, 24390, Note_off_c, 0, 76, 64
2, 24393, Note_on_c, 0, 78, 48
2, 24443, Note_off_c, 0, 78, 64
2, 24443, Note_off_c, 0, 44, 64
2, 24443, Note_on_c, 0, 76, 45
2, 24444, Note_on_c, 0, 54, 28
2, 24444, Note_on_c, 0, 60, 18
2, 24495, Note_off_c, 0, 60, 64
2, 24496, Note_off_c, 0, 54, 64
2, 24496, Note_off_c, 0, 76, 64
2, 24496, Note_on_c, 0, 75, 40
2, 24548, Note_off_c, 0, 75, 64
2, 24548, Note_on_c, 0, 72, 30
2, 24548, Note_on_c, 0, 54, 25
2, 24550, Note_on_c, 0, 60, 25
2, 24600, Note_off_c, 0, 60, 64
2, 24601, Note_off_c, 0, 54, 64
2, 24601, Note_off_c, 0, 72, 64
2, 24601, Note_on_c, 0, 66, 19
2, 24603, Control_c, 0, 64, 0
2, 24619, Control_c, 0, 64, 64
2, 24629, Control_c, 0, 64, 0
2, 24653, Note_off_c, 0, 66, 64
2, 24653, Note_on_c, 0, 75, 51
2, 24653, Note_on_c, 0, 45, 34
2, 24676, Control_c, 0, 64, 64
2, 24684, Control_c, 0, 64, 96
2, 24692, Control_c, 0, 64, 127
2, 24705, Note_off_c, 0, 75, 64
2, 24707, Note_on_c, 0, 76, 39
2, 24758, Note_off_c, 0, 76, 64
2, 24758, Note_off_c, 0, 45, 64
2, 24758, Note_on_c, 0, 75, 38
2, 24760, Note_on_c, 0, 61, 27
2, 24760, Note_on_c, 0, 52, 25
2, 24810, Note_off_c, 0, 52, 64
2, 24812, Note_off_c, 0, 61, 64
2, 24812, Note_off_c, 0, 75, 64
2, 24812, Note_on_c, 0, 73, 33
2, 24864, Note_off_c, 0, 73, 64
2, 24864, Note_on_c, 0, 69, 24
2, 24864, Note_on_c, 0, 52, 29
2, 24865, Note_on_c, 0, 61, 27
2, 24917, Note_off_c, 0, 61, 64
2, 24917, Note_off_c, 0, 52, 64
2, 24917, Note_off_c, 0, 69, 64
2, 24917, Note_on_c, 0, 64, 20
2, 24920, Control_c, 0, 64, 96
2, 24934, Control_c, 0, 64, 0
2, 24967, Note_off_c, 0, 64, 64
2, 24969, Note_on_c, 0, 73, 48
2, 24969, Note_on_c, 0, 42, 30
2, 24973, Control_c, 0, 64, 64
2, 24987, Control_c, 0, 64, 96
2, 24996, Control_c, 0, 64, 127
2, 25019, Note_off_c, 0, 73, 64
2, 25022, Note_on_c, 0, 75, 42
2, 25072, Note_off_c, 0, 75, 64
2, 25072, Note_off_c, 0, 42, 64
2, 25074, Note_on_c, 0, 73, 41
2, 25074, Note_on_c, 0, 54, 26
2, 25075, Note_on_c, 0, 61, 25
2, 25124, Note_off_c, 0, 61, 64
2, 25126, Note_off_c, 0, 54, 64
2, 25126, Note_off_c, 0, 73, 64
2, 25127, Note_on_c, 0, 69, 33
2, 25177, Note_off_c, 0, 69, 64
2, 25179, Note_on_c, 0, 63, 29
2, 25229, Note_off_c, 0, 63, 64
2, 25231, Note_on_c, 0, 73, 31
2, 25247, Control_c, 0, 64, 64
2, 25255, Control_c, 0, 64, 0
2, 25283, Note_off_c, 0, 73, 64
2, 25283, Note_on_c, 0, 73, 61
2, 25283, Note_on_c, 0, 44, 30
2, 25303, Control_c, 0, 64, 64
2, 25311, Control_c, 0, 64, 96
2, 25321, Control_c, 0, 64, 127
2, 25334, Note_off_c, 0, 73, 64
2, 25334, Note_on_c, 0, 75, 50
2, 25388, Note_off_c, 0, 75, 64
2, 25388, Note_off_c, 0, 44, 64
2, 25388, Note_on_c, 0, 73, 59
2, 25388, Note_on_c, 0, 56, 25
2, 25389, Note_on_c, 0, 52, 30
2, 25440, Note_off_c, 0, 52, 64
2, 25440, Note_off_c, 0, 56, 64
2, 25441, Note_off_c, 0, 73, 64
2, 25441, Note_on_c, 0, 68, 39
2, 25493, Note_off_c, 0, 68, 64
2, 25493, Note_on_c, 0, 61, 38
2, 25545, Note_off_c, 0, 61, 64
2, 25546, Note_on_c, 0, 68, 41
2, 25581, Control_c, 0, 64, 96
2, 25589, Control_c, 0, 64, 0
2, 25598, Note_off_c, 0, 68, 64
2, 25598, Note_on_c, 0, 68, 58
2, 25598, Note_on_c, 0, 44, 26
2, 25640, Control_c, 0, 64, 64
2, 25647, Control_c, 0, 64, 96
2, 25650, Note_off_c, 0, 68, 64
2, 25651, Note_on_c, 0, 56, 41
2, 25661, Control_c, 0, 64, 127
2, 25704, Note_off_c, 0, 56, 64
2, 25704, Note_off_c, 0, 44, 64
2, 25706, Note_on_c, 0, 63, 44
2, 25759, Note_off_c, 0, 63, 64
2, 25759, Note_on_c, 0, 68, 48
2, 25814, Note_off_c, 0, 68, 64
2, 25814, Note_on_c, 0, 54, 30
2, 25814, Note_on_c, 0, 60, 22
2, 25814, Note_on_c, 0, 69, 48
2, 25866, Control_c, 0, 64, 96
2, 25870, Note_off_c, 0, 69, 64
2, 25870, Note_on_c, 0, 68, 45
2, 25882, Control_c, 0, 64, 0
2, 25928, Note_off_c, 0, 68, 64
2, 25929, Note_off_c, 0, 60, 64
2, 25929, Note_off_c, 0, 54, 64
2, 25929, Control_c, 0, 64, 127
2, 25929, Note_on_c, 0, 67, 52
2, 25931, Note_on_c, 0, 49, 25
2, 25952, Control_c, 0, 64, 96
2, 25962, Control_c, 0, 64, 127
2, 25984, Note_off_c, 0, 67, 64
2, 25987, Note_on_c, 0, 68, 49
2, 26043, Note_off_c, 0, 68, 64
2, 26043, Note_off_c, 0, 49, 64
2, 26043, Note_on_c, 0, 72, 57
2, 26043, Note_on_c, 0, 56, 22
2, 26100, Note_off_c, 0, 56, 64
2, 26100, Note_off_c, 0, 72, 64
2, 26102, Note_on_c, 0, 73, 62
2, 26158, Note_off_c, 0, 73, 64
2, 26160, Note_on_c, 0, 76, 62
2, 26160, Note_on_c, 0, 64, 21
2, 26160, Note_on_c, 0, 56, 22
2, 26216, Note_off_c, 0, 56, 64
2, 26216, Note_off_c, 0, 64, 64
2, 26216, Note_off_c, 0, 76, 64
2, 26217, Note_on_c, 0, 78, 67
2, 26273, Note_off_c, 0, 78, 64
2, 26275, Note_on_c, 0, 80, 53
2, 26275, Note_on_c, 0, 48, 37
2, 26309, Control_c, 0, 64, 96
2, 26321, Control_c, 0, 64, 0
2, 26327, Note_off_c, 0, 80, 64
2, 26327, Note_on_c, 0, 81, 55
2, 26378, Note_off_c, 0, 81, 64
2, 26378, Note_off_c, 0, 48, 64
2, 26380, Control_c, 0, 64, 0
2, 26380, Note_on_c, 0, 80, 46
2, 26380, Note_on_c, 0, 63, 26
2, 26380, Note_on_c, 0, 56, 25
2, 26399, Control_c, 0, 64, 96
2, 26410, Control_c, 0, 64, 127
2, 26432, Note_off_c, 0, 56, 64
2, 26432, Note_off_c, 0, 63, 64
2, 26432, Note_off_c, 0, 80, 64
2, 26432, Note_on_c, 0, 78, 42
2, 26484, Note_off_c, 0, 78, 64
2, 26484, Note_on_c, 0, 75, 30
2, 26485, Note_on_c, 0, 63, 25
2, 26485, Note_on_c, 0, 56, 26
2, 26537, Note_off_c, 0, 56, 64
2, 26537, Note_off_c, 0, 63, 64
2, 26537, Note_off_c, 0, 75, 64
2, 26537, Note_on_c, 0, 68, 27
2, 26587, Control_c, 0, 64, 96
2, 26589, Note_off_c, 0, 68, 64
2, 26589, Note_on_c, 0, 78, 48
2, 26590, Note_on_c, 0, 49, 29
2, 26603, Control_c, 0, 64, 0
2, 26642, Note_off_c, 0, 78, 64
2, 26642, Note_on_c, 0, 80, 36
2, 26658, Control_c, 0, 64, 64
2, 26668, Control_c, 0, 64, 96
2, 26676, Control_c, 0, 64, 127
2, 26694, Note_off_c, 0, 80, 64
2, 26694, Note_off_c, 0, 49, 64
2, 26695, Note_on_c, 0, 78, 39
2, 26695, Note_on_c, 0, 56, 26
2, 26695, Note_on_c, 0, 64, 24
2, 26744, Note_off_c, 0, 64, 64
2, 26744, Note_off_c, 0, 56, 64
2, 26746, Note_off_c, 0, 78, 64
2, 26747, Note_on_c, 0, 76, 37
2, 26797, Note_off_c, 0, 76, 64
2, 26799, Note_on_c, 0, 73, 28
2, 26799, Note_on_c, 0, 56, 29
2, 26800, Note_on_c, 0, 64, 22
2, 26849, Note_off_c, 0, 64, 64
2, 26849, Note_off_c, 0, 56, 64
2, 26851, Note_off_c, 0, 73, 64
2, 26852, Note_on_c, 0, 68, 26
2, 26874, Control_c, 0, 64, 96
2, 26885, Control_c, 0, 64, 0
2, 26903, Note_off_c, 0, 68, 64
2, 26904, Note_on_c, 0, 76, 56
2, 26904, Note_on_c, 0, 44, 33
2, 26954, Note_off_c, 0, 76, 64
2, 26956, Note_on_c, 0, 78, 50
2, 26995, Control_c, 0, 64, 64
2, 27008, Note_off_c, 0, 78, 64
2, 27008, Note_off_c, 0, 44, 64
2, 27008, Note_on_c, 0, 76, 55
2, 27008, Note_on_c, 0, 54, 29
2, 27009, Note_on_c, 0, 60, 30
2, 27026, Control_c, 0, 64, 96
2, 27041, Control_c, 0, 64, 127
2, 27060, Note_off_c, 0, 60, 64
2, 27061, Note_off_c, 0, 54, 64
2, 27061, Note_off_c, 0, 76, 64
2, 27061, Note_on_c, 0, 75, 44
2, 27113, Note_off_c, 0, 75, 64
2, 27113, Note_on_c, 0, 72, 19
2, 27113, Note_on_c, 0, 54, 27
2, 27113, Note_on_c, 0, 60, 30
2, 27165, Note_off_c, 0, 60, 64
2, 27166, Note_off_c, 0, 54, 64
2, 27166, Note_off_c, 0, 72, 64
2, 27166, Note_on_c, 0, 66, 26
2, 27180, Control_c, 0, 64, 96
2, 27186, Control_c, 0, 64, 0
2, 27218, Note_off_c, 0, 66, 64
2, 27218, Note_on_c, 0, 75, 48
2, 27218, Note_on_c, 0, 45, 35
2, 27242, Control_c, 0, 64, 64
2, 27251, Control_c, 0, 64, 96
2, 27261, Control_c, 0, 64, 127
2, 27270, Note_off_c, 0, 75, 64
2, 27271, Note_on_c, 0, 76, 47
2, 27323, Note_off_c, 0, 76, 64
2, 27323, Note_off_c, 0, 45, 64
2, 27323, Note_on_c, 0, 75, 40
2, 27324, Note_on_c, 0, 61, 25
2, 27324, Note_on_c, 0, 52, 33
2, 27375, Note_off_c, 0, 52, 64
2, 27375, Note_off_c, 0, 61, 64
2, 27376, Note_off_c, 0, 75, 64
2, 27376, Note_on_c, 0, 73, 34
2, 27428, Note_off_c, 0, 73, 64
2, 27428, Note_on_c, 0, 69, 35
2, 27428, Note_on_c, 0, 61, 29
2, 27428, Note_on_c, 0, 52, 28
2, 27480, Note_off_c, 0, 52, 64
2, 27480, Note_off_c, 0, 61, 64
2, 27481, Note_off_c, 0, 69, 64
2, 27481, Note_on_c, 0, 64, 34
2, 27497, Control_c, 0, 64, 64
2, 27506, Control_c, 0, 64, 0
2, 27530, Note_off_c, 0, 64, 64
2, 27533, Note_on_c, 0, 69, 47
2, 27533, Note_on_c, 0, 42, 31
2, 27561, Control_c, 0, 64, 64
2, 27571, Control_c, 0, 64, 96
2, 27584, Note_off_c, 0, 69, 64
2, 27584, Note_on_c, 0, 71, 49
2, 27585, Control_c, 0, 64, 127
2, 27637, Note_off_c, 0, 71, 64
2, 27637, Note_off_c, 0, 42, 64
2, 27637, Note_on_c, 0, 73, 45
2, 27687, Note_off_c, 0, 73, 64
2, 27689, Note_on_c, 0, 74, 52
2, 27739, Note_off_c, 0, 74, 64
2, 27741, Note_on_c, 0, 57, 26
2, 27741, Note_on_c, 0, 62, 29
2, 27741, Note_on_c, 0, 69, 23
2, 27741, Note_on_c, 0, 76, 45
2, 27792, Note_off_c, 0, 76, 64
2, 27792, Note_on_c, 0, 78, 42
2, 27844, Note_off_c, 0, 69, 64
2, 27844, Note_off_c, 0, 78, 64
2, 27846, Note_off_c, 0, 62, 64
2, 27846, Note_off_c, 0, 57, 64
2, 27846, Note_on_c, 0, 79, 45
2, 27879, Control_c, 0, 64, 96
2, 27898, Note_off_c, 0, 79, 64
2, 27898, Note_on_c, 0, 80, 38
2, 27928, Control_c, 0, 64, 127
2, 27949, Note_off_c, 0, 80, 64
2, 27949, Note_on_c, 0, 81, 26
2, 28003, Note_off_c, 0, 81, 64
2, 28003, Note_on_c, 0, 81, 26
2, 28055, Note_off_c, 0, 81, 64
2, 28056, Note_on_c, 0, 83, 42
2, 28108, Note_off_c, 0, 83, 64
2, 28108, Note_on_c, 0, 85, 39
2, 28124, Control_c, 0, 64, 96
2, 28134, Control_c, 0, 64, 64
2, 28142, Control_c, 0, 64, 0
2, 28158, Note_off_c, 0, 85, 64
2, 28160, Note_on_c, 0, 86, 38
2, 28161, Note_on_c, 0, 44, 29
2, 28177, Control_c, 0, 64, 64
2, 28186, Control_c, 0, 64, 96
2, 28196, Control_c, 0, 64, 127
2, 28210, Note_off_c, 0, 86, 64
2, 28213, Note_on_c, 0, 87, 41
2, 28262, Note_off_c, 0, 87, 64
2, 28264, Note_off_c, 0, 44, 64
2, 28266, Note_on_c, 0, 88, 41
2, 28266, Note_on_c, 0, 66, 26
2, 28266, Note_on_c, 0, 60, 30
2, 28266, Note_on_c, 0, 56, 21
2, 28315, Note_off_c, 0, 56, 64
2, 28317, Note_off_c, 0, 60, 64
2, 28317, Note_off_c, 0, 66, 64
2, 28317, Note_off_c, 0, 88, 64
2, 28318, Note_on_c, 0, 89, 41
2, 28368, Note_off_c, 0, 89, 64
2, 28370, Note_on_c, 0, 90, 37
2, 28371, Note_on_c, 0, 66, 27
2, 28371, Note_on_c, 0, 56, 22
2, 28371, Note_on_c, 0, 60, 22
2, 28420, Note_off_c, 0, 60, 64
2, 28422, Note_off_c, 0, 56, 64
2, 28422, Note_off_c, 0, 66, 64
2, 28422, Note_off_c, 0, 90, 64
2, 28422, Note_on_c, 0, 91, 36
2, 28456, Control_c, 0, 64, 96
2, 28466, Control_c, 0, 64, 64
2, 28474, Note_off_c, 0, 91, 64
2, 28474, Note_on_c, 0, 92, 35
2, 28475, Note_on_c, 0, 49, 34
2, 28475, Control_c, 0, 64, 0
2, 28510, Control_c, 0, 64, 64
2, 28520, Control_c, 0, 64, 96
2, 28525, Note_off_c, 0, 92, 64
2, 28527, Note_on_c, 0, 97, 34
2, 28528, Control_c, 0, 64, 127
2, 28579, Note_off_c, 0, 97, 64
2, 28579, Note_off_c, 0, 49, 64
2, 28579, Note_on_c, 0, 56, 25
2, 28580, Note_on_c, 0, 64, 29
2, 28684, Note_off_c, 0, 64, 64
2, 28684, Note_off_c, 0, 56, 64
2, 28684, Note_on_c, 0, 68, 52
2, 28789, Note_off_c, 0, 68, 64
2, 28789, Control_c, 0, 64, 127
2, 28790, Note_on_c, 0, 80, 36
2, 28790, Note_on_c, 0, 48, 22
2, 28790, Control_c, 0, 64, 127
2, 28802, Control_c, 0, 64, 96
2, 28813, Control_c, 0, 64, 64
2, 28822, Control_c, 0, 64, 0
2, 28841, Note_off_c, 0, 80, 64
2, 28842, Note_on_c, 0, 81, 23
2, 28855, Control_c, 0, 64, 64
2, 28864, Control_c, 0, 64, 96
2, 28874, Control_c, 0, 64, 127
2, 28894, Note_off_c, 0, 81, 64
2, 28894, Note_off_c, 0, 48, 64
2, 28894, Note_on_c, 0, 80, 20
2, 28896, Note_on_c, 0, 63, 14
2, 28896, Note_on_c, 0, 56, 13
2, 28944, Note_off_c, 0, 56, 64
2, 28944, Note_off_c, 0, 63, 64
2, 28946, Note_off_c, 0, 80, 64
2, 28947, Note_on_c, 0, 78, 20
2, 28998, Note_off_c, 0, 78, 64
2, 28999, Note_on_c, 0, 75, 16
2, 28999, Note_on_c, 0, 63, 13
2, 28999, Note_on_c, 0, 56, 13
2, 29050, Note_off_c, 0, 56, 64
2, 29050, Note_off_c, 0, 63, 64
2, 29051, Note_off_c, 0, 75, 64
2, 29052, Control_c, 0, 64, 0
2, 29052, Note_on_c, 0, 68, 17
2, 29052, Control_c, 0, 64, 0
2, 29084, Control_c, 0, 64, 96
2, 29091, Control_c, 0, 64, 64
2, 29103, Note_off_c, 0, 68, 64
2, 29104, Note_on_c, 0, 78, 29
2, 29104, Control_c, 0, 64, 127
2, 29106, Note_on_c, 0, 49, 16
2, 29106, Control_c, 0, 64, 0
2, 29127, Control_c, 0, 64, 64
2, 29137, Control_c, 0, 64, 96
2, 29148, Control_c, 0, 64, 127
2, 29155, Note_off_c, 0, 78, 64
2, 29158, Note_on_c, 0, 80, 24
2, 29208, Note_off_c, 0, 80, 64
2, 29208, Note_off_c, 0, 49, 64
2, 29208, Note_on_c, 0, 78, 24
2, 29208, Note_on_c, 0, 56, 16
2, 29209, Note_on_c, 0, 64, 12
2, 29260, Note_off_c, 0, 64, 64
2, 29260, Note_off_c, 0, 56, 64
2, 29261, Note_off_c, 0, 78, 64
2, 29261, Note_on_c, 0, 76, 20
2, 29313, Note_off_c, 0, 76, 64
2, 29313, Note_on_c, 0, 73, 19
2, 29313, Note_on_c, 0, 56, 14
2, 29313, Note_on_c, 0, 64, 16
2, 29365, Note_off_c, 0, 64, 64
2, 29365, Note_off_c, 0, 56, 64
2, 29366, Note_off_c, 0, 73, 64
2, 29366, Note_on_c, 0, 68, 16
2, 29366, Control_c, 0, 64, 0
2, 29402, Control_c, 0, 64, 96
2, 29412, Control_c, 0, 64, 64
2, 29418, Note_off_c, 0, 68, 64
2, 29418, Note_on_c, 0, 76, 32
2, 29418, Control_c, 0, 64, 127
2, 29420, Note_on_c, 0, 44, 19
2, 29424, Control_c, 0, 64, 0
2, 29461, Control_c, 0, 64, 64
2, 29470, Note_off_c, 0, 76, 64
2, 29470, Note_on_c, 0, 78, 26
2, 29472, Control_c, 0, 64, 96
2, 29484, Control_c, 0, 64, 127
2, 29523, Note_off_c, 0, 78, 64
2, 29523, Note_off_c, 0, 44, 64
2, 29523, Note_on_c, 0, 76, 24
2, 29523, Note_on_c, 0, 54, 19
2, 29525, Note_on_c, 0, 60, 12
2, 29575, Note_off_c, 0, 60, 64
2, 29575, Note_off_c, 0, 54, 64
2, 29577, Note_off_c, 0, 76, 64
2, 29577, Note_on_c, 0, 75, 22
2, 29628, Note_off_c, 0, 75, 64
2, 29628, Note_on_c, 0, 72, 16
2, 29628, Note_on_c, 0, 54, 16
2, 29628, Note_on_c, 0, 60, 16
2, 29680, Note_off_c, 0, 60, 64
2, 29680, Note_off_c, 0, 54, 64
2, 29682, Note_off_c, 0, 72, 64
2, 29682, Note_on_c, 0, 66, 10
2, 29682, Control_c, 0, 64, 0
2, 29690, Control_c, 0, 64, 96
2, 29700, Control_c, 0, 64, 64
2, 29712, Control_c, 0, 64, 0
2, 29734, Note_off_c, 0, 66, 64
2, 29734, Note_on_c, 0, 75, 28
2, 29734, Note_on_c, 0, 45, 22
2, 29749, Control_c, 0, 64, 64
2, 29760, Control_c, 0, 64, 96
2, 29768, Control_c, 0, 64, 127
2, 29784, Note_off_c, 0, 75, 64
2, 29785, Note_on_c, 0, 76, 21
2, 29836, Note_off_c, 0, 76, 64
2, 29837, Note_off_c, 0, 45, 64
2, 29839, Note_on_c, 0, 75, 20
2, 29839, Note_on_c, 0, 61, 18
2, 29839, Note_on_c, 0, 52, 16
2, 29889, Note_off_c, 0, 52, 64
2, 29889, Note_off_c, 0, 61, 64
2, 29889, Note_off_c, 0, 75, 64
2, 29891, Note_on_c, 0, 73, 18
2, 29941, Note_off_c, 0, 73, 64
2, 29944, Note_on_c, 0, 69, 12
2, 29944, Note_on_c, 0, 52, 19
2, 29944, Note_on_c, 0, 61, 18
2, 29994, Note_off_c, 0, 61, 64
2, 29994, Note_off_c, 0, 52, 64
2, 29994, Note_off_c, 0, 69, 64
2, 29996, Note_on_c, 0, 64, 11
2, 30012, Control_c, 0, 64, 64
2, 30020, Control_c, 0, 64, 0
2, 30046, Note_off_c, 0, 64, 64
2, 30048, Note_on_c, 0, 73, 26
2, 30048, Note_on_c, 0, 42, 20
2, 30060, Control_c, 0, 64, 64
2, 30069, Control_c, 0, 64, 96
2, 30078, Control_c, 0, 64, 127
2, 30099, Note_off_c, 0, 73, 64
2, 30099, Note_on_c, 0, 75, 23
2, 30151, Note_off_c, 0, 75, 64
2, 30151, Note_off_c, 0, 42, 64
2, 30153, Note_on_c, 0, 73, 22
2, 30153, Note_on_c, 0, 54, 17
2, 30153, Note_on_c, 0, 61, 16
2, 30204, Note_off_c, 0, 61, 64
2, 30204, Note_off_c, 0, 54, 64
2, 30204, Note_off_c, 0, 73, 64
2, 30206, Note_on_c, 0, 69, 18
2, 30258, Note_off_c, 0, 69, 64
2, 30258, Note_on_c, 0, 63, 15
2, 30310, Note_off_c, 0, 63, 64
2, 30310, Note_on_c, 0, 73, 17
2, 30327, Control_c, 0, 64, 96
2, 30334, Control_c, 0, 64, 64
2, 30343, Control_c, 0, 64, 0
2, 30361, Note_off_c, 0, 73, 64
2, 30363, Note_on_c, 0, 73, 34
2, 30363, Note_on_c, 0, 44, 20
2, 30380, Control_c, 0, 64, 64
2, 30390, Control_c, 0, 64, 96
2, 30399, Control_c, 0, 64, 127
2, 30413, Note_off_c, 0, 73, 64
2, 30415, Note_on_c, 0, 75, 27
2, 30467, Note_off_c, 0, 75, 64
2, 30468, Note_off_c, 0, 44, 64
2, 30468, Note_on_c, 0, 73, 32
2, 30468, Note_on_c, 0, 56, 16
2, 30468, Note_on_c, 0, 52, 20
2, 30520, Note_off_c, 0, 52, 64
2, 30520, Note_off_c, 0, 56, 64
2, 30520, Note_off_c, 0, 73, 64
2, 30521, Note_on_c, 0, 68, 21
2, 30570, Note_off_c, 0, 68, 64
2, 30572, Note_on_c, 0, 61, 20
2, 30611, Control_c, 0, 64, 96
2, 30624, Note_off_c, 0, 61, 64
2, 30625, Note_on_c, 0, 68, 22
2, 30648, Control_c, 0, 64, 64
2, 30670, Control_c, 0, 64, 0
2, 30675, Note_off_c, 0, 68, 64
2, 30678, Note_on_c, 0, 68, 31
2, 30678, Note_on_c, 0, 44, 17
2, 30729, Note_off_c, 0, 68, 64
2, 30730, Note_on_c, 0, 56, 22
2, 30782, Note_off_c, 0, 56, 64
2, 30783, Note_off_c, 0, 44, 64
2, 30783, Note_on_c, 0, 63, 24
2, 30804, Control_c, 0, 64, 64
2, 30812, Control_c, 0, 64, 96
2, 30822, Control_c, 0, 64, 127
2, 30837, Note_off_c, 0, 63, 64
2, 30838, Note_on_c, 0, 68, 26
2, 30893, Note_off_c, 0, 68, 64
2, 30894, Note_on_c, 0, 69, 26
2, 30894, Note_on_c, 0, 54, 20
2, 30894, Note_on_c, 0, 60, 14
2, 30949, Note_off_c, 0, 69, 64
2, 30950, Note_on_c, 0, 68, 24
2, 31007, Note_off_c, 0, 68, 64
2, 31007, Note_off_c, 0, 60, 64
2, 31007, Note_off_c, 0, 54, 64
2, 31008, Control_c, 0, 64, 127
2, 31008, Note_on_c, 0, 67, 29
2, 31008, Note_on_c, 0, 49, 16
2, 31064, Note_off_c, 0, 67, 64
2, 31064, Note_on_c, 0, 68, 27
2, 31122, Note_off_c, 0, 68, 64
2, 31123, Note_off_c, 0, 49, 64
2, 31123, Note_on_c, 0, 72, 31
2, 31123, Note_on_c, 0, 56, 14
2, 31178, Note_off_c, 0, 56, 64
2, 31179, Note_off_c, 0, 72, 64
2, 31181, Note_on_c, 0, 73, 34
2, 31237, Note_off_c, 0, 73, 64
2, 31238, Note_on_c, 0, 76, 34
2, 31240, Note_on_c, 0, 64, 13
2, 31240, Note_on_c, 0, 56, 14
2, 31295, Note_off_c, 0, 56, 64
2, 31296, Note_off_c, 0, 64, 64
2, 31296, Note_off_c, 0, 76, 64
2, 31296, Note_on_c, 0, 78, 36
2, 31306, Control_c, 0, 64, 96
2, 31316, Control_c, 0, 64, 0
2, 31354, Note_off_c, 0, 78, 64
2, 31354, Note_on_c, 0, 80, 29
2, 31354, Note_on_c, 0, 48, 25
2, 31381, Control_c, 0, 64, 64
2, 31391, Control_c, 0, 64, 96
2, 31400, Control_c, 0, 64, 127
2, 31405, Note_off_c, 0, 80, 64
2, 31407, Note_on_c, 0, 81, 30
2, 31459, Note_off_c, 0, 81, 64
2, 31459, Note_off_c, 0, 48, 64
2, 31459, Control_c, 0, 64, 0
2, 31460, Note_on_c, 0, 80, 25
2, 31460, Note_on_c, 0, 63, 17
2, 31460, Note_on_c, 0, 56, 16
2, 31511, Note_off_c, 0, 56, 64
2, 31511, Note_off_c, 0, 63, 64
2, 31512, Note_off_c, 0, 80, 64
2, 31512, Note_on_c, 0, 78, 23
2, 31561, Note_off_c, 0, 78, 64
2, 31564, Note_on_c, 0, 75, 16
2, 31564, Note_on_c, 0, 63, 16
2, 31564, Note_on_c, 0, 56, 17
2, 31614, Note_off_c, 0, 56, 64
2, 31614, Note_off_c, 0, 63, 64
2, 31616, Note_off_c, 0, 75, 64
2, 31616, Note_on_c, 0, 68, 14
2, 31627, Control_c, 0, 64, 96
2, 31636, Control_c, 0, 64, 0
2, 31666, Note_off_c, 0, 68, 64
2, 31669, Note_on_c, 0, 78, 26
2, 31669, Note_on_c, 0, 49, 19
2, 31691, Control_c, 0, 64, 64
2, 31699, Control_c, 0, 64, 96
2, 31709, Control_c, 0, 64, 127
2, 31718, Note_off_c, 0, 78, 64
2, 31721, Note_on_c, 0, 80, 19
2, 31771, Note_off_c, 0, 80, 64
2, 31773, Note_off_c, 0, 49, 64
2, 31773, Note_on_c, 0, 78, 21
2, 31773, Note_on_c, 0, 56, 17
2, 31773, Note_on_c, 0, 64, 15
2, 31824, Note_off_c, 0, 64, 64
2, 31824, Note_off_c, 0, 56, 64
2, 31824, Note_off_c, 0, 78, 64
2, 31826, Note_on_c, 0, 76, 20
2, 31876, Note_off_c, 0, 76, 64
2, 31878, Note_on_c, 0, 73, 14
2, 31878, Note_on_c, 0, 56, 19
2, 31878, Note_on_c, 0, 64, 14
2, 31930, Note_off_c, 0, 64, 64
2, 31930, Note_off_c, 0, 56, 64
2, 31930, Note_off_c, 0, 73, 64
2, 31931, Note_on_c, 0, 68, 13
2, 31950, Control_c, 0, 64, 64
2, 31960, Control_c, 0, 64, 0
2, 31981, Note_off_c, 0, 68, 64
2, 31983, Note_on_c, 0, 76, 30
2, 31983, Note_on_c, 0, 44, 22
2, 32010, Control_c, 0, 64, 64
2, 32019, Control_c, 0, 64, 96
2, 32029, Control_c, 0, 64, 127
2, 32035, Note_off_c, 0, 76, 64
2, 32035, Note_on_c, 0, 78, 27
2, 32087, Note_off_c, 0, 78, 64
2, 32088, Note_off_c, 0, 44, 64
2, 32088, Note_on_c, 0, 76, 30
2, 32088, Note_on_c, 0, 54, 19
2, 32089, Note_on_c, 0, 60, 20
2, 32140, Note_off_c, 0, 60, 64
2, 32140, Note_off_c, 0, 54, 64
2, 32140, Note_off_c, 0, 76, 64
2, 32141, Note_on_c, 0, 75, 24
2, 32193, Note_off_c, 0, 75, 64
2, 32193, Note_on_c, 0, 72, 10
2, 32193, Note_on_c, 0, 54, 18
2, 32193, Note_on_c, 0, 60, 20
2, 32245, Note_off_c, 0, 60, 64
2, 32245, Note_off_c, 0, 54, 64
2, 32245, Note_off_c, 0, 72, 64
2, 32246, Note_on_c, 0, 66, 13
2, 32262, Control_c, 0, 64, 64
2, 32271, Control_c, 0, 64, 0
2, 32297, Note_off_c, 0, 66, 64
2, 32298, Note_on_c, 0, 75, 26
2, 32298, Note_on_c, 0, 45, 23
2, 32317, Control_c, 0, 64, 64
2, 32326, Control_c, 0, 64, 96
2, 32340, Control_c, 0, 64, 127
2, 32349, Note_off_c, 0, 75, 64
2, 32350, Note_on_c, 0, 76, 25
2, 32400, Note_off_c, 0, 76, 64
2, 32400, Note_off_c, 0, 45, 64
2, 32403, Note_on_c, 0, 75, 22
2, 32403, Note_on_c, 0, 61, 16
2, 32403, Note_on_c, 0, 52, 22
2, 32454, Note_off_c, 0, 52, 64
2, 32454, Note_off_c, 0, 61, 64
2, 32454, Note_off_c, 0, 75, 64
2, 32455, Note_on_c, 0, 73, 18
2, 32506, Note_off_c, 0, 73, 64
2, 32508, Note_on_c, 0, 69, 19
2, 32508, Note_on_c, 0, 61, 19
2, 32508, Note_on_c, 0, 52, 19
2, 32559, Note_off_c, 0, 52, 64
2, 32559, Note_off_c, 0, 61, 64
2, 32559, Note_off_c, 0, 69, 64
2, 32559, Note_on_c, 0, 64, 18
2, 32562, Control_c, 0, 64, 96
2, 32578, Control_c, 0, 64, 0
2, 32611, Note_off_c, 0, 64, 64
2, 32611, Note_on_c, 0, 69, 25
2, 32612, Note_on_c, 0, 42, 20
2, 32629, Control_c, 0, 64, 64
2, 32641, Control_c, 0, 64, 96
2, 32651, Control_c, 0, 64, 127
2, 32664, Note_off_c, 0, 69, 64
2, 32664, Note_on_c, 0, 71, 27
2, 32716, Note_off_c, 0, 71, 64
2, 32716, Note_off_c, 0, 42, 64
2, 32717, Note_on_c, 0, 73, 24
2, 32769, Note_off_c, 0, 73, 64
2, 32771, Note_on_c, 0, 74, 29
2, 32822, Note_off_c, 0, 74, 64
2, 32825, Note_on_c, 0, 76, 24
2, 32825, Note_on_c, 0, 57, 17
2, 32825, Note_on_c, 0, 62, 19
2, 32827, Note_on_c, 0, 69, 14
2, 32857, Control_c, 0, 64, 96
2, 32866, Control_c, 0, 64, 64
2, 32876, Control_c, 0, 64, 0
2, 32880, Note_off_c, 0, 76, 64
2, 32880, Note_on_c, 0, 78, 23
2, 32923, Control_c, 0, 64, 64
2, 32933, Control_c, 0, 64, 96
2, 32936, Note_off_c, 0, 78, 64
2, 32936, Note_off_c, 0, 69, 64
2, 32936, Note_off_c, 0, 62, 64
2, 32936, Note_off_c, 0, 57, 64
2, 32938, Note_on_c, 0, 79, 24
2, 32956, Control_c, 0, 64, 127
2, 32992, Note_off_c, 0, 79, 64
2, 32994, Note_on_c, 0, 80, 20
2, 33050, Note_off_c, 0, 80, 64
2, 33051, Note_on_c, 0, 81, 13
2, 33109, Note_off_c, 0, 81, 64
2, 33110, Note_on_c, 0, 81, 13
2, 33171, Note_off_c, 0, 81, 64
2, 33171, Note_on_c, 0, 83, 23
2, 33230, Note_off_c, 0, 83, 64
2, 33233, Note_on_c, 0, 85, 21
2, 33293, Note_off_c, 0, 85, 64
2, 33295, Note_on_c, 0, 86, 20
2, 33295, Note_on_c, 0, 44, 19
2, 33357, Note_off_c, 0, 86, 64
2, 33357, Note_on_c, 0, 87, 22
2, 33419, Note_off_c, 0, 87, 64
2, 33419, Note_off_c, 0, 44, 64
2, 33419, Note_on_c, 0, 88, 22
2, 33419, Note_on_c, 0, 66, 17
2, 33420, Note_on_c, 0, 60, 20
2, 33420, Note_on_c, 0, 56, 13
2, 33482, Note_off_c, 0, 56, 64
2, 33482, Note_off_c, 0, 60, 64
2, 33482, Note_off_c, 0, 66, 64
2, 33483, Note_off_c, 0, 88, 64
2, 33483, Note_on_c, 0, 89, 22
2, 33544, Note_off_c, 0, 89, 64
2, 33544, Note_on_c, 0, 90, 20
2, 33545, Note_on_c, 0, 66, 18
2, 33545, Note_on_c, 0, 56, 14
2, 33545, Note_on_c, 0, 60, 14
2, 33604, Control_c, 0, 64, 96
2, 33606, Note_off_c, 0, 60, 64
2, 33606, Note_off_c, 0, 56, 64
2, 33607, Note_off_c, 0, 90, 64
2, 33607, Note_off_c, 0, 66, 64
2, 33607, Note_on_c, 0, 91, 19
2, 33619, Control_c, 0, 64, 64
2, 33630, Control_c, 0, 64, 0
2, 33669, Note_off_c, 0, 91, 64
2, 33671, Note_on_c, 0, 92, 19
2, 33671, Note_on_c, 0, 49, 22
2, 33691, Control_c, 0, 64, 64
2, 33699, Control_c, 0, 64, 96
2, 33709, Control_c, 0, 64, 127
2, 33731, Note_off_c, 0, 92, 64
2, 33732, Note_on_c, 0, 97, 18
2, 33796, Note_off_c, 0, 97, 64
2, 33796, Note_off_c, 0, 49, 64
2, 33796, Note_on_c, 0, 56, 16
2, 33797, Note_on_c, 0, 64, 19
2, 33920, Note_off_c, 0, 64, 64
2, 33920, Note_off_c, 0, 56, 64
2, 34131, Control_c, 0, 64, 96
2, 34290, Control_c, 0, 64, 64
2, 34327, Control_c, 0, 64, 0
2, 34424, Control_c, 0, 64, 64
2, 34424, Control_c, 0, 64, 96
2, 34424, Control_c, 0, 64, 127
2, 34834, Note_on_c, 0, 65, 29
2, 35014, Note_off_c, 0, 65, 64
2, 35014, Note_on_c, 0, 77, 54
2, 35014, Note_on_c, 0, 37, 16
2, 35194, Note_off_c, 0, 37, 64
2, 35194, Note_on_c, 0, 56, 11
2, 35196, Note_on_c, 0, 65, 7
2, 35196, Note_on_c, 0, 61, 11
2, 35374, Note_off_c, 0, 61, 64
2, 35374, Note_off_c, 0, 65, 64
2, 35376, Note_off_c, 0, 56, 64
2, 35376, Note_on_c, 0, 65, 9
2, 35376, Note_on_c, 0, 61, 11
2, 35376, Note_on_c, 0, 56, 12
2, 35554, Note_off_c, 0, 77, 64
2, 35556, Note_on_c, 0, 77, 41
2, 35770, Note_off_c, 0, 56, 64
2, 35770, Note_off_c, 0, 61, 64
2, 35772, Note_off_c, 0, 65, 64
2, 35773, Note_on_c, 0, 56, 18
2, 35773, Note_on_c, 0, 65, 13
2, 35773, Note_on_c, 0, 61, 11
2, 35979, Note_off_c, 0, 61, 64
2, 35979, Note_off_c, 0, 65, 64
2, 35979, Note_off_c, 0, 56, 64
2, 35980, Note_off_c, 0, 77, 64
2, 35980, Note_on_c, 0, 75, 35
2, 35982, Note_on_c, 0, 57, 12
2, 35982, Note_on_c, 0, 61, 12
2, 35982, Note_on_c, 0, 65, 11
2, 36006, Control_c, 0, 64, 96
2, 36022, Control_c, 0, 64, 64
2, 36058, Control_c, 0, 64, 0
2, 36182, Note_off_c, 0, 65, 64
2, 36182, Note_off_c, 0, 61, 64
2, 36182, Note_on_c, 0, 49, 22
2, 36378, Note_off_c, 0, 49, 64
2, 36378, Note_off_c, 0, 57, 64
2, 36378, Note_on_c, 0, 58, 15
2, 36378, Note_on_c, 0, 65, 9
2, 36565, Note_off_c, 0, 75, 64
2, 36565, Note_off_c, 0, 65, 64
2, 36565, Note_off_c, 0, 58, 64
2, 36566, Note_on_c, 0, 58, 15
2, 36566, Note_on_c, 0, 73, 36
2, 36568, Note_on_c, 0, 65, 10
2, 36748, Note_off_c, 0, 73, 64
2, 36749, Note_on_c, 0, 72, 31
2, 36929, Note_off_c, 0, 72, 64
2, 36929, Note_off_c, 0, 65, 64
2, 36929, Note_on_c, 0, 70, 29
2, 36929, Note_on_c, 0, 49, 20
2, 37109, Note_off_c, 0, 49, 64
2, 37109, Note_off_c, 0, 70, 64
2, 37109, Note_on_c, 0, 65, 32
2, 37109, Note_on_c, 0, 50, 18
2, 37289, Note_off_c, 0, 50, 64
2, 37289, Note_off_c, 0, 65, 64
2, 37289, Note_on_c, 0, 66, 41
2, 37291, Note_on_c, 0, 51, 18
2, 37345, Control_c, 0, 64, 64
2, 37353, Control_c, 0, 64, 127
2, 37469, Note_off_c, 0, 66, 64
2, 37469, Note_off_c, 0, 51, 64
2, 37471, Note_off_c, 0, 58, 64
2, 37471, Note_on_c, 0, 58, 18
2, 37649, Note_off_c, 0, 58, 64
2, 37651, Note_on_c, 0, 58, 16
2, 37651, Note_on_c, 0, 66, 12
2, 37829, Note_on_c, 0, 78, 49
2, 38044, Note_off_c, 0, 66, 64
2, 38044, Note_off_c, 0, 58, 64
2, 38045, Note_on_c, 0, 58, 18
2, 38047, Note_on_c, 0, 66, 13
2, 38250, Note_off_c, 0, 66, 64
2, 38251, Note_off_c, 0, 58, 64
2, 38251, Note_off_c, 0, 78, 64
2, 38251, Note_on_c, 0, 77, 41
2, 38251, Note_on_c, 0, 59, 21
2, 38253, Note_on_c, 0, 66, 15
2, 38446, Note_off_c, 0, 66, 64
2, 38446, Control_c, 0, 64, 96
2, 38447, Note_on_c, 0, 51, 22
2, 38461, Control_c, 0, 64, 64
2, 38476, Control_c, 0, 64, 0
2, 38633, Note_off_c, 0, 51, 64
2, 38634, Note_off_c, 0, 59, 64
2, 38634, Note_off_c, 0, 77, 64
2, 38636, Note_on_c, 0, 75, 33
2, 38636, Note_on_c, 0, 60, 13
2, 38636, Note_on_c, 0, 66, 11
2, 38813, Note_off_c, 0, 66, 64
2, 38814, Note_off_c, 0, 60, 64
2, 38814, Note_on_c, 0, 60, 16
2, 38814, Note_on_c, 0, 66, 11
2, 38899, Note_off_c, 0, 75, 64
2, 38902, Note_on_c, 0, 73, 22
2, 38986, Note_off_c, 0, 73, 64
2, 38987, Note_on_c, 0, 72, 28
2, 39056, Control_c, 0, 64, 64
2, 39071, Note_off_c, 0, 72, 64
2, 39072, Note_on_c, 0, 73, 23
2, 39094, Control_c, 0, 64, 96
2, 39128, Control_c, 0, 64, 127
2, 39156, Note_off_c, 0, 73, 64
2, 39156, Note_off_c, 0, 66, 64
2, 39157, Note_on_c, 0, 77, 25
2, 39157, Note_on_c, 0, 51, 26
2, 39242, Note_off_c, 0, 77, 64
2, 39242, Note_on_c, 0, 75, 22
2, 39325, Note_off_c, 0, 75, 64
2, 39327, Note_off_c, 0, 51, 64
2, 39327, Note_on_c, 0, 72, 31
2, 39327, Note_on_c, 0, 52, 25
2, 39410, Note_off_c, 0, 72, 64
2, 39410, Note_on_c, 0, 70, 26
2, 39495, Note_off_c, 0, 70, 64
2, 39495, Note_off_c, 0, 52, 64
2, 39497, Note_on_c, 0, 68, 31
2, 39497, Note_on_c, 0, 53, 24
2, 39498, Control_c, 0, 64, 96
2, 39510, Control_c, 0, 64, 0
2, 39664, Note_off_c, 0, 68, 64
2, 39664, Note_off_c, 0, 60, 64
2, 39665, Note_on_c, 0, 60, 14
2, 39667, Note_on_c, 0, 68, 13
2, 39687, Control_c, 0, 64, 64
2, 39697, Control_c, 0, 64, 96
2, 39730, Control_c, 0, 64, 127
2, 39835, Note_off_c, 0, 68, 64
2, 39835, Note_off_c, 0, 60, 64
2, 39835, Note_off_c, 0, 53, 64
2, 39835, Note_on_c, 0, 80, 52
2, 39837, Note_on_c, 0, 60, 16
2, 39837, Note_on_c, 0, 68, 15
2, 39952, Control_c, 0, 64, 96
2, 39959, Control_c, 0, 64, 64
2, 39978, Control_c, 0, 64, 0
2, 40015, Note_off_c, 0, 68, 64
2, 40015, Note_off_c, 0, 60, 64
2, 40015, Note_on_c, 0, 53, 22
2, 40081, Control_c, 0, 64, 64
2, 40092, Control_c, 0, 64, 96
2, 40104, Control_c, 0, 64, 127
2, 40195, Note_off_c, 0, 53, 64
2, 40195, Note_off_c, 0, 80, 64
2, 40195, Note_on_c, 0, 78, 44
2, 40197, Note_on_c, 0, 68, 16
2, 40197, Note_on_c, 0, 58, 13
2, 40197, Note_on_c, 0, 62, 13
2, 40375, Note_off_c, 0, 62, 64
2, 40375, Note_off_c, 0, 58, 64
2, 40377, Note_off_c, 0, 78, 64
2, 40377, Note_off_c, 0, 68, 64
2, 40377, Note_on_c, 0, 77, 43
2, 40377, Note_on_c, 0, 68, 16
2, 40378, Note_on_c, 0, 58, 18
2, 40378, Note_on_c, 0, 62, 13
2, 40531, Control_c, 0, 64, 96
2, 40539, Control_c, 0, 64, 64
2, 40547, Control_c, 0, 64, 0
2, 40555, Note_off_c, 0, 62, 64
2, 40555, Note_off_c, 0, 58, 64
2, 40557, Note_off_c, 0, 68, 64
2, 40557, Note_off_c, 0, 77, 64
2, 40557, Note_on_c, 0, 77, 40
2, 40557, Note_on_c, 0, 54, 18
2, 40603, Control_c, 0, 64, 64
2, 40610, Control_c, 0, 64, 127
2, 40735, Note_off_c, 0, 54, 64
2, 40737, Note_off_c, 0, 77, 64
2, 40737, Note_on_c, 0, 75, 51
2, 40737, Note_on_c, 0, 58, 13
2, 40737, Note_on_c, 0, 66, 12
2, 40738, Note_on_c, 0, 63, 13
2, 40917, Note_off_c, 0, 63, 64
2, 40917, Note_off_c, 0, 66, 64
2, 40917, Note_off_c, 0, 58, 64
2, 40917, Note_off_c, 0, 75, 64
2, 40917, Note_on_c, 0, 85, 55
2, 40918, Note_on_c, 0, 70, 15
2, 40918, Note_on_c, 0, 63, 16
2, 40918, Note_on_c, 0, 58, 13
2, 41097, Note_off_c, 0, 58, 64
2, 41097, Note_off_c, 0, 63, 64
2, 41097, Note_off_c, 0, 70, 64
2, 41097, Note_on_c, 0, 54, 18
2, 41277, Note_off_c, 0, 54, 64
2, 41278, Note_on_c, 0, 58, 16
2, 41280, Note_on_c, 0, 70, 15
2, 41280, Note_on_c, 0, 63, 18
2, 41457, Note_off_c, 0, 63, 64
2, 41457, Note_off_c, 0, 70, 64
2, 41457, Note_off_c, 0, 58, 64
2, 41458, Note_off_c, 0, 85, 64
2, 41460, Note_on_c, 0, 85, 35
2, 41460, Note_on_c, 0, 70, 12
2, 41460, Note_on_c, 0, 58, 13
2, 41460, Note_on_c, 0, 63, 13
2, 41578, Control_c, 0, 64, 96
2, 41586, Control_c, 0, 64, 64
2, 41596, Control_c, 0, 64, 0
2, 41674, Note_off_c, 0, 63, 64
2, 41674, Note_off_c, 0, 58, 64
2, 41676, Note_off_c, 0, 70, 64
2, 41677, Note_on_c, 0, 55, 21
2, 41769, Control_c, 0, 64, 64
2, 41782, Control_c, 0, 64, 96
2, 41791, Control_c, 0, 64, 127
2, 41890, Note_off_c, 0, 55, 64
2, 41890, Note_off_c, 0, 85, 64
2, 41893, Note_on_c, 0, 84, 40
2, 41893, Note_on_c, 0, 70, 15
2, 41893, Note_on_c, 0, 61, 16
2, 41893, Note_on_c, 0, 64, 16
2, 42103, Note_off_c, 0, 64, 64
2, 42103, Note_off_c, 0, 61, 64
2, 42103, Note_off_c, 0, 70, 64
2, 42105, Note_on_c, 0, 70, 13
2, 42105, Note_on_c, 0, 61, 12
2, 42105, Note_on_c, 0, 64, 11
2, 42208, Note_off_c, 0, 84, 64
2, 42210, Note_on_c, 0, 82, 44
2, 42311, Note_off_c, 0, 82, 64
2, 42311, Note_off_c, 0, 64, 64
2, 42312, Note_off_c, 0, 61, 64
2, 42312, Note_off_c, 0, 70, 64
2, 42313, Note_on_c, 0, 84, 49
2, 42313, Note_on_c, 0, 56, 22
2, 42329, Control_c, 0, 64, 64
2, 42338, Control_c, 0, 64, 0
2, 42417, Control_c, 0, 64, 64
2, 42427, Control_c, 0, 64, 96
2, 42433, Control_c, 0, 64, 127
2, 42518, Note_off_c, 0, 56, 64
2, 42518, Note_off_c, 0, 84, 64
2, 42518, Note_on_c, 0, 82, 44
2, 42518, Note_on_c, 0, 65, 16
2, 42519, Note_on_c, 0, 73, 16
2, 42718, Note_off_c, 0, 73, 64
2, 42718, Note_off_c, 0, 65, 64
2, 42720, Note_off_c, 0, 82, 64
2, 42721, Note_on_c, 0, 81, 44
2, 42897, Control_c, 0, 64, 96
2, 42905, Control_c, 0, 64, 64
2, 42914, Control_c, 0, 64, 0
2, 42917, Note_off_c, 0, 81, 64
2, 42920, Note_on_c, 0, 80, 41
2, 42920, Note_on_c, 0, 44, 18
2, 43025, Control_c, 0, 64, 64
2, 43042, Control_c, 0, 64, 96
2, 43055, Control_c, 0, 64, 127
2, 43114, Note_off_c, 0, 44, 64
2, 43114, Note_off_c, 0, 80, 64
2, 43116, Note_on_c, 0, 79, 41
2, 43307, Note_off_c, 0, 79, 64
2, 43307, Note_on_c, 0, 78, 30
2, 43308, Note_on_c, 0, 66, 16
2, 43308, Note_on_c, 0, 56, 18
2, 43310, Note_on_c, 0, 60, 16
2, 43476, Control_c, 0, 64, 96
2, 43483, Control_c, 0, 64, 64
2, 43491, Control_c, 0, 64, 0
2, 43499, Note_off_c, 0, 60, 64
2, 43500, Note_off_c, 0, 56, 64
2, 43500, Note_off_c, 0, 66, 64
2, 43500, Note_off_c, 0, 78, 64
2, 43501, Note_on_c, 0, 77, 44
2, 43501, Note_on_c, 0, 49, 18
2, 43594, Note_off_c, 0, 77, 64
2, 43596, Note_on_c, 0, 72, 34
2, 43693, Note_off_c, 0, 72, 64
2, 43693, Note_off_c, 0, 49, 64
2, 43693, Note_on_c, 0, 73, 31
2, 43693, Note_on_c, 0, 56, 19
2, 43694, Note_on_c, 0, 65, 11
2, 43694, Note_on_c, 0, 61, 17
2, 43717, Note_on_c, 0, 75, 36
2, 43739, Note_off_c, 0, 73, 64
2, 43742, Note_on_c, 0, 73, 51
2, 43764, Note_off_c, 0, 75, 64
2, 43788, Note_off_c, 0, 73, 64
2, 43788, Note_on_c, 0, 72, 44
2, 43884, Note_off_c, 0, 72, 64
2, 43884, Note_off_c, 0, 61, 64
2, 43884, Note_off_c, 0, 65, 64
2, 43884, Note_off_c, 0, 56, 64
2, 43886, Note_on_c, 0, 73, 38
2, 43886, Note_on_c, 0, 64, 13
2, 43887, Note_on_c, 0, 55, 16
2, 43887, Note_on_c, 0, 61, 16
2, 43980, Note_off_c, 0, 73, 64
2, 43982, Note_on_c, 0, 70, 38
2, 44076, Note_off_c, 0, 70, 64
2, 44076, Note_off_c, 0, 61, 64
2, 44076, Note_off_c, 0, 55, 64
2, 44076, Note_off_c, 0, 64, 64
2, 44077, Note_on_c, 0, 68, 44
2, 44077, Note_on_c, 0, 37, 18
2, 44144, Control_c, 0, 64, 64
2, 44149, Control_c, 0, 64, 96
2, 44162, Control_c, 0, 64, 127
2, 44256, Note_off_c, 0, 37, 64
2, 44256, Note_off_c, 0, 68, 64
2, 44257, Note_on_c, 0, 56, 19
2, 44257, Note_on_c, 0, 65, 11
2, 44437, Note_off_c, 0, 65, 64
2, 44437, Note_off_c, 0, 56, 64
2, 44439, Note_on_c, 0, 77, 44
2, 44439, Note_on_c, 0, 56, 19
2, 44439, Note_on_c, 0, 65, 14
2, 44602, Control_c, 0, 64, 96
2, 44609, Control_c, 0, 64, 64
2, 44616, Control_c, 0, 64, 0
2, 44617, Note_off_c, 0, 65, 64
2, 44619, Note_off_c, 0, 56, 64
2, 44619, Note_on_c, 0, 49, 20
2, 44695, Control_c, 0, 64, 64
2, 44707, Control_c, 0, 64, 96
2, 44714, Control_c, 0, 64, 127
2, 44799, Note_off_c, 0, 49, 64
2, 44799, Note_on_c, 0, 56, 21
2, 44799, Note_on_c, 0, 65, 13
2, 44972, Control_c, 0, 64, 96
2, 44976, Control_c, 0, 64, 64
2, 44979, Note_off_c, 0, 65, 64
2, 44979, Note_off_c, 0, 56, 64
2, 44979, Note_off_c, 0, 77, 64
2, 44980, Note_on_c, 0, 75, 38
2, 44980, Note_on_c, 0, 65, 11
2, 44980, Note_on_c, 0, 57, 16
2, 44998, Control_c, 0, 64, 0
2, 45195, Note_off_c, 0, 65, 64
2, 45196, Note_on_c, 0, 49, 20
2, 45402, Note_off_c, 0, 49, 64
2, 45404, Note_off_c, 0, 57, 64
2, 45404, Note_off_c, 0, 75, 64
2, 45405, Note_on_c, 0, 73, 32
2, 45405, Note_on_c, 0, 58, 18
2, 45405, Note_on_c, 0, 65, 16
2, 45605, Note_off_c, 0, 65, 64
2, 45605, Note_off_c, 0, 58, 64
2, 45607, Note_off_c, 0, 73, 64
2, 45607, Note_on_c, 0, 58, 12
2, 45607, Note_on_c, 0, 69, 34
2, 45607, Note_on_c, 0, 65, 12
2, 45801, Note_off_c, 0, 65, 64
2, 45801, Note_off_c, 0, 69, 64
2, 45801, Note_on_c, 0, 72, 41
2, 45872, Note_off_c, 0, 72, 64
2, 45873, Note_on_c, 0, 70, 28
2, 45944, Note_off_c, 0, 70, 64
2, 45944, Note_on_c, 0, 64, 34
2, 45991, Note_on_c, 0, 49, 23
2, 46013, Note_off_c, 0, 64, 64
2, 46013, Note_on_c, 0, 65, 29
2, 46082, Note_off_c, 0, 65, 64
2, 46083, Note_on_c, 0, 66, 44
2, 46150, Note_off_c, 0, 66, 64
2, 46151, Note_on_c, 0, 65, 39
2, 46171, Note_off_c, 0, 49, 64
2, 46173, Note_on_c, 0, 50, 22
2, 46217, Note_off_c, 0, 65, 64
2, 46217, Note_on_c, 0, 70, 41
2, 46285, Note_off_c, 0, 70, 64
2, 46285, Note_on_c, 0, 69, 36
2, 46353, Note_off_c, 0, 69, 64
2, 46353, Note_off_c, 0, 50, 64
2, 46354, Note_on_c, 0, 68, 44
2, 46354, Note_on_c, 0, 51, 22
2, 46413, Note_off_c, 0, 68, 64
2, 46413, Note_on_c, 0, 67, 41
2, 46474, Note_off_c, 0, 67, 64
2, 46474, Note_on_c, 0, 66, 28
2, 46533, Note_off_c, 0, 51, 64
2, 46533, Note_off_c, 0, 58, 64
2, 46534, Note_off_c, 0, 66, 64
2, 46534, Note_on_c, 0, 78, 41
2, 46534, Note_on_c, 0, 58, 18
2, 46554, Control_c, 0, 64, 64
2, 46560, Control_c, 0, 64, 96
2, 46567, Control_c, 0, 64, 127
2, 46623, Note_off_c, 0, 78, 64
2, 46713, Note_off_c, 0, 58, 64
2, 46714, Note_on_c, 0, 58, 18
2, 46714, Note_on_c, 0, 66, 13
2, 46893, Note_off_c, 0, 66, 64
2, 46894, Note_on_c, 0, 51, 22
2, 47008, Control_c, 0, 64, 96
2, 47014, Control_c, 0, 64, 64
2, 47021, Control_c, 0, 64, 0
2, 47074, Note_off_c, 0, 58, 64
2, 47074, Note_off_c, 0, 51, 64
2, 47074, Note_on_c, 0, 58, 18
2, 47074, Note_on_c, 0, 66, 16
2, 47254, Note_off_c, 0, 66, 64
2, 47254, Note_off_c, 0, 58, 64
2, 47254, Note_on_c, 0, 77, 41
2, 47254, Note_on_c, 0, 59, 21
2, 47256, Note_on_c, 0, 66, 15
2, 47467, Note_off_c, 0, 66, 64
2, 47470, Note_on_c, 0, 51, 23
2, 47675, Note_off_c, 0, 51, 64
2, 47675, Note_off_c, 0, 59, 64
2, 47675, Note_off_c, 0, 77, 64
2, 47676, Note_on_c, 0, 75, 35
2, 47676, Note_on_c, 0, 60, 16
2, 47676, Note_on_c, 0, 66, 13
2, 47869, Note_off_c, 0, 66, 64
2, 47870, Note_off_c, 0, 60, 64
2, 47872, Note_off_c, 0, 75, 64
2, 47872, Note_on_c, 0, 73, 38
2, 47872, Note_on_c, 0, 60, 18
2, 47872, Note_on_c, 0, 66, 15
2, 48012, Note_on_c, 0, 72, 36
2, 48058, Note_off_c, 0, 72, 64
2, 48059, Note_off_c, 0, 73, 64
2, 48059, Note_on_c, 0, 73, 34
2, 48082, Note_on_c, 0, 75, 32
2, 48102, Note_off_c, 0, 73, 64
2, 48127, Note_off_c, 0, 75, 64
2, 48127, Note_on_c, 0, 73, 36
2, 48236, Note_off_c, 0, 66, 64
2, 48238, Note_off_c, 0, 73, 64
2, 48238, Note_on_c, 0, 72, 31
2, 48239, Note_on_c, 0, 51, 26
2, 48325, Note_off_c, 0, 72, 64
2, 48325, Note_on_c, 0, 75, 38
2, 48410, Note_off_c, 0, 75, 64
2, 48410, Note_off_c, 0, 51, 64
2, 48410, Note_on_c, 0, 70, 33
2, 48412, Note_on_c, 0, 52, 25
2, 48497, Note_off_c, 0, 70, 64
2, 48497, Note_on_c, 0, 72, 44
2, 48579, Note_off_c, 0, 52, 64
2, 48580, Note_off_c, 0, 72, 64
2, 48582, Note_on_c, 0, 68, 48
2, 48582, Note_on_c, 0, 53, 26
2, 48747, Note_off_c, 0, 53, 64
2, 48749, Note_off_c, 0, 68, 64
2, 48749, Note_off_c, 0, 60, 64
2, 48749, Note_on_c, 0, 60, 20
2, 48749, Note_on_c, 0, 68, 20
2, 48912, Note_off_c, 0, 68, 64
2, 48912, Note_off_c, 0, 60, 64
2, 48913, Note_on_c, 0, 80, 48
2, 48914, Note_on_c, 0, 60, 20
2, 48914, Note_on_c, 0, 68, 18
2, 49002, Control_c, 0, 64, 64
2, 49012, Control_c, 0, 64, 96
2, 49031, Control_c, 0, 64, 127
2, 49073, Note_off_c, 0, 68, 64
2, 49073, Note_off_c, 0, 60, 64
2, 49076, Note_on_c, 0, 53, 22
2, 49233, Note_off_c, 0, 53, 64
2, 49234, Note_off_c, 0, 80, 64
2, 49234, Note_on_c, 0, 78, 38
2, 49236, Note_on_c, 0, 68, 20
2, 49236, Note_on_c, 0, 58, 18
2, 49236, Note_on_c, 0, 62, 16
2, 49394, Note_off_c, 0, 62, 64
2, 49394, Note_off_c, 0, 58, 64
2, 49394, Note_off_c, 0, 68, 64
2, 49395, Note_on_c, 0, 58, 16
2, 49395, Note_on_c, 0, 68, 18
2, 49395, Note_on_c, 0, 62, 8
2, 49475, Note_off_c, 0, 78, 64
2, 49475, Note_on_c, 0, 77, 41
2, 49509, Control_c, 0, 64, 96
2, 49513, Control_c, 0, 64, 0
2, 49554, Note_off_c, 0, 62, 64
2, 49554, Note_off_c, 0, 68, 64
2, 49554, Note_off_c, 0, 58, 64
2, 49555, Note_off_c, 0, 77, 64
2, 49555, Note_on_c, 0, 77, 49
2, 49555, Note_on_c, 0, 54, 22
2, 49580, Control_c, 0, 64, 64
2, 49585, Control_c, 0, 64, 127
2, 49714, Note_off_c, 0, 54, 64
2, 49715, Note_off_c, 0, 77, 64
2, 49715, Note_on_c, 0, 75, 51
2, 49715, Note_on_c, 0, 66, 18
2, 49715, Note_on_c, 0, 58, 18
2, 49716, Note_on_c, 0, 63, 18
2, 49875, Note_off_c, 0, 63, 64
2, 49875, Note_off_c, 0, 58, 64
2, 49875, Note_off_c, 0, 66, 64
2, 49875, Note_off_c, 0, 75, 64
2, 49876, Note_on_c, 0, 85, 55
2, 49876, Note_on_c, 0, 70, 18
2, 49876, Note_on_c, 0, 63, 18
2, 49876, Note_on_c, 0, 58, 18
2, 50033, Note_off_c, 0, 58, 64
2, 50035, Note_off_c, 0, 63, 64
2, 50035, Note_off_c, 0, 70, 64
2, 50035, Note_on_c, 0, 55, 24
2, 50048, Control_c, 0, 64, 64
2, 50055, Control_c, 0, 64, 0
2, 50100, Control_c, 0, 64, 64
2, 50107, Control_c, 0, 64, 127
2, 50196, Note_off_c, 0, 55, 64
2, 50196, Note_on_c, 0, 70, 18
2, 50196, Note_on_c, 0, 64, 17
2, 50196, Note_on_c, 0, 61, 18
2, 50354, Note_off_c, 0, 61, 64
2, 50356, Note_off_c, 0, 64, 64
2, 50356, Note_off_c, 0, 70, 64
2, 50356, Note_off_c, 0, 85, 64
2, 50356, Note_on_c, 0, 85, 35
2, 50357, Note_on_c, 0, 58, 22
2, 50514, Note_off_c, 0, 58, 64
2, 50517, Note_on_c, 0, 73, 22
2, 50517, Note_on_c, 0, 64, 18
2, 50517, Note_on_c, 0, 67, 16
2, 50676, Note_off_c, 0, 67, 64
2, 50677, Note_off_c, 0, 64, 64
2, 50677, Note_off_c, 0, 73, 64
2, 50677, Note_off_c, 0, 85, 64
2, 50677, Note_on_c, 0, 84, 29
2, 50677, Note_on_c, 0, 61, 24
2, 50841, Note_off_c, 0, 61, 64
2, 50841, Note_off_c, 0, 84, 64
2, 50843, Note_on_c, 0, 82, 27
2, 50843, Note_on_c, 0, 67, 20
2, 50843, Note_on_c, 0, 76, 21
2, 50843, Note_on_c, 0, 70, 18
2, 51015, Note_off_c, 0, 70, 64
2, 51017, Note_off_c, 0, 76, 64
2, 51017, Note_off_c, 0, 67, 64
2, 51017, Note_off_c, 0, 82, 64
2, 51017, Note_on_c, 0, 80, 25
2, 51018, Control_c, 0, 64, 96
2, 51028, Control_c, 0, 64, 64
2, 51047, Control_c, 0, 64, 0
2, 51203, Note_off_c, 0, 80, 64
2, 51204, Note_on_c, 0, 79, 23
2, 51403, Note_off_c, 0, 79, 64
2, 51403, Note_on_c, 0, 78, 21
2, 51616, Note_off_c, 0, 78, 64
2, 51617, Note_on_c, 0, 76, 19
2, 51851, Note_off_c, 0, 76, 64
2, 51852, Note_on_c, 0, 75, 22
2, 52116, Note_off_c, 0, 75, 64
2, 52117, Note_on_c, 0, 73, 25
2, 52416, Note_off_c, 0, 73, 64
2, 52418, Note_on_c, 0, 72, 25
2, 52584, Note_off_c, 0, 72, 64
2, 52584, Note_on_c, 0, 73, 22
2, 52764, Note_off_c, 0, 73, 64
2, 52764, Note_on_c, 0, 75, 22
2, 52962, Note_off_c, 0, 75, 64
2, 52964, Note_on_c, 0, 73, 20
2, 53180, Note_off_c, 0, 73, 64
2, 53181, Note_on_c, 0, 76, 26
2, 53423, Note_off_c, 0, 76, 64
2, 53423, Note_on_c, 0, 67, 15
2, 53658, Control_c, 0, 64, 64
2, 53695, Note_off_c, 0, 67, 64
2, 53695, Control_c, 0, 64, 127
2, 53695, Note_on_c, 0, 80, 64
2, 53697, Note_on_c, 0, 48, 33
2, 53697, Note_on_c, 0, 68, 40
2, 53697, Control_c, 0, 64, 127
2, 53747, Note_off_c, 0, 68, 64
2, 53747, Note_off_c, 0, 80, 64
2, 53748, Note_on_c, 0, 81, 42
2, 53777, Control_c, 0, 64, 96
2, 53790, Control_c, 0, 64, 127
2, 53800, Note_off_c, 0, 81, 64
2, 53800, Note_off_c, 0, 48, 64
2, 53800, Note_on_c, 0, 80, 38
2, 53800, Note_on_c, 0, 63, 22
2, 53802, Note_on_c, 0, 56, 20
2, 53852, Note_off_c, 0, 56, 64
2, 53852, Note_off_c, 0, 63, 64
2, 53854, Note_off_c, 0, 80, 64
2, 53854, Note_on_c, 0, 78, 37
2, 53905, Note_off_c, 0, 78, 64
2, 53905, Note_on_c, 0, 75, 30
2, 53905, Note_on_c, 0, 63, 21
2, 53905, Note_on_c, 0, 56, 21
2, 53957, Note_off_c, 0, 56, 64
2, 53957, Note_off_c, 0, 63, 64
2, 53959, Note_off_c, 0, 75, 64
2, 53959, Control_c, 0, 64, 0
2, 53959, Note_on_c, 0, 68, 31
2, 53960, Control_c, 0, 64, 0
2, 53996, Control_c, 0, 64, 96
2, 54006, Control_c, 0, 64, 64
2, 54011, Note_off_c, 0, 68, 64
2, 54011, Note_on_c, 0, 78, 53
2, 54011, Control_c, 0, 64, 127
2, 54012, Note_on_c, 0, 49, 25
2, 54016, Control_c, 0, 64, 0
2, 54062, Note_off_c, 0, 78, 64
2, 54064, Note_on_c, 0, 80, 45
2, 54116, Note_off_c, 0, 80, 64
2, 54116, Note_off_c, 0, 49, 64
2, 54116, Note_on_c, 0, 78, 45
2, 54116, Note_on_c, 0, 56, 25
2, 54117, Note_on_c, 0, 64, 19
2, 54143, Control_c, 0, 64, 64
2, 54168, Note_off_c, 0, 64, 64
2, 54168, Note_off_c, 0, 56, 64
2, 54169, Note_off_c, 0, 78, 64
2, 54169, Note_on_c, 0, 76, 38
2, 54169, Control_c, 0, 64, 96
2, 54186, Control_c, 0, 64, 127
2, 54221, Note_off_c, 0, 76, 64
2, 54221, Note_on_c, 0, 73, 35
2, 54221, Note_on_c, 0, 56, 23
2, 54221, Note_on_c, 0, 64, 25
2, 54271, Note_off_c, 0, 64, 64
2, 54271, Note_off_c, 0, 56, 64
2, 54271, Note_off_c, 0, 73, 64
2, 54273, Note_on_c, 0, 68, 30
2, 54274, Control_c, 0, 64, 0
2, 54323, Note_off_c, 0, 68, 64
2, 54326, Note_on_c, 0, 76, 59
2, 54326, Control_c, 0, 64, 127
2, 54326, Note_on_c, 0, 44, 29
2, 54329, Control_c, 0, 64, 96
2, 54346, Control_c, 0, 64, 0
2, 54375, Note_off_c, 0, 76, 64
2, 54378, Note_on_c, 0, 78, 48
2, 54414, Control_c, 0, 64, 64
2, 54421, Control_c, 0, 64, 96
2, 54428, Note_off_c, 0, 78, 64
2, 54430, Note_off_c, 0, 44, 64
2, 54431, Note_on_c, 0, 76, 45
2, 54431, Note_on_c, 0, 54, 28
2, 54431, Note_on_c, 0, 60, 18
2, 54457, Control_c, 0, 64, 127
2, 54481, Note_off_c, 0, 60, 64
2, 54481, Note_off_c, 0, 54, 64
2, 54481, Note_off_c, 0, 76, 64
2, 54483, Note_on_c, 0, 75, 40
2, 54533, Note_off_c, 0, 75, 64
2, 54535, Note_on_c, 0, 72, 30
2, 54535, Note_on_c, 0, 54, 25
2, 54535, Note_on_c, 0, 60, 25
2, 54587, Note_off_c, 0, 60, 64
2, 54587, Note_off_c, 0, 54, 64
2, 54587, Note_off_c, 0, 72, 64
2, 54588, Note_on_c, 0, 66, 19
2, 54588, Control_c, 0, 64, 0
2, 54633, Control_c, 0, 64, 96
2, 54638, Note_off_c, 0, 66, 64
2, 54640, Note_on_c, 0, 45, 34
2, 54640, Note_on_c, 0, 75, 51
2, 54644, Control_c, 0, 64, 0
2, 54692, Note_off_c, 0, 75, 64
2, 54692, Note_on_c, 0, 76, 39
2, 54723, Control_c, 0, 64, 64
2, 54744, Note_off_c, 0, 76, 64
2, 54745, Note_off_c, 0, 45, 64
2, 54745, Note_on_c, 0, 75, 38
2, 54745, Note_on_c, 0, 61, 27
2, 54745, Note_on_c, 0, 52, 25
2, 54754, Control_c, 0, 64, 96
2, 54771, Control_c, 0, 64, 127
2, 54797, Note_off_c, 0, 52, 64
2, 54797, Note_off_c, 0, 61, 64
2, 54797, Note_off_c, 0, 75, 64
2, 54798, Note_on_c, 0, 73, 33
2, 54849, Note_off_c, 0, 73, 64
2, 54850, Note_on_c, 0, 69, 24
2, 54850, Note_on_c, 0, 52, 29
2, 54850, Note_on_c, 0, 61, 27
2, 54902, Note_off_c, 0, 61, 64
2, 54902, Note_off_c, 0, 52, 64
2, 54902, Note_off_c, 0, 69, 64
2, 54903, Note_on_c, 0, 64, 20
2, 54955, Note_off_c, 0, 64, 64
2, 54955, Note_on_c, 0, 73, 48
2, 54955, Note_on_c, 0, 42, 30
2, 54960, Control_c, 0, 64, 96
2, 54972, Control_c, 0, 64, 0
2, 55007, Note_off_c, 0, 73, 64
2, 55007, Note_on_c, 0, 75, 42
2, 55033, Control_c, 0, 64, 64
2, 55043, Control_c, 0, 64, 96
2, 55052, Control_c, 0, 64, 127
2, 55057, Note_off_c, 0, 75, 64
2, 55057, Note_off_c, 0, 42, 64
2, 55059, Note_on_c, 0, 73, 41
2, 55060, Note_on_c, 0, 54, 26
2, 55060, Note_on_c, 0, 61, 25
2, 55111, Note_off_c, 0, 61, 64
2, 55111, Note_off_c, 0, 54, 64
2, 55111, Note_off_c, 0, 73, 64
2, 55112, Note_on_c, 0, 69, 33
2, 55163, Note_off_c, 0, 69, 64
2, 55164, Note_on_c, 0, 63, 29
2, 55216, Note_off_c, 0, 63, 64
2, 55217, Note_on_c, 0, 73, 31
2, 55268, Note_off_c, 0, 73, 64
2, 55269, Note_on_c, 0, 73, 61
2, 55271, Note_on_c, 0, 44, 30
2, 55273, Control_c, 0, 64, 96
2, 55291, Control_c, 0, 64, 0
2, 55321, Note_off_c, 0, 73, 64
2, 55321, Note_on_c, 0, 75, 50
2, 55353, Control_c, 0, 64, 64
2, 55364, Control_c, 0, 64, 96
2, 55373, Note_off_c, 0, 75, 64
2, 55373, Note_off_c, 0, 44, 64
2, 55374, Note_on_c, 0, 73, 59
2, 55374, Control_c, 0, 64, 127
2, 55374, Note_on_c, 0, 56, 25
2, 55374, Note_on_c, 0, 52, 30
2, 55426, Note_off_c, 0, 52, 64
2, 55426, Note_off_c, 0, 56, 64
2, 55426, Note_off_c, 0, 73, 64
2, 55426, Note_on_c, 0, 68, 39
2, 55478, Note_off_c, 0, 68, 64
2, 55478, Note_on_c, 0, 61, 38
2, 55531, Note_off_c, 0, 61, 64
2, 55531, Note_on_c, 0, 68, 41
2, 55583, Note_off_c, 0, 68, 64
2, 55583, Note_on_c, 0, 68, 58
2, 55584, Note_on_c, 0, 44, 26
2, 55606, Control_c, 0, 64, 96
2, 55615, Control_c, 0, 64, 0
2, 55636, Note_off_c, 0, 68, 64
2, 55636, Note_on_c, 0, 56, 41
2, 55675, Control_c, 0, 64, 64
2, 55687, Control_c, 0, 64, 96
2, 55690, Note_off_c, 0, 56, 64
2, 55691, Note_off_c, 0, 44, 64
2, 55691, Note_on_c, 0, 63, 44
2, 55698, Control_c, 0, 64, 127
2, 55744, Note_off_c, 0, 63, 64
2, 55746, Note_on_c, 0, 68, 48
2, 55799, Note_off_c, 0, 68, 64
2, 55800, Note_on_c, 0, 69, 48
2, 55802, Note_on_c, 0, 54, 30
2, 55802, Note_on_c, 0, 60, 22
2, 55855, Note_off_c, 0, 69, 64
2, 55858, Note_on_c, 0, 68, 45
2, 55898, Control_c, 0, 64, 96
2, 55910, Control_c, 0, 64, 64
2, 55914, Note_off_c, 0, 68, 64
2, 55914, Note_off_c, 0, 60, 64
2, 55914, Note_off_c, 0, 54, 64
2, 55914, Control_c, 0, 64, 127
2, 55916, Note_on_c, 0, 67, 52
2, 55916, Note_on_c, 0, 49, 25
2, 55919, Control_c, 0, 64, 0
2, 55970, Note_off_c, 0, 67, 64
2, 55970, Note_on_c, 0, 68, 49
2, 55982, Control_c, 0, 64, 64
2, 55990, Control_c, 0, 64, 127
2, 56028, Note_off_c, 0, 68, 64
2, 56028, Note_off_c, 0, 49, 64
2, 56029, Note_on_c, 0, 72, 57
2, 56031, Note_on_c, 0, 56, 22
2, 56086, Note_off_c, 0, 56, 64
2, 56087, Note_off_c, 0, 72, 64
2, 56087, Note_on_c, 0, 73, 62
2, 56145, Note_off_c, 0, 73, 64
2, 56145, Note_on_c, 0, 76, 62
2, 56145, Note_on_c, 0, 64, 21
2, 56146, Note_on_c, 0, 56, 22
2, 56200, Note_off_c, 0, 56, 64
2, 56201, Note_off_c, 0, 64, 64
2, 56201, Note_off_c, 0, 76, 64
2, 56202, Note_on_c, 0, 78, 67
2, 56225, Control_c, 0, 64, 96
2, 56234, Control_c, 0, 64, 0
2, 56258, Note_off_c, 0, 78, 64
2, 56260, Note_on_c, 0, 80, 53
2, 56260, Note_on_c, 0, 48, 37
2, 56312, Note_off_c, 0, 80, 64
2, 56312, Note_on_c, 0, 81, 55
2, 56325, Control_c, 0, 64, 64
2, 56333, Control_c, 0, 64, 127
2, 56364, Note_off_c, 0, 81, 64
2, 56365, Note_off_c, 0, 48, 64
2, 56365, Control_c, 0, 64, 0
2, 56365, Note_on_c, 0, 80, 46
2, 56365, Note_on_c, 0, 63, 26
2, 56366, Note_on_c, 0, 56, 25
2, 56417, Note_off_c, 0, 56, 64
2, 56417, Note_off_c, 0, 63, 64
2, 56417, Note_off_c, 0, 80, 64
2, 56418, Note_on_c, 0, 78, 42
2, 56469, Note_off_c, 0, 78, 64
2, 56470, Note_on_c, 0, 75, 30
2, 56470, Note_on_c, 0, 63, 25
2, 56470, Note_on_c, 0, 56, 26
2, 56522, Note_off_c, 0, 56, 64
2, 56522, Note_off_c, 0, 63, 64
2, 56522, Note_off_c, 0, 75, 64
2, 56523, Note_on_c, 0, 68, 27
2, 56571, Control_c, 0, 64, 96
2, 56574, Note_off_c, 0, 68, 64
2, 56575, Note_on_c, 0, 49, 29
2, 56575, Note_on_c, 0, 78, 48
2, 56582, Control_c, 0, 64, 64
2, 56595, Control_c, 0, 64, 0
2, 56627, Note_off_c, 0, 78, 64
2, 56627, Note_on_c, 0, 80, 36
2, 56656, Control_c, 0, 64, 64
2, 56664, Control_c, 0, 64, 96
2, 56673, Control_c, 0, 64, 127
2, 56679, Note_off_c, 0, 80, 64
2, 56680, Note_off_c, 0, 49, 64
2, 56680, Note_on_c, 0, 78, 39
2, 56680, Note_on_c, 0, 56, 26
2, 56680, Note_on_c, 0, 64, 24
2, 56732, Note_off_c, 0, 64, 64
2, 56732, Note_off_c, 0, 56, 64
2, 56732, Note_off_c, 0, 78, 64
2, 56734, Note_on_c, 0, 76, 37
2, 56784, Note_off_c, 0, 76, 64
2, 56785, Note_on_c, 0, 73, 28
2, 56785, Note_on_c, 0, 56, 29
2, 56785, Note_on_c, 0, 64, 22
2, 56836, Note_off_c, 0, 64, 64
2, 56836, Note_off_c, 0, 56, 64
2, 56836, Note_off_c, 0, 73, 64
2, 56837, Note_on_c, 0, 68, 26
2, 56879, Control_c, 0, 64, 96
2, 56888, Note_off_c, 0, 68, 64
2, 56888, Control_c, 0, 64, 64
2, 56891, Note_on_c, 0, 76, 56
2, 56891, Note_on_c, 0, 44, 33
2, 56905, Control_c, 0, 64, 0
2, 56941, Note_off_c, 0, 76, 64
2, 56942, Note_on_c, 0, 78, 50
2, 56957, Control_c, 0, 64, 64
2, 56968, Control_c, 0, 64, 96
2, 56977, Control_c, 0, 64, 127
2, 56993, Note_off_c, 0, 78, 64
2, 56993, Note_off_c, 0, 44, 64
2, 56994, Note_on_c, 0, 76, 55
2, 56996, Note_on_c, 0, 54, 29
2, 56996, Note_on_c, 0, 60, 30
2, 57046, Note_off_c, 0, 60, 64
2, 57046, Note_off_c, 0, 54, 64
2, 57046, Note_off_c, 0, 76, 64
2, 57046, Note_on_c, 0, 75, 44
2, 57098, Note_off_c, 0, 75, 64
2, 57099, Note_on_c, 0, 72, 19
2, 57099, Note_on_c, 0, 54, 27
2, 57099, Note_on_c, 0, 60, 30
2, 57151, Note_off_c, 0, 60, 64
2, 57151, Note_off_c, 0, 54, 64
2, 57151, Note_off_c, 0, 72, 64
2, 57151, Note_on_c, 0, 66, 26
2, 57189, Control_c, 0, 64, 96
2, 57197, Control_c, 0, 64, 64
2, 57203, Note_off_c, 0, 66, 64
2, 57203, Note_on_c, 0, 75, 48
2, 57204, Note_on_c, 0, 45, 35
2, 57209, Control_c, 0, 64, 0
2, 57256, Note_off_c, 0, 75, 64
2, 57256, Note_on_c, 0, 76, 47
2, 57275, Control_c, 0, 64, 64
2, 57281, Control_c, 0, 64, 96
2, 57291, Control_c, 0, 64, 127
2, 57308, Note_off_c, 0, 76, 64
2, 57308, Note_off_c, 0, 45, 64
2, 57310, Note_on_c, 0, 75, 40
2, 57310, Note_on_c, 0, 61, 25
2, 57310, Note_on_c, 0, 52, 33
2, 57361, Note_off_c, 0, 52, 64
2, 57361, Note_off_c, 0, 61, 64
2, 57361, Note_off_c, 0, 75, 64
2, 57361, Note_on_c, 0, 73, 34
2, 57413, Note_off_c, 0, 73, 64
2, 57413, Note_on_c, 0, 69, 35
2, 57415, Note_on_c, 0, 61, 29
2, 57415, Note_on_c, 0, 52, 28
2, 57467, Note_off_c, 0, 52, 64
2, 57467, Note_off_c, 0, 61, 64
2, 57467, Note_off_c, 0, 69, 64
2, 57467, Note_on_c, 0, 64, 34
2, 57510, Control_c, 0, 64, 96
2, 57518, Note_off_c, 0, 64, 64
2, 57518, Note_on_c, 0, 69, 47
2, 57520, Note_on_c, 0, 42, 31
2, 57520, Control_c, 0, 64, 64
2, 57534, Control_c, 0, 64, 0
2, 57569, Note_off_c, 0, 69, 64
2, 57570, Note_on_c, 0, 71, 49
2, 57590, Control_c, 0, 64, 64
2, 57600, Control_c, 0, 64, 96
2, 57609, Control_c, 0, 64, 127
2, 57622, Note_off_c, 0, 71, 64
2, 57622, Note_off_c, 0, 42, 64
2, 57622, Note_on_c, 0, 73, 45
2, 57672, Note_off_c, 0, 73, 64
2, 57674, Note_on_c, 0, 74, 52
2, 57726, Note_off_c, 0, 74, 64
2, 57726, Note_on_c, 0, 76, 45
2, 57726, Note_on_c, 0, 57, 26
2, 57726, Note_on_c, 0, 62, 29
2, 57727, Note_on_c, 0, 69, 23
2, 57778, Note_off_c, 0, 76, 64
2, 57778, Note_on_c, 0, 78, 42
2, 57831, Note_off_c, 0, 78, 64
2, 57831, Note_off_c, 0, 69, 64
2, 57831, Note_off_c, 0, 62, 64
2, 57831, Note_off_c, 0, 57, 64
2, 57832, Note_on_c, 0, 79, 45
2, 57883, Note_off_c, 0, 79, 64
2, 57883, Note_on_c, 0, 80, 38
2, 57936, Note_off_c, 0, 80, 64
2, 57936, Note_on_c, 0, 81, 26
2, 57988, Note_off_c, 0, 81, 64
2, 57988, Note_on_c, 0, 81, 26
2, 58041, Note_off_c, 0, 81, 64
2, 58041, Note_on_c, 0, 83, 42
2, 58093, Note_off_c, 0, 83, 64
2, 58093, Note_on_c, 0, 85, 39
2, 58142, Control_c, 0, 64, 96
2, 58146, Note_off_c, 0, 85, 64
2, 58146, Note_on_c, 0, 86, 38
2, 58146, Note_on_c, 0, 44, 29
2, 58152, Control_c, 0, 64, 0
2, 58198, Note_off_c, 0, 86, 64
2, 58200, Note_on_c, 0, 87, 41
2, 58223, Control_c, 0, 64, 64
2, 58231, Control_c, 0, 64, 96
2, 58241, Control_c, 0, 64, 127
2, 58248, Note_off_c, 0, 87, 64
2, 58248, Note_off_c, 0, 44, 64
2, 58251, Note_on_c, 0, 88, 41
2, 58251, Note_on_c, 0, 66, 26
2, 58251, Note_on_c, 0, 60, 30
2, 58251, Note_on_c, 0, 56, 21
2, 58302, Note_off_c, 0, 56, 64
2, 58302, Note_off_c, 0, 60, 64
2, 58302, Note_off_c, 0, 66, 64
2, 58302, Note_off_c, 0, 88, 64
2, 58303, Note_on_c, 0, 89, 41
2, 58354, Note_off_c, 0, 89, 64
2, 58356, Note_on_c, 0, 90, 37
2, 58356, Note_on_c, 0, 66, 27
2, 58356, Note_on_c, 0, 56, 22
2, 58356, Note_on_c, 0, 60, 22
2, 58407, Note_off_c, 0, 60, 64
2, 58407, Note_off_c, 0, 56, 64
2, 58407, Note_off_c, 0, 66, 64
2, 58407, Note_off_c, 0, 90, 64
2, 58408, Note_on_c, 0, 91, 36
2, 58453, Control_c, 0, 64, 96
2, 58459, Note_off_c, 0, 91, 64
2, 58460, Note_on_c, 0, 49, 34
2, 58460, Note_on_c, 0, 92, 35
2, 58464, Control_c, 0, 64, 64
2, 58477, Control_c, 0, 64, 0
2, 58512, Note_off_c, 0, 92, 64
2, 58512, Note_on_c, 0, 97, 34
2, 58557, Control_c, 0, 64, 64
2, 58564, Note_off_c, 0, 49, 64
2, 58564, Note_off_c, 0, 97, 64
2, 58565, Note_on_c, 0, 56, 25
2, 58565, Note_on_c, 0, 64, 29
2, 58650, Control_c, 0, 64, 0
2, 58669, Note_off_c, 0, 64, 64
2, 58669, Note_off_c, 0, 56, 64
2, 58670, Note_on_c, 0, 68, 52
2, 58774, Note_off_c, 0, 68, 64
2, 58776, Control_c, 0, 64, 127
2, 58776, Note_on_c, 0, 80, 36
2, 58776, Control_c, 0, 64, 127
2, 58777, Note_on_c, 0, 48, 22
2, 58823, Control_c, 0, 64, 64
2, 58827, Note_off_c, 0, 80, 64
2, 58827, Note_on_c, 0, 81, 23
2, 58835, Control_c, 0, 64, 96
2, 58848, Control_c, 0, 64, 127
2, 58879, Note_off_c, 0, 81, 64
2, 58879, Note_off_c, 0, 48, 64
2, 58881, Note_on_c, 0, 80, 20
2, 58881, Note_on_c, 0, 63, 14
2, 58881, Note_on_c, 0, 56, 13
2, 58932, Note_off_c, 0, 56, 64
2, 58932, Note_off_c, 0, 63, 64
2, 58932, Note_off_c, 0, 80, 64
2, 58934, Note_on_c, 0, 78, 20
2, 58984, Note_off_c, 0, 78, 64
2, 58986, Note_on_c, 0, 75, 16
2, 58986, Note_on_c, 0, 63, 13
2, 58986, Note_on_c, 0, 56, 13
2, 59035, Note_off_c, 0, 56, 64
2, 59036, Note_off_c, 0, 63, 64
2, 59036, Note_off_c, 0, 75, 64
2, 59038, Control_c, 0, 64, 0
2, 59038, Note_on_c, 0, 68, 17
2, 59038, Control_c, 0, 64, 0
2, 59058, Control_c, 0, 64, 64
2, 59065, Control_c, 0, 64, 0
2, 59088, Note_off_c, 0, 68, 64
2, 59089, Note_on_c, 0, 78, 29
2, 59091, Control_c, 0, 64, 127
2, 59091, Note_on_c, 0, 49, 16
2, 59131, Control_c, 0, 64, 64
2, 59138, Control_c, 0, 64, 96
2, 59140, Note_off_c, 0, 78, 64
2, 59143, Note_on_c, 0, 80, 24
2, 59154, Control_c, 0, 64, 127
2, 59193, Note_off_c, 0, 80, 64
2, 59193, Note_off_c, 0, 49, 64
2, 59195, Note_on_c, 0, 78, 24
2, 59196, Note_on_c, 0, 56, 16
2, 59196, Note_on_c, 0, 64, 12
2, 59245, Note_off_c, 0, 64, 64
2, 59246, Note_off_c, 0, 56, 64
2, 59246, Note_off_c, 0, 78, 64
2, 59246, Note_on_c, 0, 76, 20
2, 59298, Note_off_c, 0, 76, 64
2, 59300, Note_on_c, 0, 73, 19
2, 59300, Note_on_c, 0, 56, 14
2, 59300, Note_on_c, 0, 64, 16
2, 59350, Note_off_c, 0, 64, 64
2, 59352, Note_off_c, 0, 56, 64
2, 59352, Note_off_c, 0, 73, 64
2, 59352, Note_on_c, 0, 68, 16
2, 59353, Control_c, 0, 64, 0
2, 59380, Control_c, 0, 64, 96
2, 59389, Control_c, 0, 64, 0
2, 59403, Note_off_c, 0, 68, 64
2, 59405, Note_on_c, 0, 76, 32
2, 59405, Control_c, 0, 64, 127
2, 59405, Note_on_c, 0, 44, 19
2, 59455, Note_off_c, 0, 76, 64
2, 59457, Note_on_c, 0, 78, 26
2, 59458, Control_c, 0, 64, 64
2, 59470, Control_c, 0, 64, 127
2, 59508, Note_off_c, 0, 78, 64
2, 59508, Note_off_c, 0, 44, 64
2, 59510, Note_on_c, 0, 76, 24
2, 59510, Note_on_c, 0, 54, 19
2, 59510, Note_on_c, 0, 60, 12
2, 59560, Note_off_c, 0, 60, 64
2, 59562, Note_off_c, 0, 54, 64
2, 59562, Note_off_c, 0, 76, 64
2, 59562, Note_on_c, 0, 75, 22
2, 59614, Note_off_c, 0, 75, 64
2, 59614, Note_on_c, 0, 72, 16
2, 59615, Note_on_c, 0, 54, 16
2, 59615, Note_on_c, 0, 60, 16
2, 59667, Note_off_c, 0, 60, 64
2, 59667, Note_off_c, 0, 54, 64
2, 59667, Note_off_c, 0, 72, 64
2, 59667, Note_on_c, 0, 66, 10
2, 59668, Control_c, 0, 64, 0
2, 59700, Control_c, 0, 64, 96
2, 59712, Control_c, 0, 64, 64
2, 59719, Note_off_c, 0, 66, 64
2, 59719, Control_c, 0, 64, 0
2, 59720, Note_on_c, 0, 75, 28
2, 59720, Note_on_c, 0, 45, 22
2, 59772, Note_off_c, 0, 75, 64
2, 59772, Note_on_c, 0, 76, 21
2, 59773, Control_c, 0, 64, 64
2, 59786, Control_c, 0, 64, 127
2, 59822, Note_off_c, 0, 76, 64
2, 59822, Note_off_c, 0, 45, 64
2, 59824, Note_on_c, 0, 75, 20
2, 59824, Note_on_c, 0, 61, 18
2, 59825, Note_on_c, 0, 52, 16
2, 59874, Note_off_c, 0, 52, 64
2, 59874, Note_off_c, 0, 61, 64
2, 59876, Note_off_c, 0, 75, 64
2, 59877, Note_on_c, 0, 73, 18
2, 59928, Note_off_c, 0, 73, 64
2, 59929, Note_on_c, 0, 69, 12
2, 59929, Note_on_c, 0, 52, 19
2, 59930, Note_on_c, 0, 61, 18
2, 59979, Note_off_c, 0, 61, 64
2, 59979, Note_off_c, 0, 52, 64
2, 59981, Note_off_c, 0, 69, 64
2, 59982, Note_on_c, 0, 64, 11
2, 60017, Control_c, 0, 64, 96
2, 60027, Control_c, 0, 64, 64
2, 60033, Note_off_c, 0, 64, 64
2, 60034, Note_on_c, 0, 73, 26
2, 60034, Note_on_c, 0, 42, 20
2, 60038, Control_c, 0, 64, 0
2, 60084, Note_off_c, 0, 73, 64
2, 60086, Note_on_c, 0, 75, 23
2, 60090, Control_c, 0, 64, 64
2, 60103, Control_c, 0, 64, 127
2, 60138, Note_off_c, 0, 75, 64
2, 60138, Note_off_c, 0, 42, 64
2, 60138, Note_on_c, 0, 73, 22
2, 60138, Note_on_c, 0, 54, 17
2, 60139, Note_on_c, 0, 61, 16
2, 60190, Note_off_c, 0, 61, 64
2, 60191, Note_off_c, 0, 54, 64
2, 60191, Note_off_c, 0, 73, 64
2, 60191, Note_on_c, 0, 69, 18
2, 60243, Note_off_c, 0, 69, 64
2, 60243, Note_on_c, 0, 63, 15
2, 60295, Note_off_c, 0, 63, 64
2, 60296, Note_on_c, 0, 73, 17
2, 60325, Control_c, 0, 64, 96
2, 60335, Control_c, 0, 64, 64
2, 60344, Control_c, 0, 64, 0
2, 60348, Note_off_c, 0, 73, 64
2, 60348, Note_on_c, 0, 73, 34
2, 60348, Note_on_c, 0, 44, 20
2, 60385, Control_c, 0, 64, 64
2, 60394, Control_c, 0, 64, 96
2, 60400, Note_off_c, 0, 73, 64
2, 60401, Note_on_c, 0, 75, 27
2, 60403, Control_c, 0, 64, 127
2, 60453, Note_off_c, 0, 75, 64
2, 60453, Note_off_c, 0, 44, 64
2, 60453, Note_on_c, 0, 73, 32
2, 60453, Note_on_c, 0, 56, 16
2, 60455, Note_on_c, 0, 52, 20
2, 60505, Note_off_c, 0, 56, 64
2, 60505, Note_off_c, 0, 52, 64
2, 60506, Note_off_c, 0, 73, 64
2, 60506, Note_on_c, 0, 68, 21
2, 60558, Note_off_c, 0, 68, 64
2, 60558, Note_on_c, 0, 61, 20
2, 60609, Note_off_c, 0, 61, 64
2, 60610, Note_on_c, 0, 68, 22
2, 60650, Control_c, 0, 64, 96
2, 60660, Note_off_c, 0, 68, 64
2, 60662, Control_c, 0, 64, 64
2, 60663, Note_on_c, 0, 68, 31
2, 60663, Note_on_c, 0, 44, 17
2, 60676, Control_c, 0, 64, 0
2, 60715, Note_off_c, 0, 68, 64
2, 60717, Note_on_c, 0, 56, 22
2, 60718, Control_c, 0, 64, 64
2, 60732, Control_c, 0, 64, 127
2, 60768, Note_off_c, 0, 56, 64
2, 60768, Note_off_c, 0, 44, 64
2, 60770, Note_on_c, 0, 63, 24
2, 60823, Note_off_c, 0, 63, 64
2, 60825, Note_on_c, 0, 68, 26
2, 60879, Note_off_c, 0, 68, 64
2, 60879, Note_on_c, 0, 69, 26
2, 60879, Note_on_c, 0, 54, 20
2, 60879, Note_on_c, 0, 60, 14
2, 60936, Note_off_c, 0, 69, 64
2, 60936, Note_on_c, 0, 68, 24
2, 60948, Control_c, 0, 64, 64
2, 60960, Control_c, 0, 64, 0
2, 60990, Note_off_c, 0, 68, 64
2, 60992, Note_off_c, 0, 60, 64
2, 60992, Note_off_c, 0, 54, 64
2, 60993, Control_c, 0, 64, 127
2, 60995, Note_on_c, 0, 67, 29
2, 60995, Note_on_c, 0, 49, 16
2, 61025, Control_c, 0, 64, 64
2, 61033, Control_c, 0, 64, 96
2, 61046, Control_c, 0, 64, 127
2, 61049, Note_off_c, 0, 67, 64
2, 61051, Note_on_c, 0, 68, 27
2, 61108, Note_off_c, 0, 68, 64
2, 61108, Note_off_c, 0, 49, 64
2, 61108, Note_on_c, 0, 72, 31
2, 61108, Note_on_c, 0, 56, 14
2, 61166, Note_off_c, 0, 56, 64
2, 61166, Note_off_c, 0, 72, 64
2, 61167, Note_on_c, 0, 73, 34
2, 61222, Note_off_c, 0, 73, 64
2, 61225, Note_on_c, 0, 76, 34
2, 61225, Note_on_c, 0, 64, 13
2, 61225, Note_on_c, 0, 56, 14
2, 61281, Note_off_c, 0, 56, 64
2, 61281, Note_off_c, 0, 64, 64
2, 61281, Note_off_c, 0, 76, 64
2, 61281, Note_on_c, 0, 78, 36
2, 61300, Control_c, 0, 64, 96
2, 61308, Control_c, 0, 64, 64
2, 61320, Control_c, 0, 64, 0
2, 61339, Note_off_c, 0, 78, 64
2, 61340, Note_on_c, 0, 48, 25
2, 61340, Note_on_c, 0, 80, 29
2, 61370, Control_c, 0, 64, 64
2, 61382, Control_c, 0, 64, 96
2, 61389, Control_c, 0, 64, 127
2, 61392, Note_off_c, 0, 80, 64
2, 61392, Note_on_c, 0, 81, 30
2, 61444, Note_off_c, 0, 48, 64
2, 61444, Note_off_c, 0, 81, 64
2, 61445, Control_c, 0, 64, 0
2, 61445, Note_on_c, 0, 80, 25
2, 61445, Note_on_c, 0, 63, 17
2, 61445, Note_on_c, 0, 56, 16
2, 61497, Note_off_c, 0, 56, 64
2, 61497, Note_off_c, 0, 63, 64
2, 61497, Note_off_c, 0, 80, 64
2, 61497, Note_on_c, 0, 78, 23
2, 61549, Note_off_c, 0, 78, 64
2, 61549, Note_on_c, 0, 75, 16
2, 61550, Note_on_c, 0, 63, 16
2, 61550, Note_on_c, 0, 56, 17
2, 61599, Note_off_c, 0, 56, 64
2, 61599, Note_off_c, 0, 63, 64
2, 61601, Note_off_c, 0, 75, 64
2, 61602, Note_on_c, 0, 68, 14
2, 61648, Control_c, 0, 64, 96
2, 61653, Note_off_c, 0, 68, 64
2, 61654, Note_on_c, 0, 78, 26
2, 61654, Note_on_c, 0, 49, 19
2, 61656, Control_c, 0, 64, 64
2, 61673, Control_c, 0, 64, 0
2, 61702, Control_c, 0, 64, 64
2, 61704, Note_off_c, 0, 78, 64
2, 61707, Note_on_c, 0, 80, 19
2, 61722, Control_c, 0, 64, 127
2, 61758, Note_off_c, 0, 80, 64
2, 61758, Note_off_c, 0, 49, 64
2, 61759, Note_on_c, 0, 78, 21
2, 61759, Note_on_c, 0, 56, 17
2, 61761, Note_on_c, 0, 64, 15
2, 61810, Note_off_c, 0, 64, 64
2, 61810, Note_off_c, 0, 56, 64
2, 61811, Note_off_c, 0, 78, 64
2, 61812, Note_on_c, 0, 76, 20
2, 61863, Note_off_c, 0, 76, 64
2, 61863, Note_on_c, 0, 73, 14
2, 61863, Note_on_c, 0, 56, 19
2, 61864, Note_on_c, 0, 64, 14
2, 61915, Note_off_c, 0, 64, 64
2, 61915, Note_off_c, 0, 56, 64
2, 61916, Note_off_c, 0, 73, 64
2, 61916, Note_on_c, 0, 68, 13
2, 61958, Control_c, 0, 64, 96
2, 61968, Note_off_c, 0, 68, 64
2, 61968, Control_c, 0, 64, 64
2, 61968, Note_on_c, 0, 76, 30
2, 61969, Note_on_c, 0, 44, 22
2, 61982, Control_c, 0, 64, 0
2, 62007, Control_c, 0, 64, 64
2, 62020, Note_off_c, 0, 76, 64
2, 62021, Note_on_c, 0, 78, 27
2, 62023, Control_c, 0, 64, 96
2, 62037, Control_c, 0, 64, 127
2, 62073, Note_off_c, 0, 78, 64
2, 62073, Note_off_c, 0, 44, 64
2, 62073, Note_on_c, 0, 76, 30
2, 62075, Note_on_c, 0, 54, 19
2, 62075, Note_on_c, 0, 60, 20
2, 62125, Note_off_c, 0, 60, 64
2, 62125, Note_off_c, 0, 54, 64
2, 62126, Note_off_c, 0, 76, 64
2, 62126, Note_on_c, 0, 75, 24
2, 62178, Note_off_c, 0, 75, 64
2, 62178, Note_on_c, 0, 72, 10
2, 62178, Note_on_c, 0, 54, 18
2, 62180, Note_on_c, 0, 60, 20
2, 62232, Note_off_c, 0, 60, 64
2, 62232, Note_off_c, 0, 54, 64
2, 62232, Note_off_c, 0, 72, 64
2, 62232, Note_on_c, 0, 66, 13
2, 62263, Control_c, 0, 64, 96
2, 62270, Control_c, 0, 64, 64
2, 62283, Note_off_c, 0, 66, 64
2, 62283, Note_on_c, 0, 75, 26
2, 62283, Note_on_c, 0, 45, 23
2, 62325, Control_c, 0, 64, 96
2, 62334, Control_c, 0, 64, 127
2, 62335, Note_off_c, 0, 75, 64
2, 62337, Note_on_c, 0, 76, 25
2, 62388, Note_off_c, 0, 76, 64
2, 62388, Note_off_c, 0, 45, 64
2, 62388, Note_on_c, 0, 75, 22
2, 62390, Note_on_c, 0, 61, 16
2, 62390, Note_on_c, 0, 52, 22
2, 62439, Note_off_c, 0, 52, 64
2, 62439, Note_off_c, 0, 61, 64
2, 62440, Note_off_c, 0, 75, 64
2, 62440, Note_on_c, 0, 73, 18
2, 62491, Note_off_c, 0, 73, 64
2, 62494, Note_on_c, 0, 69, 19
2, 62494, Note_on_c, 0, 61, 19
2, 62494, Note_on_c, 0, 52, 19
2, 62544, Note_off_c, 0, 52, 64
2, 62544, Note_off_c, 0, 61, 64
2, 62545, Note_off_c, 0, 69, 64
2, 62545, Note_on_c, 0, 64, 18
2, 62586, Control_c, 0, 64, 96
2, 62594, Control_c, 0, 64, 64
2, 62596, Note_off_c, 0, 64, 64
2, 62599, Note_on_c, 0, 69, 25
2, 62599, Note_on_c, 0, 42, 20
2, 62610, Control_c, 0, 64, 0
2, 62649, Note_off_c, 0, 69, 64
2, 62649, Note_on_c, 0, 71, 27
2, 62659, Control_c, 0, 64, 64
2, 62668, Control_c, 0, 64, 127
2, 62702, Note_off_c, 0, 71, 64
2, 62702, Note_off_c, 0, 42, 64
2, 62702, Note_on_c, 0, 73, 24
2, 62756, Note_off_c, 0, 73, 64
2, 62757, Note_on_c, 0, 74, 29
2, 62810, Note_off_c, 0, 74, 64
2, 62810, Note_on_c, 0, 76, 24
2, 62812, Note_on_c, 0, 57, 17
2, 62812, Note_on_c, 0, 62, 19
2, 62812, Note_on_c, 0, 69, 14
2, 62865, Note_off_c, 0, 76, 64
2, 62867, Note_on_c, 0, 78, 23
2, 62921, Note_off_c, 0, 78, 64
2, 62921, Note_off_c, 0, 69, 64
2, 62923, Note_off_c, 0, 62, 64
2, 62923, Note_off_c, 0, 57, 64
2, 62923, Note_on_c, 0, 79, 24
2, 62977, Note_off_c, 0, 79, 64
2, 62980, Note_on_c, 0, 80, 20
2, 63036, Note_off_c, 0, 80, 64
2, 63036, Note_on_c, 0, 81, 13
2, 63096, Note_off_c, 0, 81, 64
2, 63097, Note_on_c, 0, 81, 13
2, 63156, Note_off_c, 0, 81, 64
2, 63156, Note_on_c, 0, 83, 23
2, 63216, Note_off_c, 0, 83, 64
2, 63218, Note_on_c, 0, 85, 21
2, 63276, Control_c, 0, 64, 96
2, 63278, Note_off_c, 0, 85, 64
2, 63280, Note_on_c, 0, 44, 19
2, 63280, Note_on_c, 0, 86, 20
2, 63286, Control_c, 0, 64, 64
2, 63300, Control_c, 0, 64, 0
2, 63342, Note_off_c, 0, 86, 64
2, 63342, Note_on_c, 0, 87, 22
2, 63353, Control_c, 0, 64, 64
2, 63362, Control_c, 0, 64, 96
2, 63373, Control_c, 0, 64, 127
2, 63404, Note_off_c, 0, 44, 64
2, 63404, Note_off_c, 0, 87, 64
2, 63405, Note_on_c, 0, 88, 22
2, 63407, Note_on_c, 0, 66, 17
2, 63407, Note_on_c, 0, 60, 20
2, 63407, Note_on_c, 0, 56, 13
2, 63468, Note_off_c, 0, 56, 64
2, 63468, Note_off_c, 0, 60, 64
2, 63468, Note_off_c, 0, 66, 64
2, 63468, Note_off_c, 0, 88, 64
2, 63470, Note_on_c, 0, 89, 22
2, 63529, Note_off_c, 0, 89, 64
2, 63530, Note_on_c, 0, 90, 20
2, 63530, Note_on_c, 0, 66, 18
2, 63530, Note_on_c, 0, 56, 14
2, 63530, Note_on_c, 0, 60, 14
2, 63591, Note_off_c, 0, 60, 64
2, 63592, Note_off_c, 0, 56, 64
2, 63592, Note_off_c, 0, 66, 64
2, 63592, Note_off_c, 0, 90, 64
2, 63594, Note_on_c, 0, 91, 19
2, 63656, Note_off_c, 0, 91, 64
2, 63656, Note_on_c, 0, 92, 19
2, 63656, Note_on_c, 0, 49, 22
2, 63710, Control_c, 0, 64, 96
2, 63718, Note_off_c, 0, 92, 64
2, 63719, Note_on_c, 0, 97, 18
2, 63720, Control_c, 0, 64, 64
2, 63780, Control_c, 0, 64, 96
2, 63781, Note_off_c, 0, 97, 64
2, 63781, Note_off_c, 0, 49, 64
2, 63782, Note_on_c, 0, 56, 16
2, 63782, Note_on_c, 0, 64, 19
2, 63805, Control_c, 0, 64, 127
2, 63905, Note_off_c, 0, 64, 64
2, 63905, Note_off_c, 0, 56, 64
2, 63955, Control_c, 0, 64, 96
2, 63971, Control_c, 0, 64, 64
2, 63985, Control_c, 0, 64, 0
2, 65174, Note_on_c, 0, 68, 38
2, 65415, Note_on_c, 0, 76, 53
2, 65415, Note_on_c, 0, 37, 33
2, 65599, Control_c, 0, 64, 64
2, 65614, Control_c, 0, 64, 96
2, 65654, Note_off_c, 0, 37, 64
2, 65655, Note_on_c, 0, 61, 25
2, 65657, Note_on_c, 0, 64, 23
2, 65657, Note_on_c, 0, 56, 24
2, 65674, Control_c, 0, 64, 127
2, 65894, Note_off_c, 0, 56, 64
2, 65894, Note_off_c, 0, 64, 64
2, 65894, Note_off_c, 0, 61, 64
2, 65896, Note_on_c, 0, 56, 24
2, 65896, Note_on_c, 0, 64, 24
2, 65897, Note_on_c, 0, 61, 24
2, 66074, Control_c, 0, 64, 96
2, 66083, Control_c, 0, 64, 64
2, 66090, Control_c, 0, 64, 0
2, 66135, Note_off_c, 0, 61, 64
2, 66135, Note_off_c, 0, 64, 64
2, 66135, Note_off_c, 0, 56, 64
2, 66135, Note_off_c, 0, 76, 64
2, 66135, Note_off_c, 0, 68, 64
2, 66136, Note_on_c, 0, 75, 35
2, 66138, Note_on_c, 0, 67, 32
2, 66138, Note_on_c, 0, 39, 32
2, 66377, Control_c, 0, 64, 64
2, 66397, Note_off_c, 0, 39, 64
2, 66397, Control_c, 0, 64, 96
2, 66398, Note_on_c, 0, 61, 24
2, 66398, Note_on_c, 0, 51, 22
2, 66398, Note_on_c, 0, 58, 20
2, 66447, Control_c, 0, 64, 127
2, 66658, Note_off_c, 0, 58, 64
2, 66658, Note_off_c, 0, 51, 64
2, 66659, Note_off_c, 0, 61, 64
2, 66660, Note_on_c, 0, 58, 22
2, 66660, Note_on_c, 0, 61, 21
2, 66660, Note_on_c, 0, 51, 22
2, 66921, Note_off_c, 0, 51, 64
2, 66921, Note_off_c, 0, 61, 64
2, 66921, Note_off_c, 0, 58, 64
2, 66921, Note_off_c, 0, 67, 64
2, 66923, Note_off_c, 0, 75, 64
2, 66923, Note_on_c, 0, 44, 36
2, 66943, Control_c, 0, 64, 96
2, 66954, Control_c, 0, 64, 64
2, 66963, Control_c, 0, 64, 0
2, 67055, Note_on_c, 0, 68, 36
2, 67055, Note_on_c, 0, 66, 31
2, 67108, Note_on_c, 0, 71, 40
2, 67163, Note_off_c, 0, 71, 64
2, 67163, Note_off_c, 0, 66, 64
2, 67163, Note_off_c, 0, 68, 64
2, 67164, Note_off_c, 0, 44, 64
2, 67166, Note_on_c, 0, 69, 38
2, 67166, Note_on_c, 0, 66, 29
2, 67166, Note_on_c, 0, 51, 24
2, 67166, Note_on_c, 0, 60, 28
2, 67166, Note_on_c, 0, 56, 25
2, 67274, Note_off_c, 0, 66, 64
2, 67274, Note_off_c, 0, 69, 64
2, 67332, Note_on_c, 0, 68, 42
2, 67333, Note_on_c, 0, 66, 34
2, 67385, Note_off_c, 0, 66, 64
2, 67385, Note_off_c, 0, 68, 64
2, 67385, Note_off_c, 0, 56, 64
2, 67385, Note_off_c, 0, 60, 64
2, 67386, Note_off_c, 0, 51, 64
2, 67386, Note_on_c, 0, 75, 51
2, 67386, Note_on_c, 0, 66, 43
2, 67388, Note_on_c, 0, 51, 26
2, 67388, Note_on_c, 0, 56, 24
2, 67388, Note_on_c, 0, 60, 28
2, 67608, Note_off_c, 0, 60, 64
2, 67608, Note_off_c, 0, 56, 64
2, 67608, Note_off_c, 0, 51, 64
2, 67608, Note_off_c, 0, 66, 64
2, 67609, Note_off_c, 0, 75, 64
2, 67609, Note_on_c, 0, 49, 40
2, 67717, Note_on_c, 0, 68, 33
2, 67719, Note_on_c, 0, 66, 27
2, 67775, Note_on_c, 0, 71, 36
2, 67830, Note_off_c, 0, 71, 64
2, 67830, Note_off_c, 0, 66, 64
2, 67830, Note_off_c, 0, 68, 64
2, 67830, Note_off_c, 0, 49, 64
2, 67831, Note_on_c, 0, 69, 39
2, 67831, Note_on_c, 0, 66, 30
2, 67831, Note_on_c, 0, 63, 33
2, 67831, Note_on_c, 0, 56, 35
2, 67941, Note_off_c, 0, 66, 64
2, 67941, Note_off_c, 0, 69, 64
2, 67997, Note_on_c, 0, 66, 34
2, 67997, Note_on_c, 0, 68, 39
2, 68052, Note_off_c, 0, 68, 64
2, 68052, Note_off_c, 0, 66, 64
2, 68052, Note_off_c, 0, 56, 64
2, 68052, Note_off_c, 0, 63, 64
2, 68053, Note_on_c, 0, 73, 44
2, 68053, Note_on_c, 0, 64, 39
2, 68053, Note_on_c, 0, 56, 31
2, 68054, Note_on_c, 0, 61, 32
2, 68257, Control_c, 0, 64, 64
2, 68272, Note_off_c, 0, 61, 64
2, 68273, Note_off_c, 0, 56, 64
2, 68273, Note_off_c, 0, 64, 64
2, 68273, Note_off_c, 0, 73, 64
2, 68275, Note_on_c, 0, 73, 52
2, 68275, Note_on_c, 0, 64, 45
2, 68275, Note_on_c, 0, 40, 34
2, 68299, Control_c, 0, 64, 0
2, 68417, Control_c, 0, 64, 64
2, 68432, Control_c, 0, 64, 96
2, 68465, Control_c, 0, 64, 127
2, 68512, Note_off_c, 0, 40, 64
2, 68515, Note_on_c, 0, 57, 23
2, 68515, Note_on_c, 0, 52, 29
2, 68753, Note_off_c, 0, 52, 64
2, 68753, Note_off_c, 0, 57, 64
2, 68756, Note_on_c, 0, 52, 27
2, 68756, Note_on_c, 0, 57, 21
2, 68882, Control_c, 0, 64, 96
2, 68892, Control_c, 0, 64, 64
2, 68908, Control_c, 0, 64, 0
2, 68993, Note_off_c, 0, 57, 64
2, 68993, Note_off_c, 0, 52, 64
2, 68993, Note_off_c, 0, 64, 64
2, 68995, Note_off_c, 0, 73, 64
2, 68995, Note_on_c, 0, 72, 34
2, 68996, Note_on_c, 0, 63, 31
2, 68996, Note_on_c, 0, 40, 30
2, 69019, Control_c, 0, 64, 64
2, 69041, Control_c, 0, 64, 96
2, 69088, Control_c, 0, 64, 127
2, 69257, Note_off_c, 0, 40, 64
2, 69257, Note_on_c, 0, 57, 26
2, 69257, Note_on_c, 0, 54, 28
2, 69517, Note_off_c, 0, 54, 64
2, 69517, Note_off_c, 0, 57, 64
2, 69519, Note_on_c, 0, 54, 26
2, 69519, Note_on_c, 0, 57, 24
2, 69772, Control_c, 0, 64, 96
2, 69780, Note_off_c, 0, 57, 64
2, 69780, Note_off_c, 0, 54, 64
2, 69781, Note_off_c, 0, 72, 64
2, 69781, Note_off_c, 0, 63, 64
2, 69782, Note_on_c, 0, 40, 36
2, 69792, Control_c, 0, 64, 64
2, 69811, Control_c, 0, 64, 0
2, 69913, Note_on_c, 0, 62, 34
2, 69913, Note_on_c, 0, 64, 35
2, 69958, Control_c, 0, 64, 64
2, 69967, Note_on_c, 0, 68, 40
2, 69974, Control_c, 0, 64, 96
2, 70021, Note_off_c, 0, 68, 64
2, 70023, Note_off_c, 0, 64, 64
2, 70023, Note_off_c, 0, 62, 64
2, 70023, Note_off_c, 0, 40, 64
2, 70024, Note_on_c, 0, 66, 39
2, 70024, Note_on_c, 0, 62, 31
2, 70024, Note_on_c, 0, 56, 36
2, 70026, Control_c, 0, 64, 127
2, 70132, Note_off_c, 0, 62, 64
2, 70134, Note_off_c, 0, 66, 64
2, 70190, Note_on_c, 0, 64, 49
2, 70190, Note_on_c, 0, 62, 42
2, 70243, Note_off_c, 0, 62, 64
2, 70243, Note_off_c, 0, 64, 64
2, 70245, Note_off_c, 0, 56, 64
2, 70246, Note_on_c, 0, 71, 47
2, 70246, Note_on_c, 0, 62, 36
2, 70246, Note_on_c, 0, 52, 32
2, 70246, Note_on_c, 0, 56, 22
2, 70465, Control_c, 0, 64, 96
2, 70466, Note_off_c, 0, 56, 64
2, 70468, Note_off_c, 0, 52, 64
2, 70468, Note_off_c, 0, 62, 64
2, 70468, Note_off_c, 0, 71, 64
2, 70468, Note_on_c, 0, 45, 35
2, 70483, Control_c, 0, 64, 64
2, 70491, Control_c, 0, 64, 0
2, 70577, Note_on_c, 0, 62, 27
2, 70579, Note_on_c, 0, 64, 34
2, 70596, Control_c, 0, 64, 64
2, 70605, Control_c, 0, 64, 96
2, 70635, Note_on_c, 0, 68, 40
2, 70672, Control_c, 0, 64, 127
2, 70688, Note_off_c, 0, 68, 64
2, 70688, Note_off_c, 0, 64, 64
2, 70690, Note_off_c, 0, 62, 64
2, 70690, Note_off_c, 0, 45, 64
2, 70690, Note_on_c, 0, 66, 38
2, 70690, Note_on_c, 0, 61, 33
2, 70690, Note_on_c, 0, 57, 31
2, 70690, Note_on_c, 0, 52, 40
2, 70799, Note_off_c, 0, 61, 64
2, 70799, Note_off_c, 0, 66, 64
2, 70855, Note_on_c, 0, 64, 44
2, 70857, Note_on_c, 0, 61, 34
2, 70910, Note_off_c, 0, 61, 64
2, 70910, Note_off_c, 0, 64, 64
2, 70910, Note_off_c, 0, 52, 64
2, 70911, Note_off_c, 0, 57, 64
2, 70911, Note_on_c, 0, 61, 37
2, 70913, Note_on_c, 0, 51, 31
2, 70913, Note_on_c, 0, 57, 28
2, 70913, Note_on_c, 0, 69, 40
2, 71020, Note_off_c, 0, 69, 64
2, 71020, Note_off_c, 0, 61, 64
2, 71101, Control_c, 0, 64, 96
2, 71110, Control_c, 0, 64, 64
2, 71120, Control_c, 0, 64, 0
2, 71132, Note_off_c, 0, 57, 64
2, 71132, Note_off_c, 0, 51, 64
2, 71133, Note_on_c, 0, 69, 45
2, 71135, Note_on_c, 0, 60, 39
2, 71135, Note_on_c, 0, 66, 43
2, 71135, Note_on_c, 0, 44, 37
2, 71372, Note_off_c, 0, 44, 64
2, 71374, Note_on_c, 0, 63, 24
2, 71375, Note_on_c, 0, 56, 27
2, 71613, Note_off_c, 0, 56, 64
2, 71613, Note_off_c, 0, 63, 64
2, 71613, Note_off_c, 0, 69, 64
2, 71614, Note_on_c, 0, 68, 42
2, 71614, Note_on_c, 0, 56, 28
2, 71616, Note_on_c, 0, 63, 24
2, 71840, Control_c, 0, 64, 64
2, 71852, Note_off_c, 0, 63, 64
2, 71853, Note_off_c, 0, 56, 64
2, 71853, Note_off_c, 0, 66, 64
2, 71853, Note_off_c, 0, 60, 64
2, 71855, Note_on_c, 0, 64, 44
2, 71855, Note_on_c, 0, 49, 40
2, 71856, Control_c, 0, 64, 96
2, 71955, Note_off_c, 0, 68, 64
2, 71958, Note_on_c, 0, 68, 42
2, 71980, Control_c, 0, 64, 127
2, 72058, Note_off_c, 0, 68, 64
2, 72059, Note_off_c, 0, 49, 64
2, 72060, Note_on_c, 0, 68, 39
2, 72062, Note_on_c, 0, 61, 31
2, 72062, Note_on_c, 0, 56, 33
2, 72163, Note_off_c, 0, 68, 64
2, 72163, Note_on_c, 0, 69, 45
2, 72265, Note_off_c, 0, 69, 64
2, 72265, Note_off_c, 0, 56, 64
2, 72266, Note_off_c, 0, 61, 64
2, 72266, Note_on_c, 0, 69, 52
2, 72266, Note_on_c, 0, 54, 35
2, 72369, Note_off_c, 0, 69, 64
2, 72369, Note_on_c, 0, 70, 54
2, 72462, Control_c, 0, 64, 96
2, 72472, Note_off_c, 0, 70, 64
2, 72472, Note_off_c, 0, 54, 64
2, 72472, Note_off_c, 0, 64, 64
2, 72472, Note_on_c, 0, 73, 43
2, 72474, Note_on_c, 0, 63, 36
2, 72474, Note_on_c, 0, 69, 46
2, 72474, Note_on_c, 0, 47, 40
2, 72497, Control_c, 0, 64, 64
2, 72507, Control_c, 0, 64, 0
2, 72710, Note_off_c, 0, 47, 64
2, 72713, Note_on_c, 0, 66, 29
2, 72713, Note_on_c, 0, 59, 28
2, 72950, Note_off_c, 0, 59, 64
2, 72950, Note_off_c, 0, 66, 64
2, 72952, Note_off_c, 0, 73, 64
2, 72953, Note_on_c, 0, 71, 47
2, 72953, Note_on_c, 0, 59, 29
2, 72953, Note_on_c, 0, 66, 27
2, 73142, Control_c, 0, 64, 64
2, 73184, Control_c, 0, 64, 96
2, 73190, Note_off_c, 0, 66, 64
2, 73191, Note_off_c, 0, 69, 64
2, 73191, Note_off_c, 0, 59, 64
2, 73192, Note_off_c, 0, 63, 64
2, 73192, Note_on_c, 0, 68, 43
2, 73194, Note_on_c, 0, 52, 40
2, 73211, Control_c, 0, 64, 127
2, 73292, Note_off_c, 0, 71, 64
2, 73293, Note_on_c, 0, 71, 43
2, 73391, Note_off_c, 0, 71, 64
2, 73392, Note_off_c, 0, 52, 64
2, 73392, Note_on_c, 0, 71, 50
2, 73392, Note_on_c, 0, 64, 31
2, 73392, Note_on_c, 0, 59, 40
2, 73492, Note_off_c, 0, 71, 64
2, 73492, Note_on_c, 0, 73, 45
2, 73591, Note_off_c, 0, 73, 64
2, 73591, Note_off_c, 0, 59, 64
2, 73591, Note_off_c, 0, 64, 64
2, 73591, Note_off_c, 0, 68, 64
2, 73593, Note_on_c, 0, 73, 46
2, 73593, Note_on_c, 0, 68, 40
2, 73593, Note_on_c, 0, 58, 29
2, 73593, Note_on_c, 0, 64, 29
2, 73691, Note_off_c, 0, 73, 64
2, 73691, Note_on_c, 0, 74, 51
2, 73698, Control_c, 0, 64, 96
2, 73716, Control_c, 0, 64, 64
2, 73740, Control_c, 0, 64, 0
2, 73790, Note_off_c, 0, 74, 64
2, 73790, Note_off_c, 0, 64, 64
2, 73790, Note_off_c, 0, 58, 64
2, 73791, Note_off_c, 0, 68, 64
2, 73791, Note_on_c, 0, 51, 36
2, 73791, Note_on_c, 0, 74, 57
2, 73885, Note_off_c, 0, 74, 64
2, 73888, Note_on_c, 0, 75, 56
2, 73970, Control_c, 0, 64, 64
2, 73980, Note_off_c, 0, 51, 64
2, 73980, Note_off_c, 0, 75, 64
2, 73980, Note_on_c, 0, 75, 66
2, 73980, Note_on_c, 0, 59, 38
2, 73981, Note_on_c, 0, 68, 36
2, 73981, Note_on_c, 0, 71, 36
2, 73981, Note_on_c, 0, 63, 33
2, 74012, Control_c, 0, 64, 96
2, 74061, Control_c, 0, 64, 127
2, 74069, Note_off_c, 0, 75, 64
2, 74069, Note_on_c, 0, 80, 60
2, 74156, Note_off_c, 0, 80, 64
2, 74156, Note_off_c, 0, 63, 64
2, 74157, Note_off_c, 0, 71, 64
2, 74157, Note_off_c, 0, 68, 64
2, 74157, Note_off_c, 0, 59, 64
2, 74157, Note_on_c, 0, 80, 70
2, 74241, Note_off_c, 0, 80, 64
2, 74241, Note_on_c, 0, 79, 65
2, 74324, Note_off_c, 0, 79, 64
2, 74326, Note_on_c, 0, 79, 60
2, 74326, Note_on_c, 0, 39, 37
2, 74347, Control_c, 0, 64, 64
2, 74356, Control_c, 0, 64, 0
2, 74409, Note_off_c, 0, 79, 64
2, 74411, Note_on_c, 0, 78, 48
2, 74494, Note_off_c, 0, 78, 64
2, 74494, Note_off_c, 0, 39, 64
2, 74496, Note_on_c, 0, 78, 44
2, 74496, Note_on_c, 0, 67, 35
2, 74497, Note_on_c, 0, 61, 40
2, 74514, Control_c, 0, 64, 64
2, 74524, Control_c, 0, 64, 96
2, 74557, Control_c, 0, 64, 127
2, 74580, Note_off_c, 0, 78, 64
2, 74580, Note_on_c, 0, 77, 47
2, 74664, Note_off_c, 0, 77, 64
2, 74665, Note_off_c, 0, 61, 64
2, 74665, Note_off_c, 0, 67, 64
2, 74665, Note_on_c, 0, 77, 47
2, 74749, Note_off_c, 0, 77, 64
2, 74749, Note_on_c, 0, 76, 49
2, 74834, Note_off_c, 0, 76, 64
2, 74835, Note_on_c, 0, 76, 48
2, 74835, Note_on_c, 0, 44, 40
2, 74840, Control_c, 0, 64, 96
2, 74856, Control_c, 0, 64, 64
2, 74864, Control_c, 0, 64, 0
2, 74920, Note_off_c, 0, 76, 64
2, 74922, Note_on_c, 0, 75, 38
2, 74964, Control_c, 0, 64, 64
2, 74976, Control_c, 0, 64, 96
2, 74992, Control_c, 0, 64, 127
2, 75008, Note_off_c, 0, 75, 64
2, 75008, Note_off_c, 0, 44, 64
2, 75010, Note_on_c, 0, 75, 37
2, 75011, Note_on_c, 0, 60, 40
2, 75011, Note_on_c, 0, 66, 32
2, 75100, Note_off_c, 0, 75, 64
2, 75102, Note_on_c, 0, 74, 38
2, 75195, Note_off_c, 0, 74, 64
2, 75195, Note_off_c, 0, 66, 64
2, 75197, Note_off_c, 0, 60, 64
2, 75197, Note_on_c, 0, 74, 38
2, 75293, Note_off_c, 0, 74, 64
2, 75296, Note_on_c, 0, 73, 34
2, 75383, Control_c, 0, 64, 96
2, 75396, Note_off_c, 0, 73, 64
2, 75397, Note_on_c, 0, 73, 35
2, 75410, Control_c, 0, 64, 64
2, 75440, Control_c, 0, 64, 0
2, 75501, Note_off_c, 0, 73, 64
2, 75502, Note_on_c, 0, 72, 28
2, 75609, Note_off_c, 0, 72, 64
2, 75612, Note_on_c, 0, 72, 34
2, 75724, Note_off_c, 0, 72, 64
2, 75724, Note_on_c, 0, 71, 32
2, 75842, Note_off_c, 0, 71, 64
2, 75842, Note_on_c, 0, 71, 30
2, 75964, Note_off_c, 0, 71, 64
2, 75964, Note_on_c, 0, 69, 30
2, 76094, Note_off_c, 0, 69, 64
2, 76095, Note_on_c, 0, 76, 49
2, 76095, Note_on_c, 0, 68, 38
2, 76097, Note_on_c, 0, 37, 33
2, 76150, Control_c, 0, 64, 64
2, 76164, Control_c, 0, 64, 96
2, 76193, Control_c, 0, 64, 127
2, 76333, Note_off_c, 0, 37, 64
2, 76336, Note_on_c, 0, 61, 25
2, 76336, Note_on_c, 0, 64, 23
2, 76336, Note_on_c, 0, 56, 24
2, 76573, Note_off_c, 0, 56, 64
2, 76573, Note_off_c, 0, 64, 64
2, 76575, Note_off_c, 0, 61, 64
2, 76576, Note_on_c, 0, 56, 24
2, 76576, Note_on_c, 0, 64, 24
2, 76576, Note_on_c, 0, 61, 24
2, 76746, Control_c, 0, 64, 96
2, 76756, Control_c, 0, 64, 64
2, 76771, Control_c, 0, 64, 0
2, 76814, Note_off_c, 0, 61, 64
2, 76814, Note_off_c, 0, 64, 64
2, 76815, Note_off_c, 0, 68, 64
2, 76815, Note_off_c, 0, 76, 64
2, 76815, Note_off_c, 0, 56, 64
2, 76817, Note_on_c, 0, 75, 34
2, 76817, Note_on_c, 0, 67, 30
2, 76817, Note_on_c, 0, 39, 34
2, 76892, Control_c, 0, 64, 64
2, 76900, Control_c, 0, 64, 96
2, 76920, Control_c, 0, 64, 127
2, 77077, Note_off_c, 0, 39, 64
2, 77077, Note_on_c, 0, 61, 24
2, 77077, Note_on_c, 0, 51, 22
2, 77077, Note_on_c, 0, 58, 20
2, 77338, Note_off_c, 0, 58, 64
2, 77338, Note_off_c, 0, 51, 64
2, 77338, Note_off_c, 0, 61, 64
2, 77340, Note_on_c, 0, 58, 22
2, 77340, Note_on_c, 0, 61, 21
2, 77341, Note_on_c, 0, 51, 22
2, 77560, Control_c, 0, 64, 96
2, 77576, Control_c, 0, 64, 64
2, 77597, Control_c, 0, 64, 0
2, 77600, Note_off_c, 0, 51, 64
2, 77602, Note_off_c, 0, 61, 64
2, 77602, Note_off_c, 0, 58, 64
2, 77602, Note_off_c, 0, 67, 64
2, 77602, Note_off_c, 0, 75, 64
2, 77603, Note_on_c, 0, 44, 36
2, 77733, Note_on_c, 0, 68, 36
2, 77733, Note_on_c, 0, 66, 33
2, 77789, Note_on_c, 0, 71, 40
2, 77842, Note_off_c, 0, 71, 64
2, 77844, Note_off_c, 0, 44, 64
2, 77844, Note_off_c, 0, 66, 64
2, 77844, Note_off_c, 0, 68, 64
2, 77845, Note_on_c, 0, 69, 44
2, 77845, Note_on_c, 0, 66, 29
2, 77845, Note_on_c, 0, 51, 24
2, 77846, Note_on_c, 0, 60, 28
2, 77846, Note_on_c, 0, 56, 25
2, 77953, Note_off_c, 0, 66, 64
2, 77954, Note_off_c, 0, 69, 64
2, 78011, Note_on_c, 0, 68, 44
2, 78011, Note_on_c, 0, 66, 34
2, 78064, Note_off_c, 0, 66, 64
2, 78065, Note_off_c, 0, 68, 64
2, 78065, Note_off_c, 0, 56, 64
2, 78065, Note_off_c, 0, 60, 64
2, 78065, Note_off_c, 0, 51, 64
2, 78067, Note_on_c, 0, 75, 53
2, 78067, Note_on_c, 0, 66, 46
2, 78067, Note_on_c, 0, 51, 26
2, 78067, Note_on_c, 0, 56, 24
2, 78068, Note_on_c, 0, 60, 28
2, 78229, Control_c, 0, 64, 64
2, 78277, Control_c, 0, 64, 96
2, 78286, Note_off_c, 0, 60, 64
2, 78286, Note_off_c, 0, 56, 64
2, 78287, Note_off_c, 0, 51, 64
2, 78287, Note_off_c, 0, 66, 64
2, 78287, Note_off_c, 0, 75, 64
2, 78288, Note_on_c, 0, 49, 40
2, 78307, Control_c, 0, 64, 127
2, 78398, Note_on_c, 0, 68, 33
2, 78399, Note_on_c, 0, 66, 27
2, 78454, Note_on_c, 0, 71, 36
2, 78507, Note_off_c, 0, 71, 64
2, 78507, Note_off_c, 0, 66, 64
2, 78507, Note_off_c, 0, 68, 64
2, 78509, Note_off_c, 0, 49, 64
2, 78509, Note_on_c, 0, 69, 40
2, 78510, Note_on_c, 0, 63, 33
2, 78510, Note_on_c, 0, 56, 35
2, 78510, Note_on_c, 0, 66, 28
2, 78536, Control_c, 0, 64, 96
2, 78545, Control_c, 0, 64, 0
2, 78620, Note_off_c, 0, 66, 64
2, 78620, Note_off_c, 0, 69, 64
2, 78676, Note_on_c, 0, 66, 37
2, 78677, Note_on_c, 0, 68, 42
2, 78731, Note_off_c, 0, 66, 64
2, 78731, Note_off_c, 0, 68, 64
2, 78732, Note_off_c, 0, 56, 64
2, 78732, Note_off_c, 0, 63, 64
2, 78732, Note_on_c, 0, 73, 45
2, 78732, Note_on_c, 0, 64, 28
2, 78733, Note_on_c, 0, 56, 31
2, 78733, Note_on_c, 0, 61, 32
2, 78952, Note_off_c, 0, 61, 64
2, 78952, Note_off_c, 0, 56, 64
2, 78952, Note_off_c, 0, 64, 64
2, 78954, Note_off_c, 0, 73, 64
2, 78954, Note_on_c, 0, 73, 51
2, 78954, Note_on_c, 0, 64, 44
2, 78954, Note_on_c, 0, 40, 34
2, 78957, Control_c, 0, 64, 64
2, 78975, Control_c, 0, 64, 96
2, 78990, Control_c, 0, 64, 127
2, 79193, Note_off_c, 0, 40, 64
2, 79193, Note_on_c, 0, 57, 23
2, 79193, Note_on_c, 0, 52, 29
2, 79433, Note_off_c, 0, 52, 64
2, 79433, Note_off_c, 0, 57, 64
2, 79435, Note_on_c, 0, 52, 27
2, 79435, Note_on_c, 0, 57, 21
2, 79570, Control_c, 0, 64, 96
2, 79599, Control_c, 0, 64, 64
2, 79612, Control_c, 0, 64, 0
2, 79674, Note_off_c, 0, 57, 64
2, 79674, Note_off_c, 0, 52, 64
2, 79674, Note_off_c, 0, 64, 64
2, 79674, Note_off_c, 0, 73, 64
2, 79675, Note_on_c, 0, 72, 35
2, 79675, Note_on_c, 0, 63, 31
2, 79677, Note_on_c, 0, 40, 36
2, 79718, Control_c, 0, 64, 64
2, 79730, Control_c, 0, 64, 96
2, 79764, Control_c, 0, 64, 127
2, 79934, Note_off_c, 0, 40, 64
2, 79936, Note_on_c, 0, 57, 26
2, 79936, Note_on_c, 0, 54, 28
2, 80196, Note_off_c, 0, 54, 64
2, 80198, Note_off_c, 0, 57, 64
2, 80199, Note_on_c, 0, 54, 26
2, 80199, Note_on_c, 0, 57, 24
2, 80410, Control_c, 0, 64, 96
2, 80425, Control_c, 0, 64, 64
2, 80447, Control_c, 0, 64, 0
2, 80460, Note_off_c, 0, 57, 64
2, 80460, Note_off_c, 0, 54, 64
2, 80460, Note_off_c, 0, 63, 64
2, 80460, Note_off_c, 0, 72, 64
2, 80461, Note_on_c, 0, 40, 36
2, 80571, Control_c, 0, 64, 64
2, 80580, Control_c, 0, 64, 96
2, 80591, Note_on_c, 0, 62, 30
2, 80591, Note_on_c, 0, 64, 39
2, 80610, Control_c, 0, 64, 127
2, 80647, Note_on_c, 0, 68, 40
2, 80702, Note_off_c, 0, 68, 64
2, 80702, Note_off_c, 0, 64, 64
2, 80702, Note_off_c, 0, 62, 64
2, 80703, Note_off_c, 0, 40, 64
2, 80703, Note_on_c, 0, 66, 38
2, 80703, Note_on_c, 0, 62, 30
2, 80703, Note_on_c, 0, 56, 36
2, 80813, Note_off_c, 0, 62, 64
2, 80813, Note_off_c, 0, 66, 64
2, 80869, Note_on_c, 0, 64, 44
2, 80869, Note_on_c, 0, 62, 34
2, 80922, Note_off_c, 0, 62, 64
2, 80924, Note_off_c, 0, 64, 64
2, 80924, Note_off_c, 0, 56, 64
2, 80925, Note_on_c, 0, 62, 45
2, 80925, Note_on_c, 0, 71, 51
2, 80927, Note_on_c, 0, 52, 32
2, 80927, Note_on_c, 0, 56, 22
2, 81135, Control_c, 0, 64, 96
2, 81145, Note_off_c, 0, 56, 64
2, 81145, Note_off_c, 0, 52, 64
2, 81145, Note_off_c, 0, 71, 64
2, 81145, Note_off_c, 0, 62, 64
2, 81147, Note_on_c, 0, 45, 35
2, 81151, Control_c, 0, 64, 64
2, 81166, Control_c, 0, 64, 0
2, 81232, Control_c, 0, 64, 64
2, 81240, Control_c, 0, 64, 96
2, 81255, Control_c, 0, 64, 127
2, 81258, Note_on_c, 0, 62, 37
2, 81258, Note_on_c, 0, 64, 39
2, 81312, Note_on_c, 0, 68, 40
2, 81366, Note_off_c, 0, 68, 64
2, 81367, Note_off_c, 0, 64, 64
2, 81367, Note_off_c, 0, 62, 64
2, 81367, Note_off_c, 0, 45, 64
2, 81367, Note_on_c, 0, 66, 38
2, 81369, Note_on_c, 0, 61, 36
2, 81369, Note_on_c, 0, 57, 31
2, 81370, Note_on_c, 0, 52, 40
2, 81478, Note_off_c, 0, 61, 64
2, 81478, Note_off_c, 0, 66, 64
2, 81536, Note_on_c, 0, 64, 53
2, 81536, Note_on_c, 0, 61, 34
2, 81590, Note_off_c, 0, 61, 64
2, 81590, Note_off_c, 0, 64, 64
2, 81590, Note_off_c, 0, 52, 64
2, 81590, Note_off_c, 0, 57, 64
2, 81592, Note_on_c, 0, 69, 51
2, 81592, Note_on_c, 0, 61, 51
2, 81592, Note_on_c, 0, 51, 31
2, 81592, Note_on_c, 0, 57, 28
2, 81760, Control_c, 0, 64, 96
2, 81770, Control_c, 0, 64, 64
2, 81778, Control_c, 0, 64, 0
2, 81811, Note_off_c, 0, 57, 64
2, 81812, Note_off_c, 0, 51, 64
2, 81812, Note_off_c, 0, 61, 64
2, 81812, Note_off_c, 0, 69, 64
2, 81812, Note_on_c, 0, 60, 42
2, 81814, Note_on_c, 0, 69, 44
2, 81814, Note_on_c, 0, 66, 42
2, 81814, Note_on_c, 0, 44, 37
2, 81860, Control_c, 0, 64, 64
2, 81871, Control_c, 0, 64, 96
2, 81880, Control_c, 0, 64, 127
2, 82051, Note_off_c, 0, 44, 64
2, 82053, Note_on_c, 0, 63, 24
2, 82053, Note_on_c, 0, 56, 27
2, 82292, Note_off_c, 0, 56, 64
2, 82292, Note_off_c, 0, 63, 64
2, 82293, Note_off_c, 0, 69, 64
2, 82293, Note_on_c, 0, 68, 42
2, 82293, Note_on_c, 0, 56, 28
2, 82293, Note_on_c, 0, 63, 24
2, 82492, Control_c, 0, 64, 96
2, 82513, Control_c, 0, 64, 64
2, 82532, Note_off_c, 0, 63, 64
2, 82532, Note_off_c, 0, 56, 64
2, 82532, Note_off_c, 0, 66, 64
2, 82534, Note_off_c, 0, 60, 64
2, 82534, Note_on_c, 0, 65, 45
2, 82534, Note_on_c, 0, 49, 37
2, 82552, Control_c, 0, 64, 0
2, 82634, Note_off_c, 0, 68, 64
2, 82634, Note_off_c, 0, 65, 64
2, 82634, Note_on_c, 0, 70, 48
2, 82731, Note_off_c, 0, 70, 64
2, 82731, Note_off_c, 0, 49, 64
2, 82732, Note_on_c, 0, 70, 49
2, 82732, Note_on_c, 0, 59, 24
2, 82732, Note_on_c, 0, 61, 27
2, 82732, Note_on_c, 0, 56, 24
2, 82824, Note_off_c, 0, 70, 64
2, 82826, Note_on_c, 0, 71, 53
2, 82917, Note_off_c, 0, 71, 64
2, 82918, Note_off_c, 0, 56, 64
2, 82918, Note_off_c, 0, 61, 64
2, 82918, Note_off_c, 0, 59, 64
2, 82918, Note_on_c, 0, 71, 53
2, 82920, Note_on_c, 0, 61, 28
2, 82920, Note_on_c, 0, 59, 24
2, 82920, Note_on_c, 0, 56, 24
2, 83007, Note_off_c, 0, 71, 64
2, 83007, Note_on_c, 0, 72, 49
2, 83097, Note_off_c, 0, 72, 64
2, 83098, Note_off_c, 0, 56, 64
2, 83098, Note_off_c, 0, 59, 64
2, 83098, Note_off_c, 0, 61, 64
2, 83098, Note_on_c, 0, 75, 54
2, 83100, Note_on_c, 0, 64, 42
2, 83100, Note_on_c, 0, 42, 37
2, 83125, Control_c, 0, 64, 64
2, 83134, Control_c, 0, 64, 96
2, 83157, Control_c, 0, 64, 127
2, 83336, Note_off_c, 0, 42, 64
2, 83337, Note_on_c, 0, 66, 24
2, 83339, Note_on_c, 0, 58, 27
2, 83576, Note_off_c, 0, 75, 64
2, 83576, Note_off_c, 0, 66, 64
2, 83576, Note_off_c, 0, 58, 64
2, 83578, Note_on_c, 0, 73, 43
2, 83579, Note_on_c, 0, 58, 28
2, 83579, Note_on_c, 0, 66, 24
2, 83737, Control_c, 0, 64, 96
2, 83763, Control_c, 0, 64, 64
2, 83782, Control_c, 0, 64, 0
2, 83817, Note_off_c, 0, 66, 64
2, 83817, Note_off_c, 0, 58, 64
2, 83817, Note_off_c, 0, 64, 64
2, 83818, Note_on_c, 0, 63, 40
2, 83820, Note_on_c, 0, 47, 37
2, 83917, Note_off_c, 0, 73, 64
2, 83920, Note_on_c, 0, 66, 43
2, 84015, Note_off_c, 0, 66, 64
2, 84015, Note_off_c, 0, 47, 64
2, 84017, Note_on_c, 0, 66, 44
2, 84018, Note_on_c, 0, 59, 24
2, 84018, Note_on_c, 0, 57, 27
2, 84109, Note_off_c, 0, 66, 64
2, 84112, Note_on_c, 0, 68, 47
2, 84201, Note_off_c, 0, 68, 64
2, 84201, Note_off_c, 0, 57, 64
2, 84201, Note_off_c, 0, 59, 64
2, 84204, Note_on_c, 0, 68, 45
2, 84204, Note_on_c, 0, 57, 28
2, 84204, Note_on_c, 0, 59, 24
2, 84292, Note_off_c, 0, 68, 64
2, 84293, Note_on_c, 0, 69, 51
2, 84372, Control_c, 0, 64, 64
2, 84381, Note_off_c, 0, 69, 64
2, 84381, Note_off_c, 0, 59, 64
2, 84383, Note_off_c, 0, 57, 64
2, 84383, Note_off_c, 0, 63, 64
2, 84384, Note_on_c, 0, 73, 50
2, 84384, Note_on_c, 0, 62, 40
2, 84384, Note_on_c, 0, 40, 37
2, 84404, Control_c, 0, 64, 96
2, 84413, Control_c, 0, 64, 127
2, 84622, Note_off_c, 0, 40, 64
2, 84622, Note_on_c, 0, 56, 24
2, 84623, Note_on_c, 0, 47, 27
2, 84862, Note_off_c, 0, 47, 64
2, 84862, Note_off_c, 0, 56, 64
2, 84862, Note_off_c, 0, 73, 64
2, 84864, Note_on_c, 0, 71, 53
2, 84864, Note_on_c, 0, 41, 22
2, 84960, Control_c, 0, 64, 96
2, 84982, Control_c, 0, 64, 64
2, 85023, Control_c, 0, 64, 0
2, 85103, Note_off_c, 0, 41, 64
2, 85103, Note_off_c, 0, 62, 64
2, 85103, Note_on_c, 0, 61, 43
2, 85104, Note_on_c, 0, 42, 37
2, 85222, Note_off_c, 0, 71, 64
2, 85225, Note_on_c, 0, 69, 51
2, 85343, Note_off_c, 0, 69, 64
2, 85343, Note_off_c, 0, 42, 64
2, 85344, Note_on_c, 0, 68, 47
2, 85344, Note_on_c, 0, 57, 24
2, 85344, Note_on_c, 0, 51, 27
2, 85463, Note_off_c, 0, 68, 64
2, 85465, Note_on_c, 0, 66, 43
2, 85501, Note_off_c, 0, 66, 64
2, 85503, Note_on_c, 0, 68, 43
2, 85543, Note_off_c, 0, 68, 64
2, 85543, Note_on_c, 0, 66, 43
2, 85584, Note_off_c, 0, 66, 64
2, 85584, Note_off_c, 0, 51, 64
2, 85584, Note_off_c, 0, 57, 64
2, 85585, Note_on_c, 0, 64, 50
2, 85703, Note_off_c, 0, 64, 64
2, 85704, Note_on_c, 0, 66, 46
2, 85823, Note_off_c, 0, 66, 64
2, 85824, Note_off_c, 0, 61, 64
2, 85825, Note_on_c, 0, 67, 45
2, 85825, Note_on_c, 0, 44, 37
2, 85958, Note_off_c, 0, 67, 64
2, 85959, Note_on_c, 0, 68, 43
2, 86099, Note_off_c, 0, 68, 64
2, 86099, Note_off_c, 0, 44, 64
2, 86100, Note_on_c, 0, 56, 43
2, 86102, Note_on_c, 0, 61, 24
2, 86102, Note_on_c, 0, 52, 27
2, 86247, Note_off_c, 0, 56, 64
2, 86249, Note_on_c, 0, 64, 50
2, 86403, Note_off_c, 0, 64, 64
2, 86403, Note_off_c, 0, 52, 64
2, 86404, Note_off_c, 0, 61, 64
2, 86406, Note_on_c, 0, 64, 53
2, 86406, Note_on_c, 0, 54, 22
2, 86406, Note_on_c, 0, 60, 22
2, 86586, Control_c, 0, 64, 64
2, 86592, Note_off_c, 0, 64, 64
2, 86593, Note_on_c, 0, 63, 43
2, 86767, Control_c, 0, 64, 96
2, 86787, Control_c, 0, 64, 127
2, 86790, Note_off_c, 0, 63, 64
2, 86790, Note_off_c, 0, 60, 64
2, 86790, Note_off_c, 0, 54, 64
2, 86795, Note_on_c, 0, 61, 34
2, 86795, Note_on_c, 0, 37, 37
2, 87064, Control_c, 0, 64, 96
2, 87078, Control_c, 0, 64, 64
2, 87144, Control_c, 0, 64, 96
2, 87180, Control_c, 0, 64, 127
2, 87204, Note_off_c, 0, 37, 64
2, 87204, Note_off_c, 0, 61, 64
2, 87205, Note_on_c, 0, 64, 24
2, 87205, Note_on_c, 0, 56, 27
2, 87614, Note_off_c, 0, 56, 64
2, 87614, Note_off_c, 0, 64, 64
2, 87617, Note_on_c, 0, 68, 38
2, 87807, Control_c, 0, 64, 96
2, 87854, Control_c, 0, 64, 64
2, 87906, Control_c, 0, 64, 0
2, 88016, Control_c, 0, 64, 64
2, 88027, Note_off_c, 0, 68, 64
2, 88030, Control_c, 0, 64, 127
2, 88030, Note_on_c, 0, 80, 64
2, 88030, Control_c, 0, 64, 127
2, 88032, Note_on_c, 0, 48, 33
2, 88033, Control_c, 0, 64, 96
2, 88059, Control_c, 0, 64, 127
2, 88082, Note_off_c, 0, 80, 64
2, 88082, Note_on_c, 0, 81, 42
2, 88134, Note_off_c, 0, 81, 64
2, 88134, Note_off_c, 0, 48, 64
2, 88135, Note_on_c, 0, 80, 38
2, 88135, Note_on_c, 0, 63, 22
2, 88135, Note_on_c, 0, 56, 20
2, 88187, Note_off_c, 0, 56, 64
2, 88187, Note_off_c, 0, 63, 64
2, 88187, Note_off_c, 0, 80, 64
2, 88187, Note_on_c, 0, 78, 37
2, 88239, Note_off_c, 0, 78, 64
2, 88240, Note_on_c, 0, 75, 30
2, 88240, Note_on_c, 0, 63, 21
2, 88240, Note_on_c, 0, 56, 21
2, 88292, Note_off_c, 0, 56, 64
2, 88292, Note_off_c, 0, 63, 64
2, 88292, Note_off_c, 0, 75, 64
2, 88292, Control_c, 0, 64, 0
2, 88294, Note_on_c, 0, 68, 31
2, 88294, Control_c, 0, 64, 0
2, 88312, Control_c, 0, 64, 64
2, 88322, Control_c, 0, 64, 0
2, 88344, Note_off_c, 0, 68, 64
2, 88345, Note_on_c, 0, 78, 53
2, 88345, Control_c, 0, 64, 127
2, 88345, Note_on_c, 0, 49, 25
2, 88374, Control_c, 0, 64, 64
2, 88384, Control_c, 0, 64, 96
2, 88393, Control_c, 0, 64, 127
2, 88397, Note_off_c, 0, 78, 64
2, 88397, Note_on_c, 0, 80, 45
2, 88449, Note_off_c, 0, 80, 64
2, 88449, Note_off_c, 0, 49, 64
2, 88451, Note_on_c, 0, 78, 45
2, 88451, Note_on_c, 0, 56, 25
2, 88451, Note_on_c, 0, 64, 19
2, 88500, Note_off_c, 0, 64, 64
2, 88501, Note_off_c, 0, 56, 64
2, 88501, Note_off_c, 0, 78, 64
2, 88502, Note_on_c, 0, 76, 38
2, 88553, Note_off_c, 0, 76, 64
2, 88554, Note_on_c, 0, 73, 35
2, 88556, Note_on_c, 0, 56, 23
2, 88556, Note_on_c, 0, 64, 25
2, 88605, Note_off_c, 0, 64, 64
2, 88606, Note_off_c, 0, 56, 64
2, 88606, Note_off_c, 0, 73, 64
2, 88608, Note_on_c, 0, 68, 30
2, 88608, Control_c, 0, 64, 0
2, 88626, Control_c, 0, 64, 64
2, 88633, Control_c, 0, 64, 0
2, 88658, Note_off_c, 0, 68, 64
2, 88659, Note_on_c, 0, 76, 59
2, 88661, Control_c, 0, 64, 127
2, 88661, Note_on_c, 0, 44, 29
2, 88684, Control_c, 0, 64, 96
2, 88700, Control_c, 0, 64, 127
2, 88710, Note_off_c, 0, 76, 64
2, 88713, Note_on_c, 0, 78, 48
2, 88763, Note_off_c, 0, 78, 64
2, 88763, Note_off_c, 0, 44, 64
2, 88763, Note_on_c, 0, 76, 45
2, 88764, Note_on_c, 0, 54, 28
2, 88764, Note_on_c, 0, 60, 18
2, 88815, Note_off_c, 0, 60, 64
2, 88816, Note_off_c, 0, 54, 64
2, 88816, Note_off_c, 0, 76, 64
2, 88816, Note_on_c, 0, 75, 40
2, 88868, Note_off_c, 0, 75, 64
2, 88868, Note_on_c, 0, 72, 30
2, 88868, Note_on_c, 0, 54, 25
2, 88870, Note_on_c, 0, 60, 25
2, 88920, Note_off_c, 0, 60, 64
2, 88921, Note_off_c, 0, 54, 64
2, 88921, Note_off_c, 0, 72, 64
2, 88921, Note_on_c, 0, 66, 19
2, 88923, Control_c, 0, 64, 0
2, 88939, Control_c, 0, 64, 64
2, 88949, Control_c, 0, 64, 0
2, 88973, Note_off_c, 0, 66, 64
2, 88973, Note_on_c, 0, 75, 51
2, 88973, Note_on_c, 0, 45, 34
2, 88996, Control_c, 0, 64, 64
2, 89004, Control_c, 0, 64, 96
2, 89012, Control_c, 0, 64, 127
2, 89025, Note_off_c, 0, 75, 64
2, 89027, Note_on_c, 0, 76, 39
2, 89078, Note_off_c, 0, 76, 64
2, 89078, Note_off_c, 0, 45, 64
2, 89078, Note_on_c, 0, 75, 38
2, 89080, Note_on_c, 0, 61, 27
2, 89080, Note_on_c, 0, 52, 25
2, 89130, Note_off_c, 0, 52, 64
2, 89132, Note_off_c, 0, 61, 64
2, 89132, Note_off_c, 0, 75, 64
2, 89132, Note_on_c, 0, 73, 33
2, 89184, Note_off_c, 0, 73, 64
2, 89184, Note_on_c, 0, 69, 24
2, 89184, Note_on_c, 0, 52, 29
2, 89185, Note_on_c, 0, 61, 27
2, 89237, Note_off_c, 0, 61, 64
2, 89237, Note_off_c, 0, 52, 64
2, 89237, Note_off_c, 0, 69, 64
2, 89237, Note_on_c, 0, 64, 20
2, 89240, Control_c, 0, 64, 96
2, 89254, Control_c, 0, 64, 0
2, 89287, Note_off_c, 0, 64, 64
2, 89289, Note_on_c, 0, 73, 48
2, 89289, Note_on_c, 0, 42, 30
2, 89293, Control_c, 0, 64, 64
2, 89307, Control_c, 0, 64, 96
2, 89316, Control_c, 0, 64, 127
2, 89339, Note_off_c, 0, 73, 64
2, 89342, Note_on_c, 0, 75, 42
2, 89392, Note_off_c, 0, 75, 64
2, 89392, Note_off_c, 0, 42, 64
2, 89394, Note_on_c, 0, 73, 41
2, 89394, Note_on_c, 0, 54, 26
2, 89395, Note_on_c, 0, 61, 25
2, 89444, Note_off_c, 0, 61, 64
2, 89446, Note_off_c, 0, 54, 64
2, 89446, Note_off_c, 0, 73, 64
2, 89447, Note_on_c, 0, 69, 33
2, 89497, Note_off_c, 0, 69, 64
2, 89499, Note_on_c, 0, 63, 29
2, 89549, Note_off_c, 0, 63, 64
2, 89551, Note_on_c, 0, 73, 31
2, 89567, Control_c, 0, 64, 64
2, 89575, Control_c, 0, 64, 0
2, 89603, Note_off_c, 0, 73, 64
2, 89603, Note_on_c, 0, 73, 61
2, 89603, Note_on_c, 0, 44, 30
2, 89623, Control_c, 0, 64, 64
2, 89631, Control_c, 0, 64, 96
2, 89641, Control_c, 0, 64, 127
2, 89654, Note_off_c, 0, 73, 64
2, 89654, Note_on_c, 0, 75, 50
2, 89708, Note_off_c, 0, 75, 64
2, 89708, Note_off_c, 0, 44, 64
2, 89708, Note_on_c, 0, 73, 59
2, 89708, Note_on_c, 0, 56, 25
2, 89709, Note_on_c, 0, 52, 30
2, 89760, Note_off_c, 0, 52, 64
2, 89760, Note_off_c, 0, 56, 64
2, 89761, Note_off_c, 0, 73, 64
2, 89761, Note_on_c, 0, 68, 39
2, 89813, Note_off_c, 0, 68, 64
2, 89813, Note_on_c, 0, 61, 38
2, 89865, Note_off_c, 0, 61, 64
2, 89866, Note_on_c, 0, 68, 41
2, 89901, Control_c, 0, 64, 96
2, 89909, Control_c, 0, 64, 0
2, 89918, Note_off_c, 0, 68, 64
2, 89918, Note_on_c, 0, 68, 58
2, 89918, Note_on_c, 0, 44, 26
2, 89960, Control_c, 0, 64, 64
2, 89967, Control_c, 0, 64, 96
2, 89970, Note_off_c, 0, 68, 64
2, 89971, Note_on_c, 0, 56, 41
2, 89981, Control_c, 0, 64, 127
2, 90024, Note_off_c, 0, 56, 64
2, 90024, Note_off_c, 0, 44, 64
2, 90026, Note_on_c, 0, 63, 44
2, 90079, Note_off_c, 0, 63, 64
2, 90079, Note_on_c, 0, 68, 48
2, 90134, Note_off_c, 0, 68, 64
2, 90134, Note_on_c, 0, 54, 30
2, 90134, Note_on_c, 0, 60, 22
2, 90134, Note_on_c, 0, 69, 48
2, 90186, Control_c, 0, 64, 96
2, 90190, Note_off_c, 0, 69, 64
2, 90190, Note_on_c, 0, 68, 45
2, 90202, Control_c, 0, 64, 0
2, 90248, Note_off_c, 0, 68, 64
2, 90249, Note_off_c, 0, 60, 64
2, 90249, Note_off_c, 0, 54, 64
2, 90249, Control_c, 0, 64, 127
2, 90249, Note_on_c, 0, 67, 52
2, 90251, Note_on_c, 0, 49, 25
2, 90272, Control_c, 0, 64, 96
2, 90282, Control_c, 0, 64, 127
2, 90304, Note_off_c, 0, 67, 64
2, 90307, Note_on_c, 0, 68, 49
2, 90363, Note_off_c, 0, 68, 64
2, 90363, Note_off_c, 0, 49, 64
2, 90363, Note_on_c, 0, 72, 57
2, 90363, Note_on_c, 0, 56, 22
2, 90420, Note_off_c, 0, 56, 64
2, 90420, Note_off_c, 0, 72, 64
2, 90422, Note_on_c, 0, 73, 62
2, 90478, Note_off_c, 0, 73, 64
2, 90480, Note_on_c, 0, 76, 62
2, 90480, Note_on_c, 0, 64, 21
2, 90480, Note_on_c, 0, 56, 22
2, 90536, Note_off_c, 0, 56, 64
2, 90536, Note_off_c, 0, 64, 64
2, 90536, Note_off_c, 0, 76, 64
2, 90537, Note_on_c, 0, 78, 67
2, 90593, Note_off_c, 0, 78, 64
2, 90595, Note_on_c, 0, 80, 53
2, 90595, Note_on_c, 0, 48, 37
2, 90629, Control_c, 0, 64, 96
2, 90641, Control_c, 0, 64, 0
2, 90647, Note_off_c, 0, 80, 64
2, 90647, Note_on_c, 0, 81, 55
2, 90698, Note_off_c, 0, 81, 64
2, 90698, Note_off_c, 0, 48, 64
2, 90700, Control_c, 0, 64, 0
2, 90700, Note_on_c, 0, 80, 46
2, 90700, Note_on_c, 0, 63, 26
2, 90700, Note_on_c, 0, 56, 25
2, 90719, Control_c, 0, 64, 96
2, 90730, Control_c, 0, 64, 127
2, 90752, Note_off_c, 0, 56, 64
2, 90752, Note_off_c, 0, 63, 64
2, 90752, Note_off_c, 0, 80, 64
2, 90752, Note_on_c, 0, 78, 42
2, 90804, Note_off_c, 0, 78, 64
2, 90804, Note_on_c, 0, 75, 30
2, 90805, Note_on_c, 0, 63, 25
2, 90805, Note_on_c, 0, 56, 26
2, 90857, Note_off_c, 0, 56, 64
2, 90857, Note_off_c, 0, 63, 64
2, 90857, Note_off_c, 0, 75, 64
2, 90857, Note_on_c, 0, 68, 27
2, 90907, Control_c, 0, 64, 96
2, 90909, Note_off_c, 0, 68, 64
2, 90909, Note_on_c, 0, 78, 48
2, 90910, Note_on_c, 0, 49, 29
2, 90923, Control_c, 0, 64, 0
2, 90962, Note_off_c, 0, 78, 64
2, 90962, Note_on_c, 0, 80, 36
2, 90978, Control_c, 0, 64, 64
2, 90988, Control_c, 0, 64, 96
2, 90996, Control_c, 0, 64, 127
2, 91014, Note_off_c, 0, 80, 64
2, 91014, Note_off_c, 0, 49, 64
2, 91015, Note_on_c, 0, 78, 39
2, 91015, Note_on_c, 0, 56, 26
2, 91015, Note_on_c, 0, 64, 24
2, 91064, Note_off_c, 0, 64, 64
2, 91064, Note_off_c, 0, 56, 64
2, 91066, Note_off_c, 0, 78, 64
2, 91067, Note_on_c, 0, 76, 37
2, 91117, Note_off_c, 0, 76, 64
2, 91119, Note_on_c, 0, 73, 28
2, 91119, Note_on_c, 0, 56, 29
2, 91120, Note_on_c, 0, 64, 22
2, 91169, Note_off_c, 0, 64, 64
2, 91169, Note_off_c, 0, 56, 64
2, 91171, Note_off_c, 0, 73, 64
2, 91172, Note_on_c, 0, 68, 26
2, 91194, Control_c, 0, 64, 96
2, 91205, Control_c, 0, 64, 0
2, 91223, Note_off_c, 0, 68, 64
2, 91224, Note_on_c, 0, 76, 56
2, 91224, Note_on_c, 0, 44, 33
2, 91274, Note_off_c, 0, 76, 64
2, 91276, Note_on_c, 0, 78, 50
2, 91315, Control_c, 0, 64, 64
2, 91328, Note_off_c, 0, 78, 64
2, 91328, Note_off_c, 0, 44, 64
2, 91328, Note_on_c, 0, 76, 55
2, 91328, Note_on_c, 0, 54, 29
2, 91329, Note_on_c, 0, 60, 30
2, 91346, Control_c, 0, 64, 96
2, 91361, Control_c, 0, 64, 127
2, 91380, Note_off_c, 0, 60, 64
2, 91381, Note_off_c, 0, 54, 64
2, 91381, Note_off_c, 0, 76, 64
2, 91381, Note_on_c, 0, 75, 44
2, 91433, Note_off_c, 0, 75, 64
2, 91433, Note_on_c, 0, 72, 19
2, 91433, Note_on_c, 0, 54, 27
2, 91433, Note_on_c, 0, 60, 30
2, 91485, Note_off_c, 0, 60, 64
2, 91486, Note_off_c, 0, 54, 64
2, 91486, Note_off_c, 0, 72, 64
2, 91486, Note_on_c, 0, 66, 26
2, 91500, Control_c, 0, 64, 96
2, 91506, Control_c, 0, 64, 0
2, 91538, Note_off_c, 0, 66, 64
2, 91538, Note_on_c, 0, 75, 48
2, 91538, Note_on_c, 0, 45, 35
2, 91562, Control_c, 0, 64, 64
2, 91571, Control_c, 0, 64, 96
2, 91581, Control_c, 0, 64, 127
2, 91590, Note_off_c, 0, 75, 64
2, 91591, Note_on_c, 0, 76, 47
2, 91643, Note_off_c, 0, 76, 64
2, 91643, Note_off_c, 0, 45, 64
2, 91643, Note_on_c, 0, 75, 40
2, 91644, Note_on_c, 0, 61, 25
2, 91644, Note_on_c, 0, 52, 33
2, 91695, Note_off_c, 0, 52, 64
2, 91695, Note_off_c, 0, 61, 64
2, 91696, Note_off_c, 0, 75, 64
2, 91696, Note_on_c, 0, 73, 34
2, 91748, Note_off_c, 0, 73, 64
2, 91748, Note_on_c, 0, 69, 35
2, 91748, Note_on_c, 0, 61, 29
2, 91748, Note_on_c, 0, 52, 28
2, 91800, Note_off_c, 0, 52, 64
2, 91800, Note_off_c, 0, 61, 64
2, 91801, Note_off_c, 0, 69, 64
2, 91801, Note_on_c, 0, 64, 34
2, 91817, Control_c, 0, 64, 64
2, 91826, Control_c, 0, 64, 0
2, 91850, Note_off_c, 0, 64, 64
2, 91853, Note_on_c, 0, 69, 47
2, 91853, Note_on_c, 0, 42, 31
2, 91881, Control_c, 0, 64, 64
2, 91891, Control_c, 0, 64, 96
2, 91904, Note_off_c, 0, 69, 64
2, 91904, Note_on_c, 0, 71, 49
2, 91905, Control_c, 0, 64, 127
2, 91957, Note_off_c, 0, 71, 64
2, 91957, Note_off_c, 0, 42, 64
2, 91957, Note_on_c, 0, 73, 45
2, 92007, Note_off_c, 0, 73, 64
2, 92009, Note_on_c, 0, 74, 52
2, 92059, Note_off_c, 0, 74, 64
2, 92061, Note_on_c, 0, 57, 26
2, 92061, Note_on_c, 0, 62, 29
2, 92061, Note_on_c, 0, 69, 23
2, 92061, Note_on_c, 0, 76, 45
2, 92112, Note_off_c, 0, 76, 64
2, 92112, Note_on_c, 0, 78, 42
2, 92164, Note_off_c, 0, 69, 64
2, 92164, Note_off_c, 0, 78, 64
2, 92166, Note_off_c, 0, 62, 64
2, 92166, Note_off_c, 0, 57, 64
2, 92166, Note_on_c, 0, 79, 45
2, 92199, Control_c, 0, 64, 96
2, 92218, Note_off_c, 0, 79, 64
2, 92218, Note_on_c, 0, 80, 38
2, 92248, Control_c, 0, 64, 127
2, 92269, Note_off_c, 0, 80, 64
2, 92269, Note_on_c, 0, 81, 26
2, 92323, Note_off_c, 0, 81, 64
2, 92323, Note_on_c, 0, 81, 26
2, 92375, Note_off_c, 0, 81, 64
2, 92376, Note_on_c, 0, 83, 42
2, 92428, Note_off_c, 0, 83, 64
2, 92428, Note_on_c, 0, 85, 39
2, 92444, Control_c, 0, 64, 96
2, 92454, Control_c, 0, 64, 64
2, 92462, Control_c, 0, 64, 0
2, 92478, Note_off_c, 0, 85, 64
2, 92480, Note_on_c, 0, 86, 38
2, 92481, Note_on_c, 0, 44, 29
2, 92497, Control_c, 0, 64, 64
2, 92506, Control_c, 0, 64, 96
2, 92516, Control_c, 0, 64, 127
2, 92530, Note_off_c, 0, 86, 64
2, 92533, Note_on_c, 0, 87, 41
2, 92582, Note_off_c, 0, 87, 64
2, 92584, Note_off_c, 0, 44, 64
2, 92586, Note_on_c, 0, 88, 41
2, 92586, Note_on_c, 0, 66, 26
2, 92586, Note_on_c, 0, 60, 30
2, 92586, Note_on_c, 0, 56, 21
2, 92635, Note_off_c, 0, 56, 64
2, 92637, Note_off_c, 0, 60, 64
2, 92637, Note_off_c, 0, 66, 64
2, 92637, Note_off_c, 0, 88, 64
2, 92638, Note_on_c, 0, 89, 41
2, 92688, Note_off_c, 0, 89, 64
2, 92690, Note_on_c, 0, 90, 37
2, 92691, Note_on_c, 0, 66, 27
2, 92691, Note_on_c, 0, 56, 22
2, 92691, Note_on_c, 0, 60, 22
2, 92740, Note_off_c, 0, 60, 64
2, 92742, Note_off_c, 0, 56, 64
2, 92742, Note_off_c, 0, 66, 64
2, 92742, Note_off_c, 0, 90, 64
2, 92742, Note_on_c, 0, 91, 36
2, 92776, Control_c, 0, 64, 96
2, 92786, Control_c, 0, 64, 64
2, 92794, Note_off_c, 0, 91, 64
2, 92794, Note_on_c, 0, 92, 35
2, 92795, Note_on_c, 0, 49, 34
2, 92795, Control_c, 0, 64, 0
2, 92830, Control_c, 0, 64, 64
2, 92840, Control_c, 0, 64, 96
2, 92845, Note_off_c, 0, 92, 64
2, 92847, Note_on_c, 0, 97, 34
2, 92848, Control_c, 0, 64, 127
2, 92899, Note_off_c, 0, 97, 64
2, 92899, Note_off_c, 0, 49, 64
2, 92899, Note_on_c, 0, 56, 25
2, 92900, Note_on_c, 0, 64, 29
2, 93004, Note_off_c, 0, 64, 64
2, 93004, Note_off_c, 0, 56, 64
2, 93004, Note_on_c, 0, 68, 52
2, 93109, Note_off_c, 0, 68, 64
2, 93109, Control_c, 0, 64, 127
2, 93110, Note_on_c, 0, 80, 36
2, 93110, Note_on_c, 0, 48, 22
2, 93110, Control_c, 0, 64, 127
2, 93122, Control_c, 0, 64, 96
2, 93133, Control_c, 0, 64, 64
2, 93142, Control_c, 0, 64, 0
2, 93161, Note_off_c, 0, 80, 64
2, 93162, Note_on_c, 0, 81, 23
2, 93175, Control_c, 0, 64, 64
2, 93184, Control_c, 0, 64, 96
2, 93194, Control_c, 0, 64, 127
2, 93214, Note_off_c, 0, 81, 64
2, 93214, Note_off_c, 0, 48, 64
2, 93214, Note_on_c, 0, 80, 20
2, 93216, Note_on_c, 0, 63, 14
2, 93216, Note_on_c, 0, 56, 13
2, 93264, Note_off_c, 0, 56, 64
2, 93264, Note_off_c, 0, 63, 64
2, 93266, Note_off_c, 0, 80, 64
2, 93267, Note_on_c, 0, 78, 20
2, 93318, Note_off_c, 0, 78, 64
2, 93319, Note_on_c, 0, 75, 16
2, 93319, Note_on_c, 0, 63, 13
2, 93319, Note_on_c, 0, 56, 13
2, 93370, Note_off_c, 0, 56, 64
2, 93370, Note_off_c, 0, 63, 64
2, 93371, Note_off_c, 0, 75, 64
2, 93372, Control_c, 0, 64, 0
2, 93372, Note_on_c, 0, 68, 17
2, 93372, Control_c, 0, 64, 0
2, 93404, Control_c, 0, 64, 96
2, 93411, Control_c, 0, 64, 64
2, 93423, Note_off_c, 0, 68, 64
2, 93424, Note_on_c, 0, 78, 29
2, 93424, Control_c, 0, 64, 127
2, 93426, Note_on_c, 0, 49, 16
2, 93426, Control_c, 0, 64, 0
2, 93447, Control_c, 0, 64, 64
2, 93457, Control_c, 0, 64, 96
2, 93468, Control_c, 0, 64, 127
2, 93475, Note_off_c, 0, 78, 64
2, 93478, Note_on_c, 0, 80, 24
2, 93528, Note_off_c, 0, 80, 64
2, 93528, Note_off_c, 0, 49, 64
2, 93528, Note_on_c, 0, 78, 24
2, 93528, Note_on_c, 0, 56, 16
2, 93529, Note_on_c, 0, 64, 12
2, 93580, Note_off_c, 0, 64, 64
2, 93580, Note_off_c, 0, 56, 64
2, 93581, Note_off_c, 0, 78, 64
2, 93581, Note_on_c, 0, 76, 20
2, 93633, Note_off_c, 0, 76, 64
2, 93633, Note_on_c, 0, 73, 19
2, 93633, Note_on_c, 0, 56, 14
2, 93633, Note_on_c, 0, 64, 16
2, 93685, Note_off_c, 0, 64, 64
2, 93685, Note_off_c, 0, 56, 64
2, 93686, Note_off_c, 0, 73, 64
2, 93686, Note_on_c, 0, 68, 16
2, 93686, Control_c, 0, 64, 0
2, 93722, Control_c, 0, 64, 96
2, 93732, Control_c, 0, 64, 64
2, 93738, Note_off_c, 0, 68, 64
2, 93738, Note_on_c, 0, 76, 32
2, 93738, Control_c, 0, 64, 127
2, 93740, Note_on_c, 0, 44, 19
2, 93744, Control_c, 0, 64, 0
2, 93781, Control_c, 0, 64, 64
2, 93790, Note_off_c, 0, 76, 64
2, 93790, Note_on_c, 0, 78, 26
2, 93792, Control_c, 0, 64, 96
2, 93804, Control_c, 0, 64, 127
2, 93843, Note_off_c, 0, 78, 64
2, 93843, Note_off_c, 0, 44, 64
2, 93843, Note_on_c, 0, 76, 24
2, 93843, Note_on_c, 0, 54, 19
2, 93845, Note_on_c, 0, 60, 12
2, 93895, Note_off_c, 0, 60, 64
2, 93895, Note_off_c, 0, 54, 64
2, 93897, Note_off_c, 0, 76, 64
2, 93897, Note_on_c, 0, 75, 22
2, 93948, Note_off_c, 0, 75, 64
2, 93948, Note_on_c, 0, 72, 16
2, 93948, Note_on_c, 0, 54, 16
2, 93948, Note_on_c, 0, 60, 16
2, 94000, Note_off_c, 0, 60, 64
2, 94000, Note_off_c, 0, 54, 64
2, 94002, Note_off_c, 0, 72, 64
2, 94002, Note_on_c, 0, 66, 10
2, 94002, Control_c, 0, 64, 0
2, 94010, Control_c, 0, 64, 96
2, 94020, Control_c, 0, 64, 64
2, 94032, Control_c, 0, 64, 0
2, 94054, Note_off_c, 0, 66, 64
2, 94054, Note_on_c, 0, 75, 28
2, 94054, Note_on_c, 0, 45, 22
2, 94069, Control_c, 0, 64, 64
2, 94080, Control_c, 0, 64, 96
2, 94088, Control_c, 0, 64, 127
2, 94104, Note_off_c, 0, 75, 64
2, 94105, Note_on_c, 0, 76, 21
2, 94156, Note_off_c, 0, 76, 64
2, 94157, Note_off_c, 0, 45, 64
2, 94159, Note_on_c, 0, 75, 20
2, 94159, Note_on_c, 0, 61, 18
2, 94159, Note_on_c, 0, 52, 16
2, 94209, Note_off_c, 0, 52, 64
2, 94209, Note_off_c, 0, 61, 64
2, 94209, Note_off_c, 0, 75, 64
2, 94211, Note_on_c, 0, 73, 18
2, 94261, Note_off_c, 0, 73, 64
2, 94264, Note_on_c, 0, 69, 12
2, 94264, Note_on_c, 0, 52, 19
2, 94264, Note_on_c, 0, 61, 18
2, 94314, Note_off_c, 0, 61, 64
2, 94314, Note_off_c, 0, 52, 64
2, 94314, Note_off_c, 0, 69, 64
2, 94316, Note_on_c, 0, 64, 11
2, 94332, Control_c, 0, 64, 64
2, 94340, Control_c, 0, 64, 0
2, 94366, Note_off_c, 0, 64, 64
2, 94368, Note_on_c, 0, 73, 26
2, 94368, Note_on_c, 0, 42, 20
2, 94380, Control_c, 0, 64, 64
2, 94389, Control_c, 0, 64, 96
2, 94398, Control_c, 0, 64, 127
2, 94419, Note_off_c, 0, 73, 64
2, 94419, Note_on_c, 0, 75, 23
2, 94471, Note_off_c, 0, 75, 64
2, 94471, Note_off_c, 0, 42, 64
2, 94473, Note_on_c, 0, 73, 22
2, 94473, Note_on_c, 0, 54, 17
2, 94473, Note_on_c, 0, 61, 16
2, 94524, Note_off_c, 0, 61, 64
2, 94524, Note_off_c, 0, 54, 64
2, 94524, Note_off_c, 0, 73, 64
2, 94526, Note_on_c, 0, 69, 18
2, 94578, Note_off_c, 0, 69, 64
2, 94578, Note_on_c, 0, 63, 15
2, 94630, Note_off_c, 0, 63, 64
2, 94630, Note_on_c, 0, 73, 17
2, 94647, Control_c, 0, 64, 96
2, 94654, Control_c, 0, 64, 64
2, 94663, Control_c, 0, 64, 0
2, 94681, Note_off_c, 0, 73, 64
2, 94683, Note_on_c, 0, 73, 34
2, 94683, Note_on_c, 0, 44, 20
2, 94700, Control_c, 0, 64, 64
2, 94710, Control_c, 0, 64, 96
2, 94719, Control_c, 0, 64, 127
2, 94733, Note_off_c, 0, 73, 64
2, 94735, Note_on_c, 0, 75, 27
2, 94787, Note_off_c, 0, 75, 64
2, 94788, Note_off_c, 0, 44, 64
2, 94788, Note_on_c, 0, 73, 32
2, 94788, Note_on_c, 0, 56, 16
2, 94788, Note_on_c, 0, 52, 20
2, 94840, Note_off_c, 0, 52, 64
2, 94840, Note_off_c, 0, 56, 64
2, 94840, Note_off_c, 0, 73, 64
2, 94841, Note_on_c, 0, 68, 21
2, 94890, Note_off_c, 0, 68, 64
2, 94892, Note_on_c, 0, 61, 20
2, 94931, Control_c, 0, 64, 96
2, 94944, Note_off_c, 0, 61, 64
2, 94945, Note_on_c, 0, 68, 22
2, 94968, Control_c, 0, 64, 64
2, 94990, Control_c, 0, 64, 0
2, 94995, Note_off_c, 0, 68, 64
2, 94998, Note_on_c, 0, 68, 31
2, 94998, Note_on_c, 0, 44, 17
2, 95049, Note_off_c, 0, 68, 64
2, 95050, Note_on_c, 0, 56, 22
2, 95102, Note_off_c, 0, 56, 64
2, 95103, Note_off_c, 0, 44, 64
2, 95103, Note_on_c, 0, 63, 24
2, 95124, Control_c, 0, 64, 64
2, 95132, Control_c, 0, 64, 96
2, 95142, Control_c, 0, 64, 127
2, 95157, Note_off_c, 0, 63, 64
2, 95158, Note_on_c, 0, 68, 26
2, 95213, Note_off_c, 0, 68, 64
2, 95214, Note_on_c, 0, 69, 26
2, 95214, Note_on_c, 0, 54, 20
2, 95214, Note_on_c, 0, 60, 14
2, 95269, Note_off_c, 0, 69, 64
2, 95270, Note_on_c, 0, 68, 24
2, 95327, Note_off_c, 0, 68, 64
2, 95327, Note_off_c, 0, 60, 64
2, 95327, Note_off_c, 0, 54, 64
2, 95328, Control_c, 0, 64, 127
2, 95328, Note_on_c, 0, 67, 29
2, 95328, Note_on_c, 0, 49, 16
2, 95384, Note_off_c, 0, 67, 64
2, 95384, Note_on_c, 0, 68, 27
2, 95442, Note_off_c, 0, 68, 64
2, 95443, Note_off_c, 0, 49, 64
2, 95443, Note_on_c, 0, 72, 31
2, 95443, Note_on_c, 0, 56, 14
2, 95498, Note_off_c, 0, 56, 64
2, 95499, Note_off_c, 0, 72, 64
2, 95501, Note_on_c, 0, 73, 34
2, 95557, Note_off_c, 0, 73, 64
2, 95558, Note_on_c, 0, 76, 34
2, 95560, Note_on_c, 0, 64, 13
2, 95560, Note_on_c, 0, 56, 14
2, 95615, Note_off_c, 0, 56, 64
2, 95616, Note_off_c, 0, 64, 64
2, 95616, Note_off_c, 0, 76, 64
2, 95616, Note_on_c, 0, 78, 36
2, 95626, Control_c, 0, 64, 96
2, 95636, Control_c, 0, 64, 0
2, 95674, Note_off_c, 0, 78, 64
2, 95674, Note_on_c, 0, 80, 29
2, 95674, Note_on_c, 0, 48, 25
2, 95701, Control_c, 0, 64, 64
2, 95711, Control_c, 0, 64, 96
2, 95720, Control_c, 0, 64, 127
2, 95725, Note_off_c, 0, 80, 64
2, 95727, Note_on_c, 0, 81, 30
2, 95779, Note_off_c, 0, 81, 64
2, 95779, Note_off_c, 0, 48, 64
2, 95779, Control_c, 0, 64, 0
2, 95780, Note_on_c, 0, 80, 25
2, 95780, Note_on_c, 0, 63, 17
2, 95780, Note_on_c, 0, 56, 16
2, 95831, Note_off_c, 0, 56, 64
2, 95831, Note_off_c, 0, 63, 64
2, 95832, Note_off_c, 0, 80, 64
2, 95832, Note_on_c, 0, 78, 23
2, 95881, Note_off_c, 0, 78, 64
2, 95884, Note_on_c, 0, 75, 16
2, 95884, Note_on_c, 0, 63, 16
2, 95884, Note_on_c, 0, 56, 17
2, 95934, Note_off_c, 0, 56, 64
2, 95934, Note_off_c, 0, 63, 64
2, 95936, Note_off_c, 0, 75, 64
2, 95936, Note_on_c, 0, 68, 14
2, 95947, Control_c, 0, 64, 96
2, 95956, Control_c, 0, 64, 0
2, 95986, Note_off_c, 0, 68, 64
2, 95989, Note_on_c, 0, 78, 26
2, 95989, Note_on_c, 0, 49, 19
2, 96011, Control_c, 0, 64, 64
2, 96019, Control_c, 0, 64, 96
2, 96029, Control_c, 0, 64, 127
2, 96038, Note_off_c, 0, 78, 64
2, 96041, Note_on_c, 0, 80, 19
2, 96091, Note_off_c, 0, 80, 64
2, 96093, Note_off_c, 0, 49, 64
2, 96093, Note_on_c, 0, 78, 21
2, 96093, Note_on_c, 0, 56, 17
2, 96093, Note_on_c, 0, 64, 15
2, 96144, Note_off_c, 0, 64, 64
2, 96144, Note_off_c, 0, 56, 64
2, 96144, Note_off_c, 0, 78, 64
2, 96146, Note_on_c, 0, 76, 20
2, 96196, Note_off_c, 0, 76, 64
2, 96198, Note_on_c, 0, 73, 14
2, 96198, Note_on_c, 0, 56, 19
2, 96198, Note_on_c, 0, 64, 14
2, 96250, Note_off_c, 0, 64, 64
2, 96250, Note_off_c, 0, 56, 64
2, 96250, Note_off_c, 0, 73, 64
2, 96251, Note_on_c, 0, 68, 13
2, 96270, Control_c, 0, 64, 64
2, 96280, Control_c, 0, 64, 0
2, 96301, Note_off_c, 0, 68, 64
2, 96303, Note_on_c, 0, 76, 30
2, 96303, Note_on_c, 0, 44, 22
2, 96330, Control_c, 0, 64, 64
2, 96339, Control_c, 0, 64, 96
2, 96349, Control_c, 0, 64, 127
2, 96355, Note_off_c, 0, 76, 64
2, 96355, Note_on_c, 0, 78, 27
2, 96407, Note_off_c, 0, 78, 64
2, 96408, Note_off_c, 0, 44, 64
2, 96408, Note_on_c, 0, 76, 30
2, 96408, Note_on_c, 0, 54, 19
2, 96409, Note_on_c, 0, 60, 20
2, 96460, Note_off_c, 0, 60, 64
2, 96460, Note_off_c, 0, 54, 64
2, 96460, Note_off_c, 0, 76, 64
2, 96461, Note_on_c, 0, 75, 24
2, 96513, Note_off_c, 0, 75, 64
2, 96513, Note_on_c, 0, 72, 10
2, 96513, Note_on_c, 0, 54, 18
2, 96513, Note_on_c, 0, 60, 20
2, 96565, Note_off_c, 0, 60, 64
2, 96565, Note_off_c, 0, 54, 64
2, 96565, Note_off_c, 0, 72, 64
2, 96566, Note_on_c, 0, 66, 13
2, 96582, Control_c, 0, 64, 64
2, 96591, Control_c, 0, 64, 0
2, 96617, Note_off_c, 0, 66, 64
2, 96618, Note_on_c, 0, 75, 26
2, 96618, Note_on_c, 0, 45, 23
2, 96637, Control_c, 0, 64, 64
2, 96646, Control_c, 0, 64, 96
2, 96660, Control_c, 0, 64, 127
2, 96669, Note_off_c, 0, 75, 64
2, 96670, Note_on_c, 0, 76, 25
2, 96720, Note_off_c, 0, 76, 64
2, 96720, Note_off_c, 0, 45, 64
2, 96723, Note_on_c, 0, 75, 22
2, 96723, Note_on_c, 0, 61, 16
2, 96723, Note_on_c, 0, 52, 22
2, 96774, Note_off_c, 0, 52, 64
2, 96774, Note_off_c, 0, 61, 64
2, 96774, Note_off_c, 0, 75, 64
2, 96775, Note_on_c, 0, 73, 18
2, 96826, Note_off_c, 0, 73, 64
2, 96828, Note_on_c, 0, 69, 19
2, 96828, Note_on_c, 0, 61, 19
2, 96828, Note_on_c, 0, 52, 19
2, 96879, Note_off_c, 0, 52, 64
2, 96879, Note_off_c, 0, 61, 64
2, 96879, Note_off_c, 0, 69, 64
2, 96879, Note_on_c, 0, 64, 18
2, 96882, Control_c, 0, 64, 96
2, 96898, Control_c, 0, 64, 0
2, 96931, Note_off_c, 0, 64, 64
2, 96931, Note_on_c, 0, 69, 25
2, 96932, Note_on_c, 0, 42, 20
2, 96949, Control_c, 0, 64, 64
2, 96961, Control_c, 0, 64, 96
2, 96971, Control_c, 0, 64, 127
2, 96984, Note_off_c, 0, 69, 64
2, 96984, Note_on_c, 0, 71, 27
2, 97036, Note_off_c, 0, 71, 64
2, 97036, Note_off_c, 0, 42, 64
2, 97037, Note_on_c, 0, 73, 24
2, 97089, Note_off_c, 0, 73, 64
2, 97091, Note_on_c, 0, 74, 29
2, 97142, Note_off_c, 0, 74, 64
2, 97145, Note_on_c, 0, 76, 24
2, 97145, Note_on_c, 0, 57, 17
2, 97145, Note_on_c, 0, 62, 19
2, 97147, Note_on_c, 0, 69, 14
2, 97177, Control_c, 0, 64, 96
2, 97186, Control_c, 0, 64, 64
2, 97196, Control_c, 0, 64, 0
2, 97200, Note_off_c, 0, 76, 64
2, 97200, Note_on_c, 0, 78, 23
2, 97243, Control_c, 0, 64, 64
2, 97253, Control_c, 0, 64, 96
2, 97256, Note_off_c, 0, 78, 64
2, 97256, Note_off_c, 0, 69, 64
2, 97256, Note_off_c, 0, 62, 64
2, 97256, Note_off_c, 0, 57, 64
2, 97258, Note_on_c, 0, 79, 24
2, 97276, Control_c, 0, 64, 127
2, 97312, Note_off_c, 0, 79, 64
2, 97314, Note_on_c, 0, 80, 20
2, 97370, Note_off_c, 0, 80, 64
2, 97371, Note_on_c, 0, 81, 13
2, 97429, Note_off_c, 0, 81, 64
2, 97430, Note_on_c, 0, 81, 13
2, 97491, Note_off_c, 0, 81, 64
2, 97491, Note_on_c, 0, 83, 23
2, 97550, Note_off_c, 0, 83, 64
2, 97553, Note_on_c, 0, 85, 21
2, 97613, Note_off_c, 0, 85, 64
2, 97615, Note_on_c, 0, 86, 20
2, 97615, Note_on_c, 0, 44, 19
2, 97677, Note_off_c, 0, 86, 64
2, 97677, Note_on_c, 0, 87, 22
2, 97739, Note_off_c, 0, 87, 64
2, 97739, Note_off_c, 0, 44, 64
2, 97739, Note_on_c, 0, 88, 22
2, 97739, Note_on_c, 0, 66, 17
2, 97740, Note_on_c, 0, 60, 20
2, 97740, Note_on_c, 0, 56, 13
2, 97802, Note_off_c, 0, 56, 64
2, 97802, Note_off_c, 0, 60, 64
2, 97802, Note_off_c, 0, 66, 64
2, 97803, Note_off_c, 0, 88, 64
2, 97803, Note_on_c, 0, 89, 22
2, 97864, Note_off_c, 0, 89, 64
2, 97864, Note_on_c, 0, 90, 20
2, 97865, Note_on_c, 0, 66, 18
2, 97865, Note_on_c, 0, 56, 14
2, 97865, Note_on_c, 0, 60, 14
2, 97924, Control_c, 0, 64, 96
2, 97926, Note_off_c, 0, 60, 64
2, 97926, Note_off_c, 0, 56, 64
2, 97927, Note_off_c, 0, 90, 64
2, 97927, Note_off_c, 0, 66, 64
2, 97927, Note_on_c, 0, 91, 19
2, 97939, Control_c, 0, 64, 64
2, 97950, Control_c, 0, 64, 0
2, 97989, Note_off_c, 0, 91, 64
2, 97991, Note_on_c, 0, 92, 19
2, 97991, Note_on_c, 0, 49, 22
2, 98011, Control_c, 0, 64, 64
2, 98019, Control_c, 0, 64, 96
2, 98029, Control_c, 0, 64, 127
2, 98051, Note_off_c, 0, 92, 64
2, 98052, Note_on_c, 0, 97, 18
2, 98116, Note_off_c, 0, 97, 64
2, 98116, Note_off_c, 0, 49, 64
2, 98116, Note_on_c, 0, 56, 16
2, 98117, Note_on_c, 0, 64, 19
2, 98240, Note_off_c, 0, 64, 64
2, 98240, Note_off_c, 0, 56, 64
2, 98451, Control_c, 0, 64, 96
2, 98610, Control_c, 0, 64, 64
2, 98647, Control_c, 0, 64, 0
2, 98744, Control_c, 0, 64, 64
2, 98744, Control_c, 0, 64, 96
2, 98744, Control_c, 0, 64, 127
2, 98744, End_track
3, 0, Start_track
3, 0, Title_t, "Chopin Waltz Opus 64 #2"
3, 0, End_track
4, 0, Start_track
4, 0, Title_t, "Created by Jeff Segor"
4, 0, End_track
5, 0, Start_track
5, 0, Title_t, "sloweater@aol.com"
5, 0, End_track
6, 0, Start_track
6, 0, Title_t, "CompuServe - 73020,461"
6, 0, End_track
7, 0, Start_track
7, 0, Title_t, "August 12, 1993"
7, 0, End_track
0, 0, End_of_file
