0, 0, Header, 1, 8, 192
1, 0, Start_track
1, 0, Sequencer_specific, 10, 0, 0, 91, 35, 2, 0, 3, 0, 51, 0
1, 0, Title_t, "Ballata n°2 in Fa maggiore, Op.38"
1, 0, MIDI_port, 0
1, 0, Copyright_t, "Copyright © 2002 by Dario Galimberti - http://dariogalimberti.intefree.it"
1, 0, Text_t, "By Fryderyk Franciszek Chopin (1810-1849)"
1, 0, Time_signature, 6, 3, 12, 8
1, 0, Key_signature, -1, "major"
1, 0, Tempo, 714370
1, 24768, Tempo, 714370
1, 24844, Tempo, 731707
1, 24921, Tempo, 750000
1, 24998, Tempo, 769329
1, 25075, Tempo, 789577
1, 25152, Tempo, 810920
1, 25228, Tempo, 833333
1, 25305, Tempo, 857265
1, 25382, Tempo, 882482
1, 25459, Tempo, 909228
1, 25536, Tempo, 937500
1, 25612, Tempo, 967898
1, 25689, Tempo, 1000000
1, 25766, Tempo, 1034661
1, 25843, Tempo, 1071619
1, 25920, Tempo, 714370
1, 26016, Tempo, 731707
1, 26112, Tempo, 750000
1, 26208, Tempo, 769329
1, 26304, Tempo, 789577
1, 26400, Tempo, 810920
1, 26496, Tempo, 833333
1, 26592, Tempo, 857265
1, 26688, Tempo, 882482
1, 26784, Tempo, 909228
1, 26880, Tempo, 937500
1, 26976, Tempo, 967898
1, 27072, Tempo, 1000000
1, 27168, Tempo, 1034661
1, 27264, Tempo, 1071619
1, 27360, Tempo, 1765225
1, 27648, Tempo, 413793
1, 36864, Tempo, 444444
1, 36892, Tempo, 437956
1, 36921, Tempo, 431685
1, 36950, Tempo, 425562
1, 36979, Tempo, 419580
1, 37007, Tempo, 413793
1, 37036, Tempo, 408163
1, 37065, Tempo, 402711
1, 37094, Tempo, 397377
1, 37123, Tempo, 392182
1, 37152, Tempo, 387121
1, 37180, Tempo, 392182
1, 37209, Tempo, 397377
1, 37238, Tempo, 402711
1, 37267, Tempo, 408163
1, 37295, Tempo, 413793
1, 37324, Tempo, 419580
1, 37353, Tempo, 425562
1, 37382, Tempo, 431685
1, 37411, Tempo, 437956
1, 37440, Tempo, 444444
1, 37468, Tempo, 437956
1, 37497, Tempo, 431685
1, 37526, Tempo, 425562
1, 37555, Tempo, 419580
1, 37583, Tempo, 413793
1, 37612, Tempo, 408163
1, 37641, Tempo, 402711
1, 37670, Tempo, 397377
1, 37699, Tempo, 392182
1, 37728, Tempo, 387121
1, 37756, Tempo, 392182
1, 37785, Tempo, 397377
1, 37814, Tempo, 402711
1, 37843, Tempo, 408163
1, 37871, Tempo, 413793
1, 37900, Tempo, 419580
1, 37929, Tempo, 425562
1, 37958, Tempo, 431685
1, 37987, Tempo, 437956
1, 38016, Tempo, 444444
1, 38044, Tempo, 437956
1, 38073, Tempo, 431685
1, 38102, Tempo, 425562
1, 38131, Tempo, 419580
1, 38159, Tempo, 413793
1, 38188, Tempo, 408163
1, 38217, Tempo, 402711
1, 38246, Tempo, 397377
1, 38275, Tempo, 392182
1, 38304, Tempo, 387121
1, 38332, Tempo, 392182
1, 38361, Tempo, 397377
1, 38390, Tempo, 402711
1, 38419, Tempo, 408163
1, 38447, Tempo, 413793
1, 38476, Tempo, 419580
1, 38505, Tempo, 425562
1, 38534, Tempo, 431685
1, 38563, Tempo, 437956
1, 38592, Tempo, 444444
1, 38620, Tempo, 437956
1, 38649, Tempo, 431685
1, 38678, Tempo, 425562
1, 38707, Tempo, 419580
1, 38735, Tempo, 413793
1, 38764, Tempo, 408163
1, 38793, Tempo, 402711
1, 38822, Tempo, 397377
1, 38851, Tempo, 392182
1, 38880, Tempo, 387121
1, 38908, Tempo, 392182
1, 38937, Tempo, 397377
1, 38966, Tempo, 402711
1, 38995, Tempo, 408163
1, 39023, Tempo, 413793
1, 39052, Tempo, 419580
1, 39081, Tempo, 425562
1, 39110, Tempo, 431685
1, 39139, Tempo, 437956
1, 39168, Tempo, 444444
1, 39196, Tempo, 437956
1, 39225, Tempo, 431685
1, 39254, Tempo, 425562
1, 39283, Tempo, 419580
1, 39311, Tempo, 413793
1, 39340, Tempo, 408163
1, 39369, Tempo, 402711
1, 39398, Tempo, 397377
1, 39427, Tempo, 392182
1, 39456, Tempo, 387121
1, 39484, Tempo, 392182
1, 39513, Tempo, 397377
1, 39542, Tempo, 402711
1, 39571, Tempo, 408163
1, 39599, Tempo, 413793
1, 39628, Tempo, 419580
1, 39657, Tempo, 425562
1, 39686, Tempo, 431685
1, 39715, Tempo, 437956
1, 39744, Tempo, 444444
1, 39772, Tempo, 437956
1, 39801, Tempo, 431685
1, 39830, Tempo, 425562
1, 39859, Tempo, 419580
1, 39887, Tempo, 413793
1, 39916, Tempo, 408163
1, 39945, Tempo, 402711
1, 39974, Tempo, 397377
1, 40003, Tempo, 392182
1, 40032, Tempo, 387121
1, 40043, Tempo, 392182
1, 40055, Tempo, 397377
1, 40066, Tempo, 402711
1, 40078, Tempo, 408163
1, 40089, Tempo, 413793
1, 40101, Tempo, 419580
1, 40112, Tempo, 425562
1, 40124, Tempo, 431685
1, 40135, Tempo, 437956
1, 40147, Tempo, 444444
1, 40158, Tempo, 451161
1, 40170, Tempo, 458015
1, 40181, Tempo, 465116
1, 40193, Tempo, 472478
1, 40204, Tempo, 480000
1, 40216, Tempo, 487844
1, 40227, Tempo, 495908
1, 40239, Tempo, 504244
1, 40250, Tempo, 512864
1, 40262, Tempo, 521739
1, 40273, Tempo, 530973
1, 40285, Tempo, 540589
1, 40296, Tempo, 550509
1, 40308, Tempo, 560800
1, 40320, Tempo, 480000
1, 40348, Tempo, 472478
1, 40377, Tempo, 465116
1, 40406, Tempo, 458015
1, 40435, Tempo, 451161
1, 40463, Tempo, 444444
1, 40492, Tempo, 437956
1, 40521, Tempo, 431685
1, 40550, Tempo, 425562
1, 40579, Tempo, 419580
1, 40608, Tempo, 413793
1, 40636, Tempo, 419580
1, 40665, Tempo, 425562
1, 40694, Tempo, 431685
1, 40723, Tempo, 437956
1, 40751, Tempo, 444444
1, 40780, Tempo, 451161
1, 40809, Tempo, 458015
1, 40838, Tempo, 465116
1, 40867, Tempo, 472478
1, 40896, Tempo, 480000
1, 40924, Tempo, 472478
1, 40953, Tempo, 465116
1, 40982, Tempo, 458015
1, 41011, Tempo, 451161
1, 41039, Tempo, 444444
1, 41068, Tempo, 437956
1, 41097, Tempo, 431685
1, 41126, Tempo, 425562
1, 41155, Tempo, 419580
1, 41184, Tempo, 413793
1, 41212, Tempo, 419580
1, 41241, Tempo, 425562
1, 41270, Tempo, 431685
1, 41299, Tempo, 437956
1, 41327, Tempo, 444444
1, 41356, Tempo, 451161
1, 41385, Tempo, 458015
1, 41414, Tempo, 465116
1, 41443, Tempo, 472478
1, 41472, Tempo, 480000
1, 41500, Tempo, 472478
1, 41529, Tempo, 465116
1, 41558, Tempo, 458015
1, 41587, Tempo, 451161
1, 41615, Tempo, 444444
1, 41644, Tempo, 437956
1, 41673, Tempo, 431685
1, 41702, Tempo, 425562
1, 41731, Tempo, 419580
1, 41760, Tempo, 413793
1, 42048, Tempo, 480000
1, 42076, Tempo, 472478
1, 42105, Tempo, 465116
1, 42134, Tempo, 458015
1, 42163, Tempo, 451161
1, 42191, Tempo, 444444
1, 42220, Tempo, 437956
1, 42249, Tempo, 431685
1, 42278, Tempo, 425562
1, 42307, Tempo, 419580
1, 42336, Tempo, 413793
1, 42624, Tempo, 480000
1, 42652, Tempo, 472478
1, 42681, Tempo, 465116
1, 42710, Tempo, 458015
1, 42739, Tempo, 451161
1, 42767, Tempo, 444444
1, 42796, Tempo, 437956
1, 42825, Tempo, 431685
1, 42854, Tempo, 425562
1, 42883, Tempo, 419580
1, 42912, Tempo, 413793
1, 43200, Tempo, 480000
1, 43228, Tempo, 472478
1, 43257, Tempo, 465116
1, 43286, Tempo, 458015
1, 43315, Tempo, 451161
1, 43343, Tempo, 444444
1, 43372, Tempo, 437956
1, 43401, Tempo, 431685
1, 43430, Tempo, 425562
1, 43459, Tempo, 419580
1, 43488, Tempo, 413793
1, 43776, Tempo, 480000
1, 43804, Tempo, 472478
1, 43833, Tempo, 465116
1, 43862, Tempo, 458015
1, 43891, Tempo, 451161
1, 43919, Tempo, 444444
1, 43948, Tempo, 437956
1, 43977, Tempo, 431685
1, 44006, Tempo, 425562
1, 44035, Tempo, 419580
1, 44064, Tempo, 413793
1, 44352, Tempo, 480000
1, 44380, Tempo, 472478
1, 44409, Tempo, 465116
1, 44438, Tempo, 458015
1, 44467, Tempo, 451161
1, 44495, Tempo, 444444
1, 44524, Tempo, 437956
1, 44553, Tempo, 431685
1, 44582, Tempo, 425562
1, 44611, Tempo, 419580
1, 44640, Tempo, 413793
1, 44928, Tempo, 480000
1, 44985, Tempo, 472478
1, 45043, Tempo, 465116
1, 45100, Tempo, 458015
1, 45158, Tempo, 451161
1, 45216, Tempo, 444444
1, 45504, Tempo, 480000
1, 45561, Tempo, 472478
1, 45619, Tempo, 465116
1, 45676, Tempo, 458015
1, 45734, Tempo, 451161
1, 45792, Tempo, 444444
1, 46080, Tempo, 480000
1, 46195, Tempo, 487844
1, 46310, Tempo, 495908
1, 46425, Tempo, 504244
1, 46540, Tempo, 512864
1, 46655, Tempo, 521739
1, 46771, Tempo, 530973
1, 46886, Tempo, 540589
1, 47001, Tempo, 550509
1, 47116, Tempo, 560800
1, 47231, Tempo, 571482
1, 47347, Tempo, 582524
1, 47462, Tempo, 594059
1, 47577, Tempo, 606121
1, 47692, Tempo, 618620
1, 47807, Tempo, 631645
1, 47923, Tempo, 645161
1, 48038, Tempo, 659413
1, 48153, Tempo, 674157
1, 48268, Tempo, 689655
1, 48384, Tempo, 705882
1, 50688, Tempo, 705882
1, 50745, Tempo, 722978
1, 50803, Tempo, 740832
1, 50860, Tempo, 759589
1, 50918, Tempo, 779321
1, 50975, Tempo, 800000
1, 51033, Tempo, 822030
1, 51091, Tempo, 845070
1, 51148, Tempo, 869565
1, 51206, Tempo, 895522
1, 51263, Tempo, 923218
1, 51321, Tempo, 952532
1, 51379, Tempo, 983767
1, 51436, Tempo, 1016949
1, 51494, Tempo, 1052816
1, 51552, Tempo, 1090909
1, 51840, Tempo, 705882
1, 56448, Tempo, 705882
1, 56736, Tempo, 722978
1, 57024, Tempo, 750000
1, 62496, Tempo, 800000
1, 62592, Tempo, 779321
1, 62688, Tempo, 759589
1, 62784, Tempo, 740832
1, 62880, Tempo, 722978
1, 62976, Tempo, 705882
1, 63072, Tempo, 689655
1, 63168, Tempo, 674157
1, 63264, Tempo, 659413
1, 63360, Tempo, 645161
1, 63456, Tempo, 631645
1, 63552, Tempo, 618620
1, 63648, Tempo, 606121
1, 63744, Tempo, 594059
1, 63840, Tempo, 582524
1, 63936, Tempo, 571482
1, 66240, Tempo, 571482
1, 66268, Tempo, 582524
1, 66297, Tempo, 594059
1, 66326, Tempo, 606121
1, 66355, Tempo, 618620
1, 66383, Tempo, 631645
1, 66412, Tempo, 645161
1, 66441, Tempo, 659413
1, 66470, Tempo, 674157
1, 66499, Tempo, 689655
1, 66527, Tempo, 705882
1, 66556, Tempo, 722978
1, 66585, Tempo, 740832
1, 66614, Tempo, 759589
1, 66643, Tempo, 779321
1, 66671, Tempo, 800000
1, 66700, Tempo, 822030
1, 66729, Tempo, 845070
1, 66758, Tempo, 869565
1, 66787, Tempo, 895522
1, 66816, Tempo, 923218
1, 66931, Tempo, 895522
1, 67046, Tempo, 869565
1, 67161, Tempo, 845070
1, 67276, Tempo, 822030
1, 67392, Tempo, 800000
1, 76896, Tempo, 800000
1, 76992, Tempo, 779321
1, 77088, Tempo, 759589
1, 77184, Tempo, 740832
1, 77280, Tempo, 722978
1, 77376, Tempo, 705882
1, 77472, Tempo, 689655
1, 77568, Tempo, 674157
1, 77664, Tempo, 659413
1, 77760, Tempo, 645161
1, 77856, Tempo, 631645
1, 77952, Tempo, 618620
1, 78048, Tempo, 606121
1, 78144, Tempo, 594059
1, 78240, Tempo, 582524
1, 78336, Tempo, 571482
1, 81216, Tempo, 800000
1, 81232, Tempo, 779321
1, 81248, Tempo, 759589
1, 81265, Tempo, 740832
1, 81281, Tempo, 722978
1, 81298, Tempo, 705882
1, 81314, Tempo, 689655
1, 81331, Tempo, 674157
1, 81347, Tempo, 659413
1, 81364, Tempo, 645161
1, 81380, Tempo, 631645
1, 81397, Tempo, 618620
1, 81413, Tempo, 606121
1, 81429, Tempo, 594059
1, 81446, Tempo, 582524
1, 81462, Tempo, 571482
1, 81479, Tempo, 560800
1, 81495, Tempo, 550509
1, 81512, Tempo, 540589
1, 81528, Tempo, 530973
1, 81545, Tempo, 521739
1, 81561, Tempo, 512864
1, 81578, Tempo, 504244
1, 81594, Tempo, 495908
1, 81610, Tempo, 487844
1, 81627, Tempo, 480000
1, 81643, Tempo, 472478
1, 81660, Tempo, 465116
1, 81676, Tempo, 458015
1, 81693, Tempo, 451161
1, 81709, Tempo, 444444
1, 81726, Tempo, 437956
1, 81742, Tempo, 431685
1, 81759, Tempo, 425562
1, 81775, Tempo, 419580
1, 81792, Tempo, 413793
1, 91008, Tempo, 480000
1, 97920, Key_signature, 0, "major"
1, 97920, Tempo, 666740
1, 97929, Tempo, 652244
1, 97939, Tempo, 638365
1, 97948, Tempo, 625000
1, 97958, Tempo, 612307
1, 97968, Tempo, 600000
1, 97977, Tempo, 588235
1, 97987, Tempo, 576923
1, 97996, Tempo, 566091
1, 98006, Tempo, 555607
1, 98016, Tempo, 545504
1, 98025, Tempo, 535714
1, 98035, Tempo, 526361
1, 98044, Tempo, 517241
1, 98054, Tempo, 508517
1, 98064, Tempo, 500000
1, 98073, Tempo, 491803
1, 98083, Tempo, 483909
1, 98092, Tempo, 476190
1, 98102, Tempo, 468750
1, 98112, Tempo, 461538
1, 114048, Tempo, 1333333
1, 114096, Tempo, 3000000
1, 114240, Tempo, 750000
1, 115776, Tempo, 750000
1, 115891, Tempo, 769329
1, 116006, Tempo, 789577
1, 116121, Tempo, 810920
1, 116236, Tempo, 833333
1, 116352, Tempo, 857265
1, 117456, Tempo, 1714775
1, 117504, Tempo, 2400000
1, 117528, Tempo, 923218
1, 117528, End_track
2, 0, Start_track
2, 0, Title_t, "Pianoforte"
2, 0, MIDI_port, 0
2, 0, Program_c, 0, 0
2, 0, Control_c, 0, 7, 127
2, 0, Control_c, 0, 10, 64
2, 0, Control_c, 0, 91, 64
2, 192, Note_on_c, 0, 72, 57
2, 192, Note_on_c, 0, 60, 48
2, 288, Note_on_c, 0, 72, 0
2, 288, Note_on_c, 0, 60, 0
2, 288, Note_on_c, 0, 72, 59
2, 288, Note_on_c, 0, 60, 49
2, 480, Note_on_c, 0, 72, 0
2, 480, Note_on_c, 0, 60, 0
2, 480, Note_on_c, 0, 72, 56
2, 480, Note_on_c, 0, 60, 43
2, 576, Note_on_c, 0, 72, 0
2, 576, Note_on_c, 0, 60, 0
2, 576, Note_on_c, 0, 72, 57
2, 576, Note_on_c, 0, 60, 47
2, 768, Note_on_c, 0, 72, 0
2, 768, Note_on_c, 0, 60, 0
2, 768, Note_on_c, 0, 72, 63
2, 768, Note_on_c, 0, 60, 43
2, 864, Note_on_c, 0, 72, 0
2, 864, Note_on_c, 0, 60, 0
2, 864, Note_on_c, 0, 60, 45
2, 864, Note_on_c, 0, 72, 60
2, 1056, Note_on_c, 0, 60, 0
2, 1056, Note_on_c, 0, 72, 0
2, 1056, Note_on_c, 0, 60, 46
2, 1056, Note_on_c, 0, 72, 57
2, 1152, Note_on_c, 0, 60, 0
2, 1152, Note_on_c, 0, 72, 0
2, 1152, Note_on_c, 0, 72, 58
2, 1152, Note_on_c, 0, 69, 45
2, 1152, Note_on_c, 0, 53, 41
2, 1152, Note_on_c, 0, 60, 49
2, 1344, Note_on_c, 0, 72, 0
2, 1344, Note_on_c, 0, 69, 0
2, 1344, Note_on_c, 0, 53, 0
2, 1344, Note_on_c, 0, 60, 0
2, 1344, Note_on_c, 0, 60, 45
2, 1344, Note_on_c, 0, 69, 46
2, 1344, Note_on_c, 0, 53, 48
2, 1344, Note_on_c, 0, 72, 64
2, 1440, Note_on_c, 0, 60, 0
2, 1440, Note_on_c, 0, 69, 0
2, 1440, Note_on_c, 0, 53, 0
2, 1440, Note_on_c, 0, 72, 0
2, 1440, Note_on_c, 0, 70, 50
2, 1440, Note_on_c, 0, 53, 44
2, 1440, Note_on_c, 0, 60, 48
2, 1440, Note_on_c, 0, 72, 63
2, 1632, Note_on_c, 0, 70, 0
2, 1632, Note_on_c, 0, 53, 0
2, 1632, Note_on_c, 0, 60, 0
2, 1632, Note_on_c, 0, 72, 0
2, 1632, Note_on_c, 0, 53, 50
2, 1632, Note_on_c, 0, 70, 47
2, 1632, Note_on_c, 0, 72, 59
2, 1632, Note_on_c, 0, 60, 42
2, 1728, Note_on_c, 0, 53, 0
2, 1728, Note_on_c, 0, 70, 0
2, 1728, Note_on_c, 0, 72, 0
2, 1728, Note_on_c, 0, 60, 0
2, 1728, Note_on_c, 0, 53, 42
2, 1728, Note_on_c, 0, 70, 48
2, 1728, Note_on_c, 0, 76, 63
2, 1728, Note_on_c, 0, 60, 43
2, 1872, Note_on_c, 0, 76, 0
2, 1872, Note_on_c, 0, 74, 64
2, 1920, Note_on_c, 0, 53, 0
2, 1920, Note_on_c, 0, 70, 0
2, 1920, Note_on_c, 0, 60, 0
2, 1920, Note_on_c, 0, 74, 0
2, 1920, Note_on_c, 0, 53, 50
2, 1920, Note_on_c, 0, 70, 46
2, 1920, Note_on_c, 0, 72, 56
2, 1920, Note_on_c, 0, 60, 50
2, 2016, Note_on_c, 0, 53, 0
2, 2016, Note_on_c, 0, 70, 0
2, 2016, Note_on_c, 0, 72, 0
2, 2016, Note_on_c, 0, 60, 0
2, 2016, Note_on_c, 0, 69, 45
2, 2016, Note_on_c, 0, 60, 44
2, 2016, Note_on_c, 0, 53, 40
2, 2016, Note_on_c, 0, 77, 60
2, 2208, Note_on_c, 0, 69, 0
2, 2208, Note_on_c, 0, 60, 0
2, 2208, Note_on_c, 0, 53, 0
2, 2208, Note_on_c, 0, 77, 0
2, 2208, Note_on_c, 0, 65, 45
2, 2208, Note_on_c, 0, 74, 63
2, 2208, Note_on_c, 0, 58, 41
2, 2304, Note_on_c, 0, 65, 0
2, 2304, Note_on_c, 0, 74, 0
2, 2304, Note_on_c, 0, 58, 0
2, 2304, Note_on_c, 0, 72, 59
2, 2304, Note_on_c, 0, 65, 41
2, 2304, Note_on_c, 0, 57, 41
2, 2496, Note_on_c, 0, 72, 0
2, 2496, Note_on_c, 0, 65, 0
2, 2496, Note_on_c, 0, 57, 0
2, 2496, Note_on_c, 0, 64, 46
2, 2496, Note_on_c, 0, 57, 43
2, 2496, Note_on_c, 0, 69, 59
2, 2496, Note_on_c, 0, 48, 49
2, 2592, Note_on_c, 0, 64, 0
2, 2592, Note_on_c, 0, 57, 0
2, 2592, Note_on_c, 0, 69, 0
2, 2592, Note_on_c, 0, 48, 0
2, 2592, Note_on_c, 0, 65, 62
2, 2592, Note_on_c, 0, 57, 43
2, 2592, Note_on_c, 0, 60, 41
2, 2592, Note_on_c, 0, 50, 42
2, 2784, Note_on_c, 0, 65, 0
2, 2784, Note_on_c, 0, 57, 0
2, 2784, Note_on_c, 0, 60, 0
2, 2784, Note_on_c, 0, 50, 0
2, 2784, Note_on_c, 0, 65, 49
2, 2784, Note_on_c, 0, 58, 42
2, 2784, Note_on_c, 0, 67, 63
2, 2784, Note_on_c, 0, 50, 48
2, 2784, Note_on_c, 0, 43, 41
2, 2880, Note_on_c, 0, 65, 0
2, 2880, Note_on_c, 0, 58, 0
2, 2880, Note_on_c, 0, 67, 0
2, 2880, Note_on_c, 0, 50, 0
2, 2880, Note_on_c, 0, 43, 0
2, 2880, Note_on_c, 0, 64, 49
2, 2880, Note_on_c, 0, 48, 49
2, 2880, Note_on_c, 0, 58, 48
2, 2880, Note_on_c, 0, 67, 62
2, 3072, Note_on_c, 0, 64, 0
2, 3072, Note_on_c, 0, 48, 0
2, 3072, Note_on_c, 0, 58, 0
2, 3072, Note_on_c, 0, 62, 48
2, 3072, Note_on_c, 0, 58, 49
2, 3072, Note_on_c, 0, 48, 50
2, 3168, Note_on_c, 0, 67, 0
2, 3168, Note_on_c, 0, 62, 0
2, 3168, Note_on_c, 0, 58, 0
2, 3168, Note_on_c, 0, 48, 0
2, 3168, Note_on_c, 0, 53, 50
2, 3168, Note_on_c, 0, 60, 50
2, 3168, Note_on_c, 0, 69, 55
2, 3168, Note_on_c, 0, 41, 47
2, 3360, Note_on_c, 0, 53, 0
2, 3360, Note_on_c, 0, 60, 0
2, 3360, Note_on_c, 0, 69, 0
2, 3360, Note_on_c, 0, 41, 0
2, 3360, Note_on_c, 0, 62, 46
2, 3360, Note_on_c, 0, 70, 59
2, 3360, Note_on_c, 0, 46, 47
2, 3360, Note_on_c, 0, 53, 46
2, 3456, Note_on_c, 0, 62, 0
2, 3456, Note_on_c, 0, 70, 0
2, 3456, Note_on_c, 0, 46, 0
2, 3456, Note_on_c, 0, 53, 0
2, 3456, Note_on_c, 0, 60, 50
2, 3456, Note_on_c, 0, 48, 46
2, 3456, Note_on_c, 0, 69, 65
2, 3456, Note_on_c, 0, 53, 47
2, 3648, Note_on_c, 0, 60, 0
2, 3648, Note_on_c, 0, 48, 0
2, 3648, Note_on_c, 0, 69, 0
2, 3648, Note_on_c, 0, 53, 0
2, 3648, Note_on_c, 0, 53, 45
2, 3648, Note_on_c, 0, 46, 48
2, 3648, Note_on_c, 0, 62, 47
2, 3648, Note_on_c, 0, 65, 56
2, 3744, Note_on_c, 0, 53, 0
2, 3744, Note_on_c, 0, 46, 0
2, 3744, Note_on_c, 0, 62, 0
2, 3744, Note_on_c, 0, 65, 0
2, 3744, Note_on_c, 0, 53, 46
2, 3744, Note_on_c, 0, 48, 40
2, 3744, Note_on_c, 0, 69, 65
2, 3744, Note_on_c, 0, 60, 40
2, 3936, Note_on_c, 0, 53, 0
2, 3936, Note_on_c, 0, 48, 0
2, 3936, Note_on_c, 0, 69, 0
2, 3936, Note_on_c, 0, 60, 0
2, 3936, Note_on_c, 0, 70, 65
2, 3936, Note_on_c, 0, 53, 50
2, 3936, Note_on_c, 0, 50, 41
2, 3936, Note_on_c, 0, 58, 42
2, 4032, Note_on_c, 0, 70, 0
2, 4032, Note_on_c, 0, 53, 0
2, 4032, Note_on_c, 0, 50, 0
2, 4032, Note_on_c, 0, 58, 0
2, 4032, Note_on_c, 0, 48, 45
2, 4032, Note_on_c, 0, 53, 43
2, 4032, Note_on_c, 0, 60, 49
2, 4032, Note_on_c, 0, 69, 64
2, 4176, Note_on_c, 0, 69, 0
2, 4176, Note_on_c, 0, 67, 61
2, 4224, Note_on_c, 0, 48, 0
2, 4224, Note_on_c, 0, 53, 0
2, 4224, Note_on_c, 0, 60, 0
2, 4224, Note_on_c, 0, 67, 0
2, 4224, Note_on_c, 0, 53, 41
2, 4224, Note_on_c, 0, 46, 40
2, 4224, Note_on_c, 0, 62, 49
2, 4224, Note_on_c, 0, 65, 57
2, 4320, Note_on_c, 0, 53, 0
2, 4320, Note_on_c, 0, 46, 0
2, 4320, Note_on_c, 0, 62, 0
2, 4320, Note_on_c, 0, 65, 0
2, 4320, Note_on_c, 0, 53, 45
2, 4320, Note_on_c, 0, 48, 50
2, 4320, Note_on_c, 0, 69, 58
2, 4320, Note_on_c, 0, 60, 41
2, 4512, Note_on_c, 0, 53, 0
2, 4512, Note_on_c, 0, 48, 0
2, 4512, Note_on_c, 0, 69, 0
2, 4512, Note_on_c, 0, 60, 0
2, 4512, Note_on_c, 0, 53, 42
2, 4512, Note_on_c, 0, 58, 49
2, 4512, Note_on_c, 0, 50, 49
2, 4512, Note_on_c, 0, 70, 64
2, 4608, Note_on_c, 0, 53, 0
2, 4608, Note_on_c, 0, 58, 0
2, 4608, Note_on_c, 0, 50, 0
2, 4608, Note_on_c, 0, 70, 0
2, 4608, Note_on_c, 0, 48, 50
2, 4608, Note_on_c, 0, 60, 42
2, 4608, Note_on_c, 0, 53, 47
2, 4608, Note_on_c, 0, 69, 65
2, 4752, Note_on_c, 0, 69, 0
2, 4752, Note_on_c, 0, 67, 58
2, 4800, Note_on_c, 0, 48, 0
2, 4800, Note_on_c, 0, 60, 0
2, 4800, Note_on_c, 0, 53, 0
2, 4800, Note_on_c, 0, 67, 0
2, 4800, Note_on_c, 0, 65, 57
2, 4800, Note_on_c, 0, 48, 42
2, 4800, Note_on_c, 0, 57, 42
2, 4800, Note_on_c, 0, 60, 40
2, 4896, Note_on_c, 0, 65, 0
2, 4896, Note_on_c, 0, 48, 0
2, 4896, Note_on_c, 0, 57, 0
2, 4896, Note_on_c, 0, 60, 0
2, 4896, Note_on_c, 0, 48, 43
2, 4896, Note_on_c, 0, 67, 64
2, 4896, Note_on_c, 0, 58, 43
2, 4896, Note_on_c, 0, 62, 44
2, 5088, Note_on_c, 0, 48, 0
2, 5088, Note_on_c, 0, 58, 0
2, 5088, Note_on_c, 0, 62, 0
2, 5088, Note_on_c, 0, 60, 43
2, 5088, Note_on_c, 0, 64, 41
2, 5088, Note_on_c, 0, 48, 42
2, 5088, Note_on_c, 0, 58, 46
2, 5184, Note_on_c, 0, 67, 0
2, 5184, Note_on_c, 0, 60, 0
2, 5184, Note_on_c, 0, 64, 0
2, 5184, Note_on_c, 0, 48, 0
2, 5184, Note_on_c, 0, 58, 0
2, 5184, Note_on_c, 0, 57, 43
2, 5184, Note_on_c, 0, 65, 55
2, 5184, Note_on_c, 0, 53, 49
2, 5184, Note_on_c, 0, 60, 43
2, 5376, Note_on_c, 0, 57, 0
2, 5376, Note_on_c, 0, 53, 0
2, 5376, Note_on_c, 0, 60, 0
2, 5376, Note_on_c, 0, 57, 44
2, 5376, Note_on_c, 0, 53, 40
2, 5376, Note_on_c, 0, 60, 48
2, 5472, Note_on_c, 0, 65, 0
2, 5472, Note_on_c, 0, 57, 0
2, 5472, Note_on_c, 0, 53, 0
2, 5472, Note_on_c, 0, 60, 0
2, 5472, Note_on_c, 0, 53, 47
2, 5472, Note_on_c, 0, 65, 41
2, 5472, Note_on_c, 0, 72, 86
2, 5472, Note_on_c, 0, 69, 50
2, 5472, Note_on_c, 0, 60, 41
2, 5664, Note_on_c, 0, 53, 0
2, 5664, Note_on_c, 0, 65, 0
2, 5664, Note_on_c, 0, 69, 0
2, 5664, Note_on_c, 0, 60, 0
2, 5664, Note_on_c, 0, 69, 45
2, 5664, Note_on_c, 0, 65, 44
2, 5664, Note_on_c, 0, 53, 47
2, 5664, Note_on_c, 0, 60, 42
2, 5760, Note_on_c, 0, 53, 0
2, 5760, Note_on_c, 0, 60, 0
2, 5760, Note_on_c, 0, 60, 45
2, 5760, Note_on_c, 0, 53, 41
2, 5952, Note_on_c, 0, 72, 0
2, 5952, Note_on_c, 0, 69, 0
2, 5952, Note_on_c, 0, 65, 0
2, 5952, Note_on_c, 0, 60, 0
2, 5952, Note_on_c, 0, 53, 0
2, 5952, Note_on_c, 0, 69, 42
2, 5952, Note_on_c, 0, 53, 49
2, 5952, Note_on_c, 0, 65, 45
2, 5952, Note_on_c, 0, 72, 62
2, 5952, Note_on_c, 0, 60, 49
2, 6048, Note_on_c, 0, 69, 0
2, 6048, Note_on_c, 0, 53, 0
2, 6048, Note_on_c, 0, 65, 0
2, 6048, Note_on_c, 0, 72, 0
2, 6048, Note_on_c, 0, 60, 0
2, 6048, Note_on_c, 0, 70, 42
2, 6048, Note_on_c, 0, 60, 43
2, 6048, Note_on_c, 0, 72, 60
2, 6048, Note_on_c, 0, 67, 41
2, 6048, Note_on_c, 0, 53, 48
2, 6240, Note_on_c, 0, 70, 0
2, 6240, Note_on_c, 0, 60, 0
2, 6240, Note_on_c, 0, 72, 0
2, 6240, Note_on_c, 0, 67, 0
2, 6240, Note_on_c, 0, 53, 0
2, 6240, Note_on_c, 0, 67, 45
2, 6240, Note_on_c, 0, 72, 61
2, 6240, Note_on_c, 0, 53, 49
2, 6240, Note_on_c, 0, 60, 41
2, 6240, Note_on_c, 0, 70, 48
2, 6336, Note_on_c, 0, 67, 0
2, 6336, Note_on_c, 0, 72, 0
2, 6336, Note_on_c, 0, 53, 0
2, 6336, Note_on_c, 0, 60, 0
2, 6336, Note_on_c, 0, 70, 0
2, 6336, Note_on_c, 0, 76, 61
2, 6336, Note_on_c, 0, 67, 45
2, 6336, Note_on_c, 0, 53, 48
2, 6336, Note_on_c, 0, 60, 49
2, 6336, Note_on_c, 0, 70, 49
2, 6480, Note_on_c, 0, 76, 0
2, 6480, Note_on_c, 0, 74, 57
2, 6528, Note_on_c, 0, 67, 0
2, 6528, Note_on_c, 0, 53, 0
2, 6528, Note_on_c, 0, 60, 0
2, 6528, Note_on_c, 0, 70, 0
2, 6528, Note_on_c, 0, 74, 0
2, 6528, Note_on_c, 0, 67, 48
2, 6528, Note_on_c, 0, 60, 46
2, 6528, Note_on_c, 0, 70, 40
2, 6528, Note_on_c, 0, 72, 56
2, 6528, Note_on_c, 0, 53, 44
2, 6624, Note_on_c, 0, 67, 0
2, 6624, Note_on_c, 0, 60, 0
2, 6624, Note_on_c, 0, 70, 0
2, 6624, Note_on_c, 0, 72, 0
2, 6624, Note_on_c, 0, 53, 0
2, 6624, Note_on_c, 0, 65, 43
2, 6624, Note_on_c, 0, 69, 48
2, 6624, Note_on_c, 0, 60, 43
2, 6624, Note_on_c, 0, 53, 49
2, 6624, Note_on_c, 0, 77, 60
2, 6816, Note_on_c, 0, 65, 0
2, 6816, Note_on_c, 0, 69, 0
2, 6816, Note_on_c, 0, 60, 0
2, 6816, Note_on_c, 0, 53, 0
2, 6816, Note_on_c, 0, 77, 0
2, 6816, Note_on_c, 0, 74, 62
2, 6816, Note_on_c, 0, 58, 47
2, 6816, Note_on_c, 0, 65, 43
2, 6912, Note_on_c, 0, 74, 0
2, 6912, Note_on_c, 0, 58, 0
2, 6912, Note_on_c, 0, 65, 0
2, 6912, Note_on_c, 0, 72, 60
2, 6912, Note_on_c, 0, 65, 49
2, 6912, Note_on_c, 0, 57, 50
2, 7104, Note_on_c, 0, 72, 0
2, 7104, Note_on_c, 0, 65, 0
2, 7104, Note_on_c, 0, 57, 0
2, 7104, Note_on_c, 0, 48, 48
2, 7104, Note_on_c, 0, 57, 41
2, 7104, Note_on_c, 0, 64, 42
2, 7104, Note_on_c, 0, 69, 60
2, 7200, Note_on_c, 0, 48, 0
2, 7200, Note_on_c, 0, 57, 0
2, 7200, Note_on_c, 0, 64, 0
2, 7200, Note_on_c, 0, 69, 0
2, 7200, Note_on_c, 0, 60, 41
2, 7200, Note_on_c, 0, 57, 46
2, 7200, Note_on_c, 0, 50, 44
2, 7200, Note_on_c, 0, 65, 56
2, 7392, Note_on_c, 0, 60, 0
2, 7392, Note_on_c, 0, 57, 0
2, 7392, Note_on_c, 0, 50, 0
2, 7392, Note_on_c, 0, 65, 0
2, 7392, Note_on_c, 0, 43, 41
2, 7392, Note_on_c, 0, 50, 43
2, 7392, Note_on_c, 0, 58, 42
2, 7392, Note_on_c, 0, 65, 40
2, 7392, Note_on_c, 0, 67, 62
2, 7488, Note_on_c, 0, 43, 0
2, 7488, Note_on_c, 0, 50, 0
2, 7488, Note_on_c, 0, 58, 0
2, 7488, Note_on_c, 0, 65, 0
2, 7488, Note_on_c, 0, 67, 0
2, 7488, Note_on_c, 0, 67, 63
2, 7488, Note_on_c, 0, 48, 47
2, 7488, Note_on_c, 0, 58, 42
2, 7488, Note_on_c, 0, 64, 44
2, 7680, Note_on_c, 0, 48, 0
2, 7680, Note_on_c, 0, 58, 0
2, 7680, Note_on_c, 0, 64, 0
2, 7680, Note_on_c, 0, 62, 47
2, 7680, Note_on_c, 0, 48, 45
2, 7680, Note_on_c, 0, 58, 49
2, 7776, Note_on_c, 0, 67, 0
2, 7776, Note_on_c, 0, 62, 0
2, 7776, Note_on_c, 0, 48, 0
2, 7776, Note_on_c, 0, 58, 0
2, 7776, Note_on_c, 0, 53, 43
2, 7776, Note_on_c, 0, 69, 58
2, 7776, Note_on_c, 0, 60, 42
2, 7776, Note_on_c, 0, 41, 46
2, 7968, Note_on_c, 0, 53, 0
2, 7968, Note_on_c, 0, 69, 0
2, 7968, Note_on_c, 0, 60, 0
2, 7968, Note_on_c, 0, 41, 0
2, 7968, Note_on_c, 0, 53, 47
2, 7968, Note_on_c, 0, 62, 41
2, 7968, Note_on_c, 0, 70, 56
2, 7968, Note_on_c, 0, 46, 44
2, 8064, Note_on_c, 0, 53, 0
2, 8064, Note_on_c, 0, 62, 0
2, 8064, Note_on_c, 0, 70, 0
2, 8064, Note_on_c, 0, 46, 0
2, 8064, Note_on_c, 0, 69, 60
2, 8064, Note_on_c, 0, 60, 40
2, 8064, Note_on_c, 0, 48, 40
2, 8064, Note_on_c, 0, 53, 46
2, 8256, Note_on_c, 0, 69, 0
2, 8256, Note_on_c, 0, 60, 0
2, 8256, Note_on_c, 0, 48, 0
2, 8256, Note_on_c, 0, 53, 0
2, 8256, Note_on_c, 0, 46, 40
2, 8256, Note_on_c, 0, 65, 56
2, 8256, Note_on_c, 0, 62, 45
2, 8256, Note_on_c, 0, 53, 47
2, 8352, Note_on_c, 0, 46, 0
2, 8352, Note_on_c, 0, 65, 0
2, 8352, Note_on_c, 0, 62, 0
2, 8352, Note_on_c, 0, 53, 0
2, 8352, Note_on_c, 0, 69, 65
2, 8352, Note_on_c, 0, 60, 42
2, 8352, Note_on_c, 0, 48, 47
2, 8352, Note_on_c, 0, 53, 44
2, 8544, Note_on_c, 0, 69, 0
2, 8544, Note_on_c, 0, 60, 0
2, 8544, Note_on_c, 0, 48, 0
2, 8544, Note_on_c, 0, 53, 0
2, 8544, Note_on_c, 0, 50, 43
2, 8544, Note_on_c, 0, 58, 47
2, 8544, Note_on_c, 0, 53, 48
2, 8544, Note_on_c, 0, 70, 60
2, 8640, Note_on_c, 0, 50, 0
2, 8640, Note_on_c, 0, 58, 0
2, 8640, Note_on_c, 0, 53, 0
2, 8640, Note_on_c, 0, 70, 0
2, 8640, Note_on_c, 0, 60, 47
2, 8640, Note_on_c, 0, 53, 43
2, 8640, Note_on_c, 0, 69, 63
2, 8640, Note_on_c, 0, 48, 43
2, 8784, Note_on_c, 0, 69, 0
2, 8784, Note_on_c, 0, 67, 64
2, 8832, Note_on_c, 0, 60, 0
2, 8832, Note_on_c, 0, 53, 0
2, 8832, Note_on_c, 0, 48, 0
2, 8832, Note_on_c, 0, 67, 0
2, 8832, Note_on_c, 0, 53, 48
2, 8832, Note_on_c, 0, 46, 41
2, 8832, Note_on_c, 0, 65, 57
2, 8832, Note_on_c, 0, 62, 44
2, 8928, Note_on_c, 0, 53, 0
2, 8928, Note_on_c, 0, 46, 0
2, 8928, Note_on_c, 0, 65, 0
2, 8928, Note_on_c, 0, 62, 0
2, 8928, Note_on_c, 0, 60, 40
2, 8928, Note_on_c, 0, 69, 56
2, 8928, Note_on_c, 0, 53, 45
2, 8928, Note_on_c, 0, 48, 43
2, 9120, Note_on_c, 0, 60, 0
2, 9120, Note_on_c, 0, 69, 0
2, 9120, Note_on_c, 0, 53, 0
2, 9120, Note_on_c, 0, 48, 0
2, 9120, Note_on_c, 0, 53, 47
2, 9120, Note_on_c, 0, 50, 46
2, 9120, Note_on_c, 0, 58, 48
2, 9120, Note_on_c, 0, 70, 60
2, 9216, Note_on_c, 0, 53, 0
2, 9216, Note_on_c, 0, 50, 0
2, 9216, Note_on_c, 0, 58, 0
2, 9216, Note_on_c, 0, 70, 0
2, 9216, Note_on_c, 0, 53, 50
2, 9216, Note_on_c, 0, 69, 56
2, 9216, Note_on_c, 0, 48, 45
2, 9216, Note_on_c, 0, 60, 40
2, 9360, Note_on_c, 0, 69, 0
2, 9360, Note_on_c, 0, 67, 65
2, 9408, Note_on_c, 0, 53, 0
2, 9408, Note_on_c, 0, 48, 0
2, 9408, Note_on_c, 0, 60, 0
2, 9408, Note_on_c, 0, 67, 0
2, 9408, Note_on_c, 0, 65, 57
2, 9408, Note_on_c, 0, 57, 47
2, 9408, Note_on_c, 0, 48, 49
2, 9408, Note_on_c, 0, 60, 49
2, 9504, Note_on_c, 0, 65, 0
2, 9504, Note_on_c, 0, 57, 0
2, 9504, Note_on_c, 0, 48, 0
2, 9504, Note_on_c, 0, 60, 0
2, 9504, Note_on_c, 0, 48, 49
2, 9504, Note_on_c, 0, 62, 47
2, 9504, Note_on_c, 0, 67, 64
2, 9504, Note_on_c, 0, 58, 46
2, 9696, Note_on_c, 0, 48, 0
2, 9696, Note_on_c, 0, 62, 0
2, 9696, Note_on_c, 0, 58, 0
2, 9696, Note_on_c, 0, 48, 48
2, 9696, Note_on_c, 0, 58, 42
2, 9696, Note_on_c, 0, 60, 44
2, 9696, Note_on_c, 0, 64, 45
2, 9792, Note_on_c, 0, 67, 0
2, 9792, Note_on_c, 0, 48, 0
2, 9792, Note_on_c, 0, 58, 0
2, 9792, Note_on_c, 0, 60, 0
2, 9792, Note_on_c, 0, 64, 0
2, 9792, Note_on_c, 0, 65, 64
2, 9792, Note_on_c, 0, 60, 41
2, 9792, Note_on_c, 0, 57, 48
2, 9792, Note_on_c, 0, 53, 49
2, 9984, Note_on_c, 0, 60, 0
2, 9984, Note_on_c, 0, 57, 0
2, 9984, Note_on_c, 0, 53, 0
2, 9984, Note_on_c, 0, 53, 46
2, 9984, Note_on_c, 0, 60, 44
2, 9984, Note_on_c, 0, 57, 50
2, 10080, Note_on_c, 0, 65, 0
2, 10080, Note_on_c, 0, 53, 0
2, 10080, Note_on_c, 0, 60, 0
2, 10080, Note_on_c, 0, 57, 0
2, 10080, Note_on_c, 0, 57, 47
2, 10080, Note_on_c, 0, 72, 60
2, 10080, Note_on_c, 0, 64, 46
2, 10080, Note_on_c, 0, 48, 47
2, 10272, Note_on_c, 0, 57, 0
2, 10272, Note_on_c, 0, 64, 0
2, 10272, Note_on_c, 0, 48, 0
2, 10272, Note_on_c, 0, 57, 46
2, 10272, Note_on_c, 0, 48, 46
2, 10272, Note_on_c, 0, 64, 40
2, 10368, Note_on_c, 0, 57, 0
2, 10368, Note_on_c, 0, 48, 0
2, 10368, Note_on_c, 0, 64, 0
2, 10368, Note_on_c, 0, 64, 43
2, 10368, Note_on_c, 0, 48, 40
2, 10368, Note_on_c, 0, 57, 39
2, 10560, Note_on_c, 0, 72, 0
2, 10560, Note_on_c, 0, 64, 0
2, 10560, Note_on_c, 0, 48, 0
2, 10560, Note_on_c, 0, 57, 0
2, 10560, Note_on_c, 0, 71, 61
2, 10560, Note_on_c, 0, 62, 37
2, 10560, Note_on_c, 0, 65, 39
2, 10560, Note_on_c, 0, 50, 41
2, 10608, Note_on_c, 0, 62, 0
2, 10608, Note_on_c, 0, 65, 0
2, 10608, Note_on_c, 0, 60, 39
2, 10632, Note_on_c, 0, 71, 0
2, 10632, Note_on_c, 0, 72, 53
2, 10632, Note_on_c, 0, 64, 38
2, 10656, Note_on_c, 0, 50, 0
2, 10656, Note_on_c, 0, 72, 0
2, 10656, Note_on_c, 0, 52, 36
2, 10656, Note_on_c, 0, 69, 61
2, 10848, Note_on_c, 0, 60, 0
2, 10848, Note_on_c, 0, 64, 0
2, 10848, Note_on_c, 0, 52, 0
2, 10848, Note_on_c, 0, 69, 0
2, 10848, Note_on_c, 0, 52, 36
2, 10848, Note_on_c, 0, 40, 29
2, 10848, Note_on_c, 0, 59, 38
2, 10848, Note_on_c, 0, 68, 46
2, 10848, Note_on_c, 0, 64, 32
2, 10944, Note_on_c, 0, 52, 0
2, 10944, Note_on_c, 0, 40, 0
2, 10944, Note_on_c, 0, 59, 0
2, 10944, Note_on_c, 0, 68, 0
2, 10944, Note_on_c, 0, 64, 0
2, 10944, Note_on_c, 0, 52, 35
2, 10944, Note_on_c, 0, 64, 34
2, 10944, Note_on_c, 0, 45, 25
2, 10944, Note_on_c, 0, 69, 49
2, 10944, Note_on_c, 0, 60, 32
2, 11136, Note_on_c, 0, 52, 0
2, 11136, Note_on_c, 0, 64, 0
2, 11136, Note_on_c, 0, 45, 0
2, 11136, Note_on_c, 0, 69, 0
2, 11136, Note_on_c, 0, 60, 0
2, 11136, Note_on_c, 0, 57, 32
2, 11136, Note_on_c, 0, 72, 44
2, 11136, Note_on_c, 0, 64, 32
2, 11136, Note_on_c, 0, 60, 27
2, 11136, Note_on_c, 0, 45, 27
2, 11232, Note_on_c, 0, 57, 0
2, 11232, Note_on_c, 0, 72, 0
2, 11232, Note_on_c, 0, 64, 0
2, 11232, Note_on_c, 0, 60, 0
2, 11232, Note_on_c, 0, 45, 0
2, 11232, Note_on_c, 0, 67, 38
2, 11232, Note_on_c, 0, 48, 34
2, 11232, Note_on_c, 0, 76, 47
2, 11232, Note_on_c, 0, 55, 29
2, 11232, Note_on_c, 0, 64, 30
2, 11424, Note_on_c, 0, 67, 0
2, 11424, Note_on_c, 0, 48, 0
2, 11424, Note_on_c, 0, 76, 0
2, 11424, Note_on_c, 0, 55, 0
2, 11424, Note_on_c, 0, 64, 0
2, 11424, Note_on_c, 0, 60, 46
2, 11424, Note_on_c, 0, 64, 36
2, 11424, Note_on_c, 0, 76, 60
2, 11424, Note_on_c, 0, 48, 41
2, 11424, Note_on_c, 0, 67, 39
2, 11424, Note_on_c, 0, 55, 44
2, 11520, Note_on_c, 0, 60, 0
2, 11520, Note_on_c, 0, 64, 0
2, 11520, Note_on_c, 0, 76, 0
2, 11520, Note_on_c, 0, 48, 0
2, 11520, Note_on_c, 0, 67, 0
2, 11520, Note_on_c, 0, 55, 0
2, 11520, Note_on_c, 0, 60, 43
2, 11520, Note_on_c, 0, 67, 44
2, 11520, Note_on_c, 0, 52, 46
2, 11520, Note_on_c, 0, 76, 55
2, 11712, Note_on_c, 0, 60, 0
2, 11712, Note_on_c, 0, 67, 0
2, 11712, Note_on_c, 0, 52, 0
2, 11712, Note_on_c, 0, 76, 0
2, 11712, Note_on_c, 0, 69, 48
2, 11712, Note_on_c, 0, 65, 41
2, 11712, Note_on_c, 0, 74, 61
2, 11712, Note_on_c, 0, 53, 46
2, 11760, Note_on_c, 0, 69, 0
2, 11760, Note_on_c, 0, 65, 0
2, 11760, Note_on_c, 0, 64, 40
2, 11784, Note_on_c, 0, 74, 0
2, 11784, Note_on_c, 0, 67, 49
2, 11784, Note_on_c, 0, 74, 62
2, 11808, Note_on_c, 0, 53, 0
2, 11808, Note_on_c, 0, 74, 0
2, 11808, Note_on_c, 0, 55, 38
2, 11808, Note_on_c, 0, 72, 58
2, 12000, Note_on_c, 0, 64, 0
2, 12000, Note_on_c, 0, 67, 0
2, 12000, Note_on_c, 0, 55, 0
2, 12000, Note_on_c, 0, 72, 0
2, 12000, Note_on_c, 0, 55, 40
2, 12000, Note_on_c, 0, 62, 44
2, 12000, Note_on_c, 0, 67, 39
2, 12000, Note_on_c, 0, 71, 57
2, 12000, Note_on_c, 0, 43, 34
2, 12096, Note_on_c, 0, 55, 0
2, 12096, Note_on_c, 0, 62, 0
2, 12096, Note_on_c, 0, 67, 0
2, 12096, Note_on_c, 0, 71, 0
2, 12096, Note_on_c, 0, 43, 0
2, 12096, Note_on_c, 0, 64, 35
2, 12096, Note_on_c, 0, 48, 33
2, 12096, Note_on_c, 0, 55, 32
2, 12096, Note_on_c, 0, 72, 57
2, 12096, Note_on_c, 0, 67, 51
2, 12288, Note_on_c, 0, 64, 0
2, 12288, Note_on_c, 0, 48, 0
2, 12288, Note_on_c, 0, 55, 0
2, 12288, Note_on_c, 0, 48, 38
2, 12288, Note_on_c, 0, 64, 29
2, 12288, Note_on_c, 0, 55, 34
2, 12384, Note_on_c, 0, 72, 0
2, 12384, Note_on_c, 0, 67, 0
2, 12384, Note_on_c, 0, 48, 0
2, 12384, Note_on_c, 0, 64, 0
2, 12384, Note_on_c, 0, 55, 0
2, 12384, Note_on_c, 0, 48, 34
2, 12384, Note_on_c, 0, 67, 35
2, 12384, Note_on_c, 0, 76, 49
2, 12384, Note_on_c, 0, 60, 25
2, 12576, Note_on_c, 0, 48, 0
2, 12576, Note_on_c, 0, 67, 0
2, 12576, Note_on_c, 0, 76, 0
2, 12576, Note_on_c, 0, 60, 0
2, 12576, Note_on_c, 0, 53, 31
2, 12576, Note_on_c, 0, 60, 25
2, 12576, Note_on_c, 0, 69, 26
2, 12576, Note_on_c, 0, 77, 40
2, 12672, Note_on_c, 0, 53, 0
2, 12672, Note_on_c, 0, 60, 0
2, 12672, Note_on_c, 0, 69, 0
2, 12672, Note_on_c, 0, 77, 0
2, 12672, Note_on_c, 0, 55, 34
2, 12672, Note_on_c, 0, 67, 35
2, 12672, Note_on_c, 0, 60, 35
2, 12672, Note_on_c, 0, 76, 44
2, 12864, Note_on_c, 0, 55, 0
2, 12864, Note_on_c, 0, 67, 0
2, 12864, Note_on_c, 0, 60, 0
2, 12864, Note_on_c, 0, 76, 0
2, 12864, Note_on_c, 0, 53, 29
2, 12864, Note_on_c, 0, 69, 27
2, 12864, Note_on_c, 0, 60, 32
2, 12864, Note_on_c, 0, 72, 42
2, 12960, Note_on_c, 0, 53, 0
2, 12960, Note_on_c, 0, 69, 0
2, 12960, Note_on_c, 0, 60, 0
2, 12960, Note_on_c, 0, 72, 0
2, 12960, Note_on_c, 0, 60, 26
2, 12960, Note_on_c, 0, 67, 34
2, 12960, Note_on_c, 0, 55, 26
2, 12960, Note_on_c, 0, 76, 43
2, 13152, Note_on_c, 0, 60, 0
2, 13152, Note_on_c, 0, 67, 0
2, 13152, Note_on_c, 0, 55, 0
2, 13152, Note_on_c, 0, 76, 0
2, 13152, Note_on_c, 0, 77, 47
2, 13152, Note_on_c, 0, 60, 31
2, 13152, Note_on_c, 0, 57, 27
2, 13152, Note_on_c, 0, 65, 31
2, 13248, Note_on_c, 0, 77, 0
2, 13248, Note_on_c, 0, 60, 0
2, 13248, Note_on_c, 0, 57, 0
2, 13248, Note_on_c, 0, 65, 0
2, 13248, Note_on_c, 0, 60, 30
2, 13248, Note_on_c, 0, 76, 50
2, 13248, Note_on_c, 0, 55, 30
2, 13248, Note_on_c, 0, 67, 30
2, 13392, Note_on_c, 0, 76, 0
2, 13392, Note_on_c, 0, 74, 49
2, 13440, Note_on_c, 0, 60, 0
2, 13440, Note_on_c, 0, 55, 0
2, 13440, Note_on_c, 0, 67, 0
2, 13440, Note_on_c, 0, 74, 0
2, 13440, Note_on_c, 0, 60, 30
2, 13440, Note_on_c, 0, 69, 29
2, 13440, Note_on_c, 0, 72, 41
2, 13440, Note_on_c, 0, 53, 35
2, 13536, Note_on_c, 0, 60, 0
2, 13536, Note_on_c, 0, 69, 0
2, 13536, Note_on_c, 0, 72, 0
2, 13536, Note_on_c, 0, 53, 0
2, 13536, Note_on_c, 0, 76, 46
2, 13536, Note_on_c, 0, 67, 30
2, 13536, Note_on_c, 0, 60, 33
2, 13536, Note_on_c, 0, 55, 33
2, 13728, Note_on_c, 0, 76, 0
2, 13728, Note_on_c, 0, 67, 0
2, 13728, Note_on_c, 0, 60, 0
2, 13728, Note_on_c, 0, 55, 0
2, 13728, Note_on_c, 0, 77, 48
2, 13728, Note_on_c, 0, 65, 29
2, 13728, Note_on_c, 0, 60, 33
2, 13728, Note_on_c, 0, 57, 34
2, 13824, Note_on_c, 0, 77, 0
2, 13824, Note_on_c, 0, 65, 0
2, 13824, Note_on_c, 0, 60, 0
2, 13824, Note_on_c, 0, 57, 0
2, 13824, Note_on_c, 0, 76, 44
2, 13824, Note_on_c, 0, 67, 27
2, 13824, Note_on_c, 0, 60, 30
2, 13824, Note_on_c, 0, 55, 33
2, 13968, Note_on_c, 0, 76, 0
2, 13968, Note_on_c, 0, 74, 50
2, 14016, Note_on_c, 0, 67, 0
2, 14016, Note_on_c, 0, 60, 0
2, 14016, Note_on_c, 0, 55, 0
2, 14016, Note_on_c, 0, 74, 0
2, 14016, Note_on_c, 0, 55, 31
2, 14016, Note_on_c, 0, 67, 30
2, 14016, Note_on_c, 0, 64, 31
2, 14016, Note_on_c, 0, 72, 41
2, 14112, Note_on_c, 0, 55, 0
2, 14112, Note_on_c, 0, 67, 0
2, 14112, Note_on_c, 0, 64, 0
2, 14112, Note_on_c, 0, 72, 0
2, 14112, Note_on_c, 0, 74, 44
2, 14112, Note_on_c, 0, 55, 32
2, 14112, Note_on_c, 0, 65, 28
2, 14112, Note_on_c, 0, 69, 32
2, 14304, Note_on_c, 0, 55, 0
2, 14304, Note_on_c, 0, 65, 0
2, 14304, Note_on_c, 0, 69, 0
2, 14304, Note_on_c, 0, 65, 26
2, 14304, Note_on_c, 0, 55, 35
2, 14304, Note_on_c, 0, 71, 28
2, 14304, Note_on_c, 0, 67, 34
2, 14400, Note_on_c, 0, 74, 0
2, 14400, Note_on_c, 0, 65, 0
2, 14400, Note_on_c, 0, 55, 0
2, 14400, Note_on_c, 0, 71, 0
2, 14400, Note_on_c, 0, 67, 0
2, 14400, Note_on_c, 0, 67, 42
2, 14400, Note_on_c, 0, 72, 41
2, 14400, Note_on_c, 0, 64, 31
2, 14400, Note_on_c, 0, 48, 26
2, 14592, Note_on_c, 0, 64, 0
2, 14592, Note_on_c, 0, 48, 0
2, 14592, Note_on_c, 0, 48, 33
2, 14592, Note_on_c, 0, 64, 35
2, 14688, Note_on_c, 0, 67, 0
2, 14688, Note_on_c, 0, 72, 0
2, 14688, Note_on_c, 0, 48, 0
2, 14688, Note_on_c, 0, 64, 0
2, 14688, Note_on_c, 0, 62, 30
2, 14688, Note_on_c, 0, 70, 40
2, 14688, Note_on_c, 0, 65, 25
2, 14688, Note_on_c, 0, 50, 31
2, 14880, Note_on_c, 0, 62, 0
2, 14880, Note_on_c, 0, 65, 0
2, 14880, Note_on_c, 0, 50, 0
2, 14880, Note_on_c, 0, 67, 44
2, 14880, Note_on_c, 0, 52, 42
2, 14880, Note_on_c, 0, 61, 42
2, 14976, Note_on_c, 0, 70, 0
2, 14976, Note_on_c, 0, 67, 0
2, 14976, Note_on_c, 0, 52, 0
2, 14976, Note_on_c, 0, 61, 0
2, 14976, Note_on_c, 0, 69, 58
2, 14976, Note_on_c, 0, 53, 45
2, 14976, Note_on_c, 0, 60, 44
2, 14976, Note_on_c, 0, 67, 42
2, 15168, Note_on_c, 0, 69, 0
2, 15168, Note_on_c, 0, 53, 0
2, 15168, Note_on_c, 0, 60, 0
2, 15168, Note_on_c, 0, 67, 0
2, 15168, Note_on_c, 0, 60, 45
2, 15168, Note_on_c, 0, 69, 42
2, 15168, Note_on_c, 0, 72, 59
2, 15168, Note_on_c, 0, 65, 48
2, 15168, Note_on_c, 0, 53, 42
2, 15264, Note_on_c, 0, 60, 0
2, 15264, Note_on_c, 0, 69, 0
2, 15264, Note_on_c, 0, 72, 0
2, 15264, Note_on_c, 0, 65, 0
2, 15264, Note_on_c, 0, 53, 0
2, 15264, Note_on_c, 0, 69, 40
2, 15264, Note_on_c, 0, 60, 45
2, 15264, Note_on_c, 0, 53, 42
2, 15264, Note_on_c, 0, 72, 64
2, 15456, Note_on_c, 0, 69, 0
2, 15456, Note_on_c, 0, 60, 0
2, 15456, Note_on_c, 0, 53, 0
2, 15456, Note_on_c, 0, 72, 0
2, 15456, Note_on_c, 0, 72, 63
2, 15456, Note_on_c, 0, 53, 45
2, 15456, Note_on_c, 0, 69, 49
2, 15456, Note_on_c, 0, 60, 49
2, 15552, Note_on_c, 0, 72, 0
2, 15552, Note_on_c, 0, 53, 0
2, 15552, Note_on_c, 0, 69, 0
2, 15552, Note_on_c, 0, 60, 0
2, 15552, Note_on_c, 0, 53, 47
2, 15552, Note_on_c, 0, 76, 60
2, 15552, Note_on_c, 0, 60, 44
2, 15552, Note_on_c, 0, 70, 47
2, 15696, Note_on_c, 0, 76, 0
2, 15696, Note_on_c, 0, 74, 63
2, 15744, Note_on_c, 0, 53, 0
2, 15744, Note_on_c, 0, 60, 0
2, 15744, Note_on_c, 0, 70, 0
2, 15744, Note_on_c, 0, 74, 0
2, 15744, Note_on_c, 0, 60, 44
2, 15744, Note_on_c, 0, 72, 59
2, 15744, Note_on_c, 0, 70, 42
2, 15744, Note_on_c, 0, 53, 43
2, 15840, Note_on_c, 0, 60, 0
2, 15840, Note_on_c, 0, 72, 0
2, 15840, Note_on_c, 0, 70, 0
2, 15840, Note_on_c, 0, 53, 0
2, 15840, Note_on_c, 0, 77, 55
2, 15840, Note_on_c, 0, 60, 48
2, 15840, Note_on_c, 0, 53, 49
2, 15840, Note_on_c, 0, 69, 43
2, 16032, Note_on_c, 0, 77, 0
2, 16032, Note_on_c, 0, 60, 0
2, 16032, Note_on_c, 0, 53, 0
2, 16032, Note_on_c, 0, 69, 0
2, 16032, Note_on_c, 0, 65, 49
2, 16032, Note_on_c, 0, 58, 50
2, 16032, Note_on_c, 0, 74, 60
2, 16128, Note_on_c, 0, 65, 0
2, 16128, Note_on_c, 0, 58, 0
2, 16128, Note_on_c, 0, 74, 0
2, 16128, Note_on_c, 0, 65, 49
2, 16128, Note_on_c, 0, 57, 47
2, 16128, Note_on_c, 0, 72, 64
2, 16320, Note_on_c, 0, 65, 0
2, 16320, Note_on_c, 0, 57, 0
2, 16320, Note_on_c, 0, 72, 0
2, 16320, Note_on_c, 0, 69, 56
2, 16320, Note_on_c, 0, 48, 44
2, 16320, Note_on_c, 0, 57, 50
2, 16320, Note_on_c, 0, 64, 47
2, 16416, Note_on_c, 0, 69, 0
2, 16416, Note_on_c, 0, 48, 0
2, 16416, Note_on_c, 0, 57, 0
2, 16416, Note_on_c, 0, 64, 0
2, 16416, Note_on_c, 0, 50, 41
2, 16416, Note_on_c, 0, 65, 64
2, 16416, Note_on_c, 0, 60, 50
2, 16416, Note_on_c, 0, 57, 49
2, 16608, Note_on_c, 0, 50, 0
2, 16608, Note_on_c, 0, 65, 0
2, 16608, Note_on_c, 0, 60, 0
2, 16608, Note_on_c, 0, 57, 0
2, 16608, Note_on_c, 0, 43, 45
2, 16608, Note_on_c, 0, 65, 41
2, 16608, Note_on_c, 0, 50, 43
2, 16608, Note_on_c, 0, 58, 49
2, 16608, Note_on_c, 0, 67, 59
2, 16704, Note_on_c, 0, 43, 0
2, 16704, Note_on_c, 0, 65, 0
2, 16704, Note_on_c, 0, 50, 0
2, 16704, Note_on_c, 0, 58, 0
2, 16704, Note_on_c, 0, 67, 0
2, 16704, Note_on_c, 0, 48, 45
2, 16704, Note_on_c, 0, 67, 61
2, 16704, Note_on_c, 0, 64, 41
2, 16704, Note_on_c, 0, 58, 47
2, 16896, Note_on_c, 0, 48, 0
2, 16896, Note_on_c, 0, 64, 0
2, 16896, Note_on_c, 0, 58, 0
2, 16896, Note_on_c, 0, 62, 48
2, 16896, Note_on_c, 0, 58, 40
2, 16896, Note_on_c, 0, 48, 50
2, 16992, Note_on_c, 0, 67, 0
2, 16992, Note_on_c, 0, 62, 0
2, 16992, Note_on_c, 0, 58, 0
2, 16992, Note_on_c, 0, 48, 0
2, 16992, Note_on_c, 0, 60, 47
2, 16992, Note_on_c, 0, 41, 41
2, 16992, Note_on_c, 0, 69, 59
2, 16992, Note_on_c, 0, 53, 45
2, 17184, Note_on_c, 0, 60, 0
2, 17184, Note_on_c, 0, 41, 0
2, 17184, Note_on_c, 0, 69, 0
2, 17184, Note_on_c, 0, 53, 0
2, 17184, Note_on_c, 0, 46, 45
2, 17184, Note_on_c, 0, 70, 59
2, 17184, Note_on_c, 0, 62, 42
2, 17184, Note_on_c, 0, 53, 46
2, 17280, Note_on_c, 0, 46, 0
2, 17280, Note_on_c, 0, 70, 0
2, 17280, Note_on_c, 0, 62, 0
2, 17280, Note_on_c, 0, 53, 0
2, 17280, Note_on_c, 0, 53, 43
2, 17280, Note_on_c, 0, 48, 50
2, 17280, Note_on_c, 0, 69, 61
2, 17280, Note_on_c, 0, 60, 46
2, 17472, Note_on_c, 0, 53, 0
2, 17472, Note_on_c, 0, 48, 0
2, 17472, Note_on_c, 0, 69, 0
2, 17472, Note_on_c, 0, 60, 0
2, 17472, Note_on_c, 0, 53, 43
2, 17472, Note_on_c, 0, 46, 50
2, 17472, Note_on_c, 0, 62, 48
2, 17472, Note_on_c, 0, 65, 65
2, 17568, Note_on_c, 0, 53, 0
2, 17568, Note_on_c, 0, 46, 0
2, 17568, Note_on_c, 0, 62, 0
2, 17568, Note_on_c, 0, 65, 0
2, 17568, Note_on_c, 0, 53, 46
2, 17568, Note_on_c, 0, 48, 44
2, 17568, Note_on_c, 0, 60, 48
2, 17568, Note_on_c, 0, 69, 65
2, 17760, Note_on_c, 0, 53, 0
2, 17760, Note_on_c, 0, 48, 0
2, 17760, Note_on_c, 0, 60, 0
2, 17760, Note_on_c, 0, 69, 0
2, 17760, Note_on_c, 0, 53, 47
2, 17760, Note_on_c, 0, 50, 48
2, 17760, Note_on_c, 0, 70, 55
2, 17760, Note_on_c, 0, 58, 41
2, 17856, Note_on_c, 0, 53, 0
2, 17856, Note_on_c, 0, 50, 0
2, 17856, Note_on_c, 0, 70, 0
2, 17856, Note_on_c, 0, 58, 0
2, 17856, Note_on_c, 0, 53, 44
2, 17856, Note_on_c, 0, 69, 56
2, 17856, Note_on_c, 0, 48, 42
2, 17856, Note_on_c, 0, 60, 44
2, 18000, Note_on_c, 0, 69, 0
2, 18000, Note_on_c, 0, 67, 62
2, 18048, Note_on_c, 0, 53, 0
2, 18048, Note_on_c, 0, 48, 0
2, 18048, Note_on_c, 0, 60, 0
2, 18048, Note_on_c, 0, 67, 0
2, 18048, Note_on_c, 0, 65, 55
2, 18048, Note_on_c, 0, 53, 50
2, 18048, Note_on_c, 0, 46, 43
2, 18048, Note_on_c, 0, 62, 46
2, 18144, Note_on_c, 0, 65, 0
2, 18144, Note_on_c, 0, 53, 0
2, 18144, Note_on_c, 0, 46, 0
2, 18144, Note_on_c, 0, 62, 0
2, 18144, Note_on_c, 0, 48, 46
2, 18144, Note_on_c, 0, 53, 44
2, 18144, Note_on_c, 0, 69, 56
2, 18144, Note_on_c, 0, 60, 47
2, 18336, Note_on_c, 0, 48, 0
2, 18336, Note_on_c, 0, 53, 0
2, 18336, Note_on_c, 0, 69, 0
2, 18336, Note_on_c, 0, 60, 0
2, 18336, Note_on_c, 0, 70, 55
2, 18336, Note_on_c, 0, 58, 44
2, 18336, Note_on_c, 0, 53, 50
2, 18336, Note_on_c, 0, 50, 47
2, 18432, Note_on_c, 0, 70, 0
2, 18432, Note_on_c, 0, 58, 0
2, 18432, Note_on_c, 0, 53, 0
2, 18432, Note_on_c, 0, 50, 0
2, 18432, Note_on_c, 0, 48, 40
2, 18432, Note_on_c, 0, 53, 44
2, 18432, Note_on_c, 0, 69, 62
2, 18432, Note_on_c, 0, 60, 48
2, 18576, Note_on_c, 0, 69, 0
2, 18576, Note_on_c, 0, 67, 64
2, 18624, Note_on_c, 0, 48, 0
2, 18624, Note_on_c, 0, 53, 0
2, 18624, Note_on_c, 0, 60, 0
2, 18624, Note_on_c, 0, 67, 0
2, 18624, Note_on_c, 0, 60, 44
2, 18624, Note_on_c, 0, 65, 62
2, 18624, Note_on_c, 0, 57, 41
2, 18624, Note_on_c, 0, 48, 48
2, 18720, Note_on_c, 0, 60, 0
2, 18720, Note_on_c, 0, 65, 0
2, 18720, Note_on_c, 0, 57, 0
2, 18720, Note_on_c, 0, 48, 0
2, 18720, Note_on_c, 0, 58, 44
2, 18720, Note_on_c, 0, 48, 46
2, 18720, Note_on_c, 0, 62, 49
2, 18720, Note_on_c, 0, 67, 65
2, 18912, Note_on_c, 0, 58, 0
2, 18912, Note_on_c, 0, 48, 0
2, 18912, Note_on_c, 0, 62, 0
2, 18912, Note_on_c, 0, 60, 54
2, 18912, Note_on_c, 0, 64, 51
2, 18912, Note_on_c, 0, 58, 57
2, 18912, Note_on_c, 0, 48, 59
2, 19008, Note_on_c, 0, 67, 0
2, 19008, Note_on_c, 0, 60, 0
2, 19008, Note_on_c, 0, 64, 0
2, 19008, Note_on_c, 0, 58, 0
2, 19008, Note_on_c, 0, 48, 0
2, 19008, Note_on_c, 0, 64, 60
2, 19008, Note_on_c, 0, 48, 56
2, 19008, Note_on_c, 0, 57, 55
2, 19008, Note_on_c, 0, 72, 75
2, 19200, Note_on_c, 0, 64, 0
2, 19200, Note_on_c, 0, 48, 0
2, 19200, Note_on_c, 0, 57, 0
2, 19200, Note_on_c, 0, 57, 59
2, 19200, Note_on_c, 0, 64, 61
2, 19200, Note_on_c, 0, 48, 62
2, 19296, Note_on_c, 0, 57, 0
2, 19296, Note_on_c, 0, 64, 0
2, 19296, Note_on_c, 0, 48, 0
2, 19296, Note_on_c, 0, 57, 61
2, 19296, Note_on_c, 0, 64, 61
2, 19296, Note_on_c, 0, 48, 55
2, 19488, Note_on_c, 0, 72, 0
2, 19488, Note_on_c, 0, 57, 0
2, 19488, Note_on_c, 0, 64, 0
2, 19488, Note_on_c, 0, 48, 0
2, 19488, Note_on_c, 0, 69, 63
2, 19488, Note_on_c, 0, 50, 49
2, 19488, Note_on_c, 0, 57, 51
2, 19488, Note_on_c, 0, 65, 47
2, 19584, Note_on_c, 0, 69, 0
2, 19584, Note_on_c, 0, 50, 0
2, 19584, Note_on_c, 0, 57, 0
2, 19584, Note_on_c, 0, 65, 0
2, 19584, Note_on_c, 0, 72, 58
2, 19584, Note_on_c, 0, 64, 44
2, 19584, Note_on_c, 0, 57, 46
2, 19584, Note_on_c, 0, 52, 46
2, 19776, Note_on_c, 0, 72, 0
2, 19776, Note_on_c, 0, 64, 0
2, 19776, Note_on_c, 0, 57, 0
2, 19776, Note_on_c, 0, 52, 0
2, 19776, Note_on_c, 0, 69, 60
2, 19776, Note_on_c, 0, 57, 48
2, 19776, Note_on_c, 0, 50, 48
2, 19776, Note_on_c, 0, 65, 44
2, 19872, Note_on_c, 0, 69, 0
2, 19872, Note_on_c, 0, 57, 0
2, 19872, Note_on_c, 0, 50, 0
2, 19872, Note_on_c, 0, 65, 0
2, 19872, Note_on_c, 0, 72, 57
2, 19872, Note_on_c, 0, 52, 45
2, 19872, Note_on_c, 0, 57, 43
2, 19872, Note_on_c, 0, 64, 40
2, 20064, Note_on_c, 0, 72, 0
2, 20064, Note_on_c, 0, 52, 0
2, 20064, Note_on_c, 0, 57, 0
2, 20064, Note_on_c, 0, 64, 0
2, 20064, Note_on_c, 0, 53, 43
2, 20064, Note_on_c, 0, 62, 42
2, 20064, Note_on_c, 0, 57, 40
2, 20064, Note_on_c, 0, 74, 57
2, 20160, Note_on_c, 0, 53, 0
2, 20160, Note_on_c, 0, 62, 0
2, 20160, Note_on_c, 0, 57, 0
2, 20160, Note_on_c, 0, 74, 0
2, 20160, Note_on_c, 0, 64, 50
2, 20160, Note_on_c, 0, 52, 49
2, 20160, Note_on_c, 0, 57, 41
2, 20160, Note_on_c, 0, 72, 63
2, 20304, Note_on_c, 0, 72, 0
2, 20304, Note_on_c, 0, 71, 62
2, 20352, Note_on_c, 0, 64, 0
2, 20352, Note_on_c, 0, 52, 0
2, 20352, Note_on_c, 0, 57, 0
2, 20352, Note_on_c, 0, 71, 0
2, 20352, Note_on_c, 0, 57, 45
2, 20352, Note_on_c, 0, 65, 47
2, 20352, Note_on_c, 0, 50, 48
2, 20352, Note_on_c, 0, 69, 55
2, 20448, Note_on_c, 0, 57, 0
2, 20448, Note_on_c, 0, 65, 0
2, 20448, Note_on_c, 0, 50, 0
2, 20448, Note_on_c, 0, 69, 0
2, 20448, Note_on_c, 0, 72, 61
2, 20448, Note_on_c, 0, 57, 47
2, 20448, Note_on_c, 0, 52, 44
2, 20448, Note_on_c, 0, 64, 46
2, 20640, Note_on_c, 0, 72, 0
2, 20640, Note_on_c, 0, 57, 0
2, 20640, Note_on_c, 0, 52, 0
2, 20640, Note_on_c, 0, 64, 0
2, 20640, Note_on_c, 0, 53, 48
2, 20640, Note_on_c, 0, 74, 56
2, 20640, Note_on_c, 0, 62, 49
2, 20640, Note_on_c, 0, 57, 40
2, 20736, Note_on_c, 0, 53, 0
2, 20736, Note_on_c, 0, 74, 0
2, 20736, Note_on_c, 0, 62, 0
2, 20736, Note_on_c, 0, 57, 0
2, 20736, Note_on_c, 0, 64, 45
2, 20736, Note_on_c, 0, 52, 40
2, 20736, Note_on_c, 0, 72, 57
2, 20736, Note_on_c, 0, 57, 50
2, 20880, Note_on_c, 0, 72, 0
2, 20880, Note_on_c, 0, 71, 65
2, 20928, Note_on_c, 0, 64, 0
2, 20928, Note_on_c, 0, 52, 0
2, 20928, Note_on_c, 0, 57, 0
2, 20928, Note_on_c, 0, 71, 0
2, 20928, Note_on_c, 0, 60, 48
2, 20928, Note_on_c, 0, 64, 49
2, 20928, Note_on_c, 0, 52, 42
2, 20928, Note_on_c, 0, 69, 56
2, 21024, Note_on_c, 0, 60, 0
2, 21024, Note_on_c, 0, 64, 0
2, 21024, Note_on_c, 0, 52, 0
2, 21024, Note_on_c, 0, 69, 0
2, 21024, Note_on_c, 0, 64, 46
2, 21024, Note_on_c, 0, 71, 64
2, 21024, Note_on_c, 0, 52, 43
2, 21024, Note_on_c, 0, 69, 49
2, 21024, Note_on_c, 0, 62, 49
2, 21216, Note_on_c, 0, 64, 0
2, 21216, Note_on_c, 0, 52, 0
2, 21216, Note_on_c, 0, 69, 0
2, 21216, Note_on_c, 0, 62, 0
2, 21216, Note_on_c, 0, 52, 46
2, 21216, Note_on_c, 0, 68, 40
2, 21216, Note_on_c, 0, 62, 47
2, 21312, Note_on_c, 0, 71, 0
2, 21312, Note_on_c, 0, 52, 0
2, 21312, Note_on_c, 0, 68, 0
2, 21312, Note_on_c, 0, 62, 0
2, 21312, Note_on_c, 0, 45, 43
2, 21312, Note_on_c, 0, 69, 55
2, 21312, Note_on_c, 0, 60, 48
2, 21504, Note_on_c, 0, 45, 0
2, 21504, Note_on_c, 0, 60, 0
2, 21504, Note_on_c, 0, 45, 41
2, 21504, Note_on_c, 0, 60, 44
2, 21504, Note_on_c, 0, 64, 45
2, 21600, Note_on_c, 0, 69, 0
2, 21600, Note_on_c, 0, 45, 0
2, 21600, Note_on_c, 0, 60, 0
2, 21600, Note_on_c, 0, 64, 0
2, 21600, Note_on_c, 0, 72, 60
2, 21600, Note_on_c, 0, 42, 41
2, 21600, Note_on_c, 0, 69, 59
2, 21600, Note_on_c, 0, 63, 68
2, 21792, Note_on_c, 0, 42, 0
2, 21792, Note_on_c, 0, 63, 0
2, 21792, Note_on_c, 0, 42, 42
2, 21792, Note_on_c, 0, 63, 43
2, 21888, Note_on_c, 0, 72, 0
2, 21888, Note_on_c, 0, 69, 0
2, 21888, Note_on_c, 0, 42, 0
2, 21888, Note_on_c, 0, 63, 0
2, 21888, Note_on_c, 0, 67, 44
2, 21888, Note_on_c, 0, 70, 58
2, 21888, Note_on_c, 0, 62, 43
2, 21888, Note_on_c, 0, 43, 44
2, 22032, Note_on_c, 0, 67, 0
2, 22032, Note_on_c, 0, 70, 0
2, 22032, Note_on_c, 0, 62, 0
2, 22032, Note_on_c, 0, 43, 0
2, 22032, Note_on_c, 0, 60, 31
2, 22032, Note_on_c, 0, 45, 38
2, 22032, Note_on_c, 0, 66, 32
2, 22032, Note_on_c, 0, 69, 50
2, 22080, Note_on_c, 0, 60, 0
2, 22080, Note_on_c, 0, 45, 0
2, 22080, Note_on_c, 0, 66, 0
2, 22080, Note_on_c, 0, 69, 0
2, 22080, Note_on_c, 0, 67, 51
2, 22080, Note_on_c, 0, 62, 32
2, 22080, Note_on_c, 0, 46, 33
2, 22176, Note_on_c, 0, 67, 0
2, 22176, Note_on_c, 0, 62, 0
2, 22176, Note_on_c, 0, 46, 0
2, 22176, Note_on_c, 0, 48, 28
2, 22176, Note_on_c, 0, 64, 26
2, 22176, Note_on_c, 0, 69, 59
2, 22176, Note_on_c, 0, 58, 33
2, 22368, Note_on_c, 0, 48, 0
2, 22368, Note_on_c, 0, 64, 0
2, 22368, Note_on_c, 0, 58, 0
2, 22368, Note_on_c, 0, 36, 34
2, 22368, Note_on_c, 0, 64, 25
2, 22368, Note_on_c, 0, 58, 31
2, 22368, Note_on_c, 0, 48, 33
2, 22464, Note_on_c, 0, 69, 0
2, 22464, Note_on_c, 0, 36, 0
2, 22464, Note_on_c, 0, 64, 0
2, 22464, Note_on_c, 0, 58, 0
2, 22464, Note_on_c, 0, 48, 0
2, 22464, Note_on_c, 0, 57, 34
2, 22464, Note_on_c, 0, 41, 29
2, 22464, Note_on_c, 0, 65, 40
2, 22464, Note_on_c, 0, 48, 35
2, 22656, Note_on_c, 0, 57, 0
2, 22656, Note_on_c, 0, 41, 0
2, 22656, Note_on_c, 0, 48, 0
2, 22656, Note_on_c, 0, 41, 26
2, 22656, Note_on_c, 0, 57, 29
2, 22752, Note_on_c, 0, 65, 0
2, 22752, Note_on_c, 0, 41, 0
2, 22752, Note_on_c, 0, 57, 0
2, 22752, Note_on_c, 0, 63, 59
2, 22752, Note_on_c, 0, 69, 64
2, 22752, Note_on_c, 0, 72, 61
2, 22752, Note_on_c, 0, 42, 41
2, 22944, Note_on_c, 0, 63, 0
2, 22944, Note_on_c, 0, 42, 0
2, 22944, Note_on_c, 0, 42, 40
2, 22944, Note_on_c, 0, 63, 46
2, 23016, Note_on_c, 0, 69, 0
2, 23016, Note_on_c, 0, 72, 0
2, 23016, Note_on_c, 0, 72, 61
2, 23040, Note_on_c, 0, 42, 0
2, 23040, Note_on_c, 0, 63, 0
2, 23040, Note_on_c, 0, 72, 0
2, 23040, Note_on_c, 0, 43, 43
2, 23040, Note_on_c, 0, 62, 43
2, 23040, Note_on_c, 0, 67, 44
2, 23040, Note_on_c, 0, 70, 61
2, 23184, Note_on_c, 0, 43, 0
2, 23184, Note_on_c, 0, 62, 0
2, 23184, Note_on_c, 0, 67, 0
2, 23184, Note_on_c, 0, 70, 0
2, 23184, Note_on_c, 0, 60, 34
2, 23184, Note_on_c, 0, 66, 38
2, 23184, Note_on_c, 0, 69, 50
2, 23184, Note_on_c, 0, 45, 32
2, 23232, Note_on_c, 0, 60, 0
2, 23232, Note_on_c, 0, 66, 0
2, 23232, Note_on_c, 0, 69, 0
2, 23232, Note_on_c, 0, 45, 0
2, 23232, Note_on_c, 0, 46, 35
2, 23232, Note_on_c, 0, 67, 55
2, 23232, Note_on_c, 0, 62, 30
2, 23328, Note_on_c, 0, 46, 0
2, 23328, Note_on_c, 0, 67, 0
2, 23328, Note_on_c, 0, 62, 0
2, 23328, Note_on_c, 0, 69, 68
2, 23328, Note_on_c, 0, 58, 28
2, 23328, Note_on_c, 0, 64, 27
2, 23328, Note_on_c, 0, 48, 28
2, 23520, Note_on_c, 0, 58, 0
2, 23520, Note_on_c, 0, 64, 0
2, 23520, Note_on_c, 0, 48, 0
2, 23520, Note_on_c, 0, 36, 30
2, 23520, Note_on_c, 0, 58, 34
2, 23520, Note_on_c, 0, 64, 34
2, 23520, Note_on_c, 0, 48, 32
2, 23616, Note_on_c, 0, 69, 0
2, 23616, Note_on_c, 0, 36, 0
2, 23616, Note_on_c, 0, 58, 0
2, 23616, Note_on_c, 0, 64, 0
2, 23616, Note_on_c, 0, 48, 0
2, 23616, Note_on_c, 0, 41, 35
2, 23616, Note_on_c, 0, 57, 26
2, 23616, Note_on_c, 0, 48, 28
2, 23616, Note_on_c, 0, 65, 44
2, 23760, Note_on_c, 0, 41, 0
2, 23760, Note_on_c, 0, 40, 30
2, 23808, Note_on_c, 0, 57, 0
2, 23808, Note_on_c, 0, 48, 0
2, 23808, Note_on_c, 0, 40, 0
2, 23808, Note_on_c, 0, 48, 32
2, 23808, Note_on_c, 0, 57, 29
2, 23808, Note_on_c, 0, 38, 35
2, 23904, Note_on_c, 0, 65, 0
2, 23904, Note_on_c, 0, 48, 0
2, 23904, Note_on_c, 0, 57, 0
2, 23904, Note_on_c, 0, 38, 0
2, 23904, Note_on_c, 0, 58, 28
2, 23904, Note_on_c, 0, 48, 34
2, 23904, Note_on_c, 0, 69, 65
2, 23904, Note_on_c, 0, 64, 26
2, 23904, Note_on_c, 0, 36, 25
2, 24096, Note_on_c, 0, 58, 0
2, 24096, Note_on_c, 0, 64, 0
2, 24096, Note_on_c, 0, 36, 0
2, 24096, Note_on_c, 0, 64, 27
2, 24096, Note_on_c, 0, 58, 26
2, 24096, Note_on_c, 0, 36, 25
2, 24192, Note_on_c, 0, 48, 0
2, 24192, Note_on_c, 0, 69, 0
2, 24192, Note_on_c, 0, 64, 0
2, 24192, Note_on_c, 0, 58, 0
2, 24192, Note_on_c, 0, 36, 0
2, 24192, Note_on_c, 0, 57, 26
2, 24192, Note_on_c, 0, 48, 33
2, 24192, Note_on_c, 0, 65, 46
2, 24192, Note_on_c, 0, 41, 33
2, 24336, Note_on_c, 0, 41, 0
2, 24336, Note_on_c, 0, 40, 31
2, 24384, Note_on_c, 0, 57, 0
2, 24384, Note_on_c, 0, 48, 0
2, 24384, Note_on_c, 0, 40, 0
2, 24384, Note_on_c, 0, 48, 30
2, 24384, Note_on_c, 0, 38, 34
2, 24384, Note_on_c, 0, 57, 34
2, 24480, Note_on_c, 0, 65, 0
2, 24480, Note_on_c, 0, 48, 0
2, 24480, Note_on_c, 0, 38, 0
2, 24480, Note_on_c, 0, 57, 0
2, 24480, Note_on_c, 0, 69, 64
2, 24480, Note_on_c, 0, 48, 31
2, 24480, Note_on_c, 0, 58, 35
2, 24480, Note_on_c, 0, 36, 32
2, 24480, Note_on_c, 0, 64, 25
2, 24672, Note_on_c, 0, 58, 0
2, 24672, Note_on_c, 0, 36, 0
2, 24672, Note_on_c, 0, 64, 0
2, 24672, Note_on_c, 0, 64, 35
2, 24672, Note_on_c, 0, 58, 29
2, 24672, Note_on_c, 0, 36, 32
2, 24768, Note_on_c, 0, 69, 0
2, 24768, Note_on_c, 0, 48, 0
2, 24768, Note_on_c, 0, 64, 0
2, 24768, Note_on_c, 0, 58, 0
2, 24768, Note_on_c, 0, 36, 0
2, 24768, Note_on_c, 0, 57, 34
2, 24768, Note_on_c, 0, 48, 27
2, 24768, Note_on_c, 0, 65, 46
2, 24768, Note_on_c, 0, 41, 34
2, 24960, Note_on_c, 0, 57, 0
2, 24960, Note_on_c, 0, 48, 0
2, 24960, Note_on_c, 0, 65, 0
2, 24960, Note_on_c, 0, 41, 0
2, 24960, Note_on_c, 0, 69, 42
2, 24960, Note_on_c, 0, 64, 31
2, 24960, Note_on_c, 0, 58, 27
2, 24960, Note_on_c, 0, 36, 32
2, 24960, Note_on_c, 0, 48, 30
2, 25056, Note_on_c, 0, 69, 0
2, 25056, Note_on_c, 0, 64, 0
2, 25056, Note_on_c, 0, 58, 0
2, 25056, Note_on_c, 0, 36, 0
2, 25056, Note_on_c, 0, 48, 0
2, 25056, Note_on_c, 0, 57, 35
2, 25056, Note_on_c, 0, 48, 33
2, 25056, Note_on_c, 0, 41, 35
2, 25056, Note_on_c, 0, 65, 42
2, 25248, Note_on_c, 0, 57, 0
2, 25248, Note_on_c, 0, 48, 0
2, 25248, Note_on_c, 0, 41, 0
2, 25248, Note_on_c, 0, 65, 0
2, 25248, Note_on_c, 0, 64, 30
2, 25248, Note_on_c, 0, 69, 46
2, 25248, Note_on_c, 0, 48, 27
2, 25248, Note_on_c, 0, 36, 35
2, 25248, Note_on_c, 0, 58, 33
2, 25344, Note_on_c, 0, 64, 0
2, 25344, Note_on_c, 0, 69, 0
2, 25344, Note_on_c, 0, 48, 0
2, 25344, Note_on_c, 0, 36, 0
2, 25344, Note_on_c, 0, 58, 0
2, 25344, Note_on_c, 0, 65, 42
2, 25344, Note_on_c, 0, 57, 30
2, 25344, Note_on_c, 0, 48, 28
2, 25344, Note_on_c, 0, 41, 27
2, 25536, Note_on_c, 0, 65, 0
2, 25536, Note_on_c, 0, 57, 0
2, 25536, Note_on_c, 0, 48, 0
2, 25536, Note_on_c, 0, 41, 0
2, 25536, Note_on_c, 0, 69, 40
2, 25536, Note_on_c, 0, 58, 33
2, 25536, Note_on_c, 0, 48, 29
2, 25536, Note_on_c, 0, 64, 34
2, 25536, Note_on_c, 0, 36, 26
2, 25632, Note_on_c, 0, 69, 0
2, 25632, Note_on_c, 0, 58, 0
2, 25632, Note_on_c, 0, 48, 0
2, 25632, Note_on_c, 0, 64, 0
2, 25632, Note_on_c, 0, 36, 0
2, 25632, Note_on_c, 0, 65, 44
2, 25632, Note_on_c, 0, 48, 35
2, 25632, Note_on_c, 0, 41, 25
2, 25632, Note_on_c, 0, 57, 31
2, 25824, Note_on_c, 0, 65, 0
2, 25824, Note_on_c, 0, 48, 0
2, 25824, Note_on_c, 0, 41, 0
2, 25824, Note_on_c, 0, 57, 0
2, 25824, Note_on_c, 0, 64, 26
2, 25824, Note_on_c, 0, 48, 26
2, 25824, Note_on_c, 0, 69, 49
2, 25824, Note_on_c, 0, 58, 34
2, 25824, Note_on_c, 0, 36, 28
2, 25920, Note_on_c, 0, 64, 0
2, 25920, Note_on_c, 0, 48, 0
2, 25920, Note_on_c, 0, 69, 0
2, 25920, Note_on_c, 0, 58, 0
2, 25920, Note_on_c, 0, 36, 0
2, 25920, Note_on_c, 0, 29, 33
2, 25920, Control_c, 0, 64, 127
2, 26016, Note_on_c, 0, 41, 29
2, 26112, Note_on_c, 0, 48, 35
2, 26208, Note_on_c, 0, 53, 32
2, 26304, Note_on_c, 0, 57, 34
2, 26400, Note_on_c, 0, 60, 25
2, 26496, Note_on_c, 0, 65, 25
2, 26592, Note_on_c, 0, 69, 50
2, 26784, Note_on_c, 0, 69, 0
2, 26784, Note_on_c, 0, 69, 50
2, 26976, Note_on_c, 0, 69, 0
2, 26976, Note_on_c, 0, 69, 41
2, 27166, Note_on_c, 0, 69, 0
2, 27168, Note_on_c, 0, 69, 40
2, 27328, Note_on_c, 0, 69, 0
2, 27360, Note_on_c, 0, 69, 50
2, 27600, Note_on_c, 0, 29, 0
2, 27600, Note_on_c, 0, 41, 0
2, 27600, Note_on_c, 0, 48, 0
2, 27600, Note_on_c, 0, 53, 0
2, 27600, Note_on_c, 0, 57, 0
2, 27600, Note_on_c, 0, 60, 0
2, 27600, Note_on_c, 0, 65, 0
2, 27616, Note_on_c, 0, 69, 0
2, 27648, Note_on_c, 0, 33, 94
2, 27648, Control_c, 0, 64, 0
2, 27648, Control_c, 0, 64, 127
2, 27648, Note_on_c, 0, 45, 92
2, 27648, Note_on_c, 0, 89, 127
2, 27648, Note_on_c, 0, 93, 127
2, 27694, Note_on_c, 0, 89, 0
2, 27694, Note_on_c, 0, 93, 0
2, 27696, Note_on_c, 0, 88, 127
2, 27742, Note_on_c, 0, 33, 0
2, 27742, Note_on_c, 0, 45, 0
2, 27742, Note_on_c, 0, 88, 0
2, 27744, Note_on_c, 0, 52, 95
2, 27744, Note_on_c, 0, 40, 87
2, 27744, Note_on_c, 0, 84, 119
2, 27790, Note_on_c, 0, 84, 0
2, 27792, Note_on_c, 0, 81, 118
2, 27838, Note_on_c, 0, 52, 0
2, 27838, Note_on_c, 0, 40, 0
2, 27838, Note_on_c, 0, 81, 0
2, 27840, Note_on_c, 0, 47, 103
2, 27840, Note_on_c, 0, 81, 117
2, 27840, Control_c, 0, 64, 0
2, 27840, Note_on_c, 0, 77, 114
2, 27840, Note_on_c, 0, 59, 101
2, 27886, Note_on_c, 0, 81, 0
2, 27886, Note_on_c, 0, 77, 0
2, 27888, Note_on_c, 0, 76, 112
2, 27934, Note_on_c, 0, 47, 0
2, 27934, Note_on_c, 0, 59, 0
2, 27934, Note_on_c, 0, 76, 0
2, 27936, Note_on_c, 0, 48, 105
2, 27936, Note_on_c, 0, 72, 116
2, 27936, Note_on_c, 0, 60, 113
2, 27982, Note_on_c, 0, 72, 0
2, 27984, Note_on_c, 0, 69, 114
2, 28030, Note_on_c, 0, 69, 0
2, 28032, Note_on_c, 0, 69, 110
2, 28032, Note_on_c, 0, 65, 104
2, 28078, Note_on_c, 0, 69, 0
2, 28078, Note_on_c, 0, 65, 0
2, 28080, Note_on_c, 0, 64, 98
2, 28126, Note_on_c, 0, 64, 0
2, 28128, Note_on_c, 0, 60, 96
2, 28174, Note_on_c, 0, 60, 0
2, 28176, Note_on_c, 0, 57, 93
2, 28192, Note_on_c, 0, 48, 0
2, 28192, Note_on_c, 0, 60, 0
2, 28222, Note_on_c, 0, 57, 0
2, 28224, Control_c, 0, 64, 127
2, 28224, Note_on_c, 0, 53, 94
2, 28224, Note_on_c, 0, 56, 95
2, 28270, Note_on_c, 0, 56, 0
2, 28272, Note_on_c, 0, 53, 0
2, 28272, Note_on_c, 0, 68, 88
2, 28272, Note_on_c, 0, 50, 87
2, 28272, Note_on_c, 0, 59, 96
2, 28318, Note_on_c, 0, 68, 0
2, 28318, Note_on_c, 0, 59, 0
2, 28320, Note_on_c, 0, 50, 0
2, 28320, Note_on_c, 0, 45, 89
2, 28320, Note_on_c, 0, 59, 92
2, 28366, Note_on_c, 0, 59, 0
2, 28368, Note_on_c, 0, 45, 0
2, 28368, Note_on_c, 0, 71, 102
2, 28368, Note_on_c, 0, 62, 102
2, 28368, Note_on_c, 0, 56, 96
2, 28414, Note_on_c, 0, 71, 0
2, 28414, Note_on_c, 0, 62, 0
2, 28416, Note_on_c, 0, 56, 0
2, 28416, Note_on_c, 0, 53, 102
2, 28416, Note_on_c, 0, 62, 99
2, 28462, Note_on_c, 0, 62, 0
2, 28464, Note_on_c, 0, 53, 0
2, 28464, Note_on_c, 0, 74, 101
2, 28464, Note_on_c, 0, 45, 105
2, 28464, Note_on_c, 0, 65, 103
2, 28510, Note_on_c, 0, 74, 0
2, 28510, Note_on_c, 0, 65, 0
2, 28512, Note_on_c, 0, 45, 0
2, 28512, Note_on_c, 0, 59, 104
2, 28512, Note_on_c, 0, 65, 102
2, 28558, Note_on_c, 0, 65, 0
2, 28560, Note_on_c, 0, 59, 0
2, 28560, Note_on_c, 0, 77, 108
2, 28560, Note_on_c, 0, 69, 115
2, 28560, Note_on_c, 0, 53, 102
2, 28606, Note_on_c, 0, 77, 0
2, 28606, Note_on_c, 0, 69, 0
2, 28608, Note_on_c, 0, 53, 0
2, 28608, Note_on_c, 0, 69, 110
2, 28608, Note_on_c, 0, 45, 108
2, 28654, Note_on_c, 0, 69, 0
2, 28656, Note_on_c, 0, 45, 0
2, 28656, Note_on_c, 0, 71, 119
2, 28656, Note_on_c, 0, 62, 105
2, 28656, Note_on_c, 0, 80, 114
2, 28702, Note_on_c, 0, 71, 0
2, 28702, Note_on_c, 0, 62, 0
2, 28702, Note_on_c, 0, 80, 0
2, 28704, Note_on_c, 0, 71, 116
2, 28750, Note_on_c, 0, 71, 0
2, 28752, Note_on_c, 0, 74, 122
2, 28752, Note_on_c, 0, 83, 120
2, 28752, Control_c, 0, 64, 0
2, 28798, Note_on_c, 0, 74, 0
2, 28798, Note_on_c, 0, 83, 0
2, 28800, Note_on_c, 0, 89, 123
2, 28800, Note_on_c, 0, 33, 95
2, 28800, Control_c, 0, 64, 127
2, 28800, Note_on_c, 0, 45, 91
2, 28800, Note_on_c, 0, 93, 124
2, 28846, Note_on_c, 0, 89, 0
2, 28846, Note_on_c, 0, 93, 0
2, 28848, Note_on_c, 0, 88, 126
2, 28894, Note_on_c, 0, 33, 0
2, 28894, Note_on_c, 0, 45, 0
2, 28894, Note_on_c, 0, 88, 0
2, 28896, Note_on_c, 0, 84, 127
2, 28896, Note_on_c, 0, 52, 96
2, 28896, Note_on_c, 0, 40, 88
2, 28942, Note_on_c, 0, 84, 0
2, 28944, Note_on_c, 0, 81, 120
2, 28990, Note_on_c, 0, 52, 0
2, 28990, Note_on_c, 0, 40, 0
2, 28990, Note_on_c, 0, 81, 0
2, 28992, Note_on_c, 0, 47, 97
2, 28992, Note_on_c, 0, 59, 98
2, 28992, Control_c, 0, 64, 0
2, 28992, Note_on_c, 0, 77, 120
2, 28992, Note_on_c, 0, 81, 117
2, 29038, Note_on_c, 0, 77, 0
2, 29038, Note_on_c, 0, 81, 0
2, 29040, Note_on_c, 0, 76, 115
2, 29086, Note_on_c, 0, 47, 0
2, 29086, Note_on_c, 0, 59, 0
2, 29086, Note_on_c, 0, 76, 0
2, 29088, Note_on_c, 0, 48, 106
2, 29088, Note_on_c, 0, 72, 116
2, 29088, Note_on_c, 0, 60, 105
2, 29134, Note_on_c, 0, 72, 0
2, 29136, Note_on_c, 0, 69, 104
2, 29182, Note_on_c, 0, 69, 0
2, 29184, Note_on_c, 0, 65, 110
2, 29184, Note_on_c, 0, 69, 103
2, 29230, Note_on_c, 0, 65, 0
2, 29230, Note_on_c, 0, 69, 0
2, 29232, Note_on_c, 0, 64, 107
2, 29278, Note_on_c, 0, 64, 0
2, 29280, Note_on_c, 0, 60, 102
2, 29326, Note_on_c, 0, 60, 0
2, 29328, Note_on_c, 0, 57, 95
2, 29344, Note_on_c, 0, 48, 0
2, 29344, Note_on_c, 0, 60, 0
2, 29374, Note_on_c, 0, 57, 0
2, 29376, Control_c, 0, 64, 127
2, 29376, Note_on_c, 0, 59, 87
2, 29376, Note_on_c, 0, 56, 92
2, 29422, Note_on_c, 0, 59, 0
2, 29424, Note_on_c, 0, 56, 0
2, 29424, Note_on_c, 0, 53, 96
2, 29424, Note_on_c, 0, 62, 97
2, 29424, Note_on_c, 0, 71, 87
2, 29470, Note_on_c, 0, 62, 0
2, 29470, Note_on_c, 0, 71, 0
2, 29472, Note_on_c, 0, 53, 0
2, 29472, Note_on_c, 0, 45, 91
2, 29472, Note_on_c, 0, 62, 100
2, 29518, Note_on_c, 0, 62, 0
2, 29520, Note_on_c, 0, 45, 0
2, 29520, Note_on_c, 0, 65, 100
2, 29520, Note_on_c, 0, 74, 95
2, 29520, Note_on_c, 0, 59, 101
2, 29566, Note_on_c, 0, 65, 0
2, 29566, Note_on_c, 0, 74, 0
2, 29568, Note_on_c, 0, 59, 0
2, 29568, Note_on_c, 0, 53, 94
2, 29568, Note_on_c, 0, 65, 100
2, 29614, Note_on_c, 0, 65, 0
2, 29616, Note_on_c, 0, 53, 0
2, 29616, Note_on_c, 0, 68, 99
2, 29616, Note_on_c, 0, 77, 105
2, 29616, Note_on_c, 0, 45, 97
2, 29662, Note_on_c, 0, 68, 0
2, 29662, Note_on_c, 0, 77, 0
2, 29664, Note_on_c, 0, 45, 0
2, 29664, Note_on_c, 0, 62, 107
2, 29664, Note_on_c, 0, 68, 109
2, 29710, Note_on_c, 0, 68, 0
2, 29712, Note_on_c, 0, 62, 0
2, 29712, Note_on_c, 0, 71, 110
2, 29712, Note_on_c, 0, 80, 110
2, 29712, Note_on_c, 0, 53, 107
2, 29758, Note_on_c, 0, 71, 0
2, 29758, Note_on_c, 0, 80, 0
2, 29760, Note_on_c, 0, 53, 0
2, 29760, Note_on_c, 0, 71, 115
2, 29760, Note_on_c, 0, 45, 103
2, 29806, Note_on_c, 0, 71, 0
2, 29808, Note_on_c, 0, 45, 0
2, 29808, Note_on_c, 0, 65, 111
2, 29808, Note_on_c, 0, 83, 113
2, 29808, Note_on_c, 0, 74, 113
2, 29854, Note_on_c, 0, 65, 0
2, 29854, Note_on_c, 0, 83, 0
2, 29854, Note_on_c, 0, 74, 0
2, 29856, Note_on_c, 0, 74, 123
2, 29902, Note_on_c, 0, 74, 0
2, 29904, Control_c, 0, 64, 0
2, 29904, Note_on_c, 0, 77, 126
2, 29904, Note_on_c, 0, 86, 126
2, 29950, Note_on_c, 0, 77, 0
2, 29950, Note_on_c, 0, 86, 0
2, 29952, Note_on_c, 0, 93, 122
2, 29952, Note_on_c, 0, 100, 127
2, 29952, Note_on_c, 0, 45, 95
2, 29952, Note_on_c, 0, 33, 96
2, 29952, Control_c, 0, 64, 127
2, 30000, Note_on_c, 0, 93, 0
2, 30000, Note_on_c, 0, 100, 0
2, 30000, Note_on_c, 0, 96, 127
2, 30048, Note_on_c, 0, 45, 0
2, 30048, Note_on_c, 0, 33, 0
2, 30048, Note_on_c, 0, 96, 0
2, 30048, Note_on_c, 0, 40, 89
2, 30048, Note_on_c, 0, 93, 127
2, 30048, Note_on_c, 0, 52, 94
2, 30096, Note_on_c, 0, 93, 0
2, 30096, Note_on_c, 0, 88, 120
2, 30144, Note_on_c, 0, 40, 0
2, 30144, Note_on_c, 0, 52, 0
2, 30144, Note_on_c, 0, 88, 0
2, 30144, Note_on_c, 0, 44, 97
2, 30144, Control_c, 0, 64, 0
2, 30144, Note_on_c, 0, 96, 118
2, 30144, Note_on_c, 0, 88, 120
2, 30144, Note_on_c, 0, 56, 90
2, 30192, Note_on_c, 0, 96, 0
2, 30192, Note_on_c, 0, 88, 0
2, 30192, Note_on_c, 0, 93, 110
2, 30240, Note_on_c, 0, 44, 0
2, 30240, Note_on_c, 0, 56, 0
2, 30240, Note_on_c, 0, 93, 0
2, 30240, Control_c, 0, 64, 127
2, 30240, Note_on_c, 0, 47, 98
2, 30240, Note_on_c, 0, 59, 94
2, 30240, Note_on_c, 0, 88, 112
2, 30288, Note_on_c, 0, 88, 0
2, 30288, Note_on_c, 0, 84, 112
2, 30336, Note_on_c, 0, 47, 0
2, 30336, Note_on_c, 0, 59, 0
2, 30336, Note_on_c, 0, 84, 0
2, 30336, Note_on_c, 0, 93, 104
2, 30336, Note_on_c, 0, 57, 94
2, 30336, Note_on_c, 0, 45, 97
2, 30336, Note_on_c, 0, 84, 109
2, 30384, Note_on_c, 0, 93, 0
2, 30384, Note_on_c, 0, 84, 0
2, 30384, Note_on_c, 0, 88, 100
2, 30432, Note_on_c, 0, 57, 0
2, 30432, Note_on_c, 0, 45, 0
2, 30432, Note_on_c, 0, 88, 0
2, 30432, Control_c, 0, 64, 0
2, 30432, Note_on_c, 0, 84, 99
2, 30432, Note_on_c, 0, 59, 96
2, 30432, Note_on_c, 0, 47, 100
2, 30480, Note_on_c, 0, 84, 0
2, 30480, Note_on_c, 0, 81, 95
2, 30528, Note_on_c, 0, 59, 0
2, 30528, Note_on_c, 0, 47, 0
2, 30528, Note_on_c, 0, 81, 0
2, 30528, Note_on_c, 0, 50, 103
2, 30528, Note_on_c, 0, 62, 96
2, 30528, Note_on_c, 0, 81, 95
2, 30528, Note_on_c, 0, 88, 96
2, 30528, Control_c, 0, 64, 127
2, 30576, Note_on_c, 0, 81, 0
2, 30576, Note_on_c, 0, 88, 0
2, 30576, Note_on_c, 0, 84, 96
2, 30624, Note_on_c, 0, 50, 0
2, 30624, Note_on_c, 0, 62, 0
2, 30624, Note_on_c, 0, 84, 0
2, 30624, Note_on_c, 0, 48, 99
2, 30624, Note_on_c, 0, 60, 102
2, 30624, Note_on_c, 0, 81, 96
2, 30672, Note_on_c, 0, 81, 0
2, 30672, Note_on_c, 0, 76, 87
2, 30720, Note_on_c, 0, 48, 0
2, 30720, Note_on_c, 0, 60, 0
2, 30720, Note_on_c, 0, 76, 0
2, 30720, Note_on_c, 0, 51, 106
2, 30720, Note_on_c, 0, 76, 97
2, 30720, Note_on_c, 0, 84, 94
2, 30720, Note_on_c, 0, 63, 105
2, 30720, Control_c, 0, 64, 0
2, 30768, Note_on_c, 0, 76, 0
2, 30768, Note_on_c, 0, 84, 0
2, 30768, Note_on_c, 0, 81, 93
2, 30816, Note_on_c, 0, 51, 0
2, 30816, Note_on_c, 0, 63, 0
2, 30816, Note_on_c, 0, 81, 0
2, 30816, Note_on_c, 0, 65, 110
2, 30816, Note_on_c, 0, 53, 101
2, 30816, Note_on_c, 0, 76, 92
2, 30816, Control_c, 0, 64, 127
2, 30864, Note_on_c, 0, 76, 0
2, 30864, Note_on_c, 0, 72, 90
2, 30912, Note_on_c, 0, 65, 0
2, 30912, Note_on_c, 0, 53, 0
2, 30912, Note_on_c, 0, 72, 0
2, 30912, Note_on_c, 0, 52, 110
2, 30912, Note_on_c, 0, 64, 106
2, 30912, Note_on_c, 0, 72, 91
2, 30912, Note_on_c, 0, 81, 95
2, 30960, Note_on_c, 0, 72, 0
2, 30960, Note_on_c, 0, 81, 0
2, 30960, Note_on_c, 0, 76, 93
2, 31006, Note_on_c, 0, 52, 0
2, 31006, Note_on_c, 0, 64, 0
2, 31008, Note_on_c, 0, 76, 0
2, 31008, Note_on_c, 0, 72, 89
2, 31008, Control_c, 0, 64, 0
2, 31056, Note_on_c, 0, 72, 0
2, 31056, Note_on_c, 0, 69, 90
2, 31102, Note_on_c, 0, 69, 0
2, 31104, Note_on_c, 0, 69, 127
2, 31104, Control_c, 0, 64, 127
2, 31104, Note_on_c, 0, 75, 127
2, 31104, Note_on_c, 0, 45, 87
2, 31104, Note_on_c, 0, 33, 88
2, 31150, Note_on_c, 0, 69, 0
2, 31150, Note_on_c, 0, 75, 0
2, 31152, Note_on_c, 0, 72, 89
2, 31198, Note_on_c, 0, 45, 0
2, 31198, Note_on_c, 0, 33, 0
2, 31198, Note_on_c, 0, 72, 0
2, 31200, Note_on_c, 0, 48, 91
2, 31200, Note_on_c, 0, 69, 97
2, 31200, Note_on_c, 0, 36, 91
2, 31246, Note_on_c, 0, 69, 0
2, 31248, Note_on_c, 0, 66, 88
2, 31294, Note_on_c, 0, 48, 0
2, 31294, Note_on_c, 0, 36, 0
2, 31294, Note_on_c, 0, 66, 0
2, 31296, Note_on_c, 0, 50, 97
2, 31296, Note_on_c, 0, 72, 91
2, 31296, Note_on_c, 0, 66, 93
2, 31296, Note_on_c, 0, 38, 105
2, 31296, Control_c, 0, 64, 0
2, 31342, Note_on_c, 0, 72, 0
2, 31342, Note_on_c, 0, 66, 0
2, 31344, Note_on_c, 0, 69, 91
2, 31390, Note_on_c, 0, 50, 0
2, 31390, Note_on_c, 0, 38, 0
2, 31390, Note_on_c, 0, 69, 0
2, 31392, Note_on_c, 0, 51, 109
2, 31392, Control_c, 0, 64, 127
2, 31392, Note_on_c, 0, 66, 90
2, 31392, Note_on_c, 0, 39, 108
2, 31438, Note_on_c, 0, 66, 0
2, 31440, Note_on_c, 0, 60, 87
2, 31486, Note_on_c, 0, 60, 0
2, 31488, Note_on_c, 0, 60, 89
2, 31488, Note_on_c, 0, 69, 97
2, 31534, Note_on_c, 0, 60, 0
2, 31534, Note_on_c, 0, 69, 0
2, 31536, Note_on_c, 0, 66, 94
2, 31582, Note_on_c, 0, 66, 0
2, 31584, Control_c, 0, 64, 0
2, 31584, Note_on_c, 0, 60, 94
2, 31630, Note_on_c, 0, 60, 0
2, 31632, Note_on_c, 0, 57, 97
2, 31678, Note_on_c, 0, 57, 0
2, 31680, Control_c, 0, 64, 127
2, 31680, Note_on_c, 0, 66, 95
2, 31680, Note_on_c, 0, 57, 91
2, 31726, Note_on_c, 0, 66, 0
2, 31728, Note_on_c, 0, 60, 97
2, 31774, Note_on_c, 0, 60, 0
2, 31776, Note_on_c, 0, 57, 94
2, 31822, Note_on_c, 0, 57, 0
2, 31824, Note_on_c, 0, 54, 94
2, 31840, Note_on_c, 0, 51, 0
2, 31840, Note_on_c, 0, 39, 0
2, 31870, Note_on_c, 0, 54, 0
2, 31872, Note_on_c, 0, 66, 97
2, 31872, Note_on_c, 0, 38, 94
2, 31872, Note_on_c, 0, 50, 97
2, 31872, Control_c, 0, 64, 0
2, 31872, Note_on_c, 0, 62, 89
2, 31918, Note_on_c, 0, 66, 0
2, 31918, Note_on_c, 0, 62, 0
2, 31920, Note_on_c, 0, 54, 92
2, 31966, Note_on_c, 0, 38, 0
2, 31966, Note_on_c, 0, 50, 0
2, 31966, Note_on_c, 0, 54, 0
2, 31968, Note_on_c, 0, 63, 94
2, 31968, Note_on_c, 0, 45, 95
2, 31968, Control_c, 0, 64, 127
2, 31968, Note_on_c, 0, 33, 91
2, 31968, Note_on_c, 0, 67, 94
2, 32014, Note_on_c, 0, 63, 0
2, 32014, Note_on_c, 0, 67, 0
2, 32016, Note_on_c, 0, 54, 97
2, 32062, Note_on_c, 0, 57, 0
2, 32062, Note_on_c, 0, 45, 0
2, 32062, Note_on_c, 0, 33, 0
2, 32062, Note_on_c, 0, 54, 0
2, 32064, Note_on_c, 0, 62, 100
2, 32064, Note_on_c, 0, 67, 100
2, 32064, Note_on_c, 0, 46, 92
2, 32064, Note_on_c, 0, 34, 96
2, 32110, Note_on_c, 0, 67, 0
2, 32112, Note_on_c, 0, 54, 96
2, 32158, Note_on_c, 0, 62, 0
2, 32158, Note_on_c, 0, 46, 0
2, 32158, Note_on_c, 0, 34, 0
2, 32158, Note_on_c, 0, 54, 0
2, 32160, Note_on_c, 0, 33, 89
2, 32160, Note_on_c, 0, 67, 103
2, 32160, Note_on_c, 0, 60, 105
2, 32160, Note_on_c, 0, 45, 91
2, 32160, Note_on_c, 0, 62, 103
2, 32160, Control_c, 0, 64, 0
2, 32206, Note_on_c, 0, 67, 0
2, 32206, Note_on_c, 0, 62, 0
2, 32208, Note_on_c, 0, 54, 110
2, 32254, Note_on_c, 0, 33, 0
2, 32254, Note_on_c, 0, 60, 0
2, 32254, Note_on_c, 0, 45, 0
2, 32254, Note_on_c, 0, 54, 0
2, 32256, Note_on_c, 0, 91, 122
2, 32256, Note_on_c, 0, 31, 91
2, 32256, Note_on_c, 0, 43, 87
2, 32256, Note_on_c, 0, 87, 127
2, 32256, Control_c, 0, 64, 127
2, 32302, Note_on_c, 0, 91, 0
2, 32302, Note_on_c, 0, 87, 0
2, 32304, Note_on_c, 0, 86, 110
2, 32350, Note_on_c, 0, 31, 0
2, 32350, Note_on_c, 0, 43, 0
2, 32350, Note_on_c, 0, 86, 0
2, 32352, Note_on_c, 0, 50, 96
2, 32352, Note_on_c, 0, 82, 109
2, 32352, Note_on_c, 0, 38, 89
2, 32398, Note_on_c, 0, 82, 0
2, 32400, Note_on_c, 0, 79, 101
2, 32446, Note_on_c, 0, 50, 0
2, 32446, Note_on_c, 0, 38, 0
2, 32446, Note_on_c, 0, 79, 0
2, 32448, Note_on_c, 0, 57, 99
2, 32448, Control_c, 0, 64, 0
2, 32448, Note_on_c, 0, 79, 104
2, 32448, Note_on_c, 0, 75, 101
2, 32448, Note_on_c, 0, 45, 100
2, 32494, Note_on_c, 0, 79, 0
2, 32494, Note_on_c, 0, 75, 0
2, 32496, Note_on_c, 0, 74, 105
2, 32542, Note_on_c, 0, 57, 0
2, 32542, Note_on_c, 0, 45, 0
2, 32542, Note_on_c, 0, 74, 0
2, 32544, Note_on_c, 0, 58, 109
2, 32544, Note_on_c, 0, 70, 106
2, 32544, Note_on_c, 0, 46, 110
2, 32590, Note_on_c, 0, 70, 0
2, 32592, Note_on_c, 0, 67, 102
2, 32638, Note_on_c, 0, 67, 0
2, 32640, Note_on_c, 0, 67, 100
2, 32640, Note_on_c, 0, 63, 104
2, 32686, Note_on_c, 0, 67, 0
2, 32686, Note_on_c, 0, 63, 0
2, 32688, Note_on_c, 0, 62, 94
2, 32734, Note_on_c, 0, 62, 0
2, 32736, Note_on_c, 0, 58, 95
2, 32782, Note_on_c, 0, 58, 0
2, 32784, Note_on_c, 0, 55, 91
2, 32800, Note_on_c, 0, 46, 0
2, 32800, Note_on_c, 0, 58, 0
2, 32830, Note_on_c, 0, 55, 0
2, 32832, Note_on_c, 0, 54, 92
2, 32832, Note_on_c, 0, 51, 95
2, 32832, Control_c, 0, 64, 127
2, 32878, Note_on_c, 0, 54, 0
2, 32880, Note_on_c, 0, 51, 0
2, 32880, Note_on_c, 0, 57, 93
2, 32880, Note_on_c, 0, 66, 92
2, 32880, Note_on_c, 0, 48, 89
2, 32926, Note_on_c, 0, 57, 0
2, 32926, Note_on_c, 0, 66, 0
2, 32928, Note_on_c, 0, 48, 0
2, 32928, Note_on_c, 0, 43, 92
2, 32928, Note_on_c, 0, 57, 91
2, 32974, Note_on_c, 0, 57, 0
2, 32976, Note_on_c, 0, 43, 0
2, 32976, Note_on_c, 0, 54, 97
2, 32976, Note_on_c, 0, 69, 100
2, 32976, Note_on_c, 0, 60, 94
2, 33022, Note_on_c, 0, 69, 0
2, 33022, Note_on_c, 0, 60, 0
2, 33024, Note_on_c, 0, 54, 0
2, 33024, Note_on_c, 0, 60, 103
2, 33024, Note_on_c, 0, 51, 96
2, 33070, Note_on_c, 0, 60, 0
2, 33072, Note_on_c, 0, 51, 0
2, 33072, Note_on_c, 0, 43, 102
2, 33072, Note_on_c, 0, 72, 102
2, 33072, Note_on_c, 0, 63, 100
2, 33118, Note_on_c, 0, 72, 0
2, 33118, Note_on_c, 0, 63, 0
2, 33120, Note_on_c, 0, 43, 0
2, 33120, Note_on_c, 0, 57, 101
2, 33120, Note_on_c, 0, 63, 107
2, 33166, Note_on_c, 0, 63, 0
2, 33168, Note_on_c, 0, 57, 0
2, 33168, Note_on_c, 0, 66, 115
2, 33168, Note_on_c, 0, 75, 112
2, 33168, Note_on_c, 0, 51, 108
2, 33214, Note_on_c, 0, 66, 0
2, 33214, Note_on_c, 0, 75, 0
2, 33216, Note_on_c, 0, 51, 0
2, 33216, Note_on_c, 0, 66, 109
2, 33216, Note_on_c, 0, 43, 106
2, 33262, Note_on_c, 0, 66, 0
2, 33264, Note_on_c, 0, 43, 0
2, 33264, Note_on_c, 0, 60, 107
2, 33264, Note_on_c, 0, 69, 116
2, 33264, Note_on_c, 0, 78, 115
2, 33310, Note_on_c, 0, 60, 0
2, 33310, Note_on_c, 0, 69, 0
2, 33310, Note_on_c, 0, 78, 0
2, 33312, Note_on_c, 0, 69, 117
2, 33358, Note_on_c, 0, 69, 0
2, 33360, Note_on_c, 0, 72, 125
2, 33360, Control_c, 0, 64, 0
2, 33360, Note_on_c, 0, 81, 120
2, 33406, Note_on_c, 0, 72, 0
2, 33406, Note_on_c, 0, 81, 0
2, 33408, Control_c, 0, 64, 127
2, 33408, Note_on_c, 0, 43, 96
2, 33408, Note_on_c, 0, 31, 96
2, 33408, Note_on_c, 0, 87, 126
2, 33408, Note_on_c, 0, 91, 125
2, 33454, Note_on_c, 0, 87, 0
2, 33454, Note_on_c, 0, 91, 0
2, 33456, Note_on_c, 0, 86, 105
2, 33502, Note_on_c, 0, 43, 0
2, 33502, Note_on_c, 0, 31, 0
2, 33502, Note_on_c, 0, 86, 0
2, 33504, Note_on_c, 0, 82, 108
2, 33504, Note_on_c, 0, 50, 94
2, 33504, Note_on_c, 0, 38, 87
2, 33550, Note_on_c, 0, 82, 0
2, 33552, Note_on_c, 0, 79, 102
2, 33598, Note_on_c, 0, 50, 0
2, 33598, Note_on_c, 0, 38, 0
2, 33598, Note_on_c, 0, 79, 0
2, 33600, Note_on_c, 0, 45, 95
2, 33600, Note_on_c, 0, 57, 98
2, 33600, Note_on_c, 0, 79, 110
2, 33600, Note_on_c, 0, 75, 109
2, 33600, Control_c, 0, 64, 0
2, 33646, Note_on_c, 0, 79, 0
2, 33646, Note_on_c, 0, 75, 0
2, 33648, Note_on_c, 0, 74, 109
2, 33694, Note_on_c, 0, 45, 0
2, 33694, Note_on_c, 0, 57, 0
2, 33694, Note_on_c, 0, 74, 0
2, 33696, Note_on_c, 0, 70, 109
2, 33696, Note_on_c, 0, 58, 111
2, 33696, Note_on_c, 0, 46, 104
2, 33742, Note_on_c, 0, 70, 0
2, 33744, Note_on_c, 0, 67, 97
2, 33790, Note_on_c, 0, 67, 0
2, 33792, Note_on_c, 0, 63, 101
2, 33792, Note_on_c, 0, 67, 101
2, 33838, Note_on_c, 0, 63, 0
2, 33838, Note_on_c, 0, 67, 0
2, 33840, Note_on_c, 0, 62, 99
2, 33886, Note_on_c, 0, 62, 0
2, 33888, Note_on_c, 0, 58, 91
2, 33934, Note_on_c, 0, 58, 0
2, 33936, Note_on_c, 0, 55, 90
2, 33952, Note_on_c, 0, 46, 0
2, 33952, Note_on_c, 0, 58, 0
2, 33982, Note_on_c, 0, 55, 0
2, 33984, Note_on_c, 0, 57, 92
2, 33984, Note_on_c, 0, 54, 93
2, 33984, Control_c, 0, 64, 127
2, 34030, Note_on_c, 0, 57, 0
2, 34032, Note_on_c, 0, 54, 0
2, 34032, Note_on_c, 0, 51, 91
2, 34032, Note_on_c, 0, 60, 96
2, 34032, Note_on_c, 0, 69, 94
2, 34078, Note_on_c, 0, 60, 0
2, 34078, Note_on_c, 0, 69, 0
2, 34080, Note_on_c, 0, 51, 0
2, 34080, Note_on_c, 0, 43, 94
2, 34080, Note_on_c, 0, 60, 94
2, 34126, Note_on_c, 0, 60, 0
2, 34128, Note_on_c, 0, 43, 0
2, 34128, Note_on_c, 0, 63, 100
2, 34128, Note_on_c, 0, 72, 95
2, 34128, Note_on_c, 0, 57, 96
2, 34174, Note_on_c, 0, 63, 0
2, 34174, Note_on_c, 0, 72, 0
2, 34176, Note_on_c, 0, 57, 0
2, 34176, Note_on_c, 0, 51, 98
2, 34176, Note_on_c, 0, 63, 100
2, 34222, Note_on_c, 0, 63, 0
2, 34224, Note_on_c, 0, 51, 0
2, 34224, Note_on_c, 0, 43, 103
2, 34224, Note_on_c, 0, 75, 103
2, 34224, Note_on_c, 0, 66, 102
2, 34270, Note_on_c, 0, 75, 0
2, 34270, Note_on_c, 0, 66, 0
2, 34272, Note_on_c, 0, 43, 0
2, 34272, Note_on_c, 0, 60, 107
2, 34272, Note_on_c, 0, 67, 103
2, 34318, Note_on_c, 0, 67, 0
2, 34320, Note_on_c, 0, 60, 0
2, 34320, Note_on_c, 0, 78, 113
2, 34320, Note_on_c, 0, 69, 106
2, 34320, Note_on_c, 0, 51, 109
2, 34366, Note_on_c, 0, 78, 0
2, 34366, Note_on_c, 0, 69, 0
2, 34368, Note_on_c, 0, 51, 0
2, 34368, Note_on_c, 0, 43, 106
2, 34368, Note_on_c, 0, 69, 117
2, 34414, Note_on_c, 0, 69, 0
2, 34416, Note_on_c, 0, 43, 0
2, 34416, Note_on_c, 0, 72, 114
2, 34416, Note_on_c, 0, 81, 120
2, 34416, Note_on_c, 0, 63, 105
2, 34462, Note_on_c, 0, 72, 0
2, 34462, Note_on_c, 0, 81, 0
2, 34462, Note_on_c, 0, 63, 0
2, 34464, Note_on_c, 0, 72, 123
2, 34510, Note_on_c, 0, 72, 0
2, 34512, Note_on_c, 0, 75, 127
2, 34512, Note_on_c, 0, 84, 127
2, 34512, Control_c, 0, 64, 0
2, 34558, Note_on_c, 0, 75, 0
2, 34558, Note_on_c, 0, 84, 0
2, 34560, Note_on_c, 0, 98, 127
2, 34560, Note_on_c, 0, 91, 127
2, 34560, Control_c, 0, 64, 127
2, 34560, Note_on_c, 0, 43, 96
2, 34560, Note_on_c, 0, 31, 91
2, 34606, Note_on_c, 0, 98, 0
2, 34606, Note_on_c, 0, 91, 0
2, 34608, Note_on_c, 0, 94, 112
2, 34654, Note_on_c, 0, 94, 0
2, 34656, Note_on_c, 0, 43, 0
2, 34656, Note_on_c, 0, 31, 0
2, 34656, Note_on_c, 0, 91, 103
2, 34656, Note_on_c, 0, 50, 91
2, 34656, Note_on_c, 0, 38, 87
2, 34702, Note_on_c, 0, 91, 0
2, 34704, Note_on_c, 0, 86, 109
2, 34750, Note_on_c, 0, 86, 0
2, 34752, Note_on_c, 0, 50, 0
2, 34752, Note_on_c, 0, 38, 0
2, 34752, Note_on_c, 0, 42, 93
2, 34752, Control_c, 0, 64, 0
2, 34752, Note_on_c, 0, 94, 104
2, 34752, Note_on_c, 0, 86, 107
2, 34752, Note_on_c, 0, 54, 95
2, 34798, Note_on_c, 0, 94, 0
2, 34798, Note_on_c, 0, 86, 0
2, 34800, Note_on_c, 0, 91, 107
2, 34846, Note_on_c, 0, 91, 0
2, 34848, Note_on_c, 0, 42, 0
2, 34848, Note_on_c, 0, 54, 0
2, 34848, Note_on_c, 0, 57, 90
2, 34848, Note_on_c, 0, 86, 104
2, 34848, Control_c, 0, 64, 127
2, 34848, Note_on_c, 0, 45, 89
2, 34894, Note_on_c, 0, 86, 0
2, 34896, Note_on_c, 0, 82, 97
2, 34942, Note_on_c, 0, 82, 0
2, 34944, Note_on_c, 0, 57, 0
2, 34944, Note_on_c, 0, 45, 0
2, 34944, Note_on_c, 0, 43, 96
2, 34944, Note_on_c, 0, 82, 100
2, 34944, Note_on_c, 0, 91, 105
2, 34944, Note_on_c, 0, 55, 93
2, 34990, Note_on_c, 0, 82, 0
2, 34990, Note_on_c, 0, 91, 0
2, 34992, Note_on_c, 0, 86, 96
2, 35038, Note_on_c, 0, 86, 0
2, 35040, Note_on_c, 0, 43, 0
2, 35040, Note_on_c, 0, 55, 0
2, 35040, Note_on_c, 0, 45, 103
2, 35040, Control_c, 0, 64, 0
2, 35040, Note_on_c, 0, 57, 97
2, 35040, Note_on_c, 0, 82, 99
2, 35086, Note_on_c, 0, 82, 0
2, 35088, Note_on_c, 0, 79, 99
2, 35134, Note_on_c, 0, 79, 0
2, 35136, Note_on_c, 0, 45, 0
2, 35136, Note_on_c, 0, 57, 0
2, 35136, Note_on_c, 0, 48, 102
2, 35136, Control_c, 0, 64, 127
2, 35136, Note_on_c, 0, 60, 104
2, 35136, Note_on_c, 0, 79, 97
2, 35136, Note_on_c, 0, 86, 91
2, 35182, Note_on_c, 0, 79, 0
2, 35182, Note_on_c, 0, 86, 0
2, 35184, Note_on_c, 0, 82, 96
2, 35230, Note_on_c, 0, 82, 0
2, 35232, Note_on_c, 0, 48, 0
2, 35232, Note_on_c, 0, 60, 0
2, 35232, Note_on_c, 0, 58, 99
2, 35232, Note_on_c, 0, 46, 104
2, 35232, Note_on_c, 0, 79, 97
2, 35278, Note_on_c, 0, 79, 0
2, 35280, Note_on_c, 0, 74, 89
2, 35326, Note_on_c, 0, 74, 0
2, 35328, Note_on_c, 0, 58, 0
2, 35328, Note_on_c, 0, 46, 0
2, 35328, Note_on_c, 0, 49, 108
2, 35328, Note_on_c, 0, 61, 106
2, 35328, Note_on_c, 0, 82, 87
2, 35328, Note_on_c, 0, 74, 94
2, 35328, Control_c, 0, 64, 0
2, 35374, Note_on_c, 0, 82, 0
2, 35374, Note_on_c, 0, 74, 0
2, 35376, Note_on_c, 0, 79, 96
2, 35422, Note_on_c, 0, 79, 0
2, 35424, Note_on_c, 0, 49, 0
2, 35424, Note_on_c, 0, 61, 0
2, 35424, Note_on_c, 0, 51, 102
2, 35424, Note_on_c, 0, 63, 109
2, 35424, Control_c, 0, 64, 127
2, 35424, Note_on_c, 0, 74, 93
2, 35470, Note_on_c, 0, 74, 0
2, 35472, Note_on_c, 0, 70, 96
2, 35518, Note_on_c, 0, 70, 0
2, 35520, Note_on_c, 0, 51, 0
2, 35520, Note_on_c, 0, 63, 0
2, 35520, Note_on_c, 0, 79, 95
2, 35520, Note_on_c, 0, 62, 105
2, 35520, Note_on_c, 0, 50, 106
2, 35520, Note_on_c, 0, 70, 87
2, 35566, Note_on_c, 0, 79, 0
2, 35566, Note_on_c, 0, 70, 0
2, 35568, Note_on_c, 0, 74, 92
2, 35614, Note_on_c, 0, 62, 0
2, 35614, Note_on_c, 0, 50, 0
2, 35614, Note_on_c, 0, 74, 0
2, 35616, Note_on_c, 0, 70, 89
2, 35616, Control_c, 0, 64, 0
2, 35662, Note_on_c, 0, 70, 0
2, 35664, Note_on_c, 0, 67, 87
2, 35710, Note_on_c, 0, 67, 0
2, 35712, Control_c, 0, 64, 127
2, 35712, Note_on_c, 0, 67, 96
2, 35712, Note_on_c, 0, 28, 93
2, 35712, Note_on_c, 0, 74, 93
2, 35712, Note_on_c, 0, 40, 91
2, 35758, Note_on_c, 0, 67, 0
2, 35758, Note_on_c, 0, 74, 0
2, 35760, Note_on_c, 0, 70, 89
2, 35806, Note_on_c, 0, 28, 0
2, 35806, Note_on_c, 0, 40, 0
2, 35806, Note_on_c, 0, 70, 0
2, 35808, Note_on_c, 0, 31, 92
2, 35808, Note_on_c, 0, 43, 95
2, 35808, Note_on_c, 0, 67, 97
2, 35854, Note_on_c, 0, 67, 0
2, 35856, Note_on_c, 0, 62, 87
2, 35902, Note_on_c, 0, 31, 0
2, 35902, Note_on_c, 0, 43, 0
2, 35902, Note_on_c, 0, 62, 0
2, 35904, Note_on_c, 0, 62, 97
2, 35904, Control_c, 0, 64, 0
2, 35904, Note_on_c, 0, 45, 104
2, 35904, Note_on_c, 0, 70, 93
2, 35904, Note_on_c, 0, 33, 101
2, 35950, Note_on_c, 0, 62, 0
2, 35950, Note_on_c, 0, 70, 0
2, 35952, Note_on_c, 0, 67, 96
2, 35998, Note_on_c, 0, 45, 0
2, 35998, Note_on_c, 0, 33, 0
2, 35998, Note_on_c, 0, 67, 0
2, 36000, Note_on_c, 0, 62, 97
2, 36000, Note_on_c, 0, 46, 106
2, 36000, Control_c, 0, 64, 127
2, 36000, Note_on_c, 0, 34, 110
2, 36046, Note_on_c, 0, 62, 0
2, 36048, Note_on_c, 0, 58, 87
2, 36094, Note_on_c, 0, 58, 0
2, 36096, Note_on_c, 0, 62, 94
2, 36096, Note_on_c, 0, 67, 90
2, 36142, Note_on_c, 0, 62, 0
2, 36142, Note_on_c, 0, 67, 0
2, 36144, Note_on_c, 0, 64, 89
2, 36190, Note_on_c, 0, 64, 0
2, 36192, Control_c, 0, 64, 0
2, 36192, Note_on_c, 0, 62, 91
2, 36238, Note_on_c, 0, 62, 0
2, 36240, Note_on_c, 0, 55, 96
2, 36256, Note_on_c, 0, 46, 0
2, 36256, Note_on_c, 0, 34, 0
2, 36286, Note_on_c, 0, 55, 0
2, 36288, Note_on_c, 0, 28, 88
2, 36288, Note_on_c, 0, 62, 91
2, 36288, Note_on_c, 0, 40, 88
2, 36288, Note_on_c, 0, 70, 96
2, 36288, Control_c, 0, 64, 127
2, 36334, Note_on_c, 0, 62, 0
2, 36334, Note_on_c, 0, 70, 0
2, 36336, Note_on_c, 0, 67, 97
2, 36382, Note_on_c, 0, 28, 0
2, 36382, Note_on_c, 0, 40, 0
2, 36382, Note_on_c, 0, 67, 0
2, 36384, Note_on_c, 0, 31, 93
2, 36384, Note_on_c, 0, 62, 90
2, 36384, Note_on_c, 0, 43, 96
2, 36430, Note_on_c, 0, 62, 0
2, 36432, Note_on_c, 0, 58, 88
2, 36478, Note_on_c, 0, 31, 0
2, 36478, Note_on_c, 0, 43, 0
2, 36478, Note_on_c, 0, 58, 0
2, 36480, Note_on_c, 0, 62, 95
2, 36480, Note_on_c, 0, 33, 102
2, 36480, Note_on_c, 0, 67, 94
2, 36480, Control_c, 0, 64, 0
2, 36480, Note_on_c, 0, 45, 100
2, 36526, Note_on_c, 0, 62, 0
2, 36526, Note_on_c, 0, 67, 0
2, 36528, Note_on_c, 0, 64, 89
2, 36574, Note_on_c, 0, 33, 0
2, 36574, Note_on_c, 0, 45, 0
2, 36574, Note_on_c, 0, 64, 0
2, 36576, Note_on_c, 0, 46, 110
2, 36576, Note_on_c, 0, 34, 105
2, 36576, Control_c, 0, 64, 127
2, 36576, Note_on_c, 0, 62, 88
2, 36622, Note_on_c, 0, 62, 0
2, 36624, Note_on_c, 0, 55, 93
2, 36670, Note_on_c, 0, 55, 0
2, 36672, Note_on_c, 0, 62, 95
2, 36672, Note_on_c, 0, 67, 91
2, 36718, Note_on_c, 0, 62, 0
2, 36718, Note_on_c, 0, 67, 0
2, 36720, Note_on_c, 0, 64, 87
2, 36766, Note_on_c, 0, 64, 0
2, 36768, Note_on_c, 0, 62, 95
2, 36768, Control_c, 0, 64, 0
2, 36814, Note_on_c, 0, 62, 0
2, 36816, Note_on_c, 0, 55, 88
2, 36832, Note_on_c, 0, 46, 0
2, 36832, Note_on_c, 0, 34, 0
2, 36862, Note_on_c, 0, 55, 0
2, 36864, Note_on_c, 0, 45, 71
2, 36864, Note_on_c, 0, 69, 94
2, 36864, Note_on_c, 0, 57, 94
2, 36864, Note_on_c, 0, 64, 96
2, 36864, Note_on_c, 0, 55, 94
2, 36864, Note_on_c, 0, 61, 93
2, 36864, Control_c, 0, 64, 127
2, 36864, Note_on_c, 0, 33, 72
2, 36958, Note_on_c, 0, 45, 0
2, 36958, Note_on_c, 0, 33, 0
2, 36960, Note_on_c, 0, 44, 79
2, 37008, Note_on_c, 0, 44, 0
2, 37008, Note_on_c, 0, 45, 75
2, 37056, Note_on_c, 0, 45, 0
2, 37056, Note_on_c, 0, 47, 74
2, 37104, Note_on_c, 0, 47, 0
2, 37104, Note_on_c, 0, 49, 80
2, 37120, Note_on_c, 0, 69, 0
2, 37120, Note_on_c, 0, 57, 0
2, 37120, Note_on_c, 0, 64, 0
2, 37120, Note_on_c, 0, 55, 0
2, 37120, Note_on_c, 0, 61, 0
2, 37152, Note_on_c, 0, 49, 0
2, 37152, Note_on_c, 0, 69, 91
2, 37152, Note_on_c, 0, 50, 73
2, 37152, Note_on_c, 0, 65, 75
2, 37152, Note_on_c, 0, 57, 90
2, 37152, Note_on_c, 0, 62, 76
2, 37200, Note_on_c, 0, 50, 0
2, 37200, Note_on_c, 0, 52, 74
2, 37248, Note_on_c, 0, 52, 0
2, 37248, Note_on_c, 0, 53, 76
2, 37294, Note_on_c, 0, 69, 0
2, 37294, Note_on_c, 0, 57, 0
2, 37296, Note_on_c, 0, 53, 0
2, 37296, Note_on_c, 0, 69, 92
2, 37296, Note_on_c, 0, 52, 73
2, 37296, Note_on_c, 0, 57, 96
2, 37342, Note_on_c, 0, 69, 0
2, 37342, Note_on_c, 0, 57, 0
2, 37344, Note_on_c, 0, 52, 0
2, 37344, Note_on_c, 0, 50, 73
2, 37344, Note_on_c, 0, 57, 93
2, 37344, Control_c, 0, 64, 0
2, 37344, Note_on_c, 0, 69, 88
2, 37392, Note_on_c, 0, 50, 0
2, 37392, Note_on_c, 0, 46, 73
2, 37408, Note_on_c, 0, 65, 0
2, 37408, Note_on_c, 0, 62, 0
2, 37438, Note_on_c, 0, 57, 0
2, 37438, Note_on_c, 0, 69, 0
2, 37438, Note_on_c, 0, 46, 0
2, 37440, Note_on_c, 0, 69, 92
2, 37440, Note_on_c, 0, 64, 91
2, 37440, Note_on_c, 0, 45, 74
2, 37440, Note_on_c, 0, 33, 71
2, 37440, Note_on_c, 0, 55, 92
2, 37440, Note_on_c, 0, 61, 99
2, 37440, Control_c, 0, 64, 127
2, 37440, Note_on_c, 0, 57, 93
2, 37534, Note_on_c, 0, 45, 0
2, 37534, Note_on_c, 0, 33, 0
2, 37536, Note_on_c, 0, 44, 81
2, 37584, Note_on_c, 0, 44, 0
2, 37584, Note_on_c, 0, 45, 72
2, 37632, Note_on_c, 0, 45, 0
2, 37632, Note_on_c, 0, 47, 73
2, 37680, Note_on_c, 0, 47, 0
2, 37680, Note_on_c, 0, 49, 74
2, 37696, Note_on_c, 0, 69, 0
2, 37696, Note_on_c, 0, 64, 0
2, 37696, Note_on_c, 0, 55, 0
2, 37696, Note_on_c, 0, 61, 0
2, 37696, Note_on_c, 0, 57, 0
2, 37728, Note_on_c, 0, 49, 0
2, 37728, Note_on_c, 0, 62, 95
2, 37728, Note_on_c, 0, 69, 95
2, 37728, Note_on_c, 0, 50, 76
2, 37728, Note_on_c, 0, 57, 93
2, 37728, Note_on_c, 0, 65, 100
2, 37776, Note_on_c, 0, 50, 0
2, 37776, Note_on_c, 0, 52, 72
2, 37824, Note_on_c, 0, 52, 0
2, 37824, Note_on_c, 0, 53, 77
2, 37872, Note_on_c, 0, 53, 0
2, 37872, Note_on_c, 0, 52, 72
2, 37888, Note_on_c, 0, 62, 0
2, 37888, Note_on_c, 0, 69, 0
2, 37888, Note_on_c, 0, 57, 0
2, 37888, Note_on_c, 0, 65, 0
2, 37920, Note_on_c, 0, 52, 0
2, 37920, Note_on_c, 0, 65, 103
2, 37920, Note_on_c, 0, 59, 94
2, 37920, Note_on_c, 0, 67, 96
2, 37920, Note_on_c, 0, 50, 78
2, 37920, Note_on_c, 0, 71, 96
2, 37920, Control_c, 0, 64, 0
2, 37968, Note_on_c, 0, 50, 0
2, 37968, Note_on_c, 0, 46, 80
2, 38014, Note_on_c, 0, 65, 0
2, 38014, Note_on_c, 0, 59, 0
2, 38014, Note_on_c, 0, 67, 0
2, 38014, Note_on_c, 0, 71, 0
2, 38014, Note_on_c, 0, 46, 0
2, 38016, Note_on_c, 0, 67, 96
2, 38016, Note_on_c, 0, 48, 71
2, 38016, Control_c, 0, 64, 127
2, 38016, Note_on_c, 0, 36, 73
2, 38016, Note_on_c, 0, 70, 97
2, 38016, Note_on_c, 0, 72, 103
2, 38016, Note_on_c, 0, 60, 96
2, 38016, Note_on_c, 0, 64, 100
2, 38110, Note_on_c, 0, 48, 0
2, 38110, Note_on_c, 0, 36, 0
2, 38112, Note_on_c, 0, 47, 72
2, 38160, Note_on_c, 0, 47, 0
2, 38160, Note_on_c, 0, 48, 74
2, 38208, Note_on_c, 0, 48, 0
2, 38208, Note_on_c, 0, 50, 77
2, 38256, Note_on_c, 0, 50, 0
2, 38256, Note_on_c, 0, 52, 77
2, 38272, Note_on_c, 0, 67, 0
2, 38272, Note_on_c, 0, 70, 0
2, 38272, Note_on_c, 0, 72, 0
2, 38272, Note_on_c, 0, 60, 0
2, 38272, Note_on_c, 0, 64, 0
2, 38304, Note_on_c, 0, 52, 0
2, 38304, Note_on_c, 0, 53, 78
2, 38304, Note_on_c, 0, 68, 74
2, 38304, Note_on_c, 0, 65, 71
2, 38304, Note_on_c, 0, 60, 105
2, 38304, Note_on_c, 0, 72, 108
2, 38352, Note_on_c, 0, 53, 0
2, 38352, Note_on_c, 0, 55, 74
2, 38400, Note_on_c, 0, 55, 0
2, 38400, Note_on_c, 0, 56, 81
2, 38446, Note_on_c, 0, 60, 0
2, 38446, Note_on_c, 0, 72, 0
2, 38448, Note_on_c, 0, 56, 0
2, 38448, Note_on_c, 0, 72, 99
2, 38448, Note_on_c, 0, 55, 77
2, 38448, Note_on_c, 0, 60, 99
2, 38494, Note_on_c, 0, 72, 0
2, 38494, Note_on_c, 0, 60, 0
2, 38496, Note_on_c, 0, 55, 0
2, 38496, Note_on_c, 0, 60, 104
2, 38496, Note_on_c, 0, 53, 74
2, 38496, Control_c, 0, 64, 0
2, 38496, Note_on_c, 0, 72, 109
2, 38544, Note_on_c, 0, 53, 0
2, 38544, Note_on_c, 0, 49, 76
2, 38560, Note_on_c, 0, 68, 0
2, 38560, Note_on_c, 0, 65, 0
2, 38590, Note_on_c, 0, 60, 0
2, 38590, Note_on_c, 0, 72, 0
2, 38590, Note_on_c, 0, 49, 0
2, 38592, Note_on_c, 0, 36, 81
2, 38592, Note_on_c, 0, 48, 78
2, 38592, Note_on_c, 0, 60, 100
2, 38592, Note_on_c, 0, 64, 103
2, 38592, Note_on_c, 0, 67, 105
2, 38592, Note_on_c, 0, 72, 102
2, 38592, Note_on_c, 0, 70, 103
2, 38592, Control_c, 0, 64, 127
2, 38686, Note_on_c, 0, 36, 0
2, 38686, Note_on_c, 0, 48, 0
2, 38688, Note_on_c, 0, 47, 74
2, 38736, Note_on_c, 0, 47, 0
2, 38736, Note_on_c, 0, 48, 75
2, 38784, Note_on_c, 0, 48, 0
2, 38784, Note_on_c, 0, 50, 73
2, 38832, Note_on_c, 0, 50, 0
2, 38832, Note_on_c, 0, 52, 81
2, 38848, Note_on_c, 0, 60, 0
2, 38848, Note_on_c, 0, 64, 0
2, 38848, Note_on_c, 0, 67, 0
2, 38848, Note_on_c, 0, 72, 0
2, 38848, Note_on_c, 0, 70, 0
2, 38880, Note_on_c, 0, 52, 0
2, 38880, Note_on_c, 0, 68, 110
2, 38880, Note_on_c, 0, 65, 103
2, 38880, Note_on_c, 0, 72, 106
2, 38880, Note_on_c, 0, 53, 76
2, 38880, Note_on_c, 0, 60, 109
2, 38928, Note_on_c, 0, 53, 0
2, 38928, Note_on_c, 0, 55, 84
2, 38976, Note_on_c, 0, 55, 0
2, 38976, Note_on_c, 0, 56, 79
2, 39024, Note_on_c, 0, 56, 0
2, 39024, Note_on_c, 0, 55, 78
2, 39040, Note_on_c, 0, 68, 0
2, 39040, Note_on_c, 0, 65, 0
2, 39040, Note_on_c, 0, 72, 0
2, 39040, Note_on_c, 0, 60, 0
2, 39072, Note_on_c, 0, 55, 0
2, 39072, Note_on_c, 0, 68, 113
2, 39072, Control_c, 0, 64, 0
2, 39072, Note_on_c, 0, 74, 112
2, 39072, Note_on_c, 0, 62, 115
2, 39072, Note_on_c, 0, 70, 106
2, 39072, Note_on_c, 0, 53, 81
2, 39120, Note_on_c, 0, 53, 0
2, 39120, Note_on_c, 0, 52, 80
2, 39166, Note_on_c, 0, 68, 0
2, 39166, Note_on_c, 0, 74, 0
2, 39166, Note_on_c, 0, 62, 0
2, 39166, Note_on_c, 0, 70, 0
2, 39166, Note_on_c, 0, 52, 0
2, 39168, Note_on_c, 0, 73, 115
2, 39168, Note_on_c, 0, 75, 115
2, 39168, Note_on_c, 0, 67, 115
2, 39168, Note_on_c, 0, 70, 110
2, 39168, Control_c, 0, 64, 127
2, 39168, Note_on_c, 0, 63, 116
2, 39168, Note_on_c, 0, 39, 80
2, 39168, Note_on_c, 0, 51, 86
2, 39262, Note_on_c, 0, 39, 0
2, 39262, Note_on_c, 0, 51, 0
2, 39264, Note_on_c, 0, 50, 89
2, 39312, Note_on_c, 0, 50, 0
2, 39312, Note_on_c, 0, 51, 88
2, 39360, Note_on_c, 0, 51, 0
2, 39360, Note_on_c, 0, 53, 89
2, 39408, Note_on_c, 0, 53, 0
2, 39408, Note_on_c, 0, 55, 85
2, 39424, Note_on_c, 0, 73, 0
2, 39424, Note_on_c, 0, 75, 0
2, 39424, Note_on_c, 0, 67, 0
2, 39424, Note_on_c, 0, 70, 0
2, 39424, Note_on_c, 0, 63, 0
2, 39456, Note_on_c, 0, 55, 0
2, 39456, Note_on_c, 0, 56, 92
2, 39456, Note_on_c, 0, 75, 117
2, 39456, Note_on_c, 0, 63, 115
2, 39456, Note_on_c, 0, 68, 71
2, 39456, Note_on_c, 0, 71, 70
2, 39504, Note_on_c, 0, 56, 0
2, 39504, Note_on_c, 0, 58, 85
2, 39552, Note_on_c, 0, 58, 0
2, 39552, Note_on_c, 0, 59, 89
2, 39598, Note_on_c, 0, 75, 0
2, 39598, Note_on_c, 0, 63, 0
2, 39600, Note_on_c, 0, 59, 0
2, 39600, Note_on_c, 0, 58, 89
2, 39600, Note_on_c, 0, 63, 112
2, 39600, Note_on_c, 0, 75, 117
2, 39646, Note_on_c, 0, 63, 0
2, 39646, Note_on_c, 0, 75, 0
2, 39648, Note_on_c, 0, 58, 0
2, 39648, Control_c, 0, 64, 0
2, 39648, Note_on_c, 0, 75, 122
2, 39648, Note_on_c, 0, 63, 122
2, 39648, Note_on_c, 0, 56, 97
2, 39696, Note_on_c, 0, 56, 0
2, 39696, Note_on_c, 0, 52, 90
2, 39712, Note_on_c, 0, 68, 0
2, 39712, Note_on_c, 0, 71, 0
2, 39742, Note_on_c, 0, 75, 0
2, 39742, Note_on_c, 0, 63, 0
2, 39742, Note_on_c, 0, 52, 0
2, 39744, Note_on_c, 0, 70, 122
2, 39744, Note_on_c, 0, 73, 118
2, 39744, Note_on_c, 0, 67, 115
2, 39744, Note_on_c, 0, 75, 122
2, 39744, Control_c, 0, 64, 127
2, 39744, Note_on_c, 0, 51, 92
2, 39744, Note_on_c, 0, 39, 93
2, 39744, Note_on_c, 0, 63, 123
2, 39838, Note_on_c, 0, 51, 0
2, 39838, Note_on_c, 0, 39, 0
2, 39840, Note_on_c, 0, 50, 94
2, 39888, Note_on_c, 0, 50, 0
2, 39888, Note_on_c, 0, 51, 99
2, 39936, Note_on_c, 0, 51, 0
2, 39936, Note_on_c, 0, 53, 96
2, 39984, Note_on_c, 0, 53, 0
2, 39984, Note_on_c, 0, 55, 102
2, 40000, Note_on_c, 0, 70, 0
2, 40000, Note_on_c, 0, 73, 0
2, 40000, Note_on_c, 0, 67, 0
2, 40000, Note_on_c, 0, 75, 0
2, 40000, Note_on_c, 0, 63, 0
2, 40032, Note_on_c, 0, 55, 0
2, 40032, Note_on_c, 0, 68, 125
2, 40032, Note_on_c, 0, 63, 118
2, 40032, Note_on_c, 0, 56, 100
2, 40032, Note_on_c, 0, 71, 118
2, 40032, Note_on_c, 0, 75, 117
2, 40080, Note_on_c, 0, 56, 0
2, 40080, Note_on_c, 0, 58, 102
2, 40128, Note_on_c, 0, 58, 0
2, 40128, Note_on_c, 0, 59, 103
2, 40176, Note_on_c, 0, 59, 0
2, 40176, Note_on_c, 0, 58, 109
2, 40192, Note_on_c, 0, 68, 0
2, 40192, Note_on_c, 0, 63, 0
2, 40192, Note_on_c, 0, 71, 0
2, 40192, Note_on_c, 0, 75, 0
2, 40224, Note_on_c, 0, 58, 0
2, 40224, Note_on_c, 0, 56, 104
2, 40224, Note_on_c, 0, 87, 127
2, 40224, Control_c, 0, 64, 0
2, 40224, Note_on_c, 0, 80, 127
2, 40224, Note_on_c, 0, 75, 127
2, 40272, Note_on_c, 0, 56, 0
2, 40272, Note_on_c, 0, 51, 110
2, 40318, Note_on_c, 0, 87, 0
2, 40318, Note_on_c, 0, 80, 0
2, 40318, Note_on_c, 0, 75, 0
2, 40318, Note_on_c, 0, 51, 0
2, 40320, Note_on_c, 0, 87, 127
2, 40320, Note_on_c, 0, 40, 108
2, 40320, Control_c, 0, 64, 127
2, 40320, Note_on_c, 0, 75, 123
2, 40320, Note_on_c, 0, 80, 127
2, 40414, Note_on_c, 0, 40, 0
2, 40464, Note_on_c, 0, 47, 106
2, 40510, Note_on_c, 0, 47, 0
2, 40512, Note_on_c, 0, 51, 103
2, 40558, Note_on_c, 0, 51, 0
2, 40560, Note_on_c, 0, 56, 113
2, 40576, Note_on_c, 0, 87, 0
2, 40576, Note_on_c, 0, 75, 0
2, 40576, Note_on_c, 0, 80, 0
2, 40606, Note_on_c, 0, 56, 0
2, 40608, Note_on_c, 0, 59, 110
2, 40608, Note_on_c, 0, 87, 127
2, 40608, Note_on_c, 0, 92, 122
2, 40608, Note_on_c, 0, 99, 122
2, 40654, Note_on_c, 0, 59, 0
2, 40656, Note_on_c, 0, 56, 113
2, 40702, Note_on_c, 0, 56, 0
2, 40704, Note_on_c, 0, 51, 104
2, 40750, Note_on_c, 0, 51, 0
2, 40752, Note_on_c, 0, 46, 104
2, 40798, Note_on_c, 0, 46, 0
2, 40800, Note_on_c, 0, 63, 104
2, 40848, Control_c, 0, 64, 0
2, 40894, Note_on_c, 0, 63, 0
2, 40896, Note_on_c, 0, 87, 0
2, 40896, Note_on_c, 0, 92, 0
2, 40896, Note_on_c, 0, 99, 0
2, 40896, Note_on_c, 0, 98, 123
2, 40896, Control_c, 0, 64, 127
2, 40896, Note_on_c, 0, 86, 127
2, 40896, Note_on_c, 0, 92, 127
2, 40896, Note_on_c, 0, 40, 105
2, 40990, Note_on_c, 0, 98, 0
2, 40990, Note_on_c, 0, 86, 0
2, 40990, Note_on_c, 0, 92, 0
2, 40990, Note_on_c, 0, 40, 0
2, 40992, Note_on_c, 0, 83, 125
2, 40992, Note_on_c, 0, 86, 125
2, 40992, Note_on_c, 0, 95, 123
2, 41040, Note_on_c, 0, 47, 113
2, 41086, Note_on_c, 0, 83, 0
2, 41086, Note_on_c, 0, 86, 0
2, 41086, Note_on_c, 0, 95, 0
2, 41088, Note_on_c, 0, 47, 0
2, 41088, Note_on_c, 0, 50, 113
2, 41088, Note_on_c, 0, 94, 123
2, 41088, Note_on_c, 0, 86, 127
2, 41088, Note_on_c, 0, 82, 127
2, 41136, Note_on_c, 0, 50, 0
2, 41136, Note_on_c, 0, 56, 111
2, 41182, Note_on_c, 0, 94, 0
2, 41182, Note_on_c, 0, 86, 0
2, 41182, Note_on_c, 0, 82, 0
2, 41184, Note_on_c, 0, 56, 0
2, 41184, Note_on_c, 0, 92, 127
2, 41184, Note_on_c, 0, 86, 123
2, 41184, Note_on_c, 0, 80, 123
2, 41184, Note_on_c, 0, 59, 103
2, 41232, Note_on_c, 0, 59, 0
2, 41232, Note_on_c, 0, 56, 106
2, 41278, Note_on_c, 0, 92, 0
2, 41278, Note_on_c, 0, 86, 0
2, 41278, Note_on_c, 0, 80, 0
2, 41280, Note_on_c, 0, 56, 0
2, 41280, Note_on_c, 0, 50, 112
2, 41280, Note_on_c, 0, 78, 122
2, 41280, Note_on_c, 0, 90, 127
2, 41280, Note_on_c, 0, 86, 126
2, 41328, Note_on_c, 0, 50, 0
2, 41328, Note_on_c, 0, 46, 113
2, 41374, Note_on_c, 0, 78, 0
2, 41374, Note_on_c, 0, 90, 0
2, 41374, Note_on_c, 0, 86, 0
2, 41376, Note_on_c, 0, 46, 0
2, 41376, Note_on_c, 0, 88, 127
2, 41376, Note_on_c, 0, 62, 103
2, 41376, Note_on_c, 0, 76, 127
2, 41376, Note_on_c, 0, 80, 122
2, 41424, Control_c, 0, 64, 0
2, 41470, Note_on_c, 0, 88, 0
2, 41470, Note_on_c, 0, 62, 0
2, 41470, Note_on_c, 0, 76, 0
2, 41470, Note_on_c, 0, 80, 0
2, 41472, Note_on_c, 0, 87, 127
2, 41472, Note_on_c, 0, 39, 88
2, 41472, Note_on_c, 0, 51, 95
2, 41472, Note_on_c, 0, 79, 127
2, 41472, Note_on_c, 0, 75, 127
2, 41472, Control_c, 0, 64, 127
2, 41566, Note_on_c, 0, 39, 0
2, 41566, Note_on_c, 0, 51, 0
2, 41568, Note_on_c, 0, 38, 97
2, 41616, Note_on_c, 0, 38, 0
2, 41616, Note_on_c, 0, 39, 96
2, 41632, Note_on_c, 0, 87, 0
2, 41632, Note_on_c, 0, 79, 0
2, 41632, Note_on_c, 0, 75, 0
2, 41664, Note_on_c, 0, 39, 0
2, 41664, Note_on_c, 0, 41, 88
2, 41712, Note_on_c, 0, 41, 0
2, 41712, Note_on_c, 0, 43, 97
2, 41760, Note_on_c, 0, 43, 0
2, 41760, Note_on_c, 0, 71, 127
2, 41760, Note_on_c, 0, 44, 96
2, 41760, Note_on_c, 0, 75, 127
2, 41760, Note_on_c, 0, 83, 127
2, 41808, Note_on_c, 0, 44, 0
2, 41808, Note_on_c, 0, 46, 91
2, 41856, Note_on_c, 0, 46, 0
2, 41856, Note_on_c, 0, 47, 87
2, 41904, Note_on_c, 0, 47, 0
2, 41904, Note_on_c, 0, 49, 94
2, 41952, Note_on_c, 0, 49, 0
2, 41952, Note_on_c, 0, 51, 96
2, 42000, Note_on_c, 0, 51, 0
2, 42000, Note_on_c, 0, 52, 92
2, 42000, Control_c, 0, 64, 0
2, 42048, Note_on_c, 0, 71, 0
2, 42048, Note_on_c, 0, 75, 0
2, 42048, Note_on_c, 0, 83, 0
2, 42048, Note_on_c, 0, 52, 0
2, 42048, Note_on_c, 0, 70, 125
2, 42048, Note_on_c, 0, 73, 126
2, 42048, Note_on_c, 0, 82, 121
2, 42048, Note_on_c, 0, 39, 92
2, 42048, Control_c, 0, 64, 127
2, 42142, Note_on_c, 0, 39, 0
2, 42144, Note_on_c, 0, 38, 87
2, 42192, Note_on_c, 0, 38, 0
2, 42192, Note_on_c, 0, 39, 97
2, 42240, Note_on_c, 0, 39, 0
2, 42240, Note_on_c, 0, 41, 92
2, 42288, Note_on_c, 0, 41, 0
2, 42288, Note_on_c, 0, 43, 91
2, 42336, Note_on_c, 0, 70, 0
2, 42336, Note_on_c, 0, 73, 0
2, 42336, Note_on_c, 0, 82, 0
2, 42336, Note_on_c, 0, 43, 0
2, 42336, Note_on_c, 0, 44, 94
2, 42336, Note_on_c, 0, 71, 122
2, 42336, Note_on_c, 0, 68, 117
2, 42336, Note_on_c, 0, 80, 120
2, 42384, Note_on_c, 0, 44, 0
2, 42384, Note_on_c, 0, 46, 96
2, 42432, Note_on_c, 0, 46, 0
2, 42432, Note_on_c, 0, 47, 92
2, 42480, Note_on_c, 0, 47, 0
2, 42480, Note_on_c, 0, 49, 91
2, 42528, Note_on_c, 0, 49, 0
2, 42528, Note_on_c, 0, 51, 97
2, 42576, Note_on_c, 0, 51, 0
2, 42576, Note_on_c, 0, 52, 91
2, 42576, Control_c, 0, 64, 0
2, 42624, Note_on_c, 0, 71, 0
2, 42624, Note_on_c, 0, 68, 0
2, 42624, Note_on_c, 0, 80, 0
2, 42624, Note_on_c, 0, 52, 0
2, 42624, Control_c, 0, 64, 127
2, 42624, Note_on_c, 0, 66, 118
2, 42624, Note_on_c, 0, 70, 113
2, 42624, Note_on_c, 0, 78, 120
2, 42624, Note_on_c, 0, 39, 97
2, 42718, Note_on_c, 0, 39, 0
2, 42720, Note_on_c, 0, 38, 89
2, 42768, Note_on_c, 0, 38, 0
2, 42768, Note_on_c, 0, 39, 88
2, 42816, Note_on_c, 0, 39, 0
2, 42816, Note_on_c, 0, 41, 86
2, 42864, Note_on_c, 0, 41, 0
2, 42864, Note_on_c, 0, 43, 95
2, 42912, Note_on_c, 0, 66, 0
2, 42912, Note_on_c, 0, 70, 0
2, 42912, Note_on_c, 0, 78, 0
2, 42912, Note_on_c, 0, 43, 0
2, 42912, Note_on_c, 0, 71, 112
2, 42912, Note_on_c, 0, 68, 117
2, 42912, Note_on_c, 0, 44, 90
2, 42912, Note_on_c, 0, 80, 111
2, 42960, Note_on_c, 0, 44, 0
2, 42960, Note_on_c, 0, 46, 96
2, 43008, Note_on_c, 0, 46, 0
2, 43008, Note_on_c, 0, 47, 95
2, 43056, Note_on_c, 0, 47, 0
2, 43056, Note_on_c, 0, 49, 94
2, 43104, Note_on_c, 0, 49, 0
2, 43104, Note_on_c, 0, 51, 96
2, 43152, Note_on_c, 0, 51, 0
2, 43152, Note_on_c, 0, 52, 91
2, 43152, Control_c, 0, 64, 0
2, 43200, Note_on_c, 0, 71, 0
2, 43200, Note_on_c, 0, 68, 0
2, 43200, Note_on_c, 0, 80, 0
2, 43200, Note_on_c, 0, 52, 0
2, 43200, Note_on_c, 0, 39, 89
2, 43200, Control_c, 0, 64, 127
2, 43200, Note_on_c, 0, 70, 114
2, 43200, Note_on_c, 0, 61, 117
2, 43200, Note_on_c, 0, 73, 117
2, 43294, Note_on_c, 0, 39, 0
2, 43296, Note_on_c, 0, 38, 95
2, 43344, Note_on_c, 0, 38, 0
2, 43344, Note_on_c, 0, 39, 95
2, 43392, Note_on_c, 0, 39, 0
2, 43392, Note_on_c, 0, 41, 86
2, 43440, Note_on_c, 0, 41, 0
2, 43440, Note_on_c, 0, 43, 90
2, 43488, Note_on_c, 0, 70, 0
2, 43488, Note_on_c, 0, 61, 0
2, 43488, Note_on_c, 0, 73, 0
2, 43488, Note_on_c, 0, 43, 0
2, 43488, Note_on_c, 0, 76, 106
2, 43488, Note_on_c, 0, 44, 91
2, 43488, Note_on_c, 0, 69, 111
2, 43488, Note_on_c, 0, 64, 109
2, 43536, Note_on_c, 0, 44, 0
2, 43536, Note_on_c, 0, 46, 90
2, 43584, Note_on_c, 0, 46, 0
2, 43584, Note_on_c, 0, 47, 89
2, 43632, Note_on_c, 0, 47, 0
2, 43632, Note_on_c, 0, 49, 94
2, 43680, Note_on_c, 0, 49, 0
2, 43680, Note_on_c, 0, 51, 93
2, 43728, Note_on_c, 0, 51, 0
2, 43728, Note_on_c, 0, 52, 92
2, 43728, Control_c, 0, 64, 0
2, 43776, Note_on_c, 0, 76, 0
2, 43776, Note_on_c, 0, 69, 0
2, 43776, Note_on_c, 0, 64, 0
2, 43776, Note_on_c, 0, 52, 0
2, 43776, Note_on_c, 0, 39, 90
2, 43776, Control_c, 0, 64, 127
2, 43776, Note_on_c, 0, 75, 108
2, 43776, Note_on_c, 0, 67, 107
2, 43776, Note_on_c, 0, 63, 109
2, 43870, Note_on_c, 0, 39, 0
2, 43872, Note_on_c, 0, 38, 88
2, 43920, Note_on_c, 0, 38, 0
2, 43920, Note_on_c, 0, 39, 88
2, 43968, Note_on_c, 0, 39, 0
2, 43968, Note_on_c, 0, 41, 86
2, 44016, Note_on_c, 0, 41, 0
2, 44016, Note_on_c, 0, 43, 91
2, 44032, Note_on_c, 0, 75, 0
2, 44032, Note_on_c, 0, 67, 0
2, 44032, Note_on_c, 0, 63, 0
2, 44064, Note_on_c, 0, 43, 0
2, 44064, Note_on_c, 0, 44, 93
2, 44064, Note_on_c, 0, 71, 99
2, 44064, Note_on_c, 0, 68, 98
2, 44064, Note_on_c, 0, 63, 98
2, 44112, Note_on_c, 0, 44, 0
2, 44112, Note_on_c, 0, 46, 86
2, 44160, Note_on_c, 0, 46, 0
2, 44160, Note_on_c, 0, 47, 89
2, 44208, Note_on_c, 0, 47, 0
2, 44208, Note_on_c, 0, 49, 88
2, 44256, Note_on_c, 0, 49, 0
2, 44256, Note_on_c, 0, 51, 85
2, 44304, Note_on_c, 0, 51, 0
2, 44304, Note_on_c, 0, 52, 86
2, 44304, Control_c, 0, 64, 0
2, 44352, Note_on_c, 0, 71, 0
2, 44352, Note_on_c, 0, 68, 0
2, 44352, Note_on_c, 0, 63, 0
2, 44352, Note_on_c, 0, 52, 0
2, 44352, Note_on_c, 0, 39, 94
2, 44352, Control_c, 0, 64, 127
2, 44352, Note_on_c, 0, 61, 97
2, 44352, Note_on_c, 0, 70, 104
2, 44446, Note_on_c, 0, 39, 0
2, 44448, Note_on_c, 0, 38, 88
2, 44496, Note_on_c, 0, 38, 0
2, 44496, Note_on_c, 0, 39, 90
2, 44544, Note_on_c, 0, 39, 0
2, 44544, Note_on_c, 0, 41, 87
2, 44592, Note_on_c, 0, 41, 0
2, 44592, Note_on_c, 0, 43, 93
2, 44640, Note_on_c, 0, 61, 0
2, 44640, Note_on_c, 0, 70, 0
2, 44640, Note_on_c, 0, 43, 0
2, 44640, Note_on_c, 0, 44, 89
2, 44640, Note_on_c, 0, 59, 99
2, 44640, Note_on_c, 0, 68, 95
2, 44640, Note_on_c, 0, 63, 95
2, 44688, Note_on_c, 0, 44, 0
2, 44688, Note_on_c, 0, 46, 92
2, 44736, Note_on_c, 0, 46, 0
2, 44736, Note_on_c, 0, 47, 89
2, 44784, Note_on_c, 0, 47, 0
2, 44784, Note_on_c, 0, 49, 92
2, 44832, Note_on_c, 0, 49, 0
2, 44832, Note_on_c, 0, 51, 86
2, 44880, Note_on_c, 0, 51, 0
2, 44880, Note_on_c, 0, 52, 88
2, 44880, Control_c, 0, 64, 0
2, 44928, Note_on_c, 0, 59, 0
2, 44928, Note_on_c, 0, 68, 0
2, 44928, Note_on_c, 0, 63, 0
2, 44928, Note_on_c, 0, 52, 0
2, 44928, Note_on_c, 0, 58, 93
2, 44928, Note_on_c, 0, 66, 90
2, 44928, Control_c, 0, 64, 127
2, 44928, Note_on_c, 0, 61, 95
2, 44928, Note_on_c, 0, 40, 89
2, 45022, Note_on_c, 0, 40, 0
2, 45024, Note_on_c, 0, 38, 90
2, 45072, Note_on_c, 0, 38, 0
2, 45072, Note_on_c, 0, 39, 82
2, 45120, Note_on_c, 0, 39, 0
2, 45120, Note_on_c, 0, 41, 87
2, 45168, Note_on_c, 0, 41, 0
2, 45168, Note_on_c, 0, 43, 89
2, 45216, Note_on_c, 0, 58, 0
2, 45216, Note_on_c, 0, 66, 0
2, 45216, Note_on_c, 0, 61, 0
2, 45216, Note_on_c, 0, 43, 0
2, 45216, Note_on_c, 0, 44, 82
2, 45216, Note_on_c, 0, 63, 94
2, 45216, Note_on_c, 0, 68, 86
2, 45216, Note_on_c, 0, 59, 86
2, 45264, Note_on_c, 0, 44, 0
2, 45264, Note_on_c, 0, 46, 88
2, 45312, Note_on_c, 0, 46, 0
2, 45312, Note_on_c, 0, 47, 86
2, 45360, Note_on_c, 0, 47, 0
2, 45360, Note_on_c, 0, 49, 90
2, 45408, Note_on_c, 0, 49, 0
2, 45408, Note_on_c, 0, 51, 89
2, 45456, Note_on_c, 0, 51, 0
2, 45456, Note_on_c, 0, 52, 92
2, 45456, Control_c, 0, 64, 0
2, 45504, Note_on_c, 0, 63, 0
2, 45504, Note_on_c, 0, 68, 0
2, 45504, Note_on_c, 0, 59, 0
2, 45504, Note_on_c, 0, 52, 0
2, 45504, Note_on_c, 0, 61, 87
2, 45504, Control_c, 0, 64, 127
2, 45504, Note_on_c, 0, 39, 85
2, 45504, Note_on_c, 0, 58, 80
2, 45598, Note_on_c, 0, 39, 0
2, 45600, Note_on_c, 0, 38, 86
2, 45648, Note_on_c, 0, 38, 0
2, 45648, Note_on_c, 0, 39, 90
2, 45696, Note_on_c, 0, 39, 0
2, 45696, Note_on_c, 0, 41, 89
2, 45744, Note_on_c, 0, 41, 0
2, 45744, Note_on_c, 0, 43, 84
2, 45792, Note_on_c, 0, 61, 0
2, 45792, Note_on_c, 0, 58, 0
2, 45792, Note_on_c, 0, 43, 0
2, 45792, Note_on_c, 0, 56, 76
2, 45792, Note_on_c, 0, 64, 83
2, 45792, Note_on_c, 0, 44, 82
2, 45792, Note_on_c, 0, 59, 78
2, 45840, Note_on_c, 0, 44, 0
2, 45840, Note_on_c, 0, 46, 88
2, 45888, Note_on_c, 0, 46, 0
2, 45888, Note_on_c, 0, 47, 82
2, 45936, Note_on_c, 0, 47, 0
2, 45936, Note_on_c, 0, 49, 81
2, 45984, Note_on_c, 0, 49, 0
2, 45984, Note_on_c, 0, 51, 82
2, 46032, Note_on_c, 0, 51, 0
2, 46032, Note_on_c, 0, 52, 75
2, 46032, Control_c, 0, 64, 0
2, 46080, Note_on_c, 0, 56, 0
2, 46080, Note_on_c, 0, 64, 0
2, 46080, Note_on_c, 0, 59, 0
2, 46080, Note_on_c, 0, 52, 0
2, 46080, Control_c, 0, 64, 127
2, 46080, Note_on_c, 0, 39, 74
2, 46080, Note_on_c, 0, 63, 73
2, 46080, Note_on_c, 0, 55, 82
2, 46080, Note_on_c, 0, 58, 77
2, 46240, Note_on_c, 0, 63, 0
2, 46240, Note_on_c, 0, 55, 0
2, 46240, Note_on_c, 0, 58, 0
2, 46272, Note_on_c, 0, 62, 73
2, 46320, Note_on_c, 0, 62, 0
2, 46320, Note_on_c, 0, 63, 73
2, 46336, Note_on_c, 0, 39, 0
2, 46368, Note_on_c, 0, 63, 0
2, 46368, Note_on_c, 0, 59, 68
2, 46368, Note_on_c, 0, 56, 76
2, 46368, Note_on_c, 0, 64, 75
2, 46416, Note_on_c, 0, 64, 0
2, 46416, Note_on_c, 0, 66, 70
2, 46464, Note_on_c, 0, 66, 0
2, 46464, Note_on_c, 0, 68, 71
2, 46512, Note_on_c, 0, 68, 0
2, 46512, Note_on_c, 0, 70, 71
2, 46560, Note_on_c, 0, 70, 0
2, 46560, Note_on_c, 0, 71, 76
2, 46608, Note_on_c, 0, 71, 0
2, 46608, Note_on_c, 0, 64, 77
2, 46608, Control_c, 0, 64, 0
2, 46656, Note_on_c, 0, 59, 0
2, 46656, Note_on_c, 0, 56, 0
2, 46656, Note_on_c, 0, 64, 0
2, 46656, Note_on_c, 0, 55, 68
2, 46656, Note_on_c, 0, 63, 74
2, 46656, Control_c, 0, 64, 127
2, 46656, Note_on_c, 0, 58, 66
2, 46848, Note_on_c, 0, 63, 0
2, 46848, Note_on_c, 0, 62, 72
2, 46896, Note_on_c, 0, 62, 0
2, 46896, Note_on_c, 0, 63, 70
2, 46944, Note_on_c, 0, 55, 0
2, 46944, Note_on_c, 0, 58, 0
2, 46944, Note_on_c, 0, 63, 0
2, 46944, Note_on_c, 0, 64, 73
2, 46944, Note_on_c, 0, 59, 56
2, 46944, Note_on_c, 0, 56, 57
2, 46992, Note_on_c, 0, 64, 0
2, 46992, Note_on_c, 0, 66, 76
2, 47040, Note_on_c, 0, 66, 0
2, 47040, Note_on_c, 0, 68, 73
2, 47088, Note_on_c, 0, 68, 0
2, 47088, Note_on_c, 0, 70, 68
2, 47136, Note_on_c, 0, 70, 0
2, 47136, Note_on_c, 0, 71, 70
2, 47184, Note_on_c, 0, 71, 0
2, 47184, Note_on_c, 0, 64, 74
2, 47184, Control_c, 0, 64, 0
2, 47232, Note_on_c, 0, 59, 0
2, 47232, Note_on_c, 0, 56, 0
2, 47232, Note_on_c, 0, 64, 0
2, 47232, Note_on_c, 0, 58, 52
2, 47232, Note_on_c, 0, 55, 58
2, 47232, Control_c, 0, 64, 127
2, 47232, Note_on_c, 0, 63, 70
2, 47424, Note_on_c, 0, 63, 0
2, 47424, Note_on_c, 0, 61, 71
2, 47472, Note_on_c, 0, 61, 0
2, 47472, Note_on_c, 0, 62, 69
2, 47520, Note_on_c, 0, 58, 0
2, 47520, Note_on_c, 0, 55, 0
2, 47520, Note_on_c, 0, 62, 0
2, 47520, Note_on_c, 0, 57, 51
2, 47520, Note_on_c, 0, 54, 54
2, 47520, Note_on_c, 0, 64, 63
2, 47568, Note_on_c, 0, 64, 0
2, 47568, Note_on_c, 0, 66, 65
2, 47616, Note_on_c, 0, 66, 0
2, 47616, Note_on_c, 0, 67, 60
2, 47664, Note_on_c, 0, 67, 0
2, 47664, Note_on_c, 0, 68, 56
2, 47712, Note_on_c, 0, 68, 0
2, 47712, Note_on_c, 0, 69, 59
2, 47760, Note_on_c, 0, 69, 0
2, 47760, Note_on_c, 0, 62, 61
2, 47760, Control_c, 0, 64, 0
2, 47808, Note_on_c, 0, 57, 0
2, 47808, Note_on_c, 0, 54, 0
2, 47808, Note_on_c, 0, 62, 0
2, 47808, Note_on_c, 0, 61, 63
2, 47808, Control_c, 0, 64, 127
2, 47808, Note_on_c, 0, 53, 39
2, 47808, Note_on_c, 0, 56, 39
2, 48000, Note_on_c, 0, 61, 0
2, 48000, Note_on_c, 0, 59, 56
2, 48048, Note_on_c, 0, 59, 0
2, 48048, Note_on_c, 0, 60, 49
2, 48096, Note_on_c, 0, 53, 0
2, 48096, Note_on_c, 0, 56, 0
2, 48096, Note_on_c, 0, 60, 0
2, 48096, Note_on_c, 0, 62, 53
2, 48096, Note_on_c, 0, 52, 36
2, 48096, Note_on_c, 0, 55, 35
2, 48144, Note_on_c, 0, 62, 0
2, 48144, Note_on_c, 0, 64, 48
2, 48192, Note_on_c, 0, 64, 0
2, 48192, Note_on_c, 0, 65, 45
2, 48240, Note_on_c, 0, 65, 0
2, 48240, Note_on_c, 0, 66, 45
2, 48288, Note_on_c, 0, 52, 0
2, 48288, Note_on_c, 0, 55, 0
2, 48288, Note_on_c, 0, 66, 0
2, 48288, Note_on_c, 0, 67, 47
2, 48288, Note_on_c, 0, 48, 30
2, 48336, Note_on_c, 0, 67, 0
2, 48336, Note_on_c, 0, 58, 44
2, 48336, Control_c, 0, 64, 0
2, 48384, Note_on_c, 0, 48, 0
2, 48384, Note_on_c, 0, 58, 0
2, 48384, Note_on_c, 0, 41, 33
2, 48384, Note_on_c, 0, 57, 48
2, 48544, Note_on_c, 0, 41, 0
2, 48544, Note_on_c, 0, 57, 0
2, 48576, Note_on_c, 0, 60, 26
2, 48576, Note_on_c, 0, 72, 50
2, 48672, Note_on_c, 0, 60, 0
2, 48672, Note_on_c, 0, 72, 0
2, 48672, Note_on_c, 0, 72, 45
2, 48672, Note_on_c, 0, 53, 35
2, 48672, Note_on_c, 0, 60, 27
2, 48672, Note_on_c, 0, 69, 27
2, 48864, Note_on_c, 0, 72, 0
2, 48864, Note_on_c, 0, 53, 0
2, 48864, Note_on_c, 0, 60, 0
2, 48864, Note_on_c, 0, 69, 0
2, 48864, Note_on_c, 0, 60, 29
2, 48864, Note_on_c, 0, 72, 50
2, 48864, Note_on_c, 0, 53, 28
2, 48864, Note_on_c, 0, 69, 26
2, 48960, Note_on_c, 0, 60, 0
2, 48960, Note_on_c, 0, 72, 0
2, 48960, Note_on_c, 0, 53, 0
2, 48960, Note_on_c, 0, 69, 0
2, 48960, Note_on_c, 0, 53, 26
2, 48960, Note_on_c, 0, 70, 26
2, 48960, Note_on_c, 0, 60, 28
2, 48960, Note_on_c, 0, 76, 45
2, 49104, Note_on_c, 0, 76, 0
2, 49104, Note_on_c, 0, 74, 50
2, 49152, Note_on_c, 0, 53, 0
2, 49152, Note_on_c, 0, 70, 0
2, 49152, Note_on_c, 0, 60, 0
2, 49152, Note_on_c, 0, 74, 0
2, 49152, Note_on_c, 0, 72, 47
2, 49152, Note_on_c, 0, 70, 29
2, 49152, Note_on_c, 0, 53, 35
2, 49152, Note_on_c, 0, 60, 35
2, 49248, Note_on_c, 0, 72, 0
2, 49248, Note_on_c, 0, 70, 0
2, 49248, Note_on_c, 0, 53, 0
2, 49248, Note_on_c, 0, 60, 0
2, 49248, Note_on_c, 0, 53, 27
2, 49248, Note_on_c, 0, 77, 48
2, 49248, Note_on_c, 0, 60, 30
2, 49248, Note_on_c, 0, 69, 31
2, 49440, Note_on_c, 0, 53, 0
2, 49440, Note_on_c, 0, 77, 0
2, 49440, Note_on_c, 0, 60, 0
2, 49440, Note_on_c, 0, 69, 0
2, 49440, Note_on_c, 0, 74, 41
2, 49440, Note_on_c, 0, 58, 25
2, 49440, Note_on_c, 0, 65, 25
2, 49536, Note_on_c, 0, 74, 0
2, 49536, Note_on_c, 0, 58, 0
2, 49536, Note_on_c, 0, 65, 0
2, 49536, Note_on_c, 0, 65, 30
2, 49536, Note_on_c, 0, 72, 50
2, 49536, Note_on_c, 0, 57, 35
2, 49728, Note_on_c, 0, 65, 0
2, 49728, Note_on_c, 0, 72, 0
2, 49728, Note_on_c, 0, 57, 0
2, 49728, Note_on_c, 0, 48, 27
2, 49728, Note_on_c, 0, 57, 26
2, 49728, Note_on_c, 0, 69, 46
2, 49728, Note_on_c, 0, 64, 29
2, 49824, Note_on_c, 0, 48, 0
2, 49824, Note_on_c, 0, 57, 0
2, 49824, Note_on_c, 0, 69, 0
2, 49824, Note_on_c, 0, 64, 0
2, 49824, Note_on_c, 0, 65, 44
2, 49824, Note_on_c, 0, 60, 31
2, 49824, Note_on_c, 0, 50, 34
2, 49824, Note_on_c, 0, 57, 33
2, 50016, Note_on_c, 0, 65, 0
2, 50016, Note_on_c, 0, 60, 0
2, 50016, Note_on_c, 0, 50, 0
2, 50016, Note_on_c, 0, 57, 0
2, 50016, Note_on_c, 0, 50, 28
2, 50016, Note_on_c, 0, 65, 35
2, 50016, Note_on_c, 0, 58, 28
2, 50016, Note_on_c, 0, 43, 27
2, 50016, Note_on_c, 0, 67, 43
2, 50112, Note_on_c, 0, 50, 0
2, 50112, Note_on_c, 0, 65, 0
2, 50112, Note_on_c, 0, 58, 0
2, 50112, Note_on_c, 0, 43, 0
2, 50112, Note_on_c, 0, 67, 0
2, 50112, Note_on_c, 0, 64, 35
2, 50112, Note_on_c, 0, 48, 28
2, 50112, Note_on_c, 0, 67, 40
2, 50112, Note_on_c, 0, 58, 31
2, 50304, Note_on_c, 0, 64, 0
2, 50304, Note_on_c, 0, 48, 0
2, 50304, Note_on_c, 0, 58, 0
2, 50304, Note_on_c, 0, 62, 27
2, 50304, Note_on_c, 0, 58, 27
2, 50304, Note_on_c, 0, 48, 33
2, 50400, Note_on_c, 0, 67, 0
2, 50400, Note_on_c, 0, 62, 0
2, 50400, Note_on_c, 0, 58, 0
2, 50400, Note_on_c, 0, 48, 0
2, 50400, Note_on_c, 0, 41, 31
2, 50400, Note_on_c, 0, 69, 44
2, 50400, Note_on_c, 0, 60, 28
2, 50400, Note_on_c, 0, 53, 26
2, 50592, Note_on_c, 0, 41, 0
2, 50592, Note_on_c, 0, 69, 0
2, 50592, Note_on_c, 0, 60, 0
2, 50592, Note_on_c, 0, 53, 0
2, 50592, Note_on_c, 0, 46, 25
2, 50592, Note_on_c, 0, 53, 31
2, 50592, Note_on_c, 0, 62, 29
2, 50592, Note_on_c, 0, 70, 42
2, 50688, Note_on_c, 0, 46, 0
2, 50688, Note_on_c, 0, 53, 0
2, 50688, Note_on_c, 0, 62, 0
2, 50688, Note_on_c, 0, 70, 0
2, 50688, Note_on_c, 0, 48, 34
2, 50688, Note_on_c, 0, 60, 25
2, 50688, Note_on_c, 0, 69, 41
2, 50688, Note_on_c, 0, 53, 32
2, 50880, Note_on_c, 0, 48, 0
2, 50880, Note_on_c, 0, 60, 0
2, 50880, Note_on_c, 0, 69, 0
2, 50880, Note_on_c, 0, 53, 0
2, 50880, Note_on_c, 0, 65, 47
2, 50880, Note_on_c, 0, 62, 31
2, 50880, Note_on_c, 0, 53, 30
2, 50880, Note_on_c, 0, 46, 32
2, 50976, Note_on_c, 0, 65, 0
2, 50976, Note_on_c, 0, 62, 0
2, 50976, Note_on_c, 0, 53, 0
2, 50976, Note_on_c, 0, 46, 0
2, 50976, Note_on_c, 0, 69, 46
2, 50976, Note_on_c, 0, 60, 34
2, 50976, Note_on_c, 0, 53, 30
2, 50976, Note_on_c, 0, 48, 34
2, 51168, Note_on_c, 0, 69, 0
2, 51168, Note_on_c, 0, 60, 0
2, 51168, Note_on_c, 0, 53, 0
2, 51168, Note_on_c, 0, 48, 0
2, 51168, Note_on_c, 0, 58, 25
2, 51168, Note_on_c, 0, 70, 46
2, 51168, Note_on_c, 0, 50, 32
2, 51168, Note_on_c, 0, 53, 35
2, 51264, Note_on_c, 0, 58, 0
2, 51264, Note_on_c, 0, 70, 0
2, 51264, Note_on_c, 0, 50, 0
2, 51264, Note_on_c, 0, 53, 0
2, 51264, Note_on_c, 0, 69, 49
2, 51264, Note_on_c, 0, 60, 27
2, 51264, Note_on_c, 0, 53, 27
2, 51264, Note_on_c, 0, 48, 28
2, 51408, Note_on_c, 0, 69, 0
2, 51408, Note_on_c, 0, 67, 48
2, 51456, Note_on_c, 0, 60, 0
2, 51456, Note_on_c, 0, 53, 0
2, 51456, Note_on_c, 0, 48, 0
2, 51456, Note_on_c, 0, 67, 0
2, 51456, Note_on_c, 0, 46, 28
2, 51456, Note_on_c, 0, 53, 34
2, 51456, Note_on_c, 0, 65, 45
2, 51456, Note_on_c, 0, 62, 28
2, 51552, Note_on_c, 0, 46, 0
2, 51552, Note_on_c, 0, 53, 0
2, 51552, Note_on_c, 0, 65, 0
2, 51552, Note_on_c, 0, 62, 0
2, 51840, Note_on_c, 0, 64, 25
2, 51840, Note_on_c, 0, 72, 42
2, 51840, Note_on_c, 0, 48, 28
2, 51840, Note_on_c, 0, 57, 33
2, 52032, Note_on_c, 0, 64, 0
2, 52032, Note_on_c, 0, 72, 0
2, 52032, Note_on_c, 0, 48, 0
2, 52032, Note_on_c, 0, 57, 0
2, 52032, Note_on_c, 0, 50, 34
2, 52032, Note_on_c, 0, 65, 30
2, 52032, Note_on_c, 0, 69, 47
2, 52032, Note_on_c, 0, 57, 33
2, 52128, Note_on_c, 0, 50, 0
2, 52128, Note_on_c, 0, 65, 0
2, 52128, Note_on_c, 0, 69, 0
2, 52128, Note_on_c, 0, 57, 0
2, 52128, Note_on_c, 0, 57, 29
2, 52128, Note_on_c, 0, 64, 35
2, 52128, Note_on_c, 0, 72, 47
2, 52128, Note_on_c, 0, 52, 32
2, 52320, Note_on_c, 0, 57, 0
2, 52320, Note_on_c, 0, 64, 0
2, 52320, Note_on_c, 0, 72, 0
2, 52320, Note_on_c, 0, 52, 0
2, 52320, Note_on_c, 0, 53, 35
2, 52320, Note_on_c, 0, 74, 41
2, 52320, Note_on_c, 0, 57, 31
2, 52320, Note_on_c, 0, 62, 25
2, 52416, Note_on_c, 0, 53, 0
2, 52416, Note_on_c, 0, 74, 0
2, 52416, Note_on_c, 0, 57, 0
2, 52416, Note_on_c, 0, 62, 0
2, 52416, Note_on_c, 0, 57, 29
2, 52416, Note_on_c, 0, 64, 35
2, 52416, Note_on_c, 0, 52, 35
2, 52416, Note_on_c, 0, 72, 45
2, 52560, Note_on_c, 0, 72, 0
2, 52560, Note_on_c, 0, 71, 41
2, 52608, Note_on_c, 0, 57, 0
2, 52608, Note_on_c, 0, 64, 0
2, 52608, Note_on_c, 0, 52, 0
2, 52608, Note_on_c, 0, 71, 0
2, 52608, Note_on_c, 0, 57, 29
2, 52608, Note_on_c, 0, 65, 25
2, 52608, Note_on_c, 0, 69, 42
2, 52608, Note_on_c, 0, 50, 31
2, 52704, Note_on_c, 0, 57, 0
2, 52704, Note_on_c, 0, 65, 0
2, 52704, Note_on_c, 0, 69, 0
2, 52704, Note_on_c, 0, 50, 0
2, 52704, Note_on_c, 0, 72, 43
2, 52704, Note_on_c, 0, 64, 25
2, 52704, Note_on_c, 0, 52, 32
2, 52704, Note_on_c, 0, 57, 33
2, 52896, Note_on_c, 0, 72, 0
2, 52896, Note_on_c, 0, 64, 0
2, 52896, Note_on_c, 0, 52, 0
2, 52896, Note_on_c, 0, 57, 0
2, 52896, Note_on_c, 0, 57, 34
2, 52896, Note_on_c, 0, 62, 35
2, 52896, Note_on_c, 0, 74, 49
2, 52896, Note_on_c, 0, 53, 34
2, 52992, Note_on_c, 0, 57, 0
2, 52992, Note_on_c, 0, 62, 0
2, 52992, Note_on_c, 0, 74, 0
2, 52992, Note_on_c, 0, 53, 0
2, 52992, Note_on_c, 0, 52, 35
2, 52992, Note_on_c, 0, 64, 30
2, 52992, Note_on_c, 0, 57, 35
2, 52992, Note_on_c, 0, 72, 47
2, 53136, Note_on_c, 0, 72, 0
2, 53136, Note_on_c, 0, 71, 43
2, 53184, Note_on_c, 0, 52, 0
2, 53184, Note_on_c, 0, 64, 0
2, 53184, Note_on_c, 0, 57, 0
2, 53184, Note_on_c, 0, 71, 0
2, 53184, Note_on_c, 0, 69, 44
2, 53184, Note_on_c, 0, 64, 29
2, 53184, Note_on_c, 0, 52, 30
2, 53184, Note_on_c, 0, 60, 30
2, 53280, Note_on_c, 0, 69, 0
2, 53280, Note_on_c, 0, 64, 0
2, 53280, Note_on_c, 0, 52, 0
2, 53280, Note_on_c, 0, 60, 0
2, 53280, Note_on_c, 0, 71, 49
2, 53280, Note_on_c, 0, 64, 32
2, 53280, Note_on_c, 0, 52, 35
2, 53280, Note_on_c, 0, 69, 32
2, 53472, Note_on_c, 0, 64, 0
2, 53472, Note_on_c, 0, 52, 0
2, 53472, Note_on_c, 0, 69, 0
2, 53472, Note_on_c, 0, 52, 25
2, 53472, Note_on_c, 0, 68, 25
2, 53472, Note_on_c, 0, 62, 26
2, 53568, Note_on_c, 0, 71, 0
2, 53568, Note_on_c, 0, 52, 0
2, 53568, Note_on_c, 0, 68, 0
2, 53568, Note_on_c, 0, 62, 0
2, 53568, Note_on_c, 0, 60, 33
2, 53568, Note_on_c, 0, 69, 40
2, 53568, Note_on_c, 0, 64, 34
2, 53568, Note_on_c, 0, 45, 29
2, 53760, Note_on_c, 0, 60, 0
2, 53760, Note_on_c, 0, 64, 0
2, 53760, Note_on_c, 0, 45, 0
2, 53760, Note_on_c, 0, 60, 29
2, 53760, Note_on_c, 0, 64, 31
2, 53760, Note_on_c, 0, 45, 31
2, 53856, Note_on_c, 0, 69, 0
2, 53856, Note_on_c, 0, 60, 0
2, 53856, Note_on_c, 0, 64, 0
2, 53856, Note_on_c, 0, 45, 0
2, 53856, Note_on_c, 0, 63, 60
2, 53856, Note_on_c, 0, 72, 64
2, 53856, Note_on_c, 0, 42, 45
2, 53856, Note_on_c, 0, 69, 56
2, 54048, Note_on_c, 0, 63, 0
2, 54048, Note_on_c, 0, 42, 0
2, 54048, Note_on_c, 0, 42, 44
2, 54048, Note_on_c, 0, 63, 48
2, 54120, Note_on_c, 0, 72, 0
2, 54120, Note_on_c, 0, 69, 0
2, 54120, Note_on_c, 0, 72, 57
2, 54144, Note_on_c, 0, 42, 0
2, 54144, Note_on_c, 0, 63, 0
2, 54144, Note_on_c, 0, 72, 0
2, 54144, Note_on_c, 0, 43, 39
2, 54144, Note_on_c, 0, 67, 39
2, 54144, Note_on_c, 0, 70, 64
2, 54144, Note_on_c, 0, 62, 37
2, 54288, Note_on_c, 0, 43, 0
2, 54288, Note_on_c, 0, 67, 0
2, 54288, Note_on_c, 0, 70, 0
2, 54288, Note_on_c, 0, 62, 0
2, 54288, Note_on_c, 0, 69, 48
2, 54288, Note_on_c, 0, 60, 35
2, 54288, Note_on_c, 0, 66, 34
2, 54288, Note_on_c, 0, 45, 41
2, 54336, Note_on_c, 0, 69, 0
2, 54336, Note_on_c, 0, 60, 0
2, 54336, Note_on_c, 0, 66, 0
2, 54336, Note_on_c, 0, 45, 0
2, 54336, Note_on_c, 0, 62, 35
2, 54336, Note_on_c, 0, 67, 54
2, 54336, Note_on_c, 0, 46, 29
2, 54432, Note_on_c, 0, 62, 0
2, 54432, Note_on_c, 0, 67, 0
2, 54432, Note_on_c, 0, 46, 0
2, 54432, Note_on_c, 0, 64, 30
2, 54432, Note_on_c, 0, 48, 27
2, 54432, Note_on_c, 0, 69, 61
2, 54432, Note_on_c, 0, 58, 25
2, 54624, Note_on_c, 0, 64, 0
2, 54624, Note_on_c, 0, 48, 0
2, 54624, Note_on_c, 0, 58, 0
2, 54624, Note_on_c, 0, 58, 34
2, 54624, Note_on_c, 0, 64, 33
2, 54624, Note_on_c, 0, 48, 26
2, 54624, Note_on_c, 0, 36, 26
2, 54720, Note_on_c, 0, 69, 0
2, 54720, Note_on_c, 0, 58, 0
2, 54720, Note_on_c, 0, 64, 0
2, 54720, Note_on_c, 0, 48, 0
2, 54720, Note_on_c, 0, 36, 0
2, 54720, Note_on_c, 0, 41, 26
2, 54720, Note_on_c, 0, 48, 35
2, 54720, Note_on_c, 0, 57, 29
2, 54720, Note_on_c, 0, 65, 42
2, 54912, Note_on_c, 0, 41, 0
2, 54912, Note_on_c, 0, 48, 0
2, 54912, Note_on_c, 0, 57, 0
2, 54912, Note_on_c, 0, 41, 31
2, 54912, Note_on_c, 0, 57, 35
2, 55008, Note_on_c, 0, 65, 0
2, 55008, Note_on_c, 0, 41, 0
2, 55008, Note_on_c, 0, 57, 0
2, 55008, Note_on_c, 0, 69, 62
2, 55008, Note_on_c, 0, 63, 64
2, 55008, Note_on_c, 0, 72, 57
2, 55008, Note_on_c, 0, 42, 48
2, 55200, Note_on_c, 0, 63, 0
2, 55200, Note_on_c, 0, 42, 0
2, 55200, Note_on_c, 0, 42, 48
2, 55200, Note_on_c, 0, 63, 44
2, 55272, Note_on_c, 0, 72, 0
2, 55272, Note_on_c, 0, 72, 61
2, 55296, Note_on_c, 0, 69, 0
2, 55296, Note_on_c, 0, 42, 0
2, 55296, Note_on_c, 0, 63, 0
2, 55296, Note_on_c, 0, 72, 0
2, 55296, Note_on_c, 0, 43, 45
2, 55296, Note_on_c, 0, 62, 39
2, 55296, Note_on_c, 0, 70, 52
2, 55296, Note_on_c, 0, 67, 44
2, 55440, Note_on_c, 0, 43, 0
2, 55440, Note_on_c, 0, 62, 0
2, 55440, Note_on_c, 0, 70, 0
2, 55440, Note_on_c, 0, 67, 0
2, 55440, Note_on_c, 0, 69, 56
2, 55440, Note_on_c, 0, 66, 36
2, 55440, Note_on_c, 0, 45, 35
2, 55440, Note_on_c, 0, 60, 36
2, 55488, Note_on_c, 0, 69, 0
2, 55488, Note_on_c, 0, 66, 0
2, 55488, Note_on_c, 0, 45, 0
2, 55488, Note_on_c, 0, 60, 0
2, 55488, Note_on_c, 0, 46, 33
2, 55488, Note_on_c, 0, 67, 48
2, 55488, Note_on_c, 0, 62, 38
2, 55584, Note_on_c, 0, 46, 0
2, 55584, Note_on_c, 0, 67, 0
2, 55584, Note_on_c, 0, 62, 0
2, 55584, Note_on_c, 0, 58, 28
2, 55584, Note_on_c, 0, 69, 61
2, 55584, Note_on_c, 0, 64, 33
2, 55584, Note_on_c, 0, 48, 33
2, 55776, Note_on_c, 0, 58, 0
2, 55776, Note_on_c, 0, 64, 0
2, 55776, Note_on_c, 0, 48, 0
2, 55776, Note_on_c, 0, 58, 34
2, 55776, Note_on_c, 0, 48, 28
2, 55776, Note_on_c, 0, 64, 35
2, 55872, Note_on_c, 0, 69, 0
2, 55872, Note_on_c, 0, 58, 0
2, 55872, Note_on_c, 0, 48, 0
2, 55872, Note_on_c, 0, 64, 0
2, 55872, Note_on_c, 0, 63, 50
2, 55872, Note_on_c, 0, 48, 57
2, 55872, Note_on_c, 0, 57, 44
2, 55872, Note_on_c, 0, 66, 46
2, 56016, Note_on_c, 0, 48, 0
2, 56016, Note_on_c, 0, 46, 58
2, 56064, Note_on_c, 0, 46, 0
2, 56064, Note_on_c, 0, 45, 54
2, 56160, Note_on_c, 0, 57, 0
2, 56160, Note_on_c, 0, 45, 0
2, 56160, Note_on_c, 0, 51, 41
2, 56160, Note_on_c, 0, 60, 30
2, 56352, Note_on_c, 0, 51, 0
2, 56352, Note_on_c, 0, 51, 49
2, 56448, Note_on_c, 0, 63, 0
2, 56448, Note_on_c, 0, 66, 0
2, 56448, Note_on_c, 0, 60, 0
2, 56448, Note_on_c, 0, 51, 0
2, 56448, Note_on_c, 0, 63, 48
2, 56448, Note_on_c, 0, 57, 37
2, 56448, Note_on_c, 0, 48, 62
2, 56448, Note_on_c, 0, 66, 46
2, 56592, Note_on_c, 0, 48, 0
2, 56592, Note_on_c, 0, 46, 50
2, 56640, Note_on_c, 0, 46, 0
2, 56640, Note_on_c, 0, 45, 46
2, 56736, Note_on_c, 0, 57, 0
2, 56736, Note_on_c, 0, 45, 0
2, 56736, Note_on_c, 0, 51, 40
2, 56736, Note_on_c, 0, 60, 26
2, 56928, Note_on_c, 0, 51, 0
2, 56928, Note_on_c, 0, 51, 41
2, 57024, Note_on_c, 0, 63, 0
2, 57024, Note_on_c, 0, 66, 0
2, 57024, Note_on_c, 0, 60, 0
2, 57024, Note_on_c, 0, 51, 0
2, 57024, Note_on_c, 0, 48, 47
2, 57024, Note_on_c, 0, 57, 40
2, 57024, Note_on_c, 0, 66, 48
2, 57024, Note_on_c, 0, 63, 41
2, 57168, Note_on_c, 0, 48, 0
2, 57168, Note_on_c, 0, 46, 45
2, 57216, Note_on_c, 0, 46, 0
2, 57216, Note_on_c, 0, 44, 42
2, 57312, Note_on_c, 0, 60, 29
2, 57312, Note_on_c, 0, 58, 42
2, 57504, Note_on_c, 0, 58, 0
2, 57504, Note_on_c, 0, 58, 43
2, 57600, Note_on_c, 0, 57, 0
2, 57600, Note_on_c, 0, 63, 0
2, 57600, Note_on_c, 0, 60, 0
2, 57600, Note_on_c, 0, 58, 0
2, 57600, Note_on_c, 0, 58, 49
2, 57600, Note_on_c, 0, 61, 34
2, 57792, Note_on_c, 0, 66, 0
2, 57792, Note_on_c, 0, 58, 0
2, 57792, Note_on_c, 0, 65, 41
2, 57792, Note_on_c, 0, 56, 46
2, 57888, Note_on_c, 0, 61, 0
2, 57888, Note_on_c, 0, 65, 0
2, 57888, Note_on_c, 0, 56, 0
2, 57888, Note_on_c, 0, 54, 49
2, 57888, Note_on_c, 0, 70, 48
2, 57888, Note_on_c, 0, 63, 27
2, 57888, Note_on_c, 0, 60, 28
2, 58080, Note_on_c, 0, 54, 0
2, 58080, Note_on_c, 0, 70, 0
2, 58080, Note_on_c, 0, 54, 40
2, 58080, Note_on_c, 0, 70, 44
2, 58176, Note_on_c, 0, 63, 0
2, 58176, Note_on_c, 0, 60, 0
2, 58176, Note_on_c, 0, 54, 0
2, 58176, Note_on_c, 0, 70, 0
2, 58176, Note_on_c, 0, 70, 43
2, 58176, Note_on_c, 0, 61, 35
2, 58176, Note_on_c, 0, 54, 49
2, 58368, Note_on_c, 0, 70, 0
2, 58368, Note_on_c, 0, 54, 0
2, 58368, Note_on_c, 0, 68, 47
2, 58368, Note_on_c, 0, 53, 42
2, 58464, Note_on_c, 0, 61, 0
2, 58464, Note_on_c, 0, 68, 0
2, 58464, Note_on_c, 0, 53, 0
2, 58464, Note_on_c, 0, 60, 26
2, 58464, Note_on_c, 0, 58, 47
2, 58464, Note_on_c, 0, 66, 40
2, 58656, Note_on_c, 0, 58, 0
2, 58656, Note_on_c, 0, 66, 0
2, 58656, Note_on_c, 0, 58, 47
2, 58656, Note_on_c, 0, 66, 45
2, 58752, Note_on_c, 0, 60, 0
2, 58752, Note_on_c, 0, 58, 0
2, 58752, Note_on_c, 0, 66, 0
2, 58752, Note_on_c, 0, 66, 46
2, 58752, Note_on_c, 0, 58, 42
2, 58752, Note_on_c, 0, 61, 32
2, 58848, Note_on_c, 0, 44, 0
2, 58944, Note_on_c, 0, 66, 0
2, 58944, Note_on_c, 0, 58, 0
2, 58944, Note_on_c, 0, 56, 48
2, 58944, Note_on_c, 0, 65, 44
2, 59040, Note_on_c, 0, 61, 0
2, 59040, Note_on_c, 0, 56, 0
2, 59040, Note_on_c, 0, 65, 0
2, 59040, Note_on_c, 0, 54, 50
2, 59040, Note_on_c, 0, 70, 44
2, 59040, Note_on_c, 0, 60, 32
2, 59040, Note_on_c, 0, 63, 29
2, 59232, Note_on_c, 0, 54, 0
2, 59232, Note_on_c, 0, 70, 0
2, 59232, Note_on_c, 0, 70, 41
2, 59232, Note_on_c, 0, 54, 50
2, 59328, Note_on_c, 0, 60, 0
2, 59328, Note_on_c, 0, 63, 0
2, 59328, Note_on_c, 0, 70, 0
2, 59328, Note_on_c, 0, 54, 0
2, 59328, Note_on_c, 0, 70, 40
2, 59328, Note_on_c, 0, 62, 27
2, 59328, Note_on_c, 0, 54, 40
2, 59328, Note_on_c, 0, 59, 32
2, 59520, Note_on_c, 0, 70, 0
2, 59520, Note_on_c, 0, 54, 0
2, 59520, Note_on_c, 0, 68, 43
2, 59520, Note_on_c, 0, 53, 42
2, 59616, Note_on_c, 0, 62, 0
2, 59616, Note_on_c, 0, 59, 0
2, 59616, Note_on_c, 0, 68, 0
2, 59616, Note_on_c, 0, 53, 0
2, 59616, Note_on_c, 0, 59, 44
2, 59616, Note_on_c, 0, 62, 30
2, 59808, Note_on_c, 0, 59, 0
2, 59808, Note_on_c, 0, 59, 45
2, 59904, Note_on_c, 0, 59, 0
2, 59904, Note_on_c, 0, 65, 43
2, 59904, Note_on_c, 0, 56, 50
2, 59904, Note_on_c, 0, 71, 43
2, 60048, Note_on_c, 0, 56, 0
2, 60048, Note_on_c, 0, 54, 50
2, 60096, Note_on_c, 0, 54, 0
2, 60096, Note_on_c, 0, 53, 50
2, 60192, Note_on_c, 0, 62, 0
2, 60192, Note_on_c, 0, 65, 0
2, 60192, Note_on_c, 0, 71, 0
2, 60192, Note_on_c, 0, 53, 0
2, 60192, Note_on_c, 0, 68, 45
2, 60192, Note_on_c, 0, 62, 30
2, 60192, Note_on_c, 0, 59, 44
2, 60384, Note_on_c, 0, 59, 0
2, 60384, Note_on_c, 0, 59, 43
2, 60480, Note_on_c, 0, 68, 0
2, 60480, Note_on_c, 0, 62, 0
2, 60480, Note_on_c, 0, 59, 0
2, 60480, Note_on_c, 0, 56, 48
2, 60480, Note_on_c, 0, 71, 50
2, 60480, Note_on_c, 0, 65, 40
2, 60672, Note_on_c, 0, 56, 0
2, 60672, Note_on_c, 0, 49, 42
2, 60768, Note_on_c, 0, 63, 42
2, 60960, Note_on_c, 0, 63, 0
2, 60960, Note_on_c, 0, 63, 45
2, 61056, Note_on_c, 0, 65, 0
2, 61056, Note_on_c, 0, 63, 0
2, 61056, Note_on_c, 0, 63, 50
2, 61056, Note_on_c, 0, 66, 32
2, 61248, Note_on_c, 0, 71, 0
2, 61248, Note_on_c, 0, 63, 0
2, 61248, Note_on_c, 0, 70, 44
2, 61248, Note_on_c, 0, 61, 49
2, 61344, Note_on_c, 0, 66, 0
2, 61344, Note_on_c, 0, 70, 0
2, 61344, Note_on_c, 0, 61, 0
2, 61344, Note_on_c, 0, 75, 44
2, 61344, Note_on_c, 0, 59, 43
2, 61344, Note_on_c, 0, 65, 32
2, 61344, Note_on_c, 0, 68, 35
2, 61536, Note_on_c, 0, 75, 0
2, 61536, Note_on_c, 0, 59, 0
2, 61536, Note_on_c, 0, 75, 47
2, 61536, Note_on_c, 0, 59, 45
2, 61632, Note_on_c, 0, 65, 0
2, 61632, Note_on_c, 0, 68, 0
2, 61632, Note_on_c, 0, 75, 0
2, 61632, Note_on_c, 0, 59, 0
2, 61632, Note_on_c, 0, 59, 45
2, 61632, Note_on_c, 0, 66, 29
2, 61632, Note_on_c, 0, 75, 49
2, 61824, Note_on_c, 0, 59, 0
2, 61824, Note_on_c, 0, 75, 0
2, 61824, Note_on_c, 0, 58, 43
2, 61824, Note_on_c, 0, 73, 46
2, 61920, Note_on_c, 0, 66, 0
2, 61920, Note_on_c, 0, 58, 0
2, 61920, Note_on_c, 0, 73, 0
2, 61920, Note_on_c, 0, 65, 25
2, 61920, Note_on_c, 0, 71, 44
2, 61920, Note_on_c, 0, 63, 42
2, 62112, Note_on_c, 0, 71, 0
2, 62112, Note_on_c, 0, 63, 0
2, 62112, Note_on_c, 0, 63, 47
2, 62112, Note_on_c, 0, 71, 53
2, 62208, Note_on_c, 0, 65, 0
2, 62208, Note_on_c, 0, 63, 0
2, 62208, Note_on_c, 0, 71, 0
2, 62208, Note_on_c, 0, 66, 45
2, 62208, Note_on_c, 0, 71, 55
2, 62208, Note_on_c, 0, 63, 52
2, 62304, Note_on_c, 0, 49, 0
2, 62400, Note_on_c, 0, 71, 0
2, 62400, Note_on_c, 0, 63, 0
2, 62400, Note_on_c, 0, 70, 69
2, 62400, Note_on_c, 0, 61, 56
2, 62496, Note_on_c, 0, 66, 0
2, 62496, Note_on_c, 0, 70, 0
2, 62496, Note_on_c, 0, 61, 0
2, 62496, Note_on_c, 0, 59, 58
2, 62496, Note_on_c, 0, 75, 73
2, 62496, Note_on_c, 0, 65, 62
2, 62496, Note_on_c, 0, 68, 64
2, 62688, Note_on_c, 0, 59, 0
2, 62688, Note_on_c, 0, 75, 0
2, 62688, Note_on_c, 0, 59, 65
2, 62688, Note_on_c, 0, 75, 75
2, 62784, Note_on_c, 0, 65, 0
2, 62784, Note_on_c, 0, 68, 0
2, 62784, Note_on_c, 0, 59, 0
2, 62784, Note_on_c, 0, 75, 0
2, 62784, Note_on_c, 0, 75, 77
2, 62784, Note_on_c, 0, 59, 68
2, 62784, Note_on_c, 0, 67, 71
2, 62784, Note_on_c, 0, 64, 74
2, 62976, Note_on_c, 0, 75, 0
2, 62976, Note_on_c, 0, 59, 0
2, 62976, Note_on_c, 0, 58, 74
2, 62976, Note_on_c, 0, 73, 93
2, 63072, Note_on_c, 0, 67, 0
2, 63072, Note_on_c, 0, 64, 0
2, 63072, Note_on_c, 0, 58, 0
2, 63072, Note_on_c, 0, 73, 0
2, 63072, Note_on_c, 0, 70, 91
2, 63072, Note_on_c, 0, 67, 92
2, 63072, Note_on_c, 0, 73, 93
2, 63072, Note_on_c, 0, 79, 89
2, 63072, Note_on_c, 0, 52, 71
2, 63072, Note_on_c, 0, 64, 71
2, 63216, Note_on_c, 0, 70, 0
2, 63216, Note_on_c, 0, 67, 0
2, 63216, Note_on_c, 0, 73, 0
2, 63216, Note_on_c, 0, 79, 0
2, 63216, Note_on_c, 0, 73, 92
2, 63216, Note_on_c, 0, 68, 96
2, 63216, Note_on_c, 0, 80, 92
2, 63264, Note_on_c, 0, 52, 0
2, 63264, Note_on_c, 0, 64, 0
2, 63264, Note_on_c, 0, 73, 0
2, 63264, Note_on_c, 0, 68, 0
2, 63264, Note_on_c, 0, 80, 0
2, 63264, Note_on_c, 0, 73, 92
2, 63264, Note_on_c, 0, 81, 87
2, 63264, Note_on_c, 0, 69, 90
2, 63264, Note_on_c, 0, 64, 74
2, 63264, Note_on_c, 0, 52, 80
2, 63360, Note_on_c, 0, 73, 0
2, 63360, Note_on_c, 0, 81, 0
2, 63360, Note_on_c, 0, 69, 0
2, 63360, Note_on_c, 0, 64, 0
2, 63360, Note_on_c, 0, 52, 0
2, 63360, Note_on_c, 0, 82, 94
2, 63360, Note_on_c, 0, 79, 95
2, 63360, Note_on_c, 0, 61, 72
2, 63360, Note_on_c, 0, 49, 74
2, 63360, Note_on_c, 0, 70, 91
2, 63360, Note_on_c, 0, 76, 93
2, 63504, Note_on_c, 0, 82, 0
2, 63504, Note_on_c, 0, 79, 0
2, 63504, Note_on_c, 0, 61, 0
2, 63504, Note_on_c, 0, 49, 0
2, 63504, Note_on_c, 0, 70, 0
2, 63504, Note_on_c, 0, 76, 0
2, 63504, Note_on_c, 0, 47, 73
2, 63504, Note_on_c, 0, 71, 93
2, 63504, Note_on_c, 0, 83, 88
2, 63504, Note_on_c, 0, 59, 78
2, 63504, Note_on_c, 0, 76, 89
2, 63504, Note_on_c, 0, 79, 98
2, 63552, Note_on_c, 0, 47, 0
2, 63552, Note_on_c, 0, 71, 0
2, 63552, Note_on_c, 0, 83, 0
2, 63552, Note_on_c, 0, 59, 0
2, 63552, Note_on_c, 0, 76, 0
2, 63552, Note_on_c, 0, 79, 0
2, 63552, Note_on_c, 0, 72, 92
2, 63552, Note_on_c, 0, 84, 91
2, 63552, Note_on_c, 0, 46, 80
2, 63552, Note_on_c, 0, 58, 79
2, 63552, Note_on_c, 0, 79, 94
2, 63552, Note_on_c, 0, 76, 92
2, 63648, Note_on_c, 0, 72, 0
2, 63648, Note_on_c, 0, 84, 0
2, 63648, Note_on_c, 0, 46, 0
2, 63648, Note_on_c, 0, 58, 0
2, 63648, Note_on_c, 0, 79, 0
2, 63648, Note_on_c, 0, 76, 0
2, 63648, Note_on_c, 0, 73, 91
2, 63648, Note_on_c, 0, 85, 98
2, 63648, Note_on_c, 0, 55, 77
2, 63648, Note_on_c, 0, 76, 96
2, 63648, Note_on_c, 0, 67, 80
2, 63648, Note_on_c, 0, 82, 91
2, 63792, Note_on_c, 0, 73, 0
2, 63792, Note_on_c, 0, 85, 0
2, 63792, Note_on_c, 0, 76, 0
2, 63792, Note_on_c, 0, 82, 0
2, 63792, Note_on_c, 0, 86, 94
2, 63792, Note_on_c, 0, 82, 95
2, 63792, Note_on_c, 0, 74, 99
2, 63840, Note_on_c, 0, 55, 0
2, 63840, Note_on_c, 0, 67, 0
2, 63840, Note_on_c, 0, 86, 0
2, 63840, Note_on_c, 0, 82, 0
2, 63840, Note_on_c, 0, 74, 0
2, 63840, Note_on_c, 0, 82, 99
2, 63840, Note_on_c, 0, 87, 98
2, 63840, Note_on_c, 0, 55, 84
2, 63840, Note_on_c, 0, 75, 94
2, 63840, Note_on_c, 0, 67, 75
2, 63936, Note_on_c, 0, 82, 0
2, 63936, Note_on_c, 0, 87, 0
2, 63936, Note_on_c, 0, 55, 0
2, 63936, Note_on_c, 0, 75, 0
2, 63936, Note_on_c, 0, 67, 0
2, 63936, Note_on_c, 0, 52, 82
2, 63936, Note_on_c, 0, 88, 91
2, 63936, Note_on_c, 0, 76, 99
2, 63936, Note_on_c, 0, 85, 96
2, 63936, Note_on_c, 0, 82, 95
2, 63936, Note_on_c, 0, 64, 75
2, 64080, Note_on_c, 0, 52, 0
2, 64080, Note_on_c, 0, 88, 0
2, 64080, Note_on_c, 0, 76, 0
2, 64080, Note_on_c, 0, 85, 0
2, 64080, Note_on_c, 0, 82, 0
2, 64080, Note_on_c, 0, 64, 0
2, 64080, Note_on_c, 0, 62, 79
2, 64080, Note_on_c, 0, 89, 101
2, 64080, Note_on_c, 0, 82, 95
2, 64080, Note_on_c, 0, 50, 78
2, 64080, Note_on_c, 0, 77, 96
2, 64128, Note_on_c, 0, 62, 0
2, 64128, Note_on_c, 0, 89, 0
2, 64128, Note_on_c, 0, 82, 0
2, 64128, Note_on_c, 0, 50, 0
2, 64128, Note_on_c, 0, 77, 0
2, 64128, Note_on_c, 0, 78, 96
2, 64128, Note_on_c, 0, 82, 92
2, 64128, Note_on_c, 0, 90, 100
2, 64128, Note_on_c, 0, 61, 76
2, 64128, Note_on_c, 0, 49, 79
2, 64224, Note_on_c, 0, 78, 0
2, 64224, Note_on_c, 0, 82, 0
2, 64224, Note_on_c, 0, 90, 0
2, 64224, Note_on_c, 0, 61, 0
2, 64224, Note_on_c, 0, 49, 0
2, 64224, Note_on_c, 0, 79, 95
2, 64224, Note_on_c, 0, 61, 86
2, 64224, Note_on_c, 0, 91, 97
2, 64224, Note_on_c, 0, 73, 77
2, 64224, Note_on_c, 0, 88, 100
2, 64224, Note_on_c, 0, 82, 95
2, 64320, Note_on_c, 0, 61, 0
2, 64320, Note_on_c, 0, 73, 0
2, 64368, Note_on_c, 0, 79, 0
2, 64368, Note_on_c, 0, 91, 0
2, 64368, Note_on_c, 0, 88, 0
2, 64368, Note_on_c, 0, 82, 0
2, 64368, Note_on_c, 0, 80, 102
2, 64368, Note_on_c, 0, 92, 96
2, 64368, Note_on_c, 0, 88, 102
2, 64416, Note_on_c, 0, 80, 0
2, 64416, Note_on_c, 0, 92, 0
2, 64416, Note_on_c, 0, 88, 0
2, 64416, Note_on_c, 0, 93, 103
2, 64416, Note_on_c, 0, 43, 86
2, 64416, Note_on_c, 0, 55, 81
2, 64416, Note_on_c, 0, 88, 103
2, 64416, Note_on_c, 0, 81, 97
2, 64512, Note_on_c, 0, 93, 0
2, 64512, Note_on_c, 0, 43, 0
2, 64512, Note_on_c, 0, 55, 0
2, 64512, Note_on_c, 0, 88, 0
2, 64512, Note_on_c, 0, 81, 0
2, 64512, Note_on_c, 0, 55, 89
2, 64512, Note_on_c, 0, 82, 101
2, 64512, Note_on_c, 0, 94, 101
2, 64512, Note_on_c, 0, 87, 96
2, 64512, Note_on_c, 0, 43, 80
2, 64608, Note_on_c, 0, 82, 0
2, 64608, Note_on_c, 0, 94, 0
2, 64608, Note_on_c, 0, 87, 0
2, 64656, Note_on_c, 0, 55, 0
2, 64656, Note_on_c, 0, 43, 0
2, 64656, Note_on_c, 0, 41, 89
2, 64656, Note_on_c, 0, 77, 96
2, 64656, Note_on_c, 0, 65, 103
2, 64656, Note_on_c, 0, 53, 83
2, 64704, Note_on_c, 0, 41, 0
2, 64704, Note_on_c, 0, 77, 0
2, 64704, Note_on_c, 0, 65, 0
2, 64704, Note_on_c, 0, 53, 0
2, 64704, Note_on_c, 0, 63, 100
2, 64704, Note_on_c, 0, 75, 97
2, 64704, Note_on_c, 0, 39, 92
2, 64704, Note_on_c, 0, 51, 89
2, 64800, Note_on_c, 0, 63, 0
2, 64800, Note_on_c, 0, 75, 0
2, 64800, Note_on_c, 0, 39, 0
2, 64800, Note_on_c, 0, 51, 0
2, 64800, Note_on_c, 0, 58, 93
2, 64800, Note_on_c, 0, 46, 88
2, 64800, Note_on_c, 0, 70, 101
2, 64800, Note_on_c, 0, 82, 107
2, 64896, Note_on_c, 0, 70, 0
2, 64896, Note_on_c, 0, 82, 0
2, 64992, Note_on_c, 0, 58, 0
2, 64992, Note_on_c, 0, 46, 0
2, 64992, Note_on_c, 0, 86, 108
2, 64992, Note_on_c, 0, 79, 113
2, 64992, Note_on_c, 0, 91, 106
2, 64992, Note_on_c, 0, 34, 97
2, 64992, Note_on_c, 0, 46, 93
2, 65088, Note_on_c, 0, 86, 0
2, 65088, Note_on_c, 0, 79, 0
2, 65088, Note_on_c, 0, 91, 0
2, 65088, Note_on_c, 0, 89, 103
2, 65088, Note_on_c, 0, 86, 103
2, 65088, Note_on_c, 0, 77, 110
2, 65280, Note_on_c, 0, 34, 0
2, 65280, Note_on_c, 0, 46, 0
2, 65280, Note_on_c, 0, 89, 0
2, 65280, Note_on_c, 0, 86, 0
2, 65280, Note_on_c, 0, 77, 0
2, 65280, Note_on_c, 0, 50, 89
2, 65280, Note_on_c, 0, 38, 91
2, 65280, Note_on_c, 0, 74, 113
2, 65280, Note_on_c, 0, 82, 103
2, 65280, Note_on_c, 0, 86, 108
2, 65376, Note_on_c, 0, 50, 0
2, 65376, Note_on_c, 0, 38, 0
2, 65376, Note_on_c, 0, 74, 0
2, 65376, Note_on_c, 0, 82, 0
2, 65376, Note_on_c, 0, 86, 0
2, 65376, Note_on_c, 0, 74, 103
2, 65376, Note_on_c, 0, 43, 97
2, 65376, Note_on_c, 0, 55, 90
2, 65376, Note_on_c, 0, 82, 105
2, 65376, Note_on_c, 0, 70, 104
2, 65568, Note_on_c, 0, 74, 0
2, 65568, Note_on_c, 0, 43, 0
2, 65568, Note_on_c, 0, 55, 0
2, 65568, Note_on_c, 0, 82, 0
2, 65568, Note_on_c, 0, 70, 0
2, 65568, Note_on_c, 0, 72, 112
2, 65568, Note_on_c, 0, 81, 107
2, 65568, Note_on_c, 0, 41, 93
2, 65568, Note_on_c, 0, 53, 91
2, 65568, Note_on_c, 0, 84, 108
2, 65568, Note_on_c, 0, 77, 106
2, 65664, Note_on_c, 0, 72, 0
2, 65664, Note_on_c, 0, 81, 0
2, 65664, Note_on_c, 0, 41, 0
2, 65664, Note_on_c, 0, 53, 0
2, 65664, Note_on_c, 0, 84, 0
2, 65664, Note_on_c, 0, 77, 0
2, 65664, Note_on_c, 0, 74, 105
2, 65664, Note_on_c, 0, 86, 112
2, 65664, Note_on_c, 0, 34, 90
2, 65664, Note_on_c, 0, 46, 93
2, 65664, Note_on_c, 0, 77, 107
2, 65664, Note_on_c, 0, 82, 103
2, 65808, Note_on_c, 0, 34, 0
2, 65808, Note_on_c, 0, 46, 0
2, 65808, Note_on_c, 0, 45, 90
2, 65808, Note_on_c, 0, 33, 87
2, 65856, Note_on_c, 0, 74, 0
2, 65856, Note_on_c, 0, 86, 0
2, 65856, Note_on_c, 0, 77, 0
2, 65856, Note_on_c, 0, 82, 0
2, 65856, Note_on_c, 0, 45, 0
2, 65856, Note_on_c, 0, 33, 0
2, 65856, Note_on_c, 0, 82, 110
2, 65856, Note_on_c, 0, 74, 110
2, 65856, Note_on_c, 0, 43, 89
2, 65856, Note_on_c, 0, 31, 94
2, 65856, Note_on_c, 0, 70, 113
2, 65952, Note_on_c, 0, 82, 0
2, 65952, Note_on_c, 0, 74, 0
2, 65952, Note_on_c, 0, 43, 0
2, 65952, Note_on_c, 0, 31, 0
2, 65952, Note_on_c, 0, 70, 0
2, 65952, Note_on_c, 0, 79, 104
2, 65952, Note_on_c, 0, 70, 103
2, 65952, Note_on_c, 0, 67, 113
2, 65952, Note_on_c, 0, 39, 87
2, 65952, Note_on_c, 0, 75, 107
2, 65952, Note_on_c, 0, 51, 91
2, 66144, Note_on_c, 0, 79, 0
2, 66144, Note_on_c, 0, 70, 0
2, 66144, Note_on_c, 0, 67, 0
2, 66144, Note_on_c, 0, 39, 0
2, 66144, Note_on_c, 0, 75, 0
2, 66144, Note_on_c, 0, 51, 0
2, 66144, Note_on_c, 0, 74, 106
2, 66144, Note_on_c, 0, 78, 105
2, 66144, Note_on_c, 0, 69, 106
2, 66144, Note_on_c, 0, 38, 90
2, 66144, Note_on_c, 0, 50, 92
2, 66144, Note_on_c, 0, 81, 108
2, 66240, Note_on_c, 0, 74, 0
2, 66240, Note_on_c, 0, 78, 0
2, 66240, Note_on_c, 0, 69, 0
2, 66240, Note_on_c, 0, 38, 0
2, 66240, Note_on_c, 0, 50, 0
2, 66240, Note_on_c, 0, 81, 0
2, 66240, Note_on_c, 0, 43, 93
2, 66240, Note_on_c, 0, 79, 110
2, 66240, Note_on_c, 0, 74, 112
2, 66240, Note_on_c, 0, 70, 105
2, 66240, Note_on_c, 0, 31, 87
2, 66240, Note_on_c, 0, 82, 103
2, 66384, Note_on_c, 0, 43, 0
2, 66384, Note_on_c, 0, 31, 0
2, 66384, Note_on_c, 0, 41, 87
2, 66384, Note_on_c, 0, 29, 88
2, 66432, Note_on_c, 0, 79, 0
2, 66432, Note_on_c, 0, 74, 0
2, 66432, Note_on_c, 0, 70, 0
2, 66432, Note_on_c, 0, 82, 0
2, 66432, Note_on_c, 0, 41, 0
2, 66432, Note_on_c, 0, 29, 0
2, 66432, Note_on_c, 0, 39, 94
2, 66432, Note_on_c, 0, 70, 108
2, 66432, Note_on_c, 0, 67, 106
2, 66432, Note_on_c, 0, 79, 113
2, 66432, Note_on_c, 0, 27, 89
2, 66528, Note_on_c, 0, 39, 0
2, 66528, Note_on_c, 0, 70, 0
2, 66528, Note_on_c, 0, 67, 0
2, 66528, Note_on_c, 0, 79, 0
2, 66528, Note_on_c, 0, 27, 0
2, 66528, Note_on_c, 0, 48, 97
2, 66528, Note_on_c, 0, 36, 97
2, 66528, Note_on_c, 0, 75, 111
2, 66528, Note_on_c, 0, 63, 106
2, 66528, Note_on_c, 0, 68, 106
2, 66720, Note_on_c, 0, 48, 0
2, 66720, Note_on_c, 0, 36, 0
2, 66720, Note_on_c, 0, 75, 0
2, 66720, Note_on_c, 0, 63, 0
2, 66720, Note_on_c, 0, 68, 0
2, 66720, Note_on_c, 0, 74, 111
2, 66720, Note_on_c, 0, 46, 95
2, 66720, Note_on_c, 0, 34, 91
2, 66720, Note_on_c, 0, 65, 106
2, 66720, Note_on_c, 0, 77, 112
2, 66720, Note_on_c, 0, 70, 112
2, 66816, Note_on_c, 0, 74, 0
2, 66816, Note_on_c, 0, 46, 0
2, 66816, Note_on_c, 0, 34, 0
2, 66816, Note_on_c, 0, 65, 0
2, 66816, Note_on_c, 0, 77, 0
2, 66816, Note_on_c, 0, 70, 0
2, 66816, Note_on_c, 0, 45, 96
2, 66816, Note_on_c, 0, 71, 103
2, 66816, Note_on_c, 0, 66, 106
2, 66816, Note_on_c, 0, 33, 94
2, 66816, Note_on_c, 0, 75, 113
2, 66816, Note_on_c, 0, 78, 110
2, 67008, Note_on_c, 0, 33, 0
2, 67008, Note_on_c, 0, 59, 95
2, 67104, Note_on_c, 0, 59, 0
2, 67104, Note_on_c, 0, 59, 80
2, 67296, Note_on_c, 0, 59, 0
2, 67296, Note_on_c, 0, 59, 53
2, 67392, Note_on_c, 0, 71, 0
2, 67392, Note_on_c, 0, 66, 0
2, 67392, Note_on_c, 0, 75, 0
2, 67392, Note_on_c, 0, 78, 0
2, 67392, Note_on_c, 0, 59, 0
2, 67392, Note_on_c, 0, 66, 58
2, 67392, Note_on_c, 0, 71, 62
2, 67392, Note_on_c, 0, 59, 43
2, 67392, Note_on_c, 0, 63, 61
2, 67584, Note_on_c, 0, 59, 0
2, 67584, Note_on_c, 0, 59, 40
2, 67680, Note_on_c, 0, 59, 0
2, 67680, Note_on_c, 0, 59, 48
2, 67872, Note_on_c, 0, 59, 0
2, 67872, Note_on_c, 0, 59, 48
2, 67968, Note_on_c, 0, 63, 0
2, 67968, Note_on_c, 0, 59, 0
2, 67968, Note_on_c, 0, 63, 63
2, 68112, Note_on_c, 0, 63, 0
2, 68112, Note_on_c, 0, 61, 60
2, 68160, Note_on_c, 0, 61, 0
2, 68160, Note_on_c, 0, 59, 57
2, 68256, Note_on_c, 0, 45, 0
2, 68256, Note_on_c, 0, 66, 0
2, 68256, Note_on_c, 0, 71, 0
2, 68256, Note_on_c, 0, 71, 64
2, 68256, Note_on_c, 0, 64, 55
2, 68256, Note_on_c, 0, 64, 58
2, 68256, Note_on_c, 0, 44, 44
2, 68448, Note_on_c, 0, 64, 0
2, 68448, Note_on_c, 0, 61, 58
2, 68544, Note_on_c, 0, 59, 0
2, 68544, Note_on_c, 0, 71, 0
2, 68544, Note_on_c, 0, 64, 0
2, 68544, Note_on_c, 0, 44, 0
2, 68544, Note_on_c, 0, 61, 0
2, 68544, Note_on_c, 0, 69, 55
2, 68544, Note_on_c, 0, 42, 49
2, 68544, Note_on_c, 0, 63, 62
2, 68544, Note_on_c, 0, 59, 55
2, 68736, Note_on_c, 0, 57, 45
2, 68832, Note_on_c, 0, 57, 0
2, 68832, Note_on_c, 0, 54, 44
2, 69024, Note_on_c, 0, 54, 0
2, 69024, Note_on_c, 0, 47, 48
2, 69120, Note_on_c, 0, 42, 0
2, 69120, Note_on_c, 0, 63, 0
2, 69120, Note_on_c, 0, 59, 0
2, 69120, Note_on_c, 0, 47, 0
2, 69120, Note_on_c, 0, 40, 47
2, 69120, Note_on_c, 0, 59, 63
2, 69120, Note_on_c, 0, 64, 57
2, 69312, Note_on_c, 0, 69, 0
2, 69312, Note_on_c, 0, 68, 54
2, 69408, Note_on_c, 0, 68, 0
2, 69408, Note_on_c, 0, 67, 53
2, 69600, Note_on_c, 0, 40, 0
2, 69600, Note_on_c, 0, 41, 32
2, 69696, Note_on_c, 0, 59, 0
2, 69696, Note_on_c, 0, 64, 0
2, 69696, Note_on_c, 0, 67, 0
2, 69696, Note_on_c, 0, 41, 0
2, 69696, Note_on_c, 0, 59, 44
2, 69696, Note_on_c, 0, 65, 45
2, 69696, Note_on_c, 0, 55, 42
2, 69696, Note_on_c, 0, 43, 30
2, 69696, Note_on_c, 0, 67, 49
2, 69888, Note_on_c, 0, 43, 0
2, 69888, Note_on_c, 0, 43, 33
2, 69984, Note_on_c, 0, 43, 0
2, 69984, Note_on_c, 0, 43, 27
2, 70176, Note_on_c, 0, 43, 0
2, 70176, Note_on_c, 0, 43, 35
2, 70272, Note_on_c, 0, 59, 0
2, 70272, Note_on_c, 0, 65, 0
2, 70272, Note_on_c, 0, 55, 0
2, 70272, Note_on_c, 0, 67, 0
2, 70272, Note_on_c, 0, 43, 0
2, 70272, Note_on_c, 0, 55, 47
2, 70272, Note_on_c, 0, 65, 49
2, 70272, Note_on_c, 0, 62, 47
2, 70272, Note_on_c, 0, 67, 43
2, 70272, Note_on_c, 0, 47, 27
2, 70416, Note_on_c, 0, 47, 0
2, 70416, Note_on_c, 0, 45, 32
2, 70464, Note_on_c, 0, 45, 0
2, 70464, Note_on_c, 0, 43, 31
2, 70560, Note_on_c, 0, 55, 0
2, 70560, Note_on_c, 0, 65, 0
2, 70560, Note_on_c, 0, 62, 0
2, 70560, Note_on_c, 0, 67, 0
2, 70560, Note_on_c, 0, 43, 0
2, 70560, Note_on_c, 0, 48, 29
2, 70560, Note_on_c, 0, 67, 50
2, 70560, Note_on_c, 0, 60, 45
2, 70560, Note_on_c, 0, 55, 43
2, 70560, Note_on_c, 0, 64, 42
2, 70752, Note_on_c, 0, 48, 0
2, 70752, Note_on_c, 0, 45, 26
2, 70848, Note_on_c, 0, 67, 0
2, 70848, Note_on_c, 0, 60, 0
2, 70848, Note_on_c, 0, 55, 0
2, 70848, Note_on_c, 0, 64, 0
2, 70848, Note_on_c, 0, 45, 0
2, 70848, Note_on_c, 0, 55, 44
2, 70848, Note_on_c, 0, 60, 43
2, 70848, Note_on_c, 0, 43, 31
2, 70848, Note_on_c, 0, 64, 40
2, 70848, Note_on_c, 0, 67, 42
2, 71040, Note_on_c, 0, 43, 0
2, 71040, Note_on_c, 0, 40, 26
2, 71136, Note_on_c, 0, 40, 0
2, 71136, Note_on_c, 0, 36, 28
2, 71328, Note_on_c, 0, 36, 0
2, 71328, Note_on_c, 0, 33, 28
2, 71424, Note_on_c, 0, 60, 0
2, 71424, Note_on_c, 0, 64, 0
2, 71424, Note_on_c, 0, 33, 0
2, 71424, Note_on_c, 0, 65, 43
2, 71424, Note_on_c, 0, 31, 26
2, 71424, Note_on_c, 0, 59, 43
2, 71616, Note_on_c, 0, 55, 0
2, 71616, Note_on_c, 0, 67, 0
2, 71712, Note_on_c, 0, 57, 44
2, 71904, Note_on_c, 0, 57, 0
2, 71904, Note_on_c, 0, 57, 43
2, 71952, Note_on_c, 0, 31, 0
2, 71952, Note_on_c, 0, 43, 29
2, 72000, Note_on_c, 0, 59, 0
2, 72000, Note_on_c, 0, 57, 0
2, 72000, Note_on_c, 0, 60, 28
2, 72000, Note_on_c, 0, 57, 47
2, 72192, Note_on_c, 0, 65, 0
2, 72192, Note_on_c, 0, 57, 0
2, 72192, Note_on_c, 0, 64, 42
2, 72192, Note_on_c, 0, 55, 32
2, 72288, Note_on_c, 0, 60, 0
2, 72288, Note_on_c, 0, 64, 0
2, 72288, Note_on_c, 0, 55, 0
2, 72288, Note_on_c, 0, 53, 26
2, 72288, Note_on_c, 0, 69, 44
2, 72288, Note_on_c, 0, 62, 32
2, 72288, Note_on_c, 0, 59, 33
2, 72480, Note_on_c, 0, 53, 0
2, 72480, Note_on_c, 0, 69, 0
2, 72480, Note_on_c, 0, 53, 25
2, 72480, Note_on_c, 0, 69, 46
2, 72576, Note_on_c, 0, 62, 0
2, 72576, Note_on_c, 0, 59, 0
2, 72576, Note_on_c, 0, 53, 0
2, 72576, Note_on_c, 0, 69, 0
2, 72576, Note_on_c, 0, 60, 25
2, 72576, Note_on_c, 0, 69, 42
2, 72576, Note_on_c, 0, 53, 31
2, 72768, Note_on_c, 0, 69, 0
2, 72768, Note_on_c, 0, 53, 0
2, 72768, Note_on_c, 0, 67, 40
2, 72768, Note_on_c, 0, 52, 25
2, 72864, Note_on_c, 0, 60, 0
2, 72864, Note_on_c, 0, 67, 0
2, 72864, Note_on_c, 0, 52, 0
2, 72864, Note_on_c, 0, 59, 32
2, 72864, Note_on_c, 0, 65, 47
2, 72864, Note_on_c, 0, 57, 28
2, 73056, Note_on_c, 0, 65, 0
2, 73056, Note_on_c, 0, 57, 0
2, 73056, Note_on_c, 0, 57, 31
2, 73056, Note_on_c, 0, 65, 47
2, 73152, Note_on_c, 0, 59, 0
2, 73152, Note_on_c, 0, 57, 0
2, 73152, Note_on_c, 0, 65, 0
2, 73152, Note_on_c, 0, 65, 48
2, 73152, Note_on_c, 0, 60, 28
2, 73152, Note_on_c, 0, 57, 28
2, 73344, Note_on_c, 0, 43, 0
2, 73344, Note_on_c, 0, 65, 0
2, 73344, Note_on_c, 0, 57, 0
2, 73344, Note_on_c, 0, 55, 35
2, 73344, Note_on_c, 0, 64, 49
2, 73440, Note_on_c, 0, 60, 0
2, 73440, Note_on_c, 0, 55, 0
2, 73440, Note_on_c, 0, 64, 0
2, 73440, Note_on_c, 0, 53, 30
2, 73440, Note_on_c, 0, 62, 29
2, 73440, Note_on_c, 0, 59, 30
2, 73440, Note_on_c, 0, 69, 45
2, 73632, Note_on_c, 0, 53, 0
2, 73632, Note_on_c, 0, 69, 0
2, 73632, Note_on_c, 0, 53, 31
2, 73632, Note_on_c, 0, 69, 47
2, 73728, Note_on_c, 0, 62, 0
2, 73728, Note_on_c, 0, 59, 0
2, 73728, Note_on_c, 0, 53, 0
2, 73728, Note_on_c, 0, 69, 0
2, 73728, Note_on_c, 0, 53, 31
2, 73728, Note_on_c, 0, 61, 33
2, 73728, Note_on_c, 0, 69, 47
2, 73728, Note_on_c, 0, 58, 34
2, 73920, Note_on_c, 0, 53, 0
2, 73920, Note_on_c, 0, 69, 0
2, 73920, Note_on_c, 0, 52, 28
2, 73920, Note_on_c, 0, 67, 46
2, 74016, Note_on_c, 0, 61, 0
2, 74016, Note_on_c, 0, 58, 0
2, 74016, Note_on_c, 0, 52, 0
2, 74016, Note_on_c, 0, 67, 0
2, 74016, Note_on_c, 0, 58, 25
2, 74016, Note_on_c, 0, 61, 29
2, 74304, Note_on_c, 0, 58, 0
2, 74304, Note_on_c, 0, 64, 50
2, 74304, Note_on_c, 0, 70, 47
2, 74304, Note_on_c, 0, 55, 34
2, 74448, Note_on_c, 0, 55, 0
2, 74448, Note_on_c, 0, 53, 28
2, 74496, Note_on_c, 0, 53, 0
2, 74496, Note_on_c, 0, 52, 30
2, 74592, Note_on_c, 0, 61, 0
2, 74592, Note_on_c, 0, 64, 0
2, 74592, Note_on_c, 0, 70, 0
2, 74592, Note_on_c, 0, 52, 0
2, 74592, Note_on_c, 0, 61, 41
2, 74592, Note_on_c, 0, 58, 46
2, 74592, Note_on_c, 0, 67, 50
2, 74784, Note_on_c, 0, 58, 0
2, 74784, Note_on_c, 0, 58, 45
2, 74880, Note_on_c, 0, 61, 0
2, 74880, Note_on_c, 0, 67, 0
2, 74880, Note_on_c, 0, 58, 0
2, 74880, Note_on_c, 0, 70, 41
2, 74880, Note_on_c, 0, 64, 40
2, 74880, Note_on_c, 0, 55, 37
2, 75072, Note_on_c, 0, 55, 0
2, 75072, Note_on_c, 0, 48, 25
2, 75168, Note_on_c, 0, 62, 46
2, 75360, Note_on_c, 0, 62, 0
2, 75360, Note_on_c, 0, 62, 49
2, 75456, Note_on_c, 0, 62, 0
2, 75456, Note_on_c, 0, 62, 43
2, 75456, Note_on_c, 0, 65, 26
2, 75648, Note_on_c, 0, 70, 0
2, 75648, Note_on_c, 0, 64, 0
2, 75648, Note_on_c, 0, 62, 0
2, 75648, Note_on_c, 0, 69, 42
2, 75648, Note_on_c, 0, 60, 47
2, 75744, Note_on_c, 0, 65, 0
2, 75744, Note_on_c, 0, 69, 0
2, 75744, Note_on_c, 0, 60, 0
2, 75744, Note_on_c, 0, 74, 43
2, 75744, Note_on_c, 0, 64, 26
2, 75744, Note_on_c, 0, 58, 41
2, 75744, Note_on_c, 0, 67, 31
2, 75936, Note_on_c, 0, 74, 0
2, 75936, Note_on_c, 0, 58, 0
2, 75936, Note_on_c, 0, 74, 48
2, 75936, Note_on_c, 0, 58, 41
2, 76032, Note_on_c, 0, 64, 0
2, 76032, Note_on_c, 0, 67, 0
2, 76032, Note_on_c, 0, 74, 0
2, 76032, Note_on_c, 0, 58, 0
2, 76032, Note_on_c, 0, 74, 48
2, 76032, Note_on_c, 0, 65, 32
2, 76032, Note_on_c, 0, 58, 40
2, 76224, Note_on_c, 0, 74, 0
2, 76224, Note_on_c, 0, 58, 0
2, 76224, Note_on_c, 0, 72, 47
2, 76224, Note_on_c, 0, 57, 50
2, 76272, Note_on_c, 0, 48, 0
2, 76272, Note_on_c, 0, 48, 32
2, 76320, Note_on_c, 0, 65, 0
2, 76320, Note_on_c, 0, 72, 0
2, 76320, Note_on_c, 0, 57, 0
2, 76320, Note_on_c, 0, 62, 49
2, 76320, Note_on_c, 0, 70, 51
2, 76320, Note_on_c, 0, 64, 38
2, 76512, Note_on_c, 0, 62, 0
2, 76512, Note_on_c, 0, 70, 0
2, 76512, Note_on_c, 0, 62, 57
2, 76512, Note_on_c, 0, 70, 55
2, 76608, Note_on_c, 0, 64, 0
2, 76608, Note_on_c, 0, 62, 0
2, 76608, Note_on_c, 0, 70, 0
2, 76608, Note_on_c, 0, 62, 61
2, 76608, Note_on_c, 0, 65, 55
2, 76608, Note_on_c, 0, 70, 61
2, 76704, Note_on_c, 0, 48, 0
2, 76800, Note_on_c, 0, 62, 0
2, 76800, Note_on_c, 0, 70, 0
2, 76800, Note_on_c, 0, 69, 66
2, 76800, Note_on_c, 0, 60, 66
2, 76896, Note_on_c, 0, 65, 0
2, 76896, Note_on_c, 0, 69, 0
2, 76896, Note_on_c, 0, 60, 0
2, 76896, Note_on_c, 0, 58, 66
2, 76896, Note_on_c, 0, 74, 70
2, 76896, Note_on_c, 0, 64, 65
2, 76896, Note_on_c, 0, 67, 67
2, 77088, Note_on_c, 0, 58, 0
2, 77088, Note_on_c, 0, 74, 0
2, 77088, Note_on_c, 0, 58, 67
2, 77088, Note_on_c, 0, 74, 78
2, 77184, Note_on_c, 0, 64, 0
2, 77184, Note_on_c, 0, 67, 0
2, 77184, Note_on_c, 0, 58, 0
2, 77184, Note_on_c, 0, 74, 0
2, 77184, Note_on_c, 0, 63, 76
2, 77184, Note_on_c, 0, 66, 80
2, 77184, Note_on_c, 0, 74, 77
2, 77184, Note_on_c, 0, 58, 72
2, 77376, Note_on_c, 0, 74, 0
2, 77376, Note_on_c, 0, 58, 0
2, 77376, Note_on_c, 0, 57, 71
2, 77376, Note_on_c, 0, 72, 85
2, 77472, Note_on_c, 0, 63, 0
2, 77472, Note_on_c, 0, 66, 0
2, 77472, Note_on_c, 0, 57, 0
2, 77472, Note_on_c, 0, 72, 0
2, 77472, Note_on_c, 0, 69, 93
2, 77472, Note_on_c, 0, 51, 70
2, 77472, Note_on_c, 0, 63, 70
2, 77472, Note_on_c, 0, 72, 87
2, 77472, Note_on_c, 0, 78, 88
2, 77472, Note_on_c, 0, 66, 89
2, 77616, Note_on_c, 0, 69, 0
2, 77616, Note_on_c, 0, 72, 0
2, 77616, Note_on_c, 0, 78, 0
2, 77616, Note_on_c, 0, 66, 0
2, 77616, Note_on_c, 0, 79, 91
2, 77616, Note_on_c, 0, 72, 95
2, 77616, Note_on_c, 0, 67, 88
2, 77664, Note_on_c, 0, 51, 0
2, 77664, Note_on_c, 0, 63, 0
2, 77664, Note_on_c, 0, 79, 0
2, 77664, Note_on_c, 0, 72, 0
2, 77664, Note_on_c, 0, 67, 0
2, 77664, Note_on_c, 0, 72, 87
2, 77664, Note_on_c, 0, 80, 94
2, 77664, Note_on_c, 0, 63, 76
2, 77664, Note_on_c, 0, 51, 70
2, 77664, Note_on_c, 0, 68, 90
2, 77760, Note_on_c, 0, 72, 0
2, 77760, Note_on_c, 0, 80, 0
2, 77760, Note_on_c, 0, 63, 0
2, 77760, Note_on_c, 0, 51, 0
2, 77760, Note_on_c, 0, 68, 0
2, 77760, Note_on_c, 0, 48, 80
2, 77760, Note_on_c, 0, 78, 90
2, 77760, Note_on_c, 0, 60, 73
2, 77760, Note_on_c, 0, 75, 91
2, 77760, Note_on_c, 0, 81, 92
2, 77760, Note_on_c, 0, 69, 88
2, 77904, Note_on_c, 0, 48, 0
2, 77904, Note_on_c, 0, 78, 0
2, 77904, Note_on_c, 0, 60, 0
2, 77904, Note_on_c, 0, 75, 0
2, 77904, Note_on_c, 0, 81, 0
2, 77904, Note_on_c, 0, 69, 0
2, 77904, Note_on_c, 0, 46, 78
2, 77904, Note_on_c, 0, 82, 96
2, 77904, Note_on_c, 0, 75, 98
2, 77904, Note_on_c, 0, 79, 96
2, 77904, Note_on_c, 0, 70, 92
2, 77904, Note_on_c, 0, 58, 73
2, 77952, Note_on_c, 0, 46, 0
2, 77952, Note_on_c, 0, 82, 0
2, 77952, Note_on_c, 0, 75, 0
2, 77952, Note_on_c, 0, 79, 0
2, 77952, Note_on_c, 0, 70, 0
2, 77952, Note_on_c, 0, 58, 0
2, 77952, Note_on_c, 0, 83, 89
2, 77952, Note_on_c, 0, 71, 90
2, 77952, Note_on_c, 0, 45, 80
2, 77952, Note_on_c, 0, 57, 75
2, 77952, Note_on_c, 0, 75, 88
2, 77952, Note_on_c, 0, 78, 94
2, 78048, Note_on_c, 0, 83, 0
2, 78048, Note_on_c, 0, 71, 0
2, 78048, Note_on_c, 0, 45, 0
2, 78048, Note_on_c, 0, 57, 0
2, 78048, Note_on_c, 0, 75, 0
2, 78048, Note_on_c, 0, 78, 0
2, 78048, Note_on_c, 0, 66, 73
2, 78048, Note_on_c, 0, 75, 90
2, 78048, Note_on_c, 0, 81, 99
2, 78048, Note_on_c, 0, 54, 80
2, 78048, Note_on_c, 0, 84, 89
2, 78048, Note_on_c, 0, 72, 89
2, 78192, Note_on_c, 0, 75, 0
2, 78192, Note_on_c, 0, 81, 0
2, 78192, Note_on_c, 0, 84, 0
2, 78192, Note_on_c, 0, 72, 0
2, 78192, Note_on_c, 0, 85, 91
2, 78192, Note_on_c, 0, 73, 95
2, 78192, Note_on_c, 0, 81, 91
2, 78240, Note_on_c, 0, 66, 0
2, 78240, Note_on_c, 0, 54, 0
2, 78240, Note_on_c, 0, 85, 0
2, 78240, Note_on_c, 0, 73, 0
2, 78240, Note_on_c, 0, 81, 0
2, 78240, Note_on_c, 0, 54, 82
2, 78240, Note_on_c, 0, 81, 97
2, 78240, Note_on_c, 0, 86, 92
2, 78240, Note_on_c, 0, 74, 95
2, 78240, Note_on_c, 0, 66, 82
2, 78336, Note_on_c, 0, 54, 0
2, 78336, Note_on_c, 0, 81, 0
2, 78336, Note_on_c, 0, 86, 0
2, 78336, Note_on_c, 0, 74, 0
2, 78336, Note_on_c, 0, 66, 0
2, 78336, Note_on_c, 0, 51, 83
2, 78336, Note_on_c, 0, 63, 76
2, 78336, Note_on_c, 0, 78, 91
2, 78336, Note_on_c, 0, 81, 99
2, 78336, Note_on_c, 0, 75, 99
2, 78336, Note_on_c, 0, 87, 96
2, 78480, Note_on_c, 0, 51, 0
2, 78480, Note_on_c, 0, 63, 0
2, 78480, Note_on_c, 0, 78, 0
2, 78480, Note_on_c, 0, 81, 0
2, 78480, Note_on_c, 0, 75, 0
2, 78480, Note_on_c, 0, 87, 0
2, 78480, Note_on_c, 0, 49, 84
2, 78480, Note_on_c, 0, 61, 84
2, 78480, Note_on_c, 0, 88, 97
2, 78480, Note_on_c, 0, 81, 98
2, 78480, Note_on_c, 0, 76, 97
2, 78528, Note_on_c, 0, 49, 0
2, 78528, Note_on_c, 0, 61, 0
2, 78528, Note_on_c, 0, 88, 0
2, 78528, Note_on_c, 0, 81, 0
2, 78528, Note_on_c, 0, 76, 0
2, 78528, Note_on_c, 0, 89, 100
2, 78528, Note_on_c, 0, 77, 96
2, 78528, Note_on_c, 0, 48, 80
2, 78528, Note_on_c, 0, 60, 82
2, 78528, Note_on_c, 0, 81, 95
2, 78624, Note_on_c, 0, 89, 0
2, 78624, Note_on_c, 0, 77, 0
2, 78624, Note_on_c, 0, 48, 0
2, 78624, Note_on_c, 0, 60, 0
2, 78624, Note_on_c, 0, 81, 0
2, 78624, Note_on_c, 0, 72, 83
2, 78624, Note_on_c, 0, 81, 97
2, 78624, Note_on_c, 0, 87, 102
2, 78624, Note_on_c, 0, 78, 97
2, 78624, Note_on_c, 0, 60, 82
2, 78624, Note_on_c, 0, 90, 95
2, 78720, Note_on_c, 0, 72, 0
2, 78720, Note_on_c, 0, 60, 0
2, 78768, Note_on_c, 0, 81, 0
2, 78768, Note_on_c, 0, 87, 0
2, 78768, Note_on_c, 0, 78, 0
2, 78768, Note_on_c, 0, 90, 0
2, 78768, Note_on_c, 0, 79, 94
2, 78768, Note_on_c, 0, 87, 99
2, 78768, Note_on_c, 0, 91, 102
2, 78816, Note_on_c, 0, 79, 0
2, 78816, Note_on_c, 0, 87, 0
2, 78816, Note_on_c, 0, 91, 0
2, 78816, Note_on_c, 0, 87, 96
2, 78816, Note_on_c, 0, 80, 100
2, 78816, Note_on_c, 0, 42, 80
2, 78816, Note_on_c, 0, 54, 84
2, 78816, Note_on_c, 0, 92, 99
2, 78912, Note_on_c, 0, 87, 0
2, 78912, Note_on_c, 0, 80, 0
2, 78912, Note_on_c, 0, 42, 0
2, 78912, Note_on_c, 0, 54, 0
2, 78912, Note_on_c, 0, 92, 0
2, 78912, Note_on_c, 0, 42, 85
2, 78912, Note_on_c, 0, 54, 81
2, 78912, Note_on_c, 0, 93, 96
2, 78912, Note_on_c, 0, 81, 102
2, 78912, Note_on_c, 0, 87, 97
2, 79008, Note_on_c, 0, 93, 0
2, 79008, Note_on_c, 0, 81, 0
2, 79008, Note_on_c, 0, 87, 0
2, 79056, Note_on_c, 0, 42, 0
2, 79056, Note_on_c, 0, 54, 0
2, 79056, Note_on_c, 0, 65, 100
2, 79056, Note_on_c, 0, 41, 89
2, 79056, Note_on_c, 0, 77, 99
2, 79056, Note_on_c, 0, 53, 84
2, 79104, Note_on_c, 0, 65, 0
2, 79104, Note_on_c, 0, 41, 0
2, 79104, Note_on_c, 0, 77, 0
2, 79104, Note_on_c, 0, 53, 0
2, 79104, Note_on_c, 0, 39, 88
2, 79104, Note_on_c, 0, 75, 98
2, 79104, Note_on_c, 0, 51, 87
2, 79104, Note_on_c, 0, 63, 107
2, 79200, Note_on_c, 0, 39, 0
2, 79200, Note_on_c, 0, 75, 0
2, 79200, Note_on_c, 0, 51, 0
2, 79200, Note_on_c, 0, 63, 0
2, 79200, Note_on_c, 0, 45, 93
2, 79200, Note_on_c, 0, 69, 102
2, 79200, Note_on_c, 0, 81, 107
2, 79200, Note_on_c, 0, 57, 93
2, 79296, Note_on_c, 0, 45, 0
2, 79296, Note_on_c, 0, 69, 0
2, 79296, Note_on_c, 0, 81, 0
2, 79296, Note_on_c, 0, 57, 0
2, 79392, Note_on_c, 0, 30, 94
2, 79392, Note_on_c, 0, 74, 110
2, 79392, Note_on_c, 0, 42, 94
2, 79392, Note_on_c, 0, 84, 108
2, 79392, Note_on_c, 0, 86, 110
2, 79392, Note_on_c, 0, 81, 105
2, 79488, Note_on_c, 0, 30, 0
2, 79488, Note_on_c, 0, 74, 0
2, 79488, Note_on_c, 0, 42, 0
2, 79488, Note_on_c, 0, 84, 0
2, 79488, Note_on_c, 0, 86, 0
2, 79488, Note_on_c, 0, 81, 0
2, 79488, Note_on_c, 0, 82, 109
2, 79488, Note_on_c, 0, 74, 108
2, 79488, Note_on_c, 0, 79, 111
2, 79488, Note_on_c, 0, 43, 91
2, 79488, Note_on_c, 0, 31, 92
2, 79488, Note_on_c, 0, 86, 105
2, 79680, Note_on_c, 0, 82, 0
2, 79680, Note_on_c, 0, 74, 0
2, 79680, Note_on_c, 0, 79, 0
2, 79680, Note_on_c, 0, 43, 0
2, 79680, Note_on_c, 0, 31, 0
2, 79680, Note_on_c, 0, 86, 0
2, 79680, Note_on_c, 0, 38, 94
2, 79680, Note_on_c, 0, 50, 87
2, 79680, Note_on_c, 0, 74, 110
2, 79680, Note_on_c, 0, 70, 108
2, 79680, Note_on_c, 0, 82, 104
2, 79776, Note_on_c, 0, 38, 0
2, 79776, Note_on_c, 0, 50, 0
2, 79776, Note_on_c, 0, 74, 0
2, 79776, Note_on_c, 0, 70, 0
2, 79776, Note_on_c, 0, 82, 0
2, 79776, Note_on_c, 0, 55, 92
2, 79776, Note_on_c, 0, 79, 110
2, 79776, Note_on_c, 0, 70, 108
2, 79776, Note_on_c, 0, 43, 88
2, 79776, Note_on_c, 0, 74, 113
2, 79776, Note_on_c, 0, 67, 105
2, 79968, Note_on_c, 0, 55, 0
2, 79968, Note_on_c, 0, 79, 0
2, 79968, Note_on_c, 0, 70, 0
2, 79968, Note_on_c, 0, 43, 0
2, 79968, Note_on_c, 0, 74, 0
2, 79968, Note_on_c, 0, 67, 0
2, 79968, Note_on_c, 0, 41, 92
2, 79968, Note_on_c, 0, 53, 90
2, 79968, Note_on_c, 0, 69, 103
2, 79968, Note_on_c, 0, 74, 113
2, 79968, Note_on_c, 0, 81, 105
2, 80064, Note_on_c, 0, 41, 0
2, 80064, Note_on_c, 0, 53, 0
2, 80064, Note_on_c, 0, 69, 0
2, 80064, Note_on_c, 0, 74, 0
2, 80064, Note_on_c, 0, 81, 0
2, 80064, Note_on_c, 0, 52, 97
2, 80064, Note_on_c, 0, 79, 103
2, 80064, Note_on_c, 0, 82, 108
2, 80064, Note_on_c, 0, 70, 109
2, 80064, Note_on_c, 0, 74, 111
2, 80064, Note_on_c, 0, 40, 90
2, 80208, Note_on_c, 0, 52, 0
2, 80208, Note_on_c, 0, 40, 0
2, 80208, Note_on_c, 0, 50, 97
2, 80208, Note_on_c, 0, 38, 92
2, 80256, Note_on_c, 0, 79, 0
2, 80256, Note_on_c, 0, 82, 0
2, 80256, Note_on_c, 0, 70, 0
2, 80256, Note_on_c, 0, 74, 0
2, 80256, Note_on_c, 0, 50, 0
2, 80256, Note_on_c, 0, 38, 0
2, 80256, Note_on_c, 0, 70, 103
2, 80256, Note_on_c, 0, 49, 89
2, 80256, Note_on_c, 0, 37, 96
2, 80256, Note_on_c, 0, 76, 106
2, 80256, Note_on_c, 0, 67, 112
2, 80256, Note_on_c, 0, 79, 110
2, 80352, Note_on_c, 0, 70, 0
2, 80352, Note_on_c, 0, 49, 0
2, 80352, Note_on_c, 0, 37, 0
2, 80352, Note_on_c, 0, 76, 0
2, 80352, Note_on_c, 0, 67, 0
2, 80352, Note_on_c, 0, 79, 0
2, 80352, Note_on_c, 0, 64, 104
2, 80352, Note_on_c, 0, 67, 107
2, 80352, Note_on_c, 0, 73, 106
2, 80352, Note_on_c, 0, 58, 95
2, 80352, Note_on_c, 0, 46, 90
2, 80352, Note_on_c, 0, 76, 103
2, 80544, Note_on_c, 0, 64, 0
2, 80544, Note_on_c, 0, 67, 0
2, 80544, Note_on_c, 0, 73, 0
2, 80544, Note_on_c, 0, 58, 0
2, 80544, Note_on_c, 0, 46, 0
2, 80544, Note_on_c, 0, 76, 0
2, 80544, Note_on_c, 0, 66, 108
2, 80544, Note_on_c, 0, 57, 94
2, 80544, Note_on_c, 0, 73, 106
2, 80544, Note_on_c, 0, 75, 110
2, 80544, Note_on_c, 0, 78, 107
2, 80544, Note_on_c, 0, 45, 92
2, 80640, Note_on_c, 0, 66, 0
2, 80640, Note_on_c, 0, 57, 0
2, 80640, Note_on_c, 0, 73, 0
2, 80640, Note_on_c, 0, 75, 0
2, 80640, Note_on_c, 0, 78, 0
2, 80640, Note_on_c, 0, 45, 0
2, 80640, Note_on_c, 0, 79, 111
2, 80640, Note_on_c, 0, 74, 107
2, 80640, Note_on_c, 0, 67, 103
2, 80640, Note_on_c, 0, 34, 89
2, 80640, Note_on_c, 0, 46, 94
2, 80784, Note_on_c, 0, 34, 0
2, 80784, Note_on_c, 0, 46, 0
2, 80784, Note_on_c, 0, 45, 90
2, 80784, Note_on_c, 0, 33, 91
2, 80832, Note_on_c, 0, 79, 0
2, 80832, Note_on_c, 0, 74, 0
2, 80832, Note_on_c, 0, 67, 0
2, 80832, Note_on_c, 0, 45, 0
2, 80832, Note_on_c, 0, 33, 0
2, 80832, Note_on_c, 0, 31, 94
2, 80832, Note_on_c, 0, 76, 107
2, 80832, Note_on_c, 0, 43, 94
2, 80832, Note_on_c, 0, 70, 110
2, 80832, Note_on_c, 0, 64, 103
2, 80928, Note_on_c, 0, 31, 0
2, 80928, Note_on_c, 0, 76, 0
2, 80928, Note_on_c, 0, 43, 0
2, 80928, Note_on_c, 0, 70, 0
2, 80928, Note_on_c, 0, 64, 0
2, 80928, Note_on_c, 0, 73, 105
2, 80928, Note_on_c, 0, 61, 113
2, 80928, Note_on_c, 0, 67, 103
2, 80928, Note_on_c, 0, 70, 110
2, 80928, Note_on_c, 0, 52, 87
2, 80928, Note_on_c, 0, 40, 94
2, 81120, Note_on_c, 0, 73, 0
2, 81120, Note_on_c, 0, 61, 0
2, 81120, Note_on_c, 0, 67, 0
2, 81120, Note_on_c, 0, 70, 0
2, 81120, Note_on_c, 0, 52, 0
2, 81120, Note_on_c, 0, 40, 0
2, 81120, Note_on_c, 0, 38, 96
2, 81120, Note_on_c, 0, 74, 110
2, 81120, Note_on_c, 0, 62, 111
2, 81120, Note_on_c, 0, 67, 113
2, 81120, Note_on_c, 0, 50, 89
2, 81120, Note_on_c, 0, 70, 108
2, 81216, Note_on_c, 0, 38, 0
2, 81216, Note_on_c, 0, 74, 0
2, 81216, Note_on_c, 0, 62, 0
2, 81216, Note_on_c, 0, 67, 0
2, 81216, Note_on_c, 0, 50, 0
2, 81216, Note_on_c, 0, 70, 0
2, 81216, Note_on_c, 0, 75, 113
2, 81216, Note_on_c, 0, 49, 88
2, 81216, Note_on_c, 0, 63, 108
2, 81216, Note_on_c, 0, 67, 111
2, 81216, Note_on_c, 0, 69, 108
2, 81216, Note_on_c, 0, 37, 95
2, 81312, Note_on_c, 0, 75, 0
2, 81312, Note_on_c, 0, 63, 0
2, 81312, Note_on_c, 0, 67, 0
2, 81312, Note_on_c, 0, 69, 0
2, 81312, Note_on_c, 0, 67, 112
2, 81312, Note_on_c, 0, 76, 111
2, 81312, Note_on_c, 0, 69, 110
2, 81312, Note_on_c, 0, 64, 110
2, 81408, Note_on_c, 0, 49, 0
2, 81408, Note_on_c, 0, 37, 0
2, 81408, Note_on_c, 0, 67, 0
2, 81408, Note_on_c, 0, 76, 0
2, 81408, Note_on_c, 0, 69, 0
2, 81408, Note_on_c, 0, 64, 0
2, 81408, Note_on_c, 0, 48, 99
2, 81408, Note_on_c, 0, 36, 101
2, 81504, Note_on_c, 0, 48, 0
2, 81504, Note_on_c, 0, 36, 0
2, 81504, Note_on_c, 0, 47, 98
2, 81504, Note_on_c, 0, 35, 104
2, 81600, Note_on_c, 0, 47, 0
2, 81600, Note_on_c, 0, 35, 0
2, 81600, Note_on_c, 0, 34, 97
2, 81600, Note_on_c, 0, 46, 100
2, 81696, Note_on_c, 0, 34, 0
2, 81696, Note_on_c, 0, 46, 0
2, 81696, Note_on_c, 0, 33, 109
2, 81696, Note_on_c, 0, 45, 100
2, 81792, Note_on_c, 0, 33, 0
2, 81792, Note_on_c, 0, 45, 0
2, 81792, Control_c, 0, 64, 127
2, 81792, Note_on_c, 0, 93, 125
2, 81792, Note_on_c, 0, 89, 127
2, 81792, Note_on_c, 0, 45, 90
2, 81792, Note_on_c, 0, 33, 94
2, 81840, Note_on_c, 0, 93, 0
2, 81840, Note_on_c, 0, 89, 0
2, 81840, Note_on_c, 0, 88, 111
2, 81888, Note_on_c, 0, 45, 0
2, 81888, Note_on_c, 0, 33, 0
2, 81888, Note_on_c, 0, 88, 0
2, 81888, Note_on_c, 0, 38, 96
2, 81888, Note_on_c, 0, 50, 91
2, 81888, Note_on_c, 0, 86, 107
2, 81936, Note_on_c, 0, 86, 0
2, 81936, Note_on_c, 0, 81, 103
2, 81984, Note_on_c, 0, 38, 0
2, 81984, Note_on_c, 0, 50, 0
2, 81984, Note_on_c, 0, 81, 0
2, 81984, Control_c, 0, 64, 0
2, 81984, Note_on_c, 0, 81, 108
2, 81984, Note_on_c, 0, 52, 105
2, 81984, Note_on_c, 0, 40, 96
2, 81984, Note_on_c, 0, 77, 100
2, 82032, Note_on_c, 0, 81, 0
2, 82032, Note_on_c, 0, 77, 0
2, 82032, Note_on_c, 0, 76, 102
2, 82080, Note_on_c, 0, 52, 0
2, 82080, Note_on_c, 0, 40, 0
2, 82080, Note_on_c, 0, 76, 0
2, 82080, Note_on_c, 0, 53, 104
2, 82080, Note_on_c, 0, 74, 105
2, 82080, Note_on_c, 0, 41, 111
2, 82128, Note_on_c, 0, 74, 0
2, 82128, Note_on_c, 0, 69, 105
2, 82176, Note_on_c, 0, 69, 0
2, 82176, Note_on_c, 0, 65, 104
2, 82176, Note_on_c, 0, 69, 105
2, 82224, Note_on_c, 0, 65, 0
2, 82224, Note_on_c, 0, 69, 0
2, 82224, Note_on_c, 0, 64, 98
2, 82272, Note_on_c, 0, 53, 0
2, 82272, Note_on_c, 0, 41, 0
2, 82272, Note_on_c, 0, 64, 0
2, 82272, Note_on_c, 0, 62, 97
2, 82320, Note_on_c, 0, 62, 0
2, 82320, Note_on_c, 0, 57, 97
2, 82368, Note_on_c, 0, 57, 0
2, 82368, Note_on_c, 0, 55, 93
2, 82368, Note_on_c, 0, 58, 94
2, 82368, Control_c, 0, 64, 127
2, 82416, Note_on_c, 0, 55, 0
2, 82416, Note_on_c, 0, 58, 0
2, 82416, Note_on_c, 0, 61, 94
2, 82416, Note_on_c, 0, 52, 93
2, 82416, Note_on_c, 0, 70, 90
2, 82464, Note_on_c, 0, 61, 0
2, 82464, Note_on_c, 0, 52, 0
2, 82464, Note_on_c, 0, 70, 0
2, 82464, Note_on_c, 0, 45, 89
2, 82464, Note_on_c, 0, 61, 98
2, 82512, Note_on_c, 0, 45, 0
2, 82512, Note_on_c, 0, 61, 0
2, 82512, Note_on_c, 0, 64, 98
2, 82512, Note_on_c, 0, 73, 95
2, 82512, Note_on_c, 0, 58, 93
2, 82560, Note_on_c, 0, 64, 0
2, 82560, Note_on_c, 0, 73, 0
2, 82560, Note_on_c, 0, 58, 0
2, 82560, Note_on_c, 0, 55, 95
2, 82560, Note_on_c, 0, 64, 95
2, 82608, Note_on_c, 0, 55, 0
2, 82608, Note_on_c, 0, 64, 0
2, 82608, Note_on_c, 0, 45, 98
2, 82608, Note_on_c, 0, 67, 91
2, 82608, Note_on_c, 0, 76, 99
2, 82656, Note_on_c, 0, 45, 0
2, 82656, Note_on_c, 0, 67, 0
2, 82656, Note_on_c, 0, 76, 0
2, 82656, Note_on_c, 0, 61, 100
2, 82656, Note_on_c, 0, 67, 98
2, 82704, Note_on_c, 0, 61, 0
2, 82704, Note_on_c, 0, 67, 0
2, 82704, Note_on_c, 0, 55, 105
2, 82704, Note_on_c, 0, 70, 103
2, 82704, Note_on_c, 0, 79, 93
2, 82752, Note_on_c, 0, 55, 0
2, 82752, Note_on_c, 0, 70, 0
2, 82752, Note_on_c, 0, 79, 0
2, 82752, Note_on_c, 0, 45, 100
2, 82752, Note_on_c, 0, 70, 101
2, 82800, Note_on_c, 0, 45, 0
2, 82800, Note_on_c, 0, 70, 0
2, 82800, Note_on_c, 0, 82, 100
2, 82800, Note_on_c, 0, 64, 108
2, 82800, Note_on_c, 0, 73, 98
2, 82848, Note_on_c, 0, 82, 0
2, 82848, Note_on_c, 0, 64, 0
2, 82848, Note_on_c, 0, 73, 0
2, 82848, Note_on_c, 0, 73, 101
2, 82896, Note_on_c, 0, 73, 0
2, 82896, Note_on_c, 0, 85, 109
2, 82896, Note_on_c, 0, 76, 105
2, 82896, Control_c, 0, 64, 0
2, 82944, Note_on_c, 0, 85, 0
2, 82944, Note_on_c, 0, 76, 0
2, 82944, Note_on_c, 0, 93, 127
2, 82944, Note_on_c, 0, 45, 95
2, 82944, Note_on_c, 0, 89, 127
2, 82944, Note_on_c, 0, 33, 97
2, 82944, Control_c, 0, 64, 127
2, 82992, Note_on_c, 0, 93, 0
2, 82992, Note_on_c, 0, 89, 0
2, 82992, Note_on_c, 0, 88, 105
2, 83040, Note_on_c, 0, 45, 0
2, 83040, Note_on_c, 0, 33, 0
2, 83040, Note_on_c, 0, 88, 0
2, 83040, Note_on_c, 0, 86, 108
2, 83040, Note_on_c, 0, 38, 87
2, 83040, Note_on_c, 0, 50, 92
2, 83088, Note_on_c, 0, 86, 0
2, 83088, Note_on_c, 0, 81, 109
2, 83136, Note_on_c, 0, 38, 0
2, 83136, Note_on_c, 0, 50, 0
2, 83136, Note_on_c, 0, 81, 0
2, 83136, Control_c, 0, 64, 0
2, 83136, Note_on_c, 0, 81, 105
2, 83136, Note_on_c, 0, 77, 105
2, 83136, Note_on_c, 0, 40, 103
2, 83136, Note_on_c, 0, 52, 100
2, 83184, Note_on_c, 0, 81, 0
2, 83184, Note_on_c, 0, 77, 0
2, 83184, Note_on_c, 0, 76, 105
2, 83232, Note_on_c, 0, 40, 0
2, 83232, Note_on_c, 0, 52, 0
2, 83232, Note_on_c, 0, 76, 0
2, 83232, Note_on_c, 0, 53, 107
2, 83232, Note_on_c, 0, 41, 110
2, 83232, Note_on_c, 0, 74, 102
2, 83280, Note_on_c, 0, 74, 0
2, 83280, Note_on_c, 0, 69, 104
2, 83328, Note_on_c, 0, 69, 0
2, 83328, Note_on_c, 0, 69, 100
2, 83328, Note_on_c, 0, 65, 101
2, 83376, Note_on_c, 0, 69, 0
2, 83376, Note_on_c, 0, 65, 0
2, 83376, Note_on_c, 0, 64, 96
2, 83424, Note_on_c, 0, 53, 0
2, 83424, Note_on_c, 0, 41, 0
2, 83424, Note_on_c, 0, 64, 0
2, 83424, Note_on_c, 0, 62, 100
2, 83472, Note_on_c, 0, 62, 0
2, 83472, Note_on_c, 0, 57, 98
2, 83520, Note_on_c, 0, 57, 0
2, 83520, Control_c, 0, 64, 127
2, 83520, Note_on_c, 0, 58, 97
2, 83520, Note_on_c, 0, 61, 91
2, 83568, Note_on_c, 0, 58, 0
2, 83568, Note_on_c, 0, 61, 0
2, 83568, Note_on_c, 0, 73, 89
2, 83568, Note_on_c, 0, 55, 90
2, 83568, Note_on_c, 0, 64, 91
2, 83616, Note_on_c, 0, 73, 0
2, 83616, Note_on_c, 0, 55, 0
2, 83616, Note_on_c, 0, 64, 0
2, 83616, Note_on_c, 0, 45, 96
2, 83616, Note_on_c, 0, 64, 88
2, 83664, Note_on_c, 0, 45, 0
2, 83664, Note_on_c, 0, 64, 0
2, 83664, Note_on_c, 0, 67, 94
2, 83664, Note_on_c, 0, 76, 98
2, 83664, Note_on_c, 0, 61, 99
2, 83712, Note_on_c, 0, 67, 0
2, 83712, Note_on_c, 0, 76, 0
2, 83712, Note_on_c, 0, 61, 0
2, 83712, Note_on_c, 0, 55, 96
2, 83712, Note_on_c, 0, 67, 90
2, 83760, Note_on_c, 0, 55, 0
2, 83760, Note_on_c, 0, 67, 0
2, 83760, Note_on_c, 0, 45, 97
2, 83760, Note_on_c, 0, 79, 96
2, 83760, Note_on_c, 0, 70, 101
2, 83808, Note_on_c, 0, 45, 0
2, 83808, Note_on_c, 0, 79, 0
2, 83808, Note_on_c, 0, 70, 0
2, 83808, Note_on_c, 0, 64, 101
2, 83808, Note_on_c, 0, 70, 100
2, 83856, Note_on_c, 0, 64, 0
2, 83856, Note_on_c, 0, 70, 0
2, 83856, Note_on_c, 0, 82, 93
2, 83856, Note_on_c, 0, 73, 102
2, 83856, Note_on_c, 0, 55, 109
2, 83904, Note_on_c, 0, 82, 0
2, 83904, Note_on_c, 0, 73, 0
2, 83904, Note_on_c, 0, 55, 0
2, 83904, Note_on_c, 0, 45, 111
2, 83904, Note_on_c, 0, 73, 95
2, 83952, Note_on_c, 0, 45, 0
2, 83952, Note_on_c, 0, 73, 0
2, 83952, Note_on_c, 0, 85, 100
2, 83952, Note_on_c, 0, 67, 107
2, 83952, Note_on_c, 0, 76, 99
2, 84000, Note_on_c, 0, 85, 0
2, 84000, Note_on_c, 0, 67, 0
2, 84000, Note_on_c, 0, 76, 0
2, 84000, Note_on_c, 0, 76, 108
2, 84048, Note_on_c, 0, 76, 0
2, 84048, Control_c, 0, 64, 0
2, 84048, Note_on_c, 0, 88, 106
2, 84048, Note_on_c, 0, 79, 104
2, 84096, Note_on_c, 0, 88, 0
2, 84096, Note_on_c, 0, 79, 0
2, 84096, Control_c, 0, 64, 127
2, 84096, Note_on_c, 0, 45, 90
2, 84096, Note_on_c, 0, 98, 127
2, 84096, Note_on_c, 0, 89, 127
2, 84096, Note_on_c, 0, 33, 88
2, 84144, Note_on_c, 0, 98, 0
2, 84144, Note_on_c, 0, 89, 0
2, 84144, Note_on_c, 0, 93, 106
2, 84192, Note_on_c, 0, 45, 0
2, 84192, Note_on_c, 0, 33, 0
2, 84192, Note_on_c, 0, 93, 0
2, 84192, Note_on_c, 0, 89, 109
2, 84192, Note_on_c, 0, 50, 92
2, 84192, Note_on_c, 0, 38, 90
2, 84240, Note_on_c, 0, 89, 0
2, 84240, Note_on_c, 0, 86, 104
2, 84288, Note_on_c, 0, 50, 0
2, 84288, Note_on_c, 0, 38, 0
2, 84288, Note_on_c, 0, 86, 0
2, 84288, Control_c, 0, 64, 0
2, 84288, Note_on_c, 0, 52, 93
2, 84288, Note_on_c, 0, 86, 110
2, 84288, Note_on_c, 0, 93, 100
2, 84288, Note_on_c, 0, 40, 95
2, 84336, Note_on_c, 0, 86, 0
2, 84336, Note_on_c, 0, 93, 0
2, 84336, Note_on_c, 0, 89, 109
2, 84384, Note_on_c, 0, 52, 0
2, 84384, Note_on_c, 0, 40, 0
2, 84384, Note_on_c, 0, 89, 0
2, 84384, Note_on_c, 0, 43, 96
2, 84384, Note_on_c, 0, 55, 103
2, 84384, Note_on_c, 0, 86, 104
2, 84384, Control_c, 0, 64, 127
2, 84432, Note_on_c, 0, 86, 0
2, 84432, Note_on_c, 0, 81, 105
2, 84480, Note_on_c, 0, 43, 0
2, 84480, Note_on_c, 0, 55, 0
2, 84480, Note_on_c, 0, 81, 0
2, 84480, Note_on_c, 0, 89, 103
2, 84480, Note_on_c, 0, 81, 95
2, 84480, Note_on_c, 0, 53, 106
2, 84480, Note_on_c, 0, 41, 107
2, 84528, Note_on_c, 0, 89, 0
2, 84528, Note_on_c, 0, 81, 0
2, 84528, Note_on_c, 0, 86, 99
2, 84576, Note_on_c, 0, 53, 0
2, 84576, Note_on_c, 0, 41, 0
2, 84576, Note_on_c, 0, 86, 0
2, 84576, Note_on_c, 0, 56, 105
2, 84576, Note_on_c, 0, 81, 101
2, 84576, Note_on_c, 0, 44, 111
2, 84576, Control_c, 0, 64, 0
2, 84624, Note_on_c, 0, 81, 0
2, 84624, Note_on_c, 0, 77, 98
2, 84672, Note_on_c, 0, 56, 0
2, 84672, Note_on_c, 0, 44, 0
2, 84672, Note_on_c, 0, 77, 0
2, 84672, Note_on_c, 0, 77, 89
2, 84672, Control_c, 0, 64, 127
2, 84672, Note_on_c, 0, 58, 110
2, 84672, Note_on_c, 0, 46, 109
2, 84672, Note_on_c, 0, 86, 94
2, 84720, Note_on_c, 0, 77, 0
2, 84720, Note_on_c, 0, 86, 0
2, 84720, Note_on_c, 0, 81, 88
2, 84768, Note_on_c, 0, 58, 0
2, 84768, Note_on_c, 0, 46, 0
2, 84768, Note_on_c, 0, 81, 0
2, 84768, Note_on_c, 0, 57, 112
2, 84768, Note_on_c, 0, 45, 112
2, 84768, Note_on_c, 0, 77, 94
2, 84816, Note_on_c, 0, 77, 0
2, 84816, Note_on_c, 0, 74, 91
2, 84864, Note_on_c, 0, 57, 0
2, 84864, Note_on_c, 0, 45, 0
2, 84864, Note_on_c, 0, 74, 0
2, 84864, Control_c, 0, 64, 0
2, 84864, Note_on_c, 0, 74, 96
2, 84864, Note_on_c, 0, 81, 96
2, 84864, Note_on_c, 0, 49, 117
2, 84864, Note_on_c, 0, 61, 116
2, 84912, Note_on_c, 0, 74, 0
2, 84912, Note_on_c, 0, 81, 0
2, 84912, Note_on_c, 0, 77, 91
2, 84960, Note_on_c, 0, 49, 0
2, 84960, Note_on_c, 0, 61, 0
2, 84960, Note_on_c, 0, 77, 0
2, 84960, Note_on_c, 0, 74, 95
2, 84960, Note_on_c, 0, 52, 127
2, 84960, Note_on_c, 0, 64, 119
2, 84960, Control_c, 0, 64, 127
2, 85008, Note_on_c, 0, 74, 0
2, 85008, Note_on_c, 0, 69, 88
2, 85056, Note_on_c, 0, 52, 0
2, 85056, Note_on_c, 0, 64, 0
2, 85056, Note_on_c, 0, 69, 0
2, 85056, Note_on_c, 0, 77, 92
2, 85056, Note_on_c, 0, 62, 127
2, 85056, Note_on_c, 0, 50, 127
2, 85056, Note_on_c, 0, 69, 89
2, 85104, Note_on_c, 0, 77, 0
2, 85104, Note_on_c, 0, 69, 0
2, 85104, Note_on_c, 0, 74, 90
2, 85152, Note_on_c, 0, 62, 0
2, 85152, Note_on_c, 0, 50, 0
2, 85152, Note_on_c, 0, 74, 0
2, 85152, Control_c, 0, 64, 0
2, 85152, Note_on_c, 0, 69, 89
2, 85200, Note_on_c, 0, 69, 0
2, 85200, Note_on_c, 0, 65, 93
2, 85248, Note_on_c, 0, 65, 0
2, 85248, Note_on_c, 0, 32, 90
2, 85248, Note_on_c, 0, 44, 90
2, 85248, Control_c, 0, 64, 127
2, 85248, Note_on_c, 0, 65, 88
2, 85248, Note_on_c, 0, 74, 91
2, 85296, Note_on_c, 0, 65, 0
2, 85296, Note_on_c, 0, 74, 0
2, 85296, Note_on_c, 0, 71, 87
2, 85344, Note_on_c, 0, 32, 0
2, 85344, Note_on_c, 0, 44, 0
2, 85344, Note_on_c, 0, 71, 0
2, 85344, Note_on_c, 0, 65, 93
2, 85344, Note_on_c, 0, 50, 90
2, 85344, Note_on_c, 0, 38, 91
2, 85392, Note_on_c, 0, 65, 0
2, 85392, Note_on_c, 0, 62, 95
2, 85440, Note_on_c, 0, 50, 0
2, 85440, Note_on_c, 0, 38, 0
2, 85440, Note_on_c, 0, 62, 0
2, 85440, Note_on_c, 0, 71, 89
2, 85440, Control_c, 0, 64, 0
2, 85440, Note_on_c, 0, 52, 105
2, 85440, Note_on_c, 0, 40, 95
2, 85440, Note_on_c, 0, 62, 97
2, 85488, Note_on_c, 0, 71, 0
2, 85488, Note_on_c, 0, 62, 0
2, 85488, Note_on_c, 0, 65, 96
2, 85536, Note_on_c, 0, 52, 0
2, 85536, Note_on_c, 0, 40, 0
2, 85536, Note_on_c, 0, 65, 0
2, 85536, Note_on_c, 0, 53, 107
2, 85536, Note_on_c, 0, 41, 106
2, 85536, Note_on_c, 0, 62, 96
2, 85584, Note_on_c, 0, 62, 0
2, 85584, Note_on_c, 0, 59, 89
2, 85632, Note_on_c, 0, 59, 0
2, 85632, Note_on_c, 0, 65, 127
2, 85632, Note_on_c, 0, 59, 123
2, 85680, Note_on_c, 0, 65, 0
2, 85680, Note_on_c, 0, 59, 0
2, 85680, Note_on_c, 0, 62, 94
2, 85728, Note_on_c, 0, 53, 0
2, 85728, Note_on_c, 0, 41, 0
2, 85728, Note_on_c, 0, 62, 0
2, 85728, Note_on_c, 0, 59, 92
2, 85776, Note_on_c, 0, 59, 0
2, 85776, Note_on_c, 0, 53, 89
2, 85824, Note_on_c, 0, 53, 0
2, 85824, Note_on_c, 0, 44, 110
2, 85824, Note_on_c, 0, 59, 91
2, 85824, Note_on_c, 0, 65, 93
2, 85824, Control_c, 0, 64, 127
2, 85824, Note_on_c, 0, 32, 105
2, 85872, Note_on_c, 0, 59, 0
2, 85872, Note_on_c, 0, 65, 0
2, 85872, Note_on_c, 0, 62, 90
2, 85920, Note_on_c, 0, 62, 0
2, 85920, Note_on_c, 0, 59, 91
2, 85968, Note_on_c, 0, 59, 0
2, 85968, Note_on_c, 0, 52, 88
2, 86016, Note_on_c, 0, 52, 0
2, 86016, Note_on_c, 0, 65, 122
2, 86016, Note_on_c, 0, 59, 123
2, 86016, Control_c, 0, 64, 0
2, 86064, Note_on_c, 0, 65, 0
2, 86064, Note_on_c, 0, 59, 0
2, 86064, Note_on_c, 0, 62, 97
2, 86112, Note_on_c, 0, 62, 0
2, 86112, Note_on_c, 0, 59, 94
2, 86112, Control_c, 0, 64, 127
2, 86160, Note_on_c, 0, 59, 0
2, 86160, Note_on_c, 0, 52, 94
2, 86208, Note_on_c, 0, 44, 0
2, 86208, Note_on_c, 0, 32, 0
2, 86208, Note_on_c, 0, 52, 0
2, 86208, Note_on_c, 0, 48, 104
2, 86208, Note_on_c, 0, 36, 107
2, 86208, Note_on_c, 0, 56, 92
2, 86208, Note_on_c, 0, 64, 94
2, 86256, Note_on_c, 0, 56, 0
2, 86256, Note_on_c, 0, 64, 0
2, 86256, Note_on_c, 0, 62, 92
2, 86304, Note_on_c, 0, 48, 0
2, 86304, Note_on_c, 0, 36, 0
2, 86304, Note_on_c, 0, 62, 0
2, 86304, Note_on_c, 0, 47, 110
2, 86304, Note_on_c, 0, 35, 112
2, 86304, Note_on_c, 0, 56, 88
2, 86304, Control_c, 0, 64, 0
2, 86352, Note_on_c, 0, 56, 0
2, 86352, Note_on_c, 0, 52, 95
2, 86400, Note_on_c, 0, 47, 0
2, 86400, Note_on_c, 0, 35, 0
2, 86400, Note_on_c, 0, 52, 0
2, 86400, Note_on_c, 0, 89, 126
2, 86400, Control_c, 0, 64, 127
2, 86400, Note_on_c, 0, 45, 104
2, 86400, Note_on_c, 0, 93, 127
2, 86400, Note_on_c, 0, 33, 105
2, 86448, Note_on_c, 0, 89, 0
2, 86448, Note_on_c, 0, 93, 0
2, 86448, Note_on_c, 0, 88, 103
2, 86496, Note_on_c, 0, 45, 0
2, 86496, Note_on_c, 0, 33, 0
2, 86496, Note_on_c, 0, 88, 0
2, 86496, Note_on_c, 0, 52, 103
2, 86496, Note_on_c, 0, 84, 104
2, 86496, Note_on_c, 0, 40, 107
2, 86544, Note_on_c, 0, 84, 0
2, 86544, Note_on_c, 0, 81, 106
2, 86592, Note_on_c, 0, 52, 0
2, 86592, Note_on_c, 0, 40, 0
2, 86592, Note_on_c, 0, 81, 0
2, 86592, Control_c, 0, 64, 0
2, 86592, Note_on_c, 0, 47, 107
2, 86592, Note_on_c, 0, 59, 107
2, 86592, Note_on_c, 0, 77, 105
2, 86592, Note_on_c, 0, 81, 102
2, 86640, Note_on_c, 0, 77, 0
2, 86640, Note_on_c, 0, 81, 0
2, 86640, Note_on_c, 0, 76, 108
2, 86688, Note_on_c, 0, 47, 0
2, 86688, Note_on_c, 0, 59, 0
2, 86688, Note_on_c, 0, 76, 0
2, 86688, Note_on_c, 0, 60, 104
2, 86688, Note_on_c, 0, 48, 113
2, 86688, Note_on_c, 0, 72, 103
2, 86688, Control_c, 0, 64, 127
2, 86736, Note_on_c, 0, 72, 0
2, 86736, Note_on_c, 0, 69, 107
2, 86784, Note_on_c, 0, 69, 0
2, 86784, Note_on_c, 0, 69, 96
2, 86784, Note_on_c, 0, 65, 95
2, 86832, Note_on_c, 0, 69, 0
2, 86832, Note_on_c, 0, 65, 0
2, 86832, Note_on_c, 0, 64, 101
2, 86880, Note_on_c, 0, 60, 0
2, 86880, Note_on_c, 0, 48, 0
2, 86880, Note_on_c, 0, 64, 0
2, 86880, Note_on_c, 0, 60, 95
2, 86880, Control_c, 0, 64, 0
2, 86928, Note_on_c, 0, 60, 0
2, 86928, Note_on_c, 0, 57, 93
2, 86976, Note_on_c, 0, 57, 0
2, 86976, Control_c, 0, 64, 127
2, 86976, Note_on_c, 0, 53, 90
2, 86976, Note_on_c, 0, 56, 89
2, 87024, Note_on_c, 0, 53, 0
2, 87024, Note_on_c, 0, 56, 0
2, 87024, Note_on_c, 0, 59, 93
2, 87024, Note_on_c, 0, 50, 95
2, 87024, Note_on_c, 0, 68, 97
2, 87072, Note_on_c, 0, 59, 0
2, 87072, Note_on_c, 0, 50, 0
2, 87072, Note_on_c, 0, 68, 0
2, 87072, Note_on_c, 0, 45, 99
2, 87072, Note_on_c, 0, 59, 92
2, 87120, Note_on_c, 0, 45, 0
2, 87120, Note_on_c, 0, 59, 0
2, 87120, Note_on_c, 0, 71, 94
2, 87120, Note_on_c, 0, 56, 98
2, 87120, Note_on_c, 0, 62, 95
2, 87168, Note_on_c, 0, 71, 0
2, 87168, Note_on_c, 0, 56, 0
2, 87168, Note_on_c, 0, 62, 0
2, 87168, Note_on_c, 0, 62, 90
2, 87168, Note_on_c, 0, 53, 100
2, 87216, Note_on_c, 0, 62, 0
2, 87216, Note_on_c, 0, 53, 0
2, 87216, Note_on_c, 0, 65, 92
2, 87216, Note_on_c, 0, 74, 99
2, 87216, Note_on_c, 0, 45, 104
2, 87264, Note_on_c, 0, 65, 0
2, 87264, Note_on_c, 0, 74, 0
2, 87264, Note_on_c, 0, 45, 0
2, 87264, Note_on_c, 0, 65, 101
2, 87264, Note_on_c, 0, 59, 100
2, 87312, Note_on_c, 0, 65, 0
2, 87312, Note_on_c, 0, 59, 0
2, 87312, Note_on_c, 0, 68, 93
2, 87312, Note_on_c, 0, 77, 99
2, 87312, Note_on_c, 0, 53, 106
2, 87360, Note_on_c, 0, 68, 0
2, 87360, Note_on_c, 0, 77, 0
2, 87360, Note_on_c, 0, 53, 0
2, 87360, Note_on_c, 0, 45, 105
2, 87360, Note_on_c, 0, 68, 98
2, 87408, Note_on_c, 0, 45, 0
2, 87408, Note_on_c, 0, 68, 0
2, 87408, Note_on_c, 0, 80, 97
2, 87408, Note_on_c, 0, 62, 103
2, 87408, Note_on_c, 0, 71, 104
2, 87456, Note_on_c, 0, 80, 0
2, 87456, Note_on_c, 0, 62, 0
2, 87456, Note_on_c, 0, 71, 0
2, 87456, Note_on_c, 0, 71, 109
2, 87504, Note_on_c, 0, 71, 0
2, 87504, Note_on_c, 0, 83, 111
2, 87504, Control_c, 0, 64, 0
2, 87504, Note_on_c, 0, 74, 111
2, 87552, Note_on_c, 0, 83, 0
2, 87552, Note_on_c, 0, 74, 0
2, 87552, Control_c, 0, 64, 127
2, 87552, Note_on_c, 0, 45, 93
2, 87552, Note_on_c, 0, 93, 126
2, 87552, Note_on_c, 0, 33, 88
2, 87552, Note_on_c, 0, 89, 127
2, 87600, Note_on_c, 0, 93, 0
2, 87600, Note_on_c, 0, 89, 0
2, 87600, Note_on_c, 0, 88, 110
2, 87648, Note_on_c, 0, 45, 0
2, 87648, Note_on_c, 0, 33, 0
2, 87648, Note_on_c, 0, 88, 0
2, 87648, Note_on_c, 0, 52, 97
2, 87648, Note_on_c, 0, 40, 92
2, 87648, Note_on_c, 0, 84, 105
2, 87696, Note_on_c, 0, 84, 0
2, 87696, Note_on_c, 0, 81, 106
2, 87744, Note_on_c, 0, 52, 0
2, 87744, Note_on_c, 0, 40, 0
2, 87744, Note_on_c, 0, 81, 0
2, 87744, Note_on_c, 0, 47, 105
2, 87744, Note_on_c, 0, 59, 104
2, 87744, Note_on_c, 0, 81, 105
2, 87744, Note_on_c, 0, 77, 103
2, 87744, Control_c, 0, 64, 0
2, 87792, Note_on_c, 0, 81, 0
2, 87792, Note_on_c, 0, 77, 0
2, 87792, Note_on_c, 0, 76, 103
2, 87840, Note_on_c, 0, 47, 0
2, 87840, Note_on_c, 0, 59, 0
2, 87840, Note_on_c, 0, 76, 0
2, 87840, Control_c, 0, 64, 127
2, 87840, Note_on_c, 0, 48, 106
2, 87840, Note_on_c, 0, 60, 108
2, 87840, Note_on_c, 0, 72, 108
2, 87888, Note_on_c, 0, 72, 0
2, 87888, Note_on_c, 0, 69, 107
2, 87936, Note_on_c, 0, 69, 0
2, 87936, Note_on_c, 0, 69, 101
2, 87936, Note_on_c, 0, 65, 99
2, 87984, Note_on_c, 0, 69, 0
2, 87984, Note_on_c, 0, 65, 0
2, 87984, Note_on_c, 0, 64, 98
2, 88032, Note_on_c, 0, 48, 0
2, 88032, Note_on_c, 0, 60, 0
2, 88032, Note_on_c, 0, 64, 0
2, 88032, Note_on_c, 0, 60, 99
2, 88032, Control_c, 0, 64, 0
2, 88080, Note_on_c, 0, 60, 0
2, 88080, Note_on_c, 0, 57, 93
2, 88128, Note_on_c, 0, 57, 0
2, 88128, Note_on_c, 0, 56, 87
2, 88128, Control_c, 0, 64, 127
2, 88128, Note_on_c, 0, 59, 87
2, 88176, Note_on_c, 0, 56, 0
2, 88176, Note_on_c, 0, 59, 0
2, 88176, Note_on_c, 0, 62, 96
2, 88176, Note_on_c, 0, 71, 89
2, 88176, Note_on_c, 0, 53, 97
2, 88224, Note_on_c, 0, 62, 0
2, 88224, Note_on_c, 0, 71, 0
2, 88224, Note_on_c, 0, 53, 0
2, 88224, Note_on_c, 0, 45, 97
2, 88224, Note_on_c, 0, 62, 92
2, 88272, Note_on_c, 0, 45, 0
2, 88272, Note_on_c, 0, 62, 0
2, 88272, Note_on_c, 0, 65, 94
2, 88272, Note_on_c, 0, 59, 87
2, 88272, Note_on_c, 0, 74, 90
2, 88320, Note_on_c, 0, 65, 0
2, 88320, Note_on_c, 0, 59, 0
2, 88320, Note_on_c, 0, 74, 0
2, 88320, Note_on_c, 0, 53, 89
2, 88320, Note_on_c, 0, 65, 99
2, 88368, Note_on_c, 0, 53, 0
2, 88368, Note_on_c, 0, 65, 0
2, 88368, Note_on_c, 0, 77, 95
2, 88368, Note_on_c, 0, 68, 91
2, 88368, Note_on_c, 0, 45, 97
2, 88416, Note_on_c, 0, 77, 0
2, 88416, Note_on_c, 0, 68, 0
2, 88416, Note_on_c, 0, 45, 0
2, 88416, Note_on_c, 0, 62, 94
2, 88416, Note_on_c, 0, 68, 99
2, 88464, Note_on_c, 0, 62, 0
2, 88464, Note_on_c, 0, 68, 0
2, 88464, Note_on_c, 0, 53, 91
2, 88464, Note_on_c, 0, 80, 102
2, 88464, Note_on_c, 0, 71, 95
2, 88512, Note_on_c, 0, 53, 0
2, 88512, Note_on_c, 0, 80, 0
2, 88512, Note_on_c, 0, 71, 0
2, 88512, Note_on_c, 0, 71, 99
2, 88512, Note_on_c, 0, 45, 94
2, 88560, Note_on_c, 0, 71, 0
2, 88560, Note_on_c, 0, 45, 0
2, 88560, Note_on_c, 0, 65, 112
2, 88560, Note_on_c, 0, 83, 102
2, 88560, Note_on_c, 0, 74, 102
2, 88608, Note_on_c, 0, 65, 0
2, 88608, Note_on_c, 0, 83, 0
2, 88608, Note_on_c, 0, 74, 0
2, 88608, Note_on_c, 0, 74, 106
2, 88656, Note_on_c, 0, 74, 0
2, 88656, Note_on_c, 0, 77, 105
2, 88656, Note_on_c, 0, 86, 103
2, 88656, Control_c, 0, 64, 0
2, 88704, Note_on_c, 0, 77, 0
2, 88704, Note_on_c, 0, 86, 0
2, 88704, Note_on_c, 0, 93, 127
2, 88704, Note_on_c, 0, 100, 127
2, 88704, Note_on_c, 0, 45, 88
2, 88704, Control_c, 0, 64, 127
2, 88704, Note_on_c, 0, 33, 89
2, 88752, Note_on_c, 0, 93, 0
2, 88752, Note_on_c, 0, 100, 0
2, 88752, Note_on_c, 0, 96, 109
2, 88800, Note_on_c, 0, 45, 0
2, 88800, Note_on_c, 0, 33, 0
2, 88800, Note_on_c, 0, 96, 0
2, 88800, Note_on_c, 0, 52, 90
2, 88800, Note_on_c, 0, 93, 110
2, 88800, Note_on_c, 0, 40, 92
2, 88848, Note_on_c, 0, 93, 0
2, 88848, Note_on_c, 0, 88, 108
2, 88896, Note_on_c, 0, 52, 0
2, 88896, Note_on_c, 0, 40, 0
2, 88896, Note_on_c, 0, 88, 0
2, 88896, Control_c, 0, 64, 0
2, 88896, Note_on_c, 0, 88, 102
2, 88896, Note_on_c, 0, 56, 94
2, 88896, Note_on_c, 0, 96, 102
2, 88896, Note_on_c, 0, 44, 95
2, 88944, Note_on_c, 0, 88, 0
2, 88944, Note_on_c, 0, 96, 0
2, 88944, Note_on_c, 0, 93, 106
2, 88992, Note_on_c, 0, 56, 0
2, 88992, Note_on_c, 0, 44, 0
2, 88992, Note_on_c, 0, 93, 0
2, 88992, Control_c, 0, 64, 127
2, 88992, Note_on_c, 0, 47, 94
2, 88992, Note_on_c, 0, 88, 106
2, 88992, Note_on_c, 0, 59, 94
2, 89040, Note_on_c, 0, 88, 0
2, 89040, Note_on_c, 0, 84, 97
2, 89088, Note_on_c, 0, 47, 0
2, 89088, Note_on_c, 0, 59, 0
2, 89088, Note_on_c, 0, 84, 0
2, 89088, Note_on_c, 0, 84, 103
2, 89088, Note_on_c, 0, 45, 100
2, 89088, Note_on_c, 0, 57, 101
2, 89088, Note_on_c, 0, 93, 99
2, 89136, Note_on_c, 0, 84, 0
2, 89136, Note_on_c, 0, 93, 0
2, 89136, Note_on_c, 0, 88, 96
2, 89184, Note_on_c, 0, 45, 0
2, 89184, Note_on_c, 0, 57, 0
2, 89184, Note_on_c, 0, 88, 0
2, 89184, Control_c, 0, 64, 0
2, 89184, Note_on_c, 0, 47, 102
2, 89184, Note_on_c, 0, 59, 105
2, 89184, Note_on_c, 0, 84, 97
2, 89232, Note_on_c, 0, 84, 0
2, 89232, Note_on_c, 0, 81, 92
2, 89280, Note_on_c, 0, 47, 0
2, 89280, Note_on_c, 0, 59, 0
2, 89280, Note_on_c, 0, 81, 0
2, 89280, Note_on_c, 0, 50, 114
2, 89280, Note_on_c, 0, 62, 115
2, 89280, Note_on_c, 0, 88, 92
2, 89280, Control_c, 0, 64, 127
2, 89280, Note_on_c, 0, 81, 88
2, 89328, Note_on_c, 0, 88, 0
2, 89328, Note_on_c, 0, 81, 0
2, 89328, Note_on_c, 0, 84, 97
2, 89376, Note_on_c, 0, 50, 0
2, 89376, Note_on_c, 0, 62, 0
2, 89376, Note_on_c, 0, 84, 0
2, 89376, Note_on_c, 0, 48, 120
2, 89376, Note_on_c, 0, 81, 90
2, 89376, Note_on_c, 0, 60, 119
2, 89424, Note_on_c, 0, 81, 0
2, 89424, Note_on_c, 0, 76, 87
2, 89472, Note_on_c, 0, 48, 0
2, 89472, Note_on_c, 0, 60, 0
2, 89472, Note_on_c, 0, 76, 0
2, 89472, Note_on_c, 0, 51, 124
2, 89472, Note_on_c, 0, 63, 120
2, 89472, Note_on_c, 0, 84, 92
2, 89472, Note_on_c, 0, 76, 89
2, 89472, Control_c, 0, 64, 0
2, 89520, Note_on_c, 0, 84, 0
2, 89520, Note_on_c, 0, 76, 0
2, 89520, Note_on_c, 0, 81, 97
2, 89568, Note_on_c, 0, 51, 0
2, 89568, Note_on_c, 0, 63, 0
2, 89568, Note_on_c, 0, 81, 0
2, 89568, Note_on_c, 0, 76, 96
2, 89568, Control_c, 0, 64, 127
2, 89568, Note_on_c, 0, 53, 125
2, 89568, Note_on_c, 0, 65, 126
2, 89616, Note_on_c, 0, 76, 0
2, 89616, Note_on_c, 0, 72, 93
2, 89664, Note_on_c, 0, 53, 0
2, 89664, Note_on_c, 0, 65, 0
2, 89664, Note_on_c, 0, 72, 0
2, 89664, Note_on_c, 0, 52, 127
2, 89664, Note_on_c, 0, 72, 91
2, 89664, Note_on_c, 0, 81, 88
2, 89664, Note_on_c, 0, 64, 127
2, 89712, Note_on_c, 0, 72, 0
2, 89712, Note_on_c, 0, 81, 0
2, 89712, Note_on_c, 0, 76, 93
2, 89760, Note_on_c, 0, 52, 0
2, 89760, Note_on_c, 0, 64, 0
2, 89760, Note_on_c, 0, 76, 0
2, 89760, Control_c, 0, 64, 0
2, 89760, Note_on_c, 0, 72, 87
2, 89808, Note_on_c, 0, 72, 0
2, 89808, Note_on_c, 0, 69, 97
2, 89856, Note_on_c, 0, 69, 0
2, 89856, Control_c, 0, 64, 127
2, 89856, Note_on_c, 0, 69, 91
2, 89856, Note_on_c, 0, 76, 94
2, 89856, Note_on_c, 0, 31, 107
2, 89856, Note_on_c, 0, 43, 109
2, 89904, Note_on_c, 0, 69, 0
2, 89904, Note_on_c, 0, 76, 0
2, 89904, Note_on_c, 0, 72, 97
2, 89952, Note_on_c, 0, 72, 0
2, 89952, Note_on_c, 0, 69, 88
2, 90000, Note_on_c, 0, 69, 0
2, 90000, Note_on_c, 0, 64, 97
2, 90048, Note_on_c, 0, 64, 0
2, 90048, Note_on_c, 0, 72, 87
2, 90048, Note_on_c, 0, 64, 94
2, 90048, Control_c, 0, 64, 0
2, 90096, Note_on_c, 0, 72, 0
2, 90096, Note_on_c, 0, 64, 0
2, 90096, Note_on_c, 0, 69, 96
2, 90144, Note_on_c, 0, 69, 0
2, 90144, Note_on_c, 0, 64, 95
2, 90144, Control_c, 0, 64, 127
2, 90192, Note_on_c, 0, 64, 0
2, 90192, Note_on_c, 0, 60, 91
2, 90240, Note_on_c, 0, 60, 0
2, 90240, Note_on_c, 0, 60, 89
2, 90240, Note_on_c, 0, 69, 92
2, 90288, Note_on_c, 0, 60, 0
2, 90288, Note_on_c, 0, 69, 0
2, 90288, Note_on_c, 0, 64, 90
2, 90336, Note_on_c, 0, 64, 0
2, 90336, Control_c, 0, 64, 0
2, 90336, Note_on_c, 0, 60, 89
2, 90384, Note_on_c, 0, 60, 0
2, 90384, Note_on_c, 0, 57, 92
2, 90432, Note_on_c, 0, 31, 0
2, 90432, Note_on_c, 0, 43, 0
2, 90432, Note_on_c, 0, 57, 0
2, 90432, Note_on_c, 0, 64, 91
2, 90432, Note_on_c, 0, 57, 82
2, 90432, Note_on_c, 0, 30, 106
2, 90432, Note_on_c, 0, 42, 108
2, 90432, Control_c, 0, 64, 127
2, 90480, Note_on_c, 0, 64, 0
2, 90480, Note_on_c, 0, 57, 0
2, 90480, Note_on_c, 0, 60, 90
2, 90528, Note_on_c, 0, 60, 0
2, 90528, Note_on_c, 0, 57, 80
2, 90576, Note_on_c, 0, 57, 0
2, 90576, Note_on_c, 0, 52, 82
2, 90624, Note_on_c, 0, 52, 0
2, 90624, Note_on_c, 0, 69, 80
2, 90624, Control_c, 0, 64, 0
2, 90624, Note_on_c, 0, 60, 87
2, 90672, Note_on_c, 0, 69, 0
2, 90672, Note_on_c, 0, 60, 0
2, 90672, Note_on_c, 0, 64, 79
2, 90720, Note_on_c, 0, 30, 0
2, 90720, Note_on_c, 0, 42, 0
2, 90720, Note_on_c, 0, 64, 0
2, 90720, Note_on_c, 0, 60, 82
2, 90720, Note_on_c, 0, 41, 103
2, 90720, Control_c, 0, 64, 127
2, 90720, Note_on_c, 0, 29, 105
2, 90768, Note_on_c, 0, 60, 0
2, 90768, Note_on_c, 0, 57, 79
2, 90816, Note_on_c, 0, 57, 0
2, 90816, Note_on_c, 0, 64, 80
2, 90816, Note_on_c, 0, 57, 84
2, 90864, Note_on_c, 0, 64, 0
2, 90864, Note_on_c, 0, 57, 0
2, 90864, Note_on_c, 0, 60, 80
2, 90912, Note_on_c, 0, 60, 0
2, 90912, Control_c, 0, 64, 0
2, 90912, Note_on_c, 0, 57, 73
2, 90960, Note_on_c, 0, 57, 0
2, 90960, Note_on_c, 0, 52, 81
2, 91008, Note_on_c, 0, 41, 0
2, 91008, Note_on_c, 0, 29, 0
2, 91008, Note_on_c, 0, 52, 0
2, 91008, Note_on_c, 0, 40, 105
2, 91008, Note_on_c, 0, 64, 77
2, 91008, Note_on_c, 0, 60, 71
2, 91008, Note_on_c, 0, 28, 111
2, 91008, Control_c, 0, 64, 127
2, 91056, Note_on_c, 0, 64, 0
2, 91056, Note_on_c, 0, 60, 0
2, 91056, Note_on_c, 0, 59, 78
2, 91056, Note_on_c, 0, 65, 70
2, 91104, Note_on_c, 0, 59, 0
2, 91104, Note_on_c, 0, 65, 0
2, 91104, Note_on_c, 0, 64, 80
2, 91104, Note_on_c, 0, 60, 70
2, 91152, Note_on_c, 0, 64, 0
2, 91152, Note_on_c, 0, 60, 0
2, 91152, Note_on_c, 0, 57, 71
2, 91152, Note_on_c, 0, 65, 80
2, 91200, Note_on_c, 0, 57, 0
2, 91200, Note_on_c, 0, 65, 0
2, 91200, Note_on_c, 0, 64, 78
2, 91200, Note_on_c, 0, 60, 70
2, 91200, Control_c, 0, 64, 0
2, 91248, Note_on_c, 0, 64, 0
2, 91248, Note_on_c, 0, 60, 0
2, 91248, Note_on_c, 0, 59, 77
2, 91248, Note_on_c, 0, 65, 75
2, 91296, Note_on_c, 0, 40, 0
2, 91296, Note_on_c, 0, 28, 0
2, 91296, Note_on_c, 0, 59, 0
2, 91296, Note_on_c, 0, 65, 0
2, 91296, Control_c, 0, 64, 127
2, 91296, Note_on_c, 0, 52, 104
2, 91296, Note_on_c, 0, 40, 107
2, 91296, Note_on_c, 0, 60, 75
2, 91296, Note_on_c, 0, 64, 79
2, 91344, Note_on_c, 0, 60, 0
2, 91344, Note_on_c, 0, 64, 0
2, 91344, Note_on_c, 0, 57, 75
2, 91344, Note_on_c, 0, 65, 80
2, 91392, Note_on_c, 0, 57, 0
2, 91392, Note_on_c, 0, 65, 0
2, 91392, Note_on_c, 0, 64, 70
2, 91392, Note_on_c, 0, 60, 78
2, 91440, Note_on_c, 0, 64, 0
2, 91440, Note_on_c, 0, 60, 0
2, 91440, Note_on_c, 0, 59, 72
2, 91440, Note_on_c, 0, 65, 79
2, 91488, Note_on_c, 0, 52, 0
2, 91488, Note_on_c, 0, 40, 0
2, 91488, Note_on_c, 0, 59, 0
2, 91488, Note_on_c, 0, 65, 0
2, 91488, Control_c, 0, 64, 0
2, 91488, Note_on_c, 0, 60, 77
2, 91488, Note_on_c, 0, 64, 78
2, 91488, Note_on_c, 0, 52, 112
2, 91488, Note_on_c, 0, 40, 106
2, 91536, Note_on_c, 0, 60, 0
2, 91536, Note_on_c, 0, 64, 0
2, 91536, Note_on_c, 0, 57, 79
2, 91536, Note_on_c, 0, 65, 77
2, 91584, Note_on_c, 0, 52, 0
2, 91584, Note_on_c, 0, 40, 0
2, 91584, Note_on_c, 0, 57, 0
2, 91584, Note_on_c, 0, 65, 0
2, 91584, Note_on_c, 0, 48, 112
2, 91584, Note_on_c, 0, 60, 76
2, 91584, Note_on_c, 0, 36, 108
2, 91584, Control_c, 0, 64, 127
2, 91584, Note_on_c, 0, 64, 73
2, 91632, Note_on_c, 0, 60, 0
2, 91632, Note_on_c, 0, 64, 0
2, 91632, Note_on_c, 0, 59, 74
2, 91632, Note_on_c, 0, 65, 75
2, 91680, Note_on_c, 0, 59, 0
2, 91680, Note_on_c, 0, 65, 0
2, 91680, Note_on_c, 0, 60, 80
2, 91680, Note_on_c, 0, 64, 78
2, 91728, Note_on_c, 0, 48, 0
2, 91728, Note_on_c, 0, 36, 0
2, 91728, Note_on_c, 0, 60, 0
2, 91728, Note_on_c, 0, 64, 0
2, 91728, Note_on_c, 0, 57, 74
2, 91728, Note_on_c, 0, 65, 80
2, 91728, Note_on_c, 0, 35, 110
2, 91728, Note_on_c, 0, 47, 113
2, 91776, Note_on_c, 0, 57, 0
2, 91776, Note_on_c, 0, 65, 0
2, 91776, Note_on_c, 0, 35, 0
2, 91776, Note_on_c, 0, 47, 0
2, 91776, Control_c, 0, 64, 0
2, 91776, Note_on_c, 0, 33, 110
2, 91776, Note_on_c, 0, 45, 113
2, 91776, Note_on_c, 0, 60, 77
2, 91776, Note_on_c, 0, 64, 73
2, 91824, Note_on_c, 0, 60, 0
2, 91824, Note_on_c, 0, 64, 0
2, 91824, Note_on_c, 0, 59, 80
2, 91824, Note_on_c, 0, 65, 76
2, 91872, Note_on_c, 0, 33, 0
2, 91872, Note_on_c, 0, 45, 0
2, 91872, Note_on_c, 0, 59, 0
2, 91872, Note_on_c, 0, 65, 0
2, 91872, Note_on_c, 0, 60, 73
2, 91872, Note_on_c, 0, 52, 113
2, 91872, Note_on_c, 0, 40, 113
2, 91872, Note_on_c, 0, 64, 74
2, 91872, Control_c, 0, 64, 127
2, 91920, Note_on_c, 0, 60, 0
2, 91920, Note_on_c, 0, 64, 0
2, 91920, Note_on_c, 0, 57, 80
2, 91920, Note_on_c, 0, 65, 72
2, 91968, Note_on_c, 0, 57, 0
2, 91968, Note_on_c, 0, 65, 0
2, 91968, Note_on_c, 0, 60, 77
2, 91968, Note_on_c, 0, 64, 80
2, 92016, Note_on_c, 0, 60, 0
2, 92016, Note_on_c, 0, 64, 0
2, 92016, Note_on_c, 0, 59, 73
2, 92016, Note_on_c, 0, 65, 76
2, 92064, Note_on_c, 0, 59, 0
2, 92064, Note_on_c, 0, 65, 0
2, 92064, Control_c, 0, 64, 0
2, 92064, Note_on_c, 0, 64, 72
2, 92064, Note_on_c, 0, 60, 70
2, 92112, Note_on_c, 0, 64, 0
2, 92112, Note_on_c, 0, 60, 0
2, 92112, Note_on_c, 0, 65, 79
2, 92112, Note_on_c, 0, 57, 72
2, 92160, Note_on_c, 0, 52, 0
2, 92160, Note_on_c, 0, 40, 0
2, 92160, Note_on_c, 0, 65, 0
2, 92160, Note_on_c, 0, 57, 0
2, 92160, Note_on_c, 0, 40, 127
2, 92160, Note_on_c, 0, 60, 72
2, 92160, Note_on_c, 0, 63, 75
2, 92160, Note_on_c, 0, 28, 127
2, 92160, Control_c, 0, 64, 127
2, 92208, Note_on_c, 0, 60, 0
2, 92208, Note_on_c, 0, 63, 0
2, 92208, Note_on_c, 0, 66, 71
2, 92208, Note_on_c, 0, 59, 73
2, 92256, Note_on_c, 0, 66, 0
2, 92256, Note_on_c, 0, 59, 0
2, 92256, Note_on_c, 0, 63, 76
2, 92256, Note_on_c, 0, 60, 79
2, 92304, Note_on_c, 0, 63, 0
2, 92304, Note_on_c, 0, 60, 0
2, 92304, Note_on_c, 0, 57, 78
2, 92304, Note_on_c, 0, 66, 71
2, 92352, Note_on_c, 0, 57, 0
2, 92352, Note_on_c, 0, 66, 0
2, 92352, Note_on_c, 0, 60, 71
2, 92352, Note_on_c, 0, 63, 72
2, 92352, Control_c, 0, 64, 0
2, 92400, Note_on_c, 0, 60, 0
2, 92400, Note_on_c, 0, 63, 0
2, 92400, Note_on_c, 0, 57, 71
2, 92400, Note_on_c, 0, 66, 80
2, 92448, Note_on_c, 0, 40, 0
2, 92448, Note_on_c, 0, 28, 0
2, 92448, Note_on_c, 0, 57, 0
2, 92448, Note_on_c, 0, 66, 0
2, 92448, Note_on_c, 0, 60, 70
2, 92448, Note_on_c, 0, 63, 77
2, 92448, Note_on_c, 0, 52, 104
2, 92448, Control_c, 0, 64, 127
2, 92448, Note_on_c, 0, 40, 106
2, 92496, Note_on_c, 0, 60, 0
2, 92496, Note_on_c, 0, 63, 0
2, 92496, Note_on_c, 0, 57, 80
2, 92496, Note_on_c, 0, 66, 72
2, 92544, Note_on_c, 0, 57, 0
2, 92544, Note_on_c, 0, 66, 0
2, 92544, Note_on_c, 0, 60, 76
2, 92544, Note_on_c, 0, 63, 70
2, 92592, Note_on_c, 0, 60, 0
2, 92592, Note_on_c, 0, 63, 0
2, 92592, Note_on_c, 0, 66, 71
2, 92592, Note_on_c, 0, 57, 74
2, 92640, Note_on_c, 0, 52, 0
2, 92640, Note_on_c, 0, 40, 0
2, 92640, Note_on_c, 0, 66, 0
2, 92640, Note_on_c, 0, 57, 0
2, 92640, Note_on_c, 0, 52, 106
2, 92640, Note_on_c, 0, 60, 71
2, 92640, Control_c, 0, 64, 0
2, 92640, Note_on_c, 0, 63, 71
2, 92640, Note_on_c, 0, 40, 105
2, 92688, Note_on_c, 0, 60, 0
2, 92688, Note_on_c, 0, 63, 0
2, 92688, Note_on_c, 0, 57, 75
2, 92688, Note_on_c, 0, 66, 76
2, 92736, Note_on_c, 0, 52, 0
2, 92736, Note_on_c, 0, 40, 0
2, 92736, Note_on_c, 0, 57, 0
2, 92736, Note_on_c, 0, 66, 0
2, 92736, Control_c, 0, 64, 127
2, 92736, Note_on_c, 0, 48, 108
2, 92736, Note_on_c, 0, 36, 106
2, 92736, Note_on_c, 0, 63, 80
2, 92736, Note_on_c, 0, 60, 79
2, 92784, Note_on_c, 0, 63, 0
2, 92784, Note_on_c, 0, 60, 0
2, 92784, Note_on_c, 0, 66, 72
2, 92784, Note_on_c, 0, 59, 75
2, 92832, Note_on_c, 0, 66, 0
2, 92832, Note_on_c, 0, 59, 0
2, 92832, Note_on_c, 0, 63, 72
2, 92832, Note_on_c, 0, 60, 78
2, 92880, Note_on_c, 0, 48, 0
2, 92880, Note_on_c, 0, 36, 0
2, 92880, Note_on_c, 0, 63, 0
2, 92880, Note_on_c, 0, 60, 0
2, 92880, Note_on_c, 0, 66, 73
2, 92880, Note_on_c, 0, 35, 113
2, 92880, Note_on_c, 0, 47, 106
2, 92880, Note_on_c, 0, 57, 71
2, 92928, Note_on_c, 0, 66, 0
2, 92928, Note_on_c, 0, 35, 0
2, 92928, Note_on_c, 0, 47, 0
2, 92928, Note_on_c, 0, 57, 0
2, 92928, Control_c, 0, 64, 0
2, 92928, Note_on_c, 0, 60, 72
2, 92928, Note_on_c, 0, 63, 74
2, 92928, Note_on_c, 0, 33, 104
2, 92928, Note_on_c, 0, 45, 110
2, 92976, Note_on_c, 0, 60, 0
2, 92976, Note_on_c, 0, 63, 0
2, 92976, Note_on_c, 0, 57, 79
2, 92976, Note_on_c, 0, 66, 72
2, 93024, Note_on_c, 0, 33, 0
2, 93024, Note_on_c, 0, 45, 0
2, 93024, Note_on_c, 0, 57, 0
2, 93024, Note_on_c, 0, 66, 0
2, 93024, Note_on_c, 0, 63, 72
2, 93024, Note_on_c, 0, 40, 113
2, 93024, Note_on_c, 0, 52, 109
2, 93024, Note_on_c, 0, 60, 71
2, 93024, Control_c, 0, 64, 127
2, 93072, Note_on_c, 0, 63, 0
2, 93072, Note_on_c, 0, 60, 0
2, 93072, Note_on_c, 0, 57, 76
2, 93072, Note_on_c, 0, 66, 79
2, 93120, Note_on_c, 0, 57, 0
2, 93120, Note_on_c, 0, 66, 0
2, 93120, Note_on_c, 0, 60, 71
2, 93120, Note_on_c, 0, 63, 72
2, 93168, Note_on_c, 0, 60, 0
2, 93168, Note_on_c, 0, 63, 0
2, 93168, Note_on_c, 0, 57, 78
2, 93168, Note_on_c, 0, 66, 80
2, 93216, Note_on_c, 0, 40, 0
2, 93216, Note_on_c, 0, 52, 0
2, 93216, Note_on_c, 0, 57, 0
2, 93216, Note_on_c, 0, 66, 0
2, 93216, Note_on_c, 0, 60, 72
2, 93216, Control_c, 0, 64, 0
2, 93216, Note_on_c, 0, 63, 76
2, 93264, Note_on_c, 0, 60, 0
2, 93264, Note_on_c, 0, 63, 0
2, 93264, Note_on_c, 0, 57, 80
2, 93264, Note_on_c, 0, 66, 76
2, 93312, Note_on_c, 0, 57, 0
2, 93312, Note_on_c, 0, 66, 0
2, 93312, Note_on_c, 0, 40, 124
2, 93312, Note_on_c, 0, 60, 75
2, 93312, Note_on_c, 0, 64, 72
2, 93312, Control_c, 0, 64, 127
2, 93312, Note_on_c, 0, 28, 127
2, 93360, Note_on_c, 0, 60, 0
2, 93360, Note_on_c, 0, 64, 0
2, 93360, Note_on_c, 0, 59, 80
2, 93360, Note_on_c, 0, 69, 73
2, 93408, Note_on_c, 0, 59, 0
2, 93408, Note_on_c, 0, 69, 0
2, 93408, Note_on_c, 0, 60, 73
2, 93408, Note_on_c, 0, 64, 77
2, 93456, Note_on_c, 0, 60, 0
2, 93456, Note_on_c, 0, 64, 0
2, 93456, Note_on_c, 0, 57, 72
2, 93456, Note_on_c, 0, 69, 71
2, 93504, Note_on_c, 0, 57, 0
2, 93504, Note_on_c, 0, 69, 0
2, 93504, Note_on_c, 0, 60, 75
2, 93504, Note_on_c, 0, 64, 72
2, 93504, Control_c, 0, 64, 0
2, 93552, Note_on_c, 0, 60, 0
2, 93552, Note_on_c, 0, 64, 0
2, 93552, Note_on_c, 0, 69, 71
2, 93552, Note_on_c, 0, 59, 80
2, 93600, Note_on_c, 0, 40, 0
2, 93600, Note_on_c, 0, 28, 0
2, 93600, Note_on_c, 0, 69, 0
2, 93600, Note_on_c, 0, 59, 0
2, 93600, Note_on_c, 0, 64, 79
2, 93600, Note_on_c, 0, 60, 73
2, 93600, Note_on_c, 0, 40, 112
2, 93600, Note_on_c, 0, 52, 107
2, 93600, Control_c, 0, 64, 127
2, 93648, Note_on_c, 0, 64, 0
2, 93648, Note_on_c, 0, 60, 0
2, 93648, Note_on_c, 0, 69, 73
2, 93648, Note_on_c, 0, 57, 73
2, 93696, Note_on_c, 0, 69, 0
2, 93696, Note_on_c, 0, 57, 0
2, 93696, Note_on_c, 0, 60, 77
2, 93696, Note_on_c, 0, 64, 76
2, 93744, Note_on_c, 0, 60, 0
2, 93744, Note_on_c, 0, 64, 0
2, 93744, Note_on_c, 0, 59, 72
2, 93744, Note_on_c, 0, 69, 80
2, 93792, Note_on_c, 0, 40, 0
2, 93792, Note_on_c, 0, 52, 0
2, 93792, Note_on_c, 0, 59, 0
2, 93792, Note_on_c, 0, 69, 0
2, 93792, Note_on_c, 0, 60, 71
2, 93792, Note_on_c, 0, 40, 113
2, 93792, Note_on_c, 0, 52, 112
2, 93792, Control_c, 0, 64, 0
2, 93792, Note_on_c, 0, 64, 79
2, 93840, Note_on_c, 0, 60, 0
2, 93840, Note_on_c, 0, 64, 0
2, 93840, Note_on_c, 0, 69, 75
2, 93840, Note_on_c, 0, 57, 79
2, 93888, Note_on_c, 0, 40, 0
2, 93888, Note_on_c, 0, 52, 0
2, 93888, Note_on_c, 0, 69, 0
2, 93888, Note_on_c, 0, 57, 0
2, 93888, Note_on_c, 0, 60, 74
2, 93888, Control_c, 0, 64, 127
2, 93888, Note_on_c, 0, 40, 112
2, 93888, Note_on_c, 0, 52, 105
2, 93888, Note_on_c, 0, 64, 79
2, 93936, Note_on_c, 0, 60, 0
2, 93936, Note_on_c, 0, 64, 0
2, 93936, Note_on_c, 0, 59, 70
2, 93936, Note_on_c, 0, 69, 76
2, 93984, Note_on_c, 0, 59, 0
2, 93984, Note_on_c, 0, 69, 0
2, 93984, Note_on_c, 0, 64, 74
2, 93984, Note_on_c, 0, 60, 79
2, 94032, Note_on_c, 0, 40, 0
2, 94032, Note_on_c, 0, 52, 0
2, 94032, Note_on_c, 0, 64, 0
2, 94032, Note_on_c, 0, 60, 0
2, 94032, Note_on_c, 0, 69, 72
2, 94032, Note_on_c, 0, 57, 80
2, 94032, Note_on_c, 0, 38, 109
2, 94032, Note_on_c, 0, 50, 110
2, 94080, Note_on_c, 0, 69, 0
2, 94080, Note_on_c, 0, 57, 0
2, 94080, Note_on_c, 0, 38, 0
2, 94080, Note_on_c, 0, 50, 0
2, 94080, Note_on_c, 0, 64, 79
2, 94080, Note_on_c, 0, 36, 106
2, 94080, Note_on_c, 0, 48, 105
2, 94080, Control_c, 0, 64, 0
2, 94080, Note_on_c, 0, 60, 75
2, 94128, Note_on_c, 0, 64, 0
2, 94128, Note_on_c, 0, 60, 0
2, 94128, Note_on_c, 0, 59, 78
2, 94128, Note_on_c, 0, 69, 73
2, 94176, Note_on_c, 0, 36, 0
2, 94176, Note_on_c, 0, 48, 0
2, 94176, Note_on_c, 0, 59, 0
2, 94176, Note_on_c, 0, 69, 0
2, 94176, Control_c, 0, 64, 127
2, 94176, Note_on_c, 0, 64, 80
2, 94176, Note_on_c, 0, 60, 80
2, 94176, Note_on_c, 0, 57, 113
2, 94176, Note_on_c, 0, 45, 106
2, 94224, Note_on_c, 0, 64, 0
2, 94224, Note_on_c, 0, 60, 0
2, 94224, Note_on_c, 0, 57, 74
2, 94224, Note_on_c, 0, 69, 83
2, 94272, Note_on_c, 0, 57, 0
2, 94272, Note_on_c, 0, 69, 0
2, 94272, Note_on_c, 0, 60, 84
2, 94272, Note_on_c, 0, 64, 83
2, 94320, Note_on_c, 0, 60, 0
2, 94320, Note_on_c, 0, 64, 0
2, 94320, Note_on_c, 0, 69, 75
2, 94320, Note_on_c, 0, 59, 75
2, 94368, Note_on_c, 0, 45, 0
2, 94368, Note_on_c, 0, 57, 0
2, 94368, Note_on_c, 0, 69, 0
2, 94368, Note_on_c, 0, 59, 0
2, 94368, Control_c, 0, 64, 0
2, 94368, Note_on_c, 0, 60, 79
2, 94368, Note_on_c, 0, 41, 112
2, 94368, Note_on_c, 0, 53, 105
2, 94368, Note_on_c, 0, 64, 83
2, 94416, Note_on_c, 0, 60, 0
2, 94416, Note_on_c, 0, 64, 0
2, 94416, Note_on_c, 0, 57, 82
2, 94416, Note_on_c, 0, 69, 83
2, 94464, Note_on_c, 0, 41, 0
2, 94464, Note_on_c, 0, 53, 0
2, 94464, Note_on_c, 0, 57, 0
2, 94464, Note_on_c, 0, 69, 0
2, 94464, Note_on_c, 0, 52, 110
2, 94464, Control_c, 0, 64, 127
2, 94464, Note_on_c, 0, 64, 85
2, 94464, Note_on_c, 0, 40, 113
2, 94464, Note_on_c, 0, 60, 85
2, 94512, Note_on_c, 0, 64, 0
2, 94512, Note_on_c, 0, 60, 0
2, 94512, Note_on_c, 0, 69, 87
2, 94512, Note_on_c, 0, 59, 86
2, 94560, Note_on_c, 0, 69, 0
2, 94560, Note_on_c, 0, 59, 0
2, 94560, Note_on_c, 0, 60, 90
2, 94560, Note_on_c, 0, 64, 87
2, 94608, Note_on_c, 0, 60, 0
2, 94608, Note_on_c, 0, 64, 0
2, 94608, Note_on_c, 0, 57, 81
2, 94608, Note_on_c, 0, 69, 89
2, 94656, Note_on_c, 0, 52, 0
2, 94656, Note_on_c, 0, 40, 0
2, 94656, Note_on_c, 0, 57, 0
2, 94656, Note_on_c, 0, 69, 0
2, 94656, Control_c, 0, 64, 0
2, 94656, Note_on_c, 0, 60, 82
2, 94656, Note_on_c, 0, 64, 86
2, 94656, Note_on_c, 0, 36, 105
2, 94656, Note_on_c, 0, 48, 106
2, 94704, Note_on_c, 0, 60, 0
2, 94704, Note_on_c, 0, 64, 0
2, 94704, Note_on_c, 0, 69, 89
2, 94704, Note_on_c, 0, 59, 90
2, 94752, Note_on_c, 0, 36, 0
2, 94752, Note_on_c, 0, 48, 0
2, 94752, Note_on_c, 0, 69, 0
2, 94752, Note_on_c, 0, 59, 0
2, 94752, Note_on_c, 0, 64, 85
2, 94752, Note_on_c, 0, 60, 90
2, 94752, Control_c, 0, 64, 127
2, 94752, Note_on_c, 0, 45, 105
2, 94752, Note_on_c, 0, 33, 105
2, 94800, Note_on_c, 0, 64, 0
2, 94800, Note_on_c, 0, 60, 0
2, 94800, Note_on_c, 0, 69, 87
2, 94800, Note_on_c, 0, 57, 86
2, 94848, Note_on_c, 0, 69, 0
2, 94848, Note_on_c, 0, 57, 0
2, 94848, Note_on_c, 0, 64, 88
2, 94848, Note_on_c, 0, 60, 94
2, 94896, Note_on_c, 0, 64, 0
2, 94896, Note_on_c, 0, 60, 0
2, 94896, Note_on_c, 0, 69, 94
2, 94896, Note_on_c, 0, 59, 96
2, 94944, Note_on_c, 0, 45, 0
2, 94944, Note_on_c, 0, 33, 0
2, 94944, Note_on_c, 0, 69, 0
2, 94944, Note_on_c, 0, 59, 0
2, 94944, Note_on_c, 0, 60, 92
2, 94944, Control_c, 0, 64, 0
2, 94944, Note_on_c, 0, 64, 90
2, 94944, Note_on_c, 0, 35, 107
2, 94944, Note_on_c, 0, 47, 107
2, 94992, Note_on_c, 0, 60, 0
2, 94992, Note_on_c, 0, 64, 0
2, 94992, Note_on_c, 0, 69, 94
2, 94992, Note_on_c, 0, 57, 91
2, 95040, Note_on_c, 0, 35, 0
2, 95040, Note_on_c, 0, 47, 0
2, 95040, Note_on_c, 0, 69, 0
2, 95040, Note_on_c, 0, 57, 0
2, 95040, Note_on_c, 0, 36, 108
2, 95040, Control_c, 0, 64, 127
2, 95040, Note_on_c, 0, 64, 90
2, 95040, Note_on_c, 0, 60, 100
2, 95040, Note_on_c, 0, 48, 109
2, 95088, Note_on_c, 0, 64, 0
2, 95088, Note_on_c, 0, 60, 0
2, 95088, Note_on_c, 0, 69, 94
2, 95088, Note_on_c, 0, 59, 95
2, 95136, Note_on_c, 0, 69, 0
2, 95136, Note_on_c, 0, 59, 0
2, 95136, Note_on_c, 0, 64, 97
2, 95136, Note_on_c, 0, 60, 99
2, 95184, Note_on_c, 0, 64, 0
2, 95184, Note_on_c, 0, 60, 0
2, 95184, Note_on_c, 0, 69, 99
2, 95184, Note_on_c, 0, 57, 101
2, 95232, Note_on_c, 0, 69, 0
2, 95232, Note_on_c, 0, 57, 0
2, 95232, Note_on_c, 0, 64, 103
2, 95232, Note_on_c, 0, 60, 101
2, 95232, Control_c, 0, 64, 0
2, 95280, Note_on_c, 0, 64, 0
2, 95280, Note_on_c, 0, 60, 0
2, 95280, Note_on_c, 0, 59, 98
2, 95280, Note_on_c, 0, 69, 105
2, 95328, Note_on_c, 0, 59, 0
2, 95328, Note_on_c, 0, 69, 0
2, 95328, Control_c, 0, 64, 127
2, 95328, Note_on_c, 0, 64, 100
2, 95328, Note_on_c, 0, 60, 101
2, 95376, Note_on_c, 0, 64, 0
2, 95376, Note_on_c, 0, 60, 0
2, 95376, Note_on_c, 0, 69, 98
2, 95376, Note_on_c, 0, 57, 102
2, 95424, Note_on_c, 0, 69, 0
2, 95424, Note_on_c, 0, 57, 0
2, 95424, Note_on_c, 0, 64, 108
2, 95424, Note_on_c, 0, 60, 101
2, 95472, Note_on_c, 0, 64, 0
2, 95472, Note_on_c, 0, 60, 0
2, 95472, Note_on_c, 0, 69, 103
2, 95472, Note_on_c, 0, 59, 100
2, 95520, Note_on_c, 0, 69, 0
2, 95520, Note_on_c, 0, 59, 0
2, 95520, Note_on_c, 0, 60, 107
2, 95520, Note_on_c, 0, 64, 108
2, 95520, Control_c, 0, 64, 0
2, 95568, Note_on_c, 0, 36, 0
2, 95568, Note_on_c, 0, 48, 0
2, 95568, Note_on_c, 0, 60, 0
2, 95568, Note_on_c, 0, 64, 0
2, 95568, Note_on_c, 0, 57, 110
2, 95568, Note_on_c, 0, 69, 102
2, 95568, Note_on_c, 0, 39, 112
2, 95584, Note_on_c, 0, 39, 0
2, 95584, Note_on_c, 0, 40, 113
2, 95600, Note_on_c, 0, 40, 0
2, 95600, Note_on_c, 0, 41, 105
2, 95616, Note_on_c, 0, 57, 0
2, 95616, Note_on_c, 0, 69, 0
2, 95616, Note_on_c, 0, 41, 0
2, 95616, Note_on_c, 0, 40, 93
2, 95616, Note_on_c, 0, 65, 112
2, 95616, Note_on_c, 0, 62, 104
2, 95616, Control_c, 0, 64, 127
2, 95664, Note_on_c, 0, 65, 0
2, 95664, Note_on_c, 0, 62, 0
2, 95664, Note_on_c, 0, 60, 107
2, 95664, Note_on_c, 0, 69, 104
2, 95712, Note_on_c, 0, 40, 0
2, 95712, Note_on_c, 0, 60, 0
2, 95712, Note_on_c, 0, 69, 0
2, 95712, Note_on_c, 0, 65, 108
2, 95712, Note_on_c, 0, 41, 88
2, 95712, Note_on_c, 0, 62, 111
2, 95744, Note_on_c, 0, 41, 0
2, 95744, Note_on_c, 0, 40, 93
2, 95760, Note_on_c, 0, 65, 0
2, 95760, Note_on_c, 0, 62, 0
2, 95760, Note_on_c, 0, 59, 113
2, 95760, Note_on_c, 0, 69, 113
2, 95776, Note_on_c, 0, 40, 0
2, 95776, Note_on_c, 0, 41, 96
2, 95808, Note_on_c, 0, 59, 0
2, 95808, Note_on_c, 0, 69, 0
2, 95808, Note_on_c, 0, 41, 0
2, 95808, Note_on_c, 0, 62, 107
2, 95808, Note_on_c, 0, 40, 91
2, 95808, Note_on_c, 0, 65, 111
2, 95840, Note_on_c, 0, 40, 0
2, 95840, Note_on_c, 0, 41, 96
2, 95856, Note_on_c, 0, 62, 0
2, 95856, Note_on_c, 0, 65, 0
2, 95856, Note_on_c, 0, 69, 111
2, 95856, Note_on_c, 0, 60, 108
2, 95872, Note_on_c, 0, 41, 0
2, 95872, Note_on_c, 0, 40, 94
2, 95904, Note_on_c, 0, 69, 0
2, 95904, Note_on_c, 0, 60, 0
2, 95904, Note_on_c, 0, 40, 0
2, 95904, Note_on_c, 0, 62, 105
2, 95904, Note_on_c, 0, 41, 94
2, 95904, Note_on_c, 0, 65, 109
2, 95936, Note_on_c, 0, 41, 0
2, 95936, Note_on_c, 0, 40, 90
2, 95952, Note_on_c, 0, 62, 0
2, 95952, Note_on_c, 0, 65, 0
2, 95952, Note_on_c, 0, 59, 110
2, 95952, Note_on_c, 0, 69, 104
2, 95968, Note_on_c, 0, 40, 0
2, 95968, Note_on_c, 0, 41, 96
2, 96000, Note_on_c, 0, 59, 0
2, 96000, Note_on_c, 0, 69, 0
2, 96000, Note_on_c, 0, 41, 0
2, 96000, Note_on_c, 0, 40, 93
2, 96000, Note_on_c, 0, 65, 103
2, 96000, Note_on_c, 0, 62, 112
2, 96032, Note_on_c, 0, 40, 0
2, 96032, Note_on_c, 0, 41, 87
2, 96048, Note_on_c, 0, 65, 0
2, 96048, Note_on_c, 0, 62, 0
2, 96048, Note_on_c, 0, 60, 112
2, 96048, Note_on_c, 0, 69, 109
2, 96064, Note_on_c, 0, 41, 0
2, 96064, Note_on_c, 0, 40, 93
2, 96096, Note_on_c, 0, 60, 0
2, 96096, Note_on_c, 0, 69, 0
2, 96096, Note_on_c, 0, 40, 0
2, 96096, Note_on_c, 0, 62, 103
2, 96096, Note_on_c, 0, 41, 89
2, 96096, Note_on_c, 0, 65, 105
2, 96128, Note_on_c, 0, 41, 0
2, 96128, Note_on_c, 0, 40, 97
2, 96144, Note_on_c, 0, 62, 0
2, 96144, Note_on_c, 0, 65, 0
2, 96144, Note_on_c, 0, 69, 111
2, 96144, Control_c, 0, 64, 0
2, 96144, Note_on_c, 0, 59, 111
2, 96160, Note_on_c, 0, 40, 0
2, 96160, Note_on_c, 0, 41, 89
2, 96192, Note_on_c, 0, 69, 0
2, 96192, Note_on_c, 0, 59, 0
2, 96192, Note_on_c, 0, 41, 0
2, 96192, Note_on_c, 0, 62, 111
2, 96192, Note_on_c, 0, 65, 109
2, 96192, Note_on_c, 0, 40, 96
2, 96192, Control_c, 0, 64, 127
2, 96224, Note_on_c, 0, 40, 0
2, 96224, Note_on_c, 0, 41, 89
2, 96240, Note_on_c, 0, 62, 0
2, 96240, Note_on_c, 0, 65, 0
2, 96240, Note_on_c, 0, 69, 104
2, 96240, Note_on_c, 0, 60, 104
2, 96256, Note_on_c, 0, 41, 0
2, 96256, Note_on_c, 0, 40, 97
2, 96288, Note_on_c, 0, 69, 0
2, 96288, Note_on_c, 0, 60, 0
2, 96288, Note_on_c, 0, 40, 0
2, 96288, Note_on_c, 0, 41, 94
2, 96288, Note_on_c, 0, 65, 105
2, 96288, Note_on_c, 0, 62, 107
2, 96320, Note_on_c, 0, 41, 0
2, 96320, Note_on_c, 0, 40, 89
2, 96336, Note_on_c, 0, 65, 0
2, 96336, Note_on_c, 0, 62, 0
2, 96336, Note_on_c, 0, 69, 105
2, 96336, Note_on_c, 0, 59, 109
2, 96352, Note_on_c, 0, 40, 0
2, 96352, Note_on_c, 0, 41, 88
2, 96384, Note_on_c, 0, 69, 0
2, 96384, Note_on_c, 0, 59, 0
2, 96384, Note_on_c, 0, 41, 0
2, 96384, Note_on_c, 0, 40, 97
2, 96384, Note_on_c, 0, 65, 107
2, 96384, Note_on_c, 0, 62, 103
2, 96416, Note_on_c, 0, 40, 0
2, 96416, Note_on_c, 0, 41, 93
2, 96432, Note_on_c, 0, 65, 0
2, 96432, Note_on_c, 0, 62, 0
2, 96432, Note_on_c, 0, 69, 110
2, 96432, Note_on_c, 0, 60, 111
2, 96448, Note_on_c, 0, 41, 0
2, 96448, Note_on_c, 0, 40, 94
2, 96480, Note_on_c, 0, 69, 0
2, 96480, Note_on_c, 0, 60, 0
2, 96480, Note_on_c, 0, 40, 0
2, 96480, Note_on_c, 0, 65, 103
2, 96480, Note_on_c, 0, 62, 109
2, 96480, Note_on_c, 0, 41, 87
2, 96512, Note_on_c, 0, 41, 0
2, 96512, Note_on_c, 0, 40, 93
2, 96528, Note_on_c, 0, 65, 0
2, 96528, Note_on_c, 0, 62, 0
2, 96528, Note_on_c, 0, 69, 113
2, 96528, Note_on_c, 0, 59, 108
2, 96544, Note_on_c, 0, 40, 0
2, 96544, Note_on_c, 0, 41, 89
2, 96576, Note_on_c, 0, 69, 0
2, 96576, Note_on_c, 0, 59, 0
2, 96576, Note_on_c, 0, 41, 0
2, 96576, Note_on_c, 0, 65, 112
2, 96576, Note_on_c, 0, 40, 94
2, 96576, Note_on_c, 0, 62, 111
2, 96608, Note_on_c, 0, 40, 0
2, 96608, Note_on_c, 0, 41, 88
2, 96624, Note_on_c, 0, 65, 0
2, 96624, Note_on_c, 0, 62, 0
2, 96624, Note_on_c, 0, 60, 105
2, 96624, Note_on_c, 0, 69, 111
2, 96640, Note_on_c, 0, 41, 0
2, 96640, Note_on_c, 0, 40, 89
2, 96672, Note_on_c, 0, 60, 0
2, 96672, Note_on_c, 0, 69, 0
2, 96672, Note_on_c, 0, 40, 0
2, 96672, Note_on_c, 0, 41, 87
2, 96672, Note_on_c, 0, 62, 111
2, 96672, Note_on_c, 0, 65, 108
2, 96704, Note_on_c, 0, 41, 0
2, 96704, Note_on_c, 0, 40, 91
2, 96720, Note_on_c, 0, 62, 0
2, 96720, Note_on_c, 0, 65, 0
2, 96720, Note_on_c, 0, 59, 113
2, 96720, Control_c, 0, 64, 0
2, 96720, Note_on_c, 0, 69, 109
2, 96736, Note_on_c, 0, 40, 0
2, 96736, Note_on_c, 0, 41, 87
2, 96768, Note_on_c, 0, 59, 0
2, 96768, Note_on_c, 0, 69, 0
2, 96768, Note_on_c, 0, 41, 0
2, 96768, Control_c, 0, 64, 127
2, 96768, Note_on_c, 0, 52, 112
2, 96768, Note_on_c, 0, 40, 90
2, 96864, Note_on_c, 0, 52, 0
2, 96864, Note_on_c, 0, 40, 0
2, 96864, Note_on_c, 0, 53, 109
2, 96864, Note_on_c, 0, 41, 88
2, 96896, Note_on_c, 0, 53, 0
2, 96896, Note_on_c, 0, 41, 0
2, 96896, Note_on_c, 0, 52, 107
2, 96896, Note_on_c, 0, 40, 97
2, 96928, Note_on_c, 0, 52, 0
2, 96928, Note_on_c, 0, 40, 0
2, 96928, Note_on_c, 0, 41, 97
2, 96928, Note_on_c, 0, 53, 111
2, 96960, Note_on_c, 0, 41, 0
2, 96960, Note_on_c, 0, 53, 0
2, 96960, Note_on_c, 0, 40, 88
2, 96960, Note_on_c, 0, 52, 105
2, 96992, Note_on_c, 0, 40, 0
2, 96992, Note_on_c, 0, 52, 0
2, 96992, Note_on_c, 0, 53, 110
2, 96992, Note_on_c, 0, 41, 91
2, 97008, Control_c, 0, 64, 0
2, 97024, Note_on_c, 0, 53, 0
2, 97024, Note_on_c, 0, 41, 0
2, 97024, Note_on_c, 0, 52, 104
2, 97024, Note_on_c, 0, 40, 91
2, 97056, Note_on_c, 0, 52, 0
2, 97056, Note_on_c, 0, 40, 0
2, 97056, Note_on_c, 0, 50, 105
2, 97056, Control_c, 0, 64, 127
2, 97056, Note_on_c, 0, 38, 89
2, 97152, Note_on_c, 0, 50, 0
2, 97152, Note_on_c, 0, 38, 0
2, 97152, Note_on_c, 0, 40, 91
2, 97152, Note_on_c, 0, 52, 113
2, 97184, Note_on_c, 0, 40, 0
2, 97184, Note_on_c, 0, 52, 0
2, 97184, Note_on_c, 0, 38, 95
2, 97184, Note_on_c, 0, 50, 109
2, 97216, Note_on_c, 0, 38, 0
2, 97216, Note_on_c, 0, 50, 0
2, 97216, Note_on_c, 0, 52, 116
2, 97216, Note_on_c, 0, 40, 92
2, 97248, Note_on_c, 0, 52, 0
2, 97248, Note_on_c, 0, 40, 0
2, 97248, Note_on_c, 0, 50, 113
2, 97248, Note_on_c, 0, 38, 97
2, 97280, Note_on_c, 0, 50, 0
2, 97280, Note_on_c, 0, 38, 0
2, 97280, Note_on_c, 0, 40, 93
2, 97280, Note_on_c, 0, 52, 110
2, 97296, Control_c, 0, 64, 0
2, 97312, Note_on_c, 0, 40, 0
2, 97312, Note_on_c, 0, 52, 0
2, 97312, Note_on_c, 0, 38, 95
2, 97312, Note_on_c, 0, 50, 109
2, 97344, Note_on_c, 0, 38, 0
2, 97344, Note_on_c, 0, 50, 0
2, 97344, Control_c, 0, 64, 127
2, 97344, Note_on_c, 0, 48, 107
2, 97344, Note_on_c, 0, 36, 91
2, 97440, Note_on_c, 0, 48, 0
2, 97440, Note_on_c, 0, 36, 0
2, 97440, Note_on_c, 0, 50, 111
2, 97440, Note_on_c, 0, 38, 101
2, 97472, Note_on_c, 0, 50, 0
2, 97472, Note_on_c, 0, 38, 0
2, 97472, Note_on_c, 0, 48, 114
2, 97472, Note_on_c, 0, 36, 91
2, 97504, Note_on_c, 0, 48, 0
2, 97504, Note_on_c, 0, 36, 0
2, 97504, Note_on_c, 0, 50, 116
2, 97504, Note_on_c, 0, 38, 96
2, 97536, Note_on_c, 0, 50, 0
2, 97536, Note_on_c, 0, 38, 0
2, 97536, Note_on_c, 0, 36, 98
2, 97536, Note_on_c, 0, 48, 112
2, 97568, Note_on_c, 0, 36, 0
2, 97568, Note_on_c, 0, 48, 0
2, 97568, Note_on_c, 0, 38, 97
2, 97568, Note_on_c, 0, 50, 113
2, 97584, Control_c, 0, 64, 0
2, 97600, Note_on_c, 0, 38, 0
2, 97600, Note_on_c, 0, 50, 0
2, 97600, Note_on_c, 0, 36, 103
2, 97600, Note_on_c, 0, 48, 112
2, 97632, Note_on_c, 0, 36, 0
2, 97632, Note_on_c, 0, 48, 0
2, 97632, Note_on_c, 0, 35, 95
2, 97632, Note_on_c, 0, 47, 115
2, 97632, Control_c, 0, 64, 127
2, 97728, Note_on_c, 0, 35, 0
2, 97728, Note_on_c, 0, 47, 0
2, 97728, Note_on_c, 0, 36, 103
2, 97728, Note_on_c, 0, 48, 122
2, 97760, Note_on_c, 0, 36, 0
2, 97760, Note_on_c, 0, 48, 0
2, 97760, Note_on_c, 0, 35, 104
2, 97760, Note_on_c, 0, 47, 124
2, 97792, Note_on_c, 0, 35, 0
2, 97792, Note_on_c, 0, 47, 0
2, 97792, Note_on_c, 0, 48, 124
2, 97792, Note_on_c, 0, 36, 99
2, 97824, Note_on_c, 0, 48, 0
2, 97824, Note_on_c, 0, 36, 0
2, 97824, Note_on_c, 0, 35, 103
2, 97824, Note_on_c, 0, 47, 119
2, 97856, Note_on_c, 0, 35, 0
2, 97856, Note_on_c, 0, 47, 0
2, 97856, Note_on_c, 0, 48, 120
2, 97856, Note_on_c, 0, 36, 110
2, 97872, Control_c, 0, 64, 0
2, 97888, Note_on_c, 0, 48, 0
2, 97888, Note_on_c, 0, 36, 0
2, 97888, Note_on_c, 0, 47, 125
2, 97888, Note_on_c, 0, 35, 103
2, 97920, Note_on_c, 0, 47, 0
2, 97920, Note_on_c, 0, 35, 0
2, 97920, Note_on_c, 0, 33, 95
2, 97920, Control_c, 0, 64, 127
2, 97920, Note_on_c, 0, 45, 92
2, 97968, Note_on_c, 0, 60, 107
2, 97968, Note_on_c, 0, 65, 105
2, 98016, Note_on_c, 0, 33, 0
2, 98016, Note_on_c, 0, 45, 0
2, 98016, Note_on_c, 0, 60, 0
2, 98016, Note_on_c, 0, 65, 0
2, 98016, Note_on_c, 0, 60, 106
2, 98016, Note_on_c, 0, 45, 87
2, 98016, Note_on_c, 0, 65, 107
2, 98016, Note_on_c, 0, 53, 89
2, 98064, Note_on_c, 0, 60, 0
2, 98064, Note_on_c, 0, 65, 0
2, 98064, Note_on_c, 0, 57, 111
2, 98064, Note_on_c, 0, 63, 113
2, 98112, Note_on_c, 0, 45, 0
2, 98112, Note_on_c, 0, 53, 0
2, 98112, Note_on_c, 0, 57, 0
2, 98112, Note_on_c, 0, 63, 0
2, 98112, Note_on_c, 0, 52, 90
2, 98112, Note_on_c, 0, 63, 105
2, 98112, Note_on_c, 0, 57, 109
2, 98112, Note_on_c, 0, 48, 94
2, 98112, Control_c, 0, 64, 0
2, 98160, Note_on_c, 0, 63, 0
2, 98160, Note_on_c, 0, 57, 0
2, 98160, Note_on_c, 0, 64, 113
2, 98160, Note_on_c, 0, 60, 104
2, 98208, Note_on_c, 0, 52, 0
2, 98208, Note_on_c, 0, 48, 0
2, 98208, Note_on_c, 0, 64, 0
2, 98208, Note_on_c, 0, 60, 0
2, 98208, Note_on_c, 0, 41, 94
2, 98208, Note_on_c, 0, 29, 95
2, 98208, Control_c, 0, 64, 127
2, 98256, Note_on_c, 0, 71, 105
2, 98256, Note_on_c, 0, 63, 107
2, 98304, Note_on_c, 0, 41, 0
2, 98304, Note_on_c, 0, 29, 0
2, 98304, Note_on_c, 0, 71, 0
2, 98304, Note_on_c, 0, 63, 0
2, 98304, Note_on_c, 0, 55, 93
2, 98304, Note_on_c, 0, 63, 107
2, 98304, Note_on_c, 0, 71, 113
2, 98304, Note_on_c, 0, 47, 89
2, 98352, Note_on_c, 0, 63, 0
2, 98352, Note_on_c, 0, 71, 0
2, 98352, Note_on_c, 0, 68, 111
2, 98352, Note_on_c, 0, 59, 104
2, 98400, Note_on_c, 0, 55, 0
2, 98400, Note_on_c, 0, 47, 0
2, 98400, Note_on_c, 0, 68, 0
2, 98400, Note_on_c, 0, 59, 0
2, 98400, Control_c, 0, 64, 0
2, 98400, Note_on_c, 0, 68, 113
2, 98400, Note_on_c, 0, 59, 104
2, 98400, Note_on_c, 0, 53, 89
2, 98448, Note_on_c, 0, 68, 0
2, 98448, Note_on_c, 0, 59, 0
2, 98448, Note_on_c, 0, 69, 103
2, 98448, Note_on_c, 0, 63, 111
2, 98496, Note_on_c, 0, 53, 0
2, 98496, Note_on_c, 0, 69, 0
2, 98496, Note_on_c, 0, 63, 0
2, 98496, Note_on_c, 0, 40, 92
2, 98496, Control_c, 0, 64, 127
2, 98496, Note_on_c, 0, 52, 89
2, 98544, Note_on_c, 0, 77, 111
2, 98544, Note_on_c, 0, 74, 106
2, 98592, Note_on_c, 0, 40, 0
2, 98592, Note_on_c, 0, 52, 0
2, 98592, Note_on_c, 0, 77, 0
2, 98592, Note_on_c, 0, 74, 0
2, 98592, Note_on_c, 0, 77, 104
2, 98592, Note_on_c, 0, 74, 111
2, 98592, Note_on_c, 0, 52, 95
2, 98592, Note_on_c, 0, 64, 91
2, 98640, Note_on_c, 0, 77, 0
2, 98640, Note_on_c, 0, 74, 0
2, 98640, Note_on_c, 0, 75, 110
2, 98640, Note_on_c, 0, 68, 103
2, 98688, Note_on_c, 0, 52, 0
2, 98688, Note_on_c, 0, 64, 0
2, 98688, Note_on_c, 0, 75, 0
2, 98688, Note_on_c, 0, 68, 0
2, 98688, Note_on_c, 0, 75, 109
2, 98688, Note_on_c, 0, 68, 111
2, 98688, Note_on_c, 0, 59, 94
2, 98688, Note_on_c, 0, 62, 94
2, 98688, Control_c, 0, 64, 0
2, 98736, Note_on_c, 0, 75, 0
2, 98736, Note_on_c, 0, 68, 0
2, 98736, Note_on_c, 0, 76, 103
2, 98736, Note_on_c, 0, 74, 112
2, 98784, Note_on_c, 0, 59, 0
2, 98784, Note_on_c, 0, 62, 0
2, 98784, Note_on_c, 0, 76, 0
2, 98784, Note_on_c, 0, 74, 0
2, 98784, Note_on_c, 0, 64, 94
2, 98784, Note_on_c, 0, 76, 110
2, 98784, Control_c, 0, 64, 127
2, 98784, Note_on_c, 0, 52, 97
2, 98832, Note_on_c, 0, 76, 0
2, 98832, Note_on_c, 0, 77, 108
2, 98880, Note_on_c, 0, 64, 0
2, 98880, Note_on_c, 0, 52, 0
2, 98880, Note_on_c, 0, 77, 0
2, 98880, Note_on_c, 0, 59, 90
2, 98880, Note_on_c, 0, 62, 93
2, 98880, Note_on_c, 0, 77, 108
2, 98928, Note_on_c, 0, 77, 0
2, 98928, Note_on_c, 0, 74, 109
2, 98928, Note_on_c, 0, 75, 103
2, 98976, Note_on_c, 0, 59, 0
2, 98976, Note_on_c, 0, 62, 0
2, 98976, Note_on_c, 0, 74, 0
2, 98976, Note_on_c, 0, 75, 0
2, 98976, Note_on_c, 0, 64, 88
2, 98976, Note_on_c, 0, 52, 94
2, 98976, Note_on_c, 0, 74, 109
2, 98976, Note_on_c, 0, 75, 110
2, 98976, Control_c, 0, 64, 0
2, 99024, Note_on_c, 0, 74, 0
2, 99024, Note_on_c, 0, 75, 0
2, 99024, Note_on_c, 0, 76, 111
2, 99072, Note_on_c, 0, 64, 0
2, 99072, Note_on_c, 0, 52, 0
2, 99072, Note_on_c, 0, 76, 0
2, 99072, Note_on_c, 0, 57, 96
2, 99072, Control_c, 0, 64, 127
2, 99072, Note_on_c, 0, 45, 87
2, 99120, Note_on_c, 0, 74, 107
2, 99120, Note_on_c, 0, 76, 110
2, 99168, Note_on_c, 0, 57, 0
2, 99168, Note_on_c, 0, 45, 0
2, 99168, Note_on_c, 0, 74, 0
2, 99168, Note_on_c, 0, 76, 0
2, 99168, Note_on_c, 0, 76, 107
2, 99168, Note_on_c, 0, 74, 104
2, 99168, Note_on_c, 0, 64, 95
2, 99168, Note_on_c, 0, 57, 97
2, 99216, Note_on_c, 0, 76, 0
2, 99216, Note_on_c, 0, 74, 0
2, 99216, Note_on_c, 0, 72, 113
2, 99216, Note_on_c, 0, 77, 107
2, 99264, Note_on_c, 0, 64, 0
2, 99264, Note_on_c, 0, 57, 0
2, 99264, Note_on_c, 0, 72, 0
2, 99264, Note_on_c, 0, 77, 0
2, 99264, Control_c, 0, 64, 0
2, 99264, Note_on_c, 0, 50, 94
2, 99264, Note_on_c, 0, 62, 96
2, 99264, Note_on_c, 0, 72, 105
2, 99264, Note_on_c, 0, 77, 113
2, 99312, Note_on_c, 0, 72, 0
2, 99312, Note_on_c, 0, 77, 0
2, 99312, Note_on_c, 0, 72, 110
2, 99312, Note_on_c, 0, 78, 113
2, 99360, Note_on_c, 0, 50, 0
2, 99360, Note_on_c, 0, 62, 0
2, 99360, Note_on_c, 0, 72, 0
2, 99360, Note_on_c, 0, 78, 0
2, 99360, Note_on_c, 0, 43, 97
2, 99360, Note_on_c, 0, 72, 106
2, 99360, Control_c, 0, 64, 127
2, 99360, Note_on_c, 0, 55, 97
2, 99360, Note_on_c, 0, 78, 113
2, 99408, Note_on_c, 0, 72, 0
2, 99408, Note_on_c, 0, 78, 0
2, 99408, Note_on_c, 0, 79, 104
2, 99408, Note_on_c, 0, 71, 111
2, 99456, Note_on_c, 0, 43, 0
2, 99456, Note_on_c, 0, 55, 0
2, 99456, Note_on_c, 0, 79, 0
2, 99456, Note_on_c, 0, 71, 0
2, 99456, Note_on_c, 0, 79, 112
2, 99456, Note_on_c, 0, 71, 109
2, 99456, Note_on_c, 0, 62, 89
2, 99456, Note_on_c, 0, 55, 95
2, 99504, Note_on_c, 0, 79, 0
2, 99504, Note_on_c, 0, 71, 0
2, 99504, Note_on_c, 0, 70, 104
2, 99504, Note_on_c, 0, 74, 104
2, 99552, Note_on_c, 0, 62, 0
2, 99552, Note_on_c, 0, 55, 0
2, 99552, Note_on_c, 0, 70, 0
2, 99552, Note_on_c, 0, 74, 0
2, 99552, Control_c, 0, 64, 0
2, 99552, Note_on_c, 0, 74, 109
2, 99552, Note_on_c, 0, 48, 96
2, 99552, Note_on_c, 0, 70, 110
2, 99552, Note_on_c, 0, 60, 89
2, 99600, Note_on_c, 0, 74, 0
2, 99600, Note_on_c, 0, 70, 0
2, 99600, Note_on_c, 0, 76, 107
2, 99600, Note_on_c, 0, 70, 112
2, 99648, Note_on_c, 0, 48, 0
2, 99648, Note_on_c, 0, 60, 0
2, 99648, Note_on_c, 0, 76, 0
2, 99648, Note_on_c, 0, 70, 0
2, 99648, Note_on_c, 0, 76, 112
2, 99648, Control_c, 0, 64, 127
2, 99648, Note_on_c, 0, 70, 105
2, 99648, Note_on_c, 0, 53, 93
2, 99648, Note_on_c, 0, 41, 87
2, 99696, Note_on_c, 0, 76, 0
2, 99696, Note_on_c, 0, 70, 0
2, 99696, Note_on_c, 0, 69, 108
2, 99696, Note_on_c, 0, 77, 113
2, 99744, Note_on_c, 0, 53, 0
2, 99744, Note_on_c, 0, 41, 0
2, 99744, Note_on_c, 0, 69, 0
2, 99744, Note_on_c, 0, 77, 0
2, 99744, Note_on_c, 0, 69, 106
2, 99744, Note_on_c, 0, 53, 93
2, 99744, Note_on_c, 0, 60, 88
2, 99744, Note_on_c, 0, 77, 109
2, 99792, Note_on_c, 0, 69, 0
2, 99792, Note_on_c, 0, 77, 0
2, 99792, Note_on_c, 0, 72, 112
2, 99792, Note_on_c, 0, 69, 108
2, 99840, Note_on_c, 0, 53, 0
2, 99840, Note_on_c, 0, 60, 0
2, 99840, Note_on_c, 0, 72, 0
2, 99840, Note_on_c, 0, 69, 0
2, 99840, Note_on_c, 0, 69, 112
2, 99840, Control_c, 0, 64, 0
2, 99840, Note_on_c, 0, 53, 92
2, 99840, Note_on_c, 0, 59, 87
2, 99840, Note_on_c, 0, 72, 113
2, 99888, Note_on_c, 0, 69, 0
2, 99888, Note_on_c, 0, 72, 0
2, 99888, Note_on_c, 0, 69, 106
2, 99888, Note_on_c, 0, 74, 107
2, 99936, Note_on_c, 0, 53, 0
2, 99936, Note_on_c, 0, 59, 0
2, 99936, Note_on_c, 0, 69, 0
2, 99936, Note_on_c, 0, 74, 0
2, 99936, Note_on_c, 0, 69, 95
2, 99936, Control_c, 0, 64, 127
2, 99936, Note_on_c, 0, 52, 92
2, 99936, Note_on_c, 0, 60, 94
2, 99936, Note_on_c, 0, 76, 108
2, 99984, Note_on_c, 0, 76, 0
2, 99984, Note_on_c, 0, 72, 113
2, 100032, Note_on_c, 0, 69, 0
2, 100032, Note_on_c, 0, 52, 0
2, 100032, Note_on_c, 0, 60, 0
2, 100032, Note_on_c, 0, 72, 0
2, 100032, Note_on_c, 0, 63, 93
2, 100032, Note_on_c, 0, 72, 112
2, 100032, Note_on_c, 0, 52, 96
2, 100032, Note_on_c, 0, 54, 90
2, 100080, Note_on_c, 0, 72, 0
2, 100080, Note_on_c, 0, 71, 103
2, 100128, Note_on_c, 0, 63, 0
2, 100128, Note_on_c, 0, 52, 0
2, 100128, Note_on_c, 0, 54, 0
2, 100128, Note_on_c, 0, 71, 0
2, 100128, Note_on_c, 0, 52, 89
2, 100128, Note_on_c, 0, 71, 107
2, 100128, Control_c, 0, 64, 0
2, 100128, Note_on_c, 0, 62, 88
2, 100128, Note_on_c, 0, 56, 89
2, 100176, Note_on_c, 0, 71, 0
2, 100176, Note_on_c, 0, 64, 109
2, 100224, Note_on_c, 0, 52, 0
2, 100224, Note_on_c, 0, 62, 0
2, 100224, Note_on_c, 0, 56, 0
2, 100224, Note_on_c, 0, 64, 0
2, 100224, Control_c, 0, 64, 127
2, 100224, Note_on_c, 0, 45, 88
2, 100224, Note_on_c, 0, 57, 95
2, 100272, Note_on_c, 0, 72, 108
2, 100272, Note_on_c, 0, 77, 113
2, 100320, Note_on_c, 0, 45, 0
2, 100320, Note_on_c, 0, 57, 0
2, 100320, Note_on_c, 0, 72, 0
2, 100320, Note_on_c, 0, 77, 0
2, 100320, Note_on_c, 0, 72, 103
2, 100320, Note_on_c, 0, 65, 89
2, 100320, Note_on_c, 0, 57, 89
2, 100320, Note_on_c, 0, 77, 108
2, 100368, Note_on_c, 0, 72, 0
2, 100368, Note_on_c, 0, 77, 0
2, 100368, Note_on_c, 0, 75, 104
2, 100368, Note_on_c, 0, 69, 108
2, 100416, Note_on_c, 0, 65, 0
2, 100416, Note_on_c, 0, 57, 0
2, 100416, Note_on_c, 0, 75, 0
2, 100416, Note_on_c, 0, 69, 0
2, 100416, Note_on_c, 0, 69, 103
2, 100416, Note_on_c, 0, 60, 91
2, 100416, Note_on_c, 0, 64, 93
2, 100416, Control_c, 0, 64, 0
2, 100416, Note_on_c, 0, 75, 110
2, 100464, Note_on_c, 0, 69, 0
2, 100464, Note_on_c, 0, 75, 0
2, 100464, Note_on_c, 0, 76, 110
2, 100464, Note_on_c, 0, 72, 105
2, 100512, Note_on_c, 0, 60, 0
2, 100512, Note_on_c, 0, 64, 0
2, 100512, Note_on_c, 0, 76, 0
2, 100512, Note_on_c, 0, 72, 0
2, 100512, Note_on_c, 0, 53, 91
2, 100512, Note_on_c, 0, 41, 88
2, 100512, Control_c, 0, 64, 127
2, 100560, Note_on_c, 0, 83, 107
2, 100560, Note_on_c, 0, 75, 111
2, 100608, Note_on_c, 0, 53, 0
2, 100608, Note_on_c, 0, 41, 0
2, 100608, Note_on_c, 0, 83, 0
2, 100608, Note_on_c, 0, 75, 0
2, 100608, Note_on_c, 0, 59, 95
2, 100608, Note_on_c, 0, 75, 109
2, 100608, Note_on_c, 0, 83, 105
2, 100608, Note_on_c, 0, 67, 91
2, 100656, Note_on_c, 0, 75, 0
2, 100656, Note_on_c, 0, 83, 0
2, 100656, Note_on_c, 0, 80, 103
2, 100656, Note_on_c, 0, 71, 105
2, 100704, Note_on_c, 0, 59, 0
2, 100704, Note_on_c, 0, 67, 0
2, 100704, Note_on_c, 0, 80, 0
2, 100704, Note_on_c, 0, 71, 0
2, 100704, Control_c, 0, 64, 0
2, 100704, Note_on_c, 0, 80, 109
2, 100704, Note_on_c, 0, 71, 107
2, 100704, Note_on_c, 0, 65, 89
2, 100752, Note_on_c, 0, 80, 0
2, 100752, Note_on_c, 0, 71, 0
2, 100752, Note_on_c, 0, 75, 103
2, 100752, Note_on_c, 0, 81, 108
2, 100800, Note_on_c, 0, 65, 0
2, 100800, Note_on_c, 0, 75, 0
2, 100800, Note_on_c, 0, 81, 0
2, 100800, Control_c, 0, 64, 127
2, 100800, Note_on_c, 0, 52, 94
2, 100800, Note_on_c, 0, 64, 89
2, 100848, Note_on_c, 0, 86, 105
2, 100848, Note_on_c, 0, 89, 111
2, 100896, Note_on_c, 0, 52, 0
2, 100896, Note_on_c, 0, 64, 0
2, 100896, Note_on_c, 0, 86, 0
2, 100896, Note_on_c, 0, 89, 0
2, 100896, Note_on_c, 0, 86, 110
2, 100896, Note_on_c, 0, 89, 108
2, 100896, Note_on_c, 0, 64, 87
2, 100896, Note_on_c, 0, 76, 88
2, 100944, Note_on_c, 0, 86, 0
2, 100944, Note_on_c, 0, 89, 0
2, 100944, Note_on_c, 0, 80, 112
2, 100944, Note_on_c, 0, 87, 112
2, 100992, Note_on_c, 0, 64, 0
2, 100992, Note_on_c, 0, 76, 0
2, 100992, Note_on_c, 0, 80, 0
2, 100992, Note_on_c, 0, 87, 0
2, 100992, Note_on_c, 0, 71, 87
2, 100992, Note_on_c, 0, 74, 87
2, 100992, Note_on_c, 0, 80, 112
2, 100992, Note_on_c, 0, 87, 113
2, 100992, Control_c, 0, 64, 0
2, 101040, Note_on_c, 0, 80, 0
2, 101040, Note_on_c, 0, 87, 0
2, 101040, Note_on_c, 0, 88, 105
2, 101040, Note_on_c, 0, 86, 104
2, 101088, Note_on_c, 0, 71, 0
2, 101088, Note_on_c, 0, 74, 0
2, 101088, Note_on_c, 0, 88, 0
2, 101088, Note_on_c, 0, 86, 0
2, 101088, Note_on_c, 0, 76, 89
2, 101088, Note_on_c, 0, 88, 104
2, 101088, Control_c, 0, 64, 127
2, 101088, Note_on_c, 0, 64, 92
2, 101136, Note_on_c, 0, 88, 0
2, 101136, Note_on_c, 0, 89, 113
2, 101136, Note_on_c, 0, 80, 113
2, 101184, Note_on_c, 0, 76, 0
2, 101184, Note_on_c, 0, 64, 0
2, 101184, Note_on_c, 0, 89, 0
2, 101184, Note_on_c, 0, 80, 0
2, 101184, Note_on_c, 0, 74, 96
2, 101184, Note_on_c, 0, 71, 91
2, 101184, Note_on_c, 0, 80, 112
2, 101184, Note_on_c, 0, 89, 106
2, 101232, Note_on_c, 0, 80, 0
2, 101232, Note_on_c, 0, 89, 0
2, 101232, Note_on_c, 0, 87, 104
2, 101232, Note_on_c, 0, 87, 108
2, 101280, Note_on_c, 0, 74, 0
2, 101280, Note_on_c, 0, 71, 0
2, 101280, Note_on_c, 0, 87, 0
2, 101280, Note_on_c, 0, 87, 0
2, 101280, Note_on_c, 0, 64, 95
2, 101280, Note_on_c, 0, 87, 108
2, 101280, Note_on_c, 0, 87, 113
2, 101280, Note_on_c, 0, 76, 97
2, 101280, Control_c, 0, 64, 0
2, 101328, Note_on_c, 0, 87, 0
2, 101328, Note_on_c, 0, 87, 0
2, 101328, Note_on_c, 0, 88, 113
2, 101376, Note_on_c, 0, 64, 0
2, 101376, Note_on_c, 0, 76, 0
2, 101376, Note_on_c, 0, 88, 0
2, 101376, Control_c, 0, 64, 127
2, 101376, Note_on_c, 0, 69, 87
2, 101376, Note_on_c, 0, 57, 88
2, 101424, Note_on_c, 0, 86, 113
2, 101424, Note_on_c, 0, 88, 108
2, 101472, Note_on_c, 0, 69, 0
2, 101472, Note_on_c, 0, 57, 0
2, 101472, Note_on_c, 0, 86, 0
2, 101472, Note_on_c, 0, 88, 0
2, 101472, Note_on_c, 0, 88, 111
2, 101472, Note_on_c, 0, 76, 97
2, 101472, Note_on_c, 0, 86, 110
2, 101472, Note_on_c, 0, 69, 96
2, 101520, Note_on_c, 0, 88, 0
2, 101520, Note_on_c, 0, 86, 0
2, 101520, Note_on_c, 0, 84, 104
2, 101520, Note_on_c, 0, 89, 108
2, 101568, Note_on_c, 0, 76, 0
2, 101568, Note_on_c, 0, 69, 0
2, 101568, Note_on_c, 0, 84, 0
2, 101568, Note_on_c, 0, 89, 0
2, 101568, Note_on_c, 0, 84, 103
2, 101568, Note_on_c, 0, 89, 106
2, 101568, Note_on_c, 0, 62, 94
2, 101568, Control_c, 0, 64, 0
2, 101568, Note_on_c, 0, 74, 91
2, 101616, Note_on_c, 0, 84, 0
2, 101616, Note_on_c, 0, 89, 0
2, 101616, Note_on_c, 0, 84, 110
2, 101616, Note_on_c, 0, 90, 104
2, 101664, Note_on_c, 0, 62, 0
2, 101664, Note_on_c, 0, 74, 0
2, 101664, Note_on_c, 0, 84, 0
2, 101664, Note_on_c, 0, 90, 0
2, 101664, Note_on_c, 0, 55, 96
2, 101664, Control_c, 0, 64, 127
2, 101664, Note_on_c, 0, 84, 109
2, 101664, Note_on_c, 0, 67, 94
2, 101664, Note_on_c, 0, 90, 112
2, 101712, Note_on_c, 0, 84, 0
2, 101712, Note_on_c, 0, 90, 0
2, 101712, Note_on_c, 0, 83, 110
2, 101712, Note_on_c, 0, 91, 108
2, 101760, Note_on_c, 0, 55, 0
2, 101760, Note_on_c, 0, 67, 0
2, 101760, Note_on_c, 0, 83, 0
2, 101760, Note_on_c, 0, 91, 0
2, 101760, Note_on_c, 0, 74, 96
2, 101760, Note_on_c, 0, 67, 90
2, 101760, Note_on_c, 0, 83, 103
2, 101760, Note_on_c, 0, 91, 108
2, 101808, Note_on_c, 0, 83, 0
2, 101808, Note_on_c, 0, 91, 0
2, 101808, Note_on_c, 0, 86, 107
2, 101808, Note_on_c, 0, 82, 113
2, 101856, Note_on_c, 0, 74, 0
2, 101856, Note_on_c, 0, 67, 0
2, 101856, Note_on_c, 0, 86, 0
2, 101856, Note_on_c, 0, 82, 0
2, 101856, Note_on_c, 0, 72, 97
2, 101856, Note_on_c, 0, 86, 111
2, 101856, Control_c, 0, 64, 0
2, 101856, Note_on_c, 0, 60, 94
2, 101856, Note_on_c, 0, 82, 109
2, 101904, Note_on_c, 0, 86, 0
2, 101904, Note_on_c, 0, 82, 0
2, 101904, Note_on_c, 0, 88, 113
2, 101904, Note_on_c, 0, 82, 103
2, 101952, Note_on_c, 0, 72, 0
2, 101952, Note_on_c, 0, 60, 0
2, 101952, Note_on_c, 0, 88, 0
2, 101952, Note_on_c, 0, 82, 0
2, 101952, Note_on_c, 0, 82, 112
2, 101952, Note_on_c, 0, 88, 107
2, 101952, Note_on_c, 0, 53, 97
2, 101952, Note_on_c, 0, 65, 90
2, 101952, Control_c, 0, 64, 127
2, 102000, Note_on_c, 0, 82, 0
2, 102000, Note_on_c, 0, 88, 0
2, 102000, Note_on_c, 0, 89, 108
2, 102000, Note_on_c, 0, 81, 104
2, 102048, Note_on_c, 0, 53, 0
2, 102048, Note_on_c, 0, 65, 0
2, 102048, Note_on_c, 0, 89, 0
2, 102048, Note_on_c, 0, 81, 0
2, 102048, Note_on_c, 0, 89, 107
2, 102048, Note_on_c, 0, 72, 97
2, 102048, Note_on_c, 0, 65, 97
2, 102048, Note_on_c, 0, 81, 113
2, 102096, Note_on_c, 0, 89, 0
2, 102096, Note_on_c, 0, 81, 0
2, 102096, Note_on_c, 0, 81, 110
2, 102096, Note_on_c, 0, 84, 112
2, 102144, Note_on_c, 0, 72, 0
2, 102144, Note_on_c, 0, 65, 0
2, 102144, Note_on_c, 0, 81, 0
2, 102144, Note_on_c, 0, 84, 0
2, 102144, Note_on_c, 0, 71, 96
2, 102144, Control_c, 0, 64, 0
2, 102144, Note_on_c, 0, 84, 105
2, 102144, Note_on_c, 0, 65, 96
2, 102144, Note_on_c, 0, 81, 106
2, 102192, Note_on_c, 0, 84, 0
2, 102192, Note_on_c, 0, 81, 0
2, 102192, Note_on_c, 0, 81, 109
2, 102192, Note_on_c, 0, 86, 109
2, 102240, Note_on_c, 0, 71, 0
2, 102240, Note_on_c, 0, 65, 0
2, 102240, Note_on_c, 0, 81, 0
2, 102240, Note_on_c, 0, 86, 0
2, 102240, Note_on_c, 0, 52, 95
2, 102240, Note_on_c, 0, 88, 109
2, 102240, Note_on_c, 0, 81, 97
2, 102240, Control_c, 0, 64, 127
2, 102240, Note_on_c, 0, 64, 97
2, 102288, Note_on_c, 0, 88, 0
2, 102288, Note_on_c, 0, 84, 103
2, 102336, Note_on_c, 0, 52, 0
2, 102336, Note_on_c, 0, 81, 0
2, 102336, Note_on_c, 0, 64, 0
2, 102336, Note_on_c, 0, 84, 0
2, 102336, Note_on_c, 0, 64, 87
2, 102336, Note_on_c, 0, 75, 93
2, 102336, Note_on_c, 0, 84, 106
2, 102336, Note_on_c, 0, 66, 90
2, 102384, Note_on_c, 0, 84, 0
2, 102384, Note_on_c, 0, 83, 110
2, 102432, Note_on_c, 0, 64, 0
2, 102432, Note_on_c, 0, 75, 0
2, 102432, Note_on_c, 0, 66, 0
2, 102432, Note_on_c, 0, 83, 0
2, 102432, Note_on_c, 0, 83, 113
2, 102432, Note_on_c, 0, 74, 96
2, 102432, Note_on_c, 0, 64, 93
2, 102432, Note_on_c, 0, 68, 88
2, 102432, Control_c, 0, 64, 0
2, 102480, Note_on_c, 0, 83, 0
2, 102480, Note_on_c, 0, 76, 112
2, 102528, Note_on_c, 0, 74, 0
2, 102528, Note_on_c, 0, 64, 0
2, 102528, Note_on_c, 0, 68, 0
2, 102528, Note_on_c, 0, 76, 0
2, 102528, Note_on_c, 0, 57, 89
2, 102528, Control_c, 0, 64, 127
2, 102528, Note_on_c, 0, 45, 88
2, 102576, Note_on_c, 0, 81, 108
2, 102576, Note_on_c, 0, 84, 113
2, 102624, Note_on_c, 0, 57, 0
2, 102624, Note_on_c, 0, 45, 0
2, 102624, Note_on_c, 0, 81, 0
2, 102624, Note_on_c, 0, 84, 0
2, 102624, Note_on_c, 0, 84, 104
2, 102624, Note_on_c, 0, 80, 110
2, 102624, Note_on_c, 0, 69, 88
2, 102624, Note_on_c, 0, 57, 89
2, 102672, Note_on_c, 0, 84, 0
2, 102672, Note_on_c, 0, 80, 0
2, 102672, Note_on_c, 0, 84, 103
2, 102672, Note_on_c, 0, 79, 106
2, 102720, Note_on_c, 0, 69, 0
2, 102720, Note_on_c, 0, 57, 0
2, 102720, Note_on_c, 0, 84, 0
2, 102720, Note_on_c, 0, 79, 0
2, 102720, Note_on_c, 0, 78, 108
2, 102720, Note_on_c, 0, 60, 96
2, 102720, Note_on_c, 0, 65, 88
2, 102720, Control_c, 0, 64, 0
2, 102720, Note_on_c, 0, 84, 104
2, 102768, Note_on_c, 0, 78, 0
2, 102768, Note_on_c, 0, 84, 0
2, 102768, Note_on_c, 0, 84, 111
2, 102768, Note_on_c, 0, 77, 113
2, 102816, Note_on_c, 0, 60, 0
2, 102816, Note_on_c, 0, 65, 0
2, 102816, Note_on_c, 0, 84, 0
2, 102816, Note_on_c, 0, 77, 0
2, 102816, Note_on_c, 0, 56, 94
2, 102816, Note_on_c, 0, 77, 111
2, 102816, Control_c, 0, 64, 127
2, 102816, Note_on_c, 0, 83, 106
2, 102816, Note_on_c, 0, 44, 95
2, 102864, Note_on_c, 0, 77, 0
2, 102864, Note_on_c, 0, 83, 0
2, 102864, Note_on_c, 0, 83, 109
2, 102864, Note_on_c, 0, 76, 104
2, 102912, Note_on_c, 0, 56, 0
2, 102912, Note_on_c, 0, 44, 0
2, 102912, Note_on_c, 0, 83, 0
2, 102912, Note_on_c, 0, 76, 0
2, 102912, Note_on_c, 0, 56, 92
2, 102912, Note_on_c, 0, 68, 97
2, 102912, Note_on_c, 0, 83, 104
2, 102912, Note_on_c, 0, 75, 111
2, 102960, Note_on_c, 0, 83, 0
2, 102960, Note_on_c, 0, 75, 0
2, 102960, Note_on_c, 0, 83, 105
2, 102960, Note_on_c, 0, 76, 104
2, 103008, Note_on_c, 0, 56, 0
2, 103008, Note_on_c, 0, 68, 0
2, 103008, Note_on_c, 0, 83, 0
2, 103008, Note_on_c, 0, 76, 0
2, 103008, Control_c, 0, 64, 0
2, 103008, Note_on_c, 0, 77, 110
2, 103008, Note_on_c, 0, 64, 90
2, 103008, Note_on_c, 0, 59, 96
2, 103008, Note_on_c, 0, 83, 106
2, 103056, Note_on_c, 0, 77, 0
2, 103056, Note_on_c, 0, 83, 0
2, 103056, Note_on_c, 0, 83, 113
2, 103056, Note_on_c, 0, 76, 108
2, 103104, Note_on_c, 0, 64, 0
2, 103104, Note_on_c, 0, 59, 0
2, 103104, Note_on_c, 0, 83, 0
2, 103104, Note_on_c, 0, 76, 0
2, 103104, Note_on_c, 0, 43, 97
2, 103104, Note_on_c, 0, 87, 122
2, 103104, Control_c, 0, 64, 127
2, 103104, Note_on_c, 0, 55, 95
2, 103104, Note_on_c, 0, 82, 127
2, 103152, Note_on_c, 0, 87, 0
2, 103152, Note_on_c, 0, 82, 0
2, 103152, Note_on_c, 0, 82, 107
2, 103152, Note_on_c, 0, 79, 113
2, 103200, Note_on_c, 0, 43, 0
2, 103200, Note_on_c, 0, 55, 0
2, 103200, Note_on_c, 0, 82, 0
2, 103200, Note_on_c, 0, 79, 0
2, 103200, Note_on_c, 0, 78, 108
2, 103200, Note_on_c, 0, 55, 97
2, 103200, Note_on_c, 0, 67, 97
2, 103200, Note_on_c, 0, 82, 103
2, 103248, Note_on_c, 0, 78, 0
2, 103248, Note_on_c, 0, 82, 0
2, 103248, Note_on_c, 0, 77, 108
2, 103248, Note_on_c, 0, 82, 106
2, 103296, Note_on_c, 0, 55, 0
2, 103296, Note_on_c, 0, 67, 0
2, 103296, Note_on_c, 0, 77, 0
2, 103296, Note_on_c, 0, 82, 0
2, 103296, Note_on_c, 0, 63, 87
2, 103296, Control_c, 0, 64, 0
2, 103296, Note_on_c, 0, 82, 104
2, 103296, Note_on_c, 0, 58, 91
2, 103296, Note_on_c, 0, 76, 111
2, 103344, Note_on_c, 0, 82, 0
2, 103344, Note_on_c, 0, 76, 0
2, 103344, Note_on_c, 0, 75, 105
2, 103344, Note_on_c, 0, 82, 105
2, 103392, Note_on_c, 0, 63, 0
2, 103392, Note_on_c, 0, 58, 0
2, 103392, Note_on_c, 0, 75, 0
2, 103392, Note_on_c, 0, 82, 0
2, 103392, Control_c, 0, 64, 127
2, 103392, Note_on_c, 0, 81, 106
2, 103392, Note_on_c, 0, 74, 105
2, 103392, Note_on_c, 0, 54, 88
2, 103392, Note_on_c, 0, 42, 88
2, 103440, Note_on_c, 0, 81, 0
2, 103440, Note_on_c, 0, 74, 0
2, 103440, Note_on_c, 0, 81, 107
2, 103440, Note_on_c, 0, 74, 106
2, 103488, Note_on_c, 0, 54, 0
2, 103488, Note_on_c, 0, 42, 0
2, 103488, Note_on_c, 0, 81, 0
2, 103488, Note_on_c, 0, 74, 0
2, 103488, Note_on_c, 0, 81, 109
2, 103488, Note_on_c, 0, 54, 92
2, 103488, Note_on_c, 0, 66, 90
2, 103488, Note_on_c, 0, 73, 109
2, 103536, Note_on_c, 0, 81, 0
2, 103536, Note_on_c, 0, 73, 0
2, 103536, Note_on_c, 0, 81, 112
2, 103536, Note_on_c, 0, 74, 110
2, 103584, Note_on_c, 0, 54, 0
2, 103584, Note_on_c, 0, 66, 0
2, 103584, Note_on_c, 0, 81, 0
2, 103584, Note_on_c, 0, 74, 0
2, 103584, Note_on_c, 0, 57, 97
2, 103584, Note_on_c, 0, 81, 105
2, 103584, Note_on_c, 0, 62, 87
2, 103584, Note_on_c, 0, 75, 113
2, 103584, Control_c, 0, 64, 0
2, 103632, Note_on_c, 0, 81, 0
2, 103632, Note_on_c, 0, 75, 0
2, 103632, Note_on_c, 0, 81, 103
2, 103632, Note_on_c, 0, 74, 111
2, 103680, Note_on_c, 0, 57, 0
2, 103680, Note_on_c, 0, 62, 0
2, 103680, Note_on_c, 0, 81, 0
2, 103680, Note_on_c, 0, 74, 0
2, 103680, Note_on_c, 0, 85, 124
2, 103680, Note_on_c, 0, 53, 88
2, 103680, Note_on_c, 0, 80, 123
2, 103680, Control_c, 0, 64, 127
2, 103680, Note_on_c, 0, 41, 97
2, 103728, Note_on_c, 0, 85, 0
2, 103728, Note_on_c, 0, 80, 0
2, 103728, Note_on_c, 0, 80, 112
2, 103728, Note_on_c, 0, 77, 103
2, 103776, Note_on_c, 0, 53, 0
2, 103776, Note_on_c, 0, 41, 0
2, 103776, Note_on_c, 0, 80, 0
2, 103776, Note_on_c, 0, 77, 0
2, 103776, Note_on_c, 0, 53, 96
2, 103776, Note_on_c, 0, 80, 108
2, 103776, Note_on_c, 0, 76, 111
2, 103776, Note_on_c, 0, 65, 93
2, 103824, Note_on_c, 0, 80, 0
2, 103824, Note_on_c, 0, 76, 0
2, 103824, Note_on_c, 0, 80, 108
2, 103824, Note_on_c, 0, 75, 108
2, 103872, Note_on_c, 0, 53, 0
2, 103872, Note_on_c, 0, 65, 0
2, 103872, Note_on_c, 0, 80, 0
2, 103872, Note_on_c, 0, 75, 0
2, 103872, Note_on_c, 0, 80, 109
2, 103872, Note_on_c, 0, 56, 95
2, 103872, Note_on_c, 0, 61, 87
2, 103872, Note_on_c, 0, 74, 113
2, 103872, Control_c, 0, 64, 0
2, 103920, Note_on_c, 0, 80, 0
2, 103920, Note_on_c, 0, 74, 0
2, 103920, Note_on_c, 0, 73, 122
2, 103920, Note_on_c, 0, 80, 126
2, 103968, Note_on_c, 0, 56, 0
2, 103968, Note_on_c, 0, 61, 0
2, 103968, Note_on_c, 0, 52, 94
2, 103968, Note_on_c, 0, 40, 92
2, 103968, Control_c, 0, 64, 127
2, 104016, Note_on_c, 0, 80, 0
2, 104016, Note_on_c, 0, 79, 103
2, 104064, Note_on_c, 0, 52, 0
2, 104064, Note_on_c, 0, 40, 0
2, 104064, Note_on_c, 0, 52, 89
2, 104064, Note_on_c, 0, 64, 94
2, 104112, Note_on_c, 0, 73, 0
2, 104112, Note_on_c, 0, 79, 0
2, 104112, Note_on_c, 0, 79, 127
2, 104112, Note_on_c, 0, 72, 123
2, 104160, Note_on_c, 0, 52, 0
2, 104160, Note_on_c, 0, 64, 0
2, 104160, Note_on_c, 0, 65, 91
2, 104160, Note_on_c, 0, 50, 88
2, 104160, Control_c, 0, 64, 0
2, 104208, Note_on_c, 0, 79, 0
2, 104208, Note_on_c, 0, 72, 0
2, 104208, Note_on_c, 0, 80, 126
2, 104208, Note_on_c, 0, 71, 127
2, 104232, Note_on_c, 0, 65, 0
2, 104232, Note_on_c, 0, 50, 0
2, 104232, Note_on_c, 0, 48, 90
2, 104256, Note_on_c, 0, 64, 87
2, 104256, Control_c, 0, 64, 127
2, 104304, Note_on_c, 0, 80, 0
2, 104304, Note_on_c, 0, 71, 0
2, 104304, Note_on_c, 0, 81, 107
2, 104304, Note_on_c, 0, 69, 106
2, 104352, Note_on_c, 0, 48, 0
2, 104352, Note_on_c, 0, 64, 0
2, 104352, Note_on_c, 0, 81, 0
2, 104352, Note_on_c, 0, 69, 0
2, 104352, Note_on_c, 0, 38, 95
2, 104352, Note_on_c, 0, 50, 87
2, 104400, Note_on_c, 0, 71, 127
2, 104400, Note_on_c, 0, 69, 122
2, 104448, Note_on_c, 0, 38, 0
2, 104448, Note_on_c, 0, 50, 0
2, 104448, Note_on_c, 0, 50, 87
2, 104448, Control_c, 0, 64, 0
2, 104448, Note_on_c, 0, 59, 96
2, 104496, Note_on_c, 0, 71, 0
2, 104496, Note_on_c, 0, 69, 0
2, 104496, Note_on_c, 0, 77, 127
2, 104496, Note_on_c, 0, 65, 127
2, 104544, Note_on_c, 0, 50, 0
2, 104544, Note_on_c, 0, 59, 0
2, 104544, Note_on_c, 0, 77, 0
2, 104544, Note_on_c, 0, 65, 0
2, 104544, Control_c, 0, 64, 127
2, 104544, Note_on_c, 0, 38, 93
2, 104544, Note_on_c, 0, 65, 122
2, 104544, Note_on_c, 0, 77, 125
2, 104544, Note_on_c, 0, 50, 92
2, 104592, Note_on_c, 0, 65, 0
2, 104592, Note_on_c, 0, 77, 0
2, 104592, Note_on_c, 0, 77, 104
2, 104592, Note_on_c, 0, 65, 111
2, 104640, Note_on_c, 0, 38, 0
2, 104640, Note_on_c, 0, 50, 0
2, 104640, Note_on_c, 0, 77, 0
2, 104640, Note_on_c, 0, 65, 0
2, 104640, Note_on_c, 0, 59, 93
2, 104640, Note_on_c, 0, 69, 104
2, 104640, Note_on_c, 0, 71, 106
2, 104640, Note_on_c, 0, 50, 96
2, 104688, Note_on_c, 0, 69, 0
2, 104688, Note_on_c, 0, 71, 0
2, 104688, Note_on_c, 0, 65, 106
2, 104688, Note_on_c, 0, 77, 103
2, 104736, Note_on_c, 0, 59, 0
2, 104736, Note_on_c, 0, 50, 0
2, 104736, Note_on_c, 0, 65, 0
2, 104736, Note_on_c, 0, 77, 0
2, 104736, Note_on_c, 0, 52, 90
2, 104736, Note_on_c, 0, 71, 112
2, 104736, Note_on_c, 0, 68, 113
2, 104736, Note_on_c, 0, 40, 95
2, 104736, Control_c, 0, 64, 0
2, 104784, Note_on_c, 0, 71, 0
2, 104784, Note_on_c, 0, 68, 0
2, 104784, Note_on_c, 0, 64, 107
2, 104784, Note_on_c, 0, 76, 113
2, 104832, Note_on_c, 0, 52, 0
2, 104832, Note_on_c, 0, 40, 0
2, 104832, Note_on_c, 0, 64, 0
2, 104832, Note_on_c, 0, 76, 0
2, 104832, Control_c, 0, 64, 127
2, 104832, Note_on_c, 0, 33, 93
2, 104832, Note_on_c, 0, 45, 92
2, 104880, Note_on_c, 0, 69, 103
2, 104880, Note_on_c, 0, 72, 107
2, 104928, Note_on_c, 0, 33, 0
2, 104928, Note_on_c, 0, 45, 0
2, 104928, Note_on_c, 0, 69, 0
2, 104928, Note_on_c, 0, 72, 0
2, 104928, Note_on_c, 0, 45, 92
2, 104928, Note_on_c, 0, 72, 108
2, 104928, Note_on_c, 0, 57, 92
2, 104928, Note_on_c, 0, 68, 103
2, 104976, Note_on_c, 0, 72, 0
2, 104976, Note_on_c, 0, 68, 0
2, 104976, Note_on_c, 0, 72, 107
2, 104976, Note_on_c, 0, 67, 110
2, 105024, Note_on_c, 0, 45, 0
2, 105024, Note_on_c, 0, 57, 0
2, 105024, Note_on_c, 0, 72, 0
2, 105024, Note_on_c, 0, 67, 0
2, 105024, Note_on_c, 0, 48, 90
2, 105024, Note_on_c, 0, 72, 112
2, 105024, Note_on_c, 0, 66, 109
2, 105024, Control_c, 0, 64, 0
2, 105024, Note_on_c, 0, 53, 97
2, 105072, Note_on_c, 0, 72, 0
2, 105072, Note_on_c, 0, 66, 0
2, 105072, Note_on_c, 0, 65, 103
2, 105072, Note_on_c, 0, 72, 109
2, 105120, Note_on_c, 0, 48, 0
2, 105120, Note_on_c, 0, 53, 0
2, 105120, Note_on_c, 0, 65, 0
2, 105120, Note_on_c, 0, 72, 0
2, 105120, Note_on_c, 0, 32, 88
2, 105120, Note_on_c, 0, 44, 87
2, 105120, Note_on_c, 0, 71, 110
2, 105120, Note_on_c, 0, 65, 104
2, 105120, Control_c, 0, 64, 127
2, 105168, Note_on_c, 0, 71, 0
2, 105168, Note_on_c, 0, 65, 0
2, 105168, Note_on_c, 0, 71, 112
2, 105168, Note_on_c, 0, 64, 112
2, 105216, Note_on_c, 0, 32, 0
2, 105216, Note_on_c, 0, 44, 0
2, 105216, Note_on_c, 0, 71, 0
2, 105216, Note_on_c, 0, 64, 0
2, 105216, Note_on_c, 0, 44, 95
2, 105216, Note_on_c, 0, 63, 104
2, 105216, Note_on_c, 0, 56, 92
2, 105216, Note_on_c, 0, 71, 107
2, 105264, Note_on_c, 0, 63, 0
2, 105264, Note_on_c, 0, 71, 0
2, 105264, Note_on_c, 0, 71, 109
2, 105264, Note_on_c, 0, 64, 113
2, 105312, Note_on_c, 0, 44, 0
2, 105312, Note_on_c, 0, 56, 0
2, 105312, Note_on_c, 0, 71, 0
2, 105312, Note_on_c, 0, 64, 0
2, 105312, Note_on_c, 0, 71, 106
2, 105312, Note_on_c, 0, 52, 88
2, 105312, Note_on_c, 0, 47, 96
2, 105312, Note_on_c, 0, 65, 104
2, 105312, Control_c, 0, 64, 0
2, 105360, Note_on_c, 0, 71, 0
2, 105360, Note_on_c, 0, 65, 0
2, 105360, Note_on_c, 0, 71, 104
2, 105360, Note_on_c, 0, 64, 113
2, 105408, Note_on_c, 0, 52, 0
2, 105408, Note_on_c, 0, 47, 0
2, 105408, Note_on_c, 0, 71, 0
2, 105408, Note_on_c, 0, 64, 0
2, 105408, Control_c, 0, 64, 127
2, 105408, Note_on_c, 0, 31, 91
2, 105408, Note_on_c, 0, 75, 124
2, 105408, Note_on_c, 0, 70, 122
2, 105408, Note_on_c, 0, 43, 88
2, 105456, Note_on_c, 0, 75, 0
2, 105456, Note_on_c, 0, 70, 0
2, 105456, Note_on_c, 0, 67, 111
2, 105456, Note_on_c, 0, 70, 113
2, 105504, Note_on_c, 0, 31, 0
2, 105504, Note_on_c, 0, 43, 0
2, 105504, Note_on_c, 0, 67, 0
2, 105504, Note_on_c, 0, 70, 0
2, 105504, Note_on_c, 0, 66, 103
2, 105504, Note_on_c, 0, 55, 87
2, 105504, Note_on_c, 0, 43, 94
2, 105504, Note_on_c, 0, 70, 109
2, 105552, Note_on_c, 0, 66, 0
2, 105552, Note_on_c, 0, 70, 0
2, 105552, Note_on_c, 0, 70, 111
2, 105552, Note_on_c, 0, 65, 107
2, 105600, Note_on_c, 0, 55, 0
2, 105600, Note_on_c, 0, 43, 0
2, 105600, Note_on_c, 0, 70, 0
2, 105600, Note_on_c, 0, 65, 0
2, 105600, Note_on_c, 0, 51, 97
2, 105600, Control_c, 0, 64, 0
2, 105600, Note_on_c, 0, 64, 106
2, 105600, Note_on_c, 0, 46, 90
2, 105600, Note_on_c, 0, 70, 105
2, 105648, Note_on_c, 0, 64, 0
2, 105648, Note_on_c, 0, 70, 0
2, 105648, Note_on_c, 0, 63, 107
2, 105648, Note_on_c, 0, 70, 107
2, 105696, Note_on_c, 0, 51, 0
2, 105696, Note_on_c, 0, 46, 0
2, 105696, Note_on_c, 0, 63, 0
2, 105696, Note_on_c, 0, 70, 0
2, 105696, Control_c, 0, 64, 127
2, 105696, Note_on_c, 0, 30, 89
2, 105696, Note_on_c, 0, 62, 108
2, 105696, Note_on_c, 0, 69, 111
2, 105696, Note_on_c, 0, 42, 91
2, 105744, Note_on_c, 0, 62, 0
2, 105744, Note_on_c, 0, 69, 0
2, 105744, Note_on_c, 0, 69, 105
2, 105744, Note_on_c, 0, 62, 103
2, 105792, Note_on_c, 0, 30, 0
2, 105792, Note_on_c, 0, 42, 0
2, 105792, Note_on_c, 0, 69, 0
2, 105792, Note_on_c, 0, 62, 0
2, 105792, Note_on_c, 0, 61, 110
2, 105792, Note_on_c, 0, 69, 113
2, 105792, Note_on_c, 0, 42, 87
2, 105792, Note_on_c, 0, 54, 94
2, 105840, Note_on_c, 0, 61, 0
2, 105840, Note_on_c, 0, 69, 0
2, 105840, Note_on_c, 0, 62, 107
2, 105840, Note_on_c, 0, 69, 105
2, 105888, Note_on_c, 0, 42, 0
2, 105888, Note_on_c, 0, 54, 0
2, 105888, Note_on_c, 0, 62, 0
2, 105888, Note_on_c, 0, 69, 0
2, 105888, Note_on_c, 0, 45, 94
2, 105888, Note_on_c, 0, 62, 105
2, 105888, Note_on_c, 0, 69, 104
2, 105888, Note_on_c, 0, 50, 90
2, 105888, Control_c, 0, 64, 0
2, 105936, Note_on_c, 0, 62, 0
2, 105936, Note_on_c, 0, 69, 0
2, 105936, Note_on_c, 0, 69, 106
2, 105936, Note_on_c, 0, 62, 107
2, 105984, Note_on_c, 0, 45, 0
2, 105984, Note_on_c, 0, 50, 0
2, 105984, Note_on_c, 0, 69, 0
2, 105984, Note_on_c, 0, 62, 0
2, 105984, Note_on_c, 0, 41, 87
2, 105984, Note_on_c, 0, 29, 92
2, 105984, Note_on_c, 0, 68, 122
2, 105984, Note_on_c, 0, 73, 127
2, 105984, Control_c, 0, 64, 127
2, 106032, Note_on_c, 0, 68, 0
2, 106032, Note_on_c, 0, 73, 0
2, 106032, Note_on_c, 0, 65, 106
2, 106032, Note_on_c, 0, 68, 106
2, 106080, Note_on_c, 0, 41, 0
2, 106080, Note_on_c, 0, 29, 0
2, 106080, Note_on_c, 0, 65, 0
2, 106080, Note_on_c, 0, 68, 0
2, 106080, Note_on_c, 0, 41, 96
2, 106080, Note_on_c, 0, 68, 111
2, 106080, Note_on_c, 0, 64, 113
2, 106080, Note_on_c, 0, 53, 96
2, 106128, Note_on_c, 0, 68, 0
2, 106128, Note_on_c, 0, 64, 0
2, 106128, Note_on_c, 0, 68, 104
2, 106128, Note_on_c, 0, 63, 111
2, 106176, Note_on_c, 0, 41, 0
2, 106176, Note_on_c, 0, 53, 0
2, 106176, Note_on_c, 0, 68, 0
2, 106176, Note_on_c, 0, 63, 0
2, 106176, Note_on_c, 0, 44, 95
2, 106176, Note_on_c, 0, 49, 87
2, 106176, Note_on_c, 0, 68, 112
2, 106176, Note_on_c, 0, 62, 104
2, 106176, Control_c, 0, 64, 0
2, 106224, Note_on_c, 0, 68, 0
2, 106224, Note_on_c, 0, 62, 0
2, 106224, Note_on_c, 0, 68, 106
2, 106224, Note_on_c, 0, 61, 103
2, 106272, Note_on_c, 0, 44, 0
2, 106272, Note_on_c, 0, 49, 0
2, 106272, Control_c, 0, 64, 127
2, 106272, Note_on_c, 0, 28, 92
2, 106272, Note_on_c, 0, 40, 87
2, 106320, Note_on_c, 0, 68, 0
2, 106320, Note_on_c, 0, 67, 104
2, 106368, Note_on_c, 0, 28, 0
2, 106368, Note_on_c, 0, 40, 0
2, 106368, Note_on_c, 0, 40, 93
2, 106368, Note_on_c, 0, 52, 95
2, 106416, Note_on_c, 0, 61, 0
2, 106416, Note_on_c, 0, 67, 0
2, 106416, Note_on_c, 0, 60, 125
2, 106416, Note_on_c, 0, 67, 127
2, 106464, Note_on_c, 0, 40, 0
2, 106464, Note_on_c, 0, 52, 0
2, 106464, Note_on_c, 0, 38, 94
2, 106464, Note_on_c, 0, 53, 94
2, 106464, Control_c, 0, 64, 0
2, 106512, Note_on_c, 0, 60, 0
2, 106512, Note_on_c, 0, 67, 0
2, 106512, Note_on_c, 0, 68, 127
2, 106512, Note_on_c, 0, 59, 123
2, 106536, Note_on_c, 0, 38, 0
2, 106536, Note_on_c, 0, 53, 0
2, 106536, Note_on_c, 0, 36, 91
2, 106560, Note_on_c, 0, 52, 93
2, 106560, Control_c, 0, 64, 127
2, 106608, Note_on_c, 0, 68, 0
2, 106608, Note_on_c, 0, 59, 0
2, 106608, Note_on_c, 0, 57, 104
2, 106608, Note_on_c, 0, 69, 109
2, 106656, Note_on_c, 0, 36, 0
2, 106656, Note_on_c, 0, 52, 0
2, 106656, Note_on_c, 0, 57, 0
2, 106656, Note_on_c, 0, 69, 0
2, 106656, Note_on_c, 0, 38, 94
2, 106656, Note_on_c, 0, 26, 95
2, 106704, Note_on_c, 0, 57, 127
2, 106704, Note_on_c, 0, 59, 127
2, 106752, Note_on_c, 0, 38, 0
2, 106752, Note_on_c, 0, 26, 0
2, 106752, Note_on_c, 0, 38, 93
2, 106752, Control_c, 0, 64, 0
2, 106752, Note_on_c, 0, 47, 91
2, 106800, Note_on_c, 0, 57, 0
2, 106800, Note_on_c, 0, 59, 0
2, 106800, Note_on_c, 0, 53, 127
2, 106800, Note_on_c, 0, 65, 127
2, 106848, Note_on_c, 0, 38, 0
2, 106848, Note_on_c, 0, 47, 0
2, 106848, Note_on_c, 0, 53, 0
2, 106848, Note_on_c, 0, 65, 0
2, 106848, Note_on_c, 0, 26, 87
2, 106848, Control_c, 0, 64, 127
2, 106848, Note_on_c, 0, 53, 124
2, 106848, Note_on_c, 0, 65, 124
2, 106848, Note_on_c, 0, 38, 89
2, 106896, Note_on_c, 0, 53, 0
2, 106896, Note_on_c, 0, 65, 0
2, 106896, Note_on_c, 0, 65, 103
2, 106896, Note_on_c, 0, 53, 113
2, 106944, Note_on_c, 0, 26, 0
2, 106944, Note_on_c, 0, 38, 0
2, 106944, Note_on_c, 0, 65, 0
2, 106944, Note_on_c, 0, 53, 0
2, 106944, Note_on_c, 0, 57, 106
2, 106944, Note_on_c, 0, 38, 95
2, 106944, Note_on_c, 0, 59, 110
2, 106944, Note_on_c, 0, 47, 94
2, 106992, Note_on_c, 0, 57, 0
2, 106992, Note_on_c, 0, 59, 0
2, 106992, Note_on_c, 0, 53, 112
2, 106992, Note_on_c, 0, 65, 107
2, 107040, Note_on_c, 0, 38, 0
2, 107040, Note_on_c, 0, 47, 0
2, 107040, Note_on_c, 0, 53, 0
2, 107040, Note_on_c, 0, 65, 0
2, 107040, Control_c, 0, 64, 0
2, 107040, Note_on_c, 0, 28, 87
2, 107040, Note_on_c, 0, 40, 94
2, 107040, Note_on_c, 0, 59, 113
2, 107040, Note_on_c, 0, 56, 107
2, 107088, Note_on_c, 0, 59, 0
2, 107088, Note_on_c, 0, 56, 0
2, 107088, Note_on_c, 0, 64, 104
2, 107088, Note_on_c, 0, 52, 104
2, 107136, Note_on_c, 0, 28, 0
2, 107136, Note_on_c, 0, 40, 0
2, 107136, Note_on_c, 0, 64, 0
2, 107136, Note_on_c, 0, 52, 0
2, 107136, Note_on_c, 0, 29, 97
2, 107136, Control_c, 0, 64, 127
2, 107136, Note_on_c, 0, 41, 96
2, 107136, Note_on_c, 0, 59, 107
2, 107136, Note_on_c, 0, 57, 105
2, 107184, Note_on_c, 0, 59, 0
2, 107184, Note_on_c, 0, 57, 0
2, 107184, Note_on_c, 0, 51, 111
2, 107184, Note_on_c, 0, 63, 108
2, 107232, Note_on_c, 0, 29, 0
2, 107232, Note_on_c, 0, 41, 0
2, 107232, Note_on_c, 0, 51, 0
2, 107232, Note_on_c, 0, 63, 0
2, 107232, Note_on_c, 0, 71, 113
2, 107232, Note_on_c, 0, 41, 94
2, 107232, Note_on_c, 0, 69, 107
2, 107232, Note_on_c, 0, 53, 88
2, 107280, Note_on_c, 0, 71, 0
2, 107280, Note_on_c, 0, 69, 0
2, 107280, Note_on_c, 0, 75, 110
2, 107280, Note_on_c, 0, 63, 111
2, 107328, Note_on_c, 0, 41, 0
2, 107328, Note_on_c, 0, 53, 0
2, 107328, Note_on_c, 0, 75, 0
2, 107328, Note_on_c, 0, 63, 0
2, 107328, Note_on_c, 0, 54, 95
2, 107328, Control_c, 0, 64, 0
2, 107328, Note_on_c, 0, 68, 107
2, 107328, Note_on_c, 0, 72, 108
2, 107328, Note_on_c, 0, 42, 94
2, 107376, Note_on_c, 0, 68, 0
2, 107376, Note_on_c, 0, 72, 0
2, 107376, Note_on_c, 0, 63, 109
2, 107376, Note_on_c, 0, 75, 110
2, 107424, Note_on_c, 0, 54, 0
2, 107424, Note_on_c, 0, 42, 0
2, 107424, Note_on_c, 0, 63, 0
2, 107424, Note_on_c, 0, 75, 0
2, 107424, Note_on_c, 0, 55, 89
2, 107424, Note_on_c, 0, 67, 104
2, 107424, Note_on_c, 0, 71, 109
2, 107424, Note_on_c, 0, 43, 96
2, 107424, Control_c, 0, 64, 127
2, 107472, Note_on_c, 0, 67, 0
2, 107472, Note_on_c, 0, 71, 0
2, 107472, Note_on_c, 0, 75, 110
2, 107472, Note_on_c, 0, 63, 112
2, 107520, Note_on_c, 0, 55, 0
2, 107520, Note_on_c, 0, 43, 0
2, 107520, Note_on_c, 0, 75, 0
2, 107520, Note_on_c, 0, 63, 0
2, 107520, Note_on_c, 0, 71, 103
2, 107520, Note_on_c, 0, 43, 92
2, 107520, Note_on_c, 0, 31, 87
2, 107520, Note_on_c, 0, 67, 111
2, 107568, Note_on_c, 0, 71, 0
2, 107568, Note_on_c, 0, 67, 0
2, 107568, Note_on_c, 0, 75, 104
2, 107568, Note_on_c, 0, 63, 111
2, 107616, Note_on_c, 0, 43, 0
2, 107616, Note_on_c, 0, 31, 0
2, 107616, Note_on_c, 0, 75, 0
2, 107616, Note_on_c, 0, 63, 0
2, 107616, Control_c, 0, 64, 0
2, 107616, Note_on_c, 0, 55, 97
2, 107616, Note_on_c, 0, 43, 92
2, 107616, Note_on_c, 0, 67, 106
2, 107616, Note_on_c, 0, 71, 111
2, 107664, Note_on_c, 0, 67, 0
2, 107664, Note_on_c, 0, 71, 0
2, 107664, Note_on_c, 0, 74, 112
2, 107664, Note_on_c, 0, 62, 112
2, 107712, Note_on_c, 0, 55, 0
2, 107712, Note_on_c, 0, 43, 0
2, 107712, Note_on_c, 0, 74, 0
2, 107712, Note_on_c, 0, 62, 0
2, 107712, Note_on_c, 0, 43, 93
2, 107712, Note_on_c, 0, 61, 110
2, 107712, Note_on_c, 0, 59, 107
2, 107712, Control_c, 0, 64, 127
2, 107712, Note_on_c, 0, 31, 92
2, 107760, Note_on_c, 0, 61, 0
2, 107760, Note_on_c, 0, 59, 0
2, 107760, Note_on_c, 0, 65, 108
2, 107760, Note_on_c, 0, 53, 106
2, 107808, Note_on_c, 0, 43, 0
2, 107808, Note_on_c, 0, 31, 0
2, 107808, Note_on_c, 0, 65, 0
2, 107808, Note_on_c, 0, 53, 0
2, 107808, Note_on_c, 0, 55, 88
2, 107808, Note_on_c, 0, 73, 110
2, 107808, Note_on_c, 0, 43, 90
2, 107808, Note_on_c, 0, 71, 109
2, 107856, Note_on_c, 0, 73, 0
2, 107856, Note_on_c, 0, 71, 0
2, 107856, Note_on_c, 0, 77, 104
2, 107856, Note_on_c, 0, 65, 108
2, 107904, Note_on_c, 0, 55, 0
2, 107904, Note_on_c, 0, 43, 0
2, 107904, Note_on_c, 0, 77, 0
2, 107904, Note_on_c, 0, 65, 0
2, 107904, Note_on_c, 0, 56, 97
2, 107904, Note_on_c, 0, 74, 112
2, 107904, Note_on_c, 0, 70, 104
2, 107904, Control_c, 0, 64, 0
2, 107904, Note_on_c, 0, 44, 97
2, 107952, Note_on_c, 0, 74, 0
2, 107952, Note_on_c, 0, 70, 0
2, 107952, Note_on_c, 0, 65, 113
2, 107952, Note_on_c, 0, 77, 112
2, 108000, Note_on_c, 0, 56, 0
2, 108000, Note_on_c, 0, 44, 0
2, 108000, Note_on_c, 0, 65, 0
2, 108000, Note_on_c, 0, 77, 0
2, 108000, Note_on_c, 0, 69, 110
2, 108000, Note_on_c, 0, 57, 95
2, 108000, Control_c, 0, 64, 127
2, 108000, Note_on_c, 0, 73, 108
2, 108000, Note_on_c, 0, 45, 95
2, 108048, Note_on_c, 0, 69, 0
2, 108048, Note_on_c, 0, 73, 0
2, 108048, Note_on_c, 0, 65, 108
2, 108048, Note_on_c, 0, 77, 105
2, 108096, Note_on_c, 0, 57, 0
2, 108096, Note_on_c, 0, 45, 0
2, 108096, Note_on_c, 0, 65, 0
2, 108096, Note_on_c, 0, 77, 0
2, 108096, Note_on_c, 0, 33, 96
2, 108096, Note_on_c, 0, 45, 98
2, 108096, Note_on_c, 0, 69, 109
2, 108096, Note_on_c, 0, 73, 103
2, 108144, Note_on_c, 0, 69, 0
2, 108144, Note_on_c, 0, 73, 0
2, 108144, Note_on_c, 0, 65, 104
2, 108144, Note_on_c, 0, 77, 113
2, 108192, Note_on_c, 0, 33, 0
2, 108192, Note_on_c, 0, 45, 0
2, 108192, Note_on_c, 0, 65, 0
2, 108192, Note_on_c, 0, 77, 0
2, 108192, Note_on_c, 0, 73, 110
2, 108192, Note_on_c, 0, 57, 100
2, 108192, Control_c, 0, 64, 0
2, 108192, Note_on_c, 0, 69, 111
2, 108192, Note_on_c, 0, 45, 100
2, 108240, Note_on_c, 0, 73, 0
2, 108240, Note_on_c, 0, 69, 0
2, 108240, Note_on_c, 0, 76, 106
2, 108240, Note_on_c, 0, 64, 112
2, 108288, Note_on_c, 0, 57, 0
2, 108288, Note_on_c, 0, 45, 0
2, 108288, Note_on_c, 0, 76, 0
2, 108288, Note_on_c, 0, 64, 0
2, 108288, Control_c, 0, 64, 127
2, 108288, Note_on_c, 0, 33, 94
2, 108288, Note_on_c, 0, 61, 107
2, 108288, Note_on_c, 0, 63, 104
2, 108288, Note_on_c, 0, 45, 101
2, 108336, Note_on_c, 0, 61, 0
2, 108336, Note_on_c, 0, 63, 0
2, 108336, Note_on_c, 0, 67, 109
2, 108336, Note_on_c, 0, 55, 105
2, 108384, Note_on_c, 0, 33, 0
2, 108384, Note_on_c, 0, 45, 0
2, 108384, Note_on_c, 0, 67, 0
2, 108384, Note_on_c, 0, 55, 0
2, 108384, Note_on_c, 0, 57, 96
2, 108384, Note_on_c, 0, 75, 105
2, 108384, Note_on_c, 0, 45, 100
2, 108384, Note_on_c, 0, 73, 104
2, 108432, Note_on_c, 0, 75, 0
2, 108432, Note_on_c, 0, 73, 0
2, 108432, Note_on_c, 0, 79, 110
2, 108432, Note_on_c, 0, 67, 111
2, 108480, Note_on_c, 0, 57, 0
2, 108480, Note_on_c, 0, 45, 0
2, 108480, Note_on_c, 0, 79, 0
2, 108480, Note_on_c, 0, 67, 0
2, 108480, Control_c, 0, 64, 0
2, 108480, Note_on_c, 0, 72, 106
2, 108480, Note_on_c, 0, 76, 103
2, 108480, Note_on_c, 0, 46, 103
2, 108480, Note_on_c, 0, 58, 96
2, 108528, Note_on_c, 0, 72, 0
2, 108528, Note_on_c, 0, 76, 0
2, 108528, Note_on_c, 0, 79, 105
2, 108528, Note_on_c, 0, 67, 109
2, 108576, Note_on_c, 0, 46, 0
2, 108576, Note_on_c, 0, 58, 0
2, 108576, Note_on_c, 0, 79, 0
2, 108576, Note_on_c, 0, 67, 0
2, 108576, Note_on_c, 0, 47, 96
2, 108576, Note_on_c, 0, 59, 99
2, 108576, Note_on_c, 0, 76, 112
2, 108576, Note_on_c, 0, 71, 114
2, 108576, Control_c, 0, 64, 127
2, 108624, Note_on_c, 0, 76, 0
2, 108624, Note_on_c, 0, 71, 0
2, 108624, Note_on_c, 0, 79, 110
2, 108624, Note_on_c, 0, 67, 110
2, 108672, Note_on_c, 0, 47, 0
2, 108672, Note_on_c, 0, 59, 0
2, 108672, Note_on_c, 0, 79, 0
2, 108672, Note_on_c, 0, 67, 0
2, 108672, Note_on_c, 0, 78, 116
2, 108672, Note_on_c, 0, 48, 104
2, 108672, Note_on_c, 0, 60, 101
2, 108672, Note_on_c, 0, 76, 109
2, 108720, Note_on_c, 0, 78, 0
2, 108720, Note_on_c, 0, 76, 0
2, 108720, Note_on_c, 0, 82, 117
2, 108720, Note_on_c, 0, 70, 115
2, 108768, Note_on_c, 0, 48, 0
2, 108768, Note_on_c, 0, 60, 0
2, 108768, Note_on_c, 0, 82, 0
2, 108768, Note_on_c, 0, 70, 0
2, 108768, Control_c, 0, 64, 0
2, 108768, Note_on_c, 0, 49, 103
2, 108768, Note_on_c, 0, 61, 102
2, 108768, Note_on_c, 0, 79, 113
2, 108768, Note_on_c, 0, 75, 112
2, 108816, Note_on_c, 0, 79, 0
2, 108816, Note_on_c, 0, 75, 0
2, 108816, Note_on_c, 0, 70, 109
2, 108816, Note_on_c, 0, 82, 112
2, 108864, Note_on_c, 0, 49, 0
2, 108864, Note_on_c, 0, 61, 0
2, 108864, Note_on_c, 0, 70, 0
2, 108864, Note_on_c, 0, 82, 0
2, 108864, Note_on_c, 0, 50, 97
2, 108864, Note_on_c, 0, 62, 101
2, 108864, Note_on_c, 0, 78, 112
2, 108864, Note_on_c, 0, 74, 120
2, 108864, Control_c, 0, 64, 127
2, 108912, Note_on_c, 0, 78, 0
2, 108912, Note_on_c, 0, 74, 0
2, 108912, Note_on_c, 0, 83, 115
2, 108912, Note_on_c, 0, 71, 117
2, 108960, Note_on_c, 0, 50, 0
2, 108960, Note_on_c, 0, 62, 0
2, 108960, Note_on_c, 0, 83, 0
2, 108960, Note_on_c, 0, 71, 0
2, 108960, Note_on_c, 0, 57, 101
2, 108960, Note_on_c, 0, 60, 106
2, 108960, Note_on_c, 0, 63, 101
2, 108960, Note_on_c, 0, 51, 102
2, 108960, Note_on_c, 0, 77, 121
2, 108960, Note_on_c, 0, 81, 118
2, 109008, Note_on_c, 0, 77, 0
2, 109008, Note_on_c, 0, 81, 0
2, 109008, Note_on_c, 0, 72, 117
2, 109008, Note_on_c, 0, 84, 115
2, 109056, Note_on_c, 0, 57, 0
2, 109056, Note_on_c, 0, 60, 0
2, 109056, Note_on_c, 0, 63, 0
2, 109056, Note_on_c, 0, 51, 0
2, 109056, Note_on_c, 0, 72, 0
2, 109056, Note_on_c, 0, 84, 0
2, 109056, Note_on_c, 0, 57, 99
2, 109056, Note_on_c, 0, 60, 107
2, 109056, Note_on_c, 0, 76, 114
2, 109056, Note_on_c, 0, 81, 121
2, 109056, Note_on_c, 0, 64, 99
2, 109056, Note_on_c, 0, 52, 101
2, 109056, Control_c, 0, 64, 0
2, 109104, Note_on_c, 0, 76, 0
2, 109104, Note_on_c, 0, 81, 0
2, 109104, Note_on_c, 0, 84, 121
2, 109104, Note_on_c, 0, 72, 115
2, 109152, Note_on_c, 0, 57, 0
2, 109152, Note_on_c, 0, 60, 0
2, 109152, Note_on_c, 0, 64, 0
2, 109152, Note_on_c, 0, 52, 0
2, 109152, Note_on_c, 0, 84, 0
2, 109152, Note_on_c, 0, 72, 0
2, 109152, Control_c, 0, 64, 127
2, 109152, Note_on_c, 0, 75, 116
2, 109152, Note_on_c, 0, 53, 105
2, 109152, Note_on_c, 0, 65, 104
2, 109152, Note_on_c, 0, 57, 109
2, 109152, Note_on_c, 0, 60, 109
2, 109152, Note_on_c, 0, 81, 120
2, 109200, Note_on_c, 0, 75, 0
2, 109200, Note_on_c, 0, 81, 0
2, 109200, Note_on_c, 0, 72, 126
2, 109200, Note_on_c, 0, 84, 120
2, 109248, Note_on_c, 0, 53, 0
2, 109248, Note_on_c, 0, 65, 0
2, 109248, Note_on_c, 0, 57, 0
2, 109248, Note_on_c, 0, 60, 0
2, 109248, Note_on_c, 0, 72, 0
2, 109248, Note_on_c, 0, 84, 0
2, 109248, Note_on_c, 0, 54, 102
2, 109248, Note_on_c, 0, 81, 125
2, 109248, Note_on_c, 0, 83, 122
2, 109248, Note_on_c, 0, 59, 109
2, 109248, Note_on_c, 0, 66, 110
2, 109248, Note_on_c, 0, 57, 101
2, 109296, Note_on_c, 0, 81, 0
2, 109296, Note_on_c, 0, 83, 0
2, 109296, Note_on_c, 0, 87, 127
2, 109296, Note_on_c, 0, 75, 125
2, 109344, Note_on_c, 0, 54, 0
2, 109344, Note_on_c, 0, 59, 0
2, 109344, Note_on_c, 0, 66, 0
2, 109344, Note_on_c, 0, 57, 0
2, 109344, Note_on_c, 0, 87, 0
2, 109344, Note_on_c, 0, 75, 0
2, 109344, Note_on_c, 0, 84, 127
2, 109344, Control_c, 0, 64, 0
2, 109344, Note_on_c, 0, 81, 124
2, 109344, Note_on_c, 0, 57, 104
2, 109344, Note_on_c, 0, 60, 109
2, 109344, Note_on_c, 0, 65, 110
2, 109344, Note_on_c, 0, 53, 102
2, 109392, Note_on_c, 0, 84, 0
2, 109392, Note_on_c, 0, 81, 0
2, 109392, Note_on_c, 0, 87, 127
2, 109392, Note_on_c, 0, 75, 127
2, 109440, Note_on_c, 0, 57, 0
2, 109440, Note_on_c, 0, 60, 0
2, 109440, Note_on_c, 0, 65, 0
2, 109440, Note_on_c, 0, 53, 0
2, 109440, Note_on_c, 0, 87, 0
2, 109440, Note_on_c, 0, 75, 0
2, 109440, Note_on_c, 0, 28, 93
2, 109440, Note_on_c, 0, 93, 127
2, 109440, Note_on_c, 0, 40, 95
2, 109440, Control_c, 0, 64, 127
2, 109440, Note_on_c, 0, 96, 127
2, 109440, Note_on_c, 0, 89, 127
2, 109488, Note_on_c, 0, 93, 0
2, 109488, Note_on_c, 0, 96, 0
2, 109488, Note_on_c, 0, 89, 0
2, 109488, Note_on_c, 0, 88, 124
2, 109536, Note_on_c, 0, 28, 0
2, 109536, Note_on_c, 0, 40, 0
2, 109536, Note_on_c, 0, 88, 0
2, 109536, Note_on_c, 0, 45, 94
2, 109536, Note_on_c, 0, 89, 127
2, 109536, Note_on_c, 0, 33, 96
2, 109536, Note_on_c, 0, 86, 126
2, 109536, Note_on_c, 0, 93, 126
2, 109584, Note_on_c, 0, 89, 0
2, 109584, Note_on_c, 0, 86, 0
2, 109584, Note_on_c, 0, 93, 0
2, 109584, Note_on_c, 0, 84, 122
2, 109632, Note_on_c, 0, 45, 0
2, 109632, Note_on_c, 0, 33, 0
2, 109632, Note_on_c, 0, 84, 0
2, 109632, Note_on_c, 0, 86, 124
2, 109632, Note_on_c, 0, 47, 98
2, 109632, Note_on_c, 0, 89, 123
2, 109632, Control_c, 0, 64, 0
2, 109632, Note_on_c, 0, 35, 101
2, 109632, Note_on_c, 0, 83, 124
2, 109680, Note_on_c, 0, 86, 0
2, 109680, Note_on_c, 0, 89, 0
2, 109680, Note_on_c, 0, 83, 0
2, 109680, Note_on_c, 0, 81, 116
2, 109728, Note_on_c, 0, 47, 0
2, 109728, Note_on_c, 0, 35, 0
2, 109728, Note_on_c, 0, 81, 0
2, 109728, Note_on_c, 0, 38, 105
2, 109728, Note_on_c, 0, 50, 107
2, 109728, Control_c, 0, 64, 127
2, 109728, Note_on_c, 0, 79, 116
2, 109728, Note_on_c, 0, 86, 113
2, 109728, Note_on_c, 0, 83, 113
2, 109776, Note_on_c, 0, 79, 0
2, 109776, Note_on_c, 0, 86, 0
2, 109776, Note_on_c, 0, 83, 0
2, 109776, Note_on_c, 0, 77, 111
2, 109824, Note_on_c, 0, 38, 0
2, 109824, Note_on_c, 0, 50, 0
2, 109824, Note_on_c, 0, 77, 0
2, 109824, Note_on_c, 0, 76, 117
2, 109824, Note_on_c, 0, 80, 116
2, 109824, Note_on_c, 0, 41, 113
2, 109824, Note_on_c, 0, 53, 111
2, 109824, Note_on_c, 0, 83, 111
2, 109872, Note_on_c, 0, 76, 0
2, 109872, Note_on_c, 0, 80, 0
2, 109872, Note_on_c, 0, 83, 0
2, 109872, Note_on_c, 0, 74, 114
2, 109920, Note_on_c, 0, 41, 0
2, 109920, Note_on_c, 0, 53, 0
2, 109920, Note_on_c, 0, 74, 0
2, 109920, Control_c, 0, 64, 0
2, 109920, Note_on_c, 0, 80, 109
2, 109920, Note_on_c, 0, 76, 108
2, 109920, Note_on_c, 0, 40, 111
2, 109920, Note_on_c, 0, 72, 109
2, 109920, Note_on_c, 0, 52, 113
2, 109968, Note_on_c, 0, 80, 0
2, 109968, Note_on_c, 0, 76, 0
2, 109968, Note_on_c, 0, 72, 0
2, 109968, Note_on_c, 0, 71, 103
2, 110016, Note_on_c, 0, 40, 0
2, 110016, Note_on_c, 0, 52, 0
2, 110016, Note_on_c, 0, 71, 0
2, 110016, Control_c, 0, 64, 127
2, 110016, Note_on_c, 0, 28, 91
2, 110016, Note_on_c, 0, 40, 87
2, 110016, Note_on_c, 0, 93, 127
2, 110016, Note_on_c, 0, 96, 123
2, 110016, Note_on_c, 0, 89, 127
2, 110064, Note_on_c, 0, 93, 0
2, 110064, Note_on_c, 0, 96, 0
2, 110064, Note_on_c, 0, 89, 0
2, 110064, Note_on_c, 0, 88, 126
2, 110112, Note_on_c, 0, 28, 0
2, 110112, Note_on_c, 0, 40, 0
2, 110112, Note_on_c, 0, 88, 0
2, 110112, Note_on_c, 0, 89, 127
2, 110112, Note_on_c, 0, 45, 90
2, 110112, Note_on_c, 0, 33, 92
2, 110112, Note_on_c, 0, 93, 127
2, 110112, Note_on_c, 0, 86, 127
2, 110160, Note_on_c, 0, 89, 0
2, 110160, Note_on_c, 0, 93, 0
2, 110160, Note_on_c, 0, 86, 0
2, 110160, Note_on_c, 0, 84, 124
2, 110208, Note_on_c, 0, 45, 0
2, 110208, Note_on_c, 0, 33, 0
2, 110208, Note_on_c, 0, 84, 0
2, 110208, Note_on_c, 0, 47, 96
2, 110208, Note_on_c, 0, 35, 94
2, 110208, Note_on_c, 0, 83, 119
2, 110208, Note_on_c, 0, 86, 123
2, 110208, Note_on_c, 0, 89, 124
2, 110208, Control_c, 0, 64, 0
2, 110256, Note_on_c, 0, 83, 0
2, 110256, Note_on_c, 0, 86, 0
2, 110256, Note_on_c, 0, 89, 0
2, 110256, Note_on_c, 0, 81, 121
2, 110304, Note_on_c, 0, 47, 0
2, 110304, Note_on_c, 0, 35, 0
2, 110304, Note_on_c, 0, 81, 0
2, 110304, Control_c, 0, 64, 127
2, 110304, Note_on_c, 0, 38, 90
2, 110304, Note_on_c, 0, 83, 120
2, 110304, Note_on_c, 0, 79, 121
2, 110304, Note_on_c, 0, 86, 119
2, 110304, Note_on_c, 0, 50, 89
2, 110352, Note_on_c, 0, 83, 0
2, 110352, Note_on_c, 0, 79, 0
2, 110352, Note_on_c, 0, 86, 0
2, 110352, Note_on_c, 0, 77, 113
2, 110400, Note_on_c, 0, 38, 0
2, 110400, Note_on_c, 0, 50, 0
2, 110400, Note_on_c, 0, 77, 0
2, 110400, Note_on_c, 0, 41, 88
2, 110400, Note_on_c, 0, 83, 109
2, 110400, Note_on_c, 0, 76, 118
2, 110400, Note_on_c, 0, 80, 114
2, 110400, Note_on_c, 0, 53, 87
2, 110448, Note_on_c, 0, 83, 0
2, 110448, Note_on_c, 0, 76, 0
2, 110448, Note_on_c, 0, 80, 0
2, 110448, Note_on_c, 0, 74, 107
2, 110496, Note_on_c, 0, 41, 0
2, 110496, Note_on_c, 0, 53, 0
2, 110496, Note_on_c, 0, 74, 0
2, 110496, Note_on_c, 0, 52, 93
2, 110496, Note_on_c, 0, 80, 112
2, 110496, Note_on_c, 0, 40, 97
2, 110496, Note_on_c, 0, 72, 112
2, 110496, Control_c, 0, 64, 0
2, 110496, Note_on_c, 0, 76, 111
2, 110544, Note_on_c, 0, 80, 0
2, 110544, Note_on_c, 0, 72, 0
2, 110544, Note_on_c, 0, 76, 0
2, 110544, Note_on_c, 0, 71, 103
2, 110592, Note_on_c, 0, 52, 0
2, 110592, Note_on_c, 0, 40, 0
2, 110592, Note_on_c, 0, 71, 0
2, 110592, Control_c, 0, 64, 127
2, 110592, Note_on_c, 0, 71, 127
2, 110592, Note_on_c, 0, 39, 87
2, 110592, Note_on_c, 0, 51, 90
2, 110640, Note_on_c, 0, 71, 0
2, 110640, Note_on_c, 0, 83, 112
2, 110640, Note_on_c, 0, 78, 103
2, 110640, Note_on_c, 0, 81, 110
2, 110688, Note_on_c, 0, 39, 0
2, 110688, Note_on_c, 0, 51, 0
2, 110688, Note_on_c, 0, 83, 0
2, 110688, Note_on_c, 0, 78, 0
2, 110688, Note_on_c, 0, 81, 0
2, 110688, Note_on_c, 0, 66, 90
2, 110688, Note_on_c, 0, 57, 96
2, 110688, Note_on_c, 0, 59, 97
2, 110688, Note_on_c, 0, 83, 109
2, 110736, Note_on_c, 0, 83, 0
2, 110736, Note_on_c, 0, 95, 103
2, 110736, Note_on_c, 0, 90, 112
2, 110736, Note_on_c, 0, 93, 112
2, 110784, Note_on_c, 0, 66, 0
2, 110784, Note_on_c, 0, 57, 0
2, 110784, Note_on_c, 0, 59, 0
2, 110784, Note_on_c, 0, 95, 0
2, 110784, Note_on_c, 0, 90, 0
2, 110784, Note_on_c, 0, 93, 0
2, 110784, Control_c, 0, 64, 0
2, 110784, Note_on_c, 0, 83, 106
2, 110832, Note_on_c, 0, 83, 0
2, 110832, Note_on_c, 0, 83, 113
2, 110832, Note_on_c, 0, 81, 104
2, 110832, Note_on_c, 0, 78, 107
2, 110880, Note_on_c, 0, 83, 0
2, 110880, Note_on_c, 0, 81, 0
2, 110880, Note_on_c, 0, 78, 0
2, 110880, Control_c, 0, 64, 127
2, 110880, Note_on_c, 0, 39, 90
2, 110880, Note_on_c, 0, 51, 94
2, 110880, Note_on_c, 0, 72, 126
2, 110928, Note_on_c, 0, 72, 0
2, 110928, Note_on_c, 0, 78, 104
2, 110928, Note_on_c, 0, 84, 106
2, 110928, Note_on_c, 0, 81, 113
2, 110976, Note_on_c, 0, 39, 0
2, 110976, Note_on_c, 0, 51, 0
2, 110976, Note_on_c, 0, 78, 0
2, 110976, Note_on_c, 0, 84, 0
2, 110976, Note_on_c, 0, 81, 0
2, 110976, Note_on_c, 0, 66, 96
2, 110976, Note_on_c, 0, 84, 107
2, 110976, Note_on_c, 0, 57, 89
2, 110976, Note_on_c, 0, 60, 96
2, 111024, Note_on_c, 0, 84, 0
2, 111024, Note_on_c, 0, 93, 113
2, 111024, Note_on_c, 0, 96, 105
2, 111024, Note_on_c, 0, 90, 113
2, 111072, Note_on_c, 0, 66, 0
2, 111072, Note_on_c, 0, 57, 0
2, 111072, Note_on_c, 0, 60, 0
2, 111072, Note_on_c, 0, 93, 0
2, 111072, Note_on_c, 0, 96, 0
2, 111072, Note_on_c, 0, 90, 0
2, 111072, Control_c, 0, 64, 0
2, 111072, Note_on_c, 0, 84, 104
2, 111120, Note_on_c, 0, 84, 0
2, 111120, Note_on_c, 0, 84, 107
2, 111120, Note_on_c, 0, 81, 109
2, 111120, Note_on_c, 0, 78, 110
2, 111168, Note_on_c, 0, 84, 0
2, 111168, Note_on_c, 0, 81, 0
2, 111168, Note_on_c, 0, 78, 0
2, 111168, Note_on_c, 0, 40, 87
2, 111168, Note_on_c, 0, 72, 111
2, 111168, Note_on_c, 0, 52, 93
2, 111168, Control_c, 0, 64, 127
2, 111216, Note_on_c, 0, 72, 0
2, 111216, Note_on_c, 0, 76, 113
2, 111216, Note_on_c, 0, 81, 108
2, 111216, Note_on_c, 0, 84, 105
2, 111264, Note_on_c, 0, 40, 0
2, 111264, Note_on_c, 0, 52, 0
2, 111264, Note_on_c, 0, 76, 0
2, 111264, Note_on_c, 0, 81, 0
2, 111264, Note_on_c, 0, 84, 0
2, 111264, Note_on_c, 0, 84, 113
2, 111264, Note_on_c, 0, 60, 89
2, 111264, Note_on_c, 0, 64, 87
2, 111264, Note_on_c, 0, 69, 87
2, 111312, Note_on_c, 0, 84, 0
2, 111312, Note_on_c, 0, 96, 104
2, 111312, Note_on_c, 0, 93, 104
2, 111312, Note_on_c, 0, 88, 111
2, 111360, Note_on_c, 0, 60, 0
2, 111360, Note_on_c, 0, 64, 0
2, 111360, Note_on_c, 0, 69, 0
2, 111360, Note_on_c, 0, 96, 0
2, 111360, Note_on_c, 0, 93, 0
2, 111360, Note_on_c, 0, 88, 0
2, 111360, Note_on_c, 0, 84, 113
2, 111360, Control_c, 0, 64, 0
2, 111408, Note_on_c, 0, 84, 0
2, 111408, Note_on_c, 0, 84, 104
2, 111408, Note_on_c, 0, 81, 103
2, 111408, Note_on_c, 0, 76, 105
2, 111456, Note_on_c, 0, 84, 0
2, 111456, Note_on_c, 0, 81, 0
2, 111456, Note_on_c, 0, 76, 0
2, 111456, Note_on_c, 0, 71, 109
2, 111456, Note_on_c, 0, 52, 89
2, 111456, Control_c, 0, 64, 127
2, 111456, Note_on_c, 0, 40, 90
2, 111504, Note_on_c, 0, 71, 0
2, 111504, Note_on_c, 0, 80, 104
2, 111504, Note_on_c, 0, 83, 113
2, 111504, Note_on_c, 0, 76, 105
2, 111552, Note_on_c, 0, 52, 0
2, 111552, Note_on_c, 0, 40, 0
2, 111552, Note_on_c, 0, 80, 0
2, 111552, Note_on_c, 0, 83, 0
2, 111552, Note_on_c, 0, 76, 0
2, 111552, Note_on_c, 0, 68, 94
2, 111552, Note_on_c, 0, 83, 106
2, 111552, Note_on_c, 0, 64, 97
2, 111552, Note_on_c, 0, 59, 94
2, 111600, Note_on_c, 0, 83, 0
2, 111600, Note_on_c, 0, 88, 105
2, 111600, Note_on_c, 0, 92, 103
2, 111600, Note_on_c, 0, 95, 112
2, 111648, Note_on_c, 0, 68, 0
2, 111648, Note_on_c, 0, 64, 0
2, 111648, Note_on_c, 0, 59, 0
2, 111648, Note_on_c, 0, 88, 0
2, 111648, Note_on_c, 0, 92, 0
2, 111648, Note_on_c, 0, 95, 0
2, 111648, Note_on_c, 0, 83, 105
2, 111648, Control_c, 0, 64, 0
2, 111696, Note_on_c, 0, 83, 0
2, 111696, Note_on_c, 0, 76, 109
2, 111696, Note_on_c, 0, 83, 103
2, 111696, Note_on_c, 0, 80, 111
2, 111744, Note_on_c, 0, 76, 0
2, 111744, Note_on_c, 0, 83, 0
2, 111744, Note_on_c, 0, 80, 0
2, 111744, Note_on_c, 0, 93, 127
2, 111744, Note_on_c, 0, 96, 126
2, 111744, Note_on_c, 0, 33, 94
2, 111744, Note_on_c, 0, 45, 92
2, 111744, Note_on_c, 0, 100, 122
2, 111744, Control_c, 0, 64, 127
2, 111792, Note_on_c, 0, 93, 0
2, 111792, Note_on_c, 0, 96, 0
2, 111792, Note_on_c, 0, 100, 0
2, 111792, Note_on_c, 0, 91, 127
2, 111840, Note_on_c, 0, 33, 0
2, 111840, Note_on_c, 0, 45, 0
2, 111840, Note_on_c, 0, 91, 0
2, 111840, Note_on_c, 0, 96, 127
2, 111840, Note_on_c, 0, 36, 87
2, 111840, Note_on_c, 0, 89, 120
2, 111840, Note_on_c, 0, 93, 125
2, 111840, Note_on_c, 0, 48, 91
2, 111888, Note_on_c, 0, 96, 0
2, 111888, Note_on_c, 0, 89, 0
2, 111888, Note_on_c, 0, 93, 0
2, 111888, Note_on_c, 0, 88, 121
2, 111936, Note_on_c, 0, 36, 0
2, 111936, Note_on_c, 0, 48, 0
2, 111936, Note_on_c, 0, 88, 0
2, 111936, Note_on_c, 0, 86, 118
2, 111936, Note_on_c, 0, 93, 123
2, 111936, Control_c, 0, 64, 0
2, 111936, Note_on_c, 0, 38, 95
2, 111936, Note_on_c, 0, 50, 104
2, 111936, Note_on_c, 0, 89, 121
2, 111984, Note_on_c, 0, 86, 0
2, 111984, Note_on_c, 0, 93, 0
2, 111984, Note_on_c, 0, 89, 0
2, 111984, Note_on_c, 0, 84, 116
2, 112032, Note_on_c, 0, 38, 0
2, 112032, Note_on_c, 0, 50, 0
2, 112032, Note_on_c, 0, 84, 0
2, 112032, Note_on_c, 0, 89, 107
2, 112032, Note_on_c, 0, 86, 117
2, 112032, Note_on_c, 0, 83, 109
2, 112032, Note_on_c, 0, 53, 108
2, 112032, Note_on_c, 0, 41, 109
2, 112032, Control_c, 0, 64, 127
2, 112080, Note_on_c, 0, 89, 0
2, 112080, Note_on_c, 0, 86, 0
2, 112080, Note_on_c, 0, 83, 0
2, 112080, Note_on_c, 0, 81, 112
2, 112128, Note_on_c, 0, 53, 0
2, 112128, Note_on_c, 0, 41, 0
2, 112128, Note_on_c, 0, 81, 0
2, 112128, Note_on_c, 0, 65, 106
2, 112128, Note_on_c, 0, 86, 104
2, 112128, Note_on_c, 0, 79, 105
2, 112128, Note_on_c, 0, 83, 102
2, 112128, Note_on_c, 0, 53, 111
2, 112176, Note_on_c, 0, 86, 0
2, 112176, Note_on_c, 0, 79, 0
2, 112176, Note_on_c, 0, 83, 0
2, 112176, Note_on_c, 0, 77, 108
2, 112224, Note_on_c, 0, 65, 0
2, 112224, Note_on_c, 0, 53, 0
2, 112224, Note_on_c, 0, 77, 0
2, 112224, Note_on_c, 0, 76, 96
2, 112224, Note_on_c, 0, 83, 98
2, 112224, Control_c, 0, 64, 0
2, 112224, Note_on_c, 0, 64, 113
2, 112224, Note_on_c, 0, 52, 105
2, 112224, Note_on_c, 0, 80, 102
2, 112272, Note_on_c, 0, 76, 0
2, 112272, Note_on_c, 0, 83, 0
2, 112272, Note_on_c, 0, 80, 0
2, 112272, Note_on_c, 0, 74, 100
2, 112320, Note_on_c, 0, 64, 0
2, 112320, Note_on_c, 0, 52, 0
2, 112320, Note_on_c, 0, 74, 0
2, 112320, Note_on_c, 0, 96, 126
2, 112320, Note_on_c, 0, 93, 122
2, 112320, Note_on_c, 0, 100, 127
2, 112320, Note_on_c, 0, 33, 95
2, 112320, Note_on_c, 0, 45, 87
2, 112320, Control_c, 0, 64, 127
2, 112368, Note_on_c, 0, 96, 0
2, 112368, Note_on_c, 0, 93, 0
2, 112368, Note_on_c, 0, 100, 0
2, 112368, Note_on_c, 0, 91, 127
2, 112416, Note_on_c, 0, 33, 0
2, 112416, Note_on_c, 0, 45, 0
2, 112416, Note_on_c, 0, 91, 0
2, 112416, Note_on_c, 0, 36, 90
2, 112416, Note_on_c, 0, 93, 127
2, 112416, Note_on_c, 0, 48, 96
2, 112416, Note_on_c, 0, 89, 125
2, 112416, Note_on_c, 0, 96, 124
2, 112464, Note_on_c, 0, 93, 0
2, 112464, Note_on_c, 0, 89, 0
2, 112464, Note_on_c, 0, 96, 0
2, 112464, Note_on_c, 0, 88, 118
2, 112512, Note_on_c, 0, 36, 0
2, 112512, Note_on_c, 0, 48, 0
2, 112512, Note_on_c, 0, 88, 0
2, 112512, Note_on_c, 0, 93, 121
2, 112512, Control_c, 0, 64, 0
2, 112512, Note_on_c, 0, 38, 105
2, 112512, Note_on_c, 0, 50, 97
2, 112512, Note_on_c, 0, 86, 115
2, 112512, Note_on_c, 0, 89, 123
2, 112560, Note_on_c, 0, 93, 0
2, 112560, Note_on_c, 0, 86, 0
2, 112560, Note_on_c, 0, 89, 0
2, 112560, Note_on_c, 0, 84, 116
2, 112608, Note_on_c, 0, 38, 0
2, 112608, Note_on_c, 0, 50, 0
2, 112608, Note_on_c, 0, 84, 0
2, 112608, Note_on_c, 0, 41, 109
2, 112608, Note_on_c, 0, 83, 117
2, 112608, Note_on_c, 0, 53, 107
2, 112608, Control_c, 0, 64, 127
2, 112608, Note_on_c, 0, 86, 115
2, 112608, Note_on_c, 0, 89, 111
2, 112656, Note_on_c, 0, 83, 0
2, 112656, Note_on_c, 0, 86, 0
2, 112656, Note_on_c, 0, 89, 0
2, 112656, Note_on_c, 0, 81, 104
2, 112704, Note_on_c, 0, 41, 0
2, 112704, Note_on_c, 0, 53, 0
2, 112704, Note_on_c, 0, 81, 0
2, 112704, Note_on_c, 0, 86, 105
2, 112704, Note_on_c, 0, 79, 103
2, 112704, Note_on_c, 0, 53, 111
2, 112704, Note_on_c, 0, 83, 108
2, 112704, Note_on_c, 0, 65, 110
2, 112752, Note_on_c, 0, 86, 0
2, 112752, Note_on_c, 0, 79, 0
2, 112752, Note_on_c, 0, 83, 0
2, 112752, Note_on_c, 0, 77, 96
2, 112800, Note_on_c, 0, 53, 0
2, 112800, Note_on_c, 0, 65, 0
2, 112800, Note_on_c, 0, 77, 0
2, 112800, Control_c, 0, 64, 0
2, 112800, Note_on_c, 0, 76, 93
2, 112800, Note_on_c, 0, 64, 113
2, 112800, Note_on_c, 0, 83, 91
2, 112800, Note_on_c, 0, 80, 94
2, 112800, Note_on_c, 0, 52, 110
2, 112848, Note_on_c, 0, 76, 0
2, 112848, Note_on_c, 0, 83, 0
2, 112848, Note_on_c, 0, 80, 0
2, 112848, Note_on_c, 0, 71, 97
2, 112896, Note_on_c, 0, 64, 0
2, 112896, Note_on_c, 0, 52, 0
2, 112896, Note_on_c, 0, 71, 0
2, 112896, Note_on_c, 0, 39, 92
2, 112896, Note_on_c, 0, 71, 124
2, 112896, Control_c, 0, 64, 127
2, 112896, Note_on_c, 0, 51, 93
2, 112944, Note_on_c, 0, 71, 0
2, 112944, Note_on_c, 0, 81, 106
2, 112944, Note_on_c, 0, 78, 111
2, 112944, Note_on_c, 0, 83, 105
2, 112992, Note_on_c, 0, 39, 0
2, 112992, Note_on_c, 0, 51, 0
2, 112992, Note_on_c, 0, 81, 0
2, 112992, Note_on_c, 0, 78, 0
2, 112992, Note_on_c, 0, 83, 0
2, 112992, Note_on_c, 0, 59, 96
2, 112992, Note_on_c, 0, 66, 90
2, 112992, Note_on_c, 0, 83, 108
2, 112992, Note_on_c, 0, 57, 87
2, 112992, Note_on_c, 0, 51, 97
2, 113040, Note_on_c, 0, 83, 0
2, 113040, Note_on_c, 0, 93, 108
2, 113040, Note_on_c, 0, 90, 113
2, 113040, Note_on_c, 0, 95, 103
2, 113088, Note_on_c, 0, 59, 0
2, 113088, Note_on_c, 0, 66, 0
2, 113088, Note_on_c, 0, 57, 0
2, 113088, Note_on_c, 0, 51, 0
2, 113088, Note_on_c, 0, 93, 0
2, 113088, Note_on_c, 0, 90, 0
2, 113088, Note_on_c, 0, 95, 0
2, 113088, Note_on_c, 0, 83, 109
2, 113136, Note_on_c, 0, 83, 0
2, 113136, Note_on_c, 0, 83, 106
2, 113136, Note_on_c, 0, 78, 103
2, 113136, Note_on_c, 0, 81, 111
2, 113136, Control_c, 0, 64, 0
2, 113184, Note_on_c, 0, 83, 0
2, 113184, Note_on_c, 0, 78, 0
2, 113184, Note_on_c, 0, 81, 0
2, 113184, Note_on_c, 0, 39, 91
2, 113184, Control_c, 0, 64, 127
2, 113184, Note_on_c, 0, 72, 108
2, 113184, Note_on_c, 0, 51, 90
2, 113232, Note_on_c, 0, 72, 0
2, 113232, Note_on_c, 0, 84, 126
2, 113232, Note_on_c, 0, 81, 123
2, 113232, Note_on_c, 0, 78, 127
2, 113280, Note_on_c, 0, 39, 0
2, 113280, Note_on_c, 0, 51, 0
2, 113280, Note_on_c, 0, 84, 0
2, 113280, Note_on_c, 0, 81, 0
2, 113280, Note_on_c, 0, 78, 0
2, 113280, Note_on_c, 0, 51, 87
2, 113280, Note_on_c, 0, 66, 91
2, 113280, Note_on_c, 0, 84, 109
2, 113280, Note_on_c, 0, 57, 94
2, 113280, Note_on_c, 0, 60, 96
2, 113328, Note_on_c, 0, 84, 0
2, 113328, Note_on_c, 0, 90, 107
2, 113328, Note_on_c, 0, 93, 107
2, 113328, Note_on_c, 0, 96, 103
2, 113376, Note_on_c, 0, 51, 0
2, 113376, Note_on_c, 0, 66, 0
2, 113376, Note_on_c, 0, 57, 0
2, 113376, Note_on_c, 0, 60, 0
2, 113376, Note_on_c, 0, 90, 0
2, 113376, Note_on_c, 0, 93, 0
2, 113376, Note_on_c, 0, 96, 0
2, 113376, Note_on_c, 0, 84, 110
2, 113424, Note_on_c, 0, 84, 0
2, 113424, Note_on_c, 0, 78, 108
2, 113424, Control_c, 0, 64, 0
2, 113424, Note_on_c, 0, 84, 111
2, 113424, Note_on_c, 0, 81, 107
2, 113472, Note_on_c, 0, 78, 0
2, 113472, Note_on_c, 0, 84, 0
2, 113472, Note_on_c, 0, 81, 0
2, 113472, Control_c, 0, 64, 127
2, 113472, Note_on_c, 0, 73, 126
2, 113472, Note_on_c, 0, 40, 94
2, 113472, Note_on_c, 0, 52, 91
2, 113520, Note_on_c, 0, 73, 0
2, 113520, Note_on_c, 0, 82, 113
2, 113520, Note_on_c, 0, 85, 112
2, 113520, Note_on_c, 0, 79, 103
2, 113568, Note_on_c, 0, 40, 0
2, 113568, Note_on_c, 0, 52, 0
2, 113568, Note_on_c, 0, 82, 0
2, 113568, Note_on_c, 0, 85, 0
2, 113568, Note_on_c, 0, 79, 0
2, 113568, Note_on_c, 0, 61, 89
2, 113568, Note_on_c, 0, 58, 96
2, 113568, Note_on_c, 0, 85, 110
2, 113568, Note_on_c, 0, 67, 89
2, 113616, Note_on_c, 0, 85, 0
2, 113616, Note_on_c, 0, 97, 109
2, 113616, Note_on_c, 0, 91, 104
2, 113616, Note_on_c, 0, 94, 108
2, 113664, Note_on_c, 0, 61, 0
2, 113664, Note_on_c, 0, 58, 0
2, 113664, Note_on_c, 0, 67, 0
2, 113664, Note_on_c, 0, 97, 0
2, 113664, Note_on_c, 0, 91, 0
2, 113664, Note_on_c, 0, 94, 0
2, 113664, Note_on_c, 0, 85, 115
2, 113712, Note_on_c, 0, 85, 0
2, 113712, Note_on_c, 0, 79, 108
2, 113712, Note_on_c, 0, 85, 116
2, 113712, Note_on_c, 0, 82, 109
2, 113712, Control_c, 0, 64, 0
2, 113760, Note_on_c, 0, 79, 0
2, 113760, Note_on_c, 0, 85, 0
2, 113760, Note_on_c, 0, 82, 0
2, 113760, Note_on_c, 0, 74, 113
2, 113760, Note_on_c, 0, 53, 87
2, 113760, Note_on_c, 0, 41, 93
2, 113760, Control_c, 0, 64, 127
2, 113808, Note_on_c, 0, 74, 0
2, 113808, Note_on_c, 0, 86, 118
2, 113808, Note_on_c, 0, 80, 114
2, 113808, Note_on_c, 0, 83, 121
2, 113856, Note_on_c, 0, 53, 0
2, 113856, Note_on_c, 0, 41, 0
2, 113856, Note_on_c, 0, 86, 0
2, 113856, Note_on_c, 0, 80, 0
2, 113856, Note_on_c, 0, 83, 0
2, 113856, Note_on_c, 0, 59, 90
2, 113856, Note_on_c, 0, 68, 97
2, 113856, Note_on_c, 0, 62, 97
2, 113856, Note_on_c, 0, 86, 118
2, 113904, Note_on_c, 0, 86, 0
2, 113904, Note_on_c, 0, 92, 121
2, 113904, Note_on_c, 0, 95, 116
2, 113904, Note_on_c, 0, 98, 125
2, 113952, Note_on_c, 0, 59, 0
2, 113952, Note_on_c, 0, 68, 0
2, 113952, Note_on_c, 0, 62, 0
2, 113952, Note_on_c, 0, 92, 0
2, 113952, Note_on_c, 0, 95, 0
2, 113952, Note_on_c, 0, 98, 0
2, 113952, Note_on_c, 0, 86, 126
2, 114000, Note_on_c, 0, 86, 0
2, 114000, Note_on_c, 0, 83, 127
2, 114000, Note_on_c, 0, 80, 123
2, 114000, Control_c, 0, 64, 0
2, 114000, Note_on_c, 0, 86, 123
2, 114048, Note_on_c, 0, 83, 0
2, 114048, Note_on_c, 0, 80, 0
2, 114048, Note_on_c, 0, 86, 0
2, 114048, Control_c, 0, 64, 127
2, 114048, Note_on_c, 0, 75, 127
2, 114048, Note_on_c, 0, 53, 126
2, 114060, Note_on_c, 0, 57, 126
2, 114064, Note_on_c, 0, 75, 0
2, 114064, Note_on_c, 0, 81, 127
2, 114064, Note_on_c, 0, 83, 127
2, 114064, Note_on_c, 0, 87, 127
2, 114072, Note_on_c, 0, 59, 127
2, 114080, Note_on_c, 0, 81, 0
2, 114080, Note_on_c, 0, 83, 0
2, 114080, Note_on_c, 0, 87, 0
2, 114080, Note_on_c, 0, 87, 125
2, 114084, Note_on_c, 0, 63, 127
2, 114096, Note_on_c, 0, 69, 127
2, 114096, Note_on_c, 0, 99, 127
2, 114144, Note_on_c, 0, 53, 0
2, 114144, Note_on_c, 0, 57, 0
2, 114144, Note_on_c, 0, 59, 0
2, 114144, Note_on_c, 0, 87, 0
2, 114144, Note_on_c, 0, 63, 0
2, 114144, Note_on_c, 0, 69, 0
2, 114144, Note_on_c, 0, 99, 0
2, 114240, Control_c, 0, 64, 0
2, 114240, Note_on_c, 0, 69, 46
2, 114240, Note_on_c, 0, 57, 29
2, 114336, Note_on_c, 0, 69, 0
2, 114336, Note_on_c, 0, 57, 0
2, 114336, Note_on_c, 0, 69, 46
2, 114336, Note_on_c, 0, 57, 32
2, 114528, Note_on_c, 0, 69, 0
2, 114528, Note_on_c, 0, 57, 0
2, 114528, Note_on_c, 0, 57, 27
2, 114528, Note_on_c, 0, 69, 43
2, 114624, Note_on_c, 0, 57, 0
2, 114624, Note_on_c, 0, 69, 0
2, 114624, Note_on_c, 0, 57, 31
2, 114624, Note_on_c, 0, 69, 47
2, 114816, Note_on_c, 0, 57, 0
2, 114816, Note_on_c, 0, 69, 0
2, 114816, Note_on_c, 0, 57, 26
2, 114816, Note_on_c, 0, 69, 41
2, 114912, Note_on_c, 0, 57, 0
2, 114912, Note_on_c, 0, 69, 0
2, 114912, Note_on_c, 0, 69, 44
2, 114912, Note_on_c, 0, 57, 28
2, 115104, Note_on_c, 0, 69, 0
2, 115104, Note_on_c, 0, 57, 0
2, 115104, Note_on_c, 0, 57, 25
2, 115104, Note_on_c, 0, 69, 41
2, 115200, Note_on_c, 0, 57, 0
2, 115200, Note_on_c, 0, 69, 0
2, 115200, Note_on_c, 0, 57, 32
2, 115200, Note_on_c, 0, 72, 49
2, 115200, Note_on_c, 0, 64, 26
2, 115200, Note_on_c, 0, 52, 29
2, 115392, Note_on_c, 0, 57, 0
2, 115392, Note_on_c, 0, 72, 0
2, 115392, Note_on_c, 0, 64, 0
2, 115392, Note_on_c, 0, 52, 0
2, 115392, Note_on_c, 0, 50, 32
2, 115392, Note_on_c, 0, 65, 34
2, 115392, Note_on_c, 0, 69, 41
2, 115392, Note_on_c, 0, 57, 29
2, 115488, Note_on_c, 0, 50, 0
2, 115488, Note_on_c, 0, 65, 0
2, 115488, Note_on_c, 0, 69, 0
2, 115488, Note_on_c, 0, 57, 0
2, 115488, Note_on_c, 0, 64, 27
2, 115488, Note_on_c, 0, 72, 46
2, 115488, Note_on_c, 0, 52, 28
2, 115488, Note_on_c, 0, 57, 32
2, 115680, Note_on_c, 0, 64, 0
2, 115680, Note_on_c, 0, 72, 0
2, 115680, Note_on_c, 0, 52, 0
2, 115680, Note_on_c, 0, 57, 0
2, 115680, Note_on_c, 0, 74, 48
2, 115680, Note_on_c, 0, 57, 29
2, 115680, Note_on_c, 0, 53, 34
2, 115680, Note_on_c, 0, 62, 25
2, 115776, Note_on_c, 0, 74, 0
2, 115776, Note_on_c, 0, 57, 0
2, 115776, Note_on_c, 0, 53, 0
2, 115776, Note_on_c, 0, 62, 0
2, 115776, Note_on_c, 0, 57, 32
2, 115776, Note_on_c, 0, 64, 29
2, 115776, Note_on_c, 0, 52, 32
2, 115776, Note_on_c, 0, 72, 44
2, 115920, Note_on_c, 0, 72, 0
2, 115920, Note_on_c, 0, 71, 57
2, 115968, Note_on_c, 0, 57, 0
2, 115968, Note_on_c, 0, 64, 0
2, 115968, Note_on_c, 0, 52, 0
2, 115968, Note_on_c, 0, 71, 0
2, 115968, Note_on_c, 0, 65, 34
2, 115968, Note_on_c, 0, 69, 58
2, 115968, Note_on_c, 0, 50, 45
2, 115968, Note_on_c, 0, 57, 40
2, 116064, Note_on_c, 0, 65, 0
2, 116064, Note_on_c, 0, 69, 0
2, 116064, Note_on_c, 0, 50, 0
2, 116064, Note_on_c, 0, 57, 0
2, 116064, Note_on_c, 0, 64, 30
2, 116064, Note_on_c, 0, 52, 42
2, 116064, Note_on_c, 0, 57, 44
2, 116064, Note_on_c, 0, 72, 65
2, 116256, Note_on_c, 0, 64, 0
2, 116256, Note_on_c, 0, 52, 0
2, 116256, Note_on_c, 0, 57, 0
2, 116256, Note_on_c, 0, 72, 0
2, 116256, Note_on_c, 0, 62, 62
2, 116256, Note_on_c, 0, 53, 45
2, 116256, Note_on_c, 0, 57, 50
2, 116256, Note_on_c, 0, 74, 58
2, 116352, Note_on_c, 0, 62, 0
2, 116352, Note_on_c, 0, 53, 0
2, 116352, Note_on_c, 0, 57, 0
2, 116352, Note_on_c, 0, 74, 0
2, 116352, Note_on_c, 0, 64, 45
2, 116352, Control_c, 0, 64, 127
2, 116352, Note_on_c, 0, 52, 27
2, 116376, Note_on_c, 0, 69, 41
2, 116400, Note_on_c, 0, 60, 32
2, 116400, Note_on_c, 0, 76, 42
2, 116544, Note_on_c, 0, 64, 0
2, 116544, Note_on_c, 0, 52, 0
2, 116544, Note_on_c, 0, 69, 0
2, 116544, Note_on_c, 0, 60, 0
2, 116544, Note_on_c, 0, 76, 0
2, 116928, Control_c, 0, 64, 0
2, 117216, Note_on_c, 0, 62, 35
2, 117216, Note_on_c, 0, 52, 30
2, 117216, Note_on_c, 0, 64, 29
2, 117216, Note_on_c, 0, 68, 48
2, 117216, Note_on_c, 0, 59, 25
2, 117480, Note_on_c, 0, 68, 0
2, 117480, Note_on_c, 0, 56, 45
2, 117504, Note_on_c, 0, 62, 0
2, 117504, Note_on_c, 0, 52, 0
2, 117504, Note_on_c, 0, 64, 0
2, 117504, Note_on_c, 0, 59, 0
2, 117504, Note_on_c, 0, 56, 0
2, 117504, Note_on_c, 0, 40, 27
2, 117504, Control_c, 0, 64, 127
2, 117504, Note_on_c, 0, 56, 27
2, 117512, Note_on_c, 0, 62, 26
2, 117520, Note_on_c, 0, 64, 26
2, 117528, Note_on_c, 0, 52, 29
2, 117528, Note_on_c, 0, 71, 40
2, 118032, Control_c, 0, 64, 0
2, 118080, Note_on_c, 0, 40, 0
2, 118080, Note_on_c, 0, 56, 0
2, 118080, Note_on_c, 0, 62, 0
2, 118080, Note_on_c, 0, 52, 0
2, 118080, Note_on_c, 0, 71, 0
2, 118080, Note_on_c, 0, 69, 46
2, 118080, Note_on_c, 0, 60, 28
2, 118080, Note_on_c, 0, 33, 33
2, 118080, Note_on_c, 0, 45, 28
2, 118080, Note_on_c, 0, 57, 35
2, 118080, Control_c, 0, 64, 127
2, 118272, Note_on_c, 0, 64, 0
2, 118272, Note_on_c, 0, 69, 0
2, 118272, Note_on_c, 0, 60, 0
2, 118272, Note_on_c, 0, 33, 0
2, 118272, Note_on_c, 0, 45, 0
2, 118272, Note_on_c, 0, 57, 0
2, 118656, Control_c, 0, 64, 0
2, 118752, Control_c, 0, 121, 127
2, 118752, End_track
3, 0, Start_track
3, 0, Title_t, "by Fryderyk Franciszeck Chopin (1810-1849)"
3, 0, MIDI_port, 0
3, 0, End_track
4, 0, Start_track
4, 0, Title_t, "Copyright © 2002 by Dario Galimberti"
4, 0, MIDI_port, 0
4, 0, End_track
5, 0, Start_track
5, 0, Title_t, "dario.galimberti@poste.it"
5, 0, MIDI_port, 0
5, 0, End_track
6, 0, Start_track
6, 0, Title_t, "http://dariogalimberti.interfree.it"
6, 0, MIDI_port, 0
6, 0, End_track
7, 0, Start_track
7, 0, Title_t, "All Rights Reserved"
7, 0, MIDI_port, 0
7, 0, End_track
8, 0, Start_track
8, 1, Copyright_t, "\012__________________________________________________________\012Kunst der Fuge comment: this is the Contributor's property.\012Can *not* be used for commercial purposes without authorization!\012Copyright by Contributor - Kunst der Fuge, © 2002-05\012http://www.kunstderfuge.com/thanks.htm -> Contributors' list\012http://www.kunstderfuge.com/notes.htm -> Terms & conditions"
8, 1, End_track
0, 0, End_of_file
