0, 0, Header, 1, 8, 192
1, 0, Start_track
1, 0, Title_t, "51126A"
1, 0, Text_t, "Roll expression/accent tracks, where present, converted to MIDI velocties.\012"
1, 0, Time_signature, 4, 2, 24, 8
1, 0, Key_signature, 0, "major"
1, 0, Tempo, 500000
1, 0, Marker_t, "Standard MIDI:LPI 118:Tempo  105: 08-22-2003"
1, 0, End_track
2, 0, Start_track
2, 0, Title_t, "Ballade Op 47 No 3 A Flat"
2, 2, Control_c, 0, 67, 127
2, 153, Note_on_c, 0, 63, 64
2, 191, Control_c, 0, 64, 127
2, 397, Control_c, 0, 64, 0
2, 453, Note_on_c, 0, 65, 57
2, 457, Note_on_c, 0, 62, 45
2, 462, Note_on_c, 0, 63, 0
2, 580, Note_on_c, 0, 61, 44
2, 583, Note_on_c, 0, 63, 48
2, 583, Note_on_c, 0, 67, 54
2, 596, Note_on_c, 0, 62, 0
2, 600, Note_on_c, 0, 65, 0
2, 623, Control_c, 0, 64, 127
2, 676, Note_on_c, 0, 63, 0
2, 686, Control_c, 0, 64, 0
2, 709, Note_on_c, 0, 60, 43
2, 709, Note_on_c, 0, 63, 46
2, 723, Note_on_c, 0, 61, 0
2, 723, Note_on_c, 0, 67, 0
2, 725, Note_on_c, 0, 68, 57
2, 786, Note_on_c, 0, 63, 0
2, 793, Control_c, 0, 64, 127
2, 812, Control_c, 0, 64, 0
2, 822, Note_on_c, 0, 55, 49
2, 828, Note_on_c, 0, 63, 44
2, 828, Note_on_c, 0, 70, 63
2, 853, Note_on_c, 0, 68, 0
2, 888, Note_on_c, 0, 60, 0
2, 922, Control_c, 0, 64, 127
2, 928, Note_on_c, 0, 63, 0
2, 950, Control_c, 0, 64, 0
2, 967, Note_on_c, 0, 56, 44
2, 967, Note_on_c, 0, 63, 48
2, 973, Note_on_c, 0, 72, 59
2, 983, Note_on_c, 0, 70, 0
2, 985, Note_on_c, 0, 55, 0
2, 1086, Control_c, 0, 64, 127
2, 1177, Control_c, 0, 64, 0
2, 1233, Note_on_c, 0, 77, 64
2, 1241, Note_on_c, 0, 51, 43
2, 1241, Note_on_c, 0, 59, 43
2, 1241, Note_on_c, 0, 62, 47
2, 1241, Note_on_c, 0, 65, 53
2, 1244, Note_on_c, 0, 68, 45
2, 1249, Note_on_c, 0, 72, 0
2, 1259, Note_on_c, 0, 63, 0
2, 1270, Note_on_c, 0, 56, 0
2, 1330, Control_c, 0, 64, 127
2, 1375, Note_on_c, 0, 51, 0
2, 1393, Note_on_c, 0, 68, 0
2, 1395, Control_c, 0, 64, 0
2, 1414, Note_on_c, 0, 75, 60
2, 1416, Note_on_c, 0, 60, 45
2, 1419, Note_on_c, 0, 63, 41
2, 1421, Note_on_c, 0, 68, 54
2, 1424, Note_on_c, 0, 51, 46
2, 1435, Note_on_c, 0, 65, 0
2, 1435, Note_on_c, 0, 62, 0
2, 1440, Note_on_c, 0, 59, 0
2, 1440, Note_on_c, 0, 77, 0
2, 1531, Control_c, 0, 64, 127
2, 1656, Note_on_c, 0, 63, 0
2, 1661, Note_on_c, 0, 60, 0
2, 1664, Note_on_c, 0, 51, 0
2, 1667, Note_on_c, 0, 68, 0
2, 1819, Note_on_c, 0, 63, 53
2, 1822, Control_c, 0, 64, 0
2, 1849, Note_on_c, 0, 61, 69
2, 1855, Note_on_c, 0, 67, 56
2, 1969, Note_on_c, 0, 60, 72
2, 1988, Note_on_c, 0, 61, 0
2, 2003, Control_c, 0, 64, 127
2, 2088, Note_on_c, 0, 67, 0
2, 2091, Note_on_c, 0, 58, 66
2, 2093, Note_on_c, 0, 63, 0
2, 2101, Note_on_c, 0, 58, 0
2, 2115, Note_on_c, 0, 60, 0
2, 2126, Note_on_c, 0, 58, 50
2, 2151, Note_on_c, 0, 58, 0
2, 2157, Note_on_c, 0, 60, 61
2, 2183, Note_on_c, 0, 58, 46
2, 2190, Control_c, 0, 64, 0
2, 2196, Note_on_c, 0, 63, 42
2, 2198, Note_on_c, 0, 60, 0
2, 2200, Note_on_c, 0, 67, 51
2, 2206, Note_on_c, 0, 73, 47
2, 2299, Note_on_c, 0, 57, 44
2, 2311, Note_on_c, 0, 58, 0
2, 2404, Note_on_c, 0, 58, 44
2, 2412, Note_on_c, 0, 57, 0
2, 2455, Control_c, 0, 64, 127
2, 2490, Note_on_c, 0, 63, 0
2, 2547, Note_on_c, 0, 60, 43
2, 2549, Control_c, 0, 64, 0
2, 2560, Note_on_c, 0, 58, 0
2, 2562, Note_on_c, 0, 63, 46
2, 2562, Note_on_c, 0, 68, 52
2, 2567, Note_on_c, 0, 67, 0
2, 2568, Note_on_c, 0, 72, 47
2, 2573, Note_on_c, 0, 73, 0
2, 2707, Note_on_c, 0, 56, 64
2, 2725, Note_on_c, 0, 60, 0
2, 3002, Control_c, 0, 64, 127
2, 3028, Note_on_c, 0, 51, 47
2, 3047, Note_on_c, 0, 51, 0
2, 3054, Note_on_c, 0, 56, 0
2, 3054, Control_c, 0, 64, 0
2, 3095, Note_on_c, 0, 51, 54
2, 3282, Control_c, 0, 64, 127
2, 3528, Control_c, 0, 64, 0
2, 3574, Note_on_c, 0, 63, 0
2, 3611, Note_on_c, 0, 51, 0
2, 3613, Note_on_c, 0, 72, 0
2, 3616, Note_on_c, 0, 75, 0
2, 3621, Note_on_c, 0, 68, 0
2, 3643, Note_on_c, 0, 63, 43
2, 3653, Note_on_c, 0, 55, 44
2, 3656, Note_on_c, 0, 39, 43
2, 3656, Note_on_c, 0, 61, 41
2, 3737, Control_c, 0, 64, 127
2, 3830, Control_c, 0, 64, 0
2, 3896, Note_on_c, 0, 41, 49
2, 3902, Note_on_c, 0, 56, 55
2, 3904, Note_on_c, 0, 39, 0
2, 3926, Note_on_c, 0, 55, 0
2, 4011, Note_on_c, 0, 43, 50
2, 4019, Note_on_c, 0, 58, 51
2, 4024, Note_on_c, 0, 41, 0
2, 4026, Note_on_c, 0, 61, 0
2, 4026, Note_on_c, 0, 56, 0
2, 4112, Note_on_c, 0, 60, 54
2, 4120, Note_on_c, 0, 44, 53
2, 4126, Note_on_c, 0, 43, 0
2, 4128, Note_on_c, 0, 58, 0
2, 4230, Note_on_c, 0, 55, 55
2, 4233, Note_on_c, 0, 46, 54
2, 4243, Note_on_c, 0, 44, 0
2, 4248, Note_on_c, 0, 60, 0
2, 4359, Note_on_c, 0, 48, 67
2, 4371, Note_on_c, 0, 46, 0
2, 4371, Note_on_c, 0, 56, 67
2, 4396, Note_on_c, 0, 55, 0
2, 4440, Control_c, 0, 64, 127
2, 4594, Note_on_c, 0, 56, 0
2, 4608, Control_c, 0, 64, 0
2, 4623, Note_on_c, 0, 53, 41
2, 4626, Note_on_c, 0, 62, 42
2, 4629, Note_on_c, 0, 56, 41
2, 4639, Note_on_c, 0, 59, 41
2, 4642, Note_on_c, 0, 48, 0
2, 4655, Note_on_c, 0, 63, 0
2, 4740, Control_c, 0, 64, 127
2, 4782, Note_on_c, 0, 56, 0
2, 4787, Control_c, 0, 64, 0
2, 4798, Note_on_c, 0, 51, 45
2, 4805, Note_on_c, 0, 63, 46
2, 4811, Note_on_c, 0, 56, 45
2, 4813, Note_on_c, 0, 60, 47
2, 4819, Note_on_c, 0, 53, 0
2, 4822, Note_on_c, 0, 62, 0
2, 4824, Note_on_c, 0, 59, 0
2, 4943, Control_c, 0, 64, 127
2, 5071, Note_on_c, 0, 63, 0
2, 5071, Note_on_c, 0, 56, 0
2, 5074, Note_on_c, 0, 60, 0
2, 5240, Note_on_c, 0, 60, 46
2, 5243, Note_on_c, 0, 63, 48
2, 5243, Note_on_c, 0, 68, 57
2, 5246, Control_c, 0, 64, 0
2, 5334, Note_on_c, 0, 63, 0
2, 5362, Note_on_c, 0, 70, 59
2, 5365, Note_on_c, 0, 61, 44
2, 5365, Note_on_c, 0, 63, 44
2, 5375, Note_on_c, 0, 68, 0
2, 5380, Note_on_c, 0, 60, 0
2, 5415, Control_c, 0, 64, 127
2, 5450, Note_on_c, 0, 63, 0
2, 5475, Control_c, 0, 64, 0
2, 5481, Note_on_c, 0, 72, 59
2, 5484, Note_on_c, 0, 63, 45
2, 5494, Note_on_c, 0, 70, 0
2, 5496, Note_on_c, 0, 68, 48
2, 5501, Note_on_c, 0, 61, 0
2, 5636, Control_c, 0, 64, 127
2, 5674, Note_on_c, 0, 63, 0
2, 5702, Note_on_c, 0, 72, 0
2, 5704, Note_on_c, 0, 61, 47
2, 5709, Note_on_c, 0, 70, 59
2, 5711, Note_on_c, 0, 68, 0
2, 5711, Note_on_c, 0, 39, 43
2, 5712, Note_on_c, 0, 63, 43
2, 5717, Note_on_c, 0, 51, 0
2, 5723, Control_c, 0, 64, 0
2, 5801, Note_on_c, 0, 63, 0
2, 5836, Note_on_c, 0, 63, 43
2, 5846, Note_on_c, 0, 72, 65
2, 5851, Note_on_c, 0, 61, 0
2, 5851, Note_on_c, 0, 44, 43
2, 5858, Note_on_c, 0, 68, 44
2, 5860, Note_on_c, 0, 70, 0
2, 5890, Note_on_c, 0, 39, 0
2, 6009, Control_c, 0, 64, 127
2, 6055, Note_on_c, 0, 68, 0
2, 6060, Note_on_c, 0, 63, 0
2, 6071, Note_on_c, 0, 72, 0
2, 6091, Note_on_c, 0, 68, 47
2, 6096, Note_on_c, 0, 63, 45
2, 6101, Note_on_c, 0, 60, 47
2, 6103, Note_on_c, 0, 51, 48
2, 6202, Note_on_c, 0, 60, 0
2, 6202, Note_on_c, 0, 63, 0
2, 6202, Note_on_c, 0, 68, 0
2, 6227, Control_c, 0, 64, 0
2, 6238, Note_on_c, 0, 63, 46
2, 6238, Note_on_c, 0, 68, 44
2, 6240, Note_on_c, 0, 60, 48
2, 6245, Note_on_c, 0, 56, 41
2, 6303, Control_c, 0, 67, 0
2, 6361, Control_c, 0, 64, 127
2, 6435, Note_on_c, 0, 44, 0
2, 6438, Note_on_c, 0, 56, 0
2, 6453, Note_on_c, 0, 51, 0
2, 6455, Note_on_c, 0, 60, 0
2, 6457, Note_on_c, 0, 68, 0
2, 6459, Note_on_c, 0, 63, 0
2, 6594, Control_c, 0, 64, 0
2, 6626, Note_on_c, 0, 32, 66
2, 6628, Note_on_c, 0, 92, 72
2, 6630, Note_on_c, 0, 44, 59
2, 6630, Note_on_c, 0, 80, 73
2, 6719, Control_c, 0, 64, 127
2, 6862, Control_c, 0, 64, 0
2, 6862, Note_on_c, 0, 75, 57
2, 6864, Note_on_c, 0, 66, 60
2, 6868, Note_on_c, 0, 68, 57
2, 6957, Note_on_c, 0, 68, 0
2, 6997, Note_on_c, 0, 65, 47
2, 6997, Note_on_c, 0, 68, 47
2, 7009, Note_on_c, 0, 66, 0
2, 7011, Note_on_c, 0, 74, 46
2, 7014, Note_on_c, 0, 75, 0
2, 7044, Control_c, 0, 64, 127
2, 7127, Control_c, 0, 67, 127
2, 7152, Note_on_c, 0, 32, 0
2, 7157, Note_on_c, 0, 44, 0
2, 7170, Note_on_c, 0, 68, 0
2, 7170, Note_on_c, 0, 65, 0
2, 7176, Note_on_c, 0, 74, 0
2, 7176, Note_on_c, 0, 80, 0
2, 7190, Note_on_c, 0, 92, 0
2, 7348, Control_c, 0, 64, 0
2, 7364, Note_on_c, 0, 32, 59
2, 7369, Note_on_c, 0, 44, 57
2, 7371, Note_on_c, 0, 80, 62
2, 7376, Note_on_c, 0, 68, 63
2, 7584, Note_on_c, 0, 61, 54
2, 7586, Note_on_c, 0, 56, 57
2, 7588, Note_on_c, 0, 52, 56
2, 7658, Note_on_c, 0, 56, 0
2, 7666, Control_c, 0, 67, 0
2, 7686, Note_on_c, 0, 56, 54
2, 7701, Note_on_c, 0, 51, 49
2, 7701, Note_on_c, 0, 60, 49
2, 7710, Note_on_c, 0, 52, 0
2, 7715, Note_on_c, 0, 61, 0
2, 7788, Note_on_c, 0, 80, 0
2, 7790, Note_on_c, 0, 68, 0
2, 7823, Note_on_c, 0, 60, 0
2, 7857, Note_on_c, 0, 60, 49
2, 7863, Note_on_c, 0, 72, 54
2, 7906, Note_on_c, 0, 65, 50
2, 7909, Note_on_c, 0, 77, 48
2, 7927, Note_on_c, 0, 32, 0
2, 7929, Note_on_c, 0, 51, 0
2, 7929, Note_on_c, 0, 56, 0
2, 7931, Note_on_c, 0, 44, 0
2, 7933, Note_on_c, 0, 72, 0
2, 7936, Note_on_c, 0, 60, 0
2, 8029, Note_on_c, 0, 27, 48
2, 8032, Note_on_c, 0, 39, 54
2, 8151, Control_c, 0, 64, 127
2, 8213, Note_on_c, 0, 63, 59
2, 8215, Note_on_c, 0, 75, 59
2, 8235, Note_on_c, 0, 75, 0
2, 8235, Note_on_c, 0, 63, 0
2, 8265, Note_on_c, 0, 51, 74
2, 8265, Note_on_c, 0, 60, 71
2, 8265, Note_on_c, 0, 63, 71
2, 8268, Control_c, 0, 64, 0
2, 8270, Note_on_c, 0, 75, 60
2, 8284, Note_on_c, 0, 77, 0
2, 8286, Note_on_c, 0, 65, 0
2, 8412, Note_on_c, 0, 59, 45
2, 8414, Note_on_c, 0, 53, 45
2, 8416, Note_on_c, 0, 50, 42
2, 8421, Note_on_c, 0, 51, 0
2, 8426, Note_on_c, 0, 60, 0
2, 8533, Control_c, 0, 64, 127
2, 8583, Note_on_c, 0, 75, 0
2, 8586, Note_on_c, 0, 63, 0
2, 8618, Note_on_c, 0, 63, 48
2, 8623, Note_on_c, 0, 75, 58
2, 8639, Note_on_c, 0, 75, 0
2, 8640, Note_on_c, 0, 63, 0
2, 8676, Note_on_c, 0, 75, 58
2, 8681, Note_on_c, 0, 63, 53
2, 8699, Control_c, 0, 64, 0
2, 8737, Note_on_c, 0, 39, 0
2, 8750, Note_on_c, 0, 27, 0
2, 8800, Note_on_c, 0, 39, 49
2, 8803, Note_on_c, 0, 50, 0
2, 8808, Note_on_c, 0, 53, 0
2, 8809, Note_on_c, 0, 59, 0
2, 8875, Control_c, 0, 64, 127
2, 8928, Note_on_c, 0, 63, 0
2, 8931, Note_on_c, 0, 75, 0
2, 8964, Note_on_c, 0, 63, 43
2, 8967, Note_on_c, 0, 75, 49
2, 8985, Note_on_c, 0, 75, 0
2, 8987, Note_on_c, 0, 63, 0
2, 9009, Note_on_c, 0, 53, 47
2, 9011, Note_on_c, 0, 59, 52
2, 9014, Control_c, 0, 64, 0
2, 9016, Note_on_c, 0, 63, 49
2, 9018, Note_on_c, 0, 50, 47
2, 9018, Note_on_c, 0, 75, 48
2, 9128, Note_on_c, 0, 58, 41
2, 9133, Note_on_c, 0, 55, 44
2, 9136, Note_on_c, 0, 49, 48
2, 9144, Note_on_c, 0, 50, 0
2, 9144, Note_on_c, 0, 59, 0
2, 9144, Note_on_c, 0, 53, 0
2, 9178, Control_c, 0, 64, 127
2, 9224, Note_on_c, 0, 75, 0
2, 9227, Note_on_c, 0, 63, 0
2, 9267, Note_on_c, 0, 63, 44
2, 9273, Note_on_c, 0, 75, 49
2, 9288, Note_on_c, 0, 75, 0
2, 9288, Note_on_c, 0, 63, 0
2, 9322, Note_on_c, 0, 63, 57
2, 9324, Note_on_c, 0, 75, 66
2, 9364, Control_c, 0, 64, 0
2, 9455, Note_on_c, 0, 44, 75
2, 9460, Note_on_c, 0, 32, 78
2, 9466, Note_on_c, 0, 49, 0
2, 9466, Note_on_c, 0, 80, 80
2, 9468, Note_on_c, 0, 39, 0
2, 9468, Note_on_c, 0, 92, 77
2, 9473, Note_on_c, 0, 58, 0
2, 9483, Note_on_c, 0, 55, 0
2, 9511, Control_c, 0, 64, 127
2, 9610, Note_on_c, 0, 75, 0
2, 9636, Note_on_c, 0, 63, 0
2, 9648, Note_on_c, 0, 66, 48
2, 9648, Note_on_c, 0, 68, 49
2, 9651, Note_on_c, 0, 75, 53
2, 9667, Note_on_c, 0, 68, 0
2, 9670, Note_on_c, 0, 66, 0
2, 9670, Note_on_c, 0, 75, 0
2, 9692, Note_on_c, 0, 66, 71
2, 9694, Note_on_c, 0, 68, 67
2, 9694, Note_on_c, 0, 75, 72
2, 9774, Control_c, 0, 64, 0
2, 9796, Note_on_c, 0, 68, 0
2, 9821, Note_on_c, 0, 65, 46
2, 9829, Note_on_c, 0, 68, 48
2, 9829, Note_on_c, 0, 74, 48
2, 9837, Note_on_c, 0, 66, 0
2, 9840, Note_on_c, 0, 75, 0
2, 10058, Control_c, 0, 64, 127
2, 10144, Note_on_c, 0, 44, 0
2, 10146, Note_on_c, 0, 32, 0
2, 10180, Note_on_c, 0, 65, 0
2, 10182, Note_on_c, 0, 80, 0
2, 10182, Note_on_c, 0, 74, 0
2, 10182, Note_on_c, 0, 92, 0
2, 10182, Note_on_c, 0, 68, 0
2, 10190, Control_c, 0, 64, 0
2, 10223, Note_on_c, 0, 68, 69
2, 10224, Note_on_c, 0, 44, 44
2, 10227, Note_on_c, 0, 32, 41
2, 10229, Note_on_c, 0, 80, 67
2, 10318, Control_c, 0, 67, 127
2, 10373, Control_c, 0, 64, 127
2, 10414, Note_on_c, 0, 61, 52
2, 10418, Note_on_c, 0, 52, 53
2, 10424, Note_on_c, 0, 56, 68
2, 10441, Note_on_c, 0, 61, 0
2, 10443, Note_on_c, 0, 52, 0
2, 10446, Note_on_c, 0, 56, 0
2, 10472, Control_c, 0, 64, 0
2, 10472, Note_on_c, 0, 61, 67
2, 10478, Note_on_c, 0, 52, 71
2, 10478, Note_on_c, 0, 56, 66
2, 10569, Note_on_c, 0, 56, 0
2, 10571, Control_c, 0, 67, 0
2, 10596, Note_on_c, 0, 51, 42
2, 10599, Note_on_c, 0, 60, 48
2, 10601, Note_on_c, 0, 56, 45
2, 10606, Note_on_c, 0, 52, 0
2, 10620, Note_on_c, 0, 61, 0
2, 10625, Note_on_c, 0, 60, 0
2, 10653, Note_on_c, 0, 72, 57
2, 10657, Note_on_c, 0, 60, 60
2, 10662, Note_on_c, 0, 80, 0
2, 10687, Note_on_c, 0, 72, 0
2, 10690, Note_on_c, 0, 73, 59
2, 10695, Note_on_c, 0, 60, 0
2, 10695, Note_on_c, 0, 61, 55
2, 10725, Note_on_c, 0, 62, 54
2, 10725, Note_on_c, 0, 74, 55
2, 10729, Note_on_c, 0, 73, 0
2, 10744, Note_on_c, 0, 61, 0
2, 10752, Note_on_c, 0, 75, 59
2, 10756, Note_on_c, 0, 63, 55
2, 10761, Note_on_c, 0, 32, 0
2, 10763, Note_on_c, 0, 74, 0
2, 10765, Note_on_c, 0, 44, 0
2, 10770, Note_on_c, 0, 62, 0
2, 10772, Note_on_c, 0, 68, 0
2, 10784, Note_on_c, 0, 76, 53
2, 10792, Note_on_c, 0, 64, 56
2, 10800, Note_on_c, 0, 75, 0
2, 10805, Note_on_c, 0, 63, 0
2, 10825, Note_on_c, 0, 76, 0
2, 10831, Note_on_c, 0, 67, 59
2, 10831, Note_on_c, 0, 79, 54
2, 10836, Note_on_c, 0, 64, 0
2, 10934, Note_on_c, 0, 67, 0
2, 10936, Note_on_c, 0, 51, 0
2, 10936, Note_on_c, 0, 56, 0
2, 10939, Note_on_c, 0, 79, 0
2, 10977, Note_on_c, 0, 65, 60
2, 10982, Note_on_c, 0, 77, 58
2, 11002, Note_on_c, 0, 65, 0
2, 11025, Note_on_c, 0, 65, 60
2, 11035, Note_on_c, 0, 77, 0
2, 11047, Note_on_c, 0, 27, 48
2, 11110, Note_on_c, 0, 77, 71
2, 11145, Note_on_c, 0, 39, 47
2, 11254, Control_c, 0, 64, 127
2, 11329, Note_on_c, 0, 63, 44
2, 11339, Note_on_c, 0, 75, 53
2, 11344, Note_on_c, 0, 65, 0
2, 11350, Note_on_c, 0, 77, 0
2, 11352, Note_on_c, 0, 63, 0
2, 11356, Note_on_c, 0, 75, 0
2, 11379, Note_on_c, 0, 63, 55
2, 11381, Note_on_c, 0, 51, 57
2, 11381, Note_on_c, 0, 60, 54
2, 11387, Control_c, 0, 64, 0
2, 11395, Note_on_c, 0, 75, 65
2, 11511, Note_on_c, 0, 50, 48
2, 11511, Note_on_c, 0, 59, 41
2, 11513, Note_on_c, 0, 51, 0
2, 11516, Note_on_c, 0, 53, 48
2, 11518, Note_on_c, 0, 60, 0
2, 11641, Control_c, 0, 64, 127
2, 11708, Note_on_c, 0, 63, 0
2, 11712, Note_on_c, 0, 75, 0
2, 11747, Note_on_c, 0, 63, 44
2, 11757, Note_on_c, 0, 75, 50
2, 11777, Note_on_c, 0, 63, 0
2, 11783, Note_on_c, 0, 75, 0
2, 11805, Note_on_c, 0, 63, 56
2, 11808, Note_on_c, 0, 75, 60
2, 11812, Control_c, 0, 64, 0
2, 11865, Note_on_c, 0, 39, 0
2, 11873, Note_on_c, 0, 27, 0
2, 11921, Note_on_c, 0, 39, 48
2, 11931, Note_on_c, 0, 50, 0
2, 11934, Note_on_c, 0, 53, 0
2, 11937, Note_on_c, 0, 59, 0
2, 12011, Control_c, 0, 64, 127
2, 12053, Control_c, 0, 67, 127
2, 12063, Note_on_c, 0, 75, 0
2, 12065, Note_on_c, 0, 63, 0
2, 12100, Note_on_c, 0, 63, 42
2, 12100, Note_on_c, 0, 75, 54
2, 12130, Note_on_c, 0, 75, 0
2, 12132, Note_on_c, 0, 63, 0
2, 12154, Note_on_c, 0, 59, 50
2, 12160, Note_on_c, 0, 53, 49
2, 12162, Note_on_c, 0, 50, 53
2, 12164, Note_on_c, 0, 75, 66
2, 12168, Control_c, 0, 64, 0
2, 12168, Note_on_c, 0, 63, 53
2, 12317, Note_on_c, 0, 49, 42
2, 12325, Note_on_c, 0, 50, 0
2, 12325, Note_on_c, 0, 53, 0
2, 12331, Note_on_c, 0, 55, 42
2, 12333, Note_on_c, 0, 58, 44
2, 12345, Note_on_c, 0, 59, 0
2, 12415, Control_c, 0, 64, 127
2, 12491, Note_on_c, 0, 63, 0
2, 12496, Note_on_c, 0, 75, 0
2, 12528, Note_on_c, 0, 63, 45
2, 12534, Note_on_c, 0, 75, 52
2, 12557, Note_on_c, 0, 63, 0
2, 12560, Note_on_c, 0, 75, 0
2, 12586, Note_on_c, 0, 63, 53
2, 12591, Note_on_c, 0, 75, 53
2, 12609, Control_c, 0, 64, 0
2, 12634, Control_c, 0, 67, 0
2, 12755, Note_on_c, 0, 44, 53
2, 12768, Note_on_c, 0, 39, 0
2, 12769, Note_on_c, 0, 49, 0
2, 12769, Note_on_c, 0, 58, 0
2, 12771, Note_on_c, 0, 32, 51
2, 12782, Note_on_c, 0, 55, 0
2, 12853, Control_c, 0, 64, 127
2, 12924, Note_on_c, 0, 68, 63
2, 12959, Control_c, 0, 64, 0
2, 12961, Note_on_c, 0, 75, 0
2, 12966, Note_on_c, 0, 63, 0
2, 12966, Note_on_c, 0, 68, 0
2, 12971, Note_on_c, 0, 65, 69
2, 12971, Note_on_c, 0, 77, 67
2, 12976, Note_on_c, 0, 48, 51
2, 12979, Note_on_c, 0, 54, 50
2, 12979, Note_on_c, 0, 56, 51
2, 13087, Note_on_c, 0, 56, 0
2, 13102, Note_on_c, 0, 53, 51
2, 13109, Note_on_c, 0, 56, 48
2, 13114, Note_on_c, 0, 54, 0
2, 13127, Note_on_c, 0, 48, 0
2, 13127, Note_on_c, 0, 47, 54
2, 13270, Note_on_c, 0, 63, 59
2, 13272, Note_on_c, 0, 75, 56
2, 13285, Note_on_c, 0, 65, 0
2, 13288, Note_on_c, 0, 77, 0
2, 13326, Note_on_c, 0, 62, 55
2, 13331, Note_on_c, 0, 32, 0
2, 13333, Note_on_c, 0, 74, 58
2, 13338, Note_on_c, 0, 44, 0
2, 13340, Note_on_c, 0, 75, 0
2, 13340, Note_on_c, 0, 63, 0
2, 13443, Note_on_c, 0, 44, 53
2, 13445, Note_on_c, 0, 32, 53
2, 13456, Note_on_c, 0, 47, 0
2, 13462, Note_on_c, 0, 53, 0
2, 13462, Note_on_c, 0, 56, 0
2, 13502, Control_c, 0, 64, 127
2, 13567, Note_on_c, 0, 73, 49
2, 13570, Note_on_c, 0, 44, 0
2, 13573, Note_on_c, 0, 74, 0
2, 13587, Note_on_c, 0, 73, 0
2, 13590, Control_c, 0, 64, 0
2, 13612, Note_on_c, 0, 62, 0
2, 13615, Note_on_c, 0, 58, 56
2, 13623, Note_on_c, 0, 73, 65
2, 13626, Note_on_c, 0, 61, 56
2, 13628, Note_on_c, 0, 51, 58
2, 13630, Note_on_c, 0, 44, 58
2, 13640, Note_on_c, 0, 67, 44
2, 13686, Note_on_c, 0, 51, 0
2, 13692, Note_on_c, 0, 44, 0
2, 13737, Note_on_c, 0, 56, 45
2, 13742, Note_on_c, 0, 51, 42
2, 13745, Note_on_c, 0, 44, 45
2, 13752, Note_on_c, 0, 58, 0
2, 13811, Note_on_c, 0, 73, 0
2, 13870, Note_on_c, 0, 60, 48
2, 13872, Note_on_c, 0, 61, 0
2, 13872, Note_on_c, 0, 72, 58
2, 13873, Note_on_c, 0, 68, 60
2, 13888, Note_on_c, 0, 67, 0
2, 13893, Note_on_c, 0, 32, 0
2, 13900, Note_on_c, 0, 68, 0
2, 13910, Note_on_c, 0, 61, 43
2, 13912, Note_on_c, 0, 73, 60
2, 13920, Note_on_c, 0, 68, 59
2, 13924, Note_on_c, 0, 72, 0
2, 13929, Note_on_c, 0, 60, 0
2, 14002, Note_on_c, 0, 68, 0
2, 14028, Note_on_c, 0, 51, 0
2, 14030, Note_on_c, 0, 44, 0
2, 14032, Note_on_c, 0, 56, 0
2, 14040, Note_on_c, 0, 68, 65
2, 14042, Note_on_c, 0, 29, 51
2, 14042, Note_on_c, 0, 41, 50
2, 14042, Note_on_c, 0, 60, 47
2, 14042, Note_on_c, 0, 72, 68
2, 14052, Note_on_c, 0, 73, 0
2, 14052, Note_on_c, 0, 61, 0
2, 14170, Control_c, 0, 64, 127
2, 14200, Note_on_c, 0, 70, 56
2, 14209, Note_on_c, 0, 72, 0
2, 14217, Note_on_c, 0, 68, 0
2, 14220, Note_on_c, 0, 70, 0
2, 14246, Control_c, 0, 64, 0
2, 14249, Note_on_c, 0, 62, 57
2, 14249, Note_on_c, 0, 68, 63
2, 14255, Note_on_c, 0, 70, 59
2, 14256, Note_on_c, 0, 43, 54
2, 14256, Note_on_c, 0, 55, 55
2, 14259, Note_on_c, 0, 58, 53
2, 14264, Note_on_c, 0, 29, 0
2, 14266, Note_on_c, 0, 41, 0
2, 14277, Note_on_c, 0, 60, 0
2, 14382, Note_on_c, 0, 53, 45
2, 14388, Note_on_c, 0, 41, 47
2, 14398, Note_on_c, 0, 43, 0
2, 14407, Note_on_c, 0, 55, 0
2, 14449, Control_c, 0, 64, 127
2, 14480, Note_on_c, 0, 58, 0
2, 14497, Note_on_c, 0, 62, 0
2, 14500, Note_on_c, 0, 68, 0
2, 14546, Note_on_c, 0, 58, 57
2, 14546, Note_on_c, 0, 62, 57
2, 14546, Note_on_c, 0, 68, 55
2, 14565, Note_on_c, 0, 58, 0
2, 14568, Note_on_c, 0, 62, 0
2, 14568, Note_on_c, 0, 68, 0
2, 14591, Control_c, 0, 64, 0
2, 14592, Note_on_c, 0, 58, 56
2, 14594, Note_on_c, 0, 62, 58
2, 14596, Note_on_c, 0, 68, 54
2, 14717, Note_on_c, 0, 27, 53
2, 14725, Note_on_c, 0, 39, 54
2, 14731, Note_on_c, 0, 41, 0
2, 14733, Note_on_c, 0, 53, 0
2, 14738, Note_on_c, 0, 62, 0
2, 14738, Note_on_c, 0, 68, 0
2, 14784, Control_c, 0, 64, 127
2, 14832, Note_on_c, 0, 58, 0
2, 14870, Note_on_c, 0, 58, 53
2, 14870, Note_on_c, 0, 61, 59
2, 14875, Note_on_c, 0, 67, 50
2, 14890, Note_on_c, 0, 67, 0
2, 14895, Note_on_c, 0, 58, 0
2, 14895, Note_on_c, 0, 61, 0
2, 14925, Control_c, 0, 64, 0
2, 14925, Note_on_c, 0, 41, 60
2, 14928, Note_on_c, 0, 53, 58
2, 14928, Note_on_c, 0, 58, 53
2, 14928, Note_on_c, 0, 61, 58
2, 14930, Note_on_c, 0, 67, 66
2, 14948, Note_on_c, 0, 39, 0
2, 15061, Note_on_c, 0, 27, 0
2, 15071, Note_on_c, 0, 51, 41
2, 15078, Note_on_c, 0, 39, 43
2, 15083, Note_on_c, 0, 53, 0
2, 15088, Note_on_c, 0, 41, 0
2, 15168, Control_c, 0, 64, 127
2, 15191, Note_on_c, 0, 61, 0
2, 15220, Note_on_c, 0, 55, 53
2, 15230, Note_on_c, 0, 61, 57
2, 15233, Note_on_c, 0, 63, 55
2, 15250, Note_on_c, 0, 55, 0
2, 15252, Note_on_c, 0, 63, 0
2, 15252, Note_on_c, 0, 61, 0
2, 15263, Control_c, 0, 64, 0
2, 15272, Note_on_c, 0, 55, 62
2, 15277, Note_on_c, 0, 61, 61
2, 15277, Note_on_c, 0, 63, 59
2, 15330, Note_on_c, 0, 67, 0
2, 15335, Note_on_c, 0, 58, 0
2, 15337, Note_on_c, 0, 70, 0
2, 15337, Note_on_c, 0, 61, 0
2, 15343, Note_on_c, 0, 55, 0
2, 15384, Note_on_c, 0, 32, 65
2, 15384, Note_on_c, 0, 44, 62
2, 15384, Note_on_c, 0, 60, 65
2, 15386, Note_on_c, 0, 68, 82
2, 15389, Note_on_c, 0, 56, 64
2, 15395, Note_on_c, 0, 39, 0
2, 15398, Note_on_c, 0, 51, 0
2, 15512, Control_c, 0, 64, 127
2, 15520, Note_on_c, 0, 56, 0
2, 15552, Note_on_c, 0, 56, 65
2, 15552, Note_on_c, 0, 66, 66
2, 15557, Note_on_c, 0, 75, 72
2, 15559, Note_on_c, 0, 54, 71
2, 15561, Note_on_c, 0, 80, 66
2, 15564, Note_on_c, 0, 87, 66
2, 15567, Note_on_c, 0, 75, 0
2, 15567, Note_on_c, 0, 56, 0
2, 15569, Note_on_c, 0, 66, 0
2, 15571, Note_on_c, 0, 54, 0
2, 15573, Note_on_c, 0, 80, 0
2, 15576, Note_on_c, 0, 87, 0
2, 15594, Note_on_c, 0, 63, 0
2, 15597, Note_on_c, 0, 60, 0
2, 15600, Note_on_c, 0, 54, 73
2, 15600, Note_on_c, 0, 56, 77
2, 15600, Note_on_c, 0, 66, 82
2, 15601, Note_on_c, 0, 75, 84
2, 15601, Note_on_c, 0, 80, 78
2, 15604, Note_on_c, 0, 68, 0
2, 15604, Note_on_c, 0, 87, 81
2, 15614, Control_c, 0, 64, 0
2, 15680, Note_on_c, 0, 56, 0
2, 15722, Note_on_c, 0, 53, 53
2, 15722, Note_on_c, 0, 56, 56
2, 15722, Note_on_c, 0, 65, 69
2, 15741, Note_on_c, 0, 54, 0
2, 15745, Note_on_c, 0, 66, 0
2, 15880, Note_on_c, 0, 74, 68
2, 15880, Note_on_c, 0, 86, 69
2, 15886, Note_on_c, 0, 75, 0
2, 15888, Note_on_c, 0, 80, 0
2, 15888, Note_on_c, 0, 87, 0
2, 15932, Note_on_c, 0, 92, 78
2, 15934, Note_on_c, 0, 80, 82
2, 15980, Note_on_c, 0, 32, 0
2, 15984, Note_on_c, 0, 44, 0
2, 16045, Note_on_c, 0, 32, 71
2, 16047, Note_on_c, 0, 74, 0
2, 16050, Note_on_c, 0, 86, 0
2, 16050, Note_on_c, 0, 44, 73
2, 16057, Note_on_c, 0, 53, 0
2, 16063, Note_on_c, 0, 65, 0
2, 16134, Control_c, 0, 64, 127
2, 16176, Note_on_c, 0, 56, 0
2, 16178, Note_on_c, 0, 80, 0
2, 16217, Note_on_c, 0, 64, 52
2, 16224, Note_on_c, 0, 56, 55
2, 16226, Note_on_c, 0, 73, 51
2, 16226, Note_on_c, 0, 85, 52
2, 16228, Note_on_c, 0, 52, 54
2, 16228, Note_on_c, 0, 80, 52
2, 16238, Note_on_c, 0, 73, 0
2, 16241, Note_on_c, 0, 80, 0
2, 16241, Note_on_c, 0, 85, 0
2, 16243, Note_on_c, 0, 52, 0
2, 16243, Note_on_c, 0, 56, 0
2, 16246, Note_on_c, 0, 64, 0
2, 16264, Note_on_c, 0, 64, 63
2, 16273, Note_on_c, 0, 80, 71
2, 16273, Note_on_c, 0, 85, 69
2, 16275, Note_on_c, 0, 52, 67
2, 16275, Note_on_c, 0, 56, 63
2, 16277, Note_on_c, 0, 73, 73
2, 16282, Control_c, 0, 64, 0
2, 16365, Note_on_c, 0, 56, 0
2, 16387, Note_on_c, 0, 92, 0
2, 16390, Note_on_c, 0, 51, 41
2, 16390, Note_on_c, 0, 56, 44
2, 16392, Note_on_c, 0, 63, 44
2, 16398, Note_on_c, 0, 52, 0
2, 16406, Note_on_c, 0, 64, 0
2, 16431, Control_c, 0, 64, 127
2, 16443, Note_on_c, 0, 80, 0
2, 16484, Note_on_c, 0, 84, 60
2, 16486, Note_on_c, 0, 72, 61
2, 16488, Note_on_c, 0, 80, 65
2, 16495, Note_on_c, 0, 85, 0
2, 16498, Note_on_c, 0, 73, 0
2, 16513, Note_on_c, 0, 80, 0
2, 16552, Note_on_c, 0, 80, 51
2, 16557, Note_on_c, 0, 75, 51
2, 16569, Note_on_c, 0, 87, 48
2, 16586, Note_on_c, 0, 85, 66
2, 16589, Note_on_c, 0, 73, 61
2, 16599, Note_on_c, 0, 87, 0
2, 16599, Note_on_c, 0, 84, 0
2, 16604, Control_c, 0, 64, 0
2, 16606, Note_on_c, 0, 72, 0
2, 16606, Note_on_c, 0, 75, 0
2, 16686, Note_on_c, 0, 80, 0
2, 16699, Note_on_c, 0, 73, 0
2, 16702, Note_on_c, 0, 85, 0
2, 16714, Note_on_c, 0, 72, 69
2, 16717, Note_on_c, 0, 29, 69
2, 16719, Note_on_c, 0, 84, 69
2, 16721, Note_on_c, 0, 41, 67
2, 16726, Note_on_c, 0, 80, 68
2, 16728, Note_on_c, 0, 32, 0
2, 16732, Note_on_c, 0, 51, 0
2, 16732, Note_on_c, 0, 56, 0
2, 16734, Note_on_c, 0, 44, 0
2, 16739, Note_on_c, 0, 63, 0
2, 16843, Control_c, 0, 64, 127
2, 16886, Note_on_c, 0, 80, 0
2, 16916, Note_on_c, 0, 55, 50
2, 16921, Note_on_c, 0, 70, 48
2, 16921, Note_on_c, 0, 74, 52
2, 16921, Note_on_c, 0, 80, 48
2, 16924, Note_on_c, 0, 67, 48
2, 16924, Note_on_c, 0, 82, 50
2, 16937, Note_on_c, 0, 72, 0
2, 16940, Note_on_c, 0, 67, 0
2, 16940, Note_on_c, 0, 84, 0
2, 16943, Note_on_c, 0, 80, 0
2, 16943, Note_on_c, 0, 70, 0
2, 16943, Note_on_c, 0, 82, 0
2, 16943, Note_on_c, 0, 74, 0
2, 16950, Note_on_c, 0, 55, 0
2, 16968, Note_on_c, 0, 55, 59
2, 16974, Note_on_c, 0, 74, 66
2, 16976, Note_on_c, 0, 67, 59
2, 16976, Note_on_c, 0, 82, 62
2, 16978, Note_on_c, 0, 70, 64
2, 16980, Note_on_c, 0, 80, 65
2, 16985, Control_c, 0, 64, 0
2, 17106, Note_on_c, 0, 53, 53
2, 17113, Note_on_c, 0, 65, 42
2, 17129, Note_on_c, 0, 67, 0
2, 17129, Note_on_c, 0, 55, 0
2, 17195, Control_c, 0, 64, 127
2, 17197, Note_on_c, 0, 70, 0
2, 17200, Note_on_c, 0, 74, 0
2, 17203, Note_on_c, 0, 80, 0
2, 17253, Note_on_c, 0, 70, 49
2, 17256, Note_on_c, 0, 74, 48
2, 17257, Note_on_c, 0, 80, 53
2, 17270, Note_on_c, 0, 74, 0
2, 17275, Note_on_c, 0, 80, 0
2, 17275, Note_on_c, 0, 70, 0
2, 17307, Note_on_c, 0, 70, 59
2, 17310, Note_on_c, 0, 80, 64
2, 17312, Note_on_c, 0, 74, 61
2, 17329, Control_c, 0, 64, 0
2, 17400, Note_on_c, 0, 29, 0
2, 17403, Note_on_c, 0, 41, 0
2, 17428, Note_on_c, 0, 27, 72
2, 17434, Note_on_c, 0, 39, 67
2, 17447, Note_on_c, 0, 65, 0
2, 17448, Note_on_c, 0, 53, 0
2, 17535, Control_c, 0, 64, 127
2, 17553, Note_on_c, 0, 70, 0
2, 17592, Note_on_c, 0, 70, 49
2, 17597, Note_on_c, 0, 65, 48
2, 17597, Note_on_c, 0, 73, 48
2, 17602, Note_on_c, 0, 53, 50
2, 17602, Note_on_c, 0, 79, 51
2, 17605, Note_on_c, 0, 80, 0
2, 17613, Note_on_c, 0, 74, 0
2, 17616, Note_on_c, 0, 73, 0
2, 17616, Note_on_c, 0, 79, 0
2, 17616, Note_on_c, 0, 70, 0
2, 17620, Note_on_c, 0, 53, 0
2, 17623, Note_on_c, 0, 65, 0
2, 17645, Note_on_c, 0, 65, 60
2, 17648, Note_on_c, 0, 53, 62
2, 17650, Note_on_c, 0, 70, 63
2, 17650, Note_on_c, 0, 73, 61
2, 17653, Note_on_c, 0, 79, 65
2, 17683, Control_c, 0, 64, 0
2, 17794, Note_on_c, 0, 63, 60
2, 17811, Note_on_c, 0, 51, 57
2, 17816, Note_on_c, 0, 65, 0
2, 17821, Note_on_c, 0, 53, 0
2, 17914, Control_c, 0, 64, 127
2, 17925, Note_on_c, 0, 73, 0
2, 17963, Note_on_c, 0, 67, 48
2, 17963, Note_on_c, 0, 73, 52
2, 17963, Note_on_c, 0, 75, 54
2, 17977, Note_on_c, 0, 75, 0
2, 17979, Note_on_c, 0, 73, 0
2, 17979, Note_on_c, 0, 67, 0
2, 18009, Note_on_c, 0, 67, 60
2, 18009, Note_on_c, 0, 73, 63
2, 18009, Note_on_c, 0, 75, 63
2, 18039, Control_c, 0, 64, 0
2, 18115, Note_on_c, 0, 82, 0
2, 18115, Note_on_c, 0, 79, 0
2, 18115, Note_on_c, 0, 70, 0
2, 18118, Note_on_c, 0, 44, 71
2, 18125, Note_on_c, 0, 32, 74
2, 18130, Note_on_c, 0, 72, 77
2, 18130, Note_on_c, 0, 80, 73
2, 18135, Note_on_c, 0, 27, 0
2, 18138, Note_on_c, 0, 73, 0
2, 18138, Note_on_c, 0, 68, 74
2, 18141, Note_on_c, 0, 39, 0
2, 18143, Note_on_c, 0, 51, 0
2, 18144, Note_on_c, 0, 67, 0
2, 18146, Note_on_c, 0, 63, 0
2, 18230, Note_on_c, 0, 72, 0
2, 18233, Note_on_c, 0, 75, 0
2, 18235, Note_on_c, 0, 68, 0
2, 18235, Note_on_c, 0, 80, 0
2, 18269, Control_c, 0, 64, 127
2, 18295, Note_on_c, 0, 78, 84
2, 18300, Note_on_c, 0, 54, 58
2, 18300, Note_on_c, 0, 66, 83
2, 18302, Note_on_c, 0, 90, 81
2, 18310, Note_on_c, 0, 78, 0
2, 18312, Note_on_c, 0, 66, 0
2, 18314, Note_on_c, 0, 54, 0
2, 18314, Note_on_c, 0, 90, 0
2, 18342, Note_on_c, 0, 78, 80
2, 18350, Note_on_c, 0, 66, 78
2, 18355, Note_on_c, 0, 54, 76
2, 18358, Note_on_c, 0, 90, 78
2, 18403, Note_on_c, 0, 32, 0
2, 18420, Note_on_c, 0, 44, 0
2, 18420, Note_on_c, 0, 78, 0
2, 18425, Note_on_c, 0, 90, 0
2, 18455, Note_on_c, 0, 66, 0
2, 18456, Note_on_c, 0, 54, 0
2, 18487, Note_on_c, 0, 78, 81
2, 18492, Note_on_c, 0, 66, 81
2, 18498, Note_on_c, 0, 90, 77
2, 18500, Note_on_c, 0, 54, 82
2, 18526, Control_c, 0, 64, 0
2, 18745, Note_on_c, 0, 58, 61
2, 18755, Note_on_c, 0, 54, 0
2, 18755, Note_on_c, 0, 66, 0
2, 18769, Note_on_c, 0, 78, 0
2, 18769, Note_on_c, 0, 90, 0
2, 18771, Note_on_c, 0, 60, 61
2, 18777, Note_on_c, 0, 65, 66
2, 18788, Note_on_c, 0, 63, 63
2, 18791, Control_c, 0, 64, 127
2, 18793, Note_on_c, 0, 66, 70
2, 18806, Note_on_c, 0, 66, 0
2, 18806, Note_on_c, 0, 65, 0
2, 18816, Note_on_c, 0, 68, 69
2, 18831, Note_on_c, 0, 66, 72
2, 18833, Note_on_c, 0, 68, 0
2, 18848, Note_on_c, 0, 66, 0
2, 18850, Note_on_c, 0, 68, 71
2, 18867, Note_on_c, 0, 68, 0
2, 18870, Note_on_c, 0, 66, 68
2, 18886, Note_on_c, 0, 66, 0
2, 18888, Note_on_c, 0, 68, 68
2, 18909, Note_on_c, 0, 68, 0
2, 18911, Note_on_c, 0, 66, 66
2, 18923, Note_on_c, 0, 66, 0
2, 18931, Note_on_c, 0, 68, 66
2, 18936, Note_on_c, 0, 58, 0
2, 18938, Note_on_c, 0, 63, 0
2, 18946, Note_on_c, 0, 60, 0
2, 18948, Note_on_c, 0, 68, 0
2, 18948, Note_on_c, 0, 66, 70
2, 18963, Note_on_c, 0, 66, 0
2, 18969, Note_on_c, 0, 68, 68
2, 18984, Note_on_c, 0, 66, 65
2, 18989, Note_on_c, 0, 68, 0
2, 19005, Note_on_c, 0, 66, 0
2, 19010, Note_on_c, 0, 68, 65
2, 19029, Note_on_c, 0, 66, 68
2, 19039, Note_on_c, 0, 63, 59
2, 19039, Note_on_c, 0, 65, 66
2, 19044, Note_on_c, 0, 68, 0
2, 19047, Note_on_c, 0, 66, 0
2, 19069, Note_on_c, 0, 60, 63
2, 19079, Note_on_c, 0, 69, 67
2, 19084, Control_c, 0, 64, 0
2, 19104, Note_on_c, 0, 57, 62
2, 19107, Note_on_c, 0, 72, 68
2, 19138, Note_on_c, 0, 77, 66
2, 19141, Note_on_c, 0, 53, 63
2, 19176, Note_on_c, 0, 89, 69
2, 19180, Note_on_c, 0, 41, 67
2, 19281, Note_on_c, 0, 46, 61
2, 19281, Note_on_c, 0, 82, 78
2, 19283, Note_on_c, 0, 53, 0
2, 19283, Note_on_c, 0, 34, 63
2, 19288, Note_on_c, 0, 41, 0
2, 19290, Note_on_c, 0, 94, 80
2, 19292, Note_on_c, 0, 89, 0
2, 19296, Note_on_c, 0, 72, 0
2, 19296, Note_on_c, 0, 69, 0
2, 19296, Note_on_c, 0, 57, 0
2, 19298, Note_on_c, 0, 77, 0
2, 19300, Note_on_c, 0, 65, 0
2, 19300, Note_on_c, 0, 60, 0
2, 19300, Note_on_c, 0, 63, 0
2, 19319, Control_c, 0, 64, 127
2, 19427, Note_on_c, 0, 65, 62
2, 19432, Note_on_c, 0, 56, 59
2, 19432, Note_on_c, 0, 62, 59
2, 19434, Note_on_c, 0, 68, 60
2, 19439, Note_on_c, 0, 80, 60
2, 19448, Note_on_c, 0, 62, 0
2, 19448, Note_on_c, 0, 56, 0
2, 19448, Note_on_c, 0, 65, 0
2, 19450, Note_on_c, 0, 68, 0
2, 19450, Note_on_c, 0, 82, 0
2, 19452, Note_on_c, 0, 80, 0
2, 19454, Note_on_c, 0, 94, 0
2, 19474, Note_on_c, 0, 56, 77
2, 19474, Note_on_c, 0, 62, 78
2, 19474, Note_on_c, 0, 65, 75
2, 19476, Note_on_c, 0, 80, 71
2, 19478, Note_on_c, 0, 68, 76
2, 19544, Note_on_c, 0, 80, 0
2, 19546, Note_on_c, 0, 56, 0
2, 19546, Note_on_c, 0, 62, 0
2, 19549, Note_on_c, 0, 65, 0
2, 19552, Note_on_c, 0, 68, 0
2, 19598, Note_on_c, 0, 62, 72
2, 19600, Note_on_c, 0, 65, 84
2, 19600, Note_on_c, 0, 68, 78
2, 19606, Note_on_c, 0, 56, 74
2, 19611, Note_on_c, 0, 80, 81
2, 19682, Control_c, 0, 64, 0
2, 19755, Note_on_c, 0, 47, 63
2, 19757, Note_on_c, 0, 35, 64
2, 19762, Note_on_c, 0, 34, 0
2, 19768, Note_on_c, 0, 47, 0
2, 19768, Note_on_c, 0, 46, 0
2, 19770, Note_on_c, 0, 35, 0
2, 19776, Note_on_c, 0, 65, 0
2, 19781, Note_on_c, 0, 62, 0
2, 19799, Note_on_c, 0, 47, 72
2, 19803, Note_on_c, 0, 35, 78
2, 19825, Control_c, 0, 64, 127
2, 19838, Note_on_c, 0, 68, 0
2, 19843, Note_on_c, 0, 67, 68
2, 19853, Note_on_c, 0, 35, 0
2, 19866, Note_on_c, 0, 68, 67
2, 19868, Note_on_c, 0, 47, 0
2, 19880, Note_on_c, 0, 68, 0
2, 19888, Note_on_c, 0, 70, 69
2, 19900, Note_on_c, 0, 80, 0
2, 19905, Note_on_c, 0, 70, 0
2, 19907, Note_on_c, 0, 68, 65
2, 19920, Note_on_c, 0, 35, 83
2, 19929, Note_on_c, 0, 68, 0
2, 19929, Note_on_c, 0, 67, 0
2, 19929, Note_on_c, 0, 56, 0
2, 19931, Note_on_c, 0, 47, 80
2, 19933, Note_on_c, 0, 70, 70
2, 19945, Note_on_c, 0, 70, 0
2, 19951, Note_on_c, 0, 68, 66
2, 19967, Note_on_c, 0, 68, 0
2, 19969, Note_on_c, 0, 70, 69
2, 19985, Note_on_c, 0, 70, 0
2, 19990, Note_on_c, 0, 68, 70
2, 20010, Note_on_c, 0, 68, 0
2, 20012, Note_on_c, 0, 70, 65
2, 20032, Note_on_c, 0, 70, 0
2, 20034, Note_on_c, 0, 68, 65
2, 20052, Note_on_c, 0, 68, 0
2, 20055, Note_on_c, 0, 70, 69
2, 20065, Note_on_c, 0, 70, 0
2, 20075, Note_on_c, 0, 68, 66
2, 20089, Note_on_c, 0, 68, 0
2, 20094, Note_on_c, 0, 70, 72
2, 20119, Note_on_c, 0, 68, 68
2, 20134, Note_on_c, 0, 68, 0
2, 20161, Note_on_c, 0, 68, 71
2, 20179, Note_on_c, 0, 67, 65
2, 20179, Note_on_c, 0, 65, 66
2, 20191, Note_on_c, 0, 68, 0
2, 20191, Note_on_c, 0, 70, 0
2, 20211, Control_c, 0, 64, 0
2, 20229, Note_on_c, 0, 71, 71
2, 20231, Note_on_c, 0, 62, 72
2, 20254, Note_on_c, 0, 59, 66
2, 20258, Note_on_c, 0, 74, 70
2, 20289, Note_on_c, 0, 79, 70
2, 20291, Note_on_c, 0, 55, 72
2, 20329, Note_on_c, 0, 43, 69
2, 20342, Note_on_c, 0, 91, 66
2, 20376, Note_on_c, 0, 35, 0
2, 20378, Note_on_c, 0, 47, 0
2, 20436, Note_on_c, 0, 96, 79
2, 20441, Note_on_c, 0, 48, 82
2, 20441, Note_on_c, 0, 84, 80
2, 20448, Note_on_c, 0, 91, 0
2, 20448, Note_on_c, 0, 36, 82
2, 20451, Note_on_c, 0, 74, 0
2, 20451, Note_on_c, 0, 71, 0
2, 20451, Note_on_c, 0, 59, 0
2, 20451, Note_on_c, 0, 62, 0
2, 20454, Note_on_c, 0, 65, 0
2, 20456, Note_on_c, 0, 67, 0
2, 20456, Note_on_c, 0, 79, 0
2, 20458, Note_on_c, 0, 43, 0
2, 20464, Note_on_c, 0, 55, 0
2, 20498, Control_c, 0, 64, 127
2, 20572, Note_on_c, 0, 55, 61
2, 20603, Note_on_c, 0, 64, 74
2, 20608, Note_on_c, 0, 48, 0
2, 20614, Note_on_c, 0, 36, 0
2, 20619, Note_on_c, 0, 68, 66
2, 20638, Note_on_c, 0, 68, 0
2, 20650, Note_on_c, 0, 70, 66
2, 20664, Note_on_c, 0, 68, 72
2, 20669, Note_on_c, 0, 70, 0
2, 20680, Note_on_c, 0, 84, 0
2, 20682, Note_on_c, 0, 96, 0
2, 20684, Note_on_c, 0, 68, 0
2, 20694, Note_on_c, 0, 70, 67
2, 20712, Note_on_c, 0, 68, 71
2, 20714, Note_on_c, 0, 70, 0
2, 20720, Note_on_c, 0, 65, 72
2, 20730, Note_on_c, 0, 67, 67
2, 20736, Note_on_c, 0, 64, 0
2, 20738, Note_on_c, 0, 68, 0
2, 20761, Note_on_c, 0, 71, 72
2, 20782, Note_on_c, 0, 62, 63
2, 20799, Control_c, 0, 64, 0
2, 20799, Note_on_c, 0, 74, 72
2, 20807, Note_on_c, 0, 59, 63
2, 20814, Note_on_c, 0, 55, 0
2, 20836, Note_on_c, 0, 79, 71
2, 20841, Note_on_c, 0, 55, 64
2, 20891, Note_on_c, 0, 43, 67
2, 20899, Note_on_c, 0, 91, 67
2, 21000, Note_on_c, 0, 48, 65
2, 21001, Note_on_c, 0, 36, 64
2, 21006, Note_on_c, 0, 84, 84
2, 21009, Note_on_c, 0, 43, 0
2, 21009, Note_on_c, 0, 96, 83
2, 21012, Note_on_c, 0, 79, 0
2, 21012, Note_on_c, 0, 67, 0
2, 21012, Note_on_c, 0, 71, 0
2, 21012, Note_on_c, 0, 74, 0
2, 21014, Note_on_c, 0, 59, 0
2, 21016, Note_on_c, 0, 91, 0
2, 21018, Note_on_c, 0, 62, 0
2, 21018, Note_on_c, 0, 65, 0
2, 21023, Note_on_c, 0, 55, 0
2, 21076, Control_c, 0, 64, 127
2, 21159, Note_on_c, 0, 55, 62
2, 21179, Note_on_c, 0, 64, 72
2, 21181, Note_on_c, 0, 68, 63
2, 21196, Note_on_c, 0, 68, 0
2, 21202, Note_on_c, 0, 70, 62
2, 21212, Note_on_c, 0, 36, 0
2, 21216, Note_on_c, 0, 70, 0
2, 21231, Note_on_c, 0, 48, 0
2, 21240, Note_on_c, 0, 68, 66
2, 21250, Note_on_c, 0, 84, 0
2, 21250, Note_on_c, 0, 70, 63
2, 21253, Note_on_c, 0, 96, 0
2, 21255, Note_on_c, 0, 68, 0
2, 21272, Note_on_c, 0, 70, 0
2, 21278, Note_on_c, 0, 68, 59
2, 21293, Note_on_c, 0, 65, 65
2, 21296, Note_on_c, 0, 67, 60
2, 21302, Note_on_c, 0, 68, 0
2, 21310, Control_c, 0, 64, 0
2, 21312, Note_on_c, 0, 64, 0
2, 21336, Control_c, 0, 64, 127
2, 21346, Note_on_c, 0, 71, 66
2, 21351, Note_on_c, 0, 62, 66
2, 21374, Control_c, 0, 64, 0
2, 21374, Note_on_c, 0, 59, 61
2, 21374, Note_on_c, 0, 74, 63
2, 21376, Note_on_c, 0, 55, 0
2, 21404, Note_on_c, 0, 55, 60
2, 21419, Note_on_c, 0, 79, 60
2, 21456, Note_on_c, 0, 91, 61
2, 21466, Note_on_c, 0, 43, 64
2, 21600, Note_on_c, 0, 36, 63
2, 21600, Note_on_c, 0, 48, 65
2, 21600, Note_on_c, 0, 88, 59
2, 21602, Note_on_c, 0, 71, 0
2, 21602, Note_on_c, 0, 59, 0
2, 21602, Note_on_c, 0, 67, 0
2, 21605, Note_on_c, 0, 74, 0
2, 21605, Note_on_c, 0, 96, 65
2, 21605, Note_on_c, 0, 100, 61
2, 21607, Note_on_c, 0, 43, 0
2, 21609, Note_on_c, 0, 91, 0
2, 21609, Note_on_c, 0, 65, 0
2, 21609, Note_on_c, 0, 62, 0
2, 21612, Note_on_c, 0, 79, 0
2, 21614, Note_on_c, 0, 55, 0
2, 21657, Control_c, 0, 64, 127
2, 21763, Note_on_c, 0, 55, 63
2, 21775, Note_on_c, 0, 88, 0
2, 21781, Note_on_c, 0, 96, 0
2, 21784, Note_on_c, 0, 100, 0
2, 21789, Note_on_c, 0, 64, 71
2, 21801, Note_on_c, 0, 69, 59
2, 21812, Note_on_c, 0, 48, 0
2, 21814, Note_on_c, 0, 36, 0
2, 21816, Note_on_c, 0, 69, 0
2, 21826, Note_on_c, 0, 71, 50
2, 21839, Note_on_c, 0, 69, 53
2, 21841, Note_on_c, 0, 71, 0
2, 21859, Note_on_c, 0, 69, 0
2, 21871, Note_on_c, 0, 71, 48
2, 21881, Note_on_c, 0, 69, 47
2, 21893, Note_on_c, 0, 71, 0
2, 21901, Note_on_c, 0, 65, 47
2, 21903, Note_on_c, 0, 69, 0
2, 21915, Note_on_c, 0, 67, 52
2, 21920, Note_on_c, 0, 64, 0
2, 21940, Note_on_c, 0, 62, 53
2, 21943, Note_on_c, 0, 71, 48
2, 21979, Note_on_c, 0, 59, 48
2, 21988, Note_on_c, 0, 55, 0
2, 21988, Note_on_c, 0, 74, 51
2, 21993, Control_c, 0, 64, 0
2, 22011, Note_on_c, 0, 55, 51
2, 22024, Note_on_c, 0, 79, 47
2, 22070, Note_on_c, 0, 91, 54
2, 22072, Note_on_c, 0, 43, 50
2, 22171, Note_on_c, 0, 43, 0
2, 22173, Note_on_c, 0, 67, 0
2, 22180, Note_on_c, 0, 71, 0
2, 22180, Note_on_c, 0, 62, 0
2, 22180, Note_on_c, 0, 65, 0
2, 22180, Note_on_c, 0, 59, 0
2, 22180, Note_on_c, 0, 74, 0
2, 22182, Note_on_c, 0, 91, 0
2, 22182, Note_on_c, 0, 79, 0
2, 22188, Note_on_c, 0, 55, 0
2, 22199, Note_on_c, 0, 96, 50
2, 22199, Note_on_c, 0, 100, 51
2, 22201, Note_on_c, 0, 88, 50
2, 22203, Note_on_c, 0, 36, 48
2, 22208, Note_on_c, 0, 48, 52
2, 22272, Control_c, 0, 67, 127
2, 22344, Control_c, 0, 64, 127
2, 22362, Note_on_c, 0, 55, 42
2, 22387, Note_on_c, 0, 64, 54
2, 22390, Note_on_c, 0, 88, 0
2, 22392, Note_on_c, 0, 69, 50
2, 22399, Note_on_c, 0, 96, 0
2, 22405, Note_on_c, 0, 100, 0
2, 22410, Note_on_c, 0, 69, 0
2, 22413, Note_on_c, 0, 71, 53
2, 22439, Note_on_c, 0, 71, 0
2, 22440, Note_on_c, 0, 69, 53
2, 22463, Note_on_c, 0, 69, 0
2, 22472, Note_on_c, 0, 71, 47
2, 22488, Note_on_c, 0, 71, 0
2, 22490, Note_on_c, 0, 69, 51
2, 22505, Note_on_c, 0, 69, 0
2, 22512, Note_on_c, 0, 65, 49
2, 22517, Note_on_c, 0, 67, 52
2, 22523, Note_on_c, 0, 48, 0
2, 22525, Note_on_c, 0, 36, 0
2, 22533, Note_on_c, 0, 64, 0
2, 22556, Note_on_c, 0, 71, 53
2, 22561, Note_on_c, 0, 62, 42
2, 22594, Note_on_c, 0, 59, 44
2, 22599, Note_on_c, 0, 74, 47
2, 22608, Note_on_c, 0, 55, 0
2, 22636, Note_on_c, 0, 55, 47
2, 22651, Note_on_c, 0, 79, 49
2, 22688, Control_c, 0, 64, 0
2, 22696, Note_on_c, 0, 43, 44
2, 22698, Note_on_c, 0, 91, 51
2, 22847, Note_on_c, 0, 96, 47
2, 22848, Note_on_c, 0, 88, 52
2, 22851, Note_on_c, 0, 100, 54
2, 22857, Note_on_c, 0, 48, 41
2, 22860, Note_on_c, 0, 91, 0
2, 22860, Note_on_c, 0, 43, 0
2, 22865, Note_on_c, 0, 67, 0
2, 22865, Note_on_c, 0, 36, 48
2, 22868, Note_on_c, 0, 59, 0
2, 22868, Note_on_c, 0, 71, 0
2, 22868, Note_on_c, 0, 74, 0
2, 22871, Note_on_c, 0, 62, 0
2, 22871, Note_on_c, 0, 65, 0
2, 22873, Note_on_c, 0, 79, 0
2, 22878, Note_on_c, 0, 55, 0
2, 22917, Control_c, 0, 64, 127
2, 22975, Note_on_c, 0, 64, 42
2, 23018, Note_on_c, 0, 48, 0
2, 23026, Note_on_c, 0, 96, 0
2, 23032, Note_on_c, 0, 88, 0
2, 23034, Note_on_c, 0, 67, 49
2, 23036, Note_on_c, 0, 100, 0
2, 23045, Note_on_c, 0, 74, 48
2, 23060, Note_on_c, 0, 67, 0
2, 23065, Note_on_c, 0, 72, 53
2, 23073, Note_on_c, 0, 48, 41
2, 23098, Note_on_c, 0, 64, 0
2, 23100, Note_on_c, 0, 55, 59
2, 23102, Note_on_c, 0, 67, 48
2, 23104, Note_on_c, 0, 72, 0
2, 23134, Note_on_c, 0, 64, 75
2, 23139, Note_on_c, 0, 72, 47
2, 23150, Note_on_c, 0, 77, 51
2, 23185, Note_on_c, 0, 72, 0
2, 23196, Note_on_c, 0, 76, 54
2, 23208, Note_on_c, 0, 74, 0
2, 23226, Note_on_c, 0, 72, 49
2, 23229, Note_on_c, 0, 76, 0
2, 23266, Note_on_c, 0, 76, 48
2, 23276, Note_on_c, 0, 81, 49
2, 23280, Note_on_c, 0, 77, 0
2, 23299, Note_on_c, 0, 76, 0
2, 23301, Note_on_c, 0, 79, 54
2, 23311, Note_on_c, 0, 81, 0
2, 23313, Note_on_c, 0, 55, 0
2, 23333, Note_on_c, 0, 81, 50
2, 23335, Note_on_c, 0, 79, 0
2, 23337, Note_on_c, 0, 48, 0
2, 23340, Note_on_c, 0, 76, 50
2, 23383, Note_on_c, 0, 86, 53
2, 23385, Note_on_c, 0, 79, 51
2, 23390, Note_on_c, 0, 64, 0
2, 23390, Note_on_c, 0, 67, 0
2, 23400, Note_on_c, 0, 72, 0
2, 23406, Note_on_c, 0, 79, 0
2, 23414, Note_on_c, 0, 84, 54
2, 23448, Note_on_c, 0, 79, 55
2, 23453, Note_on_c, 0, 81, 0
2, 23458, Note_on_c, 0, 84, 0
2, 23498, Note_on_c, 0, 84, 56
2, 23500, Note_on_c, 0, 89, 54
2, 23510, Note_on_c, 0, 86, 0
2, 23538, Note_on_c, 0, 88, 55
2, 23544, Note_on_c, 0, 84, 0
2, 23544, Note_on_c, 0, 89, 0
2, 23568, Note_on_c, 0, 88, 0
2, 23573, Note_on_c, 0, 84, 53
2, 23584, Note_on_c, 0, 65, 55
2, 23589, Note_on_c, 0, 55, 71
2, 23592, Note_on_c, 0, 84, 0
2, 23597, Note_on_c, 0, 60, 74
2, 23602, Note_on_c, 0, 79, 0
2, 23602, Note_on_c, 0, 76, 0
2, 23602, Note_on_c, 0, 93, 50
2, 23604, Note_on_c, 0, 88, 55
2, 23640, Note_on_c, 0, 88, 0
2, 23644, Note_on_c, 0, 91, 49
2, 23657, Note_on_c, 0, 93, 0
2, 23672, Note_on_c, 0, 91, 0
2, 23683, Note_on_c, 0, 88, 57
2, 23720, Note_on_c, 0, 91, 56
2, 23720, Note_on_c, 0, 98, 52
2, 23745, Note_on_c, 0, 91, 0
2, 23762, Note_on_c, 0, 96, 56
2, 23768, Note_on_c, 0, 64, 69
2, 23774, Note_on_c, 0, 98, 0
2, 23784, Note_on_c, 0, 65, 0
2, 23786, Control_c, 0, 64, 0
2, 23794, Note_on_c, 0, 96, 0
2, 23796, Note_on_c, 0, 91, 49
2, 23807, Note_on_c, 0, 60, 0
2, 23827, Note_on_c, 0, 48, 73
2, 23832, Note_on_c, 0, 101, 56
2, 23835, Note_on_c, 0, 96, 49
2, 23843, Note_on_c, 0, 52, 72
2, 23845, Note_on_c, 0, 88, 0
2, 23845, Note_on_c, 0, 91, 0
2, 23847, Note_on_c, 0, 64, 0
2, 23852, Note_on_c, 0, 96, 0
2, 23859, Note_on_c, 0, 60, 74
2, 23878, Note_on_c, 0, 100, 44
2, 23883, Note_on_c, 0, 101, 0
2, 23913, Note_on_c, 0, 96, 47
2, 23926, Note_on_c, 0, 100, 0
2, 23952, Note_on_c, 0, 91, 41
2, 23959, Note_on_c, 0, 96, 0
2, 23989, Note_on_c, 0, 88, 44
2, 24024, Note_on_c, 0, 84, 46
2, 24038, Note_on_c, 0, 91, 0
2, 24060, Note_on_c, 0, 79, 41
2, 24100, Note_on_c, 0, 76, 48
2, 24130, Note_on_c, 0, 72, 42
2, 24166, Note_on_c, 0, 67, 48
2, 24168, Note_on_c, 0, 60, 0
2, 24206, Note_on_c, 0, 60, 54
2, 24231, Note_on_c, 0, 55, 0
2, 24241, Note_on_c, 0, 36, 0
2, 24257, Note_on_c, 0, 55, 59
2, 24307, Note_on_c, 0, 36, 55
2, 24310, Note_on_c, 0, 24, 55
2, 24388, Note_on_c, 0, 48, 0
2, 24391, Note_on_c, 0, 52, 0
2, 24394, Note_on_c, 0, 67, 0
2, 24394, Note_on_c, 0, 79, 0
2, 24394, Note_on_c, 0, 76, 0
2, 24394, Note_on_c, 0, 72, 0
2, 24397, Note_on_c, 0, 88, 0
2, 24397, Note_on_c, 0, 84, 0
2, 24397, Note_on_c, 0, 60, 0
2, 24405, Note_on_c, 0, 55, 0
2, 24488, Control_c, 0, 64, 127
2, 24683, Control_c, 0, 64, 0
2, 24819, Note_on_c, 0, 25, 50
2, 24832, Note_on_c, 0, 37, 52
2, 24834, Note_on_c, 0, 24, 0
2, 24837, Note_on_c, 0, 36, 0
2, 24965, Note_on_c, 0, 25, 0
2, 24965, Note_on_c, 0, 37, 0
2, 24975, Note_on_c, 0, 38, 42
2, 24981, Note_on_c, 0, 26, 42
2, 25041, Control_c, 0, 64, 127
2, 25128, Note_on_c, 0, 27, 48
2, 25132, Note_on_c, 0, 39, 42
2, 25150, Note_on_c, 0, 38, 0
2, 25152, Note_on_c, 0, 26, 0
2, 25154, Note_on_c, 0, 63, 61
2, 25182, Control_c, 0, 64, 0
2, 25445, Note_on_c, 0, 62, 49
2, 25445, Note_on_c, 0, 65, 59
2, 25461, Note_on_c, 0, 63, 0
2, 25526, Note_on_c, 0, 39, 0
2, 25528, Note_on_c, 0, 27, 0
2, 25551, Note_on_c, 0, 61, 51
2, 25554, Note_on_c, 0, 63, 47
2, 25559, Note_on_c, 0, 67, 61
2, 25568, Note_on_c, 0, 62, 0
2, 25573, Note_on_c, 0, 65, 0
2, 25631, Note_on_c, 0, 63, 0
2, 25661, Note_on_c, 0, 67, 0
2, 25667, Note_on_c, 0, 60, 48
2, 25667, Note_on_c, 0, 63, 47
2, 25677, Note_on_c, 0, 68, 61
2, 25684, Note_on_c, 0, 61, 0
2, 25728, Note_on_c, 0, 63, 0
2, 25762, Note_on_c, 0, 70, 71
2, 25767, Note_on_c, 0, 55, 47
2, 25769, Note_on_c, 0, 63, 52
2, 25778, Note_on_c, 0, 68, 0
2, 25784, Note_on_c, 0, 60, 0
2, 25850, Note_on_c, 0, 63, 0
2, 25888, Note_on_c, 0, 72, 75
2, 25891, Note_on_c, 0, 63, 50
2, 25893, Note_on_c, 0, 56, 54
2, 25903, Note_on_c, 0, 70, 0
2, 25918, Note_on_c, 0, 55, 0
2, 25948, Control_c, 0, 64, 127
2, 26075, Note_on_c, 0, 51, 53
2, 26095, Note_on_c, 0, 59, 47
2, 26108, Note_on_c, 0, 56, 0
2, 26112, Note_on_c, 0, 62, 51
2, 26131, Note_on_c, 0, 65, 59
2, 26133, Note_on_c, 0, 63, 0
2, 26153, Note_on_c, 0, 68, 60
2, 26167, Note_on_c, 0, 72, 0
2, 26197, Note_on_c, 0, 77, 64
2, 26203, Control_c, 0, 64, 0
2, 26322, Note_on_c, 0, 51, 0
2, 26339, Note_on_c, 0, 68, 0
2, 26364, Note_on_c, 0, 75, 62
2, 26366, Note_on_c, 0, 51, 54
2, 26368, Note_on_c, 0, 63, 53
2, 26373, Note_on_c, 0, 60, 48
2, 26375, Note_on_c, 0, 68, 46
2, 26376, Note_on_c, 0, 77, 0
2, 26379, Note_on_c, 0, 62, 0
2, 26387, Note_on_c, 0, 59, 0
2, 26387, Note_on_c, 0, 65, 0
2, 26683, Control_c, 0, 64, 127
2, 26692, Note_on_c, 0, 63, 0
2, 26720, Note_on_c, 0, 61, 45
2, 26731, Note_on_c, 0, 51, 0
2, 26734, Note_on_c, 0, 63, 46
2, 26734, Note_on_c, 0, 67, 43
2, 26741, Note_on_c, 0, 60, 0
2, 26744, Note_on_c, 0, 68, 0
2, 26769, Control_c, 0, 64, 0
2, 26840, Note_on_c, 0, 60, 63
2, 26856, Note_on_c, 0, 61, 0
2, 26946, Note_on_c, 0, 58, 65
2, 26964, Note_on_c, 0, 60, 0
2, 26974, Note_on_c, 0, 58, 0
2, 27004, Note_on_c, 0, 58, 48
2, 27022, Note_on_c, 0, 58, 0
2, 27029, Note_on_c, 0, 67, 0
2, 27032, Note_on_c, 0, 63, 0
2, 27035, Note_on_c, 0, 60, 71
2, 27048, Note_on_c, 0, 58, 71
2, 27058, Note_on_c, 0, 63, 68
2, 27063, Note_on_c, 0, 60, 0
2, 27071, Note_on_c, 0, 67, 43
2, 27071, Note_on_c, 0, 73, 45
2, 27161, Note_on_c, 0, 57, 62
2, 27178, Note_on_c, 0, 58, 0
2, 27277, Note_on_c, 0, 58, 65
2, 27289, Note_on_c, 0, 57, 0
2, 27406, Note_on_c, 0, 63, 0
2, 27424, Note_on_c, 0, 60, 47
2, 27436, Note_on_c, 0, 58, 0
2, 27438, Note_on_c, 0, 63, 42
2, 27444, Note_on_c, 0, 68, 42
2, 27444, Note_on_c, 0, 72, 42
2, 27452, Note_on_c, 0, 67, 0
2, 27452, Note_on_c, 0, 73, 0
2, 27466, Control_c, 0, 64, 127
2, 27607, Control_c, 0, 64, 0
2, 27620, Note_on_c, 0, 56, 60
2, 27638, Note_on_c, 0, 60, 0
2, 27945, Control_c, 0, 64, 127
2, 27971, Note_on_c, 0, 56, 0
2, 27986, Note_on_c, 0, 51, 52
2, 28002, Note_on_c, 0, 51, 0
2, 28034, Control_c, 0, 64, 0
2, 28053, Note_on_c, 0, 51, 58
2, 28176, Control_c, 0, 64, 127
2, 28261, Note_on_c, 0, 51, 0
2, 28272, Note_on_c, 0, 75, 0
2, 28279, Note_on_c, 0, 72, 0
2, 28282, Note_on_c, 0, 68, 0
2, 28290, Note_on_c, 0, 63, 0
2, 28577, Control_c, 0, 64, 0
2, 28584, Note_on_c, 0, 63, 48
2, 28599, Note_on_c, 0, 61, 44
2, 28601, Note_on_c, 0, 55, 43
2, 28604, Note_on_c, 0, 39, 44
2, 28791, Note_on_c, 0, 41, 49
2, 28796, Note_on_c, 0, 39, 0
2, 28801, Note_on_c, 0, 56, 50
2, 28811, Note_on_c, 0, 55, 0
2, 28853, Control_c, 0, 64, 127
2, 28896, Note_on_c, 0, 43, 49
2, 28898, Note_on_c, 0, 41, 0
2, 28906, Note_on_c, 0, 56, 0
2, 28912, Note_on_c, 0, 58, 47
2, 28942, Control_c, 0, 64, 0
2, 28985, Note_on_c, 0, 43, 0
2, 28987, Note_on_c, 0, 44, 46
2, 28999, Note_on_c, 0, 60, 48
2, 29001, Note_on_c, 0, 61, 0
2, 29072, Note_on_c, 0, 46, 46
2, 29078, Note_on_c, 0, 55, 46
2, 29080, Note_on_c, 0, 58, 0
2, 29082, Note_on_c, 0, 44, 0
2, 29084, Note_on_c, 0, 60, 0
2, 29162, Note_on_c, 0, 48, 48
2, 29167, Note_on_c, 0, 46, 0
2, 29167, Note_on_c, 0, 56, 47
2, 29180, Note_on_c, 0, 55, 0
2, 29232, Note_on_c, 0, 63, 0
2, 29270, Note_on_c, 0, 65, 58
2, 29275, Note_on_c, 0, 41, 47
2, 29280, Note_on_c, 0, 56, 0
2, 29282, Note_on_c, 0, 48, 0
2, 29282, Note_on_c, 0, 57, 42
2, 29282, Note_on_c, 0, 63, 48
2, 29352, Note_on_c, 0, 43, 43
2, 29357, Note_on_c, 0, 41, 0
2, 29360, Note_on_c, 0, 57, 0
2, 29362, Note_on_c, 0, 58, 46
2, 29372, Control_c, 0, 64, 127
2, 29427, Note_on_c, 0, 45, 44
2, 29437, Note_on_c, 0, 43, 0
2, 29437, Note_on_c, 0, 60, 44
2, 29439, Note_on_c, 0, 58, 0
2, 29451, Control_c, 0, 64, 0
2, 29524, Note_on_c, 0, 46, 49
2, 29530, Note_on_c, 0, 45, 0
2, 29538, Note_on_c, 0, 61, 49
2, 29540, Note_on_c, 0, 60, 0
2, 29540, Note_on_c, 0, 63, 0
2, 29597, Note_on_c, 0, 48, 46
2, 29600, Note_on_c, 0, 46, 0
2, 29611, Note_on_c, 0, 57, 54
2, 29625, Control_c, 0, 64, 127
2, 29648, Control_c, 0, 67, 0
2, 29671, Note_on_c, 0, 49, 46
2, 29679, Note_on_c, 0, 57, 0
2, 29681, Note_on_c, 0, 58, 47
2, 29684, Note_on_c, 0, 48, 0
2, 29712, Control_c, 0, 64, 0
2, 29736, Note_on_c, 0, 65, 0
2, 29736, Note_on_c, 0, 61, 0
2, 29760, Note_on_c, 0, 66, 59
2, 29760, Note_on_c, 0, 70, 54
2, 29769, Note_on_c, 0, 49, 0
2, 29771, Note_on_c, 0, 58, 0
2, 29771, Note_on_c, 0, 44, 45
2, 29774, Note_on_c, 0, 60, 48
2, 29836, Note_on_c, 0, 46, 47
2, 29842, Note_on_c, 0, 61, 46
2, 29848, Note_on_c, 0, 60, 0
2, 29848, Note_on_c, 0, 44, 0
2, 29914, Note_on_c, 0, 68, 54
2, 29917, Note_on_c, 0, 48, 47
2, 29920, Note_on_c, 0, 46, 0
2, 29923, Note_on_c, 0, 63, 45
2, 29925, Note_on_c, 0, 70, 0
2, 29932, Note_on_c, 0, 61, 0
2, 29982, Note_on_c, 0, 65, 46
2, 29984, Note_on_c, 0, 49, 60
2, 29992, Note_on_c, 0, 48, 0
2, 29997, Note_on_c, 0, 66, 0
2, 30001, Note_on_c, 0, 63, 0
2, 30048, Note_on_c, 0, 51, 45
2, 30060, Note_on_c, 0, 49, 0
2, 30062, Note_on_c, 0, 60, 48
2, 30065, Control_c, 0, 64, 127
2, 30108, Note_on_c, 0, 53, 48
2, 30122, Note_on_c, 0, 61, 45
2, 30124, Note_on_c, 0, 60, 0
2, 30124, Note_on_c, 0, 51, 0
2, 30162, Note_on_c, 0, 65, 0
2, 30169, Note_on_c, 0, 68, 0
2, 30169, Control_c, 0, 64, 0
2, 30199, Note_on_c, 0, 46, 45
2, 30209, Note_on_c, 0, 68, 58
2, 30209, Note_on_c, 0, 72, 61
2, 30211, Note_on_c, 0, 53, 0
2, 30216, Note_on_c, 0, 61, 0
2, 30216, Note_on_c, 0, 62, 51
2, 30287, Note_on_c, 0, 48, 52
2, 30289, Note_on_c, 0, 46, 0
2, 30292, Note_on_c, 0, 63, 47
2, 30298, Note_on_c, 0, 62, 0
2, 30361, Note_on_c, 0, 70, 58
2, 30363, Note_on_c, 0, 65, 64
2, 30366, Note_on_c, 0, 50, 64
2, 30371, Note_on_c, 0, 72, 0
2, 30373, Note_on_c, 0, 48, 0
2, 30383, Note_on_c, 0, 63, 0
2, 30435, Note_on_c, 0, 51, 59
2, 30443, Note_on_c, 0, 50, 0
2, 30443, Note_on_c, 0, 67, 61
2, 30456, Note_on_c, 0, 68, 0
2, 30501, Note_on_c, 0, 62, 58
2, 30504, Note_on_c, 0, 53, 60
2, 30549, Note_on_c, 0, 39, 80
2, 30554, Note_on_c, 0, 51, 0
2, 30554, Note_on_c, 0, 67, 0
2, 30559, Note_on_c, 0, 53, 0
2, 30562, Note_on_c, 0, 62, 0
2, 30562, Note_on_c, 0, 70, 0
2, 30565, Note_on_c, 0, 65, 0
2, 30624, Control_c, 0, 64, 127
2, 30639, Note_on_c, 0, 51, 50
2, 30642, Note_on_c, 0, 75, 79
2, 30645, Note_on_c, 0, 67, 76
2, 30655, Note_on_c, 0, 63, 48
2, 30744, Control_c, 0, 64, 0
2, 30870, Note_on_c, 0, 77, 74
2, 30872, Note_on_c, 0, 62, 60
2, 30872, Note_on_c, 0, 65, 74
2, 30872, Note_on_c, 0, 70, 73
2, 30883, Note_on_c, 0, 67, 0
2, 30885, Note_on_c, 0, 63, 0
2, 30885, Note_on_c, 0, 75, 0
2, 30971, Note_on_c, 0, 61, 64
2, 30971, Note_on_c, 0, 63, 67
2, 30982, Note_on_c, 0, 75, 76
2, 30984, Note_on_c, 0, 70, 0
2, 30985, Note_on_c, 0, 79, 77
2, 30988, Control_c, 0, 64, 127
2, 30988, Note_on_c, 0, 67, 78
2, 30993, Note_on_c, 0, 65, 0
2, 30993, Note_on_c, 0, 62, 0
2, 30999, Note_on_c, 0, 77, 0
2, 31027, Note_on_c, 0, 63, 0
2, 31034, Note_on_c, 0, 75, 0
2, 31039, Control_c, 0, 64, 0
2, 31057, Note_on_c, 0, 67, 0
2, 31062, Note_on_c, 0, 68, 76
2, 31067, Note_on_c, 0, 60, 64
2, 31067, Note_on_c, 0, 63, 68
2, 31075, Note_on_c, 0, 75, 77
2, 31075, Note_on_c, 0, 80, 79
2, 31080, Note_on_c, 0, 61, 0
2, 31090, Note_on_c, 0, 79, 0
2, 31123, Note_on_c, 0, 63, 0
2, 31128, Note_on_c, 0, 75, 0
2, 31154, Note_on_c, 0, 55, 68
2, 31157, Note_on_c, 0, 63, 66
2, 31162, Note_on_c, 0, 70, 75
2, 31162, Note_on_c, 0, 82, 81
2, 31165, Note_on_c, 0, 75, 77
2, 31177, Note_on_c, 0, 80, 0
2, 31177, Note_on_c, 0, 60, 0
2, 31180, Note_on_c, 0, 68, 0
2, 31225, Note_on_c, 0, 75, 0
2, 31230, Note_on_c, 0, 63, 0
2, 31265, Note_on_c, 0, 56, 63
2, 31265, Note_on_c, 0, 63, 65
2, 31267, Note_on_c, 0, 72, 79
2, 31269, Note_on_c, 0, 75, 76
2, 31272, Note_on_c, 0, 84, 81
2, 31279, Note_on_c, 0, 70, 0
2, 31284, Note_on_c, 0, 82, 0
2, 31292, Note_on_c, 0, 55, 0
2, 31292, Control_c, 0, 64, 127
2, 31327, Note_on_c, 0, 51, 0
2, 31332, Note_on_c, 0, 39, 0
2, 31405, Note_on_c, 0, 63, 0
2, 31440, Note_on_c, 0, 84, 0
2, 31440, Note_on_c, 0, 72, 0
2, 31440, Note_on_c, 0, 75, 0
2, 31445, Note_on_c, 0, 63, 78
2, 31488, Note_on_c, 0, 56, 0
2, 31507, Control_c, 0, 64, 0
2, 31512, Note_on_c, 0, 71, 83
2, 31515, Note_on_c, 0, 77, 83
2, 31518, Note_on_c, 0, 89, 80
2, 31521, Note_on_c, 0, 74, 76
2, 31521, Note_on_c, 0, 80, 80
2, 31632, Note_on_c, 0, 80, 0
2, 31650, Note_on_c, 0, 72, 64
2, 31662, Note_on_c, 0, 71, 0
2, 31662, Note_on_c, 0, 75, 62
2, 31667, Note_on_c, 0, 87, 66
2, 31670, Note_on_c, 0, 80, 62
2, 31672, Note_on_c, 0, 89, 0
2, 31674, Note_on_c, 0, 74, 0
2, 31676, Note_on_c, 0, 77, 0
2, 31832, Note_on_c, 0, 75, 0
2, 31875, Note_on_c, 0, 75, 43
2, 31883, Control_c, 0, 67, 127
2, 31916, Note_on_c, 0, 72, 0
2, 31919, Note_on_c, 0, 63, 0
2, 31921, Note_on_c, 0, 80, 0
2, 31921, Note_on_c, 0, 87, 0
2, 31927, Note_on_c, 0, 83, 53
2, 31958, Note_on_c, 0, 86, 53
2, 31968, Note_on_c, 0, 89, 52
2, 32003, Note_on_c, 0, 92, 49
2, 32049, Note_on_c, 0, 101, 50
2, 32210, Note_on_c, 0, 92, 0
2, 32246, Note_on_c, 0, 84, 47
2, 32251, Note_on_c, 0, 92, 47
2, 32256, Note_on_c, 0, 87, 54
2, 32256, Note_on_c, 0, 99, 49
2, 32268, Note_on_c, 0, 83, 0
2, 32274, Note_on_c, 0, 101, 0
2, 32277, Note_on_c, 0, 86, 0
2, 32328, Note_on_c, 0, 89, 0
2, 32747, Note_on_c, 0, 87, 0
2, 32747, Note_on_c, 0, 75, 0
2, 32747, Note_on_c, 0, 84, 0
2, 32750, Note_on_c, 0, 92, 0
2, 32750, Note_on_c, 0, 99, 0
2, 32783, Note_on_c, 0, 27, 45
2, 32785, Note_on_c, 0, 39, 43
2, 32835, Control_c, 0, 64, 127
2, 33119, Note_on_c, 0, 27, 0
2, 33120, Note_on_c, 0, 39, 0
2, 33249, Note_on_c, 0, 32, 42
2, 33259, Note_on_c, 0, 44, 44
2, 33353, Note_on_c, 0, 34, 46
2, 33356, Note_on_c, 0, 46, 47
2, 33360, Note_on_c, 0, 32, 0
2, 33363, Note_on_c, 0, 44, 0
2, 33481, Note_on_c, 0, 48, 47
2, 33491, Note_on_c, 0, 36, 46
2, 33493, Note_on_c, 0, 46, 0
2, 33496, Note_on_c, 0, 34, 0
2, 33550, Control_c, 0, 64, 0
2, 33716, Note_on_c, 0, 34, 53
2, 33718, Note_on_c, 0, 46, 49
2, 33722, Note_on_c, 0, 48, 0
2, 33724, Note_on_c, 0, 36, 0
2, 33864, Note_on_c, 0, 48, 51
2, 33878, Note_on_c, 0, 36, 51
2, 33888, Note_on_c, 0, 46, 0
2, 33906, Note_on_c, 0, 34, 0
2, 34092, Note_on_c, 0, 44, 43
2, 34095, Note_on_c, 0, 32, 47
2, 34100, Note_on_c, 0, 48, 0
2, 34107, Note_on_c, 0, 36, 0
2, 34168, Control_c, 0, 64, 127
2, 34174, Note_on_c, 0, 32, 0
2, 34178, Note_on_c, 0, 44, 0
2, 34264, Note_on_c, 0, 32, 48
2, 34267, Note_on_c, 0, 44, 46
2, 34645, Note_on_c, 0, 32, 0
2, 34668, Note_on_c, 0, 44, 0
2, 34668, Note_on_c, 0, 60, 43
2, 34668, Note_on_c, 0, 68, 47
2, 34668, Note_on_c, 0, 72, 45
2, 34668, Note_on_c, 0, 80, 43
2, 34673, Note_on_c, 0, 63, 45
2, 34675, Note_on_c, 0, 92, 41
2, 34814, Note_on_c, 0, 72, 0
2, 34817, Note_on_c, 0, 80, 0
2, 34819, Note_on_c, 0, 92, 0
2, 34821, Note_on_c, 0, 68, 0
2, 34823, Note_on_c, 0, 63, 0
2, 34823, Note_on_c, 0, 60, 0
2, 35814, Control_c, 0, 64, 0
2, 35932, Control_c, 0, 64, 127
2, 35977, Note_on_c, 0, 84, 63
2, 36114, Note_on_c, 0, 72, 51
2, 36144, Note_on_c, 0, 84, 0
2, 36274, Note_on_c, 0, 72, 0
2, 36333, Note_on_c, 0, 84, 59
2, 36486, Note_on_c, 0, 72, 48
2, 36522, Note_on_c, 0, 84, 0
2, 36672, Note_on_c, 0, 72, 0
2, 36811, Note_on_c, 0, 84, 44
2, 36922, Note_on_c, 0, 84, 0
2, 37001, Note_on_c, 0, 72, 47
2, 37168, Control_c, 0, 64, 0
2, 37225, Note_on_c, 0, 72, 0
2, 37396, Control_c, 0, 64, 127
2, 37466, Note_on_c, 0, 84, 58
2, 37628, Note_on_c, 0, 36, 50
2, 37632, Note_on_c, 0, 72, 42
2, 37776, Control_c, 0, 64, 0
2, 37834, Note_on_c, 0, 65, 46
2, 37836, Note_on_c, 0, 55, 42
2, 37839, Note_on_c, 0, 60, 41
2, 37844, Note_on_c, 0, 70, 43
2, 37853, Note_on_c, 0, 84, 0
2, 37859, Note_on_c, 0, 72, 0
2, 37865, Note_on_c, 0, 36, 0
2, 37871, Note_on_c, 0, 81, 57
2, 37872, Note_on_c, 0, 65, 0
2, 37872, Note_on_c, 0, 60, 0
2, 37883, Note_on_c, 0, 55, 0
2, 37959, Note_on_c, 0, 48, 50
2, 37965, Note_on_c, 0, 72, 43
2, 37969, Note_on_c, 0, 81, 0
2, 37972, Note_on_c, 0, 70, 0
2, 38119, Note_on_c, 0, 48, 0
2, 38129, Note_on_c, 0, 55, 48
2, 38129, Note_on_c, 0, 64, 43
2, 38136, Note_on_c, 0, 72, 0
2, 38141, Note_on_c, 0, 60, 42
2, 38141, Note_on_c, 0, 79, 58
2, 38151, Note_on_c, 0, 70, 45
2, 38205, Note_on_c, 0, 64, 0
2, 38214, Note_on_c, 0, 79, 0
2, 38214, Note_on_c, 0, 55, 0
2, 38214, Note_on_c, 0, 60, 0
2, 38214, Note_on_c, 0, 70, 0
2, 38239, Note_on_c, 0, 53, 47
2, 38252, Note_on_c, 0, 72, 47
2, 38400, Note_on_c, 0, 60, 44
2, 38405, Note_on_c, 0, 65, 44
2, 38413, Note_on_c, 0, 53, 0
2, 38415, Note_on_c, 0, 69, 41
2, 38415, Note_on_c, 0, 77, 48
2, 38430, Note_on_c, 0, 72, 0
2, 38430, Note_on_c, 0, 60, 0
2, 38438, Note_on_c, 0, 65, 0
2, 38441, Control_c, 0, 64, 127
2, 38461, Note_on_c, 0, 77, 0
2, 38473, Control_c, 0, 64, 0
2, 38496, Note_on_c, 0, 79, 47
2, 38500, Control_c, 0, 64, 127
2, 38505, Note_on_c, 0, 77, 58
2, 38510, Control_c, 0, 64, 0
2, 38520, Note_on_c, 0, 50, 54
2, 38592, Note_on_c, 0, 76, 42
2, 38593, Note_on_c, 0, 67, 41
2, 38598, Note_on_c, 0, 50, 0
2, 38608, Note_on_c, 0, 77, 0
2, 38608, Note_on_c, 0, 69, 0
2, 38608, Note_on_c, 0, 79, 0
2, 38611, Note_on_c, 0, 76, 0
2, 38613, Note_on_c, 0, 67, 0
2, 38663, Note_on_c, 0, 65, 47
2, 38667, Note_on_c, 0, 57, 41
2, 38667, Note_on_c, 0, 60, 42
2, 38686, Note_on_c, 0, 74, 57
2, 38688, Note_on_c, 0, 57, 0
2, 38694, Note_on_c, 0, 60, 0
2, 38765, Note_on_c, 0, 67, 42
2, 38767, Note_on_c, 0, 43, 57
2, 38775, Note_on_c, 0, 74, 0
2, 38778, Note_on_c, 0, 65, 0
2, 38897, Control_c, 0, 64, 127
2, 38929, Note_on_c, 0, 55, 45
2, 38929, Note_on_c, 0, 60, 45
2, 38929, Note_on_c, 0, 76, 56
2, 38934, Note_on_c, 0, 50, 44
2, 38939, Note_on_c, 0, 43, 0
2, 38939, Note_on_c, 0, 65, 48
2, 38942, Note_on_c, 0, 67, 0
2, 38957, Note_on_c, 0, 50, 0
2, 38959, Note_on_c, 0, 60, 0
2, 38965, Note_on_c, 0, 55, 0
2, 38995, Control_c, 0, 64, 0
2, 39005, Note_on_c, 0, 76, 0
2, 39007, Note_on_c, 0, 65, 0
2, 39038, Note_on_c, 0, 43, 54
2, 39041, Note_on_c, 0, 67, 44
2, 39202, Note_on_c, 0, 55, 46
2, 39205, Note_on_c, 0, 59, 45
2, 39231, Note_on_c, 0, 74, 56
2, 39236, Note_on_c, 0, 65, 44
2, 39253, Note_on_c, 0, 43, 0
2, 39256, Note_on_c, 0, 67, 0
2, 39258, Note_on_c, 0, 59, 0
2, 39268, Note_on_c, 0, 55, 0
2, 39326, Note_on_c, 0, 36, 52
2, 39329, Note_on_c, 0, 67, 48
2, 39339, Note_on_c, 0, 74, 0
2, 39342, Note_on_c, 0, 65, 0
2, 39383, Control_c, 0, 64, 127
2, 39465, Note_on_c, 0, 55, 48
2, 39465, Note_on_c, 0, 60, 45
2, 39478, Note_on_c, 0, 64, 44
2, 39483, Note_on_c, 0, 72, 42
2, 39485, Note_on_c, 0, 36, 0
2, 39488, Note_on_c, 0, 67, 0
2, 39499, Note_on_c, 0, 72, 0
2, 39501, Note_on_c, 0, 55, 0
2, 39516, Control_c, 0, 64, 0
2, 39524, Note_on_c, 0, 74, 41
2, 39538, Note_on_c, 0, 48, 45
2, 39553, Note_on_c, 0, 72, 56
2, 39561, Note_on_c, 0, 74, 0
2, 39637, Note_on_c, 0, 56, 55
2, 39637, Note_on_c, 0, 65, 46
2, 39637, Note_on_c, 0, 71, 43
2, 39651, Note_on_c, 0, 72, 0
2, 39656, Note_on_c, 0, 64, 0
2, 39715, Note_on_c, 0, 55, 43
2, 39720, Note_on_c, 0, 72, 43
2, 39723, Note_on_c, 0, 64, 41
2, 39729, Note_on_c, 0, 56, 0
2, 39729, Control_c, 0, 64, 127
2, 39732, Note_on_c, 0, 71, 0
2, 39742, Note_on_c, 0, 65, 0
2, 39742, Note_on_c, 0, 60, 0
2, 39765, Note_on_c, 0, 48, 0
2, 39792, Control_c, 0, 64, 0
2, 39815, Note_on_c, 0, 48, 60
2, 39969, Note_on_c, 0, 60, 47
2, 39969, Note_on_c, 0, 65, 46
2, 39989, Note_on_c, 0, 70, 45
2, 40000, Note_on_c, 0, 64, 0
2, 40012, Note_on_c, 0, 72, 0
2, 40012, Note_on_c, 0, 81, 63
2, 40035, Control_c, 0, 64, 127
2, 40040, Note_on_c, 0, 48, 0
2, 40055, Note_on_c, 0, 65, 0
2, 40103, Control_c, 0, 64, 0
2, 40107, Note_on_c, 0, 72, 52
2, 40109, Note_on_c, 0, 48, 49
2, 40224, Note_on_c, 0, 60, 0
2, 40224, Note_on_c, 0, 55, 0
2, 40225, Control_c, 0, 64, 127
2, 40244, Note_on_c, 0, 70, 0
2, 40259, Note_on_c, 0, 55, 45
2, 40259, Note_on_c, 0, 64, 44
2, 40262, Note_on_c, 0, 60, 49
2, 40277, Note_on_c, 0, 79, 63
2, 40282, Note_on_c, 0, 81, 0
2, 40288, Note_on_c, 0, 70, 44
2, 40293, Note_on_c, 0, 72, 0
2, 40315, Control_c, 0, 64, 0
2, 40389, Note_on_c, 0, 72, 50
2, 40391, Note_on_c, 0, 53, 52
2, 40396, Note_on_c, 0, 48, 0
2, 40398, Note_on_c, 0, 70, 0
2, 40403, Note_on_c, 0, 64, 0
2, 40414, Note_on_c, 0, 55, 0
2, 40477, Note_on_c, 0, 60, 0
2, 40507, Control_c, 0, 64, 127
2, 40524, Note_on_c, 0, 65, 55
2, 40527, Note_on_c, 0, 60, 45
2, 40547, Note_on_c, 0, 77, 49
2, 40549, Note_on_c, 0, 79, 0
2, 40551, Note_on_c, 0, 69, 49
2, 40576, Note_on_c, 0, 77, 0
2, 40598, Note_on_c, 0, 79, 53
2, 40606, Control_c, 0, 64, 0
2, 40608, Note_on_c, 0, 72, 0
2, 40625, Note_on_c, 0, 77, 60
2, 40631, Note_on_c, 0, 50, 51
2, 40638, Note_on_c, 0, 79, 0
2, 40643, Note_on_c, 0, 53, 0
2, 40704, Note_on_c, 0, 67, 53
2, 40705, Note_on_c, 0, 76, 49
2, 40715, Note_on_c, 0, 69, 0
2, 40717, Note_on_c, 0, 65, 0
2, 40717, Note_on_c, 0, 60, 0
2, 40720, Note_on_c, 0, 77, 0
2, 40777, Note_on_c, 0, 57, 47
2, 40777, Note_on_c, 0, 60, 42
2, 40787, Note_on_c, 0, 74, 54
2, 40793, Note_on_c, 0, 67, 0
2, 40795, Note_on_c, 0, 65, 48
2, 40797, Note_on_c, 0, 76, 0
2, 40874, Note_on_c, 0, 67, 47
2, 40884, Note_on_c, 0, 74, 0
2, 40887, Note_on_c, 0, 65, 0
2, 40887, Note_on_c, 0, 43, 54
2, 40892, Note_on_c, 0, 50, 0
2, 40895, Note_on_c, 0, 57, 0
2, 40900, Note_on_c, 0, 60, 0
2, 41031, Note_on_c, 0, 55, 46
2, 41033, Note_on_c, 0, 65, 48
2, 41036, Note_on_c, 0, 50, 44
2, 41036, Note_on_c, 0, 60, 41
2, 41059, Note_on_c, 0, 76, 81
2, 41088, Note_on_c, 0, 67, 0
2, 41103, Note_on_c, 0, 43, 0
2, 41151, Note_on_c, 0, 67, 50
2, 41157, Note_on_c, 0, 50, 0
2, 41159, Note_on_c, 0, 43, 54
2, 41160, Note_on_c, 0, 60, 0
2, 41162, Note_on_c, 0, 65, 0
2, 41254, Note_on_c, 0, 55, 0
2, 41289, Note_on_c, 0, 55, 44
2, 41292, Note_on_c, 0, 59, 47
2, 41317, Note_on_c, 0, 65, 47
2, 41335, Note_on_c, 0, 74, 60
2, 41345, Note_on_c, 0, 76, 0
2, 41391, Note_on_c, 0, 67, 0
2, 41429, Note_on_c, 0, 36, 48
2, 41431, Note_on_c, 0, 43, 0
2, 41437, Note_on_c, 0, 67, 48
2, 41443, Note_on_c, 0, 59, 0
2, 41448, Note_on_c, 0, 65, 0
2, 41514, Note_on_c, 0, 55, 0
2, 41529, Control_c, 0, 64, 127
2, 41552, Note_on_c, 0, 55, 48
2, 41560, Note_on_c, 0, 60, 47
2, 41572, Note_on_c, 0, 64, 46
2, 41582, Note_on_c, 0, 72, 52
2, 41584, Note_on_c, 0, 74, 0
2, 41587, Note_on_c, 0, 67, 0
2, 41601, Note_on_c, 0, 72, 0
2, 41604, Control_c, 0, 64, 0
2, 41614, Note_on_c, 0, 74, 51
2, 41636, Note_on_c, 0, 48, 48
2, 41639, Note_on_c, 0, 72, 66
2, 41641, Note_on_c, 0, 36, 0
2, 41697, Note_on_c, 0, 74, 0
2, 41730, Note_on_c, 0, 65, 53
2, 41735, Note_on_c, 0, 56, 63
2, 41737, Note_on_c, 0, 71, 53
2, 41745, Note_on_c, 0, 72, 0
2, 41751, Note_on_c, 0, 64, 0
2, 41753, Note_on_c, 0, 55, 0
2, 41818, Note_on_c, 0, 55, 53
2, 41818, Note_on_c, 0, 64, 48
2, 41828, Note_on_c, 0, 72, 53
2, 41832, Note_on_c, 0, 65, 0
2, 41832, Note_on_c, 0, 56, 0
2, 41837, Note_on_c, 0, 71, 0
2, 41845, Note_on_c, 0, 48, 0
2, 41908, Note_on_c, 0, 48, 50
2, 41971, Control_c, 0, 64, 127
2, 41996, Note_on_c, 0, 60, 0
2, 42003, Note_on_c, 0, 55, 0
2, 42029, Note_on_c, 0, 64, 0
2, 42032, Note_on_c, 0, 72, 0
2, 42042, Note_on_c, 0, 55, 48
2, 42042, Note_on_c, 0, 60, 52
2, 42062, Note_on_c, 0, 48, 0
2, 42064, Note_on_c, 0, 64, 49
2, 42081, Note_on_c, 0, 72, 50
2, 42096, Note_on_c, 0, 72, 0
2, 42106, Note_on_c, 0, 74, 54
2, 42119, Note_on_c, 0, 48, 52
2, 42120, Control_c, 0, 64, 0
2, 42122, Note_on_c, 0, 72, 64
2, 42173, Note_on_c, 0, 74, 0
2, 42224, Note_on_c, 0, 56, 61
2, 42229, Note_on_c, 0, 65, 49
2, 42237, Note_on_c, 0, 71, 53
2, 42247, Note_on_c, 0, 72, 0
2, 42252, Note_on_c, 0, 64, 0
2, 42254, Note_on_c, 0, 55, 0
2, 42312, Note_on_c, 0, 55, 46
2, 42317, Note_on_c, 0, 64, 45
2, 42323, Note_on_c, 0, 72, 50
2, 42328, Note_on_c, 0, 56, 0
2, 42336, Note_on_c, 0, 71, 0
2, 42341, Note_on_c, 0, 65, 0
2, 42346, Note_on_c, 0, 48, 0
2, 42402, Note_on_c, 0, 48, 42
2, 42480, Control_c, 0, 64, 127
2, 42509, Note_on_c, 0, 60, 0
2, 42511, Note_on_c, 0, 55, 0
2, 42533, Note_on_c, 0, 72, 0
2, 42541, Note_on_c, 0, 64, 0
2, 42547, Note_on_c, 0, 55, 48
2, 42556, Note_on_c, 0, 60, 46
2, 42571, Note_on_c, 0, 64, 46
2, 42573, Control_c, 0, 64, 0
2, 42573, Note_on_c, 0, 72, 55
2, 42610, Note_on_c, 0, 48, 0
2, 42669, Note_on_c, 0, 65, 73
2, 42673, Note_on_c, 0, 48, 47
2, 42691, Note_on_c, 0, 64, 0
2, 42698, Note_on_c, 0, 55, 0
2, 42807, Note_on_c, 0, 60, 0
2, 42810, Note_on_c, 0, 72, 0
2, 42813, Control_c, 0, 64, 127
2, 42817, Note_on_c, 0, 56, 51
2, 42847, Note_on_c, 0, 60, 50
2, 42873, Note_on_c, 0, 62, 51
2, 42879, Note_on_c, 0, 72, 58
2, 42932, Note_on_c, 0, 48, 0
2, 42936, Control_c, 0, 64, 0
2, 42947, Note_on_c, 0, 65, 0
2, 42985, Note_on_c, 0, 68, 76
2, 42993, Note_on_c, 0, 48, 52
2, 42998, Note_on_c, 0, 62, 0
2, 43063, Control_c, 0, 64, 127
2, 43131, Note_on_c, 0, 56, 0
2, 43142, Note_on_c, 0, 72, 0
2, 43182, Control_c, 0, 64, 0
2, 43192, Note_on_c, 0, 56, 51
2, 43204, Note_on_c, 0, 62, 53
2, 43214, Note_on_c, 0, 65, 59
2, 43224, Note_on_c, 0, 72, 57
2, 43230, Note_on_c, 0, 60, 0
2, 43236, Note_on_c, 0, 68, 0
2, 43299, Control_c, 0, 64, 127
2, 43309, Note_on_c, 0, 48, 0
2, 43368, Note_on_c, 0, 48, 46
2, 43382, Note_on_c, 0, 62, 0
2, 43384, Note_on_c, 0, 56, 0
2, 43387, Note_on_c, 0, 65, 0
2, 43389, Note_on_c, 0, 67, 62
2, 43393, Control_c, 0, 64, 0
2, 43632, Control_c, 0, 64, 127
2, 43643, Note_on_c, 0, 72, 0
2, 43649, Note_on_c, 0, 58, 44
2, 43667, Note_on_c, 0, 60, 47
2, 43692, Control_c, 0, 67, 0
2, 43702, Note_on_c, 0, 64, 43
2, 43716, Note_on_c, 0, 67, 0
2, 43718, Note_on_c, 0, 72, 64
2, 43753, Control_c, 0, 64, 0
2, 43877, Note_on_c, 0, 41, 58
2, 43879, Note_on_c, 0, 68, 53
2, 43890, Note_on_c, 0, 48, 0
2, 43893, Note_on_c, 0, 58, 0
2, 44018, Control_c, 0, 64, 127
2, 44049, Note_on_c, 0, 60, 0
2, 44052, Note_on_c, 0, 68, 0
2, 44060, Note_on_c, 0, 72, 0
2, 44065, Note_on_c, 0, 48, 48
2, 44068, Note_on_c, 0, 56, 50
2, 44086, Note_on_c, 0, 60, 48
2, 44103, Note_on_c, 0, 72, 74
2, 44109, Note_on_c, 0, 65, 52
2, 44112, Control_c, 0, 64, 0
2, 44117, Note_on_c, 0, 64, 0
2, 44163, Note_on_c, 0, 41, 0
2, 44219, Note_on_c, 0, 41, 56
2, 44307, Note_on_c, 0, 60, 0
2, 44313, Note_on_c, 0, 65, 0
2, 44328, Control_c, 0, 64, 127
2, 44345, Note_on_c, 0, 65, 50
2, 44351, Note_on_c, 0, 60, 47
2, 44361, Note_on_c, 0, 53, 46
2, 44364, Note_on_c, 0, 68, 55
2, 44378, Note_on_c, 0, 77, 56
2, 44409, Note_on_c, 0, 41, 0
2, 44414, Note_on_c, 0, 77, 0
2, 44429, Note_on_c, 0, 79, 57
2, 44432, Note_on_c, 0, 48, 0
2, 44434, Note_on_c, 0, 56, 0
2, 44437, Note_on_c, 0, 72, 0
2, 44440, Control_c, 0, 64, 0
2, 44442, Note_on_c, 0, 60, 0
2, 44449, Note_on_c, 0, 77, 63
2, 44470, Note_on_c, 0, 41, 49
2, 44480, Note_on_c, 0, 79, 0
2, 44522, Note_on_c, 0, 75, 58
2, 44552, Note_on_c, 0, 53, 0
2, 44570, Note_on_c, 0, 65, 0
2, 44596, Note_on_c, 0, 70, 60
2, 44596, Note_on_c, 0, 73, 57
2, 44604, Note_on_c, 0, 65, 60
2, 44606, Note_on_c, 0, 61, 45
2, 44609, Note_on_c, 0, 77, 0
2, 44609, Note_on_c, 0, 53, 42
2, 44649, Note_on_c, 0, 41, 0
2, 44651, Note_on_c, 0, 68, 0
2, 44686, Note_on_c, 0, 68, 56
2, 44688, Note_on_c, 0, 72, 58
2, 44698, Note_on_c, 0, 75, 0
2, 44698, Note_on_c, 0, 73, 0
2, 44701, Note_on_c, 0, 70, 0
2, 44701, Note_on_c, 0, 61, 0
2, 44704, Note_on_c, 0, 41, 49
2, 44721, Note_on_c, 0, 65, 0
2, 44727, Note_on_c, 0, 68, 0
2, 44757, Note_on_c, 0, 65, 59
2, 44764, Note_on_c, 0, 68, 60
2, 44775, Note_on_c, 0, 53, 0
2, 44818, Note_on_c, 0, 60, 44
2, 44831, Note_on_c, 0, 53, 44
2, 44831, Note_on_c, 0, 70, 60
2, 44833, Note_on_c, 0, 67, 60
2, 44848, Note_on_c, 0, 68, 0
2, 44853, Control_c, 0, 64, 127
2, 44873, Note_on_c, 0, 53, 0
2, 44878, Note_on_c, 0, 41, 0
2, 44883, Note_on_c, 0, 72, 0
2, 44921, Control_c, 0, 64, 0
2, 44923, Note_on_c, 0, 68, 60
2, 44926, Note_on_c, 0, 72, 55
2, 44930, Note_on_c, 0, 53, 55
2, 44935, Note_on_c, 0, 67, 0
2, 44938, Note_on_c, 0, 70, 0
2, 44938, Note_on_c, 0, 41, 55
2, 45008, Note_on_c, 0, 72, 0
2, 45030, Control_c, 0, 64, 127
2, 45060, Note_on_c, 0, 68, 0
2, 45083, Note_on_c, 0, 64, 50
2, 45085, Note_on_c, 0, 72, 63
2, 45091, Note_on_c, 0, 40, 55
2, 45091, Note_on_c, 0, 52, 56
2, 45096, Note_on_c, 0, 41, 0
2, 45099, Note_on_c, 0, 68, 43
2, 45101, Control_c, 0, 64, 0
2, 45104, Note_on_c, 0, 65, 0
2, 45106, Note_on_c, 0, 60, 0
2, 45106, Note_on_c, 0, 53, 0
2, 45177, Note_on_c, 0, 39, 49
2, 45190, Note_on_c, 0, 40, 0
2, 45275, Control_c, 0, 64, 127
2, 45292, Note_on_c, 0, 72, 0
2, 45295, Note_on_c, 0, 68, 0
2, 45325, Note_on_c, 0, 60, 42
2, 45327, Control_c, 0, 64, 0
2, 45327, Note_on_c, 0, 63, 48
2, 45329, Note_on_c, 0, 51, 46
2, 45331, Note_on_c, 0, 72, 65
2, 45341, Note_on_c, 0, 52, 0
2, 45341, Note_on_c, 0, 68, 46
2, 45343, Note_on_c, 0, 64, 0
2, 45358, Note_on_c, 0, 39, 0
2, 45418, Note_on_c, 0, 39, 44
2, 45446, Control_c, 0, 64, 127
2, 45471, Note_on_c, 0, 72, 0
2, 45480, Note_on_c, 0, 51, 0
2, 45499, Note_on_c, 0, 63, 0
2, 45499, Note_on_c, 0, 60, 0
2, 45499, Control_c, 0, 64, 0
2, 45508, Note_on_c, 0, 68, 0
2, 45516, Note_on_c, 0, 72, 57
2, 45536, Note_on_c, 0, 60, 41
2, 45536, Note_on_c, 0, 63, 41
2, 45538, Note_on_c, 0, 51, 45
2, 45543, Note_on_c, 0, 73, 57
2, 45545, Note_on_c, 0, 68, 54
2, 45550, Note_on_c, 0, 72, 0
2, 45573, Note_on_c, 0, 39, 0
2, 45630, Note_on_c, 0, 39, 48
2, 45630, Note_on_c, 0, 75, 62
2, 45643, Note_on_c, 0, 73, 0
2, 45678, Control_c, 0, 64, 127
2, 45680, Note_on_c, 0, 51, 0
2, 45696, Note_on_c, 0, 60, 0
2, 45698, Note_on_c, 0, 68, 0
2, 45698, Note_on_c, 0, 63, 0
2, 45728, Note_on_c, 0, 60, 43
2, 45728, Note_on_c, 0, 68, 53
2, 45733, Note_on_c, 0, 51, 46
2, 45735, Note_on_c, 0, 63, 47
2, 45750, Note_on_c, 0, 51, 0
2, 45772, Note_on_c, 0, 58, 47
2, 45778, Note_on_c, 0, 67, 60
2, 45778, Note_on_c, 0, 70, 56
2, 45783, Note_on_c, 0, 51, 47
2, 45785, Note_on_c, 0, 61, 46
2, 45790, Note_on_c, 0, 68, 0
2, 45797, Note_on_c, 0, 60, 0
2, 45797, Note_on_c, 0, 63, 0
2, 45822, Note_on_c, 0, 39, 0
2, 45824, Note_on_c, 0, 51, 0
2, 45826, Control_c, 0, 64, 0
2, 45829, Note_on_c, 0, 67, 0
2, 45829, Note_on_c, 0, 75, 0
2, 45831, Note_on_c, 0, 58, 0
2, 45834, Note_on_c, 0, 61, 0
2, 45834, Note_on_c, 0, 70, 0
2, 45874, Note_on_c, 0, 44, 48
2, 45874, Note_on_c, 0, 56, 48
2, 45874, Note_on_c, 0, 60, 46
2, 45876, Note_on_c, 0, 68, 57
2, 45878, Note_on_c, 0, 72, 54
2, 45984, Control_c, 0, 64, 127
2, 46002, Note_on_c, 0, 72, 0
2, 46016, Note_on_c, 0, 60, 0
2, 46036, Note_on_c, 0, 55, 66
2, 46044, Note_on_c, 0, 44, 0
2, 46044, Note_on_c, 0, 56, 0
2, 46050, Note_on_c, 0, 68, 0
2, 46052, Control_c, 0, 64, 0
2, 46052, Note_on_c, 0, 72, 68
2, 46056, Note_on_c, 0, 43, 46
2, 46059, Note_on_c, 0, 60, 49
2, 46059, Note_on_c, 0, 64, 50
2, 46061, Note_on_c, 0, 70, 44
2, 46142, Note_on_c, 0, 43, 0
2, 46150, Note_on_c, 0, 53, 49
2, 46152, Note_on_c, 0, 41, 49
2, 46167, Note_on_c, 0, 55, 0
2, 46246, Control_c, 0, 64, 127
2, 46258, Note_on_c, 0, 60, 0
2, 46258, Note_on_c, 0, 72, 0
2, 46286, Note_on_c, 0, 60, 44
2, 46291, Note_on_c, 0, 48, 46
2, 46291, Note_on_c, 0, 56, 45
2, 46300, Note_on_c, 0, 72, 65
2, 46311, Note_on_c, 0, 65, 48
2, 46313, Note_on_c, 0, 64, 0
2, 46313, Note_on_c, 0, 68, 46
2, 46315, Note_on_c, 0, 70, 0
2, 46333, Note_on_c, 0, 41, 0
2, 46333, Control_c, 0, 64, 0
2, 46389, Note_on_c, 0, 41, 47
2, 46454, Note_on_c, 0, 53, 0
2, 46457, Note_on_c, 0, 60, 0
2, 46463, Note_on_c, 0, 68, 0
2, 46463, Note_on_c, 0, 65, 0
2, 46490, Control_c, 0, 64, 127
2, 46505, Note_on_c, 0, 60, 47
2, 46510, Note_on_c, 0, 65, 54
2, 46514, Note_on_c, 0, 53, 41
2, 46517, Note_on_c, 0, 68, 55
2, 46517, Note_on_c, 0, 77, 55
2, 46530, Note_on_c, 0, 41, 0
2, 46560, Note_on_c, 0, 77, 0
2, 46577, Control_c, 0, 64, 0
2, 46577, Note_on_c, 0, 79, 60
2, 46583, Note_on_c, 0, 72, 0
2, 46588, Note_on_c, 0, 41, 46
2, 46599, Note_on_c, 0, 48, 0
2, 46601, Note_on_c, 0, 77, 62
2, 46603, Note_on_c, 0, 56, 0
2, 46608, Note_on_c, 0, 60, 0
2, 46611, Note_on_c, 0, 79, 0
2, 46655, Note_on_c, 0, 75, 60
2, 46657, Note_on_c, 0, 53, 0
2, 46667, Note_on_c, 0, 77, 0
2, 46681, Note_on_c, 0, 65, 0
2, 46711, Note_on_c, 0, 61, 43
2, 46716, Note_on_c, 0, 53, 41
2, 46719, Note_on_c, 0, 65, 58
2, 46719, Note_on_c, 0, 70, 56
2, 46719, Note_on_c, 0, 73, 54
2, 46729, Note_on_c, 0, 75, 0
2, 46732, Note_on_c, 0, 68, 0
2, 46755, Note_on_c, 0, 65, 0
2, 46760, Note_on_c, 0, 41, 0
2, 46768, Note_on_c, 0, 61, 0
2, 46771, Note_on_c, 0, 53, 0
2, 46793, Note_on_c, 0, 65, 53
2, 46793, Note_on_c, 0, 72, 56
2, 46798, Note_on_c, 0, 60, 44
2, 46800, Note_on_c, 0, 68, 55
2, 46804, Note_on_c, 0, 70, 0
2, 46804, Note_on_c, 0, 73, 0
2, 46804, Note_on_c, 0, 53, 41
2, 46810, Note_on_c, 0, 72, 0
2, 46823, Note_on_c, 0, 60, 0
2, 46823, Note_on_c, 0, 65, 0
2, 46823, Note_on_c, 0, 68, 0
2, 46823, Note_on_c, 0, 53, 0
2, 46863, Note_on_c, 0, 72, 59
2, 46866, Note_on_c, 0, 51, 47
2, 46866, Note_on_c, 0, 67, 59
2, 46878, Note_on_c, 0, 60, 45
2, 46880, Note_on_c, 0, 51, 0
2, 46882, Note_on_c, 0, 72, 0
2, 46882, Note_on_c, 0, 67, 0
2, 46933, Note_on_c, 0, 53, 60
2, 46933, Note_on_c, 0, 65, 60
2, 46936, Note_on_c, 0, 68, 55
2, 46936, Note_on_c, 0, 74, 58
2, 46950, Note_on_c, 0, 74, 0
2, 46952, Note_on_c, 0, 53, 0
2, 46958, Note_on_c, 0, 68, 0
2, 46992, Note_on_c, 0, 55, 44
2, 47000, Note_on_c, 0, 67, 56
2, 47006, Note_on_c, 0, 63, 46
2, 47009, Note_on_c, 0, 60, 0
2, 47012, Note_on_c, 0, 65, 0
2, 47022, Note_on_c, 0, 55, 0
2, 47053, Note_on_c, 0, 56, 66
2, 47073, Note_on_c, 0, 56, 0
2, 47106, Note_on_c, 0, 67, 0
2, 47126, Note_on_c, 0, 63, 0
2, 47136, Note_on_c, 0, 55, 47
2, 47138, Control_c, 0, 64, 127
2, 47151, Note_on_c, 0, 67, 59
2, 47157, Note_on_c, 0, 60, 44
2, 47157, Note_on_c, 0, 63, 42
2, 47182, Note_on_c, 0, 55, 0
2, 47214, Note_on_c, 0, 51, 66
2, 47225, Control_c, 0, 64, 0
2, 47239, Note_on_c, 0, 51, 0
2, 47285, Note_on_c, 0, 50, 62
2, 47311, Note_on_c, 0, 50, 0
2, 47321, Note_on_c, 0, 67, 0
2, 47321, Note_on_c, 0, 63, 0
2, 47327, Note_on_c, 0, 60, 0
2, 47377, Note_on_c, 0, 63, 42
2, 47379, Note_on_c, 0, 48, 41
2, 47389, Note_on_c, 0, 60, 45
2, 47392, Note_on_c, 0, 67, 60
2, 47503, Note_on_c, 0, 62, 59
2, 47506, Note_on_c, 0, 43, 59
2, 47519, Note_on_c, 0, 63, 0
2, 47520, Note_on_c, 0, 48, 0
2, 47589, Control_c, 0, 67, 127
2, 47646, Control_c, 0, 64, 127
2, 47648, Note_on_c, 0, 67, 0
2, 47679, Note_on_c, 0, 62, 0
2, 47709, Note_on_c, 0, 59, 42
2, 47724, Note_on_c, 0, 62, 43
2, 47729, Note_on_c, 0, 60, 0
2, 47729, Note_on_c, 0, 67, 60
2, 47741, Control_c, 0, 64, 0
2, 47839, Control_c, 0, 67, 0
2, 47847, Note_on_c, 0, 60, 45
2, 47855, Note_on_c, 0, 59, 0
2, 47859, Note_on_c, 0, 36, 47
2, 47861, Note_on_c, 0, 43, 0
2, 47861, Note_on_c, 0, 64, 43
2, 47863, Note_on_c, 0, 62, 0
2, 48004, Note_on_c, 0, 67, 0
2, 48040, Note_on_c, 0, 60, 0
2, 48060, Control_c, 0, 64, 127
2, 48065, Note_on_c, 0, 79, 55
2, 48067, Note_on_c, 0, 58, 46
2, 48074, Note_on_c, 0, 36, 0
2, 48077, Note_on_c, 0, 60, 47
2, 48077, Note_on_c, 0, 70, 43
2, 48080, Note_on_c, 0, 72, 46
2, 48082, Note_on_c, 0, 67, 47
2, 48085, Note_on_c, 0, 64, 0
2, 48175, Note_on_c, 0, 48, 55
2, 48256, Control_c, 0, 64, 0
2, 48313, Note_on_c, 0, 60, 0
2, 48313, Note_on_c, 0, 72, 0
2, 48338, Note_on_c, 0, 60, 46
2, 48338, Note_on_c, 0, 77, 53
2, 48341, Note_on_c, 0, 56, 42
2, 48349, Note_on_c, 0, 65, 48
2, 48349, Note_on_c, 0, 68, 47
2, 48351, Note_on_c, 0, 67, 0
2, 48351, Note_on_c, 0, 79, 0
2, 48354, Note_on_c, 0, 58, 0
2, 48356, Note_on_c, 0, 72, 48
2, 48368, Note_on_c, 0, 70, 0
2, 48371, Note_on_c, 0, 48, 0
2, 48433, Note_on_c, 0, 48, 52
2, 48520, Note_on_c, 0, 55, 44
2, 48532, Note_on_c, 0, 56, 0
2, 48542, Note_on_c, 0, 58, 48
2, 48545, Control_c, 0, 64, 127
2, 48554, Note_on_c, 0, 63, 41
2, 48573, Note_on_c, 0, 65, 0
2, 48576, Note_on_c, 0, 77, 0
2, 48577, Note_on_c, 0, 60, 0
2, 48580, Note_on_c, 0, 48, 0
2, 48580, Note_on_c, 0, 75, 57
2, 48582, Note_on_c, 0, 67, 58
2, 48582, Note_on_c, 0, 70, 55
2, 48590, Note_on_c, 0, 72, 0
2, 48596, Note_on_c, 0, 75, 0
2, 48598, Note_on_c, 0, 68, 0
2, 48613, Note_on_c, 0, 77, 58
2, 48619, Control_c, 0, 64, 0
2, 48634, Note_on_c, 0, 48, 47
2, 48634, Note_on_c, 0, 75, 62
2, 48684, Note_on_c, 0, 77, 0
2, 48699, Note_on_c, 0, 68, 42
2, 48704, Note_on_c, 0, 67, 0
2, 48717, Note_on_c, 0, 70, 0
2, 48763, Note_on_c, 0, 73, 48
2, 48768, Note_on_c, 0, 65, 48
2, 48769, Note_on_c, 0, 61, 44
2, 48772, Note_on_c, 0, 75, 0
2, 48775, Note_on_c, 0, 53, 41
2, 48775, Note_on_c, 0, 56, 47
2, 48780, Note_on_c, 0, 48, 0
2, 48783, Note_on_c, 0, 63, 0
2, 48785, Note_on_c, 0, 58, 0
2, 48795, Note_on_c, 0, 55, 0
2, 48838, Note_on_c, 0, 64, 50
2, 48840, Note_on_c, 0, 48, 52
2, 48845, Note_on_c, 0, 72, 46
2, 48851, Note_on_c, 0, 53, 0
2, 48851, Note_on_c, 0, 56, 0
2, 48853, Note_on_c, 0, 73, 0
2, 48853, Note_on_c, 0, 61, 0
2, 48856, Note_on_c, 0, 65, 0
2, 48859, Note_on_c, 0, 68, 0
2, 48958, Note_on_c, 0, 72, 0
2, 48990, Note_on_c, 0, 58, 45
2, 48996, Note_on_c, 0, 60, 46
2, 48999, Note_on_c, 0, 79, 57
2, 49011, Note_on_c, 0, 67, 50
2, 49011, Note_on_c, 0, 70, 47
2, 49011, Note_on_c, 0, 72, 47
2, 49013, Note_on_c, 0, 64, 0
2, 49043, Note_on_c, 0, 48, 0
2, 49099, Note_on_c, 0, 48, 56
2, 49190, Note_on_c, 0, 72, 0
2, 49202, Note_on_c, 0, 60, 0
2, 49235, Note_on_c, 0, 60, 45
2, 49235, Note_on_c, 0, 77, 64
2, 49238, Note_on_c, 0, 56, 44
2, 49241, Note_on_c, 0, 67, 0
2, 49243, Note_on_c, 0, 65, 44
2, 49243, Note_on_c, 0, 68, 43
2, 49245, Note_on_c, 0, 70, 0
2, 49245, Note_on_c, 0, 79, 0
2, 49247, Note_on_c, 0, 58, 0
2, 49248, Note_on_c, 0, 72, 46
2, 49266, Note_on_c, 0, 48, 0
2, 49324, Note_on_c, 0, 48, 53
2, 49439, Control_c, 0, 64, 127
2, 49453, Note_on_c, 0, 63, 47
2, 49459, Note_on_c, 0, 70, 52
2, 49461, Note_on_c, 0, 55, 46
2, 49463, Note_on_c, 0, 77, 0
2, 49463, Note_on_c, 0, 75, 49
2, 49465, Note_on_c, 0, 58, 48
2, 49465, Note_on_c, 0, 67, 51
2, 49470, Note_on_c, 0, 65, 0
2, 49472, Note_on_c, 0, 56, 0
2, 49477, Note_on_c, 0, 72, 0
2, 49479, Note_on_c, 0, 68, 0
2, 49482, Note_on_c, 0, 48, 0
2, 49487, Note_on_c, 0, 60, 0
2, 49502, Note_on_c, 0, 75, 0
2, 49507, Note_on_c, 0, 77, 52
2, 49536, Control_c, 0, 64, 0
2, 49541, Note_on_c, 0, 75, 60
2, 49543, Note_on_c, 0, 48, 50
2, 49581, Note_on_c, 0, 77, 0
2, 49601, Note_on_c, 0, 68, 62
2, 49613, Note_on_c, 0, 67, 0
2, 49641, Note_on_c, 0, 70, 0
2, 49676, Note_on_c, 0, 61, 52
2, 49676, Note_on_c, 0, 65, 60
2, 49680, Note_on_c, 0, 53, 47
2, 49683, Note_on_c, 0, 56, 51
2, 49683, Note_on_c, 0, 73, 60
2, 49693, Note_on_c, 0, 75, 0
2, 49695, Note_on_c, 0, 63, 0
2, 49698, Note_on_c, 0, 58, 0
2, 49710, Note_on_c, 0, 55, 0
2, 49712, Note_on_c, 0, 48, 0
2, 49754, Note_on_c, 0, 73, 0
2, 49757, Note_on_c, 0, 65, 0
2, 49760, Note_on_c, 0, 64, 47
2, 49762, Note_on_c, 0, 68, 0
2, 49772, Note_on_c, 0, 48, 47
2, 49772, Note_on_c, 0, 72, 66
2, 49779, Note_on_c, 0, 53, 0
2, 49779, Note_on_c, 0, 56, 0
2, 49784, Note_on_c, 0, 61, 0
2, 49885, Note_on_c, 0, 64, 0
2, 49888, Note_on_c, 0, 72, 0
2, 49919, Note_on_c, 0, 60, 68
2, 49923, Note_on_c, 0, 84, 70
2, 49933, Note_on_c, 0, 52, 66
2, 49935, Note_on_c, 0, 72, 66
2, 49952, Note_on_c, 0, 48, 0
2, 50006, Note_on_c, 0, 48, 66
2, 50039, Control_c, 0, 64, 127
2, 50094, Note_on_c, 0, 84, 0
2, 50119, Note_on_c, 0, 72, 0
2, 50132, Control_c, 0, 64, 0
2, 50134, Note_on_c, 0, 60, 0
2, 50152, Note_on_c, 0, 62, 70
2, 50158, Note_on_c, 0, 52, 0
2, 50158, Note_on_c, 0, 84, 67
2, 50165, Note_on_c, 0, 53, 72
2, 50165, Note_on_c, 0, 60, 73
2, 50167, Note_on_c, 0, 72, 42
2, 50175, Note_on_c, 0, 74, 60
2, 50184, Note_on_c, 0, 48, 0
2, 50243, Note_on_c, 0, 48, 73
2, 50278, Control_c, 0, 64, 127
2, 50328, Note_on_c, 0, 84, 0
2, 50345, Note_on_c, 0, 72, 0
2, 50350, Control_c, 0, 64, 0
2, 50365, Note_on_c, 0, 60, 0
2, 50377, Note_on_c, 0, 65, 75
2, 50387, Note_on_c, 0, 84, 70
2, 50389, Note_on_c, 0, 56, 68
2, 50389, Note_on_c, 0, 60, 75
2, 50392, Note_on_c, 0, 74, 0
2, 50397, Note_on_c, 0, 72, 66
2, 50399, Note_on_c, 0, 77, 67
2, 50404, Note_on_c, 0, 62, 0
2, 50434, Note_on_c, 0, 48, 0
2, 50485, Note_on_c, 0, 48, 69
2, 50520, Control_c, 0, 64, 127
2, 50558, Note_on_c, 0, 84, 0
2, 50578, Note_on_c, 0, 72, 0
2, 50595, Control_c, 0, 64, 0
2, 50601, Note_on_c, 0, 60, 0
2, 50623, Note_on_c, 0, 64, 75
2, 50623, Note_on_c, 0, 84, 75
2, 50625, Note_on_c, 0, 77, 0
2, 50630, Note_on_c, 0, 56, 0
2, 50630, Note_on_c, 0, 53, 0
2, 50636, Note_on_c, 0, 55, 77
2, 50636, Note_on_c, 0, 60, 71
2, 50638, Note_on_c, 0, 72, 67
2, 50638, Note_on_c, 0, 76, 70
2, 50640, Note_on_c, 0, 65, 0
2, 50667, Note_on_c, 0, 48, 0
2, 50725, Note_on_c, 0, 48, 72
2, 50731, Control_c, 0, 64, 127
2, 50788, Note_on_c, 0, 84, 0
2, 50823, Note_on_c, 0, 72, 0
2, 50837, Note_on_c, 0, 60, 0
2, 50837, Control_c, 0, 64, 0
2, 50860, Note_on_c, 0, 62, 76
2, 50865, Note_on_c, 0, 84, 77
2, 50873, Note_on_c, 0, 53, 80
2, 50876, Note_on_c, 0, 60, 80
2, 50878, Note_on_c, 0, 64, 0
2, 50878, Note_on_c, 0, 72, 68
2, 50880, Note_on_c, 0, 74, 73
2, 50884, Note_on_c, 0, 76, 0
2, 50887, Note_on_c, 0, 55, 0
2, 50917, Note_on_c, 0, 48, 0
2, 50975, Note_on_c, 0, 48, 79
2, 51048, Control_c, 0, 64, 127
2, 51077, Note_on_c, 0, 84, 0
2, 51092, Note_on_c, 0, 72, 0
2, 51099, Note_on_c, 0, 60, 0
2, 51117, Control_c, 0, 64, 0
2, 51135, Note_on_c, 0, 64, 78
2, 51141, Note_on_c, 0, 55, 79
2, 51145, Note_on_c, 0, 60, 78
2, 51145, Note_on_c, 0, 84, 81
2, 51147, Note_on_c, 0, 53, 0
2, 51150, Note_on_c, 0, 62, 0
2, 51158, Note_on_c, 0, 72, 73
2, 51160, Note_on_c, 0, 74, 0
2, 51162, Note_on_c, 0, 76, 76
2, 51188, Note_on_c, 0, 48, 0
2, 51241, Note_on_c, 0, 48, 93
2, 51319, Control_c, 0, 64, 127
2, 51365, Note_on_c, 0, 60, 0
2, 51375, Note_on_c, 0, 72, 0
2, 51378, Note_on_c, 0, 84, 0
2, 51387, Control_c, 0, 64, 0
2, 51403, Note_on_c, 0, 68, 89
2, 51412, Note_on_c, 0, 60, 93
2, 51415, Note_on_c, 0, 58, 94
2, 51417, Note_on_c, 0, 72, 75
2, 51420, Note_on_c, 0, 84, 80
2, 51423, Note_on_c, 0, 80, 77
2, 51494, Note_on_c, 0, 48, 0
2, 51550, Note_on_c, 0, 76, 0
2, 51554, Note_on_c, 0, 48, 93
2, 51565, Note_on_c, 0, 36, 87
2, 51568, Note_on_c, 0, 58, 0
2, 51578, Note_on_c, 0, 64, 0
2, 51580, Note_on_c, 0, 55, 0
2, 51709, Note_on_c, 0, 72, 0
2, 51711, Note_on_c, 0, 60, 0
2, 51716, Note_on_c, 0, 84, 0
2, 51758, Note_on_c, 0, 55, 83
2, 51758, Note_on_c, 0, 60, 83
2, 51761, Note_on_c, 0, 67, 97
2, 51763, Note_on_c, 0, 80, 0
2, 51763, Note_on_c, 0, 58, 86
2, 51768, Note_on_c, 0, 68, 0
2, 51770, Note_on_c, 0, 72, 85
2, 51770, Note_on_c, 0, 79, 87
2, 51770, Note_on_c, 0, 84, 84
2, 51791, Control_c, 0, 64, 127
2, 51854, Control_c, 0, 64, 0
2, 51860, Note_on_c, 0, 79, 0
2, 51862, Note_on_c, 0, 72, 0
2, 51872, Note_on_c, 0, 84, 0
2, 51883, Note_on_c, 0, 41, 97
2, 51890, Note_on_c, 0, 48, 0
2, 51890, Note_on_c, 0, 29, 96
2, 51892, Note_on_c, 0, 36, 0
2, 51892, Note_on_c, 0, 80, 85
2, 51897, Note_on_c, 0, 58, 0
2, 51902, Note_on_c, 0, 72, 90
2, 51902, Note_on_c, 0, 79, 92
2, 51908, Note_on_c, 0, 84, 95
2, 51911, Note_on_c, 0, 67, 0
2, 51911, Note_on_c, 0, 55, 0
2, 51912, Note_on_c, 0, 80, 0
2, 51999, Control_c, 0, 64, 127
2, 52033, Note_on_c, 0, 60, 0
2, 52035, Note_on_c, 0, 72, 0
2, 52043, Note_on_c, 0, 84, 0
2, 52057, Control_c, 0, 64, 0
2, 52073, Note_on_c, 0, 56, 90
2, 52075, Note_on_c, 0, 72, 98
2, 52077, Note_on_c, 0, 65, 102
2, 52080, Note_on_c, 0, 53, 92
2, 52080, Note_on_c, 0, 60, 89
2, 52080, Note_on_c, 0, 77, 102
2, 52081, Note_on_c, 0, 84, 98
2, 52086, Note_on_c, 0, 79, 0
2, 52125, Note_on_c, 0, 41, 0
2, 52130, Note_on_c, 0, 53, 0
2, 52180, Note_on_c, 0, 41, 102
2, 52182, Note_on_c, 0, 53, 105
2, 52233, Control_c, 0, 64, 127
2, 52268, Note_on_c, 0, 53, 0
2, 52268, Note_on_c, 0, 56, 0
2, 52280, Note_on_c, 0, 60, 0
2, 52286, Note_on_c, 0, 77, 0
2, 52296, Note_on_c, 0, 65, 0
2, 52298, Control_c, 0, 64, 0
2, 52317, Note_on_c, 0, 65, 104
2, 52319, Note_on_c, 0, 53, 96
2, 52319, Note_on_c, 0, 56, 93
2, 52319, Note_on_c, 0, 77, 105
2, 52323, Note_on_c, 0, 60, 98
2, 52333, Note_on_c, 0, 89, 102
2, 52371, Note_on_c, 0, 41, 0
2, 52384, Note_on_c, 0, 53, 0
2, 52392, Note_on_c, 0, 89, 0
2, 52392, Note_on_c, 0, 77, 0
2, 52410, Note_on_c, 0, 79, 105
2, 52412, Note_on_c, 0, 91, 104
2, 52421, Note_on_c, 0, 84, 0
2, 52431, Note_on_c, 0, 41, 102
2, 52433, Note_on_c, 0, 89, 114
2, 52436, Note_on_c, 0, 53, 99
2, 52436, Note_on_c, 0, 77, 113
2, 52440, Note_on_c, 0, 72, 0
2, 52442, Note_on_c, 0, 29, 0
2, 52442, Control_c, 0, 64, 127
2, 52447, Note_on_c, 0, 56, 0
2, 52453, Note_on_c, 0, 60, 0
2, 52467, Note_on_c, 0, 91, 0
2, 52470, Note_on_c, 0, 79, 0
2, 52511, Note_on_c, 0, 75, 111
2, 52515, Note_on_c, 0, 87, 111
2, 52523, Note_on_c, 0, 89, 0
2, 52525, Note_on_c, 0, 77, 0
2, 52535, Control_c, 0, 64, 0
2, 52547, Note_on_c, 0, 53, 0
2, 52561, Note_on_c, 0, 65, 0
2, 52579, Note_on_c, 0, 53, 101
2, 52582, Note_on_c, 0, 58, 101
2, 52584, Note_on_c, 0, 61, 98
2, 52584, Note_on_c, 0, 65, 110
2, 52587, Note_on_c, 0, 73, 107
2, 52590, Note_on_c, 0, 82, 108
2, 52593, Note_on_c, 0, 85, 113
2, 52601, Note_on_c, 0, 87, 0
2, 52603, Note_on_c, 0, 75, 0
2, 52618, Note_on_c, 0, 41, 0
2, 52624, Note_on_c, 0, 53, 0
2, 52670, Note_on_c, 0, 72, 109
2, 52670, Note_on_c, 0, 84, 111
2, 52675, Note_on_c, 0, 80, 107
2, 52678, Note_on_c, 0, 53, 99
2, 52680, Note_on_c, 0, 41, 93
2, 52681, Note_on_c, 0, 73, 0
2, 52681, Note_on_c, 0, 82, 0
2, 52683, Control_c, 0, 64, 127
2, 52686, Note_on_c, 0, 85, 0
2, 52692, Note_on_c, 0, 58, 0
2, 52697, Note_on_c, 0, 61, 0
2, 52709, Note_on_c, 0, 80, 0
2, 52744, Note_on_c, 0, 68, 109
2, 52747, Note_on_c, 0, 77, 105
2, 52752, Note_on_c, 0, 80, 105
2, 52774, Control_c, 0, 64, 0
2, 52792, Note_on_c, 0, 53, 0
2, 52794, Note_on_c, 0, 41, 0
2, 52803, Note_on_c, 0, 65, 0
2, 52806, Note_on_c, 0, 48, 95
2, 52808, Note_on_c, 0, 60, 93
2, 52808, Note_on_c, 0, 70, 110
2, 52816, Note_on_c, 0, 79, 107
2, 52816, Note_on_c, 0, 82, 105
2, 52821, Note_on_c, 0, 72, 0
2, 52826, Note_on_c, 0, 68, 0
2, 52826, Note_on_c, 0, 80, 0
2, 52826, Note_on_c, 0, 77, 0
2, 52829, Note_on_c, 0, 84, 0
2, 52895, Note_on_c, 0, 41, 98
2, 52899, Note_on_c, 0, 72, 106
2, 52899, Note_on_c, 0, 80, 107
2, 52899, Note_on_c, 0, 84, 104
2, 52901, Note_on_c, 0, 53, 96
2, 52909, Note_on_c, 0, 48, 0
2, 52911, Note_on_c, 0, 82, 0
2, 52911, Note_on_c, 0, 79, 0
2, 52913, Note_on_c, 0, 70, 0
2, 52919, Note_on_c, 0, 60, 0
2, 52942, Control_c, 0, 64, 127
2, 53002, Control_c, 0, 64, 0
2, 53017, Note_on_c, 0, 84, 0
2, 53020, Note_on_c, 0, 72, 0
2, 53020, Note_on_c, 0, 80, 0
2, 53051, Note_on_c, 0, 84, 112
2, 53057, Note_on_c, 0, 40, 93
2, 53059, Note_on_c, 0, 52, 94
2, 53059, Note_on_c, 0, 72, 108
2, 53061, Note_on_c, 0, 80, 111
2, 53064, Note_on_c, 0, 53, 0
2, 53065, Note_on_c, 0, 41, 0
2, 53159, Note_on_c, 0, 51, 97
2, 53166, Note_on_c, 0, 52, 0
2, 53166, Note_on_c, 0, 39, 97
2, 53171, Note_on_c, 0, 40, 0
2, 53206, Control_c, 0, 64, 127
2, 53252, Note_on_c, 0, 51, 0
2, 53259, Note_on_c, 0, 72, 0
2, 53259, Note_on_c, 0, 80, 0
2, 53262, Note_on_c, 0, 84, 0
2, 53282, Control_c, 0, 64, 0
2, 53300, Note_on_c, 0, 56, 96
2, 53303, Note_on_c, 0, 60, 97
2, 53303, Note_on_c, 0, 63, 93
2, 53304, Note_on_c, 0, 72, 109
2, 53309, Note_on_c, 0, 51, 96
2, 53309, Note_on_c, 0, 80, 112
2, 53309, Note_on_c, 0, 84, 113
2, 53340, Note_on_c, 0, 39, 0
2, 53342, Note_on_c, 0, 51, 0
2, 53404, Note_on_c, 0, 39, 100
2, 53404, Note_on_c, 0, 51, 105
2, 53414, Control_c, 0, 64, 127
2, 53452, Note_on_c, 0, 72, 0
2, 53452, Note_on_c, 0, 80, 0
2, 53455, Note_on_c, 0, 84, 0
2, 53461, Control_c, 0, 64, 0
2, 53478, Note_on_c, 0, 51, 0
2, 53488, Note_on_c, 0, 65, 95
2, 53490, Note_on_c, 0, 53, 99
2, 53495, Note_on_c, 0, 84, 98
2, 53497, Note_on_c, 0, 72, 97
2, 53497, Note_on_c, 0, 80, 95
2, 53503, Note_on_c, 0, 56, 0
2, 53506, Note_on_c, 0, 53, 0
2, 53506, Note_on_c, 0, 63, 0
2, 53511, Note_on_c, 0, 80, 0
2, 53511, Note_on_c, 0, 60, 0
2, 53531, Note_on_c, 0, 60, 95
2, 53533, Note_on_c, 0, 63, 92
2, 53533, Note_on_c, 0, 85, 93
2, 53535, Note_on_c, 0, 51, 94
2, 53535, Note_on_c, 0, 56, 95
2, 53537, Note_on_c, 0, 73, 99
2, 53537, Note_on_c, 0, 80, 95
2, 53542, Note_on_c, 0, 84, 0
2, 53544, Note_on_c, 0, 72, 0
2, 53549, Note_on_c, 0, 65, 0
2, 53569, Note_on_c, 0, 51, 0
2, 53575, Note_on_c, 0, 39, 0
2, 53598, Note_on_c, 0, 80, 0
2, 53626, Note_on_c, 0, 51, 106
2, 53629, Note_on_c, 0, 75, 107
2, 53631, Note_on_c, 0, 87, 112
2, 53633, Note_on_c, 0, 80, 108
2, 53635, Control_c, 0, 64, 127
2, 53635, Note_on_c, 0, 39, 104
2, 53640, Note_on_c, 0, 73, 0
2, 53643, Note_on_c, 0, 85, 0
2, 53678, Note_on_c, 0, 63, 0
2, 53681, Note_on_c, 0, 60, 0
2, 53688, Note_on_c, 0, 75, 0
2, 53694, Note_on_c, 0, 80, 0
2, 53697, Note_on_c, 0, 51, 0
2, 53723, Note_on_c, 0, 60, 96
2, 53725, Control_c, 0, 64, 0
2, 53727, Note_on_c, 0, 63, 101
2, 53730, Note_on_c, 0, 80, 105
2, 53732, Note_on_c, 0, 51, 101
2, 53732, Note_on_c, 0, 68, 101
2, 53732, Note_on_c, 0, 75, 101
2, 53739, Note_on_c, 0, 56, 0
2, 53741, Note_on_c, 0, 87, 0
2, 53743, Note_on_c, 0, 75, 0
2, 53743, Note_on_c, 0, 63, 0
2, 53745, Note_on_c, 0, 51, 0
2, 53755, Note_on_c, 0, 60, 0
2, 53775, Note_on_c, 0, 55, 97
2, 53778, Note_on_c, 0, 63, 98
2, 53780, Note_on_c, 0, 61, 97
2, 53784, Note_on_c, 0, 70, 103
2, 53786, Note_on_c, 0, 51, 101
2, 53788, Note_on_c, 0, 75, 105
2, 53788, Note_on_c, 0, 82, 106
2, 53801, Note_on_c, 0, 80, 0
2, 53804, Note_on_c, 0, 68, 0
2, 53856, Note_on_c, 0, 75, 0
2, 53887, Note_on_c, 0, 44, 112
2, 53892, Note_on_c, 0, 84, 101
2, 53894, Note_on_c, 0, 56, 117
2, 53900, Note_on_c, 0, 39, 0
2, 53900, Note_on_c, 0, 75, 107
2, 53900, Note_on_c, 0, 80, 100
2, 53902, Note_on_c, 0, 82, 0
2, 53904, Note_on_c, 0, 51, 0
2, 53904, Note_on_c, 0, 72, 105
2, 53911, Note_on_c, 0, 70, 0
2, 53913, Note_on_c, 0, 63, 0
2, 53913, Note_on_c, 0, 61, 0
2, 53919, Note_on_c, 0, 55, 0
2, 53970, Control_c, 0, 64, 127
2, 54035, Note_on_c, 0, 84, 0
2, 54038, Note_on_c, 0, 72, 0
2, 54055, Control_c, 0, 64, 0
2, 54065, Note_on_c, 0, 55, 116
2, 54072, Note_on_c, 0, 84, 111
2, 54080, Note_on_c, 0, 56, 0
2, 54080, Note_on_c, 0, 43, 113
2, 54080, Note_on_c, 0, 72, 116
2, 54085, Note_on_c, 0, 76, 112
2, 54085, Note_on_c, 0, 82, 112
2, 54088, Note_on_c, 0, 44, 0
2, 54090, Note_on_c, 0, 75, 0
2, 54092, Note_on_c, 0, 80, 0
2, 54178, Note_on_c, 0, 53, 109
2, 54181, Note_on_c, 0, 43, 0
2, 54181, Note_on_c, 0, 41, 114
2, 54199, Note_on_c, 0, 55, 0
2, 54240, Control_c, 0, 64, 127
2, 54252, Note_on_c, 0, 84, 0
2, 54255, Note_on_c, 0, 72, 0
2, 54267, Note_on_c, 0, 53, 0
2, 54323, Note_on_c, 0, 84, 114
2, 54325, Control_c, 0, 64, 0
2, 54325, Note_on_c, 0, 48, 89
2, 54325, Note_on_c, 0, 53, 94
2, 54328, Note_on_c, 0, 56, 89
2, 54328, Note_on_c, 0, 60, 92
2, 54330, Note_on_c, 0, 77, 114
2, 54336, Note_on_c, 0, 72, 109
2, 54336, Note_on_c, 0, 80, 109
2, 54340, Note_on_c, 0, 82, 0
2, 54348, Note_on_c, 0, 76, 0
2, 54402, Note_on_c, 0, 41, 0
2, 54457, Note_on_c, 0, 29, 106
2, 54459, Note_on_c, 0, 41, 112
2, 54535, Control_c, 0, 64, 127
2, 54573, Note_on_c, 0, 77, 0
2, 54577, Note_on_c, 0, 56, 0
2, 54579, Note_on_c, 0, 53, 0
2, 54581, Note_on_c, 0, 80, 0
2, 54596, Control_c, 0, 64, 0
2, 54613, Note_on_c, 0, 65, 97
2, 54615, Note_on_c, 0, 77, 93
2, 54620, Note_on_c, 0, 53, 89
2, 54620, Note_on_c, 0, 56, 89
2, 54625, Note_on_c, 0, 80, 99
2, 54628, Note_on_c, 0, 89, 100
2, 54654, Note_on_c, 0, 53, 0
2, 54657, Note_on_c, 0, 56, 0
2, 54663, Note_on_c, 0, 80, 0
2, 54663, Note_on_c, 0, 65, 0
2, 54666, Note_on_c, 0, 77, 0
2, 54666, Note_on_c, 0, 89, 0
2, 54700, Note_on_c, 0, 91, 93
2, 54702, Note_on_c, 0, 55, 94
2, 54707, Note_on_c, 0, 67, 90
2, 54710, Note_on_c, 0, 79, 88
2, 54730, Note_on_c, 0, 53, 97
2, 54730, Note_on_c, 0, 56, 97
2, 54733, Note_on_c, 0, 65, 103
2, 54739, Note_on_c, 0, 77, 101
2, 54739, Note_on_c, 0, 80, 101
2, 54744, Note_on_c, 0, 89, 106
2, 54745, Note_on_c, 0, 67, 0
2, 54748, Note_on_c, 0, 79, 0
2, 54751, Note_on_c, 0, 91, 0
2, 54751, Note_on_c, 0, 55, 0
2, 54773, Note_on_c, 0, 80, 0
2, 54784, Note_on_c, 0, 56, 0
2, 54792, Note_on_c, 0, 29, 0
2, 54794, Note_on_c, 0, 48, 0
2, 54796, Note_on_c, 0, 41, 0
2, 54796, Note_on_c, 0, 53, 0
2, 54802, Note_on_c, 0, 84, 0
2, 54805, Note_on_c, 0, 60, 0
2, 54808, Note_on_c, 0, 64, 99
2, 54816, Note_on_c, 0, 76, 96
2, 54816, Note_on_c, 0, 80, 94
2, 54816, Note_on_c, 0, 88, 97
2, 54821, Note_on_c, 0, 72, 0
2, 54823, Note_on_c, 0, 89, 0
2, 54823, Note_on_c, 0, 52, 101
2, 54823, Note_on_c, 0, 56, 101
2, 54825, Note_on_c, 0, 65, 0
2, 54825, Note_on_c, 0, 77, 0
2, 54842, Note_on_c, 0, 80, 0
2, 54850, Note_on_c, 0, 56, 0
2, 54886, Note_on_c, 0, 63, 102
2, 54886, Note_on_c, 0, 75, 102
2, 54888, Note_on_c, 0, 80, 101
2, 54889, Note_on_c, 0, 56, 101
2, 54892, Note_on_c, 0, 51, 100
2, 54895, Note_on_c, 0, 87, 99
2, 54898, Note_on_c, 0, 52, 0
2, 54900, Note_on_c, 0, 76, 0
2, 54903, Note_on_c, 0, 64, 0
2, 54905, Note_on_c, 0, 88, 0
2, 54917, Note_on_c, 0, 56, 0
2, 54920, Note_on_c, 0, 80, 0
2, 54958, Note_on_c, 0, 56, 97
2, 54960, Note_on_c, 0, 62, 96
2, 54960, Note_on_c, 0, 74, 96
2, 54960, Note_on_c, 0, 80, 102
2, 54965, Note_on_c, 0, 50, 97
2, 54968, Note_on_c, 0, 75, 0
2, 54968, Note_on_c, 0, 86, 99
2, 54973, Note_on_c, 0, 63, 0
2, 54975, Note_on_c, 0, 51, 0
2, 54981, Note_on_c, 0, 87, 0
2, 55024, Note_on_c, 0, 56, 0
2, 55032, Note_on_c, 0, 80, 0
2, 55061, Note_on_c, 0, 49, 103
2, 55061, Note_on_c, 0, 56, 102
2, 55061, Note_on_c, 0, 61, 98
2, 55071, Note_on_c, 0, 85, 100
2, 55074, Note_on_c, 0, 56, 0
2, 55074, Note_on_c, 0, 50, 0
2, 55076, Note_on_c, 0, 86, 0
2, 55076, Note_on_c, 0, 73, 101
2, 55076, Note_on_c, 0, 80, 104
2, 55080, Note_on_c, 0, 62, 0
2, 55085, Note_on_c, 0, 74, 0
2, 55088, Note_on_c, 0, 80, 0
2, 55099, Control_c, 0, 64, 127
2, 55102, Note_on_c, 0, 48, 105
2, 55102, Note_on_c, 0, 56, 99
2, 55102, Note_on_c, 0, 60, 104
2, 55104, Note_on_c, 0, 84, 99
2, 55110, Note_on_c, 0, 72, 100
2, 55112, Note_on_c, 0, 61, 0
2, 55114, Note_on_c, 0, 49, 0
2, 55114, Note_on_c, 0, 80, 103
2, 55120, Note_on_c, 0, 85, 0
2, 55122, Note_on_c, 0, 48, 0
2, 55124, Note_on_c, 0, 73, 0
2, 55127, Note_on_c, 0, 72, 0
2, 55128, Note_on_c, 0, 56, 0
2, 55133, Note_on_c, 0, 80, 0
2, 55135, Note_on_c, 0, 60, 0
2, 55137, Note_on_c, 0, 84, 0
2, 55168, Control_c, 0, 64, 0
2, 55205, Note_on_c, 0, 48, 103
2, 55205, Note_on_c, 0, 56, 99
2, 55205, Note_on_c, 0, 60, 99
2, 55205, Note_on_c, 0, 72, 102
2, 55207, Note_on_c, 0, 84, 106
2, 55210, Note_on_c, 0, 80, 101
2, 55268, Note_on_c, 0, 48, 0
2, 55271, Note_on_c, 0, 72, 0
2, 55280, Note_on_c, 0, 80, 0
2, 55282, Note_on_c, 0, 84, 0
2, 55307, Note_on_c, 0, 48, 91
2, 55309, Note_on_c, 0, 55, 85
2, 55314, Note_on_c, 0, 67, 97
2, 55314, Note_on_c, 0, 72, 92
2, 55316, Note_on_c, 0, 79, 93
2, 55318, Note_on_c, 0, 43, 84
2, 55320, Control_c, 0, 64, 127
2, 55321, Note_on_c, 0, 56, 0
2, 55357, Note_on_c, 0, 48, 0
2, 55363, Note_on_c, 0, 72, 0
2, 55385, Note_on_c, 0, 60, 0
2, 55395, Note_on_c, 0, 58, 83
2, 55397, Control_c, 0, 64, 0
2, 55399, Note_on_c, 0, 70, 76
2, 55402, Note_on_c, 0, 46, 83
2, 55402, Note_on_c, 0, 48, 87
2, 55404, Note_on_c, 0, 82, 76
2, 55407, Note_on_c, 0, 72, 73
2, 55409, Note_on_c, 0, 67, 0
2, 55414, Note_on_c, 0, 43, 0
2, 55421, Note_on_c, 0, 79, 0
2, 55423, Note_on_c, 0, 55, 0
2, 55466, Note_on_c, 0, 48, 0
2, 55468, Note_on_c, 0, 72, 0
2, 55493, Note_on_c, 0, 68, 72
2, 55498, Note_on_c, 0, 56, 89
2, 55504, Note_on_c, 0, 44, 87
2, 55504, Note_on_c, 0, 80, 73
2, 55506, Note_on_c, 0, 48, 89
2, 55511, Note_on_c, 0, 70, 0
2, 55511, Note_on_c, 0, 72, 75
2, 55513, Note_on_c, 0, 82, 0
2, 55515, Note_on_c, 0, 58, 0
2, 55517, Note_on_c, 0, 46, 0
2, 55560, Note_on_c, 0, 48, 0
2, 55563, Note_on_c, 0, 44, 0
2, 55563, Note_on_c, 0, 56, 0
2, 55566, Note_on_c, 0, 72, 0
2, 55566, Note_on_c, 0, 80, 0
2, 55571, Note_on_c, 0, 68, 0
2, 55703, Control_c, 0, 64, 127
2, 55768, Note_on_c, 0, 60, 79
2, 55768, Note_on_c, 0, 68, 90
2, 55773, Note_on_c, 0, 54, 86
2, 55780, Note_on_c, 0, 32, 80
2, 55788, Note_on_c, 0, 44, 79
2, 55896, Control_c, 0, 64, 0
2, 56003, Note_on_c, 0, 67, 80
2, 56017, Note_on_c, 0, 68, 0
2, 56081, Note_on_c, 0, 66, 81
2, 56095, Note_on_c, 0, 67, 0
2, 56153, Note_on_c, 0, 37, 82
2, 56156, Note_on_c, 0, 32, 0
2, 56160, Note_on_c, 0, 54, 0
2, 56166, Note_on_c, 0, 60, 0
2, 56168, Note_on_c, 0, 65, 79
2, 56173, Note_on_c, 0, 53, 77
2, 56176, Note_on_c, 0, 49, 82
2, 56176, Note_on_c, 0, 61, 80
2, 56184, Note_on_c, 0, 66, 0
2, 56242, Control_c, 0, 64, 127
2, 56267, Note_on_c, 0, 60, 81
2, 56303, Control_c, 0, 64, 0
2, 56340, Note_on_c, 0, 58, 82
2, 56355, Note_on_c, 0, 61, 0
2, 56421, Note_on_c, 0, 56, 75
2, 56456, Note_on_c, 0, 44, 0
2, 56456, Note_on_c, 0, 49, 0
2, 56456, Note_on_c, 0, 37, 0
2, 56458, Note_on_c, 0, 58, 0
2, 56458, Note_on_c, 0, 53, 0
2, 56464, Note_on_c, 0, 65, 0
2, 56464, Note_on_c, 0, 60, 0
2, 56499, Note_on_c, 0, 67, 74
2, 56505, Note_on_c, 0, 55, 74
2, 56518, Note_on_c, 0, 56, 0
2, 56573, Note_on_c, 0, 70, 73
2, 56579, Note_on_c, 0, 58, 72
2, 56587, Note_on_c, 0, 67, 0
2, 56605, Note_on_c, 0, 55, 0
2, 56663, Note_on_c, 0, 68, 74
2, 56667, Note_on_c, 0, 56, 68
2, 56675, Note_on_c, 0, 70, 0
2, 56678, Note_on_c, 0, 58, 0
2, 56834, Note_on_c, 0, 56, 0
2, 56840, Note_on_c, 0, 68, 0
2, 56890, Note_on_c, 0, 60, 68
2, 56893, Note_on_c, 0, 68, 86
2, 56895, Note_on_c, 0, 44, 68
2, 56898, Note_on_c, 0, 54, 73
2, 56901, Note_on_c, 0, 32, 72
2, 56928, Control_c, 0, 64, 127
2, 57015, Control_c, 0, 64, 0
2, 57094, Note_on_c, 0, 67, 76
2, 57108, Note_on_c, 0, 68, 0
2, 57173, Note_on_c, 0, 66, 75
2, 57179, Note_on_c, 0, 67, 0
2, 57249, Note_on_c, 0, 65, 79
2, 57251, Note_on_c, 0, 53, 57
2, 57251, Note_on_c, 0, 61, 55
2, 57253, Note_on_c, 0, 37, 58
2, 57255, Note_on_c, 0, 49, 56
2, 57258, Note_on_c, 0, 32, 0
2, 57264, Note_on_c, 0, 54, 0
2, 57265, Note_on_c, 0, 60, 0
2, 57265, Note_on_c, 0, 44, 0
2, 57265, Note_on_c, 0, 66, 0
2, 57363, Note_on_c, 0, 49, 0
2, 57363, Note_on_c, 0, 37, 0
2, 57365, Note_on_c, 0, 53, 0
2, 57371, Note_on_c, 0, 61, 0
2, 57371, Note_on_c, 0, 65, 0
2, 57417, Control_c, 0, 64, 127
2, 57456, Note_on_c, 0, 53, 54
2, 57456, Note_on_c, 0, 61, 56
2, 57456, Note_on_c, 0, 65, 80
2, 57457, Note_on_c, 0, 43, 55
2, 57459, Note_on_c, 0, 31, 60
2, 57558, Control_c, 0, 64, 0
2, 57667, Note_on_c, 0, 64, 73
2, 57685, Note_on_c, 0, 65, 0
2, 57751, Note_on_c, 0, 67, 67
2, 57762, Note_on_c, 0, 64, 0
2, 57832, Note_on_c, 0, 65, 69
2, 57842, Note_on_c, 0, 67, 0
2, 57976, Note_on_c, 0, 43, 0
2, 57978, Note_on_c, 0, 31, 0
2, 57980, Note_on_c, 0, 61, 0
2, 57980, Note_on_c, 0, 65, 0
2, 57983, Note_on_c, 0, 53, 0
2, 58010, Note_on_c, 0, 61, 56
2, 58010, Note_on_c, 0, 65, 61
2, 58016, Note_on_c, 0, 31, 49
2, 58019, Note_on_c, 0, 43, 52
2, 58019, Note_on_c, 0, 53, 54
2, 58077, Control_c, 0, 64, 127
2, 58152, Control_c, 0, 64, 0
2, 58183, Note_on_c, 0, 63, 44
2, 58201, Note_on_c, 0, 31, 0
2, 58201, Note_on_c, 0, 32, 46
2, 58204, Note_on_c, 0, 44, 45
2, 58204, Note_on_c, 0, 60, 46
2, 58206, Note_on_c, 0, 43, 0
2, 58206, Note_on_c, 0, 61, 0
2, 58216, Note_on_c, 0, 65, 0
2, 58269, Note_on_c, 0, 61, 44
2, 58274, Note_on_c, 0, 44, 0
2, 58277, Note_on_c, 0, 32, 0
2, 58279, Note_on_c, 0, 34, 42
2, 58281, Note_on_c, 0, 46, 44
2, 58281, Note_on_c, 0, 58, 42
2, 58284, Note_on_c, 0, 63, 0
2, 58284, Note_on_c, 0, 60, 0
2, 58368, Note_on_c, 0, 46, 0
2, 58369, Note_on_c, 0, 60, 43
2, 58377, Note_on_c, 0, 53, 0
2, 58380, Note_on_c, 0, 34, 0
2, 58380, Note_on_c, 0, 58, 0
2, 58382, Note_on_c, 0, 48, 45
2, 58382, Note_on_c, 0, 52, 41
2, 58384, Note_on_c, 0, 36, 43
2, 58387, Note_on_c, 0, 61, 0
2, 58483, Note_on_c, 0, 52, 0
2, 58483, Note_on_c, 0, 48, 0
2, 58485, Note_on_c, 0, 36, 0
2, 58492, Note_on_c, 0, 60, 0
2, 58550, Note_on_c, 0, 31, 42
2, 58558, Note_on_c, 0, 59, 45
2, 58563, Note_on_c, 0, 53, 48
2, 58565, Note_on_c, 0, 43, 45
2, 58580, Control_c, 0, 64, 127
2, 58622, Note_on_c, 0, 65, 58
2, 58690, Control_c, 0, 64, 0
2, 58867, Note_on_c, 0, 63, 54
2, 58884, Note_on_c, 0, 65, 0
2, 58975, Note_on_c, 0, 61, 51
2, 58992, Note_on_c, 0, 63, 0
2, 59055, Note_on_c, 0, 60, 54
2, 59057, Note_on_c, 0, 36, 53
2, 59057, Note_on_c, 0, 52, 50
2, 59063, Note_on_c, 0, 31, 0
2, 59064, Note_on_c, 0, 43, 0
2, 59069, Note_on_c, 0, 59, 0
2, 59069, Note_on_c, 0, 53, 0
2, 59072, Note_on_c, 0, 61, 0
2, 59114, Note_on_c, 0, 36, 0
2, 59122, Note_on_c, 0, 52, 0
2, 59128, Note_on_c, 0, 60, 0
2, 59185, Control_c, 0, 67, 127
2, 59241, Control_c, 0, 64, 127
2, 59309, Note_on_c, 0, 61, 47
2, 59312, Note_on_c, 0, 53, 45
2, 59312, Note_on_c, 0, 65, 58
2, 59314, Note_on_c, 0, 31, 45
2, 59320, Note_on_c, 0, 43, 48
2, 59350, Control_c, 0, 64, 0
2, 59590, Note_on_c, 0, 32, 48
2, 59602, Note_on_c, 0, 60, 49
2, 59602, Note_on_c, 0, 63, 53
2, 59607, Note_on_c, 0, 31, 0
2, 59621, Note_on_c, 0, 61, 0
2, 59627, Note_on_c, 0, 65, 0
2, 59689, Note_on_c, 0, 34, 49
2, 59699, Note_on_c, 0, 32, 0
2, 59705, Note_on_c, 0, 58, 54
2, 59707, Note_on_c, 0, 61, 50
2, 59721, Note_on_c, 0, 63, 0
2, 59721, Note_on_c, 0, 60, 0
2, 59797, Note_on_c, 0, 60, 51
2, 59799, Note_on_c, 0, 52, 54
2, 59801, Note_on_c, 0, 36, 47
2, 59807, Note_on_c, 0, 34, 0
2, 59809, Note_on_c, 0, 43, 0
2, 59814, Note_on_c, 0, 58, 0
2, 59814, Note_on_c, 0, 61, 0
2, 59816, Note_on_c, 0, 53, 0
2, 59915, Control_c, 0, 64, 127
2, 59941, Note_on_c, 0, 60, 0
2, 59984, Note_on_c, 0, 53, 49
2, 59984, Note_on_c, 0, 60, 48
2, 59984, Note_on_c, 0, 62, 51
2, 59997, Note_on_c, 0, 52, 0
2, 60047, Control_c, 0, 64, 0
2, 60062, Note_on_c, 0, 60, 0
2, 60074, Note_on_c, 0, 48, 42
2, 60074, Note_on_c, 0, 65, 59
2, 60087, Note_on_c, 0, 56, 48
2, 60089, Note_on_c, 0, 60, 48
2, 60099, Note_on_c, 0, 62, 0
2, 60203, Control_c, 0, 67, 0
2, 60211, Note_on_c, 0, 60, 0
2, 60248, Note_on_c, 0, 60, 45
2, 60248, Note_on_c, 0, 64, 47
2, 60256, Note_on_c, 0, 55, 45
2, 60266, Note_on_c, 0, 65, 0
2, 60266, Note_on_c, 0, 56, 0
2, 60269, Note_on_c, 0, 53, 0
2, 60308, Note_on_c, 0, 60, 0
2, 60348, Note_on_c, 0, 53, 45
2, 60348, Note_on_c, 0, 60, 41
2, 60348, Note_on_c, 0, 62, 48
2, 60363, Note_on_c, 0, 64, 0
2, 60369, Note_on_c, 0, 55, 0
2, 60415, Control_c, 0, 64, 127
2, 60479, Note_on_c, 0, 60, 0
2, 60488, Note_on_c, 0, 36, 0
2, 60503, Note_on_c, 0, 55, 45
2, 60503, Note_on_c, 0, 64, 48
2, 60508, Note_on_c, 0, 60, 41
2, 60516, Note_on_c, 0, 53, 0
2, 60522, Note_on_c, 0, 62, 0
2, 60557, Control_c, 0, 64, 0
2, 60562, Note_on_c, 0, 64, 0
2, 60562, Note_on_c, 0, 60, 0
2, 60598, Note_on_c, 0, 60, 44
2, 60598, Note_on_c, 0, 64, 46
2, 60600, Note_on_c, 0, 68, 63
2, 60731, Note_on_c, 0, 64, 0
2, 60756, Note_on_c, 0, 58, 46
2, 60762, Note_on_c, 0, 64, 47
2, 60762, Note_on_c, 0, 67, 60
2, 60772, Note_on_c, 0, 60, 0
2, 60772, Note_on_c, 0, 68, 0
2, 60780, Note_on_c, 0, 48, 0
2, 60786, Note_on_c, 0, 55, 0
2, 60808, Note_on_c, 0, 58, 0
2, 60817, Note_on_c, 0, 64, 0
2, 60836, Note_on_c, 0, 48, 47
2, 60838, Note_on_c, 0, 55, 51
2, 60848, Note_on_c, 0, 72, 63
2, 60851, Note_on_c, 0, 58, 50
2, 60851, Note_on_c, 0, 64, 49
2, 60856, Note_on_c, 0, 60, 45
2, 60861, Note_on_c, 0, 67, 0
2, 60912, Control_c, 0, 64, 127
2, 60913, Note_on_c, 0, 48, 0
2, 60943, Note_on_c, 0, 55, 0
2, 60948, Note_on_c, 0, 58, 0
2, 60968, Note_on_c, 0, 72, 0
2, 60968, Note_on_c, 0, 48, 49
2, 60970, Note_on_c, 0, 64, 0
2, 60987, Note_on_c, 0, 55, 47
2, 61008, Note_on_c, 0, 58, 52
2, 61008, Note_on_c, 0, 62, 46
2, 61010, Note_on_c, 0, 65, 58
2, 61012, Note_on_c, 0, 48, 0
2, 61012, Note_on_c, 0, 72, 59
2, 61017, Note_on_c, 0, 74, 61
2, 61020, Note_on_c, 0, 60, 0
2, 61038, Note_on_c, 0, 55, 0
2, 61048, Note_on_c, 0, 58, 0
2, 61063, Note_on_c, 0, 48, 52
2, 61069, Note_on_c, 0, 65, 0
2, 61074, Note_on_c, 0, 55, 45
2, 61076, Note_on_c, 0, 72, 0
2, 61076, Control_c, 0, 64, 0
2, 61099, Note_on_c, 0, 58, 49
2, 61101, Note_on_c, 0, 65, 70
2, 61104, Note_on_c, 0, 77, 74
2, 61119, Note_on_c, 0, 68, 48
2, 61121, Note_on_c, 0, 62, 0
2, 61124, Note_on_c, 0, 74, 0
2, 61126, Note_on_c, 0, 72, 49
2, 61163, Note_on_c, 0, 48, 0
2, 61189, Note_on_c, 0, 55, 0
2, 61203, Note_on_c, 0, 58, 0
2, 61214, Note_on_c, 0, 48, 53
2, 61220, Note_on_c, 0, 55, 53
2, 61227, Note_on_c, 0, 72, 0
2, 61253, Note_on_c, 0, 58, 47
2, 61266, Note_on_c, 0, 64, 54
2, 61273, Note_on_c, 0, 72, 72
2, 61278, Note_on_c, 0, 65, 0
2, 61280, Note_on_c, 0, 67, 70
2, 61282, Note_on_c, 0, 76, 65
2, 61297, Note_on_c, 0, 68, 0
2, 61297, Note_on_c, 0, 77, 0
2, 61300, Note_on_c, 0, 48, 0
2, 61333, Note_on_c, 0, 58, 0
2, 61343, Note_on_c, 0, 72, 0
2, 61357, Note_on_c, 0, 53, 55
2, 61359, Note_on_c, 0, 48, 48
2, 61382, Note_on_c, 0, 62, 54
2, 61382, Note_on_c, 0, 65, 69
2, 61387, Note_on_c, 0, 72, 73
2, 61389, Note_on_c, 0, 58, 53
2, 61391, Note_on_c, 0, 74, 67
2, 61396, Note_on_c, 0, 67, 0
2, 61396, Note_on_c, 0, 76, 0
2, 61402, Note_on_c, 0, 64, 0
2, 61453, Note_on_c, 0, 48, 0
2, 61496, Note_on_c, 0, 55, 0
2, 61504, Note_on_c, 0, 48, 53
2, 61507, Note_on_c, 0, 58, 0
2, 61512, Note_on_c, 0, 55, 54
2, 61522, Note_on_c, 0, 72, 0
2, 61527, Note_on_c, 0, 53, 0
2, 61529, Note_on_c, 0, 65, 0
2, 61529, Note_on_c, 0, 74, 0
2, 61531, Note_on_c, 0, 62, 0
2, 61560, Note_on_c, 0, 58, 52
2, 61573, Note_on_c, 0, 64, 51
2, 61576, Control_c, 0, 64, 127
2, 61590, Note_on_c, 0, 67, 71
2, 61598, Note_on_c, 0, 72, 75
2, 61603, Note_on_c, 0, 67, 0
2, 61603, Note_on_c, 0, 76, 76
2, 61605, Note_on_c, 0, 72, 0
2, 61614, Note_on_c, 0, 48, 0
2, 61617, Note_on_c, 0, 76, 0
2, 61637, Note_on_c, 0, 67, 74
2, 61645, Note_on_c, 0, 58, 0
2, 61647, Note_on_c, 0, 72, 76
2, 61657, Note_on_c, 0, 76, 70
2, 61660, Note_on_c, 0, 72, 0
2, 61668, Note_on_c, 0, 76, 0
2, 61690, Note_on_c, 0, 48, 56
2, 61696, Note_on_c, 0, 58, 56
2, 61696, Note_on_c, 0, 60, 54
2, 61702, Note_on_c, 0, 80, 86
2, 61706, Note_on_c, 0, 68, 84
2, 61708, Control_c, 0, 64, 0
2, 61711, Note_on_c, 0, 72, 56
2, 61713, Note_on_c, 0, 67, 0
2, 61715, Note_on_c, 0, 76, 56
2, 61721, Note_on_c, 0, 55, 0
2, 61845, Note_on_c, 0, 58, 0
2, 61849, Note_on_c, 0, 60, 0
2, 61849, Note_on_c, 0, 80, 0
2, 61859, Note_on_c, 0, 76, 0
2, 61862, Note_on_c, 0, 72, 0
2, 61890, Note_on_c, 0, 58, 46
2, 61893, Note_on_c, 0, 60, 45
2, 61893, Note_on_c, 0, 70, 64
2, 61893, Note_on_c, 0, 79, 61
2, 61902, Note_on_c, 0, 72, 66
2, 61904, Note_on_c, 0, 67, 61
2, 61915, Note_on_c, 0, 64, 0
2, 61915, Note_on_c, 0, 68, 0
2, 61947, Note_on_c, 0, 72, 0
2, 61966, Note_on_c, 0, 48, 0
2, 61975, Note_on_c, 0, 60, 0
2, 61988, Note_on_c, 0, 65, 67
2, 61988, Note_on_c, 0, 68, 60
2, 61988, Note_on_c, 0, 77, 64
2, 61992, Note_on_c, 0, 72, 67
2, 61995, Note_on_c, 0, 60, 43
2, 62000, Note_on_c, 0, 53, 45
2, 62002, Note_on_c, 0, 67, 0
2, 62005, Note_on_c, 0, 79, 0
2, 62007, Note_on_c, 0, 70, 0
2, 62012, Note_on_c, 0, 58, 0
2, 62062, Note_on_c, 0, 72, 0
2, 62064, Note_on_c, 0, 53, 0
2, 62066, Note_on_c, 0, 68, 0
2, 62069, Note_on_c, 0, 65, 0
2, 62069, Note_on_c, 0, 77, 0
2, 62069, Note_on_c, 0, 60, 0
2, 62281, Note_on_c, 0, 56, 64
2, 62284, Note_on_c, 0, 68, 76
2, 62297, Control_c, 0, 64, 127
2, 62476, Control_c, 0, 64, 0
2, 62502, Note_on_c, 0, 40, 44
2, 62520, Note_on_c, 0, 52, 47
2, 62529, Note_on_c, 0, 59, 46
2, 62537, Note_on_c, 0, 62, 43
2, 62655, Note_on_c, 0, 39, 44
2, 62660, Note_on_c, 0, 40, 0
2, 62682, Note_on_c, 0, 51, 46
2, 62692, Note_on_c, 0, 52, 0
2, 62710, Note_on_c, 0, 62, 0
2, 62719, Note_on_c, 0, 60, 47
2, 62719, Note_on_c, 0, 63, 47
2, 62721, Note_on_c, 0, 59, 0
2, 62811, Note_on_c, 0, 58, 52
2, 62813, Note_on_c, 0, 61, 52
2, 62815, Note_on_c, 0, 67, 52
2, 62818, Note_on_c, 0, 39, 0
2, 62824, Note_on_c, 0, 56, 0
2, 62827, Note_on_c, 0, 60, 0
2, 62830, Note_on_c, 0, 68, 0
2, 62832, Note_on_c, 0, 63, 0
2, 62886, Note_on_c, 0, 65, 49
2, 62894, Note_on_c, 0, 56, 53
2, 62900, Note_on_c, 0, 67, 0
2, 62909, Note_on_c, 0, 58, 0
2, 62963, Note_on_c, 0, 63, 54
2, 62965, Note_on_c, 0, 55, 47
2, 62976, Note_on_c, 0, 65, 0
2, 62978, Note_on_c, 0, 56, 0
2, 63042, Note_on_c, 0, 53, 51
2, 63045, Note_on_c, 0, 72, 59
2, 63068, Note_on_c, 0, 55, 0
2, 63077, Note_on_c, 0, 63, 0
2, 63077, Note_on_c, 0, 61, 0
2, 63110, Note_on_c, 0, 55, 51
2, 63115, Note_on_c, 0, 61, 51
2, 63115, Note_on_c, 0, 63, 53
2, 63115, Note_on_c, 0, 70, 48
2, 63129, Note_on_c, 0, 53, 0
2, 63132, Note_on_c, 0, 72, 0
2, 63191, Note_on_c, 0, 63, 0
2, 63196, Note_on_c, 0, 51, 0
2, 63204, Note_on_c, 0, 44, 60
2, 63214, Note_on_c, 0, 56, 58
2, 63228, Note_on_c, 0, 68, 51
2, 63238, Note_on_c, 0, 60, 48
2, 63240, Note_on_c, 0, 55, 0
2, 63242, Note_on_c, 0, 61, 0
2, 63242, Note_on_c, 0, 70, 0
2, 63242, Note_on_c, 0, 63, 42
2, 63478, Note_on_c, 0, 72, 61
2, 63480, Note_on_c, 0, 62, 54
2, 63489, Note_on_c, 0, 65, 45
2, 63491, Note_on_c, 0, 44, 0
2, 63494, Note_on_c, 0, 68, 0
2, 63500, Note_on_c, 0, 63, 0
2, 63500, Note_on_c, 0, 60, 0
2, 63631, Note_on_c, 0, 63, 49
2, 63642, Note_on_c, 0, 62, 0
2, 63644, Note_on_c, 0, 66, 54
2, 63664, Note_on_c, 0, 65, 0
2, 63740, Note_on_c, 0, 55, 46
2, 63749, Note_on_c, 0, 56, 0
2, 63752, Note_on_c, 0, 63, 0
2, 63754, Note_on_c, 0, 64, 50
2, 63757, Note_on_c, 0, 67, 56
2, 63769, Note_on_c, 0, 66, 0
2, 63855, Note_on_c, 0, 62, 54
2, 63855, Note_on_c, 0, 65, 50
2, 63855, Note_on_c, 0, 71, 57
2, 63863, Note_on_c, 0, 72, 0
2, 63868, Note_on_c, 0, 67, 0
2, 63874, Note_on_c, 0, 64, 0
2, 63967, Note_on_c, 0, 60, 53
2, 63972, Note_on_c, 0, 69, 55
2, 63982, Note_on_c, 0, 71, 0
2, 63994, Note_on_c, 0, 62, 0
2, 64070, Note_on_c, 0, 59, 58
2, 64085, Control_c, 0, 64, 127
2, 64090, Note_on_c, 0, 67, 55
2, 64092, Note_on_c, 0, 60, 0
2, 64095, Note_on_c, 0, 69, 0
2, 64224, Note_on_c, 0, 57, 56
2, 64225, Control_c, 0, 64, 0
2, 64235, Note_on_c, 0, 59, 0
2, 64235, Note_on_c, 0, 67, 0
2, 64237, Note_on_c, 0, 76, 57
2, 64243, Note_on_c, 0, 65, 0
2, 64412, Note_on_c, 0, 59, 52
2, 64417, Note_on_c, 0, 65, 51
2, 64422, Note_on_c, 0, 57, 0
2, 64427, Note_on_c, 0, 74, 49
2, 64432, Note_on_c, 0, 67, 52
2, 64434, Note_on_c, 0, 76, 0
2, 64575, Note_on_c, 0, 67, 0
2, 64608, Note_on_c, 0, 64, 43
2, 64612, Note_on_c, 0, 60, 41
2, 64614, Note_on_c, 0, 72, 41
2, 64622, Note_on_c, 0, 65, 0
2, 64622, Note_on_c, 0, 74, 0
2, 64624, Note_on_c, 0, 67, 41
2, 64626, Note_on_c, 0, 59, 0
2, 64626, Note_on_c, 0, 48, 45
2, 64776, Control_c, 0, 64, 127
2, 64824, Note_on_c, 0, 84, 64
2, 64893, Note_on_c, 0, 72, 0
2, 64939, Note_on_c, 0, 72, 48
2, 64951, Note_on_c, 0, 48, 0
2, 64962, Note_on_c, 0, 64, 0
2, 64968, Note_on_c, 0, 60, 0
2, 64968, Note_on_c, 0, 67, 0
2, 64973, Note_on_c, 0, 55, 0
2, 65091, Note_on_c, 0, 84, 0
2, 65127, Note_on_c, 0, 84, 54
2, 65132, Control_c, 0, 67, 127
2, 65205, Note_on_c, 0, 72, 0
2, 65247, Note_on_c, 0, 72, 43
2, 65281, Note_on_c, 0, 84, 0
2, 65460, Note_on_c, 0, 72, 0
2, 65496, Note_on_c, 0, 84, 41
2, 65639, Note_on_c, 0, 72, 42
2, 65641, Note_on_c, 0, 84, 0
2, 65916, Note_on_c, 0, 72, 0
2, 65918, Control_c, 0, 64, 0
2, 66113, Note_on_c, 0, 84, 60
2, 66254, Note_on_c, 0, 72, 50
2, 66262, Note_on_c, 0, 36, 47
2, 66267, Note_on_c, 0, 84, 0
2, 66422, Control_c, 0, 64, 127
2, 66456, Note_on_c, 0, 55, 45
2, 66459, Note_on_c, 0, 60, 41
2, 66470, Note_on_c, 0, 65, 42
2, 66470, Note_on_c, 0, 81, 41
2, 66480, Note_on_c, 0, 70, 48
2, 66526, Control_c, 0, 64, 0
2, 66528, Note_on_c, 0, 72, 0
2, 66570, Note_on_c, 0, 72, 48
2, 66575, Note_on_c, 0, 48, 47
2, 66576, Note_on_c, 0, 65, 0
2, 66578, Note_on_c, 0, 81, 0
2, 66581, Note_on_c, 0, 36, 0
2, 66583, Note_on_c, 0, 70, 0
2, 66695, Note_on_c, 0, 60, 0
2, 66699, Control_c, 0, 64, 127
2, 66702, Note_on_c, 0, 55, 0
2, 66740, Note_on_c, 0, 55, 41
2, 66743, Note_on_c, 0, 60, 45
2, 66753, Note_on_c, 0, 79, 61
2, 66761, Note_on_c, 0, 64, 48
2, 66766, Note_on_c, 0, 70, 42
2, 66793, Note_on_c, 0, 48, 0
2, 66793, Note_on_c, 0, 72, 0
2, 66799, Control_c, 0, 64, 0
2, 66849, Note_on_c, 0, 53, 54
2, 66851, Note_on_c, 0, 72, 48
2, 66866, Note_on_c, 0, 79, 0
2, 66866, Note_on_c, 0, 70, 0
2, 66872, Note_on_c, 0, 64, 0
2, 66875, Note_on_c, 0, 55, 0
2, 66984, Note_on_c, 0, 60, 0
2, 66986, Control_c, 0, 64, 127
2, 66996, Note_on_c, 0, 65, 47
2, 66999, Note_on_c, 0, 60, 45
2, 67011, Note_on_c, 0, 53, 0
2, 67011, Note_on_c, 0, 77, 50
2, 67014, Note_on_c, 0, 69, 49
2, 67025, Note_on_c, 0, 65, 0
2, 67028, Note_on_c, 0, 72, 0
2, 67031, Note_on_c, 0, 77, 0
2, 67033, Note_on_c, 0, 60, 0
2, 67041, Note_on_c, 0, 79, 51
2, 67049, Control_c, 0, 64, 0
2, 67080, Note_on_c, 0, 77, 62
2, 67105, Note_on_c, 0, 50, 50
2, 67118, Note_on_c, 0, 79, 0
2, 67171, Note_on_c, 0, 76, 43
2, 67181, Note_on_c, 0, 67, 48
2, 67186, Note_on_c, 0, 77, 0
2, 67216, Note_on_c, 0, 67, 0
2, 67221, Note_on_c, 0, 69, 0
2, 67221, Note_on_c, 0, 76, 0
2, 67250, Note_on_c, 0, 60, 48
2, 67253, Note_on_c, 0, 57, 46
2, 67264, Note_on_c, 0, 65, 41
2, 67264, Note_on_c, 0, 74, 41
2, 67276, Note_on_c, 0, 57, 0
2, 67282, Note_on_c, 0, 60, 0
2, 67333, Note_on_c, 0, 50, 0
2, 67355, Note_on_c, 0, 67, 53
2, 67360, Note_on_c, 0, 43, 53
2, 67366, Note_on_c, 0, 74, 0
2, 67368, Note_on_c, 0, 65, 0
2, 67506, Control_c, 0, 64, 127
2, 67511, Note_on_c, 0, 55, 47
2, 67513, Note_on_c, 0, 50, 43
2, 67513, Note_on_c, 0, 60, 45
2, 67529, Note_on_c, 0, 76, 54
2, 67536, Note_on_c, 0, 65, 47
2, 67555, Note_on_c, 0, 43, 0
2, 67557, Note_on_c, 0, 67, 0
2, 67559, Note_on_c, 0, 50, 0
2, 67563, Note_on_c, 0, 60, 0
2, 67593, Control_c, 0, 64, 0
2, 67598, Note_on_c, 0, 76, 0
2, 67603, Note_on_c, 0, 65, 0
2, 67631, Note_on_c, 0, 43, 54
2, 67632, Note_on_c, 0, 67, 51
2, 67733, Note_on_c, 0, 55, 0
2, 67758, Control_c, 0, 64, 127
2, 67771, Note_on_c, 0, 55, 42
2, 67776, Note_on_c, 0, 59, 44
2, 67799, Note_on_c, 0, 74, 48
2, 67804, Note_on_c, 0, 65, 41
2, 67849, Note_on_c, 0, 43, 0
2, 67860, Note_on_c, 0, 67, 0
2, 67862, Control_c, 0, 64, 0
2, 67897, Note_on_c, 0, 36, 47
2, 67910, Note_on_c, 0, 67, 53
2, 67913, Note_on_c, 0, 59, 0
2, 67915, Note_on_c, 0, 74, 0
2, 67918, Note_on_c, 0, 65, 0
2, 68003, Note_on_c, 0, 55, 0
2, 68020, Control_c, 0, 64, 127
2, 68031, Note_on_c, 0, 60, 48
2, 68041, Note_on_c, 0, 55, 42
2, 68044, Note_on_c, 0, 64, 42
2, 68047, Note_on_c, 0, 72, 50
2, 68050, Note_on_c, 0, 36, 0
2, 68058, Note_on_c, 0, 67, 0
2, 68068, Note_on_c, 0, 72, 0
2, 68087, Note_on_c, 0, 74, 52
2, 68105, Note_on_c, 0, 72, 66
2, 68107, Control_c, 0, 64, 0
2, 68110, Note_on_c, 0, 48, 53
2, 68112, Note_on_c, 0, 74, 0
2, 68184, Note_on_c, 0, 65, 45
2, 68188, Note_on_c, 0, 56, 66
2, 68191, Note_on_c, 0, 71, 44
2, 68196, Note_on_c, 0, 72, 0
2, 68204, Note_on_c, 0, 64, 0
2, 68209, Note_on_c, 0, 55, 0
2, 68280, Note_on_c, 0, 55, 47
2, 68282, Note_on_c, 0, 64, 43
2, 68287, Note_on_c, 0, 72, 46
2, 68293, Note_on_c, 0, 48, 0
2, 68295, Note_on_c, 0, 56, 0
2, 68300, Note_on_c, 0, 71, 0
2, 68303, Note_on_c, 0, 65, 0
2, 68356, Note_on_c, 0, 48, 58
2, 68372, Control_c, 0, 67, 0
2, 68429, Note_on_c, 0, 55, 0
2, 68468, Note_on_c, 0, 55, 45
2, 68514, Control_c, 0, 64, 127
2, 68521, Note_on_c, 0, 62, 62
2, 68572, Note_on_c, 0, 81, 44
2, 68577, Note_on_c, 0, 64, 0
2, 68577, Note_on_c, 0, 72, 0
2, 68577, Note_on_c, 0, 60, 0
2, 68577, Note_on_c, 0, 70, 46
2, 68608, Note_on_c, 0, 48, 0
2, 68618, Control_c, 0, 64, 0
2, 68664, Note_on_c, 0, 48, 54
2, 68685, Note_on_c, 0, 72, 54
2, 68751, Note_on_c, 0, 55, 0
2, 68791, Note_on_c, 0, 55, 51
2, 68819, Note_on_c, 0, 62, 0
2, 68819, Control_c, 0, 64, 127
2, 68821, Note_on_c, 0, 64, 67
2, 68844, Note_on_c, 0, 81, 0
2, 68852, Note_on_c, 0, 72, 0
2, 68855, Note_on_c, 0, 70, 0
2, 68880, Note_on_c, 0, 79, 54
2, 68891, Note_on_c, 0, 70, 45
2, 68927, Control_c, 0, 64, 0
2, 68942, Note_on_c, 0, 48, 0
2, 68970, Note_on_c, 0, 53, 51
2, 68982, Note_on_c, 0, 72, 50
2, 68995, Note_on_c, 0, 70, 0
2, 68998, Note_on_c, 0, 55, 0
2, 69091, Note_on_c, 0, 60, 42
2, 69103, Note_on_c, 0, 53, 0
2, 69103, Note_on_c, 0, 72, 0
2, 69106, Note_on_c, 0, 79, 0
2, 69114, Note_on_c, 0, 65, 72
2, 69139, Note_on_c, 0, 77, 67
2, 69141, Note_on_c, 0, 64, 0
2, 69150, Control_c, 0, 64, 127
2, 69150, Note_on_c, 0, 69, 44
2, 69166, Note_on_c, 0, 77, 0
2, 69191, Note_on_c, 0, 79, 47
2, 69211, Note_on_c, 0, 50, 51
2, 69220, Note_on_c, 0, 77, 60
2, 69242, Control_c, 0, 64, 0
2, 69263, Note_on_c, 0, 79, 0
2, 69280, Note_on_c, 0, 67, 42
2, 69289, Note_on_c, 0, 76, 47
2, 69299, Note_on_c, 0, 77, 0
2, 69313, Note_on_c, 0, 60, 0
2, 69332, Note_on_c, 0, 65, 0
2, 69344, Note_on_c, 0, 69, 0
2, 69346, Note_on_c, 0, 60, 45
2, 69363, Note_on_c, 0, 50, 0
2, 69366, Note_on_c, 0, 65, 43
2, 69379, Note_on_c, 0, 74, 44
2, 69388, Note_on_c, 0, 76, 0
2, 69391, Note_on_c, 0, 67, 0
2, 69399, Note_on_c, 0, 69, 62
2, 69484, Control_c, 0, 67, 127
2, 69507, Note_on_c, 0, 43, 56
2, 69513, Note_on_c, 0, 67, 42
2, 69523, Note_on_c, 0, 74, 0
2, 69526, Note_on_c, 0, 65, 0
2, 69528, Note_on_c, 0, 60, 0
2, 69634, Note_on_c, 0, 50, 45
2, 69672, Note_on_c, 0, 57, 59
2, 69673, Note_on_c, 0, 69, 0
2, 69683, Note_on_c, 0, 67, 0
2, 69709, Note_on_c, 0, 76, 54
2, 69719, Note_on_c, 0, 65, 43
2, 69733, Note_on_c, 0, 43, 0
2, 69793, Note_on_c, 0, 43, 46
2, 69803, Note_on_c, 0, 67, 54
2, 69818, Note_on_c, 0, 65, 0
2, 69871, Note_on_c, 0, 50, 0
2, 69932, Note_on_c, 0, 50, 47
2, 69964, Note_on_c, 0, 59, 59
2, 69970, Note_on_c, 0, 43, 0
2, 69975, Note_on_c, 0, 67, 0
2, 69978, Note_on_c, 0, 76, 0
2, 69980, Note_on_c, 0, 57, 0
2, 70050, Note_on_c, 0, 65, 54
2, 70050, Note_on_c, 0, 74, 60
2, 70140, Note_on_c, 0, 36, 50
2, 70152, Note_on_c, 0, 67, 53
2, 70154, Note_on_c, 0, 50, 0
2, 70159, Note_on_c, 0, 74, 0
2, 70162, Note_on_c, 0, 65, 0
2, 70273, Note_on_c, 0, 60, 44
2, 70279, Note_on_c, 0, 36, 0
2, 70282, Note_on_c, 0, 55, 44
2, 70284, Note_on_c, 0, 59, 0
2, 70284, Note_on_c, 0, 67, 0
2, 70312, Note_on_c, 0, 64, 46
2, 70320, Control_c, 0, 64, 127
2, 70325, Note_on_c, 0, 72, 43
2, 70348, Note_on_c, 0, 72, 0
2, 70363, Note_on_c, 0, 74, 47
2, 70366, Note_on_c, 0, 48, 44
2, 70386, Note_on_c, 0, 72, 54
2, 70400, Note_on_c, 0, 74, 0
2, 70406, Control_c, 0, 64, 0
2, 70480, Note_on_c, 0, 56, 59
2, 70489, Note_on_c, 0, 65, 48
2, 70497, Note_on_c, 0, 71, 45
2, 70503, Note_on_c, 0, 64, 0
2, 70506, Note_on_c, 0, 55, 0
2, 70508, Note_on_c, 0, 72, 0
2, 70594, Note_on_c, 0, 64, 45
2, 70596, Note_on_c, 0, 55, 42
2, 70604, Note_on_c, 0, 72, 44
2, 70608, Note_on_c, 0, 56, 0
2, 70610, Note_on_c, 0, 71, 0
2, 70616, Note_on_c, 0, 65, 0
2, 70647, Note_on_c, 0, 48, 0
2, 70690, Note_on_c, 0, 48, 41
2, 70763, Control_c, 0, 64, 127
2, 70777, Note_on_c, 0, 60, 0
2, 70796, Note_on_c, 0, 55, 0
2, 70805, Note_on_c, 0, 60, 47
2, 70811, Note_on_c, 0, 64, 0
2, 70824, Note_on_c, 0, 55, 41
2, 70834, Note_on_c, 0, 72, 0
2, 70842, Note_on_c, 0, 64, 48
2, 70870, Note_on_c, 0, 48, 0
2, 70870, Note_on_c, 0, 72, 42
2, 70892, Note_on_c, 0, 72, 0
2, 70901, Note_on_c, 0, 74, 42
2, 70912, Note_on_c, 0, 48, 43
2, 70917, Control_c, 0, 64, 0
2, 70921, Note_on_c, 0, 72, 53
2, 70936, Note_on_c, 0, 74, 0
2, 71027, Note_on_c, 0, 71, 47
2, 71029, Note_on_c, 0, 56, 60
2, 71029, Note_on_c, 0, 65, 41
2, 71043, Note_on_c, 0, 72, 0
2, 71048, Note_on_c, 0, 64, 0
2, 71050, Note_on_c, 0, 55, 0
2, 71120, Note_on_c, 0, 55, 48
2, 71123, Note_on_c, 0, 64, 43
2, 71133, Note_on_c, 0, 72, 42
2, 71135, Note_on_c, 0, 56, 0
2, 71137, Note_on_c, 0, 65, 0
2, 71147, Note_on_c, 0, 71, 0
2, 71177, Note_on_c, 0, 48, 0
2, 71223, Note_on_c, 0, 48, 48
2, 71225, Control_c, 0, 67, 0
2, 71333, Control_c, 0, 64, 127
2, 71349, Note_on_c, 0, 72, 0
2, 71383, Note_on_c, 0, 60, 0
2, 71383, Note_on_c, 0, 55, 0
2, 71389, Note_on_c, 0, 64, 0
2, 71406, Note_on_c, 0, 55, 45
2, 71412, Note_on_c, 0, 60, 46
2, 71424, Note_on_c, 0, 64, 46
2, 71427, Note_on_c, 0, 72, 59
2, 71485, Control_c, 0, 64, 0
2, 71500, Note_on_c, 0, 48, 0
2, 71541, Note_on_c, 0, 48, 50
2, 71674, Control_c, 0, 64, 127
2, 71712, Note_on_c, 0, 72, 0
2, 71751, Note_on_c, 0, 60, 0
2, 71756, Note_on_c, 0, 64, 0
2, 71766, Note_on_c, 0, 55, 0
2, 71788, Note_on_c, 0, 60, 53
2, 71788, Note_on_c, 0, 64, 51
2, 71791, Note_on_c, 0, 55, 52
2, 71791, Note_on_c, 0, 72, 66
2, 71797, Control_c, 0, 64, 0
2, 71865, Note_on_c, 0, 48, 0
2, 71913, Note_on_c, 0, 48, 56
2, 72072, Control_c, 0, 64, 127
2, 72124, Note_on_c, 0, 72, 0
2, 72144, Note_on_c, 0, 60, 0
2, 72159, Note_on_c, 0, 64, 0
2, 72179, Note_on_c, 0, 60, 42
2, 72187, Note_on_c, 0, 64, 41
2, 72196, Control_c, 0, 64, 0
2, 72199, Note_on_c, 0, 72, 47
2, 72244, Control_c, 0, 67, 127
2, 72289, Note_on_c, 0, 48, 0
2, 72332, Note_on_c, 0, 48, 54
2, 72491, Control_c, 0, 64, 127
2, 72569, Note_on_c, 0, 72, 0
2, 72607, Note_on_c, 0, 64, 0
2, 72607, Note_on_c, 0, 60, 0
2, 72618, Note_on_c, 0, 55, 0
2, 72636, Note_on_c, 0, 55, 46
2, 72636, Note_on_c, 0, 64, 48
2, 72639, Note_on_c, 0, 60, 45
2, 72645, Note_on_c, 0, 72, 51
2, 72654, Control_c, 0, 64, 0
2, 72839, Note_on_c, 0, 48, 0
2, 72848, Note_on_c, 0, 60, 0
2, 72856, Note_on_c, 0, 55, 0
2, 72858, Note_on_c, 0, 64, 0
2, 72865, Note_on_c, 0, 44, 48
2, 72890, Control_c, 0, 64, 127
2, 72895, Note_on_c, 0, 63, 44
2, 72925, Note_on_c, 0, 72, 0
2, 72965, Note_on_c, 0, 72, 48
2, 72984, Note_on_c, 0, 72, 0
2, 73019, Note_on_c, 0, 72, 51
2, 73093, Note_on_c, 0, 84, 72
2, 73099, Control_c, 0, 64, 0
2, 73233, Control_c, 0, 64, 127
2, 73243, Note_on_c, 0, 63, 0
2, 73277, Note_on_c, 0, 63, 41
2, 73288, Note_on_c, 0, 51, 48
2, 73291, Note_on_c, 0, 56, 48
2, 73410, Note_on_c, 0, 56, 0
2, 73412, Note_on_c, 0, 44, 0
2, 73434, Control_c, 0, 64, 0
2, 73434, Note_on_c, 0, 64, 50
2, 73443, Note_on_c, 0, 63, 0
2, 73445, Note_on_c, 0, 72, 0
2, 73450, Note_on_c, 0, 56, 47
2, 73452, Note_on_c, 0, 52, 50
2, 73463, Note_on_c, 0, 51, 0
2, 73511, Note_on_c, 0, 82, 58
2, 73523, Note_on_c, 0, 84, 0
2, 73548, Control_c, 0, 64, 127
2, 73556, Note_on_c, 0, 80, 56
2, 73568, Note_on_c, 0, 80, 0
2, 73598, Note_on_c, 0, 79, 58
2, 73644, Note_on_c, 0, 80, 57
2, 73670, Control_c, 0, 64, 0
2, 73672, Note_on_c, 0, 76, 54
2, 73677, Note_on_c, 0, 79, 0
2, 73679, Note_on_c, 0, 82, 0
2, 73680, Note_on_c, 0, 56, 0
2, 73680, Note_on_c, 0, 52, 0
2, 73680, Note_on_c, 0, 80, 0
2, 73690, Note_on_c, 0, 64, 0
2, 73712, Note_on_c, 0, 32, 55
2, 73728, Note_on_c, 0, 74, 54
2, 73752, Note_on_c, 0, 77, 57
2, 73760, Note_on_c, 0, 76, 0
2, 73802, Control_c, 0, 64, 127
2, 73804, Note_on_c, 0, 75, 56
2, 73815, Note_on_c, 0, 74, 0
2, 73843, Note_on_c, 0, 77, 0
2, 73843, Note_on_c, 0, 72, 56
2, 73850, Note_on_c, 0, 75, 0
2, 73868, Note_on_c, 0, 51, 43
2, 73882, Note_on_c, 0, 68, 58
2, 73893, Note_on_c, 0, 72, 0
2, 73919, Note_on_c, 0, 65, 57
2, 73957, Note_on_c, 0, 68, 0
2, 73974, Note_on_c, 0, 65, 0
2, 73982, Note_on_c, 0, 63, 48
2, 74004, Note_on_c, 0, 60, 48
2, 74120, Control_c, 0, 64, 0
2, 74183, Note_on_c, 0, 58, 43
2, 74213, Note_on_c, 0, 61, 43
2, 74226, Note_on_c, 0, 60, 0
2, 74258, Control_c, 0, 64, 127
2, 74276, Note_on_c, 0, 67, 58
2, 74318, Control_c, 0, 64, 0
2, 74376, Note_on_c, 0, 63, 0
2, 74387, Note_on_c, 0, 32, 0
2, 74393, Note_on_c, 0, 51, 0
2, 74396, Note_on_c, 0, 58, 0
2, 74396, Note_on_c, 0, 67, 0
2, 74400, Note_on_c, 0, 61, 0
2, 74402, Note_on_c, 0, 44, 44
2, 74402, Note_on_c, 0, 60, 44
2, 74423, Note_on_c, 0, 63, 41
2, 74441, Control_c, 0, 64, 127
2, 74443, Note_on_c, 0, 68, 47
2, 74491, Note_on_c, 0, 72, 50
2, 74511, Note_on_c, 0, 75, 51
2, 74536, Note_on_c, 0, 80, 51
2, 74551, Note_on_c, 0, 51, 64
2, 74562, Note_on_c, 0, 72, 0
2, 74565, Note_on_c, 0, 75, 0
2, 74565, Note_on_c, 0, 84, 53
2, 74580, Note_on_c, 0, 60, 0
2, 74597, Note_on_c, 0, 68, 0
2, 74608, Note_on_c, 0, 80, 0
2, 74616, Note_on_c, 0, 60, 44
2, 74630, Note_on_c, 0, 96, 68
2, 74640, Note_on_c, 0, 84, 0
2, 74645, Note_on_c, 0, 68, 68
2, 74724, Control_c, 0, 64, 0
2, 74735, Note_on_c, 0, 52, 67
2, 74745, Note_on_c, 0, 51, 0
2, 74748, Note_on_c, 0, 63, 0
2, 74771, Note_on_c, 0, 60, 0
2, 74799, Note_on_c, 0, 68, 0
2, 74807, Note_on_c, 0, 60, 45
2, 74855, Note_on_c, 0, 68, 49
2, 74904, Note_on_c, 0, 94, 52
2, 74915, Note_on_c, 0, 96, 0
2, 74951, Note_on_c, 0, 92, 51
2, 74958, Note_on_c, 0, 94, 0
2, 74961, Note_on_c, 0, 92, 0
2, 74979, Note_on_c, 0, 91, 53
2, 75001, Note_on_c, 0, 44, 0
2, 75024, Note_on_c, 0, 92, 47
2, 75029, Note_on_c, 0, 91, 0
2, 75062, Note_on_c, 0, 88, 52
2, 75064, Note_on_c, 0, 92, 0
2, 75070, Note_on_c, 0, 44, 48
2, 75079, Note_on_c, 0, 52, 0
2, 75097, Note_on_c, 0, 86, 47
2, 75116, Control_c, 0, 64, 127
2, 75133, Note_on_c, 0, 89, 50
2, 75143, Note_on_c, 0, 88, 0
2, 75168, Note_on_c, 0, 87, 52
2, 75172, Note_on_c, 0, 89, 0
2, 75178, Note_on_c, 0, 86, 0
2, 75188, Note_on_c, 0, 68, 0
2, 75195, Note_on_c, 0, 84, 49
2, 75211, Note_on_c, 0, 87, 0
2, 75223, Note_on_c, 0, 53, 61
2, 75226, Note_on_c, 0, 60, 0
2, 75237, Note_on_c, 0, 80, 52
2, 75260, Note_on_c, 0, 77, 49
2, 75288, Note_on_c, 0, 60, 65
2, 75302, Note_on_c, 0, 75, 51
2, 75342, Note_on_c, 0, 72, 52
2, 75367, Control_c, 0, 64, 0
2, 75382, Note_on_c, 0, 68, 50
2, 75409, Note_on_c, 0, 60, 0
2, 75444, Note_on_c, 0, 65, 47
2, 75477, Note_on_c, 0, 60, 45
2, 75484, Note_on_c, 0, 44, 0
2, 75486, Note_on_c, 0, 53, 0
2, 75494, Note_on_c, 0, 72, 0
2, 75494, Note_on_c, 0, 80, 0
2, 75494, Note_on_c, 0, 77, 0
2, 75494, Note_on_c, 0, 75, 0
2, 75494, Note_on_c, 0, 56, 46
2, 75497, Note_on_c, 0, 46, 43
2, 75499, Note_on_c, 0, 68, 0
2, 75499, Note_on_c, 0, 65, 0
2, 75499, Note_on_c, 0, 84, 0
2, 75547, Note_on_c, 0, 62, 58
2, 75554, Note_on_c, 0, 46, 0
2, 75557, Note_on_c, 0, 56, 0
2, 75565, Note_on_c, 0, 60, 0
2, 75607, Note_on_c, 0, 39, 58
2, 75607, Note_on_c, 0, 63, 57
2, 75620, Note_on_c, 0, 62, 0
2, 75668, Note_on_c, 0, 67, 50
2, 75719, Note_on_c, 0, 79, 71
2, 75774, Control_c, 0, 64, 127
2, 75824, Note_on_c, 0, 46, 41
2, 75869, Note_on_c, 0, 63, 0
2, 75885, Note_on_c, 0, 55, 43
2, 75919, Note_on_c, 0, 63, 41
2, 75954, Control_c, 0, 64, 0
2, 75982, Note_on_c, 0, 47, 43
2, 75986, Note_on_c, 0, 67, 0
2, 75988, Note_on_c, 0, 46, 0
2, 75994, Note_on_c, 0, 55, 0
2, 76017, Note_on_c, 0, 63, 0
2, 76035, Note_on_c, 0, 55, 49
2, 76073, Note_on_c, 0, 63, 44
2, 76116, Note_on_c, 0, 77, 50
2, 76134, Note_on_c, 0, 79, 0
2, 76149, Control_c, 0, 64, 127
2, 76158, Note_on_c, 0, 75, 47
2, 76178, Note_on_c, 0, 75, 0
2, 76206, Note_on_c, 0, 74, 53
2, 76239, Note_on_c, 0, 75, 53
2, 76249, Note_on_c, 0, 74, 0
2, 76262, Control_c, 0, 64, 0
2, 76265, Note_on_c, 0, 71, 54
2, 76308, Note_on_c, 0, 27, 59
2, 76310, Note_on_c, 0, 75, 0
2, 76315, Note_on_c, 0, 77, 0
2, 76317, Note_on_c, 0, 69, 53
2, 76319, Note_on_c, 0, 71, 0
2, 76323, Note_on_c, 0, 39, 0
2, 76326, Note_on_c, 0, 47, 0
2, 76336, Note_on_c, 0, 63, 0
2, 76354, Note_on_c, 0, 72, 52
2, 76390, Note_on_c, 0, 70, 51
2, 76404, Note_on_c, 0, 69, 0
2, 76437, Note_on_c, 0, 46, 44
2, 76440, Control_c, 0, 64, 127
2, 76440, Note_on_c, 0, 67, 51
2, 76467, Note_on_c, 0, 63, 59
2, 76505, Note_on_c, 0, 72, 0
2, 76505, Note_on_c, 0, 70, 0
2, 76508, Note_on_c, 0, 67, 0
2, 76510, Note_on_c, 0, 60, 53
2, 76530, Note_on_c, 0, 63, 0
2, 76544, Note_on_c, 0, 55, 0
2, 76550, Note_on_c, 0, 58, 55
2, 76587, Note_on_c, 0, 55, 63
2, 76597, Note_on_c, 0, 60, 0
2, 76634, Note_on_c, 0, 58, 0
2, 76745, Control_c, 0, 64, 0
2, 76755, Note_on_c, 0, 53, 55
2, 76783, Note_on_c, 0, 55, 0
2, 76791, Note_on_c, 0, 56, 55
2, 76826, Note_on_c, 0, 62, 56
2, 76910, Note_on_c, 0, 39, 55
2, 76910, Note_on_c, 0, 55, 56
2, 76916, Note_on_c, 0, 27, 0
2, 76918, Note_on_c, 0, 46, 0
2, 76925, Note_on_c, 0, 56, 0
2, 76925, Note_on_c, 0, 53, 0
2, 76930, Note_on_c, 0, 62, 0
2, 76941, Note_on_c, 0, 58, 56
2, 76961, Control_c, 0, 64, 127
2, 76967, Note_on_c, 0, 63, 60
2, 77013, Note_on_c, 0, 67, 50
2, 77018, Note_on_c, 0, 70, 48
2, 77041, Note_on_c, 0, 58, 0
2, 77044, Note_on_c, 0, 75, 52
2, 77062, Note_on_c, 0, 51, 59
2, 77079, Note_on_c, 0, 58, 66
2, 77081, Note_on_c, 0, 79, 54
2, 77088, Note_on_c, 0, 70, 0
2, 77107, Note_on_c, 0, 39, 0
2, 77122, Note_on_c, 0, 70, 72
2, 77128, Note_on_c, 0, 55, 0
2, 77134, Note_on_c, 0, 91, 67
2, 77149, Note_on_c, 0, 51, 0
2, 77169, Note_on_c, 0, 63, 0
2, 77177, Note_on_c, 0, 67, 0
2, 77200, Note_on_c, 0, 51, 42
2, 77235, Note_on_c, 0, 59, 66
2, 77245, Note_on_c, 0, 75, 0
2, 77247, Note_on_c, 0, 58, 0
2, 77253, Note_on_c, 0, 79, 0
2, 77273, Note_on_c, 0, 71, 70
2, 77279, Note_on_c, 0, 70, 0
2, 77293, Note_on_c, 0, 91, 0
2, 77333, Note_on_c, 0, 89, 47
2, 77366, Note_on_c, 0, 59, 0
2, 77368, Note_on_c, 0, 87, 48
2, 77374, Note_on_c, 0, 89, 0
2, 77376, Note_on_c, 0, 71, 0
2, 77378, Note_on_c, 0, 87, 0
2, 77400, Note_on_c, 0, 86, 48
2, 77441, Note_on_c, 0, 87, 52
2, 77467, Note_on_c, 0, 83, 49
2, 77470, Control_c, 0, 64, 0
2, 77479, Note_on_c, 0, 87, 0
2, 77481, Note_on_c, 0, 86, 0
2, 77529, Note_on_c, 0, 81, 47
2, 77535, Note_on_c, 0, 83, 0
2, 77553, Note_on_c, 0, 39, 41
2, 77555, Note_on_c, 0, 84, 51
2, 77595, Note_on_c, 0, 82, 47
2, 77601, Note_on_c, 0, 81, 0
2, 77611, Control_c, 0, 64, 127
2, 77613, Note_on_c, 0, 51, 0
2, 77642, Note_on_c, 0, 79, 48
2, 77650, Control_c, 0, 64, 0
2, 77670, Note_on_c, 0, 51, 44
2, 77688, Note_on_c, 0, 74, 49
2, 77733, Note_on_c, 0, 58, 42
2, 77736, Note_on_c, 0, 75, 50
2, 77745, Note_on_c, 0, 74, 0
2, 77745, Note_on_c, 0, 82, 0
2, 77748, Note_on_c, 0, 84, 0
2, 77751, Note_on_c, 0, 79, 0
2, 77773, Note_on_c, 0, 63, 42
2, 77818, Note_on_c, 0, 73, 42
2, 77820, Control_c, 0, 64, 127
2, 77820, Note_on_c, 0, 67, 48
2, 77858, Note_on_c, 0, 76, 51
2, 77869, Note_on_c, 0, 75, 0
2, 77915, Note_on_c, 0, 79, 52
2, 77957, Note_on_c, 0, 77, 47
2, 77968, Note_on_c, 0, 73, 0
2, 77971, Note_on_c, 0, 76, 0
2, 78005, Control_c, 0, 64, 0
2, 78013, Note_on_c, 0, 73, 52
2, 78048, Note_on_c, 0, 63, 0
2, 78048, Note_on_c, 0, 70, 49
2, 78081, Note_on_c, 0, 51, 0
2, 78083, Note_on_c, 0, 65, 51
2, 78088, Note_on_c, 0, 39, 0
2, 78096, Note_on_c, 0, 73, 0
2, 78096, Note_on_c, 0, 67, 0
2, 78096, Note_on_c, 0, 58, 0
2, 78098, Note_on_c, 0, 70, 0
2, 78101, Note_on_c, 0, 79, 0
2, 78101, Note_on_c, 0, 77, 0
2, 78124, Note_on_c, 0, 65, 0
2, 78126, Note_on_c, 0, 63, 68
2, 78129, Note_on_c, 0, 44, 65
2, 78192, Note_on_c, 0, 68, 48
2, 78193, Note_on_c, 0, 63, 0
2, 78216, Note_on_c, 0, 60, 43
2, 78232, Note_on_c, 0, 72, 54
2, 78234, Note_on_c, 0, 63, 45
2, 78239, Note_on_c, 0, 51, 47
2, 78240, Control_c, 0, 64, 127
2, 78271, Note_on_c, 0, 75, 53
2, 78309, Note_on_c, 0, 79, 52
2, 78319, Note_on_c, 0, 77, 52
2, 78334, Note_on_c, 0, 75, 0
2, 78336, Note_on_c, 0, 79, 0
2, 78353, Note_on_c, 0, 72, 0
2, 78360, Note_on_c, 0, 46, 71
2, 78365, Note_on_c, 0, 75, 51
2, 78368, Note_on_c, 0, 44, 0
2, 78374, Note_on_c, 0, 77, 0
2, 78376, Note_on_c, 0, 60, 0
2, 78376, Note_on_c, 0, 68, 0
2, 78378, Control_c, 0, 64, 0
2, 78388, Note_on_c, 0, 51, 0
2, 78394, Note_on_c, 0, 72, 49
2, 78396, Note_on_c, 0, 63, 0
2, 78402, Note_on_c, 0, 75, 0
2, 78432, Note_on_c, 0, 73, 48
2, 78439, Note_on_c, 0, 55, 43
2, 78449, Note_on_c, 0, 72, 0
2, 78451, Note_on_c, 0, 63, 41
2, 78471, Note_on_c, 0, 51, 46
2, 78485, Note_on_c, 0, 69, 53
2, 78505, Control_c, 0, 67, 0
2, 78518, Note_on_c, 0, 70, 51
2, 78526, Note_on_c, 0, 63, 0
2, 78543, Note_on_c, 0, 65, 47
2, 78560, Note_on_c, 0, 69, 0
2, 78560, Note_on_c, 0, 73, 0
2, 78560, Note_on_c, 0, 70, 0
2, 78585, Note_on_c, 0, 48, 70
2, 78585, Note_on_c, 0, 63, 71
2, 78590, Note_on_c, 0, 46, 0
2, 78602, Note_on_c, 0, 65, 0
2, 78612, Note_on_c, 0, 55, 0
2, 78617, Note_on_c, 0, 68, 49
2, 78622, Note_on_c, 0, 63, 0
2, 78624, Note_on_c, 0, 51, 0
2, 78650, Note_on_c, 0, 56, 42
2, 78653, Note_on_c, 0, 72, 54
2, 78655, Control_c, 0, 64, 127
2, 78670, Note_on_c, 0, 51, 48
2, 78670, Note_on_c, 0, 63, 45
2, 78693, Note_on_c, 0, 75, 47
2, 78727, Note_on_c, 0, 79, 49
2, 78750, Note_on_c, 0, 77, 52
2, 78761, Note_on_c, 0, 75, 0
2, 78764, Note_on_c, 0, 79, 0
2, 78771, Note_on_c, 0, 72, 0
2, 78784, Note_on_c, 0, 75, 55
2, 78787, Note_on_c, 0, 43, 71
2, 78792, Note_on_c, 0, 48, 0
2, 78799, Note_on_c, 0, 77, 0
2, 78801, Note_on_c, 0, 56, 0
2, 78801, Note_on_c, 0, 51, 0
2, 78801, Note_on_c, 0, 68, 0
2, 78811, Control_c, 0, 64, 0
2, 78813, Note_on_c, 0, 63, 0
2, 78816, Note_on_c, 0, 72, 49
2, 78851, Note_on_c, 0, 58, 43
2, 78854, Note_on_c, 0, 73, 50
2, 78864, Note_on_c, 0, 72, 0
2, 78864, Note_on_c, 0, 75, 0
2, 78864, Note_on_c, 0, 63, 43
2, 78865, Note_on_c, 0, 51, 44
2, 78888, Note_on_c, 0, 69, 51
2, 78913, Note_on_c, 0, 70, 48
2, 78923, Note_on_c, 0, 69, 0
2, 78954, Note_on_c, 0, 61, 56
2, 78961, Note_on_c, 0, 58, 0
2, 78964, Note_on_c, 0, 70, 0
2, 78964, Note_on_c, 0, 73, 0
2, 78967, Note_on_c, 0, 63, 0
2, 78980, Note_on_c, 0, 61, 0
2, 78987, Note_on_c, 0, 60, 48
2, 78992, Note_on_c, 0, 44, 49
2, 79003, Note_on_c, 0, 43, 0
2, 79006, Note_on_c, 0, 51, 0
2, 79038, Note_on_c, 0, 61, 56
2, 79063, Note_on_c, 0, 63, 61
2, 79098, Note_on_c, 0, 65, 56
2, 79130, Note_on_c, 0, 66, 54
2, 79132, Note_on_c, 0, 60, 0
2, 79143, Note_on_c, 0, 54, 48
2, 79143, Note_on_c, 0, 56, 49
2, 79146, Note_on_c, 0, 68, 54
2, 79163, Note_on_c, 0, 66, 0
2, 79163, Note_on_c, 0, 60, 44
2, 79177, Note_on_c, 0, 61, 0
2, 79179, Note_on_c, 0, 70, 57
2, 79181, Note_on_c, 0, 65, 0
2, 79181, Note_on_c, 0, 63, 0
2, 79201, Note_on_c, 0, 66, 69
2, 79222, Note_on_c, 0, 72, 45
2, 79242, Note_on_c, 0, 73, 54
2, 79260, Note_on_c, 0, 75, 53
2, 79278, Note_on_c, 0, 62, 70
2, 79288, Note_on_c, 0, 77, 59
2, 79298, Note_on_c, 0, 44, 0
2, 79301, Note_on_c, 0, 75, 0
2, 79301, Note_on_c, 0, 72, 0
2, 79301, Note_on_c, 0, 73, 0
2, 79303, Note_on_c, 0, 66, 0
2, 79305, Note_on_c, 0, 70, 0
2, 79305, Note_on_c, 0, 68, 0
2, 79325, Note_on_c, 0, 78, 60
2, 79331, Note_on_c, 0, 77, 0
2, 79362, Note_on_c, 0, 84, 53
2, 79365, Note_on_c, 0, 63, 77
2, 79375, Note_on_c, 0, 62, 0
2, 79383, Note_on_c, 0, 78, 0
2, 79401, Note_on_c, 0, 82, 57
2, 79407, Control_c, 0, 64, 127
2, 79409, Note_on_c, 0, 84, 0
2, 79416, Note_on_c, 0, 82, 0
2, 79422, Note_on_c, 0, 80, 52
2, 79447, Note_on_c, 0, 82, 55
2, 79455, Note_on_c, 0, 80, 0
2, 79480, Note_on_c, 0, 54, 0
2, 79483, Note_on_c, 0, 80, 52
2, 79492, Note_on_c, 0, 56, 0
2, 79495, Note_on_c, 0, 82, 0
2, 79500, Note_on_c, 0, 60, 0
2, 79503, Note_on_c, 0, 80, 0
2, 79506, Note_on_c, 0, 78, 56
2, 79524, Note_on_c, 0, 78, 0
2, 79532, Note_on_c, 0, 80, 55
2, 79534, Note_on_c, 0, 64, 72
2, 79548, Note_on_c, 0, 63, 0
2, 79558, Note_on_c, 0, 78, 56
2, 79570, Note_on_c, 0, 80, 0
2, 79576, Note_on_c, 0, 78, 0
2, 79599, Note_on_c, 0, 77, 57
2, 79617, Control_c, 0, 64, 0
2, 79620, Note_on_c, 0, 77, 0
2, 79620, Note_on_c, 0, 78, 49
2, 79645, Note_on_c, 0, 77, 51
2, 79656, Note_on_c, 0, 78, 0
2, 79663, Note_on_c, 0, 64, 0
2, 79671, Note_on_c, 0, 77, 0
2, 79681, Note_on_c, 0, 76, 54
2, 79699, Note_on_c, 0, 49, 68
2, 79704, Note_on_c, 0, 77, 51
2, 79729, Note_on_c, 0, 76, 0
2, 79734, Control_c, 0, 64, 127
2, 79742, Note_on_c, 0, 78, 52
2, 79764, Note_on_c, 0, 77, 0
2, 79764, Note_on_c, 0, 56, 43
2, 79774, Note_on_c, 0, 65, 62
2, 79783, Note_on_c, 0, 79, 47
2, 79788, Note_on_c, 0, 68, 50
2, 79811, Note_on_c, 0, 80, 45
2, 79816, Note_on_c, 0, 78, 0
2, 79826, Note_on_c, 0, 80, 0
2, 79829, Note_on_c, 0, 84, 54
2, 79831, Note_on_c, 0, 79, 0
2, 79849, Note_on_c, 0, 82, 50
2, 79870, Note_on_c, 0, 80, 55
2, 79874, Control_c, 0, 64, 0
2, 79874, Note_on_c, 0, 51, 54
2, 79885, Note_on_c, 0, 49, 0
2, 79891, Note_on_c, 0, 65, 0
2, 79894, Note_on_c, 0, 77, 55
2, 79896, Note_on_c, 0, 56, 0
2, 79906, Note_on_c, 0, 84, 0
2, 79906, Note_on_c, 0, 68, 0
2, 79906, Note_on_c, 0, 82, 0
2, 79928, Note_on_c, 0, 78, 51
2, 79933, Note_on_c, 0, 68, 48
2, 79936, Note_on_c, 0, 60, 48
2, 79941, Note_on_c, 0, 77, 0
2, 79953, Note_on_c, 0, 56, 47
2, 79970, Note_on_c, 0, 74, 50
2, 79988, Note_on_c, 0, 75, 52
2, 79992, Note_on_c, 0, 68, 0
2, 79995, Note_on_c, 0, 74, 0
2, 80003, Note_on_c, 0, 70, 52
2, 80038, Note_on_c, 0, 80, 0
2, 80040, Note_on_c, 0, 78, 0
2, 80043, Note_on_c, 0, 53, 59
2, 80046, Note_on_c, 0, 68, 47
2, 80054, Note_on_c, 0, 51, 0
2, 80059, Note_on_c, 0, 75, 0
2, 80059, Note_on_c, 0, 70, 0
2, 80062, Note_on_c, 0, 60, 0
2, 80062, Note_on_c, 0, 56, 0
2, 80072, Control_c, 0, 64, 127
2, 80072, Note_on_c, 0, 73, 49
2, 80075, Note_on_c, 0, 68, 0
2, 80098, Note_on_c, 0, 61, 46
2, 80103, Note_on_c, 0, 77, 47
2, 80106, Note_on_c, 0, 68, 49
2, 80111, Note_on_c, 0, 56, 43
2, 80145, Note_on_c, 0, 80, 48
2, 80158, Note_on_c, 0, 80, 0
2, 80168, Note_on_c, 0, 84, 54
2, 80181, Control_c, 0, 64, 0
2, 80191, Note_on_c, 0, 77, 0
2, 80193, Note_on_c, 0, 82, 53
2, 80206, Note_on_c, 0, 84, 0
2, 80208, Note_on_c, 0, 48, 69
2, 80213, Note_on_c, 0, 80, 54
2, 80221, Note_on_c, 0, 61, 0
2, 80223, Note_on_c, 0, 53, 0
2, 80226, Note_on_c, 0, 82, 0
2, 80228, Note_on_c, 0, 68, 0
2, 80231, Note_on_c, 0, 56, 0
2, 80235, Note_on_c, 0, 77, 54
2, 80270, Note_on_c, 0, 63, 47
2, 80273, Note_on_c, 0, 78, 48
2, 80278, Note_on_c, 0, 68, 53
2, 80280, Note_on_c, 0, 56, 42
2, 80283, Note_on_c, 0, 77, 0
2, 80288, Note_on_c, 0, 80, 0
2, 80311, Note_on_c, 0, 74, 48
2, 80319, Note_on_c, 0, 73, 0
2, 80324, Note_on_c, 0, 75, 52
2, 80329, Note_on_c, 0, 78, 0
2, 80360, Note_on_c, 0, 66, 51
2, 80370, Note_on_c, 0, 68, 0
2, 80376, Note_on_c, 0, 74, 0
2, 80376, Note_on_c, 0, 75, 0
2, 80414, Note_on_c, 0, 65, 63
2, 80416, Note_on_c, 0, 37, 71
2, 80425, Note_on_c, 0, 48, 0
2, 80431, Note_on_c, 0, 66, 0
2, 80431, Note_on_c, 0, 56, 0
2, 80431, Note_on_c, 0, 63, 0
2, 80456, Note_on_c, 0, 67, 44
2, 80481, Note_on_c, 0, 68, 43
2, 80492, Note_on_c, 0, 67, 0
2, 80510, Note_on_c, 0, 70, 45
2, 80544, Note_on_c, 0, 72, 46
2, 80550, Note_on_c, 0, 68, 0
2, 80550, Note_on_c, 0, 65, 0
2, 80563, Note_on_c, 0, 73, 45
2, 80577, Note_on_c, 0, 61, 71
2, 80583, Note_on_c, 0, 65, 46
2, 80586, Note_on_c, 0, 68, 48
2, 80588, Note_on_c, 0, 75, 44
2, 80602, Note_on_c, 0, 72, 0
2, 80602, Note_on_c, 0, 70, 0
2, 80605, Note_on_c, 0, 76, 48
2, 80608, Control_c, 0, 64, 127
2, 80616, Note_on_c, 0, 73, 0
2, 80628, Note_on_c, 0, 77, 42
2, 80654, Note_on_c, 0, 76, 0
2, 80659, Note_on_c, 0, 75, 0
2, 80666, Note_on_c, 0, 79, 48
2, 80687, Note_on_c, 0, 57, 72
2, 80697, Note_on_c, 0, 77, 0
2, 80703, Note_on_c, 0, 81, 55
2, 80712, Note_on_c, 0, 82, 51
2, 80737, Note_on_c, 0, 79, 0
2, 80740, Note_on_c, 0, 58, 67
2, 80740, Note_on_c, 0, 84, 54
2, 80753, Note_on_c, 0, 57, 0
2, 80760, Note_on_c, 0, 81, 0
2, 80765, Note_on_c, 0, 85, 50
2, 80767, Note_on_c, 0, 82, 0
2, 80790, Note_on_c, 0, 87, 55
2, 80792, Note_on_c, 0, 84, 0
2, 80808, Note_on_c, 0, 88, 49
2, 80815, Control_c, 0, 64, 0
2, 80820, Note_on_c, 0, 85, 0
2, 80840, Note_on_c, 0, 89, 56
2, 80857, Note_on_c, 0, 87, 0
2, 80862, Note_on_c, 0, 91, 58
2, 80875, Note_on_c, 0, 60, 75
2, 80890, Note_on_c, 0, 58, 0
2, 80892, Note_on_c, 0, 89, 0
2, 80892, Note_on_c, 0, 88, 0
2, 80894, Note_on_c, 0, 61, 0
2, 80896, Note_on_c, 0, 93, 60
2, 80908, Note_on_c, 0, 94, 61
2, 80930, Note_on_c, 0, 91, 0
2, 80938, Note_on_c, 0, 93, 0
2, 80943, Note_on_c, 0, 96, 59
2, 80961, Note_on_c, 0, 94, 0
2, 80971, Note_on_c, 0, 97, 59
2, 80986, Note_on_c, 0, 99, 62
2, 81000, Note_on_c, 0, 99, 0
2, 81000, Note_on_c, 0, 49, 82
2, 81006, Note_on_c, 0, 37, 0
2, 81011, Note_on_c, 0, 60, 0
2, 81013, Note_on_c, 0, 96, 0
2, 81015, Note_on_c, 0, 100, 61
2, 81020, Note_on_c, 0, 97, 0
2, 81032, Note_on_c, 0, 100, 0
2, 81034, Note_on_c, 0, 101, 61
2, 81054, Note_on_c, 0, 101, 0
2, 81069, Note_on_c, 0, 100, 61
2, 81074, Control_c, 0, 64, 127
2, 81089, Note_on_c, 0, 100, 0
2, 81089, Note_on_c, 0, 68, 0
2, 81089, Note_on_c, 0, 65, 0
2, 81095, Note_on_c, 0, 99, 56
2, 81105, Note_on_c, 0, 99, 0
2, 81120, Note_on_c, 0, 65, 59
2, 81120, Note_on_c, 0, 70, 60
2, 81121, Note_on_c, 0, 68, 60
2, 81121, Note_on_c, 0, 97, 59
2, 81136, Note_on_c, 0, 97, 0
2, 81145, Note_on_c, 0, 70, 0
2, 81148, Note_on_c, 0, 68, 0
2, 81148, Note_on_c, 0, 65, 0
2, 81156, Note_on_c, 0, 96, 60
2, 81170, Note_on_c, 0, 96, 0
2, 81181, Note_on_c, 0, 94, 56
2, 81192, Note_on_c, 0, 65, 58
2, 81193, Note_on_c, 0, 94, 0
2, 81195, Note_on_c, 0, 68, 62
2, 81195, Note_on_c, 0, 70, 57
2, 81206, Note_on_c, 0, 92, 63
2, 81220, Note_on_c, 0, 92, 0
2, 81246, Note_on_c, 0, 91, 60
2, 81251, Note_on_c, 0, 65, 0
2, 81254, Note_on_c, 0, 68, 0
2, 81276, Note_on_c, 0, 89, 56
2, 81284, Note_on_c, 0, 68, 60
2, 81286, Note_on_c, 0, 65, 55
2, 81290, Note_on_c, 0, 70, 0
2, 81292, Note_on_c, 0, 72, 60
2, 81294, Note_on_c, 0, 91, 0
2, 81300, Note_on_c, 0, 88, 59
2, 81308, Note_on_c, 0, 68, 0
2, 81318, Note_on_c, 0, 89, 0
2, 81329, Note_on_c, 0, 70, 57
2, 81329, Note_on_c, 0, 87, 57
2, 81335, Note_on_c, 0, 68, 61
2, 81336, Note_on_c, 0, 73, 60
2, 81351, Note_on_c, 0, 88, 0
2, 81354, Note_on_c, 0, 72, 0
2, 81356, Note_on_c, 0, 85, 58
2, 81361, Note_on_c, 0, 73, 0
2, 81366, Note_on_c, 0, 70, 0
2, 81368, Note_on_c, 0, 68, 0
2, 81386, Note_on_c, 0, 87, 0
2, 81397, Note_on_c, 0, 84, 60
2, 81402, Note_on_c, 0, 68, 56
2, 81408, Note_on_c, 0, 70, 55
2, 81408, Note_on_c, 0, 73, 60
2, 81418, Note_on_c, 0, 82, 56
2, 81424, Note_on_c, 0, 85, 0
2, 81452, Note_on_c, 0, 84, 0
2, 81464, Note_on_c, 0, 80, 56
2, 81472, Note_on_c, 0, 82, 0
2, 81492, Note_on_c, 0, 65, 0
2, 81497, Note_on_c, 0, 79, 54
2, 81512, Note_on_c, 0, 80, 0
2, 81520, Note_on_c, 0, 65, 60
2, 81534, Note_on_c, 0, 77, 60
2, 81536, Note_on_c, 0, 56, 60
2, 81536, Note_on_c, 0, 58, 67
2, 81536, Note_on_c, 0, 61, 60
2, 81549, Note_on_c, 0, 79, 0
2, 81567, Note_on_c, 0, 56, 0
2, 81573, Note_on_c, 0, 58, 0
2, 81573, Note_on_c, 0, 76, 58
2, 81575, Note_on_c, 0, 73, 0
2, 81576, Note_on_c, 0, 61, 0
2, 81581, Note_on_c, 0, 65, 0
2, 81587, Note_on_c, 0, 77, 0
2, 81605, Note_on_c, 0, 56, 60
2, 81608, Note_on_c, 0, 75, 60
2, 81611, Note_on_c, 0, 65, 54
2, 81613, Note_on_c, 0, 58, 66
2, 81613, Note_on_c, 0, 61, 62
2, 81616, Control_c, 0, 64, 0
2, 81619, Note_on_c, 0, 76, 0
2, 81641, Note_on_c, 0, 73, 60
2, 81656, Note_on_c, 0, 75, 0
2, 81672, Note_on_c, 0, 72, 56
2, 81690, Note_on_c, 0, 73, 0
2, 81697, Note_on_c, 0, 75, 57
2, 81738, Note_on_c, 0, 73, 60
2, 81743, Note_on_c, 0, 65, 0
2, 81745, Note_on_c, 0, 72, 0
2, 81755, Note_on_c, 0, 49, 0
2, 81768, Note_on_c, 0, 65, 55
2, 81780, Note_on_c, 0, 70, 0
2, 81785, Note_on_c, 0, 56, 0
2, 81788, Note_on_c, 0, 58, 0
2, 81790, Note_on_c, 0, 73, 0
2, 81790, Note_on_c, 0, 75, 0
2, 81792, Note_on_c, 0, 61, 0
2, 81798, Note_on_c, 0, 68, 0
2, 81801, Note_on_c, 0, 65, 0
2, 81804, Control_c, 0, 64, 127
2, 81815, Note_on_c, 0, 49, 65
2, 81819, Note_on_c, 0, 37, 65
2, 81824, Note_on_c, 0, 70, 56
2, 81842, Note_on_c, 0, 70, 0
2, 81858, Note_on_c, 0, 72, 52
2, 81873, Note_on_c, 0, 72, 0
2, 81883, Note_on_c, 0, 70, 48
2, 81893, Control_c, 0, 64, 0
2, 81906, Note_on_c, 0, 70, 0
2, 81916, Note_on_c, 0, 72, 51
2, 81926, Note_on_c, 0, 58, 44
2, 81926, Note_on_c, 0, 65, 49
2, 81932, Note_on_c, 0, 72, 0
2, 81936, Note_on_c, 0, 70, 52
2, 81957, Note_on_c, 0, 70, 0
2, 81974, Note_on_c, 0, 72, 51
2, 81994, Note_on_c, 0, 70, 49
2, 81999, Note_on_c, 0, 53, 47
2, 82002, Note_on_c, 0, 72, 0
2, 82012, Note_on_c, 0, 70, 0
2, 82028, Note_on_c, 0, 69, 60
2, 82051, Note_on_c, 0, 70, 60
2, 82079, Note_on_c, 0, 48, 63
2, 82086, Note_on_c, 0, 49, 0
2, 82089, Note_on_c, 0, 37, 0
2, 82089, Note_on_c, 0, 58, 0
2, 82089, Note_on_c, 0, 69, 0
2, 82089, Note_on_c, 0, 72, 65
2, 82092, Control_c, 0, 64, 127
2, 82097, Note_on_c, 0, 70, 0
2, 82097, Note_on_c, 0, 65, 0
2, 82102, Note_on_c, 0, 72, 0
2, 82119, Note_on_c, 0, 73, 51
2, 82136, Note_on_c, 0, 73, 0
2, 82146, Note_on_c, 0, 72, 48
2, 82163, Note_on_c, 0, 72, 0
2, 82176, Note_on_c, 0, 63, 47
2, 82178, Control_c, 0, 64, 0
2, 82178, Note_on_c, 0, 57, 46
2, 82180, Note_on_c, 0, 73, 48
2, 82199, Note_on_c, 0, 73, 0
2, 82201, Note_on_c, 0, 72, 53
2, 82204, Note_on_c, 0, 53, 0
2, 82215, Note_on_c, 0, 72, 0
2, 82224, Note_on_c, 0, 73, 51
2, 82240, Note_on_c, 0, 73, 0
2, 82243, Note_on_c, 0, 72, 49
2, 82252, Note_on_c, 0, 53, 47
2, 82271, Note_on_c, 0, 72, 0
2, 82286, Note_on_c, 0, 70, 61
2, 82319, Note_on_c, 0, 72, 58
2, 82324, Note_on_c, 0, 70, 0
2, 82352, Note_on_c, 0, 46, 63
2, 82354, Control_c, 0, 64, 127
2, 82357, Note_on_c, 0, 48, 0
2, 82357, Note_on_c, 0, 73, 61
2, 82362, Note_on_c, 0, 57, 0
2, 82365, Note_on_c, 0, 63, 0
2, 82365, Note_on_c, 0, 72, 0
2, 82375, Note_on_c, 0, 73, 0
2, 82395, Note_on_c, 0, 75, 49
2, 82411, Note_on_c, 0, 75, 0
2, 82418, Note_on_c, 0, 73, 51
2, 82439, Note_on_c, 0, 73, 0
2, 82457, Note_on_c, 0, 75, 50
2, 82459, Note_on_c, 0, 58, 50
2, 82459, Note_on_c, 0, 61, 44
2, 82471, Note_on_c, 0, 75, 0
2, 82476, Note_on_c, 0, 53, 0
2, 82482, Control_c, 0, 64, 0
2, 82484, Note_on_c, 0, 73, 50
2, 82502, Note_on_c, 0, 73, 0
2, 82512, Note_on_c, 0, 75, 52
2, 82529, Note_on_c, 0, 53, 46
2, 82532, Note_on_c, 0, 73, 55
2, 82542, Note_on_c, 0, 75, 0
2, 82555, Note_on_c, 0, 73, 0
2, 82564, Note_on_c, 0, 72, 57
2, 82574, Note_on_c, 0, 46, 0
2, 82577, Note_on_c, 0, 61, 0
2, 82592, Note_on_c, 0, 73, 63
2, 82600, Note_on_c, 0, 72, 0
2, 82614, Note_on_c, 0, 73, 0
2, 82614, Note_on_c, 0, 49, 68
2, 82620, Note_on_c, 0, 76, 69
2, 82626, Note_on_c, 0, 53, 0
2, 82631, Control_c, 0, 64, 127
2, 82641, Note_on_c, 0, 76, 0
2, 82647, Note_on_c, 0, 77, 51
2, 82669, Note_on_c, 0, 77, 0
2, 82674, Note_on_c, 0, 76, 45
2, 82694, Note_on_c, 0, 76, 0
2, 82704, Note_on_c, 0, 77, 57
2, 82723, Note_on_c, 0, 58, 0
2, 82726, Note_on_c, 0, 76, 57
2, 82728, Note_on_c, 0, 77, 0
2, 82745, Note_on_c, 0, 76, 0
2, 82759, Note_on_c, 0, 77, 55
2, 82761, Note_on_c, 0, 58, 49
2, 82761, Note_on_c, 0, 65, 58
2, 82779, Note_on_c, 0, 77, 0
2, 82790, Note_on_c, 0, 76, 58
2, 82807, Note_on_c, 0, 76, 0
2, 82812, Note_on_c, 0, 75, 52
2, 82847, Note_on_c, 0, 75, 0
2, 82847, Control_c, 0, 64, 0
2, 82849, Note_on_c, 0, 76, 53
2, 82918, Note_on_c, 0, 56, 47
2, 82918, Note_on_c, 0, 79, 70
2, 82932, Note_on_c, 0, 58, 0
2, 82986, Note_on_c, 0, 77, 63
2, 83001, Note_on_c, 0, 76, 0
2, 83004, Note_on_c, 0, 79, 0
2, 83050, Note_on_c, 0, 75, 60
2, 83053, Note_on_c, 0, 49, 0
2, 83056, Note_on_c, 0, 56, 0
2, 83061, Note_on_c, 0, 65, 0
2, 83061, Note_on_c, 0, 77, 0
2, 83086, Note_on_c, 0, 39, 84
2, 83108, Note_on_c, 0, 63, 81
2, 83208, Note_on_c, 0, 46, 54
2, 83246, Note_on_c, 0, 51, 50
2, 83280, Note_on_c, 0, 51, 0
2, 83283, Note_on_c, 0, 55, 48
2, 83293, Note_on_c, 0, 46, 0
2, 83328, Note_on_c, 0, 51, 48
2, 83353, Note_on_c, 0, 46, 50
2, 83427, Note_on_c, 0, 41, 81
2, 83430, Note_on_c, 0, 51, 0
2, 83432, Note_on_c, 0, 39, 0
2, 83432, Note_on_c, 0, 46, 0
2, 83434, Note_on_c, 0, 80, 69
2, 83442, Note_on_c, 0, 68, 53
2, 83444, Note_on_c, 0, 75, 0
2, 83448, Note_on_c, 0, 63, 0
2, 83448, Note_on_c, 0, 73, 57
2, 83450, Note_on_c, 0, 55, 0
2, 83494, Control_c, 0, 64, 127
2, 83552, Note_on_c, 0, 44, 55
2, 83562, Control_c, 0, 64, 0
2, 83604, Note_on_c, 0, 49, 54
2, 83609, Note_on_c, 0, 79, 55
2, 83611, Note_on_c, 0, 67, 54
2, 83616, Note_on_c, 0, 80, 0
2, 83626, Note_on_c, 0, 68, 0
2, 83649, Note_on_c, 0, 49, 0
2, 83669, Note_on_c, 0, 56, 58
2, 83685, Note_on_c, 0, 44, 0
2, 83700, Note_on_c, 0, 65, 61
2, 83706, Note_on_c, 0, 49, 55
2, 83708, Note_on_c, 0, 77, 64
2, 83717, Note_on_c, 0, 67, 0
2, 83719, Note_on_c, 0, 79, 0
2, 83749, Note_on_c, 0, 44, 70
2, 83759, Note_on_c, 0, 73, 0
2, 83793, Note_on_c, 0, 49, 0
2, 83796, Note_on_c, 0, 73, 61
2, 83796, Note_on_c, 0, 75, 59
2, 83799, Note_on_c, 0, 43, 53
2, 83802, Note_on_c, 0, 41, 0
2, 83805, Note_on_c, 0, 44, 0
2, 83807, Note_on_c, 0, 56, 0
2, 83809, Note_on_c, 0, 63, 56
2, 83811, Note_on_c, 0, 77, 0
2, 83816, Note_on_c, 0, 65, 0
2, 83842, Note_on_c, 0, 49, 64
2, 83887, Note_on_c, 0, 51, 64
2, 83913, Note_on_c, 0, 51, 0
2, 83931, Note_on_c, 0, 58, 66
2, 83933, Note_on_c, 0, 49, 0
2, 83969, Note_on_c, 0, 51, 64
2, 83995, Note_on_c, 0, 49, 64
2, 84055, Note_on_c, 0, 73, 0
2, 84094, Note_on_c, 0, 41, 94
2, 84096, Note_on_c, 0, 51, 0
2, 84096, Note_on_c, 0, 43, 0
2, 84096, Note_on_c, 0, 49, 0
2, 84098, Note_on_c, 0, 58, 0
2, 84101, Note_on_c, 0, 75, 0
2, 84104, Note_on_c, 0, 63, 0
2, 84104, Note_on_c, 0, 80, 80
2, 84115, Note_on_c, 0, 68, 57
2, 84115, Note_on_c, 0, 73, 56
2, 84118, Control_c, 0, 64, 127
2, 84175, Note_on_c, 0, 44, 60
2, 84217, Control_c, 0, 64, 0
2, 84255, Note_on_c, 0, 49, 63
2, 84255, Note_on_c, 0, 79, 64
2, 84260, Note_on_c, 0, 67, 64
2, 84272, Note_on_c, 0, 68, 0
2, 84272, Note_on_c, 0, 80, 0
2, 84287, Note_on_c, 0, 49, 0
2, 84305, Note_on_c, 0, 56, 59
2, 84315, Note_on_c, 0, 44, 0
2, 84351, Note_on_c, 0, 49, 63
2, 84351, Note_on_c, 0, 65, 64
2, 84360, Note_on_c, 0, 77, 65
2, 84362, Note_on_c, 0, 67, 0
2, 84373, Note_on_c, 0, 79, 0
2, 84387, Note_on_c, 0, 44, 64
2, 84390, Note_on_c, 0, 73, 0
2, 84431, Note_on_c, 0, 43, 58
2, 84432, Note_on_c, 0, 49, 0
2, 84435, Note_on_c, 0, 41, 0
2, 84435, Note_on_c, 0, 73, 59
2, 84437, Note_on_c, 0, 75, 58
2, 84442, Note_on_c, 0, 63, 54
2, 84448, Note_on_c, 0, 77, 0
2, 84448, Note_on_c, 0, 65, 0
2, 84448, Note_on_c, 0, 44, 0
2, 84450, Note_on_c, 0, 56, 0
2, 84472, Note_on_c, 0, 49, 61
2, 84504, Note_on_c, 0, 51, 64
2, 84523, Note_on_c, 0, 63, 0
2, 84526, Note_on_c, 0, 73, 0
2, 84535, Note_on_c, 0, 51, 0
2, 84541, Note_on_c, 0, 75, 0
2, 84543, Note_on_c, 0, 58, 65
2, 84557, Note_on_c, 0, 49, 0
2, 84570, Control_c, 0, 64, 127
2, 84590, Note_on_c, 0, 77, 73
2, 84600, Note_on_c, 0, 51, 61
2, 84604, Note_on_c, 0, 73, 77
2, 84606, Note_on_c, 0, 65, 61
2, 84624, Note_on_c, 0, 49, 59
2, 84633, Note_on_c, 0, 43, 0
2, 84666, Note_on_c, 0, 45, 62
2, 84673, Note_on_c, 0, 49, 0
2, 84676, Note_on_c, 0, 51, 0
2, 84679, Note_on_c, 0, 58, 0
2, 84695, Control_c, 0, 64, 0
2, 84710, Note_on_c, 0, 51, 64
2, 84747, Note_on_c, 0, 53, 59
2, 84755, Note_on_c, 0, 51, 0
2, 84760, Note_on_c, 0, 53, 0
2, 84765, Note_on_c, 0, 60, 64
2, 84785, Note_on_c, 0, 72, 63
2, 84787, Note_on_c, 0, 65, 0
2, 84789, Note_on_c, 0, 75, 63
2, 84801, Note_on_c, 0, 77, 0
2, 84801, Note_on_c, 0, 53, 64
2, 84806, Note_on_c, 0, 75, 0
2, 84814, Note_on_c, 0, 51, 58
2, 84816, Note_on_c, 0, 65, 62
2, 84824, Note_on_c, 0, 73, 0
2, 84835, Note_on_c, 0, 68, 59
2, 84844, Note_on_c, 0, 53, 0
2, 84850, Note_on_c, 0, 72, 0
2, 84853, Note_on_c, 0, 75, 64
2, 84859, Note_on_c, 0, 46, 88
2, 84864, Note_on_c, 0, 45, 0
2, 84866, Note_on_c, 0, 51, 0
2, 84868, Note_on_c, 0, 73, 63
2, 84881, Note_on_c, 0, 60, 0
2, 84903, Note_on_c, 0, 53, 59
2, 84936, Note_on_c, 0, 56, 56
2, 84940, Note_on_c, 0, 72, 63
2, 84945, Note_on_c, 0, 53, 0
2, 84947, Note_on_c, 0, 56, 0
2, 84949, Note_on_c, 0, 75, 0
2, 84952, Note_on_c, 0, 73, 0
2, 84967, Note_on_c, 0, 61, 59
2, 84987, Note_on_c, 0, 56, 56
2, 84987, Note_on_c, 0, 70, 63
2, 85006, Note_on_c, 0, 53, 63
2, 85020, Note_on_c, 0, 72, 0
2, 85025, Note_on_c, 0, 61, 0
2, 85042, Note_on_c, 0, 39, 57
2, 85055, Note_on_c, 0, 46, 0
2, 85067, Note_on_c, 0, 72, 63
2, 85070, Note_on_c, 0, 67, 56
2, 85072, Note_on_c, 0, 65, 0
2, 85072, Note_on_c, 0, 68, 0
2, 85072, Note_on_c, 0, 61, 56
2, 85077, Note_on_c, 0, 53, 0
2, 85080, Note_on_c, 0, 56, 0
2, 85082, Note_on_c, 0, 70, 0
2, 85112, Note_on_c, 0, 46, 58
2, 85138, Note_on_c, 0, 51, 60
2, 85152, Note_on_c, 0, 51, 0
2, 85173, Note_on_c, 0, 55, 57
2, 85182, Note_on_c, 0, 46, 0
2, 85204, Note_on_c, 0, 51, 59
2, 85207, Note_on_c, 0, 73, 63
2, 85218, Note_on_c, 0, 72, 0
2, 85228, Note_on_c, 0, 73, 0
2, 85233, Note_on_c, 0, 46, 61
2, 85241, Note_on_c, 0, 61, 0
2, 85244, Note_on_c, 0, 39, 0
2, 85264, Note_on_c, 0, 73, 60
2, 85266, Note_on_c, 0, 61, 91
2, 85272, Note_on_c, 0, 41, 90
2, 85273, Note_on_c, 0, 68, 61
2, 85311, Note_on_c, 0, 51, 0
2, 85311, Note_on_c, 0, 46, 0
2, 85314, Note_on_c, 0, 67, 0
2, 85321, Note_on_c, 0, 44, 60
2, 85327, Note_on_c, 0, 49, 63
2, 85329, Note_on_c, 0, 55, 0
2, 85349, Note_on_c, 0, 53, 60
2, 85355, Control_c, 0, 64, 127
2, 85378, Note_on_c, 0, 61, 0
2, 85386, Note_on_c, 0, 56, 66
2, 85401, Note_on_c, 0, 80, 83
2, 85414, Note_on_c, 0, 92, 79
2, 85423, Note_on_c, 0, 68, 0
2, 85439, Note_on_c, 0, 61, 61
2, 85476, Control_c, 0, 64, 0
2, 85476, Note_on_c, 0, 68, 73
2, 85488, Note_on_c, 0, 61, 0
2, 85494, Note_on_c, 0, 56, 0
2, 85500, Note_on_c, 0, 85, 76
2, 85531, Note_on_c, 0, 53, 0
2, 85536, Note_on_c, 0, 61, 62
2, 85553, Note_on_c, 0, 56, 66
2, 85562, Note_on_c, 0, 79, 78
2, 85568, Note_on_c, 0, 49, 0
2, 85574, Note_on_c, 0, 80, 0
2, 85574, Note_on_c, 0, 91, 78
2, 85579, Note_on_c, 0, 92, 0
2, 85582, Note_on_c, 0, 53, 61
2, 85624, Note_on_c, 0, 44, 0
2, 85629, Note_on_c, 0, 49, 67
2, 85633, Note_on_c, 0, 77, 78
2, 85639, Note_on_c, 0, 89, 80
2, 85677, Note_on_c, 0, 44, 62
2, 85712, Note_on_c, 0, 75, 77
2, 85717, Note_on_c, 0, 87, 78
2, 85722, Note_on_c, 0, 43, 94
2, 85724, Note_on_c, 0, 89, 0
2, 85724, Note_on_c, 0, 41, 0
2, 85727, Note_on_c, 0, 91, 0
2, 85727, Note_on_c, 0, 44, 0
2, 85728, Note_on_c, 0, 56, 0
2, 85728, Note_on_c, 0, 77, 0
2, 85728, Note_on_c, 0, 73, 0
2, 85728, Note_on_c, 0, 79, 0
2, 85730, Note_on_c, 0, 49, 0
2, 85732, Note_on_c, 0, 61, 0
2, 85732, Note_on_c, 0, 53, 0
2, 85735, Note_on_c, 0, 68, 0
2, 85740, Control_c, 0, 64, 127
2, 85773, Note_on_c, 0, 49, 67
2, 85816, Note_on_c, 0, 51, 67
2, 85842, Note_on_c, 0, 72, 87
2, 85842, Note_on_c, 0, 84, 83
2, 85857, Note_on_c, 0, 85, 0
2, 85857, Note_on_c, 0, 61, 64
2, 85859, Note_on_c, 0, 51, 0
2, 85881, Note_on_c, 0, 49, 0
2, 85906, Note_on_c, 0, 51, 67
2, 85919, Note_on_c, 0, 70, 75
2, 85928, Note_on_c, 0, 82, 74
2, 85941, Control_c, 0, 64, 0
2, 85948, Note_on_c, 0, 49, 66
2, 85987, Note_on_c, 0, 41, 80
2, 85994, Note_on_c, 0, 51, 0
2, 85996, Note_on_c, 0, 68, 80
2, 85998, Note_on_c, 0, 49, 0
2, 85998, Note_on_c, 0, 73, 78
2, 85998, Note_on_c, 0, 80, 75
2, 86000, Note_on_c, 0, 43, 0
2, 86000, Note_on_c, 0, 72, 0
2, 86000, Note_on_c, 0, 75, 0
2, 86003, Note_on_c, 0, 82, 0
2, 86003, Note_on_c, 0, 84, 0
2, 86003, Note_on_c, 0, 70, 0
2, 86003, Note_on_c, 0, 87, 0
2, 86041, Note_on_c, 0, 49, 62
2, 86057, Note_on_c, 0, 49, 0
2, 86072, Note_on_c, 0, 67, 79
2, 86074, Note_on_c, 0, 79, 72
2, 86082, Note_on_c, 0, 56, 63
2, 86084, Note_on_c, 0, 80, 0
2, 86088, Note_on_c, 0, 68, 0
2, 86113, Note_on_c, 0, 49, 64
2, 86128, Note_on_c, 0, 65, 76
2, 86131, Note_on_c, 0, 77, 77
2, 86138, Note_on_c, 0, 67, 0
2, 86141, Note_on_c, 0, 79, 0
2, 86156, Note_on_c, 0, 73, 0
2, 86159, Note_on_c, 0, 41, 0
2, 86189, Note_on_c, 0, 73, 72
2, 86191, Note_on_c, 0, 43, 75
2, 86194, Note_on_c, 0, 75, 77
2, 86196, Note_on_c, 0, 63, 76
2, 86204, Note_on_c, 0, 56, 0
2, 86204, Note_on_c, 0, 49, 0
2, 86206, Note_on_c, 0, 77, 0
2, 86206, Note_on_c, 0, 61, 0
2, 86210, Note_on_c, 0, 65, 0
2, 86248, Note_on_c, 0, 75, 0
2, 86248, Note_on_c, 0, 73, 0
2, 86256, Note_on_c, 0, 63, 0
2, 86260, Note_on_c, 0, 51, 60
2, 86290, Note_on_c, 0, 65, 81
2, 86292, Note_on_c, 0, 58, 56
2, 86294, Note_on_c, 0, 77, 85
2, 86309, Note_on_c, 0, 51, 0
2, 86309, Note_on_c, 0, 73, 54
2, 86319, Note_on_c, 0, 58, 0
2, 86329, Note_on_c, 0, 61, 61
2, 86360, Note_on_c, 0, 58, 57
2, 86375, Note_on_c, 0, 51, 54
2, 86385, Note_on_c, 0, 58, 0
2, 86385, Note_on_c, 0, 61, 0
2, 86391, Note_on_c, 0, 51, 0
2, 86391, Note_on_c, 0, 45, 78
2, 86396, Note_on_c, 0, 43, 0
2, 86451, Note_on_c, 0, 51, 54
2, 86472, Note_on_c, 0, 53, 56
2, 86489, Note_on_c, 0, 53, 0
2, 86498, Note_on_c, 0, 51, 0
2, 86503, Note_on_c, 0, 60, 58
2, 86514, Note_on_c, 0, 75, 75
2, 86516, Note_on_c, 0, 72, 69
2, 86519, Note_on_c, 0, 65, 0
2, 86521, Note_on_c, 0, 73, 0
2, 86523, Note_on_c, 0, 53, 53
2, 86548, Note_on_c, 0, 65, 69
2, 86553, Note_on_c, 0, 75, 0
2, 86558, Note_on_c, 0, 51, 53
2, 86568, Note_on_c, 0, 45, 0
2, 86573, Note_on_c, 0, 68, 73
2, 86575, Note_on_c, 0, 72, 0
2, 86578, Note_on_c, 0, 77, 0
2, 86592, Note_on_c, 0, 75, 75
2, 86602, Note_on_c, 0, 46, 75
2, 86610, Note_on_c, 0, 51, 0
2, 86615, Note_on_c, 0, 53, 0
2, 86616, Note_on_c, 0, 60, 0
2, 86618, Note_on_c, 0, 73, 71
2, 86671, Note_on_c, 0, 53, 52
2, 86706, Note_on_c, 0, 56, 50
2, 86708, Note_on_c, 0, 72, 70
2, 86715, Note_on_c, 0, 73, 0
2, 86720, Note_on_c, 0, 75, 0
2, 86720, Note_on_c, 0, 53, 0
2, 86733, Note_on_c, 0, 56, 0
2, 86737, Note_on_c, 0, 61, 53
2, 86762, Note_on_c, 0, 70, 69
2, 86770, Note_on_c, 0, 56, 53
2, 86778, Note_on_c, 0, 72, 0
2, 86784, Note_on_c, 0, 53, 52
2, 86793, Note_on_c, 0, 61, 0
2, 86836, Note_on_c, 0, 46, 0
2, 86839, Note_on_c, 0, 61, 60
2, 86844, Note_on_c, 0, 56, 0
2, 86844, Note_on_c, 0, 53, 0
2, 86850, Note_on_c, 0, 65, 0
2, 86853, Note_on_c, 0, 68, 0
2, 86856, Note_on_c, 0, 39, 58
2, 86863, Note_on_c, 0, 67, 66
2, 86888, Control_c, 0, 64, 127
2, 86890, Note_on_c, 0, 72, 75
2, 86892, Note_on_c, 0, 70, 0
2, 86930, Note_on_c, 0, 46, 51
2, 86966, Note_on_c, 0, 51, 47
2, 87014, Note_on_c, 0, 55, 47
2, 87022, Note_on_c, 0, 51, 0
2, 87034, Note_on_c, 0, 61, 0
2, 87039, Note_on_c, 0, 46, 0
2, 87057, Note_on_c, 0, 51, 54
2, 87060, Note_on_c, 0, 39, 0
2, 87066, Note_on_c, 0, 61, 58
2, 87066, Note_on_c, 0, 63, 60
2, 87069, Note_on_c, 0, 67, 0
2, 87069, Note_on_c, 0, 72, 0
2, 87086, Note_on_c, 0, 46, 55
2, 87112, Note_on_c, 0, 39, 44
2, 87114, Note_on_c, 0, 27, 47
2, 87123, Control_c, 0, 64, 0
2, 87201, Note_on_c, 0, 68, 59
2, 87216, Note_on_c, 0, 32, 46
2, 87217, Note_on_c, 0, 60, 41
2, 87220, Note_on_c, 0, 27, 0
2, 87222, Note_on_c, 0, 63, 0
2, 87224, Note_on_c, 0, 39, 0
2, 87226, Note_on_c, 0, 51, 0
2, 87228, Note_on_c, 0, 46, 0
2, 87230, Note_on_c, 0, 61, 0
2, 87233, Note_on_c, 0, 44, 48
2, 87245, Note_on_c, 0, 55, 0
2, 87388, Control_c, 0, 64, 127
2, 87458, Note_on_c, 0, 80, 59
2, 87501, Note_on_c, 0, 32, 0
2, 87503, Note_on_c, 0, 44, 0
2, 87504, Control_c, 0, 67, 127
2, 87512, Note_on_c, 0, 60, 0
2, 87512, Note_on_c, 0, 68, 0
2, 87518, Control_c, 0, 64, 0
2, 87548, Note_on_c, 0, 68, 46
2, 87563, Control_c, 0, 67, 0
2, 87697, Control_c, 0, 64, 127
2, 87760, Note_on_c, 0, 80, 0
2, 87798, Note_on_c, 0, 80, 41
2, 87801, Note_on_c, 0, 68, 0
2, 87843, Control_c, 0, 67, 127
2, 87924, Note_on_c, 0, 68, 47
2, 87990, Note_on_c, 0, 80, 0
2, 88084, Note_on_c, 0, 68, 0
2, 88239, Note_on_c, 0, 80, 57
2, 88405, Note_on_c, 0, 68, 47
2, 88624, Control_c, 0, 64, 0
2, 88745, Note_on_c, 0, 80, 0
2, 88748, Note_on_c, 0, 68, 0
2, 88846, Note_on_c, 0, 80, 45
2, 88987, Note_on_c, 0, 68, 48
2, 88989, Note_on_c, 0, 32, 54
2, 89196, Note_on_c, 0, 61, 47
2, 89201, Note_on_c, 0, 51, 42
2, 89201, Note_on_c, 0, 56, 44
2, 89211, Note_on_c, 0, 68, 0
2, 89236, Note_on_c, 0, 77, 60
2, 89251, Note_on_c, 0, 66, 44
2, 89256, Note_on_c, 0, 80, 0
2, 89343, Note_on_c, 0, 68, 47
2, 89363, Note_on_c, 0, 44, 47
2, 89425, Note_on_c, 0, 51, 0
2, 89438, Note_on_c, 0, 56, 0
2, 89473, Note_on_c, 0, 51, 41
2, 89478, Note_on_c, 0, 32, 0
2, 89481, Note_on_c, 0, 44, 0
2, 89487, Note_on_c, 0, 56, 45
2, 89499, Note_on_c, 0, 61, 0
2, 89504, Note_on_c, 0, 68, 0
2, 89504, Note_on_c, 0, 66, 0
2, 89512, Note_on_c, 0, 60, 45
2, 89543, Note_on_c, 0, 75, 64
2, 89552, Note_on_c, 0, 66, 48
2, 89563, Note_on_c, 0, 77, 0
2, 89637, Note_on_c, 0, 49, 52
2, 89640, Note_on_c, 0, 68, 51
2, 89655, Note_on_c, 0, 66, 0
2, 89701, Note_on_c, 0, 56, 0
2, 89713, Note_on_c, 0, 51, 0
2, 89754, Note_on_c, 0, 56, 41
2, 89772, Note_on_c, 0, 60, 0
2, 89777, Note_on_c, 0, 68, 0
2, 89786, Note_on_c, 0, 61, 43
2, 89824, Note_on_c, 0, 65, 54
2, 89836, Note_on_c, 0, 75, 0
2, 89838, Note_on_c, 0, 73, 52
2, 89856, Note_on_c, 0, 73, 0
2, 89866, Note_on_c, 0, 75, 48
2, 89889, Note_on_c, 0, 73, 62
2, 89895, Note_on_c, 0, 46, 47
2, 89900, Note_on_c, 0, 56, 0
2, 89902, Note_on_c, 0, 49, 0
2, 89904, Note_on_c, 0, 75, 0
2, 89904, Note_on_c, 0, 61, 0
2, 89976, Note_on_c, 0, 63, 49
2, 89977, Note_on_c, 0, 72, 51
2, 89992, Note_on_c, 0, 73, 0
2, 89995, Note_on_c, 0, 65, 0
2, 90043, Note_on_c, 0, 53, 48
2, 90048, Note_on_c, 0, 56, 44
2, 90063, Note_on_c, 0, 63, 0
2, 90063, Note_on_c, 0, 72, 0
2, 90083, Note_on_c, 0, 61, 46
2, 90086, Note_on_c, 0, 70, 65
2, 90160, Note_on_c, 0, 53, 0
2, 90160, Note_on_c, 0, 56, 0
2, 90200, Note_on_c, 0, 63, 46
2, 90213, Note_on_c, 0, 39, 44
2, 90336, Note_on_c, 0, 61, 0
2, 90352, Note_on_c, 0, 46, 0
2, 90377, Note_on_c, 0, 61, 45
2, 90380, Note_on_c, 0, 72, 61
2, 90387, Note_on_c, 0, 56, 55
2, 90389, Note_on_c, 0, 70, 0
2, 90389, Note_on_c, 0, 63, 0
2, 90391, Note_on_c, 0, 51, 57
2, 90407, Note_on_c, 0, 39, 0
2, 90469, Note_on_c, 0, 51, 0
2, 90472, Note_on_c, 0, 56, 0
2, 90477, Note_on_c, 0, 39, 56
2, 90486, Note_on_c, 0, 63, 59
2, 90595, Note_on_c, 0, 61, 0
2, 90602, Note_on_c, 0, 63, 0
2, 90623, Note_on_c, 0, 55, 45
2, 90627, Note_on_c, 0, 61, 43
2, 90629, Note_on_c, 0, 46, 42
2, 90632, Note_on_c, 0, 72, 0
2, 90638, Note_on_c, 0, 70, 61
2, 90742, Note_on_c, 0, 63, 44
2, 90744, Note_on_c, 0, 39, 0
2, 90746, Note_on_c, 0, 46, 0
2, 90749, Note_on_c, 0, 32, 44
2, 90752, Note_on_c, 0, 61, 0
2, 90763, Note_on_c, 0, 55, 0
2, 90886, Note_on_c, 0, 60, 42
2, 90888, Note_on_c, 0, 70, 0
2, 90893, Note_on_c, 0, 51, 48
2, 90893, Note_on_c, 0, 56, 42
2, 90898, Note_on_c, 0, 68, 51
2, 90908, Note_on_c, 0, 63, 0
2, 90926, Note_on_c, 0, 70, 53
2, 90928, Note_on_c, 0, 68, 0
2, 90954, Note_on_c, 0, 44, 44
2, 90954, Note_on_c, 0, 68, 64
2, 90963, Note_on_c, 0, 70, 0
2, 91032, Note_on_c, 0, 32, 0
2, 91054, Note_on_c, 0, 52, 42
2, 91054, Note_on_c, 0, 67, 49
2, 91061, Note_on_c, 0, 51, 0
2, 91063, Note_on_c, 0, 61, 46
2, 91065, Note_on_c, 0, 68, 0
2, 91071, Note_on_c, 0, 60, 0
2, 91137, Note_on_c, 0, 51, 47
2, 91143, Note_on_c, 0, 68, 53
2, 91148, Note_on_c, 0, 52, 0
2, 91155, Note_on_c, 0, 67, 0
2, 91157, Note_on_c, 0, 61, 0
2, 91159, Note_on_c, 0, 60, 44
2, 91172, Note_on_c, 0, 44, 0
2, 91214, Control_c, 0, 67, 0
2, 91228, Note_on_c, 0, 44, 42
2, 91302, Note_on_c, 0, 51, 0
2, 91353, Note_on_c, 0, 51, 43
2, 91364, Note_on_c, 0, 56, 0
2, 91366, Note_on_c, 0, 44, 0
2, 91370, Note_on_c, 0, 60, 0
2, 91375, Note_on_c, 0, 68, 0
2, 91386, Control_c, 0, 64, 127
2, 91391, Note_on_c, 0, 58, 60
2, 91403, Note_on_c, 0, 77, 50
2, 91421, Note_on_c, 0, 66, 45
2, 91508, Note_on_c, 0, 44, 45
2, 91513, Note_on_c, 0, 68, 46
2, 91560, Control_c, 0, 64, 0
2, 91569, Note_on_c, 0, 51, 0
2, 91628, Note_on_c, 0, 51, 48
2, 91658, Note_on_c, 0, 66, 0
2, 91666, Note_on_c, 0, 60, 68
2, 91672, Note_on_c, 0, 44, 0
2, 91681, Note_on_c, 0, 58, 0
2, 91684, Note_on_c, 0, 77, 0
2, 91684, Note_on_c, 0, 68, 0
2, 91689, Note_on_c, 0, 75, 57
2, 91706, Note_on_c, 0, 66, 42
2, 91709, Control_c, 0, 64, 127
2, 91777, Note_on_c, 0, 49, 45
2, 91783, Note_on_c, 0, 51, 0
2, 91789, Note_on_c, 0, 68, 45
2, 91801, Note_on_c, 0, 66, 0
2, 91814, Control_c, 0, 64, 0
2, 91908, Note_on_c, 0, 60, 0
2, 91908, Note_on_c, 0, 68, 0
2, 91919, Note_on_c, 0, 56, 43
2, 91944, Control_c, 0, 64, 127
2, 91949, Note_on_c, 0, 61, 70
2, 91977, Note_on_c, 0, 75, 0
2, 91977, Note_on_c, 0, 65, 41
2, 91980, Note_on_c, 0, 73, 42
2, 92003, Note_on_c, 0, 73, 0
2, 92003, Control_c, 0, 64, 0
2, 92021, Note_on_c, 0, 75, 44
2, 92046, Note_on_c, 0, 73, 54
2, 92049, Note_on_c, 0, 46, 47
2, 92055, Note_on_c, 0, 75, 0
2, 92128, Note_on_c, 0, 63, 47
2, 92130, Note_on_c, 0, 72, 51
2, 92139, Note_on_c, 0, 61, 0
2, 92139, Note_on_c, 0, 73, 0
2, 92142, Note_on_c, 0, 65, 0
2, 92145, Note_on_c, 0, 56, 0
2, 92203, Note_on_c, 0, 56, 42
2, 92208, Note_on_c, 0, 46, 0
2, 92212, Note_on_c, 0, 49, 0
2, 92217, Note_on_c, 0, 63, 0
2, 92230, Note_on_c, 0, 65, 72
2, 92250, Note_on_c, 0, 70, 48
2, 92253, Note_on_c, 0, 61, 45
2, 92262, Note_on_c, 0, 72, 0
2, 92280, Control_c, 0, 67, 127
2, 92367, Note_on_c, 0, 39, 46
2, 92372, Note_on_c, 0, 63, 43
2, 92384, Note_on_c, 0, 56, 0
2, 92527, Note_on_c, 0, 46, 53
2, 92540, Note_on_c, 0, 63, 0
2, 92544, Note_on_c, 0, 70, 0
2, 92547, Note_on_c, 0, 61, 0
2, 92585, Note_on_c, 0, 53, 41
2, 92595, Control_c, 0, 64, 127
2, 92595, Note_on_c, 0, 72, 60
2, 92600, Note_on_c, 0, 61, 41
2, 92620, Note_on_c, 0, 65, 0
2, 92648, Note_on_c, 0, 39, 0
2, 92706, Note_on_c, 0, 63, 47
2, 92709, Note_on_c, 0, 39, 48
2, 92746, Control_c, 0, 64, 0
2, 92764, Note_on_c, 0, 46, 0
2, 92818, Note_on_c, 0, 46, 53
2, 92876, Note_on_c, 0, 55, 72
2, 92888, Note_on_c, 0, 53, 0
2, 92924, Note_on_c, 0, 61, 0
2, 92962, Note_on_c, 0, 61, 44
2, 92972, Note_on_c, 0, 70, 64
2, 92984, Note_on_c, 0, 63, 0
2, 92984, Note_on_c, 0, 72, 0
2, 93074, Note_on_c, 0, 32, 41
2, 93076, Note_on_c, 0, 63, 41
2, 93081, Note_on_c, 0, 39, 0
2, 93083, Note_on_c, 0, 46, 0
2, 93089, Note_on_c, 0, 61, 0
2, 93098, Note_on_c, 0, 55, 0
2, 93209, Control_c, 0, 64, 127
2, 93226, Note_on_c, 0, 56, 47
2, 93254, Note_on_c, 0, 51, 45
2, 93259, Note_on_c, 0, 32, 0
2, 93259, Note_on_c, 0, 60, 42
2, 93261, Note_on_c, 0, 70, 0
2, 93263, Note_on_c, 0, 68, 43
2, 93273, Note_on_c, 0, 63, 0
2, 93295, Note_on_c, 0, 68, 0
2, 93297, Note_on_c, 0, 70, 41
2, 93315, Note_on_c, 0, 44, 45
2, 93318, Note_on_c, 0, 70, 0
2, 93323, Note_on_c, 0, 68, 58
2, 93331, Control_c, 0, 64, 0
2, 93434, Note_on_c, 0, 52, 42
2, 93437, Note_on_c, 0, 67, 48
2, 93443, Note_on_c, 0, 51, 0
2, 93446, Note_on_c, 0, 61, 48
2, 93452, Note_on_c, 0, 68, 0
2, 93452, Note_on_c, 0, 60, 0
2, 93562, Note_on_c, 0, 68, 48
2, 93565, Note_on_c, 0, 51, 45
2, 93567, Note_on_c, 0, 67, 0
2, 93573, Note_on_c, 0, 52, 0
2, 93575, Note_on_c, 0, 60, 47
2, 93589, Note_on_c, 0, 61, 0
2, 93606, Note_on_c, 0, 44, 0
2, 93662, Note_on_c, 0, 44, 48
2, 93716, Control_c, 0, 64, 127
2, 93759, Note_on_c, 0, 51, 0
2, 93765, Note_on_c, 0, 56, 0
2, 93797, Note_on_c, 0, 60, 0
2, 93815, Note_on_c, 0, 68, 0
2, 93817, Note_on_c, 0, 51, 48
2, 93817, Note_on_c, 0, 56, 47
2, 93827, Note_on_c, 0, 60, 41
2, 93841, Note_on_c, 0, 68, 45
2, 93860, Note_on_c, 0, 44, 0
2, 93875, Note_on_c, 0, 68, 0
2, 93881, Note_on_c, 0, 70, 42
2, 93898, Note_on_c, 0, 68, 50
2, 93900, Control_c, 0, 64, 0
2, 93911, Note_on_c, 0, 70, 0
2, 93916, Note_on_c, 0, 44, 42
2, 94017, Note_on_c, 0, 52, 42
2, 94027, Note_on_c, 0, 51, 0
2, 94029, Note_on_c, 0, 61, 47
2, 94029, Note_on_c, 0, 67, 45
2, 94043, Note_on_c, 0, 68, 0
2, 94043, Note_on_c, 0, 60, 0
2, 94149, Note_on_c, 0, 51, 41
2, 94163, Note_on_c, 0, 52, 0
2, 94165, Note_on_c, 0, 60, 45
2, 94167, Note_on_c, 0, 68, 45
2, 94179, Note_on_c, 0, 67, 0
2, 94182, Note_on_c, 0, 61, 0
2, 94210, Note_on_c, 0, 44, 0
2, 94271, Note_on_c, 0, 44, 45
2, 94385, Control_c, 0, 64, 127
2, 94392, Note_on_c, 0, 51, 0
2, 94420, Note_on_c, 0, 56, 0
2, 94443, Control_c, 0, 67, 0
2, 94449, Note_on_c, 0, 51, 47
2, 94455, Note_on_c, 0, 60, 0
2, 94467, Note_on_c, 0, 68, 0
2, 94473, Note_on_c, 0, 56, 46
2, 94484, Note_on_c, 0, 60, 46
2, 94502, Note_on_c, 0, 68, 56
2, 94524, Control_c, 0, 64, 0
2, 94562, Note_on_c, 0, 44, 0
2, 94601, Note_on_c, 0, 61, 48
2, 94616, Note_on_c, 0, 44, 43
2, 94619, Note_on_c, 0, 60, 0
2, 94748, Control_c, 0, 64, 127
2, 94788, Note_on_c, 0, 68, 0
2, 94788, Note_on_c, 0, 56, 0
2, 94811, Note_on_c, 0, 56, 47
2, 94817, Note_on_c, 0, 52, 45
2, 94822, Note_on_c, 0, 58, 45
2, 94822, Note_on_c, 0, 68, 71
2, 94829, Note_on_c, 0, 51, 0
2, 94857, Control_c, 0, 64, 0
2, 94918, Note_on_c, 0, 44, 0
2, 94960, Note_on_c, 0, 64, 49
2, 94977, Note_on_c, 0, 44, 50
2, 94987, Note_on_c, 0, 56, 0
2, 94987, Note_on_c, 0, 61, 0
2, 95120, Control_c, 0, 67, 127
2, 95133, Control_c, 0, 64, 127
2, 95159, Note_on_c, 0, 52, 0
2, 95197, Note_on_c, 0, 58, 0
2, 95212, Note_on_c, 0, 68, 0
2, 95217, Note_on_c, 0, 52, 48
2, 95223, Note_on_c, 0, 58, 48
2, 95238, Note_on_c, 0, 68, 54
2, 95244, Note_on_c, 0, 61, 41
2, 95280, Control_c, 0, 64, 0
2, 95304, Note_on_c, 0, 44, 0
2, 95362, Note_on_c, 0, 44, 42
2, 95376, Note_on_c, 0, 52, 0
2, 95379, Note_on_c, 0, 58, 0
2, 95384, Note_on_c, 0, 63, 61
2, 95400, Note_on_c, 0, 64, 0
2, 95400, Note_on_c, 0, 61, 0
2, 95604, Control_c, 0, 64, 127
2, 95655, Note_on_c, 0, 54, 44
2, 95672, Note_on_c, 0, 68, 0
2, 95700, Note_on_c, 0, 60, 41
2, 95708, Note_on_c, 0, 68, 52
2, 95734, Control_c, 0, 64, 0
2, 95908, Note_on_c, 0, 37, 54
2, 95913, Note_on_c, 0, 64, 48
2, 95916, Note_on_c, 0, 44, 0
2, 95921, Note_on_c, 0, 54, 0
2, 95926, Note_on_c, 0, 63, 0
2, 95928, Note_on_c, 0, 60, 0
2, 96006, Note_on_c, 0, 37, 0
2, 96024, Note_on_c, 0, 36, 46
2, 96031, Control_c, 0, 64, 127
2, 96054, Note_on_c, 0, 36, 0
2, 96060, Note_on_c, 0, 37, 41
2, 96075, Note_on_c, 0, 68, 0
2, 96108, Note_on_c, 0, 56, 49
2, 96108, Note_on_c, 0, 68, 65
2, 96110, Note_on_c, 0, 61, 48
2, 96112, Note_on_c, 0, 42, 47
2, 96117, Note_on_c, 0, 37, 0
2, 96122, Control_c, 0, 64, 0
2, 96158, Note_on_c, 0, 40, 46
2, 96168, Note_on_c, 0, 42, 0
2, 96206, Note_on_c, 0, 40, 0
2, 96214, Note_on_c, 0, 39, 61
2, 96243, Note_on_c, 0, 39, 0
2, 96243, Note_on_c, 0, 40, 59
2, 96279, Note_on_c, 0, 45, 61
2, 96309, Note_on_c, 0, 45, 0
2, 96316, Note_on_c, 0, 44, 46
2, 96319, Note_on_c, 0, 61, 0
2, 96324, Note_on_c, 0, 56, 0
2, 96327, Note_on_c, 0, 64, 0
2, 96335, Note_on_c, 0, 68, 0
2, 96336, Note_on_c, 0, 40, 0
2, 96351, Note_on_c, 0, 44, 0
2, 96363, Note_on_c, 0, 61, 42
2, 96363, Note_on_c, 0, 64, 43
2, 96365, Note_on_c, 0, 43, 43
2, 96367, Note_on_c, 0, 73, 66
2, 96370, Control_c, 0, 64, 127
2, 96392, Note_on_c, 0, 43, 0
2, 96400, Note_on_c, 0, 44, 60
2, 96423, Note_on_c, 0, 51, 67
2, 96428, Note_on_c, 0, 44, 0
2, 96457, Note_on_c, 0, 51, 0
2, 96459, Control_c, 0, 64, 0
2, 96462, Note_on_c, 0, 61, 0
2, 96468, Note_on_c, 0, 49, 43
2, 96471, Note_on_c, 0, 64, 0
2, 96501, Note_on_c, 0, 61, 56
2, 96503, Note_on_c, 0, 71, 56
2, 96504, Note_on_c, 0, 64, 55
2, 96506, Note_on_c, 0, 49, 0
2, 96509, Note_on_c, 0, 48, 57
2, 96514, Note_on_c, 0, 73, 0
2, 96527, Note_on_c, 0, 48, 0
2, 96529, Note_on_c, 0, 49, 59
2, 96552, Note_on_c, 0, 49, 0
2, 96556, Note_on_c, 0, 61, 0
2, 96569, Note_on_c, 0, 64, 0
2, 96583, Note_on_c, 0, 60, 63
2, 96585, Note_on_c, 0, 66, 57
2, 96588, Note_on_c, 0, 69, 59
2, 96593, Note_on_c, 0, 50, 63
2, 96596, Note_on_c, 0, 71, 0
2, 96610, Note_on_c, 0, 50, 0
2, 96618, Note_on_c, 0, 66, 0
2, 96618, Note_on_c, 0, 51, 56
2, 96621, Note_on_c, 0, 60, 0
2, 96655, Note_on_c, 0, 68, 62
2, 96663, Note_on_c, 0, 61, 57
2, 96666, Note_on_c, 0, 52, 63
2, 96666, Note_on_c, 0, 56, 58
2, 96668, Note_on_c, 0, 51, 0
2, 96670, Note_on_c, 0, 69, 0
2, 96692, Note_on_c, 0, 56, 0
2, 96710, Note_on_c, 0, 52, 0
2, 96716, Note_on_c, 0, 53, 61
2, 96718, Note_on_c, 0, 61, 0
2, 96747, Note_on_c, 0, 54, 62
2, 96747, Note_on_c, 0, 64, 57
2, 96749, Note_on_c, 0, 53, 0
2, 96751, Note_on_c, 0, 61, 59
2, 96773, Note_on_c, 0, 68, 0
2, 96778, Note_on_c, 0, 54, 0
2, 96784, Note_on_c, 0, 55, 56
2, 96790, Note_on_c, 0, 61, 0
2, 96817, Note_on_c, 0, 56, 56
2, 96822, Note_on_c, 0, 61, 60
2, 96822, Note_on_c, 0, 66, 57
2, 96832, Note_on_c, 0, 55, 0
2, 96846, Note_on_c, 0, 64, 0
2, 96864, Note_on_c, 0, 56, 0
2, 96865, Note_on_c, 0, 57, 57
2, 96884, Note_on_c, 0, 61, 0
2, 96896, Note_on_c, 0, 57, 0
2, 96901, Note_on_c, 0, 66, 0
2, 96901, Note_on_c, 0, 56, 57
2, 96904, Note_on_c, 0, 49, 58
2, 96913, Note_on_c, 0, 61, 62
2, 96913, Note_on_c, 0, 64, 59
2, 96913, Note_on_c, 0, 68, 69
2, 96987, Note_on_c, 0, 61, 0
2, 97003, Note_on_c, 0, 60, 59
2, 97037, Note_on_c, 0, 49, 0
2, 97039, Note_on_c, 0, 56, 0
2, 97041, Note_on_c, 0, 61, 60
2, 97046, Note_on_c, 0, 60, 0
2, 97049, Note_on_c, 0, 68, 0
2, 97052, Note_on_c, 0, 64, 0
2, 97067, Note_on_c, 0, 61, 0
2, 97070, Note_on_c, 0, 63, 59
2, 97080, Note_on_c, 0, 68, 62
2, 97083, Note_on_c, 0, 64, 61
2, 97102, Note_on_c, 0, 61, 55
2, 97104, Note_on_c, 0, 63, 0
2, 97142, Note_on_c, 0, 59, 54
2, 97150, Note_on_c, 0, 61, 0
2, 97180, Note_on_c, 0, 59, 0
2, 97182, Note_on_c, 0, 60, 61
2, 97184, Control_c, 0, 64, 127
2, 97209, Note_on_c, 0, 60, 0
2, 97217, Note_on_c, 0, 62, 63
2, 97239, Note_on_c, 0, 62, 0
2, 97247, Note_on_c, 0, 60, 45
2, 97249, Note_on_c, 0, 68, 0
2, 97254, Note_on_c, 0, 64, 0
2, 97267, Note_on_c, 0, 60, 0
2, 97282, Note_on_c, 0, 62, 42
2, 97284, Note_on_c, 0, 64, 42
2, 97284, Note_on_c, 0, 68, 59
2, 97310, Note_on_c, 0, 60, 41
2, 97313, Note_on_c, 0, 62, 0
2, 97339, Note_on_c, 0, 58, 42
2, 97342, Note_on_c, 0, 60, 0
2, 97374, Note_on_c, 0, 58, 0
2, 97379, Note_on_c, 0, 68, 0
2, 97379, Note_on_c, 0, 64, 0
2, 97379, Note_on_c, 0, 59, 47
2, 97399, Note_on_c, 0, 59, 0
2, 97407, Note_on_c, 0, 61, 50
2, 97416, Note_on_c, 0, 68, 60
2, 97419, Note_on_c, 0, 64, 52
2, 97429, Control_c, 0, 64, 0
2, 97446, Note_on_c, 0, 61, 0
2, 97449, Note_on_c, 0, 59, 44
2, 97471, Note_on_c, 0, 68, 0
2, 97476, Note_on_c, 0, 61, 44
2, 97478, Note_on_c, 0, 59, 0
2, 97481, Note_on_c, 0, 64, 0
2, 97501, Note_on_c, 0, 66, 56
2, 97503, Note_on_c, 0, 64, 46
2, 97503, Note_on_c, 0, 69, 58
2, 97506, Note_on_c, 0, 61, 0
2, 97520, Note_on_c, 0, 59, 42
2, 97550, Note_on_c, 0, 66, 0
2, 97553, Note_on_c, 0, 69, 0
2, 97553, Note_on_c, 0, 64, 0
2, 97573, Note_on_c, 0, 59, 0
2, 97585, Note_on_c, 0, 47, 46
2, 97588, Note_on_c, 0, 63, 41
2, 97588, Note_on_c, 0, 69, 57
2, 97588, Note_on_c, 0, 71, 58
2, 97621, Note_on_c, 0, 47, 0
2, 97626, Note_on_c, 0, 71, 0
2, 97626, Note_on_c, 0, 69, 0
2, 97631, Note_on_c, 0, 63, 0
2, 97679, Note_on_c, 0, 49, 48
2, 97684, Note_on_c, 0, 57, 44
2, 97687, Note_on_c, 0, 64, 43
2, 97707, Note_on_c, 0, 49, 0
2, 97723, Note_on_c, 0, 47, 46
2, 97741, Note_on_c, 0, 64, 0
2, 97741, Note_on_c, 0, 57, 0
2, 97743, Note_on_c, 0, 47, 0
2, 97758, Note_on_c, 0, 49, 44
2, 97766, Note_on_c, 0, 57, 45
2, 97766, Note_on_c, 0, 59, 45
2, 97766, Note_on_c, 0, 63, 45
2, 97769, Note_on_c, 0, 66, 60
2, 97791, Note_on_c, 0, 49, 0
2, 97797, Note_on_c, 0, 47, 46
2, 97815, Note_on_c, 0, 59, 0
2, 97818, Note_on_c, 0, 63, 0
2, 97818, Note_on_c, 0, 57, 0
2, 97823, Note_on_c, 0, 66, 0
2, 97827, Note_on_c, 0, 47, 0
2, 97846, Note_on_c, 0, 40, 48
2, 97868, Note_on_c, 0, 59, 45
2, 97868, Note_on_c, 0, 64, 43
2, 97868, Note_on_c, 0, 68, 64
2, 97870, Note_on_c, 0, 56, 41
2, 97879, Note_on_c, 0, 40, 0
2, 97920, Control_c, 0, 67, 0
2, 97977, Note_on_c, 0, 45, 43
2, 97979, Note_on_c, 0, 56, 0
2, 97982, Note_on_c, 0, 59, 0
2, 97988, Note_on_c, 0, 68, 0
2, 97988, Note_on_c, 0, 64, 0
2, 98013, Note_on_c, 0, 45, 0
2, 98022, Note_on_c, 0, 44, 45
2, 98057, Note_on_c, 0, 44, 0
2, 98059, Note_on_c, 0, 39, 42
2, 98062, Note_on_c, 0, 66, 46
2, 98064, Note_on_c, 0, 56, 44
2, 98065, Note_on_c, 0, 68, 46
2, 98073, Note_on_c, 0, 60, 47
2, 98090, Note_on_c, 0, 39, 0
2, 98103, Note_on_c, 0, 44, 46
2, 98121, Note_on_c, 0, 44, 0
2, 98131, Note_on_c, 0, 37, 41
2, 98153, Note_on_c, 0, 37, 0
2, 98165, Note_on_c, 0, 44, 41
2, 98175, Note_on_c, 0, 56, 0
2, 98178, Note_on_c, 0, 66, 0
2, 98180, Note_on_c, 0, 44, 0
2, 98182, Note_on_c, 0, 60, 0
2, 98186, Note_on_c, 0, 68, 0
2, 98201, Note_on_c, 0, 43, 45
2, 98227, Note_on_c, 0, 43, 0
2, 98234, Note_on_c, 0, 44, 46
2, 98260, Note_on_c, 0, 44, 0
2, 98262, Note_on_c, 0, 51, 41
2, 98270, Note_on_c, 0, 64, 48
2, 98276, Note_on_c, 0, 56, 42
2, 98276, Note_on_c, 0, 61, 45
2, 98279, Note_on_c, 0, 68, 51
2, 98299, Note_on_c, 0, 51, 0
2, 98304, Note_on_c, 0, 49, 46
2, 98322, Note_on_c, 0, 49, 0
2, 98331, Note_on_c, 0, 56, 0
2, 98346, Note_on_c, 0, 48, 47
2, 98352, Note_on_c, 0, 61, 0
2, 98354, Note_on_c, 0, 64, 0
2, 98362, Note_on_c, 0, 48, 0
2, 98375, Note_on_c, 0, 49, 46
2, 98395, Note_on_c, 0, 49, 0
2, 98413, Note_on_c, 0, 54, 47
2, 98443, Note_on_c, 0, 54, 0
2, 98445, Note_on_c, 0, 52, 44
2, 98460, Note_on_c, 0, 68, 0
2, 98470, Note_on_c, 0, 52, 0
2, 98475, Note_on_c, 0, 51, 44
2, 98478, Note_on_c, 0, 61, 46
2, 98478, Note_on_c, 0, 64, 42
2, 98478, Note_on_c, 0, 73, 55
2, 98501, Note_on_c, 0, 51, 0
2, 98504, Note_on_c, 0, 52, 47
2, 98530, Note_on_c, 0, 52, 0
2, 98535, Note_on_c, 0, 57, 51
2, 98553, Note_on_c, 0, 73, 0
2, 98553, Note_on_c, 0, 61, 0
2, 98566, Note_on_c, 0, 57, 0
2, 98571, Note_on_c, 0, 56, 44
2, 98579, Note_on_c, 0, 64, 0
2, 98592, Note_on_c, 0, 56, 0
2, 98604, Note_on_c, 0, 55, 44
2, 98621, Note_on_c, 0, 64, 46
2, 98624, Note_on_c, 0, 71, 58
2, 98632, Note_on_c, 0, 61, 47
2, 98635, Note_on_c, 0, 56, 46
2, 98642, Note_on_c, 0, 55, 0
2, 98660, Note_on_c, 0, 61, 0
2, 98660, Note_on_c, 0, 56, 0
2, 98660, Note_on_c, 0, 71, 0
2, 98683, Note_on_c, 0, 63, 53
2, 98683, Note_on_c, 0, 69, 57
2, 98717, Note_on_c, 0, 69, 0
2, 98720, Note_on_c, 0, 63, 0
2, 98720, Note_on_c, 0, 61, 46
2, 98735, Note_on_c, 0, 64, 0
2, 98740, Note_on_c, 0, 61, 0
2, 98751, Note_on_c, 0, 60, 45
2, 98753, Note_on_c, 0, 64, 48
2, 98753, Note_on_c, 0, 68, 57
2, 98775, Note_on_c, 0, 68, 0
2, 98775, Note_on_c, 0, 64, 0
2, 98785, Note_on_c, 0, 61, 51
2, 98788, Note_on_c, 0, 60, 0
2, 98811, Note_on_c, 0, 68, 61
2, 98816, Note_on_c, 0, 61, 0
2, 98818, Note_on_c, 0, 62, 46
2, 98843, Note_on_c, 0, 68, 0
2, 98849, Note_on_c, 0, 63, 51
2, 98851, Note_on_c, 0, 62, 0
2, 98871, Note_on_c, 0, 68, 57
2, 98871, Note_on_c, 0, 70, 62
2, 98874, Note_on_c, 0, 63, 0
2, 98874, Note_on_c, 0, 66, 64
2, 98902, Note_on_c, 0, 64, 48
2, 98911, Note_on_c, 0, 68, 0
2, 98914, Note_on_c, 0, 66, 0
2, 98917, Note_on_c, 0, 70, 0
2, 98939, Note_on_c, 0, 68, 62
2, 98944, Note_on_c, 0, 71, 63
2, 98947, Note_on_c, 0, 62, 45
2, 98949, Note_on_c, 0, 64, 0
2, 98978, Note_on_c, 0, 63, 49
2, 98986, Note_on_c, 0, 62, 0
2, 99004, Note_on_c, 0, 64, 48
2, 99006, Note_on_c, 0, 63, 0
2, 99019, Note_on_c, 0, 71, 0
2, 99024, Note_on_c, 0, 68, 0
2, 99028, Note_on_c, 0, 63, 51
2, 99046, Note_on_c, 0, 64, 0
2, 99071, Note_on_c, 0, 61, 50
2, 99071, Note_on_c, 0, 64, 45
2, 99071, Note_on_c, 0, 68, 61
2, 99073, Note_on_c, 0, 63, 0
2, 99073, Note_on_c, 0, 76, 59
2, 99099, Note_on_c, 0, 64, 0
2, 99109, Note_on_c, 0, 56, 46
2, 99117, Note_on_c, 0, 61, 0
2, 99139, Note_on_c, 0, 56, 0
2, 99144, Note_on_c, 0, 58, 47
2, 99144, Note_on_c, 0, 63, 48
2, 99153, Note_on_c, 0, 75, 63
2, 99168, Note_on_c, 0, 76, 0
2, 99173, Note_on_c, 0, 59, 50
2, 99175, Note_on_c, 0, 58, 0
2, 99185, Note_on_c, 0, 75, 0
2, 99187, Note_on_c, 0, 63, 0
2, 99192, Note_on_c, 0, 68, 0
2, 99214, Note_on_c, 0, 59, 0
2, 99223, Note_on_c, 0, 61, 45
2, 99258, Note_on_c, 0, 59, 46
2, 99265, Note_on_c, 0, 61, 0
2, 99296, Note_on_c, 0, 59, 0
2, 99296, Note_on_c, 0, 71, 56
2, 99298, Note_on_c, 0, 56, 47
2, 99311, Note_on_c, 0, 63, 45
2, 99311, Note_on_c, 0, 75, 57
2, 99312, Note_on_c, 0, 68, 55
2, 99317, Note_on_c, 0, 56, 0
2, 99340, Note_on_c, 0, 47, 47
2, 99348, Control_c, 0, 64, 127
2, 99402, Note_on_c, 0, 47, 0
2, 99404, Note_on_c, 0, 51, 42
2, 99413, Note_on_c, 0, 70, 60
2, 99424, Note_on_c, 0, 71, 0
2, 99441, Control_c, 0, 64, 0
2, 99506, Note_on_c, 0, 51, 0
2, 99528, Note_on_c, 0, 52, 41
2, 99543, Note_on_c, 0, 70, 0
2, 99551, Note_on_c, 0, 75, 0
2, 99552, Note_on_c, 0, 63, 0
2, 99554, Note_on_c, 0, 52, 0
2, 99559, Note_on_c, 0, 68, 0
2, 99565, Note_on_c, 0, 51, 44
2, 99582, Note_on_c, 0, 70, 53
2, 99588, Note_on_c, 0, 51, 0
2, 99590, Note_on_c, 0, 61, 46
2, 99590, Note_on_c, 0, 63, 47
2, 99592, Note_on_c, 0, 67, 58
2, 99592, Note_on_c, 0, 75, 60
2, 99602, Note_on_c, 0, 52, 41
2, 99628, Note_on_c, 0, 52, 0
2, 99633, Note_on_c, 0, 51, 43
2, 99639, Note_on_c, 0, 67, 0
2, 99645, Note_on_c, 0, 61, 0
2, 99648, Note_on_c, 0, 70, 0
2, 99648, Note_on_c, 0, 63, 0
2, 99694, Note_on_c, 0, 51, 0
2, 99696, Note_on_c, 0, 44, 42
2, 99712, Note_on_c, 0, 80, 54
2, 99721, Note_on_c, 0, 75, 0
2, 99764, Note_on_c, 0, 68, 53
2, 99782, Control_c, 0, 64, 127
2, 99785, Note_on_c, 0, 80, 0
2, 99819, Note_on_c, 0, 80, 50
2, 99837, Note_on_c, 0, 80, 0
2, 99862, Control_c, 0, 64, 0
2, 99866, Note_on_c, 0, 80, 49
2, 99879, Note_on_c, 0, 63, 63
2, 99881, Note_on_c, 0, 80, 0
2, 99881, Note_on_c, 0, 92, 53
2, 99891, Note_on_c, 0, 54, 63
2, 99891, Note_on_c, 0, 56, 64
2, 99913, Note_on_c, 0, 80, 53
2, 99926, Note_on_c, 0, 92, 0
2, 99932, Note_on_c, 0, 80, 0
2, 99955, Note_on_c, 0, 68, 0
2, 99960, Note_on_c, 0, 80, 47
2, 99975, Note_on_c, 0, 80, 0
2, 99993, Note_on_c, 0, 68, 48
2, 100031, Note_on_c, 0, 80, 47
2, 100045, Note_on_c, 0, 80, 0
2, 100063, Control_c, 0, 64, 127
2, 100076, Note_on_c, 0, 80, 50
2, 100081, Note_on_c, 0, 56, 0
2, 100091, Note_on_c, 0, 80, 0
2, 100094, Note_on_c, 0, 61, 55
2, 100099, Note_on_c, 0, 92, 49
2, 100113, Note_on_c, 0, 54, 0
2, 100115, Control_c, 0, 64, 0
2, 100115, Note_on_c, 0, 52, 50
2, 100115, Note_on_c, 0, 56, 53
2, 100117, Note_on_c, 0, 63, 0
2, 100131, Note_on_c, 0, 80, 50
2, 100137, Note_on_c, 0, 68, 0
2, 100142, Note_on_c, 0, 80, 0
2, 100147, Note_on_c, 0, 92, 0
2, 100175, Note_on_c, 0, 80, 55
2, 100195, Note_on_c, 0, 80, 0
2, 100200, Note_on_c, 0, 68, 52
2, 100236, Note_on_c, 0, 80, 52
2, 100248, Note_on_c, 0, 80, 0
2, 100281, Note_on_c, 0, 80, 55
2, 100291, Note_on_c, 0, 59, 47
2, 100300, Note_on_c, 0, 80, 0
2, 100305, Note_on_c, 0, 61, 0
2, 100308, Note_on_c, 0, 51, 46
2, 100310, Note_on_c, 0, 52, 0
2, 100310, Note_on_c, 0, 92, 56
2, 100312, Note_on_c, 0, 54, 48
2, 100320, Note_on_c, 0, 56, 0
2, 100332, Note_on_c, 0, 80, 52
2, 100346, Control_c, 0, 64, 127
2, 100348, Note_on_c, 0, 80, 0
2, 100353, Note_on_c, 0, 92, 0
2, 100361, Note_on_c, 0, 68, 0
2, 100376, Note_on_c, 0, 57, 48
2, 100382, Note_on_c, 0, 80, 50
2, 100390, Note_on_c, 0, 51, 0
2, 100390, Note_on_c, 0, 54, 0
2, 100392, Note_on_c, 0, 59, 0
2, 100394, Note_on_c, 0, 49, 50
2, 100405, Note_on_c, 0, 80, 0
2, 100411, Note_on_c, 0, 68, 49
2, 100421, Control_c, 0, 64, 0
2, 100441, Note_on_c, 0, 80, 56
2, 100443, Note_on_c, 0, 52, 62
2, 100458, Note_on_c, 0, 57, 0
2, 100465, Note_on_c, 0, 80, 0
2, 100498, Note_on_c, 0, 80, 56
2, 100500, Note_on_c, 0, 44, 0
2, 100518, Note_on_c, 0, 80, 0
2, 100518, Note_on_c, 0, 54, 63
2, 100528, Note_on_c, 0, 92, 54
2, 100550, Note_on_c, 0, 80, 55
2, 100562, Control_c, 0, 67, 127
2, 100573, Note_on_c, 0, 80, 0
2, 100578, Note_on_c, 0, 92, 0
2, 100580, Note_on_c, 0, 68, 0
2, 100594, Note_on_c, 0, 56, 47
2, 100602, Note_on_c, 0, 80, 54
2, 100604, Note_on_c, 0, 54, 0
2, 100604, Note_on_c, 0, 52, 0
2, 100604, Note_on_c, 0, 48, 47
2, 100607, Note_on_c, 0, 44, 51
2, 100608, Note_on_c, 0, 49, 0
2, 100618, Note_on_c, 0, 80, 0
2, 100629, Note_on_c, 0, 68, 57
2, 100677, Note_on_c, 0, 80, 58
2, 100680, Control_c, 0, 64, 127
2, 100690, Note_on_c, 0, 80, 0
2, 100712, Note_on_c, 0, 80, 58
2, 100718, Note_on_c, 0, 56, 0
2, 100728, Note_on_c, 0, 80, 0
2, 100736, Note_on_c, 0, 63, 66
2, 100744, Note_on_c, 0, 92, 56
2, 100750, Control_c, 0, 64, 0
2, 100750, Note_on_c, 0, 56, 63
2, 100755, Note_on_c, 0, 54, 67
2, 100771, Note_on_c, 0, 80, 50
2, 100785, Note_on_c, 0, 68, 0
2, 100788, Note_on_c, 0, 80, 0
2, 100790, Note_on_c, 0, 92, 0
2, 100815, Note_on_c, 0, 80, 57
2, 100832, Note_on_c, 0, 80, 0
2, 100845, Note_on_c, 0, 68, 53
2, 100880, Note_on_c, 0, 80, 50
2, 100893, Note_on_c, 0, 80, 0
2, 100903, Note_on_c, 0, 56, 0
2, 100914, Note_on_c, 0, 63, 0
2, 100914, Control_c, 0, 64, 127
2, 100920, Note_on_c, 0, 80, 52
2, 100940, Note_on_c, 0, 80, 0
2, 100942, Note_on_c, 0, 61, 52
2, 100949, Note_on_c, 0, 92, 52
2, 100955, Note_on_c, 0, 56, 57
2, 100957, Note_on_c, 0, 48, 0
2, 100962, Control_c, 0, 64, 0
2, 100962, Note_on_c, 0, 52, 53
2, 100964, Note_on_c, 0, 54, 0
2, 100974, Note_on_c, 0, 80, 52
2, 100984, Note_on_c, 0, 68, 0
2, 100993, Note_on_c, 0, 80, 0
2, 100996, Note_on_c, 0, 92, 0
2, 101022, Note_on_c, 0, 80, 55
2, 101044, Note_on_c, 0, 68, 52
2, 101046, Note_on_c, 0, 80, 0
2, 101077, Note_on_c, 0, 80, 53
2, 101097, Note_on_c, 0, 80, 0
2, 101122, Note_on_c, 0, 80, 50
2, 101136, Note_on_c, 0, 59, 49
2, 101141, Note_on_c, 0, 80, 0
2, 101147, Note_on_c, 0, 92, 55
2, 101152, Note_on_c, 0, 52, 0
2, 101152, Note_on_c, 0, 56, 0
2, 101155, Note_on_c, 0, 61, 0
2, 101157, Note_on_c, 0, 51, 44
2, 101157, Note_on_c, 0, 54, 49
2, 101179, Control_c, 0, 64, 127
2, 101182, Note_on_c, 0, 80, 55
2, 101184, Note_on_c, 0, 68, 0
2, 101193, Note_on_c, 0, 92, 0
2, 101193, Note_on_c, 0, 80, 0
2, 101219, Note_on_c, 0, 57, 42
2, 101221, Note_on_c, 0, 80, 53
2, 101231, Note_on_c, 0, 51, 0
2, 101231, Note_on_c, 0, 54, 0
2, 101231, Control_c, 0, 64, 0
2, 101232, Note_on_c, 0, 59, 0
2, 101232, Note_on_c, 0, 49, 49
2, 101243, Note_on_c, 0, 80, 0
2, 101254, Note_on_c, 0, 68, 53
2, 101281, Note_on_c, 0, 52, 61
2, 101286, Note_on_c, 0, 80, 50
2, 101304, Control_c, 0, 67, 0
2, 101309, Note_on_c, 0, 80, 0
2, 101337, Note_on_c, 0, 80, 54
2, 101342, Note_on_c, 0, 44, 0
2, 101342, Note_on_c, 0, 54, 59
2, 101348, Note_on_c, 0, 80, 0
2, 101353, Note_on_c, 0, 92, 48
2, 101378, Note_on_c, 0, 80, 49
2, 101396, Note_on_c, 0, 92, 0
2, 101399, Note_on_c, 0, 80, 0
2, 101406, Note_on_c, 0, 68, 0
2, 101426, Note_on_c, 0, 32, 58
2, 101431, Note_on_c, 0, 44, 60
2, 101434, Note_on_c, 0, 80, 53
2, 101439, Note_on_c, 0, 52, 0
2, 101439, Note_on_c, 0, 57, 0
2, 101439, Note_on_c, 0, 49, 0
2, 101439, Note_on_c, 0, 54, 0
2, 101448, Note_on_c, 0, 80, 0
2, 101454, Note_on_c, 0, 68, 47
2, 101495, Note_on_c, 0, 80, 51
2, 101515, Control_c, 0, 64, 127
2, 101518, Note_on_c, 0, 80, 0
2, 101544, Note_on_c, 0, 80, 47
2, 101561, Note_on_c, 0, 80, 0
2, 101564, Note_on_c, 0, 56, 51
2, 101576, Note_on_c, 0, 48, 52
2, 101576, Note_on_c, 0, 92, 51
2, 101578, Note_on_c, 0, 51, 50
2, 101583, Control_c, 0, 64, 0
2, 101592, Note_on_c, 0, 80, 52
2, 101618, Note_on_c, 0, 80, 0
2, 101620, Note_on_c, 0, 92, 0
2, 101638, Note_on_c, 0, 80, 51
2, 101645, Note_on_c, 0, 68, 0
2, 101651, Note_on_c, 0, 80, 0
2, 101665, Note_on_c, 0, 68, 50
2, 101715, Note_on_c, 0, 80, 49
2, 101725, Control_c, 0, 64, 127
2, 101731, Note_on_c, 0, 80, 0
2, 101749, Note_on_c, 0, 58, 44
2, 101752, Note_on_c, 0, 80, 48
2, 101758, Note_on_c, 0, 48, 0
2, 101760, Note_on_c, 0, 52, 44
2, 101762, Note_on_c, 0, 56, 0
2, 101762, Note_on_c, 0, 51, 0
2, 101762, Note_on_c, 0, 49, 45
2, 101770, Note_on_c, 0, 80, 0
2, 101770, Control_c, 0, 64, 0
2, 101775, Note_on_c, 0, 92, 55
2, 101801, Note_on_c, 0, 80, 49
2, 101804, Note_on_c, 0, 68, 0
2, 101818, Note_on_c, 0, 92, 0
2, 101821, Note_on_c, 0, 80, 0
2, 101843, Note_on_c, 0, 80, 50
2, 101868, Note_on_c, 0, 80, 0
2, 101870, Note_on_c, 0, 68, 50
2, 101910, Note_on_c, 0, 80, 49
2, 101926, Note_on_c, 0, 80, 0
2, 101944, Control_c, 0, 64, 127
2, 101950, Note_on_c, 0, 80, 49
2, 101959, Note_on_c, 0, 52, 0
2, 101974, Note_on_c, 0, 80, 0
2, 101976, Note_on_c, 0, 61, 43
2, 101977, Note_on_c, 0, 49, 0
2, 101977, Note_on_c, 0, 92, 51
2, 101987, Note_on_c, 0, 52, 45
2, 101990, Note_on_c, 0, 56, 47
2, 101995, Note_on_c, 0, 58, 0
2, 102007, Note_on_c, 0, 80, 54
2, 102010, Control_c, 0, 64, 0
2, 102023, Note_on_c, 0, 92, 0
2, 102024, Note_on_c, 0, 80, 0
2, 102029, Note_on_c, 0, 68, 0
2, 102054, Note_on_c, 0, 80, 53
2, 102072, Note_on_c, 0, 80, 0
2, 102080, Note_on_c, 0, 68, 53
2, 102116, Note_on_c, 0, 80, 53
2, 102136, Note_on_c, 0, 80, 0
2, 102146, Control_c, 0, 64, 127
2, 102157, Note_on_c, 0, 80, 51
2, 102172, Note_on_c, 0, 56, 0
2, 102174, Note_on_c, 0, 80, 0
2, 102179, Note_on_c, 0, 60, 51
2, 102193, Note_on_c, 0, 52, 0
2, 102193, Control_c, 0, 64, 0
2, 102193, Note_on_c, 0, 92, 58
2, 102195, Note_on_c, 0, 56, 45
2, 102197, Note_on_c, 0, 51, 49
2, 102200, Note_on_c, 0, 61, 0
2, 102213, Note_on_c, 0, 44, 0
2, 102220, Note_on_c, 0, 80, 55
2, 102238, Note_on_c, 0, 68, 0
2, 102240, Note_on_c, 0, 92, 0
2, 102242, Note_on_c, 0, 80, 0
2, 102263, Note_on_c, 0, 80, 54
2, 102275, Note_on_c, 0, 44, 52
2, 102281, Note_on_c, 0, 80, 0
2, 102291, Note_on_c, 0, 68, 58
2, 102334, Note_on_c, 0, 80, 48
2, 102338, Note_on_c, 0, 56, 0
2, 102349, Note_on_c, 0, 80, 0
2, 102377, Note_on_c, 0, 80, 46
2, 102382, Control_c, 0, 64, 127
2, 102384, Note_on_c, 0, 51, 0
2, 102387, Note_on_c, 0, 80, 0
2, 102398, Note_on_c, 0, 60, 0
2, 102400, Note_on_c, 0, 58, 50
2, 102410, Note_on_c, 0, 92, 49
2, 102412, Note_on_c, 0, 49, 51
2, 102412, Note_on_c, 0, 56, 50
2, 102417, Note_on_c, 0, 44, 0
2, 102430, Control_c, 0, 64, 0
2, 102445, Note_on_c, 0, 80, 47
2, 102457, Note_on_c, 0, 92, 0
2, 102459, Note_on_c, 0, 80, 0
2, 102469, Note_on_c, 0, 68, 0
2, 102486, Note_on_c, 0, 44, 57
2, 102494, Note_on_c, 0, 80, 54
2, 102508, Note_on_c, 0, 80, 0
2, 102526, Note_on_c, 0, 68, 53
2, 102561, Note_on_c, 0, 80, 55
2, 102576, Note_on_c, 0, 80, 0
2, 102583, Note_on_c, 0, 56, 0
2, 102583, Control_c, 0, 64, 127
2, 102611, Note_on_c, 0, 80, 55
2, 102622, Note_on_c, 0, 80, 0
2, 102624, Note_on_c, 0, 60, 51
2, 102640, Note_on_c, 0, 58, 0
2, 102642, Note_on_c, 0, 49, 0
2, 102642, Control_c, 0, 64, 0
2, 102642, Note_on_c, 0, 51, 54
2, 102642, Note_on_c, 0, 56, 55
2, 102649, Note_on_c, 0, 92, 55
2, 102655, Note_on_c, 0, 44, 0
2, 102681, Note_on_c, 0, 80, 60
2, 102692, Note_on_c, 0, 80, 0
2, 102692, Note_on_c, 0, 92, 0
2, 102699, Note_on_c, 0, 68, 0
2, 102717, Note_on_c, 0, 44, 60
2, 102724, Note_on_c, 0, 80, 56
2, 102740, Note_on_c, 0, 80, 0
2, 102765, Note_on_c, 0, 68, 65
2, 102799, Note_on_c, 0, 80, 66
2, 102812, Note_on_c, 0, 80, 0
2, 102817, Control_c, 0, 64, 127
2, 102836, Note_on_c, 0, 60, 0
2, 102841, Note_on_c, 0, 56, 0
2, 102843, Note_on_c, 0, 80, 66
2, 102856, Note_on_c, 0, 80, 0
2, 102859, Note_on_c, 0, 64, 49
2, 102869, Note_on_c, 0, 56, 51
2, 102869, Note_on_c, 0, 60, 55
2, 102874, Note_on_c, 0, 51, 0
2, 102874, Note_on_c, 0, 54, 55
2, 102880, Note_on_c, 0, 92, 66
2, 102883, Control_c, 0, 64, 0
2, 102897, Note_on_c, 0, 32, 0
2, 102922, Note_on_c, 0, 44, 0
2, 102922, Note_on_c, 0, 80, 66
2, 102927, Note_on_c, 0, 92, 0
2, 102935, Note_on_c, 0, 80, 0
2, 102955, Note_on_c, 0, 68, 0
2, 102977, Note_on_c, 0, 44, 61
2, 102979, Note_on_c, 0, 80, 63
2, 102986, Note_on_c, 0, 32, 60
2, 102989, Note_on_c, 0, 80, 0
2, 103019, Note_on_c, 0, 68, 73
2, 103059, Note_on_c, 0, 80, 74
2, 103074, Note_on_c, 0, 80, 0
2, 103102, Note_on_c, 0, 54, 0
2, 103114, Note_on_c, 0, 80, 74
2, 103128, Note_on_c, 0, 56, 0
2, 103130, Control_c, 0, 64, 127
2, 103132, Note_on_c, 0, 60, 0
2, 103167, Note_on_c, 0, 63, 54
2, 103177, Note_on_c, 0, 92, 72
2, 103182, Note_on_c, 0, 56, 59
2, 103182, Note_on_c, 0, 60, 53
2, 103184, Note_on_c, 0, 54, 55
2, 103192, Note_on_c, 0, 64, 0
2, 103204, Note_on_c, 0, 80, 0
2, 103224, Control_c, 0, 64, 0
2, 103230, Note_on_c, 0, 80, 74
2, 103273, Note_on_c, 0, 54, 0
2, 103275, Note_on_c, 0, 32, 0
2, 103278, Note_on_c, 0, 44, 0
2, 103281, Note_on_c, 0, 68, 0
2, 103283, Note_on_c, 0, 63, 0
2, 103289, Note_on_c, 0, 60, 0
2, 103289, Note_on_c, 0, 92, 0
2, 103292, Note_on_c, 0, 80, 0
2, 103317, Note_on_c, 0, 37, 80
2, 103317, Note_on_c, 0, 49, 81
2, 103322, Control_c, 0, 64, 127
2, 103324, Note_on_c, 0, 73, 73
2, 103324, Note_on_c, 0, 76, 73
2, 103324, Note_on_c, 0, 80, 75
2, 103355, Note_on_c, 0, 73, 0
2, 103360, Note_on_c, 0, 76, 0
2, 103366, Note_on_c, 0, 80, 0
2, 103366, Note_on_c, 0, 68, 79
2, 103403, Note_on_c, 0, 73, 76
2, 103406, Note_on_c, 0, 76, 75
2, 103409, Note_on_c, 0, 80, 80
2, 103416, Control_c, 0, 64, 0
2, 103418, Note_on_c, 0, 56, 0
2, 103420, Note_on_c, 0, 80, 0
2, 103461, Note_on_c, 0, 80, 81
2, 103471, Note_on_c, 0, 61, 70
2, 103476, Note_on_c, 0, 52, 71
2, 103484, Note_on_c, 0, 80, 0
2, 103484, Note_on_c, 0, 85, 79
2, 103484, Note_on_c, 0, 88, 81
2, 103486, Note_on_c, 0, 37, 0
2, 103486, Note_on_c, 0, 56, 76
2, 103488, Note_on_c, 0, 92, 79
2, 103492, Note_on_c, 0, 49, 0
2, 103528, Note_on_c, 0, 80, 80
2, 103533, Note_on_c, 0, 76, 0
2, 103533, Note_on_c, 0, 73, 0
2, 103540, Note_on_c, 0, 80, 0
2, 103546, Note_on_c, 0, 68, 0
2, 103560, Control_c, 0, 64, 127
2, 103566, Note_on_c, 0, 37, 91
2, 103571, Note_on_c, 0, 49, 90
2, 103576, Note_on_c, 0, 80, 81
2, 103579, Note_on_c, 0, 73, 78
2, 103582, Note_on_c, 0, 76, 83
2, 103600, Note_on_c, 0, 76, 0
2, 103600, Note_on_c, 0, 73, 0
2, 103600, Note_on_c, 0, 80, 0
2, 103606, Note_on_c, 0, 68, 81
2, 103640, Note_on_c, 0, 73, 82
2, 103640, Note_on_c, 0, 76, 79
2, 103640, Note_on_c, 0, 80, 81
2, 103648, Note_on_c, 0, 85, 0
2, 103662, Note_on_c, 0, 73, 0
2, 103662, Note_on_c, 0, 61, 0
2, 103672, Note_on_c, 0, 88, 0
2, 103672, Note_on_c, 0, 68, 0
2, 103680, Control_c, 0, 64, 0
2, 103684, Note_on_c, 0, 85, 76
2, 103712, Note_on_c, 0, 85, 0
2, 103712, Note_on_c, 0, 88, 83
2, 103714, Note_on_c, 0, 64, 81
2, 103714, Note_on_c, 0, 68, 81
2, 103716, Note_on_c, 0, 73, 81
2, 103716, Note_on_c, 0, 97, 82
2, 103718, Note_on_c, 0, 61, 81
2, 103741, Note_on_c, 0, 97, 0
2, 103751, Note_on_c, 0, 61, 0
2, 103756, Note_on_c, 0, 85, 92
2, 103772, Note_on_c, 0, 85, 0
2, 103776, Note_on_c, 0, 61, 94
2, 103778, Note_on_c, 0, 93, 89
2, 103778, Note_on_c, 0, 97, 90
2, 103793, Note_on_c, 0, 88, 0
2, 103793, Note_on_c, 0, 92, 0
2, 103793, Note_on_c, 0, 76, 0
2, 103796, Note_on_c, 0, 80, 0
2, 103796, Note_on_c, 0, 56, 0
2, 103798, Note_on_c, 0, 52, 0
2, 103798, Note_on_c, 0, 85, 89
2, 103800, Note_on_c, 0, 64, 0
2, 103802, Note_on_c, 0, 68, 0
2, 103838, Note_on_c, 0, 61, 0
2, 103852, Note_on_c, 0, 92, 87
2, 103854, Note_on_c, 0, 73, 0
2, 103854, Note_on_c, 0, 95, 82
2, 103865, Note_on_c, 0, 93, 0
2, 103868, Note_on_c, 0, 97, 0
2, 103872, Note_on_c, 0, 83, 87
2, 103887, Note_on_c, 0, 85, 0
2, 103897, Note_on_c, 0, 49, 0
2, 103907, Note_on_c, 0, 90, 85
2, 103907, Note_on_c, 0, 93, 86
2, 103909, Note_on_c, 0, 66, 85
2, 103909, Note_on_c, 0, 69, 87
2, 103911, Note_on_c, 0, 61, 75
2, 103913, Note_on_c, 0, 73, 83
2, 103918, Note_on_c, 0, 92, 0
2, 103923, Note_on_c, 0, 95, 0
2, 103936, Note_on_c, 0, 61, 0
2, 103936, Note_on_c, 0, 81, 81
2, 103962, Note_on_c, 0, 88, 87
2, 103964, Note_on_c, 0, 49, 80
2, 103964, Note_on_c, 0, 61, 76
2, 103964, Note_on_c, 0, 92, 88
2, 103969, Note_on_c, 0, 81, 0
2, 103969, Note_on_c, 0, 83, 0
2, 103974, Note_on_c, 0, 69, 0
2, 103974, Note_on_c, 0, 90, 0
2, 103974, Note_on_c, 0, 73, 0
2, 103974, Note_on_c, 0, 93, 0
2, 103977, Note_on_c, 0, 88, 0
2, 103977, Note_on_c, 0, 92, 0
2, 103979, Note_on_c, 0, 66, 0
2, 103985, Note_on_c, 0, 80, 87
2, 103992, Note_on_c, 0, 81, 82
2, 104003, Note_on_c, 0, 81, 0
2, 104016, Note_on_c, 0, 85, 82
2, 104018, Note_on_c, 0, 88, 84
2, 104026, Note_on_c, 0, 61, 0
2, 104046, Note_on_c, 0, 76, 86
2, 104068, Note_on_c, 0, 49, 0
2, 104070, Note_on_c, 0, 37, 0
2, 104070, Note_on_c, 0, 64, 76
2, 104070, Note_on_c, 0, 68, 84
2, 104073, Note_on_c, 0, 61, 81
2, 104078, Note_on_c, 0, 87, 81
2, 104078, Note_on_c, 0, 90, 82
2, 104080, Note_on_c, 0, 56, 75
2, 104094, Note_on_c, 0, 85, 0
2, 104094, Note_on_c, 0, 88, 0
2, 104096, Note_on_c, 0, 78, 84
2, 104121, Note_on_c, 0, 78, 0
2, 104129, Note_on_c, 0, 80, 0
2, 104146, Note_on_c, 0, 49, 87
2, 104149, Note_on_c, 0, 85, 95
2, 104149, Note_on_c, 0, 88, 97
2, 104149, Note_on_c, 0, 92, 99
2, 104152, Note_on_c, 0, 37, 93
2, 104154, Note_on_c, 0, 90, 0
2, 104159, Note_on_c, 0, 87, 0
2, 104168, Note_on_c, 0, 80, 76
2, 104173, Note_on_c, 0, 76, 0
2, 104179, Note_on_c, 0, 80, 0
2, 104188, Note_on_c, 0, 68, 0
2, 104194, Note_on_c, 0, 56, 0
2, 104194, Note_on_c, 0, 61, 0
2, 104200, Note_on_c, 0, 64, 0
2, 104209, Note_on_c, 0, 76, 79
2, 104211, Control_c, 0, 64, 127
2, 104214, Note_on_c, 0, 80, 82
2, 104224, Note_on_c, 0, 76, 0
2, 104227, Note_on_c, 0, 80, 0
2, 104234, Note_on_c, 0, 68, 79
2, 104245, Note_on_c, 0, 56, 80
2, 104245, Note_on_c, 0, 61, 75
2, 104245, Note_on_c, 0, 64, 82
2, 104251, Note_on_c, 0, 52, 75
2, 104258, Note_on_c, 0, 76, 77
2, 104260, Note_on_c, 0, 80, 81
2, 104270, Note_on_c, 0, 80, 0
2, 104287, Note_on_c, 0, 92, 0
2, 104287, Note_on_c, 0, 88, 0
2, 104287, Control_c, 0, 64, 0
2, 104297, Note_on_c, 0, 80, 80
2, 104307, Note_on_c, 0, 85, 0
2, 104328, Note_on_c, 0, 80, 0
2, 104328, Note_on_c, 0, 88, 89
2, 104333, Note_on_c, 0, 48, 92
2, 104333, Note_on_c, 0, 92, 88
2, 104336, Note_on_c, 0, 36, 89
2, 104339, Note_on_c, 0, 49, 0
2, 104341, Note_on_c, 0, 37, 0
2, 104344, Note_on_c, 0, 61, 0
2, 104364, Note_on_c, 0, 80, 79
2, 104369, Note_on_c, 0, 76, 0
2, 104379, Note_on_c, 0, 80, 0
2, 104387, Note_on_c, 0, 52, 0
2, 104392, Note_on_c, 0, 56, 0
2, 104394, Note_on_c, 0, 64, 0
2, 104411, Note_on_c, 0, 80, 78
2, 104417, Note_on_c, 0, 76, 76
2, 104422, Note_on_c, 0, 80, 0
2, 104439, Note_on_c, 0, 64, 78
2, 104442, Control_c, 0, 64, 127
2, 104442, Note_on_c, 0, 52, 83
2, 104442, Note_on_c, 0, 56, 81
2, 104442, Note_on_c, 0, 60, 76
2, 104459, Note_on_c, 0, 92, 0
2, 104469, Note_on_c, 0, 80, 81
2, 104484, Note_on_c, 0, 88, 0
2, 104501, Note_on_c, 0, 60, 0
2, 104511, Note_on_c, 0, 80, 0
2, 104516, Control_c, 0, 64, 0
2, 104525, Note_on_c, 0, 88, 90
2, 104530, Note_on_c, 0, 35, 88
2, 104530, Note_on_c, 0, 47, 91
2, 104533, Note_on_c, 0, 92, 90
2, 104535, Note_on_c, 0, 36, 0
2, 104538, Note_on_c, 0, 48, 0
2, 104553, Note_on_c, 0, 80, 93
2, 104566, Note_on_c, 0, 76, 0
2, 104568, Note_on_c, 0, 80, 0
2, 104586, Note_on_c, 0, 68, 0
2, 104604, Note_on_c, 0, 76, 84
2, 104609, Note_on_c, 0, 80, 82
2, 104629, Note_on_c, 0, 68, 90
2, 104664, Note_on_c, 0, 47, 0
2, 104666, Note_on_c, 0, 35, 0
2, 104671, Note_on_c, 0, 52, 0
2, 104671, Note_on_c, 0, 61, 84
2, 104671, Note_on_c, 0, 78, 83
2, 104673, Note_on_c, 0, 56, 0
2, 104676, Note_on_c, 0, 80, 0
2, 104676, Note_on_c, 0, 49, 77
2, 104679, Note_on_c, 0, 64, 0
2, 104681, Note_on_c, 0, 81, 84
2, 104690, Note_on_c, 0, 69, 82
2, 104705, Note_on_c, 0, 68, 0
2, 104731, Note_on_c, 0, 47, 80
2, 104736, Note_on_c, 0, 83, 86
2, 104738, Note_on_c, 0, 80, 88
2, 104740, Note_on_c, 0, 59, 80
2, 104742, Note_on_c, 0, 81, 0
2, 104750, Note_on_c, 0, 71, 86
2, 104764, Note_on_c, 0, 76, 0
2, 104787, Note_on_c, 0, 49, 0
2, 104795, Note_on_c, 0, 61, 0
2, 104801, Note_on_c, 0, 46, 76
2, 104801, Note_on_c, 0, 58, 82
2, 104803, Note_on_c, 0, 68, 82
2, 104806, Note_on_c, 0, 47, 0
2, 104810, Note_on_c, 0, 76, 87
2, 104812, Note_on_c, 0, 64, 82
2, 104815, Note_on_c, 0, 69, 0
2, 104817, Note_on_c, 0, 59, 0
2, 104819, Note_on_c, 0, 78, 0
2, 104819, Note_on_c, 0, 71, 0
2, 104819, Note_on_c, 0, 80, 0
2, 104819, Note_on_c, 0, 83, 0
2, 104869, Note_on_c, 0, 45, 79
2, 104869, Note_on_c, 0, 57, 81
2, 104872, Note_on_c, 0, 69, 84
2, 104872, Note_on_c, 0, 78, 85
2, 104874, Note_on_c, 0, 46, 0
2, 104877, Note_on_c, 0, 58, 0
2, 104881, Note_on_c, 0, 68, 0
2, 104881, Note_on_c, 0, 76, 0
2, 104887, Note_on_c, 0, 66, 86
2, 104904, Note_on_c, 0, 64, 0
2, 104954, Note_on_c, 0, 52, 98
2, 104962, Control_c, 0, 64, 127
2, 104964, Note_on_c, 0, 40, 96
2, 104970, Note_on_c, 0, 57, 0
2, 104972, Note_on_c, 0, 45, 0
2, 104972, Note_on_c, 0, 71, 85
2, 104977, Note_on_c, 0, 69, 0
2, 104977, Note_on_c, 0, 76, 84
2, 104977, Note_on_c, 0, 80, 84
2, 104983, Note_on_c, 0, 71, 0
2, 104983, Note_on_c, 0, 66, 0
2, 104988, Note_on_c, 0, 78, 0
2, 104990, Note_on_c, 0, 80, 0
2, 104992, Note_on_c, 0, 76, 0
2, 105004, Note_on_c, 0, 68, 83
2, 105023, Note_on_c, 0, 71, 82
2, 105030, Note_on_c, 0, 76, 88
2, 105048, Note_on_c, 0, 80, 83
2, 105058, Note_on_c, 0, 80, 0
2, 105058, Note_on_c, 0, 52, 0
2, 105072, Note_on_c, 0, 92, 0
2, 105075, Control_c, 0, 64, 0
2, 105083, Note_on_c, 0, 88, 0
2, 105085, Note_on_c, 0, 80, 83
2, 105097, Note_on_c, 0, 80, 0
2, 105107, Note_on_c, 0, 64, 78
2, 105110, Note_on_c, 0, 83, 93
2, 105115, Note_on_c, 0, 52, 81
2, 105115, Note_on_c, 0, 56, 80
2, 105115, Note_on_c, 0, 59, 80
2, 105117, Note_on_c, 0, 92, 98
2, 105120, Note_on_c, 0, 88, 97
2, 105147, Note_on_c, 0, 80, 82
2, 105158, Note_on_c, 0, 76, 0
2, 105160, Note_on_c, 0, 80, 0
2, 105180, Note_on_c, 0, 68, 0
2, 105192, Note_on_c, 0, 51, 94
2, 105195, Note_on_c, 0, 72, 79
2, 105195, Note_on_c, 0, 76, 79
2, 105197, Note_on_c, 0, 80, 81
2, 105199, Note_on_c, 0, 39, 97
2, 105204, Note_on_c, 0, 52, 0
2, 105207, Note_on_c, 0, 59, 0
2, 105209, Note_on_c, 0, 40, 0
2, 105209, Note_on_c, 0, 72, 0
2, 105209, Note_on_c, 0, 80, 0
2, 105212, Note_on_c, 0, 71, 0
2, 105212, Note_on_c, 0, 76, 0
2, 105216, Note_on_c, 0, 68, 77
2, 105254, Note_on_c, 0, 72, 81
2, 105257, Note_on_c, 0, 76, 77
2, 105259, Note_on_c, 0, 56, 0
2, 105259, Note_on_c, 0, 80, 78
2, 105262, Control_c, 0, 64, 127
2, 105272, Note_on_c, 0, 80, 0
2, 105283, Note_on_c, 0, 88, 0
2, 105286, Note_on_c, 0, 92, 0
2, 105306, Note_on_c, 0, 60, 81
2, 105306, Note_on_c, 0, 80, 88
2, 105308, Note_on_c, 0, 56, 80
2, 105313, Control_c, 0, 64, 0
2, 105316, Note_on_c, 0, 52, 76
2, 105318, Note_on_c, 0, 80, 0
2, 105321, Note_on_c, 0, 84, 94
2, 105323, Note_on_c, 0, 83, 0
2, 105326, Note_on_c, 0, 88, 92
2, 105328, Note_on_c, 0, 92, 89
2, 105333, Note_on_c, 0, 51, 0
2, 105358, Note_on_c, 0, 76, 0
2, 105360, Note_on_c, 0, 80, 78
2, 105375, Note_on_c, 0, 80, 0
2, 105392, Note_on_c, 0, 49, 97
2, 105394, Note_on_c, 0, 37, 101
2, 105399, Note_on_c, 0, 39, 0
2, 105401, Note_on_c, 0, 73, 81
2, 105401, Note_on_c, 0, 76, 79
2, 105404, Note_on_c, 0, 60, 0
2, 105406, Note_on_c, 0, 80, 82
2, 105413, Note_on_c, 0, 72, 0
2, 105415, Note_on_c, 0, 68, 0
2, 105423, Note_on_c, 0, 73, 0
2, 105431, Note_on_c, 0, 76, 0
2, 105433, Note_on_c, 0, 80, 0
2, 105435, Note_on_c, 0, 56, 0
2, 105435, Note_on_c, 0, 68, 80
2, 105458, Note_on_c, 0, 64, 0
2, 105461, Note_on_c, 0, 73, 83
2, 105471, Note_on_c, 0, 76, 84
2, 105473, Note_on_c, 0, 80, 78
2, 105483, Note_on_c, 0, 56, 78
2, 105486, Note_on_c, 0, 73, 0
2, 105489, Control_c, 0, 64, 127
2, 105491, Note_on_c, 0, 88, 0
2, 105494, Note_on_c, 0, 61, 77
2, 105504, Note_on_c, 0, 85, 87
2, 105507, Note_on_c, 0, 64, 79
2, 105510, Note_on_c, 0, 84, 0
2, 105528, Note_on_c, 0, 73, 85
2, 105530, Note_on_c, 0, 85, 0
2, 105532, Note_on_c, 0, 88, 88
2, 105535, Note_on_c, 0, 49, 0
2, 105537, Note_on_c, 0, 97, 88
2, 105539, Note_on_c, 0, 92, 0
2, 105545, Note_on_c, 0, 61, 0
2, 105551, Note_on_c, 0, 88, 0
2, 105553, Note_on_c, 0, 97, 0
2, 105555, Control_c, 0, 64, 0
2, 105566, Note_on_c, 0, 85, 101
2, 105571, Note_on_c, 0, 52, 0
2, 105574, Note_on_c, 0, 76, 0
2, 105576, Note_on_c, 0, 80, 0
2, 105581, Note_on_c, 0, 68, 0
2, 105587, Note_on_c, 0, 85, 0
2, 105587, Note_on_c, 0, 49, 91
2, 105587, Note_on_c, 0, 97, 102
2, 105595, Note_on_c, 0, 61, 91
2, 105595, Note_on_c, 0, 93, 103
2, 105607, Note_on_c, 0, 97, 0
2, 105618, Note_on_c, 0, 64, 0
2, 105621, Note_on_c, 0, 61, 0
2, 105625, Note_on_c, 0, 85, 87
2, 105658, Note_on_c, 0, 73, 0
2, 105661, Note_on_c, 0, 95, 84
2, 105666, Note_on_c, 0, 57, 84
2, 105668, Note_on_c, 0, 92, 88
2, 105670, Note_on_c, 0, 61, 81
2, 105675, Note_on_c, 0, 93, 0
2, 105678, Note_on_c, 0, 56, 0
2, 105694, Note_on_c, 0, 83, 90
2, 105699, Note_on_c, 0, 66, 90
2, 105707, Note_on_c, 0, 85, 0
2, 105712, Note_on_c, 0, 49, 0
2, 105714, Note_on_c, 0, 73, 92
2, 105720, Note_on_c, 0, 90, 91
2, 105720, Note_on_c, 0, 93, 88
2, 105724, Note_on_c, 0, 92, 0
2, 105729, Note_on_c, 0, 61, 0
2, 105729, Note_on_c, 0, 95, 0
2, 105755, Note_on_c, 0, 81, 91
2, 105758, Note_on_c, 0, 83, 0
2, 105768, Note_on_c, 0, 49, 82
2, 105773, Note_on_c, 0, 61, 79
2, 105775, Note_on_c, 0, 92, 85
2, 105777, Note_on_c, 0, 88, 92
2, 105782, Note_on_c, 0, 73, 0
2, 105784, Note_on_c, 0, 37, 0
2, 105787, Note_on_c, 0, 90, 0
2, 105787, Note_on_c, 0, 93, 0
2, 105792, Note_on_c, 0, 92, 0
2, 105807, Note_on_c, 0, 88, 0
2, 105810, Note_on_c, 0, 81, 0
2, 105815, Note_on_c, 0, 80, 93
2, 105833, Note_on_c, 0, 64, 82
2, 105836, Note_on_c, 0, 80, 0
2, 105838, Note_on_c, 0, 73, 98
2, 105838, Note_on_c, 0, 92, 94
2, 105843, Note_on_c, 0, 88, 94
2, 105866, Note_on_c, 0, 88, 0
2, 105879, Note_on_c, 0, 66, 0
2, 105887, Note_on_c, 0, 80, 97
2, 105901, Note_on_c, 0, 66, 98
2, 105906, Control_c, 0, 64, 127
2, 105906, Note_on_c, 0, 94, 95
2, 105911, Note_on_c, 0, 88, 91
2, 105912, Note_on_c, 0, 92, 0
2, 105917, Note_on_c, 0, 54, 82
2, 105919, Control_c, 0, 64, 0
2, 105924, Note_on_c, 0, 88, 0
2, 105927, Note_on_c, 0, 82, 96
2, 105933, Note_on_c, 0, 80, 0
2, 105950, Note_on_c, 0, 61, 0
2, 105950, Note_on_c, 0, 57, 0
2, 105955, Note_on_c, 0, 64, 0
2, 105960, Note_on_c, 0, 88, 93
2, 105962, Note_on_c, 0, 47, 81
2, 105965, Note_on_c, 0, 59, 81
2, 105970, Note_on_c, 0, 95, 97
2, 105975, Note_on_c, 0, 94, 0
2, 105977, Note_on_c, 0, 49, 0
2, 105997, Note_on_c, 0, 83, 91
2, 105999, Note_on_c, 0, 82, 0
2, 106019, Note_on_c, 0, 71, 81
2, 106021, Note_on_c, 0, 87, 80
2, 106023, Note_on_c, 0, 63, 83
2, 106026, Note_on_c, 0, 73, 0
2, 106028, Note_on_c, 0, 90, 84
2, 106032, Note_on_c, 0, 88, 0
2, 106051, Note_on_c, 0, 78, 82
2, 106079, Note_on_c, 0, 52, 86
2, 106080, Note_on_c, 0, 64, 85
2, 106085, Note_on_c, 0, 87, 0
2, 106085, Note_on_c, 0, 54, 0
2, 106087, Note_on_c, 0, 86, 85
2, 106089, Control_c, 0, 64, 127
2, 106091, Note_on_c, 0, 92, 86
2, 106094, Note_on_c, 0, 83, 0
2, 106094, Note_on_c, 0, 78, 0
2, 106094, Note_on_c, 0, 90, 0
2, 106094, Note_on_c, 0, 63, 0
2, 106094, Note_on_c, 0, 66, 0
2, 106097, Note_on_c, 0, 95, 0
2, 106100, Note_on_c, 0, 86, 0
2, 106103, Control_c, 0, 64, 0
2, 106107, Note_on_c, 0, 80, 94
2, 106132, Note_on_c, 0, 45, 84
2, 106142, Note_on_c, 0, 57, 82
2, 106147, Note_on_c, 0, 47, 0
2, 106147, Note_on_c, 0, 86, 94
2, 106147, Note_on_c, 0, 93, 94
2, 106154, Note_on_c, 0, 92, 0
2, 106156, Note_on_c, 0, 59, 0
2, 106178, Note_on_c, 0, 81, 83
2, 106180, Note_on_c, 0, 80, 0
2, 106198, Note_on_c, 0, 61, 87
2, 106203, Note_on_c, 0, 69, 83
2, 106203, Note_on_c, 0, 85, 85
2, 106205, Note_on_c, 0, 88, 80
2, 106208, Note_on_c, 0, 81, 0
2, 106213, Note_on_c, 0, 71, 0
2, 106215, Note_on_c, 0, 86, 0
2, 106223, Note_on_c, 0, 85, 0
2, 106227, Note_on_c, 0, 76, 87
2, 106263, Note_on_c, 0, 51, 82
2, 106265, Note_on_c, 0, 85, 83
2, 106267, Control_c, 0, 64, 127
2, 106269, Note_on_c, 0, 63, 87
2, 106269, Note_on_c, 0, 90, 84
2, 106271, Note_on_c, 0, 52, 0
2, 106280, Control_c, 0, 64, 0
2, 106282, Note_on_c, 0, 61, 0
2, 106282, Note_on_c, 0, 93, 0
2, 106282, Note_on_c, 0, 88, 0
2, 106285, Note_on_c, 0, 64, 0
2, 106285, Note_on_c, 0, 85, 0
2, 106290, Note_on_c, 0, 78, 93
2, 106299, Note_on_c, 0, 76, 0
2, 106315, Note_on_c, 0, 44, 88
2, 106320, Note_on_c, 0, 56, 85
2, 106326, Note_on_c, 0, 85, 100
2, 106328, Note_on_c, 0, 57, 0
2, 106328, Note_on_c, 0, 92, 99
2, 106330, Note_on_c, 0, 45, 0
2, 106338, Note_on_c, 0, 90, 0
2, 106353, Note_on_c, 0, 80, 87
2, 106366, Note_on_c, 0, 78, 0
2, 106383, Note_on_c, 0, 87, 82
2, 106385, Note_on_c, 0, 60, 86
2, 106388, Note_on_c, 0, 68, 86
2, 106390, Note_on_c, 0, 84, 86
2, 106395, Note_on_c, 0, 69, 0
2, 106401, Note_on_c, 0, 85, 0
2, 106406, Note_on_c, 0, 75, 86
2, 106437, Note_on_c, 0, 83, 84
2, 106440, Note_on_c, 0, 49, 88
2, 106441, Note_on_c, 0, 61, 87
2, 106443, Note_on_c, 0, 84, 0
2, 106443, Note_on_c, 0, 63, 0
2, 106445, Control_c, 0, 64, 127
2, 106448, Note_on_c, 0, 80, 0
2, 106450, Note_on_c, 0, 51, 0
2, 106450, Note_on_c, 0, 89, 82
2, 106452, Note_on_c, 0, 92, 0
2, 106454, Control_c, 0, 64, 0
2, 106460, Note_on_c, 0, 87, 0
2, 106460, Note_on_c, 0, 60, 0
2, 106463, Note_on_c, 0, 83, 0
2, 106467, Note_on_c, 0, 77, 95
2, 106480, Note_on_c, 0, 75, 0
2, 106495, Note_on_c, 0, 90, 94
2, 106497, Note_on_c, 0, 42, 87
2, 106497, Note_on_c, 0, 54, 85
2, 106505, Note_on_c, 0, 89, 0
2, 106507, Note_on_c, 0, 83, 83
2, 106512, Note_on_c, 0, 44, 0
2, 106512, Note_on_c, 0, 56, 0
2, 106531, Note_on_c, 0, 78, 89
2, 106545, Note_on_c, 0, 77, 0
2, 106555, Note_on_c, 0, 66, 89
2, 106560, Note_on_c, 0, 58, 82
2, 106565, Note_on_c, 0, 82, 85
2, 106570, Note_on_c, 0, 85, 89
2, 106572, Note_on_c, 0, 68, 0
2, 106583, Note_on_c, 0, 83, 0
2, 106595, Note_on_c, 0, 73, 89
2, 106617, Note_on_c, 0, 47, 83
2, 106617, Note_on_c, 0, 59, 82
2, 106632, Note_on_c, 0, 49, 0
2, 106634, Note_on_c, 0, 58, 0
2, 106636, Note_on_c, 0, 82, 0
2, 106638, Note_on_c, 0, 61, 0
2, 106638, Note_on_c, 0, 87, 83
2, 106643, Note_on_c, 0, 81, 83
2, 106645, Note_on_c, 0, 78, 0
2, 106647, Control_c, 0, 64, 127
2, 106653, Note_on_c, 0, 75, 82
2, 106656, Note_on_c, 0, 81, 0
2, 106657, Control_c, 0, 64, 0
2, 106660, Note_on_c, 0, 73, 0
2, 106665, Note_on_c, 0, 85, 0
2, 106667, Note_on_c, 0, 90, 0
2, 106680, Note_on_c, 0, 40, 85
2, 106682, Note_on_c, 0, 52, 84
2, 106687, Note_on_c, 0, 54, 0
2, 106687, Note_on_c, 0, 42, 0
2, 106693, Note_on_c, 0, 88, 100
2, 106696, Note_on_c, 0, 81, 87
2, 106708, Note_on_c, 0, 87, 0
2, 106711, Note_on_c, 0, 76, 88
2, 106722, Note_on_c, 0, 75, 0
2, 106742, Note_on_c, 0, 56, 88
2, 106742, Note_on_c, 0, 64, 86
2, 106748, Note_on_c, 0, 83, 84
2, 106753, Note_on_c, 0, 80, 85
2, 106755, Note_on_c, 0, 81, 0
2, 106755, Note_on_c, 0, 66, 0
2, 106760, Note_on_c, 0, 88, 0
2, 106770, Note_on_c, 0, 80, 0
2, 106772, Note_on_c, 0, 71, 90
2, 106807, Note_on_c, 0, 46, 86
2, 106807, Note_on_c, 0, 80, 85
2, 106807, Note_on_c, 0, 85, 90
2, 106810, Note_on_c, 0, 58, 84
2, 106820, Note_on_c, 0, 83, 0
2, 106822, Note_on_c, 0, 47, 0
2, 106824, Note_on_c, 0, 56, 0
2, 106824, Note_on_c, 0, 59, 0
2, 106826, Note_on_c, 0, 80, 0
2, 106831, Control_c, 0, 64, 127
2, 106844, Control_c, 0, 64, 0
2, 106849, Note_on_c, 0, 73, 102
2, 106857, Note_on_c, 0, 71, 0
2, 106857, Note_on_c, 0, 76, 0
2, 106863, Note_on_c, 0, 63, 83
2, 106866, Note_on_c, 0, 51, 89
2, 106871, Note_on_c, 0, 80, 101
2, 106875, Note_on_c, 0, 52, 0
2, 106875, Note_on_c, 0, 39, 88
2, 106878, Note_on_c, 0, 63, 0
2, 106880, Note_on_c, 0, 40, 0
2, 106886, Note_on_c, 0, 64, 0
2, 106888, Note_on_c, 0, 87, 97
2, 106898, Note_on_c, 0, 85, 0
2, 106911, Note_on_c, 0, 75, 89
2, 106920, Note_on_c, 0, 73, 0
2, 106930, Note_on_c, 0, 55, 83
2, 106936, Note_on_c, 0, 63, 87
2, 106939, Note_on_c, 0, 79, 90
2, 106941, Note_on_c, 0, 80, 0
2, 106945, Note_on_c, 0, 82, 85
2, 106961, Note_on_c, 0, 75, 0
2, 106961, Note_on_c, 0, 70, 89
2, 106992, Note_on_c, 0, 75, 85
2, 106993, Note_on_c, 0, 78, 87
2, 106998, Note_on_c, 0, 56, 88
2, 107001, Note_on_c, 0, 84, 91
2, 107003, Note_on_c, 0, 46, 0
2, 107005, Note_on_c, 0, 44, 84
2, 107008, Note_on_c, 0, 79, 0
2, 107013, Note_on_c, 0, 87, 0
2, 107013, Note_on_c, 0, 82, 0
2, 107017, Note_on_c, 0, 58, 0
2, 107019, Note_on_c, 0, 55, 0
2, 107019, Note_on_c, 0, 78, 0
2, 107025, Note_on_c, 0, 72, 91
2, 107033, Note_on_c, 0, 75, 0
2, 107035, Control_c, 0, 64, 127
2, 107038, Note_on_c, 0, 70, 0
2, 107050, Note_on_c, 0, 49, 86
2, 107053, Note_on_c, 0, 37, 91
2, 107055, Note_on_c, 0, 39, 0
2, 107055, Note_on_c, 0, 78, 96
2, 107060, Note_on_c, 0, 51, 0
2, 107062, Note_on_c, 0, 85, 100
2, 107067, Note_on_c, 0, 84, 0
2, 107095, Note_on_c, 0, 72, 0
2, 107095, Note_on_c, 0, 73, 96
2, 107115, Note_on_c, 0, 53, 85
2, 107117, Note_on_c, 0, 61, 84
2, 107122, Note_on_c, 0, 77, 102
2, 107125, Note_on_c, 0, 80, 103
2, 107128, Note_on_c, 0, 78, 0
2, 107134, Note_on_c, 0, 68, 100
2, 107136, Note_on_c, 0, 63, 0
2, 107171, Note_on_c, 0, 42, 89
2, 107177, Note_on_c, 0, 54, 85
2, 107179, Note_on_c, 0, 76, 97
2, 107184, Note_on_c, 0, 53, 0
2, 107184, Note_on_c, 0, 44, 0
2, 107188, Note_on_c, 0, 82, 99
2, 107193, Note_on_c, 0, 56, 0
2, 107195, Note_on_c, 0, 77, 0
2, 107201, Note_on_c, 0, 70, 99
2, 107211, Note_on_c, 0, 73, 0
2, 107211, Note_on_c, 0, 61, 0
2, 107221, Note_on_c, 0, 68, 0
2, 107236, Note_on_c, 0, 85, 0
2, 107247, Control_c, 0, 64, 0
2, 107252, Note_on_c, 0, 35, 84
2, 107256, Note_on_c, 0, 47, 88
2, 107258, Note_on_c, 0, 71, 100
2, 107263, Note_on_c, 0, 83, 101
2, 107265, Note_on_c, 0, 49, 0
2, 107265, Note_on_c, 0, 42, 0
2, 107265, Note_on_c, 0, 54, 0
2, 107267, Note_on_c, 0, 37, 0
2, 107269, Note_on_c, 0, 75, 96
2, 107275, Note_on_c, 0, 70, 0
2, 107275, Note_on_c, 0, 80, 0
2, 107275, Note_on_c, 0, 76, 0
2, 107278, Note_on_c, 0, 82, 0
2, 107323, Note_on_c, 0, 35, 0
2, 107325, Note_on_c, 0, 47, 0
2, 107332, Note_on_c, 0, 75, 0
2, 107332, Note_on_c, 0, 71, 0
2, 107335, Note_on_c, 0, 83, 0
2, 107416, Note_on_c, 0, 59, 103
2, 107476, Note_on_c, 0, 34, 85
2, 107514, Note_on_c, 0, 35, 86
2, 107520, Note_on_c, 0, 34, 0
2, 107537, Note_on_c, 0, 35, 0
2, 107540, Note_on_c, 0, 47, 87
2, 107566, Control_c, 0, 64, 127
2, 107568, Note_on_c, 0, 47, 0
2, 107574, Note_on_c, 0, 35, 86
2, 107585, Note_on_c, 0, 59, 0
2, 107599, Note_on_c, 0, 35, 0
2, 107599, Control_c, 0, 64, 0
2, 107610, Note_on_c, 0, 47, 84
2, 107633, Note_on_c, 0, 59, 98
2, 107643, Note_on_c, 0, 35, 94
2, 107691, Note_on_c, 0, 34, 83
2, 107694, Note_on_c, 0, 35, 0
2, 107720, Note_on_c, 0, 47, 0
2, 107731, Note_on_c, 0, 35, 83
2, 107738, Note_on_c, 0, 34, 0
2, 107746, Note_on_c, 0, 35, 0
2, 107779, Note_on_c, 0, 47, 83
2, 107797, Control_c, 0, 64, 127
2, 107803, Note_on_c, 0, 35, 85
2, 107812, Note_on_c, 0, 47, 0
2, 107815, Note_on_c, 0, 59, 0
2, 107837, Control_c, 0, 64, 0
2, 107842, Note_on_c, 0, 35, 0
2, 107855, Note_on_c, 0, 47, 80
2, 107875, Note_on_c, 0, 59, 82
2, 107893, Note_on_c, 0, 35, 60
2, 107941, Note_on_c, 0, 34, 60
2, 107959, Note_on_c, 0, 35, 0
2, 107972, Note_on_c, 0, 47, 0
2, 107981, Note_on_c, 0, 34, 0
2, 107991, Note_on_c, 0, 35, 64
2, 108024, Note_on_c, 0, 35, 0
2, 108029, Note_on_c, 0, 47, 58
2, 108062, Control_c, 0, 64, 127
2, 108064, Note_on_c, 0, 35, 58
2, 108073, Note_on_c, 0, 47, 0
2, 108078, Note_on_c, 0, 59, 0
2, 108100, Control_c, 0, 64, 0
2, 108110, Note_on_c, 0, 47, 57
2, 108120, Note_on_c, 0, 35, 0
2, 108137, Note_on_c, 0, 59, 56
2, 108149, Note_on_c, 0, 35, 59
2, 108203, Note_on_c, 0, 34, 61
2, 108211, Note_on_c, 0, 35, 0
2, 108236, Note_on_c, 0, 47, 0
2, 108248, Note_on_c, 0, 35, 58
2, 108253, Note_on_c, 0, 34, 0
2, 108271, Note_on_c, 0, 47, 58
2, 108273, Note_on_c, 0, 35, 0
2, 108288, Control_c, 0, 67, 127
2, 108300, Note_on_c, 0, 47, 0
2, 108314, Note_on_c, 0, 35, 52
2, 108342, Note_on_c, 0, 35, 0
2, 108345, Note_on_c, 0, 57, 57
2, 108348, Note_on_c, 0, 63, 55
2, 108350, Note_on_c, 0, 47, 57
2, 108350, Note_on_c, 0, 68, 70
2, 108380, Note_on_c, 0, 35, 55
2, 108400, Note_on_c, 0, 59, 0
2, 108417, Note_on_c, 0, 35, 0
2, 108422, Note_on_c, 0, 34, 56
2, 108434, Note_on_c, 0, 59, 74
2, 108453, Note_on_c, 0, 47, 0
2, 108453, Note_on_c, 0, 35, 72
2, 108458, Note_on_c, 0, 34, 0
2, 108479, Note_on_c, 0, 35, 0
2, 108504, Note_on_c, 0, 47, 53
2, 108522, Note_on_c, 0, 47, 0
2, 108527, Note_on_c, 0, 57, 0
2, 108529, Note_on_c, 0, 35, 56
2, 108532, Note_on_c, 0, 63, 0
2, 108543, Note_on_c, 0, 35, 0
2, 108573, Note_on_c, 0, 47, 57
2, 108573, Note_on_c, 0, 57, 54
2, 108573, Note_on_c, 0, 63, 50
2, 108573, Note_on_c, 0, 66, 73
2, 108591, Note_on_c, 0, 68, 0
2, 108593, Note_on_c, 0, 35, 57
2, 108608, Note_on_c, 0, 59, 0
2, 108634, Note_on_c, 0, 34, 54
2, 108637, Note_on_c, 0, 35, 0
2, 108647, Note_on_c, 0, 59, 68
2, 108670, Note_on_c, 0, 35, 73
2, 108672, Note_on_c, 0, 47, 0
2, 108675, Note_on_c, 0, 34, 0
2, 108690, Note_on_c, 0, 35, 0
2, 108707, Note_on_c, 0, 47, 75
2, 108720, Control_c, 0, 64, 127
2, 108737, Note_on_c, 0, 47, 0
2, 108754, Note_on_c, 0, 35, 73
2, 108757, Note_on_c, 0, 66, 0
2, 108775, Note_on_c, 0, 47, 68
2, 108775, Note_on_c, 0, 64, 70
2, 108778, Note_on_c, 0, 35, 0
2, 108781, Control_c, 0, 64, 0
2, 108781, Note_on_c, 0, 56, 72
2, 108786, Note_on_c, 0, 63, 0
2, 108791, Note_on_c, 0, 57, 0
2, 108793, Note_on_c, 0, 64, 0
2, 108804, Note_on_c, 0, 66, 58
2, 108814, Note_on_c, 0, 35, 51
2, 108816, Note_on_c, 0, 59, 0
2, 108818, Note_on_c, 0, 64, 53
2, 108836, Note_on_c, 0, 35, 0
2, 108843, Note_on_c, 0, 34, 53
2, 108862, Note_on_c, 0, 47, 0
2, 108876, Note_on_c, 0, 35, 50
2, 108881, Note_on_c, 0, 34, 0
2, 108883, Note_on_c, 0, 66, 0
2, 108888, Note_on_c, 0, 35, 0
2, 108903, Note_on_c, 0, 47, 64
2, 108912, Note_on_c, 0, 63, 63
2, 108920, Note_on_c, 0, 47, 0
2, 108922, Note_on_c, 0, 35, 61
2, 108937, Note_on_c, 0, 64, 0
2, 108960, Note_on_c, 0, 35, 0
2, 108960, Note_on_c, 0, 47, 72
2, 108975, Note_on_c, 0, 61, 70
2, 108989, Note_on_c, 0, 63, 0
2, 108997, Note_on_c, 0, 35, 74
2, 109034, Note_on_c, 0, 35, 0
2, 109037, Note_on_c, 0, 55, 51
2, 109053, Note_on_c, 0, 56, 0
2, 109057, Note_on_c, 0, 34, 48
2, 109063, Note_on_c, 0, 47, 0
2, 109069, Note_on_c, 0, 35, 52
2, 109074, Note_on_c, 0, 34, 0
2, 109099, Note_on_c, 0, 47, 50
2, 109104, Note_on_c, 0, 35, 0
2, 109121, Note_on_c, 0, 47, 0
2, 109144, Note_on_c, 0, 35, 60
2, 109159, Note_on_c, 0, 35, 0
2, 109162, Note_on_c, 0, 47, 60
2, 109188, Note_on_c, 0, 63, 52
2, 109194, Note_on_c, 0, 35, 51
2, 109200, Note_on_c, 0, 52, 52
2, 109204, Note_on_c, 0, 61, 0
2, 109237, Note_on_c, 0, 35, 0
2, 109242, Note_on_c, 0, 55, 0
2, 109242, Note_on_c, 0, 34, 55
2, 109268, Note_on_c, 0, 55, 66
2, 109270, Note_on_c, 0, 47, 0
2, 109272, Note_on_c, 0, 35, 67
2, 109282, Note_on_c, 0, 34, 0
2, 109312, Note_on_c, 0, 35, 0
2, 109315, Note_on_c, 0, 47, 50
2, 109335, Note_on_c, 0, 47, 0
2, 109347, Note_on_c, 0, 35, 51
2, 109365, Note_on_c, 0, 52, 0
2, 109370, Note_on_c, 0, 35, 0
2, 109373, Note_on_c, 0, 47, 65
2, 109403, Note_on_c, 0, 52, 49
2, 109406, Note_on_c, 0, 61, 51
2, 109408, Note_on_c, 0, 35, 47
2, 109422, Note_on_c, 0, 63, 0
2, 109445, Note_on_c, 0, 35, 0
2, 109448, Note_on_c, 0, 34, 50
2, 109459, Note_on_c, 0, 55, 0
2, 109464, Note_on_c, 0, 47, 0
2, 109473, Note_on_c, 0, 35, 68
2, 109481, Note_on_c, 0, 55, 64
2, 109483, Note_on_c, 0, 34, 0
2, 109497, Note_on_c, 0, 35, 0
2, 109497, Note_on_c, 0, 52, 0
2, 109505, Note_on_c, 0, 47, 71
2, 109539, Note_on_c, 0, 47, 0
2, 109539, Note_on_c, 0, 35, 66
2, 109561, Note_on_c, 0, 35, 0
2, 109579, Note_on_c, 0, 47, 71
2, 109594, Note_on_c, 0, 35, 69
2, 109611, Note_on_c, 0, 59, 47
2, 109629, Note_on_c, 0, 35, 0
2, 109632, Note_on_c, 0, 61, 0
2, 109646, Note_on_c, 0, 34, 46
2, 109686, Note_on_c, 0, 35, 58
2, 109688, Note_on_c, 0, 47, 0
2, 109691, Note_on_c, 0, 34, 0
2, 109727, Note_on_c, 0, 35, 0
2, 109729, Note_on_c, 0, 47, 52
2, 109757, Note_on_c, 0, 47, 0
2, 109757, Note_on_c, 0, 35, 52
2, 109759, Note_on_c, 0, 57, 57
2, 109764, Note_on_c, 0, 54, 55
2, 109779, Note_on_c, 0, 35, 0
2, 109784, Note_on_c, 0, 55, 0
2, 109800, Note_on_c, 0, 47, 57
2, 109818, Note_on_c, 0, 35, 56
2, 109827, Note_on_c, 0, 55, 52
2, 109835, Note_on_c, 0, 54, 0
2, 109837, Note_on_c, 0, 52, 58
2, 109840, Note_on_c, 0, 57, 0
2, 109845, Note_on_c, 0, 35, 0
2, 109880, Note_on_c, 0, 35, 53
2, 109885, Note_on_c, 0, 47, 0
2, 109915, Note_on_c, 0, 54, 55
2, 109920, Note_on_c, 0, 52, 0
2, 109920, Note_on_c, 0, 47, 52
2, 109938, Note_on_c, 0, 55, 0
2, 109944, Note_on_c, 0, 54, 0
2, 109949, Note_on_c, 0, 42, 53
2, 109979, Note_on_c, 0, 42, 0
2, 109989, Note_on_c, 0, 54, 54
2, 110006, Note_on_c, 0, 54, 0
2, 110016, Note_on_c, 0, 42, 61
2, 110033, Note_on_c, 0, 42, 0
2, 110045, Note_on_c, 0, 54, 56
2, 110063, Note_on_c, 0, 61, 59
2, 110073, Note_on_c, 0, 59, 0
2, 110076, Note_on_c, 0, 42, 62
2, 110093, Note_on_c, 0, 35, 0
2, 110128, Note_on_c, 0, 35, 63
2, 110133, Note_on_c, 0, 47, 0
2, 110135, Note_on_c, 0, 54, 0
2, 110136, Note_on_c, 0, 42, 0
2, 110139, Note_on_c, 0, 63, 46
2, 110155, Note_on_c, 0, 57, 49
2, 110160, Note_on_c, 0, 61, 0
2, 110192, Note_on_c, 0, 45, 44
2, 110194, Note_on_c, 0, 57, 0
2, 110199, Note_on_c, 0, 64, 44
2, 110205, Note_on_c, 0, 45, 0
2, 110217, Note_on_c, 0, 63, 0
2, 110227, Note_on_c, 0, 57, 51
2, 110244, Note_on_c, 0, 45, 52
2, 110249, Note_on_c, 0, 57, 0
2, 110267, Note_on_c, 0, 45, 0
2, 110267, Note_on_c, 0, 66, 58
2, 110287, Note_on_c, 0, 57, 54
2, 110304, Note_on_c, 0, 45, 53
2, 110306, Note_on_c, 0, 64, 0
2, 110308, Note_on_c, 0, 35, 0
2, 110321, Note_on_c, 0, 66, 0
2, 110336, Note_on_c, 0, 64, 59
2, 110342, Note_on_c, 0, 35, 54
2, 110344, Note_on_c, 0, 68, 60
2, 110347, Note_on_c, 0, 56, 53
2, 110357, Note_on_c, 0, 57, 0
2, 110387, Note_on_c, 0, 56, 0
2, 110390, Note_on_c, 0, 45, 0
2, 110392, Note_on_c, 0, 44, 55
2, 110404, Control_c, 0, 64, 127
2, 110412, Note_on_c, 0, 44, 0
2, 110418, Note_on_c, 0, 56, 53
2, 110446, Note_on_c, 0, 56, 0
2, 110448, Note_on_c, 0, 44, 55
2, 110461, Note_on_c, 0, 73, 67
2, 110478, Note_on_c, 0, 56, 58
2, 110480, Note_on_c, 0, 44, 0
2, 110491, Note_on_c, 0, 58, 59
2, 110501, Note_on_c, 0, 58, 0
2, 110509, Note_on_c, 0, 56, 0
2, 110511, Note_on_c, 0, 64, 0
2, 110513, Note_on_c, 0, 35, 0
2, 110515, Note_on_c, 0, 68, 0
2, 110518, Note_on_c, 0, 73, 0
2, 110518, Note_on_c, 0, 44, 61
2, 110532, Note_on_c, 0, 58, 55
2, 110546, Note_on_c, 0, 35, 56
2, 110546, Note_on_c, 0, 64, 58
2, 110569, Note_on_c, 0, 73, 66
2, 110582, Note_on_c, 0, 43, 58
2, 110584, Note_on_c, 0, 44, 0
2, 110609, Note_on_c, 0, 43, 0
2, 110627, Note_on_c, 0, 55, 55
2, 110653, Note_on_c, 0, 43, 56
2, 110664, Note_on_c, 0, 43, 0
2, 110671, Note_on_c, 0, 35, 0
2, 110702, Note_on_c, 0, 43, 55
2, 110704, Note_on_c, 0, 58, 0
2, 110727, Note_on_c, 0, 43, 0
2, 110729, Note_on_c, 0, 35, 57
2, 110763, Note_on_c, 0, 43, 59
2, 110769, Control_c, 0, 64, 0
2, 110779, Note_on_c, 0, 55, 0
2, 110786, Note_on_c, 0, 43, 0
2, 110796, Note_on_c, 0, 55, 54
2, 110819, Note_on_c, 0, 64, 0
2, 110830, Note_on_c, 0, 43, 53
2, 110840, Note_on_c, 0, 43, 0
2, 110848, Note_on_c, 0, 35, 0
2, 110853, Note_on_c, 0, 59, 53
2, 110853, Note_on_c, 0, 64, 54
2, 110857, Note_on_c, 0, 71, 60
2, 110862, Note_on_c, 0, 73, 0
2, 110873, Note_on_c, 0, 43, 53
2, 110895, Note_on_c, 0, 43, 0
2, 110910, Note_on_c, 0, 35, 57
2, 110941, Note_on_c, 0, 43, 58
2, 110955, Note_on_c, 0, 55, 0
2, 110965, Note_on_c, 0, 43, 0
2, 110973, Note_on_c, 0, 55, 59
2, 111005, Note_on_c, 0, 64, 0
2, 111005, Note_on_c, 0, 43, 52
2, 111016, Note_on_c, 0, 55, 0
2, 111021, Note_on_c, 0, 43, 0
2, 111033, Note_on_c, 0, 55, 55
2, 111038, Note_on_c, 0, 61, 54
2, 111040, Note_on_c, 0, 35, 0
2, 111040, Note_on_c, 0, 64, 56
2, 111040, Note_on_c, 0, 70, 60
2, 111046, Note_on_c, 0, 71, 0
2, 111051, Note_on_c, 0, 59, 0
2, 111061, Note_on_c, 0, 43, 51
2, 111064, Note_on_c, 0, 61, 0
2, 111099, Note_on_c, 0, 63, 58
2, 111101, Note_on_c, 0, 61, 56
2, 111103, Note_on_c, 0, 35, 57
2, 111103, Note_on_c, 0, 73, 67
2, 111120, Note_on_c, 0, 64, 0
2, 111141, Note_on_c, 0, 42, 54
2, 111143, Note_on_c, 0, 43, 0
2, 111183, Note_on_c, 0, 54, 68
2, 111213, Note_on_c, 0, 53, 52
2, 111225, Note_on_c, 0, 54, 0
2, 111236, Note_on_c, 0, 52, 48
2, 111236, Note_on_c, 0, 59, 51
2, 111238, Note_on_c, 0, 55, 0
2, 111238, Note_on_c, 0, 71, 55
2, 111247, Note_on_c, 0, 73, 0
2, 111247, Note_on_c, 0, 70, 0
2, 111252, Note_on_c, 0, 61, 0
2, 111260, Note_on_c, 0, 53, 0
2, 111264, Note_on_c, 0, 51, 51
2, 111287, Note_on_c, 0, 52, 0
2, 111292, Note_on_c, 0, 50, 54
2, 111314, Note_on_c, 0, 51, 0
2, 111320, Note_on_c, 0, 49, 49
2, 111338, Note_on_c, 0, 50, 0
2, 111343, Note_on_c, 0, 48, 52
2, 111365, Note_on_c, 0, 49, 0
2, 111370, Note_on_c, 0, 47, 48
2, 111375, Note_on_c, 0, 48, 0
2, 111401, Note_on_c, 0, 46, 43
2, 111404, Note_on_c, 0, 42, 0
2, 111404, Note_on_c, 0, 35, 0
2, 111407, Note_on_c, 0, 60, 43
2, 111408, Note_on_c, 0, 71, 0
2, 111410, Note_on_c, 0, 47, 0
2, 111415, Note_on_c, 0, 63, 0
2, 111415, Note_on_c, 0, 59, 0
2, 111430, Note_on_c, 0, 45, 44
2, 111445, Note_on_c, 0, 46, 0
2, 111467, Note_on_c, 0, 44, 45
2, 111484, Note_on_c, 0, 45, 0
2, 111492, Note_on_c, 0, 43, 47
2, 111509, Note_on_c, 0, 44, 0
2, 111515, Note_on_c, 0, 42, 48
2, 111533, Note_on_c, 0, 43, 0
2, 111538, Note_on_c, 0, 41, 48
2, 111560, Note_on_c, 0, 42, 0
2, 111582, Note_on_c, 0, 40, 42
2, 111588, Note_on_c, 0, 41, 0
2, 111611, Control_c, 0, 64, 127
2, 111616, Note_on_c, 0, 39, 46
2, 111616, Note_on_c, 0, 58, 45
2, 111618, Note_on_c, 0, 69, 64
2, 111640, Note_on_c, 0, 38, 48
2, 111657, Note_on_c, 0, 60, 0
2, 111662, Note_on_c, 0, 39, 0
2, 111667, Note_on_c, 0, 37, 47
2, 111690, Note_on_c, 0, 60, 66
2, 111699, Note_on_c, 0, 36, 51
2, 111701, Note_on_c, 0, 37, 0
2, 111704, Note_on_c, 0, 40, 0
2, 111709, Note_on_c, 0, 38, 0
2, 111726, Control_c, 0, 64, 0
2, 111732, Note_on_c, 0, 35, 45
2, 111746, Note_on_c, 0, 36, 0
2, 111789, Note_on_c, 0, 38, 43
2, 111791, Note_on_c, 0, 58, 0
2, 111793, Note_on_c, 0, 35, 0
2, 111826, Note_on_c, 0, 36, 41
2, 111828, Note_on_c, 0, 58, 46
2, 111831, Note_on_c, 0, 60, 0
2, 111831, Note_on_c, 0, 67, 66
2, 111837, Note_on_c, 0, 38, 0
2, 111846, Note_on_c, 0, 69, 0
2, 111846, Note_on_c, 0, 35, 45
2, 111871, Note_on_c, 0, 36, 0
2, 111891, Note_on_c, 0, 60, 60
2, 111912, Note_on_c, 0, 36, 59
2, 111921, Note_on_c, 0, 35, 0
2, 111956, Note_on_c, 0, 36, 0
2, 111963, Note_on_c, 0, 48, 45
2, 111978, Note_on_c, 0, 48, 0
2, 111995, Note_on_c, 0, 36, 48
2, 112001, Control_c, 0, 64, 127
2, 112015, Note_on_c, 0, 48, 46
2, 112021, Note_on_c, 0, 36, 0
2, 112029, Note_on_c, 0, 57, 46
2, 112029, Note_on_c, 0, 65, 60
2, 112041, Note_on_c, 0, 58, 0
2, 112056, Note_on_c, 0, 65, 0
2, 112056, Control_c, 0, 64, 0
2, 112060, Note_on_c, 0, 36, 42
2, 112079, Note_on_c, 0, 36, 0
2, 112088, Note_on_c, 0, 65, 66
2, 112091, Note_on_c, 0, 35, 54
2, 112111, Note_on_c, 0, 48, 0
2, 112119, Note_on_c, 0, 36, 60
2, 112124, Note_on_c, 0, 35, 0
2, 112126, Note_on_c, 0, 67, 0
2, 112148, Note_on_c, 0, 36, 0
2, 112148, Note_on_c, 0, 64, 60
2, 112155, Note_on_c, 0, 48, 60
2, 112163, Note_on_c, 0, 65, 0
2, 112169, Note_on_c, 0, 48, 0
2, 112183, Note_on_c, 0, 36, 59
2, 112205, Note_on_c, 0, 60, 0
2, 112207, Note_on_c, 0, 36, 0
2, 112207, Note_on_c, 0, 48, 57
2, 112209, Note_on_c, 0, 62, 60
2, 112247, Note_on_c, 0, 36, 63
2, 112261, Note_on_c, 0, 57, 0
2, 112264, Note_on_c, 0, 64, 0
2, 112272, Note_on_c, 0, 35, 42
2, 112273, Note_on_c, 0, 36, 0
2, 112273, Note_on_c, 0, 56, 48
2, 112304, Note_on_c, 0, 48, 0
2, 112315, Note_on_c, 0, 36, 50
2, 112325, Note_on_c, 0, 35, 0
2, 112335, Note_on_c, 0, 36, 0
2, 112343, Note_on_c, 0, 48, 50
2, 112368, Note_on_c, 0, 48, 0
2, 112370, Note_on_c, 0, 36, 70
2, 112400, Note_on_c, 0, 64, 48
2, 112403, Note_on_c, 0, 36, 0
2, 112409, Note_on_c, 0, 48, 48
2, 112414, Note_on_c, 0, 53, 42
2, 112414, Note_on_c, 0, 60, 47
2, 112421, Note_on_c, 0, 62, 0
2, 112441, Note_on_c, 0, 36, 44
2, 112444, Note_on_c, 0, 56, 0
2, 112455, Control_c, 0, 64, 127
2, 112469, Note_on_c, 0, 36, 0
2, 112475, Note_on_c, 0, 35, 47
2, 112497, Note_on_c, 0, 56, 59
2, 112508, Note_on_c, 0, 48, 0
2, 112511, Note_on_c, 0, 53, 0
2, 112513, Note_on_c, 0, 36, 60
2, 112518, Note_on_c, 0, 35, 0
2, 112524, Note_on_c, 0, 36, 0
2, 112541, Note_on_c, 0, 48, 43
2, 112560, Note_on_c, 0, 48, 0
2, 112565, Note_on_c, 0, 36, 57
2, 112571, Control_c, 0, 64, 0
2, 112601, Note_on_c, 0, 36, 0
2, 112601, Note_on_c, 0, 48, 58
2, 112613, Note_on_c, 0, 62, 41
2, 112624, Note_on_c, 0, 59, 45
2, 112627, Note_on_c, 0, 53, 45
2, 112629, Note_on_c, 0, 60, 0
2, 112629, Note_on_c, 0, 56, 0
2, 112638, Note_on_c, 0, 36, 49
2, 112666, Note_on_c, 0, 35, 65
2, 112671, Note_on_c, 0, 36, 0
2, 112680, Note_on_c, 0, 56, 63
2, 112686, Note_on_c, 0, 64, 0
2, 112686, Note_on_c, 0, 53, 0
2, 112704, Note_on_c, 0, 48, 0
2, 112706, Note_on_c, 0, 36, 59
2, 112712, Note_on_c, 0, 35, 0
2, 112735, Note_on_c, 0, 48, 41
2, 112737, Note_on_c, 0, 36, 0
2, 112754, Note_on_c, 0, 48, 0
2, 112780, Note_on_c, 0, 36, 65
2, 112798, Note_on_c, 0, 36, 0
2, 112800, Note_on_c, 0, 48, 41
2, 112800, Note_on_c, 0, 60, 47
2, 112805, Note_on_c, 0, 59, 0
2, 112821, Note_on_c, 0, 62, 0
2, 112833, Note_on_c, 0, 36, 46
2, 112858, Note_on_c, 0, 36, 0
2, 112861, Note_on_c, 0, 35, 48
2, 112887, Note_on_c, 0, 48, 0
2, 112896, Note_on_c, 0, 36, 58
2, 112906, Note_on_c, 0, 35, 0
2, 112920, Note_on_c, 0, 48, 58
2, 112925, Note_on_c, 0, 36, 0
2, 112933, Note_on_c, 0, 55, 58
2, 112933, Note_on_c, 0, 58, 60
2, 112943, Note_on_c, 0, 56, 0
2, 112953, Note_on_c, 0, 48, 0
2, 112964, Note_on_c, 0, 36, 55
2, 112981, Note_on_c, 0, 36, 0
2, 112993, Note_on_c, 0, 48, 56
2, 112999, Note_on_c, 0, 53, 54
2, 113002, Note_on_c, 0, 56, 58
2, 113015, Note_on_c, 0, 58, 0
2, 113015, Note_on_c, 0, 36, 54
2, 113025, Note_on_c, 0, 36, 0
2, 113027, Note_on_c, 0, 55, 0
2, 113037, Note_on_c, 0, 48, 0
2, 113067, Note_on_c, 0, 36, 58
2, 113073, Note_on_c, 0, 48, 55
2, 113076, Note_on_c, 0, 55, 58
2, 113088, Note_on_c, 0, 53, 0
2, 113088, Note_on_c, 0, 56, 0
2, 113113, Note_on_c, 0, 43, 43
2, 113121, Note_on_c, 0, 55, 0
2, 113143, Note_on_c, 0, 55, 44
2, 113154, Note_on_c, 0, 43, 0
2, 113191, Note_on_c, 0, 55, 0
2, 113193, Note_on_c, 0, 43, 56
2, 113206, Note_on_c, 0, 43, 0
2, 113208, Note_on_c, 0, 62, 56
2, 113211, Note_on_c, 0, 55, 55
2, 113227, Note_on_c, 0, 36, 0
2, 113242, Note_on_c, 0, 48, 0
2, 113253, Note_on_c, 0, 43, 55
2, 113287, Note_on_c, 0, 36, 53
2, 113289, Note_on_c, 0, 64, 57
2, 113295, Note_on_c, 0, 43, 0
2, 113295, Control_c, 0, 64, 127
2, 113305, Note_on_c, 0, 61, 53
2, 113311, Note_on_c, 0, 55, 0
2, 113321, Note_on_c, 0, 60, 0
2, 113321, Note_on_c, 0, 62, 0
2, 113323, Note_on_c, 0, 46, 50
2, 113373, Note_on_c, 0, 46, 0
2, 113377, Note_on_c, 0, 58, 55
2, 113387, Note_on_c, 0, 65, 56
2, 113404, Note_on_c, 0, 58, 0
2, 113406, Note_on_c, 0, 64, 0
2, 113409, Note_on_c, 0, 46, 53
2, 113439, Note_on_c, 0, 58, 51
2, 113441, Note_on_c, 0, 46, 0
2, 113458, Note_on_c, 0, 67, 60
2, 113466, Note_on_c, 0, 36, 0
2, 113471, Note_on_c, 0, 65, 0
2, 113475, Control_c, 0, 64, 0
2, 113475, Note_on_c, 0, 46, 51
2, 113519, Note_on_c, 0, 69, 61
2, 113521, Note_on_c, 0, 60, 58
2, 113523, Note_on_c, 0, 36, 56
2, 113525, Note_on_c, 0, 66, 57
2, 113530, Note_on_c, 0, 61, 0
2, 113538, Note_on_c, 0, 67, 0
2, 113538, Note_on_c, 0, 58, 0
2, 113555, Note_on_c, 0, 45, 52
2, 113561, Note_on_c, 0, 46, 0
2, 113595, Note_on_c, 0, 45, 0
2, 113598, Note_on_c, 0, 57, 57
2, 113624, Note_on_c, 0, 57, 0
2, 113627, Control_c, 0, 64, 127
2, 113637, Note_on_c, 0, 45, 54
2, 113647, Note_on_c, 0, 45, 0
2, 113652, Note_on_c, 0, 57, 59
2, 113660, Note_on_c, 0, 74, 66
2, 113675, Note_on_c, 0, 36, 0
2, 113686, Note_on_c, 0, 45, 58
2, 113696, Note_on_c, 0, 59, 54
2, 113706, Note_on_c, 0, 57, 0
2, 113708, Note_on_c, 0, 59, 0
2, 113710, Note_on_c, 0, 66, 0
2, 113710, Note_on_c, 0, 69, 0
2, 113712, Note_on_c, 0, 60, 0
2, 113731, Note_on_c, 0, 59, 57
2, 113736, Note_on_c, 0, 36, 58
2, 113749, Note_on_c, 0, 74, 0
2, 113761, Note_on_c, 0, 65, 52
2, 113777, Control_c, 0, 64, 0
2, 113789, Note_on_c, 0, 44, 57
2, 113791, Note_on_c, 0, 45, 0
2, 113796, Note_on_c, 0, 74, 72
2, 113811, Note_on_c, 0, 44, 0
2, 113824, Note_on_c, 0, 56, 57
2, 113849, Note_on_c, 0, 56, 0
2, 113855, Note_on_c, 0, 44, 59
2, 113878, Note_on_c, 0, 44, 0
2, 113885, Note_on_c, 0, 56, 58
2, 113887, Note_on_c, 0, 36, 0
2, 113917, Note_on_c, 0, 44, 56
2, 113937, Note_on_c, 0, 44, 0
2, 113945, Note_on_c, 0, 36, 60
2, 113980, Note_on_c, 0, 44, 54
2, 113990, Note_on_c, 0, 56, 0
2, 114015, Note_on_c, 0, 44, 0
2, 114021, Note_on_c, 0, 56, 59
2, 114043, Note_on_c, 0, 65, 0
2, 114046, Note_on_c, 0, 56, 0
2, 114056, Note_on_c, 0, 44, 53
2, 114067, Note_on_c, 0, 44, 0
2, 114076, Note_on_c, 0, 72, 61
2, 114078, Note_on_c, 0, 56, 58
2, 114084, Note_on_c, 0, 60, 54
2, 114087, Note_on_c, 0, 59, 0
2, 114089, Note_on_c, 0, 36, 0
2, 114089, Note_on_c, 0, 65, 53
2, 114091, Note_on_c, 0, 74, 0
2, 114111, Note_on_c, 0, 44, 53
2, 114129, Note_on_c, 0, 44, 0
2, 114144, Note_on_c, 0, 36, 53
2, 114167, Note_on_c, 0, 44, 56
2, 114177, Note_on_c, 0, 56, 0
2, 114200, Note_on_c, 0, 44, 0
2, 114206, Note_on_c, 0, 56, 51
2, 114209, Control_c, 0, 64, 127
2, 114229, Note_on_c, 0, 56, 0
2, 114240, Note_on_c, 0, 44, 58
2, 114241, Note_on_c, 0, 65, 0
2, 114259, Note_on_c, 0, 44, 0
2, 114264, Note_on_c, 0, 56, 52
2, 114274, Note_on_c, 0, 61, 57
2, 114274, Note_on_c, 0, 71, 62
2, 114280, Note_on_c, 0, 65, 61
2, 114285, Note_on_c, 0, 72, 0
2, 114287, Note_on_c, 0, 36, 0
2, 114289, Note_on_c, 0, 60, 0
2, 114289, Note_on_c, 0, 71, 0
2, 114291, Control_c, 0, 64, 0
2, 114294, Note_on_c, 0, 44, 58
2, 114305, Note_on_c, 0, 65, 0
2, 114328, Note_on_c, 0, 71, 63
2, 114338, Note_on_c, 0, 65, 63
2, 114346, Note_on_c, 0, 36, 50
2, 114349, Note_on_c, 0, 60, 52
2, 114360, Note_on_c, 0, 56, 0
2, 114362, Note_on_c, 0, 61, 0
2, 114372, Note_on_c, 0, 43, 68
2, 114377, Note_on_c, 0, 44, 0
2, 114403, Note_on_c, 0, 55, 62
2, 114443, Note_on_c, 0, 54, 46
2, 114468, Note_on_c, 0, 64, 56
2, 114474, Note_on_c, 0, 53, 49
2, 114474, Note_on_c, 0, 72, 56
2, 114476, Note_on_c, 0, 55, 0
2, 114478, Note_on_c, 0, 65, 0
2, 114478, Note_on_c, 0, 71, 0
2, 114485, Note_on_c, 0, 54, 0
2, 114501, Note_on_c, 0, 52, 51
2, 114519, Note_on_c, 0, 53, 0
2, 114524, Note_on_c, 0, 60, 0
2, 114527, Note_on_c, 0, 51, 54
2, 114552, Note_on_c, 0, 52, 0
2, 114557, Note_on_c, 0, 50, 54
2, 114568, Note_on_c, 0, 51, 0
2, 114580, Note_on_c, 0, 49, 52
2, 114602, Note_on_c, 0, 50, 0
2, 114605, Note_on_c, 0, 43, 0
2, 114605, Note_on_c, 0, 48, 53
2, 114608, Note_on_c, 0, 36, 0
2, 114630, Note_on_c, 0, 49, 0
2, 114632, Note_on_c, 0, 62, 53
2, 114638, Note_on_c, 0, 72, 0
2, 114641, Note_on_c, 0, 47, 53
2, 114646, Note_on_c, 0, 64, 0
2, 114658, Note_on_c, 0, 48, 0
2, 114663, Note_on_c, 0, 46, 53
2, 114686, Note_on_c, 0, 47, 0
2, 114694, Note_on_c, 0, 45, 52
2, 114711, Control_c, 0, 67, 0
2, 114717, Note_on_c, 0, 62, 0
2, 114742, Note_on_c, 0, 44, 53
2, 114742, Note_on_c, 0, 62, 51
2, 114749, Control_c, 0, 67, 127
2, 114755, Note_on_c, 0, 46, 0
2, 114781, Note_on_c, 0, 43, 52
2, 114787, Note_on_c, 0, 45, 0
2, 114796, Note_on_c, 0, 44, 0
2, 114807, Note_on_c, 0, 42, 55
2, 114816, Note_on_c, 0, 43, 0
2, 114821, Note_on_c, 0, 41, 49
2, 114836, Control_c, 0, 64, 127
2, 114840, Note_on_c, 0, 60, 49
2, 114840, Note_on_c, 0, 70, 63
2, 114846, Note_on_c, 0, 42, 0
2, 114849, Note_on_c, 0, 66, 45
2, 114852, Note_on_c, 0, 40, 53
2, 114862, Note_on_c, 0, 41, 0
2, 114872, Note_on_c, 0, 62, 0
2, 114877, Note_on_c, 0, 39, 55
2, 114883, Note_on_c, 0, 40, 0
2, 114898, Note_on_c, 0, 62, 65
2, 114900, Note_on_c, 0, 38, 64
2, 114906, Note_on_c, 0, 39, 0
2, 114911, Note_on_c, 0, 38, 0
2, 114920, Note_on_c, 0, 37, 45
2, 114946, Control_c, 0, 64, 0
2, 114946, Note_on_c, 0, 38, 48
2, 114964, Note_on_c, 0, 38, 0
2, 114972, Note_on_c, 0, 39, 42
2, 114975, Note_on_c, 0, 60, 0
2, 114975, Note_on_c, 0, 37, 0
2, 114980, Note_on_c, 0, 66, 0
2, 115000, Note_on_c, 0, 38, 44
2, 115005, Note_on_c, 0, 60, 45
2, 115005, Note_on_c, 0, 69, 66
2, 115008, Note_on_c, 0, 39, 0
2, 115022, Note_on_c, 0, 70, 0
2, 115024, Note_on_c, 0, 66, 43
2, 115026, Note_on_c, 0, 62, 0
2, 115043, Note_on_c, 0, 37, 67
2, 115048, Note_on_c, 0, 38, 0
2, 115056, Note_on_c, 0, 62, 64
2, 115079, Note_on_c, 0, 66, 0
2, 115084, Note_on_c, 0, 38, 43
2, 115094, Note_on_c, 0, 37, 0
2, 115114, Note_on_c, 0, 38, 0
2, 115131, Note_on_c, 0, 50, 43
2, 115133, Note_on_c, 0, 62, 0
2, 115136, Control_c, 0, 64, 127
2, 115146, Note_on_c, 0, 50, 0
2, 115155, Note_on_c, 0, 38, 50
2, 115165, Note_on_c, 0, 69, 0
2, 115168, Note_on_c, 0, 58, 44
2, 115168, Note_on_c, 0, 67, 48
2, 115173, Note_on_c, 0, 38, 0
2, 115173, Note_on_c, 0, 62, 45
2, 115180, Note_on_c, 0, 50, 50
2, 115191, Note_on_c, 0, 60, 0
2, 115191, Note_on_c, 0, 67, 0
2, 115199, Control_c, 0, 64, 0
2, 115206, Note_on_c, 0, 38, 43
2, 115209, Note_on_c, 0, 69, 43
2, 115220, Note_on_c, 0, 38, 0
2, 115227, Note_on_c, 0, 67, 60
2, 115232, Note_on_c, 0, 37, 45
2, 115237, Note_on_c, 0, 69, 0
2, 115255, Note_on_c, 0, 38, 47
2, 115258, Note_on_c, 0, 50, 0
2, 115271, Note_on_c, 0, 37, 0
2, 115286, Note_on_c, 0, 57, 49
2, 115286, Note_on_c, 0, 60, 47
2, 115288, Note_on_c, 0, 65, 59
2, 115297, Note_on_c, 0, 38, 0
2, 115297, Note_on_c, 0, 50, 44
2, 115307, Note_on_c, 0, 58, 0
2, 115312, Note_on_c, 0, 50, 0
2, 115329, Note_on_c, 0, 38, 59
2, 115339, Note_on_c, 0, 55, 63
2, 115342, Note_on_c, 0, 38, 0
2, 115342, Note_on_c, 0, 63, 61
2, 115344, Note_on_c, 0, 58, 58
2, 115349, Note_on_c, 0, 50, 58
2, 115360, Note_on_c, 0, 57, 0
2, 115360, Note_on_c, 0, 62, 0
2, 115360, Note_on_c, 0, 67, 0
2, 115369, Note_on_c, 0, 65, 0
2, 115377, Note_on_c, 0, 38, 63
2, 115385, Note_on_c, 0, 60, 0
2, 115390, Note_on_c, 0, 38, 0
2, 115404, Note_on_c, 0, 37, 62
2, 115407, Note_on_c, 0, 54, 61
2, 115407, Note_on_c, 0, 62, 60
2, 115412, Note_on_c, 0, 60, 56
2, 115421, Note_on_c, 0, 37, 0
2, 115421, Note_on_c, 0, 38, 56
2, 115423, Note_on_c, 0, 63, 0
2, 115426, Note_on_c, 0, 58, 0
2, 115426, Note_on_c, 0, 55, 0
2, 115432, Note_on_c, 0, 50, 0
2, 115474, Note_on_c, 0, 50, 58
2, 115477, Note_on_c, 0, 60, 0
2, 115479, Note_on_c, 0, 38, 0
2, 115507, Note_on_c, 0, 64, 58
2, 115509, Note_on_c, 0, 38, 58
2, 115511, Note_on_c, 0, 60, 57
2, 115512, Note_on_c, 0, 55, 57
2, 115514, Note_on_c, 0, 54, 0
2, 115524, Note_on_c, 0, 38, 0
2, 115524, Note_on_c, 0, 62, 0
2, 115529, Note_on_c, 0, 60, 0
2, 115551, Note_on_c, 0, 37, 64
2, 115554, Note_on_c, 0, 57, 62
2, 115559, Note_on_c, 0, 60, 57
2, 115559, Note_on_c, 0, 66, 60
2, 115564, Note_on_c, 0, 50, 0
2, 115566, Note_on_c, 0, 38, 60
2, 115582, Note_on_c, 0, 64, 0
2, 115584, Note_on_c, 0, 55, 0
2, 115594, Note_on_c, 0, 38, 0
2, 115604, Note_on_c, 0, 50, 56
2, 115613, Note_on_c, 0, 58, 53
2, 115616, Note_on_c, 0, 62, 59
2, 115616, Note_on_c, 0, 67, 59
2, 115621, Note_on_c, 0, 57, 0
2, 115621, Note_on_c, 0, 60, 0
2, 115627, Note_on_c, 0, 38, 59
2, 115629, Note_on_c, 0, 66, 0
2, 115634, Note_on_c, 0, 62, 0
2, 115642, Note_on_c, 0, 37, 0
2, 115642, Note_on_c, 0, 50, 0
2, 115653, Note_on_c, 0, 38, 0
2, 115657, Note_on_c, 0, 60, 58
2, 115667, Note_on_c, 0, 62, 59
2, 115667, Note_on_c, 0, 66, 63
2, 115667, Note_on_c, 0, 69, 59
2, 115672, Note_on_c, 0, 67, 0
2, 115682, Note_on_c, 0, 62, 0
2, 115682, Note_on_c, 0, 58, 0
2, 115685, Note_on_c, 0, 50, 56
2, 115691, Note_on_c, 0, 38, 52
2, 115705, Note_on_c, 0, 38, 0
2, 115711, Note_on_c, 0, 70, 65
2, 115717, Note_on_c, 0, 58, 55
2, 115717, Note_on_c, 0, 67, 59
2, 115723, Note_on_c, 0, 37, 59
2, 115725, Note_on_c, 0, 69, 0
2, 115727, Note_on_c, 0, 66, 0
2, 115731, Note_on_c, 0, 62, 53
2, 115736, Note_on_c, 0, 50, 0
2, 115739, Note_on_c, 0, 60, 0
2, 115742, Note_on_c, 0, 38, 54
2, 115754, Note_on_c, 0, 37, 0
2, 115769, Note_on_c, 0, 38, 0
2, 115772, Note_on_c, 0, 50, 57
2, 115800, Note_on_c, 0, 50, 0
2, 115800, Note_on_c, 0, 38, 55
2, 115822, Note_on_c, 0, 38, 0
2, 115824, Note_on_c, 0, 62, 0
2, 115825, Note_on_c, 0, 63, 55
2, 115833, Note_on_c, 0, 75, 66
2, 115844, Note_on_c, 0, 70, 0
2, 115844, Note_on_c, 0, 50, 54
2, 115846, Note_on_c, 0, 72, 52
2, 115861, Note_on_c, 0, 38, 59
2, 115869, Control_c, 0, 67, 0
2, 115874, Note_on_c, 0, 38, 0
2, 115874, Note_on_c, 0, 37, 55
2, 115882, Note_on_c, 0, 62, 54
2, 115892, Note_on_c, 0, 72, 0
2, 115894, Note_on_c, 0, 50, 0
2, 115894, Note_on_c, 0, 74, 57
2, 115896, Note_on_c, 0, 75, 0
2, 115900, Note_on_c, 0, 63, 0
2, 115900, Note_on_c, 0, 70, 46
2, 115902, Note_on_c, 0, 38, 53
2, 115908, Note_on_c, 0, 37, 0
2, 115925, Note_on_c, 0, 38, 0
2, 115935, Note_on_c, 0, 50, 56
2, 115966, Note_on_c, 0, 38, 52
2, 115980, Note_on_c, 0, 67, 0
2, 115998, Note_on_c, 0, 58, 0
2, 116006, Note_on_c, 0, 51, 56
2, 116011, Note_on_c, 0, 50, 0
2, 116016, Note_on_c, 0, 73, 56
2, 116020, Note_on_c, 0, 61, 55
2, 116033, Note_on_c, 0, 70, 0
2, 116033, Note_on_c, 0, 74, 0
2, 116033, Note_on_c, 0, 62, 0
2, 116035, Note_on_c, 0, 67, 50
2, 116042, Note_on_c, 0, 38, 0
2, 116078, Note_on_c, 0, 39, 55
2, 116090, Note_on_c, 0, 39, 0
2, 116090, Note_on_c, 0, 63, 57
2, 116095, Note_on_c, 0, 38, 62
2, 116108, Note_on_c, 0, 51, 0
2, 116134, Note_on_c, 0, 39, 44
2, 116152, Note_on_c, 0, 39, 0
2, 116162, Note_on_c, 0, 51, 56
2, 116172, Note_on_c, 0, 61, 0
2, 116174, Note_on_c, 0, 67, 0
2, 116177, Note_on_c, 0, 51, 0
2, 116186, Note_on_c, 0, 39, 54
2, 116212, Note_on_c, 0, 61, 50
2, 116212, Note_on_c, 0, 72, 56
2, 116217, Note_on_c, 0, 39, 0
2, 116220, Note_on_c, 0, 51, 57
2, 116225, Note_on_c, 0, 73, 0
2, 116227, Note_on_c, 0, 38, 0
2, 116232, Note_on_c, 0, 67, 51
2, 116243, Note_on_c, 0, 38, 50
2, 116243, Note_on_c, 0, 39, 54
2, 116253, Note_on_c, 0, 39, 0
2, 116268, Note_on_c, 0, 51, 0
2, 116278, Note_on_c, 0, 67, 0
2, 116278, Note_on_c, 0, 61, 0
2, 116280, Note_on_c, 0, 39, 53
2, 116303, Note_on_c, 0, 51, 52
2, 116305, Note_on_c, 0, 70, 69
2, 116308, Note_on_c, 0, 39, 0
2, 116313, Note_on_c, 0, 61, 52
2, 116319, Note_on_c, 0, 38, 0
2, 116321, Note_on_c, 0, 72, 0
2, 116323, Note_on_c, 0, 67, 45
2, 116330, Note_on_c, 0, 63, 0
2, 116348, Note_on_c, 0, 39, 63
2, 116358, Note_on_c, 0, 39, 0
2, 116364, Note_on_c, 0, 63, 64
2, 116366, Note_on_c, 0, 51, 0
2, 116376, Note_on_c, 0, 38, 57
2, 116387, Note_on_c, 0, 39, 64
2, 116418, Note_on_c, 0, 39, 0
2, 116421, Note_on_c, 0, 51, 56
2, 116436, Note_on_c, 0, 70, 0
2, 116444, Note_on_c, 0, 38, 0
2, 116449, Note_on_c, 0, 60, 55
2, 116452, Note_on_c, 0, 39, 52
2, 116462, Note_on_c, 0, 68, 51
2, 116465, Note_on_c, 0, 61, 0
2, 116467, Note_on_c, 0, 67, 0
2, 116474, Note_on_c, 0, 70, 54
2, 116480, Note_on_c, 0, 68, 0
2, 116488, Note_on_c, 0, 39, 0
2, 116491, Note_on_c, 0, 51, 0
2, 116494, Note_on_c, 0, 38, 57
2, 116504, Note_on_c, 0, 68, 64
2, 116517, Note_on_c, 0, 70, 0
2, 116529, Note_on_c, 0, 39, 53
2, 116535, Note_on_c, 0, 38, 0
2, 116545, Note_on_c, 0, 39, 0
2, 116547, Note_on_c, 0, 51, 51
2, 116549, Note_on_c, 0, 58, 51
2, 116549, Note_on_c, 0, 61, 51
2, 116557, Note_on_c, 0, 67, 60
2, 116559, Note_on_c, 0, 51, 0
2, 116565, Note_on_c, 0, 60, 0
2, 116568, Note_on_c, 0, 68, 0
2, 116585, Note_on_c, 0, 39, 52
2, 116590, Note_on_c, 0, 63, 0
2, 116608, Note_on_c, 0, 61, 0
2, 116608, Note_on_c, 0, 39, 0
2, 116622, Note_on_c, 0, 51, 65
2, 116633, Note_on_c, 0, 65, 59
2, 116639, Note_on_c, 0, 56, 58
2, 116640, Note_on_c, 0, 61, 64
2, 116645, Note_on_c, 0, 39, 62
2, 116648, Note_on_c, 0, 58, 0
2, 116648, Note_on_c, 0, 67, 0
2, 116658, Note_on_c, 0, 39, 0
2, 116660, Note_on_c, 0, 61, 0
2, 116660, Note_on_c, 0, 65, 0
2, 116672, Note_on_c, 0, 63, 61
2, 116675, Note_on_c, 0, 55, 62
2, 116680, Note_on_c, 0, 38, 62
2, 116682, Note_on_c, 0, 61, 59
2, 116691, Note_on_c, 0, 56, 0
2, 116697, Note_on_c, 0, 51, 0
2, 116703, Note_on_c, 0, 39, 64
2, 116712, Note_on_c, 0, 38, 0
2, 116731, Note_on_c, 0, 39, 0
2, 116734, Note_on_c, 0, 51, 65
2, 116751, Note_on_c, 0, 51, 0
2, 116754, Note_on_c, 0, 61, 0
2, 116771, Note_on_c, 0, 39, 60
2, 116779, Control_c, 0, 64, 127
2, 116784, Note_on_c, 0, 39, 0
2, 116788, Note_on_c, 0, 65, 71
2, 116793, Note_on_c, 0, 51, 61
2, 116793, Note_on_c, 0, 61, 61
2, 116799, Note_on_c, 0, 56, 65
2, 116804, Note_on_c, 0, 63, 0
2, 116818, Note_on_c, 0, 39, 60
2, 116826, Note_on_c, 0, 55, 0
2, 116844, Note_on_c, 0, 39, 0
2, 116849, Note_on_c, 0, 58, 65
2, 116852, Note_on_c, 0, 63, 62
2, 116859, Note_on_c, 0, 67, 66
2, 116861, Note_on_c, 0, 38, 61
2, 116863, Note_on_c, 0, 51, 0
2, 116869, Note_on_c, 0, 63, 0
2, 116883, Note_on_c, 0, 39, 63
2, 116898, Note_on_c, 0, 39, 0
2, 116901, Note_on_c, 0, 60, 65
2, 116903, Note_on_c, 0, 63, 61
2, 116905, Note_on_c, 0, 51, 66
2, 116908, Note_on_c, 0, 68, 68
2, 116916, Note_on_c, 0, 67, 0
2, 116919, Note_on_c, 0, 61, 0
2, 116929, Note_on_c, 0, 51, 0
2, 116937, Note_on_c, 0, 39, 61
2, 116950, Note_on_c, 0, 38, 0
2, 116952, Note_on_c, 0, 61, 63
2, 116955, Note_on_c, 0, 39, 0
2, 116955, Control_c, 0, 64, 0
2, 116955, Note_on_c, 0, 70, 67
2, 116960, Note_on_c, 0, 67, 69
2, 116962, Note_on_c, 0, 68, 0
2, 116970, Note_on_c, 0, 51, 64
2, 116976, Note_on_c, 0, 60, 0
2, 116991, Note_on_c, 0, 67, 0
2, 116996, Note_on_c, 0, 70, 0
2, 116996, Note_on_c, 0, 63, 0
2, 116996, Note_on_c, 0, 39, 60
2, 116999, Note_on_c, 0, 65, 0
2, 117001, Note_on_c, 0, 68, 72
2, 117004, Note_on_c, 0, 60, 66
2, 117007, Note_on_c, 0, 39, 0
2, 117009, Note_on_c, 0, 72, 66
2, 117015, Note_on_c, 0, 58, 0
2, 117015, Note_on_c, 0, 56, 0
2, 117021, Note_on_c, 0, 61, 0
2, 117024, Note_on_c, 0, 38, 64
2, 117029, Note_on_c, 0, 51, 0
2, 117049, Note_on_c, 0, 39, 60
2, 117067, Note_on_c, 0, 39, 0
2, 117072, Note_on_c, 0, 51, 61
2, 117093, Note_on_c, 0, 51, 0
2, 117107, Note_on_c, 0, 39, 63
2, 117112, Note_on_c, 0, 38, 0
2, 117120, Note_on_c, 0, 39, 0
2, 117135, Note_on_c, 0, 51, 64
2, 117137, Note_on_c, 0, 77, 76
2, 117146, Note_on_c, 0, 65, 56
2, 117151, Note_on_c, 0, 51, 0
2, 117151, Note_on_c, 0, 73, 58
2, 117164, Note_on_c, 0, 72, 0
2, 117164, Note_on_c, 0, 39, 64
2, 117182, Note_on_c, 0, 39, 0
2, 117182, Note_on_c, 0, 51, 65
2, 117202, Note_on_c, 0, 38, 65
2, 117210, Note_on_c, 0, 63, 65
2, 117213, Note_on_c, 0, 75, 74
2, 117215, Note_on_c, 0, 38, 0
2, 117219, Note_on_c, 0, 51, 0
2, 117222, Note_on_c, 0, 39, 66
2, 117224, Note_on_c, 0, 73, 0
2, 117226, Note_on_c, 0, 72, 54
2, 117231, Note_on_c, 0, 65, 0
2, 117241, Note_on_c, 0, 39, 0
2, 117254, Note_on_c, 0, 38, 62
2, 117257, Note_on_c, 0, 77, 0
2, 117260, Note_on_c, 0, 51, 67
2, 117280, Note_on_c, 0, 39, 64
2, 117285, Note_on_c, 0, 38, 0
2, 117295, Note_on_c, 0, 51, 0
2, 117303, Note_on_c, 0, 39, 0
2, 117338, Note_on_c, 0, 51, 62
2, 117341, Note_on_c, 0, 39, 64
2, 117357, Note_on_c, 0, 62, 64
2, 117364, Note_on_c, 0, 72, 0
2, 117366, Note_on_c, 0, 74, 53
2, 117368, Note_on_c, 0, 75, 0
2, 117373, Note_on_c, 0, 60, 0
2, 117375, Note_on_c, 0, 71, 54
2, 117377, Note_on_c, 0, 63, 0
2, 117431, Note_on_c, 0, 68, 0
2, 117465, Note_on_c, 0, 27, 86
2, 117606, Note_on_c, 0, 56, 53
2, 117636, Note_on_c, 0, 58, 52
2, 117650, Note_on_c, 0, 58, 0
2, 117661, Note_on_c, 0, 59, 53
2, 117673, Note_on_c, 0, 56, 0
2, 117684, Note_on_c, 0, 51, 0
2, 117686, Note_on_c, 0, 63, 58
2, 117688, Note_on_c, 0, 72, 74
2, 117691, Note_on_c, 0, 58, 57
2, 117696, Note_on_c, 0, 75, 71
2, 117702, Note_on_c, 0, 71, 0
2, 117702, Note_on_c, 0, 62, 0
2, 117708, Control_c, 0, 64, 127
2, 117718, Note_on_c, 0, 63, 0
2, 117722, Note_on_c, 0, 72, 0
2, 117724, Note_on_c, 0, 56, 76
2, 117726, Note_on_c, 0, 74, 0
2, 117726, Note_on_c, 0, 75, 0
2, 117737, Note_on_c, 0, 51, 73
2, 117737, Note_on_c, 0, 64, 74
2, 117742, Note_on_c, 0, 56, 0
2, 117746, Note_on_c, 0, 58, 0
2, 117754, Note_on_c, 0, 73, 75
2, 117762, Note_on_c, 0, 76, 73
2, 117769, Note_on_c, 0, 59, 0
2, 117772, Note_on_c, 0, 56, 77
2, 117777, Note_on_c, 0, 64, 0
2, 117783, Note_on_c, 0, 73, 0
2, 117791, Note_on_c, 0, 58, 73
2, 117792, Note_on_c, 0, 76, 0
2, 117800, Note_on_c, 0, 56, 0
2, 117802, Note_on_c, 0, 74, 75
2, 117805, Note_on_c, 0, 65, 76
2, 117808, Note_on_c, 0, 58, 0
2, 117814, Note_on_c, 0, 77, 77
2, 117818, Note_on_c, 0, 59, 75
2, 117829, Note_on_c, 0, 39, 0
2, 117832, Note_on_c, 0, 74, 0
2, 117842, Note_on_c, 0, 58, 75
2, 117844, Note_on_c, 0, 51, 0
2, 117844, Note_on_c, 0, 65, 0
2, 117844, Note_on_c, 0, 78, 77
2, 117846, Note_on_c, 0, 77, 0
2, 117849, Note_on_c, 0, 56, 76
2, 117852, Note_on_c, 0, 66, 72
2, 117852, Note_on_c, 0, 75, 71
2, 117880, Note_on_c, 0, 78, 0
2, 117885, Note_on_c, 0, 56, 0
2, 117887, Note_on_c, 0, 66, 0
2, 117887, Note_on_c, 0, 75, 0
2, 117905, Note_on_c, 0, 51, 87
2, 117911, Note_on_c, 0, 39, 83
2, 117913, Note_on_c, 0, 58, 0
2, 117915, Note_on_c, 0, 67, 77
2, 117917, Note_on_c, 0, 79, 74
2, 117920, Note_on_c, 0, 76, 77
2, 117935, Note_on_c, 0, 67, 0
2, 117939, Note_on_c, 0, 56, 70
2, 117945, Note_on_c, 0, 79, 0
2, 117945, Note_on_c, 0, 76, 0
2, 117947, Note_on_c, 0, 59, 0
2, 117962, Note_on_c, 0, 58, 74
2, 117978, Note_on_c, 0, 58, 0
2, 117990, Note_on_c, 0, 59, 71
2, 117995, Note_on_c, 0, 56, 0
2, 118006, Note_on_c, 0, 51, 0
2, 118010, Note_on_c, 0, 77, 71
2, 118015, Note_on_c, 0, 68, 73
2, 118020, Note_on_c, 0, 80, 73
2, 118022, Note_on_c, 0, 58, 75
2, 118040, Note_on_c, 0, 77, 0
2, 118043, Note_on_c, 0, 56, 73
2, 118051, Note_on_c, 0, 68, 0
2, 118051, Note_on_c, 0, 80, 0
2, 118054, Note_on_c, 0, 56, 0
2, 118056, Note_on_c, 0, 78, 78
2, 118058, Note_on_c, 0, 51, 75
2, 118060, Note_on_c, 0, 58, 0
2, 118065, Note_on_c, 0, 69, 75
2, 118071, Note_on_c, 0, 81, 72
2, 118081, Note_on_c, 0, 56, 77
2, 118083, Note_on_c, 0, 59, 0
2, 118085, Note_on_c, 0, 81, 0
2, 118091, Note_on_c, 0, 78, 0
2, 118097, Note_on_c, 0, 69, 0
2, 118100, Note_on_c, 0, 70, 75
2, 118112, Note_on_c, 0, 58, 72
2, 118114, Note_on_c, 0, 82, 73
2, 118116, Note_on_c, 0, 79, 71
2, 118126, Note_on_c, 0, 58, 0
2, 118135, Note_on_c, 0, 56, 0
2, 118135, Note_on_c, 0, 70, 0
2, 118143, Note_on_c, 0, 82, 0
2, 118143, Note_on_c, 0, 59, 77
2, 118145, Note_on_c, 0, 79, 0
2, 118157, Note_on_c, 0, 39, 0
2, 118168, Note_on_c, 0, 27, 0
2, 118168, Note_on_c, 0, 58, 77
2, 118194, Note_on_c, 0, 56, 78
2, 118196, Note_on_c, 0, 71, 76
2, 118199, Note_on_c, 0, 83, 74
2, 118208, Note_on_c, 0, 71, 0
2, 118210, Note_on_c, 0, 83, 0
2, 118218, Control_c, 0, 64, 0
2, 118241, Note_on_c, 0, 71, 89
2, 118241, Note_on_c, 0, 83, 90
2, 118244, Note_on_c, 0, 80, 90
2, 118246, Note_on_c, 0, 39, 95
2, 118248, Note_on_c, 0, 27, 97
2, 118250, Note_on_c, 0, 56, 0
2, 118286, Note_on_c, 0, 58, 0
2, 118303, Note_on_c, 0, 56, 72
2, 118313, Note_on_c, 0, 59, 0
2, 118323, Note_on_c, 0, 65, 79
2, 118333, Note_on_c, 0, 58, 77
2, 118333, Note_on_c, 0, 77, 85
2, 118343, Note_on_c, 0, 74, 81
2, 118344, Note_on_c, 0, 58, 0
2, 118360, Note_on_c, 0, 59, 78
2, 118368, Note_on_c, 0, 74, 0
2, 118368, Note_on_c, 0, 56, 0
2, 118368, Note_on_c, 0, 65, 0
2, 118372, Note_on_c, 0, 77, 0
2, 118382, Note_on_c, 0, 51, 0
2, 118384, Note_on_c, 0, 58, 74
2, 118398, Note_on_c, 0, 66, 86
2, 118398, Note_on_c, 0, 78, 84
2, 118401, Note_on_c, 0, 75, 82
2, 118406, Control_c, 0, 64, 127
2, 118418, Note_on_c, 0, 56, 77
2, 118423, Note_on_c, 0, 78, 0
2, 118429, Note_on_c, 0, 66, 0
2, 118429, Note_on_c, 0, 56, 0
2, 118429, Note_on_c, 0, 75, 0
2, 118439, Note_on_c, 0, 51, 80
2, 118440, Note_on_c, 0, 58, 0
2, 118448, Note_on_c, 0, 76, 84
2, 118451, Note_on_c, 0, 67, 84
2, 118456, Note_on_c, 0, 79, 85
2, 118458, Note_on_c, 0, 80, 0
2, 118465, Note_on_c, 0, 56, 78
2, 118471, Note_on_c, 0, 76, 0
2, 118474, Note_on_c, 0, 59, 0
2, 118477, Note_on_c, 0, 67, 0
2, 118482, Note_on_c, 0, 79, 0
2, 118491, Note_on_c, 0, 58, 77
2, 118496, Note_on_c, 0, 77, 79
2, 118502, Note_on_c, 0, 68, 85
2, 118502, Note_on_c, 0, 80, 86
2, 118507, Note_on_c, 0, 58, 0
2, 118517, Note_on_c, 0, 56, 0
2, 118519, Note_on_c, 0, 59, 80
2, 118527, Note_on_c, 0, 80, 0
2, 118532, Note_on_c, 0, 77, 0
2, 118541, Note_on_c, 0, 68, 0
2, 118544, Note_on_c, 0, 51, 0
2, 118547, Note_on_c, 0, 58, 74
2, 118550, Note_on_c, 0, 39, 0
2, 118552, Note_on_c, 0, 78, 81
2, 118555, Note_on_c, 0, 69, 82
2, 118558, Note_on_c, 0, 81, 85
2, 118572, Note_on_c, 0, 81, 0
2, 118572, Note_on_c, 0, 56, 78
2, 118582, Note_on_c, 0, 78, 0
2, 118584, Note_on_c, 0, 56, 0
2, 118584, Note_on_c, 0, 69, 0
2, 118597, Note_on_c, 0, 58, 0
2, 118597, Note_on_c, 0, 70, 87
2, 118599, Note_on_c, 0, 51, 90
2, 118607, Note_on_c, 0, 39, 88
2, 118607, Note_on_c, 0, 79, 85
2, 118608, Note_on_c, 0, 82, 85
2, 118614, Note_on_c, 0, 83, 0
2, 118617, Note_on_c, 0, 71, 0
2, 118627, Note_on_c, 0, 59, 0
2, 118627, Note_on_c, 0, 56, 88
2, 118632, Note_on_c, 0, 70, 0
2, 118640, Note_on_c, 0, 79, 0
2, 118642, Note_on_c, 0, 82, 0
2, 118645, Note_on_c, 0, 58, 76
2, 118656, Note_on_c, 0, 71, 84
2, 118656, Note_on_c, 0, 83, 83
2, 118657, Note_on_c, 0, 58, 0
2, 118667, Note_on_c, 0, 80, 88
2, 118678, Note_on_c, 0, 83, 0
2, 118678, Note_on_c, 0, 59, 77
2, 118680, Note_on_c, 0, 71, 0
2, 118690, Note_on_c, 0, 80, 0
2, 118693, Note_on_c, 0, 56, 0
2, 118708, Note_on_c, 0, 58, 79
2, 118718, Note_on_c, 0, 80, 82
2, 118718, Note_on_c, 0, 84, 87
2, 118720, Note_on_c, 0, 72, 86
2, 118735, Note_on_c, 0, 51, 0
2, 118746, Note_on_c, 0, 72, 0
2, 118749, Note_on_c, 0, 56, 77
2, 118751, Note_on_c, 0, 80, 0
2, 118751, Note_on_c, 0, 84, 0
2, 118771, Note_on_c, 0, 56, 0
2, 118783, Note_on_c, 0, 51, 77
2, 118783, Note_on_c, 0, 80, 94
2, 118783, Note_on_c, 0, 85, 96
2, 118786, Note_on_c, 0, 73, 101
2, 118799, Note_on_c, 0, 58, 0
2, 118816, Note_on_c, 0, 80, 0
2, 118819, Note_on_c, 0, 73, 0
2, 118819, Note_on_c, 0, 85, 0
2, 118824, Note_on_c, 0, 56, 78
2, 118850, Note_on_c, 0, 59, 0
2, 118853, Note_on_c, 0, 58, 77
2, 118863, Note_on_c, 0, 74, 99
2, 118863, Note_on_c, 0, 80, 99
2, 118866, Note_on_c, 0, 86, 101
2, 118883, Note_on_c, 0, 58, 0
2, 118888, Note_on_c, 0, 80, 0
2, 118888, Note_on_c, 0, 74, 0
2, 118893, Note_on_c, 0, 59, 81
2, 118896, Note_on_c, 0, 86, 0
2, 118908, Note_on_c, 0, 56, 0
2, 118936, Note_on_c, 0, 58, 79
2, 118938, Note_on_c, 0, 77, 98
2, 118938, Note_on_c, 0, 80, 100
2, 118947, Note_on_c, 0, 59, 0
2, 118947, Note_on_c, 0, 89, 96
2, 118965, Note_on_c, 0, 56, 80
2, 119002, Note_on_c, 0, 27, 0
2, 119002, Note_on_c, 0, 39, 0
2, 119047, Control_c, 0, 64, 0
2, 119070, Note_on_c, 0, 27, 100
2, 119070, Note_on_c, 0, 39, 104
2, 119070, Note_on_c, 0, 75, 102
2, 119073, Note_on_c, 0, 87, 103
2, 119076, Note_on_c, 0, 51, 0
2, 119084, Note_on_c, 0, 56, 0
2, 119084, Note_on_c, 0, 58, 0
2, 119086, Note_on_c, 0, 89, 0
2, 119086, Note_on_c, 0, 80, 0
2, 119086, Note_on_c, 0, 77, 0
2, 119207, Note_on_c, 0, 55, 84
2, 119207, Note_on_c, 0, 79, 79
2, 119207, Note_on_c, 0, 82, 84
2, 119207, Note_on_c, 0, 85, 80
2, 119208, Note_on_c, 0, 61, 83
2, 119208, Note_on_c, 0, 63, 84
2, 119210, Note_on_c, 0, 58, 79
2, 119235, Note_on_c, 0, 63, 0
2, 119235, Note_on_c, 0, 61, 0
2, 119241, Note_on_c, 0, 58, 0
2, 119256, Control_c, 0, 64, 127
2, 119284, Note_on_c, 0, 61, 80
2, 119289, Note_on_c, 0, 63, 79
2, 119294, Note_on_c, 0, 58, 77
2, 119294, Note_on_c, 0, 67, 96
2, 119299, Note_on_c, 0, 77, 94
2, 119304, Note_on_c, 0, 89, 92
2, 119314, Note_on_c, 0, 61, 0
2, 119317, Note_on_c, 0, 63, 0
2, 119319, Note_on_c, 0, 67, 0
2, 119329, Note_on_c, 0, 85, 0
2, 119329, Note_on_c, 0, 79, 0
2, 119335, Note_on_c, 0, 87, 0
2, 119363, Note_on_c, 0, 63, 81
2, 119365, Note_on_c, 0, 61, 82
2, 119371, Note_on_c, 0, 70, 93
2, 119373, Note_on_c, 0, 85, 95
2, 119375, Note_on_c, 0, 67, 95
2, 119375, Note_on_c, 0, 79, 90
2, 119377, Note_on_c, 0, 87, 91
2, 119379, Note_on_c, 0, 91, 91
2, 119384, Note_on_c, 0, 75, 0
2, 119389, Note_on_c, 0, 67, 0
2, 119394, Note_on_c, 0, 61, 0
2, 119394, Note_on_c, 0, 58, 0
2, 119397, Note_on_c, 0, 63, 0
2, 119402, Note_on_c, 0, 39, 0
2, 119407, Note_on_c, 0, 27, 0
2, 119427, Note_on_c, 0, 55, 0
2, 119440, Note_on_c, 0, 67, 90
2, 119442, Note_on_c, 0, 92, 91
2, 119444, Note_on_c, 0, 91, 0
2, 119444, Note_on_c, 0, 58, 76
2, 119444, Note_on_c, 0, 61, 82
2, 119444, Note_on_c, 0, 63, 77
2, 119448, Note_on_c, 0, 80, 93
2, 119450, Note_on_c, 0, 89, 0
2, 119455, Note_on_c, 0, 82, 0
2, 119457, Note_on_c, 0, 61, 0
2, 119457, Note_on_c, 0, 58, 0
2, 119460, Note_on_c, 0, 63, 0
2, 119462, Note_on_c, 0, 77, 0
2, 119462, Note_on_c, 0, 79, 0
2, 119493, Note_on_c, 0, 58, 80
2, 119493, Note_on_c, 0, 61, 76
2, 119493, Note_on_c, 0, 63, 78
2, 119500, Note_on_c, 0, 82, 91
2, 119502, Note_on_c, 0, 94, 92
2, 119568, Note_on_c, 0, 92, 0
2, 119571, Note_on_c, 0, 80, 0
2, 119571, Note_on_c, 0, 94, 0
2, 119571, Note_on_c, 0, 82, 0
2, 119574, Note_on_c, 0, 85, 0
2, 119574, Note_on_c, 0, 87, 0
2, 119596, Control_c, 0, 64, 0
2, 119598, Note_on_c, 0, 96, 93
2, 119601, Note_on_c, 0, 32, 95
2, 119601, Note_on_c, 0, 84, 89
2, 119614, Note_on_c, 0, 67, 0
2, 119614, Note_on_c, 0, 70, 0
2, 119614, Note_on_c, 0, 44, 97
2, 119616, Note_on_c, 0, 58, 0
2, 119616, Note_on_c, 0, 61, 0
2, 119640, Note_on_c, 0, 63, 0
2, 119697, Note_on_c, 0, 56, 76
2, 119697, Note_on_c, 0, 63, 74
2, 119699, Note_on_c, 0, 92, 78
2, 119702, Note_on_c, 0, 87, 75
2, 119787, Note_on_c, 0, 60, 74
2, 119789, Note_on_c, 0, 68, 80
2, 119804, Note_on_c, 0, 101, 79
2, 119807, Note_on_c, 0, 89, 74
2, 119811, Note_on_c, 0, 96, 0
2, 119814, Note_on_c, 0, 87, 0
2, 119832, Control_c, 0, 64, 127
2, 119856, Note_on_c, 0, 63, 0
2, 119871, Control_c, 0, 64, 0
2, 119904, Control_c, 0, 64, 127
2, 119904, Note_on_c, 0, 63, 78
2, 119908, Note_on_c, 0, 72, 78
2, 119910, Note_on_c, 0, 87, 81
2, 119910, Note_on_c, 0, 99, 75
2, 119921, Note_on_c, 0, 68, 0
2, 119923, Note_on_c, 0, 101, 0
2, 119923, Note_on_c, 0, 89, 0
2, 119923, Note_on_c, 0, 92, 0
2, 119926, Note_on_c, 0, 84, 0
2, 119964, Note_on_c, 0, 75, 77
2, 119966, Note_on_c, 0, 72, 0
2, 119968, Note_on_c, 0, 68, 81
2, 119971, Note_on_c, 0, 92, 74
2, 119971, Note_on_c, 0, 96, 77
2, 120017, Note_on_c, 0, 98, 86
2, 120023, Note_on_c, 0, 80, 90
2, 120025, Note_on_c, 0, 72, 88
2, 120025, Note_on_c, 0, 86, 91
2, 120030, Note_on_c, 0, 99, 0
2, 120035, Control_c, 0, 64, 0
2, 120037, Note_on_c, 0, 96, 0
2, 120037, Note_on_c, 0, 87, 0
2, 120099, Note_on_c, 0, 97, 89
2, 120101, Note_on_c, 0, 85, 92
2, 120101, Note_on_c, 0, 91, 90
2, 120104, Note_on_c, 0, 92, 0
2, 120106, Note_on_c, 0, 51, 88
2, 120112, Note_on_c, 0, 39, 92
2, 120114, Note_on_c, 0, 80, 0
2, 120114, Note_on_c, 0, 98, 0
2, 120117, Note_on_c, 0, 86, 0
2, 120119, Note_on_c, 0, 51, 0
2, 120120, Note_on_c, 0, 60, 0
2, 120120, Note_on_c, 0, 72, 0
2, 120122, Note_on_c, 0, 56, 0
2, 120124, Note_on_c, 0, 32, 0
2, 120127, Note_on_c, 0, 44, 0
2, 120129, Note_on_c, 0, 68, 0
2, 120168, Note_on_c, 0, 63, 0
2, 120169, Note_on_c, 0, 84, 84
2, 120171, Note_on_c, 0, 96, 84
2, 120173, Note_on_c, 0, 61, 76
2, 120175, Note_on_c, 0, 51, 77
2, 120183, Note_on_c, 0, 85, 0
2, 120183, Note_on_c, 0, 97, 0
2, 120197, Control_c, 0, 64, 127
2, 120210, Note_on_c, 0, 96, 0
2, 120216, Note_on_c, 0, 55, 79
2, 120218, Note_on_c, 0, 63, 76
2, 120221, Note_on_c, 0, 61, 0
2, 120221, Note_on_c, 0, 94, 90
2, 120224, Note_on_c, 0, 82, 84
2, 120234, Note_on_c, 0, 94, 0
2, 120237, Note_on_c, 0, 82, 0
2, 120244, Note_on_c, 0, 96, 84
2, 120266, Note_on_c, 0, 94, 95
2, 120269, Note_on_c, 0, 82, 93
2, 120272, Note_on_c, 0, 61, 77
2, 120274, Note_on_c, 0, 96, 0
2, 120284, Note_on_c, 0, 67, 92
2, 120294, Note_on_c, 0, 63, 0
2, 120309, Note_on_c, 0, 55, 0
2, 120339, Note_on_c, 0, 61, 0
2, 120342, Note_on_c, 0, 75, 0
2, 120342, Note_on_c, 0, 82, 0
2, 120344, Note_on_c, 0, 51, 0
2, 120344, Note_on_c, 0, 90, 84
2, 120344, Note_on_c, 0, 93, 79
2, 120346, Note_on_c, 0, 91, 0
2, 120346, Note_on_c, 0, 94, 0
2, 120346, Note_on_c, 0, 55, 72
2, 120349, Note_on_c, 0, 63, 78
2, 120351, Note_on_c, 0, 84, 0
2, 120356, Note_on_c, 0, 81, 84
2, 120371, Control_c, 0, 64, 0
2, 120386, Note_on_c, 0, 82, 79
2, 120392, Note_on_c, 0, 81, 0
2, 120392, Note_on_c, 0, 61, 75
2, 120398, Note_on_c, 0, 91, 84
2, 120398, Note_on_c, 0, 94, 78
2, 120404, Note_on_c, 0, 51, 75
2, 120407, Note_on_c, 0, 39, 0
2, 120408, Note_on_c, 0, 93, 0
2, 120408, Note_on_c, 0, 90, 0
2, 120414, Note_on_c, 0, 67, 0
2, 120440, Note_on_c, 0, 56, 84
2, 120442, Note_on_c, 0, 55, 0
2, 120447, Note_on_c, 0, 44, 90
2, 120452, Note_on_c, 0, 84, 92
2, 120456, Note_on_c, 0, 61, 0
2, 120458, Note_on_c, 0, 82, 0
2, 120458, Note_on_c, 0, 96, 91
2, 120461, Note_on_c, 0, 92, 96
2, 120463, Note_on_c, 0, 91, 0
2, 120466, Note_on_c, 0, 94, 0
2, 120469, Note_on_c, 0, 51, 0
2, 120475, Note_on_c, 0, 92, 0
2, 120495, Note_on_c, 0, 56, 0
2, 120501, Note_on_c, 0, 63, 0
2, 120505, Note_on_c, 0, 92, 79
2, 120511, Note_on_c, 0, 80, 81
2, 120513, Note_on_c, 0, 96, 0
2, 120516, Note_on_c, 0, 60, 72
2, 120533, Note_on_c, 0, 51, 71
2, 120548, Note_on_c, 0, 56, 71
2, 120548, Note_on_c, 0, 63, 76
2, 120548, Note_on_c, 0, 77, 78
2, 120551, Note_on_c, 0, 89, 80
2, 120552, Note_on_c, 0, 51, 0
2, 120555, Note_on_c, 0, 60, 0
2, 120557, Note_on_c, 0, 92, 0
2, 120557, Control_c, 0, 64, 127
2, 120582, Note_on_c, 0, 56, 0
2, 120585, Note_on_c, 0, 63, 0
2, 120593, Note_on_c, 0, 75, 79
2, 120596, Note_on_c, 0, 84, 0
2, 120600, Note_on_c, 0, 87, 77
2, 120605, Note_on_c, 0, 60, 74
2, 120607, Note_on_c, 0, 89, 0
2, 120615, Note_on_c, 0, 51, 76
2, 120632, Note_on_c, 0, 63, 75
2, 120632, Note_on_c, 0, 72, 82
2, 120634, Note_on_c, 0, 84, 76
2, 120636, Note_on_c, 0, 56, 77
2, 120674, Note_on_c, 0, 60, 0
2, 120720, Note_on_c, 0, 60, 77
2, 120725, Note_on_c, 0, 48, 74
2, 120728, Note_on_c, 0, 77, 0
2, 120741, Control_c, 0, 64, 0
2, 120748, Note_on_c, 0, 48, 0
2, 120750, Note_on_c, 0, 60, 0
2, 120756, Note_on_c, 0, 63, 0
2, 120762, Note_on_c, 0, 65, 81
2, 120765, Note_on_c, 0, 75, 0
2, 120765, Note_on_c, 0, 77, 77
2, 120772, Note_on_c, 0, 56, 0
2, 120772, Note_on_c, 0, 51, 0
2, 120775, Note_on_c, 0, 72, 0
2, 120778, Note_on_c, 0, 84, 0
2, 120778, Note_on_c, 0, 87, 0
2, 120783, Note_on_c, 0, 80, 0
2, 120798, Note_on_c, 0, 60, 74
2, 120800, Note_on_c, 0, 44, 0
2, 120803, Note_on_c, 0, 63, 74
2, 120808, Note_on_c, 0, 48, 74
2, 120808, Note_on_c, 0, 75, 76
2, 120818, Note_on_c, 0, 77, 0
2, 120823, Note_on_c, 0, 65, 0
2, 120884, Note_on_c, 0, 67, 81
2, 120887, Note_on_c, 0, 58, 70
2, 120891, Note_on_c, 0, 73, 78
2, 120893, Note_on_c, 0, 46, 76
2, 120909, Note_on_c, 0, 67, 0
2, 120912, Note_on_c, 0, 48, 0
2, 120916, Note_on_c, 0, 60, 0
2, 120916, Note_on_c, 0, 73, 0
2, 120946, Note_on_c, 0, 65, 80
2, 120951, Note_on_c, 0, 56, 76
2, 120953, Note_on_c, 0, 77, 81
2, 120956, Note_on_c, 0, 44, 75
2, 120959, Note_on_c, 0, 73, 79
2, 120960, Note_on_c, 0, 46, 0
2, 120966, Note_on_c, 0, 58, 0
2, 120969, Note_on_c, 0, 63, 0
2, 120974, Note_on_c, 0, 75, 0
2, 120982, Note_on_c, 0, 73, 0
2, 121005, Control_c, 0, 64, 127
2, 121007, Note_on_c, 0, 67, 79
2, 121007, Note_on_c, 0, 73, 80
2, 121008, Note_on_c, 0, 55, 75
2, 121010, Note_on_c, 0, 75, 80
2, 121010, Note_on_c, 0, 79, 77
2, 121013, Note_on_c, 0, 43, 72
2, 121018, Note_on_c, 0, 44, 0
2, 121020, Note_on_c, 0, 56, 0
2, 121032, Note_on_c, 0, 73, 0
2, 121042, Note_on_c, 0, 75, 0
2, 121053, Note_on_c, 0, 67, 0
2, 121063, Note_on_c, 0, 77, 0
2, 121063, Note_on_c, 0, 65, 0
2, 121063, Note_on_c, 0, 79, 0
2, 121063, Note_on_c, 0, 53, 71
2, 121068, Note_on_c, 0, 73, 83
2, 121068, Note_on_c, 0, 75, 80
2, 121070, Note_on_c, 0, 41, 73
2, 121072, Note_on_c, 0, 43, 0
2, 121072, Note_on_c, 0, 68, 82
2, 121072, Note_on_c, 0, 80, 77
2, 121084, Note_on_c, 0, 75, 0
2, 121084, Note_on_c, 0, 73, 0
2, 121094, Note_on_c, 0, 55, 0
2, 121104, Note_on_c, 0, 75, 79
2, 121106, Note_on_c, 0, 70, 76
2, 121106, Note_on_c, 0, 82, 78
2, 121111, Note_on_c, 0, 51, 75
2, 121111, Note_on_c, 0, 73, 83
2, 121117, Note_on_c, 0, 80, 0
2, 121119, Note_on_c, 0, 39, 75
2, 121127, Note_on_c, 0, 41, 0
2, 121127, Note_on_c, 0, 53, 0
2, 121128, Note_on_c, 0, 68, 0
2, 121167, Note_on_c, 0, 84, 80
2, 121173, Note_on_c, 0, 72, 80
2, 121176, Note_on_c, 0, 32, 97
2, 121177, Note_on_c, 0, 73, 0
2, 121177, Note_on_c, 0, 82, 0
2, 121180, Note_on_c, 0, 39, 0
2, 121180, Note_on_c, 0, 75, 0
2, 121180, Note_on_c, 0, 70, 0
2, 121180, Note_on_c, 0, 44, 96
2, 121182, Note_on_c, 0, 51, 0
2, 121210, Control_c, 0, 64, 0
2, 121233, Note_on_c, 0, 80, 62
2, 121239, Note_on_c, 0, 75, 64
2, 121244, Note_on_c, 0, 51, 74
2, 121244, Note_on_c, 0, 60, 76
2, 121296, Note_on_c, 0, 56, 80
2, 121296, Note_on_c, 0, 63, 75
2, 121320, Note_on_c, 0, 77, 93
2, 121330, Note_on_c, 0, 89, 95
2, 121338, Note_on_c, 0, 60, 0
2, 121364, Note_on_c, 0, 75, 0
2, 121381, Note_on_c, 0, 60, 78
2, 121395, Note_on_c, 0, 68, 95
2, 121405, Note_on_c, 0, 75, 99
2, 121408, Note_on_c, 0, 87, 94
2, 121420, Note_on_c, 0, 89, 0
2, 121428, Note_on_c, 0, 84, 0
2, 121434, Note_on_c, 0, 80, 0
2, 121469, Note_on_c, 0, 84, 67
2, 121477, Note_on_c, 0, 80, 64
2, 121512, Note_on_c, 0, 51, 0
2, 121525, Note_on_c, 0, 74, 86
2, 121525, Note_on_c, 0, 86, 84
2, 121531, Note_on_c, 0, 75, 0
2, 121534, Note_on_c, 0, 87, 0
2, 121551, Note_on_c, 0, 32, 0
2, 121553, Note_on_c, 0, 56, 0
2, 121553, Note_on_c, 0, 44, 0
2, 121555, Note_on_c, 0, 72, 0
2, 121560, Note_on_c, 0, 80, 0
2, 121560, Note_on_c, 0, 84, 0
2, 121562, Note_on_c, 0, 77, 0
2, 121564, Note_on_c, 0, 60, 0
2, 121564, Note_on_c, 0, 68, 0
2, 121574, Note_on_c, 0, 39, 94
2, 121574, Note_on_c, 0, 51, 99
2, 121579, Note_on_c, 0, 79, 87
2, 121579, Note_on_c, 0, 85, 86
2, 121584, Note_on_c, 0, 73, 83
2, 121585, Note_on_c, 0, 51, 0
2, 121591, Note_on_c, 0, 74, 0
2, 121597, Note_on_c, 0, 86, 0
2, 121602, Note_on_c, 0, 79, 0
2, 121617, Note_on_c, 0, 63, 0
2, 121637, Note_on_c, 0, 63, 80
2, 121637, Note_on_c, 0, 79, 87
2, 121642, Note_on_c, 0, 84, 84
2, 121645, Note_on_c, 0, 72, 81
2, 121647, Note_on_c, 0, 51, 76
2, 121652, Note_on_c, 0, 73, 0
2, 121655, Note_on_c, 0, 79, 0
2, 121655, Note_on_c, 0, 85, 0
2, 121672, Control_c, 0, 64, 127
2, 121687, Note_on_c, 0, 55, 78
2, 121689, Note_on_c, 0, 70, 81
2, 121689, Note_on_c, 0, 79, 82
2, 121689, Note_on_c, 0, 82, 82
2, 121692, Note_on_c, 0, 64, 77
2, 121697, Note_on_c, 0, 72, 0
2, 121702, Note_on_c, 0, 82, 0
2, 121704, Note_on_c, 0, 84, 0
2, 121707, Note_on_c, 0, 63, 0
2, 121707, Note_on_c, 0, 70, 0
2, 121710, Note_on_c, 0, 79, 0
2, 121728, Note_on_c, 0, 84, 85
2, 121743, Note_on_c, 0, 70, 83
2, 121743, Note_on_c, 0, 82, 79
2, 121748, Note_on_c, 0, 79, 83
2, 121752, Note_on_c, 0, 61, 74
2, 121752, Note_on_c, 0, 65, 85
2, 121758, Control_c, 0, 64, 0
2, 121773, Note_on_c, 0, 64, 0
2, 121775, Note_on_c, 0, 55, 0
2, 121809, Note_on_c, 0, 55, 71
2, 121811, Note_on_c, 0, 61, 0
2, 121813, Note_on_c, 0, 63, 72
2, 121819, Note_on_c, 0, 69, 78
2, 121824, Note_on_c, 0, 51, 0
2, 121824, Note_on_c, 0, 70, 0
2, 121824, Note_on_c, 0, 78, 79
2, 121832, Note_on_c, 0, 82, 0
2, 121834, Note_on_c, 0, 79, 0
2, 121836, Note_on_c, 0, 81, 79
2, 121856, Note_on_c, 0, 61, 78
2, 121862, Note_on_c, 0, 70, 80
2, 121867, Note_on_c, 0, 39, 0
2, 121872, Note_on_c, 0, 79, 79
2, 121872, Note_on_c, 0, 82, 80
2, 121873, Note_on_c, 0, 81, 0
2, 121876, Note_on_c, 0, 69, 0
2, 121876, Note_on_c, 0, 51, 73
2, 121879, Note_on_c, 0, 65, 0
2, 121885, Note_on_c, 0, 55, 0
2, 121887, Note_on_c, 0, 78, 0
2, 121887, Note_on_c, 0, 84, 0
2, 121893, Note_on_c, 0, 79, 0
2, 121910, Note_on_c, 0, 51, 0
2, 121916, Note_on_c, 0, 61, 0
2, 121923, Note_on_c, 0, 56, 87
2, 121923, Note_on_c, 0, 71, 78
2, 121928, Note_on_c, 0, 83, 78
2, 121931, Note_on_c, 0, 44, 86
2, 121933, Note_on_c, 0, 70, 0
2, 121933, Note_on_c, 0, 79, 81
2, 121948, Note_on_c, 0, 82, 0
2, 121964, Note_on_c, 0, 56, 0
2, 121968, Control_c, 0, 64, 127
2, 121971, Note_on_c, 0, 60, 73
2, 121974, Note_on_c, 0, 51, 76
2, 121974, Note_on_c, 0, 80, 80
2, 121974, Note_on_c, 0, 84, 80
2, 121979, Note_on_c, 0, 72, 83
2, 121984, Note_on_c, 0, 83, 0
2, 121984, Note_on_c, 0, 79, 0
2, 121987, Note_on_c, 0, 71, 0
2, 122024, Note_on_c, 0, 56, 78
2, 122026, Note_on_c, 0, 77, 91
2, 122029, Note_on_c, 0, 89, 94
2, 122037, Note_on_c, 0, 60, 0
2, 122083, Note_on_c, 0, 60, 77
2, 122090, Note_on_c, 0, 68, 91
2, 122098, Control_c, 0, 64, 0
2, 122098, Note_on_c, 0, 75, 93
2, 122103, Note_on_c, 0, 87, 97
2, 122111, Note_on_c, 0, 89, 0
2, 122113, Note_on_c, 0, 84, 0
2, 122119, Note_on_c, 0, 80, 0
2, 122147, Note_on_c, 0, 84, 61
2, 122158, Note_on_c, 0, 80, 60
2, 122173, Note_on_c, 0, 77, 0
2, 122183, Note_on_c, 0, 51, 0
2, 122187, Note_on_c, 0, 72, 0
2, 122200, Note_on_c, 0, 86, 85
2, 122202, Note_on_c, 0, 74, 79
2, 122204, Note_on_c, 0, 75, 0
2, 122208, Note_on_c, 0, 44, 0
2, 122213, Note_on_c, 0, 87, 0
2, 122231, Note_on_c, 0, 39, 94
2, 122236, Note_on_c, 0, 51, 93
2, 122249, Note_on_c, 0, 51, 0
2, 122249, Note_on_c, 0, 56, 0
2, 122249, Note_on_c, 0, 85, 83
2, 122251, Note_on_c, 0, 60, 0
2, 122254, Note_on_c, 0, 73, 79
2, 122254, Note_on_c, 0, 79, 83
2, 122256, Note_on_c, 0, 68, 0
2, 122260, Note_on_c, 0, 86, 0
2, 122260, Note_on_c, 0, 84, 0
2, 122265, Note_on_c, 0, 74, 0
2, 122270, Note_on_c, 0, 80, 0
2, 122280, Note_on_c, 0, 79, 0
2, 122282, Note_on_c, 0, 63, 0
2, 122307, Note_on_c, 0, 51, 74
2, 122307, Note_on_c, 0, 63, 78
2, 122309, Note_on_c, 0, 84, 84
2, 122315, Note_on_c, 0, 79, 83
2, 122318, Note_on_c, 0, 72, 85
2, 122323, Note_on_c, 0, 73, 0
2, 122323, Note_on_c, 0, 85, 0
2, 122333, Note_on_c, 0, 79, 0
2, 122351, Note_on_c, 0, 64, 75
2, 122353, Note_on_c, 0, 55, 74
2, 122358, Note_on_c, 0, 79, 80
2, 122358, Note_on_c, 0, 82, 84
2, 122363, Note_on_c, 0, 63, 0
2, 122368, Note_on_c, 0, 70, 83
2, 122374, Note_on_c, 0, 82, 0
2, 122374, Note_on_c, 0, 84, 0
2, 122381, Note_on_c, 0, 79, 0
2, 122391, Note_on_c, 0, 72, 0
2, 122396, Note_on_c, 0, 70, 0
2, 122400, Note_on_c, 0, 84, 83
2, 122413, Note_on_c, 0, 82, 83
2, 122419, Note_on_c, 0, 61, 79
2, 122419, Note_on_c, 0, 65, 82
2, 122419, Note_on_c, 0, 70, 83
2, 122422, Note_on_c, 0, 79, 84
2, 122432, Note_on_c, 0, 64, 0
2, 122457, Note_on_c, 0, 55, 0
2, 122488, Note_on_c, 0, 55, 78
2, 122496, Note_on_c, 0, 61, 0
2, 122496, Note_on_c, 0, 63, 80
2, 122497, Note_on_c, 0, 51, 0
2, 122500, Note_on_c, 0, 69, 83
2, 122500, Note_on_c, 0, 78, 79
2, 122502, Note_on_c, 0, 70, 0
2, 122502, Note_on_c, 0, 82, 0
2, 122505, Note_on_c, 0, 79, 0
2, 122515, Note_on_c, 0, 81, 86
2, 122549, Note_on_c, 0, 61, 76
2, 122555, Note_on_c, 0, 51, 75
2, 122557, Note_on_c, 0, 82, 79
2, 122560, Note_on_c, 0, 70, 79
2, 122560, Note_on_c, 0, 79, 80
2, 122562, Note_on_c, 0, 81, 0
2, 122564, Note_on_c, 0, 69, 0
2, 122567, Note_on_c, 0, 84, 0
2, 122567, Note_on_c, 0, 78, 0
2, 122581, Note_on_c, 0, 82, 0
2, 122581, Note_on_c, 0, 79, 0
2, 122584, Note_on_c, 0, 70, 0
2, 122630, Note_on_c, 0, 50, 92
2, 122636, Note_on_c, 0, 70, 81
2, 122638, Note_on_c, 0, 79, 87
2, 122638, Note_on_c, 0, 82, 84
2, 122640, Note_on_c, 0, 51, 0
2, 122640, Note_on_c, 0, 38, 91
2, 122643, Note_on_c, 0, 39, 0
2, 122645, Note_on_c, 0, 61, 0
2, 122655, Note_on_c, 0, 63, 0
2, 122655, Note_on_c, 0, 50, 0
2, 122660, Note_on_c, 0, 55, 0
2, 122700, Note_on_c, 0, 59, 80
2, 122708, Note_on_c, 0, 50, 77
2, 122710, Note_on_c, 0, 71, 82
2, 122710, Note_on_c, 0, 80, 81
2, 122719, Note_on_c, 0, 83, 81
2, 122724, Note_on_c, 0, 70, 0
2, 122726, Note_on_c, 0, 65, 0
2, 122726, Note_on_c, 0, 79, 0
2, 122726, Note_on_c, 0, 82, 0
2, 122761, Control_c, 0, 64, 127
2, 122772, Note_on_c, 0, 65, 82
2, 122778, Note_on_c, 0, 56, 76
2, 122784, Note_on_c, 0, 80, 0
2, 122784, Note_on_c, 0, 83, 0
2, 122798, Note_on_c, 0, 59, 0
2, 122821, Note_on_c, 0, 80, 82
2, 122821, Note_on_c, 0, 83, 84
2, 122829, Note_on_c, 0, 92, 88
2, 122833, Note_on_c, 0, 83, 0
2, 122833, Note_on_c, 0, 80, 0
2, 122841, Note_on_c, 0, 92, 0
2, 122852, Note_on_c, 0, 59, 75
2, 122852, Note_on_c, 0, 68, 85
2, 122861, Note_on_c, 0, 80, 82
2, 122864, Note_on_c, 0, 92, 83
2, 122867, Note_on_c, 0, 56, 0
2, 122867, Note_on_c, 0, 83, 83
2, 122872, Note_on_c, 0, 65, 0
2, 122880, Note_on_c, 0, 92, 0
2, 122880, Note_on_c, 0, 80, 0
2, 122890, Note_on_c, 0, 83, 0
2, 122920, Note_on_c, 0, 56, 83
2, 122922, Note_on_c, 0, 50, 0
2, 122922, Note_on_c, 0, 65, 83
2, 122928, Note_on_c, 0, 59, 0
2, 122928, Note_on_c, 0, 80, 83
2, 122928, Note_on_c, 0, 92, 84
2, 122932, Note_on_c, 0, 83, 83
2, 122945, Note_on_c, 0, 92, 0
2, 122952, Note_on_c, 0, 83, 0
2, 122954, Note_on_c, 0, 80, 0
2, 122977, Note_on_c, 0, 50, 80
2, 122977, Note_on_c, 0, 59, 82
2, 122993, Note_on_c, 0, 80, 86
2, 122993, Note_on_c, 0, 83, 87
2, 122993, Note_on_c, 0, 92, 88
2, 123025, Note_on_c, 0, 92, 0
2, 123028, Note_on_c, 0, 83, 0
2, 123031, Note_on_c, 0, 80, 0
2, 123041, Control_c, 0, 64, 0
2, 123069, Note_on_c, 0, 37, 101
2, 123069, Note_on_c, 0, 49, 102
2, 123069, Note_on_c, 0, 92, 103
2, 123073, Note_on_c, 0, 83, 102
2, 123075, Note_on_c, 0, 80, 101
2, 123080, Note_on_c, 0, 50, 0
2, 123080, Note_on_c, 0, 68, 0
2, 123082, Note_on_c, 0, 56, 0
2, 123082, Note_on_c, 0, 59, 0
2, 123085, Note_on_c, 0, 71, 0
2, 123088, Note_on_c, 0, 38, 0
2, 123090, Note_on_c, 0, 65, 0
2, 123120, Note_on_c, 0, 49, 0
2, 123166, Note_on_c, 0, 55, 84
2, 123171, Note_on_c, 0, 58, 81
2, 123173, Note_on_c, 0, 49, 87
2, 123173, Note_on_c, 0, 91, 89
2, 123175, Note_on_c, 0, 79, 93
2, 123175, Note_on_c, 0, 82, 93
2, 123178, Note_on_c, 0, 92, 0
2, 123188, Note_on_c, 0, 80, 0
2, 123192, Note_on_c, 0, 83, 0
2, 123202, Note_on_c, 0, 58, 0
2, 123219, Note_on_c, 0, 55, 0
2, 123250, Control_c, 0, 64, 127
2, 123256, Note_on_c, 0, 55, 82
2, 123256, Note_on_c, 0, 64, 88
2, 123259, Note_on_c, 0, 58, 84
2, 123266, Note_on_c, 0, 79, 0
2, 123269, Note_on_c, 0, 82, 0
2, 123284, Note_on_c, 0, 49, 0
2, 123286, Note_on_c, 0, 58, 0
2, 123301, Note_on_c, 0, 70, 92
2, 123304, Note_on_c, 0, 55, 0
2, 123313, Note_on_c, 0, 79, 89
2, 123313, Note_on_c, 0, 82, 87
2, 123338, Note_on_c, 0, 58, 84
2, 123340, Note_on_c, 0, 55, 83
2, 123343, Note_on_c, 0, 49, 85
2, 123349, Note_on_c, 0, 91, 0
2, 123355, Note_on_c, 0, 69, 104
2, 123362, Note_on_c, 0, 78, 103
2, 123364, Note_on_c, 0, 58, 0
2, 123367, Note_on_c, 0, 81, 104
2, 123377, Note_on_c, 0, 64, 0
2, 123382, Note_on_c, 0, 82, 0
2, 123384, Note_on_c, 0, 70, 0
2, 123385, Note_on_c, 0, 79, 0
2, 123391, Note_on_c, 0, 55, 0
2, 123407, Control_c, 0, 64, 0
2, 123411, Note_on_c, 0, 58, 86
2, 123417, Note_on_c, 0, 55, 84
2, 123419, Note_on_c, 0, 64, 84
2, 123419, Note_on_c, 0, 70, 88
2, 123425, Note_on_c, 0, 81, 0
2, 123425, Note_on_c, 0, 79, 88
2, 123425, Note_on_c, 0, 82, 85
2, 123432, Note_on_c, 0, 69, 0
2, 123432, Note_on_c, 0, 78, 0
2, 123480, Note_on_c, 0, 37, 0
2, 123486, Note_on_c, 0, 49, 0
2, 123488, Note_on_c, 0, 58, 0
2, 123491, Note_on_c, 0, 64, 0
2, 123491, Note_on_c, 0, 70, 0
2, 123491, Note_on_c, 0, 79, 0
2, 123494, Note_on_c, 0, 82, 0
2, 123504, Note_on_c, 0, 55, 0
2, 123552, Control_c, 0, 64, 127
2, 123569, Note_on_c, 0, 79, 85
2, 123571, Note_on_c, 0, 82, 80
2, 123576, Note_on_c, 0, 91, 85
2, 123585, Note_on_c, 0, 82, 0
2, 123585, Note_on_c, 0, 79, 0
2, 123588, Note_on_c, 0, 91, 0
2, 123611, Note_on_c, 0, 82, 91
2, 123614, Note_on_c, 0, 79, 94
2, 123614, Note_on_c, 0, 91, 92
2, 123616, Note_on_c, 0, 48, 96
2, 123618, Note_on_c, 0, 36, 103
2, 123628, Control_c, 0, 64, 0
2, 123664, Note_on_c, 0, 48, 0
2, 123717, Note_on_c, 0, 57, 83
2, 123720, Note_on_c, 0, 54, 88
2, 123722, Note_on_c, 0, 48, 83
2, 123724, Note_on_c, 0, 78, 85
2, 123729, Note_on_c, 0, 90, 89
2, 123731, Note_on_c, 0, 81, 83
2, 123733, Note_on_c, 0, 54, 0
2, 123735, Note_on_c, 0, 57, 0
2, 123737, Note_on_c, 0, 91, 0
2, 123737, Note_on_c, 0, 79, 0
2, 123739, Note_on_c, 0, 82, 0
2, 123787, Control_c, 0, 64, 127
2, 123792, Note_on_c, 0, 57, 84
2, 123794, Note_on_c, 0, 81, 0
2, 123794, Note_on_c, 0, 54, 85
2, 123797, Note_on_c, 0, 78, 0
2, 123797, Note_on_c, 0, 63, 88
2, 123815, Control_c, 0, 64, 0
2, 123819, Note_on_c, 0, 57, 0
2, 123819, Note_on_c, 0, 48, 0
2, 123819, Note_on_c, 0, 54, 0
2, 123837, Note_on_c, 0, 69, 88
2, 123846, Note_on_c, 0, 78, 83
2, 123854, Note_on_c, 0, 81, 86
2, 123882, Note_on_c, 0, 57, 86
2, 123882, Note_on_c, 0, 68, 95
2, 123885, Note_on_c, 0, 48, 83
2, 123887, Note_on_c, 0, 54, 84
2, 123891, Note_on_c, 0, 77, 96
2, 123891, Note_on_c, 0, 80, 101
2, 123894, Note_on_c, 0, 57, 0
2, 123896, Note_on_c, 0, 63, 0
2, 123899, Note_on_c, 0, 54, 0
2, 123907, Note_on_c, 0, 69, 0
2, 123910, Note_on_c, 0, 78, 0
2, 123910, Note_on_c, 0, 81, 0
2, 123947, Note_on_c, 0, 63, 88
2, 123947, Note_on_c, 0, 69, 86
2, 123949, Note_on_c, 0, 57, 83
2, 123951, Note_on_c, 0, 54, 83
2, 123951, Note_on_c, 0, 78, 83
2, 123960, Note_on_c, 0, 68, 0
2, 123960, Note_on_c, 0, 80, 0
2, 123963, Note_on_c, 0, 77, 0
2, 123963, Note_on_c, 0, 81, 83
2, 124022, Control_c, 0, 64, 127
2, 124040, Note_on_c, 0, 81, 0
2, 124043, Note_on_c, 0, 78, 0
2, 124051, Note_on_c, 0, 90, 0
2, 124080, Note_on_c, 0, 78, 76
2, 124090, Note_on_c, 0, 81, 82
2, 124095, Note_on_c, 0, 78, 0
2, 124095, Note_on_c, 0, 90, 94
2, 124103, Note_on_c, 0, 81, 0
2, 124105, Note_on_c, 0, 90, 0
2, 124124, Note_on_c, 0, 35, 101
2, 124128, Note_on_c, 0, 23, 101
2, 124131, Control_c, 0, 64, 0
2, 124131, Note_on_c, 0, 78, 95
2, 124133, Note_on_c, 0, 90, 94
2, 124135, Note_on_c, 0, 36, 0
2, 124135, Note_on_c, 0, 48, 0
2, 124141, Note_on_c, 0, 81, 92
2, 124255, Control_c, 0, 64, 127
2, 124266, Note_on_c, 0, 54, 0
2, 124268, Note_on_c, 0, 69, 0
2, 124268, Note_on_c, 0, 63, 0
2, 124302, Note_on_c, 0, 63, 87
2, 124308, Note_on_c, 0, 66, 85
2, 124313, Note_on_c, 0, 59, 89
2, 124316, Note_on_c, 0, 54, 90
2, 124316, Note_on_c, 0, 69, 86
2, 124316, Note_on_c, 0, 71, 86
2, 124318, Note_on_c, 0, 75, 87
2, 124323, Note_on_c, 0, 59, 0
2, 124323, Note_on_c, 0, 63, 0
2, 124326, Note_on_c, 0, 54, 0
2, 124326, Note_on_c, 0, 81, 0
2, 124328, Note_on_c, 0, 66, 0
2, 124328, Note_on_c, 0, 69, 0
2, 124328, Note_on_c, 0, 71, 0
2, 124331, Note_on_c, 0, 90, 0
2, 124331, Note_on_c, 0, 75, 0
2, 124356, Note_on_c, 0, 63, 89
2, 124359, Note_on_c, 0, 66, 89
2, 124359, Note_on_c, 0, 69, 85
2, 124359, Note_on_c, 0, 71, 90
2, 124361, Note_on_c, 0, 75, 91
2, 124364, Note_on_c, 0, 59, 91
2, 124367, Note_on_c, 0, 35, 0
2, 124368, Note_on_c, 0, 81, 86
2, 124370, Note_on_c, 0, 54, 91
2, 124393, Note_on_c, 0, 23, 0
2, 124401, Note_on_c, 0, 81, 0
2, 124401, Note_on_c, 0, 59, 0
2, 124406, Note_on_c, 0, 71, 0
2, 124409, Note_on_c, 0, 57, 0
2, 124411, Note_on_c, 0, 75, 0
2, 124413, Note_on_c, 0, 66, 0
2, 124413, Note_on_c, 0, 54, 0
2, 124413, Note_on_c, 0, 69, 0
2, 124420, Note_on_c, 0, 63, 0
2, 124458, Note_on_c, 0, 59, 90
2, 124461, Note_on_c, 0, 71, 85
2, 124463, Note_on_c, 0, 78, 0
2, 124463, Note_on_c, 0, 66, 90
2, 124463, Note_on_c, 0, 69, 90
2, 124464, Note_on_c, 0, 63, 89
2, 124466, Note_on_c, 0, 75, 85
2, 124471, Note_on_c, 0, 81, 87
2, 124476, Note_on_c, 0, 54, 87
2, 124501, Note_on_c, 0, 54, 0
2, 124507, Note_on_c, 0, 75, 0
2, 124507, Note_on_c, 0, 59, 0
2, 124507, Note_on_c, 0, 71, 0
2, 124510, Note_on_c, 0, 63, 0
2, 124512, Note_on_c, 0, 69, 0
2, 124515, Note_on_c, 0, 66, 0
2, 124558, Note_on_c, 0, 59, 92
2, 124558, Note_on_c, 0, 63, 94
2, 124560, Note_on_c, 0, 71, 92
2, 124560, Note_on_c, 0, 75, 87
2, 124561, Note_on_c, 0, 54, 89
2, 124563, Note_on_c, 0, 83, 88
2, 124566, Note_on_c, 0, 66, 88
2, 124566, Note_on_c, 0, 69, 91
2, 124568, Note_on_c, 0, 81, 0
2, 124588, Note_on_c, 0, 59, 0
2, 124591, Note_on_c, 0, 54, 0
2, 124594, Note_on_c, 0, 71, 0
2, 124594, Note_on_c, 0, 69, 0
2, 124594, Note_on_c, 0, 75, 0
2, 124599, Note_on_c, 0, 63, 0
2, 124636, Note_on_c, 0, 59, 88
2, 124641, Note_on_c, 0, 63, 90
2, 124644, Note_on_c, 0, 54, 89
2, 124644, Note_on_c, 0, 69, 95
2, 124644, Note_on_c, 0, 71, 95
2, 124647, Note_on_c, 0, 75, 91
2, 124647, Note_on_c, 0, 78, 88
2, 124698, Note_on_c, 0, 78, 0
2, 124698, Note_on_c, 0, 69, 0
2, 124703, Note_on_c, 0, 71, 0
2, 124705, Note_on_c, 0, 75, 0
2, 124715, Control_c, 0, 64, 0
2, 124732, Note_on_c, 0, 83, 0
2, 124748, Note_on_c, 0, 28, 108
2, 124748, Note_on_c, 0, 69, 95
2, 124751, Note_on_c, 0, 78, 94
2, 124752, Note_on_c, 0, 54, 0
2, 124752, Note_on_c, 0, 40, 107
2, 124755, Note_on_c, 0, 71, 97
2, 124755, Note_on_c, 0, 75, 90
2, 124763, Note_on_c, 0, 66, 0
2, 124766, Note_on_c, 0, 63, 0
2, 124845, Note_on_c, 0, 59, 0
2, 124885, Note_on_c, 0, 59, 83
2, 124885, Note_on_c, 0, 64, 89
2, 124888, Note_on_c, 0, 52, 90
2, 124888, Note_on_c, 0, 68, 96
2, 124891, Note_on_c, 0, 76, 102
2, 124893, Note_on_c, 0, 80, 98
2, 124897, Note_on_c, 0, 75, 0
2, 124900, Note_on_c, 0, 69, 0
2, 124903, Note_on_c, 0, 78, 0
2, 124933, Control_c, 0, 64, 127
2, 124939, Note_on_c, 0, 80, 0
2, 124941, Note_on_c, 0, 52, 0
2, 124946, Note_on_c, 0, 64, 0
2, 124948, Note_on_c, 0, 59, 0
2, 124950, Note_on_c, 0, 68, 0
2, 124980, Note_on_c, 0, 64, 90
2, 124986, Note_on_c, 0, 59, 84
2, 124986, Note_on_c, 0, 80, 95
2, 124988, Note_on_c, 0, 52, 89
2, 124990, Note_on_c, 0, 68, 94
2, 124990, Note_on_c, 0, 75, 101
2, 125000, Note_on_c, 0, 76, 0
2, 125006, Note_on_c, 0, 71, 0
2, 125023, Note_on_c, 0, 52, 0
2, 125023, Note_on_c, 0, 59, 0
2, 125033, Note_on_c, 0, 64, 0
2, 125036, Note_on_c, 0, 80, 0
2, 125039, Note_on_c, 0, 68, 0
2, 125062, Note_on_c, 0, 64, 89
2, 125069, Note_on_c, 0, 59, 89
2, 125071, Note_on_c, 0, 52, 85
2, 125076, Note_on_c, 0, 68, 98
2, 125086, Note_on_c, 0, 75, 0
2, 125086, Note_on_c, 0, 74, 97
2, 125088, Note_on_c, 0, 80, 97
2, 125106, Note_on_c, 0, 64, 0
2, 125106, Note_on_c, 0, 52, 0
2, 125108, Note_on_c, 0, 74, 0
2, 125138, Note_on_c, 0, 82, 98
2, 125143, Note_on_c, 0, 64, 84
2, 125146, Note_on_c, 0, 58, 87
2, 125146, Note_on_c, 0, 70, 97
2, 125151, Note_on_c, 0, 52, 81
2, 125154, Note_on_c, 0, 80, 0
2, 125159, Note_on_c, 0, 59, 0
2, 125161, Note_on_c, 0, 74, 97
2, 125163, Note_on_c, 0, 68, 0
2, 125182, Note_on_c, 0, 52, 0
2, 125184, Note_on_c, 0, 74, 0
2, 125184, Note_on_c, 0, 64, 0
2, 125214, Note_on_c, 0, 64, 85
2, 125219, Note_on_c, 0, 83, 98
2, 125222, Note_on_c, 0, 52, 86
2, 125222, Note_on_c, 0, 56, 84
2, 125224, Note_on_c, 0, 71, 93
2, 125227, Note_on_c, 0, 74, 94
2, 125234, Note_on_c, 0, 82, 0
2, 125237, Note_on_c, 0, 70, 0
2, 125243, Control_c, 0, 64, 0
2, 125309, Note_on_c, 0, 58, 0
2, 125314, Note_on_c, 0, 39, 92
2, 125314, Note_on_c, 0, 72, 95
2, 125314, Note_on_c, 0, 75, 90
2, 125314, Note_on_c, 0, 80, 93
2, 125314, Note_on_c, 0, 84, 90
2, 125319, Note_on_c, 0, 40, 0
2, 125319, Note_on_c, 0, 28, 0
2, 125319, Note_on_c, 0, 27, 90
2, 125322, Note_on_c, 0, 74, 0
2, 125324, Note_on_c, 0, 52, 0
2, 125326, Note_on_c, 0, 71, 0
2, 125328, Note_on_c, 0, 56, 0
2, 125330, Note_on_c, 0, 83, 0
2, 125335, Note_on_c, 0, 64, 0
2, 125449, Control_c, 0, 64, 127
2, 125451, Note_on_c, 0, 72, 0
2, 125454, Note_on_c, 0, 75, 0
2, 125492, Note_on_c, 0, 51, 54
2, 125492, Note_on_c, 0, 60, 50
2, 125492, Note_on_c, 0, 63, 48
2, 125492, Note_on_c, 0, 68, 55
2, 125492, Note_on_c, 0, 75, 55
2, 125494, Note_on_c, 0, 72, 52
2, 125534, Note_on_c, 0, 51, 0
2, 125536, Note_on_c, 0, 72, 0
2, 125536, Note_on_c, 0, 68, 0
2, 125536, Note_on_c, 0, 75, 0
2, 125536, Note_on_c, 0, 60, 0
2, 125536, Note_on_c, 0, 63, 0
2, 125576, Note_on_c, 0, 60, 49
2, 125578, Note_on_c, 0, 63, 48
2, 125578, Note_on_c, 0, 68, 51
2, 125584, Note_on_c, 0, 51, 54
2, 125589, Note_on_c, 0, 72, 53
2, 125589, Note_on_c, 0, 75, 54
2, 125599, Note_on_c, 0, 84, 0
2, 125604, Note_on_c, 0, 27, 0
2, 125604, Note_on_c, 0, 80, 0
2, 125606, Note_on_c, 0, 51, 0
2, 125609, Note_on_c, 0, 60, 0
2, 125609, Note_on_c, 0, 63, 0
2, 125612, Note_on_c, 0, 68, 0
2, 125612, Note_on_c, 0, 72, 0
2, 125614, Note_on_c, 0, 75, 0
2, 125614, Note_on_c, 0, 39, 0
2, 125652, Note_on_c, 0, 60, 55
2, 125652, Note_on_c, 0, 63, 49
2, 125655, Note_on_c, 0, 68, 54
2, 125655, Note_on_c, 0, 72, 59
2, 125661, Note_on_c, 0, 51, 52
2, 125663, Note_on_c, 0, 75, 58
2, 125678, Note_on_c, 0, 72, 0
2, 125678, Note_on_c, 0, 63, 0
2, 125680, Note_on_c, 0, 51, 0
2, 125682, Note_on_c, 0, 60, 0
2, 125682, Note_on_c, 0, 68, 0
2, 125712, Note_on_c, 0, 64, 54
2, 125712, Note_on_c, 0, 68, 59
2, 125714, Note_on_c, 0, 72, 61
2, 125716, Note_on_c, 0, 63, 51
2, 125719, Note_on_c, 0, 60, 56
2, 125725, Note_on_c, 0, 76, 60
2, 125727, Note_on_c, 0, 51, 50
2, 125730, Note_on_c, 0, 75, 0
2, 125737, Note_on_c, 0, 72, 0
2, 125737, Note_on_c, 0, 76, 0
2, 125740, Note_on_c, 0, 63, 0
2, 125740, Note_on_c, 0, 68, 0
2, 125742, Note_on_c, 0, 51, 0
2, 125744, Note_on_c, 0, 64, 0
2, 125750, Note_on_c, 0, 60, 0
2, 125762, Note_on_c, 0, 63, 54
2, 125767, Note_on_c, 0, 51, 53
2, 125767, Note_on_c, 0, 64, 49
2, 125770, Note_on_c, 0, 68, 57
2, 125776, Note_on_c, 0, 72, 58
2, 125776, Note_on_c, 0, 76, 58
2, 125778, Note_on_c, 0, 60, 53
2, 125781, Note_on_c, 0, 51, 0
2, 125783, Note_on_c, 0, 63, 0
2, 125788, Note_on_c, 0, 72, 0
2, 125788, Note_on_c, 0, 64, 0
2, 125791, Note_on_c, 0, 68, 0
2, 125791, Note_on_c, 0, 76, 0
2, 125796, Note_on_c, 0, 60, 0
2, 125808, Note_on_c, 0, 63, 49
2, 125811, Note_on_c, 0, 64, 54
2, 125811, Note_on_c, 0, 68, 58
2, 125814, Note_on_c, 0, 60, 49
2, 125817, Note_on_c, 0, 51, 54
2, 125820, Note_on_c, 0, 72, 58
2, 125820, Note_on_c, 0, 76, 61
2, 125826, Note_on_c, 0, 63, 0
2, 125829, Note_on_c, 0, 51, 0
2, 125829, Note_on_c, 0, 60, 0
2, 125832, Note_on_c, 0, 72, 0
2, 125834, Note_on_c, 0, 68, 0
2, 125862, Note_on_c, 0, 63, 56
2, 125867, Note_on_c, 0, 72, 60
2, 125869, Note_on_c, 0, 68, 61
2, 125871, Note_on_c, 0, 77, 60
2, 125873, Note_on_c, 0, 51, 54
2, 125873, Note_on_c, 0, 60, 53
2, 125875, Note_on_c, 0, 65, 62
2, 125880, Note_on_c, 0, 72, 0
2, 125881, Note_on_c, 0, 76, 0
2, 125887, Note_on_c, 0, 68, 0
2, 125887, Note_on_c, 0, 77, 0
2, 125887, Note_on_c, 0, 63, 0
2, 125889, Note_on_c, 0, 51, 0
2, 125891, Note_on_c, 0, 60, 0
2, 125891, Note_on_c, 0, 64, 0
2, 125894, Note_on_c, 0, 65, 0
2, 125914, Note_on_c, 0, 63, 58
2, 125924, Note_on_c, 0, 60, 57
2, 125926, Note_on_c, 0, 68, 63
2, 125926, Note_on_c, 0, 72, 57
2, 125926, Note_on_c, 0, 77, 61
2, 125928, Note_on_c, 0, 65, 57
2, 125930, Note_on_c, 0, 51, 53
2, 125933, Note_on_c, 0, 63, 0
2, 125936, Note_on_c, 0, 77, 0
2, 125939, Note_on_c, 0, 60, 0
2, 125939, Note_on_c, 0, 72, 0
2, 125944, Note_on_c, 0, 68, 0
2, 125944, Note_on_c, 0, 51, 0
2, 125949, Note_on_c, 0, 65, 0
2, 125964, Note_on_c, 0, 60, 57
2, 125966, Note_on_c, 0, 77, 62
2, 125968, Note_on_c, 0, 51, 54
2, 125968, Note_on_c, 0, 63, 56
2, 125968, Note_on_c, 0, 68, 61
2, 125970, Note_on_c, 0, 72, 59
2, 125975, Note_on_c, 0, 65, 63
2, 125980, Note_on_c, 0, 51, 0
2, 125985, Note_on_c, 0, 72, 0
2, 125987, Note_on_c, 0, 63, 0
2, 125990, Note_on_c, 0, 60, 0
2, 126023, Note_on_c, 0, 57, 56
2, 126023, Note_on_c, 0, 60, 55
2, 126023, Note_on_c, 0, 66, 71
2, 126024, Note_on_c, 0, 51, 52
2, 126026, Note_on_c, 0, 63, 56
2, 126032, Note_on_c, 0, 69, 70
2, 126035, Note_on_c, 0, 78, 67
2, 126037, Note_on_c, 0, 51, 0
2, 126037, Note_on_c, 0, 65, 0
2, 126037, Note_on_c, 0, 66, 0
2, 126037, Note_on_c, 0, 57, 0
2, 126039, Note_on_c, 0, 63, 0
2, 126041, Note_on_c, 0, 60, 0
2, 126046, Note_on_c, 0, 69, 0
2, 126048, Note_on_c, 0, 68, 0
2, 126048, Note_on_c, 0, 77, 0
2, 126048, Note_on_c, 0, 78, 0
2, 126072, Note_on_c, 0, 63, 59
2, 126075, Note_on_c, 0, 57, 57
2, 126075, Note_on_c, 0, 60, 60
2, 126080, Note_on_c, 0, 72, 65
2, 126082, Note_on_c, 0, 66, 68
2, 126084, Note_on_c, 0, 51, 55
2, 126084, Note_on_c, 0, 78, 66
2, 126089, Note_on_c, 0, 69, 68
2, 126096, Note_on_c, 0, 72, 0
2, 126101, Note_on_c, 0, 66, 0
2, 126104, Note_on_c, 0, 78, 0
2, 126121, Control_c, 0, 64, 0
2, 126152, Note_on_c, 0, 39, 95
2, 126154, Note_on_c, 0, 66, 66
2, 126156, Note_on_c, 0, 78, 71
2, 126158, Note_on_c, 0, 27, 94
2, 126158, Note_on_c, 0, 72, 70
2, 126160, Note_on_c, 0, 75, 73
2, 126162, Note_on_c, 0, 69, 0
2, 126164, Note_on_c, 0, 57, 0
2, 126168, Note_on_c, 0, 51, 0
2, 126171, Note_on_c, 0, 60, 0
2, 126184, Note_on_c, 0, 75, 0
2, 126202, Note_on_c, 0, 63, 0
2, 126232, Note_on_c, 0, 67, 77
2, 126234, Note_on_c, 0, 51, 75
2, 126236, Note_on_c, 0, 58, 77
2, 126236, Note_on_c, 0, 61, 76
2, 126236, Note_on_c, 0, 63, 77
2, 126238, Note_on_c, 0, 79, 80
2, 126240, Note_on_c, 0, 73, 74
2, 126240, Note_on_c, 0, 75, 79
2, 126247, Note_on_c, 0, 51, 0
2, 126247, Note_on_c, 0, 67, 0
2, 126247, Note_on_c, 0, 72, 0
2, 126247, Note_on_c, 0, 66, 0
2, 126250, Note_on_c, 0, 61, 0
2, 126250, Note_on_c, 0, 75, 0
2, 126250, Note_on_c, 0, 73, 0
2, 126252, Note_on_c, 0, 58, 0
2, 126254, Note_on_c, 0, 79, 0
2, 126256, Note_on_c, 0, 78, 0
2, 126256, Note_on_c, 0, 63, 0
2, 126293, Note_on_c, 0, 51, 75
2, 126293, Note_on_c, 0, 61, 81
2, 126293, Note_on_c, 0, 63, 76
2, 126295, Note_on_c, 0, 75, 74
2, 126297, Note_on_c, 0, 58, 77
2, 126300, Note_on_c, 0, 67, 77
2, 126300, Note_on_c, 0, 79, 80
2, 126305, Note_on_c, 0, 73, 81
2, 126307, Note_on_c, 0, 63, 0
2, 126307, Note_on_c, 0, 61, 0
2, 126309, Control_c, 0, 64, 127
2, 126311, Note_on_c, 0, 51, 0
2, 126311, Note_on_c, 0, 58, 0
2, 126312, Note_on_c, 0, 75, 0
2, 126314, Note_on_c, 0, 67, 0
2, 126317, Note_on_c, 0, 73, 0
2, 126317, Note_on_c, 0, 79, 0
2, 126343, Note_on_c, 0, 58, 78
2, 126354, Note_on_c, 0, 63, 78
2, 126359, Note_on_c, 0, 61, 75
2, 126359, Note_on_c, 0, 79, 76
2, 126363, Note_on_c, 0, 51, 80
2, 126363, Note_on_c, 0, 67, 75
2, 126365, Note_on_c, 0, 73, 80
2, 126365, Note_on_c, 0, 75, 79
2, 126368, Note_on_c, 0, 58, 0
2, 126378, Note_on_c, 0, 73, 0
2, 126378, Note_on_c, 0, 61, 0
2, 126408, Note_on_c, 0, 58, 80
2, 126408, Note_on_c, 0, 61, 77
2, 126412, Note_on_c, 0, 65, 80
2, 126414, Note_on_c, 0, 68, 77
2, 126416, Note_on_c, 0, 73, 80
2, 126421, Note_on_c, 0, 61, 0
2, 126423, Note_on_c, 0, 67, 0
2, 126423, Note_on_c, 0, 80, 80
2, 126426, Note_on_c, 0, 58, 0
2, 126428, Note_on_c, 0, 73, 0
2, 126430, Note_on_c, 0, 68, 0
2, 126430, Note_on_c, 0, 79, 0
2, 126432, Note_on_c, 0, 80, 0
2, 126432, Note_on_c, 0, 65, 0
2, 126468, Note_on_c, 0, 58, 80
2, 126468, Note_on_c, 0, 61, 81
2, 126468, Note_on_c, 0, 65, 81
2, 126471, Note_on_c, 0, 68, 79
2, 126471, Note_on_c, 0, 73, 79
2, 126471, Note_on_c, 0, 80, 77
2, 126483, Note_on_c, 0, 61, 0
2, 126483, Note_on_c, 0, 58, 0
2, 126485, Note_on_c, 0, 73, 0
2, 126487, Note_on_c, 0, 80, 0
2, 126487, Note_on_c, 0, 65, 0
2, 126492, Note_on_c, 0, 68, 0
2, 126520, Note_on_c, 0, 61, 84
2, 126522, Note_on_c, 0, 58, 78
2, 126525, Note_on_c, 0, 65, 78
2, 126525, Note_on_c, 0, 80, 80
2, 126529, Note_on_c, 0, 68, 82
2, 126529, Note_on_c, 0, 73, 85
2, 126532, Note_on_c, 0, 58, 0
2, 126534, Note_on_c, 0, 75, 0
2, 126539, Note_on_c, 0, 61, 0
2, 126553, Note_on_c, 0, 63, 0
2, 126571, Note_on_c, 0, 65, 0
2, 126571, Note_on_c, 0, 68, 0
2, 126576, Note_on_c, 0, 73, 0
2, 126581, Note_on_c, 0, 58, 78
2, 126596, Note_on_c, 0, 61, 79
2, 126600, Note_on_c, 0, 65, 85
2, 126600, Note_on_c, 0, 68, 91
2, 126615, Note_on_c, 0, 73, 84
2, 126615, Note_on_c, 0, 77, 90
2, 126624, Note_on_c, 0, 84, 84
2, 126640, Note_on_c, 0, 58, 0
2, 126642, Note_on_c, 0, 84, 0
2, 126651, Note_on_c, 0, 77, 0
2, 126656, Note_on_c, 0, 73, 0
2, 126656, Note_on_c, 0, 61, 0
2, 126661, Note_on_c, 0, 65, 0
2, 126663, Note_on_c, 0, 68, 0
2, 126694, Note_on_c, 0, 80, 0
2, 126696, Note_on_c, 0, 58, 82
2, 126696, Note_on_c, 0, 61, 85
2, 126696, Note_on_c, 0, 65, 91
2, 126696, Note_on_c, 0, 68, 88
2, 126699, Note_on_c, 0, 84, 91
2, 126701, Note_on_c, 0, 73, 89
2, 126701, Note_on_c, 0, 77, 88
2, 126709, Note_on_c, 0, 58, 0
2, 126724, Note_on_c, 0, 61, 0
2, 126724, Note_on_c, 0, 65, 0
2, 126730, Note_on_c, 0, 84, 0
2, 126730, Note_on_c, 0, 77, 0
2, 126730, Note_on_c, 0, 68, 0
2, 126735, Note_on_c, 0, 73, 0
2, 126757, Note_on_c, 0, 58, 80
2, 126762, Note_on_c, 0, 65, 87
2, 126769, Note_on_c, 0, 61, 80
2, 126769, Note_on_c, 0, 68, 91
2, 126771, Note_on_c, 0, 77, 92
2, 126774, Note_on_c, 0, 84, 91
2, 126777, Note_on_c, 0, 73, 86
2, 126787, Note_on_c, 0, 58, 0
2, 126812, Note_on_c, 0, 73, 0
2, 126840, Note_on_c, 0, 58, 79
2, 126857, Note_on_c, 0, 63, 86
2, 126857, Note_on_c, 0, 67, 90
2, 126866, Note_on_c, 0, 68, 0
2, 126869, Note_on_c, 0, 75, 90
2, 126872, Note_on_c, 0, 73, 87
2, 126872, Note_on_c, 0, 82, 88
2, 126895, Note_on_c, 0, 58, 0
2, 126912, Note_on_c, 0, 63, 0
2, 126912, Note_on_c, 0, 67, 0
2, 126912, Note_on_c, 0, 73, 0
2, 126914, Note_on_c, 0, 75, 0
2, 126914, Note_on_c, 0, 82, 0
2, 126950, Note_on_c, 0, 63, 80
2, 126953, Note_on_c, 0, 58, 87
2, 126959, Note_on_c, 0, 67, 90
2, 126966, Note_on_c, 0, 65, 0
2, 126968, Note_on_c, 0, 82, 92
2, 126970, Note_on_c, 0, 73, 92
2, 126970, Note_on_c, 0, 75, 93
2, 126981, Control_c, 0, 64, 0
2, 126984, Note_on_c, 0, 84, 0
2, 127049, Note_on_c, 0, 63, 0
2, 127061, Note_on_c, 0, 60, 86
2, 127067, Note_on_c, 0, 27, 0
2, 127070, Note_on_c, 0, 39, 0
2, 127073, Note_on_c, 0, 51, 0
2, 127075, Note_on_c, 0, 67, 0
2, 127075, Note_on_c, 0, 58, 0
2, 127075, Note_on_c, 0, 73, 0
2, 127080, Note_on_c, 0, 75, 0
2, 127080, Note_on_c, 0, 82, 0
2, 127081, Note_on_c, 0, 61, 0
2, 127081, Note_on_c, 0, 63, 86
2, 127083, Note_on_c, 0, 77, 0
2, 127114, Note_on_c, 0, 68, 66
2, 127128, Note_on_c, 0, 32, 102
2, 127133, Note_on_c, 0, 44, 105
2, 127152, Note_on_c, 0, 72, 62
2, 127184, Note_on_c, 0, 84, 93
2, 127243, Note_on_c, 0, 63, 0
2, 127277, Control_c, 0, 64, 127
2, 127333, Note_on_c, 0, 63, 60
2, 127343, Note_on_c, 0, 56, 62
2, 127345, Note_on_c, 0, 51, 60
2, 127388, Note_on_c, 0, 56, 0
2, 127413, Note_on_c, 0, 64, 61
2, 127422, Control_c, 0, 64, 0
2, 127430, Note_on_c, 0, 63, 0
2, 127432, Note_on_c, 0, 52, 63
2, 127434, Note_on_c, 0, 56, 62
2, 127437, Note_on_c, 0, 51, 0
2, 127449, Note_on_c, 0, 82, 72
2, 127464, Note_on_c, 0, 84, 0
2, 127479, Note_on_c, 0, 80, 75
2, 127481, Note_on_c, 0, 44, 0
2, 127481, Note_on_c, 0, 32, 0
2, 127493, Note_on_c, 0, 60, 0
2, 127496, Note_on_c, 0, 80, 0
2, 127498, Note_on_c, 0, 79, 72
2, 127518, Note_on_c, 0, 80, 76
2, 127524, Note_on_c, 0, 82, 0
2, 127529, Note_on_c, 0, 79, 0
2, 127541, Note_on_c, 0, 76, 74
2, 127557, Note_on_c, 0, 32, 74
2, 127557, Note_on_c, 0, 44, 73
2, 127562, Note_on_c, 0, 74, 70
2, 127583, Note_on_c, 0, 77, 72
2, 127588, Note_on_c, 0, 76, 0
2, 127606, Note_on_c, 0, 72, 0
2, 127613, Note_on_c, 0, 75, 70
2, 127626, Note_on_c, 0, 74, 0
2, 127629, Note_on_c, 0, 68, 0
2, 127634, Note_on_c, 0, 72, 72
2, 127650, Note_on_c, 0, 68, 72
2, 127659, Note_on_c, 0, 51, 80
2, 127670, Note_on_c, 0, 52, 0
2, 127684, Note_on_c, 0, 65, 69
2, 127703, Note_on_c, 0, 64, 0
2, 127705, Note_on_c, 0, 63, 76
2, 127708, Note_on_c, 0, 60, 74
2, 127791, Note_on_c, 0, 58, 60
2, 127809, Note_on_c, 0, 67, 94
2, 127811, Note_on_c, 0, 61, 61
2, 127824, Note_on_c, 0, 65, 0
2, 127824, Note_on_c, 0, 68, 0
2, 127826, Note_on_c, 0, 60, 0
2, 127851, Note_on_c, 0, 63, 0
2, 127862, Note_on_c, 0, 60, 71
2, 127865, Note_on_c, 0, 44, 0
2, 127865, Note_on_c, 0, 32, 0
2, 127875, Note_on_c, 0, 67, 0
2, 127875, Note_on_c, 0, 61, 0
2, 127877, Note_on_c, 0, 58, 0
2, 127879, Note_on_c, 0, 80, 0
2, 127879, Note_on_c, 0, 75, 0
2, 127884, Note_on_c, 0, 77, 0
2, 127886, Note_on_c, 0, 63, 71
2, 127901, Note_on_c, 0, 72, 0
2, 127904, Note_on_c, 0, 68, 96
2, 127915, Note_on_c, 0, 32, 70
2, 127920, Note_on_c, 0, 44, 71
2, 127934, Note_on_c, 0, 72, 94
2, 127968, Note_on_c, 0, 84, 96
2, 127999, Control_c, 0, 64, 127
2, 128027, Note_on_c, 0, 68, 0
2, 128032, Note_on_c, 0, 51, 0
2, 128057, Note_on_c, 0, 60, 0
2, 128080, Note_on_c, 0, 51, 60
2, 128082, Note_on_c, 0, 68, 96
2, 128091, Note_on_c, 0, 60, 59
2, 128136, Note_on_c, 0, 68, 0
2, 128147, Note_on_c, 0, 60, 0
2, 128173, Note_on_c, 0, 52, 60
2, 128183, Note_on_c, 0, 51, 0
2, 128184, Note_on_c, 0, 68, 94
2, 128186, Note_on_c, 0, 60, 65
2, 128209, Control_c, 0, 64, 0
2, 128240, Note_on_c, 0, 82, 64
2, 128251, Note_on_c, 0, 84, 0
2, 128273, Note_on_c, 0, 80, 64
2, 128290, Note_on_c, 0, 80, 0
2, 128303, Note_on_c, 0, 79, 70
2, 128325, Note_on_c, 0, 44, 0
2, 128332, Note_on_c, 0, 32, 0
2, 128335, Note_on_c, 0, 82, 0
2, 128337, Note_on_c, 0, 80, 64
2, 128348, Note_on_c, 0, 79, 0
2, 128355, Note_on_c, 0, 76, 68
2, 128380, Note_on_c, 0, 32, 81
2, 128380, Note_on_c, 0, 44, 79
2, 128383, Note_on_c, 0, 56, 0
2, 128383, Note_on_c, 0, 74, 65
2, 128386, Note_on_c, 0, 52, 0
2, 128386, Note_on_c, 0, 72, 0
2, 128394, Note_on_c, 0, 63, 0
2, 128399, Note_on_c, 0, 77, 68
2, 128403, Note_on_c, 0, 76, 0
2, 128413, Note_on_c, 0, 80, 0
2, 128424, Note_on_c, 0, 75, 66
2, 128434, Note_on_c, 0, 74, 0
2, 128434, Note_on_c, 0, 68, 0
2, 128449, Note_on_c, 0, 72, 68
2, 128451, Note_on_c, 0, 60, 0
2, 128462, Note_on_c, 0, 68, 64
2, 128480, Note_on_c, 0, 51, 60
2, 128496, Note_on_c, 0, 65, 70
2, 128516, Note_on_c, 0, 63, 79
2, 128521, Note_on_c, 0, 60, 80
2, 128571, Note_on_c, 0, 77, 0
2, 128584, Note_on_c, 0, 44, 0
2, 128590, Note_on_c, 0, 32, 0
2, 128590, Note_on_c, 0, 58, 60
2, 128608, Note_on_c, 0, 67, 92
2, 128611, Note_on_c, 0, 61, 61
2, 128613, Note_on_c, 0, 58, 0
2, 128623, Note_on_c, 0, 68, 0
2, 128625, Control_c, 0, 64, 127
2, 128631, Note_on_c, 0, 60, 0
2, 128641, Note_on_c, 0, 58, 57
2, 128654, Note_on_c, 0, 61, 0
2, 128656, Note_on_c, 0, 67, 0
2, 128656, Note_on_c, 0, 75, 0
2, 128662, Note_on_c, 0, 65, 0
2, 128662, Note_on_c, 0, 63, 0
2, 128672, Note_on_c, 0, 60, 58
2, 128692, Note_on_c, 0, 58, 0
2, 128694, Note_on_c, 0, 63, 100
2, 128705, Note_on_c, 0, 72, 0
2, 128714, Control_c, 0, 64, 0
2, 128717, Note_on_c, 0, 32, 99
2, 128717, Note_on_c, 0, 44, 98
2, 128719, Note_on_c, 0, 68, 98
2, 128757, Note_on_c, 0, 72, 98
2, 128764, Note_on_c, 0, 84, 101
2, 128810, Note_on_c, 0, 51, 0
2, 128866, Note_on_c, 0, 51, 78
2, 128902, Note_on_c, 0, 68, 0
2, 128904, Note_on_c, 0, 74, 75
2, 128905, Note_on_c, 0, 60, 0
2, 128918, Note_on_c, 0, 75, 79
2, 128928, Control_c, 0, 64, 127
2, 128931, Note_on_c, 0, 56, 82
2, 128936, Note_on_c, 0, 75, 0
2, 128941, Note_on_c, 0, 68, 78
2, 128941, Note_on_c, 0, 77, 82
2, 128946, Note_on_c, 0, 60, 82
2, 128963, Note_on_c, 0, 77, 0
2, 128963, Note_on_c, 0, 75, 76
2, 128980, Note_on_c, 0, 75, 0
2, 128983, Note_on_c, 0, 77, 77
2, 128988, Note_on_c, 0, 32, 0
2, 129002, Note_on_c, 0, 44, 0
2, 129010, Note_on_c, 0, 77, 0
2, 129013, Note_on_c, 0, 74, 0
2, 129019, Note_on_c, 0, 75, 80
2, 129033, Note_on_c, 0, 77, 78
2, 129036, Note_on_c, 0, 75, 0
2, 129047, Note_on_c, 0, 84, 0
2, 129051, Note_on_c, 0, 74, 75
2, 129070, Note_on_c, 0, 72, 0
2, 129070, Control_c, 0, 64, 0
2, 129079, Note_on_c, 0, 75, 77
2, 129084, Note_on_c, 0, 74, 0
2, 129098, Note_on_c, 0, 75, 0
2, 129098, Note_on_c, 0, 77, 0
2, 129114, Note_on_c, 0, 32, 96
2, 129114, Note_on_c, 0, 44, 96
2, 129116, Note_on_c, 0, 72, 79
2, 129118, Note_on_c, 0, 51, 0
2, 129132, Note_on_c, 0, 60, 0
2, 129154, Note_on_c, 0, 75, 79
2, 129179, Note_on_c, 0, 80, 76
2, 129194, Note_on_c, 0, 63, 0
2, 129199, Note_on_c, 0, 84, 74
2, 129230, Note_on_c, 0, 96, 94
2, 129235, Note_on_c, 0, 63, 81
2, 129255, Note_on_c, 0, 68, 0
2, 129263, Note_on_c, 0, 72, 0
2, 129292, Note_on_c, 0, 80, 0
2, 129300, Note_on_c, 0, 68, 77
2, 129311, Control_c, 0, 64, 127
2, 129311, Note_on_c, 0, 86, 81
2, 129312, Note_on_c, 0, 72, 78
2, 129315, Note_on_c, 0, 84, 0
2, 129317, Note_on_c, 0, 80, 76
2, 129327, Note_on_c, 0, 87, 77
2, 129345, Note_on_c, 0, 87, 0
2, 129358, Note_on_c, 0, 89, 76
2, 129368, Note_on_c, 0, 89, 0
2, 129373, Note_on_c, 0, 87, 82
2, 129376, Note_on_c, 0, 56, 0
2, 129384, Note_on_c, 0, 86, 0
2, 129391, Note_on_c, 0, 87, 0
2, 129396, Note_on_c, 0, 89, 81
2, 129408, Note_on_c, 0, 63, 0
2, 129411, Note_on_c, 0, 89, 0
2, 129422, Note_on_c, 0, 87, 78
2, 129432, Note_on_c, 0, 56, 82
2, 129434, Note_on_c, 0, 80, 0
2, 129434, Note_on_c, 0, 75, 0
2, 129440, Note_on_c, 0, 72, 0
2, 129445, Note_on_c, 0, 87, 0
2, 129450, Note_on_c, 0, 89, 77
2, 129453, Note_on_c, 0, 96, 0
2, 129457, Note_on_c, 0, 63, 78
2, 129462, Note_on_c, 0, 89, 0
2, 129480, Note_on_c, 0, 87, 75
2, 129490, Note_on_c, 0, 72, 78
2, 129498, Note_on_c, 0, 87, 0
2, 129500, Note_on_c, 0, 86, 76
2, 129523, Control_c, 0, 64, 0
2, 129530, Note_on_c, 0, 87, 75
2, 129533, Note_on_c, 0, 86, 0
2, 129566, Note_on_c, 0, 80, 78
2, 129566, Note_on_c, 0, 84, 76
2, 129710, Note_on_c, 0, 101, 99
2, 129763, Note_on_c, 0, 99, 72
2, 129777, Note_on_c, 0, 101, 0
2, 129792, Note_on_c, 0, 96, 65
2, 129803, Note_on_c, 0, 99, 0
2, 129820, Note_on_c, 0, 92, 72
2, 129825, Note_on_c, 0, 96, 0
2, 129836, Note_on_c, 0, 87, 0
2, 129854, Note_on_c, 0, 92, 0
2, 129859, Note_on_c, 0, 89, 71
2, 129866, Note_on_c, 0, 84, 0
2, 129876, Note_on_c, 0, 89, 0
2, 129878, Note_on_c, 0, 87, 65
2, 129901, Note_on_c, 0, 80, 0
2, 129911, Note_on_c, 0, 84, 71
2, 129945, Note_on_c, 0, 80, 70
2, 129963, Note_on_c, 0, 77, 69
2, 129981, Note_on_c, 0, 72, 0
2, 130004, Note_on_c, 0, 75, 68
2, 130018, Note_on_c, 0, 68, 0
2, 130024, Note_on_c, 0, 72, 71
2, 130046, Note_on_c, 0, 68, 67
2, 130064, Note_on_c, 0, 63, 0
2, 130069, Note_on_c, 0, 65, 71
2, 130097, Note_on_c, 0, 63, 94
2, 130109, Note_on_c, 0, 56, 0
2, 130120, Note_on_c, 0, 60, 90
2, 130148, Note_on_c, 0, 56, 96
2, 130186, Note_on_c, 0, 53, 97
2, 130206, Note_on_c, 0, 51, 93
2, 130241, Note_on_c, 0, 44, 0
2, 130241, Note_on_c, 0, 48, 96
2, 130281, Note_on_c, 0, 44, 94
2, 130326, Note_on_c, 0, 41, 96
2, 130331, Note_on_c, 0, 32, 0
2, 130353, Note_on_c, 0, 39, 94
2, 130356, Note_on_c, 0, 51, 0
2, 130368, Note_on_c, 0, 48, 0
2, 130374, Note_on_c, 0, 41, 0
2, 130374, Note_on_c, 0, 84, 0
2, 130376, Note_on_c, 0, 44, 0
2, 130376, Note_on_c, 0, 56, 0
2, 130376, Note_on_c, 0, 53, 0
2, 130378, Note_on_c, 0, 39, 0
2, 130378, Note_on_c, 0, 77, 0
2, 130380, Note_on_c, 0, 60, 0
2, 130382, Note_on_c, 0, 68, 0
2, 130382, Note_on_c, 0, 65, 0
2, 130387, Note_on_c, 0, 72, 0
2, 130387, Note_on_c, 0, 75, 0
2, 130389, Note_on_c, 0, 87, 0
2, 130389, Note_on_c, 0, 80, 0
2, 130391, Note_on_c, 0, 63, 0
2, 130416, Note_on_c, 0, 32, 108
2, 130567, Note_on_c, 0, 32, 0
2, 130729, Note_on_c, 0, 36, 94
2, 130729, Note_on_c, 0, 48, 94
2, 130729, Note_on_c, 0, 70, 100
2, 130729, Note_on_c, 0, 72, 104
2, 130732, Note_on_c, 0, 60, 96
2, 130732, Note_on_c, 0, 64, 100
2, 130777, Control_c, 0, 64, 127
2, 130833, Note_on_c, 0, 36, 0
2, 130835, Note_on_c, 0, 48, 0
2, 130840, Note_on_c, 0, 72, 0
2, 130846, Note_on_c, 0, 70, 0
2, 130848, Note_on_c, 0, 64, 0
2, 130848, Note_on_c, 0, 60, 0
2, 131051, Note_on_c, 0, 60, 92
2, 131051, Note_on_c, 0, 65, 99
2, 131054, Note_on_c, 0, 53, 92
2, 131054, Note_on_c, 0, 68, 100
2, 131056, Note_on_c, 0, 41, 99
2, 131056, Note_on_c, 0, 72, 104
2, 131061, Control_c, 0, 64, 0
2, 131200, Control_c, 0, 64, 127
2, 131235, Note_on_c, 0, 53, 0
2, 131245, Note_on_c, 0, 72, 0
2, 131251, Note_on_c, 0, 65, 0
2, 131253, Note_on_c, 0, 41, 0
2, 131253, Note_on_c, 0, 60, 0
2, 131273, Note_on_c, 0, 68, 0
2, 131364, Control_c, 0, 64, 0
2, 131375, Note_on_c, 0, 39, 91
2, 131375, Note_on_c, 0, 51, 91
2, 131375, Note_on_c, 0, 61, 97
2, 131375, Note_on_c, 0, 63, 91
2, 131376, Note_on_c, 0, 67, 97
2, 131376, Note_on_c, 0, 73, 101
2, 131376, Note_on_c, 0, 75, 97
2, 131522, Control_c, 0, 64, 127
2, 131573, Note_on_c, 0, 73, 0
2, 131579, Note_on_c, 0, 51, 0
2, 131579, Note_on_c, 0, 67, 0
2, 131584, Note_on_c, 0, 63, 0
2, 131584, Note_on_c, 0, 61, 0
2, 131593, Note_on_c, 0, 39, 0
2, 131593, Note_on_c, 0, 75, 0
2, 131728, Control_c, 0, 64, 0
2, 131736, Note_on_c, 0, 68, 96
2, 131737, Note_on_c, 0, 72, 97
2, 131737, Note_on_c, 0, 80, 100
2, 131743, Note_on_c, 0, 32, 97
2, 131745, Note_on_c, 0, 44, 96
2, 131906, Control_c, 0, 64, 127
2, 132050, Note_on_c, 0, 44, 0
2, 132050, Note_on_c, 0, 32, 0
2, 132066, Note_on_c, 0, 80, 0
2, 132066, Note_on_c, 0, 72, 0
2, 132073, Note_on_c, 0, 68, 0
2, 132722, Control_c, 0, 64, 0
2, 132722, End_track
3, 0, Start_track
3, 0, Title_t, "c/b Chopin"
3, 0, End_track
4, 0, Start_track
4, 0, Title_t, "p/b Leopold Godowsky"
4, 0, End_track
5, 0, Start_track
5, 0, Title_t, "Ampico # 51126"
5, 0, End_track
6, 0, Start_track
6, 0, Title_t, "Scan of a player piano roll"
6, 0, End_track
7, 0, Start_track
7, 0, Title_t, "by Terry Smythe, Winnipeg, Canada"
7, 0, End_track
8, 0, Start_track
8, 1, Copyright_t, "\012__________________________________________________________\012Kunst der Fuge comment: this is the Contributor's property.\012Can *not* be used for commercial purposes without authorization!\012Copyright by Contributor - Kunst der Fuge,  2002-05\012http://www.kunstderfuge.com/thanks.htm -> Contributors' list\012http://www.kunstderfuge.com/notes.htm -> Terms & conditions"
8, 1, End_track
0, 0, End_of_file
