0, 0, Header, 1, 3, 240
1, 0, Start_track
1, 0, Time_signature, 6, 3, 12, 8
1, 0, Tempo, 625000
1, 0, Marker_t, "F. Chopin: Ballade, Op. 52, in f minor  (realtime sequence by Ron Lubetsky, M.D. )"
1, 720, Tempo, 697674
1, 1440, Tempo, 789474
1, 2160, Tempo, 625000
1, 72720, Tempo, 697674
1, 73440, Tempo, 625000
1, 149040, Tempo, 697674
1, 149760, Tempo, 625000
1, 158400, Tempo, 740741
1, 159120, Tempo, 625000
1, 212400, Tempo, 697674
1, 213120, Tempo, 625000
1, 213120, End_track
2, 0, Start_track
2, 0, Title_t, "copyright 1997  acuity2020@aol"
2, 0, Program_c, 0, 0
2, 37, Control_c, 0, 64, 0
2, 68, Control_c, 0, 64, 127
2, 214, Note_on_c, 0, 79, 19
2, 219, Note_on_c, 0, 67, 19
2, 297, Note_off_c, 0, 67, 64
2, 310, Note_off_c, 0, 79, 64
2, 415, Note_on_c, 0, 79, 24
2, 425, Note_on_c, 0, 67, 24
2, 501, Note_off_c, 0, 67, 64
2, 510, Note_off_c, 0, 79, 64
2, 611, Note_on_c, 0, 79, 28
2, 619, Note_on_c, 0, 67, 28
2, 678, Note_off_c, 0, 67, 64
2, 696, Note_off_c, 0, 79, 64
2, 805, Note_on_c, 0, 64, 32
2, 808, Note_on_c, 0, 79, 32
2, 808, Note_on_c, 0, 67, 33
2, 934, Note_on_c, 0, 72, 35
2, 945, Note_off_c, 0, 67, 64
2, 946, Note_off_c, 0, 64, 64
2, 953, Note_off_c, 0, 79, 64
2, 1040, Note_on_c, 0, 64, 38
2, 1046, Note_off_c, 0, 72, 64
2, 1046, Note_on_c, 0, 67, 38
2, 1048, Note_on_c, 0, 79, 38
2, 1139, Note_on_c, 0, 72, 40
2, 1150, Note_off_c, 0, 79, 64
2, 1150, Note_off_c, 0, 67, 64
2, 1234, Note_off_c, 0, 72, 64
2, 1240, Note_on_c, 0, 79, 42
2, 1240, Note_on_c, 0, 67, 42
2, 1248, Note_on_c, 0, 62, 42
2, 1249, Note_off_c, 0, 64, 64
2, 1315, Note_off_c, 0, 62, 64
2, 1324, Note_on_c, 0, 72, 44
2, 1338, Note_on_c, 0, 70, 44
2, 1342, Note_off_c, 0, 67, 64
2, 1349, Note_off_c, 0, 79, 64
2, 1380, Note_off_c, 0, 70, 64
2, 1434, Note_on_c, 0, 79, 46
2, 1440, Note_on_c, 0, 67, 46
2, 1440, Note_on_c, 0, 62, 47
2, 1445, Note_off_c, 0, 72, 64
2, 1518, Note_on_c, 0, 70, 48
2, 1520, Note_on_c, 0, 72, 48
2, 1551, Note_off_c, 0, 79, 64
2, 1554, Note_off_c, 0, 67, 64
2, 1561, Note_off_c, 0, 62, 64
2, 1628, Note_on_c, 0, 60, 51
2, 1629, Note_off_c, 0, 70, 64
2, 1634, Note_on_c, 0, 79, 51
2, 1634, Note_on_c, 0, 67, 51
2, 1641, Note_off_c, 0, 72, 64
2, 1645, Control_c, 0, 64, 0
2, 1690, Control_c, 0, 64, 127
2, 1724, Note_on_c, 0, 70, 53
2, 1726, Note_on_c, 0, 72, 53
2, 1747, Note_off_c, 0, 67, 64
2, 1755, Note_off_c, 0, 79, 64
2, 1791, Note_off_c, 0, 60, 64
2, 1834, Note_on_c, 0, 79, 55
2, 1840, Note_on_c, 0, 67, 55
2, 1844, Note_off_c, 0, 70, 64
2, 1848, Note_off_c, 0, 72, 64
2, 1942, Note_on_c, 0, 70, 58
2, 1946, Note_on_c, 0, 72, 58
2, 1960, Note_off_c, 0, 67, 64
2, 1966, Note_off_c, 0, 79, 64
2, 2076, Note_on_c, 0, 67, 54
2, 2081, Note_on_c, 0, 79, 54
2, 2087, Note_on_c, 0, 41, 54
2, 2089, Note_off_c, 0, 70, 64
2, 2095, Note_off_c, 0, 72, 64
2, 2099, Control_c, 0, 64, 0
2, 2136, Control_c, 0, 64, 127
2, 2161, Note_off_c, 0, 41, 64
2, 2223, Note_off_c, 0, 79, 64
2, 2245, Note_on_c, 0, 72, 42
2, 2251, Note_on_c, 0, 69, 33
2, 2256, Note_on_c, 0, 60, 28
2, 2263, Note_off_c, 0, 67, 64
2, 2336, Note_on_c, 0, 77, 57
2, 2343, Note_off_c, 0, 72, 64
2, 2346, Note_on_c, 0, 57, 52
2, 2349, Note_off_c, 0, 69, 64
2, 2349, Note_on_c, 0, 65, 30
2, 2354, Note_off_c, 0, 60, 64
2, 2427, Note_on_c, 0, 69, 39
2, 2429, Note_off_c, 0, 77, 64
2, 2435, Note_on_c, 0, 72, 36
2, 2439, Note_off_c, 0, 57, 64
2, 2441, Note_on_c, 0, 60, 38
2, 2445, Note_off_c, 0, 65, 64
2, 2511, Note_off_c, 0, 69, 64
2, 2511, Note_on_c, 0, 76, 62
2, 2517, Note_on_c, 0, 64, 56
2, 2524, Note_off_c, 0, 72, 64
2, 2529, Note_on_c, 0, 50, 52
2, 2534, Note_off_c, 0, 60, 64
2, 2578, Note_off_c, 0, 50, 64
2, 2598, Note_on_c, 0, 60, 33
2, 2603, Note_off_c, 0, 76, 64
2, 2604, Note_on_c, 0, 69, 38
2, 2607, Note_on_c, 0, 72, 43
2, 2620, Note_off_c, 0, 64, 64
2, 2626, Note_off_c, 0, 60, 64
2, 2676, Control_c, 0, 64, 0
2, 2681, Note_on_c, 0, 76, 58
2, 2681, Note_on_c, 0, 43, 45
2, 2688, Note_off_c, 0, 69, 64
2, 2688, Note_on_c, 0, 64, 51
2, 2693, Note_off_c, 0, 72, 64
2, 2723, Control_c, 0, 64, 127
2, 2734, Note_off_c, 0, 43, 64
2, 2768, Note_off_c, 0, 76, 64
2, 2772, Note_on_c, 0, 67, 30
2, 2778, Note_on_c, 0, 71, 31
2, 2782, Note_off_c, 0, 64, 64
2, 2784, Note_on_c, 0, 55, 30
2, 2856, Note_on_c, 0, 74, 64
2, 2856, Note_on_c, 0, 59, 30
2, 2859, Note_off_c, 0, 67, 64
2, 2863, Note_off_c, 0, 55, 64
2, 2863, Note_on_c, 0, 62, 48
2, 2870, Note_on_c, 0, 53, 43
2, 2921, Note_off_c, 0, 74, 64
2, 2928, Note_on_c, 0, 67, 47
2, 2935, Note_off_c, 0, 59, 64
2, 2936, Note_off_c, 0, 62, 64
2, 2942, Note_off_c, 0, 53, 64
2, 2970, Note_on_c, 0, 55, 21
2, 3009, Note_off_c, 0, 67, 64
2, 3018, Note_on_c, 0, 72, 55
2, 3022, Note_on_c, 0, 60, 56
2, 3022, Note_on_c, 0, 52, 55
2, 3031, Note_off_c, 0, 55, 64
2, 3061, Note_off_c, 0, 71, 64
2, 3073, Note_off_c, 0, 60, 64
2, 3104, Note_on_c, 0, 55, 45
2, 3110, Note_off_c, 0, 52, 64
2, 3127, Note_on_c, 0, 67, 24
2, 3201, Note_on_c, 0, 76, 48
2, 3206, Note_on_c, 0, 48, 47
2, 3208, Note_on_c, 0, 64, 35
2, 3212, Note_off_c, 0, 55, 64
2, 3214, Note_off_c, 0, 67, 64
2, 3217, Note_off_c, 0, 72, 64
2, 3228, Control_c, 0, 64, 0
2, 3281, Control_c, 0, 64, 127
2, 3291, Note_on_c, 0, 67, 49
2, 3293, Note_on_c, 0, 72, 38
2, 3298, Note_on_c, 0, 55, 33
2, 3308, Note_off_c, 0, 64, 64
2, 3383, Note_on_c, 0, 60, 50
2, 3389, Note_off_c, 0, 55, 64
2, 3389, Note_off_c, 0, 67, 64
2, 3389, Note_on_c, 0, 64, 52
2, 3395, Note_off_c, 0, 72, 64
2, 3467, Note_on_c, 0, 65, 51
2, 3473, Note_off_c, 0, 64, 64
2, 3473, Note_on_c, 0, 57, 57
2, 3475, Note_on_c, 0, 72, 38
2, 3541, Note_off_c, 0, 72, 64
2, 3570, Note_on_c, 0, 64, 56
2, 3576, Note_on_c, 0, 55, 58
2, 3576, Control_c, 0, 64, 0
2, 3584, Note_off_c, 0, 65, 64
2, 3596, Note_off_c, 0, 57, 64
2, 3619, Control_c, 0, 64, 127
2, 3630, Note_off_c, 0, 60, 64
2, 3663, Note_off_c, 0, 55, 64
2, 3667, Note_off_c, 0, 48, 64
2, 3685, Note_on_c, 0, 67, 46
2, 3687, Note_on_c, 0, 72, 50
2, 3710, Note_off_c, 0, 76, 64
2, 3713, Note_off_c, 0, 64, 64
2, 3721, Note_off_c, 0, 67, 64
2, 3726, Note_off_c, 0, 72, 64
2, 3805, Note_on_c, 0, 64, 48
2, 3840, Control_c, 0, 64, 0
2, 3856, Note_on_c, 0, 36, 61
2, 3859, Note_on_c, 0, 79, 53
2, 3872, Note_off_c, 0, 64, 64
2, 3893, Control_c, 0, 64, 127
2, 3936, Note_off_c, 0, 36, 64
2, 4026, Note_on_c, 0, 70, 43
2, 4032, Note_on_c, 0, 72, 33
2, 4037, Note_on_c, 0, 55, 53
2, 4087, Note_off_c, 0, 79, 64
2, 4132, Note_on_c, 0, 60, 53
2, 4135, Note_off_c, 0, 70, 64
2, 4135, Note_on_c, 0, 79, 58
2, 4139, Note_on_c, 0, 67, 45
2, 4143, Note_off_c, 0, 72, 64
2, 4217, Note_on_c, 0, 72, 43
2, 4217, Note_on_c, 0, 70, 35
2, 4218, Note_on_c, 0, 62, 44
2, 4231, Note_off_c, 0, 60, 64
2, 4236, Note_off_c, 0, 67, 64
2, 4255, Note_off_c, 0, 79, 64
2, 4302, Note_on_c, 0, 79, 61
2, 4305, Note_on_c, 0, 64, 59
2, 4313, Note_off_c, 0, 70, 64
2, 4313, Note_on_c, 0, 67, 53
2, 4317, Note_off_c, 0, 62, 64
2, 4317, Note_off_c, 0, 72, 64
2, 4332, Note_off_c, 0, 64, 64
2, 4338, Note_off_c, 0, 55, 64
2, 4388, Note_on_c, 0, 72, 47
2, 4392, Note_on_c, 0, 70, 48
2, 4405, Note_off_c, 0, 79, 64
2, 4410, Note_off_c, 0, 67, 64
2, 4483, Control_c, 0, 64, 0
2, 4489, Note_on_c, 0, 79, 58
2, 4489, Note_on_c, 0, 67, 48
2, 4489, Note_on_c, 0, 41, 53
2, 4496, Note_off_c, 0, 70, 64
2, 4498, Note_off_c, 0, 72, 64
2, 4526, Control_c, 0, 64, 127
2, 4533, Note_off_c, 0, 41, 64
2, 4588, Note_off_c, 0, 79, 64
2, 4588, Note_on_c, 0, 60, 58
2, 4593, Note_off_c, 0, 67, 64
2, 4595, Note_on_c, 0, 72, 33
2, 4595, Note_on_c, 0, 69, 37
2, 4667, Note_on_c, 0, 77, 53
2, 4667, Note_on_c, 0, 65, 42
2, 4676, Note_off_c, 0, 72, 64
2, 4678, Note_on_c, 0, 57, 53
2, 4684, Note_off_c, 0, 69, 64
2, 4688, Note_off_c, 0, 60, 64
2, 4745, Note_on_c, 0, 69, 44
2, 4755, Note_on_c, 0, 72, 49
2, 4757, Note_on_c, 0, 60, 58
2, 4764, Note_off_c, 0, 57, 64
2, 4764, Note_off_c, 0, 65, 64
2, 4768, Note_off_c, 0, 77, 64
2, 4825, Note_on_c, 0, 76, 56
2, 4829, Note_on_c, 0, 64, 58
2, 4835, Note_on_c, 0, 50, 48
2, 4837, Note_off_c, 0, 69, 64
2, 4840, Note_off_c, 0, 72, 64
2, 4841, Note_off_c, 0, 60, 64
2, 4900, Note_off_c, 0, 50, 64
2, 4903, Note_on_c, 0, 72, 42
2, 4903, Note_on_c, 0, 69, 46
2, 4903, Note_on_c, 0, 60, 52
2, 4926, Note_off_c, 0, 64, 64
2, 4928, Note_off_c, 0, 76, 64
2, 4949, Note_off_c, 0, 60, 64
2, 4989, Note_on_c, 0, 76, 55
2, 4992, Note_on_c, 0, 43, 40
2, 4999, Note_on_c, 0, 64, 53
2, 5001, Note_off_c, 0, 69, 64
2, 5004, Note_off_c, 0, 72, 64
2, 5005, Control_c, 0, 64, 0
2, 5045, Control_c, 0, 64, 127
2, 5057, Note_off_c, 0, 43, 64
2, 5091, Note_on_c, 0, 67, 23
2, 5095, Note_on_c, 0, 55, 48
2, 5100, Note_off_c, 0, 76, 64
2, 5100, Note_on_c, 0, 71, 32
2, 5105, Note_off_c, 0, 64, 64
2, 5175, Note_off_c, 0, 55, 64
2, 5175, Note_on_c, 0, 62, 42
2, 5180, Note_off_c, 0, 67, 64
2, 5180, Note_on_c, 0, 74, 53
2, 5180, Note_on_c, 0, 59, 26
2, 5184, Note_on_c, 0, 53, 26
2, 5250, Note_off_c, 0, 53, 64
2, 5253, Note_off_c, 0, 74, 64
2, 5254, Note_on_c, 0, 67, 26
2, 5259, Note_off_c, 0, 59, 64
2, 5260, Note_off_c, 0, 62, 64
2, 5260, Note_on_c, 0, 55, 27
2, 5332, Note_off_c, 0, 67, 64
2, 5335, Note_on_c, 0, 52, 41
2, 5342, Note_off_c, 0, 55, 64
2, 5343, Note_on_c, 0, 72, 49
2, 5343, Note_on_c, 0, 60, 50
2, 5412, Note_off_c, 0, 60, 64
2, 5421, Note_on_c, 0, 67, 47
2, 5426, Note_on_c, 0, 55, 48
2, 5428, Note_off_c, 0, 52, 64
2, 5466, Note_off_c, 0, 71, 64
2, 5517, Note_on_c, 0, 76, 50
2, 5520, Note_on_c, 0, 48, 50
2, 5526, Note_on_c, 0, 64, 40
2, 5527, Note_off_c, 0, 72, 64
2, 5532, Note_off_c, 0, 55, 64
2, 5535, Note_off_c, 0, 67, 64
2, 5547, Control_c, 0, 64, 0
2, 5602, Control_c, 0, 64, 127
2, 5612, Note_on_c, 0, 55, 45
2, 5615, Note_on_c, 0, 67, 40
2, 5618, Note_on_c, 0, 72, 42
2, 5631, Note_off_c, 0, 64, 64
2, 5708, Note_off_c, 0, 67, 64
2, 5711, Note_on_c, 0, 64, 42
2, 5717, Note_off_c, 0, 55, 64
2, 5717, Note_on_c, 0, 60, 33
2, 5719, Note_off_c, 0, 72, 64
2, 5804, Note_off_c, 0, 64, 64
2, 5813, Note_on_c, 0, 57, 36
2, 5815, Note_on_c, 0, 65, 24
2, 5822, Note_on_c, 0, 72, 20
2, 5929, Note_off_c, 0, 72, 64
2, 5943, Note_on_c, 0, 64, 30
2, 5949, Note_off_c, 0, 65, 64
2, 5952, Note_on_c, 0, 55, 26
2, 5956, Control_c, 0, 64, 0
2, 5961, Note_off_c, 0, 57, 64
2, 6019, Control_c, 0, 64, 127
2, 6075, Note_off_c, 0, 60, 64
2, 6075, Note_on_c, 0, 72, 33
2, 6082, Note_off_c, 0, 55, 64
2, 6082, Note_on_c, 0, 67, 41
2, 6093, Note_off_c, 0, 48, 64
2, 6121, Note_off_c, 0, 64, 64
2, 6143, Note_off_c, 0, 76, 64
2, 6221, Note_off_c, 0, 67, 64
2, 6225, Control_c, 0, 64, 0
2, 6229, Note_on_c, 0, 76, 45
2, 6234, Note_on_c, 0, 43, 45
2, 6238, Note_on_c, 0, 64, 25
2, 6255, Note_off_c, 0, 72, 64
2, 6263, Control_c, 0, 64, 127
2, 6293, Note_off_c, 0, 43, 64
2, 6329, Note_off_c, 0, 76, 64
2, 6335, Note_on_c, 0, 67, 23
2, 6341, Note_on_c, 0, 55, 45
2, 6348, Note_on_c, 0, 71, 23
2, 6353, Note_off_c, 0, 64, 64
2, 6420, Note_on_c, 0, 74, 51
2, 6422, Note_on_c, 0, 62, 46
2, 6431, Note_off_c, 0, 55, 64
2, 6431, Note_off_c, 0, 67, 64
2, 6434, Note_on_c, 0, 59, 26
2, 6434, Note_on_c, 0, 53, 31
2, 6504, Note_off_c, 0, 74, 64
2, 6505, Note_off_c, 0, 53, 64
2, 6506, Note_off_c, 0, 59, 64
2, 6506, Note_on_c, 0, 55, 34
2, 6511, Note_off_c, 0, 62, 64
2, 6511, Note_on_c, 0, 67, 29
2, 6567, Note_off_c, 0, 67, 64
2, 6577, Note_on_c, 0, 72, 50
2, 6579, Note_on_c, 0, 60, 51
2, 6580, Note_on_c, 0, 52, 48
2, 6586, Note_off_c, 0, 55, 64
2, 6645, Note_off_c, 0, 60, 64
2, 6657, Note_on_c, 0, 55, 43
2, 6663, Note_on_c, 0, 67, 44
2, 6665, Note_off_c, 0, 52, 64
2, 6710, Note_off_c, 0, 71, 64
2, 6761, Note_on_c, 0, 76, 51
2, 6764, Note_on_c, 0, 64, 35
2, 6771, Note_off_c, 0, 72, 64
2, 6771, Note_on_c, 0, 48, 46
2, 6773, Note_off_c, 0, 67, 64
2, 6778, Note_off_c, 0, 55, 64
2, 6808, Control_c, 0, 64, 0
2, 6858, Note_on_c, 0, 67, 31
2, 6862, Note_on_c, 0, 55, 39
2, 6867, Note_on_c, 0, 72, 29
2, 6874, Control_c, 0, 64, 127
2, 6882, Note_off_c, 0, 64, 64
2, 6947, Note_off_c, 0, 67, 64
2, 6947, Note_on_c, 0, 64, 40
2, 6947, Note_on_c, 0, 60, 35
2, 6954, Note_off_c, 0, 55, 64
2, 6959, Note_off_c, 0, 72, 64
2, 7031, Note_on_c, 0, 72, 29
2, 7032, Note_on_c, 0, 65, 40
2, 7032, Note_on_c, 0, 57, 36
2, 7038, Note_off_c, 0, 64, 64
2, 7069, Note_off_c, 0, 48, 64
2, 7088, Note_off_c, 0, 72, 64
2, 7114, Note_on_c, 0, 64, 48
2, 7117, Note_on_c, 0, 55, 45
2, 7122, Note_off_c, 0, 57, 64
2, 7127, Note_off_c, 0, 65, 64
2, 7140, Note_off_c, 0, 60, 64
2, 7148, Control_c, 0, 64, 0
2, 7195, Note_on_c, 0, 72, 48
2, 7197, Note_on_c, 0, 67, 40
2, 7201, Note_on_c, 0, 48, 47
2, 7217, Note_off_c, 0, 64, 64
2, 7290, Note_on_c, 0, 64, 50
2, 7293, Note_on_c, 0, 60, 42
2, 7301, Note_off_c, 0, 67, 64
2, 7306, Note_off_c, 0, 72, 64
2, 7311, Note_off_c, 0, 55, 64
2, 7370, Control_c, 0, 64, 127
2, 7389, Note_on_c, 0, 72, 34
2, 7389, Note_on_c, 0, 65, 39
2, 7389, Note_on_c, 0, 57, 39
2, 7399, Note_off_c, 0, 64, 64
2, 7469, Note_off_c, 0, 48, 64
2, 7504, Note_off_c, 0, 72, 64
2, 7509, Note_on_c, 0, 64, 43
2, 7520, Note_on_c, 0, 55, 34
2, 7522, Note_off_c, 0, 65, 64
2, 7532, Note_off_c, 0, 57, 64
2, 7631, Note_off_c, 0, 60, 64
2, 7634, Note_on_c, 0, 72, 31
2, 7635, Control_c, 0, 64, 0
2, 7640, Note_on_c, 0, 67, 39
2, 7641, Note_on_c, 0, 48, 29
2, 7661, Note_off_c, 0, 64, 64
2, 7775, Note_on_c, 0, 64, 36
2, 7781, Note_on_c, 0, 60, 26
2, 7785, Note_off_c, 0, 67, 64
2, 7785, Note_off_c, 0, 72, 64
2, 7795, Note_off_c, 0, 55, 64
2, 7929, Note_on_c, 0, 57, 39
2, 7933, Note_on_c, 0, 72, 26
2, 7935, Note_on_c, 0, 65, 34
2, 7949, Note_off_c, 0, 64, 64
2, 8188, Note_on_c, 0, 64, 24
2, 8194, Note_off_c, 0, 65, 64
2, 8194, Note_on_c, 0, 55, 32
2, 8207, Note_off_c, 0, 57, 64
2, 8615, Control_c, 0, 64, 127
2, 8697, Note_off_c, 0, 55, 64
2, 8718, Note_off_c, 0, 60, 64
2, 8754, Note_off_c, 0, 76, 64
2, 8761, Note_off_c, 0, 48, 64
2, 8765, Note_off_c, 0, 64, 64
2, 8771, Note_off_c, 0, 72, 64
2, 9114, Note_on_c, 0, 72, 43
2, 9520, Control_c, 0, 64, 0
2, 9778, Note_on_c, 0, 73, 42
2, 9797, Note_off_c, 0, 72, 64
2, 10011, Note_on_c, 0, 71, 33
2, 10035, Note_off_c, 0, 73, 64
2, 10224, Note_on_c, 0, 41, 33
2, 10245, Control_c, 0, 64, 127
2, 10286, Note_off_c, 0, 41, 64
2, 10381, Note_off_c, 0, 71, 64
2, 10470, Note_on_c, 0, 72, 50
2, 10474, Note_on_c, 0, 65, 23
2, 10475, Note_on_c, 0, 68, 23
2, 10481, Note_on_c, 0, 60, 24
2, 10529, Note_off_c, 0, 60, 64
2, 10532, Note_off_c, 0, 65, 64
2, 10539, Note_off_c, 0, 68, 64
2, 10660, Note_on_c, 0, 56, 34
2, 10663, Note_on_c, 0, 77, 50
2, 10674, Note_on_c, 0, 65, 24
2, 10676, Note_on_c, 0, 60, 20
2, 10687, Note_off_c, 0, 72, 64
2, 10823, Note_off_c, 0, 56, 64
2, 10824, Note_off_c, 0, 60, 64
2, 10839, Note_off_c, 0, 77, 64
2, 10839, Note_on_c, 0, 53, 37
2, 10839, Control_c, 0, 64, 0
2, 10845, Note_on_c, 0, 76, 50
2, 10871, Note_off_c, 0, 65, 64
2, 10898, Control_c, 0, 64, 127
2, 10908, Note_off_c, 0, 53, 64
2, 11014, Note_on_c, 0, 61, 32
2, 11015, Note_on_c, 0, 70, 50
2, 11021, Note_on_c, 0, 67, 20
2, 11036, Note_on_c, 0, 64, 16
2, 11057, Note_off_c, 0, 76, 64
2, 11069, Note_off_c, 0, 67, 64
2, 11072, Note_off_c, 0, 64, 64
2, 11084, Note_off_c, 0, 61, 64
2, 11193, Note_on_c, 0, 58, 25
2, 11194, Note_on_c, 0, 64, 24
2, 11199, Note_on_c, 0, 73, 50
2, 11199, Note_on_c, 0, 61, 21
2, 11229, Note_off_c, 0, 70, 64
2, 11231, Note_off_c, 0, 61, 64
2, 11231, Note_off_c, 0, 64, 64
2, 11235, Note_off_c, 0, 58, 64
2, 11365, Control_c, 0, 64, 0
2, 11382, Note_on_c, 0, 41, 41
2, 11413, Control_c, 0, 64, 127
2, 11423, Note_off_c, 0, 41, 64
2, 11562, Note_on_c, 0, 72, 50
2, 11562, Note_on_c, 0, 68, 21
2, 11570, Note_on_c, 0, 65, 17
2, 11570, Note_on_c, 0, 60, 17
2, 11577, Note_off_c, 0, 73, 64
2, 11610, Note_off_c, 0, 68, 64
2, 11616, Note_off_c, 0, 60, 64
2, 11622, Note_off_c, 0, 65, 64
2, 11732, Note_on_c, 0, 77, 50
2, 11735, Note_on_c, 0, 56, 27
2, 11756, Note_off_c, 0, 72, 64
2, 11757, Note_on_c, 0, 65, 12
2, 11798, Note_on_c, 0, 60, 1
2, 11904, Control_c, 0, 64, 0
2, 11909, Note_off_c, 0, 77, 64
2, 11909, Note_on_c, 0, 76, 50
2, 11915, Note_off_c, 0, 60, 64
2, 11919, Note_on_c, 0, 53, 23
2, 11939, Note_off_c, 0, 56, 64
2, 11958, Control_c, 0, 64, 127
2, 11963, Note_off_c, 0, 65, 64
2, 11980, Note_off_c, 0, 53, 64
2, 12082, Note_on_c, 0, 70, 50
2, 12084, Note_on_c, 0, 61, 23
2, 12089, Note_on_c, 0, 67, 23
2, 12095, Note_on_c, 0, 64, 21
2, 12138, Note_off_c, 0, 76, 64
2, 12148, Note_off_c, 0, 67, 64
2, 12149, Note_off_c, 0, 64, 64
2, 12155, Note_off_c, 0, 61, 64
2, 12269, Note_on_c, 0, 73, 50
2, 12271, Note_on_c, 0, 64, 30
2, 12278, Note_on_c, 0, 58, 27
2, 12281, Note_on_c, 0, 61, 23
2, 12295, Note_off_c, 0, 70, 64
2, 12314, Note_off_c, 0, 61, 64
2, 12318, Note_off_c, 0, 58, 64
2, 12319, Note_off_c, 0, 64, 64
2, 12449, Control_c, 0, 64, 0
2, 12470, Note_on_c, 0, 53, 37
2, 12495, Control_c, 0, 64, 127
2, 12520, Note_off_c, 0, 53, 64
2, 12653, Note_on_c, 0, 68, 23
2, 12657, Note_on_c, 0, 60, 24
2, 12658, Note_on_c, 0, 72, 61
2, 12661, Note_on_c, 0, 65, 23
2, 12675, Note_off_c, 0, 73, 64
2, 12695, Note_off_c, 0, 65, 64
2, 12701, Note_off_c, 0, 68, 64
2, 12704, Note_off_c, 0, 60, 64
2, 12735, Note_on_c, 0, 73, 48
2, 12754, Note_off_c, 0, 72, 64
2, 12820, Note_on_c, 0, 72, 67
2, 12827, Note_on_c, 0, 56, 16
2, 12833, Note_off_c, 0, 73, 64
2, 12833, Note_on_c, 0, 65, 23
2, 12836, Note_on_c, 0, 60, 17
2, 12872, Note_off_c, 0, 60, 64
2, 12893, Note_off_c, 0, 56, 64
2, 12895, Note_on_c, 0, 73, 49
2, 12905, Note_off_c, 0, 65, 64
2, 12916, Note_off_c, 0, 72, 64
2, 12962, Note_on_c, 0, 51, 36
2, 12966, Control_c, 0, 64, 0
2, 12971, Note_on_c, 0, 75, 62
2, 12987, Note_off_c, 0, 73, 64
2, 13008, Control_c, 0, 64, 127
2, 13037, Note_off_c, 0, 51, 64
2, 13093, Note_off_c, 0, 75, 64
2, 13126, Note_on_c, 0, 75, 62
2, 13126, Note_on_c, 0, 68, 28
2, 13130, Note_on_c, 0, 60, 37
2, 13207, Note_off_c, 0, 60, 64
2, 13226, Note_off_c, 0, 75, 64
2, 13228, Note_off_c, 0, 68, 64
2, 13287, Note_on_c, 0, 75, 67
2, 13298, Note_on_c, 0, 51, 36
2, 13343, Note_off_c, 0, 51, 64
2, 13403, Note_off_c, 0, 75, 64
2, 13474, Note_on_c, 0, 39, 40
2, 13477, Note_on_c, 0, 75, 62
2, 13477, Control_c, 0, 64, 0
2, 13517, Control_c, 0, 64, 127
2, 13525, Note_off_c, 0, 39, 64
2, 13687, Note_on_c, 0, 73, 57
2, 13692, Note_on_c, 0, 67, 29
2, 13694, Note_on_c, 0, 63, 17
2, 13698, Note_on_c, 0, 61, 16
2, 13718, Note_off_c, 0, 75, 64
2, 13735, Note_off_c, 0, 67, 64
2, 13740, Note_off_c, 0, 63, 64
2, 13742, Note_off_c, 0, 61, 64
2, 13764, Note_off_c, 0, 73, 64
2, 13765, Note_on_c, 0, 72, 53
2, 13848, Note_on_c, 0, 70, 73
2, 13848, Note_on_c, 0, 55, 35
2, 13855, Note_on_c, 0, 63, 14
2, 13857, Note_on_c, 0, 61, 14
2, 13864, Note_off_c, 0, 72, 64
2, 13899, Note_off_c, 0, 55, 64
2, 13910, Note_off_c, 0, 63, 64
2, 13914, Note_off_c, 0, 61, 64
2, 13922, Note_on_c, 0, 72, 63
2, 13933, Note_off_c, 0, 70, 64
2, 14003, Note_on_c, 0, 68, 58
2, 14007, Control_c, 0, 64, 0
2, 14012, Note_on_c, 0, 44, 40
2, 14035, Note_off_c, 0, 72, 64
2, 14055, Control_c, 0, 64, 127
2, 14064, Note_off_c, 0, 44, 64
2, 14170, Note_on_c, 0, 56, 33
2, 14177, Note_on_c, 0, 63, 37
2, 14182, Note_on_c, 0, 60, 26
2, 14237, Note_off_c, 0, 56, 64
2, 14238, Note_off_c, 0, 63, 64
2, 14245, Note_off_c, 0, 60, 64
2, 14318, Note_on_c, 0, 51, 37
2, 14328, Note_on_c, 0, 60, 42
2, 14335, Note_on_c, 0, 56, 28
2, 14371, Note_off_c, 0, 56, 64
2, 14380, Note_off_c, 0, 51, 64
2, 14387, Note_off_c, 0, 60, 64
2, 14484, Note_on_c, 0, 60, 35
2, 14484, Note_on_c, 0, 56, 39
2, 14485, Control_c, 0, 64, 0
2, 14493, Note_on_c, 0, 65, 36
2, 14529, Control_c, 0, 64, 127
2, 14560, Note_off_c, 0, 56, 64
2, 14565, Note_off_c, 0, 65, 64
2, 14575, Note_off_c, 0, 60, 64
2, 14648, Note_on_c, 0, 63, 26
2, 14653, Note_on_c, 0, 60, 29
2, 14657, Note_on_c, 0, 56, 31
2, 14704, Note_off_c, 0, 60, 64
2, 14705, Note_off_c, 0, 56, 64
2, 14708, Note_off_c, 0, 63, 64
2, 14826, Note_on_c, 0, 51, 33
2, 14832, Note_on_c, 0, 60, 28
2, 14859, Note_off_c, 0, 60, 64
2, 14879, Note_off_c, 0, 51, 64
2, 15013, Control_c, 0, 64, 0
2, 15016, Note_on_c, 0, 32, 50
2, 15054, Control_c, 0, 64, 127
2, 15127, Note_off_c, 0, 68, 64
2, 15223, Note_on_c, 0, 63, 22
2, 15224, Note_on_c, 0, 75, 64
2, 15224, Note_on_c, 0, 68, 36
2, 15230, Note_on_c, 0, 72, 29
2, 15276, Note_off_c, 0, 63, 64
2, 15285, Note_off_c, 0, 32, 64
2, 15289, Note_off_c, 0, 72, 64
2, 15291, Note_off_c, 0, 68, 64
2, 15380, Note_on_c, 0, 80, 67
2, 15382, Note_on_c, 0, 68, 34
2, 15389, Note_on_c, 0, 63, 33
2, 15394, Note_on_c, 0, 60, 17
2, 15407, Note_off_c, 0, 75, 64
2, 15415, Note_off_c, 0, 68, 64
2, 15422, Note_off_c, 0, 63, 64
2, 15427, Note_off_c, 0, 60, 64
2, 15532, Note_on_c, 0, 79, 63
2, 15534, Note_on_c, 0, 56, 26
2, 15542, Control_c, 0, 64, 0
2, 15546, Note_off_c, 0, 80, 64
2, 15571, Control_c, 0, 64, 127
2, 15598, Note_off_c, 0, 56, 64
2, 15689, Note_on_c, 0, 73, 57
2, 15694, Note_on_c, 0, 67, 29
2, 15696, Note_on_c, 0, 64, 31
2, 15701, Note_on_c, 0, 70, 22
2, 15731, Note_off_c, 0, 79, 64
2, 15744, Note_off_c, 0, 64, 64
2, 15749, Note_off_c, 0, 67, 64
2, 15768, Note_off_c, 0, 70, 64
2, 15859, Note_on_c, 0, 76, 61
2, 15865, Note_on_c, 0, 61, 17
2, 15868, Note_on_c, 0, 67, 20
2, 15870, Note_on_c, 0, 64, 17
2, 15887, Note_off_c, 0, 73, 64
2, 15895, Note_off_c, 0, 61, 64
2, 15900, Note_off_c, 0, 67, 64
2, 15903, Note_off_c, 0, 64, 64
2, 16017, Control_c, 0, 64, 0
2, 16028, Note_on_c, 0, 44, 40
2, 16059, Control_c, 0, 64, 127
2, 16076, Note_off_c, 0, 44, 64
2, 16132, Note_off_c, 0, 76, 64
2, 16186, Note_on_c, 0, 75, 62
2, 16190, Note_on_c, 0, 68, 37
2, 16192, Note_on_c, 0, 72, 48
2, 16196, Note_on_c, 0, 63, 33
2, 16242, Note_off_c, 0, 72, 64
2, 16245, Note_off_c, 0, 63, 64
2, 16246, Note_off_c, 0, 68, 64
2, 16332, Note_on_c, 0, 80, 67
2, 16337, Note_on_c, 0, 68, 36
2, 16338, Note_on_c, 0, 63, 39
2, 16344, Note_on_c, 0, 60, 27
2, 16360, Note_off_c, 0, 75, 64
2, 16374, Note_off_c, 0, 68, 64
2, 16377, Note_off_c, 0, 60, 64
2, 16383, Note_off_c, 0, 63, 64
2, 16489, Note_on_c, 0, 79, 62
2, 16494, Note_on_c, 0, 56, 35
2, 16499, Control_c, 0, 64, 0
2, 16507, Note_off_c, 0, 80, 64
2, 16536, Control_c, 0, 64, 127
2, 16542, Note_off_c, 0, 56, 64
2, 16655, Note_on_c, 0, 70, 26
2, 16656, Note_on_c, 0, 73, 67
2, 16662, Note_on_c, 0, 67, 33
2, 16669, Note_on_c, 0, 64, 25
2, 16686, Note_off_c, 0, 79, 64
2, 16693, Note_off_c, 0, 64, 64
2, 16700, Note_off_c, 0, 70, 64
2, 16709, Note_off_c, 0, 67, 64
2, 16839, Note_on_c, 0, 64, 29
2, 16844, Note_on_c, 0, 67, 27
2, 16847, Note_on_c, 0, 76, 62
2, 16847, Note_on_c, 0, 61, 21
2, 16862, Note_off_c, 0, 73, 64
2, 16875, Note_off_c, 0, 67, 64
2, 16882, Note_off_c, 0, 64, 64
2, 16892, Note_off_c, 0, 61, 64
2, 17028, Control_c, 0, 64, 0
2, 17044, Note_on_c, 0, 44, 40
2, 17076, Control_c, 0, 64, 127
2, 17134, Note_off_c, 0, 44, 64
2, 17224, Note_off_c, 0, 76, 64
2, 17226, Note_on_c, 0, 63, 21
2, 17227, Note_on_c, 0, 75, 57
2, 17227, Note_on_c, 0, 68, 22
2, 17232, Note_on_c, 0, 72, 32
2, 17280, Note_off_c, 0, 72, 64
2, 17282, Note_off_c, 0, 63, 64
2, 17286, Note_off_c, 0, 68, 64
2, 17304, Note_on_c, 0, 77, 62
2, 17316, Note_off_c, 0, 75, 64
2, 17377, Note_on_c, 0, 75, 73
2, 17379, Note_on_c, 0, 68, 32
2, 17383, Note_on_c, 0, 60, 29
2, 17388, Note_off_c, 0, 77, 64
2, 17389, Note_on_c, 0, 63, 26
2, 17406, Note_off_c, 0, 63, 64
2, 17406, Note_off_c, 0, 68, 64
2, 17413, Note_off_c, 0, 60, 64
2, 17445, Note_on_c, 0, 77, 67
2, 17452, Note_off_c, 0, 75, 64
2, 17530, Note_on_c, 0, 39, 42
2, 17535, Note_on_c, 0, 78, 62
2, 17540, Control_c, 0, 64, 0
2, 17548, Note_off_c, 0, 77, 64
2, 17587, Control_c, 0, 64, 127
2, 17620, Note_off_c, 0, 39, 64
2, 17631, Note_off_c, 0, 78, 64
2, 17697, Note_on_c, 0, 70, 32
2, 17701, Note_on_c, 0, 78, 73
2, 17704, Note_on_c, 0, 63, 35
2, 17739, Note_on_c, 0, 66, 1
2, 17765, Note_off_c, 0, 66, 64
2, 17769, Note_off_c, 0, 63, 64
2, 17769, Note_off_c, 0, 70, 64
2, 17771, Note_off_c, 0, 78, 64
2, 17854, Note_on_c, 0, 58, 25
2, 17857, Note_on_c, 0, 78, 69
2, 17862, Note_on_c, 0, 66, 22
2, 17862, Note_on_c, 0, 63, 30
2, 17891, Note_off_c, 0, 66, 64
2, 17899, Note_off_c, 0, 63, 64
2, 17914, Note_off_c, 0, 58, 64
2, 17957, Note_off_c, 0, 78, 64
2, 18033, Note_on_c, 0, 78, 62
2, 18034, Control_c, 0, 64, 0
2, 18039, Note_on_c, 0, 41, 38
2, 18074, Control_c, 0, 64, 127
2, 18129, Note_off_c, 0, 41, 64
2, 18134, Note_off_c, 0, 78, 64
2, 18211, Note_on_c, 0, 63, 31
2, 18218, Note_on_c, 0, 77, 57
2, 18220, Note_on_c, 0, 65, 29
2, 18226, Note_on_c, 0, 69, 26
2, 18287, Note_on_c, 0, 72, 45
2, 18291, Note_off_c, 0, 65, 64
2, 18292, Note_off_c, 0, 63, 64
2, 18295, Note_off_c, 0, 69, 64
2, 18307, Note_off_c, 0, 77, 64
2, 18364, Note_on_c, 0, 75, 57
2, 18366, Note_on_c, 0, 63, 28
2, 18374, Note_on_c, 0, 57, 24
2, 18376, Note_on_c, 0, 65, 22
2, 18394, Note_off_c, 0, 72, 64
2, 18399, Note_off_c, 0, 63, 64
2, 18401, Note_off_c, 0, 57, 64
2, 18408, Note_off_c, 0, 65, 64
2, 18435, Note_on_c, 0, 73, 57
2, 18444, Note_off_c, 0, 75, 64
2, 18515, Note_on_c, 0, 70, 55
2, 18522, Note_on_c, 0, 46, 36
2, 18526, Control_c, 0, 64, 0
2, 18532, Note_off_c, 0, 73, 64
2, 18574, Control_c, 0, 64, 127
2, 18612, Note_off_c, 0, 46, 64
2, 18682, Note_on_c, 0, 61, 17
2, 18684, Note_on_c, 0, 58, 29
2, 18687, Note_on_c, 0, 65, 20
2, 18732, Note_off_c, 0, 65, 64
2, 18739, Note_off_c, 0, 58, 64
2, 18744, Note_off_c, 0, 61, 64
2, 18846, Note_on_c, 0, 61, 21
2, 18848, Note_on_c, 0, 58, 26
2, 18853, Note_on_c, 0, 53, 25
2, 18885, Note_off_c, 0, 58, 64
2, 18889, Note_off_c, 0, 61, 64
2, 18894, Note_off_c, 0, 53, 64
2, 19042, Note_on_c, 0, 42, 38
2, 19048, Control_c, 0, 64, 0
2, 19095, Control_c, 0, 64, 127
2, 19103, Note_off_c, 0, 70, 64
2, 19132, Note_off_c, 0, 42, 64
2, 19225, Note_on_c, 0, 73, 53
2, 19229, Note_on_c, 0, 66, 25
2, 19243, Note_on_c, 0, 58, 16
2, 19252, Note_on_c, 0, 61, 15
2, 19291, Note_off_c, 0, 61, 64
2, 19291, Note_off_c, 0, 66, 64
2, 19300, Note_off_c, 0, 58, 64
2, 19301, Note_on_c, 0, 75, 45
2, 19314, Note_off_c, 0, 73, 64
2, 19384, Note_on_c, 0, 54, 26
2, 19387, Note_on_c, 0, 58, 31
2, 19391, Note_off_c, 0, 75, 64
2, 19391, Note_on_c, 0, 73, 54
2, 19393, Note_on_c, 0, 61, 23
2, 19418, Note_off_c, 0, 61, 64
2, 19425, Note_off_c, 0, 58, 64
2, 19429, Note_off_c, 0, 54, 64
2, 19459, Note_on_c, 0, 75, 60
2, 19477, Note_off_c, 0, 73, 64
2, 19548, Note_on_c, 0, 77, 58
2, 19548, Note_on_c, 0, 37, 45
2, 19555, Control_c, 0, 64, 0
2, 19578, Note_off_c, 0, 75, 64
2, 19593, Control_c, 0, 64, 127
2, 19638, Note_off_c, 0, 37, 64
2, 19648, Note_off_c, 0, 77, 64
2, 19712, Note_on_c, 0, 56, 36
2, 19715, Note_on_c, 0, 77, 62
2, 19715, Note_on_c, 0, 61, 26
2, 19721, Note_on_c, 0, 65, 22
2, 19776, Note_off_c, 0, 61, 64
2, 19778, Note_off_c, 0, 56, 64
2, 19780, Note_off_c, 0, 65, 64
2, 19796, Note_off_c, 0, 77, 64
2, 19874, Note_on_c, 0, 61, 25
2, 19874, Note_on_c, 0, 53, 27
2, 19877, Note_on_c, 0, 77, 67
2, 19881, Note_on_c, 0, 56, 30
2, 19914, Note_off_c, 0, 53, 64
2, 19918, Note_off_c, 0, 61, 64
2, 19929, Note_off_c, 0, 56, 64
2, 19972, Note_off_c, 0, 77, 64
2, 20063, Note_on_c, 0, 39, 37
2, 20069, Note_on_c, 0, 77, 55
2, 20074, Control_c, 0, 64, 0
2, 20119, Control_c, 0, 64, 127
2, 20153, Note_off_c, 0, 39, 64
2, 20249, Note_on_c, 0, 75, 58
2, 20253, Note_off_c, 0, 77, 64
2, 20257, Note_on_c, 0, 66, 22
2, 20259, Note_on_c, 0, 58, 25
2, 20265, Note_on_c, 0, 60, 33
2, 20311, Note_off_c, 0, 66, 64
2, 20329, Note_on_c, 0, 70, 46
2, 20334, Note_off_c, 0, 60, 64
2, 20334, Note_off_c, 0, 58, 64
2, 20352, Note_off_c, 0, 75, 64
2, 20415, Note_on_c, 0, 58, 30
2, 20415, Note_on_c, 0, 51, 24
2, 20418, Note_on_c, 0, 73, 60
2, 20418, Note_on_c, 0, 60, 33
2, 20432, Note_off_c, 0, 70, 64
2, 20440, Note_off_c, 0, 60, 64
2, 20444, Note_off_c, 0, 58, 64
2, 20455, Note_off_c, 0, 51, 64
2, 20482, Note_off_c, 0, 73, 64
2, 20496, Note_on_c, 0, 72, 62
2, 20562, Control_c, 0, 64, 0
2, 20567, Note_on_c, 0, 69, 39
2, 20573, Note_on_c, 0, 41, 42
2, 20594, Note_off_c, 0, 72, 64
2, 20607, Control_c, 0, 64, 127
2, 20649, Note_off_c, 0, 69, 64
2, 20663, Note_off_c, 0, 41, 64
2, 20735, Note_on_c, 0, 72, 62
2, 20745, Note_on_c, 0, 69, 36
2, 20748, Note_on_c, 0, 65, 39
2, 20748, Note_on_c, 0, 60, 42
2, 20794, Note_off_c, 0, 69, 64
2, 20802, Note_off_c, 0, 65, 64
2, 20804, Note_off_c, 0, 60, 64
2, 20892, Note_on_c, 0, 77, 61
2, 20898, Note_on_c, 0, 57, 36
2, 20903, Note_on_c, 0, 60, 31
2, 20904, Note_on_c, 0, 65, 20
2, 20916, Note_off_c, 0, 72, 64
2, 21038, Note_off_c, 0, 57, 64
2, 21040, Control_c, 0, 64, 0
2, 21051, Note_off_c, 0, 60, 64
2, 21051, Note_on_c, 0, 53, 33
2, 21052, Note_on_c, 0, 76, 64
2, 21067, Note_off_c, 0, 77, 64
2, 21087, Note_off_c, 0, 65, 64
2, 21093, Control_c, 0, 64, 127
2, 21104, Note_off_c, 0, 53, 64
2, 21201, Note_on_c, 0, 61, 34
2, 21203, Note_on_c, 0, 70, 49
2, 21208, Note_on_c, 0, 64, 20
2, 21212, Note_on_c, 0, 67, 17
2, 21218, Note_off_c, 0, 76, 64
2, 21267, Note_off_c, 0, 64, 64
2, 21267, Note_off_c, 0, 61, 64
2, 21274, Note_off_c, 0, 67, 64
2, 21361, Note_on_c, 0, 64, 39
2, 21365, Note_on_c, 0, 73, 62
2, 21367, Note_on_c, 0, 61, 33
2, 21367, Note_on_c, 0, 58, 34
2, 21388, Note_off_c, 0, 70, 64
2, 21391, Note_off_c, 0, 64, 64
2, 21394, Note_off_c, 0, 61, 64
2, 21395, Note_off_c, 0, 58, 64
2, 21511, Control_c, 0, 64, 0
2, 21532, Note_on_c, 0, 41, 46
2, 21559, Control_c, 0, 64, 127
2, 21597, Note_off_c, 0, 41, 64
2, 21686, Note_on_c, 0, 69, 29
2, 21691, Note_on_c, 0, 60, 32
2, 21694, Note_on_c, 0, 65, 30
2, 21695, Note_on_c, 0, 72, 49
2, 21720, Note_off_c, 0, 73, 64
2, 21728, Note_off_c, 0, 69, 64
2, 21741, Note_off_c, 0, 65, 64
2, 21744, Note_off_c, 0, 60, 64
2, 21842, Note_on_c, 0, 77, 49
2, 21848, Note_on_c, 0, 65, 21
2, 21852, Note_on_c, 0, 60, 20
2, 21852, Note_on_c, 0, 57, 19
2, 21865, Note_off_c, 0, 72, 64
2, 21983, Control_c, 0, 64, 0
2, 21993, Note_on_c, 0, 76, 41
2, 22000, Note_off_c, 0, 60, 64
2, 22000, Note_off_c, 0, 77, 64
2, 22002, Note_off_c, 0, 57, 64
2, 22007, Note_on_c, 0, 53, 30
2, 22044, Control_c, 0, 64, 127
2, 22049, Note_off_c, 0, 65, 64
2, 22059, Note_off_c, 0, 53, 64
2, 22163, Note_on_c, 0, 70, 35
2, 22163, Note_on_c, 0, 61, 13
2, 22166, Note_on_c, 0, 67, 10
2, 22175, Note_on_c, 0, 64, 9
2, 22216, Note_off_c, 0, 64, 64
2, 22218, Note_off_c, 0, 67, 64
2, 22231, Note_off_c, 0, 61, 64
2, 22309, Note_off_c, 0, 76, 64
2, 22346, Note_on_c, 0, 64, 14
2, 22352, Note_on_c, 0, 58, 15
2, 22353, Note_on_c, 0, 73, 48
2, 22353, Note_on_c, 0, 61, 14
2, 22376, Note_off_c, 0, 70, 64
2, 22387, Note_off_c, 0, 64, 64
2, 22393, Note_off_c, 0, 61, 64
2, 22393, Note_off_c, 0, 58, 64
2, 22564, Control_c, 0, 64, 0
2, 22579, Note_on_c, 0, 41, 38
2, 22612, Control_c, 0, 64, 127
2, 22644, Note_off_c, 0, 41, 64
2, 22780, Note_on_c, 0, 72, 56
2, 22785, Note_on_c, 0, 66, 25
2, 22798, Note_on_c, 0, 63, 13
2, 22801, Note_off_c, 0, 73, 64
2, 22804, Note_on_c, 0, 60, 13
2, 22833, Note_off_c, 0, 66, 64
2, 22847, Note_off_c, 0, 60, 64
2, 22847, Note_off_c, 0, 63, 64
2, 22863, Note_on_c, 0, 73, 61
2, 22881, Note_off_c, 0, 72, 64
2, 22937, Note_on_c, 0, 54, 14
2, 22940, Note_on_c, 0, 63, 15
2, 22941, Note_on_c, 0, 72, 67
2, 22944, Note_on_c, 0, 58, 25
2, 22949, Note_off_c, 0, 73, 64
2, 23004, Note_on_c, 0, 73, 73
2, 23016, Note_off_c, 0, 54, 64
2, 23026, Note_off_c, 0, 72, 64
2, 23031, Note_off_c, 0, 58, 64
2, 23040, Note_off_c, 0, 63, 64
2, 23071, Control_c, 0, 64, 0
2, 23076, Note_on_c, 0, 75, 57
2, 23090, Note_on_c, 0, 53, 27
2, 23095, Note_off_c, 0, 73, 64
2, 23113, Control_c, 0, 64, 127
2, 23154, Note_off_c, 0, 53, 64
2, 23188, Note_off_c, 0, 75, 64
2, 23230, Note_on_c, 0, 70, 20
2, 23232, Note_on_c, 0, 66, 40
2, 23232, Note_on_c, 0, 63, 40
2, 23235, Note_on_c, 0, 75, 73
2, 23292, Note_off_c, 0, 63, 64
2, 23292, Note_off_c, 0, 66, 64
2, 23308, Note_off_c, 0, 75, 64
2, 23336, Note_off_c, 0, 70, 64
2, 23396, Note_on_c, 0, 75, 67
2, 23403, Note_on_c, 0, 66, 30
2, 23403, Note_on_c, 0, 63, 33
2, 23405, Note_on_c, 0, 60, 36
2, 23446, Note_off_c, 0, 66, 64
2, 23452, Note_off_c, 0, 63, 64
2, 23458, Note_off_c, 0, 60, 64
2, 23530, Note_off_c, 0, 75, 64
2, 23603, Note_on_c, 0, 75, 60
2, 23610, Control_c, 0, 64, 0
2, 23624, Note_on_c, 0, 41, 27
2, 23658, Control_c, 0, 64, 127
2, 23695, Note_off_c, 0, 41, 64
2, 23807, Note_on_c, 0, 63, 32
2, 23813, Note_on_c, 0, 69, 31
2, 23815, Note_on_c, 0, 77, 47
2, 23820, Note_on_c, 0, 65, 22
2, 23845, Note_off_c, 0, 75, 64
2, 23875, Note_off_c, 0, 65, 64
2, 23877, Note_off_c, 0, 69, 64
2, 23881, Note_off_c, 0, 63, 64
2, 23890, Note_on_c, 0, 72, 55
2, 23917, Note_off_c, 0, 77, 64
2, 23966, Note_on_c, 0, 63, 26
2, 23968, Note_on_c, 0, 75, 43
2, 23972, Note_on_c, 0, 65, 25
2, 23975, Note_on_c, 0, 57, 25
2, 23983, Note_off_c, 0, 72, 64
2, 23990, Note_off_c, 0, 65, 64
2, 23996, Note_off_c, 0, 63, 64
2, 24002, Note_off_c, 0, 57, 64
2, 24040, Note_on_c, 0, 73, 58
2, 24056, Note_off_c, 0, 75, 64
2, 24125, Note_on_c, 0, 70, 46
2, 24125, Note_on_c, 0, 46, 41
2, 24125, Control_c, 0, 64, 0
2, 24138, Note_off_c, 0, 73, 64
2, 24173, Control_c, 0, 64, 127
2, 24185, Note_off_c, 0, 46, 64
2, 24279, Note_on_c, 0, 61, 27
2, 24280, Note_on_c, 0, 58, 36
2, 24288, Note_on_c, 0, 65, 23
2, 24328, Note_off_c, 0, 58, 64
2, 24328, Note_off_c, 0, 61, 64
2, 24331, Note_off_c, 0, 65, 64
2, 24432, Note_on_c, 0, 61, 28
2, 24438, Note_on_c, 0, 58, 27
2, 24438, Note_on_c, 0, 53, 29
2, 24467, Note_off_c, 0, 53, 64
2, 24467, Note_off_c, 0, 58, 64
2, 24474, Note_off_c, 0, 61, 64
2, 24608, Note_on_c, 0, 67, 39
2, 24608, Note_on_c, 0, 48, 29
2, 24615, Control_c, 0, 64, 0
2, 24637, Note_off_c, 0, 70, 64
2, 24662, Control_c, 0, 64, 127
2, 24667, Note_off_c, 0, 48, 64
2, 24795, Note_on_c, 0, 58, 40
2, 24803, Note_on_c, 0, 60, 31
2, 24806, Note_on_c, 0, 64, 19
2, 24849, Note_off_c, 0, 60, 64
2, 24860, Note_off_c, 0, 58, 64
2, 24886, Note_off_c, 0, 64, 64
2, 25016, Note_on_c, 0, 60, 14
2, 25017, Note_on_c, 0, 55, 17
2, 25047, Note_off_c, 0, 55, 64
2, 25047, Note_off_c, 0, 60, 64
2, 25242, Control_c, 0, 64, 0
2, 25254, Note_on_c, 0, 41, 36
2, 25298, Control_c, 0, 64, 127
2, 25308, Note_off_c, 0, 41, 64
2, 25399, Note_off_c, 0, 67, 64
2, 25459, Note_on_c, 0, 68, 26
2, 25463, Note_on_c, 0, 72, 58
2, 25471, Note_on_c, 0, 60, 22
2, 25474, Note_on_c, 0, 65, 18
2, 25508, Note_off_c, 0, 68, 64
2, 25510, Note_off_c, 0, 60, 64
2, 25515, Note_off_c, 0, 65, 64
2, 25625, Note_on_c, 0, 77, 57
2, 25629, Note_on_c, 0, 56, 26
2, 25632, Note_on_c, 0, 65, 19
2, 25646, Note_off_c, 0, 72, 64
2, 25647, Note_on_c, 0, 60, 20
2, 25760, Control_c, 0, 64, 0
2, 25771, Note_off_c, 0, 77, 64
2, 25771, Note_on_c, 0, 76, 56
2, 25774, Note_on_c, 0, 53, 33
2, 25801, Note_off_c, 0, 60, 64
2, 25807, Note_off_c, 0, 56, 64
2, 25813, Control_c, 0, 64, 127
2, 25823, Note_off_c, 0, 65, 64
2, 25837, Note_off_c, 0, 53, 64
2, 25920, Note_on_c, 0, 70, 58
2, 25925, Note_on_c, 0, 67, 31
2, 25927, Note_on_c, 0, 61, 30
2, 25933, Note_on_c, 0, 64, 19
2, 25973, Note_off_c, 0, 64, 64
2, 25979, Note_off_c, 0, 67, 64
2, 25981, Note_off_c, 0, 61, 64
2, 25982, Note_off_c, 0, 76, 64
2, 26070, Note_on_c, 0, 64, 33
2, 26072, Note_on_c, 0, 61, 18
2, 26072, Note_on_c, 0, 58, 33
2, 26077, Note_on_c, 0, 73, 62
2, 26107, Note_off_c, 0, 64, 64
2, 26108, Note_off_c, 0, 61, 64
2, 26114, Note_off_c, 0, 58, 64
2, 26121, Note_off_c, 0, 70, 64
2, 26213, Control_c, 0, 64, 0
2, 26228, Note_on_c, 0, 41, 36
2, 26261, Control_c, 0, 64, 127
2, 26284, Note_off_c, 0, 41, 64
2, 26387, Note_on_c, 0, 72, 67
2, 26387, Note_on_c, 0, 68, 37
2, 26387, Note_on_c, 0, 65, 43
2, 26403, Note_off_c, 0, 73, 64
2, 26447, Note_off_c, 0, 68, 64
2, 26448, Note_off_c, 0, 65, 64
2, 26538, Note_on_c, 0, 77, 54
2, 26546, Note_on_c, 0, 56, 22
2, 26555, Note_on_c, 0, 65, 7
2, 26561, Note_off_c, 0, 72, 64
2, 26650, Note_off_c, 0, 56, 64
2, 26688, Control_c, 0, 64, 0
2, 26693, Note_on_c, 0, 53, 37
2, 26741, Note_off_c, 0, 65, 64
2, 26745, Control_c, 0, 64, 127
2, 26750, Note_off_c, 0, 53, 64
2, 26755, Note_off_c, 0, 77, 64
2, 26755, Note_on_c, 0, 76, 57
2, 26823, Note_on_c, 0, 67, 19
2, 26829, Note_on_c, 0, 70, 60
2, 26838, Note_off_c, 0, 76, 64
2, 26838, Note_on_c, 0, 64, 25
2, 26842, Note_on_c, 0, 61, 31
2, 26881, Note_off_c, 0, 64, 64
2, 26884, Note_off_c, 0, 67, 64
2, 26892, Note_off_c, 0, 61, 64
2, 26898, Note_on_c, 0, 72, 67
2, 26907, Note_off_c, 0, 70, 64
2, 26979, Note_on_c, 0, 64, 26
2, 26985, Note_on_c, 0, 58, 31
2, 26988, Note_on_c, 0, 75, 62
2, 27000, Note_off_c, 0, 72, 64
2, 27015, Note_off_c, 0, 64, 64
2, 27026, Note_off_c, 0, 58, 64
2, 27059, Note_on_c, 0, 73, 73
2, 27081, Note_off_c, 0, 75, 64
2, 27139, Control_c, 0, 64, 0
2, 27151, Note_on_c, 0, 53, 40
2, 27187, Control_c, 0, 64, 127
2, 27209, Note_off_c, 0, 53, 64
2, 27262, Note_off_c, 0, 73, 64
2, 27295, Note_on_c, 0, 68, 40
2, 27300, Note_on_c, 0, 72, 63
2, 27303, Note_on_c, 0, 60, 35
2, 27359, Note_off_c, 0, 68, 64
2, 27360, Note_on_c, 0, 73, 73
2, 27378, Note_off_c, 0, 72, 64
2, 27401, Note_off_c, 0, 60, 64
2, 27437, Note_on_c, 0, 52, 41
2, 27441, Note_off_c, 0, 73, 64
2, 27441, Note_on_c, 0, 72, 69
2, 27477, Note_off_c, 0, 52, 64
2, 27498, Note_on_c, 0, 73, 78
2, 27514, Note_off_c, 0, 72, 64
2, 27571, Note_on_c, 0, 75, 69
2, 27574, Control_c, 0, 64, 0
2, 27579, Note_on_c, 0, 51, 39
2, 27586, Note_off_c, 0, 73, 64
2, 27632, Control_c, 0, 64, 127
2, 27669, Note_off_c, 0, 51, 64
2, 27680, Note_off_c, 0, 75, 64
2, 27722, Note_on_c, 0, 68, 30
2, 27724, Note_on_c, 0, 75, 71
2, 27729, Note_on_c, 0, 60, 39
2, 27800, Note_off_c, 0, 60, 64
2, 27810, Note_off_c, 0, 68, 64
2, 27814, Note_off_c, 0, 75, 64
2, 27862, Note_on_c, 0, 51, 40
2, 27865, Note_on_c, 0, 75, 69
2, 27905, Note_off_c, 0, 51, 64
2, 27960, Note_off_c, 0, 75, 64
2, 28025, Note_on_c, 0, 39, 43
2, 28031, Note_on_c, 0, 75, 64
2, 28031, Control_c, 0, 64, 0
2, 28062, Note_off_c, 0, 39, 64
2, 28071, Control_c, 0, 64, 127
2, 28218, Note_on_c, 0, 61, 33
2, 28221, Note_on_c, 0, 73, 56
2, 28221, Note_on_c, 0, 67, 21
2, 28239, Note_off_c, 0, 75, 64
2, 28268, Note_off_c, 0, 67, 64
2, 28272, Note_off_c, 0, 61, 64
2, 28287, Note_off_c, 0, 73, 64
2, 28291, Note_on_c, 0, 72, 47
2, 28366, Note_on_c, 0, 70, 43
2, 28368, Note_on_c, 0, 55, 40
2, 28371, Note_on_c, 0, 51, 25
2, 28372, Note_on_c, 0, 61, 40
2, 28390, Note_off_c, 0, 72, 64
2, 28406, Note_off_c, 0, 51, 64
2, 28428, Note_off_c, 0, 55, 64
2, 28432, Note_off_c, 0, 61, 64
2, 28446, Note_on_c, 0, 72, 56
2, 28456, Note_off_c, 0, 70, 64
2, 28512, Control_c, 0, 64, 0
2, 28533, Note_on_c, 0, 68, 36
2, 28533, Note_on_c, 0, 44, 36
2, 28562, Control_c, 0, 64, 127
2, 28567, Note_off_c, 0, 44, 64
2, 28583, Note_off_c, 0, 72, 64
2, 28593, Note_off_c, 0, 68, 64
2, 28698, Note_on_c, 0, 63, 39
2, 28704, Note_on_c, 0, 56, 35
2, 28706, Note_on_c, 0, 60, 37
2, 28745, Note_off_c, 0, 60, 64
2, 28745, Note_off_c, 0, 63, 64
2, 28746, Note_off_c, 0, 56, 64
2, 28854, Note_on_c, 0, 51, 43
2, 28861, Note_on_c, 0, 60, 28
2, 28895, Note_off_c, 0, 60, 64
2, 28896, Note_off_c, 0, 51, 64
2, 29013, Control_c, 0, 64, 0
2, 29023, Note_on_c, 0, 44, 50
2, 29061, Control_c, 0, 64, 127
2, 29067, Note_off_c, 0, 44, 64
2, 29199, Note_on_c, 0, 56, 44
2, 29202, Note_on_c, 0, 64, 43
2, 29202, Note_on_c, 0, 60, 47
2, 29249, Note_off_c, 0, 60, 64
2, 29252, Note_off_c, 0, 64, 64
2, 29259, Note_off_c, 0, 56, 64
2, 29362, Note_on_c, 0, 52, 46
2, 29364, Note_on_c, 0, 60, 44
2, 29368, Note_on_c, 0, 56, 44
2, 29392, Note_off_c, 0, 60, 64
2, 29398, Note_off_c, 0, 56, 64
2, 29405, Note_off_c, 0, 52, 64
2, 29594, Note_on_c, 0, 32, 75
2, 29612, Control_c, 0, 64, 0
2, 29690, Control_c, 0, 64, 127
2, 29872, Note_on_c, 0, 68, 43
2, 29872, Note_on_c, 0, 63, 42
2, 29878, Note_on_c, 0, 72, 41
2, 29879, Note_on_c, 0, 75, 73
2, 29926, Note_off_c, 0, 63, 64
2, 29933, Note_off_c, 0, 72, 64
2, 29937, Note_off_c, 0, 68, 64
2, 30044, Note_on_c, 0, 68, 39
2, 30044, Note_on_c, 0, 63, 40
2, 30048, Note_on_c, 0, 60, 28
2, 30053, Note_on_c, 0, 80, 73
2, 30063, Note_off_c, 0, 75, 64
2, 30065, Note_off_c, 0, 68, 64
2, 30072, Note_off_c, 0, 60, 64
2, 30075, Note_off_c, 0, 63, 64
2, 30203, Note_on_c, 0, 79, 63
2, 30209, Note_on_c, 0, 56, 43
2, 30211, Note_off_c, 0, 80, 64
2, 30217, Control_c, 0, 64, 0
2, 30254, Note_off_c, 0, 56, 64
2, 30254, Control_c, 0, 64, 127
2, 30313, Note_off_c, 0, 32, 64
2, 30361, Note_on_c, 0, 70, 33
2, 30364, Note_on_c, 0, 73, 63
2, 30368, Note_on_c, 0, 67, 39
2, 30368, Note_on_c, 0, 64, 40
2, 30385, Note_off_c, 0, 79, 64
2, 30414, Note_off_c, 0, 64, 64
2, 30416, Note_off_c, 0, 67, 64
2, 30419, Note_off_c, 0, 70, 64
2, 30525, Note_on_c, 0, 76, 67
2, 30527, Note_on_c, 0, 61, 25
2, 30531, Note_on_c, 0, 67, 33
2, 30540, Note_off_c, 0, 73, 64
2, 30567, Note_off_c, 0, 67, 64
2, 30567, Note_off_c, 0, 61, 64
2, 30694, Control_c, 0, 64, 0
2, 30702, Note_on_c, 0, 44, 47
2, 30735, Control_c, 0, 64, 127
2, 30743, Note_off_c, 0, 44, 64
2, 30850, Note_on_c, 0, 75, 62
2, 30854, Note_on_c, 0, 68, 40
2, 30854, Note_on_c, 0, 63, 33
2, 30860, Note_on_c, 0, 72, 26
2, 30864, Note_off_c, 0, 76, 64
2, 30905, Note_off_c, 0, 68, 64
2, 30911, Note_off_c, 0, 63, 64
2, 30918, Note_off_c, 0, 72, 64
2, 30996, Note_on_c, 0, 68, 39
2, 30997, Note_on_c, 0, 80, 68
2, 30997, Note_on_c, 0, 60, 40
2, 31001, Note_on_c, 0, 63, 37
2, 31015, Note_off_c, 0, 75, 64
2, 31021, Note_off_c, 0, 68, 64
2, 31026, Note_off_c, 0, 63, 64
2, 31032, Note_off_c, 0, 60, 64
2, 31138, Control_c, 0, 64, 0
2, 31150, Note_on_c, 0, 56, 43
2, 31187, Control_c, 0, 64, 127
2, 31193, Note_off_c, 0, 56, 64
2, 31213, Note_on_c, 0, 79, 64
2, 31225, Note_off_c, 0, 80, 64
2, 31282, Note_on_c, 0, 70, 47
2, 31288, Note_on_c, 0, 64, 42
2, 31289, Note_off_c, 0, 79, 64
2, 31289, Note_on_c, 0, 73, 73
2, 31289, Note_on_c, 0, 67, 40
2, 31329, Note_off_c, 0, 64, 64
2, 31333, Note_off_c, 0, 67, 64
2, 31335, Note_off_c, 0, 70, 64
2, 31356, Note_on_c, 0, 75, 61
2, 31371, Note_off_c, 0, 73, 64
2, 31450, Note_on_c, 0, 78, 65
2, 31456, Note_off_c, 0, 75, 64
2, 31456, Note_on_c, 0, 61, 33
2, 31462, Note_on_c, 0, 67, 45
2, 31462, Note_on_c, 0, 58, 35
2, 31493, Note_off_c, 0, 67, 64
2, 31500, Note_off_c, 0, 58, 64
2, 31503, Note_off_c, 0, 61, 64
2, 31547, Note_off_c, 0, 78, 64
2, 31549, Note_on_c, 0, 76, 55
2, 31602, Note_off_c, 0, 76, 64
2, 31627, Control_c, 0, 64, 0
2, 31644, Note_on_c, 0, 44, 50
2, 31675, Control_c, 0, 64, 127
2, 31739, Note_off_c, 0, 44, 64
2, 31815, Note_on_c, 0, 68, 40
2, 31821, Note_on_c, 0, 75, 67
2, 31825, Note_on_c, 0, 72, 53
2, 31890, Note_on_c, 0, 77, 62
2, 31897, Note_off_c, 0, 75, 64
2, 31903, Note_off_c, 0, 68, 64
2, 31909, Note_off_c, 0, 72, 64
2, 31960, Note_on_c, 0, 60, 43
2, 31963, Note_on_c, 0, 75, 74
2, 31967, Note_on_c, 0, 68, 39
2, 31967, Note_on_c, 0, 63, 36
2, 31975, Note_off_c, 0, 77, 64
2, 31999, Note_off_c, 0, 63, 64
2, 31999, Note_off_c, 0, 68, 64
2, 32000, Note_off_c, 0, 60, 64
2, 32034, Note_on_c, 0, 77, 64
2, 32039, Note_off_c, 0, 75, 64
2, 32112, Note_on_c, 0, 78, 67
2, 32112, Control_c, 0, 64, 0
2, 32118, Note_on_c, 0, 39, 43
2, 32127, Note_off_c, 0, 77, 64
2, 32165, Control_c, 0, 64, 127
2, 32205, Note_off_c, 0, 78, 64
2, 32209, Note_off_c, 0, 39, 64
2, 32267, Note_on_c, 0, 70, 50
2, 32272, Note_on_c, 0, 63, 42
2, 32274, Note_on_c, 0, 78, 77
2, 32278, Note_on_c, 0, 66, 31
2, 32323, Note_off_c, 0, 70, 64
2, 32336, Note_off_c, 0, 66, 64
2, 32340, Note_off_c, 0, 63, 64
2, 32346, Note_off_c, 0, 78, 64
2, 32405, Note_on_c, 0, 58, 35
2, 32411, Note_on_c, 0, 66, 33
2, 32414, Note_on_c, 0, 78, 83
2, 32415, Note_on_c, 0, 63, 36
2, 32443, Note_off_c, 0, 66, 64
2, 32447, Note_off_c, 0, 63, 64
2, 32460, Note_off_c, 0, 58, 64
2, 32508, Note_off_c, 0, 78, 64
2, 32572, Note_on_c, 0, 78, 71
2, 32581, Note_on_c, 0, 41, 43
2, 32584, Control_c, 0, 64, 0
2, 32634, Control_c, 0, 64, 127
2, 32667, Note_off_c, 0, 78, 64
2, 32680, Note_off_c, 0, 41, 64
2, 32759, Note_on_c, 0, 63, 33
2, 32763, Note_on_c, 0, 77, 58
2, 32766, Note_on_c, 0, 65, 36
2, 32770, Note_on_c, 0, 69, 26
2, 32818, Note_off_c, 0, 69, 64
2, 32819, Note_off_c, 0, 63, 64
2, 32822, Note_off_c, 0, 65, 64
2, 32829, Note_on_c, 0, 72, 49
2, 32853, Note_off_c, 0, 77, 64
2, 32902, Note_on_c, 0, 75, 54
2, 32904, Note_on_c, 0, 63, 30
2, 32905, Note_on_c, 0, 57, 34
2, 32909, Note_on_c, 0, 65, 26
2, 32928, Note_off_c, 0, 63, 64
2, 32931, Note_off_c, 0, 72, 64
2, 32938, Note_off_c, 0, 57, 64
2, 32941, Note_off_c, 0, 65, 64
2, 32968, Note_on_c, 0, 73, 56
2, 32980, Note_off_c, 0, 75, 64
2, 33048, Note_on_c, 0, 70, 47
2, 33051, Note_off_c, 0, 73, 64
2, 33054, Note_on_c, 0, 46, 39
2, 33057, Control_c, 0, 64, 0
2, 33106, Control_c, 0, 64, 127
2, 33144, Note_off_c, 0, 46, 64
2, 33219, Note_on_c, 0, 58, 27
2, 33224, Note_on_c, 0, 61, 20
2, 33228, Note_on_c, 0, 65, 18
2, 33260, Note_off_c, 0, 65, 64
2, 33271, Note_off_c, 0, 58, 64
2, 33275, Note_off_c, 0, 61, 64
2, 33385, Note_on_c, 0, 61, 23
2, 33387, Note_on_c, 0, 58, 22
2, 33399, Note_on_c, 0, 53, 34
2, 33429, Note_off_c, 0, 61, 64
2, 33430, Note_off_c, 0, 58, 64
2, 33435, Note_off_c, 0, 53, 64
2, 33587, Note_on_c, 0, 42, 49
2, 33593, Control_c, 0, 64, 0
2, 33647, Control_c, 0, 64, 127
2, 33654, Note_off_c, 0, 70, 64
2, 33665, Note_off_c, 0, 42, 64
2, 33779, Note_on_c, 0, 73, 48
2, 33781, Note_on_c, 0, 66, 19
2, 33785, Note_on_c, 0, 58, 30
2, 33791, Note_on_c, 0, 61, 20
2, 33846, Note_off_c, 0, 61, 64
2, 33855, Note_off_c, 0, 58, 64
2, 33855, Note_off_c, 0, 66, 64
2, 33866, Note_off_c, 0, 73, 64
2, 33866, Note_on_c, 0, 75, 46
2, 33938, Note_on_c, 0, 61, 39
2, 33944, Note_on_c, 0, 54, 25
2, 33945, Note_on_c, 0, 73, 73
2, 33945, Note_on_c, 0, 58, 36
2, 33956, Note_off_c, 0, 75, 64
2, 33968, Note_off_c, 0, 61, 64
2, 33975, Note_off_c, 0, 58, 64
2, 33981, Note_off_c, 0, 54, 64
2, 34016, Note_on_c, 0, 75, 62
2, 34035, Note_off_c, 0, 73, 64
2, 34090, Control_c, 0, 64, 0
2, 34100, Note_on_c, 0, 77, 54
2, 34100, Note_on_c, 0, 37, 49
2, 34115, Note_off_c, 0, 75, 64
2, 34159, Control_c, 0, 64, 127
2, 34165, Note_off_c, 0, 37, 64
2, 34203, Note_off_c, 0, 77, 64
2, 34252, Note_on_c, 0, 61, 40
2, 34254, Note_on_c, 0, 65, 40
2, 34255, Note_on_c, 0, 77, 64
2, 34262, Note_on_c, 0, 56, 25
2, 34299, Note_off_c, 0, 65, 64
2, 34313, Note_off_c, 0, 61, 64
2, 34314, Note_off_c, 0, 56, 64
2, 34344, Note_off_c, 0, 77, 64
2, 34409, Note_on_c, 0, 77, 67
2, 34413, Note_on_c, 0, 61, 19
2, 34417, Note_on_c, 0, 53, 33
2, 34420, Note_on_c, 0, 56, 34
2, 34448, Note_off_c, 0, 53, 64
2, 34453, Note_off_c, 0, 61, 64
2, 34463, Note_off_c, 0, 56, 64
2, 34516, Note_off_c, 0, 77, 64
2, 34602, Note_on_c, 0, 39, 44
2, 34620, Note_on_c, 0, 77, 67
2, 34620, Control_c, 0, 64, 0
2, 34675, Control_c, 0, 64, 127
2, 34683, Note_off_c, 0, 39, 64
2, 34807, Note_on_c, 0, 75, 56
2, 34808, Note_on_c, 0, 60, 40
2, 34813, Note_on_c, 0, 58, 37
2, 34815, Note_on_c, 0, 66, 20
2, 34837, Note_off_c, 0, 77, 64
2, 34862, Note_off_c, 0, 66, 64
2, 34868, Note_off_c, 0, 60, 64
2, 34879, Note_off_c, 0, 58, 64
2, 34882, Note_on_c, 0, 70, 62
2, 34889, Note_off_c, 0, 75, 64
2, 34956, Note_on_c, 0, 63, 30
2, 34960, Note_on_c, 0, 54, 40
2, 34962, Note_on_c, 0, 73, 49
2, 34967, Note_on_c, 0, 58, 25
2, 34977, Note_off_c, 0, 70, 64
2, 34996, Note_off_c, 0, 63, 64
2, 35008, Note_off_c, 0, 58, 64
2, 35020, Note_off_c, 0, 54, 64
2, 35023, Note_off_c, 0, 73, 64
2, 35026, Note_on_c, 0, 72, 62
2, 35104, Control_c, 0, 64, 0
2, 35108, Note_on_c, 0, 69, 56
2, 35113, Note_on_c, 0, 41, 40
2, 35117, Note_off_c, 0, 72, 64
2, 35155, Control_c, 0, 64, 127
2, 35175, Note_off_c, 0, 41, 64
2, 35189, Note_off_c, 0, 69, 64
2, 35275, Note_on_c, 0, 72, 58
2, 35281, Note_on_c, 0, 60, 22
2, 35282, Note_on_c, 0, 65, 31
2, 35285, Note_on_c, 0, 69, 25
2, 35341, Note_off_c, 0, 69, 64
2, 35347, Note_off_c, 0, 65, 64
2, 35348, Note_off_c, 0, 60, 64
2, 35431, Note_on_c, 0, 77, 58
2, 35442, Note_on_c, 0, 65, 20
2, 35442, Note_on_c, 0, 57, 27
2, 35448, Note_on_c, 0, 60, 25
2, 35461, Note_off_c, 0, 72, 64
2, 35567, Note_off_c, 0, 57, 64
2, 35568, Control_c, 0, 64, 0
2, 35578, Note_off_c, 0, 60, 64
2, 35581, Note_on_c, 0, 76, 62
2, 35581, Note_on_c, 0, 53, 36
2, 35595, Note_off_c, 0, 77, 64
2, 35618, Note_off_c, 0, 65, 64
2, 35623, Control_c, 0, 64, 127
2, 35626, Note_off_c, 0, 53, 64
2, 35730, Note_on_c, 0, 67, 27
2, 35730, Note_on_c, 0, 64, 25
2, 35731, Note_on_c, 0, 61, 27
2, 35735, Note_on_c, 0, 70, 40
2, 35743, Note_off_c, 0, 76, 64
2, 35778, Note_off_c, 0, 67, 64
2, 35782, Note_off_c, 0, 64, 64
2, 35794, Note_off_c, 0, 61, 64
2, 35884, Note_on_c, 0, 73, 60
2, 35884, Note_on_c, 0, 58, 26
2, 35886, Note_on_c, 0, 64, 30
2, 35892, Note_on_c, 0, 61, 21
2, 35905, Note_off_c, 0, 70, 64
2, 35916, Note_off_c, 0, 64, 64
2, 35918, Note_off_c, 0, 61, 64
2, 35921, Note_off_c, 0, 58, 64
2, 36027, Control_c, 0, 64, 0
2, 36042, Note_on_c, 0, 41, 43
2, 36083, Control_c, 0, 64, 127
2, 36114, Note_off_c, 0, 41, 64
2, 36194, Note_on_c, 0, 72, 57
2, 36196, Note_on_c, 0, 69, 29
2, 36199, Note_on_c, 0, 60, 28
2, 36205, Note_on_c, 0, 65, 25
2, 36210, Note_off_c, 0, 73, 64
2, 36249, Note_off_c, 0, 65, 64
2, 36249, Note_off_c, 0, 69, 64
2, 36251, Note_off_c, 0, 60, 64
2, 36340, Note_on_c, 0, 77, 47
2, 36353, Note_on_c, 0, 57, 21
2, 36356, Note_on_c, 0, 65, 21
2, 36360, Note_on_c, 0, 60, 25
2, 36364, Note_off_c, 0, 72, 64
2, 36480, Control_c, 0, 64, 0
2, 36501, Note_on_c, 0, 53, 41
2, 36520, Note_off_c, 0, 57, 64
2, 36537, Note_off_c, 0, 60, 64
2, 36538, Control_c, 0, 64, 127
2, 36548, Note_off_c, 0, 53, 64
2, 36550, Note_off_c, 0, 65, 64
2, 36568, Note_on_c, 0, 76, 61
2, 36573, Note_off_c, 0, 77, 64
2, 36636, Note_on_c, 0, 70, 43
2, 36642, Note_on_c, 0, 61, 30
2, 36648, Note_on_c, 0, 67, 21
2, 36650, Note_off_c, 0, 76, 64
2, 36654, Note_on_c, 0, 64, 18
2, 36691, Note_off_c, 0, 64, 64
2, 36697, Note_off_c, 0, 67, 64
2, 36702, Note_off_c, 0, 61, 64
2, 36712, Note_on_c, 0, 72, 69
2, 36728, Note_off_c, 0, 70, 64
2, 36780, Note_on_c, 0, 64, 29
2, 36783, Note_on_c, 0, 58, 30
2, 36787, Note_on_c, 0, 75, 61
2, 36789, Note_on_c, 0, 61, 20
2, 36798, Note_off_c, 0, 72, 64
2, 36807, Note_off_c, 0, 64, 64
2, 36810, Note_off_c, 0, 61, 64
2, 36815, Note_off_c, 0, 58, 64
2, 36852, Note_on_c, 0, 73, 67
2, 36870, Note_off_c, 0, 75, 64
2, 36939, Control_c, 0, 64, 0
2, 36947, Note_off_c, 0, 73, 64
2, 36947, Note_on_c, 0, 41, 57
2, 36988, Control_c, 0, 64, 127
2, 37012, Note_off_c, 0, 41, 64
2, 37138, Note_on_c, 0, 72, 58
2, 37138, Note_on_c, 0, 66, 26
2, 37143, Note_on_c, 0, 60, 31
2, 37144, Note_on_c, 0, 63, 28
2, 37187, Note_off_c, 0, 66, 64
2, 37191, Note_off_c, 0, 63, 64
2, 37192, Note_off_c, 0, 60, 64
2, 37209, Note_on_c, 0, 73, 62
2, 37211, Note_off_c, 0, 72, 64
2, 37282, Note_on_c, 0, 54, 18
2, 37284, Note_on_c, 0, 72, 69
2, 37288, Note_off_c, 0, 73, 64
2, 37288, Note_on_c, 0, 63, 24
2, 37293, Note_on_c, 0, 58, 23
2, 37338, Note_on_c, 0, 73, 71
2, 37343, Note_off_c, 0, 54, 64
2, 37356, Note_off_c, 0, 58, 64
2, 37358, Note_off_c, 0, 72, 64
2, 37378, Note_off_c, 0, 63, 64
2, 37387, Control_c, 0, 64, 0
2, 37406, Note_on_c, 0, 75, 58
2, 37421, Note_on_c, 0, 53, 35
2, 37422, Note_off_c, 0, 73, 64
2, 37447, Control_c, 0, 64, 127
2, 37460, Note_off_c, 0, 53, 64
2, 37515, Note_off_c, 0, 75, 64
2, 37554, Note_on_c, 0, 70, 28
2, 37558, Note_on_c, 0, 63, 34
2, 37561, Note_on_c, 0, 75, 58
2, 37562, Note_on_c, 0, 66, 26
2, 37616, Note_off_c, 0, 63, 64
2, 37626, Note_off_c, 0, 66, 64
2, 37628, Note_off_c, 0, 70, 64
2, 37641, Note_off_c, 0, 75, 64
2, 37705, Note_on_c, 0, 75, 73
2, 37710, Note_on_c, 0, 66, 26
2, 37717, Note_on_c, 0, 63, 25
2, 37717, Note_on_c, 0, 60, 16
2, 37748, Note_off_c, 0, 63, 64
2, 37748, Note_off_c, 0, 66, 64
2, 37760, Note_off_c, 0, 60, 64
2, 37809, Note_off_c, 0, 75, 64
2, 37888, Note_on_c, 0, 75, 64
2, 37893, Note_on_c, 0, 41, 49
2, 37894, Control_c, 0, 64, 0
2, 37941, Control_c, 0, 64, 127
2, 37949, Note_off_c, 0, 41, 64
2, 38080, Note_on_c, 0, 77, 48
2, 38085, Note_on_c, 0, 63, 18
2, 38088, Note_on_c, 0, 69, 16
2, 38107, Note_off_c, 0, 75, 64
2, 38138, Note_off_c, 0, 69, 64
2, 38144, Note_off_c, 0, 63, 64
2, 38166, Note_on_c, 0, 72, 57
2, 38189, Note_off_c, 0, 77, 64
2, 38250, Note_on_c, 0, 75, 48
2, 38260, Note_on_c, 0, 65, 19
2, 38261, Note_on_c, 0, 57, 15
2, 38263, Note_off_c, 0, 72, 64
2, 38264, Note_on_c, 0, 63, 20
2, 38298, Note_off_c, 0, 57, 64
2, 38301, Note_off_c, 0, 63, 64
2, 38320, Note_off_c, 0, 65, 64
2, 38321, Note_on_c, 0, 73, 58
2, 38336, Note_off_c, 0, 75, 64
2, 38418, Note_on_c, 0, 70, 53
2, 38423, Control_c, 0, 64, 0
2, 38428, Note_off_c, 0, 73, 64
2, 38428, Note_on_c, 0, 46, 26
2, 38481, Control_c, 0, 64, 127
2, 38621, Note_on_c, 0, 58, 23
2, 38622, Note_on_c, 0, 65, 18
2, 38626, Note_on_c, 0, 61, 18
2, 38687, Note_off_c, 0, 61, 64
2, 38687, Note_off_c, 0, 58, 64
2, 38697, Note_off_c, 0, 65, 64
2, 38772, Note_on_c, 0, 61, 21
2, 38777, Note_on_c, 0, 58, 25
2, 38783, Note_on_c, 0, 53, 19
2, 38826, Note_off_c, 0, 53, 64
2, 38826, Note_off_c, 0, 58, 64
2, 38830, Note_off_c, 0, 61, 64
2, 38919, Note_on_c, 0, 58, 39
2, 38922, Note_on_c, 0, 66, 26
2, 38925, Note_on_c, 0, 61, 28
2, 38973, Note_off_c, 0, 61, 64
2, 38973, Note_off_c, 0, 58, 64
2, 38982, Note_off_c, 0, 66, 64
2, 39062, Note_on_c, 0, 58, 34
2, 39071, Note_on_c, 0, 65, 24
2, 39071, Note_on_c, 0, 61, 20
2, 39075, Note_off_c, 0, 70, 64
2, 39085, Note_off_c, 0, 46, 64
2, 39109, Note_off_c, 0, 61, 64
2, 39109, Note_off_c, 0, 65, 64
2, 39111, Note_off_c, 0, 58, 64
2, 39207, Note_on_c, 0, 61, 24
2, 39208, Note_on_c, 0, 58, 30
2, 39210, Note_on_c, 0, 53, 30
2, 39243, Note_off_c, 0, 61, 64
2, 39244, Note_off_c, 0, 58, 64
2, 39249, Note_off_c, 0, 53, 64
2, 39358, Note_on_c, 0, 53, 28
2, 39359, Note_on_c, 0, 58, 26
2, 39364, Note_on_c, 0, 49, 19
2, 39504, Control_c, 0, 64, 0
2, 39515, Note_on_c, 0, 46, 44
2, 39516, Note_on_c, 0, 34, 41
2, 39551, Control_c, 0, 64, 127
2, 39593, Note_off_c, 0, 46, 64
2, 39594, Note_off_c, 0, 34, 64
2, 39635, Note_off_c, 0, 49, 64
2, 39668, Note_on_c, 0, 32, 41
2, 39671, Note_on_c, 0, 44, 46
2, 39728, Note_off_c, 0, 53, 64
2, 39762, Note_off_c, 0, 58, 64
2, 39793, Note_off_c, 0, 32, 64
2, 39796, Note_off_c, 0, 44, 64
2, 39807, Control_c, 0, 64, 0
2, 39812, Note_on_c, 0, 30, 41
2, 39817, Note_on_c, 0, 42, 48
2, 39847, Control_c, 0, 64, 127
2, 39912, Note_off_c, 0, 30, 64
2, 39917, Note_off_c, 0, 42, 64
2, 39963, Note_on_c, 0, 37, 33
2, 39970, Note_on_c, 0, 49, 43
2, 40063, Note_off_c, 0, 37, 64
2, 40070, Note_off_c, 0, 49, 64
2, 40117, Note_on_c, 0, 54, 45
2, 40117, Note_on_c, 0, 42, 46
2, 40202, Note_off_c, 0, 42, 64
2, 40217, Note_off_c, 0, 54, 64
2, 40266, Note_on_c, 0, 46, 23
2, 40268, Note_on_c, 0, 58, 27
2, 40271, Note_on_c, 0, 78, 49
2, 40274, Note_on_c, 0, 70, 49
2, 40279, Note_on_c, 0, 66, 26
2, 40298, Control_c, 0, 64, 0
2, 40335, Control_c, 0, 64, 127
2, 40386, Note_off_c, 0, 46, 64
2, 40388, Note_off_c, 0, 58, 64
2, 40452, Note_on_c, 0, 63, 18
2, 40458, Note_on_c, 0, 51, 29
2, 40572, Note_off_c, 0, 63, 64
2, 40578, Note_off_c, 0, 51, 64
2, 40578, Note_off_c, 0, 70, 64
2, 40582, Note_off_c, 0, 66, 64
2, 40587, Note_off_c, 0, 78, 64
2, 40623, Note_on_c, 0, 78, 49
2, 40629, Note_on_c, 0, 70, 49
2, 40630, Note_on_c, 0, 66, 24
2, 40634, Note_on_c, 0, 78, 25
2, 40636, Note_on_c, 0, 58, 41
2, 40636, Note_on_c, 0, 46, 41
2, 40712, Note_off_c, 0, 78, 64
2, 40734, Note_off_c, 0, 66, 64
2, 40734, Note_off_c, 0, 70, 64
2, 40739, Note_off_c, 0, 78, 64
2, 40756, Note_off_c, 0, 46, 64
2, 40756, Note_off_c, 0, 58, 64
2, 40828, Note_on_c, 0, 78, 44
2, 40836, Note_on_c, 0, 70, 48
2, 40836, Note_on_c, 0, 66, 23
2, 40836, Note_on_c, 0, 61, 37
2, 40836, Note_on_c, 0, 49, 38
2, 40853, Control_c, 0, 64, 0
2, 40907, Control_c, 0, 64, 127
2, 40941, Note_off_c, 0, 49, 64
2, 40956, Note_off_c, 0, 61, 64
2, 40990, Note_on_c, 0, 63, 41
2, 40992, Note_on_c, 0, 51, 33
2, 41110, Note_off_c, 0, 63, 64
2, 41112, Note_off_c, 0, 51, 64
2, 41116, Note_on_c, 0, 58, 24
2, 41120, Note_on_c, 0, 46, 38
2, 41223, Note_off_c, 0, 46, 64
2, 41236, Note_off_c, 0, 58, 64
2, 41248, Note_on_c, 0, 61, 40
2, 41248, Note_on_c, 0, 49, 34
2, 41368, Note_off_c, 0, 49, 64
2, 41368, Note_off_c, 0, 61, 64
2, 41371, Note_on_c, 0, 44, 44
2, 41375, Note_on_c, 0, 56, 24
2, 41477, Note_off_c, 0, 44, 64
2, 41494, Note_on_c, 0, 46, 46
2, 41495, Note_off_c, 0, 56, 64
2, 41498, Note_on_c, 0, 58, 43
2, 41614, Note_off_c, 0, 46, 64
2, 41618, Note_off_c, 0, 58, 64
2, 41620, Note_on_c, 0, 54, 53
2, 41620, Note_on_c, 0, 42, 36
2, 41740, Note_off_c, 0, 42, 64
2, 41740, Note_off_c, 0, 54, 64
2, 41741, Note_on_c, 0, 51, 49
2, 41747, Note_on_c, 0, 39, 45
2, 41861, Note_off_c, 0, 51, 64
2, 41867, Note_off_c, 0, 39, 64
2, 41876, Note_on_c, 0, 34, 49
2, 41880, Note_on_c, 0, 46, 53
2, 41949, Note_off_c, 0, 78, 64
2, 41954, Note_off_c, 0, 66, 64
2, 41954, Note_off_c, 0, 70, 64
2, 41996, Note_off_c, 0, 34, 64
2, 42000, Note_off_c, 0, 46, 64
2, 42002, Note_on_c, 0, 70, 53
2, 42008, Note_on_c, 0, 78, 56
2, 42008, Note_on_c, 0, 66, 42
2, 42008, Note_on_c, 0, 37, 49
2, 42011, Note_on_c, 0, 49, 54
2, 42023, Control_c, 0, 64, 0
2, 42070, Control_c, 0, 64, 127
2, 42140, Note_on_c, 0, 32, 49
2, 42141, Note_on_c, 0, 44, 49
2, 42153, Note_off_c, 0, 37, 64
2, 42156, Note_off_c, 0, 49, 64
2, 42195, Note_off_c, 0, 66, 64
2, 42196, Note_off_c, 0, 70, 64
2, 42213, Note_off_c, 0, 78, 64
2, 42248, Note_off_c, 0, 32, 64
2, 42249, Note_off_c, 0, 44, 64
2, 42256, Note_on_c, 0, 78, 51
2, 42257, Note_on_c, 0, 66, 43
2, 42262, Note_on_c, 0, 70, 52
2, 42268, Note_on_c, 0, 46, 46
2, 42272, Note_on_c, 0, 34, 49
2, 42322, Note_off_c, 0, 70, 64
2, 42329, Note_off_c, 0, 66, 64
2, 42336, Note_off_c, 0, 78, 64
2, 42388, Note_off_c, 0, 46, 64
2, 42391, Note_on_c, 0, 78, 57
2, 42391, Note_on_c, 0, 66, 40
2, 42391, Note_on_c, 0, 42, 49
2, 42392, Note_off_c, 0, 34, 64
2, 42392, Note_on_c, 0, 30, 49
2, 42396, Note_on_c, 0, 70, 52
2, 42397, Control_c, 0, 64, 0
2, 42439, Control_c, 0, 64, 127
2, 42511, Note_off_c, 0, 42, 64
2, 42512, Note_off_c, 0, 30, 64
2, 42528, Note_on_c, 0, 51, 28
2, 42530, Note_on_c, 0, 63, 43
2, 42658, Note_off_c, 0, 51, 64
2, 42660, Note_off_c, 0, 63, 64
2, 42663, Note_on_c, 0, 58, 43
2, 42669, Note_on_c, 0, 46, 43
2, 42711, Note_off_c, 0, 78, 64
2, 42717, Note_off_c, 0, 70, 64
2, 42741, Note_off_c, 0, 66, 64
2, 42788, Note_off_c, 0, 58, 64
2, 42794, Note_off_c, 0, 46, 64
2, 42818, Note_on_c, 0, 68, 49
2, 42818, Note_on_c, 0, 61, 41
2, 42818, Note_on_c, 0, 49, 27
2, 42822, Note_on_c, 0, 77, 54
2, 42829, Note_on_c, 0, 65, 27
2, 42835, Control_c, 0, 64, 0
2, 42872, Control_c, 0, 64, 127
2, 42938, Note_off_c, 0, 49, 64
2, 42938, Note_off_c, 0, 61, 64
2, 42959, Note_on_c, 0, 44, 38
2, 42960, Note_on_c, 0, 56, 43
2, 43080, Note_off_c, 0, 56, 64
2, 43081, Note_off_c, 0, 44, 64
2, 43092, Note_on_c, 0, 58, 43
2, 43092, Note_on_c, 0, 46, 33
2, 43130, Note_off_c, 0, 77, 64
2, 43151, Note_off_c, 0, 68, 64
2, 43164, Note_off_c, 0, 65, 64
2, 43212, Note_off_c, 0, 46, 64
2, 43212, Note_off_c, 0, 58, 64
2, 43271, Note_on_c, 0, 47, 36
2, 43272, Note_on_c, 0, 59, 32
2, 43273, Note_on_c, 0, 68, 49
2, 43274, Note_on_c, 0, 76, 51
2, 43274, Note_on_c, 0, 64, 37
2, 43291, Control_c, 0, 64, 0
2, 43338, Control_c, 0, 64, 127
2, 43411, Note_off_c, 0, 47, 64
2, 43412, Note_off_c, 0, 59, 64
2, 43480, Note_on_c, 0, 35, 43
2, 43484, Note_on_c, 0, 47, 41
2, 43624, Note_on_c, 0, 52, 42
2, 43624, Note_on_c, 0, 40, 42
2, 43634, Note_off_c, 0, 35, 64
2, 43664, Note_off_c, 0, 47, 64
2, 43696, Note_off_c, 0, 76, 64
2, 43698, Note_off_c, 0, 68, 64
2, 43708, Note_off_c, 0, 64, 64
2, 43755, Note_on_c, 0, 68, 39
2, 43758, Note_on_c, 0, 76, 48
2, 43758, Note_on_c, 0, 64, 32
2, 43758, Note_on_c, 0, 44, 46
2, 43763, Note_on_c, 0, 56, 48
2, 43775, Control_c, 0, 64, 0
2, 43776, Note_off_c, 0, 40, 64
2, 43776, Note_off_c, 0, 52, 64
2, 43803, Control_c, 0, 64, 127
2, 43878, Note_off_c, 0, 44, 64
2, 43888, Note_on_c, 0, 49, 43
2, 43894, Note_on_c, 0, 61, 52
2, 43914, Note_off_c, 0, 56, 64
2, 43956, Note_off_c, 0, 68, 64
2, 43969, Note_off_c, 0, 76, 64
2, 43979, Note_off_c, 0, 64, 64
2, 44005, Note_on_c, 0, 68, 49
2, 44005, Note_on_c, 0, 64, 30
2, 44008, Note_on_c, 0, 56, 53
2, 44012, Note_on_c, 0, 76, 48
2, 44016, Note_on_c, 0, 44, 36
2, 44039, Note_off_c, 0, 49, 64
2, 44045, Note_off_c, 0, 61, 64
2, 44072, Note_off_c, 0, 64, 64
2, 44075, Note_off_c, 0, 68, 64
2, 44078, Note_off_c, 0, 76, 64
2, 44131, Note_on_c, 0, 68, 53
2, 44137, Note_on_c, 0, 76, 52
2, 44137, Note_on_c, 0, 64, 40
2, 44137, Control_c, 0, 64, 0
2, 44140, Note_on_c, 0, 59, 49
2, 44145, Note_on_c, 0, 47, 43
2, 44159, Note_off_c, 0, 56, 64
2, 44167, Note_off_c, 0, 44, 64
2, 44181, Control_c, 0, 64, 127
2, 44260, Note_on_c, 0, 61, 47
2, 44264, Note_on_c, 0, 49, 43
2, 44266, Note_on_c, 0, 85, 31
2, 44292, Note_off_c, 0, 59, 64
2, 44298, Note_off_c, 0, 47, 64
2, 44351, Note_off_c, 0, 85, 64
2, 44361, Note_on_c, 0, 56, 53
2, 44367, Note_on_c, 0, 44, 36
2, 44410, Note_off_c, 0, 61, 64
2, 44414, Note_off_c, 0, 49, 64
2, 44460, Control_c, 0, 64, 0
2, 44480, Note_on_c, 0, 59, 48
2, 44483, Note_on_c, 0, 47, 37
2, 44511, Control_c, 0, 64, 127
2, 44513, Note_off_c, 0, 56, 64
2, 44519, Note_off_c, 0, 44, 64
2, 44599, Note_on_c, 0, 54, 39
2, 44603, Note_on_c, 0, 42, 51
2, 44631, Note_off_c, 0, 59, 64
2, 44634, Note_off_c, 0, 47, 64
2, 44706, Note_on_c, 0, 56, 42
2, 44712, Note_on_c, 0, 44, 37
2, 44751, Note_off_c, 0, 54, 64
2, 44756, Note_off_c, 0, 42, 64
2, 44821, Note_on_c, 0, 52, 42
2, 44823, Note_on_c, 0, 40, 50
2, 44857, Note_off_c, 0, 56, 64
2, 44865, Note_off_c, 0, 44, 64
2, 44923, Control_c, 0, 64, 0
2, 44932, Note_on_c, 0, 37, 43
2, 44937, Note_on_c, 0, 49, 58
2, 44963, Control_c, 0, 64, 127
2, 44973, Note_off_c, 0, 52, 64
2, 44975, Note_off_c, 0, 40, 64
2, 45048, Note_on_c, 0, 32, 43
2, 45050, Note_on_c, 0, 44, 49
2, 45081, Note_off_c, 0, 68, 64
2, 45085, Note_off_c, 0, 37, 64
2, 45089, Note_off_c, 0, 49, 64
2, 45099, Note_off_c, 0, 64, 64
2, 45099, Note_off_c, 0, 76, 64
2, 45165, Control_c, 0, 64, 0
2, 45169, Note_on_c, 0, 47, 46
2, 45172, Note_on_c, 0, 35, 43
2, 45175, Note_on_c, 0, 68, 49
2, 45179, Note_on_c, 0, 76, 45
2, 45179, Note_on_c, 0, 64, 39
2, 45201, Note_off_c, 0, 32, 64
2, 45203, Note_off_c, 0, 44, 64
2, 45228, Control_c, 0, 64, 127
2, 45300, Note_on_c, 0, 42, 46
2, 45300, Note_on_c, 0, 30, 43
2, 45324, Note_off_c, 0, 68, 64
2, 45329, Note_off_c, 0, 76, 64
2, 45329, Note_off_c, 0, 47, 64
2, 45331, Note_off_c, 0, 64, 64
2, 45332, Note_off_c, 0, 35, 64
2, 45413, Note_on_c, 0, 68, 49
2, 45414, Note_on_c, 0, 64, 36
2, 45417, Note_on_c, 0, 44, 30
2, 45418, Note_on_c, 0, 76, 43
2, 45420, Note_on_c, 0, 32, 43
2, 45460, Note_off_c, 0, 42, 64
2, 45461, Note_off_c, 0, 30, 64
2, 45464, Note_off_c, 0, 68, 64
2, 45468, Note_off_c, 0, 64, 64
2, 45473, Note_off_c, 0, 76, 64
2, 45519, Control_c, 0, 64, 0
2, 45530, Note_on_c, 0, 40, 46
2, 45532, Note_on_c, 0, 28, 43
2, 45538, Note_on_c, 0, 68, 44
2, 45539, Note_on_c, 0, 76, 43
2, 45539, Note_on_c, 0, 64, 34
2, 45568, Control_c, 0, 64, 127
2, 45577, Note_off_c, 0, 44, 64
2, 45580, Note_off_c, 0, 32, 64
2, 45662, Note_on_c, 0, 49, 45
2, 45665, Note_on_c, 0, 61, 46
2, 45690, Note_off_c, 0, 40, 64
2, 45693, Note_off_c, 0, 28, 64
2, 45790, Note_on_c, 0, 56, 50
2, 45795, Note_on_c, 0, 44, 52
2, 45823, Note_off_c, 0, 49, 64
2, 45827, Note_off_c, 0, 61, 64
2, 45844, Note_off_c, 0, 76, 64
2, 45861, Note_off_c, 0, 64, 64
2, 45870, Note_off_c, 0, 68, 64
2, 45934, Note_on_c, 0, 47, 43
2, 45937, Note_on_c, 0, 59, 42
2, 45938, Note_on_c, 0, 75, 44
2, 45938, Note_on_c, 0, 68, 45
2, 45938, Note_on_c, 0, 63, 34
2, 45952, Note_off_c, 0, 56, 64
2, 45953, Control_c, 0, 64, 0
2, 45956, Note_off_c, 0, 44, 64
2, 46000, Control_c, 0, 64, 127
2, 46054, Note_off_c, 0, 47, 64
2, 46057, Note_off_c, 0, 59, 64
2, 46094, Note_off_c, 0, 68, 64
2, 46100, Note_on_c, 0, 70, 27
2, 46101, Note_on_c, 0, 58, 36
2, 46102, Note_on_c, 0, 46, 31
2, 46221, Note_off_c, 0, 58, 64
2, 46222, Note_off_c, 0, 46, 64
2, 46261, Note_on_c, 0, 71, 30
2, 46266, Note_on_c, 0, 44, 39
2, 46269, Note_off_c, 0, 70, 64
2, 46269, Note_on_c, 0, 56, 33
2, 46278, Note_off_c, 0, 63, 64
2, 46396, Note_off_c, 0, 44, 64
2, 46399, Note_off_c, 0, 56, 64
2, 46451, Note_off_c, 0, 71, 64
2, 46463, Control_c, 0, 64, 0
2, 46473, Note_on_c, 0, 62, 39
2, 46474, Note_off_c, 0, 75, 64
2, 46474, Note_on_c, 0, 46, 42
2, 46488, Note_on_c, 0, 34, 47
2, 46523, Control_c, 0, 64, 127
2, 46603, Note_off_c, 0, 62, 64
2, 46604, Note_off_c, 0, 46, 64
2, 46608, Note_off_c, 0, 34, 64
2, 46708, Note_on_c, 0, 56, 40
2, 46711, Note_on_c, 0, 62, 37
2, 46715, Note_on_c, 0, 74, 43
2, 46766, Note_off_c, 0, 56, 64
2, 46766, Note_on_c, 0, 75, 54
2, 46775, Note_off_c, 0, 62, 64
2, 46784, Note_off_c, 0, 74, 64
2, 46825, Note_off_c, 0, 75, 64
2, 46829, Note_on_c, 0, 74, 55
2, 46832, Note_on_c, 0, 62, 28
2, 46836, Note_on_c, 0, 68, 37
2, 46884, Note_off_c, 0, 62, 64
2, 46889, Note_off_c, 0, 68, 64
2, 46889, Note_on_c, 0, 75, 51
2, 46904, Note_off_c, 0, 74, 64
2, 46947, Note_on_c, 0, 77, 54
2, 46956, Note_off_c, 0, 75, 64
2, 47017, Note_off_c, 0, 77, 64
2, 47073, Note_on_c, 0, 68, 37
2, 47083, Note_on_c, 0, 77, 53
2, 47090, Note_on_c, 0, 62, 28
2, 47090, Note_on_c, 0, 56, 25
2, 47115, Note_off_c, 0, 68, 64
2, 47120, Note_off_c, 0, 62, 64
2, 47126, Note_off_c, 0, 56, 64
2, 47153, Note_off_c, 0, 77, 64
2, 47200, Note_on_c, 0, 56, 35
2, 47200, Note_on_c, 0, 53, 37
2, 47204, Note_on_c, 0, 62, 40
2, 47210, Note_on_c, 0, 77, 54
2, 47231, Note_off_c, 0, 62, 64
2, 47233, Note_off_c, 0, 53, 64
2, 47239, Note_off_c, 0, 56, 64
2, 47280, Note_off_c, 0, 77, 64
2, 47337, Control_c, 0, 64, 0
2, 47347, Note_on_c, 0, 47, 54
2, 47351, Note_on_c, 0, 77, 55
2, 47388, Control_c, 0, 64, 127
2, 47413, Note_off_c, 0, 47, 64
2, 47474, Note_on_c, 0, 68, 45
2, 47478, Note_on_c, 0, 63, 48
2, 47484, Note_on_c, 0, 78, 46
2, 47492, Note_off_c, 0, 77, 64
2, 47531, Note_off_c, 0, 63, 64
2, 47533, Note_off_c, 0, 68, 64
2, 47534, Note_on_c, 0, 77, 48
2, 47557, Note_off_c, 0, 78, 64
2, 47571, Note_on_c, 0, 63, 45
2, 47571, Note_on_c, 0, 56, 44
2, 47588, Note_on_c, 0, 75, 51
2, 47605, Note_off_c, 0, 77, 64
2, 47626, Note_off_c, 0, 56, 64
2, 47626, Note_off_c, 0, 63, 64
2, 47648, Note_on_c, 0, 68, 58
2, 47653, Note_off_c, 0, 75, 64
2, 47706, Note_off_c, 0, 68, 64
2, 47709, Control_c, 0, 64, 0
2, 47719, Note_on_c, 0, 83, 75
2, 47719, Note_on_c, 0, 41, 55
2, 47763, Control_c, 0, 64, 127
2, 47785, Note_off_c, 0, 41, 64
2, 47840, Note_on_c, 0, 68, 50
2, 47843, Note_on_c, 0, 63, 48
2, 47885, Note_off_c, 0, 68, 64
2, 47888, Note_off_c, 0, 63, 64
2, 47955, Note_on_c, 0, 56, 46
2, 47959, Note_on_c, 0, 63, 41
2, 47964, Note_on_c, 0, 53, 46
2, 47985, Note_off_c, 0, 63, 64
2, 47996, Note_off_c, 0, 53, 64
2, 47998, Note_off_c, 0, 56, 64
2, 48065, Control_c, 0, 64, 0
2, 48076, Note_on_c, 0, 46, 70
2, 48115, Control_c, 0, 64, 127
2, 48142, Note_off_c, 0, 46, 64
2, 48206, Note_on_c, 0, 74, 48
2, 48206, Note_on_c, 0, 62, 36
2, 48208, Note_on_c, 0, 56, 45
2, 48252, Note_on_c, 0, 75, 51
2, 48262, Note_off_c, 0, 74, 64
2, 48267, Note_off_c, 0, 83, 64
2, 48318, Note_on_c, 0, 74, 58
2, 48320, Note_on_c, 0, 68, 39
2, 48323, Note_off_c, 0, 75, 64
2, 48324, Note_off_c, 0, 62, 64
2, 48324, Note_on_c, 0, 62, 39
2, 48327, Note_off_c, 0, 56, 64
2, 48363, Note_on_c, 0, 75, 56
2, 48380, Note_off_c, 0, 68, 64
2, 48380, Note_off_c, 0, 74, 64
2, 48384, Note_off_c, 0, 62, 64
2, 48417, Note_off_c, 0, 75, 64
2, 48420, Control_c, 0, 64, 0
2, 48425, Note_on_c, 0, 77, 58
2, 48425, Note_on_c, 0, 47, 57
2, 48462, Control_c, 0, 64, 127
2, 48491, Note_off_c, 0, 47, 64
2, 48495, Note_off_c, 0, 77, 64
2, 48540, Note_on_c, 0, 56, 39
2, 48541, Note_on_c, 0, 68, 46
2, 48543, Note_on_c, 0, 77, 54
2, 48547, Note_on_c, 0, 63, 34
2, 48587, Note_off_c, 0, 68, 64
2, 48600, Note_off_c, 0, 63, 64
2, 48600, Note_off_c, 0, 56, 64
2, 48613, Note_off_c, 0, 77, 64
2, 48648, Note_on_c, 0, 53, 21
2, 48651, Note_on_c, 0, 56, 37
2, 48652, Note_on_c, 0, 63, 35
2, 48658, Note_on_c, 0, 77, 51
2, 48690, Note_off_c, 0, 53, 64
2, 48693, Note_off_c, 0, 56, 64
2, 48694, Note_off_c, 0, 63, 64
2, 48728, Note_off_c, 0, 77, 64
2, 48761, Control_c, 0, 64, 0
2, 48771, Note_on_c, 0, 77, 54
2, 48771, Note_on_c, 0, 48, 57
2, 48813, Control_c, 0, 64, 127
2, 48837, Note_off_c, 0, 48, 64
2, 48858, Note_off_c, 0, 77, 64
2, 48876, Note_on_c, 0, 78, 49
2, 48876, Note_on_c, 0, 69, 43
2, 48880, Note_on_c, 0, 63, 46
2, 48880, Note_on_c, 0, 57, 46
2, 48923, Note_off_c, 0, 69, 64
2, 48932, Note_on_c, 0, 77, 51
2, 48940, Note_off_c, 0, 57, 64
2, 48958, Note_off_c, 0, 63, 64
2, 48972, Note_on_c, 0, 63, 46
2, 48972, Note_on_c, 0, 57, 46
2, 48976, Note_on_c, 0, 53, 32
2, 48979, Note_on_c, 0, 75, 58
2, 48983, Note_off_c, 0, 78, 64
2, 48990, Note_off_c, 0, 77, 64
2, 49032, Note_off_c, 0, 57, 64
2, 49032, Note_off_c, 0, 63, 64
2, 49033, Note_off_c, 0, 75, 64
2, 49036, Note_off_c, 0, 53, 64
2, 49038, Note_on_c, 0, 69, 56
2, 49081, Note_off_c, 0, 69, 64
2, 49093, Control_c, 0, 64, 0
2, 49103, Note_on_c, 0, 84, 75
2, 49104, Note_on_c, 0, 41, 69
2, 49144, Control_c, 0, 64, 127
2, 49164, Note_off_c, 0, 41, 64
2, 49216, Note_on_c, 0, 69, 30
2, 49219, Note_on_c, 0, 63, 34
2, 49271, Note_off_c, 0, 63, 64
2, 49275, Note_off_c, 0, 69, 64
2, 49322, Note_on_c, 0, 63, 53
2, 49324, Note_on_c, 0, 53, 49
2, 49352, Note_off_c, 0, 63, 64
2, 49358, Note_off_c, 0, 53, 64
2, 49426, Control_c, 0, 64, 0
2, 49440, Note_on_c, 0, 82, 67
2, 49440, Note_on_c, 0, 46, 70
2, 49446, Note_off_c, 0, 84, 64
2, 49480, Control_c, 0, 64, 127
2, 49510, Note_off_c, 0, 46, 64
2, 49554, Note_on_c, 0, 68, 49
2, 49560, Note_on_c, 0, 62, 51
2, 49560, Note_on_c, 0, 58, 39
2, 49596, Note_off_c, 0, 62, 64
2, 49601, Note_off_c, 0, 68, 64
2, 49607, Note_off_c, 0, 58, 64
2, 49669, Note_on_c, 0, 62, 48
2, 49672, Note_on_c, 0, 53, 21
2, 49674, Note_on_c, 0, 58, 24
2, 49719, Note_off_c, 0, 62, 64
2, 49722, Note_off_c, 0, 53, 64
2, 49724, Note_off_c, 0, 58, 64
2, 49785, Note_on_c, 0, 73, 73
2, 49790, Note_on_c, 0, 79, 54
2, 49790, Note_on_c, 0, 39, 73
2, 49791, Control_c, 0, 64, 0
2, 49838, Note_off_c, 0, 82, 64
2, 49843, Control_c, 0, 64, 127
2, 49860, Note_off_c, 0, 39, 64
2, 49869, Note_off_c, 0, 73, 64
2, 49874, Note_off_c, 0, 79, 64
2, 49875, Note_on_c, 0, 80, 49
2, 49904, Note_off_c, 0, 80, 64
2, 49914, Note_on_c, 0, 79, 51
2, 49916, Note_on_c, 0, 58, 53
2, 49920, Note_on_c, 0, 67, 46
2, 49920, Note_on_c, 0, 61, 46
2, 49935, Note_on_c, 0, 80, 58
2, 49939, Note_off_c, 0, 79, 64
2, 49958, Note_on_c, 0, 79, 58
2, 49964, Note_off_c, 0, 80, 64
2, 49976, Note_off_c, 0, 58, 64
2, 49980, Note_off_c, 0, 61, 64
2, 49980, Note_off_c, 0, 67, 64
2, 49983, Note_on_c, 0, 80, 53
2, 50004, Note_on_c, 0, 58, 46
2, 50006, Note_on_c, 0, 61, 36
2, 50012, Note_off_c, 0, 80, 64
2, 50019, Note_on_c, 0, 51, 51
2, 50031, Note_on_c, 0, 77, 51
2, 50038, Note_off_c, 0, 79, 64
2, 50064, Note_off_c, 0, 58, 64
2, 50066, Note_off_c, 0, 61, 64
2, 50078, Note_on_c, 0, 79, 51
2, 50079, Note_off_c, 0, 51, 64
2, 50086, Note_off_c, 0, 77, 64
2, 50117, Control_c, 0, 64, 0
2, 50131, Note_on_c, 0, 82, 53
2, 50131, Note_on_c, 0, 44, 82
2, 50135, Note_on_c, 0, 73, 77
2, 50140, Note_off_c, 0, 79, 64
2, 50171, Control_c, 0, 64, 127
2, 50201, Note_off_c, 0, 44, 64
2, 50211, Note_off_c, 0, 82, 64
2, 50216, Note_off_c, 0, 73, 64
2, 50232, Note_on_c, 0, 56, 37
2, 50236, Note_on_c, 0, 80, 55
2, 50236, Note_on_c, 0, 63, 46
2, 50238, Note_on_c, 0, 66, 58
2, 50243, Note_on_c, 0, 72, 60
2, 50296, Note_off_c, 0, 63, 64
2, 50298, Note_off_c, 0, 66, 64
2, 50298, Note_on_c, 0, 75, 73
2, 50311, Note_off_c, 0, 56, 64
2, 50326, Note_off_c, 0, 80, 64
2, 50347, Note_on_c, 0, 80, 73
2, 50348, Note_on_c, 0, 60, 46
2, 50352, Note_on_c, 0, 56, 46
2, 50352, Note_on_c, 0, 51, 46
2, 50354, Note_off_c, 0, 75, 64
2, 50388, Note_on_c, 0, 78, 61
2, 50407, Note_off_c, 0, 80, 64
2, 50408, Note_off_c, 0, 60, 64
2, 50412, Note_off_c, 0, 51, 64
2, 50412, Note_off_c, 0, 56, 64
2, 50441, Control_c, 0, 64, 0
2, 50444, Note_off_c, 0, 78, 64
2, 50460, Note_on_c, 0, 37, 67
2, 50463, Note_on_c, 0, 78, 58
2, 50467, Note_on_c, 0, 75, 81
2, 50482, Note_off_c, 0, 72, 64
2, 50493, Control_c, 0, 64, 127
2, 50541, Control_c, 0, 64, 0
2, 50550, Note_off_c, 0, 78, 64
2, 50572, Note_on_c, 0, 61, 49
2, 50576, Note_on_c, 0, 77, 53
2, 50576, Note_on_c, 0, 65, 48
2, 50576, Note_on_c, 0, 56, 46
2, 50581, Note_off_c, 0, 75, 64
2, 50581, Note_on_c, 0, 73, 67
2, 50588, Control_c, 0, 64, 127
2, 50628, Note_off_c, 0, 61, 64
2, 50631, Note_off_c, 0, 73, 64
2, 50632, Note_on_c, 0, 68, 77
2, 50633, Note_off_c, 0, 65, 64
2, 50636, Note_off_c, 0, 56, 64
2, 50678, Note_on_c, 0, 73, 61
2, 50685, Note_on_c, 0, 56, 49
2, 50686, Note_on_c, 0, 61, 41
2, 50687, Note_off_c, 0, 68, 64
2, 50690, Note_on_c, 0, 53, 50
2, 50740, Note_on_c, 0, 72, 61
2, 50743, Note_off_c, 0, 73, 64
2, 50745, Note_off_c, 0, 56, 64
2, 50746, Note_off_c, 0, 61, 64
2, 50750, Note_off_c, 0, 53, 64
2, 50775, Note_off_c, 0, 72, 64
2, 50775, Note_off_c, 0, 77, 64
2, 50780, Control_c, 0, 64, 0
2, 50790, Note_off_c, 0, 37, 64
2, 50796, Note_on_c, 0, 80, 56
2, 50799, Note_on_c, 0, 42, 77
2, 50803, Note_on_c, 0, 72, 77
2, 50836, Control_c, 0, 64, 127
2, 50885, Control_c, 0, 64, 0
2, 50904, Note_off_c, 0, 80, 64
2, 50904, Note_on_c, 0, 61, 44
2, 50904, Note_on_c, 0, 58, 46
2, 50905, Note_on_c, 0, 65, 53
2, 50908, Note_off_c, 0, 72, 64
2, 50910, Note_on_c, 0, 70, 75
2, 50910, Control_c, 0, 64, 127
2, 50912, Note_on_c, 0, 78, 59
2, 50956, Note_off_c, 0, 65, 64
2, 50963, Note_on_c, 0, 73, 55
2, 50964, Note_off_c, 0, 58, 64
2, 50967, Note_off_c, 0, 78, 64
2, 50976, Note_off_c, 0, 61, 64
2, 51012, Note_on_c, 0, 54, 27
2, 51016, Note_on_c, 0, 61, 46
2, 51016, Note_on_c, 0, 58, 46
2, 51019, Note_on_c, 0, 78, 53
2, 51040, Note_off_c, 0, 73, 64
2, 51066, Note_on_c, 0, 77, 55
2, 51072, Note_off_c, 0, 54, 64
2, 51076, Note_off_c, 0, 58, 64
2, 51076, Note_off_c, 0, 61, 64
2, 51083, Note_off_c, 0, 78, 64
2, 51083, Note_off_c, 0, 70, 64
2, 51106, Note_off_c, 0, 77, 64
2, 51116, Control_c, 0, 64, 0
2, 51127, Note_on_c, 0, 36, 55
2, 51129, Note_off_c, 0, 42, 64
2, 51132, Note_on_c, 0, 77, 54
2, 51132, Note_on_c, 0, 70, 77
2, 51169, Control_c, 0, 64, 127
2, 51210, Note_off_c, 0, 77, 64
2, 51228, Note_off_c, 0, 70, 64
2, 51240, Note_on_c, 0, 72, 67
2, 51240, Note_on_c, 0, 54, 46
2, 51241, Note_on_c, 0, 75, 53
2, 51243, Note_on_c, 0, 63, 66
2, 51290, Note_off_c, 0, 72, 64
2, 51291, Note_off_c, 0, 75, 64
2, 51300, Note_on_c, 0, 73, 57
2, 51302, Note_on_c, 0, 77, 48
2, 51315, Note_off_c, 0, 54, 64
2, 51331, Note_off_c, 0, 63, 64
2, 51360, Note_off_c, 0, 73, 64
2, 51360, Note_on_c, 0, 70, 77
2, 51361, Note_on_c, 0, 80, 66
2, 51387, Note_off_c, 0, 77, 64
2, 51416, Note_on_c, 0, 72, 67
2, 51419, Note_on_c, 0, 78, 54
2, 51423, Note_off_c, 0, 70, 64
2, 51435, Note_off_c, 0, 80, 64
2, 51457, Note_off_c, 0, 36, 64
2, 51484, Note_off_c, 0, 72, 64
2, 51486, Control_c, 0, 64, 0
2, 51487, Note_off_c, 0, 78, 64
2, 51490, Note_on_c, 0, 41, 56
2, 51495, Note_on_c, 0, 69, 61
2, 51495, Note_on_c, 0, 63, 67
2, 51539, Control_c, 0, 64, 127
2, 51579, Note_off_c, 0, 63, 64
2, 51580, Note_off_c, 0, 41, 64
2, 51617, Note_off_c, 0, 69, 64
2, 51646, Note_on_c, 0, 63, 56
2, 51652, Note_on_c, 0, 69, 46
2, 51656, Note_on_c, 0, 66, 61
2, 51658, Note_on_c, 0, 72, 55
2, 51684, Note_off_c, 0, 69, 64
2, 51712, Note_on_c, 0, 53, 49
2, 51715, Note_on_c, 0, 73, 58
2, 51725, Note_off_c, 0, 63, 64
2, 51727, Note_off_c, 0, 72, 64
2, 51769, Note_on_c, 0, 63, 61
2, 51774, Note_on_c, 0, 72, 54
2, 51779, Note_off_c, 0, 73, 64
2, 51816, Note_on_c, 0, 61, 45
2, 51821, Note_off_c, 0, 63, 64
2, 51821, Note_on_c, 0, 73, 56
2, 51857, Note_off_c, 0, 72, 64
2, 51859, Control_c, 0, 64, 0
2, 51870, Note_off_c, 0, 61, 64
2, 51875, Note_on_c, 0, 75, 65
2, 51876, Note_on_c, 0, 60, 54
2, 51891, Note_off_c, 0, 73, 64
2, 51912, Note_off_c, 0, 66, 64
2, 51975, Control_c, 0, 64, 127
2, 51987, Note_on_c, 0, 65, 51
2, 52051, Note_off_c, 0, 65, 64
2, 52053, Note_off_c, 0, 53, 64
2, 52076, Note_off_c, 0, 60, 64
2, 52090, Note_on_c, 0, 70, 51
2, 52091, Note_on_c, 0, 73, 51
2, 52095, Note_on_c, 0, 58, 48
2, 52099, Note_off_c, 0, 75, 64
2, 52101, Note_on_c, 0, 65, 47
2, 52119, Note_off_c, 0, 65, 64
2, 52130, Note_off_c, 0, 70, 64
2, 52136, Note_off_c, 0, 73, 64
2, 52148, Note_off_c, 0, 58, 64
2, 52208, Note_on_c, 0, 73, 51
2, 52208, Note_on_c, 0, 58, 45
2, 52212, Note_on_c, 0, 70, 49
2, 52212, Note_on_c, 0, 65, 49
2, 52220, Note_on_c, 0, 53, 45
2, 52243, Note_off_c, 0, 65, 64
2, 52251, Note_off_c, 0, 70, 64
2, 52253, Note_off_c, 0, 58, 64
2, 52257, Note_off_c, 0, 53, 64
2, 52258, Note_off_c, 0, 73, 64
2, 52312, Note_on_c, 0, 70, 46
2, 52312, Note_on_c, 0, 64, 49
2, 52315, Note_on_c, 0, 73, 48
2, 52319, Note_on_c, 0, 67, 55
2, 52372, Note_off_c, 0, 70, 64
2, 52372, Note_on_c, 0, 75, 46
2, 52372, Note_on_c, 0, 72, 46
2, 52372, Note_on_c, 0, 53, 48
2, 52375, Note_off_c, 0, 64, 64
2, 52390, Note_off_c, 0, 73, 64
2, 52424, Note_on_c, 0, 73, 54
2, 52424, Note_on_c, 0, 64, 48
2, 52427, Note_off_c, 0, 72, 64
2, 52427, Note_off_c, 0, 75, 64
2, 52428, Note_on_c, 0, 70, 58
2, 52463, Note_off_c, 0, 53, 64
2, 52464, Note_on_c, 0, 75, 56
2, 52464, Note_on_c, 0, 72, 41
2, 52468, Note_on_c, 0, 63, 52
2, 52476, Note_off_c, 0, 70, 64
2, 52490, Note_off_c, 0, 73, 64
2, 52497, Note_off_c, 0, 64, 64
2, 52501, Note_off_c, 0, 72, 64
2, 52528, Note_on_c, 0, 73, 54
2, 52528, Note_on_c, 0, 61, 57
2, 52530, Note_on_c, 0, 76, 55
2, 52547, Control_c, 0, 64, 0
2, 52553, Note_off_c, 0, 63, 64
2, 52555, Note_off_c, 0, 75, 64
2, 52559, Note_off_c, 0, 67, 64
2, 52645, Note_on_c, 0, 66, 54
2, 52648, Note_off_c, 0, 73, 64
2, 52759, Note_off_c, 0, 76, 64
2, 52761, Note_on_c, 0, 75, 44
2, 52765, Note_on_c, 0, 70, 46
2, 52767, Note_on_c, 0, 60, 40
2, 52778, Note_off_c, 0, 66, 64
2, 52778, Note_off_c, 0, 61, 64
2, 52798, Note_off_c, 0, 70, 64
2, 52810, Control_c, 0, 64, 127
2, 52816, Note_off_c, 0, 60, 64
2, 52832, Note_off_c, 0, 75, 64
2, 52880, Note_on_c, 0, 70, 46
2, 52882, Note_on_c, 0, 75, 31
2, 52886, Control_c, 0, 64, 0
2, 52893, Note_on_c, 0, 60, 37
2, 52922, Note_off_c, 0, 70, 64
2, 52928, Control_c, 0, 64, 127
2, 52931, Note_off_c, 0, 60, 64
2, 52943, Note_off_c, 0, 75, 64
2, 52991, Note_on_c, 0, 75, 43
2, 53009, Control_c, 0, 64, 0
2, 53049, Note_on_c, 0, 77, 37
2, 53058, Note_off_c, 0, 75, 64
2, 53101, Note_on_c, 0, 75, 51
2, 53109, Note_off_c, 0, 77, 64
2, 53161, Note_on_c, 0, 77, 45
2, 53177, Note_off_c, 0, 75, 64
2, 53236, Note_on_c, 0, 78, 43
2, 53257, Note_off_c, 0, 77, 64
2, 53355, Note_off_c, 0, 78, 64
2, 53376, Control_c, 0, 64, 127
2, 53379, Note_on_c, 0, 78, 48
2, 53519, Note_off_c, 0, 78, 64
2, 53551, Note_on_c, 0, 78, 65
2, 53756, Note_off_c, 0, 78, 64
2, 53794, Note_on_c, 0, 78, 69
2, 54480, Note_off_c, 0, 78, 64
2, 54925, Note_on_c, 0, 41, 28
2, 54940, Control_c, 0, 64, 127
2, 55030, Note_off_c, 0, 41, 64
2, 55089, Note_on_c, 0, 63, 30
2, 55093, Note_on_c, 0, 77, 43
2, 55093, Note_on_c, 0, 69, 21
2, 55143, Note_off_c, 0, 63, 64
2, 55148, Note_off_c, 0, 69, 64
2, 55166, Note_on_c, 0, 72, 52
2, 55172, Note_off_c, 0, 77, 64
2, 55239, Note_on_c, 0, 75, 55
2, 55243, Note_on_c, 0, 63, 15
2, 55247, Note_off_c, 0, 72, 64
2, 55247, Note_on_c, 0, 65, 15
2, 55250, Note_on_c, 0, 57, 16
2, 55295, Note_off_c, 0, 65, 64
2, 55299, Note_off_c, 0, 63, 64
2, 55303, Note_off_c, 0, 57, 64
2, 55333, Note_on_c, 0, 73, 52
2, 55341, Note_off_c, 0, 75, 64
2, 55435, Note_on_c, 0, 46, 39
2, 55436, Note_on_c, 0, 70, 47
2, 55446, Control_c, 0, 64, 0
2, 55449, Note_off_c, 0, 73, 64
2, 55482, Control_c, 0, 64, 127
2, 55537, Note_off_c, 0, 46, 64
2, 55613, Note_on_c, 0, 61, 20
2, 55615, Note_on_c, 0, 65, 17
2, 55615, Note_on_c, 0, 58, 17
2, 55666, Note_off_c, 0, 65, 64
2, 55669, Note_off_c, 0, 58, 64
2, 55670, Note_off_c, 0, 61, 64
2, 55773, Note_on_c, 0, 61, 21
2, 55779, Note_on_c, 0, 58, 18
2, 55783, Note_on_c, 0, 53, 21
2, 55825, Note_off_c, 0, 58, 64
2, 55828, Note_off_c, 0, 61, 64
2, 55830, Note_off_c, 0, 53, 64
2, 55942, Note_on_c, 0, 67, 45
2, 55945, Note_on_c, 0, 48, 23
2, 55953, Note_off_c, 0, 70, 64
2, 55965, Control_c, 0, 64, 0
2, 55991, Control_c, 0, 64, 127
2, 56007, Note_off_c, 0, 48, 64
2, 56119, Note_on_c, 0, 58, 17
2, 56122, Note_on_c, 0, 64, 20
2, 56130, Note_on_c, 0, 60, 16
2, 56168, Note_off_c, 0, 64, 64
2, 56176, Note_off_c, 0, 58, 64
2, 56176, Note_off_c, 0, 60, 64
2, 56306, Note_on_c, 0, 52, 16
2, 56307, Note_on_c, 0, 60, 16
2, 56307, Note_on_c, 0, 58, 16
2, 56350, Note_off_c, 0, 60, 64
2, 56353, Note_off_c, 0, 58, 64
2, 56365, Note_off_c, 0, 52, 64
2, 56520, Note_on_c, 0, 41, 53
2, 56522, Control_c, 0, 64, 0
2, 56547, Note_off_c, 0, 67, 64
2, 56559, Control_c, 0, 64, 127
2, 56631, Note_on_c, 0, 68, 37
2, 56664, Note_off_c, 0, 68, 64
2, 56706, Note_off_c, 0, 41, 64
2, 56733, Note_on_c, 0, 60, 30
2, 56733, Note_on_c, 0, 56, 25
2, 56733, Note_on_c, 0, 53, 28
2, 56736, Note_on_c, 0, 68, 39
2, 56738, Note_on_c, 0, 72, 57
2, 56781, Note_off_c, 0, 53, 64
2, 56790, Note_off_c, 0, 56, 64
2, 56794, Note_off_c, 0, 60, 64
2, 56831, Note_on_c, 0, 67, 27
2, 56834, Note_off_c, 0, 68, 64
2, 56862, Note_off_c, 0, 72, 64
2, 56864, Note_off_c, 0, 67, 64
2, 56879, Note_on_c, 0, 56, 28
2, 56899, Note_on_c, 0, 60, 30
2, 56911, Note_on_c, 0, 72, 39
2, 56914, Note_on_c, 0, 77, 57
2, 56914, Note_on_c, 0, 68, 39
2, 56914, Note_on_c, 0, 67, 33
2, 56932, Note_off_c, 0, 60, 64
2, 56934, Note_off_c, 0, 68, 64
2, 56934, Note_off_c, 0, 56, 64
2, 56949, Note_off_c, 0, 67, 64
2, 56960, Note_off_c, 0, 72, 64
2, 56995, Note_on_c, 0, 65, 44
2, 57027, Note_off_c, 0, 65, 64
2, 57039, Note_off_c, 0, 77, 64
2, 57083, Note_on_c, 0, 73, 38
2, 57088, Note_on_c, 0, 76, 52
2, 57088, Note_on_c, 0, 70, 39
2, 57089, Note_on_c, 0, 41, 60
2, 57092, Note_on_c, 0, 55, 40
2, 57092, Note_on_c, 0, 49, 40
2, 57097, Control_c, 0, 64, 0
2, 57114, Control_c, 0, 64, 127
2, 57132, Note_off_c, 0, 49, 64
2, 57144, Note_off_c, 0, 55, 64
2, 57168, Note_off_c, 0, 73, 64
2, 57177, Note_off_c, 0, 70, 64
2, 57179, Note_on_c, 0, 68, 31
2, 57208, Note_off_c, 0, 68, 64
2, 57215, Note_off_c, 0, 76, 64
2, 57254, Note_on_c, 0, 61, 36
2, 57259, Note_on_c, 0, 67, 39
2, 57261, Note_on_c, 0, 70, 55
2, 57261, Note_on_c, 0, 53, 36
2, 57269, Note_on_c, 0, 58, 19
2, 57270, Control_c, 0, 64, 0
2, 57277, Note_off_c, 0, 41, 64
2, 57287, Control_c, 0, 64, 127
2, 57310, Note_off_c, 0, 58, 64
2, 57310, Note_off_c, 0, 53, 64
2, 57323, Note_off_c, 0, 61, 64
2, 57342, Note_on_c, 0, 65, 31
2, 57345, Note_off_c, 0, 67, 64
2, 57375, Note_off_c, 0, 65, 64
2, 57392, Note_off_c, 0, 70, 64
2, 57426, Note_on_c, 0, 58, 35
2, 57428, Note_on_c, 0, 67, 33
2, 57428, Note_on_c, 0, 64, 39
2, 57428, Note_on_c, 0, 61, 33
2, 57429, Note_on_c, 0, 73, 57
2, 57433, Control_c, 0, 64, 0
2, 57450, Note_off_c, 0, 67, 64
2, 57451, Control_c, 0, 64, 127
2, 57465, Note_off_c, 0, 61, 64
2, 57466, Note_off_c, 0, 58, 64
2, 57509, Note_on_c, 0, 70, 37
2, 57518, Note_off_c, 0, 64, 64
2, 57538, Note_off_c, 0, 70, 64
2, 57591, Note_on_c, 0, 70, 39
2, 57592, Note_on_c, 0, 53, 37
2, 57594, Note_on_c, 0, 60, 37
2, 57596, Note_on_c, 0, 41, 51
2, 57600, Control_c, 0, 64, 0
2, 57621, Control_c, 0, 64, 127
2, 57659, Note_off_c, 0, 73, 64
2, 57662, Note_off_c, 0, 53, 64
2, 57672, Note_off_c, 0, 60, 64
2, 57678, Note_on_c, 0, 68, 37
2, 57690, Note_off_c, 0, 70, 64
2, 57706, Note_off_c, 0, 68, 64
2, 57761, Note_on_c, 0, 72, 56
2, 57761, Note_on_c, 0, 68, 42
2, 57761, Note_on_c, 0, 56, 22
2, 57765, Note_on_c, 0, 53, 28
2, 57766, Note_on_c, 0, 60, 33
2, 57767, Note_off_c, 0, 41, 64
2, 57772, Control_c, 0, 64, 0
2, 57784, Control_c, 0, 64, 127
2, 57810, Note_off_c, 0, 53, 64
2, 57817, Note_off_c, 0, 56, 64
2, 57829, Note_off_c, 0, 60, 64
2, 57848, Note_on_c, 0, 67, 37
2, 57859, Note_off_c, 0, 68, 64
2, 57879, Note_off_c, 0, 67, 64
2, 57890, Note_off_c, 0, 72, 64
2, 57897, Note_on_c, 0, 56, 37
2, 57913, Note_on_c, 0, 60, 37
2, 57931, Note_on_c, 0, 67, 30
2, 57932, Note_on_c, 0, 72, 39
2, 57935, Note_on_c, 0, 68, 50
2, 57937, Note_on_c, 0, 77, 57
2, 57950, Note_off_c, 0, 60, 64
2, 57950, Note_off_c, 0, 56, 64
2, 57951, Note_off_c, 0, 68, 64
2, 57961, Note_off_c, 0, 67, 64
2, 57993, Note_off_c, 0, 72, 64
2, 58017, Note_on_c, 0, 65, 39
2, 58046, Note_off_c, 0, 65, 64
2, 58072, Note_off_c, 0, 77, 64
2, 58097, Note_on_c, 0, 73, 39
2, 58098, Note_on_c, 0, 76, 52
2, 58098, Note_on_c, 0, 70, 41
2, 58101, Note_on_c, 0, 41, 53
2, 58101, Control_c, 0, 64, 0
2, 58105, Note_on_c, 0, 48, 39
2, 58106, Note_on_c, 0, 55, 42
2, 58121, Control_c, 0, 64, 127
2, 58131, Note_off_c, 0, 73, 64
2, 58152, Note_off_c, 0, 48, 64
2, 58169, Note_off_c, 0, 55, 64
2, 58170, Note_off_c, 0, 70, 64
2, 58177, Note_on_c, 0, 72, 39
2, 58177, Note_on_c, 0, 68, 39
2, 58203, Note_off_c, 0, 72, 64
2, 58222, Note_off_c, 0, 68, 64
2, 58250, Note_off_c, 0, 76, 64
2, 58257, Note_on_c, 0, 61, 28
2, 58260, Note_on_c, 0, 70, 52
2, 58262, Note_on_c, 0, 67, 42
2, 58265, Note_on_c, 0, 53, 30
2, 58268, Note_on_c, 0, 58, 19
2, 58272, Control_c, 0, 64, 0
2, 58279, Note_off_c, 0, 41, 64
2, 58290, Control_c, 0, 64, 127
2, 58326, Note_off_c, 0, 58, 64
2, 58328, Note_off_c, 0, 53, 64
2, 58332, Note_on_c, 0, 68, 39
2, 58335, Note_on_c, 0, 65, 39
2, 58340, Note_off_c, 0, 61, 64
2, 58343, Note_off_c, 0, 67, 64
2, 58362, Note_off_c, 0, 65, 64
2, 58367, Note_off_c, 0, 68, 64
2, 58393, Note_off_c, 0, 70, 64
2, 58408, Note_on_c, 0, 73, 52
2, 58412, Note_on_c, 0, 67, 37
2, 58414, Note_on_c, 0, 64, 37
2, 58416, Note_on_c, 0, 58, 37
2, 58419, Note_on_c, 0, 61, 35
2, 58419, Control_c, 0, 64, 0
2, 58441, Control_c, 0, 64, 127
2, 58446, Note_off_c, 0, 64, 64
2, 58461, Note_off_c, 0, 61, 64
2, 58464, Note_off_c, 0, 58, 64
2, 58497, Note_on_c, 0, 70, 37
2, 58499, Note_on_c, 0, 65, 30
2, 58517, Note_off_c, 0, 65, 64
2, 58518, Note_off_c, 0, 67, 64
2, 58532, Note_off_c, 0, 70, 64
2, 58536, Note_off_c, 0, 73, 64
2, 58578, Note_on_c, 0, 41, 47
2, 58593, Note_on_c, 0, 70, 38
2, 58596, Note_on_c, 0, 72, 40
2, 58597, Note_on_c, 0, 60, 39
2, 58600, Note_on_c, 0, 67, 41
2, 58600, Note_on_c, 0, 48, 38
2, 58608, Control_c, 0, 64, 0
2, 58618, Note_off_c, 0, 60, 64
2, 58626, Control_c, 0, 64, 127
2, 58632, Note_off_c, 0, 70, 64
2, 58635, Note_off_c, 0, 67, 64
2, 58660, Note_off_c, 0, 48, 64
2, 58687, Note_on_c, 0, 68, 37
2, 58688, Note_on_c, 0, 65, 34
2, 58710, Note_off_c, 0, 68, 64
2, 58716, Note_off_c, 0, 65, 64
2, 58746, Note_off_c, 0, 72, 64
2, 58754, Note_off_c, 0, 41, 64
2, 58774, Note_on_c, 0, 48, 19
2, 58775, Note_on_c, 0, 56, 35
2, 58778, Note_on_c, 0, 72, 57
2, 58778, Note_on_c, 0, 68, 41
2, 58778, Note_on_c, 0, 60, 30
2, 58781, Note_on_c, 0, 65, 36
2, 58783, Note_on_c, 0, 53, 25
2, 58786, Control_c, 0, 64, 0
2, 58798, Control_c, 0, 64, 127
2, 58846, Note_off_c, 0, 53, 64
2, 58847, Note_off_c, 0, 60, 64
2, 58853, Note_off_c, 0, 56, 64
2, 58854, Note_on_c, 0, 70, 40
2, 58855, Note_on_c, 0, 73, 62
2, 58858, Note_off_c, 0, 72, 64
2, 58860, Note_off_c, 0, 48, 64
2, 58870, Note_off_c, 0, 68, 64
2, 58874, Note_off_c, 0, 65, 64
2, 58921, Note_off_c, 0, 70, 64
2, 58926, Note_off_c, 0, 73, 64
2, 58932, Note_on_c, 0, 68, 14
2, 58936, Note_on_c, 0, 72, 35
2, 58937, Note_on_c, 0, 64, 22
2, 58940, Note_on_c, 0, 52, 40
2, 58940, Note_on_c, 0, 40, 58
2, 58952, Control_c, 0, 64, 0
2, 58978, Control_c, 0, 64, 127
2, 59008, Note_on_c, 0, 73, 62
2, 59010, Note_on_c, 0, 70, 39
2, 59015, Note_off_c, 0, 72, 64
2, 59024, Note_off_c, 0, 68, 64
2, 59031, Note_off_c, 0, 52, 64
2, 59042, Note_off_c, 0, 64, 64
2, 59051, Note_off_c, 0, 73, 64
2, 59057, Note_off_c, 0, 70, 64
2, 59071, Note_off_c, 0, 40, 64
2, 59107, Note_on_c, 0, 75, 61
2, 59107, Note_on_c, 0, 72, 46
2, 59107, Note_on_c, 0, 51, 47
2, 59109, Note_on_c, 0, 63, 44
2, 59109, Note_on_c, 0, 39, 56
2, 59118, Control_c, 0, 64, 0
2, 59139, Control_c, 0, 64, 127
2, 59167, Note_off_c, 0, 51, 64
2, 59202, Note_on_c, 0, 70, 38
2, 59203, Note_on_c, 0, 61, 53
2, 59224, Note_off_c, 0, 61, 64
2, 59229, Note_off_c, 0, 75, 64
2, 59235, Note_off_c, 0, 72, 64
2, 59239, Note_off_c, 0, 63, 64
2, 59242, Note_off_c, 0, 70, 64
2, 59268, Note_off_c, 0, 39, 64
2, 59276, Note_on_c, 0, 61, 42
2, 59278, Note_on_c, 0, 75, 66
2, 59280, Note_on_c, 0, 70, 46
2, 59281, Note_on_c, 0, 63, 48
2, 59283, Note_on_c, 0, 51, 47
2, 59345, Note_off_c, 0, 51, 64
2, 59353, Note_on_c, 0, 60, 35
2, 59356, Note_on_c, 0, 68, 42
2, 59364, Note_off_c, 0, 61, 64
2, 59367, Note_off_c, 0, 70, 64
2, 59372, Note_off_c, 0, 75, 64
2, 59386, Note_off_c, 0, 60, 64
2, 59388, Note_off_c, 0, 68, 64
2, 59394, Note_off_c, 0, 63, 64
2, 59428, Note_on_c, 0, 63, 47
2, 59432, Note_on_c, 0, 68, 44
2, 59440, Note_on_c, 0, 60, 47
2, 59444, Note_on_c, 0, 51, 29
2, 59444, Control_c, 0, 64, 0
2, 59448, Note_on_c, 0, 75, 73
2, 59459, Control_c, 0, 64, 127
2, 59497, Note_off_c, 0, 68, 64
2, 59526, Note_on_c, 0, 67, 40
2, 59526, Note_on_c, 0, 58, 40
2, 59528, Note_off_c, 0, 75, 64
2, 59530, Note_off_c, 0, 51, 64
2, 59534, Note_off_c, 0, 60, 64
2, 59540, Note_off_c, 0, 63, 64
2, 59542, Note_off_c, 0, 58, 64
2, 59550, Note_off_c, 0, 67, 64
2, 59588, Note_on_c, 0, 61, 50
2, 59610, Note_on_c, 0, 67, 39
2, 59622, Control_c, 0, 64, 0
2, 59629, Note_on_c, 0, 39, 67
2, 59631, Note_on_c, 0, 75, 79
2, 59646, Control_c, 0, 64, 127
2, 59648, Note_off_c, 0, 61, 64
2, 59677, Note_off_c, 0, 67, 64
2, 59728, Note_on_c, 0, 51, 19
2, 59730, Note_on_c, 0, 65, 45
2, 59753, Note_off_c, 0, 75, 64
2, 59784, Note_off_c, 0, 65, 64
2, 59811, Note_off_c, 0, 39, 64
2, 59811, Note_on_c, 0, 58, 23
2, 59814, Note_on_c, 0, 73, 37
2, 59817, Note_on_c, 0, 65, 27
2, 59872, Note_off_c, 0, 73, 64
2, 59885, Note_off_c, 0, 65, 64
2, 59897, Note_on_c, 0, 72, 66
2, 59898, Note_off_c, 0, 51, 64
2, 59900, Note_on_c, 0, 67, 46
2, 59902, Note_on_c, 0, 63, 50
2, 59905, Note_off_c, 0, 58, 64
2, 59971, Note_on_c, 0, 70, 66
2, 59973, Note_on_c, 0, 65, 50
2, 59976, Note_off_c, 0, 72, 64
2, 59976, Note_on_c, 0, 61, 38
2, 59980, Control_c, 0, 64, 0
2, 59981, Note_off_c, 0, 67, 64
2, 59987, Note_off_c, 0, 63, 64
2, 59988, Control_c, 0, 64, 127
2, 60042, Note_on_c, 0, 72, 68
2, 60044, Note_on_c, 0, 67, 50
2, 60045, Note_off_c, 0, 70, 64
2, 60047, Note_on_c, 0, 63, 52
2, 60052, Note_off_c, 0, 61, 64
2, 60058, Note_off_c, 0, 65, 64
2, 60109, Note_off_c, 0, 63, 64
2, 60109, Note_off_c, 0, 72, 64
2, 60129, Note_on_c, 0, 65, 39
2, 60132, Note_on_c, 0, 68, 49
2, 60132, Note_on_c, 0, 61, 42
2, 60133, Control_c, 0, 64, 0
2, 60137, Note_on_c, 0, 56, 31
2, 60148, Note_off_c, 0, 67, 64
2, 60158, Control_c, 0, 64, 127
2, 60212, Note_off_c, 0, 65, 64
2, 60221, Note_on_c, 0, 63, 39
2, 60223, Note_on_c, 0, 60, 37
2, 60252, Note_off_c, 0, 63, 64
2, 60253, Note_off_c, 0, 60, 64
2, 60263, Note_off_c, 0, 61, 64
2, 60290, Note_on_c, 0, 60, 37
2, 60293, Note_on_c, 0, 63, 37
2, 60293, Note_on_c, 0, 61, 1
2, 60313, Note_off_c, 0, 61, 64
2, 60317, Note_off_c, 0, 56, 64
2, 60322, Note_off_c, 0, 60, 64
2, 60350, Note_off_c, 0, 63, 64
2, 60368, Note_on_c, 0, 53, 43
2, 60369, Note_on_c, 0, 62, 33
2, 60371, Note_on_c, 0, 59, 41
2, 60401, Note_off_c, 0, 53, 64
2, 60408, Note_off_c, 0, 59, 64
2, 60408, Note_off_c, 0, 62, 64
2, 60446, Note_on_c, 0, 53, 23
2, 60450, Note_on_c, 0, 62, 37
2, 60450, Note_on_c, 0, 59, 30
2, 60490, Note_off_c, 0, 59, 64
2, 60491, Note_off_c, 0, 53, 64
2, 60524, Note_on_c, 0, 56, 35
2, 60525, Note_on_c, 0, 61, 43
2, 60528, Note_on_c, 0, 52, 31
2, 60537, Note_off_c, 0, 62, 64
2, 60555, Note_off_c, 0, 61, 64
2, 60556, Note_off_c, 0, 52, 64
2, 60563, Note_off_c, 0, 56, 64
2, 60601, Note_on_c, 0, 56, 40
2, 60603, Note_on_c, 0, 61, 44
2, 60605, Note_on_c, 0, 52, 40
2, 60623, Note_off_c, 0, 56, 64
2, 60626, Note_off_c, 0, 52, 64
2, 60678, Note_on_c, 0, 60, 44
2, 60678, Note_on_c, 0, 51, 49
2, 60683, Note_off_c, 0, 61, 64
2, 60711, Note_off_c, 0, 51, 64
2, 60714, Note_off_c, 0, 60, 64
2, 60755, Note_on_c, 0, 60, 42
2, 60755, Note_on_c, 0, 51, 45
2, 60782, Note_off_c, 0, 51, 64
2, 60794, Note_off_c, 0, 60, 64
2, 60835, Note_on_c, 0, 65, 49
2, 60835, Note_on_c, 0, 37, 51
2, 60837, Note_on_c, 0, 49, 55
2, 60883, Note_off_c, 0, 49, 64
2, 60884, Note_off_c, 0, 37, 64
2, 60906, Note_off_c, 0, 68, 64
2, 60912, Note_on_c, 0, 36, 52
2, 60915, Note_on_c, 0, 48, 53
2, 60918, Note_on_c, 0, 63, 47
2, 60919, Note_off_c, 0, 65, 64
2, 60941, Note_off_c, 0, 48, 64
2, 60942, Note_off_c, 0, 36, 64
2, 60952, Note_off_c, 0, 63, 64
2, 60994, Note_on_c, 0, 70, 53
2, 60997, Note_on_c, 0, 61, 59
2, 60999, Note_on_c, 0, 46, 62
2, 61000, Note_on_c, 0, 34, 61
2, 61002, Note_on_c, 0, 67, 43
2, 61035, Note_off_c, 0, 67, 64
2, 61054, Note_off_c, 0, 70, 64
2, 61066, Note_off_c, 0, 61, 64
2, 61081, Note_off_c, 0, 46, 64
2, 61082, Note_off_c, 0, 34, 64
2, 61091, Note_on_c, 0, 70, 49
2, 61093, Note_on_c, 0, 72, 52
2, 61093, Note_on_c, 0, 60, 47
2, 61096, Note_on_c, 0, 44, 61
2, 61096, Note_on_c, 0, 32, 60
2, 61104, Control_c, 0, 64, 0
2, 61121, Control_c, 0, 64, 127
2, 61144, Note_off_c, 0, 60, 64
2, 61169, Note_off_c, 0, 72, 64
2, 61174, Note_off_c, 0, 70, 64
2, 61188, Note_on_c, 0, 63, 62
2, 61213, Note_off_c, 0, 63, 64
2, 61215, Note_off_c, 0, 32, 64
2, 61215, Note_off_c, 0, 44, 64
2, 61263, Note_on_c, 0, 75, 70
2, 61263, Note_on_c, 0, 63, 55
2, 61266, Note_on_c, 0, 72, 55
2, 61269, Note_on_c, 0, 51, 44
2, 61271, Note_on_c, 0, 60, 51
2, 61273, Note_on_c, 0, 56, 43
2, 61277, Control_c, 0, 64, 0
2, 61285, Control_c, 0, 64, 127
2, 61312, Note_off_c, 0, 63, 64
2, 61319, Note_off_c, 0, 56, 64
2, 61320, Note_off_c, 0, 51, 64
2, 61333, Note_off_c, 0, 60, 64
2, 61341, Note_on_c, 0, 70, 54
2, 61347, Note_off_c, 0, 72, 64
2, 61361, Note_off_c, 0, 70, 64
2, 61396, Note_off_c, 0, 75, 64
2, 61400, Note_on_c, 0, 51, 41
2, 61413, Note_on_c, 0, 56, 40
2, 61417, Note_on_c, 0, 60, 49
2, 61421, Note_on_c, 0, 80, 55
2, 61423, Note_on_c, 0, 72, 56
2, 61423, Note_on_c, 0, 70, 58
2, 61426, Note_on_c, 0, 75, 54
2, 61428, Note_on_c, 0, 63, 55
2, 61454, Note_off_c, 0, 56, 64
2, 61455, Note_off_c, 0, 60, 64
2, 61457, Note_off_c, 0, 63, 64
2, 61465, Note_off_c, 0, 51, 64
2, 61467, Note_off_c, 0, 70, 64
2, 61474, Note_off_c, 0, 72, 64
2, 61491, Note_off_c, 0, 75, 64
2, 61496, Note_on_c, 0, 68, 58
2, 61526, Note_off_c, 0, 68, 64
2, 61546, Note_on_c, 0, 44, 61
2, 61554, Note_off_c, 0, 80, 64
2, 61566, Note_on_c, 0, 52, 61
2, 61577, Control_c, 0, 64, 0
2, 61583, Note_on_c, 0, 79, 67
2, 61583, Note_on_c, 0, 76, 51
2, 61584, Note_on_c, 0, 73, 56
2, 61584, Note_on_c, 0, 58, 75
2, 61586, Note_off_c, 0, 44, 64
2, 61592, Note_off_c, 0, 52, 64
2, 61596, Control_c, 0, 64, 127
2, 61598, Note_off_c, 0, 58, 64
2, 61662, Note_off_c, 0, 73, 64
2, 61663, Note_off_c, 0, 76, 64
2, 61666, Note_on_c, 0, 75, 55
2, 61666, Note_on_c, 0, 72, 44
2, 61693, Note_off_c, 0, 75, 64
2, 61698, Note_off_c, 0, 72, 64
2, 61715, Note_on_c, 0, 52, 44
2, 61728, Note_on_c, 0, 55, 44
2, 61731, Note_on_c, 0, 58, 51
2, 61742, Note_on_c, 0, 73, 78
2, 61745, Note_off_c, 0, 52, 64
2, 61746, Note_on_c, 0, 61, 61
2, 61747, Note_on_c, 0, 70, 59
2, 61764, Note_off_c, 0, 55, 64
2, 61768, Note_off_c, 0, 58, 64
2, 61770, Note_off_c, 0, 61, 64
2, 61796, Note_off_c, 0, 70, 64
2, 61825, Note_on_c, 0, 72, 51
2, 61827, Note_on_c, 0, 68, 49
2, 61848, Note_off_c, 0, 79, 64
2, 61859, Note_off_c, 0, 72, 64
2, 61873, Note_off_c, 0, 68, 64
2, 61873, Note_off_c, 0, 73, 64
2, 61898, Note_on_c, 0, 76, 79
2, 61898, Note_on_c, 0, 67, 44
2, 61898, Note_on_c, 0, 61, 47
2, 61902, Note_on_c, 0, 58, 46
2, 61903, Note_on_c, 0, 55, 47
2, 61905, Note_on_c, 0, 64, 44
2, 61948, Note_off_c, 0, 64, 64
2, 61954, Note_off_c, 0, 61, 64
2, 61955, Note_off_c, 0, 58, 64
2, 61957, Note_off_c, 0, 55, 64
2, 61970, Note_off_c, 0, 67, 64
2, 61978, Note_on_c, 0, 70, 47
2, 61980, Note_on_c, 0, 73, 48
2, 62018, Note_off_c, 0, 70, 64
2, 62031, Note_off_c, 0, 76, 64
2, 62048, Note_off_c, 0, 73, 64
2, 62048, Note_on_c, 0, 73, 54
2, 62059, Note_on_c, 0, 63, 51
2, 62064, Note_on_c, 0, 32, 73
2, 62065, Note_on_c, 0, 44, 61
2, 62068, Control_c, 0, 64, 0
2, 62080, Control_c, 0, 64, 127
2, 62128, Note_on_c, 0, 72, 48
2, 62133, Note_off_c, 0, 73, 64
2, 62139, Note_off_c, 0, 72, 64
2, 62139, Note_off_c, 0, 32, 64
2, 62140, Note_off_c, 0, 44, 64
2, 62147, Note_on_c, 0, 70, 34
2, 62151, Note_off_c, 0, 63, 64
2, 62162, Note_off_c, 0, 70, 64
2, 62222, Note_on_c, 0, 75, 70
2, 62223, Note_on_c, 0, 51, 38
2, 62226, Note_on_c, 0, 72, 58
2, 62226, Note_on_c, 0, 60, 55
2, 62230, Note_on_c, 0, 63, 61
2, 62230, Note_on_c, 0, 56, 49
2, 62257, Note_off_c, 0, 51, 64
2, 62275, Note_off_c, 0, 72, 64
2, 62283, Note_off_c, 0, 56, 64
2, 62301, Note_on_c, 0, 73, 59
2, 62302, Note_on_c, 0, 70, 63
2, 62306, Note_off_c, 0, 60, 64
2, 62313, Note_off_c, 0, 63, 64
2, 62328, Note_off_c, 0, 70, 64
2, 62329, Note_off_c, 0, 73, 64
2, 62362, Note_off_c, 0, 75, 64
2, 62370, Note_on_c, 0, 56, 37
2, 62377, Note_on_c, 0, 60, 49
2, 62382, Note_on_c, 0, 80, 70
2, 62382, Note_on_c, 0, 73, 58
2, 62382, Note_on_c, 0, 70, 55
2, 62385, Note_on_c, 0, 75, 55
2, 62385, Note_on_c, 0, 63, 54
2, 62409, Note_off_c, 0, 56, 64
2, 62411, Note_off_c, 0, 60, 64
2, 62416, Note_off_c, 0, 63, 64
2, 62423, Note_off_c, 0, 70, 64
2, 62423, Note_off_c, 0, 73, 64
2, 62441, Note_off_c, 0, 75, 64
2, 62457, Note_on_c, 0, 68, 55
2, 62458, Note_on_c, 0, 72, 51
2, 62480, Note_off_c, 0, 68, 64
2, 62483, Note_off_c, 0, 72, 64
2, 62503, Note_on_c, 0, 44, 79
2, 62519, Note_off_c, 0, 80, 64
2, 62521, Note_on_c, 0, 52, 61
2, 62532, Note_on_c, 0, 79, 67
2, 62532, Note_on_c, 0, 73, 58
2, 62534, Note_on_c, 0, 76, 54
2, 62536, Note_on_c, 0, 58, 71
2, 62538, Control_c, 0, 64, 0
2, 62547, Note_off_c, 0, 44, 64
2, 62551, Note_off_c, 0, 52, 64
2, 62552, Control_c, 0, 64, 127
2, 62566, Note_off_c, 0, 58, 64
2, 62602, Note_off_c, 0, 73, 64
2, 62604, Note_on_c, 0, 72, 49
2, 62605, Note_off_c, 0, 76, 64
2, 62608, Note_on_c, 0, 75, 54
2, 62631, Note_off_c, 0, 72, 64
2, 62634, Note_off_c, 0, 75, 64
2, 62658, Note_on_c, 0, 52, 39
2, 62672, Note_on_c, 0, 55, 38
2, 62674, Note_on_c, 0, 58, 49
2, 62679, Control_c, 0, 64, 0
2, 62681, Note_on_c, 0, 73, 73
2, 62684, Note_on_c, 0, 70, 58
2, 62687, Note_on_c, 0, 61, 46
2, 62689, Control_c, 0, 64, 127
2, 62709, Note_off_c, 0, 70, 64
2, 62729, Note_off_c, 0, 52, 64
2, 62734, Note_off_c, 0, 61, 64
2, 62740, Note_off_c, 0, 55, 64
2, 62745, Note_on_c, 0, 72, 54
2, 62745, Note_on_c, 0, 68, 56
2, 62749, Note_off_c, 0, 58, 64
2, 62758, Note_off_c, 0, 79, 64
2, 62776, Note_off_c, 0, 73, 64
2, 62781, Note_off_c, 0, 72, 64
2, 62790, Note_off_c, 0, 68, 64
2, 62810, Note_on_c, 0, 55, 33
2, 62820, Note_on_c, 0, 58, 40
2, 62822, Note_on_c, 0, 61, 37
2, 62824, Note_on_c, 0, 70, 53
2, 62825, Note_on_c, 0, 76, 68
2, 62827, Note_on_c, 0, 67, 46
2, 62829, Note_on_c, 0, 64, 49
2, 62833, Control_c, 0, 64, 0
2, 62845, Control_c, 0, 64, 127
2, 62864, Note_off_c, 0, 64, 64
2, 62874, Note_off_c, 0, 61, 64
2, 62876, Note_off_c, 0, 70, 64
2, 62877, Note_off_c, 0, 55, 64
2, 62880, Note_off_c, 0, 58, 64
2, 62881, Note_off_c, 0, 67, 64
2, 62910, Note_on_c, 0, 70, 49
2, 62911, Note_on_c, 0, 73, 49
2, 62941, Note_off_c, 0, 70, 64
2, 63006, Note_on_c, 0, 32, 72
2, 63007, Note_on_c, 0, 44, 73
2, 63008, Note_on_c, 0, 72, 55
2, 63010, Note_on_c, 0, 68, 54
2, 63010, Note_on_c, 0, 63, 55
2, 63013, Note_off_c, 0, 73, 64
2, 63016, Control_c, 0, 64, 0
2, 63037, Control_c, 0, 64, 127
2, 63051, Note_off_c, 0, 68, 64
2, 63057, Note_off_c, 0, 76, 64
2, 63069, Note_off_c, 0, 63, 64
2, 63092, Note_off_c, 0, 32, 64
2, 63093, Note_off_c, 0, 44, 64
2, 63101, Note_on_c, 0, 70, 51
2, 63106, Note_on_c, 0, 73, 49
2, 63115, Note_off_c, 0, 72, 64
2, 63128, Note_off_c, 0, 70, 64
2, 63137, Note_off_c, 0, 73, 64
2, 63179, Note_on_c, 0, 75, 69
2, 63183, Note_on_c, 0, 72, 53
2, 63183, Note_on_c, 0, 60, 54
2, 63186, Note_on_c, 0, 56, 51
2, 63188, Note_on_c, 0, 63, 55
2, 63232, Note_off_c, 0, 56, 64
2, 63237, Note_off_c, 0, 60, 64
2, 63251, Note_off_c, 0, 63, 64
2, 63260, Note_on_c, 0, 73, 58
2, 63263, Note_on_c, 0, 77, 68
2, 63271, Note_off_c, 0, 75, 64
2, 63274, Note_off_c, 0, 72, 64
2, 63320, Note_on_c, 0, 60, 48
2, 63328, Note_off_c, 0, 77, 64
2, 63333, Note_on_c, 0, 68, 59
2, 63337, Note_on_c, 0, 63, 30
2, 63339, Note_on_c, 0, 75, 79
2, 63341, Note_on_c, 0, 72, 58
2, 63358, Note_off_c, 0, 73, 64
2, 63363, Note_off_c, 0, 68, 64
2, 63365, Note_off_c, 0, 63, 64
2, 63375, Note_off_c, 0, 60, 64
2, 63409, Note_off_c, 0, 72, 64
2, 63410, Note_on_c, 0, 73, 58
2, 63414, Note_on_c, 0, 77, 64
2, 63422, Note_off_c, 0, 75, 64
2, 63474, Note_on_c, 0, 39, 79
2, 63477, Note_off_c, 0, 77, 64
2, 63487, Note_on_c, 0, 46, 75
2, 63499, Control_c, 0, 64, 0
2, 63502, Note_on_c, 0, 78, 55
2, 63506, Note_on_c, 0, 75, 55
2, 63506, Note_on_c, 0, 66, 61
2, 63506, Note_on_c, 0, 51, 74
2, 63519, Note_off_c, 0, 73, 64
2, 63521, Control_c, 0, 64, 127
2, 63527, Note_off_c, 0, 46, 64
2, 63534, Note_off_c, 0, 39, 64
2, 63557, Note_off_c, 0, 51, 64
2, 63580, Note_off_c, 0, 78, 64
2, 63591, Note_on_c, 0, 77, 51
2, 63595, Note_off_c, 0, 66, 64
2, 63598, Note_off_c, 0, 75, 64
2, 63654, Note_on_c, 0, 58, 54
2, 63654, Note_on_c, 0, 51, 55
2, 63657, Note_on_c, 0, 78, 79
2, 63657, Note_on_c, 0, 60, 58
2, 63660, Note_on_c, 0, 75, 61
2, 63668, Note_off_c, 0, 77, 64
2, 63689, Note_off_c, 0, 51, 64
2, 63701, Note_off_c, 0, 58, 64
2, 63708, Note_off_c, 0, 60, 64
2, 63723, Note_off_c, 0, 75, 64
2, 63728, Note_on_c, 0, 73, 51
2, 63742, Note_off_c, 0, 78, 64
2, 63798, Note_on_c, 0, 58, 45
2, 63803, Note_on_c, 0, 60, 47
2, 63804, Note_on_c, 0, 63, 51
2, 63807, Note_on_c, 0, 72, 51
2, 63808, Note_on_c, 0, 78, 79
2, 63814, Note_off_c, 0, 73, 64
2, 63818, Note_on_c, 0, 66, 59
2, 63830, Note_off_c, 0, 58, 64
2, 63834, Note_off_c, 0, 63, 64
2, 63834, Note_off_c, 0, 60, 64
2, 63837, Note_off_c, 0, 66, 64
2, 63866, Note_off_c, 0, 78, 64
2, 63880, Note_on_c, 0, 70, 49
2, 63882, Note_off_c, 0, 72, 64
2, 63909, Note_off_c, 0, 70, 64
2, 63948, Note_on_c, 0, 41, 80
2, 63956, Note_on_c, 0, 63, 61
2, 63958, Control_c, 0, 64, 0
2, 63970, Note_on_c, 0, 69, 51
2, 63985, Note_on_c, 0, 78, 89
2, 63991, Control_c, 0, 64, 127
2, 64056, Note_off_c, 0, 69, 64
2, 64061, Note_on_c, 0, 53, 56
2, 64068, Note_off_c, 0, 78, 64
2, 64072, Note_off_c, 0, 63, 64
2, 64077, Note_off_c, 0, 41, 64
2, 64125, Note_on_c, 0, 77, 55
2, 64128, Note_on_c, 0, 60, 64
2, 64196, Note_on_c, 0, 72, 54
2, 64198, Note_on_c, 0, 63, 51
2, 64200, Note_off_c, 0, 77, 64
2, 64226, Note_off_c, 0, 60, 64
2, 64264, Control_c, 0, 64, 0
2, 64267, Note_on_c, 0, 75, 54
2, 64270, Note_on_c, 0, 69, 53
2, 64270, Note_on_c, 0, 66, 54
2, 64275, Note_off_c, 0, 72, 64
2, 64285, Control_c, 0, 64, 127
2, 64300, Note_off_c, 0, 63, 64
2, 64325, Note_off_c, 0, 66, 64
2, 64337, Note_on_c, 0, 73, 51
2, 64340, Note_on_c, 0, 65, 64
2, 64347, Note_off_c, 0, 75, 64
2, 64392, Note_off_c, 0, 69, 64
2, 64404, Note_on_c, 0, 58, 74
2, 64405, Note_on_c, 0, 61, 71
2, 64407, Note_on_c, 0, 70, 56
2, 64414, Note_off_c, 0, 65, 64
2, 64414, Note_off_c, 0, 73, 64
2, 64416, Note_off_c, 0, 53, 64
2, 64419, Note_off_c, 0, 61, 64
2, 64421, Note_off_c, 0, 58, 64
2, 64428, Note_off_c, 0, 70, 64
2, 64486, Note_on_c, 0, 63, 73
2, 64487, Note_on_c, 0, 54, 64
2, 64489, Note_on_c, 0, 42, 58
2, 64491, Control_c, 0, 64, 0
2, 64499, Control_c, 0, 64, 127
2, 64548, Note_off_c, 0, 42, 64
2, 64551, Note_off_c, 0, 54, 64
2, 64555, Note_on_c, 0, 61, 62
2, 64557, Note_on_c, 0, 53, 65
2, 64561, Note_on_c, 0, 41, 61
2, 64564, Note_off_c, 0, 63, 64
2, 64579, Note_off_c, 0, 53, 64
2, 64582, Note_off_c, 0, 41, 64
2, 64628, Control_c, 0, 64, 0
2, 64631, Note_on_c, 0, 66, 67
2, 64635, Note_on_c, 0, 58, 82
2, 64635, Note_on_c, 0, 51, 74
2, 64637, Note_on_c, 0, 39, 62
2, 64639, Note_off_c, 0, 61, 64
2, 64650, Control_c, 0, 64, 127
2, 64669, Note_off_c, 0, 39, 64
2, 64670, Note_off_c, 0, 51, 64
2, 64706, Note_on_c, 0, 65, 69
2, 64709, Note_on_c, 0, 49, 74
2, 64710, Note_on_c, 0, 37, 69
2, 64717, Note_off_c, 0, 66, 64
2, 64718, Note_off_c, 0, 58, 64
2, 64725, Note_off_c, 0, 65, 64
2, 64733, Note_off_c, 0, 37, 64
2, 64744, Note_off_c, 0, 49, 64
2, 64787, Note_on_c, 0, 36, 58
2, 64788, Note_on_c, 0, 72, 65
2, 64791, Note_on_c, 0, 69, 65
2, 64791, Note_on_c, 0, 48, 68
2, 64794, Note_on_c, 0, 63, 76
2, 64817, Note_off_c, 0, 36, 64
2, 64822, Note_off_c, 0, 48, 64
2, 64827, Note_off_c, 0, 69, 64
2, 64831, Note_off_c, 0, 72, 64
2, 64832, Note_off_c, 0, 63, 64
2, 64884, Note_on_c, 0, 61, 69
2, 64886, Note_on_c, 0, 73, 73
2, 64888, Note_on_c, 0, 70, 68
2, 64889, Control_c, 0, 64, 0
2, 64892, Note_on_c, 0, 46, 79
2, 64892, Note_on_c, 0, 34, 68
2, 64911, Note_off_c, 0, 61, 64
2, 64912, Control_c, 0, 64, 127
2, 64956, Note_off_c, 0, 34, 64
2, 64956, Note_off_c, 0, 46, 64
2, 64957, Note_off_c, 0, 70, 64
2, 64978, Note_on_c, 0, 65, 73
2, 65001, Note_off_c, 0, 65, 64
2, 65006, Note_off_c, 0, 73, 64
2, 65054, Note_on_c, 0, 70, 73
2, 65054, Note_on_c, 0, 61, 62
2, 65056, Note_on_c, 0, 73, 88
2, 65058, Note_on_c, 0, 58, 62
2, 65059, Note_on_c, 0, 53, 52
2, 65116, Note_off_c, 0, 70, 64
2, 65117, Note_off_c, 0, 58, 64
2, 65130, Note_off_c, 0, 61, 64
2, 65133, Note_on_c, 0, 72, 68
2, 65137, Note_on_c, 0, 75, 86
2, 65142, Note_off_c, 0, 53, 64
2, 65148, Note_off_c, 0, 73, 64
2, 65197, Note_off_c, 0, 75, 64
2, 65202, Note_on_c, 0, 70, 73
2, 65205, Note_on_c, 0, 73, 91
2, 65207, Note_on_c, 0, 61, 57
2, 65207, Note_on_c, 0, 58, 62
2, 65210, Note_on_c, 0, 65, 62
2, 65213, Note_off_c, 0, 72, 64
2, 65228, Note_off_c, 0, 65, 64
2, 65232, Note_off_c, 0, 61, 64
2, 65236, Note_off_c, 0, 58, 64
2, 65280, Note_on_c, 0, 72, 62
2, 65285, Note_on_c, 0, 75, 61
2, 65288, Note_off_c, 0, 73, 64
2, 65292, Note_off_c, 0, 70, 64
2, 65312, Note_on_c, 0, 37, 78
2, 65332, Note_on_c, 0, 44, 78
2, 65345, Note_off_c, 0, 75, 64
2, 65353, Control_c, 0, 64, 0
2, 65356, Note_on_c, 0, 49, 78
2, 65361, Note_on_c, 0, 73, 67
2, 65363, Note_on_c, 0, 77, 80
2, 65364, Note_on_c, 0, 65, 67
2, 65375, Note_off_c, 0, 37, 64
2, 65376, Note_off_c, 0, 44, 64
2, 65376, Note_off_c, 0, 72, 64
2, 65376, Control_c, 0, 64, 127
2, 65380, Note_off_c, 0, 49, 64
2, 65423, Note_off_c, 0, 65, 64
2, 65442, Note_on_c, 0, 72, 61
2, 65450, Note_off_c, 0, 77, 64
2, 65453, Note_off_c, 0, 73, 64
2, 65513, Note_on_c, 0, 77, 86
2, 65513, Note_on_c, 0, 73, 67
2, 65513, Note_on_c, 0, 61, 67
2, 65514, Note_on_c, 0, 70, 73
2, 65514, Note_on_c, 0, 56, 46
2, 65514, Note_on_c, 0, 53, 80
2, 65524, Note_off_c, 0, 72, 64
2, 65538, Note_off_c, 0, 61, 64
2, 65544, Note_off_c, 0, 53, 64
2, 65544, Note_off_c, 0, 56, 64
2, 65547, Note_off_c, 0, 70, 64
2, 65569, Note_off_c, 0, 77, 64
2, 65587, Note_on_c, 0, 68, 70
2, 65594, Note_off_c, 0, 73, 64
2, 65629, Note_off_c, 0, 68, 64
2, 65663, Note_on_c, 0, 56, 64
2, 65664, Note_on_c, 0, 77, 92
2, 65664, Note_on_c, 0, 73, 67
2, 65664, Note_on_c, 0, 68, 73
2, 65664, Note_on_c, 0, 66, 67
2, 65664, Note_on_c, 0, 61, 80
2, 65714, Note_off_c, 0, 66, 64
2, 65714, Note_off_c, 0, 68, 64
2, 65715, Note_off_c, 0, 56, 64
2, 65716, Note_off_c, 0, 61, 64
2, 65728, Note_off_c, 0, 73, 64
2, 65738, Note_on_c, 0, 65, 73
2, 65751, Note_off_c, 0, 77, 64
2, 65782, Note_off_c, 0, 65, 64
2, 65817, Note_on_c, 0, 77, 94
2, 65819, Note_on_c, 0, 66, 64
2, 65820, Note_on_c, 0, 51, 90
2, 65822, Note_on_c, 0, 39, 86
2, 65829, Control_c, 0, 64, 0
2, 65846, Control_c, 0, 64, 127
2, 65877, Note_off_c, 0, 39, 64
2, 65886, Note_off_c, 0, 51, 64
2, 65894, Note_on_c, 0, 66, 67
2, 65895, Note_on_c, 0, 73, 65
2, 65898, Note_off_c, 0, 77, 64
2, 65904, Note_off_c, 0, 66, 64
2, 65918, Note_off_c, 0, 73, 64
2, 65928, Note_off_c, 0, 66, 64
2, 65968, Note_on_c, 0, 75, 67
2, 65970, Note_on_c, 0, 72, 67
2, 65971, Note_on_c, 0, 66, 60
2, 65974, Note_on_c, 0, 63, 48
2, 65974, Note_on_c, 0, 58, 62
2, 65997, Note_off_c, 0, 66, 64
2, 66015, Note_off_c, 0, 63, 64
2, 66022, Note_off_c, 0, 58, 64
2, 66042, Note_on_c, 0, 70, 67
2, 66044, Note_on_c, 0, 66, 73
2, 66045, Note_off_c, 0, 72, 64
2, 66049, Note_off_c, 0, 75, 64
2, 66075, Note_off_c, 0, 70, 64
2, 66077, Note_off_c, 0, 66, 64
2, 66125, Note_on_c, 0, 54, 78
2, 66128, Note_on_c, 0, 42, 78
2, 66130, Note_on_c, 0, 73, 67
2, 66130, Note_on_c, 0, 63, 74
2, 66133, Control_c, 0, 64, 0
2, 66159, Control_c, 0, 64, 127
2, 66200, Note_off_c, 0, 63, 64
2, 66215, Note_off_c, 0, 73, 64
2, 66216, Note_on_c, 0, 72, 67
2, 66216, Note_on_c, 0, 64, 69
2, 66241, Note_off_c, 0, 64, 64
2, 66249, Note_off_c, 0, 54, 64
2, 66253, Note_off_c, 0, 42, 64
2, 66257, Note_off_c, 0, 72, 64
2, 66318, Note_on_c, 0, 69, 71
2, 66321, Note_on_c, 0, 65, 68
2, 66323, Note_on_c, 0, 53, 91
2, 66323, Note_on_c, 0, 41, 87
2, 66329, Control_c, 0, 64, 0
2, 66347, Note_off_c, 0, 41, 64
2, 66351, Control_c, 0, 64, 127
2, 66356, Note_off_c, 0, 53, 64
2, 66422, Note_off_c, 0, 65, 64
2, 66426, Note_on_c, 0, 66, 50
2, 66428, Note_off_c, 0, 69, 64
2, 66428, Note_on_c, 0, 54, 38
2, 66464, Note_off_c, 0, 54, 64
2, 66468, Note_off_c, 0, 66, 64
2, 66513, Note_on_c, 0, 72, 67
2, 66514, Note_on_c, 0, 65, 42
2, 66516, Note_on_c, 0, 69, 69
2, 66518, Note_on_c, 0, 53, 61
2, 66534, Note_off_c, 0, 53, 64
2, 66537, Note_off_c, 0, 65, 64
2, 66578, Note_off_c, 0, 69, 64
2, 66586, Note_on_c, 0, 64, 73
2, 66589, Note_on_c, 0, 52, 62
2, 66602, Note_off_c, 0, 52, 64
2, 66604, Note_off_c, 0, 64, 64
2, 66648, Note_on_c, 0, 65, 38
2, 66657, Note_on_c, 0, 69, 57
2, 66658, Note_off_c, 0, 72, 64
2, 66664, Note_on_c, 0, 63, 31
2, 66665, Note_on_c, 0, 77, 63
2, 66666, Note_on_c, 0, 51, 33
2, 66687, Note_off_c, 0, 63, 64
2, 66688, Note_off_c, 0, 51, 64
2, 66722, Note_off_c, 0, 69, 64
2, 66732, Note_on_c, 0, 60, 56
2, 66732, Note_on_c, 0, 48, 67
2, 66749, Note_off_c, 0, 65, 64
2, 66752, Note_off_c, 0, 48, 64
2, 66752, Note_off_c, 0, 60, 64
2, 66797, Note_on_c, 0, 70, 62
2, 66798, Note_on_c, 0, 49, 67
2, 66799, Note_on_c, 0, 64, 56
2, 66802, Note_on_c, 0, 76, 71
2, 66802, Note_on_c, 0, 61, 76
2, 66817, Note_off_c, 0, 77, 64
2, 66820, Note_off_c, 0, 61, 64
2, 66820, Note_off_c, 0, 49, 64
2, 66867, Note_on_c, 0, 58, 73
2, 66872, Note_on_c, 0, 45, 69
2, 66886, Note_off_c, 0, 45, 64
2, 66888, Note_off_c, 0, 58, 64
2, 66929, Note_off_c, 0, 76, 64
2, 66936, Note_off_c, 0, 64, 64
2, 66937, Note_off_c, 0, 70, 64
2, 66945, Note_on_c, 0, 43, 61
2, 66947, Note_on_c, 0, 70, 70
2, 66947, Note_on_c, 0, 55, 73
2, 66949, Note_on_c, 0, 64, 68
2, 66952, Note_on_c, 0, 58, 69
2, 66952, Note_on_c, 0, 57, 67
2, 66958, Note_off_c, 0, 57, 64
2, 66967, Note_off_c, 0, 55, 64
2, 66968, Note_off_c, 0, 43, 64
2, 67016, Note_on_c, 0, 42, 58
2, 67017, Note_on_c, 0, 54, 79
2, 67025, Note_on_c, 0, 57, 61
2, 67033, Note_off_c, 0, 54, 64
2, 67041, Note_off_c, 0, 57, 64
2, 67046, Note_off_c, 0, 42, 64
2, 67061, Note_off_c, 0, 70, 64
2, 67074, Note_off_c, 0, 64, 64
2, 67085, Note_on_c, 0, 57, 73
2, 67092, Note_off_c, 0, 58, 64
2, 67100, Note_on_c, 0, 49, 62
2, 67104, Note_on_c, 0, 37, 58
2, 67112, Note_on_c, 0, 73, 78
2, 67120, Note_on_c, 0, 64, 58
2, 67134, Note_off_c, 0, 37, 64
2, 67153, Note_off_c, 0, 49, 64
2, 67170, Note_off_c, 0, 57, 64
2, 67173, Note_on_c, 0, 58, 82
2, 67182, Note_on_c, 0, 31, 69
2, 67183, Note_on_c, 0, 42, 83
2, 67209, Note_off_c, 0, 42, 64
2, 67212, Note_off_c, 0, 31, 64
2, 67247, Control_c, 0, 64, 0
2, 67248, Note_on_c, 0, 29, 72
2, 67249, Note_on_c, 0, 41, 94
2, 67252, Note_off_c, 0, 64, 64
2, 67256, Note_on_c, 0, 69, 70
2, 67256, Note_on_c, 0, 65, 58
2, 67258, Note_off_c, 0, 73, 64
2, 67259, Note_on_c, 0, 60, 73
2, 67260, Note_off_c, 0, 58, 64
2, 67268, Control_c, 0, 64, 127
2, 67278, Note_off_c, 0, 29, 64
2, 67279, Note_off_c, 0, 41, 64
2, 67320, Note_on_c, 0, 66, 58
2, 67320, Note_on_c, 0, 54, 60
2, 67350, Note_off_c, 0, 54, 64
2, 67350, Note_off_c, 0, 66, 64
2, 67365, Note_off_c, 0, 60, 64
2, 67366, Note_off_c, 0, 69, 64
2, 67376, Note_off_c, 0, 65, 64
2, 67406, Note_on_c, 0, 81, 67
2, 67408, Note_on_c, 0, 84, 88
2, 67408, Note_on_c, 0, 65, 68
2, 67409, Note_on_c, 0, 53, 58
2, 67411, Note_on_c, 0, 72, 63
2, 67433, Note_off_c, 0, 65, 64
2, 67434, Note_off_c, 0, 53, 64
2, 67466, Note_on_c, 0, 64, 61
2, 67468, Note_on_c, 0, 52, 67
2, 67490, Note_off_c, 0, 64, 64
2, 67492, Note_off_c, 0, 52, 64
2, 67507, Note_off_c, 0, 81, 64
2, 67508, Note_off_c, 0, 84, 64
2, 67511, Note_off_c, 0, 72, 64
2, 67524, Note_on_c, 0, 77, 50
2, 67536, Note_on_c, 0, 81, 54
2, 67546, Note_on_c, 0, 89, 88
2, 67548, Note_on_c, 0, 63, 60
2, 67549, Note_on_c, 0, 51, 60
2, 67573, Note_off_c, 0, 63, 64
2, 67574, Note_off_c, 0, 51, 64
2, 67615, Note_on_c, 0, 60, 36
2, 67617, Note_on_c, 0, 48, 53
2, 67624, Note_off_c, 0, 77, 64
2, 67638, Note_off_c, 0, 81, 64
2, 67641, Note_off_c, 0, 60, 64
2, 67642, Note_off_c, 0, 48, 64
2, 67648, Note_off_c, 0, 89, 64
2, 67682, Note_on_c, 0, 82, 65
2, 67683, Note_on_c, 0, 61, 73
2, 67684, Note_on_c, 0, 88, 92
2, 67686, Note_on_c, 0, 76, 62
2, 67686, Note_on_c, 0, 49, 67
2, 67705, Note_off_c, 0, 49, 64
2, 67705, Note_off_c, 0, 61, 64
2, 67750, Note_on_c, 0, 58, 73
2, 67754, Note_on_c, 0, 44, 55
2, 67761, Note_off_c, 0, 76, 64
2, 67771, Note_off_c, 0, 58, 64
2, 67775, Note_off_c, 0, 44, 64
2, 67783, Note_off_c, 0, 82, 64
2, 67786, Note_off_c, 0, 88, 64
2, 67814, Note_on_c, 0, 70, 78
2, 67822, Note_on_c, 0, 55, 60
2, 67823, Note_on_c, 0, 76, 62
2, 67823, Note_on_c, 0, 43, 35
2, 67829, Note_on_c, 0, 82, 92
2, 67845, Note_off_c, 0, 43, 64
2, 67846, Note_off_c, 0, 55, 64
2, 67852, Note_off_c, 0, 70, 64
2, 67893, Note_on_c, 0, 54, 73
2, 67894, Note_on_c, 0, 69, 73
2, 67896, Note_on_c, 0, 42, 58
2, 67917, Note_off_c, 0, 69, 64
2, 67923, Note_off_c, 0, 54, 64
2, 67925, Note_off_c, 0, 76, 64
2, 67926, Note_off_c, 0, 42, 64
2, 67930, Note_off_c, 0, 82, 64
2, 67965, Note_on_c, 0, 76, 67
2, 67968, Note_on_c, 0, 69, 63
2, 67973, Note_on_c, 0, 49, 85
2, 67974, Note_on_c, 0, 37, 58
2, 67979, Note_on_c, 0, 85, 99
2, 68008, Note_off_c, 0, 69, 64
2, 68018, Note_off_c, 0, 49, 64
2, 68020, Note_off_c, 0, 37, 64
2, 68042, Note_on_c, 0, 70, 83
2, 68044, Note_on_c, 0, 42, 67
2, 68045, Note_on_c, 0, 30, 58
2, 68066, Note_off_c, 0, 76, 64
2, 68073, Note_off_c, 0, 70, 64
2, 68075, Note_off_c, 0, 30, 64
2, 68075, Note_off_c, 0, 42, 64
2, 68081, Note_off_c, 0, 85, 64
2, 68128, Note_on_c, 0, 85, 69
2, 68128, Note_on_c, 0, 28, 84
2, 68132, Note_on_c, 0, 73, 86
2, 68132, Note_on_c, 0, 40, 82
2, 68132, Control_c, 0, 64, 0
2, 68136, Note_on_c, 0, 82, 71
2, 68152, Control_c, 0, 64, 127
2, 68188, Note_off_c, 0, 82, 64
2, 68196, Note_off_c, 0, 85, 64
2, 68209, Note_off_c, 0, 73, 64
2, 68220, Note_off_c, 0, 28, 64
2, 68223, Note_off_c, 0, 40, 64
2, 68228, Note_on_c, 0, 81, 69
2, 68230, Note_on_c, 0, 72, 70
2, 68232, Note_on_c, 0, 84, 73
2, 68232, Note_on_c, 0, 41, 82
2, 68232, Note_on_c, 0, 29, 84
2, 68235, Control_c, 0, 64, 0
2, 68247, Control_c, 0, 64, 127
2, 68280, Note_off_c, 0, 81, 64
2, 68287, Note_off_c, 0, 84, 64
2, 68287, Note_off_c, 0, 72, 64
2, 68292, Note_off_c, 0, 29, 64
2, 68292, Note_off_c, 0, 41, 64
2, 68340, Control_c, 0, 64, 0
2, 68344, Note_on_c, 0, 66, 73
2, 68344, Note_on_c, 0, 54, 61
2, 68345, Note_on_c, 0, 81, 70
2, 68345, Note_on_c, 0, 72, 73
2, 68350, Note_on_c, 0, 84, 69
2, 68355, Control_c, 0, 64, 127
2, 68378, Note_off_c, 0, 54, 64
2, 68379, Note_off_c, 0, 72, 64
2, 68382, Note_off_c, 0, 84, 64
2, 68382, Note_off_c, 0, 81, 64
2, 68389, Note_off_c, 0, 66, 64
2, 68436, Note_on_c, 0, 82, 64
2, 68438, Note_on_c, 0, 73, 74
2, 68440, Note_on_c, 0, 85, 65
2, 68442, Note_on_c, 0, 65, 62
2, 68442, Note_on_c, 0, 53, 63
2, 68461, Note_off_c, 0, 73, 64
2, 68462, Note_off_c, 0, 53, 64
2, 68465, Note_off_c, 0, 65, 64
2, 68468, Note_off_c, 0, 82, 64
2, 68469, Note_off_c, 0, 85, 64
2, 68519, Note_on_c, 0, 75, 73
2, 68522, Note_on_c, 0, 84, 73
2, 68522, Note_on_c, 0, 63, 73
2, 68524, Note_on_c, 0, 87, 71
2, 68524, Note_on_c, 0, 51, 67
2, 68540, Note_off_c, 0, 75, 64
2, 68544, Note_off_c, 0, 51, 64
2, 68544, Note_off_c, 0, 63, 64
2, 68548, Note_off_c, 0, 84, 64
2, 68556, Note_off_c, 0, 87, 64
2, 68598, Note_on_c, 0, 85, 76
2, 68598, Note_on_c, 0, 49, 73
2, 68600, Note_on_c, 0, 89, 73
2, 68600, Note_on_c, 0, 61, 76
2, 68603, Note_on_c, 0, 77, 62
2, 68613, Note_off_c, 0, 77, 64
2, 68618, Note_off_c, 0, 49, 64
2, 68620, Note_off_c, 0, 85, 64
2, 68621, Note_off_c, 0, 61, 64
2, 68623, Note_off_c, 0, 89, 64
2, 68666, Note_on_c, 0, 78, 73
2, 68669, Note_on_c, 0, 90, 78
2, 68669, Note_on_c, 0, 87, 83
2, 68671, Note_on_c, 0, 60, 70
2, 68671, Note_on_c, 0, 48, 67
2, 68692, Note_off_c, 0, 48, 64
2, 68695, Note_off_c, 0, 60, 64
2, 68734, Note_on_c, 0, 58, 87
2, 68735, Note_on_c, 0, 45, 74
2, 68752, Note_off_c, 0, 45, 64
2, 68755, Note_off_c, 0, 58, 64
2, 68757, Note_off_c, 0, 78, 64
2, 68761, Note_off_c, 0, 87, 64
2, 68763, Note_off_c, 0, 90, 64
2, 68787, Control_c, 0, 64, 0
2, 68795, Note_on_c, 0, 90, 78
2, 68795, Note_on_c, 0, 87, 91
2, 68795, Note_on_c, 0, 78, 78
2, 68795, Note_on_c, 0, 57, 74
2, 68798, Note_on_c, 0, 45, 65
2, 68801, Control_c, 0, 64, 127
2, 68813, Note_off_c, 0, 57, 64
2, 68816, Note_off_c, 0, 45, 64
2, 68851, Note_on_c, 0, 42, 78
2, 68855, Note_on_c, 0, 54, 82
2, 68862, Note_off_c, 0, 90, 64
2, 68863, Note_off_c, 0, 87, 64
2, 68869, Note_off_c, 0, 78, 64
2, 68870, Note_off_c, 0, 42, 64
2, 68871, Note_off_c, 0, 54, 64
2, 68908, Note_on_c, 0, 90, 76
2, 68908, Note_on_c, 0, 78, 79
2, 68910, Note_on_c, 0, 87, 86
2, 68910, Note_on_c, 0, 51, 86
2, 68910, Note_on_c, 0, 39, 78
2, 68923, Note_off_c, 0, 39, 64
2, 68926, Note_off_c, 0, 51, 64
2, 68952, Note_off_c, 0, 87, 64
2, 68957, Note_off_c, 0, 90, 64
2, 68958, Note_off_c, 0, 78, 64
2, 68961, Note_on_c, 0, 48, 77
2, 68964, Note_on_c, 0, 36, 67
2, 68976, Note_off_c, 0, 36, 64
2, 68979, Note_off_c, 0, 48, 64
2, 69017, Note_on_c, 0, 90, 73
2, 69020, Note_on_c, 0, 87, 73
2, 69020, Note_on_c, 0, 78, 89
2, 69024, Note_on_c, 0, 45, 86
2, 69024, Note_on_c, 0, 33, 87
2, 69025, Control_c, 0, 64, 0
2, 69042, Control_c, 0, 64, 127
2, 69052, Note_off_c, 0, 90, 64
2, 69058, Note_off_c, 0, 87, 64
2, 69063, Note_off_c, 0, 78, 64
2, 69084, Note_off_c, 0, 33, 64
2, 69092, Note_off_c, 0, 45, 64
2, 69322, Note_on_c, 0, 63, 73
2, 69325, Note_on_c, 0, 54, 76
2, 69326, Note_on_c, 0, 59, 74
2, 69328, Note_on_c, 0, 45, 62
2, 69330, Note_on_c, 0, 33, 58
2, 69355, Control_c, 0, 64, 127
2, 69436, Note_off_c, 0, 63, 64
2, 69450, Note_off_c, 0, 33, 64
2, 69457, Note_off_c, 0, 45, 64
2, 69467, Note_off_c, 0, 54, 64
2, 69470, Note_off_c, 0, 59, 64
2, 69496, Note_on_c, 0, 63, 73
2, 69500, Note_on_c, 0, 54, 78
2, 69500, Note_on_c, 0, 46, 74
2, 69501, Note_on_c, 0, 58, 76
2, 69504, Note_on_c, 0, 34, 58
2, 69506, Control_c, 0, 64, 0
2, 69532, Control_c, 0, 64, 127
2, 69616, Note_off_c, 0, 63, 64
2, 69619, Note_off_c, 0, 46, 64
2, 69624, Note_off_c, 0, 34, 64
2, 69632, Note_off_c, 0, 58, 64
2, 69636, Note_off_c, 0, 54, 64
2, 69663, Note_on_c, 0, 63, 76
2, 69666, Note_on_c, 0, 58, 82
2, 69666, Note_on_c, 0, 54, 74
2, 69668, Note_on_c, 0, 46, 87
2, 69672, Note_on_c, 0, 34, 58
2, 69675, Control_c, 0, 64, 0
2, 69693, Control_c, 0, 64, 127
2, 69764, Note_off_c, 0, 58, 64
2, 69788, Note_off_c, 0, 46, 64
2, 69792, Note_off_c, 0, 34, 64
2, 69794, Note_off_c, 0, 63, 64
2, 69814, Note_off_c, 0, 54, 64
2, 69852, Note_on_c, 0, 51, 77
2, 69864, Note_on_c, 0, 57, 71
2, 69872, Note_on_c, 0, 47, 95
2, 69876, Note_on_c, 0, 35, 87
2, 69878, Note_on_c, 0, 66, 76
2, 69895, Control_c, 0, 64, 0
2, 69934, Control_c, 0, 64, 127
2, 69963, Note_off_c, 0, 51, 64
2, 69996, Note_off_c, 0, 35, 64
2, 70003, Note_off_c, 0, 57, 64
2, 70011, Note_off_c, 0, 66, 64
2, 70044, Note_on_c, 0, 57, 74
2, 70044, Note_on_c, 0, 54, 73
2, 70048, Note_on_c, 0, 39, 86
2, 70048, Note_on_c, 0, 27, 87
2, 70056, Note_on_c, 0, 66, 83
2, 70059, Note_off_c, 0, 47, 64
2, 70072, Control_c, 0, 64, 0
2, 70098, Control_c, 0, 64, 127
2, 70145, Note_off_c, 0, 66, 64
2, 70165, Note_off_c, 0, 54, 64
2, 70220, Note_off_c, 0, 57, 64
2, 70223, Note_on_c, 0, 61, 64
2, 70226, Note_on_c, 0, 42, 86
2, 70226, Note_on_c, 0, 30, 87
2, 70231, Note_off_c, 0, 39, 64
2, 70232, Note_off_c, 0, 27, 64
2, 70239, Control_c, 0, 64, 0
2, 70269, Control_c, 0, 64, 127
2, 70313, Note_on_c, 0, 51, 62
2, 70317, Note_on_c, 0, 59, 58
2, 70321, Note_on_c, 0, 57, 50
2, 70340, Note_off_c, 0, 51, 64
2, 70340, Note_off_c, 0, 42, 64
2, 70343, Note_off_c, 0, 61, 64
2, 70346, Note_off_c, 0, 30, 64
2, 70352, Note_on_c, 0, 64, 70
2, 70353, Note_off_c, 0, 59, 64
2, 70358, Note_off_c, 0, 57, 64
2, 70406, Note_off_c, 0, 64, 64
2, 70410, Note_on_c, 0, 63, 76
2, 70412, Note_on_c, 0, 59, 74
2, 70413, Note_on_c, 0, 54, 76
2, 70414, Note_on_c, 0, 57, 67
2, 70431, Note_off_c, 0, 57, 64
2, 70443, Note_off_c, 0, 59, 64
2, 70458, Note_off_c, 0, 63, 64
2, 70465, Note_on_c, 0, 68, 78
2, 70472, Note_on_c, 0, 59, 69
2, 70503, Note_off_c, 0, 59, 64
2, 70516, Note_on_c, 0, 66, 86
2, 70516, Note_on_c, 0, 63, 68
2, 70516, Note_on_c, 0, 57, 58
2, 70519, Note_on_c, 0, 63, 78
2, 70519, Note_on_c, 0, 59, 47
2, 70521, Note_off_c, 0, 54, 64
2, 70524, Note_off_c, 0, 68, 64
2, 70540, Note_off_c, 0, 59, 64
2, 70544, Note_off_c, 0, 63, 64
2, 70546, Note_off_c, 0, 57, 64
2, 70559, Note_off_c, 0, 66, 64
2, 70579, Control_c, 0, 64, 0
2, 70581, Note_on_c, 0, 44, 86
2, 70582, Note_on_c, 0, 32, 87
2, 70585, Note_on_c, 0, 71, 73
2, 70604, Control_c, 0, 64, 127
2, 70613, Note_off_c, 0, 63, 64
2, 70631, Note_on_c, 0, 66, 65
2, 70634, Note_on_c, 0, 62, 65
2, 70638, Note_on_c, 0, 59, 67
2, 70663, Note_off_c, 0, 59, 64
2, 70663, Note_off_c, 0, 66, 64
2, 70667, Note_off_c, 0, 62, 64
2, 70685, Note_on_c, 0, 66, 73
2, 70702, Note_off_c, 0, 32, 64
2, 70710, Note_off_c, 0, 44, 64
2, 70733, Note_on_c, 0, 56, 70
2, 70736, Note_on_c, 0, 65, 67
2, 70736, Note_on_c, 0, 62, 58
2, 70736, Note_on_c, 0, 59, 58
2, 70748, Note_off_c, 0, 71, 64
2, 70753, Note_off_c, 0, 66, 64
2, 70766, Note_off_c, 0, 59, 64
2, 70766, Note_off_c, 0, 62, 64
2, 70780, Note_off_c, 0, 65, 64
2, 70782, Note_on_c, 0, 69, 77
2, 70792, Note_on_c, 0, 61, 77
2, 70823, Note_off_c, 0, 61, 64
2, 70827, Note_on_c, 0, 68, 70
2, 70828, Note_on_c, 0, 65, 58
2, 70829, Note_off_c, 0, 69, 64
2, 70831, Note_on_c, 0, 59, 69
2, 70836, Note_off_c, 0, 56, 64
2, 70857, Note_off_c, 0, 68, 64
2, 70858, Note_off_c, 0, 65, 64
2, 70874, Note_off_c, 0, 59, 64
2, 70880, Control_c, 0, 64, 0
2, 70882, Note_on_c, 0, 73, 85
2, 70886, Note_on_c, 0, 46, 86
2, 70888, Note_on_c, 0, 34, 87
2, 70903, Control_c, 0, 64, 127
2, 70928, Note_on_c, 0, 64, 74
2, 70931, Note_on_c, 0, 61, 73
2, 70933, Note_on_c, 0, 68, 73
2, 70946, Note_off_c, 0, 61, 64
2, 70950, Note_off_c, 0, 68, 64
2, 70960, Note_off_c, 0, 64, 64
2, 70976, Note_on_c, 0, 68, 74
2, 71000, Note_off_c, 0, 73, 64
2, 71008, Note_off_c, 0, 34, 64
2, 71011, Note_off_c, 0, 46, 64
2, 71014, Note_off_c, 0, 68, 64
2, 71018, Note_on_c, 0, 58, 67
2, 71024, Note_on_c, 0, 67, 68
2, 71024, Note_on_c, 0, 63, 58
2, 71024, Note_on_c, 0, 61, 58
2, 71054, Note_off_c, 0, 61, 64
2, 71054, Note_off_c, 0, 63, 64
2, 71062, Note_off_c, 0, 67, 64
2, 71066, Note_on_c, 0, 71, 74
2, 71070, Note_on_c, 0, 63, 76
2, 71107, Note_on_c, 0, 61, 67
2, 71109, Note_off_c, 0, 63, 64
2, 71109, Note_on_c, 0, 70, 83
2, 71112, Note_off_c, 0, 58, 64
2, 71113, Note_off_c, 0, 71, 64
2, 71135, Note_off_c, 0, 70, 64
2, 71157, Note_on_c, 0, 75, 87
2, 71160, Note_on_c, 0, 48, 86
2, 71160, Note_on_c, 0, 36, 87
2, 71164, Note_off_c, 0, 61, 64
2, 71199, Note_on_c, 0, 65, 82
2, 71199, Note_on_c, 0, 63, 76
2, 71203, Note_on_c, 0, 70, 73
2, 71216, Note_off_c, 0, 63, 64
2, 71218, Note_off_c, 0, 70, 64
2, 71222, Note_off_c, 0, 65, 64
2, 71246, Note_on_c, 0, 70, 76
2, 71274, Note_off_c, 0, 48, 64
2, 71275, Note_off_c, 0, 70, 64
2, 71280, Note_off_c, 0, 36, 64
2, 71284, Note_on_c, 0, 63, 58
2, 71284, Note_on_c, 0, 60, 67
2, 71286, Note_on_c, 0, 69, 67
2, 71288, Note_on_c, 0, 65, 58
2, 71292, Note_off_c, 0, 75, 64
2, 71314, Note_off_c, 0, 63, 64
2, 71318, Note_off_c, 0, 65, 64
2, 71327, Note_off_c, 0, 69, 64
2, 71328, Note_on_c, 0, 73, 69
2, 71331, Note_on_c, 0, 65, 56
2, 71370, Note_on_c, 0, 63, 67
2, 71372, Note_off_c, 0, 73, 64
2, 71374, Note_on_c, 0, 72, 67
2, 71376, Note_on_c, 0, 69, 58
2, 71376, Note_on_c, 0, 66, 58
2, 71377, Note_off_c, 0, 60, 64
2, 71380, Note_off_c, 0, 65, 64
2, 71394, Note_off_c, 0, 72, 64
2, 71406, Note_off_c, 0, 66, 64
2, 71406, Note_off_c, 0, 69, 64
2, 71436, Note_off_c, 0, 63, 64
2, 71459, Note_on_c, 0, 78, 67
2, 71462, Note_on_c, 0, 29, 87
2, 71463, Note_on_c, 0, 41, 83
2, 71468, Control_c, 0, 64, 0
2, 71490, Control_c, 0, 64, 127
2, 71516, Note_off_c, 0, 78, 64
2, 71520, Note_on_c, 0, 75, 58
2, 71520, Note_on_c, 0, 69, 58
2, 71523, Note_on_c, 0, 77, 42
2, 71543, Note_off_c, 0, 77, 64
2, 71550, Note_off_c, 0, 69, 64
2, 71550, Note_off_c, 0, 75, 64
2, 71570, Note_on_c, 0, 82, 83
2, 71582, Note_off_c, 0, 29, 64
2, 71588, Note_off_c, 0, 41, 64
2, 71595, Note_off_c, 0, 82, 64
2, 71616, Note_on_c, 0, 75, 58
2, 71617, Note_on_c, 0, 72, 62
2, 71618, Note_on_c, 0, 81, 69
2, 71618, Note_on_c, 0, 77, 68
2, 71620, Note_on_c, 0, 75, 73
2, 71642, Note_off_c, 0, 75, 64
2, 71646, Note_off_c, 0, 75, 64
2, 71649, Note_off_c, 0, 77, 64
2, 71653, Note_off_c, 0, 81, 64
2, 71659, Note_on_c, 0, 85, 78
2, 71664, Note_on_c, 0, 77, 60
2, 71682, Note_off_c, 0, 72, 64
2, 71692, Note_on_c, 0, 81, 58
2, 71692, Note_on_c, 0, 75, 58
2, 71693, Note_off_c, 0, 85, 64
2, 71694, Note_on_c, 0, 84, 62
2, 71698, Note_on_c, 0, 75, 68
2, 71706, Note_off_c, 0, 77, 64
2, 71719, Note_off_c, 0, 84, 64
2, 71722, Note_off_c, 0, 75, 64
2, 71722, Note_off_c, 0, 81, 64
2, 71726, Note_off_c, 0, 75, 64
2, 71742, Note_on_c, 0, 65, 70
2, 71746, Note_on_c, 0, 89, 69
2, 71780, Note_off_c, 0, 89, 64
2, 71781, Note_on_c, 0, 87, 62
2, 71784, Note_on_c, 0, 81, 58
2, 71785, Note_on_c, 0, 84, 57
2, 71814, Note_off_c, 0, 84, 64
2, 71814, Note_off_c, 0, 81, 64
2, 71817, Note_off_c, 0, 87, 64
2, 71821, Note_on_c, 0, 90, 71
2, 71852, Note_on_c, 0, 89, 58
2, 71856, Note_on_c, 0, 81, 58
2, 71857, Note_on_c, 0, 87, 82
2, 71860, Note_on_c, 0, 84, 70
2, 71864, Note_off_c, 0, 90, 64
2, 71882, Note_off_c, 0, 89, 64
2, 71886, Note_off_c, 0, 81, 64
2, 71887, Note_off_c, 0, 65, 64
2, 71892, Note_off_c, 0, 87, 64
2, 71894, Note_on_c, 0, 91, 85
2, 71898, Note_off_c, 0, 84, 64
2, 71898, Note_on_c, 0, 72, 58
2, 71928, Note_on_c, 0, 89, 58
2, 71928, Note_on_c, 0, 81, 58
2, 71931, Note_on_c, 0, 87, 78
2, 71932, Note_on_c, 0, 84, 61
2, 71939, Note_off_c, 0, 91, 64
2, 71958, Note_off_c, 0, 81, 64
2, 71958, Note_off_c, 0, 89, 64
2, 71970, Note_off_c, 0, 87, 64
2, 71970, Note_on_c, 0, 90, 49
2, 71972, Note_off_c, 0, 84, 64
2, 71972, Note_on_c, 0, 65, 68
2, 71977, Note_off_c, 0, 72, 64
2, 72000, Note_on_c, 0, 89, 58
2, 72003, Note_on_c, 0, 87, 78
2, 72004, Note_off_c, 0, 65, 64
2, 72004, Note_on_c, 0, 81, 68
2, 72005, Note_on_c, 0, 84, 62
2, 72023, Note_on_c, 0, 90, 26
2, 72030, Note_off_c, 0, 84, 64
2, 72030, Note_off_c, 0, 89, 64
2, 72035, Note_off_c, 0, 87, 64
2, 72036, Note_off_c, 0, 90, 64
2, 72041, Note_on_c, 0, 91, 76
2, 72045, Note_on_c, 0, 72, 61
2, 72048, Note_off_c, 0, 81, 64
2, 72050, Note_off_c, 0, 90, 64
2, 72072, Note_on_c, 0, 87, 79
2, 72076, Note_on_c, 0, 89, 58
2, 72076, Note_on_c, 0, 84, 61
2, 72078, Note_on_c, 0, 81, 68
2, 72081, Note_off_c, 0, 91, 64
2, 72082, Note_off_c, 0, 72, 64
2, 72106, Note_off_c, 0, 89, 64
2, 72113, Note_on_c, 0, 90, 82
2, 72114, Note_on_c, 0, 65, 71
2, 72121, Note_off_c, 0, 87, 64
2, 72122, Note_off_c, 0, 81, 64
2, 72128, Note_off_c, 0, 84, 64
2, 72147, Note_on_c, 0, 87, 87
2, 72148, Note_on_c, 0, 89, 58
2, 72148, Note_on_c, 0, 81, 68
2, 72149, Note_on_c, 0, 84, 67
2, 72152, Note_off_c, 0, 65, 64
2, 72155, Note_off_c, 0, 90, 64
2, 72178, Note_off_c, 0, 89, 64
2, 72183, Note_on_c, 0, 91, 73
2, 72186, Note_on_c, 0, 72, 67
2, 72193, Note_off_c, 0, 87, 64
2, 72196, Note_off_c, 0, 84, 64
2, 72214, Note_on_c, 0, 89, 61
2, 72215, Note_on_c, 0, 87, 73
2, 72216, Note_on_c, 0, 84, 41
2, 72218, Note_on_c, 0, 81, 68
2, 72228, Note_off_c, 0, 91, 64
2, 72230, Note_off_c, 0, 72, 64
2, 72231, Note_off_c, 0, 81, 64
2, 72233, Note_off_c, 0, 81, 64
2, 72251, Note_off_c, 0, 84, 64
2, 72253, Note_off_c, 0, 87, 64
2, 72256, Note_on_c, 0, 90, 73
2, 72258, Note_off_c, 0, 89, 64
2, 72261, Note_on_c, 0, 65, 70
2, 72286, Note_on_c, 0, 81, 68
2, 72287, Note_on_c, 0, 87, 83
2, 72288, Note_on_c, 0, 89, 58
2, 72289, Note_on_c, 0, 84, 59
2, 72305, Note_off_c, 0, 90, 64
2, 72318, Note_off_c, 0, 89, 64
2, 72328, Note_on_c, 0, 91, 73
2, 72333, Note_on_c, 0, 72, 67
2, 72338, Note_off_c, 0, 87, 64
2, 72356, Note_off_c, 0, 84, 64
2, 72359, Note_off_c, 0, 81, 64
2, 72372, Note_on_c, 0, 89, 58
2, 72372, Note_on_c, 0, 87, 58
2, 72372, Note_on_c, 0, 81, 68
2, 72374, Note_on_c, 0, 84, 58
2, 72379, Note_off_c, 0, 91, 64
2, 72402, Note_off_c, 0, 87, 64
2, 72402, Note_off_c, 0, 89, 64
2, 72407, Note_off_c, 0, 84, 64
2, 72416, Note_on_c, 0, 88, 58
2, 72422, Note_on_c, 0, 75, 77
2, 72446, Note_off_c, 0, 88, 64
2, 72480, Note_on_c, 0, 89, 48
2, 72513, Note_off_c, 0, 89, 64
2, 72517, Note_on_c, 0, 101, 64
2, 72554, Note_on_c, 0, 90, 85
2, 72556, Note_off_c, 0, 101, 64
2, 72588, Note_off_c, 0, 90, 64
2, 72588, Note_on_c, 0, 101, 74
2, 72620, Note_on_c, 0, 91, 78
2, 72624, Note_off_c, 0, 101, 64
2, 72647, Note_off_c, 0, 91, 64
2, 72651, Note_on_c, 0, 92, 69
2, 72684, Note_on_c, 0, 93, 67
2, 72692, Note_off_c, 0, 92, 64
2, 72717, Note_on_c, 0, 98, 74
2, 72731, Note_off_c, 0, 93, 64
2, 72748, Note_on_c, 0, 96, 73
2, 72753, Control_c, 0, 64, 0
2, 72782, Note_on_c, 0, 94, 73
2, 72796, Note_off_c, 0, 98, 64
2, 72807, Note_off_c, 0, 96, 64
2, 72813, Note_on_c, 0, 91, 62
2, 72827, Note_off_c, 0, 94, 64
2, 72842, Note_off_c, 0, 91, 64
2, 72843, Note_on_c, 0, 89, 73
2, 72851, Note_off_c, 0, 75, 64
2, 72851, Note_off_c, 0, 81, 64
2, 72852, Note_off_c, 0, 65, 64
2, 72852, Note_off_c, 0, 72, 64
2, 72867, Note_on_c, 0, 86, 74
2, 72877, Note_off_c, 0, 89, 64
2, 72900, Note_on_c, 0, 87, 73
2, 72909, Note_off_c, 0, 86, 64
2, 72931, Note_on_c, 0, 91, 62
2, 72938, Note_off_c, 0, 87, 64
2, 72962, Note_on_c, 0, 89, 61
2, 72973, Note_off_c, 0, 91, 64
2, 72986, Note_on_c, 0, 87, 71
2, 73006, Note_off_c, 0, 89, 64
2, 73014, Note_on_c, 0, 84, 62
2, 73028, Note_off_c, 0, 87, 64
2, 73043, Note_on_c, 0, 81, 71
2, 73044, Note_off_c, 0, 84, 64
2, 73071, Note_on_c, 0, 82, 78
2, 73088, Note_off_c, 0, 81, 64
2, 73101, Note_on_c, 0, 86, 71
2, 73107, Note_off_c, 0, 82, 64
2, 73133, Note_on_c, 0, 84, 58
2, 73142, Note_off_c, 0, 86, 64
2, 73157, Note_on_c, 0, 82, 58
2, 73176, Note_off_c, 0, 84, 64
2, 73184, Note_on_c, 0, 79, 58
2, 73197, Note_off_c, 0, 82, 64
2, 73213, Note_on_c, 0, 77, 67
2, 73214, Note_off_c, 0, 79, 64
2, 73240, Note_on_c, 0, 74, 70
2, 73250, Note_off_c, 0, 77, 64
2, 73276, Note_on_c, 0, 75, 63
2, 73285, Note_off_c, 0, 74, 64
2, 73305, Note_on_c, 0, 79, 57
2, 73312, Note_off_c, 0, 75, 64
2, 73340, Note_on_c, 0, 77, 58
2, 73346, Note_off_c, 0, 79, 64
2, 73372, Note_on_c, 0, 75, 53
2, 73391, Note_off_c, 0, 77, 64
2, 73410, Note_on_c, 0, 72, 56
2, 73423, Note_off_c, 0, 75, 64
2, 73444, Note_off_c, 0, 72, 64
2, 73445, Note_on_c, 0, 69, 58
2, 73451, Note_on_c, 0, 60, 32
2, 73482, Note_on_c, 0, 70, 73
2, 73486, Note_on_c, 0, 62, 49
2, 73493, Note_off_c, 0, 60, 64
2, 73504, Note_off_c, 0, 69, 64
2, 73518, Note_on_c, 0, 74, 58
2, 73521, Note_on_c, 0, 65, 47
2, 73524, Note_off_c, 0, 70, 64
2, 73527, Note_off_c, 0, 62, 64
2, 73558, Note_on_c, 0, 63, 59
2, 73559, Note_on_c, 0, 72, 52
2, 73562, Note_off_c, 0, 65, 64
2, 73563, Note_off_c, 0, 74, 64
2, 73588, Note_off_c, 0, 63, 64
2, 73597, Note_on_c, 0, 70, 53
2, 73600, Note_on_c, 0, 62, 67
2, 73611, Note_off_c, 0, 72, 64
2, 73636, Note_on_c, 0, 58, 49
2, 73638, Note_on_c, 0, 67, 57
2, 73646, Note_off_c, 0, 62, 64
2, 73652, Note_off_c, 0, 70, 64
2, 73673, Note_on_c, 0, 65, 59
2, 73675, Note_off_c, 0, 67, 64
2, 73676, Note_on_c, 0, 57, 58
2, 73679, Note_off_c, 0, 58, 64
2, 73712, Note_on_c, 0, 62, 67
2, 73718, Note_on_c, 0, 53, 71
2, 73721, Note_off_c, 0, 57, 64
2, 73725, Note_off_c, 0, 65, 64
2, 73760, Note_on_c, 0, 63, 62
2, 73766, Note_on_c, 0, 55, 58
2, 73771, Note_off_c, 0, 53, 64
2, 73771, Note_off_c, 0, 62, 64
2, 73799, Note_on_c, 0, 58, 58
2, 73802, Note_on_c, 0, 67, 64
2, 73812, Note_off_c, 0, 63, 64
2, 73814, Note_off_c, 0, 55, 64
2, 73844, Note_off_c, 0, 58, 64
2, 73849, Note_on_c, 0, 57, 55
2, 73853, Note_on_c, 0, 65, 54
2, 73860, Note_off_c, 0, 67, 64
2, 73896, Note_on_c, 0, 63, 57
2, 73902, Note_on_c, 0, 55, 63
2, 73905, Note_off_c, 0, 57, 64
2, 73916, Note_off_c, 0, 65, 64
2, 73947, Note_on_c, 0, 51, 51
2, 73951, Note_off_c, 0, 55, 64
2, 73952, Note_on_c, 0, 60, 61
2, 73970, Note_off_c, 0, 63, 64
2, 73997, Note_on_c, 0, 48, 70
2, 74004, Note_off_c, 0, 51, 64
2, 74004, Note_on_c, 0, 57, 61
2, 74008, Note_off_c, 0, 60, 64
2, 74060, Note_on_c, 0, 51, 55
2, 74061, Note_on_c, 0, 60, 47
2, 74062, Note_off_c, 0, 48, 64
2, 74079, Note_off_c, 0, 57, 64
2, 74120, Note_on_c, 0, 55, 48
2, 74177, Note_off_c, 0, 55, 64
2, 74178, Note_on_c, 0, 53, 62
2, 74232, Note_on_c, 0, 50, 60
2, 74234, Note_off_c, 0, 51, 64
2, 74238, Note_off_c, 0, 60, 64
2, 74294, Note_on_c, 0, 48, 58
2, 74299, Note_off_c, 0, 50, 64
2, 74342, Note_on_c, 0, 46, 60
2, 74352, Note_off_c, 0, 48, 64
2, 74417, Note_on_c, 0, 62, 51
2, 74420, Note_off_c, 0, 53, 64
2, 74421, Note_on_c, 0, 57, 55
2, 74421, Note_on_c, 0, 41, 42
2, 74428, Note_off_c, 0, 46, 64
2, 74433, Note_on_c, 0, 53, 38
2, 74524, Control_c, 0, 64, 127
2, 74565, Note_off_c, 0, 62, 64
2, 74572, Note_off_c, 0, 53, 64
2, 74573, Note_off_c, 0, 57, 64
2, 74598, Note_on_c, 0, 62, 51
2, 74599, Note_on_c, 0, 46, 57
2, 74601, Note_on_c, 0, 58, 35
2, 74602, Note_on_c, 0, 53, 38
2, 74604, Note_off_c, 0, 41, 64
2, 74626, Control_c, 0, 64, 0
2, 74684, Control_c, 0, 64, 127
2, 74781, Note_off_c, 0, 62, 64
2, 74783, Note_off_c, 0, 58, 64
2, 74790, Note_off_c, 0, 53, 64
2, 74805, Note_off_c, 0, 46, 64
2, 74822, Note_on_c, 0, 62, 57
2, 74824, Note_on_c, 0, 57, 53
2, 74832, Note_on_c, 0, 53, 44
2, 74839, Note_on_c, 0, 41, 29
2, 74845, Control_c, 0, 64, 0
2, 74870, Control_c, 0, 64, 127
2, 74923, Note_off_c, 0, 62, 64
2, 74935, Note_off_c, 0, 53, 64
2, 74950, Note_off_c, 0, 57, 64
2, 74958, Note_off_c, 0, 41, 64
2, 74967, Note_on_c, 0, 62, 46
2, 74968, Note_on_c, 0, 46, 50
2, 74971, Note_on_c, 0, 58, 58
2, 74975, Note_on_c, 0, 53, 30
2, 75000, Control_c, 0, 64, 0
2, 75030, Control_c, 0, 64, 127
2, 75123, Note_off_c, 0, 62, 64
2, 75124, Note_off_c, 0, 58, 64
2, 75176, Note_off_c, 0, 53, 64
2, 75194, Note_off_c, 0, 46, 64
2, 75224, Note_on_c, 0, 70, 56
2, 75232, Note_on_c, 0, 62, 38
2, 75234, Note_on_c, 0, 41, 36
2, 75236, Note_on_c, 0, 53, 32
2, 75241, Control_c, 0, 64, 0
2, 75267, Control_c, 0, 64, 127
2, 75318, Note_off_c, 0, 70, 64
2, 75324, Note_off_c, 0, 62, 64
2, 75326, Note_off_c, 0, 53, 64
2, 75338, Note_off_c, 0, 41, 64
2, 75374, Note_on_c, 0, 53, 41
2, 75376, Note_on_c, 0, 46, 51
2, 75377, Note_on_c, 0, 58, 43
2, 75380, Note_on_c, 0, 62, 55
2, 75406, Control_c, 0, 64, 0
2, 75431, Control_c, 0, 64, 127
2, 75525, Note_off_c, 0, 58, 64
2, 75547, Note_off_c, 0, 53, 64
2, 75585, Note_off_c, 0, 46, 64
2, 75626, Note_on_c, 0, 56, 29
2, 75631, Note_on_c, 0, 40, 36
2, 75635, Note_on_c, 0, 52, 30
2, 75645, Control_c, 0, 64, 0
2, 75667, Control_c, 0, 64, 127
2, 75715, Note_off_c, 0, 62, 64
2, 75724, Note_off_c, 0, 56, 64
2, 75728, Note_off_c, 0, 52, 64
2, 75736, Note_off_c, 0, 40, 64
2, 75770, Note_on_c, 0, 45, 48
2, 75773, Note_on_c, 0, 52, 32
2, 75775, Note_on_c, 0, 61, 46
2, 75778, Note_on_c, 0, 57, 31
2, 75801, Control_c, 0, 64, 0
2, 75831, Control_c, 0, 64, 127
2, 75981, Note_off_c, 0, 45, 64
2, 75985, Note_off_c, 0, 52, 64
2, 75988, Note_off_c, 0, 61, 64
2, 75989, Note_off_c, 0, 57, 64
2, 76030, Note_on_c, 0, 61, 49
2, 76031, Note_on_c, 0, 69, 50
2, 76035, Note_on_c, 0, 40, 36
2, 76039, Note_on_c, 0, 52, 31
2, 76051, Control_c, 0, 64, 0
2, 76077, Control_c, 0, 64, 127
2, 76129, Note_off_c, 0, 69, 64
2, 76130, Note_off_c, 0, 61, 64
2, 76133, Note_off_c, 0, 52, 64
2, 76137, Note_off_c, 0, 40, 64
2, 76174, Note_on_c, 0, 61, 53
2, 76178, Note_on_c, 0, 52, 40
2, 76180, Note_on_c, 0, 57, 39
2, 76180, Note_on_c, 0, 45, 36
2, 76202, Control_c, 0, 64, 0
2, 76228, Control_c, 0, 64, 127
2, 76329, Note_off_c, 0, 61, 64
2, 76352, Note_off_c, 0, 52, 64
2, 76352, Note_off_c, 0, 57, 64
2, 76363, Note_off_c, 0, 45, 64
2, 76439, Note_on_c, 0, 60, 54
2, 76440, Note_on_c, 0, 54, 50
2, 76447, Note_on_c, 0, 50, 43
2, 76450, Note_on_c, 0, 38, 26
2, 76458, Control_c, 0, 64, 0
2, 76479, Control_c, 0, 64, 127
2, 76550, Note_off_c, 0, 50, 64
2, 76579, Note_off_c, 0, 54, 64
2, 76580, Note_on_c, 0, 58, 60
2, 76586, Note_on_c, 0, 55, 45
2, 76588, Note_off_c, 0, 38, 64
2, 76588, Note_on_c, 0, 43, 41
2, 76591, Note_on_c, 0, 50, 39
2, 76601, Note_off_c, 0, 60, 64
2, 76613, Control_c, 0, 64, 0
2, 76639, Control_c, 0, 64, 127
2, 76742, Note_off_c, 0, 50, 64
2, 76753, Note_off_c, 0, 58, 64
2, 76778, Note_off_c, 0, 55, 64
2, 76841, Note_on_c, 0, 36, 27
2, 76844, Note_on_c, 0, 63, 50
2, 76847, Note_on_c, 0, 60, 49
2, 76847, Note_on_c, 0, 55, 38
2, 76849, Note_off_c, 0, 43, 64
2, 76852, Note_on_c, 0, 48, 27
2, 76860, Control_c, 0, 64, 0
2, 76890, Control_c, 0, 64, 127
2, 76932, Note_off_c, 0, 63, 64
2, 76946, Note_off_c, 0, 55, 64
2, 76946, Note_off_c, 0, 60, 64
2, 77000, Note_on_c, 0, 53, 38
2, 77004, Note_on_c, 0, 62, 40
2, 77005, Note_on_c, 0, 58, 49
2, 77005, Note_on_c, 0, 41, 34
2, 77015, Note_off_c, 0, 36, 64
2, 77027, Note_off_c, 0, 48, 64
2, 77044, Control_c, 0, 64, 0
2, 77087, Control_c, 0, 64, 127
2, 77199, Note_off_c, 0, 62, 64
2, 77203, Note_off_c, 0, 41, 64
2, 77210, Note_off_c, 0, 58, 64
2, 77214, Note_off_c, 0, 53, 64
2, 77328, Note_on_c, 0, 57, 48
2, 77328, Note_on_c, 0, 53, 33
2, 77328, Note_on_c, 0, 41, 33
2, 77331, Note_on_c, 0, 60, 40
2, 77344, Control_c, 0, 64, 0
2, 77374, Control_c, 0, 64, 127
2, 77456, Note_off_c, 0, 60, 64
2, 77458, Note_off_c, 0, 53, 64
2, 77458, Note_off_c, 0, 57, 64
2, 77518, Note_on_c, 0, 53, 31
2, 77518, Note_on_c, 0, 46, 30
2, 77520, Note_on_c, 0, 34, 68
2, 77521, Note_on_c, 0, 62, 38
2, 77521, Note_on_c, 0, 58, 39
2, 77532, Note_off_c, 0, 41, 64
2, 77563, Control_c, 0, 64, 0
2, 77598, Control_c, 0, 64, 127
2, 77724, Note_off_c, 0, 62, 64
2, 77727, Note_off_c, 0, 53, 64
2, 77734, Note_off_c, 0, 46, 64
2, 77740, Note_off_c, 0, 58, 64
2, 77760, Note_off_c, 0, 34, 64
2, 77846, Note_on_c, 0, 65, 49
2, 77846, Note_on_c, 0, 58, 25
2, 77848, Note_on_c, 0, 74, 49
2, 77848, Note_on_c, 0, 62, 43
2, 77848, Note_on_c, 0, 53, 36
2, 77848, Note_on_c, 0, 46, 41
2, 77923, Note_off_c, 0, 58, 64
2, 77931, Note_off_c, 0, 65, 64
2, 77935, Note_off_c, 0, 53, 64
2, 77939, Note_off_c, 0, 74, 64
2, 77943, Note_off_c, 0, 46, 64
2, 77945, Note_off_c, 0, 62, 64
2, 77998, Note_on_c, 0, 60, 38
2, 77998, Note_on_c, 0, 57, 42
2, 77998, Note_on_c, 0, 45, 43
2, 78000, Note_on_c, 0, 66, 44
2, 78000, Note_on_c, 0, 62, 38
2, 78000, Note_on_c, 0, 50, 39
2, 78001, Note_on_c, 0, 74, 48
2, 78058, Control_c, 0, 64, 0
2, 78172, Control_c, 0, 64, 127
2, 78209, Note_off_c, 0, 50, 64
2, 78226, Note_off_c, 0, 45, 64
2, 78228, Note_off_c, 0, 57, 64
2, 78270, Note_off_c, 0, 60, 64
2, 78274, Note_off_c, 0, 62, 64
2, 78283, Note_off_c, 0, 66, 64
2, 78296, Note_off_c, 0, 74, 64
2, 78416, Note_on_c, 0, 62, 34
2, 78416, Note_on_c, 0, 58, 30
2, 78416, Note_on_c, 0, 50, 19
2, 78418, Note_on_c, 0, 70, 50
2, 78418, Note_on_c, 0, 67, 40
2, 78418, Note_on_c, 0, 43, 34
2, 78438, Control_c, 0, 64, 0
2, 78471, Control_c, 0, 64, 127
2, 78519, Note_off_c, 0, 67, 64
2, 78532, Note_off_c, 0, 62, 64
2, 78537, Note_off_c, 0, 58, 64
2, 78537, Note_off_c, 0, 70, 64
2, 78598, Note_off_c, 0, 43, 64
2, 78637, Note_off_c, 0, 50, 64
2, 78686, Note_on_c, 0, 58, 44
2, 78688, Note_on_c, 0, 63, 40
2, 78688, Note_on_c, 0, 48, 38
2, 78689, Note_on_c, 0, 67, 48
2, 78692, Control_c, 0, 64, 0
2, 78733, Control_c, 0, 64, 127
2, 78787, Note_off_c, 0, 63, 64
2, 78790, Note_off_c, 0, 48, 64
2, 78823, Note_off_c, 0, 67, 64
2, 78833, Note_off_c, 0, 58, 64
2, 78858, Note_on_c, 0, 48, 36
2, 78877, Note_on_c, 0, 58, 47
2, 78910, Note_on_c, 0, 63, 56
2, 78952, Note_on_c, 0, 69, 41
2, 78956, Control_c, 0, 64, 0
2, 78996, Control_c, 0, 64, 127
2, 79000, Note_on_c, 0, 67, 49
2, 79052, Note_off_c, 0, 69, 64
2, 79077, Note_off_c, 0, 48, 64
2, 79107, Note_off_c, 0, 58, 64
2, 79132, Note_off_c, 0, 63, 64
2, 79157, Note_off_c, 0, 67, 64
2, 79216, Note_on_c, 0, 41, 30
2, 79218, Note_on_c, 0, 65, 47
2, 79218, Note_on_c, 0, 63, 44
2, 79218, Note_on_c, 0, 53, 30
2, 79219, Note_on_c, 0, 57, 43
2, 79285, Note_off_c, 0, 63, 64
2, 79288, Note_off_c, 0, 57, 64
2, 79346, Note_off_c, 0, 53, 64
2, 79366, Note_off_c, 0, 41, 64
2, 79412, Note_on_c, 0, 46, 40
2, 79413, Note_on_c, 0, 62, 33
2, 79414, Note_on_c, 0, 58, 36
2, 79416, Note_on_c, 0, 34, 24
2, 79447, Control_c, 0, 64, 0
2, 79503, Note_off_c, 0, 65, 64
2, 79521, Control_c, 0, 64, 127
2, 79561, Note_off_c, 0, 62, 64
2, 79567, Note_off_c, 0, 58, 64
2, 79570, Note_off_c, 0, 34, 64
2, 79570, Note_off_c, 0, 46, 64
2, 79695, Note_on_c, 0, 74, 49
2, 79697, Note_on_c, 0, 65, 46
2, 79698, Note_on_c, 0, 58, 37
2, 79698, Note_on_c, 0, 53, 41
2, 79698, Note_on_c, 0, 46, 43
2, 79701, Note_on_c, 0, 62, 37
2, 79711, Control_c, 0, 64, 0
2, 79732, Control_c, 0, 64, 127
2, 79774, Note_off_c, 0, 46, 64
2, 79779, Note_off_c, 0, 53, 64
2, 79784, Note_off_c, 0, 58, 64
2, 79797, Note_off_c, 0, 65, 64
2, 79802, Note_off_c, 0, 62, 64
2, 79811, Note_off_c, 0, 74, 64
2, 79834, Note_on_c, 0, 46, 34
2, 79838, Note_on_c, 0, 70, 49
2, 79838, Note_on_c, 0, 53, 30
2, 79840, Note_on_c, 0, 58, 29
2, 79841, Note_on_c, 0, 62, 43
2, 79888, Control_c, 0, 64, 0
2, 79921, Control_c, 0, 64, 127
2, 79982, Note_off_c, 0, 46, 64
2, 79983, Note_off_c, 0, 53, 64
2, 79993, Note_off_c, 0, 62, 64
2, 80002, Note_off_c, 0, 58, 64
2, 80017, Note_off_c, 0, 70, 64
2, 80141, Note_on_c, 0, 70, 39
2, 80143, Note_on_c, 0, 79, 55
2, 80144, Note_on_c, 0, 67, 39
2, 80144, Note_on_c, 0, 64, 39
2, 80146, Note_on_c, 0, 61, 38
2, 80146, Note_on_c, 0, 58, 41
2, 80191, Control_c, 0, 64, 0
2, 80242, Control_c, 0, 64, 127
2, 80324, Note_off_c, 0, 58, 64
2, 80324, Note_off_c, 0, 64, 64
2, 80328, Note_off_c, 0, 61, 64
2, 80332, Note_off_c, 0, 79, 64
2, 80338, Note_off_c, 0, 67, 64
2, 80342, Note_off_c, 0, 70, 64
2, 80442, Note_on_c, 0, 65, 40
2, 80443, Note_on_c, 0, 58, 43
2, 80444, Note_on_c, 0, 70, 47
2, 80446, Note_on_c, 0, 77, 44
2, 80446, Note_on_c, 0, 62, 48
2, 80498, Note_off_c, 0, 65, 64
2, 80512, Note_off_c, 0, 62, 64
2, 80514, Note_off_c, 0, 70, 64
2, 80516, Note_off_c, 0, 58, 64
2, 80563, Note_off_c, 0, 77, 64
2, 80582, Note_on_c, 0, 70, 52
2, 80582, Note_on_c, 0, 61, 55
2, 80582, Note_on_c, 0, 58, 47
2, 80584, Note_on_c, 0, 76, 46
2, 80585, Note_on_c, 0, 67, 45
2, 80654, Note_off_c, 0, 70, 64
2, 80664, Note_off_c, 0, 58, 64
2, 80678, Note_off_c, 0, 61, 64
2, 80678, Note_off_c, 0, 67, 64
2, 80738, Note_on_c, 0, 65, 34
2, 80738, Note_on_c, 0, 62, 35
2, 80740, Note_on_c, 0, 77, 40
2, 80741, Note_on_c, 0, 68, 56
2, 80742, Note_on_c, 0, 70, 53
2, 80742, Note_on_c, 0, 58, 31
2, 80751, Note_off_c, 0, 76, 64
2, 80775, Control_c, 0, 64, 0
2, 80813, Control_c, 0, 64, 127
2, 80873, Note_off_c, 0, 65, 64
2, 80876, Note_off_c, 0, 62, 64
2, 80894, Note_off_c, 0, 58, 64
2, 81044, Note_on_c, 0, 46, 40
2, 81044, Note_on_c, 0, 34, 46
2, 81111, Note_off_c, 0, 34, 64
2, 81111, Note_off_c, 0, 46, 64
2, 81204, Note_on_c, 0, 46, 24
2, 81208, Note_on_c, 0, 34, 46
2, 81239, Control_c, 0, 64, 0
2, 81272, Control_c, 0, 64, 127
2, 81326, Note_off_c, 0, 77, 64
2, 81328, Note_off_c, 0, 34, 64
2, 81339, Note_off_c, 0, 46, 64
2, 81343, Note_off_c, 0, 68, 64
2, 81344, Note_off_c, 0, 70, 64
2, 81486, Note_on_c, 0, 62, 25
2, 81488, Note_on_c, 0, 70, 28
2, 81488, Note_on_c, 0, 68, 25
2, 81490, Note_on_c, 0, 58, 19
2, 81490, Note_on_c, 0, 53, 19
2, 81490, Note_on_c, 0, 46, 20
2, 81508, Control_c, 0, 64, 0
2, 81530, Control_c, 0, 64, 127
2, 81571, Note_off_c, 0, 53, 64
2, 81577, Note_off_c, 0, 68, 64
2, 81581, Note_off_c, 0, 46, 64
2, 81586, Note_off_c, 0, 58, 64
2, 81586, Note_off_c, 0, 62, 64
2, 81594, Note_off_c, 0, 70, 64
2, 81636, Note_on_c, 0, 70, 29
2, 81638, Note_on_c, 0, 68, 34
2, 81642, Note_on_c, 0, 62, 24
2, 81645, Note_on_c, 0, 46, 24
2, 81650, Note_on_c, 0, 53, 19
2, 81651, Note_on_c, 0, 58, 16
2, 81675, Control_c, 0, 64, 0
2, 81707, Control_c, 0, 64, 127
2, 81803, Note_off_c, 0, 46, 64
2, 81804, Note_off_c, 0, 58, 64
2, 81813, Note_off_c, 0, 53, 64
2, 81841, Note_off_c, 0, 62, 64
2, 81853, Note_off_c, 0, 68, 64
2, 81928, Note_on_c, 0, 58, 19
2, 81928, Note_on_c, 0, 51, 28
2, 81931, Note_on_c, 0, 67, 35
2, 81934, Note_on_c, 0, 63, 24
2, 81947, Control_c, 0, 64, 0
2, 81974, Control_c, 0, 64, 127
2, 82004, Note_off_c, 0, 51, 64
2, 82011, Note_off_c, 0, 58, 64
2, 82014, Note_off_c, 0, 63, 64
2, 82015, Note_off_c, 0, 67, 64
2, 82072, Note_on_c, 0, 51, 34
2, 82074, Note_on_c, 0, 67, 36
2, 82077, Note_on_c, 0, 63, 30
2, 82077, Note_on_c, 0, 58, 19
2, 82109, Control_c, 0, 64, 0
2, 82142, Control_c, 0, 64, 127
2, 82226, Note_off_c, 0, 58, 64
2, 82243, Note_off_c, 0, 51, 64
2, 82250, Note_off_c, 0, 70, 64
2, 82264, Note_off_c, 0, 67, 64
2, 82271, Note_off_c, 0, 63, 64
2, 82346, Note_on_c, 0, 63, 25
2, 82347, Note_on_c, 0, 75, 29
2, 82351, Note_on_c, 0, 67, 35
2, 82354, Note_on_c, 0, 60, 20
2, 82363, Note_on_c, 0, 48, 19
2, 82365, Control_c, 0, 64, 0
2, 82387, Control_c, 0, 64, 127
2, 82438, Note_off_c, 0, 48, 64
2, 82442, Note_off_c, 0, 63, 64
2, 82445, Note_off_c, 0, 67, 64
2, 82447, Note_off_c, 0, 75, 64
2, 82448, Note_off_c, 0, 60, 64
2, 82500, Note_on_c, 0, 75, 40
2, 82503, Note_on_c, 0, 67, 37
2, 82503, Note_on_c, 0, 63, 37
2, 82509, Note_on_c, 0, 60, 24
2, 82510, Note_on_c, 0, 48, 24
2, 82541, Control_c, 0, 64, 0
2, 82551, Control_c, 0, 64, 127
2, 82634, Note_off_c, 0, 75, 64
2, 82651, Note_off_c, 0, 60, 64
2, 82657, Note_off_c, 0, 67, 64
2, 82671, Note_off_c, 0, 48, 64
2, 82682, Note_off_c, 0, 63, 64
2, 82776, Note_on_c, 0, 67, 40
2, 82776, Note_on_c, 0, 63, 40
2, 82780, Note_on_c, 0, 60, 32
2, 82785, Note_on_c, 0, 48, 21
2, 82789, Note_on_c, 0, 55, 19
2, 82857, Note_off_c, 0, 48, 64
2, 82858, Note_off_c, 0, 55, 64
2, 82871, Note_off_c, 0, 60, 64
2, 82872, Note_off_c, 0, 63, 64
2, 82875, Note_off_c, 0, 67, 64
2, 82919, Note_on_c, 0, 67, 40
2, 82921, Note_on_c, 0, 60, 39
2, 82924, Note_on_c, 0, 63, 43
2, 82926, Note_on_c, 0, 48, 29
2, 82929, Note_on_c, 0, 55, 25
2, 82966, Control_c, 0, 64, 0
2, 82998, Control_c, 0, 64, 127
2, 83111, Note_off_c, 0, 60, 64
2, 83120, Note_off_c, 0, 63, 64
2, 83135, Note_off_c, 0, 67, 64
2, 83139, Note_off_c, 0, 55, 64
2, 83147, Note_off_c, 0, 48, 64
2, 83207, Note_on_c, 0, 70, 35
2, 83209, Note_on_c, 0, 62, 39
2, 83217, Note_on_c, 0, 58, 19
2, 83217, Note_on_c, 0, 55, 21
2, 83217, Note_on_c, 0, 43, 28
2, 83240, Control_c, 0, 64, 0
2, 83261, Control_c, 0, 64, 127
2, 83323, Note_off_c, 0, 43, 64
2, 83327, Note_off_c, 0, 55, 64
2, 83327, Note_off_c, 0, 62, 64
2, 83329, Note_off_c, 0, 58, 64
2, 83332, Note_off_c, 0, 70, 64
2, 83366, Note_on_c, 0, 70, 33
2, 83370, Note_on_c, 0, 58, 34
2, 83375, Note_on_c, 0, 62, 40
2, 83376, Note_on_c, 0, 43, 35
2, 83377, Note_on_c, 0, 55, 25
2, 83404, Control_c, 0, 64, 0
2, 83437, Control_c, 0, 64, 127
2, 83527, Note_off_c, 0, 62, 64
2, 83548, Note_off_c, 0, 70, 64
2, 83586, Note_off_c, 0, 58, 64
2, 83691, Note_on_c, 0, 72, 25
2, 83691, Note_on_c, 0, 58, 34
2, 83691, Note_on_c, 0, 48, 25
2, 83694, Note_off_c, 0, 43, 64
2, 83697, Note_on_c, 0, 64, 15
2, 83721, Note_off_c, 0, 55, 64
2, 83753, Note_off_c, 0, 72, 64
2, 83762, Note_off_c, 0, 64, 64
2, 83796, Note_off_c, 0, 48, 64
2, 83796, Note_off_c, 0, 58, 64
2, 83887, Note_on_c, 0, 63, 34
2, 83889, Note_on_c, 0, 58, 48
2, 83893, Note_on_c, 0, 65, 26
2, 83894, Note_on_c, 0, 48, 35
2, 83901, Note_on_c, 0, 41, 25
2, 83930, Control_c, 0, 64, 0
2, 84064, Note_on_c, 0, 57, 46
2, 84074, Note_off_c, 0, 63, 64
2, 84083, Note_off_c, 0, 58, 64
2, 84093, Control_c, 0, 64, 127
2, 84207, Note_on_c, 0, 62, 37
2, 84279, Note_off_c, 0, 57, 64
2, 84340, Note_on_c, 0, 60, 40
2, 84348, Note_off_c, 0, 62, 64
2, 84476, Note_on_c, 0, 55, 43
2, 84478, Control_c, 0, 64, 0
2, 84495, Note_off_c, 0, 48, 64
2, 84547, Control_c, 0, 64, 127
2, 84601, Note_on_c, 0, 57, 30
2, 84620, Note_off_c, 0, 60, 64
2, 84623, Note_off_c, 0, 41, 64
2, 84651, Note_off_c, 0, 55, 64
2, 84739, Note_on_c, 0, 62, 28
2, 84743, Note_on_c, 0, 46, 32
2, 84746, Note_on_c, 0, 55, 37
2, 84754, Note_off_c, 0, 57, 64
2, 84754, Note_off_c, 0, 65, 64
2, 84769, Control_c, 0, 64, 0
2, 84854, Control_c, 0, 64, 127
2, 84898, Note_on_c, 0, 53, 24
2, 84913, Note_off_c, 0, 62, 64
2, 84979, Note_off_c, 0, 55, 64
2, 85031, Note_on_c, 0, 74, 47
2, 85033, Note_on_c, 0, 62, 30
2, 85080, Note_off_c, 0, 46, 64
2, 85082, Note_off_c, 0, 53, 64
2, 85124, Note_off_c, 0, 74, 64
2, 85136, Note_off_c, 0, 62, 64
2, 85172, Note_on_c, 0, 62, 40
2, 85176, Note_on_c, 0, 74, 57
2, 85176, Note_on_c, 0, 46, 26
2, 85178, Note_on_c, 0, 53, 26
2, 85204, Control_c, 0, 64, 0
2, 85242, Control_c, 0, 64, 127
2, 85359, Note_off_c, 0, 46, 64
2, 85363, Note_off_c, 0, 74, 64
2, 85369, Note_off_c, 0, 53, 64
2, 85383, Note_off_c, 0, 62, 64
2, 85427, Note_on_c, 0, 54, 29
2, 85430, Note_on_c, 0, 46, 28
2, 85432, Note_on_c, 0, 70, 68
2, 85432, Note_on_c, 0, 62, 49
2, 85446, Control_c, 0, 64, 0
2, 85456, Control_c, 0, 64, 127
2, 85512, Note_off_c, 0, 46, 64
2, 85520, Note_off_c, 0, 62, 64
2, 85522, Note_off_c, 0, 54, 64
2, 85526, Note_off_c, 0, 70, 64
2, 85567, Note_on_c, 0, 70, 75
2, 85569, Note_on_c, 0, 62, 53
2, 85570, Note_on_c, 0, 54, 28
2, 85574, Note_on_c, 0, 46, 27
2, 85591, Control_c, 0, 64, 0
2, 85618, Control_c, 0, 64, 127
2, 85725, Note_off_c, 0, 70, 64
2, 85746, Note_off_c, 0, 46, 64
2, 85769, Note_off_c, 0, 62, 64
2, 85776, Note_off_c, 0, 54, 64
2, 85862, Note_on_c, 0, 67, 62
2, 85862, Note_on_c, 0, 62, 48
2, 85865, Note_on_c, 0, 46, 33
2, 85869, Note_on_c, 0, 55, 27
2, 85880, Control_c, 0, 64, 0
2, 85901, Control_c, 0, 64, 127
2, 85943, Note_off_c, 0, 46, 64
2, 85943, Note_off_c, 0, 62, 64
2, 85971, Note_off_c, 0, 67, 64
2, 85986, Note_off_c, 0, 55, 64
2, 86030, Note_on_c, 0, 48, 29
2, 86032, Note_on_c, 0, 55, 33
2, 86033, Note_on_c, 0, 58, 43
2, 86100, Note_on_c, 0, 63, 47
2, 86101, Control_c, 0, 64, 0
2, 86140, Note_on_c, 0, 69, 59
2, 86148, Control_c, 0, 64, 127
2, 86176, Note_on_c, 0, 67, 51
2, 86195, Note_off_c, 0, 58, 64
2, 86234, Note_off_c, 0, 55, 64
2, 86240, Note_off_c, 0, 69, 64
2, 86249, Note_off_c, 0, 48, 64
2, 86267, Note_off_c, 0, 63, 64
2, 86342, Note_off_c, 0, 67, 64
2, 86344, Note_on_c, 0, 65, 67
2, 86344, Note_on_c, 0, 63, 52
2, 86344, Note_on_c, 0, 57, 44
2, 86350, Note_on_c, 0, 48, 29
2, 86359, Control_c, 0, 64, 0
2, 86386, Control_c, 0, 64, 127
2, 86465, Note_off_c, 0, 65, 64
2, 86470, Note_off_c, 0, 57, 64
2, 86482, Note_off_c, 0, 48, 64
2, 86514, Note_on_c, 0, 62, 44
2, 86516, Note_on_c, 0, 65, 62
2, 86516, Note_on_c, 0, 57, 28
2, 86518, Note_on_c, 0, 50, 36
2, 86534, Note_off_c, 0, 63, 64
2, 86555, Control_c, 0, 64, 0
2, 86605, Control_c, 0, 64, 127
2, 86662, Note_off_c, 0, 50, 64
2, 86683, Note_off_c, 0, 57, 64
2, 86688, Note_off_c, 0, 65, 64
2, 86723, Note_off_c, 0, 62, 64
2, 86814, Note_on_c, 0, 66, 49
2, 86817, Note_on_c, 0, 74, 63
2, 86818, Note_on_c, 0, 57, 25
2, 86818, Note_on_c, 0, 50, 19
2, 86819, Note_on_c, 0, 62, 40
2, 86820, Note_on_c, 0, 60, 40
2, 86835, Control_c, 0, 64, 0
2, 86851, Control_c, 0, 64, 127
2, 86897, Note_off_c, 0, 57, 64
2, 86943, Note_off_c, 0, 50, 64
2, 86957, Note_off_c, 0, 60, 64
2, 86963, Note_off_c, 0, 66, 64
2, 86967, Note_on_c, 0, 70, 62
2, 86968, Note_on_c, 0, 58, 48
2, 86969, Note_on_c, 0, 67, 55
2, 86970, Note_on_c, 0, 51, 28
2, 86985, Note_off_c, 0, 74, 64
2, 86987, Note_off_c, 0, 62, 64
2, 87028, Control_c, 0, 64, 0
2, 87083, Control_c, 0, 64, 127
2, 87153, Note_off_c, 0, 51, 64
2, 87162, Note_off_c, 0, 67, 64
2, 87163, Note_off_c, 0, 58, 64
2, 87170, Note_off_c, 0, 70, 64
2, 87302, Note_on_c, 0, 79, 64
2, 87304, Note_on_c, 0, 70, 61
2, 87304, Note_on_c, 0, 67, 48
2, 87308, Note_on_c, 0, 61, 34
2, 87308, Note_on_c, 0, 58, 43
2, 87308, Note_on_c, 0, 52, 49
2, 87337, Control_c, 0, 64, 0
2, 87375, Control_c, 0, 64, 127
2, 87489, Note_off_c, 0, 52, 64
2, 87492, Note_off_c, 0, 79, 64
2, 87504, Note_off_c, 0, 58, 64
2, 87512, Note_off_c, 0, 61, 64
2, 87536, Note_off_c, 0, 70, 64
2, 87548, Note_off_c, 0, 67, 64
2, 87594, Note_on_c, 0, 77, 64
2, 87594, Note_on_c, 0, 62, 43
2, 87594, Note_on_c, 0, 53, 60
2, 87595, Note_on_c, 0, 65, 64
2, 87596, Note_on_c, 0, 58, 36
2, 87597, Note_on_c, 0, 70, 61
2, 87652, Note_off_c, 0, 62, 64
2, 87677, Note_off_c, 0, 58, 64
2, 87681, Note_off_c, 0, 53, 64
2, 87689, Note_off_c, 0, 65, 64
2, 87728, Note_on_c, 0, 64, 57
2, 87728, Note_on_c, 0, 61, 55
2, 87729, Note_on_c, 0, 76, 69
2, 87732, Note_on_c, 0, 58, 61
2, 87732, Note_on_c, 0, 55, 61
2, 87736, Note_off_c, 0, 77, 64
2, 87812, Note_off_c, 0, 70, 64
2, 87814, Note_off_c, 0, 58, 64
2, 87821, Note_off_c, 0, 61, 64
2, 87827, Note_off_c, 0, 55, 64
2, 87829, Note_off_c, 0, 64, 64
2, 87906, Note_on_c, 0, 77, 72
2, 87906, Note_on_c, 0, 70, 48
2, 87908, Note_on_c, 0, 62, 58
2, 87910, Note_on_c, 0, 56, 73
2, 87911, Note_on_c, 0, 65, 61
2, 87911, Note_on_c, 0, 58, 55
2, 87917, Note_off_c, 0, 76, 64
2, 87940, Control_c, 0, 64, 0
2, 87989, Control_c, 0, 64, 127
2, 88076, Note_off_c, 0, 62, 64
2, 88106, Note_off_c, 0, 58, 64
2, 88126, Note_off_c, 0, 56, 64
2, 88276, Note_on_c, 0, 34, 46
2, 88288, Note_on_c, 0, 46, 37
2, 88396, Note_off_c, 0, 34, 64
2, 88408, Note_off_c, 0, 46, 64
2, 88448, Note_on_c, 0, 34, 46
2, 88451, Note_on_c, 0, 46, 37
2, 88497, Control_c, 0, 64, 0
2, 88524, Control_c, 0, 64, 127
2, 88568, Note_off_c, 0, 34, 64
2, 88587, Note_off_c, 0, 46, 64
2, 88588, Note_off_c, 0, 77, 64
2, 88596, Note_off_c, 0, 70, 64
2, 88608, Note_off_c, 0, 65, 64
2, 88760, Note_on_c, 0, 68, 43
2, 88762, Note_on_c, 0, 70, 43
2, 88762, Note_on_c, 0, 58, 24
2, 88762, Note_on_c, 0, 53, 25
2, 88763, Note_on_c, 0, 62, 30
2, 88763, Note_on_c, 0, 46, 34
2, 88777, Control_c, 0, 64, 0
2, 88792, Control_c, 0, 64, 127
2, 88840, Note_off_c, 0, 46, 64
2, 88840, Note_off_c, 0, 53, 64
2, 88845, Note_off_c, 0, 58, 64
2, 88855, Note_off_c, 0, 68, 64
2, 88864, Note_off_c, 0, 70, 64
2, 88865, Note_off_c, 0, 62, 64
2, 88915, Note_on_c, 0, 68, 43
2, 88916, Note_on_c, 0, 53, 26
2, 88916, Note_on_c, 0, 46, 36
2, 88917, Note_on_c, 0, 70, 40
2, 88917, Note_on_c, 0, 62, 40
2, 88918, Note_on_c, 0, 58, 24
2, 88944, Control_c, 0, 64, 0
2, 88982, Control_c, 0, 64, 127
2, 89073, Note_off_c, 0, 58, 64
2, 89075, Note_off_c, 0, 62, 64
2, 89078, Note_off_c, 0, 46, 64
2, 89088, Note_off_c, 0, 53, 64
2, 89093, Note_off_c, 0, 68, 64
2, 89203, Note_on_c, 0, 51, 40
2, 89204, Note_on_c, 0, 63, 30
2, 89207, Note_on_c, 0, 67, 37
2, 89207, Note_on_c, 0, 58, 30
2, 89228, Control_c, 0, 64, 0
2, 89248, Control_c, 0, 64, 127
2, 89302, Note_off_c, 0, 63, 64
2, 89303, Note_off_c, 0, 51, 64
2, 89304, Note_off_c, 0, 67, 64
2, 89306, Note_off_c, 0, 58, 64
2, 89352, Note_on_c, 0, 63, 32
2, 89353, Note_on_c, 0, 67, 41
2, 89353, Note_on_c, 0, 58, 33
2, 89356, Note_on_c, 0, 51, 34
2, 89390, Control_c, 0, 64, 0
2, 89439, Control_c, 0, 64, 127
2, 89572, Note_off_c, 0, 67, 64
2, 89576, Note_off_c, 0, 70, 64
2, 89579, Note_off_c, 0, 51, 64
2, 89594, Note_off_c, 0, 63, 64
2, 89607, Note_off_c, 0, 58, 64
2, 89691, Note_on_c, 0, 58, 33
2, 89692, Note_on_c, 0, 63, 21
2, 89693, Note_on_c, 0, 75, 40
2, 89694, Note_on_c, 0, 67, 41
2, 89697, Note_on_c, 0, 51, 32
2, 89715, Control_c, 0, 64, 0
2, 89736, Control_c, 0, 64, 127
2, 89838, Note_off_c, 0, 51, 64
2, 89840, Note_off_c, 0, 67, 64
2, 89841, Note_off_c, 0, 75, 64
2, 89846, Note_off_c, 0, 58, 64
2, 89848, Note_off_c, 0, 63, 64
2, 89932, Note_on_c, 0, 75, 27
2, 89932, Note_on_c, 0, 67, 31
2, 89932, Note_on_c, 0, 58, 25
2, 89934, Note_on_c, 0, 51, 30
2, 90230, Control_c, 0, 64, 0
2, 90477, Control_c, 0, 64, 127
2, 90558, Note_off_c, 0, 58, 64
2, 90559, Note_off_c, 0, 75, 64
2, 90568, Note_off_c, 0, 67, 64
2, 90569, Note_off_c, 0, 51, 64
2, 90785, Note_on_c, 0, 67, 55
2, 90785, Note_on_c, 0, 51, 39
2, 90789, Note_on_c, 0, 60, 52
2, 90936, Note_on_c, 0, 70, 60
2, 90936, Note_on_c, 0, 55, 35
2, 90938, Note_on_c, 0, 62, 56
2, 90938, Note_on_c, 0, 58, 49
2, 90941, Note_on_c, 0, 43, 35
2, 90945, Note_off_c, 0, 67, 64
2, 90949, Note_off_c, 0, 60, 64
2, 90966, Note_off_c, 0, 51, 64
2, 90966, Control_c, 0, 64, 0
2, 90999, Control_c, 0, 64, 127
2, 91076, Note_off_c, 0, 62, 64
2, 91124, Note_off_c, 0, 70, 64
2, 91214, Note_off_c, 0, 58, 64
2, 91250, Note_off_c, 0, 43, 64
2, 91266, Note_on_c, 0, 48, 49
2, 91268, Note_on_c, 0, 72, 61
2, 91269, Note_on_c, 0, 58, 38
2, 91270, Note_on_c, 0, 64, 58
2, 91288, Note_off_c, 0, 55, 64
2, 91297, Control_c, 0, 64, 0
2, 91329, Control_c, 0, 64, 127
2, 91419, Note_off_c, 0, 64, 64
2, 91436, Note_off_c, 0, 72, 64
2, 91461, Note_off_c, 0, 58, 64
2, 91466, Note_on_c, 0, 41, 38
2, 91500, Note_on_c, 0, 57, 44
2, 91554, Note_on_c, 0, 63, 60
2, 91571, Note_off_c, 0, 48, 64
2, 91594, Note_on_c, 0, 72, 46
2, 91596, Control_c, 0, 64, 0
2, 91652, Control_c, 0, 64, 127
2, 91717, Note_off_c, 0, 57, 64
2, 91741, Note_off_c, 0, 72, 64
2, 91757, Note_off_c, 0, 63, 64
2, 91765, Note_off_c, 0, 41, 64
2, 92022, Note_on_c, 0, 58, 39
2, 92024, Note_on_c, 0, 62, 31
2, 92024, Note_on_c, 0, 34, 38
2, 92026, Note_on_c, 0, 70, 44
2, 92147, Note_off_c, 0, 70, 64
2, 92149, Note_off_c, 0, 58, 64
2, 92151, Note_off_c, 0, 34, 64
2, 92151, Note_off_c, 0, 62, 64
2, 92214, Note_on_c, 0, 62, 54
2, 92214, Note_on_c, 0, 58, 48
2, 92216, Note_on_c, 0, 70, 53
2, 92216, Note_on_c, 0, 53, 29
2, 92218, Note_on_c, 0, 46, 39
2, 92271, Control_c, 0, 64, 0
2, 92369, Control_c, 0, 64, 127
2, 92453, Note_off_c, 0, 53, 64
2, 92480, Note_off_c, 0, 62, 64
2, 92484, Note_off_c, 0, 70, 64
2, 92485, Note_off_c, 0, 58, 64
2, 92489, Note_off_c, 0, 46, 64
2, 92674, Note_on_c, 0, 50, 27
2, 92676, Note_on_c, 0, 62, 52
2, 92702, Control_c, 0, 64, 0
2, 92827, Control_c, 0, 64, 127
2, 92849, Note_on_c, 0, 60, 50
2, 92856, Note_on_c, 0, 42, 52
2, 92877, Note_off_c, 0, 62, 64
2, 92935, Note_on_c, 0, 51, 30
2, 92939, Note_on_c, 0, 63, 50
2, 92943, Note_off_c, 0, 50, 64
2, 92981, Note_off_c, 0, 60, 64
2, 92996, Note_on_c, 0, 50, 46
2, 93000, Note_on_c, 0, 62, 28
2, 93005, Note_off_c, 0, 63, 64
2, 93006, Note_off_c, 0, 51, 64
2, 93030, Note_off_c, 0, 42, 64
2, 93067, Note_on_c, 0, 69, 52
2, 93093, Note_off_c, 0, 62, 64
2, 93110, Control_c, 0, 64, 0
2, 93124, Note_on_c, 0, 66, 48
2, 93144, Note_off_c, 0, 69, 64
2, 93145, Control_c, 0, 64, 127
2, 93182, Note_on_c, 0, 63, 52
2, 93201, Note_off_c, 0, 66, 64
2, 93243, Note_on_c, 0, 43, 50
2, 93246, Note_on_c, 0, 58, 63
2, 93249, Note_on_c, 0, 62, 50
2, 93252, Note_off_c, 0, 63, 64
2, 93256, Control_c, 0, 64, 0
2, 93289, Control_c, 0, 64, 127
2, 93301, Note_off_c, 0, 50, 64
2, 93302, Note_on_c, 0, 51, 53
2, 93307, Note_on_c, 0, 63, 36
2, 93312, Note_off_c, 0, 58, 64
2, 93314, Note_off_c, 0, 62, 64
2, 93351, Control_c, 0, 64, 0
2, 93364, Note_off_c, 0, 63, 64
2, 93368, Note_on_c, 0, 50, 50
2, 93370, Note_on_c, 0, 62, 43
2, 93372, Note_off_c, 0, 51, 64
2, 93387, Note_off_c, 0, 43, 64
2, 93389, Control_c, 0, 64, 127
2, 93426, Note_on_c, 0, 70, 39
2, 93433, Note_off_c, 0, 62, 64
2, 93489, Note_off_c, 0, 70, 64
2, 93490, Note_on_c, 0, 67, 46
2, 93541, Note_on_c, 0, 63, 30
2, 93553, Note_off_c, 0, 67, 64
2, 93601, Note_off_c, 0, 63, 64
2, 93608, Note_on_c, 0, 45, 60
2, 93609, Note_on_c, 0, 54, 63
2, 93651, Note_off_c, 0, 54, 64
2, 93657, Note_on_c, 0, 63, 61
2, 93692, Note_off_c, 0, 63, 64
2, 93714, Note_on_c, 0, 60, 39
2, 93715, Note_on_c, 0, 62, 63
2, 93724, Control_c, 0, 64, 0
2, 93763, Note_on_c, 0, 66, 56
2, 93763, Control_c, 0, 64, 127
2, 93801, Note_off_c, 0, 62, 64
2, 93825, Note_off_c, 0, 66, 64
2, 93830, Note_on_c, 0, 72, 58
2, 93853, Note_off_c, 0, 72, 64
2, 93878, Note_on_c, 0, 74, 73
2, 93935, Note_on_c, 0, 78, 56
2, 93982, Note_off_c, 0, 74, 64
2, 93995, Note_on_c, 0, 84, 61
2, 94002, Note_off_c, 0, 78, 64
2, 94021, Note_off_c, 0, 84, 64
2, 94045, Note_on_c, 0, 84, 69
2, 94116, Note_on_c, 0, 93, 67
2, 94135, Note_off_c, 0, 93, 64
2, 94138, Note_off_c, 0, 50, 64
2, 94142, Note_off_c, 0, 84, 64
2, 94142, Note_off_c, 0, 60, 64
2, 94156, Note_off_c, 0, 45, 64
2, 94266, Note_on_c, 0, 82, 56
2, 94270, Note_on_c, 0, 91, 62
2, 94336, Control_c, 0, 64, 0
2, 94343, Note_on_c, 0, 38, 62
2, 94346, Note_off_c, 0, 82, 64
2, 94347, Note_on_c, 0, 81, 62
2, 94368, Control_c, 0, 64, 127
2, 94389, Note_off_c, 0, 91, 64
2, 94407, Note_on_c, 0, 90, 57
2, 94425, Note_off_c, 0, 81, 64
2, 94460, Note_off_c, 0, 90, 64
2, 94471, Note_on_c, 0, 87, 49
2, 94475, Note_on_c, 0, 79, 68
2, 94480, Note_on_c, 0, 50, 57
2, 94496, Note_off_c, 0, 87, 64
2, 94508, Note_off_c, 0, 38, 64
2, 94528, Note_off_c, 0, 79, 64
2, 94533, Note_on_c, 0, 78, 67
2, 94591, Note_on_c, 0, 86, 58
2, 94597, Note_on_c, 0, 57, 54
2, 94600, Note_off_c, 0, 78, 64
2, 94649, Note_off_c, 0, 86, 64
2, 94650, Note_on_c, 0, 84, 57
2, 94654, Note_on_c, 0, 75, 73
2, 94655, Note_off_c, 0, 57, 64
2, 94685, Note_off_c, 0, 75, 64
2, 94690, Note_off_c, 0, 84, 64
2, 94716, Note_on_c, 0, 74, 70
2, 94720, Note_on_c, 0, 62, 49
2, 94738, Note_off_c, 0, 50, 64
2, 94774, Note_on_c, 0, 82, 55
2, 94791, Note_off_c, 0, 74, 64
2, 94805, Note_off_c, 0, 82, 64
2, 94836, Note_on_c, 0, 72, 71
2, 94840, Note_on_c, 0, 81, 62
2, 94845, Note_on_c, 0, 66, 44
2, 94873, Note_off_c, 0, 62, 64
2, 94892, Note_on_c, 0, 75, 67
2, 94903, Note_off_c, 0, 72, 64
2, 94926, Note_off_c, 0, 66, 64
2, 94926, Note_off_c, 0, 81, 64
2, 94955, Note_on_c, 0, 84, 64
2, 94980, Note_off_c, 0, 75, 64
2, 95009, Note_on_c, 0, 82, 59
2, 95012, Note_on_c, 0, 74, 69
2, 95026, Note_off_c, 0, 84, 64
2, 95032, Note_off_c, 0, 82, 64
2, 95036, Note_off_c, 0, 74, 64
2, 95086, Note_on_c, 0, 43, 57
2, 95089, Control_c, 0, 64, 0
2, 95093, Note_on_c, 0, 72, 50
2, 95123, Control_c, 0, 64, 127
2, 95147, Note_off_c, 0, 43, 64
2, 95152, Note_on_c, 0, 81, 49
2, 95193, Note_off_c, 0, 72, 64
2, 95208, Note_off_c, 0, 81, 64
2, 95223, Note_on_c, 0, 82, 68
2, 95225, Note_on_c, 0, 74, 63
2, 95228, Note_on_c, 0, 50, 56
2, 95271, Note_off_c, 0, 82, 64
2, 95275, Note_off_c, 0, 74, 64
2, 95290, Note_on_c, 0, 69, 71
2, 95292, Note_on_c, 0, 78, 39
2, 95315, Note_off_c, 0, 50, 64
2, 95320, Note_off_c, 0, 78, 64
2, 95323, Note_off_c, 0, 69, 64
2, 95342, Note_on_c, 0, 72, 63
2, 95347, Note_on_c, 0, 81, 62
2, 95351, Note_on_c, 0, 62, 67
2, 95382, Note_off_c, 0, 72, 64
2, 95400, Note_off_c, 0, 62, 64
2, 95401, Note_off_c, 0, 81, 64
2, 95413, Note_on_c, 0, 66, 73
2, 95449, Note_on_c, 0, 70, 74
2, 95453, Note_on_c, 0, 79, 63
2, 95473, Note_off_c, 0, 70, 64
2, 95477, Note_off_c, 0, 79, 64
2, 95483, Control_c, 0, 64, 0
2, 95496, Note_on_c, 0, 79, 62
2, 95498, Note_on_c, 0, 67, 58
2, 95501, Note_on_c, 0, 70, 62
2, 95503, Note_off_c, 0, 66, 64
2, 95516, Control_c, 0, 64, 127
2, 95524, Note_off_c, 0, 67, 64
2, 95526, Note_off_c, 0, 79, 64
2, 95539, Note_off_c, 0, 70, 64
2, 95592, Note_on_c, 0, 66, 73
2, 95594, Note_on_c, 0, 54, 64
2, 95624, Note_off_c, 0, 66, 64
2, 95627, Note_off_c, 0, 54, 64
2, 95663, Note_on_c, 0, 66, 55
2, 95663, Note_on_c, 0, 54, 58
2, 95713, Note_off_c, 0, 54, 64
2, 95721, Note_off_c, 0, 66, 64
2, 95722, Note_on_c, 0, 53, 64
2, 95727, Note_on_c, 0, 65, 60
2, 95754, Note_off_c, 0, 53, 64
2, 95759, Note_off_c, 0, 65, 64
2, 95784, Note_on_c, 0, 53, 69
2, 95789, Note_on_c, 0, 65, 62
2, 95850, Note_off_c, 0, 65, 64
2, 95850, Note_on_c, 0, 64, 67
2, 95853, Note_on_c, 0, 52, 41
2, 95856, Note_off_c, 0, 53, 64
2, 95922, Note_on_c, 0, 44, 61
2, 95927, Note_on_c, 0, 62, 53
2, 95931, Note_off_c, 0, 52, 64
2, 95933, Control_c, 0, 64, 0
2, 95944, Note_off_c, 0, 64, 64
2, 95984, Note_on_c, 0, 53, 73
2, 95986, Control_c, 0, 64, 127
2, 95994, Note_on_c, 0, 65, 58
2, 96013, Note_off_c, 0, 62, 64
2, 96051, Note_on_c, 0, 64, 38
2, 96052, Note_on_c, 0, 52, 61
2, 96054, Note_off_c, 0, 53, 64
2, 96058, Note_off_c, 0, 65, 64
2, 96074, Note_off_c, 0, 44, 64
2, 96090, Note_off_c, 0, 64, 64
2, 96115, Note_on_c, 0, 71, 69
2, 96171, Note_on_c, 0, 68, 42
2, 96187, Note_off_c, 0, 71, 64
2, 96233, Note_on_c, 0, 65, 50
2, 96247, Note_off_c, 0, 68, 64
2, 96267, Note_off_c, 0, 65, 64
2, 96289, Note_on_c, 0, 45, 64
2, 96292, Note_on_c, 0, 60, 53
2, 96293, Control_c, 0, 64, 0
2, 96300, Note_on_c, 0, 64, 47
2, 96306, Note_off_c, 0, 52, 64
2, 96324, Control_c, 0, 64, 127
2, 96350, Note_off_c, 0, 60, 64
2, 96358, Note_on_c, 0, 65, 56
2, 96359, Note_on_c, 0, 53, 67
2, 96373, Note_off_c, 0, 64, 64
2, 96420, Note_on_c, 0, 64, 42
2, 96420, Note_on_c, 0, 52, 67
2, 96425, Note_off_c, 0, 53, 64
2, 96425, Note_off_c, 0, 65, 64
2, 96441, Control_c, 0, 64, 0
2, 96463, Control_c, 0, 64, 127
2, 96484, Note_off_c, 0, 64, 64
2, 96489, Note_on_c, 0, 72, 39
2, 96539, Note_on_c, 0, 69, 39
2, 96549, Note_off_c, 0, 72, 64
2, 96578, Note_off_c, 0, 45, 64
2, 96592, Note_on_c, 0, 65, 55
2, 96597, Note_off_c, 0, 69, 64
2, 96641, Note_off_c, 0, 65, 64
2, 96647, Control_c, 0, 64, 0
2, 96654, Note_on_c, 0, 56, 67
2, 96660, Note_on_c, 0, 47, 64
2, 96673, Control_c, 0, 64, 127
2, 96680, Note_off_c, 0, 52, 64
2, 96697, Note_off_c, 0, 56, 64
2, 96708, Note_on_c, 0, 65, 57
2, 96733, Note_off_c, 0, 65, 64
2, 96751, Control_c, 0, 64, 0
2, 96760, Note_on_c, 0, 52, 46
2, 96764, Note_on_c, 0, 64, 71
2, 96764, Note_on_c, 0, 62, 56
2, 96799, Control_c, 0, 64, 127
2, 96809, Note_on_c, 0, 68, 60
2, 96853, Note_off_c, 0, 64, 64
2, 96870, Note_off_c, 0, 68, 64
2, 96875, Note_on_c, 0, 74, 57
2, 96892, Note_off_c, 0, 74, 64
2, 96917, Note_on_c, 0, 76, 74
2, 96978, Note_on_c, 0, 80, 55
2, 97019, Note_off_c, 0, 76, 64
2, 97032, Note_on_c, 0, 86, 61
2, 97038, Note_off_c, 0, 80, 64
2, 97056, Note_off_c, 0, 86, 64
2, 97082, Note_on_c, 0, 86, 73
2, 97157, Note_on_c, 0, 95, 69
2, 97177, Note_off_c, 0, 62, 64
2, 97178, Note_off_c, 0, 52, 64
2, 97182, Note_off_c, 0, 95, 64
2, 97184, Note_off_c, 0, 86, 64
2, 97192, Note_off_c, 0, 47, 64
2, 97315, Note_on_c, 0, 93, 58
2, 97317, Note_on_c, 0, 84, 50
2, 97354, Note_off_c, 0, 84, 64
2, 97385, Control_c, 0, 64, 0
2, 97393, Note_off_c, 0, 93, 64
2, 97402, Note_on_c, 0, 40, 62
2, 97403, Note_on_c, 0, 84, 71
2, 97417, Control_c, 0, 64, 127
2, 97480, Note_on_c, 0, 93, 50
2, 97491, Note_off_c, 0, 40, 64
2, 97498, Note_off_c, 0, 84, 64
2, 97541, Note_on_c, 0, 92, 64
2, 97543, Note_on_c, 0, 52, 67
2, 97547, Note_off_c, 0, 93, 64
2, 97547, Note_on_c, 0, 83, 63
2, 97566, Note_off_c, 0, 92, 64
2, 97603, Note_on_c, 0, 81, 71
2, 97609, Note_off_c, 0, 83, 64
2, 97636, Note_off_c, 0, 81, 64
2, 97662, Note_on_c, 0, 89, 68
2, 97666, Note_on_c, 0, 59, 58
2, 97713, Note_on_c, 0, 88, 51
2, 97718, Note_on_c, 0, 80, 73
2, 97719, Note_off_c, 0, 89, 64
2, 97742, Note_off_c, 0, 80, 64
2, 97744, Note_off_c, 0, 88, 64
2, 97781, Note_off_c, 0, 59, 64
2, 97781, Note_on_c, 0, 77, 62
2, 97781, Note_on_c, 0, 62, 57
2, 97786, Note_off_c, 0, 52, 64
2, 97819, Note_off_c, 0, 62, 64
2, 97834, Note_on_c, 0, 86, 55
2, 97840, Note_off_c, 0, 77, 64
2, 97858, Note_off_c, 0, 86, 64
2, 97900, Note_on_c, 0, 84, 69
2, 97900, Note_on_c, 0, 76, 67
2, 97904, Note_on_c, 0, 68, 41
2, 97923, Note_off_c, 0, 76, 64
2, 97931, Note_off_c, 0, 84, 64
2, 97963, Note_on_c, 0, 83, 60
2, 97965, Note_on_c, 0, 74, 67
2, 98027, Note_off_c, 0, 74, 64
2, 98027, Note_on_c, 0, 77, 50
2, 98030, Note_off_c, 0, 83, 64
2, 98033, Note_off_c, 0, 68, 64
2, 98036, Note_on_c, 0, 86, 64
2, 98084, Note_off_c, 0, 77, 64
2, 98100, Note_on_c, 0, 84, 60
2, 98116, Note_off_c, 0, 86, 64
2, 98135, Note_off_c, 0, 84, 64
2, 98170, Note_on_c, 0, 33, 72
2, 98174, Note_on_c, 0, 74, 67
2, 98182, Control_c, 0, 64, 0
2, 98208, Control_c, 0, 64, 127
2, 98240, Note_on_c, 0, 83, 56
2, 98269, Note_off_c, 0, 74, 64
2, 98290, Note_off_c, 0, 83, 64
2, 98298, Note_on_c, 0, 45, 62
2, 98308, Note_on_c, 0, 84, 62
2, 98310, Note_on_c, 0, 76, 62
2, 98324, Note_off_c, 0, 33, 64
2, 98337, Note_off_c, 0, 84, 64
2, 98357, Note_off_c, 0, 76, 64
2, 98369, Note_on_c, 0, 52, 67
2, 98389, Note_on_c, 0, 80, 61
2, 98398, Note_off_c, 0, 45, 64
2, 98402, Note_on_c, 0, 71, 50
2, 98427, Note_off_c, 0, 71, 64
2, 98447, Note_on_c, 0, 57, 64
2, 98450, Note_off_c, 0, 52, 64
2, 98452, Note_on_c, 0, 83, 67
2, 98470, Note_off_c, 0, 80, 64
2, 98481, Note_off_c, 0, 57, 64
2, 98523, Note_on_c, 0, 81, 65
2, 98525, Note_on_c, 0, 64, 69
2, 98530, Note_off_c, 0, 83, 64
2, 98533, Note_on_c, 0, 72, 52
2, 98585, Note_off_c, 0, 72, 64
2, 98588, Note_off_c, 0, 81, 64
2, 98600, Note_on_c, 0, 69, 74
2, 98605, Note_off_c, 0, 64, 64
2, 98677, Note_on_c, 0, 81, 62
2, 98679, Note_on_c, 0, 72, 53
2, 98744, Control_c, 0, 64, 0
2, 98750, Note_on_c, 0, 64, 68
2, 98761, Note_off_c, 0, 69, 64
2, 98773, Control_c, 0, 64, 127
2, 98777, Note_off_c, 0, 81, 64
2, 98787, Note_off_c, 0, 72, 64
2, 98829, Note_on_c, 0, 72, 49
2, 98833, Note_on_c, 0, 81, 56
2, 98910, Note_on_c, 0, 63, 74
2, 98911, Control_c, 0, 64, 0
2, 98925, Note_off_c, 0, 64, 64
2, 98945, Control_c, 0, 64, 127
2, 98949, Note_off_c, 0, 81, 64
2, 98955, Note_off_c, 0, 72, 64
2, 99006, Note_on_c, 0, 72, 53
2, 99008, Note_on_c, 0, 81, 55
2, 99137, Note_on_c, 0, 62, 67
2, 99145, Note_off_c, 0, 63, 64
2, 99160, Control_c, 0, 64, 0
2, 99162, Note_off_c, 0, 72, 64
2, 99170, Note_off_c, 0, 81, 64
2, 99200, Control_c, 0, 64, 127
2, 99228, Note_on_c, 0, 82, 64
2, 99230, Note_on_c, 0, 74, 43
2, 99318, Note_off_c, 0, 74, 64
2, 99333, Note_off_c, 0, 82, 64
2, 99375, Note_on_c, 0, 81, 49
2, 99376, Note_on_c, 0, 72, 53
2, 99433, Control_c, 0, 64, 0
2, 99452, Note_on_c, 0, 54, 58
2, 99467, Control_c, 0, 64, 127
2, 99482, Note_off_c, 0, 62, 64
2, 99492, Note_off_c, 0, 72, 64
2, 99514, Note_on_c, 0, 75, 56
2, 99518, Note_on_c, 0, 84, 53
2, 99526, Note_off_c, 0, 81, 64
2, 99576, Control_c, 0, 64, 0
2, 99592, Note_on_c, 0, 55, 59
2, 99602, Note_off_c, 0, 54, 64
2, 99605, Control_c, 0, 64, 127
2, 99650, Note_on_c, 0, 82, 57
2, 99654, Note_off_c, 0, 75, 64
2, 99654, Note_on_c, 0, 74, 57
2, 99672, Note_off_c, 0, 84, 64
2, 99687, Note_off_c, 0, 82, 64
2, 99688, Note_off_c, 0, 74, 64
2, 99729, Note_on_c, 0, 57, 62
2, 99735, Note_off_c, 0, 55, 64
2, 99783, Note_on_c, 0, 78, 57
2, 99787, Note_on_c, 0, 72, 53
2, 99820, Note_off_c, 0, 72, 64
2, 99835, Note_off_c, 0, 78, 64
2, 99855, Note_on_c, 0, 58, 62
2, 99859, Note_on_c, 0, 79, 55
2, 99860, Note_on_c, 0, 70, 78
2, 99877, Note_off_c, 0, 57, 64
2, 99883, Note_off_c, 0, 58, 64
2, 99888, Note_off_c, 0, 70, 64
2, 99907, Note_off_c, 0, 79, 64
2, 99923, Note_on_c, 0, 82, 67
2, 99930, Note_on_c, 0, 74, 62
2, 99932, Note_on_c, 0, 50, 69
2, 99989, Control_c, 0, 64, 0
2, 100003, Note_on_c, 0, 38, 72
2, 100041, Control_c, 0, 64, 127
2, 100064, Note_off_c, 0, 38, 64
2, 100075, Note_off_c, 0, 82, 64
2, 100076, Note_off_c, 0, 50, 64
2, 100083, Note_off_c, 0, 74, 64
2, 100084, Note_on_c, 0, 81, 61
2, 100089, Note_on_c, 0, 72, 44
2, 100161, Note_on_c, 0, 62, 51
2, 100199, Note_off_c, 0, 81, 64
2, 100220, Note_on_c, 0, 82, 62
2, 100228, Note_on_c, 0, 74, 58
2, 100237, Note_off_c, 0, 72, 64
2, 100273, Control_c, 0, 64, 0
2, 100280, Note_off_c, 0, 74, 64
2, 100282, Note_off_c, 0, 82, 64
2, 100285, Note_off_c, 0, 62, 64
2, 100291, Note_on_c, 0, 66, 47
2, 100291, Note_on_c, 0, 60, 48
2, 100293, Note_on_c, 0, 78, 58
2, 100296, Note_on_c, 0, 69, 56
2, 100304, Control_c, 0, 64, 127
2, 100345, Note_off_c, 0, 78, 64
2, 100372, Note_on_c, 0, 81, 58
2, 100372, Note_on_c, 0, 72, 62
2, 100387, Note_off_c, 0, 69, 64
2, 100405, Note_off_c, 0, 72, 64
2, 100406, Note_off_c, 0, 66, 64
2, 100408, Note_off_c, 0, 81, 64
2, 100422, Note_off_c, 0, 60, 64
2, 100435, Note_on_c, 0, 72, 61
2, 100437, Control_c, 0, 64, 0
2, 100440, Note_on_c, 0, 55, 56
2, 100443, Note_on_c, 0, 81, 38
2, 100462, Control_c, 0, 64, 127
2, 100503, Note_off_c, 0, 72, 64
2, 100519, Note_off_c, 0, 81, 64
2, 100530, Note_on_c, 0, 70, 67
2, 100537, Note_on_c, 0, 79, 51
2, 100549, Note_off_c, 0, 79, 64
2, 100553, Note_off_c, 0, 70, 64
2, 100554, Note_on_c, 0, 81, 48
2, 100572, Note_on_c, 0, 70, 45
2, 100577, Note_on_c, 0, 79, 64
2, 100582, Control_c, 0, 64, 0
2, 100588, Note_on_c, 0, 62, 61
2, 100590, Note_off_c, 0, 81, 64
2, 100612, Control_c, 0, 64, 127
2, 100623, Note_off_c, 0, 70, 64
2, 100654, Note_on_c, 0, 78, 58
2, 100654, Note_on_c, 0, 69, 56
2, 100657, Note_off_c, 0, 79, 64
2, 100732, Note_on_c, 0, 61, 67
2, 100736, Note_off_c, 0, 69, 64
2, 100739, Control_c, 0, 64, 0
2, 100745, Note_off_c, 0, 55, 64
2, 100752, Note_off_c, 0, 62, 64
2, 100779, Control_c, 0, 64, 127
2, 100810, Note_on_c, 0, 79, 51
2, 100813, Note_on_c, 0, 70, 57
2, 100822, Note_off_c, 0, 78, 64
2, 100893, Control_c, 0, 64, 0
2, 100901, Note_on_c, 0, 60, 64
2, 100913, Note_off_c, 0, 61, 64
2, 100985, Note_off_c, 0, 79, 64
2, 100987, Note_on_c, 0, 80, 60
2, 100994, Note_on_c, 0, 72, 57
2, 101003, Note_off_c, 0, 70, 64
2, 101123, Control_c, 0, 64, 127
2, 101152, Note_off_c, 0, 72, 64
2, 101153, Note_off_c, 0, 80, 64
2, 101162, Note_on_c, 0, 79, 56
2, 101162, Note_on_c, 0, 70, 52
2, 101259, Note_on_c, 0, 52, 62
2, 101284, Note_off_c, 0, 60, 64
2, 101315, Note_off_c, 0, 70, 64
2, 101330, Note_on_c, 0, 82, 64
2, 101334, Note_on_c, 0, 73, 58
2, 101339, Note_off_c, 0, 79, 64
2, 101410, Note_on_c, 0, 53, 64
2, 101425, Note_off_c, 0, 52, 64
2, 101431, Control_c, 0, 64, 0
2, 101470, Note_on_c, 0, 80, 65
2, 101478, Note_on_c, 0, 72, 60
2, 101482, Note_off_c, 0, 82, 64
2, 101487, Note_off_c, 0, 73, 64
2, 101548, Note_on_c, 0, 55, 57
2, 101551, Control_c, 0, 64, 127
2, 101557, Note_off_c, 0, 80, 64
2, 101568, Note_off_c, 0, 72, 64
2, 101573, Note_off_c, 0, 53, 64
2, 101618, Note_on_c, 0, 70, 73
2, 101623, Note_on_c, 0, 76, 61
2, 101651, Note_off_c, 0, 70, 64
2, 101684, Note_on_c, 0, 56, 65
2, 101689, Note_on_c, 0, 68, 73
2, 101691, Note_on_c, 0, 77, 62
2, 101695, Note_off_c, 0, 76, 64
2, 101699, Note_off_c, 0, 55, 64
2, 101709, Note_off_c, 0, 56, 64
2, 101756, Note_off_c, 0, 68, 64
2, 101761, Note_off_c, 0, 77, 64
2, 101762, Note_on_c, 0, 48, 73
2, 101767, Note_on_c, 0, 80, 60
2, 101772, Note_on_c, 0, 72, 58
2, 101837, Control_c, 0, 64, 0
2, 101852, Note_on_c, 0, 36, 79
2, 101889, Control_c, 0, 64, 127
2, 101919, Note_off_c, 0, 36, 64
2, 101933, Note_off_c, 0, 48, 64
2, 101940, Note_off_c, 0, 80, 64
2, 101943, Note_on_c, 0, 70, 58
2, 101944, Note_on_c, 0, 79, 57
2, 101951, Note_off_c, 0, 72, 64
2, 102024, Note_on_c, 0, 60, 60
2, 102087, Note_off_c, 0, 79, 64
2, 102093, Note_on_c, 0, 80, 56
2, 102101, Note_on_c, 0, 72, 56
2, 102119, Note_off_c, 0, 70, 64
2, 102157, Note_off_c, 0, 80, 64
2, 102160, Note_off_c, 0, 72, 64
2, 102169, Control_c, 0, 64, 0
2, 102173, Note_on_c, 0, 58, 62
2, 102177, Note_on_c, 0, 64, 53
2, 102179, Note_on_c, 0, 76, 56
2, 102179, Note_on_c, 0, 67, 56
2, 102184, Note_off_c, 0, 60, 64
2, 102197, Control_c, 0, 64, 127
2, 102220, Note_off_c, 0, 76, 64
2, 102259, Note_on_c, 0, 79, 48
2, 102263, Note_on_c, 0, 70, 57
2, 102294, Note_off_c, 0, 67, 64
2, 102298, Note_off_c, 0, 70, 64
2, 102304, Note_off_c, 0, 79, 64
2, 102334, Note_off_c, 0, 58, 64
2, 102337, Note_on_c, 0, 53, 56
2, 102340, Note_on_c, 0, 70, 58
2, 102345, Note_on_c, 0, 79, 30
2, 102347, Control_c, 0, 64, 0
2, 102362, Note_off_c, 0, 64, 64
2, 102369, Control_c, 0, 64, 127
2, 102414, Note_off_c, 0, 70, 64
2, 102418, Note_off_c, 0, 79, 64
2, 102441, Note_on_c, 0, 68, 67
2, 102443, Note_on_c, 0, 77, 52
2, 102465, Note_off_c, 0, 77, 64
2, 102466, Note_off_c, 0, 68, 64
2, 102470, Note_on_c, 0, 79, 58
2, 102499, Note_on_c, 0, 77, 60
2, 102499, Note_on_c, 0, 68, 58
2, 102504, Note_on_c, 0, 60, 55
2, 102507, Note_off_c, 0, 79, 64
2, 102509, Control_c, 0, 64, 0
2, 102542, Control_c, 0, 64, 127
2, 102552, Note_off_c, 0, 68, 64
2, 102570, Note_off_c, 0, 77, 64
2, 102588, Note_on_c, 0, 67, 42
2, 102589, Note_on_c, 0, 76, 49
2, 102661, Note_off_c, 0, 67, 64
2, 102671, Note_off_c, 0, 60, 64
2, 102672, Note_off_c, 0, 53, 64
2, 102675, Note_on_c, 0, 56, 50
2, 102677, Control_c, 0, 64, 0
2, 102681, Note_on_c, 0, 65, 51
2, 102706, Control_c, 0, 64, 127
2, 102713, Note_off_c, 0, 65, 64
2, 102721, Note_off_c, 0, 56, 64
2, 102752, Note_off_c, 0, 76, 64
2, 102768, Note_on_c, 0, 68, 56
2, 102771, Note_on_c, 0, 77, 51
2, 102797, Note_off_c, 0, 68, 64
2, 102805, Note_off_c, 0, 77, 64
2, 102845, Control_c, 0, 64, 0
2, 102853, Note_on_c, 0, 44, 62
2, 102855, Note_on_c, 0, 68, 58
2, 102858, Note_on_c, 0, 77, 56
2, 102872, Control_c, 0, 64, 127
2, 102886, Note_off_c, 0, 44, 64
2, 102896, Note_off_c, 0, 68, 64
2, 102901, Note_off_c, 0, 77, 64
2, 102930, Note_on_c, 0, 78, 52
2, 102941, Note_on_c, 0, 70, 50
2, 102981, Note_off_c, 0, 70, 64
2, 103013, Note_on_c, 0, 56, 47
2, 103025, Note_on_c, 0, 70, 3
2, 103042, Note_off_c, 0, 70, 64
2, 103042, Note_off_c, 0, 78, 64
2, 103048, Note_on_c, 0, 58, 65
2, 103050, Note_off_c, 0, 56, 64
2, 103089, Note_on_c, 0, 56, 52
2, 103097, Note_on_c, 0, 68, 1
2, 103098, Note_off_c, 0, 58, 64
2, 103107, Note_on_c, 0, 77, 55
2, 103125, Note_off_c, 0, 56, 64
2, 103127, Note_on_c, 0, 55, 61
2, 103141, Note_off_c, 0, 68, 64
2, 103155, Note_on_c, 0, 56, 65
2, 103162, Note_off_c, 0, 55, 64
2, 103183, Note_off_c, 0, 77, 64
2, 103185, Note_on_c, 0, 75, 58
2, 103185, Note_on_c, 0, 66, 71
2, 103190, Note_on_c, 0, 48, 60
2, 103190, Control_c, 0, 64, 0
2, 103218, Control_c, 0, 64, 127
2, 103226, Note_off_c, 0, 66, 64
2, 103231, Note_off_c, 0, 56, 64
2, 103240, Note_off_c, 0, 48, 64
2, 103265, Note_on_c, 0, 70, 64
2, 103269, Note_on_c, 0, 78, 50
2, 103273, Note_off_c, 0, 75, 64
2, 103313, Note_off_c, 0, 78, 64
2, 103333, Note_on_c, 0, 37, 64
2, 103336, Control_c, 0, 64, 0
2, 103347, Note_on_c, 0, 77, 62
2, 103347, Note_on_c, 0, 68, 61
2, 103351, Note_off_c, 0, 70, 64
2, 103362, Control_c, 0, 64, 127
2, 103366, Note_off_c, 0, 37, 64
2, 103400, Note_off_c, 0, 77, 64
2, 103411, Note_on_c, 0, 78, 62
2, 103415, Note_on_c, 0, 70, 64
2, 103432, Note_off_c, 0, 68, 64
2, 103443, Note_off_c, 0, 70, 64
2, 103461, Note_off_c, 0, 78, 64
2, 103480, Note_on_c, 0, 77, 61
2, 103480, Note_on_c, 0, 68, 47
2, 103484, Note_on_c, 0, 55, 29
2, 103490, Note_on_c, 0, 56, 69
2, 103500, Note_off_c, 0, 55, 64
2, 103500, Note_off_c, 0, 68, 64
2, 103506, Note_on_c, 0, 58, 61
2, 103523, Note_off_c, 0, 56, 64
2, 103530, Note_on_c, 0, 56, 80
2, 103538, Note_off_c, 0, 77, 64
2, 103540, Note_on_c, 0, 55, 54
2, 103553, Note_off_c, 0, 58, 64
2, 103553, Note_on_c, 0, 72, 43
2, 103557, Note_on_c, 0, 66, 41
2, 103560, Note_off_c, 0, 56, 64
2, 103565, Note_on_c, 0, 56, 65
2, 103578, Note_off_c, 0, 72, 64
2, 103582, Note_off_c, 0, 55, 64
2, 103600, Note_off_c, 0, 66, 64
2, 103610, Note_off_c, 0, 56, 64
2, 103611, Note_on_c, 0, 61, 56
2, 103615, Note_on_c, 0, 65, 62
2, 103621, Note_on_c, 0, 73, 55
2, 103628, Control_c, 0, 64, 0
2, 103654, Control_c, 0, 64, 127
2, 103661, Note_off_c, 0, 61, 64
2, 103674, Note_off_c, 0, 65, 64
2, 103696, Note_on_c, 0, 77, 67
2, 103702, Note_off_c, 0, 73, 64
2, 103765, Note_on_c, 0, 75, 62
2, 103768, Note_off_c, 0, 77, 64
2, 103769, Note_on_c, 0, 67, 56
2, 103772, Note_on_c, 0, 39, 67
2, 103778, Control_c, 0, 64, 0
2, 103800, Control_c, 0, 64, 127
2, 103824, Note_off_c, 0, 39, 64
2, 103835, Note_off_c, 0, 75, 64
2, 103843, Note_on_c, 0, 77, 56
2, 103855, Note_off_c, 0, 67, 64
2, 103905, Note_on_c, 0, 51, 49
2, 103908, Control_c, 0, 64, 0
2, 103912, Note_on_c, 0, 75, 62
2, 103912, Note_on_c, 0, 67, 53
2, 103917, Note_off_c, 0, 77, 64
2, 103940, Control_c, 0, 64, 127
2, 103977, Note_on_c, 0, 77, 57
2, 103979, Note_off_c, 0, 67, 64
2, 103981, Note_off_c, 0, 75, 64
2, 104026, Note_off_c, 0, 51, 64
2, 104040, Note_on_c, 0, 63, 61
2, 104042, Note_on_c, 0, 73, 67
2, 104046, Note_off_c, 0, 77, 64
2, 104047, Note_on_c, 0, 65, 59
2, 104060, Note_off_c, 0, 63, 64
2, 104085, Note_off_c, 0, 65, 64
2, 104088, Note_off_c, 0, 73, 64
2, 104103, Note_on_c, 0, 75, 56
2, 104156, Note_off_c, 0, 75, 64
2, 104167, Control_c, 0, 64, 0
2, 104174, Note_on_c, 0, 72, 57
2, 104175, Note_on_c, 0, 44, 62
2, 104179, Note_on_c, 0, 63, 63
2, 104200, Control_c, 0, 64, 127
2, 104209, Note_off_c, 0, 44, 64
2, 104237, Note_off_c, 0, 72, 64
2, 104246, Note_on_c, 0, 73, 62
2, 104260, Note_off_c, 0, 63, 64
2, 104287, Note_off_c, 0, 73, 64
2, 104296, Control_c, 0, 64, 0
2, 104309, Note_on_c, 0, 61, 71
2, 104310, Note_on_c, 0, 51, 49
2, 104314, Note_on_c, 0, 70, 49
2, 104328, Control_c, 0, 64, 127
2, 104371, Note_on_c, 0, 72, 56
2, 104376, Note_off_c, 0, 70, 64
2, 104378, Note_off_c, 0, 61, 64
2, 104402, Note_off_c, 0, 51, 64
2, 104424, Note_off_c, 0, 72, 64
2, 104433, Note_on_c, 0, 68, 73
2, 104436, Note_on_c, 0, 60, 58
2, 104436, Note_on_c, 0, 56, 58
2, 104439, Note_on_c, 0, 63, 73
2, 104489, Note_off_c, 0, 68, 64
2, 104493, Note_off_c, 0, 63, 64
2, 104496, Note_off_c, 0, 56, 64
2, 104496, Note_off_c, 0, 60, 64
2, 104563, Control_c, 0, 64, 0
2, 104569, Note_on_c, 0, 44, 60
2, 104574, Note_on_c, 0, 80, 67
2, 104577, Note_on_c, 0, 89, 62
2, 104596, Control_c, 0, 64, 127
2, 104603, Note_off_c, 0, 44, 64
2, 104610, Note_off_c, 0, 80, 64
2, 104620, Note_off_c, 0, 89, 64
2, 104654, Note_on_c, 0, 90, 55
2, 104662, Note_on_c, 0, 82, 48
2, 104694, Note_off_c, 0, 82, 64
2, 104723, Note_on_c, 0, 68, 61
2, 104755, Note_on_c, 0, 70, 71
2, 104757, Note_off_c, 0, 68, 64
2, 104784, Note_off_c, 0, 70, 64
2, 104785, Note_on_c, 0, 68, 62
2, 104789, Note_on_c, 0, 80, 26
2, 104793, Note_off_c, 0, 90, 64
2, 104802, Note_on_c, 0, 89, 62
2, 104826, Note_on_c, 0, 67, 67
2, 104828, Note_off_c, 0, 68, 64
2, 104832, Note_off_c, 0, 80, 64
2, 104849, Note_on_c, 0, 68, 66
2, 104869, Note_off_c, 0, 67, 64
2, 104875, Note_off_c, 0, 89, 64
2, 104878, Note_on_c, 0, 60, 77
2, 104884, Control_c, 0, 64, 0
2, 104888, Note_on_c, 0, 78, 73
2, 104889, Note_off_c, 0, 68, 64
2, 104891, Note_on_c, 0, 87, 56
2, 104908, Control_c, 0, 64, 127
2, 104917, Note_off_c, 0, 78, 64
2, 104917, Note_off_c, 0, 60, 64
2, 104951, Note_on_c, 0, 90, 65
2, 104955, Note_off_c, 0, 87, 64
2, 104956, Note_on_c, 0, 82, 58
2, 105005, Note_off_c, 0, 90, 64
2, 105013, Note_off_c, 0, 82, 64
2, 105019, Control_c, 0, 64, 0
2, 105023, Note_on_c, 0, 80, 73
2, 105027, Note_on_c, 0, 49, 65
2, 105029, Note_on_c, 0, 89, 64
2, 105039, Control_c, 0, 64, 127
2, 105048, Note_off_c, 0, 49, 64
2, 105066, Note_off_c, 0, 89, 64
2, 105089, Note_on_c, 0, 82, 58
2, 105091, Note_on_c, 0, 90, 57
2, 105122, Note_off_c, 0, 82, 64
2, 105142, Note_off_c, 0, 90, 64
2, 105148, Note_on_c, 0, 89, 53
2, 105157, Note_on_c, 0, 67, 36
2, 105166, Note_on_c, 0, 68, 68
2, 105176, Note_off_c, 0, 67, 64
2, 105176, Note_off_c, 0, 80, 64
2, 105186, Note_on_c, 0, 70, 65
2, 105199, Note_off_c, 0, 68, 64
2, 105208, Note_on_c, 0, 68, 80
2, 105209, Note_off_c, 0, 89, 64
2, 105217, Note_on_c, 0, 78, 67
2, 105220, Note_on_c, 0, 67, 54
2, 105229, Note_off_c, 0, 70, 64
2, 105238, Note_off_c, 0, 68, 64
2, 105243, Note_on_c, 0, 68, 67
2, 105259, Note_off_c, 0, 67, 64
2, 105262, Note_off_c, 0, 78, 64
2, 105279, Note_on_c, 0, 77, 56
2, 105285, Note_on_c, 0, 73, 65
2, 105287, Note_off_c, 0, 68, 64
2, 105287, Note_on_c, 0, 85, 63
2, 105293, Control_c, 0, 64, 0
2, 105321, Control_c, 0, 64, 127
2, 105328, Note_off_c, 0, 73, 64
2, 105347, Note_off_c, 0, 77, 64
2, 105360, Note_on_c, 0, 89, 67
2, 105362, Note_off_c, 0, 85, 64
2, 105422, Control_c, 0, 64, 0
2, 105430, Note_on_c, 0, 87, 68
2, 105430, Note_on_c, 0, 79, 62
2, 105433, Note_off_c, 0, 89, 64
2, 105433, Note_on_c, 0, 51, 73
2, 105449, Control_c, 0, 64, 127
2, 105467, Note_off_c, 0, 51, 64
2, 105496, Note_on_c, 0, 89, 58
2, 105499, Note_off_c, 0, 87, 64
2, 105508, Note_off_c, 0, 79, 64
2, 105550, Control_c, 0, 64, 0
2, 105559, Note_on_c, 0, 63, 58
2, 105560, Note_on_c, 0, 87, 62
2, 105562, Note_off_c, 0, 89, 64
2, 105564, Note_on_c, 0, 79, 67
2, 105578, Control_c, 0, 64, 127
2, 105618, Note_off_c, 0, 87, 64
2, 105619, Note_off_c, 0, 79, 64
2, 105623, Note_on_c, 0, 89, 57
2, 105676, Note_off_c, 0, 63, 64
2, 105680, Note_on_c, 0, 75, 56
2, 105684, Note_off_c, 0, 89, 64
2, 105684, Note_on_c, 0, 85, 74
2, 105686, Note_on_c, 0, 77, 67
2, 105690, Note_on_c, 0, 67, 49
2, 105698, Note_off_c, 0, 75, 64
2, 105702, Note_off_c, 0, 67, 64
2, 105727, Note_off_c, 0, 77, 64
2, 105728, Note_off_c, 0, 85, 64
2, 105746, Note_on_c, 0, 87, 48
2, 105788, Note_off_c, 0, 87, 64
2, 105796, Control_c, 0, 64, 0
2, 105810, Note_on_c, 0, 56, 60
2, 105814, Note_on_c, 0, 84, 58
2, 105819, Note_on_c, 0, 75, 64
2, 105829, Control_c, 0, 64, 127
2, 105838, Note_off_c, 0, 56, 64
2, 105870, Note_off_c, 0, 75, 64
2, 105876, Note_off_c, 0, 84, 64
2, 105882, Note_on_c, 0, 85, 47
2, 105919, Note_off_c, 0, 85, 64
2, 105937, Note_on_c, 0, 73, 73
2, 105941, Note_on_c, 0, 63, 62
2, 105943, Note_on_c, 0, 82, 53
2, 105978, Note_off_c, 0, 82, 64
2, 105991, Note_off_c, 0, 63, 64
2, 106000, Note_off_c, 0, 73, 64
2, 106005, Note_on_c, 0, 84, 36
2, 106043, Note_off_c, 0, 84, 64
2, 106059, Note_on_c, 0, 72, 58
2, 106063, Note_on_c, 0, 80, 79
2, 106063, Note_on_c, 0, 75, 73
2, 106068, Note_on_c, 0, 68, 58
2, 106077, Note_off_c, 0, 75, 64
2, 106078, Note_off_c, 0, 72, 64
2, 106081, Note_off_c, 0, 68, 64
2, 106086, Note_off_c, 0, 80, 64
2, 106126, Note_on_c, 0, 89, 73
2, 106173, Control_c, 0, 64, 0
2, 106181, Note_off_c, 0, 89, 64
2, 106183, Note_on_c, 0, 87, 76
2, 106186, Note_on_c, 0, 79, 67
2, 106186, Note_on_c, 0, 51, 67
2, 106206, Control_c, 0, 64, 127
2, 106216, Note_off_c, 0, 51, 64
2, 106220, Note_off_c, 0, 79, 64
2, 106225, Note_off_c, 0, 87, 64
2, 106247, Note_on_c, 0, 89, 62
2, 106296, Note_off_c, 0, 89, 64
2, 106306, Note_on_c, 0, 87, 83
2, 106309, Note_on_c, 0, 79, 70
2, 106309, Note_on_c, 0, 63, 58
2, 106349, Note_off_c, 0, 79, 64
2, 106351, Note_off_c, 0, 87, 64
2, 106363, Note_off_c, 0, 63, 64
2, 106368, Note_on_c, 0, 89, 61
2, 106416, Note_off_c, 0, 89, 64
2, 106416, Note_on_c, 0, 67, 58
2, 106421, Note_on_c, 0, 75, 62
2, 106427, Note_on_c, 0, 85, 83
2, 106430, Note_on_c, 0, 77, 73
2, 106440, Note_off_c, 0, 75, 64
2, 106446, Note_off_c, 0, 67, 64
2, 106461, Note_off_c, 0, 77, 64
2, 106465, Note_off_c, 0, 85, 64
2, 106485, Note_on_c, 0, 87, 73
2, 106528, Note_off_c, 0, 87, 64
2, 106537, Control_c, 0, 64, 0
2, 106543, Note_on_c, 0, 84, 67
2, 106546, Note_on_c, 0, 56, 70
2, 106548, Note_on_c, 0, 75, 74
2, 106564, Control_c, 0, 64, 127
2, 106577, Note_off_c, 0, 56, 64
2, 106606, Note_on_c, 0, 85, 48
2, 106615, Note_off_c, 0, 84, 64
2, 106618, Note_off_c, 0, 75, 64
2, 106648, Note_off_c, 0, 85, 64
2, 106669, Note_on_c, 0, 63, 61
2, 106671, Note_on_c, 0, 82, 67
2, 106671, Note_on_c, 0, 73, 76
2, 106713, Note_off_c, 0, 82, 64
2, 106736, Note_on_c, 0, 84, 62
2, 106748, Note_off_c, 0, 73, 64
2, 106836, Note_on_c, 0, 80, 78
2, 106836, Note_on_c, 0, 75, 68
2, 106839, Note_off_c, 0, 63, 64
2, 106839, Note_on_c, 0, 72, 67
2, 106843, Note_on_c, 0, 68, 53
2, 106845, Note_off_c, 0, 84, 64
2, 106850, Note_off_c, 0, 75, 64
2, 106852, Note_off_c, 0, 68, 64
2, 106856, Note_off_c, 0, 72, 64
2, 106862, Note_off_c, 0, 80, 64
2, 107064, Note_on_c, 0, 39, 92
2, 107071, Note_on_c, 0, 99, 85
2, 107074, Note_on_c, 0, 91, 73
2, 107083, Control_c, 0, 64, 127
2, 107220, Note_on_c, 0, 101, 62
2, 107222, Note_off_c, 0, 99, 64
2, 107242, Note_off_c, 0, 91, 64
2, 107284, Note_on_c, 0, 51, 70
2, 107286, Note_on_c, 0, 99, 91
2, 107287, Note_on_c, 0, 91, 74
2, 107290, Note_off_c, 0, 101, 64
2, 107303, Note_off_c, 0, 39, 64
2, 107309, Note_off_c, 0, 51, 64
2, 107357, Note_on_c, 0, 101, 62
2, 107360, Note_off_c, 0, 99, 64
2, 107373, Note_off_c, 0, 91, 64
2, 107422, Note_on_c, 0, 55, 58
2, 107425, Note_on_c, 0, 89, 67
2, 107426, Note_on_c, 0, 61, 60
2, 107429, Note_on_c, 0, 97, 83
2, 107430, Note_on_c, 0, 63, 60
2, 107433, Note_off_c, 0, 101, 64
2, 107449, Note_off_c, 0, 55, 64
2, 107453, Note_off_c, 0, 61, 64
2, 107457, Note_off_c, 0, 63, 64
2, 107476, Note_off_c, 0, 89, 64
2, 107485, Note_off_c, 0, 97, 64
2, 107492, Note_on_c, 0, 99, 55
2, 107528, Note_off_c, 0, 99, 64
2, 107548, Note_on_c, 0, 96, 65
2, 107548, Note_on_c, 0, 58, 59
2, 107550, Note_on_c, 0, 61, 59
2, 107554, Note_on_c, 0, 87, 78
2, 107554, Note_on_c, 0, 67, 62
2, 107567, Note_off_c, 0, 58, 64
2, 107572, Note_off_c, 0, 61, 64
2, 107578, Note_off_c, 0, 67, 64
2, 107581, Note_off_c, 0, 87, 64
2, 107607, Note_on_c, 0, 97, 60
2, 107615, Note_off_c, 0, 96, 64
2, 107627, Note_off_c, 0, 97, 64
2, 107682, Note_on_c, 0, 63, 59
2, 107684, Note_on_c, 0, 94, 89
2, 107684, Note_on_c, 0, 67, 58
2, 107688, Note_on_c, 0, 85, 83
2, 107688, Note_on_c, 0, 73, 61
2, 107711, Note_off_c, 0, 63, 64
2, 107722, Note_off_c, 0, 67, 64
2, 107741, Note_on_c, 0, 96, 64
2, 107745, Note_off_c, 0, 73, 64
2, 107746, Note_off_c, 0, 94, 64
2, 107749, Note_off_c, 0, 85, 64
2, 107780, Note_off_c, 0, 96, 64
2, 107797, Note_on_c, 0, 67, 35
2, 107798, Note_on_c, 0, 84, 67
2, 107800, Note_on_c, 0, 92, 83
2, 107803, Note_on_c, 0, 75, 55
2, 107807, Note_on_c, 0, 73, 49
2, 107835, Note_off_c, 0, 73, 64
2, 107836, Note_off_c, 0, 67, 64
2, 107846, Note_off_c, 0, 75, 64
2, 107847, Note_off_c, 0, 92, 64
2, 107853, Note_off_c, 0, 84, 64
2, 107857, Note_on_c, 0, 94, 76
2, 107904, Note_off_c, 0, 94, 64
2, 107916, Note_on_c, 0, 73, 67
2, 107918, Note_on_c, 0, 91, 67
2, 107918, Note_on_c, 0, 79, 58
2, 107922, Note_on_c, 0, 82, 78
2, 107946, Note_off_c, 0, 79, 64
2, 107946, Note_off_c, 0, 73, 64
2, 107960, Note_on_c, 0, 92, 65
2, 107964, Note_off_c, 0, 91, 64
2, 107967, Note_off_c, 0, 82, 64
2, 107994, Note_off_c, 0, 92, 64
2, 108014, Note_on_c, 0, 89, 62
2, 108018, Note_on_c, 0, 80, 73
2, 108060, Note_off_c, 0, 80, 64
2, 108067, Note_on_c, 0, 91, 62
2, 108071, Note_off_c, 0, 89, 64
2, 108114, Note_off_c, 0, 91, 64
2, 108118, Note_on_c, 0, 87, 83
2, 108122, Note_on_c, 0, 79, 73
2, 108165, Note_off_c, 0, 79, 64
2, 108166, Note_on_c, 0, 89, 67
2, 108171, Note_off_c, 0, 87, 64
2, 108211, Note_off_c, 0, 89, 64
2, 108218, Note_on_c, 0, 85, 79
2, 108218, Note_on_c, 0, 77, 69
2, 108255, Note_off_c, 0, 77, 64
2, 108264, Note_off_c, 0, 85, 64
2, 108276, Note_on_c, 0, 87, 62
2, 108320, Note_off_c, 0, 87, 64
2, 108331, Note_on_c, 0, 75, 73
2, 108334, Note_on_c, 0, 84, 60
2, 108366, Note_off_c, 0, 75, 64
2, 108386, Note_on_c, 0, 85, 38
2, 108388, Note_off_c, 0, 84, 64
2, 108424, Note_off_c, 0, 85, 64
2, 108434, Note_on_c, 0, 82, 69
2, 108436, Note_on_c, 0, 73, 71
2, 108487, Note_off_c, 0, 73, 64
2, 108489, Note_off_c, 0, 82, 64
2, 108493, Note_on_c, 0, 84, 59
2, 108539, Note_off_c, 0, 84, 64
2, 108553, Note_on_c, 0, 72, 53
2, 108554, Note_on_c, 0, 80, 55
2, 108592, Note_off_c, 0, 80, 64
2, 108592, Note_off_c, 0, 72, 64
2, 108611, Note_on_c, 0, 82, 73
2, 108654, Note_off_c, 0, 82, 64
2, 108673, Note_on_c, 0, 70, 67
2, 108674, Note_on_c, 0, 79, 61
2, 108675, Note_on_c, 0, 61, 86
2, 108681, Control_c, 0, 64, 0
2, 108709, Control_c, 0, 64, 127
2, 108717, Note_off_c, 0, 79, 64
2, 108725, Note_off_c, 0, 70, 64
2, 108731, Note_on_c, 0, 80, 43
2, 108793, Note_on_c, 0, 68, 58
2, 108797, Note_on_c, 0, 77, 59
2, 108803, Note_off_c, 0, 80, 64
2, 108846, Note_off_c, 0, 68, 64
2, 108853, Note_on_c, 0, 79, 65
2, 108857, Note_off_c, 0, 77, 64
2, 108909, Note_off_c, 0, 79, 64
2, 108918, Note_on_c, 0, 75, 53
2, 108922, Note_on_c, 0, 67, 41
2, 108976, Note_on_c, 0, 77, 59
2, 108979, Note_off_c, 0, 67, 64
2, 108981, Note_off_c, 0, 75, 64
2, 109044, Note_on_c, 0, 73, 74
2, 109047, Note_off_c, 0, 77, 64
2, 109054, Note_on_c, 0, 65, 30
2, 109091, Note_off_c, 0, 61, 64
2, 109100, Note_off_c, 0, 65, 64
2, 109110, Note_off_c, 0, 73, 64
2, 109115, Note_on_c, 0, 75, 49
2, 109197, Note_off_c, 0, 75, 64
2, 109200, Note_on_c, 0, 63, 67
2, 109200, Note_on_c, 0, 51, 62
2, 109204, Note_on_c, 0, 72, 61
2, 109221, Control_c, 0, 64, 0
2, 109230, Control_c, 0, 64, 127
2, 109297, Note_on_c, 0, 73, 63
2, 109312, Note_off_c, 0, 72, 64
2, 109321, Note_off_c, 0, 63, 64
2, 109385, Note_on_c, 0, 44, 72
2, 109391, Note_on_c, 0, 70, 61
2, 109393, Note_on_c, 0, 61, 55
2, 109406, Note_off_c, 0, 73, 64
2, 109423, Control_c, 0, 64, 0
2, 109430, Note_off_c, 0, 51, 64
2, 109469, Control_c, 0, 64, 127
2, 109483, Note_on_c, 0, 72, 60
2, 109498, Note_off_c, 0, 70, 64
2, 109501, Note_off_c, 0, 61, 64
2, 109541, Note_on_c, 0, 70, 48
2, 109550, Note_off_c, 0, 72, 64
2, 109592, Note_on_c, 0, 72, 60
2, 109594, Note_off_c, 0, 70, 64
2, 109594, Note_on_c, 0, 52, 50
2, 109631, Note_on_c, 0, 70, 73
2, 109642, Note_off_c, 0, 72, 64
2, 109670, Note_on_c, 0, 72, 63
2, 109675, Note_off_c, 0, 70, 64
2, 109705, Note_on_c, 0, 70, 76
2, 109715, Note_off_c, 0, 72, 64
2, 109736, Note_on_c, 0, 72, 65
2, 109738, Note_off_c, 0, 70, 64
2, 109747, Control_c, 0, 64, 0
2, 109760, Note_off_c, 0, 52, 64
2, 109762, Note_on_c, 0, 53, 61
2, 109767, Note_on_c, 0, 70, 74
2, 109776, Note_off_c, 0, 72, 64
2, 109785, Control_c, 0, 64, 127
2, 109797, Note_off_c, 0, 70, 64
2, 109797, Note_on_c, 0, 72, 67
2, 109819, Note_on_c, 0, 70, 67
2, 109829, Note_off_c, 0, 72, 64
2, 109851, Note_off_c, 0, 70, 64
2, 109854, Note_on_c, 0, 72, 56
2, 109881, Note_on_c, 0, 70, 60
2, 109894, Note_off_c, 0, 72, 64
2, 109928, Note_on_c, 0, 54, 59
2, 109933, Note_on_c, 0, 69, 58
2, 109938, Note_off_c, 0, 70, 64
2, 109943, Control_c, 0, 64, 0
2, 109947, Note_off_c, 0, 53, 64
2, 110011, Note_on_c, 0, 70, 62
2, 110034, Note_off_c, 0, 69, 64
2, 110101, Note_on_c, 0, 55, 53
2, 110103, Note_on_c, 0, 72, 62
2, 110110, Note_off_c, 0, 70, 64
2, 110113, Note_off_c, 0, 54, 64
2, 110172, Note_on_c, 0, 70, 62
2, 110183, Note_off_c, 0, 72, 64
2, 110264, Note_on_c, 0, 51, 57
2, 110265, Note_on_c, 0, 73, 62
2, 110273, Control_c, 0, 64, 127
2, 110276, Note_off_c, 0, 70, 64
2, 110280, Note_off_c, 0, 55, 64
2, 110336, Note_on_c, 0, 67, 49
2, 110350, Note_off_c, 0, 73, 64
2, 110370, Note_off_c, 0, 67, 64
2, 110412, Note_off_c, 0, 44, 64
2, 110431, Note_off_c, 0, 51, 64
2, 110444, Note_on_c, 0, 44, 70
2, 110447, Note_on_c, 0, 56, 42
2, 110451, Note_on_c, 0, 68, 63
2, 110453, Note_on_c, 0, 60, 54
2, 110456, Control_c, 0, 64, 0
2, 110529, Control_c, 0, 64, 127
2, 110542, Note_on_c, 0, 63, 52
2, 110548, Note_off_c, 0, 60, 64
2, 110594, Control_c, 0, 64, 0
2, 110628, Note_off_c, 0, 56, 64
2, 110638, Note_on_c, 0, 51, 39
2, 110640, Note_on_c, 0, 58, 57
2, 110641, Control_c, 0, 64, 127
2, 110645, Note_off_c, 0, 63, 64
2, 110724, Note_on_c, 0, 63, 58
2, 110738, Note_off_c, 0, 58, 64
2, 110806, Control_c, 0, 64, 0
2, 110815, Note_on_c, 0, 60, 55
2, 110817, Note_on_c, 0, 54, 34
2, 110821, Note_off_c, 0, 63, 64
2, 110825, Note_off_c, 0, 51, 64
2, 110844, Control_c, 0, 64, 127
2, 110898, Note_on_c, 0, 63, 54
2, 110906, Note_off_c, 0, 60, 64
2, 110922, Note_off_c, 0, 54, 64
2, 110983, Note_off_c, 0, 63, 64
2, 110987, Note_on_c, 0, 61, 60
2, 110988, Note_on_c, 0, 52, 35
2, 110994, Control_c, 0, 64, 0
2, 111021, Control_c, 0, 64, 127
2, 111072, Note_on_c, 0, 64, 54
2, 111078, Note_off_c, 0, 61, 64
2, 111107, Note_off_c, 0, 68, 64
2, 111155, Note_off_c, 0, 64, 64
2, 111160, Note_on_c, 0, 67, 63
2, 111160, Note_on_c, 0, 63, 64
2, 111162, Note_off_c, 0, 52, 64
2, 111166, Note_on_c, 0, 48, 36
2, 111174, Control_c, 0, 64, 0
2, 111207, Control_c, 0, 64, 127
2, 111238, Note_off_c, 0, 63, 64
2, 111240, Note_on_c, 0, 66, 1
2, 111241, Note_on_c, 0, 68, 59
2, 111253, Note_off_c, 0, 67, 64
2, 111327, Note_on_c, 0, 61, 55
2, 111331, Note_on_c, 0, 67, 69
2, 111331, Note_on_c, 0, 49, 36
2, 111333, Note_off_c, 0, 66, 64
2, 111335, Note_off_c, 0, 68, 64
2, 111337, Note_off_c, 0, 48, 64
2, 111346, Control_c, 0, 64, 0
2, 111355, Note_off_c, 0, 44, 64
2, 111367, Control_c, 0, 64, 127
2, 111416, Note_on_c, 0, 64, 30
2, 111419, Note_on_c, 0, 68, 59
2, 111423, Note_off_c, 0, 61, 64
2, 111434, Note_off_c, 0, 67, 64
2, 111489, Note_off_c, 0, 64, 64
2, 111509, Note_on_c, 0, 61, 53
2, 111513, Note_on_c, 0, 69, 64
2, 111515, Note_on_c, 0, 42, 52
2, 111520, Control_c, 0, 64, 0
2, 111536, Control_c, 0, 64, 127
2, 111540, Note_off_c, 0, 49, 64
2, 111597, Note_on_c, 0, 63, 38
2, 111603, Note_off_c, 0, 68, 64
2, 111610, Note_off_c, 0, 61, 64
2, 111679, Note_off_c, 0, 69, 64
2, 111684, Control_c, 0, 64, 0
2, 111688, Note_on_c, 0, 68, 64
2, 111688, Note_on_c, 0, 44, 52
2, 111691, Note_on_c, 0, 61, 52
2, 111697, Note_off_c, 0, 63, 64
2, 111710, Note_off_c, 0, 42, 64
2, 111712, Control_c, 0, 64, 127
2, 111774, Note_on_c, 0, 64, 63
2, 111784, Note_off_c, 0, 61, 64
2, 111852, Note_off_c, 0, 64, 64
2, 111855, Note_off_c, 0, 68, 64
2, 111860, Note_on_c, 0, 66, 69
2, 111860, Note_on_c, 0, 54, 56
2, 111864, Note_on_c, 0, 45, 49
2, 111875, Control_c, 0, 64, 0
2, 111887, Note_off_c, 0, 44, 64
2, 111903, Control_c, 0, 64, 127
2, 111936, Note_on_c, 0, 61, 49
2, 111947, Note_off_c, 0, 54, 64
2, 112029, Note_off_c, 0, 45, 64
2, 112033, Note_on_c, 0, 55, 48
2, 112037, Note_on_c, 0, 64, 62
2, 112037, Note_on_c, 0, 46, 55
2, 112039, Note_off_c, 0, 61, 64
2, 112044, Control_c, 0, 64, 0
2, 112066, Control_c, 0, 64, 127
2, 112077, Note_off_c, 0, 66, 64
2, 112127, Note_off_c, 0, 55, 64
2, 112143, Note_on_c, 0, 61, 24
2, 112213, Note_on_c, 0, 55, 49
2, 112216, Note_on_c, 0, 38, 65
2, 112223, Note_off_c, 0, 61, 64
2, 112242, Note_off_c, 0, 46, 64
2, 112295, Note_on_c, 0, 61, 32
2, 112295, Note_on_c, 0, 39, 76
2, 112298, Note_off_c, 0, 64, 64
2, 112298, Note_on_c, 0, 63, 38
2, 112302, Note_off_c, 0, 38, 64
2, 112323, Note_off_c, 0, 55, 64
2, 112365, Note_on_c, 0, 66, 64
2, 112367, Note_off_c, 0, 63, 64
2, 112376, Note_off_c, 0, 61, 64
2, 112376, Note_on_c, 0, 55, 54
2, 112379, Note_on_c, 0, 38, 57
2, 112382, Note_off_c, 0, 39, 64
2, 112388, Control_c, 0, 64, 0
2, 112391, Note_on_c, 0, 64, 67
2, 112405, Note_off_c, 0, 66, 64
2, 112411, Control_c, 0, 64, 127
2, 112460, Note_off_c, 0, 38, 64
2, 112467, Note_on_c, 0, 39, 68
2, 112468, Note_on_c, 0, 61, 49
2, 112472, Note_on_c, 0, 63, 69
2, 112479, Note_off_c, 0, 55, 64
2, 112483, Note_off_c, 0, 64, 64
2, 112568, Note_on_c, 0, 68, 73
2, 112568, Note_on_c, 0, 60, 53
2, 112571, Note_on_c, 0, 44, 48
2, 112575, Note_off_c, 0, 63, 64
2, 112575, Note_off_c, 0, 39, 64
2, 112576, Note_on_c, 0, 32, 82
2, 112579, Control_c, 0, 64, 0
2, 112588, Note_off_c, 0, 61, 64
2, 112600, Control_c, 0, 64, 127
2, 112658, Note_off_c, 0, 60, 64
2, 112659, Note_on_c, 0, 63, 45
2, 112739, Note_on_c, 0, 58, 64
2, 112741, Note_on_c, 0, 51, 60
2, 112743, Note_on_c, 0, 39, 64
2, 112747, Note_off_c, 0, 32, 64
2, 112749, Note_off_c, 0, 44, 64
2, 112755, Note_off_c, 0, 63, 64
2, 112806, Note_off_c, 0, 68, 64
2, 112819, Note_off_c, 0, 39, 64
2, 112827, Note_on_c, 0, 63, 38
2, 112840, Note_off_c, 0, 51, 64
2, 112847, Note_off_c, 0, 58, 64
2, 112918, Note_on_c, 0, 68, 72
2, 112920, Note_on_c, 0, 54, 56
2, 112923, Note_on_c, 0, 60, 60
2, 112925, Note_on_c, 0, 42, 47
2, 112929, Note_off_c, 0, 63, 64
2, 112932, Control_c, 0, 64, 0
2, 112953, Control_c, 0, 64, 127
2, 112999, Note_off_c, 0, 54, 64
2, 113001, Note_on_c, 0, 63, 55
2, 113013, Note_off_c, 0, 60, 64
2, 113041, Note_off_c, 0, 42, 64
2, 113073, Note_off_c, 0, 63, 64
2, 113090, Control_c, 0, 64, 0
2, 113097, Note_on_c, 0, 56, 64
2, 113097, Note_on_c, 0, 52, 62
2, 113100, Note_on_c, 0, 40, 67
2, 113122, Control_c, 0, 64, 127
2, 113181, Note_on_c, 0, 64, 52
2, 113188, Note_off_c, 0, 56, 64
2, 113192, Note_off_c, 0, 52, 64
2, 113193, Note_off_c, 0, 68, 64
2, 113210, Note_off_c, 0, 40, 64
2, 113273, Note_on_c, 0, 67, 68
2, 113273, Note_on_c, 0, 36, 55
2, 113276, Note_on_c, 0, 56, 67
2, 113279, Note_off_c, 0, 64, 64
2, 113279, Note_on_c, 0, 48, 49
2, 113283, Control_c, 0, 64, 0
2, 113310, Control_c, 0, 64, 127
2, 113358, Note_on_c, 0, 68, 73
2, 113362, Note_off_c, 0, 67, 64
2, 113367, Note_on_c, 0, 66, 63
2, 113370, Note_off_c, 0, 48, 64
2, 113382, Note_off_c, 0, 56, 64
2, 113426, Note_off_c, 0, 66, 64
2, 113430, Note_off_c, 0, 36, 64
2, 113439, Note_off_c, 0, 68, 64
2, 113450, Note_on_c, 0, 56, 61
2, 113451, Note_on_c, 0, 67, 62
2, 113456, Note_on_c, 0, 49, 60
2, 113456, Note_on_c, 0, 37, 51
2, 113468, Control_c, 0, 64, 0
2, 113495, Control_c, 0, 64, 127
2, 113532, Note_on_c, 0, 68, 67
2, 113536, Note_off_c, 0, 67, 64
2, 113542, Note_on_c, 0, 64, 49
2, 113546, Note_off_c, 0, 56, 64
2, 113547, Note_off_c, 0, 37, 64
2, 113588, Note_off_c, 0, 49, 64
2, 113594, Note_off_c, 0, 68, 64
2, 113602, Note_off_c, 0, 64, 64
2, 113643, Note_on_c, 0, 71, 54
2, 113646, Note_on_c, 0, 61, 60
2, 113647, Note_on_c, 0, 42, 49
2, 113648, Note_on_c, 0, 30, 58
2, 113664, Control_c, 0, 64, 0
2, 113690, Control_c, 0, 64, 127
2, 113732, Note_on_c, 0, 69, 58
2, 113732, Note_on_c, 0, 63, 54
2, 113738, Note_off_c, 0, 71, 64
2, 113747, Note_off_c, 0, 61, 64
2, 113779, Note_off_c, 0, 69, 64
2, 113789, Note_off_c, 0, 63, 64
2, 113818, Note_on_c, 0, 44, 49
2, 113820, Note_on_c, 0, 69, 60
2, 113823, Note_on_c, 0, 61, 66
2, 113824, Note_on_c, 0, 32, 58
2, 113828, Control_c, 0, 64, 0
2, 113832, Note_off_c, 0, 42, 64
2, 113833, Note_off_c, 0, 30, 64
2, 113851, Control_c, 0, 64, 127
2, 113904, Note_off_c, 0, 69, 64
2, 113906, Note_on_c, 0, 68, 41
2, 113910, Note_on_c, 0, 64, 57
2, 113923, Note_off_c, 0, 61, 64
2, 113963, Note_off_c, 0, 68, 64
2, 113966, Note_off_c, 0, 64, 64
2, 113994, Note_on_c, 0, 68, 53
2, 113999, Note_on_c, 0, 45, 47
2, 114002, Note_on_c, 0, 56, 35
2, 114008, Note_on_c, 0, 33, 58
2, 114011, Control_c, 0, 64, 0
2, 114014, Note_off_c, 0, 44, 64
2, 114020, Note_off_c, 0, 32, 64
2, 114028, Control_c, 0, 64, 127
2, 114060, Note_off_c, 0, 56, 64
2, 114076, Note_on_c, 0, 66, 58
2, 114076, Note_on_c, 0, 61, 49
2, 114082, Note_off_c, 0, 68, 64
2, 114134, Note_off_c, 0, 66, 64
2, 114140, Note_off_c, 0, 61, 64
2, 114160, Note_on_c, 0, 46, 49
2, 114163, Note_on_c, 0, 55, 52
2, 114164, Note_on_c, 0, 64, 58
2, 114168, Note_on_c, 0, 34, 58
2, 114173, Control_c, 0, 64, 0
2, 114179, Note_off_c, 0, 45, 64
2, 114188, Note_off_c, 0, 33, 64
2, 114196, Control_c, 0, 64, 127
2, 114236, Note_on_c, 0, 63, 62
2, 114241, Note_on_c, 0, 61, 49
2, 114249, Note_off_c, 0, 55, 64
2, 114251, Note_off_c, 0, 64, 64
2, 114296, Note_off_c, 0, 63, 64
2, 114303, Note_off_c, 0, 61, 64
2, 114328, Note_on_c, 0, 27, 49
2, 114329, Note_on_c, 0, 39, 56
2, 114333, Note_on_c, 0, 63, 73
2, 114336, Note_on_c, 0, 71, 59
2, 114340, Control_c, 0, 64, 0
2, 114343, Note_off_c, 0, 46, 64
2, 114351, Note_off_c, 0, 34, 64
2, 114355, Control_c, 0, 64, 127
2, 114408, Note_on_c, 0, 70, 61
2, 114408, Note_on_c, 0, 68, 53
2, 114419, Note_off_c, 0, 63, 64
2, 114430, Note_off_c, 0, 71, 64
2, 114447, Note_off_c, 0, 27, 64
2, 114448, Note_off_c, 0, 39, 64
2, 114465, Note_off_c, 0, 70, 64
2, 114467, Note_off_c, 0, 68, 64
2, 114498, Note_on_c, 0, 67, 53
2, 114502, Note_on_c, 0, 76, 57
2, 114504, Note_on_c, 0, 51, 61
2, 114504, Note_on_c, 0, 39, 49
2, 114510, Control_c, 0, 64, 0
2, 114526, Control_c, 0, 64, 127
2, 114599, Note_on_c, 0, 75, 51
2, 114606, Note_on_c, 0, 70, 44
2, 114612, Note_off_c, 0, 76, 64
2, 114626, Note_off_c, 0, 67, 64
2, 114662, Note_off_c, 0, 75, 64
2, 114668, Note_off_c, 0, 70, 64
2, 114677, Note_off_c, 0, 39, 64
2, 114720, Note_off_c, 0, 51, 64
2, 114725, Note_on_c, 0, 80, 69
2, 114728, Note_on_c, 0, 75, 58
2, 114728, Note_on_c, 0, 32, 58
2, 114729, Note_on_c, 0, 73, 69
2, 114729, Note_on_c, 0, 44, 55
2, 114737, Control_c, 0, 64, 0
2, 114758, Control_c, 0, 64, 127
2, 114800, Note_off_c, 0, 80, 64
2, 114801, Note_off_c, 0, 73, 64
2, 114825, Note_on_c, 0, 72, 67
2, 114848, Note_off_c, 0, 75, 64
2, 114878, Note_off_c, 0, 32, 64
2, 114881, Note_off_c, 0, 72, 64
2, 114888, Note_off_c, 0, 44, 64
2, 114914, Note_on_c, 0, 51, 63
2, 114916, Note_on_c, 0, 80, 73
2, 114921, Note_on_c, 0, 72, 73
2, 114921, Note_on_c, 0, 39, 73
2, 114925, Note_on_c, 0, 75, 57
2, 114980, Note_off_c, 0, 72, 64
2, 114981, Note_off_c, 0, 80, 64
2, 114988, Note_off_c, 0, 75, 64
2, 115011, Note_on_c, 0, 70, 73
2, 115051, Note_off_c, 0, 39, 64
2, 115068, Note_off_c, 0, 51, 64
2, 115084, Note_on_c, 0, 72, 65
2, 115088, Note_on_c, 0, 80, 71
2, 115088, Note_on_c, 0, 75, 67
2, 115093, Note_off_c, 0, 70, 64
2, 115093, Note_on_c, 0, 51, 70
2, 115093, Note_on_c, 0, 44, 68
2, 115101, Control_c, 0, 64, 0
2, 115127, Control_c, 0, 64, 127
2, 115169, Note_off_c, 0, 75, 64
2, 115175, Note_on_c, 0, 68, 58
2, 115181, Note_off_c, 0, 72, 64
2, 115221, Note_off_c, 0, 80, 64
2, 115255, Note_on_c, 0, 80, 70
2, 115258, Note_on_c, 0, 70, 67
2, 115260, Note_on_c, 0, 75, 67
2, 115268, Note_off_c, 0, 68, 64
2, 115317, Note_off_c, 0, 75, 64
2, 115346, Note_on_c, 0, 68, 61
2, 115351, Note_off_c, 0, 70, 64
2, 115412, Note_off_c, 0, 51, 64
2, 115414, Note_off_c, 0, 68, 64
2, 115426, Note_off_c, 0, 80, 64
2, 115427, Note_on_c, 0, 70, 60
2, 115432, Note_on_c, 0, 79, 67
2, 115432, Note_on_c, 0, 75, 67
2, 115434, Note_on_c, 0, 58, 79
2, 115437, Control_c, 0, 64, 0
2, 115441, Note_on_c, 0, 51, 62
2, 115455, Control_c, 0, 64, 127
2, 115487, Note_off_c, 0, 75, 64
2, 115505, Note_off_c, 0, 70, 64
2, 115509, Note_on_c, 0, 65, 55
2, 115562, Note_off_c, 0, 58, 64
2, 115589, Note_off_c, 0, 65, 64
2, 115597, Note_on_c, 0, 75, 69
2, 115600, Note_on_c, 0, 70, 64
2, 115601, Note_off_c, 0, 79, 64
2, 115602, Note_on_c, 0, 67, 64
2, 115606, Note_on_c, 0, 58, 78
2, 115616, Control_c, 0, 64, 0
2, 115637, Control_c, 0, 64, 127
2, 115677, Note_off_c, 0, 70, 64
2, 115682, Note_off_c, 0, 67, 64
2, 115690, Note_on_c, 0, 63, 73
2, 115747, Note_off_c, 0, 75, 64
2, 115762, Note_off_c, 0, 63, 64
2, 115779, Control_c, 0, 64, 0
2, 115783, Note_on_c, 0, 78, 73
2, 115787, Note_on_c, 0, 70, 57
2, 115788, Note_on_c, 0, 75, 57
2, 115806, Control_c, 0, 64, 127
2, 115887, Note_off_c, 0, 75, 64
2, 115888, Note_on_c, 0, 69, 36
2, 115897, Note_off_c, 0, 70, 64
2, 115935, Note_off_c, 0, 58, 64
2, 115943, Note_off_c, 0, 78, 64
2, 115972, Note_on_c, 0, 78, 80
2, 115974, Note_on_c, 0, 75, 56
2, 115974, Note_on_c, 0, 72, 48
2, 115976, Note_on_c, 0, 57, 68
2, 115979, Note_off_c, 0, 51, 64
2, 115982, Note_off_c, 0, 69, 64
2, 116013, Note_off_c, 0, 44, 64
2, 116047, Note_off_c, 0, 75, 64
2, 116056, Note_off_c, 0, 72, 64
2, 116060, Note_on_c, 0, 66, 61
2, 116068, Note_on_c, 0, 58, 77
2, 116091, Note_off_c, 0, 57, 64
2, 116133, Note_off_c, 0, 78, 64
2, 116141, Note_on_c, 0, 70, 54
2, 116141, Note_on_c, 0, 57, 67
2, 116143, Note_on_c, 0, 75, 40
2, 116144, Note_on_c, 0, 78, 80
2, 116146, Note_off_c, 0, 66, 64
2, 116151, Note_off_c, 0, 58, 64
2, 116208, Note_off_c, 0, 75, 64
2, 116213, Note_off_c, 0, 70, 64
2, 116217, Note_on_c, 0, 58, 67
2, 116227, Note_off_c, 0, 57, 64
2, 116231, Note_on_c, 0, 66, 50
2, 116283, Note_off_c, 0, 78, 64
2, 116289, Note_off_c, 0, 66, 64
2, 116294, Note_on_c, 0, 63, 73
2, 116300, Note_on_c, 0, 78, 80
2, 116301, Note_on_c, 0, 75, 62
2, 116304, Note_on_c, 0, 70, 49
2, 116307, Note_off_c, 0, 58, 64
2, 116308, Control_c, 0, 64, 0
2, 116346, Control_c, 0, 64, 127
2, 116371, Note_off_c, 0, 70, 64
2, 116375, Note_on_c, 0, 66, 56
2, 116424, Note_off_c, 0, 75, 64
2, 116463, Note_on_c, 0, 74, 64
2, 116463, Note_on_c, 0, 70, 67
2, 116477, Note_off_c, 0, 66, 64
2, 116529, Note_off_c, 0, 70, 64
2, 116533, Note_on_c, 0, 66, 55
2, 116594, Note_off_c, 0, 74, 64
2, 116622, Note_on_c, 0, 70, 65
2, 116624, Note_on_c, 0, 73, 67
2, 116635, Note_off_c, 0, 66, 64
2, 116701, Note_off_c, 0, 70, 64
2, 116703, Note_on_c, 0, 66, 67
2, 116720, Note_off_c, 0, 78, 64
2, 116759, Note_off_c, 0, 73, 64
2, 116778, Note_off_c, 0, 66, 64
2, 116793, Note_off_c, 0, 63, 64
2, 116800, Note_on_c, 0, 32, 75
2, 116803, Note_on_c, 0, 78, 77
2, 116804, Note_on_c, 0, 69, 79
2, 116807, Note_on_c, 0, 44, 67
2, 116808, Note_on_c, 0, 72, 73
2, 116813, Control_c, 0, 64, 0
2, 116828, Control_c, 0, 64, 127
2, 116893, Note_on_c, 0, 68, 81
2, 116897, Note_off_c, 0, 69, 64
2, 116907, Note_off_c, 0, 72, 64
2, 116943, Note_off_c, 0, 78, 64
2, 116947, Note_off_c, 0, 68, 64
2, 116975, Note_on_c, 0, 51, 67
2, 116976, Note_on_c, 0, 72, 58
2, 116979, Note_on_c, 0, 78, 73
2, 116979, Note_on_c, 0, 68, 78
2, 116989, Note_on_c, 0, 39, 53
2, 116990, Note_off_c, 0, 32, 64
2, 116996, Note_off_c, 0, 44, 64
2, 117051, Note_off_c, 0, 68, 64
2, 117054, Note_on_c, 0, 67, 70
2, 117096, Note_off_c, 0, 72, 64
2, 117097, Note_off_c, 0, 78, 64
2, 117133, Note_off_c, 0, 67, 64
2, 117137, Note_on_c, 0, 78, 73
2, 117137, Note_on_c, 0, 68, 76
2, 117140, Note_on_c, 0, 56, 73
2, 117143, Note_on_c, 0, 72, 68
2, 117145, Note_on_c, 0, 44, 63
2, 117153, Control_c, 0, 64, 0
2, 117155, Note_off_c, 0, 51, 64
2, 117167, Note_off_c, 0, 39, 64
2, 117169, Control_c, 0, 64, 127
2, 117209, Note_off_c, 0, 68, 64
2, 117225, Note_off_c, 0, 72, 64
2, 117228, Note_on_c, 0, 63, 66
2, 117256, Note_off_c, 0, 78, 64
2, 117290, Note_off_c, 0, 63, 64
2, 117297, Note_on_c, 0, 78, 60
2, 117301, Note_on_c, 0, 68, 73
2, 117305, Note_on_c, 0, 72, 64
2, 117376, Note_off_c, 0, 72, 64
2, 117377, Note_off_c, 0, 56, 64
2, 117386, Note_off_c, 0, 68, 64
2, 117388, Note_on_c, 0, 67, 53
2, 117416, Note_off_c, 0, 78, 64
2, 117474, Note_on_c, 0, 68, 54
2, 117477, Note_on_c, 0, 77, 69
2, 117479, Note_on_c, 0, 56, 86
2, 117482, Note_on_c, 0, 72, 62
2, 117484, Note_off_c, 0, 67, 64
2, 117564, Note_off_c, 0, 68, 64
2, 117565, Note_on_c, 0, 64, 39
2, 117570, Note_off_c, 0, 72, 64
2, 117596, Note_off_c, 0, 77, 64
2, 117641, Note_off_c, 0, 56, 64
2, 117654, Note_off_c, 0, 64, 64
2, 117664, Note_on_c, 0, 72, 73
2, 117666, Note_on_c, 0, 56, 57
2, 117668, Note_on_c, 0, 65, 73
2, 117682, Control_c, 0, 64, 0
2, 117709, Control_c, 0, 64, 127
2, 117756, Note_on_c, 0, 60, 63
2, 117762, Note_off_c, 0, 65, 64
2, 117775, Note_off_c, 0, 44, 64
2, 117783, Note_off_c, 0, 72, 64
2, 117830, Note_off_c, 0, 56, 64
2, 117843, Note_off_c, 0, 60, 64
2, 117871, Note_on_c, 0, 71, 42
2, 117872, Note_on_c, 0, 56, 64
2, 117872, Note_on_c, 0, 44, 36
2, 117873, Note_on_c, 0, 76, 36
2, 117873, Note_on_c, 0, 64, 49
2, 117943, Note_off_c, 0, 64, 64
2, 117959, Note_off_c, 0, 71, 64
2, 117975, Note_on_c, 0, 63, 51
2, 118057, Note_off_c, 0, 76, 64
2, 118061, Note_off_c, 0, 63, 64
2, 118062, Note_off_c, 0, 56, 64
2, 118072, Note_on_c, 0, 55, 55
2, 118077, Note_on_c, 0, 66, 51
2, 118080, Note_on_c, 0, 76, 30
2, 118083, Note_on_c, 0, 71, 50
2, 118153, Note_on_c, 0, 56, 51
2, 118158, Note_on_c, 0, 59, 46
2, 118164, Note_off_c, 0, 55, 64
2, 118164, Note_off_c, 0, 66, 64
2, 118171, Note_off_c, 0, 71, 64
2, 118200, Note_off_c, 0, 76, 64
2, 118240, Note_on_c, 0, 64, 44
2, 118244, Note_on_c, 0, 76, 65
2, 118244, Note_on_c, 0, 71, 50
2, 118248, Note_on_c, 0, 55, 52
2, 118260, Note_off_c, 0, 56, 64
2, 118281, Note_off_c, 0, 59, 64
2, 118335, Note_on_c, 0, 59, 56
2, 118335, Note_on_c, 0, 56, 59
2, 118344, Note_off_c, 0, 71, 64
2, 118346, Note_off_c, 0, 55, 64
2, 118348, Note_off_c, 0, 64, 64
2, 118382, Note_off_c, 0, 44, 64
2, 118397, Note_off_c, 0, 76, 64
2, 118403, Note_off_c, 0, 56, 64
2, 118455, Note_on_c, 0, 71, 51
2, 118456, Note_on_c, 0, 76, 57
2, 118457, Note_on_c, 0, 68, 79
2, 118483, Control_c, 0, 64, 0
2, 118486, Note_off_c, 0, 59, 64
2, 118499, Control_c, 0, 64, 127
2, 118565, Note_off_c, 0, 71, 64
2, 118638, Note_on_c, 0, 64, 67
2, 118766, Note_on_c, 0, 71, 55
2, 118776, Note_off_c, 0, 64, 64
2, 118877, Note_off_c, 0, 71, 64
2, 118893, Note_on_c, 0, 63, 55
2, 119039, Note_on_c, 0, 71, 70
2, 119044, Control_c, 0, 64, 0
2, 119053, Control_c, 0, 64, 127
2, 119070, Note_off_c, 0, 63, 64
2, 119160, Note_off_c, 0, 68, 64
2, 119196, Note_on_c, 0, 62, 43
2, 119265, Note_off_c, 0, 62, 64
2, 119381, Note_off_c, 0, 76, 64
2, 119408, Note_on_c, 0, 33, 52
2, 119409, Note_on_c, 0, 61, 49
2, 119425, Control_c, 0, 64, 0
2, 119475, Control_c, 0, 64, 127
2, 119534, Note_off_c, 0, 33, 64
2, 119578, Note_off_c, 0, 61, 64
2, 119584, Note_off_c, 0, 71, 64
2, 119589, Note_on_c, 0, 69, 52
2, 119591, Note_on_c, 0, 67, 45
2, 119594, Note_on_c, 0, 52, 48
2, 119680, Note_off_c, 0, 67, 64
2, 119700, Note_on_c, 0, 64, 47
2, 119702, Note_on_c, 0, 76, 54
2, 119702, Note_on_c, 0, 57, 49
2, 119707, Note_off_c, 0, 69, 64
2, 119709, Note_off_c, 0, 52, 64
2, 119795, Note_on_c, 0, 59, 39
2, 119796, Note_on_c, 0, 69, 51
2, 119798, Note_on_c, 0, 67, 51
2, 119808, Note_off_c, 0, 76, 64
2, 119815, Note_off_c, 0, 57, 64
2, 119816, Note_off_c, 0, 64, 64
2, 119876, Note_on_c, 0, 61, 51
2, 119878, Control_c, 0, 64, 0
2, 119885, Note_on_c, 0, 76, 58
2, 119885, Note_on_c, 0, 64, 53
2, 119892, Control_c, 0, 64, 127
2, 119898, Note_off_c, 0, 69, 64
2, 119902, Note_off_c, 0, 59, 64
2, 119905, Note_off_c, 0, 67, 64
2, 119971, Note_on_c, 0, 67, 49
2, 119973, Note_on_c, 0, 69, 49
2, 119983, Note_off_c, 0, 64, 64
2, 119991, Note_off_c, 0, 76, 64
2, 120050, Control_c, 0, 64, 0
2, 120059, Note_on_c, 0, 76, 57
2, 120059, Note_on_c, 0, 64, 49
2, 120062, Note_on_c, 0, 38, 52
2, 120070, Control_c, 0, 64, 127
2, 120077, Note_off_c, 0, 67, 64
2, 120080, Note_off_c, 0, 69, 64
2, 120106, Note_off_c, 0, 61, 64
2, 120140, Note_off_c, 0, 76, 64
2, 120151, Note_on_c, 0, 69, 41
2, 120155, Note_on_c, 0, 66, 30
2, 120158, Note_on_c, 0, 57, 24
2, 120165, Note_off_c, 0, 64, 64
2, 120181, Note_off_c, 0, 38, 64
2, 120232, Note_on_c, 0, 54, 49
2, 120233, Note_off_c, 0, 57, 64
2, 120233, Note_on_c, 0, 74, 56
2, 120238, Note_on_c, 0, 62, 52
2, 120238, Control_c, 0, 64, 0
2, 120244, Note_off_c, 0, 66, 64
2, 120244, Note_off_c, 0, 69, 64
2, 120256, Control_c, 0, 64, 127
2, 120313, Note_off_c, 0, 54, 64
2, 120314, Note_on_c, 0, 57, 36
2, 120318, Note_on_c, 0, 69, 49
2, 120319, Note_on_c, 0, 66, 52
2, 120325, Note_off_c, 0, 62, 64
2, 120331, Note_off_c, 0, 74, 64
2, 120390, Control_c, 0, 64, 0
2, 120394, Note_on_c, 0, 73, 64
2, 120394, Note_on_c, 0, 61, 62
2, 120400, Note_off_c, 0, 66, 64
2, 120400, Note_off_c, 0, 69, 64
2, 120400, Note_on_c, 0, 47, 49
2, 120418, Control_c, 0, 64, 127
2, 120434, Note_off_c, 0, 57, 64
2, 120465, Note_on_c, 0, 57, 56
2, 120467, Note_off_c, 0, 47, 64
2, 120476, Note_on_c, 0, 69, 43
2, 120477, Note_on_c, 0, 66, 34
2, 120487, Note_off_c, 0, 61, 64
2, 120487, Note_off_c, 0, 73, 64
2, 120538, Note_off_c, 0, 69, 64
2, 120559, Note_off_c, 0, 66, 64
2, 120564, Note_on_c, 0, 73, 55
2, 120566, Note_off_c, 0, 57, 64
2, 120568, Control_c, 0, 64, 0
2, 120572, Note_on_c, 0, 61, 62
2, 120576, Note_on_c, 0, 40, 49
2, 120592, Control_c, 0, 64, 127
2, 120648, Note_off_c, 0, 40, 64
2, 120659, Note_off_c, 0, 73, 64
2, 120662, Note_on_c, 0, 68, 44
2, 120663, Note_on_c, 0, 64, 47
2, 120668, Note_off_c, 0, 61, 64
2, 120668, Note_on_c, 0, 52, 49
2, 120739, Note_on_c, 0, 71, 54
2, 120741, Note_on_c, 0, 56, 62
2, 120742, Note_off_c, 0, 64, 64
2, 120742, Note_on_c, 0, 59, 58
2, 120743, Note_off_c, 0, 52, 64
2, 120746, Note_on_c, 0, 50, 44
2, 120751, Control_c, 0, 64, 0
2, 120760, Control_c, 0, 64, 127
2, 120811, Note_off_c, 0, 50, 64
2, 120815, Note_off_c, 0, 56, 64
2, 120815, Note_on_c, 0, 64, 52
2, 120820, Note_on_c, 0, 52, 43
2, 120823, Note_off_c, 0, 59, 64
2, 120832, Note_off_c, 0, 71, 64
2, 120894, Note_on_c, 0, 69, 58
2, 120898, Note_on_c, 0, 57, 58
2, 120898, Note_on_c, 0, 49, 52
2, 120901, Note_off_c, 0, 52, 64
2, 120901, Note_off_c, 0, 64, 64
2, 120906, Control_c, 0, 64, 0
2, 120923, Note_off_c, 0, 68, 64
2, 120940, Control_c, 0, 64, 127
2, 120975, Note_off_c, 0, 57, 64
2, 120976, Note_on_c, 0, 52, 49
2, 120980, Note_on_c, 0, 64, 49
2, 120983, Note_off_c, 0, 49, 64
2, 121015, Note_off_c, 0, 69, 64
2, 121064, Note_on_c, 0, 73, 56
2, 121067, Note_on_c, 0, 61, 54
2, 121067, Control_c, 0, 64, 0
2, 121072, Note_on_c, 0, 45, 54
2, 121076, Note_off_c, 0, 52, 64
2, 121080, Note_off_c, 0, 64, 64
2, 121105, Control_c, 0, 64, 127
2, 121146, Note_on_c, 0, 64, 51
2, 121151, Note_on_c, 0, 69, 36
2, 121151, Note_on_c, 0, 52, 44
2, 121162, Note_off_c, 0, 61, 64
2, 121216, Note_off_c, 0, 64, 64
2, 121219, Note_off_c, 0, 69, 64
2, 121233, Note_on_c, 0, 61, 36
2, 121239, Note_off_c, 0, 52, 64
2, 121239, Note_on_c, 0, 57, 34
2, 121301, Note_off_c, 0, 61, 64
2, 121313, Note_on_c, 0, 54, 43
2, 121319, Note_on_c, 0, 62, 49
2, 121320, Note_on_c, 0, 69, 49
2, 121381, Note_off_c, 0, 54, 64
2, 121398, Note_off_c, 0, 62, 64
2, 121420, Note_on_c, 0, 52, 49
2, 121424, Note_on_c, 0, 61, 54
2, 121428, Control_c, 0, 64, 0
2, 121449, Control_c, 0, 64, 127
2, 121455, Note_off_c, 0, 69, 64
2, 121487, Note_off_c, 0, 45, 64
2, 121520, Note_on_c, 0, 69, 68
2, 121524, Note_on_c, 0, 64, 25
2, 121526, Note_off_c, 0, 61, 64
2, 121539, Note_off_c, 0, 52, 64
2, 121543, Note_off_c, 0, 57, 64
2, 121572, Note_off_c, 0, 73, 64
2, 121573, Note_on_c, 0, 61, 64
2, 121591, Note_off_c, 0, 64, 64
2, 121592, Note_off_c, 0, 69, 64
2, 121640, Note_on_c, 0, 33, 73
2, 121645, Note_on_c, 0, 76, 60
2, 121692, Note_off_c, 0, 61, 64
2, 121756, Note_on_c, 0, 67, 41
2, 121758, Note_on_c, 0, 69, 49
2, 121760, Note_off_c, 0, 33, 64
2, 121769, Note_on_c, 0, 45, 51
2, 121846, Note_off_c, 0, 76, 64
2, 121851, Note_on_c, 0, 52, 49
2, 121853, Note_off_c, 0, 69, 64
2, 121864, Note_off_c, 0, 67, 64
2, 121865, Note_off_c, 0, 45, 64
2, 121866, Note_on_c, 0, 64, 52
2, 121870, Note_on_c, 0, 76, 62
2, 121948, Note_on_c, 0, 69, 56
2, 121951, Note_on_c, 0, 67, 54
2, 121952, Note_off_c, 0, 52, 64
2, 121954, Note_on_c, 0, 59, 52
2, 121958, Note_off_c, 0, 76, 64
2, 121968, Note_off_c, 0, 64, 64
2, 122024, Note_on_c, 0, 61, 57
2, 122046, Note_on_c, 0, 76, 57
2, 122048, Note_on_c, 0, 64, 49
2, 122050, Note_off_c, 0, 67, 64
2, 122061, Note_off_c, 0, 69, 64
2, 122066, Note_off_c, 0, 59, 64
2, 122128, Note_on_c, 0, 69, 51
2, 122133, Note_on_c, 0, 67, 45
2, 122143, Note_off_c, 0, 61, 64
2, 122157, Note_off_c, 0, 64, 64
2, 122163, Note_off_c, 0, 76, 64
2, 122207, Control_c, 0, 64, 0
2, 122215, Note_on_c, 0, 76, 60
2, 122217, Note_on_c, 0, 64, 54
2, 122218, Note_off_c, 0, 67, 64
2, 122218, Note_on_c, 0, 38, 54
2, 122229, Note_off_c, 0, 69, 64
2, 122235, Control_c, 0, 64, 127
2, 122301, Note_on_c, 0, 69, 52
2, 122301, Note_on_c, 0, 66, 49
2, 122306, Note_on_c, 0, 57, 53
2, 122317, Note_off_c, 0, 64, 64
2, 122318, Note_off_c, 0, 76, 64
2, 122320, Note_off_c, 0, 38, 64
2, 122373, Note_on_c, 0, 74, 58
2, 122378, Note_off_c, 0, 57, 64
2, 122378, Note_on_c, 0, 54, 52
2, 122380, Note_on_c, 0, 62, 60
2, 122386, Note_off_c, 0, 69, 64
2, 122387, Note_off_c, 0, 66, 64
2, 122450, Note_off_c, 0, 54, 64
2, 122450, Note_on_c, 0, 57, 52
2, 122451, Note_on_c, 0, 69, 49
2, 122455, Note_on_c, 0, 66, 52
2, 122460, Note_off_c, 0, 62, 64
2, 122466, Note_off_c, 0, 74, 64
2, 122520, Note_off_c, 0, 57, 64
2, 122523, Note_off_c, 0, 66, 64
2, 122523, Note_off_c, 0, 69, 64
2, 122527, Note_on_c, 0, 61, 60
2, 122527, Note_on_c, 0, 42, 58
2, 122531, Note_on_c, 0, 73, 66
2, 122536, Control_c, 0, 64, 0
2, 122563, Control_c, 0, 64, 127
2, 122597, Note_on_c, 0, 49, 47
2, 122603, Note_off_c, 0, 42, 64
2, 122604, Note_on_c, 0, 69, 43
2, 122604, Note_on_c, 0, 66, 24
2, 122623, Note_off_c, 0, 61, 64
2, 122627, Note_off_c, 0, 73, 64
2, 122664, Note_off_c, 0, 69, 64
2, 122668, Note_off_c, 0, 66, 64
2, 122675, Note_on_c, 0, 73, 61
2, 122675, Note_on_c, 0, 41, 52
2, 122678, Note_off_c, 0, 49, 64
2, 122678, Control_c, 0, 64, 0
2, 122683, Note_on_c, 0, 61, 62
2, 122701, Control_c, 0, 64, 127
2, 122751, Note_on_c, 0, 68, 41
2, 122761, Note_off_c, 0, 41, 64
2, 122761, Note_on_c, 0, 49, 52
2, 122779, Note_off_c, 0, 73, 64
2, 122790, Note_off_c, 0, 61, 64
2, 122823, Note_on_c, 0, 71, 52
2, 122825, Note_on_c, 0, 59, 54
2, 122828, Note_off_c, 0, 68, 64
2, 122830, Note_on_c, 0, 56, 41
2, 122833, Note_off_c, 0, 49, 64
2, 122896, Note_on_c, 0, 68, 48
2, 122900, Note_on_c, 0, 61, 49
2, 122904, Note_off_c, 0, 56, 64
2, 122907, Note_off_c, 0, 71, 64
2, 122907, Note_on_c, 0, 49, 41
2, 122923, Note_off_c, 0, 59, 64
2, 122962, Note_off_c, 0, 49, 64
2, 122976, Note_on_c, 0, 69, 55
2, 122978, Note_on_c, 0, 42, 57
2, 122980, Note_off_c, 0, 68, 64
2, 122982, Note_on_c, 0, 57, 58
2, 122986, Note_off_c, 0, 61, 64
2, 122987, Control_c, 0, 64, 0
2, 123009, Control_c, 0, 64, 127
2, 123045, Note_off_c, 0, 57, 64
2, 123048, Note_off_c, 0, 69, 64
2, 123048, Note_on_c, 0, 61, 26
2, 123051, Note_on_c, 0, 66, 48
2, 123051, Note_on_c, 0, 49, 51
2, 123062, Note_off_c, 0, 42, 64
2, 123097, Note_on_c, 0, 56, 64
2, 123126, Note_off_c, 0, 49, 64
2, 123131, Note_off_c, 0, 61, 64
2, 123132, Note_off_c, 0, 66, 64
2, 123141, Note_on_c, 0, 73, 64
2, 123153, Note_on_c, 0, 37, 58
2, 123168, Control_c, 0, 64, 0
2, 123207, Control_c, 0, 64, 127
2, 123216, Note_off_c, 0, 56, 64
2, 123245, Note_on_c, 0, 68, 49
2, 123247, Note_on_c, 0, 65, 52
2, 123250, Note_on_c, 0, 44, 57
2, 123254, Note_off_c, 0, 37, 64
2, 123326, Note_off_c, 0, 68, 64
2, 123335, Note_on_c, 0, 61, 64
2, 123336, Note_on_c, 0, 56, 47
2, 123340, Note_off_c, 0, 44, 64
2, 123340, Note_off_c, 0, 65, 64
2, 123421, Note_on_c, 0, 49, 54
2, 123426, Note_on_c, 0, 68, 44
2, 123430, Note_on_c, 0, 65, 47
2, 123437, Note_off_c, 0, 56, 64
2, 123446, Note_off_c, 0, 61, 64
2, 123473, Note_off_c, 0, 73, 64
2, 123480, Note_on_c, 0, 49, 18
2, 123522, Note_off_c, 0, 49, 64
2, 123526, Note_off_c, 0, 49, 64
2, 123531, Note_on_c, 0, 61, 62
2, 123534, Note_off_c, 0, 65, 64
2, 123537, Note_off_c, 0, 68, 64
2, 123627, Note_on_c, 0, 68, 47
2, 123632, Note_on_c, 0, 65, 49
2, 123706, Note_off_c, 0, 65, 64
2, 123738, Note_off_c, 0, 68, 64
2, 123738, Note_on_c, 0, 73, 55
2, 123740, Note_on_c, 0, 61, 58
2, 123741, Note_off_c, 0, 61, 64
2, 123741, Control_c, 0, 64, 0
2, 123748, Note_on_c, 0, 40, 49
2, 123772, Control_c, 0, 64, 127
2, 123841, Note_on_c, 0, 64, 52
2, 123844, Note_off_c, 0, 73, 64
2, 123845, Note_on_c, 0, 52, 30
2, 123849, Note_off_c, 0, 61, 64
2, 123849, Note_on_c, 0, 68, 35
2, 123867, Note_off_c, 0, 40, 64
2, 123921, Control_c, 0, 64, 0
2, 123925, Note_on_c, 0, 50, 47
2, 123930, Note_off_c, 0, 52, 64
2, 123930, Note_on_c, 0, 71, 54
2, 123930, Note_on_c, 0, 59, 45
2, 123934, Note_on_c, 0, 56, 60
2, 123940, Note_off_c, 0, 64, 64
2, 123945, Control_c, 0, 64, 127
2, 123952, Note_off_c, 0, 68, 64
2, 123983, Note_off_c, 0, 56, 64
2, 123996, Note_off_c, 0, 50, 64
2, 124001, Note_on_c, 0, 68, 1
2, 124005, Note_off_c, 0, 59, 64
2, 124007, Note_on_c, 0, 64, 49
2, 124009, Note_on_c, 0, 52, 45
2, 124024, Note_off_c, 0, 71, 64
2, 124073, Note_off_c, 0, 52, 64
2, 124077, Note_on_c, 0, 57, 58
2, 124079, Note_on_c, 0, 49, 49
2, 124081, Note_on_c, 0, 69, 55
2, 124083, Note_off_c, 0, 64, 64
2, 124087, Control_c, 0, 64, 0
2, 124120, Control_c, 0, 64, 127
2, 124145, Note_off_c, 0, 57, 64
2, 124150, Note_off_c, 0, 68, 64
2, 124150, Note_on_c, 0, 52, 54
2, 124154, Note_off_c, 0, 49, 64
2, 124154, Note_on_c, 0, 64, 49
2, 124193, Note_off_c, 0, 69, 64
2, 124228, Note_on_c, 0, 73, 57
2, 124231, Note_on_c, 0, 61, 61
2, 124231, Control_c, 0, 64, 0
2, 124236, Note_off_c, 0, 52, 64
2, 124236, Note_on_c, 0, 45, 49
2, 124242, Note_off_c, 0, 64, 64
2, 124269, Control_c, 0, 64, 127
2, 124307, Note_on_c, 0, 52, 34
2, 124309, Note_on_c, 0, 64, 39
2, 124313, Note_off_c, 0, 61, 64
2, 124366, Note_off_c, 0, 52, 64
2, 124371, Note_off_c, 0, 64, 64
2, 124373, Note_on_c, 0, 61, 58
2, 124381, Note_on_c, 0, 57, 49
2, 124422, Note_off_c, 0, 61, 64
2, 124439, Note_on_c, 0, 54, 51
2, 124448, Note_on_c, 0, 62, 55
2, 124452, Note_on_c, 0, 69, 49
2, 124491, Note_off_c, 0, 45, 64
2, 124504, Note_off_c, 0, 57, 64
2, 124519, Note_off_c, 0, 54, 64
2, 124524, Note_on_c, 0, 61, 62
2, 124524, Note_on_c, 0, 52, 54
2, 124526, Note_off_c, 0, 62, 64
2, 124529, Note_off_c, 0, 69, 64
2, 124543, Control_c, 0, 64, 0
2, 124576, Control_c, 0, 64, 127
2, 124605, Note_on_c, 0, 64, 41
2, 124612, Note_on_c, 0, 45, 41
2, 124615, Note_off_c, 0, 61, 64
2, 124652, Note_off_c, 0, 52, 64
2, 124667, Control_c, 0, 64, 0
2, 124681, Note_on_c, 0, 61, 57
2, 124690, Control_c, 0, 64, 127
2, 124693, Note_on_c, 0, 57, 39
2, 124697, Note_off_c, 0, 64, 64
2, 124743, Note_off_c, 0, 61, 64
2, 124776, Note_on_c, 0, 62, 40
2, 124778, Note_on_c, 0, 54, 47
2, 124780, Control_c, 0, 64, 0
2, 124791, Control_c, 0, 64, 127
2, 124835, Note_off_c, 0, 62, 64
2, 124839, Note_off_c, 0, 54, 64
2, 124874, Note_off_c, 0, 45, 64
2, 124878, Note_on_c, 0, 61, 54
2, 124880, Note_on_c, 0, 52, 44
2, 124979, Note_on_c, 0, 64, 25
2, 124981, Control_c, 0, 64, 0
2, 124984, Note_on_c, 0, 45, 49
2, 124997, Note_off_c, 0, 57, 64
2, 124998, Note_off_c, 0, 61, 64
2, 125017, Control_c, 0, 64, 127
2, 125085, Note_on_c, 0, 61, 49
2, 125094, Note_on_c, 0, 57, 40
2, 125110, Note_off_c, 0, 52, 64
2, 125118, Note_off_c, 0, 64, 64
2, 125155, Note_off_c, 0, 61, 64
2, 125256, Note_on_c, 0, 69, 55
2, 125256, Note_on_c, 0, 54, 48
2, 125261, Note_on_c, 0, 62, 36
2, 125282, Control_c, 0, 64, 0
2, 125292, Control_c, 0, 64, 127
2, 125390, Note_off_c, 0, 62, 64
2, 125430, Control_c, 0, 64, 0
2, 125445, Control_c, 0, 64, 127
2, 125510, Note_off_c, 0, 54, 64
2, 125557, Note_off_c, 0, 57, 64
2, 125628, Note_on_c, 0, 52, 39
2, 125630, Note_on_c, 0, 61, 40
2, 125674, Control_c, 0, 64, 0
2, 125737, Control_c, 0, 64, 127
2, 125972, Note_off_c, 0, 69, 64
2, 125989, Note_off_c, 0, 61, 64
2, 126028, Note_off_c, 0, 73, 64
2, 126028, Note_on_c, 0, 64, 31
2, 126031, Note_on_c, 0, 57, 26
2, 126043, Note_off_c, 0, 52, 64
2, 126046, Note_off_c, 0, 45, 64
2, 126085, Note_off_c, 0, 57, 64
2, 126140, Note_off_c, 0, 64, 64
2, 126162, Note_on_c, 0, 69, 36
2, 126170, Note_on_c, 0, 61, 29
2, 126239, Note_on_c, 0, 73, 36
2, 126243, Note_off_c, 0, 61, 64
2, 126243, Note_on_c, 0, 64, 30
2, 126248, Note_off_c, 0, 69, 64
2, 126264, Note_off_c, 0, 73, 64
2, 126287, Note_off_c, 0, 64, 64
2, 126300, Note_on_c, 0, 76, 39
2, 126303, Note_on_c, 0, 69, 26
2, 126341, Note_off_c, 0, 69, 64
2, 126366, Note_on_c, 0, 81, 33
2, 126371, Note_on_c, 0, 73, 37
2, 126382, Note_off_c, 0, 76, 64
2, 126421, Note_off_c, 0, 73, 64
2, 126424, Note_on_c, 0, 85, 57
2, 126427, Note_on_c, 0, 76, 25
2, 126431, Note_off_c, 0, 81, 64
2, 126463, Note_off_c, 0, 85, 64
2, 126477, Note_on_c, 0, 93, 48
2, 126479, Note_off_c, 0, 76, 64
2, 126489, Note_on_c, 0, 81, 35
2, 126506, Note_off_c, 0, 93, 64
2, 126516, Note_off_c, 0, 81, 64
2, 126520, Note_on_c, 0, 85, 62
2, 126535, Note_on_c, 0, 76, 30
2, 126549, Note_off_c, 0, 85, 64
2, 126567, Note_off_c, 0, 76, 64
2, 126576, Note_on_c, 0, 88, 59
2, 126576, Note_on_c, 0, 86, 58
2, 126580, Note_on_c, 0, 77, 38
2, 126618, Note_off_c, 0, 77, 64
2, 126619, Note_on_c, 0, 76, 39
2, 126623, Note_on_c, 0, 85, 59
2, 126636, Note_off_c, 0, 88, 64
2, 126641, Note_off_c, 0, 86, 64
2, 126660, Note_off_c, 0, 76, 64
2, 126669, Note_on_c, 0, 81, 24
2, 126673, Note_off_c, 0, 85, 64
2, 126674, Note_on_c, 0, 73, 16
2, 126711, Note_off_c, 0, 81, 64
2, 126713, Note_on_c, 0, 69, 24
2, 126715, Note_off_c, 0, 73, 64
2, 126721, Note_on_c, 0, 76, 37
2, 126760, Note_on_c, 0, 79, 43
2, 126765, Note_off_c, 0, 76, 64
2, 126769, Note_on_c, 0, 77, 37
2, 126771, Note_on_c, 0, 74, 24
2, 126777, Note_off_c, 0, 69, 64
2, 126807, Note_off_c, 0, 74, 64
2, 126813, Note_off_c, 0, 77, 64
2, 126814, Note_off_c, 0, 79, 64
2, 126820, Note_on_c, 0, 76, 43
2, 126820, Note_on_c, 0, 73, 25
2, 126868, Note_on_c, 0, 81, 42
2, 126871, Note_on_c, 0, 64, 43
2, 126883, Note_off_c, 0, 73, 64
2, 126885, Note_off_c, 0, 76, 64
2, 126917, Note_on_c, 0, 73, 45
2, 126919, Note_on_c, 0, 57, 43
2, 126947, Note_off_c, 0, 81, 64
2, 126948, Note_off_c, 0, 64, 64
2, 126956, Note_on_c, 0, 76, 43
2, 126966, Note_on_c, 0, 65, 36
2, 126969, Note_on_c, 0, 74, 43
2, 126983, Note_off_c, 0, 73, 64
2, 126985, Note_off_c, 0, 57, 64
2, 127007, Note_off_c, 0, 76, 64
2, 127015, Note_on_c, 0, 73, 39
2, 127018, Note_on_c, 0, 64, 36
2, 127031, Note_off_c, 0, 65, 64
2, 127038, Note_off_c, 0, 74, 64
2, 127063, Note_off_c, 0, 73, 64
2, 127068, Note_off_c, 0, 64, 64
2, 127068, Note_on_c, 0, 69, 33
2, 127068, Note_on_c, 0, 61, 42
2, 127115, Note_on_c, 0, 64, 40
2, 127121, Note_off_c, 0, 69, 64
2, 127122, Note_off_c, 0, 61, 64
2, 127125, Note_on_c, 0, 57, 48
2, 127174, Note_on_c, 0, 67, 24
2, 127178, Note_on_c, 0, 65, 38
2, 127186, Note_on_c, 0, 62, 43
2, 127188, Note_off_c, 0, 64, 64
2, 127215, Note_off_c, 0, 67, 64
2, 127219, Note_off_c, 0, 65, 64
2, 127228, Note_off_c, 0, 57, 64
2, 127230, Note_on_c, 0, 64, 43
2, 127234, Note_on_c, 0, 61, 43
2, 127240, Control_c, 0, 64, 0
2, 127244, Note_off_c, 0, 62, 64
2, 127275, Control_c, 0, 64, 127
2, 127293, Note_on_c, 0, 69, 35
2, 127298, Note_off_c, 0, 61, 64
2, 127305, Note_on_c, 0, 52, 40
2, 127316, Note_off_c, 0, 64, 64
2, 127337, Note_off_c, 0, 69, 64
2, 127354, Note_on_c, 0, 64, 33
2, 127356, Note_on_c, 0, 45, 43
2, 127368, Note_off_c, 0, 52, 64
2, 127404, Note_on_c, 0, 67, 30
2, 127426, Note_on_c, 0, 65, 26
2, 127428, Note_on_c, 0, 62, 42
2, 127431, Note_off_c, 0, 64, 64
2, 127434, Control_c, 0, 64, 0
2, 127442, Note_off_c, 0, 67, 64
2, 127444, Control_c, 0, 64, 127
2, 127461, Note_off_c, 0, 45, 64
2, 127492, Note_on_c, 0, 61, 33
2, 127494, Note_on_c, 0, 64, 33
2, 127498, Note_off_c, 0, 65, 64
2, 127499, Note_off_c, 0, 62, 64
2, 127562, Note_on_c, 0, 69, 33
2, 127565, Note_on_c, 0, 52, 44
2, 127583, Note_off_c, 0, 61, 64
2, 127586, Note_off_c, 0, 64, 64
2, 127638, Control_c, 0, 64, 0
2, 127642, Note_on_c, 0, 64, 33
2, 127646, Note_on_c, 0, 45, 32
2, 127651, Note_off_c, 0, 69, 64
2, 127652, Control_c, 0, 64, 127
2, 127662, Note_off_c, 0, 52, 64
2, 127720, Note_on_c, 0, 67, 25
2, 127738, Note_on_c, 0, 65, 33
2, 127738, Note_on_c, 0, 62, 33
2, 127742, Note_off_c, 0, 64, 64
2, 127746, Control_c, 0, 64, 0
2, 127751, Note_off_c, 0, 67, 64
2, 127755, Control_c, 0, 64, 127
2, 127765, Note_off_c, 0, 45, 64
2, 127905, Control_c, 0, 64, 0
2, 127911, Note_on_c, 0, 61, 29
2, 127914, Note_on_c, 0, 64, 29
2, 127921, Note_off_c, 0, 65, 64
2, 127936, Control_c, 0, 64, 127
2, 127944, Note_off_c, 0, 62, 64
2, 128160, Control_c, 0, 64, 0
2, 128263, Note_on_c, 0, 69, 26
2, 128273, Note_off_c, 0, 64, 64
2, 128313, Note_off_c, 0, 61, 64
2, 129257, Note_on_c, 0, 70, 27
2, 129267, Note_off_c, 0, 69, 64
2, 129430, Note_on_c, 0, 68, 28
2, 129444, Note_off_c, 0, 70, 64
2, 129634, Note_on_c, 0, 69, 32
2, 129645, Note_off_c, 0, 68, 64
2, 129835, Note_on_c, 0, 70, 43
2, 129860, Note_off_c, 0, 69, 64
2, 130039, Note_on_c, 0, 74, 32
2, 130055, Note_off_c, 0, 70, 64
2, 130234, Note_on_c, 0, 73, 36
2, 130237, Note_off_c, 0, 74, 64
2, 130244, Note_on_c, 0, 57, 31
2, 130424, Note_on_c, 0, 67, 32
2, 130429, Note_on_c, 0, 58, 48
2, 130436, Note_off_c, 0, 73, 64
2, 130439, Note_off_c, 0, 57, 64
2, 130612, Note_on_c, 0, 70, 41
2, 130615, Note_on_c, 0, 62, 39
2, 130622, Note_off_c, 0, 58, 64
2, 130639, Note_off_c, 0, 67, 64
2, 130808, Note_on_c, 0, 69, 49
2, 130808, Note_on_c, 0, 61, 37
2, 130817, Note_off_c, 0, 62, 64
2, 130821, Note_off_c, 0, 70, 64
2, 130994, Note_on_c, 0, 70, 50
2, 130998, Note_on_c, 0, 55, 43
2, 131014, Note_off_c, 0, 69, 64
2, 131018, Note_off_c, 0, 61, 64
2, 131173, Note_on_c, 0, 58, 46
2, 131176, Note_on_c, 0, 74, 32
2, 131185, Note_off_c, 0, 55, 64
2, 131187, Note_off_c, 0, 70, 64
2, 131358, Note_on_c, 0, 73, 46
2, 131362, Note_off_c, 0, 74, 64
2, 131363, Note_on_c, 0, 57, 46
2, 131370, Note_off_c, 0, 58, 64
2, 131540, Note_on_c, 0, 58, 49
2, 131543, Note_on_c, 0, 67, 30
2, 131552, Note_off_c, 0, 57, 64
2, 131555, Note_off_c, 0, 73, 64
2, 131717, Note_on_c, 0, 70, 36
2, 131724, Note_on_c, 0, 62, 24
2, 131732, Note_off_c, 0, 58, 64
2, 131751, Note_off_c, 0, 67, 64
2, 131900, Note_on_c, 0, 61, 38
2, 131927, Note_off_c, 0, 62, 64
2, 131938, Note_off_c, 0, 70, 64
2, 132074, Note_on_c, 0, 69, 38
2, 132074, Note_on_c, 0, 60, 40
2, 132096, Note_off_c, 0, 61, 64
2, 132149, Note_on_c, 0, 70, 39
2, 132162, Note_off_c, 0, 69, 64
2, 132235, Note_off_c, 0, 70, 64
2, 132237, Note_on_c, 0, 69, 42
2, 132237, Note_on_c, 0, 67, 32
2, 132240, Note_on_c, 0, 58, 48
2, 132256, Note_off_c, 0, 60, 64
2, 132279, Control_c, 0, 64, 127
2, 132292, Note_off_c, 0, 67, 64
2, 132316, Note_on_c, 0, 70, 46
2, 132331, Note_off_c, 0, 69, 64
2, 132397, Control_c, 0, 64, 0
2, 132403, Note_on_c, 0, 72, 47
2, 132412, Note_on_c, 0, 60, 36
2, 132413, Note_off_c, 0, 70, 64
2, 132445, Control_c, 0, 64, 127
2, 132513, Note_off_c, 0, 72, 64
2, 132518, Note_off_c, 0, 60, 64
2, 132571, Note_on_c, 0, 72, 47
2, 132574, Note_on_c, 0, 62, 26
2, 132576, Note_on_c, 0, 57, 33
2, 132580, Note_off_c, 0, 58, 64
2, 132584, Control_c, 0, 64, 0
2, 132617, Control_c, 0, 64, 127
2, 132666, Note_off_c, 0, 72, 64
2, 132689, Note_off_c, 0, 62, 64
2, 132752, Note_on_c, 0, 72, 44
2, 132754, Note_on_c, 0, 65, 42
2, 132758, Note_on_c, 0, 50, 37
2, 132760, Control_c, 0, 64, 0
2, 132793, Control_c, 0, 64, 127
2, 132805, Note_off_c, 0, 57, 64
2, 132858, Note_off_c, 0, 65, 64
2, 132872, Note_off_c, 0, 72, 64
2, 132933, Note_on_c, 0, 58, 43
2, 132958, Note_on_c, 0, 55, 27
2, 132969, Note_off_c, 0, 50, 64
2, 132972, Note_on_c, 0, 65, 41
2, 132979, Control_c, 0, 64, 0
2, 133002, Note_on_c, 0, 72, 49
2, 133008, Control_c, 0, 64, 127
2, 133015, Note_off_c, 0, 58, 64
2, 133058, Note_off_c, 0, 65, 64
2, 133103, Note_off_c, 0, 72, 64
2, 133171, Control_c, 0, 64, 0
2, 133175, Note_on_c, 0, 62, 48
2, 133179, Note_on_c, 0, 70, 48
2, 133181, Note_on_c, 0, 43, 37
2, 133197, Control_c, 0, 64, 127
2, 133272, Note_off_c, 0, 70, 64
2, 133276, Note_on_c, 0, 69, 35
2, 133307, Note_off_c, 0, 62, 64
2, 133314, Note_off_c, 0, 69, 64
2, 133394, Note_on_c, 0, 58, 48
2, 133396, Note_on_c, 0, 48, 49
2, 133399, Note_on_c, 0, 67, 43
2, 133400, Note_on_c, 0, 64, 40
2, 133409, Control_c, 0, 64, 0
2, 133447, Control_c, 0, 64, 127
2, 133451, Note_off_c, 0, 43, 64
2, 133461, Note_off_c, 0, 64, 64
2, 133495, Note_off_c, 0, 67, 64
2, 133495, Note_on_c, 0, 69, 43
2, 133525, Note_off_c, 0, 58, 64
2, 133571, Note_off_c, 0, 69, 64
2, 133595, Note_on_c, 0, 57, 37
2, 133599, Note_on_c, 0, 65, 38
2, 133601, Note_on_c, 0, 41, 44
2, 133607, Control_c, 0, 64, 0
2, 133632, Note_off_c, 0, 55, 64
2, 133763, Note_on_c, 0, 49, 53
2, 133781, Note_off_c, 0, 57, 64
2, 133784, Note_off_c, 0, 48, 64
2, 133787, Note_off_c, 0, 41, 64
2, 133788, Note_off_c, 0, 65, 64
2, 133944, Note_on_c, 0, 53, 53
2, 133946, Note_off_c, 0, 49, 64
2, 134113, Note_on_c, 0, 52, 55
2, 134117, Note_on_c, 0, 60, 36
2, 134126, Note_off_c, 0, 53, 64
2, 134289, Note_on_c, 0, 46, 53
2, 134292, Note_off_c, 0, 52, 64
2, 134292, Note_on_c, 0, 61, 35
2, 134303, Note_off_c, 0, 60, 64
2, 134454, Control_c, 0, 64, 127
2, 134461, Note_on_c, 0, 49, 46
2, 134465, Note_on_c, 0, 65, 44
2, 134472, Note_off_c, 0, 46, 64
2, 134479, Note_off_c, 0, 61, 64
2, 134497, Note_off_c, 0, 65, 64
2, 134626, Control_c, 0, 64, 0
2, 134634, Note_off_c, 0, 49, 64
2, 134634, Note_on_c, 0, 72, 55
2, 134636, Note_on_c, 0, 64, 49
2, 134636, Note_on_c, 0, 48, 50
2, 134659, Control_c, 0, 64, 127
2, 134683, Note_off_c, 0, 48, 64
2, 134813, Note_on_c, 0, 73, 53
2, 134813, Note_on_c, 0, 58, 53
2, 134818, Control_c, 0, 64, 0
2, 134826, Note_off_c, 0, 72, 64
2, 134854, Note_off_c, 0, 64, 64
2, 134988, Note_on_c, 0, 61, 53
2, 134990, Note_on_c, 0, 77, 40
2, 134994, Note_off_c, 0, 58, 64
2, 134996, Note_off_c, 0, 73, 64
2, 135161, Note_on_c, 0, 76, 46
2, 135164, Note_off_c, 0, 77, 64
2, 135166, Note_on_c, 0, 60, 53
2, 135176, Note_off_c, 0, 61, 64
2, 135338, Note_on_c, 0, 70, 42
2, 135340, Note_on_c, 0, 61, 53
2, 135352, Note_off_c, 0, 60, 64
2, 135368, Note_off_c, 0, 76, 64
2, 135518, Note_on_c, 0, 73, 38
2, 135521, Note_on_c, 0, 65, 49
2, 135528, Note_off_c, 0, 61, 64
2, 135535, Note_off_c, 0, 70, 64
2, 135699, Note_on_c, 0, 64, 42
2, 135709, Note_off_c, 0, 73, 64
2, 135714, Note_off_c, 0, 65, 64
2, 135875, Note_on_c, 0, 72, 41
2, 135879, Note_on_c, 0, 63, 49
2, 135899, Note_off_c, 0, 64, 64
2, 135961, Note_on_c, 0, 73, 53
2, 135966, Note_off_c, 0, 72, 64
2, 136042, Note_off_c, 0, 73, 64
2, 136046, Note_on_c, 0, 72, 46
2, 136049, Note_on_c, 0, 70, 24
2, 136049, Note_on_c, 0, 61, 48
2, 136063, Note_off_c, 0, 63, 64
2, 136096, Note_off_c, 0, 70, 64
2, 136125, Note_on_c, 0, 73, 51
2, 136129, Note_off_c, 0, 72, 64
2, 136205, Note_on_c, 0, 75, 49
2, 136209, Note_on_c, 0, 63, 53
2, 136214, Note_off_c, 0, 73, 64
2, 136231, Control_c, 0, 64, 127
2, 136316, Note_off_c, 0, 63, 64
2, 136325, Note_off_c, 0, 75, 64
2, 136376, Note_on_c, 0, 75, 53
2, 136382, Note_on_c, 0, 65, 39
2, 136386, Note_on_c, 0, 60, 32
2, 136389, Note_off_c, 0, 61, 64
2, 136393, Control_c, 0, 64, 0
2, 136421, Control_c, 0, 64, 127
2, 136488, Note_off_c, 0, 75, 64
2, 136490, Note_off_c, 0, 65, 64
2, 136546, Note_on_c, 0, 75, 45
2, 136555, Note_on_c, 0, 68, 32
2, 136559, Note_on_c, 0, 53, 38
2, 136564, Control_c, 0, 64, 0
2, 136578, Note_off_c, 0, 60, 64
2, 136586, Control_c, 0, 64, 127
2, 136656, Note_off_c, 0, 68, 64
2, 136719, Note_on_c, 0, 58, 34
2, 136722, Note_off_c, 0, 75, 64
2, 136732, Note_off_c, 0, 53, 64
2, 136752, Note_on_c, 0, 61, 45
2, 136764, Control_c, 0, 64, 0
2, 136776, Note_on_c, 0, 68, 40
2, 136804, Note_on_c, 0, 75, 58
2, 136806, Control_c, 0, 64, 127
2, 136848, Note_off_c, 0, 61, 64
2, 136849, Note_off_c, 0, 68, 64
2, 136912, Note_off_c, 0, 75, 64
2, 136923, Note_on_c, 0, 46, 49
2, 136925, Note_on_c, 0, 65, 49
2, 136928, Note_on_c, 0, 73, 54
2, 136934, Control_c, 0, 64, 0
2, 136960, Control_c, 0, 64, 127
2, 137006, Note_off_c, 0, 73, 64
2, 137021, Note_on_c, 0, 72, 53
2, 137039, Note_off_c, 0, 65, 64
2, 137098, Note_off_c, 0, 72, 64
2, 137120, Note_on_c, 0, 51, 57
2, 137125, Note_on_c, 0, 61, 53
2, 137126, Note_on_c, 0, 70, 53
2, 137130, Note_off_c, 0, 46, 64
2, 137135, Note_off_c, 0, 58, 64
2, 137137, Control_c, 0, 64, 0
2, 137170, Control_c, 0, 64, 127
2, 137231, Note_off_c, 0, 70, 64
2, 137231, Note_on_c, 0, 72, 37
2, 137327, Note_off_c, 0, 61, 64
2, 137331, Note_on_c, 0, 44, 24
2, 137333, Note_on_c, 0, 68, 37
2, 137338, Note_off_c, 0, 72, 64
2, 137341, Note_on_c, 0, 60, 33
2, 137346, Control_c, 0, 64, 0
2, 137506, Note_on_c, 0, 52, 47
2, 137513, Note_off_c, 0, 51, 64
2, 137518, Note_off_c, 0, 44, 64
2, 137538, Note_off_c, 0, 60, 64
2, 137542, Note_off_c, 0, 68, 64
2, 137680, Note_on_c, 0, 56, 56
2, 137690, Note_off_c, 0, 52, 64
2, 137853, Note_on_c, 0, 63, 39
2, 137863, Note_on_c, 0, 55, 57
2, 137865, Note_off_c, 0, 56, 64
2, 138048, Note_on_c, 0, 49, 48
2, 138056, Note_off_c, 0, 55, 64
2, 138060, Note_on_c, 0, 64, 52
2, 138068, Note_off_c, 0, 63, 64
2, 138198, Control_c, 0, 64, 127
2, 138210, Note_on_c, 0, 52, 49
2, 138214, Note_on_c, 0, 68, 54
2, 138231, Note_off_c, 0, 64, 64
2, 138233, Note_off_c, 0, 49, 64
2, 138384, Note_off_c, 0, 68, 64
2, 138385, Note_on_c, 0, 75, 53
2, 138387, Note_on_c, 0, 51, 50
2, 138388, Note_on_c, 0, 67, 50
2, 138392, Control_c, 0, 64, 0
2, 138404, Note_off_c, 0, 52, 64
2, 138432, Control_c, 0, 64, 127
2, 138482, Note_off_c, 0, 67, 64
2, 138554, Note_off_c, 0, 75, 64
2, 138559, Control_c, 0, 64, 0
2, 138563, Note_on_c, 0, 68, 58
2, 138564, Note_on_c, 0, 76, 57
2, 138572, Note_off_c, 0, 51, 64
2, 138591, Control_c, 0, 64, 127
2, 138745, Note_on_c, 0, 80, 49
2, 138746, Control_c, 0, 64, 0
2, 138751, Note_off_c, 0, 76, 64
2, 138751, Note_on_c, 0, 71, 47
2, 138755, Note_on_c, 0, 62, 48
2, 138758, Note_off_c, 0, 68, 64
2, 138785, Control_c, 0, 64, 127
2, 138847, Note_off_c, 0, 80, 64
2, 138923, Note_off_c, 0, 71, 64
2, 138923, Note_on_c, 0, 70, 45
2, 138926, Note_on_c, 0, 79, 50
2, 138926, Note_on_c, 0, 63, 49
2, 138927, Control_c, 0, 64, 0
2, 138936, Note_off_c, 0, 62, 64
2, 138957, Control_c, 0, 64, 127
2, 139021, Note_off_c, 0, 79, 64
2, 139065, Note_off_c, 0, 70, 64
2, 139104, Note_on_c, 0, 69, 43
2, 139105, Note_on_c, 0, 73, 41
2, 139109, Note_on_c, 0, 64, 33
2, 139114, Note_off_c, 0, 63, 64
2, 139119, Control_c, 0, 64, 0
2, 139146, Control_c, 0, 64, 127
2, 139209, Note_off_c, 0, 69, 64
2, 139232, Note_off_c, 0, 73, 64
2, 139302, Note_on_c, 0, 76, 28
2, 139302, Note_on_c, 0, 68, 33
2, 139311, Control_c, 0, 64, 0
2, 139319, Note_off_c, 0, 64, 64
2, 139345, Control_c, 0, 64, 127
2, 139515, Note_on_c, 0, 67, 34
2, 139519, Control_c, 0, 64, 0
2, 139545, Control_c, 0, 64, 127
2, 139566, Note_off_c, 0, 68, 64
2, 139584, Note_off_c, 0, 76, 64
2, 139703, Note_on_c, 0, 75, 37
2, 139703, Note_on_c, 0, 66, 43
2, 139713, Control_c, 0, 64, 0
2, 139722, Note_off_c, 0, 67, 64
2, 139735, Control_c, 0, 64, 127
2, 139789, Note_off_c, 0, 75, 64
2, 139794, Note_on_c, 0, 76, 40
2, 139862, Note_off_c, 0, 76, 64
2, 139878, Note_on_c, 0, 75, 38
2, 139882, Note_on_c, 0, 73, 26
2, 139885, Note_on_c, 0, 64, 38
2, 139893, Control_c, 0, 64, 0
2, 139901, Note_off_c, 0, 66, 64
2, 139922, Control_c, 0, 64, 127
2, 139951, Note_off_c, 0, 73, 64
2, 139961, Note_on_c, 0, 76, 53
2, 139963, Note_off_c, 0, 75, 64
2, 140051, Note_on_c, 0, 78, 50
2, 140054, Note_on_c, 0, 66, 40
2, 140058, Note_off_c, 0, 76, 64
2, 140059, Control_c, 0, 64, 0
2, 140067, Note_on_c, 0, 63, 36
2, 140077, Note_off_c, 0, 64, 64
2, 140084, Control_c, 0, 64, 127
2, 140129, Note_off_c, 0, 63, 64
2, 140186, Note_off_c, 0, 66, 64
2, 140202, Note_off_c, 0, 78, 64
2, 140238, Note_on_c, 0, 78, 48
2, 140247, Note_on_c, 0, 71, 49
2, 140251, Note_on_c, 0, 66, 27
2, 140253, Note_on_c, 0, 62, 36
2, 140264, Control_c, 0, 64, 0
2, 140297, Control_c, 0, 64, 127
2, 140363, Note_off_c, 0, 66, 64
2, 140365, Note_off_c, 0, 62, 64
2, 140378, Note_off_c, 0, 71, 64
2, 140390, Note_off_c, 0, 78, 64
2, 140442, Note_on_c, 0, 70, 41
2, 140445, Note_on_c, 0, 78, 53
2, 140447, Note_on_c, 0, 61, 40
2, 140450, Note_on_c, 0, 64, 40
2, 140468, Control_c, 0, 64, 0
2, 140501, Control_c, 0, 64, 127
2, 140584, Note_off_c, 0, 78, 64
2, 140590, Note_off_c, 0, 70, 64
2, 140598, Note_off_c, 0, 61, 64
2, 140653, Note_off_c, 0, 64, 64
2, 140670, Note_on_c, 0, 63, 43
2, 140672, Note_on_c, 0, 78, 44
2, 140675, Note_on_c, 0, 60, 38
2, 140679, Note_on_c, 0, 69, 29
2, 140699, Control_c, 0, 64, 0
2, 140738, Control_c, 0, 64, 127
2, 140867, Note_off_c, 0, 78, 64
2, 140901, Note_on_c, 0, 77, 40
2, 140910, Note_on_c, 0, 53, 47
2, 140925, Control_c, 0, 64, 0
2, 140938, Note_off_c, 0, 63, 64
2, 140940, Note_off_c, 0, 60, 64
2, 140967, Control_c, 0, 64, 127
2, 141016, Note_on_c, 0, 72, 48
2, 141092, Note_off_c, 0, 77, 64
2, 141119, Control_c, 0, 64, 0
2, 141125, Note_on_c, 0, 75, 46
2, 141128, Note_on_c, 0, 65, 39
2, 141136, Note_off_c, 0, 72, 64
2, 141138, Control_c, 0, 64, 127
2, 141181, Note_off_c, 0, 53, 64
2, 141230, Note_on_c, 0, 73, 47
2, 141240, Note_off_c, 0, 75, 64
2, 141255, Note_off_c, 0, 65, 64
2, 141332, Note_on_c, 0, 70, 48
2, 141332, Control_c, 0, 64, 0
2, 141339, Note_off_c, 0, 69, 64
2, 141341, Note_on_c, 0, 46, 35
2, 141344, Note_off_c, 0, 73, 64
2, 141380, Control_c, 0, 64, 127
2, 141422, Note_off_c, 0, 70, 64
2, 141536, Note_on_c, 0, 53, 39
2, 141541, Note_on_c, 0, 61, 19
2, 141542, Note_off_c, 0, 46, 64
2, 141648, Note_off_c, 0, 53, 64
2, 141653, Note_off_c, 0, 61, 64
2, 141748, Note_on_c, 0, 44, 49
2, 141867, Note_off_c, 0, 44, 64
2, 141964, Control_c, 0, 64, 0
2, 141968, Note_on_c, 0, 42, 53
2, 142006, Control_c, 0, 64, 127
2, 142140, Note_off_c, 0, 42, 64
2, 142206, Note_on_c, 0, 73, 43
2, 142206, Note_on_c, 0, 58, 21
2, 142206, Note_on_c, 0, 54, 22
2, 142212, Note_on_c, 0, 49, 30
2, 142228, Control_c, 0, 64, 127
2, 142284, Note_off_c, 0, 49, 64
2, 142299, Note_on_c, 0, 75, 60
2, 142301, Note_off_c, 0, 54, 64
2, 142304, Note_off_c, 0, 73, 64
2, 142306, Note_off_c, 0, 58, 64
2, 142396, Note_on_c, 0, 73, 53
2, 142402, Note_off_c, 0, 75, 64
2, 142404, Note_on_c, 0, 61, 18
2, 142404, Note_on_c, 0, 54, 30
2, 142410, Note_on_c, 0, 58, 24
2, 142478, Note_off_c, 0, 61, 64
2, 142479, Note_off_c, 0, 54, 64
2, 142481, Note_off_c, 0, 58, 64
2, 142493, Note_on_c, 0, 75, 54
2, 142501, Note_off_c, 0, 73, 64
2, 142579, Note_on_c, 0, 77, 48
2, 142587, Note_on_c, 0, 37, 40
2, 142587, Control_c, 0, 64, 0
2, 142597, Note_off_c, 0, 75, 64
2, 142632, Control_c, 0, 64, 127
2, 142694, Note_off_c, 0, 77, 64
2, 142788, Note_on_c, 0, 61, 38
2, 142788, Note_on_c, 0, 56, 24
2, 142788, Note_on_c, 0, 53, 24
2, 142789, Note_on_c, 0, 77, 55
2, 142807, Note_off_c, 0, 37, 64
2, 142864, Note_off_c, 0, 56, 64
2, 142865, Note_off_c, 0, 53, 64
2, 142865, Note_off_c, 0, 61, 64
2, 142889, Note_off_c, 0, 77, 64
2, 142983, Note_on_c, 0, 77, 49
2, 142988, Note_on_c, 0, 65, 19
2, 142989, Note_on_c, 0, 61, 32
2, 142990, Note_on_c, 0, 56, 38
2, 143069, Note_off_c, 0, 65, 64
2, 143073, Note_off_c, 0, 61, 64
2, 143076, Note_off_c, 0, 56, 64
2, 143094, Note_off_c, 0, 77, 64
2, 143203, Note_on_c, 0, 39, 42
2, 143204, Note_on_c, 0, 77, 50
2, 143210, Control_c, 0, 64, 0
2, 143260, Control_c, 0, 64, 127
2, 143404, Note_on_c, 0, 75, 54
2, 143408, Note_on_c, 0, 60, 24
2, 143408, Note_on_c, 0, 51, 24
2, 143411, Note_on_c, 0, 58, 24
2, 143415, Note_off_c, 0, 39, 64
2, 143418, Control_c, 0, 64, 0
2, 143424, Note_off_c, 0, 77, 64
2, 143442, Control_c, 0, 64, 127
2, 143479, Note_off_c, 0, 51, 64
2, 143482, Note_off_c, 0, 58, 64
2, 143482, Note_off_c, 0, 60, 64
2, 143492, Note_on_c, 0, 70, 61
2, 143500, Note_off_c, 0, 75, 64
2, 143588, Note_on_c, 0, 66, 29
2, 143588, Note_on_c, 0, 60, 29
2, 143588, Note_on_c, 0, 58, 29
2, 143591, Note_on_c, 0, 73, 49
2, 143620, Note_off_c, 0, 70, 64
2, 143658, Note_off_c, 0, 66, 64
2, 143660, Note_off_c, 0, 58, 64
2, 143664, Note_off_c, 0, 60, 64
2, 143684, Note_on_c, 0, 72, 66
2, 143691, Note_off_c, 0, 73, 64
2, 143778, Note_on_c, 0, 69, 49
2, 143782, Note_on_c, 0, 41, 40
2, 143794, Note_off_c, 0, 72, 64
2, 143802, Control_c, 0, 64, 0
2, 143843, Control_c, 0, 64, 127
2, 143885, Note_off_c, 0, 69, 64
2, 143980, Note_on_c, 0, 72, 53
2, 143987, Note_on_c, 0, 65, 28
2, 143990, Note_on_c, 0, 69, 32
2, 143995, Note_on_c, 0, 60, 32
2, 143999, Control_c, 0, 64, 0
2, 144004, Note_off_c, 0, 41, 64
2, 144018, Control_c, 0, 64, 127
2, 144062, Note_off_c, 0, 60, 64
2, 144067, Note_off_c, 0, 69, 64
2, 144069, Note_off_c, 0, 65, 64
2, 144168, Note_on_c, 0, 77, 57
2, 144174, Note_on_c, 0, 65, 24
2, 144178, Note_on_c, 0, 60, 27
2, 144181, Note_on_c, 0, 57, 31
2, 144198, Note_off_c, 0, 72, 64
2, 144363, Note_on_c, 0, 76, 55
2, 144367, Control_c, 0, 64, 0
2, 144371, Note_off_c, 0, 57, 64
2, 144371, Note_on_c, 0, 53, 37
2, 144381, Note_off_c, 0, 77, 64
2, 144401, Note_off_c, 0, 60, 64
2, 144406, Control_c, 0, 64, 127
2, 144430, Note_off_c, 0, 65, 64
2, 144548, Note_on_c, 0, 64, 29
2, 144548, Note_on_c, 0, 61, 36
2, 144549, Note_on_c, 0, 70, 49
2, 144551, Note_on_c, 0, 67, 21
2, 144570, Note_off_c, 0, 76, 64
2, 144610, Note_off_c, 0, 53, 64
2, 144621, Note_off_c, 0, 64, 64
2, 144623, Note_off_c, 0, 67, 64
2, 144626, Note_off_c, 0, 61, 64
2, 144757, Note_on_c, 0, 73, 48
2, 144760, Note_on_c, 0, 64, 21
2, 144764, Note_on_c, 0, 61, 22
2, 144764, Note_on_c, 0, 58, 20
2, 144791, Note_off_c, 0, 70, 64
2, 144824, Note_off_c, 0, 58, 64
2, 144829, Note_off_c, 0, 61, 64
2, 144830, Note_off_c, 0, 64, 64
2, 144964, Note_on_c, 0, 41, 48
2, 144975, Control_c, 0, 64, 0
2, 145010, Control_c, 0, 64, 127
2, 145151, Note_on_c, 0, 72, 59
2, 145152, Note_on_c, 0, 69, 23
2, 145155, Note_on_c, 0, 65, 20
2, 145156, Note_on_c, 0, 60, 31
2, 145174, Note_off_c, 0, 73, 64
2, 145192, Note_off_c, 0, 41, 64
2, 145207, Note_off_c, 0, 69, 64
2, 145214, Note_off_c, 0, 60, 64
2, 145216, Note_off_c, 0, 65, 64
2, 145325, Note_on_c, 0, 77, 43
2, 145325, Note_on_c, 0, 65, 22
2, 145331, Note_on_c, 0, 60, 29
2, 145333, Note_on_c, 0, 57, 20
2, 145345, Note_off_c, 0, 72, 64
2, 145513, Control_c, 0, 64, 0
2, 145521, Note_on_c, 0, 53, 49
2, 145537, Note_off_c, 0, 57, 64
2, 145559, Control_c, 0, 64, 127
2, 145566, Note_off_c, 0, 60, 64
2, 145597, Note_off_c, 0, 65, 64
2, 145603, Note_on_c, 0, 76, 58
2, 145628, Note_off_c, 0, 77, 64
2, 145681, Note_on_c, 0, 70, 58
2, 145684, Note_on_c, 0, 64, 29
2, 145688, Note_on_c, 0, 67, 29
2, 145690, Note_on_c, 0, 61, 40
2, 145705, Note_off_c, 0, 76, 64
2, 145759, Note_off_c, 0, 64, 64
2, 145760, Note_off_c, 0, 53, 64
2, 145763, Note_off_c, 0, 67, 64
2, 145764, Note_off_c, 0, 61, 64
2, 145783, Note_on_c, 0, 72, 68
2, 145796, Note_off_c, 0, 70, 64
2, 145888, Note_on_c, 0, 61, 27
2, 145892, Note_on_c, 0, 64, 25
2, 145892, Note_on_c, 0, 58, 25
2, 145894, Note_on_c, 0, 75, 60
2, 145905, Note_off_c, 0, 72, 64
2, 145959, Note_off_c, 0, 61, 64
2, 145963, Note_off_c, 0, 58, 64
2, 145965, Note_off_c, 0, 64, 64
2, 146010, Note_on_c, 0, 73, 57
2, 146028, Note_off_c, 0, 75, 64
2, 146148, Note_on_c, 0, 41, 49
2, 146154, Note_off_c, 0, 73, 64
2, 146154, Control_c, 0, 64, 0
2, 146196, Control_c, 0, 64, 127
2, 146352, Note_on_c, 0, 72, 55
2, 146355, Note_on_c, 0, 66, 28
2, 146356, Note_on_c, 0, 63, 23
2, 146359, Note_on_c, 0, 60, 38
2, 146372, Note_off_c, 0, 41, 64
2, 146421, Note_off_c, 0, 66, 64
2, 146422, Note_off_c, 0, 60, 64
2, 146424, Note_off_c, 0, 63, 64
2, 146438, Note_on_c, 0, 73, 57
2, 146454, Note_off_c, 0, 72, 64
2, 146516, Note_on_c, 0, 54, 36
2, 146520, Note_on_c, 0, 63, 32
2, 146523, Note_on_c, 0, 72, 61
2, 146523, Note_on_c, 0, 58, 38
2, 146531, Note_off_c, 0, 73, 64
2, 146588, Note_on_c, 0, 73, 72
2, 146609, Note_off_c, 0, 72, 64
2, 146613, Note_off_c, 0, 54, 64
2, 146620, Note_off_c, 0, 63, 64
2, 146622, Note_off_c, 0, 58, 64
2, 146670, Note_on_c, 0, 75, 57
2, 146680, Note_on_c, 0, 53, 46
2, 146683, Control_c, 0, 64, 0
2, 146693, Note_off_c, 0, 73, 64
2, 146719, Control_c, 0, 64, 127
2, 146783, Note_off_c, 0, 75, 64
2, 146837, Note_on_c, 0, 75, 60
2, 146840, Note_on_c, 0, 63, 32
2, 146843, Note_on_c, 0, 70, 32
2, 146844, Note_on_c, 0, 66, 37
2, 146901, Note_off_c, 0, 63, 64
2, 146904, Note_off_c, 0, 66, 64
2, 146904, Note_off_c, 0, 70, 64
2, 146919, Note_off_c, 0, 53, 64
2, 146922, Note_off_c, 0, 75, 64
2, 147024, Note_on_c, 0, 75, 63
2, 147034, Note_on_c, 0, 66, 31
2, 147034, Note_on_c, 0, 60, 36
2, 147038, Note_on_c, 0, 63, 32
2, 147085, Note_off_c, 0, 66, 64
2, 147087, Note_off_c, 0, 63, 64
2, 147094, Note_off_c, 0, 60, 64
2, 147151, Note_off_c, 0, 75, 64
2, 147242, Note_on_c, 0, 75, 52
2, 147254, Note_on_c, 0, 41, 35
2, 147261, Control_c, 0, 64, 0
2, 147303, Control_c, 0, 64, 127
2, 147472, Note_on_c, 0, 69, 24
2, 147472, Note_on_c, 0, 65, 27
2, 147473, Note_on_c, 0, 63, 24
2, 147475, Note_on_c, 0, 77, 48
2, 147476, Note_off_c, 0, 41, 64
2, 147519, Note_off_c, 0, 75, 64
2, 147540, Note_off_c, 0, 69, 64
2, 147548, Note_off_c, 0, 65, 64
2, 147551, Note_off_c, 0, 63, 64
2, 147580, Note_on_c, 0, 72, 51
2, 147594, Note_off_c, 0, 77, 64
2, 147666, Note_on_c, 0, 75, 51
2, 147677, Note_on_c, 0, 63, 24
2, 147679, Note_on_c, 0, 65, 24
2, 147684, Note_on_c, 0, 57, 22
2, 147689, Note_off_c, 0, 72, 64
2, 147750, Note_off_c, 0, 57, 64
2, 147752, Note_off_c, 0, 63, 64
2, 147753, Note_off_c, 0, 65, 64
2, 147759, Note_on_c, 0, 73, 47
2, 147774, Note_off_c, 0, 75, 64
2, 147866, Note_on_c, 0, 70, 39
2, 147868, Note_on_c, 0, 46, 28
2, 147879, Control_c, 0, 64, 0
2, 147884, Note_off_c, 0, 73, 64
2, 147922, Control_c, 0, 64, 127
2, 148059, Note_on_c, 0, 65, 24
2, 148065, Note_on_c, 0, 61, 19
2, 148070, Note_on_c, 0, 58, 20
2, 148107, Note_off_c, 0, 46, 64
2, 148130, Note_off_c, 0, 58, 64
2, 148137, Note_off_c, 0, 61, 64
2, 148137, Note_off_c, 0, 65, 64
2, 148253, Note_on_c, 0, 61, 23
2, 148261, Note_on_c, 0, 58, 24
2, 148269, Note_on_c, 0, 53, 24
2, 148314, Note_off_c, 0, 58, 64
2, 148315, Note_off_c, 0, 61, 64
2, 148320, Note_off_c, 0, 53, 64
2, 148459, Note_on_c, 0, 48, 24
2, 148463, Note_on_c, 0, 67, 30
2, 148485, Control_c, 0, 64, 0
2, 148504, Note_off_c, 0, 70, 64
2, 148514, Control_c, 0, 64, 127
2, 148691, Note_on_c, 0, 64, 24
2, 148692, Note_on_c, 0, 58, 24
2, 148696, Note_on_c, 0, 60, 24
2, 148698, Note_off_c, 0, 48, 64
2, 148779, Note_off_c, 0, 58, 64
2, 148779, Note_off_c, 0, 64, 64
2, 148781, Note_off_c, 0, 60, 64
2, 148920, Note_on_c, 0, 60, 19
2, 148924, Note_on_c, 0, 58, 20
2, 148930, Note_on_c, 0, 55, 20
2, 148998, Note_off_c, 0, 60, 64
2, 149012, Note_off_c, 0, 55, 64
2, 149018, Note_off_c, 0, 58, 64
2, 149094, Note_off_c, 0, 67, 64
2, 149220, Note_on_c, 0, 41, 46
2, 149233, Control_c, 0, 64, 127
2, 149296, Note_on_c, 0, 48, 21
2, 149334, Note_off_c, 0, 41, 64
2, 149363, Note_on_c, 0, 72, 55
2, 149364, Note_off_c, 0, 48, 64
2, 149367, Note_on_c, 0, 56, 35
2, 149407, Note_off_c, 0, 56, 64
2, 149455, Note_on_c, 0, 53, 41
2, 149520, Note_on_c, 0, 77, 35
2, 149523, Note_on_c, 0, 60, 29
2, 149581, Note_off_c, 0, 53, 64
2, 149586, Note_off_c, 0, 60, 64
2, 149606, Note_on_c, 0, 68, 30
2, 149680, Control_c, 0, 64, 0
2, 149686, Note_off_c, 0, 72, 64
2, 149692, Note_on_c, 0, 41, 44
2, 149742, Control_c, 0, 64, 127
2, 149749, Note_on_c, 0, 49, 45
2, 149759, Note_off_c, 0, 77, 64
2, 149761, Note_off_c, 0, 68, 64
2, 149783, Note_on_c, 0, 76, 43
2, 149788, Note_off_c, 0, 41, 64
2, 149806, Note_off_c, 0, 49, 64
2, 149810, Note_on_c, 0, 55, 32
2, 149833, Note_on_c, 0, 69, 43
2, 149834, Note_off_c, 0, 55, 64
2, 149838, Note_off_c, 0, 76, 64
2, 149872, Note_on_c, 0, 70, 54
2, 149877, Note_off_c, 0, 69, 64
2, 149906, Note_on_c, 0, 52, 25
2, 149921, Note_off_c, 0, 70, 64
2, 149927, Note_on_c, 0, 71, 28
2, 149965, Note_on_c, 0, 61, 30
2, 149967, Note_off_c, 0, 71, 64
2, 149969, Note_on_c, 0, 72, 45
2, 150002, Note_on_c, 0, 75, 46
2, 150011, Note_off_c, 0, 72, 64
2, 150030, Note_off_c, 0, 52, 64
2, 150031, Note_on_c, 0, 67, 47
2, 150043, Note_off_c, 0, 61, 64
2, 150051, Note_off_c, 0, 67, 64
2, 150056, Note_on_c, 0, 73, 55
2, 150064, Note_off_c, 0, 75, 64
2, 150083, Note_off_c, 0, 73, 64
2, 150146, Note_on_c, 0, 41, 52
2, 150159, Control_c, 0, 64, 0
2, 150197, Control_c, 0, 64, 127
2, 150215, Note_on_c, 0, 48, 49
2, 150248, Note_on_c, 0, 72, 53
2, 150276, Note_off_c, 0, 41, 64
2, 150285, Note_off_c, 0, 48, 64
2, 150288, Note_on_c, 0, 56, 41
2, 150308, Note_on_c, 0, 73, 55
2, 150312, Note_off_c, 0, 56, 64
2, 150319, Note_off_c, 0, 72, 64
2, 150348, Note_off_c, 0, 73, 64
2, 150350, Note_on_c, 0, 71, 40
2, 150362, Note_on_c, 0, 53, 42
2, 150389, Note_on_c, 0, 72, 52
2, 150403, Note_off_c, 0, 71, 64
2, 150404, Note_on_c, 0, 60, 45
2, 150418, Note_off_c, 0, 53, 64
2, 150432, Note_on_c, 0, 80, 49
2, 150441, Note_off_c, 0, 72, 64
2, 150484, Note_off_c, 0, 60, 64
2, 150485, Note_off_c, 0, 80, 64
2, 150485, Note_on_c, 0, 79, 55
2, 150485, Note_on_c, 0, 68, 35
2, 150503, Note_off_c, 0, 68, 64
2, 150525, Note_on_c, 0, 77, 50
2, 150529, Note_off_c, 0, 79, 64
2, 150550, Note_off_c, 0, 77, 64
2, 150588, Note_on_c, 0, 77, 49
2, 150590, Note_on_c, 0, 41, 49
2, 150608, Control_c, 0, 64, 0
2, 150642, Control_c, 0, 64, 127
2, 150657, Note_on_c, 0, 76, 42
2, 150660, Note_off_c, 0, 77, 64
2, 150665, Note_on_c, 0, 49, 36
2, 150681, Note_off_c, 0, 76, 64
2, 150699, Note_off_c, 0, 41, 64
2, 150715, Note_on_c, 0, 55, 38
2, 150720, Note_off_c, 0, 49, 64
2, 150737, Note_on_c, 0, 69, 49
2, 150741, Note_off_c, 0, 55, 64
2, 150775, Note_on_c, 0, 70, 52
2, 150779, Note_off_c, 0, 69, 64
2, 150791, Note_on_c, 0, 52, 47
2, 150816, Note_off_c, 0, 70, 64
2, 150824, Note_on_c, 0, 71, 43
2, 150858, Note_on_c, 0, 72, 55
2, 150861, Note_on_c, 0, 61, 47
2, 150865, Note_off_c, 0, 71, 64
2, 150899, Note_on_c, 0, 75, 49
2, 150906, Note_off_c, 0, 72, 64
2, 150923, Note_on_c, 0, 67, 38
2, 150925, Note_off_c, 0, 52, 64
2, 150933, Note_off_c, 0, 61, 64
2, 150944, Note_off_c, 0, 67, 64
2, 150951, Note_on_c, 0, 73, 37
2, 150965, Note_off_c, 0, 75, 64
2, 150978, Note_off_c, 0, 73, 64
2, 151020, Note_on_c, 0, 41, 52
2, 151029, Control_c, 0, 64, 0
2, 151069, Control_c, 0, 64, 127
2, 151092, Note_on_c, 0, 48, 30
2, 151161, Note_on_c, 0, 72, 42
2, 151162, Note_on_c, 0, 56, 44
2, 151167, Note_off_c, 0, 48, 64
2, 151179, Note_off_c, 0, 41, 64
2, 151206, Note_off_c, 0, 56, 64
2, 151217, Note_on_c, 0, 73, 45
2, 151224, Note_off_c, 0, 72, 64
2, 151242, Note_on_c, 0, 40, 55
2, 151280, Note_on_c, 0, 72, 55
2, 151292, Note_off_c, 0, 73, 64
2, 151308, Note_on_c, 0, 48, 36
2, 151322, Note_off_c, 0, 40, 64
2, 151330, Note_on_c, 0, 71, 49
2, 151332, Note_off_c, 0, 72, 64
2, 151350, Note_on_c, 0, 56, 54
2, 151356, Note_off_c, 0, 48, 64
2, 151372, Note_on_c, 0, 72, 55
2, 151386, Note_off_c, 0, 71, 64
2, 151396, Note_off_c, 0, 56, 64
2, 151407, Note_on_c, 0, 73, 61
2, 151418, Note_off_c, 0, 72, 64
2, 151435, Note_on_c, 0, 39, 55
2, 151440, Control_c, 0, 64, 0
2, 151443, Note_off_c, 0, 73, 64
2, 151454, Note_on_c, 0, 74, 60
2, 151476, Control_c, 0, 64, 127
2, 151500, Note_on_c, 0, 75, 52
2, 151507, Note_on_c, 0, 48, 43
2, 151516, Note_off_c, 0, 74, 64
2, 151532, Note_off_c, 0, 39, 64
2, 151547, Note_on_c, 0, 84, 54
2, 151551, Note_off_c, 0, 75, 64
2, 151563, Note_off_c, 0, 48, 64
2, 151566, Note_on_c, 0, 56, 49
2, 151587, Note_on_c, 0, 79, 45
2, 151592, Note_off_c, 0, 56, 64
2, 151614, Note_off_c, 0, 84, 64
2, 151625, Note_off_c, 0, 79, 64
2, 151628, Note_on_c, 0, 82, 55
2, 151632, Note_on_c, 0, 51, 38
2, 151667, Note_on_c, 0, 80, 55
2, 151674, Note_on_c, 0, 60, 50
2, 151678, Note_off_c, 0, 51, 64
2, 151680, Note_off_c, 0, 82, 64
2, 151705, Note_off_c, 0, 80, 64
2, 151707, Note_on_c, 0, 72, 51
2, 151726, Note_off_c, 0, 60, 64
2, 151727, Note_on_c, 0, 68, 22
2, 151742, Note_on_c, 0, 73, 54
2, 151743, Note_off_c, 0, 68, 64
2, 151746, Note_off_c, 0, 72, 64
2, 151780, Note_on_c, 0, 74, 32
2, 151784, Note_off_c, 0, 73, 64
2, 151815, Note_on_c, 0, 75, 42
2, 151818, Note_off_c, 0, 74, 64
2, 151828, Note_on_c, 0, 39, 52
2, 151844, Control_c, 0, 64, 0
2, 151849, Note_on_c, 0, 76, 55
2, 151859, Note_off_c, 0, 75, 64
2, 151875, Control_c, 0, 64, 127
2, 151886, Note_on_c, 0, 79, 38
2, 151898, Note_on_c, 0, 49, 51
2, 151900, Note_off_c, 0, 76, 64
2, 151916, Note_on_c, 0, 77, 50
2, 151920, Note_off_c, 0, 79, 64
2, 151947, Note_off_c, 0, 39, 64
2, 151947, Note_off_c, 0, 49, 64
2, 151947, Note_on_c, 0, 55, 45
2, 151950, Note_on_c, 0, 75, 61
2, 151957, Note_off_c, 0, 77, 64
2, 151980, Note_on_c, 0, 72, 50
2, 151981, Note_off_c, 0, 55, 64
2, 151984, Note_off_c, 0, 75, 64
2, 152012, Note_on_c, 0, 51, 42
2, 152023, Note_on_c, 0, 75, 49
2, 152026, Note_off_c, 0, 72, 64
2, 152053, Note_on_c, 0, 73, 43
2, 152061, Note_on_c, 0, 61, 49
2, 152063, Note_off_c, 0, 75, 64
2, 152075, Note_off_c, 0, 51, 64
2, 152089, Note_off_c, 0, 61, 64
2, 152090, Note_off_c, 0, 73, 64
2, 152093, Note_on_c, 0, 65, 36
2, 152132, Note_off_c, 0, 65, 64
2, 152133, Note_on_c, 0, 67, 46
2, 152142, Note_on_c, 0, 70, 65
2, 152162, Note_off_c, 0, 70, 64
2, 152177, Note_off_c, 0, 67, 64
2, 152179, Note_on_c, 0, 63, 61
2, 152234, Note_on_c, 0, 68, 54
2, 152236, Note_on_c, 0, 44, 55
2, 152243, Note_off_c, 0, 63, 64
2, 152256, Control_c, 0, 64, 0
2, 152290, Control_c, 0, 64, 127
2, 152314, Note_on_c, 0, 51, 54
2, 152380, Note_on_c, 0, 60, 51
2, 152387, Note_off_c, 0, 51, 64
2, 152408, Note_off_c, 0, 68, 64
2, 152451, Note_on_c, 0, 51, 49
2, 152501, Note_off_c, 0, 60, 64
2, 152527, Note_on_c, 0, 60, 54
2, 152566, Note_off_c, 0, 44, 64
2, 152578, Note_off_c, 0, 51, 64
2, 152589, Note_on_c, 0, 68, 50
2, 152663, Note_on_c, 0, 44, 61
2, 152663, Control_c, 0, 64, 0
2, 152703, Control_c, 0, 64, 127
2, 152728, Note_off_c, 0, 60, 64
2, 152730, Note_off_c, 0, 68, 64
2, 152734, Note_on_c, 0, 52, 60
2, 152802, Note_on_c, 0, 60, 52
2, 152820, Note_off_c, 0, 52, 64
2, 152871, Note_on_c, 0, 52, 54
2, 152900, Note_off_c, 0, 60, 64
2, 152929, Note_off_c, 0, 52, 64
2, 152941, Note_off_c, 0, 44, 64
2, 152945, Note_on_c, 0, 60, 43
2, 153023, Note_on_c, 0, 68, 42
2, 153039, Note_off_c, 0, 60, 64
2, 153080, Note_off_c, 0, 68, 64
2, 153099, Control_c, 0, 64, 0
2, 153108, Note_on_c, 0, 32, 80
2, 153119, Control_c, 0, 64, 127
2, 153145, Note_off_c, 0, 32, 64
2, 153193, Note_on_c, 0, 51, 62
2, 153256, Note_on_c, 0, 75, 68
2, 153259, Note_off_c, 0, 51, 64
2, 153262, Note_on_c, 0, 60, 57
2, 153322, Note_on_c, 0, 51, 62
2, 153324, Note_off_c, 0, 60, 64
2, 153381, Note_on_c, 0, 60, 59
2, 153395, Note_on_c, 0, 80, 64
2, 153400, Note_off_c, 0, 51, 64
2, 153407, Note_off_c, 0, 60, 64
2, 153459, Note_on_c, 0, 68, 52
2, 153482, Note_off_c, 0, 75, 64
2, 153520, Note_off_c, 0, 68, 64
2, 153532, Note_on_c, 0, 44, 64
2, 153551, Control_c, 0, 64, 0
2, 153562, Note_off_c, 0, 80, 64
2, 153570, Note_on_c, 0, 79, 58
2, 153582, Control_c, 0, 64, 127
2, 153595, Note_on_c, 0, 52, 56
2, 153626, Note_off_c, 0, 44, 64
2, 153626, Note_on_c, 0, 71, 49
2, 153655, Note_off_c, 0, 52, 64
2, 153661, Note_off_c, 0, 79, 64
2, 153668, Note_on_c, 0, 61, 24
2, 153671, Note_on_c, 0, 72, 62
2, 153679, Note_off_c, 0, 71, 64
2, 153697, Note_off_c, 0, 61, 64
2, 153713, Note_on_c, 0, 73, 60
2, 153726, Note_off_c, 0, 72, 64
2, 153739, Note_on_c, 0, 58, 51
2, 153753, Note_off_c, 0, 73, 64
2, 153758, Note_on_c, 0, 74, 56
2, 153803, Note_on_c, 0, 75, 57
2, 153807, Note_on_c, 0, 67, 53
2, 153819, Note_off_c, 0, 74, 64
2, 153849, Note_on_c, 0, 78, 58
2, 153861, Note_off_c, 0, 75, 64
2, 153878, Note_off_c, 0, 58, 64
2, 153881, Note_on_c, 0, 73, 59
2, 153885, Note_off_c, 0, 67, 64
2, 153897, Note_off_c, 0, 73, 64
2, 153905, Note_on_c, 0, 76, 56
2, 153922, Note_off_c, 0, 78, 64
2, 153958, Note_off_c, 0, 76, 64
2, 153977, Note_on_c, 0, 44, 67
2, 153984, Control_c, 0, 64, 0
2, 154023, Control_c, 0, 64, 127
2, 154042, Note_on_c, 0, 51, 62
2, 154058, Note_off_c, 0, 44, 64
2, 154065, Note_on_c, 0, 75, 55
2, 154106, Note_on_c, 0, 77, 56
2, 154110, Note_on_c, 0, 60, 30
2, 154111, Note_off_c, 0, 51, 64
2, 154116, Note_off_c, 0, 75, 64
2, 154137, Note_off_c, 0, 60, 64
2, 154149, Note_off_c, 0, 77, 64
2, 154149, Note_on_c, 0, 74, 48
2, 154172, Note_on_c, 0, 56, 52
2, 154185, Note_on_c, 0, 75, 55
2, 154203, Note_off_c, 0, 74, 64
2, 154227, Note_on_c, 0, 84, 57
2, 154230, Note_off_c, 0, 75, 64
2, 154232, Note_on_c, 0, 63, 60
2, 154249, Note_off_c, 0, 56, 64
2, 154269, Note_on_c, 0, 82, 58
2, 154277, Note_off_c, 0, 84, 64
2, 154299, Note_on_c, 0, 72, 47
2, 154309, Note_off_c, 0, 63, 64
2, 154312, Note_off_c, 0, 82, 64
2, 154313, Note_on_c, 0, 81, 73
2, 154318, Note_off_c, 0, 72, 64
2, 154350, Note_off_c, 0, 81, 64
2, 154381, Note_on_c, 0, 44, 55
2, 154384, Note_on_c, 0, 80, 69
2, 154400, Control_c, 0, 64, 0
2, 154434, Control_c, 0, 64, 127
2, 154436, Note_on_c, 0, 79, 63
2, 154450, Note_off_c, 0, 80, 64
2, 154455, Note_on_c, 0, 51, 27
2, 154470, Note_off_c, 0, 44, 64
2, 154473, Note_off_c, 0, 79, 64
2, 154479, Note_on_c, 0, 71, 59
2, 154515, Note_on_c, 0, 61, 62
2, 154518, Note_off_c, 0, 51, 64
2, 154526, Note_on_c, 0, 72, 56
2, 154533, Note_off_c, 0, 71, 64
2, 154544, Note_off_c, 0, 61, 64
2, 154561, Note_on_c, 0, 73, 62
2, 154574, Note_off_c, 0, 72, 64
2, 154582, Note_on_c, 0, 58, 54
2, 154595, Note_off_c, 0, 73, 64
2, 154600, Note_on_c, 0, 74, 51
2, 154635, Note_on_c, 0, 75, 62
2, 154642, Note_on_c, 0, 67, 46
2, 154658, Note_off_c, 0, 74, 64
2, 154677, Note_on_c, 0, 78, 61
2, 154684, Note_off_c, 0, 58, 64
2, 154687, Note_off_c, 0, 75, 64
2, 154689, Note_on_c, 0, 73, 59
2, 154692, Note_off_c, 0, 67, 64
2, 154704, Note_off_c, 0, 73, 64
2, 154726, Note_on_c, 0, 76, 49
2, 154746, Note_off_c, 0, 78, 64
2, 154760, Note_off_c, 0, 76, 64
2, 154782, Note_on_c, 0, 44, 67
2, 154786, Control_c, 0, 64, 0
2, 154824, Control_c, 0, 64, 127
2, 154847, Note_on_c, 0, 51, 62
2, 154866, Note_off_c, 0, 44, 64
2, 154903, Note_on_c, 0, 75, 59
2, 154908, Note_on_c, 0, 60, 36
2, 154911, Note_off_c, 0, 51, 64
2, 154938, Note_off_c, 0, 60, 64
2, 154954, Note_on_c, 0, 77, 59
2, 154962, Note_off_c, 0, 75, 64
2, 154980, Note_on_c, 0, 56, 38
2, 154999, Note_on_c, 0, 75, 67
2, 155010, Note_off_c, 0, 77, 64
2, 155045, Note_on_c, 0, 74, 50
2, 155048, Note_off_c, 0, 75, 64
2, 155048, Note_on_c, 0, 63, 56
2, 155071, Note_off_c, 0, 56, 64
2, 155085, Note_on_c, 0, 75, 69
2, 155086, Note_off_c, 0, 74, 64
2, 155110, Note_on_c, 0, 72, 48
2, 155115, Note_off_c, 0, 75, 64
2, 155122, Note_off_c, 0, 63, 64
2, 155124, Note_off_c, 0, 72, 64
2, 155130, Note_on_c, 0, 77, 69
2, 155156, Note_off_c, 0, 77, 64
2, 155206, Note_on_c, 0, 78, 71
2, 155209, Note_on_c, 0, 39, 69
2, 155220, Control_c, 0, 64, 0
2, 155254, Control_c, 0, 64, 127
2, 155270, Note_on_c, 0, 90, 55
2, 155292, Note_off_c, 0, 78, 64
2, 155312, Note_on_c, 0, 46, 53
2, 155327, Note_on_c, 0, 89, 56
2, 155331, Note_off_c, 0, 39, 64
2, 155332, Note_off_c, 0, 90, 64
2, 155376, Note_on_c, 0, 88, 58
2, 155384, Note_off_c, 0, 89, 64
2, 155385, Note_off_c, 0, 46, 64
2, 155393, Note_on_c, 0, 54, 59
2, 155415, Note_off_c, 0, 54, 64
2, 155419, Note_on_c, 0, 87, 62
2, 155436, Note_off_c, 0, 88, 64
2, 155451, Note_on_c, 0, 51, 49
2, 155456, Note_on_c, 0, 85, 46
2, 155472, Note_off_c, 0, 87, 64
2, 155497, Note_off_c, 0, 85, 64
2, 155497, Note_on_c, 0, 58, 53
2, 155499, Note_on_c, 0, 84, 58
2, 155517, Note_off_c, 0, 51, 64
2, 155540, Note_on_c, 0, 82, 61
2, 155542, Note_off_c, 0, 84, 64
2, 155553, Note_on_c, 0, 66, 36
2, 155554, Note_off_c, 0, 58, 64
2, 155556, Note_on_c, 0, 68, 42
2, 155563, Note_off_c, 0, 68, 64
2, 155565, Note_off_c, 0, 66, 64
2, 155576, Note_on_c, 0, 80, 57
2, 155586, Note_off_c, 0, 82, 64
2, 155610, Note_on_c, 0, 78, 58
2, 155623, Note_off_c, 0, 80, 64
2, 155627, Note_on_c, 0, 41, 58
2, 155638, Control_c, 0, 64, 0
2, 155651, Note_off_c, 0, 78, 64
2, 155651, Note_on_c, 0, 77, 62
2, 155683, Note_on_c, 0, 48, 59
2, 155690, Note_on_c, 0, 76, 63
2, 155692, Control_c, 0, 64, 127
2, 155698, Note_off_c, 0, 77, 64
2, 155720, Note_off_c, 0, 41, 64
2, 155731, Note_on_c, 0, 75, 63
2, 155733, Note_on_c, 0, 57, 30
2, 155738, Note_off_c, 0, 48, 64
2, 155740, Note_off_c, 0, 76, 64
2, 155757, Note_off_c, 0, 57, 64
2, 155765, Note_off_c, 0, 75, 64
2, 155768, Note_on_c, 0, 73, 74
2, 155789, Note_on_c, 0, 53, 62
2, 155807, Note_on_c, 0, 71, 64
2, 155808, Note_off_c, 0, 73, 64
2, 155842, Note_on_c, 0, 63, 51
2, 155849, Note_on_c, 0, 72, 57
2, 155852, Note_off_c, 0, 71, 64
2, 155894, Note_on_c, 0, 69, 58
2, 155896, Note_on_c, 0, 75, 62
2, 155910, Note_off_c, 0, 69, 64
2, 155911, Note_off_c, 0, 72, 64
2, 155913, Note_off_c, 0, 63, 64
2, 155918, Note_off_c, 0, 53, 64
2, 155933, Note_on_c, 0, 73, 59
2, 155940, Note_on_c, 0, 34, 68
2, 155945, Note_off_c, 0, 75, 64
2, 155972, Control_c, 0, 64, 0
2, 155978, Note_on_c, 0, 72, 64
2, 155985, Note_off_c, 0, 73, 64
2, 156008, Control_c, 0, 64, 127
2, 156015, Note_off_c, 0, 34, 64
2, 156041, Note_on_c, 0, 41, 49
2, 156073, Note_on_c, 0, 70, 60
2, 156084, Note_off_c, 0, 72, 64
2, 156102, Note_off_c, 0, 41, 64
2, 156104, Note_on_c, 0, 49, 68
2, 156124, Note_off_c, 0, 49, 64
2, 156167, Note_on_c, 0, 46, 51
2, 156228, Note_on_c, 0, 53, 61
2, 156231, Note_off_c, 0, 46, 64
2, 156290, Note_off_c, 0, 53, 64
2, 156291, Note_on_c, 0, 61, 49
2, 156310, Note_off_c, 0, 61, 64
2, 156355, Note_off_c, 0, 70, 64
2, 156375, Note_on_c, 0, 42, 74
2, 156387, Control_c, 0, 64, 0
2, 156432, Control_c, 0, 64, 127
2, 156457, Note_on_c, 0, 49, 49
2, 156500, Note_off_c, 0, 42, 64
2, 156531, Note_off_c, 0, 49, 64
2, 156533, Note_on_c, 0, 73, 58
2, 156533, Note_on_c, 0, 58, 30
2, 156563, Note_off_c, 0, 58, 64
2, 156597, Note_on_c, 0, 54, 10
2, 156602, Note_on_c, 0, 75, 42
2, 156609, Note_off_c, 0, 73, 64
2, 156642, Note_on_c, 0, 73, 57
2, 156654, Note_off_c, 0, 75, 64
2, 156670, Note_on_c, 0, 61, 47
2, 156684, Note_off_c, 0, 54, 64
2, 156688, Note_off_c, 0, 73, 64
2, 156688, Note_on_c, 0, 72, 62
2, 156733, Note_on_c, 0, 73, 54
2, 156735, Note_off_c, 0, 61, 64
2, 156738, Note_on_c, 0, 70, 53
2, 156749, Note_off_c, 0, 70, 64
2, 156753, Note_off_c, 0, 72, 64
2, 156782, Note_on_c, 0, 75, 57
2, 156793, Note_off_c, 0, 73, 64
2, 156802, Note_off_c, 0, 75, 64
2, 156844, Note_on_c, 0, 37, 62
2, 156848, Note_on_c, 0, 77, 47
2, 156863, Control_c, 0, 64, 0
2, 156903, Control_c, 0, 64, 127
2, 156906, Note_on_c, 0, 89, 60
2, 156927, Note_on_c, 0, 44, 56
2, 156946, Note_off_c, 0, 37, 64
2, 156948, Note_on_c, 0, 84, 61
2, 156989, Note_off_c, 0, 44, 64
2, 156992, Note_on_c, 0, 53, 3
2, 156999, Note_on_c, 0, 87, 61
2, 157002, Note_off_c, 0, 84, 64
2, 157016, Note_off_c, 0, 89, 64
2, 157024, Note_off_c, 0, 77, 64
2, 157026, Note_off_c, 0, 53, 64
2, 157047, Note_on_c, 0, 85, 42
2, 157056, Note_on_c, 0, 49, 41
2, 157062, Note_off_c, 0, 87, 64
2, 157079, Note_on_c, 0, 80, 57
2, 157093, Note_off_c, 0, 85, 64
2, 157115, Note_on_c, 0, 77, 67
2, 157120, Note_on_c, 0, 56, 49
2, 157122, Note_off_c, 0, 80, 64
2, 157133, Note_off_c, 0, 49, 64
2, 157143, Note_off_c, 0, 77, 64
2, 157155, Note_on_c, 0, 75, 69
2, 157165, Note_on_c, 0, 65, 41
2, 157180, Note_off_c, 0, 65, 64
2, 157184, Note_off_c, 0, 56, 64
2, 157199, Note_on_c, 0, 73, 61
2, 157204, Note_off_c, 0, 75, 64
2, 157237, Control_c, 0, 64, 0
2, 157241, Note_on_c, 0, 71, 58
2, 157244, Note_on_c, 0, 39, 62
2, 157246, Note_off_c, 0, 73, 64
2, 157270, Control_c, 0, 64, 127
2, 157294, Note_on_c, 0, 73, 67
2, 157295, Note_off_c, 0, 71, 64
2, 157308, Note_on_c, 0, 42, 43
2, 157314, Note_on_c, 0, 71, 59
2, 157316, Note_off_c, 0, 73, 64
2, 157320, Note_off_c, 0, 39, 64
2, 157338, Note_on_c, 0, 73, 74
2, 157340, Note_off_c, 0, 71, 64
2, 157351, Note_on_c, 0, 54, 54
2, 157354, Note_on_c, 0, 71, 67
2, 157358, Note_off_c, 0, 73, 64
2, 157362, Note_off_c, 0, 42, 64
2, 157374, Note_on_c, 0, 70, 67
2, 157380, Note_off_c, 0, 71, 64
2, 157391, Control_c, 0, 64, 0
2, 157392, Note_off_c, 0, 54, 64
2, 157402, Note_on_c, 0, 71, 64
2, 157404, Note_on_c, 0, 40, 82
2, 157415, Note_off_c, 0, 70, 64
2, 157419, Control_c, 0, 64, 127
2, 157437, Note_on_c, 0, 73, 57
2, 157453, Note_off_c, 0, 71, 64
2, 157457, Note_on_c, 0, 49, 52
2, 157468, Note_on_c, 0, 75, 53
2, 157476, Note_off_c, 0, 40, 64
2, 157480, Note_off_c, 0, 73, 64
2, 157502, Note_on_c, 0, 55, 50
2, 157507, Note_on_c, 0, 69, 71
2, 157512, Note_off_c, 0, 49, 64
2, 157517, Note_off_c, 0, 75, 64
2, 157537, Note_on_c, 0, 72, 62
2, 157554, Note_off_c, 0, 69, 64
2, 157566, Note_on_c, 0, 70, 56
2, 157571, Note_off_c, 0, 55, 64
2, 157578, Note_off_c, 0, 72, 64
2, 157594, Control_c, 0, 64, 0
2, 157597, Note_on_c, 0, 41, 61
2, 157601, Note_off_c, 0, 70, 64
2, 157608, Note_on_c, 0, 69, 77
2, 157634, Control_c, 0, 64, 127
2, 157641, Note_on_c, 0, 72, 60
2, 157662, Note_off_c, 0, 69, 64
2, 157668, Note_on_c, 0, 48, 55
2, 157679, Note_on_c, 0, 76, 50
2, 157686, Note_off_c, 0, 41, 64
2, 157702, Note_off_c, 0, 72, 64
2, 157713, Note_on_c, 0, 78, 49
2, 157717, Note_off_c, 0, 48, 64
2, 157718, Note_on_c, 0, 57, 26
2, 157725, Note_off_c, 0, 76, 64
2, 157732, Note_off_c, 0, 78, 64
2, 157739, Note_off_c, 0, 57, 64
2, 157754, Note_on_c, 0, 77, 70
2, 157774, Note_on_c, 0, 53, 49
2, 157793, Note_on_c, 0, 81, 61
2, 157805, Note_off_c, 0, 77, 64
2, 157814, Note_on_c, 0, 60, 60
2, 157827, Note_on_c, 0, 84, 63
2, 157831, Note_off_c, 0, 53, 64
2, 157841, Note_off_c, 0, 81, 64
2, 157857, Note_off_c, 0, 84, 64
2, 157859, Note_on_c, 0, 77, 70
2, 157861, Note_on_c, 0, 69, 66
2, 157865, Note_off_c, 0, 60, 64
2, 157875, Note_off_c, 0, 69, 64
2, 157894, Note_on_c, 0, 89, 67
2, 157928, Note_on_c, 0, 88, 62
2, 157930, Note_off_c, 0, 77, 64
2, 157932, Note_on_c, 0, 41, 58
2, 157932, Control_c, 0, 64, 0
2, 157938, Note_off_c, 0, 89, 64
2, 157962, Note_on_c, 0, 84, 63
2, 157970, Note_off_c, 0, 88, 64
2, 157970, Control_c, 0, 64, 127
2, 157974, Note_on_c, 0, 49, 66
2, 158000, Note_off_c, 0, 41, 64
2, 158001, Note_off_c, 0, 84, 64
2, 158001, Note_on_c, 0, 87, 79
2, 158012, Note_on_c, 0, 58, 42
2, 158020, Note_off_c, 0, 49, 64
2, 158028, Note_on_c, 0, 85, 78
2, 158039, Note_off_c, 0, 58, 64
2, 158040, Note_off_c, 0, 87, 64
2, 158054, Note_on_c, 0, 82, 68
2, 158065, Note_off_c, 0, 85, 64
2, 158077, Note_on_c, 0, 52, 43
2, 158081, Note_on_c, 0, 79, 75
2, 158082, Note_on_c, 0, 53, 42
2, 158084, Note_off_c, 0, 82, 64
2, 158100, Note_off_c, 0, 79, 64
2, 158102, Note_off_c, 0, 53, 64
2, 158112, Note_on_c, 0, 76, 61
2, 158123, Note_on_c, 0, 61, 24
2, 158136, Note_off_c, 0, 52, 64
2, 158145, Note_on_c, 0, 73, 59
2, 158145, Note_on_c, 0, 67, 4
2, 158152, Note_off_c, 0, 76, 64
2, 158157, Note_off_c, 0, 61, 64
2, 158160, Note_off_c, 0, 67, 64
2, 158167, Note_on_c, 0, 70, 52
2, 158179, Note_off_c, 0, 73, 64
2, 158197, Note_off_c, 0, 70, 64
2, 158202, Note_on_c, 0, 69, 56
2, 158209, Note_on_c, 0, 41, 67
2, 158214, Control_c, 0, 64, 0
2, 158234, Note_on_c, 0, 72, 67
2, 158247, Note_off_c, 0, 69, 64
2, 158253, Note_on_c, 0, 48, 68
2, 158255, Control_c, 0, 64, 127
2, 158269, Note_on_c, 0, 76, 67
2, 158280, Note_off_c, 0, 41, 64
2, 158287, Note_off_c, 0, 72, 64
2, 158294, Note_off_c, 0, 48, 64
2, 158298, Note_on_c, 0, 57, 67
2, 158300, Note_on_c, 0, 78, 67
2, 158307, Note_off_c, 0, 76, 64
2, 158310, Note_off_c, 0, 78, 64
2, 158318, Note_off_c, 0, 57, 64
2, 158321, Note_on_c, 0, 77, 83
2, 158352, Note_on_c, 0, 81, 67
2, 158355, Note_on_c, 0, 53, 56
2, 158364, Note_off_c, 0, 77, 64
2, 158381, Note_on_c, 0, 84, 69
2, 158390, Note_off_c, 0, 81, 64
2, 158391, Note_on_c, 0, 60, 42
2, 158398, Note_on_c, 0, 77, 67
2, 158402, Note_off_c, 0, 53, 64
2, 158412, Note_off_c, 0, 84, 64
2, 158424, Note_on_c, 0, 101, 67
2, 158424, Note_on_c, 0, 69, 55
2, 158430, Note_off_c, 0, 60, 64
2, 158448, Note_off_c, 0, 77, 64
2, 158451, Note_off_c, 0, 69, 64
2, 158456, Note_on_c, 0, 100, 92
2, 158458, Control_c, 0, 64, 0
2, 158462, Note_off_c, 0, 101, 64
2, 158472, Note_on_c, 0, 53, 62
2, 158484, Note_on_c, 0, 96, 53
2, 158485, Note_off_c, 0, 100, 64
2, 158492, Control_c, 0, 64, 127
2, 158504, Note_on_c, 0, 61, 77
2, 158508, Note_on_c, 0, 99, 74
2, 158514, Note_off_c, 0, 53, 64
2, 158517, Note_off_c, 0, 96, 64
2, 158531, Note_off_c, 0, 61, 64
2, 158533, Note_on_c, 0, 70, 92
2, 158541, Note_off_c, 0, 99, 64
2, 158548, Note_on_c, 0, 97, 92
2, 158553, Note_off_c, 0, 70, 64
2, 158579, Note_off_c, 0, 97, 64
2, 158580, Note_on_c, 0, 94, 37
2, 158583, Note_on_c, 0, 64, 73
2, 158606, Note_on_c, 0, 91, 60
2, 158610, Note_off_c, 0, 94, 64
2, 158616, Note_on_c, 0, 73, 78
2, 158618, Note_off_c, 0, 64, 64
2, 158620, Note_on_c, 0, 88, 62
2, 158640, Note_off_c, 0, 91, 64
2, 158647, Note_on_c, 0, 85, 73
2, 158654, Note_off_c, 0, 73, 64
2, 158654, Note_on_c, 0, 79, 43
2, 158662, Note_off_c, 0, 88, 64
2, 158670, Note_off_c, 0, 79, 64
2, 158673, Note_on_c, 0, 82, 62
2, 158684, Note_off_c, 0, 85, 64
2, 158694, Control_c, 0, 64, 0
2, 158704, Note_off_c, 0, 82, 64
2, 158704, Note_on_c, 0, 81, 74
2, 158704, Note_on_c, 0, 65, 29
2, 158706, Note_on_c, 0, 72, 73
2, 158730, Control_c, 0, 64, 127
2, 158732, Note_on_c, 0, 84, 53
2, 158738, Note_off_c, 0, 81, 64
2, 158760, Note_on_c, 0, 87, 59
2, 158764, Note_off_c, 0, 84, 64
2, 158783, Note_off_c, 0, 87, 64
2, 158787, Note_on_c, 0, 89, 63
2, 158814, Note_on_c, 0, 92, 55
2, 158817, Note_off_c, 0, 89, 64
2, 158828, Note_off_c, 0, 72, 64
2, 158828, Note_off_c, 0, 65, 64
2, 158837, Note_on_c, 0, 90, 67
2, 158848, Note_off_c, 0, 92, 64
2, 158860, Note_on_c, 0, 87, 62
2, 158870, Note_off_c, 0, 90, 64
2, 158886, Note_off_c, 0, 87, 64
2, 158889, Note_on_c, 0, 84, 73
2, 158901, Note_off_c, 0, 84, 64
2, 158917, Note_on_c, 0, 81, 65
2, 158942, Note_on_c, 0, 78, 49
2, 158954, Note_off_c, 0, 81, 64
2, 158968, Note_on_c, 0, 75, 60
2, 158976, Note_off_c, 0, 78, 64
2, 158994, Note_off_c, 0, 75, 64
2, 158995, Note_on_c, 0, 72, 74
2, 159022, Note_off_c, 0, 72, 64
2, 159025, Note_on_c, 0, 69, 67
2, 159027, Note_on_c, 0, 60, 57
2, 159049, Note_on_c, 0, 70, 67
2, 159052, Note_on_c, 0, 61, 47
2, 159057, Note_off_c, 0, 60, 64
2, 159059, Note_off_c, 0, 69, 64
2, 159073, Note_off_c, 0, 70, 64
2, 159075, Note_on_c, 0, 71, 64
2, 159078, Note_off_c, 0, 61, 64
2, 159078, Note_on_c, 0, 62, 58
2, 159104, Note_on_c, 0, 72, 64
2, 159105, Note_off_c, 0, 71, 64
2, 159107, Note_off_c, 0, 62, 64
2, 159107, Note_on_c, 0, 63, 67
2, 159126, Note_on_c, 0, 73, 60
2, 159134, Note_on_c, 0, 64, 69
2, 159139, Note_off_c, 0, 63, 64
2, 159143, Note_off_c, 0, 72, 64
2, 159154, Note_on_c, 0, 70, 71
2, 159161, Note_on_c, 0, 61, 56
2, 159162, Note_off_c, 0, 64, 64
2, 159165, Note_off_c, 0, 73, 64
2, 159181, Note_off_c, 0, 70, 64
2, 159185, Control_c, 0, 64, 0
2, 159191, Note_on_c, 0, 69, 73
2, 159194, Note_off_c, 0, 61, 64
2, 159195, Note_on_c, 0, 65, 67
2, 159203, Note_on_c, 0, 60, 57
2, 159218, Note_on_c, 0, 72, 61
2, 159219, Control_c, 0, 64, 127
2, 159226, Note_off_c, 0, 69, 64
2, 159244, Note_on_c, 0, 75, 62
2, 159252, Note_off_c, 0, 72, 64
2, 159261, Note_off_c, 0, 65, 64
2, 159268, Control_c, 0, 64, 0
2, 159271, Note_off_c, 0, 75, 64
2, 159276, Note_on_c, 0, 77, 58
2, 159276, Note_on_c, 0, 63, 54
2, 159280, Note_on_c, 0, 53, 58
2, 159301, Control_c, 0, 64, 127
2, 159305, Note_on_c, 0, 80, 43
2, 159307, Note_off_c, 0, 77, 64
2, 159321, Control_c, 0, 64, 0
2, 159328, Note_on_c, 0, 78, 71
2, 159333, Note_off_c, 0, 80, 64
2, 159351, Note_on_c, 0, 75, 52
2, 159354, Control_c, 0, 64, 127
2, 159359, Note_off_c, 0, 78, 64
2, 159364, Note_off_c, 0, 60, 64
2, 159366, Note_off_c, 0, 63, 64
2, 159377, Note_off_c, 0, 75, 64
2, 159378, Note_on_c, 0, 72, 73
2, 159387, Note_off_c, 0, 53, 64
2, 159390, Note_off_c, 0, 72, 64
2, 159404, Note_on_c, 0, 69, 67
2, 159427, Note_on_c, 0, 66, 64
2, 159435, Note_off_c, 0, 69, 64
2, 159453, Note_on_c, 0, 63, 67
2, 159462, Note_off_c, 0, 66, 64
2, 159483, Note_off_c, 0, 63, 64
2, 159484, Note_on_c, 0, 60, 74
2, 159515, Note_off_c, 0, 60, 64
2, 159517, Note_on_c, 0, 57, 74
2, 159518, Note_on_c, 0, 48, 69
2, 159535, Note_on_c, 0, 49, 68
2, 159543, Note_on_c, 0, 58, 73
2, 159545, Note_off_c, 0, 48, 64
2, 159551, Note_off_c, 0, 57, 64
2, 159561, Note_on_c, 0, 50, 67
2, 159563, Note_off_c, 0, 49, 64
2, 159564, Note_off_c, 0, 58, 64
2, 159566, Note_on_c, 0, 59, 73
2, 159578, Control_c, 0, 64, 0
2, 159588, Note_on_c, 0, 51, 76
2, 159592, Note_off_c, 0, 50, 64
2, 159593, Note_on_c, 0, 60, 79
2, 159596, Note_off_c, 0, 59, 64
2, 159618, Note_on_c, 0, 52, 83
2, 159619, Note_off_c, 0, 51, 64
2, 159620, Note_on_c, 0, 61, 80
2, 159626, Control_c, 0, 64, 127
2, 159633, Note_off_c, 0, 60, 64
2, 159644, Note_on_c, 0, 58, 87
2, 159646, Note_on_c, 0, 49, 36
2, 159650, Note_off_c, 0, 52, 64
2, 159651, Note_off_c, 0, 61, 64
2, 159663, Note_off_c, 0, 49, 64
2, 159667, Note_off_c, 0, 58, 64
2, 159672, Note_on_c, 0, 57, 83
2, 159677, Control_c, 0, 64, 0
2, 159685, Note_on_c, 0, 53, 81
2, 159685, Note_on_c, 0, 41, 61
2, 159689, Note_on_c, 0, 43, 67
2, 159699, Note_on_c, 0, 58, 66
2, 159712, Note_off_c, 0, 53, 64
2, 159717, Note_off_c, 0, 43, 64
2, 159717, Note_off_c, 0, 57, 64
2, 159730, Note_on_c, 0, 59, 65
2, 159740, Note_off_c, 0, 58, 64
2, 159757, Note_on_c, 0, 52, 74
2, 159761, Note_off_c, 0, 59, 64
2, 159761, Note_on_c, 0, 60, 36
2, 159761, Note_on_c, 0, 49, 67
2, 159787, Note_on_c, 0, 61, 86
2, 159796, Note_off_c, 0, 60, 64
2, 159811, Note_off_c, 0, 49, 64
2, 159811, Note_off_c, 0, 52, 64
2, 159813, Note_on_c, 0, 58, 67
2, 159818, Note_off_c, 0, 61, 64
2, 159835, Note_off_c, 0, 58, 64
2, 159839, Note_on_c, 0, 57, 73
2, 159847, Note_on_c, 0, 48, 67
2, 159849, Note_on_c, 0, 53, 67
2, 159864, Note_on_c, 0, 58, 48
2, 159883, Note_on_c, 0, 59, 58
2, 159887, Note_off_c, 0, 57, 64
2, 159892, Note_off_c, 0, 53, 64
2, 159895, Note_off_c, 0, 48, 64
2, 159902, Note_off_c, 0, 58, 64
2, 159923, Note_off_c, 0, 59, 64
2, 159926, Note_on_c, 0, 60, 53
2, 159933, Note_on_c, 0, 52, 57
2, 159936, Note_on_c, 0, 49, 57
2, 159951, Note_on_c, 0, 61, 75
2, 159961, Note_off_c, 0, 60, 64
2, 159972, Note_off_c, 0, 52, 64
2, 159976, Note_off_c, 0, 49, 64
2, 159981, Note_on_c, 0, 58, 55
2, 159986, Note_off_c, 0, 61, 64
2, 160008, Note_off_c, 0, 58, 64
2, 160012, Note_on_c, 0, 57, 67
2, 160018, Note_on_c, 0, 53, 46
2, 160018, Note_on_c, 0, 48, 56
2, 160038, Note_on_c, 0, 58, 49
2, 160057, Note_off_c, 0, 53, 64
2, 160063, Note_off_c, 0, 57, 64
2, 160066, Note_on_c, 0, 59, 64
2, 160070, Note_off_c, 0, 48, 64
2, 160087, Note_off_c, 0, 58, 64
2, 160106, Note_on_c, 0, 60, 61
2, 160107, Note_on_c, 0, 52, 46
2, 160109, Note_off_c, 0, 59, 64
2, 160111, Note_on_c, 0, 49, 66
2, 160125, Control_c, 0, 64, 127
2, 160141, Note_on_c, 0, 61, 74
2, 160146, Note_off_c, 0, 49, 64
2, 160149, Note_off_c, 0, 60, 64
2, 160169, Note_on_c, 0, 58, 79
2, 160179, Note_off_c, 0, 61, 64
2, 160180, Note_off_c, 0, 52, 64
2, 160185, Note_off_c, 0, 41, 64
2, 160206, Note_off_c, 0, 58, 64
2, 160212, Note_on_c, 0, 48, 48
2, 160216, Note_on_c, 0, 51, 58
2, 160216, Note_on_c, 0, 41, 80
2, 160217, Note_on_c, 0, 57, 67
2, 160226, Control_c, 0, 64, 0
2, 160249, Note_on_c, 0, 60, 65
2, 160261, Control_c, 0, 64, 127
2, 160267, Note_off_c, 0, 57, 64
2, 160283, Note_on_c, 0, 63, 61
2, 160291, Note_off_c, 0, 60, 64
2, 160308, Note_off_c, 0, 63, 64
2, 160320, Note_on_c, 0, 65, 79
2, 160336, Note_off_c, 0, 51, 64
2, 160345, Note_off_c, 0, 48, 64
2, 160350, Note_on_c, 0, 72, 68
2, 160351, Note_off_c, 0, 41, 64
2, 160359, Note_off_c, 0, 65, 64
2, 160387, Note_on_c, 0, 68, 56
2, 160392, Note_off_c, 0, 72, 64
2, 160413, Note_on_c, 0, 67, 55
2, 160441, Note_on_c, 0, 66, 55
2, 160463, Note_off_c, 0, 68, 64
2, 160469, Note_on_c, 0, 65, 55
2, 160481, Control_c, 0, 64, 0
2, 160489, Note_off_c, 0, 67, 64
2, 160497, Note_on_c, 0, 64, 54
2, 160517, Note_off_c, 0, 66, 64
2, 160527, Note_on_c, 0, 63, 53
2, 160545, Note_off_c, 0, 65, 64
2, 160557, Note_on_c, 0, 62, 53
2, 160573, Note_off_c, 0, 64, 64
2, 160581, Note_on_c, 0, 61, 52
2, 160603, Note_off_c, 0, 63, 64
2, 160614, Note_on_c, 0, 60, 51
2, 160633, Note_off_c, 0, 62, 64
2, 160639, Note_on_c, 0, 59, 51
2, 160657, Note_off_c, 0, 61, 64
2, 160669, Note_off_c, 0, 60, 64
2, 160670, Note_on_c, 0, 58, 50
2, 160701, Note_on_c, 0, 57, 49
2, 160715, Note_off_c, 0, 59, 64
2, 160730, Note_on_c, 0, 56, 49
2, 160746, Note_off_c, 0, 58, 64
2, 160762, Note_on_c, 0, 55, 49
2, 160777, Note_off_c, 0, 57, 64
2, 160787, Note_on_c, 0, 54, 48
2, 160806, Note_off_c, 0, 56, 64
2, 160821, Note_on_c, 0, 53, 47
2, 160838, Note_off_c, 0, 55, 64
2, 160849, Note_on_c, 0, 52, 47
2, 160863, Note_off_c, 0, 54, 64
2, 160882, Note_on_c, 0, 51, 46
2, 160897, Note_off_c, 0, 53, 64
2, 160916, Note_on_c, 0, 50, 45
2, 160925, Note_off_c, 0, 52, 64
2, 160944, Note_on_c, 0, 49, 45
2, 160958, Note_off_c, 0, 51, 64
2, 160976, Note_on_c, 0, 48, 44
2, 160992, Note_off_c, 0, 50, 64
2, 161010, Note_on_c, 0, 47, 43
2, 161020, Note_off_c, 0, 49, 64
2, 161036, Note_on_c, 0, 46, 43
2, 161052, Note_off_c, 0, 48, 64
2, 161075, Note_on_c, 0, 45, 42
2, 161086, Note_off_c, 0, 47, 64
2, 161109, Note_on_c, 0, 44, 42
2, 161112, Note_off_c, 0, 46, 64
2, 161144, Note_on_c, 0, 43, 41
2, 161151, Note_off_c, 0, 45, 64
2, 161173, Note_on_c, 0, 42, 40
2, 161185, Note_off_c, 0, 44, 64
2, 161214, Note_on_c, 0, 41, 39
2, 161220, Note_off_c, 0, 43, 64
2, 161249, Note_off_c, 0, 42, 64
2, 161257, Note_on_c, 0, 40, 38
2, 161290, Note_off_c, 0, 41, 64
2, 161291, Note_on_c, 0, 39, 37
2, 161333, Note_off_c, 0, 40, 64
2, 161340, Note_on_c, 0, 38, 36
2, 161348, Note_off_c, 0, 39, 64
2, 161374, Note_on_c, 0, 37, 50
2, 161400, Control_c, 0, 64, 127
2, 161416, Note_off_c, 0, 38, 64
2, 161434, Note_on_c, 0, 44, 43
2, 161469, Note_on_c, 0, 46, 43
2, 161477, Note_off_c, 0, 44, 64
2, 161477, Note_off_c, 0, 37, 64
2, 161501, Note_on_c, 0, 48, 43
2, 161502, Note_off_c, 0, 46, 64
2, 161534, Note_on_c, 0, 49, 43
2, 161537, Note_off_c, 0, 48, 64
2, 161566, Note_on_c, 0, 51, 43
2, 161575, Note_off_c, 0, 49, 64
2, 161601, Note_off_c, 0, 51, 64
2, 161601, Note_on_c, 0, 53, 43
2, 161607, Note_on_c, 0, 68, 49
2, 161611, Note_on_c, 0, 65, 51
2, 161612, Note_on_c, 0, 77, 62
2, 161630, Note_off_c, 0, 65, 64
2, 161635, Note_on_c, 0, 54, 43
2, 161636, Note_off_c, 0, 68, 64
2, 161639, Note_off_c, 0, 53, 64
2, 161641, Note_off_c, 0, 77, 64
2, 161672, Note_on_c, 0, 56, 43
2, 161676, Note_off_c, 0, 54, 64
2, 161714, Note_off_c, 0, 56, 64
2, 161714, Note_on_c, 0, 58, 43
2, 161717, Note_on_c, 0, 68, 51
2, 161720, Note_on_c, 0, 77, 62
2, 161720, Note_on_c, 0, 65, 55
2, 161744, Note_off_c, 0, 58, 64
2, 161751, Note_on_c, 0, 56, 43
2, 161785, Note_on_c, 0, 58, 43
2, 161799, Note_off_c, 0, 56, 64
2, 161815, Note_off_c, 0, 65, 64
2, 161823, Note_on_c, 0, 60, 43
2, 161825, Note_off_c, 0, 58, 64
2, 161838, Note_off_c, 0, 68, 64
2, 161847, Note_off_c, 0, 77, 64
2, 161859, Note_on_c, 0, 61, 43
2, 161866, Note_off_c, 0, 60, 64
2, 161885, Control_c, 0, 64, 0
2, 161895, Note_on_c, 0, 63, 43
2, 161907, Note_off_c, 0, 61, 64
2, 161927, Control_c, 0, 64, 127
2, 161930, Note_off_c, 0, 63, 64
2, 161934, Note_on_c, 0, 65, 64
2, 162009, Note_off_c, 0, 65, 64
2, 162043, Note_on_c, 0, 73, 70
2, 162044, Note_on_c, 0, 65, 59
2, 162047, Note_on_c, 0, 37, 53
2, 162050, Control_c, 0, 64, 0
2, 162058, Control_c, 0, 64, 127
2, 162078, Note_on_c, 0, 44, 43
2, 162104, Note_off_c, 0, 73, 64
2, 162107, Note_on_c, 0, 46, 43
2, 162115, Note_off_c, 0, 44, 64
2, 162137, Note_off_c, 0, 46, 64
2, 162137, Note_on_c, 0, 48, 43
2, 162139, Note_off_c, 0, 65, 64
2, 162158, Note_off_c, 0, 37, 64
2, 162166, Note_off_c, 0, 48, 64
2, 162169, Note_on_c, 0, 49, 43
2, 162200, Note_on_c, 0, 51, 43
2, 162210, Note_off_c, 0, 49, 64
2, 162235, Note_on_c, 0, 70, 64
2, 162238, Note_on_c, 0, 53, 43
2, 162240, Note_off_c, 0, 51, 64
2, 162243, Note_on_c, 0, 60, 43
2, 162262, Note_off_c, 0, 60, 64
2, 162268, Note_on_c, 0, 54, 43
2, 162275, Note_off_c, 0, 53, 64
2, 162275, Note_off_c, 0, 70, 64
2, 162302, Note_on_c, 0, 56, 43
2, 162307, Note_off_c, 0, 54, 64
2, 162337, Note_on_c, 0, 58, 43
2, 162339, Note_on_c, 0, 66, 49
2, 162342, Note_on_c, 0, 70, 68
2, 162344, Note_off_c, 0, 56, 64
2, 162344, Note_on_c, 0, 60, 43
2, 162350, Control_c, 0, 64, 0
2, 162365, Note_off_c, 0, 60, 64
2, 162368, Note_off_c, 0, 58, 64
2, 162370, Note_on_c, 0, 56, 43
2, 162370, Control_c, 0, 64, 127
2, 162394, Note_on_c, 0, 58, 43
2, 162406, Note_off_c, 0, 56, 64
2, 162418, Note_off_c, 0, 58, 64
2, 162424, Note_on_c, 0, 60, 43
2, 162440, Note_off_c, 0, 66, 64
2, 162458, Note_on_c, 0, 61, 43
2, 162463, Note_off_c, 0, 60, 64
2, 162481, Note_on_c, 0, 63, 34
2, 162490, Note_off_c, 0, 61, 64
2, 162505, Note_on_c, 0, 65, 53
2, 162508, Note_off_c, 0, 63, 64
2, 162538, Note_on_c, 0, 68, 81
2, 162538, Note_on_c, 0, 66, 61
2, 162546, Note_off_c, 0, 70, 64
2, 162551, Note_off_c, 0, 65, 64
2, 162610, Note_off_c, 0, 68, 64
2, 162613, Note_off_c, 0, 66, 64
2, 162637, Note_on_c, 0, 37, 54
2, 162641, Note_on_c, 0, 68, 72
2, 162641, Note_on_c, 0, 66, 42
2, 162648, Control_c, 0, 64, 0
2, 162676, Note_on_c, 0, 44, 43
2, 162678, Control_c, 0, 64, 127
2, 162705, Note_on_c, 0, 46, 43
2, 162714, Note_off_c, 0, 44, 64
2, 162738, Note_off_c, 0, 46, 64
2, 162738, Note_off_c, 0, 66, 64
2, 162739, Note_on_c, 0, 48, 43
2, 162742, Note_off_c, 0, 37, 64
2, 162742, Note_off_c, 0, 68, 64
2, 162744, Note_on_c, 0, 65, 63
2, 162766, Note_off_c, 0, 65, 64
2, 162772, Note_on_c, 0, 49, 43
2, 162778, Note_off_c, 0, 48, 64
2, 162807, Note_on_c, 0, 51, 43
2, 162819, Note_off_c, 0, 49, 64
2, 162822, Note_on_c, 0, 63, 34
2, 162834, Note_on_c, 0, 68, 65
2, 162844, Note_off_c, 0, 51, 64
2, 162845, Note_on_c, 0, 53, 43
2, 162852, Note_off_c, 0, 63, 64
2, 162852, Note_on_c, 0, 77, 79
2, 162864, Note_off_c, 0, 68, 64
2, 162875, Note_off_c, 0, 77, 64
2, 162879, Note_off_c, 0, 53, 64
2, 162880, Note_on_c, 0, 54, 43
2, 162902, Note_on_c, 0, 56, 43
2, 162907, Note_off_c, 0, 54, 64
2, 162937, Note_on_c, 0, 58, 43
2, 162948, Control_c, 0, 64, 0
2, 162951, Note_off_c, 0, 56, 64
2, 162955, Note_on_c, 0, 73, 85
2, 162955, Note_on_c, 0, 68, 67
2, 162982, Control_c, 0, 64, 127
2, 162984, Note_on_c, 0, 56, 43
2, 162986, Note_off_c, 0, 58, 64
2, 163007, Note_off_c, 0, 68, 64
2, 163011, Note_on_c, 0, 58, 43
2, 163026, Note_off_c, 0, 73, 64
2, 163027, Note_off_c, 0, 56, 64
2, 163045, Note_on_c, 0, 59, 43
2, 163046, Note_off_c, 0, 58, 64
2, 163072, Note_off_c, 0, 59, 64
2, 163080, Note_on_c, 0, 61, 44
2, 163113, Note_on_c, 0, 63, 44
2, 163126, Note_off_c, 0, 61, 64
2, 163151, Note_on_c, 0, 82, 80
2, 163153, Note_off_c, 0, 63, 64
2, 163153, Note_on_c, 0, 65, 61
2, 163158, Note_on_c, 0, 73, 78
2, 163158, Note_on_c, 0, 71, 64
2, 163166, Note_off_c, 0, 65, 64
2, 163173, Note_off_c, 0, 71, 64
2, 163177, Note_off_c, 0, 73, 64
2, 163196, Note_off_c, 0, 82, 64
2, 163272, Note_on_c, 0, 82, 62
2, 163278, Note_on_c, 0, 73, 66
2, 163278, Note_on_c, 0, 71, 53
2, 163281, Note_on_c, 0, 37, 83
2, 163285, Control_c, 0, 64, 0
2, 163308, Control_c, 0, 64, 127
2, 163321, Note_on_c, 0, 44, 51
2, 163362, Note_off_c, 0, 73, 64
2, 163367, Note_off_c, 0, 71, 64
2, 163368, Note_on_c, 0, 49, 51
2, 163370, Note_off_c, 0, 44, 64
2, 163397, Note_off_c, 0, 49, 64
2, 163401, Note_off_c, 0, 82, 64
2, 163404, Note_on_c, 0, 80, 61
2, 163405, Note_off_c, 0, 37, 64
2, 163408, Note_on_c, 0, 73, 70
2, 163409, Note_on_c, 0, 71, 61
2, 163444, Note_off_c, 0, 80, 64
2, 163446, Note_off_c, 0, 73, 64
2, 163447, Note_on_c, 0, 56, 51
2, 163457, Note_off_c, 0, 71, 64
2, 163486, Note_off_c, 0, 56, 64
2, 163488, Note_on_c, 0, 61, 51
2, 163515, Note_off_c, 0, 61, 64
2, 163522, Note_on_c, 0, 73, 73
2, 163522, Note_on_c, 0, 71, 69
2, 163524, Note_on_c, 0, 79, 67
2, 163526, Note_on_c, 0, 56, 51
2, 163560, Note_on_c, 0, 65, 51
2, 163566, Note_off_c, 0, 56, 64
2, 163587, Note_off_c, 0, 71, 64
2, 163589, Note_off_c, 0, 73, 64
2, 163598, Note_on_c, 0, 61, 51
2, 163605, Note_off_c, 0, 79, 64
2, 163614, Note_off_c, 0, 65, 64
2, 163627, Note_on_c, 0, 56, 51
2, 163631, Note_off_c, 0, 61, 64
2, 163639, Note_on_c, 0, 73, 70
2, 163640, Note_on_c, 0, 80, 67
2, 163644, Note_on_c, 0, 71, 65
2, 163675, Note_on_c, 0, 68, 51
2, 163678, Note_off_c, 0, 56, 64
2, 163710, Note_on_c, 0, 65, 51
2, 163726, Note_off_c, 0, 68, 64
2, 163756, Note_off_c, 0, 65, 64
2, 163757, Note_on_c, 0, 61, 52
2, 163791, Note_on_c, 0, 56, 52
2, 163817, Note_off_c, 0, 61, 64
2, 163829, Note_off_c, 0, 71, 64
2, 163831, Note_on_c, 0, 53, 52
2, 163847, Note_off_c, 0, 56, 64
2, 163847, Note_off_c, 0, 73, 64
2, 163849, Note_off_c, 0, 80, 64
2, 163866, Note_off_c, 0, 53, 64
2, 163869, Note_on_c, 0, 49, 52
2, 163904, Note_off_c, 0, 49, 64
2, 163907, Note_on_c, 0, 44, 52
2, 163949, Note_on_c, 0, 56, 52
2, 163954, Note_off_c, 0, 44, 64
2, 163962, Note_on_c, 0, 65, 52
2, 163979, Note_off_c, 0, 65, 64
2, 163980, Note_off_c, 0, 56, 64
2, 163991, Note_on_c, 0, 65, 52
2, 164016, Note_on_c, 0, 71, 79
2, 164033, Note_on_c, 0, 37, 75
2, 164037, Note_on_c, 0, 80, 86
2, 164045, Control_c, 0, 64, 0
2, 164063, Control_c, 0, 64, 127
2, 164081, Note_off_c, 0, 37, 64
2, 164081, Note_on_c, 0, 44, 52
2, 164114, Note_off_c, 0, 44, 64
2, 164121, Note_on_c, 0, 49, 52
2, 164142, Note_off_c, 0, 71, 64
2, 164156, Note_off_c, 0, 49, 64
2, 164156, Note_on_c, 0, 56, 52
2, 164162, Note_off_c, 0, 65, 64
2, 164193, Note_on_c, 0, 49, 53
2, 164201, Note_off_c, 0, 80, 64
2, 164210, Note_off_c, 0, 56, 64
2, 164224, Note_off_c, 0, 49, 64
2, 164233, Note_on_c, 0, 44, 53
2, 164275, Note_off_c, 0, 44, 64
2, 164279, Note_on_c, 0, 73, 86
2, 164279, Note_on_c, 0, 49, 53
2, 164281, Note_on_c, 0, 71, 82
2, 164283, Note_on_c, 0, 65, 53
2, 164304, Note_off_c, 0, 49, 64
2, 164308, Note_off_c, 0, 71, 64
2, 164316, Note_on_c, 0, 56, 53
2, 164320, Note_off_c, 0, 65, 64
2, 164332, Note_off_c, 0, 73, 64
2, 164354, Note_on_c, 0, 61, 53
2, 164366, Note_off_c, 0, 56, 64
2, 164380, Note_on_c, 0, 71, 82
2, 164380, Note_on_c, 0, 65, 53
2, 164385, Note_on_c, 0, 73, 78
2, 164388, Note_off_c, 0, 61, 64
2, 164388, Note_on_c, 0, 56, 53
2, 164414, Note_off_c, 0, 65, 64
2, 164416, Note_on_c, 0, 49, 53
2, 164425, Note_off_c, 0, 56, 64
2, 164455, Note_on_c, 0, 56, 53
2, 164460, Note_off_c, 0, 71, 64
2, 164462, Note_off_c, 0, 49, 64
2, 164489, Note_off_c, 0, 56, 64
2, 164494, Note_on_c, 0, 61, 53
2, 164504, Note_off_c, 0, 73, 64
2, 164534, Note_on_c, 0, 68, 53
2, 164539, Note_off_c, 0, 61, 64
2, 164576, Note_on_c, 0, 61, 53
2, 164610, Note_on_c, 0, 56, 53
2, 164615, Note_off_c, 0, 61, 64
2, 164637, Note_off_c, 0, 56, 64
2, 164641, Note_on_c, 0, 49, 54
2, 164650, Note_on_c, 0, 73, 10
2, 164679, Note_off_c, 0, 49, 64
2, 164679, Note_on_c, 0, 56, 54
2, 164702, Note_off_c, 0, 56, 64
2, 164708, Note_on_c, 0, 61, 54
2, 164744, Note_on_c, 0, 56, 54
2, 164747, Note_off_c, 0, 61, 64
2, 164771, Note_off_c, 0, 56, 64
2, 164780, Note_on_c, 0, 49, 54
2, 164788, Note_on_c, 0, 49, 54
2, 164793, Note_off_c, 0, 49, 64
2, 164810, Note_off_c, 0, 49, 64
2, 164812, Note_on_c, 0, 44, 54
2, 164843, Note_off_c, 0, 44, 64
2, 164864, Note_on_c, 0, 49, 54
2, 164884, Note_on_c, 0, 56, 54
2, 164892, Note_on_c, 0, 56, 54
2, 164903, Note_off_c, 0, 49, 64
2, 164922, Note_off_c, 0, 56, 64
2, 164935, Note_off_c, 0, 56, 64
2, 164940, Note_on_c, 0, 49, 54
2, 164964, Note_off_c, 0, 68, 64
2, 164966, Note_off_c, 0, 73, 64
2, 164972, Note_off_c, 0, 49, 64
2, 164977, Note_on_c, 0, 44, 54
2, 165022, Note_on_c, 0, 37, 54
2, 165028, Note_off_c, 0, 44, 64
2, 165068, Note_on_c, 0, 71, 77
2, 165068, Note_on_c, 0, 30, 92
2, 165070, Note_on_c, 0, 73, 91
2, 165070, Note_on_c, 0, 66, 46
2, 165079, Note_off_c, 0, 37, 64
2, 165081, Control_c, 0, 64, 0
2, 165099, Control_c, 0, 64, 127
2, 165118, Note_off_c, 0, 30, 64
2, 165169, Note_on_c, 0, 49, 55
2, 165213, Note_on_c, 0, 61, 55
2, 165215, Note_off_c, 0, 49, 64
2, 165223, Note_off_c, 0, 71, 64
2, 165247, Note_on_c, 0, 54, 55
2, 165254, Note_off_c, 0, 61, 64
2, 165254, Note_off_c, 0, 73, 64
2, 165284, Note_on_c, 0, 49, 55
2, 165288, Note_off_c, 0, 54, 64
2, 165303, Note_off_c, 0, 66, 64
2, 165327, Note_on_c, 0, 78, 84
2, 165328, Note_on_c, 0, 70, 68
2, 165328, Note_on_c, 0, 66, 55
2, 165330, Note_on_c, 0, 58, 55
2, 165334, Note_off_c, 0, 49, 64
2, 165364, Note_on_c, 0, 54, 55
2, 165376, Note_off_c, 0, 58, 64
2, 165398, Note_off_c, 0, 54, 64
2, 165412, Note_off_c, 0, 78, 64
2, 165413, Note_off_c, 0, 66, 64
2, 165413, Note_off_c, 0, 70, 64
2, 165420, Note_on_c, 0, 49, 55
2, 165480, Note_off_c, 0, 49, 64
2, 165492, Note_on_c, 0, 39, 79
2, 165492, Control_c, 0, 64, 0
2, 165505, Note_on_c, 0, 78, 68
2, 165518, Control_c, 0, 64, 127
2, 165553, Note_on_c, 0, 66, 55
2, 165560, Note_on_c, 0, 46, 55
2, 165566, Note_off_c, 0, 39, 64
2, 165577, Note_off_c, 0, 66, 64
2, 165594, Note_on_c, 0, 70, 55
2, 165617, Note_off_c, 0, 46, 64
2, 165620, Note_on_c, 0, 51, 55
2, 165623, Note_off_c, 0, 78, 64
2, 165631, Note_on_c, 0, 58, 55
2, 165642, Note_off_c, 0, 70, 64
2, 165671, Note_on_c, 0, 70, 55
2, 165685, Note_off_c, 0, 51, 64
2, 165697, Note_on_c, 0, 54, 55
2, 165708, Note_on_c, 0, 63, 55
2, 165709, Note_off_c, 0, 58, 64
2, 165738, Note_on_c, 0, 51, 55
2, 165743, Note_on_c, 0, 66, 55
2, 165749, Note_off_c, 0, 54, 64
2, 165750, Note_off_c, 0, 63, 64
2, 165775, Note_on_c, 0, 58, 55
2, 165776, Note_off_c, 0, 66, 64
2, 165789, Note_off_c, 0, 70, 64
2, 165807, Note_off_c, 0, 51, 64
2, 165813, Note_on_c, 0, 46, 55
2, 165817, Note_on_c, 0, 72, 73
2, 165830, Note_off_c, 0, 58, 64
2, 165855, Note_on_c, 0, 66, 55
2, 165862, Note_on_c, 0, 39, 80
2, 165863, Note_off_c, 0, 46, 64
2, 165866, Control_c, 0, 64, 0
2, 165895, Control_c, 0, 64, 127
2, 165898, Note_on_c, 0, 70, 55
2, 165907, Note_off_c, 0, 66, 64
2, 165910, Note_on_c, 0, 46, 55
2, 165917, Note_off_c, 0, 39, 64
2, 165935, Note_off_c, 0, 72, 64
2, 165939, Note_on_c, 0, 61, 55
2, 165950, Note_off_c, 0, 70, 64
2, 165964, Note_on_c, 0, 51, 56
2, 165973, Note_on_c, 0, 73, 73
2, 165980, Note_off_c, 0, 46, 64
2, 166001, Note_on_c, 0, 66, 56
2, 166014, Note_off_c, 0, 61, 64
2, 166037, Note_off_c, 0, 51, 64
2, 166039, Note_on_c, 0, 70, 56
2, 166045, Note_on_c, 0, 58, 56
2, 166048, Note_off_c, 0, 66, 64
2, 166072, Note_off_c, 0, 70, 64
2, 166075, Note_on_c, 0, 66, 56
2, 166091, Note_off_c, 0, 73, 64
2, 166096, Note_on_c, 0, 51, 56
2, 166103, Note_on_c, 0, 78, 76
2, 166115, Note_off_c, 0, 58, 64
2, 166130, Note_off_c, 0, 51, 64
2, 166138, Note_on_c, 0, 46, 56
2, 166139, Note_on_c, 0, 70, 56
2, 166154, Note_off_c, 0, 66, 64
2, 166173, Note_off_c, 0, 46, 64
2, 166173, Note_on_c, 0, 73, 73
2, 166182, Note_on_c, 0, 44, 81
2, 166194, Note_off_c, 0, 70, 64
2, 166201, Control_c, 0, 64, 0
2, 166204, Note_on_c, 0, 66, 56
2, 166221, Note_off_c, 0, 78, 64
2, 166222, Note_off_c, 0, 73, 64
2, 166228, Control_c, 0, 64, 127
2, 166236, Note_on_c, 0, 51, 56
2, 166246, Note_off_c, 0, 44, 64
2, 166256, Note_on_c, 0, 77, 67
2, 166283, Note_on_c, 0, 54, 56
2, 166287, Note_on_c, 0, 70, 56
2, 166288, Note_off_c, 0, 51, 64
2, 166310, Note_off_c, 0, 66, 64
2, 166325, Note_on_c, 0, 73, 71
2, 166348, Note_off_c, 0, 54, 64
2, 166348, Note_off_c, 0, 70, 64
2, 166350, Note_on_c, 0, 61, 56
2, 166358, Note_on_c, 0, 66, 56
2, 166374, Note_off_c, 0, 77, 64
2, 166376, Note_off_c, 0, 73, 64
2, 166400, Note_on_c, 0, 77, 72
2, 166403, Note_on_c, 0, 54, 57
2, 166414, Note_off_c, 0, 61, 64
2, 166439, Note_on_c, 0, 70, 57
2, 166464, Note_on_c, 0, 51, 57
2, 166470, Note_off_c, 0, 54, 64
2, 166476, Note_off_c, 0, 66, 64
2, 166482, Note_on_c, 0, 73, 74
2, 166484, Control_c, 0, 64, 0
2, 166499, Note_on_c, 0, 44, 83
2, 166507, Note_off_c, 0, 70, 64
2, 166515, Control_c, 0, 64, 127
2, 166518, Note_off_c, 0, 77, 64
2, 166521, Note_off_c, 0, 51, 64
2, 166521, Note_on_c, 0, 66, 57
2, 166529, Note_off_c, 0, 73, 64
2, 166557, Note_on_c, 0, 51, 57
2, 166562, Note_on_c, 0, 75, 76
2, 166568, Note_off_c, 0, 44, 64
2, 166593, Note_on_c, 0, 68, 57
2, 166599, Note_on_c, 0, 54, 57
2, 166614, Note_off_c, 0, 51, 64
2, 166616, Note_off_c, 0, 66, 64
2, 166632, Note_on_c, 0, 72, 74
2, 166647, Note_off_c, 0, 68, 64
2, 166650, Note_on_c, 0, 60, 57
2, 166653, Note_off_c, 0, 54, 64
2, 166665, Note_on_c, 0, 66, 57
2, 166668, Note_off_c, 0, 72, 64
2, 166680, Note_off_c, 0, 75, 64
2, 166690, Note_on_c, 0, 54, 57
2, 166701, Note_off_c, 0, 60, 64
2, 166703, Note_on_c, 0, 72, 82
2, 166714, Note_off_c, 0, 66, 64
2, 166725, Note_off_c, 0, 54, 64
2, 166733, Note_on_c, 0, 66, 57
2, 166740, Note_on_c, 0, 51, 57
2, 166760, Note_on_c, 0, 70, 71
2, 166771, Note_off_c, 0, 66, 64
2, 166778, Note_off_c, 0, 51, 64
2, 166789, Note_on_c, 0, 60, 57
2, 166793, Note_off_c, 0, 70, 64
2, 166821, Note_off_c, 0, 72, 64
2, 166827, Control_c, 0, 64, 0
2, 166829, Note_on_c, 0, 70, 86
2, 166831, Note_on_c, 0, 58, 54
2, 166836, Note_on_c, 0, 65, 67
2, 166841, Note_off_c, 0, 60, 64
2, 166842, Note_on_c, 0, 37, 85
2, 166861, Control_c, 0, 64, 127
2, 166880, Note_on_c, 0, 44, 55
2, 166894, Note_off_c, 0, 58, 64
2, 166896, Note_off_c, 0, 65, 64
2, 166908, Note_on_c, 0, 46, 55
2, 166919, Note_off_c, 0, 44, 64
2, 166924, Note_off_c, 0, 70, 64
2, 166936, Note_on_c, 0, 48, 55
2, 166938, Note_off_c, 0, 46, 64
2, 166943, Note_on_c, 0, 56, 55
2, 166948, Note_on_c, 0, 68, 79
2, 166961, Note_off_c, 0, 37, 64
2, 166962, Note_on_c, 0, 49, 47
2, 166971, Note_off_c, 0, 48, 64
2, 167000, Note_on_c, 0, 51, 47
2, 167019, Note_off_c, 0, 49, 64
2, 167041, Note_on_c, 0, 53, 62
2, 167042, Note_off_c, 0, 51, 64
2, 167044, Note_on_c, 0, 80, 58
2, 167045, Note_off_c, 0, 56, 64
2, 167047, Note_on_c, 0, 89, 71
2, 167050, Note_off_c, 0, 68, 64
2, 167050, Note_on_c, 0, 77, 58
2, 167068, Note_off_c, 0, 77, 64
2, 167069, Note_on_c, 0, 54, 56
2, 167074, Note_off_c, 0, 80, 64
2, 167076, Note_off_c, 0, 89, 64
2, 167076, Note_off_c, 0, 53, 64
2, 167098, Note_on_c, 0, 56, 69
2, 167107, Note_off_c, 0, 54, 64
2, 167133, Control_c, 0, 64, 0
2, 167140, Note_on_c, 0, 80, 65
2, 167140, Note_on_c, 0, 58, 70
2, 167144, Note_on_c, 0, 77, 60
2, 167145, Note_on_c, 0, 89, 69
2, 167147, Note_off_c, 0, 56, 64
2, 167163, Control_c, 0, 64, 127
2, 167174, Note_off_c, 0, 58, 64
2, 167175, Note_on_c, 0, 56, 74
2, 167204, Note_off_c, 0, 89, 64
2, 167207, Note_on_c, 0, 58, 38
2, 167221, Note_off_c, 0, 56, 64
2, 167223, Note_off_c, 0, 80, 64
2, 167235, Note_on_c, 0, 60, 62
2, 167237, Note_off_c, 0, 58, 64
2, 167239, Note_off_c, 0, 77, 64
2, 167259, Note_on_c, 0, 61, 61
2, 167266, Note_off_c, 0, 60, 64
2, 167289, Note_on_c, 0, 63, 56
2, 167306, Note_off_c, 0, 61, 64
2, 167326, Note_on_c, 0, 80, 68
2, 167328, Note_off_c, 0, 63, 64
2, 167328, Note_on_c, 0, 85, 73
2, 167328, Note_on_c, 0, 65, 67
2, 167331, Note_on_c, 0, 73, 59
2, 167359, Note_off_c, 0, 80, 64
2, 167361, Note_off_c, 0, 85, 64
2, 167362, Note_off_c, 0, 73, 64
2, 167377, Note_off_c, 0, 65, 64
2, 167422, Control_c, 0, 64, 0
2, 167432, Note_on_c, 0, 85, 73
2, 167434, Note_on_c, 0, 77, 69
2, 167434, Note_on_c, 0, 37, 85
2, 167437, Note_on_c, 0, 73, 62
2, 167446, Control_c, 0, 64, 127
2, 167453, Note_off_c, 0, 77, 64
2, 167453, Note_off_c, 0, 85, 64
2, 167453, Note_on_c, 0, 44, 56
2, 167457, Note_off_c, 0, 73, 64
2, 167486, Note_on_c, 0, 46, 62
2, 167505, Note_off_c, 0, 44, 64
2, 167520, Note_on_c, 0, 48, 62
2, 167523, Note_off_c, 0, 46, 64
2, 167541, Note_on_c, 0, 65, 64
2, 167552, Note_on_c, 0, 49, 64
2, 167553, Note_off_c, 0, 37, 64
2, 167558, Note_off_c, 0, 48, 64
2, 167579, Note_off_c, 0, 65, 64
2, 167584, Note_on_c, 0, 51, 61
2, 167594, Note_off_c, 0, 49, 64
2, 167620, Note_on_c, 0, 53, 58
2, 167622, Note_off_c, 0, 51, 64
2, 167628, Note_on_c, 0, 82, 68
2, 167628, Note_on_c, 0, 73, 58
2, 167647, Note_on_c, 0, 54, 52
2, 167654, Note_off_c, 0, 53, 64
2, 167656, Note_off_c, 0, 82, 64
2, 167658, Note_off_c, 0, 73, 64
2, 167681, Note_on_c, 0, 56, 65
2, 167694, Note_off_c, 0, 54, 64
2, 167715, Note_on_c, 0, 58, 71
2, 167718, Control_c, 0, 64, 0
2, 167720, Note_on_c, 0, 78, 70
2, 167721, Note_on_c, 0, 82, 71
2, 167725, Note_on_c, 0, 72, 86
2, 167726, Note_off_c, 0, 56, 64
2, 167746, Control_c, 0, 64, 127
2, 167752, Note_on_c, 0, 56, 82
2, 167753, Note_off_c, 0, 58, 64
2, 167769, Note_off_c, 0, 72, 64
2, 167784, Note_off_c, 0, 78, 64
2, 167793, Note_on_c, 0, 60, 64
2, 167795, Note_off_c, 0, 56, 64
2, 167796, Note_on_c, 0, 70, 60
2, 167802, Note_off_c, 0, 82, 64
2, 167820, Note_on_c, 0, 61, 67
2, 167833, Note_off_c, 0, 60, 64
2, 167839, Note_on_c, 0, 63, 73
2, 167843, Note_off_c, 0, 70, 64
2, 167859, Note_off_c, 0, 61, 64
2, 167882, Note_on_c, 0, 65, 69
2, 167889, Note_off_c, 0, 63, 64
2, 167918, Note_on_c, 0, 80, 70
2, 167920, Note_on_c, 0, 75, 73
2, 167922, Note_on_c, 0, 68, 68
2, 167925, Note_on_c, 0, 66, 87
2, 167928, Note_off_c, 0, 65, 64
2, 167960, Note_off_c, 0, 80, 64
2, 167966, Note_off_c, 0, 66, 64
2, 167988, Note_off_c, 0, 75, 64
2, 168007, Note_off_c, 0, 68, 64
2, 168020, Control_c, 0, 64, 0
2, 168026, Note_on_c, 0, 68, 62
2, 168030, Note_on_c, 0, 80, 70
2, 168030, Note_on_c, 0, 77, 68
2, 168030, Note_on_c, 0, 37, 85
2, 168033, Note_on_c, 0, 75, 84
2, 168051, Control_c, 0, 64, 127
2, 168063, Note_off_c, 0, 80, 64
2, 168065, Note_on_c, 0, 44, 62
2, 168073, Note_off_c, 0, 75, 64
2, 168100, Note_on_c, 0, 46, 71
2, 168108, Note_off_c, 0, 77, 64
2, 168120, Note_off_c, 0, 44, 64
2, 168124, Note_on_c, 0, 73, 91
2, 168127, Note_off_c, 0, 68, 64
2, 168132, Note_on_c, 0, 48, 73
2, 168136, Note_off_c, 0, 46, 64
2, 168149, Note_off_c, 0, 37, 64
2, 168155, Note_off_c, 0, 48, 64
2, 168156, Note_on_c, 0, 49, 58
2, 168166, Note_on_c, 0, 51, 61
2, 168168, Note_off_c, 0, 73, 64
2, 168186, Note_off_c, 0, 49, 64
2, 168224, Note_on_c, 0, 53, 41
2, 168228, Note_on_c, 0, 80, 58
2, 168229, Note_on_c, 0, 89, 71
2, 168229, Note_on_c, 0, 77, 67
2, 168232, Note_off_c, 0, 51, 64
2, 168263, Note_on_c, 0, 54, 67
2, 168265, Note_off_c, 0, 89, 64
2, 168265, Note_off_c, 0, 80, 64
2, 168268, Note_off_c, 0, 53, 64
2, 168269, Note_off_c, 0, 77, 64
2, 168289, Note_on_c, 0, 56, 73
2, 168295, Note_off_c, 0, 54, 64
2, 168308, Note_on_c, 0, 58, 76
2, 168316, Note_off_c, 0, 56, 64
2, 168332, Note_on_c, 0, 85, 67
2, 168332, Note_on_c, 0, 80, 71
2, 168332, Note_on_c, 0, 73, 73
2, 168351, Note_on_c, 0, 56, 77
2, 168355, Note_off_c, 0, 58, 64
2, 168362, Note_off_c, 0, 80, 64
2, 168367, Note_off_c, 0, 73, 64
2, 168370, Note_off_c, 0, 85, 64
2, 168384, Note_on_c, 0, 58, 39
2, 168397, Note_off_c, 0, 56, 64
2, 168404, Note_on_c, 0, 60, 57
2, 168414, Note_off_c, 0, 58, 64
2, 168435, Note_on_c, 0, 61, 62
2, 168436, Note_off_c, 0, 60, 64
2, 168465, Note_on_c, 0, 63, 62
2, 168479, Note_off_c, 0, 61, 64
2, 168498, Note_on_c, 0, 64, 73
2, 168500, Note_on_c, 0, 85, 67
2, 168502, Note_on_c, 0, 79, 65
2, 168504, Note_off_c, 0, 63, 64
2, 168526, Note_off_c, 0, 79, 64
2, 168528, Note_off_c, 0, 85, 64
2, 168533, Note_on_c, 0, 94, 87
2, 168551, Note_off_c, 0, 64, 64
2, 168596, Note_off_c, 0, 94, 64
2, 168620, Note_on_c, 0, 36, 92
2, 168624, Note_on_c, 0, 94, 92
2, 168624, Note_on_c, 0, 87, 77
2, 168624, Note_on_c, 0, 24, 92
2, 168626, Note_on_c, 0, 82, 65
2, 168628, Control_c, 0, 64, 0
2, 168657, Control_c, 0, 64, 127
2, 168715, Note_off_c, 0, 94, 64
2, 168728, Note_off_c, 0, 82, 64
2, 168729, Note_on_c, 0, 48, 62
2, 168733, Note_off_c, 0, 87, 64
2, 168752, Note_on_c, 0, 92, 67
2, 168756, Note_on_c, 0, 87, 71
2, 168756, Note_on_c, 0, 80, 74
2, 168763, Note_on_c, 0, 51, 83
2, 168772, Note_off_c, 0, 48, 64
2, 168790, Note_on_c, 0, 56, 74
2, 168797, Note_off_c, 0, 51, 64
2, 168815, Note_off_c, 0, 80, 64
2, 168816, Note_off_c, 0, 92, 64
2, 168821, Note_off_c, 0, 87, 64
2, 168823, Note_off_c, 0, 56, 64
2, 168831, Note_on_c, 0, 51, 82
2, 168850, Note_on_c, 0, 91, 55
2, 168852, Note_on_c, 0, 87, 58
2, 168857, Note_on_c, 0, 79, 64
2, 168859, Note_off_c, 0, 36, 64
2, 168863, Note_off_c, 0, 24, 64
2, 168864, Note_on_c, 0, 56, 55
2, 168870, Note_off_c, 0, 51, 64
2, 168884, Note_on_c, 0, 60, 64
2, 168891, Note_off_c, 0, 79, 64
2, 168911, Note_off_c, 0, 56, 64
2, 168912, Note_off_c, 0, 87, 64
2, 168918, Note_on_c, 0, 63, 76
2, 168942, Note_off_c, 0, 60, 64
2, 168960, Note_off_c, 0, 91, 64
2, 168963, Note_on_c, 0, 92, 73
2, 168963, Note_on_c, 0, 87, 69
2, 168966, Note_on_c, 0, 80, 73
2, 168995, Note_on_c, 0, 68, 42
2, 169002, Note_off_c, 0, 63, 64
2, 169020, Note_on_c, 0, 63, 85
2, 169041, Note_off_c, 0, 68, 64
2, 169064, Note_on_c, 0, 75, 55
2, 169076, Note_off_c, 0, 63, 64
2, 169084, Note_on_c, 0, 68, 58
2, 169125, Note_off_c, 0, 75, 64
2, 169127, Note_on_c, 0, 63, 67
2, 169136, Note_off_c, 0, 92, 64
2, 169138, Note_off_c, 0, 87, 64
2, 169150, Note_off_c, 0, 80, 64
2, 169151, Note_off_c, 0, 68, 64
2, 169163, Note_on_c, 0, 60, 64
2, 169190, Note_off_c, 0, 63, 64
2, 169212, Note_on_c, 0, 56, 58
2, 169235, Note_off_c, 0, 60, 64
2, 169243, Note_on_c, 0, 80, 62
2, 169244, Note_on_c, 0, 68, 78
2, 169247, Note_on_c, 0, 51, 74
2, 169248, Note_on_c, 0, 75, 67
2, 169277, Note_off_c, 0, 56, 64
2, 169283, Note_on_c, 0, 48, 58
2, 169323, Note_off_c, 0, 51, 64
2, 169331, Note_on_c, 0, 44, 65
2, 169342, Note_off_c, 0, 75, 64
2, 169352, Note_off_c, 0, 80, 64
2, 169362, Note_off_c, 0, 48, 64
2, 169365, Note_off_c, 0, 68, 64
2, 169386, Note_on_c, 0, 80, 69
2, 169387, Note_on_c, 0, 73, 64
2, 169396, Note_on_c, 0, 68, 61
2, 169403, Control_c, 0, 64, 0
2, 169407, Note_off_c, 0, 44, 64
2, 169416, Note_on_c, 0, 35, 80
2, 169441, Control_c, 0, 64, 127
2, 169491, Note_off_c, 0, 35, 64
2, 169524, Note_on_c, 0, 42, 39
2, 169552, Note_off_c, 0, 73, 64
2, 169556, Note_on_c, 0, 49, 44
2, 169574, Note_off_c, 0, 68, 64
2, 169594, Note_on_c, 0, 53, 45
2, 169604, Note_off_c, 0, 42, 64
2, 169606, Note_off_c, 0, 49, 64
2, 169613, Note_off_c, 0, 80, 64
2, 169624, Note_on_c, 0, 61, 58
2, 169626, Note_off_c, 0, 53, 64
2, 169630, Note_on_c, 0, 68, 64
2, 169633, Note_on_c, 0, 73, 60
2, 169662, Note_on_c, 0, 53, 53
2, 169664, Note_off_c, 0, 61, 64
2, 169696, Note_on_c, 0, 49, 43
2, 169697, Note_off_c, 0, 73, 64
2, 169700, Note_off_c, 0, 53, 64
2, 169710, Note_off_c, 0, 68, 64
2, 169728, Note_off_c, 0, 49, 64
2, 169731, Note_on_c, 0, 46, 67
2, 169734, Note_on_c, 0, 68, 64
2, 169735, Note_on_c, 0, 73, 59
2, 169742, Control_c, 0, 64, 0
2, 169770, Control_c, 0, 64, 127
2, 169780, Note_on_c, 0, 49, 44
2, 169806, Note_on_c, 0, 54, 36
2, 169811, Note_off_c, 0, 46, 64
2, 169818, Note_off_c, 0, 49, 64
2, 169829, Note_off_c, 0, 68, 64
2, 169842, Note_off_c, 0, 54, 64
2, 169843, Note_on_c, 0, 67, 51
2, 169849, Note_on_c, 0, 63, 63
2, 169887, Note_on_c, 0, 54, 43
2, 169896, Note_off_c, 0, 63, 64
2, 169904, Note_off_c, 0, 67, 64
2, 169928, Note_on_c, 0, 49, 24
2, 169931, Note_off_c, 0, 54, 64
2, 169938, Note_off_c, 0, 73, 64
2, 169948, Note_on_c, 0, 73, 33
2, 169951, Note_on_c, 0, 66, 65
2, 169954, Note_on_c, 0, 61, 58
2, 169957, Note_on_c, 0, 78, 44
2, 169970, Note_off_c, 0, 49, 64
2, 169980, Note_off_c, 0, 78, 64
2, 169987, Note_on_c, 0, 54, 39
2, 169995, Note_off_c, 0, 73, 64
2, 169996, Note_off_c, 0, 61, 64
2, 170026, Note_off_c, 0, 54, 64
2, 170034, Note_off_c, 0, 66, 64
2, 170036, Note_on_c, 0, 49, 44
2, 170060, Note_on_c, 0, 73, 49
2, 170065, Note_on_c, 0, 71, 51
2, 170065, Note_on_c, 0, 65, 35
2, 170071, Note_on_c, 0, 77, 50
2, 170071, Note_on_c, 0, 44, 65
2, 170075, Note_off_c, 0, 49, 64
2, 170077, Control_c, 0, 64, 0
2, 170106, Control_c, 0, 64, 127
2, 170109, Note_on_c, 0, 49, 44
2, 170141, Note_on_c, 0, 53, 44
2, 170151, Note_off_c, 0, 44, 64
2, 170153, Note_off_c, 0, 49, 64
2, 170161, Note_off_c, 0, 71, 64
2, 170162, Note_off_c, 0, 65, 64
2, 170174, Note_off_c, 0, 77, 64
2, 170174, Note_off_c, 0, 73, 64
2, 170181, Note_off_c, 0, 53, 64
2, 170184, Note_on_c, 0, 60, 58
2, 170215, Note_on_c, 0, 53, 49
2, 170226, Note_off_c, 0, 60, 64
2, 170256, Note_on_c, 0, 49, 44
2, 170275, Note_off_c, 0, 53, 64
2, 170294, Note_on_c, 0, 71, 46
2, 170297, Note_on_c, 0, 61, 66
2, 170299, Note_off_c, 0, 49, 64
2, 170300, Note_on_c, 0, 77, 51
2, 170300, Note_on_c, 0, 73, 48
2, 170303, Note_on_c, 0, 83, 51
2, 170330, Note_on_c, 0, 53, 48
2, 170335, Note_off_c, 0, 61, 64
2, 170350, Note_off_c, 0, 83, 64
2, 170351, Note_off_c, 0, 77, 64
2, 170364, Note_on_c, 0, 49, 51
2, 170367, Note_off_c, 0, 53, 64
2, 170369, Note_off_c, 0, 73, 64
2, 170377, Note_off_c, 0, 71, 64
2, 170403, Note_off_c, 0, 49, 64
2, 170404, Note_on_c, 0, 78, 54
2, 170407, Note_on_c, 0, 83, 56
2, 170407, Note_on_c, 0, 73, 52
2, 170407, Note_on_c, 0, 71, 51
2, 170407, Note_on_c, 0, 42, 64
2, 170413, Control_c, 0, 64, 0
2, 170438, Note_on_c, 0, 49, 44
2, 170444, Control_c, 0, 64, 127
2, 170476, Note_on_c, 0, 54, 51
2, 170487, Note_off_c, 0, 42, 64
2, 170490, Note_off_c, 0, 49, 64
2, 170511, Note_off_c, 0, 83, 64
2, 170518, Note_off_c, 0, 54, 64
2, 170522, Note_on_c, 0, 63, 75
2, 170525, Note_off_c, 0, 71, 64
2, 170536, Note_off_c, 0, 78, 64
2, 170537, Note_off_c, 0, 73, 64
2, 170560, Note_on_c, 0, 54, 38
2, 170575, Note_off_c, 0, 63, 64
2, 170596, Note_on_c, 0, 49, 44
2, 170631, Note_on_c, 0, 64, 70
2, 170635, Note_on_c, 0, 70, 54
2, 170637, Note_off_c, 0, 54, 64
2, 170637, Note_on_c, 0, 82, 58
2, 170639, Note_on_c, 0, 73, 54
2, 170642, Note_off_c, 0, 49, 64
2, 170666, Note_on_c, 0, 54, 43
2, 170672, Note_off_c, 0, 64, 64
2, 170681, Note_off_c, 0, 73, 64
2, 170698, Note_off_c, 0, 82, 64
2, 170700, Note_on_c, 0, 49, 51
2, 170706, Note_off_c, 0, 54, 64
2, 170718, Note_off_c, 0, 70, 64
2, 170744, Note_off_c, 0, 49, 64
2, 170744, Note_on_c, 0, 43, 62
2, 170747, Note_on_c, 0, 82, 58
2, 170750, Note_on_c, 0, 73, 58
2, 170750, Note_on_c, 0, 70, 52
2, 170755, Note_on_c, 0, 75, 53
2, 170757, Control_c, 0, 64, 0
2, 170779, Note_on_c, 0, 49, 44
2, 170787, Control_c, 0, 64, 127
2, 170796, Note_off_c, 0, 82, 64
2, 170811, Note_on_c, 0, 51, 40
2, 170820, Note_off_c, 0, 75, 64
2, 170824, Note_off_c, 0, 43, 64
2, 170829, Note_off_c, 0, 49, 64
2, 170834, Note_off_c, 0, 70, 64
2, 170846, Note_off_c, 0, 73, 64
2, 170848, Note_off_c, 0, 51, 64
2, 170856, Note_on_c, 0, 57, 57
2, 170880, Note_on_c, 0, 51, 53
2, 170904, Note_off_c, 0, 57, 64
2, 170922, Note_on_c, 0, 49, 48
2, 170933, Note_off_c, 0, 51, 64
2, 170951, Note_on_c, 0, 75, 58
2, 170955, Note_on_c, 0, 70, 58
2, 170955, Note_on_c, 0, 63, 54
2, 170958, Note_off_c, 0, 49, 64
2, 170958, Note_on_c, 0, 73, 51
2, 170958, Note_on_c, 0, 58, 73
2, 170986, Note_on_c, 0, 51, 47
2, 170991, Note_off_c, 0, 58, 64
2, 170994, Note_off_c, 0, 70, 64
2, 171005, Note_off_c, 0, 73, 64
2, 171006, Note_off_c, 0, 75, 64
2, 171008, Note_on_c, 0, 49, 37
2, 171012, Note_off_c, 0, 63, 64
2, 171015, Note_off_c, 0, 51, 64
2, 171029, Note_off_c, 0, 49, 64
2, 171048, Control_c, 0, 64, 0
2, 171052, Note_on_c, 0, 72, 54
2, 171052, Note_on_c, 0, 44, 58
2, 171056, Note_on_c, 0, 75, 58
2, 171056, Note_on_c, 0, 70, 56
2, 171056, Note_on_c, 0, 63, 51
2, 171080, Note_on_c, 0, 51, 31
2, 171080, Control_c, 0, 64, 127
2, 171095, Note_off_c, 0, 63, 64
2, 171099, Note_off_c, 0, 70, 64
2, 171116, Note_on_c, 0, 56, 52
2, 171132, Note_off_c, 0, 44, 64
2, 171145, Note_off_c, 0, 51, 64
2, 171153, Note_off_c, 0, 56, 64
2, 171164, Note_on_c, 0, 69, 58
2, 171165, Note_on_c, 0, 65, 52
2, 171172, Note_off_c, 0, 72, 64
2, 171174, Note_off_c, 0, 75, 64
2, 171197, Note_on_c, 0, 56, 48
2, 171199, Note_off_c, 0, 69, 64
2, 171210, Note_off_c, 0, 65, 64
2, 171235, Note_on_c, 0, 51, 56
2, 171243, Note_off_c, 0, 56, 64
2, 171270, Note_on_c, 0, 80, 61
2, 171272, Note_off_c, 0, 51, 64
2, 171272, Note_on_c, 0, 68, 65
2, 171275, Note_on_c, 0, 63, 73
2, 171276, Note_on_c, 0, 75, 51
2, 171300, Note_on_c, 0, 56, 52
2, 171307, Note_off_c, 0, 63, 64
2, 171332, Note_on_c, 0, 51, 43
2, 171336, Note_off_c, 0, 75, 64
2, 171337, Note_off_c, 0, 56, 64
2, 171357, Note_off_c, 0, 80, 64
2, 171358, Note_off_c, 0, 51, 64
2, 171358, Note_off_c, 0, 68, 64
2, 171376, Note_on_c, 0, 46, 64
2, 171377, Note_on_c, 0, 75, 61
2, 171377, Note_on_c, 0, 73, 64
2, 171377, Control_c, 0, 64, 0
2, 171382, Note_on_c, 0, 80, 64
2, 171382, Note_on_c, 0, 68, 67
2, 171407, Note_on_c, 0, 51, 46
2, 171411, Control_c, 0, 64, 127
2, 171429, Note_on_c, 0, 55, 46
2, 171436, Note_off_c, 0, 51, 64
2, 171444, Note_off_c, 0, 80, 64
2, 171456, Note_off_c, 0, 46, 64
2, 171459, Note_off_c, 0, 68, 64
2, 171463, Note_off_c, 0, 55, 64
2, 171480, Note_on_c, 0, 62, 41
2, 171482, Note_on_c, 0, 79, 56
2, 171486, Note_on_c, 0, 67, 58
2, 171501, Note_off_c, 0, 73, 64
2, 171501, Note_off_c, 0, 75, 64
2, 171503, Note_on_c, 0, 55, 44
2, 171513, Note_off_c, 0, 67, 64
2, 171520, Note_off_c, 0, 62, 64
2, 171524, Note_off_c, 0, 79, 64
2, 171553, Note_on_c, 0, 51, 22
2, 171557, Note_off_c, 0, 55, 64
2, 171588, Note_on_c, 0, 79, 51
2, 171591, Note_on_c, 0, 85, 61
2, 171591, Note_on_c, 0, 73, 62
2, 171592, Note_on_c, 0, 63, 65
2, 171593, Note_on_c, 0, 75, 60
2, 171599, Note_off_c, 0, 51, 64
2, 171618, Note_on_c, 0, 55, 44
2, 171629, Note_off_c, 0, 63, 64
2, 171648, Note_off_c, 0, 79, 64
2, 171652, Note_on_c, 0, 51, 48
2, 171654, Note_off_c, 0, 55, 64
2, 171666, Note_off_c, 0, 75, 64
2, 171671, Note_off_c, 0, 85, 64
2, 171672, Note_off_c, 0, 73, 64
2, 171689, Note_off_c, 0, 51, 64
2, 171695, Note_on_c, 0, 44, 77
2, 171697, Note_on_c, 0, 85, 64
2, 171700, Note_on_c, 0, 80, 53
2, 171700, Note_on_c, 0, 75, 64
2, 171700, Note_on_c, 0, 73, 61
2, 171700, Control_c, 0, 64, 0
2, 171732, Note_on_c, 0, 51, 49
2, 171733, Control_c, 0, 64, 127
2, 171770, Note_on_c, 0, 56, 48
2, 171775, Note_off_c, 0, 44, 64
2, 171785, Note_off_c, 0, 51, 64
2, 171810, Note_off_c, 0, 56, 64
2, 171813, Note_on_c, 0, 63, 79
2, 171832, Note_off_c, 0, 80, 64
2, 171834, Note_off_c, 0, 85, 64
2, 171837, Note_off_c, 0, 75, 64
2, 171849, Note_on_c, 0, 56, 50
2, 171863, Note_off_c, 0, 63, 64
2, 171879, Note_on_c, 0, 51, 54
2, 171883, Note_off_c, 0, 73, 64
2, 171893, Note_off_c, 0, 56, 64
2, 171921, Note_off_c, 0, 51, 64
2, 171931, Note_on_c, 0, 68, 87
2, 171935, Note_on_c, 0, 72, 58
2, 171936, Note_on_c, 0, 84, 58
2, 171939, Note_on_c, 0, 80, 58
2, 171940, Note_on_c, 0, 75, 51
2, 171972, Note_on_c, 0, 63, 24
2, 171985, Note_off_c, 0, 68, 64
2, 172000, Note_off_c, 0, 75, 64
2, 172006, Note_off_c, 0, 84, 64
2, 172012, Note_on_c, 0, 56, 51
2, 172014, Note_off_c, 0, 63, 64
2, 172015, Note_off_c, 0, 80, 64
2, 172033, Note_off_c, 0, 72, 64
2, 172047, Note_off_c, 0, 56, 64
2, 172064, Note_on_c, 0, 46, 79
2, 172068, Note_on_c, 0, 84, 77
2, 172068, Note_on_c, 0, 72, 77
2, 172069, Note_on_c, 0, 78, 77
2, 172077, Control_c, 0, 64, 0
2, 172106, Control_c, 0, 64, 127
2, 172111, Note_on_c, 0, 49, 65
2, 172120, Note_off_c, 0, 72, 64
2, 172121, Note_off_c, 0, 84, 64
2, 172142, Note_off_c, 0, 78, 64
2, 172148, Note_on_c, 0, 54, 59
2, 172149, Note_off_c, 0, 46, 64
2, 172155, Note_off_c, 0, 49, 64
2, 172182, Note_off_c, 0, 54, 64
2, 172184, Note_on_c, 0, 58, 44
2, 172186, Note_on_c, 0, 82, 60
2, 172186, Note_on_c, 0, 70, 60
2, 172187, Note_on_c, 0, 78, 60
2, 172211, Note_off_c, 0, 78, 64
2, 172212, Note_off_c, 0, 82, 64
2, 172215, Note_on_c, 0, 54, 44
2, 172219, Note_off_c, 0, 70, 64
2, 172230, Note_off_c, 0, 58, 64
2, 172245, Note_on_c, 0, 49, 44
2, 172253, Note_off_c, 0, 54, 64
2, 172287, Note_off_c, 0, 49, 64
2, 172290, Note_on_c, 0, 61, 44
2, 172292, Note_on_c, 0, 78, 60
2, 172292, Note_on_c, 0, 66, 60
2, 172296, Note_on_c, 0, 73, 60
2, 172317, Note_off_c, 0, 78, 64
2, 172321, Note_off_c, 0, 73, 64
2, 172328, Note_off_c, 0, 66, 64
2, 172332, Note_on_c, 0, 54, 44
2, 172334, Note_off_c, 0, 61, 64
2, 172356, Note_on_c, 0, 49, 44
2, 172362, Note_off_c, 0, 54, 64
2, 172388, Note_on_c, 0, 34, 65
2, 172394, Note_off_c, 0, 49, 64
2, 172410, Note_on_c, 0, 73, 60
2, 172410, Note_on_c, 0, 61, 60
2, 172415, Note_on_c, 0, 66, 60
2, 172470, Note_off_c, 0, 73, 64
2, 172480, Note_off_c, 0, 66, 64
2, 172482, Note_off_c, 0, 34, 64
2, 172487, Note_off_c, 0, 61, 64
2, 172491, Note_on_c, 0, 42, 61
2, 172532, Note_on_c, 0, 61, 61
2, 172534, Note_on_c, 0, 70, 61
2, 172534, Note_on_c, 0, 58, 61
2, 172538, Note_on_c, 0, 49, 61
2, 172541, Note_off_c, 0, 42, 64
2, 172574, Note_on_c, 0, 42, 61
2, 172581, Note_off_c, 0, 49, 64
2, 172606, Note_off_c, 0, 42, 64
2, 172608, Note_on_c, 0, 49, 61
2, 172628, Note_off_c, 0, 61, 64
2, 172645, Note_off_c, 0, 70, 64
2, 172647, Note_on_c, 0, 42, 61
2, 172652, Note_off_c, 0, 49, 64
2, 172665, Note_off_c, 0, 58, 64
2, 172681, Note_off_c, 0, 42, 64
2, 172689, Note_on_c, 0, 49, 61
2, 172722, Note_on_c, 0, 56, 61
2, 172722, Note_on_c, 0, 42, 61
2, 172724, Note_on_c, 0, 68, 61
2, 172733, Note_off_c, 0, 49, 64
2, 172744, Note_off_c, 0, 56, 64
2, 172746, Note_off_c, 0, 68, 64
2, 172753, Note_off_c, 0, 42, 64
2, 172756, Note_on_c, 0, 34, 75
2, 172760, Note_on_c, 0, 68, 61
2, 172760, Note_on_c, 0, 56, 61
2, 172762, Note_on_c, 0, 61, 61
2, 172771, Control_c, 0, 64, 0
2, 172805, Control_c, 0, 64, 127
2, 172848, Note_on_c, 0, 42, 61
2, 172856, Note_off_c, 0, 34, 64
2, 172886, Note_on_c, 0, 49, 61
2, 172889, Note_off_c, 0, 42, 64
2, 172911, Note_off_c, 0, 68, 64
2, 172913, Note_off_c, 0, 61, 64
2, 172919, Note_on_c, 0, 42, 61
2, 172920, Note_off_c, 0, 56, 64
2, 172927, Note_off_c, 0, 49, 64
2, 172961, Note_on_c, 0, 49, 61
2, 172962, Note_off_c, 0, 42, 64
2, 172983, Note_on_c, 0, 66, 62
2, 172983, Note_on_c, 0, 54, 62
2, 172986, Note_on_c, 0, 61, 62
2, 173001, Note_on_c, 0, 42, 62
2, 173010, Note_off_c, 0, 49, 64
2, 173028, Note_on_c, 0, 49, 62
2, 173030, Note_off_c, 0, 42, 64
2, 173054, Note_on_c, 0, 42, 62
2, 173072, Note_off_c, 0, 49, 64
2, 173084, Note_on_c, 0, 34, 76
2, 173087, Note_off_c, 0, 42, 64
2, 173094, Control_c, 0, 64, 0
2, 173119, Control_c, 0, 64, 127
2, 173141, Note_on_c, 0, 42, 62
2, 173148, Note_off_c, 0, 61, 64
2, 173166, Note_off_c, 0, 54, 64
2, 173174, Note_off_c, 0, 66, 64
2, 173184, Note_on_c, 0, 49, 62
2, 173187, Note_off_c, 0, 42, 64
2, 173196, Note_on_c, 0, 65, 62
2, 173196, Note_on_c, 0, 61, 62
2, 173198, Note_on_c, 0, 53, 62
2, 173205, Control_c, 0, 64, 0
2, 173222, Control_c, 0, 64, 127
2, 173228, Note_on_c, 0, 42, 62
2, 173232, Note_off_c, 0, 49, 64
2, 173262, Note_off_c, 0, 42, 64
2, 173262, Note_on_c, 0, 49, 63
2, 173296, Note_off_c, 0, 53, 64
2, 173301, Note_off_c, 0, 49, 64
2, 173301, Note_on_c, 0, 42, 63
2, 173316, Note_off_c, 0, 61, 64
2, 173319, Note_off_c, 0, 34, 64
2, 173321, Note_off_c, 0, 65, 64
2, 173327, Note_on_c, 0, 49, 63
2, 173339, Note_off_c, 0, 42, 64
2, 173353, Note_on_c, 0, 66, 63
2, 173354, Note_on_c, 0, 54, 63
2, 173358, Note_on_c, 0, 61, 63
2, 173359, Note_on_c, 0, 42, 63
2, 173381, Note_off_c, 0, 61, 64
2, 173381, Note_off_c, 0, 54, 64
2, 173387, Note_off_c, 0, 49, 64
2, 173388, Note_off_c, 0, 66, 64
2, 173392, Note_off_c, 0, 42, 64
2, 173408, Note_on_c, 0, 65, 63
2, 173409, Note_on_c, 0, 67, 63
2, 173409, Note_on_c, 0, 61, 63
2, 173409, Note_on_c, 0, 55, 63
2, 173412, Note_on_c, 0, 34, 78
2, 173422, Control_c, 0, 64, 0
2, 173475, Control_c, 0, 64, 127
2, 173513, Note_off_c, 0, 34, 64
2, 173514, Note_on_c, 0, 41, 64
2, 173546, Note_on_c, 0, 49, 64
2, 173550, Note_off_c, 0, 61, 64
2, 173556, Note_off_c, 0, 65, 64
2, 173557, Note_off_c, 0, 41, 64
2, 173561, Note_off_c, 0, 67, 64
2, 173565, Note_off_c, 0, 55, 64
2, 173585, Note_on_c, 0, 41, 64
2, 173588, Note_off_c, 0, 49, 64
2, 173626, Note_off_c, 0, 41, 64
2, 173636, Note_on_c, 0, 49, 64
2, 173641, Note_on_c, 0, 67, 64
2, 173644, Note_on_c, 0, 61, 64
2, 173645, Note_on_c, 0, 55, 64
2, 173646, Note_on_c, 0, 65, 64
2, 173680, Note_on_c, 0, 41, 64
2, 173683, Note_off_c, 0, 67, 64
2, 173686, Note_off_c, 0, 55, 64
2, 173686, Note_off_c, 0, 61, 64
2, 173689, Note_off_c, 0, 49, 64
2, 173690, Note_off_c, 0, 65, 64
2, 173732, Note_off_c, 0, 41, 64
2, 173752, Note_on_c, 0, 56, 64
2, 173758, Note_on_c, 0, 68, 64
2, 173762, Note_on_c, 0, 65, 64
2, 173766, Note_on_c, 0, 36, 90
2, 173771, Control_c, 0, 64, 0
2, 173838, Note_on_c, 0, 41, 60
2, 173853, Note_off_c, 0, 36, 64
2, 173868, Control_c, 0, 64, 127
2, 173887, Note_off_c, 0, 41, 64
2, 173889, Note_on_c, 0, 48, 68
2, 173899, Note_off_c, 0, 56, 64
2, 173909, Note_off_c, 0, 65, 64
2, 173916, Note_off_c, 0, 48, 64
2, 173917, Note_off_c, 0, 68, 64
2, 173929, Note_on_c, 0, 49, 59
2, 173955, Note_on_c, 0, 50, 61
2, 173959, Note_off_c, 0, 49, 64
2, 173985, Note_on_c, 0, 51, 61
2, 173992, Note_off_c, 0, 50, 64
2, 173994, Note_on_c, 0, 65, 69
2, 173998, Note_on_c, 0, 69, 73
2, 173998, Note_on_c, 0, 57, 73
2, 174020, Note_off_c, 0, 57, 64
2, 174028, Note_off_c, 0, 65, 64
2, 174032, Note_on_c, 0, 52, 62
2, 174034, Note_off_c, 0, 51, 64
2, 174039, Note_off_c, 0, 69, 64
2, 174053, Note_on_c, 0, 53, 62
2, 174058, Note_off_c, 0, 52, 64
2, 174075, Note_off_c, 0, 53, 64
2, 174114, Note_on_c, 0, 72, 82
2, 174117, Note_on_c, 0, 60, 77
2, 174119, Note_on_c, 0, 65, 81
2, 174121, Control_c, 0, 64, 0
2, 174124, Note_on_c, 0, 37, 76
2, 174190, Control_c, 0, 64, 127
2, 174197, Note_on_c, 0, 45, 51
2, 174200, Note_off_c, 0, 37, 64
2, 174240, Note_off_c, 0, 45, 64
2, 174240, Note_on_c, 0, 48, 58
2, 174244, Note_off_c, 0, 60, 64
2, 174251, Note_off_c, 0, 72, 64
2, 174270, Note_off_c, 0, 48, 64
2, 174273, Note_off_c, 0, 65, 64
2, 174273, Note_on_c, 0, 49, 59
2, 174305, Note_on_c, 0, 50, 61
2, 174306, Note_off_c, 0, 49, 64
2, 174333, Control_c, 0, 64, 0
2, 174340, Note_on_c, 0, 51, 62
2, 174345, Note_on_c, 0, 70, 82
2, 174345, Note_on_c, 0, 58, 76
2, 174349, Note_off_c, 0, 50, 64
2, 174349, Note_on_c, 0, 65, 77
2, 174358, Control_c, 0, 64, 127
2, 174384, Note_off_c, 0, 58, 64
2, 174384, Note_on_c, 0, 52, 62
2, 174386, Note_off_c, 0, 65, 64
2, 174387, Note_off_c, 0, 51, 64
2, 174401, Note_off_c, 0, 70, 64
2, 174410, Note_on_c, 0, 53, 62
2, 174416, Note_off_c, 0, 52, 64
2, 174442, Note_off_c, 0, 53, 64
2, 174461, Note_on_c, 0, 73, 84
2, 174461, Note_on_c, 0, 40, 79
2, 174462, Note_on_c, 0, 61, 81
2, 174464, Note_on_c, 0, 67, 80
2, 174473, Control_c, 0, 64, 0
2, 174502, Control_c, 0, 64, 127
2, 174537, Note_on_c, 0, 48, 59
2, 174545, Note_off_c, 0, 73, 64
2, 174546, Note_off_c, 0, 67, 64
2, 174553, Note_off_c, 0, 61, 64
2, 174563, Note_off_c, 0, 40, 64
2, 174574, Note_on_c, 0, 50, 61
2, 174576, Note_off_c, 0, 48, 64
2, 174580, Note_on_c, 0, 71, 73
2, 174582, Note_on_c, 0, 59, 73
2, 174583, Note_on_c, 0, 67, 68
2, 174605, Note_off_c, 0, 59, 64
2, 174606, Note_off_c, 0, 50, 64
2, 174609, Note_on_c, 0, 51, 61
2, 174628, Note_off_c, 0, 71, 64
2, 174639, Note_on_c, 0, 52, 62
2, 174647, Note_off_c, 0, 51, 64
2, 174661, Note_off_c, 0, 67, 64
2, 174666, Note_on_c, 0, 53, 62
2, 174673, Note_off_c, 0, 52, 64
2, 174685, Note_on_c, 0, 72, 80
2, 174685, Note_on_c, 0, 68, 71
2, 174685, Note_on_c, 0, 60, 76
2, 174696, Note_on_c, 0, 54, 63
2, 174701, Note_off_c, 0, 53, 64
2, 174713, Note_off_c, 0, 60, 64
2, 174722, Note_off_c, 0, 72, 64
2, 174726, Note_off_c, 0, 68, 64
2, 174730, Note_off_c, 0, 54, 64
2, 174735, Note_on_c, 0, 55, 64
2, 174767, Note_off_c, 0, 55, 64
2, 174788, Note_on_c, 0, 75, 83
2, 174791, Note_on_c, 0, 68, 82
2, 174791, Note_on_c, 0, 63, 84
2, 174794, Note_on_c, 0, 41, 85
2, 174801, Control_c, 0, 64, 0
2, 174869, Note_on_c, 0, 49, 59
2, 174890, Control_c, 0, 64, 127
2, 174904, Note_on_c, 0, 51, 61
2, 174908, Note_off_c, 0, 41, 64
2, 174922, Note_off_c, 0, 49, 64
2, 174927, Note_off_c, 0, 63, 64
2, 174933, Note_off_c, 0, 75, 64
2, 174934, Note_off_c, 0, 68, 64
2, 174939, Note_on_c, 0, 52, 62
2, 174943, Note_off_c, 0, 51, 64
2, 174972, Note_on_c, 0, 53, 62
2, 174977, Note_off_c, 0, 52, 64
2, 174999, Control_c, 0, 64, 0
2, 175010, Note_off_c, 0, 53, 64
2, 175011, Note_on_c, 0, 73, 80
2, 175011, Note_on_c, 0, 61, 79
2, 175012, Note_on_c, 0, 54, 63
2, 175014, Note_on_c, 0, 68, 81
2, 175030, Control_c, 0, 64, 127
2, 175038, Note_off_c, 0, 54, 64
2, 175038, Note_on_c, 0, 55, 63
2, 175072, Note_on_c, 0, 56, 64
2, 175076, Note_off_c, 0, 55, 64
2, 175104, Note_off_c, 0, 56, 64
2, 175107, Note_off_c, 0, 61, 64
2, 175115, Note_off_c, 0, 73, 64
2, 175127, Note_on_c, 0, 43, 90
2, 175128, Note_off_c, 0, 68, 64
2, 175134, Control_c, 0, 64, 0
2, 175191, Note_on_c, 0, 51, 62
2, 175217, Control_c, 0, 64, 127
2, 175226, Note_off_c, 0, 43, 64
2, 175233, Note_on_c, 0, 75, 79
2, 175233, Note_on_c, 0, 53, 62
2, 175234, Note_on_c, 0, 63, 70
2, 175237, Note_off_c, 0, 51, 64
2, 175238, Note_on_c, 0, 72, 73
2, 175267, Note_on_c, 0, 54, 63
2, 175268, Note_off_c, 0, 53, 64
2, 175281, Note_off_c, 0, 72, 64
2, 175290, Note_off_c, 0, 75, 64
2, 175294, Note_off_c, 0, 63, 64
2, 175315, Note_off_c, 0, 54, 64
2, 175320, Note_on_c, 0, 55, 64
2, 175343, Note_on_c, 0, 76, 73
2, 175344, Note_on_c, 0, 72, 76
2, 175344, Note_on_c, 0, 64, 71
2, 175349, Note_on_c, 0, 56, 65
2, 175352, Note_off_c, 0, 55, 64
2, 175376, Note_on_c, 0, 57, 65
2, 175378, Note_off_c, 0, 64, 64
2, 175380, Note_off_c, 0, 56, 64
2, 175384, Note_off_c, 0, 72, 64
2, 175392, Note_off_c, 0, 76, 64
2, 175411, Note_off_c, 0, 57, 64
2, 175412, Note_on_c, 0, 58, 66
2, 175444, Note_off_c, 0, 58, 64
2, 175464, Note_on_c, 0, 77, 80
2, 175464, Note_on_c, 0, 72, 80
2, 175464, Note_on_c, 0, 65, 76
2, 175464, Note_on_c, 0, 44, 90
2, 175469, Control_c, 0, 64, 0
2, 175493, Control_c, 0, 64, 127
2, 175503, Note_on_c, 0, 53, 73
2, 175509, Note_on_c, 0, 75, 54
2, 175510, Note_off_c, 0, 77, 64
2, 175517, Note_off_c, 0, 44, 64
2, 175528, Note_on_c, 0, 56, 86
2, 175536, Note_off_c, 0, 65, 64
2, 175546, Note_on_c, 0, 73, 72
2, 175549, Note_off_c, 0, 53, 64
2, 175555, Note_off_c, 0, 72, 64
2, 175557, Note_off_c, 0, 75, 64
2, 175570, Note_off_c, 0, 73, 64
2, 175575, Note_off_c, 0, 56, 64
2, 175587, Note_on_c, 0, 82, 79
2, 175588, Note_on_c, 0, 61, 91
2, 175591, Note_on_c, 0, 73, 84
2, 175593, Note_on_c, 0, 70, 80
2, 175620, Note_on_c, 0, 56, 88
2, 175628, Note_off_c, 0, 61, 64
2, 175644, Note_off_c, 0, 82, 64
2, 175648, Note_off_c, 0, 70, 64
2, 175652, Note_on_c, 0, 65, 79
2, 175654, Note_off_c, 0, 56, 64
2, 175660, Note_off_c, 0, 73, 64
2, 175704, Note_on_c, 0, 68, 90
2, 175704, Note_on_c, 0, 61, 65
2, 175705, Note_on_c, 0, 80, 86
2, 175708, Note_on_c, 0, 77, 75
2, 175711, Note_off_c, 0, 65, 64
2, 175756, Note_on_c, 0, 56, 71
2, 175773, Note_off_c, 0, 61, 64
2, 175775, Note_off_c, 0, 80, 64
2, 175778, Note_off_c, 0, 77, 64
2, 175782, Note_off_c, 0, 68, 64
2, 175788, Note_on_c, 0, 51, 68
2, 175798, Note_off_c, 0, 56, 64
2, 175822, Note_on_c, 0, 80, 86
2, 175823, Control_c, 0, 64, 0
2, 175826, Note_on_c, 0, 66, 86
2, 175828, Note_on_c, 0, 32, 109
2, 175831, Note_on_c, 0, 72, 73
2, 175834, Note_off_c, 0, 51, 64
2, 175842, Control_c, 0, 64, 127
2, 175863, Note_on_c, 0, 44, 67
2, 175895, Note_on_c, 0, 51, 83
2, 175924, Note_off_c, 0, 44, 64
2, 175932, Note_on_c, 0, 60, 98
2, 175937, Note_off_c, 0, 51, 64
2, 175978, Note_on_c, 0, 56, 80
2, 175981, Note_off_c, 0, 60, 64
2, 176002, Note_off_c, 0, 66, 64
2, 176016, Note_off_c, 0, 80, 64
2, 176022, Note_on_c, 0, 66, 86
2, 176025, Note_off_c, 0, 72, 64
2, 176067, Note_off_c, 0, 32, 64
2, 176072, Note_off_c, 0, 56, 64
2, 176075, Note_off_c, 0, 66, 64
2, 176076, Note_on_c, 0, 78, 80
2, 176079, Note_on_c, 0, 72, 84
2, 176080, Note_on_c, 0, 66, 92
2, 176080, Note_on_c, 0, 60, 73
2, 176124, Note_on_c, 0, 56, 80
2, 176154, Note_off_c, 0, 60, 64
2, 176173, Note_off_c, 0, 56, 64
2, 176185, Note_on_c, 0, 51, 98
2, 176199, Note_off_c, 0, 72, 64
2, 176224, Note_off_c, 0, 78, 64
2, 176229, Note_off_c, 0, 66, 64
2, 176251, Note_off_c, 0, 51, 64
2, 176273, Note_on_c, 0, 77, 79
2, 176275, Note_on_c, 0, 37, 79
2, 176277, Note_on_c, 0, 73, 79
2, 176277, Note_on_c, 0, 65, 79
2, 176284, Control_c, 0, 64, 0
2, 176317, Control_c, 0, 64, 127
2, 176364, Note_on_c, 0, 44, 74
2, 176387, Note_off_c, 0, 37, 64
2, 176405, Note_off_c, 0, 44, 64
2, 176405, Note_on_c, 0, 49, 86
2, 176417, Note_off_c, 0, 77, 64
2, 176420, Note_off_c, 0, 73, 64
2, 176423, Note_off_c, 0, 65, 64
2, 176424, Note_off_c, 0, 49, 64
2, 176447, Note_on_c, 0, 49, 88
2, 176457, Note_on_c, 0, 65, 69
2, 176486, Note_on_c, 0, 68, 73
2, 176491, Note_off_c, 0, 49, 64
2, 176491, Note_on_c, 0, 56, 43
2, 176510, Note_off_c, 0, 65, 64
2, 176517, Note_off_c, 0, 56, 64
2, 176517, Note_on_c, 0, 61, 80
2, 176524, Note_off_c, 0, 68, 64
2, 176526, Note_on_c, 0, 77, 73
2, 176539, Note_off_c, 0, 61, 64
2, 176545, Note_off_c, 0, 77, 64
2, 176562, Note_on_c, 0, 77, 88
2, 176565, Note_on_c, 0, 61, 84
2, 176594, Note_on_c, 0, 80, 58
2, 176599, Note_on_c, 0, 68, 73
2, 176602, Note_off_c, 0, 61, 64
2, 176616, Note_off_c, 0, 77, 64
2, 176633, Note_off_c, 0, 68, 64
2, 176633, Note_on_c, 0, 89, 79
2, 176636, Note_on_c, 0, 73, 98
2, 176640, Note_off_c, 0, 80, 64
2, 176667, Note_on_c, 0, 80, 86
2, 176673, Note_on_c, 0, 68, 70
2, 176680, Note_off_c, 0, 73, 64
2, 176686, Note_off_c, 0, 89, 64
2, 176701, Note_on_c, 0, 77, 88
2, 176703, Note_on_c, 0, 61, 88
2, 176706, Note_off_c, 0, 68, 64
2, 176706, Note_off_c, 0, 80, 64
2, 176717, Note_off_c, 0, 77, 64
2, 176719, Note_off_c, 0, 61, 64
2, 176741, Note_on_c, 0, 61, 100
2, 176742, Note_on_c, 0, 77, 88
2, 176779, Note_on_c, 0, 56, 59
2, 176783, Note_on_c, 0, 68, 76
2, 176790, Note_off_c, 0, 77, 64
2, 176791, Note_off_c, 0, 61, 64
2, 176806, Note_on_c, 0, 49, 82
2, 176810, Note_off_c, 0, 56, 64
2, 176810, Note_on_c, 0, 65, 84
2, 176811, Note_off_c, 0, 68, 64
2, 176821, Note_off_c, 0, 49, 64
2, 176828, Note_off_c, 0, 65, 64
2, 176847, Note_on_c, 0, 49, 94
2, 176852, Note_on_c, 0, 65, 69
2, 176881, Note_on_c, 0, 44, 67
2, 176888, Note_off_c, 0, 49, 64
2, 176898, Note_off_c, 0, 65, 64
2, 176900, Note_on_c, 0, 56, 68
2, 176915, Note_off_c, 0, 56, 64
2, 176916, Note_on_c, 0, 53, 60
2, 176945, Note_off_c, 0, 44, 64
2, 176958, Control_c, 0, 64, 0
2, 176962, Note_off_c, 0, 53, 64
2, 176962, Note_on_c, 0, 37, 97
2, 176965, Note_on_c, 0, 65, 90
2, 176994, Note_on_c, 0, 53, 47
2, 176998, Control_c, 0, 64, 127
2, 177030, Note_on_c, 0, 57, 69
2, 177033, Note_off_c, 0, 65, 64
2, 177051, Note_off_c, 0, 53, 64
2, 177057, Note_on_c, 0, 45, 67
2, 177074, Note_on_c, 0, 65, 83
2, 177081, Note_off_c, 0, 37, 64
2, 177083, Note_off_c, 0, 57, 64
2, 177090, Note_off_c, 0, 45, 64
2, 177091, Note_on_c, 0, 49, 69
2, 177096, Note_off_c, 0, 65, 64
2, 177108, Note_off_c, 0, 49, 64
2, 177116, Note_on_c, 0, 65, 84
2, 177131, Note_on_c, 0, 49, 84
2, 177147, Note_on_c, 0, 69, 68
2, 177161, Note_on_c, 0, 57, 65
2, 177166, Note_off_c, 0, 65, 64
2, 177167, Note_off_c, 0, 49, 64
2, 177181, Note_on_c, 0, 77, 68
2, 177187, Note_off_c, 0, 69, 64
2, 177192, Note_off_c, 0, 57, 64
2, 177192, Note_on_c, 0, 61, 82
2, 177203, Note_off_c, 0, 77, 64
2, 177215, Note_off_c, 0, 61, 64
2, 177221, Note_on_c, 0, 77, 87
2, 177237, Note_on_c, 0, 61, 71
2, 177252, Note_on_c, 0, 81, 67
2, 177263, Note_on_c, 0, 69, 67
2, 177264, Note_off_c, 0, 77, 64
2, 177268, Note_off_c, 0, 61, 64
2, 177290, Note_on_c, 0, 89, 98
2, 177293, Note_off_c, 0, 81, 64
2, 177295, Note_on_c, 0, 73, 101
2, 177297, Note_off_c, 0, 69, 64
2, 177324, Note_on_c, 0, 81, 83
2, 177326, Note_on_c, 0, 69, 74
2, 177335, Note_off_c, 0, 73, 64
2, 177340, Note_off_c, 0, 89, 64
2, 177354, Note_on_c, 0, 77, 80
2, 177358, Note_on_c, 0, 61, 86
2, 177361, Note_off_c, 0, 69, 64
2, 177361, Note_off_c, 0, 81, 64
2, 177372, Note_off_c, 0, 77, 64
2, 177373, Note_off_c, 0, 61, 64
2, 177395, Note_on_c, 0, 77, 80
2, 177396, Note_on_c, 0, 61, 105
2, 177423, Note_on_c, 0, 57, 73
2, 177426, Note_on_c, 0, 69, 68
2, 177434, Note_off_c, 0, 61, 64
2, 177437, Note_off_c, 0, 77, 64
2, 177450, Note_on_c, 0, 49, 94
2, 177452, Note_on_c, 0, 65, 79
2, 177457, Note_off_c, 0, 69, 64
2, 177460, Note_off_c, 0, 57, 64
2, 177471, Note_off_c, 0, 49, 64
2, 177473, Note_off_c, 0, 65, 64
2, 177493, Note_on_c, 0, 65, 86
2, 177495, Note_on_c, 0, 49, 91
2, 177521, Note_on_c, 0, 45, 73
2, 177529, Note_on_c, 0, 57, 75
2, 177541, Note_off_c, 0, 65, 64
2, 177556, Note_off_c, 0, 49, 64
2, 177562, Note_on_c, 0, 53, 66
2, 177562, Note_on_c, 0, 37, 100
2, 177564, Note_off_c, 0, 57, 64
2, 177597, Note_off_c, 0, 45, 64
2, 177600, Note_off_c, 0, 53, 64
2, 177603, Note_on_c, 0, 65, 107
2, 177608, Control_c, 0, 64, 0
2, 177639, Note_on_c, 0, 53, 80
2, 177645, Control_c, 0, 64, 127
2, 177657, Note_off_c, 0, 65, 64
2, 177670, Note_on_c, 0, 58, 87
2, 177672, Note_on_c, 0, 46, 79
2, 177699, Note_off_c, 0, 53, 64
2, 177700, Note_off_c, 0, 37, 64
2, 177704, Note_on_c, 0, 65, 86
2, 177706, Note_on_c, 0, 49, 88
2, 177709, Note_off_c, 0, 46, 64
2, 177713, Note_off_c, 0, 58, 64
2, 177722, Note_off_c, 0, 49, 64
2, 177725, Note_off_c, 0, 65, 64
2, 177743, Note_on_c, 0, 65, 92
2, 177748, Note_on_c, 0, 49, 94
2, 177770, Note_on_c, 0, 70, 73
2, 177777, Note_on_c, 0, 58, 79
2, 177786, Note_off_c, 0, 49, 64
2, 177797, Note_off_c, 0, 65, 64
2, 177808, Note_on_c, 0, 77, 76
2, 177810, Note_off_c, 0, 58, 64
2, 177812, Note_on_c, 0, 61, 103
2, 177816, Note_off_c, 0, 70, 64
2, 177827, Note_off_c, 0, 61, 64
2, 177830, Note_off_c, 0, 77, 64
2, 177846, Note_on_c, 0, 77, 91
2, 177860, Note_on_c, 0, 61, 86
2, 177879, Note_on_c, 0, 70, 71
2, 177881, Note_on_c, 0, 82, 36
2, 177885, Note_off_c, 0, 61, 64
2, 177903, Note_off_c, 0, 77, 64
2, 177914, Note_off_c, 0, 70, 64
2, 177917, Note_on_c, 0, 89, 97
2, 177918, Note_on_c, 0, 73, 108
2, 177923, Note_off_c, 0, 82, 64
2, 177948, Note_on_c, 0, 70, 80
2, 177949, Note_on_c, 0, 82, 91
2, 177955, Note_off_c, 0, 73, 64
2, 177963, Note_off_c, 0, 89, 64
2, 177978, Note_on_c, 0, 77, 88
2, 177978, Note_on_c, 0, 61, 90
2, 177980, Note_off_c, 0, 82, 64
2, 177982, Note_off_c, 0, 70, 64
2, 177990, Note_off_c, 0, 61, 64
2, 177993, Note_off_c, 0, 77, 64
2, 178017, Note_on_c, 0, 77, 88
2, 178017, Note_on_c, 0, 61, 107
2, 178045, Note_on_c, 0, 70, 75
2, 178047, Note_on_c, 0, 58, 77
2, 178056, Note_off_c, 0, 77, 64
2, 178057, Note_off_c, 0, 61, 64
2, 178074, Note_on_c, 0, 49, 94
2, 178076, Note_on_c, 0, 65, 73
2, 178078, Note_off_c, 0, 58, 64
2, 178078, Note_off_c, 0, 70, 64
2, 178089, Note_off_c, 0, 49, 64
2, 178095, Note_off_c, 0, 65, 64
2, 178114, Note_on_c, 0, 65, 86
2, 178115, Note_on_c, 0, 49, 92
2, 178140, Note_on_c, 0, 46, 74
2, 178145, Note_on_c, 0, 58, 79
2, 178154, Note_off_c, 0, 65, 64
2, 178156, Note_off_c, 0, 49, 64
2, 178156, Note_on_c, 0, 37, 109
2, 178178, Note_on_c, 0, 37, 109
2, 178182, Note_off_c, 0, 58, 64
2, 178182, Note_on_c, 0, 53, 84
2, 178185, Note_off_c, 0, 46, 64
2, 178195, Note_off_c, 0, 37, 64
2, 178206, Control_c, 0, 64, 0
2, 178216, Note_off_c, 0, 53, 64
2, 178218, Note_on_c, 0, 67, 94
2, 178247, Note_on_c, 0, 53, 80
2, 178276, Note_on_c, 0, 59, 73
2, 178276, Note_on_c, 0, 43, 76
2, 178277, Control_c, 0, 64, 127
2, 178282, Note_off_c, 0, 37, 64
2, 178295, Note_off_c, 0, 53, 64
2, 178298, Note_off_c, 0, 67, 64
2, 178303, Note_on_c, 0, 49, 90
2, 178308, Note_on_c, 0, 67, 92
2, 178310, Note_off_c, 0, 43, 64
2, 178316, Note_off_c, 0, 59, 64
2, 178323, Note_off_c, 0, 49, 64
2, 178345, Note_on_c, 0, 65, 94
2, 178345, Note_on_c, 0, 49, 90
2, 178371, Note_on_c, 0, 71, 67
2, 178386, Note_off_c, 0, 49, 64
2, 178387, Note_on_c, 0, 55, 77
2, 178390, Note_off_c, 0, 65, 64
2, 178402, Note_on_c, 0, 79, 67
2, 178406, Note_on_c, 0, 61, 69
2, 178411, Note_off_c, 0, 71, 64
2, 178413, Note_off_c, 0, 55, 64
2, 178415, Note_off_c, 0, 67, 64
2, 178432, Note_off_c, 0, 61, 64
2, 178440, Note_on_c, 0, 77, 87
2, 178452, Note_on_c, 0, 61, 88
2, 178469, Note_on_c, 0, 83, 69
2, 178478, Note_off_c, 0, 61, 64
2, 178478, Note_on_c, 0, 67, 64
2, 178482, Note_off_c, 0, 77, 64
2, 178503, Note_on_c, 0, 73, 101
2, 178506, Note_on_c, 0, 91, 90
2, 178511, Note_off_c, 0, 67, 64
2, 178512, Note_off_c, 0, 83, 64
2, 178521, Note_off_c, 0, 79, 64
2, 178535, Note_on_c, 0, 83, 88
2, 178537, Note_on_c, 0, 67, 70
2, 178542, Note_off_c, 0, 73, 64
2, 178551, Note_off_c, 0, 91, 64
2, 178565, Note_off_c, 0, 67, 64
2, 178565, Note_on_c, 0, 77, 86
2, 178565, Note_on_c, 0, 61, 46
2, 178570, Note_off_c, 0, 83, 64
2, 178576, Note_off_c, 0, 61, 64
2, 178583, Note_off_c, 0, 77, 64
2, 178602, Note_on_c, 0, 79, 87
2, 178605, Note_on_c, 0, 61, 86
2, 178628, Note_on_c, 0, 71, 69
2, 178635, Note_on_c, 0, 55, 73
2, 178647, Note_off_c, 0, 61, 64
2, 178655, Note_on_c, 0, 49, 81
2, 178667, Note_off_c, 0, 55, 64
2, 178669, Note_off_c, 0, 71, 64
2, 178669, Note_on_c, 0, 65, 82
2, 178675, Note_off_c, 0, 49, 64
2, 178685, Note_off_c, 0, 65, 64
2, 178705, Note_on_c, 0, 67, 87
2, 178706, Note_on_c, 0, 49, 91
2, 178721, Note_off_c, 0, 79, 64
2, 178728, Note_on_c, 0, 59, 80
2, 178731, Note_on_c, 0, 43, 71
2, 178753, Note_on_c, 0, 37, 71
2, 178760, Note_on_c, 0, 53, 79
2, 178762, Note_off_c, 0, 49, 64
2, 178764, Note_off_c, 0, 59, 64
2, 178766, Note_off_c, 0, 43, 64
2, 178778, Note_off_c, 0, 67, 64
2, 178783, Note_off_c, 0, 53, 64
2, 178787, Note_off_c, 0, 37, 64
2, 178815, Note_on_c, 0, 36, 83
2, 178818, Control_c, 0, 64, 0
2, 178820, Note_on_c, 0, 65, 68
2, 178822, Note_on_c, 0, 68, 88
2, 178822, Note_on_c, 0, 60, 86
2, 178822, Note_on_c, 0, 48, 97
2, 178822, Note_on_c, 0, 44, 82
2, 178825, Note_on_c, 0, 56, 100
2, 178841, Note_on_c, 0, 41, 25
2, 178854, Control_c, 0, 64, 127
2, 178878, Note_off_c, 0, 36, 64
2, 178920, Note_off_c, 0, 48, 64
2, 178923, Note_off_c, 0, 41, 64
2, 178925, Note_off_c, 0, 44, 64
2, 178931, Note_off_c, 0, 68, 64
2, 178935, Note_off_c, 0, 60, 64
2, 178939, Note_off_c, 0, 56, 64
2, 178940, Note_off_c, 0, 65, 64
2, 178950, Note_on_c, 0, 36, 94
2, 178951, Control_c, 0, 64, 0
2, 178999, Note_on_c, 0, 48, 82
2, 179036, Note_on_c, 0, 53, 79
2, 179038, Note_on_c, 0, 41, 73
2, 179056, Note_off_c, 0, 48, 64
2, 179072, Note_on_c, 0, 56, 74
2, 179074, Note_on_c, 0, 44, 71
2, 179078, Note_off_c, 0, 36, 64
2, 179079, Control_c, 0, 64, 127
2, 179092, Note_off_c, 0, 41, 64
2, 179100, Note_off_c, 0, 53, 64
2, 179101, Note_on_c, 0, 47, 86
2, 179105, Note_on_c, 0, 59, 79
2, 179106, Note_off_c, 0, 44, 64
2, 179112, Note_off_c, 0, 56, 64
2, 179113, Note_off_c, 0, 47, 64
2, 179118, Note_off_c, 0, 59, 64
2, 179137, Note_on_c, 0, 60, 88
2, 179137, Note_on_c, 0, 48, 90
2, 179154, Control_c, 0, 64, 0
2, 179168, Note_on_c, 0, 65, 75
2, 179176, Note_on_c, 0, 53, 73
2, 179193, Note_off_c, 0, 60, 64
2, 179200, Note_on_c, 0, 68, 69
2, 179200, Note_on_c, 0, 56, 66
2, 179204, Control_c, 0, 64, 127
2, 179209, Note_off_c, 0, 48, 64
2, 179218, Note_off_c, 0, 53, 64
2, 179229, Note_on_c, 0, 59, 82
2, 179230, Note_off_c, 0, 65, 64
2, 179230, Note_on_c, 0, 71, 73
2, 179233, Note_off_c, 0, 56, 64
2, 179238, Note_off_c, 0, 68, 64
2, 179243, Note_off_c, 0, 59, 64
2, 179247, Note_off_c, 0, 71, 64
2, 179264, Note_on_c, 0, 72, 86
2, 179264, Note_on_c, 0, 60, 88
2, 179288, Note_on_c, 0, 77, 68
2, 179297, Note_on_c, 0, 65, 66
2, 179308, Note_off_c, 0, 72, 64
2, 179316, Note_on_c, 0, 68, 79
2, 179319, Note_on_c, 0, 80, 67
2, 179331, Note_off_c, 0, 60, 64
2, 179332, Note_off_c, 0, 65, 64
2, 179343, Note_on_c, 0, 71, 69
2, 179347, Note_off_c, 0, 68, 64
2, 179348, Note_on_c, 0, 83, 70
2, 179351, Note_off_c, 0, 77, 64
2, 179359, Note_off_c, 0, 80, 64
2, 179363, Note_off_c, 0, 71, 64
2, 179366, Note_off_c, 0, 83, 64
2, 179379, Note_on_c, 0, 72, 76
2, 179384, Note_on_c, 0, 84, 88
2, 179398, Note_on_c, 0, 77, 68
2, 179407, Note_off_c, 0, 72, 64
2, 179408, Note_on_c, 0, 89, 61
2, 179441, Note_on_c, 0, 92, 97
2, 179442, Note_on_c, 0, 80, 98
2, 179447, Note_off_c, 0, 84, 64
2, 179450, Note_off_c, 0, 77, 64
2, 179451, Note_off_c, 0, 89, 64
2, 179454, Note_off_c, 0, 92, 64
2, 179457, Note_off_c, 0, 80, 64
2, 179545, Control_c, 0, 64, 0
2, 179556, Note_on_c, 0, 73, 103
2, 179556, Note_on_c, 0, 65, 68
2, 179558, Note_on_c, 0, 77, 87
2, 179560, Note_on_c, 0, 61, 68
2, 179560, Note_on_c, 0, 49, 80
2, 179578, Note_off_c, 0, 73, 64
2, 179578, Control_c, 0, 64, 127
2, 179580, Note_off_c, 0, 77, 64
2, 179586, Note_off_c, 0, 49, 64
2, 179586, Note_off_c, 0, 65, 64
2, 179590, Note_off_c, 0, 61, 64
2, 179650, Control_c, 0, 64, 0
2, 179660, Note_on_c, 0, 73, 87
2, 179660, Note_on_c, 0, 61, 68
2, 179660, Note_on_c, 0, 56, 80
2, 179660, Note_on_c, 0, 53, 80
2, 179663, Note_on_c, 0, 68, 84
2, 179663, Note_on_c, 0, 59, 84
2, 179663, Note_on_c, 0, 47, 82
2, 179677, Note_off_c, 0, 68, 64
2, 179682, Note_off_c, 0, 53, 64
2, 179682, Control_c, 0, 64, 127
2, 179687, Note_off_c, 0, 56, 64
2, 179688, Note_off_c, 0, 47, 64
2, 179688, Note_off_c, 0, 59, 64
2, 179690, Note_off_c, 0, 61, 64
2, 179690, Note_off_c, 0, 73, 64
2, 179755, Control_c, 0, 64, 0
2, 179763, Note_on_c, 0, 78, 86
2, 179763, Note_on_c, 0, 66, 86
2, 179764, Note_on_c, 0, 58, 101
2, 179764, Note_on_c, 0, 54, 80
2, 179764, Note_on_c, 0, 49, 80
2, 179765, Note_on_c, 0, 73, 86
2, 179765, Note_on_c, 0, 46, 84
2, 179780, Control_c, 0, 64, 127
2, 179787, Note_off_c, 0, 58, 64
2, 179787, Note_off_c, 0, 66, 64
2, 179789, Note_off_c, 0, 73, 64
2, 179791, Note_off_c, 0, 46, 64
2, 179791, Note_off_c, 0, 78, 64
2, 179794, Note_off_c, 0, 49, 64
2, 179794, Note_off_c, 0, 54, 64
2, 179854, Control_c, 0, 64, 0
2, 179864, Note_on_c, 0, 67, 86
2, 179865, Note_on_c, 0, 72, 84
2, 179866, Note_on_c, 0, 76, 82
2, 179866, Note_on_c, 0, 48, 80
2, 179868, Note_on_c, 0, 64, 86
2, 179869, Note_on_c, 0, 60, 82
2, 179869, Note_on_c, 0, 55, 80
2, 179881, Note_off_c, 0, 67, 64
2, 179882, Note_off_c, 0, 64, 64
2, 179885, Note_off_c, 0, 60, 64
2, 179885, Note_off_c, 0, 72, 64
2, 179885, Control_c, 0, 64, 127
2, 179889, Note_off_c, 0, 76, 64
2, 179893, Note_off_c, 0, 55, 64
2, 179893, Note_off_c, 0, 48, 64
2, 179953, Control_c, 0, 64, 0
2, 179964, Note_on_c, 0, 84, 86
2, 179967, Note_on_c, 0, 79, 84
2, 179967, Note_on_c, 0, 72, 84
2, 179968, Note_on_c, 0, 58, 90
2, 179971, Note_on_c, 0, 46, 73
2, 179972, Note_on_c, 0, 55, 80
2, 179972, Note_on_c, 0, 52, 68
2, 179979, Control_c, 0, 64, 127
2, 179987, Note_off_c, 0, 52, 64
2, 179987, Note_off_c, 0, 84, 64
2, 179988, Note_off_c, 0, 58, 64
2, 179988, Note_off_c, 0, 72, 64
2, 179990, Note_off_c, 0, 55, 64
2, 179992, Note_off_c, 0, 46, 64
2, 179992, Note_off_c, 0, 79, 64
2, 180052, Control_c, 0, 64, 0
2, 180070, Note_on_c, 0, 84, 86
2, 180073, Note_on_c, 0, 77, 86
2, 180076, Note_on_c, 0, 72, 86
2, 180076, Note_on_c, 0, 56, 94
2, 180076, Note_on_c, 0, 44, 80
2, 180081, Note_on_c, 0, 53, 83
2, 180087, Note_off_c, 0, 84, 64
2, 180092, Note_off_c, 0, 53, 64
2, 180092, Note_off_c, 0, 72, 64
2, 180092, Note_off_c, 0, 77, 64
2, 180095, Note_off_c, 0, 56, 64
2, 180095, Control_c, 0, 64, 127
2, 180099, Note_off_c, 0, 44, 64
2, 180266, Note_on_c, 0, 36, 109
2, 180277, Control_c, 0, 64, 0
2, 180341, Note_on_c, 0, 48, 73
2, 180375, Note_on_c, 0, 53, 79
2, 180375, Note_on_c, 0, 41, 60
2, 180381, Note_off_c, 0, 48, 64
2, 180408, Note_on_c, 0, 56, 79
2, 180414, Control_c, 0, 64, 127
2, 180417, Note_on_c, 0, 44, 80
2, 180422, Note_off_c, 0, 36, 64
2, 180428, Note_off_c, 0, 53, 64
2, 180437, Note_off_c, 0, 41, 64
2, 180445, Note_on_c, 0, 59, 76
2, 180448, Note_on_c, 0, 47, 88
2, 180451, Note_off_c, 0, 44, 64
2, 180452, Note_off_c, 0, 56, 64
2, 180459, Note_off_c, 0, 59, 64
2, 180460, Note_off_c, 0, 47, 64
2, 180477, Control_c, 0, 64, 0
2, 180484, Note_on_c, 0, 48, 91
2, 180485, Note_on_c, 0, 60, 64
2, 180508, Note_on_c, 0, 65, 73
2, 180515, Note_on_c, 0, 53, 39
2, 180531, Control_c, 0, 64, 127
2, 180534, Note_off_c, 0, 60, 64
2, 180539, Note_on_c, 0, 68, 73
2, 180543, Note_on_c, 0, 56, 73
2, 180546, Note_off_c, 0, 48, 64
2, 180558, Note_off_c, 0, 53, 64
2, 180565, Note_on_c, 0, 59, 73
2, 180570, Note_off_c, 0, 65, 64
2, 180572, Note_off_c, 0, 56, 64
2, 180572, Note_on_c, 0, 71, 73
2, 180576, Note_off_c, 0, 68, 64
2, 180579, Note_off_c, 0, 59, 64
2, 180583, Note_off_c, 0, 71, 64
2, 180599, Note_on_c, 0, 72, 86
2, 180602, Note_on_c, 0, 59, 66
2, 180606, Note_on_c, 0, 60, 64
2, 180624, Note_on_c, 0, 77, 67
2, 180637, Note_off_c, 0, 60, 64
2, 180640, Note_off_c, 0, 59, 64
2, 180642, Note_on_c, 0, 65, 36
2, 180646, Note_off_c, 0, 72, 64
2, 180646, Note_on_c, 0, 64, 36
2, 180648, Note_on_c, 0, 68, 67
2, 180650, Note_off_c, 0, 64, 64
2, 180650, Note_on_c, 0, 80, 80
2, 180659, Note_off_c, 0, 65, 64
2, 180668, Note_on_c, 0, 71, 82
2, 180675, Note_off_c, 0, 68, 64
2, 180678, Note_off_c, 0, 77, 64
2, 180681, Note_on_c, 0, 83, 71
2, 180686, Note_off_c, 0, 71, 64
2, 180688, Note_off_c, 0, 80, 64
2, 180696, Note_off_c, 0, 83, 64
2, 180709, Note_on_c, 0, 77, 67
2, 180715, Note_on_c, 0, 84, 79
2, 180739, Note_on_c, 0, 89, 67
2, 180754, Note_on_c, 0, 78, 28
2, 180758, Note_on_c, 0, 80, 84
2, 180767, Note_off_c, 0, 77, 64
2, 180769, Note_off_c, 0, 78, 64
2, 180769, Note_on_c, 0, 92, 109
2, 180777, Note_off_c, 0, 80, 64
2, 180777, Note_off_c, 0, 84, 64
2, 180780, Note_off_c, 0, 92, 64
2, 180780, Note_off_c, 0, 89, 64
2, 180795, Control_c, 0, 64, 127
2, 180854, Control_c, 0, 64, 0
2, 180860, Control_c, 0, 64, 127
2, 180869, Note_on_c, 0, 73, 82
2, 180869, Note_on_c, 0, 68, 79
2, 180869, Note_on_c, 0, 65, 77
2, 180871, Note_on_c, 0, 77, 79
2, 180871, Note_on_c, 0, 61, 71
2, 180871, Note_on_c, 0, 56, 73
2, 180871, Note_on_c, 0, 49, 74
2, 180879, Note_off_c, 0, 77, 64
2, 180879, Note_off_c, 0, 65, 64
2, 180881, Note_off_c, 0, 56, 64
2, 180881, Note_off_c, 0, 61, 64
2, 180881, Note_off_c, 0, 68, 64
2, 180883, Note_off_c, 0, 49, 64
2, 180883, Note_off_c, 0, 73, 64
2, 180968, Note_on_c, 0, 35, 68
2, 180970, Note_on_c, 0, 56, 76
2, 180971, Note_on_c, 0, 65, 76
2, 180971, Note_on_c, 0, 53, 73
2, 180974, Note_on_c, 0, 61, 73
2, 180974, Note_on_c, 0, 47, 73
2, 180980, Control_c, 0, 64, 0
2, 180989, Note_off_c, 0, 53, 64
2, 180993, Note_off_c, 0, 56, 64
2, 180994, Note_off_c, 0, 65, 64
2, 180996, Note_off_c, 0, 61, 64
2, 180997, Control_c, 0, 64, 127
2, 181021, Note_off_c, 0, 47, 64
2, 181028, Note_off_c, 0, 35, 64
2, 181058, Note_on_c, 0, 66, 82
2, 181060, Note_on_c, 0, 34, 68
2, 181061, Note_on_c, 0, 61, 79
2, 181061, Note_on_c, 0, 54, 76
2, 181062, Note_on_c, 0, 46, 80
2, 181064, Control_c, 0, 64, 0
2, 181075, Note_off_c, 0, 54, 64
2, 181078, Note_off_c, 0, 61, 64
2, 181078, Control_c, 0, 64, 127
2, 181087, Note_off_c, 0, 66, 64
2, 181120, Note_off_c, 0, 34, 64
2, 181138, Note_on_c, 0, 60, 82
2, 181139, Note_on_c, 0, 55, 79
2, 181140, Note_on_c, 0, 36, 68
2, 181141, Note_on_c, 0, 64, 80
2, 181142, Note_on_c, 0, 48, 74
2, 181144, Control_c, 0, 64, 0
2, 181148, Note_off_c, 0, 46, 64
2, 181151, Note_off_c, 0, 55, 64
2, 181151, Control_c, 0, 64, 127
2, 181153, Note_off_c, 0, 60, 64
2, 181156, Note_off_c, 0, 64, 64
2, 181200, Note_off_c, 0, 36, 64
2, 181220, Note_on_c, 0, 72, 82
2, 181220, Note_on_c, 0, 34, 68
2, 181221, Note_on_c, 0, 67, 80
2, 181222, Note_on_c, 0, 60, 82
2, 181222, Note_on_c, 0, 46, 80
2, 181225, Control_c, 0, 64, 0
2, 181233, Note_off_c, 0, 48, 64
2, 181237, Note_off_c, 0, 60, 64
2, 181238, Note_off_c, 0, 67, 64
2, 181243, Control_c, 0, 64, 127
2, 181247, Note_off_c, 0, 72, 64
2, 181280, Note_off_c, 0, 34, 64
2, 181301, Note_on_c, 0, 72, 82
2, 181301, Note_on_c, 0, 65, 79
2, 181303, Note_on_c, 0, 60, 76
2, 181304, Note_on_c, 0, 44, 79
2, 181304, Note_on_c, 0, 32, 68
2, 181306, Control_c, 0, 64, 0
2, 181308, Note_off_c, 0, 46, 64
2, 181315, Control_c, 0, 64, 127
2, 181317, Note_off_c, 0, 60, 64
2, 181320, Note_off_c, 0, 65, 64
2, 181325, Note_off_c, 0, 72, 64
2, 181364, Note_off_c, 0, 32, 64
2, 181364, Note_off_c, 0, 44, 64
2, 181380, Note_on_c, 0, 74, 73
2, 181380, Note_on_c, 0, 71, 73
2, 181380, Note_on_c, 0, 65, 79
2, 181380, Note_on_c, 0, 62, 73
2, 181380, Note_on_c, 0, 31, 68
2, 181382, Note_on_c, 0, 43, 73
2, 181385, Control_c, 0, 64, 0
2, 181392, Note_off_c, 0, 62, 64
2, 181393, Note_off_c, 0, 65, 64
2, 181394, Control_c, 0, 64, 127
2, 181397, Note_off_c, 0, 71, 64
2, 181397, Note_off_c, 0, 74, 64
2, 181440, Note_off_c, 0, 31, 64
2, 181462, Note_on_c, 0, 75, 79
2, 181462, Note_on_c, 0, 66, 77
2, 181462, Note_on_c, 0, 63, 71
2, 181463, Control_c, 0, 64, 0
2, 181464, Note_on_c, 0, 30, 68
2, 181466, Note_on_c, 0, 71, 74
2, 181466, Note_on_c, 0, 42, 73
2, 181471, Note_off_c, 0, 43, 64
2, 181474, Note_off_c, 0, 63, 64
2, 181475, Control_c, 0, 64, 127
2, 181477, Note_off_c, 0, 66, 64
2, 181479, Note_off_c, 0, 71, 64
2, 181481, Note_off_c, 0, 75, 64
2, 181524, Note_off_c, 0, 30, 64
2, 181538, Note_off_c, 0, 42, 64
2, 181538, Note_on_c, 0, 66, 79
2, 181539, Note_on_c, 0, 78, 75
2, 181539, Note_on_c, 0, 70, 80
2, 181540, Note_on_c, 0, 28, 68
2, 181541, Note_on_c, 0, 73, 77
2, 181543, Note_on_c, 0, 40, 74
2, 181549, Note_off_c, 0, 66, 64
2, 181550, Note_off_c, 0, 70, 64
2, 181551, Note_off_c, 0, 73, 64
2, 181554, Note_off_c, 0, 78, 64
2, 181600, Note_off_c, 0, 28, 64
2, 181609, Note_off_c, 0, 40, 64
2, 181618, Note_on_c, 0, 83, 80
2, 181618, Note_on_c, 0, 78, 80
2, 181618, Control_c, 0, 64, 0
2, 181620, Note_on_c, 0, 27, 68
2, 181621, Note_on_c, 0, 75, 76
2, 181621, Note_on_c, 0, 71, 77
2, 181623, Note_on_c, 0, 39, 83
2, 181627, Control_c, 0, 64, 127
2, 181631, Note_off_c, 0, 71, 64
2, 181631, Note_off_c, 0, 75, 64
2, 181632, Note_off_c, 0, 78, 64
2, 181633, Note_off_c, 0, 83, 64
2, 181680, Note_off_c, 0, 27, 64
2, 181685, Note_off_c, 0, 39, 64
2, 181696, Note_on_c, 0, 80, 79
2, 181696, Note_on_c, 0, 38, 68
2, 181697, Note_on_c, 0, 68, 76
2, 181698, Note_on_c, 0, 50, 79
2, 181700, Note_on_c, 0, 71, 73
2, 181702, Note_on_c, 0, 77, 55
2, 181708, Note_off_c, 0, 71, 64
2, 181708, Note_off_c, 0, 68, 64
2, 181709, Note_off_c, 0, 77, 64
2, 181713, Note_off_c, 0, 80, 64
2, 181756, Note_off_c, 0, 38, 64
2, 181770, Note_off_c, 0, 50, 64
2, 181771, Note_on_c, 0, 82, 81
2, 181771, Note_on_c, 0, 70, 80
2, 181772, Note_on_c, 0, 37, 70
2, 181774, Note_on_c, 0, 49, 81
2, 181775, Note_on_c, 0, 78, 81
2, 181775, Note_on_c, 0, 73, 75
2, 181782, Note_off_c, 0, 73, 64
2, 181784, Note_off_c, 0, 70, 64
2, 181787, Note_off_c, 0, 78, 64
2, 181791, Note_off_c, 0, 82, 64
2, 181832, Note_off_c, 0, 37, 64
2, 181844, Note_on_c, 0, 35, 72
2, 181844, Control_c, 0, 64, 0
2, 181846, Note_on_c, 0, 85, 84
2, 181846, Note_on_c, 0, 80, 78
2, 181846, Note_on_c, 0, 73, 76
2, 181846, Note_on_c, 0, 47, 80
2, 181849, Note_off_c, 0, 49, 64
2, 181849, Note_on_c, 0, 77, 83
2, 181856, Note_off_c, 0, 73, 64
2, 181858, Note_off_c, 0, 77, 64
2, 181858, Control_c, 0, 64, 127
2, 181861, Note_off_c, 0, 80, 64
2, 181865, Note_off_c, 0, 85, 64
2, 181904, Note_off_c, 0, 35, 64
2, 181912, Note_on_c, 0, 34, 73
2, 181916, Note_on_c, 0, 46, 87
2, 181919, Note_on_c, 0, 90, 87
2, 181919, Note_on_c, 0, 85, 100
2, 181919, Note_on_c, 0, 78, 92
2, 181923, Note_off_c, 0, 47, 64
2, 181929, Note_off_c, 0, 78, 64
2, 181934, Note_off_c, 0, 85, 64
2, 181937, Note_off_c, 0, 90, 64
2, 181972, Note_off_c, 0, 34, 64
2, 181992, Note_on_c, 0, 88, 82
2, 181992, Note_on_c, 0, 84, 81
2, 181992, Note_on_c, 0, 76, 75
2, 181992, Note_on_c, 0, 33, 74
2, 181993, Note_on_c, 0, 79, 86
2, 181995, Note_on_c, 0, 45, 87
2, 181998, Note_off_c, 0, 46, 64
2, 182003, Note_off_c, 0, 79, 64
2, 182003, Note_off_c, 0, 76, 64
2, 182008, Note_off_c, 0, 84, 64
2, 182009, Note_off_c, 0, 88, 64
2, 182052, Note_off_c, 0, 33, 64
2, 182065, Control_c, 0, 64, 0
2, 182068, Note_on_c, 0, 89, 83
2, 182068, Note_on_c, 0, 32, 76
2, 182070, Note_off_c, 0, 45, 64
2, 182070, Note_on_c, 0, 84, 89
2, 182070, Note_on_c, 0, 77, 90
2, 182070, Note_on_c, 0, 44, 96
2, 182087, Note_off_c, 0, 84, 64
2, 182088, Note_off_c, 0, 77, 64
2, 182088, Note_off_c, 0, 89, 64
2, 182089, Control_c, 0, 64, 127
2, 182128, Note_off_c, 0, 32, 64
2, 182156, Note_on_c, 0, 85, 99
2, 182156, Note_on_c, 0, 73, 92
2, 182156, Note_on_c, 0, 34, 78
2, 182156, Control_c, 0, 64, 0
2, 182160, Note_on_c, 0, 79, 93
2, 182160, Note_on_c, 0, 77, 94
2, 182162, Note_off_c, 0, 44, 64
2, 182164, Note_on_c, 0, 46, 94
2, 182173, Control_c, 0, 64, 127
2, 182176, Note_off_c, 0, 85, 64
2, 182177, Note_off_c, 0, 73, 64
2, 182180, Note_off_c, 0, 77, 64
2, 182181, Note_off_c, 0, 79, 64
2, 182216, Note_off_c, 0, 34, 64
2, 182226, Note_off_c, 0, 46, 64
2, 182258, Note_on_c, 0, 48, 96
2, 182259, Note_on_c, 0, 36, 98
2, 182260, Note_on_c, 0, 84, 98
2, 182260, Note_on_c, 0, 77, 98
2, 182260, Note_on_c, 0, 72, 98
2, 182262, Note_on_c, 0, 79, 98
2, 182283, Control_c, 0, 64, 0
2, 182312, Control_c, 0, 64, 127
2, 182435, Note_off_c, 0, 84, 64
2, 182440, Note_off_c, 0, 79, 64
2, 182440, Note_off_c, 0, 77, 64
2, 182443, Note_off_c, 0, 72, 64
2, 182448, Note_off_c, 0, 36, 64
2, 182449, Note_off_c, 0, 48, 64
2, 182468, Control_c, 0, 64, 0
2, 182642, Note_on_c, 0, 60, 106
2, 182642, Note_on_c, 0, 48, 106
2, 182729, Note_on_c, 0, 61, 109
2, 182731, Note_on_c, 0, 49, 109
2, 182738, Note_off_c, 0, 48, 64
2, 182740, Note_off_c, 0, 60, 64
2, 182815, Note_on_c, 0, 65, 103
2, 182821, Note_off_c, 0, 61, 64
2, 182822, Note_on_c, 0, 53, 95
2, 182837, Note_off_c, 0, 49, 64
2, 182838, Control_c, 0, 64, 127
2, 182883, Note_off_c, 0, 65, 64
2, 182890, Note_off_c, 0, 53, 64
2, 182902, Control_c, 0, 64, 0
2, 182906, Note_on_c, 0, 67, 109
2, 182906, Note_on_c, 0, 64, 99
2, 182908, Note_on_c, 0, 60, 109
2, 182908, Note_on_c, 0, 55, 109
2, 182911, Note_on_c, 0, 48, 109
2, 182911, Note_on_c, 0, 36, 102
2, 182939, Note_off_c, 0, 55, 64
2, 182939, Note_off_c, 0, 60, 64
2, 182942, Note_off_c, 0, 64, 64
2, 182944, Note_off_c, 0, 67, 64
2, 182951, Note_off_c, 0, 36, 64
2, 182956, Note_off_c, 0, 48, 64
2, 183008, Note_on_c, 0, 55, 1
2, 183008, Note_on_c, 0, 31, 96
2, 183010, Note_on_c, 0, 62, 109
2, 183010, Note_on_c, 0, 53, 109
2, 183011, Note_on_c, 0, 67, 109
2, 183011, Note_on_c, 0, 59, 109
2, 183011, Note_on_c, 0, 43, 109
2, 183047, Control_c, 0, 64, 127
2, 183088, Note_off_c, 0, 55, 64
2, 183095, Note_off_c, 0, 59, 64
2, 183095, Note_off_c, 0, 53, 64
2, 183097, Note_off_c, 0, 62, 64
2, 183098, Note_off_c, 0, 31, 64
2, 183099, Note_off_c, 0, 43, 64
2, 183103, Note_off_c, 0, 67, 64
2, 183114, Control_c, 0, 64, 0
2, 183154, Note_on_c, 0, 67, 109
2, 183154, Note_on_c, 0, 64, 109
2, 183156, Note_on_c, 0, 60, 109
2, 183156, Note_on_c, 0, 55, 109
2, 183156, Note_on_c, 0, 24, 96
2, 183158, Note_on_c, 0, 36, 109
2, 183160, Note_on_c, 0, 48, 109
2, 183216, Control_c, 0, 64, 127
2, 183367, Note_off_c, 0, 36, 64
2, 183368, Note_off_c, 0, 60, 64
2, 183368, Note_off_c, 0, 67, 64
2, 183370, Note_off_c, 0, 55, 64
2, 183371, Note_off_c, 0, 64, 64
2, 183375, Note_off_c, 0, 48, 64
2, 183396, Note_off_c, 0, 24, 64
2, 183588, Control_c, 0, 64, 0
2, 184178, Note_on_c, 0, 64, 31
2, 184180, Note_on_c, 0, 84, 46
2, 184180, Note_on_c, 0, 79, 36
2, 184180, Note_on_c, 0, 72, 37
2, 184180, Note_on_c, 0, 55, 30
2, 184180, Note_on_c, 0, 48, 30
2, 184371, Control_c, 0, 64, 127
2, 185105, Note_off_c, 0, 84, 64
2, 185126, Note_off_c, 0, 79, 64
2, 185131, Note_off_c, 0, 72, 64
2, 185133, Note_off_c, 0, 48, 64
2, 185139, Note_off_c, 0, 55, 64
2, 185139, Note_off_c, 0, 64, 64
2, 185440, Note_on_c, 0, 79, 38
2, 185440, Note_on_c, 0, 74, 39
2, 185440, Note_on_c, 0, 71, 37
2, 185440, Note_on_c, 0, 67, 31
2, 185440, Note_on_c, 0, 65, 33
2, 185440, Note_on_c, 0, 62, 20
2, 185440, Note_on_c, 0, 55, 30
2, 185440, Note_on_c, 0, 48, 23
2, 185495, Control_c, 0, 64, 0
2, 185679, Control_c, 0, 64, 127
2, 186316, Note_off_c, 0, 48, 64
2, 186329, Note_off_c, 0, 71, 64
2, 186333, Note_off_c, 0, 74, 64
2, 186335, Note_off_c, 0, 67, 64
2, 186339, Note_off_c, 0, 55, 64
2, 186340, Note_off_c, 0, 65, 64
2, 186341, Note_off_c, 0, 79, 64
2, 186354, Note_off_c, 0, 62, 64
2, 186798, Note_on_c, 0, 48, 24
2, 186799, Note_on_c, 0, 70, 30
2, 186800, Note_on_c, 0, 76, 34
2, 186800, Note_on_c, 0, 67, 28
2, 186800, Note_on_c, 0, 64, 23
2, 186800, Note_on_c, 0, 60, 24
2, 186800, Note_on_c, 0, 55, 29
2, 186825, Control_c, 0, 64, 0
2, 186901, Control_c, 0, 64, 127
2, 187636, Note_off_c, 0, 48, 64
2, 187657, Note_off_c, 0, 67, 64
2, 187667, Note_off_c, 0, 76, 64
2, 187674, Note_off_c, 0, 55, 64
2, 187683, Note_off_c, 0, 60, 64
2, 187694, Note_off_c, 0, 64, 64
2, 187695, Note_off_c, 0, 70, 64
2, 188032, Note_on_c, 0, 65, 30
2, 188032, Note_on_c, 0, 62, 24
2, 188032, Note_on_c, 0, 55, 27
2, 188033, Note_on_c, 0, 74, 36
2, 188033, Note_on_c, 0, 58, 23
2, 188034, Note_on_c, 0, 48, 27
2, 188072, Control_c, 0, 64, 0
2, 188142, Control_c, 0, 64, 127
2, 189111, Note_off_c, 0, 55, 64
2, 189111, Note_off_c, 0, 62, 64
2, 189111, Note_off_c, 0, 65, 64
2, 189112, Note_off_c, 0, 58, 64
2, 189112, Note_off_c, 0, 74, 64
2, 189113, Note_off_c, 0, 48, 64
2, 189442, Note_on_c, 0, 36, 27
2, 189444, Note_on_c, 0, 64, 29
2, 189444, Note_on_c, 0, 60, 31
2, 189444, Note_on_c, 0, 55, 27
2, 189444, Note_on_c, 0, 48, 25
2, 189518, Control_c, 0, 64, 0
2, 191452, Note_off_c, 0, 60, 64
2, 191452, Note_off_c, 0, 64, 64
2, 191455, Note_off_c, 0, 48, 64
2, 191457, Note_off_c, 0, 55, 64
2, 191463, Note_off_c, 0, 36, 64
2, 191479, Control_c, 0, 64, 127
2, 191556, Note_on_c, 0, 29, 68
2, 191558, Note_on_c, 0, 56, 91
2, 191570, Control_c, 0, 64, 0
2, 191589, Control_c, 0, 64, 127
2, 191641, Note_on_c, 0, 68, 66
2, 191643, Note_on_c, 0, 60, 72
2, 191660, Note_off_c, 0, 56, 64
2, 191681, Note_off_c, 0, 29, 64
2, 191697, Note_off_c, 0, 68, 64
2, 191705, Note_on_c, 0, 65, 67
2, 191757, Note_off_c, 0, 60, 64
2, 191762, Note_off_c, 0, 65, 64
2, 191763, Control_c, 0, 64, 0
2, 191765, Note_on_c, 0, 55, 71
2, 191766, Note_on_c, 0, 49, 81
2, 191786, Control_c, 0, 64, 127
2, 191815, Note_off_c, 0, 55, 64
2, 191817, Note_on_c, 0, 37, 62
2, 191819, Note_on_c, 0, 56, 72
2, 191820, Note_on_c, 0, 59, 68
2, 191834, Note_off_c, 0, 49, 64
2, 191870, Note_off_c, 0, 37, 64
2, 191872, Note_on_c, 0, 43, 71
2, 191873, Note_off_c, 0, 56, 64
2, 191873, Note_on_c, 0, 53, 77
2, 191875, Note_off_c, 0, 59, 64
2, 191930, Control_c, 0, 64, 0
2, 191934, Note_off_c, 0, 53, 64
2, 191934, Note_on_c, 0, 61, 68
2, 191936, Note_on_c, 0, 36, 69
2, 191942, Note_off_c, 0, 43, 64
2, 191952, Control_c, 0, 64, 127
2, 191989, Note_off_c, 0, 61, 64
2, 191991, Note_off_c, 0, 36, 64
2, 192000, Note_on_c, 0, 58, 75
2, 192001, Note_on_c, 0, 60, 71
2, 192003, Note_on_c, 0, 52, 70
2, 192049, Note_off_c, 0, 58, 64
2, 192051, Note_off_c, 0, 52, 64
2, 192053, Note_on_c, 0, 67, 75
2, 192055, Note_on_c, 0, 48, 67
2, 192060, Note_off_c, 0, 60, 64
2, 192098, Note_off_c, 0, 48, 64
2, 192102, Control_c, 0, 64, 0
2, 192106, Note_off_c, 0, 67, 64
2, 192109, Note_on_c, 0, 60, 73
2, 192112, Note_on_c, 0, 56, 81
2, 192122, Control_c, 0, 64, 127
2, 192166, Note_on_c, 0, 70, 74
2, 192166, Note_on_c, 0, 65, 72
2, 192167, Note_on_c, 0, 48, 67
2, 192170, Note_off_c, 0, 56, 64
2, 192177, Note_off_c, 0, 60, 64
2, 192217, Note_off_c, 0, 48, 64
2, 192221, Note_on_c, 0, 68, 67
2, 192222, Note_on_c, 0, 41, 65
2, 192225, Note_off_c, 0, 65, 64
2, 192228, Note_off_c, 0, 70, 64
2, 192239, Note_off_c, 0, 68, 64
2, 192274, Control_c, 0, 64, 0
2, 192281, Note_on_c, 0, 49, 68
2, 192282, Note_off_c, 0, 41, 64
2, 192282, Note_on_c, 0, 67, 73
2, 192298, Control_c, 0, 64, 127
2, 192342, Note_on_c, 0, 57, 68
2, 192350, Note_off_c, 0, 67, 64
2, 192370, Note_on_c, 0, 37, 80
2, 192372, Note_off_c, 0, 49, 64
2, 192395, Note_off_c, 0, 37, 64
2, 192395, Note_off_c, 0, 57, 64
2, 192398, Note_on_c, 0, 65, 73
2, 192398, Note_on_c, 0, 58, 64
2, 192444, Control_c, 0, 64, 0
2, 192446, Note_off_c, 0, 58, 64
2, 192453, Note_on_c, 0, 61, 71
2, 192453, Note_on_c, 0, 36, 72
2, 192456, Note_off_c, 0, 65, 64
2, 192467, Control_c, 0, 64, 127
2, 192487, Note_off_c, 0, 36, 64
2, 192503, Note_off_c, 0, 61, 64
2, 192506, Note_on_c, 0, 52, 59
2, 192509, Note_on_c, 0, 60, 72
2, 192509, Note_on_c, 0, 58, 68
2, 192548, Note_off_c, 0, 58, 64
2, 192560, Note_on_c, 0, 67, 71
2, 192562, Note_on_c, 0, 48, 67
2, 192566, Note_off_c, 0, 52, 64
2, 192571, Note_off_c, 0, 60, 64
2, 192611, Control_c, 0, 64, 0
2, 192616, Note_on_c, 0, 41, 63
2, 192619, Note_off_c, 0, 48, 64
2, 192619, Note_on_c, 0, 56, 81
2, 192623, Note_off_c, 0, 67, 64
2, 192632, Control_c, 0, 64, 127
2, 192673, Note_on_c, 0, 68, 71
2, 192675, Note_on_c, 0, 63, 69
2, 192676, Note_on_c, 0, 53, 61
2, 192678, Note_off_c, 0, 56, 64
2, 192691, Note_off_c, 0, 41, 64
2, 192727, Note_on_c, 0, 61, 66
2, 192727, Note_on_c, 0, 44, 66
2, 192730, Note_off_c, 0, 63, 64
2, 192733, Note_off_c, 0, 53, 64
2, 192752, Note_off_c, 0, 61, 64
2, 192772, Control_c, 0, 64, 0
2, 192776, Note_off_c, 0, 44, 64
2, 192779, Note_on_c, 0, 61, 73
2, 192781, Note_on_c, 0, 63, 74
2, 192781, Note_on_c, 0, 39, 63
2, 192787, Note_off_c, 0, 68, 64
2, 192796, Control_c, 0, 64, 127
2, 192835, Note_off_c, 0, 63, 64
2, 192835, Note_on_c, 0, 54, 60
2, 192836, Note_off_c, 0, 61, 64
2, 192836, Note_on_c, 0, 60, 65
2, 192846, Note_off_c, 0, 39, 64
2, 192880, Note_off_c, 0, 54, 64
2, 192883, Note_off_c, 0, 60, 64
2, 192885, Note_on_c, 0, 66, 73
2, 192887, Note_on_c, 0, 68, 73
2, 192887, Note_on_c, 0, 44, 67
2, 192904, Note_off_c, 0, 66, 64
2, 192908, Note_off_c, 0, 68, 64
2, 192934, Control_c, 0, 64, 0
2, 192940, Note_on_c, 0, 68, 73
2, 192940, Note_on_c, 0, 66, 74
2, 192943, Note_on_c, 0, 37, 67
2, 192945, Note_off_c, 0, 44, 64
2, 192959, Control_c, 0, 64, 127
2, 192977, Note_off_c, 0, 37, 64
2, 192997, Note_on_c, 0, 65, 70
2, 192999, Note_on_c, 0, 53, 61
2, 193005, Note_off_c, 0, 66, 64
2, 193011, Note_off_c, 0, 68, 64
2, 193046, Note_on_c, 0, 44, 51
2, 193058, Note_off_c, 0, 53, 64
2, 193073, Note_on_c, 0, 73, 80
2, 193078, Note_off_c, 0, 65, 64
2, 193102, Control_c, 0, 64, 0
2, 193107, Note_on_c, 0, 61, 88
2, 193107, Note_on_c, 0, 43, 69
2, 193114, Note_off_c, 0, 44, 64
2, 193120, Note_off_c, 0, 73, 64
2, 193122, Control_c, 0, 64, 127
2, 193158, Control_c, 0, 64, 0
2, 193163, Note_on_c, 0, 72, 72
2, 193163, Note_on_c, 0, 44, 72
2, 193166, Note_on_c, 0, 65, 68
2, 193172, Note_off_c, 0, 61, 64
2, 193175, Control_c, 0, 64, 127
2, 193179, Note_off_c, 0, 43, 64
2, 193204, Control_c, 0, 64, 0
2, 193209, Note_off_c, 0, 72, 64
2, 193212, Note_on_c, 0, 61, 73
2, 193215, Note_on_c, 0, 71, 69
2, 193215, Note_on_c, 0, 45, 75
2, 193218, Note_off_c, 0, 65, 64
2, 193221, Note_off_c, 0, 44, 64
2, 193222, Control_c, 0, 64, 127
2, 193255, Control_c, 0, 64, 0
2, 193264, Note_on_c, 0, 70, 70
2, 193266, Note_off_c, 0, 71, 64
2, 193266, Note_on_c, 0, 46, 78
2, 193267, Note_on_c, 0, 65, 67
2, 193272, Note_off_c, 0, 45, 64
2, 193274, Note_off_c, 0, 61, 64
2, 193277, Control_c, 0, 64, 127
2, 193309, Control_c, 0, 64, 0
2, 193314, Note_off_c, 0, 70, 64
2, 193316, Note_on_c, 0, 61, 73
2, 193318, Note_on_c, 0, 69, 69
2, 193318, Note_on_c, 0, 47, 80
2, 193320, Note_off_c, 0, 65, 64
2, 193323, Note_off_c, 0, 46, 64
2, 193328, Control_c, 0, 64, 127
2, 193360, Control_c, 0, 64, 0
2, 193371, Note_on_c, 0, 65, 73
2, 193372, Note_off_c, 0, 69, 64
2, 193372, Note_on_c, 0, 68, 72
2, 193374, Note_on_c, 0, 48, 83
2, 193376, Note_off_c, 0, 47, 64
2, 193377, Note_off_c, 0, 61, 64
2, 193382, Control_c, 0, 64, 127
2, 193422, Control_c, 0, 64, 0
2, 193426, Note_on_c, 0, 49, 86
2, 193428, Note_off_c, 0, 65, 64
2, 193428, Note_on_c, 0, 58, 86
2, 193434, Note_off_c, 0, 48, 64
2, 193470, Control_c, 0, 64, 127
2, 193482, Note_off_c, 0, 68, 64
2, 193490, Note_on_c, 0, 64, 68
2, 193492, Note_on_c, 0, 67, 67
2, 193495, Note_off_c, 0, 58, 64
2, 193499, Note_on_c, 0, 48, 90
2, 193503, Note_off_c, 0, 49, 64
2, 193514, Control_c, 0, 64, 0
2, 193542, Control_c, 0, 64, 127
2, 193553, Note_on_c, 0, 60, 61
2, 193555, Note_on_c, 0, 72, 68
2, 193562, Note_off_c, 0, 64, 64
2, 193564, Note_off_c, 0, 67, 64
2, 193576, Note_off_c, 0, 48, 64
2, 193578, Note_off_c, 0, 60, 64
2, 193589, Note_off_c, 0, 72, 64
2, 193639, Control_c, 0, 64, 0
2, 193641, Note_on_c, 0, 68, 92
2, 193643, Note_on_c, 0, 41, 75
2, 193666, Control_c, 0, 64, 127
2, 193704, Note_off_c, 0, 41, 64
2, 193708, Note_on_c, 0, 80, 79
2, 193710, Note_on_c, 0, 72, 79
2, 193728, Note_off_c, 0, 68, 64
2, 193760, Note_off_c, 0, 80, 64
2, 193771, Note_on_c, 0, 77, 79
2, 193785, Note_off_c, 0, 72, 64
2, 193819, Note_off_c, 0, 77, 64
2, 193825, Note_on_c, 0, 61, 86
2, 193827, Note_on_c, 0, 67, 74
2, 193831, Control_c, 0, 64, 0
2, 193849, Control_c, 0, 64, 127
2, 193878, Note_on_c, 0, 68, 83
2, 193879, Note_on_c, 0, 49, 74
2, 193881, Note_on_c, 0, 71, 83
2, 193886, Note_off_c, 0, 67, 64
2, 193919, Note_off_c, 0, 61, 64
2, 193923, Note_off_c, 0, 71, 64
2, 193924, Note_off_c, 0, 68, 64
2, 193927, Note_off_c, 0, 49, 64
2, 193929, Note_on_c, 0, 65, 88
2, 193929, Note_on_c, 0, 55, 74
2, 193978, Control_c, 0, 64, 0
2, 193982, Note_on_c, 0, 73, 76
2, 193983, Note_on_c, 0, 48, 76
2, 193985, Note_off_c, 0, 65, 64
2, 193988, Note_off_c, 0, 55, 64
2, 193998, Control_c, 0, 64, 127
2, 194029, Note_off_c, 0, 73, 64
2, 194032, Note_off_c, 0, 48, 64
2, 194034, Note_on_c, 0, 70, 84
2, 194035, Note_on_c, 0, 72, 82
2, 194037, Note_on_c, 0, 64, 75
2, 194083, Note_off_c, 0, 64, 64
2, 194083, Note_on_c, 0, 79, 76
2, 194085, Note_off_c, 0, 70, 64
2, 194085, Note_on_c, 0, 60, 75
2, 194088, Note_off_c, 0, 72, 64
2, 194120, Note_off_c, 0, 79, 64
2, 194125, Note_off_c, 0, 60, 64
2, 194129, Control_c, 0, 64, 0
2, 194131, Note_on_c, 0, 72, 75
2, 194132, Note_on_c, 0, 68, 98
2, 194166, Control_c, 0, 64, 127
2, 194181, Note_on_c, 0, 60, 73
2, 194182, Note_on_c, 0, 77, 79
2, 194183, Note_on_c, 0, 82, 82
2, 194186, Note_off_c, 0, 68, 64
2, 194199, Note_off_c, 0, 72, 64
2, 194230, Note_on_c, 0, 80, 76
2, 194231, Note_off_c, 0, 60, 64
2, 194232, Note_off_c, 0, 82, 64
2, 194233, Note_off_c, 0, 77, 64
2, 194238, Note_on_c, 0, 53, 39
2, 194248, Note_off_c, 0, 80, 64
2, 194277, Control_c, 0, 64, 0
2, 194280, Note_on_c, 0, 79, 79
2, 194283, Note_on_c, 0, 61, 75
2, 194286, Note_off_c, 0, 53, 64
2, 194304, Control_c, 0, 64, 127
2, 194336, Note_on_c, 0, 69, 81
2, 194339, Note_off_c, 0, 79, 64
2, 194360, Note_on_c, 0, 49, 87
2, 194366, Note_off_c, 0, 61, 64
2, 194386, Note_on_c, 0, 77, 83
2, 194386, Note_on_c, 0, 70, 74
2, 194391, Note_off_c, 0, 69, 64
2, 194397, Note_off_c, 0, 49, 64
2, 194426, Note_off_c, 0, 70, 64
2, 194429, Control_c, 0, 64, 0
2, 194437, Note_on_c, 0, 73, 79
2, 194439, Note_off_c, 0, 77, 64
2, 194439, Note_on_c, 0, 48, 71
2, 194453, Control_c, 0, 64, 127
2, 194471, Note_off_c, 0, 48, 64
2, 194483, Note_off_c, 0, 73, 64
2, 194486, Note_on_c, 0, 72, 81
2, 194488, Note_on_c, 0, 70, 84
2, 194488, Note_on_c, 0, 64, 74
2, 194534, Note_off_c, 0, 70, 64
2, 194536, Note_on_c, 0, 79, 79
2, 194537, Note_on_c, 0, 60, 73
2, 194541, Note_off_c, 0, 64, 64
2, 194548, Note_off_c, 0, 72, 64
2, 194582, Control_c, 0, 64, 0
2, 194586, Note_on_c, 0, 53, 68
2, 194588, Note_on_c, 0, 68, 90
2, 194591, Note_off_c, 0, 79, 64
2, 194593, Note_off_c, 0, 60, 64
2, 194610, Control_c, 0, 64, 127
2, 194639, Note_on_c, 0, 80, 80
2, 194640, Note_on_c, 0, 75, 79
2, 194642, Note_on_c, 0, 65, 72
2, 194649, Note_off_c, 0, 68, 64
2, 194664, Note_off_c, 0, 53, 64
2, 194684, Note_off_c, 0, 65, 64
2, 194687, Note_on_c, 0, 73, 82
2, 194690, Note_on_c, 0, 56, 67
2, 194698, Note_off_c, 0, 75, 64
2, 194712, Note_off_c, 0, 73, 64
2, 194730, Control_c, 0, 64, 0
2, 194736, Note_off_c, 0, 56, 64
2, 194737, Note_on_c, 0, 73, 82
2, 194738, Note_on_c, 0, 75, 80
2, 194738, Note_on_c, 0, 51, 71
2, 194744, Note_off_c, 0, 80, 64
2, 194756, Control_c, 0, 64, 127
2, 194784, Note_off_c, 0, 75, 64
2, 194786, Note_on_c, 0, 66, 65
2, 194787, Note_off_c, 0, 73, 64
2, 194788, Note_on_c, 0, 72, 73
2, 194834, Note_off_c, 0, 51, 64
2, 194836, Note_off_c, 0, 72, 64
2, 194837, Note_on_c, 0, 78, 80
2, 194837, Note_on_c, 0, 56, 68
2, 194840, Note_off_c, 0, 66, 64
2, 194840, Note_on_c, 0, 80, 80
2, 194860, Note_off_c, 0, 78, 64
2, 194865, Note_off_c, 0, 80, 64
2, 194883, Note_off_c, 0, 56, 64
2, 194886, Control_c, 0, 64, 0
2, 194891, Note_on_c, 0, 80, 88
2, 194891, Note_on_c, 0, 78, 87
2, 194893, Note_on_c, 0, 49, 71
2, 194911, Control_c, 0, 64, 127
2, 194933, Note_off_c, 0, 49, 64
2, 194944, Note_on_c, 0, 65, 76
2, 194945, Note_on_c, 0, 77, 86
2, 194954, Note_off_c, 0, 78, 64
2, 194959, Note_off_c, 0, 80, 64
2, 194987, Note_on_c, 0, 56, 58
2, 194999, Note_off_c, 0, 65, 64
2, 195009, Note_off_c, 0, 77, 64
2, 195011, Note_on_c, 0, 85, 83
2, 195028, Control_c, 0, 64, 0
2, 195038, Note_on_c, 0, 73, 103
2, 195042, Note_off_c, 0, 56, 64
2, 195043, Note_on_c, 0, 55, 82
2, 195050, Note_off_c, 0, 85, 64
2, 195052, Control_c, 0, 64, 127
2, 195081, Control_c, 0, 64, 0
2, 195085, Note_on_c, 0, 84, 82
2, 195087, Note_on_c, 0, 56, 82
2, 195089, Note_on_c, 0, 77, 84
2, 195096, Note_off_c, 0, 73, 64
2, 195098, Note_off_c, 0, 55, 64
2, 195103, Control_c, 0, 64, 127
2, 195123, Control_c, 0, 64, 0
2, 195126, Note_off_c, 0, 77, 64
2, 195130, Note_off_c, 0, 84, 64
2, 195132, Note_on_c, 0, 73, 82
2, 195133, Note_on_c, 0, 83, 76
2, 195135, Note_on_c, 0, 57, 73
2, 195141, Note_off_c, 0, 56, 64
2, 195146, Control_c, 0, 64, 127
2, 195170, Control_c, 0, 64, 0
2, 195180, Note_on_c, 0, 82, 67
2, 195180, Note_on_c, 0, 58, 88
2, 195182, Note_on_c, 0, 77, 75
2, 195184, Note_off_c, 0, 83, 64
2, 195187, Note_off_c, 0, 73, 64
2, 195189, Note_off_c, 0, 57, 64
2, 195193, Control_c, 0, 64, 127
2, 195216, Control_c, 0, 64, 0
2, 195226, Note_off_c, 0, 82, 64
2, 195228, Note_on_c, 0, 73, 76
2, 195228, Note_on_c, 0, 59, 73
2, 195231, Note_on_c, 0, 81, 71
2, 195233, Note_off_c, 0, 77, 64
2, 195234, Note_off_c, 0, 58, 64
2, 195239, Control_c, 0, 64, 127
2, 195268, Control_c, 0, 64, 0
2, 195276, Note_off_c, 0, 81, 64
2, 195279, Note_on_c, 0, 80, 79
2, 195279, Note_on_c, 0, 77, 73
2, 195280, Note_on_c, 0, 60, 79
2, 195281, Note_off_c, 0, 73, 64
2, 195283, Note_off_c, 0, 59, 64
2, 195290, Control_c, 0, 64, 127
2, 195310, Note_off_c, 0, 77, 64
2, 195322, Control_c, 0, 64, 0
2, 195327, Note_on_c, 0, 61, 84
2, 195329, Note_on_c, 0, 70, 88
2, 195336, Note_off_c, 0, 60, 64
2, 195346, Control_c, 0, 64, 127
2, 195374, Control_c, 0, 64, 0
2, 195377, Note_off_c, 0, 80, 64
2, 195382, Note_on_c, 0, 60, 72
2, 195384, Note_on_c, 0, 79, 73
2, 195384, Note_on_c, 0, 76, 77
2, 195386, Note_off_c, 0, 61, 64
2, 195388, Note_off_c, 0, 70, 64
2, 195426, Control_c, 0, 64, 127
2, 195440, Note_on_c, 0, 72, 53
2, 195442, Note_on_c, 0, 84, 73
2, 195446, Note_off_c, 0, 76, 64
2, 195451, Note_off_c, 0, 79, 64
2, 195463, Note_off_c, 0, 84, 64
2, 195470, Note_off_c, 0, 72, 64
2, 195489, Note_off_c, 0, 60, 64
2, 195504, Control_c, 0, 64, 0
2, 195509, Note_on_c, 0, 80, 78
2, 195510, Note_on_c, 0, 74, 72
2, 195510, Note_on_c, 0, 71, 68
2, 195512, Note_on_c, 0, 53, 59
2, 195526, Control_c, 0, 64, 127
2, 195534, Note_off_c, 0, 71, 64
2, 195566, Note_off_c, 0, 80, 64
2, 195568, Note_on_c, 0, 75, 63
2, 195569, Note_on_c, 0, 72, 58
2, 195569, Note_on_c, 0, 68, 77
2, 195572, Note_off_c, 0, 74, 64
2, 195602, Note_off_c, 0, 53, 64
2, 195612, Note_on_c, 0, 76, 67
2, 195612, Note_on_c, 0, 73, 68
2, 195615, Note_off_c, 0, 72, 64
2, 195615, Note_on_c, 0, 62, 67
2, 195618, Note_off_c, 0, 68, 64
2, 195625, Note_off_c, 0, 75, 64
2, 195646, Control_c, 0, 64, 0
2, 195657, Note_off_c, 0, 62, 64
2, 195660, Note_on_c, 0, 77, 61
2, 195660, Note_on_c, 0, 59, 69
2, 195661, Note_on_c, 0, 74, 68
2, 195664, Note_off_c, 0, 76, 64
2, 195666, Note_off_c, 0, 73, 64
2, 195671, Control_c, 0, 64, 127
2, 195696, Note_off_c, 0, 77, 64
2, 195705, Note_on_c, 0, 78, 72
2, 195706, Note_off_c, 0, 74, 64
2, 195709, Note_on_c, 0, 75, 61
2, 195709, Note_on_c, 0, 68, 72
2, 195724, Note_off_c, 0, 59, 64
2, 195731, Note_off_c, 0, 75, 64
2, 195744, Note_off_c, 0, 78, 64
2, 195747, Note_off_c, 0, 68, 64
2, 195753, Note_on_c, 0, 62, 66
2, 195754, Note_on_c, 0, 76, 72
2, 195755, Note_on_c, 0, 79, 68
2, 195764, Note_off_c, 0, 62, 64
2, 195769, Note_off_c, 0, 76, 64
2, 195773, Note_off_c, 0, 79, 64
2, 195800, Control_c, 0, 64, 0
2, 195802, Note_on_c, 0, 77, 54
2, 195803, Note_on_c, 0, 80, 79
2, 195806, Note_on_c, 0, 52, 67
2, 195824, Control_c, 0, 64, 127
2, 195830, Note_off_c, 0, 77, 64
2, 195845, Note_off_c, 0, 80, 64
2, 195848, Note_on_c, 0, 79, 66
2, 195850, Note_on_c, 0, 76, 70
2, 195853, Note_on_c, 0, 67, 56
2, 195887, Note_off_c, 0, 76, 64
2, 195896, Note_on_c, 0, 85, 74
2, 195897, Note_off_c, 0, 67, 64
2, 195898, Note_off_c, 0, 79, 64
2, 195898, Note_on_c, 0, 82, 63
2, 195901, Note_off_c, 0, 52, 64
2, 195901, Note_on_c, 0, 61, 61
2, 195909, Note_off_c, 0, 82, 64
2, 195910, Note_off_c, 0, 85, 64
2, 195915, Note_off_c, 0, 61, 64
2, 195944, Control_c, 0, 64, 0
2, 195950, Note_on_c, 0, 72, 77
2, 195950, Note_on_c, 0, 69, 71
2, 195950, Note_on_c, 0, 51, 67
2, 195953, Note_on_c, 0, 78, 80
2, 195969, Control_c, 0, 64, 127
2, 195975, Note_off_c, 0, 69, 64
2, 195994, Note_off_c, 0, 78, 64
2, 196003, Note_on_c, 0, 70, 78
2, 196003, Note_on_c, 0, 66, 79
2, 196004, Note_on_c, 0, 73, 66
2, 196008, Note_off_c, 0, 72, 64
2, 196021, Note_off_c, 0, 70, 64
2, 196032, Note_off_c, 0, 73, 64
2, 196047, Note_on_c, 0, 71, 71
2, 196049, Note_on_c, 0, 74, 71
2, 196049, Note_on_c, 0, 60, 64
2, 196051, Note_off_c, 0, 51, 64
2, 196054, Note_off_c, 0, 66, 64
2, 196066, Note_off_c, 0, 71, 64
2, 196068, Note_off_c, 0, 74, 64
2, 196087, Control_c, 0, 64, 0
2, 196091, Note_off_c, 0, 60, 64
2, 196093, Note_on_c, 0, 75, 78
2, 196093, Note_on_c, 0, 72, 75
2, 196097, Note_on_c, 0, 57, 61
2, 196107, Control_c, 0, 64, 127
2, 196129, Note_off_c, 0, 75, 64
2, 196130, Note_off_c, 0, 57, 64
2, 196136, Note_on_c, 0, 76, 66
2, 196137, Note_off_c, 0, 72, 64
2, 196137, Note_on_c, 0, 73, 71
2, 196138, Note_on_c, 0, 66, 75
2, 196178, Note_off_c, 0, 66, 64
2, 196178, Note_off_c, 0, 76, 64
2, 196181, Note_on_c, 0, 74, 67
2, 196183, Note_on_c, 0, 77, 61
2, 196183, Note_on_c, 0, 60, 67
2, 196188, Note_off_c, 0, 73, 64
2, 196198, Note_off_c, 0, 74, 64
2, 196199, Note_off_c, 0, 77, 64
2, 196201, Note_off_c, 0, 60, 64
2, 196225, Control_c, 0, 64, 0
2, 196228, Note_on_c, 0, 78, 77
2, 196228, Note_on_c, 0, 75, 73
2, 196231, Note_on_c, 0, 50, 65
2, 196249, Control_c, 0, 64, 127
2, 196255, Note_off_c, 0, 75, 64
2, 196267, Note_off_c, 0, 78, 64
2, 196273, Note_on_c, 0, 74, 70
2, 196275, Note_on_c, 0, 77, 68
2, 196276, Note_on_c, 0, 65, 54
2, 196304, Note_off_c, 0, 50, 64
2, 196310, Note_off_c, 0, 74, 64
2, 196317, Note_off_c, 0, 65, 64
2, 196318, Note_on_c, 0, 80, 68
2, 196321, Note_on_c, 0, 83, 68
2, 196321, Note_on_c, 0, 59, 63
2, 196325, Note_off_c, 0, 77, 64
2, 196332, Note_off_c, 0, 80, 64
2, 196334, Note_off_c, 0, 59, 64
2, 196335, Note_off_c, 0, 83, 64
2, 196363, Control_c, 0, 64, 0
2, 196368, Note_on_c, 0, 49, 66
2, 196371, Note_on_c, 0, 76, 77
2, 196371, Note_on_c, 0, 70, 80
2, 196372, Note_on_c, 0, 67, 73
2, 196385, Control_c, 0, 64, 127
2, 196393, Note_off_c, 0, 76, 64
2, 196399, Note_off_c, 0, 70, 64
2, 196410, Note_off_c, 0, 67, 64
2, 196422, Note_on_c, 0, 71, 78
2, 196422, Note_on_c, 0, 68, 83
2, 196423, Note_on_c, 0, 64, 61
2, 196426, Note_off_c, 0, 49, 64
2, 196443, Note_off_c, 0, 68, 64
2, 196448, Note_off_c, 0, 71, 64
2, 196462, Note_on_c, 0, 58, 64
2, 196466, Note_on_c, 0, 72, 72
2, 196466, Note_on_c, 0, 69, 79
2, 196468, Note_off_c, 0, 64, 64
2, 196483, Note_off_c, 0, 69, 64
2, 196485, Note_off_c, 0, 72, 64
2, 196505, Control_c, 0, 64, 0
2, 196510, Note_on_c, 0, 73, 83
2, 196510, Note_on_c, 0, 70, 80
2, 196513, Note_on_c, 0, 55, 63
2, 196520, Note_off_c, 0, 58, 64
2, 196522, Control_c, 0, 64, 127
2, 196536, Note_off_c, 0, 70, 64
2, 196539, Note_off_c, 0, 73, 64
2, 196553, Note_on_c, 0, 74, 73
2, 196553, Note_on_c, 0, 71, 68
2, 196556, Note_on_c, 0, 64, 57
2, 196579, Note_off_c, 0, 55, 64
2, 196581, Note_off_c, 0, 71, 64
2, 196596, Note_on_c, 0, 73, 49
2, 196598, Note_on_c, 0, 75, 79
2, 196601, Note_on_c, 0, 58, 58
2, 196604, Note_off_c, 0, 73, 64
2, 196607, Note_off_c, 0, 74, 64
2, 196619, Note_off_c, 0, 75, 64
2, 196621, Note_off_c, 0, 64, 64
2, 196639, Note_off_c, 0, 58, 64
2, 196641, Note_on_c, 0, 76, 70
2, 196643, Note_on_c, 0, 73, 77
2, 196644, Note_on_c, 0, 48, 62
2, 196646, Control_c, 0, 64, 0
2, 196666, Control_c, 0, 64, 127
2, 196686, Note_on_c, 0, 77, 63
2, 196687, Note_on_c, 0, 74, 71
2, 196689, Note_on_c, 0, 64, 60
2, 196692, Note_off_c, 0, 76, 64
2, 196693, Note_off_c, 0, 73, 64
2, 196698, Note_off_c, 0, 48, 64
2, 196715, Note_off_c, 0, 77, 64
2, 196726, Note_off_c, 0, 74, 64
2, 196726, Note_on_c, 0, 58, 72
2, 196730, Note_on_c, 0, 75, 79
2, 196731, Note_on_c, 0, 78, 83
2, 196734, Note_off_c, 0, 64, 64
2, 196740, Note_off_c, 0, 58, 64
2, 196749, Note_off_c, 0, 75, 64
2, 196752, Note_off_c, 0, 78, 64
2, 196774, Control_c, 0, 64, 0
2, 196777, Note_on_c, 0, 79, 73
2, 196778, Note_on_c, 0, 76, 73
2, 196779, Note_on_c, 0, 47, 67
2, 196797, Control_c, 0, 64, 127
2, 196802, Note_off_c, 0, 47, 64
2, 196822, Note_on_c, 0, 81, 66
2, 196822, Note_on_c, 0, 78, 67
2, 196825, Note_on_c, 0, 64, 56
2, 196831, Note_off_c, 0, 76, 64
2, 196832, Note_off_c, 0, 79, 64
2, 196865, Note_on_c, 0, 58, 61
2, 196867, Note_on_c, 0, 79, 77
2, 196867, Note_on_c, 0, 76, 73
2, 196868, Note_off_c, 0, 81, 64
2, 196873, Note_off_c, 0, 78, 64
2, 196878, Note_off_c, 0, 64, 64
2, 196887, Note_off_c, 0, 79, 64
2, 196907, Control_c, 0, 64, 0
2, 196911, Note_on_c, 0, 75, 79
2, 196913, Note_off_c, 0, 58, 64
2, 196913, Note_on_c, 0, 78, 81
2, 196913, Note_on_c, 0, 55, 63
2, 196918, Note_off_c, 0, 76, 64
2, 196928, Control_c, 0, 64, 127
2, 196939, Note_off_c, 0, 78, 64
2, 196950, Note_off_c, 0, 75, 64
2, 196953, Note_on_c, 0, 79, 66
2, 196955, Note_on_c, 0, 76, 64
2, 196957, Note_on_c, 0, 64, 60
2, 196987, Note_off_c, 0, 76, 64
2, 196990, Note_off_c, 0, 55, 64
2, 196998, Note_on_c, 0, 58, 66
2, 197001, Note_off_c, 0, 79, 64
2, 197001, Note_on_c, 0, 78, 77
2, 197002, Note_on_c, 0, 81, 66
2, 197007, Note_off_c, 0, 64, 64
2, 197012, Note_off_c, 0, 58, 64
2, 197015, Note_off_c, 0, 78, 64
2, 197017, Note_off_c, 0, 81, 64
2, 197049, Control_c, 0, 64, 0
2, 197055, Note_on_c, 0, 82, 77
2, 197055, Note_on_c, 0, 79, 68
2, 197055, Note_on_c, 0, 46, 73
2, 197074, Control_c, 0, 64, 127
2, 197078, Note_off_c, 0, 46, 64
2, 197100, Note_off_c, 0, 79, 64
2, 197101, Note_off_c, 0, 82, 64
2, 197101, Note_on_c, 0, 80, 75
2, 197101, Note_on_c, 0, 64, 70
2, 197104, Note_on_c, 0, 84, 71
2, 197144, Note_off_c, 0, 84, 64
2, 197148, Note_off_c, 0, 64, 64
2, 197148, Note_on_c, 0, 60, 65
2, 197150, Note_on_c, 0, 85, 79
2, 197150, Note_on_c, 0, 82, 80
2, 197154, Note_off_c, 0, 60, 64
2, 197157, Note_off_c, 0, 80, 64
2, 197166, Note_off_c, 0, 82, 64
2, 197175, Note_off_c, 0, 85, 64
2, 197211, Note_on_c, 0, 84, 72
2, 197214, Note_on_c, 0, 80, 75
2, 197214, Control_c, 0, 64, 0
2, 197217, Note_on_c, 0, 44, 90
2, 197233, Control_c, 0, 64, 127
2, 197240, Note_off_c, 0, 44, 64
2, 197268, Note_off_c, 0, 84, 64
2, 197273, Note_off_c, 0, 80, 64
2, 197276, Note_on_c, 0, 91, 80
2, 197276, Note_on_c, 0, 87, 79
2, 197276, Note_on_c, 0, 65, 54
2, 197316, Note_off_c, 0, 87, 64
2, 197316, Note_off_c, 0, 91, 64
2, 197321, Note_on_c, 0, 85, 72
2, 197322, Note_on_c, 0, 89, 80
2, 197325, Note_on_c, 0, 61, 42
2, 197349, Note_off_c, 0, 61, 64
2, 197358, Note_off_c, 0, 89, 64
2, 197361, Control_c, 0, 64, 0
2, 197367, Note_off_c, 0, 65, 64
2, 197369, Note_on_c, 0, 84, 72
2, 197369, Note_on_c, 0, 56, 66
2, 197373, Note_off_c, 0, 85, 64
2, 197384, Control_c, 0, 64, 127
2, 197412, Note_on_c, 0, 87, 79
2, 197412, Note_on_c, 0, 65, 73
2, 197421, Note_off_c, 0, 84, 64
2, 197434, Note_off_c, 0, 56, 64
2, 197454, Note_on_c, 0, 60, 66
2, 197456, Note_on_c, 0, 85, 72
2, 197456, Note_on_c, 0, 82, 77
2, 197458, Note_off_c, 0, 87, 64
2, 197459, Note_off_c, 0, 65, 64
2, 197464, Note_off_c, 0, 60, 64
2, 197494, Control_c, 0, 64, 0
2, 197499, Note_off_c, 0, 85, 64
2, 197501, Note_on_c, 0, 80, 75
2, 197501, Note_on_c, 0, 46, 67
2, 197504, Note_off_c, 0, 82, 64
2, 197515, Control_c, 0, 64, 127
2, 197520, Note_off_c, 0, 46, 64
2, 197526, Note_off_c, 0, 80, 64
2, 197546, Note_on_c, 0, 84, 71
2, 197546, Note_on_c, 0, 80, 67
2, 197548, Note_on_c, 0, 65, 75
2, 197586, Note_off_c, 0, 80, 64
2, 197587, Note_off_c, 0, 84, 64
2, 197591, Note_on_c, 0, 82, 73
2, 197591, Note_on_c, 0, 79, 71
2, 197594, Note_on_c, 0, 61, 58
2, 197605, Note_off_c, 0, 61, 64
2, 197610, Note_off_c, 0, 65, 64
2, 197630, Note_off_c, 0, 79, 64
2, 197631, Control_c, 0, 64, 0
2, 197636, Note_on_c, 0, 72, 73
2, 197639, Note_off_c, 0, 82, 64
2, 197644, Note_on_c, 0, 48, 53
2, 197655, Control_c, 0, 64, 127
2, 197668, Note_off_c, 0, 48, 64
2, 197682, Note_on_c, 0, 65, 61
2, 197683, Note_on_c, 0, 79, 67
2, 197685, Note_on_c, 0, 82, 79
2, 197693, Note_off_c, 0, 72, 64
2, 197723, Note_off_c, 0, 79, 64
2, 197727, Note_on_c, 0, 60, 66
2, 197728, Note_off_c, 0, 82, 64
2, 197728, Note_on_c, 0, 80, 70
2, 197730, Note_on_c, 0, 77, 72
2, 197738, Note_off_c, 0, 65, 64
2, 197761, Note_off_c, 0, 80, 64
2, 197763, Note_off_c, 0, 77, 64
2, 197773, Note_off_c, 0, 60, 64
2, 197774, Note_on_c, 0, 56, 66
2, 197775, Note_on_c, 0, 68, 83
2, 197818, Note_on_c, 0, 65, 55
2, 197819, Note_on_c, 0, 75, 67
2, 197820, Note_on_c, 0, 79, 69
2, 197826, Note_off_c, 0, 68, 64
2, 197841, Note_off_c, 0, 56, 64
2, 197853, Note_off_c, 0, 75, 64
2, 197860, Note_off_c, 0, 79, 64
2, 197861, Note_on_c, 0, 60, 49
2, 197863, Note_off_c, 0, 65, 64
2, 197863, Note_on_c, 0, 73, 68
2, 197864, Note_off_c, 0, 60, 64
2, 197864, Note_on_c, 0, 77, 71
2, 197897, Note_off_c, 0, 77, 64
2, 197902, Control_c, 0, 64, 0
2, 197906, Note_off_c, 0, 73, 64
2, 197909, Note_on_c, 0, 67, 68
2, 197912, Note_on_c, 0, 48, 83
2, 197925, Control_c, 0, 64, 127
2, 197932, Note_off_c, 0, 48, 64
2, 197954, Note_on_c, 0, 72, 68
2, 197956, Note_on_c, 0, 76, 69
2, 197958, Note_on_c, 0, 64, 43
2, 197968, Note_off_c, 0, 67, 64
2, 197996, Note_off_c, 0, 76, 64
2, 197999, Note_on_c, 0, 70, 81
2, 197999, Note_on_c, 0, 60, 66
2, 198002, Note_off_c, 0, 72, 64
2, 198003, Note_off_c, 0, 64, 64
2, 198010, Note_off_c, 0, 60, 64
2, 198011, Note_off_c, 0, 70, 64
2, 198048, Control_c, 0, 64, 0
2, 198051, Note_on_c, 0, 49, 78
2, 198053, Note_on_c, 0, 70, 79
2, 198072, Control_c, 0, 64, 127
2, 198093, Note_on_c, 0, 76, 70
2, 198093, Note_on_c, 0, 61, 77
2, 198095, Note_on_c, 0, 79, 74
2, 198101, Note_off_c, 0, 70, 64
2, 198138, Note_on_c, 0, 56, 61
2, 198139, Note_off_c, 0, 79, 64
2, 198141, Note_on_c, 0, 77, 71
2, 198141, Note_on_c, 0, 68, 86
2, 198145, Note_off_c, 0, 49, 64
2, 198147, Note_off_c, 0, 76, 64
2, 198150, Note_off_c, 0, 61, 64
2, 198176, Control_c, 0, 64, 0
2, 198192, Note_off_c, 0, 56, 64
2, 198192, Note_on_c, 0, 53, 66
2, 198201, Control_c, 0, 64, 127
2, 198217, Note_off_c, 0, 53, 64
2, 198226, Note_off_c, 0, 77, 64
2, 198230, Note_on_c, 0, 75, 73
2, 198233, Note_on_c, 0, 61, 78
2, 198238, Note_off_c, 0, 68, 64
2, 198274, Note_on_c, 0, 70, 77
2, 198276, Note_off_c, 0, 75, 64
2, 198276, Note_on_c, 0, 73, 67
2, 198278, Note_on_c, 0, 56, 63
2, 198283, Note_off_c, 0, 61, 64
2, 198291, Note_off_c, 0, 73, 64
2, 198305, Note_off_c, 0, 56, 64
2, 198317, Control_c, 0, 64, 0
2, 198321, Note_on_c, 0, 68, 73
2, 198323, Note_on_c, 0, 46, 86
2, 198329, Note_off_c, 0, 70, 64
2, 198337, Control_c, 0, 64, 127
2, 198349, Note_off_c, 0, 46, 64
2, 198359, Note_on_c, 0, 61, 79
2, 198361, Note_off_c, 0, 68, 64
2, 198366, Note_on_c, 0, 72, 73
2, 198411, Note_on_c, 0, 70, 73
2, 198411, Note_on_c, 0, 55, 67
2, 198413, Note_on_c, 0, 67, 61
2, 198415, Note_off_c, 0, 72, 64
2, 198415, Note_off_c, 0, 61, 64
2, 198427, Note_off_c, 0, 55, 64
2, 198455, Control_c, 0, 64, 0
2, 198460, Note_on_c, 0, 65, 71
2, 198461, Note_on_c, 0, 48, 82
2, 198462, Note_on_c, 0, 68, 77
2, 198468, Note_off_c, 0, 70, 64
2, 198469, Note_off_c, 0, 67, 64
2, 198512, Note_on_c, 0, 60, 71
2, 198517, Note_off_c, 0, 48, 64
2, 198519, Control_c, 0, 64, 127
2, 198558, Note_on_c, 0, 61, 75
2, 198568, Note_off_c, 0, 60, 64
2, 198604, Control_c, 0, 64, 0
2, 198609, Note_on_c, 0, 67, 73
2, 198610, Note_off_c, 0, 61, 64
2, 198610, Note_on_c, 0, 60, 74
2, 198616, Note_off_c, 0, 65, 64
2, 198618, Note_off_c, 0, 68, 64
2, 198648, Control_c, 0, 64, 127
2, 198652, Note_on_c, 0, 59, 73
2, 198660, Note_off_c, 0, 60, 64
2, 198697, Note_off_c, 0, 59, 64
2, 198697, Note_on_c, 0, 60, 77
2, 198739, Control_c, 0, 64, 0
2, 198746, Note_on_c, 0, 64, 73
2, 198746, Note_on_c, 0, 55, 67
2, 198751, Note_off_c, 0, 60, 64
2, 198766, Control_c, 0, 64, 127
2, 198793, Note_off_c, 0, 55, 64
2, 198796, Note_on_c, 0, 60, 72
2, 198813, Note_off_c, 0, 64, 64
2, 198836, Note_on_c, 0, 57, 68
2, 198838, Note_off_c, 0, 60, 64
2, 198848, Note_on_c, 0, 72, 68
2, 198852, Note_on_c, 0, 63, 73
2, 198856, Note_off_c, 0, 67, 64
2, 198871, Note_off_c, 0, 63, 64
2, 198882, Control_c, 0, 64, 0
2, 198883, Note_off_c, 0, 72, 64
2, 198887, Note_off_c, 0, 57, 64
2, 198892, Note_on_c, 0, 62, 51
2, 198892, Note_on_c, 0, 58, 81
2, 198895, Note_on_c, 0, 65, 61
2, 198914, Control_c, 0, 64, 127
2, 198943, Note_on_c, 0, 53, 74
2, 198948, Note_off_c, 0, 58, 64
2, 198961, Note_off_c, 0, 62, 64
2, 198964, Note_off_c, 0, 65, 64
2, 198980, Note_on_c, 0, 55, 71
2, 198984, Note_on_c, 0, 70, 81
2, 198988, Note_off_c, 0, 53, 64
2, 198988, Note_on_c, 0, 61, 86
2, 199008, Note_off_c, 0, 61, 64
2, 199019, Note_off_c, 0, 70, 64
2, 199024, Control_c, 0, 64, 0
2, 199038, Note_on_c, 0, 60, 68
2, 199040, Note_on_c, 0, 63, 70
2, 199043, Note_off_c, 0, 55, 64
2, 199043, Note_on_c, 0, 56, 86
2, 199049, Control_c, 0, 64, 127
2, 199088, Note_off_c, 0, 56, 64
2, 199094, Note_on_c, 0, 51, 60
2, 199106, Note_off_c, 0, 60, 64
2, 199114, Note_off_c, 0, 63, 64
2, 199128, Note_on_c, 0, 53, 71
2, 199134, Note_off_c, 0, 51, 64
2, 199136, Note_on_c, 0, 68, 81
2, 199140, Note_on_c, 0, 60, 81
2, 199160, Note_off_c, 0, 60, 64
2, 199162, Control_c, 0, 64, 0
2, 199171, Note_off_c, 0, 68, 64
2, 199184, Note_on_c, 0, 62, 67
2, 199187, Note_on_c, 0, 59, 61
2, 199187, Note_on_c, 0, 55, 87
2, 199191, Note_off_c, 0, 53, 64
2, 199195, Control_c, 0, 64, 127
2, 199239, Note_off_c, 0, 59, 64
2, 199239, Note_on_c, 0, 50, 61
2, 199258, Note_off_c, 0, 55, 64
2, 199265, Note_off_c, 0, 62, 64
2, 199272, Note_on_c, 0, 52, 64
2, 199279, Note_off_c, 0, 50, 64
2, 199288, Note_on_c, 0, 67, 75
2, 199293, Note_on_c, 0, 58, 92
2, 199311, Control_c, 0, 64, 0
2, 199313, Note_off_c, 0, 58, 64
2, 199323, Note_off_c, 0, 67, 64
2, 199328, Note_on_c, 0, 60, 66
2, 199328, Note_on_c, 0, 57, 65
2, 199333, Note_off_c, 0, 52, 64
2, 199335, Note_on_c, 0, 53, 86
2, 199340, Control_c, 0, 64, 127
2, 199380, Note_on_c, 0, 48, 69
2, 199385, Note_off_c, 0, 57, 64
2, 199394, Note_off_c, 0, 53, 64
2, 199420, Note_on_c, 0, 49, 75
2, 199422, Note_off_c, 0, 48, 64
2, 199427, Note_off_c, 0, 60, 64
2, 199442, Note_on_c, 0, 65, 85
2, 199443, Note_on_c, 0, 56, 90
2, 199471, Note_off_c, 0, 56, 64
2, 199480, Note_on_c, 0, 61, 75
2, 199483, Note_on_c, 0, 55, 74
2, 199483, Note_on_c, 0, 46, 85
2, 199486, Note_off_c, 0, 49, 64
2, 199486, Control_c, 0, 64, 0
2, 199515, Control_c, 0, 64, 127
2, 199532, Note_on_c, 0, 45, 69
2, 199539, Note_off_c, 0, 46, 64
2, 199574, Note_off_c, 0, 45, 64
2, 199577, Note_off_c, 0, 61, 64
2, 199577, Note_on_c, 0, 46, 79
2, 199616, Note_off_c, 0, 65, 64
2, 199621, Control_c, 0, 64, 0
2, 199625, Note_on_c, 0, 64, 74
2, 199625, Note_on_c, 0, 60, 82
2, 199628, Note_on_c, 0, 48, 87
2, 199639, Note_off_c, 0, 46, 64
2, 199647, Control_c, 0, 64, 127
2, 199675, Note_on_c, 0, 47, 73
2, 199678, Note_off_c, 0, 48, 64
2, 199718, Note_off_c, 0, 55, 64
2, 199723, Note_on_c, 0, 48, 79
2, 199724, Note_off_c, 0, 60, 64
2, 199729, Note_off_c, 0, 47, 64
2, 199729, Note_off_c, 0, 64, 64
2, 199769, Note_on_c, 0, 63, 80
2, 199769, Note_on_c, 0, 60, 82
2, 199771, Note_on_c, 0, 53, 81
2, 199773, Note_on_c, 0, 45, 79
2, 199776, Control_c, 0, 64, 0
2, 199783, Note_off_c, 0, 48, 64
2, 199801, Control_c, 0, 64, 127
2, 199824, Note_on_c, 0, 44, 74
2, 199832, Note_off_c, 0, 45, 64
2, 199852, Note_off_c, 0, 60, 64
2, 199868, Note_on_c, 0, 45, 71
2, 199871, Note_off_c, 0, 44, 64
2, 199914, Control_c, 0, 64, 0
2, 199917, Note_on_c, 0, 58, 80
2, 199920, Note_on_c, 0, 61, 80
2, 199920, Note_on_c, 0, 46, 72
2, 199925, Note_off_c, 0, 45, 64
2, 199925, Note_off_c, 0, 63, 64
2, 199944, Control_c, 0, 64, 127
2, 199967, Note_on_c, 0, 48, 61
2, 199970, Note_off_c, 0, 46, 64
2, 200015, Note_on_c, 0, 44, 67
2, 200033, Note_off_c, 0, 53, 64
2, 200036, Note_off_c, 0, 48, 64
2, 200061, Control_c, 0, 64, 0
2, 200063, Note_off_c, 0, 44, 64
2, 200067, Note_on_c, 0, 52, 80
2, 200067, Note_on_c, 0, 43, 86
2, 200088, Control_c, 0, 64, 127
2, 200118, Note_on_c, 0, 44, 55
2, 200119, Note_off_c, 0, 61, 64
2, 200120, Note_off_c, 0, 58, 64
2, 200121, Note_off_c, 0, 43, 64
2, 200158, Note_off_c, 0, 44, 64
2, 200161, Note_on_c, 0, 41, 62
2, 200175, Note_off_c, 0, 52, 64
2, 200188, Note_on_c, 0, 53, 79
2, 200194, Note_on_c, 0, 60, 58
2, 200204, Note_off_c, 0, 60, 64
2, 200221, Control_c, 0, 64, 0
2, 200224, Note_on_c, 0, 60, 80
2, 200224, Note_on_c, 0, 58, 79
2, 200227, Note_off_c, 0, 41, 64
2, 200227, Note_on_c, 0, 55, 84
2, 200228, Note_on_c, 0, 40, 79
2, 200231, Note_off_c, 0, 53, 64
2, 200260, Control_c, 0, 64, 127
2, 200277, Note_on_c, 0, 41, 71
2, 200285, Note_off_c, 0, 40, 64
2, 200323, Note_off_c, 0, 58, 64
2, 200325, Note_off_c, 0, 41, 64
2, 200326, Note_on_c, 0, 43, 82
2, 200351, Note_off_c, 0, 55, 64
2, 200375, Control_c, 0, 64, 0
2, 200377, Note_off_c, 0, 43, 64
2, 200377, Note_on_c, 0, 56, 81
2, 200380, Note_on_c, 0, 41, 75
2, 200381, Note_on_c, 0, 53, 76
2, 200404, Control_c, 0, 64, 127
2, 200427, Note_on_c, 0, 43, 86
2, 200431, Note_off_c, 0, 41, 64
2, 200436, Note_off_c, 0, 60, 64
2, 200445, Note_off_c, 0, 56, 64
2, 200472, Note_off_c, 0, 43, 64
2, 200475, Note_on_c, 0, 39, 74
2, 200494, Note_off_c, 0, 53, 64
2, 200532, Note_on_c, 0, 56, 76
2, 200533, Note_on_c, 0, 65, 80
2, 200533, Note_on_c, 0, 53, 79
2, 200536, Note_on_c, 0, 37, 79
2, 200536, Control_c, 0, 64, 0
2, 200548, Note_off_c, 0, 39, 64
2, 200558, Control_c, 0, 64, 127
2, 200582, Note_on_c, 0, 39, 84
2, 200588, Note_off_c, 0, 37, 64
2, 200631, Note_off_c, 0, 39, 64
2, 200642, Note_on_c, 0, 36, 66
2, 200653, Note_off_c, 0, 56, 64
2, 200654, Note_off_c, 0, 65, 64
2, 200690, Note_off_c, 0, 53, 64
2, 200692, Note_on_c, 0, 34, 95
2, 200702, Note_on_c, 0, 65, 77
2, 200702, Note_on_c, 0, 55, 80
2, 200702, Note_on_c, 0, 53, 81
2, 200705, Note_off_c, 0, 36, 64
2, 200707, Control_c, 0, 64, 0
2, 200736, Control_c, 0, 64, 127
2, 200758, Note_off_c, 0, 34, 64
2, 200761, Note_on_c, 0, 36, 43
2, 200808, Note_on_c, 0, 37, 83
2, 200812, Note_off_c, 0, 65, 64
2, 200815, Note_off_c, 0, 36, 64
2, 200817, Note_off_c, 0, 53, 64
2, 200858, Note_on_c, 0, 36, 67
2, 200861, Note_on_c, 0, 57, 80
2, 200861, Note_on_c, 0, 51, 84
2, 200864, Note_off_c, 0, 37, 64
2, 200869, Control_c, 0, 64, 0
2, 200873, Note_off_c, 0, 55, 64
2, 200893, Control_c, 0, 64, 127
2, 200914, Note_on_c, 0, 41, 68
2, 200919, Note_off_c, 0, 36, 64
2, 200960, Note_off_c, 0, 51, 64
2, 200960, Note_on_c, 0, 39, 69
2, 200972, Note_off_c, 0, 41, 64
2, 201003, Control_c, 0, 64, 0
2, 201005, Note_on_c, 0, 58, 73
2, 201009, Note_on_c, 0, 53, 72
2, 201009, Note_on_c, 0, 37, 84
2, 201013, Note_off_c, 0, 57, 64
2, 201014, Note_off_c, 0, 39, 64
2, 201032, Control_c, 0, 64, 127
2, 201060, Note_on_c, 0, 39, 79
2, 201075, Note_off_c, 0, 37, 64
2, 201088, Note_off_c, 0, 58, 64
2, 201103, Note_off_c, 0, 53, 64
2, 201105, Note_on_c, 0, 41, 73
2, 201108, Note_off_c, 0, 39, 64
2, 201147, Note_off_c, 0, 41, 64
2, 201150, Note_on_c, 0, 60, 79
2, 201150, Note_on_c, 0, 58, 83
2, 201150, Note_on_c, 0, 55, 79
2, 201152, Control_c, 0, 64, 0
2, 201156, Note_on_c, 0, 40, 98
2, 201174, Control_c, 0, 64, 127
2, 201199, Note_on_c, 0, 41, 69
2, 201208, Note_off_c, 0, 40, 64
2, 201224, Note_off_c, 0, 55, 64
2, 201224, Note_off_c, 0, 60, 64
2, 201228, Note_off_c, 0, 58, 64
2, 201245, Note_on_c, 0, 43, 80
2, 201248, Note_off_c, 0, 41, 64
2, 201286, Note_off_c, 0, 43, 64
2, 201289, Note_on_c, 0, 68, 82
2, 201290, Note_on_c, 0, 60, 84
2, 201290, Control_c, 0, 64, 0
2, 201293, Note_on_c, 0, 56, 79
2, 201296, Note_on_c, 0, 41, 98
2, 201315, Control_c, 0, 64, 127
2, 201340, Note_on_c, 0, 46, 86
2, 201350, Note_off_c, 0, 41, 64
2, 201380, Note_on_c, 0, 44, 81
2, 201391, Note_off_c, 0, 60, 64
2, 201392, Note_off_c, 0, 46, 64
2, 201394, Note_off_c, 0, 68, 64
2, 201402, Note_off_c, 0, 56, 64
2, 201431, Note_on_c, 0, 60, 80
2, 201431, Note_on_c, 0, 58, 87
2, 201432, Note_off_c, 0, 44, 64
2, 201432, Note_on_c, 0, 43, 100
2, 201434, Note_on_c, 0, 64, 79
2, 201438, Control_c, 0, 64, 0
2, 201462, Control_c, 0, 64, 127
2, 201484, Note_on_c, 0, 44, 86
2, 201496, Note_off_c, 0, 43, 64
2, 201523, Note_off_c, 0, 58, 64
2, 201525, Note_on_c, 0, 46, 86
2, 201528, Note_off_c, 0, 44, 64
2, 201536, Note_off_c, 0, 60, 64
2, 201568, Note_off_c, 0, 64, 64
2, 201570, Note_off_c, 0, 46, 64
2, 201573, Note_on_c, 0, 65, 83
2, 201573, Note_on_c, 0, 56, 74
2, 201576, Note_on_c, 0, 60, 79
2, 201576, Note_on_c, 0, 44, 91
2, 201578, Control_c, 0, 64, 0
2, 201599, Control_c, 0, 64, 127
2, 201618, Note_on_c, 0, 46, 82
2, 201638, Note_off_c, 0, 44, 64
2, 201652, Note_off_c, 0, 56, 64
2, 201670, Note_on_c, 0, 48, 76
2, 201672, Note_off_c, 0, 46, 64
2, 201686, Note_off_c, 0, 60, 64
2, 201711, Note_off_c, 0, 65, 64
2, 201712, Note_on_c, 0, 60, 79
2, 201714, Note_on_c, 0, 54, 83
2, 201716, Note_on_c, 0, 63, 75
2, 201716, Control_c, 0, 64, 0
2, 201718, Note_on_c, 0, 45, 103
2, 201727, Note_off_c, 0, 48, 64
2, 201743, Control_c, 0, 64, 127
2, 201763, Note_on_c, 0, 44, 81
2, 201775, Note_off_c, 0, 45, 64
2, 201796, Note_off_c, 0, 60, 64
2, 201810, Note_on_c, 0, 45, 79
2, 201812, Note_off_c, 0, 44, 64
2, 201813, Note_off_c, 0, 63, 64
2, 201837, Note_off_c, 0, 54, 64
2, 201862, Note_on_c, 0, 58, 79
2, 201862, Note_on_c, 0, 53, 79
2, 201864, Note_on_c, 0, 61, 79
2, 201864, Note_on_c, 0, 46, 92
2, 201868, Control_c, 0, 64, 0
2, 201875, Note_off_c, 0, 45, 64
2, 201894, Control_c, 0, 64, 127
2, 201917, Note_on_c, 0, 48, 68
2, 201924, Note_off_c, 0, 46, 64
2, 201936, Note_off_c, 0, 61, 64
2, 201944, Note_off_c, 0, 58, 64
2, 201962, Note_on_c, 0, 49, 73
2, 201968, Note_off_c, 0, 48, 64
2, 201972, Note_off_c, 0, 53, 64
2, 202007, Note_off_c, 0, 49, 64
2, 202015, Note_on_c, 0, 56, 72
2, 202015, Note_on_c, 0, 48, 83
2, 202016, Note_on_c, 0, 60, 81
2, 202019, Note_on_c, 0, 53, 84
2, 202025, Control_c, 0, 64, 0
2, 202064, Note_on_c, 0, 44, 71
2, 202064, Control_c, 0, 64, 127
2, 202071, Control_c, 0, 64, 0
2, 202078, Control_c, 0, 64, 127
2, 202080, Note_off_c, 0, 48, 64
2, 202092, Control_c, 0, 64, 0
2, 202109, Note_on_c, 0, 41, 76
2, 202114, Note_off_c, 0, 44, 64
2, 202160, Note_on_c, 0, 37, 82
2, 202168, Note_off_c, 0, 41, 64
2, 202210, Note_on_c, 0, 36, 98
2, 202220, Control_c, 0, 64, 127
2, 202223, Note_off_c, 0, 37, 64
2, 202225, Note_off_c, 0, 60, 64
2, 202248, Note_off_c, 0, 56, 64
2, 202253, Note_off_c, 0, 53, 64
2, 202270, Note_off_c, 0, 36, 64
2, 202270, Note_on_c, 0, 37, 83
2, 202308, Control_c, 0, 64, 0
2, 202324, Note_off_c, 0, 37, 64
2, 202326, Note_on_c, 0, 60, 84
2, 202327, Note_on_c, 0, 58, 79
2, 202330, Note_on_c, 0, 52, 83
2, 202330, Note_on_c, 0, 36, 73
2, 202352, Control_c, 0, 64, 127
2, 202393, Note_on_c, 0, 44, 73
2, 202434, Note_off_c, 0, 52, 64
2, 202458, Note_off_c, 0, 58, 64
2, 202458, Note_on_c, 0, 43, 71
2, 202461, Note_off_c, 0, 44, 64
2, 202461, Note_off_c, 0, 60, 64
2, 202465, Note_off_c, 0, 36, 64
2, 202530, Note_off_c, 0, 43, 64
2, 202530, Control_c, 0, 64, 0
2, 202532, Note_on_c, 0, 56, 81
2, 202536, Note_on_c, 0, 65, 79
2, 202536, Note_on_c, 0, 48, 99
2, 202536, Note_on_c, 0, 41, 98
2, 202549, Control_c, 0, 64, 127
2, 202608, Note_off_c, 0, 48, 64
2, 202610, Note_on_c, 0, 57, 79
2, 202611, Note_off_c, 0, 41, 64
2, 202611, Note_off_c, 0, 56, 64
2, 202614, Note_off_c, 0, 65, 64
2, 202622, Note_off_c, 0, 57, 64
2, 202671, Note_on_c, 0, 66, 88
2, 202672, Note_on_c, 0, 60, 77
2, 202693, Note_on_c, 0, 51, 76
2, 202697, Note_off_c, 0, 60, 64
2, 202707, Control_c, 0, 64, 0
2, 202716, Note_on_c, 0, 69, 82
2, 202719, Note_on_c, 0, 62, 88
2, 202722, Note_off_c, 0, 66, 64
2, 202724, Control_c, 0, 64, 127
2, 202737, Note_off_c, 0, 51, 64
2, 202753, Note_off_c, 0, 69, 64
2, 202764, Note_on_c, 0, 63, 84
2, 202766, Note_off_c, 0, 62, 64
2, 202784, Note_off_c, 0, 63, 64
2, 202807, Note_on_c, 0, 63, 79
2, 202809, Note_on_c, 0, 72, 84
2, 202817, Control_c, 0, 64, 0
2, 202831, Note_on_c, 0, 57, 79
2, 202836, Control_c, 0, 64, 127
2, 202838, Note_off_c, 0, 63, 64
2, 202843, Control_c, 0, 64, 0
2, 202854, Note_on_c, 0, 75, 81
2, 202855, Note_on_c, 0, 66, 98
2, 202863, Note_off_c, 0, 72, 64
2, 202869, Control_c, 0, 64, 127
2, 202882, Note_off_c, 0, 57, 64
2, 202895, Note_off_c, 0, 66, 64
2, 202895, Note_off_c, 0, 75, 64
2, 202900, Note_on_c, 0, 69, 70
2, 202914, Note_off_c, 0, 69, 64
2, 202946, Note_on_c, 0, 72, 74
2, 202949, Note_on_c, 0, 78, 79
2, 202969, Note_on_c, 0, 63, 77
2, 202974, Note_off_c, 0, 72, 64
2, 202987, Control_c, 0, 64, 0
2, 202991, Note_on_c, 0, 81, 84
2, 202992, Note_on_c, 0, 74, 84
2, 202994, Note_off_c, 0, 78, 64
2, 203002, Note_off_c, 0, 63, 64
2, 203003, Control_c, 0, 64, 127
2, 203020, Note_off_c, 0, 74, 64
2, 203029, Note_off_c, 0, 81, 64
2, 203039, Note_on_c, 0, 75, 90
2, 203053, Note_off_c, 0, 75, 64
2, 203081, Note_on_c, 0, 75, 79
2, 203084, Note_on_c, 0, 84, 83
2, 203084, Control_c, 0, 64, 0
2, 203102, Control_c, 0, 64, 127
2, 203107, Note_on_c, 0, 69, 79
2, 203110, Note_off_c, 0, 75, 64
2, 203128, Note_on_c, 0, 78, 88
2, 203130, Note_on_c, 0, 87, 86
2, 203138, Note_off_c, 0, 69, 64
2, 203139, Note_off_c, 0, 84, 64
2, 203155, Note_off_c, 0, 78, 64
2, 203169, Note_off_c, 0, 87, 64
2, 203176, Note_on_c, 0, 81, 79
2, 203189, Note_off_c, 0, 81, 64
2, 203221, Note_on_c, 0, 84, 84
2, 203222, Note_on_c, 0, 90, 79
2, 203246, Note_on_c, 0, 75, 80
2, 203248, Note_off_c, 0, 84, 64
2, 203261, Note_off_c, 0, 90, 64
2, 203262, Note_on_c, 0, 93, 84
2, 203268, Control_c, 0, 64, 0
2, 203272, Note_on_c, 0, 86, 88
2, 203275, Control_c, 0, 64, 127
2, 203294, Note_off_c, 0, 75, 64
2, 203308, Note_off_c, 0, 93, 64
2, 203313, Note_on_c, 0, 87, 88
2, 203322, Note_off_c, 0, 86, 64
2, 203328, Note_off_c, 0, 87, 64
2, 203364, Note_on_c, 0, 90, 79
2, 203393, Note_on_c, 0, 81, 76
2, 203395, Note_off_c, 0, 90, 64
2, 203426, Control_c, 0, 64, 0
2, 203432, Note_on_c, 0, 99, 68
2, 203432, Note_on_c, 0, 93, 79
2, 203432, Note_on_c, 0, 84, 79
2, 203442, Control_c, 0, 64, 127
2, 203592, Note_on_c, 0, 57, 86
2, 203595, Note_on_c, 0, 69, 84
2, 203596, Note_on_c, 0, 63, 86
2, 203596, Note_on_c, 0, 42, 96
2, 203597, Note_on_c, 0, 54, 95
2, 203597, Control_c, 0, 64, 0
2, 203619, Note_off_c, 0, 81, 64
2, 203620, Control_c, 0, 64, 127
2, 203639, Note_off_c, 0, 84, 64
2, 203639, Note_off_c, 0, 93, 64
2, 203639, Note_off_c, 0, 99, 64
2, 203645, Note_off_c, 0, 42, 64
2, 203648, Note_off_c, 0, 54, 64
2, 203652, Note_on_c, 0, 65, 81
2, 203658, Note_off_c, 0, 69, 64
2, 203660, Note_on_c, 0, 53, 98
2, 203661, Note_on_c, 0, 41, 88
2, 203664, Note_off_c, 0, 63, 64
2, 203675, Note_off_c, 0, 41, 64
2, 203677, Note_off_c, 0, 53, 64
2, 203679, Note_off_c, 0, 57, 64
2, 203705, Note_on_c, 0, 66, 73
2, 203706, Note_on_c, 0, 51, 109
2, 203709, Note_on_c, 0, 39, 109
2, 203717, Note_off_c, 0, 65, 64
2, 203722, Note_off_c, 0, 51, 64
2, 203723, Note_off_c, 0, 39, 64
2, 203757, Note_on_c, 0, 70, 82
2, 203757, Control_c, 0, 64, 0
2, 203758, Note_off_c, 0, 66, 64
2, 203761, Note_on_c, 0, 65, 86
2, 203761, Note_on_c, 0, 58, 90
2, 203763, Note_on_c, 0, 49, 109
2, 203765, Note_on_c, 0, 37, 109
2, 203776, Control_c, 0, 64, 127
2, 203788, Note_off_c, 0, 37, 64
2, 203796, Note_off_c, 0, 49, 64
2, 203812, Note_on_c, 0, 36, 82
2, 203813, Note_on_c, 0, 48, 100
2, 203851, Note_off_c, 0, 65, 64
2, 203858, Control_c, 0, 64, 0
2, 203864, Note_off_c, 0, 48, 64
2, 203864, Note_on_c, 0, 46, 105
2, 203867, Note_off_c, 0, 58, 64
2, 203868, Note_on_c, 0, 34, 82
2, 203871, Note_off_c, 0, 70, 64
2, 203872, Note_off_c, 0, 36, 64
2, 203875, Control_c, 0, 64, 127
2, 203915, Control_c, 0, 64, 0
2, 203918, Note_off_c, 0, 46, 64
2, 203918, Note_on_c, 0, 73, 94
2, 203921, Note_on_c, 0, 70, 86
2, 203921, Note_on_c, 0, 65, 88
2, 203921, Note_on_c, 0, 61, 91
2, 203921, Note_on_c, 0, 44, 105
2, 203924, Note_on_c, 0, 32, 82
2, 203928, Note_off_c, 0, 34, 64
2, 203934, Control_c, 0, 64, 127
2, 203953, Note_off_c, 0, 44, 64
2, 203954, Note_off_c, 0, 32, 64
2, 203963, Control_c, 0, 64, 0
2, 203972, Note_on_c, 0, 31, 82
2, 203976, Note_on_c, 0, 43, 109
2, 203984, Control_c, 0, 64, 127
2, 203998, Note_off_c, 0, 43, 64
2, 204002, Note_off_c, 0, 31, 64
2, 204028, Note_on_c, 0, 31, 82
2, 204034, Note_on_c, 0, 43, 109
2, 204035, Note_off_c, 0, 70, 64
2, 204043, Note_off_c, 0, 65, 64
2, 204057, Note_off_c, 0, 43, 64
2, 204057, Note_off_c, 0, 73, 64
2, 204058, Note_off_c, 0, 31, 64
2, 204072, Note_off_c, 0, 61, 64
2, 204088, Note_on_c, 0, 43, 105
2, 204090, Note_on_c, 0, 72, 81
2, 204090, Note_on_c, 0, 70, 70
2, 204090, Note_on_c, 0, 60, 82
2, 204092, Note_on_c, 0, 64, 83
2, 204092, Note_on_c, 0, 31, 82
2, 204096, Control_c, 0, 64, 0
2, 204110, Control_c, 0, 64, 127
2, 204122, Note_off_c, 0, 31, 64
2, 204135, Control_c, 0, 64, 0
2, 204140, Note_off_c, 0, 43, 64
2, 204145, Control_c, 0, 64, 127
2, 204148, Note_on_c, 0, 36, 98
2, 204156, Note_on_c, 0, 24, 82
2, 204169, Note_off_c, 0, 36, 64
2, 204186, Note_off_c, 0, 24, 64
2, 204190, Note_off_c, 0, 70, 64
2, 204191, Note_off_c, 0, 72, 64
2, 204197, Note_off_c, 0, 64, 64
2, 204203, Note_on_c, 0, 36, 98
2, 204207, Note_off_c, 0, 60, 64
2, 204212, Note_on_c, 0, 24, 82
2, 204242, Note_off_c, 0, 24, 64
2, 204258, Control_c, 0, 64, 0
2, 204261, Note_on_c, 0, 64, 80
2, 204261, Note_on_c, 0, 58, 80
2, 204261, Note_on_c, 0, 52, 103
2, 204261, Note_on_c, 0, 37, 88
2, 204265, Note_off_c, 0, 36, 64
2, 204268, Note_on_c, 0, 25, 82
2, 204298, Note_off_c, 0, 25, 64
2, 204299, Control_c, 0, 64, 127
2, 204313, Note_off_c, 0, 37, 64
2, 204330, Note_on_c, 0, 36, 88
2, 204332, Note_on_c, 0, 24, 82
2, 204357, Note_off_c, 0, 36, 64
2, 204362, Note_off_c, 0, 24, 64
2, 204366, Note_off_c, 0, 52, 64
2, 204369, Note_off_c, 0, 64, 64
2, 204372, Note_off_c, 0, 58, 64
2, 204372, Note_on_c, 0, 36, 82
2, 204380, Note_on_c, 0, 24, 82
2, 204402, Note_off_c, 0, 36, 64
2, 204410, Note_off_c, 0, 24, 64
2, 204450, Control_c, 0, 64, 0
2, 204452, Note_on_c, 0, 29, 103
2, 204453, Note_on_c, 0, 65, 82
2, 204453, Note_on_c, 0, 56, 81
2, 204453, Note_on_c, 0, 41, 86
2, 204457, Note_on_c, 0, 48, 81
2, 204470, Control_c, 0, 64, 127
2, 204483, Note_off_c, 0, 41, 64
2, 204485, Note_off_c, 0, 48, 64
2, 204511, Note_off_c, 0, 56, 64
2, 204512, Note_off_c, 0, 29, 64
2, 204514, Note_off_c, 0, 65, 64
2, 204516, Note_on_c, 0, 57, 77
2, 204528, Note_off_c, 0, 57, 64
2, 204575, Note_on_c, 0, 66, 94
2, 204575, Note_on_c, 0, 60, 68
2, 204594, Note_on_c, 0, 51, 79
2, 204596, Note_off_c, 0, 60, 64
2, 204609, Control_c, 0, 64, 0
2, 204618, Note_on_c, 0, 62, 97
2, 204621, Note_on_c, 0, 69, 80
2, 204627, Note_off_c, 0, 66, 64
2, 204630, Control_c, 0, 64, 127
2, 204631, Note_off_c, 0, 51, 64
2, 204656, Note_off_c, 0, 69, 64
2, 204661, Note_off_c, 0, 62, 64
2, 204667, Note_on_c, 0, 63, 82
2, 204683, Note_off_c, 0, 63, 64
2, 204710, Note_on_c, 0, 63, 79
2, 204712, Note_on_c, 0, 72, 80
2, 204718, Control_c, 0, 64, 0
2, 204730, Note_on_c, 0, 57, 67
2, 204732, Note_off_c, 0, 63, 64
2, 204737, Control_c, 0, 64, 127
2, 204753, Note_on_c, 0, 75, 86
2, 204755, Note_on_c, 0, 66, 94
2, 204763, Note_off_c, 0, 57, 64
2, 204764, Note_off_c, 0, 72, 64
2, 204770, Note_off_c, 0, 66, 64
2, 204786, Note_off_c, 0, 75, 64
2, 204797, Note_on_c, 0, 69, 69
2, 204805, Note_off_c, 0, 69, 64
2, 204837, Note_on_c, 0, 72, 91
2, 204841, Note_on_c, 0, 78, 74
2, 204857, Note_on_c, 0, 63, 92
2, 204859, Note_off_c, 0, 72, 64
2, 204871, Control_c, 0, 64, 0
2, 204875, Note_off_c, 0, 78, 64
2, 204875, Note_on_c, 0, 81, 91
2, 204878, Note_on_c, 0, 74, 91
2, 204891, Control_c, 0, 64, 127
2, 204894, Note_off_c, 0, 63, 64
2, 204908, Note_off_c, 0, 81, 64
2, 204913, Note_off_c, 0, 74, 64
2, 204919, Note_on_c, 0, 75, 84
2, 204933, Note_off_c, 0, 75, 64
2, 204959, Note_on_c, 0, 75, 80
2, 204965, Note_on_c, 0, 84, 79
2, 204979, Note_on_c, 0, 69, 69
2, 204982, Note_off_c, 0, 75, 64
2, 204987, Control_c, 0, 64, 0
2, 204996, Note_off_c, 0, 84, 64
2, 204999, Note_on_c, 0, 78, 97
2, 205001, Note_on_c, 0, 87, 92
2, 205004, Note_on_c, 0, 84, 55
2, 205007, Note_off_c, 0, 84, 64
2, 205008, Control_c, 0, 64, 127
2, 205015, Note_off_c, 0, 69, 64
2, 205033, Note_off_c, 0, 78, 64
2, 205034, Note_off_c, 0, 87, 64
2, 205043, Note_on_c, 0, 81, 73
2, 205052, Note_off_c, 0, 81, 64
2, 205087, Note_on_c, 0, 90, 79
2, 205087, Note_on_c, 0, 84, 83
2, 205107, Note_on_c, 0, 75, 84
2, 205109, Note_off_c, 0, 84, 64
2, 205118, Note_off_c, 0, 90, 64
2, 205122, Control_c, 0, 64, 0
2, 205126, Note_on_c, 0, 93, 84
2, 205131, Note_on_c, 0, 86, 97
2, 205137, Control_c, 0, 64, 127
2, 205143, Note_off_c, 0, 75, 64
2, 205151, Note_off_c, 0, 86, 64
2, 205164, Note_off_c, 0, 93, 64
2, 205172, Note_on_c, 0, 87, 83
2, 205183, Note_off_c, 0, 87, 64
2, 205220, Note_on_c, 0, 90, 79
2, 205246, Note_off_c, 0, 90, 64
2, 205246, Note_on_c, 0, 81, 77
2, 205276, Note_on_c, 0, 84, 80
2, 205277, Note_on_c, 0, 93, 83
2, 205277, Control_c, 0, 64, 0
2, 205280, Note_on_c, 0, 101, 68
2, 205280, Note_on_c, 0, 99, 68
2, 205285, Control_c, 0, 64, 127
2, 205299, Note_off_c, 0, 81, 64
2, 205400, Control_c, 0, 64, 0
2, 205415, Note_on_c, 0, 81, 86
2, 205416, Note_on_c, 0, 75, 91
2, 205416, Note_on_c, 0, 69, 86
2, 205418, Note_on_c, 0, 66, 84
2, 205418, Note_on_c, 0, 54, 83
2, 205426, Control_c, 0, 64, 127
2, 205450, Note_off_c, 0, 54, 64
2, 205455, Note_off_c, 0, 66, 64
2, 205467, Note_on_c, 0, 77, 82
2, 205470, Note_on_c, 0, 65, 80
2, 205471, Note_off_c, 0, 81, 64
2, 205473, Note_on_c, 0, 53, 84
2, 205481, Note_off_c, 0, 75, 64
2, 205483, Note_off_c, 0, 84, 64
2, 205484, Note_off_c, 0, 93, 64
2, 205487, Note_off_c, 0, 99, 64
2, 205487, Note_off_c, 0, 101, 64
2, 205489, Note_off_c, 0, 65, 64
2, 205490, Note_off_c, 0, 53, 64
2, 205511, Note_on_c, 0, 63, 100
2, 205511, Note_on_c, 0, 51, 91
2, 205513, Note_on_c, 0, 78, 74
2, 205520, Note_off_c, 0, 69, 64
2, 205524, Note_off_c, 0, 51, 64
2, 205527, Note_off_c, 0, 77, 64
2, 205528, Note_off_c, 0, 63, 64
2, 205545, Note_off_c, 0, 78, 64
2, 205551, Note_on_c, 0, 82, 74
2, 205555, Note_on_c, 0, 77, 86
2, 205555, Note_on_c, 0, 70, 91
2, 205555, Note_on_c, 0, 61, 100
2, 205557, Note_on_c, 0, 49, 91
2, 205560, Control_c, 0, 64, 0
2, 205574, Note_off_c, 0, 49, 64
2, 205574, Control_c, 0, 64, 127
2, 205577, Note_off_c, 0, 61, 64
2, 205594, Note_on_c, 0, 60, 84
2, 205595, Note_on_c, 0, 48, 83
2, 205611, Note_off_c, 0, 60, 64
2, 205612, Note_off_c, 0, 48, 64
2, 205617, Note_off_c, 0, 77, 64
2, 205629, Note_off_c, 0, 70, 64
2, 205634, Note_off_c, 0, 82, 64
2, 205636, Note_on_c, 0, 58, 107
2, 205636, Note_on_c, 0, 45, 94
2, 205647, Note_off_c, 0, 45, 64
2, 205649, Note_off_c, 0, 58, 64
2, 205679, Note_on_c, 0, 85, 86
2, 205681, Note_on_c, 0, 77, 88
2, 205682, Note_on_c, 0, 56, 103
2, 205684, Note_on_c, 0, 82, 86
2, 205684, Note_on_c, 0, 73, 94
2, 205684, Note_on_c, 0, 44, 92
2, 205691, Control_c, 0, 64, 0
2, 205703, Note_off_c, 0, 44, 64
2, 205705, Note_off_c, 0, 56, 64
2, 205707, Control_c, 0, 64, 127
2, 205725, Note_on_c, 0, 55, 86
2, 205728, Note_on_c, 0, 43, 86
2, 205741, Note_off_c, 0, 55, 64
2, 205742, Note_off_c, 0, 43, 64
2, 205755, Note_off_c, 0, 77, 64
2, 205757, Note_off_c, 0, 82, 64
2, 205759, Note_off_c, 0, 85, 64
2, 205768, Note_on_c, 0, 55, 90
2, 205770, Note_on_c, 0, 43, 88
2, 205780, Note_off_c, 0, 73, 64
2, 205785, Note_off_c, 0, 43, 64
2, 205787, Note_off_c, 0, 55, 64
2, 205813, Note_on_c, 0, 84, 84
2, 205815, Note_on_c, 0, 82, 84
2, 205815, Note_on_c, 0, 72, 87
2, 205816, Note_on_c, 0, 76, 86
2, 205818, Note_on_c, 0, 55, 88
2, 205818, Note_on_c, 0, 43, 75
2, 205832, Note_off_c, 0, 55, 64
2, 205833, Note_off_c, 0, 43, 64
2, 205860, Control_c, 0, 64, 0
2, 205870, Note_on_c, 0, 48, 90
2, 205871, Note_on_c, 0, 36, 94
2, 205879, Control_c, 0, 64, 127
2, 205886, Note_off_c, 0, 36, 64
2, 205887, Note_off_c, 0, 48, 64
2, 205923, Note_off_c, 0, 82, 64
2, 205923, Note_off_c, 0, 84, 64
2, 205926, Note_off_c, 0, 76, 64
2, 205926, Note_on_c, 0, 48, 92
2, 205926, Note_on_c, 0, 36, 94
2, 205932, Note_off_c, 0, 72, 64
2, 205960, Note_off_c, 0, 48, 64
2, 205994, Note_on_c, 0, 76, 86
2, 205994, Note_on_c, 0, 70, 81
2, 205995, Note_on_c, 0, 64, 82
2, 205997, Note_on_c, 0, 37, 79
2, 205999, Note_off_c, 0, 36, 64
2, 205999, Note_on_c, 0, 49, 100
2, 205999, Control_c, 0, 64, 0
2, 206016, Control_c, 0, 64, 127
2, 206049, Note_off_c, 0, 49, 64
2, 206051, Note_off_c, 0, 37, 64
2, 206077, Note_on_c, 0, 48, 82
2, 206077, Note_on_c, 0, 36, 81
2, 206099, Note_off_c, 0, 48, 64
2, 206106, Note_off_c, 0, 36, 64
2, 206128, Note_off_c, 0, 76, 64
2, 206142, Note_off_c, 0, 70, 64
2, 206143, Note_on_c, 0, 48, 88
2, 206143, Note_on_c, 0, 36, 86
2, 206147, Note_off_c, 0, 64, 64
2, 206227, Note_on_c, 0, 77, 79
2, 206227, Note_on_c, 0, 68, 86
2, 206230, Note_on_c, 0, 72, 86
2, 206230, Note_on_c, 0, 65, 86
2, 206232, Note_off_c, 0, 36, 64
2, 206236, Note_on_c, 0, 29, 109
2, 206239, Control_c, 0, 64, 0
2, 206243, Note_off_c, 0, 48, 64
2, 206287, Control_c, 0, 64, 127
2, 206352, Note_on_c, 0, 36, 90
2, 206358, Control_c, 0, 64, 0
2, 206360, Note_off_c, 0, 29, 64
2, 206385, Note_off_c, 0, 77, 64
2, 206386, Control_c, 0, 64, 127
2, 206389, Note_off_c, 0, 72, 64
2, 206425, Note_off_c, 0, 68, 64
2, 206430, Note_off_c, 0, 65, 64
2, 206451, Note_on_c, 0, 44, 80
2, 206460, Note_off_c, 0, 36, 64
2, 206519, Control_c, 0, 64, 0
2, 206530, Note_on_c, 0, 49, 83
2, 206570, Control_c, 0, 64, 127
2, 206593, Note_off_c, 0, 49, 64
2, 206593, Note_off_c, 0, 44, 64
2, 206595, Note_on_c, 0, 48, 74
2, 206643, Note_on_c, 0, 53, 75
2, 206649, Note_off_c, 0, 48, 64
2, 206651, Control_c, 0, 64, 0
2, 206684, Note_on_c, 0, 56, 79
2, 206695, Note_off_c, 0, 53, 64
2, 206724, Note_on_c, 0, 53, 73
2, 206734, Note_off_c, 0, 56, 64
2, 206741, Control_c, 0, 64, 127
2, 206766, Note_on_c, 0, 58, 73
2, 206788, Note_off_c, 0, 53, 64
2, 206808, Note_on_c, 0, 36, 71
2, 206809, Control_c, 0, 64, 0
2, 206814, Note_on_c, 0, 56, 77
2, 206828, Note_off_c, 0, 58, 64
2, 206843, Control_c, 0, 64, 127
2, 206867, Note_on_c, 0, 52, 79
2, 206870, Note_off_c, 0, 56, 64
2, 206901, Note_on_c, 0, 43, 79
2, 206909, Note_off_c, 0, 52, 64
2, 206913, Note_off_c, 0, 36, 64
2, 206920, Note_on_c, 0, 55, 74
2, 206961, Note_off_c, 0, 43, 64
2, 206962, Note_on_c, 0, 56, 64
2, 206969, Note_on_c, 0, 52, 79
2, 206970, Note_off_c, 0, 55, 64
2, 206994, Note_off_c, 0, 56, 64
2, 207007, Note_on_c, 0, 55, 67
2, 207033, Control_c, 0, 64, 0
2, 207039, Note_on_c, 0, 40, 82
2, 207046, Note_off_c, 0, 52, 64
2, 207056, Note_off_c, 0, 55, 64
2, 207058, Note_on_c, 0, 60, 73
2, 207062, Control_c, 0, 64, 127
2, 207100, Note_on_c, 0, 48, 75
2, 207103, Note_on_c, 0, 61, 79
2, 207104, Note_off_c, 0, 60, 64
2, 207109, Note_off_c, 0, 40, 64
2, 207143, Note_off_c, 0, 61, 64
2, 207144, Note_on_c, 0, 60, 71
2, 207163, Note_off_c, 0, 48, 64
2, 207170, Note_on_c, 0, 58, 88
2, 207185, Note_on_c, 0, 68, 71
2, 207200, Note_off_c, 0, 60, 64
2, 207205, Note_off_c, 0, 58, 64
2, 207228, Control_c, 0, 64, 0
2, 207229, Note_off_c, 0, 68, 64
2, 207233, Note_on_c, 0, 67, 79
2, 207236, Note_on_c, 0, 41, 67
2, 207256, Control_c, 0, 64, 127
2, 207279, Note_on_c, 0, 59, 73
2, 207282, Note_off_c, 0, 67, 64
2, 207315, Note_on_c, 0, 48, 73
2, 207329, Note_on_c, 0, 60, 70
2, 207330, Note_off_c, 0, 41, 64
2, 207331, Note_off_c, 0, 59, 64
2, 207363, Note_off_c, 0, 48, 64
2, 207368, Note_on_c, 0, 56, 73
2, 207382, Note_on_c, 0, 61, 76
2, 207391, Note_off_c, 0, 60, 64
2, 207415, Note_off_c, 0, 61, 64
2, 207420, Note_off_c, 0, 56, 64
2, 207424, Note_on_c, 0, 60, 68
2, 207424, Control_c, 0, 64, 0
2, 207432, Note_on_c, 0, 44, 76
2, 207453, Control_c, 0, 64, 127
2, 207462, Note_off_c, 0, 60, 64
2, 207463, Note_on_c, 0, 65, 76
2, 207497, Note_on_c, 0, 53, 73
2, 207500, Note_on_c, 0, 68, 84
2, 207503, Note_off_c, 0, 44, 64
2, 207505, Note_off_c, 0, 65, 64
2, 207541, Note_on_c, 0, 65, 67
2, 207546, Note_off_c, 0, 68, 64
2, 207548, Note_off_c, 0, 53, 64
2, 207559, Note_on_c, 0, 60, 65
2, 207582, Note_on_c, 0, 70, 74
2, 207595, Control_c, 0, 64, 0
2, 207599, Note_off_c, 0, 65, 64
2, 207611, Note_on_c, 0, 48, 71
2, 207620, Note_off_c, 0, 60, 64
2, 207621, Control_c, 0, 64, 127
2, 207624, Note_on_c, 0, 68, 76
2, 207642, Note_off_c, 0, 70, 64
2, 207659, Note_on_c, 0, 64, 72
2, 207660, Note_off_c, 0, 68, 64
2, 207689, Note_off_c, 0, 64, 64
2, 207691, Note_on_c, 0, 58, 73
2, 207695, Note_off_c, 0, 48, 64
2, 207702, Note_on_c, 0, 67, 66
2, 207741, Note_off_c, 0, 58, 64
2, 207741, Note_on_c, 0, 68, 69
2, 207741, Note_on_c, 0, 64, 58
2, 207747, Note_off_c, 0, 67, 64
2, 207768, Note_off_c, 0, 68, 64
2, 207770, Control_c, 0, 64, 0
2, 207781, Note_on_c, 0, 67, 67
2, 207789, Note_on_c, 0, 52, 67
2, 207798, Control_c, 0, 64, 127
2, 207809, Note_off_c, 0, 64, 64
2, 207820, Note_on_c, 0, 72, 74
2, 207823, Note_off_c, 0, 67, 64
2, 207857, Note_off_c, 0, 52, 64
2, 207857, Note_on_c, 0, 60, 58
2, 207860, Note_on_c, 0, 73, 71
2, 207864, Note_off_c, 0, 72, 64
2, 207889, Note_off_c, 0, 60, 64
2, 207899, Note_on_c, 0, 72, 46
2, 207902, Note_off_c, 0, 73, 64
2, 207920, Note_on_c, 0, 70, 79
2, 207931, Note_off_c, 0, 70, 64
2, 207945, Note_on_c, 0, 79, 76
2, 207948, Note_off_c, 0, 72, 64
2, 207977, Control_c, 0, 64, 0
2, 207987, Note_on_c, 0, 41, 73
2, 207991, Note_on_c, 0, 77, 77
2, 207995, Note_off_c, 0, 79, 64
2, 208005, Control_c, 0, 64, 127
2, 208008, Note_off_c, 0, 77, 64
2, 208036, Note_on_c, 0, 59, 80
2, 208059, Note_on_c, 0, 48, 66
2, 208068, Note_off_c, 0, 59, 64
2, 208077, Note_off_c, 0, 41, 64
2, 208078, Note_on_c, 0, 60, 76
2, 208107, Note_off_c, 0, 48, 64
2, 208110, Note_on_c, 0, 61, 65
2, 208115, Note_on_c, 0, 56, 80
2, 208117, Note_off_c, 0, 60, 64
2, 208135, Note_off_c, 0, 61, 64
2, 208144, Note_on_c, 0, 60, 73
2, 208157, Note_off_c, 0, 56, 64
2, 208161, Control_c, 0, 64, 0
2, 208169, Note_on_c, 0, 44, 83
2, 208183, Note_on_c, 0, 65, 73
2, 208186, Note_off_c, 0, 60, 64
2, 208193, Control_c, 0, 64, 127
2, 208217, Note_on_c, 0, 68, 73
2, 208224, Note_off_c, 0, 65, 64
2, 208229, Note_on_c, 0, 53, 71
2, 208235, Note_off_c, 0, 44, 64
2, 208256, Note_on_c, 0, 65, 63
2, 208261, Note_off_c, 0, 68, 64
2, 208276, Note_off_c, 0, 53, 64
2, 208282, Note_on_c, 0, 60, 77
2, 208298, Note_on_c, 0, 70, 69
2, 208311, Note_off_c, 0, 65, 64
2, 208329, Control_c, 0, 64, 0
2, 208337, Note_on_c, 0, 68, 75
2, 208338, Note_off_c, 0, 60, 64
2, 208338, Note_on_c, 0, 48, 74
2, 208349, Note_off_c, 0, 70, 64
2, 208356, Control_c, 0, 64, 127
2, 208373, Note_off_c, 0, 68, 64
2, 208376, Note_on_c, 0, 64, 73
2, 208399, Note_on_c, 0, 58, 76
2, 208404, Note_off_c, 0, 48, 64
2, 208405, Note_off_c, 0, 64, 64
2, 208410, Note_on_c, 0, 67, 71
2, 208444, Note_on_c, 0, 68, 81
2, 208449, Note_off_c, 0, 58, 64
2, 208449, Note_on_c, 0, 64, 84
2, 208453, Note_off_c, 0, 67, 64
2, 208464, Note_off_c, 0, 68, 64
2, 208476, Note_on_c, 0, 67, 73
2, 208487, Control_c, 0, 64, 0
2, 208497, Note_on_c, 0, 52, 79
2, 208498, Note_off_c, 0, 64, 64
2, 208510, Control_c, 0, 64, 127
2, 208516, Note_on_c, 0, 72, 77
2, 208519, Note_off_c, 0, 67, 64
2, 208549, Note_on_c, 0, 60, 79
2, 208552, Note_off_c, 0, 52, 64
2, 208553, Note_on_c, 0, 73, 73
2, 208554, Note_off_c, 0, 72, 64
2, 208577, Note_off_c, 0, 73, 64
2, 208583, Note_on_c, 0, 72, 76
2, 208588, Note_off_c, 0, 60, 64
2, 208608, Note_on_c, 0, 70, 88
2, 208614, Note_on_c, 0, 80, 82
2, 208626, Note_off_c, 0, 72, 64
2, 208632, Note_off_c, 0, 70, 64
2, 208645, Control_c, 0, 64, 0
2, 208652, Note_on_c, 0, 53, 86
2, 208655, Note_on_c, 0, 79, 79
2, 208657, Note_off_c, 0, 80, 64
2, 208669, Control_c, 0, 64, 127
2, 208687, Note_on_c, 0, 71, 47
2, 208689, Note_off_c, 0, 79, 64
2, 208708, Note_on_c, 0, 60, 80
2, 208714, Note_off_c, 0, 53, 64
2, 208729, Note_off_c, 0, 71, 64
2, 208729, Note_on_c, 0, 72, 67
2, 208756, Note_off_c, 0, 60, 64
2, 208757, Note_on_c, 0, 73, 80
2, 208760, Note_on_c, 0, 68, 79
2, 208766, Note_off_c, 0, 72, 64
2, 208778, Note_off_c, 0, 73, 64
2, 208792, Note_on_c, 0, 72, 63
2, 208799, Note_off_c, 0, 68, 64
2, 208799, Control_c, 0, 64, 0
2, 208804, Note_on_c, 0, 56, 80
2, 208822, Control_c, 0, 64, 127
2, 208824, Note_off_c, 0, 72, 64
2, 208827, Note_on_c, 0, 77, 73
2, 208854, Note_on_c, 0, 65, 79
2, 208858, Note_on_c, 0, 80, 69
2, 208860, Note_off_c, 0, 56, 64
2, 208862, Note_off_c, 0, 77, 64
2, 208890, Note_on_c, 0, 77, 67
2, 208894, Note_off_c, 0, 80, 64
2, 208901, Note_off_c, 0, 65, 64
2, 208909, Note_on_c, 0, 72, 69
2, 208921, Note_on_c, 0, 82, 74
2, 208936, Note_off_c, 0, 77, 64
2, 208941, Control_c, 0, 64, 0
2, 208950, Note_off_c, 0, 72, 64
2, 208950, Note_on_c, 0, 60, 80
2, 208955, Note_on_c, 0, 80, 76
2, 208965, Control_c, 0, 64, 127
2, 208970, Note_off_c, 0, 82, 64
2, 208985, Note_off_c, 0, 80, 64
2, 208985, Note_on_c, 0, 76, 81
2, 209014, Note_on_c, 0, 70, 71
2, 209015, Note_off_c, 0, 76, 64
2, 209015, Note_off_c, 0, 60, 64
2, 209017, Note_on_c, 0, 79, 70
2, 209048, Note_on_c, 0, 80, 76
2, 209055, Note_off_c, 0, 79, 64
2, 209057, Note_off_c, 0, 70, 64
2, 209059, Note_on_c, 0, 76, 79
2, 209067, Note_off_c, 0, 80, 64
2, 209075, Control_c, 0, 64, 0
2, 209083, Note_on_c, 0, 79, 60
2, 209096, Note_on_c, 0, 64, 79
2, 209100, Note_off_c, 0, 76, 64
2, 209103, Control_c, 0, 64, 127
2, 209117, Note_on_c, 0, 84, 74
2, 209120, Note_off_c, 0, 79, 64
2, 209148, Note_off_c, 0, 64, 64
2, 209149, Note_on_c, 0, 85, 79
2, 209152, Note_on_c, 0, 72, 71
2, 209155, Note_off_c, 0, 84, 64
2, 209173, Note_off_c, 0, 72, 64
2, 209185, Note_on_c, 0, 84, 80
2, 209186, Note_off_c, 0, 85, 64
2, 209194, Note_on_c, 0, 82, 73
2, 209217, Note_off_c, 0, 82, 64
2, 209224, Note_on_c, 0, 91, 79
2, 209255, Note_off_c, 0, 84, 64
2, 209256, Note_off_c, 0, 91, 64
2, 209272, Control_c, 0, 64, 0
2, 209278, Note_on_c, 0, 77, 82
2, 209278, Note_on_c, 0, 72, 80
2, 209280, Note_on_c, 0, 89, 76
2, 209280, Note_on_c, 0, 65, 74
2, 209283, Note_on_c, 0, 68, 69
2, 209295, Control_c, 0, 64, 127
2, 209301, Note_off_c, 0, 89, 64
2, 209310, Note_on_c, 0, 101, 68
2, 209341, Note_off_c, 0, 68, 64
2, 209352, Note_on_c, 0, 100, 68
2, 209355, Note_off_c, 0, 65, 64
2, 209357, Note_off_c, 0, 72, 64
2, 209366, Note_off_c, 0, 77, 64
2, 209368, Note_off_c, 0, 101, 64
2, 209381, Control_c, 0, 64, 0
2, 209390, Note_on_c, 0, 99, 82
2, 209392, Note_on_c, 0, 65, 65
2, 209393, Note_on_c, 0, 73, 97
2, 209393, Note_on_c, 0, 68, 67
2, 209395, Note_on_c, 0, 77, 84
2, 209403, Control_c, 0, 64, 127
2, 209410, Note_off_c, 0, 100, 64
2, 209430, Note_on_c, 0, 97, 68
2, 209454, Note_off_c, 0, 77, 64
2, 209456, Note_off_c, 0, 99, 64
2, 209460, Note_on_c, 0, 96, 68
2, 209464, Note_off_c, 0, 73, 64
2, 209473, Note_off_c, 0, 68, 64
2, 209488, Note_off_c, 0, 97, 64
2, 209490, Note_on_c, 0, 94, 82
2, 209506, Note_off_c, 0, 65, 64
2, 209520, Note_off_c, 0, 96, 64
2, 209520, Note_on_c, 0, 92, 68
2, 209550, Note_on_c, 0, 91, 68
2, 209552, Note_off_c, 0, 94, 64
2, 209560, Note_on_c, 0, 91, 68
2, 209580, Note_on_c, 0, 89, 74
2, 209584, Note_off_c, 0, 92, 64
2, 209587, Control_c, 0, 64, 0
2, 209591, Note_on_c, 0, 72, 79
2, 209594, Note_on_c, 0, 77, 79
2, 209594, Note_on_c, 0, 65, 79
2, 209596, Note_on_c, 0, 68, 72
2, 209611, Control_c, 0, 64, 127
2, 209623, Note_off_c, 0, 89, 64
2, 209630, Note_on_c, 0, 88, 86
2, 209656, Note_off_c, 0, 72, 64
2, 209662, Note_off_c, 0, 65, 64
2, 209665, Note_off_c, 0, 77, 64
2, 209670, Note_off_c, 0, 88, 64
2, 209670, Note_on_c, 0, 87, 68
2, 209671, Note_off_c, 0, 68, 64
2, 209676, Control_c, 0, 64, 0
2, 209680, Note_off_c, 0, 91, 64
2, 209680, Note_off_c, 0, 91, 64
2, 209690, Note_on_c, 0, 73, 88
2, 209691, Note_on_c, 0, 77, 86
2, 209693, Note_on_c, 0, 68, 73
2, 209693, Note_on_c, 0, 65, 76
2, 209698, Control_c, 0, 64, 127
2, 209700, Note_off_c, 0, 87, 64
2, 209700, Note_on_c, 0, 85, 69
2, 209725, Note_off_c, 0, 77, 64
2, 209732, Note_off_c, 0, 73, 64
2, 209737, Note_off_c, 0, 85, 64
2, 209740, Note_on_c, 0, 84, 76
2, 209741, Note_off_c, 0, 65, 64
2, 209741, Note_off_c, 0, 68, 64
2, 209770, Note_on_c, 0, 82, 106
2, 209789, Note_off_c, 0, 84, 64
2, 209804, Note_on_c, 0, 80, 96
2, 209816, Note_off_c, 0, 82, 64
2, 209840, Note_off_c, 0, 80, 64
2, 209850, Note_on_c, 0, 79, 58
2, 209876, Note_on_c, 0, 77, 49
2, 209888, Note_off_c, 0, 79, 64
2, 209892, Note_on_c, 0, 77, 87
2, 209897, Control_c, 0, 64, 0
2, 209902, Note_off_c, 0, 77, 64
2, 209902, Note_on_c, 0, 65, 87
2, 209902, Note_on_c, 0, 60, 83
2, 209902, Note_on_c, 0, 53, 83
2, 209904, Note_off_c, 0, 77, 64
2, 209904, Note_on_c, 0, 92, 94
2, 209904, Note_on_c, 0, 56, 79
2, 209926, Control_c, 0, 64, 127
2, 209952, Note_on_c, 0, 91, 64
2, 209959, Note_off_c, 0, 92, 64
2, 209973, Note_off_c, 0, 56, 64
2, 209973, Note_off_c, 0, 53, 64
2, 209976, Note_off_c, 0, 60, 64
2, 209982, Note_on_c, 0, 89, 104
2, 209983, Note_off_c, 0, 65, 64
2, 209985, Note_off_c, 0, 91, 64
2, 210009, Control_c, 0, 64, 0
2, 210016, Note_on_c, 0, 61, 82
2, 210018, Note_on_c, 0, 87, 109
2, 210018, Note_on_c, 0, 65, 91
2, 210018, Note_on_c, 0, 56, 76
2, 210020, Note_on_c, 0, 53, 76
2, 210024, Note_off_c, 0, 89, 64
2, 210039, Control_c, 0, 64, 127
2, 210049, Note_on_c, 0, 85, 82
2, 210055, Note_off_c, 0, 87, 64
2, 210081, Note_off_c, 0, 85, 64
2, 210083, Note_on_c, 0, 84, 73
2, 210111, Note_on_c, 0, 82, 86
2, 210119, Note_off_c, 0, 61, 64
2, 210120, Note_off_c, 0, 84, 64
2, 210120, Note_off_c, 0, 53, 64
2, 210121, Note_off_c, 0, 56, 64
2, 210139, Note_on_c, 0, 80, 88
2, 210140, Note_off_c, 0, 65, 64
2, 210147, Note_off_c, 0, 82, 64
2, 210165, Note_on_c, 0, 79, 86
2, 210177, Note_off_c, 0, 80, 64
2, 210195, Control_c, 0, 64, 0
2, 210203, Note_on_c, 0, 65, 82
2, 210203, Note_on_c, 0, 60, 81
2, 210203, Note_on_c, 0, 56, 77
2, 210203, Note_on_c, 0, 53, 82
2, 210205, Note_off_c, 0, 79, 64
2, 210205, Note_on_c, 0, 77, 104
2, 210221, Control_c, 0, 64, 127
2, 210238, Note_on_c, 0, 75, 94
2, 210247, Note_off_c, 0, 77, 64
2, 210262, Note_off_c, 0, 53, 64
2, 210262, Note_off_c, 0, 60, 64
2, 210268, Note_on_c, 0, 73, 88
2, 210273, Note_off_c, 0, 65, 64
2, 210277, Note_off_c, 0, 75, 64
2, 210280, Note_off_c, 0, 56, 64
2, 210297, Control_c, 0, 64, 0
2, 210302, Note_off_c, 0, 73, 64
2, 210303, Note_on_c, 0, 72, 109
2, 210303, Note_on_c, 0, 61, 86
2, 210303, Note_on_c, 0, 53, 79
2, 210305, Note_on_c, 0, 65, 94
2, 210306, Note_on_c, 0, 56, 79
2, 210322, Control_c, 0, 64, 127
2, 210335, Note_on_c, 0, 70, 84
2, 210345, Note_off_c, 0, 72, 64
2, 210367, Note_on_c, 0, 68, 83
2, 210379, Note_off_c, 0, 70, 64
2, 210384, Note_off_c, 0, 65, 64
2, 210390, Note_off_c, 0, 61, 64
2, 210396, Note_off_c, 0, 56, 64
2, 210399, Note_on_c, 0, 67, 81
2, 210400, Note_off_c, 0, 53, 64
2, 210410, Note_off_c, 0, 68, 64
2, 210430, Note_off_c, 0, 67, 64
2, 210436, Note_on_c, 0, 65, 40
2, 210469, Note_on_c, 0, 61, 82
2, 210477, Note_off_c, 0, 65, 64
2, 210488, Note_on_c, 0, 41, 75
2, 210489, Note_off_c, 0, 61, 64
2, 210509, Note_on_c, 0, 48, 68
2, 210529, Control_c, 0, 64, 0
2, 210532, Note_on_c, 0, 56, 103
2, 210555, Note_on_c, 0, 60, 80
2, 210575, Control_c, 0, 64, 127
2, 210624, Note_on_c, 0, 65, 82
2, 210635, Note_off_c, 0, 60, 64
2, 210675, Note_on_c, 0, 68, 79
2, 210683, Note_off_c, 0, 65, 64
2, 210691, Note_off_c, 0, 68, 64
2, 210722, Note_on_c, 0, 72, 88
2, 210764, Note_on_c, 0, 77, 79
2, 210779, Note_off_c, 0, 72, 64
2, 210801, Note_on_c, 0, 80, 76
2, 210807, Note_off_c, 0, 77, 64
2, 210813, Note_off_c, 0, 80, 64
2, 210836, Note_on_c, 0, 84, 80
2, 210849, Note_off_c, 0, 48, 64
2, 210856, Note_off_c, 0, 41, 64
2, 210876, Note_off_c, 0, 56, 64
2, 210878, Note_on_c, 0, 89, 74
2, 210912, Note_on_c, 0, 92, 81
2, 210918, Note_off_c, 0, 84, 64
2, 210927, Note_off_c, 0, 89, 64
2, 210957, Note_on_c, 0, 85, 98
2, 210959, Control_c, 0, 64, 0
2, 210963, Note_off_c, 0, 92, 64
2, 210964, Note_on_c, 0, 97, 68
2, 210981, Control_c, 0, 64, 127
2, 211016, Note_on_c, 0, 84, 76
2, 211018, Note_on_c, 0, 96, 80
2, 211024, Note_off_c, 0, 97, 64
2, 211028, Note_off_c, 0, 85, 64
2, 211059, Note_on_c, 0, 80, 67
2, 211060, Note_on_c, 0, 92, 81
2, 211068, Note_off_c, 0, 96, 64
2, 211069, Note_off_c, 0, 84, 64
2, 211102, Note_off_c, 0, 80, 64
2, 211102, Note_on_c, 0, 89, 79
2, 211104, Note_on_c, 0, 77, 62
2, 211108, Note_off_c, 0, 92, 64
2, 211125, Note_off_c, 0, 77, 64
2, 211140, Control_c, 0, 64, 0
2, 211146, Note_on_c, 0, 82, 86
2, 211147, Note_on_c, 0, 94, 81
2, 211148, Note_off_c, 0, 89, 64
2, 211164, Control_c, 0, 64, 127
2, 211185, Note_on_c, 0, 92, 74
2, 211187, Note_on_c, 0, 80, 69
2, 211195, Note_off_c, 0, 82, 64
2, 211199, Note_off_c, 0, 94, 64
2, 211210, Control_c, 0, 64, 0
2, 211221, Note_off_c, 0, 80, 64
2, 211222, Note_on_c, 0, 77, 72
2, 211224, Note_on_c, 0, 89, 77
2, 211230, Control_c, 0, 64, 127
2, 211235, Note_off_c, 0, 92, 64
2, 211249, Control_c, 0, 64, 0
2, 211254, Note_off_c, 0, 89, 64
2, 211255, Control_c, 0, 64, 127
2, 211258, Note_on_c, 0, 72, 72
2, 211261, Note_off_c, 0, 77, 64
2, 211263, Note_on_c, 0, 84, 73
2, 211281, Note_off_c, 0, 72, 64
2, 211292, Control_c, 0, 64, 0
2, 211295, Note_on_c, 0, 79, 72
2, 211297, Note_on_c, 0, 91, 79
2, 211304, Control_c, 0, 64, 127
2, 211309, Note_off_c, 0, 84, 64
2, 211326, Control_c, 0, 64, 0
2, 211332, Control_c, 0, 64, 127
2, 211334, Note_on_c, 0, 89, 60
2, 211337, Note_on_c, 0, 77, 58
2, 211345, Note_off_c, 0, 79, 64
2, 211352, Note_off_c, 0, 91, 64
2, 211365, Note_off_c, 0, 77, 64
2, 211368, Note_on_c, 0, 84, 72
2, 211368, Note_on_c, 0, 72, 68
2, 211372, Note_off_c, 0, 89, 64
2, 211398, Note_off_c, 0, 84, 64
2, 211402, Note_off_c, 0, 72, 64
2, 211405, Note_on_c, 0, 80, 84
2, 211405, Note_on_c, 0, 68, 86
2, 211431, Note_off_c, 0, 68, 64
2, 211433, Control_c, 0, 64, 0
2, 211435, Note_off_c, 0, 80, 64
2, 211439, Note_on_c, 0, 85, 72
2, 211440, Note_on_c, 0, 73, 90
2, 211450, Control_c, 0, 64, 127
2, 211471, Note_on_c, 0, 84, 77
2, 211474, Note_on_c, 0, 72, 79
2, 211480, Note_off_c, 0, 85, 64
2, 211483, Note_off_c, 0, 73, 64
2, 211504, Note_on_c, 0, 68, 73
2, 211507, Note_on_c, 0, 80, 73
2, 211513, Note_off_c, 0, 72, 64
2, 211515, Note_off_c, 0, 84, 64
2, 211533, Control_c, 0, 64, 0
2, 211536, Note_on_c, 0, 65, 79
2, 211539, Note_on_c, 0, 77, 69
2, 211540, Note_off_c, 0, 80, 64
2, 211540, Note_off_c, 0, 68, 64
2, 211545, Control_c, 0, 64, 127
2, 211560, Note_off_c, 0, 65, 64
2, 211570, Note_on_c, 0, 82, 79
2, 211570, Note_on_c, 0, 70, 87
2, 211571, Note_off_c, 0, 77, 64
2, 211584, Control_c, 0, 64, 0
2, 211598, Note_on_c, 0, 68, 67
2, 211599, Note_on_c, 0, 80, 72
2, 211604, Control_c, 0, 64, 127
2, 211607, Note_off_c, 0, 70, 64
2, 211609, Note_off_c, 0, 82, 64
2, 211628, Note_off_c, 0, 68, 64
2, 211630, Note_on_c, 0, 65, 73
2, 211632, Note_on_c, 0, 77, 73
2, 211636, Note_off_c, 0, 80, 64
2, 211658, Note_off_c, 0, 77, 64
2, 211661, Note_on_c, 0, 60, 76
2, 211664, Note_off_c, 0, 65, 64
2, 211666, Note_on_c, 0, 72, 73
2, 211689, Note_off_c, 0, 60, 64
2, 211695, Note_on_c, 0, 79, 72
2, 211695, Note_on_c, 0, 67, 81
2, 211698, Control_c, 0, 64, 0
2, 211702, Note_off_c, 0, 72, 64
2, 211717, Control_c, 0, 64, 127
2, 211726, Note_off_c, 0, 79, 64
2, 211727, Note_on_c, 0, 77, 69
2, 211729, Note_on_c, 0, 65, 65
2, 211734, Note_off_c, 0, 67, 64
2, 211744, Control_c, 0, 64, 0
2, 211755, Note_on_c, 0, 60, 67
2, 211758, Note_off_c, 0, 77, 64
2, 211758, Note_on_c, 0, 72, 73
2, 211760, Note_off_c, 0, 65, 64
2, 211760, Control_c, 0, 64, 127
2, 211780, Note_off_c, 0, 72, 64
2, 211785, Note_on_c, 0, 68, 79
2, 211791, Note_on_c, 0, 56, 86
2, 211792, Note_off_c, 0, 60, 64
2, 211814, Control_c, 0, 64, 0
2, 211819, Note_on_c, 0, 73, 73
2, 211821, Note_off_c, 0, 56, 64
2, 211821, Note_on_c, 0, 61, 86
2, 211822, Note_off_c, 0, 68, 64
2, 211836, Control_c, 0, 64, 127
2, 211851, Note_on_c, 0, 60, 54
2, 211852, Note_on_c, 0, 72, 79
2, 211859, Note_off_c, 0, 73, 64
2, 211862, Note_off_c, 0, 61, 64
2, 211880, Note_on_c, 0, 56, 67
2, 211882, Note_on_c, 0, 68, 77
2, 211887, Note_off_c, 0, 60, 64
2, 211890, Note_off_c, 0, 72, 64
2, 211911, Note_on_c, 0, 53, 74
2, 211913, Note_on_c, 0, 65, 76
2, 211914, Note_off_c, 0, 68, 64
2, 211915, Note_off_c, 0, 56, 64
2, 211933, Note_off_c, 0, 53, 64
2, 211941, Control_c, 0, 64, 0
2, 211942, Note_on_c, 0, 58, 90
2, 211944, Note_off_c, 0, 65, 64
2, 211946, Note_on_c, 0, 70, 71
2, 211961, Control_c, 0, 64, 127
2, 211973, Note_on_c, 0, 68, 74
2, 211973, Note_on_c, 0, 56, 67
2, 211979, Note_off_c, 0, 70, 64
2, 211979, Note_off_c, 0, 58, 64
2, 211998, Note_on_c, 0, 53, 71
2, 211999, Note_off_c, 0, 56, 64
2, 211999, Note_on_c, 0, 65, 73
2, 212005, Note_off_c, 0, 68, 64
2, 212024, Note_off_c, 0, 65, 64
2, 212029, Note_on_c, 0, 60, 70
2, 212029, Note_on_c, 0, 48, 76
2, 212032, Note_off_c, 0, 53, 64
2, 212035, Control_c, 0, 64, 0
2, 212052, Note_off_c, 0, 48, 64
2, 212057, Note_on_c, 0, 67, 73
2, 212058, Note_on_c, 0, 55, 87
2, 212067, Note_off_c, 0, 60, 64
2, 212086, Note_on_c, 0, 53, 69
2, 212087, Note_on_c, 0, 65, 67
2, 212092, Control_c, 0, 64, 127
2, 212095, Note_off_c, 0, 55, 64
2, 212101, Note_off_c, 0, 67, 64
2, 212112, Note_on_c, 0, 48, 74
2, 212114, Note_off_c, 0, 53, 64
2, 212117, Note_on_c, 0, 60, 76
2, 212120, Note_off_c, 0, 65, 64
2, 212140, Note_off_c, 0, 60, 64
2, 212143, Note_on_c, 0, 56, 94
2, 212144, Control_c, 0, 64, 0
2, 212148, Note_off_c, 0, 48, 64
2, 212148, Note_on_c, 0, 44, 91
2, 212167, Control_c, 0, 64, 127
2, 212172, Note_off_c, 0, 56, 64
2, 212172, Note_on_c, 0, 49, 86
2, 212173, Note_on_c, 0, 61, 70
2, 212176, Control_c, 0, 64, 0
2, 212178, Note_off_c, 0, 44, 64
2, 212199, Note_on_c, 0, 48, 77
2, 212202, Note_on_c, 0, 60, 77
2, 212205, Note_off_c, 0, 49, 64
2, 212208, Note_off_c, 0, 61, 64
2, 212222, Note_on_c, 0, 44, 64
2, 212230, Note_on_c, 0, 56, 76
2, 212233, Note_off_c, 0, 48, 64
2, 212237, Control_c, 0, 64, 127
2, 212240, Note_off_c, 0, 60, 64
2, 212244, Control_c, 0, 64, 0
2, 212253, Note_on_c, 0, 41, 84
2, 212257, Note_off_c, 0, 44, 64
2, 212259, Note_off_c, 0, 56, 64
2, 212259, Note_on_c, 0, 53, 73
2, 212275, Note_off_c, 0, 41, 64
2, 212283, Control_c, 0, 64, 127
2, 212285, Note_on_c, 0, 46, 97
2, 212288, Note_on_c, 0, 58, 71
2, 212296, Note_off_c, 0, 53, 64
2, 212296, Control_c, 0, 64, 0
2, 212307, Note_on_c, 0, 44, 68
2, 212311, Note_off_c, 0, 46, 64
2, 212315, Note_on_c, 0, 56, 76
2, 212315, Control_c, 0, 64, 127
2, 212321, Note_off_c, 0, 58, 64
2, 212338, Note_off_c, 0, 44, 64
2, 212338, Note_on_c, 0, 41, 50
2, 212342, Note_on_c, 0, 53, 79
2, 212347, Note_off_c, 0, 56, 64
2, 212367, Note_off_c, 0, 53, 64
2, 212369, Note_on_c, 0, 36, 86
2, 212371, Note_off_c, 0, 41, 64
2, 212372, Note_on_c, 0, 48, 80
2, 212397, Control_c, 0, 64, 0
2, 212399, Note_on_c, 0, 55, 74
2, 212399, Note_on_c, 0, 43, 91
2, 212401, Note_off_c, 0, 36, 64
2, 212406, Note_off_c, 0, 48, 64
2, 212421, Control_c, 0, 64, 127
2, 212424, Note_on_c, 0, 41, 80
2, 212428, Note_off_c, 0, 55, 64
2, 212428, Note_on_c, 0, 53, 73
2, 212433, Note_off_c, 0, 43, 64
2, 212444, Note_on_c, 0, 36, 67
2, 212455, Note_on_c, 0, 48, 76
2, 212459, Note_off_c, 0, 53, 64
2, 212460, Note_off_c, 0, 41, 64
2, 212468, Note_on_c, 0, 32, 69
2, 212476, Note_off_c, 0, 36, 64
2, 212477, Control_c, 0, 64, 0
2, 212480, Note_off_c, 0, 48, 64
2, 212483, Note_on_c, 0, 44, 87
2, 212496, Note_off_c, 0, 32, 64
2, 212513, Note_on_c, 0, 49, 81
2, 212516, Note_on_c, 0, 37, 73
2, 212518, Note_off_c, 0, 44, 64
2, 212540, Note_on_c, 0, 48, 84
2, 212540, Note_on_c, 0, 36, 89
2, 212571, Note_on_c, 0, 44, 84
2, 212580, Note_on_c, 0, 32, 93
2, 212589, Note_off_c, 0, 49, 64
2, 212592, Note_off_c, 0, 37, 64
2, 212608, Note_on_c, 0, 41, 84
2, 212612, Note_on_c, 0, 29, 92
2, 212613, Control_c, 0, 64, 127
2, 212616, Note_off_c, 0, 36, 64
2, 212616, Note_off_c, 0, 48, 64
2, 212627, Control_c, 0, 64, 0
2, 212635, Note_on_c, 0, 37, 93
2, 212637, Note_on_c, 0, 49, 85
2, 212647, Note_off_c, 0, 44, 64
2, 212651, Control_c, 0, 64, 127
2, 212656, Note_off_c, 0, 32, 64
2, 212658, Control_c, 0, 64, 0
2, 212664, Note_on_c, 0, 48, 81
2, 212668, Note_on_c, 0, 36, 93
2, 212684, Note_off_c, 0, 41, 64
2, 212688, Note_off_c, 0, 29, 64
2, 212695, Note_on_c, 0, 44, 89
2, 212700, Note_on_c, 0, 32, 93
2, 212702, Control_c, 0, 64, 127
2, 212707, Note_off_c, 0, 36, 64
2, 212710, Control_c, 0, 64, 0
2, 212711, Note_off_c, 0, 37, 64
2, 212713, Note_off_c, 0, 49, 64
2, 212728, Note_on_c, 0, 41, 93
2, 212730, Control_c, 0, 64, 127
2, 212738, Control_c, 0, 64, 0
2, 212740, Note_off_c, 0, 48, 64
2, 212740, Note_on_c, 0, 29, 92
2, 212758, Note_on_c, 0, 37, 93
2, 212759, Note_on_c, 0, 49, 82
2, 212771, Note_off_c, 0, 44, 64
2, 212776, Note_off_c, 0, 32, 64
2, 212784, Control_c, 0, 64, 127
2, 212789, Note_on_c, 0, 48, 81
2, 212789, Note_on_c, 0, 36, 93
2, 212792, Control_c, 0, 64, 0
2, 212804, Note_off_c, 0, 41, 64
2, 212812, Note_on_c, 0, 32, 93
2, 212812, Control_c, 0, 64, 127
2, 212816, Note_off_c, 0, 29, 64
2, 212818, Note_on_c, 0, 44, 93
2, 212820, Control_c, 0, 64, 0
2, 212834, Note_off_c, 0, 37, 64
2, 212835, Note_off_c, 0, 49, 64
2, 212847, Note_on_c, 0, 41, 92
2, 212860, Note_on_c, 0, 29, 93
2, 212865, Note_off_c, 0, 36, 64
2, 212865, Note_off_c, 0, 48, 64
2, 212873, Note_on_c, 0, 37, 93
2, 212874, Note_on_c, 0, 49, 86
2, 212888, Note_off_c, 0, 32, 64
2, 212894, Note_off_c, 0, 44, 64
2, 212900, Note_on_c, 0, 48, 88
2, 212903, Note_on_c, 0, 36, 93
2, 212911, Control_c, 0, 64, 127
2, 212923, Note_off_c, 0, 41, 64
2, 212932, Note_on_c, 0, 44, 93
2, 212932, Note_on_c, 0, 32, 93
2, 212936, Note_off_c, 0, 29, 64
2, 212949, Note_off_c, 0, 37, 64
2, 212950, Note_off_c, 0, 49, 64
2, 212965, Control_c, 0, 64, 0
2, 212976, Note_off_c, 0, 48, 64
2, 212979, Note_off_c, 0, 36, 64
2, 212988, Note_on_c, 0, 41, 93
2, 212988, Note_on_c, 0, 29, 93
2, 213008, Note_off_c, 0, 32, 64
2, 213008, Note_off_c, 0, 44, 64
2, 213030, Control_c, 0, 64, 127
2, 213094, Control_c, 0, 64, 0
2, 213108, Note_off_c, 0, 29, 64
2, 213109, Note_off_c, 0, 41, 64
2, 213209, Note_on_c, 0, 77, 109
2, 213209, Note_on_c, 0, 73, 109
2, 213209, Note_on_c, 0, 68, 109
2, 213211, Note_on_c, 0, 65, 109
2, 213211, Note_on_c, 0, 49, 109
2, 213211, Note_on_c, 0, 37, 109
2, 213249, Control_c, 0, 64, 127
2, 213319, Note_off_c, 0, 65, 64
2, 213323, Note_off_c, 0, 68, 64
2, 213326, Note_off_c, 0, 73, 64
2, 213328, Note_off_c, 0, 77, 64
2, 213338, Note_off_c, 0, 49, 64
2, 213339, Note_off_c, 0, 37, 64
2, 213463, Control_c, 0, 64, 0
2, 213492, Note_on_c, 0, 34, 96
2, 213493, Note_on_c, 0, 85, 109
2, 213493, Note_on_c, 0, 73, 109
2, 213493, Note_on_c, 0, 46, 109
2, 213496, Note_on_c, 0, 79, 109
2, 213496, Note_on_c, 0, 77, 109
2, 213518, Control_c, 0, 64, 127
2, 213590, Note_off_c, 0, 85, 64
2, 213592, Note_off_c, 0, 79, 64
2, 213593, Note_off_c, 0, 77, 64
2, 213598, Note_off_c, 0, 73, 64
2, 213602, Note_off_c, 0, 46, 64
2, 213612, Note_off_c, 0, 34, 64
2, 213772, Control_c, 0, 64, 0
2, 213819, Note_on_c, 0, 64, 109
2, 213819, Note_on_c, 0, 58, 109
2, 213822, Note_on_c, 0, 60, 109
2, 213822, Note_on_c, 0, 55, 109
2, 213825, Note_on_c, 0, 48, 109
2, 213825, Note_on_c, 0, 36, 109
2, 213881, Control_c, 0, 64, 127
2, 214082, Note_off_c, 0, 64, 64
2, 214091, Note_off_c, 0, 58, 64
2, 214094, Note_off_c, 0, 60, 64
2, 214108, Note_off_c, 0, 55, 64
2, 214121, Note_off_c, 0, 48, 64
2, 214122, Note_off_c, 0, 36, 64
2, 214226, Control_c, 0, 64, 0
2, 214260, Note_on_c, 0, 29, 96
2, 214270, Note_on_c, 0, 65, 106
2, 214270, Note_on_c, 0, 56, 109
2, 214271, Note_on_c, 0, 60, 109
2, 214273, Note_on_c, 0, 53, 109
2, 214273, Note_on_c, 0, 41, 109
2, 214585, Control_c, 0, 64, 127
2, 214632, Note_off_c, 0, 56, 64
2, 214633, Note_off_c, 0, 65, 64
2, 214634, Note_off_c, 0, 41, 64
2, 214635, Note_off_c, 0, 53, 64
2, 214635, Note_off_c, 0, 60, 64
2, 214740, Note_off_c, 0, 29, 64
2, 215530, Control_c, 0, 64, 0
2, 216295, Control_c, 0, 64, 0
2, 216295, End_track
3, 0, Start_track
3, 1, Copyright_t, "__________________________________________________________\012\012KUNSTDERFUGE.COM GREAT CLASSICAL MIDI COLLECTION\012__________________________________________________________\012\012KUNST-DER-FUGE CONTRIBUTOR's PROPERTY\012Copyright by Contributor & Kunst der Fuge,  2006\012\012Contributors' list: http://kunstderfuge.com/thanks.htm\012Terms and conditions: http://kunstderfuge.com/notes.htm\012__________________________________________________________\012\012NO WEBSITE MAY PUBLISH THIS FILE WITHOUT PERMISSION\012NO COMMERCIAL USE ALLOWED, NOR BY SALES NOR by eBay!\012PLEASE REPORT ANY ABUSE TO INFO@ONCLASSICAL.COM\012__________________________________________________________\012\012Thousands of free classical MIDI files at kunstderfuge.com"
3, 1, End_track
0, 0, End_of_file
