0, 0, Header, 1, 4, 120
1, 0, Start_track
1, 0, Key_signature, 0, "major"
1, 0, Time_signature, 4, 2, 24, 8
1, 0, Tempo, 461538
1, 5711, Tempo, 461538
1, 5717, Tempo, 458015
1, 5723, Tempo, 454545
1, 5729, Tempo, 454545
1, 5735, Tempo, 447761
1, 5741, Tempo, 444444
1, 5747, Tempo, 441176
1, 5753, Tempo, 437956
1, 5759, Tempo, 437956
1, 5765, Tempo, 434782
1, 5771, Tempo, 428571
1, 5777, Tempo, 428571
1, 5783, Tempo, 422535
1, 5789, Tempo, 419580
1, 5795, Tempo, 419580
1, 5801, Tempo, 413793
1, 5807, Tempo, 413793
1, 5813, Tempo, 408163
1, 5819, Tempo, 405405
1, 5825, Tempo, 405405
1, 5831, Tempo, 400000
1, 5837, Tempo, 400000
1, 5843, Tempo, 397350
1, 5849, Tempo, 394736
1, 5855, Tempo, 389610
1, 5861, Tempo, 389610
1, 5867, Tempo, 384615
1, 5873, Tempo, 384615
1, 5879, Tempo, 382165
1, 5885, Tempo, 377358
1, 5891, Tempo, 375000
1, 5897, Tempo, 375000
1, 5903, Tempo, 370370
1, 5909, Tempo, 368098
1, 5912, Tempo, 370370
1, 5914, Tempo, 368098
1, 6018, Tempo, 368098
1, 6022, Tempo, 368098
1, 6024, Tempo, 370370
1, 6026, Tempo, 375000
1, 6030, Tempo, 375000
1, 6032, Tempo, 377358
1, 6034, Tempo, 382165
1, 6036, Tempo, 384615
1, 6040, Tempo, 384615
1, 6042, Tempo, 389610
1, 6044, Tempo, 389610
1, 6048, Tempo, 394736
1, 6050, Tempo, 397350
1, 6052, Tempo, 400000
1, 6054, Tempo, 400000
1, 6058, Tempo, 405405
1, 6060, Tempo, 405405
1, 6062, Tempo, 408163
1, 6066, Tempo, 413793
1, 6068, Tempo, 413793
1, 6070, Tempo, 419580
1, 6072, Tempo, 419580
1, 6076, Tempo, 422535
1, 6078, Tempo, 428571
1, 6080, Tempo, 428571
1, 6084, Tempo, 434782
1, 6086, Tempo, 437956
1, 6088, Tempo, 437956
1, 6090, Tempo, 441176
1, 6094, Tempo, 444444
1, 6096, Tempo, 447761
1, 6098, Tempo, 454545
1, 6102, Tempo, 454545
1, 6104, Tempo, 458015
1, 6106, Tempo, 461538
1, 6108, Tempo, 465116
1, 21118, Tempo, 465116
1, 21124, Tempo, 461538
1, 21130, Tempo, 458015
1, 21134, Tempo, 454545
1, 21140, Tempo, 454545
1, 21146, Tempo, 447761
1, 21150, Tempo, 444444
1, 21156, Tempo, 441176
1, 21162, Tempo, 437956
1, 21166, Tempo, 437956
1, 21172, Tempo, 434782
1, 21176, Tempo, 428571
1, 21214, Tempo, 434782
1, 21222, Tempo, 428571
1, 21230, Tempo, 428571
1, 21238, Tempo, 422535
1, 21246, Tempo, 419580
1, 21254, Tempo, 419580
1, 21262, Tempo, 413793
1, 21270, Tempo, 413793
1, 21278, Tempo, 408163
1, 21286, Tempo, 405405
1, 21294, Tempo, 405405
1, 21302, Tempo, 400000
1, 21308, Tempo, 394736
1, 21312, Tempo, 397350
1, 21314, Tempo, 400000
1, 21316, Tempo, 400000
1, 21318, Tempo, 405405
1, 21320, Tempo, 405405
1, 21322, Tempo, 408163
1, 21324, Tempo, 413793
1, 21326, Tempo, 413793
1, 21328, Tempo, 419580
1, 21330, Tempo, 419580
1, 21332, Tempo, 422535
1, 21334, Tempo, 428571
1, 21336, Tempo, 428571
1, 21338, Tempo, 434782
1, 21340, Tempo, 437956
1, 21342, Tempo, 437956
1, 21344, Tempo, 441176
1, 21346, Tempo, 444444
1, 21348, Tempo, 447761
1, 21350, Tempo, 454545
1, 21352, Tempo, 454545
1, 21354, Tempo, 458015
1, 21356, Tempo, 461538
1, 21358, Tempo, 465116
1, 21360, Tempo, 468750
1, 21362, Tempo, 476190
1, 21364, Tempo, 476190
1, 21366, Tempo, 480000
1, 21368, Tempo, 487804
1, 21370, Tempo, 491803
1, 21372, Tempo, 491803
1, 21374, Tempo, 500000
1, 21376, Tempo, 500000
1, 21378, Tempo, 508474
1, 21380, Tempo, 512820
1, 21382, Tempo, 517241
1, 21384, Tempo, 517241
1, 21386, Tempo, 521739
1, 21388, Tempo, 530973
1, 21390, Tempo, 530973
1, 21394, Tempo, 530973
1, 21398, Tempo, 521739
1, 21400, Tempo, 517241
1, 21404, Tempo, 517241
1, 21406, Tempo, 512820
1, 21410, Tempo, 508474
1, 21414, Tempo, 500000
1, 21416, Tempo, 500000
1, 21420, Tempo, 491803
1, 21422, Tempo, 491803
1, 21426, Tempo, 487804
1, 21430, Tempo, 480000
1, 21432, Tempo, 476190
1, 21436, Tempo, 476190
1, 21438, Tempo, 468750
1, 21442, Tempo, 465116
1, 21444, Tempo, 461538
1, 25202, Tempo, 476190
1, 25214, Tempo, 468750
1, 25224, Tempo, 465116
1, 25234, Tempo, 461538
1, 25246, Tempo, 458015
1, 25256, Tempo, 454545
1, 25266, Tempo, 454545
1, 25278, Tempo, 447761
1, 25288, Tempo, 444444
1, 25298, Tempo, 441176
1, 25310, Tempo, 437956
1, 25320, Tempo, 437956
1, 25330, Tempo, 434782
1, 25342, Tempo, 428571
1, 25352, Tempo, 428571
1, 25362, Tempo, 422535
1, 25374, Tempo, 419580
1, 25384, Tempo, 419580
1, 25394, Tempo, 413793
1, 25406, Tempo, 413793
1, 25416, Tempo, 408163
1, 25426, Tempo, 405405
1, 25438, Tempo, 405405
1, 25448, Tempo, 400000
1, 25458, Tempo, 400000
1, 25470, Tempo, 397350
1, 25480, Tempo, 394736
1, 25490, Tempo, 389610
1, 25502, Tempo, 389610
1, 25512, Tempo, 384615
1, 25522, Tempo, 384615
1, 25534, Tempo, 382165
1, 25544, Tempo, 377358
1, 25554, Tempo, 375000
1, 25566, Tempo, 375000
1, 25576, Tempo, 370370
1, 25586, Tempo, 368098
1, 25598, Tempo, 368098
1, 25608, Tempo, 363636
1, 25618, Tempo, 363636
1, 25630, Tempo, 359281
1, 25640, Tempo, 359281
1, 25650, Tempo, 357142
1, 25659, Tempo, 357142
1, 25691, Tempo, 359281
1, 25723, Tempo, 359281
1, 25755, Tempo, 363636
1, 25787, Tempo, 363636
1, 25819, Tempo, 368098
1, 25820, Tempo, 363636
1, 25824, Tempo, 363636
1, 25828, Tempo, 368098
1, 25832, Tempo, 368098
1, 25836, Tempo, 370370
1, 25840, Tempo, 375000
1, 25844, Tempo, 375000
1, 25848, Tempo, 377358
1, 25852, Tempo, 382165
1, 25856, Tempo, 384615
1, 25858, Tempo, 384615
1, 25862, Tempo, 389610
1, 25866, Tempo, 389610
1, 25870, Tempo, 394736
1, 25874, Tempo, 397350
1, 25878, Tempo, 400000
1, 25882, Tempo, 400000
1, 25886, Tempo, 405405
1, 25890, Tempo, 405405
1, 25894, Tempo, 408163
1, 25898, Tempo, 413793
1, 25902, Tempo, 413793
1, 25906, Tempo, 419580
1, 25910, Tempo, 419580
1, 25912, Tempo, 422535
1, 25916, Tempo, 428571
1, 25920, Tempo, 428571
1, 25924, Tempo, 434782
1, 25928, Tempo, 437956
1, 25932, Tempo, 437956
1, 25936, Tempo, 441176
1, 25940, Tempo, 444444
1, 25944, Tempo, 447761
1, 25948, Tempo, 454545
1, 25952, Tempo, 454545
1, 25956, Tempo, 458015
1, 25960, Tempo, 461538
1, 25962, Tempo, 465116
1, 25962, End_track
2, 0, Start_track
2, 0, Title_t, "Chopin"
2, 0, Control_c, 0, 0, 0
2, 0, Program_c, 0, 0
2, 0, Control_c, 0, 7, 125
2, 112, Note_on_c, 0, 75, 59
2, 149, Control_c, 0, 64, 127
2, 220, Note_on_c, 0, 75, 0
2, 306, Control_c, 0, 64, 0
2, 307, Note_on_c, 0, 32, 49
2, 327, Note_on_c, 0, 75, 66
2, 328, Control_c, 0, 64, 127
2, 341, Note_on_c, 0, 32, 0
2, 395, Note_on_c, 0, 75, 0
2, 398, Note_on_c, 0, 68, 28
2, 403, Note_on_c, 0, 51, 27
2, 416, Note_on_c, 0, 68, 0
2, 424, Note_on_c, 0, 51, 0
2, 431, Note_on_c, 0, 56, 33
2, 433, Note_on_c, 0, 72, 29
2, 451, Note_on_c, 0, 56, 0
2, 456, Note_on_c, 0, 72, 0
2, 467, Note_on_c, 0, 63, 34
2, 492, Note_on_c, 0, 56, 29
2, 496, Note_on_c, 0, 63, 0
2, 501, Note_on_c, 0, 68, 35
2, 503, Note_on_c, 0, 56, 0
2, 523, Note_on_c, 0, 68, 0
2, 524, Note_on_c, 0, 51, 50
2, 535, Note_on_c, 0, 72, 39
2, 544, Note_on_c, 0, 51, 0
2, 559, Note_on_c, 0, 72, 0
2, 563, Note_on_c, 0, 44, 46
2, 564, Note_on_c, 0, 75, 53
2, 588, Note_on_c, 0, 44, 0
2, 594, Note_on_c, 0, 68, 28
2, 600, Note_on_c, 0, 51, 30
2, 610, Note_on_c, 0, 75, 0
2, 617, Note_on_c, 0, 68, 0
2, 618, Note_on_c, 0, 51, 0
2, 620, Note_on_c, 0, 56, 38
2, 622, Note_on_c, 0, 72, 24
2, 637, Note_on_c, 0, 56, 0
2, 642, Note_on_c, 0, 72, 0
2, 648, Note_on_c, 0, 60, 30
2, 651, Note_on_c, 0, 63, 31
2, 661, Note_on_c, 0, 60, 0
2, 680, Note_on_c, 0, 56, 38
2, 681, Note_on_c, 0, 63, 0
2, 683, Note_on_c, 0, 68, 33
2, 697, Note_on_c, 0, 56, 0
2, 701, Note_on_c, 0, 51, 53
2, 709, Note_on_c, 0, 72, 37
2, 711, Note_on_c, 0, 68, 0
2, 722, Note_on_c, 0, 51, 0
2, 728, Note_on_c, 0, 72, 0
2, 730, Note_on_c, 0, 75, 55
2, 730, Note_on_c, 0, 44, 47
2, 750, Note_on_c, 0, 75, 0
2, 750, Note_on_c, 0, 68, 41
2, 761, Note_on_c, 0, 51, 49
2, 772, Note_on_c, 0, 44, 0
2, 776, Note_on_c, 0, 68, 0
2, 781, Note_on_c, 0, 72, 41
2, 782, Note_on_c, 0, 56, 43
2, 784, Note_on_c, 0, 51, 0
2, 793, Note_on_c, 0, 72, 0
2, 805, Note_on_c, 0, 56, 0
2, 807, Note_on_c, 0, 60, 38
2, 808, Note_on_c, 0, 63, 47
2, 818, Note_on_c, 0, 60, 0
2, 836, Note_on_c, 0, 63, 0
2, 836, Note_on_c, 0, 56, 38
2, 839, Note_on_c, 0, 68, 38
2, 853, Note_on_c, 0, 56, 0
2, 859, Note_on_c, 0, 51, 52
2, 863, Note_on_c, 0, 72, 38
2, 867, Note_on_c, 0, 68, 0
2, 881, Note_on_c, 0, 51, 0
2, 888, Note_on_c, 0, 75, 60
2, 889, Note_on_c, 0, 72, 0
2, 889, Note_on_c, 0, 44, 50
2, 910, Note_on_c, 0, 75, 0
2, 919, Note_on_c, 0, 51, 40
2, 926, Note_on_c, 0, 68, 34
2, 938, Note_on_c, 0, 44, 0
2, 938, Note_on_c, 0, 51, 0
2, 939, Note_on_c, 0, 56, 43
2, 952, Note_on_c, 0, 72, 41
2, 954, Note_on_c, 0, 68, 0
2, 958, Note_on_c, 0, 56, 0
2, 970, Note_on_c, 0, 60, 37
2, 977, Note_on_c, 0, 63, 38
2, 979, Note_on_c, 0, 72, 0
2, 988, Note_on_c, 0, 60, 0
2, 998, Note_on_c, 0, 56, 34
2, 1004, Note_on_c, 0, 63, 0
2, 1007, Note_on_c, 0, 68, 43
2, 1009, Note_on_c, 0, 56, 0
2, 1024, Note_on_c, 0, 51, 43
2, 1032, Note_on_c, 0, 68, 0
2, 1033, Note_on_c, 0, 72, 32
2, 1048, Note_on_c, 0, 51, 0
2, 1056, Note_on_c, 0, 44, 41
2, 1057, Note_on_c, 0, 72, 0
2, 1059, Control_c, 0, 64, 0
2, 1064, Note_on_c, 0, 77, 65
2, 1081, Control_c, 0, 64, 127
2, 1088, Note_on_c, 0, 44, 0
2, 1089, Note_on_c, 0, 77, 0
2, 1090, Note_on_c, 0, 68, 38
2, 1100, Note_on_c, 0, 51, 29
2, 1117, Note_on_c, 0, 68, 0
2, 1123, Note_on_c, 0, 56, 39
2, 1127, Note_on_c, 0, 51, 0
2, 1127, Note_on_c, 0, 72, 41
2, 1136, Note_on_c, 0, 56, 0
2, 1151, Note_on_c, 0, 72, 0
2, 1151, Note_on_c, 0, 63, 35
2, 1156, Note_on_c, 0, 60, 28
2, 1164, Note_on_c, 0, 63, 0
2, 1176, Note_on_c, 0, 60, 0
2, 1179, Note_on_c, 0, 56, 37
2, 1182, Note_on_c, 0, 68, 43
2, 1187, Note_on_c, 0, 56, 0
2, 1195, Note_on_c, 0, 51, 42
2, 1199, Note_on_c, 0, 72, 38
2, 1206, Note_on_c, 0, 68, 0
2, 1213, Note_on_c, 0, 51, 0
2, 1223, Note_on_c, 0, 72, 0
2, 1224, Note_on_c, 0, 75, 50
2, 1228, Note_on_c, 0, 44, 39
2, 1241, Note_on_c, 0, 75, 0
2, 1248, Note_on_c, 0, 68, 41
2, 1258, Note_on_c, 0, 51, 37
2, 1269, Note_on_c, 0, 44, 0
2, 1274, Note_on_c, 0, 72, 39
2, 1278, Note_on_c, 0, 68, 0
2, 1279, Note_on_c, 0, 56, 47
2, 1282, Note_on_c, 0, 51, 0
2, 1294, Note_on_c, 0, 72, 0
2, 1302, Note_on_c, 0, 60, 34
2, 1303, Note_on_c, 0, 63, 38
2, 1304, Note_on_c, 0, 56, 0
2, 1316, Note_on_c, 0, 60, 0
2, 1328, Note_on_c, 0, 56, 38
2, 1331, Note_on_c, 0, 63, 0
2, 1331, Note_on_c, 0, 68, 49
2, 1338, Note_on_c, 0, 56, 0
2, 1345, Note_on_c, 0, 51, 48
2, 1359, Note_on_c, 0, 72, 38
2, 1368, Note_on_c, 0, 68, 0
2, 1370, Note_on_c, 0, 51, 0
2, 1377, Note_on_c, 0, 44, 52
2, 1380, Note_on_c, 0, 72, 0
2, 1380, Note_on_c, 0, 75, 53
2, 1397, Note_on_c, 0, 44, 0
2, 1406, Note_on_c, 0, 68, 39
2, 1406, Note_on_c, 0, 51, 43
2, 1424, Note_on_c, 0, 75, 0
2, 1424, Note_on_c, 0, 68, 0
2, 1426, Note_on_c, 0, 56, 55
2, 1431, Note_on_c, 0, 72, 45
2, 1441, Note_on_c, 0, 51, 0
2, 1447, Note_on_c, 0, 56, 0
2, 1453, Note_on_c, 0, 60, 34
2, 1456, Note_on_c, 0, 63, 49
2, 1460, Note_on_c, 0, 72, 0
2, 1467, Note_on_c, 0, 60, 0
2, 1484, Note_on_c, 0, 56, 40
2, 1485, Note_on_c, 0, 68, 49
2, 1489, Note_on_c, 0, 63, 0
2, 1493, Note_on_c, 0, 56, 0
2, 1505, Note_on_c, 0, 51, 49
2, 1511, Note_on_c, 0, 72, 46
2, 1521, Note_on_c, 0, 68, 0
2, 1522, Note_on_c, 0, 51, 0
2, 1527, Note_on_c, 0, 44, 50
2, 1533, Note_on_c, 0, 75, 58
2, 1535, Note_on_c, 0, 72, 0
2, 1552, Note_on_c, 0, 44, 0
2, 1557, Note_on_c, 0, 68, 43
2, 1561, Note_on_c, 0, 51, 58
2, 1580, Note_on_c, 0, 75, 0
2, 1582, Note_on_c, 0, 56, 52
2, 1584, Note_on_c, 0, 68, 0
2, 1584, Note_on_c, 0, 72, 35
2, 1601, Note_on_c, 0, 51, 0
2, 1605, Note_on_c, 0, 56, 0
2, 1610, Note_on_c, 0, 60, 37
2, 1612, Note_on_c, 0, 63, 49
2, 1616, Note_on_c, 0, 72, 0
2, 1632, Note_on_c, 0, 60, 0
2, 1639, Note_on_c, 0, 68, 46
2, 1641, Note_on_c, 0, 56, 29
2, 1653, Note_on_c, 0, 63, 0
2, 1656, Note_on_c, 0, 68, 0
2, 1665, Note_on_c, 0, 51, 49
2, 1670, Note_on_c, 0, 72, 46
2, 1688, Note_on_c, 0, 56, 0
2, 1695, Note_on_c, 0, 51, 0
2, 1699, Note_on_c, 0, 75, 61
2, 1702, Note_on_c, 0, 72, 0
2, 1703, Note_on_c, 0, 44, 58
2, 1708, Control_c, 0, 64, 0
2, 1726, Control_c, 0, 64, 127
2, 1730, Note_on_c, 0, 75, 0
2, 1732, Note_on_c, 0, 51, 53
2, 1743, Note_on_c, 0, 70, 41
2, 1751, Note_on_c, 0, 55, 36
2, 1760, Note_on_c, 0, 44, 0
2, 1762, Note_on_c, 0, 51, 0
2, 1763, Note_on_c, 0, 73, 51
2, 1777, Note_on_c, 0, 70, 0
2, 1778, Note_on_c, 0, 55, 0
2, 1789, Note_on_c, 0, 61, 48
2, 1791, Note_on_c, 0, 73, 0
2, 1791, Note_on_c, 0, 63, 49
2, 1806, Note_on_c, 0, 61, 0
2, 1819, Note_on_c, 0, 70, 36
2, 1824, Note_on_c, 0, 63, 0
2, 1826, Note_on_c, 0, 55, 38
2, 1839, Note_on_c, 0, 70, 0
2, 1842, Note_on_c, 0, 73, 52
2, 1848, Note_on_c, 0, 51, 50
2, 1856, Note_on_c, 0, 55, 0
2, 1868, Note_on_c, 0, 44, 55
2, 1869, Note_on_c, 0, 73, 0
2, 1870, Note_on_c, 0, 75, 59
2, 1871, Note_on_c, 0, 51, 0
2, 1891, Note_on_c, 0, 44, 0
2, 1895, Note_on_c, 0, 70, 37
2, 1895, Note_on_c, 0, 51, 34
2, 1905, Note_on_c, 0, 75, 0
2, 1905, Note_on_c, 0, 55, 45
2, 1912, Note_on_c, 0, 70, 0
2, 1916, Note_on_c, 0, 73, 47
2, 1925, Note_on_c, 0, 51, 0
2, 1933, Note_on_c, 0, 55, 0
2, 1938, Note_on_c, 0, 61, 53
2, 1940, Note_on_c, 0, 73, 0
2, 1941, Note_on_c, 0, 63, 48
2, 1963, Note_on_c, 0, 61, 0
2, 1970, Note_on_c, 0, 63, 0
2, 1971, Note_on_c, 0, 70, 37
2, 1975, Note_on_c, 0, 55, 29
2, 1985, Note_on_c, 0, 70, 0
2, 1989, Note_on_c, 0, 73, 52
2, 2001, Note_on_c, 0, 51, 34
2, 2002, Note_on_c, 0, 55, 0
2, 2013, Note_on_c, 0, 73, 0
2, 2018, Note_on_c, 0, 44, 64
2, 2023, Note_on_c, 0, 51, 0
2, 2024, Note_on_c, 0, 77, 56
2, 2042, Note_on_c, 0, 44, 0
2, 2045, Note_on_c, 0, 51, 37
2, 2047, Note_on_c, 0, 77, 0
2, 2052, Note_on_c, 0, 70, 48
2, 2055, Note_on_c, 0, 51, 0
2, 2059, Note_on_c, 0, 55, 45
2, 2079, Note_on_c, 0, 73, 47
2, 2084, Note_on_c, 0, 70, 0
2, 2085, Note_on_c, 0, 55, 0
2, 2096, Note_on_c, 0, 61, 46
2, 2103, Note_on_c, 0, 73, 0
2, 2107, Note_on_c, 0, 63, 49
2, 2123, Note_on_c, 0, 61, 0
2, 2129, Note_on_c, 0, 55, 37
2, 2134, Note_on_c, 0, 63, 0
2, 2135, Note_on_c, 0, 70, 44
2, 2141, Note_on_c, 0, 55, 0
2, 2155, Note_on_c, 0, 51, 56
2, 2158, Note_on_c, 0, 73, 52
2, 2167, Note_on_c, 0, 70, 0
2, 2174, Note_on_c, 0, 51, 0
2, 2178, Note_on_c, 0, 44, 59
2, 2187, Note_on_c, 0, 73, 0
2, 2187, Note_on_c, 0, 75, 56
2, 2203, Note_on_c, 0, 44, 0
2, 2208, Note_on_c, 0, 51, 33
2, 2214, Note_on_c, 0, 75, 0
2, 2222, Note_on_c, 0, 70, 48
2, 2228, Note_on_c, 0, 51, 0
2, 2244, Note_on_c, 0, 55, 42
2, 2252, Note_on_c, 0, 73, 38
2, 2253, Note_on_c, 0, 70, 0
2, 2260, Note_on_c, 0, 55, 0
2, 2273, Note_on_c, 0, 73, 0
2, 2276, Note_on_c, 0, 61, 38
2, 2276, Note_on_c, 0, 75, 39
2, 2280, Note_on_c, 0, 63, 48
2, 2301, Note_on_c, 0, 61, 0
2, 2303, Note_on_c, 0, 75, 0
2, 2304, Note_on_c, 0, 55, 36
2, 2305, Note_on_c, 0, 70, 42
2, 2309, Note_on_c, 0, 63, 0
2, 2318, Note_on_c, 0, 55, 0
2, 2328, Note_on_c, 0, 51, 50
2, 2328, Note_on_c, 0, 73, 52
2, 2330, Note_on_c, 0, 70, 0
2, 2344, Note_on_c, 0, 51, 0
2, 2350, Note_on_c, 0, 73, 0
2, 2352, Note_on_c, 0, 44, 55
2, 2364, Note_on_c, 0, 82, 69
2, 2380, Note_on_c, 0, 44, 0
2, 2386, Note_on_c, 0, 51, 49
2, 2395, Note_on_c, 0, 82, 0
2, 2411, Note_on_c, 0, 51, 0
2, 2412, Note_on_c, 0, 56, 42
2, 2423, Note_on_c, 0, 75, 44
2, 2434, Note_on_c, 0, 56, 0
2, 2444, Note_on_c, 0, 75, 0
2, 2446, Note_on_c, 0, 60, 36
2, 2450, Note_on_c, 0, 63, 51
2, 2459, Note_on_c, 0, 60, 0
2, 2471, Note_on_c, 0, 56, 44
2, 2476, Note_on_c, 0, 63, 0
2, 2484, Note_on_c, 0, 56, 0
2, 2486, Note_on_c, 0, 72, 36
2, 2498, Note_on_c, 0, 51, 43
2, 2504, Note_on_c, 0, 75, 47
2, 2507, Note_on_c, 0, 72, 0
2, 2520, Note_on_c, 0, 51, 0
2, 2527, Note_on_c, 0, 44, 55
2, 2527, Note_on_c, 0, 80, 64
2, 2530, Note_on_c, 0, 75, 0
2, 2554, Note_on_c, 0, 44, 0
2, 2555, Note_on_c, 0, 80, 0
2, 2561, Note_on_c, 0, 72, 38
2, 2564, Note_on_c, 0, 51, 43
2, 2582, Note_on_c, 0, 75, 44
2, 2586, Note_on_c, 0, 72, 0
2, 2588, Note_on_c, 0, 51, 0
2, 2597, Note_on_c, 0, 56, 46
2, 2608, Note_on_c, 0, 75, 0
2, 2612, Note_on_c, 0, 56, 0
2, 2612, Note_on_c, 0, 63, 50
2, 2642, Note_on_c, 0, 63, 0
2, 2644, Note_on_c, 0, 56, 52
2, 2654, Note_on_c, 0, 72, 39
2, 2666, Note_on_c, 0, 56, 0
2, 2668, Note_on_c, 0, 75, 46
2, 2672, Note_on_c, 0, 72, 0
2, 2674, Note_on_c, 0, 51, 51
2, 2695, Note_on_c, 0, 75, 0
2, 2695, Note_on_c, 0, 80, 56
2, 2700, Note_on_c, 0, 51, 0
2, 2702, Note_on_c, 0, 44, 52
2, 2732, Note_on_c, 0, 80, 0
2, 2733, Note_on_c, 0, 44, 0
2, 2735, Note_on_c, 0, 72, 35
2, 2743, Note_on_c, 0, 52, 37
2, 2756, Note_on_c, 0, 76, 34
2, 2766, Note_on_c, 0, 56, 47
2, 2770, Note_on_c, 0, 72, 0
2, 2778, Note_on_c, 0, 52, 0
2, 2784, Note_on_c, 0, 76, 0
2, 2791, Note_on_c, 0, 64, 49
2, 2793, Note_on_c, 0, 56, 0
2, 2799, Note_on_c, 0, 60, 36
2, 2819, Note_on_c, 0, 64, 0
2, 2822, Note_on_c, 0, 56, 34
2, 2825, Note_on_c, 0, 60, 0
2, 2837, Note_on_c, 0, 72, 30
2, 2846, Note_on_c, 0, 56, 0
2, 2850, Note_on_c, 0, 76, 27
2, 2854, Note_on_c, 0, 52, 38
2, 2867, Note_on_c, 0, 72, 0
2, 2882, Note_on_c, 0, 76, 0
2, 2882, Note_on_c, 0, 80, 63
2, 2884, Note_on_c, 0, 52, 0
2, 2885, Note_on_c, 0, 44, 52
2, 2919, Note_on_c, 0, 80, 0
2, 2919, Note_on_c, 0, 44, 0
2, 2921, Note_on_c, 0, 72, 26
2, 2924, Note_on_c, 0, 52, 44
2, 2943, Note_on_c, 0, 56, 47
2, 2945, Note_on_c, 0, 76, 41
2, 2952, Note_on_c, 0, 72, 0
2, 2966, Note_on_c, 0, 52, 0
2, 2980, Note_on_c, 0, 56, 0
2, 2982, Note_on_c, 0, 64, 48
2, 2983, Note_on_c, 0, 76, 0
2, 2984, Note_on_c, 0, 60, 39
2, 3006, Note_on_c, 0, 64, 0
2, 3007, Note_on_c, 0, 56, 43
2, 3013, Note_on_c, 0, 60, 0
2, 3021, Note_on_c, 0, 72, 38
2, 3025, Note_on_c, 0, 56, 0
2, 3036, Note_on_c, 0, 52, 44
2, 3043, Note_on_c, 0, 76, 45
2, 3064, Note_on_c, 0, 72, 0
2, 3075, Control_c, 0, 64, 0
2, 3079, Note_on_c, 0, 37, 62
2, 3082, Note_on_c, 0, 52, 0
2, 3083, Note_on_c, 0, 80, 59
2, 3092, Note_on_c, 0, 76, 0
2, 3096, Control_c, 0, 64, 127
2, 3101, Note_on_c, 0, 37, 0
2, 3133, Note_on_c, 0, 80, 0
2, 3136, Note_on_c, 0, 73, 41
2, 3144, Note_on_c, 0, 56, 39
2, 3165, Note_on_c, 0, 73, 0
2, 3176, Note_on_c, 0, 56, 0
2, 3177, Note_on_c, 0, 77, 15
2, 3177, Note_on_c, 0, 61, 39
2, 3200, Note_on_c, 0, 77, 0
2, 3201, Note_on_c, 0, 61, 0
2, 3203, Note_on_c, 0, 68, 39
2, 3203, Note_on_c, 0, 65, 22
2, 3217, Note_on_c, 0, 68, 0
2, 3222, Note_on_c, 0, 61, 31
2, 3232, Note_on_c, 0, 73, 42
2, 3235, Note_on_c, 0, 65, 0
2, 3244, Note_on_c, 0, 61, 0
2, 3247, Note_on_c, 0, 56, 47
2, 3256, Note_on_c, 0, 77, 50
2, 3262, Note_on_c, 0, 73, 0
2, 3271, Note_on_c, 0, 56, 0
2, 3282, Note_on_c, 0, 80, 58
2, 3283, Note_on_c, 0, 49, 58
2, 3285, Note_on_c, 0, 77, 0
2, 3307, Note_on_c, 0, 80, 0
2, 3307, Note_on_c, 0, 73, 47
2, 3312, Note_on_c, 0, 56, 49
2, 3334, Note_on_c, 0, 77, 50
2, 3335, Note_on_c, 0, 61, 47
2, 3342, Note_on_c, 0, 49, 0
2, 3343, Note_on_c, 0, 73, 0
2, 3344, Note_on_c, 0, 56, 0
2, 3357, Note_on_c, 0, 77, 0
2, 3363, Note_on_c, 0, 68, 52
2, 3365, Note_on_c, 0, 61, 0
2, 3365, Note_on_c, 0, 65, 33
2, 3380, Note_on_c, 0, 68, 0
2, 3393, Note_on_c, 0, 61, 38
2, 3393, Note_on_c, 0, 73, 48
2, 3397, Note_on_c, 0, 65, 0
2, 3407, Note_on_c, 0, 61, 0
2, 3413, Note_on_c, 0, 56, 47
2, 3417, Note_on_c, 0, 77, 53
2, 3425, Note_on_c, 0, 73, 0
2, 3434, Note_on_c, 0, 56, 0
2, 3440, Note_on_c, 0, 49, 56
2, 3441, Note_on_c, 0, 80, 59
2, 3442, Note_on_c, 0, 77, 0
2, 3464, Note_on_c, 0, 49, 0
2, 3467, Note_on_c, 0, 56, 61
2, 3471, Note_on_c, 0, 73, 46
2, 3492, Note_on_c, 0, 61, 47
2, 3492, Note_on_c, 0, 77, 53
2, 3497, Note_on_c, 0, 80, 0
2, 3498, Note_on_c, 0, 56, 0
2, 3503, Note_on_c, 0, 73, 0
2, 3511, Note_on_c, 0, 61, 0
2, 3516, Note_on_c, 0, 65, 42
2, 3520, Note_on_c, 0, 77, 0
2, 3523, Note_on_c, 0, 68, 52
2, 3532, Note_on_c, 0, 65, 0
2, 3546, Note_on_c, 0, 61, 42
2, 3549, Note_on_c, 0, 73, 46
2, 3557, Note_on_c, 0, 68, 0
2, 3568, Note_on_c, 0, 61, 0
2, 3571, Note_on_c, 0, 56, 56
2, 3571, Note_on_c, 0, 77, 52
2, 3581, Note_on_c, 0, 73, 0
2, 3592, Note_on_c, 0, 56, 0
2, 3598, Note_on_c, 0, 77, 0
2, 3598, Note_on_c, 0, 82, 64
2, 3600, Note_on_c, 0, 49, 57
2, 3622, Note_on_c, 0, 82, 0
2, 3623, Note_on_c, 0, 49, 0
2, 3626, Note_on_c, 0, 73, 47
2, 3633, Note_on_c, 0, 55, 41
2, 3647, Note_on_c, 0, 77, 48
2, 3649, Note_on_c, 0, 73, 0
2, 3652, Note_on_c, 0, 61, 52
2, 3661, Note_on_c, 0, 55, 0
2, 3669, Note_on_c, 0, 77, 0
2, 3671, Note_on_c, 0, 61, 0
2, 3675, Note_on_c, 0, 65, 30
2, 3679, Note_on_c, 0, 67, 36
2, 3699, Note_on_c, 0, 65, 0
2, 3703, Note_on_c, 0, 67, 0
2, 3703, Note_on_c, 0, 73, 55
2, 3708, Note_on_c, 0, 61, 52
2, 3725, Note_on_c, 0, 73, 0
2, 3729, Note_on_c, 0, 77, 47
2, 3732, Note_on_c, 0, 61, 0
2, 3734, Note_on_c, 0, 55, 29
2, 3760, Note_on_c, 0, 77, 0
2, 3762, Note_on_c, 0, 55, 0
2, 3766, Note_on_c, 0, 84, 60
2, 3769, Note_on_c, 0, 48, 51
2, 3775, Control_c, 0, 64, 0
2, 3788, Control_c, 0, 64, 127
2, 3792, Note_on_c, 0, 84, 0
2, 3800, Note_on_c, 0, 72, 39
2, 3800, Note_on_c, 0, 55, 41
2, 3805, Note_on_c, 0, 48, 0
2, 3828, Note_on_c, 0, 77, 39
2, 3829, Note_on_c, 0, 60, 38
2, 3832, Note_on_c, 0, 72, 0
2, 3839, Note_on_c, 0, 55, 0
2, 3840, Note_on_c, 0, 77, 0
2, 3854, Note_on_c, 0, 67, 43
2, 3860, Note_on_c, 0, 60, 0
2, 3860, Note_on_c, 0, 65, 32
2, 3871, Note_on_c, 0, 67, 0
2, 3880, Note_on_c, 0, 72, 38
2, 3882, Note_on_c, 0, 65, 0
2, 3882, Note_on_c, 0, 60, 34
2, 3892, Note_on_c, 0, 72, 0
2, 3896, Note_on_c, 0, 77, 54
2, 3904, Note_on_c, 0, 55, 29
2, 3909, Note_on_c, 0, 60, 0
2, 3927, Note_on_c, 0, 82, 66
2, 3929, Note_on_c, 0, 77, 0
2, 3929, Note_on_c, 0, 55, 0
2, 3933, Note_on_c, 0, 48, 56
2, 3959, Note_on_c, 0, 82, 0
2, 3959, Note_on_c, 0, 72, 32
2, 3961, Note_on_c, 0, 48, 0
2, 3963, Note_on_c, 0, 55, 44
2, 3978, Note_on_c, 0, 76, 44
2, 3988, Note_on_c, 0, 60, 41
2, 4000, Note_on_c, 0, 72, 0
2, 4003, Note_on_c, 0, 55, 0
2, 4010, Note_on_c, 0, 76, 0
2, 4012, Note_on_c, 0, 67, 34
2, 4015, Note_on_c, 0, 60, 0
2, 4017, Note_on_c, 0, 64, 42
2, 4038, Note_on_c, 0, 67, 0
2, 4038, Note_on_c, 0, 64, 0
2, 4040, Note_on_c, 0, 60, 42
2, 4041, Note_on_c, 0, 72, 32
2, 4061, Note_on_c, 0, 60, 0
2, 4065, Note_on_c, 0, 76, 38
2, 4067, Note_on_c, 0, 55, 42
2, 4075, Note_on_c, 0, 72, 0
2, 4085, Note_on_c, 0, 76, 0
2, 4088, Note_on_c, 0, 55, 0
2, 4097, Note_on_c, 0, 53, 60
2, 4099, Note_on_c, 0, 80, 51
2, 4132, Note_on_c, 0, 56, 52
2, 4141, Note_on_c, 0, 53, 0
2, 4146, Note_on_c, 0, 72, 39
2, 4149, Note_on_c, 0, 80, 0
2, 4162, Note_on_c, 0, 60, 42
2, 4165, Note_on_c, 0, 77, 46
2, 4166, Note_on_c, 0, 56, 0
2, 4183, Note_on_c, 0, 72, 0
2, 4185, Note_on_c, 0, 65, 33
2, 4188, Note_on_c, 0, 60, 0
2, 4194, Note_on_c, 0, 77, 0
2, 4200, Note_on_c, 0, 68, 35
2, 4203, Note_on_c, 0, 65, 0
2, 4207, Note_on_c, 0, 60, 42
2, 4228, Note_on_c, 0, 68, 0
2, 4228, Note_on_c, 0, 60, 0
2, 4228, Note_on_c, 0, 56, 49
2, 4233, Note_on_c, 0, 72, 30
2, 4249, Note_on_c, 0, 56, 0
2, 4250, Note_on_c, 0, 72, 0
2, 4283, Note_on_c, 0, 77, 66
2, 4287, Note_on_c, 0, 47, 42
2, 4289, Control_c, 0, 64, 0
2, 4309, Note_on_c, 0, 77, 0
2, 4311, Control_c, 0, 64, 127
2, 4314, Note_on_c, 0, 53, 39
2, 4321, Note_on_c, 0, 71, 36
2, 4335, Note_on_c, 0, 47, 0
2, 4339, Note_on_c, 0, 56, 49
2, 4344, Note_on_c, 0, 75, 48
2, 4346, Note_on_c, 0, 53, 0
2, 4351, Note_on_c, 0, 71, 0
2, 4361, Note_on_c, 0, 56, 0
2, 4367, Note_on_c, 0, 75, 0
2, 4367, Note_on_c, 0, 63, 43
2, 4380, Note_on_c, 0, 65, 34
2, 4388, Note_on_c, 0, 63, 0
2, 4397, Note_on_c, 0, 56, 41
2, 4401, Note_on_c, 0, 71, 47
2, 4411, Note_on_c, 0, 65, 0
2, 4418, Note_on_c, 0, 56, 0
2, 4424, Note_on_c, 0, 75, 44
2, 4426, Note_on_c, 0, 53, 43
2, 4434, Note_on_c, 0, 71, 0
2, 4436, Note_on_c, 0, 75, 0
2, 4444, Note_on_c, 0, 46, 59
2, 4447, Note_on_c, 0, 77, 66
2, 4454, Note_on_c, 0, 53, 0
2, 4455, Control_c, 0, 64, 0
2, 4468, Control_c, 0, 64, 127
2, 4477, Note_on_c, 0, 46, 0
2, 4477, Note_on_c, 0, 53, 52
2, 4485, Note_on_c, 0, 70, 41
2, 4499, Note_on_c, 0, 77, 0
2, 4504, Note_on_c, 0, 75, 57
2, 4505, Note_on_c, 0, 53, 0
2, 4505, Note_on_c, 0, 56, 35
2, 4514, Note_on_c, 0, 70, 0
2, 4516, Note_on_c, 0, 75, 0
2, 4526, Note_on_c, 0, 63, 48
2, 4529, Note_on_c, 0, 56, 0
2, 4540, Note_on_c, 0, 65, 42
2, 4553, Note_on_c, 0, 63, 0
2, 4556, Note_on_c, 0, 56, 43
2, 4556, Note_on_c, 0, 70, 43
2, 4572, Note_on_c, 0, 65, 0
2, 4576, Note_on_c, 0, 56, 0
2, 4580, Note_on_c, 0, 75, 42
2, 4584, Note_on_c, 0, 53, 34
2, 4593, Note_on_c, 0, 70, 0
2, 4595, Note_on_c, 0, 75, 0
2, 4604, Note_on_c, 0, 46, 60
2, 4608, Note_on_c, 0, 79, 65
2, 4610, Note_on_c, 0, 53, 0
2, 4616, Control_c, 0, 64, 0
2, 4622, Control_c, 0, 64, 127
2, 4633, Note_on_c, 0, 46, 0
2, 4636, Note_on_c, 0, 53, 45
2, 4638, Note_on_c, 0, 79, 0
2, 4638, Note_on_c, 0, 70, 49
2, 4654, Note_on_c, 0, 56, 41
2, 4656, Note_on_c, 0, 75, 52
2, 4665, Note_on_c, 0, 53, 0
2, 4668, Note_on_c, 0, 70, 0
2, 4679, Note_on_c, 0, 56, 0
2, 4684, Note_on_c, 0, 63, 50
2, 4688, Note_on_c, 0, 75, 0
2, 4696, Note_on_c, 0, 65, 42
2, 4712, Note_on_c, 0, 70, 49
2, 4713, Note_on_c, 0, 56, 43
2, 4714, Note_on_c, 0, 63, 0
2, 4724, Note_on_c, 0, 65, 0
2, 4728, Note_on_c, 0, 75, 39
2, 4737, Note_on_c, 0, 70, 0
2, 4744, Note_on_c, 0, 53, 36
2, 4750, Note_on_c, 0, 56, 0
2, 4764, Note_on_c, 0, 75, 0
2, 4764, Note_on_c, 0, 80, 65
2, 4766, Note_on_c, 0, 53, 0
2, 4768, Note_on_c, 0, 46, 60
2, 4780, Control_c, 0, 64, 0
2, 4784, Note_on_c, 0, 70, 53
2, 4787, Control_c, 0, 64, 127
2, 4796, Note_on_c, 0, 80, 0
2, 4801, Note_on_c, 0, 53, 52
2, 4803, Note_on_c, 0, 46, 0
2, 4814, Note_on_c, 0, 74, 44
2, 4818, Note_on_c, 0, 56, 37
2, 4819, Note_on_c, 0, 70, 0
2, 4831, Note_on_c, 0, 53, 0
2, 4833, Note_on_c, 0, 74, 0
2, 4841, Note_on_c, 0, 56, 0
2, 4848, Note_on_c, 0, 65, 44
2, 4852, Note_on_c, 0, 62, 29
2, 4862, Note_on_c, 0, 68, 64
2, 4874, Note_on_c, 0, 56, 47
2, 4875, Note_on_c, 0, 65, 0
2, 4887, Note_on_c, 0, 62, 0
2, 4893, Note_on_c, 0, 68, 0
2, 4904, Note_on_c, 0, 70, 53
2, 4905, Note_on_c, 0, 56, 0
2, 4909, Note_on_c, 0, 53, 45
2, 4932, Note_on_c, 0, 70, 0
2, 4937, Note_on_c, 0, 46, 60
2, 4939, Note_on_c, 0, 53, 0
2, 4941, Note_on_c, 0, 70, 72
2, 4961, Note_on_c, 0, 65, 50
2, 4972, Note_on_c, 0, 46, 0
2, 4972, Note_on_c, 0, 53, 44
2, 4974, Note_on_c, 0, 70, 0
2, 4995, Note_on_c, 0, 56, 41
2, 4996, Note_on_c, 0, 68, 47
2, 5003, Note_on_c, 0, 65, 0
2, 5005, Note_on_c, 0, 53, 0
2, 5020, Note_on_c, 0, 56, 0
2, 5021, Note_on_c, 0, 58, 60
2, 5022, Note_on_c, 0, 68, 0
2, 5026, Note_on_c, 0, 62, 44
2, 5042, Note_on_c, 0, 58, 0
2, 5056, Note_on_c, 0, 62, 0
2, 5060, Note_on_c, 0, 56, 38
2, 5065, Note_on_c, 0, 65, 46
2, 5079, Note_on_c, 0, 56, 0
2, 5083, Note_on_c, 0, 65, 0
2, 5083, Note_on_c, 0, 68, 49
2, 5084, Note_on_c, 0, 53, 65
2, 5109, Note_on_c, 0, 68, 0
2, 5114, Note_on_c, 0, 70, 61
2, 5118, Note_on_c, 0, 53, 0
2, 5119, Note_on_c, 0, 39, 67
2, 5143, Note_on_c, 0, 70, 0
2, 5160, Note_on_c, 0, 46, 40
2, 5163, Note_on_c, 0, 63, 38
2, 5174, Note_on_c, 0, 39, 0
2, 5184, Note_on_c, 0, 51, 40
2, 5187, Note_on_c, 0, 68, 39
2, 5189, Note_on_c, 0, 46, 0
2, 5191, Note_on_c, 0, 63, 0
2, 5205, Note_on_c, 0, 58, 53
2, 5210, Note_on_c, 0, 51, 0
2, 5211, Note_on_c, 0, 61, 57
2, 5213, Note_on_c, 0, 68, 0
2, 5224, Note_on_c, 0, 58, 0
2, 5232, Note_on_c, 0, 61, 0
2, 5243, Note_on_c, 0, 63, 43
2, 5249, Note_on_c, 0, 51, 41
2, 5262, Note_on_c, 0, 63, 0
2, 5263, Note_on_c, 0, 68, 51
2, 5269, Note_on_c, 0, 51, 0
2, 5274, Note_on_c, 0, 46, 49
2, 5295, Note_on_c, 0, 68, 0
2, 5298, Note_on_c, 0, 72, 61
2, 5299, Note_on_c, 0, 39, 43
2, 5302, Note_on_c, 0, 46, 0
2, 5330, Note_on_c, 0, 72, 0
2, 5330, Note_on_c, 0, 39, 0
2, 5332, Note_on_c, 0, 63, 48
2, 5340, Note_on_c, 0, 46, 65
2, 5363, Note_on_c, 0, 68, 48
2, 5365, Note_on_c, 0, 63, 0
2, 5365, Note_on_c, 0, 51, 40
2, 5367, Note_on_c, 0, 46, 0
2, 5385, Note_on_c, 0, 68, 0
2, 5387, Note_on_c, 0, 51, 0
2, 5391, Note_on_c, 0, 58, 43
2, 5393, Note_on_c, 0, 56, 38
2, 5419, Note_on_c, 0, 58, 0
2, 5421, Note_on_c, 0, 63, 43
2, 5423, Note_on_c, 0, 56, 0
2, 5427, Note_on_c, 0, 51, 37
2, 5449, Note_on_c, 0, 68, 48
2, 5451, Note_on_c, 0, 63, 0
2, 5458, Note_on_c, 0, 51, 0
2, 5460, Note_on_c, 0, 46, 38
2, 5480, Note_on_c, 0, 68, 0
2, 5482, Note_on_c, 0, 73, 67
2, 5484, Note_on_c, 0, 46, 0
2, 5489, Note_on_c, 0, 39, 41
2, 5516, Note_on_c, 0, 73, 0
2, 5517, Note_on_c, 0, 63, 47
2, 5521, Note_on_c, 0, 39, 0
2, 5530, Note_on_c, 0, 46, 47
2, 5545, Note_on_c, 0, 63, 0
2, 5553, Note_on_c, 0, 67, 43
2, 5554, Note_on_c, 0, 46, 0
2, 5555, Note_on_c, 0, 51, 47
2, 5573, Note_on_c, 0, 67, 0
2, 5578, Note_on_c, 0, 51, 0
2, 5581, Note_on_c, 0, 58, 49
2, 5594, Note_on_c, 0, 55, 44
2, 5607, Note_on_c, 0, 58, 0
2, 5621, Note_on_c, 0, 51, 35
2, 5621, Note_on_c, 0, 61, 43
2, 5626, Note_on_c, 0, 55, 0
2, 5631, Note_on_c, 0, 51, 0
2, 5646, Note_on_c, 0, 61, 0
2, 5652, Note_on_c, 0, 63, 55
2, 5660, Note_on_c, 0, 63, 0
2, 5663, Note_on_c, 0, 46, 45
2, 5678, Note_on_c, 0, 46, 0
2, 5690, Note_on_c, 0, 63, 62
2, 5690, Note_on_c, 0, 39, 51
2, 5732, Note_on_c, 0, 46, 44
2, 5734, Note_on_c, 0, 58, 52
2, 5738, Note_on_c, 0, 63, 0
2, 5745, Note_on_c, 0, 39, 0
2, 5772, Note_on_c, 0, 49, 43
2, 5773, Note_on_c, 0, 46, 0
2, 5774, Note_on_c, 0, 61, 29
2, 5790, Note_on_c, 0, 58, 0
2, 5802, Note_on_c, 0, 49, 0
2, 5815, Note_on_c, 0, 61, 0
2, 5815, Note_on_c, 0, 55, 38
2, 5818, Note_on_c, 0, 51, 58
2, 5859, Note_on_c, 0, 49, 53
2, 5860, Note_on_c, 0, 55, 0
2, 5862, Note_on_c, 0, 58, 48
2, 5863, Note_on_c, 0, 51, 0
2, 5897, Note_on_c, 0, 49, 0
2, 5916, Note_on_c, 0, 58, 0
2, 5920, Note_on_c, 0, 46, 50
2, 5924, Note_on_c, 0, 61, 48
2, 5939, Note_on_c, 0, 46, 0
2, 5940, Note_on_c, 0, 61, 0
2, 5988, Note_on_c, 0, 32, 54
2, 6003, Control_c, 0, 64, 0
2, 6013, Note_on_c, 0, 75, 69
2, 6048, Control_c, 0, 64, 127
2, 6068, Note_on_c, 0, 32, 0
2, 6104, Note_on_c, 0, 68, 33
2, 6125, Note_on_c, 0, 75, 0
2, 6128, Note_on_c, 0, 68, 0
2, 6138, Note_on_c, 0, 72, 35
2, 6164, Note_on_c, 0, 72, 0
2, 6175, Note_on_c, 0, 63, 38
2, 6182, Note_on_c, 0, 60, 32
2, 6193, Note_on_c, 0, 63, 0
2, 6203, Note_on_c, 0, 60, 0
2, 6207, Note_on_c, 0, 68, 43
2, 6211, Note_on_c, 0, 56, 37
2, 6223, Note_on_c, 0, 68, 0
2, 6243, Note_on_c, 0, 56, 0
2, 6244, Note_on_c, 0, 51, 33
2, 6244, Note_on_c, 0, 72, 52
2, 6266, Note_on_c, 0, 51, 0
2, 6272, Note_on_c, 0, 72, 0
2, 6274, Note_on_c, 0, 44, 41
2, 6274, Note_on_c, 0, 75, 58
2, 6297, Note_on_c, 0, 44, 0
2, 6301, Note_on_c, 0, 68, 37
2, 6304, Note_on_c, 0, 51, 53
2, 6335, Note_on_c, 0, 56, 47
2, 6338, Note_on_c, 0, 75, 0
2, 6339, Note_on_c, 0, 68, 0
2, 6339, Note_on_c, 0, 72, 32
2, 6358, Note_on_c, 0, 51, 0
2, 6362, Note_on_c, 0, 63, 44
2, 6365, Note_on_c, 0, 56, 0
2, 6369, Note_on_c, 0, 72, 0
2, 6396, Note_on_c, 0, 63, 0
2, 6397, Note_on_c, 0, 68, 49
2, 6403, Note_on_c, 0, 56, 39
2, 6411, Note_on_c, 0, 68, 0
2, 6420, Note_on_c, 0, 51, 50
2, 6425, Note_on_c, 0, 72, 41
2, 6428, Note_on_c, 0, 56, 0
2, 6441, Note_on_c, 0, 51, 0
2, 6446, Note_on_c, 0, 72, 0
2, 6448, Note_on_c, 0, 75, 55
2, 6448, Note_on_c, 0, 44, 51
2, 6467, Note_on_c, 0, 75, 0
2, 6467, Note_on_c, 0, 68, 41
2, 6481, Note_on_c, 0, 51, 26
2, 6489, Note_on_c, 0, 44, 0
2, 6498, Note_on_c, 0, 56, 49
2, 6501, Note_on_c, 0, 72, 41
2, 6502, Note_on_c, 0, 68, 0
2, 6503, Note_on_c, 0, 51, 0
2, 6517, Note_on_c, 0, 56, 0
2, 6528, Note_on_c, 0, 63, 41
2, 6529, Note_on_c, 0, 72, 0
2, 6531, Note_on_c, 0, 60, 38
2, 6542, Note_on_c, 0, 63, 0
2, 6559, Note_on_c, 0, 56, 32
2, 6563, Note_on_c, 0, 60, 0
2, 6563, Note_on_c, 0, 68, 40
2, 6572, Note_on_c, 0, 56, 0
2, 6585, Note_on_c, 0, 51, 51
2, 6590, Note_on_c, 0, 72, 50
2, 6597, Note_on_c, 0, 68, 0
2, 6608, Note_on_c, 0, 51, 0
2, 6612, Note_on_c, 0, 75, 58
2, 6613, Note_on_c, 0, 44, 47
2, 6617, Note_on_c, 0, 72, 0
2, 6633, Note_on_c, 0, 75, 0
2, 6637, Note_on_c, 0, 68, 49
2, 6643, Note_on_c, 0, 51, 55
2, 6663, Note_on_c, 0, 44, 0
2, 6663, Note_on_c, 0, 68, 0
2, 6665, Note_on_c, 0, 72, 48
2, 6668, Note_on_c, 0, 56, 46
2, 6672, Note_on_c, 0, 51, 0
2, 6678, Note_on_c, 0, 72, 0
2, 6688, Note_on_c, 0, 60, 37
2, 6689, Note_on_c, 0, 56, 0
2, 6695, Note_on_c, 0, 63, 46
2, 6705, Note_on_c, 0, 60, 0
2, 6718, Note_on_c, 0, 56, 31
2, 6720, Note_on_c, 0, 63, 0
2, 6722, Note_on_c, 0, 68, 43
2, 6730, Note_on_c, 0, 56, 0
2, 6745, Note_on_c, 0, 51, 42
2, 6745, Note_on_c, 0, 72, 44
2, 6752, Note_on_c, 0, 68, 0
2, 6782, Note_on_c, 0, 51, 0
2, 6783, Note_on_c, 0, 44, 47
2, 6787, Note_on_c, 0, 77, 51
2, 6793, Note_on_c, 0, 72, 0
2, 6817, Note_on_c, 0, 44, 0
2, 6819, Note_on_c, 0, 77, 0
2, 6819, Note_on_c, 0, 68, 42
2, 6829, Note_on_c, 0, 51, 43
2, 6839, Note_on_c, 0, 68, 0
2, 6855, Note_on_c, 0, 56, 41
2, 6858, Note_on_c, 0, 72, 35
2, 6860, Note_on_c, 0, 51, 0
2, 6877, Note_on_c, 0, 56, 0
2, 6882, Note_on_c, 0, 72, 0
2, 6885, Note_on_c, 0, 60, 28
2, 6888, Note_on_c, 0, 63, 32
2, 6896, Note_on_c, 0, 60, 0
2, 6910, Note_on_c, 0, 63, 0
2, 6912, Note_on_c, 0, 56, 53
2, 6912, Note_on_c, 0, 68, 46
2, 6931, Note_on_c, 0, 56, 0
2, 6931, Note_on_c, 0, 51, 37
2, 6934, Note_on_c, 0, 72, 47
2, 6936, Note_on_c, 0, 68, 0
2, 6943, Note_on_c, 0, 51, 0
2, 6954, Note_on_c, 0, 72, 0
2, 6954, Note_on_c, 0, 44, 49
2, 6958, Note_on_c, 0, 75, 50
2, 6973, Note_on_c, 0, 44, 0
2, 6980, Note_on_c, 0, 68, 46
2, 6989, Note_on_c, 0, 51, 35
2, 7004, Note_on_c, 0, 75, 0
2, 7007, Note_on_c, 0, 68, 0
2, 7008, Note_on_c, 0, 72, 36
2, 7009, Note_on_c, 0, 56, 41
2, 7011, Note_on_c, 0, 51, 0
2, 7021, Note_on_c, 0, 72, 0
2, 7032, Note_on_c, 0, 56, 0
2, 7035, Note_on_c, 0, 63, 33
2, 7038, Note_on_c, 0, 60, 24
2, 7049, Note_on_c, 0, 63, 0
2, 7062, Note_on_c, 0, 68, 43
2, 7065, Note_on_c, 0, 60, 0
2, 7065, Note_on_c, 0, 56, 26
2, 7076, Note_on_c, 0, 68, 0
2, 7085, Note_on_c, 0, 51, 44
2, 7090, Note_on_c, 0, 72, 45
2, 7101, Note_on_c, 0, 56, 0
2, 7102, Note_on_c, 0, 51, 0
2, 7105, Note_on_c, 0, 44, 47
2, 7112, Note_on_c, 0, 75, 57
2, 7115, Note_on_c, 0, 72, 0
2, 7132, Note_on_c, 0, 44, 0
2, 7140, Note_on_c, 0, 51, 57
2, 7141, Note_on_c, 0, 68, 41
2, 7162, Note_on_c, 0, 56, 48
2, 7163, Note_on_c, 0, 75, 0
2, 7164, Note_on_c, 0, 51, 0
2, 7164, Note_on_c, 0, 72, 41
2, 7175, Note_on_c, 0, 68, 0
2, 7186, Note_on_c, 0, 56, 0
2, 7191, Note_on_c, 0, 63, 50
2, 7191, Note_on_c, 0, 60, 42
2, 7193, Note_on_c, 0, 72, 0
2, 7211, Note_on_c, 0, 63, 0
2, 7221, Note_on_c, 0, 68, 49
2, 7221, Note_on_c, 0, 56, 47
2, 7222, Note_on_c, 0, 60, 0
2, 7232, Note_on_c, 0, 68, 0
2, 7242, Note_on_c, 0, 72, 46
2, 7243, Note_on_c, 0, 51, 50
2, 7253, Note_on_c, 0, 56, 0
2, 7260, Note_on_c, 0, 72, 0
2, 7262, Note_on_c, 0, 44, 55
2, 7264, Note_on_c, 0, 75, 60
2, 7268, Note_on_c, 0, 51, 0
2, 7286, Note_on_c, 0, 44, 0
2, 7288, Note_on_c, 0, 68, 53
2, 7293, Note_on_c, 0, 51, 61
2, 7310, Note_on_c, 0, 75, 0
2, 7314, Note_on_c, 0, 56, 57
2, 7315, Note_on_c, 0, 72, 46
2, 7319, Note_on_c, 0, 68, 0
2, 7329, Note_on_c, 0, 51, 0
2, 7339, Note_on_c, 0, 56, 0
2, 7342, Note_on_c, 0, 72, 0
2, 7343, Note_on_c, 0, 63, 52
2, 7346, Note_on_c, 0, 60, 48
2, 7368, Note_on_c, 0, 63, 0
2, 7369, Note_on_c, 0, 68, 55
2, 7371, Note_on_c, 0, 56, 49
2, 7375, Note_on_c, 0, 60, 0
2, 7394, Note_on_c, 0, 68, 0
2, 7396, Note_on_c, 0, 51, 50
2, 7398, Note_on_c, 0, 72, 38
2, 7409, Note_on_c, 0, 56, 0
2, 7417, Note_on_c, 0, 51, 0
2, 7417, Note_on_c, 0, 75, 65
2, 7420, Note_on_c, 0, 72, 0
2, 7421, Note_on_c, 0, 44, 65
2, 7425, Control_c, 0, 64, 0
2, 7432, Control_c, 0, 64, 127
2, 7443, Note_on_c, 0, 75, 0
2, 7451, Note_on_c, 0, 51, 48
2, 7456, Note_on_c, 0, 70, 50
2, 7458, Note_on_c, 0, 44, 0
2, 7468, Note_on_c, 0, 55, 43
2, 7469, Note_on_c, 0, 51, 0
2, 7478, Note_on_c, 0, 73, 48
2, 7485, Note_on_c, 0, 70, 0
2, 7495, Note_on_c, 0, 55, 0
2, 7497, Note_on_c, 0, 73, 0
2, 7500, Note_on_c, 0, 63, 48
2, 7503, Note_on_c, 0, 61, 53
2, 7522, Note_on_c, 0, 63, 0
2, 7522, Note_on_c, 0, 61, 0
2, 7526, Note_on_c, 0, 70, 38
2, 7534, Note_on_c, 0, 55, 35
2, 7541, Note_on_c, 0, 73, 56
2, 7543, Note_on_c, 0, 70, 0
2, 7543, Note_on_c, 0, 55, 0
2, 7557, Note_on_c, 0, 73, 0
2, 7557, Note_on_c, 0, 51, 46
2, 7567, Note_on_c, 0, 51, 0
2, 7573, Note_on_c, 0, 44, 67
2, 7574, Note_on_c, 0, 82, 65
2, 7589, Note_on_c, 0, 44, 0
2, 7591, Note_on_c, 0, 82, 0
2, 7593, Note_on_c, 0, 51, 40
2, 7603, Note_on_c, 0, 51, 0
2, 7611, Note_on_c, 0, 55, 40
2, 7611, Note_on_c, 0, 70, 47
2, 7629, Note_on_c, 0, 73, 51
2, 7632, Note_on_c, 0, 55, 0
2, 7637, Note_on_c, 0, 70, 0
2, 7648, Note_on_c, 0, 73, 0
2, 7650, Note_on_c, 0, 61, 42
2, 7659, Note_on_c, 0, 63, 56
2, 7671, Note_on_c, 0, 61, 0
2, 7680, Note_on_c, 0, 63, 0
2, 7682, Note_on_c, 0, 70, 39
2, 7684, Note_on_c, 0, 55, 21
2, 7697, Note_on_c, 0, 70, 0
2, 7702, Note_on_c, 0, 73, 59
2, 7705, Note_on_c, 0, 55, 0
2, 7714, Note_on_c, 0, 51, 37
2, 7720, Note_on_c, 0, 73, 0
2, 7728, Note_on_c, 0, 51, 0
2, 7737, Note_on_c, 0, 44, 65
2, 7745, Note_on_c, 0, 84, 65
2, 7757, Note_on_c, 0, 44, 0
2, 7762, Note_on_c, 0, 84, 0
2, 7762, Note_on_c, 0, 51, 47
2, 7771, Note_on_c, 0, 51, 0
2, 7779, Note_on_c, 0, 55, 38
2, 7787, Note_on_c, 0, 70, 49
2, 7802, Note_on_c, 0, 55, 0
2, 7802, Note_on_c, 0, 73, 52
2, 7810, Note_on_c, 0, 70, 0
2, 7820, Note_on_c, 0, 61, 39
2, 7821, Note_on_c, 0, 73, 0
2, 7830, Note_on_c, 0, 63, 58
2, 7847, Note_on_c, 0, 61, 0
2, 7851, Note_on_c, 0, 63, 0
2, 7856, Note_on_c, 0, 55, 16
2, 7857, Note_on_c, 0, 70, 42
2, 7874, Note_on_c, 0, 55, 0
2, 7878, Note_on_c, 0, 73, 52
2, 7880, Note_on_c, 0, 70, 0
2, 7893, Note_on_c, 0, 51, 32
2, 7898, Note_on_c, 0, 73, 0
2, 7903, Note_on_c, 0, 51, 0
2, 7906, Note_on_c, 0, 44, 66
2, 7907, Note_on_c, 0, 79, 66
2, 7923, Note_on_c, 0, 44, 0
2, 7931, Note_on_c, 0, 79, 0
2, 7941, Note_on_c, 0, 70, 48
2, 7948, Note_on_c, 0, 55, 40
2, 7964, Note_on_c, 0, 73, 38
2, 7966, Note_on_c, 0, 70, 0
2, 7976, Note_on_c, 0, 55, 0
2, 7981, Note_on_c, 0, 73, 0
2, 7983, Note_on_c, 0, 61, 46
2, 7989, Note_on_c, 0, 63, 46
2, 8011, Note_on_c, 0, 61, 0
2, 8014, Note_on_c, 0, 63, 0
2, 8022, Note_on_c, 0, 70, 41
2, 8025, Note_on_c, 0, 55, 34
2, 8035, Note_on_c, 0, 70, 0
2, 8046, Note_on_c, 0, 55, 0
2, 8047, Note_on_c, 0, 73, 46
2, 8054, Note_on_c, 0, 51, 40
2, 8070, Note_on_c, 0, 73, 0
2, 8072, Note_on_c, 0, 51, 0
2, 8082, Note_on_c, 0, 44, 52
2, 8083, Note_on_c, 0, 82, 67
2, 8101, Note_on_c, 0, 44, 0
2, 8111, Note_on_c, 0, 82, 0
2, 8115, Note_on_c, 0, 51, 41
2, 8135, Note_on_c, 0, 72, 30
2, 8141, Note_on_c, 0, 56, 53
2, 8144, Note_on_c, 0, 51, 0
2, 8151, Note_on_c, 0, 75, 46
2, 8155, Note_on_c, 0, 72, 0
2, 8164, Note_on_c, 0, 56, 0
2, 8172, Note_on_c, 0, 75, 0
2, 8173, Note_on_c, 0, 60, 36
2, 8179, Note_on_c, 0, 63, 30
2, 8185, Note_on_c, 0, 60, 0
2, 8201, Note_on_c, 0, 63, 0
2, 8202, Note_on_c, 0, 56, 34
2, 8208, Note_on_c, 0, 72, 38
2, 8214, Note_on_c, 0, 56, 0
2, 8223, Note_on_c, 0, 51, 46
2, 8229, Note_on_c, 0, 72, 0
2, 8230, Note_on_c, 0, 75, 39
2, 8246, Note_on_c, 0, 51, 0
2, 8249, Note_on_c, 0, 75, 0
2, 8252, Note_on_c, 0, 80, 61
2, 8258, Note_on_c, 0, 44, 52
2, 8278, Note_on_c, 0, 80, 0
2, 8285, Note_on_c, 0, 44, 0
2, 8292, Note_on_c, 0, 72, 41
2, 8294, Note_on_c, 0, 51, 47
2, 8308, Note_on_c, 0, 75, 49
2, 8312, Note_on_c, 0, 72, 0
2, 8312, Note_on_c, 0, 56, 46
2, 8331, Note_on_c, 0, 51, 0
2, 8335, Note_on_c, 0, 75, 0
2, 8337, Note_on_c, 0, 56, 0
2, 8341, Note_on_c, 0, 63, 48
2, 8357, Note_on_c, 0, 60, 32
2, 8367, Note_on_c, 0, 63, 0
2, 8370, Note_on_c, 0, 60, 0
2, 8379, Note_on_c, 0, 56, 37
2, 8381, Note_on_c, 0, 72, 31
2, 8392, Note_on_c, 0, 56, 0
2, 8399, Note_on_c, 0, 75, 48
2, 8402, Note_on_c, 0, 72, 0
2, 8407, Note_on_c, 0, 51, 52
2, 8429, Note_on_c, 0, 75, 0
2, 8431, Note_on_c, 0, 80, 52
2, 8432, Note_on_c, 0, 44, 46
2, 8434, Note_on_c, 0, 51, 0
2, 8465, Note_on_c, 0, 80, 0
2, 8466, Note_on_c, 0, 44, 0
2, 8471, Note_on_c, 0, 72, 37
2, 8488, Note_on_c, 0, 52, 36
2, 8493, Note_on_c, 0, 76, 36
2, 8504, Note_on_c, 0, 56, 39
2, 8508, Note_on_c, 0, 72, 0
2, 8518, Note_on_c, 0, 52, 0
2, 8519, Note_on_c, 0, 76, 0
2, 8525, Note_on_c, 0, 64, 45
2, 8529, Note_on_c, 0, 56, 0
2, 8539, Note_on_c, 0, 60, 39
2, 8552, Note_on_c, 0, 64, 0
2, 8562, Note_on_c, 0, 56, 42
2, 8565, Note_on_c, 0, 72, 42
2, 8566, Note_on_c, 0, 60, 0
2, 8586, Note_on_c, 0, 56, 0
2, 8588, Note_on_c, 0, 76, 27
2, 8592, Note_on_c, 0, 52, 42
2, 8602, Note_on_c, 0, 72, 0
2, 8615, Note_on_c, 0, 80, 46
2, 8619, Note_on_c, 0, 76, 0
2, 8619, Note_on_c, 0, 44, 42
2, 8620, Note_on_c, 0, 52, 0
2, 8650, Note_on_c, 0, 80, 0
2, 8653, Note_on_c, 0, 44, 0
2, 8655, Note_on_c, 0, 72, 40
2, 8671, Note_on_c, 0, 52, 43
2, 8679, Note_on_c, 0, 56, 48
2, 8683, Note_on_c, 0, 76, 44
2, 8694, Note_on_c, 0, 72, 0
2, 8707, Note_on_c, 0, 52, 0
2, 8718, Note_on_c, 0, 56, 0
2, 8721, Note_on_c, 0, 60, 40
2, 8722, Note_on_c, 0, 76, 0
2, 8722, Note_on_c, 0, 64, 49
2, 8750, Note_on_c, 0, 60, 0
2, 8754, Note_on_c, 0, 64, 0
2, 8757, Note_on_c, 0, 56, 40
2, 8762, Note_on_c, 0, 72, 39
2, 8779, Note_on_c, 0, 56, 0
2, 8780, Note_on_c, 0, 52, 38
2, 8789, Note_on_c, 0, 72, 0
2, 8792, Note_on_c, 0, 76, 37
2, 8835, Note_on_c, 0, 37, 57
2, 8842, Control_c, 0, 64, 0
2, 8845, Note_on_c, 0, 80, 52
2, 8849, Note_on_c, 0, 52, 0
2, 8865, Control_c, 0, 64, 127
2, 8871, Note_on_c, 0, 76, 0
2, 8872, Note_on_c, 0, 37, 0
2, 8911, Note_on_c, 0, 73, 33
2, 8918, Note_on_c, 0, 80, 0
2, 8920, Note_on_c, 0, 56, 34
2, 8936, Note_on_c, 0, 73, 0
2, 8939, Note_on_c, 0, 77, 47
2, 8944, Note_on_c, 0, 56, 0
2, 8944, Note_on_c, 0, 61, 41
2, 8966, Note_on_c, 0, 77, 0
2, 8971, Note_on_c, 0, 68, 37
2, 8972, Note_on_c, 0, 61, 0
2, 8976, Note_on_c, 0, 65, 46
2, 8999, Note_on_c, 0, 68, 0
2, 9000, Note_on_c, 0, 61, 20
2, 9003, Note_on_c, 0, 73, 47
2, 9008, Note_on_c, 0, 65, 0
2, 9015, Note_on_c, 0, 61, 0
2, 9021, Note_on_c, 0, 56, 40
2, 9026, Note_on_c, 0, 77, 50
2, 9037, Note_on_c, 0, 73, 0
2, 9053, Note_on_c, 0, 80, 60
2, 9055, Note_on_c, 0, 56, 0
2, 9059, Note_on_c, 0, 77, 0
2, 9060, Note_on_c, 0, 49, 49
2, 9083, Note_on_c, 0, 73, 46
2, 9086, Note_on_c, 0, 80, 0
2, 9092, Note_on_c, 0, 56, 49
2, 9113, Note_on_c, 0, 77, 48
2, 9120, Note_on_c, 0, 61, 43
2, 9122, Note_on_c, 0, 49, 0
2, 9125, Note_on_c, 0, 73, 0
2, 9125, Note_on_c, 0, 56, 0
2, 9138, Note_on_c, 0, 68, 50
2, 9140, Note_on_c, 0, 77, 0
2, 9142, Note_on_c, 0, 61, 0
2, 9148, Note_on_c, 0, 65, 30
2, 9160, Note_on_c, 0, 68, 0
2, 9169, Note_on_c, 0, 73, 44
2, 9174, Note_on_c, 0, 65, 0
2, 9174, Note_on_c, 0, 61, 39
2, 9189, Note_on_c, 0, 73, 0
2, 9192, Note_on_c, 0, 77, 55
2, 9194, Note_on_c, 0, 56, 49
2, 9202, Note_on_c, 0, 61, 0
2, 9215, Note_on_c, 0, 77, 0
2, 9218, Note_on_c, 0, 80, 62
2, 9221, Note_on_c, 0, 56, 0
2, 9222, Note_on_c, 0, 49, 59
2, 9245, Note_on_c, 0, 80, 0
2, 9247, Note_on_c, 0, 73, 50
2, 9250, Note_on_c, 0, 56, 52
2, 9270, Note_on_c, 0, 77, 53
2, 9273, Note_on_c, 0, 49, 0
2, 9275, Note_on_c, 0, 61, 44
2, 9278, Note_on_c, 0, 73, 0
2, 9280, Note_on_c, 0, 56, 0
2, 9294, Note_on_c, 0, 77, 0
2, 9296, Note_on_c, 0, 61, 0
2, 9299, Note_on_c, 0, 68, 53
2, 9302, Note_on_c, 0, 65, 35
2, 9316, Note_on_c, 0, 68, 0
2, 9328, Note_on_c, 0, 73, 46
2, 9331, Note_on_c, 0, 61, 39
2, 9341, Note_on_c, 0, 65, 0
2, 9348, Note_on_c, 0, 77, 53
2, 9350, Note_on_c, 0, 73, 0
2, 9352, Note_on_c, 0, 56, 39
2, 9358, Note_on_c, 0, 61, 0
2, 9374, Note_on_c, 0, 77, 0
2, 9376, Note_on_c, 0, 56, 0
2, 9376, Note_on_c, 0, 82, 51
2, 9384, Note_on_c, 0, 49, 56
2, 9403, Note_on_c, 0, 82, 0
2, 9406, Note_on_c, 0, 73, 46
2, 9410, Note_on_c, 0, 49, 0
2, 9419, Note_on_c, 0, 55, 28
2, 9425, Note_on_c, 0, 77, 52
2, 9427, Note_on_c, 0, 73, 0
2, 9444, Note_on_c, 0, 61, 46
2, 9449, Note_on_c, 0, 55, 0
2, 9456, Note_on_c, 0, 77, 0
2, 9466, Note_on_c, 0, 65, 21
2, 9467, Note_on_c, 0, 61, 0
2, 9468, Note_on_c, 0, 67, 42
2, 9490, Note_on_c, 0, 65, 0
2, 9492, Note_on_c, 0, 73, 46
2, 9495, Note_on_c, 0, 67, 0
2, 9499, Note_on_c, 0, 61, 34
2, 9515, Note_on_c, 0, 73, 0
2, 9517, Note_on_c, 0, 77, 45
2, 9521, Note_on_c, 0, 61, 0
2, 9525, Note_on_c, 0, 55, 32
2, 9556, Note_on_c, 0, 77, 0
2, 9558, Note_on_c, 0, 55, 0
2, 9558, Note_on_c, 0, 84, 64
2, 9565, Note_on_c, 0, 48, 48
2, 9586, Note_on_c, 0, 84, 0
2, 9594, Note_on_c, 0, 48, 0
2, 9601, Note_on_c, 0, 55, 43
2, 9609, Note_on_c, 0, 72, 29
2, 9633, Note_on_c, 0, 60, 36
2, 9643, Note_on_c, 0, 55, 0
2, 9644, Note_on_c, 0, 72, 0
2, 9650, Note_on_c, 0, 60, 0
2, 9660, Note_on_c, 0, 65, 40
2, 9660, Note_on_c, 0, 67, 39
2, 9677, Note_on_c, 0, 65, 0
2, 9680, Note_on_c, 0, 67, 0
2, 9684, Note_on_c, 0, 60, 46
2, 9685, Note_on_c, 0, 72, 46
2, 9702, Note_on_c, 0, 77, 50
2, 9704, Note_on_c, 0, 55, 39
2, 9707, Note_on_c, 0, 60, 0
2, 9713, Note_on_c, 0, 72, 0
2, 9730, Note_on_c, 0, 77, 0
2, 9730, Note_on_c, 0, 55, 0
2, 9730, Note_on_c, 0, 79, 65
2, 9732, Note_on_c, 0, 48, 52
2, 9758, Note_on_c, 0, 79, 0
2, 9765, Note_on_c, 0, 55, 31
2, 9768, Note_on_c, 0, 72, 48
2, 9769, Note_on_c, 0, 48, 0
2, 9792, Note_on_c, 0, 60, 40
2, 9800, Note_on_c, 0, 77, 6
2, 9803, Note_on_c, 0, 55, 0
2, 9810, Note_on_c, 0, 72, 0
2, 9814, Note_on_c, 0, 60, 0
2, 9819, Note_on_c, 0, 77, 0
2, 9820, Note_on_c, 0, 65, 41
2, 9824, Note_on_c, 0, 67, 46
2, 9839, Note_on_c, 0, 65, 0
2, 9843, Note_on_c, 0, 67, 0
2, 9851, Note_on_c, 0, 72, 52
2, 9856, Note_on_c, 0, 60, 46
2, 9869, Note_on_c, 0, 77, 53
2, 9870, Note_on_c, 0, 55, 31
2, 9879, Note_on_c, 0, 72, 0
2, 9881, Note_on_c, 0, 60, 0
2, 9897, Note_on_c, 0, 77, 0
2, 9899, Note_on_c, 0, 79, 63
2, 9899, Note_on_c, 0, 48, 55
2, 9900, Note_on_c, 0, 55, 0
2, 9927, Note_on_c, 0, 79, 0
2, 9933, Note_on_c, 0, 55, 44
2, 9934, Note_on_c, 0, 72, 38
2, 9955, Note_on_c, 0, 48, 0
2, 9956, Note_on_c, 0, 60, 41
2, 9961, Note_on_c, 0, 76, 28
2, 9969, Note_on_c, 0, 55, 0
2, 9971, Note_on_c, 0, 72, 0
2, 9977, Note_on_c, 0, 60, 0
2, 9980, Note_on_c, 0, 64, 45
2, 9980, Note_on_c, 0, 67, 45
2, 9983, Note_on_c, 0, 76, 0
2, 10004, Note_on_c, 0, 64, 0
2, 10009, Note_on_c, 0, 72, 53
2, 10010, Note_on_c, 0, 60, 19
2, 10011, Note_on_c, 0, 67, 0
2, 10022, Note_on_c, 0, 72, 0
2, 10029, Note_on_c, 0, 55, 44
2, 10033, Note_on_c, 0, 76, 52
2, 10047, Note_on_c, 0, 60, 0
2, 10056, Note_on_c, 0, 55, 0
2, 10059, Note_on_c, 0, 48, 61
2, 10062, Note_on_c, 0, 76, 0
2, 10064, Note_on_c, 0, 79, 56
2, 10088, Note_on_c, 0, 48, 0
2, 10092, Note_on_c, 0, 72, 56
2, 10092, Note_on_c, 0, 55, 45
2, 10112, Note_on_c, 0, 60, 47
2, 10119, Note_on_c, 0, 79, 0
2, 10121, Note_on_c, 0, 76, 42
2, 10135, Note_on_c, 0, 72, 0
2, 10138, Note_on_c, 0, 55, 0
2, 10144, Note_on_c, 0, 60, 0
2, 10153, Note_on_c, 0, 76, 0
2, 10154, Note_on_c, 0, 64, 45
2, 10156, Note_on_c, 0, 67, 52
2, 10178, Note_on_c, 0, 64, 0
2, 10178, Note_on_c, 0, 60, 36
2, 10185, Note_on_c, 0, 72, 54
2, 10191, Note_on_c, 0, 67, 0
2, 10196, Note_on_c, 0, 60, 0
2, 10198, Note_on_c, 0, 55, 49
2, 10214, Note_on_c, 0, 76, 52
2, 10219, Note_on_c, 0, 72, 0
2, 10231, Note_on_c, 0, 55, 0
2, 10244, Note_on_c, 0, 79, 64
2, 10252, Note_on_c, 0, 76, 0
2, 10257, Note_on_c, 0, 43, 46
2, 10282, Note_on_c, 0, 71, 51
2, 10287, Note_on_c, 0, 79, 0
2, 10296, Note_on_c, 0, 50, 37
2, 10300, Note_on_c, 0, 43, 0
2, 10316, Note_on_c, 0, 76, 63
2, 10325, Note_on_c, 0, 71, 0
2, 10329, Note_on_c, 0, 50, 0
2, 10332, Note_on_c, 0, 55, 40
2, 10356, Note_on_c, 0, 65, 54
2, 10358, Note_on_c, 0, 76, 0
2, 10358, Note_on_c, 0, 59, 41
2, 10362, Note_on_c, 0, 55, 0
2, 10374, Note_on_c, 0, 65, 0
2, 10380, Note_on_c, 0, 59, 0
2, 10385, Note_on_c, 0, 71, 56
2, 10388, Note_on_c, 0, 55, 42
2, 10398, Note_on_c, 0, 71, 0
2, 10405, Note_on_c, 0, 76, 42
2, 10408, Note_on_c, 0, 50, 46
2, 10417, Note_on_c, 0, 55, 0
2, 10429, Note_on_c, 0, 76, 0
2, 10430, Note_on_c, 0, 79, 66
2, 10431, Note_on_c, 0, 43, 53
2, 10440, Note_on_c, 0, 50, 0
2, 10455, Note_on_c, 0, 71, 50
2, 10462, Note_on_c, 0, 79, 0
2, 10468, Note_on_c, 0, 50, 49
2, 10486, Note_on_c, 0, 74, 64
2, 10491, Note_on_c, 0, 55, 43
2, 10498, Note_on_c, 0, 43, 0
2, 10498, Note_on_c, 0, 71, 0
2, 10509, Note_on_c, 0, 50, 0
2, 10516, Note_on_c, 0, 74, 0
2, 10518, Note_on_c, 0, 65, 46
2, 10521, Note_on_c, 0, 55, 0
2, 10521, Note_on_c, 0, 59, 47
2, 10538, Note_on_c, 0, 65, 0
2, 10545, Note_on_c, 0, 71, 52
2, 10546, Note_on_c, 0, 59, 0
2, 10572, Note_on_c, 0, 50, 49
2, 10573, Note_on_c, 0, 74, 52
2, 10587, Note_on_c, 0, 71, 0
2, 10595, Note_on_c, 0, 79, 72
2, 10596, Note_on_c, 0, 50, 0
2, 10596, Note_on_c, 0, 43, 59
2, 10607, Note_on_c, 0, 74, 0
2, 10622, Note_on_c, 0, 71, 50
2, 10624, Note_on_c, 0, 79, 0
2, 10629, Note_on_c, 0, 50, 50
2, 10643, Note_on_c, 0, 43, 0
2, 10646, Note_on_c, 0, 55, 52
2, 10653, Note_on_c, 0, 77, 68
2, 10667, Note_on_c, 0, 71, 0
2, 10672, Note_on_c, 0, 50, 0
2, 10679, Note_on_c, 0, 55, 0
2, 10685, Note_on_c, 0, 62, 47
2, 10687, Note_on_c, 0, 65, 43
2, 10691, Note_on_c, 0, 77, 0
2, 10704, Note_on_c, 0, 62, 0
2, 10715, Note_on_c, 0, 71, 52
2, 10716, Note_on_c, 0, 65, 0
2, 10719, Note_on_c, 0, 55, 18
2, 10729, Note_on_c, 0, 71, 0
2, 10741, Note_on_c, 0, 77, 53
2, 10744, Note_on_c, 0, 50, 42
2, 10750, Note_on_c, 0, 55, 0
2, 10764, Note_on_c, 0, 77, 0
2, 10766, Note_on_c, 0, 43, 54
2, 10772, Note_on_c, 0, 79, 55
2, 10777, Note_on_c, 0, 50, 0
2, 10778, Control_c, 0, 64, 0
2, 10783, Control_c, 0, 64, 127
2, 10794, Note_on_c, 0, 71, 59
2, 10795, Note_on_c, 0, 43, 0
2, 10799, Note_on_c, 0, 50, 52
2, 10806, Note_on_c, 0, 79, 0
2, 10819, Note_on_c, 0, 55, 49
2, 10830, Note_on_c, 0, 76, 63
2, 10839, Note_on_c, 0, 71, 0
2, 10844, Note_on_c, 0, 50, 0
2, 10852, Note_on_c, 0, 55, 0
2, 10857, Note_on_c, 0, 62, 45
2, 10860, Note_on_c, 0, 76, 0
2, 10865, Note_on_c, 0, 65, 41
2, 10882, Note_on_c, 0, 62, 0
2, 10892, Note_on_c, 0, 55, 19
2, 10894, Note_on_c, 0, 71, 51
2, 10898, Note_on_c, 0, 65, 0
2, 10906, Note_on_c, 0, 55, 0
2, 10915, Note_on_c, 0, 50, 47
2, 10916, Note_on_c, 0, 76, 47
2, 10923, Note_on_c, 0, 71, 0
2, 10942, Note_on_c, 0, 50, 0
2, 10955, Note_on_c, 0, 76, 0
2, 10965, Note_on_c, 0, 36, 61
2, 10968, Note_on_c, 0, 74, 60
2, 10974, Control_c, 0, 64, 0
2, 10978, Control_c, 0, 64, 127
2, 10988, Note_on_c, 0, 36, 0
2, 11008, Note_on_c, 0, 43, 46
2, 11014, Note_on_c, 0, 65, 58
2, 11040, Note_on_c, 0, 67, 43
2, 11042, Note_on_c, 0, 74, 0
2, 11043, Note_on_c, 0, 43, 0
2, 11044, Note_on_c, 0, 48, 53
2, 11047, Note_on_c, 0, 65, 0
2, 11065, Note_on_c, 0, 60, 49
2, 11068, Note_on_c, 0, 55, 29
2, 11071, Note_on_c, 0, 67, 0
2, 11073, Note_on_c, 0, 48, 0
2, 11090, Note_on_c, 0, 48, 46
2, 11091, Note_on_c, 0, 60, 0
2, 11096, Note_on_c, 0, 65, 43
2, 11101, Note_on_c, 0, 55, 0
2, 11115, Note_on_c, 0, 48, 0
2, 11121, Note_on_c, 0, 43, 41
2, 11124, Note_on_c, 0, 67, 47
2, 11136, Note_on_c, 0, 65, 0
2, 11151, Note_on_c, 0, 36, 44
2, 11151, Note_on_c, 0, 72, 63
2, 11153, Note_on_c, 0, 43, 0
2, 11157, Note_on_c, 0, 67, 0
2, 11159, Control_c, 0, 64, 0
2, 11171, Control_c, 0, 64, 127
2, 11185, Note_on_c, 0, 36, 0
2, 11187, Note_on_c, 0, 64, 57
2, 11190, Note_on_c, 0, 43, 36
2, 11215, Note_on_c, 0, 48, 39
2, 11219, Note_on_c, 0, 67, 42
2, 11220, Note_on_c, 0, 72, 0
2, 11230, Note_on_c, 0, 64, 0
2, 11232, Note_on_c, 0, 43, 0
2, 11246, Note_on_c, 0, 48, 0
2, 11248, Note_on_c, 0, 67, 0
2, 11249, Note_on_c, 0, 60, 40
2, 11256, Note_on_c, 0, 55, 36
2, 11265, Note_on_c, 0, 60, 0
2, 11275, Note_on_c, 0, 55, 0
2, 11278, Note_on_c, 0, 64, 50
2, 11284, Note_on_c, 0, 48, 35
2, 11307, Note_on_c, 0, 64, 0
2, 11311, Note_on_c, 0, 67, 48
2, 11315, Note_on_c, 0, 48, 0
2, 11317, Note_on_c, 0, 43, 48
2, 11337, Note_on_c, 0, 72, 58
2, 11340, Note_on_c, 0, 67, 0
2, 11341, Note_on_c, 0, 36, 46
2, 11342, Note_on_c, 0, 43, 0
2, 11365, Control_c, 0, 64, 0
2, 11368, Control_c, 0, 64, 127
2, 11378, Note_on_c, 0, 72, 0
2, 11380, Note_on_c, 0, 62, 60
2, 11381, Note_on_c, 0, 43, 45
2, 11389, Note_on_c, 0, 36, 0
2, 11406, Note_on_c, 0, 48, 46
2, 11410, Note_on_c, 0, 67, 37
2, 11420, Note_on_c, 0, 62, 0
2, 11431, Note_on_c, 0, 43, 0
2, 11437, Note_on_c, 0, 48, 0
2, 11440, Note_on_c, 0, 67, 0
2, 11444, Note_on_c, 0, 55, 46
2, 11445, Note_on_c, 0, 60, 46
2, 11467, Note_on_c, 0, 55, 0
2, 11474, Note_on_c, 0, 60, 0
2, 11477, Note_on_c, 0, 62, 47
2, 11484, Note_on_c, 0, 48, 41
2, 11510, Note_on_c, 0, 67, 43
2, 11511, Note_on_c, 0, 62, 0
2, 11512, Note_on_c, 0, 43, 46
2, 11514, Note_on_c, 0, 48, 0
2, 11544, Note_on_c, 0, 36, 31
2, 11545, Note_on_c, 0, 72, 57
2, 11547, Note_on_c, 0, 67, 0
2, 11548, Note_on_c, 0, 43, 0
2, 11585, Note_on_c, 0, 64, 58
2, 11589, Note_on_c, 0, 36, 0
2, 11589, Note_on_c, 0, 43, 47
2, 11616, Note_on_c, 0, 72, 0
2, 11619, Note_on_c, 0, 48, 38
2, 11623, Note_on_c, 0, 67, 36
2, 11644, Note_on_c, 0, 64, 0
2, 11651, Note_on_c, 0, 43, 0
2, 11656, Note_on_c, 0, 48, 0
2, 11658, Note_on_c, 0, 60, 43
2, 11660, Note_on_c, 0, 55, 46
2, 11661, Note_on_c, 0, 67, 0
2, 11683, Note_on_c, 0, 60, 0
2, 11694, Note_on_c, 0, 64, 53
2, 11698, Note_on_c, 0, 55, 0
2, 11704, Note_on_c, 0, 48, 41
2, 11731, Note_on_c, 0, 67, 47
2, 11737, Note_on_c, 0, 64, 0
2, 11740, Note_on_c, 0, 43, 48
2, 11747, Note_on_c, 0, 48, 0
2, 11761, Note_on_c, 0, 67, 0
2, 11787, Note_on_c, 0, 72, 61
2, 11790, Control_c, 0, 64, 0
2, 11791, Note_on_c, 0, 43, 0
2, 11800, Note_on_c, 0, 40, 57
2, 11838, Note_on_c, 0, 67, 35
2, 11839, Control_c, 0, 64, 127
2, 11847, Note_on_c, 0, 48, 47
2, 11851, Note_on_c, 0, 72, 0
2, 11860, Note_on_c, 0, 40, 0
2, 11865, Note_on_c, 0, 67, 0
2, 11866, Note_on_c, 0, 70, 37
2, 11878, Note_on_c, 0, 48, 0
2, 11886, Note_on_c, 0, 70, 0
2, 11890, Note_on_c, 0, 60, 44
2, 11893, Note_on_c, 0, 58, 48
2, 11919, Note_on_c, 0, 60, 0
2, 11922, Note_on_c, 0, 58, 0
2, 11924, Note_on_c, 0, 67, 41
2, 11939, Note_on_c, 0, 48, 35
2, 11949, Note_on_c, 0, 67, 0
2, 11949, Note_on_c, 0, 70, 47
2, 11957, Note_on_c, 0, 48, 0
2, 11971, Note_on_c, 0, 40, 43
2, 11976, Note_on_c, 0, 72, 57
2, 11979, Note_on_c, 0, 70, 0
2, 12012, Note_on_c, 0, 40, 0
2, 12012, Note_on_c, 0, 67, 41
2, 12021, Note_on_c, 0, 48, 47
2, 12031, Note_on_c, 0, 72, 0
2, 12031, Note_on_c, 0, 70, 49
2, 12036, Note_on_c, 0, 67, 0
2, 12046, Note_on_c, 0, 48, 0
2, 12057, Note_on_c, 0, 60, 42
2, 12058, Note_on_c, 0, 70, 0
2, 12059, Note_on_c, 0, 58, 49
2, 12081, Note_on_c, 0, 60, 0
2, 12087, Note_on_c, 0, 58, 0
2, 12089, Note_on_c, 0, 67, 44
2, 12101, Note_on_c, 0, 48, 44
2, 12110, Note_on_c, 0, 70, 52
2, 12114, Note_on_c, 0, 67, 0
2, 12121, Note_on_c, 0, 48, 0
2, 12133, Note_on_c, 0, 40, 43
2, 12136, Note_on_c, 0, 70, 0
2, 12136, Note_on_c, 0, 73, 61
2, 12161, Note_on_c, 0, 40, 0
2, 12165, Note_on_c, 0, 67, 38
2, 12173, Note_on_c, 0, 73, 0
2, 12177, Note_on_c, 0, 48, 43
2, 12187, Note_on_c, 0, 70, 48
2, 12194, Note_on_c, 0, 67, 0
2, 12200, Note_on_c, 0, 48, 0
2, 12210, Note_on_c, 0, 58, 50
2, 12211, Note_on_c, 0, 70, 0
2, 12216, Note_on_c, 0, 60, 35
2, 12230, Note_on_c, 0, 58, 0
2, 12240, Note_on_c, 0, 60, 0
2, 12240, Note_on_c, 0, 67, 49
2, 12249, Note_on_c, 0, 48, 42
2, 12259, Note_on_c, 0, 67, 0
2, 12264, Note_on_c, 0, 70, 53
2, 12274, Note_on_c, 0, 48, 0
2, 12287, Note_on_c, 0, 40, 39
2, 12290, Note_on_c, 0, 72, 60
2, 12294, Note_on_c, 0, 70, 0
2, 12320, Note_on_c, 0, 40, 0
2, 12323, Note_on_c, 0, 67, 39
2, 12330, Note_on_c, 0, 48, 47
2, 12339, Note_on_c, 0, 72, 0
2, 12341, Note_on_c, 0, 70, 51
2, 12352, Note_on_c, 0, 67, 0
2, 12362, Note_on_c, 0, 48, 0
2, 12368, Note_on_c, 0, 58, 60
2, 12369, Note_on_c, 0, 70, 0
2, 12369, Note_on_c, 0, 60, 45
2, 12396, Note_on_c, 0, 58, 0
2, 12397, Note_on_c, 0, 67, 52
2, 12398, Note_on_c, 0, 60, 0
2, 12410, Note_on_c, 0, 48, 49
2, 12424, Note_on_c, 0, 70, 48
2, 12439, Note_on_c, 0, 67, 0
2, 12439, Note_on_c, 0, 48, 0
2, 12451, Note_on_c, 0, 72, 63
2, 12456, Note_on_c, 0, 41, 53
2, 12458, Note_on_c, 0, 70, 0
2, 12488, Note_on_c, 0, 65, 38
2, 12498, Note_on_c, 0, 72, 0
2, 12499, Note_on_c, 0, 41, 0
2, 12502, Note_on_c, 0, 48, 42
2, 12511, Note_on_c, 0, 70, 53
2, 12520, Note_on_c, 0, 65, 0
2, 12530, Note_on_c, 0, 48, 0
2, 12539, Note_on_c, 0, 58, 78
2, 12542, Note_on_c, 0, 60, 55
2, 12543, Note_on_c, 0, 70, 0
2, 12563, Note_on_c, 0, 58, 0
2, 12569, Note_on_c, 0, 60, 0
2, 12574, Note_on_c, 0, 65, 31
2, 12583, Note_on_c, 0, 48, 44
2, 12587, Note_on_c, 0, 70, 37
2, 12591, Note_on_c, 0, 65, 0
2, 12594, Note_on_c, 0, 48, 0
2, 12612, Note_on_c, 0, 41, 46
2, 12620, Note_on_c, 0, 70, 0
2, 12625, Note_on_c, 0, 74, 64
2, 12646, Note_on_c, 0, 48, 51
2, 12650, Note_on_c, 0, 41, 0
2, 12650, Note_on_c, 0, 65, 44
2, 12651, Note_on_c, 0, 74, 0
2, 12665, Note_on_c, 0, 48, 0
2, 12668, Note_on_c, 0, 70, 34
2, 12678, Note_on_c, 0, 65, 0
2, 12695, Note_on_c, 0, 60, 56
2, 12696, Note_on_c, 0, 56, 71
2, 12701, Note_on_c, 0, 70, 0
2, 12718, Note_on_c, 0, 60, 0
2, 12725, Note_on_c, 0, 56, 0
2, 12725, Note_on_c, 0, 65, 31
2, 12730, Note_on_c, 0, 48, 47
2, 12738, Note_on_c, 0, 72, 36
2, 12744, Note_on_c, 0, 65, 0
2, 12756, Note_on_c, 0, 48, 0
2, 12765, Note_on_c, 0, 41, 58
2, 12769, Note_on_c, 0, 72, 0
2, 12778, Note_on_c, 0, 76, 59
2, 12795, Note_on_c, 0, 41, 0
2, 12804, Note_on_c, 0, 48, 50
2, 12820, Note_on_c, 0, 67, 45
2, 12828, Note_on_c, 0, 72, 45
2, 12834, Note_on_c, 0, 76, 0
2, 12840, Note_on_c, 0, 48, 0
2, 12847, Note_on_c, 0, 55, 69
2, 12852, Note_on_c, 0, 67, 0
2, 12860, Note_on_c, 0, 60, 43
2, 12874, Note_on_c, 0, 72, 0
2, 12885, Note_on_c, 0, 55, 0
2, 12886, Note_on_c, 0, 67, 46
2, 12887, Note_on_c, 0, 48, 45
2, 12894, Note_on_c, 0, 60, 0
2, 12911, Note_on_c, 0, 72, 42
2, 12917, Note_on_c, 0, 67, 0
2, 12931, Note_on_c, 0, 48, 0
2, 12938, Note_on_c, 0, 41, 52
2, 12941, Note_on_c, 0, 72, 0
2, 12941, Note_on_c, 0, 77, 61
2, 12963, Note_on_c, 0, 41, 0
2, 12978, Note_on_c, 0, 68, 47
2, 12984, Note_on_c, 0, 48, 49
2, 13002, Note_on_c, 0, 77, 0
2, 13010, Note_on_c, 0, 72, 36
2, 13016, Note_on_c, 0, 68, 0
2, 13022, Note_on_c, 0, 48, 0
2, 13026, Note_on_c, 0, 53, 68
2, 13031, Note_on_c, 0, 60, 40
2, 13059, Note_on_c, 0, 68, 58
2, 13061, Note_on_c, 0, 72, 0
2, 13073, Note_on_c, 0, 53, 0
2, 13075, Note_on_c, 0, 48, 43
2, 13080, Note_on_c, 0, 60, 0
2, 13087, Note_on_c, 0, 72, 53
2, 13100, Note_on_c, 0, 68, 0
2, 13113, Note_on_c, 0, 48, 0
2, 13120, Note_on_c, 0, 75, 57
2, 13125, Note_on_c, 0, 72, 0
2, 13128, Note_on_c, 0, 43, 54
2, 13130, Control_c, 0, 64, 0
2, 13147, Control_c, 0, 64, 127
2, 13162, Note_on_c, 0, 75, 0
2, 13162, Note_on_c, 0, 70, 43
2, 13180, Note_on_c, 0, 43, 0
2, 13188, Note_on_c, 0, 51, 59
2, 13191, Note_on_c, 0, 73, 50
2, 13195, Note_on_c, 0, 70, 0
2, 13218, Note_on_c, 0, 51, 0
2, 13219, Note_on_c, 0, 63, 48
2, 13222, Note_on_c, 0, 73, 0
2, 13226, Note_on_c, 0, 61, 46
2, 13245, Note_on_c, 0, 70, 43
2, 13249, Note_on_c, 0, 63, 0
2, 13252, Note_on_c, 0, 61, 0
2, 13255, Note_on_c, 0, 51, 53
2, 13267, Note_on_c, 0, 73, 48
2, 13278, Note_on_c, 0, 70, 0
2, 13282, Note_on_c, 0, 51, 0
2, 13287, Note_on_c, 0, 75, 59
2, 13292, Note_on_c, 0, 73, 0
2, 13293, Note_on_c, 0, 43, 51
2, 13318, Note_on_c, 0, 70, 50
2, 13325, Note_on_c, 0, 75, 0
2, 13335, Note_on_c, 0, 51, 60
2, 13337, Note_on_c, 0, 43, 0
2, 13339, Note_on_c, 0, 73, 47
2, 13348, Note_on_c, 0, 70, 0
2, 13364, Note_on_c, 0, 63, 60
2, 13365, Note_on_c, 0, 51, 0
2, 13368, Note_on_c, 0, 73, 0
2, 13372, Note_on_c, 0, 61, 53
2, 13391, Note_on_c, 0, 70, 47
2, 13393, Note_on_c, 0, 63, 0
2, 13395, Note_on_c, 0, 61, 0
2, 13403, Note_on_c, 0, 51, 47
2, 13412, Note_on_c, 0, 73, 56
2, 13426, Note_on_c, 0, 70, 0
2, 13431, Note_on_c, 0, 51, 0
2, 13439, Note_on_c, 0, 43, 51
2, 13439, Note_on_c, 0, 77, 62
2, 13441, Note_on_c, 0, 73, 0
2, 13466, Note_on_c, 0, 43, 0
2, 13467, Note_on_c, 0, 70, 52
2, 13470, Note_on_c, 0, 77, 0
2, 13478, Note_on_c, 0, 51, 58
2, 13497, Note_on_c, 0, 73, 50
2, 13504, Note_on_c, 0, 70, 0
2, 13516, Note_on_c, 0, 51, 0
2, 13520, Note_on_c, 0, 61, 43
2, 13521, Note_on_c, 0, 63, 58
2, 13526, Note_on_c, 0, 73, 0
2, 13548, Note_on_c, 0, 61, 0
2, 13550, Note_on_c, 0, 70, 56
2, 13553, Note_on_c, 0, 51, 49
2, 13560, Note_on_c, 0, 63, 0
2, 13574, Note_on_c, 0, 73, 62
2, 13586, Note_on_c, 0, 70, 0
2, 13586, Note_on_c, 0, 51, 0
2, 13592, Note_on_c, 0, 43, 56
2, 13594, Note_on_c, 0, 75, 65
2, 13601, Note_on_c, 0, 73, 0
2, 13622, Note_on_c, 0, 70, 55
2, 13629, Note_on_c, 0, 43, 0
2, 13629, Note_on_c, 0, 51, 65
2, 13643, Note_on_c, 0, 75, 0
2, 13645, Note_on_c, 0, 73, 64
2, 13661, Note_on_c, 0, 70, 0
2, 13671, Note_on_c, 0, 61, 61
2, 13673, Note_on_c, 0, 51, 0
2, 13673, Note_on_c, 0, 63, 64
2, 13680, Note_on_c, 0, 73, 0
2, 13703, Note_on_c, 0, 70, 58
2, 13706, Note_on_c, 0, 61, 0
2, 13710, Note_on_c, 0, 51, 50
2, 13720, Note_on_c, 0, 63, 0
2, 13729, Note_on_c, 0, 73, 59
2, 13750, Note_on_c, 0, 70, 0
2, 13755, Note_on_c, 0, 51, 0
2, 13755, Note_on_c, 0, 44, 62
2, 13759, Note_on_c, 0, 75, 66
2, 13768, Note_on_c, 0, 73, 0
2, 13773, Control_c, 0, 64, 0
2, 13784, Control_c, 0, 64, 127
2, 13799, Note_on_c, 0, 68, 61
2, 13805, Note_on_c, 0, 51, 55
2, 13815, Note_on_c, 0, 44, 0
2, 13819, Note_on_c, 0, 75, 0
2, 13824, Note_on_c, 0, 73, 60
2, 13834, Note_on_c, 0, 68, 0
2, 13855, Note_on_c, 0, 63, 61
2, 13857, Note_on_c, 0, 51, 0
2, 13857, Note_on_c, 0, 61, 75
2, 13859, Note_on_c, 0, 73, 0
2, 13882, Note_on_c, 0, 68, 58
2, 13885, Note_on_c, 0, 63, 0
2, 13887, Note_on_c, 0, 61, 0
2, 13902, Note_on_c, 0, 51, 46
2, 13904, Note_on_c, 0, 73, 58
2, 13914, Note_on_c, 0, 68, 0
2, 13928, Note_on_c, 0, 51, 0
2, 13930, Note_on_c, 0, 44, 67
2, 13932, Note_on_c, 0, 77, 61
2, 13936, Note_on_c, 0, 73, 0
2, 13958, Note_on_c, 0, 68, 68
2, 13962, Note_on_c, 0, 44, 0
2, 13967, Note_on_c, 0, 51, 64
2, 13975, Note_on_c, 0, 77, 0
2, 13985, Note_on_c, 0, 72, 56
2, 13995, Note_on_c, 0, 68, 0
2, 14003, Note_on_c, 0, 51, 0
2, 14007, Note_on_c, 0, 60, 73
2, 14010, Note_on_c, 0, 63, 58
2, 14017, Note_on_c, 0, 72, 0
2, 14038, Note_on_c, 0, 68, 59
2, 14041, Note_on_c, 0, 60, 0
2, 14048, Note_on_c, 0, 63, 0
2, 14050, Note_on_c, 0, 51, 47
2, 14060, Note_on_c, 0, 72, 54
2, 14068, Note_on_c, 0, 68, 0
2, 14089, Note_on_c, 0, 79, 72
2, 14091, Note_on_c, 0, 51, 0
2, 14091, Note_on_c, 0, 72, 0
2, 14093, Note_on_c, 0, 44, 65
2, 14121, Note_on_c, 0, 79, 0
2, 14123, Note_on_c, 0, 68, 66
2, 14136, Note_on_c, 0, 51, 56
2, 14149, Note_on_c, 0, 72, 59
2, 14162, Note_on_c, 0, 44, 0
2, 14175, Note_on_c, 0, 63, 59
2, 14176, Note_on_c, 0, 58, 72
2, 14177, Note_on_c, 0, 68, 0
2, 14183, Note_on_c, 0, 51, 0
2, 14204, Note_on_c, 0, 68, 64
2, 14205, Note_on_c, 0, 72, 0
2, 14213, Note_on_c, 0, 63, 0
2, 14220, Note_on_c, 0, 51, 43
2, 14226, Note_on_c, 0, 58, 0
2, 14230, Note_on_c, 0, 72, 54
2, 14241, Note_on_c, 0, 68, 0
2, 14260, Note_on_c, 0, 80, 62
2, 14261, Note_on_c, 0, 44, 56
2, 14262, Note_on_c, 0, 51, 0
2, 14264, Note_on_c, 0, 72, 0
2, 14284, Note_on_c, 0, 80, 0
2, 14295, Note_on_c, 0, 68, 64
2, 14320, Note_on_c, 0, 51, 52
2, 14329, Note_on_c, 0, 72, 60
2, 14339, Note_on_c, 0, 44, 0
2, 14349, Note_on_c, 0, 56, 69
2, 14355, Note_on_c, 0, 63, 66
2, 14362, Note_on_c, 0, 68, 0
2, 14366, Note_on_c, 0, 51, 0
2, 14387, Note_on_c, 0, 68, 61
2, 14392, Note_on_c, 0, 72, 0
2, 14396, Note_on_c, 0, 56, 0
2, 14404, Note_on_c, 0, 51, 51
2, 14416, Note_on_c, 0, 63, 0
2, 14417, Note_on_c, 0, 72, 54
2, 14426, Note_on_c, 0, 68, 0
2, 14436, Note_on_c, 0, 51, 0
2, 14443, Note_on_c, 0, 72, 0
2, 14461, Note_on_c, 0, 39, 73
2, 14464, Note_on_c, 0, 79, 72
2, 14512, Note_on_c, 0, 72, 49
2, 14530, Note_on_c, 0, 55, 34
2, 14537, Note_on_c, 0, 75, 56
2, 14540, Note_on_c, 0, 39, 0
2, 14548, Note_on_c, 0, 79, 0
2, 14549, Note_on_c, 0, 72, 0
2, 14567, Note_on_c, 0, 55, 0
2, 14567, Note_on_c, 0, 60, 41
2, 14569, Note_on_c, 0, 75, 0
2, 14569, Note_on_c, 0, 67, 48
2, 14603, Note_on_c, 0, 72, 46
2, 14608, Note_on_c, 0, 60, 0
2, 14613, Note_on_c, 0, 67, 0
2, 14616, Note_on_c, 0, 55, 37
2, 14626, Note_on_c, 0, 75, 59
2, 14641, Note_on_c, 0, 72, 0
2, 14651, Note_on_c, 0, 55, 0
2, 14653, Note_on_c, 0, 48, 59
2, 14657, Note_on_c, 0, 79, 66
2, 14664, Note_on_c, 0, 75, 0
2, 14676, Control_c, 0, 64, 0
2, 14696, Note_on_c, 0, 72, 42
2, 14708, Control_c, 0, 64, 127
2, 14712, Note_on_c, 0, 55, 42
2, 14720, Note_on_c, 0, 75, 34
2, 14740, Note_on_c, 0, 48, 0
2, 14747, Note_on_c, 0, 67, 49
2, 14747, Note_on_c, 0, 60, 35
2, 14751, Note_on_c, 0, 79, 0
2, 14756, Note_on_c, 0, 72, 0
2, 14776, Note_on_c, 0, 55, 0
2, 14784, Note_on_c, 0, 72, 42
2, 14788, Note_on_c, 0, 75, 0
2, 14792, Note_on_c, 0, 55, 36
2, 14793, Note_on_c, 0, 67, 0
2, 14797, Note_on_c, 0, 60, 0
2, 14807, Note_on_c, 0, 75, 58
2, 14813, Note_on_c, 0, 72, 0
2, 14822, Note_on_c, 0, 55, 0
2, 14843, Note_on_c, 0, 41, 56
2, 14845, Note_on_c, 0, 75, 0
2, 14850, Note_on_c, 0, 80, 68
2, 14871, Note_on_c, 0, 41, 0
2, 14882, Note_on_c, 0, 72, 44
2, 14898, Note_on_c, 0, 80, 0
2, 14900, Note_on_c, 0, 50, 57
2, 14911, Note_on_c, 0, 74, 50
2, 14931, Note_on_c, 0, 72, 0
2, 14943, Note_on_c, 0, 68, 43
2, 14947, Note_on_c, 0, 50, 0
2, 14947, Note_on_c, 0, 74, 0
2, 14953, Note_on_c, 0, 60, 30
2, 14984, Note_on_c, 0, 68, 0
2, 14985, Note_on_c, 0, 72, 49
2, 14995, Note_on_c, 0, 60, 0
2, 15006, Note_on_c, 0, 50, 41
2, 15015, Note_on_c, 0, 74, 50
2, 15024, Note_on_c, 0, 72, 0
2, 15045, Note_on_c, 0, 50, 0
2, 15050, Note_on_c, 0, 77, 59
2, 15053, Note_on_c, 0, 43, 52
2, 15060, Note_on_c, 0, 74, 0
2, 15074, Control_c, 0, 64, 0
2, 15088, Note_on_c, 0, 71, 53
2, 15112, Note_on_c, 0, 50, 50
2, 15114, Note_on_c, 0, 77, 0
2, 15117, Control_c, 0, 64, 127
2, 15124, Note_on_c, 0, 74, 50
2, 15144, Note_on_c, 0, 43, 0
2, 15145, Note_on_c, 0, 71, 0
2, 15160, Note_on_c, 0, 65, 45
2, 15164, Note_on_c, 0, 59, 34
2, 15169, Note_on_c, 0, 50, 0
2, 15183, Note_on_c, 0, 74, 0
2, 15200, Note_on_c, 0, 65, 0
2, 15201, Note_on_c, 0, 71, 54
2, 15209, Note_on_c, 0, 55, 35
2, 15213, Note_on_c, 0, 59, 0
2, 15244, Note_on_c, 0, 74, 51
2, 15246, Note_on_c, 0, 50, 41
2, 15247, Note_on_c, 0, 71, 0
2, 15253, Note_on_c, 0, 55, 0
2, 15286, Note_on_c, 0, 74, 0
2, 15288, Note_on_c, 0, 50, 0
2, 15290, Note_on_c, 0, 76, 45
2, 15291, Note_on_c, 0, 48, 50
2, 15295, Control_c, 0, 64, 0
2, 15343, Note_on_c, 0, 52, 39
2, 15346, Note_on_c, 0, 67, 34
2, 15351, Control_c, 0, 64, 127
2, 15358, Note_on_c, 0, 76, 0
2, 15371, Note_on_c, 0, 48, 0
2, 15380, Note_on_c, 0, 72, 42
2, 15384, Note_on_c, 0, 55, 36
2, 15397, Note_on_c, 0, 52, 0
2, 15404, Note_on_c, 0, 67, 0
2, 15406, Note_on_c, 0, 72, 0
2, 15413, Note_on_c, 0, 55, 0
2, 15415, Note_on_c, 0, 64, 49
2, 15421, Note_on_c, 0, 60, 40
2, 15447, Note_on_c, 0, 64, 0
2, 15451, Note_on_c, 0, 67, 36
2, 15451, Note_on_c, 0, 55, 19
2, 15453, Note_on_c, 0, 60, 0
2, 15471, Note_on_c, 0, 67, 0
2, 15477, Note_on_c, 0, 72, 40
2, 15481, Note_on_c, 0, 52, 11
2, 15489, Note_on_c, 0, 55, 0
2, 15489, Note_on_c, 0, 72, 0
2, 15507, Note_on_c, 0, 74, 56
2, 15511, Note_on_c, 0, 48, 38
2, 15512, Note_on_c, 0, 52, 0
2, 15526, Control_c, 0, 64, 0
2, 15538, Control_c, 0, 64, 127
2, 15540, Note_on_c, 0, 68, 52
2, 15544, Note_on_c, 0, 53, 35
2, 15556, Note_on_c, 0, 74, 0
2, 15570, Note_on_c, 0, 48, 0
2, 15574, Note_on_c, 0, 71, 37
2, 15574, Note_on_c, 0, 56, 38
2, 15584, Note_on_c, 0, 68, 0
2, 15588, Note_on_c, 0, 53, 0
2, 15597, Note_on_c, 0, 71, 0
2, 15599, Note_on_c, 0, 62, 47
2, 15601, Note_on_c, 0, 56, 0
2, 15604, Note_on_c, 0, 59, 44
2, 15627, Note_on_c, 0, 62, 0
2, 15627, Note_on_c, 0, 68, 55
2, 15638, Note_on_c, 0, 59, 0
2, 15638, Note_on_c, 0, 56, 44
2, 15663, Note_on_c, 0, 68, 0
2, 15663, Note_on_c, 0, 71, 43
2, 15664, Note_on_c, 0, 53, 33
2, 15674, Note_on_c, 0, 56, 0
2, 15687, Note_on_c, 0, 48, 53
2, 15689, Note_on_c, 0, 71, 0
2, 15692, Note_on_c, 0, 77, 57
2, 15698, Note_on_c, 0, 53, 0
2, 15702, Control_c, 0, 64, 0
2, 15706, Control_c, 0, 64, 127
2, 15715, Note_on_c, 0, 68, 56
2, 15721, Note_on_c, 0, 53, 38
2, 15725, Note_on_c, 0, 48, 0
2, 15732, Note_on_c, 0, 77, 0
2, 15749, Note_on_c, 0, 56, 48
2, 15753, Note_on_c, 0, 71, 29
2, 15759, Note_on_c, 0, 68, 0
2, 15771, Note_on_c, 0, 65, 52
2, 15773, Note_on_c, 0, 53, 0
2, 15775, Note_on_c, 0, 56, 0
2, 15780, Note_on_c, 0, 71, 0
2, 15781, Note_on_c, 0, 62, 37
2, 15805, Note_on_c, 0, 68, 59
2, 15808, Note_on_c, 0, 56, 57
2, 15810, Note_on_c, 0, 65, 0
2, 15818, Note_on_c, 0, 62, 0
2, 15840, Note_on_c, 0, 53, 57
2, 15841, Note_on_c, 0, 71, 41
2, 15844, Note_on_c, 0, 68, 0
2, 15850, Note_on_c, 0, 56, 0
2, 15863, Note_on_c, 0, 76, 53
2, 15864, Note_on_c, 0, 48, 37
2, 15869, Note_on_c, 0, 53, 0
2, 15871, Note_on_c, 0, 71, 0
2, 15874, Control_c, 0, 64, 0
2, 15889, Control_c, 0, 64, 127
2, 15892, Note_on_c, 0, 68, 48
2, 15899, Note_on_c, 0, 52, 44
2, 15919, Note_on_c, 0, 76, 0
2, 15920, Note_on_c, 0, 48, 0
2, 15926, Note_on_c, 0, 71, 39
2, 15931, Note_on_c, 0, 56, 46
2, 15936, Note_on_c, 0, 68, 0
2, 15949, Note_on_c, 0, 52, 0
2, 15955, Note_on_c, 0, 64, 42
2, 15958, Note_on_c, 0, 71, 0
2, 15964, Note_on_c, 0, 56, 0
2, 15965, Note_on_c, 0, 62, 32
2, 15990, Note_on_c, 0, 68, 46
2, 15991, Note_on_c, 0, 56, 47
2, 15996, Note_on_c, 0, 64, 0
2, 16004, Note_on_c, 0, 62, 0
2, 16025, Note_on_c, 0, 68, 0
2, 16029, Note_on_c, 0, 71, 39
2, 16029, Note_on_c, 0, 52, 38
2, 16039, Note_on_c, 0, 56, 0
2, 16061, Note_on_c, 0, 71, 0
2, 16063, Note_on_c, 0, 52, 0
2, 16063, Note_on_c, 0, 76, 48
2, 16065, Note_on_c, 0, 48, 53
2, 16079, Control_c, 0, 64, 0
2, 16105, Control_c, 0, 64, 127
2, 16107, Note_on_c, 0, 67, 38
2, 16107, Note_on_c, 0, 52, 29
2, 16120, Note_on_c, 0, 76, 0
2, 16126, Note_on_c, 0, 48, 0
2, 16133, Note_on_c, 0, 55, 35
2, 16137, Note_on_c, 0, 72, 44
2, 16149, Note_on_c, 0, 67, 0
2, 16152, Note_on_c, 0, 52, 0
2, 16156, Note_on_c, 0, 55, 0
2, 16162, Note_on_c, 0, 64, 44
2, 16163, Note_on_c, 0, 60, 41
2, 16165, Note_on_c, 0, 72, 0
2, 16193, Note_on_c, 0, 64, 0
2, 16196, Note_on_c, 0, 55, 35
2, 16198, Note_on_c, 0, 67, 39
2, 16200, Note_on_c, 0, 60, 0
2, 16215, Note_on_c, 0, 52, 42
2, 16218, Note_on_c, 0, 72, 50
2, 16219, Note_on_c, 0, 55, 0
2, 16230, Note_on_c, 0, 67, 0
2, 16240, Note_on_c, 0, 52, 0
2, 16244, Note_on_c, 0, 47, 43
2, 16254, Note_on_c, 0, 74, 56
2, 16256, Note_on_c, 0, 72, 0
2, 16269, Control_c, 0, 64, 0
2, 16280, Control_c, 0, 64, 127
2, 16283, Note_on_c, 0, 68, 52
2, 16284, Note_on_c, 0, 53, 40
2, 16294, Note_on_c, 0, 47, 0
2, 16312, Note_on_c, 0, 56, 48
2, 16312, Note_on_c, 0, 71, 39
2, 16323, Note_on_c, 0, 74, 0
2, 16323, Note_on_c, 0, 68, 0
2, 16325, Note_on_c, 0, 53, 0
2, 16338, Note_on_c, 0, 56, 0
2, 16340, Note_on_c, 0, 71, 0
2, 16341, Note_on_c, 0, 62, 37
2, 16346, Note_on_c, 0, 59, 35
2, 16364, Note_on_c, 0, 62, 0
2, 16369, Note_on_c, 0, 68, 51
2, 16374, Note_on_c, 0, 56, 42
2, 16377, Note_on_c, 0, 59, 0
2, 16396, Note_on_c, 0, 53, 49
2, 16397, Note_on_c, 0, 68, 0
2, 16407, Note_on_c, 0, 71, 42
2, 16419, Note_on_c, 0, 56, 0
2, 16427, Note_on_c, 0, 53, 0
2, 16433, Note_on_c, 0, 47, 40
2, 16440, Note_on_c, 0, 77, 50
2, 16444, Note_on_c, 0, 71, 0
2, 16449, Control_c, 0, 64, 0
2, 16456, Control_c, 0, 64, 127
2, 16474, Note_on_c, 0, 68, 33
2, 16478, Note_on_c, 0, 53, 30
2, 16482, Note_on_c, 0, 47, 0
2, 16486, Note_on_c, 0, 77, 0
2, 16503, Note_on_c, 0, 56, 38
2, 16506, Note_on_c, 0, 71, 52
2, 16520, Note_on_c, 0, 68, 0
2, 16529, Note_on_c, 0, 53, 0
2, 16536, Note_on_c, 0, 56, 0
2, 16539, Note_on_c, 0, 65, 38
2, 16543, Note_on_c, 0, 71, 0
2, 16544, Note_on_c, 0, 62, 32
2, 16570, Note_on_c, 0, 56, 47
2, 16570, Note_on_c, 0, 68, 47
2, 16575, Note_on_c, 0, 65, 0
2, 16582, Note_on_c, 0, 62, 0
2, 16602, Note_on_c, 0, 53, 39
2, 16609, Note_on_c, 0, 56, 0
2, 16610, Note_on_c, 0, 71, 44
2, 16623, Note_on_c, 0, 68, 0
2, 16633, Note_on_c, 0, 53, 0
2, 16635, Note_on_c, 0, 47, 41
2, 16644, Note_on_c, 0, 76, 40
2, 16649, Note_on_c, 0, 71, 0
2, 16656, Control_c, 0, 64, 0
2, 16669, Control_c, 0, 64, 127
2, 16684, Note_on_c, 0, 52, 28
2, 16687, Note_on_c, 0, 68, 47
2, 16695, Note_on_c, 0, 47, 0
2, 16712, Note_on_c, 0, 76, 0
2, 16714, Note_on_c, 0, 56, 31
2, 16726, Note_on_c, 0, 71, 40
2, 16739, Note_on_c, 0, 52, 0
2, 16748, Note_on_c, 0, 68, 0
2, 16750, Note_on_c, 0, 56, 0
2, 16760, Note_on_c, 0, 64, 33
2, 16760, Note_on_c, 0, 62, 35
2, 16769, Note_on_c, 0, 71, 0
2, 16790, Note_on_c, 0, 64, 0
2, 16795, Note_on_c, 0, 56, 41
2, 16798, Note_on_c, 0, 68, 47
2, 16821, Note_on_c, 0, 62, 0
2, 16837, Note_on_c, 0, 52, 42
2, 16839, Note_on_c, 0, 56, 0
2, 16840, Note_on_c, 0, 71, 40
2, 16854, Note_on_c, 0, 68, 0
2, 16883, Note_on_c, 0, 52, 0
2, 16900, Note_on_c, 0, 45, 41
2, 16903, Note_on_c, 0, 76, 58
2, 16905, Note_on_c, 0, 71, 0
2, 16910, Control_c, 0, 64, 0
2, 16955, Note_on_c, 0, 69, 37
2, 16957, Control_c, 0, 64, 127
2, 16958, Note_on_c, 0, 52, 40
2, 16961, Note_on_c, 0, 45, 0
2, 16994, Note_on_c, 0, 76, 0
2, 16996, Note_on_c, 0, 73, 50
2, 17004, Note_on_c, 0, 57, 40
2, 17012, Note_on_c, 0, 69, 0
2, 17014, Note_on_c, 0, 52, 0
2, 17029, Note_on_c, 0, 73, 0
2, 17033, Note_on_c, 0, 64, 48
2, 17034, Note_on_c, 0, 57, 0
2, 17040, Note_on_c, 0, 61, 42
2, 17066, Note_on_c, 0, 64, 0
2, 17074, Note_on_c, 0, 69, 43
2, 17075, Note_on_c, 0, 61, 0
2, 17076, Note_on_c, 0, 57, 40
2, 17101, Note_on_c, 0, 69, 0
2, 17101, Note_on_c, 0, 73, 49
2, 17104, Note_on_c, 0, 52, 19
2, 17113, Note_on_c, 0, 57, 0
2, 17114, Note_on_c, 0, 73, 0
2, 17128, Note_on_c, 0, 45, 46
2, 17134, Note_on_c, 0, 52, 0
2, 17134, Note_on_c, 0, 74, 61
2, 17149, Control_c, 0, 64, 0
2, 17151, Control_c, 0, 64, 127
2, 17153, Note_on_c, 0, 45, 0
2, 17171, Note_on_c, 0, 54, 47
2, 17174, Note_on_c, 0, 69, 42
2, 17198, Note_on_c, 0, 74, 0
2, 17200, Note_on_c, 0, 71, 53
2, 17205, Note_on_c, 0, 54, 0
2, 17206, Note_on_c, 0, 69, 0
2, 17207, Note_on_c, 0, 57, 53
2, 17221, Note_on_c, 0, 71, 0
2, 17234, Note_on_c, 0, 57, 0
2, 17236, Note_on_c, 0, 59, 53
2, 17238, Note_on_c, 0, 62, 53
2, 17254, Note_on_c, 0, 59, 0
2, 17264, Note_on_c, 0, 57, 51
2, 17270, Note_on_c, 0, 62, 0
2, 17270, Note_on_c, 0, 69, 51
2, 17282, Note_on_c, 0, 57, 0
2, 17287, Note_on_c, 0, 54, 48
2, 17300, Note_on_c, 0, 71, 50
2, 17309, Note_on_c, 0, 69, 0
2, 17314, Note_on_c, 0, 54, 0
2, 17325, Note_on_c, 0, 45, 48
2, 17327, Note_on_c, 0, 78, 58
2, 17331, Note_on_c, 0, 71, 0
2, 17345, Note_on_c, 0, 45, 0
2, 17357, Note_on_c, 0, 54, 53
2, 17360, Note_on_c, 0, 69, 53
2, 17366, Note_on_c, 0, 78, 0
2, 17389, Note_on_c, 0, 71, 42
2, 17391, Note_on_c, 0, 57, 43
2, 17395, Note_on_c, 0, 54, 0
2, 17398, Note_on_c, 0, 69, 0
2, 17416, Note_on_c, 0, 71, 0
2, 17419, Note_on_c, 0, 66, 46
2, 17422, Note_on_c, 0, 57, 0
2, 17424, Note_on_c, 0, 62, 34
2, 17449, Note_on_c, 0, 66, 0
2, 17453, Note_on_c, 0, 57, 43
2, 17457, Note_on_c, 0, 69, 48
2, 17458, Note_on_c, 0, 62, 0
2, 17474, Note_on_c, 0, 57, 0
2, 17475, Note_on_c, 0, 54, 46
2, 17485, Note_on_c, 0, 74, 43
2, 17496, Note_on_c, 0, 69, 0
2, 17504, Note_on_c, 0, 54, 0
2, 17510, Note_on_c, 0, 76, 61
2, 17512, Note_on_c, 0, 45, 56
2, 17516, Note_on_c, 0, 74, 0
2, 17520, Control_c, 0, 64, 0
2, 17533, Control_c, 0, 64, 127
2, 17535, Note_on_c, 0, 76, 0
2, 17543, Note_on_c, 0, 52, 44
2, 17546, Note_on_c, 0, 68, 48
2, 17562, Note_on_c, 0, 45, 0
2, 17565, Note_on_c, 0, 56, 47
2, 17571, Note_on_c, 0, 74, 50
2, 17577, Note_on_c, 0, 52, 0
2, 17579, Note_on_c, 0, 68, 0
2, 17588, Note_on_c, 0, 56, 0
2, 17595, Note_on_c, 0, 62, 38
2, 17598, Note_on_c, 0, 74, 0
2, 17601, Note_on_c, 0, 64, 51
2, 17621, Note_on_c, 0, 68, 56
2, 17623, Note_on_c, 0, 56, 56
2, 17626, Note_on_c, 0, 62, 0
2, 17631, Note_on_c, 0, 64, 0
2, 17646, Note_on_c, 0, 68, 0
2, 17651, Note_on_c, 0, 52, 43
2, 17662, Note_on_c, 0, 74, 40
2, 17667, Note_on_c, 0, 56, 0
2, 17672, Note_on_c, 0, 52, 0
2, 17679, Note_on_c, 0, 45, 46
2, 17689, Control_c, 0, 64, 0
2, 17693, Note_on_c, 0, 76, 60
2, 17697, Note_on_c, 0, 74, 0
2, 17697, Control_c, 0, 64, 127
2, 17711, Note_on_c, 0, 45, 0
2, 17716, Note_on_c, 0, 52, 49
2, 17725, Note_on_c, 0, 69, 54
2, 17750, Note_on_c, 0, 76, 0
2, 17750, Note_on_c, 0, 57, 44
2, 17753, Note_on_c, 0, 73, 50
2, 17756, Note_on_c, 0, 52, 0
2, 17762, Note_on_c, 0, 69, 0
2, 17774, Note_on_c, 0, 57, 0
2, 17775, Note_on_c, 0, 64, 53
2, 17776, Note_on_c, 0, 73, 0
2, 17780, Note_on_c, 0, 61, 41
2, 17803, Note_on_c, 0, 64, 0
2, 17805, Note_on_c, 0, 61, 0
2, 17805, Note_on_c, 0, 69, 45
2, 17813, Note_on_c, 0, 57, 38
2, 17821, Note_on_c, 0, 69, 0
2, 17822, Note_on_c, 0, 73, 58
2, 17827, Note_on_c, 0, 57, 0
2, 17834, Note_on_c, 0, 52, 41
2, 17851, Note_on_c, 0, 73, 0
2, 17852, Note_on_c, 0, 52, 0
2, 17857, Note_on_c, 0, 45, 62
2, 17859, Note_on_c, 0, 81, 72
2, 17877, Note_on_c, 0, 45, 0
2, 17886, Note_on_c, 0, 52, 55
2, 17892, Note_on_c, 0, 73, 58
2, 17895, Note_on_c, 0, 81, 0
2, 17913, Note_on_c, 0, 57, 34
2, 17923, Note_on_c, 0, 76, 43
2, 17925, Note_on_c, 0, 52, 0
2, 17927, Note_on_c, 0, 73, 0
2, 17938, Note_on_c, 0, 57, 0
2, 17943, Note_on_c, 0, 69, 46
2, 17943, Note_on_c, 0, 61, 60
2, 17946, Note_on_c, 0, 76, 0
2, 17966, Note_on_c, 0, 69, 0
2, 17972, Note_on_c, 0, 57, 46
2, 17972, Note_on_c, 0, 73, 57
2, 17984, Note_on_c, 0, 61, 0
2, 17993, Note_on_c, 0, 52, 43
2, 18001, Note_on_c, 0, 76, 49
2, 18004, Note_on_c, 0, 57, 0
2, 18005, Note_on_c, 0, 73, 0
2, 18008, Note_on_c, 0, 52, 0
2, 18025, Note_on_c, 0, 45, 57
2, 18028, Note_on_c, 0, 83, 72
2, 18031, Note_on_c, 0, 76, 0
2, 18034, Control_c, 0, 64, 0
2, 18038, Control_c, 0, 64, 127
2, 18058, Note_on_c, 0, 45, 0
2, 18064, Note_on_c, 0, 75, 46
2, 18064, Note_on_c, 0, 51, 66
2, 18067, Note_on_c, 0, 83, 0
2, 18084, Note_on_c, 0, 78, 60
2, 18087, Note_on_c, 0, 54, 25
2, 18095, Note_on_c, 0, 75, 0
2, 18097, Note_on_c, 0, 51, 0
2, 18111, Note_on_c, 0, 78, 0
2, 18113, Note_on_c, 0, 54, 0
2, 18116, Note_on_c, 0, 60, 51
2, 18120, Note_on_c, 0, 69, 37
2, 18145, Note_on_c, 0, 75, 61
2, 18146, Note_on_c, 0, 54, 52
2, 18150, Note_on_c, 0, 60, 0
2, 18154, Note_on_c, 0, 69, 0
2, 18168, Note_on_c, 0, 78, 58
2, 18177, Note_on_c, 0, 75, 0
2, 18177, Note_on_c, 0, 54, 0
2, 18177, Note_on_c, 0, 51, 47
2, 18205, Note_on_c, 0, 78, 0
2, 18207, Note_on_c, 0, 51, 0
2, 18209, Note_on_c, 0, 84, 66
2, 18210, Note_on_c, 0, 44, 60
2, 18222, Control_c, 0, 64, 0
2, 18229, Note_on_c, 0, 84, 0
2, 18230, Control_c, 0, 64, 127
2, 18247, Note_on_c, 0, 44, 0
2, 18247, Note_on_c, 0, 51, 41
2, 18251, Note_on_c, 0, 75, 50
2, 18270, Note_on_c, 0, 54, 37
2, 18279, Note_on_c, 0, 51, 0
2, 18280, Note_on_c, 0, 78, 50
2, 18290, Note_on_c, 0, 75, 0
2, 18307, Note_on_c, 0, 54, 0
2, 18313, Note_on_c, 0, 68, 62
2, 18315, Note_on_c, 0, 60, 41
2, 18319, Note_on_c, 0, 78, 0
2, 18344, Note_on_c, 0, 68, 0
2, 18346, Note_on_c, 0, 54, 38
2, 18352, Note_on_c, 0, 75, 49
2, 18356, Note_on_c, 0, 60, 0
2, 18373, Note_on_c, 0, 54, 0
2, 18375, Note_on_c, 0, 51, 48
2, 18384, Note_on_c, 0, 78, 52
2, 18389, Note_on_c, 0, 75, 0
2, 18394, Note_on_c, 0, 51, 0
2, 18428, Control_c, 0, 64, 0
2, 18432, Note_on_c, 0, 37, 55
2, 18437, Note_on_c, 0, 84, 72
2, 18439, Note_on_c, 0, 78, 0
2, 18439, Control_c, 0, 64, 127
2, 18450, Note_on_c, 0, 37, 0
2, 18459, Note_on_c, 0, 84, 0
2, 18501, Note_on_c, 0, 56, 43
2, 18503, Note_on_c, 0, 73, 43
2, 18511, Note_on_c, 0, 56, 0
2, 18525, Note_on_c, 0, 77, 44
2, 18532, Note_on_c, 0, 58, 49
2, 18538, Note_on_c, 0, 73, 0
2, 18543, Note_on_c, 0, 77, 0
2, 18545, Note_on_c, 0, 58, 0
2, 18555, Note_on_c, 0, 65, 51
2, 18556, Note_on_c, 0, 61, 47
2, 18580, Note_on_c, 0, 65, 0
2, 18582, Note_on_c, 0, 61, 0
2, 18584, Note_on_c, 0, 73, 43
2, 18592, Note_on_c, 0, 58, 38
2, 18600, Note_on_c, 0, 73, 0
2, 18605, Note_on_c, 0, 77, 49
2, 18612, Note_on_c, 0, 58, 0
2, 18612, Note_on_c, 0, 56, 37
2, 18621, Note_on_c, 0, 77, 0
2, 18630, Note_on_c, 0, 56, 0
2, 18633, Note_on_c, 0, 82, 67
2, 18635, Note_on_c, 0, 49, 46
2, 18664, Note_on_c, 0, 82, 0
2, 18666, Note_on_c, 0, 49, 0
2, 18670, Note_on_c, 0, 73, 52
2, 18679, Note_on_c, 0, 56, 41
2, 18689, Note_on_c, 0, 73, 0
2, 18690, Note_on_c, 0, 56, 0
2, 18693, Note_on_c, 0, 77, 54
2, 18698, Note_on_c, 0, 58, 48
2, 18707, Note_on_c, 0, 77, 0
2, 18716, Note_on_c, 0, 58, 0
2, 18723, Note_on_c, 0, 61, 47
2, 18726, Note_on_c, 0, 65, 42
2, 18747, Note_on_c, 0, 61, 0
2, 18747, Note_on_c, 0, 65, 0
2, 18751, Note_on_c, 0, 73, 59
2, 18752, Note_on_c, 0, 58, 43
2, 18761, Note_on_c, 0, 73, 0
2, 18770, Note_on_c, 0, 77, 36
2, 18772, Note_on_c, 0, 56, 43
2, 18774, Note_on_c, 0, 58, 0
2, 18781, Note_on_c, 0, 77, 0
2, 18792, Note_on_c, 0, 56, 0
2, 18806, Note_on_c, 0, 37, 70
2, 18807, Note_on_c, 0, 85, 75
2, 18820, Note_on_c, 0, 37, 0
2, 18822, Note_on_c, 0, 85, 0
2, 18855, Note_on_c, 0, 70, 52
2, 18865, Note_on_c, 0, 56, 37
2, 18872, Note_on_c, 0, 73, 61
2, 18873, Note_on_c, 0, 70, 0
2, 18884, Note_on_c, 0, 58, 43
2, 18893, Note_on_c, 0, 56, 0
2, 18893, Note_on_c, 0, 73, 0
2, 18900, Note_on_c, 0, 58, 0
2, 18902, Note_on_c, 0, 65, 49
2, 18909, Note_on_c, 0, 61, 42
2, 18926, Note_on_c, 0, 65, 0
2, 18930, Note_on_c, 0, 70, 39
2, 18938, Note_on_c, 0, 61, 0
2, 18944, Note_on_c, 0, 58, 48
2, 18949, Note_on_c, 0, 73, 53
2, 18954, Note_on_c, 0, 70, 0
2, 18955, Note_on_c, 0, 58, 0
2, 18976, Note_on_c, 0, 56, 39
2, 18984, Note_on_c, 0, 77, 59
2, 18986, Note_on_c, 0, 73, 0
2, 18987, Note_on_c, 0, 56, 0
2, 18992, Note_on_c, 0, 49, 52
2, 19023, Note_on_c, 0, 77, 0
2, 19028, Note_on_c, 0, 56, 46
2, 19034, Note_on_c, 0, 49, 0
2, 19034, Note_on_c, 0, 73, 49
2, 19038, Note_on_c, 0, 56, 0
2, 19046, Note_on_c, 0, 58, 39
2, 19069, Note_on_c, 0, 73, 0
2, 19072, Note_on_c, 0, 58, 0
2, 19077, Note_on_c, 0, 65, 48
2, 19078, Note_on_c, 0, 61, 44
2, 19103, Note_on_c, 0, 65, 0
2, 19109, Note_on_c, 0, 58, 43
2, 19110, Note_on_c, 0, 70, 46
2, 19114, Note_on_c, 0, 61, 0
2, 19119, Note_on_c, 0, 58, 0
2, 19133, Note_on_c, 0, 73, 59
2, 19136, Note_on_c, 0, 56, 43
2, 19139, Note_on_c, 0, 70, 0
2, 19145, Note_on_c, 0, 73, 0
2, 19158, Note_on_c, 0, 56, 0
2, 19177, Note_on_c, 0, 82, 74
2, 19179, Note_on_c, 0, 39, 60
2, 19201, Note_on_c, 0, 82, 0
2, 19226, Note_on_c, 0, 72, 43
2, 19243, Note_on_c, 0, 51, 44
2, 19246, Note_on_c, 0, 75, 46
2, 19254, Note_on_c, 0, 39, 0
2, 19259, Note_on_c, 0, 72, 0
2, 19262, Note_on_c, 0, 56, 44
2, 19265, Note_on_c, 0, 51, 0
2, 19270, Note_on_c, 0, 75, 0
2, 19277, Note_on_c, 0, 56, 0
2, 19277, Note_on_c, 0, 63, 59
2, 19282, Note_on_c, 0, 60, 43
2, 19298, Note_on_c, 0, 63, 0
2, 19301, Note_on_c, 0, 60, 0
2, 19311, Note_on_c, 0, 72, 39
2, 19314, Note_on_c, 0, 56, 52
2, 19327, Note_on_c, 0, 75, 51
2, 19332, Note_on_c, 0, 72, 0
2, 19334, Note_on_c, 0, 56, 0
2, 19339, Note_on_c, 0, 51, 47
2, 19349, Note_on_c, 0, 75, 0
2, 19352, Note_on_c, 0, 51, 0
2, 19352, Note_on_c, 0, 80, 64
2, 19358, Note_on_c, 0, 48, 50
2, 19382, Note_on_c, 0, 80, 0
2, 19382, Note_on_c, 0, 72, 37
2, 19387, Note_on_c, 0, 51, 55
2, 19392, Note_on_c, 0, 48, 0
2, 19407, Note_on_c, 0, 56, 50
2, 19411, Note_on_c, 0, 75, 50
2, 19415, Note_on_c, 0, 72, 0
2, 19418, Note_on_c, 0, 51, 0
2, 19430, Note_on_c, 0, 56, 0
2, 19435, Note_on_c, 0, 75, 0
2, 19438, Note_on_c, 0, 63, 59
2, 19439, Note_on_c, 0, 60, 41
2, 19455, Note_on_c, 0, 63, 0
2, 19464, Note_on_c, 0, 60, 0
2, 19466, Note_on_c, 0, 56, 53
2, 19474, Note_on_c, 0, 56, 0
2, 19476, Note_on_c, 0, 72, 35
2, 19478, Note_on_c, 0, 51, 59
2, 19487, Note_on_c, 0, 72, 0
2, 19489, Note_on_c, 0, 51, 0
2, 19490, Note_on_c, 0, 75, 59
2, 19509, Note_on_c, 0, 75, 0
2, 19519, Control_c, 0, 64, 0
2, 19524, Note_on_c, 0, 39, 55
2, 19526, Note_on_c, 0, 84, 67
2, 19530, Control_c, 0, 64, 127
2, 19534, Note_on_c, 0, 39, 0
2, 19568, Note_on_c, 0, 51, 43
2, 19573, Note_on_c, 0, 68, 56
2, 19577, Note_on_c, 0, 84, 0
2, 19594, Note_on_c, 0, 51, 0
2, 19596, Note_on_c, 0, 72, 48
2, 19596, Note_on_c, 0, 56, 48
2, 19597, Note_on_c, 0, 68, 0
2, 19610, Note_on_c, 0, 72, 0
2, 19621, Note_on_c, 0, 56, 0
2, 19623, Note_on_c, 0, 60, 47
2, 19625, Note_on_c, 0, 63, 55
2, 19651, Note_on_c, 0, 68, 56
2, 19652, Note_on_c, 0, 60, 0
2, 19654, Note_on_c, 0, 56, 56
2, 19658, Note_on_c, 0, 63, 0
2, 19675, Note_on_c, 0, 72, 52
2, 19678, Note_on_c, 0, 68, 0
2, 19683, Note_on_c, 0, 51, 43
2, 19685, Note_on_c, 0, 56, 0
2, 19702, Control_c, 0, 64, 0
2, 19702, Note_on_c, 0, 48, 54
2, 19703, Note_on_c, 0, 75, 67
2, 19705, Note_on_c, 0, 72, 0
2, 19708, Note_on_c, 0, 51, 0
2, 19733, Note_on_c, 0, 68, 52
2, 19734, Control_c, 0, 64, 127
2, 19738, Note_on_c, 0, 51, 56
2, 19751, Note_on_c, 0, 56, 50
2, 19756, Note_on_c, 0, 72, 47
2, 19757, Note_on_c, 0, 48, 0
2, 19767, Note_on_c, 0, 75, 0
2, 19768, Note_on_c, 0, 68, 0
2, 19769, Note_on_c, 0, 51, 0
2, 19783, Note_on_c, 0, 56, 0
2, 19783, Note_on_c, 0, 63, 54
2, 19786, Note_on_c, 0, 60, 32
2, 19789, Note_on_c, 0, 72, 0
2, 19806, Note_on_c, 0, 56, 44
2, 19807, Note_on_c, 0, 63, 0
2, 19815, Note_on_c, 0, 68, 49
2, 19818, Note_on_c, 0, 60, 0
2, 19822, Note_on_c, 0, 56, 0
2, 19823, Note_on_c, 0, 51, 52
2, 19834, Note_on_c, 0, 68, 0
2, 19839, Note_on_c, 0, 72, 52
2, 19848, Note_on_c, 0, 51, 0
2, 19865, Note_on_c, 0, 75, 67
2, 19865, Note_on_c, 0, 39, 53
2, 19868, Note_on_c, 0, 72, 0
2, 19872, Control_c, 0, 64, 0
2, 19879, Control_c, 0, 64, 127
2, 19906, Note_on_c, 0, 55, 56
2, 19910, Note_on_c, 0, 67, 45
2, 19919, Note_on_c, 0, 75, 0
2, 19929, Note_on_c, 0, 70, 47
2, 19932, Note_on_c, 0, 39, 0
2, 19935, Note_on_c, 0, 55, 0
2, 19940, Note_on_c, 0, 67, 0
2, 19950, Note_on_c, 0, 63, 54
2, 19952, Note_on_c, 0, 61, 57
2, 19958, Note_on_c, 0, 70, 0
2, 19976, Note_on_c, 0, 63, 0
2, 19978, Note_on_c, 0, 55, 35
2, 19983, Note_on_c, 0, 67, 43
2, 19989, Note_on_c, 0, 61, 0
2, 20004, Note_on_c, 0, 70, 56
2, 20010, Note_on_c, 0, 55, 0
2, 20012, Note_on_c, 0, 67, 0
2, 20013, Note_on_c, 0, 51, 47
2, 20024, Note_on_c, 0, 70, 0
2, 20026, Note_on_c, 0, 46, 61
2, 20033, Note_on_c, 0, 76, 64
2, 20039, Note_on_c, 0, 51, 0
2, 20050, Control_c, 0, 64, 0
2, 20052, Control_c, 0, 64, 127
2, 20055, Note_on_c, 0, 51, 49
2, 20062, Note_on_c, 0, 46, 0
2, 20062, Note_on_c, 0, 55, 52
2, 20065, Note_on_c, 0, 76, 0
2, 20067, Note_on_c, 0, 51, 0
2, 20072, Note_on_c, 0, 67, 43
2, 20078, Note_on_c, 0, 70, 53
2, 20088, Note_on_c, 0, 55, 0
2, 20102, Note_on_c, 0, 67, 0
2, 20112, Note_on_c, 0, 61, 61
2, 20118, Note_on_c, 0, 70, 0
2, 20122, Note_on_c, 0, 63, 35
2, 20136, Note_on_c, 0, 61, 0
2, 20143, Note_on_c, 0, 63, 0
2, 20144, Note_on_c, 0, 67, 48
2, 20148, Note_on_c, 0, 55, 44
2, 20157, Note_on_c, 0, 67, 0
2, 20164, Note_on_c, 0, 51, 58
2, 20168, Note_on_c, 0, 70, 52
2, 20178, Note_on_c, 0, 55, 0
2, 20180, Note_on_c, 0, 51, 0
2, 20204, Note_on_c, 0, 70, 0
2, 20206, Note_on_c, 0, 39, 70
2, 20211, Control_c, 0, 64, 0
2, 20211, Note_on_c, 0, 77, 65
2, 20215, Control_c, 0, 64, 127
2, 20247, Note_on_c, 0, 67, 39
2, 20252, Note_on_c, 0, 70, 39
2, 20262, Note_on_c, 0, 39, 0
2, 20262, Note_on_c, 0, 51, 38
2, 20270, Note_on_c, 0, 77, 0
2, 20275, Note_on_c, 0, 67, 0
2, 20285, Note_on_c, 0, 61, 59
2, 20289, Note_on_c, 0, 70, 0
2, 20291, Note_on_c, 0, 51, 0
2, 20300, Note_on_c, 0, 63, 36
2, 20316, Note_on_c, 0, 61, 0
2, 20318, Note_on_c, 0, 63, 0
2, 20319, Note_on_c, 0, 67, 45
2, 20321, Note_on_c, 0, 55, 42
2, 20340, Note_on_c, 0, 67, 0
2, 20340, Note_on_c, 0, 51, 50
2, 20341, Note_on_c, 0, 70, 52
2, 20357, Note_on_c, 0, 55, 0
2, 20370, Note_on_c, 0, 51, 0
2, 20371, Note_on_c, 0, 75, 66
2, 20374, Note_on_c, 0, 46, 53
2, 20378, Note_on_c, 0, 70, 0
2, 20391, Control_c, 0, 64, 0
2, 20395, Control_c, 0, 64, 127
2, 20397, Note_on_c, 0, 51, 47
2, 20406, Note_on_c, 0, 75, 0
2, 20411, Note_on_c, 0, 67, 35
2, 20414, Note_on_c, 0, 55, 40
2, 20422, Note_on_c, 0, 46, 0
2, 20428, Note_on_c, 0, 70, 51
2, 20436, Note_on_c, 0, 51, 0
2, 20449, Note_on_c, 0, 67, 0
2, 20452, Note_on_c, 0, 55, 0
2, 20456, Note_on_c, 0, 61, 50
2, 20462, Note_on_c, 0, 63, 49
2, 20473, Note_on_c, 0, 70, 0
2, 20485, Note_on_c, 0, 61, 0
2, 20490, Note_on_c, 0, 67, 45
2, 20493, Note_on_c, 0, 55, 19
2, 20494, Note_on_c, 0, 63, 0
2, 20503, Note_on_c, 0, 67, 0
2, 20511, Note_on_c, 0, 51, 41
2, 20520, Note_on_c, 0, 55, 0
2, 20522, Note_on_c, 0, 70, 52
2, 20532, Note_on_c, 0, 51, 0
2, 20549, Note_on_c, 0, 73, 67
2, 20553, Note_on_c, 0, 70, 0
2, 20560, Note_on_c, 0, 41, 64
2, 20566, Control_c, 0, 64, 0
2, 20571, Control_c, 0, 64, 127
2, 20593, Note_on_c, 0, 65, 37
2, 20605, Note_on_c, 0, 73, 0
2, 20611, Note_on_c, 0, 41, 0
2, 20612, Note_on_c, 0, 68, 46
2, 20616, Note_on_c, 0, 53, 59
2, 20623, Note_on_c, 0, 65, 0
2, 20636, Note_on_c, 0, 68, 0
2, 20636, Note_on_c, 0, 60, 53
2, 20638, Note_on_c, 0, 53, 0
2, 20655, Note_on_c, 0, 56, 48
2, 20669, Note_on_c, 0, 65, 38
2, 20670, Note_on_c, 0, 60, 0
2, 20682, Note_on_c, 0, 56, 0
2, 20690, Note_on_c, 0, 68, 57
2, 20692, Note_on_c, 0, 53, 29
2, 20704, Note_on_c, 0, 65, 0
2, 20705, Note_on_c, 0, 68, 0
2, 20723, Note_on_c, 0, 72, 61
2, 20729, Note_on_c, 0, 53, 0
2, 20731, Note_on_c, 0, 48, 63
2, 20753, Control_c, 0, 64, 0
2, 20756, Control_c, 0, 64, 127
2, 20759, Note_on_c, 0, 65, 39
2, 20771, Note_on_c, 0, 53, 45
2, 20776, Note_on_c, 0, 72, 0
2, 20784, Note_on_c, 0, 68, 46
2, 20797, Note_on_c, 0, 48, 0
2, 20799, Note_on_c, 0, 65, 0
2, 20809, Note_on_c, 0, 60, 39
2, 20810, Note_on_c, 0, 56, 56
2, 20816, Note_on_c, 0, 53, 0
2, 20837, Note_on_c, 0, 68, 0
2, 20839, Note_on_c, 0, 60, 0
2, 20845, Note_on_c, 0, 65, 39
2, 20848, Note_on_c, 0, 56, 0
2, 20851, Note_on_c, 0, 53, 32
2, 20859, Note_on_c, 0, 65, 0
2, 20872, Note_on_c, 0, 68, 56
2, 20883, Note_on_c, 0, 53, 0
2, 20897, Note_on_c, 0, 41, 73
2, 20903, Note_on_c, 0, 72, 61
2, 20904, Note_on_c, 0, 68, 0
2, 20927, Note_on_c, 0, 41, 0
2, 20941, Note_on_c, 0, 63, 56
2, 20956, Note_on_c, 0, 53, 57
2, 20965, Note_on_c, 0, 72, 0
2, 20971, Note_on_c, 0, 65, 52
2, 20973, Note_on_c, 0, 63, 0
2, 20992, Note_on_c, 0, 57, 55
2, 20995, Note_on_c, 0, 53, 0
2, 20996, Note_on_c, 0, 65, 0
2, 20997, Note_on_c, 0, 60, 50
2, 21018, Note_on_c, 0, 57, 0
2, 21023, Note_on_c, 0, 63, 56
2, 21030, Note_on_c, 0, 60, 0
2, 21031, Note_on_c, 0, 53, 54
2, 21048, Note_on_c, 0, 65, 42
2, 21050, Note_on_c, 0, 63, 0
2, 21065, Note_on_c, 0, 53, 0
2, 21082, Note_on_c, 0, 65, 0
2, 21090, Note_on_c, 0, 48, 59
2, 21094, Note_on_c, 0, 84, 67
2, 21124, Note_on_c, 0, 75, 59
2, 21138, Control_c, 0, 64, 0
2, 21148, Note_on_c, 0, 53, 57
2, 21149, Note_on_c, 0, 48, 0
2, 21160, Note_on_c, 0, 77, 53
2, 21161, Note_on_c, 0, 84, 0
2, 21175, Control_c, 0, 64, 127
2, 21180, Note_on_c, 0, 75, 0
2, 21182, Note_on_c, 0, 53, 0
2, 21188, Note_on_c, 0, 57, 44
2, 21190, Note_on_c, 0, 72, 52
2, 21197, Note_on_c, 0, 77, 0
2, 21226, Note_on_c, 0, 75, 57
2, 21228, Note_on_c, 0, 53, 61
2, 21243, Note_on_c, 0, 57, 0
2, 21245, Note_on_c, 0, 72, 0
2, 21260, Note_on_c, 0, 48, 48
2, 21260, Note_on_c, 0, 77, 53
2, 21265, Note_on_c, 0, 75, 0
2, 21272, Note_on_c, 0, 53, 0
2, 21279, Note_on_c, 0, 48, 0
2, 21305, Note_on_c, 0, 34, 82
2, 21309, Note_on_c, 0, 84, 73
2, 21313, Note_on_c, 0, 77, 0
2, 21333, Note_on_c, 0, 34, 0
2, 21360, Note_on_c, 0, 73, 47
2, 21364, Note_on_c, 0, 53, 48
2, 21365, Note_on_c, 0, 84, 0
2, 21383, Note_on_c, 0, 73, 0
2, 21386, Note_on_c, 0, 77, 52
2, 21388, Note_on_c, 0, 53, 0
2, 21392, Note_on_c, 0, 58, 48
2, 21411, Note_on_c, 0, 77, 0
2, 21413, Note_on_c, 0, 58, 0
2, 21419, Note_on_c, 0, 61, 46
2, 21421, Note_on_c, 0, 65, 43
2, 21444, Note_on_c, 0, 58, 30
2, 21446, Note_on_c, 0, 61, 0
2, 21448, Note_on_c, 0, 65, 0
2, 21452, Note_on_c, 0, 73, 51
2, 21456, Note_on_c, 0, 58, 0
2, 21472, Note_on_c, 0, 77, 42
2, 21477, Note_on_c, 0, 73, 0
2, 21478, Note_on_c, 0, 53, 38
2, 21499, Note_on_c, 0, 77, 0
2, 21504, Note_on_c, 0, 53, 0
2, 21505, Note_on_c, 0, 82, 67
2, 21508, Note_on_c, 0, 46, 60
2, 21535, Note_on_c, 0, 82, 0
2, 21538, Note_on_c, 0, 73, 58
2, 21540, Note_on_c, 0, 46, 0
2, 21543, Note_on_c, 0, 53, 52
2, 21561, Note_on_c, 0, 73, 0
2, 21562, Note_on_c, 0, 77, 49
2, 21572, Note_on_c, 0, 58, 48
2, 21576, Note_on_c, 0, 53, 0
2, 21585, Note_on_c, 0, 77, 0
2, 21591, Note_on_c, 0, 58, 0
2, 21592, Note_on_c, 0, 65, 50
2, 21593, Note_on_c, 0, 61, 58
2, 21617, Note_on_c, 0, 65, 0
2, 21618, Note_on_c, 0, 61, 0
2, 21618, Note_on_c, 0, 58, 37
2, 21623, Note_on_c, 0, 73, 53
2, 21627, Note_on_c, 0, 58, 0
2, 21640, Note_on_c, 0, 53, 58
2, 21646, Note_on_c, 0, 77, 44
2, 21652, Note_on_c, 0, 73, 0
2, 21665, Note_on_c, 0, 53, 0
2, 21680, Note_on_c, 0, 77, 0
2, 21681, Note_on_c, 0, 34, 67
2, 21692, Note_on_c, 0, 85, 78
2, 21705, Control_c, 0, 64, 0
2, 21708, Control_c, 0, 64, 127
2, 21715, Note_on_c, 0, 34, 0
2, 21728, Note_on_c, 0, 53, 58
2, 21740, Note_on_c, 0, 85, 0
2, 21753, Note_on_c, 0, 53, 0
2, 21756, Note_on_c, 0, 58, 58
2, 21767, Note_on_c, 0, 73, 49
2, 21781, Note_on_c, 0, 58, 0
2, 21788, Note_on_c, 0, 61, 40
2, 21792, Note_on_c, 0, 64, 52
2, 21795, Note_on_c, 0, 73, 0
2, 21816, Note_on_c, 0, 58, 58
2, 21818, Note_on_c, 0, 61, 0
2, 21818, Note_on_c, 0, 70, 48
2, 21821, Note_on_c, 0, 64, 0
2, 21834, Note_on_c, 0, 52, 42
2, 21840, Note_on_c, 0, 73, 43
2, 21841, Note_on_c, 0, 58, 0
2, 21849, Note_on_c, 0, 70, 0
2, 21861, Note_on_c, 0, 52, 0
2, 21867, Note_on_c, 0, 46, 71
2, 21870, Note_on_c, 0, 76, 58
2, 21873, Note_on_c, 0, 73, 0
2, 21900, Note_on_c, 0, 46, 0
2, 21901, Note_on_c, 0, 73, 47
2, 21904, Note_on_c, 0, 52, 50
2, 21917, Note_on_c, 0, 76, 0
2, 21929, Note_on_c, 0, 56, 46
2, 21932, Note_on_c, 0, 70, 42
2, 21937, Note_on_c, 0, 73, 0
2, 21940, Note_on_c, 0, 52, 0
2, 21951, Note_on_c, 0, 56, 0
2, 21956, Note_on_c, 0, 70, 0
2, 21956, Note_on_c, 0, 64, 57
2, 21959, Note_on_c, 0, 61, 47
2, 21981, Note_on_c, 0, 56, 39
2, 21985, Note_on_c, 0, 64, 0
2, 21985, Note_on_c, 0, 61, 0
2, 21987, Note_on_c, 0, 70, 37
2, 21998, Note_on_c, 0, 56, 0
2, 22008, Note_on_c, 0, 52, 42
2, 22012, Note_on_c, 0, 73, 44
2, 22015, Note_on_c, 0, 70, 0
2, 22020, Note_on_c, 0, 52, 0
2, 22043, Note_on_c, 0, 73, 0
2, 22054, Note_on_c, 0, 39, 64
2, 22058, Note_on_c, 0, 82, 67
2, 22071, Control_c, 0, 64, 0
2, 22074, Control_c, 0, 64, 127
2, 22077, Note_on_c, 0, 39, 0
2, 22103, Note_on_c, 0, 72, 46
2, 22122, Note_on_c, 0, 51, 46
2, 22131, Note_on_c, 0, 75, 47
2, 22135, Note_on_c, 0, 82, 0
2, 22137, Note_on_c, 0, 72, 0
2, 22137, Note_on_c, 0, 56, 47
2, 22147, Note_on_c, 0, 51, 0
2, 22153, Note_on_c, 0, 63, 58
2, 22155, Note_on_c, 0, 75, 0
2, 22160, Note_on_c, 0, 60, 41
2, 22161, Note_on_c, 0, 56, 0
2, 22182, Note_on_c, 0, 63, 0
2, 22186, Note_on_c, 0, 60, 0
2, 22188, Note_on_c, 0, 72, 45
2, 22209, Note_on_c, 0, 75, 53
2, 22210, Note_on_c, 0, 51, 52
2, 22216, Note_on_c, 0, 72, 0
2, 22231, Note_on_c, 0, 75, 0
2, 22233, Note_on_c, 0, 80, 66
2, 22234, Note_on_c, 0, 51, 0
2, 22238, Note_on_c, 0, 48, 54
2, 22263, Note_on_c, 0, 72, 43
2, 22267, Note_on_c, 0, 51, 53
2, 22270, Note_on_c, 0, 80, 0
2, 22272, Note_on_c, 0, 48, 0
2, 22290, Note_on_c, 0, 56, 42
2, 22293, Note_on_c, 0, 75, 41
2, 22300, Note_on_c, 0, 72, 0
2, 22300, Note_on_c, 0, 51, 0
2, 22317, Note_on_c, 0, 63, 58
2, 22319, Note_on_c, 0, 56, 0
2, 22320, Note_on_c, 0, 75, 0
2, 22321, Note_on_c, 0, 60, 36
2, 22344, Note_on_c, 0, 63, 0
2, 22352, Note_on_c, 0, 60, 0
2, 22360, Note_on_c, 0, 72, 40
2, 22367, Note_on_c, 0, 51, 37
2, 22376, Note_on_c, 0, 72, 0
2, 22381, Note_on_c, 0, 51, 0
2, 22381, Note_on_c, 0, 75, 56
2, 22401, Note_on_c, 0, 75, 0
2, 22413, Note_on_c, 0, 39, 60
2, 22419, Note_on_c, 0, 84, 71
2, 22432, Note_on_c, 0, 39, 0
2, 22466, Note_on_c, 0, 51, 59
2, 22468, Note_on_c, 0, 68, 47
2, 22475, Note_on_c, 0, 84, 0
2, 22484, Note_on_c, 0, 72, 40
2, 22490, Note_on_c, 0, 56, 52
2, 22498, Note_on_c, 0, 51, 0
2, 22498, Note_on_c, 0, 68, 0
2, 22517, Note_on_c, 0, 72, 0
2, 22517, Note_on_c, 0, 63, 34
2, 22518, Note_on_c, 0, 56, 0
2, 22524, Note_on_c, 0, 60, 31
2, 22544, Note_on_c, 0, 68, 51
2, 22548, Note_on_c, 0, 63, 0
2, 22550, Note_on_c, 0, 56, 48
2, 22553, Note_on_c, 0, 60, 0
2, 22575, Note_on_c, 0, 72, 43
2, 22577, Note_on_c, 0, 68, 0
2, 22583, Note_on_c, 0, 51, 31
2, 22588, Note_on_c, 0, 56, 0
2, 22604, Note_on_c, 0, 75, 55
2, 22607, Note_on_c, 0, 72, 0
2, 22612, Note_on_c, 0, 51, 0
2, 22615, Note_on_c, 0, 48, 54
2, 22645, Note_on_c, 0, 68, 44
2, 22650, Note_on_c, 0, 51, 39
2, 22666, Note_on_c, 0, 75, 0
2, 22672, Note_on_c, 0, 72, 38
2, 22678, Note_on_c, 0, 56, 32
2, 22686, Note_on_c, 0, 48, 0
2, 22688, Note_on_c, 0, 68, 0
2, 22693, Note_on_c, 0, 51, 0
2, 22702, Note_on_c, 0, 63, 47
2, 22705, Note_on_c, 0, 72, 0
2, 22737, Note_on_c, 0, 68, 48
2, 22747, Note_on_c, 0, 56, 0
2, 22748, Note_on_c, 0, 51, 66
2, 22749, Note_on_c, 0, 63, 0
2, 22764, Note_on_c, 0, 68, 0
2, 22770, Note_on_c, 0, 72, 43
2, 22783, Note_on_c, 0, 51, 0
2, 22795, Note_on_c, 0, 39, 73
2, 22799, Note_on_c, 0, 75, 60
2, 22800, Note_on_c, 0, 72, 0
2, 22845, Note_on_c, 0, 69, 42
2, 22857, Note_on_c, 0, 72, 50
2, 22858, Note_on_c, 0, 39, 0
2, 22868, Note_on_c, 0, 57, 46
2, 22870, Note_on_c, 0, 75, 0
2, 22885, Note_on_c, 0, 69, 0
2, 22886, Note_on_c, 0, 63, 44
2, 22888, Note_on_c, 0, 72, 0
2, 22895, Note_on_c, 0, 60, 36
2, 22903, Note_on_c, 0, 57, 0
2, 22916, Note_on_c, 0, 63, 0
2, 22917, Note_on_c, 0, 69, 48
2, 22919, Note_on_c, 0, 60, 0
2, 22930, Note_on_c, 0, 57, 39
2, 22941, Note_on_c, 0, 72, 50
2, 22946, Note_on_c, 0, 69, 0
2, 22953, Note_on_c, 0, 57, 0
2, 22967, Note_on_c, 0, 77, 65
2, 22967, Note_on_c, 0, 51, 60
2, 22970, Note_on_c, 0, 72, 0
2, 22998, Note_on_c, 0, 77, 0
2, 23001, Note_on_c, 0, 69, 39
2, 23008, Note_on_c, 0, 57, 41
2, 23011, Note_on_c, 0, 51, 0
2, 23019, Note_on_c, 0, 72, 48
2, 23031, Note_on_c, 0, 69, 0
2, 23035, Note_on_c, 0, 57, 0
2, 23043, Note_on_c, 0, 60, 42
2, 23047, Note_on_c, 0, 63, 39
2, 23050, Note_on_c, 0, 72, 0
2, 23069, Note_on_c, 0, 51, 49
2, 23071, Note_on_c, 0, 60, 0
2, 23075, Note_on_c, 0, 63, 0
2, 23077, Note_on_c, 0, 69, 46
2, 23094, Note_on_c, 0, 51, 0
2, 23101, Note_on_c, 0, 72, 39
2, 23105, Note_on_c, 0, 69, 0
2, 23122, Note_on_c, 0, 78, 66
2, 23124, Note_on_c, 0, 39, 69
2, 23125, Note_on_c, 0, 72, 0
2, 23159, Note_on_c, 0, 69, 41
2, 23163, Note_on_c, 0, 78, 0
2, 23180, Note_on_c, 0, 57, 51
2, 23183, Note_on_c, 0, 72, 44
2, 23187, Note_on_c, 0, 39, 0
2, 23202, Note_on_c, 0, 69, 0
2, 23205, Note_on_c, 0, 63, 47
2, 23210, Note_on_c, 0, 57, 0
2, 23210, Note_on_c, 0, 72, 0
2, 23212, Note_on_c, 0, 60, 33
2, 23238, Note_on_c, 0, 63, 0
2, 23239, Note_on_c, 0, 69, 49
2, 23240, Note_on_c, 0, 60, 0
2, 23252, Note_on_c, 0, 57, 39
2, 23264, Note_on_c, 0, 72, 46
2, 23267, Note_on_c, 0, 69, 0
2, 23270, Note_on_c, 0, 57, 0
2, 23287, Note_on_c, 0, 51, 67
2, 23289, Note_on_c, 0, 77, 61
2, 23294, Note_on_c, 0, 72, 0
2, 23317, Note_on_c, 0, 69, 57
2, 23323, Note_on_c, 0, 51, 0
2, 23325, Note_on_c, 0, 77, 0
2, 23333, Note_on_c, 0, 57, 34
2, 23346, Note_on_c, 0, 72, 48
2, 23356, Note_on_c, 0, 69, 0
2, 23360, Note_on_c, 0, 57, 0
2, 23361, Note_on_c, 0, 65, 37
2, 23367, Note_on_c, 0, 63, 59
2, 23374, Note_on_c, 0, 72, 0
2, 23387, Note_on_c, 0, 65, 0
2, 23397, Note_on_c, 0, 63, 0
2, 23401, Note_on_c, 0, 69, 47
2, 23405, Note_on_c, 0, 51, 59
2, 23416, Note_on_c, 0, 69, 0
2, 23420, Note_on_c, 0, 72, 43
2, 23422, Note_on_c, 0, 51, 0
2, 23442, Note_on_c, 0, 72, 0
2, 23443, Note_on_c, 0, 77, 65
2, 23449, Note_on_c, 0, 39, 73
2, 23474, Note_on_c, 0, 77, 0
2, 23480, Note_on_c, 0, 70, 47
2, 23501, Note_on_c, 0, 73, 33
2, 23509, Note_on_c, 0, 39, 0
2, 23521, Note_on_c, 0, 61, 32
2, 23525, Note_on_c, 0, 70, 0
2, 23525, Note_on_c, 0, 65, 34
2, 23527, Note_on_c, 0, 73, 0
2, 23540, Note_on_c, 0, 58, 58
2, 23547, Note_on_c, 0, 61, 0
2, 23547, Note_on_c, 0, 65, 0
2, 23551, Note_on_c, 0, 70, 49
2, 23564, Note_on_c, 0, 73, 56
2, 23577, Note_on_c, 0, 58, 0
2, 23578, Note_on_c, 0, 70, 0
2, 23593, Note_on_c, 0, 51, 72
2, 23596, Note_on_c, 0, 79, 67
2, 23598, Note_on_c, 0, 73, 0
2, 23620, Note_on_c, 0, 73, 52
2, 23622, Note_on_c, 0, 51, 0
2, 23630, Note_on_c, 0, 58, 55
2, 23634, Note_on_c, 0, 79, 0
2, 23651, Note_on_c, 0, 70, 53
2, 23661, Note_on_c, 0, 73, 0
2, 23663, Note_on_c, 0, 61, 57
2, 23670, Note_on_c, 0, 58, 0
2, 23673, Note_on_c, 0, 70, 0
2, 23679, Note_on_c, 0, 65, 47
2, 23697, Note_on_c, 0, 61, 0
2, 23698, Note_on_c, 0, 70, 43
2, 23705, Note_on_c, 0, 51, 67
2, 23706, Note_on_c, 0, 65, 0
2, 23717, Note_on_c, 0, 73, 55
2, 23719, Note_on_c, 0, 70, 0
2, 23732, Note_on_c, 0, 51, 0
2, 23745, Note_on_c, 0, 73, 0
2, 23747, Note_on_c, 0, 80, 73
2, 23751, Note_on_c, 0, 39, 81
2, 23783, Note_on_c, 0, 80, 0
2, 23783, Note_on_c, 0, 71, 56
2, 23806, Note_on_c, 0, 59, 55
2, 23809, Note_on_c, 0, 74, 32
2, 23814, Note_on_c, 0, 39, 0
2, 23816, Note_on_c, 0, 71, 0
2, 23820, Note_on_c, 0, 59, 0
2, 23824, Note_on_c, 0, 62, 48
2, 23825, Note_on_c, 0, 65, 54
2, 23832, Note_on_c, 0, 74, 0
2, 23853, Note_on_c, 0, 71, 48
2, 23857, Note_on_c, 0, 62, 0
2, 23859, Note_on_c, 0, 59, 38
2, 23860, Note_on_c, 0, 65, 0
2, 23881, Note_on_c, 0, 74, 49
2, 23889, Note_on_c, 0, 71, 0
2, 23889, Note_on_c, 0, 59, 0
2, 23905, Note_on_c, 0, 79, 61
2, 23907, Note_on_c, 0, 51, 77
2, 23913, Note_on_c, 0, 74, 0
2, 23932, Note_on_c, 0, 79, 0
2, 23939, Note_on_c, 0, 71, 52
2, 23949, Note_on_c, 0, 59, 50
2, 23959, Note_on_c, 0, 74, 45
2, 23964, Note_on_c, 0, 51, 0
2, 23974, Note_on_c, 0, 71, 0
2, 23975, Note_on_c, 0, 59, 0
2, 23978, Note_on_c, 0, 65, 44
2, 23982, Note_on_c, 0, 67, 52
2, 23985, Note_on_c, 0, 74, 0
2, 24006, Note_on_c, 0, 59, 52
2, 24007, Note_on_c, 0, 65, 0
2, 24009, Note_on_c, 0, 71, 53
2, 24011, Note_on_c, 0, 67, 0
2, 24027, Note_on_c, 0, 59, 0
2, 24033, Note_on_c, 0, 74, 49
2, 24034, Note_on_c, 0, 51, 41
2, 24041, Note_on_c, 0, 71, 0
2, 24041, Note_on_c, 0, 74, 0
2, 24059, Note_on_c, 0, 51, 0
2, 24072, Note_on_c, 0, 79, 75
2, 24084, Note_on_c, 0, 39, 80
2, 24092, Note_on_c, 0, 79, 0
2, 24112, Note_on_c, 0, 71, 29
2, 24116, Note_on_c, 0, 51, 65
2, 24119, Note_on_c, 0, 39, 0
2, 24128, Note_on_c, 0, 71, 0
2, 24132, Note_on_c, 0, 75, 58
2, 24141, Note_on_c, 0, 51, 0
2, 24145, Note_on_c, 0, 63, 66
2, 24159, Note_on_c, 0, 75, 0
2, 24165, Note_on_c, 0, 63, 0
2, 24168, Note_on_c, 0, 60, 46
2, 24174, Note_on_c, 0, 72, 52
2, 24195, Note_on_c, 0, 75, 52
2, 24207, Note_on_c, 0, 60, 0
2, 24207, Note_on_c, 0, 72, 0
2, 24217, Note_on_c, 0, 51, 69
2, 24222, Note_on_c, 0, 80, 71
2, 24228, Note_on_c, 0, 75, 0
2, 24258, Note_on_c, 0, 60, 40
2, 24262, Note_on_c, 0, 72, 53
2, 24268, Note_on_c, 0, 51, 0
2, 24273, Note_on_c, 0, 75, 52
2, 24275, Note_on_c, 0, 80, 0
2, 24297, Note_on_c, 0, 60, 0
2, 24297, Note_on_c, 0, 72, 0
2, 24302, Note_on_c, 0, 68, 62
2, 24303, Note_on_c, 0, 63, 62
2, 24310, Note_on_c, 0, 75, 0
2, 24333, Note_on_c, 0, 60, 31
2, 24335, Note_on_c, 0, 68, 0
2, 24337, Note_on_c, 0, 63, 0
2, 24337, Note_on_c, 0, 72, 48
2, 24339, Note_on_c, 0, 51, 49
2, 24343, Note_on_c, 0, 60, 0
2, 24359, Note_on_c, 0, 75, 49
2, 24361, Note_on_c, 0, 72, 0
2, 24368, Note_on_c, 0, 51, 0
2, 24390, Note_on_c, 0, 81, 70
2, 24392, Note_on_c, 0, 39, 82
2, 24394, Note_on_c, 0, 75, 0
2, 24406, Note_on_c, 0, 81, 0
2, 24424, Note_on_c, 0, 72, 51
2, 24435, Note_on_c, 0, 39, 0
2, 24438, Note_on_c, 0, 60, 51
2, 24440, Note_on_c, 0, 75, 34
2, 24445, Note_on_c, 0, 72, 0
2, 24456, Note_on_c, 0, 60, 0
2, 24467, Note_on_c, 0, 69, 52
2, 24471, Note_on_c, 0, 75, 0
2, 24494, Note_on_c, 0, 69, 0
2, 24498, Note_on_c, 0, 72, 52
2, 24510, Note_on_c, 0, 63, 48
2, 24513, Note_on_c, 0, 75, 64
2, 24519, Note_on_c, 0, 72, 0
2, 24536, Note_on_c, 0, 63, 0
2, 24540, Note_on_c, 0, 75, 0
2, 24547, Note_on_c, 0, 60, 51
2, 24559, Note_on_c, 0, 60, 0
2, 24565, Note_on_c, 0, 90, 82
2, 24573, Note_on_c, 0, 51, 46
2, 24581, Note_on_c, 0, 90, 0
2, 24587, Note_on_c, 0, 51, 0
2, 24613, Note_on_c, 0, 60, 3
2, 24613, Note_on_c, 0, 81, 59
2, 24627, Note_on_c, 0, 63, 47
2, 24633, Note_on_c, 0, 60, 0
2, 24636, Note_on_c, 0, 84, 49
2, 24650, Note_on_c, 0, 81, 0
2, 24652, Note_on_c, 0, 63, 0
2, 24657, Note_on_c, 0, 69, 40
2, 24664, Note_on_c, 0, 75, 59
2, 24665, Note_on_c, 0, 84, 0
2, 24676, Note_on_c, 0, 63, 52
2, 24685, Note_on_c, 0, 81, 51
2, 24686, Note_on_c, 0, 69, 0
2, 24691, Note_on_c, 0, 75, 0
2, 24703, Note_on_c, 0, 84, 70
2, 24707, Note_on_c, 0, 60, 43
2, 24711, Note_on_c, 0, 63, 0
2, 24711, Note_on_c, 0, 81, 0
2, 24720, Note_on_c, 0, 84, 0
2, 24723, Note_on_c, 0, 60, 0
2, 24732, Note_on_c, 0, 89, 72
2, 24736, Note_on_c, 0, 51, 75
2, 24747, Note_on_c, 0, 89, 0
2, 24760, Note_on_c, 0, 51, 0
2, 24767, Note_on_c, 0, 58, 43
2, 24772, Note_on_c, 0, 77, 51
2, 24786, Note_on_c, 0, 62, 38
2, 24795, Note_on_c, 0, 80, 60
2, 24802, Note_on_c, 0, 58, 0
2, 24807, Note_on_c, 0, 77, 0
2, 24816, Note_on_c, 0, 62, 0
2, 24821, Note_on_c, 0, 68, 52
2, 24825, Note_on_c, 0, 80, 0
2, 24827, Note_on_c, 0, 70, 53
2, 24857, Note_on_c, 0, 77, 57
2, 24857, Note_on_c, 0, 62, 39
2, 24859, Note_on_c, 0, 68, 0
2, 24860, Note_on_c, 0, 70, 0
2, 24879, Note_on_c, 0, 80, 52
2, 24881, Note_on_c, 0, 77, 0
2, 24889, Note_on_c, 0, 58, 43
2, 24901, Note_on_c, 0, 62, 0
2, 24907, Note_on_c, 0, 51, 71
2, 24908, Note_on_c, 0, 82, 69
2, 24912, Control_c, 0, 64, 0
2, 24914, Note_on_c, 0, 80, 0
2, 24919, Note_on_c, 0, 58, 0
2, 24934, Note_on_c, 0, 58, 57
2, 24940, Note_on_c, 0, 77, 55
2, 24948, Control_c, 0, 64, 127
2, 24949, Note_on_c, 0, 62, 54
2, 24966, Note_on_c, 0, 51, 0
2, 24974, Note_on_c, 0, 80, 50
2, 24981, Note_on_c, 0, 82, 0
2, 24987, Note_on_c, 0, 58, 0
2, 24992, Note_on_c, 0, 77, 0
2, 24997, Note_on_c, 0, 62, 0
2, 25002, Note_on_c, 0, 70, 55
2, 25003, Note_on_c, 0, 68, 46
2, 25009, Note_on_c, 0, 80, 0
2, 25034, Note_on_c, 0, 70, 0
2, 25037, Note_on_c, 0, 77, 50
2, 25042, Note_on_c, 0, 68, 0
2, 25042, Note_on_c, 0, 62, 36
2, 25065, Note_on_c, 0, 80, 56
2, 25068, Note_on_c, 0, 77, 0
2, 25073, Note_on_c, 0, 62, 0
2, 25076, Note_on_c, 0, 58, 43
2, 25092, Note_on_c, 0, 80, 0
2, 25098, Note_on_c, 0, 58, 0
2, 25099, Note_on_c, 0, 85, 56
2, 25102, Note_on_c, 0, 51, 61
2, 25127, Note_on_c, 0, 85, 0
2, 25129, Note_on_c, 0, 76, 53
2, 25133, Note_on_c, 0, 51, 0
2, 25135, Note_on_c, 0, 58, 39
2, 25167, Note_on_c, 0, 61, 29
2, 25169, Note_on_c, 0, 76, 0
2, 25169, Note_on_c, 0, 80, 49
2, 25170, Note_on_c, 0, 58, 0
2, 25204, Note_on_c, 0, 68, 51
2, 25205, Note_on_c, 0, 61, 0
2, 25205, Note_on_c, 0, 70, 51
2, 25206, Note_on_c, 0, 80, 0
2, 25242, Note_on_c, 0, 68, 0
2, 25249, Note_on_c, 0, 76, 50
2, 25254, Note_on_c, 0, 61, 40
2, 25256, Note_on_c, 0, 70, 0
2, 25258, Note_on_c, 0, 76, 0
2, 25285, Note_on_c, 0, 80, 44
2, 25296, Note_on_c, 0, 61, 0
2, 25300, Note_on_c, 0, 58, 48
2, 25303, Note_on_c, 0, 80, 0
2, 25326, Note_on_c, 0, 58, 0
2, 25329, Note_on_c, 0, 79, 69
2, 25333, Note_on_c, 0, 51, 67
2, 25372, Note_on_c, 0, 73, 53
2, 25373, Note_on_c, 0, 79, 0
2, 25377, Note_on_c, 0, 58, 44
2, 25389, Note_on_c, 0, 51, 0
2, 25404, Note_on_c, 0, 61, 46
2, 25418, Note_on_c, 0, 75, 57
2, 25420, Note_on_c, 0, 73, 0
2, 25429, Note_on_c, 0, 58, 0
2, 25463, Note_on_c, 0, 63, 62
2, 25468, Note_on_c, 0, 61, 0
2, 25480, Note_on_c, 0, 75, 0
2, 25515, Note_on_c, 0, 73, 51
2, 25518, Note_on_c, 0, 61, 51
2, 25537, Note_on_c, 0, 63, 0
2, 25570, Note_on_c, 0, 73, 0
2, 25570, Note_on_c, 0, 58, 38
2, 25574, Note_on_c, 0, 75, 38
2, 25582, Note_on_c, 0, 61, 0
2, 25607, Note_on_c, 0, 58, 0
2, 25612, Note_on_c, 0, 75, 0
2, 25677, Note_on_c, 0, 44, 44
2, 25679, Note_on_c, 0, 80, 60
2, 25695, Control_c, 0, 64, 0
2, 25735, Control_c, 0, 64, 127
2, 25746, Note_on_c, 0, 44, 0
2, 25751, Note_on_c, 0, 80, 0
2, 25794, Note_on_c, 0, 68, 41
2, 25799, Note_on_c, 0, 51, 37
2, 25818, Note_on_c, 0, 68, 0
2, 25824, Note_on_c, 0, 72, 39
2, 25834, Note_on_c, 0, 51, 0
2, 25838, Note_on_c, 0, 56, 42
2, 25856, Note_on_c, 0, 72, 0
2, 25861, Note_on_c, 0, 56, 0
2, 25864, Note_on_c, 0, 63, 40
2, 25896, Note_on_c, 0, 68, 50
2, 25899, Note_on_c, 0, 56, 41
2, 25901, Note_on_c, 0, 63, 0
2, 25914, Note_on_c, 0, 68, 0
2, 25930, Note_on_c, 0, 72, 39
2, 25931, Note_on_c, 0, 56, 0
2, 25937, Note_on_c, 0, 51, 30
2, 25951, Note_on_c, 0, 72, 0
2, 25960, Note_on_c, 0, 44, 49
2, 25961, Note_on_c, 0, 75, 58
2, 25964, Note_on_c, 0, 51, 0
2, 25989, Note_on_c, 0, 44, 0
2, 25991, Note_on_c, 0, 68, 49
2, 25998, Note_on_c, 0, 51, 47
2, 26026, Note_on_c, 0, 75, 0
2, 26030, Note_on_c, 0, 68, 0
2, 26031, Note_on_c, 0, 56, 41
2, 26033, Note_on_c, 0, 51, 0
2, 26033, Note_on_c, 0, 72, 35
2, 26053, Note_on_c, 0, 56, 0
2, 26056, Note_on_c, 0, 63, 46
2, 26059, Note_on_c, 0, 72, 0
2, 26060, Note_on_c, 0, 60, 36
2, 26072, Note_on_c, 0, 63, 0
2, 26090, Note_on_c, 0, 60, 0
2, 26090, Note_on_c, 0, 68, 49
2, 26092, Note_on_c, 0, 56, 41
2, 26114, Note_on_c, 0, 68, 0
2, 26115, Note_on_c, 0, 51, 35
2, 26116, Note_on_c, 0, 72, 35
2, 26124, Note_on_c, 0, 56, 0
2, 26134, Note_on_c, 0, 51, 0
2, 26138, Note_on_c, 0, 44, 49
2, 26141, Note_on_c, 0, 75, 59
2, 26146, Note_on_c, 0, 72, 0
2, 26162, Note_on_c, 0, 44, 0
2, 26167, Note_on_c, 0, 68, 52
2, 26172, Note_on_c, 0, 51, 44
2, 26181, Note_on_c, 0, 75, 0
2, 26193, Note_on_c, 0, 68, 0
2, 26194, Note_on_c, 0, 56, 49
2, 26196, Note_on_c, 0, 72, 38
2, 26200, Note_on_c, 0, 51, 0
2, 26219, Note_on_c, 0, 56, 0
2, 26223, Note_on_c, 0, 63, 48
2, 26224, Note_on_c, 0, 60, 39
2, 26225, Note_on_c, 0, 72, 0
2, 26244, Note_on_c, 0, 63, 0
2, 26255, Note_on_c, 0, 60, 0
2, 26256, Note_on_c, 0, 56, 30
2, 26256, Note_on_c, 0, 68, 44
2, 26269, Note_on_c, 0, 56, 0
2, 26277, Note_on_c, 0, 51, 48
2, 26283, Note_on_c, 0, 72, 41
2, 26290, Note_on_c, 0, 68, 0
2, 26296, Note_on_c, 0, 51, 0
2, 26297, Note_on_c, 0, 44, 43
2, 26307, Note_on_c, 0, 75, 60
2, 26308, Note_on_c, 0, 72, 0
2, 26321, Note_on_c, 0, 44, 0
2, 26332, Note_on_c, 0, 51, 49
2, 26332, Note_on_c, 0, 68, 48
2, 26341, Note_on_c, 0, 75, 0
2, 26351, Note_on_c, 0, 56, 52
2, 26357, Note_on_c, 0, 51, 0
2, 26365, Note_on_c, 0, 72, 26
2, 26368, Note_on_c, 0, 68, 0
2, 26377, Note_on_c, 0, 56, 0
2, 26383, Note_on_c, 0, 63, 49
2, 26385, Note_on_c, 0, 72, 0
2, 26385, Note_on_c, 0, 60, 41
2, 26407, Note_on_c, 0, 63, 0
2, 26412, Note_on_c, 0, 68, 49
2, 26415, Note_on_c, 0, 56, 46
2, 26416, Note_on_c, 0, 60, 0
2, 26437, Note_on_c, 0, 68, 0
2, 26443, Note_on_c, 0, 51, 47
2, 26443, Note_on_c, 0, 72, 11
2, 26448, Note_on_c, 0, 56, 0
2, 26462, Note_on_c, 0, 51, 0
2, 26466, Note_on_c, 0, 72, 0
2, 26467, Note_on_c, 0, 44, 52
2, 26468, Note_on_c, 0, 77, 60
2, 26490, Note_on_c, 0, 44, 0
2, 26495, Note_on_c, 0, 77, 0
2, 26498, Note_on_c, 0, 51, 29
2, 26503, Note_on_c, 0, 70, 31
2, 26507, Note_on_c, 0, 51, 0
2, 26516, Note_on_c, 0, 55, 39
2, 26534, Note_on_c, 0, 73, 40
2, 26542, Note_on_c, 0, 70, 0
2, 26546, Note_on_c, 0, 55, 0
2, 26553, Note_on_c, 0, 61, 49
2, 26558, Note_on_c, 0, 63, 53
2, 26562, Note_on_c, 0, 73, 0
2, 26577, Note_on_c, 0, 61, 0
2, 26584, Note_on_c, 0, 55, 34
2, 26584, Note_on_c, 0, 70, 46
2, 26589, Note_on_c, 0, 63, 0
2, 26596, Note_on_c, 0, 55, 0
2, 26604, Note_on_c, 0, 73, 55
2, 26613, Note_on_c, 0, 51, 48
2, 26619, Note_on_c, 0, 70, 0
2, 26627, Note_on_c, 0, 44, 61
2, 26630, Note_on_c, 0, 75, 60
2, 26631, Note_on_c, 0, 73, 0
2, 26635, Note_on_c, 0, 51, 0
2, 26651, Note_on_c, 0, 44, 0
2, 26659, Note_on_c, 0, 70, 52
2, 26663, Note_on_c, 0, 55, 47
2, 26668, Note_on_c, 0, 75, 0
2, 26681, Note_on_c, 0, 73, 49
2, 26690, Note_on_c, 0, 70, 0
2, 26697, Note_on_c, 0, 55, 0
2, 26702, Note_on_c, 0, 73, 0
2, 26704, Note_on_c, 0, 61, 46
2, 26707, Note_on_c, 0, 63, 49
2, 26727, Note_on_c, 0, 61, 0
2, 26729, Note_on_c, 0, 63, 0
2, 26732, Note_on_c, 0, 70, 42
2, 26739, Note_on_c, 0, 55, 36
2, 26751, Note_on_c, 0, 70, 0
2, 26751, Note_on_c, 0, 73, 59
2, 26755, Note_on_c, 0, 55, 0
2, 26767, Note_on_c, 0, 51, 44
2, 26770, Note_on_c, 0, 73, 0
2, 26785, Note_on_c, 0, 51, 0
2, 26789, Note_on_c, 0, 44, 65
2, 26793, Note_on_c, 0, 84, 65
2, 26809, Note_on_c, 0, 51, 51
2, 26814, Note_on_c, 0, 44, 0
2, 26828, Note_on_c, 0, 70, 37
2, 26830, Note_on_c, 0, 84, 0
2, 26830, Note_on_c, 0, 51, 0
2, 26834, Note_on_c, 0, 55, 35
2, 26850, Note_on_c, 0, 73, 52
2, 26855, Note_on_c, 0, 70, 0
2, 26863, Note_on_c, 0, 55, 0
2, 26866, Note_on_c, 0, 73, 0
2, 26874, Note_on_c, 0, 61, 38
2, 26877, Note_on_c, 0, 63, 60
2, 26899, Note_on_c, 0, 61, 0
2, 26906, Note_on_c, 0, 63, 0
2, 26906, Note_on_c, 0, 55, 27
2, 26909, Note_on_c, 0, 70, 37
2, 26924, Note_on_c, 0, 55, 0
2, 26930, Note_on_c, 0, 73, 55
2, 26936, Note_on_c, 0, 70, 0
2, 26944, Note_on_c, 0, 51, 31
2, 26958, Note_on_c, 0, 73, 0
2, 26958, Note_on_c, 0, 51, 0
2, 26961, Note_on_c, 0, 44, 62
2, 26962, Note_on_c, 0, 79, 64
2, 26980, Note_on_c, 0, 44, 0
2, 26989, Note_on_c, 0, 79, 0
2, 26989, Note_on_c, 0, 51, 28
2, 26998, Note_on_c, 0, 70, 37
2, 27004, Note_on_c, 0, 51, 0
2, 27009, Note_on_c, 0, 55, 34
2, 27023, Note_on_c, 0, 73, 40
2, 27029, Note_on_c, 0, 70, 0
2, 27038, Note_on_c, 0, 55, 0
2, 27048, Note_on_c, 0, 61, 42
2, 27051, Note_on_c, 0, 73, 0
2, 27056, Note_on_c, 0, 63, 41
2, 27084, Note_on_c, 0, 61, 0
2, 27087, Note_on_c, 0, 63, 0
2, 27091, Note_on_c, 0, 70, 37
2, 27094, Note_on_c, 0, 55, 17
2, 27108, Note_on_c, 0, 70, 0
2, 27117, Note_on_c, 0, 73, 50
2, 27123, Note_on_c, 0, 51, 49
2, 27127, Note_on_c, 0, 55, 0
2, 27146, Note_on_c, 0, 73, 0
2, 27151, Note_on_c, 0, 44, 41
2, 27152, Note_on_c, 0, 80, 70
2, 27156, Note_on_c, 0, 51, 0
2, 27169, Control_c, 0, 64, 0
2, 27171, Control_c, 0, 64, 127
2, 27175, Note_on_c, 0, 44, 0
2, 27189, Note_on_c, 0, 80, 0
2, 27196, Note_on_c, 0, 51, 40
2, 27203, Note_on_c, 0, 68, 49
2, 27227, Note_on_c, 0, 56, 41
2, 27228, Note_on_c, 0, 51, 0
2, 27228, Note_on_c, 0, 68, 0
2, 27245, Note_on_c, 0, 72, 37
2, 27255, Note_on_c, 0, 56, 0
2, 27260, Note_on_c, 0, 63, 51
2, 27264, Note_on_c, 0, 72, 0
2, 27264, Note_on_c, 0, 60, 34
2, 27281, Note_on_c, 0, 63, 0
2, 27289, Note_on_c, 0, 60, 0
2, 27291, Note_on_c, 0, 56, 46
2, 27295, Note_on_c, 0, 68, 46
2, 27311, Note_on_c, 0, 56, 0
2, 27317, Note_on_c, 0, 51, 50
2, 27319, Note_on_c, 0, 72, 46
2, 27325, Note_on_c, 0, 68, 0
2, 27339, Note_on_c, 0, 51, 0
2, 27345, Note_on_c, 0, 75, 62
2, 27346, Note_on_c, 0, 72, 0
2, 27347, Note_on_c, 0, 44, 57
2, 27371, Note_on_c, 0, 75, 0
2, 27372, Note_on_c, 0, 68, 55
2, 27378, Note_on_c, 0, 51, 51
2, 27397, Note_on_c, 0, 44, 0
2, 27402, Note_on_c, 0, 56, 47
2, 27403, Note_on_c, 0, 72, 33
2, 27405, Note_on_c, 0, 68, 0
2, 27407, Note_on_c, 0, 51, 0
2, 27423, Note_on_c, 0, 56, 0
2, 27427, Note_on_c, 0, 63, 46
2, 27429, Note_on_c, 0, 72, 0
2, 27431, Note_on_c, 0, 60, 32
2, 27444, Note_on_c, 0, 63, 0
2, 27454, Note_on_c, 0, 60, 0
2, 27456, Note_on_c, 0, 68, 42
2, 27457, Note_on_c, 0, 56, 38
2, 27467, Note_on_c, 0, 68, 0
2, 27476, Note_on_c, 0, 51, 39
2, 27478, Note_on_c, 0, 72, 46
2, 27485, Note_on_c, 0, 56, 0
2, 27502, Note_on_c, 0, 51, 0
2, 27505, Note_on_c, 0, 75, 60
2, 27506, Note_on_c, 0, 44, 57
2, 27510, Note_on_c, 0, 72, 0
2, 27531, Note_on_c, 0, 75, 0
2, 27535, Note_on_c, 0, 68, 42
2, 27545, Note_on_c, 0, 51, 34
2, 27561, Note_on_c, 0, 72, 37
2, 27565, Note_on_c, 0, 56, 49
2, 27567, Note_on_c, 0, 44, 0
2, 27567, Note_on_c, 0, 68, 0
2, 27572, Note_on_c, 0, 51, 0
2, 27584, Note_on_c, 0, 63, 51
2, 27588, Note_on_c, 0, 72, 0
2, 27590, Note_on_c, 0, 56, 0
2, 27592, Note_on_c, 0, 60, 32
2, 27604, Note_on_c, 0, 63, 0
2, 27615, Note_on_c, 0, 68, 41
2, 27619, Note_on_c, 0, 56, 33
2, 27620, Note_on_c, 0, 60, 0
2, 27636, Note_on_c, 0, 68, 0
2, 27642, Note_on_c, 0, 72, 44
2, 27645, Note_on_c, 0, 51, 48
2, 27653, Note_on_c, 0, 56, 0
2, 27663, Note_on_c, 0, 72, 0
2, 27667, Note_on_c, 0, 75, 57
2, 27670, Note_on_c, 0, 51, 0
2, 27670, Note_on_c, 0, 44, 40
2, 27692, Note_on_c, 0, 75, 0
2, 27696, Note_on_c, 0, 68, 47
2, 27699, Note_on_c, 0, 51, 49
2, 27721, Note_on_c, 0, 44, 0
2, 27721, Note_on_c, 0, 56, 53
2, 27725, Note_on_c, 0, 68, 0
2, 27725, Note_on_c, 0, 72, 40
2, 27737, Note_on_c, 0, 51, 0
2, 27748, Note_on_c, 0, 56, 0
2, 27753, Note_on_c, 0, 63, 46
2, 27757, Note_on_c, 0, 72, 0
2, 27759, Note_on_c, 0, 60, 28
2, 27773, Note_on_c, 0, 63, 0
2, 27781, Note_on_c, 0, 56, 40
2, 27785, Note_on_c, 0, 68, 47
2, 27787, Note_on_c, 0, 60, 0
2, 27805, Note_on_c, 0, 56, 0
2, 27813, Note_on_c, 0, 72, 41
2, 27816, Note_on_c, 0, 51, 38
2, 27822, Note_on_c, 0, 68, 0
2, 27837, Note_on_c, 0, 72, 0
2, 27841, Note_on_c, 0, 44, 52
2, 27845, Note_on_c, 0, 77, 54
2, 27847, Note_on_c, 0, 51, 0
2, 27853, Control_c, 0, 64, 0
2, 27859, Control_c, 0, 64, 127
2, 27869, Note_on_c, 0, 44, 0
2, 27875, Note_on_c, 0, 51, 42
2, 27878, Note_on_c, 0, 77, 0
2, 27882, Note_on_c, 0, 70, 30
2, 27885, Note_on_c, 0, 51, 0
2, 27896, Note_on_c, 0, 55, 32
2, 27910, Note_on_c, 0, 73, 48
2, 27922, Note_on_c, 0, 70, 0
2, 27922, Note_on_c, 0, 55, 0
2, 27929, Note_on_c, 0, 61, 47
2, 27939, Note_on_c, 0, 63, 42
2, 27942, Note_on_c, 0, 73, 0
2, 27958, Note_on_c, 0, 61, 0
2, 27967, Note_on_c, 0, 70, 41
2, 27967, Note_on_c, 0, 55, 22
2, 27973, Note_on_c, 0, 63, 0
2, 27982, Note_on_c, 0, 70, 0
2, 27991, Note_on_c, 0, 73, 50
2, 28000, Note_on_c, 0, 51, 40
2, 28008, Note_on_c, 0, 55, 0
2, 28012, Note_on_c, 0, 73, 0
2, 28016, Note_on_c, 0, 44, 50
2, 28019, Note_on_c, 0, 75, 55
2, 28022, Note_on_c, 0, 51, 0
2, 28044, Note_on_c, 0, 44, 0
2, 28052, Note_on_c, 0, 51, 27
2, 28055, Note_on_c, 0, 70, 29
2, 28064, Note_on_c, 0, 75, 0
2, 28067, Note_on_c, 0, 55, 34
2, 28070, Note_on_c, 0, 51, 0
2, 28077, Note_on_c, 0, 73, 46
2, 28096, Note_on_c, 0, 70, 0
2, 28099, Note_on_c, 0, 55, 0
2, 28107, Note_on_c, 0, 73, 0
2, 28107, Note_on_c, 0, 61, 46
2, 28111, Note_on_c, 0, 63, 47
2, 28135, Note_on_c, 0, 61, 0
2, 28139, Note_on_c, 0, 63, 0
2, 28144, Note_on_c, 0, 55, 32
2, 28146, Note_on_c, 0, 70, 39
2, 28164, Note_on_c, 0, 73, 57
2, 28168, Note_on_c, 0, 55, 0
2, 28170, Note_on_c, 0, 70, 0
2, 28177, Note_on_c, 0, 51, 47
2, 28180, Note_on_c, 0, 73, 0
2, 28195, Note_on_c, 0, 51, 0
2, 28205, Note_on_c, 0, 44, 55
2, 28213, Note_on_c, 0, 89, 64
2, 28221, Note_on_c, 0, 44, 0
2, 28235, Note_on_c, 0, 89, 0
2, 28240, Note_on_c, 0, 51, 33
2, 28251, Note_on_c, 0, 51, 0
2, 28262, Note_on_c, 0, 55, 36
2, 28296, Note_on_c, 0, 55, 0
2, 28311, Note_on_c, 0, 61, 43
2, 28322, Note_on_c, 0, 63, 47
2, 28338, Note_on_c, 0, 61, 0
2, 28349, Note_on_c, 0, 63, 0
2, 28351, Note_on_c, 0, 70, 38
2, 28351, Note_on_c, 0, 55, 17
2, 28362, Note_on_c, 0, 70, 0
2, 28376, Note_on_c, 0, 73, 42
2, 28380, Note_on_c, 0, 55, 0
2, 28385, Note_on_c, 0, 51, 32
2, 28399, Note_on_c, 0, 73, 0
2, 28403, Note_on_c, 0, 44, 53
2, 28407, Note_on_c, 0, 51, 0
2, 28407, Note_on_c, 0, 79, 59
2, 28425, Note_on_c, 0, 44, 0
2, 28429, Note_on_c, 0, 79, 0
2, 28440, Note_on_c, 0, 51, 32
2, 28446, Note_on_c, 0, 70, 39
2, 28466, Note_on_c, 0, 51, 0
2, 28476, Note_on_c, 0, 55, 30
2, 28479, Note_on_c, 0, 73, 29
2, 28482, Note_on_c, 0, 70, 0
2, 28506, Note_on_c, 0, 55, 0
2, 28507, Note_on_c, 0, 61, 34
2, 28508, Note_on_c, 0, 63, 43
2, 28511, Note_on_c, 0, 73, 0
2, 28533, Note_on_c, 0, 61, 0
2, 28538, Note_on_c, 0, 63, 0
2, 28543, Note_on_c, 0, 70, 35
2, 28544, Note_on_c, 0, 55, 30
2, 28569, Note_on_c, 0, 73, 43
2, 28579, Note_on_c, 0, 70, 0
2, 28580, Note_on_c, 0, 55, 0
2, 28581, Note_on_c, 0, 51, 47
2, 28610, Note_on_c, 0, 73, 0
2, 28617, Note_on_c, 0, 44, 44
2, 28620, Note_on_c, 0, 80, 60
2, 28629, Note_on_c, 0, 51, 0
2, 28651, Note_on_c, 0, 44, 0
2, 28661, Note_on_c, 0, 80, 0
2, 28676, Note_on_c, 0, 51, 29
2, 28684, Note_on_c, 0, 68, 43
2, 28704, Note_on_c, 0, 51, 0
2, 28704, Note_on_c, 0, 56, 40
2, 28707, Note_on_c, 0, 68, 0
2, 28714, Note_on_c, 0, 72, 38
2, 28727, Note_on_c, 0, 56, 0
2, 28737, Note_on_c, 0, 63, 40
2, 28738, Note_on_c, 0, 60, 18
2, 28739, Note_on_c, 0, 72, 0
2, 28755, Note_on_c, 0, 63, 0
2, 28767, Note_on_c, 0, 56, 35
2, 28769, Note_on_c, 0, 60, 0
2, 28771, Note_on_c, 0, 68, 41
2, 28778, Note_on_c, 0, 56, 0
2, 28794, Note_on_c, 0, 72, 36
2, 28800, Note_on_c, 0, 68, 0
2, 28800, Note_on_c, 0, 51, 35
2, 28818, Note_on_c, 0, 72, 0
2, 28825, Note_on_c, 0, 75, 53
2, 28827, Note_on_c, 0, 51, 0
2, 28828, Note_on_c, 0, 44, 48
2, 28850, Note_on_c, 0, 75, 0
2, 28853, Note_on_c, 0, 68, 48
2, 28865, Note_on_c, 0, 51, 31
2, 28883, Note_on_c, 0, 44, 0
2, 28885, Note_on_c, 0, 72, 39
2, 28888, Note_on_c, 0, 56, 41
2, 28892, Note_on_c, 0, 68, 0
2, 28899, Note_on_c, 0, 51, 0
2, 28905, Note_on_c, 0, 72, 0
2, 28915, Note_on_c, 0, 56, 0
2, 28915, Note_on_c, 0, 60, 35
2, 28915, Note_on_c, 0, 63, 44
2, 28927, Note_on_c, 0, 60, 0
2, 28939, Note_on_c, 0, 63, 0
2, 28944, Note_on_c, 0, 68, 43
2, 28946, Note_on_c, 0, 56, 37
2, 28956, Note_on_c, 0, 68, 0
2, 28964, Note_on_c, 0, 72, 44
2, 28969, Note_on_c, 0, 51, 46
2, 28973, Note_on_c, 0, 56, 0
2, 28993, Note_on_c, 0, 77, 62
2, 28996, Note_on_c, 0, 72, 0
2, 28996, Note_on_c, 0, 51, 0
2, 28998, Note_on_c, 0, 44, 49
2, 29011, Note_on_c, 0, 77, 0
2, 29022, Note_on_c, 0, 68, 57
2, 29025, Note_on_c, 0, 44, 0
2, 29034, Note_on_c, 0, 51, 43
2, 29046, Note_on_c, 0, 68, 0
2, 29055, Note_on_c, 0, 72, 45
2, 29055, Note_on_c, 0, 56, 46
2, 29058, Note_on_c, 0, 51, 0
2, 29070, Note_on_c, 0, 72, 0
2, 29079, Note_on_c, 0, 60, 46
2, 29082, Note_on_c, 0, 56, 0
2, 29085, Note_on_c, 0, 63, 48
2, 29095, Note_on_c, 0, 60, 0
2, 29110, Note_on_c, 0, 56, 46
2, 29114, Note_on_c, 0, 63, 0
2, 29115, Note_on_c, 0, 68, 41
2, 29126, Note_on_c, 0, 56, 0
2, 29137, Note_on_c, 0, 72, 49
2, 29137, Note_on_c, 0, 51, 43
2, 29143, Note_on_c, 0, 68, 0
2, 29148, Note_on_c, 0, 72, 0
2, 29160, Note_on_c, 0, 44, 47
2, 29165, Note_on_c, 0, 75, 59
2, 29168, Note_on_c, 0, 51, 0
2, 29186, Note_on_c, 0, 44, 0
2, 29191, Note_on_c, 0, 51, 53
2, 29198, Note_on_c, 0, 68, 49
2, 29214, Note_on_c, 0, 75, 0
2, 29215, Note_on_c, 0, 51, 0
2, 29216, Note_on_c, 0, 56, 44
2, 29222, Note_on_c, 0, 72, 45
2, 29234, Note_on_c, 0, 68, 0
2, 29234, Note_on_c, 0, 56, 0
2, 29243, Note_on_c, 0, 60, 37
2, 29247, Note_on_c, 0, 63, 51
2, 29250, Note_on_c, 0, 72, 0
2, 29261, Note_on_c, 0, 60, 0
2, 29270, Note_on_c, 0, 56, 46
2, 29279, Note_on_c, 0, 68, 51
2, 29282, Note_on_c, 0, 63, 0
2, 29286, Note_on_c, 0, 56, 0
2, 29291, Note_on_c, 0, 51, 51
2, 29300, Note_on_c, 0, 68, 0
2, 29305, Note_on_c, 0, 72, 48
2, 29319, Note_on_c, 0, 51, 0
2, 29336, Note_on_c, 0, 72, 0
2, 29338, Note_on_c, 0, 73, 73
2, 29342, Note_on_c, 0, 39, 48
2, 29349, Note_on_c, 0, 73, 0
2, 29361, Note_on_c, 0, 39, 0
2, 29380, Note_on_c, 0, 44, 42
2, 29380, Note_on_c, 0, 63, 48
2, 29392, Note_on_c, 0, 44, 0
2, 29400, Note_on_c, 0, 51, 52
2, 29400, Note_on_c, 0, 68, 33
2, 29409, Note_on_c, 0, 63, 0
2, 29428, Note_on_c, 0, 51, 0
2, 29431, Note_on_c, 0, 68, 0
2, 29432, Note_on_c, 0, 56, 38
2, 29434, Note_on_c, 0, 61, 56
2, 29453, Note_on_c, 0, 56, 0
2, 29459, Note_on_c, 0, 63, 57
2, 29460, Note_on_c, 0, 51, 52
2, 29467, Note_on_c, 0, 61, 0
2, 29479, Note_on_c, 0, 68, 52
2, 29488, Note_on_c, 0, 44, 52
2, 29489, Note_on_c, 0, 63, 0
2, 29492, Note_on_c, 0, 51, 0
2, 29507, Note_on_c, 0, 68, 0
2, 29509, Note_on_c, 0, 44, 0
2, 29510, Note_on_c, 0, 72, 65
2, 29514, Note_on_c, 0, 39, 39
2, 29533, Note_on_c, 0, 72, 0
2, 29535, Note_on_c, 0, 39, 0
2, 29545, Note_on_c, 0, 63, 49
2, 29552, Note_on_c, 0, 44, 42
2, 29561, Note_on_c, 0, 63, 0
2, 29562, Note_on_c, 0, 68, 42
2, 29572, Note_on_c, 0, 51, 40
2, 29574, Note_on_c, 0, 44, 0
2, 29590, Note_on_c, 0, 68, 0
2, 29596, Note_on_c, 0, 51, 0
2, 29597, Note_on_c, 0, 56, 55
2, 29598, Note_on_c, 0, 60, 52
2, 29621, Note_on_c, 0, 51, 49
2, 29623, Note_on_c, 0, 56, 0
2, 29623, Note_on_c, 0, 63, 48
2, 29625, Note_on_c, 0, 60, 0
2, 29642, Note_on_c, 0, 51, 0
2, 29644, Note_on_c, 0, 68, 52
2, 29650, Note_on_c, 0, 44, 33
2, 29655, Note_on_c, 0, 63, 0
2, 29666, Note_on_c, 0, 68, 0
2, 29676, Note_on_c, 0, 39, 56
2, 29677, Note_on_c, 0, 44, 0
2, 29678, Note_on_c, 0, 73, 68
2, 29703, Note_on_c, 0, 39, 0
2, 29712, Note_on_c, 0, 44, 42
2, 29713, Note_on_c, 0, 63, 44
2, 29718, Note_on_c, 0, 73, 0
2, 29724, Note_on_c, 0, 44, 0
2, 29726, Note_on_c, 0, 68, 41
2, 29738, Note_on_c, 0, 51, 37
2, 29750, Note_on_c, 0, 63, 0
2, 29750, Note_on_c, 0, 68, 0
2, 29760, Note_on_c, 0, 51, 0
2, 29768, Note_on_c, 0, 61, 51
2, 29769, Note_on_c, 0, 56, 37
2, 29789, Note_on_c, 0, 61, 0
2, 29789, Note_on_c, 0, 56, 0
2, 29790, Note_on_c, 0, 51, 53
2, 29793, Note_on_c, 0, 63, 53
2, 29810, Note_on_c, 0, 51, 0
2, 29817, Note_on_c, 0, 68, 58
2, 29819, Note_on_c, 0, 44, 31
2, 29827, Note_on_c, 0, 63, 0
2, 29835, Note_on_c, 0, 68, 0
2, 29843, Note_on_c, 0, 39, 56
2, 29849, Note_on_c, 0, 44, 0
2, 29850, Note_on_c, 0, 72, 54
2, 29870, Note_on_c, 0, 39, 0
2, 29879, Note_on_c, 0, 44, 34
2, 29880, Note_on_c, 0, 63, 43
2, 29887, Note_on_c, 0, 72, 0
2, 29904, Note_on_c, 0, 68, 31
2, 29905, Note_on_c, 0, 51, 52
2, 29907, Note_on_c, 0, 44, 0
2, 29915, Note_on_c, 0, 63, 0
2, 29918, Note_on_c, 0, 68, 0
2, 29936, Note_on_c, 0, 56, 56
2, 29940, Note_on_c, 0, 60, 52
2, 29946, Note_on_c, 0, 51, 0
2, 29962, Note_on_c, 0, 56, 0
2, 29970, Note_on_c, 0, 44, 44
2, 29974, Note_on_c, 0, 63, 43
2, 29981, Note_on_c, 0, 60, 0
2, 29984, Note_on_c, 0, 44, 0
2, 29992, Note_on_c, 0, 68, 46
2, 30000, Note_on_c, 0, 39, 34
2, 30004, Note_on_c, 0, 63, 0
2, 30024, Note_on_c, 0, 68, 0
2, 30027, Note_on_c, 0, 70, 70
2, 30028, Note_on_c, 0, 39, 0
2, 30033, Note_on_c, 0, 32, 54
2, 30041, Note_on_c, 0, 70, 0
2, 30056, Note_on_c, 0, 32, 0
2, 30056, Note_on_c, 0, 60, 43
2, 30060, Note_on_c, 0, 39, 33
2, 30080, Note_on_c, 0, 63, 43
2, 30080, Note_on_c, 0, 44, 50
2, 30082, Note_on_c, 0, 60, 0
2, 30088, Note_on_c, 0, 39, 0
2, 30106, Note_on_c, 0, 63, 0
2, 30112, Note_on_c, 0, 44, 0
2, 30116, Note_on_c, 0, 51, 55
2, 30122, Note_on_c, 0, 58, 55
2, 30139, Note_on_c, 0, 44, 41
2, 30142, Note_on_c, 0, 51, 0
2, 30150, Note_on_c, 0, 58, 0
2, 30153, Note_on_c, 0, 60, 42
2, 30154, Note_on_c, 0, 44, 0
2, 30170, Note_on_c, 0, 63, 53
2, 30172, Note_on_c, 0, 39, 33
2, 30180, Note_on_c, 0, 60, 0
2, 30194, Note_on_c, 0, 63, 0
2, 30196, Note_on_c, 0, 32, 60
2, 30197, Note_on_c, 0, 68, 65
2, 30201, Note_on_c, 0, 39, 0
2, 30223, Note_on_c, 0, 32, 0
2, 30233, Note_on_c, 0, 60, 45
2, 30237, Note_on_c, 0, 39, 33
2, 30244, Note_on_c, 0, 68, 0
2, 30244, Note_on_c, 0, 63, 42
2, 30259, Note_on_c, 0, 60, 0
2, 30259, Note_on_c, 0, 44, 37
2, 30268, Note_on_c, 0, 39, 0
2, 30273, Note_on_c, 0, 63, 0
2, 30274, Note_on_c, 0, 44, 0
2, 30276, Note_on_c, 0, 56, 55
2, 30284, Note_on_c, 0, 51, 52
2, 30305, Note_on_c, 0, 56, 0
2, 30305, Note_on_c, 0, 51, 0
2, 30308, Note_on_c, 0, 60, 37
2, 30310, Note_on_c, 0, 44, 43
2, 30321, Note_on_c, 0, 60, 0
2, 30330, Note_on_c, 0, 63, 51
2, 30338, Note_on_c, 0, 44, 0
2, 30340, Note_on_c, 0, 39, 32
2, 30352, Note_on_c, 0, 63, 0
2, 30360, Note_on_c, 0, 32, 53
2, 30361, Note_on_c, 0, 70, 61
2, 30363, Note_on_c, 0, 39, 0
2, 30381, Note_on_c, 0, 32, 0
2, 30389, Note_on_c, 0, 70, 0
2, 30402, Note_on_c, 0, 60, 36
2, 30407, Note_on_c, 0, 39, 38
2, 30408, Note_on_c, 0, 63, 41
2, 30419, Note_on_c, 0, 60, 0
2, 30423, Note_on_c, 0, 39, 0
2, 30426, Note_on_c, 0, 44, 37
2, 30438, Note_on_c, 0, 63, 0
2, 30442, Note_on_c, 0, 58, 53
2, 30443, Note_on_c, 0, 44, 0
2, 30447, Note_on_c, 0, 51, 44
2, 30469, Note_on_c, 0, 58, 0
2, 30470, Note_on_c, 0, 51, 0
2, 30473, Note_on_c, 0, 60, 38
2, 30476, Note_on_c, 0, 44, 39
2, 30485, Note_on_c, 0, 60, 0
2, 30493, Note_on_c, 0, 63, 49
2, 30497, Note_on_c, 0, 39, 37
2, 30502, Note_on_c, 0, 44, 0
2, 30510, Note_on_c, 0, 63, 0
2, 30518, Note_on_c, 0, 68, 61
2, 30522, Note_on_c, 0, 39, 0
2, 30523, Note_on_c, 0, 32, 47
2, 30542, Note_on_c, 0, 68, 0
2, 30558, Note_on_c, 0, 60, 38
2, 30562, Note_on_c, 0, 39, 19
2, 30569, Note_on_c, 0, 32, 0
2, 30571, Note_on_c, 0, 63, 41
2, 30574, Note_on_c, 0, 60, 0
2, 30579, Note_on_c, 0, 44, 41
2, 30593, Note_on_c, 0, 39, 0
2, 30602, Note_on_c, 0, 63, 0
2, 30607, Note_on_c, 0, 56, 59
2, 30610, Note_on_c, 0, 51, 48
2, 30611, Note_on_c, 0, 44, 0
2, 30632, Note_on_c, 0, 56, 0
2, 30636, Note_on_c, 0, 51, 0
2, 30636, Note_on_c, 0, 60, 40
2, 30641, Note_on_c, 0, 44, 39
2, 30651, Note_on_c, 0, 60, 0
2, 30660, Note_on_c, 0, 63, 55
2, 30665, Note_on_c, 0, 39, 38
2, 30669, Note_on_c, 0, 44, 0
2, 30681, Note_on_c, 0, 63, 0
2, 30688, Note_on_c, 0, 32, 50
2, 30692, Note_on_c, 0, 70, 57
2, 30694, Note_on_c, 0, 39, 0
2, 30714, Note_on_c, 0, 32, 0
2, 30723, Note_on_c, 0, 70, 0
2, 30723, Note_on_c, 0, 60, 38
2, 30729, Note_on_c, 0, 39, 20
2, 30733, Note_on_c, 0, 63, 39
2, 30742, Note_on_c, 0, 60, 0
2, 30748, Note_on_c, 0, 44, 34
2, 30764, Note_on_c, 0, 39, 0
2, 30767, Note_on_c, 0, 63, 0
2, 30767, Note_on_c, 0, 58, 46
2, 30768, Note_on_c, 0, 44, 0
2, 30776, Note_on_c, 0, 51, 41
2, 30798, Note_on_c, 0, 58, 0
2, 30800, Note_on_c, 0, 51, 0
2, 30803, Note_on_c, 0, 60, 41
2, 30808, Note_on_c, 0, 44, 30
2, 30819, Note_on_c, 0, 60, 0
2, 30826, Note_on_c, 0, 63, 51
2, 30828, Note_on_c, 0, 39, 20
2, 30838, Note_on_c, 0, 44, 0
2, 30841, Note_on_c, 0, 63, 0
2, 30852, Note_on_c, 0, 68, 59
2, 30853, Note_on_c, 0, 32, 56
2, 30857, Note_on_c, 0, 39, 0
2, 30874, Note_on_c, 0, 68, 0
2, 30896, Note_on_c, 0, 39, 20
2, 30897, Note_on_c, 0, 60, 29
2, 30903, Note_on_c, 0, 32, 0
2, 30905, Note_on_c, 0, 63, 41
2, 30911, Note_on_c, 0, 39, 0
2, 30920, Note_on_c, 0, 44, 26
2, 30932, Note_on_c, 0, 60, 0
2, 30936, Note_on_c, 0, 63, 0
2, 30940, Note_on_c, 0, 44, 0
2, 30941, Note_on_c, 0, 56, 50
2, 30946, Note_on_c, 0, 51, 42
2, 30970, Note_on_c, 0, 56, 0
2, 30974, Note_on_c, 0, 51, 0
2, 30977, Note_on_c, 0, 60, 36
2, 30981, Note_on_c, 0, 44, 37
2, 30996, Note_on_c, 0, 60, 0
2, 30998, Note_on_c, 0, 63, 49
2, 31009, Note_on_c, 0, 44, 0
2, 31009, Note_on_c, 0, 39, 33
2, 31023, Note_on_c, 0, 63, 0
2, 31031, Note_on_c, 0, 70, 49
2, 31031, Note_on_c, 0, 32, 50
2, 31035, Note_on_c, 0, 39, 0
2, 31051, Note_on_c, 0, 70, 0
2, 31068, Note_on_c, 0, 32, 0
2, 31073, Note_on_c, 0, 60, 48
2, 31074, Note_on_c, 0, 39, 11
2, 31087, Note_on_c, 0, 60, 0
2, 31097, Note_on_c, 0, 44, 23
2, 31099, Note_on_c, 0, 63, 43
2, 31106, Note_on_c, 0, 39, 0
2, 31110, Note_on_c, 0, 44, 0
2, 31121, Note_on_c, 0, 51, 46
2, 31125, Note_on_c, 0, 58, 44
2, 31130, Note_on_c, 0, 63, 0
2, 31148, Note_on_c, 0, 51, 0
2, 31158, Note_on_c, 0, 44, 21
2, 31160, Note_on_c, 0, 58, 0
2, 31163, Note_on_c, 0, 60, 28
2, 31170, Note_on_c, 0, 44, 0
2, 31184, Note_on_c, 0, 63, 49
2, 31184, Note_on_c, 0, 39, 21
2, 31200, Note_on_c, 0, 60, 0
2, 31200, Note_on_c, 0, 63, 0
2, 31211, Note_on_c, 0, 32, 39
2, 31214, Note_on_c, 0, 68, 49
2, 31222, Note_on_c, 0, 39, 0
2, 31238, Note_on_c, 0, 32, 0
2, 31257, Note_on_c, 0, 39, 45
2, 31263, Note_on_c, 0, 60, 48
2, 31276, Note_on_c, 0, 68, 0
2, 31282, Note_on_c, 0, 39, 0
2, 31284, Note_on_c, 0, 44, 37
2, 31285, Note_on_c, 0, 63, 50
2, 31304, Note_on_c, 0, 60, 0
2, 31304, Note_on_c, 0, 44, 0
2, 31315, Note_on_c, 0, 51, 47
2, 31318, Note_on_c, 0, 56, 44
2, 31326, Note_on_c, 0, 63, 0
2, 31345, Note_on_c, 0, 51, 0
2, 31348, Note_on_c, 0, 44, 30
2, 31360, Note_on_c, 0, 56, 0
2, 31361, Note_on_c, 0, 60, 36
2, 31381, Note_on_c, 0, 44, 0
2, 31388, Note_on_c, 0, 39, 38
2, 31395, Note_on_c, 0, 63, 49
2, 31407, Note_on_c, 0, 60, 0
2, 31417, Note_on_c, 0, 39, 0
2, 31424, Note_on_c, 0, 32, 56
2, 31427, Note_on_c, 0, 63, 0
2, 31450, Control_c, 0, 64, 0
2, 31459, Control_c, 0, 64, 127
2, 31466, Note_on_c, 0, 32, 0
2, 31470, Note_on_c, 0, 39, 34
2, 31471, Note_on_c, 0, 48, 58
2, 31497, Note_on_c, 0, 39, 0
2, 31499, Note_on_c, 0, 44, 64
2, 31502, Note_on_c, 0, 48, 0
2, 31503, Note_on_c, 0, 51, 60
2, 31521, Note_on_c, 0, 44, 0
2, 31530, Note_on_c, 0, 51, 0
2, 31536, Note_on_c, 0, 48, 38
2, 31536, Note_on_c, 0, 56, 60
2, 31552, Note_on_c, 0, 48, 0
2, 31563, Note_on_c, 0, 56, 0
2, 31568, Note_on_c, 0, 51, 60
2, 31572, Note_on_c, 0, 60, 62
2, 31594, Note_on_c, 0, 51, 0
2, 31596, Note_on_c, 0, 60, 0
2, 31596, Note_on_c, 0, 56, 39
2, 31599, Note_on_c, 0, 63, 52
2, 31616, Note_on_c, 0, 56, 0
2, 31624, Note_on_c, 0, 63, 0
2, 31624, Note_on_c, 0, 60, 54
2, 31629, Note_on_c, 0, 68, 47
2, 31636, Note_on_c, 0, 60, 0
2, 31645, Note_on_c, 0, 68, 0
2, 31652, Note_on_c, 0, 63, 43
2, 31660, Note_on_c, 0, 72, 58
2, 31676, Note_on_c, 0, 68, 39
2, 31680, Note_on_c, 0, 63, 0
2, 31684, Note_on_c, 0, 72, 0
2, 31684, Note_on_c, 0, 75, 51
2, 31702, Note_on_c, 0, 68, 0
2, 31704, Note_on_c, 0, 72, 57
2, 31710, Note_on_c, 0, 75, 0
2, 31715, Note_on_c, 0, 80, 55
2, 31723, Note_on_c, 0, 72, 0
2, 31725, Note_on_c, 0, 80, 0
2, 31744, Note_on_c, 0, 75, 42
2, 31747, Note_on_c, 0, 84, 64
2, 31759, Note_on_c, 0, 80, 41
2, 31763, Note_on_c, 0, 75, 0
2, 31770, Note_on_c, 0, 84, 0
2, 31770, Note_on_c, 0, 87, 46
2, 31793, Note_on_c, 0, 80, 0
2, 31799, Note_on_c, 0, 84, 60
2, 31802, Note_on_c, 0, 87, 0
2, 31803, Note_on_c, 0, 92, 70
2, 31829, Note_on_c, 0, 80, 44
2, 31833, Note_on_c, 0, 87, 62
2, 31841, Note_on_c, 0, 84, 0
2, 31845, Note_on_c, 0, 92, 0
2, 31859, Note_on_c, 0, 75, 43
2, 31859, Note_on_c, 0, 84, 51
2, 31861, Note_on_c, 0, 80, 0
2, 31864, Note_on_c, 0, 87, 0
2, 31868, Note_on_c, 0, 75, 0
2, 31874, Note_on_c, 0, 84, 0
2, 31892, Note_on_c, 0, 72, 58
2, 31918, Note_on_c, 0, 72, 0
2, 31920, Note_on_c, 0, 68, 33
2, 31921, Note_on_c, 0, 75, 42
2, 31936, Note_on_c, 0, 68, 0
2, 31943, Note_on_c, 0, 75, 0
2, 31943, Note_on_c, 0, 63, 46
2, 31944, Note_on_c, 0, 72, 50
2, 31967, Note_on_c, 0, 63, 0
2, 31971, Note_on_c, 0, 56, 62
2, 31972, Note_on_c, 0, 68, 60
2, 31978, Note_on_c, 0, 72, 0
2, 31980, Note_on_c, 0, 56, 0
2, 31997, Note_on_c, 0, 72, 55
2, 32000, Note_on_c, 0, 63, 52
2, 32003, Note_on_c, 0, 68, 0
2, 32023, Note_on_c, 0, 68, 52
2, 32024, Note_on_c, 0, 72, 0
2, 32024, Note_on_c, 0, 75, 47
2, 32029, Note_on_c, 0, 63, 0
2, 32047, Note_on_c, 0, 68, 0
2, 32053, Note_on_c, 0, 72, 38
2, 32056, Note_on_c, 0, 80, 56
2, 32060, Note_on_c, 0, 75, 0
2, 32076, Note_on_c, 0, 72, 0
2, 32079, Note_on_c, 0, 80, 0
2, 32084, Note_on_c, 0, 84, 67
2, 32085, Note_on_c, 0, 75, 47
2, 32106, Note_on_c, 0, 84, 0
2, 32107, Note_on_c, 0, 80, 40
2, 32108, Note_on_c, 0, 87, 56
2, 32111, Note_on_c, 0, 75, 0
2, 32131, Note_on_c, 0, 80, 0
2, 32143, Note_on_c, 0, 84, 55
2, 32144, Note_on_c, 0, 87, 0
2, 32148, Note_on_c, 0, 92, 67
2, 32176, Note_on_c, 0, 80, 49
2, 32180, Note_on_c, 0, 84, 0
2, 32180, Note_on_c, 0, 87, 60
2, 32189, Note_on_c, 0, 92, 0
2, 32205, Note_on_c, 0, 80, 0
2, 32206, Note_on_c, 0, 87, 0
2, 32208, Note_on_c, 0, 75, 38
2, 32208, Note_on_c, 0, 84, 43
2, 32216, Note_on_c, 0, 75, 0
2, 32219, Note_on_c, 0, 84, 0
2, 32233, Note_on_c, 0, 72, 57
2, 32240, Note_on_c, 0, 80, 35
2, 32259, Note_on_c, 0, 72, 0
2, 32259, Note_on_c, 0, 68, 44
2, 32270, Note_on_c, 0, 80, 0
2, 32272, Note_on_c, 0, 75, 35
2, 32281, Note_on_c, 0, 68, 0
2, 32284, Note_on_c, 0, 75, 0
2, 32288, Note_on_c, 0, 63, 40
2, 32290, Note_on_c, 0, 72, 38
2, 32315, Note_on_c, 0, 63, 0
2, 32315, Note_on_c, 0, 56, 62
2, 32316, Note_on_c, 0, 68, 65
2, 32325, Note_on_c, 0, 72, 0
2, 32330, Note_on_c, 0, 56, 0
2, 32340, Note_on_c, 0, 72, 44
2, 32343, Note_on_c, 0, 68, 0
2, 32344, Note_on_c, 0, 63, 44
2, 32354, Note_on_c, 0, 72, 0
2, 32362, Note_on_c, 0, 68, 47
2, 32363, Note_on_c, 0, 75, 52
2, 32369, Note_on_c, 0, 63, 0
2, 32372, Note_on_c, 0, 68, 0
2, 32392, Note_on_c, 0, 72, 53
2, 32394, Note_on_c, 0, 75, 0
2, 32399, Note_on_c, 0, 80, 49
2, 32407, Note_on_c, 0, 72, 0
2, 32414, Note_on_c, 0, 80, 0
2, 32426, Note_on_c, 0, 75, 52
2, 32432, Note_on_c, 0, 84, 59
2, 32453, Note_on_c, 0, 80, 39
2, 32455, Note_on_c, 0, 75, 0
2, 32458, Note_on_c, 0, 87, 42
2, 32459, Note_on_c, 0, 84, 0
2, 32485, Note_on_c, 0, 80, 0
2, 32486, Note_on_c, 0, 87, 0
2, 32489, Note_on_c, 0, 84, 59
2, 32490, Note_on_c, 0, 92, 68
2, 32517, Note_on_c, 0, 80, 52
2, 32520, Note_on_c, 0, 87, 57
2, 32521, Note_on_c, 0, 84, 0
2, 32530, Note_on_c, 0, 92, 0
2, 32538, Note_on_c, 0, 75, 47
2, 32543, Note_on_c, 0, 80, 0
2, 32545, Note_on_c, 0, 87, 0
2, 32547, Note_on_c, 0, 84, 42
2, 32553, Note_on_c, 0, 75, 0
2, 32556, Note_on_c, 0, 84, 0
2, 32576, Note_on_c, 0, 72, 48
2, 32580, Note_on_c, 0, 80, 38
2, 32599, Note_on_c, 0, 68, 47
2, 32601, Note_on_c, 0, 72, 0
2, 32603, Note_on_c, 0, 80, 0
2, 32605, Note_on_c, 0, 75, 55
2, 32622, Note_on_c, 0, 68, 0
2, 32625, Note_on_c, 0, 75, 0
2, 32630, Note_on_c, 0, 72, 43
2, 32636, Note_on_c, 0, 63, 34
2, 32651, Note_on_c, 0, 72, 0
2, 32655, Note_on_c, 0, 56, 69
2, 32655, Note_on_c, 0, 68, 57
2, 32660, Note_on_c, 0, 63, 0
2, 32663, Note_on_c, 0, 56, 0
2, 32679, Note_on_c, 0, 72, 40
2, 32683, Note_on_c, 0, 68, 0
2, 32692, Note_on_c, 0, 63, 37
2, 32703, Note_on_c, 0, 72, 0
2, 32706, Note_on_c, 0, 63, 0
2, 32706, Note_on_c, 0, 80, 46
2, 32716, Note_on_c, 0, 68, 42
2, 32735, Note_on_c, 0, 80, 0
2, 32735, Note_on_c, 0, 68, 0
2, 32740, Note_on_c, 0, 84, 49
2, 32743, Note_on_c, 0, 75, 60
2, 32762, Note_on_c, 0, 84, 0
2, 32768, Note_on_c, 0, 80, 49
2, 32769, Note_on_c, 0, 75, 0
2, 32774, Note_on_c, 0, 68, 51
2, 32786, Note_on_c, 0, 80, 0
2, 32791, Note_on_c, 0, 72, 49
2, 32792, Note_on_c, 0, 68, 0
2, 32800, Note_on_c, 0, 63, 46
2, 32813, Note_on_c, 0, 72, 0
2, 32821, Note_on_c, 0, 56, 57
2, 32825, Note_on_c, 0, 68, 52
2, 32830, Note_on_c, 0, 63, 0
2, 32837, Note_on_c, 0, 56, 0
2, 32844, Note_on_c, 0, 68, 0
2, 32849, Note_on_c, 0, 72, 40
2, 32856, Note_on_c, 0, 63, 37
2, 32869, Note_on_c, 0, 72, 0
2, 32873, Note_on_c, 0, 63, 0
2, 32873, Note_on_c, 0, 80, 53
2, 32881, Note_on_c, 0, 68, 40
2, 32896, Note_on_c, 0, 80, 0
2, 32897, Note_on_c, 0, 68, 0
2, 32903, Note_on_c, 0, 84, 51
2, 32909, Note_on_c, 0, 75, 51
2, 32926, Note_on_c, 0, 84, 0
2, 32928, Note_on_c, 0, 75, 0
2, 32931, Note_on_c, 0, 80, 41
2, 32939, Note_on_c, 0, 68, 51
2, 32944, Note_on_c, 0, 80, 0
2, 32952, Note_on_c, 0, 68, 0
2, 32955, Note_on_c, 0, 72, 35
2, 32961, Note_on_c, 0, 63, 35
2, 32973, Note_on_c, 0, 72, 0
2, 32984, Note_on_c, 0, 68, 58
2, 32986, Note_on_c, 0, 63, 0
2, 32987, Note_on_c, 0, 56, 67
2, 32995, Note_on_c, 0, 68, 0
2, 33008, Note_on_c, 0, 56, 0
2, 33013, Note_on_c, 0, 72, 52
2, 33022, Note_on_c, 0, 63, 37
2, 33032, Note_on_c, 0, 72, 0
2, 33033, Note_on_c, 0, 63, 0
2, 33036, Note_on_c, 0, 80, 56
2, 33046, Note_on_c, 0, 68, 40
2, 33056, Note_on_c, 0, 80, 0
2, 33060, Note_on_c, 0, 68, 0
2, 33069, Note_on_c, 0, 84, 47
2, 33070, Note_on_c, 0, 75, 48
2, 33088, Note_on_c, 0, 84, 0
2, 33094, Note_on_c, 0, 80, 42
2, 33095, Note_on_c, 0, 75, 0
2, 33105, Note_on_c, 0, 68, 32
2, 33113, Note_on_c, 0, 80, 0
2, 33114, Note_on_c, 0, 68, 0
2, 33125, Note_on_c, 0, 72, 46
2, 33128, Note_on_c, 0, 63, 37
2, 33139, Note_on_c, 0, 72, 0
2, 33150, Note_on_c, 0, 56, 56
2, 33152, Note_on_c, 0, 68, 48
2, 33154, Note_on_c, 0, 63, 0
2, 33161, Note_on_c, 0, 56, 0
2, 33170, Note_on_c, 0, 68, 0
2, 33180, Note_on_c, 0, 72, 48
2, 33187, Note_on_c, 0, 63, 39
2, 33200, Note_on_c, 0, 72, 0
2, 33202, Note_on_c, 0, 63, 0
2, 33202, Note_on_c, 0, 80, 47
2, 33211, Note_on_c, 0, 68, 39
2, 33221, Note_on_c, 0, 80, 0
2, 33228, Note_on_c, 0, 68, 0
2, 33232, Note_on_c, 0, 84, 47
2, 33236, Note_on_c, 0, 75, 47
2, 33255, Note_on_c, 0, 84, 0
2, 33262, Note_on_c, 0, 75, 0
2, 33265, Note_on_c, 0, 80, 37
2, 33272, Note_on_c, 0, 68, 41
2, 33283, Note_on_c, 0, 80, 0
2, 33289, Note_on_c, 0, 68, 0
2, 33295, Note_on_c, 0, 72, 41
2, 33296, Note_on_c, 0, 63, 41
2, 33315, Note_on_c, 0, 72, 0
2, 33326, Note_on_c, 0, 63, 0
2, 33327, Note_on_c, 0, 56, 42
2, 33329, Note_on_c, 0, 68, 42
2, 33337, Note_on_c, 0, 56, 0
2, 33341, Note_on_c, 0, 68, 0
2, 33355, Note_on_c, 0, 72, 48
2, 33360, Note_on_c, 0, 63, 48
2, 33371, Note_on_c, 0, 72, 0
2, 33383, Note_on_c, 0, 63, 0
2, 33392, Note_on_c, 0, 80, 49
2, 33396, Note_on_c, 0, 68, 42
2, 33404, Note_on_c, 0, 80, 0
2, 33414, Note_on_c, 0, 68, 0
2, 33416, Note_on_c, 0, 75, 47
2, 33422, Note_on_c, 0, 84, 43
2, 33438, Note_on_c, 0, 75, 0
2, 33446, Note_on_c, 0, 84, 0
2, 33448, Note_on_c, 0, 68, 42
2, 33449, Note_on_c, 0, 80, 42
2, 33459, Note_on_c, 0, 68, 0
2, 33470, Note_on_c, 0, 80, 0
2, 33480, Note_on_c, 0, 63, 28
2, 33480, Note_on_c, 0, 72, 32
2, 33491, Note_on_c, 0, 63, 0
2, 33503, Note_on_c, 0, 56, 42
2, 33507, Note_on_c, 0, 72, 0
2, 33509, Note_on_c, 0, 68, 42
2, 33514, Note_on_c, 0, 56, 0
2, 33517, Note_on_c, 0, 68, 0
2, 33542, Note_on_c, 0, 72, 37
2, 33544, Note_on_c, 0, 63, 37
2, 33552, Note_on_c, 0, 72, 0
2, 33555, Note_on_c, 0, 63, 0
2, 33565, Note_on_c, 0, 80, 43
2, 33573, Note_on_c, 0, 68, 36
2, 33582, Note_on_c, 0, 80, 0
2, 33592, Note_on_c, 0, 68, 0
2, 33594, Note_on_c, 0, 75, 46
2, 33599, Note_on_c, 0, 84, 39
2, 33611, Note_on_c, 0, 75, 0
2, 33619, Note_on_c, 0, 84, 0
2, 33625, Note_on_c, 0, 80, 32
2, 33632, Note_on_c, 0, 68, 32
2, 33643, Note_on_c, 0, 80, 0
2, 33645, Note_on_c, 0, 68, 0
2, 33656, Note_on_c, 0, 72, 42
2, 33660, Note_on_c, 0, 63, 28
2, 33671, Note_on_c, 0, 72, 0
2, 33680, Note_on_c, 0, 63, 0
2, 33681, Note_on_c, 0, 56, 37
2, 33692, Note_on_c, 0, 68, 29
2, 33701, Note_on_c, 0, 56, 0
2, 33705, Note_on_c, 0, 68, 0
2, 33720, Note_on_c, 0, 63, 28
2, 33723, Note_on_c, 0, 72, 38
2, 33731, Note_on_c, 0, 63, 0
2, 33736, Note_on_c, 0, 72, 0
2, 33747, Note_on_c, 0, 68, 30
2, 33748, Note_on_c, 0, 80, 30
2, 33765, Note_on_c, 0, 68, 0
2, 33780, Note_on_c, 0, 80, 0
2, 33783, Note_on_c, 0, 75, 29
2, 33788, Note_on_c, 0, 84, 29
2, 33802, Note_on_c, 0, 75, 0
2, 33815, Note_on_c, 0, 84, 0
2, 33820, Note_on_c, 0, 68, 28
2, 33822, Note_on_c, 0, 80, 33
2, 33831, Note_on_c, 0, 68, 0
2, 33854, Note_on_c, 0, 80, 0
2, 33856, Note_on_c, 0, 63, 35
2, 33862, Note_on_c, 0, 72, 44
2, 33877, Note_on_c, 0, 63, 0
2, 33894, Note_on_c, 0, 56, 47
2, 33904, Note_on_c, 0, 68, 61
2, 33905, Note_on_c, 0, 72, 0
2, 33914, Note_on_c, 0, 56, 0
2, 33917, Note_on_c, 0, 68, 0
2, 34155, Note_on_c, 0, 44, 38
2, 34179, Note_on_c, 0, 44, 0
2, 34180, Note_on_c, 0, 51, 48
2, 34235, Note_on_c, 0, 60, 48
2, 34239, Note_on_c, 0, 80, 42
2, 34239, Note_on_c, 0, 92, 56
2, 34241, Note_on_c, 0, 87, 53
2, 34295, Note_on_c, 0, 51, 0
2, 34296, Note_on_c, 0, 60, 0
2, 34302, Note_on_c, 0, 80, 0
2, 34305, Note_on_c, 0, 92, 0
2, 34316, Note_on_c, 0, 87, 0
2, 34492, Control_c, 0, 64, 0
2, 34522, Note_on_c, 0, 63, 56
2, 34524, Note_on_c, 0, 72, 58
2, 34524, Note_on_c, 0, 38, 45
2, 34577, Control_c, 0, 64, 127
2, 34589, Note_on_c, 0, 39, 43
2, 34599, Note_on_c, 0, 63, 0
2, 34638, Note_on_c, 0, 72, 0
2, 34649, Note_on_c, 0, 41, 43
2, 34664, Note_on_c, 0, 38, 0
2, 34682, Note_on_c, 0, 39, 43
2, 34707, Note_on_c, 0, 39, 0
2, 34715, Note_on_c, 0, 41, 37
2, 34728, Note_on_c, 0, 41, 0
2, 34738, Note_on_c, 0, 39, 42
2, 34758, Note_on_c, 0, 39, 0
2, 34764, Note_on_c, 0, 41, 59
2, 34779, Note_on_c, 0, 41, 0
2, 34787, Note_on_c, 0, 39, 53
2, 34804, Note_on_c, 0, 39, 0
2, 34809, Note_on_c, 0, 41, 53
2, 34823, Note_on_c, 0, 41, 0
2, 34831, Note_on_c, 0, 39, 48
2, 34841, Note_on_c, 0, 39, 0
2, 34855, Note_on_c, 0, 41, 49
2, 34863, Note_on_c, 0, 41, 0
2, 34894, Note_on_c, 0, 41, 58
2, 34915, Control_c, 0, 64, 0
2, 34920, Note_on_c, 0, 39, 0
2, 34921, Note_on_c, 0, 39, 51
2, 34964, Note_on_c, 0, 38, 60
2, 34965, Note_on_c, 0, 41, 0
2, 35037, Note_on_c, 0, 41, 0
2, 35039, Note_on_c, 0, 39, 51
2, 35128, Note_on_c, 0, 39, 0
2, 35131, Note_on_c, 0, 32, 53
2, 35145, Control_c, 0, 64, 127
2, 35224, Note_on_c, 0, 44, 42
2, 35226, Note_on_c, 0, 38, 0
2, 35240, Note_on_c, 0, 39, 0
2, 35326, Note_on_c, 0, 51, 59
2, 35336, Note_on_c, 0, 32, 0
2, 35339, Note_on_c, 0, 44, 0
2, 35474, Note_on_c, 0, 60, 36
2, 35485, Note_on_c, 0, 51, 0
2, 35503, Note_on_c, 0, 60, 45
2, 35555, Note_on_c, 0, 68, 55
2, 35621, Note_on_c, 0, 60, 0
2, 35622, Note_on_c, 0, 60, 0
2, 35624, Note_on_c, 0, 68, 0
2, 36927, Control_c, 0, 64, 0
2, 36927, End_track
3, 0, Start_track
3, 0, Title_t, "Study Op25No1"
3, 0, End_track
4, 0, Start_track
4, 1, Copyright_t, "\012__________________________________________________________\012Kunst der Fuge comment: this is the Contributor's property.\012Can *not* be used for commercial purposes without authorization!\012Copyright by Contributor - Kunst der Fuge,  2002-05\012http://www.kunstderfuge.com/thanks.htm -> Contributors' list\012http://www.kunstderfuge.com/notes.htm -> Terms & conditions"
4, 1, End_track
0, 0, End_of_file
