0, 0, Header, 0, 2, 384
1, 0, Start_track
1, 0, Title_t, "Chopin's Mazurkas (played by © Ron Lubetsky)"
1, 0, Control_c, 0, 0, 0
1, 0, Program_c, 0, 0
1, 0, Time_signature, 4, 2, 96, 8
1, 0, Sequencer_specific, 3, 0, 0, 65
1, 0, Tempo, 500000
1, 380, Note_on_c, 0, 63, 42
1, 396, Control_c, 0, 64, 127
1, 556, Note_off_c, 0, 63, 64
1, 556, Control_c, 0, 64, 0
1, 564, Note_on_c, 0, 63, 46
1, 564, Note_on_c, 0, 60, 36
1, 564, Note_on_c, 0, 56, 31
1, 564, Note_on_c, 0, 68, 42
1, 616, Control_c, 0, 64, 127
1, 636, Note_off_c, 0, 63, 64
1, 636, Note_off_c, 0, 60, 64
1, 636, Note_off_c, 0, 56, 64
1, 648, Note_off_c, 0, 68, 64
1, 652, Note_on_c, 0, 70, 28
1, 708, Note_on_c, 0, 68, 49
1, 724, Note_off_c, 0, 70, 64
1, 756, Control_c, 0, 64, 0
1, 792, Note_on_c, 0, 64, 37
1, 792, Note_on_c, 0, 61, 36
1, 796, Note_on_c, 0, 56, 23
1, 796, Note_on_c, 0, 67, 49
1, 800, Note_off_c, 0, 68, 64
1, 828, Control_c, 0, 64, 127
1, 864, Note_off_c, 0, 64, 64
1, 864, Note_off_c, 0, 61, 64
1, 868, Note_off_c, 0, 56, 64
1, 872, Note_on_c, 0, 68, 53
1, 904, Note_off_c, 0, 67, 64
1, 940, Control_c, 0, 64, 0
1, 972, Note_on_c, 0, 56, 22
1, 976, Note_on_c, 0, 70, 52
1, 976, Note_on_c, 0, 61, 29
1, 980, Note_on_c, 0, 64, 28
1, 996, Note_off_c, 0, 68, 64
1, 1012, Control_c, 0, 64, 127
1, 1048, Note_off_c, 0, 56, 64
1, 1048, Note_off_c, 0, 61, 64
1, 1052, Note_off_c, 0, 64, 64
1, 1068, Note_on_c, 0, 72, 50
1, 1080, Note_off_c, 0, 70, 64
1, 1144, Control_c, 0, 64, 0
1, 1164, Note_on_c, 0, 58, 35
1, 1164, Note_on_c, 0, 55, 37
1, 1172, Note_on_c, 0, 64, 44
1, 1172, Note_on_c, 0, 73, 57
1, 1208, Note_off_c, 0, 72, 64
1, 1228, Control_c, 0, 64, 127
1, 1240, Note_off_c, 0, 58, 64
1, 1240, Note_off_c, 0, 55, 64
1, 1244, Note_off_c, 0, 64, 64
1, 1244, Note_on_c, 0, 75, 54
1, 1252, Note_off_c, 0, 73, 64
1, 1316, Note_on_c, 0, 73, 55
1, 1328, Note_off_c, 0, 75, 64
1, 1364, Note_on_c, 0, 63, 46
1, 1364, Note_on_c, 0, 60, 41
1, 1364, Note_on_c, 0, 56, 40
1, 1364, Control_c, 0, 64, 0
1, 1380, Note_on_c, 0, 72, 54
1, 1396, Note_off_c, 0, 73, 64
1, 1432, Control_c, 0, 64, 127
1, 1436, Note_off_c, 0, 63, 64
1, 1436, Note_off_c, 0, 60, 64
1, 1436, Note_off_c, 0, 56, 64
1, 1452, Note_on_c, 0, 73, 57
1, 1472, Note_off_c, 0, 72, 64
1, 1556, Control_c, 0, 64, 0
1, 1564, Note_on_c, 0, 55, 36
1, 1568, Note_off_c, 0, 73, 64
1, 1568, Note_on_c, 0, 75, 55
1, 1568, Note_on_c, 0, 63, 48
1, 1568, Note_on_c, 0, 58, 40
1, 1612, Control_c, 0, 64, 127
1, 1612, Control_c, 0, 64, 127
1, 1636, Note_off_c, 0, 55, 64
1, 1644, Note_off_c, 0, 63, 64
1, 1644, Note_off_c, 0, 58, 64
1, 1828, Control_c, 0, 64, 0
1, 1840, Note_on_c, 0, 65, 44
1, 1840, Note_on_c, 0, 56, 41
1, 1844, Note_off_c, 0, 75, 64
1, 1844, Note_on_c, 0, 61, 49
1, 1844, Note_on_c, 0, 53, 46
1, 1844, Note_on_c, 0, 80, 67
1, 1888, Note_off_c, 0, 65, 64
1, 1900, Note_off_c, 0, 61, 64
1, 1900, Note_off_c, 0, 53, 64
1, 1904, Note_off_c, 0, 56, 64
1, 1904, Control_c, 0, 64, 127
1, 1904, Control_c, 0, 64, 127
1, 1952, Note_off_c, 0, 80, 64
1, 1996, Note_on_c, 0, 73, 50
1, 2004, Note_off_c, 0, 73, 64
1, 2004, Note_on_c, 0, 73, 54
1, 2052, Control_c, 0, 64, 0
1, 2080, Note_on_c, 0, 72, 41
1, 2080, Note_on_c, 0, 56, 27
1, 2080, Note_on_c, 0, 51, 40
1, 2084, Note_on_c, 0, 63, 40
1, 2104, Note_off_c, 0, 73, 64
1, 2124, Control_c, 0, 64, 127
1, 2156, Note_off_c, 0, 56, 64
1, 2156, Note_off_c, 0, 51, 64
1, 2156, Note_off_c, 0, 63, 64
1, 2176, Note_on_c, 0, 75, 48
1, 2188, Note_off_c, 0, 72, 64
1, 2236, Control_c, 0, 64, 0
1, 2268, Note_on_c, 0, 68, 55
1, 2268, Note_on_c, 0, 63, 37
1, 2268, Note_on_c, 0, 60, 31
1, 2268, Note_on_c, 0, 51, 36
1, 2284, Note_off_c, 0, 75, 64
1, 2308, Control_c, 0, 64, 127
1, 2344, Note_off_c, 0, 63, 64
1, 2344, Note_off_c, 0, 60, 64
1, 2344, Note_off_c, 0, 51, 64
1, 2364, Note_on_c, 0, 69, 50
1, 2380, Note_off_c, 0, 68, 64
1, 2432, Control_c, 0, 64, 0
1, 2476, Note_on_c, 0, 70, 50
1, 2476, Note_on_c, 0, 63, 40
1, 2476, Note_on_c, 0, 61, 31
1, 2476, Note_on_c, 0, 51, 31
1, 2484, Note_off_c, 0, 69, 64
1, 2500, Control_c, 0, 64, 127
1, 2548, Note_off_c, 0, 63, 64
1, 2548, Note_off_c, 0, 61, 64
1, 2548, Note_off_c, 0, 51, 64
1, 2568, Note_on_c, 0, 73, 55
1, 2580, Note_off_c, 0, 70, 64
1, 2652, Note_on_c, 0, 51, 36
1, 2652, Control_c, 0, 64, 0
1, 2656, Note_on_c, 0, 63, 36
1, 2660, Note_on_c, 0, 65, 55
1, 2660, Note_on_c, 0, 61, 36
1, 2672, Note_off_c, 0, 73, 64
1, 2700, Control_c, 0, 64, 127
1, 2728, Note_off_c, 0, 51, 64
1, 2732, Note_off_c, 0, 63, 64
1, 2732, Note_off_c, 0, 61, 64
1, 2752, Note_on_c, 0, 67, 52
1, 2768, Note_off_c, 0, 65, 64
1, 2832, Control_c, 0, 64, 0
1, 2848, Note_on_c, 0, 56, 20
1, 2852, Note_on_c, 0, 68, 54
1, 2852, Note_on_c, 0, 63, 40
1, 2852, Note_on_c, 0, 60, 27
1, 2880, Note_off_c, 0, 67, 64
1, 2900, Control_c, 0, 64, 127
1, 2924, Note_off_c, 0, 56, 64
1, 2924, Note_off_c, 0, 63, 64
1, 2924, Note_off_c, 0, 60, 64
1, 3088, Control_c, 0, 64, 0
1, 3100, Note_on_c, 0, 63, 41
1, 3100, Note_on_c, 0, 60, 36
1, 3100, Note_on_c, 0, 56, 22
1, 3140, Control_c, 0, 64, 127
1, 3168, Note_on_c, 0, 70, 44
1, 3176, Note_off_c, 0, 63, 64
1, 3176, Note_off_c, 0, 60, 64
1, 3176, Note_off_c, 0, 56, 64
1, 3200, Note_off_c, 0, 68, 64
1, 3228, Note_on_c, 0, 68, 58
1, 3260, Note_off_c, 0, 70, 64
1, 3276, Control_c, 0, 64, 0
1, 3292, Note_on_c, 0, 64, 36
1, 3292, Note_on_c, 0, 56, 31
1, 3296, Note_on_c, 0, 67, 53
1, 3300, Note_on_c, 0, 61, 28
1, 3304, Note_off_c, 0, 68, 64
1, 3348, Control_c, 0, 64, 127
1, 3368, Note_off_c, 0, 64, 64
1, 3368, Note_off_c, 0, 56, 64
1, 3372, Note_off_c, 0, 61, 64
1, 3396, Note_on_c, 0, 68, 55
1, 3416, Note_off_c, 0, 67, 64
1, 3464, Control_c, 0, 64, 0
1, 3488, Note_on_c, 0, 61, 41
1, 3492, Note_on_c, 0, 70, 44
1, 3492, Note_on_c, 0, 64, 40
1, 3492, Note_on_c, 0, 56, 40
1, 3508, Note_off_c, 0, 68, 64
1, 3512, Control_c, 0, 64, 127
1, 3564, Note_off_c, 0, 61, 64
1, 3564, Note_off_c, 0, 64, 64
1, 3564, Note_off_c, 0, 56, 64
1, 3564, Note_on_c, 0, 72, 55
1, 3608, Note_off_c, 0, 70, 64
1, 3660, Note_on_c, 0, 73, 53
1, 3668, Note_on_c, 0, 55, 41
1, 3668, Control_c, 0, 64, 0
1, 3672, Note_on_c, 0, 64, 44
1, 3672, Note_on_c, 0, 58, 44
1, 3696, Note_off_c, 0, 72, 64
1, 3716, Control_c, 0, 64, 127
1, 3736, Note_on_c, 0, 75, 55
1, 3740, Note_off_c, 0, 55, 64
1, 3744, Note_off_c, 0, 64, 64
1, 3744, Note_off_c, 0, 58, 64
1, 3748, Note_off_c, 0, 73, 64
1, 3792, Note_on_c, 0, 73, 52
1, 3816, Note_off_c, 0, 75, 64
1, 3836, Control_c, 0, 64, 0
1, 3864, Note_on_c, 0, 72, 53
1, 3868, Note_on_c, 0, 63, 39
1, 3868, Note_on_c, 0, 60, 46
1, 3868, Note_on_c, 0, 56, 49
1, 3884, Note_off_c, 0, 73, 64
1, 3884, Control_c, 0, 64, 127
1, 3936, Note_on_c, 0, 73, 61
1, 3940, Note_off_c, 0, 63, 64
1, 3940, Note_off_c, 0, 60, 64
1, 3944, Note_off_c, 0, 56, 64
1, 3948, Note_off_c, 0, 72, 64
1, 4020, Note_on_c, 0, 74, 55
1, 4028, Note_on_c, 0, 63, 41
1, 4028, Note_on_c, 0, 58, 36
1, 4028, Note_on_c, 0, 55, 44
1, 4036, Control_c, 0, 64, 0
1, 4044, Note_off_c, 0, 73, 64
1, 4084, Control_c, 0, 64, 127
1, 4100, Note_off_c, 0, 63, 64
1, 4100, Note_off_c, 0, 58, 64
1, 4100, Note_off_c, 0, 55, 64
1, 4104, Note_on_c, 0, 75, 63
1, 4140, Note_off_c, 0, 74, 64
1, 4144, Note_off_c, 0, 75, 64
1, 4192, Control_c, 0, 64, 127
1, 4216, Note_on_c, 0, 75, 62
1, 4236, Control_c, 0, 64, 0
1, 4280, Note_on_c, 0, 53, 46
1, 4284, Note_on_c, 0, 65, 24
1, 4284, Note_on_c, 0, 61, 36
1, 4288, Note_on_c, 0, 80, 67
1, 4300, Note_off_c, 0, 75, 64
1, 4316, Control_c, 0, 64, 127
1, 4352, Note_off_c, 0, 53, 64
1, 4356, Note_off_c, 0, 65, 64
1, 4356, Note_off_c, 0, 61, 64
1, 4368, Note_off_c, 0, 80, 64
1, 4460, Note_on_c, 0, 73, 54
1, 4496, Control_c, 0, 64, 0
1, 4548, Note_on_c, 0, 51, 28
1, 4548, Note_on_c, 0, 56, 32
1, 4548, Note_on_c, 0, 63, 36
1, 4552, Note_on_c, 0, 72, 46
1, 4572, Note_off_c, 0, 73, 64
1, 4580, Control_c, 0, 64, 127
1, 4620, Note_off_c, 0, 51, 64
1, 4620, Note_off_c, 0, 56, 64
1, 4624, Note_off_c, 0, 63, 64
1, 4632, Note_on_c, 0, 75, 42
1, 4644, Note_off_c, 0, 72, 64
1, 4692, Control_c, 0, 64, 0
1, 4728, Control_c, 0, 64, 127
1, 4732, Note_on_c, 0, 68, 55
1, 4732, Note_on_c, 0, 63, 40
1, 4732, Note_on_c, 0, 60, 36
1, 4732, Note_on_c, 0, 51, 36
1, 4740, Note_off_c, 0, 75, 64
1, 4804, Note_off_c, 0, 63, 64
1, 4804, Note_off_c, 0, 60, 64
1, 4804, Note_off_c, 0, 51, 64
1, 4828, Note_on_c, 0, 69, 49
1, 4836, Note_off_c, 0, 68, 64
1, 4888, Control_c, 0, 64, 0
1, 4924, Note_on_c, 0, 63, 41
1, 4924, Note_on_c, 0, 61, 28
1, 4924, Note_on_c, 0, 51, 36
1, 4924, Note_on_c, 0, 70, 49
1, 4932, Note_off_c, 0, 69, 64
1, 4956, Control_c, 0, 64, 127
1, 4996, Note_off_c, 0, 63, 64
1, 4996, Note_off_c, 0, 61, 64
1, 4996, Note_off_c, 0, 51, 64
1, 5024, Note_on_c, 0, 73, 50
1, 5036, Note_off_c, 0, 70, 64
1, 5100, Note_on_c, 0, 63, 36
1, 5100, Note_on_c, 0, 61, 36
1, 5100, Note_on_c, 0, 51, 36
1, 5104, Note_on_c, 0, 65, 50
1, 5104, Control_c, 0, 64, 0
1, 5116, Note_off_c, 0, 73, 64
1, 5132, Control_c, 0, 64, 127
1, 5176, Note_off_c, 0, 63, 64
1, 5176, Note_off_c, 0, 61, 64
1, 5176, Note_off_c, 0, 51, 64
1, 5208, Note_on_c, 0, 67, 48
1, 5232, Note_off_c, 0, 65, 64
1, 5284, Control_c, 0, 64, 0
1, 5304, Note_on_c, 0, 68, 54
1, 5308, Note_on_c, 0, 63, 40
1, 5308, Note_on_c, 0, 60, 36
1, 5308, Note_on_c, 0, 56, 36
1, 5340, Note_off_c, 0, 67, 64
1, 5364, Control_c, 0, 64, 127
1, 5380, Note_off_c, 0, 63, 64
1, 5380, Note_off_c, 0, 60, 64
1, 5380, Note_off_c, 0, 56, 64
1, 5392, Note_off_c, 0, 68, 64
1, 5564, Note_on_c, 0, 71, 41
1, 5620, Control_c, 0, 64, 0
1, 5628, Note_on_c, 0, 48, 58
1, 5636, Note_on_c, 0, 72, 57
1, 5652, Note_off_c, 0, 71, 64
1, 5704, Control_c, 0, 64, 127
1, 5852, Note_off_c, 0, 48, 64
1, 5852, Control_c, 0, 64, 0
1, 5860, Note_on_c, 0, 55, 31
1, 5860, Note_on_c, 0, 84, 57
1, 5864, Note_on_c, 0, 64, 36
1, 5864, Note_on_c, 0, 60, 39
1, 5876, Note_off_c, 0, 72, 64
1, 5924, Control_c, 0, 64, 127
1, 5932, Note_off_c, 0, 55, 64
1, 5936, Note_off_c, 0, 64, 64
1, 5936, Note_off_c, 0, 60, 64
1, 5984, Note_off_c, 0, 84, 64
1, 6004, Note_on_c, 0, 82, 54
1, 6036, Control_c, 0, 64, 0
1, 6052, Note_on_c, 0, 65, 48
1, 6056, Note_on_c, 0, 53, 46
1, 6056, Note_on_c, 0, 80, 66
1, 6060, Note_on_c, 0, 60, 46
1, 6076, Note_off_c, 0, 82, 64
1, 6084, Control_c, 0, 64, 127
1, 6124, Note_off_c, 0, 65, 64
1, 6132, Note_off_c, 0, 53, 64
1, 6132, Note_off_c, 0, 60, 64
1, 6244, Control_c, 0, 64, 0
1, 6260, Note_on_c, 0, 59, 40
1, 6260, Note_on_c, 0, 55, 46
1, 6264, Note_on_c, 0, 65, 46
1, 6300, Control_c, 0, 64, 127
1, 6332, Note_off_c, 0, 59, 64
1, 6332, Note_off_c, 0, 55, 64
1, 6340, Note_off_c, 0, 65, 64
1, 6352, Note_on_c, 0, 79, 49
1, 6364, Note_off_c, 0, 80, 64
1, 6404, Note_on_c, 0, 82, 55
1, 6420, Note_off_c, 0, 79, 64
1, 6444, Control_c, 0, 64, 0
1, 6456, Note_on_c, 0, 80, 74
1, 6460, Note_on_c, 0, 65, 42
1, 6460, Note_on_c, 0, 59, 44
1, 6460, Note_on_c, 0, 55, 42
1, 6496, Note_off_c, 0, 82, 64
1, 6496, Control_c, 0, 64, 127
1, 6532, Note_off_c, 0, 65, 64
1, 6532, Note_off_c, 0, 59, 64
1, 6532, Note_off_c, 0, 55, 64
1, 6540, Note_on_c, 0, 79, 59
1, 6572, Note_off_c, 0, 80, 64
1, 6628, Control_c, 0, 64, 0
1, 6648, Note_on_c, 0, 74, 50
1, 6652, Note_on_c, 0, 59, 44
1, 6652, Note_on_c, 0, 55, 42
1, 6660, Note_on_c, 0, 65, 45
1, 6672, Note_off_c, 0, 79, 64
1, 6696, Control_c, 0, 64, 127
1, 6728, Note_off_c, 0, 59, 64
1, 6728, Note_off_c, 0, 55, 64
1, 6732, Note_off_c, 0, 65, 64
1, 6804, Note_off_c, 0, 74, 64
1, 6844, Control_c, 0, 64, 0
1, 6848, Note_on_c, 0, 56, 45
1, 6852, Note_on_c, 0, 72, 59
1, 6852, Note_on_c, 0, 60, 41
1, 6856, Note_on_c, 0, 63, 49
1, 6892, Control_c, 0, 64, 127
1, 6904, Note_off_c, 0, 72, 64
1, 6924, Note_off_c, 0, 56, 64
1, 6924, Note_off_c, 0, 60, 64
1, 6932, Note_off_c, 0, 63, 64
1, 6968, Note_on_c, 0, 72, 58
1, 7024, Control_c, 0, 64, 0
1, 7052, Note_on_c, 0, 84, 58
1, 7052, Note_on_c, 0, 55, 45
1, 7056, Note_on_c, 0, 64, 39
1, 7056, Note_on_c, 0, 60, 35
1, 7112, Control_c, 0, 64, 127
1, 7124, Note_off_c, 0, 55, 64
1, 7132, Note_off_c, 0, 64, 64
1, 7132, Note_off_c, 0, 60, 64
1, 7148, Note_off_c, 0, 72, 64
1, 7180, Note_off_c, 0, 84, 64
1, 7208, Note_on_c, 0, 82, 58
1, 7228, Control_c, 0, 64, 0
1, 7244, Note_on_c, 0, 80, 62
1, 7244, Note_on_c, 0, 53, 45
1, 7248, Note_on_c, 0, 65, 44
1, 7248, Note_on_c, 0, 60, 42
1, 7276, Note_off_c, 0, 82, 64
1, 7292, Control_c, 0, 64, 127
1, 7320, Note_off_c, 0, 53, 64
1, 7324, Note_off_c, 0, 65, 64
1, 7324, Note_off_c, 0, 60, 64
1, 7436, Control_c, 0, 64, 0
1, 7456, Note_on_c, 0, 65, 46
1, 7456, Note_on_c, 0, 55, 45
1, 7460, Note_on_c, 0, 59, 49
1, 7500, Control_c, 0, 64, 127
1, 7512, Note_off_c, 0, 80, 64
1, 7532, Note_off_c, 0, 65, 64
1, 7532, Note_off_c, 0, 55, 64
1, 7532, Note_off_c, 0, 59, 64
1, 7548, Note_on_c, 0, 79, 50
1, 7608, Note_on_c, 0, 82, 61
1, 7612, Note_off_c, 0, 79, 64
1, 7648, Note_on_c, 0, 80, 58
1, 7652, Note_on_c, 0, 59, 45
1, 7652, Note_on_c, 0, 55, 40
1, 7652, Control_c, 0, 64, 0
1, 7656, Note_on_c, 0, 65, 39
1, 7684, Control_c, 0, 64, 127
1, 7696, Note_off_c, 0, 82, 64
1, 7724, Note_off_c, 0, 55, 64
1, 7724, Note_off_c, 0, 59, 64
1, 7728, Note_off_c, 0, 65, 64
1, 7760, Note_off_c, 0, 80, 64
1, 7792, Note_on_c, 0, 79, 49
1, 7832, Control_c, 0, 64, 0
1, 7844, Note_on_c, 0, 55, 42
1, 7852, Note_on_c, 0, 74, 58
1, 7852, Note_on_c, 0, 65, 46
1, 7856, Note_off_c, 0, 79, 64
1, 7900, Control_c, 0, 64, 127
1, 7916, Note_off_c, 0, 55, 64
1, 7924, Note_off_c, 0, 65, 64
1, 8044, Note_off_c, 0, 74, 64
1, 8044, Note_on_c, 0, 63, 32
1, 8044, Note_on_c, 0, 56, 28
1, 8048, Note_on_c, 0, 72, 37
1, 8048, Note_on_c, 0, 60, 26
1, 8068, Control_c, 0, 64, 0
1, 8092, Control_c, 0, 64, 127
1, 8120, Note_off_c, 0, 63, 64
1, 8120, Note_off_c, 0, 56, 64
1, 8120, Note_off_c, 0, 60, 64
1, 8236, Control_c, 0, 64, 0
1, 8244, Note_on_c, 0, 73, 40
1, 8256, Note_on_c, 0, 53, 33
1, 8260, Note_off_c, 0, 72, 64
1, 8260, Note_on_c, 0, 61, 36
1, 8260, Note_on_c, 0, 56, 24
1, 8300, Control_c, 0, 64, 127
1, 8332, Note_off_c, 0, 53, 64
1, 8332, Note_off_c, 0, 61, 64
1, 8332, Note_off_c, 0, 56, 64
1, 8388, Note_off_c, 0, 73, 64
1, 8400, Note_on_c, 0, 77, 33
1, 8452, Control_c, 0, 64, 0
1, 8460, Note_on_c, 0, 72, 44
1, 8460, Note_on_c, 0, 53, 28
1, 8464, Note_on_c, 0, 62, 36
1, 8464, Note_on_c, 0, 56, 35
1, 8472, Note_off_c, 0, 77, 64
1, 8500, Control_c, 0, 64, 127
1, 8536, Note_off_c, 0, 53, 64
1, 8540, Note_off_c, 0, 62, 64
1, 8540, Note_off_c, 0, 56, 64
1, 8652, Note_on_c, 0, 55, 28
1, 8652, Note_on_c, 0, 65, 28
1, 8652, Note_on_c, 0, 62, 36
1, 8656, Note_on_c, 0, 71, 41
1, 8656, Note_on_c, 0, 62, 24
1, 8668, Control_c, 0, 64, 0
1, 8680, Note_off_c, 0, 72, 64
1, 8688, Control_c, 0, 64, 127
1, 8720, Control_c, 0, 64, 127
1, 8724, Note_off_c, 0, 55, 64
1, 8728, Note_off_c, 0, 65, 64
1, 8728, Note_off_c, 0, 62, 64
1, 8732, Note_off_c, 0, 62, 64
1, 8788, Note_off_c, 0, 71, 64
1, 8816, Note_on_c, 0, 67, 37
1, 8876, Note_on_c, 0, 65, 31
1, 8876, Note_on_c, 0, 71, 41
1, 8876, Note_on_c, 0, 62, 28
1, 8876, Note_on_c, 0, 55, 33
1, 8880, Control_c, 0, 64, 0
1, 8892, Note_off_c, 0, 67, 64
1, 8924, Control_c, 0, 64, 127
1, 8948, Note_off_c, 0, 65, 64
1, 8952, Note_off_c, 0, 62, 64
1, 8952, Note_off_c, 0, 55, 64
1, 8984, Note_on_c, 0, 74, 39
1, 9004, Note_off_c, 0, 71, 64
1, 9072, Control_c, 0, 64, 0
1, 9100, Note_on_c, 0, 63, 28
1, 9100, Note_on_c, 0, 72, 39
1, 9100, Note_on_c, 0, 60, 32
1, 9104, Note_off_c, 0, 74, 64
1, 9144, Control_c, 0, 64, 127
1, 9176, Note_off_c, 0, 60, 64
1, 9300, Note_on_c, 0, 56, 33
1, 9300, Note_on_c, 0, 60, 33
1, 9308, Control_c, 0, 64, 0
1, 9344, Control_c, 0, 64, 127
1, 9372, Note_off_c, 0, 56, 64
1, 9376, Note_off_c, 0, 60, 64
1, 9408, Note_off_c, 0, 63, 64
1, 9524, Note_on_c, 0, 61, 36
1, 9528, Note_on_c, 0, 73, 44
1, 9528, Note_on_c, 0, 56, 33
1, 9528, Note_on_c, 0, 53, 33
1, 9548, Control_c, 0, 64, 0
1, 9572, Note_off_c, 0, 72, 64
1, 9592, Control_c, 0, 64, 127
1, 9600, Note_off_c, 0, 56, 64
1, 9600, Note_off_c, 0, 53, 64
1, 9660, Note_off_c, 0, 73, 64
1, 9660, Note_on_c, 0, 77, 39
1, 9732, Control_c, 0, 64, 0
1, 9744, Note_on_c, 0, 53, 33
1, 9748, Note_on_c, 0, 72, 42
1, 9748, Note_on_c, 0, 62, 33
1, 9748, Note_on_c, 0, 56, 35
1, 9756, Note_off_c, 0, 61, 64
1, 9784, Control_c, 0, 64, 127
1, 9788, Note_off_c, 0, 77, 64
1, 9820, Note_off_c, 0, 53, 64
1, 9820, Note_off_c, 0, 56, 64
1, 9988, Note_on_c, 0, 58, 39
1, 9988, Note_on_c, 0, 55, 37
1, 9996, Control_c, 0, 64, 0
1, 10036, Control_c, 0, 64, 127
1, 10064, Note_off_c, 0, 55, 64
1, 10096, Note_off_c, 0, 58, 64
1, 10252, Note_on_c, 0, 58, 39
1, 10252, Note_on_c, 0, 63, 40
1, 10252, Note_on_c, 0, 55, 36
1, 10264, Note_off_c, 0, 62, 64
1, 10268, Control_c, 0, 64, 0
1, 10304, Control_c, 0, 64, 127
1, 10372, Note_off_c, 0, 58, 64
1, 10372, Note_off_c, 0, 55, 64
1, 10412, Note_on_c, 0, 70, 53
1, 10432, Note_off_c, 0, 72, 64
1, 10536, Note_on_c, 0, 64, 36
1, 10540, Note_on_c, 0, 61, 32
1, 10540, Note_on_c, 0, 55, 32
1, 10540, Note_on_c, 0, 72, 50
1, 10556, Note_off_c, 0, 70, 64
1, 10568, Control_c, 0, 64, 0
1, 10572, Note_off_c, 0, 63, 64
1, 10640, Control_c, 0, 64, 127
1, 10644, Note_off_c, 0, 61, 64
1, 10664, Note_off_c, 0, 55, 64
1, 10744, Note_on_c, 0, 70, 54
1, 10772, Note_off_c, 0, 72, 64
1, 10856, Control_c, 0, 64, 0
1, 10868, Note_off_c, 0, 64, 64
1, 10876, Note_on_c, 0, 60, 33
1, 10876, Note_on_c, 0, 56, 24
1, 10876, Note_on_c, 0, 68, 52
1, 10876, Note_on_c, 0, 63, 35
1, 10888, Note_off_c, 0, 70, 64
1, 10904, Control_c, 0, 64, 127
1, 10924, Note_on_c, 0, 70, 49
1, 10944, Note_off_c, 0, 68, 64
1, 10948, Note_off_c, 0, 60, 64
1, 10948, Note_off_c, 0, 56, 64
1, 10952, Note_off_c, 0, 63, 64
1, 11000, Note_on_c, 0, 68, 48
1, 11016, Note_off_c, 0, 70, 64
1, 11036, Control_c, 0, 64, 0
1, 11072, Note_on_c, 0, 61, 18
1, 11072, Note_on_c, 0, 56, 23
1, 11076, Note_on_c, 0, 67, 46
1, 11076, Note_on_c, 0, 64, 35
1, 11108, Control_c, 0, 64, 127
1, 11112, Note_off_c, 0, 68, 64
1, 11148, Note_off_c, 0, 61, 64
1, 11148, Note_off_c, 0, 56, 64
1, 11148, Note_off_c, 0, 64, 64
1, 11164, Note_on_c, 0, 68, 53
1, 11196, Note_off_c, 0, 67, 64
1, 11236, Control_c, 0, 64, 0
1, 11260, Note_on_c, 0, 64, 37
1, 11260, Note_on_c, 0, 61, 37
1, 11260, Note_on_c, 0, 56, 36
1, 11260, Note_on_c, 0, 70, 55
1, 11284, Note_off_c, 0, 68, 64
1, 11284, Control_c, 0, 64, 127
1, 11332, Note_off_c, 0, 64, 64
1, 11332, Note_off_c, 0, 61, 64
1, 11332, Note_off_c, 0, 56, 64
1, 11356, Note_on_c, 0, 72, 49
1, 11364, Note_off_c, 0, 70, 64
1, 11440, Control_c, 0, 64, 0
1, 11448, Note_on_c, 0, 55, 40
1, 11452, Note_on_c, 0, 73, 55
1, 11452, Note_on_c, 0, 64, 42
1, 11452, Note_on_c, 0, 58, 40
1, 11472, Note_off_c, 0, 72, 64
1, 11500, Control_c, 0, 64, 127
1, 11516, Note_on_c, 0, 75, 53
1, 11520, Note_off_c, 0, 55, 64
1, 11524, Note_off_c, 0, 64, 64
1, 11524, Note_off_c, 0, 58, 64
1, 11528, Note_off_c, 0, 73, 64
1, 11584, Note_on_c, 0, 73, 52
1, 11592, Note_off_c, 0, 75, 64
1, 11636, Control_c, 0, 64, 0
1, 11660, Note_on_c, 0, 72, 55
1, 11660, Note_on_c, 0, 60, 45
1, 11660, Note_on_c, 0, 56, 36
1, 11660, Control_c, 0, 64, 127
1, 11664, Note_on_c, 0, 63, 44
1, 11664, Note_on_c, 0, 56, 42
1, 11668, Note_off_c, 0, 73, 64
1, 11700, Control_c, 0, 64, 127
1, 11732, Note_on_c, 0, 73, 55
1, 11736, Note_off_c, 0, 60, 64
1, 11736, Note_off_c, 0, 56, 64
1, 11740, Note_off_c, 0, 63, 64
1, 11740, Note_off_c, 0, 56, 64
1, 11748, Note_off_c, 0, 72, 64
1, 11844, Note_on_c, 0, 75, 53
1, 11844, Note_on_c, 0, 63, 40
1, 11848, Note_on_c, 0, 58, 35
1, 11848, Note_on_c, 0, 55, 28
1, 11860, Note_off_c, 0, 73, 64
1, 11916, Note_off_c, 0, 63, 64
1, 11920, Note_off_c, 0, 58, 64
1, 11920, Note_off_c, 0, 55, 64
1, 12032, Control_c, 0, 64, 0
1, 12052, Note_on_c, 0, 65, 48
1, 12052, Note_on_c, 0, 61, 49
1, 12052, Note_on_c, 0, 53, 42
1, 12056, Note_on_c, 0, 80, 72
1, 12080, Note_off_c, 0, 75, 64
1, 12092, Control_c, 0, 64, 127
1, 12124, Note_off_c, 0, 65, 64
1, 12124, Note_off_c, 0, 61, 64
1, 12124, Note_off_c, 0, 53, 64
1, 12160, Note_off_c, 0, 80, 64
1, 12204, Note_on_c, 0, 73, 58
1, 12236, Control_c, 0, 64, 0
1, 12284, Note_on_c, 0, 51, 44
1, 12288, Note_on_c, 0, 72, 55
1, 12288, Note_on_c, 0, 63, 48
1, 12288, Note_on_c, 0, 56, 15
1, 12308, Note_off_c, 0, 73, 64
1, 12308, Control_c, 0, 64, 127
1, 12360, Note_off_c, 0, 51, 64
1, 12360, Note_on_c, 0, 75, 49
1, 12364, Note_off_c, 0, 63, 64
1, 12364, Note_off_c, 0, 56, 64
1, 12372, Note_off_c, 0, 72, 64
1, 12424, Control_c, 0, 64, 0
1, 12448, Control_c, 0, 64, 127
1, 12468, Note_on_c, 0, 63, 49
1, 12468, Note_on_c, 0, 60, 48
1, 12472, Note_on_c, 0, 68, 62
1, 12472, Note_on_c, 0, 51, 44
1, 12484, Note_off_c, 0, 75, 64
1, 12540, Note_off_c, 0, 63, 64
1, 12540, Note_off_c, 0, 60, 64
1, 12544, Note_off_c, 0, 51, 64
1, 12544, Note_on_c, 0, 69, 52
1, 12572, Note_off_c, 0, 68, 64
1, 12608, Control_c, 0, 64, 0
1, 12636, Note_on_c, 0, 70, 55
1, 12640, Note_on_c, 0, 63, 49
1, 12640, Note_on_c, 0, 61, 44
1, 12640, Note_on_c, 0, 51, 42
1, 12652, Note_off_c, 0, 69, 64
1, 12680, Control_c, 0, 64, 127
1, 12716, Note_off_c, 0, 63, 64
1, 12716, Note_off_c, 0, 61, 64
1, 12716, Note_off_c, 0, 51, 64
1, 12724, Note_on_c, 0, 73, 61
1, 12744, Note_off_c, 0, 70, 64
1, 12808, Control_c, 0, 64, 0
1, 12812, Note_on_c, 0, 63, 37
1, 12816, Note_on_c, 0, 65, 57
1, 12816, Note_on_c, 0, 61, 40
1, 12820, Note_on_c, 0, 51, 36
1, 12836, Note_off_c, 0, 73, 64
1, 12864, Control_c, 0, 64, 127
1, 12884, Note_off_c, 0, 61, 64
1, 12888, Note_off_c, 0, 63, 64
1, 12892, Note_off_c, 0, 51, 64
1, 12904, Note_on_c, 0, 67, 54
1, 12928, Note_off_c, 0, 65, 64
1, 13000, Note_on_c, 0, 63, 45
1, 13004, Note_on_c, 0, 60, 48
1, 13008, Note_on_c, 0, 56, 27
1, 13012, Note_on_c, 0, 68, 58
1, 13012, Control_c, 0, 64, 0
1, 13040, Note_off_c, 0, 67, 64
1, 13072, Note_off_c, 0, 63, 64
1, 13076, Control_c, 0, 64, 127
1, 13080, Note_off_c, 0, 60, 64
1, 13084, Note_off_c, 0, 56, 64
1, 13280, Note_on_c, 0, 63, 35
1, 13280, Note_on_c, 0, 60, 29
1, 13280, Note_on_c, 0, 56, 31
1, 13312, Control_c, 0, 64, 0
1, 13340, Control_c, 0, 64, 127
1, 13356, Note_off_c, 0, 63, 64
1, 13356, Note_off_c, 0, 60, 64
1, 13356, Note_off_c, 0, 56, 64
1, 13364, Control_c, 0, 64, 127
1, 13400, Note_on_c, 0, 70, 26
1, 13428, Note_off_c, 0, 68, 64
1, 13448, Note_on_c, 0, 68, 41
1, 13468, Note_off_c, 0, 70, 64
1, 13484, Control_c, 0, 64, 0
1, 13500, Note_on_c, 0, 61, 48
1, 13500, Note_on_c, 0, 56, 36
1, 13508, Note_on_c, 0, 67, 41
1, 13508, Note_on_c, 0, 64, 45
1, 13528, Note_off_c, 0, 68, 64
1, 13548, Control_c, 0, 64, 127
1, 13572, Note_off_c, 0, 61, 64
1, 13572, Note_off_c, 0, 56, 64
1, 13580, Note_off_c, 0, 64, 64
1, 13620, Note_off_c, 0, 67, 64
1, 13656, Control_c, 0, 64, 0
1, 13660, Note_on_c, 0, 68, 42
1, 13676, Control_c, 0, 64, 127
1, 13688, Note_on_c, 0, 70, 36
1, 13692, Note_on_c, 0, 64, 29
1, 13692, Note_on_c, 0, 61, 36
1, 13692, Note_on_c, 0, 56, 33
1, 13708, Note_off_c, 0, 68, 64
1, 13768, Note_off_c, 0, 64, 64
1, 13768, Note_off_c, 0, 61, 64
1, 13768, Note_off_c, 0, 56, 64
1, 13792, Note_on_c, 0, 72, 41
1, 13800, Tempo, 500000
1, 13800, Note_off_c, 0, 70, 64
1, 13860, Note_on_c, 0, 64, 52
1, 13860, Note_on_c, 0, 58, 46
1, 13860, Note_on_c, 0, 55, 48
1, 13860, Control_c, 0, 64, 0
1, 13876, Note_on_c, 0, 73, 48
1, 13908, Note_off_c, 0, 72, 64
1, 13924, Control_c, 0, 64, 127
1, 13932, Note_off_c, 0, 64, 64
1, 13932, Note_off_c, 0, 58, 64
1, 13932, Note_off_c, 0, 55, 64
1, 13944, Note_on_c, 0, 75, 48
1, 13960, Note_off_c, 0, 73, 64
1, 14004, Note_on_c, 0, 73, 41
1, 14012, Note_off_c, 0, 75, 64
1, 14056, Note_on_c, 0, 63, 41
1, 14056, Note_on_c, 0, 60, 36
1, 14056, Note_on_c, 0, 56, 36
1, 14064, Note_on_c, 0, 72, 48
1, 14076, Control_c, 0, 64, 0
1, 14084, Note_off_c, 0, 73, 64
1, 14100, Control_c, 0, 64, 127
1, 14128, Note_off_c, 0, 63, 64
1, 14128, Note_off_c, 0, 60, 64
1, 14128, Note_off_c, 0, 56, 64
1, 14144, Note_off_c, 0, 72, 64
1, 14148, Note_on_c, 0, 73, 44
1, 14164, Note_off_c, 0, 73, 64
1, 14180, Note_on_c, 0, 73, 46
1, 14208, Note_off_c, 0, 73, 64
1, 14220, Note_on_c, 0, 74, 45
1, 14224, Note_on_c, 0, 63, 40
1, 14224, Note_on_c, 0, 60, 33
1, 14224, Note_on_c, 0, 56, 35
1, 14280, Note_on_c, 0, 75, 59
1, 14300, Note_off_c, 0, 63, 64
1, 14300, Note_off_c, 0, 60, 64
1, 14300, Note_off_c, 0, 56, 64
1, 14316, Note_off_c, 0, 74, 64
1, 14320, Note_off_c, 0, 75, 64
1, 14380, Note_on_c, 0, 75, 58
1, 14452, Note_on_c, 0, 80, 62
1, 14452, Note_on_c, 0, 61, 48
1, 14452, Note_on_c, 0, 56, 55
1, 14452, Note_on_c, 0, 53, 49
1, 14456, Note_on_c, 0, 65, 40
1, 14468, Control_c, 0, 64, 0
1, 14476, Note_off_c, 0, 75, 64
1, 14540, Note_off_c, 0, 65, 64
1, 14556, Note_off_c, 0, 61, 64
1, 14556, Control_c, 0, 64, 127
1, 14580, Note_off_c, 0, 53, 64
1, 14592, Note_off_c, 0, 80, 64
1, 14596, Note_off_c, 0, 56, 64
1, 14644, Note_on_c, 0, 73, 58
1, 14692, Control_c, 0, 64, 0
1, 14716, Note_on_c, 0, 72, 53
1, 14720, Note_on_c, 0, 63, 45
1, 14724, Note_on_c, 0, 56, 32
1, 14724, Note_on_c, 0, 51, 40
1, 14728, Note_off_c, 0, 73, 64
1, 14760, Control_c, 0, 64, 127
1, 14796, Note_off_c, 0, 63, 64
1, 14796, Note_off_c, 0, 56, 64
1, 14796, Note_off_c, 0, 51, 64
1, 14820, Note_on_c, 0, 75, 48
1, 14828, Note_off_c, 0, 72, 64
1, 14892, Control_c, 0, 64, 0
1, 14912, Control_c, 0, 64, 127
1, 14924, Note_on_c, 0, 68, 65
1, 14924, Note_on_c, 0, 63, 44
1, 14924, Note_on_c, 0, 60, 40
1, 14924, Note_on_c, 0, 51, 36
1, 14940, Note_off_c, 0, 75, 64
1, 14996, Note_off_c, 0, 63, 64
1, 15000, Note_off_c, 0, 60, 64
1, 15000, Note_off_c, 0, 51, 64
1, 15008, Note_on_c, 0, 69, 46
1, 15020, Note_off_c, 0, 68, 64
1, 15092, Control_c, 0, 64, 0
1, 15100, Note_on_c, 0, 63, 45
1, 15104, Note_on_c, 0, 61, 40
1, 15108, Note_on_c, 0, 70, 58
1, 15108, Note_on_c, 0, 51, 44
1, 15132, Note_off_c, 0, 69, 64
1, 15140, Control_c, 0, 64, 127
1, 15176, Note_off_c, 0, 63, 64
1, 15180, Note_off_c, 0, 61, 64
1, 15180, Note_off_c, 0, 51, 64
1, 15216, Note_on_c, 0, 73, 59
1, 15228, Note_off_c, 0, 70, 64
1, 15304, Note_on_c, 0, 51, 37
1, 15304, Note_on_c, 0, 63, 41
1, 15308, Note_on_c, 0, 61, 36
1, 15308, Note_on_c, 0, 65, 58
1, 15332, Note_off_c, 0, 73, 64
1, 15376, Note_off_c, 0, 51, 64
1, 15376, Note_off_c, 0, 63, 64
1, 15380, Note_off_c, 0, 61, 64
1, 15428, Note_on_c, 0, 67, 54
1, 15448, Note_off_c, 0, 65, 64
1, 15460, Control_c, 0, 64, 0
1, 15516, Note_on_c, 0, 63, 49
1, 15516, Note_on_c, 0, 60, 48
1, 15516, Note_on_c, 0, 56, 36
1, 15520, Note_on_c, 0, 68, 65
1, 15548, Control_c, 0, 64, 127
1, 15556, Note_off_c, 0, 67, 64
1, 15592, Note_off_c, 0, 63, 64
1, 15592, Note_off_c, 0, 60, 64
1, 15592, Note_off_c, 0, 56, 64
1, 15680, Note_off_c, 0, 68, 64
1, 15876, Control_c, 0, 64, 0
1, 15892, Note_on_c, 0, 72, 58
1, 15892, Note_on_c, 0, 48, 58
1, 15956, Control_c, 0, 64, 127
1, 16076, Control_c, 0, 64, 0
1, 16096, Note_on_c, 0, 84, 49
1, 16096, Note_on_c, 0, 64, 36
1, 16096, Note_on_c, 0, 60, 24
1, 16100, Note_on_c, 0, 55, 36
1, 16124, Note_off_c, 0, 48, 64
1, 16148, Control_c, 0, 64, 127
1, 16172, Note_off_c, 0, 64, 64
1, 16172, Note_off_c, 0, 60, 64
1, 16172, Note_off_c, 0, 55, 64
1, 16196, Note_off_c, 0, 72, 64
1, 16212, Note_off_c, 0, 84, 64
1, 16252, Note_on_c, 0, 82, 58
1, 16300, Note_on_c, 0, 65, 49
1, 16300, Note_on_c, 0, 60, 48
1, 16300, Note_on_c, 0, 53, 36
1, 16304, Note_on_c, 0, 80, 59
1, 16308, Control_c, 0, 64, 0
1, 16328, Note_off_c, 0, 82, 64
1, 16356, Control_c, 0, 64, 127
1, 16372, Note_off_c, 0, 65, 64
1, 16372, Note_off_c, 0, 60, 64
1, 16372, Note_off_c, 0, 53, 64
1, 16480, Control_c, 0, 64, 0
1, 16496, Note_on_c, 0, 65, 46
1, 16496, Note_on_c, 0, 55, 42
1, 16500, Note_on_c, 0, 59, 49
1, 16524, Control_c, 0, 64, 127
1, 16572, Note_off_c, 0, 65, 64
1, 16572, Note_off_c, 0, 55, 64
1, 16572, Note_off_c, 0, 59, 64
1, 16588, Note_on_c, 0, 79, 52
1, 16600, Note_off_c, 0, 80, 64
1, 16648, Note_on_c, 0, 82, 61
1, 16652, Note_off_c, 0, 79, 64
1, 16668, Control_c, 0, 64, 0
1, 16696, Note_on_c, 0, 55, 36
1, 16700, Note_on_c, 0, 65, 40
1, 16700, Note_on_c, 0, 59, 42
1, 16700, Note_on_c, 0, 80, 55
1, 16724, Control_c, 0, 64, 127
1, 16732, Note_off_c, 0, 82, 64
1, 16768, Note_off_c, 0, 55, 64
1, 16772, Note_off_c, 0, 65, 64
1, 16772, Note_off_c, 0, 59, 64
1, 16776, Note_on_c, 0, 79, 55
1, 16812, Note_off_c, 0, 80, 64
1, 16852, Control_c, 0, 64, 0
1, 16876, Tempo, 500000
1, 16876, Note_on_c, 0, 74, 46
1, 16876, Note_on_c, 0, 65, 36
1, 16876, Note_on_c, 0, 59, 49
1, 16876, Note_on_c, 0, 55, 39
1, 16908, Note_off_c, 0, 79, 64
1, 16916, Control_c, 0, 64, 127
1, 16944, Note_off_c, 0, 65, 64
1, 16948, Note_off_c, 0, 55, 64
1, 16948, Note_off_c, 0, 59, 64
1, 17056, Control_c, 0, 64, 0
1, 17072, Note_on_c, 0, 60, 36
1, 17072, Note_on_c, 0, 72, 48
1, 17072, Note_on_c, 0, 56, 40
1, 17072, Note_on_c, 0, 63, 42
1, 17088, Note_off_c, 0, 74, 64
1, 17132, Control_c, 0, 64, 127
1, 17144, Note_off_c, 0, 60, 64
1, 17144, Note_off_c, 0, 56, 64
1, 17148, Note_off_c, 0, 63, 64
1, 17192, Note_off_c, 0, 72, 64
1, 17204, Note_on_c, 0, 72, 55
1, 17256, Control_c, 0, 64, 0
1, 17280, Note_on_c, 0, 64, 42
1, 17284, Note_on_c, 0, 84, 58
1, 17284, Note_on_c, 0, 60, 37
1, 17284, Note_on_c, 0, 55, 49
1, 17324, Control_c, 0, 64, 127
1, 17344, Note_off_c, 0, 72, 64
1, 17356, Note_off_c, 0, 64, 64
1, 17356, Note_off_c, 0, 60, 64
1, 17356, Note_off_c, 0, 55, 64
1, 17404, Note_off_c, 0, 84, 64
1, 17432, Note_on_c, 0, 82, 61
1, 17476, Note_on_c, 0, 53, 48
1, 17480, Note_on_c, 0, 80, 59
1, 17480, Note_on_c, 0, 65, 46
1, 17480, Note_on_c, 0, 60, 45
1, 17480, Control_c, 0, 64, 0
1, 17500, Note_off_c, 0, 82, 64
1, 17508, Control_c, 0, 64, 127
1, 17548, Note_off_c, 0, 53, 64
1, 17552, Note_off_c, 0, 65, 64
1, 17556, Note_off_c, 0, 60, 64
1, 17660, Control_c, 0, 64, 0
1, 17680, Note_on_c, 0, 65, 48
1, 17680, Note_on_c, 0, 59, 50
1, 17680, Note_on_c, 0, 55, 49
1, 17696, Control_c, 0, 64, 127
1, 17752, Note_off_c, 0, 65, 64
1, 17752, Note_off_c, 0, 59, 64
1, 17756, Note_off_c, 0, 55, 64
1, 17760, Note_on_c, 0, 79, 54
1, 17772, Note_off_c, 0, 80, 64
1, 17812, Note_on_c, 0, 82, 58
1, 17824, Note_off_c, 0, 79, 64
1, 17844, Control_c, 0, 64, 0
1, 17864, Note_on_c, 0, 80, 61
1, 17864, Note_on_c, 0, 65, 48
1, 17864, Note_on_c, 0, 59, 49
1, 17868, Note_on_c, 0, 55, 42
1, 17896, Note_off_c, 0, 82, 64
1, 17900, Control_c, 0, 64, 127
1, 17940, Note_off_c, 0, 65, 64
1, 17940, Note_off_c, 0, 59, 64
1, 17944, Note_off_c, 0, 55, 64
1, 17960, Note_off_c, 0, 80, 64
1, 18008, Note_on_c, 0, 79, 58
1, 18036, Control_c, 0, 64, 0
1, 18060, Note_on_c, 0, 65, 49
1, 18060, Note_on_c, 0, 55, 45
1, 18068, Note_on_c, 0, 74, 49
1, 18068, Note_on_c, 0, 59, 44
1, 18080, Note_off_c, 0, 79, 64
1, 18088, Control_c, 0, 64, 127
1, 18136, Note_off_c, 0, 65, 64
1, 18136, Note_off_c, 0, 55, 64
1, 18144, Note_off_c, 0, 59, 64
1, 18248, Control_c, 0, 64, 0
1, 18256, Note_on_c, 0, 63, 32
1, 18256, Note_on_c, 0, 56, 28
1, 18256, Note_on_c, 0, 72, 39
1, 18256, Note_on_c, 0, 60, 22
1, 18264, Note_off_c, 0, 74, 64
1, 18328, Note_off_c, 0, 63, 64
1, 18328, Note_off_c, 0, 56, 64
1, 18332, Note_off_c, 0, 60, 64
1, 18332, Control_c, 0, 64, 127
1, 18456, Note_on_c, 0, 73, 36
1, 18456, Note_on_c, 0, 61, 31
1, 18456, Note_on_c, 0, 53, 28
1, 18456, Control_c, 0, 64, 0
1, 18460, Note_on_c, 0, 56, 28
1, 18496, Note_off_c, 0, 72, 64
1, 18520, Control_c, 0, 64, 127
1, 18532, Note_off_c, 0, 61, 64
1, 18532, Note_off_c, 0, 53, 64
1, 18536, Note_off_c, 0, 56, 64
1, 18600, Note_on_c, 0, 77, 31
1, 18608, Note_off_c, 0, 73, 64
1, 18656, Note_on_c, 0, 62, 28
1, 18664, Note_on_c, 0, 56, 29
1, 18664, Control_c, 0, 64, 0
1, 18668, Note_on_c, 0, 53, 28
1, 18684, Note_on_c, 0, 72, 37
1, 18704, Note_off_c, 0, 77, 64
1, 18704, Control_c, 0, 64, 127
1, 18728, Note_off_c, 0, 62, 64
1, 18736, Note_off_c, 0, 56, 64
1, 18744, Note_off_c, 0, 53, 64
1, 18864, Control_c, 0, 64, 0
1, 18872, Note_on_c, 0, 65, 32
1, 18872, Note_on_c, 0, 71, 39
1, 18872, Note_on_c, 0, 62, 31
1, 18872, Note_on_c, 0, 55, 28
1, 18880, Note_off_c, 0, 72, 64
1, 18928, Control_c, 0, 64, 127
1, 18948, Note_off_c, 0, 65, 64
1, 18948, Note_off_c, 0, 62, 64
1, 18948, Note_off_c, 0, 55, 64
1, 18996, Note_off_c, 0, 71, 64
1, 19016, Note_on_c, 0, 67, 31
1, 19068, Control_c, 0, 64, 0
1, 19096, Note_on_c, 0, 71, 39
1, 19096, Note_on_c, 0, 65, 24
1, 19096, Note_on_c, 0, 62, 16
1, 19096, Note_on_c, 0, 55, 28
1, 19124, Note_off_c, 0, 67, 64
1, 19140, Control_c, 0, 64, 127
1, 19168, Note_off_c, 0, 65, 64
1, 19168, Note_off_c, 0, 62, 64
1, 19172, Note_off_c, 0, 55, 64
1, 19212, Note_on_c, 0, 74, 28
1, 19236, Note_off_c, 0, 71, 64
1, 19284, Control_c, 0, 64, 0
1, 19292, Note_on_c, 0, 63, 26
1, 19292, Note_on_c, 0, 60, 28
1, 19300, Note_on_c, 0, 72, 39
1, 19328, Note_off_c, 0, 74, 64
1, 19348, Control_c, 0, 64, 127
1, 19368, Note_off_c, 0, 60, 64
1, 19400, Note_off_c, 0, 72, 64
1, 19576, Note_on_c, 0, 56, 27
1, 19580, Note_on_c, 0, 60, 22
1, 19608, Control_c, 0, 64, 0
1, 19632, Control_c, 0, 64, 127
1, 19656, Note_off_c, 0, 60, 64
1, 19664, Note_off_c, 0, 56, 64
1, 19784, Note_on_c, 0, 61, 26
1, 19788, Note_on_c, 0, 73, 39
1, 19788, Note_on_c, 0, 56, 18
1, 19788, Note_on_c, 0, 53, 26
1, 19792, Note_off_c, 0, 63, 64
1, 19804, Control_c, 0, 64, 0
1, 19844, Note_off_c, 0, 53, 64
1, 19848, Note_off_c, 0, 56, 64
1, 19848, Control_c, 0, 64, 127
1, 19936, Note_on_c, 0, 77, 33
1, 19940, Note_off_c, 0, 73, 64
1, 19996, Note_on_c, 0, 72, 36
1, 19996, Note_on_c, 0, 56, 27
1, 19996, Note_on_c, 0, 53, 27
1, 20000, Note_on_c, 0, 62, 27
1, 20016, Note_off_c, 0, 61, 64
1, 20024, Control_c, 0, 64, 0
1, 20048, Note_off_c, 0, 53, 64
1, 20064, Note_off_c, 0, 77, 64
1, 20064, Control_c, 0, 64, 127
1, 20072, Note_off_c, 0, 56, 64
1, 20192, Note_off_c, 0, 62, 64
1, 20240, Note_on_c, 0, 62, 36
1, 20240, Note_on_c, 0, 58, 36
1, 20248, Note_on_c, 0, 55, 32
1, 20264, Control_c, 0, 64, 0
1, 20300, Control_c, 0, 64, 127
1, 20348, Note_off_c, 0, 55, 64
1, 20352, Note_off_c, 0, 58, 64
1, 20488, Note_on_c, 0, 63, 37
1, 20496, Note_on_c, 0, 58, 31
1, 20504, Note_off_c, 0, 62, 64
1, 20504, Note_on_c, 0, 55, 24
1, 20512, Control_c, 0, 64, 0
1, 20532, Note_off_c, 0, 72, 64
1, 20552, Control_c, 0, 64, 127
1, 20604, Note_off_c, 0, 55, 64
1, 20612, Note_off_c, 0, 58, 64
1, 20652, Note_on_c, 0, 70, 57
1, 20796, Note_on_c, 0, 72, 46
1, 20796, Note_on_c, 0, 55, 32
1, 20804, Note_off_c, 0, 70, 64
1, 20804, Note_on_c, 0, 61, 31
1, 20808, Note_off_c, 0, 63, 64
1, 20812, Note_on_c, 0, 64, 33
1, 20824, Control_c, 0, 64, 0
1, 20880, Control_c, 0, 64, 127
1, 20904, Note_off_c, 0, 64, 64
1, 20912, Note_off_c, 0, 61, 64
1, 20916, Note_off_c, 0, 55, 64
1, 20968, Note_on_c, 0, 70, 57
1, 20984, Note_off_c, 0, 72, 64
1, 21024, Note_off_c, 0, 70, 64
1, 21088, Control_c, 0, 64, 0
1, 21108, Note_on_c, 0, 63, 36
1, 21112, Note_on_c, 0, 60, 29
1, 21112, Note_on_c, 0, 68, 52
1, 21112, Note_on_c, 0, 56, 24
1, 21144, Control_c, 0, 64, 127
1, 21168, Note_on_c, 0, 70, 55
1, 21176, Note_off_c, 0, 68, 64
1, 21180, Note_off_c, 0, 63, 64
1, 21184, Note_off_c, 0, 60, 64
1, 21184, Note_off_c, 0, 56, 64
1, 21240, Note_on_c, 0, 68, 50
1, 21256, Note_off_c, 0, 70, 64
1, 21260, Control_c, 0, 64, 0
1, 21324, Note_on_c, 0, 67, 50
1, 21328, Note_on_c, 0, 61, 18
1, 21332, Note_on_c, 0, 64, 35
1, 21332, Note_on_c, 0, 56, 28
1, 21344, Note_off_c, 0, 68, 64
1, 21348, Control_c, 0, 64, 127
1, 21396, Note_on_c, 0, 68, 50
1, 21400, Note_off_c, 0, 61, 64
1, 21404, Note_off_c, 0, 64, 64
1, 21404, Note_off_c, 0, 56, 64
1, 21440, Note_off_c, 0, 67, 64
1, 21464, Control_c, 0, 64, 0
1, 21484, Control_c, 0, 64, 127
1, 21496, Tempo, 500000
1, 21496, Note_on_c, 0, 70, 55
1, 21496, Note_on_c, 0, 64, 36
1, 21496, Note_on_c, 0, 56, 33
1, 21496, Note_on_c, 0, 61, 37
1, 21512, Note_off_c, 0, 68, 64
1, 21564, Note_off_c, 0, 64, 64
1, 21568, Note_off_c, 0, 56, 64
1, 21568, Note_off_c, 0, 61, 64
1, 21580, Note_on_c, 0, 72, 52
1, 21584, Note_off_c, 0, 70, 64
1, 21664, Control_c, 0, 64, 0
1, 21668, Note_on_c, 0, 73, 55
1, 21676, Note_on_c, 0, 64, 42
1, 21680, Note_on_c, 0, 58, 44
1, 21680, Note_on_c, 0, 55, 42
1, 21700, Note_off_c, 0, 72, 64
1, 21716, Control_c, 0, 64, 127
1, 21724, Note_on_c, 0, 75, 55
1, 21748, Note_off_c, 0, 73, 64
1, 21748, Note_off_c, 0, 64, 64
1, 21752, Note_off_c, 0, 58, 64
1, 21756, Note_off_c, 0, 55, 64
1, 21788, Note_on_c, 0, 73, 49
1, 21800, Note_off_c, 0, 75, 64
1, 21816, Control_c, 0, 64, 0
1, 21840, Control_c, 0, 64, 127
1, 21868, Note_on_c, 0, 63, 45
1, 21868, Note_on_c, 0, 60, 16
1, 21872, Note_on_c, 0, 72, 48
1, 21872, Note_on_c, 0, 56, 48
1, 21880, Note_off_c, 0, 73, 64
1, 21940, Note_off_c, 0, 63, 64
1, 21940, Note_off_c, 0, 60, 64
1, 21944, Note_off_c, 0, 56, 64
1, 21944, Note_on_c, 0, 73, 36
1, 21952, Note_off_c, 0, 72, 64
1, 21996, Control_c, 0, 64, 0
1, 22016, Control_c, 0, 64, 127
1, 22028, Note_on_c, 0, 75, 54
1, 22048, Note_off_c, 0, 73, 64
1, 22048, Note_on_c, 0, 63, 44
1, 22048, Note_on_c, 0, 55, 36
1, 22052, Note_on_c, 0, 58, 28
1, 22120, Note_off_c, 0, 63, 64
1, 22120, Note_off_c, 0, 55, 64
1, 22124, Note_off_c, 0, 58, 64
1, 22212, Note_on_c, 0, 61, 49
1, 22212, Note_on_c, 0, 56, 45
1, 22216, Note_on_c, 0, 80, 61
1, 22216, Note_on_c, 0, 53, 49
1, 22220, Note_on_c, 0, 65, 45
1, 22240, Note_off_c, 0, 75, 64
1, 22248, Control_c, 0, 64, 0
1, 22268, Control_c, 0, 64, 127
1, 22336, Note_off_c, 0, 61, 64
1, 22336, Note_off_c, 0, 56, 64
1, 22340, Note_off_c, 0, 80, 64
1, 22340, Note_off_c, 0, 53, 64
1, 22340, Note_off_c, 0, 65, 64
1, 22392, Note_on_c, 0, 73, 52
1, 22420, Control_c, 0, 64, 0
1, 22452, Note_on_c, 0, 72, 48
1, 22452, Note_on_c, 0, 63, 40
1, 22452, Note_on_c, 0, 56, 24
1, 22460, Note_on_c, 0, 51, 36
1, 22476, Note_off_c, 0, 73, 64
1, 22488, Control_c, 0, 64, 127
1, 22524, Note_off_c, 0, 63, 64
1, 22528, Note_off_c, 0, 56, 64
1, 22532, Note_off_c, 0, 51, 64
1, 22556, Note_on_c, 0, 75, 45
1, 22564, Note_off_c, 0, 72, 64
1, 22592, Control_c, 0, 64, 0
1, 22612, Control_c, 0, 64, 127
1, 22636, Note_on_c, 0, 60, 15
1, 22636, Note_on_c, 0, 51, 28
1, 22640, Note_on_c, 0, 63, 36
1, 22644, Note_on_c, 0, 68, 50
1, 22656, Note_off_c, 0, 75, 64
1, 22708, Note_off_c, 0, 60, 64
1, 22708, Note_off_c, 0, 51, 64
1, 22712, Note_off_c, 0, 63, 64
1, 22736, Note_on_c, 0, 69, 48
1, 22760, Note_off_c, 0, 68, 64
1, 22776, Control_c, 0, 64, 0
1, 22820, Note_on_c, 0, 51, 32
1, 22828, Note_on_c, 0, 70, 50
1, 22828, Note_on_c, 0, 63, 41
1, 22828, Note_on_c, 0, 61, 15
1, 22836, Control_c, 0, 64, 127
1, 22844, Note_off_c, 0, 69, 64
1, 22896, Note_off_c, 0, 51, 64
1, 22900, Note_off_c, 0, 63, 64
1, 22900, Note_off_c, 0, 61, 64
1, 22932, Note_on_c, 0, 73, 54
1, 22948, Note_off_c, 0, 70, 64
1, 22992, Control_c, 0, 64, 0
1, 23016, Note_on_c, 0, 65, 50
1, 23020, Note_on_c, 0, 61, 36
1, 23020, Note_on_c, 0, 63, 37
1, 23020, Note_on_c, 0, 51, 36
1, 23032, Note_off_c, 0, 73, 64
1, 23044, Control_c, 0, 64, 127
1, 23092, Note_off_c, 0, 51, 64
1, 23092, Note_off_c, 0, 61, 64
1, 23092, Note_off_c, 0, 63, 64
1, 23100, Note_on_c, 0, 67, 50
1, 23120, Note_off_c, 0, 65, 64
1, 23172, Control_c, 0, 64, 0
1, 23200, Note_on_c, 0, 68, 50
1, 23204, Note_on_c, 0, 63, 36
1, 23204, Note_on_c, 0, 60, 35
1, 23204, Note_on_c, 0, 56, 28
1, 23224, Note_off_c, 0, 67, 64
1, 23240, Control_c, 0, 64, 127
1, 23276, Note_off_c, 0, 63, 64
1, 23276, Note_off_c, 0, 60, 64
1, 23276, Note_off_c, 0, 56, 64
1, 23460, Control_c, 0, 64, 0
1, 23472, Note_on_c, 0, 63, 31
1, 23472, Note_on_c, 0, 60, 29
1, 23472, Note_on_c, 0, 56, 31
1, 23488, Control_c, 0, 64, 127
1, 23544, Note_off_c, 0, 63, 64
1, 23544, Note_off_c, 0, 60, 64
1, 23544, Note_off_c, 0, 56, 64
1, 23560, Note_on_c, 0, 70, 37
1, 23584, Note_off_c, 0, 68, 64
1, 23616, Note_on_c, 0, 68, 55
1, 23624, Control_c, 0, 64, 0
1, 23656, Note_off_c, 0, 70, 64
1, 23668, Control_c, 0, 64, 127
1, 23680, Note_on_c, 0, 67, 50
1, 23680, Note_on_c, 0, 64, 37
1, 23680, Note_on_c, 0, 61, 35
1, 23680, Note_on_c, 0, 56, 40
1, 23708, Note_off_c, 0, 68, 64
1, 23752, Note_off_c, 0, 64, 64
1, 23752, Note_off_c, 0, 61, 64
1, 23752, Note_off_c, 0, 56, 64
1, 23800, Note_off_c, 0, 67, 64
1, 23804, Note_on_c, 0, 68, 66
1, 23848, Note_on_c, 0, 56, 24
1, 23856, Note_on_c, 0, 70, 46
1, 23856, Note_on_c, 0, 64, 19
1, 23856, Note_on_c, 0, 61, 28
1, 23860, Note_off_c, 0, 68, 64
1, 23924, Note_off_c, 0, 56, 64
1, 23928, Note_off_c, 0, 64, 64
1, 23928, Note_off_c, 0, 61, 64
1, 23952, Note_on_c, 0, 72, 54
1, 23956, Note_off_c, 0, 70, 64
1, 23996, Control_c, 0, 64, 0
1, 24036, Note_on_c, 0, 73, 55
1, 24036, Note_on_c, 0, 64, 40
1, 24036, Note_on_c, 0, 58, 42
1, 24036, Note_on_c, 0, 55, 42
1, 24044, Control_c, 0, 64, 127
1, 24068, Note_off_c, 0, 72, 64
1, 24100, Note_on_c, 0, 75, 61
1, 24108, Note_off_c, 0, 73, 64
1, 24108, Note_off_c, 0, 64, 64
1, 24108, Note_off_c, 0, 58, 64
1, 24108, Note_off_c, 0, 55, 64
1, 24144, Control_c, 0, 64, 0
1, 24156, Note_on_c, 0, 73, 50
1, 24172, Control_c, 0, 64, 127
1, 24184, Note_off_c, 0, 75, 64
1, 24220, Note_on_c, 0, 72, 55
1, 24220, Note_on_c, 0, 63, 32
1, 24220, Note_on_c, 0, 60, 31
1, 24220, Note_on_c, 0, 56, 32
1, 24244, Note_off_c, 0, 73, 64
1, 24292, Note_off_c, 0, 63, 64
1, 24292, Note_off_c, 0, 60, 64
1, 24292, Note_off_c, 0, 56, 64
1, 24292, Note_on_c, 0, 73, 55
1, 24320, Note_off_c, 0, 72, 64
1, 24328, Note_off_c, 0, 73, 64
1, 24340, Note_on_c, 0, 73, 55
1, 24372, Note_off_c, 0, 73, 64
1, 24392, Note_on_c, 0, 74, 55
1, 24400, Note_on_c, 0, 63, 26
1, 24400, Note_on_c, 0, 58, 26
1, 24404, Note_on_c, 0, 55, 23
1, 24456, Note_on_c, 0, 75, 61
1, 24472, Note_off_c, 0, 63, 64
1, 24472, Note_off_c, 0, 58, 64
1, 24480, Note_off_c, 0, 55, 64
1, 24484, Note_off_c, 0, 74, 64
1, 24500, Note_off_c, 0, 75, 64
1, 24524, Note_on_c, 0, 75, 55
1, 24592, Control_c, 0, 64, 0
1, 24596, Note_on_c, 0, 61, 46
1, 24604, Note_on_c, 0, 80, 76
1, 24604, Note_on_c, 0, 53, 50
1, 24604, Note_on_c, 0, 56, 55
1, 24608, Note_on_c, 0, 65, 33
1, 24620, Note_off_c, 0, 75, 64
1, 24668, Control_c, 0, 64, 127
1, 24676, Note_off_c, 0, 56, 64
1, 24788, Note_on_c, 0, 73, 50
1, 24796, Note_off_c, 0, 61, 64
1, 24800, Note_off_c, 0, 80, 64
1, 24800, Note_off_c, 0, 53, 64
1, 24804, Note_off_c, 0, 65, 64
1, 24840, Control_c, 0, 64, 0
1, 24860, Note_on_c, 0, 72, 45
1, 24876, Note_on_c, 0, 63, 36
1, 24880, Note_on_c, 0, 56, 36
1, 24888, Note_off_c, 0, 73, 64
1, 24892, Note_on_c, 0, 51, 36
1, 24912, Control_c, 0, 64, 127
1, 24948, Note_off_c, 0, 63, 64
1, 24956, Note_off_c, 0, 72, 64
1, 24956, Note_off_c, 0, 56, 64
1, 24964, Note_off_c, 0, 51, 64
1, 24964, Note_on_c, 0, 75, 44
1, 25032, Note_off_c, 0, 75, 64
1, 25064, Note_on_c, 0, 68, 55
1, 25076, Note_on_c, 0, 63, 40
1, 25080, Note_on_c, 0, 60, 27
1, 25084, Note_on_c, 0, 51, 36
1, 25152, Note_off_c, 0, 63, 64
1, 25152, Note_off_c, 0, 60, 64
1, 25156, Note_on_c, 0, 69, 48
1, 25160, Note_off_c, 0, 51, 64
1, 25172, Note_off_c, 0, 68, 64
1, 25252, Note_on_c, 0, 51, 36
1, 25252, Note_on_c, 0, 70, 50
1, 25256, Note_on_c, 0, 61, 41
1, 25260, Note_off_c, 0, 69, 64
1, 25260, Note_on_c, 0, 63, 42
1, 25324, Note_off_c, 0, 51, 64
1, 25332, Note_off_c, 0, 61, 64
1, 25336, Note_off_c, 0, 63, 64
1, 25364, Note_on_c, 0, 73, 54
1, 25380, Note_off_c, 0, 70, 64
1, 25404, Control_c, 0, 64, 0
1, 25440, Note_off_c, 0, 73, 64
1, 25448, Control_c, 0, 64, 127
1, 25460, Note_on_c, 0, 65, 50
1, 25460, Note_on_c, 0, 51, 37
1, 25464, Note_on_c, 0, 63, 36
1, 25464, Note_on_c, 0, 61, 36
1, 25532, Note_off_c, 0, 51, 64
1, 25536, Note_off_c, 0, 63, 64
1, 25536, Note_off_c, 0, 61, 64
1, 25572, Note_on_c, 0, 67, 50
1, 25608, Note_off_c, 0, 65, 64
1, 25652, Note_on_c, 0, 68, 59
1, 25656, Control_c, 0, 64, 0
1, 25660, Note_on_c, 0, 56, 35
1, 25668, Note_on_c, 0, 63, 48
1, 25668, Note_on_c, 0, 60, 45
1, 25704, Note_off_c, 0, 67, 64
1, 25808, Control_c, 0, 64, 127
1, 25884, Note_off_c, 0, 68, 64
1, 25892, Note_off_c, 0, 56, 64
1, 25896, Note_off_c, 0, 63, 64
1, 25896, Note_off_c, 0, 60, 64
1, 26196, Note_on_c, 0, 78, 50
1, 26200, Note_on_c, 0, 66, 52
1, 26208, Note_on_c, 0, 49, 40
1, 26212, Note_on_c, 0, 60, 39
1, 26212, Note_on_c, 0, 56, 36
1, 26252, Note_off_c, 0, 49, 64
1, 26252, Control_c, 0, 64, 127
1, 26256, Note_off_c, 0, 60, 64
1, 26256, Note_off_c, 0, 56, 64
1, 26284, Note_on_c, 0, 77, 46
1, 26304, Note_off_c, 0, 66, 64
1, 26332, Note_off_c, 0, 78, 64
1, 26352, Control_c, 0, 64, 0
1, 26388, Note_on_c, 0, 75, 28
1, 26396, Control_c, 0, 64, 127
1, 26404, Note_off_c, 0, 77, 64
1, 26408, Note_on_c, 0, 56, 35
1, 26412, Note_on_c, 0, 60, 44
1, 26412, Note_on_c, 0, 49, 39
1, 26424, Note_on_c, 0, 66, 54
1, 26452, Note_off_c, 0, 56, 64
1, 26456, Note_off_c, 0, 60, 64
1, 26456, Note_off_c, 0, 49, 64
1, 26488, Note_on_c, 0, 77, 49
1, 26500, Note_off_c, 0, 75, 64
1, 26516, Note_off_c, 0, 66, 64
1, 26588, Control_c, 0, 64, 0
1, 26596, Note_on_c, 0, 73, 65
1, 26600, Note_off_c, 0, 77, 64
1, 26608, Note_on_c, 0, 65, 74
1, 26608, Note_on_c, 0, 61, 46
1, 26608, Note_on_c, 0, 56, 27
1, 26608, Note_on_c, 0, 49, 42
1, 26644, Control_c, 0, 64, 127
1, 26652, Note_off_c, 0, 65, 64
1, 26652, Note_off_c, 0, 61, 64
1, 26652, Note_off_c, 0, 56, 64
1, 26652, Note_off_c, 0, 49, 64
1, 26728, Note_off_c, 0, 73, 64
1, 26788, Control_c, 0, 64, 0
1, 26800, Note_on_c, 0, 70, 62
1, 26800, Note_on_c, 0, 67, 62
1, 26804, Note_on_c, 0, 63, 44
1, 26816, Note_on_c, 0, 58, 49
1, 26820, Note_on_c, 0, 49, 23
1, 26848, Note_off_c, 0, 63, 64
1, 26848, Control_c, 0, 64, 127
1, 26860, Note_off_c, 0, 58, 64
1, 26864, Note_off_c, 0, 49, 64
1, 26876, Note_off_c, 0, 67, 64
1, 26888, Note_on_c, 0, 75, 58
1, 26916, Note_off_c, 0, 70, 64
1, 26976, Control_c, 0, 64, 0
1, 26984, Note_on_c, 0, 66, 62
1, 26992, Note_on_c, 0, 63, 44
1, 26992, Note_on_c, 0, 70, 65
1, 26996, Note_on_c, 0, 57, 58
1, 27000, Note_on_c, 0, 49, 39
1, 27004, Note_off_c, 0, 75, 64
1, 27008, Control_c, 0, 64, 127
1, 27036, Note_off_c, 0, 63, 64
1, 27040, Note_off_c, 0, 57, 64
1, 27044, Note_off_c, 0, 49, 64
1, 27072, Note_off_c, 0, 66, 64
1, 27092, Note_on_c, 0, 72, 54
1, 27116, Note_off_c, 0, 70, 64
1, 27180, Control_c, 0, 64, 0
1, 27188, Note_on_c, 0, 66, 58
1, 27192, Note_on_c, 0, 68, 70
1, 27196, Note_on_c, 0, 60, 44
1, 27196, Note_on_c, 0, 49, 36
1, 27200, Note_on_c, 0, 56, 58
1, 27208, Note_off_c, 0, 72, 64
1, 27232, Control_c, 0, 64, 127
1, 27240, Note_off_c, 0, 60, 64
1, 27240, Note_off_c, 0, 49, 64
1, 27244, Note_off_c, 0, 56, 64
1, 27260, Note_off_c, 0, 66, 64
1, 27300, Note_off_c, 0, 68, 64
1, 27380, Control_c, 0, 64, 0
1, 27404, Note_on_c, 0, 49, 44
1, 27408, Note_on_c, 0, 56, 49
1, 27412, Note_on_c, 0, 78, 50
1, 27412, Note_on_c, 0, 66, 67
1, 27412, Note_on_c, 0, 60, 46
1, 27428, Control_c, 0, 64, 127
1, 27448, Note_off_c, 0, 49, 64
1, 27452, Note_off_c, 0, 56, 64
1, 27456, Note_off_c, 0, 60, 64
1, 27500, Note_on_c, 0, 77, 49
1, 27516, Note_off_c, 0, 66, 64
1, 27548, Note_off_c, 0, 78, 64
1, 27572, Control_c, 0, 64, 0
1, 27592, Note_on_c, 0, 56, 35
1, 27596, Note_on_c, 0, 75, 40
1, 27600, Note_on_c, 0, 60, 44
1, 27600, Note_on_c, 0, 66, 71
1, 27600, Control_c, 0, 64, 127
1, 27604, Note_on_c, 0, 49, 44
1, 27628, Note_off_c, 0, 77, 64
1, 27636, Note_off_c, 0, 56, 64
1, 27644, Note_off_c, 0, 60, 64
1, 27648, Note_off_c, 0, 49, 64
1, 27676, Note_off_c, 0, 66, 64
1, 27676, Note_on_c, 0, 77, 53
1, 27740, Note_off_c, 0, 75, 64
1, 27764, Control_c, 0, 64, 0
1, 27796, Note_on_c, 0, 65, 74
1, 27800, Note_on_c, 0, 73, 58
1, 27800, Note_on_c, 0, 49, 44
1, 27804, Note_on_c, 0, 61, 39
1, 27808, Note_on_c, 0, 56, 46
1, 27812, Note_off_c, 0, 77, 64
1, 27816, Control_c, 0, 64, 127
1, 27844, Note_off_c, 0, 49, 64
1, 27848, Note_off_c, 0, 61, 64
1, 27852, Note_off_c, 0, 56, 64
1, 27864, Note_off_c, 0, 65, 64
1, 27932, Note_off_c, 0, 73, 64
1, 27976, Control_c, 0, 64, 0
1, 27996, Note_on_c, 0, 70, 55
1, 27996, Note_on_c, 0, 67, 58
1, 27996, Note_on_c, 0, 58, 44
1, 28000, Note_on_c, 0, 63, 50
1, 28004, Note_on_c, 0, 49, 19
1, 28036, Control_c, 0, 64, 127
1, 28040, Note_off_c, 0, 58, 64
1, 28044, Note_off_c, 0, 63, 64
1, 28044, Note_off_c, 0, 49, 64
1, 28076, Note_off_c, 0, 67, 64
1, 28088, Note_on_c, 0, 75, 58
1, 28112, Note_off_c, 0, 70, 64
1, 28164, Control_c, 0, 64, 0
1, 28180, Note_on_c, 0, 68, 65
1, 28184, Note_on_c, 0, 66, 61
1, 28188, Note_on_c, 0, 63, 46
1, 28188, Note_on_c, 0, 56, 28
1, 28188, Note_on_c, 0, 49, 40
1, 28208, Note_off_c, 0, 75, 64
1, 28216, Control_c, 0, 64, 127
1, 28232, Note_off_c, 0, 63, 64
1, 28232, Note_off_c, 0, 56, 64
1, 28232, Note_off_c, 0, 49, 64
1, 28256, Note_off_c, 0, 66, 64
1, 28276, Note_on_c, 0, 72, 52
1, 28312, Note_off_c, 0, 68, 64
1, 28360, Control_c, 0, 64, 0
1, 28388, Note_on_c, 0, 61, 46
1, 28388, Note_on_c, 0, 56, 28
1, 28388, Note_on_c, 0, 49, 41
1, 28388, Note_on_c, 0, 73, 54
1, 28388, Note_on_c, 0, 65, 55
1, 28412, Note_off_c, 0, 72, 64
1, 28428, Note_off_c, 0, 61, 64
1, 28428, Note_off_c, 0, 56, 64
1, 28428, Note_off_c, 0, 49, 64
1, 28436, Control_c, 0, 64, 127
1, 28452, Note_off_c, 0, 65, 64
1, 28532, Note_off_c, 0, 73, 64
1, 28680, Control_c, 0, 64, 0
1, 28708, Note_on_c, 0, 78, 48
1, 28708, Note_on_c, 0, 60, 44
1, 28712, Note_on_c, 0, 56, 46
1, 28712, Note_on_c, 0, 49, 42
1, 28716, Note_on_c, 0, 66, 44
1, 28744, Note_off_c, 0, 78, 64
1, 28820, Note_on_c, 0, 77, 53
1, 28856, Note_off_c, 0, 77, 64
1, 28916, Control_c, 0, 64, 127
1, 28920, Note_off_c, 0, 60, 64
1, 28924, Note_off_c, 0, 56, 64
1, 28924, Note_off_c, 0, 49, 64
1, 28928, Note_on_c, 0, 56, 40
1, 28932, Note_on_c, 0, 60, 42
1, 28936, Note_on_c, 0, 49, 35
1, 28940, Note_off_c, 0, 66, 64
1, 28944, Note_on_c, 0, 66, 46
1, 28944, Note_on_c, 0, 75, 37
1, 28980, Note_off_c, 0, 75, 64
1, 29020, Note_on_c, 0, 77, 45
1, 29056, Note_off_c, 0, 77, 64
1, 29084, Control_c, 0, 64, 0
1, 29108, Note_off_c, 0, 49, 64
1, 29112, Note_off_c, 0, 56, 64
1, 29120, Note_on_c, 0, 49, 40
1, 29124, Note_on_c, 0, 65, 42
1, 29124, Note_on_c, 0, 56, 46
1, 29128, Note_on_c, 0, 61, 46
1, 29140, Note_off_c, 0, 66, 64
1, 29144, Note_off_c, 0, 60, 64
1, 29144, Note_on_c, 0, 73, 29
1, 29156, Tempo, 500000
1, 29156, Control_c, 0, 64, 127
1, 29176, Note_off_c, 0, 73, 64
1, 29208, Note_on_c, 0, 68, 58
1, 29244, Note_off_c, 0, 68, 64
1, 29280, Note_off_c, 0, 49, 64
1, 29304, Note_off_c, 0, 56, 64
1, 29304, Note_on_c, 0, 63, 48
1, 29312, Note_on_c, 0, 67, 35
1, 29312, Note_on_c, 0, 58, 31
1, 29312, Note_on_c, 0, 49, 44
1, 29316, Note_on_c, 0, 70, 62
1, 29316, Control_c, 0, 64, 0
1, 29336, Note_off_c, 0, 61, 64
1, 29336, Note_off_c, 0, 65, 64
1, 29352, Note_off_c, 0, 70, 64
1, 29364, Control_c, 0, 64, 127
1, 29408, Note_on_c, 0, 75, 58
1, 29444, Note_off_c, 0, 75, 64
1, 29480, Note_off_c, 0, 49, 64
1, 29480, Control_c, 0, 64, 0
1, 29496, Note_off_c, 0, 63, 64
1, 29500, Note_on_c, 0, 70, 61
1, 29500, Note_on_c, 0, 66, 50
1, 29504, Note_on_c, 0, 63, 54
1, 29504, Note_on_c, 0, 57, 22
1, 29504, Note_on_c, 0, 49, 32
1, 29520, Note_off_c, 0, 67, 64
1, 29520, Note_off_c, 0, 58, 64
1, 29532, Control_c, 0, 64, 127
1, 29536, Note_off_c, 0, 70, 64
1, 29600, Note_on_c, 0, 72, 48
1, 29636, Note_off_c, 0, 72, 64
1, 29688, Note_off_c, 0, 66, 64
1, 29696, Note_off_c, 0, 63, 64
1, 29700, Control_c, 0, 64, 0
1, 29704, Note_off_c, 0, 49, 64
1, 29712, Note_on_c, 0, 68, 70
1, 29712, Note_on_c, 0, 66, 48
1, 29712, Note_on_c, 0, 49, 42
1, 29716, Note_on_c, 0, 56, 46
1, 29716, Note_on_c, 0, 63, 44
1, 29720, Note_off_c, 0, 57, 64
1, 29736, Control_c, 0, 64, 127
1, 29744, Note_off_c, 0, 68, 64
1, 29820, Note_on_c, 0, 80, 62
1, 29856, Note_off_c, 0, 80, 64
1, 29920, Note_off_c, 0, 49, 64
1, 29924, Note_off_c, 0, 56, 64
1, 29928, Note_off_c, 0, 63, 64
1, 29932, Note_on_c, 0, 49, 40
1, 29936, Note_on_c, 0, 60, 44
1, 29936, Note_on_c, 0, 56, 44
1, 29936, Note_on_c, 0, 78, 66
1, 29944, Note_off_c, 0, 66, 64
1, 29948, Note_on_c, 0, 66, 52
1, 29972, Note_off_c, 0, 78, 64
1, 30036, Note_on_c, 0, 77, 53
1, 30072, Note_off_c, 0, 77, 64
1, 30124, Note_off_c, 0, 49, 64
1, 30128, Note_off_c, 0, 60, 64
1, 30128, Note_off_c, 0, 56, 64
1, 30128, Note_on_c, 0, 49, 44
1, 30132, Note_off_c, 0, 66, 64
1, 30132, Note_on_c, 0, 56, 44
1, 30136, Note_on_c, 0, 75, 49
1, 30136, Note_on_c, 0, 60, 46
1, 30140, Note_on_c, 0, 66, 44
1, 30168, Note_off_c, 0, 75, 64
1, 30240, Note_on_c, 0, 77, 58
1, 30272, Note_off_c, 0, 77, 64
1, 30304, Control_c, 0, 64, 0
1, 30324, Note_off_c, 0, 49, 64
1, 30324, Note_on_c, 0, 49, 40
1, 30328, Note_off_c, 0, 56, 64
1, 30328, Note_off_c, 0, 60, 64
1, 30332, Note_off_c, 0, 66, 64
1, 30332, Note_on_c, 0, 65, 40
1, 30332, Note_on_c, 0, 61, 46
1, 30332, Note_on_c, 0, 56, 46
1, 30336, Note_on_c, 0, 73, 55
1, 30364, Control_c, 0, 64, 127
1, 30368, Note_off_c, 0, 73, 64
1, 30460, Note_on_c, 0, 68, 62
1, 30496, Note_off_c, 0, 68, 64
1, 30520, Note_off_c, 0, 49, 64
1, 30524, Note_off_c, 0, 65, 64
1, 30524, Note_off_c, 0, 61, 64
1, 30524, Note_off_c, 0, 56, 64
1, 30588, Note_on_c, 0, 63, 50
1, 30588, Note_on_c, 0, 67, 50
1, 30592, Note_on_c, 0, 49, 39
1, 30592, Note_on_c, 0, 58, 39
1, 30592, Note_on_c, 0, 70, 74
1, 30628, Note_off_c, 0, 70, 64
1, 30688, Control_c, 0, 64, 0
1, 30712, Note_on_c, 0, 75, 66
1, 30724, Control_c, 0, 64, 127
1, 30748, Note_off_c, 0, 75, 64
1, 30752, Note_off_c, 0, 49, 64
1, 30780, Note_off_c, 0, 63, 64
1, 30780, Note_off_c, 0, 67, 64
1, 30784, Note_off_c, 0, 58, 64
1, 30816, Note_on_c, 0, 68, 80
1, 30816, Note_on_c, 0, 66, 57
1, 30816, Note_on_c, 0, 49, 41
1, 30820, Note_on_c, 0, 63, 53
1, 30820, Note_on_c, 0, 56, 42
1, 30852, Note_off_c, 0, 68, 64
1, 30984, Note_on_c, 0, 72, 52
1, 31012, Note_off_c, 0, 66, 64
1, 31012, Note_off_c, 0, 49, 64
1, 31016, Note_off_c, 0, 63, 64
1, 31016, Note_off_c, 0, 56, 64
1, 31020, Note_off_c, 0, 72, 64
1, 31080, Control_c, 0, 64, 127
1, 31160, Note_on_c, 0, 65, 48
1, 31160, Note_on_c, 0, 49, 52
1, 31164, Note_on_c, 0, 73, 78
1, 31164, Note_on_c, 0, 56, 45
1, 31200, Control_c, 0, 64, 0
1, 31236, Control_c, 0, 64, 127
1, 31268, Note_off_c, 0, 65, 64
1, 31268, Note_off_c, 0, 49, 64
1, 31272, Note_off_c, 0, 73, 64
1, 31272, Note_off_c, 0, 56, 64
1, 31664, Note_on_c, 0, 64, 44
1, 31664, Note_on_c, 0, 73, 39
1, 31672, Note_on_c, 0, 45, 44
1, 31672, Note_on_c, 0, 57, 44
1, 31676, Note_on_c, 0, 76, 44
1, 31720, Control_c, 0, 64, 0
1, 31792, Control_c, 0, 64, 127
1, 31800, Note_on_c, 0, 71, 39
1, 31816, Note_off_c, 0, 76, 64
1, 31816, Note_on_c, 0, 74, 39
1, 31836, Note_off_c, 0, 73, 64
1, 31924, Note_on_c, 0, 69, 39
1, 31936, Note_on_c, 0, 73, 44
1, 31956, Note_off_c, 0, 71, 64
1, 31960, Note_off_c, 0, 74, 64
1, 31960, Control_c, 0, 64, 0
1, 32032, Control_c, 0, 64, 127
1, 32232, Note_off_c, 0, 57, 64
1, 32272, Note_off_c, 0, 69, 64
1, 32280, Note_on_c, 0, 50, 39
1, 32288, Note_on_c, 0, 57, 39
1, 32292, Note_off_c, 0, 64, 64
1, 32296, Note_off_c, 0, 45, 64
1, 32296, Note_on_c, 0, 69, 44
1, 32296, Note_on_c, 0, 66, 45
1, 32300, Note_on_c, 0, 78, 39
1, 32320, Note_off_c, 0, 73, 64
1, 32368, Control_c, 0, 64, 0
1, 32416, Control_c, 0, 64, 127
1, 32672, Note_off_c, 0, 57, 64
1, 32696, Note_on_c, 0, 57, 37
1, 32696, Note_on_c, 0, 64, 39
1, 32704, Note_on_c, 0, 73, 40
1, 32708, Note_on_c, 0, 76, 40
1, 32708, Note_on_c, 0, 45, 35
1, 32752, Note_off_c, 0, 50, 64
1, 32768, Note_off_c, 0, 69, 64
1, 32768, Note_off_c, 0, 66, 64
1, 32772, Note_off_c, 0, 78, 64
1, 32780, Control_c, 0, 64, 0
1, 32880, Control_c, 0, 64, 127
1, 33432, Note_off_c, 0, 73, 64
1, 33480, Note_on_c, 0, 73, 42
1, 33480, Note_on_c, 0, 69, 39
1, 33512, Note_off_c, 0, 76, 64
1, 33648, Note_off_c, 0, 45, 64
1, 33656, Note_off_c, 0, 57, 64
1, 33712, Note_off_c, 0, 73, 64
1, 33712, Note_off_c, 0, 69, 64
1, 33728, Note_off_c, 0, 64, 64
1, 33976, Note_on_c, 0, 76, 39
1, 33976, Note_on_c, 0, 73, 39
1, 33984, Note_on_c, 0, 57, 37
1, 33988, Note_on_c, 0, 64, 37
1, 34096, Note_on_c, 0, 74, 39
1, 34096, Note_on_c, 0, 71, 42
1, 34120, Note_off_c, 0, 73, 64
1, 34128, Note_off_c, 0, 76, 64
1, 34216, Note_on_c, 0, 69, 39
1, 34224, Note_on_c, 0, 73, 48
1, 34248, Control_c, 0, 64, 0
1, 34256, Note_off_c, 0, 74, 64
1, 34256, Note_off_c, 0, 71, 64
1, 34272, Control_c, 0, 64, 127
1, 34672, Note_off_c, 0, 57, 64
1, 34680, Note_off_c, 0, 69, 64
1, 34692, Note_on_c, 0, 66, 37
1, 34692, Note_on_c, 0, 69, 39
1, 34704, Note_on_c, 0, 78, 35
1, 34712, Note_on_c, 0, 57, 28
1, 34712, Note_on_c, 0, 50, 35
1, 34720, Note_off_c, 0, 64, 64
1, 34728, Note_off_c, 0, 73, 64
1, 34780, Control_c, 0, 64, 0
1, 34836, Control_c, 0, 64, 127
1, 35476, Note_off_c, 0, 69, 64
1, 35480, Note_on_c, 0, 73, 35
1, 35480, Note_on_c, 0, 64, 35
1, 35488, Note_off_c, 0, 57, 64
1, 35488, Note_on_c, 0, 76, 39
1, 35496, Note_on_c, 0, 69, 39
1, 35496, Note_on_c, 0, 57, 32
1, 35504, Note_on_c, 0, 45, 26
1, 35520, Note_off_c, 0, 66, 64
1, 35532, Note_off_c, 0, 78, 64
1, 35536, Note_off_c, 0, 50, 64
1, 35660, Control_c, 0, 64, 0
1, 35808, Control_c, 0, 64, 127
1, 36632, Note_off_c, 0, 64, 64
1, 36660, Note_on_c, 0, 70, 57
1, 36664, Note_on_c, 0, 55, 48
1, 36664, Note_on_c, 0, 61, 45
1, 36668, Note_on_c, 0, 64, 49
1, 36704, Note_off_c, 0, 73, 64
1, 36708, Control_c, 0, 64, 0
1, 36716, Note_off_c, 0, 76, 64
1, 36720, Note_off_c, 0, 69, 64
1, 36720, Note_off_c, 0, 57, 64
1, 36728, Note_off_c, 0, 45, 64
1, 36796, Control_c, 0, 64, 127
1, 37020, Note_on_c, 0, 56, 32
1, 37024, Note_on_c, 0, 63, 37
1, 37024, Note_on_c, 0, 60, 31
1, 37028, Note_on_c, 0, 68, 48
1, 37032, Control_c, 0, 64, 0
1, 37060, Control_c, 0, 64, 127
1, 37064, Note_off_c, 0, 70, 64
1, 37068, Note_off_c, 0, 55, 64
1, 37068, Note_off_c, 0, 61, 64
1, 37072, Note_off_c, 0, 64, 64
1, 37092, Note_off_c, 0, 56, 64
1, 37096, Note_off_c, 0, 63, 64
1, 37096, Note_off_c, 0, 60, 64
1, 37104, Note_on_c, 0, 70, 49
1, 37112, Note_off_c, 0, 68, 64
1, 37176, Note_on_c, 0, 68, 50
1, 37192, Control_c, 0, 64, 0
1, 37200, Note_off_c, 0, 70, 64
1, 37232, Note_on_c, 0, 67, 42
1, 37232, Note_on_c, 0, 64, 44
1, 37236, Note_on_c, 0, 61, 45
1, 37236, Note_on_c, 0, 56, 44
1, 37256, Note_off_c, 0, 68, 64
1, 37264, Control_c, 0, 64, 127
1, 37304, Note_off_c, 0, 64, 64
1, 37308, Note_off_c, 0, 61, 64
1, 37308, Note_off_c, 0, 56, 64
1, 37336, Note_on_c, 0, 68, 50
1, 37348, Note_off_c, 0, 67, 64
1, 37376, Control_c, 0, 64, 0
1, 37416, Control_c, 0, 64, 127
1, 37420, Note_on_c, 0, 56, 28
1, 37424, Note_on_c, 0, 64, 35
1, 37424, Note_on_c, 0, 61, 28
1, 37440, Note_on_c, 0, 70, 44
1, 37468, Note_off_c, 0, 68, 64
1, 37492, Note_off_c, 0, 56, 64
1, 37500, Note_off_c, 0, 64, 64
1, 37500, Note_off_c, 0, 61, 64
1, 37512, Note_on_c, 0, 72, 50
1, 37548, Note_off_c, 0, 70, 64
1, 37576, Control_c, 0, 64, 0
1, 37592, Note_on_c, 0, 55, 44
1, 37600, Note_on_c, 0, 64, 44
1, 37600, Note_on_c, 0, 58, 44
1, 37612, Note_on_c, 0, 73, 55
1, 37628, Note_off_c, 0, 72, 64
1, 37628, Control_c, 0, 64, 127
1, 37664, Note_off_c, 0, 55, 64
1, 37672, Note_off_c, 0, 64, 64
1, 37672, Note_off_c, 0, 58, 64
1, 37672, Note_on_c, 0, 75, 54
1, 37692, Note_off_c, 0, 73, 64
1, 37712, Note_on_c, 0, 73, 54
1, 37748, Control_c, 0, 64, 0
1, 37752, Note_off_c, 0, 75, 64
1, 37792, Note_on_c, 0, 72, 61
1, 37792, Note_on_c, 0, 56, 44
1, 37796, Control_c, 0, 64, 127
1, 37804, Note_on_c, 0, 63, 45
1, 37804, Note_on_c, 0, 60, 44
1, 37812, Note_off_c, 0, 73, 64
1, 37864, Note_off_c, 0, 56, 64
1, 37876, Note_off_c, 0, 63, 64
1, 37876, Note_off_c, 0, 60, 64
1, 37888, Note_on_c, 0, 73, 58
1, 37896, Note_off_c, 0, 72, 64
1, 37920, Control_c, 0, 64, 0
1, 37960, Control_c, 0, 64, 127
1, 38008, Note_on_c, 0, 75, 65
1, 38008, Note_on_c, 0, 63, 44
1, 38008, Note_on_c, 0, 58, 36
1, 38008, Note_on_c, 0, 55, 40
1, 38020, Note_off_c, 0, 73, 64
1, 38080, Note_off_c, 0, 63, 64
1, 38080, Note_off_c, 0, 58, 64
1, 38080, Note_off_c, 0, 55, 64
1, 38144, Note_off_c, 0, 75, 64
1, 38204, Note_on_c, 0, 56, 54
1, 38212, Note_on_c, 0, 53, 50
1, 38212, Note_on_c, 0, 61, 54
1, 38212, Note_on_c, 0, 65, 53
1, 38212, Note_on_c, 0, 80, 65
1, 38216, Control_c, 0, 64, 0
1, 38288, Control_c, 0, 64, 127
1, 38340, Note_off_c, 0, 56, 64
1, 38352, Tempo, 500000
1, 38352, Note_off_c, 0, 53, 64
1, 38352, Note_off_c, 0, 61, 64
1, 38352, Note_off_c, 0, 65, 64
1, 38352, Note_off_c, 0, 80, 64
1, 38400, Note_on_c, 0, 73, 52
1, 38440, Control_c, 0, 64, 0
1, 38456, Note_on_c, 0, 63, 36
1, 38456, Note_on_c, 0, 56, 32
1, 38456, Note_on_c, 0, 51, 37
1, 38472, Note_on_c, 0, 72, 49
1, 38504, Note_off_c, 0, 73, 64
1, 38504, Control_c, 0, 64, 127
1, 38528, Note_off_c, 0, 63, 64
1, 38528, Note_off_c, 0, 56, 64
1, 38528, Note_off_c, 0, 51, 64
1, 38584, Note_on_c, 0, 75, 42
1, 38592, Note_off_c, 0, 72, 64
1, 38604, Control_c, 0, 64, 0
1, 38644, Control_c, 0, 64, 127
1, 38664, Note_on_c, 0, 51, 41
1, 38668, Note_on_c, 0, 60, 32
1, 38672, Note_on_c, 0, 68, 55
1, 38672, Note_on_c, 0, 63, 40
1, 38684, Note_off_c, 0, 75, 64
1, 38736, Note_off_c, 0, 51, 64
1, 38740, Note_off_c, 0, 60, 64
1, 38744, Note_off_c, 0, 63, 64
1, 38752, Note_on_c, 0, 69, 49
1, 38764, Note_off_c, 0, 68, 64
1, 38792, Control_c, 0, 64, 0
1, 38832, Control_c, 0, 64, 127
1, 38840, Note_on_c, 0, 51, 37
1, 38844, Note_on_c, 0, 63, 40
1, 38844, Note_on_c, 0, 61, 37
1, 38848, Note_on_c, 0, 70, 50
1, 38864, Note_off_c, 0, 69, 64
1, 38912, Note_off_c, 0, 51, 64
1, 38920, Note_off_c, 0, 63, 64
1, 38920, Note_off_c, 0, 61, 64
1, 38936, Note_on_c, 0, 73, 50
1, 38944, Note_off_c, 0, 70, 64
1, 38992, Control_c, 0, 64, 0
1, 39028, Note_on_c, 0, 51, 32
1, 39036, Note_on_c, 0, 65, 55
1, 39036, Note_on_c, 0, 63, 37
1, 39036, Note_on_c, 0, 61, 36
1, 39048, Control_c, 0, 64, 127
1, 39064, Note_off_c, 0, 73, 64
1, 39104, Note_off_c, 0, 51, 64
1, 39108, Note_off_c, 0, 63, 64
1, 39108, Note_off_c, 0, 61, 64
1, 39120, Note_on_c, 0, 67, 54
1, 39140, Note_off_c, 0, 65, 64
1, 39192, Control_c, 0, 64, 0
1, 39216, Note_on_c, 0, 68, 67
1, 39220, Note_on_c, 0, 60, 28
1, 39224, Note_on_c, 0, 63, 44
1, 39224, Note_on_c, 0, 56, 36
1, 39252, Note_off_c, 0, 67, 64
1, 39264, Control_c, 0, 64, 127
1, 39296, Note_off_c, 0, 60, 64
1, 39296, Note_off_c, 0, 63, 64
1, 39296, Note_off_c, 0, 56, 64
1, 39380, Control_c, 0, 64, 0
1, 39456, Note_on_c, 0, 63, 36
1, 39456, Note_on_c, 0, 60, 26
1, 39456, Note_on_c, 0, 56, 36
1, 39468, Control_c, 0, 64, 127
1, 39520, Note_on_c, 0, 70, 45
1, 39528, Note_off_c, 0, 63, 64
1, 39528, Note_off_c, 0, 60, 64
1, 39528, Note_off_c, 0, 56, 64
1, 39552, Note_off_c, 0, 68, 64
1, 39584, Note_on_c, 0, 68, 66
1, 39604, Control_c, 0, 64, 0
1, 39628, Note_off_c, 0, 70, 64
1, 39636, Note_on_c, 0, 67, 61
1, 39644, Note_on_c, 0, 64, 50
1, 39644, Note_on_c, 0, 61, 45
1, 39644, Note_on_c, 0, 56, 41
1, 39652, Control_c, 0, 64, 127
1, 39676, Note_off_c, 0, 68, 64
1, 39716, Note_off_c, 0, 64, 64
1, 39716, Note_off_c, 0, 61, 64
1, 39716, Note_off_c, 0, 56, 64
1, 39740, Note_off_c, 0, 67, 64
1, 39748, Note_on_c, 0, 68, 62
1, 39788, Control_c, 0, 64, 0
1, 39824, Note_on_c, 0, 61, 39
1, 39824, Note_on_c, 0, 64, 35
1, 39824, Note_on_c, 0, 70, 59
1, 39832, Note_on_c, 0, 56, 36
1, 39832, Control_c, 0, 64, 127
1, 39852, Note_off_c, 0, 68, 64
1, 39900, Note_off_c, 0, 61, 64
1, 39900, Note_off_c, 0, 64, 64
1, 39904, Note_off_c, 0, 56, 64
1, 39916, Note_on_c, 0, 72, 63
1, 39928, Note_off_c, 0, 70, 64
1, 39972, Control_c, 0, 64, 0
1, 40000, Note_on_c, 0, 64, 52
1, 40000, Note_on_c, 0, 55, 50
1, 40004, Note_on_c, 0, 58, 52
1, 40004, Note_on_c, 0, 73, 63
1, 40020, Control_c, 0, 64, 127
1, 40036, Note_off_c, 0, 72, 64
1, 40060, Note_on_c, 0, 75, 66
1, 40076, Note_off_c, 0, 64, 64
1, 40076, Note_off_c, 0, 55, 64
1, 40076, Note_off_c, 0, 58, 64
1, 40096, Note_off_c, 0, 73, 64
1, 40128, Note_on_c, 0, 73, 62
1, 40148, Note_off_c, 0, 75, 64
1, 40164, Note_on_c, 0, 56, 36
1, 40168, Note_on_c, 0, 63, 39
1, 40168, Note_on_c, 0, 72, 63
1, 40168, Note_on_c, 0, 60, 37
1, 40192, Note_off_c, 0, 73, 64
1, 40240, Note_off_c, 0, 56, 64
1, 40240, Note_off_c, 0, 63, 64
1, 40240, Note_off_c, 0, 60, 64
1, 40248, Note_off_c, 0, 72, 64
1, 40252, Note_on_c, 0, 73, 66
1, 40276, Note_off_c, 0, 73, 64
1, 40296, Note_on_c, 0, 73, 63
1, 40312, Control_c, 0, 64, 0
1, 40332, Note_off_c, 0, 73, 64
1, 40344, Note_on_c, 0, 58, 27
1, 40344, Note_on_c, 0, 55, 39
1, 40348, Note_on_c, 0, 74, 65
1, 40348, Note_on_c, 0, 63, 40
1, 40388, Control_c, 0, 64, 127
1, 40408, Note_on_c, 0, 75, 71
1, 40416, Note_off_c, 0, 58, 64
1, 40416, Note_off_c, 0, 55, 64
1, 40416, Note_off_c, 0, 74, 64
1, 40420, Note_off_c, 0, 63, 64
1, 40436, Note_off_c, 0, 75, 64
1, 40508, Note_on_c, 0, 75, 74
1, 40576, Note_on_c, 0, 65, 57
1, 40576, Note_on_c, 0, 80, 94
1, 40576, Note_on_c, 0, 61, 57
1, 40576, Note_on_c, 0, 56, 50
1, 40576, Note_on_c, 0, 53, 61
1, 40600, Note_off_c, 0, 75, 64
1, 40624, Control_c, 0, 64, 0
1, 40668, Control_c, 0, 64, 127
1, 40772, Note_off_c, 0, 65, 64
1, 40776, Note_off_c, 0, 80, 64
1, 40776, Note_off_c, 0, 61, 64
1, 40776, Note_off_c, 0, 56, 64
1, 40776, Note_off_c, 0, 53, 64
1, 40956, Note_on_c, 0, 73, 40
1, 40980, Control_c, 0, 64, 0
1, 41020, Note_on_c, 0, 72, 57
1, 41020, Note_on_c, 0, 63, 49
1, 41020, Note_on_c, 0, 56, 45
1, 41020, Note_on_c, 0, 51, 49
1, 41056, Note_off_c, 0, 73, 64
1, 41068, Control_c, 0, 64, 127
1, 41072, Note_off_c, 0, 63, 64
1, 41072, Note_off_c, 0, 51, 64
1, 41092, Note_off_c, 0, 56, 64
1, 41112, Note_on_c, 0, 75, 50
1, 41160, Note_off_c, 0, 72, 64
1, 41212, Note_on_c, 0, 68, 70
1, 41224, Note_on_c, 0, 60, 52
1, 41228, Note_on_c, 0, 63, 53
1, 41236, Note_on_c, 0, 51, 49
1, 41240, Note_off_c, 0, 75, 64
1, 41280, Note_off_c, 0, 51, 64
1, 41284, Note_off_c, 0, 63, 64
1, 41288, Note_off_c, 0, 60, 64
1, 41292, Note_on_c, 0, 69, 62
1, 41320, Note_off_c, 0, 68, 64
1, 41368, Control_c, 0, 64, 0
1, 41400, Note_on_c, 0, 51, 49
1, 41400, Note_on_c, 0, 70, 58
1, 41408, Note_on_c, 0, 61, 53
1, 41408, Note_on_c, 0, 63, 54
1, 41416, Note_off_c, 0, 69, 64
1, 41432, Control_c, 0, 64, 127
1, 41464, Note_off_c, 0, 51, 64
1, 41464, Note_off_c, 0, 63, 64
1, 41476, Note_off_c, 0, 61, 64
1, 41496, Note_on_c, 0, 73, 67
1, 41520, Note_off_c, 0, 70, 64
1, 41588, Control_c, 0, 64, 0
1, 41596, Note_on_c, 0, 63, 54
1, 41596, Note_on_c, 0, 51, 52
1, 41596, Note_on_c, 0, 65, 75
1, 41600, Note_on_c, 0, 61, 49
1, 41624, Control_c, 0, 64, 127
1, 41636, Note_off_c, 0, 73, 64
1, 41656, Note_off_c, 0, 63, 64
1, 41668, Note_off_c, 0, 51, 64
1, 41680, Note_off_c, 0, 61, 64
1, 41696, Note_on_c, 0, 67, 61
1, 41716, Note_off_c, 0, 65, 64
1, 41812, Note_on_c, 0, 60, 59
1, 41816, Note_on_c, 0, 68, 80
1, 41820, Note_on_c, 0, 63, 71
1, 41824, Note_on_c, 0, 56, 59
1, 41844, Note_off_c, 0, 67, 64
1, 41864, Control_c, 0, 64, 0
1, 42236, Note_off_c, 0, 56, 64
1, 42244, Note_off_c, 0, 63, 64
1, 42256, Note_off_c, 0, 60, 64
1, 42264, Note_off_c, 0, 68, 64
1, 42536, Control_c, 0, 64, 0
1, 42592, Control_c, 0, 64, 0
1, 42664, Control_c, 0, 64, 127
1, 42664, End_track
2, 0, Start_track
2, 1, Copyright_t, "__________________________________________________________\012\012KUNSTDERFUGE.COM GREAT CLASSICAL MIDI COLLECTION\012__________________________________________________________\012\012KUNST-DER-FUGE CONTRIBUTOR's PROPERTY\012Copyright by Contributor & Kunst der Fuge, © 2006\012\012Contributors' list: http://kunstderfuge.com/thanks.htm\012Terms and conditions: http://kunstderfuge.com/notes.htm\012__________________________________________________________\012\012NO WEBSITE MAY PUBLISH THIS FILE WITHOUT PERMISSION\012NO COMMERCIAL USE ALLOWED, NOR BY SALES NOR by eBay!\012PLEASE REPORT ANY ABUSE TO INFO@ONCLASSICAL.COM\012__________________________________________________________\012\012Thousands of free classical MIDI files at kunstderfuge.com"
2, 1, End_track
0, 0, End_of_file
