0, 0, Header, 0, 2, 384
1, 0, Start_track
1, 0, Title_t, "Chopin's Mazurkas (played by © Ron Lubetsky)"
1, 0, Time_signature, 4, 2, 96, 8
1, 0, Sequencer_specific, 3, 0, 0, 65
1, 0, Tempo, 500000
1, 52, Note_on_c, 0, 61, 49
1, 64, Note_on_c, 0, 63, 46
1, 64, Note_on_c, 0, 39, 47
1, 64, Control_c, 0, 64, 0
1, 76, Note_on_c, 0, 55, 42
1, 108, Control_c, 0, 64, 127
1, 364, Note_off_c, 0, 61, 64
1, 372, Note_off_c, 0, 63, 64
1, 388, Note_off_c, 0, 55, 64
1, 412, Note_on_c, 0, 61, 54
1, 416, Note_on_c, 0, 65, 54
1, 424, Note_on_c, 0, 56, 34
1, 428, Note_on_c, 0, 51, 39
1, 468, Control_c, 0, 64, 0
1, 488, Control_c, 0, 64, 127
1, 568, Note_off_c, 0, 39, 64
1, 732, Note_off_c, 0, 61, 64
1, 732, Note_off_c, 0, 65, 64
1, 744, Note_off_c, 0, 56, 64
1, 748, Note_off_c, 0, 51, 64
1, 908, Note_on_c, 0, 38, 49
1, 1016, Note_on_c, 0, 61, 51
1, 1020, Note_on_c, 0, 39, 51
1, 1020, Note_on_c, 0, 63, 52
1, 1032, Note_on_c, 0, 55, 49
1, 1040, Control_c, 0, 64, 0
1, 1052, Note_off_c, 0, 38, 64
1, 1064, Control_c, 0, 64, 127
1, 1288, Note_off_c, 0, 61, 64
1, 1304, Note_off_c, 0, 55, 64
1, 1392, Note_on_c, 0, 67, 54
1, 1396, Note_off_c, 0, 63, 64
1, 1396, Note_on_c, 0, 61, 51
1, 1408, Note_on_c, 0, 55, 34
1, 1412, Note_on_c, 0, 51, 44
1, 1508, Note_off_c, 0, 39, 64
1, 1716, Note_off_c, 0, 61, 64
1, 1716, Note_off_c, 0, 67, 64
1, 1732, Note_off_c, 0, 55, 64
1, 1736, Note_off_c, 0, 51, 64
1, 1876, Note_on_c, 0, 38, 49
1, 1976, Note_on_c, 0, 61, 54
1, 1976, Control_c, 0, 64, 0
1, 1984, Note_on_c, 0, 63, 52
1, 1984, Note_on_c, 0, 39, 51
1, 1996, Note_on_c, 0, 55, 49
1, 2020, Note_off_c, 0, 38, 64
1, 2028, Control_c, 0, 64, 127
1, 2280, Note_off_c, 0, 61, 64
1, 2288, Note_off_c, 0, 63, 64
1, 2300, Note_off_c, 0, 55, 64
1, 2340, Note_on_c, 0, 65, 58
1, 2340, Note_on_c, 0, 61, 57
1, 2348, Note_on_c, 0, 56, 49
1, 2352, Note_on_c, 0, 51, 50
1, 2380, Control_c, 0, 64, 0
1, 2396, Control_c, 0, 64, 127
1, 2468, Note_off_c, 0, 39, 64
1, 2588, Note_off_c, 0, 61, 64
1, 2660, Note_off_c, 0, 65, 64
1, 2668, Note_off_c, 0, 56, 64
1, 2676, Note_off_c, 0, 51, 64
1, 2808, Note_on_c, 0, 38, 49
1, 2908, Note_on_c, 0, 39, 58
1, 2908, Control_c, 0, 64, 0
1, 2928, Note_on_c, 0, 61, 57
1, 2932, Note_on_c, 0, 63, 58
1, 2936, Note_on_c, 0, 55, 55
1, 2948, Control_c, 0, 64, 127
1, 2960, Note_off_c, 0, 38, 64
1, 3160, Note_off_c, 0, 61, 64
1, 3160, Note_off_c, 0, 63, 64
1, 3164, Note_off_c, 0, 55, 64
1, 3196, Note_on_c, 0, 55, 35
1, 3276, Note_on_c, 0, 51, 64
1, 3280, Note_on_c, 0, 70, 62
1, 3284, Note_on_c, 0, 61, 62
1, 3332, Control_c, 0, 64, 0
1, 3376, Control_c, 0, 64, 127
1, 3396, Note_off_c, 0, 39, 64
1, 3568, Note_off_c, 0, 55, 64
1, 3600, Note_off_c, 0, 51, 64
1, 3604, Note_off_c, 0, 70, 64
1, 3608, Note_off_c, 0, 61, 64
1, 3788, Note_on_c, 0, 38, 52
1, 3928, Note_on_c, 0, 39, 57
1, 3928, Note_on_c, 0, 61, 57
1, 3936, Note_on_c, 0, 63, 58
1, 3944, Note_on_c, 0, 55, 55
1, 3944, Control_c, 0, 64, 0
1, 3968, Note_off_c, 0, 38, 64
1, 3984, Control_c, 0, 64, 127
1, 4156, Note_off_c, 0, 61, 64
1, 4164, Note_off_c, 0, 63, 64
1, 4176, Note_off_c, 0, 55, 64
1, 4332, Note_on_c, 0, 61, 58
1, 4332, Note_on_c, 0, 65, 59
1, 4348, Note_on_c, 0, 56, 56
1, 4348, Note_on_c, 0, 51, 57
1, 4372, Control_c, 0, 64, 0
1, 4408, Control_c, 0, 64, 127
1, 4412, Note_off_c, 0, 39, 64
1, 4656, Note_off_c, 0, 61, 64
1, 4656, Note_off_c, 0, 65, 64
1, 4668, Note_off_c, 0, 51, 64
1, 4668, Note_off_c, 0, 56, 64
1, 4832, Note_on_c, 0, 38, 51
1, 4972, Note_on_c, 0, 39, 52
1, 4984, Note_on_c, 0, 63, 58
1, 4984, Note_on_c, 0, 61, 58
1, 4988, Note_on_c, 0, 55, 56
1, 5004, Control_c, 0, 64, 0
1, 5016, Note_off_c, 0, 38, 64
1, 5032, Control_c, 0, 64, 127
1, 5400, Note_off_c, 0, 63, 64
1, 5400, Note_off_c, 0, 61, 64
1, 5404, Note_off_c, 0, 55, 64
1, 5476, Note_off_c, 0, 39, 64
1, 5484, Note_on_c, 0, 51, 55
1, 5484, Note_on_c, 0, 73, 58
1, 5488, Note_on_c, 0, 58, 56
1, 5496, Note_on_c, 0, 67, 56
1, 5584, Control_c, 0, 64, 0
1, 5652, Control_c, 0, 64, 127
1, 5924, Note_off_c, 0, 51, 64
1, 5948, Note_off_c, 0, 67, 64
1, 5956, Note_off_c, 0, 58, 64
1, 5964, Note_off_c, 0, 73, 64
1, 6276, Note_on_c, 0, 72, 50
1, 6284, Note_on_c, 0, 63, 48
1, 6292, Note_on_c, 0, 51, 39
1, 6296, Note_on_c, 0, 67, 43
1, 6352, Control_c, 0, 64, 0
1, 6380, Control_c, 0, 64, 127
1, 6568, Note_off_c, 0, 67, 64
1, 6572, Note_off_c, 0, 63, 64
1, 6584, Note_off_c, 0, 51, 64
1, 6664, Note_off_c, 0, 72, 64
1, 6876, Note_on_c, 0, 70, 47
1, 6884, Note_on_c, 0, 61, 35
1, 6884, Note_on_c, 0, 67, 49
1, 6896, Note_on_c, 0, 51, 32
1, 6996, Control_c, 0, 64, 0
1, 7068, Control_c, 0, 64, 127
1, 8316, Note_off_c, 0, 70, 64
1, 8324, Note_off_c, 0, 61, 64
1, 8324, Note_off_c, 0, 67, 64
1, 8336, Note_off_c, 0, 51, 64
1, 8580, Note_on_c, 0, 71, 46
1, 8908, Note_on_c, 0, 44, 49
1, 8908, Control_c, 0, 64, 0
1, 8916, Note_on_c, 0, 72, 51
1, 8932, Control_c, 0, 64, 127
1, 8956, Note_off_c, 0, 71, 64
1, 9112, Note_on_c, 0, 73, 34
1, 9156, Note_off_c, 0, 72, 64
1, 9188, Note_on_c, 0, 51, 39
1, 9268, Note_on_c, 0, 60, 32
1, 9296, Note_on_c, 0, 68, 54
1, 9308, Note_on_c, 0, 75, 50
1, 9348, Control_c, 0, 64, 0
1, 9352, Note_off_c, 0, 44, 64
1, 9356, Note_off_c, 0, 73, 64
1, 9372, Control_c, 0, 64, 127
1, 9388, Note_off_c, 0, 51, 64
1, 9472, Note_off_c, 0, 60, 64
1, 9500, Note_off_c, 0, 68, 64
1, 9768, Note_on_c, 0, 77, 43
1, 9828, Note_off_c, 0, 75, 64
1, 9908, Note_on_c, 0, 39, 48
1, 9924, Control_c, 0, 64, 0
1, 9928, Note_on_c, 0, 75, 49
1, 9948, Control_c, 0, 64, 127
1, 9956, Note_off_c, 0, 77, 64
1, 10068, Note_on_c, 0, 74, 47
1, 10076, Note_off_c, 0, 75, 64
1, 10228, Note_on_c, 0, 73, 50
1, 10244, Note_on_c, 0, 61, 33
1, 10244, Note_on_c, 0, 67, 24
1, 10252, Control_c, 0, 64, 0
1, 10260, Note_off_c, 0, 74, 64
1, 10276, Control_c, 0, 64, 127
1, 10356, Note_off_c, 0, 61, 64
1, 10356, Note_off_c, 0, 67, 64
1, 10380, Note_off_c, 0, 39, 64
1, 10504, Note_on_c, 0, 61, 33
1, 10528, Note_on_c, 0, 67, 47
1, 10620, Note_off_c, 0, 61, 64
1, 10644, Note_off_c, 0, 67, 64
1, 10668, Note_on_c, 0, 72, 46
1, 10704, Note_off_c, 0, 73, 64
1, 10788, Note_on_c, 0, 70, 58
1, 10808, Note_off_c, 0, 72, 64
1, 10820, Note_on_c, 0, 72, 58
1, 10844, Note_off_c, 0, 70, 64
1, 10872, Note_on_c, 0, 70, 58
1, 10876, Note_on_c, 0, 51, 39
1, 10884, Note_off_c, 0, 72, 64
1, 10892, Control_c, 0, 64, 0
1, 10932, Control_c, 0, 64, 127
1, 11028, Note_on_c, 0, 69, 47
1, 11040, Note_off_c, 0, 70, 64
1, 11140, Note_on_c, 0, 70, 63
1, 11148, Note_on_c, 0, 63, 32
1, 11156, Note_on_c, 0, 61, 39
1, 11160, Control_c, 0, 64, 0
1, 11168, Note_off_c, 0, 69, 64
1, 11188, Note_off_c, 0, 51, 64
1, 11200, Control_c, 0, 64, 127
1, 11264, Note_off_c, 0, 63, 64
1, 11268, Note_off_c, 0, 61, 64
1, 11284, Note_on_c, 0, 72, 49
1, 11288, Note_off_c, 0, 70, 64
1, 11444, Note_on_c, 0, 63, 23
1, 11452, Note_on_c, 0, 67, 46
1, 11452, Note_on_c, 0, 61, 37
1, 11468, Note_off_c, 0, 72, 64
1, 11556, Note_off_c, 0, 63, 64
1, 11568, Note_off_c, 0, 61, 64
1, 11700, Note_on_c, 0, 70, 42
1, 11748, Note_off_c, 0, 67, 64
1, 11748, Note_on_c, 0, 44, 46
1, 11772, Note_on_c, 0, 68, 48
1, 11796, Control_c, 0, 64, 0
1, 11828, Note_off_c, 0, 70, 64
1, 11868, Control_c, 0, 64, 127
1, 11980, Note_on_c, 0, 67, 32
1, 11996, Note_off_c, 0, 68, 64
1, 12060, Note_off_c, 0, 44, 64
1, 12076, Note_on_c, 0, 68, 51
1, 12084, Note_on_c, 0, 51, 39
1, 12088, Note_on_c, 0, 60, 26
1, 12104, Note_off_c, 0, 67, 64
1, 12124, Control_c, 0, 64, 0
1, 12176, Control_c, 0, 64, 127
1, 12340, Note_off_c, 0, 51, 64
1, 12344, Note_off_c, 0, 60, 64
1, 12516, Note_on_c, 0, 60, 54
1, 12532, Note_off_c, 0, 68, 64
1, 12876, Note_on_c, 0, 41, 47
1, 12944, Control_c, 0, 64, 0
1, 12956, Note_on_c, 0, 68, 58
1, 12988, Note_off_c, 0, 60, 64
1, 12992, Control_c, 0, 64, 127
1, 13108, Note_on_c, 0, 70, 58
1, 13164, Note_off_c, 0, 68, 64
1, 13236, Note_on_c, 0, 72, 57
1, 13248, Note_on_c, 0, 56, 32
1, 13252, Control_c, 0, 64, 0
1, 13260, Note_on_c, 0, 65, 34
1, 13268, Note_off_c, 0, 70, 64
1, 13296, Control_c, 0, 64, 127
1, 13364, Note_off_c, 0, 56, 64
1, 13376, Note_off_c, 0, 65, 64
1, 13416, Note_off_c, 0, 41, 64
1, 13516, Note_on_c, 0, 56, 40
1, 13520, Note_on_c, 0, 60, 32
1, 13528, Note_on_c, 0, 65, 32
1, 13632, Note_off_c, 0, 56, 64
1, 13636, Note_off_c, 0, 60, 64
1, 13644, Note_off_c, 0, 65, 64
1, 13668, Note_on_c, 0, 73, 50
1, 13692, Note_off_c, 0, 72, 64
1, 13824, Note_on_c, 0, 72, 56
1, 13844, Control_c, 0, 64, 0
1, 13852, Note_on_c, 0, 48, 46
1, 13872, Control_c, 0, 64, 127
1, 13876, Note_off_c, 0, 73, 64
1, 13960, Note_on_c, 0, 71, 51
1, 13980, Note_off_c, 0, 72, 64
1, 14100, Note_on_c, 0, 64, 26
1, 14112, Note_on_c, 0, 58, 29
1, 14116, Note_on_c, 0, 70, 55
1, 14120, Control_c, 0, 64, 0
1, 14132, Note_off_c, 0, 71, 64
1, 14144, Control_c, 0, 64, 127
1, 14212, Note_off_c, 0, 64, 64
1, 14228, Note_off_c, 0, 58, 64
1, 14364, Note_on_c, 0, 58, 37
1, 14364, Note_on_c, 0, 64, 27
1, 14420, Note_off_c, 0, 48, 64
1, 14480, Note_off_c, 0, 58, 64
1, 14480, Note_off_c, 0, 64, 64
1, 14496, Note_on_c, 0, 68, 49
1, 14532, Note_off_c, 0, 70, 64
1, 14632, Note_on_c, 0, 67, 34
1, 14652, Note_off_c, 0, 68, 64
1, 14676, Note_on_c, 0, 68, 54
1, 14688, Note_off_c, 0, 67, 64
1, 14692, Note_on_c, 0, 48, 50
1, 14708, Control_c, 0, 64, 0
1, 14736, Note_on_c, 0, 67, 56
1, 14756, Note_off_c, 0, 68, 64
1, 14788, Control_c, 0, 64, 127
1, 14892, Note_on_c, 0, 65, 54
1, 14916, Note_off_c, 0, 67, 64
1, 14992, Note_on_c, 0, 58, 33
1, 15004, Note_on_c, 0, 60, 35
1, 15004, Note_on_c, 0, 67, 50
1, 15012, Note_off_c, 0, 48, 64
1, 15020, Control_c, 0, 64, 0
1, 15052, Note_off_c, 0, 65, 64
1, 15060, Control_c, 0, 64, 127
1, 15108, Note_off_c, 0, 58, 64
1, 15116, Note_off_c, 0, 60, 64
1, 15124, Note_on_c, 0, 68, 52
1, 15172, Note_off_c, 0, 67, 64
1, 15284, Note_on_c, 0, 60, 39
1, 15292, Note_on_c, 0, 58, 35
1, 15296, Note_on_c, 0, 64, 51
1, 15312, Note_off_c, 0, 68, 64
1, 15400, Note_off_c, 0, 60, 64
1, 15408, Note_off_c, 0, 58, 64
1, 15620, Note_on_c, 0, 41, 49
1, 15632, Note_on_c, 0, 65, 51
1, 15644, Note_off_c, 0, 64, 64
1, 15656, Control_c, 0, 64, 0
1, 15692, Control_c, 0, 64, 127
1, 15888, Note_on_c, 0, 77, 46
1, 15972, Note_on_c, 0, 49, 46
1, 15984, Note_on_c, 0, 75, 62
1, 15984, Note_on_c, 0, 61, 47
1, 15996, Note_on_c, 0, 56, 39
1, 16004, Note_off_c, 0, 77, 64
1, 16024, Control_c, 0, 64, 0
1, 16044, Control_c, 0, 64, 127
1, 16096, Note_off_c, 0, 41, 64
1, 16228, Note_off_c, 0, 49, 64
1, 16240, Note_off_c, 0, 61, 64
1, 16252, Note_off_c, 0, 56, 64
1, 16396, Note_on_c, 0, 51, 43
1, 16396, Note_on_c, 0, 63, 57
1, 16404, Note_on_c, 0, 43, 46
1, 16436, Note_off_c, 0, 65, 64
1, 16452, Control_c, 0, 64, 0
1, 16484, Note_off_c, 0, 75, 64
1, 16504, Control_c, 0, 64, 127
1, 16644, Note_on_c, 0, 73, 50
1, 16684, Note_off_c, 0, 63, 64
1, 16852, Note_on_c, 0, 72, 50
1, 16860, Note_on_c, 0, 44, 50
1, 16868, Note_off_c, 0, 73, 64
1, 16868, Control_c, 0, 64, 0
1, 16888, Note_off_c, 0, 43, 64
1, 16904, Control_c, 0, 64, 127
1, 17004, Note_on_c, 0, 73, 51
1, 17044, Note_off_c, 0, 72, 64
1, 17156, Note_on_c, 0, 75, 48
1, 17172, Note_on_c, 0, 68, 42
1, 17196, Note_on_c, 0, 60, 37
1, 17204, Note_off_c, 0, 73, 64
1, 17212, Control_c, 0, 64, 0
1, 17244, Control_c, 0, 64, 127
1, 17376, Note_off_c, 0, 44, 64
1, 17396, Note_off_c, 0, 68, 64
1, 17412, Note_off_c, 0, 51, 64
1, 17416, Note_off_c, 0, 60, 64
1, 17468, Note_on_c, 0, 79, 52
1, 17504, Note_off_c, 0, 75, 64
1, 17632, Note_on_c, 0, 77, 48
1, 17636, Note_off_c, 0, 79, 64
1, 17764, Note_on_c, 0, 39, 50
1, 17772, Control_c, 0, 64, 0
1, 17780, Note_on_c, 0, 75, 57
1, 17808, Control_c, 0, 64, 127
1, 17820, Note_off_c, 0, 77, 64
1, 17904, Note_on_c, 0, 74, 49
1, 17920, Note_off_c, 0, 75, 64
1, 18040, Note_on_c, 0, 73, 62
1, 18052, Note_on_c, 0, 67, 26
1, 18060, Note_on_c, 0, 61, 37
1, 18076, Control_c, 0, 64, 0
1, 18084, Note_off_c, 0, 74, 64
1, 18116, Control_c, 0, 64, 127
1, 18168, Note_off_c, 0, 67, 64
1, 18172, Note_off_c, 0, 61, 64
1, 18216, Note_off_c, 0, 39, 64
1, 18340, Note_on_c, 0, 61, 25
1, 18340, Note_on_c, 0, 67, 23
1, 18456, Note_off_c, 0, 61, 64
1, 18456, Note_off_c, 0, 67, 64
1, 18476, Note_on_c, 0, 72, 52
1, 18488, Note_off_c, 0, 73, 64
1, 18612, Note_on_c, 0, 70, 58
1, 18624, Note_off_c, 0, 72, 64
1, 18668, Note_on_c, 0, 72, 54
1, 18696, Note_off_c, 0, 70, 64
1, 18708, Note_on_c, 0, 51, 39
1, 18716, Note_on_c, 0, 70, 58
1, 18724, Control_c, 0, 64, 0
1, 18756, Note_off_c, 0, 72, 64
1, 18784, Control_c, 0, 64, 127
1, 18872, Note_on_c, 0, 69, 51
1, 18876, Note_off_c, 0, 70, 64
1, 18992, Note_on_c, 0, 70, 62
1, 18992, Control_c, 0, 64, 0
1, 19004, Note_on_c, 0, 61, 50
1, 19020, Note_off_c, 0, 69, 64
1, 19036, Control_c, 0, 64, 127
1, 19128, Note_on_c, 0, 72, 51
1, 19152, Note_off_c, 0, 70, 64
1, 19264, Note_on_c, 0, 67, 51
1, 19276, Control_c, 0, 64, 0
1, 19284, Note_off_c, 0, 51, 64
1, 19284, Note_on_c, 0, 52, 46
1, 19308, Note_off_c, 0, 72, 64
1, 19324, Control_c, 0, 64, 127
1, 19344, Note_off_c, 0, 61, 64
1, 19492, Note_on_c, 0, 70, 48
1, 19528, Note_off_c, 0, 67, 64
1, 19548, Note_on_c, 0, 68, 51
1, 19560, Note_on_c, 0, 53, 46
1, 19576, Note_off_c, 0, 52, 64
1, 19588, Control_c, 0, 64, 0
1, 19604, Note_off_c, 0, 70, 64
1, 19672, Control_c, 0, 64, 127
1, 19736, Note_off_c, 0, 68, 64
1, 19744, Note_on_c, 0, 67, 48
1, 19804, Note_off_c, 0, 53, 64
1, 19832, Note_on_c, 0, 68, 57
1, 19844, Note_on_c, 0, 56, 35
1, 19848, Note_on_c, 0, 60, 39
1, 19856, Control_c, 0, 64, 0
1, 19888, Note_off_c, 0, 67, 64
1, 19892, Control_c, 0, 64, 127
1, 19960, Note_off_c, 0, 56, 64
1, 19964, Note_off_c, 0, 60, 64
1, 20132, Note_on_c, 0, 56, 32
1, 20144, Note_on_c, 0, 64, 51
1, 20144, Note_on_c, 0, 60, 32
1, 20156, Control_c, 0, 64, 0
1, 20168, Note_off_c, 0, 68, 64
1, 20180, Control_c, 0, 64, 127
1, 20248, Note_off_c, 0, 56, 64
1, 20260, Note_off_c, 0, 60, 64
1, 20456, Note_on_c, 0, 65, 50
1, 20460, Note_on_c, 0, 49, 46
1, 20472, Control_c, 0, 64, 0
1, 20476, Note_off_c, 0, 64, 64
1, 20528, Control_c, 0, 64, 127
1, 20652, Note_on_c, 0, 67, 51
1, 20684, Note_off_c, 0, 65, 64
1, 20716, Note_off_c, 0, 49, 64
1, 20720, Note_on_c, 0, 68, 62
1, 20736, Note_on_c, 0, 58, 28
1, 20752, Note_off_c, 0, 67, 64
1, 20752, Note_on_c, 0, 55, 27
1, 20752, Note_on_c, 0, 65, 29
1, 20764, Control_c, 0, 64, 0
1, 20800, Control_c, 0, 64, 127
1, 20852, Note_off_c, 0, 58, 64
1, 20868, Note_off_c, 0, 55, 64
1, 20868, Note_off_c, 0, 65, 64
1, 21056, Note_on_c, 0, 58, 19
1, 21060, Note_on_c, 0, 55, 19
1, 21068, Note_on_c, 0, 65, 21
1, 21112, Note_on_c, 0, 70, 66
1, 21148, Note_off_c, 0, 68, 64
1, 21172, Note_off_c, 0, 58, 64
1, 21176, Note_off_c, 0, 55, 64
1, 21208, Note_off_c, 0, 65, 64
1, 21416, Note_on_c, 0, 48, 47
1, 21420, Note_on_c, 0, 72, 52
1, 21436, Note_off_c, 0, 70, 64
1, 21440, Control_c, 0, 64, 0
1, 21460, Control_c, 0, 64, 127
1, 21648, Note_on_c, 0, 73, 32
1, 21668, Note_off_c, 0, 48, 64
1, 21672, Note_off_c, 0, 72, 64
1, 21728, Note_on_c, 0, 72, 47
1, 21728, Note_on_c, 0, 64, 32
1, 21744, Note_on_c, 0, 58, 32
1, 21752, Note_off_c, 0, 73, 64
1, 21788, Control_c, 0, 64, 0
1, 21844, Note_off_c, 0, 64, 64
1, 21844, Control_c, 0, 64, 127
1, 21860, Note_off_c, 0, 58, 64
1, 22068, Note_on_c, 0, 64, 25
1, 22084, Note_on_c, 0, 58, 28
1, 22184, Note_off_c, 0, 64, 64
1, 22196, Note_off_c, 0, 58, 64
1, 22212, Note_on_c, 0, 67, 51
1, 22232, Note_off_c, 0, 72, 64
1, 22396, Note_on_c, 0, 65, 54
1, 22412, Note_off_c, 0, 67, 64
1, 22440, Note_on_c, 0, 67, 54
1, 22464, Note_off_c, 0, 65, 64
1, 22480, Note_on_c, 0, 49, 39
1, 22508, Note_on_c, 0, 65, 54
1, 22516, Control_c, 0, 64, 0
1, 22532, Note_off_c, 0, 67, 64
1, 22552, Control_c, 0, 64, 127
1, 22648, Note_on_c, 0, 64, 42
1, 22676, Note_off_c, 0, 65, 64
1, 22724, Note_off_c, 0, 49, 64
1, 22756, Control_c, 0, 64, 0
1, 22768, Note_on_c, 0, 65, 54
1, 22772, Note_on_c, 0, 55, 40
1, 22784, Note_off_c, 0, 64, 64
1, 22784, Note_on_c, 0, 58, 39
1, 22804, Control_c, 0, 64, 127
1, 22888, Note_off_c, 0, 55, 64
1, 22900, Note_off_c, 0, 58, 64
1, 22912, Note_on_c, 0, 67, 51
1, 22936, Note_off_c, 0, 65, 64
1, 23036, Note_on_c, 0, 68, 51
1, 23044, Note_on_c, 0, 65, 35
1, 23052, Note_on_c, 0, 58, 32
1, 23060, Note_off_c, 0, 67, 64
1, 23060, Note_on_c, 0, 55, 26
1, 23152, Note_off_c, 0, 65, 64
1, 23168, Note_off_c, 0, 58, 64
1, 23168, Note_on_c, 0, 70, 41
1, 23172, Note_off_c, 0, 55, 64
1, 23180, Note_off_c, 0, 68, 64
1, 23312, Note_on_c, 0, 72, 51
1, 23324, Note_on_c, 0, 48, 47
1, 23332, Note_off_c, 0, 70, 64
1, 23348, Control_c, 0, 64, 0
1, 23408, Control_c, 0, 64, 127
1, 23464, Note_on_c, 0, 75, 42
1, 23504, Note_off_c, 0, 72, 64
1, 23508, Note_on_c, 0, 73, 51
1, 23532, Note_off_c, 0, 75, 64
1, 23556, Note_off_c, 0, 48, 64
1, 23572, Note_on_c, 0, 64, 41
1, 23580, Note_on_c, 0, 55, 47
1, 23588, Control_c, 0, 64, 0
1, 23596, Note_on_c, 0, 72, 51
1, 23616, Note_off_c, 0, 73, 64
1, 23652, Control_c, 0, 64, 127
1, 23856, Note_off_c, 0, 55, 64
1, 23860, Note_on_c, 0, 48, 48
1, 23880, Note_off_c, 0, 64, 64
1, 23992, Note_on_c, 0, 71, 50
1, 24028, Note_off_c, 0, 72, 64
1, 24176, Note_on_c, 0, 49, 47
1, 24196, Note_off_c, 0, 48, 64
1, 24196, Note_on_c, 0, 70, 51
1, 24208, Control_c, 0, 64, 0
1, 24232, Note_off_c, 0, 71, 64
1, 24260, Control_c, 0, 64, 127
1, 24308, Note_on_c, 0, 72, 49
1, 24328, Note_off_c, 0, 70, 64
1, 24404, Note_on_c, 0, 70, 62
1, 24428, Note_off_c, 0, 72, 64
1, 24464, Control_c, 0, 64, 0
1, 24476, Note_on_c, 0, 63, 32
1, 24496, Note_on_c, 0, 69, 54
1, 24500, Note_on_c, 0, 55, 34
1, 24516, Control_c, 0, 64, 127
1, 24524, Note_off_c, 0, 70, 64
1, 24572, Note_off_c, 0, 49, 64
1, 24584, Note_on_c, 0, 70, 62
1, 24592, Note_off_c, 0, 63, 64
1, 24608, Note_off_c, 0, 69, 64
1, 24616, Note_off_c, 0, 55, 64
1, 24732, Note_on_c, 0, 72, 52
1, 24740, Note_on_c, 0, 63, 35
1, 24752, Note_on_c, 0, 55, 34
1, 24768, Note_off_c, 0, 70, 64
1, 24836, Note_on_c, 0, 73, 54
1, 24856, Note_off_c, 0, 63, 64
1, 24868, Note_off_c, 0, 55, 64
1, 24872, Note_off_c, 0, 72, 64
1, 24984, Note_on_c, 0, 77, 54
1, 24996, Note_on_c, 0, 48, 39
1, 25020, Control_c, 0, 64, 0
1, 25040, Note_off_c, 0, 73, 64
1, 25092, Control_c, 0, 64, 127
1, 25104, Note_on_c, 0, 75, 54
1, 25140, Note_off_c, 0, 77, 64
1, 25288, Note_on_c, 0, 80, 54
1, 25320, Note_off_c, 0, 75, 64
1, 25324, Note_on_c, 0, 63, 32
1, 25336, Note_on_c, 0, 56, 47
1, 25356, Control_c, 0, 64, 0
1, 25364, Note_off_c, 0, 48, 64
1, 25408, Control_c, 0, 64, 127
1, 25684, Note_on_c, 0, 53, 39
1, 25728, Note_off_c, 0, 63, 64
1, 25740, Note_off_c, 0, 56, 64
1, 26020, Note_off_c, 0, 53, 64
1, 26024, Control_c, 0, 64, 0
1, 26032, Note_on_c, 0, 69, 51
1, 26032, Note_on_c, 0, 51, 49
1, 26068, Note_off_c, 0, 80, 64
1, 26076, Control_c, 0, 64, 127
1, 26216, Note_on_c, 0, 70, 51
1, 26260, Note_off_c, 0, 69, 64
1, 26372, Note_on_c, 0, 58, 18
1, 26384, Note_on_c, 0, 62, 18
1, 26396, Note_on_c, 0, 68, 37
1, 26396, Note_on_c, 0, 79, 52
1, 26424, Control_c, 0, 64, 0
1, 26436, Note_off_c, 0, 70, 64
1, 26460, Control_c, 0, 64, 127
1, 26492, Note_off_c, 0, 51, 64
1, 26552, Control_c, 0, 64, 0
1, 26564, Note_on_c, 0, 77, 51
1, 26588, Control_c, 0, 64, 127
1, 26592, Note_off_c, 0, 79, 64
1, 26628, Control_c, 0, 64, 0
1, 26668, Control_c, 0, 64, 127
1, 26716, Note_off_c, 0, 58, 64
1, 26728, Note_off_c, 0, 62, 64
1, 26740, Note_off_c, 0, 68, 64
1, 26744, Note_on_c, 0, 67, 18
1, 26748, Note_on_c, 0, 75, 42
1, 26748, Note_on_c, 0, 61, 26
1, 26752, Note_on_c, 0, 58, 25
1, 26768, Note_off_c, 0, 77, 64
1, 26964, Note_on_c, 0, 63, 49
1, 26976, Note_off_c, 0, 61, 64
1, 26992, Note_off_c, 0, 67, 64
1, 26992, Note_off_c, 0, 75, 64
1, 27004, Note_off_c, 0, 58, 64
1, 27172, Note_on_c, 0, 73, 48
1, 27196, Note_on_c, 0, 44, 49
1, 27240, Note_off_c, 0, 63, 64
1, 27244, Control_c, 0, 64, 0
1, 27300, Control_c, 0, 64, 127
1, 27372, Note_on_c, 0, 72, 46
1, 27396, Note_off_c, 0, 73, 64
1, 27536, Note_off_c, 0, 44, 64
1, 27584, Note_on_c, 0, 51, 32
1, 27584, Note_on_c, 0, 68, 48
1, 27600, Note_off_c, 0, 72, 64
1, 27612, Note_on_c, 0, 60, 31
1, 27632, Control_c, 0, 64, 0
1, 27700, Control_c, 0, 64, 127
1, 27948, Note_on_c, 0, 46, 49
1, 28004, Note_off_c, 0, 51, 64
1, 28212, Note_off_c, 0, 60, 64
1, 28344, Note_on_c, 0, 67, 51
1, 28348, Note_on_c, 0, 48, 32
1, 28368, Note_off_c, 0, 68, 64
1, 28368, Note_on_c, 0, 64, 39
1, 28372, Note_on_c, 0, 58, 25
1, 28392, Control_c, 0, 64, 0
1, 28396, Note_off_c, 0, 46, 64
1, 28456, Control_c, 0, 64, 127
1, 28700, Note_on_c, 0, 72, 59
1, 28724, Control_c, 0, 64, 0
1, 28732, Note_off_c, 0, 67, 64
1, 28756, Note_off_c, 0, 64, 64
1, 28772, Note_off_c, 0, 48, 64
1, 28780, Control_c, 0, 64, 127
1, 29016, Note_on_c, 0, 60, 51
1, 29056, Note_off_c, 0, 58, 64
1, 29156, Note_on_c, 0, 70, 51
1, 29192, Note_off_c, 0, 72, 64
1, 29240, Note_off_c, 0, 70, 64
1, 29300, Note_on_c, 0, 70, 56
1, 29364, Note_on_c, 0, 68, 51
1, 29372, Control_c, 0, 64, 0
1, 29388, Note_off_c, 0, 70, 64
1, 29412, Control_c, 0, 64, 127
1, 29556, Note_off_c, 0, 60, 64
1, 29564, Note_on_c, 0, 67, 49
1, 29572, Note_off_c, 0, 68, 64
1, 29640, Note_on_c, 0, 68, 64
1, 29660, Note_on_c, 0, 60, 48
1, 29676, Note_off_c, 0, 67, 64
1, 29692, Control_c, 0, 64, 0
1, 29716, Control_c, 0, 64, 127
1, 29920, Note_off_c, 0, 60, 64
1, 29960, Note_on_c, 0, 61, 33
1, 29968, Note_on_c, 0, 65, 54
1, 29968, Note_on_c, 0, 56, 25
1, 29968, Note_on_c, 0, 53, 26
1, 29996, Control_c, 0, 64, 0
1, 30004, Note_off_c, 0, 68, 64
1, 30056, Control_c, 0, 64, 127
1, 30268, Note_on_c, 0, 64, 49
1, 30284, Note_off_c, 0, 65, 64
1, 30284, Note_off_c, 0, 56, 64
1, 30284, Note_off_c, 0, 53, 64
1, 30288, Note_off_c, 0, 61, 64
1, 30308, Control_c, 0, 64, 0
1, 30332, Control_c, 0, 64, 127
1, 30396, Note_on_c, 0, 65, 41
1, 30468, Note_off_c, 0, 64, 64
1, 30560, Note_on_c, 0, 67, 49
1, 30572, Note_on_c, 0, 58, 46
1, 30576, Note_on_c, 0, 61, 36
1, 30588, Note_off_c, 0, 65, 64
1, 30596, Control_c, 0, 64, 0
1, 30636, Control_c, 0, 64, 127
1, 30848, Note_on_c, 0, 68, 50
1, 30856, Note_on_c, 0, 48, 50
1, 30876, Control_c, 0, 64, 0
1, 30900, Note_off_c, 0, 67, 64
1, 30916, Control_c, 0, 64, 127
1, 31016, Note_off_c, 0, 58, 64
1, 31016, Note_on_c, 0, 67, 33
1, 31036, Note_off_c, 0, 68, 64
1, 31092, Note_on_c, 0, 65, 49
1, 31124, Note_off_c, 0, 67, 64
1, 31148, Note_on_c, 0, 67, 49
1, 31180, Control_c, 0, 64, 0
1, 31184, Note_off_c, 0, 65, 64
1, 31204, Note_on_c, 0, 65, 54
1, 31204, Control_c, 0, 64, 127
1, 31236, Note_off_c, 0, 67, 64
1, 31312, Note_off_c, 0, 48, 64
1, 31348, Note_off_c, 0, 61, 64
1, 31396, Note_on_c, 0, 64, 50
1, 31412, Note_off_c, 0, 65, 64
1, 31472, Note_on_c, 0, 56, 42
1, 31480, Note_on_c, 0, 59, 41
1, 31484, Note_on_c, 0, 65, 46
1, 31492, Control_c, 0, 64, 0
1, 31504, Note_off_c, 0, 64, 64
1, 31548, Control_c, 0, 64, 127
1, 31784, Note_on_c, 0, 62, 50
1, 31796, Note_on_c, 0, 48, 49
1, 31804, Control_c, 0, 64, 0
1, 31812, Note_off_c, 0, 59, 64
1, 31812, Note_off_c, 0, 65, 64
1, 31868, Control_c, 0, 64, 127
1, 31940, Note_off_c, 0, 56, 64
1, 32064, Note_on_c, 0, 67, 54
1, 32076, Note_off_c, 0, 48, 64
1, 32080, Control_c, 0, 64, 0
1, 32096, Note_off_c, 0, 62, 64
1, 32100, Control_c, 0, 64, 127
1, 32268, Note_on_c, 0, 60, 46
1, 32276, Note_off_c, 0, 67, 64
1, 32372, Note_on_c, 0, 72, 58
1, 32372, Control_c, 0, 64, 0
1, 32384, Note_on_c, 0, 64, 47
1, 32384, Note_on_c, 0, 55, 46
1, 32412, Note_off_c, 0, 60, 64
1, 32436, Control_c, 0, 64, 127
1, 32596, Note_off_c, 0, 64, 64
1, 32628, Note_off_c, 0, 55, 64
1, 32680, Note_on_c, 0, 48, 49
1, 32792, Note_on_c, 0, 70, 44
1, 32808, Note_off_c, 0, 72, 64
1, 32904, Note_off_c, 0, 70, 64
1, 32968, Note_on_c, 0, 70, 63
1, 33020, Note_on_c, 0, 68, 58
1, 33028, Note_on_c, 0, 41, 50
1, 33032, Note_off_c, 0, 48, 64
1, 33036, Control_c, 0, 64, 0
1, 33052, Note_off_c, 0, 70, 64
1, 33076, Control_c, 0, 64, 127
1, 33260, Note_on_c, 0, 67, 51
1, 33272, Note_off_c, 0, 68, 64
1, 33332, Note_on_c, 0, 56, 41
1, 33332, Note_on_c, 0, 68, 64
1, 33356, Note_on_c, 0, 60, 32
1, 33364, Control_c, 0, 64, 0
1, 33372, Note_off_c, 0, 67, 64
1, 33420, Control_c, 0, 64, 127
1, 33444, Note_off_c, 0, 56, 64
1, 33468, Note_off_c, 0, 60, 64
1, 33484, Note_off_c, 0, 41, 64
1, 33652, Control_c, 0, 64, 0
1, 33660, Note_on_c, 0, 56, 26
1, 33664, Note_on_c, 0, 65, 57
1, 33664, Note_on_c, 0, 62, 39
1, 33684, Note_off_c, 0, 68, 64
1, 33700, Control_c, 0, 64, 127
1, 33776, Note_off_c, 0, 56, 64
1, 33780, Note_off_c, 0, 62, 64
1, 33972, Note_on_c, 0, 48, 50
1, 33972, Note_on_c, 0, 64, 54
1, 33984, Note_off_c, 0, 65, 64
1, 33988, Control_c, 0, 64, 0
1, 34032, Control_c, 0, 64, 127
1, 34128, Note_on_c, 0, 65, 49
1, 34148, Note_off_c, 0, 64, 64
1, 34244, Note_on_c, 0, 64, 36
1, 34244, Note_on_c, 0, 55, 43
1, 34248, Note_on_c, 0, 67, 55
1, 34256, Note_on_c, 0, 60, 32
1, 34284, Note_off_c, 0, 65, 64
1, 34360, Note_off_c, 0, 64, 64
1, 34360, Note_off_c, 0, 55, 64
1, 34372, Note_off_c, 0, 60, 64
1, 34568, Note_off_c, 0, 48, 64
1, 34576, Note_on_c, 0, 65, 21
1, 34588, Note_on_c, 0, 76, 57
1, 34588, Note_on_c, 0, 55, 39
1, 34588, Note_on_c, 0, 59, 32
1, 34600, Note_off_c, 0, 67, 64
1, 34636, Control_c, 0, 64, 0
1, 34660, Control_c, 0, 64, 127
1, 34688, Note_off_c, 0, 59, 64
1, 34692, Note_off_c, 0, 65, 64
1, 34708, Note_off_c, 0, 55, 64
1, 34764, Note_on_c, 0, 74, 44
1, 34788, Note_off_c, 0, 76, 64
1, 34876, Note_on_c, 0, 72, 51
1, 34888, Note_off_c, 0, 74, 64
1, 34928, Note_on_c, 0, 48, 51
1, 34928, Note_on_c, 0, 74, 51
1, 34948, Control_c, 0, 64, 0
1, 34960, Note_off_c, 0, 72, 64
1, 34988, Note_on_c, 0, 72, 49
1, 35012, Control_c, 0, 64, 127
1, 35016, Note_off_c, 0, 74, 64
1, 35152, Note_on_c, 0, 71, 51
1, 35160, Note_off_c, 0, 72, 64
1, 35252, Note_on_c, 0, 72, 54
1, 35264, Note_on_c, 0, 55, 46
1, 35268, Note_on_c, 0, 64, 40
1, 35276, Control_c, 0, 64, 0
1, 35284, Note_on_c, 0, 60, 34
1, 35292, Note_off_c, 0, 71, 64
1, 35316, Control_c, 0, 64, 127
1, 35372, Note_off_c, 0, 55, 64
1, 35380, Note_off_c, 0, 60, 64
1, 35380, Note_off_c, 0, 64, 64
1, 35420, Note_off_c, 0, 48, 64
1, 35588, Note_on_c, 0, 56, 51
1, 35588, Control_c, 0, 64, 0
1, 35596, Note_on_c, 0, 60, 49
1, 35596, Note_on_c, 0, 65, 46
1, 35632, Control_c, 0, 64, 127
1, 35748, Note_off_c, 0, 72, 64
1, 35856, Note_on_c, 0, 72, 47
1, 35908, Note_on_c, 0, 74, 49
1, 35928, Note_off_c, 0, 72, 64
1, 35964, Control_c, 0, 64, 0
1, 35972, Note_on_c, 0, 72, 49
1, 36004, Note_off_c, 0, 74, 64
1, 36004, Control_c, 0, 64, 127
1, 36188, Note_off_c, 0, 56, 64
1, 36196, Note_off_c, 0, 60, 64
1, 36196, Note_off_c, 0, 65, 64
1, 36212, Note_on_c, 0, 71, 50
1, 36236, Note_off_c, 0, 72, 64
1, 36284, Note_on_c, 0, 55, 35
1, 36284, Note_on_c, 0, 72, 58
1, 36284, Note_on_c, 0, 64, 41
1, 36304, Control_c, 0, 64, 0
1, 36312, Note_on_c, 0, 60, 39
1, 36332, Note_off_c, 0, 71, 64
1, 36348, Control_c, 0, 64, 127
1, 36416, Note_off_c, 0, 55, 64
1, 36420, Note_off_c, 0, 60, 64
1, 36444, Note_off_c, 0, 64, 64
1, 36656, Note_on_c, 0, 56, 50
1, 36672, Note_on_c, 0, 60, 36
1, 36672, Note_on_c, 0, 65, 56
1, 36692, Control_c, 0, 64, 0
1, 36728, Control_c, 0, 64, 127
1, 36764, Note_off_c, 0, 72, 64
1, 36932, Note_off_c, 0, 60, 64
1, 36936, Note_off_c, 0, 56, 64
1, 36936, Note_on_c, 0, 72, 62
1, 37000, Note_on_c, 0, 74, 51
1, 37004, Note_off_c, 0, 65, 64
1, 37012, Note_off_c, 0, 72, 64
1, 37048, Control_c, 0, 64, 0
1, 37056, Note_on_c, 0, 72, 54
1, 37068, Note_on_c, 0, 48, 59
1, 37076, Control_c, 0, 64, 127
1, 37096, Note_off_c, 0, 74, 64
1, 37312, Note_on_c, 0, 71, 42
1, 37320, Note_off_c, 0, 72, 64
1, 37416, Note_on_c, 0, 72, 56
1, 37420, Note_off_c, 0, 48, 64
1, 37428, Note_on_c, 0, 64, 46
1, 37432, Note_on_c, 0, 55, 50
1, 37444, Note_off_c, 0, 71, 64
1, 37456, Control_c, 0, 64, 0
1, 37540, Control_c, 0, 64, 127
1, 37888, Note_on_c, 0, 48, 51
1, 37956, Note_off_c, 0, 55, 64
1, 37976, Note_off_c, 0, 64, 64
1, 38096, Note_on_c, 0, 71, 49
1, 38124, Note_off_c, 0, 72, 64
1, 38340, Note_on_c, 0, 72, 49
1, 38364, Note_off_c, 0, 48, 64
1, 38364, Note_on_c, 0, 55, 44
1, 38372, Note_on_c, 0, 64, 39
1, 38380, Note_off_c, 0, 71, 64
1, 38408, Control_c, 0, 64, 0
1, 38464, Control_c, 0, 64, 127
1, 38616, Note_on_c, 0, 71, 42
1, 38640, Note_off_c, 0, 72, 64
1, 38800, Note_off_c, 0, 55, 64
1, 38900, Note_on_c, 0, 72, 36
1, 38900, Note_on_c, 0, 48, 32
1, 38940, Note_off_c, 0, 71, 64
1, 38956, Control_c, 0, 64, 0
1, 38960, Note_off_c, 0, 64, 64
1, 38996, Control_c, 0, 64, 127
1, 39392, Note_off_c, 0, 48, 64
1, 39456, Note_on_c, 0, 55, 20
1, 39468, Note_on_c, 0, 64, 23
1, 39476, Note_on_c, 0, 71, 34
1, 39528, Note_off_c, 0, 72, 64
1, 39616, Note_off_c, 0, 64, 64
1, 39636, Note_off_c, 0, 55, 64
1, 39960, Note_on_c, 0, 44, 39
1, 40036, Control_c, 0, 64, 0
1, 40056, Note_on_c, 0, 72, 49
1, 40068, Control_c, 0, 64, 127
1, 40092, Note_off_c, 0, 71, 64
1, 40236, Note_on_c, 0, 73, 51
1, 40292, Note_off_c, 0, 72, 64
1, 40304, Note_on_c, 0, 51, 39
1, 40392, Note_on_c, 0, 60, 34
1, 40432, Note_on_c, 0, 68, 58
1, 40440, Note_on_c, 0, 75, 51
1, 40464, Note_off_c, 0, 51, 64
1, 40480, Note_off_c, 0, 73, 64
1, 40500, Note_off_c, 0, 44, 64
1, 40552, Note_off_c, 0, 60, 64
1, 40592, Note_off_c, 0, 68, 64
1, 40944, Note_on_c, 0, 77, 49
1, 40968, Note_off_c, 0, 75, 64
1, 41060, Note_on_c, 0, 39, 51
1, 41072, Control_c, 0, 64, 0
1, 41084, Note_on_c, 0, 75, 59
1, 41112, Control_c, 0, 64, 127
1, 41120, Note_off_c, 0, 77, 64
1, 41228, Note_on_c, 0, 74, 39
1, 41244, Note_off_c, 0, 75, 64
1, 41368, Note_on_c, 0, 67, 32
1, 41372, Note_on_c, 0, 61, 32
1, 41372, Note_on_c, 0, 73, 62
1, 41392, Control_c, 0, 64, 0
1, 41400, Note_off_c, 0, 74, 64
1, 41420, Tempo, 500000
1, 41420, Control_c, 0, 64, 127
1, 41480, Note_off_c, 0, 67, 64
1, 41484, Note_off_c, 0, 61, 64
1, 41524, Note_off_c, 0, 39, 64
1, 41724, Note_on_c, 0, 61, 32
1, 41724, Note_on_c, 0, 67, 21
1, 41840, Note_off_c, 0, 61, 64
1, 41840, Note_off_c, 0, 67, 64
1, 41848, Note_on_c, 0, 72, 46
1, 41884, Note_off_c, 0, 73, 64
1, 41932, Note_on_c, 0, 70, 59
1, 41944, Note_off_c, 0, 72, 64
1, 41996, Note_on_c, 0, 72, 58
1, 42012, Note_off_c, 0, 70, 64
1, 42012, Control_c, 0, 64, 0
1, 42020, Note_on_c, 0, 51, 46
1, 42052, Note_on_c, 0, 70, 52
1, 42076, Control_c, 0, 64, 127
1, 42088, Note_off_c, 0, 72, 64
1, 42192, Note_on_c, 0, 69, 49
1, 42212, Note_off_c, 0, 70, 64
1, 42280, Control_c, 0, 64, 0
1, 42296, Note_on_c, 0, 70, 58
1, 42296, Note_on_c, 0, 63, 32
1, 42312, Note_on_c, 0, 61, 39
1, 42336, Note_off_c, 0, 69, 64
1, 42336, Control_c, 0, 64, 127
1, 42352, Note_off_c, 0, 51, 64
1, 42412, Note_off_c, 0, 63, 64
1, 42424, Note_off_c, 0, 61, 64
1, 42428, Note_on_c, 0, 72, 51
1, 42464, Note_off_c, 0, 70, 64
1, 42568, Note_on_c, 0, 63, 39
1, 42572, Note_on_c, 0, 67, 50
1, 42580, Note_on_c, 0, 61, 36
1, 42628, Note_off_c, 0, 72, 64
1, 42684, Note_off_c, 0, 63, 64
1, 42696, Note_off_c, 0, 61, 64
1, 42780, Note_on_c, 0, 70, 47
1, 42824, Note_off_c, 0, 67, 64
1, 42832, Note_on_c, 0, 68, 52
1, 42848, Note_on_c, 0, 44, 49
1, 42876, Control_c, 0, 64, 0
1, 42896, Note_off_c, 0, 70, 64
1, 42912, Control_c, 0, 64, 127
1, 43008, Note_on_c, 0, 67, 34
1, 43032, Note_off_c, 0, 68, 64
1, 43112, Note_on_c, 0, 68, 59
1, 43136, Note_on_c, 0, 51, 39
1, 43140, Note_off_c, 0, 67, 64
1, 43140, Note_on_c, 0, 60, 42
1, 43148, Control_c, 0, 64, 0
1, 43192, Control_c, 0, 64, 127
1, 43328, Note_off_c, 0, 51, 64
1, 43332, Note_off_c, 0, 60, 64
1, 43448, Note_off_c, 0, 44, 64
1, 43448, Note_on_c, 0, 60, 50
1, 43480, Note_off_c, 0, 68, 64
1, 43752, Note_on_c, 0, 41, 44
1, 43800, Control_c, 0, 64, 0
1, 43808, Note_on_c, 0, 68, 58
1, 43832, Note_off_c, 0, 60, 64
1, 43860, Control_c, 0, 64, 127
1, 43940, Note_on_c, 0, 70, 51
1, 44000, Note_off_c, 0, 68, 64
1, 44068, Note_on_c, 0, 72, 58
1, 44072, Note_on_c, 0, 65, 39
1, 44080, Note_on_c, 0, 56, 32
1, 44096, Note_off_c, 0, 70, 64
1, 44100, Control_c, 0, 64, 0
1, 44152, Control_c, 0, 64, 127
1, 44184, Note_off_c, 0, 65, 64
1, 44196, Note_off_c, 0, 56, 64
1, 44272, Note_off_c, 0, 41, 64
1, 44364, Note_on_c, 0, 56, 32
1, 44364, Control_c, 0, 64, 127
1, 44376, Note_on_c, 0, 65, 39
1, 44384, Note_on_c, 0, 60, 27
1, 44480, Note_off_c, 0, 56, 64
1, 44492, Note_off_c, 0, 65, 64
1, 44496, Note_off_c, 0, 60, 64
1, 44504, Note_on_c, 0, 73, 50
1, 44532, Note_off_c, 0, 72, 64
1, 44652, Note_on_c, 0, 72, 56
1, 44660, Note_on_c, 0, 48, 50
1, 44672, Control_c, 0, 64, 0
1, 44680, Note_off_c, 0, 73, 64
1, 44688, Control_c, 0, 64, 127
1, 44780, Note_on_c, 0, 71, 52
1, 44804, Note_off_c, 0, 72, 64
1, 44928, Note_on_c, 0, 70, 58
1, 44928, Control_c, 0, 64, 0
1, 44944, Note_off_c, 0, 71, 64
1, 44944, Note_on_c, 0, 64, 26
1, 44952, Note_on_c, 0, 58, 32
1, 44984, Control_c, 0, 64, 127
1, 45060, Note_off_c, 0, 64, 64
1, 45068, Note_off_c, 0, 58, 64
1, 45204, Note_off_c, 0, 48, 64
1, 45240, Note_on_c, 0, 64, 32
1, 45244, Note_on_c, 0, 58, 29
1, 45336, Note_on_c, 0, 68, 51
1, 45356, Note_off_c, 0, 64, 64
1, 45360, Note_off_c, 0, 58, 64
1, 45364, Note_off_c, 0, 70, 64
1, 45480, Note_on_c, 0, 67, 41
1, 45500, Note_off_c, 0, 68, 64
1, 45520, Note_on_c, 0, 68, 49
1, 45540, Note_off_c, 0, 67, 64
1, 45556, Note_on_c, 0, 48, 49
1, 45568, Control_c, 0, 64, 0
1, 45580, Note_on_c, 0, 67, 44
1, 45592, Note_off_c, 0, 68, 64
1, 45632, Control_c, 0, 64, 127
1, 45720, Note_on_c, 0, 65, 54
1, 45744, Note_off_c, 0, 67, 64
1, 45832, Note_on_c, 0, 67, 50
1, 45840, Control_c, 0, 64, 0
1, 45856, Note_on_c, 0, 60, 25
1, 45868, Note_off_c, 0, 65, 64
1, 45868, Note_on_c, 0, 58, 36
1, 45888, Control_c, 0, 64, 127
1, 45952, Note_on_c, 0, 68, 58
1, 45972, Note_off_c, 0, 60, 64
1, 45984, Note_off_c, 0, 58, 64
1, 46004, Note_off_c, 0, 67, 64
1, 46120, Note_on_c, 0, 60, 36
1, 46124, Note_on_c, 0, 58, 32
1, 46128, Note_on_c, 0, 64, 44
1, 46144, Note_off_c, 0, 68, 64
1, 46224, Note_off_c, 0, 48, 64
1, 46232, Note_off_c, 0, 60, 64
1, 46240, Note_off_c, 0, 58, 64
1, 46452, Note_on_c, 0, 65, 57
1, 46452, Note_on_c, 0, 41, 52
1, 46468, Control_c, 0, 64, 0
1, 46480, Note_off_c, 0, 64, 64
1, 46528, Control_c, 0, 64, 127
1, 46720, Note_on_c, 0, 77, 49
1, 46776, Note_on_c, 0, 49, 42
1, 46776, Note_on_c, 0, 56, 42
1, 46780, Note_on_c, 0, 61, 42
1, 46800, Note_on_c, 0, 75, 63
1, 46808, Control_c, 0, 64, 0
1, 46828, Note_off_c, 0, 77, 64
1, 46832, Control_c, 0, 64, 127
1, 47032, Note_off_c, 0, 49, 64
1, 47032, Note_off_c, 0, 56, 64
1, 47036, Note_off_c, 0, 61, 64
1, 47080, Note_off_c, 0, 41, 64
1, 47140, Note_on_c, 0, 63, 47
1, 47148, Control_c, 0, 64, 0
1, 47164, Note_off_c, 0, 65, 64
1, 47164, Note_on_c, 0, 43, 47
1, 47180, Note_on_c, 0, 51, 50
1, 47180, Control_c, 0, 64, 127
1, 47220, Note_off_c, 0, 75, 64
1, 47312, Note_on_c, 0, 73, 49
1, 47340, Note_off_c, 0, 63, 64
1, 47464, Note_on_c, 0, 44, 58
1, 47472, Note_on_c, 0, 72, 47
1, 47488, Note_off_c, 0, 43, 64
1, 47492, Note_off_c, 0, 73, 64
1, 47496, Control_c, 0, 64, 0
1, 47508, Note_off_c, 0, 51, 64
1, 47540, Control_c, 0, 64, 127
1, 47624, Note_on_c, 0, 73, 46
1, 47688, Note_off_c, 0, 72, 64
1, 47764, Note_on_c, 0, 75, 62
1, 47772, Note_on_c, 0, 68, 43
1, 47776, Note_on_c, 0, 60, 51
1, 47788, Control_c, 0, 64, 0
1, 47804, Note_off_c, 0, 73, 64
1, 47808, Control_c, 0, 64, 127
1, 47912, Note_off_c, 0, 44, 64
1, 47976, Note_off_c, 0, 68, 64
1, 47976, Note_off_c, 0, 60, 64
1, 48192, Note_on_c, 0, 79, 58
1, 48228, Note_off_c, 0, 75, 64
1, 48400, Note_on_c, 0, 77, 44
1, 48440, Note_off_c, 0, 79, 64
1, 48596, Note_on_c, 0, 75, 56
1, 48616, Note_on_c, 0, 39, 49
1, 48632, Note_off_c, 0, 77, 64
1, 48640, Control_c, 0, 64, 0
1, 48712, Control_c, 0, 64, 127
1, 48768, Note_on_c, 0, 74, 47
1, 48776, Note_off_c, 0, 75, 64
1, 48900, Note_on_c, 0, 73, 58
1, 48908, Note_on_c, 0, 61, 41
1, 48928, Note_on_c, 0, 67, 20
1, 48936, Note_off_c, 0, 74, 64
1, 48948, Control_c, 0, 64, 0
1, 48968, Control_c, 0, 64, 127
1, 49024, Note_off_c, 0, 61, 64
1, 49040, Note_off_c, 0, 67, 64
1, 49144, Note_off_c, 0, 39, 64
1, 49192, Note_on_c, 0, 61, 39
1, 49200, Note_on_c, 0, 67, 32
1, 49308, Note_off_c, 0, 61, 64
1, 49316, Note_off_c, 0, 67, 64
1, 49328, Note_on_c, 0, 72, 46
1, 49360, Note_off_c, 0, 73, 64
1, 49428, Note_on_c, 0, 70, 48
1, 49448, Note_off_c, 0, 72, 64
1, 49480, Note_on_c, 0, 72, 54
1, 49504, Note_off_c, 0, 70, 64
1, 49520, Note_on_c, 0, 51, 48
1, 49524, Note_on_c, 0, 70, 58
1, 49544, Control_c, 0, 64, 0
1, 49560, Note_off_c, 0, 72, 64
1, 49580, Control_c, 0, 64, 127
1, 49680, Note_on_c, 0, 69, 50
1, 49696, Note_off_c, 0, 70, 64
1, 49720, Note_off_c, 0, 51, 64
1, 49800, Note_on_c, 0, 70, 57
1, 49808, Note_on_c, 0, 61, 54
1, 49840, Note_off_c, 0, 69, 64
1, 49948, Note_on_c, 0, 72, 47
1, 49976, Note_off_c, 0, 70, 64
1, 50072, Note_on_c, 0, 67, 50
1, 50080, Note_on_c, 0, 52, 47
1, 50080, Control_c, 0, 64, 0
1, 50136, Note_off_c, 0, 72, 64
1, 50144, Note_off_c, 0, 61, 64
1, 50156, Control_c, 0, 64, 127
1, 50276, Note_on_c, 0, 70, 46
1, 50312, Note_off_c, 0, 67, 64
1, 50336, Note_on_c, 0, 68, 56
1, 50348, Note_on_c, 0, 53, 39
1, 50372, Note_off_c, 0, 52, 64
1, 50388, Control_c, 0, 64, 0
1, 50396, Note_off_c, 0, 70, 64
1, 50456, Control_c, 0, 64, 127
1, 50528, Note_on_c, 0, 67, 47
1, 50552, Note_off_c, 0, 68, 64
1, 50612, Note_off_c, 0, 53, 64
1, 50612, Note_on_c, 0, 68, 59
1, 50616, Note_on_c, 0, 60, 32
1, 50616, Note_on_c, 0, 56, 32
1, 50640, Control_c, 0, 64, 0
1, 50664, Note_off_c, 0, 67, 64
1, 50700, Control_c, 0, 64, 127
1, 50732, Note_off_c, 0, 56, 64
1, 50732, Note_off_c, 0, 60, 64
1, 50912, Note_on_c, 0, 60, 32
1, 50920, Note_on_c, 0, 64, 50
1, 50928, Note_on_c, 0, 56, 28
1, 50936, Note_off_c, 0, 68, 64
1, 50944, Control_c, 0, 64, 127
1, 51028, Note_off_c, 0, 60, 64
1, 51044, Note_off_c, 0, 56, 64
1, 51244, Note_on_c, 0, 49, 49
1, 51252, Note_on_c, 0, 65, 49
1, 51268, Control_c, 0, 64, 0
1, 51284, Note_off_c, 0, 64, 64
1, 51288, Control_c, 0, 64, 127
1, 51448, Note_on_c, 0, 67, 43
1, 51464, Note_off_c, 0, 49, 64
1, 51464, Note_off_c, 0, 65, 64
1, 51508, Note_on_c, 0, 68, 56
1, 51508, Control_c, 0, 64, 127
1, 51520, Note_on_c, 0, 65, 39
1, 51528, Control_c, 0, 64, 0
1, 51536, Note_on_c, 0, 58, 31
1, 51536, Note_on_c, 0, 55, 28
1, 51568, Note_off_c, 0, 67, 64
1, 51592, Control_c, 0, 64, 127
1, 51636, Note_off_c, 0, 65, 64
1, 51648, Note_off_c, 0, 58, 64
1, 51652, Note_off_c, 0, 55, 64
1, 51796, Note_on_c, 0, 65, 27
1, 51796, Note_on_c, 0, 55, 17
1, 51800, Note_on_c, 0, 70, 54
1, 51804, Note_on_c, 0, 58, 32
1, 51864, Note_off_c, 0, 68, 64
1, 51912, Note_off_c, 0, 65, 64
1, 51912, Note_off_c, 0, 55, 64
1, 51920, Note_off_c, 0, 58, 64
1, 52104, Note_on_c, 0, 48, 46
1, 52116, Note_on_c, 0, 72, 52
1, 52128, Control_c, 0, 64, 0
1, 52136, Note_off_c, 0, 70, 64
1, 52168, Control_c, 0, 64, 127
1, 52264, Note_on_c, 0, 73, 43
1, 52280, Note_off_c, 0, 72, 64
1, 52360, Note_off_c, 0, 48, 64
1, 52368, Note_on_c, 0, 72, 52
1, 52380, Note_on_c, 0, 64, 29
1, 52388, Note_off_c, 0, 73, 64
1, 52388, Note_on_c, 0, 58, 35
1, 52404, Control_c, 0, 64, 0
1, 52492, Control_c, 0, 64, 127
1, 52496, Note_off_c, 0, 64, 64
1, 52504, Note_off_c, 0, 58, 64
1, 52672, Note_on_c, 0, 64, 25
1, 52672, Note_on_c, 0, 58, 39
1, 52784, Note_off_c, 0, 64, 64
1, 52784, Note_off_c, 0, 58, 64
1, 52888, Note_on_c, 0, 67, 51
1, 52920, Note_off_c, 0, 72, 64
1, 53004, Note_on_c, 0, 65, 51
1, 53020, Note_off_c, 0, 67, 64
1, 53024, Control_c, 0, 64, 0
1, 53044, Note_on_c, 0, 67, 56
1, 53052, Note_off_c, 0, 65, 64
1, 53080, Note_on_c, 0, 49, 39
1, 53080, Control_c, 0, 64, 127
1, 53096, Note_on_c, 0, 65, 64
1, 53124, Note_off_c, 0, 67, 64
1, 53216, Note_on_c, 0, 64, 48
1, 53240, Note_off_c, 0, 65, 64
1, 53292, Control_c, 0, 64, 0
1, 53336, Note_on_c, 0, 65, 66
1, 53336, Note_on_c, 0, 55, 21
1, 53336, Note_on_c, 0, 58, 21
1, 53344, Note_off_c, 0, 64, 64
1, 53352, Note_off_c, 0, 49, 64
1, 53352, Control_c, 0, 64, 127
1, 53488, Note_off_c, 0, 55, 64
1, 53488, Note_off_c, 0, 58, 64
1, 53488, Note_on_c, 0, 67, 39
1, 53520, Note_off_c, 0, 65, 64
1, 53612, Note_on_c, 0, 65, 31
1, 53612, Note_on_c, 0, 58, 40
1, 53616, Note_on_c, 0, 68, 54
1, 53616, Note_on_c, 0, 55, 24
1, 53652, Note_off_c, 0, 67, 64
1, 53728, Note_off_c, 0, 65, 64
1, 53728, Note_off_c, 0, 58, 64
1, 53732, Note_off_c, 0, 55, 64
1, 53736, Note_on_c, 0, 70, 59
1, 53772, Note_off_c, 0, 68, 64
1, 53872, Note_on_c, 0, 72, 54
1, 53880, Note_on_c, 0, 48, 46
1, 53896, Note_off_c, 0, 70, 64
1, 53896, Control_c, 0, 64, 0
1, 53948, Control_c, 0, 64, 127
1, 54012, Note_on_c, 0, 75, 46
1, 54072, Note_off_c, 0, 72, 64
1, 54072, Note_on_c, 0, 73, 54
1, 54084, Note_off_c, 0, 75, 64
1, 54128, Note_off_c, 0, 48, 64
1, 54144, Note_on_c, 0, 64, 33
1, 54152, Note_on_c, 0, 55, 32
1, 54156, Note_on_c, 0, 72, 49
1, 54168, Control_c, 0, 64, 0
1, 54180, Note_off_c, 0, 73, 64
1, 54220, Control_c, 0, 64, 127
1, 54436, Note_on_c, 0, 48, 49
1, 54480, Note_off_c, 0, 64, 64
1, 54488, Note_off_c, 0, 55, 64
1, 54576, Note_on_c, 0, 71, 51
1, 54604, Note_off_c, 0, 72, 64
1, 54764, Note_on_c, 0, 49, 48
1, 54796, Note_on_c, 0, 70, 54
1, 54816, Note_off_c, 0, 48, 64
1, 54816, Control_c, 0, 64, 0
1, 54840, Note_off_c, 0, 71, 64
1, 54872, Control_c, 0, 64, 127
1, 54948, Note_on_c, 0, 72, 39
1, 54968, Note_off_c, 0, 70, 64
1, 55032, Note_on_c, 0, 70, 62
1, 55064, Note_off_c, 0, 72, 64
1, 55080, Control_c, 0, 64, 0
1, 55092, Note_on_c, 0, 63, 32
1, 55104, Control_c, 0, 64, 127
1, 55116, Note_on_c, 0, 55, 21
1, 55128, Note_on_c, 0, 69, 56
1, 55152, Note_off_c, 0, 70, 64
1, 55204, Note_off_c, 0, 49, 64
1, 55208, Note_off_c, 0, 63, 64
1, 55212, Note_on_c, 0, 70, 62
1, 55232, Note_off_c, 0, 55, 64
1, 55240, Note_off_c, 0, 69, 64
1, 55344, Note_on_c, 0, 72, 54
1, 55348, Note_on_c, 0, 63, 35
1, 55364, Note_on_c, 0, 55, 31
1, 55376, Note_off_c, 0, 70, 64
1, 55436, Note_on_c, 0, 73, 59
1, 55464, Note_off_c, 0, 63, 64
1, 55476, Note_off_c, 0, 72, 64
1, 55480, Note_off_c, 0, 55, 64
1, 55576, Note_on_c, 0, 77, 56
1, 55588, Note_on_c, 0, 48, 39
1, 55600, Note_off_c, 0, 73, 64
1, 55612, Control_c, 0, 64, 0
1, 55680, Note_on_c, 0, 75, 62
1, 55688, Control_c, 0, 64, 127
1, 55704, Note_off_c, 0, 77, 64
1, 55848, Note_on_c, 0, 80, 56
1, 55868, Note_off_c, 0, 48, 64
1, 55872, Note_on_c, 0, 56, 39
1, 55880, Note_off_c, 0, 75, 64
1, 55880, Note_on_c, 0, 63, 32
1, 55916, Control_c, 0, 64, 0
1, 55972, Control_c, 0, 64, 127
1, 56176, Note_on_c, 0, 53, 41
1, 56216, Note_off_c, 0, 56, 64
1, 56224, Note_off_c, 0, 63, 64
1, 56516, Note_on_c, 0, 51, 48
1, 56520, Note_on_c, 0, 69, 50
1, 56520, Control_c, 0, 64, 0
1, 56556, Note_off_c, 0, 53, 64
1, 56580, Control_c, 0, 64, 127
1, 56600, Note_off_c, 0, 80, 64
1, 56704, Note_on_c, 0, 70, 46
1, 56744, Note_off_c, 0, 69, 64
1, 56864, Note_on_c, 0, 62, 18
1, 56864, Note_on_c, 0, 58, 32
1, 56876, Note_on_c, 0, 79, 48
1, 56880, Note_on_c, 0, 68, 39
1, 56912, Note_off_c, 0, 70, 64
1, 56912, Control_c, 0, 64, 0
1, 56944, Control_c, 0, 64, 127
1, 56996, Note_off_c, 0, 51, 64
1, 57032, Control_c, 0, 64, 0
1, 57060, Note_on_c, 0, 77, 51
1, 57068, Control_c, 0, 64, 127
1, 57080, Note_off_c, 0, 79, 64
1, 57096, Control_c, 0, 64, 0
1, 57132, Control_c, 0, 64, 127
1, 57208, Note_off_c, 0, 62, 64
1, 57208, Note_off_c, 0, 58, 64
1, 57224, Note_off_c, 0, 68, 64
1, 57232, Note_on_c, 0, 58, 19
1, 57244, Note_on_c, 0, 61, 26
1, 57248, Note_on_c, 0, 67, 18
1, 57252, Note_on_c, 0, 75, 42
1, 57256, Note_off_c, 0, 77, 64
1, 57432, Note_off_c, 0, 67, 64
1, 57440, Note_on_c, 0, 63, 51
1, 57484, Note_off_c, 0, 61, 64
1, 57500, Note_off_c, 0, 75, 64
1, 57512, Note_off_c, 0, 58, 64
1, 57688, Note_on_c, 0, 73, 46
1, 57704, Note_on_c, 0, 44, 35
1, 57728, Note_off_c, 0, 63, 64
1, 57760, Control_c, 0, 64, 0
1, 57804, Control_c, 0, 64, 127
1, 57896, Note_on_c, 0, 72, 44
1, 57912, Note_off_c, 0, 73, 64
1, 58132, Note_off_c, 0, 44, 64
1, 58144, Note_on_c, 0, 68, 51
1, 58152, Note_on_c, 0, 51, 23
1, 58164, Note_off_c, 0, 72, 64
1, 58180, Note_on_c, 0, 60, 23
1, 58200, Control_c, 0, 64, 0
1, 58272, Control_c, 0, 64, 127
1, 58684, Note_on_c, 0, 66, 46
1, 58700, Control_c, 0, 64, 0
1, 58720, Note_off_c, 0, 68, 64
1, 58740, Note_off_c, 0, 60, 64
1, 58740, Control_c, 0, 64, 127
1, 58828, Note_off_c, 0, 51, 64
1, 58976, Control_c, 0, 64, 0
1, 59036, Control_c, 0, 64, 127
1, 59184, Note_on_c, 0, 65, 32
1, 59188, Note_on_c, 0, 61, 26
1, 59188, Note_on_c, 0, 56, 17
1, 59188, Note_on_c, 0, 49, 24
1, 59208, Control_c, 0, 64, 0
1, 59216, Note_off_c, 0, 66, 64
1, 59264, Note_off_c, 0, 61, 64
1, 59268, Control_c, 0, 64, 127
1, 59288, Note_off_c, 0, 56, 64
1, 59288, Note_off_c, 0, 49, 64
1, 59296, Note_off_c, 0, 65, 64
1, 59500, Note_on_c, 0, 56, 32
1, 59504, Note_on_c, 0, 49, 26
1, 59504, Note_on_c, 0, 61, 32
1, 59508, Note_on_c, 0, 65, 26
1, 59544, Note_off_c, 0, 56, 64
1, 59548, Note_off_c, 0, 61, 64
1, 59556, Note_off_c, 0, 49, 64
1, 59556, Note_off_c, 0, 65, 64
1, 59584, Note_on_c, 0, 56, 17
1, 59588, Note_on_c, 0, 65, 35
1, 59592, Note_on_c, 0, 61, 37
1, 59604, Note_on_c, 0, 49, 37
1, 59616, Control_c, 0, 64, 0
1, 59672, Control_c, 0, 64, 127
1, 59696, Note_off_c, 0, 56, 64
1, 59700, Note_off_c, 0, 65, 64
1, 59700, Note_off_c, 0, 61, 64
1, 59712, Note_off_c, 0, 49, 64
1, 59980, Note_on_c, 0, 66, 48
1, 59980, Note_on_c, 0, 42, 39
1, 59984, Note_on_c, 0, 58, 49
1, 60008, Control_c, 0, 64, 0
1, 60044, Control_c, 0, 64, 127
1, 60240, Note_off_c, 0, 66, 64
1, 60240, Note_off_c, 0, 42, 64
1, 60244, Note_off_c, 0, 58, 64
1, 60280, Note_on_c, 0, 65, 44
1, 60344, Note_on_c, 0, 60, 28
1, 60344, Note_on_c, 0, 54, 39
1, 60344, Note_on_c, 0, 44, 34
1, 60352, Note_on_c, 0, 63, 41
1, 60384, Note_off_c, 0, 65, 64
1, 60396, Control_c, 0, 64, 0
1, 60452, Control_c, 0, 64, 127
1, 60476, Note_off_c, 0, 44, 64
1, 60488, Note_off_c, 0, 60, 64
1, 60488, Note_off_c, 0, 54, 64
1, 60496, Note_off_c, 0, 63, 64
1, 60620, Note_on_c, 0, 44, 37
1, 60632, Note_on_c, 0, 62, 34
1, 60632, Note_on_c, 0, 60, 32
1, 60636, Note_on_c, 0, 53, 37
1, 60692, Note_off_c, 0, 44, 64
1, 60704, Note_off_c, 0, 60, 64
1, 60712, Note_on_c, 0, 44, 37
1, 60716, Note_on_c, 0, 63, 43
1, 60716, Note_on_c, 0, 60, 32
1, 60716, Note_on_c, 0, 54, 44
1, 60720, Control_c, 0, 64, 0
1, 60732, Note_off_c, 0, 53, 64
1, 60744, Note_off_c, 0, 62, 64
1, 60780, Control_c, 0, 64, 127
1, 60800, Note_off_c, 0, 54, 64
1, 60820, Note_off_c, 0, 44, 64
1, 60824, Note_off_c, 0, 63, 64
1, 60828, Note_off_c, 0, 60, 64
1, 61100, Note_on_c, 0, 50, 46
1, 61104, Note_on_c, 0, 65, 50
1, 61104, Note_on_c, 0, 60, 49
1, 61108, Note_on_c, 0, 44, 44
1, 61124, Control_c, 0, 64, 0
1, 61160, Control_c, 0, 64, 127
1, 61360, Note_off_c, 0, 50, 64
1, 61364, Note_off_c, 0, 65, 64
1, 61364, Note_off_c, 0, 60, 64
1, 61368, Note_off_c, 0, 44, 64
1, 61416, Note_on_c, 0, 68, 36
1, 61464, Note_on_c, 0, 60, 35
1, 61464, Note_on_c, 0, 51, 42
1, 61468, Note_on_c, 0, 66, 49
1, 61472, Note_on_c, 0, 44, 34
1, 61476, Control_c, 0, 64, 0
1, 61516, Note_off_c, 0, 68, 64
1, 61532, Control_c, 0, 64, 127
1, 61568, Note_off_c, 0, 66, 64
1, 61584, Note_off_c, 0, 51, 64
1, 61584, Note_off_c, 0, 44, 64
1, 61604, Note_off_c, 0, 60, 64
1, 61736, Note_on_c, 0, 60, 32
1, 61740, Note_on_c, 0, 65, 42
1, 61740, Note_on_c, 0, 50, 39
1, 61740, Note_on_c, 0, 44, 41
1, 61800, Note_on_c, 0, 51, 44
1, 61804, Note_off_c, 0, 60, 64
1, 61812, Note_off_c, 0, 44, 64
1, 61816, Note_on_c, 0, 66, 52
1, 61824, Note_on_c, 0, 60, 32
1, 61824, Note_on_c, 0, 44, 41
1, 61828, Note_off_c, 0, 50, 64
1, 61832, Control_c, 0, 64, 0
1, 61864, Note_off_c, 0, 65, 64
1, 61888, Control_c, 0, 64, 127
1, 61896, Note_off_c, 0, 60, 64
1, 61896, Note_off_c, 0, 44, 64
1, 61904, Note_off_c, 0, 51, 64
1, 61924, Note_off_c, 0, 66, 64
1, 62176, Note_on_c, 0, 44, 48
1, 62176, Note_on_c, 0, 67, 50
1, 62180, Note_on_c, 0, 58, 50
1, 62192, Note_on_c, 0, 52, 47
1, 62204, Control_c, 0, 64, 0
1, 62256, Control_c, 0, 64, 127
1, 62368, Note_off_c, 0, 58, 64
1, 62384, Note_off_c, 0, 52, 64
1, 62400, Note_off_c, 0, 67, 64
1, 62540, Note_on_c, 0, 52, 40
1, 62540, Note_on_c, 0, 37, 44
1, 62544, Note_on_c, 0, 61, 49
1, 62544, Note_on_c, 0, 58, 43
1, 62548, Note_on_c, 0, 70, 47
1, 62576, Control_c, 0, 64, 0
1, 62596, Control_c, 0, 64, 127
1, 62636, Note_off_c, 0, 44, 64
1, 62648, Note_off_c, 0, 52, 64
1, 62648, Note_off_c, 0, 37, 64
1, 62652, Note_off_c, 0, 61, 64
1, 62656, Note_off_c, 0, 58, 64
1, 62656, Note_off_c, 0, 70, 64
1, 62824, Note_on_c, 0, 49, 44
1, 62832, Note_on_c, 0, 55, 41
1, 62836, Note_on_c, 0, 70, 47
1, 62836, Note_on_c, 0, 64, 49
1, 62880, Note_off_c, 0, 49, 64
1, 62880, Note_off_c, 0, 55, 64
1, 62888, Note_off_c, 0, 70, 64
1, 62896, Note_off_c, 0, 64, 64
1, 62916, Note_on_c, 0, 64, 47
1, 62924, Note_on_c, 0, 70, 48
1, 62928, Note_on_c, 0, 55, 44
1, 62944, Note_on_c, 0, 49, 47
1, 62952, Control_c, 0, 64, 0
1, 62992, Control_c, 0, 64, 127
1, 63176, Note_off_c, 0, 64, 64
1, 63184, Note_off_c, 0, 70, 64
1, 63188, Note_off_c, 0, 55, 64
1, 63200, Note_off_c, 0, 49, 64
1, 63296, Note_on_c, 0, 68, 49
1, 63308, Note_on_c, 0, 65, 49
1, 63308, Note_on_c, 0, 49, 40
1, 63308, Note_on_c, 0, 56, 48
1, 63328, Control_c, 0, 64, 0
1, 63376, Control_c, 0, 64, 127
1, 63556, Note_off_c, 0, 68, 64
1, 63568, Note_off_c, 0, 65, 64
1, 63568, Note_off_c, 0, 49, 64
1, 63568, Note_off_c, 0, 56, 64
1, 63700, Note_on_c, 0, 61, 44
1, 63704, Control_c, 0, 64, 0
1, 63712, Note_on_c, 0, 65, 41
1, 63716, Note_on_c, 0, 56, 40
1, 63724, Note_on_c, 0, 49, 28
1, 63752, Control_c, 0, 64, 127
1, 63768, Note_off_c, 0, 49, 64
1, 63776, Note_off_c, 0, 61, 64
1, 63784, Note_off_c, 0, 56, 64
1, 63788, Note_off_c, 0, 65, 64
1, 63996, Note_on_c, 0, 61, 43
1, 64000, Note_on_c, 0, 65, 41
1, 64008, Note_on_c, 0, 56, 40
1, 64012, Note_on_c, 0, 49, 32
1, 64048, Note_off_c, 0, 61, 64
1, 64048, Note_off_c, 0, 65, 64
1, 64056, Note_off_c, 0, 56, 64
1, 64064, Note_off_c, 0, 49, 64
1, 64072, Control_c, 0, 64, 0
1, 64080, Note_on_c, 0, 65, 44
1, 64084, Note_on_c, 0, 56, 48
1, 64084, Note_on_c, 0, 61, 48
1, 64096, Note_on_c, 0, 49, 41
1, 64136, Control_c, 0, 64, 127
1, 64244, Control_c, 0, 64, 0
1, 64272, Note_off_c, 0, 65, 64
1, 64308, Control_c, 0, 64, 127
1, 64312, Note_off_c, 0, 56, 64
1, 64312, Note_off_c, 0, 61, 64
1, 64320, Note_off_c, 0, 49, 64
1, 64448, Note_on_c, 0, 66, 55
1, 64448, Note_on_c, 0, 58, 54
1, 64456, Note_on_c, 0, 42, 44
1, 64472, Control_c, 0, 64, 0
1, 64504, Control_c, 0, 64, 127
1, 64708, Note_off_c, 0, 58, 64
1, 64708, Note_off_c, 0, 66, 64
1, 64712, Note_on_c, 0, 65, 50
1, 64716, Note_off_c, 0, 42, 64
1, 64776, Note_on_c, 0, 54, 44
1, 64776, Note_on_c, 0, 60, 44
1, 64776, Note_on_c, 0, 63, 52
1, 64780, Note_on_c, 0, 44, 41
1, 64816, Note_off_c, 0, 65, 64
1, 64828, Control_c, 0, 64, 0
1, 64888, Control_c, 0, 64, 127
1, 64896, Note_off_c, 0, 44, 64
1, 64924, Note_off_c, 0, 54, 64
1, 64924, Note_off_c, 0, 60, 64
1, 64932, Note_off_c, 0, 63, 64
1, 65080, Note_on_c, 0, 60, 37
1, 65088, Note_on_c, 0, 44, 41
1, 65088, Note_on_c, 0, 62, 39
1, 65088, Note_on_c, 0, 53, 42
1, 65152, Note_off_c, 0, 60, 64
1, 65152, Control_c, 0, 64, 0
1, 65160, Note_off_c, 0, 44, 64
1, 65160, Note_on_c, 0, 63, 51
1, 65164, Note_on_c, 0, 60, 37
1, 65172, Note_on_c, 0, 54, 49
1, 65176, Note_on_c, 0, 44, 41
1, 65196, Note_off_c, 0, 53, 64
1, 65200, Note_off_c, 0, 62, 64
1, 65224, Control_c, 0, 64, 127
1, 65236, Note_off_c, 0, 60, 64
1, 65248, Note_off_c, 0, 54, 64
1, 65248, Note_off_c, 0, 44, 64
1, 65264, Note_off_c, 0, 63, 64
1, 65532, Note_on_c, 0, 65, 57
1, 65536, Note_on_c, 0, 60, 52
1, 65536, Note_on_c, 0, 44, 48
1, 65536, Note_on_c, 0, 50, 50
1, 65560, Control_c, 0, 64, 0
1, 65608, Control_c, 0, 64, 127
1, 65792, Note_off_c, 0, 65, 64
1, 65796, Note_off_c, 0, 60, 64
1, 65796, Note_off_c, 0, 44, 64
1, 65796, Note_off_c, 0, 50, 64
1, 65888, Note_on_c, 0, 60, 46
1, 65892, Note_on_c, 0, 66, 54
1, 65896, Note_on_c, 0, 51, 57
1, 65896, Note_on_c, 0, 44, 51
1, 65912, Control_c, 0, 64, 0
1, 65960, Control_c, 0, 64, 127
1, 65976, Note_off_c, 0, 44, 64
1, 65984, Note_off_c, 0, 60, 64
1, 65992, Note_off_c, 0, 66, 64
1, 65992, Note_off_c, 0, 51, 64
1, 66136, Note_on_c, 0, 44, 52
1, 66140, Note_on_c, 0, 53, 55
1, 66144, Note_on_c, 0, 60, 50
1, 66144, Note_on_c, 0, 68, 55
1, 66184, Note_off_c, 0, 44, 64
1, 66184, Note_off_c, 0, 53, 64
1, 66192, Note_off_c, 0, 60, 64
1, 66232, Note_on_c, 0, 70, 66
1, 66232, Note_on_c, 0, 44, 67
1, 66236, Note_on_c, 0, 60, 59
1, 66244, Control_c, 0, 64, 0
1, 66248, Note_on_c, 0, 54, 67
1, 66272, Note_off_c, 0, 68, 64
1, 66284, Control_c, 0, 64, 127
1, 66440, Control_c, 0, 64, 0
1, 66484, Control_c, 0, 64, 127
1, 66492, Note_off_c, 0, 70, 64
1, 66492, Note_off_c, 0, 44, 64
1, 66496, Note_off_c, 0, 60, 64
1, 66508, Note_off_c, 0, 54, 64
1, 66616, Note_on_c, 0, 72, 74
1, 66624, Note_on_c, 0, 66, 73
1, 66624, Note_on_c, 0, 44, 65
1, 66624, Note_on_c, 0, 60, 59
1, 66624, Note_on_c, 0, 51, 64
1, 66656, Control_c, 0, 64, 0
1, 66680, Control_c, 0, 64, 127
1, 66876, Note_off_c, 0, 72, 64
1, 66880, Note_off_c, 0, 66, 64
1, 66880, Note_off_c, 0, 44, 64
1, 66884, Note_off_c, 0, 60, 64
1, 66884, Note_off_c, 0, 51, 64
1, 66992, Note_on_c, 0, 75, 65
1, 66996, Note_on_c, 0, 60, 27
1, 66996, Note_on_c, 0, 56, 52
1, 66996, Note_on_c, 0, 49, 28
1, 67000, Note_on_c, 0, 66, 56
1, 67012, Control_c, 0, 64, 0
1, 67044, Note_off_c, 0, 49, 64
1, 67056, Control_c, 0, 64, 127
1, 67064, Note_off_c, 0, 60, 64
1, 67064, Note_off_c, 0, 66, 64
1, 67076, Note_off_c, 0, 56, 64
1, 67088, Note_off_c, 0, 75, 64
1, 67264, Note_on_c, 0, 60, 54
1, 67272, Note_on_c, 0, 56, 59
1, 67272, Note_on_c, 0, 49, 56
1, 67272, Note_on_c, 0, 75, 57
1, 67272, Note_on_c, 0, 66, 58
1, 67304, Note_off_c, 0, 49, 64
1, 67312, Note_off_c, 0, 60, 64
1, 67316, Note_off_c, 0, 56, 64
1, 67320, Note_off_c, 0, 75, 64
1, 67320, Note_off_c, 0, 66, 64
1, 67352, Note_on_c, 0, 49, 48
1, 67352, Note_on_c, 0, 56, 62
1, 67352, Note_on_c, 0, 60, 62
1, 67352, Note_on_c, 0, 66, 62
1, 67360, Note_on_c, 0, 75, 65
1, 67360, Control_c, 0, 64, 0
1, 67372, Note_on_c, 0, 49, 48
1, 67380, Note_on_c, 0, 56, 62
1, 67424, Control_c, 0, 64, 127
1, 67508, Tempo, 500000
1, 67508, Control_c, 0, 64, 0
1, 67564, Tempo, 500000
1, 67564, Control_c, 0, 64, 127
1, 67672, Note_off_c, 0, 49, 64
1, 67672, Note_off_c, 0, 49, 64
1, 67672, Note_off_c, 0, 56, 64
1, 67672, Note_off_c, 0, 56, 64
1, 67672, Note_off_c, 0, 60, 64
1, 67672, Note_off_c, 0, 66, 64
1, 67676, Note_off_c, 0, 75, 64
1, 67768, Note_on_c, 0, 73, 63
1, 67776, Note_on_c, 0, 49, 44
1, 67780, Note_on_c, 0, 65, 63
1, 67792, Note_on_c, 0, 61, 40
1, 67792, Note_on_c, 0, 56, 32
1, 67812, Control_c, 0, 64, 0
1, 67868, Control_c, 0, 64, 127
1, 68024, Note_off_c, 0, 73, 64
1, 68036, Note_off_c, 0, 49, 64
1, 68040, Note_off_c, 0, 65, 64
1, 68048, Note_off_c, 0, 61, 64
1, 68048, Note_off_c, 0, 56, 64
1, 68208, Note_on_c, 0, 65, 31
1, 68216, Note_on_c, 0, 61, 26
1, 68216, Note_on_c, 0, 56, 16
1, 68224, Note_on_c, 0, 49, 13
1, 68232, Control_c, 0, 64, 0
1, 68292, Control_c, 0, 64, 127
1, 68304, Note_off_c, 0, 61, 64
1, 68304, Note_off_c, 0, 49, 64
1, 68312, Note_off_c, 0, 56, 64
1, 68316, Note_off_c, 0, 65, 64
1, 68472, Note_on_c, 0, 61, 28
1, 68472, Note_on_c, 0, 56, 29
1, 68472, Note_on_c, 0, 49, 26
1, 68488, Note_on_c, 0, 65, 26
1, 68524, Note_off_c, 0, 61, 64
1, 68524, Note_off_c, 0, 49, 64
1, 68532, Note_off_c, 0, 65, 64
1, 68544, Note_off_c, 0, 56, 64
1, 68568, Note_on_c, 0, 65, 37
1, 68572, Note_on_c, 0, 61, 37
1, 68584, Note_on_c, 0, 56, 29
1, 68596, Note_on_c, 0, 49, 32
1, 68596, Control_c, 0, 64, 0
1, 68636, Control_c, 0, 64, 127
1, 68656, Note_off_c, 0, 65, 64
1, 68668, Note_off_c, 0, 61, 64
1, 68672, Note_off_c, 0, 56, 64
1, 68712, Note_off_c, 0, 49, 64
1, 68952, Note_on_c, 0, 58, 41
1, 68952, Note_on_c, 0, 66, 44
1, 68952, Note_on_c, 0, 42, 35
1, 68972, Control_c, 0, 64, 0
1, 69008, Control_c, 0, 64, 127
1, 69208, Note_off_c, 0, 58, 64
1, 69208, Note_off_c, 0, 66, 64
1, 69212, Note_off_c, 0, 42, 64
1, 69224, Note_on_c, 0, 65, 39
1, 69284, Note_on_c, 0, 63, 40
1, 69284, Note_on_c, 0, 54, 41
1, 69292, Note_on_c, 0, 60, 17
1, 69292, Note_on_c, 0, 44, 29
1, 69332, Note_off_c, 0, 65, 64
1, 69344, Control_c, 0, 64, 0
1, 69380, Note_off_c, 0, 44, 64
1, 69404, Control_c, 0, 64, 127
1, 69416, Note_off_c, 0, 54, 64
1, 69432, Note_off_c, 0, 63, 64
1, 69436, Note_off_c, 0, 60, 64
1, 69568, Note_on_c, 0, 60, 26
1, 69568, Note_on_c, 0, 62, 32
1, 69568, Note_on_c, 0, 44, 37
1, 69572, Note_on_c, 0, 53, 40
1, 69636, Note_off_c, 0, 60, 64
1, 69640, Note_off_c, 0, 44, 64
1, 69656, Note_on_c, 0, 60, 26
1, 69660, Note_on_c, 0, 63, 43
1, 69664, Note_on_c, 0, 44, 37
1, 69668, Note_on_c, 0, 54, 44
1, 69672, Note_off_c, 0, 53, 64
1, 69672, Control_c, 0, 64, 0
1, 69684, Note_off_c, 0, 62, 64
1, 69728, Note_off_c, 0, 60, 64
1, 69732, Note_off_c, 0, 44, 64
1, 69732, Control_c, 0, 64, 127
1, 69744, Note_off_c, 0, 54, 64
1, 69760, Note_off_c, 0, 63, 64
1, 70036, Note_on_c, 0, 65, 44
1, 70040, Note_on_c, 0, 44, 44
1, 70040, Note_on_c, 0, 60, 41
1, 70048, Note_on_c, 0, 50, 43
1, 70064, Control_c, 0, 64, 0
1, 70100, Control_c, 0, 64, 127
1, 70296, Note_off_c, 0, 65, 64
1, 70296, Note_off_c, 0, 44, 64
1, 70296, Note_off_c, 0, 60, 64
1, 70308, Note_off_c, 0, 50, 64
1, 70328, Note_on_c, 0, 68, 42
1, 70380, Note_on_c, 0, 60, 35
1, 70380, Note_on_c, 0, 44, 27
1, 70384, Note_on_c, 0, 66, 49
1, 70388, Note_on_c, 0, 51, 43
1, 70408, Control_c, 0, 64, 0
1, 70424, Note_off_c, 0, 68, 64
1, 70448, Control_c, 0, 64, 127
1, 70476, Note_off_c, 0, 44, 64
1, 70480, Note_off_c, 0, 51, 64
1, 70484, Note_off_c, 0, 66, 64
1, 70504, Note_off_c, 0, 60, 64
1, 70656, Note_on_c, 0, 44, 44
1, 70664, Note_on_c, 0, 65, 41
1, 70664, Note_on_c, 0, 50, 41
1, 70668, Note_on_c, 0, 60, 27
1, 70728, Note_off_c, 0, 44, 64
1, 70736, Note_off_c, 0, 60, 64
1, 70736, Note_on_c, 0, 66, 52
1, 70740, Note_on_c, 0, 51, 58
1, 70744, Note_on_c, 0, 60, 27
1, 70744, Note_on_c, 0, 44, 44
1, 70752, Note_off_c, 0, 50, 64
1, 70760, Control_c, 0, 64, 0
1, 70784, Note_off_c, 0, 65, 64
1, 70800, Control_c, 0, 64, 127
1, 70816, Note_off_c, 0, 60, 64
1, 70816, Note_off_c, 0, 44, 64
1, 70824, Note_off_c, 0, 51, 64
1, 70852, Note_off_c, 0, 66, 64
1, 71096, Note_on_c, 0, 44, 41
1, 71104, Note_on_c, 0, 52, 41
1, 71108, Note_on_c, 0, 58, 47
1, 71112, Note_on_c, 0, 67, 44
1, 71128, Control_c, 0, 64, 0
1, 71168, Control_c, 0, 64, 127
1, 71360, Note_off_c, 0, 52, 64
1, 71368, Note_off_c, 0, 58, 64
1, 71372, Note_off_c, 0, 67, 64
1, 71448, Note_on_c, 0, 70, 49
1, 71448, Note_on_c, 0, 58, 43
1, 71456, Note_on_c, 0, 52, 41
1, 71456, Note_on_c, 0, 37, 44
1, 71456, Note_on_c, 0, 61, 49
1, 71484, Control_c, 0, 64, 0
1, 71500, Note_off_c, 0, 58, 64
1, 71512, Control_c, 0, 64, 127
1, 71516, Note_off_c, 0, 37, 64
1, 71528, Note_off_c, 0, 44, 64
1, 71532, Note_off_c, 0, 61, 64
1, 71552, Note_off_c, 0, 70, 64
1, 71564, Note_off_c, 0, 52, 64
1, 71736, Note_on_c, 0, 64, 43
1, 71740, Note_on_c, 0, 70, 43
1, 71740, Note_on_c, 0, 55, 43
1, 71744, Note_on_c, 0, 49, 44
1, 71776, Note_off_c, 0, 49, 64
1, 71780, Note_off_c, 0, 64, 64
1, 71788, Note_off_c, 0, 55, 64
1, 71800, Note_off_c, 0, 70, 64
1, 71820, Note_on_c, 0, 49, 49
1, 71824, Note_on_c, 0, 64, 47
1, 71828, Note_on_c, 0, 70, 44
1, 71828, Note_on_c, 0, 55, 43
1, 71848, Control_c, 0, 64, 0
1, 71872, Control_c, 0, 64, 127
1, 72072, Note_off_c, 0, 49, 64
1, 72080, Note_off_c, 0, 64, 64
1, 72080, Note_off_c, 0, 70, 64
1, 72080, Note_off_c, 0, 55, 64
1, 72192, Note_on_c, 0, 65, 54
1, 72192, Note_on_c, 0, 56, 47
1, 72196, Note_on_c, 0, 68, 52
1, 72200, Note_on_c, 0, 49, 40
1, 72224, Control_c, 0, 64, 0
1, 72276, Control_c, 0, 64, 127
1, 72448, Note_off_c, 0, 65, 64
1, 72452, Note_off_c, 0, 56, 64
1, 72456, Note_off_c, 0, 68, 64
1, 72460, Note_off_c, 0, 49, 64
1, 72556, Note_on_c, 0, 65, 35
1, 72564, Note_on_c, 0, 61, 39
1, 72568, Note_on_c, 0, 56, 32
1, 72576, Note_on_c, 0, 49, 35
1, 72600, Control_c, 0, 64, 0
1, 72636, Control_c, 0, 64, 127
1, 72712, Note_off_c, 0, 49, 64
1, 72720, Note_off_c, 0, 56, 64
1, 72728, Note_off_c, 0, 65, 64
1, 72736, Note_off_c, 0, 61, 64
1, 72828, Note_on_c, 0, 61, 37
1, 72832, Note_on_c, 0, 65, 34
1, 72832, Note_on_c, 0, 56, 34
1, 72832, Note_on_c, 0, 49, 36
1, 72876, Note_off_c, 0, 61, 64
1, 72880, Note_off_c, 0, 49, 64
1, 72884, Note_off_c, 0, 65, 64
1, 72884, Note_off_c, 0, 56, 64
1, 72912, Note_on_c, 0, 65, 39
1, 72912, Note_on_c, 0, 56, 43
1, 72912, Note_on_c, 0, 49, 40
1, 72920, Note_on_c, 0, 61, 43
1, 72932, Control_c, 0, 64, 0
1, 72976, Control_c, 0, 64, 127
1, 73100, Control_c, 0, 64, 0
1, 73140, Control_c, 0, 64, 127
1, 73208, Note_off_c, 0, 65, 64
1, 73212, Note_off_c, 0, 56, 64
1, 73212, Note_off_c, 0, 49, 64
1, 73216, Note_off_c, 0, 61, 64
1, 73272, Note_on_c, 0, 66, 51
1, 73280, Note_on_c, 0, 42, 44
1, 73284, Note_on_c, 0, 58, 50
1, 73284, Control_c, 0, 64, 0
1, 73328, Control_c, 0, 64, 127
1, 73532, Note_off_c, 0, 66, 64
1, 73536, Note_off_c, 0, 42, 64
1, 73544, Note_off_c, 0, 58, 64
1, 73552, Note_on_c, 0, 65, 50
1, 73624, Note_on_c, 0, 54, 49
1, 73624, Note_on_c, 0, 60, 42
1, 73624, Note_on_c, 0, 63, 58
1, 73632, Note_on_c, 0, 44, 46
1, 73648, Control_c, 0, 64, 0
1, 73656, Note_off_c, 0, 65, 64
1, 73684, Control_c, 0, 64, 127
1, 73736, Note_off_c, 0, 60, 64
1, 73736, Note_off_c, 0, 63, 64
1, 73740, Note_off_c, 0, 44, 64
1, 73760, Note_off_c, 0, 54, 64
1, 73892, Note_on_c, 0, 44, 49
1, 73892, Note_on_c, 0, 60, 37
1, 73892, Note_on_c, 0, 53, 48
1, 73896, Note_on_c, 0, 62, 42
1, 73960, Note_off_c, 0, 44, 64
1, 73964, Note_off_c, 0, 60, 64
1, 73968, Note_on_c, 0, 63, 62
1, 73968, Note_on_c, 0, 60, 37
1, 73976, Control_c, 0, 64, 0
1, 73984, Note_on_c, 0, 44, 49
1, 73984, Note_on_c, 0, 54, 59
1, 73992, Note_off_c, 0, 53, 64
1, 74012, Note_off_c, 0, 62, 64
1, 74040, Note_off_c, 0, 60, 64
1, 74040, Control_c, 0, 64, 127
1, 74052, Note_off_c, 0, 44, 64
1, 74096, Note_off_c, 0, 63, 64
1, 74116, Note_off_c, 0, 54, 64
1, 74328, Note_on_c, 0, 44, 41
1, 74332, Note_on_c, 0, 50, 49
1, 74336, Note_on_c, 0, 65, 56
1, 74336, Note_on_c, 0, 60, 52
1, 74356, Control_c, 0, 64, 0
1, 74412, Control_c, 0, 64, 127
1, 74584, Note_off_c, 0, 44, 64
1, 74592, Note_off_c, 0, 50, 64
1, 74592, Note_off_c, 0, 65, 64
1, 74592, Note_off_c, 0, 60, 64
1, 74692, Note_on_c, 0, 44, 51
1, 74692, Note_on_c, 0, 66, 54
1, 74692, Note_on_c, 0, 51, 56
1, 74692, Note_on_c, 0, 60, 51
1, 74700, Control_c, 0, 64, 0
1, 74744, Control_c, 0, 64, 127
1, 74800, Note_off_c, 0, 60, 64
1, 74812, Note_off_c, 0, 51, 64
1, 74816, Note_off_c, 0, 44, 64
1, 74820, Note_off_c, 0, 66, 64
1, 74944, Note_on_c, 0, 68, 49
1, 74948, Note_on_c, 0, 53, 54
1, 74948, Note_on_c, 0, 44, 36
1, 74960, Note_on_c, 0, 60, 50
1, 74996, Note_off_c, 0, 53, 64
1, 74996, Note_off_c, 0, 44, 64
1, 74996, Note_off_c, 0, 60, 64
1, 75032, Note_on_c, 0, 44, 63
1, 75040, Note_on_c, 0, 70, 66
1, 75044, Note_on_c, 0, 54, 66
1, 75044, Note_on_c, 0, 60, 63
1, 75044, Control_c, 0, 64, 0
1, 75076, Note_off_c, 0, 68, 64
1, 75080, Control_c, 0, 64, 127
1, 75200, Control_c, 0, 64, 0
1, 75232, Control_c, 0, 64, 127
1, 75304, Note_off_c, 0, 44, 64
1, 75312, Note_off_c, 0, 70, 64
1, 75316, Note_off_c, 0, 54, 64
1, 75316, Note_off_c, 0, 60, 64
1, 75420, Note_on_c, 0, 72, 64
1, 75424, Note_on_c, 0, 66, 60
1, 75428, Note_on_c, 0, 51, 52
1, 75432, Note_on_c, 0, 60, 52
1, 75432, Note_on_c, 0, 44, 56
1, 75456, Control_c, 0, 64, 0
1, 75516, Control_c, 0, 64, 127
1, 75680, Note_off_c, 0, 72, 64
1, 75680, Note_off_c, 0, 66, 64
1, 75688, Note_off_c, 0, 51, 64
1, 75688, Note_off_c, 0, 60, 64
1, 75688, Note_off_c, 0, 44, 64
1, 75776, Note_on_c, 0, 66, 65
1, 75780, Note_on_c, 0, 75, 63
1, 75780, Note_on_c, 0, 60, 43
1, 75780, Note_on_c, 0, 56, 55
1, 75780, Note_on_c, 0, 49, 54
1, 75820, Control_c, 0, 64, 0
1, 75840, Control_c, 0, 64, 127
1, 75844, Note_off_c, 0, 66, 64
1, 75860, Note_off_c, 0, 49, 64
1, 75872, Note_off_c, 0, 60, 64
1, 75872, Note_off_c, 0, 56, 64
1, 75892, Note_off_c, 0, 75, 64
1, 76056, Note_on_c, 0, 49, 49
1, 76056, Note_on_c, 0, 75, 49
1, 76064, Note_on_c, 0, 60, 47
1, 76064, Note_on_c, 0, 66, 50
1, 76064, Note_on_c, 0, 56, 49
1, 76100, Note_off_c, 0, 49, 64
1, 76104, Note_off_c, 0, 75, 64
1, 76108, Note_off_c, 0, 60, 64
1, 76108, Note_off_c, 0, 66, 64
1, 76108, Note_off_c, 0, 56, 64
1, 76132, Note_on_c, 0, 56, 62
1, 76132, Note_on_c, 0, 60, 66
1, 76140, Note_on_c, 0, 49, 48
1, 76144, Note_on_c, 0, 66, 66
1, 76148, Note_on_c, 0, 75, 71
1, 76168, Control_c, 0, 64, 0
1, 76204, Control_c, 0, 64, 127
1, 76492, Note_off_c, 0, 56, 64
1, 76492, Note_off_c, 0, 60, 64
1, 76500, Note_off_c, 0, 49, 64
1, 76504, Note_off_c, 0, 66, 64
1, 76508, Note_off_c, 0, 75, 64
1, 76528, Note_on_c, 0, 49, 48
1, 76528, Note_on_c, 0, 73, 73
1, 76536, Note_on_c, 0, 56, 57
1, 76536, Note_on_c, 0, 61, 52
1, 76536, Note_on_c, 0, 65, 65
1, 76552, Control_c, 0, 64, 0
1, 76612, Control_c, 0, 64, 127
1, 76788, Note_off_c, 0, 49, 64
1, 76788, Note_off_c, 0, 73, 64
1, 76796, Note_off_c, 0, 56, 64
1, 76796, Note_off_c, 0, 61, 64
1, 76796, Note_off_c, 0, 65, 64
1, 76956, Note_on_c, 0, 73, 41
1, 76960, Note_on_c, 0, 65, 32
1, 76960, Note_on_c, 0, 53, 31
1, 76960, Note_on_c, 0, 46, 39
1, 76964, Note_on_c, 0, 61, 20
1, 76980, Control_c, 0, 64, 0
1, 77016, Control_c, 0, 64, 127
1, 77036, Note_off_c, 0, 65, 64
1, 77052, Note_off_c, 0, 73, 64
1, 77064, Note_off_c, 0, 61, 64
1, 77080, Note_off_c, 0, 53, 64
1, 77092, Note_off_c, 0, 46, 64
1, 77220, Note_on_c, 0, 53, 43
1, 77228, Note_on_c, 0, 73, 39
1, 77228, Note_on_c, 0, 65, 35
1, 77228, Note_on_c, 0, 61, 39
1, 77228, Note_on_c, 0, 46, 35
1, 77260, Note_off_c, 0, 65, 64
1, 77264, Note_off_c, 0, 73, 64
1, 77264, Note_off_c, 0, 46, 64
1, 77268, Note_off_c, 0, 61, 64
1, 77272, Note_off_c, 0, 53, 64
1, 77296, Note_on_c, 0, 65, 43
1, 77296, Note_on_c, 0, 61, 40
1, 77296, Note_on_c, 0, 53, 43
1, 77296, Note_on_c, 0, 46, 39
1, 77304, Note_on_c, 0, 73, 49
1, 77328, Control_c, 0, 64, 0
1, 77356, Control_c, 0, 64, 127
1, 77368, Note_off_c, 0, 46, 64
1, 77372, Note_off_c, 0, 53, 64
1, 77380, Note_off_c, 0, 61, 64
1, 77384, Note_off_c, 0, 65, 64
1, 77404, Note_off_c, 0, 73, 64
1, 77664, Control_c, 0, 64, 0
1, 77668, Note_on_c, 0, 53, 46
1, 77672, Note_on_c, 0, 75, 50
1, 77676, Note_on_c, 0, 46, 41
1, 77676, Note_on_c, 0, 61, 40
1, 77680, Note_on_c, 0, 65, 48
1, 77708, Control_c, 0, 64, 127
1, 77928, Note_off_c, 0, 53, 64
1, 77932, Note_off_c, 0, 75, 64
1, 77936, Note_off_c, 0, 46, 64
1, 77936, Note_off_c, 0, 61, 64
1, 77936, Note_off_c, 0, 65, 64
1, 77968, Note_on_c, 0, 73, 43
1, 78020, Note_on_c, 0, 63, 25
1, 78024, Note_on_c, 0, 72, 49
1, 78028, Note_on_c, 0, 57, 39
1, 78028, Note_on_c, 0, 53, 40
1, 78032, Note_on_c, 0, 46, 34
1, 78064, Control_c, 0, 64, 0
1, 78072, Note_off_c, 0, 73, 64
1, 78084, Control_c, 0, 64, 127
1, 78100, Note_off_c, 0, 57, 64
1, 78104, Note_off_c, 0, 46, 64
1, 78112, Note_off_c, 0, 53, 64
1, 78120, Note_off_c, 0, 72, 64
1, 78152, Note_off_c, 0, 63, 64
1, 78284, Note_on_c, 0, 46, 37
1, 78284, Note_on_c, 0, 53, 39
1, 78284, Note_on_c, 0, 57, 40
1, 78284, Note_on_c, 0, 63, 34
1, 78284, Note_on_c, 0, 71, 39
1, 78328, Tempo, 500000
1, 78328, Note_off_c, 0, 46, 64
1, 78328, Note_off_c, 0, 53, 64
1, 78332, Note_off_c, 0, 57, 64
1, 78336, Note_off_c, 0, 63, 64
1, 78368, Note_on_c, 0, 63, 49
1, 78368, Note_on_c, 0, 57, 39
1, 78368, Note_on_c, 0, 53, 40
1, 78368, Note_on_c, 0, 46, 44
1, 78372, Note_on_c, 0, 72, 51
1, 78392, Note_off_c, 0, 71, 64
1, 78396, Control_c, 0, 64, 0
1, 78420, Control_c, 0, 64, 127
1, 78432, Note_off_c, 0, 57, 64
1, 78432, Note_off_c, 0, 53, 64
1, 78440, Note_off_c, 0, 46, 64
1, 78472, Note_off_c, 0, 72, 64
1, 78496, Note_off_c, 0, 63, 64
1, 78744, Note_on_c, 0, 65, 56
1, 78744, Note_on_c, 0, 63, 50
1, 78752, Note_on_c, 0, 57, 44
1, 78752, Note_on_c, 0, 46, 28
1, 78752, Note_on_c, 0, 53, 46
1, 78776, Control_c, 0, 64, 0
1, 78816, Control_c, 0, 64, 127
1, 79004, Note_off_c, 0, 65, 64
1, 79004, Note_off_c, 0, 63, 64
1, 79008, Note_off_c, 0, 57, 64
1, 79008, Note_off_c, 0, 46, 64
1, 79012, Note_off_c, 0, 53, 64
1, 79100, Control_c, 0, 64, 0
1, 79108, Note_on_c, 0, 61, 44
1, 79108, Note_on_c, 0, 58, 39
1, 79108, Note_on_c, 0, 46, 39
1, 79112, Note_on_c, 0, 70, 46
1, 79116, Note_on_c, 0, 53, 36
1, 79144, Control_c, 0, 64, 127
1, 79188, Note_off_c, 0, 53, 64
1, 79192, Note_off_c, 0, 46, 64
1, 79192, Note_off_c, 0, 70, 64
1, 79196, Note_off_c, 0, 58, 64
1, 79208, Note_off_c, 0, 61, 64
1, 79364, Note_on_c, 0, 61, 49
1, 79372, Note_on_c, 0, 46, 44
1, 79372, Note_on_c, 0, 53, 34
1, 79376, Note_on_c, 0, 70, 26
1, 79404, Note_off_c, 0, 53, 64
1, 79408, Note_off_c, 0, 70, 64
1, 79412, Note_off_c, 0, 61, 64
1, 79424, Note_off_c, 0, 46, 64
1, 79440, Note_on_c, 0, 53, 44
1, 79440, Note_on_c, 0, 46, 35
1, 79448, Note_on_c, 0, 61, 49
1, 79448, Note_on_c, 0, 70, 49
1, 79452, Control_c, 0, 64, 0
1, 79492, Control_c, 0, 64, 127
1, 79504, Note_off_c, 0, 53, 64
1, 79504, Note_off_c, 0, 46, 64
1, 79532, Note_off_c, 0, 61, 64
1, 79548, Note_off_c, 0, 70, 64
1, 79792, Note_on_c, 0, 53, 40
1, 79800, Note_on_c, 0, 46, 47
1, 79800, Note_on_c, 0, 61, 50
1, 79804, Note_on_c, 0, 58, 47
1, 79804, Note_on_c, 0, 72, 54
1, 80052, Note_off_c, 0, 53, 64
1, 80056, Note_off_c, 0, 46, 64
1, 80056, Note_off_c, 0, 61, 64
1, 80064, Note_off_c, 0, 58, 64
1, 80064, Note_off_c, 0, 72, 64
1, 80088, Note_on_c, 0, 70, 41
1, 80096, Note_on_c, 0, 61, 17
1, 80140, Note_on_c, 0, 53, 43
1, 80140, Note_on_c, 0, 41, 40
1, 80144, Note_on_c, 0, 69, 44
1, 80144, Note_on_c, 0, 60, 51
1, 80176, Note_off_c, 0, 70, 64
1, 80176, Note_off_c, 0, 61, 64
1, 80208, Note_off_c, 0, 53, 64
1, 80212, Note_off_c, 0, 41, 64
1, 80236, Note_off_c, 0, 60, 64
1, 80240, Note_off_c, 0, 69, 64
1, 80412, Note_on_c, 0, 67, 42
1, 80416, Note_on_c, 0, 58, 49
1, 80416, Note_on_c, 0, 53, 44
1, 80416, Note_on_c, 0, 41, 42
1, 80464, Note_off_c, 0, 58, 64
1, 80468, Note_off_c, 0, 41, 64
1, 80472, Note_off_c, 0, 53, 64
1, 80492, Note_off_c, 0, 67, 64
1, 80504, Control_c, 0, 64, 0
1, 80516, Note_on_c, 0, 69, 47
1, 80516, Note_on_c, 0, 60, 52
1, 80516, Note_on_c, 0, 53, 34
1, 80528, Note_on_c, 0, 41, 37
1, 80572, Control_c, 0, 64, 127
1, 80620, Note_off_c, 0, 41, 64
1, 80632, Note_off_c, 0, 53, 64
1, 80644, Note_off_c, 0, 69, 64
1, 80644, Note_off_c, 0, 60, 64
1, 80864, Note_on_c, 0, 41, 50
1, 80864, Note_on_c, 0, 53, 49
1, 80864, Note_on_c, 0, 57, 54
1, 80864, Note_on_c, 0, 65, 56
1, 80864, Note_on_c, 0, 63, 52
1, 80888, Control_c, 0, 64, 0
1, 80916, Control_c, 0, 64, 127
1, 81120, Note_off_c, 0, 41, 64
1, 81120, Note_off_c, 0, 53, 64
1, 81120, Note_off_c, 0, 57, 64
1, 81120, Note_off_c, 0, 65, 64
1, 81124, Note_off_c, 0, 63, 64
1, 81228, Note_on_c, 0, 73, 58
1, 81228, Note_on_c, 0, 61, 54
1, 81228, Note_on_c, 0, 58, 48
1, 81228, Note_on_c, 0, 53, 49
1, 81228, Note_on_c, 0, 46, 42
1, 81240, Note_on_c, 0, 65, 57
1, 81260, Control_c, 0, 64, 0
1, 81284, Note_off_c, 0, 61, 64
1, 81284, Control_c, 0, 64, 127
1, 81296, Note_off_c, 0, 58, 64
1, 81300, Note_off_c, 0, 65, 64
1, 81308, Note_off_c, 0, 46, 64
1, 81312, Note_off_c, 0, 53, 64
1, 81328, Note_off_c, 0, 73, 64
1, 81488, Note_on_c, 0, 53, 52
1, 81492, Note_on_c, 0, 61, 63
1, 81492, Note_on_c, 0, 46, 57
1, 81500, Note_on_c, 0, 73, 58
1, 81500, Note_on_c, 0, 65, 56
1, 81528, Note_off_c, 0, 53, 64
1, 81528, Note_off_c, 0, 46, 64
1, 81536, Note_off_c, 0, 61, 64
1, 81540, Note_off_c, 0, 73, 64
1, 81544, Note_off_c, 0, 65, 64
1, 81568, Control_c, 0, 64, 0
1, 81572, Note_on_c, 0, 61, 51
1, 81572, Note_on_c, 0, 53, 49
1, 81580, Note_on_c, 0, 73, 62
1, 81580, Note_on_c, 0, 65, 58
1, 81580, Note_on_c, 0, 46, 58
1, 81604, Control_c, 0, 64, 127
1, 81624, Note_off_c, 0, 46, 64
1, 81644, Note_off_c, 0, 53, 64
1, 81648, Note_off_c, 0, 61, 64
1, 81656, Note_off_c, 0, 65, 64
1, 81680, Note_off_c, 0, 73, 64
1, 81904, Control_c, 0, 64, 0
1, 81912, Note_on_c, 0, 61, 56
1, 81920, Note_on_c, 0, 75, 62
1, 81920, Note_on_c, 0, 65, 63
1, 81920, Note_on_c, 0, 53, 55
1, 81920, Note_on_c, 0, 46, 56
1, 81948, Control_c, 0, 64, 127
1, 82172, Note_off_c, 0, 61, 64
1, 82176, Note_off_c, 0, 75, 64
1, 82176, Note_off_c, 0, 65, 64
1, 82176, Note_off_c, 0, 53, 64
1, 82176, Note_off_c, 0, 46, 64
1, 82188, Note_on_c, 0, 73, 49
1, 82240, Note_on_c, 0, 63, 46
1, 82244, Note_on_c, 0, 72, 57
1, 82244, Note_on_c, 0, 57, 58
1, 82244, Note_on_c, 0, 53, 51
1, 82248, Note_on_c, 0, 46, 50
1, 82292, Note_off_c, 0, 73, 64
1, 82300, Control_c, 0, 64, 0
1, 82316, Control_c, 0, 64, 127
1, 82320, Note_off_c, 0, 57, 64
1, 82324, Note_off_c, 0, 53, 64
1, 82328, Note_off_c, 0, 46, 64
1, 82348, Note_off_c, 0, 63, 64
1, 82352, Note_off_c, 0, 72, 64
1, 82512, Note_on_c, 0, 71, 52
1, 82520, Note_on_c, 0, 63, 58
1, 82524, Note_on_c, 0, 46, 56
1, 82528, Note_on_c, 0, 57, 58
1, 82528, Note_on_c, 0, 53, 54
1, 82564, Note_off_c, 0, 63, 64
1, 82568, Note_off_c, 0, 46, 64
1, 82568, Note_off_c, 0, 53, 64
1, 82572, Note_off_c, 0, 57, 64
1, 82596, Note_on_c, 0, 72, 58
1, 82600, Note_on_c, 0, 63, 56
1, 82604, Note_on_c, 0, 53, 51
1, 82608, Note_on_c, 0, 46, 52
1, 82616, Note_on_c, 0, 57, 57
1, 82632, Note_off_c, 0, 71, 64
1, 82632, Control_c, 0, 64, 0
1, 82656, Control_c, 0, 64, 127
1, 82696, Note_off_c, 0, 57, 64
1, 82700, Note_off_c, 0, 72, 64
1, 82704, Note_off_c, 0, 63, 64
1, 82704, Note_off_c, 0, 53, 64
1, 82712, Note_off_c, 0, 46, 64
1, 82980, Note_on_c, 0, 65, 67
1, 82980, Note_on_c, 0, 63, 63
1, 82980, Note_on_c, 0, 53, 54
1, 82980, Note_on_c, 0, 46, 50
1, 82984, Note_on_c, 0, 57, 50
1, 83000, Control_c, 0, 64, 0
1, 83052, Control_c, 0, 64, 127
1, 83240, Note_off_c, 0, 65, 64
1, 83240, Note_off_c, 0, 63, 64
1, 83240, Note_off_c, 0, 53, 64
1, 83240, Note_off_c, 0, 46, 64
1, 83244, Note_off_c, 0, 57, 64
1, 83312, Note_on_c, 0, 70, 55
1, 83312, Note_on_c, 0, 46, 50
1, 83312, Note_on_c, 0, 61, 58
1, 83312, Note_on_c, 0, 58, 47
1, 83312, Note_on_c, 0, 53, 39
1, 83344, Control_c, 0, 64, 0
1, 83380, Control_c, 0, 64, 127
1, 83384, Note_off_c, 0, 58, 64
1, 83408, Note_off_c, 0, 70, 64
1, 83408, Note_off_c, 0, 61, 64
1, 83416, Note_off_c, 0, 46, 64
1, 83416, Note_off_c, 0, 53, 64
1, 83568, Note_on_c, 0, 54, 62
1, 83572, Note_on_c, 0, 70, 58
1, 83576, Note_on_c, 0, 61, 64
1, 83584, Note_on_c, 0, 39, 64
1, 83616, Note_off_c, 0, 70, 64
1, 83616, Note_off_c, 0, 61, 64
1, 83624, Note_off_c, 0, 54, 64
1, 83624, Note_off_c, 0, 39, 64
1, 83656, Note_on_c, 0, 70, 58
1, 83656, Note_on_c, 0, 61, 62
1, 83660, Note_on_c, 0, 39, 58
1, 83664, Note_on_c, 0, 54, 58
1, 83688, Control_c, 0, 64, 0
1, 83708, Control_c, 0, 64, 127
1, 83732, Note_off_c, 0, 39, 64
1, 83752, Note_off_c, 0, 54, 64
1, 83760, Note_off_c, 0, 61, 64
1, 83780, Note_off_c, 0, 70, 64
1, 84012, Note_on_c, 0, 54, 66
1, 84016, Note_on_c, 0, 72, 67
1, 84016, Note_on_c, 0, 61, 73
1, 84016, Note_on_c, 0, 39, 65
1, 84044, Control_c, 0, 64, 0
1, 84060, Control_c, 0, 64, 127
1, 84272, Note_off_c, 0, 54, 64
1, 84276, Note_off_c, 0, 72, 64
1, 84276, Note_off_c, 0, 61, 64
1, 84276, Note_off_c, 0, 39, 64
1, 84312, Note_on_c, 0, 70, 56
1, 84368, Note_on_c, 0, 60, 42
1, 84372, Note_on_c, 0, 54, 66
1, 84376, Note_on_c, 0, 44, 58
1, 84376, Note_on_c, 0, 68, 54
1, 84388, Control_c, 0, 64, 0
1, 84416, Note_off_c, 0, 70, 64
1, 84424, Tempo, 500000
1, 84424, Control_c, 0, 64, 127
1, 84540, Note_off_c, 0, 60, 64
1, 84544, Note_off_c, 0, 54, 64
1, 84548, Note_off_c, 0, 44, 64
1, 84548, Note_off_c, 0, 68, 64
1, 84644, Note_on_c, 0, 67, 54
1, 84652, Note_on_c, 0, 60, 54
1, 84652, Note_on_c, 0, 54, 57
1, 84652, Note_on_c, 0, 44, 55
1, 84696, Note_off_c, 0, 60, 64
1, 84696, Note_off_c, 0, 44, 64
1, 84708, Note_off_c, 0, 54, 64
1, 84740, Note_on_c, 0, 68, 78
1, 84744, Note_on_c, 0, 60, 65
1, 84752, Note_on_c, 0, 54, 65
1, 84756, Note_on_c, 0, 44, 65
1, 84764, Control_c, 0, 64, 0
1, 84776, Note_off_c, 0, 67, 64
1, 84792, Control_c, 0, 64, 127
1, 84824, Note_off_c, 0, 44, 64
1, 84832, Note_off_c, 0, 60, 64
1, 84836, Note_off_c, 0, 54, 64
1, 84884, Note_off_c, 0, 68, 64
1, 85100, Note_on_c, 0, 54, 62
1, 85104, Note_on_c, 0, 63, 71
1, 85108, Note_on_c, 0, 60, 70
1, 85116, Note_on_c, 0, 44, 64
1, 85120, Control_c, 0, 64, 0
1, 85140, Control_c, 0, 64, 127
1, 85360, Note_off_c, 0, 54, 64
1, 85364, Note_off_c, 0, 63, 64
1, 85368, Note_off_c, 0, 60, 64
1, 85372, Note_off_c, 0, 44, 64
1, 85472, Note_on_c, 0, 37, 72
1, 85472, Note_on_c, 0, 53, 71
1, 85472, Note_on_c, 0, 61, 72
1, 85476, Note_on_c, 0, 65, 72
1, 85508, Control_c, 0, 64, 0
1, 85568, Note_off_c, 0, 37, 64
1, 85568, Note_off_c, 0, 53, 64
1, 85568, Note_off_c, 0, 61, 64
1, 85568, Control_c, 0, 64, 127
1, 85588, Note_off_c, 0, 65, 64
1, 85768, Note_on_c, 0, 49, 56
1, 85772, Note_on_c, 0, 56, 64
1, 85776, Note_on_c, 0, 65, 54
1, 85776, Note_on_c, 0, 61, 58
1, 85812, Note_off_c, 0, 49, 64
1, 85820, Note_off_c, 0, 56, 64
1, 85828, Note_off_c, 0, 65, 64
1, 85828, Note_off_c, 0, 61, 64
1, 85856, Note_on_c, 0, 65, 54
1, 85864, Note_on_c, 0, 49, 59
1, 85868, Note_on_c, 0, 56, 64
1, 85868, Note_on_c, 0, 61, 64
1, 85884, Control_c, 0, 64, 0
1, 85904, Control_c, 0, 64, 127
1, 86180, Note_off_c, 0, 65, 64
1, 86188, Note_off_c, 0, 49, 64
1, 86192, Note_off_c, 0, 56, 64
1, 86196, Note_off_c, 0, 61, 64
1, 86224, Note_on_c, 0, 66, 72
1, 86228, Note_on_c, 0, 42, 64
1, 86232, Note_on_c, 0, 58, 73
1, 86256, Control_c, 0, 64, 0
1, 86292, Control_c, 0, 64, 127
1, 86484, Note_off_c, 0, 66, 64
1, 86488, Note_off_c, 0, 42, 64
1, 86492, Note_off_c, 0, 58, 64
1, 86508, Note_on_c, 0, 65, 48
1, 86560, Note_on_c, 0, 60, 52
1, 86560, Note_on_c, 0, 44, 55
1, 86568, Note_on_c, 0, 54, 59
1, 86572, Note_on_c, 0, 63, 71
1, 86612, Note_off_c, 0, 65, 64
1, 86620, Control_c, 0, 64, 0
1, 86660, Control_c, 0, 64, 127
1, 86768, Note_off_c, 0, 60, 64
1, 86768, Note_off_c, 0, 44, 64
1, 86772, Note_off_c, 0, 54, 64
1, 86780, Note_off_c, 0, 63, 64
1, 86836, Note_on_c, 0, 62, 50
1, 86836, Note_on_c, 0, 60, 43
1, 86844, Note_on_c, 0, 44, 55
1, 86852, Note_on_c, 0, 53, 62
1, 86908, Note_off_c, 0, 60, 64
1, 86912, Note_off_c, 0, 44, 64
1, 86932, Note_on_c, 0, 54, 64
1, 86932, Note_on_c, 0, 63, 62
1, 86932, Note_on_c, 0, 44, 55
1, 86932, Note_on_c, 0, 60, 43
1, 86940, Note_off_c, 0, 62, 64
1, 86940, Note_off_c, 0, 53, 64
1, 86952, Control_c, 0, 64, 0
1, 87008, Control_c, 0, 64, 127
1, 87092, Note_off_c, 0, 54, 64
1, 87092, Note_off_c, 0, 63, 64
1, 87096, Note_off_c, 0, 44, 64
1, 87096, Note_off_c, 0, 60, 64
1, 87284, Note_on_c, 0, 44, 56
1, 87288, Note_on_c, 0, 65, 58
1, 87292, Note_on_c, 0, 60, 58
1, 87300, Note_on_c, 0, 50, 57
1, 87320, Control_c, 0, 64, 0
1, 87356, Control_c, 0, 64, 127
1, 87544, Note_off_c, 0, 44, 64
1, 87548, Note_off_c, 0, 65, 64
1, 87548, Note_off_c, 0, 60, 64
1, 87556, Note_off_c, 0, 50, 64
1, 87572, Note_on_c, 0, 68, 54
1, 87624, Note_on_c, 0, 60, 43
1, 87628, Note_on_c, 0, 66, 63
1, 87628, Note_on_c, 0, 51, 65
1, 87628, Note_on_c, 0, 44, 57
1, 87648, Control_c, 0, 64, 0
1, 87672, Note_off_c, 0, 68, 64
1, 87704, Control_c, 0, 64, 127
1, 87816, Note_off_c, 0, 60, 64
1, 87820, Note_off_c, 0, 66, 64
1, 87820, Note_off_c, 0, 51, 64
1, 87820, Note_off_c, 0, 44, 64
1, 87892, Note_on_c, 0, 60, 48
1, 87896, Note_on_c, 0, 65, 52
1, 87900, Note_on_c, 0, 50, 57
1, 87900, Note_on_c, 0, 44, 59
1, 87964, Note_off_c, 0, 60, 64
1, 87968, Note_off_c, 0, 44, 64
1, 87972, Note_on_c, 0, 51, 71
1, 87972, Control_c, 0, 64, 0
1, 87984, Note_on_c, 0, 66, 63
1, 87988, Note_on_c, 0, 60, 48
1, 87988, Note_on_c, 0, 44, 59
1, 88004, Note_off_c, 0, 50, 64
1, 88032, Note_off_c, 0, 65, 64
1, 88036, Control_c, 0, 64, 127
1, 88060, Note_off_c, 0, 60, 64
1, 88060, Note_off_c, 0, 44, 64
1, 88068, Note_off_c, 0, 51, 64
1, 88092, Note_off_c, 0, 66, 64
1, 88328, Note_on_c, 0, 67, 65
1, 88332, Note_on_c, 0, 52, 58
1, 88336, Note_on_c, 0, 44, 64
1, 88336, Note_on_c, 0, 58, 72
1, 88356, Control_c, 0, 64, 0
1, 88408, Control_c, 0, 64, 127
1, 88576, Note_off_c, 0, 67, 64
1, 88592, Note_off_c, 0, 52, 64
1, 88596, Note_off_c, 0, 58, 64
1, 88684, Note_on_c, 0, 52, 56
1, 88684, Control_c, 0, 64, 0
1, 88692, Note_on_c, 0, 70, 58
1, 88692, Note_on_c, 0, 64, 58
1, 88692, Note_on_c, 0, 61, 62
1, 88692, Note_on_c, 0, 37, 62
1, 88736, Control_c, 0, 64, 127
1, 88748, Note_off_c, 0, 37, 64
1, 88756, Note_off_c, 0, 52, 64
1, 88756, Note_off_c, 0, 61, 64
1, 88760, Note_off_c, 0, 64, 64
1, 88792, Note_off_c, 0, 70, 64
1, 88804, Note_off_c, 0, 44, 64
1, 88972, Note_on_c, 0, 70, 51
1, 88972, Note_on_c, 0, 64, 51
1, 88980, Note_on_c, 0, 55, 58
1, 88980, Note_on_c, 0, 49, 62
1, 89020, Note_off_c, 0, 70, 64
1, 89020, Note_off_c, 0, 64, 64
1, 89020, Note_off_c, 0, 49, 64
1, 89024, Note_off_c, 0, 55, 64
1, 89052, Control_c, 0, 64, 0
1, 89064, Note_on_c, 0, 70, 51
1, 89064, Note_on_c, 0, 64, 51
1, 89064, Note_on_c, 0, 55, 58
1, 89068, Note_on_c, 0, 49, 62
1, 89100, Control_c, 0, 64, 127
1, 89320, Note_off_c, 0, 55, 64
1, 89320, Note_off_c, 0, 64, 64
1, 89320, Note_off_c, 0, 70, 64
1, 89324, Note_off_c, 0, 49, 64
1, 89440, Note_on_c, 0, 68, 56
1, 89440, Note_on_c, 0, 65, 56
1, 89440, Note_on_c, 0, 56, 54
1, 89452, Note_on_c, 0, 49, 49
1, 89460, Control_c, 0, 64, 0
1, 89492, Control_c, 0, 64, 127
1, 89700, Note_off_c, 0, 68, 64
1, 89700, Note_off_c, 0, 65, 64
1, 89700, Note_off_c, 0, 56, 64
1, 89708, Note_off_c, 0, 49, 64
1, 89820, Note_on_c, 0, 65, 58
1, 89824, Note_on_c, 0, 61, 58
1, 89828, Note_on_c, 0, 56, 51
1, 89828, Note_on_c, 0, 49, 54
1, 89836, Control_c, 0, 64, 0
1, 89864, Control_c, 0, 64, 127
1, 89896, Note_off_c, 0, 49, 64
1, 89904, Note_off_c, 0, 56, 64
1, 89908, Note_off_c, 0, 65, 64
1, 89908, Note_off_c, 0, 61, 64
1, 90080, Note_on_c, 0, 56, 64
1, 90080, Note_on_c, 0, 49, 63
1, 90084, Note_on_c, 0, 61, 58
1, 90084, Note_on_c, 0, 65, 57
1, 90120, Note_off_c, 0, 49, 64
1, 90124, Note_off_c, 0, 61, 64
1, 90132, Note_off_c, 0, 56, 64
1, 90140, Note_off_c, 0, 65, 64
1, 90156, Note_on_c, 0, 56, 51
1, 90164, Note_on_c, 0, 65, 62
1, 90164, Note_on_c, 0, 61, 63
1, 90164, Note_on_c, 0, 49, 56
1, 90188, Control_c, 0, 64, 0
1, 90228, Control_c, 0, 64, 127
1, 90472, Note_off_c, 0, 56, 64
1, 90476, Note_off_c, 0, 65, 64
1, 90476, Note_off_c, 0, 61, 64
1, 90476, Note_off_c, 0, 49, 64
1, 90496, Control_c, 0, 64, 0
1, 90516, Note_on_c, 0, 42, 66
1, 90524, Note_on_c, 0, 54, 58
1, 90524, Note_on_c, 0, 58, 67
1, 90524, Note_on_c, 0, 66, 67
1, 90596, Control_c, 0, 64, 127
1, 90776, Note_off_c, 0, 42, 64
1, 90780, Note_off_c, 0, 54, 64
1, 90780, Note_off_c, 0, 58, 64
1, 90784, Note_off_c, 0, 66, 64
1, 90816, Note_on_c, 0, 65, 48
1, 90852, Control_c, 0, 64, 0
1, 90860, Note_on_c, 0, 60, 43
1, 90860, Note_on_c, 0, 54, 58
1, 90864, Note_on_c, 0, 63, 64
1, 90876, Note_on_c, 0, 44, 55
1, 90924, Note_off_c, 0, 65, 64
1, 90932, Control_c, 0, 64, 127
1, 91056, Note_off_c, 0, 60, 64
1, 91056, Note_off_c, 0, 54, 64
1, 91060, Note_off_c, 0, 63, 64
1, 91072, Note_off_c, 0, 44, 64
1, 91136, Note_on_c, 0, 44, 55
1, 91144, Note_on_c, 0, 62, 46
1, 91148, Note_on_c, 0, 60, 46
1, 91152, Note_on_c, 0, 53, 58
1, 91192, Control_c, 0, 64, 0
1, 91208, Note_off_c, 0, 44, 64
1, 91216, Note_off_c, 0, 60, 64
1, 91220, Note_on_c, 0, 63, 58
1, 91228, Note_on_c, 0, 60, 46
1, 91228, Note_on_c, 0, 54, 62
1, 91232, Note_on_c, 0, 44, 55
1, 91248, Note_off_c, 0, 53, 64
1, 91260, Note_off_c, 0, 62, 64
1, 91272, Control_c, 0, 64, 127
1, 91296, Note_off_c, 0, 60, 64
1, 91304, Note_off_c, 0, 44, 64
1, 91308, Note_off_c, 0, 54, 64
1, 91324, Note_off_c, 0, 63, 64
1, 91564, Control_c, 0, 64, 0
1, 91584, Note_on_c, 0, 44, 59
1, 91592, Note_on_c, 0, 50, 63
1, 91592, Note_on_c, 0, 60, 63
1, 91592, Note_on_c, 0, 65, 66
1, 91648, Control_c, 0, 64, 127
1, 91856, Note_off_c, 0, 44, 64
1, 91860, Note_off_c, 0, 50, 64
1, 91860, Note_off_c, 0, 60, 64
1, 91860, Note_off_c, 0, 65, 64
1, 91916, Control_c, 0, 64, 0
1, 91932, Note_on_c, 0, 66, 58
1, 91932, Note_on_c, 0, 44, 52
1, 91940, Note_on_c, 0, 60, 54
1, 91940, Note_on_c, 0, 51, 58
1, 91988, Control_c, 0, 64, 127
1, 92012, Note_off_c, 0, 60, 64
1, 92020, Note_off_c, 0, 44, 64
1, 92032, Note_off_c, 0, 51, 64
1, 92048, Note_off_c, 0, 66, 64
1, 92204, Note_on_c, 0, 68, 52
1, 92204, Note_on_c, 0, 60, 58
1, 92204, Note_on_c, 0, 53, 54
1, 92204, Note_on_c, 0, 44, 51
1, 92244, Control_c, 0, 64, 0
1, 92260, Note_off_c, 0, 44, 64
1, 92264, Note_off_c, 0, 60, 64
1, 92276, Note_on_c, 0, 60, 58
1, 92284, Note_on_c, 0, 70, 62
1, 92284, Note_on_c, 0, 54, 62
1, 92284, Note_on_c, 0, 44, 59
1, 92296, Note_off_c, 0, 53, 64
1, 92316, Control_c, 0, 64, 127
1, 92324, Note_off_c, 0, 68, 64
1, 92484, Note_off_c, 0, 60, 64
1, 92488, Note_off_c, 0, 70, 64
1, 92488, Note_off_c, 0, 54, 64
1, 92488, Note_off_c, 0, 44, 64
1, 92628, Note_on_c, 0, 66, 66
1, 92628, Note_on_c, 0, 60, 56
1, 92628, Note_on_c, 0, 51, 66
1, 92628, Note_on_c, 0, 44, 66
1, 92632, Note_on_c, 0, 72, 71
1, 92664, Control_c, 0, 64, 0
1, 92704, Control_c, 0, 64, 127
1, 92888, Note_off_c, 0, 66, 64
1, 92888, Note_off_c, 0, 60, 64
1, 92888, Note_off_c, 0, 51, 64
1, 92888, Note_off_c, 0, 44, 64
1, 92892, Note_off_c, 0, 72, 64
1, 93012, Control_c, 0, 64, 0
1, 93020, Note_on_c, 0, 75, 58
1, 93020, Note_on_c, 0, 66, 58
1, 93020, Note_on_c, 0, 60, 48
1, 93020, Note_on_c, 0, 56, 51
1, 93020, Note_on_c, 0, 49, 49
1, 93064, Control_c, 0, 64, 127
1, 93088, Note_off_c, 0, 66, 64
1, 93088, Note_off_c, 0, 56, 64
1, 93092, Note_off_c, 0, 60, 64
1, 93092, Note_off_c, 0, 49, 64
1, 93112, Note_off_c, 0, 75, 64
1, 93272, Note_on_c, 0, 75, 58
1, 93272, Note_on_c, 0, 66, 62
1, 93276, Note_on_c, 0, 60, 58
1, 93276, Note_on_c, 0, 56, 62
1, 93276, Note_on_c, 0, 49, 48
1, 93312, Note_off_c, 0, 75, 64
1, 93316, Note_off_c, 0, 66, 64
1, 93316, Note_off_c, 0, 60, 64
1, 93316, Note_off_c, 0, 49, 64
1, 93320, Note_off_c, 0, 56, 64
1, 93348, Control_c, 0, 64, 0
1, 93356, Note_on_c, 0, 66, 62
1, 93356, Note_on_c, 0, 75, 63
1, 93356, Note_on_c, 0, 49, 49
1, 93356, Note_on_c, 0, 56, 52
1, 93356, Note_on_c, 0, 60, 58
1, 93420, Control_c, 0, 64, 127
1, 93696, Note_off_c, 0, 66, 64
1, 93696, Note_off_c, 0, 75, 64
1, 93696, Note_off_c, 0, 49, 64
1, 93696, Note_off_c, 0, 56, 64
1, 93696, Note_off_c, 0, 60, 64
1, 93732, Note_on_c, 0, 73, 59
1, 93736, Note_on_c, 0, 65, 56
1, 93736, Note_on_c, 0, 61, 52
1, 93736, Note_on_c, 0, 56, 48
1, 93736, Note_on_c, 0, 49, 52
1, 93780, Control_c, 0, 64, 0
1, 93812, Control_c, 0, 64, 127
1, 93992, Note_off_c, 0, 73, 64
1, 93996, Note_off_c, 0, 65, 64
1, 93996, Note_off_c, 0, 61, 64
1, 93996, Note_off_c, 0, 56, 64
1, 93996, Note_off_c, 0, 49, 64
1, 94144, Note_on_c, 0, 73, 33
1, 94144, Note_on_c, 0, 65, 32
1, 94144, Note_on_c, 0, 61, 24
1, 94144, Note_on_c, 0, 53, 24
1, 94148, Note_on_c, 0, 46, 39
1, 94148, Control_c, 0, 64, 0
1, 94220, Control_c, 0, 64, 127
1, 94244, Note_off_c, 0, 65, 64
1, 94248, Note_off_c, 0, 73, 64
1, 94264, Note_off_c, 0, 53, 64
1, 94268, Note_off_c, 0, 61, 64
1, 94284, Note_off_c, 0, 46, 64
1, 94412, Note_on_c, 0, 73, 39
1, 94412, Note_on_c, 0, 65, 36
1, 94412, Note_on_c, 0, 61, 41
1, 94412, Note_on_c, 0, 53, 33
1, 94412, Note_on_c, 0, 46, 36
1, 94444, Note_off_c, 0, 46, 64
1, 94448, Note_off_c, 0, 73, 64
1, 94452, Note_off_c, 0, 53, 64
1, 94464, Note_off_c, 0, 65, 64
1, 94468, Note_off_c, 0, 61, 64
1, 94484, Note_on_c, 0, 53, 42
1, 94492, Note_on_c, 0, 61, 35
1, 94492, Note_on_c, 0, 46, 27
1, 94492, Note_on_c, 0, 73, 44
1, 94492, Note_on_c, 0, 65, 42
1, 94524, Control_c, 0, 64, 0
1, 94544, Control_c, 0, 64, 127
1, 94600, Note_off_c, 0, 53, 64
1, 94608, Note_off_c, 0, 61, 64
1, 94608, Note_off_c, 0, 46, 64
1, 94612, Note_off_c, 0, 73, 64
1, 94612, Note_off_c, 0, 65, 64
1, 94848, Control_c, 0, 64, 0
1, 94856, Note_on_c, 0, 65, 46
1, 94860, Note_on_c, 0, 61, 41
1, 94860, Note_on_c, 0, 53, 41
1, 94860, Note_on_c, 0, 46, 41
1, 94864, Note_on_c, 0, 75, 52
1, 94904, Control_c, 0, 64, 127
1, 95116, Note_off_c, 0, 65, 64
1, 95120, Note_off_c, 0, 61, 64
1, 95120, Note_off_c, 0, 53, 64
1, 95120, Note_off_c, 0, 46, 64
1, 95124, Note_off_c, 0, 75, 64
1, 95132, Note_on_c, 0, 73, 33
1, 95192, Note_on_c, 0, 72, 47
1, 95196, Note_on_c, 0, 63, 33
1, 95196, Note_on_c, 0, 57, 42
1, 95196, Note_on_c, 0, 53, 41
1, 95196, Note_on_c, 0, 46, 37
1, 95216, Note_off_c, 0, 73, 64
1, 95248, Control_c, 0, 64, 0
1, 95296, Control_c, 0, 64, 127
1, 95328, Note_off_c, 0, 72, 64
1, 95332, Note_off_c, 0, 46, 64
1, 95332, Note_off_c, 0, 53, 64
1, 95332, Note_off_c, 0, 57, 64
1, 95332, Note_off_c, 0, 63, 64
1, 95480, Note_on_c, 0, 71, 42
1, 95484, Note_on_c, 0, 63, 37
1, 95488, Note_on_c, 0, 46, 43
1, 95488, Note_on_c, 0, 57, 46
1, 95492, Note_on_c, 0, 53, 46
1, 95524, Note_off_c, 0, 57, 64
1, 95532, Note_off_c, 0, 63, 64
1, 95532, Note_off_c, 0, 53, 64
1, 95540, Note_off_c, 0, 46, 64
1, 95552, Note_on_c, 0, 46, 41
1, 95556, Note_on_c, 0, 72, 46
1, 95556, Note_on_c, 0, 63, 42
1, 95560, Note_on_c, 0, 57, 42
1, 95560, Note_on_c, 0, 53, 41
1, 95572, Note_off_c, 0, 71, 64
1, 95584, Control_c, 0, 64, 0
1, 95616, Control_c, 0, 64, 127
1, 95676, Note_off_c, 0, 46, 64
1, 95684, Note_off_c, 0, 72, 64
1, 95684, Note_off_c, 0, 63, 64
1, 95684, Note_off_c, 0, 57, 64
1, 95684, Note_off_c, 0, 53, 64
1, 95936, Note_on_c, 0, 63, 41
1, 95944, Note_on_c, 0, 57, 36
1, 95944, Note_on_c, 0, 53, 37
1, 95948, Note_on_c, 0, 65, 49
1, 95948, Note_on_c, 0, 46, 23
1, 95980, Control_c, 0, 64, 0
1, 96032, Control_c, 0, 64, 127
1, 96196, Note_off_c, 0, 63, 64
1, 96204, Note_off_c, 0, 57, 64
1, 96204, Note_off_c, 0, 53, 64
1, 96208, Note_off_c, 0, 65, 64
1, 96208, Note_off_c, 0, 46, 64
1, 96320, Note_on_c, 0, 70, 40
1, 96320, Control_c, 0, 64, 0
1, 96328, Note_on_c, 0, 61, 46
1, 96328, Note_on_c, 0, 58, 33
1, 96328, Note_on_c, 0, 46, 36
1, 96332, Note_on_c, 0, 53, 35
1, 96368, Control_c, 0, 64, 127
1, 96404, Note_off_c, 0, 70, 64
1, 96404, Note_off_c, 0, 58, 64
1, 96404, Note_off_c, 0, 46, 64
1, 96416, Note_off_c, 0, 61, 64
1, 96416, Note_off_c, 0, 53, 64
1, 96584, Note_on_c, 0, 61, 49
1, 96584, Note_on_c, 0, 46, 49
1, 96588, Note_on_c, 0, 70, 34
1, 96588, Note_on_c, 0, 53, 46
1, 96620, Note_off_c, 0, 46, 64
1, 96624, Note_off_c, 0, 61, 64
1, 96624, Note_off_c, 0, 70, 64
1, 96628, Note_off_c, 0, 53, 64
1, 96668, Note_on_c, 0, 61, 49
1, 96672, Note_on_c, 0, 70, 49
1, 96672, Note_on_c, 0, 46, 42
1, 96672, Note_on_c, 0, 53, 43
1, 96672, Control_c, 0, 64, 0
1, 96724, Control_c, 0, 64, 127
1, 96792, Note_off_c, 0, 61, 64
1, 96796, Note_off_c, 0, 46, 64
1, 96796, Note_off_c, 0, 53, 64
1, 96796, Note_off_c, 0, 70, 64
1, 97012, Note_on_c, 0, 53, 39
1, 97012, Control_c, 0, 64, 0
1, 97020, Note_on_c, 0, 58, 40
1, 97020, Note_on_c, 0, 46, 42
1, 97020, Note_on_c, 0, 72, 47
1, 97020, Note_on_c, 0, 61, 47
1, 97052, Control_c, 0, 64, 127
1, 97184, Control_c, 0, 64, 0
1, 97224, Control_c, 0, 64, 127
1, 97256, Note_off_c, 0, 53, 64
1, 97264, Note_off_c, 0, 58, 64
1, 97264, Note_off_c, 0, 46, 64
1, 97268, Note_off_c, 0, 72, 64
1, 97268, Note_off_c, 0, 61, 64
1, 97308, Note_on_c, 0, 70, 41
1, 97308, Note_on_c, 0, 61, 41
1, 97356, Note_on_c, 0, 53, 46
1, 97364, Note_on_c, 0, 60, 47
1, 97364, Note_on_c, 0, 41, 46
1, 97368, Note_on_c, 0, 69, 41
1, 97412, Control_c, 0, 64, 0
1, 97420, Note_off_c, 0, 70, 64
1, 97420, Note_off_c, 0, 61, 64
1, 97436, Control_c, 0, 64, 127
1, 97564, Note_off_c, 0, 53, 64
1, 97568, Note_off_c, 0, 60, 64
1, 97572, Note_off_c, 0, 41, 64
1, 97576, Note_off_c, 0, 69, 64
1, 97632, Note_on_c, 0, 41, 46
1, 97640, Note_on_c, 0, 67, 39
1, 97640, Note_on_c, 0, 58, 50
1, 97640, Note_on_c, 0, 53, 46
1, 97672, Note_off_c, 0, 41, 64
1, 97680, Note_off_c, 0, 53, 64
1, 97684, Note_off_c, 0, 58, 64
1, 97708, Note_off_c, 0, 67, 64
1, 97724, Note_on_c, 0, 41, 26
1, 97732, Note_on_c, 0, 60, 46
1, 97732, Note_on_c, 0, 69, 44
1, 97740, Note_on_c, 0, 53, 41
1, 97748, Control_c, 0, 64, 0
1, 97772, Control_c, 0, 64, 127
1, 97848, Note_off_c, 0, 41, 64
1, 97860, Note_off_c, 0, 60, 64
1, 97860, Note_off_c, 0, 69, 64
1, 97864, Note_off_c, 0, 53, 64
1, 98088, Note_on_c, 0, 57, 52
1, 98092, Note_on_c, 0, 65, 52
1, 98092, Note_on_c, 0, 63, 52
1, 98092, Note_on_c, 0, 53, 48
1, 98100, Note_on_c, 0, 41, 47
1, 98124, Control_c, 0, 64, 0
1, 98160, Control_c, 0, 64, 127
1, 98348, Note_off_c, 0, 57, 64
1, 98348, Note_off_c, 0, 65, 64
1, 98352, Note_off_c, 0, 53, 64
1, 98352, Note_off_c, 0, 63, 64
1, 98360, Note_off_c, 0, 41, 64
1, 98460, Note_on_c, 0, 65, 57
1, 98460, Note_on_c, 0, 61, 56
1, 98460, Note_on_c, 0, 46, 54
1, 98464, Note_on_c, 0, 53, 51
1, 98468, Note_on_c, 0, 73, 58
1, 98500, Control_c, 0, 64, 0
1, 98540, Control_c, 0, 64, 127
1, 98564, Note_off_c, 0, 65, 64
1, 98564, Note_off_c, 0, 61, 64
1, 98568, Note_off_c, 0, 46, 64
1, 98572, Note_off_c, 0, 53, 64
1, 98572, Note_off_c, 0, 73, 64
1, 98716, Note_on_c, 0, 58, 59
1, 98716, Note_on_c, 0, 46, 59
1, 98720, Note_on_c, 0, 73, 62
1, 98720, Note_on_c, 0, 65, 49
1, 98720, Note_on_c, 0, 53, 33
1, 98732, Note_off_c, 0, 73, 64
1, 98744, Note_off_c, 0, 53, 64
1, 98748, Note_off_c, 0, 65, 64
1, 98764, Note_off_c, 0, 58, 64
1, 98764, Note_off_c, 0, 46, 64
1, 98788, Control_c, 0, 64, 0
1, 98800, Note_on_c, 0, 65, 62
1, 98804, Note_on_c, 0, 73, 63
1, 98804, Note_on_c, 0, 58, 58
1, 98804, Note_on_c, 0, 53, 46
1, 98812, Note_on_c, 0, 46, 51
1, 98848, Control_c, 0, 64, 127
1, 99008, Note_off_c, 0, 65, 64
1, 99012, Note_off_c, 0, 73, 64
1, 99012, Note_off_c, 0, 58, 64
1, 99012, Note_off_c, 0, 53, 64
1, 99016, Note_off_c, 0, 46, 64
1, 99164, Note_on_c, 0, 46, 58
1, 99164, Note_on_c, 0, 75, 73
1, 99168, Note_on_c, 0, 53, 63
1, 99168, Note_on_c, 0, 61, 66
1, 99172, Note_on_c, 0, 65, 71
1, 99180, Control_c, 0, 64, 0
1, 99212, Control_c, 0, 64, 127
1, 99420, Note_off_c, 0, 46, 64
1, 99420, Note_off_c, 0, 75, 64
1, 99428, Note_off_c, 0, 53, 64
1, 99428, Note_off_c, 0, 61, 64
1, 99432, Note_off_c, 0, 65, 64
1, 99436, Note_on_c, 0, 73, 48
1, 99484, Note_on_c, 0, 63, 51
1, 99488, Note_on_c, 0, 72, 55
1, 99488, Note_on_c, 0, 57, 59
1, 99488, Note_on_c, 0, 53, 52
1, 99488, Note_on_c, 0, 46, 48
1, 99544, Note_off_c, 0, 73, 64
1, 99548, Control_c, 0, 64, 0
1, 99588, Control_c, 0, 64, 127
1, 99608, Note_off_c, 0, 72, 64
1, 99616, Note_off_c, 0, 63, 64
1, 99624, Note_off_c, 0, 57, 64
1, 99624, Note_off_c, 0, 53, 64
1, 99624, Note_off_c, 0, 46, 64
1, 99740, Note_on_c, 0, 57, 59
1, 99740, Note_on_c, 0, 71, 58
1, 99744, Note_on_c, 0, 63, 57
1, 99744, Note_on_c, 0, 53, 62
1, 99744, Note_on_c, 0, 46, 62
1, 99776, Note_off_c, 0, 57, 64
1, 99780, Note_off_c, 0, 46, 64
1, 99784, Note_off_c, 0, 53, 64
1, 99788, Note_off_c, 0, 63, 64
1, 99816, Note_on_c, 0, 57, 58
1, 99816, Note_on_c, 0, 53, 58
1, 99820, Note_off_c, 0, 71, 64
1, 99820, Note_on_c, 0, 63, 62
1, 99824, Note_on_c, 0, 72, 64
1, 99828, Note_on_c, 0, 46, 54
1, 99856, Control_c, 0, 64, 0
1, 99896, Control_c, 0, 64, 127
1, 99916, Note_off_c, 0, 53, 64
1, 99916, Note_off_c, 0, 57, 64
1, 99924, Note_off_c, 0, 63, 64
1, 99928, Note_off_c, 0, 72, 64
1, 99932, Note_off_c, 0, 46, 64
1, 100192, Note_on_c, 0, 65, 67
1, 100196, Note_on_c, 0, 63, 65
1, 100200, Note_on_c, 0, 57, 54
1, 100200, Note_on_c, 0, 53, 57
1, 100204, Note_on_c, 0, 46, 58
1, 100228, Control_c, 0, 64, 0
1, 100268, Control_c, 0, 64, 127
1, 100452, Note_off_c, 0, 65, 64
1, 100456, Note_off_c, 0, 63, 64
1, 100460, Note_off_c, 0, 57, 64
1, 100460, Note_off_c, 0, 53, 64
1, 100464, Note_off_c, 0, 46, 64
1, 100564, Note_on_c, 0, 61, 54
1, 100564, Note_on_c, 0, 53, 54
1, 100568, Note_on_c, 0, 46, 54
1, 100572, Note_on_c, 0, 70, 58
1, 100572, Note_on_c, 0, 58, 54
1, 100596, Control_c, 0, 64, 0
1, 100620, Control_c, 0, 64, 127
1, 100660, Note_off_c, 0, 61, 64
1, 100660, Note_off_c, 0, 53, 64
1, 100660, Note_off_c, 0, 46, 64
1, 100664, Note_off_c, 0, 58, 64
1, 100668, Note_off_c, 0, 70, 64
1, 100840, Note_on_c, 0, 39, 63
1, 100844, Note_on_c, 0, 70, 58
1, 100844, Note_on_c, 0, 54, 65
1, 100844, Note_on_c, 0, 61, 64
1, 100884, Note_off_c, 0, 39, 64
1, 100884, Note_off_c, 0, 61, 64
1, 100892, Note_off_c, 0, 70, 64
1, 100892, Note_off_c, 0, 54, 64
1, 100916, Note_on_c, 0, 61, 63
1, 100916, Note_on_c, 0, 54, 62
1, 100924, Note_on_c, 0, 39, 57
1, 100928, Note_on_c, 0, 70, 62
1, 100948, Control_c, 0, 64, 0
1, 101000, Control_c, 0, 64, 127
1, 101036, Note_off_c, 0, 61, 64
1, 101036, Note_off_c, 0, 54, 64
1, 101040, Note_off_c, 0, 39, 64
1, 101044, Note_off_c, 0, 70, 64
1, 101268, Note_on_c, 0, 39, 66
1, 101268, Note_on_c, 0, 54, 62
1, 101268, Note_on_c, 0, 61, 73
1, 101280, Note_on_c, 0, 72, 67
1, 101296, Control_c, 0, 64, 0
1, 101320, Control_c, 0, 64, 127
1, 101528, Note_off_c, 0, 39, 64
1, 101528, Note_off_c, 0, 54, 64
1, 101528, Note_off_c, 0, 61, 64
1, 101540, Note_off_c, 0, 72, 64
1, 101548, Note_on_c, 0, 70, 49
1, 101608, Note_on_c, 0, 61, 46
1, 101608, Note_on_c, 0, 54, 62
1, 101608, Note_on_c, 0, 44, 55
1, 101608, Note_on_c, 0, 68, 57
1, 101652, Note_off_c, 0, 70, 64
1, 101660, Control_c, 0, 64, 0
1, 101680, Control_c, 0, 64, 127
1, 101752, Note_off_c, 0, 61, 64
1, 101752, Note_off_c, 0, 54, 64
1, 101752, Note_off_c, 0, 44, 64
1, 101756, Note_off_c, 0, 68, 64
1, 101900, Note_on_c, 0, 67, 55
1, 101900, Note_on_c, 0, 60, 51
1, 101908, Note_on_c, 0, 54, 65
1, 101908, Note_on_c, 0, 44, 58
1, 101944, Note_off_c, 0, 60, 64
1, 101948, Note_off_c, 0, 44, 64
1, 101960, Note_off_c, 0, 54, 64
1, 101964, Note_off_c, 0, 67, 64
1, 101972, Note_on_c, 0, 68, 70
1, 101972, Note_on_c, 0, 60, 58
1, 101972, Note_on_c, 0, 54, 57
1, 101972, Note_on_c, 0, 44, 58
1, 102004, Control_c, 0, 64, 0
1, 102020, Control_c, 0, 64, 127
1, 102140, Note_off_c, 0, 68, 64
1, 102140, Note_off_c, 0, 60, 64
1, 102140, Note_off_c, 0, 54, 64
1, 102140, Note_off_c, 0, 44, 64
1, 102348, Note_on_c, 0, 60, 67
1, 102356, Note_on_c, 0, 63, 71
1, 102356, Note_on_c, 0, 44, 66
1, 102356, Note_on_c, 0, 54, 66
1, 102372, Control_c, 0, 64, 0
1, 102404, Control_c, 0, 64, 127
1, 102608, Note_off_c, 0, 60, 64
1, 102612, Note_off_c, 0, 63, 64
1, 102616, Note_off_c, 0, 44, 64
1, 102616, Note_off_c, 0, 54, 64
1, 102732, Note_on_c, 0, 65, 83
1, 102736, Note_on_c, 0, 61, 74
1, 102736, Note_on_c, 0, 53, 81
1, 102736, Note_on_c, 0, 37, 83
1, 102768, Control_c, 0, 64, 0
1, 102788, Control_c, 0, 64, 127
1, 102828, Note_off_c, 0, 61, 64
1, 102840, Note_off_c, 0, 65, 64
1, 102848, Note_off_c, 0, 53, 64
1, 102848, Note_off_c, 0, 37, 64
1, 103084, Note_on_c, 0, 65, 54
1, 103092, Note_on_c, 0, 56, 71
1, 103092, Note_on_c, 0, 49, 63
1, 103096, Note_on_c, 0, 61, 63
1, 103140, Note_off_c, 0, 56, 64
1, 103140, Note_off_c, 0, 49, 64
1, 103140, Note_off_c, 0, 61, 64
1, 103152, Note_off_c, 0, 65, 64
1, 103164, Control_c, 0, 64, 0
1, 103168, Note_on_c, 0, 61, 65
1, 103168, Note_on_c, 0, 56, 64
1, 103168, Note_on_c, 0, 49, 62
1, 103172, Note_on_c, 0, 65, 62
1, 103212, Control_c, 0, 64, 127
1, 103360, Note_off_c, 0, 61, 64
1, 103360, Note_off_c, 0, 56, 64
1, 103360, Note_off_c, 0, 49, 64
1, 103364, Note_off_c, 0, 65, 64
1, 103548, Note_on_c, 0, 66, 71
1, 103552, Note_on_c, 0, 42, 66
1, 103556, Note_on_c, 0, 58, 67
1, 103580, Control_c, 0, 64, 0
1, 103604, Control_c, 0, 64, 127
1, 103804, Note_off_c, 0, 66, 64
1, 103812, Note_off_c, 0, 42, 64
1, 103812, Note_off_c, 0, 58, 64
1, 103868, Note_on_c, 0, 65, 48
1, 103916, Note_on_c, 0, 44, 54
1, 103916, Note_on_c, 0, 60, 39
1, 103920, Note_on_c, 0, 63, 62
1, 103924, Note_on_c, 0, 54, 62
1, 103948, Control_c, 0, 64, 0
1, 103964, Note_off_c, 0, 65, 64
1, 103988, Control_c, 0, 64, 127
1, 104112, Note_off_c, 0, 44, 64
1, 104112, Note_off_c, 0, 60, 64
1, 104112, Note_off_c, 0, 63, 64
1, 104116, Note_off_c, 0, 54, 64
1, 104224, Note_on_c, 0, 44, 57
1, 104232, Note_on_c, 0, 60, 44
1, 104232, Note_on_c, 0, 53, 57
1, 104236, Note_on_c, 0, 62, 50
1, 104296, Note_off_c, 0, 44, 64
1, 104300, Note_off_c, 0, 60, 64
1, 104308, Note_on_c, 0, 44, 57
1, 104308, Note_on_c, 0, 60, 44
1, 104316, Note_on_c, 0, 63, 65
1, 104316, Note_on_c, 0, 54, 62
1, 104336, Note_off_c, 0, 53, 64
1, 104340, Control_c, 0, 64, 0
1, 104348, Note_off_c, 0, 62, 64
1, 104380, Control_c, 0, 64, 127
1, 104476, Note_off_c, 0, 44, 64
1, 104476, Note_off_c, 0, 60, 64
1, 104484, Note_off_c, 0, 63, 64
1, 104488, Note_off_c, 0, 54, 64
1, 104692, Note_on_c, 0, 50, 66
1, 104692, Note_on_c, 0, 44, 67
1, 104692, Note_on_c, 0, 65, 67
1, 104692, Note_on_c, 0, 60, 66
1, 104716, Control_c, 0, 64, 0
1, 104764, Control_c, 0, 64, 127
1, 104952, Note_off_c, 0, 50, 64
1, 104952, Note_off_c, 0, 44, 64
1, 104952, Note_off_c, 0, 65, 64
1, 104952, Note_off_c, 0, 60, 64
1, 105028, Note_on_c, 0, 68, 56
1, 105052, Control_c, 0, 64, 0
1, 105080, Note_on_c, 0, 66, 62
1, 105084, Note_on_c, 0, 60, 46
1, 105084, Note_on_c, 0, 51, 70
1, 105084, Note_on_c, 0, 44, 57
1, 105128, Note_off_c, 0, 68, 64
1, 105140, Control_c, 0, 64, 127
1, 105176, Note_off_c, 0, 51, 64
1, 105180, Note_off_c, 0, 44, 64
1, 105184, Note_off_c, 0, 66, 64
1, 105288, Note_off_c, 0, 60, 64
1, 105356, Note_on_c, 0, 44, 62
1, 105360, Note_on_c, 0, 50, 58
1, 105372, Note_on_c, 0, 65, 56
1, 105372, Note_on_c, 0, 60, 50
1, 105420, Control_c, 0, 64, 0
1, 105428, Note_off_c, 0, 44, 64
1, 105444, Note_off_c, 0, 60, 64
1, 105452, Note_on_c, 0, 44, 62
1, 105452, Note_on_c, 0, 66, 63
1, 105460, Note_on_c, 0, 51, 73
1, 105460, Note_on_c, 0, 60, 50
1, 105480, Note_off_c, 0, 50, 64
1, 105500, Note_off_c, 0, 65, 64
1, 105504, Control_c, 0, 64, 127
1, 105524, Note_off_c, 0, 44, 64
1, 105532, Note_off_c, 0, 60, 64
1, 105548, Note_off_c, 0, 51, 64
1, 105576, Note_off_c, 0, 66, 64
1, 105832, Note_on_c, 0, 44, 65
1, 105832, Note_on_c, 0, 52, 65
1, 105832, Note_on_c, 0, 58, 66
1, 105836, Note_on_c, 0, 67, 65
1, 105852, Control_c, 0, 64, 0
1, 105892, Control_c, 0, 64, 127
1, 106068, Note_off_c, 0, 52, 64
1, 106068, Note_off_c, 0, 58, 64
1, 106068, Note_off_c, 0, 67, 64
1, 106204, Control_c, 0, 64, 0
1, 106220, Note_on_c, 0, 70, 57
1, 106220, Note_on_c, 0, 61, 58
1, 106220, Note_on_c, 0, 37, 58
1, 106228, Note_on_c, 0, 64, 57
1, 106228, Note_on_c, 0, 52, 56
1, 106260, Note_off_c, 0, 44, 64
1, 106272, Control_c, 0, 64, 127
1, 106332, Note_off_c, 0, 70, 64
1, 106332, Note_off_c, 0, 61, 64
1, 106332, Note_off_c, 0, 37, 64
1, 106340, Note_off_c, 0, 64, 64
1, 106340, Note_off_c, 0, 52, 64
1, 106540, Note_on_c, 0, 70, 58
1, 106544, Note_on_c, 0, 64, 57
1, 106544, Note_on_c, 0, 55, 57
1, 106544, Note_on_c, 0, 49, 59
1, 106576, Note_off_c, 0, 70, 64
1, 106580, Note_off_c, 0, 49, 64
1, 106588, Note_off_c, 0, 64, 64
1, 106596, Note_off_c, 0, 55, 64
1, 106612, Control_c, 0, 64, 0
1, 106628, Note_on_c, 0, 55, 50
1, 106628, Note_on_c, 0, 70, 62
1, 106632, Note_on_c, 0, 64, 67
1, 106640, Note_on_c, 0, 49, 62
1, 106664, Control_c, 0, 64, 127
1, 106916, Note_off_c, 0, 55, 64
1, 106916, Note_off_c, 0, 70, 64
1, 106920, Note_off_c, 0, 64, 64
1, 106928, Note_off_c, 0, 49, 64
1, 107040, Note_on_c, 0, 65, 65
1, 107048, Note_on_c, 0, 68, 66
1, 107052, Note_on_c, 0, 49, 64
1, 107052, Note_on_c, 0, 56, 62
1, 107076, Control_c, 0, 64, 0
1, 107148, Control_c, 0, 64, 127
1, 107300, Note_off_c, 0, 65, 64
1, 107308, Note_off_c, 0, 68, 64
1, 107312, Note_off_c, 0, 49, 64
1, 107312, Note_off_c, 0, 56, 64
1, 107516, Control_c, 0, 64, 0
1, 107520, Note_on_c, 0, 56, 48
1, 107520, Note_on_c, 0, 49, 52
1, 107524, Note_on_c, 0, 65, 59
1, 107524, Note_on_c, 0, 61, 59
1, 107584, Control_c, 0, 64, 127
1, 107628, Note_off_c, 0, 49, 64
1, 107640, Note_off_c, 0, 56, 64
1, 107644, Note_off_c, 0, 65, 64
1, 107644, Note_off_c, 0, 61, 64
1, 107820, Note_on_c, 0, 65, 54
1, 107828, Note_on_c, 0, 49, 52
1, 107828, Note_on_c, 0, 61, 52
1, 107828, Note_on_c, 0, 56, 62
1, 107860, Note_off_c, 0, 49, 64
1, 107864, Note_off_c, 0, 61, 64
1, 107876, Note_off_c, 0, 65, 64
1, 107884, Note_off_c, 0, 56, 64
1, 107900, Control_c, 0, 64, 0
1, 107912, Note_on_c, 0, 49, 57
1, 107912, Note_on_c, 0, 65, 62
1, 107912, Note_on_c, 0, 61, 64
1, 107920, Note_on_c, 0, 56, 52
1, 107956, Control_c, 0, 64, 127
1, 108216, Note_off_c, 0, 49, 64
1, 108216, Note_off_c, 0, 65, 64
1, 108216, Note_off_c, 0, 61, 64
1, 108224, Note_off_c, 0, 56, 64
1, 108284, Note_on_c, 0, 66, 71
1, 108288, Note_on_c, 0, 58, 71
1, 108288, Note_on_c, 0, 42, 62
1, 108288, Control_c, 0, 64, 0
1, 108356, Control_c, 0, 64, 127
1, 108540, Note_off_c, 0, 66, 64
1, 108548, Note_off_c, 0, 58, 64
1, 108548, Note_off_c, 0, 42, 64
1, 108596, Note_on_c, 0, 65, 57
1, 108656, Note_on_c, 0, 63, 67
1, 108656, Note_on_c, 0, 44, 58
1, 108660, Note_on_c, 0, 60, 50
1, 108660, Note_on_c, 0, 54, 64
1, 108668, Control_c, 0, 64, 0
1, 108708, Note_off_c, 0, 65, 64
1, 108724, Control_c, 0, 64, 127
1, 108756, Note_off_c, 0, 63, 64
1, 108760, Note_off_c, 0, 44, 64
1, 108760, Note_off_c, 0, 60, 64
1, 108780, Note_off_c, 0, 54, 64
1, 108940, Note_on_c, 0, 60, 49
1, 108940, Note_on_c, 0, 44, 58
1, 108948, Note_on_c, 0, 53, 62
1, 108948, Note_on_c, 0, 62, 50
1, 109012, Note_off_c, 0, 60, 64
1, 109012, Note_off_c, 0, 44, 64
1, 109012, Control_c, 0, 64, 0
1, 109024, Note_on_c, 0, 63, 63
1, 109024, Note_on_c, 0, 60, 49
1, 109032, Note_on_c, 0, 54, 65
1, 109032, Note_on_c, 0, 44, 59
1, 109056, Note_off_c, 0, 53, 64
1, 109060, Note_off_c, 0, 62, 64
1, 109076, Control_c, 0, 64, 127
1, 109096, Note_off_c, 0, 60, 64
1, 109100, Note_off_c, 0, 44, 64
1, 109104, Note_off_c, 0, 54, 64
1, 109120, Note_off_c, 0, 63, 64
1, 109388, Note_on_c, 0, 65, 69
1, 109388, Note_on_c, 0, 50, 69
1, 109396, Note_on_c, 0, 60, 70
1, 109396, Note_on_c, 0, 44, 66
1, 109404, Control_c, 0, 64, 0
1, 109468, Control_c, 0, 64, 127
1, 109648, Note_off_c, 0, 65, 64
1, 109648, Note_off_c, 0, 50, 64
1, 109652, Note_off_c, 0, 60, 64
1, 109652, Note_off_c, 0, 44, 64
1, 109756, Control_c, 0, 64, 0
1, 109760, Note_on_c, 0, 44, 56
1, 109764, Note_on_c, 0, 66, 62
1, 109764, Note_on_c, 0, 60, 57
1, 109764, Note_on_c, 0, 51, 60
1, 109804, Control_c, 0, 64, 127
1, 109844, Note_off_c, 0, 60, 64
1, 109852, Note_off_c, 0, 44, 64
1, 109852, Note_off_c, 0, 51, 64
1, 109868, Note_off_c, 0, 66, 64
1, 110044, Note_on_c, 0, 53, 55
1, 110044, Note_on_c, 0, 44, 48
1, 110048, Note_on_c, 0, 68, 54
1, 110048, Note_on_c, 0, 60, 60
1, 110092, Note_off_c, 0, 60, 64
1, 110092, Control_c, 0, 64, 0
1, 110100, Note_off_c, 0, 53, 64
1, 110100, Note_off_c, 0, 44, 64
1, 110124, Note_on_c, 0, 60, 63
1, 110124, Note_on_c, 0, 44, 57
1, 110128, Note_on_c, 0, 70, 66
1, 110128, Note_on_c, 0, 54, 70
1, 110148, Control_c, 0, 64, 127
1, 110180, Note_off_c, 0, 68, 64
1, 110292, Note_off_c, 0, 60, 64
1, 110296, Note_off_c, 0, 44, 64
1, 110296, Note_off_c, 0, 70, 64
1, 110300, Note_off_c, 0, 54, 64
1, 110516, Note_on_c, 0, 51, 72
1, 110516, Note_on_c, 0, 60, 64
1, 110516, Note_on_c, 0, 66, 72
1, 110524, Note_on_c, 0, 72, 73
1, 110528, Note_on_c, 0, 44, 72
1, 110572, Control_c, 0, 64, 0
1, 110604, Control_c, 0, 64, 127
1, 110788, Note_off_c, 0, 51, 64
1, 110788, Note_off_c, 0, 60, 64
1, 110788, Note_off_c, 0, 66, 64
1, 110796, Note_off_c, 0, 72, 64
1, 110800, Note_off_c, 0, 44, 64
1, 110956, Note_on_c, 0, 49, 59
1, 110960, Note_on_c, 0, 75, 69
1, 110964, Note_on_c, 0, 66, 66
1, 110964, Note_on_c, 0, 60, 59
1, 110964, Note_on_c, 0, 56, 59
1, 110980, Control_c, 0, 64, 0
1, 111028, Control_c, 0, 64, 127
1, 111216, Note_off_c, 0, 49, 64
1, 111220, Note_off_c, 0, 75, 64
1, 111224, Note_off_c, 0, 66, 64
1, 111224, Note_off_c, 0, 60, 64
1, 111224, Note_off_c, 0, 56, 64
1, 111336, Note_on_c, 0, 75, 59
1, 111336, Note_on_c, 0, 66, 60
1, 111336, Note_on_c, 0, 60, 60
1, 111336, Note_on_c, 0, 56, 62
1, 111336, Note_on_c, 0, 49, 58
1, 111368, Note_off_c, 0, 49, 64
1, 111376, Note_off_c, 0, 56, 64
1, 111380, Note_off_c, 0, 66, 64
1, 111384, Note_off_c, 0, 60, 64
1, 111396, Note_off_c, 0, 75, 64
1, 111424, Note_on_c, 0, 60, 58
1, 111424, Note_on_c, 0, 56, 71
1, 111432, Note_on_c, 0, 75, 72
1, 111432, Note_on_c, 0, 49, 65
1, 111436, Note_on_c, 0, 66, 81
1, 111464, Control_c, 0, 64, 0
1, 111500, Control_c, 0, 64, 127
1, 112064, Note_off_c, 0, 56, 64
1, 112068, Note_off_c, 0, 49, 64
1, 112092, Note_on_c, 0, 56, 62
1, 112092, Note_on_c, 0, 49, 62
1, 112092, Note_on_c, 0, 73, 71
1, 112096, Note_on_c, 0, 65, 69
1, 112096, Note_on_c, 0, 61, 62
1, 112108, Note_off_c, 0, 60, 64
1, 112116, Note_off_c, 0, 75, 64
1, 112116, Note_off_c, 0, 66, 64
1, 112184, Control_c, 0, 64, 0
1, 112240, Control_c, 0, 64, 127
1, 112600, Note_off_c, 0, 49, 64
1, 112600, Note_off_c, 0, 56, 64
1, 112604, Note_off_c, 0, 61, 64
1, 112604, Note_off_c, 0, 65, 64
1, 112604, Note_off_c, 0, 73, 64
1, 113116, Control_c, 0, 64, 0
1, 113124, Note_on_c, 0, 44, 52
1, 113212, Note_on_c, 0, 72, 59
1, 113236, Control_c, 0, 64, 127
1, 113480, Note_on_c, 0, 73, 58
1, 113520, Note_off_c, 0, 72, 64
1, 113624, Note_on_c, 0, 51, 54
1, 113668, Note_on_c, 0, 60, 52
1, 113696, Note_on_c, 0, 75, 56
1, 113716, Note_on_c, 0, 68, 37
1, 113736, Note_off_c, 0, 44, 64
1, 113740, Note_off_c, 0, 73, 64
1, 113820, Note_off_c, 0, 51, 64
1, 113860, Note_off_c, 0, 60, 64
1, 113912, Note_off_c, 0, 68, 64
1, 114184, Note_on_c, 0, 77, 48
1, 114220, Note_off_c, 0, 75, 64
1, 114336, Note_on_c, 0, 39, 51
1, 114336, Control_c, 0, 64, 0
1, 114348, Note_on_c, 0, 75, 56
1, 114372, Note_off_c, 0, 77, 64
1, 114396, Control_c, 0, 64, 127
1, 114492, Note_on_c, 0, 74, 48
1, 114520, Note_off_c, 0, 75, 64
1, 114636, Note_on_c, 0, 73, 62
1, 114636, Note_on_c, 0, 67, 39
1, 114644, Note_on_c, 0, 61, 41
1, 114664, Control_c, 0, 64, 0
1, 114672, Note_off_c, 0, 74, 64
1, 114704, Control_c, 0, 64, 127
1, 114752, Note_off_c, 0, 67, 64
1, 114756, Note_off_c, 0, 61, 64
1, 114800, Note_off_c, 0, 39, 64
1, 114952, Note_on_c, 0, 67, 19
1, 114964, Note_on_c, 0, 61, 32
1, 115068, Note_off_c, 0, 67, 64
1, 115076, Note_off_c, 0, 61, 64
1, 115112, Note_on_c, 0, 72, 49
1, 115172, Note_off_c, 0, 73, 64
1, 115228, Note_on_c, 0, 70, 62
1, 115248, Note_off_c, 0, 72, 64
1, 115276, Note_on_c, 0, 72, 55
1, 115312, Note_off_c, 0, 70, 64
1, 115316, Note_on_c, 0, 51, 49
1, 115328, Control_c, 0, 64, 0
1, 115340, Note_on_c, 0, 70, 58
1, 115372, Note_off_c, 0, 72, 64
1, 115388, Control_c, 0, 64, 127
1, 115464, Note_on_c, 0, 69, 51
1, 115492, Note_off_c, 0, 70, 64
1, 115588, Note_on_c, 0, 63, 39
1, 115592, Control_c, 0, 64, 0
1, 115604, Note_on_c, 0, 70, 62
1, 115604, Note_on_c, 0, 61, 43
1, 115628, Note_off_c, 0, 69, 64
1, 115648, Note_off_c, 0, 51, 64
1, 115660, Control_c, 0, 64, 127
1, 115704, Note_off_c, 0, 63, 64
1, 115716, Note_off_c, 0, 61, 64
1, 115720, Note_on_c, 0, 72, 39
1, 115760, Note_off_c, 0, 70, 64
1, 115860, Note_on_c, 0, 67, 49
1, 115860, Note_on_c, 0, 63, 42
1, 115868, Note_on_c, 0, 61, 42
1, 115916, Note_off_c, 0, 72, 64
1, 115976, Note_off_c, 0, 63, 64
1, 115984, Note_off_c, 0, 61, 64
1, 116096, Note_on_c, 0, 70, 50
1, 116140, Note_off_c, 0, 67, 64
1, 116148, Note_on_c, 0, 44, 49
1, 116156, Note_on_c, 0, 68, 55
1, 116180, Control_c, 0, 64, 0
1, 116196, Note_off_c, 0, 70, 64
1, 116256, Control_c, 0, 64, 127
1, 116352, Note_on_c, 0, 67, 42
1, 116376, Note_off_c, 0, 68, 64
1, 116476, Note_on_c, 0, 68, 49
1, 116480, Note_on_c, 0, 51, 42
1, 116492, Note_on_c, 0, 60, 42
1, 116500, Note_off_c, 0, 67, 64
1, 116508, Control_c, 0, 64, 0
1, 116548, Control_c, 0, 64, 127
1, 116716, Note_off_c, 0, 51, 64
1, 116724, Note_off_c, 0, 60, 64
1, 116788, Note_off_c, 0, 44, 64
1, 116876, Note_on_c, 0, 60, 51
1, 116892, Note_off_c, 0, 68, 64
1, 117172, Note_on_c, 0, 41, 40
1, 117252, Control_c, 0, 64, 0
1, 117264, Note_on_c, 0, 68, 58
1, 117300, Note_off_c, 0, 60, 64
1, 117312, Control_c, 0, 64, 127
1, 117440, Note_on_c, 0, 70, 47
1, 117484, Note_off_c, 0, 68, 64
1, 117568, Note_on_c, 0, 72, 57
1, 117576, Note_on_c, 0, 60, 28
1, 117576, Note_on_c, 0, 56, 49
1, 117584, Note_on_c, 0, 65, 43
1, 117584, Control_c, 0, 64, 0
1, 117612, Note_off_c, 0, 70, 64
1, 117624, Control_c, 0, 64, 127
1, 117692, Note_off_c, 0, 60, 64
1, 117692, Note_off_c, 0, 56, 64
1, 117700, Note_off_c, 0, 65, 64
1, 117728, Note_off_c, 0, 41, 64
1, 117872, Note_on_c, 0, 56, 35
1, 117884, Note_on_c, 0, 65, 34
1, 117884, Note_on_c, 0, 60, 28
1, 117988, Note_off_c, 0, 56, 64
1, 117996, Note_off_c, 0, 65, 64
1, 117996, Note_off_c, 0, 60, 64
1, 118004, Note_on_c, 0, 73, 51
1, 118016, Note_off_c, 0, 72, 64
1, 118204, Note_on_c, 0, 48, 49
1, 118212, Note_on_c, 0, 72, 56
1, 118252, Control_c, 0, 64, 0
1, 118264, Note_off_c, 0, 73, 64
1, 118316, Control_c, 0, 64, 127
1, 118376, Note_on_c, 0, 71, 54
1, 118404, Note_off_c, 0, 72, 64
1, 118460, Note_off_c, 0, 48, 64
1, 118504, Control_c, 0, 64, 0
1, 118520, Note_on_c, 0, 70, 50
1, 118524, Note_off_c, 0, 71, 64
1, 118532, Note_on_c, 0, 64, 32
1, 118540, Note_on_c, 0, 58, 39
1, 118572, Control_c, 0, 64, 127
1, 118648, Note_off_c, 0, 64, 64
1, 118652, Note_off_c, 0, 58, 64
1, 118848, Note_on_c, 0, 64, 27
1, 118852, Note_on_c, 0, 58, 32
1, 118964, Note_off_c, 0, 64, 64
1, 118964, Note_on_c, 0, 68, 49
1, 118968, Note_off_c, 0, 58, 64
1, 118992, Note_off_c, 0, 70, 64
1, 119124, Note_on_c, 0, 67, 51
1, 119136, Note_off_c, 0, 68, 64
1, 119172, Note_on_c, 0, 68, 57
1, 119188, Note_off_c, 0, 67, 64
1, 119192, Note_on_c, 0, 48, 43
1, 119220, Control_c, 0, 64, 0
1, 119236, Note_on_c, 0, 67, 54
1, 119256, Note_off_c, 0, 68, 64
1, 119276, Control_c, 0, 64, 127
1, 119372, Note_on_c, 0, 65, 50
1, 119380, Note_off_c, 0, 67, 64
1, 119500, Note_on_c, 0, 67, 51
1, 119500, Control_c, 0, 64, 0
1, 119512, Note_on_c, 0, 60, 32
1, 119516, Note_on_c, 0, 58, 39
1, 119528, Note_off_c, 0, 65, 64
1, 119548, Control_c, 0, 64, 127
1, 119568, Note_off_c, 0, 48, 64
1, 119628, Note_off_c, 0, 60, 64
1, 119628, Note_off_c, 0, 58, 64
1, 119628, Note_on_c, 0, 68, 44
1, 119692, Note_off_c, 0, 67, 64
1, 119788, Note_on_c, 0, 60, 37
1, 119792, Note_on_c, 0, 64, 51
1, 119792, Note_on_c, 0, 58, 39
1, 119820, Note_off_c, 0, 68, 64
1, 119904, Note_off_c, 0, 60, 64
1, 119908, Note_off_c, 0, 58, 64
1, 120140, Note_on_c, 0, 41, 49
1, 120140, Note_on_c, 0, 65, 51
1, 120156, Control_c, 0, 64, 0
1, 120172, Note_off_c, 0, 64, 64
1, 120216, Control_c, 0, 64, 127
1, 120428, Note_on_c, 0, 77, 54
1, 120512, Note_on_c, 0, 49, 50
1, 120520, Note_on_c, 0, 75, 64
1, 120520, Note_on_c, 0, 61, 44
1, 120520, Note_on_c, 0, 56, 37
1, 120540, Control_c, 0, 64, 0
1, 120552, Note_off_c, 0, 77, 64
1, 120564, Control_c, 0, 64, 127
1, 120596, Note_off_c, 0, 41, 64
1, 120768, Note_off_c, 0, 49, 64
1, 120776, Note_off_c, 0, 61, 64
1, 120776, Note_off_c, 0, 56, 64
1, 120940, Note_on_c, 0, 43, 46
1, 120952, Note_on_c, 0, 63, 47
1, 120956, Note_on_c, 0, 51, 46
1, 120980, Note_off_c, 0, 65, 64
1, 121004, Control_c, 0, 64, 0
1, 121036, Control_c, 0, 64, 127
1, 121136, Note_on_c, 0, 73, 47
1, 121168, Note_off_c, 0, 75, 64
1, 121340, Note_on_c, 0, 44, 46
1, 121344, Note_on_c, 0, 72, 51
1, 121356, Control_c, 0, 64, 0
1, 121360, Note_off_c, 0, 63, 64
1, 121368, Note_off_c, 0, 73, 64
1, 121396, Note_off_c, 0, 43, 64
1, 121408, Control_c, 0, 64, 127
1, 121436, Note_off_c, 0, 51, 64
1, 121488, Note_on_c, 0, 73, 57
1, 121532, Note_off_c, 0, 72, 64
1, 121636, Note_on_c, 0, 68, 51
1, 121644, Note_on_c, 0, 75, 58
1, 121656, Control_c, 0, 64, 0
1, 121664, Note_on_c, 0, 60, 32
1, 121688, Note_off_c, 0, 73, 64
1, 121712, Control_c, 0, 64, 127
1, 121820, Note_off_c, 0, 44, 64
1, 121844, Note_off_c, 0, 68, 64
1, 121872, Note_off_c, 0, 60, 64
1, 121984, Note_on_c, 0, 79, 49
1, 122016, Note_off_c, 0, 75, 64
1, 122136, Note_on_c, 0, 77, 51
1, 122148, Note_off_c, 0, 79, 64
1, 122264, Note_on_c, 0, 39, 47
1, 122276, Control_c, 0, 64, 0
1, 122284, Note_on_c, 0, 75, 59
1, 122320, Control_c, 0, 64, 127
1, 122332, Note_off_c, 0, 77, 64
1, 122412, Note_on_c, 0, 74, 50
1, 122428, Note_off_c, 0, 75, 64
1, 122544, Note_on_c, 0, 73, 62
1, 122556, Note_on_c, 0, 61, 39
1, 122560, Note_on_c, 0, 67, 25
1, 122568, Control_c, 0, 64, 0
1, 122576, Note_off_c, 0, 74, 64
1, 122620, Control_c, 0, 64, 127
1, 122668, Note_off_c, 0, 61, 64
1, 122676, Note_off_c, 0, 67, 64
1, 122720, Note_off_c, 0, 39, 64
1, 122852, Note_on_c, 0, 67, 28
1, 122872, Note_on_c, 0, 61, 27
1, 122968, Note_off_c, 0, 67, 64
1, 122972, Note_on_c, 0, 72, 51
1, 122988, Note_off_c, 0, 61, 64
1, 123020, Note_off_c, 0, 73, 64
1, 123064, Note_on_c, 0, 70, 62
1, 123080, Note_off_c, 0, 72, 64
1, 123124, Note_on_c, 0, 72, 58
1, 123156, Note_off_c, 0, 70, 64
1, 123176, Note_on_c, 0, 70, 58
1, 123188, Note_on_c, 0, 51, 42
1, 123196, Control_c, 0, 64, 0
1, 123208, Note_off_c, 0, 72, 64
1, 123252, Control_c, 0, 64, 127
1, 123332, Note_on_c, 0, 69, 49
1, 123344, Note_off_c, 0, 70, 64
1, 123468, Note_on_c, 0, 70, 62
1, 123480, Note_on_c, 0, 61, 47
1, 123500, Control_c, 0, 64, 0
1, 123508, Note_off_c, 0, 69, 64
1, 123528, Control_c, 0, 64, 127
1, 123604, Note_off_c, 0, 51, 64
1, 123616, Note_on_c, 0, 72, 50
1, 123656, Note_off_c, 0, 70, 64
1, 123756, Note_on_c, 0, 67, 49
1, 123760, Note_on_c, 0, 52, 48
1, 123784, Control_c, 0, 64, 0
1, 123804, Note_off_c, 0, 72, 64
1, 123844, Control_c, 0, 64, 127
1, 123852, Note_off_c, 0, 61, 64
1, 123988, Note_on_c, 0, 70, 42
1, 124020, Note_off_c, 0, 67, 64
1, 124040, Note_off_c, 0, 52, 64
1, 124044, Note_on_c, 0, 53, 51
1, 124048, Note_on_c, 0, 68, 51
1, 124084, Control_c, 0, 64, 0
1, 124096, Note_off_c, 0, 70, 64
1, 124160, Control_c, 0, 64, 127
1, 124208, Note_on_c, 0, 67, 43
1, 124212, Note_off_c, 0, 68, 64
1, 124324, Note_on_c, 0, 68, 58
1, 124324, Note_on_c, 0, 56, 39
1, 124332, Note_on_c, 0, 60, 40
1, 124340, Control_c, 0, 64, 0
1, 124364, Note_off_c, 0, 67, 64
1, 124400, Control_c, 0, 64, 127
1, 124440, Note_off_c, 0, 56, 64
1, 124448, Note_off_c, 0, 60, 64
1, 124628, Note_on_c, 0, 56, 39
1, 124632, Note_on_c, 0, 64, 50
1, 124632, Note_on_c, 0, 60, 37
1, 124648, Note_off_c, 0, 68, 64
1, 124680, Note_off_c, 0, 53, 64
1, 124744, Note_off_c, 0, 56, 64
1, 124748, Note_off_c, 0, 60, 64
1, 124956, Note_on_c, 0, 65, 50
1, 124964, Note_on_c, 0, 49, 50
1, 124984, Control_c, 0, 64, 0
1, 125004, Note_off_c, 0, 64, 64
1, 125032, Control_c, 0, 64, 127
1, 125148, Note_on_c, 0, 67, 51
1, 125172, Note_off_c, 0, 65, 64
1, 125244, Control_c, 0, 64, 0
1, 125252, Note_on_c, 0, 68, 59
1, 125268, Note_on_c, 0, 58, 21
1, 125276, Note_on_c, 0, 65, 21
1, 125280, Note_on_c, 0, 55, 33
1, 125300, Note_off_c, 0, 67, 64
1, 125300, Control_c, 0, 64, 127
1, 125384, Note_off_c, 0, 58, 64
1, 125388, Note_off_c, 0, 65, 64
1, 125396, Note_off_c, 0, 55, 64
1, 125536, Note_on_c, 0, 55, 33
1, 125548, Note_on_c, 0, 65, 20
1, 125548, Note_on_c, 0, 58, 28
1, 125548, Note_on_c, 0, 70, 54
1, 125572, Note_off_c, 0, 49, 64
1, 125588, Note_off_c, 0, 68, 64
1, 125652, Note_off_c, 0, 55, 64
1, 125660, Note_off_c, 0, 65, 64
1, 125660, Note_off_c, 0, 58, 64
1, 125852, Note_on_c, 0, 48, 46
1, 125860, Note_on_c, 0, 72, 52
1, 125864, Control_c, 0, 64, 0
1, 125888, Control_c, 0, 64, 127
1, 125896, Note_off_c, 0, 70, 64
1, 125896, Tempo, 500000
1, 126044, Note_on_c, 0, 73, 50
1, 126052, Note_off_c, 0, 72, 64
1, 126088, Note_off_c, 0, 48, 64
1, 126136, Note_on_c, 0, 64, 35
1, 126144, Note_on_c, 0, 72, 51
1, 126144, Note_on_c, 0, 58, 35
1, 126172, Control_c, 0, 64, 0
1, 126208, Note_off_c, 0, 73, 64
1, 126236, Control_c, 0, 64, 127
1, 126252, Note_off_c, 0, 64, 64
1, 126260, Note_off_c, 0, 58, 64
1, 126432, Note_on_c, 0, 58, 28
1, 126432, Note_on_c, 0, 64, 27
1, 126548, Note_off_c, 0, 58, 64
1, 126548, Note_off_c, 0, 64, 64
1, 126560, Note_on_c, 0, 67, 44
1, 126584, Note_off_c, 0, 72, 64
1, 126724, Note_on_c, 0, 65, 47
1, 126732, Note_off_c, 0, 67, 64
1, 126748, Note_on_c, 0, 67, 51
1, 126768, Note_off_c, 0, 65, 64
1, 126796, Note_on_c, 0, 49, 47
1, 126820, Note_on_c, 0, 65, 55
1, 126828, Control_c, 0, 64, 0
1, 126844, Note_off_c, 0, 67, 64
1, 126884, Control_c, 0, 64, 127
1, 126948, Note_on_c, 0, 64, 29
1, 126964, Note_off_c, 0, 65, 64
1, 127076, Control_c, 0, 64, 0
1, 127084, Note_on_c, 0, 65, 50
1, 127092, Note_on_c, 0, 58, 39
1, 127092, Note_on_c, 0, 55, 40
1, 127100, Note_off_c, 0, 49, 64
1, 127108, Note_off_c, 0, 64, 64
1, 127108, Control_c, 0, 64, 127
1, 127184, Note_off_c, 0, 55, 64
1, 127188, Note_off_c, 0, 58, 64
1, 127228, Note_on_c, 0, 67, 48
1, 127248, Note_off_c, 0, 65, 64
1, 127356, Note_on_c, 0, 55, 27
1, 127360, Note_on_c, 0, 58, 41
1, 127364, Note_on_c, 0, 68, 52
1, 127368, Note_on_c, 0, 65, 27
1, 127388, Note_off_c, 0, 67, 64
1, 127468, Note_off_c, 0, 55, 64
1, 127468, Note_off_c, 0, 58, 64
1, 127484, Note_off_c, 0, 65, 64
1, 127500, Note_on_c, 0, 70, 54
1, 127520, Note_off_c, 0, 68, 64
1, 127652, Note_on_c, 0, 72, 51
1, 127664, Note_on_c, 0, 48, 51
1, 127680, Note_off_c, 0, 70, 64
1, 127696, Control_c, 0, 64, 0
1, 127752, Control_c, 0, 64, 127
1, 127832, Note_on_c, 0, 75, 48
1, 127864, Note_off_c, 0, 72, 64
1, 127876, Note_on_c, 0, 73, 51
1, 127908, Note_off_c, 0, 48, 64
1, 127912, Note_off_c, 0, 75, 64
1, 127944, Note_on_c, 0, 55, 47
1, 127952, Note_on_c, 0, 64, 34
1, 127960, Note_on_c, 0, 72, 54
1, 127972, Control_c, 0, 64, 0
1, 127988, Note_off_c, 0, 73, 64
1, 128040, Control_c, 0, 64, 127
1, 128296, Note_on_c, 0, 48, 51
1, 128484, Note_on_c, 0, 71, 54
1, 128500, Note_off_c, 0, 72, 64
1, 128504, Note_off_c, 0, 55, 64
1, 128512, Note_off_c, 0, 64, 64
1, 128740, Note_on_c, 0, 49, 59
1, 128764, Note_on_c, 0, 70, 52
1, 128792, Note_off_c, 0, 48, 64
1, 128792, Control_c, 0, 64, 0
1, 128820, Note_off_c, 0, 71, 64
1, 128884, Control_c, 0, 64, 127
1, 128968, Note_on_c, 0, 72, 48
1, 128992, Note_off_c, 0, 70, 64
1, 129068, Note_on_c, 0, 70, 62
1, 129092, Note_off_c, 0, 72, 64
1, 129116, Control_c, 0, 64, 0
1, 129152, Note_on_c, 0, 63, 26
1, 129164, Note_on_c, 0, 55, 41
1, 129176, Note_on_c, 0, 69, 62
1, 129184, Control_c, 0, 64, 127
1, 129196, Note_off_c, 0, 70, 64
1, 129248, Note_off_c, 0, 49, 64
1, 129268, Note_off_c, 0, 63, 64
1, 129276, Note_on_c, 0, 70, 63
1, 129280, Note_off_c, 0, 55, 64
1, 129300, Note_off_c, 0, 69, 64
1, 129428, Note_on_c, 0, 72, 54
1, 129436, Note_on_c, 0, 63, 42
1, 129448, Note_on_c, 0, 55, 36
1, 129460, Note_off_c, 0, 70, 64
1, 129540, Note_on_c, 0, 73, 58
1, 129548, Note_off_c, 0, 63, 64
1, 129564, Note_off_c, 0, 55, 64
1, 129588, Note_off_c, 0, 72, 64
1, 129708, Note_on_c, 0, 77, 58
1, 129716, Note_on_c, 0, 48, 48
1, 129728, Control_c, 0, 64, 0
1, 129760, Note_off_c, 0, 73, 64
1, 129796, Control_c, 0, 64, 127
1, 129844, Note_on_c, 0, 75, 64
1, 129868, Note_off_c, 0, 77, 64
1, 130036, Note_on_c, 0, 80, 57
1, 130048, Note_on_c, 0, 56, 49
1, 130060, Note_on_c, 0, 63, 39
1, 130072, Note_off_c, 0, 75, 64
1, 130080, Note_off_c, 0, 48, 64
1, 130096, Control_c, 0, 64, 0
1, 130148, Control_c, 0, 64, 127
1, 130472, Note_on_c, 0, 53, 37
1, 130524, Note_off_c, 0, 56, 64
1, 130532, Note_off_c, 0, 63, 64
1, 130896, Note_on_c, 0, 69, 41
1, 130920, Note_on_c, 0, 51, 46
1, 130928, Control_c, 0, 64, 0
1, 130944, Note_off_c, 0, 53, 64
1, 130964, Note_off_c, 0, 80, 64
1, 130968, Control_c, 0, 64, 127
1, 131136, Note_on_c, 0, 70, 51
1, 131172, Note_off_c, 0, 69, 64
1, 131320, Note_on_c, 0, 68, 42
1, 131336, Note_on_c, 0, 62, 1
1, 131340, Note_on_c, 0, 58, 25
1, 131340, Note_on_c, 0, 79, 42
1, 131356, Control_c, 0, 64, 0
1, 131388, Note_off_c, 0, 70, 64
1, 131400, Control_c, 0, 64, 127
1, 131432, Note_off_c, 0, 51, 64
1, 131556, Note_on_c, 0, 77, 56
1, 131576, Note_off_c, 0, 79, 64
1, 131708, Note_off_c, 0, 58, 64
1, 131720, Note_off_c, 0, 68, 64
1, 131736, Note_off_c, 0, 62, 64
1, 131808, Note_on_c, 0, 67, 25
1, 131812, Note_on_c, 0, 75, 51
1, 131816, Note_on_c, 0, 58, 23
1, 131828, Note_on_c, 0, 61, 24
1, 131832, Note_off_c, 0, 77, 64
1, 131840, Control_c, 0, 64, 0
1, 131880, Control_c, 0, 64, 127
1, 132068, Note_off_c, 0, 61, 64
1, 132084, Note_off_c, 0, 67, 64
1, 132092, Note_off_c, 0, 58, 64
1, 132104, Note_on_c, 0, 63, 47
1, 132152, Note_off_c, 0, 75, 64
1, 132440, Note_on_c, 0, 73, 39
1, 132468, Note_on_c, 0, 44, 42
1, 132488, Note_off_c, 0, 63, 64
1, 132552, Control_c, 0, 64, 0
1, 132588, Control_c, 0, 64, 127
1, 132724, Note_on_c, 0, 72, 47
1, 132756, Note_off_c, 0, 73, 64
1, 133000, Note_off_c, 0, 44, 64
1, 133076, Note_on_c, 0, 51, 26
1, 133076, Note_on_c, 0, 68, 41
1, 133088, Note_on_c, 0, 60, 27
1, 133144, Note_off_c, 0, 72, 64
1, 133220, Control_c, 0, 64, 0
1, 133308, Control_c, 0, 64, 127
1, 134164, Control_c, 0, 64, 0
1, 134332, Note_off_c, 0, 51, 64
1, 134336, Note_off_c, 0, 60, 64
1, 134380, Note_off_c, 0, 68, 64
1, 134380, End_track
2, 0, Start_track
2, 1, Copyright_t, "__________________________________________________________\012\012KUNSTDERFUGE.COM GREAT CLASSICAL MIDI COLLECTION\012__________________________________________________________\012\012KUNST-DER-FUGE CONTRIBUTOR's PROPERTY\012Copyright by Contributor & Kunst der Fuge, © 2006\012\012Contributors' list: http://kunstderfuge.com/thanks.htm\012Terms and conditions: http://kunstderfuge.com/notes.htm\012__________________________________________________________\012\012NO WEBSITE MAY PUBLISH THIS FILE WITHOUT PERMISSION\012NO COMMERCIAL USE ALLOWED, NOR BY SALES NOR by eBay!\012PLEASE REPORT ANY ABUSE TO INFO@ONCLASSICAL.COM\012__________________________________________________________\012\012Thousands of free classical MIDI files at kunstderfuge.com"
2, 1, End_track
0, 0, End_of_file
