0, 0, Header, 0, 2, 384
1, 0, Start_track
1, 0, Title_t, "Chopin's Mazurkas (played by © Ron Lubetsky)"
1, 0, Time_signature, 4, 2, 96, 8
1, 0, Sequencer_specific, 3, 0, 0, 65
1, 0, Tempo, 500000
1, 456, Note_on_c, 0, 71, 49
1, 460, Note_on_c, 0, 68, 47
1, 464, Note_on_c, 0, 64, 49
1, 464, Note_on_c, 0, 52, 46
1, 476, Note_on_c, 0, 62, 32
1, 952, Note_off_c, 0, 71, 64
1, 956, Note_off_c, 0, 68, 64
1, 960, Note_off_c, 0, 64, 64
1, 960, Note_off_c, 0, 52, 64
1, 972, Note_off_c, 0, 62, 64
1, 988, Note_on_c, 0, 71, 55
1, 992, Note_on_c, 0, 52, 48
1, 1004, Note_on_c, 0, 64, 47
1, 1004, Note_on_c, 0, 62, 48
1, 1004, Note_on_c, 0, 68, 48
1, 1564, Note_off_c, 0, 62, 64
1, 1564, Note_off_c, 0, 64, 64
1, 1564, Note_off_c, 0, 68, 64
1, 1564, Note_on_c, 0, 72, 54
1, 1572, Note_on_c, 0, 68, 39
1, 1576, Note_off_c, 0, 52, 64
1, 1584, Note_off_c, 0, 71, 64
1, 1584, Note_on_c, 0, 64, 42
1, 1584, Note_on_c, 0, 62, 46
1, 1588, Note_on_c, 0, 52, 49
1, 2116, Note_on_c, 0, 71, 55
1, 2180, Note_off_c, 0, 72, 64
1, 2208, Note_off_c, 0, 71, 64
1, 2240, Note_off_c, 0, 64, 64
1, 2248, Note_off_c, 0, 68, 64
1, 2268, Note_off_c, 0, 62, 64
1, 2272, Note_off_c, 0, 52, 64
1, 2272, Note_on_c, 0, 71, 58
1, 2280, Note_on_c, 0, 60, 56
1, 2280, Note_on_c, 0, 64, 55
1, 2288, Note_on_c, 0, 52, 40
1, 2292, Note_on_c, 0, 45, 47
1, 2388, Control_c, 0, 64, 0
1, 2452, Control_c, 0, 64, 127
1, 2820, Note_on_c, 0, 69, 51
1, 2864, Note_off_c, 0, 71, 64
1, 3300, Note_on_c, 0, 68, 49
1, 3368, Note_off_c, 0, 69, 64
1, 3448, Note_on_c, 0, 69, 49
1, 3476, Control_c, 0, 64, 0
1, 3492, Note_off_c, 0, 68, 64
1, 3664, Control_c, 0, 64, 127
1, 4168, Note_off_c, 0, 69, 64
1, 4184, Note_off_c, 0, 60, 64
1, 4184, Note_off_c, 0, 64, 64
1, 4192, Note_off_c, 0, 52, 64
1, 4196, Note_off_c, 0, 45, 64
1, 4232, Note_on_c, 0, 63, 46
1, 4252, Note_on_c, 0, 66, 49
1, 4260, Note_on_c, 0, 47, 37
1, 4268, Note_on_c, 0, 57, 25
1, 4268, Note_on_c, 0, 59, 25
1, 4320, Control_c, 0, 64, 0
1, 4376, Control_c, 0, 64, 127
1, 4672, Note_off_c, 0, 66, 64
1, 4680, Note_off_c, 0, 63, 64
1, 4696, Note_off_c, 0, 47, 64
1, 4700, Note_off_c, 0, 59, 64
1, 4704, Note_off_c, 0, 57, 64
1, 4764, Note_on_c, 0, 63, 44
1, 4764, Note_on_c, 0, 59, 40
1, 4768, Note_on_c, 0, 66, 56
1, 4776, Note_on_c, 0, 57, 42
1, 4776, Note_on_c, 0, 47, 47
1, 5212, Note_off_c, 0, 63, 64
1, 5224, Note_off_c, 0, 57, 64
1, 5228, Note_off_c, 0, 47, 64
1, 5232, Note_off_c, 0, 59, 64
1, 5288, Note_on_c, 0, 63, 51
1, 5292, Note_on_c, 0, 67, 66
1, 5292, Note_on_c, 0, 59, 46
1, 5292, Note_on_c, 0, 57, 48
1, 5308, Note_off_c, 0, 66, 64
1, 5308, Note_on_c, 0, 47, 52
1, 5372, Control_c, 0, 64, 0
1, 5392, Control_c, 0, 64, 127
1, 5696, Note_on_c, 0, 66, 54
1, 5728, Note_off_c, 0, 63, 64
1, 5732, Note_off_c, 0, 59, 64
1, 5736, Note_off_c, 0, 67, 64
1, 5736, Note_off_c, 0, 57, 64
1, 5744, Note_off_c, 0, 47, 64
1, 5800, Note_off_c, 0, 66, 64
1, 5856, Note_on_c, 0, 57, 51
1, 5860, Note_on_c, 0, 60, 52
1, 5864, Note_on_c, 0, 66, 51
1, 5872, Note_on_c, 0, 40, 46
1, 5896, Note_on_c, 0, 52, 31
1, 5940, Control_c, 0, 64, 0
1, 5992, Control_c, 0, 64, 127
1, 6136, Note_on_c, 0, 64, 50
1, 6184, Note_off_c, 0, 66, 64
1, 6256, Note_off_c, 0, 57, 64
1, 6256, Note_off_c, 0, 60, 64
1, 6336, Note_off_c, 0, 64, 64
1, 6352, Note_on_c, 0, 66, 50
1, 6412, Note_on_c, 0, 59, 46
1, 6428, Note_on_c, 0, 55, 39
1, 6428, Note_on_c, 0, 64, 50
1, 6472, Note_off_c, 0, 66, 64
1, 6512, Control_c, 0, 64, 0
1, 6672, Note_on_c, 0, 63, 25
1, 6704, Note_off_c, 0, 64, 64
1, 6980, Note_on_c, 0, 64, 33
1, 6992, Note_off_c, 0, 63, 64
1, 7172, Control_c, 0, 64, 127
1, 7308, Note_off_c, 0, 40, 64
1, 7336, Note_off_c, 0, 52, 64
1, 7348, Note_off_c, 0, 59, 64
1, 7360, Note_off_c, 0, 64, 64
1, 7376, Note_off_c, 0, 55, 64
1, 7736, Note_on_c, 0, 62, 39
1, 7744, Note_on_c, 0, 68, 47
1, 7748, Note_on_c, 0, 71, 50
1, 7748, Note_on_c, 0, 64, 48
1, 7748, Note_on_c, 0, 52, 46
1, 7816, Control_c, 0, 64, 0
1, 7832, Control_c, 0, 64, 127
1, 8160, Note_off_c, 0, 62, 64
1, 8164, Note_off_c, 0, 68, 64
1, 8168, Note_off_c, 0, 64, 64
1, 8172, Note_off_c, 0, 71, 64
1, 8172, Note_off_c, 0, 52, 64
1, 8264, Note_on_c, 0, 62, 50
1, 8272, Note_on_c, 0, 64, 52
1, 8272, Note_on_c, 0, 71, 58
1, 8276, Note_on_c, 0, 52, 50
1, 8276, Note_on_c, 0, 68, 51
1, 8652, Note_off_c, 0, 64, 64
1, 8664, Note_off_c, 0, 68, 64
1, 8676, Note_off_c, 0, 62, 64
1, 8688, Note_off_c, 0, 52, 64
1, 8772, Note_on_c, 0, 64, 54
1, 8772, Note_on_c, 0, 68, 52
1, 8780, Note_on_c, 0, 52, 51
1, 8780, Note_on_c, 0, 72, 58
1, 8780, Note_on_c, 0, 62, 57
1, 8836, Note_off_c, 0, 71, 64
1, 9172, Note_on_c, 0, 71, 54
1, 9208, Note_off_c, 0, 72, 64
1, 9232, Note_off_c, 0, 64, 64
1, 9232, Note_off_c, 0, 68, 64
1, 9240, Note_off_c, 0, 52, 64
1, 9240, Note_off_c, 0, 62, 64
1, 9272, Note_off_c, 0, 71, 64
1, 9424, Note_on_c, 0, 64, 54
1, 9428, Note_on_c, 0, 76, 58
1, 9428, Note_on_c, 0, 68, 57
1, 9428, Note_on_c, 0, 62, 51
1, 9444, Note_on_c, 0, 52, 54
1, 9444, Note_on_c, 0, 45, 51
1, 9536, Control_c, 0, 64, 0
1, 9592, Control_c, 0, 64, 127
1, 9752, Note_on_c, 0, 71, 58
1, 9800, Note_off_c, 0, 76, 64
1, 9832, Note_off_c, 0, 64, 64
1, 9836, Note_off_c, 0, 68, 64
1, 9836, Note_off_c, 0, 62, 64
1, 9932, Note_off_c, 0, 71, 64
1, 9948, Note_on_c, 0, 69, 64
1, 9992, Note_on_c, 0, 71, 62
1, 10016, Note_off_c, 0, 69, 64
1, 10064, Note_on_c, 0, 69, 56
1, 10076, Note_on_c, 0, 60, 41
1, 10080, Note_off_c, 0, 71, 64
1, 10100, Control_c, 0, 64, 0
1, 10200, Control_c, 0, 64, 127
1, 10324, Note_on_c, 0, 68, 58
1, 10336, Note_off_c, 0, 69, 64
1, 10564, Note_on_c, 0, 69, 58
1, 10584, Control_c, 0, 64, 0
1, 10604, Note_off_c, 0, 68, 64
1, 10768, Control_c, 0, 64, 127
1, 10964, Note_off_c, 0, 45, 64
1, 10964, Note_off_c, 0, 52, 64
1, 11132, Note_on_c, 0, 72, 49
1, 11168, Note_off_c, 0, 69, 64
1, 11372, Note_on_c, 0, 55, 43
1, 11376, Note_on_c, 0, 67, 48
1, 11408, Note_off_c, 0, 60, 64
1, 11440, Note_off_c, 0, 72, 64
1, 11552, Control_c, 0, 64, 0
1, 11616, Note_on_c, 0, 53, 33
1, 11632, Note_on_c, 0, 65, 47
1, 11648, Note_off_c, 0, 55, 64
1, 11664, Note_off_c, 0, 67, 64
1, 11856, Control_c, 0, 64, 127
1, 12128, Note_off_c, 0, 65, 64
1, 12132, Note_on_c, 0, 52, 43
1, 12136, Note_on_c, 0, 64, 40
1, 12172, Control_c, 0, 64, 0
1, 12184, Note_off_c, 0, 53, 64
1, 12536, Note_on_c, 0, 67, 49
1, 12536, Note_on_c, 0, 55, 34
1, 12552, Note_off_c, 0, 64, 64
1, 12568, Note_off_c, 0, 52, 64
1, 12632, Note_on_c, 0, 64, 49
1, 12640, Note_on_c, 0, 52, 49
1, 12668, Note_off_c, 0, 67, 64
1, 12668, Note_off_c, 0, 55, 64
1, 12724, Control_c, 0, 64, 127
1, 13284, Note_on_c, 0, 55, 26
1, 13292, Note_on_c, 0, 47, 25
1, 13296, Note_on_c, 0, 59, 41
1, 13296, Note_on_c, 0, 40, 34
1, 13440, Control_c, 0, 64, 0
1, 13492, Control_c, 0, 64, 127
1, 13808, Note_off_c, 0, 64, 64
1, 14192, Note_on_c, 0, 71, 47
1, 14376, Note_off_c, 0, 55, 64
1, 14380, Note_off_c, 0, 47, 64
1, 14384, Note_off_c, 0, 59, 64
1, 14388, Note_off_c, 0, 40, 64
1, 14488, Note_off_c, 0, 52, 64
1, 14596, Note_off_c, 0, 71, 64
1, 14700, Note_on_c, 0, 71, 54
1, 15204, Note_off_c, 0, 71, 64
1, 15268, Note_on_c, 0, 71, 55
1, 15276, Note_on_c, 0, 62, 42
1, 15276, Note_on_c, 0, 64, 48
1, 15276, Note_on_c, 0, 68, 47
1, 15284, Note_on_c, 0, 52, 39
1, 15352, Control_c, 0, 64, 0
1, 15400, Control_c, 0, 64, 127
1, 15844, Note_off_c, 0, 64, 64
1, 15860, Note_off_c, 0, 68, 64
1, 15868, Note_off_c, 0, 62, 64
1, 15900, Note_off_c, 0, 52, 64
1, 15916, Note_on_c, 0, 68, 51
1, 15916, Note_on_c, 0, 64, 52
1, 15916, Note_on_c, 0, 72, 59
1, 15928, Note_on_c, 0, 52, 50
1, 15928, Note_on_c, 0, 62, 51
1, 15940, Note_off_c, 0, 71, 64
1, 16476, Note_on_c, 0, 71, 55
1, 16500, Note_off_c, 0, 52, 64
1, 16500, Note_off_c, 0, 62, 64
1, 16516, Note_off_c, 0, 64, 64
1, 16524, Note_off_c, 0, 68, 64
1, 16536, Note_off_c, 0, 72, 64
1, 16560, Note_off_c, 0, 71, 64
1, 16616, Note_on_c, 0, 71, 62
1, 16624, Note_on_c, 0, 60, 47
1, 16624, Note_on_c, 0, 52, 49
1, 16628, Note_on_c, 0, 64, 58
1, 16636, Note_on_c, 0, 45, 42
1, 16704, Control_c, 0, 64, 0
1, 16796, Control_c, 0, 64, 127
1, 17136, Note_on_c, 0, 69, 49
1, 17176, Note_off_c, 0, 71, 64
1, 17192, Control_c, 0, 64, 0
1, 17228, Control_c, 0, 64, 127
1, 17520, Note_on_c, 0, 68, 57
1, 17560, Note_off_c, 0, 69, 64
1, 17640, Note_on_c, 0, 69, 52
1, 17676, Note_off_c, 0, 68, 64
1, 17712, Control_c, 0, 64, 0
1, 17784, Control_c, 0, 64, 127
1, 18056, Note_off_c, 0, 52, 64
1, 18056, Note_off_c, 0, 60, 64
1, 18056, Note_off_c, 0, 64, 64
1, 18064, Note_off_c, 0, 45, 64
1, 18176, Note_on_c, 0, 47, 48
1, 18176, Note_on_c, 0, 59, 26
1, 18176, Note_on_c, 0, 66, 52
1, 18180, Note_on_c, 0, 57, 25
1, 18180, Note_on_c, 0, 63, 51
1, 18220, Note_off_c, 0, 69, 64
1, 18248, Control_c, 0, 64, 0
1, 18316, Control_c, 0, 64, 127
1, 18568, Note_off_c, 0, 59, 64
1, 18584, Note_off_c, 0, 63, 64
1, 18584, Note_off_c, 0, 66, 64
1, 18592, Note_off_c, 0, 57, 64
1, 18620, Note_off_c, 0, 47, 64
1, 18660, Note_on_c, 0, 66, 55
1, 18660, Note_on_c, 0, 59, 46
1, 18668, Note_on_c, 0, 63, 49
1, 18676, Note_on_c, 0, 57, 48
1, 18680, Note_on_c, 0, 47, 51
1, 18736, Control_c, 0, 64, 0
1, 18792, Control_c, 0, 64, 127
1, 19048, Note_off_c, 0, 63, 64
1, 19056, Note_off_c, 0, 59, 64
1, 19060, Note_off_c, 0, 57, 64
1, 19104, Note_off_c, 0, 47, 64
1, 19140, Note_on_c, 0, 59, 46
1, 19140, Note_on_c, 0, 63, 51
1, 19144, Note_on_c, 0, 67, 58
1, 19152, Note_on_c, 0, 57, 50
1, 19160, Note_on_c, 0, 47, 49
1, 19184, Note_off_c, 0, 66, 64
1, 19204, Control_c, 0, 64, 0
1, 19240, Control_c, 0, 64, 127
1, 19468, Note_off_c, 0, 63, 64
1, 19476, Note_off_c, 0, 59, 64
1, 19488, Note_off_c, 0, 57, 64
1, 19508, Note_on_c, 0, 66, 54
1, 19536, Note_off_c, 0, 67, 64
1, 19604, Note_off_c, 0, 66, 64
1, 19612, Note_off_c, 0, 47, 64
1, 19672, Note_on_c, 0, 66, 48
1, 19680, Note_on_c, 0, 57, 52
1, 19680, Note_on_c, 0, 60, 54
1, 19704, Note_on_c, 0, 40, 46
1, 19720, Note_on_c, 0, 52, 35
1, 19748, Control_c, 0, 64, 0
1, 19816, Control_c, 0, 64, 127
1, 19992, Note_off_c, 0, 66, 64
1, 20000, Note_on_c, 0, 64, 46
1, 20164, Note_off_c, 0, 64, 64
1, 20168, Note_off_c, 0, 57, 64
1, 20168, Note_off_c, 0, 60, 64
1, 20208, Note_on_c, 0, 66, 48
1, 20280, Note_on_c, 0, 64, 50
1, 20280, Note_on_c, 0, 59, 41
1, 20296, Note_on_c, 0, 55, 32
1, 20336, Control_c, 0, 64, 0
1, 20344, Note_off_c, 0, 66, 64
1, 20524, Note_on_c, 0, 63, 47
1, 20592, Note_off_c, 0, 64, 64
1, 20728, Note_on_c, 0, 64, 52
1, 20760, Note_off_c, 0, 63, 64
1, 20916, Note_on_c, 0, 67, 52
1, 20964, Note_off_c, 0, 64, 64
1, 21168, Note_on_c, 0, 71, 54
1, 21208, Note_off_c, 0, 67, 64
1, 21240, Control_c, 0, 64, 127
1, 21368, Note_off_c, 0, 40, 64
1, 21384, Note_off_c, 0, 52, 64
1, 21404, Note_off_c, 0, 59, 64
1, 21432, Note_off_c, 0, 55, 64
1, 21616, Note_off_c, 0, 71, 64
1, 21708, Note_on_c, 0, 52, 51
1, 21720, Note_on_c, 0, 68, 49
1, 21724, Note_on_c, 0, 64, 50
1, 21724, Note_on_c, 0, 71, 58
1, 21740, Note_on_c, 0, 62, 49
1, 21776, Control_c, 0, 64, 0
1, 21824, Control_c, 0, 64, 127
1, 22200, Note_off_c, 0, 52, 64
1, 22260, Note_off_c, 0, 64, 64
1, 22272, Note_off_c, 0, 62, 64
1, 22288, Note_off_c, 0, 68, 64
1, 22360, Note_on_c, 0, 68, 48
1, 22360, Note_on_c, 0, 64, 51
1, 22368, Note_on_c, 0, 62, 51
1, 22368, Note_on_c, 0, 72, 58
1, 22376, Note_on_c, 0, 52, 48
1, 22412, Note_off_c, 0, 71, 64
1, 22428, Control_c, 0, 64, 0
1, 22448, Control_c, 0, 64, 127
1, 22848, Note_on_c, 0, 71, 51
1, 22868, Note_off_c, 0, 72, 64
1, 22900, Note_off_c, 0, 68, 64
1, 22900, Note_off_c, 0, 64, 64
1, 22908, Note_off_c, 0, 62, 64
1, 22916, Note_off_c, 0, 52, 64
1, 23016, Note_off_c, 0, 71, 64
1, 23120, Note_on_c, 0, 64, 32
1, 23132, Note_on_c, 0, 52, 44
1, 23132, Note_on_c, 0, 45, 41
1, 23136, Note_on_c, 0, 62, 32
1, 23144, Note_on_c, 0, 76, 63
1, 23144, Note_on_c, 0, 68, 46
1, 23232, Control_c, 0, 64, 0
1, 23296, Control_c, 0, 64, 127
1, 23472, Note_on_c, 0, 71, 56
1, 23496, Note_off_c, 0, 68, 64
1, 23500, Note_off_c, 0, 76, 64
1, 23548, Note_off_c, 0, 64, 64
1, 23560, Note_off_c, 0, 62, 64
1, 23632, Note_off_c, 0, 71, 64
1, 23664, Note_on_c, 0, 69, 62
1, 23704, Note_on_c, 0, 71, 48
1, 23732, Note_off_c, 0, 69, 64
1, 23784, Note_on_c, 0, 69, 56
1, 23788, Note_on_c, 0, 60, 31
1, 23800, Note_off_c, 0, 71, 64
1, 23812, Control_c, 0, 64, 0
1, 24028, Note_on_c, 0, 68, 58
1, 24040, Note_off_c, 0, 69, 64
1, 24060, Control_c, 0, 64, 127
1, 24264, Note_on_c, 0, 69, 55
1, 24272, Note_off_c, 0, 68, 64
1, 24324, Control_c, 0, 64, 0
1, 24472, Control_c, 0, 64, 127
1, 24768, Note_on_c, 0, 72, 50
1, 24804, Note_off_c, 0, 69, 64
1, 24904, Note_off_c, 0, 45, 64
1, 24904, Note_off_c, 0, 52, 64
1, 25008, Note_on_c, 0, 55, 42
1, 25008, Note_on_c, 0, 67, 49
1, 25028, Note_off_c, 0, 72, 64
1, 25060, Note_off_c, 0, 60, 64
1, 25092, Control_c, 0, 64, 0
1, 25288, Note_on_c, 0, 53, 46
1, 25300, Note_on_c, 0, 65, 46
1, 25304, Note_off_c, 0, 67, 64
1, 25312, Note_off_c, 0, 55, 64
1, 25432, Control_c, 0, 64, 127
1, 25796, Note_on_c, 0, 52, 40
1, 25800, Note_on_c, 0, 64, 44
1, 25840, Note_off_c, 0, 53, 64
1, 25840, Note_off_c, 0, 65, 64
1, 26204, Control_c, 0, 64, 0
1, 26220, Note_on_c, 0, 55, 37
1, 26224, Note_on_c, 0, 67, 43
1, 26228, Note_off_c, 0, 64, 64
1, 26236, Note_off_c, 0, 52, 64
1, 26328, Note_on_c, 0, 64, 44
1, 26336, Note_on_c, 0, 52, 41
1, 26364, Note_off_c, 0, 55, 64
1, 26368, Note_off_c, 0, 67, 64
1, 26452, Control_c, 0, 64, 127
1, 26936, Note_on_c, 0, 47, 31
1, 26940, Note_on_c, 0, 59, 39
1, 26940, Note_on_c, 0, 55, 31
1, 26940, Note_on_c, 0, 40, 26
1, 27428, Note_off_c, 0, 47, 64
1, 27432, Note_off_c, 0, 59, 64
1, 27432, Note_off_c, 0, 55, 64
1, 27432, Note_off_c, 0, 40, 64
1, 27600, Note_on_c, 0, 40, 23
1, 27604, Note_on_c, 0, 47, 20
1, 27608, Note_on_c, 0, 55, 21
1, 27608, Note_on_c, 0, 59, 25
1, 28376, Note_off_c, 0, 40, 64
1, 28384, Note_off_c, 0, 55, 64
1, 28384, Note_off_c, 0, 59, 64
1, 28384, Note_on_c, 0, 63, 54
1, 28392, Note_off_c, 0, 64, 64
1, 28400, Note_off_c, 0, 52, 64
1, 28416, Note_on_c, 0, 35, 29
1, 28448, Control_c, 0, 64, 0
1, 28516, Control_c, 0, 64, 127
1, 28656, Note_off_c, 0, 47, 64
1, 28896, Note_on_c, 0, 54, 41
1, 28904, Note_on_c, 0, 59, 33
1, 28916, Note_on_c, 0, 47, 42
1, 29160, Note_off_c, 0, 35, 64
1, 29176, Note_off_c, 0, 54, 64
1, 29184, Note_off_c, 0, 59, 64
1, 29196, Note_off_c, 0, 47, 64
1, 29328, Note_on_c, 0, 54, 32
1, 29336, Note_on_c, 0, 61, 49
1, 29336, Note_on_c, 0, 47, 31
1, 29336, Note_on_c, 0, 64, 52
1, 29344, Note_on_c, 0, 59, 25
1, 29400, Note_off_c, 0, 63, 64
1, 29416, Control_c, 0, 64, 0
1, 29484, Control_c, 0, 64, 127
1, 29728, Note_on_c, 0, 63, 55
1, 29732, Note_on_c, 0, 66, 54
1, 29776, Note_off_c, 0, 61, 64
1, 29776, Note_off_c, 0, 64, 64
1, 29848, Note_off_c, 0, 47, 64
1, 29872, Note_off_c, 0, 54, 64
1, 29896, Note_off_c, 0, 59, 64
1, 30056, Note_off_c, 0, 63, 64
1, 30056, Note_off_c, 0, 66, 64
1, 30104, Note_on_c, 0, 75, 64
1, 30112, Note_on_c, 0, 54, 39
1, 30120, Note_on_c, 0, 59, 42
1, 30124, Note_on_c, 0, 47, 39
1, 30132, Note_on_c, 0, 66, 39
1, 30132, Note_on_c, 0, 63, 51
1, 30180, Control_c, 0, 64, 0
1, 30232, Control_c, 0, 64, 127
1, 30408, Note_off_c, 0, 47, 64
1, 30420, Note_off_c, 0, 66, 64
1, 30420, Note_off_c, 0, 63, 64
1, 30424, Note_off_c, 0, 54, 64
1, 30432, Note_off_c, 0, 59, 64
1, 30500, Note_on_c, 0, 63, 51
1, 30500, Note_on_c, 0, 66, 51
1, 30504, Note_on_c, 0, 54, 39
1, 30516, Note_on_c, 0, 47, 48
1, 30516, Note_on_c, 0, 59, 47
1, 30796, Note_off_c, 0, 75, 64
1, 30852, Note_on_c, 0, 75, 71
1, 30904, Note_off_c, 0, 75, 64
1, 30944, Note_on_c, 0, 75, 71
1, 31196, Note_off_c, 0, 63, 64
1, 31196, Note_off_c, 0, 66, 64
1, 31216, Note_off_c, 0, 47, 64
1, 31216, Note_off_c, 0, 59, 64
1, 31264, Note_off_c, 0, 54, 64
1, 31288, Note_on_c, 0, 47, 47
1, 31296, Note_on_c, 0, 64, 52
1, 31296, Note_on_c, 0, 68, 58
1, 31300, Note_on_c, 0, 61, 34
1, 31304, Note_on_c, 0, 54, 40
1, 31348, Control_c, 0, 64, 0
1, 31372, Control_c, 0, 64, 127
1, 31580, Note_off_c, 0, 75, 64
1, 31620, Note_off_c, 0, 47, 64
1, 31628, Note_off_c, 0, 64, 64
1, 31636, Note_off_c, 0, 61, 64
1, 31640, Note_off_c, 0, 54, 64
1, 31668, Note_on_c, 0, 75, 67
1, 31680, Note_off_c, 0, 68, 64
1, 31680, Note_on_c, 0, 70, 55
1, 31680, Note_on_c, 0, 64, 52
1, 31680, Note_on_c, 0, 61, 43
1, 31684, Note_on_c, 0, 47, 37
1, 31696, Note_on_c, 0, 54, 39
1, 31708, Note_on_c, 0, 47, 47
1, 31724, Control_c, 0, 64, 0
1, 31792, Control_c, 0, 64, 127
1, 31888, Note_off_c, 0, 47, 64
1, 31956, Note_off_c, 0, 75, 64
1, 32028, Note_on_c, 0, 75, 73
1, 32112, Note_off_c, 0, 47, 64
1, 32124, Note_off_c, 0, 54, 64
1, 32136, Note_off_c, 0, 70, 64
1, 32140, Note_off_c, 0, 64, 64
1, 32140, Note_off_c, 0, 61, 64
1, 32364, Note_on_c, 0, 47, 46
1, 32364, Note_on_c, 0, 61, 46
1, 32368, Note_on_c, 0, 68, 58
1, 32368, Note_on_c, 0, 64, 57
1, 32368, Note_on_c, 0, 54, 43
1, 32396, Control_c, 0, 64, 0
1, 32432, Control_c, 0, 64, 127
1, 32656, Note_off_c, 0, 75, 64
1, 32656, Note_off_c, 0, 47, 64
1, 32664, Note_off_c, 0, 54, 64
1, 32680, Note_off_c, 0, 61, 64
1, 32696, Note_off_c, 0, 64, 64
1, 32752, Note_on_c, 0, 75, 64
1, 32752, Note_on_c, 0, 47, 48
1, 32768, Note_on_c, 0, 61, 48
1, 32768, Note_on_c, 0, 70, 51
1, 32772, Note_on_c, 0, 54, 44
1, 32772, Note_on_c, 0, 64, 52
1, 32780, Note_off_c, 0, 68, 64
1, 32804, Note_on_c, 0, 47, 47
1, 33004, Note_off_c, 0, 47, 64
1, 33012, Note_off_c, 0, 54, 64
1, 33016, Note_off_c, 0, 75, 64
1, 33040, Note_off_c, 0, 70, 64
1, 33048, Note_off_c, 0, 64, 64
1, 33064, Note_off_c, 0, 61, 64
1, 33076, Note_off_c, 0, 47, 64
1, 33184, Note_on_c, 0, 75, 57
1, 33200, Note_on_c, 0, 63, 55
1, 33212, Note_on_c, 0, 35, 54
1, 33212, Note_on_c, 0, 71, 48
1, 33244, Control_c, 0, 64, 0
1, 33296, Control_c, 0, 64, 127
1, 33472, Note_off_c, 0, 75, 64
1, 33488, Note_off_c, 0, 63, 64
1, 33500, Note_off_c, 0, 71, 64
1, 33640, Note_on_c, 0, 47, 46
1, 33656, Note_on_c, 0, 59, 51
1, 33660, Note_on_c, 0, 54, 33
1, 33660, Note_on_c, 0, 63, 51
1, 33792, Note_off_c, 0, 35, 64
1, 33836, Note_off_c, 0, 59, 64
1, 33836, Note_on_c, 0, 61, 59
1, 33840, Note_off_c, 0, 63, 64
1, 33844, Note_on_c, 0, 64, 51
1, 34004, Note_on_c, 0, 66, 51
1, 34008, Note_on_c, 0, 70, 59
1, 34024, Control_c, 0, 64, 0
1, 34036, Note_off_c, 0, 61, 64
1, 34048, Note_off_c, 0, 64, 64
1, 34080, Control_c, 0, 64, 127
1, 34140, Note_on_c, 0, 64, 54
1, 34152, Note_off_c, 0, 66, 64
1, 34152, Note_on_c, 0, 68, 56
1, 34156, Note_off_c, 0, 70, 64
1, 34312, Note_on_c, 0, 66, 54
1, 34316, Note_on_c, 0, 63, 62
1, 34324, Note_off_c, 0, 68, 64
1, 34328, Note_off_c, 0, 64, 64
1, 34368, Control_c, 0, 64, 0
1, 34404, Control_c, 0, 64, 127
1, 34476, Note_off_c, 0, 47, 64
1, 34512, Note_off_c, 0, 54, 64
1, 34644, Note_off_c, 0, 66, 64
1, 34644, Note_off_c, 0, 63, 64
1, 34672, Note_on_c, 0, 59, 39
1, 34692, Note_on_c, 0, 75, 62
1, 34692, Note_on_c, 0, 63, 54
1, 34700, Note_on_c, 0, 47, 48
1, 34708, Note_on_c, 0, 54, 33
1, 34716, Note_on_c, 0, 66, 51
1, 34760, Control_c, 0, 64, 0
1, 34832, Control_c, 0, 64, 127
1, 34932, Note_off_c, 0, 59, 64
1, 34952, Note_off_c, 0, 63, 64
1, 34972, Note_off_c, 0, 66, 64
1, 34976, Note_off_c, 0, 47, 64
1, 35000, Note_off_c, 0, 54, 64
1, 35064, Note_on_c, 0, 66, 51
1, 35076, Note_on_c, 0, 54, 34
1, 35076, Note_on_c, 0, 63, 54
1, 35080, Note_on_c, 0, 59, 33
1, 35088, Note_on_c, 0, 47, 35
1, 35264, Note_off_c, 0, 75, 64
1, 35340, Note_on_c, 0, 75, 64
1, 35400, Note_off_c, 0, 75, 64
1, 35428, Note_on_c, 0, 75, 64
1, 35476, Control_c, 0, 64, 0
1, 35512, Control_c, 0, 64, 127
1, 35680, Note_off_c, 0, 66, 64
1, 35692, Note_off_c, 0, 54, 64
1, 35692, Note_off_c, 0, 63, 64
1, 35696, Note_off_c, 0, 59, 64
1, 35704, Note_off_c, 0, 47, 64
1, 35776, Note_on_c, 0, 68, 50
1, 35784, Note_on_c, 0, 58, 42
1, 35784, Note_on_c, 0, 65, 44
1, 35784, Note_on_c, 0, 51, 46
1, 35836, Control_c, 0, 64, 0
1, 35852, Control_c, 0, 64, 127
1, 36072, Note_off_c, 0, 51, 64
1, 36088, Note_off_c, 0, 75, 64
1, 36096, Note_off_c, 0, 58, 64
1, 36168, Note_on_c, 0, 66, 47
1, 36176, Note_on_c, 0, 75, 50
1, 36180, Note_on_c, 0, 58, 33
1, 36180, Note_on_c, 0, 51, 29
1, 36192, Note_on_c, 0, 70, 39
1, 36204, Note_off_c, 0, 68, 64
1, 36208, Note_off_c, 0, 65, 64
1, 36224, Control_c, 0, 64, 0
1, 36284, Control_c, 0, 64, 127
1, 36428, Note_off_c, 0, 75, 64
1, 36528, Note_on_c, 0, 75, 71
1, 36736, Note_off_c, 0, 51, 64
1, 36748, Note_off_c, 0, 58, 64
1, 36768, Note_off_c, 0, 66, 64
1, 36788, Note_off_c, 0, 70, 64
1, 36828, Note_on_c, 0, 68, 57
1, 36832, Note_on_c, 0, 58, 49
1, 36840, Note_on_c, 0, 51, 49
1, 36840, Note_on_c, 0, 65, 51
1, 37104, Note_off_c, 0, 58, 64
1, 37112, Note_off_c, 0, 51, 64
1, 37160, Note_off_c, 0, 75, 64
1, 37184, Note_on_c, 0, 66, 56
1, 37184, Note_on_c, 0, 58, 49
1, 37192, Note_off_c, 0, 68, 64
1, 37192, Note_on_c, 0, 51, 46
1, 37200, Note_on_c, 0, 70, 51
1, 37200, Note_on_c, 0, 75, 58
1, 37208, Note_off_c, 0, 65, 64
1, 37508, Note_off_c, 0, 51, 64
1, 37532, Note_off_c, 0, 58, 64
1, 37536, Note_off_c, 0, 75, 64
1, 37564, Note_on_c, 0, 75, 59
1, 37568, Note_on_c, 0, 35, 54
1, 37580, Note_on_c, 0, 71, 56
1, 37596, Control_c, 0, 64, 0
1, 37616, Note_off_c, 0, 70, 64
1, 37644, Control_c, 0, 64, 127
1, 37772, Note_off_c, 0, 66, 64
1, 37952, Note_on_c, 0, 63, 57
1, 37960, Note_on_c, 0, 47, 43
1, 37960, Note_on_c, 0, 54, 40
1, 37968, Note_on_c, 0, 59, 58
1, 38052, Note_off_c, 0, 75, 64
1, 38064, Note_off_c, 0, 71, 64
1, 38196, Note_off_c, 0, 35, 64
1, 38260, Note_on_c, 0, 61, 55
1, 38260, Note_on_c, 0, 64, 54
1, 38272, Note_off_c, 0, 63, 64
1, 38288, Note_off_c, 0, 59, 64
1, 38304, Control_c, 0, 64, 0
1, 38380, Control_c, 0, 64, 127
1, 38532, Note_on_c, 0, 63, 62
1, 38564, Note_on_c, 0, 66, 55
1, 38584, Note_off_c, 0, 61, 64
1, 38584, Note_off_c, 0, 64, 64
1, 38600, Control_c, 0, 64, 0
1, 38636, Control_c, 0, 64, 127
1, 38696, Note_off_c, 0, 47, 64
1, 38736, Note_off_c, 0, 54, 64
1, 38816, Note_off_c, 0, 63, 64
1, 38824, Note_off_c, 0, 66, 64
1, 38896, Note_on_c, 0, 54, 50
1, 38900, Note_on_c, 0, 75, 62
1, 38904, Note_on_c, 0, 59, 50
1, 38912, Note_on_c, 0, 66, 51
1, 38912, Note_on_c, 0, 47, 49
1, 38916, Note_on_c, 0, 63, 62
1, 38936, Control_c, 0, 64, 0
1, 39012, Control_c, 0, 64, 127
1, 39152, Note_off_c, 0, 47, 64
1, 39184, Note_off_c, 0, 54, 64
1, 39188, Note_off_c, 0, 59, 64
1, 39196, Note_off_c, 0, 66, 64
1, 39200, Note_off_c, 0, 63, 64
1, 39272, Note_on_c, 0, 66, 54
1, 39276, Note_on_c, 0, 63, 59
1, 39288, Note_on_c, 0, 54, 34
1, 39292, Note_on_c, 0, 59, 46
1, 39292, Note_on_c, 0, 47, 49
1, 39292, Control_c, 0, 64, 0
1, 39336, Control_c, 0, 64, 127
1, 39504, Note_off_c, 0, 75, 64
1, 39544, Note_on_c, 0, 75, 64
1, 39600, Note_off_c, 0, 75, 64
1, 39636, Note_on_c, 0, 75, 71
1, 39856, Note_off_c, 0, 63, 64
1, 39856, Note_off_c, 0, 47, 64
1, 39872, Note_off_c, 0, 66, 64
1, 39892, Note_off_c, 0, 54, 64
1, 39900, Note_off_c, 0, 59, 64
1, 39952, Note_on_c, 0, 68, 51
1, 39952, Note_on_c, 0, 64, 51
1, 39952, Note_on_c, 0, 47, 47
1, 39960, Note_on_c, 0, 61, 47
1, 39960, Note_on_c, 0, 54, 42
1, 40016, Control_c, 0, 64, 0
1, 40036, Control_c, 0, 64, 127
1, 40240, Note_off_c, 0, 47, 64
1, 40252, Note_off_c, 0, 75, 64
1, 40256, Note_off_c, 0, 61, 64
1, 40260, Note_off_c, 0, 54, 64
1, 40268, Note_off_c, 0, 64, 64
1, 40300, Note_on_c, 0, 64, 58
1, 40300, Note_on_c, 0, 70, 51
1, 40308, Note_on_c, 0, 47, 39
1, 40308, Note_on_c, 0, 61, 37
1, 40316, Note_on_c, 0, 75, 73
1, 40320, Note_on_c, 0, 54, 41
1, 40332, Note_off_c, 0, 68, 64
1, 40352, Control_c, 0, 64, 0
1, 40420, Control_c, 0, 64, 127
1, 40588, Note_off_c, 0, 75, 64
1, 40632, Note_on_c, 0, 75, 78
1, 40724, Note_off_c, 0, 64, 64
1, 40724, Note_off_c, 0, 70, 64
1, 40724, Note_off_c, 0, 47, 64
1, 40728, Note_off_c, 0, 54, 64
1, 40732, Note_off_c, 0, 61, 64
1, 40912, Note_on_c, 0, 64, 58
1, 40912, Note_on_c, 0, 47, 49
1, 40920, Note_on_c, 0, 68, 54
1, 40928, Note_on_c, 0, 61, 49
1, 40932, Note_on_c, 0, 54, 49
1, 40964, Control_c, 0, 64, 0
1, 41004, Control_c, 0, 64, 127
1, 41160, Note_off_c, 0, 47, 64
1, 41176, Note_off_c, 0, 64, 64
1, 41184, Note_off_c, 0, 54, 64
1, 41200, Note_off_c, 0, 61, 64
1, 41216, Note_off_c, 0, 75, 64
1, 41248, Note_on_c, 0, 75, 59
1, 41260, Note_on_c, 0, 64, 58
1, 41268, Note_on_c, 0, 70, 56
1, 41272, Note_on_c, 0, 47, 47
1, 41280, Note_on_c, 0, 61, 35
1, 41284, Note_on_c, 0, 54, 46
1, 41288, Note_off_c, 0, 68, 64
1, 41560, Note_off_c, 0, 64, 64
1, 41572, Note_off_c, 0, 47, 64
1, 41576, Note_off_c, 0, 75, 64
1, 41584, Note_off_c, 0, 54, 64
1, 41584, Note_off_c, 0, 61, 64
1, 41624, Note_on_c, 0, 63, 46
1, 41640, Note_on_c, 0, 75, 62
1, 41648, Note_on_c, 0, 35, 50
1, 41656, Note_on_c, 0, 71, 55
1, 41672, Control_c, 0, 64, 0
1, 41676, Note_off_c, 0, 70, 64
1, 41740, Control_c, 0, 64, 127
1, 41948, Note_off_c, 0, 63, 64
1, 41968, Note_off_c, 0, 75, 64
1, 41980, Note_off_c, 0, 71, 64
1, 42036, Note_on_c, 0, 63, 56
1, 42048, Note_on_c, 0, 47, 39
1, 42048, Note_on_c, 0, 59, 57
1, 42060, Note_on_c, 0, 54, 35
1, 42208, Note_off_c, 0, 35, 64
1, 42208, Note_on_c, 0, 61, 57
1, 42228, Note_on_c, 0, 64, 41
1, 42236, Note_off_c, 0, 63, 64
1, 42244, Note_off_c, 0, 59, 64
1, 42368, Note_on_c, 0, 66, 54
1, 42376, Note_on_c, 0, 70, 57
1, 42380, Note_off_c, 0, 61, 64
1, 42400, Note_off_c, 0, 64, 64
1, 42428, Control_c, 0, 64, 0
1, 42468, Control_c, 0, 64, 127
1, 42476, Note_on_c, 0, 68, 51
1, 42480, Note_off_c, 0, 66, 64
1, 42488, Note_off_c, 0, 70, 64
1, 42492, Note_on_c, 0, 64, 52
1, 42544, Note_off_c, 0, 54, 64
1, 42564, Note_off_c, 0, 47, 64
1, 42564, Note_on_c, 0, 63, 62
1, 42584, Note_on_c, 0, 66, 58
1, 42616, Note_off_c, 0, 68, 64
1, 42632, Note_off_c, 0, 64, 64
1, 42640, Note_off_c, 0, 63, 64
1, 42660, Note_off_c, 0, 66, 64
1, 42700, Note_on_c, 0, 63, 56
1, 42700, Note_on_c, 0, 66, 62
1, 42768, Control_c, 0, 64, 0
1, 42804, Control_c, 0, 64, 127
1, 43040, Note_off_c, 0, 63, 64
1, 43040, Note_off_c, 0, 66, 64
1, 43116, Control_c, 0, 64, 0
1, 43120, Note_on_c, 0, 75, 64
1, 43120, Note_on_c, 0, 63, 56
1, 43120, Note_on_c, 0, 47, 47
1, 43136, Note_on_c, 0, 54, 27
1, 43140, Note_on_c, 0, 66, 54
1, 43148, Note_on_c, 0, 59, 32
1, 43152, Control_c, 0, 64, 127
1, 43188, Control_c, 0, 64, 0
1, 43244, Control_c, 0, 64, 127
1, 43448, Note_off_c, 0, 63, 64
1, 43448, Note_off_c, 0, 47, 64
1, 43460, Note_off_c, 0, 54, 64
1, 43464, Note_off_c, 0, 66, 64
1, 43472, Note_off_c, 0, 59, 64
1, 43520, Note_on_c, 0, 54, 31
1, 43528, Note_on_c, 0, 66, 54
1, 43528, Note_on_c, 0, 63, 50
1, 43528, Note_on_c, 0, 47, 36
1, 43544, Note_on_c, 0, 59, 31
1, 43696, Note_off_c, 0, 75, 64
1, 43776, Note_on_c, 0, 75, 62
1, 43824, Note_off_c, 0, 75, 64
1, 43872, Note_on_c, 0, 75, 65
1, 43912, Control_c, 0, 64, 0
1, 43952, Control_c, 0, 64, 127
1, 44168, Note_off_c, 0, 54, 64
1, 44176, Note_off_c, 0, 66, 64
1, 44176, Note_off_c, 0, 63, 64
1, 44176, Note_off_c, 0, 47, 64
1, 44192, Note_off_c, 0, 59, 64
1, 44208, Note_on_c, 0, 68, 54
1, 44216, Note_on_c, 0, 65, 47
1, 44224, Note_on_c, 0, 58, 43
1, 44232, Note_on_c, 0, 51, 48
1, 44280, Control_c, 0, 64, 0
1, 44300, Control_c, 0, 64, 127
1, 44512, Note_off_c, 0, 75, 64
1, 44568, Note_off_c, 0, 58, 64
1, 44580, Note_off_c, 0, 51, 64
1, 44648, Note_on_c, 0, 51, 34
1, 44652, Note_on_c, 0, 75, 54
1, 44652, Note_on_c, 0, 58, 32
1, 44664, Note_on_c, 0, 66, 34
1, 44668, Note_on_c, 0, 70, 40
1, 44692, Note_off_c, 0, 68, 64
1, 44696, Note_off_c, 0, 65, 64
1, 44704, Control_c, 0, 64, 0
1, 44760, Control_c, 0, 64, 127
1, 44928, Note_off_c, 0, 75, 64
1, 45008, Note_on_c, 0, 75, 62
1, 45176, Note_off_c, 0, 58, 64
1, 45184, Note_off_c, 0, 51, 64
1, 45200, Note_off_c, 0, 66, 64
1, 45204, Note_off_c, 0, 70, 64
1, 45336, Note_on_c, 0, 68, 54
1, 45336, Note_on_c, 0, 65, 56
1, 45348, Note_on_c, 0, 58, 46
1, 45348, Note_on_c, 0, 51, 49
1, 45588, Note_off_c, 0, 75, 64
1, 45700, Note_off_c, 0, 58, 64
1, 45732, Note_off_c, 0, 51, 64
1, 45756, Note_on_c, 0, 75, 58
1, 45760, Note_on_c, 0, 66, 33
1, 45772, Note_on_c, 0, 58, 35
1, 45776, Note_on_c, 0, 70, 46
1, 45784, Note_on_c, 0, 51, 39
1, 45792, Note_off_c, 0, 68, 64
1, 45796, Note_off_c, 0, 65, 64
1, 46088, Note_off_c, 0, 75, 64
1, 46096, Note_off_c, 0, 58, 64
1, 46108, Note_off_c, 0, 51, 64
1, 46144, Note_off_c, 0, 66, 64
1, 46160, Note_off_c, 0, 70, 64
1, 46208, Note_on_c, 0, 75, 58
1, 46208, Note_on_c, 0, 44, 49
1, 46236, Control_c, 0, 64, 0
1, 46308, Control_c, 0, 64, 127
1, 46624, Note_on_c, 0, 76, 51
1, 46640, Note_on_c, 0, 63, 49
1, 46644, Note_on_c, 0, 56, 48
1, 46656, Note_on_c, 0, 66, 26
1, 46656, Note_on_c, 0, 72, 39
1, 46720, Note_off_c, 0, 44, 64
1, 46724, Note_off_c, 0, 75, 64
1, 46844, Note_off_c, 0, 63, 64
1, 46848, Note_off_c, 0, 56, 64
1, 46860, Note_off_c, 0, 66, 64
1, 46860, Note_off_c, 0, 72, 64
1, 46968, Note_on_c, 0, 66, 52
1, 46976, Note_on_c, 0, 72, 54
1, 46976, Note_on_c, 0, 63, 31
1, 46984, Note_on_c, 0, 56, 41
1, 47136, Note_on_c, 0, 75, 54
1, 47184, Note_off_c, 0, 76, 64
1, 47244, Note_off_c, 0, 75, 64
1, 47256, Note_on_c, 0, 73, 58
1, 47304, Note_on_c, 0, 75, 62
1, 47320, Note_off_c, 0, 73, 64
1, 47332, Note_off_c, 0, 66, 64
1, 47336, Note_off_c, 0, 72, 64
1, 47336, Note_off_c, 0, 63, 64
1, 47356, Note_on_c, 0, 49, 32
1, 47368, Note_off_c, 0, 56, 64
1, 47368, Note_on_c, 0, 66, 54
1, 47376, Note_on_c, 0, 57, 21
1, 47376, Note_on_c, 0, 73, 58
1, 47412, Note_off_c, 0, 75, 64
1, 47412, Control_c, 0, 64, 0
1, 47432, Control_c, 0, 64, 127
1, 47528, Note_off_c, 0, 73, 64
1, 47540, Note_on_c, 0, 72, 52
1, 47656, Note_off_c, 0, 72, 64
1, 47680, Note_off_c, 0, 66, 64
1, 47720, Note_on_c, 0, 73, 51
1, 47720, Note_on_c, 0, 56, 51
1, 47724, Note_on_c, 0, 64, 49
1, 47752, Note_off_c, 0, 57, 64
1, 47796, Control_c, 0, 64, 0
1, 47836, Control_c, 0, 64, 127
1, 48080, Note_off_c, 0, 56, 64
1, 48088, Note_off_c, 0, 64, 64
1, 48092, Note_on_c, 0, 55, 46
1, 48096, Note_on_c, 0, 71, 49
1, 48152, Control_c, 0, 64, 0
1, 48188, Control_c, 0, 64, 127
1, 48440, Note_off_c, 0, 73, 64
1, 48460, Note_on_c, 0, 75, 57
1, 48472, Note_on_c, 0, 70, 57
1, 48480, Note_on_c, 0, 42, 50
1, 48508, Note_off_c, 0, 71, 64
1, 48508, Control_c, 0, 64, 0
1, 48532, Note_off_c, 0, 55, 64
1, 48532, Control_c, 0, 64, 127
1, 48536, Note_off_c, 0, 49, 64
1, 48632, Note_on_c, 0, 73, 49
1, 48636, Note_off_c, 0, 75, 64
1, 48780, Note_on_c, 0, 59, 50
1, 48784, Note_on_c, 0, 68, 63
1, 48796, Note_on_c, 0, 64, 51
1, 48800, Note_on_c, 0, 54, 37
1, 48808, Note_off_c, 0, 73, 64
1, 48844, Note_off_c, 0, 70, 64
1, 48932, Note_on_c, 0, 66, 62
1, 48952, Note_on_c, 0, 58, 34
1, 48956, Note_off_c, 0, 42, 64
1, 48960, Note_off_c, 0, 68, 64
1, 49000, Note_off_c, 0, 59, 64
1, 49016, Note_off_c, 0, 64, 64
1, 49096, Note_on_c, 0, 64, 51
1, 49104, Note_on_c, 0, 56, 39
1, 49104, Note_on_c, 0, 71, 58
1, 49112, Note_off_c, 0, 58, 64
1, 49136, Note_off_c, 0, 66, 64
1, 49220, Note_off_c, 0, 54, 64
1, 49252, Note_on_c, 0, 73, 63
1, 49256, Note_on_c, 0, 54, 46
1, 49264, Note_off_c, 0, 56, 64
1, 49296, Note_off_c, 0, 71, 64
1, 49384, Note_off_c, 0, 64, 64
1, 49420, Note_off_c, 0, 54, 64
1, 49424, Note_on_c, 0, 75, 58
1, 49436, Note_on_c, 0, 47, 51
1, 49448, Note_off_c, 0, 73, 64
1, 49492, Control_c, 0, 64, 0
1, 49552, Control_c, 0, 64, 127
1, 49776, Note_on_c, 0, 63, 49
1, 49776, Note_on_c, 0, 54, 44
1, 49780, Note_on_c, 0, 59, 37
1, 50020, Note_off_c, 0, 63, 64
1, 50128, Note_off_c, 0, 54, 64
1, 50136, Note_off_c, 0, 59, 64
1, 50136, Note_on_c, 0, 46, 48
1, 50140, Note_on_c, 0, 63, 44
1, 50188, Note_off_c, 0, 47, 64
1, 50404, Note_off_c, 0, 63, 64
1, 50496, Note_on_c, 0, 71, 55
1, 50508, Note_on_c, 0, 44, 50
1, 50520, Note_off_c, 0, 75, 64
1, 50536, Note_off_c, 0, 46, 64
1, 50552, Control_c, 0, 64, 0
1, 50624, Control_c, 0, 64, 127
1, 50864, Note_on_c, 0, 73, 57
1, 50872, Note_on_c, 0, 63, 44
1, 50880, Note_on_c, 0, 68, 42
1, 50880, Note_on_c, 0, 59, 37
1, 50884, Note_on_c, 0, 53, 34
1, 50888, Note_off_c, 0, 71, 64
1, 51028, Note_off_c, 0, 68, 64
1, 51048, Note_off_c, 0, 63, 64
1, 51152, Note_off_c, 0, 59, 64
1, 51156, Note_off_c, 0, 53, 64
1, 51204, Note_on_c, 0, 68, 32
1, 51208, Note_on_c, 0, 41, 49
1, 51216, Note_on_c, 0, 63, 43
1, 51248, Note_off_c, 0, 44, 64
1, 51368, Note_off_c, 0, 68, 64
1, 51380, Note_off_c, 0, 63, 64
1, 51384, Note_on_c, 0, 71, 52
1, 51432, Note_off_c, 0, 73, 64
1, 51512, Note_off_c, 0, 71, 64
1, 51528, Note_on_c, 0, 70, 46
1, 51584, Note_on_c, 0, 71, 43
1, 51588, Note_off_c, 0, 70, 64
1, 51600, Note_on_c, 0, 46, 56
1, 51624, Note_on_c, 0, 70, 52
1, 51648, Note_off_c, 0, 41, 64
1, 51660, Note_off_c, 0, 71, 64
1, 51680, Control_c, 0, 64, 0
1, 51700, Control_c, 0, 64, 127
1, 51772, Note_on_c, 0, 69, 47
1, 51792, Note_off_c, 0, 70, 64
1, 51928, Note_on_c, 0, 70, 51
1, 51948, Note_on_c, 0, 68, 37
1, 51948, Note_on_c, 0, 58, 50
1, 51952, Note_on_c, 0, 62, 43
1, 51956, Note_off_c, 0, 69, 64
1, 51960, Note_on_c, 0, 53, 41
1, 52088, Note_off_c, 0, 68, 64
1, 52096, Note_off_c, 0, 62, 64
1, 52132, Note_off_c, 0, 58, 64
1, 52144, Note_off_c, 0, 53, 64
1, 52272, Note_on_c, 0, 41, 51
1, 52284, Note_on_c, 0, 68, 52
1, 52284, Note_on_c, 0, 62, 51
1, 52336, Note_off_c, 0, 46, 64
1, 52336, Control_c, 0, 64, 0
1, 52368, Control_c, 0, 64, 127
1, 52496, Note_off_c, 0, 62, 64
1, 52500, Note_off_c, 0, 68, 64
1, 52584, Note_off_c, 0, 70, 64
1, 52628, Note_on_c, 0, 70, 51
1, 52632, Note_on_c, 0, 40, 52
1, 52656, Note_off_c, 0, 41, 64
1, 52684, Control_c, 0, 64, 0
1, 52728, Control_c, 0, 64, 127
1, 52956, Note_on_c, 0, 71, 52
1, 52960, Note_on_c, 0, 61, 49
1, 52968, Note_on_c, 0, 52, 52
1, 52976, Note_off_c, 0, 70, 64
1, 53028, Note_off_c, 0, 40, 64
1, 53204, Note_off_c, 0, 61, 64
1, 53252, Note_on_c, 0, 67, 37
1, 53256, Note_off_c, 0, 71, 64
1, 53272, Note_on_c, 0, 39, 54
1, 53276, Note_on_c, 0, 61, 51
1, 53284, Note_off_c, 0, 52, 64
1, 53344, Note_off_c, 0, 67, 64
1, 53448, Note_on_c, 0, 67, 62
1, 53624, Note_on_c, 0, 70, 48
1, 53632, Note_on_c, 0, 44, 42
1, 53656, Note_off_c, 0, 39, 64
1, 53664, Note_off_c, 0, 67, 64
1, 53792, Note_on_c, 0, 69, 56
1, 53824, Note_off_c, 0, 70, 64
1, 53984, Note_on_c, 0, 68, 49
1, 53996, Note_on_c, 0, 59, 42
1, 54008, Note_on_c, 0, 51, 46
1, 54020, Note_off_c, 0, 69, 64
1, 54024, Control_c, 0, 64, 0
1, 54044, Note_off_c, 0, 61, 64
1, 54108, Control_c, 0, 64, 127
1, 54148, Note_off_c, 0, 44, 64
1, 54456, Note_on_c, 0, 61, 57
1, 54464, Note_on_c, 0, 66, 44
1, 54472, Note_on_c, 0, 54, 31
1, 54480, Note_on_c, 0, 46, 33
1, 54488, Note_off_c, 0, 59, 64
1, 54496, Note_off_c, 0, 51, 64
1, 54508, Note_off_c, 0, 68, 64
1, 54568, Control_c, 0, 64, 0
1, 54620, Control_c, 0, 64, 127
1, 54684, Note_on_c, 0, 64, 51
1, 54692, Note_off_c, 0, 66, 64
1, 54908, Note_off_c, 0, 64, 64
1, 54908, Note_on_c, 0, 63, 54
1, 54916, Note_on_c, 0, 35, 55
1, 54956, Control_c, 0, 64, 0
1, 55024, Control_c, 0, 64, 127
1, 55092, Note_off_c, 0, 54, 64
1, 55104, Note_off_c, 0, 46, 64
1, 55304, Note_on_c, 0, 54, 51
1, 55308, Note_on_c, 0, 47, 50
1, 55320, Note_on_c, 0, 59, 25
1, 55324, Note_off_c, 0, 61, 64
1, 55332, Control_c, 0, 64, 0
1, 55368, Control_c, 0, 64, 127
1, 55492, Note_off_c, 0, 35, 64
1, 55512, Note_off_c, 0, 59, 64
1, 55520, Note_off_c, 0, 47, 64
1, 55528, Note_off_c, 0, 54, 64
1, 55620, Note_on_c, 0, 64, 55
1, 55620, Note_on_c, 0, 59, 31
1, 55620, Note_on_c, 0, 61, 54
1, 55628, Note_on_c, 0, 54, 43
1, 55628, Note_on_c, 0, 47, 46
1, 55636, Note_off_c, 0, 63, 64
1, 55712, Control_c, 0, 64, 0
1, 55768, Control_c, 0, 64, 127
1, 55952, Note_on_c, 0, 66, 57
1, 55964, Note_on_c, 0, 63, 49
1, 55972, Note_off_c, 0, 64, 64
1, 55972, Note_off_c, 0, 61, 64
1, 56044, Note_off_c, 0, 59, 64
1, 56052, Note_off_c, 0, 47, 64
1, 56068, Note_off_c, 0, 54, 64
1, 56264, Note_off_c, 0, 63, 64
1, 56268, Note_off_c, 0, 66, 64
1, 56284, Note_on_c, 0, 75, 59
1, 56288, Note_on_c, 0, 66, 42
1, 56288, Note_on_c, 0, 63, 49
1, 56288, Note_on_c, 0, 59, 34
1, 56288, Note_on_c, 0, 54, 46
1, 56288, Note_on_c, 0, 47, 48
1, 56344, Control_c, 0, 64, 0
1, 56396, Control_c, 0, 64, 127
1, 56496, Note_off_c, 0, 59, 64
1, 56512, Note_off_c, 0, 66, 64
1, 56512, Note_off_c, 0, 47, 64
1, 56520, Note_off_c, 0, 63, 64
1, 56536, Note_off_c, 0, 54, 64
1, 56608, Note_on_c, 0, 66, 51
1, 56616, Note_on_c, 0, 63, 54
1, 56624, Note_on_c, 0, 54, 41
1, 56632, Note_on_c, 0, 47, 46
1, 56640, Note_on_c, 0, 59, 49
1, 56760, Note_off_c, 0, 75, 64
1, 56824, Note_on_c, 0, 75, 67
1, 56876, Note_off_c, 0, 75, 64
1, 56912, Note_on_c, 0, 75, 70
1, 56936, Control_c, 0, 64, 0
1, 56976, Control_c, 0, 64, 127
1, 57064, Note_off_c, 0, 66, 64
1, 57068, Note_off_c, 0, 63, 64
1, 57072, Note_off_c, 0, 47, 64
1, 57092, Note_off_c, 0, 59, 64
1, 57108, Note_off_c, 0, 54, 64
1, 57216, Note_on_c, 0, 64, 51
1, 57220, Note_on_c, 0, 68, 57
1, 57224, Control_c, 0, 64, 127
1, 57228, Note_on_c, 0, 47, 33
1, 57232, Note_on_c, 0, 54, 44
1, 57232, Note_on_c, 0, 61, 48
1, 57256, Control_c, 0, 64, 0
1, 57296, Control_c, 0, 64, 127
1, 57432, Note_off_c, 0, 75, 64
1, 57468, Note_off_c, 0, 61, 64
1, 57480, Note_off_c, 0, 47, 64
1, 57500, Note_off_c, 0, 54, 64
1, 57520, Note_on_c, 0, 75, 70
1, 57528, Note_off_c, 0, 64, 64
1, 57540, Note_on_c, 0, 70, 47
1, 57540, Note_on_c, 0, 61, 46
1, 57540, Note_on_c, 0, 54, 43
1, 57540, Note_on_c, 0, 47, 48
1, 57560, Note_on_c, 0, 64, 51
1, 57580, Note_off_c, 0, 68, 64
1, 57584, Control_c, 0, 64, 0
1, 57632, Note_on_c, 0, 47, 33
1, 57632, Note_on_c, 0, 54, 44
1, 57656, Control_c, 0, 64, 127
1, 57772, Note_off_c, 0, 75, 64
1, 57800, Note_off_c, 0, 47, 64
1, 57812, Note_off_c, 0, 54, 64
1, 57840, Note_on_c, 0, 75, 73
1, 57972, Note_off_c, 0, 47, 64
1, 58000, Note_off_c, 0, 54, 64
1, 58012, Note_off_c, 0, 61, 64
1, 58032, Note_off_c, 0, 64, 64
1, 58136, Note_on_c, 0, 68, 71
1, 58152, Note_on_c, 0, 64, 59
1, 58156, Note_on_c, 0, 47, 49
1, 58156, Note_on_c, 0, 61, 48
1, 58164, Note_off_c, 0, 70, 64
1, 58164, Note_on_c, 0, 54, 46
1, 58208, Control_c, 0, 64, 0
1, 58240, Control_c, 0, 64, 127
1, 58368, Note_off_c, 0, 75, 64
1, 58420, Note_off_c, 0, 64, 64
1, 58424, Note_off_c, 0, 61, 64
1, 58432, Note_off_c, 0, 47, 64
1, 58452, Note_off_c, 0, 54, 64
1, 58520, Note_on_c, 0, 75, 71
1, 58520, Note_on_c, 0, 64, 57
1, 58528, Note_on_c, 0, 70, 50
1, 58528, Control_c, 0, 64, 127
1, 58540, Note_on_c, 0, 61, 48
1, 58540, Note_on_c, 0, 54, 49
1, 58540, Note_on_c, 0, 47, 50
1, 58564, Note_off_c, 0, 68, 64
1, 58840, Note_off_c, 0, 75, 64
1, 58848, Note_off_c, 0, 61, 64
1, 58856, Note_off_c, 0, 54, 64
1, 58856, Note_off_c, 0, 47, 64
1, 58880, Note_off_c, 0, 64, 64
1, 58924, Note_on_c, 0, 75, 59
1, 58924, Note_on_c, 0, 63, 56
1, 58936, Note_on_c, 0, 35, 51
1, 58944, Note_on_c, 0, 71, 57
1, 58960, Note_off_c, 0, 70, 64
1, 58960, Control_c, 0, 64, 0
1, 59008, Control_c, 0, 64, 127
1, 59188, Note_off_c, 0, 75, 64
1, 59188, Note_off_c, 0, 63, 64
1, 59208, Note_off_c, 0, 71, 64
1, 59296, Note_on_c, 0, 63, 54
1, 59308, Note_on_c, 0, 59, 50
1, 59320, Note_on_c, 0, 54, 46
1, 59332, Note_on_c, 0, 47, 46
1, 59456, Note_off_c, 0, 35, 64
1, 59460, Note_off_c, 0, 63, 64
1, 59464, Note_on_c, 0, 64, 58
1, 59468, Note_on_c, 0, 61, 59
1, 59472, Note_off_c, 0, 59, 64
1, 59608, Note_on_c, 0, 66, 54
1, 59616, Note_on_c, 0, 70, 54
1, 59644, Control_c, 0, 64, 0
1, 59660, Note_off_c, 0, 64, 64
1, 59664, Note_off_c, 0, 61, 64
1, 59676, Control_c, 0, 64, 127
1, 59728, Note_on_c, 0, 68, 54
1, 59736, Note_on_c, 0, 64, 54
1, 59744, Note_off_c, 0, 66, 64
1, 59748, Note_off_c, 0, 70, 64
1, 59880, Note_on_c, 0, 66, 52
1, 59888, Note_off_c, 0, 68, 64
1, 59892, Note_on_c, 0, 63, 59
1, 59896, Note_off_c, 0, 64, 64
1, 59932, Control_c, 0, 64, 0
1, 59984, Control_c, 0, 64, 127
1, 60028, Note_off_c, 0, 47, 64
1, 60096, Note_off_c, 0, 54, 64
1, 60144, Note_off_c, 0, 66, 64
1, 60156, Note_off_c, 0, 63, 64
1, 60196, Note_on_c, 0, 75, 63
1, 60208, Note_on_c, 0, 47, 46
1, 60208, Note_on_c, 0, 66, 57
1, 60208, Note_on_c, 0, 59, 44
1, 60216, Note_on_c, 0, 54, 41
1, 60224, Note_on_c, 0, 63, 52
1, 60240, Control_c, 0, 64, 0
1, 60304, Control_c, 0, 64, 127
1, 60464, Note_off_c, 0, 47, 64
1, 60468, Note_off_c, 0, 66, 64
1, 60468, Note_off_c, 0, 59, 64
1, 60472, Note_off_c, 0, 54, 64
1, 60480, Note_off_c, 0, 63, 64
1, 60508, Note_on_c, 0, 63, 51
1, 60512, Note_on_c, 0, 66, 56
1, 60516, Note_on_c, 0, 59, 44
1, 60520, Note_on_c, 0, 54, 33
1, 60528, Note_on_c, 0, 47, 47
1, 60652, Note_off_c, 0, 75, 64
1, 60724, Note_on_c, 0, 75, 64
1, 60788, Note_off_c, 0, 75, 64
1, 60820, Note_on_c, 0, 75, 67
1, 60860, Control_c, 0, 64, 0
1, 60892, Control_c, 0, 64, 127
1, 61068, Note_off_c, 0, 63, 64
1, 61072, Note_off_c, 0, 66, 64
1, 61076, Note_off_c, 0, 59, 64
1, 61080, Note_off_c, 0, 54, 64
1, 61088, Note_off_c, 0, 47, 64
1, 61132, Note_on_c, 0, 65, 49
1, 61140, Note_on_c, 0, 58, 47
1, 61140, Note_on_c, 0, 68, 56
1, 61152, Note_on_c, 0, 51, 49
1, 61436, Note_off_c, 0, 75, 64
1, 61488, Note_off_c, 0, 58, 64
1, 61496, Note_off_c, 0, 51, 64
1, 61512, Note_off_c, 0, 65, 64
1, 61516, Note_on_c, 0, 75, 59
1, 61520, Note_off_c, 0, 68, 64
1, 61524, Note_on_c, 0, 70, 51
1, 61532, Note_on_c, 0, 66, 44
1, 61532, Note_on_c, 0, 58, 38
1, 61540, Note_on_c, 0, 51, 44
1, 61576, Control_c, 0, 64, 0
1, 61640, Control_c, 0, 64, 127
1, 61780, Note_off_c, 0, 75, 64
1, 61864, Note_on_c, 0, 75, 56
1, 62000, Note_off_c, 0, 70, 64
1, 62048, Note_off_c, 0, 66, 64
1, 62096, Note_off_c, 0, 51, 64
1, 62128, Note_off_c, 0, 58, 64
1, 62192, Note_on_c, 0, 68, 51
1, 62200, Note_on_c, 0, 65, 50
1, 62212, Note_on_c, 0, 58, 43
1, 62216, Note_on_c, 0, 51, 42
1, 62280, Note_off_c, 0, 75, 64
1, 62420, Note_off_c, 0, 51, 64
1, 62456, Note_off_c, 0, 58, 64
1, 62528, Note_on_c, 0, 51, 46
1, 62536, Note_on_c, 0, 66, 42
1, 62536, Note_on_c, 0, 58, 41
1, 62540, Note_on_c, 0, 75, 49
1, 62544, Note_on_c, 0, 70, 45
1, 62580, Note_off_c, 0, 68, 64
1, 62588, Note_off_c, 0, 65, 64
1, 62848, Note_off_c, 0, 51, 64
1, 62852, Note_off_c, 0, 75, 64
1, 62856, Note_off_c, 0, 58, 64
1, 62880, Note_on_c, 0, 71, 48
1, 62892, Note_on_c, 0, 75, 52
1, 62904, Note_on_c, 0, 35, 47
1, 62936, Note_off_c, 0, 66, 64
1, 62940, Control_c, 0, 64, 0
1, 62944, Note_off_c, 0, 70, 64
1, 62988, Control_c, 0, 64, 127
1, 63260, Note_off_c, 0, 71, 64
1, 63272, Note_off_c, 0, 75, 64
1, 63276, Note_on_c, 0, 63, 56
1, 63280, Note_on_c, 0, 59, 51
1, 63288, Note_on_c, 0, 47, 52
1, 63292, Note_on_c, 0, 54, 47
1, 63512, Note_off_c, 0, 35, 64
1, 63532, Note_off_c, 0, 47, 64
1, 63532, Note_off_c, 0, 54, 64
1, 63628, Note_on_c, 0, 54, 39
1, 63628, Note_on_c, 0, 47, 44
1, 63636, Note_on_c, 0, 64, 51
1, 63644, Note_on_c, 0, 61, 62
1, 63648, Note_off_c, 0, 63, 64
1, 63656, Note_off_c, 0, 59, 64
1, 63952, Note_on_c, 0, 66, 57
1, 63952, Note_on_c, 0, 63, 64
1, 63968, Note_off_c, 0, 64, 64
1, 63976, Note_off_c, 0, 61, 64
1, 63984, Control_c, 0, 64, 0
1, 64020, Control_c, 0, 64, 127
1, 64128, Note_off_c, 0, 47, 64
1, 64160, Note_off_c, 0, 54, 64
1, 64256, Note_off_c, 0, 66, 64
1, 64256, Note_off_c, 0, 63, 64
1, 64260, Note_on_c, 0, 75, 58
1, 64272, Note_on_c, 0, 54, 48
1, 64272, Note_on_c, 0, 63, 56
1, 64276, Note_on_c, 0, 47, 51
1, 64276, Note_on_c, 0, 59, 43
1, 64276, Note_on_c, 0, 66, 58
1, 64320, Control_c, 0, 64, 0
1, 64380, Control_c, 0, 64, 127
1, 64528, Note_off_c, 0, 54, 64
1, 64532, Note_off_c, 0, 63, 64
1, 64536, Note_off_c, 0, 47, 64
1, 64536, Note_off_c, 0, 59, 64
1, 64536, Note_off_c, 0, 66, 64
1, 64608, Note_on_c, 0, 66, 50
1, 64608, Note_on_c, 0, 63, 56
1, 64612, Note_on_c, 0, 59, 37
1, 64620, Note_on_c, 0, 54, 39
1, 64624, Note_on_c, 0, 47, 39
1, 64792, Note_off_c, 0, 75, 64
1, 64860, Note_on_c, 0, 75, 70
1, 64900, Note_off_c, 0, 75, 64
1, 64944, Note_on_c, 0, 75, 65
1, 65084, Note_off_c, 0, 47, 64
1, 65100, Note_off_c, 0, 66, 64
1, 65100, Note_off_c, 0, 63, 64
1, 65116, Note_off_c, 0, 54, 64
1, 65120, Note_off_c, 0, 59, 64
1, 65216, Note_on_c, 0, 47, 27
1, 65220, Note_on_c, 0, 61, 50
1, 65232, Note_on_c, 0, 64, 54
1, 65236, Note_on_c, 0, 68, 58
1, 65240, Note_on_c, 0, 54, 42
1, 65264, Control_c, 0, 64, 0
1, 65288, Control_c, 0, 64, 127
1, 65452, Note_off_c, 0, 61, 64
1, 65460, Note_off_c, 0, 64, 64
1, 65464, Note_off_c, 0, 47, 64
1, 65472, Note_off_c, 0, 54, 64
1, 65520, Note_off_c, 0, 75, 64
1, 65532, Note_on_c, 0, 47, 44
1, 65540, Note_on_c, 0, 70, 62
1, 65540, Note_on_c, 0, 64, 58
1, 65548, Note_on_c, 0, 61, 42
1, 65548, Note_on_c, 0, 75, 73
1, 65560, Note_off_c, 0, 68, 64
1, 65560, Note_on_c, 0, 54, 42
1, 65612, Control_c, 0, 64, 0
1, 65644, Control_c, 0, 64, 127
1, 65796, Note_off_c, 0, 75, 64
1, 65848, Note_on_c, 0, 75, 73
1, 66076, Note_off_c, 0, 70, 64
1, 66080, Note_off_c, 0, 64, 64
1, 66088, Note_off_c, 0, 47, 64
1, 66088, Note_off_c, 0, 54, 64
1, 66088, Note_off_c, 0, 61, 64
1, 66144, Note_on_c, 0, 68, 71
1, 66144, Note_on_c, 0, 64, 58
1, 66144, Note_on_c, 0, 47, 48
1, 66152, Note_on_c, 0, 61, 36
1, 66152, Note_on_c, 0, 54, 39
1, 66184, Control_c, 0, 64, 0
1, 66220, Control_c, 0, 64, 127
1, 66408, Note_off_c, 0, 75, 64
1, 66408, Note_off_c, 0, 64, 64
1, 66408, Note_off_c, 0, 47, 64
1, 66416, Note_off_c, 0, 61, 64
1, 66416, Note_off_c, 0, 54, 64
1, 66472, Note_on_c, 0, 75, 64
1, 66476, Note_on_c, 0, 64, 58
1, 66484, Note_on_c, 0, 61, 44
1, 66488, Note_on_c, 0, 70, 57
1, 66488, Note_on_c, 0, 47, 49
1, 66488, Note_on_c, 0, 54, 48
1, 66504, Note_off_c, 0, 68, 64
1, 66784, Note_off_c, 0, 75, 64
1, 66784, Note_off_c, 0, 64, 64
1, 66796, Note_off_c, 0, 61, 64
1, 66796, Note_off_c, 0, 70, 64
1, 66796, Note_off_c, 0, 47, 64
1, 66800, Note_off_c, 0, 54, 64
1, 66848, Note_on_c, 0, 75, 64
1, 66860, Note_on_c, 0, 63, 62
1, 66864, Note_on_c, 0, 71, 58
1, 66864, Note_on_c, 0, 35, 62
1, 66884, Control_c, 0, 64, 0
1, 66948, Control_c, 0, 64, 127
1, 67152, Note_off_c, 0, 63, 64
1, 67256, Note_on_c, 0, 47, 49
1, 67260, Note_on_c, 0, 63, 56
1, 67264, Note_on_c, 0, 59, 52
1, 67272, Note_on_c, 0, 54, 42
1, 67376, Note_off_c, 0, 75, 64
1, 67392, Note_off_c, 0, 71, 64
1, 67420, Note_off_c, 0, 63, 64
1, 67424, Note_on_c, 0, 64, 58
1, 67424, Note_on_c, 0, 61, 64
1, 67428, Note_off_c, 0, 59, 64
1, 67504, Note_off_c, 0, 35, 64
1, 67576, Note_off_c, 0, 64, 64
1, 67576, Note_off_c, 0, 61, 64
1, 67576, Note_on_c, 0, 66, 51
1, 67576, Note_on_c, 0, 70, 56
1, 67596, Control_c, 0, 64, 0
1, 67632, Control_c, 0, 64, 127
1, 67672, Note_on_c, 0, 68, 51
1, 67680, Note_on_c, 0, 64, 49
1, 67696, Note_off_c, 0, 66, 64
1, 67696, Note_off_c, 0, 70, 64
1, 67780, Note_on_c, 0, 63, 62
1, 67788, Note_on_c, 0, 66, 46
1, 67796, Note_off_c, 0, 68, 64
1, 67804, Note_off_c, 0, 64, 64
1, 67832, Note_off_c, 0, 63, 64
1, 67836, Note_off_c, 0, 66, 64
1, 67884, Note_on_c, 0, 63, 56
1, 67888, Note_on_c, 0, 66, 62
1, 67928, Control_c, 0, 64, 0
1, 67948, Control_c, 0, 64, 127
1, 68008, Note_off_c, 0, 47, 64
1, 68024, Note_off_c, 0, 54, 64
1, 68108, Note_off_c, 0, 63, 64
1, 68112, Note_off_c, 0, 66, 64
1, 68228, Note_on_c, 0, 75, 71
1, 68228, Note_on_c, 0, 63, 56
1, 68240, Note_on_c, 0, 54, 42
1, 68244, Note_on_c, 0, 66, 58
1, 68248, Control_c, 0, 64, 0
1, 68252, Note_on_c, 0, 59, 46
1, 68252, Note_on_c, 0, 47, 42
1, 68268, Control_c, 0, 64, 127
1, 68272, Control_c, 0, 64, 0
1, 68332, Control_c, 0, 64, 127
1, 68456, Note_off_c, 0, 63, 64
1, 68472, Note_off_c, 0, 66, 64
1, 68476, Note_off_c, 0, 47, 64
1, 68480, Note_off_c, 0, 54, 64
1, 68484, Note_off_c, 0, 59, 64
1, 68564, Note_on_c, 0, 63, 58
1, 68564, Note_on_c, 0, 66, 51
1, 68576, Note_on_c, 0, 54, 39
1, 68584, Note_on_c, 0, 47, 48
1, 68592, Note_on_c, 0, 59, 39
1, 68732, Note_off_c, 0, 75, 64
1, 68772, Note_on_c, 0, 75, 71
1, 68828, Note_off_c, 0, 75, 64
1, 68868, Note_on_c, 0, 75, 65
1, 68904, Control_c, 0, 64, 0
1, 68940, Control_c, 0, 64, 127
1, 69136, Note_off_c, 0, 63, 64
1, 69136, Note_off_c, 0, 66, 64
1, 69148, Note_off_c, 0, 54, 64
1, 69160, Note_off_c, 0, 47, 64
1, 69164, Note_off_c, 0, 59, 64
1, 69184, Note_on_c, 0, 68, 62
1, 69188, Note_on_c, 0, 65, 60
1, 69204, Note_on_c, 0, 58, 60
1, 69204, Note_on_c, 0, 51, 60
1, 69228, Control_c, 0, 64, 0
1, 69264, Control_c, 0, 64, 127
1, 69424, Note_off_c, 0, 75, 64
1, 69432, Note_off_c, 0, 51, 64
1, 69456, Note_off_c, 0, 58, 64
1, 69516, Note_on_c, 0, 75, 66
1, 69520, Note_on_c, 0, 58, 55
1, 69528, Note_on_c, 0, 70, 63
1, 69532, Note_on_c, 0, 51, 59
1, 69532, Note_on_c, 0, 66, 66
1, 69564, Note_off_c, 0, 68, 64
1, 69568, Note_off_c, 0, 65, 64
1, 69584, Control_c, 0, 64, 0
1, 69620, Control_c, 0, 64, 127
1, 69808, Note_off_c, 0, 75, 64
1, 69848, Note_on_c, 0, 75, 87
1, 70004, Note_off_c, 0, 51, 64
1, 70044, Note_off_c, 0, 58, 64
1, 70052, Note_off_c, 0, 70, 64
1, 70056, Note_off_c, 0, 66, 64
1, 70172, Note_on_c, 0, 68, 62
1, 70176, Note_on_c, 0, 65, 66
1, 70184, Note_on_c, 0, 58, 64
1, 70188, Note_on_c, 0, 51, 67
1, 70516, Note_off_c, 0, 75, 64
1, 70532, Note_off_c, 0, 51, 64
1, 70544, Note_off_c, 0, 58, 64
1, 70584, Note_on_c, 0, 75, 73
1, 70584, Note_on_c, 0, 66, 71
1, 70596, Note_on_c, 0, 51, 70
1, 70596, Note_on_c, 0, 70, 70
1, 70600, Note_on_c, 0, 58, 70
1, 70616, Note_off_c, 0, 68, 64
1, 70616, Note_off_c, 0, 65, 64
1, 70632, Control_c, 0, 64, 0
1, 70684, Control_c, 0, 64, 127
1, 70992, Note_off_c, 0, 66, 64
1, 71000, Note_off_c, 0, 51, 64
1, 71000, Note_off_c, 0, 70, 64
1, 71008, Note_off_c, 0, 58, 64
1, 71080, Note_on_c, 0, 64, 71
1, 71088, Note_on_c, 0, 71, 75
1, 71088, Note_on_c, 0, 76, 66
1, 71096, Note_on_c, 0, 56, 65
1, 71100, Note_on_c, 0, 50, 65
1, 71100, Note_on_c, 0, 59, 75
1, 71128, Note_off_c, 0, 75, 64
1, 71156, Control_c, 0, 64, 0
1, 71224, Control_c, 0, 64, 127
1, 71444, Note_off_c, 0, 50, 64
1, 71456, Note_off_c, 0, 76, 64
1, 71488, Note_off_c, 0, 64, 64
1, 71504, Note_off_c, 0, 59, 64
1, 71508, Note_off_c, 0, 56, 64
1, 71512, Note_off_c, 0, 71, 64
1, 71600, Note_on_c, 0, 76, 71
1, 71600, Note_on_c, 0, 71, 81
1, 71600, Note_on_c, 0, 64, 73
1, 71608, Note_on_c, 0, 56, 71
1, 71616, Note_on_c, 0, 52, 66
1, 71616, Note_on_c, 0, 59, 83
1, 71616, Note_on_c, 0, 50, 66
1, 71660, Control_c, 0, 64, 0
1, 71712, Control_c, 0, 64, 127
1, 71896, Note_off_c, 0, 64, 64
1, 71940, Note_off_c, 0, 76, 64
1, 71948, Note_off_c, 0, 56, 64
1, 72012, Note_off_c, 0, 50, 64
1, 72012, Note_on_c, 0, 76, 66
1, 72016, Note_on_c, 0, 72, 75
1, 72016, Note_on_c, 0, 56, 62
1, 72016, Note_on_c, 0, 64, 71
1, 72032, Note_on_c, 0, 50, 58
1, 72032, Note_on_c, 0, 60, 77
1, 72048, Note_off_c, 0, 71, 64
1, 72064, Note_off_c, 0, 59, 64
1, 72080, Control_c, 0, 64, 0
1, 72132, Control_c, 0, 64, 127
1, 72388, Note_off_c, 0, 56, 64
1, 72420, Note_on_c, 0, 71, 72
1, 72424, Note_on_c, 0, 59, 71
1, 72452, Note_off_c, 0, 50, 64
1, 72452, Note_off_c, 0, 52, 64
1, 72456, Note_off_c, 0, 64, 64
1, 72460, Note_off_c, 0, 72, 64
1, 72476, Note_off_c, 0, 60, 64
1, 72484, Note_off_c, 0, 76, 64
1, 72496, Note_off_c, 0, 71, 64
1, 72516, Note_off_c, 0, 59, 64
1, 72552, Note_on_c, 0, 71, 82
1, 72556, Note_on_c, 0, 64, 71
1, 72560, Note_on_c, 0, 76, 73
1, 72568, Note_on_c, 0, 52, 57
1, 72572, Note_on_c, 0, 59, 81
1, 72576, Note_on_c, 0, 48, 58
1, 72632, Control_c, 0, 64, 0
1, 72720, Control_c, 0, 64, 127
1, 72992, Note_on_c, 0, 69, 71
1, 72996, Note_on_c, 0, 57, 75
1, 73008, Control_c, 0, 64, 0
1, 73028, Control_c, 0, 64, 127
1, 73040, Note_off_c, 0, 71, 64
1, 73060, Note_off_c, 0, 59, 64
1, 73312, Note_on_c, 0, 56, 64
1, 73328, Note_on_c, 0, 68, 75
1, 73344, Note_off_c, 0, 69, 64
1, 73348, Note_off_c, 0, 57, 64
1, 73352, Note_off_c, 0, 52, 64
1, 73392, Note_off_c, 0, 76, 64
1, 73428, Note_on_c, 0, 69, 74
1, 73432, Note_on_c, 0, 57, 71
1, 73440, Note_off_c, 0, 56, 64
1, 73456, Note_off_c, 0, 68, 64
1, 73496, Control_c, 0, 64, 0
1, 73552, Control_c, 0, 64, 127
1, 73608, Note_off_c, 0, 48, 64
1, 73624, Note_off_c, 0, 64, 64
1, 73804, Note_off_c, 0, 69, 64
1, 73832, Note_off_c, 0, 57, 64
1, 73904, Note_on_c, 0, 47, 62
1, 73920, Note_on_c, 0, 35, 62
1, 73928, Note_on_c, 0, 66, 71
1, 73928, Note_on_c, 0, 63, 62
1, 73928, Note_on_c, 0, 57, 62
1, 73936, Note_on_c, 0, 59, 59
1, 73944, Note_on_c, 0, 71, 66
1, 73992, Control_c, 0, 64, 0
1, 74060, Control_c, 0, 64, 127
1, 74148, Note_off_c, 0, 47, 64
1, 74160, Note_off_c, 0, 35, 64
1, 74184, Note_off_c, 0, 57, 64
1, 74188, Note_off_c, 0, 63, 64
1, 74204, Note_off_c, 0, 59, 64
1, 74208, Note_off_c, 0, 71, 64
1, 74280, Note_off_c, 0, 66, 64
1, 74328, Note_on_c, 0, 63, 67
1, 74336, Note_on_c, 0, 57, 71
1, 74336, Note_on_c, 0, 66, 75
1, 74340, Note_on_c, 0, 35, 62
1, 74344, Note_on_c, 0, 71, 62
1, 74348, Note_on_c, 0, 59, 58
1, 74352, Note_on_c, 0, 47, 58
1, 74384, Control_c, 0, 64, 0
1, 74440, Control_c, 0, 64, 127
1, 74544, Note_off_c, 0, 47, 64
1, 74556, Note_off_c, 0, 57, 64
1, 74568, Note_off_c, 0, 71, 64
1, 74576, Note_off_c, 0, 63, 64
1, 74584, Note_off_c, 0, 35, 64
1, 74604, Note_off_c, 0, 59, 64
1, 74724, Note_on_c, 0, 63, 64
1, 74736, Note_on_c, 0, 67, 74
1, 74736, Note_on_c, 0, 59, 58
1, 74736, Note_on_c, 0, 47, 65
1, 74748, Note_on_c, 0, 71, 66
1, 74748, Note_on_c, 0, 57, 66
1, 74752, Note_on_c, 0, 35, 62
1, 74768, Control_c, 0, 64, 0
1, 74772, Note_off_c, 0, 66, 64
1, 74792, Control_c, 0, 64, 127
1, 74864, Note_off_c, 0, 63, 64
1, 74920, Note_off_c, 0, 59, 64
1, 74932, Note_off_c, 0, 57, 64
1, 74944, Note_off_c, 0, 71, 64
1, 74980, Note_off_c, 0, 47, 64
1, 74992, Note_off_c, 0, 35, 64
1, 74992, Note_on_c, 0, 66, 72
1, 75000, Note_off_c, 0, 67, 64
1, 75080, Note_off_c, 0, 66, 64
1, 75144, Note_on_c, 0, 66, 81
1, 75152, Note_on_c, 0, 71, 66
1, 75152, Note_on_c, 0, 40, 58
1, 75160, Note_on_c, 0, 57, 71
1, 75160, Note_on_c, 0, 59, 65
1, 75164, Note_on_c, 0, 47, 56
1, 75184, Control_c, 0, 64, 0
1, 75232, Control_c, 0, 64, 127
1, 75368, Note_on_c, 0, 64, 71
1, 75372, Note_on_c, 0, 55, 57
1, 75380, Note_off_c, 0, 66, 64
1, 75400, Note_off_c, 0, 57, 64
1, 75468, Note_off_c, 0, 55, 64
1, 75504, Note_on_c, 0, 66, 66
1, 75508, Note_off_c, 0, 64, 64
1, 75560, Note_on_c, 0, 64, 48
1, 75560, Note_on_c, 0, 55, 59
1, 75568, Note_off_c, 0, 66, 64
1, 75748, Note_on_c, 0, 54, 63
1, 75752, Note_on_c, 0, 63, 85
1, 75776, Note_off_c, 0, 64, 64
1, 75776, Note_off_c, 0, 55, 64
1, 75960, Note_on_c, 0, 64, 73
1, 75968, Note_on_c, 0, 55, 58
1, 75992, Note_off_c, 0, 54, 64
1, 76000, Note_off_c, 0, 63, 64
1, 76008, Control_c, 0, 64, 0
1, 76080, Control_c, 0, 64, 127
1, 76104, Note_off_c, 0, 71, 64
1, 76112, Note_off_c, 0, 59, 64
1, 76272, Note_off_c, 0, 40, 64
1, 76288, Note_off_c, 0, 47, 64
1, 76384, Note_off_c, 0, 64, 64
1, 76392, Note_off_c, 0, 55, 64
1, 76452, Note_on_c, 0, 62, 58
1, 76456, Note_on_c, 0, 68, 63
1, 76456, Note_on_c, 0, 71, 71
1, 76460, Note_on_c, 0, 76, 66
1, 76472, Note_on_c, 0, 40, 67
1, 76472, Note_on_c, 0, 52, 63
1, 76536, Control_c, 0, 64, 0
1, 76624, Control_c, 0, 64, 127
1, 76792, Note_off_c, 0, 68, 64
1, 76820, Note_off_c, 0, 62, 64
1, 76848, Note_off_c, 0, 71, 64
1, 76856, Note_off_c, 0, 52, 64
1, 76872, Note_off_c, 0, 76, 64
1, 76936, Note_on_c, 0, 71, 81
1, 76936, Note_on_c, 0, 62, 71
1, 76948, Note_on_c, 0, 68, 73
1, 76952, Note_on_c, 0, 76, 66
1, 76952, Note_on_c, 0, 52, 72
1, 77020, Control_c, 0, 64, 0
1, 77060, Control_c, 0, 64, 127
1, 77228, Note_off_c, 0, 40, 64
1, 77284, Note_off_c, 0, 52, 64
1, 77324, Note_off_c, 0, 62, 64
1, 77328, Note_off_c, 0, 68, 64
1, 77348, Note_off_c, 0, 76, 64
1, 77396, Note_off_c, 0, 71, 64
1, 77396, Note_on_c, 0, 62, 71
1, 77400, Note_on_c, 0, 72, 82
1, 77400, Note_on_c, 0, 76, 73
1, 77408, Note_on_c, 0, 68, 72
1, 77420, Note_on_c, 0, 52, 62
1, 77484, Control_c, 0, 64, 0
1, 77540, Control_c, 0, 64, 127
1, 77684, Note_off_c, 0, 68, 64
1, 77784, Note_off_c, 0, 76, 64
1, 77832, Note_on_c, 0, 71, 66
1, 77836, Note_off_c, 0, 72, 64
1, 77892, Note_off_c, 0, 62, 64
1, 77916, Note_off_c, 0, 52, 64
1, 77920, Note_off_c, 0, 71, 64
1, 77980, Control_c, 0, 64, 127
1, 78008, Note_on_c, 0, 64, 66
1, 78016, Note_on_c, 0, 71, 81
1, 78020, Note_on_c, 0, 76, 71
1, 78020, Note_on_c, 0, 68, 73
1, 78020, Note_on_c, 0, 62, 66
1, 78028, Note_on_c, 0, 45, 58
1, 78032, Note_on_c, 0, 52, 58
1, 78080, Control_c, 0, 64, 0
1, 78148, Control_c, 0, 64, 127
1, 78292, Note_off_c, 0, 64, 64
1, 78304, Note_off_c, 0, 68, 64
1, 78304, Note_off_c, 0, 62, 64
1, 78308, Note_on_c, 0, 69, 77
1, 78352, Note_off_c, 0, 71, 64
1, 78388, Note_off_c, 0, 76, 64
1, 78496, Note_off_c, 0, 69, 64
1, 78512, Note_on_c, 0, 71, 66
1, 78536, Note_on_c, 0, 60, 47
1, 78560, Control_c, 0, 64, 0
1, 78576, Note_on_c, 0, 69, 75
1, 78600, Control_c, 0, 64, 127
1, 78612, Note_off_c, 0, 71, 64
1, 78668, Note_off_c, 0, 52, 64
1, 78784, Note_on_c, 0, 68, 75
1, 78788, Note_on_c, 0, 59, 67
1, 78796, Note_off_c, 0, 60, 64
1, 78840, Note_off_c, 0, 69, 64
1, 79024, Note_on_c, 0, 69, 75
1, 79032, Note_on_c, 0, 60, 54
1, 79056, Control_c, 0, 64, 0
1, 79064, Note_off_c, 0, 68, 64
1, 79068, Note_off_c, 0, 59, 64
1, 79176, Control_c, 0, 64, 127
1, 79476, Note_off_c, 0, 45, 64
1, 79608, Note_on_c, 0, 72, 52
1, 79620, Note_off_c, 0, 69, 64
1, 79852, Note_on_c, 0, 67, 50
1, 79860, Note_on_c, 0, 55, 46
1, 79868, Control_c, 0, 64, 0
1, 79880, Note_off_c, 0, 72, 64
1, 79904, Control_c, 0, 64, 127
1, 79996, Note_off_c, 0, 60, 64
1, 80108, Note_on_c, 0, 53, 46
1, 80124, Note_on_c, 0, 65, 50
1, 80132, Note_off_c, 0, 55, 64
1, 80132, Note_off_c, 0, 67, 64
1, 80164, Control_c, 0, 64, 0
1, 80232, Control_c, 0, 64, 127
1, 80648, Note_on_c, 0, 52, 46
1, 80652, Note_on_c, 0, 64, 47
1, 80664, Note_off_c, 0, 65, 64
1, 80688, Control_c, 0, 64, 0
1, 80696, Note_off_c, 0, 53, 64
1, 80748, Control_c, 0, 64, 127
1, 81076, Note_on_c, 0, 55, 42
1, 81080, Note_on_c, 0, 67, 54
1, 81096, Note_off_c, 0, 64, 64
1, 81112, Note_off_c, 0, 52, 64
1, 81180, Note_on_c, 0, 64, 56
1, 81196, Note_on_c, 0, 52, 54
1, 81204, Control_c, 0, 64, 0
1, 81212, Note_off_c, 0, 67, 64
1, 81236, Note_off_c, 0, 55, 64
1, 81308, Control_c, 0, 64, 127
1, 81756, Note_on_c, 0, 59, 50
1, 81756, Note_on_c, 0, 40, 48
1, 81764, Note_on_c, 0, 55, 47
1, 81768, Note_on_c, 0, 47, 50
1, 81792, Control_c, 0, 64, 0
1, 81860, Control_c, 0, 64, 127
1, 82100, Note_off_c, 0, 59, 64
1, 82104, Note_off_c, 0, 40, 64
1, 82112, Note_off_c, 0, 55, 64
1, 82112, Note_off_c, 0, 47, 64
1, 82452, Note_on_c, 0, 57, 47
1, 82460, Note_on_c, 0, 45, 47
1, 82460, Note_on_c, 0, 60, 47
1, 82500, Control_c, 0, 64, 0
1, 82600, Control_c, 0, 64, 127
1, 82780, Note_off_c, 0, 52, 64
1, 82972, Note_on_c, 0, 67, 51
1, 82976, Note_on_c, 0, 55, 49
1, 82980, Note_off_c, 0, 64, 64
1, 83056, Note_on_c, 0, 64, 58
1, 83060, Note_off_c, 0, 57, 64
1, 83060, Note_on_c, 0, 52, 46
1, 83068, Note_off_c, 0, 45, 64
1, 83068, Note_off_c, 0, 60, 64
1, 83076, Control_c, 0, 64, 0
1, 83084, Note_off_c, 0, 67, 64
1, 83112, Note_off_c, 0, 55, 64
1, 83232, Control_c, 0, 64, 127
1, 83588, Note_on_c, 0, 59, 49
1, 83592, Note_on_c, 0, 55, 46
1, 83608, Note_on_c, 0, 47, 46
1, 83608, Note_on_c, 0, 40, 49
1, 83608, Control_c, 0, 64, 0
1, 83696, Control_c, 0, 64, 127
1, 83940, Note_off_c, 0, 59, 64
1, 83944, Note_off_c, 0, 55, 64
1, 83960, Note_off_c, 0, 47, 64
1, 83960, Note_off_c, 0, 40, 64
1, 84220, Note_on_c, 0, 60, 49
1, 84228, Note_on_c, 0, 57, 46
1, 84232, Note_on_c, 0, 45, 43
1, 84256, Control_c, 0, 64, 0
1, 84320, Control_c, 0, 64, 127
1, 84472, Note_off_c, 0, 52, 64
1, 84764, Note_on_c, 0, 67, 51
1, 84768, Note_off_c, 0, 64, 64
1, 84768, Note_on_c, 0, 55, 42
1, 84836, Note_off_c, 0, 60, 64
1, 84844, Note_off_c, 0, 57, 64
1, 84848, Note_off_c, 0, 45, 64
1, 84852, Note_on_c, 0, 52, 48
1, 84856, Note_on_c, 0, 64, 54
1, 84876, Note_off_c, 0, 67, 64
1, 84892, Control_c, 0, 64, 0
1, 84900, Note_off_c, 0, 55, 64
1, 85636, Note_on_c, 0, 45, 34
1, 85636, Note_on_c, 0, 57, 32
1, 85636, Note_on_c, 0, 60, 31
1, 85720, Control_c, 0, 64, 127
1, 85920, Note_off_c, 0, 52, 64
1, 85928, Note_off_c, 0, 64, 64
1, 86312, Note_on_c, 0, 55, 42
1, 86316, Note_off_c, 0, 45, 64
1, 86316, Note_off_c, 0, 57, 64
1, 86316, Note_off_c, 0, 60, 64
1, 86316, Note_on_c, 0, 67, 46
1, 87056, Note_on_c, 0, 72, 50
1, 87064, Note_on_c, 0, 60, 35
1, 87092, Control_c, 0, 64, 0
1, 87100, Note_off_c, 0, 67, 64
1, 87108, Note_off_c, 0, 55, 64
1, 87152, Control_c, 0, 64, 127
1, 87376, Note_on_c, 0, 67, 48
1, 87380, Note_on_c, 0, 55, 39
1, 87400, Note_off_c, 0, 72, 64
1, 87424, Note_off_c, 0, 60, 64
1, 87508, Control_c, 0, 64, 0
1, 87560, Control_c, 0, 64, 127
1, 87696, Note_on_c, 0, 53, 39
1, 87704, Note_on_c, 0, 65, 42
1, 87716, Note_off_c, 0, 55, 64
1, 87740, Note_off_c, 0, 67, 64
1, 87760, Control_c, 0, 64, 0
1, 87876, Control_c, 0, 64, 127
1, 88440, Note_on_c, 0, 64, 34
1, 88456, Note_on_c, 0, 52, 34
1, 88468, Note_off_c, 0, 65, 64
1, 88488, Control_c, 0, 64, 0
1, 88496, Note_off_c, 0, 53, 64
1, 88540, Control_c, 0, 64, 127
1, 89088, Note_on_c, 0, 55, 36
1, 89096, Note_on_c, 0, 67, 46
1, 89104, Note_off_c, 0, 52, 64
1, 89120, Note_off_c, 0, 64, 64
1, 89220, Note_on_c, 0, 64, 46
1, 89236, Note_on_c, 0, 52, 37
1, 89248, Note_off_c, 0, 55, 64
1, 89260, Note_off_c, 0, 67, 64
1, 89260, Control_c, 0, 64, 0
1, 89396, Control_c, 0, 64, 127
1, 90400, Note_on_c, 0, 59, 25
1, 90412, Note_on_c, 0, 40, 25
1, 90416, Note_on_c, 0, 47, 26
1, 90420, Note_on_c, 0, 55, 23
1, 90528, Control_c, 0, 64, 0
1, 94316, Note_off_c, 0, 52, 64
1, 94328, Note_off_c, 0, 40, 64
1, 94336, Note_off_c, 0, 47, 64
1, 94360, Note_off_c, 0, 55, 64
1, 94376, Note_off_c, 0, 59, 64
1, 94408, Note_off_c, 0, 64, 64
1, 94408, End_track
2, 0, Start_track
2, 1, Copyright_t, "__________________________________________________________\012\012KUNSTDERFUGE.COM GREAT CLASSICAL MIDI COLLECTION\012__________________________________________________________\012\012KUNST-DER-FUGE CONTRIBUTOR's PROPERTY\012Copyright by Contributor & Kunst der Fuge, © 2006\012\012Contributors' list: http://kunstderfuge.com/thanks.htm\012Terms and conditions: http://kunstderfuge.com/notes.htm\012__________________________________________________________\012\012NO WEBSITE MAY PUBLISH THIS FILE WITHOUT PERMISSION\012NO COMMERCIAL USE ALLOWED, NOR BY SALES NOR by eBay!\012PLEASE REPORT ANY ABUSE TO INFO@ONCLASSICAL.COM\012__________________________________________________________\012\012Thousands of free classical MIDI files at kunstderfuge.com"
2, 1, End_track
0, 0, End_of_file
