0, 0, Header, 0, 2, 384
1, 0, Start_track
1, 0, Title_t, "Chopin's Mazurkas (played by © Ron Lubetsky)"
1, 0, Time_signature, 4, 2, 96, 8
1, 0, Sequencer_specific, 3, 0, 0, 65
1, 0, Tempo, 500000
1, 1416, Control_c, 0, 64, 127
1, 1448, Note_on_c, 0, 76, 46
1, 1588, Note_on_c, 0, 71, 50
1, 1624, Note_off_c, 0, 76, 64
1, 1740, Note_on_c, 0, 72, 50
1, 1740, Control_c, 0, 64, 0
1, 1752, Note_off_c, 0, 71, 64
1, 1828, Control_c, 0, 64, 127
1, 2100, Control_c, 0, 64, 0
1, 2104, Note_on_c, 0, 69, 44
1, 2132, Note_off_c, 0, 72, 64
1, 2172, Control_c, 0, 64, 127
1, 2456, Control_c, 0, 64, 0
1, 2472, Note_on_c, 0, 71, 47
1, 2500, Note_off_c, 0, 69, 64
1, 2504, Control_c, 0, 64, 127
1, 2624, Note_on_c, 0, 68, 44
1, 2672, Note_off_c, 0, 71, 64
1, 2708, Control_c, 0, 64, 0
1, 2776, Note_on_c, 0, 64, 50
1, 2796, Control_c, 0, 64, 127
1, 2824, Note_off_c, 0, 68, 64
1, 3168, Note_on_c, 0, 62, 25
1, 3168, Note_on_c, 0, 59, 35
1, 3180, Note_on_c, 0, 52, 25
1, 3192, Control_c, 0, 64, 0
1, 3304, Control_c, 0, 64, 127
1, 3572, Note_off_c, 0, 52, 64
1, 3572, Note_on_c, 0, 66, 51
1, 3584, Note_off_c, 0, 62, 64
1, 3592, Note_off_c, 0, 59, 64
1, 3608, Note_off_c, 0, 64, 64
1, 3696, Note_on_c, 0, 68, 49
1, 3736, Note_off_c, 0, 66, 64
1, 3852, Note_on_c, 0, 54, 41
1, 3852, Note_on_c, 0, 52, 43
1, 3864, Note_on_c, 0, 62, 49
1, 3868, Note_on_c, 0, 69, 52
1, 3880, Control_c, 0, 64, 0
1, 3888, Note_off_c, 0, 68, 64
1, 3948, Control_c, 0, 64, 127
1, 4044, Note_off_c, 0, 54, 64
1, 4044, Note_off_c, 0, 52, 64
1, 4056, Note_off_c, 0, 62, 64
1, 4196, Note_on_c, 0, 71, 59
1, 4200, Note_on_c, 0, 56, 36
1, 4204, Note_on_c, 0, 62, 34
1, 4204, Control_c, 0, 64, 0
1, 4216, Note_off_c, 0, 69, 64
1, 4216, Note_on_c, 0, 52, 28
1, 4256, Control_c, 0, 64, 127
1, 4392, Note_off_c, 0, 56, 64
1, 4396, Note_off_c, 0, 62, 64
1, 4408, Note_off_c, 0, 52, 64
1, 4536, Note_on_c, 0, 72, 50
1, 4536, Note_on_c, 0, 45, 55
1, 4544, Note_off_c, 0, 71, 64
1, 4544, Control_c, 0, 64, 0
1, 4600, Control_c, 0, 64, 127
1, 4680, Note_on_c, 0, 77, 55
1, 4704, Note_off_c, 0, 72, 64
1, 4828, Note_on_c, 0, 76, 59
1, 4836, Control_c, 0, 64, 0
1, 4844, Note_off_c, 0, 77, 64
1, 4852, Note_on_c, 0, 52, 49
1, 4856, Note_on_c, 0, 60, 41
1, 4920, Control_c, 0, 64, 127
1, 5048, Note_off_c, 0, 45, 64
1, 5148, Note_off_c, 0, 52, 64
1, 5152, Note_off_c, 0, 60, 64
1, 5184, Note_on_c, 0, 44, 57
1, 5200, Control_c, 0, 64, 0
1, 5244, Control_c, 0, 64, 127
1, 5588, Note_on_c, 0, 79, 59
1, 5592, Note_on_c, 0, 43, 51
1, 5592, Control_c, 0, 64, 0
1, 5616, Note_off_c, 0, 44, 64
1, 5632, Note_off_c, 0, 76, 64
1, 5648, Control_c, 0, 64, 127
1, 5736, Note_on_c, 0, 74, 57
1, 5768, Note_off_c, 0, 79, 64
1, 5880, Note_on_c, 0, 76, 54
1, 5888, Note_on_c, 0, 60, 41
1, 5896, Note_on_c, 0, 64, 41
1, 5908, Note_on_c, 0, 55, 34
1, 5916, Note_off_c, 0, 74, 64
1, 5920, Control_c, 0, 64, 0
1, 5972, Control_c, 0, 64, 127
1, 6080, Note_off_c, 0, 60, 64
1, 6088, Note_off_c, 0, 64, 64
1, 6100, Note_off_c, 0, 43, 64
1, 6100, Note_off_c, 0, 55, 64
1, 6180, Note_on_c, 0, 72, 56
1, 6192, Note_off_c, 0, 76, 64
1, 6192, Note_on_c, 0, 64, 42
1, 6204, Note_on_c, 0, 69, 29
1, 6204, Note_on_c, 0, 60, 32
1, 6232, Control_c, 0, 64, 0
1, 6300, Control_c, 0, 64, 127
1, 6492, Note_off_c, 0, 69, 64
1, 6496, Note_off_c, 0, 64, 64
1, 6496, Note_on_c, 0, 74, 57
1, 6516, Note_off_c, 0, 60, 64
1, 6540, Note_off_c, 0, 72, 64
1, 6644, Note_on_c, 0, 71, 57
1, 6688, Note_off_c, 0, 74, 64
1, 6784, Note_on_c, 0, 67, 56
1, 6804, Note_on_c, 0, 62, 36
1, 6816, Note_on_c, 0, 65, 37
1, 6816, Note_on_c, 0, 55, 41
1, 6824, Note_off_c, 0, 71, 64
1, 6832, Control_c, 0, 64, 0
1, 6880, Control_c, 0, 64, 127
1, 6996, Note_off_c, 0, 62, 64
1, 7008, Note_off_c, 0, 65, 64
1, 7008, Note_off_c, 0, 55, 64
1, 7180, Note_on_c, 0, 65, 26
1, 7188, Note_on_c, 0, 59, 25
1, 7200, Note_on_c, 0, 55, 26
1, 7232, Control_c, 0, 64, 0
1, 7316, Control_c, 0, 64, 127
1, 7512, Note_on_c, 0, 69, 56
1, 7524, Note_off_c, 0, 59, 64
1, 7524, Note_off_c, 0, 55, 64
1, 7556, Note_off_c, 0, 67, 64
1, 7556, Note_off_c, 0, 65, 64
1, 7640, Note_on_c, 0, 71, 56
1, 7680, Note_off_c, 0, 69, 64
1, 7780, Note_on_c, 0, 57, 39
1, 7784, Note_on_c, 0, 65, 44
1, 7792, Note_on_c, 0, 55, 41
1, 7796, Note_off_c, 0, 71, 64
1, 7796, Note_on_c, 0, 72, 56
1, 7800, Control_c, 0, 64, 0
1, 7872, Control_c, 0, 64, 127
1, 7972, Note_off_c, 0, 57, 64
1, 7976, Note_off_c, 0, 65, 64
1, 7984, Note_off_c, 0, 55, 64
1, 8104, Note_on_c, 0, 74, 59
1, 8104, Note_on_c, 0, 65, 41
1, 8112, Note_on_c, 0, 59, 39
1, 8116, Note_on_c, 0, 55, 35
1, 8124, Note_off_c, 0, 72, 64
1, 8296, Note_off_c, 0, 65, 64
1, 8304, Note_off_c, 0, 59, 64
1, 8308, Note_off_c, 0, 55, 64
1, 8444, Note_on_c, 0, 76, 49
1, 8460, Note_on_c, 0, 48, 36
1, 8472, Control_c, 0, 64, 0
1, 8488, Note_off_c, 0, 74, 64
1, 8524, Control_c, 0, 64, 127
1, 8664, Note_on_c, 0, 78, 41
1, 8688, Note_off_c, 0, 76, 64
1, 8808, Note_off_c, 0, 78, 64
1, 8808, Note_on_c, 0, 76, 60
1, 8888, Note_on_c, 0, 54, 25
1, 8892, Note_on_c, 0, 58, 33
1, 8896, Note_on_c, 0, 78, 43
1, 8916, Note_on_c, 0, 64, 24
1, 8928, Note_off_c, 0, 76, 64
1, 8932, Note_off_c, 0, 48, 64
1, 8980, Note_on_c, 0, 80, 44
1, 9000, Note_off_c, 0, 78, 64
1, 9048, Note_on_c, 0, 78, 62
1, 9060, Note_off_c, 0, 80, 64
1, 9120, Note_off_c, 0, 78, 64
1, 9132, Note_on_c, 0, 80, 65
1, 9140, Note_off_c, 0, 54, 64
1, 9144, Note_off_c, 0, 58, 64
1, 9168, Note_off_c, 0, 64, 64
1, 9184, Note_on_c, 0, 78, 62
1, 9188, Note_off_c, 0, 80, 64
1, 9240, Note_off_c, 0, 78, 64
1, 9248, Note_on_c, 0, 80, 63
1, 9292, Note_on_c, 0, 78, 62
1, 9300, Note_off_c, 0, 80, 64
1, 9312, Note_on_c, 0, 48, 52
1, 9336, Note_off_c, 0, 78, 64
1, 9348, Note_on_c, 0, 80, 69
1, 9400, Note_off_c, 0, 80, 64
1, 9408, Note_on_c, 0, 78, 62
1, 9456, Note_on_c, 0, 80, 65
1, 9472, Note_off_c, 0, 78, 64
1, 9504, Note_on_c, 0, 78, 47
1, 9508, Note_off_c, 0, 80, 64
1, 9524, Note_on_c, 0, 76, 56
1, 9556, Note_off_c, 0, 78, 64
1, 9640, Note_on_c, 0, 78, 62
1, 9676, Note_off_c, 0, 76, 64
1, 9788, Note_on_c, 0, 80, 59
1, 9800, Note_off_c, 0, 78, 64
1, 9800, Note_on_c, 0, 47, 50
1, 9812, Control_c, 0, 64, 0
1, 9828, Note_off_c, 0, 48, 64
1, 9848, Control_c, 0, 64, 127
1, 9960, Note_on_c, 0, 71, 49
1, 9976, Note_off_c, 0, 80, 64
1, 10136, Note_on_c, 0, 80, 57
1, 10144, Note_on_c, 0, 56, 49
1, 10160, Note_on_c, 0, 64, 27
1, 10160, Control_c, 0, 64, 0
1, 10172, Note_on_c, 0, 59, 24
1, 10184, Note_off_c, 0, 71, 64
1, 10220, Control_c, 0, 64, 127
1, 10336, Note_off_c, 0, 56, 64
1, 10352, Note_off_c, 0, 64, 64
1, 10364, Note_off_c, 0, 59, 64
1, 10484, Note_on_c, 0, 78, 59
1, 10492, Note_on_c, 0, 57, 43
1, 10492, Note_on_c, 0, 63, 28
1, 10504, Note_on_c, 0, 59, 32
1, 10508, Note_off_c, 0, 80, 64
1, 10520, Control_c, 0, 64, 0
1, 10524, Note_off_c, 0, 47, 64
1, 10560, Control_c, 0, 64, 127
1, 10640, Note_on_c, 0, 80, 59
1, 10672, Note_off_c, 0, 78, 64
1, 10704, Note_off_c, 0, 63, 64
1, 10708, Note_off_c, 0, 59, 64
1, 10720, Note_off_c, 0, 57, 64
1, 10800, Note_on_c, 0, 76, 60
1, 10804, Note_on_c, 0, 52, 49
1, 10816, Control_c, 0, 64, 0
1, 10836, Note_off_c, 0, 80, 64
1, 10868, Control_c, 0, 64, 127
1, 11080, Note_off_c, 0, 76, 64
1, 11096, Note_on_c, 0, 71, 44
1, 11152, Note_on_c, 0, 68, 35
1, 11152, Note_on_c, 0, 59, 41
1, 11160, Note_on_c, 0, 56, 41
1, 11168, Note_on_c, 0, 64, 34
1, 11176, Note_on_c, 0, 76, 57
1, 11188, Control_c, 0, 64, 0
1, 11204, Note_off_c, 0, 71, 64
1, 11228, Control_c, 0, 64, 127
1, 11268, Note_off_c, 0, 52, 64
1, 11344, Note_off_c, 0, 68, 64
1, 11344, Note_off_c, 0, 59, 64
1, 11352, Note_off_c, 0, 56, 64
1, 11360, Note_off_c, 0, 64, 64
1, 11524, Note_on_c, 0, 57, 47
1, 11536, Note_on_c, 0, 61, 32
1, 11556, Note_on_c, 0, 67, 25
1, 11560, Control_c, 0, 64, 0
1, 11596, Control_c, 0, 64, 127
1, 11716, Note_off_c, 0, 57, 64
1, 11728, Note_off_c, 0, 61, 64
1, 11748, Note_off_c, 0, 67, 64
1, 11896, Note_on_c, 0, 77, 51
1, 11904, Note_on_c, 0, 50, 48
1, 11920, Control_c, 0, 64, 0
1, 11928, Note_off_c, 0, 76, 64
1, 11956, Control_c, 0, 64, 127
1, 12072, Note_on_c, 0, 69, 48
1, 12096, Note_off_c, 0, 77, 64
1, 12252, Note_on_c, 0, 74, 54
1, 12260, Note_on_c, 0, 57, 36
1, 12268, Note_on_c, 0, 62, 40
1, 12272, Note_on_c, 0, 65, 36
1, 12272, Control_c, 0, 64, 0
1, 12296, Note_off_c, 0, 69, 64
1, 12336, Control_c, 0, 64, 127
1, 12368, Note_off_c, 0, 50, 64
1, 12452, Note_off_c, 0, 57, 64
1, 12460, Note_off_c, 0, 62, 64
1, 12464, Note_off_c, 0, 65, 64
1, 12660, Note_on_c, 0, 56, 39
1, 12664, Note_on_c, 0, 52, 39
1, 12668, Note_on_c, 0, 71, 54
1, 12676, Note_on_c, 0, 62, 35
1, 12680, Control_c, 0, 64, 0
1, 12692, Note_off_c, 0, 74, 64
1, 12716, Control_c, 0, 64, 127
1, 12852, Note_off_c, 0, 56, 64
1, 12856, Note_off_c, 0, 52, 64
1, 12868, Note_off_c, 0, 62, 64
1, 12992, Note_on_c, 0, 72, 47
1, 12996, Note_off_c, 0, 71, 64
1, 13092, Note_on_c, 0, 71, 48
1, 13124, Note_off_c, 0, 72, 64
1, 13144, Note_on_c, 0, 45, 44
1, 13160, Note_on_c, 0, 69, 55
1, 13188, Note_off_c, 0, 71, 64
1, 13200, Control_c, 0, 64, 0
1, 13268, Control_c, 0, 64, 127
1, 13600, Note_on_c, 0, 68, 44
1, 13624, Note_off_c, 0, 69, 64
1, 13692, Note_on_c, 0, 69, 43
1, 13708, Note_off_c, 0, 68, 64
1, 13716, Note_on_c, 0, 60, 23
1, 13716, Note_on_c, 0, 52, 24
1, 13744, Control_c, 0, 64, 0
1, 13816, Note_off_c, 0, 45, 64
1, 13816, Control_c, 0, 64, 127
1, 14032, Note_off_c, 0, 60, 64
1, 14060, Note_off_c, 0, 52, 64
1, 14396, Note_on_c, 0, 52, 23
1, 14404, Note_on_c, 0, 60, 19
1, 14492, Control_c, 0, 64, 0
1, 14548, Control_c, 0, 64, 127
1, 14932, Note_on_c, 0, 76, 44
1, 14956, Control_c, 0, 64, 0
1, 15012, Control_c, 0, 64, 127
1, 15020, Note_off_c, 0, 52, 64
1, 15024, Note_off_c, 0, 69, 64
1, 15024, Note_off_c, 0, 60, 64
1, 15144, Note_on_c, 0, 71, 51
1, 15192, Note_off_c, 0, 76, 64
1, 15300, Control_c, 0, 64, 0
1, 15316, Note_on_c, 0, 72, 51
1, 15336, Note_off_c, 0, 71, 64
1, 15376, Control_c, 0, 64, 127
1, 15616, Control_c, 0, 64, 0
1, 15648, Note_on_c, 0, 69, 51
1, 15656, Note_off_c, 0, 72, 64
1, 15684, Control_c, 0, 64, 127
1, 15948, Control_c, 0, 64, 0
1, 15968, Note_on_c, 0, 71, 51
1, 16000, Note_off_c, 0, 69, 64
1, 16028, Control_c, 0, 64, 127
1, 16124, Note_on_c, 0, 68, 55
1, 16172, Note_off_c, 0, 71, 64
1, 16232, Control_c, 0, 64, 0
1, 16268, Note_on_c, 0, 64, 52
1, 16304, Control_c, 0, 64, 127
1, 16320, Note_off_c, 0, 68, 64
1, 16648, Note_on_c, 0, 52, 43
1, 16656, Note_on_c, 0, 62, 35
1, 16660, Note_on_c, 0, 59, 40
1, 16672, Control_c, 0, 64, 0
1, 16756, Control_c, 0, 64, 127
1, 16960, Control_c, 0, 64, 0
1, 17012, Control_c, 0, 64, 127
1, 17020, Note_on_c, 0, 66, 52
1, 17036, Note_off_c, 0, 52, 64
1, 17048, Note_off_c, 0, 59, 64
1, 17056, Note_off_c, 0, 62, 64
1, 17056, Note_off_c, 0, 64, 64
1, 17140, Note_on_c, 0, 68, 51
1, 17188, Note_off_c, 0, 66, 64
1, 17292, Control_c, 0, 64, 0
1, 17300, Note_on_c, 0, 54, 34
1, 17304, Note_off_c, 0, 68, 64
1, 17304, Note_on_c, 0, 69, 50
1, 17304, Note_on_c, 0, 62, 44
1, 17304, Note_on_c, 0, 52, 48
1, 17360, Control_c, 0, 64, 127
1, 17492, Note_off_c, 0, 54, 64
1, 17496, Note_off_c, 0, 62, 64
1, 17496, Note_off_c, 0, 52, 64
1, 17612, Control_c, 0, 64, 0
1, 17632, Note_on_c, 0, 71, 59
1, 17632, Note_on_c, 0, 62, 43
1, 17632, Note_on_c, 0, 56, 44
1, 17640, Note_off_c, 0, 69, 64
1, 17640, Note_on_c, 0, 52, 43
1, 17672, Control_c, 0, 64, 127
1, 17824, Note_off_c, 0, 62, 64
1, 17824, Note_off_c, 0, 56, 64
1, 17832, Note_off_c, 0, 52, 64
1, 17984, Note_on_c, 0, 45, 50
1, 17992, Note_on_c, 0, 72, 55
1, 17996, Note_off_c, 0, 71, 64
1, 18000, Control_c, 0, 64, 0
1, 18052, Control_c, 0, 64, 127
1, 18132, Note_on_c, 0, 77, 55
1, 18164, Note_off_c, 0, 72, 64
1, 18272, Control_c, 0, 64, 0
1, 18280, Note_on_c, 0, 76, 62
1, 18304, Note_off_c, 0, 77, 64
1, 18304, Note_on_c, 0, 60, 36
1, 18308, Note_on_c, 0, 52, 44
1, 18352, Control_c, 0, 64, 127
1, 18528, Note_off_c, 0, 45, 64
1, 18568, Note_off_c, 0, 60, 64
1, 18572, Note_off_c, 0, 52, 64
1, 18620, Note_on_c, 0, 44, 51
1, 18644, Control_c, 0, 64, 0
1, 18700, Control_c, 0, 64, 127
1, 18976, Note_off_c, 0, 76, 64
1, 18992, Control_c, 0, 64, 0
1, 19004, Note_on_c, 0, 43, 51
1, 19008, Note_on_c, 0, 79, 59
1, 19032, Note_off_c, 0, 44, 64
1, 19056, Control_c, 0, 64, 127
1, 19160, Note_on_c, 0, 74, 62
1, 19196, Note_off_c, 0, 79, 64
1, 19304, Note_on_c, 0, 76, 54
1, 19312, Note_on_c, 0, 64, 49
1, 19312, Note_on_c, 0, 55, 40
1, 19320, Note_on_c, 0, 60, 36
1, 19340, Control_c, 0, 64, 0
1, 19356, Note_off_c, 0, 74, 64
1, 19400, Control_c, 0, 64, 127
1, 19504, Note_off_c, 0, 64, 64
1, 19504, Note_off_c, 0, 55, 64
1, 19512, Note_off_c, 0, 60, 64
1, 19520, Note_off_c, 0, 43, 64
1, 19636, Note_on_c, 0, 72, 57
1, 19648, Note_on_c, 0, 64, 24
1, 19652, Note_off_c, 0, 76, 64
1, 19652, Note_on_c, 0, 60, 44
1, 19668, Note_on_c, 0, 69, 34
1, 19668, Control_c, 0, 64, 0
1, 19736, Control_c, 0, 64, 127
1, 19936, Note_off_c, 0, 69, 64
1, 19940, Note_off_c, 0, 72, 64
1, 19940, Note_on_c, 0, 74, 58
1, 19964, Note_off_c, 0, 64, 64
1, 19968, Note_off_c, 0, 60, 64
1, 20076, Note_on_c, 0, 71, 56
1, 20120, Note_off_c, 0, 74, 64
1, 20224, Note_on_c, 0, 67, 51
1, 20232, Note_on_c, 0, 62, 48
1, 20232, Note_on_c, 0, 55, 44
1, 20240, Note_off_c, 0, 71, 64
1, 20248, Note_on_c, 0, 65, 34
1, 20256, Control_c, 0, 64, 0
1, 20320, Control_c, 0, 64, 127
1, 20424, Note_off_c, 0, 62, 64
1, 20424, Note_off_c, 0, 55, 64
1, 20440, Note_off_c, 0, 65, 64
1, 20540, Note_on_c, 0, 65, 35
1, 20540, Note_on_c, 0, 59, 43
1, 20552, Note_on_c, 0, 55, 28
1, 20564, Control_c, 0, 64, 0
1, 20632, Control_c, 0, 64, 127
1, 20828, Control_c, 0, 64, 0
1, 20848, Note_on_c, 0, 69, 58
1, 20856, Note_off_c, 0, 59, 64
1, 20868, Note_off_c, 0, 55, 64
1, 20872, Control_c, 0, 64, 127
1, 20892, Note_off_c, 0, 67, 64
1, 20896, Note_off_c, 0, 65, 64
1, 20980, Note_on_c, 0, 71, 55
1, 21024, Note_off_c, 0, 69, 64
1, 21120, Note_on_c, 0, 55, 51
1, 21120, Control_c, 0, 64, 0
1, 21128, Note_on_c, 0, 72, 59
1, 21128, Note_on_c, 0, 65, 49
1, 21128, Note_on_c, 0, 57, 49
1, 21144, Note_off_c, 0, 71, 64
1, 21168, Control_c, 0, 64, 127
1, 21312, Note_off_c, 0, 55, 64
1, 21320, Note_off_c, 0, 65, 64
1, 21320, Note_off_c, 0, 57, 64
1, 21420, Note_on_c, 0, 74, 59
1, 21420, Note_on_c, 0, 59, 51
1, 21436, Note_off_c, 0, 72, 64
1, 21436, Note_on_c, 0, 65, 49
1, 21436, Note_on_c, 0, 55, 44
1, 21612, Note_off_c, 0, 59, 64
1, 21628, Note_off_c, 0, 55, 64
1, 21628, Note_off_c, 0, 65, 64
1, 21752, Note_on_c, 0, 48, 37
1, 21760, Note_on_c, 0, 76, 55
1, 21792, Control_c, 0, 64, 0
1, 21804, Note_off_c, 0, 74, 64
1, 21844, Control_c, 0, 64, 127
1, 21956, Note_on_c, 0, 78, 52
1, 21992, Note_off_c, 0, 76, 64
1, 22108, Note_on_c, 0, 76, 62
1, 22144, Note_off_c, 0, 78, 64
1, 22220, Note_on_c, 0, 58, 32
1, 22224, Note_on_c, 0, 64, 28
1, 22232, Note_on_c, 0, 78, 59
1, 22232, Note_on_c, 0, 54, 26
1, 22268, Note_off_c, 0, 76, 64
1, 22368, Note_off_c, 0, 48, 64
1, 22368, Note_off_c, 0, 78, 64
1, 22376, Note_on_c, 0, 80, 44
1, 22412, Note_off_c, 0, 58, 64
1, 22416, Note_off_c, 0, 64, 64
1, 22424, Note_off_c, 0, 54, 64
1, 22444, Note_on_c, 0, 78, 62
1, 22456, Note_off_c, 0, 80, 64
1, 22516, Note_off_c, 0, 78, 64
1, 22528, Note_on_c, 0, 80, 65
1, 22576, Note_on_c, 0, 78, 62
1, 22584, Note_off_c, 0, 80, 64
1, 22636, Note_off_c, 0, 78, 64
1, 22644, Note_on_c, 0, 80, 63
1, 22656, Note_on_c, 0, 48, 49
1, 22688, Note_on_c, 0, 78, 62
1, 22696, Note_off_c, 0, 80, 64
1, 22732, Note_off_c, 0, 78, 64
1, 22744, Note_on_c, 0, 80, 69
1, 22792, Note_off_c, 0, 80, 64
1, 22800, Note_on_c, 0, 78, 62
1, 22852, Note_on_c, 0, 80, 65
1, 22868, Note_off_c, 0, 78, 64
1, 22896, Note_on_c, 0, 78, 47
1, 22904, Note_off_c, 0, 80, 64
1, 22952, Note_off_c, 0, 78, 64
1, 22952, Note_on_c, 0, 76, 52
1, 23060, Note_on_c, 0, 78, 62
1, 23084, Note_off_c, 0, 76, 64
1, 23176, Note_on_c, 0, 80, 60
1, 23184, Control_c, 0, 64, 0
1, 23196, Note_on_c, 0, 47, 52
1, 23200, Note_off_c, 0, 78, 64
1, 23244, Control_c, 0, 64, 127
1, 23256, Note_off_c, 0, 48, 64
1, 23340, Note_on_c, 0, 71, 36
1, 23368, Note_off_c, 0, 80, 64
1, 23520, Note_on_c, 0, 80, 51
1, 23532, Note_on_c, 0, 56, 46
1, 23536, Note_on_c, 0, 64, 44
1, 23544, Note_on_c, 0, 59, 41
1, 23556, Control_c, 0, 64, 0
1, 23564, Note_off_c, 0, 71, 64
1, 23608, Control_c, 0, 64, 127
1, 23652, Note_off_c, 0, 47, 64
1, 23724, Note_off_c, 0, 56, 64
1, 23728, Note_off_c, 0, 64, 64
1, 23736, Note_off_c, 0, 59, 64
1, 23860, Note_on_c, 0, 78, 58
1, 23872, Note_on_c, 0, 63, 39
1, 23872, Control_c, 0, 64, 0
1, 23880, Note_off_c, 0, 80, 64
1, 23880, Note_on_c, 0, 57, 34
1, 23892, Note_on_c, 0, 59, 26
1, 23920, Control_c, 0, 64, 127
1, 24028, Note_on_c, 0, 80, 60
1, 24064, Note_off_c, 0, 78, 64
1, 24064, Note_off_c, 0, 63, 64
1, 24072, Note_off_c, 0, 57, 64
1, 24084, Note_off_c, 0, 59, 64
1, 24184, Note_on_c, 0, 76, 59
1, 24196, Note_on_c, 0, 52, 51
1, 24200, Control_c, 0, 64, 0
1, 24216, Note_off_c, 0, 80, 64
1, 24256, Control_c, 0, 64, 127
1, 24476, Note_off_c, 0, 76, 64
1, 24484, Note_on_c, 0, 71, 50
1, 24556, Note_on_c, 0, 68, 31
1, 24560, Note_on_c, 0, 56, 44
1, 24572, Note_on_c, 0, 59, 44
1, 24572, Note_on_c, 0, 64, 43
1, 24584, Note_on_c, 0, 76, 62
1, 24592, Control_c, 0, 64, 0
1, 24616, Note_off_c, 0, 71, 64
1, 24664, Note_off_c, 0, 52, 64
1, 24668, Control_c, 0, 64, 127
1, 24748, Note_off_c, 0, 68, 64
1, 24752, Note_off_c, 0, 56, 64
1, 24764, Note_off_c, 0, 59, 64
1, 24764, Note_off_c, 0, 64, 64
1, 24980, Note_on_c, 0, 61, 26
1, 24984, Note_on_c, 0, 57, 43
1, 24996, Note_on_c, 0, 67, 31
1, 25016, Control_c, 0, 64, 0
1, 25088, Control_c, 0, 64, 127
1, 25172, Note_off_c, 0, 61, 64
1, 25176, Note_off_c, 0, 57, 64
1, 25188, Note_off_c, 0, 67, 64
1, 25392, Note_on_c, 0, 77, 51
1, 25408, Note_on_c, 0, 50, 49
1, 25424, Control_c, 0, 64, 0
1, 25440, Note_off_c, 0, 76, 64
1, 25480, Control_c, 0, 64, 127
1, 25596, Note_on_c, 0, 69, 48
1, 25656, Note_off_c, 0, 77, 64
1, 25772, Note_on_c, 0, 74, 51
1, 25776, Note_on_c, 0, 57, 37
1, 25784, Note_on_c, 0, 65, 34
1, 25784, Note_on_c, 0, 62, 32
1, 25792, Control_c, 0, 64, 0
1, 25836, Note_off_c, 0, 69, 64
1, 25852, Control_c, 0, 64, 127
1, 25888, Note_off_c, 0, 50, 64
1, 25968, Note_off_c, 0, 57, 64
1, 25976, Note_off_c, 0, 65, 64
1, 25976, Note_off_c, 0, 62, 64
1, 26192, Note_on_c, 0, 71, 54
1, 26200, Note_on_c, 0, 56, 33
1, 26212, Note_on_c, 0, 52, 34
1, 26216, Note_on_c, 0, 62, 27
1, 26220, Note_off_c, 0, 74, 64
1, 26232, Control_c, 0, 64, 0
1, 26288, Control_c, 0, 64, 127
1, 26392, Note_off_c, 0, 56, 64
1, 26404, Note_off_c, 0, 52, 64
1, 26408, Note_off_c, 0, 62, 64
1, 26520, Note_off_c, 0, 71, 64
1, 26520, Note_on_c, 0, 72, 46
1, 26600, Note_on_c, 0, 71, 44
1, 26632, Note_off_c, 0, 72, 64
1, 26668, Note_on_c, 0, 69, 54
1, 26676, Note_on_c, 0, 45, 43
1, 26696, Note_off_c, 0, 71, 64
1, 26724, Control_c, 0, 64, 0
1, 26792, Control_c, 0, 64, 127
1, 27088, Note_on_c, 0, 68, 43
1, 27120, Note_off_c, 0, 69, 64
1, 27180, Note_on_c, 0, 69, 41
1, 27192, Note_on_c, 0, 52, 28
1, 27196, Note_off_c, 0, 68, 64
1, 27196, Note_on_c, 0, 60, 24
1, 27212, Control_c, 0, 64, 0
1, 27284, Control_c, 0, 64, 127
1, 27296, Note_off_c, 0, 45, 64
1, 27524, Note_off_c, 0, 52, 64
1, 27528, Note_off_c, 0, 60, 64
1, 27604, Note_on_c, 0, 52, 36
1, 27604, Note_on_c, 0, 60, 26
1, 27632, Control_c, 0, 64, 0
1, 27696, Control_c, 0, 64, 127
1, 27972, Note_on_c, 0, 47, 50
1, 27984, Control_c, 0, 64, 0
1, 27992, Note_off_c, 0, 52, 64
1, 27996, Note_off_c, 0, 60, 64
1, 28056, Control_c, 0, 64, 127
1, 28388, Note_on_c, 0, 59, 44
1, 28392, Note_on_c, 0, 66, 52
1, 28392, Note_on_c, 0, 63, 26
1, 28396, Control_c, 0, 64, 0
1, 28404, Note_on_c, 0, 57, 26
1, 28408, Control_c, 0, 64, 0
1, 28416, Note_off_c, 0, 69, 64
1, 28448, Note_off_c, 0, 47, 64
1, 28456, Control_c, 0, 64, 127
1, 28468, Control_c, 0, 64, 127
1, 28576, Note_off_c, 0, 59, 64
1, 28576, Note_on_c, 0, 68, 41
1, 28584, Note_off_c, 0, 63, 64
1, 28592, Note_off_c, 0, 57, 64
1, 28612, Note_off_c, 0, 66, 64
1, 28728, Control_c, 0, 64, 0
1, 28732, Note_on_c, 0, 63, 40
1, 28736, Note_on_c, 0, 59, 44
1, 28736, Note_on_c, 0, 57, 26
1, 28744, Note_on_c, 0, 69, 55
1, 28760, Note_off_c, 0, 68, 64
1, 28788, Control_c, 0, 64, 127
1, 28900, Note_on_c, 0, 78, 50
1, 28920, Note_off_c, 0, 63, 64
1, 28920, Note_off_c, 0, 59, 64
1, 28924, Note_off_c, 0, 57, 64
1, 28928, Note_off_c, 0, 69, 64
1, 29056, Note_off_c, 0, 78, 64
1, 29056, Note_on_c, 0, 76, 50
1, 29068, Note_on_c, 0, 40, 56
1, 29084, Control_c, 0, 64, 0
1, 29156, Control_c, 0, 64, 127
1, 29216, Note_on_c, 0, 69, 43
1, 29248, Note_off_c, 0, 76, 64
1, 29384, Note_on_c, 0, 68, 51
1, 29392, Note_on_c, 0, 64, 26
1, 29392, Note_on_c, 0, 56, 29
1, 29400, Note_on_c, 0, 59, 36
1, 29408, Control_c, 0, 64, 0
1, 29472, Control_c, 0, 64, 127
1, 29496, Note_off_c, 0, 69, 64
1, 29552, Note_off_c, 0, 40, 64
1, 29584, Note_off_c, 0, 56, 64
1, 29592, Note_off_c, 0, 64, 64
1, 29592, Note_off_c, 0, 59, 64
1, 29720, Note_on_c, 0, 64, 29
1, 29720, Note_on_c, 0, 56, 35
1, 29724, Note_on_c, 0, 59, 32
1, 29912, Note_off_c, 0, 64, 64
1, 29912, Note_off_c, 0, 56, 64
1, 29916, Note_off_c, 0, 59, 64
1, 30052, Note_on_c, 0, 46, 50
1, 30064, Control_c, 0, 64, 0
1, 30112, Control_c, 0, 64, 127
1, 30256, Note_on_c, 0, 70, 52
1, 30276, Note_off_c, 0, 68, 64
1, 30324, Note_on_c, 0, 68, 63
1, 30364, Note_off_c, 0, 70, 64
1, 30364, Note_on_c, 0, 56, 34
1, 30380, Note_on_c, 0, 58, 34
1, 30384, Note_on_c, 0, 62, 33
1, 30400, Note_on_c, 0, 65, 62
1, 30400, Control_c, 0, 64, 0
1, 30424, Note_off_c, 0, 68, 64
1, 30440, Control_c, 0, 64, 127
1, 30528, Note_off_c, 0, 46, 64
1, 30556, Note_off_c, 0, 56, 64
1, 30568, Note_on_c, 0, 67, 59
1, 30572, Note_off_c, 0, 58, 64
1, 30576, Note_off_c, 0, 62, 64
1, 30600, Note_off_c, 0, 65, 64
1, 30696, Note_on_c, 0, 68, 60
1, 30700, Note_on_c, 0, 62, 32
1, 30704, Note_on_c, 0, 56, 39
1, 30708, Note_on_c, 0, 58, 32
1, 30728, Note_off_c, 0, 67, 64
1, 30860, Note_on_c, 0, 77, 50
1, 30892, Note_off_c, 0, 62, 64
1, 30896, Note_off_c, 0, 56, 64
1, 30900, Note_off_c, 0, 58, 64
1, 30900, Note_off_c, 0, 68, 64
1, 31004, Note_on_c, 0, 75, 60
1, 31020, Control_c, 0, 64, 0
1, 31032, Note_off_c, 0, 77, 64
1, 31032, Note_on_c, 0, 39, 55
1, 31080, Control_c, 0, 64, 127
1, 31152, Note_on_c, 0, 68, 63
1, 31200, Note_off_c, 0, 75, 64
1, 31292, Note_on_c, 0, 67, 51
1, 31308, Note_off_c, 0, 68, 64
1, 31308, Note_on_c, 0, 63, 46
1, 31308, Note_on_c, 0, 58, 20
1, 31308, Note_on_c, 0, 55, 33
1, 31320, Control_c, 0, 64, 0
1, 31380, Control_c, 0, 64, 127
1, 31476, Note_off_c, 0, 39, 64
1, 31500, Note_off_c, 0, 63, 64
1, 31500, Note_off_c, 0, 58, 64
1, 31500, Note_off_c, 0, 55, 64
1, 31596, Note_on_c, 0, 63, 34
1, 31600, Note_on_c, 0, 58, 20
1, 31608, Note_on_c, 0, 55, 33
1, 31720, Note_on_c, 0, 66, 55
1, 31768, Note_off_c, 0, 67, 64
1, 31788, Note_off_c, 0, 63, 64
1, 31792, Note_off_c, 0, 58, 64
1, 31800, Note_off_c, 0, 55, 64
1, 31888, Note_on_c, 0, 67, 58
1, 31896, Note_on_c, 0, 45, 55
1, 31920, Control_c, 0, 64, 0
1, 31952, Note_off_c, 0, 66, 64
1, 31964, Control_c, 0, 64, 127
1, 32080, Note_on_c, 0, 69, 41
1, 32112, Note_off_c, 0, 67, 64
1, 32132, Note_on_c, 0, 67, 51
1, 32168, Note_off_c, 0, 69, 64
1, 32204, Note_on_c, 0, 61, 51
1, 32208, Note_on_c, 0, 57, 48
1, 32208, Note_on_c, 0, 55, 48
1, 32208, Control_c, 0, 64, 0
1, 32208, Control_c, 0, 64, 0
1, 32220, Tempo, 500000
1, 32220, Note_on_c, 0, 64, 59
1, 32240, Note_off_c, 0, 67, 64
1, 32252, Control_c, 0, 64, 127
1, 32340, Note_on_c, 0, 66, 60
1, 32364, Note_off_c, 0, 45, 64
1, 32372, Note_off_c, 0, 64, 64
1, 32392, Note_off_c, 0, 61, 64
1, 32396, Note_off_c, 0, 55, 64
1, 32396, Note_off_c, 0, 57, 64
1, 32480, Note_on_c, 0, 61, 43
1, 32484, Note_on_c, 0, 67, 49
1, 32492, Note_off_c, 0, 66, 64
1, 32500, Note_on_c, 0, 57, 48
1, 32500, Note_on_c, 0, 55, 26
1, 32500, Control_c, 0, 64, 0
1, 32660, Note_on_c, 0, 76, 51
1, 32672, Note_off_c, 0, 61, 64
1, 32692, Note_off_c, 0, 57, 64
1, 32692, Note_off_c, 0, 55, 64
1, 32736, Note_off_c, 0, 67, 64
1, 32800, Note_on_c, 0, 45, 51
1, 32804, Note_on_c, 0, 74, 51
1, 32828, Control_c, 0, 64, 0
1, 32836, Note_off_c, 0, 76, 64
1, 32880, Control_c, 0, 64, 127
1, 32964, Note_on_c, 0, 67, 51
1, 32996, Note_off_c, 0, 74, 64
1, 33092, Note_on_c, 0, 66, 56
1, 33104, Note_on_c, 0, 62, 46
1, 33108, Note_on_c, 0, 54, 43
1, 33112, Note_on_c, 0, 57, 44
1, 33132, Control_c, 0, 64, 0
1, 33144, Note_off_c, 0, 67, 64
1, 33160, Control_c, 0, 64, 127
1, 33244, Note_on_c, 0, 67, 55
1, 33276, Note_off_c, 0, 45, 64
1, 33276, Note_off_c, 0, 66, 64
1, 33296, Note_off_c, 0, 62, 64
1, 33300, Note_off_c, 0, 54, 64
1, 33304, Note_off_c, 0, 57, 64
1, 33384, Note_on_c, 0, 68, 51
1, 33388, Note_on_c, 0, 62, 41
1, 33396, Note_on_c, 0, 59, 41
1, 33396, Note_on_c, 0, 53, 50
1, 33412, Control_c, 0, 64, 0
1, 33476, Note_off_c, 0, 67, 64
1, 33480, Control_c, 0, 64, 127
1, 33580, Note_off_c, 0, 62, 64
1, 33588, Note_off_c, 0, 59, 64
1, 33588, Note_off_c, 0, 53, 64
1, 33588, Note_on_c, 0, 71, 51
1, 33612, Note_off_c, 0, 68, 64
1, 33692, Note_on_c, 0, 69, 56
1, 33700, Note_on_c, 0, 45, 56
1, 33704, Note_off_c, 0, 71, 64
1, 33712, Control_c, 0, 64, 0
1, 33744, Control_c, 0, 64, 127
1, 33904, Note_on_c, 0, 63, 60
1, 33968, Note_off_c, 0, 69, 64
1, 33980, Note_on_c, 0, 61, 49
1, 33988, Note_on_c, 0, 66, 59
1, 33992, Note_on_c, 0, 57, 32
1, 33996, Note_on_c, 0, 55, 31
1, 34004, Note_off_c, 0, 63, 64
1, 34012, Control_c, 0, 64, 0
1, 34036, Control_c, 0, 64, 127
1, 34156, Note_off_c, 0, 45, 64
1, 34172, Note_off_c, 0, 61, 64
1, 34172, Note_on_c, 0, 64, 52
1, 34184, Note_off_c, 0, 57, 64
1, 34188, Note_off_c, 0, 55, 64
1, 34212, Note_off_c, 0, 66, 64
1, 34228, Control_c, 0, 64, 127
1, 34268, Note_on_c, 0, 61, 47
1, 34272, Note_on_c, 0, 57, 32
1, 34280, Note_on_c, 0, 67, 55
1, 34280, Note_on_c, 0, 55, 44
1, 34312, Note_off_c, 0, 64, 64
1, 34460, Note_off_c, 0, 61, 64
1, 34464, Note_off_c, 0, 57, 64
1, 34464, Note_on_c, 0, 59, 51
1, 34472, Note_off_c, 0, 55, 64
1, 34520, Note_off_c, 0, 67, 64
1, 34552, Note_on_c, 0, 33, 58
1, 34560, Note_on_c, 0, 57, 50
1, 34572, Control_c, 0, 64, 0
1, 34588, Note_off_c, 0, 59, 64
1, 34608, Control_c, 0, 64, 127
1, 34748, Note_on_c, 0, 64, 57
1, 34788, Note_off_c, 0, 57, 64
1, 34828, Control_c, 0, 64, 0
1, 34840, Note_on_c, 0, 54, 32
1, 34844, Note_on_c, 0, 62, 62
1, 34848, Note_on_c, 0, 57, 52
1, 34868, Note_off_c, 0, 64, 64
1, 34876, Control_c, 0, 64, 127
1, 35008, Note_on_c, 0, 67, 56
1, 35032, Note_off_c, 0, 54, 64
1, 35036, Note_off_c, 0, 62, 64
1, 35040, Note_off_c, 0, 57, 64
1, 35128, Note_on_c, 0, 54, 42
1, 35128, Note_on_c, 0, 57, 43
1, 35132, Note_on_c, 0, 62, 46
1, 35140, Note_on_c, 0, 66, 72
1, 35160, Note_off_c, 0, 67, 64
1, 35300, Note_on_c, 0, 71, 58
1, 35320, Note_off_c, 0, 54, 64
1, 35320, Note_off_c, 0, 57, 64
1, 35320, Note_off_c, 0, 66, 64
1, 35324, Note_off_c, 0, 62, 64
1, 35396, Note_off_c, 0, 33, 64
1, 35420, Note_on_c, 0, 69, 56
1, 35428, Control_c, 0, 64, 0
1, 35432, Note_off_c, 0, 71, 64
1, 35440, Note_on_c, 0, 45, 54
1, 35476, Note_on_c, 0, 71, 57
1, 35492, Note_off_c, 0, 69, 64
1, 35496, Control_c, 0, 64, 127
1, 35552, Note_on_c, 0, 69, 58
1, 35572, Note_off_c, 0, 71, 64
1, 35660, Note_on_c, 0, 68, 65
1, 35676, Note_off_c, 0, 69, 64
1, 35676, Note_on_c, 0, 52, 36
1, 35676, Note_on_c, 0, 61, 33
1, 35696, Control_c, 0, 64, 0
1, 35748, Control_c, 0, 64, 127
1, 35852, Note_on_c, 0, 67, 62
1, 35868, Note_off_c, 0, 45, 64
1, 35868, Note_off_c, 0, 52, 64
1, 35868, Note_off_c, 0, 61, 64
1, 35884, Note_off_c, 0, 68, 64
1, 35928, Note_off_c, 0, 67, 64
1, 35948, Note_on_c, 0, 69, 60
1, 35956, Note_on_c, 0, 61, 51
1, 35968, Note_on_c, 0, 57, 51
1, 35972, Note_on_c, 0, 67, 51
1, 35980, Control_c, 0, 64, 0
1, 35992, Control_c, 0, 64, 0
1, 36008, Control_c, 0, 64, 127
1, 36148, Note_off_c, 0, 61, 64
1, 36160, Note_off_c, 0, 57, 64
1, 36164, Note_off_c, 0, 67, 64
1, 36168, Note_on_c, 0, 76, 51
1, 36224, Note_off_c, 0, 69, 64
1, 36288, Note_on_c, 0, 74, 57
1, 36288, Note_on_c, 0, 38, 50
1, 36300, Control_c, 0, 64, 0
1, 36316, Note_off_c, 0, 76, 64
1, 36356, Control_c, 0, 64, 127
1, 36516, Note_off_c, 0, 74, 64
1, 36520, Note_on_c, 0, 67, 43
1, 36592, Note_on_c, 0, 50, 46
1, 36612, Note_on_c, 0, 57, 37
1, 36616, Note_on_c, 0, 66, 58
1, 36620, Note_on_c, 0, 60, 26
1, 36640, Control_c, 0, 64, 0
1, 36664, Note_off_c, 0, 67, 64
1, 36664, Control_c, 0, 64, 127
1, 36748, Note_off_c, 0, 38, 64
1, 36784, Note_off_c, 0, 50, 64
1, 36800, Note_on_c, 0, 67, 52
1, 36804, Note_off_c, 0, 57, 64
1, 36812, Note_off_c, 0, 60, 64
1, 36820, Note_off_c, 0, 66, 64
1, 36896, Note_on_c, 0, 68, 56
1, 36896, Note_on_c, 0, 60, 54
1, 36896, Note_on_c, 0, 50, 51
1, 36908, Note_on_c, 0, 54, 50
1, 36920, Control_c, 0, 64, 0
1, 36964, Note_off_c, 0, 67, 64
1, 36976, Control_c, 0, 64, 127
1, 37072, Note_on_c, 0, 71, 52
1, 37104, Note_off_c, 0, 68, 64
1, 37204, Note_on_c, 0, 69, 43
1, 37224, Note_off_c, 0, 71, 64
1, 37276, Note_off_c, 0, 54, 64
1, 37296, Note_off_c, 0, 60, 64
1, 37304, Note_off_c, 0, 50, 64
1, 37368, Note_on_c, 0, 65, 51
1, 37420, Note_off_c, 0, 69, 64
1, 37460, Note_on_c, 0, 66, 57
1, 37476, Note_on_c, 0, 51, 50
1, 37480, Note_on_c, 0, 60, 39
1, 37480, Control_c, 0, 64, 0
1, 37492, Note_on_c, 0, 57, 41
1, 37500, Note_off_c, 0, 65, 64
1, 37540, Control_c, 0, 64, 127
1, 37640, Note_on_c, 0, 67, 57
1, 37664, Note_off_c, 0, 66, 64
1, 37668, Note_off_c, 0, 51, 64
1, 37672, Note_off_c, 0, 60, 64
1, 37684, Note_off_c, 0, 57, 64
1, 37748, Note_on_c, 0, 51, 55
1, 37756, Note_on_c, 0, 68, 57
1, 37760, Note_on_c, 0, 60, 55
1, 37764, Note_on_c, 0, 54, 51
1, 37780, Control_c, 0, 64, 0
1, 37812, Note_off_c, 0, 67, 64
1, 37836, Control_c, 0, 64, 127
1, 37924, Note_on_c, 0, 71, 52
1, 37956, Note_off_c, 0, 68, 64
1, 38052, Note_on_c, 0, 69, 41
1, 38072, Note_off_c, 0, 71, 64
1, 38148, Note_on_c, 0, 71, 55
1, 38168, Note_off_c, 0, 69, 64
1, 38224, Note_on_c, 0, 69, 51
1, 38244, Note_off_c, 0, 71, 64
1, 38344, Note_on_c, 0, 66, 49
1, 38360, Note_on_c, 0, 57, 55
1, 38400, Control_c, 0, 64, 0
1, 38404, Note_off_c, 0, 54, 64
1, 38460, Control_c, 0, 64, 127
1, 38468, Note_off_c, 0, 69, 64
1, 38552, Note_on_c, 0, 67, 62
1, 38568, Note_off_c, 0, 66, 64
1, 38636, Note_on_c, 0, 68, 62
1, 38696, Note_off_c, 0, 67, 64
1, 38820, Note_off_c, 0, 57, 64
1, 38844, Note_on_c, 0, 71, 52
1, 38872, Note_off_c, 0, 68, 64
1, 38880, Note_off_c, 0, 51, 64
1, 38892, Note_off_c, 0, 60, 64
1, 38928, Note_on_c, 0, 52, 36
1, 38988, Note_on_c, 0, 69, 57
1, 38992, Note_on_c, 0, 64, 65
1, 39004, Control_c, 0, 64, 0
1, 39016, Note_off_c, 0, 71, 64
1, 39032, Note_off_c, 0, 52, 64
1, 39044, Control_c, 0, 64, 127
1, 39112, Note_on_c, 0, 59, 56
1, 39176, Note_off_c, 0, 64, 64
1, 39200, Note_on_c, 0, 67, 44
1, 39220, Note_off_c, 0, 69, 64
1, 39252, Note_off_c, 0, 67, 64
1, 39300, Note_on_c, 0, 60, 69
1, 39308, Note_on_c, 0, 67, 57
1, 39328, Control_c, 0, 64, 0
1, 39332, Note_off_c, 0, 59, 64
1, 39348, Control_c, 0, 64, 127
1, 39496, Note_on_c, 0, 65, 48
1, 39524, Note_off_c, 0, 67, 64
1, 39556, Note_off_c, 0, 65, 64
1, 39612, Note_on_c, 0, 57, 51
1, 39620, Note_off_c, 0, 60, 64
1, 39628, Note_on_c, 0, 65, 50
1, 39644, Control_c, 0, 64, 0
1, 39700, Control_c, 0, 64, 127
1, 39804, Note_on_c, 0, 63, 34
1, 39832, Note_off_c, 0, 65, 64
1, 39868, Note_off_c, 0, 63, 64
1, 39948, Note_on_c, 0, 63, 37
1, 39968, Note_on_c, 0, 59, 54
1, 39972, Note_off_c, 0, 57, 64
1, 40004, Control_c, 0, 64, 0
1, 40036, Control_c, 0, 64, 127
1, 40144, Note_on_c, 0, 56, 41
1, 40220, Note_on_c, 0, 64, 48
1, 40256, Note_off_c, 0, 63, 64
1, 40308, Note_off_c, 0, 64, 64
1, 40336, Note_on_c, 0, 52, 34
1, 40344, Note_on_c, 0, 64, 50
1, 40364, Note_off_c, 0, 56, 64
1, 40368, Control_c, 0, 64, 0
1, 40416, Control_c, 0, 64, 127
1, 40436, Note_off_c, 0, 59, 64
1, 40800, Note_on_c, 0, 47, 41
1, 40800, Note_on_c, 0, 40, 43
1, 40812, Note_on_c, 0, 62, 51
1, 40816, Note_on_c, 0, 56, 35
1, 40836, Control_c, 0, 64, 0
1, 40904, Control_c, 0, 64, 127
1, 41148, Note_off_c, 0, 47, 64
1, 41148, Note_off_c, 0, 40, 64
1, 41180, Note_on_c, 0, 66, 50
1, 41184, Note_on_c, 0, 40, 43
1, 41184, Note_on_c, 0, 47, 41
1, 41220, Control_c, 0, 64, 0
1, 41228, Note_off_c, 0, 52, 64
1, 41236, Note_off_c, 0, 64, 64
1, 41288, Control_c, 0, 64, 127
1, 41364, Note_on_c, 0, 68, 52
1, 41476, Note_off_c, 0, 66, 64
1, 41552, Note_on_c, 0, 69, 63
1, 41572, Note_off_c, 0, 40, 64
1, 41572, Note_off_c, 0, 47, 64
1, 41580, Note_off_c, 0, 68, 64
1, 41584, Note_off_c, 0, 62, 64
1, 41588, Note_off_c, 0, 56, 64
1, 41876, Note_on_c, 0, 71, 60
1, 41876, Note_on_c, 0, 56, 43
1, 41892, Note_on_c, 0, 62, 47
1, 41892, Note_on_c, 0, 52, 49
1, 41912, Control_c, 0, 64, 0
1, 41936, Note_off_c, 0, 69, 64
1, 41948, Control_c, 0, 64, 127
1, 42068, Note_off_c, 0, 56, 64
1, 42084, Note_off_c, 0, 62, 64
1, 42084, Note_off_c, 0, 52, 64
1, 42212, Note_on_c, 0, 72, 55
1, 42212, Note_on_c, 0, 45, 51
1, 42232, Control_c, 0, 64, 0
1, 42244, Note_off_c, 0, 71, 64
1, 42280, Control_c, 0, 64, 127
1, 42360, Note_on_c, 0, 77, 56
1, 42444, Note_off_c, 0, 72, 64
1, 42508, Note_on_c, 0, 76, 62
1, 42516, Note_on_c, 0, 60, 44
1, 42532, Note_on_c, 0, 52, 50
1, 42532, Control_c, 0, 64, 0
1, 42548, Note_off_c, 0, 77, 64
1, 42576, Control_c, 0, 64, 127
1, 42652, Note_on_c, 0, 72, 66
1, 42684, Note_off_c, 0, 76, 64
1, 42724, Note_off_c, 0, 60, 64
1, 42740, Note_off_c, 0, 52, 64
1, 42784, Control_c, 0, 64, 0
1, 42796, Note_on_c, 0, 44, 55
1, 42796, Note_on_c, 0, 76, 44
1, 42828, Control_c, 0, 64, 127
1, 42836, Note_off_c, 0, 72, 64
1, 42848, Note_off_c, 0, 45, 64
1, 42932, Note_on_c, 0, 78, 62
1, 43008, Note_off_c, 0, 76, 64
1, 43080, Control_c, 0, 64, 0
1, 43096, Note_on_c, 0, 79, 59
1, 43104, Note_on_c, 0, 43, 55
1, 43128, Control_c, 0, 64, 127
1, 43140, Note_off_c, 0, 44, 64
1, 43144, Note_off_c, 0, 78, 64
1, 43236, Note_on_c, 0, 74, 51
1, 43264, Note_off_c, 0, 79, 64
1, 43364, Note_on_c, 0, 76, 57
1, 43364, Note_on_c, 0, 60, 35
1, 43376, Note_on_c, 0, 64, 43
1, 43380, Note_on_c, 0, 55, 35
1, 43400, Control_c, 0, 64, 0
1, 43424, Note_off_c, 0, 74, 64
1, 43436, Control_c, 0, 64, 127
1, 43524, Note_on_c, 0, 71, 55
1, 43528, Note_off_c, 0, 76, 64
1, 43556, Note_off_c, 0, 60, 64
1, 43568, Note_off_c, 0, 64, 64
1, 43572, Note_off_c, 0, 55, 64
1, 43588, Note_off_c, 0, 43, 64
1, 43676, Note_on_c, 0, 72, 59
1, 43680, Note_on_c, 0, 69, 27
1, 43684, Note_on_c, 0, 60, 41
1, 43688, Note_off_c, 0, 71, 64
1, 43692, Note_on_c, 0, 64, 27
1, 43692, Control_c, 0, 64, 0
1, 43708, Control_c, 0, 64, 0
1, 43780, Control_c, 0, 64, 127
1, 43812, Note_off_c, 0, 69, 64
1, 43836, Note_off_c, 0, 72, 64
1, 43840, Note_on_c, 0, 69, 62
1, 44044, Note_off_c, 0, 64, 64
1, 44044, Note_on_c, 0, 74, 57
1, 44068, Control_c, 0, 64, 0
1, 44100, Note_off_c, 0, 69, 64
1, 44104, Note_off_c, 0, 60, 64
1, 44116, Control_c, 0, 64, 127
1, 44192, Note_on_c, 0, 71, 54
1, 44220, Note_off_c, 0, 74, 64
1, 44352, Note_on_c, 0, 67, 50
1, 44384, Note_on_c, 0, 62, 41
1, 44388, Note_on_c, 0, 55, 34
1, 44396, Note_off_c, 0, 71, 64
1, 44396, Note_on_c, 0, 65, 25
1, 44416, Control_c, 0, 64, 0
1, 44468, Control_c, 0, 64, 127
1, 44576, Note_off_c, 0, 62, 64
1, 44580, Note_off_c, 0, 55, 64
1, 44588, Note_off_c, 0, 65, 64
1, 44780, Note_on_c, 0, 65, 26
1, 44784, Note_on_c, 0, 59, 28
1, 44800, Note_on_c, 0, 55, 25
1, 44820, Control_c, 0, 64, 0
1, 44892, Control_c, 0, 64, 127
1, 45136, Note_off_c, 0, 59, 64
1, 45136, Note_on_c, 0, 69, 55
1, 45140, Note_off_c, 0, 55, 64
1, 45164, Note_off_c, 0, 65, 64
1, 45188, Note_off_c, 0, 67, 64
1, 45276, Note_on_c, 0, 71, 52
1, 45328, Note_off_c, 0, 69, 64
1, 45380, Control_c, 0, 64, 0
1, 45384, Note_on_c, 0, 55, 50
1, 45396, Note_on_c, 0, 57, 44
1, 45400, Note_on_c, 0, 65, 46
1, 45412, Note_on_c, 0, 72, 59
1, 45436, Note_off_c, 0, 71, 64
1, 45452, Control_c, 0, 64, 127
1, 45576, Note_off_c, 0, 55, 64
1, 45588, Note_off_c, 0, 57, 64
1, 45592, Note_off_c, 0, 65, 64
1, 45704, Note_on_c, 0, 74, 62
1, 45708, Note_on_c, 0, 65, 50
1, 45716, Note_on_c, 0, 55, 41
1, 45716, Note_on_c, 0, 59, 50
1, 45720, Note_off_c, 0, 72, 64
1, 46000, Note_off_c, 0, 65, 64
1, 46004, Note_off_c, 0, 55, 64
1, 46004, Note_off_c, 0, 59, 64
1, 46012, Note_on_c, 0, 76, 51
1, 46012, Note_on_c, 0, 48, 50
1, 46028, Control_c, 0, 64, 0
1, 46048, Note_off_c, 0, 74, 64
1, 46084, Control_c, 0, 64, 127
1, 46196, Note_on_c, 0, 78, 49
1, 46236, Note_off_c, 0, 76, 64
1, 46332, Note_on_c, 0, 76, 62
1, 46340, Note_off_c, 0, 78, 64
1, 46428, Control_c, 0, 64, 0
1, 46444, Note_on_c, 0, 58, 36
1, 46448, Note_on_c, 0, 54, 26
1, 46452, Note_on_c, 0, 78, 50
1, 46456, Note_on_c, 0, 64, 31
1, 46476, Control_c, 0, 64, 127
1, 46492, Note_off_c, 0, 76, 64
1, 46568, Note_off_c, 0, 78, 64
1, 46572, Note_off_c, 0, 48, 64
1, 46572, Note_on_c, 0, 80, 44
1, 46644, Note_on_c, 0, 78, 55
1, 46656, Note_off_c, 0, 80, 64
1, 46660, Note_off_c, 0, 58, 64
1, 46676, Note_off_c, 0, 54, 64
1, 46716, Note_off_c, 0, 64, 64
1, 46716, Note_off_c, 0, 78, 64
1, 46724, Note_on_c, 0, 80, 65
1, 46776, Note_off_c, 0, 80, 64
1, 46776, Note_on_c, 0, 78, 65
1, 46824, Note_off_c, 0, 78, 64
1, 46848, Note_on_c, 0, 80, 63
1, 46852, Note_on_c, 0, 48, 51
1, 46888, Note_on_c, 0, 78, 50
1, 46896, Note_off_c, 0, 80, 64
1, 46924, Note_off_c, 0, 78, 64
1, 46944, Note_on_c, 0, 80, 60
1, 46996, Note_on_c, 0, 78, 60
1, 47012, Note_off_c, 0, 80, 64
1, 47080, Note_off_c, 0, 78, 64
1, 47092, Note_on_c, 0, 76, 54
1, 47200, Note_on_c, 0, 78, 56
1, 47228, Note_off_c, 0, 76, 64
1, 47344, Note_on_c, 0, 80, 51
1, 47356, Note_off_c, 0, 78, 64
1, 47356, Note_on_c, 0, 47, 44
1, 47360, Control_c, 0, 64, 0
1, 47396, Note_off_c, 0, 48, 64
1, 47404, Control_c, 0, 64, 127
1, 47516, Note_on_c, 0, 71, 51
1, 47536, Note_off_c, 0, 80, 64
1, 47680, Note_on_c, 0, 56, 52
1, 47688, Note_on_c, 0, 80, 58
1, 47688, Note_on_c, 0, 64, 26
1, 47688, Note_on_c, 0, 59, 36
1, 47720, Control_c, 0, 64, 0
1, 47744, Note_off_c, 0, 71, 64
1, 47760, Control_c, 0, 64, 127
1, 47872, Note_off_c, 0, 56, 64
1, 47880, Note_off_c, 0, 64, 64
1, 47880, Note_off_c, 0, 59, 64
1, 47968, Note_off_c, 0, 47, 64
1, 48008, Note_on_c, 0, 63, 34
1, 48016, Note_on_c, 0, 78, 59
1, 48020, Note_on_c, 0, 59, 26
1, 48024, Note_on_c, 0, 57, 52
1, 48040, Note_off_c, 0, 80, 64
1, 48060, Control_c, 0, 64, 0
1, 48112, Control_c, 0, 64, 127
1, 48156, Note_on_c, 0, 80, 62
1, 48192, Note_off_c, 0, 78, 64
1, 48200, Note_off_c, 0, 63, 64
1, 48212, Note_off_c, 0, 59, 64
1, 48216, Note_off_c, 0, 57, 64
1, 48320, Note_on_c, 0, 76, 57
1, 48328, Note_on_c, 0, 52, 51
1, 48340, Control_c, 0, 64, 0
1, 48348, Note_off_c, 0, 80, 64
1, 48420, Control_c, 0, 64, 127
1, 48580, Note_off_c, 0, 76, 64
1, 48588, Note_on_c, 0, 71, 48
1, 48672, Note_on_c, 0, 68, 50
1, 48672, Note_on_c, 0, 64, 34
1, 48676, Note_on_c, 0, 59, 26
1, 48688, Note_on_c, 0, 76, 66
1, 48692, Note_on_c, 0, 56, 37
1, 48712, Control_c, 0, 64, 0
1, 48716, Note_off_c, 0, 71, 64
1, 48764, Control_c, 0, 64, 127
1, 48788, Note_off_c, 0, 52, 64
1, 48864, Note_off_c, 0, 68, 64
1, 48864, Note_off_c, 0, 64, 64
1, 48868, Note_off_c, 0, 59, 64
1, 48884, Note_off_c, 0, 56, 64
1, 49036, Note_on_c, 0, 57, 37
1, 49040, Note_on_c, 0, 61, 33
1, 49044, Note_on_c, 0, 67, 21
1, 49056, Control_c, 0, 64, 0
1, 49100, Control_c, 0, 64, 127
1, 49228, Note_off_c, 0, 57, 64
1, 49232, Note_off_c, 0, 61, 64
1, 49236, Note_off_c, 0, 67, 64
1, 49416, Control_c, 0, 64, 0
1, 49428, Note_on_c, 0, 77, 56
1, 49428, Note_on_c, 0, 50, 41
1, 49468, Note_off_c, 0, 76, 64
1, 49480, Control_c, 0, 64, 127
1, 49616, Note_on_c, 0, 69, 51
1, 49728, Note_off_c, 0, 77, 64
1, 49768, Note_on_c, 0, 74, 57
1, 49780, Note_on_c, 0, 65, 26
1, 49788, Note_on_c, 0, 62, 28
1, 49788, Note_on_c, 0, 57, 32
1, 49800, Control_c, 0, 64, 0
1, 49848, Note_off_c, 0, 69, 64
1, 49856, Control_c, 0, 64, 127
1, 49908, Note_off_c, 0, 50, 64
1, 49972, Note_off_c, 0, 65, 64
1, 49980, Note_off_c, 0, 62, 64
1, 49980, Note_off_c, 0, 57, 64
1, 50164, Note_on_c, 0, 71, 52
1, 50164, Note_on_c, 0, 52, 43
1, 50172, Note_on_c, 0, 56, 24
1, 50188, Note_on_c, 0, 62, 26
1, 50192, Note_off_c, 0, 74, 64
1, 50200, Control_c, 0, 64, 0
1, 50236, Control_c, 0, 64, 127
1, 50356, Note_off_c, 0, 52, 64
1, 50364, Note_off_c, 0, 56, 64
1, 50380, Note_off_c, 0, 62, 64
1, 50428, Note_on_c, 0, 72, 44
1, 50444, Note_off_c, 0, 71, 64
1, 50524, Note_on_c, 0, 69, 58
1, 50536, Note_off_c, 0, 72, 64
1, 50576, Note_on_c, 0, 71, 57
1, 50592, Note_off_c, 0, 69, 64
1, 50644, Note_on_c, 0, 69, 59
1, 50668, Note_off_c, 0, 71, 64
1, 50676, Control_c, 0, 64, 0
1, 50732, Control_c, 0, 64, 127
1, 51016, Note_off_c, 0, 69, 64
1, 51016, Note_on_c, 0, 68, 51
1, 51168, Note_on_c, 0, 60, 56
1, 51168, Note_on_c, 0, 52, 24
1, 51172, Note_on_c, 0, 69, 49
1, 51180, Note_on_c, 0, 45, 33
1, 51208, Control_c, 0, 64, 0
1, 51220, Note_off_c, 0, 68, 64
1, 51284, Control_c, 0, 64, 127
1, 51524, Note_off_c, 0, 60, 64
1, 51528, Note_off_c, 0, 52, 64
1, 51540, Note_off_c, 0, 45, 64
1, 51760, Note_on_c, 0, 60, 50
1, 51788, Note_on_c, 0, 52, 26
1, 51788, Note_on_c, 0, 45, 28
1, 51808, Control_c, 0, 64, 0
1, 51884, Control_c, 0, 64, 127
1, 52028, Note_off_c, 0, 45, 64
1, 52032, Note_off_c, 0, 52, 64
1, 52248, Note_on_c, 0, 61, 43
1, 52268, Note_off_c, 0, 60, 64
1, 52280, Note_on_c, 0, 52, 23
1, 52280, Note_on_c, 0, 45, 23
1, 52292, Control_c, 0, 64, 0
1, 52360, Control_c, 0, 64, 127
1, 52608, Note_off_c, 0, 61, 64
1, 52636, Note_off_c, 0, 52, 64
1, 52640, Note_off_c, 0, 45, 64
1, 52756, Control_c, 0, 64, 0
1, 52764, Note_on_c, 0, 61, 41
1, 52764, Note_on_c, 0, 52, 28
1, 52776, Note_on_c, 0, 45, 27
1, 52804, Control_c, 0, 64, 127
1, 52820, Note_off_c, 0, 69, 64
1, 52996, Control_c, 0, 64, 0
1, 53036, Control_c, 0, 64, 127
1, 53124, Note_off_c, 0, 52, 64
1, 53136, Note_off_c, 0, 45, 64
1, 53224, Note_on_c, 0, 64, 43
1, 53224, Note_on_c, 0, 54, 29
1, 53236, Note_on_c, 0, 45, 29
1, 53244, Note_on_c, 0, 38, 31
1, 53256, Note_off_c, 0, 61, 64
1, 53260, Control_c, 0, 64, 0
1, 53312, Control_c, 0, 64, 127
1, 53552, Note_on_c, 0, 62, 29
1, 53580, Note_off_c, 0, 64, 64
1, 53584, Note_off_c, 0, 54, 64
1, 53596, Note_off_c, 0, 45, 64
1, 53600, Note_off_c, 0, 38, 64
1, 53660, Note_on_c, 0, 61, 41
1, 53668, Note_on_c, 0, 45, 35
1, 53672, Note_on_c, 0, 52, 34
1, 53684, Note_off_c, 0, 62, 64
1, 53684, Control_c, 0, 64, 0
1, 53728, Control_c, 0, 64, 127
1, 53928, Control_c, 0, 64, 0
1, 53972, Control_c, 0, 64, 127
1, 53976, Note_off_c, 0, 61, 64
1, 53988, Note_off_c, 0, 45, 64
1, 53988, Note_off_c, 0, 52, 64
1, 54076, Note_on_c, 0, 61, 43
1, 54076, Note_on_c, 0, 45, 41
1, 54080, Note_on_c, 0, 33, 36
1, 54096, Note_on_c, 0, 52, 43
1, 54108, Control_c, 0, 64, 0
1, 54180, Control_c, 0, 64, 127
1, 54436, Note_off_c, 0, 45, 64
1, 54440, Note_off_c, 0, 33, 64
1, 54452, Note_off_c, 0, 52, 64
1, 54504, Note_on_c, 0, 54, 41
1, 54508, Note_on_c, 0, 57, 49
1, 54520, Note_on_c, 0, 45, 39
1, 54524, Note_on_c, 0, 38, 32
1, 54532, Note_off_c, 0, 61, 64
1, 54540, Control_c, 0, 64, 0
1, 54612, Control_c, 0, 64, 127
1, 54780, Note_on_c, 0, 59, 43
1, 54820, Note_off_c, 0, 54, 64
1, 54844, Note_off_c, 0, 57, 64
1, 54880, Note_off_c, 0, 45, 64
1, 54884, Note_off_c, 0, 38, 64
1, 54888, Note_on_c, 0, 52, 34
1, 54892, Note_on_c, 0, 61, 46
1, 54908, Note_on_c, 0, 45, 40
1, 54928, Note_off_c, 0, 59, 64
1, 54944, Control_c, 0, 64, 0
1, 54996, Control_c, 0, 64, 127
1, 55244, Note_off_c, 0, 52, 64
1, 55252, Note_off_c, 0, 61, 64
1, 55304, Note_on_c, 0, 61, 47
1, 55304, Note_on_c, 0, 59, 46
1, 55312, Note_on_c, 0, 44, 41
1, 55312, Note_on_c, 0, 53, 42
1, 55336, Note_off_c, 0, 45, 64
1, 55356, Control_c, 0, 64, 0
1, 55424, Control_c, 0, 64, 127
1, 55660, Note_off_c, 0, 59, 64
1, 55672, Note_off_c, 0, 53, 64
1, 55752, Note_on_c, 0, 64, 43
1, 55764, Note_on_c, 0, 57, 43
1, 55764, Note_on_c, 0, 54, 43
1, 55768, Note_on_c, 0, 42, 43
1, 55776, Note_off_c, 0, 61, 64
1, 55796, Control_c, 0, 64, 0
1, 55824, Note_off_c, 0, 44, 64
1, 55852, Control_c, 0, 64, 127
1, 56076, Note_on_c, 0, 62, 44
1, 56120, Note_off_c, 0, 57, 64
1, 56120, Note_off_c, 0, 54, 64
1, 56132, Note_off_c, 0, 64, 64
1, 56172, Note_on_c, 0, 61, 54
1, 56180, Note_on_c, 0, 56, 54
1, 56188, Note_on_c, 0, 41, 39
1, 56196, Control_c, 0, 64, 0
1, 56212, Note_off_c, 0, 62, 64
1, 56240, Note_off_c, 0, 42, 64
1, 56284, Control_c, 0, 64, 127
1, 56548, Note_off_c, 0, 61, 64
1, 56604, Note_on_c, 0, 57, 56
1, 56604, Note_on_c, 0, 61, 51
1, 56612, Note_on_c, 0, 42, 49
1, 56616, Note_off_c, 0, 56, 64
1, 56616, Note_on_c, 0, 49, 32
1, 56628, Note_off_c, 0, 41, 64
1, 56632, Control_c, 0, 64, 0
1, 56668, Control_c, 0, 64, 0
1, 56684, Control_c, 0, 64, 127
1, 56712, Control_c, 0, 64, 127
1, 56972, Control_c, 0, 64, 0
1, 57040, Note_off_c, 0, 57, 64
1, 57084, Note_on_c, 0, 39, 50
1, 57088, Note_on_c, 0, 57, 60
1, 57088, Note_on_c, 0, 54, 54
1, 57112, Note_off_c, 0, 61, 64
1, 57120, Note_off_c, 0, 42, 64
1, 57124, Note_off_c, 0, 49, 64
1, 57132, Control_c, 0, 64, 127
1, 57408, Note_on_c, 0, 59, 62
1, 57436, Note_off_c, 0, 57, 64
1, 57436, Note_off_c, 0, 54, 64
1, 57484, Note_on_c, 0, 40, 52
1, 57500, Note_on_c, 0, 52, 50
1, 57500, Control_c, 0, 64, 0
1, 57508, Note_on_c, 0, 61, 51
1, 57520, Note_off_c, 0, 39, 64
1, 57520, Note_on_c, 0, 57, 55
1, 57564, Control_c, 0, 64, 127
1, 57600, Note_off_c, 0, 59, 64
1, 57768, Note_on_c, 0, 62, 34
1, 57816, Note_off_c, 0, 61, 64
1, 57844, Note_off_c, 0, 40, 64
1, 57856, Note_off_c, 0, 52, 64
1, 57880, Note_off_c, 0, 57, 64
1, 57916, Note_on_c, 0, 52, 43
1, 57932, Note_on_c, 0, 63, 59
1, 57952, Note_off_c, 0, 62, 64
1, 57952, Control_c, 0, 64, 0
1, 57988, Control_c, 0, 64, 127
1, 58128, Note_on_c, 0, 64, 54
1, 58172, Note_off_c, 0, 63, 64
1, 58276, Note_off_c, 0, 52, 64
1, 58324, Note_on_c, 0, 73, 59
1, 58332, Note_on_c, 0, 56, 54
1, 58344, Note_on_c, 0, 52, 54
1, 58352, Note_off_c, 0, 64, 64
1, 58352, Note_on_c, 0, 62, 52
1, 58364, Control_c, 0, 64, 0
1, 58396, Control_c, 0, 64, 127
1, 58568, Note_on_c, 0, 71, 71
1, 58572, Note_on_c, 0, 78, 59
1, 58604, Note_off_c, 0, 73, 64
1, 58688, Note_off_c, 0, 56, 64
1, 58688, Note_off_c, 0, 71, 64
1, 58692, Note_on_c, 0, 45, 52
1, 58700, Note_off_c, 0, 52, 64
1, 58708, Note_off_c, 0, 62, 64
1, 58728, Note_on_c, 0, 52, 44
1, 58732, Note_on_c, 0, 71, 67
1, 58736, Note_off_c, 0, 78, 64
1, 58740, Note_on_c, 0, 76, 67
1, 58764, Control_c, 0, 64, 0
1, 58780, Note_on_c, 0, 62, 58
1, 58812, Control_c, 0, 64, 127
1, 58964, Note_on_c, 0, 69, 62
1, 59004, Note_off_c, 0, 71, 64
1, 59048, Note_off_c, 0, 45, 64
1, 59076, Note_off_c, 0, 69, 64
1, 59084, Note_off_c, 0, 52, 64
1, 59100, Note_on_c, 0, 69, 65
1, 59140, Note_on_c, 0, 52, 59
1, 59172, Note_on_c, 0, 81, 72
1, 59172, Note_on_c, 0, 61, 59
1, 59192, Note_off_c, 0, 62, 64
1, 59192, Control_c, 0, 64, 0
1, 59228, Note_off_c, 0, 76, 64
1, 59248, Control_c, 0, 64, 127
1, 59496, Note_off_c, 0, 52, 64
1, 59532, Note_off_c, 0, 61, 64
1, 59536, Note_on_c, 0, 53, 46
1, 59540, Note_on_c, 0, 61, 49
1, 59556, Note_on_c, 0, 57, 51
1, 59560, Control_c, 0, 64, 0
1, 59584, Control_c, 0, 64, 127
1, 59736, Note_on_c, 0, 80, 62
1, 59772, Note_off_c, 0, 81, 64
1, 59828, Note_off_c, 0, 80, 64
1, 59896, Note_off_c, 0, 53, 64
1, 59900, Note_off_c, 0, 61, 64
1, 59908, Note_off_c, 0, 69, 64
1, 59912, Note_off_c, 0, 57, 64
1, 59916, Note_on_c, 0, 66, 55
1, 59920, Note_on_c, 0, 54, 44
1, 59924, Note_on_c, 0, 61, 48
1, 59928, Note_on_c, 0, 80, 67
1, 59940, Note_on_c, 0, 57, 49
1, 59944, Control_c, 0, 64, 0
1, 59944, Control_c, 0, 64, 0
1, 59968, Control_c, 0, 64, 127
1, 59968, Control_c, 0, 64, 127
1, 60124, Note_on_c, 0, 69, 57
1, 60172, Note_off_c, 0, 66, 64
1, 60260, Note_off_c, 0, 54, 64
1, 60284, Note_off_c, 0, 61, 64
1, 60288, Note_on_c, 0, 54, 48
1, 60296, Note_off_c, 0, 57, 64
1, 60300, Note_on_c, 0, 62, 40
1, 60300, Control_c, 0, 64, 0
1, 60312, Note_on_c, 0, 57, 42
1, 60316, Note_on_c, 0, 74, 59
1, 60348, Control_c, 0, 64, 127
1, 60372, Note_off_c, 0, 69, 64
1, 60476, Note_on_c, 0, 76, 54
1, 60508, Note_off_c, 0, 74, 64
1, 60556, Note_off_c, 0, 80, 64
1, 60644, Note_off_c, 0, 54, 64
1, 60652, Control_c, 0, 64, 0
1, 60656, Note_off_c, 0, 62, 64
1, 60664, Note_on_c, 0, 45, 50
1, 60668, Note_on_c, 0, 80, 69
1, 60672, Note_off_c, 0, 57, 64
1, 60716, Control_c, 0, 64, 127
1, 60724, Note_off_c, 0, 76, 64
1, 60832, Note_on_c, 0, 74, 58
1, 60836, Note_on_c, 0, 78, 64
1, 60860, Note_off_c, 0, 80, 64
1, 60948, Note_on_c, 0, 52, 67
1, 61012, Note_on_c, 0, 73, 58
1, 61016, Note_on_c, 0, 61, 46
1, 61024, Note_on_c, 0, 76, 69
1, 61036, Control_c, 0, 64, 0
1, 61044, Note_off_c, 0, 74, 64
1, 61048, Note_off_c, 0, 78, 64
1, 61060, Control_c, 0, 64, 127
1, 61172, Note_on_c, 0, 67, 70
1, 61188, Note_off_c, 0, 73, 64
1, 61188, Note_on_c, 0, 75, 63
1, 61204, Note_off_c, 0, 76, 64
1, 61332, Note_off_c, 0, 52, 64
1, 61364, Note_on_c, 0, 66, 70
1, 61376, Note_on_c, 0, 46, 63
1, 61380, Note_on_c, 0, 76, 59
1, 61388, Note_off_c, 0, 67, 64
1, 61396, Control_c, 0, 64, 0
1, 61400, Note_off_c, 0, 61, 64
1, 61404, Note_off_c, 0, 75, 64
1, 61428, Control_c, 0, 64, 127
1, 61444, Note_off_c, 0, 45, 64
1, 61556, Note_on_c, 0, 77, 59
1, 61596, Note_off_c, 0, 76, 64
1, 61716, Note_on_c, 0, 42, 63
1, 61736, Note_on_c, 0, 78, 71
1, 61760, Note_off_c, 0, 77, 64
1, 61780, Note_off_c, 0, 46, 64
1, 61908, Note_on_c, 0, 76, 60
1, 61920, Note_on_c, 0, 70, 48
1, 61940, Note_off_c, 0, 78, 64
1, 61964, Note_off_c, 0, 66, 64
1, 62084, Note_off_c, 0, 70, 64
1, 62092, Note_on_c, 0, 74, 49
1, 62092, Note_on_c, 0, 70, 59
1, 62096, Note_off_c, 0, 76, 64
1, 62104, Note_on_c, 0, 35, 50
1, 62128, Control_c, 0, 64, 0
1, 62176, Note_off_c, 0, 42, 64
1, 62184, Control_c, 0, 64, 127
1, 62268, Note_on_c, 0, 71, 49
1, 62308, Note_off_c, 0, 70, 64
1, 62324, Note_off_c, 0, 74, 64
1, 62432, Note_off_c, 0, 71, 64
1, 62440, Note_on_c, 0, 68, 62
1, 62440, Note_on_c, 0, 59, 41
1, 62444, Note_on_c, 0, 62, 28
1, 62472, Control_c, 0, 64, 0
1, 62492, Control_c, 0, 64, 127
1, 62556, Note_off_c, 0, 35, 64
1, 62600, Note_on_c, 0, 73, 57
1, 62600, Note_on_c, 0, 69, 52
1, 62632, Note_off_c, 0, 59, 64
1, 62636, Note_off_c, 0, 62, 64
1, 62640, Note_off_c, 0, 68, 64
1, 62760, Note_on_c, 0, 56, 44
1, 62768, Note_on_c, 0, 76, 47
1, 62772, Note_on_c, 0, 59, 43
1, 62780, Note_off_c, 0, 69, 64
1, 62780, Note_on_c, 0, 66, 60
1, 62800, Control_c, 0, 64, 0
1, 62804, Note_off_c, 0, 73, 64
1, 62820, Control_c, 0, 64, 127
1, 62936, Note_on_c, 0, 74, 40
1, 62940, Note_on_c, 0, 68, 50
1, 62952, Note_off_c, 0, 56, 64
1, 62960, Note_off_c, 0, 76, 64
1, 62964, Note_off_c, 0, 59, 64
1, 62988, Note_off_c, 0, 66, 64
1, 63104, Note_on_c, 0, 72, 54
1, 63132, Note_off_c, 0, 74, 64
1, 63132, Note_on_c, 0, 59, 44
1, 63132, Note_on_c, 0, 49, 40
1, 63156, Control_c, 0, 64, 0
1, 63188, Control_c, 0, 64, 127
1, 63276, Note_on_c, 0, 73, 46
1, 63288, Note_off_c, 0, 72, 64
1, 63300, Note_on_c, 0, 65, 59
1, 63324, Note_off_c, 0, 68, 64
1, 63456, Note_off_c, 0, 49, 64
1, 63476, Note_on_c, 0, 74, 50
1, 63484, Note_on_c, 0, 54, 39
1, 63488, Note_on_c, 0, 64, 56
1, 63488, Note_on_c, 0, 58, 37
1, 63492, Note_off_c, 0, 73, 64
1, 63500, Note_off_c, 0, 65, 64
1, 63508, Note_off_c, 0, 59, 64
1, 63532, Control_c, 0, 64, 0
1, 63576, Control_c, 0, 64, 127
1, 63836, Note_on_c, 0, 66, 49
1, 63856, Note_off_c, 0, 58, 64
1, 63880, Control_c, 0, 64, 0
1, 63916, Control_c, 0, 64, 127
1, 64032, Note_on_c, 0, 73, 49
1, 64076, Note_off_c, 0, 74, 64
1, 64076, Note_off_c, 0, 64, 64
1, 64244, Note_on_c, 0, 63, 57
1, 64280, Note_off_c, 0, 73, 64
1, 64300, Note_off_c, 0, 66, 64
1, 64436, Note_on_c, 0, 66, 56
1, 64468, Tempo, 500000
1, 64468, Note_off_c, 0, 63, 64
1, 64608, Note_on_c, 0, 47, 51
1, 64620, Control_c, 0, 64, 0
1, 64628, Note_on_c, 0, 68, 56
1, 64648, Note_off_c, 0, 66, 64
1, 64668, Control_c, 0, 64, 127
1, 64764, Note_on_c, 0, 69, 56
1, 64780, Note_off_c, 0, 68, 64
1, 64960, Note_on_c, 0, 57, 51
1, 64980, Note_on_c, 0, 73, 55
1, 64984, Note_on_c, 0, 63, 51
1, 65004, Control_c, 0, 64, 0
1, 65012, Note_off_c, 0, 69, 64
1, 65028, Control_c, 0, 64, 127
1, 65068, Note_off_c, 0, 47, 64
1, 65164, Note_on_c, 0, 71, 56
1, 65196, Note_off_c, 0, 73, 64
1, 65324, Note_on_c, 0, 69, 60
1, 65364, Note_off_c, 0, 57, 64
1, 65368, Note_off_c, 0, 71, 64
1, 65372, Note_off_c, 0, 63, 64
1, 65404, Note_off_c, 0, 54, 64
1, 65508, Note_on_c, 0, 59, 51
1, 65552, Note_off_c, 0, 69, 64
1, 65664, Control_c, 0, 64, 0
1, 65676, Note_on_c, 0, 40, 51
1, 65692, Note_on_c, 0, 62, 57
1, 65724, Control_c, 0, 64, 127
1, 65736, Note_off_c, 0, 59, 64
1, 65868, Note_on_c, 0, 64, 57
1, 65884, Note_off_c, 0, 62, 64
1, 66064, Note_on_c, 0, 66, 52
1, 66064, Note_on_c, 0, 52, 52
1, 66072, Note_on_c, 0, 62, 51
1, 66108, Note_off_c, 0, 64, 64
1, 66108, Control_c, 0, 64, 0
1, 66144, Note_off_c, 0, 40, 64
1, 66156, Control_c, 0, 64, 127
1, 66248, Note_on_c, 0, 69, 49
1, 66288, Note_off_c, 0, 66, 64
1, 66324, Note_on_c, 0, 68, 60
1, 66356, Note_off_c, 0, 69, 64
1, 66384, Control_c, 0, 64, 0
1, 66444, Control_c, 0, 64, 127
1, 66504, Note_off_c, 0, 62, 64
1, 66508, Control_c, 0, 64, 0
1, 66516, Note_on_c, 0, 66, 55
1, 66524, Note_on_c, 0, 45, 51
1, 66540, Note_off_c, 0, 68, 64
1, 66568, Control_c, 0, 64, 127
1, 66696, Note_on_c, 0, 61, 62
1, 66732, Note_off_c, 0, 66, 64
1, 66756, Note_off_c, 0, 52, 64
1, 66844, Note_on_c, 0, 52, 51
1, 66856, Note_off_c, 0, 45, 64
1, 66860, Note_on_c, 0, 64, 57
1, 66912, Note_off_c, 0, 61, 64
1, 67044, Note_off_c, 0, 64, 64
1, 67044, Note_on_c, 0, 74, 41
1, 67200, Note_off_c, 0, 74, 64
1, 67212, Note_on_c, 0, 73, 40
1, 67244, Note_on_c, 0, 64, 62
1, 67252, Control_c, 0, 64, 0
1, 67300, Note_off_c, 0, 52, 64
1, 67304, Control_c, 0, 64, 127
1, 67412, Note_off_c, 0, 73, 64
1, 67416, Note_on_c, 0, 78, 65
1, 67436, Note_on_c, 0, 71, 52
1, 67452, Note_on_c, 0, 62, 50
1, 67476, Note_off_c, 0, 64, 64
1, 67492, Note_off_c, 0, 71, 64
1, 67524, Note_off_c, 0, 62, 64
1, 67608, Note_off_c, 0, 78, 64
1, 67624, Note_on_c, 0, 71, 63
1, 67636, Note_on_c, 0, 76, 62
1, 67636, Note_on_c, 0, 61, 56
1, 67652, Control_c, 0, 64, 0
1, 67688, Control_c, 0, 64, 127
1, 67788, Note_off_c, 0, 76, 64
1, 67804, Note_off_c, 0, 71, 64
1, 67860, Note_off_c, 0, 61, 64
1, 67884, Note_on_c, 0, 69, 49
1, 67956, Note_off_c, 0, 69, 64
1, 67976, Note_on_c, 0, 69, 56
1, 68064, Note_on_c, 0, 81, 63
1, 68080, Note_on_c, 0, 45, 55
1, 68104, Control_c, 0, 64, 0
1, 68140, Control_c, 0, 64, 127
1, 68468, Note_on_c, 0, 57, 50
1, 68468, Note_on_c, 0, 53, 49
1, 68480, Note_on_c, 0, 61, 48
1, 68496, Control_c, 0, 64, 0
1, 68520, Control_c, 0, 64, 127
1, 68540, Note_off_c, 0, 81, 64
1, 68544, Note_off_c, 0, 45, 64
1, 68676, Note_on_c, 0, 80, 66
1, 68792, Note_off_c, 0, 57, 64
1, 68808, Note_off_c, 0, 53, 64
1, 68816, Note_off_c, 0, 61, 64
1, 68924, Note_on_c, 0, 61, 59
1, 68940, Note_on_c, 0, 54, 44
1, 68940, Note_on_c, 0, 57, 51
1, 68968, Control_c, 0, 64, 0
1, 68988, Control_c, 0, 64, 127
1, 69060, Note_off_c, 0, 69, 64
1, 69116, Note_on_c, 0, 69, 56
1, 69276, Note_off_c, 0, 54, 64
1, 69284, Note_off_c, 0, 61, 64
1, 69296, Note_off_c, 0, 57, 64
1, 69300, Note_off_c, 0, 80, 64
1, 69304, Note_on_c, 0, 54, 42
1, 69316, Note_on_c, 0, 62, 43
1, 69316, Note_on_c, 0, 57, 50
1, 69328, Note_on_c, 0, 74, 62
1, 69344, Control_c, 0, 64, 0
1, 69396, Control_c, 0, 64, 127
1, 69480, Note_on_c, 0, 76, 62
1, 69520, Note_off_c, 0, 74, 64
1, 69664, Note_off_c, 0, 54, 64
1, 69676, Note_off_c, 0, 62, 64
1, 69676, Note_off_c, 0, 57, 64
1, 69676, Note_on_c, 0, 80, 62
1, 69680, Note_on_c, 0, 56, 54
1, 69688, Note_on_c, 0, 59, 47
1, 69692, Note_on_c, 0, 62, 41
1, 69708, Control_c, 0, 64, 0
1, 69720, Note_off_c, 0, 76, 64
1, 69772, Control_c, 0, 64, 127
1, 69928, Note_off_c, 0, 80, 64
1, 69940, Note_on_c, 0, 78, 60
1, 69980, Note_off_c, 0, 69, 64
1, 70000, Note_off_c, 0, 78, 64
1, 70036, Note_off_c, 0, 56, 64
1, 70040, Note_on_c, 0, 78, 65
1, 70044, Note_off_c, 0, 59, 64
1, 70052, Note_off_c, 0, 62, 64
1, 70052, Note_on_c, 0, 57, 49
1, 70060, Note_on_c, 0, 61, 50
1, 70080, Control_c, 0, 64, 0
1, 70132, Control_c, 0, 64, 127
1, 70228, Note_on_c, 0, 76, 60
1, 70284, Note_off_c, 0, 78, 64
1, 70392, Note_on_c, 0, 58, 58
1, 70404, Note_on_c, 0, 75, 62
1, 70412, Note_off_c, 0, 57, 64
1, 70412, Note_on_c, 0, 67, 50
1, 70420, Note_off_c, 0, 61, 64
1, 70436, Control_c, 0, 64, 0
1, 70440, Note_off_c, 0, 76, 64
1, 70484, Control_c, 0, 64, 127
1, 70580, Note_on_c, 0, 73, 59
1, 70600, Note_off_c, 0, 75, 64
1, 70744, Note_on_c, 0, 59, 51
1, 70756, Note_on_c, 0, 75, 55
1, 70772, Note_off_c, 0, 58, 64
1, 70772, Control_c, 0, 64, 0
1, 70788, Note_off_c, 0, 73, 64
1, 70812, Control_c, 0, 64, 127
1, 70908, Note_on_c, 0, 78, 48
1, 70920, Note_on_c, 0, 61, 41
1, 70956, Note_off_c, 0, 59, 64
1, 70956, Note_off_c, 0, 75, 64
1, 70956, Note_on_c, 0, 76, 42
1, 70980, Note_off_c, 0, 78, 64
1, 71032, Note_off_c, 0, 67, 64
1, 71116, Note_on_c, 0, 69, 41
1, 71136, Note_on_c, 0, 70, 62
1, 71140, Note_on_c, 0, 63, 51
1, 71152, Note_off_c, 0, 76, 64
1, 71164, Control_c, 0, 64, 0
1, 71220, Control_c, 0, 64, 127
1, 71364, Note_off_c, 0, 69, 64
1, 71372, Note_on_c, 0, 71, 56
1, 71416, Note_off_c, 0, 70, 64
1, 71428, Note_off_c, 0, 61, 64
1, 71440, Note_off_c, 0, 63, 64
1, 71476, Note_on_c, 0, 75, 51
1, 71504, Note_on_c, 0, 68, 49
1, 71508, Note_on_c, 0, 63, 49
1, 71512, Note_off_c, 0, 71, 64
1, 71512, Note_on_c, 0, 59, 42
1, 71520, Control_c, 0, 64, 0
1, 71556, Control_c, 0, 64, 127
1, 71672, Note_off_c, 0, 68, 64
1, 71676, Note_off_c, 0, 63, 64
1, 71684, Note_on_c, 0, 70, 62
1, 71688, Note_off_c, 0, 75, 64
1, 71708, Note_off_c, 0, 59, 64
1, 71828, Note_on_c, 0, 73, 57
1, 71840, Note_on_c, 0, 66, 42
1, 71840, Note_on_c, 0, 57, 44
1, 71856, Control_c, 0, 64, 0
1, 71908, Control_c, 0, 64, 127
1, 71940, Note_off_c, 0, 70, 64
1, 71956, Note_off_c, 0, 66, 64
1, 71956, Note_off_c, 0, 57, 64
1, 72000, Note_on_c, 0, 71, 55
1, 72020, Note_off_c, 0, 73, 64
1, 72160, Note_on_c, 0, 76, 56
1, 72180, Note_on_c, 0, 64, 35
1, 72188, Note_on_c, 0, 56, 41
1, 72196, Control_c, 0, 64, 0
1, 72208, Note_off_c, 0, 71, 64
1, 72216, Note_on_c, 0, 59, 23
1, 72236, Control_c, 0, 64, 127
1, 72260, Note_off_c, 0, 59, 64
1, 72280, Note_off_c, 0, 64, 64
1, 72292, Note_off_c, 0, 56, 64
1, 72376, Control_c, 0, 64, 0
1, 72384, Note_on_c, 0, 70, 57
1, 72412, Control_c, 0, 64, 127
1, 72500, Note_off_c, 0, 76, 64
1, 72556, Note_on_c, 0, 73, 52
1, 72560, Note_on_c, 0, 47, 34
1, 72604, Control_c, 0, 64, 0
1, 72640, Note_off_c, 0, 70, 64
1, 72652, Control_c, 0, 64, 127
1, 72724, Note_on_c, 0, 71, 52
1, 72736, Note_off_c, 0, 73, 64
1, 72916, Note_on_c, 0, 77, 62
1, 72916, Control_c, 0, 64, 0
1, 72944, Note_off_c, 0, 71, 64
1, 72960, Control_c, 0, 64, 127
1, 73004, Note_off_c, 0, 47, 64
1, 73100, Note_on_c, 0, 70, 65
1, 73116, Note_off_c, 0, 77, 64
1, 73268, Note_off_c, 0, 70, 64
1, 73296, Note_on_c, 0, 35, 64
1, 73300, Note_on_c, 0, 73, 62
1, 73316, Control_c, 0, 64, 0
1, 73336, Control_c, 0, 64, 127
1, 73468, Note_off_c, 0, 73, 64
1, 73484, Note_on_c, 0, 71, 57
1, 73608, Note_off_c, 0, 71, 64
1, 73612, Note_on_c, 0, 59, 39
1, 73704, Note_on_c, 0, 63, 71
1, 73724, Note_on_c, 0, 85, 72
1, 73744, Control_c, 0, 64, 0
1, 73756, Note_on_c, 0, 69, 49
1, 73768, Control_c, 0, 64, 127
1, 73796, Note_off_c, 0, 35, 64
1, 73996, Note_off_c, 0, 59, 64
1, 73996, Note_on_c, 0, 83, 59
1, 74028, Note_off_c, 0, 85, 64
1, 74088, Note_off_c, 0, 63, 64
1, 74092, Note_on_c, 0, 82, 65
1, 74124, Note_off_c, 0, 83, 64
1, 74140, Note_off_c, 0, 69, 64
1, 74260, Note_on_c, 0, 81, 60
1, 74280, Note_off_c, 0, 82, 64
1, 74464, Note_on_c, 0, 40, 49
1, 74464, Note_on_c, 0, 80, 57
1, 74504, Control_c, 0, 64, 0
1, 74512, Note_off_c, 0, 81, 64
1, 74524, Control_c, 0, 64, 127
1, 74656, Note_on_c, 0, 78, 52
1, 74696, Note_off_c, 0, 80, 64
1, 74848, Note_on_c, 0, 59, 49
1, 74848, Note_on_c, 0, 64, 41
1, 74848, Note_on_c, 0, 68, 41
1, 74860, Note_on_c, 0, 77, 56
1, 74868, Note_off_c, 0, 78, 64
1, 74940, Control_c, 0, 64, 0
1, 74944, Note_off_c, 0, 40, 64
1, 74960, Control_c, 0, 64, 127
1, 75000, Note_on_c, 0, 76, 55
1, 75012, Note_off_c, 0, 77, 64
1, 75132, Note_on_c, 0, 75, 52
1, 75176, Note_off_c, 0, 76, 64
1, 75236, Note_on_c, 0, 74, 56
1, 75256, Note_off_c, 0, 75, 64
1, 75264, Note_off_c, 0, 64, 64
1, 75288, Note_off_c, 0, 68, 64
1, 75340, Note_on_c, 0, 73, 62
1, 75360, Note_off_c, 0, 74, 64
1, 75372, Note_off_c, 0, 59, 64
1, 75428, Note_on_c, 0, 72, 51
1, 75432, Note_off_c, 0, 73, 64
1, 75544, Note_on_c, 0, 71, 58
1, 75544, Note_on_c, 0, 67, 58
1, 75544, Note_on_c, 0, 64, 55
1, 75560, Control_c, 0, 64, 0
1, 75568, Note_off_c, 0, 72, 64
1, 75732, Note_on_c, 0, 62, 39
1, 75764, Control_c, 0, 64, 127
1, 75812, Note_off_c, 0, 67, 64
1, 75828, Note_on_c, 0, 72, 51
1, 75840, Note_off_c, 0, 64, 64
1, 75844, Control_c, 0, 64, 0
1, 75852, Note_off_c, 0, 71, 64
1, 75892, Note_on_c, 0, 67, 51
1, 75900, Note_on_c, 0, 64, 51
1, 75908, Note_on_c, 0, 60, 42
1, 75964, Note_off_c, 0, 72, 64
1, 75996, Note_off_c, 0, 62, 64
1, 76012, Control_c, 0, 64, 127
1, 76076, Note_on_c, 0, 59, 34
1, 76100, Note_off_c, 0, 60, 64
1, 76136, Control_c, 0, 64, 0
1, 76188, Control_c, 0, 64, 127
1, 76248, Note_on_c, 0, 57, 43
1, 76300, Note_off_c, 0, 59, 64
1, 76392, Note_on_c, 0, 69, 47
1, 76392, Note_on_c, 0, 55, 43
1, 76444, Note_off_c, 0, 67, 64
1, 76464, Note_off_c, 0, 64, 64
1, 76472, Note_off_c, 0, 57, 64
1, 76548, Note_on_c, 0, 71, 51
1, 76552, Note_on_c, 0, 62, 49
1, 76556, Note_on_c, 0, 54, 37
1, 76588, Note_off_c, 0, 69, 64
1, 76588, Control_c, 0, 64, 0
1, 76612, Note_off_c, 0, 55, 64
1, 76716, Note_on_c, 0, 53, 29
1, 76732, Note_off_c, 0, 54, 64
1, 76760, Note_off_c, 0, 71, 64
1, 76812, Note_on_c, 0, 71, 43
1, 76828, Note_off_c, 0, 62, 64
1, 76876, Note_on_c, 0, 59, 55
1, 76876, Note_on_c, 0, 62, 55
1, 76876, Control_c, 0, 64, 0
1, 76892, Note_on_c, 0, 55, 47
1, 76924, Note_off_c, 0, 53, 64
1, 76932, Note_off_c, 0, 71, 64
1, 77016, Control_c, 0, 64, 127
1, 77032, Note_on_c, 0, 54, 47
1, 77092, Control_c, 0, 64, 0
1, 77108, Note_off_c, 0, 55, 64
1, 77176, Control_c, 0, 64, 127
1, 77200, Note_on_c, 0, 50, 49
1, 77228, Note_off_c, 0, 54, 64
1, 77248, Control_c, 0, 64, 0
1, 77284, Control_c, 0, 64, 127
1, 77352, Note_on_c, 0, 67, 56
1, 77360, Note_on_c, 0, 47, 54
1, 77368, Note_off_c, 0, 50, 64
1, 77392, Note_off_c, 0, 59, 64
1, 77392, Note_off_c, 0, 62, 64
1, 77520, Control_c, 0, 64, 0
1, 77532, Note_on_c, 0, 64, 55
1, 77536, Note_on_c, 0, 65, 55
1, 77536, Note_on_c, 0, 58, 63
1, 77536, Note_on_c, 0, 42, 66
1, 77556, Note_off_c, 0, 67, 64
1, 77560, Note_off_c, 0, 47, 64
1, 77568, Control_c, 0, 64, 127
1, 77588, Note_off_c, 0, 42, 64
1, 77716, Note_off_c, 0, 64, 64
1, 77716, Note_on_c, 0, 66, 57
1, 77724, Note_off_c, 0, 65, 64
1, 77724, Note_off_c, 0, 58, 64
1, 77760, Note_off_c, 0, 66, 64
1, 77796, Note_on_c, 0, 66, 74
1, 77900, Note_on_c, 0, 54, 44
1, 77908, Note_on_c, 0, 61, 51
1, 77916, Note_on_c, 0, 64, 49
1, 77924, Control_c, 0, 64, 0
1, 77928, Note_on_c, 0, 79, 55
1, 77944, Note_off_c, 0, 66, 64
1, 77964, Control_c, 0, 64, 127
1, 78084, Note_off_c, 0, 61, 64
1, 78084, Note_off_c, 0, 64, 64
1, 78092, Note_off_c, 0, 54, 64
1, 78184, Note_on_c, 0, 78, 52
1, 78212, Note_off_c, 0, 79, 64
1, 78256, Control_c, 0, 64, 0
1, 78276, Note_on_c, 0, 61, 51
1, 78288, Note_on_c, 0, 64, 48
1, 78292, Note_on_c, 0, 54, 47
1, 78312, Note_on_c, 0, 77, 52
1, 78324, Control_c, 0, 64, 127
1, 78388, Note_off_c, 0, 78, 64
1, 78416, Control_c, 0, 64, 0
1, 78496, Note_on_c, 0, 76, 52
1, 78540, Note_off_c, 0, 77, 64
1, 78604, Note_off_c, 0, 61, 64
1, 78620, Note_off_c, 0, 64, 64
1, 78624, Note_off_c, 0, 54, 64
1, 78644, Control_c, 0, 64, 0
1, 78656, Note_on_c, 0, 75, 52
1, 78656, Note_on_c, 0, 47, 49
1, 78676, Note_off_c, 0, 76, 64
1, 78704, Control_c, 0, 64, 127
1, 78824, Note_on_c, 0, 74, 52
1, 78856, Note_off_c, 0, 75, 64
1, 78992, Note_on_c, 0, 73, 50
1, 78992, Note_on_c, 0, 54, 51
1, 79004, Note_off_c, 0, 47, 64
1, 79004, Note_on_c, 0, 62, 44
1, 79020, Control_c, 0, 64, 0
1, 79032, Note_off_c, 0, 74, 64
1, 79076, Control_c, 0, 64, 127
1, 79124, Note_on_c, 0, 72, 44
1, 79160, Note_off_c, 0, 73, 64
1, 79244, Note_on_c, 0, 71, 41
1, 79268, Note_off_c, 0, 54, 64
1, 79280, Note_off_c, 0, 62, 64
1, 79284, Note_off_c, 0, 72, 64
1, 79340, Note_on_c, 0, 69, 48
1, 79368, Note_off_c, 0, 71, 64
1, 79452, Note_on_c, 0, 67, 51
1, 79472, Note_off_c, 0, 69, 64
1, 79536, Note_on_c, 0, 66, 52
1, 79572, Note_off_c, 0, 67, 64
1, 79656, Note_on_c, 0, 67, 14
1, 79676, Note_off_c, 0, 66, 64
1, 79688, Note_on_c, 0, 64, 51
1, 79696, Note_on_c, 0, 71, 51
1, 79756, Control_c, 0, 64, 0
1, 79892, Note_on_c, 0, 62, 43
1, 79924, Control_c, 0, 64, 127
1, 79932, Note_off_c, 0, 71, 64
1, 79964, Note_off_c, 0, 67, 64
1, 79972, Note_off_c, 0, 64, 64
1, 79988, Note_on_c, 0, 72, 52
1, 80004, Control_c, 0, 64, 0
1, 80060, Note_on_c, 0, 67, 50
1, 80060, Note_on_c, 0, 60, 41
1, 80064, Note_on_c, 0, 64, 51
1, 80092, Note_off_c, 0, 72, 64
1, 80136, Note_off_c, 0, 62, 64
1, 80228, Note_on_c, 0, 59, 34
1, 80252, Note_off_c, 0, 60, 64
1, 80348, Control_c, 0, 64, 127
1, 80396, Note_on_c, 0, 57, 34
1, 80452, Note_off_c, 0, 59, 64
1, 80472, Note_off_c, 0, 64, 64
1, 80552, Note_on_c, 0, 69, 43
1, 80552, Note_on_c, 0, 55, 36
1, 80576, Note_off_c, 0, 57, 64
1, 80592, Note_off_c, 0, 67, 64
1, 80696, Note_off_c, 0, 69, 64
1, 80708, Note_on_c, 0, 50, 41
1, 80712, Note_on_c, 0, 67, 44
1, 80720, Note_on_c, 0, 71, 44
1, 80720, Note_on_c, 0, 62, 50
1, 80728, Control_c, 0, 64, 0
1, 80732, Note_off_c, 0, 55, 64
1, 80796, Control_c, 0, 64, 127
1, 80868, Note_on_c, 0, 49, 43
1, 80892, Note_off_c, 0, 50, 64
1, 80944, Note_off_c, 0, 67, 64
1, 80952, Note_off_c, 0, 71, 64
1, 80952, Note_off_c, 0, 62, 64
1, 80964, Note_on_c, 0, 71, 39
1, 81008, Control_c, 0, 64, 0
1, 81012, Note_on_c, 0, 62, 55
1, 81024, Note_on_c, 0, 59, 55
1, 81028, Note_off_c, 0, 49, 64
1, 81052, Note_on_c, 0, 52, 54
1, 81064, Note_off_c, 0, 71, 64
1, 81172, Control_c, 0, 64, 127
1, 81196, Note_on_c, 0, 50, 47
1, 81268, Note_off_c, 0, 52, 64
1, 81268, Control_c, 0, 64, 0
1, 81292, Control_c, 0, 64, 127
1, 81352, Note_on_c, 0, 47, 49
1, 81360, Tempo, 500000
1, 81360, Note_off_c, 0, 50, 64
1, 81532, Note_off_c, 0, 59, 64
1, 81532, Note_on_c, 0, 64, 60
1, 81532, Note_on_c, 0, 43, 56
1, 81540, Note_off_c, 0, 47, 64
1, 81552, Note_off_c, 0, 62, 64
1, 81700, Note_on_c, 0, 65, 62
1, 81704, Note_on_c, 0, 54, 57
1, 81708, Note_on_c, 0, 60, 56
1, 81720, Control_c, 0, 64, 0
1, 81732, Note_off_c, 0, 64, 64
1, 81740, Note_on_c, 0, 38, 55
1, 81748, Note_off_c, 0, 43, 64
1, 81764, Control_c, 0, 64, 127
1, 81828, Note_off_c, 0, 38, 64
1, 81848, Note_on_c, 0, 66, 65
1, 81884, Note_off_c, 0, 65, 64
1, 81892, Note_off_c, 0, 54, 64
1, 81892, Note_off_c, 0, 60, 64
1, 81912, Note_off_c, 0, 66, 64
1, 81944, Note_on_c, 0, 66, 74
1, 82052, Note_on_c, 0, 76, 62
1, 82052, Note_on_c, 0, 50, 52
1, 82060, Note_on_c, 0, 60, 36
1, 82068, Note_on_c, 0, 57, 49
1, 82092, Note_off_c, 0, 66, 64
1, 82092, Control_c, 0, 64, 0
1, 82148, Control_c, 0, 64, 127
1, 82240, Note_off_c, 0, 50, 64
1, 82248, Note_off_c, 0, 60, 64
1, 82252, Note_off_c, 0, 57, 64
1, 82280, Note_on_c, 0, 75, 57
1, 82316, Note_off_c, 0, 76, 64
1, 82420, Note_on_c, 0, 74, 54
1, 82428, Control_c, 0, 64, 0
1, 82432, Note_on_c, 0, 50, 51
1, 82440, Note_on_c, 0, 54, 43
1, 82448, Note_off_c, 0, 75, 64
1, 82452, Note_on_c, 0, 60, 32
1, 82500, Control_c, 0, 64, 127
1, 82596, Note_on_c, 0, 73, 54
1, 82620, Note_off_c, 0, 50, 64
1, 82628, Note_off_c, 0, 54, 64
1, 82640, Note_off_c, 0, 60, 64
1, 82644, Note_off_c, 0, 74, 64
1, 82772, Note_on_c, 0, 72, 57
1, 82780, Note_on_c, 0, 43, 51
1, 82792, Control_c, 0, 64, 0
1, 82820, Note_off_c, 0, 73, 64
1, 82852, Tempo, 500000
1, 82852, Control_c, 0, 64, 127
1, 82940, Note_on_c, 0, 71, 51
1, 82960, Note_off_c, 0, 72, 64
1, 83100, Note_on_c, 0, 70, 49
1, 83112, Note_on_c, 0, 59, 51
1, 83124, Note_off_c, 0, 43, 64
1, 83124, Note_on_c, 0, 50, 54
1, 83128, Note_off_c, 0, 71, 64
1, 83152, Control_c, 0, 64, 0
1, 83184, Control_c, 0, 64, 127
1, 83232, Note_on_c, 0, 69, 52
1, 83248, Note_off_c, 0, 70, 64
1, 83332, Note_on_c, 0, 68, 58
1, 83344, Note_off_c, 0, 69, 64
1, 83388, Note_off_c, 0, 59, 64
1, 83400, Note_off_c, 0, 50, 64
1, 83428, Note_on_c, 0, 67, 54
1, 83464, Note_off_c, 0, 68, 64
1, 83520, Note_on_c, 0, 66, 51
1, 83564, Note_off_c, 0, 67, 64
1, 83624, Note_on_c, 0, 65, 50
1, 83640, Note_off_c, 0, 66, 64
1, 83728, Note_on_c, 0, 67, 43
1, 83736, Control_c, 0, 64, 0
1, 83744, Note_on_c, 0, 71, 49
1, 83744, Note_on_c, 0, 64, 52
1, 83760, Note_off_c, 0, 65, 64
1, 83928, Note_on_c, 0, 62, 36
1, 83960, Control_c, 0, 64, 127
1, 84000, Note_off_c, 0, 67, 64
1, 84032, Note_off_c, 0, 64, 64
1, 84032, Note_on_c, 0, 72, 52
1, 84048, Note_off_c, 0, 71, 64
1, 84056, Control_c, 0, 64, 0
1, 84080, Note_on_c, 0, 67, 47
1, 84092, Note_on_c, 0, 64, 52
1, 84092, Note_on_c, 0, 60, 42
1, 84120, Note_off_c, 0, 72, 64
1, 84152, Note_off_c, 0, 62, 64
1, 84200, Control_c, 0, 64, 127
1, 84248, Note_on_c, 0, 59, 36
1, 84264, Note_off_c, 0, 60, 64
1, 84408, Note_on_c, 0, 57, 46
1, 84464, Note_off_c, 0, 59, 64
1, 84512, Note_off_c, 0, 64, 64
1, 84564, Note_on_c, 0, 69, 51
1, 84564, Note_on_c, 0, 55, 48
1, 84600, Note_off_c, 0, 57, 64
1, 84624, Note_off_c, 0, 67, 64
1, 84712, Control_c, 0, 64, 0
1, 84724, Note_on_c, 0, 54, 64
1, 84732, Note_on_c, 0, 71, 58
1, 84736, Note_on_c, 0, 62, 48
1, 84752, Note_off_c, 0, 55, 64
1, 84760, Note_off_c, 0, 69, 64
1, 84784, Control_c, 0, 64, 127
1, 84904, Note_off_c, 0, 54, 64
1, 84912, Note_on_c, 0, 53, 47
1, 84948, Note_off_c, 0, 71, 64
1, 84960, Note_off_c, 0, 62, 64
1, 84992, Note_on_c, 0, 71, 54
1, 85036, Note_off_c, 0, 53, 64
1, 85040, Control_c, 0, 64, 0
1, 85064, Note_on_c, 0, 62, 54
1, 85072, Note_on_c, 0, 59, 67
1, 85088, Note_on_c, 0, 55, 51
1, 85096, Note_off_c, 0, 71, 64
1, 85204, Control_c, 0, 64, 127
1, 85228, Note_on_c, 0, 54, 52
1, 85272, Note_off_c, 0, 55, 64
1, 85296, Control_c, 0, 64, 0
1, 85332, Control_c, 0, 64, 127
1, 85408, Note_on_c, 0, 50, 50
1, 85460, Note_off_c, 0, 54, 64
1, 85536, Note_on_c, 0, 67, 64
1, 85552, Note_on_c, 0, 47, 55
1, 85576, Note_off_c, 0, 50, 64
1, 85580, Note_off_c, 0, 62, 64
1, 85580, Note_off_c, 0, 59, 64
1, 85712, Control_c, 0, 64, 0
1, 85720, Note_on_c, 0, 58, 62
1, 85728, Note_on_c, 0, 64, 57
1, 85728, Note_on_c, 0, 65, 57
1, 85732, Note_on_c, 0, 42, 69
1, 85756, Note_off_c, 0, 47, 64
1, 85768, Note_off_c, 0, 67, 64
1, 85776, Control_c, 0, 64, 127
1, 85776, Control_c, 0, 64, 127
1, 85788, Note_off_c, 0, 42, 64
1, 85876, Note_off_c, 0, 58, 64
1, 85876, Note_on_c, 0, 66, 51
1, 85884, Note_off_c, 0, 64, 64
1, 85884, Note_off_c, 0, 65, 64
1, 85920, Note_off_c, 0, 66, 64
1, 85964, Note_on_c, 0, 66, 73
1, 86064, Note_on_c, 0, 54, 51
1, 86076, Note_on_c, 0, 79, 72
1, 86076, Note_on_c, 0, 64, 54
1, 86084, Control_c, 0, 64, 0
1, 86092, Note_off_c, 0, 66, 64
1, 86092, Note_on_c, 0, 58, 41
1, 86152, Control_c, 0, 64, 127
1, 86252, Note_off_c, 0, 54, 64
1, 86264, Note_off_c, 0, 64, 64
1, 86280, Note_off_c, 0, 58, 64
1, 86324, Note_on_c, 0, 78, 52
1, 86352, Note_off_c, 0, 79, 64
1, 86404, Control_c, 0, 64, 0
1, 86424, Note_on_c, 0, 58, 52
1, 86424, Note_on_c, 0, 54, 49
1, 86436, Note_on_c, 0, 64, 43
1, 86452, Note_on_c, 0, 77, 56
1, 86476, Control_c, 0, 64, 127
1, 86584, Note_off_c, 0, 78, 64
1, 86608, Note_off_c, 0, 58, 64
1, 86608, Note_on_c, 0, 76, 51
1, 86612, Note_off_c, 0, 54, 64
1, 86624, Note_off_c, 0, 64, 64
1, 86628, Note_off_c, 0, 77, 64
1, 86764, Control_c, 0, 64, 0
1, 86768, Note_on_c, 0, 47, 51
1, 86776, Note_on_c, 0, 75, 41
1, 86792, Note_off_c, 0, 76, 64
1, 86840, Control_c, 0, 64, 127
1, 86940, Note_on_c, 0, 74, 39
1, 86952, Note_off_c, 0, 75, 64
1, 87080, Note_on_c, 0, 73, 33
1, 87096, Note_on_c, 0, 54, 41
1, 87104, Note_on_c, 0, 62, 32
1, 87108, Note_off_c, 0, 74, 64
1, 87120, Control_c, 0, 64, 0
1, 87176, Control_c, 0, 64, 127
1, 87180, Note_off_c, 0, 47, 64
1, 87196, Note_on_c, 0, 72, 34
1, 87212, Note_off_c, 0, 73, 64
1, 87284, Note_on_c, 0, 71, 47
1, 87304, Note_off_c, 0, 72, 64
1, 87360, Note_on_c, 0, 70, 63
1, 87368, Note_off_c, 0, 54, 64
1, 87372, Note_off_c, 0, 71, 64
1, 87392, Note_off_c, 0, 62, 64
1, 87456, Note_on_c, 0, 69, 55
1, 87472, Note_off_c, 0, 70, 64
1, 87528, Note_off_c, 0, 69, 64
1, 87528, Note_on_c, 0, 68, 62
1, 87608, Note_off_c, 0, 68, 64
1, 87608, Note_on_c, 0, 67, 55
1, 87672, Note_on_c, 0, 66, 58
1, 87684, Note_off_c, 0, 67, 64
1, 87716, Note_on_c, 0, 65, 56
1, 87772, Note_off_c, 0, 66, 64
1, 87780, Note_on_c, 0, 67, 58
1, 87780, Note_on_c, 0, 64, 62
1, 87792, Note_on_c, 0, 71, 62
1, 87816, Note_off_c, 0, 65, 64
1, 87816, Control_c, 0, 64, 0
1, 87968, Control_c, 0, 64, 127
1, 87980, Note_off_c, 0, 67, 64
1, 87980, Note_on_c, 0, 62, 55
1, 88048, Note_off_c, 0, 64, 64
1, 88064, Control_c, 0, 64, 0
1, 88072, Note_on_c, 0, 72, 41
1, 88112, Note_off_c, 0, 71, 64
1, 88132, Note_on_c, 0, 67, 57
1, 88136, Note_on_c, 0, 60, 59
1, 88140, Note_on_c, 0, 64, 62
1, 88160, Note_off_c, 0, 62, 64
1, 88176, Note_off_c, 0, 72, 64
1, 88236, Control_c, 0, 64, 127
1, 88280, Note_on_c, 0, 59, 51
1, 88316, Note_off_c, 0, 60, 64
1, 88452, Note_on_c, 0, 57, 43
1, 88560, Note_off_c, 0, 59, 64
1, 88592, Note_on_c, 0, 55, 46
1, 88596, Note_on_c, 0, 69, 54
1, 88608, Note_off_c, 0, 57, 64
1, 88648, Note_off_c, 0, 67, 64
1, 88756, Control_c, 0, 64, 0
1, 88768, Note_on_c, 0, 63, 54
1, 88768, Note_on_c, 0, 71, 59
1, 88768, Note_on_c, 0, 54, 66
1, 88788, Note_off_c, 0, 64, 64
1, 88788, Note_off_c, 0, 69, 64
1, 88800, Note_off_c, 0, 55, 64
1, 88812, Control_c, 0, 64, 127
1, 88884, Note_off_c, 0, 71, 64
1, 88916, Note_on_c, 0, 53, 51
1, 88936, Note_off_c, 0, 54, 64
1, 88992, Note_off_c, 0, 63, 64
1, 89008, Note_on_c, 0, 71, 56
1, 89040, Note_off_c, 0, 53, 64
1, 89072, Control_c, 0, 64, 0
1, 89080, Note_on_c, 0, 63, 69
1, 89084, Note_on_c, 0, 59, 65
1, 89108, Note_on_c, 0, 56, 62
1, 89116, Note_off_c, 0, 71, 64
1, 89152, Control_c, 0, 64, 127
1, 89244, Note_on_c, 0, 54, 47
1, 89248, Note_off_c, 0, 56, 64
1, 89384, Note_on_c, 0, 51, 50
1, 89388, Note_off_c, 0, 54, 64
1, 89392, Note_on_c, 0, 68, 62
1, 89480, Note_off_c, 0, 63, 64
1, 89520, Note_off_c, 0, 51, 64
1, 89552, Note_on_c, 0, 47, 51
1, 89624, Note_off_c, 0, 47, 64
1, 89684, Control_c, 0, 64, 0
1, 89696, Note_off_c, 0, 59, 64
1, 89712, Note_on_c, 0, 64, 55
1, 89716, Note_on_c, 0, 66, 60
1, 89720, Note_off_c, 0, 68, 64
1, 89720, Note_on_c, 0, 58, 49
1, 89728, Note_on_c, 0, 42, 65
1, 89748, Control_c, 0, 64, 127
1, 89760, Note_off_c, 0, 42, 64
1, 89896, Note_off_c, 0, 64, 64
1, 89904, Note_off_c, 0, 58, 64
1, 90008, Note_on_c, 0, 76, 41
1, 90080, Note_off_c, 0, 66, 64
1, 90080, Control_c, 0, 64, 0
1, 90084, Note_on_c, 0, 64, 50
1, 90084, Note_on_c, 0, 61, 50
1, 90084, Note_on_c, 0, 54, 63
1, 90088, Note_on_c, 0, 75, 65
1, 90088, Note_on_c, 0, 70, 63
1, 90132, Control_c, 0, 64, 127
1, 90152, Note_off_c, 0, 76, 64
1, 90288, Note_off_c, 0, 70, 64
1, 90320, Note_off_c, 0, 54, 64
1, 90324, Note_off_c, 0, 64, 64
1, 90332, Note_off_c, 0, 61, 64
1, 90436, Note_on_c, 0, 70, 65
1, 90440, Note_on_c, 0, 61, 50
1, 90448, Note_on_c, 0, 64, 42
1, 90448, Note_on_c, 0, 54, 51
1, 90528, Control_c, 0, 64, 127
1, 90640, Control_c, 0, 64, 0
1, 90664, Note_on_c, 0, 73, 52
1, 90696, Note_off_c, 0, 75, 64
1, 90812, Note_on_c, 0, 71, 67
1, 90824, Note_off_c, 0, 61, 64
1, 90824, Note_off_c, 0, 64, 64
1, 90824, Note_off_c, 0, 70, 64
1, 90824, Note_on_c, 0, 63, 62
1, 90828, Note_on_c, 0, 56, 52
1, 90836, Control_c, 0, 64, 0
1, 90840, Note_off_c, 0, 54, 64
1, 90860, Note_off_c, 0, 73, 64
1, 90884, Control_c, 0, 64, 127
1, 90972, Note_on_c, 0, 54, 46
1, 91016, Note_off_c, 0, 56, 64
1, 91060, Note_on_c, 0, 66, 60
1, 91068, Note_on_c, 0, 75, 65
1, 91128, Note_off_c, 0, 71, 64
1, 91140, Note_off_c, 0, 63, 64
1, 91156, Control_c, 0, 64, 0
1, 91184, Note_on_c, 0, 78, 79
1, 91184, Note_on_c, 0, 71, 60
1, 91188, Note_on_c, 0, 52, 46
1, 91204, Note_off_c, 0, 66, 64
1, 91204, Control_c, 0, 64, 127
1, 91212, Note_off_c, 0, 75, 64
1, 91224, Note_off_c, 0, 54, 64
1, 91304, Note_on_c, 0, 51, 64
1, 91340, Note_off_c, 0, 52, 64
1, 91432, Note_on_c, 0, 49, 62
1, 91480, Note_off_c, 0, 51, 64
1, 91528, Note_on_c, 0, 83, 81
1, 91528, Note_on_c, 0, 75, 62
1, 91544, Note_off_c, 0, 78, 64
1, 91544, Note_off_c, 0, 71, 64
1, 91544, Note_on_c, 0, 47, 62
1, 91588, Note_off_c, 0, 49, 64
1, 91636, Note_on_c, 0, 46, 67
1, 91660, Note_off_c, 0, 47, 64
1, 91756, Note_on_c, 0, 44, 62
1, 91780, Note_off_c, 0, 46, 64
1, 91888, Note_on_c, 0, 42, 78
1, 91896, Note_on_c, 0, 58, 70
1, 91900, Note_on_c, 0, 66, 57
1, 91904, Note_off_c, 0, 83, 64
1, 91904, Note_off_c, 0, 75, 64
1, 91908, Note_on_c, 0, 64, 54
1, 91908, Control_c, 0, 64, 0
1, 91928, Note_off_c, 0, 44, 64
1, 91948, Control_c, 0, 64, 127
1, 91964, Tempo, 500000
1, 91964, Note_off_c, 0, 42, 64
1, 92076, Note_off_c, 0, 58, 64
1, 92088, Note_off_c, 0, 64, 64
1, 92180, Note_on_c, 0, 76, 50
1, 92260, Note_off_c, 0, 66, 64
1, 92260, Note_on_c, 0, 75, 62
1, 92276, Note_on_c, 0, 54, 55
1, 92276, Note_on_c, 0, 70, 59
1, 92276, Note_on_c, 0, 64, 62
1, 92280, Note_on_c, 0, 61, 50
1, 92288, Note_off_c, 0, 76, 64
1, 92304, Control_c, 0, 64, 0
1, 92364, Control_c, 0, 64, 127
1, 92488, Note_off_c, 0, 54, 64
1, 92488, Note_off_c, 0, 64, 64
1, 92492, Note_off_c, 0, 61, 64
1, 92496, Note_off_c, 0, 70, 64
1, 92612, Note_on_c, 0, 70, 66
1, 92616, Note_on_c, 0, 64, 59
1, 92628, Note_on_c, 0, 54, 52
1, 92636, Control_c, 0, 64, 0
1, 92692, Control_c, 0, 64, 127
1, 92784, Note_on_c, 0, 73, 57
1, 92808, Note_off_c, 0, 75, 64
1, 92948, Note_on_c, 0, 71, 64
1, 92948, Note_on_c, 0, 63, 62
1, 92960, Control_c, 0, 64, 0
1, 92964, Note_on_c, 0, 56, 52
1, 92972, Note_off_c, 0, 70, 64
1, 92976, Note_off_c, 0, 64, 64
1, 92984, Note_off_c, 0, 54, 64
1, 92984, Note_off_c, 0, 73, 64
1, 93020, Control_c, 0, 64, 127
1, 93112, Note_on_c, 0, 54, 27
1, 93136, Note_off_c, 0, 56, 64
1, 93180, Note_on_c, 0, 66, 57
1, 93188, Note_on_c, 0, 75, 67
1, 93256, Note_off_c, 0, 71, 64
1, 93260, Note_off_c, 0, 63, 64
1, 93304, Note_on_c, 0, 78, 74
1, 93308, Note_on_c, 0, 71, 59
1, 93316, Note_on_c, 0, 52, 64
1, 93344, Note_off_c, 0, 66, 64
1, 93356, Note_off_c, 0, 75, 64
1, 93364, Note_off_c, 0, 54, 64
1, 93400, Note_on_c, 0, 51, 52
1, 93416, Tempo, 500000
1, 93436, Note_off_c, 0, 52, 64
1, 93508, Note_on_c, 0, 49, 58
1, 93532, Note_off_c, 0, 51, 64
1, 93628, Note_on_c, 0, 83, 71
1, 93632, Note_on_c, 0, 75, 62
1, 93644, Note_on_c, 0, 47, 70
1, 93660, Note_off_c, 0, 78, 64
1, 93660, Note_off_c, 0, 49, 64
1, 93668, Note_off_c, 0, 71, 64
1, 93736, Note_on_c, 0, 44, 72
1, 93760, Note_off_c, 0, 47, 64
1, 93832, Note_on_c, 0, 42, 63
1, 93868, Note_off_c, 0, 44, 64
1, 93948, Note_off_c, 0, 75, 64
1, 93980, Note_off_c, 0, 83, 64
1, 93996, Note_on_c, 0, 63, 74
1, 94008, Note_on_c, 0, 71, 62
1, 94008, Note_on_c, 0, 35, 78
1, 94012, Control_c, 0, 64, 0
1, 94044, Note_off_c, 0, 42, 64
1, 94052, Control_c, 0, 64, 127
1, 94224, Note_off_c, 0, 63, 64
1, 94236, Note_off_c, 0, 71, 64
1, 94244, Note_on_c, 0, 66, 65
1, 94252, Note_on_c, 0, 75, 66
1, 94368, Note_on_c, 0, 54, 44
1, 94372, Note_on_c, 0, 63, 65
1, 94376, Note_on_c, 0, 78, 88
1, 94380, Note_on_c, 0, 71, 43
1, 94400, Control_c, 0, 64, 0
1, 94408, Note_off_c, 0, 75, 64
1, 94412, Note_off_c, 0, 66, 64
1, 94456, Control_c, 0, 64, 127
1, 94536, Note_off_c, 0, 54, 64
1, 94540, Note_off_c, 0, 63, 64
1, 94692, Note_on_c, 0, 83, 71
1, 94696, Note_on_c, 0, 75, 63
1, 94716, Note_off_c, 0, 71, 64
1, 94744, Note_off_c, 0, 78, 64
1, 94844, Note_off_c, 0, 35, 64
1, 94972, Note_off_c, 0, 83, 64
1, 95012, Note_off_c, 0, 75, 64
1, 95016, Control_c, 0, 64, 0
1, 95032, Note_on_c, 0, 47, 65
1, 95032, Note_on_c, 0, 71, 67
1, 95032, Note_on_c, 0, 63, 71
1, 95064, Control_c, 0, 64, 127
1, 95200, Note_on_c, 0, 75, 59
1, 95200, Note_on_c, 0, 67, 59
1, 95224, Note_off_c, 0, 71, 64
1, 95224, Note_off_c, 0, 63, 64
1, 95340, Note_on_c, 0, 55, 41
1, 95340, Note_on_c, 0, 59, 59
1, 95344, Note_on_c, 0, 63, 57
1, 95364, Note_on_c, 0, 71, 71
1, 95368, Note_on_c, 0, 79, 74
1, 95376, Note_off_c, 0, 67, 64
1, 95376, Note_off_c, 0, 75, 64
1, 95380, Control_c, 0, 64, 0
1, 95404, Control_c, 0, 64, 127
1, 95476, Note_off_c, 0, 47, 64
1, 95528, Note_on_c, 0, 75, 65
1, 95532, Note_on_c, 0, 83, 64
1, 95544, Note_off_c, 0, 71, 64
1, 95564, Note_off_c, 0, 55, 64
1, 95564, Note_off_c, 0, 59, 64
1, 95564, Note_off_c, 0, 63, 64
1, 95564, Note_off_c, 0, 79, 64
1, 95596, Note_off_c, 0, 75, 64
1, 95656, Note_off_c, 0, 83, 64
1, 95684, Note_on_c, 0, 83, 71
1, 95780, Note_on_c, 0, 87, 63
1, 95788, Note_on_c, 0, 95, 60
1, 95836, Control_c, 0, 64, 0
1, 95860, Control_c, 0, 64, 127
1, 95948, Note_off_c, 0, 83, 64
1, 96164, Note_off_c, 0, 87, 64
1, 96172, Note_off_c, 0, 95, 64
1, 96324, Note_on_c, 0, 71, 43
1, 96328, Control_c, 0, 64, 0
1, 96412, Control_c, 0, 64, 127
1, 96488, Note_on_c, 0, 67, 41
1, 96544, Note_off_c, 0, 71, 64
1, 96672, Control_c, 0, 64, 0
1, 96676, Note_on_c, 0, 62, 43
1, 96728, Note_off_c, 0, 67, 64
1, 96824, Control_c, 0, 64, 127
1, 96856, Note_on_c, 0, 63, 43
1, 96888, Note_off_c, 0, 62, 64
1, 96888, Control_c, 0, 64, 0
1, 96972, Control_c, 0, 64, 127
1, 96996, Control_c, 0, 64, 0
1, 97020, Note_on_c, 0, 66, 37
1, 97052, Control_c, 0, 64, 127
1, 97076, Note_off_c, 0, 63, 64
1, 97188, Note_on_c, 0, 67, 43
1, 97208, Note_off_c, 0, 66, 64
1, 97376, Note_on_c, 0, 71, 47
1, 97404, Control_c, 0, 64, 0
1, 97428, Note_off_c, 0, 67, 64
1, 97572, Note_on_c, 0, 67, 49
1, 97636, Note_off_c, 0, 71, 64
1, 97660, Control_c, 0, 64, 127
1, 97792, Note_on_c, 0, 71, 54
1, 97828, Note_off_c, 0, 67, 64
1, 98000, Note_on_c, 0, 75, 56
1, 98060, Note_off_c, 0, 71, 64
1, 98248, Note_on_c, 0, 78, 56
1, 98312, Note_off_c, 0, 75, 64
1, 98524, Note_on_c, 0, 76, 52
1, 98552, Note_off_c, 0, 78, 64
1, 98572, Control_c, 0, 64, 0
1, 98720, Control_c, 0, 64, 127
1, 98808, Control_c, 0, 64, 0
1, 98828, Note_on_c, 0, 75, 63
1, 98844, Note_off_c, 0, 76, 64
1, 98884, Control_c, 0, 64, 127
1, 99000, Control_c, 0, 64, 0
1, 99020, Note_on_c, 0, 70, 57
1, 99096, Note_off_c, 0, 75, 64
1, 99108, Control_c, 0, 64, 127
1, 99204, Note_on_c, 0, 59, 36
1, 99204, Control_c, 0, 64, 0
1, 99212, Note_on_c, 0, 63, 17
1, 99212, Note_on_c, 0, 56, 36
1, 99220, Note_on_c, 0, 71, 74
1, 99244, Note_off_c, 0, 70, 64
1, 99252, Control_c, 0, 64, 127
1, 99564, Note_off_c, 0, 59, 64
1, 99568, Note_on_c, 0, 68, 66
1, 99572, Note_off_c, 0, 63, 64
1, 99572, Note_off_c, 0, 56, 64
1, 99572, Note_on_c, 0, 62, 31
1, 99580, Note_on_c, 0, 52, 47
1, 99588, Note_on_c, 0, 56, 32
1, 99596, Control_c, 0, 64, 0
1, 99604, Note_off_c, 0, 71, 64
1, 99656, Control_c, 0, 64, 127
1, 99896, Note_on_c, 0, 70, 66
1, 99916, Control_c, 0, 64, 0
1, 99928, Note_off_c, 0, 68, 64
1, 99956, Control_c, 0, 64, 127
1, 99976, Note_off_c, 0, 62, 64
1, 99984, Note_off_c, 0, 52, 64
1, 99992, Note_off_c, 0, 56, 64
1, 100084, Note_on_c, 0, 67, 63
1, 100108, Note_off_c, 0, 70, 64
1, 100228, Note_on_c, 0, 63, 65
1, 100248, Note_on_c, 0, 61, 28
1, 100248, Note_on_c, 0, 51, 34
1, 100256, Note_on_c, 0, 58, 24
1, 100268, Control_c, 0, 64, 0
1, 100300, Note_off_c, 0, 67, 64
1, 100324, Control_c, 0, 64, 127
1, 100440, Note_off_c, 0, 61, 64
1, 100440, Note_off_c, 0, 51, 64
1, 100448, Note_off_c, 0, 58, 64
1, 100572, Note_on_c, 0, 55, 36
1, 100580, Note_on_c, 0, 61, 32
1, 100596, Note_on_c, 0, 51, 18
1, 100600, Control_c, 0, 64, 0
1, 100656, Control_c, 0, 64, 127
1, 100884, Control_c, 0, 64, 0
1, 100900, Note_on_c, 0, 65, 60
1, 100920, Note_off_c, 0, 51, 64
1, 100928, Control_c, 0, 64, 127
1, 100940, Note_off_c, 0, 55, 64
1, 100956, Note_off_c, 0, 63, 64
1, 100956, Note_off_c, 0, 61, 64
1, 101056, Note_on_c, 0, 67, 57
1, 101084, Note_off_c, 0, 65, 64
1, 101196, Note_on_c, 0, 68, 65
1, 101204, Note_on_c, 0, 53, 34
1, 101212, Note_on_c, 0, 61, 35
1, 101212, Note_on_c, 0, 51, 34
1, 101216, Control_c, 0, 64, 0
1, 101228, Note_off_c, 0, 67, 64
1, 101272, Control_c, 0, 64, 127
1, 101396, Note_off_c, 0, 53, 64
1, 101404, Note_off_c, 0, 51, 64
1, 101404, Note_off_c, 0, 61, 64
1, 101524, Note_on_c, 0, 70, 62
1, 101532, Note_on_c, 0, 61, 39
1, 101532, Note_on_c, 0, 55, 43
1, 101540, Note_on_c, 0, 51, 41
1, 101556, Control_c, 0, 64, 0
1, 101572, Control_c, 0, 64, 127
1, 101584, Note_off_c, 0, 68, 64
1, 101724, Note_off_c, 0, 61, 64
1, 101724, Note_off_c, 0, 55, 64
1, 101732, Note_off_c, 0, 51, 64
1, 101856, Note_on_c, 0, 71, 57
1, 101868, Note_on_c, 0, 44, 52
1, 101876, Note_off_c, 0, 70, 64
1, 101892, Control_c, 0, 64, 0
1, 101940, Control_c, 0, 64, 127
1, 102000, Note_on_c, 0, 76, 55
1, 102076, Note_off_c, 0, 71, 64
1, 102180, Note_on_c, 0, 75, 58
1, 102188, Note_on_c, 0, 59, 35
1, 102188, Note_on_c, 0, 51, 40
1, 102208, Note_off_c, 0, 76, 64
1, 102212, Control_c, 0, 64, 0
1, 102264, Control_c, 0, 64, 127
1, 102580, Note_on_c, 0, 43, 54
1, 102592, Control_c, 0, 64, 0
1, 102620, Note_off_c, 0, 44, 64
1, 102628, Control_c, 0, 64, 127
1, 102644, Note_off_c, 0, 59, 64
1, 102644, Note_off_c, 0, 51, 64
1, 102944, Control_c, 0, 64, 0
1, 102960, Note_on_c, 0, 78, 67
1, 102972, Note_on_c, 0, 42, 55
1, 102988, Note_off_c, 0, 43, 64
1, 102992, Note_off_c, 0, 75, 64
1, 103004, Control_c, 0, 64, 127
1, 103104, Note_on_c, 0, 73, 59
1, 103148, Note_off_c, 0, 78, 64
1, 103232, Note_on_c, 0, 54, 28
1, 103260, Note_on_c, 0, 75, 65
1, 103268, Note_on_c, 0, 59, 33
1, 103272, Note_on_c, 0, 63, 41
1, 103280, Control_c, 0, 64, 0
1, 103308, Note_off_c, 0, 73, 64
1, 103340, Control_c, 0, 64, 127
1, 103424, Note_off_c, 0, 54, 64
1, 103460, Note_off_c, 0, 59, 64
1, 103464, Note_off_c, 0, 63, 64
1, 103500, Note_off_c, 0, 42, 64
1, 103572, Note_on_c, 0, 68, 43
1, 103584, Note_on_c, 0, 71, 71
1, 103584, Note_on_c, 0, 59, 39
1, 103588, Note_on_c, 0, 63, 32
1, 103624, Control_c, 0, 64, 0
1, 103628, Note_off_c, 0, 75, 64
1, 103692, Control_c, 0, 64, 127
1, 103844, Note_off_c, 0, 68, 64
1, 103892, Note_off_c, 0, 59, 64
1, 103896, Note_off_c, 0, 63, 64
1, 103900, Note_on_c, 0, 73, 67
1, 103920, Note_off_c, 0, 71, 64
1, 104028, Note_on_c, 0, 70, 58
1, 104080, Note_off_c, 0, 73, 64
1, 104180, Note_on_c, 0, 61, 43
1, 104180, Note_on_c, 0, 66, 71
1, 104184, Note_on_c, 0, 64, 34
1, 104192, Note_on_c, 0, 54, 28
1, 104196, Control_c, 0, 64, 0
1, 104204, Note_off_c, 0, 70, 64
1, 104268, Control_c, 0, 64, 127
1, 104480, Note_off_c, 0, 61, 64
1, 104484, Note_off_c, 0, 64, 64
1, 104492, Note_off_c, 0, 54, 64
1, 104504, Note_on_c, 0, 58, 37
1, 104516, Note_on_c, 0, 64, 34
1, 104524, Note_on_c, 0, 54, 21
1, 104556, Control_c, 0, 64, 0
1, 104624, Control_c, 0, 64, 127
1, 104792, Note_off_c, 0, 58, 64
1, 104816, Note_off_c, 0, 64, 64
1, 104816, Note_on_c, 0, 68, 62
1, 104824, Note_off_c, 0, 54, 64
1, 104840, Note_off_c, 0, 66, 64
1, 104940, Note_on_c, 0, 70, 44
1, 104988, Note_off_c, 0, 68, 64
1, 105076, Note_on_c, 0, 71, 66
1, 105088, Note_on_c, 0, 64, 42
1, 105092, Note_on_c, 0, 56, 32
1, 105092, Note_on_c, 0, 54, 42
1, 105096, Note_off_c, 0, 70, 64
1, 105116, Control_c, 0, 64, 0
1, 105168, Control_c, 0, 64, 127
1, 105280, Note_off_c, 0, 64, 64
1, 105284, Note_off_c, 0, 56, 64
1, 105284, Note_off_c, 0, 54, 64
1, 105376, Note_on_c, 0, 73, 69
1, 105384, Note_on_c, 0, 64, 41
1, 105388, Note_on_c, 0, 54, 42
1, 105392, Note_on_c, 0, 58, 44
1, 105412, Note_off_c, 0, 71, 64
1, 105576, Note_off_c, 0, 64, 64
1, 105580, Note_off_c, 0, 54, 64
1, 105584, Note_off_c, 0, 58, 64
1, 105700, Control_c, 0, 64, 0
1, 105708, Note_on_c, 0, 47, 62
1, 105708, Note_on_c, 0, 75, 63
1, 105740, Note_off_c, 0, 73, 64
1, 105748, Control_c, 0, 64, 127
1, 105944, Note_on_c, 0, 77, 50
1, 105948, Note_off_c, 0, 75, 64
1, 106052, Note_on_c, 0, 75, 74
1, 106092, Note_off_c, 0, 77, 64
1, 106128, Note_on_c, 0, 56, 34
1, 106128, Note_on_c, 0, 53, 21
1, 106140, Note_on_c, 0, 63, 34
1, 106144, Note_off_c, 0, 47, 64
1, 106148, Note_on_c, 0, 77, 52
1, 106160, Note_off_c, 0, 75, 64
1, 106208, Note_off_c, 0, 77, 64
1, 106220, Note_on_c, 0, 79, 29
1, 106272, Note_off_c, 0, 79, 64
1, 106280, Note_on_c, 0, 77, 58
1, 106316, Note_off_c, 0, 77, 64
1, 106328, Note_on_c, 0, 79, 69
1, 106376, Note_on_c, 0, 77, 71
1, 106380, Note_off_c, 0, 79, 64
1, 106424, Note_on_c, 0, 79, 71
1, 106428, Note_off_c, 0, 56, 64
1, 106428, Note_off_c, 0, 53, 64
1, 106432, Note_off_c, 0, 77, 64
1, 106440, Note_off_c, 0, 63, 64
1, 106472, Note_on_c, 0, 77, 74
1, 106476, Note_off_c, 0, 79, 64
1, 106484, Note_on_c, 0, 47, 49
1, 106528, Note_on_c, 0, 79, 56
1, 106536, Note_off_c, 0, 77, 64
1, 106572, Note_off_c, 0, 79, 64
1, 106580, Note_on_c, 0, 77, 69
1, 106648, Note_on_c, 0, 75, 71
1, 106656, Note_off_c, 0, 77, 64
1, 106764, Note_on_c, 0, 77, 65
1, 106788, Note_off_c, 0, 75, 64
1, 106884, Note_on_c, 0, 46, 51
1, 106888, Note_on_c, 0, 79, 73
1, 106892, Control_c, 0, 64, 0
1, 106904, Note_off_c, 0, 77, 64
1, 106916, Note_off_c, 0, 47, 64
1, 106932, Control_c, 0, 64, 127
1, 107056, Note_on_c, 0, 70, 66
1, 107112, Note_off_c, 0, 79, 64
1, 107228, Note_on_c, 0, 63, 21
1, 107232, Note_on_c, 0, 58, 26
1, 107240, Note_on_c, 0, 55, 40
1, 107240, Note_on_c, 0, 79, 66
1, 107264, Control_c, 0, 64, 0
1, 107300, Note_off_c, 0, 70, 64
1, 107312, Control_c, 0, 64, 127
1, 107332, Note_off_c, 0, 46, 64
1, 107420, Note_off_c, 0, 63, 64
1, 107424, Note_off_c, 0, 58, 64
1, 107432, Note_off_c, 0, 55, 64
1, 107580, Note_on_c, 0, 77, 57
1, 107596, Note_on_c, 0, 56, 34
1, 107604, Note_on_c, 0, 62, 28
1, 107612, Note_on_c, 0, 58, 25
1, 107616, Control_c, 0, 64, 0
1, 107620, Note_off_c, 0, 79, 64
1, 107668, Control_c, 0, 64, 127
1, 107780, Note_on_c, 0, 79, 47
1, 107824, Note_off_c, 0, 77, 64
1, 107916, Note_off_c, 0, 79, 64
1, 107916, Note_on_c, 0, 75, 54
1, 107940, Note_on_c, 0, 51, 51
1, 107940, Control_c, 0, 64, 0
1, 107956, Note_off_c, 0, 56, 64
1, 107960, Note_off_c, 0, 58, 64
1, 108004, Note_off_c, 0, 62, 64
1, 108004, Control_c, 0, 64, 127
1, 108132, Note_off_c, 0, 75, 64
1, 108192, Note_on_c, 0, 70, 65
1, 108280, Note_on_c, 0, 75, 62
1, 108292, Note_on_c, 0, 63, 26
1, 108296, Note_on_c, 0, 67, 37
1, 108300, Note_on_c, 0, 55, 36
1, 108308, Note_on_c, 0, 58, 25
1, 108308, Control_c, 0, 64, 0
1, 108348, Control_c, 0, 64, 127
1, 108376, Note_off_c, 0, 70, 64
1, 108396, Note_off_c, 0, 51, 64
1, 108484, Note_off_c, 0, 63, 64
1, 108488, Note_off_c, 0, 67, 64
1, 108492, Note_off_c, 0, 55, 64
1, 108500, Note_off_c, 0, 58, 64
1, 108676, Note_on_c, 0, 56, 35
1, 108680, Note_on_c, 0, 60, 42
1, 108688, Note_on_c, 0, 66, 36
1, 108704, Control_c, 0, 64, 0
1, 108764, Control_c, 0, 64, 127
1, 108868, Note_off_c, 0, 56, 64
1, 108872, Note_off_c, 0, 60, 64
1, 108880, Tempo, 500000
1, 108880, Note_off_c, 0, 66, 64
1, 109060, Note_on_c, 0, 49, 49
1, 109068, Note_on_c, 0, 76, 57
1, 109076, Control_c, 0, 64, 0
1, 109088, Note_off_c, 0, 75, 64
1, 109128, Control_c, 0, 64, 127
1, 109240, Note_on_c, 0, 68, 49
1, 109328, Note_off_c, 0, 76, 64
1, 109364, Note_on_c, 0, 56, 36
1, 109376, Note_on_c, 0, 58, 39
1, 109384, Note_on_c, 0, 73, 57
1, 109392, Note_on_c, 0, 64, 35
1, 109412, Control_c, 0, 64, 0
1, 109428, Note_off_c, 0, 68, 64
1, 109468, Control_c, 0, 64, 127
1, 109556, Note_off_c, 0, 56, 64
1, 109568, Note_off_c, 0, 58, 64
1, 109576, Note_off_c, 0, 49, 64
1, 109584, Note_off_c, 0, 64, 64
1, 109740, Note_on_c, 0, 70, 56
1, 109748, Note_on_c, 0, 51, 31
1, 109748, Note_on_c, 0, 61, 31
1, 109756, Note_off_c, 0, 73, 64
1, 109760, Note_on_c, 0, 55, 36
1, 109768, Control_c, 0, 64, 0
1, 109804, Control_c, 0, 64, 127
1, 109940, Note_off_c, 0, 51, 64
1, 109940, Note_off_c, 0, 61, 64
1, 109952, Note_off_c, 0, 55, 64
1, 109996, Note_on_c, 0, 71, 42
1, 110012, Note_off_c, 0, 70, 64
1, 110068, Note_on_c, 0, 68, 41
1, 110084, Note_off_c, 0, 71, 64
1, 110100, Note_on_c, 0, 44, 36
1, 110116, Note_on_c, 0, 70, 49
1, 110132, Control_c, 0, 64, 0
1, 110144, Note_off_c, 0, 68, 64
1, 110160, Note_on_c, 0, 68, 54
1, 110188, Control_c, 0, 64, 127
1, 110204, Note_off_c, 0, 70, 64
1, 110420, Note_on_c, 0, 67, 35
1, 110444, Note_off_c, 0, 68, 64
1, 110508, Note_on_c, 0, 68, 48
1, 110540, Note_on_c, 0, 51, 29
1, 110548, Control_c, 0, 64, 0
1, 110556, Note_on_c, 0, 59, 27
1, 110560, Note_off_c, 0, 67, 64
1, 110596, Note_off_c, 0, 44, 64
1, 110608, Control_c, 0, 64, 127
1, 110732, Note_off_c, 0, 51, 64
1, 110748, Note_off_c, 0, 59, 64
1, 110932, Note_on_c, 0, 59, 27
1, 110932, Note_on_c, 0, 56, 27
1, 110968, Control_c, 0, 64, 0
1, 111020, Control_c, 0, 64, 127
1, 111124, Note_off_c, 0, 59, 64
1, 111124, Note_off_c, 0, 56, 64
1, 111280, Note_on_c, 0, 46, 55
1, 111292, Control_c, 0, 64, 0
1, 111364, Control_c, 0, 64, 127
1, 111612, Note_on_c, 0, 56, 43
1, 111620, Note_on_c, 0, 58, 37
1, 111624, Note_on_c, 0, 62, 24
1, 111628, Note_on_c, 0, 65, 59
1, 111640, Control_c, 0, 64, 0
1, 111680, Note_off_c, 0, 68, 64
1, 111688, Control_c, 0, 64, 127
1, 111768, Note_on_c, 0, 67, 55
1, 111800, Note_off_c, 0, 46, 64
1, 111804, Note_off_c, 0, 56, 64
1, 111812, Note_off_c, 0, 58, 64
1, 111812, Note_off_c, 0, 65, 64
1, 111816, Note_off_c, 0, 62, 64
1, 111916, Note_on_c, 0, 56, 31
1, 111924, Note_on_c, 0, 58, 34
1, 111924, Note_on_c, 0, 62, 24
1, 111936, Note_on_c, 0, 68, 55
1, 111964, Note_off_c, 0, 67, 64
1, 112064, Note_on_c, 0, 77, 56
1, 112108, Note_off_c, 0, 56, 64
1, 112108, Note_off_c, 0, 68, 64
1, 112116, Note_off_c, 0, 58, 64
1, 112116, Note_off_c, 0, 62, 64
1, 112216, Note_on_c, 0, 75, 58
1, 112220, Note_on_c, 0, 51, 51
1, 112240, Control_c, 0, 64, 0
1, 112248, Note_off_c, 0, 77, 64
1, 112300, Control_c, 0, 64, 127
1, 112356, Note_on_c, 0, 68, 62
1, 112396, Note_off_c, 0, 75, 64
1, 112508, Note_on_c, 0, 67, 52
1, 112508, Note_on_c, 0, 55, 41
1, 112516, Note_on_c, 0, 63, 39
1, 112516, Note_on_c, 0, 58, 37
1, 112544, Control_c, 0, 64, 0
1, 112560, Note_off_c, 0, 68, 64
1, 112612, Control_c, 0, 64, 127
1, 112700, Note_off_c, 0, 55, 64
1, 112708, Note_off_c, 0, 63, 64
1, 112708, Note_off_c, 0, 58, 64
1, 112784, Note_off_c, 0, 51, 64
1, 112796, Note_on_c, 0, 72, 58
1, 112812, Note_on_c, 0, 63, 41
1, 112812, Note_on_c, 0, 55, 34
1, 112824, Note_on_c, 0, 58, 36
1, 112828, Control_c, 0, 64, 0
1, 112852, Control_c, 0, 64, 127
1, 112912, Note_off_c, 0, 67, 64
1, 112996, Note_on_c, 0, 70, 65
1, 113004, Note_off_c, 0, 63, 64
1, 113004, Note_off_c, 0, 55, 64
1, 113016, Note_off_c, 0, 58, 64
1, 113028, Note_off_c, 0, 72, 64
1, 113080, Note_on_c, 0, 68, 62
1, 113096, Control_c, 0, 64, 0
1, 113116, Note_on_c, 0, 46, 49
1, 113136, Note_off_c, 0, 70, 64
1, 113168, Note_on_c, 0, 70, 69
1, 113176, Control_c, 0, 64, 127
1, 113188, Note_off_c, 0, 68, 64
1, 113236, Note_on_c, 0, 68, 62
1, 113272, Note_off_c, 0, 70, 64
1, 113344, Note_on_c, 0, 65, 56
1, 113356, Note_off_c, 0, 68, 64
1, 113372, Note_on_c, 0, 62, 37
1, 113376, Note_on_c, 0, 56, 51
1, 113380, Note_on_c, 0, 58, 35
1, 113380, Control_c, 0, 64, 0
1, 113432, Control_c, 0, 64, 127
1, 113492, Note_on_c, 0, 67, 54
1, 113524, Note_off_c, 0, 65, 64
1, 113564, Note_off_c, 0, 62, 64
1, 113568, Note_off_c, 0, 56, 64
1, 113572, Note_off_c, 0, 58, 64
1, 113596, Note_off_c, 0, 46, 64
1, 113632, Note_on_c, 0, 68, 58
1, 113632, Note_on_c, 0, 62, 35
1, 113640, Note_on_c, 0, 56, 51
1, 113644, Note_on_c, 0, 58, 44
1, 113672, Note_off_c, 0, 67, 64
1, 113768, Note_on_c, 0, 77, 54
1, 113804, Note_off_c, 0, 68, 64
1, 113824, Note_off_c, 0, 62, 64
1, 113832, Note_off_c, 0, 56, 64
1, 113836, Note_off_c, 0, 58, 64
1, 113912, Note_on_c, 0, 75, 65
1, 113936, Control_c, 0, 64, 0
1, 113948, Note_off_c, 0, 77, 64
1, 113956, Note_on_c, 0, 39, 65
1, 113980, Control_c, 0, 64, 127
1, 114048, Note_on_c, 0, 68, 57
1, 114096, Note_off_c, 0, 75, 64
1, 114204, Note_on_c, 0, 67, 55
1, 114220, Control_c, 0, 64, 0
1, 114228, Note_off_c, 0, 68, 64
1, 114236, Note_on_c, 0, 63, 44
1, 114244, Note_on_c, 0, 55, 26
1, 114292, Control_c, 0, 64, 127
1, 114408, Note_off_c, 0, 39, 64
1, 114428, Note_off_c, 0, 63, 64
1, 114436, Note_off_c, 0, 55, 64
1, 114484, Note_on_c, 0, 63, 49
1, 114488, Note_on_c, 0, 58, 55
1, 114508, Note_on_c, 0, 55, 44
1, 114604, Note_on_c, 0, 66, 52
1, 114644, Note_off_c, 0, 67, 64
1, 114676, Note_off_c, 0, 63, 64
1, 114680, Note_off_c, 0, 58, 64
1, 114700, Note_off_c, 0, 55, 64
1, 114772, Note_on_c, 0, 67, 55
1, 114788, Note_on_c, 0, 45, 55
1, 114800, Note_off_c, 0, 66, 64
1, 114812, Control_c, 0, 64, 0
1, 114884, Control_c, 0, 64, 127
1, 115052, Note_on_c, 0, 55, 49
1, 115052, Note_on_c, 0, 57, 29
1, 115052, Note_on_c, 0, 61, 50
1, 115068, Note_on_c, 0, 64, 52
1, 115092, Note_off_c, 0, 67, 64
1, 115112, Control_c, 0, 64, 0
1, 115148, Control_c, 0, 64, 127
1, 115188, Note_on_c, 0, 66, 62
1, 115216, Note_off_c, 0, 64, 64
1, 115244, Note_off_c, 0, 55, 64
1, 115244, Note_off_c, 0, 57, 64
1, 115244, Note_off_c, 0, 61, 64
1, 115260, Note_off_c, 0, 45, 64
1, 115320, Note_on_c, 0, 57, 29
1, 115320, Note_on_c, 0, 55, 49
1, 115340, Note_on_c, 0, 67, 49
1, 115344, Note_on_c, 0, 61, 40
1, 115352, Note_off_c, 0, 66, 64
1, 115500, Note_on_c, 0, 76, 48
1, 115512, Note_off_c, 0, 57, 64
1, 115512, Note_off_c, 0, 55, 64
1, 115536, Note_off_c, 0, 61, 64
1, 115572, Note_off_c, 0, 67, 64
1, 115628, Note_on_c, 0, 74, 41
1, 115636, Note_on_c, 0, 45, 58
1, 115660, Note_off_c, 0, 76, 64
1, 115668, Control_c, 0, 64, 0
1, 115704, Control_c, 0, 64, 127
1, 115812, Note_on_c, 0, 67, 54
1, 115852, Note_off_c, 0, 74, 64
1, 115924, Note_on_c, 0, 54, 36
1, 115924, Note_on_c, 0, 66, 60
1, 115924, Note_on_c, 0, 57, 42
1, 115940, Note_on_c, 0, 62, 41
1, 115940, Control_c, 0, 64, 0
1, 115964, Note_off_c, 0, 67, 64
1, 115996, Control_c, 0, 64, 127
1, 116068, Note_on_c, 0, 67, 60
1, 116088, Note_off_c, 0, 45, 64
1, 116092, Note_off_c, 0, 66, 64
1, 116116, Note_off_c, 0, 54, 64
1, 116116, Note_off_c, 0, 57, 64
1, 116132, Note_off_c, 0, 62, 64
1, 116200, Note_on_c, 0, 68, 58
1, 116204, Note_on_c, 0, 53, 40
1, 116212, Note_on_c, 0, 59, 49
1, 116216, Note_on_c, 0, 62, 49
1, 116240, Control_c, 0, 64, 0
1, 116248, Note_off_c, 0, 67, 64
1, 116288, Control_c, 0, 64, 127
1, 116372, Note_on_c, 0, 71, 54
1, 116396, Note_off_c, 0, 53, 64
1, 116404, Note_off_c, 0, 59, 64
1, 116408, Note_off_c, 0, 62, 64
1, 116428, Note_off_c, 0, 68, 64
1, 116492, Note_on_c, 0, 69, 55
1, 116496, Note_on_c, 0, 45, 54
1, 116516, Control_c, 0, 64, 0
1, 116524, Note_off_c, 0, 71, 64
1, 116568, Tempo, 500000
1, 116568, Control_c, 0, 64, 127
1, 116692, Note_on_c, 0, 63, 62
1, 116720, Note_off_c, 0, 69, 64
1, 116780, Note_on_c, 0, 66, 56
1, 116780, Note_on_c, 0, 61, 62
1, 116784, Control_c, 0, 64, 0
1, 116800, Note_on_c, 0, 55, 34
1, 116808, Note_off_c, 0, 63, 64
1, 116848, Control_c, 0, 64, 127
1, 116948, Note_off_c, 0, 45, 64
1, 116972, Note_off_c, 0, 61, 64
1, 116972, Note_on_c, 0, 64, 52
1, 116992, Note_off_c, 0, 55, 64
1, 117004, Note_off_c, 0, 66, 64
1, 117064, Note_on_c, 0, 67, 59
1, 117072, Note_on_c, 0, 61, 51
1, 117072, Note_on_c, 0, 55, 55
1, 117108, Note_off_c, 0, 64, 64
1, 117224, Note_on_c, 0, 59, 41
1, 117264, Note_off_c, 0, 61, 64
1, 117264, Note_off_c, 0, 55, 64
1, 117320, Note_off_c, 0, 67, 64
1, 117336, Note_on_c, 0, 57, 63
1, 117344, Note_on_c, 0, 33, 58
1, 117368, Control_c, 0, 64, 0
1, 117372, Note_off_c, 0, 59, 64
1, 117408, Control_c, 0, 64, 127
1, 117532, Note_on_c, 0, 64, 51
1, 117588, Note_off_c, 0, 57, 64
1, 117616, Note_on_c, 0, 57, 49
1, 117616, Note_on_c, 0, 54, 43
1, 117628, Note_on_c, 0, 62, 62
1, 117636, Control_c, 0, 64, 0
1, 117648, Note_off_c, 0, 64, 64
1, 117672, Control_c, 0, 64, 127
1, 117784, Note_on_c, 0, 67, 49
1, 117800, Note_off_c, 0, 33, 64
1, 117808, Note_off_c, 0, 57, 64
1, 117808, Note_off_c, 0, 54, 64
1, 117816, Note_off_c, 0, 62, 64
1, 117904, Note_on_c, 0, 54, 49
1, 117904, Note_on_c, 0, 62, 55
1, 117912, Note_on_c, 0, 66, 73
1, 117912, Note_on_c, 0, 57, 41
1, 117936, Note_off_c, 0, 67, 64
1, 118072, Note_on_c, 0, 71, 60
1, 118096, Note_off_c, 0, 54, 64
1, 118096, Note_off_c, 0, 62, 64
1, 118104, Note_off_c, 0, 57, 64
1, 118112, Note_off_c, 0, 66, 64
1, 118184, Note_off_c, 0, 71, 64
1, 118184, Note_on_c, 0, 69, 51
1, 118196, Note_on_c, 0, 45, 56
1, 118196, Control_c, 0, 64, 0
1, 118236, Control_c, 0, 64, 127
1, 118248, Note_on_c, 0, 71, 59
1, 118264, Note_off_c, 0, 69, 64
1, 118320, Note_on_c, 0, 69, 49
1, 118352, Note_off_c, 0, 71, 64
1, 118424, Note_on_c, 0, 68, 56
1, 118432, Note_off_c, 0, 69, 64
1, 118448, Note_on_c, 0, 61, 51
1, 118452, Control_c, 0, 64, 0
1, 118464, Note_on_c, 0, 52, 44
1, 118528, Control_c, 0, 64, 127
1, 118628, Note_on_c, 0, 67, 63
1, 118640, Note_off_c, 0, 61, 64
1, 118644, Note_off_c, 0, 45, 64
1, 118652, Note_off_c, 0, 68, 64
1, 118656, Note_off_c, 0, 52, 64
1, 118728, Note_on_c, 0, 69, 57
1, 118732, Note_off_c, 0, 67, 64
1, 118744, Control_c, 0, 64, 0
1, 118748, Note_on_c, 0, 67, 55
1, 118748, Note_on_c, 0, 61, 55
1, 118760, Note_on_c, 0, 57, 41
1, 118764, Control_c, 0, 64, 127
1, 118920, Note_on_c, 0, 76, 54
1, 118940, Note_off_c, 0, 67, 64
1, 118940, Note_off_c, 0, 61, 64
1, 118952, Note_off_c, 0, 57, 64
1, 118968, Note_off_c, 0, 69, 64
1, 119012, Control_c, 0, 64, 0
1, 119024, Note_on_c, 0, 38, 51
1, 119024, Note_on_c, 0, 74, 60
1, 119048, Note_off_c, 0, 76, 64
1, 119080, Control_c, 0, 64, 127
1, 119212, Note_on_c, 0, 67, 52
1, 119260, Note_off_c, 0, 74, 64
1, 119288, Note_on_c, 0, 60, 26
1, 119296, Note_on_c, 0, 57, 20
1, 119296, Note_on_c, 0, 50, 49
1, 119304, Note_on_c, 0, 66, 60
1, 119316, Control_c, 0, 64, 0
1, 119332, Control_c, 0, 64, 127
1, 119344, Note_off_c, 0, 67, 64
1, 119480, Note_off_c, 0, 60, 64
1, 119480, Note_on_c, 0, 67, 57
1, 119488, Note_off_c, 0, 57, 64
1, 119488, Note_off_c, 0, 50, 64
1, 119504, Note_off_c, 0, 66, 64
1, 119584, Note_on_c, 0, 68, 57
1, 119592, Note_on_c, 0, 54, 62
1, 119592, Note_on_c, 0, 60, 62
1, 119592, Note_on_c, 0, 50, 65
1, 119592, Control_c, 0, 64, 0
1, 119632, Note_off_c, 0, 67, 64
1, 119688, Control_c, 0, 64, 127
1, 119752, Note_on_c, 0, 71, 39
1, 119776, Note_off_c, 0, 68, 64
1, 119848, Note_off_c, 0, 38, 64
1, 119856, Note_on_c, 0, 69, 52
1, 119868, Note_off_c, 0, 71, 64
1, 119936, Note_off_c, 0, 50, 64
1, 119936, Note_off_c, 0, 54, 64
1, 119952, Note_off_c, 0, 60, 64
1, 120052, Note_on_c, 0, 65, 57
1, 120084, Note_off_c, 0, 69, 64
1, 120128, Control_c, 0, 64, 0
1, 120144, Note_on_c, 0, 66, 60
1, 120144, Note_on_c, 0, 60, 51
1, 120148, Note_on_c, 0, 57, 46
1, 120152, Note_on_c, 0, 51, 59
1, 120184, Note_off_c, 0, 65, 64
1, 120200, Control_c, 0, 64, 127
1, 120320, Note_on_c, 0, 67, 57
1, 120336, Note_off_c, 0, 60, 64
1, 120340, Note_off_c, 0, 57, 64
1, 120344, Note_off_c, 0, 51, 64
1, 120352, Note_off_c, 0, 66, 64
1, 120424, Control_c, 0, 64, 0
1, 120432, Note_on_c, 0, 68, 65
1, 120436, Note_on_c, 0, 51, 65
1, 120436, Note_on_c, 0, 54, 65
1, 120440, Note_on_c, 0, 60, 65
1, 120472, Note_off_c, 0, 67, 64
1, 120528, Control_c, 0, 64, 127
1, 120564, Note_on_c, 0, 71, 52
1, 120604, Note_off_c, 0, 68, 64
1, 120700, Note_on_c, 0, 69, 51
1, 120716, Note_off_c, 0, 71, 64
1, 120784, Note_on_c, 0, 71, 62
1, 120824, Note_off_c, 0, 69, 64
1, 120868, Note_on_c, 0, 69, 62
1, 120896, Note_off_c, 0, 71, 64
1, 121008, Note_on_c, 0, 66, 43
1, 121012, Note_on_c, 0, 57, 63
1, 121020, Note_off_c, 0, 54, 64
1, 121032, Control_c, 0, 64, 0
1, 121072, Note_off_c, 0, 69, 64
1, 121084, Control_c, 0, 64, 127
1, 121228, Note_on_c, 0, 67, 63
1, 121232, Note_off_c, 0, 66, 64
1, 121300, Note_on_c, 0, 68, 70
1, 121340, Note_off_c, 0, 67, 64
1, 121464, Note_off_c, 0, 57, 64
1, 121468, Note_off_c, 0, 51, 64
1, 121472, Note_off_c, 0, 60, 64
1, 121484, Note_on_c, 0, 71, 51
1, 121508, Note_on_c, 0, 52, 49
1, 121532, Note_off_c, 0, 68, 64
1, 121596, Note_on_c, 0, 64, 69
1, 121596, Control_c, 0, 64, 0
1, 121608, Note_on_c, 0, 69, 57
1, 121616, Note_off_c, 0, 52, 64
1, 121648, Note_off_c, 0, 71, 64
1, 121656, Control_c, 0, 64, 127
1, 121728, Note_on_c, 0, 59, 59
1, 121800, Note_off_c, 0, 64, 64
1, 121808, Note_on_c, 0, 67, 51
1, 121832, Note_off_c, 0, 69, 64
1, 121864, Note_off_c, 0, 67, 64
1, 121888, Control_c, 0, 64, 0
1, 121896, Note_on_c, 0, 67, 63
1, 121900, Note_on_c, 0, 60, 82
1, 121916, Note_off_c, 0, 59, 64
1, 121968, Control_c, 0, 64, 127
1, 122064, Note_on_c, 0, 65, 55
1, 122088, Note_off_c, 0, 67, 64
1, 122124, Note_off_c, 0, 65, 64
1, 122176, Note_on_c, 0, 57, 56
1, 122184, Note_on_c, 0, 65, 57
1, 122208, Control_c, 0, 64, 0
1, 122236, Note_off_c, 0, 60, 64
1, 122248, Control_c, 0, 64, 127
1, 122356, Note_on_c, 0, 63, 49
1, 122376, Note_off_c, 0, 65, 64
1, 122420, Note_off_c, 0, 63, 64
1, 122488, Note_off_c, 0, 57, 64
1, 122488, Note_on_c, 0, 59, 62
1, 122492, Note_on_c, 0, 63, 56
1, 122516, Control_c, 0, 64, 0
1, 122568, Control_c, 0, 64, 127
1, 122704, Note_on_c, 0, 56, 51
1, 122780, Note_on_c, 0, 64, 54
1, 122792, Note_off_c, 0, 63, 64
1, 122800, Note_off_c, 0, 59, 64
1, 122864, Note_on_c, 0, 52, 65
1, 122868, Note_off_c, 0, 64, 64
1, 122888, Note_on_c, 0, 64, 57
1, 122896, Note_off_c, 0, 56, 64
1, 122904, Control_c, 0, 64, 0
1, 122936, Control_c, 0, 64, 127
1, 123228, Note_on_c, 0, 40, 48
1, 123240, Note_on_c, 0, 47, 44
1, 123252, Note_on_c, 0, 62, 47
1, 123256, Note_on_c, 0, 56, 47
1, 123288, Control_c, 0, 64, 0
1, 123372, Control_c, 0, 64, 127
1, 123420, Note_off_c, 0, 40, 64
1, 123432, Note_off_c, 0, 47, 64
1, 123444, Note_off_c, 0, 62, 64
1, 123448, Note_off_c, 0, 56, 64
1, 123536, Note_on_c, 0, 40, 48
1, 123548, Note_on_c, 0, 47, 44
1, 123560, Note_on_c, 0, 62, 47
1, 123560, Note_on_c, 0, 56, 47
1, 123564, Note_on_c, 0, 66, 67
1, 123620, Control_c, 0, 64, 0
1, 123632, Note_off_c, 0, 64, 64
1, 123728, Note_off_c, 0, 40, 64
1, 123740, Note_off_c, 0, 47, 64
1, 123752, Note_off_c, 0, 62, 64
1, 123752, Note_off_c, 0, 56, 64
1, 123760, Note_on_c, 0, 68, 58
1, 123776, Note_off_c, 0, 52, 64
1, 123796, Note_off_c, 0, 66, 64
1, 123864, Note_on_c, 0, 69, 74
1, 123904, Note_off_c, 0, 68, 64
1, 124128, Note_on_c, 0, 71, 69
1, 124136, Note_on_c, 0, 56, 49
1, 124144, Note_on_c, 0, 62, 41
1, 124156, Note_on_c, 0, 52, 36
1, 124156, Control_c, 0, 64, 0
1, 124168, Note_off_c, 0, 69, 64
1, 124216, Control_c, 0, 64, 127
1, 124328, Note_off_c, 0, 56, 64
1, 124336, Note_off_c, 0, 62, 64
1, 124348, Note_off_c, 0, 52, 64
1, 124440, Note_on_c, 0, 72, 66
1, 124444, Note_on_c, 0, 45, 51
1, 124456, Control_c, 0, 64, 0
1, 124460, Note_off_c, 0, 71, 64
1, 124524, Control_c, 0, 64, 127
1, 124584, Note_on_c, 0, 77, 71
1, 124632, Note_off_c, 0, 72, 64
1, 124724, Note_on_c, 0, 76, 71
1, 124736, Note_on_c, 0, 60, 43
1, 124744, Note_on_c, 0, 52, 51
1, 124752, Control_c, 0, 64, 0
1, 124764, Note_off_c, 0, 77, 64
1, 124800, Control_c, 0, 64, 127
1, 124852, Note_on_c, 0, 72, 74
1, 124928, Note_off_c, 0, 76, 64
1, 124944, Note_off_c, 0, 60, 64
1, 124952, Note_off_c, 0, 52, 64
1, 124988, Note_on_c, 0, 76, 64
1, 124996, Control_c, 0, 64, 0
1, 125008, Note_on_c, 0, 44, 65
1, 125016, Note_off_c, 0, 45, 64
1, 125044, Note_off_c, 0, 72, 64
1, 125056, Control_c, 0, 64, 127
1, 125132, Note_on_c, 0, 78, 85
1, 125212, Note_off_c, 0, 76, 64
1, 125292, Note_on_c, 0, 79, 81
1, 125296, Note_on_c, 0, 43, 56
1, 125296, Control_c, 0, 64, 0
1, 125336, Note_off_c, 0, 78, 64
1, 125356, Note_off_c, 0, 44, 64
1, 125356, Control_c, 0, 64, 127
1, 125416, Note_on_c, 0, 74, 64
1, 125492, Note_off_c, 0, 79, 64
1, 125564, Note_on_c, 0, 76, 63
1, 125576, Note_on_c, 0, 64, 44
1, 125580, Note_on_c, 0, 60, 27
1, 125584, Note_on_c, 0, 55, 37
1, 125592, Control_c, 0, 64, 0
1, 125612, Note_off_c, 0, 74, 64
1, 125660, Control_c, 0, 64, 127
1, 125696, Note_on_c, 0, 71, 65
1, 125708, Note_off_c, 0, 76, 64
1, 125768, Note_off_c, 0, 64, 64
1, 125772, Note_off_c, 0, 60, 64
1, 125776, Note_off_c, 0, 55, 64
1, 125792, Note_off_c, 0, 43, 64
1, 125852, Note_on_c, 0, 60, 35
1, 125864, Note_on_c, 0, 64, 21
1, 125872, Note_on_c, 0, 72, 58
1, 125880, Note_on_c, 0, 69, 26
1, 125896, Note_off_c, 0, 71, 64
1, 125912, Control_c, 0, 64, 0
1, 125968, Note_off_c, 0, 69, 64
1, 125976, Control_c, 0, 64, 127
1, 126020, Note_on_c, 0, 69, 65
1, 126044, Note_off_c, 0, 72, 64
1, 126152, Note_off_c, 0, 64, 64
1, 126168, Note_off_c, 0, 60, 64
1, 126192, Note_on_c, 0, 74, 67
1, 126228, Note_off_c, 0, 69, 64
1, 126316, Note_on_c, 0, 71, 65
1, 126336, Note_off_c, 0, 74, 64
1, 126480, Note_on_c, 0, 67, 71
1, 126496, Note_on_c, 0, 62, 41
1, 126508, Note_on_c, 0, 65, 32
1, 126516, Note_on_c, 0, 55, 32
1, 126528, Control_c, 0, 64, 0
1, 126588, Control_c, 0, 64, 127
1, 126688, Note_off_c, 0, 62, 64
1, 126700, Note_off_c, 0, 65, 64
1, 126708, Note_off_c, 0, 55, 64
1, 126928, Note_on_c, 0, 65, 20
1, 126928, Note_on_c, 0, 55, 26
1, 126940, Note_on_c, 0, 62, 25
1, 126960, Control_c, 0, 64, 0
1, 127016, Control_c, 0, 64, 127
1, 127244, Note_off_c, 0, 62, 64
1, 127260, Note_on_c, 0, 69, 55
1, 127280, Note_off_c, 0, 65, 64
1, 127284, Note_off_c, 0, 71, 64
1, 127304, Note_off_c, 0, 67, 64
1, 127304, Note_off_c, 0, 55, 64
1, 127392, Note_on_c, 0, 71, 54
1, 127440, Note_off_c, 0, 69, 64
1, 127520, Note_on_c, 0, 72, 55
1, 127520, Note_on_c, 0, 55, 28
1, 127524, Note_on_c, 0, 65, 34
1, 127528, Note_on_c, 0, 57, 49
1, 127536, Note_off_c, 0, 71, 64
1, 127548, Control_c, 0, 64, 0
1, 127588, Control_c, 0, 64, 127
1, 127712, Note_off_c, 0, 55, 64
1, 127716, Note_off_c, 0, 65, 64
1, 127720, Note_off_c, 0, 57, 64
1, 127824, Note_on_c, 0, 74, 62
1, 127840, Note_on_c, 0, 65, 36
1, 127848, Note_on_c, 0, 59, 55
1, 127848, Control_c, 0, 64, 127
1, 127848, Control_c, 0, 64, 0
1, 127856, Note_on_c, 0, 55, 28
1, 127864, Note_off_c, 0, 72, 64
1, 127896, Control_c, 0, 64, 127
1, 128032, Note_off_c, 0, 65, 64
1, 128040, Note_off_c, 0, 59, 64
1, 128048, Note_off_c, 0, 55, 64
1, 128148, Note_on_c, 0, 48, 50
1, 128160, Note_on_c, 0, 76, 56
1, 128172, Note_off_c, 0, 74, 64
1, 128200, Control_c, 0, 64, 0
1, 128240, Control_c, 0, 64, 127
1, 128340, Note_on_c, 0, 78, 63
1, 128376, Note_off_c, 0, 76, 64
1, 128488, Note_on_c, 0, 76, 60
1, 128520, Note_off_c, 0, 78, 64
1, 128560, Note_on_c, 0, 78, 62
1, 128584, Note_on_c, 0, 54, 26
1, 128584, Note_on_c, 0, 64, 21
1, 128592, Note_off_c, 0, 76, 64
1, 128592, Note_on_c, 0, 58, 28
1, 128604, Note_off_c, 0, 48, 64
1, 128648, Note_off_c, 0, 78, 64
1, 128660, Note_on_c, 0, 80, 62
1, 128724, Note_on_c, 0, 78, 70
1, 128732, Note_off_c, 0, 80, 64
1, 128780, Note_off_c, 0, 78, 64
1, 128796, Note_on_c, 0, 80, 63
1, 128840, Note_off_c, 0, 80, 64
1, 128840, Note_on_c, 0, 78, 65
1, 128888, Note_off_c, 0, 78, 64
1, 128900, Note_on_c, 0, 80, 69
1, 128912, Note_on_c, 0, 48, 55
1, 128948, Note_off_c, 0, 54, 64
1, 128948, Note_off_c, 0, 64, 64
1, 128952, Note_off_c, 0, 80, 64
1, 128952, Note_on_c, 0, 78, 65
1, 128956, Note_off_c, 0, 58, 64
1, 128992, Note_on_c, 0, 80, 66
1, 129000, Note_off_c, 0, 78, 64
1, 129056, Note_off_c, 0, 80, 64
1, 129056, Note_on_c, 0, 78, 69
1, 129132, Note_on_c, 0, 76, 62
1, 129152, Note_off_c, 0, 78, 64
1, 129248, Note_on_c, 0, 78, 62
1, 129296, Note_off_c, 0, 76, 64
1, 129372, Note_on_c, 0, 80, 57
1, 129384, Note_off_c, 0, 78, 64
1, 129392, Control_c, 0, 64, 0
1, 129400, Note_on_c, 0, 47, 51
1, 129436, Control_c, 0, 64, 127
1, 129448, Note_off_c, 0, 48, 64
1, 129540, Note_on_c, 0, 71, 50
1, 129580, Note_off_c, 0, 80, 64
1, 129692, Note_on_c, 0, 59, 35
1, 129696, Note_on_c, 0, 80, 57
1, 129700, Note_on_c, 0, 56, 52
1, 129708, Note_on_c, 0, 64, 41
1, 129716, Control_c, 0, 64, 0
1, 129748, Note_off_c, 0, 71, 64
1, 129772, Control_c, 0, 64, 127
1, 129852, Note_off_c, 0, 47, 64
1, 129884, Note_off_c, 0, 59, 64
1, 129892, Note_off_c, 0, 56, 64
1, 129900, Note_off_c, 0, 64, 64
1, 130000, Note_on_c, 0, 78, 66
1, 130012, Note_on_c, 0, 59, 35
1, 130012, Note_on_c, 0, 63, 40
1, 130024, Note_off_c, 0, 80, 64
1, 130028, Note_on_c, 0, 57, 37
1, 130036, Control_c, 0, 64, 0
1, 130096, Control_c, 0, 64, 127
1, 130156, Note_on_c, 0, 80, 62
1, 130192, Note_off_c, 0, 78, 64
1, 130204, Note_off_c, 0, 59, 64
1, 130204, Note_off_c, 0, 63, 64
1, 130220, Note_off_c, 0, 57, 64
1, 130300, Note_on_c, 0, 76, 62
1, 130304, Note_on_c, 0, 52, 52
1, 130336, Control_c, 0, 64, 0
1, 130352, Note_off_c, 0, 80, 64
1, 130388, Control_c, 0, 64, 127
1, 130528, Note_off_c, 0, 76, 64
1, 130544, Note_on_c, 0, 71, 44
1, 130612, Note_on_c, 0, 64, 27
1, 130612, Note_on_c, 0, 59, 35
1, 130616, Note_on_c, 0, 68, 39
1, 130620, Note_on_c, 0, 56, 35
1, 130632, Note_on_c, 0, 76, 63
1, 130656, Control_c, 0, 64, 0
1, 130688, Note_off_c, 0, 71, 64
1, 130712, Control_c, 0, 64, 127
1, 130760, Note_off_c, 0, 52, 64
1, 130804, Note_off_c, 0, 64, 64
1, 130804, Note_off_c, 0, 59, 64
1, 130808, Note_off_c, 0, 68, 64
1, 130812, Note_off_c, 0, 56, 64
1, 130932, Note_on_c, 0, 67, 46
1, 130944, Note_on_c, 0, 61, 41
1, 130952, Note_on_c, 0, 57, 43
1, 130972, Control_c, 0, 64, 0
1, 131008, Control_c, 0, 64, 127
1, 131124, Note_off_c, 0, 67, 64
1, 131136, Note_off_c, 0, 61, 64
1, 131144, Note_off_c, 0, 57, 64
1, 131272, Control_c, 0, 64, 0
1, 131280, Note_on_c, 0, 77, 56
1, 131284, Note_on_c, 0, 50, 47
1, 131304, Note_off_c, 0, 76, 64
1, 131336, Control_c, 0, 64, 127
1, 131452, Note_on_c, 0, 69, 44
1, 131588, Note_off_c, 0, 77, 64
1, 131608, Note_on_c, 0, 74, 55
1, 131624, Note_on_c, 0, 57, 32
1, 131632, Note_on_c, 0, 65, 28
1, 131640, Note_on_c, 0, 59, 41
1, 131648, Control_c, 0, 64, 0
1, 131716, Control_c, 0, 64, 127
1, 131740, Note_off_c, 0, 69, 64
1, 131760, Note_off_c, 0, 50, 64
1, 131816, Note_off_c, 0, 57, 64
1, 131824, Note_off_c, 0, 65, 64
1, 131832, Note_off_c, 0, 59, 64
1, 132008, Note_on_c, 0, 56, 26
1, 132012, Note_on_c, 0, 71, 55
1, 132016, Note_off_c, 0, 74, 64
1, 132036, Note_on_c, 0, 62, 25
1, 132036, Note_on_c, 0, 52, 29
1, 132056, Control_c, 0, 64, 0
1, 132096, Control_c, 0, 64, 127
1, 132200, Note_off_c, 0, 56, 64
1, 132228, Note_off_c, 0, 52, 64
1, 132228, Note_off_c, 0, 62, 64
1, 132324, Note_on_c, 0, 72, 50
1, 132328, Note_off_c, 0, 71, 64
1, 132420, Note_on_c, 0, 69, 62
1, 132428, Note_off_c, 0, 72, 64
1, 132480, Note_on_c, 0, 71, 55
1, 132504, Note_off_c, 0, 69, 64
1, 132552, Note_on_c, 0, 51, 51
1, 132552, Note_on_c, 0, 69, 55
1, 132564, Control_c, 0, 64, 0
1, 132576, Note_off_c, 0, 71, 64
1, 132616, Control_c, 0, 64, 127
1, 132856, Note_on_c, 0, 68, 52
1, 132864, Note_off_c, 0, 69, 64
1, 132932, Note_on_c, 0, 60, 42
1, 132956, Note_on_c, 0, 66, 37
1, 132968, Note_off_c, 0, 68, 64
1, 132976, Note_on_c, 0, 69, 44
1, 132980, Control_c, 0, 64, 0
1, 133004, Control_c, 0, 64, 127
1, 133124, Note_off_c, 0, 60, 64
1, 133148, Note_off_c, 0, 66, 64
1, 133292, Note_on_c, 0, 66, 35
1, 133304, Note_on_c, 0, 60, 37
1, 133396, Note_off_c, 0, 51, 64
1, 133484, Note_off_c, 0, 66, 64
1, 133496, Note_off_c, 0, 60, 64
1, 133648, Note_on_c, 0, 39, 50
1, 133668, Control_c, 0, 64, 0
1, 133740, Control_c, 0, 64, 127
1, 133968, Note_on_c, 0, 66, 46
1, 133988, Note_on_c, 0, 60, 28
1, 134160, Note_off_c, 0, 66, 64
1, 134180, Note_off_c, 0, 60, 64
1, 134248, Note_off_c, 0, 39, 64
1, 134300, Note_on_c, 0, 66, 36
1, 134320, Note_on_c, 0, 60, 28
1, 134492, Note_off_c, 0, 66, 64
1, 134512, Note_off_c, 0, 60, 64
1, 134616, Note_on_c, 0, 51, 42
1, 134636, Control_c, 0, 64, 0
1, 134704, Control_c, 0, 64, 127
1, 134928, Note_on_c, 0, 66, 35
1, 134952, Note_on_c, 0, 60, 24
1, 135120, Note_off_c, 0, 66, 64
1, 135144, Note_off_c, 0, 60, 64
1, 135212, Note_off_c, 0, 51, 64
1, 135252, Note_on_c, 0, 66, 34
1, 135264, Note_on_c, 0, 60, 33
1, 135444, Note_off_c, 0, 66, 64
1, 135456, Note_off_c, 0, 60, 64
1, 135588, Control_c, 0, 64, 0
1, 135632, Note_on_c, 0, 39, 51
1, 135668, Control_c, 0, 64, 127
1, 135820, Note_off_c, 0, 69, 64
1, 136012, Note_on_c, 0, 57, 48
1, 136084, Control_c, 0, 64, 0
1, 136104, Control_c, 0, 64, 127
1, 136160, Note_on_c, 0, 60, 55
1, 136232, Note_off_c, 0, 57, 64
1, 136240, Note_off_c, 0, 39, 64
1, 136316, Note_on_c, 0, 72, 62
1, 136364, Note_off_c, 0, 60, 64
1, 136560, Note_on_c, 0, 71, 56
1, 136596, Note_off_c, 0, 72, 64
1, 136648, Tempo, 500000
1, 136648, Note_off_c, 0, 71, 64
1, 136700, Note_on_c, 0, 51, 48
1, 136704, Note_on_c, 0, 71, 57
1, 136708, Control_c, 0, 64, 0
1, 136720, Note_on_c, 0, 78, 62
1, 136740, Control_c, 0, 64, 127
1, 136884, Note_on_c, 0, 69, 56
1, 136924, Note_off_c, 0, 71, 64
1, 137016, Note_on_c, 0, 57, 39
1, 137024, Note_off_c, 0, 69, 64
1, 137064, Note_on_c, 0, 69, 52
1, 137080, Note_on_c, 0, 60, 25
1, 137104, Note_on_c, 0, 66, 39
1, 137140, Note_on_c, 0, 84, 82
1, 137160, Note_off_c, 0, 78, 64
1, 137196, Control_c, 0, 64, 0
1, 137216, Control_c, 0, 64, 127
1, 137256, Note_off_c, 0, 51, 64
1, 137356, Note_off_c, 0, 57, 64
1, 137424, Note_off_c, 0, 60, 64
1, 137448, Note_off_c, 0, 66, 64
1, 137540, Note_on_c, 0, 57, 37
1, 137544, Note_on_c, 0, 60, 48
1, 137552, Note_on_c, 0, 66, 46
1, 137732, Note_off_c, 0, 57, 64
1, 137736, Note_off_c, 0, 60, 64
1, 137744, Note_off_c, 0, 66, 64
1, 137912, Control_c, 0, 64, 0
1, 137928, Note_on_c, 0, 39, 40
1, 137940, Note_off_c, 0, 84, 64
1, 137960, Control_c, 0, 64, 127
1, 138012, Note_off_c, 0, 69, 64
1, 138272, Note_on_c, 0, 65, 46
1, 138280, Note_on_c, 0, 60, 36
1, 138296, Note_on_c, 0, 57, 23
1, 138464, Note_off_c, 0, 65, 64
1, 138472, Note_off_c, 0, 60, 64
1, 138488, Note_off_c, 0, 57, 64
1, 138512, Note_off_c, 0, 39, 64
1, 138604, Note_on_c, 0, 60, 27
1, 138608, Note_on_c, 0, 65, 33
1, 138616, Note_on_c, 0, 57, 25
1, 138796, Note_off_c, 0, 60, 64
1, 138800, Note_off_c, 0, 65, 64
1, 138808, Note_off_c, 0, 57, 64
1, 138916, Note_on_c, 0, 51, 49
1, 139268, Note_on_c, 0, 60, 27
1, 139284, Note_on_c, 0, 65, 17
1, 139296, Note_on_c, 0, 57, 17
1, 139460, Note_off_c, 0, 60, 64
1, 139476, Note_off_c, 0, 65, 64
1, 139488, Note_off_c, 0, 57, 64
1, 139604, Note_on_c, 0, 60, 16
1, 139616, Note_on_c, 0, 57, 24
1, 139632, Note_on_c, 0, 65, 16
1, 139672, Note_off_c, 0, 51, 64
1, 139796, Note_off_c, 0, 60, 64
1, 139808, Note_off_c, 0, 57, 64
1, 139824, Note_off_c, 0, 65, 64
1, 139968, Note_on_c, 0, 39, 51
1, 140008, Control_c, 0, 64, 0
1, 140152, Note_on_c, 0, 57, 55
1, 140324, Note_on_c, 0, 60, 54
1, 140384, Note_off_c, 0, 57, 64
1, 140512, Note_on_c, 0, 65, 57
1, 140548, Note_off_c, 0, 39, 64
1, 140572, Note_off_c, 0, 60, 64
1, 140696, Note_on_c, 0, 72, 65
1, 140792, Note_off_c, 0, 65, 64
1, 141040, Note_on_c, 0, 71, 50
1, 141080, Note_off_c, 0, 72, 64
1, 141136, Note_off_c, 0, 71, 64
1, 141208, Note_on_c, 0, 77, 62
1, 141216, Note_on_c, 0, 71, 51
1, 141224, Note_on_c, 0, 51, 48
1, 141232, Control_c, 0, 64, 0
1, 141288, Control_c, 0, 64, 127
1, 141384, Note_off_c, 0, 71, 64
1, 141504, Note_on_c, 0, 69, 62
1, 141588, Note_off_c, 0, 69, 64
1, 141628, Note_on_c, 0, 69, 48
1, 141656, Note_on_c, 0, 57, 19
1, 141672, Note_on_c, 0, 60, 21
1, 141696, Note_on_c, 0, 65, 25
1, 141704, Note_on_c, 0, 84, 76
1, 141732, Control_c, 0, 64, 0
1, 141768, Note_off_c, 0, 51, 64
1, 141780, Note_off_c, 0, 77, 64
1, 141788, Control_c, 0, 64, 127
1, 141848, Note_off_c, 0, 57, 64
1, 141864, Note_off_c, 0, 60, 64
1, 141888, Note_off_c, 0, 65, 64
1, 142116, Note_on_c, 0, 65, 42
1, 142124, Note_on_c, 0, 60, 35
1, 142132, Note_on_c, 0, 57, 32
1, 142308, Note_off_c, 0, 65, 64
1, 142316, Note_off_c, 0, 60, 64
1, 142324, Note_off_c, 0, 57, 64
1, 142364, Note_on_c, 0, 52, 35
1, 142408, Note_off_c, 0, 84, 64
1, 142448, Note_on_c, 0, 64, 71
1, 142476, Control_c, 0, 64, 0
1, 142512, Note_off_c, 0, 69, 64
1, 142536, Control_c, 0, 64, 127
1, 142728, Note_on_c, 0, 59, 47
1, 142744, Note_on_c, 0, 67, 56
1, 142800, Note_off_c, 0, 67, 64
1, 142840, Note_on_c, 0, 67, 65
1, 142840, Note_on_c, 0, 60, 63
1, 142848, Note_off_c, 0, 52, 64
1, 142848, Tempo, 500000
1, 142864, Control_c, 0, 64, 0
1, 142868, Note_off_c, 0, 59, 64
1, 142912, Control_c, 0, 64, 127
1, 142928, Note_off_c, 0, 64, 64
1, 143060, Note_on_c, 0, 65, 56
1, 143072, Note_off_c, 0, 67, 64
1, 143116, Note_off_c, 0, 65, 64
1, 143168, Note_on_c, 0, 65, 62
1, 143168, Note_on_c, 0, 57, 63
1, 143184, Note_off_c, 0, 60, 64
1, 143200, Control_c, 0, 64, 0
1, 143260, Control_c, 0, 64, 127
1, 143392, Note_on_c, 0, 63, 60
1, 143432, Note_off_c, 0, 65, 64
1, 143456, Note_off_c, 0, 63, 64
1, 143504, Note_on_c, 0, 59, 69
1, 143516, Note_on_c, 0, 63, 55
1, 143532, Control_c, 0, 64, 0
1, 143540, Note_off_c, 0, 57, 64
1, 143596, Control_c, 0, 64, 127
1, 143656, Note_on_c, 0, 56, 69
1, 143680, Note_off_c, 0, 63, 64
1, 143700, Note_off_c, 0, 59, 64
1, 143760, Note_on_c, 0, 64, 51
1, 143824, Note_off_c, 0, 64, 64
1, 143848, Note_on_c, 0, 52, 67
1, 143856, Note_on_c, 0, 64, 58
1, 143880, Control_c, 0, 64, 0
1, 143896, Note_off_c, 0, 56, 64
1, 143936, Control_c, 0, 64, 127
1, 144232, Note_on_c, 0, 56, 42
1, 144240, Note_on_c, 0, 62, 35
1, 144244, Control_c, 0, 64, 0
1, 144256, Note_on_c, 0, 47, 32
1, 144268, Note_on_c, 0, 40, 32
1, 144308, Control_c, 0, 64, 127
1, 144712, Note_off_c, 0, 56, 64
1, 144720, Note_off_c, 0, 62, 64
1, 144736, Note_off_c, 0, 47, 64
1, 144748, Note_off_c, 0, 40, 64
1, 144896, Note_on_c, 0, 56, 43
1, 144904, Note_on_c, 0, 62, 44
1, 144908, Note_on_c, 0, 40, 41
1, 144912, Note_on_c, 0, 47, 40
1, 144920, Control_c, 0, 64, 0
1, 144960, Control_c, 0, 64, 127
1, 145088, Note_off_c, 0, 56, 64
1, 145096, Note_off_c, 0, 62, 64
1, 145100, Note_off_c, 0, 40, 64
1, 145104, Note_off_c, 0, 47, 64
1, 145220, Note_on_c, 0, 56, 47
1, 145232, Note_on_c, 0, 47, 37
1, 145236, Note_on_c, 0, 40, 40
1, 145248, Note_on_c, 0, 62, 34
1, 145412, Note_off_c, 0, 56, 64
1, 145424, Note_off_c, 0, 47, 64
1, 145428, Note_off_c, 0, 40, 64
1, 145440, Note_off_c, 0, 62, 64
1, 145528, Note_on_c, 0, 63, 34
1, 145532, Note_on_c, 0, 59, 52
1, 145552, Note_off_c, 0, 52, 64
1, 145556, Note_off_c, 0, 64, 64
1, 145584, Control_c, 0, 64, 0
1, 145628, Control_c, 0, 64, 127
1, 145776, Note_on_c, 0, 56, 52
1, 145820, Note_off_c, 0, 59, 64
1, 145852, Note_on_c, 0, 64, 50
1, 145888, Note_off_c, 0, 63, 64
1, 145936, Note_off_c, 0, 64, 64
1, 145968, Note_on_c, 0, 64, 56
1, 145976, Note_off_c, 0, 56, 64
1, 145976, Note_on_c, 0, 52, 59
1, 145988, Control_c, 0, 64, 0
1, 146048, Control_c, 0, 64, 127
1, 146376, Note_on_c, 0, 56, 40
1, 146384, Control_c, 0, 64, 0
1, 146392, Note_on_c, 0, 40, 32
1, 146392, Note_on_c, 0, 62, 42
1, 146392, Note_on_c, 0, 47, 40
1, 146444, Control_c, 0, 64, 127
1, 146568, Note_off_c, 0, 56, 64
1, 146584, Note_off_c, 0, 40, 64
1, 146584, Note_off_c, 0, 62, 64
1, 146584, Note_off_c, 0, 47, 64
1, 146780, Note_on_c, 0, 63, 43
1, 146784, Note_on_c, 0, 59, 32
1, 146836, Control_c, 0, 64, 0
1, 146844, Note_off_c, 0, 64, 64
1, 146848, Note_off_c, 0, 52, 64
1, 146872, Control_c, 0, 64, 127
1, 147004, Note_on_c, 0, 56, 36
1, 147120, Note_off_c, 0, 59, 64
1, 147120, Note_on_c, 0, 64, 44
1, 147136, Note_off_c, 0, 63, 64
1, 147212, Note_off_c, 0, 64, 64
1, 147228, Note_off_c, 0, 56, 64
1, 147248, Note_on_c, 0, 64, 51
1, 147264, Note_on_c, 0, 52, 33
1, 147280, Control_c, 0, 64, 0
1, 147304, Control_c, 0, 64, 127
1, 147760, Note_on_c, 0, 56, 19
1, 147768, Note_on_c, 0, 47, 24
1, 147768, Note_on_c, 0, 40, 26
1, 147784, Note_on_c, 0, 62, 18
1, 147796, Control_c, 0, 64, 0
1, 147836, Control_c, 0, 64, 127
1, 147924, Note_off_c, 0, 40, 64
1, 147928, Note_off_c, 0, 56, 64
1, 147928, Note_off_c, 0, 62, 64
1, 147932, Note_off_c, 0, 47, 64
1, 148152, Note_on_c, 0, 40, 26
1, 148156, Note_on_c, 0, 47, 26
1, 148164, Note_on_c, 0, 56, 34
1, 148172, Note_on_c, 0, 62, 34
1, 148328, Note_off_c, 0, 40, 64
1, 148332, Note_off_c, 0, 56, 64
1, 148332, Note_off_c, 0, 62, 64
1, 148352, Note_off_c, 0, 47, 64
1, 148576, Note_on_c, 0, 47, 36
1, 148576, Note_on_c, 0, 62, 40
1, 148580, Note_on_c, 0, 56, 46
1, 148592, Note_on_c, 0, 40, 32
1, 148636, Control_c, 0, 64, 0
1, 148656, Control_c, 0, 64, 127
1, 148816, Note_off_c, 0, 56, 64
1, 148824, Note_off_c, 0, 40, 64
1, 148828, Note_off_c, 0, 62, 64
1, 148864, Note_off_c, 0, 47, 64
1, 149176, Note_on_c, 0, 62, 36
1, 149180, Note_on_c, 0, 56, 52
1, 149192, Note_on_c, 0, 47, 43
1, 149192, Note_on_c, 0, 40, 40
1, 149244, Control_c, 0, 64, 0
1, 149312, Control_c, 0, 64, 127
1, 149848, Note_off_c, 0, 62, 64
1, 149848, Note_off_c, 0, 56, 64
1, 149860, Note_off_c, 0, 47, 64
1, 149864, Note_off_c, 0, 40, 64
1, 149920, Note_on_c, 0, 65, 60
1, 149932, Note_off_c, 0, 64, 64
1, 149932, Note_on_c, 0, 62, 43
1, 149932, Note_on_c, 0, 56, 42
1, 149940, Note_on_c, 0, 28, 48
1, 149944, Control_c, 0, 64, 0
1, 149952, Note_off_c, 0, 52, 64
1, 150000, Control_c, 0, 64, 127
1, 150228, Note_on_c, 0, 66, 62
1, 150272, Note_off_c, 0, 65, 64
1, 150288, Note_off_c, 0, 62, 64
1, 150288, Note_off_c, 0, 56, 64
1, 150432, Note_on_c, 0, 67, 60
1, 150448, Note_off_c, 0, 66, 64
1, 150620, Note_on_c, 0, 68, 66
1, 150656, Note_off_c, 0, 67, 64
1, 150932, Note_on_c, 0, 77, 65
1, 150936, Note_on_c, 0, 62, 41
1, 150936, Note_on_c, 0, 52, 41
1, 150964, Note_off_c, 0, 68, 64
1, 150968, Control_c, 0, 64, 0
1, 151004, Control_c, 0, 64, 127
1, 151216, Note_off_c, 0, 52, 64
1, 151248, Note_off_c, 0, 62, 64
1, 151288, Note_off_c, 0, 28, 64
1, 151336, Note_on_c, 0, 68, 59
1, 151404, Note_off_c, 0, 77, 64
1, 151672, Note_on_c, 0, 71, 56
1, 151680, Note_on_c, 0, 45, 47
1, 151712, Note_off_c, 0, 68, 64
1, 151728, Control_c, 0, 64, 0
1, 151792, Control_c, 0, 64, 127
1, 152288, Note_on_c, 0, 69, 50
1, 152304, Note_off_c, 0, 71, 64
1, 152336, Note_off_c, 0, 69, 64
1, 152396, Note_on_c, 0, 69, 62
1, 152552, Note_on_c, 0, 52, 40
1, 152576, Note_on_c, 0, 60, 26
1, 152668, Note_on_c, 0, 81, 62
1, 152748, Note_off_c, 0, 69, 64
1, 152752, Control_c, 0, 64, 0
1, 152808, Control_c, 0, 64, 127
1, 153192, Note_off_c, 0, 45, 64
1, 153204, Note_off_c, 0, 52, 64
1, 153216, Note_off_c, 0, 81, 64
1, 153232, Note_off_c, 0, 60, 64
1, 154472, Control_c, 0, 64, 0
1, 154472, End_track
2, 0, Start_track
2, 1, Copyright_t, "__________________________________________________________\012\012KUNSTDERFUGE.COM GREAT CLASSICAL MIDI COLLECTION\012__________________________________________________________\012\012KUNST-DER-FUGE CONTRIBUTOR's PROPERTY\012Copyright by Contributor & Kunst der Fuge, © 2006\012\012Contributors' list: http://kunstderfuge.com/thanks.htm\012Terms and conditions: http://kunstderfuge.com/notes.htm\012__________________________________________________________\012\012NO WEBSITE MAY PUBLISH THIS FILE WITHOUT PERMISSION\012NO COMMERCIAL USE ALLOWED, NOR BY SALES NOR by eBay!\012PLEASE REPORT ANY ABUSE TO INFO@ONCLASSICAL.COM\012__________________________________________________________\012\012Thousands of free classical MIDI files at kunstderfuge.com"
2, 1, End_track
0, 0, End_of_file
