0, 0, Header, 0, 2, 384
1, 0, Start_track
1, 0, Title_t, "Chopin's Mazurkas (played by © Ron Lubetsky)"
1, 0, Control_c, 0, 0, 0
1, 0, Program_c, 0, 0
1, 0, Time_signature, 4, 2, 96, 8
1, 0, Sequencer_specific, 3, 0, 0, 65
1, 0, Tempo, 500000
1, 264, Control_c, 0, 64, 127
1, 312, Control_c, 0, 64, 0
1, 364, Note_on_c, 0, 65, 74
1, 424, Control_c, 0, 64, 127
1, 784, Note_on_c, 0, 74, 78
1, 788, Note_on_c, 0, 77, 83
1, 792, Note_on_c, 0, 34, 46
1, 796, Note_off_c, 0, 65, 64
1, 796, Note_on_c, 0, 46, 72
1, 800, Note_on_c, 0, 58, 46
1, 824, Control_c, 0, 64, 0
1, 840, Control_c, 0, 64, 127
1, 888, Control_c, 0, 64, 0
1, 908, Control_c, 0, 64, 127
1, 960, Note_off_c, 0, 58, 64
1, 1176, Note_off_c, 0, 34, 64
1, 1180, Note_off_c, 0, 46, 64
1, 1212, Note_on_c, 0, 58, 61
1, 1216, Note_on_c, 0, 53, 53
1, 1224, Note_on_c, 0, 62, 53
1, 1328, Note_off_c, 0, 53, 64
1, 1344, Note_off_c, 0, 58, 64
1, 1364, Note_off_c, 0, 62, 64
1, 1432, Note_off_c, 0, 74, 64
1, 1436, Note_on_c, 0, 76, 75
1, 1440, Note_on_c, 0, 73, 79
1, 1488, Note_off_c, 0, 77, 64
1, 1592, Note_on_c, 0, 74, 58
1, 1600, Note_on_c, 0, 77, 74
1, 1616, Note_off_c, 0, 76, 64
1, 1620, Note_off_c, 0, 73, 64
1, 1668, Note_on_c, 0, 79, 76
1, 1676, Note_off_c, 0, 74, 64
1, 1692, Note_off_c, 0, 77, 64
1, 1708, Note_on_c, 0, 74, 80
1, 1708, Note_on_c, 0, 58, 36
1, 1712, Note_on_c, 0, 62, 42
1, 1712, Note_on_c, 0, 77, 80
1, 1720, Note_on_c, 0, 53, 45
1, 1748, Note_off_c, 0, 79, 64
1, 1784, Note_off_c, 0, 58, 64
1, 1792, Note_off_c, 0, 62, 64
1, 1800, Note_off_c, 0, 53, 64
1, 1896, Note_on_c, 0, 76, 83
1, 1904, Note_on_c, 0, 73, 88
1, 1916, Note_off_c, 0, 74, 64
1, 1920, Note_off_c, 0, 77, 64
1, 2096, Note_on_c, 0, 77, 81
1, 2096, Note_on_c, 0, 74, 88
1, 2108, Note_off_c, 0, 76, 64
1, 2108, Note_off_c, 0, 73, 64
1, 2112, Note_on_c, 0, 58, 62
1, 2120, Note_on_c, 0, 46, 68
1, 2128, Control_c, 0, 64, 0
1, 2180, Control_c, 0, 64, 127
1, 2268, Note_off_c, 0, 46, 64
1, 2296, Note_off_c, 0, 58, 64
1, 2392, Note_on_c, 0, 70, 84
1, 2444, Note_off_c, 0, 70, 64
1, 2476, Note_on_c, 0, 75, 83
1, 2480, Note_on_c, 0, 67, 88
1, 2488, Note_on_c, 0, 70, 96
1, 2500, Note_on_c, 0, 58, 67
1, 2504, Note_on_c, 0, 51, 74
1, 2512, Note_off_c, 0, 74, 64
1, 2524, Control_c, 0, 64, 0
1, 2528, Note_off_c, 0, 77, 64
1, 2576, Control_c, 0, 64, 127
1, 2672, Note_off_c, 0, 51, 64
1, 2720, Note_off_c, 0, 58, 64
1, 2876, Note_on_c, 0, 65, 78
1, 2880, Note_on_c, 0, 74, 85
1, 2892, Note_on_c, 0, 58, 59
1, 2896, Note_on_c, 0, 46, 72
1, 2916, Note_off_c, 0, 75, 64
1, 2920, Note_off_c, 0, 67, 64
1, 2920, Control_c, 0, 64, 0
1, 2928, Note_off_c, 0, 70, 64
1, 2968, Control_c, 0, 64, 127
1, 2996, Note_off_c, 0, 58, 64
1, 3016, Note_off_c, 0, 46, 64
1, 3300, Note_on_c, 0, 72, 80
1, 3300, Note_on_c, 0, 41, 65
1, 3304, Note_on_c, 0, 63, 88
1, 3304, Note_on_c, 0, 29, 66
1, 3336, Note_off_c, 0, 65, 64
1, 3336, Note_off_c, 0, 74, 64
1, 3336, Control_c, 0, 64, 0
1, 3404, Control_c, 0, 64, 127
1, 3684, Note_off_c, 0, 41, 64
1, 3688, Note_off_c, 0, 29, 64
1, 3704, Note_on_c, 0, 53, 63
1, 3712, Note_on_c, 0, 57, 57
1, 3736, Control_c, 0, 64, 0
1, 3784, Control_c, 0, 64, 127
1, 3868, Note_on_c, 0, 75, 74
1, 3880, Note_on_c, 0, 67, 72
1, 3912, Note_off_c, 0, 63, 64
1, 3920, Note_off_c, 0, 72, 64
1, 4052, Note_on_c, 0, 74, 75
1, 4052, Note_on_c, 0, 65, 70
1, 4072, Note_off_c, 0, 67, 64
1, 4092, Note_off_c, 0, 75, 64
1, 4144, Note_off_c, 0, 57, 64
1, 4152, Note_off_c, 0, 53, 64
1, 4224, Note_on_c, 0, 72, 63
1, 4224, Note_on_c, 0, 63, 84
1, 4256, Note_off_c, 0, 74, 64
1, 4256, Note_off_c, 0, 65, 64
1, 4408, Note_on_c, 0, 65, 81
1, 4408, Note_on_c, 0, 74, 71
1, 4412, Note_on_c, 0, 34, 68
1, 4424, Note_on_c, 0, 46, 59
1, 4436, Control_c, 0, 64, 0
1, 4448, Note_off_c, 0, 63, 64
1, 4456, Note_off_c, 0, 72, 64
1, 4504, Control_c, 0, 64, 127
1, 4664, Note_off_c, 0, 65, 64
1, 4724, Note_on_c, 0, 65, 79
1, 4760, Note_off_c, 0, 46, 64
1, 4780, Note_on_c, 0, 46, 62
1, 4788, Note_on_c, 0, 62, 83
1, 4792, Note_on_c, 0, 70, 84
1, 4792, Note_on_c, 0, 58, 68
1, 4796, Note_off_c, 0, 34, 64
1, 4796, Note_off_c, 0, 65, 64
1, 4800, Note_on_c, 0, 53, 58
1, 4804, Control_c, 0, 64, 0
1, 4852, Note_off_c, 0, 74, 64
1, 4860, Control_c, 0, 64, 127
1, 4920, Note_off_c, 0, 46, 64
1, 4948, Note_off_c, 0, 58, 64
1, 4952, Note_off_c, 0, 53, 64
1, 5160, Note_on_c, 0, 74, 71
1, 5160, Note_on_c, 0, 65, 68
1, 5168, Note_off_c, 0, 70, 64
1, 5168, Note_on_c, 0, 46, 61
1, 5176, Note_on_c, 0, 58, 66
1, 5180, Note_on_c, 0, 53, 59
1, 5192, Note_off_c, 0, 62, 64
1, 5244, Note_off_c, 0, 53, 64
1, 5260, Note_off_c, 0, 58, 64
1, 5264, Note_off_c, 0, 46, 64
1, 5524, Note_off_c, 0, 74, 64
1, 5524, Note_off_c, 0, 65, 64
1, 5536, Note_on_c, 0, 77, 85
1, 5548, Note_on_c, 0, 74, 80
1, 5548, Note_on_c, 0, 34, 76
1, 5552, Note_on_c, 0, 46, 72
1, 5564, Control_c, 0, 64, 0
1, 5616, Control_c, 0, 64, 127
1, 5828, Note_off_c, 0, 77, 64
1, 5836, Note_off_c, 0, 74, 64
1, 5836, Note_on_c, 0, 77, 83
1, 5840, Note_on_c, 0, 74, 71
1, 5876, Note_off_c, 0, 74, 64
1, 5880, Note_off_c, 0, 77, 64
1, 5912, Note_on_c, 0, 77, 88
1, 5920, Note_on_c, 0, 74, 79
1, 5920, Note_on_c, 0, 62, 58
1, 5920, Note_on_c, 0, 58, 67
1, 5928, Note_on_c, 0, 53, 48
1, 5932, Note_off_c, 0, 34, 64
1, 5936, Note_off_c, 0, 46, 64
1, 6008, Note_off_c, 0, 58, 64
1, 6020, Note_off_c, 0, 53, 64
1, 6024, Note_off_c, 0, 62, 64
1, 6112, Note_off_c, 0, 77, 64
1, 6168, Note_off_c, 0, 74, 64
1, 6180, Note_on_c, 0, 77, 84
1, 6184, Note_on_c, 0, 74, 76
1, 6228, Note_on_c, 0, 79, 74
1, 6256, Note_off_c, 0, 77, 64
1, 6256, Note_off_c, 0, 74, 64
1, 6280, Note_on_c, 0, 74, 80
1, 6284, Note_on_c, 0, 77, 83
1, 6288, Note_on_c, 0, 62, 70
1, 6288, Note_on_c, 0, 58, 74
1, 6288, Note_on_c, 0, 53, 70
1, 6324, Note_off_c, 0, 79, 64
1, 6356, Note_off_c, 0, 62, 64
1, 6360, Note_off_c, 0, 58, 64
1, 6376, Note_off_c, 0, 53, 64
1, 6464, Note_on_c, 0, 73, 89
1, 6468, Note_off_c, 0, 74, 64
1, 6468, Note_on_c, 0, 76, 83
1, 6472, Note_off_c, 0, 77, 64
1, 6648, Note_on_c, 0, 77, 88
1, 6656, Note_on_c, 0, 74, 96
1, 6656, Note_on_c, 0, 46, 74
1, 6660, Note_off_c, 0, 73, 64
1, 6664, Note_off_c, 0, 76, 64
1, 6664, Note_on_c, 0, 58, 72
1, 6704, Control_c, 0, 64, 0
1, 6724, Control_c, 0, 64, 127
1, 6896, Note_off_c, 0, 46, 64
1, 6916, Note_off_c, 0, 58, 64
1, 6920, Note_on_c, 0, 70, 101
1, 6948, Note_off_c, 0, 77, 64
1, 6968, Note_off_c, 0, 74, 64
1, 6972, Note_off_c, 0, 70, 64
1, 7000, Note_on_c, 0, 70, 98
1, 7012, Note_on_c, 0, 67, 94
1, 7020, Note_on_c, 0, 75, 92
1, 7024, Note_on_c, 0, 58, 66
1, 7032, Note_on_c, 0, 51, 63
1, 7048, Control_c, 0, 64, 0
1, 7136, Control_c, 0, 64, 127
1, 7208, Note_off_c, 0, 51, 64
1, 7232, Note_off_c, 0, 58, 64
1, 7416, Note_off_c, 0, 70, 64
1, 7416, Note_on_c, 0, 58, 74
1, 7416, Note_on_c, 0, 46, 79
1, 7420, Note_on_c, 0, 74, 88
1, 7428, Note_on_c, 0, 70, 79
1, 7432, Note_on_c, 0, 65, 83
1, 7440, Note_off_c, 0, 67, 64
1, 7444, Control_c, 0, 64, 0
1, 7448, Note_off_c, 0, 75, 64
1, 7488, Note_off_c, 0, 58, 64
1, 7508, Control_c, 0, 64, 127
1, 7524, Note_off_c, 0, 46, 64
1, 7760, Note_off_c, 0, 70, 64
1, 7800, Note_on_c, 0, 70, 80
1, 7800, Note_on_c, 0, 63, 74
1, 7812, Note_on_c, 0, 72, 83
1, 7824, Note_on_c, 0, 41, 71
1, 7824, Note_on_c, 0, 29, 75
1, 7832, Note_off_c, 0, 74, 64
1, 7852, Control_c, 0, 64, 0
1, 7856, Note_off_c, 0, 65, 64
1, 7920, Control_c, 0, 64, 127
1, 8080, Note_off_c, 0, 70, 64
1, 8200, Note_on_c, 0, 60, 62
1, 8208, Note_off_c, 0, 41, 64
1, 8208, Note_off_c, 0, 29, 64
1, 8208, Note_on_c, 0, 53, 53
1, 8216, Note_on_c, 0, 69, 74
1, 8224, Note_off_c, 0, 63, 64
1, 8236, Control_c, 0, 64, 0
1, 8272, Control_c, 0, 64, 127
1, 8328, Note_off_c, 0, 72, 64
1, 8392, Note_on_c, 0, 75, 74
1, 8392, Note_on_c, 0, 67, 76
1, 8408, Note_off_c, 0, 69, 64
1, 8580, Note_on_c, 0, 65, 81
1, 8588, Note_on_c, 0, 74, 71
1, 8592, Note_off_c, 0, 75, 64
1, 8616, Note_off_c, 0, 67, 64
1, 8624, Note_off_c, 0, 60, 64
1, 8660, Note_off_c, 0, 53, 64
1, 8736, Note_on_c, 0, 72, 68
1, 8744, Note_off_c, 0, 65, 64
1, 8744, Note_on_c, 0, 63, 83
1, 8780, Note_off_c, 0, 74, 64
1, 8920, Note_on_c, 0, 46, 62
1, 8924, Note_on_c, 0, 65, 81
1, 8928, Note_off_c, 0, 72, 64
1, 8928, Note_on_c, 0, 74, 70
1, 8928, Note_on_c, 0, 34, 71
1, 8932, Control_c, 0, 64, 0
1, 8944, Note_off_c, 0, 63, 64
1, 9012, Control_c, 0, 64, 127
1, 9128, Note_off_c, 0, 65, 64
1, 9208, Note_off_c, 0, 74, 64
1, 9224, Note_on_c, 0, 65, 74
1, 9284, Note_off_c, 0, 65, 64
1, 9292, Note_on_c, 0, 65, 68
1, 9292, Note_on_c, 0, 62, 80
1, 9304, Note_off_c, 0, 46, 64
1, 9304, Note_on_c, 0, 70, 79
1, 9304, Control_c, 0, 64, 0
1, 9312, Note_off_c, 0, 34, 64
1, 9316, Note_on_c, 0, 58, 72
1, 9316, Note_on_c, 0, 53, 65
1, 9316, Note_on_c, 0, 46, 52
1, 9352, Control_c, 0, 64, 127
1, 9376, Note_off_c, 0, 46, 64
1, 9388, Note_off_c, 0, 58, 64
1, 9400, Note_off_c, 0, 53, 64
1, 9640, Note_off_c, 0, 65, 64
1, 9652, Note_off_c, 0, 62, 64
1, 9652, Note_on_c, 0, 74, 72
1, 9652, Note_on_c, 0, 58, 61
1, 9656, Note_on_c, 0, 62, 55
1, 9660, Note_on_c, 0, 65, 70
1, 9660, Note_on_c, 0, 46, 66
1, 9664, Note_off_c, 0, 70, 64
1, 9712, Note_off_c, 0, 58, 64
1, 9736, Note_off_c, 0, 46, 64
1, 9980, Control_c, 0, 64, 0
1, 10020, Note_off_c, 0, 74, 64
1, 10024, Note_off_c, 0, 62, 64
1, 10024, Note_on_c, 0, 60, 111
1, 10028, Note_off_c, 0, 65, 64
1, 10032, Note_on_c, 0, 48, 104
1, 10032, Note_on_c, 0, 36, 115
1, 10104, Control_c, 0, 64, 127
1, 10408, Note_off_c, 0, 60, 64
1, 10488, Note_on_c, 0, 76, 71
1, 10488, Note_on_c, 0, 82, 115
1, 10488, Note_on_c, 0, 70, 81
1, 10492, Note_on_c, 0, 67, 59
1, 10492, Note_on_c, 0, 60, 58
1, 10552, Control_c, 0, 64, 0
1, 10620, Control_c, 0, 64, 127
1, 10872, Note_off_c, 0, 67, 64
1, 10888, Note_off_c, 0, 60, 64
1, 11024, Note_off_c, 0, 70, 64
1, 11040, Note_off_c, 0, 76, 64
1, 11064, Note_on_c, 0, 81, 96
1, 11064, Note_on_c, 0, 70, 80
1, 11064, Note_on_c, 0, 67, 65
1, 11072, Note_on_c, 0, 76, 66
1, 11072, Note_on_c, 0, 60, 62
1, 11088, Note_off_c, 0, 82, 64
1, 11160, Note_off_c, 0, 67, 64
1, 11168, Note_off_c, 0, 70, 64
1, 11172, Note_off_c, 0, 60, 64
1, 11176, Note_off_c, 0, 76, 64
1, 11244, Note_on_c, 0, 76, 71
1, 11244, Note_on_c, 0, 67, 66
1, 11248, Note_on_c, 0, 78, 89
1, 11248, Note_on_c, 0, 70, 101
1, 11252, Note_on_c, 0, 60, 63
1, 11256, Note_off_c, 0, 81, 64
1, 11272, Control_c, 0, 64, 0
1, 11296, Control_c, 0, 64, 127
1, 11372, Note_off_c, 0, 67, 64
1, 11412, Note_off_c, 0, 60, 64
1, 11472, Note_off_c, 0, 76, 64
1, 11472, Note_off_c, 0, 70, 64
1, 11508, Note_on_c, 0, 67, 101
1, 11512, Note_on_c, 0, 70, 92
1, 11512, Note_on_c, 0, 60, 66
1, 11524, Note_on_c, 0, 76, 76
1, 11528, Note_off_c, 0, 78, 64
1, 11528, Note_on_c, 0, 79, 81
1, 11544, Note_off_c, 0, 60, 64
1, 11560, Note_off_c, 0, 70, 64
1, 11560, Note_off_c, 0, 76, 64
1, 11568, Note_off_c, 0, 67, 64
1, 11576, Note_on_c, 0, 60, 62
1, 11592, Note_on_c, 0, 76, 75
1, 11592, Note_on_c, 0, 70, 102
1, 11592, Note_on_c, 0, 67, 61
1, 11592, Note_on_c, 0, 81, 111
1, 11604, Note_off_c, 0, 79, 64
1, 11840, Control_c, 0, 64, 0
1, 11896, Note_off_c, 0, 67, 64
1, 11900, Control_c, 0, 64, 127
1, 11904, Note_off_c, 0, 76, 64
1, 11928, Note_off_c, 0, 70, 64
1, 11936, Note_off_c, 0, 60, 64
1, 11960, Note_on_c, 0, 70, 102
1, 11964, Note_on_c, 0, 79, 111
1, 11968, Note_off_c, 0, 81, 64
1, 11968, Note_on_c, 0, 76, 70
1, 11968, Note_on_c, 0, 67, 74
1, 11968, Note_on_c, 0, 60, 66
1, 11976, Note_off_c, 0, 36, 64
1, 11976, Note_off_c, 0, 48, 64
1, 12156, Note_off_c, 0, 67, 64
1, 12164, Note_off_c, 0, 60, 64
1, 12176, Note_off_c, 0, 79, 64
1, 12176, Note_off_c, 0, 76, 64
1, 12188, Note_off_c, 0, 70, 64
1, 12328, Note_on_c, 0, 60, 88
1, 12336, Note_on_c, 0, 36, 88
1, 12340, Note_on_c, 0, 48, 88
1, 12352, Control_c, 0, 64, 0
1, 12408, Control_c, 0, 64, 127
1, 12712, Note_off_c, 0, 60, 64
1, 12736, Note_on_c, 0, 76, 92
1, 12736, Note_on_c, 0, 70, 89
1, 12748, Note_on_c, 0, 81, 107
1, 12752, Note_on_c, 0, 67, 84
1, 12752, Note_on_c, 0, 60, 80
1, 12824, Control_c, 0, 64, 0
1, 12884, Control_c, 0, 64, 127
1, 13244, Note_off_c, 0, 76, 64
1, 13244, Note_off_c, 0, 70, 64
1, 13256, Note_off_c, 0, 67, 64
1, 13256, Note_off_c, 0, 60, 64
1, 13288, Note_on_c, 0, 70, 80
1, 13292, Note_on_c, 0, 76, 101
1, 13296, Note_on_c, 0, 79, 96
1, 13296, Note_on_c, 0, 60, 76
1, 13304, Note_on_c, 0, 67, 76
1, 13332, Note_off_c, 0, 81, 64
1, 13368, Note_off_c, 0, 36, 64
1, 13372, Note_off_c, 0, 48, 64
1, 13396, Note_off_c, 0, 67, 64
1, 13408, Note_off_c, 0, 76, 64
1, 13416, Note_off_c, 0, 70, 64
1, 13428, Note_off_c, 0, 60, 64
1, 13460, Note_on_c, 0, 69, 92
1, 13460, Note_on_c, 0, 65, 84
1, 13464, Note_on_c, 0, 60, 72
1, 13472, Note_on_c, 0, 77, 115
1, 13476, Note_on_c, 0, 53, 81
1, 13488, Note_off_c, 0, 79, 64
1, 13504, Control_c, 0, 64, 0
1, 13524, Control_c, 0, 64, 127
1, 13580, Note_off_c, 0, 60, 64
1, 13616, Note_off_c, 0, 77, 64
1, 13640, Note_off_c, 0, 53, 64
1, 13652, Note_off_c, 0, 65, 64
1, 13656, Note_off_c, 0, 69, 64
1, 13760, Note_on_c, 0, 70, 94
1, 13760, Note_on_c, 0, 65, 93
1, 13760, Note_on_c, 0, 62, 83
1, 13768, Note_on_c, 0, 74, 89
1, 13808, Note_off_c, 0, 65, 64
1, 13816, Control_c, 0, 64, 0
1, 13832, Note_on_c, 0, 60, 74
1, 13832, Note_on_c, 0, 69, 94
1, 13836, Note_on_c, 0, 65, 72
1, 13844, Note_on_c, 0, 72, 94
1, 13844, Note_on_c, 0, 53, 68
1, 13864, Note_off_c, 0, 70, 64
1, 13880, Note_off_c, 0, 62, 64
1, 13880, Note_off_c, 0, 74, 64
1, 13888, Control_c, 0, 64, 127
1, 14156, Note_off_c, 0, 53, 64
1, 14160, Note_off_c, 0, 69, 64
1, 14188, Note_off_c, 0, 60, 64
1, 14192, Note_off_c, 0, 72, 64
1, 14224, Note_off_c, 0, 65, 64
1, 14224, Note_on_c, 0, 77, 94
1, 14228, Note_on_c, 0, 69, 94
1, 14228, Control_c, 0, 64, 0
1, 14240, Note_on_c, 0, 60, 72
1, 14240, Note_on_c, 0, 65, 87
1, 14240, Note_on_c, 0, 53, 80
1, 14280, Control_c, 0, 64, 127
1, 14408, Control_c, 0, 64, 0
1, 14464, Control_c, 0, 64, 127
1, 14512, Note_off_c, 0, 65, 64
1, 14552, Note_off_c, 0, 69, 64
1, 14556, Note_off_c, 0, 60, 64
1, 14564, Note_off_c, 0, 77, 64
1, 14596, Note_off_c, 0, 53, 64
1, 14608, Note_on_c, 0, 60, 96
1, 14616, Note_on_c, 0, 36, 101
1, 14624, Note_on_c, 0, 48, 101
1, 14644, Control_c, 0, 64, 0
1, 14664, Control_c, 0, 64, 127
1, 14992, Note_off_c, 0, 60, 64
1, 15008, Note_on_c, 0, 82, 126
1, 15016, Note_on_c, 0, 76, 93
1, 15016, Note_on_c, 0, 70, 93
1, 15016, Note_on_c, 0, 67, 85
1, 15016, Note_on_c, 0, 60, 74
1, 15048, Control_c, 0, 64, 0
1, 15132, Control_c, 0, 64, 127
1, 15356, Note_off_c, 0, 70, 64
1, 15392, Note_off_c, 0, 67, 64
1, 15396, Note_off_c, 0, 60, 64
1, 15464, Note_off_c, 0, 76, 64
1, 15532, Note_on_c, 0, 70, 75
1, 15540, Note_on_c, 0, 81, 87
1, 15540, Note_on_c, 0, 76, 75
1, 15548, Note_on_c, 0, 60, 50
1, 15556, Note_on_c, 0, 67, 61
1, 15564, Note_off_c, 0, 82, 64
1, 15600, Note_off_c, 0, 70, 64
1, 15616, Note_off_c, 0, 76, 64
1, 15624, Note_off_c, 0, 60, 64
1, 15624, Note_off_c, 0, 67, 64
1, 15640, Note_off_c, 0, 81, 64
1, 15692, Control_c, 0, 64, 0
1, 15700, Note_on_c, 0, 67, 54
1, 15700, Note_on_c, 0, 60, 55
1, 15712, Note_on_c, 0, 78, 96
1, 15712, Note_on_c, 0, 70, 92
1, 15720, Note_on_c, 0, 76, 101
1, 15760, Control_c, 0, 64, 127
1, 15836, Control_c, 0, 64, 0
1, 15892, Control_c, 0, 64, 127
1, 15920, Note_off_c, 0, 76, 64
1, 15952, Note_on_c, 0, 70, 94
1, 15956, Note_off_c, 0, 60, 64
1, 15960, Note_off_c, 0, 67, 64
1, 15960, Note_on_c, 0, 79, 92
1, 15968, Note_off_c, 0, 78, 64
1, 15968, Note_off_c, 0, 70, 64
1, 15968, Note_on_c, 0, 76, 85
1, 15968, Note_on_c, 0, 67, 80
1, 15972, Note_on_c, 0, 60, 74
1, 16000, Note_off_c, 0, 70, 64
1, 16020, Note_off_c, 0, 76, 64
1, 16032, Note_off_c, 0, 67, 64
1, 16040, Note_off_c, 0, 79, 64
1, 16040, Note_off_c, 0, 60, 64
1, 16040, Note_on_c, 0, 81, 115
1, 16048, Note_on_c, 0, 76, 93
1, 16048, Note_on_c, 0, 70, 105
1, 16048, Control_c, 0, 64, 0
1, 16064, Note_on_c, 0, 67, 72
1, 16064, Note_on_c, 0, 60, 67
1, 16084, Control_c, 0, 64, 127
1, 16272, Note_off_c, 0, 76, 64
1, 16308, Note_off_c, 0, 60, 64
1, 16320, Note_off_c, 0, 70, 64
1, 16348, Note_off_c, 0, 67, 64
1, 16392, Note_on_c, 0, 70, 97
1, 16400, Note_on_c, 0, 79, 111
1, 16404, Note_on_c, 0, 67, 65
1, 16408, Note_on_c, 0, 60, 66
1, 16420, Control_c, 0, 64, 0
1, 16428, Note_off_c, 0, 81, 64
1, 16440, Control_c, 0, 64, 127
1, 16560, Note_off_c, 0, 36, 64
1, 16568, Note_off_c, 0, 48, 64
1, 16648, Note_off_c, 0, 60, 64
1, 16672, Note_off_c, 0, 67, 64
1, 16724, Note_off_c, 0, 70, 64
1, 16732, Note_off_c, 0, 79, 64
1, 16744, Note_on_c, 0, 84, 83
1, 16752, Note_on_c, 0, 69, 70
1, 16752, Note_on_c, 0, 75, 81
1, 16752, Note_on_c, 0, 65, 80
1, 16776, Control_c, 0, 64, 0
1, 16828, Control_c, 0, 64, 127
1, 16944, Note_off_c, 0, 84, 64
1, 16956, Note_off_c, 0, 65, 64
1, 16956, Note_off_c, 0, 75, 64
1, 16968, Note_off_c, 0, 69, 64
1, 16984, Note_on_c, 0, 68, 72
1, 16992, Note_on_c, 0, 58, 66
1, 17000, Note_on_c, 0, 77, 79
1, 17000, Note_on_c, 0, 74, 78
1, 17080, Note_off_c, 0, 58, 64
1, 17080, Note_on_c, 0, 63, 78
1, 17088, Note_off_c, 0, 68, 64
1, 17092, Note_on_c, 0, 67, 81
1, 17096, Note_on_c, 0, 82, 88
1, 17104, Note_off_c, 0, 77, 64
1, 17104, Note_on_c, 0, 73, 84
1, 17104, Control_c, 0, 64, 0
1, 17120, Note_off_c, 0, 74, 64
1, 17164, Control_c, 0, 64, 127
1, 17320, Note_off_c, 0, 67, 64
1, 17376, Note_off_c, 0, 63, 64
1, 17432, Note_off_c, 0, 73, 64
1, 17444, Note_on_c, 0, 75, 76
1, 17452, Note_on_c, 0, 72, 75
1, 17456, Note_on_c, 0, 56, 72
1, 17464, Note_on_c, 0, 66, 70
1, 17480, Control_c, 0, 64, 0
1, 17520, Note_off_c, 0, 82, 64
1, 17544, Control_c, 0, 64, 127
1, 17688, Note_off_c, 0, 56, 64
1, 17756, Note_off_c, 0, 66, 64
1, 17784, Note_off_c, 0, 72, 64
1, 17796, Control_c, 0, 64, 0
1, 17808, Note_on_c, 0, 62, 67
1, 17812, Note_on_c, 0, 80, 74
1, 17812, Note_on_c, 0, 72, 71
1, 17820, Note_on_c, 0, 65, 67
1, 17828, Note_off_c, 0, 75, 64
1, 17852, Control_c, 0, 64, 127
1, 17960, Note_off_c, 0, 62, 64
1, 17964, Note_off_c, 0, 65, 64
1, 17976, Note_off_c, 0, 72, 64
1, 18044, Note_off_c, 0, 80, 64
1, 18048, Note_on_c, 0, 55, 59
1, 18060, Note_on_c, 0, 65, 63
1, 18068, Note_on_c, 0, 71, 53
1, 18072, Note_on_c, 0, 74, 63
1, 18116, Note_off_c, 0, 71, 64
1, 18120, Note_off_c, 0, 55, 64
1, 18144, Note_off_c, 0, 74, 64
1, 18152, Note_on_c, 0, 70, 79
1, 18168, Note_on_c, 0, 79, 62
1, 18168, Control_c, 0, 64, 0
1, 18180, Note_on_c, 0, 60, 58
1, 18184, Note_off_c, 0, 65, 64
1, 18184, Note_on_c, 0, 64, 57
1, 18244, Control_c, 0, 64, 127
1, 18528, Note_on_c, 0, 72, 71
1, 18532, Note_on_c, 0, 69, 66
1, 18536, Note_on_c, 0, 63, 55
1, 18540, Note_off_c, 0, 60, 64
1, 18544, Note_on_c, 0, 53, 57
1, 18552, Note_off_c, 0, 64, 64
1, 18560, Control_c, 0, 64, 0
1, 18588, Note_off_c, 0, 70, 64
1, 18620, Control_c, 0, 64, 127
1, 18644, Note_off_c, 0, 79, 64
1, 18924, Note_off_c, 0, 63, 64
1, 18932, Note_off_c, 0, 72, 64
1, 18944, Note_off_c, 0, 69, 64
1, 18960, Note_off_c, 0, 53, 64
1, 18968, Note_on_c, 0, 77, 78
1, 18968, Note_on_c, 0, 74, 75
1, 18968, Note_on_c, 0, 68, 66
1, 18976, Note_on_c, 0, 46, 75
1, 18980, Note_on_c, 0, 34, 70
1, 19004, Control_c, 0, 64, 0
1, 19108, Control_c, 0, 64, 127
1, 19208, Note_off_c, 0, 68, 64
1, 19328, Note_on_c, 0, 68, 85
1, 19328, Note_on_c, 0, 65, 71
1, 19336, Note_on_c, 0, 58, 67
1, 19360, Note_off_c, 0, 46, 64
1, 19364, Note_off_c, 0, 34, 64
1, 19376, Note_off_c, 0, 65, 64
1, 19388, Note_off_c, 0, 58, 64
1, 19472, Note_off_c, 0, 68, 64
1, 19524, Note_on_c, 0, 79, 78
1, 19576, Note_off_c, 0, 77, 64
1, 19640, Note_off_c, 0, 74, 64
1, 19680, Note_on_c, 0, 77, 72
1, 19696, Note_off_c, 0, 79, 64
1, 19724, Note_on_c, 0, 79, 83
1, 19736, Note_off_c, 0, 77, 64
1, 19756, Note_on_c, 0, 58, 49
1, 19760, Note_on_c, 0, 65, 48
1, 19772, Note_on_c, 0, 77, 89
1, 19780, Note_on_c, 0, 74, 88
1, 19780, Note_on_c, 0, 68, 83
1, 19780, Control_c, 0, 64, 0
1, 19808, Note_off_c, 0, 79, 64
1, 19824, Control_c, 0, 64, 127
1, 19860, Note_off_c, 0, 58, 64
1, 19872, Note_off_c, 0, 65, 64
1, 20000, Note_on_c, 0, 73, 74
1, 20004, Note_on_c, 0, 76, 79
1, 20008, Note_off_c, 0, 68, 64
1, 20032, Note_off_c, 0, 77, 64
1, 20044, Note_off_c, 0, 74, 64
1, 20176, Note_on_c, 0, 77, 74
1, 20176, Note_on_c, 0, 74, 75
1, 20180, Note_off_c, 0, 73, 64
1, 20188, Note_on_c, 0, 58, 49
1, 20188, Note_on_c, 0, 46, 70
1, 20192, Note_off_c, 0, 76, 64
1, 20200, Note_on_c, 0, 68, 67
1, 20224, Control_c, 0, 64, 0
1, 20284, Control_c, 0, 64, 127
1, 20356, Note_off_c, 0, 46, 64
1, 20376, Note_off_c, 0, 58, 64
1, 20396, Note_off_c, 0, 68, 64
1, 20440, Note_on_c, 0, 70, 88
1, 20488, Note_off_c, 0, 70, 64
1, 20524, Note_on_c, 0, 75, 81
1, 20536, Note_off_c, 0, 74, 64
1, 20540, Note_on_c, 0, 70, 94
1, 20540, Note_on_c, 0, 58, 68
1, 20540, Note_on_c, 0, 51, 67
1, 20548, Note_on_c, 0, 66, 89
1, 20552, Note_off_c, 0, 77, 64
1, 20580, Control_c, 0, 64, 0
1, 20648, Control_c, 0, 64, 127
1, 20696, Note_off_c, 0, 51, 64
1, 20736, Note_off_c, 0, 58, 64
1, 20816, Note_off_c, 0, 70, 64
1, 20864, Note_off_c, 0, 66, 64
1, 20912, Note_on_c, 0, 74, 83
1, 20912, Note_on_c, 0, 70, 80
1, 20912, Note_on_c, 0, 65, 74
1, 20920, Note_on_c, 0, 58, 66
1, 20920, Note_on_c, 0, 53, 74
1, 20932, Note_off_c, 0, 75, 64
1, 20952, Control_c, 0, 64, 0
1, 21024, Control_c, 0, 64, 127
1, 21116, Note_off_c, 0, 58, 64
1, 21120, Note_off_c, 0, 65, 64
1, 21148, Note_off_c, 0, 70, 64
1, 21160, Note_off_c, 0, 53, 64
1, 21276, Note_on_c, 0, 58, 70
1, 21280, Note_on_c, 0, 63, 89
1, 21288, Note_on_c, 0, 72, 74
1, 21296, Note_off_c, 0, 74, 64
1, 21296, Note_on_c, 0, 70, 80
1, 21300, Note_on_c, 0, 54, 55
1, 21328, Control_c, 0, 64, 0
1, 21396, Control_c, 0, 64, 127
1, 21404, Note_off_c, 0, 63, 64
1, 21652, Note_on_c, 0, 66, 84
1, 21656, Note_on_c, 0, 51, 70
1, 21668, Control_c, 0, 64, 0
1, 21688, Note_off_c, 0, 54, 64
1, 21740, Control_c, 0, 64, 127
1, 21780, Note_off_c, 0, 70, 64
1, 21808, Note_on_c, 0, 75, 79
1, 21824, Note_off_c, 0, 72, 64
1, 21904, Note_off_c, 0, 66, 64
1, 21988, Note_off_c, 0, 51, 64
1, 21996, Note_on_c, 0, 53, 72
1, 22000, Note_on_c, 0, 65, 71
1, 22008, Note_on_c, 0, 74, 80
1, 22008, Note_on_c, 0, 69, 70
1, 22028, Note_off_c, 0, 75, 64
1, 22028, Control_c, 0, 64, 0
1, 22088, Note_off_c, 0, 58, 64
1, 22088, Control_c, 0, 64, 127
1, 22140, Note_off_c, 0, 65, 64
1, 22160, Note_on_c, 0, 72, 68
1, 22176, Note_on_c, 0, 63, 88
1, 22192, Note_off_c, 0, 69, 64
1, 22224, Note_off_c, 0, 74, 64
1, 22244, Note_off_c, 0, 53, 64
1, 22308, Note_off_c, 0, 63, 64
1, 22352, Note_on_c, 0, 65, 83
1, 22356, Note_on_c, 0, 74, 75
1, 22364, Note_off_c, 0, 72, 64
1, 22368, Note_on_c, 0, 46, 80
1, 22368, Note_on_c, 0, 34, 70
1, 22392, Control_c, 0, 64, 0
1, 22464, Control_c, 0, 64, 127
1, 22540, Note_off_c, 0, 65, 64
1, 22620, Note_on_c, 0, 65, 88
1, 22624, Note_off_c, 0, 74, 64
1, 22676, Note_off_c, 0, 65, 64
1, 22696, Note_off_c, 0, 46, 64
1, 22712, Note_on_c, 0, 53, 83
1, 22712, Note_on_c, 0, 58, 92
1, 22720, Note_on_c, 0, 70, 89
1, 22720, Note_on_c, 0, 65, 74
1, 22720, Note_on_c, 0, 46, 70
1, 22728, Note_on_c, 0, 62, 88
1, 22732, Control_c, 0, 64, 0
1, 22752, Note_off_c, 0, 34, 64
1, 22796, Control_c, 0, 64, 127
1, 22920, Note_off_c, 0, 62, 64
1, 22952, Note_off_c, 0, 65, 64
1, 22968, Note_off_c, 0, 58, 64
1, 22976, Note_off_c, 0, 46, 64
1, 22988, Note_off_c, 0, 53, 64
1, 23052, Note_on_c, 0, 62, 46
1, 23052, Note_on_c, 0, 53, 72
1, 23056, Note_off_c, 0, 70, 64
1, 23056, Note_on_c, 0, 65, 80
1, 23056, Note_on_c, 0, 46, 83
1, 23060, Note_on_c, 0, 74, 81
1, 23064, Note_on_c, 0, 58, 88
1, 23084, Control_c, 0, 64, 127
1, 23136, Control_c, 0, 64, 0
1, 23272, Note_off_c, 0, 62, 64
1, 23356, Note_off_c, 0, 65, 64
1, 23404, Note_on_c, 0, 77, 81
1, 23408, Note_off_c, 0, 74, 64
1, 23416, Note_off_c, 0, 53, 64
1, 23428, Note_on_c, 0, 56, 72
1, 23432, Note_on_c, 0, 72, 80
1, 23432, Note_on_c, 0, 65, 71
1, 23432, Note_on_c, 0, 60, 75
1, 23444, Note_off_c, 0, 46, 64
1, 23444, Control_c, 0, 64, 0
1, 23456, Note_off_c, 0, 58, 64
1, 23560, Control_c, 0, 64, 127
1, 23600, Note_off_c, 0, 56, 64
1, 23608, Note_off_c, 0, 72, 64
1, 23652, Note_off_c, 0, 65, 64
1, 23656, Note_off_c, 0, 60, 64
1, 23772, Note_on_c, 0, 72, 57
1, 23780, Note_on_c, 0, 60, 68
1, 23788, Note_on_c, 0, 65, 66
1, 23788, Note_on_c, 0, 56, 61
1, 23848, Note_off_c, 0, 56, 64
1, 23860, Note_off_c, 0, 72, 64
1, 23876, Note_off_c, 0, 60, 64
1, 23880, Note_off_c, 0, 65, 64
1, 23952, Note_on_c, 0, 79, 71
1, 23972, Note_off_c, 0, 77, 64
1, 24056, Note_on_c, 0, 77, 75
1, 24080, Note_off_c, 0, 79, 64
1, 24104, Note_on_c, 0, 79, 74
1, 24116, Note_off_c, 0, 77, 64
1, 24140, Note_on_c, 0, 77, 89
1, 24140, Note_on_c, 0, 72, 74
1, 24144, Note_on_c, 0, 60, 44
1, 24152, Note_on_c, 0, 65, 58
1, 24156, Note_on_c, 0, 56, 57
1, 24156, Control_c, 0, 64, 0
1, 24172, Note_off_c, 0, 79, 64
1, 24216, Control_c, 0, 64, 127
1, 24264, Note_off_c, 0, 60, 64
1, 24264, Note_off_c, 0, 56, 64
1, 24292, Note_off_c, 0, 65, 64
1, 24324, Note_on_c, 0, 76, 76
1, 24328, Note_off_c, 0, 77, 64
1, 24344, Note_off_c, 0, 72, 64
1, 24492, Note_on_c, 0, 77, 84
1, 24500, Note_on_c, 0, 71, 74
1, 24504, Note_on_c, 0, 62, 72
1, 24512, Note_on_c, 0, 55, 67
1, 24520, Note_off_c, 0, 76, 64
1, 24528, Control_c, 0, 64, 0
1, 24616, Control_c, 0, 64, 127
1, 24648, Note_off_c, 0, 55, 64
1, 24688, Note_off_c, 0, 62, 64
1, 24716, Note_off_c, 0, 71, 64
1, 24736, Note_off_c, 0, 77, 64
1, 24748, Note_on_c, 0, 71, 83
1, 24760, Note_on_c, 0, 62, 70
1, 24772, Note_on_c, 0, 55, 58
1, 24804, Note_off_c, 0, 71, 64
1, 24824, Note_on_c, 0, 75, 89
1, 24832, Note_on_c, 0, 71, 83
1, 24840, Note_on_c, 0, 67, 75
1, 24860, Control_c, 0, 64, 0
1, 24864, Note_off_c, 0, 62, 64
1, 24928, Control_c, 0, 64, 127
1, 24952, Note_off_c, 0, 55, 64
1, 25192, Note_off_c, 0, 67, 64
1, 25196, Note_off_c, 0, 71, 64
1, 25200, Note_on_c, 0, 65, 70
1, 25200, Note_on_c, 0, 55, 68
1, 25204, Note_on_c, 0, 74, 80
1, 25212, Note_on_c, 0, 71, 74
1, 25220, Note_off_c, 0, 75, 64
1, 25232, Control_c, 0, 64, 0
1, 25300, Control_c, 0, 64, 127
1, 25352, Note_off_c, 0, 55, 64
1, 25436, Note_off_c, 0, 65, 64
1, 25484, Note_off_c, 0, 71, 64
1, 25572, Note_on_c, 0, 72, 78
1, 25572, Note_on_c, 0, 70, 78
1, 25576, Note_on_c, 0, 60, 66
1, 25584, Note_on_c, 0, 64, 70
1, 25588, Note_off_c, 0, 74, 64
1, 25604, Control_c, 0, 64, 0
1, 25672, Control_c, 0, 64, 127
1, 25704, Note_off_c, 0, 60, 64
1, 25704, Note_off_c, 0, 64, 64
1, 25908, Note_off_c, 0, 70, 64
1, 25920, Note_on_c, 0, 69, 72
1, 25920, Note_on_c, 0, 63, 65
1, 25932, Note_on_c, 0, 53, 72
1, 25944, Control_c, 0, 64, 0
1, 25996, Control_c, 0, 64, 127
1, 26092, Note_on_c, 0, 75, 74
1, 26092, Note_on_c, 0, 67, 72
1, 26100, Note_off_c, 0, 72, 64
1, 26112, Note_off_c, 0, 63, 64
1, 26112, Note_off_c, 0, 53, 64
1, 26268, Note_on_c, 0, 65, 65
1, 26272, Control_c, 0, 64, 0
1, 26284, Note_on_c, 0, 74, 76
1, 26296, Control_c, 0, 64, 127
1, 26304, Note_off_c, 0, 75, 64
1, 26308, Note_off_c, 0, 67, 64
1, 26420, Note_on_c, 0, 72, 74
1, 26432, Note_off_c, 0, 65, 64
1, 26432, Note_on_c, 0, 63, 75
1, 26464, Note_off_c, 0, 69, 64
1, 26476, Note_off_c, 0, 74, 64
1, 26604, Note_on_c, 0, 58, 81
1, 26608, Note_on_c, 0, 62, 63
1, 26616, Note_on_c, 0, 74, 75
1, 26616, Note_on_c, 0, 70, 96
1, 26636, Control_c, 0, 64, 0
1, 26640, Note_off_c, 0, 63, 64
1, 26672, Note_off_c, 0, 72, 64
1, 26676, Control_c, 0, 64, 127
1, 26692, Note_off_c, 0, 58, 64
1, 26700, Note_off_c, 0, 70, 64
1, 26748, Note_off_c, 0, 62, 64
1, 26856, Note_on_c, 0, 53, 83
1, 26860, Note_on_c, 0, 65, 76
1, 26860, Note_on_c, 0, 60, 70
1, 26872, Note_on_c, 0, 72, 57
1, 26880, Note_off_c, 0, 74, 64
1, 26904, Note_off_c, 0, 65, 64
1, 26912, Control_c, 0, 64, 0
1, 26920, Note_off_c, 0, 53, 64
1, 26920, Note_off_c, 0, 60, 64
1, 26924, Note_off_c, 0, 72, 64
1, 26936, Note_on_c, 0, 62, 88
1, 26936, Note_on_c, 0, 70, 96
1, 26936, Note_on_c, 0, 58, 98
1, 26936, Note_on_c, 0, 46, 53
1, 26976, Control_c, 0, 64, 127
1, 26976, Control_c, 0, 64, 127
1, 27024, Control_c, 0, 64, 0
1, 27280, Note_off_c, 0, 62, 64
1, 27284, Note_off_c, 0, 70, 64
1, 27284, Note_off_c, 0, 58, 64
1, 27284, Note_off_c, 0, 46, 64
1, 27300, Note_on_c, 0, 82, 102
1, 27300, Note_on_c, 0, 46, 89
1, 27304, Note_on_c, 0, 70, 92
1, 27304, Note_on_c, 0, 34, 101
1, 27324, Control_c, 0, 64, 0
1, 27348, Control_c, 0, 64, 127
1, 27588, Note_off_c, 0, 82, 64
1, 27588, Note_off_c, 0, 46, 64
1, 27592, Note_off_c, 0, 70, 64
1, 27592, Note_off_c, 0, 34, 64
1, 27656, Note_on_c, 0, 60, 88
1, 27664, Note_on_c, 0, 48, 84
1, 27664, Note_on_c, 0, 36, 84
1, 27680, Control_c, 0, 64, 0
1, 27752, Control_c, 0, 64, 127
1, 28040, Note_off_c, 0, 60, 64
1, 28068, Note_on_c, 0, 82, 76
1, 28068, Note_on_c, 0, 70, 70
1, 28076, Note_on_c, 0, 76, 67
1, 28076, Note_on_c, 0, 67, 54
1, 28088, Note_on_c, 0, 60, 46
1, 28132, Control_c, 0, 64, 0
1, 28200, Control_c, 0, 64, 127
1, 28452, Note_off_c, 0, 60, 64
1, 28468, Note_off_c, 0, 67, 64
1, 28540, Note_off_c, 0, 70, 64
1, 28540, Note_off_c, 0, 76, 64
1, 28592, Note_on_c, 0, 81, 63
1, 28600, Note_on_c, 0, 70, 63
1, 28600, Note_on_c, 0, 60, 42
1, 28600, Note_on_c, 0, 76, 65
1, 28608, Note_on_c, 0, 67, 50
1, 28624, Note_off_c, 0, 82, 64
1, 28716, Note_off_c, 0, 70, 64
1, 28752, Note_off_c, 0, 76, 64
1, 28752, Note_off_c, 0, 67, 64
1, 28760, Note_off_c, 0, 60, 64
1, 28768, Note_on_c, 0, 78, 59
1, 28768, Note_on_c, 0, 60, 41
1, 28780, Note_on_c, 0, 76, 58
1, 28780, Note_on_c, 0, 70, 66
1, 28784, Note_on_c, 0, 67, 52
1, 28824, Note_off_c, 0, 81, 64
1, 28844, Note_off_c, 0, 76, 64
1, 28876, Note_off_c, 0, 70, 64
1, 28884, Note_off_c, 0, 67, 64
1, 28896, Note_off_c, 0, 60, 64
1, 28992, Note_off_c, 0, 78, 64
1, 29016, Note_on_c, 0, 76, 65
1, 29024, Note_on_c, 0, 79, 59
1, 29024, Note_on_c, 0, 70, 70
1, 29024, Note_on_c, 0, 67, 58
1, 29024, Note_on_c, 0, 60, 49
1, 29056, Note_off_c, 0, 76, 64
1, 29060, Note_off_c, 0, 67, 64
1, 29064, Note_off_c, 0, 70, 64
1, 29076, Note_off_c, 0, 60, 64
1, 29104, Note_on_c, 0, 81, 67
1, 29104, Note_on_c, 0, 76, 62
1, 29104, Note_on_c, 0, 70, 72
1, 29108, Note_on_c, 0, 60, 48
1, 29112, Note_off_c, 0, 79, 64
1, 29112, Note_on_c, 0, 67, 54
1, 29120, Control_c, 0, 64, 0
1, 29160, Control_c, 0, 64, 127
1, 29216, Note_off_c, 0, 67, 64
1, 29280, Note_off_c, 0, 60, 64
1, 29284, Note_off_c, 0, 76, 64
1, 29292, Note_off_c, 0, 70, 64
1, 29456, Note_on_c, 0, 70, 70
1, 29468, Note_on_c, 0, 79, 63
1, 29468, Note_on_c, 0, 76, 65
1, 29472, Note_on_c, 0, 67, 54
1, 29472, Note_on_c, 0, 60, 46
1, 29508, Note_off_c, 0, 81, 64
1, 29608, Note_off_c, 0, 36, 64
1, 29608, Note_off_c, 0, 48, 64
1, 29792, Note_off_c, 0, 67, 64
1, 29804, Note_off_c, 0, 60, 64
1, 29820, Note_on_c, 0, 36, 67
1, 29828, Note_on_c, 0, 60, 70
1, 29832, Note_on_c, 0, 48, 74
1, 29856, Note_off_c, 0, 79, 64
1, 29856, Control_c, 0, 64, 0
1, 29880, Note_off_c, 0, 70, 64
1, 29896, Control_c, 0, 64, 127
1, 29904, Note_off_c, 0, 76, 64
1, 30212, Note_off_c, 0, 60, 64
1, 30256, Note_on_c, 0, 70, 65
1, 30256, Note_on_c, 0, 67, 63
1, 30256, Note_on_c, 0, 60, 63
1, 30264, Note_on_c, 0, 81, 66
1, 30264, Note_on_c, 0, 76, 63
1, 30344, Control_c, 0, 64, 0
1, 30376, Control_c, 0, 64, 127
1, 30576, Note_off_c, 0, 60, 64
1, 30600, Note_off_c, 0, 67, 64
1, 30696, Note_off_c, 0, 76, 64
1, 30732, Note_off_c, 0, 70, 64
1, 30776, Note_on_c, 0, 79, 65
1, 30784, Note_on_c, 0, 70, 59
1, 30792, Note_on_c, 0, 67, 57
1, 30792, Note_on_c, 0, 60, 59
1, 30804, Note_off_c, 0, 36, 64
1, 30816, Note_off_c, 0, 48, 64
1, 30820, Note_off_c, 0, 81, 64
1, 30912, Note_off_c, 0, 67, 64
1, 30928, Note_off_c, 0, 70, 64
1, 30948, Note_off_c, 0, 60, 64
1, 30952, Note_on_c, 0, 69, 66
1, 30952, Note_on_c, 0, 65, 63
1, 30956, Note_on_c, 0, 60, 66
1, 30960, Note_on_c, 0, 53, 66
1, 30960, Note_on_c, 0, 77, 65
1, 30980, Control_c, 0, 64, 0
1, 30984, Note_off_c, 0, 79, 64
1, 31000, Control_c, 0, 64, 127
1, 31076, Note_off_c, 0, 60, 64
1, 31116, Note_off_c, 0, 53, 64
1, 31136, Note_off_c, 0, 65, 64
1, 31200, Note_on_c, 0, 65, 67
1, 31208, Note_on_c, 0, 70, 62
1, 31208, Note_on_c, 0, 62, 58
1, 31212, Note_on_c, 0, 53, 62
1, 31216, Note_on_c, 0, 74, 65
1, 31236, Note_off_c, 0, 77, 64
1, 31240, Note_off_c, 0, 69, 64
1, 31244, Control_c, 0, 64, 127
1, 31256, Note_off_c, 0, 65, 64
1, 31256, Note_off_c, 0, 62, 64
1, 31256, Note_off_c, 0, 53, 64
1, 31280, Note_off_c, 0, 70, 64
1, 31280, Note_on_c, 0, 69, 58
1, 31292, Note_on_c, 0, 72, 76
1, 31292, Note_on_c, 0, 60, 62
1, 31296, Note_on_c, 0, 65, 36
1, 31296, Control_c, 0, 64, 0
1, 31304, Note_off_c, 0, 74, 64
1, 31312, Control_c, 0, 64, 0
1, 31316, Note_on_c, 0, 53, 62
1, 31352, Control_c, 0, 64, 127
1, 31504, Note_off_c, 0, 69, 64
1, 31584, Note_off_c, 0, 60, 64
1, 31608, Note_off_c, 0, 53, 64
1, 31644, Note_on_c, 0, 77, 67
1, 31644, Note_on_c, 0, 60, 55
1, 31652, Note_off_c, 0, 72, 64
1, 31656, Note_on_c, 0, 69, 67
1, 31656, Note_on_c, 0, 65, 58
1, 31660, Note_on_c, 0, 53, 62
1, 31692, Note_off_c, 0, 65, 64
1, 31792, Note_off_c, 0, 65, 64
1, 31960, Note_off_c, 0, 77, 64
1, 31980, Note_off_c, 0, 60, 64
1, 31980, Control_c, 0, 64, 0
1, 31996, Note_off_c, 0, 53, 64
1, 32004, Note_off_c, 0, 69, 64
1, 32008, Note_on_c, 0, 36, 70
1, 32008, Note_on_c, 0, 60, 66
1, 32008, Note_on_c, 0, 48, 70
1, 32060, Control_c, 0, 64, 127
1, 32392, Note_off_c, 0, 60, 64
1, 32428, Note_on_c, 0, 70, 67
1, 32432, Note_on_c, 0, 82, 66
1, 32436, Note_on_c, 0, 60, 50
1, 32444, Note_on_c, 0, 76, 65
1, 32444, Note_on_c, 0, 67, 53
1, 32508, Control_c, 0, 64, 0
1, 32564, Control_c, 0, 64, 127
1, 32820, Note_off_c, 0, 60, 64
1, 32864, Note_off_c, 0, 70, 64
1, 32928, Note_off_c, 0, 76, 64
1, 32932, Note_off_c, 0, 67, 64
1, 32960, Note_on_c, 0, 70, 59
1, 32968, Note_on_c, 0, 81, 65
1, 32972, Note_on_c, 0, 76, 58
1, 32976, Note_on_c, 0, 67, 48
1, 32976, Note_on_c, 0, 60, 41
1, 33008, Note_off_c, 0, 82, 64
1, 33092, Note_off_c, 0, 70, 64
1, 33100, Note_off_c, 0, 76, 64
1, 33128, Note_off_c, 0, 67, 64
1, 33128, Note_off_c, 0, 60, 64
1, 33140, Note_on_c, 0, 76, 62
1, 33140, Control_c, 0, 64, 0
1, 33152, Note_on_c, 0, 78, 45
1, 33152, Note_on_c, 0, 70, 65
1, 33152, Note_on_c, 0, 60, 41
1, 33160, Note_on_c, 0, 67, 41
1, 33176, Note_off_c, 0, 81, 64
1, 33192, Control_c, 0, 64, 127
1, 33360, Note_off_c, 0, 67, 64
1, 33364, Note_off_c, 0, 60, 64
1, 33380, Note_off_c, 0, 70, 64
1, 33388, Note_off_c, 0, 76, 64
1, 33396, Note_on_c, 0, 76, 63
1, 33396, Note_on_c, 0, 70, 63
1, 33400, Note_on_c, 0, 76, 57
1, 33412, Note_on_c, 0, 67, 57
1, 33412, Note_on_c, 0, 60, 46
1, 33444, Note_off_c, 0, 78, 64
1, 33456, Note_off_c, 0, 70, 64
1, 33480, Note_off_c, 0, 67, 64
1, 33480, Note_off_c, 0, 60, 64
1, 33480, Note_on_c, 0, 81, 67
1, 33484, Note_on_c, 0, 70, 71
1, 33488, Note_on_c, 0, 76, 48
1, 33496, Note_on_c, 0, 67, 57
1, 33500, Note_on_c, 0, 60, 46
1, 33560, Note_off_c, 0, 76, 64
1, 33560, Note_off_c, 0, 76, 64
1, 33656, Note_off_c, 0, 67, 64
1, 33736, Note_off_c, 0, 60, 64
1, 33748, Note_off_c, 0, 76, 64
1, 33788, Note_off_c, 0, 70, 64
1, 33828, Note_on_c, 0, 70, 71
1, 33832, Note_on_c, 0, 67, 54
1, 33832, Note_on_c, 0, 79, 67
1, 33836, Note_on_c, 0, 60, 41
1, 33856, Note_off_c, 0, 81, 64
1, 33952, Note_off_c, 0, 36, 64
1, 33952, Note_off_c, 0, 48, 64
1, 34168, Note_off_c, 0, 70, 64
1, 34196, Note_on_c, 0, 84, 55
1, 34200, Note_on_c, 0, 75, 63
1, 34200, Note_on_c, 0, 65, 54
1, 34208, Note_on_c, 0, 69, 53
1, 34224, Note_off_c, 0, 79, 64
1, 34228, Control_c, 0, 64, 0
1, 34236, Note_off_c, 0, 67, 64
1, 34248, Note_off_c, 0, 60, 64
1, 34276, Control_c, 0, 64, 127
1, 34388, Note_off_c, 0, 69, 64
1, 34420, Note_off_c, 0, 65, 64
1, 34424, Note_on_c, 0, 58, 55
1, 34428, Note_off_c, 0, 75, 64
1, 34432, Note_on_c, 0, 68, 55
1, 34440, Note_off_c, 0, 84, 64
1, 34444, Note_on_c, 0, 77, 62
1, 34444, Note_on_c, 0, 74, 55
1, 34492, Note_off_c, 0, 68, 64
1, 34500, Note_off_c, 0, 58, 64
1, 34520, Note_on_c, 0, 63, 62
1, 34532, Note_on_c, 0, 67, 67
1, 34536, Note_on_c, 0, 82, 70
1, 34536, Note_on_c, 0, 73, 71
1, 34544, Note_off_c, 0, 77, 64
1, 34556, Control_c, 0, 64, 0
1, 34560, Note_off_c, 0, 74, 64
1, 34608, Control_c, 0, 64, 127
1, 34732, Note_off_c, 0, 67, 64
1, 34808, Note_off_c, 0, 63, 64
1, 34824, Note_off_c, 0, 73, 64
1, 34888, Note_on_c, 0, 56, 58
1, 34888, Note_on_c, 0, 66, 58
1, 34900, Note_on_c, 0, 75, 62
1, 34900, Note_on_c, 0, 72, 58
1, 34912, Control_c, 0, 64, 0
1, 34932, Note_off_c, 0, 82, 64
1, 34984, Control_c, 0, 64, 127
1, 35124, Note_off_c, 0, 56, 64
1, 35180, Note_off_c, 0, 66, 64
1, 35180, Note_off_c, 0, 72, 64
1, 35248, Note_on_c, 0, 62, 58
1, 35256, Control_c, 0, 64, 0
1, 35264, Note_on_c, 0, 80, 62
1, 35264, Note_on_c, 0, 72, 59
1, 35272, Note_on_c, 0, 65, 52
1, 35312, Note_off_c, 0, 75, 64
1, 35320, Control_c, 0, 64, 127
1, 35352, Note_off_c, 0, 62, 64
1, 35432, Note_off_c, 0, 65, 64
1, 35468, Note_off_c, 0, 72, 64
1, 35500, Note_on_c, 0, 71, 55
1, 35500, Note_on_c, 0, 55, 58
1, 35504, Note_on_c, 0, 74, 59
1, 35512, Note_off_c, 0, 80, 64
1, 35516, Note_on_c, 0, 65, 55
1, 35596, Note_on_c, 0, 70, 70
1, 35600, Note_off_c, 0, 55, 64
1, 35608, Note_off_c, 0, 71, 64
1, 35608, Control_c, 0, 64, 0
1, 35616, Note_off_c, 0, 74, 64
1, 35616, Note_on_c, 0, 79, 53
1, 35628, Note_on_c, 0, 60, 53
1, 35636, Note_off_c, 0, 65, 64
1, 35636, Note_on_c, 0, 64, 36
1, 35696, Control_c, 0, 64, 127
1, 35820, Note_off_c, 0, 64, 64
1, 35852, Note_off_c, 0, 60, 64
1, 35924, Note_off_c, 0, 70, 64
1, 35980, Note_on_c, 0, 72, 62
1, 35980, Note_on_c, 0, 69, 57
1, 35992, Note_on_c, 0, 63, 46
1, 35996, Note_on_c, 0, 53, 42
1, 36000, Note_off_c, 0, 79, 64
1, 36008, Control_c, 0, 64, 0
1, 36064, Control_c, 0, 64, 127
1, 36356, Note_off_c, 0, 63, 64
1, 36384, Note_off_c, 0, 53, 64
1, 36400, Note_on_c, 0, 68, 72
1, 36400, Note_on_c, 0, 34, 72
1, 36412, Note_on_c, 0, 46, 68
1, 36412, Note_on_c, 0, 77, 75
1, 36412, Note_on_c, 0, 74, 74
1, 36436, Note_off_c, 0, 69, 64
1, 36440, Control_c, 0, 64, 0
1, 36464, Note_off_c, 0, 72, 64
1, 36528, Control_c, 0, 64, 127
1, 36664, Note_off_c, 0, 68, 64
1, 36768, Note_on_c, 0, 58, 67
1, 36784, Note_off_c, 0, 34, 64
1, 36784, Note_on_c, 0, 68, 80
1, 36796, Note_off_c, 0, 46, 64
1, 36808, Tempo, 500000
1, 36808, Note_on_c, 0, 65, 40
1, 36900, Note_off_c, 0, 58, 64
1, 36912, Note_off_c, 0, 65, 64
1, 36912, Note_off_c, 0, 68, 64
1, 36928, Note_off_c, 0, 74, 64
1, 36956, Note_on_c, 0, 79, 70
1, 36992, Note_off_c, 0, 77, 64
1, 37080, Note_on_c, 0, 77, 68
1, 37088, Note_off_c, 0, 79, 64
1, 37144, Note_off_c, 0, 77, 64
1, 37144, Note_on_c, 0, 79, 71
1, 37168, Note_on_c, 0, 58, 63
1, 37176, Note_on_c, 0, 65, 66
1, 37188, Note_on_c, 0, 68, 66
1, 37192, Note_on_c, 0, 77, 80
1, 37200, Note_on_c, 0, 74, 78
1, 37216, Note_off_c, 0, 79, 64
1, 37260, Note_off_c, 0, 58, 64
1, 37260, Note_off_c, 0, 65, 64
1, 37384, Note_off_c, 0, 68, 64
1, 37388, Note_on_c, 0, 73, 67
1, 37388, Note_on_c, 0, 76, 74
1, 37392, Note_off_c, 0, 74, 64
1, 37400, Note_off_c, 0, 77, 64
1, 37568, Note_on_c, 0, 77, 74
1, 37568, Note_on_c, 0, 46, 80
1, 37576, Note_off_c, 0, 73, 64
1, 37576, Note_on_c, 0, 74, 74
1, 37576, Note_on_c, 0, 68, 74
1, 37580, Note_on_c, 0, 58, 70
1, 37588, Note_off_c, 0, 76, 64
1, 37596, Control_c, 0, 64, 0
1, 37636, Control_c, 0, 64, 127
1, 37668, Note_off_c, 0, 46, 64
1, 37696, Note_off_c, 0, 58, 64
1, 37816, Note_off_c, 0, 74, 64
1, 37820, Note_off_c, 0, 68, 64
1, 37832, Note_on_c, 0, 70, 84
1, 37876, Note_off_c, 0, 77, 64
1, 37892, Note_off_c, 0, 70, 64
1, 37912, Note_on_c, 0, 75, 88
1, 37920, Note_on_c, 0, 66, 92
1, 37924, Note_on_c, 0, 70, 96
1, 37928, Note_on_c, 0, 51, 66
1, 37932, Note_on_c, 0, 58, 58
1, 37964, Control_c, 0, 64, 0
1, 38048, Control_c, 0, 64, 127
1, 38116, Note_off_c, 0, 51, 64
1, 38132, Note_off_c, 0, 58, 64
1, 38284, Note_off_c, 0, 70, 64
1, 38288, Note_on_c, 0, 65, 80
1, 38292, Tempo, 500000
1, 38292, Note_on_c, 0, 74, 83
1, 38292, Note_on_c, 0, 70, 79
1, 38304, Note_on_c, 0, 58, 52
1, 38304, Note_on_c, 0, 53, 49
1, 38328, Control_c, 0, 64, 0
1, 38348, Note_off_c, 0, 75, 64
1, 38364, Note_off_c, 0, 66, 64
1, 38416, Control_c, 0, 64, 127
1, 38424, Note_off_c, 0, 65, 64
1, 38528, Note_off_c, 0, 58, 64
1, 38624, Note_off_c, 0, 53, 64
1, 38632, Note_off_c, 0, 70, 64
1, 38640, Note_on_c, 0, 63, 79
1, 38648, Note_on_c, 0, 70, 79
1, 38656, Note_on_c, 0, 72, 75
1, 38664, Note_on_c, 0, 58, 72
1, 38664, Note_on_c, 0, 54, 75
1, 38704, Control_c, 0, 64, 0
1, 38708, Note_off_c, 0, 74, 64
1, 38788, Control_c, 0, 64, 127
1, 38828, Note_off_c, 0, 63, 64
1, 39012, Note_on_c, 0, 66, 85
1, 39016, Note_on_c, 0, 51, 70
1, 39040, Control_c, 0, 64, 0
1, 39100, Control_c, 0, 64, 127
1, 39176, Note_on_c, 0, 75, 74
1, 39192, Note_off_c, 0, 72, 64
1, 39244, Note_off_c, 0, 70, 64
1, 39248, Note_off_c, 0, 66, 64
1, 39280, Note_off_c, 0, 54, 64
1, 39320, Note_off_c, 0, 51, 64
1, 39356, Note_on_c, 0, 53, 68
1, 39368, Note_on_c, 0, 74, 81
1, 39368, Note_on_c, 0, 65, 67
1, 39372, Note_off_c, 0, 58, 64
1, 39372, Note_on_c, 0, 69, 75
1, 39388, Note_off_c, 0, 75, 64
1, 39392, Control_c, 0, 64, 0
1, 39456, Note_off_c, 0, 65, 64
1, 39464, Control_c, 0, 64, 127
1, 39500, Note_off_c, 0, 69, 64
1, 39512, Note_on_c, 0, 72, 71
1, 39528, Note_off_c, 0, 74, 64
1, 39532, Note_on_c, 0, 63, 84
1, 39632, Note_off_c, 0, 53, 64
1, 39672, Note_off_c, 0, 63, 64
1, 39716, Note_on_c, 0, 74, 78
1, 39720, Note_on_c, 0, 65, 81
1, 39724, Note_off_c, 0, 72, 64
1, 39724, Note_on_c, 0, 22, 72
1, 39728, Note_on_c, 0, 34, 75
1, 39748, Control_c, 0, 64, 0
1, 39824, Control_c, 0, 64, 127
1, 39876, Note_off_c, 0, 65, 64
1, 39972, Note_on_c, 0, 65, 88
1, 40008, Note_off_c, 0, 74, 64
1, 40032, Note_off_c, 0, 65, 64
1, 40064, Note_on_c, 0, 62, 85
1, 40064, Control_c, 0, 64, 0
1, 40080, Note_on_c, 0, 70, 89
1, 40080, Note_on_c, 0, 65, 66
1, 40080, Note_on_c, 0, 58, 88
1, 40080, Note_on_c, 0, 53, 67
1, 40092, Note_on_c, 0, 46, 67
1, 40108, Note_off_c, 0, 22, 64
1, 40112, Note_off_c, 0, 34, 64
1, 40152, Control_c, 0, 64, 127
1, 40368, Note_off_c, 0, 62, 64
1, 40384, Note_off_c, 0, 65, 64
1, 40384, Note_off_c, 0, 58, 64
1, 40384, Note_off_c, 0, 53, 64
1, 40392, Note_off_c, 0, 46, 64
1, 40404, Control_c, 0, 64, 0
1, 40416, Note_on_c, 0, 65, 78
1, 40420, Note_on_c, 0, 74, 80
1, 40420, Note_on_c, 0, 46, 88
1, 40424, Note_off_c, 0, 70, 64
1, 40428, Note_on_c, 0, 58, 80
1, 40428, Note_on_c, 0, 53, 46
1, 40456, Control_c, 0, 64, 127
1, 40464, Control_c, 0, 64, 127
1, 40516, Control_c, 0, 64, 0
1, 40776, Note_off_c, 0, 65, 64
1, 40788, Note_off_c, 0, 58, 64
1, 40792, Note_on_c, 0, 77, 81
1, 40792, Note_on_c, 0, 62, 68
1, 40800, Note_on_c, 0, 56, 66
1, 40800, Note_on_c, 0, 72, 78
1, 40808, Note_on_c, 0, 65, 67
1, 40832, Note_off_c, 0, 46, 64
1, 40840, Note_off_c, 0, 53, 64
1, 40840, Control_c, 0, 64, 0
1, 40856, Note_off_c, 0, 74, 64
1, 40948, Control_c, 0, 64, 127
1, 41064, Note_off_c, 0, 72, 64
1, 41080, Note_off_c, 0, 56, 64
1, 41096, Note_off_c, 0, 62, 64
1, 41116, Note_off_c, 0, 65, 64
1, 41152, Note_on_c, 0, 72, 74
1, 41156, Note_on_c, 0, 56, 46
1, 41172, Note_on_c, 0, 62, 63
1, 41184, Note_on_c, 0, 65, 46
1, 41196, Control_c, 0, 64, 127
1, 41244, Control_c, 0, 64, 0
1, 41320, Note_on_c, 0, 79, 72
1, 41328, Note_off_c, 0, 77, 64
1, 41376, Note_off_c, 0, 72, 64
1, 41432, Note_off_c, 0, 65, 64
1, 41432, Note_on_c, 0, 77, 89
1, 41440, Tempo, 500000
1, 41440, Note_off_c, 0, 79, 64
1, 41448, Note_off_c, 0, 56, 64
1, 41456, Note_off_c, 0, 62, 64
1, 41472, Note_on_c, 0, 79, 78
1, 41484, Note_off_c, 0, 77, 64
1, 41520, Note_on_c, 0, 72, 58
1, 41532, Note_on_c, 0, 77, 80
1, 41532, Note_on_c, 0, 65, 50
1, 41532, Note_on_c, 0, 56, 57
1, 41540, Note_on_c, 0, 62, 39
1, 41544, Control_c, 0, 64, 0
1, 41568, Note_off_c, 0, 79, 64
1, 41600, Control_c, 0, 64, 127
1, 41688, Note_on_c, 0, 76, 88
1, 41700, Note_off_c, 0, 77, 64
1, 41828, Note_off_c, 0, 72, 64
1, 41832, Note_off_c, 0, 56, 64
1, 41832, Note_off_c, 0, 62, 64
1, 41856, Note_off_c, 0, 65, 64
1, 41880, Note_on_c, 0, 71, 72
1, 41884, Note_on_c, 0, 77, 80
1, 41888, Note_on_c, 0, 62, 70
1, 41888, Note_on_c, 0, 55, 58
1, 41908, Control_c, 0, 64, 0
1, 41928, Note_off_c, 0, 76, 64
1, 41968, Control_c, 0, 64, 127
1, 42072, Note_off_c, 0, 55, 64
1, 42116, Note_off_c, 0, 71, 64
1, 42128, Note_off_c, 0, 62, 64
1, 42132, Note_on_c, 0, 71, 78
1, 42136, Note_on_c, 0, 62, 75
1, 42144, Note_on_c, 0, 55, 50
1, 42160, Note_off_c, 0, 62, 64
1, 42176, Note_off_c, 0, 71, 64
1, 42176, Note_off_c, 0, 55, 64
1, 42208, Note_on_c, 0, 75, 89
1, 42212, Note_on_c, 0, 55, 50
1, 42224, Note_on_c, 0, 71, 88
1, 42224, Note_on_c, 0, 67, 70
1, 42224, Control_c, 0, 64, 0
1, 42264, Note_off_c, 0, 77, 64
1, 42316, Control_c, 0, 64, 127
1, 42416, Note_off_c, 0, 71, 64
1, 42464, Note_off_c, 0, 67, 64
1, 42504, Note_off_c, 0, 55, 64
1, 42572, Note_on_c, 0, 74, 80
1, 42588, Note_off_c, 0, 75, 64
1, 42588, Note_on_c, 0, 71, 70
1, 42588, Note_on_c, 0, 55, 71
1, 42592, Note_on_c, 0, 65, 70
1, 42612, Control_c, 0, 64, 0
1, 42680, Control_c, 0, 64, 127
1, 42732, Note_off_c, 0, 55, 64
1, 42808, Note_off_c, 0, 65, 64
1, 42880, Note_off_c, 0, 71, 64
1, 42928, Note_off_c, 0, 74, 64
1, 42944, Note_on_c, 0, 72, 76
1, 42948, Note_on_c, 0, 70, 78
1, 42956, Note_on_c, 0, 60, 68
1, 42960, Note_on_c, 0, 64, 70
1, 42968, Control_c, 0, 64, 0
1, 43056, Control_c, 0, 64, 127
1, 43088, Note_off_c, 0, 64, 64
1, 43104, Note_off_c, 0, 60, 64
1, 43312, Note_on_c, 0, 69, 70
1, 43312, Note_on_c, 0, 53, 72
1, 43316, Note_off_c, 0, 70, 64
1, 43316, Note_off_c, 0, 72, 64
1, 43320, Note_on_c, 0, 63, 65
1, 43332, Control_c, 0, 64, 0
1, 43404, Control_c, 0, 64, 127
1, 43440, Note_off_c, 0, 53, 64
1, 43480, Note_off_c, 0, 63, 64
1, 43480, Note_on_c, 0, 67, 78
1, 43484, Note_on_c, 0, 75, 75
1, 43636, Control_c, 0, 64, 0
1, 43644, Note_on_c, 0, 65, 70
1, 43656, Note_on_c, 0, 74, 67
1, 43672, Note_off_c, 0, 67, 64
1, 43684, Control_c, 0, 64, 127
1, 43696, Note_off_c, 0, 75, 64
1, 43808, Note_on_c, 0, 72, 67
1, 43808, Note_on_c, 0, 63, 81
1, 43816, Note_off_c, 0, 65, 64
1, 43824, Note_off_c, 0, 74, 64
1, 43864, Note_off_c, 0, 69, 64
1, 43976, Note_on_c, 0, 70, 89
1, 43984, Note_on_c, 0, 58, 68
1, 43992, Note_off_c, 0, 72, 64
1, 43992, Note_on_c, 0, 74, 88
1, 43992, Note_on_c, 0, 62, 71
1, 44016, Note_off_c, 0, 63, 64
1, 44024, Control_c, 0, 64, 0
1, 44080, Control_c, 0, 64, 127
1, 44112, Note_off_c, 0, 70, 64
1, 44116, Note_off_c, 0, 58, 64
1, 44180, Note_off_c, 0, 62, 64
1, 44204, Note_on_c, 0, 53, 85
1, 44208, Note_on_c, 0, 60, 74
1, 44216, Note_on_c, 0, 65, 83
1, 44228, Note_on_c, 0, 72, 72
1, 44248, Note_off_c, 0, 60, 64
1, 44252, Note_off_c, 0, 74, 64
1, 44272, Note_off_c, 0, 53, 64
1, 44288, Control_c, 0, 64, 0
1, 44292, Note_off_c, 0, 65, 64
1, 44292, Note_on_c, 0, 70, 96
1, 44300, Note_on_c, 0, 62, 88
1, 44300, Note_on_c, 0, 58, 101
1, 44304, Note_off_c, 0, 72, 64
1, 44304, Note_on_c, 0, 46, 66
1, 44360, Control_c, 0, 64, 127
1, 44580, Note_off_c, 0, 70, 64
1, 44588, Note_off_c, 0, 58, 64
1, 44588, Note_off_c, 0, 62, 64
1, 44592, Note_off_c, 0, 46, 64
1, 44672, Control_c, 0, 64, 0
1, 44692, Note_on_c, 0, 82, 107
1, 44692, Note_on_c, 0, 70, 98
1, 44692, Note_on_c, 0, 34, 94
1, 44696, Note_on_c, 0, 46, 96
1, 44728, Control_c, 0, 64, 127
1, 45072, Note_off_c, 0, 82, 64
1, 45072, Note_off_c, 0, 70, 64
1, 45072, Note_off_c, 0, 34, 64
1, 45072, Note_off_c, 0, 46, 64
1, 45320, Note_on_c, 0, 39, 70
1, 45336, Control_c, 0, 64, 0
1, 45384, Control_c, 0, 64, 127
1, 45676, Note_on_c, 0, 55, 45
1, 45688, Note_on_c, 0, 46, 27
1, 45704, Note_off_c, 0, 39, 64
1, 45784, Note_off_c, 0, 55, 64
1, 45796, Note_off_c, 0, 46, 64
1, 45984, Note_on_c, 0, 39, 42
1, 46292, Note_on_c, 0, 46, 58
1, 46304, Note_on_c, 0, 55, 31
1, 46368, Note_off_c, 0, 39, 64
1, 46384, Note_off_c, 0, 46, 64
1, 46400, Note_off_c, 0, 55, 64
1, 46456, Note_on_c, 0, 46, 58
1, 46472, Note_on_c, 0, 55, 31
1, 46524, Note_off_c, 0, 55, 64
1, 46540, Note_off_c, 0, 46, 64
1, 46640, Note_on_c, 0, 39, 53
1, 46956, Note_on_c, 0, 46, 53
1, 46972, Note_on_c, 0, 55, 28
1, 47024, Note_off_c, 0, 39, 64
1, 47084, Note_off_c, 0, 46, 64
1, 47088, Note_off_c, 0, 55, 64
1, 47292, Note_on_c, 0, 39, 44
1, 47596, Note_on_c, 0, 46, 52
1, 47608, Note_on_c, 0, 55, 28
1, 47676, Note_off_c, 0, 39, 64
1, 47712, Note_off_c, 0, 55, 64
1, 47720, Note_off_c, 0, 46, 64
1, 47936, Note_on_c, 0, 39, 37
1, 48248, Note_on_c, 0, 46, 40
1, 48272, Note_on_c, 0, 55, 16
1, 48320, Note_off_c, 0, 39, 64
1, 48336, Note_off_c, 0, 46, 64
1, 48352, Note_off_c, 0, 55, 64
1, 48416, Note_on_c, 0, 46, 23
1, 48424, Note_on_c, 0, 55, 23
1, 48468, Note_off_c, 0, 46, 64
1, 48488, Note_off_c, 0, 55, 64
1, 48588, Note_on_c, 0, 39, 42
1, 48888, Note_on_c, 0, 46, 32
1, 48900, Note_on_c, 0, 55, 22
1, 48972, Note_off_c, 0, 39, 64
1, 49008, Note_off_c, 0, 55, 64
1, 49036, Note_off_c, 0, 46, 64
1, 49216, Note_on_c, 0, 67, 41
1, 49220, Note_on_c, 0, 39, 45
1, 49240, Control_c, 0, 64, 0
1, 49300, Control_c, 0, 64, 127
1, 49348, Note_on_c, 0, 68, 36
1, 49352, Note_off_c, 0, 67, 64
1, 49408, Note_off_c, 0, 68, 64
1, 49448, Note_on_c, 0, 68, 63
1, 49556, Note_on_c, 0, 46, 35
1, 49556, Note_on_c, 0, 79, 57
1, 49556, Note_on_c, 0, 56, 36
1, 49568, Note_off_c, 0, 68, 64
1, 49604, Note_off_c, 0, 39, 64
1, 49660, Note_off_c, 0, 56, 64
1, 49688, Note_off_c, 0, 46, 64
1, 49844, Note_on_c, 0, 39, 55
1, 50008, Note_on_c, 0, 77, 52
1, 50024, Note_off_c, 0, 79, 64
1, 50148, Note_on_c, 0, 56, 53
1, 50152, Note_on_c, 0, 46, 37
1, 50160, Note_on_c, 0, 76, 53
1, 50184, Note_off_c, 0, 77, 64
1, 50220, Note_off_c, 0, 46, 64
1, 50224, Note_off_c, 0, 56, 64
1, 50228, Note_off_c, 0, 39, 64
1, 50328, Note_on_c, 0, 56, 53
1, 50388, Note_off_c, 0, 56, 64
1, 50400, Note_on_c, 0, 77, 55
1, 50432, Note_off_c, 0, 76, 64
1, 50460, Note_on_c, 0, 39, 63
1, 50464, Note_on_c, 0, 80, 55
1, 50472, Control_c, 0, 64, 0
1, 50488, Note_off_c, 0, 77, 64
1, 50536, Control_c, 0, 64, 127
1, 50760, Note_on_c, 0, 84, 62
1, 50776, Note_on_c, 0, 46, 46
1, 50780, Note_on_c, 0, 56, 36
1, 50820, Note_off_c, 0, 80, 64
1, 50844, Note_off_c, 0, 39, 64
1, 50872, Note_off_c, 0, 56, 64
1, 50956, Note_off_c, 0, 46, 64
1, 51072, Note_on_c, 0, 39, 49
1, 51080, Note_on_c, 0, 67, 48
1, 51096, Control_c, 0, 64, 0
1, 51120, Note_off_c, 0, 84, 64
1, 51144, Control_c, 0, 64, 127
1, 51212, Note_on_c, 0, 68, 37
1, 51220, Note_off_c, 0, 67, 64
1, 51268, Note_off_c, 0, 68, 64
1, 51332, Note_on_c, 0, 68, 54
1, 51404, Note_on_c, 0, 56, 48
1, 51408, Note_on_c, 0, 46, 41
1, 51416, Control_c, 0, 64, 0
1, 51436, Note_on_c, 0, 79, 70
1, 51456, Note_off_c, 0, 39, 64
1, 51456, Control_c, 0, 64, 127
1, 51464, Note_off_c, 0, 68, 64
1, 51496, Note_off_c, 0, 56, 64
1, 51524, Note_off_c, 0, 46, 64
1, 51728, Note_on_c, 0, 39, 40
1, 51872, Note_on_c, 0, 77, 52
1, 51896, Note_off_c, 0, 79, 64
1, 52020, Note_on_c, 0, 75, 45
1, 52028, Note_on_c, 0, 46, 48
1, 52040, Note_on_c, 0, 55, 31
1, 52052, Note_off_c, 0, 77, 64
1, 52104, Note_off_c, 0, 55, 64
1, 52108, Note_off_c, 0, 46, 64
1, 52112, Note_off_c, 0, 39, 64
1, 52144, Note_on_c, 0, 46, 53
1, 52160, Tempo, 500000
1, 52160, Note_on_c, 0, 55, 28
1, 52212, Note_off_c, 0, 55, 64
1, 52228, Note_off_c, 0, 46, 64
1, 52272, Note_on_c, 0, 72, 55
1, 52308, Note_off_c, 0, 75, 64
1, 52324, Control_c, 0, 64, 0
1, 52344, Note_on_c, 0, 39, 58
1, 52360, Note_on_c, 0, 69, 48
1, 52388, Note_off_c, 0, 72, 64
1, 52396, Control_c, 0, 64, 127
1, 52652, Note_on_c, 0, 46, 55
1, 52668, Note_on_c, 0, 70, 54
1, 52672, Note_on_c, 0, 55, 41
1, 52712, Note_off_c, 0, 69, 64
1, 52728, Note_off_c, 0, 39, 64
1, 52812, Note_off_c, 0, 55, 64
1, 52912, Note_off_c, 0, 46, 64
1, 52972, Note_on_c, 0, 39, 39
1, 52976, Note_on_c, 0, 67, 46
1, 52992, Note_off_c, 0, 70, 64
1, 52996, Control_c, 0, 64, 0
1, 53012, Control_c, 0, 64, 127
1, 53104, Note_on_c, 0, 68, 46
1, 53108, Note_off_c, 0, 67, 64
1, 53164, Note_off_c, 0, 68, 64
1, 53168, Note_off_c, 0, 39, 64
1, 53212, Note_on_c, 0, 68, 70
1, 53276, Note_on_c, 0, 56, 46
1, 53284, Note_on_c, 0, 46, 41
1, 53316, Note_on_c, 0, 79, 54
1, 53356, Note_off_c, 0, 68, 64
1, 53396, Note_off_c, 0, 56, 64
1, 53476, Note_off_c, 0, 46, 64
1, 53588, Note_on_c, 0, 39, 58
1, 53692, Note_off_c, 0, 39, 64
1, 53736, Note_on_c, 0, 77, 55
1, 53764, Note_off_c, 0, 79, 64
1, 53868, Note_on_c, 0, 56, 53
1, 53876, Note_on_c, 0, 46, 52
1, 53892, Note_on_c, 0, 76, 54
1, 53924, Note_off_c, 0, 77, 64
1, 53932, Note_off_c, 0, 56, 64
1, 53940, Note_off_c, 0, 46, 64
1, 54044, Note_on_c, 0, 46, 28
1, 54044, Note_on_c, 0, 56, 57
1, 54096, Note_off_c, 0, 46, 64
1, 54108, Note_off_c, 0, 56, 64
1, 54132, Note_on_c, 0, 77, 54
1, 54148, Note_off_c, 0, 76, 64
1, 54184, Note_on_c, 0, 39, 63
1, 54208, Note_on_c, 0, 80, 63
1, 54232, Note_off_c, 0, 77, 64
1, 54364, Note_off_c, 0, 39, 64
1, 54488, Note_on_c, 0, 84, 54
1, 54500, Note_on_c, 0, 46, 54
1, 54508, Note_on_c, 0, 56, 52
1, 54536, Note_on_c, 0, 89, 65
1, 54536, Control_c, 0, 64, 0
1, 54556, Note_off_c, 0, 84, 64
1, 54580, Note_off_c, 0, 56, 64
1, 54592, Control_c, 0, 64, 127
1, 54620, Note_off_c, 0, 46, 64
1, 54636, Note_off_c, 0, 80, 64
1, 54856, Note_on_c, 0, 83, 58
1, 54864, Note_off_c, 0, 89, 64
1, 54892, Note_on_c, 0, 39, 58
1, 54904, Note_on_c, 0, 84, 53
1, 54908, Control_c, 0, 64, 0
1, 54912, Note_off_c, 0, 83, 64
1, 54932, Note_on_c, 0, 83, 57
1, 54940, Control_c, 0, 64, 127
1, 54956, Note_off_c, 0, 84, 64
1, 55224, Note_on_c, 0, 56, 40
1, 55236, Note_off_c, 0, 83, 64
1, 55240, Note_on_c, 0, 82, 62
1, 55244, Note_on_c, 0, 62, 28
1, 55272, Control_c, 0, 64, 0
1, 55276, Note_off_c, 0, 39, 64
1, 55308, Control_c, 0, 64, 127
1, 55352, Note_off_c, 0, 56, 64
1, 55364, Note_off_c, 0, 62, 64
1, 55416, Note_on_c, 0, 79, 54
1, 55448, Note_off_c, 0, 82, 64
1, 55564, Note_on_c, 0, 82, 50
1, 55576, Note_on_c, 0, 56, 40
1, 55584, Note_on_c, 0, 62, 26
1, 55604, Note_on_c, 0, 83, 50
1, 55612, Note_off_c, 0, 82, 64
1, 55632, Note_off_c, 0, 79, 64
1, 55644, Note_on_c, 0, 82, 50
1, 55692, Note_off_c, 0, 83, 64
1, 55724, Note_off_c, 0, 56, 64
1, 55724, Note_off_c, 0, 62, 64
1, 55900, Note_on_c, 0, 39, 42
1, 55908, Note_on_c, 0, 81, 49
1, 55948, Note_off_c, 0, 82, 64
1, 56108, Note_on_c, 0, 78, 39
1, 56164, Note_off_c, 0, 81, 64
1, 56204, Note_on_c, 0, 81, 44
1, 56232, Note_on_c, 0, 82, 42
1, 56256, Note_off_c, 0, 81, 64
1, 56264, Note_on_c, 0, 56, 44
1, 56268, Note_off_c, 0, 78, 64
1, 56268, Note_on_c, 0, 62, 32
1, 56276, Note_on_c, 0, 81, 42
1, 56284, Note_off_c, 0, 39, 64
1, 56296, Note_off_c, 0, 82, 64
1, 56400, Note_off_c, 0, 56, 64
1, 56408, Note_off_c, 0, 62, 64
1, 56628, Note_on_c, 0, 62, 36
1, 56636, Note_on_c, 0, 80, 39
1, 56640, Note_on_c, 0, 56, 33
1, 56700, Note_off_c, 0, 81, 64
1, 56764, Note_off_c, 0, 62, 64
1, 56780, Note_off_c, 0, 56, 64
1, 56780, Note_on_c, 0, 77, 48
1, 56796, Note_off_c, 0, 80, 64
1, 56976, Note_off_c, 0, 77, 64
1, 57004, Note_on_c, 0, 39, 54
1, 57024, Control_c, 0, 64, 0
1, 57044, Note_on_c, 0, 67, 55
1, 57060, Control_c, 0, 64, 127
1, 57160, Note_on_c, 0, 68, 46
1, 57168, Note_off_c, 0, 67, 64
1, 57216, Note_off_c, 0, 68, 64
1, 57272, Note_on_c, 0, 68, 62
1, 57340, Note_on_c, 0, 79, 58
1, 57344, Note_on_c, 0, 46, 36
1, 57356, Note_on_c, 0, 56, 27
1, 57376, Note_off_c, 0, 68, 64
1, 57388, Note_off_c, 0, 39, 64
1, 57396, Note_off_c, 0, 46, 64
1, 57412, Note_off_c, 0, 56, 64
1, 57620, Note_on_c, 0, 39, 52
1, 57640, Control_c, 0, 64, 0
1, 57684, Control_c, 0, 64, 127
1, 57776, Note_on_c, 0, 77, 48
1, 57808, Note_off_c, 0, 79, 64
1, 57932, Note_on_c, 0, 76, 57
1, 57940, Note_on_c, 0, 46, 44
1, 57956, Note_on_c, 0, 56, 44
1, 57988, Note_off_c, 0, 77, 64
1, 58004, Note_off_c, 0, 39, 64
1, 58008, Note_off_c, 0, 56, 64
1, 58012, Note_off_c, 0, 46, 64
1, 58080, Note_on_c, 0, 46, 44
1, 58084, Note_on_c, 0, 56, 44
1, 58144, Note_off_c, 0, 56, 64
1, 58164, Note_on_c, 0, 77, 54
1, 58168, Note_off_c, 0, 46, 64
1, 58176, Note_off_c, 0, 76, 64
1, 58212, Control_c, 0, 64, 0
1, 58228, Note_on_c, 0, 39, 63
1, 58252, Note_on_c, 0, 80, 55
1, 58280, Control_c, 0, 64, 127
1, 58292, Note_off_c, 0, 77, 64
1, 58540, Note_on_c, 0, 46, 41
1, 58544, Note_on_c, 0, 84, 62
1, 58544, Note_on_c, 0, 56, 36
1, 58572, Note_off_c, 0, 80, 64
1, 58612, Note_off_c, 0, 39, 64
1, 58632, Note_off_c, 0, 56, 64
1, 58668, Note_off_c, 0, 46, 64
1, 58876, Note_on_c, 0, 67, 53
1, 58880, Note_on_c, 0, 39, 49
1, 58928, Note_off_c, 0, 84, 64
1, 58948, Control_c, 0, 64, 0
1, 59000, Control_c, 0, 64, 127
1, 59028, Note_on_c, 0, 68, 66
1, 59052, Note_off_c, 0, 67, 64
1, 59080, Note_off_c, 0, 68, 64
1, 59168, Note_on_c, 0, 68, 65
1, 59228, Note_on_c, 0, 56, 52
1, 59240, Note_on_c, 0, 46, 54
1, 59244, Note_off_c, 0, 68, 64
1, 59252, Note_on_c, 0, 79, 58
1, 59264, Note_off_c, 0, 39, 64
1, 59268, Control_c, 0, 64, 0
1, 59300, Control_c, 0, 64, 127
1, 59328, Note_off_c, 0, 56, 64
1, 59380, Note_off_c, 0, 46, 64
1, 59552, Note_on_c, 0, 39, 58
1, 59676, Note_on_c, 0, 77, 53
1, 59724, Note_off_c, 0, 79, 64
1, 59820, Note_on_c, 0, 46, 58
1, 59832, Note_on_c, 0, 55, 46
1, 59836, Note_on_c, 0, 75, 52
1, 59844, Control_c, 0, 64, 0
1, 59868, Note_off_c, 0, 77, 64
1, 59896, Control_c, 0, 64, 127
1, 59900, Note_off_c, 0, 46, 64
1, 59900, Note_off_c, 0, 55, 64
1, 59936, Note_off_c, 0, 39, 64
1, 60000, Note_on_c, 0, 55, 52
1, 60008, Note_on_c, 0, 46, 40
1, 60052, Note_off_c, 0, 46, 64
1, 60060, Note_off_c, 0, 55, 64
1, 60060, Note_on_c, 0, 72, 55
1, 60088, Note_off_c, 0, 75, 64
1, 60120, Control_c, 0, 64, 0
1, 60136, Note_on_c, 0, 69, 52
1, 60136, Note_on_c, 0, 39, 70
1, 60172, Note_off_c, 0, 72, 64
1, 60188, Control_c, 0, 64, 127
1, 60436, Control_c, 0, 64, 0
1, 60452, Note_on_c, 0, 70, 57
1, 60456, Note_on_c, 0, 46, 55
1, 60472, Note_on_c, 0, 55, 41
1, 60484, Control_c, 0, 64, 127
1, 60508, Note_off_c, 0, 69, 64
1, 60520, Note_off_c, 0, 39, 64
1, 60572, Note_off_c, 0, 55, 64
1, 60628, Note_off_c, 0, 46, 64
1, 60820, Note_on_c, 0, 67, 36
1, 60828, Note_on_c, 0, 39, 53
1, 60832, Note_off_c, 0, 70, 64
1, 60848, Control_c, 0, 64, 0
1, 60904, Control_c, 0, 64, 127
1, 60972, Note_on_c, 0, 68, 59
1, 60984, Note_off_c, 0, 67, 64
1, 61028, Note_off_c, 0, 68, 64
1, 61088, Note_on_c, 0, 68, 70
1, 61160, Note_on_c, 0, 56, 58
1, 61160, Note_on_c, 0, 46, 52
1, 61168, Note_off_c, 0, 68, 64
1, 61172, Control_c, 0, 64, 0
1, 61180, Note_on_c, 0, 79, 54
1, 61212, Note_off_c, 0, 39, 64
1, 61212, Control_c, 0, 64, 127
1, 61272, Note_off_c, 0, 56, 64
1, 61340, Note_off_c, 0, 46, 64
1, 61452, Note_on_c, 0, 39, 57
1, 61600, Note_on_c, 0, 77, 54
1, 61624, Note_off_c, 0, 79, 64
1, 61732, Note_on_c, 0, 56, 57
1, 61732, Note_on_c, 0, 46, 55
1, 61740, Note_on_c, 0, 76, 57
1, 61764, Note_off_c, 0, 77, 64
1, 61812, Note_off_c, 0, 56, 64
1, 61812, Note_off_c, 0, 46, 64
1, 61836, Note_off_c, 0, 39, 64
1, 61908, Note_on_c, 0, 56, 48
1, 61912, Note_on_c, 0, 46, 46
1, 61972, Note_on_c, 0, 77, 45
1, 61976, Note_off_c, 0, 56, 64
1, 61988, Note_off_c, 0, 46, 64
1, 61996, Note_off_c, 0, 76, 64
1, 62056, Note_on_c, 0, 80, 66
1, 62064, Note_on_c, 0, 39, 57
1, 62080, Note_off_c, 0, 77, 64
1, 62324, Note_on_c, 0, 96, 57
1, 62356, Note_off_c, 0, 80, 64
1, 62388, Note_on_c, 0, 46, 45
1, 62396, Note_on_c, 0, 101, 67
1, 62396, Note_on_c, 0, 56, 31
1, 62448, Note_off_c, 0, 39, 64
1, 62484, Note_off_c, 0, 96, 64
1, 62548, Note_off_c, 0, 56, 64
1, 62588, Note_off_c, 0, 46, 64
1, 62776, Note_off_c, 0, 101, 64
1, 62860, Note_on_c, 0, 39, 50
1, 62876, Note_on_c, 0, 84, 63
1, 63148, Note_on_c, 0, 83, 65
1, 63180, Note_off_c, 0, 84, 64
1, 63244, Note_off_c, 0, 39, 64
1, 63316, Note_on_c, 0, 65, 35
1, 63324, Note_on_c, 0, 82, 54
1, 63324, Note_on_c, 0, 68, 28
1, 63324, Note_on_c, 0, 58, 26
1, 63344, Note_off_c, 0, 83, 64
1, 63440, Note_off_c, 0, 65, 64
1, 63464, Note_off_c, 0, 58, 64
1, 63468, Note_off_c, 0, 68, 64
1, 63508, Note_on_c, 0, 81, 61
1, 63536, Note_off_c, 0, 82, 64
1, 63708, Note_on_c, 0, 80, 57
1, 63708, Note_on_c, 0, 58, 49
1, 63720, Note_on_c, 0, 65, 53
1, 63724, Note_on_c, 0, 68, 40
1, 63804, Note_off_c, 0, 68, 64
1, 63808, Note_off_c, 0, 81, 64
1, 63844, Note_off_c, 0, 58, 64
1, 63852, Note_off_c, 0, 65, 64
1, 63940, Note_on_c, 0, 70, 46
1, 63996, Note_off_c, 0, 80, 64
1, 64136, Note_on_c, 0, 51, 31
1, 64140, Note_off_c, 0, 70, 64
1, 64144, Note_on_c, 0, 77, 54
1, 64184, Control_c, 0, 64, 0
1, 64260, Control_c, 0, 64, 127
1, 64448, Note_on_c, 0, 79, 44
1, 64468, Note_off_c, 0, 77, 64
1, 64520, Note_off_c, 0, 51, 64
1, 64532, Note_on_c, 0, 75, 54
1, 64560, Note_on_c, 0, 58, 19
1, 64564, Control_c, 0, 64, 0
1, 64576, Note_on_c, 0, 67, 23
1, 64580, Note_off_c, 0, 79, 64
1, 64584, Note_on_c, 0, 63, 24
1, 64648, Control_c, 0, 64, 127
1, 64996, Note_off_c, 0, 58, 64
1, 64996, Note_off_c, 0, 67, 64
1, 64996, Note_off_c, 0, 63, 64
1, 65000, Note_off_c, 0, 75, 64
1, 65176, Control_c, 0, 64, 0
1, 65212, Note_on_c, 0, 65, 74
1, 65268, Control_c, 0, 64, 127
1, 65604, Control_c, 0, 64, 0
1, 65612, Note_on_c, 0, 77, 83
1, 65616, Note_on_c, 0, 74, 79
1, 65624, Note_off_c, 0, 65, 64
1, 65628, Note_on_c, 0, 34, 72
1, 65636, Note_on_c, 0, 46, 58
1, 65696, Control_c, 0, 64, 127
1, 65836, Note_off_c, 0, 74, 64
1, 65848, Note_off_c, 0, 77, 64
1, 66012, Note_off_c, 0, 34, 64
1, 66012, Note_on_c, 0, 58, 36
1, 66016, Note_on_c, 0, 53, 54
1, 66020, Note_off_c, 0, 46, 64
1, 66028, Note_on_c, 0, 62, 36
1, 66112, Note_off_c, 0, 58, 64
1, 66116, Note_off_c, 0, 62, 64
1, 66124, Note_off_c, 0, 53, 64
1, 66172, Note_on_c, 0, 73, 67
1, 66180, Note_on_c, 0, 76, 62
1, 66244, Note_off_c, 0, 73, 64
1, 66260, Note_off_c, 0, 76, 64
1, 66316, Note_on_c, 0, 74, 46
1, 66320, Note_on_c, 0, 77, 72
1, 66348, Note_on_c, 0, 77, 67
1, 66380, Note_off_c, 0, 77, 64
1, 66380, Note_on_c, 0, 79, 57
1, 66396, Note_off_c, 0, 74, 64
1, 66404, Note_off_c, 0, 77, 64
1, 66404, Note_on_c, 0, 53, 57
1, 66408, Note_on_c, 0, 74, 55
1, 66408, Note_on_c, 0, 58, 46
1, 66424, Note_on_c, 0, 62, 35
1, 66428, Note_on_c, 0, 77, 72
1, 66440, Note_off_c, 0, 79, 64
1, 66460, Note_off_c, 0, 62, 64
1, 66484, Note_off_c, 0, 58, 64
1, 66488, Note_off_c, 0, 77, 64
1, 66492, Note_off_c, 0, 53, 64
1, 66516, Note_off_c, 0, 74, 64
1, 66604, Note_on_c, 0, 76, 76
1, 66612, Note_on_c, 0, 73, 89
1, 66680, Note_off_c, 0, 73, 64
1, 66696, Note_off_c, 0, 76, 64
1, 66784, Note_on_c, 0, 74, 78
1, 66788, Note_on_c, 0, 77, 79
1, 66804, Note_on_c, 0, 58, 52
1, 66804, Note_on_c, 0, 46, 57
1, 66816, Control_c, 0, 64, 0
1, 66868, Control_c, 0, 64, 127
1, 66884, Note_off_c, 0, 74, 64
1, 66892, Note_off_c, 0, 77, 64
1, 66920, Note_off_c, 0, 58, 64
1, 66940, Note_off_c, 0, 46, 64
1, 67036, Note_on_c, 0, 70, 81
1, 67076, Note_off_c, 0, 70, 64
1, 67120, Note_on_c, 0, 67, 85
1, 67128, Note_on_c, 0, 70, 88
1, 67132, Note_on_c, 0, 75, 83
1, 67132, Note_on_c, 0, 51, 66
1, 67148, Note_on_c, 0, 58, 32
1, 67156, Control_c, 0, 64, 0
1, 67188, Control_c, 0, 64, 127
1, 67228, Note_off_c, 0, 51, 64
1, 67284, Note_off_c, 0, 58, 64
1, 67396, Note_off_c, 0, 70, 64
1, 67456, Note_off_c, 0, 75, 64
1, 67480, Note_off_c, 0, 67, 64
1, 67480, Note_on_c, 0, 70, 35
1, 67492, Note_on_c, 0, 74, 80
1, 67492, Note_on_c, 0, 46, 66
1, 67500, Note_on_c, 0, 58, 52
1, 67508, Note_on_c, 0, 65, 71
1, 67520, Control_c, 0, 64, 0
1, 67552, Note_off_c, 0, 58, 64
1, 67556, Control_c, 0, 64, 127
1, 67576, Note_off_c, 0, 46, 64
1, 67620, Note_off_c, 0, 65, 64
1, 67672, Note_off_c, 0, 70, 64
1, 67732, Note_off_c, 0, 74, 64
1, 67852, Note_on_c, 0, 72, 81
1, 67852, Note_on_c, 0, 29, 72
1, 67860, Note_on_c, 0, 63, 79
1, 67868, Note_on_c, 0, 41, 37
1, 67892, Control_c, 0, 64, 0
1, 67960, Control_c, 0, 64, 127
1, 68228, Note_on_c, 0, 53, 61
1, 68236, Note_off_c, 0, 29, 64
1, 68244, Note_on_c, 0, 57, 63
1, 68244, Control_c, 0, 64, 0
1, 68252, Note_off_c, 0, 41, 64
1, 68264, Control_c, 0, 64, 127
1, 68292, Note_off_c, 0, 63, 64
1, 68300, Note_off_c, 0, 72, 64
1, 68372, Note_on_c, 0, 75, 75
1, 68384, Note_on_c, 0, 67, 70
1, 68460, Note_off_c, 0, 75, 64
1, 68468, Note_off_c, 0, 67, 64
1, 68512, Note_off_c, 0, 57, 64
1, 68548, Note_on_c, 0, 65, 74
1, 68556, Note_on_c, 0, 74, 70
1, 68612, Note_off_c, 0, 65, 64
1, 68616, Note_off_c, 0, 53, 64
1, 68648, Note_off_c, 0, 74, 64
1, 68704, Note_on_c, 0, 63, 85
1, 68712, Note_on_c, 0, 72, 68
1, 68784, Note_off_c, 0, 63, 64
1, 68788, Note_off_c, 0, 72, 64
1, 68872, Note_on_c, 0, 34, 70
1, 68884, Note_on_c, 0, 46, 65
1, 68884, Note_on_c, 0, 74, 78
1, 68884, Note_on_c, 0, 65, 88
1, 68884, Control_c, 0, 64, 0
1, 68936, Control_c, 0, 64, 127
1, 68968, Note_off_c, 0, 65, 64
1, 68988, Tempo, 500000
1, 68988, Note_off_c, 0, 74, 64
1, 69132, Note_on_c, 0, 65, 79
1, 69148, Note_off_c, 0, 46, 64
1, 69172, Note_off_c, 0, 65, 64
1, 69208, Note_on_c, 0, 65, 70
1, 69208, Note_on_c, 0, 70, 89
1, 69216, Note_on_c, 0, 62, 88
1, 69216, Note_on_c, 0, 58, 71
1, 69216, Note_on_c, 0, 46, 63
1, 69224, Note_on_c, 0, 53, 63
1, 69228, Control_c, 0, 64, 0
1, 69244, Note_off_c, 0, 65, 64
1, 69256, Note_off_c, 0, 34, 64
1, 69268, Control_c, 0, 64, 127
1, 69296, Note_off_c, 0, 46, 64
1, 69308, Note_off_c, 0, 53, 64
1, 69324, Note_off_c, 0, 58, 64
1, 69352, Note_off_c, 0, 70, 64
1, 69476, Note_off_c, 0, 62, 64
1, 69544, Note_on_c, 0, 65, 80
1, 69548, Note_on_c, 0, 74, 80
1, 69556, Note_on_c, 0, 58, 67
1, 69564, Note_on_c, 0, 46, 67
1, 69572, Note_on_c, 0, 53, 61
1, 69636, Note_off_c, 0, 53, 64
1, 69644, Note_off_c, 0, 58, 64
1, 69644, Note_off_c, 0, 46, 64
1, 69752, Note_off_c, 0, 65, 64
1, 69844, Note_off_c, 0, 74, 64
1, 69888, Note_on_c, 0, 77, 80
1, 69888, Note_on_c, 0, 34, 72
1, 69900, Note_on_c, 0, 74, 74
1, 69900, Note_on_c, 0, 46, 66
1, 69920, Control_c, 0, 64, 0
1, 69968, Control_c, 0, 64, 127
1, 69972, Note_off_c, 0, 74, 64
1, 69984, Note_off_c, 0, 77, 64
1, 70120, Note_on_c, 0, 77, 83
1, 70124, Note_on_c, 0, 74, 75
1, 70164, Note_off_c, 0, 77, 64
1, 70164, Note_off_c, 0, 74, 64
1, 70200, Note_on_c, 0, 77, 80
1, 70204, Control_c, 0, 64, 0
1, 70212, Note_on_c, 0, 74, 74
1, 70212, Note_on_c, 0, 53, 44
1, 70220, Note_on_c, 0, 62, 39
1, 70228, Note_on_c, 0, 58, 29
1, 70236, Control_c, 0, 64, 127
1, 70272, Note_off_c, 0, 34, 64
1, 70272, Note_off_c, 0, 77, 64
1, 70284, Note_off_c, 0, 46, 64
1, 70288, Note_off_c, 0, 74, 64
1, 70308, Note_off_c, 0, 62, 64
1, 70316, Note_off_c, 0, 53, 64
1, 70320, Note_off_c, 0, 58, 64
1, 70428, Note_on_c, 0, 77, 83
1, 70480, Note_on_c, 0, 79, 71
1, 70492, Note_off_c, 0, 77, 64
1, 70524, Note_on_c, 0, 77, 83
1, 70540, Note_on_c, 0, 74, 70
1, 70540, Note_on_c, 0, 58, 67
1, 70548, Note_on_c, 0, 62, 50
1, 70548, Note_on_c, 0, 53, 66
1, 70572, Note_off_c, 0, 79, 64
1, 70588, Note_off_c, 0, 77, 64
1, 70608, Note_off_c, 0, 62, 64
1, 70616, Note_off_c, 0, 58, 64
1, 70620, Note_off_c, 0, 74, 64
1, 70632, Note_off_c, 0, 53, 64
1, 70708, Note_on_c, 0, 76, 80
1, 70712, Note_on_c, 0, 73, 92
1, 70772, Note_off_c, 0, 73, 64
1, 70784, Note_off_c, 0, 76, 64
1, 70868, Note_on_c, 0, 77, 75
1, 70876, Note_on_c, 0, 74, 78
1, 70884, Note_on_c, 0, 46, 67
1, 70912, Control_c, 0, 64, 0
1, 70940, Control_c, 0, 64, 127
1, 70960, Note_off_c, 0, 74, 64
1, 70964, Note_off_c, 0, 77, 64
1, 71012, Note_off_c, 0, 46, 64
1, 71136, Note_on_c, 0, 70, 67
1, 71184, Note_off_c, 0, 70, 64
1, 71212, Note_on_c, 0, 67, 89
1, 71220, Note_on_c, 0, 70, 88
1, 71220, Note_on_c, 0, 58, 63
1, 71220, Note_on_c, 0, 75, 89
1, 71220, Note_on_c, 0, 51, 67
1, 71248, Control_c, 0, 64, 0
1, 71292, Control_c, 0, 64, 127
1, 71316, Note_off_c, 0, 51, 64
1, 71348, Note_off_c, 0, 58, 64
1, 71392, Note_off_c, 0, 70, 64
1, 71500, Note_off_c, 0, 75, 64
1, 71556, Note_off_c, 0, 67, 64
1, 71580, Note_on_c, 0, 74, 85
1, 71584, Note_on_c, 0, 46, 74
1, 71592, Note_on_c, 0, 58, 67
1, 71596, Note_on_c, 0, 65, 80
1, 71604, Note_on_c, 0, 70, 57
1, 71612, Control_c, 0, 64, 0
1, 71636, Note_off_c, 0, 70, 64
1, 71660, Note_off_c, 0, 58, 64
1, 71664, Control_c, 0, 64, 127
1, 71688, Note_off_c, 0, 46, 64
1, 71736, Note_off_c, 0, 65, 64
1, 71836, Note_off_c, 0, 74, 64
1, 71956, Note_on_c, 0, 63, 80
1, 71960, Note_on_c, 0, 72, 80
1, 71960, Note_on_c, 0, 70, 80
1, 71976, Note_on_c, 0, 29, 72
1, 71980, Note_on_c, 0, 41, 62
1, 72004, Control_c, 0, 64, 0
1, 72064, Control_c, 0, 64, 127
1, 72180, Note_off_c, 0, 70, 64
1, 72328, Note_off_c, 0, 63, 64
1, 72356, Note_on_c, 0, 69, 76
1, 72356, Note_on_c, 0, 53, 71
1, 72360, Note_off_c, 0, 29, 64
1, 72360, Note_on_c, 0, 60, 68
1, 72364, Note_off_c, 0, 41, 64
1, 72484, Note_off_c, 0, 72, 64
1, 72524, Note_on_c, 0, 75, 70
1, 72524, Note_on_c, 0, 67, 59
1, 72556, Note_off_c, 0, 69, 64
1, 72600, Note_off_c, 0, 67, 64
1, 72612, Note_off_c, 0, 75, 64
1, 72684, Note_on_c, 0, 74, 78
1, 72692, Note_on_c, 0, 65, 80
1, 72728, Note_off_c, 0, 60, 64
1, 72764, Note_off_c, 0, 53, 64
1, 72764, Note_off_c, 0, 65, 64
1, 72792, Note_off_c, 0, 74, 64
1, 72836, Note_on_c, 0, 72, 67
1, 72852, Note_on_c, 0, 63, 83
1, 72924, Note_off_c, 0, 63, 64
1, 72936, Note_off_c, 0, 72, 64
1, 73004, Note_on_c, 0, 74, 74
1, 73020, Note_on_c, 0, 65, 88
1, 73020, Note_on_c, 0, 46, 66
1, 73036, Note_on_c, 0, 58, 49
1, 73040, Control_c, 0, 64, 0
1, 73088, Control_c, 0, 64, 127
1, 73108, Note_off_c, 0, 65, 64
1, 73124, Note_off_c, 0, 58, 64
1, 73140, Note_off_c, 0, 74, 64
1, 73140, Note_off_c, 0, 46, 64
1, 73272, Note_on_c, 0, 65, 81
1, 73332, Note_off_c, 0, 65, 64
1, 73348, Control_c, 0, 64, 0
1, 73360, Note_on_c, 0, 65, 72
1, 73360, Note_on_c, 0, 70, 89
1, 73360, Note_on_c, 0, 62, 85
1, 73372, Note_on_c, 0, 46, 70
1, 73372, Note_on_c, 0, 58, 80
1, 73376, Note_on_c, 0, 53, 72
1, 73408, Control_c, 0, 64, 127
1, 73648, Note_off_c, 0, 53, 64
1, 73680, Note_off_c, 0, 58, 64
1, 73696, Note_off_c, 0, 62, 64
1, 73700, Note_off_c, 0, 46, 64
1, 73708, Note_off_c, 0, 65, 64
1, 73712, Note_on_c, 0, 74, 85
1, 73716, Note_on_c, 0, 65, 83
1, 73716, Note_on_c, 0, 62, 81
1, 73716, Note_on_c, 0, 58, 71
1, 73716, Note_on_c, 0, 53, 66
1, 73724, Note_on_c, 0, 46, 79
1, 73764, Note_off_c, 0, 70, 64
1, 73956, Note_off_c, 0, 46, 64
1, 74020, Note_off_c, 0, 53, 64
1, 74024, Note_off_c, 0, 58, 64
1, 74044, Note_off_c, 0, 65, 64
1, 74084, Note_off_c, 0, 62, 64
1, 74108, Note_on_c, 0, 60, 96
1, 74112, Control_c, 0, 64, 0
1, 74120, Note_off_c, 0, 74, 64
1, 74124, Note_on_c, 0, 48, 97
1, 74124, Note_on_c, 0, 36, 97
1, 74196, Control_c, 0, 64, 127
1, 74492, Note_off_c, 0, 60, 64
1, 74620, Note_on_c, 0, 82, 101
1, 74620, Note_on_c, 0, 70, 76
1, 74628, Note_on_c, 0, 67, 66
1, 74628, Note_on_c, 0, 60, 75
1, 74632, Note_on_c, 0, 76, 80
1, 74680, Control_c, 0, 64, 0
1, 74740, Control_c, 0, 64, 127
1, 74868, Note_off_c, 0, 82, 64
1, 74900, Note_off_c, 0, 76, 64
1, 74956, Note_off_c, 0, 70, 64
1, 74980, Note_off_c, 0, 60, 64
1, 74988, Note_off_c, 0, 67, 64
1, 75140, Note_on_c, 0, 70, 74
1, 75140, Note_on_c, 0, 81, 92
1, 75140, Note_on_c, 0, 76, 76
1, 75148, Note_on_c, 0, 60, 71
1, 75156, Note_on_c, 0, 67, 55
1, 75216, Note_off_c, 0, 70, 64
1, 75224, Note_off_c, 0, 76, 64
1, 75236, Note_off_c, 0, 60, 64
1, 75244, Note_off_c, 0, 67, 64
1, 75276, Note_off_c, 0, 81, 64
1, 75308, Note_on_c, 0, 78, 74
1, 75308, Note_on_c, 0, 70, 84
1, 75308, Note_on_c, 0, 67, 66
1, 75308, Note_on_c, 0, 60, 75
1, 75324, Control_c, 0, 64, 0
1, 75332, Note_on_c, 0, 76, 66
1, 75344, Control_c, 0, 64, 127
1, 75388, Note_off_c, 0, 76, 64
1, 75404, Note_off_c, 0, 78, 64
1, 75404, Note_off_c, 0, 67, 64
1, 75412, Note_off_c, 0, 60, 64
1, 75416, Note_off_c, 0, 70, 64
1, 75544, Note_on_c, 0, 70, 75
1, 75548, Note_on_c, 0, 76, 72
1, 75560, Note_on_c, 0, 60, 72
1, 75564, Note_on_c, 0, 79, 80
1, 75564, Note_on_c, 0, 67, 67
1, 75588, Note_off_c, 0, 70, 64
1, 75596, Note_off_c, 0, 76, 64
1, 75596, Note_off_c, 0, 79, 64
1, 75616, Note_off_c, 0, 60, 64
1, 75628, Note_on_c, 0, 76, 80
1, 75628, Note_on_c, 0, 70, 84
1, 75636, Note_on_c, 0, 81, 85
1, 75636, Note_on_c, 0, 60, 83
1, 75708, Note_off_c, 0, 67, 64
1, 75716, Note_off_c, 0, 76, 64
1, 75716, Note_off_c, 0, 70, 64
1, 75720, Note_off_c, 0, 60, 64
1, 75956, Note_off_c, 0, 81, 64
1, 75972, Note_on_c, 0, 70, 83
1, 75972, Note_on_c, 0, 79, 97
1, 75980, Note_on_c, 0, 76, 78
1, 75984, Note_on_c, 0, 60, 76
1, 75984, Control_c, 0, 64, 0
1, 75996, Note_on_c, 0, 67, 76
1, 76008, Control_c, 0, 64, 127
1, 76028, Note_off_c, 0, 67, 64
1, 76032, Note_off_c, 0, 60, 64
1, 76040, Note_off_c, 0, 79, 64
1, 76044, Note_off_c, 0, 76, 64
1, 76068, Note_off_c, 0, 36, 64
1, 76068, Note_off_c, 0, 48, 64
1, 76076, Note_off_c, 0, 70, 64
1, 76348, Note_on_c, 0, 60, 107
1, 76348, Note_on_c, 0, 48, 93
1, 76348, Note_on_c, 0, 36, 102
1, 76360, Control_c, 0, 64, 0
1, 76392, Control_c, 0, 64, 127
1, 76732, Note_off_c, 0, 60, 64
1, 76764, Note_on_c, 0, 70, 94
1, 76768, Note_on_c, 0, 81, 92
1, 76776, Note_on_c, 0, 76, 85
1, 76776, Note_on_c, 0, 67, 84
1, 76776, Note_on_c, 0, 60, 92
1, 76848, Control_c, 0, 64, 0
1, 76892, Control_c, 0, 64, 127
1, 76984, Note_off_c, 0, 81, 64
1, 77044, Note_off_c, 0, 76, 64
1, 77060, Note_off_c, 0, 70, 64
1, 77072, Note_off_c, 0, 60, 64
1, 77092, Note_off_c, 0, 67, 64
1, 77276, Note_on_c, 0, 79, 92
1, 77280, Note_on_c, 0, 70, 94
1, 77288, Note_on_c, 0, 76, 93
1, 77288, Note_on_c, 0, 67, 83
1, 77292, Note_on_c, 0, 60, 84
1, 77332, Note_off_c, 0, 36, 64
1, 77332, Note_off_c, 0, 48, 64
1, 77348, Note_off_c, 0, 79, 64
1, 77348, Note_off_c, 0, 76, 64
1, 77348, Note_off_c, 0, 67, 64
1, 77356, Note_off_c, 0, 70, 64
1, 77372, Note_off_c, 0, 60, 64
1, 77436, Note_on_c, 0, 69, 89
1, 77436, Note_on_c, 0, 60, 83
1, 77448, Note_on_c, 0, 65, 83
1, 77452, Note_on_c, 0, 77, 97
1, 77452, Note_on_c, 0, 53, 89
1, 77460, Control_c, 0, 64, 0
1, 77508, Control_c, 0, 64, 127
1, 77544, Note_off_c, 0, 60, 64
1, 77576, Note_off_c, 0, 53, 64
1, 77580, Note_off_c, 0, 65, 64
1, 77596, Note_off_c, 0, 69, 64
1, 77612, Note_off_c, 0, 77, 64
1, 77676, Note_on_c, 0, 65, 93
1, 77676, Note_on_c, 0, 53, 93
1, 77680, Note_on_c, 0, 70, 94
1, 77680, Note_on_c, 0, 62, 92
1, 77688, Note_on_c, 0, 74, 91
1, 77740, Note_off_c, 0, 65, 64
1, 77740, Note_off_c, 0, 53, 64
1, 77748, Control_c, 0, 64, 0
1, 77760, Note_off_c, 0, 62, 64
1, 77760, Note_on_c, 0, 60, 80
1, 77764, Note_off_c, 0, 70, 64
1, 77764, Note_on_c, 0, 69, 97
1, 77768, Note_on_c, 0, 72, 101
1, 77768, Note_on_c, 0, 65, 85
1, 77768, Note_on_c, 0, 53, 93
1, 77796, Note_off_c, 0, 74, 64
1, 77824, Control_c, 0, 64, 127
1, 77892, Note_off_c, 0, 72, 64
1, 77904, Note_off_c, 0, 60, 64
1, 77904, Note_off_c, 0, 69, 64
1, 77916, Note_off_c, 0, 53, 64
1, 77976, Note_off_c, 0, 65, 64
1, 78092, Note_on_c, 0, 77, 94
1, 78100, Note_on_c, 0, 69, 97
1, 78100, Note_on_c, 0, 60, 75
1, 78108, Note_on_c, 0, 65, 80
1, 78112, Note_on_c, 0, 53, 87
1, 78248, Note_off_c, 0, 77, 64
1, 78264, Note_off_c, 0, 65, 64
1, 78284, Note_off_c, 0, 60, 64
1, 78300, Tempo, 500000
1, 78300, Note_off_c, 0, 69, 64
1, 78324, Note_off_c, 0, 53, 64
1, 78440, Note_on_c, 0, 60, 110
1, 78444, Note_on_c, 0, 36, 94
1, 78452, Note_on_c, 0, 48, 94
1, 78460, Control_c, 0, 64, 0
1, 78492, Control_c, 0, 64, 127
1, 78824, Note_off_c, 0, 60, 64
1, 78840, Note_on_c, 0, 82, 115
1, 78840, Note_on_c, 0, 70, 96
1, 78848, Note_on_c, 0, 76, 94
1, 78848, Note_on_c, 0, 67, 85
1, 78856, Note_on_c, 0, 60, 76
1, 78904, Control_c, 0, 64, 0
1, 78968, Control_c, 0, 64, 127
1, 79100, Note_off_c, 0, 82, 64
1, 79132, Note_off_c, 0, 70, 64
1, 79132, Note_off_c, 0, 76, 64
1, 79188, Note_off_c, 0, 60, 64
1, 79204, Note_off_c, 0, 67, 64
1, 79340, Note_on_c, 0, 70, 66
1, 79348, Note_on_c, 0, 81, 84
1, 79348, Note_on_c, 0, 60, 71
1, 79356, Note_on_c, 0, 76, 70
1, 79356, Note_on_c, 0, 67, 65
1, 79416, Note_off_c, 0, 70, 64
1, 79420, Note_off_c, 0, 60, 64
1, 79424, Note_off_c, 0, 67, 64
1, 79428, Note_off_c, 0, 76, 64
1, 79456, Note_off_c, 0, 81, 64
1, 79492, Control_c, 0, 64, 0
1, 79500, Note_on_c, 0, 78, 83
1, 79508, Note_on_c, 0, 67, 71
1, 79508, Note_on_c, 0, 60, 71
1, 79516, Note_on_c, 0, 76, 78
1, 79516, Note_on_c, 0, 70, 85
1, 79528, Control_c, 0, 64, 127
1, 79588, Note_off_c, 0, 70, 64
1, 79612, Note_off_c, 0, 78, 64
1, 79612, Note_off_c, 0, 67, 64
1, 79620, Note_off_c, 0, 60, 64
1, 79624, Note_off_c, 0, 76, 64
1, 79724, Note_on_c, 0, 79, 93
1, 79728, Note_on_c, 0, 76, 75
1, 79728, Note_on_c, 0, 70, 72
1, 79736, Note_on_c, 0, 60, 76
1, 79740, Note_on_c, 0, 67, 78
1, 79768, Note_off_c, 0, 70, 64
1, 79780, Note_off_c, 0, 76, 64
1, 79788, Note_off_c, 0, 79, 64
1, 79788, Note_off_c, 0, 67, 64
1, 79796, Note_off_c, 0, 60, 64
1, 79804, Note_on_c, 0, 81, 94
1, 79804, Note_on_c, 0, 70, 81
1, 79812, Note_on_c, 0, 76, 80
1, 79824, Control_c, 0, 64, 0
1, 79832, Note_on_c, 0, 60, 76
1, 79832, Note_on_c, 0, 67, 75
1, 79848, Control_c, 0, 64, 127
1, 79896, Note_off_c, 0, 70, 64
1, 79900, Note_off_c, 0, 67, 64
1, 79900, Note_off_c, 0, 76, 64
1, 79908, Note_off_c, 0, 60, 64
1, 80092, Note_off_c, 0, 81, 64
1, 80120, Control_c, 0, 64, 0
1, 80128, Note_on_c, 0, 76, 78
1, 80132, Note_on_c, 0, 70, 84
1, 80136, Note_on_c, 0, 60, 75
1, 80144, Note_on_c, 0, 67, 66
1, 80148, Note_on_c, 0, 79, 85
1, 80168, Control_c, 0, 64, 127
1, 80180, Note_off_c, 0, 70, 64
1, 80188, Note_off_c, 0, 79, 64
1, 80192, Note_off_c, 0, 76, 64
1, 80196, Note_off_c, 0, 60, 64
1, 80216, Note_off_c, 0, 67, 64
1, 80388, Note_off_c, 0, 36, 64
1, 80396, Note_off_c, 0, 48, 64
1, 80464, Note_on_c, 0, 84, 80
1, 80464, Note_on_c, 0, 75, 75
1, 80464, Note_on_c, 0, 69, 72
1, 80476, Note_on_c, 0, 65, 75
1, 80492, Control_c, 0, 64, 0
1, 80512, Control_c, 0, 64, 127
1, 80548, Note_off_c, 0, 84, 64
1, 80556, Note_off_c, 0, 69, 64
1, 80560, Note_off_c, 0, 65, 64
1, 80576, Note_off_c, 0, 75, 64
1, 80688, Note_on_c, 0, 68, 71
1, 80688, Note_on_c, 0, 58, 66
1, 80700, Note_on_c, 0, 74, 76
1, 80700, Note_on_c, 0, 77, 78
1, 80760, Note_off_c, 0, 58, 64
1, 80764, Note_off_c, 0, 77, 64
1, 80780, Note_on_c, 0, 82, 85
1, 80788, Note_off_c, 0, 68, 64
1, 80788, Control_c, 0, 64, 0
1, 80800, Note_on_c, 0, 73, 84
1, 80800, Note_on_c, 0, 63, 65
1, 80800, Note_on_c, 0, 67, 76
1, 80812, Note_off_c, 0, 74, 64
1, 80832, Control_c, 0, 64, 127
1, 80896, Note_off_c, 0, 67, 64
1, 80908, Note_off_c, 0, 63, 64
1, 80920, Note_off_c, 0, 82, 64
1, 80968, Note_off_c, 0, 73, 64
1, 81112, Note_on_c, 0, 75, 78
1, 81116, Note_on_c, 0, 72, 74
1, 81120, Note_on_c, 0, 56, 61
1, 81128, Note_on_c, 0, 66, 46
1, 81128, Control_c, 0, 64, 0
1, 81204, Control_c, 0, 64, 127
1, 81256, Note_off_c, 0, 75, 64
1, 81260, Note_off_c, 0, 56, 64
1, 81268, Note_off_c, 0, 72, 64
1, 81268, Note_off_c, 0, 66, 64
1, 81448, Control_c, 0, 64, 0
1, 81456, Note_on_c, 0, 80, 74
1, 81456, Note_on_c, 0, 72, 72
1, 81456, Note_on_c, 0, 62, 59
1, 81468, Note_on_c, 0, 65, 57
1, 81508, Control_c, 0, 64, 127
1, 81544, Note_off_c, 0, 62, 64
1, 81556, Note_off_c, 0, 65, 64
1, 81560, Note_off_c, 0, 72, 64
1, 81568, Note_off_c, 0, 80, 64
1, 81692, Note_on_c, 0, 74, 66
1, 81692, Note_on_c, 0, 71, 63
1, 81704, Note_on_c, 0, 65, 63
1, 81704, Note_on_c, 0, 55, 63
1, 81764, Note_off_c, 0, 74, 64
1, 81764, Note_off_c, 0, 71, 64
1, 81780, Note_off_c, 0, 65, 64
1, 81780, Note_off_c, 0, 55, 64
1, 81780, Note_on_c, 0, 70, 78
1, 81784, Control_c, 0, 64, 0
1, 81788, Note_on_c, 0, 64, 49
1, 81792, Note_on_c, 0, 60, 63
1, 81796, Note_on_c, 0, 79, 62
1, 81832, Control_c, 0, 64, 127
1, 81884, Note_off_c, 0, 64, 64
1, 81908, Note_off_c, 0, 60, 64
1, 82012, Note_off_c, 0, 79, 64
1, 82032, Note_off_c, 0, 70, 64
1, 82128, Note_on_c, 0, 72, 68
1, 82132, Note_on_c, 0, 69, 67
1, 82140, Note_on_c, 0, 63, 55
1, 82144, Note_on_c, 0, 53, 62
1, 82156, Control_c, 0, 64, 0
1, 82188, Control_c, 0, 64, 127
1, 82240, Note_off_c, 0, 53, 64
1, 82244, Note_off_c, 0, 69, 64
1, 82248, Note_off_c, 0, 72, 64
1, 82252, Note_off_c, 0, 63, 64
1, 82536, Note_on_c, 0, 68, 61
1, 82540, Note_on_c, 0, 77, 88
1, 82544, Note_on_c, 0, 46, 70
1, 82544, Note_on_c, 0, 74, 83
1, 82552, Note_on_c, 0, 34, 74
1, 82572, Control_c, 0, 64, 0
1, 82640, Control_c, 0, 64, 127
1, 82740, Note_off_c, 0, 68, 64
1, 82848, Note_off_c, 0, 74, 64
1, 82880, Note_on_c, 0, 68, 66
1, 82888, Note_on_c, 0, 65, 3
1, 82900, Note_on_c, 0, 58, 41
1, 82928, Note_off_c, 0, 46, 64
1, 82936, Note_off_c, 0, 34, 64
1, 82984, Note_off_c, 0, 58, 64
1, 82984, Note_off_c, 0, 65, 64
1, 82984, Note_off_c, 0, 68, 64
1, 83048, Note_on_c, 0, 79, 79
1, 83068, Note_off_c, 0, 77, 64
1, 83132, Note_off_c, 0, 79, 64
1, 83176, Note_on_c, 0, 77, 41
1, 83212, Note_on_c, 0, 79, 81
1, 83220, Note_off_c, 0, 77, 64
1, 83272, Note_on_c, 0, 58, 57
1, 83276, Note_on_c, 0, 68, 72
1, 83276, Note_on_c, 0, 74, 70
1, 83276, Note_on_c, 0, 65, 42
1, 83276, Control_c, 0, 64, 0
1, 83288, Note_off_c, 0, 79, 64
1, 83288, Note_on_c, 0, 77, 75
1, 83304, Control_c, 0, 64, 127
1, 83336, Note_off_c, 0, 74, 64
1, 83348, Note_off_c, 0, 65, 64
1, 83356, Note_off_c, 0, 77, 64
1, 83380, Note_off_c, 0, 58, 64
1, 83420, Note_off_c, 0, 68, 64
1, 83464, Note_on_c, 0, 73, 70
1, 83472, Note_on_c, 0, 76, 79
1, 83588, Note_off_c, 0, 76, 64
1, 83600, Note_off_c, 0, 73, 64
1, 83632, Note_on_c, 0, 74, 71
1, 83644, Note_on_c, 0, 77, 74
1, 83644, Note_on_c, 0, 68, 81
1, 83648, Note_on_c, 0, 58, 80
1, 83656, Note_on_c, 0, 46, 80
1, 83676, Control_c, 0, 64, 0
1, 83708, Control_c, 0, 64, 127
1, 83772, Note_off_c, 0, 46, 64
1, 83780, Note_off_c, 0, 58, 64
1, 83820, Note_off_c, 0, 68, 64
1, 83836, Note_off_c, 0, 77, 64
1, 83844, Note_off_c, 0, 74, 64
1, 83880, Note_on_c, 0, 70, 88
1, 83928, Note_off_c, 0, 70, 64
1, 83968, Note_on_c, 0, 70, 89
1, 83972, Note_on_c, 0, 66, 92
1, 83980, Note_on_c, 0, 75, 85
1, 83984, Note_on_c, 0, 58, 66
1, 83988, Note_on_c, 0, 51, 71
1, 84012, Control_c, 0, 64, 0
1, 84080, Control_c, 0, 64, 127
1, 84116, Note_off_c, 0, 51, 64
1, 84136, Note_off_c, 0, 58, 64
1, 84140, Note_off_c, 0, 75, 64
1, 84148, Note_off_c, 0, 70, 64
1, 84192, Note_off_c, 0, 66, 64
1, 84320, Note_on_c, 0, 70, 75
1, 84324, Note_on_c, 0, 65, 75
1, 84332, Note_on_c, 0, 74, 83
1, 84332, Note_on_c, 0, 58, 70
1, 84332, Note_on_c, 0, 53, 70
1, 84352, Control_c, 0, 64, 0
1, 84412, Control_c, 0, 64, 127
1, 84420, Note_off_c, 0, 65, 64
1, 84460, Note_off_c, 0, 53, 64
1, 84472, Note_off_c, 0, 58, 64
1, 84476, Tempo, 500000
1, 84476, Note_off_c, 0, 70, 64
1, 84504, Note_off_c, 0, 74, 64
1, 84668, Note_on_c, 0, 63, 80
1, 84672, Note_on_c, 0, 70, 78
1, 84680, Note_on_c, 0, 72, 80
1, 84684, Note_on_c, 0, 58, 68
1, 84684, Note_on_c, 0, 54, 74
1, 84696, Control_c, 0, 64, 0
1, 84776, Control_c, 0, 64, 127
1, 84836, Note_off_c, 0, 63, 64
1, 85008, Control_c, 0, 64, 0
1, 85020, Note_on_c, 0, 66, 88
1, 85020, Note_on_c, 0, 51, 65
1, 85052, Note_off_c, 0, 54, 64
1, 85052, Control_c, 0, 64, 127
1, 85080, Note_off_c, 0, 70, 64
1, 85180, Note_off_c, 0, 72, 64
1, 85180, Note_on_c, 0, 75, 74
1, 85260, Note_off_c, 0, 66, 64
1, 85272, Note_off_c, 0, 75, 64
1, 85296, Note_off_c, 0, 51, 64
1, 85316, Note_off_c, 0, 58, 64
1, 85344, Note_on_c, 0, 53, 74
1, 85356, Note_on_c, 0, 69, 78
1, 85356, Note_on_c, 0, 65, 74
1, 85360, Note_on_c, 0, 74, 80
1, 85372, Control_c, 0, 64, 0
1, 85392, Control_c, 0, 64, 127
1, 85424, Note_off_c, 0, 65, 64
1, 85436, Note_off_c, 0, 69, 64
1, 85460, Note_off_c, 0, 53, 64
1, 85468, Note_off_c, 0, 74, 64
1, 85512, Note_on_c, 0, 72, 74
1, 85516, Note_on_c, 0, 63, 92
1, 85588, Note_off_c, 0, 63, 64
1, 85592, Note_off_c, 0, 72, 64
1, 85672, Note_on_c, 0, 74, 83
1, 85676, Note_on_c, 0, 65, 92
1, 85688, Note_on_c, 0, 46, 68
1, 85692, Note_on_c, 0, 34, 71
1, 85708, Control_c, 0, 64, 0
1, 85748, Control_c, 0, 64, 127
1, 85760, Note_off_c, 0, 65, 64
1, 85820, Note_off_c, 0, 74, 64
1, 85896, Note_off_c, 0, 46, 64
1, 85952, Note_on_c, 0, 65, 81
1, 85984, Control_c, 0, 64, 0
1, 86024, Note_off_c, 0, 65, 64
1, 86036, Note_on_c, 0, 70, 85
1, 86036, Note_on_c, 0, 65, 81
1, 86036, Note_on_c, 0, 62, 81
1, 86044, Note_on_c, 0, 58, 53
1, 86048, Note_on_c, 0, 53, 46
1, 86048, Control_c, 0, 64, 127
1, 86056, Note_on_c, 0, 46, 46
1, 86132, Note_off_c, 0, 34, 64
1, 86168, Note_off_c, 0, 62, 64
1, 86196, Note_off_c, 0, 65, 64
1, 86204, Note_off_c, 0, 58, 64
1, 86212, Note_off_c, 0, 53, 64
1, 86220, Note_off_c, 0, 46, 64
1, 86228, Note_off_c, 0, 70, 64
1, 86340, Control_c, 0, 64, 0
1, 86380, Note_on_c, 0, 74, 83
1, 86380, Note_on_c, 0, 65, 81
1, 86380, Note_on_c, 0, 62, 81
1, 86380, Control_c, 0, 64, 127
1, 86388, Note_on_c, 0, 58, 33
1, 86388, Note_on_c, 0, 53, 36
1, 86388, Note_on_c, 0, 46, 37
1, 86532, Note_off_c, 0, 62, 64
1, 86552, Note_off_c, 0, 58, 64
1, 86552, Note_off_c, 0, 53, 64
1, 86552, Note_off_c, 0, 46, 64
1, 86564, Note_off_c, 0, 65, 64
1, 86584, Note_off_c, 0, 74, 64
1, 86600, Control_c, 0, 64, 127
1, 86764, Note_on_c, 0, 77, 75
1, 86780, Note_on_c, 0, 72, 75
1, 86780, Note_on_c, 0, 62, 74
1, 86792, Note_on_c, 0, 65, 58
1, 86792, Note_on_c, 0, 56, 59
1, 86808, Control_c, 0, 64, 0
1, 86896, Control_c, 0, 64, 127
1, 86932, Note_off_c, 0, 56, 64
1, 86940, Note_off_c, 0, 72, 64
1, 87000, Note_off_c, 0, 62, 64
1, 87000, Note_off_c, 0, 65, 64
1, 87120, Note_on_c, 0, 72, 76
1, 87128, Note_on_c, 0, 62, 63
1, 87132, Note_on_c, 0, 65, 58
1, 87140, Note_on_c, 0, 56, 48
1, 87156, Note_off_c, 0, 77, 64
1, 87212, Note_off_c, 0, 56, 64
1, 87216, Note_off_c, 0, 62, 64
1, 87220, Note_off_c, 0, 65, 64
1, 87228, Note_off_c, 0, 72, 64
1, 87280, Note_on_c, 0, 79, 78
1, 87356, Note_on_c, 0, 77, 63
1, 87356, Note_on_c, 0, 72, 58
1, 87380, Note_off_c, 0, 79, 64
1, 87388, Note_off_c, 0, 72, 64
1, 87404, Note_on_c, 0, 79, 57
1, 87416, Note_off_c, 0, 77, 64
1, 87468, Note_on_c, 0, 65, 67
1, 87472, Note_on_c, 0, 56, 57
1, 87476, Note_on_c, 0, 62, 66
1, 87484, Note_on_c, 0, 77, 83
1, 87484, Note_on_c, 0, 72, 72
1, 87492, Control_c, 0, 64, 0
1, 87504, Note_off_c, 0, 79, 64
1, 87524, Control_c, 0, 64, 127
1, 87560, Note_off_c, 0, 77, 64
1, 87580, Note_off_c, 0, 56, 64
1, 87584, Note_off_c, 0, 62, 64
1, 87596, Note_off_c, 0, 65, 64
1, 87652, Note_on_c, 0, 76, 83
1, 87708, Note_off_c, 0, 72, 64
1, 87716, Note_off_c, 0, 76, 64
1, 87812, Note_on_c, 0, 77, 81
1, 87812, Note_on_c, 0, 71, 70
1, 87820, Note_on_c, 0, 62, 70
1, 87824, Note_on_c, 0, 55, 58
1, 87848, Control_c, 0, 64, 0
1, 87880, Control_c, 0, 64, 127
1, 87888, Note_off_c, 0, 55, 64
1, 87908, Note_off_c, 0, 62, 64
1, 87920, Note_off_c, 0, 77, 64
1, 87924, Note_off_c, 0, 71, 64
1, 88032, Note_on_c, 0, 71, 83
1, 88032, Note_on_c, 0, 62, 70
1, 88044, Note_on_c, 0, 55, 70
1, 88076, Note_off_c, 0, 71, 64
1, 88116, Note_on_c, 0, 75, 85
1, 88116, Note_on_c, 0, 71, 81
1, 88124, Note_on_c, 0, 67, 70
1, 88144, Note_off_c, 0, 62, 64
1, 88144, Control_c, 0, 64, 0
1, 88188, Control_c, 0, 64, 127
1, 88260, Note_off_c, 0, 67, 64
1, 88268, Note_off_c, 0, 75, 64
1, 88272, Note_off_c, 0, 71, 64
1, 88308, Note_off_c, 0, 55, 64
1, 88460, Note_on_c, 0, 74, 80
1, 88468, Note_on_c, 0, 71, 78
1, 88468, Note_on_c, 0, 65, 68
1, 88480, Note_on_c, 0, 55, 66
1, 88488, Control_c, 0, 64, 0
1, 88536, Control_c, 0, 64, 127
1, 88544, Note_off_c, 0, 74, 64
1, 88564, Note_off_c, 0, 55, 64
1, 88636, Note_off_c, 0, 65, 64
1, 88700, Note_off_c, 0, 71, 64
1, 88828, Note_on_c, 0, 64, 70
1, 88832, Note_on_c, 0, 60, 55
1, 88840, Note_on_c, 0, 72, 78
1, 88840, Note_on_c, 0, 70, 74
1, 88916, Control_c, 0, 64, 0
1, 88956, Note_off_c, 0, 64, 64
1, 88960, Control_c, 0, 64, 127
1, 88972, Note_off_c, 0, 60, 64
1, 89192, Note_off_c, 0, 70, 64
1, 89192, Note_off_c, 0, 72, 64
1, 89220, Note_on_c, 0, 53, 58
1, 89228, Note_on_c, 0, 69, 70
1, 89252, Note_on_c, 0, 63, 48
1, 89256, Control_c, 0, 64, 0
1, 89304, Control_c, 0, 64, 127
1, 89348, Note_off_c, 0, 53, 64
1, 89388, Note_off_c, 0, 63, 64
1, 89388, Note_on_c, 0, 67, 61
1, 89392, Note_on_c, 0, 75, 78
1, 89492, Note_off_c, 0, 75, 64
1, 89544, Note_on_c, 0, 74, 66
1, 89548, Note_on_c, 0, 65, 48
1, 89564, Note_off_c, 0, 67, 64
1, 89696, Note_off_c, 0, 74, 64
1, 89700, Note_on_c, 0, 72, 74
1, 89700, Note_on_c, 0, 63, 74
1, 89708, Note_off_c, 0, 65, 64
1, 89748, Note_off_c, 0, 69, 64
1, 89748, Note_off_c, 0, 72, 64
1, 89764, Note_off_c, 0, 63, 64
1, 89852, Note_on_c, 0, 58, 85
1, 89852, Note_on_c, 0, 70, 92
1, 89860, Note_on_c, 0, 74, 88
1, 89864, Note_on_c, 0, 62, 74
1, 89940, Note_off_c, 0, 58, 64
1, 89944, Note_off_c, 0, 70, 64
1, 89976, Note_off_c, 0, 62, 64
1, 90024, Note_off_c, 0, 74, 64
1, 90084, Note_on_c, 0, 72, 67
1, 90088, Note_on_c, 0, 60, 72
1, 90092, Note_on_c, 0, 65, 74
1, 90092, Note_on_c, 0, 53, 88
1, 90136, Note_off_c, 0, 60, 64
1, 90136, Note_off_c, 0, 53, 64
1, 90152, Control_c, 0, 64, 0
1, 90156, Note_on_c, 0, 58, 81
1, 90160, Note_off_c, 0, 65, 64
1, 90172, Note_on_c, 0, 70, 88
1, 90172, Note_on_c, 0, 62, 83
1, 90172, Note_on_c, 0, 46, 102
1, 90180, Note_off_c, 0, 72, 64
1, 90196, Control_c, 0, 64, 127
1, 90420, Note_off_c, 0, 58, 64
1, 90460, Note_off_c, 0, 70, 64
1, 90460, Note_off_c, 0, 62, 64
1, 90460, Note_off_c, 0, 46, 64
1, 90520, Control_c, 0, 64, 0
1, 90524, Note_on_c, 0, 46, 110
1, 90524, Note_on_c, 0, 34, 74
1, 90528, Note_on_c, 0, 82, 96
1, 90528, Note_on_c, 0, 70, 110
1, 90540, Control_c, 0, 64, 127
1, 90880, Note_on_c, 0, 36, 71
1, 90892, Note_on_c, 0, 60, 75
1, 90900, Note_on_c, 0, 48, 98
1, 90908, Note_off_c, 0, 34, 64
1, 90908, Note_off_c, 0, 46, 64
1, 90912, Note_off_c, 0, 70, 64
1, 90912, Note_off_c, 0, 82, 64
1, 90960, Control_c, 0, 64, 0
1, 91036, Control_c, 0, 64, 127
1, 91240, Note_off_c, 0, 60, 64
1, 91304, Note_on_c, 0, 82, 72
1, 91308, Note_on_c, 0, 70, 58
1, 91316, Note_on_c, 0, 76, 58
1, 91316, Note_on_c, 0, 60, 52
1, 91324, Note_on_c, 0, 67, 49
1, 91360, Control_c, 0, 64, 0
1, 91404, Control_c, 0, 64, 127
1, 91564, Note_off_c, 0, 82, 64
1, 91620, Note_off_c, 0, 76, 64
1, 91636, Note_off_c, 0, 70, 64
1, 91680, Note_off_c, 0, 67, 64
1, 91700, Note_off_c, 0, 60, 64
1, 91796, Note_on_c, 0, 81, 66
1, 91796, Note_on_c, 0, 70, 50
1, 91808, Note_on_c, 0, 76, 52
1, 91808, Note_on_c, 0, 60, 49
1, 91816, Note_on_c, 0, 67, 50
1, 91860, Note_off_c, 0, 70, 64
1, 91868, Note_off_c, 0, 60, 64
1, 91876, Note_off_c, 0, 76, 64
1, 91880, Note_off_c, 0, 67, 64
1, 91908, Note_off_c, 0, 81, 64
1, 91940, Note_on_c, 0, 78, 52
1, 91948, Note_on_c, 0, 70, 59
1, 91952, Note_on_c, 0, 76, 49
1, 91952, Note_on_c, 0, 67, 50
1, 91952, Note_on_c, 0, 60, 52
1, 92008, Note_off_c, 0, 76, 64
1, 92032, Note_off_c, 0, 70, 64
1, 92040, Note_off_c, 0, 78, 64
1, 92040, Note_off_c, 0, 60, 64
1, 92048, Note_off_c, 0, 67, 64
1, 92144, Note_on_c, 0, 70, 57
1, 92152, Note_on_c, 0, 79, 61
1, 92152, Note_on_c, 0, 76, 49
1, 92164, Note_on_c, 0, 67, 50
1, 92164, Note_on_c, 0, 60, 58
1, 92188, Note_off_c, 0, 70, 64
1, 92204, Note_off_c, 0, 76, 64
1, 92204, Note_off_c, 0, 79, 64
1, 92204, Note_off_c, 0, 60, 64
1, 92220, Control_c, 0, 64, 0
1, 92228, Note_on_c, 0, 81, 66
1, 92236, Note_on_c, 0, 60, 54
1, 92240, Note_on_c, 0, 76, 46
1, 92240, Note_on_c, 0, 70, 59
1, 92268, Control_c, 0, 64, 127
1, 92320, Note_off_c, 0, 76, 64
1, 92324, Note_off_c, 0, 67, 64
1, 92332, Note_off_c, 0, 70, 64
1, 92340, Note_off_c, 0, 60, 64
1, 92500, Note_off_c, 0, 81, 64
1, 92564, Note_on_c, 0, 79, 66
1, 92564, Note_on_c, 0, 70, 59
1, 92572, Note_on_c, 0, 60, 54
1, 92576, Note_on_c, 0, 67, 45
1, 92608, Note_off_c, 0, 67, 64
1, 92612, Note_off_c, 0, 79, 64
1, 92628, Note_off_c, 0, 70, 64
1, 92628, Note_off_c, 0, 60, 64
1, 92824, Note_off_c, 0, 36, 64
1, 92844, Note_off_c, 0, 48, 64
1, 92892, Note_on_c, 0, 60, 76
1, 92900, Note_on_c, 0, 36, 70
1, 92904, Note_on_c, 0, 48, 72
1, 92912, Control_c, 0, 64, 0
1, 92944, Control_c, 0, 64, 127
1, 93268, Note_on_c, 0, 81, 63
1, 93268, Note_on_c, 0, 70, 66
1, 93276, Note_off_c, 0, 60, 64
1, 93280, Note_on_c, 0, 76, 52
1, 93280, Note_on_c, 0, 67, 63
1, 93284, Note_on_c, 0, 60, 55
1, 93316, Control_c, 0, 64, 0
1, 93364, Control_c, 0, 64, 127
1, 93456, Note_off_c, 0, 81, 64
1, 93492, Note_off_c, 0, 76, 64
1, 93500, Note_off_c, 0, 70, 64
1, 93500, Note_off_c, 0, 60, 64
1, 93532, Note_off_c, 0, 67, 64
1, 93728, Note_on_c, 0, 79, 62
1, 93736, Note_on_c, 0, 70, 59
1, 93744, Note_on_c, 0, 67, 55
1, 93748, Note_on_c, 0, 60, 58
1, 93800, Note_off_c, 0, 70, 64
1, 93804, Note_off_c, 0, 79, 64
1, 93812, Note_off_c, 0, 67, 64
1, 93832, Note_off_c, 0, 60, 64
1, 93884, Note_off_c, 0, 36, 64
1, 93884, Note_on_c, 0, 69, 59
1, 93884, Note_on_c, 0, 60, 57
1, 93884, Note_on_c, 0, 65, 57
1, 93884, Control_c, 0, 64, 0
1, 93888, Note_off_c, 0, 48, 64
1, 93900, Note_on_c, 0, 77, 65
1, 93900, Note_on_c, 0, 53, 65
1, 93932, Control_c, 0, 64, 127
1, 93968, Note_off_c, 0, 60, 64
1, 93984, Note_off_c, 0, 65, 64
1, 93992, Note_off_c, 0, 53, 64
1, 94004, Note_off_c, 0, 77, 64
1, 94012, Note_off_c, 0, 69, 64
1, 94112, Note_on_c, 0, 62, 58
1, 94116, Note_on_c, 0, 74, 63
1, 94116, Note_on_c, 0, 70, 67
1, 94124, Note_on_c, 0, 65, 50
1, 94172, Note_off_c, 0, 62, 64
1, 94172, Note_off_c, 0, 70, 64
1, 94188, Note_on_c, 0, 69, 70
1, 94196, Note_on_c, 0, 72, 71
1, 94196, Note_on_c, 0, 60, 66
1, 94204, Control_c, 0, 64, 0
1, 94220, Note_off_c, 0, 74, 64
1, 94268, Control_c, 0, 64, 127
1, 94284, Note_off_c, 0, 65, 64
1, 94304, Note_off_c, 0, 69, 64
1, 94328, Note_off_c, 0, 72, 64
1, 94332, Note_off_c, 0, 60, 64
1, 94524, Control_c, 0, 64, 0
1, 94528, Note_on_c, 0, 77, 67
1, 94532, Note_on_c, 0, 69, 63
1, 94532, Note_on_c, 0, 65, 62
1, 94544, Note_on_c, 0, 60, 61
1, 94544, Note_on_c, 0, 53, 63
1, 94560, Control_c, 0, 64, 127
1, 94580, Note_off_c, 0, 65, 64
1, 94584, Note_off_c, 0, 60, 64
1, 94596, Note_off_c, 0, 77, 64
1, 94596, Note_off_c, 0, 53, 64
1, 94624, Note_off_c, 0, 69, 64
1, 94880, Note_on_c, 0, 60, 66
1, 94888, Control_c, 0, 64, 0
1, 94900, Note_on_c, 0, 48, 72
1, 94900, Note_on_c, 0, 36, 67
1, 94944, Control_c, 0, 64, 127
1, 95264, Note_off_c, 0, 60, 64
1, 95300, Note_on_c, 0, 70, 53
1, 95300, Note_on_c, 0, 82, 72
1, 95304, Note_on_c, 0, 67, 54
1, 95312, Note_on_c, 0, 76, 55
1, 95312, Note_on_c, 0, 60, 58
1, 95340, Control_c, 0, 64, 0
1, 95388, Control_c, 0, 64, 127
1, 95548, Note_off_c, 0, 82, 64
1, 95564, Note_off_c, 0, 76, 64
1, 95568, Note_off_c, 0, 70, 64
1, 95624, Note_off_c, 0, 60, 64
1, 95632, Note_off_c, 0, 67, 64
1, 95796, Note_on_c, 0, 81, 62
1, 95796, Note_on_c, 0, 70, 53
1, 95800, Note_on_c, 0, 76, 53
1, 95800, Note_on_c, 0, 60, 50
1, 95804, Note_on_c, 0, 67, 49
1, 95848, Note_off_c, 0, 70, 64
1, 95868, Note_off_c, 0, 76, 64
1, 95872, Note_off_c, 0, 60, 64
1, 95876, Note_off_c, 0, 67, 64
1, 95892, Note_off_c, 0, 81, 64
1, 95932, Note_on_c, 0, 78, 59
1, 95936, Note_on_c, 0, 60, 50
1, 95940, Note_on_c, 0, 70, 58
1, 95940, Note_on_c, 0, 67, 45
1, 95952, Control_c, 0, 64, 0
1, 95964, Note_on_c, 0, 76, 33
1, 95988, Note_off_c, 0, 76, 64
1, 96012, Control_c, 0, 64, 127
1, 96028, Note_off_c, 0, 70, 64
1, 96036, Note_off_c, 0, 78, 64
1, 96048, Note_off_c, 0, 67, 64
1, 96060, Note_off_c, 0, 60, 64
1, 96148, Note_on_c, 0, 76, 52
1, 96148, Note_on_c, 0, 70, 54
1, 96156, Note_on_c, 0, 79, 52
1, 96164, Note_on_c, 0, 67, 57
1, 96164, Note_on_c, 0, 60, 57
1, 96192, Note_off_c, 0, 70, 64
1, 96196, Note_off_c, 0, 76, 64
1, 96196, Note_off_c, 0, 79, 64
1, 96212, Control_c, 0, 64, 0
1, 96220, Note_off_c, 0, 67, 64
1, 96228, Note_on_c, 0, 81, 66
1, 96232, Note_on_c, 0, 70, 58
1, 96244, Note_on_c, 0, 76, 46
1, 96252, Note_on_c, 0, 67, 48
1, 96276, Control_c, 0, 64, 127
1, 96288, Note_off_c, 0, 76, 64
1, 96308, Note_off_c, 0, 70, 64
1, 96324, Note_off_c, 0, 67, 64
1, 96332, Note_off_c, 0, 60, 64
1, 96500, Note_off_c, 0, 81, 64
1, 96520, Control_c, 0, 64, 0
1, 96556, Note_on_c, 0, 70, 58
1, 96564, Note_on_c, 0, 60, 50
1, 96568, Note_on_c, 0, 79, 63
1, 96572, Note_on_c, 0, 67, 35
1, 96580, Control_c, 0, 64, 127
1, 96608, Note_off_c, 0, 70, 64
1, 96612, Note_off_c, 0, 79, 64
1, 96620, Note_off_c, 0, 60, 64
1, 96656, Note_off_c, 0, 67, 64
1, 96844, Note_off_c, 0, 36, 64
1, 96844, Note_off_c, 0, 48, 64
1, 96888, Note_on_c, 0, 69, 55
1, 96888, Note_on_c, 0, 65, 55
1, 96888, Note_on_c, 0, 84, 58
1, 96896, Note_on_c, 0, 75, 54
1, 96920, Control_c, 0, 64, 0
1, 96936, Control_c, 0, 64, 127
1, 96968, Note_off_c, 0, 75, 64
1, 96972, Note_off_c, 0, 84, 64
1, 96980, Note_off_c, 0, 69, 64
1, 96996, Note_off_c, 0, 65, 64
1, 97128, Note_on_c, 0, 77, 58
1, 97128, Note_on_c, 0, 58, 52
1, 97132, Note_on_c, 0, 74, 65
1, 97132, Note_on_c, 0, 68, 57
1, 97196, Note_on_c, 0, 82, 71
1, 97200, Note_on_c, 0, 73, 67
1, 97204, Control_c, 0, 64, 0
1, 97208, Note_off_c, 0, 58, 64
1, 97212, Note_off_c, 0, 77, 64
1, 97212, Note_on_c, 0, 67, 59
1, 97212, Note_on_c, 0, 63, 52
1, 97220, Note_off_c, 0, 74, 64
1, 97220, Note_off_c, 0, 68, 64
1, 97248, Control_c, 0, 64, 127
1, 97308, Note_off_c, 0, 82, 64
1, 97308, Note_off_c, 0, 67, 64
1, 97336, Note_off_c, 0, 63, 64
1, 97400, Note_off_c, 0, 73, 64
1, 97536, Note_on_c, 0, 75, 59
1, 97540, Note_on_c, 0, 72, 57
1, 97548, Note_on_c, 0, 56, 54
1, 97556, Note_on_c, 0, 66, 54
1, 97572, Control_c, 0, 64, 0
1, 97620, Control_c, 0, 64, 127
1, 97684, Note_off_c, 0, 66, 64
1, 97692, Note_off_c, 0, 56, 64
1, 97696, Note_off_c, 0, 75, 64
1, 97696, Note_off_c, 0, 72, 64
1, 97876, Note_on_c, 0, 62, 52
1, 97892, Note_on_c, 0, 80, 61
1, 97892, Note_on_c, 0, 72, 58
1, 97896, Note_on_c, 0, 65, 54
1, 97900, Control_c, 0, 64, 0
1, 97936, Control_c, 0, 64, 127
1, 97964, Note_off_c, 0, 62, 64
1, 97980, Note_off_c, 0, 65, 64
1, 97984, Note_off_c, 0, 72, 64
1, 98012, Note_off_c, 0, 80, 64
1, 98120, Note_on_c, 0, 65, 55
1, 98120, Note_on_c, 0, 55, 55
1, 98124, Note_on_c, 0, 74, 52
1, 98132, Note_on_c, 0, 71, 52
1, 98168, Note_off_c, 0, 71, 64
1, 98180, Note_off_c, 0, 55, 64
1, 98184, Note_off_c, 0, 74, 64
1, 98196, Note_on_c, 0, 79, 58
1, 98196, Note_on_c, 0, 64, 52
1, 98196, Note_on_c, 0, 60, 45
1, 98204, Note_on_c, 0, 70, 66
1, 98212, Control_c, 0, 64, 0
1, 98260, Note_off_c, 0, 65, 64
1, 98272, Control_c, 0, 64, 127
1, 98304, Note_off_c, 0, 64, 64
1, 98316, Note_off_c, 0, 60, 64
1, 98356, Note_off_c, 0, 79, 64
1, 98420, Note_off_c, 0, 70, 64
1, 98576, Note_on_c, 0, 72, 63
1, 98576, Note_on_c, 0, 63, 46
1, 98584, Note_on_c, 0, 69, 58
1, 98592, Note_on_c, 0, 53, 52
1, 98596, Control_c, 0, 64, 0
1, 98644, Control_c, 0, 64, 127
1, 98724, Note_off_c, 0, 63, 64
1, 98724, Note_off_c, 0, 53, 64
1, 98732, Note_off_c, 0, 72, 64
1, 98736, Note_off_c, 0, 69, 64
1, 98964, Note_on_c, 0, 68, 61
1, 98984, Note_on_c, 0, 77, 68
1, 98988, Note_on_c, 0, 46, 74
1, 98996, Note_on_c, 0, 74, 62
1, 98996, Note_on_c, 0, 58, 66
1, 99016, Control_c, 0, 64, 0
1, 99064, Control_c, 0, 64, 127
1, 99088, Note_off_c, 0, 46, 64
1, 99108, Note_off_c, 0, 58, 64
1, 99196, Note_off_c, 0, 74, 64
1, 99212, Note_off_c, 0, 68, 64
1, 99220, Note_off_c, 0, 77, 64
1, 99308, Note_on_c, 0, 65, 63
1, 99320, Note_on_c, 0, 58, 63
1, 99328, Note_on_c, 0, 68, 63
1, 99428, Note_off_c, 0, 65, 64
1, 99436, Note_off_c, 0, 58, 64
1, 99448, Note_off_c, 0, 68, 64
1, 99496, Note_on_c, 0, 79, 78
1, 99596, Note_off_c, 0, 79, 64
1, 99620, Note_on_c, 0, 77, 66
1, 99676, Note_on_c, 0, 79, 80
1, 99700, Note_off_c, 0, 77, 64
1, 99704, Note_on_c, 0, 58, 67
1, 99708, Control_c, 0, 64, 0
1, 99716, Note_on_c, 0, 65, 53
1, 99720, Note_on_c, 0, 77, 68
1, 99720, Note_on_c, 0, 68, 66
1, 99720, Note_on_c, 0, 74, 80
1, 99740, Control_c, 0, 64, 127
1, 99748, Note_off_c, 0, 79, 64
1, 99756, Note_off_c, 0, 74, 64
1, 99776, Note_off_c, 0, 65, 64
1, 99800, Note_off_c, 0, 58, 64
1, 99800, Note_off_c, 0, 77, 64
1, 99864, Note_off_c, 0, 68, 64
1, 99896, Note_on_c, 0, 76, 80
1, 99912, Note_on_c, 0, 73, 32
1, 99984, Note_off_c, 0, 73, 64
1, 99996, Note_off_c, 0, 76, 64
1, 100052, Note_on_c, 0, 77, 78
1, 100064, Note_on_c, 0, 74, 72
1, 100068, Note_on_c, 0, 68, 75
1, 100068, Note_on_c, 0, 58, 74
1, 100068, Note_on_c, 0, 46, 75
1, 100100, Control_c, 0, 64, 0
1, 100140, Control_c, 0, 64, 127
1, 100152, Note_off_c, 0, 74, 64
1, 100156, Note_off_c, 0, 46, 64
1, 100160, Note_off_c, 0, 77, 64
1, 100160, Note_off_c, 0, 58, 64
1, 100244, Note_off_c, 0, 68, 64
1, 100308, Note_on_c, 0, 70, 94
1, 100348, Note_off_c, 0, 70, 64
1, 100404, Note_on_c, 0, 75, 88
1, 100404, Note_on_c, 0, 70, 89
1, 100404, Note_on_c, 0, 66, 89
1, 100404, Note_on_c, 0, 58, 72
1, 100404, Note_on_c, 0, 51, 74
1, 100440, Control_c, 0, 64, 0
1, 100500, Control_c, 0, 64, 127
1, 100512, Note_off_c, 0, 51, 64
1, 100588, Note_off_c, 0, 70, 64
1, 100596, Note_off_c, 0, 75, 64
1, 100596, Note_off_c, 0, 58, 64
1, 100632, Note_off_c, 0, 66, 64
1, 100764, Note_on_c, 0, 74, 76
1, 100764, Note_on_c, 0, 53, 70
1, 100768, Note_on_c, 0, 70, 74
1, 100768, Note_on_c, 0, 65, 79
1, 100768, Note_on_c, 0, 58, 59
1, 100868, Control_c, 0, 64, 0
1, 100888, Note_off_c, 0, 65, 64
1, 100928, Control_c, 0, 64, 127
1, 100948, Note_off_c, 0, 58, 64
1, 100964, Note_off_c, 0, 70, 64
1, 101020, Note_off_c, 0, 53, 64
1, 101060, Note_off_c, 0, 74, 64
1, 101160, Note_on_c, 0, 72, 75
1, 101160, Note_on_c, 0, 70, 68
1, 101160, Note_on_c, 0, 58, 70
1, 101160, Note_on_c, 0, 54, 74
1, 101172, Note_on_c, 0, 63, 81
1, 101216, Control_c, 0, 64, 0
1, 101308, Control_c, 0, 64, 127
1, 101356, Note_off_c, 0, 63, 64
1, 101516, Control_c, 0, 64, 0
1, 101524, Note_on_c, 0, 66, 89
1, 101524, Note_on_c, 0, 51, 74
1, 101532, Note_off_c, 0, 54, 64
1, 101556, Note_off_c, 0, 70, 64
1, 101600, Control_c, 0, 64, 127
1, 101636, Note_off_c, 0, 72, 64
1, 101664, Note_on_c, 0, 75, 74
1, 101716, Note_off_c, 0, 58, 64
1, 101740, Note_off_c, 0, 66, 64
1, 101756, Note_off_c, 0, 75, 64
1, 101828, Note_off_c, 0, 51, 64
1, 101840, Note_on_c, 0, 65, 72
1, 101844, Note_on_c, 0, 74, 79
1, 101844, Note_on_c, 0, 69, 75
1, 101852, Note_on_c, 0, 53, 68
1, 101860, Control_c, 0, 64, 0
1, 101904, Control_c, 0, 64, 127
1, 101912, Note_off_c, 0, 65, 64
1, 101928, Note_off_c, 0, 69, 64
1, 101948, Note_off_c, 0, 74, 64
1, 102004, Note_off_c, 0, 53, 64
1, 102004, Note_on_c, 0, 63, 88
1, 102004, Note_on_c, 0, 72, 67
1, 102068, Note_off_c, 0, 72, 64
1, 102072, Note_off_c, 0, 63, 64
1, 102208, Note_on_c, 0, 65, 92
1, 102208, Note_on_c, 0, 46, 76
1, 102208, Note_on_c, 0, 34, 76
1, 102216, Note_on_c, 0, 74, 80
1, 102256, Control_c, 0, 64, 0
1, 102284, Note_off_c, 0, 65, 64
1, 102332, Control_c, 0, 64, 127
1, 102364, Note_off_c, 0, 74, 64
1, 102496, Note_on_c, 0, 65, 84
1, 102504, Note_off_c, 0, 46, 64
1, 102568, Note_off_c, 0, 65, 64
1, 102580, Control_c, 0, 64, 0
1, 102592, Note_off_c, 0, 34, 64
1, 102592, Note_on_c, 0, 70, 88
1, 102592, Note_on_c, 0, 58, 85
1, 102596, Note_on_c, 0, 65, 62
1, 102600, Note_on_c, 0, 62, 83
1, 102600, Note_on_c, 0, 53, 39
1, 102600, Note_on_c, 0, 46, 74
1, 102652, Control_c, 0, 64, 127
1, 102728, Note_off_c, 0, 65, 64
1, 102740, Note_off_c, 0, 53, 64
1, 102796, Note_off_c, 0, 58, 64
1, 102816, Tempo, 500000
1, 102816, Note_off_c, 0, 70, 64
1, 102816, Note_off_c, 0, 46, 64
1, 102860, Note_off_c, 0, 62, 64
1, 102964, Note_on_c, 0, 53, 65
1, 102972, Note_on_c, 0, 65, 75
1, 102976, Note_on_c, 0, 74, 80
1, 102976, Note_on_c, 0, 62, 81
1, 102976, Note_on_c, 0, 58, 58
1, 102976, Note_on_c, 0, 46, 58
1, 103072, Note_off_c, 0, 62, 64
1, 103104, Note_off_c, 0, 46, 64
1, 103112, Note_off_c, 0, 53, 64
1, 103140, Note_off_c, 0, 58, 64
1, 103148, Note_off_c, 0, 74, 64
1, 103168, Note_off_c, 0, 65, 64
1, 103348, Note_on_c, 0, 77, 80
1, 103356, Note_on_c, 0, 72, 83
1, 103356, Note_on_c, 0, 56, 80
1, 103360, Note_on_c, 0, 65, 78
1, 103360, Note_on_c, 0, 62, 80
1, 103440, Control_c, 0, 64, 0
1, 103476, Control_c, 0, 64, 0
1, 103552, Control_c, 0, 64, 127
1, 103660, Note_off_c, 0, 72, 64
1, 103660, Note_off_c, 0, 56, 64
1, 103668, Note_off_c, 0, 65, 64
1, 103668, Note_off_c, 0, 62, 64
1, 103700, Note_off_c, 0, 77, 64
1, 103764, Note_on_c, 0, 72, 62
1, 103776, Note_on_c, 0, 62, 67
1, 103780, Note_on_c, 0, 65, 52
1, 103796, Note_on_c, 0, 56, 57
1, 103836, Note_off_c, 0, 72, 64
1, 103844, Note_off_c, 0, 56, 64
1, 103852, Note_off_c, 0, 62, 64
1, 103860, Note_off_c, 0, 65, 64
1, 103932, Note_on_c, 0, 79, 70
1, 104008, Note_off_c, 0, 79, 64
1, 104028, Note_on_c, 0, 77, 80
1, 104076, Note_on_c, 0, 79, 85
1, 104092, Note_off_c, 0, 77, 64
1, 104116, Note_on_c, 0, 62, 48
1, 104116, Control_c, 0, 64, 0
1, 104128, Note_on_c, 0, 72, 70
1, 104128, Note_on_c, 0, 65, 45
1, 104132, Note_on_c, 0, 77, 80
1, 104132, Note_on_c, 0, 56, 39
1, 104152, Control_c, 0, 64, 127
1, 104168, Note_off_c, 0, 79, 64
1, 104196, Note_off_c, 0, 77, 64
1, 104208, Note_off_c, 0, 62, 64
1, 104224, Note_off_c, 0, 56, 64
1, 104240, Note_off_c, 0, 65, 64
1, 104276, Note_on_c, 0, 76, 78
1, 104312, Note_off_c, 0, 72, 64
1, 104332, Note_off_c, 0, 76, 64
1, 104432, Note_on_c, 0, 71, 75
1, 104436, Note_on_c, 0, 77, 83
1, 104444, Note_on_c, 0, 62, 74
1, 104452, Note_on_c, 0, 55, 63
1, 104460, Control_c, 0, 64, 0
1, 104508, Control_c, 0, 64, 127
1, 104516, Note_off_c, 0, 71, 64
1, 104524, Note_off_c, 0, 55, 64
1, 104536, Note_off_c, 0, 62, 64
1, 104548, Note_off_c, 0, 77, 64
1, 104668, Note_on_c, 0, 71, 81
1, 104672, Note_on_c, 0, 62, 78
1, 104684, Note_on_c, 0, 55, 74
1, 104708, Note_off_c, 0, 71, 64
1, 104708, Note_off_c, 0, 62, 64
1, 104724, Note_off_c, 0, 55, 64
1, 104748, Control_c, 0, 64, 0
1, 104756, Note_on_c, 0, 75, 92
1, 104756, Note_on_c, 0, 71, 85
1, 104768, Note_on_c, 0, 67, 72
1, 104776, Note_on_c, 0, 55, 74
1, 104804, Control_c, 0, 64, 127
1, 104924, Note_off_c, 0, 71, 64
1, 104940, Note_off_c, 0, 67, 64
1, 104992, Note_off_c, 0, 55, 64
1, 105036, Note_off_c, 0, 75, 64
1, 105088, Note_on_c, 0, 65, 70
1, 105092, Note_on_c, 0, 74, 83
1, 105092, Note_on_c, 0, 71, 81
1, 105100, Note_on_c, 0, 55, 66
1, 105116, Control_c, 0, 64, 0
1, 105148, Control_c, 0, 64, 127
1, 105260, Note_off_c, 0, 65, 64
1, 105304, Note_off_c, 0, 71, 64
1, 105312, Note_off_c, 0, 74, 64
1, 105332, Note_off_c, 0, 55, 64
1, 105480, Note_on_c, 0, 60, 61
1, 105484, Note_on_c, 0, 72, 75
1, 105484, Note_on_c, 0, 70, 74
1, 105484, Note_on_c, 0, 64, 70
1, 105528, Control_c, 0, 64, 0
1, 105592, Control_c, 0, 64, 127
1, 105644, Note_off_c, 0, 64, 64
1, 105652, Note_off_c, 0, 60, 64
1, 105836, Note_off_c, 0, 70, 64
1, 105844, Note_on_c, 0, 53, 70
1, 105852, Note_on_c, 0, 69, 68
1, 105852, Note_on_c, 0, 63, 67
1, 105868, Control_c, 0, 64, 0
1, 105932, Control_c, 0, 64, 127
1, 105964, Note_off_c, 0, 53, 64
1, 105988, Note_off_c, 0, 63, 64
1, 105992, Note_on_c, 0, 67, 70
1, 106000, Note_on_c, 0, 75, 76
1, 106032, Note_off_c, 0, 72, 64
1, 106104, Note_off_c, 0, 75, 64
1, 106148, Control_c, 0, 64, 0
1, 106156, Note_on_c, 0, 74, 67
1, 106168, Control_c, 0, 64, 127
1, 106180, Note_on_c, 0, 65, 61
1, 106220, Note_off_c, 0, 67, 64
1, 106296, Note_off_c, 0, 74, 64
1, 106312, Note_off_c, 0, 69, 64
1, 106316, Note_on_c, 0, 72, 75
1, 106320, Note_on_c, 0, 63, 67
1, 106328, Note_off_c, 0, 65, 64
1, 106472, Note_on_c, 0, 70, 89
1, 106472, Note_on_c, 0, 62, 74
1, 106476, Note_on_c, 0, 58, 80
1, 106480, Note_on_c, 0, 74, 83
1, 106500, Note_off_c, 0, 72, 64
1, 106504, Note_off_c, 0, 63, 64
1, 106612, Note_off_c, 0, 62, 64
1, 106612, Note_off_c, 0, 58, 64
1, 106632, Note_off_c, 0, 70, 64
1, 106664, Note_off_c, 0, 74, 64
1, 106720, Note_on_c, 0, 72, 88
1, 106720, Note_on_c, 0, 65, 61
1, 106728, Note_on_c, 0, 53, 88
1, 106732, Note_on_c, 0, 60, 83
1, 106756, Control_c, 0, 64, 0
1, 106796, Note_off_c, 0, 72, 64
1, 106796, Note_off_c, 0, 65, 64
1, 106804, Note_off_c, 0, 53, 64
1, 106804, Note_on_c, 0, 62, 72
1, 106804, Note_on_c, 0, 58, 102
1, 106812, Note_off_c, 0, 60, 64
1, 106812, Control_c, 0, 64, 127
1, 106816, Note_on_c, 0, 70, 88
1, 106816, Note_on_c, 0, 46, 80
1, 106884, Control_c, 0, 64, 0
1, 106940, Control_c, 0, 64, 127
1, 107020, Note_off_c, 0, 58, 64
1, 107060, Note_off_c, 0, 46, 64
1, 107080, Note_off_c, 0, 62, 64
1, 107104, Note_off_c, 0, 70, 64
1, 107108, Control_c, 0, 64, 0
1, 107128, Control_c, 0, 64, 0
1, 107148, Note_on_c, 0, 82, 101
1, 107156, Note_on_c, 0, 70, 110
1, 107156, Note_on_c, 0, 34, 107
1, 107168, Note_on_c, 0, 46, 92
1, 107704, Note_off_c, 0, 82, 64
1, 107712, Note_off_c, 0, 70, 64
1, 107716, Note_off_c, 0, 34, 64
1, 107724, Note_off_c, 0, 46, 64
1, 107724, End_track
2, 0, Start_track
2, 1, Copyright_t, "__________________________________________________________\012\012KUNSTDERFUGE.COM GREAT CLASSICAL MIDI COLLECTION\012__________________________________________________________\012\012KUNST-DER-FUGE CONTRIBUTOR's PROPERTY\012Copyright by Contributor & Kunst der Fuge, © 2006\012\012Contributors' list: http://kunstderfuge.com/thanks.htm\012Terms and conditions: http://kunstderfuge.com/notes.htm\012__________________________________________________________\012\012NO WEBSITE MAY PUBLISH THIS FILE WITHOUT PERMISSION\012NO COMMERCIAL USE ALLOWED, NOR BY SALES NOR by eBay!\012PLEASE REPORT ANY ABUSE TO INFO@ONCLASSICAL.COM\012__________________________________________________________\012\012Thousands of free classical MIDI files at kunstderfuge.com"
2, 1, End_track
0, 0, End_of_file
