0, 0, Header, 0, 2, 384
1, 0, Start_track
1, 0, Title_t, "Chopin's Mazurkas (played by © Ron Lubetsky)"
1, 0, Time_signature, 4, 2, 96, 8
1, 0, Sequencer_specific, 3, 0, 0, 65
1, 0, Tempo, 500000
1, 168, Note_on_c, 0, 35, 59
1, 172, Note_on_c, 0, 47, 49
1, 172, Note_on_c, 0, 54, 54
1, 176, Note_on_c, 0, 61, 59
1, 184, Note_on_c, 0, 64, 52
1, 200, Control_c, 0, 64, 127
1, 236, Note_off_c, 0, 35, 64
1, 240, Note_off_c, 0, 47, 64
1, 260, Note_on_c, 0, 59, 40
1, 264, Note_on_c, 0, 63, 51
1, 288, Note_off_c, 0, 64, 64
1, 304, Note_off_c, 0, 54, 64
1, 312, Note_off_c, 0, 61, 64
1, 320, Note_off_c, 0, 59, 64
1, 336, Note_off_c, 0, 63, 64
1, 384, Control_c, 0, 64, 0
1, 388, Note_on_c, 0, 63, 52
1, 392, Note_on_c, 0, 35, 56
1, 392, Note_on_c, 0, 59, 51
1, 392, Note_on_c, 0, 54, 48
1, 392, Note_on_c, 0, 47, 47
1, 440, Control_c, 0, 64, 127
1, 532, Note_off_c, 0, 35, 64
1, 544, Note_off_c, 0, 47, 64
1, 588, Note_off_c, 0, 63, 64
1, 588, Note_off_c, 0, 59, 64
1, 596, Note_off_c, 0, 54, 64
1, 816, Note_on_c, 0, 35, 52
1, 820, Note_on_c, 0, 61, 50
1, 820, Note_on_c, 0, 54, 48
1, 820, Note_on_c, 0, 64, 49
1, 824, Note_on_c, 0, 47, 55
1, 880, Note_off_c, 0, 35, 64
1, 896, Note_off_c, 0, 47, 64
1, 912, Note_on_c, 0, 63, 48
1, 912, Note_on_c, 0, 59, 48
1, 944, Note_off_c, 0, 54, 64
1, 948, Note_off_c, 0, 64, 64
1, 952, Note_off_c, 0, 61, 64
1, 968, Note_off_c, 0, 59, 64
1, 988, Note_off_c, 0, 63, 64
1, 1004, Note_on_c, 0, 47, 52
1, 1004, Note_on_c, 0, 35, 46
1, 1008, Note_on_c, 0, 54, 54
1, 1012, Note_on_c, 0, 63, 51
1, 1016, Note_on_c, 0, 59, 55
1, 1048, Control_c, 0, 64, 0
1, 1136, Control_c, 0, 64, 127
1, 1196, Note_off_c, 0, 47, 64
1, 1208, Note_off_c, 0, 35, 64
1, 1256, Note_off_c, 0, 59, 64
1, 1276, Note_off_c, 0, 63, 64
1, 1280, Note_off_c, 0, 54, 64
1, 1456, Note_on_c, 0, 61, 46
1, 1460, Note_on_c, 0, 64, 51
1, 1464, Note_on_c, 0, 47, 52
1, 1464, Note_on_c, 0, 54, 49
1, 1472, Note_on_c, 0, 35, 49
1, 1532, Note_on_c, 0, 63, 33
1, 1532, Note_on_c, 0, 59, 54
1, 1548, Note_off_c, 0, 47, 64
1, 1556, Note_off_c, 0, 35, 64
1, 1564, Note_off_c, 0, 64, 64
1, 1592, Note_off_c, 0, 54, 64
1, 1592, Note_off_c, 0, 61, 64
1, 1600, Note_off_c, 0, 59, 64
1, 1612, Note_off_c, 0, 63, 64
1, 1656, Control_c, 0, 64, 0
1, 1664, Note_on_c, 0, 63, 49
1, 1664, Note_on_c, 0, 54, 50
1, 1668, Note_on_c, 0, 59, 50
1, 1680, Note_on_c, 0, 47, 46
1, 1680, Note_on_c, 0, 35, 42
1, 1720, Control_c, 0, 64, 127
1, 1872, Note_off_c, 0, 35, 64
1, 1892, Note_off_c, 0, 59, 64
1, 1892, Note_off_c, 0, 47, 64
1, 1904, Note_off_c, 0, 63, 64
1, 1908, Note_off_c, 0, 54, 64
1, 2104, Control_c, 0, 64, 0
1, 2124, Note_on_c, 0, 61, 41
1, 2124, Note_on_c, 0, 35, 42
1, 2124, Note_on_c, 0, 47, 41
1, 2128, Note_on_c, 0, 64, 43
1, 2128, Note_on_c, 0, 54, 40
1, 2152, Control_c, 0, 64, 127
1, 2204, Note_on_c, 0, 63, 44
1, 2208, Note_on_c, 0, 59, 42
1, 2224, Note_off_c, 0, 35, 64
1, 2224, Note_off_c, 0, 47, 64
1, 2224, Note_off_c, 0, 64, 64
1, 2248, Note_off_c, 0, 54, 64
1, 2268, Note_off_c, 0, 61, 64
1, 2272, Note_off_c, 0, 59, 64
1, 2284, Note_off_c, 0, 63, 64
1, 2316, Note_on_c, 0, 35, 41
1, 2316, Note_on_c, 0, 54, 50
1, 2316, Note_on_c, 0, 59, 50
1, 2316, Note_on_c, 0, 63, 47
1, 2320, Note_on_c, 0, 47, 47
1, 2328, Control_c, 0, 64, 0
1, 2384, Control_c, 0, 64, 127
1, 2732, Note_off_c, 0, 35, 64
1, 2752, Control_c, 0, 64, 0
1, 2764, Note_on_c, 0, 35, 102
1, 2808, Control_c, 0, 64, 127
1, 2832, Note_off_c, 0, 54, 64
1, 2832, Note_off_c, 0, 59, 64
1, 2832, Note_off_c, 0, 63, 64
1, 2840, Note_off_c, 0, 47, 64
1, 2864, Note_off_c, 0, 35, 64
1, 3008, Note_on_c, 0, 61, 43
1, 3008, Note_on_c, 0, 49, 41
1, 3080, Control_c, 0, 64, 0
1, 3104, Note_on_c, 0, 47, 48
1, 3104, Note_on_c, 0, 59, 47
1, 3120, Note_off_c, 0, 61, 64
1, 3128, Note_off_c, 0, 49, 64
1, 3184, Note_on_c, 0, 52, 46
1, 3192, Note_on_c, 0, 64, 39
1, 3256, Note_off_c, 0, 59, 64
1, 3260, Note_off_c, 0, 47, 64
1, 3276, Note_on_c, 0, 66, 43
1, 3280, Note_on_c, 0, 54, 55
1, 3312, Note_off_c, 0, 52, 64
1, 3320, Note_off_c, 0, 64, 64
1, 3372, Note_on_c, 0, 68, 56
1, 3384, Note_on_c, 0, 56, 59
1, 3396, Note_off_c, 0, 66, 64
1, 3400, Note_off_c, 0, 54, 64
1, 3468, Note_on_c, 0, 51, 48
1, 3480, Note_on_c, 0, 63, 48
1, 3516, Note_off_c, 0, 68, 64
1, 3524, Note_off_c, 0, 56, 64
1, 3568, Note_on_c, 0, 64, 41
1, 3568, Note_on_c, 0, 52, 50
1, 3584, Note_off_c, 0, 51, 64
1, 3596, Note_off_c, 0, 63, 64
1, 3652, Note_on_c, 0, 56, 62
1, 3660, Note_on_c, 0, 68, 50
1, 3672, Note_off_c, 0, 64, 64
1, 3672, Note_off_c, 0, 52, 64
1, 3728, Note_on_c, 0, 71, 43
1, 3728, Note_on_c, 0, 59, 64
1, 3768, Note_off_c, 0, 56, 64
1, 3772, Note_off_c, 0, 68, 64
1, 3816, Note_on_c, 0, 61, 67
1, 3820, Note_on_c, 0, 73, 55
1, 3844, Note_off_c, 0, 71, 64
1, 3860, Note_off_c, 0, 59, 64
1, 3896, Note_on_c, 0, 75, 74
1, 3900, Note_on_c, 0, 63, 78
1, 3928, Note_off_c, 0, 61, 64
1, 3928, Note_off_c, 0, 73, 64
1, 3948, Note_off_c, 0, 75, 64
1, 4000, Note_on_c, 0, 70, 58
1, 4004, Note_off_c, 0, 63, 64
1, 4080, Note_on_c, 0, 71, 44
1, 4084, Note_on_c, 0, 49, 65
1, 4120, Note_off_c, 0, 70, 64
1, 4148, Note_on_c, 0, 73, 59
1, 4188, Note_off_c, 0, 71, 64
1, 4232, Note_on_c, 0, 71, 54
1, 4268, Note_off_c, 0, 73, 64
1, 4288, Note_on_c, 0, 59, 46
1, 4292, Note_on_c, 0, 70, 71
1, 4296, Note_on_c, 0, 53, 37
1, 4316, Note_off_c, 0, 71, 64
1, 4336, Note_off_c, 0, 49, 64
1, 4348, Note_off_c, 0, 59, 64
1, 4348, Note_off_c, 0, 53, 64
1, 4360, Note_on_c, 0, 68, 70
1, 4372, Note_off_c, 0, 70, 64
1, 4448, Note_on_c, 0, 66, 62
1, 4452, Note_on_c, 0, 42, 62
1, 4464, Note_off_c, 0, 68, 64
1, 4544, Note_on_c, 0, 61, 67
1, 4588, Note_off_c, 0, 66, 64
1, 4612, Note_on_c, 0, 58, 58
1, 4612, Note_on_c, 0, 52, 48
1, 4616, Note_on_c, 0, 63, 64
1, 4644, Note_off_c, 0, 61, 64
1, 4692, Note_off_c, 0, 58, 64
1, 4692, Note_off_c, 0, 52, 64
1, 4712, Note_on_c, 0, 64, 49
1, 4736, Note_off_c, 0, 63, 64
1, 4776, Control_c, 0, 64, 127
1, 4784, Note_on_c, 0, 68, 57
1, 4784, Note_on_c, 0, 58, 40
1, 4784, Note_on_c, 0, 52, 41
1, 4832, Note_off_c, 0, 42, 64
1, 4832, Note_off_c, 0, 64, 64
1, 4864, Note_off_c, 0, 58, 64
1, 4864, Note_off_c, 0, 52, 64
1, 4868, Note_on_c, 0, 66, 49
1, 4888, Note_off_c, 0, 68, 64
1, 4948, Control_c, 0, 64, 0
1, 4960, Note_off_c, 0, 66, 64
1, 5000, Control_c, 0, 64, 127
1, 5004, Note_on_c, 0, 54, 67
1, 5004, Note_on_c, 0, 47, 58
1, 5008, Note_on_c, 0, 64, 65
1, 5008, Note_on_c, 0, 61, 62
1, 5008, Note_on_c, 0, 35, 63
1, 5064, Note_off_c, 0, 47, 64
1, 5068, Note_off_c, 0, 35, 64
1, 5088, Note_off_c, 0, 54, 64
1, 5100, Note_on_c, 0, 59, 50
1, 5100, Note_on_c, 0, 63, 48
1, 5112, Note_off_c, 0, 64, 64
1, 5132, Note_off_c, 0, 61, 64
1, 5156, Note_off_c, 0, 63, 64
1, 5160, Note_off_c, 0, 59, 64
1, 5172, Control_c, 0, 64, 0
1, 5192, Note_on_c, 0, 63, 60
1, 5200, Note_on_c, 0, 59, 60
1, 5200, Note_on_c, 0, 35, 57
1, 5200, Note_on_c, 0, 54, 60
1, 5208, Note_on_c, 0, 47, 58
1, 5248, Control_c, 0, 64, 127
1, 5364, Note_off_c, 0, 35, 64
1, 5376, Note_off_c, 0, 47, 64
1, 5388, Note_off_c, 0, 63, 64
1, 5392, Note_off_c, 0, 59, 64
1, 5400, Note_off_c, 0, 54, 64
1, 5624, Note_on_c, 0, 54, 43
1, 5628, Note_on_c, 0, 61, 49
1, 5632, Note_on_c, 0, 64, 52
1, 5636, Note_on_c, 0, 47, 58
1, 5636, Note_on_c, 0, 35, 55
1, 5696, Note_off_c, 0, 35, 64
1, 5696, Note_on_c, 0, 59, 48
1, 5696, Note_on_c, 0, 63, 52
1, 5704, Note_off_c, 0, 47, 64
1, 5724, Note_off_c, 0, 61, 64
1, 5728, Note_off_c, 0, 64, 64
1, 5752, Note_off_c, 0, 54, 64
1, 5776, Note_off_c, 0, 59, 64
1, 5776, Note_off_c, 0, 63, 64
1, 5816, Note_on_c, 0, 47, 57
1, 5824, Note_on_c, 0, 35, 54
1, 5824, Note_on_c, 0, 54, 55
1, 5828, Note_on_c, 0, 63, 58
1, 5828, Note_on_c, 0, 59, 57
1, 5852, Control_c, 0, 64, 0
1, 5932, Control_c, 0, 64, 127
1, 5984, Note_off_c, 0, 35, 64
1, 5996, Note_off_c, 0, 47, 64
1, 6048, Note_off_c, 0, 59, 64
1, 6056, Note_off_c, 0, 63, 64
1, 6088, Note_off_c, 0, 54, 64
1, 6240, Control_c, 0, 64, 0
1, 6272, Note_on_c, 0, 35, 51
1, 6272, Note_on_c, 0, 54, 48
1, 6276, Note_on_c, 0, 64, 51
1, 6276, Note_on_c, 0, 61, 46
1, 6276, Note_on_c, 0, 47, 55
1, 6308, Control_c, 0, 64, 127
1, 6336, Note_off_c, 0, 35, 64
1, 6348, Note_off_c, 0, 47, 64
1, 6352, Note_on_c, 0, 63, 48
1, 6352, Note_on_c, 0, 59, 47
1, 6376, Note_off_c, 0, 64, 64
1, 6404, Note_off_c, 0, 54, 64
1, 6404, Note_off_c, 0, 61, 64
1, 6416, Note_off_c, 0, 59, 64
1, 6440, Note_off_c, 0, 63, 64
1, 6472, Note_on_c, 0, 59, 50
1, 6472, Note_on_c, 0, 54, 50
1, 6472, Note_on_c, 0, 63, 50
1, 6476, Note_on_c, 0, 47, 51
1, 6476, Note_on_c, 0, 35, 49
1, 6504, Control_c, 0, 64, 0
1, 6564, Control_c, 0, 64, 127
1, 6628, Note_off_c, 0, 35, 64
1, 6656, Note_off_c, 0, 47, 64
1, 6672, Note_off_c, 0, 63, 64
1, 6676, Note_off_c, 0, 54, 64
1, 6680, Note_off_c, 0, 59, 64
1, 6920, Control_c, 0, 64, 0
1, 6928, Note_on_c, 0, 35, 43
1, 6928, Note_on_c, 0, 47, 49
1, 6928, Note_on_c, 0, 54, 43
1, 6928, Note_on_c, 0, 61, 44
1, 6928, Note_on_c, 0, 64, 49
1, 6968, Control_c, 0, 64, 127
1, 7008, Note_on_c, 0, 63, 41
1, 7008, Note_on_c, 0, 59, 39
1, 7012, Note_off_c, 0, 35, 64
1, 7024, Note_off_c, 0, 47, 64
1, 7032, Note_off_c, 0, 64, 64
1, 7044, Note_off_c, 0, 54, 64
1, 7056, Note_off_c, 0, 61, 64
1, 7072, Note_off_c, 0, 59, 64
1, 7096, Note_off_c, 0, 63, 64
1, 7104, Note_on_c, 0, 47, 48
1, 7108, Note_on_c, 0, 59, 49
1, 7108, Note_on_c, 0, 54, 48
1, 7108, Note_on_c, 0, 35, 43
1, 7112, Note_on_c, 0, 63, 46
1, 7132, Control_c, 0, 64, 0
1, 7184, Control_c, 0, 64, 127
1, 7504, Note_off_c, 0, 35, 64
1, 7504, Control_c, 0, 64, 0
1, 7532, Note_off_c, 0, 47, 64
1, 7536, Note_off_c, 0, 59, 64
1, 7536, Note_off_c, 0, 54, 64
1, 7536, Note_on_c, 0, 35, 102
1, 7540, Note_off_c, 0, 63, 64
1, 7568, Control_c, 0, 64, 127
1, 7660, Note_off_c, 0, 35, 64
1, 7768, Note_on_c, 0, 49, 25
1, 7768, Note_on_c, 0, 61, 46
1, 7824, Control_c, 0, 64, 0
1, 7840, Note_on_c, 0, 59, 51
1, 7840, Note_on_c, 0, 47, 62
1, 7876, Note_off_c, 0, 49, 64
1, 7876, Note_off_c, 0, 61, 64
1, 7940, Note_on_c, 0, 52, 51
1, 7944, Note_on_c, 0, 64, 25
1, 7988, Note_off_c, 0, 59, 64
1, 8000, Note_off_c, 0, 47, 64
1, 8016, Note_on_c, 0, 54, 64
1, 8020, Note_on_c, 0, 66, 50
1, 8060, Note_off_c, 0, 52, 64
1, 8064, Note_off_c, 0, 64, 64
1, 8116, Note_on_c, 0, 68, 63
1, 8116, Note_on_c, 0, 56, 62
1, 8144, Note_off_c, 0, 54, 64
1, 8148, Note_off_c, 0, 66, 64
1, 8196, Note_on_c, 0, 63, 46
1, 8196, Note_on_c, 0, 51, 54
1, 8220, Note_off_c, 0, 68, 64
1, 8220, Note_off_c, 0, 56, 64
1, 8288, Note_on_c, 0, 64, 49
1, 8292, Note_on_c, 0, 52, 49
1, 8308, Note_off_c, 0, 63, 64
1, 8308, Note_off_c, 0, 51, 64
1, 8364, Note_on_c, 0, 68, 49
1, 8364, Note_on_c, 0, 56, 49
1, 8400, Note_off_c, 0, 64, 64
1, 8408, Note_off_c, 0, 52, 64
1, 8452, Note_on_c, 0, 71, 39
1, 8460, Note_on_c, 0, 59, 62
1, 8484, Note_off_c, 0, 68, 64
1, 8484, Note_off_c, 0, 56, 64
1, 8536, Note_on_c, 0, 73, 39
1, 8536, Note_on_c, 0, 61, 57
1, 8568, Note_off_c, 0, 71, 64
1, 8576, Note_off_c, 0, 59, 64
1, 8612, Note_on_c, 0, 75, 67
1, 8612, Note_on_c, 0, 63, 63
1, 8652, Note_off_c, 0, 73, 64
1, 8652, Note_off_c, 0, 61, 64
1, 8672, Note_off_c, 0, 75, 64
1, 8712, Note_off_c, 0, 63, 64
1, 8752, Note_on_c, 0, 69, 58
1, 8828, Note_on_c, 0, 70, 62
1, 8836, Note_on_c, 0, 46, 64
1, 8860, Note_off_c, 0, 69, 64
1, 8900, Note_on_c, 0, 72, 46
1, 8952, Note_off_c, 0, 70, 64
1, 8964, Note_on_c, 0, 70, 59
1, 9008, Note_off_c, 0, 72, 64
1, 9024, Note_on_c, 0, 68, 67
1, 9024, Note_on_c, 0, 55, 52
1, 9028, Note_on_c, 0, 63, 54
1, 9056, Note_off_c, 0, 70, 64
1, 9092, Note_off_c, 0, 46, 64
1, 9096, Note_off_c, 0, 55, 64
1, 9104, Note_off_c, 0, 63, 64
1, 9116, Note_on_c, 0, 67, 58
1, 9144, Note_off_c, 0, 68, 64
1, 9196, Note_on_c, 0, 46, 81
1, 9200, Note_on_c, 0, 68, 62
1, 9232, Note_off_c, 0, 67, 64
1, 9284, Note_on_c, 0, 64, 58
1, 9336, Note_off_c, 0, 68, 64
1, 9392, Note_on_c, 0, 62, 51
1, 9392, Note_on_c, 0, 56, 55
1, 9396, Note_on_c, 0, 65, 66
1, 9416, Note_off_c, 0, 64, 64
1, 9456, Note_off_c, 0, 62, 64
1, 9456, Note_off_c, 0, 56, 64
1, 9504, Note_on_c, 0, 68, 54
1, 9516, Note_off_c, 0, 65, 64
1, 9576, Note_off_c, 0, 46, 64
1, 9584, Note_on_c, 0, 72, 62
1, 9584, Note_on_c, 0, 62, 49
1, 9584, Note_on_c, 0, 56, 51
1, 9616, Note_off_c, 0, 68, 64
1, 9656, Note_off_c, 0, 62, 64
1, 9656, Note_off_c, 0, 56, 64
1, 9720, Note_on_c, 0, 70, 57
1, 9728, Note_off_c, 0, 72, 64
1, 9796, Note_on_c, 0, 51, 71
1, 9796, Note_on_c, 0, 67, 63
1, 9844, Note_off_c, 0, 70, 64
1, 10000, Note_off_c, 0, 67, 64
1, 10000, Note_on_c, 0, 70, 70
1, 10008, Note_on_c, 0, 55, 52
1, 10012, Note_on_c, 0, 63, 51
1, 10076, Note_on_c, 0, 72, 58
1, 10080, Note_off_c, 0, 55, 64
1, 10084, Note_off_c, 0, 63, 64
1, 10096, Note_off_c, 0, 70, 64
1, 10132, Note_on_c, 0, 70, 58
1, 10168, Note_off_c, 0, 72, 64
1, 10180, Note_off_c, 0, 51, 64
1, 10188, Note_on_c, 0, 63, 50
1, 10188, Note_on_c, 0, 55, 51
1, 10208, Note_on_c, 0, 68, 63
1, 10244, Note_off_c, 0, 70, 64
1, 10244, Note_off_c, 0, 63, 64
1, 10244, Note_off_c, 0, 55, 64
1, 10280, Note_on_c, 0, 67, 64
1, 10312, Note_off_c, 0, 68, 64
1, 10368, Note_on_c, 0, 46, 62
1, 10372, Note_on_c, 0, 68, 71
1, 10396, Note_off_c, 0, 67, 64
1, 10460, Note_on_c, 0, 64, 63
1, 10500, Note_off_c, 0, 68, 64
1, 10544, Note_on_c, 0, 65, 66
1, 10544, Note_on_c, 0, 62, 56
1, 10548, Note_on_c, 0, 56, 58
1, 10580, Note_off_c, 0, 64, 64
1, 10608, Note_off_c, 0, 62, 64
1, 10608, Note_off_c, 0, 56, 64
1, 10664, Note_on_c, 0, 68, 54
1, 10688, Note_off_c, 0, 65, 64
1, 10744, Note_on_c, 0, 56, 58
1, 10748, Note_off_c, 0, 46, 64
1, 10752, Note_on_c, 0, 72, 55
1, 10752, Note_on_c, 0, 62, 58
1, 10776, Note_off_c, 0, 68, 64
1, 10820, Note_on_c, 0, 70, 49
1, 10828, Note_off_c, 0, 56, 64
1, 10836, Note_off_c, 0, 62, 64
1, 10856, Note_off_c, 0, 72, 64
1, 10920, Note_on_c, 0, 51, 60
1, 10924, Note_on_c, 0, 67, 60
1, 10956, Note_off_c, 0, 70, 64
1, 11128, Note_on_c, 0, 55, 50
1, 11136, Note_on_c, 0, 70, 48
1, 11136, Note_on_c, 0, 63, 52
1, 11172, Note_off_c, 0, 67, 64
1, 11184, Note_off_c, 0, 51, 64
1, 11184, Note_on_c, 0, 72, 58
1, 11200, Note_off_c, 0, 70, 64
1, 11216, Note_off_c, 0, 55, 64
1, 11220, Note_off_c, 0, 63, 64
1, 11248, Note_on_c, 0, 70, 51
1, 11272, Note_off_c, 0, 72, 64
1, 11332, Note_on_c, 0, 68, 59
1, 11360, Note_off_c, 0, 70, 64
1, 11412, Note_on_c, 0, 67, 56
1, 11456, Note_off_c, 0, 68, 64
1, 11492, Note_on_c, 0, 42, 55
1, 11500, Note_on_c, 0, 66, 55
1, 11560, Note_off_c, 0, 67, 64
1, 11584, Note_on_c, 0, 61, 56
1, 11616, Note_off_c, 0, 66, 64
1, 11680, Note_on_c, 0, 63, 55
1, 11680, Note_on_c, 0, 52, 46
1, 11680, Note_on_c, 0, 58, 50
1, 11684, Control_c, 0, 64, 127
1, 11716, Note_off_c, 0, 61, 64
1, 11756, Note_off_c, 0, 58, 64
1, 11764, Note_off_c, 0, 52, 64
1, 11776, Note_on_c, 0, 64, 42
1, 11800, Note_off_c, 0, 63, 64
1, 11844, Note_on_c, 0, 68, 49
1, 11844, Note_on_c, 0, 58, 44
1, 11852, Note_off_c, 0, 64, 64
1, 11852, Note_on_c, 0, 52, 51
1, 11876, Note_off_c, 0, 42, 64
1, 11920, Note_off_c, 0, 58, 64
1, 11928, Note_off_c, 0, 52, 64
1, 11940, Note_on_c, 0, 66, 48
1, 11944, Note_off_c, 0, 68, 64
1, 12008, Note_off_c, 0, 66, 64
1, 12028, Control_c, 0, 64, 0
1, 12040, Note_on_c, 0, 47, 58
1, 12040, Note_on_c, 0, 35, 62
1, 12048, Note_on_c, 0, 64, 63
1, 12048, Note_on_c, 0, 54, 70
1, 12048, Note_on_c, 0, 61, 67
1, 12096, Note_off_c, 0, 47, 64
1, 12104, Note_off_c, 0, 35, 64
1, 12116, Note_on_c, 0, 59, 63
1, 12128, Note_on_c, 0, 63, 57
1, 12152, Note_off_c, 0, 64, 64
1, 12168, Note_off_c, 0, 54, 64
1, 12176, Note_off_c, 0, 61, 64
1, 12196, Note_off_c, 0, 59, 64
1, 12196, Control_c, 0, 64, 0
1, 12208, Note_off_c, 0, 63, 64
1, 12232, Note_on_c, 0, 35, 58
1, 12240, Note_on_c, 0, 47, 60
1, 12240, Note_on_c, 0, 59, 63
1, 12240, Note_on_c, 0, 54, 63
1, 12252, Note_on_c, 0, 63, 63
1, 12276, Control_c, 0, 64, 127
1, 12368, Note_off_c, 0, 63, 64
1, 12448, Note_off_c, 0, 59, 64
1, 12456, Note_off_c, 0, 35, 64
1, 12456, Note_off_c, 0, 47, 64
1, 12468, Note_off_c, 0, 54, 64
1, 12636, Note_on_c, 0, 54, 47
1, 12640, Note_on_c, 0, 64, 54
1, 12640, Note_on_c, 0, 61, 55
1, 12640, Note_on_c, 0, 47, 58
1, 12640, Note_on_c, 0, 35, 55
1, 12700, Note_off_c, 0, 47, 64
1, 12712, Note_off_c, 0, 35, 64
1, 12728, Note_on_c, 0, 63, 50
1, 12736, Note_off_c, 0, 54, 64
1, 12736, Note_on_c, 0, 59, 46
1, 12748, Note_off_c, 0, 64, 64
1, 12764, Note_off_c, 0, 61, 64
1, 12792, Note_off_c, 0, 63, 64
1, 12796, Note_off_c, 0, 59, 64
1, 12832, Note_on_c, 0, 54, 57
1, 12832, Note_on_c, 0, 63, 57
1, 12832, Note_on_c, 0, 59, 57
1, 12832, Note_on_c, 0, 47, 57
1, 12840, Note_on_c, 0, 35, 50
1, 12856, Control_c, 0, 64, 0
1, 12928, Control_c, 0, 64, 127
1, 13028, Note_off_c, 0, 47, 64
1, 13028, Note_off_c, 0, 35, 64
1, 13048, Note_off_c, 0, 63, 64
1, 13076, Note_off_c, 0, 59, 64
1, 13092, Note_off_c, 0, 54, 64
1, 13260, Control_c, 0, 64, 0
1, 13276, Note_on_c, 0, 54, 47
1, 13276, Note_on_c, 0, 35, 51
1, 13280, Note_on_c, 0, 64, 51
1, 13280, Note_on_c, 0, 47, 55
1, 13284, Note_on_c, 0, 61, 49
1, 13312, Control_c, 0, 64, 127
1, 13360, Note_off_c, 0, 35, 64
1, 13368, Note_off_c, 0, 47, 64
1, 13372, Note_on_c, 0, 63, 46
1, 13372, Note_on_c, 0, 59, 48
1, 13388, Note_off_c, 0, 64, 64
1, 13396, Note_off_c, 0, 54, 64
1, 13428, Note_off_c, 0, 59, 64
1, 13432, Note_off_c, 0, 61, 64
1, 13444, Note_off_c, 0, 63, 64
1, 13480, Note_on_c, 0, 54, 55
1, 13480, Note_on_c, 0, 59, 55
1, 13484, Note_on_c, 0, 63, 55
1, 13488, Note_on_c, 0, 47, 55
1, 13488, Note_on_c, 0, 35, 51
1, 13508, Control_c, 0, 64, 0
1, 13568, Control_c, 0, 64, 127
1, 13680, Note_off_c, 0, 47, 64
1, 13680, Note_off_c, 0, 35, 64
1, 13776, Note_off_c, 0, 59, 64
1, 13788, Note_off_c, 0, 63, 64
1, 13820, Note_off_c, 0, 54, 64
1, 13892, Control_c, 0, 64, 0
1, 13928, Note_on_c, 0, 47, 54
1, 13928, Note_on_c, 0, 35, 54
1, 13928, Note_on_c, 0, 61, 49
1, 13928, Note_on_c, 0, 54, 48
1, 13932, Note_on_c, 0, 64, 49
1, 13944, Control_c, 0, 64, 127
1, 13980, Note_off_c, 0, 35, 64
1, 13992, Note_off_c, 0, 47, 64
1, 14012, Note_on_c, 0, 63, 41
1, 14016, Note_on_c, 0, 59, 39
1, 14036, Note_off_c, 0, 54, 64
1, 14040, Note_off_c, 0, 61, 64
1, 14040, Note_off_c, 0, 64, 64
1, 14072, Note_off_c, 0, 59, 64
1, 14076, Note_off_c, 0, 63, 64
1, 14108, Note_on_c, 0, 47, 52
1, 14116, Note_on_c, 0, 59, 49
1, 14116, Note_on_c, 0, 63, 51
1, 14120, Note_on_c, 0, 54, 48
1, 14120, Note_on_c, 0, 35, 51
1, 14128, Control_c, 0, 64, 0
1, 14188, Control_c, 0, 64, 127
1, 14520, Note_off_c, 0, 35, 64
1, 14528, Control_c, 0, 64, 0
1, 14548, Note_on_c, 0, 35, 102
1, 14592, Control_c, 0, 64, 127
1, 14656, Note_off_c, 0, 47, 64
1, 14664, Note_off_c, 0, 59, 64
1, 14664, Note_off_c, 0, 63, 64
1, 14668, Note_off_c, 0, 54, 64
1, 14692, Note_off_c, 0, 35, 64
1, 14780, Note_on_c, 0, 49, 39
1, 14788, Note_on_c, 0, 61, 43
1, 14840, Control_c, 0, 64, 0
1, 14876, Note_on_c, 0, 59, 46
1, 14880, Note_on_c, 0, 47, 49
1, 14888, Note_off_c, 0, 49, 64
1, 14896, Note_off_c, 0, 61, 64
1, 14960, Note_on_c, 0, 52, 46
1, 14968, Note_on_c, 0, 64, 35
1, 15020, Note_off_c, 0, 59, 64
1, 15024, Note_off_c, 0, 47, 64
1, 15040, Note_on_c, 0, 54, 55
1, 15052, Note_on_c, 0, 66, 27
1, 15076, Note_off_c, 0, 52, 64
1, 15088, Note_off_c, 0, 64, 64
1, 15132, Note_on_c, 0, 68, 49
1, 15132, Note_on_c, 0, 56, 58
1, 15176, Note_off_c, 0, 54, 64
1, 15184, Note_off_c, 0, 66, 64
1, 15216, Note_on_c, 0, 51, 46
1, 15220, Note_on_c, 0, 63, 43
1, 15248, Note_off_c, 0, 68, 64
1, 15248, Note_off_c, 0, 56, 64
1, 15296, Note_on_c, 0, 64, 56
1, 15296, Note_on_c, 0, 52, 50
1, 15328, Note_off_c, 0, 51, 64
1, 15336, Note_off_c, 0, 63, 64
1, 15380, Note_on_c, 0, 68, 46
1, 15388, Note_on_c, 0, 56, 46
1, 15416, Note_off_c, 0, 52, 64
1, 15416, Note_off_c, 0, 64, 64
1, 15484, Note_on_c, 0, 71, 50
1, 15484, Note_on_c, 0, 59, 59
1, 15504, Note_off_c, 0, 68, 64
1, 15508, Note_off_c, 0, 56, 64
1, 15572, Note_on_c, 0, 73, 34
1, 15572, Note_on_c, 0, 61, 66
1, 15608, Note_off_c, 0, 71, 64
1, 15608, Note_off_c, 0, 59, 64
1, 15668, Note_on_c, 0, 75, 69
1, 15668, Note_on_c, 0, 63, 74
1, 15692, Note_off_c, 0, 73, 64
1, 15692, Note_off_c, 0, 61, 64
1, 15728, Note_off_c, 0, 75, 64
1, 15768, Note_off_c, 0, 63, 64
1, 15768, Note_on_c, 0, 70, 63
1, 15852, Note_on_c, 0, 71, 58
1, 15856, Note_on_c, 0, 49, 65
1, 15868, Note_off_c, 0, 70, 64
1, 15924, Note_on_c, 0, 73, 62
1, 15928, Note_off_c, 0, 71, 64
1, 15968, Note_on_c, 0, 71, 54
1, 16028, Note_off_c, 0, 73, 64
1, 16052, Note_on_c, 0, 70, 78
1, 16052, Note_on_c, 0, 59, 43
1, 16052, Note_on_c, 0, 53, 49
1, 16068, Note_off_c, 0, 71, 64
1, 16108, Note_off_c, 0, 49, 64
1, 16112, Note_off_c, 0, 59, 64
1, 16112, Note_off_c, 0, 53, 64
1, 16132, Note_off_c, 0, 70, 64
1, 16136, Note_on_c, 0, 68, 64
1, 16220, Note_on_c, 0, 42, 74
1, 16232, Note_on_c, 0, 66, 71
1, 16272, Note_off_c, 0, 68, 64
1, 16312, Note_on_c, 0, 61, 57
1, 16324, Note_off_c, 0, 66, 64
1, 16384, Note_on_c, 0, 58, 58
1, 16392, Note_on_c, 0, 52, 34
1, 16396, Note_on_c, 0, 63, 66
1, 16424, Note_off_c, 0, 61, 64
1, 16456, Note_off_c, 0, 58, 64
1, 16464, Note_off_c, 0, 52, 64
1, 16496, Note_on_c, 0, 64, 64
1, 16512, Note_off_c, 0, 63, 64
1, 16556, Control_c, 0, 64, 127
1, 16564, Note_on_c, 0, 68, 62
1, 16572, Note_on_c, 0, 58, 39
1, 16576, Note_off_c, 0, 64, 64
1, 16576, Note_on_c, 0, 52, 52
1, 16604, Note_off_c, 0, 42, 64
1, 16648, Note_off_c, 0, 58, 64
1, 16648, Note_off_c, 0, 52, 64
1, 16676, Note_on_c, 0, 66, 52
1, 16708, Control_c, 0, 64, 0
1, 16712, Note_off_c, 0, 68, 64
1, 16800, Note_on_c, 0, 35, 56
1, 16800, Control_c, 0, 64, 127
1, 16808, Note_on_c, 0, 64, 70
1, 16808, Note_on_c, 0, 54, 65
1, 16808, Note_on_c, 0, 47, 51
1, 16812, Note_on_c, 0, 61, 65
1, 16832, Note_off_c, 0, 66, 64
1, 16856, Note_off_c, 0, 35, 64
1, 16864, Note_off_c, 0, 47, 64
1, 16904, Note_on_c, 0, 59, 55
1, 16908, Note_on_c, 0, 63, 41
1, 16916, Note_off_c, 0, 54, 64
1, 16920, Note_off_c, 0, 64, 64
1, 16928, Note_off_c, 0, 61, 64
1, 16956, Control_c, 0, 64, 0
1, 16980, Note_off_c, 0, 59, 64
1, 16984, Note_off_c, 0, 63, 64
1, 16984, Note_on_c, 0, 47, 47
1, 16992, Note_on_c, 0, 59, 52
1, 16992, Note_on_c, 0, 54, 57
1, 16992, Note_on_c, 0, 35, 50
1, 17000, Note_on_c, 0, 63, 57
1, 17048, Control_c, 0, 64, 127
1, 17188, Note_off_c, 0, 63, 64
1, 17200, Note_off_c, 0, 59, 64
1, 17208, Note_off_c, 0, 54, 64
1, 17248, Note_off_c, 0, 35, 64
1, 17256, Note_off_c, 0, 47, 64
1, 17392, Control_c, 0, 64, 0
1, 17408, Note_on_c, 0, 64, 50
1, 17412, Note_on_c, 0, 61, 49
1, 17416, Note_on_c, 0, 54, 40
1, 17416, Note_on_c, 0, 47, 58
1, 17416, Note_on_c, 0, 35, 55
1, 17440, Control_c, 0, 64, 127
1, 17480, Note_off_c, 0, 35, 64
1, 17480, Note_on_c, 0, 63, 52
1, 17480, Note_on_c, 0, 59, 46
1, 17484, Note_off_c, 0, 47, 64
1, 17492, Note_off_c, 0, 64, 64
1, 17528, Note_off_c, 0, 54, 64
1, 17536, Note_off_c, 0, 61, 64
1, 17536, Note_off_c, 0, 59, 64
1, 17560, Note_off_c, 0, 63, 64
1, 17608, Control_c, 0, 64, 0
1, 17616, Note_on_c, 0, 54, 52
1, 17616, Note_on_c, 0, 59, 55
1, 17620, Note_on_c, 0, 63, 57
1, 17624, Note_on_c, 0, 47, 57
1, 17632, Note_on_c, 0, 35, 49
1, 17684, Control_c, 0, 64, 127
1, 17804, Note_off_c, 0, 63, 64
1, 17808, Note_off_c, 0, 54, 64
1, 17816, Note_off_c, 0, 59, 64
1, 17872, Note_off_c, 0, 35, 64
1, 17876, Note_off_c, 0, 47, 64
1, 18040, Control_c, 0, 64, 0
1, 18064, Note_on_c, 0, 47, 51
1, 18064, Note_on_c, 0, 35, 46
1, 18068, Note_on_c, 0, 54, 46
1, 18072, Note_on_c, 0, 64, 49
1, 18072, Note_on_c, 0, 61, 46
1, 18104, Control_c, 0, 64, 127
1, 18144, Note_off_c, 0, 47, 64
1, 18152, Note_off_c, 0, 35, 64
1, 18164, Note_on_c, 0, 63, 41
1, 18172, Note_on_c, 0, 59, 42
1, 18180, Note_off_c, 0, 64, 64
1, 18188, Note_off_c, 0, 54, 64
1, 18212, Note_off_c, 0, 61, 64
1, 18224, Note_off_c, 0, 63, 64
1, 18228, Note_off_c, 0, 59, 64
1, 18240, Control_c, 0, 64, 0
1, 18272, Note_on_c, 0, 63, 52
1, 18280, Note_on_c, 0, 59, 55
1, 18280, Note_on_c, 0, 54, 52
1, 18288, Note_on_c, 0, 35, 46
1, 18292, Note_on_c, 0, 47, 51
1, 18304, Control_c, 0, 64, 127
1, 18512, Note_off_c, 0, 35, 64
1, 18528, Note_off_c, 0, 47, 64
1, 18536, Note_off_c, 0, 54, 64
1, 18552, Note_off_c, 0, 59, 64
1, 18552, Note_off_c, 0, 63, 64
1, 18688, Control_c, 0, 64, 0
1, 18716, Note_on_c, 0, 47, 47
1, 18716, Note_on_c, 0, 35, 44
1, 18724, Note_on_c, 0, 61, 43
1, 18724, Note_on_c, 0, 54, 42
1, 18724, Note_on_c, 0, 64, 44
1, 18752, Control_c, 0, 64, 127
1, 18800, Note_off_c, 0, 47, 64
1, 18804, Note_on_c, 0, 63, 37
1, 18804, Note_on_c, 0, 59, 33
1, 18808, Note_off_c, 0, 35, 64
1, 18832, Note_off_c, 0, 64, 64
1, 18856, Note_off_c, 0, 54, 64
1, 18864, Note_off_c, 0, 61, 64
1, 18868, Note_off_c, 0, 59, 64
1, 18876, Note_off_c, 0, 63, 64
1, 18892, Control_c, 0, 64, 0
1, 18920, Note_on_c, 0, 54, 49
1, 18920, Note_on_c, 0, 59, 48
1, 18920, Note_on_c, 0, 63, 49
1, 18928, Note_on_c, 0, 35, 43
1, 18928, Note_on_c, 0, 47, 47
1, 18956, Control_c, 0, 64, 127
1, 19308, Control_c, 0, 64, 0
1, 19328, Note_off_c, 0, 35, 64
1, 19348, Note_on_c, 0, 35, 102
1, 19360, Control_c, 0, 64, 127
1, 19412, Note_off_c, 0, 54, 64
1, 19412, Note_off_c, 0, 59, 64
1, 19412, Note_off_c, 0, 63, 64
1, 19420, Note_off_c, 0, 47, 64
1, 19472, Note_off_c, 0, 35, 64
1, 19560, Note_on_c, 0, 49, 49
1, 19568, Note_on_c, 0, 61, 51
1, 19608, Control_c, 0, 64, 0
1, 19664, Note_on_c, 0, 59, 32
1, 19664, Note_on_c, 0, 47, 59
1, 19692, Note_off_c, 0, 49, 64
1, 19700, Note_off_c, 0, 61, 64
1, 19760, Note_on_c, 0, 64, 32
1, 19764, Note_on_c, 0, 52, 58
1, 19812, Note_off_c, 0, 59, 64
1, 19812, Note_off_c, 0, 47, 64
1, 19840, Note_on_c, 0, 54, 51
1, 19848, Note_on_c, 0, 66, 49
1, 19884, Note_off_c, 0, 64, 64
1, 19888, Note_off_c, 0, 52, 64
1, 19936, Note_on_c, 0, 56, 57
1, 19940, Note_on_c, 0, 68, 58
1, 19964, Note_off_c, 0, 54, 64
1, 19968, Note_off_c, 0, 66, 64
1, 20040, Note_on_c, 0, 51, 46
1, 20052, Note_on_c, 0, 63, 41
1, 20072, Note_off_c, 0, 56, 64
1, 20076, Note_off_c, 0, 68, 64
1, 20144, Note_on_c, 0, 64, 56
1, 20144, Note_on_c, 0, 52, 42
1, 20164, Note_off_c, 0, 51, 64
1, 20176, Note_off_c, 0, 63, 64
1, 20240, Note_on_c, 0, 56, 49
1, 20244, Note_on_c, 0, 68, 56
1, 20280, Note_off_c, 0, 64, 64
1, 20280, Note_off_c, 0, 52, 64
1, 20320, Note_on_c, 0, 71, 41
1, 20320, Note_on_c, 0, 59, 62
1, 20356, Note_off_c, 0, 56, 64
1, 20360, Note_off_c, 0, 68, 64
1, 20404, Note_on_c, 0, 61, 64
1, 20408, Note_on_c, 0, 73, 46
1, 20444, Note_off_c, 0, 71, 64
1, 20444, Note_off_c, 0, 59, 64
1, 20520, Note_on_c, 0, 62, 71
1, 20520, Note_on_c, 0, 74, 67
1, 20536, Note_off_c, 0, 61, 64
1, 20544, Note_off_c, 0, 73, 64
1, 20584, Note_off_c, 0, 74, 64
1, 20612, Note_on_c, 0, 68, 65
1, 20632, Note_off_c, 0, 62, 64
1, 20692, Note_on_c, 0, 45, 58
1, 20692, Note_on_c, 0, 69, 58
1, 20708, Note_off_c, 0, 68, 64
1, 20760, Note_on_c, 0, 71, 58
1, 20776, Note_off_c, 0, 69, 64
1, 20836, Note_on_c, 0, 69, 62
1, 20864, Note_off_c, 0, 71, 64
1, 20908, Note_on_c, 0, 67, 62
1, 20924, Note_on_c, 0, 62, 59
1, 20924, Note_on_c, 0, 54, 50
1, 20936, Note_off_c, 0, 69, 64
1, 20940, Note_off_c, 0, 45, 64
1, 21000, Note_off_c, 0, 62, 64
1, 21000, Note_off_c, 0, 54, 64
1, 21024, Note_on_c, 0, 66, 58
1, 21048, Note_off_c, 0, 67, 64
1, 21104, Note_on_c, 0, 67, 62
1, 21108, Note_on_c, 0, 45, 58
1, 21140, Note_off_c, 0, 66, 64
1, 21192, Note_on_c, 0, 63, 64
1, 21208, Note_off_c, 0, 67, 64
1, 21276, Note_on_c, 0, 61, 58
1, 21276, Note_on_c, 0, 55, 39
1, 21280, Note_on_c, 0, 64, 63
1, 21312, Note_off_c, 0, 63, 64
1, 21360, Note_off_c, 0, 61, 64
1, 21360, Note_off_c, 0, 55, 64
1, 21368, Note_on_c, 0, 67, 49
1, 21408, Note_off_c, 0, 64, 64
1, 21460, Note_on_c, 0, 61, 62
1, 21468, Note_on_c, 0, 71, 57
1, 21468, Note_on_c, 0, 55, 58
1, 21488, Note_off_c, 0, 67, 64
1, 21492, Note_off_c, 0, 45, 64
1, 21512, Note_off_c, 0, 55, 64
1, 21512, Note_off_c, 0, 61, 64
1, 21560, Note_on_c, 0, 69, 56
1, 21568, Note_off_c, 0, 71, 64
1, 21672, Note_on_c, 0, 66, 72
1, 21672, Note_on_c, 0, 50, 67
1, 21688, Note_off_c, 0, 69, 64
1, 21900, Note_on_c, 0, 69, 62
1, 21904, Note_on_c, 0, 57, 49
1, 21908, Note_off_c, 0, 66, 64
1, 21908, Note_on_c, 0, 62, 46
1, 21908, Note_on_c, 0, 54, 50
1, 21960, Note_on_c, 0, 71, 69
1, 21976, Note_off_c, 0, 57, 64
1, 21984, Note_off_c, 0, 62, 64
1, 21984, Note_off_c, 0, 54, 64
1, 21992, Note_off_c, 0, 69, 64
1, 22024, Note_on_c, 0, 69, 51
1, 22056, Note_off_c, 0, 50, 64
1, 22056, Note_off_c, 0, 71, 64
1, 22100, Note_on_c, 0, 57, 49
1, 22100, Note_on_c, 0, 54, 50
1, 22108, Note_on_c, 0, 62, 44
1, 22112, Note_on_c, 0, 67, 62
1, 22144, Note_off_c, 0, 69, 64
1, 22168, Note_off_c, 0, 62, 64
1, 22172, Note_off_c, 0, 57, 64
1, 22172, Note_off_c, 0, 54, 64
1, 22196, Note_on_c, 0, 66, 77
1, 22208, Note_off_c, 0, 67, 64
1, 22276, Note_on_c, 0, 67, 62
1, 22280, Note_on_c, 0, 45, 58
1, 22288, Note_off_c, 0, 66, 64
1, 22360, Note_on_c, 0, 63, 62
1, 22364, Note_off_c, 0, 67, 64
1, 22432, Note_on_c, 0, 64, 54
1, 22440, Note_on_c, 0, 61, 47
1, 22440, Note_on_c, 0, 55, 26
1, 22480, Note_off_c, 0, 63, 64
1, 22496, Note_off_c, 0, 61, 64
1, 22496, Note_off_c, 0, 55, 64
1, 22536, Note_on_c, 0, 67, 51
1, 22548, Note_off_c, 0, 64, 64
1, 22612, Note_on_c, 0, 55, 36
1, 22620, Note_on_c, 0, 61, 47
1, 22620, Note_on_c, 0, 71, 54
1, 22640, Note_off_c, 0, 67, 64
1, 22664, Note_off_c, 0, 45, 64
1, 22672, Note_off_c, 0, 55, 64
1, 22672, Note_off_c, 0, 61, 64
1, 22724, Note_on_c, 0, 69, 52
1, 22728, Note_off_c, 0, 71, 64
1, 22856, Note_on_c, 0, 62, 63
1, 22860, Note_off_c, 0, 69, 64
1, 22872, Note_on_c, 0, 38, 80
1, 22916, Control_c, 0, 64, 127
1, 23008, Control_c, 0, 64, 0
1, 23092, Note_on_c, 0, 60, 50
1, 23092, Note_on_c, 0, 50, 49
1, 23100, Note_on_c, 0, 54, 52
1, 23156, Note_off_c, 0, 38, 64
1, 23156, Note_off_c, 0, 60, 64
1, 23156, Note_off_c, 0, 50, 64
1, 23160, Note_off_c, 0, 54, 64
1, 23256, Control_c, 0, 64, 127
1, 23284, Note_on_c, 0, 59, 49
1, 23284, Note_on_c, 0, 55, 40
1, 23284, Note_on_c, 0, 50, 40
1, 23360, Note_off_c, 0, 59, 64
1, 23360, Note_off_c, 0, 55, 64
1, 23360, Note_off_c, 0, 50, 64
1, 23412, Note_off_c, 0, 62, 64
1, 23524, Control_c, 0, 64, 0
1, 23536, Note_on_c, 0, 62, 59
1, 23548, Note_on_c, 0, 38, 71
1, 23748, Note_on_c, 0, 50, 32
1, 23748, Note_on_c, 0, 48, 32
1, 23752, Note_on_c, 0, 57, 51
1, 23812, Note_off_c, 0, 50, 64
1, 23812, Note_off_c, 0, 48, 64
1, 23816, Note_off_c, 0, 57, 64
1, 23832, Note_off_c, 0, 38, 64
1, 23960, Note_on_c, 0, 50, 49
1, 23964, Note_on_c, 0, 55, 51
1, 23968, Note_on_c, 0, 47, 39
1, 24036, Note_off_c, 0, 50, 64
1, 24040, Note_off_c, 0, 55, 64
1, 24044, Note_off_c, 0, 47, 64
1, 24104, Note_off_c, 0, 62, 64
1, 24144, Note_on_c, 0, 60, 50
1, 24152, Note_on_c, 0, 62, 43
1, 24168, Note_on_c, 0, 38, 64
1, 24192, Note_off_c, 0, 60, 64
1, 24200, Note_off_c, 0, 62, 64
1, 24216, Note_on_c, 0, 62, 46
1, 24216, Note_on_c, 0, 59, 58
1, 24264, Note_off_c, 0, 62, 64
1, 24264, Note_off_c, 0, 59, 64
1, 24280, Note_on_c, 0, 62, 56
1, 24280, Note_on_c, 0, 57, 60
1, 24316, Note_on_c, 0, 38, 67
1, 24328, Note_off_c, 0, 62, 64
1, 24328, Note_off_c, 0, 57, 64
1, 24364, Note_on_c, 0, 62, 70
1, 24364, Note_on_c, 0, 60, 59
1, 24364, Note_on_c, 0, 54, 56
1, 24364, Note_on_c, 0, 50, 58
1, 24432, Note_off_c, 0, 62, 64
1, 24432, Note_off_c, 0, 60, 64
1, 24432, Note_off_c, 0, 54, 64
1, 24432, Note_off_c, 0, 50, 64
1, 24624, Note_on_c, 0, 62, 58
1, 24624, Note_on_c, 0, 50, 55
1, 24632, Note_on_c, 0, 59, 60
1, 24632, Note_on_c, 0, 55, 54
1, 24716, Note_off_c, 0, 38, 64
1, 24716, Note_off_c, 0, 38, 64
1, 24776, Note_off_c, 0, 50, 64
1, 24784, Note_off_c, 0, 59, 64
1, 24784, Note_off_c, 0, 55, 64
1, 24788, Note_off_c, 0, 62, 64
1, 24880, Note_on_c, 0, 62, 46
1, 24880, Note_on_c, 0, 57, 42
1, 24880, Note_on_c, 0, 38, 50
1, 24928, Note_off_c, 0, 62, 64
1, 24928, Note_off_c, 0, 57, 64
1, 24944, Note_on_c, 0, 62, 47
1, 24952, Note_on_c, 0, 55, 57
1, 24960, Note_on_c, 0, 38, 65
1, 24992, Note_off_c, 0, 62, 64
1, 25000, Note_off_c, 0, 55, 64
1, 25016, Note_on_c, 0, 62, 56
1, 25016, Note_on_c, 0, 54, 63
1, 25064, Note_off_c, 0, 62, 64
1, 25064, Note_off_c, 0, 54, 64
1, 25088, Note_on_c, 0, 62, 64
1, 25092, Note_on_c, 0, 57, 64
1, 25092, Note_on_c, 0, 50, 48
1, 25092, Note_on_c, 0, 48, 52
1, 25172, Note_off_c, 0, 62, 64
1, 25176, Note_off_c, 0, 57, 64
1, 25176, Note_off_c, 0, 50, 64
1, 25176, Note_off_c, 0, 48, 64
1, 25256, Note_off_c, 0, 38, 64
1, 25276, Note_off_c, 0, 38, 64
1, 25328, Note_on_c, 0, 55, 65
1, 25328, Note_on_c, 0, 47, 51
1, 25328, Note_on_c, 0, 62, 71
1, 25332, Note_on_c, 0, 50, 44
1, 25476, Note_off_c, 0, 55, 64
1, 25480, Note_off_c, 0, 47, 64
1, 25480, Note_off_c, 0, 62, 64
1, 25484, Note_off_c, 0, 50, 64
1, 25580, Note_on_c, 0, 74, 56
1, 25584, Note_on_c, 0, 38, 56
1, 25592, Note_on_c, 0, 62, 59
1, 25592, Note_on_c, 0, 50, 56
1, 25652, Control_c, 0, 64, 127
1, 25744, Control_c, 0, 64, 0
1, 25796, Note_on_c, 0, 57, 52
1, 25800, Note_on_c, 0, 60, 52
1, 25808, Note_on_c, 0, 66, 57
1, 25824, Control_c, 0, 64, 127
1, 25872, Note_off_c, 0, 38, 64
1, 25876, Note_off_c, 0, 50, 64
1, 25876, Note_off_c, 0, 57, 64
1, 25880, Note_off_c, 0, 60, 64
1, 25888, Note_off_c, 0, 66, 64
1, 25968, Control_c, 0, 64, 127
1, 26028, Note_off_c, 0, 62, 64
1, 26032, Control_c, 0, 64, 0
1, 26040, Note_on_c, 0, 62, 52
1, 26040, Note_on_c, 0, 67, 51
1, 26048, Note_on_c, 0, 59, 44
1, 26060, Control_c, 0, 64, 127
1, 26120, Note_off_c, 0, 62, 64
1, 26120, Note_off_c, 0, 67, 64
1, 26128, Note_off_c, 0, 59, 64
1, 26200, Control_c, 0, 64, 127
1, 26212, Note_off_c, 0, 74, 64
1, 26228, Control_c, 0, 64, 0
1, 26244, Note_on_c, 0, 50, 60
1, 26244, Note_on_c, 0, 38, 56
1, 26256, Note_on_c, 0, 74, 63
1, 26260, Note_on_c, 0, 62, 60
1, 26288, Control_c, 0, 64, 127
1, 26392, Control_c, 0, 64, 0
1, 26448, Note_on_c, 0, 65, 44
1, 26448, Note_on_c, 0, 59, 57
1, 26452, Note_on_c, 0, 68, 51
1, 26472, Control_c, 0, 64, 127
1, 26528, Note_off_c, 0, 65, 64
1, 26528, Note_off_c, 0, 59, 64
1, 26532, Note_off_c, 0, 50, 64
1, 26532, Note_off_c, 0, 38, 64
1, 26532, Note_off_c, 0, 68, 64
1, 26628, Control_c, 0, 64, 0
1, 26680, Control_c, 0, 64, 127
1, 26688, Note_on_c, 0, 66, 48
1, 26688, Note_on_c, 0, 60, 52
1, 26688, Note_on_c, 0, 69, 50
1, 26768, Note_off_c, 0, 66, 64
1, 26768, Note_off_c, 0, 60, 64
1, 26768, Note_off_c, 0, 69, 64
1, 26796, Control_c, 0, 64, 127
1, 26860, Note_off_c, 0, 74, 64
1, 26868, Note_off_c, 0, 62, 64
1, 26880, Note_on_c, 0, 38, 41
1, 26880, Control_c, 0, 64, 0
1, 26888, Note_on_c, 0, 72, 52
1, 26888, Note_on_c, 0, 50, 47
1, 26888, Note_on_c, 0, 74, 54
1, 26892, Note_on_c, 0, 62, 54
1, 26920, Control_c, 0, 64, 127
1, 26936, Note_off_c, 0, 72, 64
1, 26936, Note_off_c, 0, 74, 64
1, 26936, Note_off_c, 0, 62, 64
1, 26968, Note_on_c, 0, 74, 54
1, 26968, Note_on_c, 0, 62, 54
1, 26972, Note_on_c, 0, 71, 60
1, 27016, Note_off_c, 0, 74, 64
1, 27016, Note_off_c, 0, 62, 64
1, 27020, Note_off_c, 0, 71, 64
1, 27024, Note_on_c, 0, 74, 54
1, 27032, Note_on_c, 0, 62, 54
1, 27036, Note_on_c, 0, 69, 59
1, 27056, Control_c, 0, 64, 0
1, 27072, Note_off_c, 0, 74, 64
1, 27080, Note_off_c, 0, 62, 64
1, 27080, Note_off_c, 0, 69, 64
1, 27088, Note_on_c, 0, 74, 65
1, 27088, Note_on_c, 0, 54, 59
1, 27092, Note_off_c, 0, 50, 64
1, 27096, Note_on_c, 0, 72, 58
1, 27096, Note_on_c, 0, 50, 54
1, 27104, Note_on_c, 0, 60, 52
1, 27104, Note_on_c, 0, 62, 57
1, 27172, Control_c, 0, 64, 0
1, 27204, Note_off_c, 0, 74, 64
1, 27204, Note_off_c, 0, 54, 64
1, 27208, Note_off_c, 0, 72, 64
1, 27216, Note_off_c, 0, 60, 64
1, 27216, Control_c, 0, 64, 127
1, 27220, Note_off_c, 0, 62, 64
1, 27304, Note_off_c, 0, 50, 64
1, 27308, Note_on_c, 0, 62, 52
1, 27312, Note_on_c, 0, 59, 50
1, 27312, Note_on_c, 0, 50, 46
1, 27316, Note_on_c, 0, 74, 56
1, 27324, Note_on_c, 0, 71, 60
1, 27324, Note_on_c, 0, 55, 46
1, 27408, Control_c, 0, 64, 0
1, 27428, Control_c, 0, 64, 0
1, 27428, Control_c, 0, 64, 0
1, 27436, Control_c, 0, 64, 0
1, 27452, Control_c, 0, 64, 127
1, 27456, Note_off_c, 0, 38, 64
1, 27460, Note_off_c, 0, 62, 64
1, 27464, Note_off_c, 0, 59, 64
1, 27464, Note_off_c, 0, 50, 64
1, 27468, Note_off_c, 0, 74, 64
1, 27472, Control_c, 0, 64, 127
1, 27476, Note_off_c, 0, 71, 64
1, 27476, Note_off_c, 0, 55, 64
1, 27480, Control_c, 0, 64, 127
1, 27524, Note_on_c, 0, 62, 54
1, 27524, Note_on_c, 0, 50, 54
1, 27528, Note_on_c, 0, 69, 46
1, 27532, Note_on_c, 0, 74, 50
1, 27536, Note_on_c, 0, 38, 41
1, 27572, Note_off_c, 0, 62, 64
1, 27572, Note_off_c, 0, 69, 64
1, 27576, Note_off_c, 0, 74, 64
1, 27592, Note_off_c, 0, 50, 64
1, 27600, Note_on_c, 0, 74, 48
1, 27600, Note_on_c, 0, 67, 51
1, 27600, Note_on_c, 0, 62, 48
1, 27648, Note_off_c, 0, 74, 64
1, 27648, Note_off_c, 0, 67, 64
1, 27648, Note_off_c, 0, 62, 64
1, 27664, Note_on_c, 0, 62, 49
1, 27672, Note_on_c, 0, 74, 47
1, 27672, Note_on_c, 0, 66, 52
1, 27712, Note_off_c, 0, 62, 64
1, 27720, Note_off_c, 0, 74, 64
1, 27720, Note_off_c, 0, 66, 64
1, 27724, Note_on_c, 0, 60, 44
1, 27724, Note_on_c, 0, 50, 48
1, 27728, Note_on_c, 0, 69, 58
1, 27728, Note_on_c, 0, 62, 47
1, 27728, Note_on_c, 0, 54, 49
1, 27732, Note_on_c, 0, 74, 49
1, 27856, Note_off_c, 0, 60, 64
1, 27856, Note_off_c, 0, 50, 64
1, 27864, Note_off_c, 0, 69, 64
1, 27864, Note_off_c, 0, 62, 64
1, 27864, Note_off_c, 0, 54, 64
1, 27864, Note_off_c, 0, 74, 64
1, 27872, Note_off_c, 0, 38, 64
1, 27920, Note_on_c, 0, 43, 59
1, 27960, Note_on_c, 0, 67, 59
1, 27960, Note_on_c, 0, 59, 59
1, 27964, Note_on_c, 0, 79, 60
1, 27968, Note_on_c, 0, 50, 60
1, 28096, Note_off_c, 0, 43, 64
1, 28112, Note_off_c, 0, 67, 64
1, 28116, Note_off_c, 0, 50, 64
1, 28132, Note_off_c, 0, 59, 64
1, 28156, Note_off_c, 0, 79, 64
1, 28252, Note_on_c, 0, 83, 72
1, 28256, Note_on_c, 0, 71, 72
1, 28268, Note_on_c, 0, 35, 71
1, 28280, Note_on_c, 0, 47, 67
1, 28300, Control_c, 0, 64, 127
1, 28424, Control_c, 0, 64, 0
1, 28476, Note_on_c, 0, 59, 46
1, 28476, Note_on_c, 0, 63, 50
1, 28476, Note_on_c, 0, 54, 58
1, 28520, Control_c, 0, 64, 127
1, 28552, Note_off_c, 0, 59, 64
1, 28556, Note_off_c, 0, 35, 64
1, 28556, Note_off_c, 0, 63, 64
1, 28556, Note_off_c, 0, 54, 64
1, 28564, Note_off_c, 0, 47, 64
1, 28688, Control_c, 0, 64, 0
1, 28700, Note_on_c, 0, 55, 51
1, 28700, Note_on_c, 0, 59, 56
1, 28704, Note_on_c, 0, 64, 51
1, 28712, Control_c, 0, 64, 127
1, 28728, Note_off_c, 0, 83, 64
1, 28760, Note_off_c, 0, 55, 64
1, 28764, Note_off_c, 0, 59, 64
1, 28764, Note_off_c, 0, 64, 64
1, 28800, Note_off_c, 0, 71, 64
1, 28896, Control_c, 0, 64, 0
1, 28916, Note_on_c, 0, 35, 41
1, 28916, Note_on_c, 0, 83, 58
1, 28916, Note_on_c, 0, 81, 54
1, 28916, Note_on_c, 0, 71, 26
1, 28920, Note_on_c, 0, 47, 40
1, 28964, Note_off_c, 0, 83, 64
1, 28964, Note_off_c, 0, 81, 64
1, 28964, Note_off_c, 0, 71, 64
1, 28988, Control_c, 0, 64, 127
1, 28992, Note_on_c, 0, 83, 51
1, 28992, Note_on_c, 0, 79, 56
1, 28992, Note_on_c, 0, 71, 23
1, 29040, Note_off_c, 0, 83, 64
1, 29040, Note_off_c, 0, 79, 64
1, 29040, Note_off_c, 0, 71, 64
1, 29064, Note_on_c, 0, 83, 49
1, 29064, Note_on_c, 0, 78, 63
1, 29064, Note_on_c, 0, 71, 25
1, 29092, Control_c, 0, 64, 0
1, 29112, Note_off_c, 0, 83, 64
1, 29112, Note_off_c, 0, 78, 64
1, 29112, Note_off_c, 0, 71, 64
1, 29140, Note_on_c, 0, 81, 59
1, 29140, Note_on_c, 0, 71, 58
1, 29140, Note_on_c, 0, 63, 58
1, 29140, Note_on_c, 0, 59, 52
1, 29148, Note_on_c, 0, 83, 57
1, 29148, Note_on_c, 0, 69, 49
1, 29240, Control_c, 0, 64, 127
1, 29248, Note_off_c, 0, 59, 64
1, 29248, Note_off_c, 0, 63, 64
1, 29248, Note_off_c, 0, 71, 64
1, 29248, Note_off_c, 0, 81, 64
1, 29256, Note_off_c, 0, 69, 64
1, 29256, Note_off_c, 0, 83, 64
1, 29264, Note_off_c, 0, 35, 64
1, 29268, Note_off_c, 0, 47, 64
1, 29344, Note_on_c, 0, 71, 55
1, 29344, Note_on_c, 0, 64, 58
1, 29344, Note_on_c, 0, 59, 26
1, 29352, Note_on_c, 0, 83, 59
1, 29352, Note_on_c, 0, 67, 58
1, 29356, Note_on_c, 0, 79, 64
1, 29444, Control_c, 0, 64, 127
1, 29508, Note_off_c, 0, 71, 64
1, 29508, Note_off_c, 0, 64, 64
1, 29508, Note_off_c, 0, 59, 64
1, 29512, Note_off_c, 0, 83, 64
1, 29512, Note_off_c, 0, 67, 64
1, 29516, Note_off_c, 0, 79, 64
1, 29584, Note_on_c, 0, 71, 65
1, 29588, Note_on_c, 0, 78, 72
1, 29592, Note_on_c, 0, 83, 59
1, 29604, Note_on_c, 0, 47, 41
1, 29604, Note_on_c, 0, 35, 32
1, 29632, Note_off_c, 0, 71, 64
1, 29632, Control_c, 0, 64, 127
1, 29636, Note_off_c, 0, 78, 64
1, 29640, Note_off_c, 0, 83, 64
1, 29664, Note_on_c, 0, 83, 58
1, 29664, Note_on_c, 0, 71, 64
1, 29672, Note_on_c, 0, 76, 64
1, 29708, Note_off_c, 0, 83, 64
1, 29708, Note_off_c, 0, 71, 64
1, 29716, Note_off_c, 0, 76, 64
1, 29732, Note_on_c, 0, 83, 65
1, 29740, Note_on_c, 0, 71, 26
1, 29744, Note_on_c, 0, 75, 71
1, 29780, Note_off_c, 0, 83, 64
1, 29784, Note_off_c, 0, 71, 64
1, 29792, Note_off_c, 0, 75, 64
1, 29808, Note_on_c, 0, 78, 63
1, 29808, Note_on_c, 0, 69, 54
1, 29808, Note_on_c, 0, 71, 25
1, 29808, Note_on_c, 0, 59, 59
1, 29816, Note_on_c, 0, 83, 83
1, 29816, Note_on_c, 0, 63, 60
1, 29840, Control_c, 0, 64, 0
1, 29892, Note_off_c, 0, 47, 64
1, 29892, Note_off_c, 0, 35, 64
1, 29908, Control_c, 0, 64, 127
1, 29912, Control_c, 0, 64, 127
1, 29928, Note_off_c, 0, 78, 64
1, 29932, Note_off_c, 0, 69, 64
1, 29932, Note_off_c, 0, 71, 64
1, 29932, Note_off_c, 0, 59, 64
1, 29936, Note_off_c, 0, 83, 64
1, 29936, Note_off_c, 0, 63, 64
1, 29984, Note_on_c, 0, 52, 55
1, 30008, Note_on_c, 0, 88, 71
1, 30008, Note_on_c, 0, 76, 71
1, 30008, Note_on_c, 0, 59, 71
1, 30016, Note_on_c, 0, 67, 71
1, 30136, Control_c, 0, 64, 127
1, 30136, Control_c, 0, 64, 127
1, 30144, Control_c, 0, 64, 127
1, 30156, Note_off_c, 0, 52, 64
1, 30168, Note_off_c, 0, 67, 64
1, 30176, Note_off_c, 0, 88, 64
1, 30176, Note_off_c, 0, 76, 64
1, 30176, Note_off_c, 0, 59, 64
1, 30176, Control_c, 0, 64, 127
1, 30232, Note_on_c, 0, 66, 67
1, 30232, Note_on_c, 0, 59, 58
1, 30232, Note_on_c, 0, 57, 58
1, 30232, Note_on_c, 0, 47, 77
1, 30236, Note_on_c, 0, 71, 70
1, 30260, Control_c, 0, 64, 127
1, 30280, Note_off_c, 0, 66, 64
1, 30280, Note_off_c, 0, 59, 64
1, 30280, Note_off_c, 0, 57, 64
1, 30280, Note_off_c, 0, 47, 64
1, 30280, Note_off_c, 0, 71, 64
1, 30304, Note_on_c, 0, 47, 54
1, 30308, Note_on_c, 0, 64, 64
1, 30308, Note_on_c, 0, 59, 24
1, 30308, Note_on_c, 0, 57, 24
1, 30312, Note_on_c, 0, 71, 24
1, 30352, Note_off_c, 0, 47, 64
1, 30356, Note_off_c, 0, 64, 64
1, 30356, Note_off_c, 0, 59, 64
1, 30356, Note_off_c, 0, 57, 64
1, 30360, Note_off_c, 0, 71, 64
1, 30376, Note_on_c, 0, 71, 60
1, 30376, Note_on_c, 0, 47, 25
1, 30380, Note_on_c, 0, 63, 58
1, 30380, Note_on_c, 0, 59, 60
1, 30380, Note_on_c, 0, 57, 60
1, 30424, Note_off_c, 0, 71, 64
1, 30424, Note_off_c, 0, 47, 64
1, 30424, Note_off_c, 0, 63, 64
1, 30424, Note_off_c, 0, 59, 64
1, 30424, Note_off_c, 0, 57, 64
1, 30456, Note_on_c, 0, 71, 60
1, 30456, Note_on_c, 0, 66, 71
1, 30456, Note_on_c, 0, 59, 81
1, 30460, Note_on_c, 0, 57, 54
1, 30464, Note_on_c, 0, 47, 63
1, 30536, Note_off_c, 0, 71, 64
1, 30536, Note_off_c, 0, 66, 64
1, 30536, Note_off_c, 0, 59, 64
1, 30540, Note_off_c, 0, 57, 64
1, 30544, Note_off_c, 0, 47, 64
1, 30600, Control_c, 0, 64, 0
1, 30668, Note_on_c, 0, 40, 70
1, 30700, Note_on_c, 0, 47, 70
1, 30704, Note_on_c, 0, 55, 70
1, 30704, Note_on_c, 0, 76, 70
1, 30708, Tempo, 500000
1, 30708, Note_on_c, 0, 64, 70
1, 30896, Note_off_c, 0, 40, 64
1, 30916, Note_off_c, 0, 64, 64
1, 30920, Note_off_c, 0, 76, 64
1, 30924, Note_off_c, 0, 47, 64
1, 30924, Note_off_c, 0, 55, 64
1, 30980, Control_c, 0, 64, 127
1, 31000, Note_on_c, 0, 78, 83
1, 31000, Note_on_c, 0, 42, 83
1, 31008, Note_on_c, 0, 66, 83
1, 31008, Note_on_c, 0, 30, 98
1, 31064, Control_c, 0, 64, 127
1, 31208, Control_c, 0, 64, 0
1, 31256, Note_on_c, 0, 54, 58
1, 31256, Note_on_c, 0, 61, 54
1, 31260, Note_on_c, 0, 64, 58
1, 31284, Control_c, 0, 64, 127
1, 31324, Note_off_c, 0, 54, 64
1, 31328, Note_off_c, 0, 61, 64
1, 31328, Note_off_c, 0, 64, 64
1, 31440, Control_c, 0, 64, 0
1, 31472, Note_off_c, 0, 42, 64
1, 31476, Note_off_c, 0, 30, 64
1, 31476, Note_on_c, 0, 47, 65
1, 31496, Note_on_c, 0, 54, 65
1, 31496, Note_on_c, 0, 62, 73
1, 31520, Control_c, 0, 64, 127
1, 31544, Note_off_c, 0, 47, 64
1, 31568, Note_off_c, 0, 54, 64
1, 31568, Note_off_c, 0, 62, 64
1, 31632, Note_off_c, 0, 78, 64
1, 31636, Note_off_c, 0, 66, 64
1, 31660, Control_c, 0, 64, 0
1, 31688, Control_c, 0, 64, 127
1, 31696, Note_on_c, 0, 42, 58
1, 31700, Note_on_c, 0, 78, 60
1, 31700, Note_on_c, 0, 66, 54
1, 31704, Note_on_c, 0, 76, 59
1, 31704, Note_on_c, 0, 30, 64
1, 31732, Control_c, 0, 64, 127
1, 31744, Note_off_c, 0, 78, 64
1, 31744, Note_off_c, 0, 66, 64
1, 31748, Note_off_c, 0, 76, 64
1, 31756, Note_on_c, 0, 74, 52
1, 31764, Note_on_c, 0, 78, 54
1, 31768, Note_on_c, 0, 66, 52
1, 31804, Note_off_c, 0, 74, 64
1, 31808, Note_off_c, 0, 78, 64
1, 31816, Note_off_c, 0, 66, 64
1, 31820, Note_on_c, 0, 78, 49
1, 31828, Note_on_c, 0, 73, 59
1, 31840, Note_on_c, 0, 66, 56
1, 31848, Control_c, 0, 64, 0
1, 31868, Note_off_c, 0, 78, 64
1, 31872, Note_off_c, 0, 73, 64
1, 31888, Note_off_c, 0, 66, 64
1, 31892, Note_on_c, 0, 49, 65
1, 31896, Note_on_c, 0, 76, 65
1, 31896, Note_on_c, 0, 58, 65
1, 31900, Note_on_c, 0, 78, 65
1, 31904, Note_on_c, 0, 66, 66
1, 32068, Note_off_c, 0, 49, 64
1, 32076, Note_off_c, 0, 76, 64
1, 32076, Note_off_c, 0, 58, 64
1, 32080, Note_off_c, 0, 78, 64
1, 32080, Note_off_c, 0, 66, 64
1, 32148, Note_on_c, 0, 59, 58
1, 32148, Note_on_c, 0, 74, 60
1, 32152, Note_on_c, 0, 78, 60
1, 32152, Note_on_c, 0, 66, 60
1, 32152, Note_on_c, 0, 50, 60
1, 32164, Note_off_c, 0, 42, 64
1, 32176, Note_off_c, 0, 30, 64
1, 32232, Tempo, 500000
1, 32284, Note_off_c, 0, 59, 64
1, 32284, Note_off_c, 0, 74, 64
1, 32288, Note_off_c, 0, 50, 64
1, 32288, Note_off_c, 0, 66, 64
1, 32288, Note_off_c, 0, 78, 64
1, 32344, Note_on_c, 0, 42, 58
1, 32344, Note_on_c, 0, 73, 66
1, 32348, Note_on_c, 0, 30, 55
1, 32348, Note_on_c, 0, 78, 63
1, 32348, Note_on_c, 0, 66, 65
1, 32380, Control_c, 0, 64, 127
1, 32392, Note_off_c, 0, 73, 64
1, 32396, Note_off_c, 0, 78, 64
1, 32396, Note_off_c, 0, 66, 64
1, 32420, Note_on_c, 0, 78, 59
1, 32420, Note_on_c, 0, 66, 51
1, 32424, Note_on_c, 0, 71, 51
1, 32464, Note_off_c, 0, 78, 64
1, 32464, Note_off_c, 0, 66, 64
1, 32468, Note_off_c, 0, 71, 64
1, 32488, Note_on_c, 0, 78, 60
1, 32496, Note_on_c, 0, 70, 64
1, 32496, Note_on_c, 0, 66, 54
1, 32528, Control_c, 0, 64, 0
1, 32536, Note_off_c, 0, 78, 64
1, 32544, Note_off_c, 0, 70, 64
1, 32544, Note_off_c, 0, 66, 64
1, 32572, Note_on_c, 0, 78, 64
1, 32572, Note_on_c, 0, 73, 64
1, 32572, Note_on_c, 0, 66, 64
1, 32572, Note_on_c, 0, 64, 64
1, 32572, Note_on_c, 0, 58, 58
1, 32572, Note_on_c, 0, 54, 58
1, 32628, Note_off_c, 0, 42, 64
1, 32632, Note_off_c, 0, 30, 64
1, 32808, Note_off_c, 0, 78, 64
1, 32808, Note_off_c, 0, 73, 64
1, 32808, Note_off_c, 0, 66, 64
1, 32808, Note_off_c, 0, 64, 64
1, 32808, Note_off_c, 0, 58, 64
1, 32808, Note_off_c, 0, 54, 64
1, 32836, Note_on_c, 0, 47, 77
1, 32864, Note_on_c, 0, 54, 86
1, 32864, Note_on_c, 0, 62, 86
1, 32876, Note_on_c, 0, 83, 95
1, 32880, Note_on_c, 0, 71, 86
1, 33092, Note_off_c, 0, 54, 64
1, 33096, Note_off_c, 0, 47, 64
1, 33096, Note_off_c, 0, 62, 64
1, 33104, Note_off_c, 0, 83, 64
1, 33108, Note_off_c, 0, 71, 64
1, 33148, Note_on_c, 0, 95, 93
1, 33148, Note_on_c, 0, 83, 92
1, 33148, Note_on_c, 0, 59, 88
1, 33148, Control_c, 0, 64, 127
1, 33152, Note_on_c, 0, 71, 83
1, 33252, Note_off_c, 0, 95, 64
1, 33252, Note_off_c, 0, 83, 64
1, 33252, Note_off_c, 0, 59, 64
1, 33256, Note_off_c, 0, 71, 64
1, 33360, Control_c, 0, 64, 0
1, 33368, Note_on_c, 0, 70, 57
1, 33368, Note_on_c, 0, 94, 57
1, 33368, Note_on_c, 0, 82, 57
1, 33368, Note_on_c, 0, 58, 67
1, 33396, Note_on_c, 0, 95, 75
1, 33396, Note_on_c, 0, 83, 77
1, 33396, Note_on_c, 0, 71, 92
1, 33396, Note_on_c, 0, 59, 83
1, 33408, Control_c, 0, 64, 127
1, 33412, Note_off_c, 0, 70, 64
1, 33416, Note_off_c, 0, 94, 64
1, 33416, Note_off_c, 0, 82, 64
1, 33416, Note_off_c, 0, 58, 64
1, 33496, Note_off_c, 0, 95, 64
1, 33496, Note_off_c, 0, 83, 64
1, 33496, Note_off_c, 0, 71, 64
1, 33496, Note_off_c, 0, 59, 64
1, 33624, Control_c, 0, 64, 0
1, 33636, Note_on_c, 0, 47, 90
1, 33640, Note_on_c, 0, 83, 101
1, 33640, Note_on_c, 0, 59, 102
1, 33640, Note_on_c, 0, 71, 36
1, 33696, Control_c, 0, 64, 127
1, 33740, Note_off_c, 0, 47, 64
1, 33740, Note_off_c, 0, 83, 64
1, 33740, Note_off_c, 0, 59, 64
1, 33744, Note_off_c, 0, 71, 64
1, 33892, Control_c, 0, 64, 0
1, 33904, Note_on_c, 0, 59, 102
1, 33904, Note_on_c, 0, 47, 102
1, 33908, Note_on_c, 0, 35, 102
1, 33916, Note_on_c, 0, 71, 94
1, 33956, Control_c, 0, 64, 127
1, 34008, Note_off_c, 0, 59, 64
1, 34008, Note_off_c, 0, 47, 64
1, 34120, Note_on_c, 0, 61, 42
1, 34120, Note_on_c, 0, 49, 41
1, 34172, Control_c, 0, 64, 0
1, 34192, Control_c, 0, 64, 0
1, 34216, Note_on_c, 0, 47, 48
1, 34216, Note_on_c, 0, 59, 46
1, 34232, Note_off_c, 0, 61, 64
1, 34240, Note_off_c, 0, 49, 64
1, 34296, Note_on_c, 0, 52, 46
1, 34304, Note_on_c, 0, 64, 39
1, 34368, Note_off_c, 0, 59, 64
1, 34372, Note_off_c, 0, 47, 64
1, 34388, Note_on_c, 0, 66, 42
1, 34392, Note_on_c, 0, 54, 55
1, 34424, Note_off_c, 0, 52, 64
1, 34432, Note_off_c, 0, 64, 64
1, 34484, Note_on_c, 0, 68, 56
1, 34496, Note_on_c, 0, 56, 59
1, 34508, Note_off_c, 0, 66, 64
1, 34512, Note_off_c, 0, 54, 64
1, 34580, Note_on_c, 0, 51, 48
1, 34592, Note_on_c, 0, 63, 48
1, 34628, Note_off_c, 0, 68, 64
1, 34636, Note_off_c, 0, 56, 64
1, 34680, Note_on_c, 0, 64, 40
1, 34680, Note_on_c, 0, 52, 49
1, 34696, Note_off_c, 0, 51, 64
1, 34708, Note_off_c, 0, 63, 64
1, 34764, Note_on_c, 0, 56, 62
1, 34772, Note_on_c, 0, 68, 50
1, 34784, Note_off_c, 0, 71, 64
1, 34784, Note_off_c, 0, 64, 64
1, 34784, Note_off_c, 0, 52, 64
1, 34840, Note_on_c, 0, 71, 42
1, 34840, Note_on_c, 0, 59, 64
1, 34880, Note_off_c, 0, 56, 64
1, 34884, Note_off_c, 0, 68, 64
1, 34928, Note_on_c, 0, 61, 67
1, 34932, Note_on_c, 0, 73, 55
1, 34956, Note_off_c, 0, 71, 64
1, 34972, Note_off_c, 0, 59, 64
1, 35008, Note_on_c, 0, 75, 74
1, 35012, Note_on_c, 0, 63, 77
1, 35040, Note_off_c, 0, 61, 64
1, 35040, Note_off_c, 0, 73, 64
1, 35060, Note_off_c, 0, 75, 64
1, 35112, Note_on_c, 0, 70, 58
1, 35116, Note_off_c, 0, 63, 64
1, 35160, Note_off_c, 0, 35, 64
1, 35192, Note_on_c, 0, 71, 44
1, 35196, Note_on_c, 0, 49, 65
1, 35232, Note_off_c, 0, 70, 64
1, 35260, Note_on_c, 0, 73, 59
1, 35300, Note_off_c, 0, 71, 64
1, 35344, Note_on_c, 0, 71, 54
1, 35380, Note_off_c, 0, 73, 64
1, 35400, Note_on_c, 0, 59, 46
1, 35404, Note_on_c, 0, 70, 71
1, 35408, Note_on_c, 0, 53, 37
1, 35428, Note_off_c, 0, 71, 64
1, 35448, Note_off_c, 0, 49, 64
1, 35460, Note_off_c, 0, 59, 64
1, 35460, Note_off_c, 0, 53, 64
1, 35472, Note_on_c, 0, 68, 70
1, 35484, Note_off_c, 0, 70, 64
1, 35560, Note_on_c, 0, 66, 62
1, 35564, Note_on_c, 0, 42, 62
1, 35576, Note_off_c, 0, 68, 64
1, 35656, Note_on_c, 0, 61, 70
1, 35700, Note_off_c, 0, 66, 64
1, 35724, Note_on_c, 0, 58, 62
1, 35724, Note_on_c, 0, 52, 51
1, 35728, Note_on_c, 0, 63, 77
1, 35756, Note_off_c, 0, 61, 64
1, 35804, Note_off_c, 0, 58, 64
1, 35804, Note_off_c, 0, 52, 64
1, 35824, Note_on_c, 0, 64, 62
1, 35848, Note_off_c, 0, 63, 64
1, 35888, Control_c, 0, 64, 127
1, 35896, Note_on_c, 0, 68, 73
1, 35896, Note_on_c, 0, 58, 44
1, 35896, Note_on_c, 0, 52, 47
1, 35944, Note_off_c, 0, 42, 64
1, 35944, Note_off_c, 0, 64, 64
1, 35976, Note_off_c, 0, 58, 64
1, 35976, Note_off_c, 0, 52, 64
1, 35980, Note_on_c, 0, 66, 65
1, 36000, Note_off_c, 0, 68, 64
1, 36072, Note_off_c, 0, 66, 64
1, 36080, Control_c, 0, 64, 0
1, 36096, Note_on_c, 0, 47, 100
1, 36096, Note_on_c, 0, 59, 100
1, 36096, Note_on_c, 0, 35, 100
1, 36104, Note_on_c, 0, 71, 93
1, 36132, Control_c, 0, 64, 127
1, 36144, Control_c, 0, 64, 127
1, 36196, Note_off_c, 0, 47, 64
1, 36196, Note_off_c, 0, 59, 64
1, 36288, Control_c, 0, 64, 127
1, 36332, Note_on_c, 0, 49, 23
1, 36336, Note_on_c, 0, 61, 42
1, 36388, Control_c, 0, 64, 0
1, 36404, Note_on_c, 0, 59, 49
1, 36404, Note_on_c, 0, 47, 59
1, 36440, Note_off_c, 0, 49, 64
1, 36440, Note_off_c, 0, 61, 64
1, 36488, Control_c, 0, 64, 0
1, 36504, Note_on_c, 0, 52, 50
1, 36508, Note_on_c, 0, 64, 24
1, 36552, Note_off_c, 0, 59, 64
1, 36564, Note_off_c, 0, 47, 64
1, 36584, Note_on_c, 0, 54, 65
1, 36584, Note_on_c, 0, 66, 52
1, 36624, Note_off_c, 0, 52, 64
1, 36628, Note_off_c, 0, 64, 64
1, 36680, Note_on_c, 0, 68, 66
1, 36680, Note_on_c, 0, 56, 65
1, 36712, Note_off_c, 0, 54, 64
1, 36712, Note_off_c, 0, 66, 64
1, 36760, Note_on_c, 0, 63, 49
1, 36760, Note_on_c, 0, 51, 58
1, 36784, Note_off_c, 0, 68, 64
1, 36784, Note_off_c, 0, 56, 64
1, 36852, Note_on_c, 0, 64, 55
1, 36856, Note_on_c, 0, 52, 55
1, 36872, Note_off_c, 0, 51, 64
1, 36872, Note_off_c, 0, 63, 64
1, 36920, Note_off_c, 0, 35, 64
1, 36920, Note_off_c, 0, 71, 64
1, 36928, Note_on_c, 0, 68, 56
1, 36928, Note_on_c, 0, 56, 56
1, 36964, Note_off_c, 0, 64, 64
1, 36972, Note_off_c, 0, 52, 64
1, 37016, Note_on_c, 0, 71, 46
1, 37024, Note_on_c, 0, 59, 72
1, 37048, Note_off_c, 0, 68, 64
1, 37048, Note_off_c, 0, 56, 64
1, 37100, Note_on_c, 0, 73, 47
1, 37100, Note_on_c, 0, 61, 69
1, 37132, Note_off_c, 0, 71, 64
1, 37140, Note_off_c, 0, 59, 64
1, 37176, Note_on_c, 0, 75, 82
1, 37176, Note_on_c, 0, 63, 77
1, 37216, Note_off_c, 0, 73, 64
1, 37216, Note_off_c, 0, 61, 64
1, 37236, Note_off_c, 0, 75, 64
1, 37276, Note_off_c, 0, 63, 64
1, 37284, Note_on_c, 0, 69, 58
1, 37344, Note_on_c, 0, 70, 62
1, 37352, Note_on_c, 0, 46, 64
1, 37392, Note_off_c, 0, 69, 64
1, 37416, Note_on_c, 0, 72, 46
1, 37468, Note_off_c, 0, 70, 64
1, 37480, Note_on_c, 0, 70, 59
1, 37524, Note_off_c, 0, 72, 64
1, 37540, Note_on_c, 0, 68, 67
1, 37540, Note_on_c, 0, 55, 52
1, 37544, Note_on_c, 0, 63, 54
1, 37572, Note_off_c, 0, 70, 64
1, 37608, Note_off_c, 0, 46, 64
1, 37616, Note_off_c, 0, 55, 64
1, 37620, Note_off_c, 0, 63, 64
1, 37632, Note_on_c, 0, 67, 58
1, 37660, Note_off_c, 0, 68, 64
1, 37712, Note_on_c, 0, 46, 81
1, 37716, Note_on_c, 0, 68, 62
1, 37748, Note_off_c, 0, 67, 64
1, 37800, Note_on_c, 0, 64, 58
1, 37856, Note_off_c, 0, 68, 64
1, 37912, Note_on_c, 0, 62, 51
1, 37912, Note_on_c, 0, 56, 55
1, 37912, Note_on_c, 0, 65, 66
1, 37932, Note_off_c, 0, 64, 64
1, 37972, Note_off_c, 0, 62, 64
1, 37972, Note_off_c, 0, 56, 64
1, 38020, Note_on_c, 0, 68, 54
1, 38032, Note_off_c, 0, 65, 64
1, 38076, Note_on_c, 0, 72, 62
1, 38076, Note_on_c, 0, 62, 49
1, 38076, Note_on_c, 0, 56, 51
1, 38096, Note_off_c, 0, 46, 64
1, 38132, Note_off_c, 0, 68, 64
1, 38144, Note_off_c, 0, 62, 64
1, 38144, Note_off_c, 0, 56, 64
1, 38172, Note_on_c, 0, 70, 57
1, 38216, Note_off_c, 0, 72, 64
1, 38284, Note_on_c, 0, 51, 71
1, 38288, Note_on_c, 0, 67, 63
1, 38312, Note_off_c, 0, 70, 64
1, 38468, Note_on_c, 0, 70, 70
1, 38476, Note_on_c, 0, 55, 52
1, 38480, Note_on_c, 0, 63, 51
1, 38492, Note_off_c, 0, 67, 64
1, 38544, Note_on_c, 0, 72, 58
1, 38552, Note_off_c, 0, 55, 64
1, 38552, Note_off_c, 0, 63, 64
1, 38564, Note_off_c, 0, 70, 64
1, 38600, Note_on_c, 0, 70, 58
1, 38640, Note_off_c, 0, 72, 64
1, 38656, Note_on_c, 0, 63, 50
1, 38656, Note_on_c, 0, 55, 51
1, 38668, Note_off_c, 0, 51, 64
1, 38676, Note_on_c, 0, 68, 63
1, 38712, Note_off_c, 0, 70, 64
1, 38712, Note_off_c, 0, 63, 64
1, 38712, Note_off_c, 0, 55, 64
1, 38748, Note_on_c, 0, 67, 64
1, 38780, Note_off_c, 0, 68, 64
1, 38836, Note_on_c, 0, 46, 62
1, 38840, Note_on_c, 0, 68, 71
1, 38864, Note_off_c, 0, 67, 64
1, 38928, Note_on_c, 0, 64, 63
1, 38968, Note_off_c, 0, 68, 64
1, 39016, Note_on_c, 0, 65, 75
1, 39016, Note_on_c, 0, 62, 56
1, 39016, Note_on_c, 0, 56, 58
1, 39048, Note_off_c, 0, 64, 64
1, 39076, Note_off_c, 0, 62, 64
1, 39080, Note_off_c, 0, 56, 64
1, 39132, Note_on_c, 0, 68, 62
1, 39160, Note_off_c, 0, 65, 64
1, 39212, Note_on_c, 0, 56, 58
1, 39216, Note_off_c, 0, 46, 64
1, 39220, Note_on_c, 0, 72, 63
1, 39220, Note_on_c, 0, 62, 58
1, 39244, Note_off_c, 0, 68, 64
1, 39288, Note_on_c, 0, 70, 56
1, 39296, Note_off_c, 0, 56, 64
1, 39304, Note_off_c, 0, 62, 64
1, 39324, Note_off_c, 0, 72, 64
1, 39388, Note_on_c, 0, 51, 62
1, 39392, Note_on_c, 0, 67, 62
1, 39424, Note_off_c, 0, 70, 64
1, 39596, Note_on_c, 0, 55, 47
1, 39604, Note_on_c, 0, 70, 50
1, 39604, Note_on_c, 0, 63, 48
1, 39640, Note_off_c, 0, 67, 64
1, 39652, Note_off_c, 0, 51, 64
1, 39656, Note_on_c, 0, 72, 62
1, 39672, Note_off_c, 0, 70, 64
1, 39684, Note_off_c, 0, 55, 64
1, 39688, Note_off_c, 0, 63, 64
1, 39716, Note_on_c, 0, 70, 55
1, 39740, Note_off_c, 0, 72, 64
1, 39800, Note_on_c, 0, 68, 65
1, 39832, Note_off_c, 0, 70, 64
1, 39880, Note_on_c, 0, 67, 62
1, 39924, Tempo, 500000
1, 39924, Note_off_c, 0, 68, 64
1, 39960, Note_on_c, 0, 42, 63
1, 39968, Note_on_c, 0, 66, 71
1, 40028, Note_off_c, 0, 67, 64
1, 40052, Note_on_c, 0, 61, 73
1, 40088, Note_off_c, 0, 66, 64
1, 40148, Note_on_c, 0, 63, 73
1, 40148, Note_on_c, 0, 52, 57
1, 40152, Note_on_c, 0, 58, 62
1, 40152, Control_c, 0, 64, 127
1, 40184, Note_off_c, 0, 61, 64
1, 40224, Note_off_c, 0, 58, 64
1, 40232, Note_off_c, 0, 52, 64
1, 40244, Note_on_c, 0, 64, 58
1, 40272, Note_off_c, 0, 63, 64
1, 40308, Note_on_c, 0, 52, 65
1, 40312, Note_on_c, 0, 68, 67
1, 40312, Note_on_c, 0, 58, 57
1, 40320, Note_off_c, 0, 64, 64
1, 40344, Note_off_c, 0, 42, 64
1, 40384, Note_off_c, 0, 52, 64
1, 40392, Note_off_c, 0, 58, 64
1, 40408, Note_on_c, 0, 66, 67
1, 40416, Note_off_c, 0, 68, 64
1, 40440, Control_c, 0, 64, 127
1, 40476, Note_off_c, 0, 66, 64
1, 40504, Control_c, 0, 64, 0
1, 40516, Note_on_c, 0, 59, 93
1, 40516, Note_on_c, 0, 47, 93
1, 40520, Note_on_c, 0, 35, 93
1, 40528, Note_on_c, 0, 71, 86
1, 40568, Control_c, 0, 64, 127
1, 40716, Note_off_c, 0, 59, 64
1, 40716, Note_off_c, 0, 47, 64
1, 40728, Note_on_c, 0, 49, 51
1, 40728, Note_on_c, 0, 61, 54
1, 40736, Control_c, 0, 64, 0
1, 40784, Control_c, 0, 64, 0
1, 40804, Control_c, 0, 64, 0
1, 40820, Control_c, 0, 64, 127
1, 40824, Note_on_c, 0, 47, 58
1, 40828, Note_on_c, 0, 59, 56
1, 40844, Note_off_c, 0, 61, 64
1, 40848, Note_off_c, 0, 49, 64
1, 40908, Note_on_c, 0, 52, 54
1, 40916, Note_on_c, 0, 64, 46
1, 40980, Note_off_c, 0, 59, 64
1, 40984, Note_off_c, 0, 47, 64
1, 41000, Note_on_c, 0, 66, 49
1, 41000, Note_on_c, 0, 54, 63
1, 41020, Control_c, 0, 64, 0
1, 41036, Note_off_c, 0, 52, 64
1, 41044, Note_off_c, 0, 64, 64
1, 41096, Note_on_c, 0, 68, 62
1, 41104, Note_on_c, 0, 56, 65
1, 41120, Note_off_c, 0, 66, 64
1, 41120, Note_off_c, 0, 54, 64
1, 41192, Note_on_c, 0, 51, 51
1, 41200, Note_on_c, 0, 63, 51
1, 41240, Note_off_c, 0, 68, 64
1, 41248, Note_off_c, 0, 56, 64
1, 41292, Note_on_c, 0, 64, 42
1, 41292, Note_on_c, 0, 52, 51
1, 41308, Note_off_c, 0, 51, 64
1, 41320, Note_off_c, 0, 63, 64
1, 41376, Note_on_c, 0, 56, 62
1, 41384, Note_on_c, 0, 68, 50
1, 41396, Note_off_c, 0, 71, 64
1, 41396, Note_off_c, 0, 64, 64
1, 41396, Note_off_c, 0, 52, 64
1, 41452, Note_on_c, 0, 71, 42
1, 41452, Note_on_c, 0, 59, 63
1, 41488, Note_off_c, 0, 56, 64
1, 41496, Note_off_c, 0, 68, 64
1, 41540, Note_on_c, 0, 61, 65
1, 41544, Note_on_c, 0, 73, 52
1, 41568, Note_off_c, 0, 71, 64
1, 41584, Note_off_c, 0, 59, 64
1, 41620, Note_on_c, 0, 75, 70
1, 41624, Note_on_c, 0, 63, 72
1, 41652, Note_off_c, 0, 61, 64
1, 41652, Note_off_c, 0, 73, 64
1, 41672, Note_off_c, 0, 75, 64
1, 41724, Note_on_c, 0, 70, 58
1, 41728, Note_off_c, 0, 63, 64
1, 41772, Note_off_c, 0, 35, 64
1, 41800, Note_on_c, 0, 71, 44
1, 41808, Note_on_c, 0, 49, 65
1, 41844, Note_off_c, 0, 70, 64
1, 41872, Note_on_c, 0, 73, 59
1, 41912, Note_off_c, 0, 71, 64
1, 41952, Note_on_c, 0, 71, 54
1, 41992, Note_off_c, 0, 73, 64
1, 42012, Note_on_c, 0, 59, 46
1, 42016, Note_on_c, 0, 70, 71
1, 42016, Note_on_c, 0, 53, 37
1, 42040, Note_off_c, 0, 71, 64
1, 42056, Note_off_c, 0, 49, 64
1, 42072, Note_off_c, 0, 59, 64
1, 42072, Note_off_c, 0, 53, 64
1, 42084, Note_on_c, 0, 68, 70
1, 42096, Note_off_c, 0, 70, 64
1, 42168, Note_on_c, 0, 66, 62
1, 42176, Note_on_c, 0, 42, 62
1, 42188, Note_off_c, 0, 68, 64
1, 42268, Note_on_c, 0, 61, 70
1, 42312, Note_off_c, 0, 66, 64
1, 42336, Note_on_c, 0, 58, 62
1, 42336, Note_on_c, 0, 52, 51
1, 42340, Note_on_c, 0, 63, 67
1, 42368, Note_off_c, 0, 61, 64
1, 42416, Note_off_c, 0, 58, 64
1, 42416, Note_off_c, 0, 52, 64
1, 42436, Note_on_c, 0, 64, 54
1, 42456, Note_off_c, 0, 63, 64
1, 42500, Control_c, 0, 64, 127
1, 42508, Note_on_c, 0, 68, 64
1, 42508, Note_on_c, 0, 58, 44
1, 42508, Note_on_c, 0, 52, 47
1, 42556, Note_off_c, 0, 42, 64
1, 42556, Note_off_c, 0, 64, 64
1, 42588, Note_off_c, 0, 58, 64
1, 42588, Note_off_c, 0, 52, 64
1, 42592, Note_on_c, 0, 66, 57
1, 42612, Note_off_c, 0, 68, 64
1, 42684, Note_off_c, 0, 66, 64
1, 42740, Note_on_c, 0, 59, 87
1, 42740, Note_on_c, 0, 71, 92
1, 42744, Note_on_c, 0, 35, 106
1, 42744, Note_on_c, 0, 47, 89
1, 42744, Control_c, 0, 64, 0
1, 42844, Control_c, 0, 64, 127
1, 43000, Note_off_c, 0, 59, 64
1, 43012, Note_off_c, 0, 47, 64
1, 43020, Note_on_c, 0, 61, 72
1, 43028, Note_on_c, 0, 49, 58
1, 43032, Control_c, 0, 64, 0
1, 43116, Note_on_c, 0, 59, 72
1, 43116, Note_on_c, 0, 47, 65
1, 43144, Note_off_c, 0, 61, 64
1, 43152, Note_off_c, 0, 49, 64
1, 43208, Note_on_c, 0, 64, 57
1, 43212, Note_on_c, 0, 52, 73
1, 43240, Note_off_c, 0, 59, 64
1, 43240, Note_off_c, 0, 47, 64
1, 43316, Note_on_c, 0, 66, 52
1, 43316, Note_on_c, 0, 54, 75
1, 43328, Note_off_c, 0, 64, 64
1, 43336, Note_off_c, 0, 52, 64
1, 43412, Note_on_c, 0, 67, 75
1, 43412, Note_on_c, 0, 55, 75
1, 43440, Note_off_c, 0, 66, 64
1, 43440, Note_off_c, 0, 54, 64
1, 43508, Note_on_c, 0, 63, 57
1, 43508, Note_on_c, 0, 51, 52
1, 43536, Note_off_c, 0, 67, 64
1, 43536, Note_off_c, 0, 55, 64
1, 43596, Note_on_c, 0, 64, 65
1, 43596, Note_on_c, 0, 52, 48
1, 43608, Note_off_c, 0, 71, 64
1, 43632, Note_off_c, 0, 63, 64
1, 43632, Note_off_c, 0, 51, 64
1, 43688, Note_on_c, 0, 67, 50
1, 43692, Note_on_c, 0, 55, 56
1, 43728, Control_c, 0, 64, 127
1, 43736, Note_off_c, 0, 64, 64
1, 43736, Note_off_c, 0, 52, 64
1, 43796, Note_on_c, 0, 59, 39
1, 43796, Note_on_c, 0, 71, 48
1, 43808, Note_off_c, 0, 67, 64
1, 43816, Note_off_c, 0, 55, 64
1, 43892, Note_on_c, 0, 73, 52
1, 43892, Note_on_c, 0, 61, 59
1, 43920, Note_off_c, 0, 59, 64
1, 43920, Note_off_c, 0, 71, 64
1, 43944, Note_off_c, 0, 35, 64
1, 43980, Note_on_c, 0, 75, 55
1, 43988, Note_on_c, 0, 63, 57
1, 44016, Note_off_c, 0, 73, 64
1, 44016, Note_off_c, 0, 61, 64
1, 44068, Control_c, 0, 64, 0
1, 44076, Note_on_c, 0, 70, 42
1, 44076, Note_on_c, 0, 58, 35
1, 44104, Note_off_c, 0, 75, 64
1, 44112, Note_off_c, 0, 63, 64
1, 44180, Note_on_c, 0, 71, 55
1, 44180, Note_on_c, 0, 59, 40
1, 44200, Note_off_c, 0, 70, 64
1, 44200, Note_off_c, 0, 58, 64
1, 44276, Note_on_c, 0, 75, 44
1, 44280, Note_on_c, 0, 63, 52
1, 44304, Note_off_c, 0, 71, 64
1, 44304, Note_off_c, 0, 59, 64
1, 44364, Note_on_c, 0, 76, 42
1, 44364, Note_on_c, 0, 64, 48
1, 44436, Note_off_c, 0, 75, 64
1, 44444, Note_off_c, 0, 63, 64
1, 44472, Note_on_c, 0, 78, 47
1, 44472, Note_on_c, 0, 66, 50
1, 44504, Note_off_c, 0, 76, 64
1, 44504, Note_off_c, 0, 64, 64
1, 44564, Note_on_c, 0, 79, 55
1, 44564, Note_on_c, 0, 67, 57
1, 44596, Note_off_c, 0, 66, 64
1, 44596, Note_off_c, 0, 78, 64
1, 44672, Note_on_c, 0, 75, 41
1, 44680, Note_on_c, 0, 63, 40
1, 44704, Note_off_c, 0, 79, 64
1, 44704, Note_off_c, 0, 67, 64
1, 44776, Note_on_c, 0, 76, 41
1, 44776, Note_on_c, 0, 64, 27
1, 44796, Note_off_c, 0, 75, 64
1, 44800, Note_off_c, 0, 63, 64
1, 44864, Note_on_c, 0, 79, 28
1, 44872, Note_on_c, 0, 67, 41
1, 44896, Note_off_c, 0, 76, 64
1, 44896, Note_off_c, 0, 64, 64
1, 44960, Note_on_c, 0, 71, 40
1, 44968, Note_on_c, 0, 83, 31
1, 44988, Note_off_c, 0, 79, 64
1, 44992, Note_off_c, 0, 67, 64
1, 45056, Note_on_c, 0, 85, 36
1, 45056, Note_on_c, 0, 73, 41
1, 45084, Note_off_c, 0, 71, 64
1, 45088, Note_off_c, 0, 83, 64
1, 45140, Note_on_c, 0, 75, 35
1, 45144, Note_on_c, 0, 87, 31
1, 45180, Note_off_c, 0, 85, 64
1, 45180, Note_off_c, 0, 73, 64
1, 45220, Control_c, 0, 64, 127
1, 45696, Note_off_c, 0, 75, 64
1, 45700, Note_off_c, 0, 87, 64
1, 45728, Control_c, 0, 64, 0
1, 45784, Control_c, 0, 64, 127
1, 45808, Note_on_c, 0, 64, 58
1, 45808, Note_on_c, 0, 35, 51
1, 45812, Note_on_c, 0, 61, 54
1, 45816, Note_on_c, 0, 54, 51
1, 45816, Note_on_c, 0, 47, 56
1, 45888, Note_off_c, 0, 47, 64
1, 45896, Note_on_c, 0, 63, 62
1, 45900, Note_off_c, 0, 35, 64
1, 45900, Note_on_c, 0, 59, 58
1, 45904, Note_off_c, 0, 64, 64
1, 45936, Note_off_c, 0, 54, 64
1, 45944, Note_off_c, 0, 61, 64
1, 45960, Note_off_c, 0, 59, 64
1, 45964, Note_off_c, 0, 63, 64
1, 45996, Note_on_c, 0, 54, 63
1, 45996, Note_on_c, 0, 47, 55
1, 45996, Note_on_c, 0, 35, 48
1, 46000, Note_on_c, 0, 59, 63
1, 46004, Note_on_c, 0, 63, 65
1, 46008, Control_c, 0, 64, 0
1, 46064, Control_c, 0, 64, 127
1, 46080, Note_off_c, 0, 35, 64
1, 46092, Note_off_c, 0, 47, 64
1, 46204, Note_off_c, 0, 63, 64
1, 46220, Note_off_c, 0, 54, 64
1, 46220, Note_off_c, 0, 59, 64
1, 46472, Note_on_c, 0, 54, 46
1, 46476, Note_on_c, 0, 64, 51
1, 46476, Note_on_c, 0, 61, 46
1, 46476, Note_on_c, 0, 47, 56
1, 46484, Note_on_c, 0, 35, 49
1, 46548, Note_on_c, 0, 63, 51
1, 46552, Note_off_c, 0, 47, 64
1, 46564, Note_on_c, 0, 59, 49
1, 46568, Note_off_c, 0, 35, 64
1, 46580, Note_off_c, 0, 64, 64
1, 46604, Note_off_c, 0, 61, 64
1, 46616, Note_off_c, 0, 54, 64
1, 46632, Note_off_c, 0, 59, 64
1, 46644, Note_off_c, 0, 63, 64
1, 46664, Note_on_c, 0, 54, 56
1, 46676, Note_on_c, 0, 63, 57
1, 46680, Note_on_c, 0, 59, 60
1, 46680, Note_on_c, 0, 47, 49
1, 46688, Note_on_c, 0, 35, 49
1, 46700, Control_c, 0, 64, 0
1, 46776, Control_c, 0, 64, 127
1, 46800, Note_off_c, 0, 35, 64
1, 46812, Note_off_c, 0, 47, 64
1, 46884, Note_off_c, 0, 54, 64
1, 46896, Note_off_c, 0, 63, 64
1, 46896, Note_off_c, 0, 59, 64
1, 47172, Control_c, 0, 64, 0
1, 47180, Note_on_c, 0, 54, 43
1, 47188, Note_on_c, 0, 47, 50
1, 47188, Note_on_c, 0, 35, 46
1, 47188, Note_on_c, 0, 64, 47
1, 47188, Note_on_c, 0, 61, 47
1, 47208, Control_c, 0, 64, 127
1, 47276, Note_off_c, 0, 35, 64
1, 47280, Note_off_c, 0, 47, 64
1, 47284, Note_on_c, 0, 63, 47
1, 47296, Note_on_c, 0, 59, 41
1, 47304, Note_off_c, 0, 64, 64
1, 47328, Note_off_c, 0, 54, 64
1, 47328, Note_off_c, 0, 61, 64
1, 47352, Note_off_c, 0, 59, 64
1, 47368, Note_off_c, 0, 63, 64
1, 47384, Note_on_c, 0, 35, 44
1, 47396, Note_on_c, 0, 63, 41
1, 47400, Note_on_c, 0, 54, 27
1, 47400, Note_on_c, 0, 47, 42
1, 47404, Note_on_c, 0, 59, 47
1, 47448, Control_c, 0, 64, 0
1, 47536, Control_c, 0, 64, 127
1, 47812, Note_off_c, 0, 35, 64
1, 47820, Note_off_c, 0, 63, 64
1, 47824, Note_off_c, 0, 47, 64
1, 47824, Note_off_c, 0, 54, 64
1, 47828, Note_off_c, 0, 59, 64
1, 48104, Control_c, 0, 64, 0
1, 48104, End_track
2, 0, Start_track
2, 1, Copyright_t, "__________________________________________________________\012\012KUNSTDERFUGE.COM GREAT CLASSICAL MIDI COLLECTION\012__________________________________________________________\012\012KUNST-DER-FUGE CONTRIBUTOR's PROPERTY\012Copyright by Contributor & Kunst der Fuge, © 2006\012\012Contributors' list: http://kunstderfuge.com/thanks.htm\012Terms and conditions: http://kunstderfuge.com/notes.htm\012__________________________________________________________\012\012NO WEBSITE MAY PUBLISH THIS FILE WITHOUT PERMISSION\012NO COMMERCIAL USE ALLOWED, NOR BY SALES NOR by eBay!\012PLEASE REPORT ANY ABUSE TO INFO@ONCLASSICAL.COM\012__________________________________________________________\012\012Thousands of free classical MIDI files at kunstderfuge.com"
2, 1, End_track
0, 0, End_of_file
