0, 0, Header, 1, 4, 384
1, 0, Start_track
1, 0, Sequencer_specific, 13, 5, 15, 28, 50, 48, 48, 56, 46, 48, 49, 46, 48, 49
1, 0, Sequencer_specific, 10, 5, 15, 18, 0, 0, 107, 0, 0, 127, 1
1, 0, Tempo, 500000
1, 0, End_track
2, 0, Start_track
2, 0, Sequencer_specific, 5, 5, 15, 9, 64, 72
2, 0, Sequencer_specific, 15, 5, 15, 6, 71, 101, 110, 101, 114, 97, 108, 32, 77, 73, 68, 73
2, 0, Channel_prefix, 0
2, 0, Title_t, "Chopin's Mazurkas (played by © Ron Lubetsky)"
2, 0, Control_c, 0, 0, 0
2, 0, Program_c, 0, 0
2, 0, Sequencer_specific, 3, 0, 0, 65
2, 180, Control_c, 0, 64, 0
2, 208, Note_on_c, 0, 47, 56
2, 90366, Note_off_c, 0, 47, 0
2, 90366, End_track
3, 0, Start_track
3, 0, Sequencer_specific, 5, 5, 15, 9, 0, 64
3, 0, Sequencer_specific, 15, 5, 15, 6, 71, 101, 110, 101, 114, 97, 108, 32, 77, 73, 68, 73
3, 1, Copyright_t, "__________________________________________________________\012\012KUNSTDERFUGE.COM GREAT CLASSICAL MIDI COLLECTION\012__________________________________________________________\012\012KUNST-DER-FUGE CONTRIBUTOR's PROPERTY\012Copyright by Contributor & Kunst der Fuge, © 2006\012\012Contributors' list: http://kunstderfuge.com/thanks.htm\012Terms and conditions: http://kunstderfuge.com/notes.htm\012__________________________________________________________\012\012NO WEBSITE MAY PUBLISH THIS FILE WITHOUT PERMISSION\012NO COMMERCIAL USE ALLOWED, NOR BY SALES NOR by eBay!\012PLEASE REPORT ANY ABUSE TO INFO@ONCLASSICAL.COM\012__________________________________________________________\012\012Thousands of free classical MIDI files at kunstderfuge.com"
3, 1, End_track
4, 0, Start_track
4, 0, Sequencer_specific, 5, 5, 15, 9, 0, 64
4, 0, Sequencer_specific, 15, 5, 15, 6, 71, 101, 110, 101, 114, 97, 108, 32, 77, 73, 68, 73
4, 0, Program_c, 0, 0
4, 0, Title_t, "Track 3"
4, 0, Channel_prefix, 0
4, 208, Note_on_c, 0, 35, 56
4, 212, Note_on_c, 0, 63, 60
4, 212, Note_on_c, 0, 59, 61
4, 212, Note_on_c, 0, 54, 61
4, 292, Control_c, 0, 64, 127
4, 536, Note_off_c, 0, 54, 64
4, 536, Note_off_c, 0, 59, 64
4, 536, Note_off_c, 0, 63, 64
4, 536, Note_off_c, 0, 35, 64
4, 584, Note_on_c, 0, 54, 70
4, 692, Note_on_c, 0, 59, 56
4, 752, Note_off_c, 0, 54, 64
4, 836, Note_on_c, 0, 63, 41
4, 888, Note_off_c, 0, 59, 64
4, 944, Note_on_c, 0, 64, 56
4, 948, Note_on_c, 0, 61, 46
4, 976, Note_off_c, 0, 63, 64
4, 1076, Note_on_c, 0, 65, 64
4, 1088, Note_on_c, 0, 62, 67
4, 1092, Control_c, 0, 64, 0
4, 1132, Note_off_c, 0, 64, 64
4, 1136, Note_off_c, 0, 61, 64
4, 1144, Control_c, 0, 64, 127
4, 1244, Note_off_c, 0, 62, 64
4, 1280, Note_off_c, 0, 65, 64
4, 1292, Note_on_c, 0, 56, 60
4, 1348, Note_off_c, 0, 56, 64
4, 1352, Control_c, 0, 64, 0
4, 1360, Note_on_c, 0, 62, 60
4, 1360, Note_on_c, 0, 65, 64
4, 1360, Note_on_c, 0, 47, 56
4, 1368, Note_on_c, 0, 56, 60
4, 1416, Control_c, 0, 64, 127
4, 1636, Note_on_c, 0, 63, 53
4, 1644, Note_off_c, 0, 47, 64
4, 1656, Note_on_c, 0, 66, 59
4, 1656, Note_on_c, 0, 47, 54
4, 1656, Control_c, 0, 64, 0
4, 1668, Note_off_c, 0, 65, 64
4, 1668, Note_off_c, 0, 62, 64
4, 1672, Note_on_c, 0, 54, 64
4, 1676, Note_off_c, 0, 56, 64
4, 1704, Control_c, 0, 64, 127
4, 1920, Note_on_c, 0, 40, 46
4, 1932, Note_off_c, 0, 47, 64
4, 1944, Note_off_c, 0, 63, 64
4, 1956, Note_on_c, 0, 47, 52
4, 1968, Note_off_c, 0, 66, 64
4, 1984, Note_off_c, 0, 54, 64
4, 2004, Note_on_c, 0, 56, 61
4, 2048, Note_on_c, 0, 64, 57
4, 2056, Control_c, 0, 64, 0
4, 2084, Note_on_c, 0, 71, 61
4, 2116, Control_c, 0, 64, 127
4, 2128, Note_off_c, 0, 40, 64
4, 2140, Note_off_c, 0, 47, 64
4, 2276, Note_off_c, 0, 56, 64
4, 2320, Note_off_c, 0, 64, 64
4, 2356, Note_off_c, 0, 71, 64
4, 2396, Note_on_c, 0, 59, 50
4, 2508, Note_on_c, 0, 68, 61
4, 2512, Note_on_c, 0, 71, 58
4, 2568, Note_off_c, 0, 59, 64
4, 2672, Note_on_c, 0, 70, 67
4, 2672, Note_on_c, 0, 66, 64
4, 2688, Note_off_c, 0, 68, 64
4, 2696, Note_off_c, 0, 71, 64
4, 2728, Note_on_c, 0, 71, 60
4, 2760, Note_off_c, 0, 66, 64
4, 2760, Note_off_c, 0, 70, 64
4, 2764, Note_on_c, 0, 59, 50
4, 2764, Note_on_c, 0, 52, 51
4, 2768, Note_on_c, 0, 70, 65
4, 2768, Note_on_c, 0, 66, 60
4, 2820, Note_off_c, 0, 71, 64
4, 2900, Note_on_c, 0, 68, 54
4, 2904, Note_on_c, 0, 64, 64
4, 2908, Note_off_c, 0, 66, 64
4, 2908, Note_off_c, 0, 70, 64
4, 3040, Note_off_c, 0, 52, 64
4, 3040, Note_off_c, 0, 59, 64
4, 3044, Note_on_c, 0, 62, 65
4, 3048, Note_on_c, 0, 65, 60
4, 3064, Note_off_c, 0, 64, 64
4, 3064, Control_c, 0, 64, 0
4, 3068, Note_off_c, 0, 68, 64
4, 3100, Control_c, 0, 64, 127
4, 3188, Note_off_c, 0, 62, 64
4, 3192, Note_off_c, 0, 65, 64
4, 3272, Note_on_c, 0, 56, 50
4, 3320, Note_off_c, 0, 56, 64
4, 3320, Note_on_c, 0, 62, 59
4, 3324, Note_on_c, 0, 65, 56
4, 3328, Note_on_c, 0, 56, 59
4, 3332, Note_on_c, 0, 47, 59
4, 3348, Control_c, 0, 64, 0
4, 3412, Control_c, 0, 64, 127
4, 3604, Note_off_c, 0, 47, 64
4, 3620, Note_on_c, 0, 54, 59
4, 3628, Note_on_c, 0, 66, 64
4, 3632, Note_on_c, 0, 47, 55
4, 3636, Note_on_c, 0, 63, 60
4, 3652, Note_off_c, 0, 56, 64
4, 3652, Note_off_c, 0, 62, 64
4, 3656, Note_off_c, 0, 65, 64
4, 3904, Note_off_c, 0, 47, 64
4, 3940, Note_on_c, 0, 58, 56
4, 3948, Note_off_c, 0, 54, 64
4, 3948, Note_on_c, 0, 68, 62
4, 3952, Note_on_c, 0, 64, 62
4, 3964, Note_on_c, 0, 30, 55
4, 3968, Control_c, 0, 64, 0
4, 3972, Note_off_c, 0, 66, 64
4, 3972, Note_on_c, 0, 42, 59
4, 3980, Note_off_c, 0, 63, 64
4, 4004, Control_c, 0, 64, 127
4, 4260, Note_on_c, 0, 54, 57
4, 4264, Note_off_c, 0, 58, 64
4, 4272, Note_off_c, 0, 68, 64
4, 4276, Note_off_c, 0, 64, 64
4, 4288, Note_off_c, 0, 30, 64
4, 4296, Note_off_c, 0, 42, 64
4, 4392, Note_on_c, 0, 68, 58
4, 4416, Note_off_c, 0, 54, 64
4, 4512, Note_on_c, 0, 66, 51
4, 4512, Note_on_c, 0, 63, 48
4, 4548, Note_off_c, 0, 68, 64
4, 4556, Note_on_c, 0, 68, 52
4, 4576, Note_off_c, 0, 63, 64
4, 4576, Note_off_c, 0, 66, 64
4, 4584, Control_c, 0, 64, 0
4, 4588, Note_on_c, 0, 54, 50
4, 4588, Note_on_c, 0, 58, 47
4, 4588, Note_on_c, 0, 63, 63
4, 4588, Note_on_c, 0, 66, 67
4, 4592, Note_on_c, 0, 42, 46
4, 4648, Note_off_c, 0, 68, 64
4, 4728, Note_off_c, 0, 66, 64
4, 4728, Note_off_c, 0, 63, 64
4, 4748, Control_c, 0, 64, 127
4, 4760, Note_on_c, 0, 64, 51
4, 4760, Note_on_c, 0, 61, 56
4, 4860, Note_off_c, 0, 58, 64
4, 4912, Note_off_c, 0, 54, 64
4, 4912, Note_on_c, 0, 62, 65
4, 4916, Note_on_c, 0, 58, 75
4, 4920, Note_off_c, 0, 42, 64
4, 4924, Note_off_c, 0, 61, 64
4, 4924, Note_off_c, 0, 64, 64
4, 4948, Control_c, 0, 64, 0
4, 4972, Control_c, 0, 64, 127
4, 5116, Note_off_c, 0, 62, 64
4, 5120, Note_off_c, 0, 58, 64
4, 5128, Note_on_c, 0, 51, 60
4, 5184, Note_on_c, 0, 58, 76
4, 5192, Note_on_c, 0, 62, 65
4, 5208, Note_on_c, 0, 44, 57
4, 5224, Control_c, 0, 64, 0
4, 5228, Note_off_c, 0, 51, 64
4, 5264, Control_c, 0, 64, 127
4, 5496, Note_off_c, 0, 44, 64
4, 5504, Note_on_c, 0, 63, 65
4, 5504, Note_on_c, 0, 59, 65
4, 5504, Note_on_c, 0, 54, 65
4, 5508, Note_on_c, 0, 51, 56
4, 5508, Note_on_c, 0, 44, 56
4, 5516, Note_off_c, 0, 58, 64
4, 5528, Note_off_c, 0, 62, 64
4, 5528, Control_c, 0, 64, 0
4, 5576, Control_c, 0, 64, 127
4, 5780, Note_off_c, 0, 54, 64
4, 5780, Note_off_c, 0, 59, 64
4, 5780, Note_off_c, 0, 63, 64
4, 5784, Note_off_c, 0, 44, 64
4, 5784, Note_off_c, 0, 51, 64
4, 5824, Note_on_c, 0, 37, 60
4, 5832, Note_on_c, 0, 63, 61
4, 5832, Note_on_c, 0, 59, 59
4, 5856, Control_c, 0, 64, 0
4, 5896, Control_c, 0, 64, 127
4, 6124, Note_on_c, 0, 49, 44
4, 6124, Note_on_c, 0, 56, 52
4, 6128, Note_on_c, 0, 53, 49
4, 6148, Note_off_c, 0, 37, 64
4, 6156, Note_off_c, 0, 63, 64
4, 6156, Note_off_c, 0, 59, 64
4, 6244, Note_off_c, 0, 56, 64
4, 6244, Note_off_c, 0, 49, 64
4, 6296, Note_on_c, 0, 59, 50
4, 6304, Note_on_c, 0, 63, 72
4, 6336, Note_off_c, 0, 53, 64
4, 6384, Note_off_c, 0, 63, 64
4, 6384, Note_off_c, 0, 59, 64
4, 6428, Note_on_c, 0, 63, 72
4, 6428, Note_on_c, 0, 59, 60
4, 6460, Note_on_c, 0, 65, 64
4, 6476, Note_off_c, 0, 59, 64
4, 6476, Note_off_c, 0, 63, 64
4, 6480, Control_c, 0, 64, 0
4, 6484, Note_on_c, 0, 59, 64
4, 6496, Note_on_c, 0, 63, 73
4, 6508, Control_c, 0, 64, 127
4, 6544, Note_off_c, 0, 65, 64
4, 6608, Note_off_c, 0, 59, 64
4, 6616, Note_off_c, 0, 63, 64
4, 6672, Note_on_c, 0, 58, 64
4, 6676, Note_on_c, 0, 61, 68
4, 6752, Note_on_c, 0, 42, 61
4, 6760, Note_on_c, 0, 68, 64
4, 6760, Note_on_c, 0, 64, 65
4, 6764, Note_off_c, 0, 58, 64
4, 6772, Note_off_c, 0, 61, 64
4, 6784, Control_c, 0, 64, 0
4, 6820, Control_c, 0, 64, 127
4, 6912, Note_off_c, 0, 68, 64
4, 6944, Note_on_c, 0, 71, 67
4, 6944, Note_on_c, 0, 68, 65
4, 6956, Note_off_c, 0, 64, 64
4, 7096, Note_on_c, 0, 61, 65
4, 7096, Note_on_c, 0, 58, 67
4, 7112, Note_on_c, 0, 54, 52
4, 7136, Note_off_c, 0, 42, 64
4, 7136, Control_c, 0, 64, 0
4, 7140, Note_off_c, 0, 68, 64
4, 7140, Note_off_c, 0, 71, 64
4, 7152, Control_c, 0, 64, 127
4, 7296, Note_off_c, 0, 58, 64
4, 7296, Note_off_c, 0, 61, 64
4, 7308, Note_off_c, 0, 54, 64
4, 7408, Note_on_c, 0, 68, 65
4, 7412, Note_on_c, 0, 64, 61
4, 7416, Note_on_c, 0, 61, 50
4, 7416, Note_on_c, 0, 58, 50
4, 7416, Note_on_c, 0, 54, 51
4, 7732, Note_off_c, 0, 68, 64
4, 7736, Note_off_c, 0, 64, 64
4, 7740, Note_off_c, 0, 61, 64
4, 7740, Note_off_c, 0, 58, 64
4, 7740, Note_off_c, 0, 54, 64
4, 7776, Note_on_c, 0, 75, 64
4, 7784, Note_on_c, 0, 66, 61
4, 7784, Note_on_c, 0, 47, 37
4, 7784, Note_on_c, 0, 35, 54
4, 7792, Note_on_c, 0, 63, 53
4, 7816, Control_c, 0, 64, 0
4, 7852, Control_c, 0, 64, 127
4, 8052, Note_off_c, 0, 75, 64
4, 8060, Note_off_c, 0, 35, 64
4, 8060, Note_off_c, 0, 47, 64
4, 8060, Note_off_c, 0, 66, 64
4, 8068, Note_off_c, 0, 63, 64
4, 8088, Note_on_c, 0, 59, 52
4, 8096, Note_on_c, 0, 63, 52
4, 8096, Note_on_c, 0, 54, 44
4, 8100, Note_on_c, 0, 66, 67
4, 8236, Note_on_c, 0, 75, 51
4, 8236, Note_on_c, 0, 71, 51
4, 8264, Note_off_c, 0, 66, 64
4, 8284, Note_off_c, 0, 59, 64
4, 8292, Note_off_c, 0, 54, 64
4, 8292, Note_off_c, 0, 63, 64
4, 8364, Note_on_c, 0, 76, 54
4, 8364, Note_on_c, 0, 73, 54
4, 8384, Note_off_c, 0, 71, 64
4, 8384, Note_off_c, 0, 75, 64
4, 8480, Note_off_c, 0, 73, 64
4, 8480, Note_off_c, 0, 76, 64
4, 8556, Note_on_c, 0, 77, 61
4, 8564, Note_on_c, 0, 74, 61
4, 8608, Note_off_c, 0, 74, 64
4, 8612, Note_off_c, 0, 77, 64
4, 8656, Note_on_c, 0, 47, 55
4, 8668, Note_on_c, 0, 77, 67
4, 8668, Note_on_c, 0, 74, 70
4, 8680, Control_c, 0, 64, 0
4, 8724, Control_c, 0, 64, 127
4, 8792, Note_on_c, 0, 68, 64
4, 8860, Note_off_c, 0, 74, 64
4, 8888, Note_off_c, 0, 77, 64
4, 8952, Note_on_c, 0, 74, 55
4, 8952, Note_on_c, 0, 59, 32
4, 8956, Note_on_c, 0, 77, 62
4, 8956, Note_on_c, 0, 56, 41
4, 8960, Note_on_c, 0, 62, 50
4, 8980, Control_c, 0, 64, 0
4, 8988, Note_off_c, 0, 68, 64
4, 9036, Control_c, 0, 64, 127
4, 9120, Note_off_c, 0, 47, 64
4, 9256, Note_off_c, 0, 59, 64
4, 9272, Note_on_c, 0, 63, 49
4, 9276, Note_off_c, 0, 74, 64
4, 9276, Note_on_c, 0, 78, 67
4, 9276, Note_on_c, 0, 75, 64
4, 9276, Note_on_c, 0, 59, 54
4, 9280, Note_off_c, 0, 77, 64
4, 9280, Note_off_c, 0, 56, 64
4, 9280, Note_on_c, 0, 66, 60
4, 9280, Note_on_c, 0, 54, 56
4, 9284, Note_off_c, 0, 62, 64
4, 9464, Note_on_c, 0, 68, 64
4, 9468, Note_off_c, 0, 63, 64
4, 9472, Note_off_c, 0, 59, 64
4, 9472, Note_off_c, 0, 75, 64
4, 9472, Note_off_c, 0, 78, 64
4, 9476, Note_off_c, 0, 54, 64
4, 9476, Note_off_c, 0, 66, 64
4, 9512, Note_off_c, 0, 68, 64
4, 9572, Note_on_c, 0, 68, 72
4, 9628, Note_on_c, 0, 76, 61
4, 9656, Note_on_c, 0, 52, 48
4, 9664, Note_on_c, 0, 83, 76
4, 9664, Note_on_c, 0, 40, 44
4, 9668, Control_c, 0, 64, 0
4, 9728, Control_c, 0, 64, 127
4, 9960, Note_off_c, 0, 68, 64
4, 10016, Note_off_c, 0, 76, 64
4, 10048, Note_off_c, 0, 83, 64
4, 10060, Note_on_c, 0, 64, 51
4, 10060, Note_on_c, 0, 56, 55
4, 10060, Note_on_c, 0, 68, 40
4, 10064, Note_on_c, 0, 59, 55
4, 10068, Note_on_c, 0, 71, 51
4, 10196, Note_on_c, 0, 80, 75
4, 10200, Note_on_c, 0, 83, 60
4, 10252, Note_off_c, 0, 52, 64
4, 10256, Note_off_c, 0, 40, 64
4, 10352, Note_on_c, 0, 82, 67
4, 10352, Note_on_c, 0, 78, 67
4, 10364, Note_off_c, 0, 80, 64
4, 10368, Note_off_c, 0, 83, 64
4, 10384, Note_off_c, 0, 68, 64
4, 10384, Note_off_c, 0, 56, 64
4, 10384, Note_off_c, 0, 64, 64
4, 10392, Note_off_c, 0, 71, 64
4, 10392, Note_off_c, 0, 59, 64
4, 10400, Note_on_c, 0, 83, 64
4, 10416, Note_off_c, 0, 78, 64
4, 10416, Note_off_c, 0, 82, 64
4, 10448, Note_on_c, 0, 82, 69
4, 10448, Note_on_c, 0, 78, 76
4, 10508, Note_off_c, 0, 83, 64
4, 10560, Note_on_c, 0, 76, 60
4, 10560, Note_on_c, 0, 80, 56
4, 10564, Note_off_c, 0, 78, 64
4, 10564, Note_off_c, 0, 82, 64
4, 10704, Note_on_c, 0, 74, 72
4, 10708, Note_on_c, 0, 77, 64
4, 10724, Note_off_c, 0, 80, 64
4, 10724, Note_off_c, 0, 76, 64
4, 10736, Note_on_c, 0, 47, 59
4, 10768, Control_c, 0, 64, 0
4, 10792, Control_c, 0, 64, 127
4, 10880, Note_off_c, 0, 74, 64
4, 10888, Note_off_c, 0, 77, 64
4, 10896, Note_on_c, 0, 68, 62
4, 10968, Note_on_c, 0, 59, 51
4, 10968, Note_on_c, 0, 56, 49
4, 10976, Note_on_c, 0, 74, 59
4, 10976, Note_on_c, 0, 62, 39
4, 10976, Note_on_c, 0, 77, 60
4, 11020, Note_off_c, 0, 68, 64
4, 11020, Control_c, 0, 64, 0
4, 11060, Control_c, 0, 64, 127
4, 11220, Note_off_c, 0, 47, 64
4, 11260, Note_off_c, 0, 59, 64
4, 11272, Note_on_c, 0, 78, 62
4, 11276, Note_on_c, 0, 66, 60
4, 11276, Note_on_c, 0, 75, 60
4, 11280, Note_on_c, 0, 59, 48
4, 11280, Note_on_c, 0, 54, 49
4, 11288, Note_on_c, 0, 63, 48
4, 11292, Note_off_c, 0, 56, 64
4, 11300, Note_off_c, 0, 77, 64
4, 11300, Note_off_c, 0, 62, 64
4, 11300, Note_off_c, 0, 74, 64
4, 11308, Control_c, 0, 64, 0
4, 11356, Control_c, 0, 64, 127
4, 11612, Note_off_c, 0, 63, 64
4, 11616, Note_off_c, 0, 54, 64
4, 11616, Note_off_c, 0, 59, 64
4, 11616, Note_on_c, 0, 42, 58
4, 11620, Note_on_c, 0, 80, 61
4, 11620, Note_on_c, 0, 76, 61
4, 11620, Note_on_c, 0, 70, 60
4, 11620, Note_on_c, 0, 54, 53
4, 11624, Note_off_c, 0, 75, 64
4, 11628, Note_off_c, 0, 66, 64
4, 11632, Note_off_c, 0, 78, 64
4, 11920, Note_off_c, 0, 42, 64
4, 11924, Note_off_c, 0, 54, 64
4, 11924, Note_off_c, 0, 70, 64
4, 11924, Note_off_c, 0, 76, 64
4, 11924, Note_off_c, 0, 80, 64
4, 11996, Note_on_c, 0, 66, 60
4, 12004, Note_on_c, 0, 54, 52
4, 12008, Note_on_c, 0, 64, 51
4, 12008, Note_on_c, 0, 61, 54
4, 12108, Note_off_c, 0, 61, 64
4, 12108, Note_off_c, 0, 54, 64
4, 12124, Note_off_c, 0, 64, 64
4, 12188, Note_on_c, 0, 80, 60
4, 12188, Note_on_c, 0, 76, 60
4, 12188, Note_on_c, 0, 70, 73
4, 12200, Note_off_c, 0, 66, 64
4, 12300, Note_on_c, 0, 78, 68
4, 12300, Note_on_c, 0, 75, 61
4, 12316, Note_off_c, 0, 80, 64
4, 12316, Note_off_c, 0, 76, 64
4, 12316, Note_off_c, 0, 70, 64
4, 12344, Note_on_c, 0, 80, 62
4, 12360, Note_off_c, 0, 75, 64
4, 12360, Note_off_c, 0, 78, 64
4, 12388, Note_on_c, 0, 78, 70
4, 12388, Note_on_c, 0, 75, 75
4, 12388, Note_on_c, 0, 70, 79
4, 12416, Note_off_c, 0, 80, 64
4, 12584, Note_off_c, 0, 70, 64
4, 12584, Note_off_c, 0, 75, 64
4, 12584, Note_off_c, 0, 78, 64
4, 12600, Note_on_c, 0, 76, 52
4, 12600, Note_on_c, 0, 73, 52
4, 12632, Control_c, 0, 64, 0
4, 12664, Note_on_c, 0, 70, 70
4, 12664, Note_on_c, 0, 74, 60
4, 12672, Note_off_c, 0, 73, 64
4, 12672, Note_off_c, 0, 76, 64
4, 12688, Note_on_c, 0, 44, 60
4, 12764, Control_c, 0, 64, 127
4, 12820, Note_off_c, 0, 74, 64
4, 12824, Note_off_c, 0, 70, 64
4, 12832, Note_on_c, 0, 63, 56
4, 12940, Note_on_c, 0, 74, 64
4, 12940, Note_on_c, 0, 56, 52
4, 12944, Note_on_c, 0, 70, 73
4, 12944, Note_on_c, 0, 59, 73
4, 12944, Note_on_c, 0, 51, 52
4, 12948, Note_off_c, 0, 63, 64
4, 12968, Control_c, 0, 64, 0
4, 13024, Control_c, 0, 64, 127
4, 13152, Note_off_c, 0, 44, 64
4, 13216, Note_off_c, 0, 56, 64
4, 13216, Note_off_c, 0, 74, 64
4, 13220, Note_off_c, 0, 59, 64
4, 13220, Note_off_c, 0, 70, 64
4, 13224, Note_off_c, 0, 51, 64
4, 13240, Note_on_c, 0, 51, 49
4, 13244, Note_on_c, 0, 59, 43
4, 13248, Note_on_c, 0, 75, 64
4, 13248, Note_on_c, 0, 63, 43
4, 13248, Note_on_c, 0, 56, 49
4, 13248, Note_on_c, 0, 71, 60
4, 13252, Note_on_c, 0, 66, 49
4, 13516, Note_off_c, 0, 51, 64
4, 13520, Note_off_c, 0, 59, 64
4, 13524, Note_off_c, 0, 71, 64
4, 13524, Note_off_c, 0, 56, 64
4, 13524, Note_off_c, 0, 63, 64
4, 13524, Note_off_c, 0, 75, 64
4, 13528, Note_off_c, 0, 66, 64
4, 13576, Note_on_c, 0, 75, 64
4, 13580, Note_on_c, 0, 65, 60
4, 13584, Note_on_c, 0, 71, 60
4, 13584, Note_on_c, 0, 49, 62
4, 13584, Note_on_c, 0, 37, 62
4, 13596, Control_c, 0, 64, 0
4, 13652, Control_c, 0, 64, 127
4, 13856, Note_off_c, 0, 75, 64
4, 13856, Note_off_c, 0, 65, 64
4, 13860, Note_off_c, 0, 71, 64
4, 13888, Note_on_c, 0, 68, 48
4, 13888, Note_on_c, 0, 61, 34
4, 13888, Note_on_c, 0, 56, 34
4, 13892, Note_on_c, 0, 65, 54
4, 14040, Note_on_c, 0, 71, 65
4, 14044, Note_off_c, 0, 49, 64
4, 14044, Note_off_c, 0, 37, 64
4, 14052, Note_on_c, 0, 75, 65
4, 14084, Note_off_c, 0, 56, 64
4, 14084, Note_off_c, 0, 61, 64
4, 14084, Note_off_c, 0, 68, 64
4, 14088, Note_off_c, 0, 65, 64
4, 14156, Note_off_c, 0, 71, 64
4, 14168, Note_off_c, 0, 75, 64
4, 14188, Note_on_c, 0, 75, 61
4, 14188, Note_on_c, 0, 71, 51
4, 14232, Note_on_c, 0, 77, 56
4, 14248, Note_off_c, 0, 71, 64
4, 14248, Note_off_c, 0, 75, 64
4, 14272, Note_on_c, 0, 71, 58
4, 14276, Note_on_c, 0, 75, 64
4, 14304, Note_off_c, 0, 77, 64
4, 14404, Note_on_c, 0, 73, 75
4, 14420, Note_off_c, 0, 71, 64
4, 14424, Note_off_c, 0, 75, 64
4, 14572, Note_on_c, 0, 42, 54
4, 14576, Note_on_c, 0, 72, 64
4, 14576, Note_on_c, 0, 71, 65
4, 14592, Note_off_c, 0, 73, 64
4, 14608, Control_c, 0, 64, 0
4, 14648, Control_c, 0, 64, 127
4, 14704, Note_off_c, 0, 71, 64
4, 14704, Note_off_c, 0, 72, 64
4, 14776, Note_on_c, 0, 70, 65
4, 14780, Note_on_c, 0, 73, 65
4, 14884, Note_on_c, 0, 78, 72
4, 14884, Note_on_c, 0, 61, 34
4, 14884, Note_on_c, 0, 54, 34
4, 14888, Note_off_c, 0, 70, 64
4, 14888, Note_on_c, 0, 66, 65
4, 14892, Note_off_c, 0, 73, 64
4, 14928, Control_c, 0, 64, 0
4, 14964, Control_c, 0, 64, 127
4, 14972, Note_off_c, 0, 54, 64
4, 14972, Note_off_c, 0, 61, 64
4, 15068, Note_on_c, 0, 70, 68
4, 15072, Note_off_c, 0, 42, 64
4, 15076, Note_off_c, 0, 66, 64
4, 15200, Note_on_c, 0, 71, 64
4, 15208, Note_on_c, 0, 61, 48
4, 15208, Note_on_c, 0, 54, 44
4, 15220, Note_off_c, 0, 70, 64
4, 15296, Note_off_c, 0, 54, 64
4, 15296, Note_off_c, 0, 61, 64
4, 15336, Note_on_c, 0, 75, 56
4, 15352, Note_off_c, 0, 71, 64
4, 15480, Note_on_c, 0, 73, 56
4, 15488, Note_on_c, 0, 54, 38
4, 15492, Note_on_c, 0, 61, 25
4, 15496, Note_on_c, 0, 68, 38
4, 15504, Note_off_c, 0, 75, 64
4, 15512, Control_c, 0, 64, 0
4, 15556, Control_c, 0, 64, 127
4, 15576, Note_off_c, 0, 54, 64
4, 15580, Note_off_c, 0, 61, 64
4, 15584, Note_off_c, 0, 68, 64
4, 15624, Note_on_c, 0, 77, 47
4, 15636, Note_off_c, 0, 78, 64
4, 15712, Note_off_c, 0, 73, 64
4, 15748, Note_on_c, 0, 75, 55
4, 15768, Note_on_c, 0, 71, 40
4, 15768, Note_on_c, 0, 68, 37
4, 15776, Note_off_c, 0, 77, 64
4, 15784, Note_on_c, 0, 61, 29
4, 15784, Note_on_c, 0, 54, 29
4, 15804, Control_c, 0, 64, 0
4, 15824, Control_c, 0, 64, 127
4, 15856, Note_off_c, 0, 68, 64
4, 15872, Note_off_c, 0, 54, 64
4, 15872, Note_off_c, 0, 61, 64
4, 15896, Note_on_c, 0, 77, 47
4, 15900, Note_off_c, 0, 75, 64
4, 15968, Note_off_c, 0, 71, 64
4, 16048, Note_on_c, 0, 61, 43
4, 16052, Note_on_c, 0, 78, 58
4, 16052, Note_on_c, 0, 70, 55
4, 16056, Note_on_c, 0, 54, 33
4, 16076, Note_off_c, 0, 77, 64
4, 16084, Control_c, 0, 64, 0
4, 16104, Control_c, 0, 64, 127
4, 16136, Note_off_c, 0, 61, 64
4, 16144, Note_off_c, 0, 54, 64
4, 16180, Note_on_c, 0, 75, 43
4, 16212, Note_off_c, 0, 78, 64
4, 16284, Note_off_c, 0, 70, 64
4, 16320, Note_on_c, 0, 73, 55
4, 16320, Note_on_c, 0, 71, 52
4, 16320, Note_on_c, 0, 68, 31
4, 16324, Note_on_c, 0, 61, 28
4, 16324, Note_on_c, 0, 54, 28
4, 16348, Note_off_c, 0, 75, 64
4, 16364, Control_c, 0, 64, 0
4, 16384, Control_c, 0, 64, 127
4, 16424, Note_off_c, 0, 61, 64
4, 16436, Note_off_c, 0, 54, 64
4, 16440, Note_off_c, 0, 68, 64
4, 16452, Note_on_c, 0, 77, 47
4, 16472, Note_off_c, 0, 73, 64
4, 16540, Note_off_c, 0, 71, 64
4, 16604, Note_on_c, 0, 78, 59
4, 16608, Note_on_c, 0, 70, 52
4, 16620, Note_on_c, 0, 54, 34
4, 16624, Note_on_c, 0, 61, 34
4, 16632, Note_off_c, 0, 77, 64
4, 16644, Control_c, 0, 64, 0
4, 16680, Control_c, 0, 64, 127
4, 16728, Note_off_c, 0, 61, 64
4, 16748, Note_off_c, 0, 54, 64
4, 16808, Note_off_c, 0, 70, 64
4, 16896, Note_on_c, 0, 70, 54
4, 16912, Note_on_c, 0, 54, 31
4, 16912, Control_c, 0, 64, 0
4, 16920, Note_on_c, 0, 61, 34
4, 16936, Control_c, 0, 64, 127
4, 17000, Note_off_c, 0, 61, 64
4, 17008, Note_off_c, 0, 54, 64
4, 17020, Note_on_c, 0, 80, 52
4, 17040, Note_off_c, 0, 78, 64
4, 17100, Note_off_c, 0, 70, 64
4, 17152, Note_on_c, 0, 78, 54
4, 17168, Note_off_c, 0, 80, 64
4, 17168, Note_on_c, 0, 68, 38
4, 17168, Note_on_c, 0, 61, 25
4, 17176, Note_on_c, 0, 71, 51
4, 17176, Note_on_c, 0, 54, 36
4, 17192, Control_c, 0, 64, 0
4, 17220, Control_c, 0, 64, 127
4, 17256, Note_off_c, 0, 61, 64
4, 17256, Note_off_c, 0, 68, 64
4, 17264, Note_off_c, 0, 54, 64
4, 17276, Note_on_c, 0, 77, 51
4, 17284, Note_off_c, 0, 78, 64
4, 17412, Note_on_c, 0, 75, 56
4, 17420, Note_on_c, 0, 68, 38
4, 17420, Note_on_c, 0, 54, 34
4, 17424, Note_on_c, 0, 61, 24
4, 17456, Note_off_c, 0, 77, 64
4, 17508, Note_off_c, 0, 54, 64
4, 17508, Note_off_c, 0, 68, 64
4, 17512, Note_off_c, 0, 61, 64
4, 17540, Note_off_c, 0, 71, 64
4, 17552, Note_on_c, 0, 77, 42
4, 17580, Note_off_c, 0, 75, 64
4, 17676, Control_c, 0, 64, 0
4, 17700, Note_on_c, 0, 78, 55
4, 17700, Note_on_c, 0, 70, 55
4, 17704, Note_on_c, 0, 54, 34
4, 17712, Note_on_c, 0, 61, 34
4, 17740, Note_off_c, 0, 77, 64
4, 17744, Control_c, 0, 64, 127
4, 17792, Note_off_c, 0, 54, 64
4, 17800, Note_off_c, 0, 61, 64
4, 17816, Note_on_c, 0, 75, 54
4, 17836, Note_off_c, 0, 70, 64
4, 17840, Note_off_c, 0, 78, 64
4, 17944, Control_c, 0, 64, 0
4, 17952, Note_on_c, 0, 73, 56
4, 17960, Note_off_c, 0, 75, 64
4, 17964, Note_on_c, 0, 71, 51
4, 17964, Note_on_c, 0, 68, 43
4, 17964, Note_on_c, 0, 61, 31
4, 17968, Note_on_c, 0, 54, 34
4, 18024, Control_c, 0, 64, 127
4, 18048, Note_off_c, 0, 71, 64
4, 18052, Note_off_c, 0, 61, 64
4, 18052, Note_off_c, 0, 68, 64
4, 18056, Note_off_c, 0, 54, 64
4, 18080, Note_on_c, 0, 77, 47
4, 18088, Note_off_c, 0, 73, 64
4, 18244, Control_c, 0, 64, 0
4, 18256, Note_on_c, 0, 78, 56
4, 18256, Note_on_c, 0, 70, 54
4, 18256, Note_on_c, 0, 54, 39
4, 18264, Note_on_c, 0, 61, 45
4, 18304, Note_off_c, 0, 77, 64
4, 18336, Control_c, 0, 64, 127
4, 18344, Note_off_c, 0, 54, 64
4, 18352, Note_off_c, 0, 61, 64
4, 18444, Note_off_c, 0, 70, 64
4, 18564, Note_on_c, 0, 61, 45
4, 18572, Note_on_c, 0, 54, 39
4, 18576, Note_on_c, 0, 69, 23
4, 18576, Control_c, 0, 64, 0
4, 18620, Control_c, 0, 64, 127
4, 18652, Note_off_c, 0, 61, 64
4, 18660, Note_off_c, 0, 54, 64
4, 18692, Note_on_c, 0, 76, 45
4, 18704, Note_off_c, 0, 78, 64
4, 18792, Note_off_c, 0, 76, 64
4, 18800, Note_off_c, 0, 69, 64
4, 18832, Note_on_c, 0, 76, 47
4, 18844, Note_on_c, 0, 69, 45
4, 18848, Control_c, 0, 64, 0
4, 18860, Note_on_c, 0, 59, 41
4, 18928, Control_c, 0, 64, 127
4, 18948, Note_off_c, 0, 59, 64
4, 18964, Note_on_c, 0, 75, 50
4, 18984, Note_off_c, 0, 76, 64
4, 19024, Note_off_c, 0, 69, 64
4, 19100, Note_on_c, 0, 66, 39
4, 19104, Note_on_c, 0, 73, 53
4, 19104, Note_on_c, 0, 69, 39
4, 19108, Note_on_c, 0, 59, 48
4, 19124, Control_c, 0, 64, 0
4, 19128, Note_off_c, 0, 75, 64
4, 19144, Control_c, 0, 64, 127
4, 19188, Note_off_c, 0, 66, 64
4, 19196, Note_off_c, 0, 59, 64
4, 19236, Note_on_c, 0, 75, 53
4, 19252, Note_off_c, 0, 73, 64
4, 19312, Note_off_c, 0, 69, 64
4, 19360, Note_on_c, 0, 68, 30
4, 19364, Note_on_c, 0, 76, 47
4, 19364, Note_on_c, 0, 59, 39
4, 19364, Note_on_c, 0, 52, 41
4, 19376, Note_off_c, 0, 75, 64
4, 19384, Control_c, 0, 64, 0
4, 19424, Control_c, 0, 64, 127
4, 19452, Note_off_c, 0, 52, 64
4, 19452, Note_off_c, 0, 59, 64
4, 19512, Note_on_c, 0, 73, 51
4, 19536, Note_off_c, 0, 76, 64
4, 19588, Note_off_c, 0, 68, 64
4, 19664, Note_on_c, 0, 71, 38
4, 19664, Note_on_c, 0, 69, 25
4, 19668, Note_on_c, 0, 66, 38
4, 19676, Note_on_c, 0, 59, 40
4, 19680, Note_off_c, 0, 73, 64
4, 19684, Control_c, 0, 64, 0
4, 19720, Control_c, 0, 64, 127
4, 19756, Note_off_c, 0, 66, 64
4, 19764, Note_off_c, 0, 59, 64
4, 19776, Note_on_c, 0, 75, 48
4, 19828, Note_off_c, 0, 69, 64
4, 19828, Note_off_c, 0, 71, 64
4, 19932, Control_c, 0, 64, 0
4, 19940, Note_on_c, 0, 52, 41
4, 19940, Note_on_c, 0, 68, 26
4, 19940, Note_on_c, 0, 76, 42
4, 19944, Note_on_c, 0, 59, 41
4, 19968, Note_off_c, 0, 75, 64
4, 20000, Control_c, 0, 64, 127
4, 20028, Note_off_c, 0, 52, 64
4, 20032, Note_off_c, 0, 59, 64
4, 20160, Note_off_c, 0, 68, 64
4, 20216, Note_on_c, 0, 68, 26
4, 20224, Note_on_c, 0, 52, 32
4, 20224, Note_on_c, 0, 59, 40
4, 20312, Note_off_c, 0, 59, 64
4, 20312, Note_off_c, 0, 52, 64
4, 20352, Note_on_c, 0, 75, 40
4, 20360, Note_off_c, 0, 76, 64
4, 20436, Note_off_c, 0, 68, 64
4, 20456, Note_off_c, 0, 75, 64
4, 20504, Note_on_c, 0, 58, 41
4, 20504, Note_on_c, 0, 75, 48
4, 20508, Note_on_c, 0, 68, 46
4, 20528, Control_c, 0, 64, 0
4, 20584, Control_c, 0, 64, 127
4, 20592, Note_off_c, 0, 58, 64
4, 20644, Note_on_c, 0, 74, 40
4, 20664, Note_off_c, 0, 75, 64
4, 20684, Note_off_c, 0, 68, 64
4, 20768, Note_on_c, 0, 73, 48
4, 20768, Note_on_c, 0, 52, 24
4, 20768, Note_on_c, 0, 58, 24
4, 20776, Note_on_c, 0, 68, 43
4, 20780, Note_off_c, 0, 74, 64
4, 20808, Control_c, 0, 64, 0
4, 20840, Control_c, 0, 64, 127
4, 20856, Note_off_c, 0, 58, 64
4, 20856, Note_off_c, 0, 52, 64
4, 20900, Note_on_c, 0, 74, 44
4, 20912, Note_off_c, 0, 73, 64
4, 20992, Note_off_c, 0, 68, 64
4, 21044, Note_on_c, 0, 67, 37
4, 21044, Note_on_c, 0, 58, 35
4, 21048, Note_on_c, 0, 51, 31
4, 21060, Note_on_c, 0, 75, 26
4, 21068, Control_c, 0, 64, 0
4, 21072, Note_off_c, 0, 74, 64
4, 21124, Control_c, 0, 64, 127
4, 21132, Note_off_c, 0, 58, 64
4, 21136, Note_off_c, 0, 51, 64
4, 21176, Note_on_c, 0, 71, 41
4, 21208, Note_off_c, 0, 75, 64
4, 21260, Note_off_c, 0, 67, 64
4, 21340, Note_on_c, 0, 70, 45
4, 21344, Note_on_c, 0, 68, 33
4, 21348, Note_off_c, 0, 71, 64
4, 21348, Note_on_c, 0, 65, 38
4, 21352, Note_on_c, 0, 58, 31
4, 21368, Control_c, 0, 64, 0
4, 21432, Control_c, 0, 64, 127
4, 21436, Note_off_c, 0, 65, 64
4, 21440, Note_off_c, 0, 58, 64
4, 21504, Note_on_c, 0, 74, 41
4, 21520, Note_off_c, 0, 70, 64
4, 21524, Note_off_c, 0, 68, 64
4, 21748, Note_on_c, 0, 75, 33
4, 21760, Note_off_c, 0, 74, 64
4, 21760, Note_on_c, 0, 67, 27
4, 21760, Note_on_c, 0, 51, 18
4, 21772, Note_on_c, 0, 58, 22
4, 21792, Control_c, 0, 64, 0
4, 21876, Control_c, 0, 64, 127
4, 21932, Note_off_c, 0, 51, 64
4, 21932, Note_off_c, 0, 67, 64
4, 21944, Note_off_c, 0, 58, 64
4, 22528, Control_c, 0, 64, 0
4, 22540, Note_on_c, 0, 40, 52
4, 22636, Control_c, 0, 64, 127
4, 23072, Note_off_c, 0, 40, 64
4, 23112, Note_on_c, 0, 68, 43
4, 23120, Note_on_c, 0, 61, 25
4, 23136, Note_on_c, 0, 59, 26
4, 23168, Control_c, 0, 64, 0
4, 23208, Control_c, 0, 64, 127
4, 23332, Note_on_c, 0, 73, 39
4, 23344, Note_off_c, 0, 75, 64
4, 23512, Note_off_c, 0, 73, 64
4, 23516, Note_on_c, 0, 76, 48
4, 23632, Note_off_c, 0, 61, 64
4, 23636, Note_off_c, 0, 59, 64
4, 23656, Note_on_c, 0, 75, 51
4, 23672, Note_off_c, 0, 76, 64
4, 23756, Note_off_c, 0, 68, 64
4, 23792, Note_on_c, 0, 73, 52
4, 23816, Note_off_c, 0, 75, 64
4, 23864, Control_c, 0, 64, 0
4, 23920, Control_c, 0, 64, 127
4, 23936, Note_on_c, 0, 71, 56
4, 23944, Note_off_c, 0, 73, 64
4, 24060, Note_on_c, 0, 70, 64
4, 24072, Note_off_c, 0, 71, 64
4, 24096, Control_c, 0, 64, 0
4, 24148, Control_c, 0, 64, 127
4, 24184, Note_on_c, 0, 71, 52
4, 24204, Note_off_c, 0, 70, 64
4, 24312, Note_on_c, 0, 73, 49
4, 24340, Note_off_c, 0, 71, 64
4, 24388, Control_c, 0, 64, 0
4, 24456, Note_on_c, 0, 68, 46
4, 24480, Note_off_c, 0, 73, 64
4, 24604, Note_on_c, 0, 66, 51
4, 24604, Note_on_c, 0, 42, 48
4, 24624, Note_off_c, 0, 68, 64
4, 24640, Control_c, 0, 64, 127
4, 24992, Control_c, 0, 64, 0
4, 24996, Note_on_c, 0, 58, 34
4, 25004, Note_on_c, 0, 64, 26
4, 25004, Note_on_c, 0, 54, 22
4, 25052, Control_c, 0, 64, 127
4, 25088, Note_off_c, 0, 42, 64
4, 25140, Note_off_c, 0, 64, 64
4, 25144, Note_off_c, 0, 58, 64
4, 25148, Note_on_c, 0, 68, 52
4, 25152, Note_off_c, 0, 54, 64
4, 25184, Note_off_c, 0, 66, 64
4, 25264, Note_on_c, 0, 66, 64
4, 25264, Note_on_c, 0, 58, 43
4, 25264, Note_on_c, 0, 54, 18
4, 25272, Note_on_c, 0, 64, 37
4, 25312, Note_off_c, 0, 68, 64
4, 25380, Note_off_c, 0, 54, 64
4, 25380, Note_off_c, 0, 58, 64
4, 25384, Note_off_c, 0, 64, 64
4, 25400, Note_on_c, 0, 68, 48
4, 25420, Note_off_c, 0, 66, 64
4, 25544, Control_c, 0, 64, 0
4, 25552, Note_on_c, 0, 66, 66
4, 25552, Note_on_c, 0, 47, 53
4, 25564, Note_off_c, 0, 68, 64
4, 25584, Control_c, 0, 64, 127
4, 25668, Note_on_c, 0, 70, 45
4, 25676, Note_off_c, 0, 66, 64
4, 25800, Note_on_c, 0, 71, 50
4, 25804, Note_on_c, 0, 54, 42
4, 25808, Note_off_c, 0, 70, 64
4, 25808, Note_on_c, 0, 63, 37
4, 25808, Note_on_c, 0, 59, 50
4, 25876, Control_c, 0, 64, 0
4, 25924, Control_c, 0, 64, 127
4, 25932, Note_on_c, 0, 75, 57
4, 25996, Note_off_c, 0, 71, 64
4, 26008, Note_off_c, 0, 47, 64
4, 26016, Note_off_c, 0, 59, 64
4, 26016, Note_off_c, 0, 63, 64
4, 26048, Note_off_c, 0, 54, 64
4, 26080, Note_on_c, 0, 80, 65
4, 26104, Note_off_c, 0, 75, 64
4, 26112, Control_c, 0, 64, 0
4, 26132, Control_c, 0, 64, 127
4, 26204, Note_on_c, 0, 78, 66
4, 26232, Note_off_c, 0, 80, 64
4, 26380, Note_on_c, 0, 40, 41
4, 26392, Note_on_c, 0, 75, 63
4, 26404, Note_off_c, 0, 78, 64
4, 26416, Control_c, 0, 64, 0
4, 26504, Control_c, 0, 64, 127
4, 26832, Note_on_c, 0, 59, 28
4, 26836, Note_on_c, 0, 68, 28
4, 26840, Note_on_c, 0, 61, 40
4, 26884, Note_off_c, 0, 40, 64
4, 26884, Control_c, 0, 64, 0
4, 26940, Control_c, 0, 64, 127
4, 27008, Note_on_c, 0, 73, 56
4, 27024, Note_off_c, 0, 75, 64
4, 27112, Note_off_c, 0, 68, 64
4, 27112, Note_off_c, 0, 59, 64
4, 27120, Note_off_c, 0, 61, 64
4, 27180, Note_on_c, 0, 76, 49
4, 27212, Note_off_c, 0, 73, 64
4, 27316, Control_c, 0, 64, 0
4, 27324, Note_on_c, 0, 75, 51
4, 27336, Note_off_c, 0, 76, 64
4, 27396, Control_c, 0, 64, 127
4, 27448, Note_on_c, 0, 73, 48
4, 27484, Note_off_c, 0, 75, 64
4, 27576, Note_on_c, 0, 71, 46
4, 27608, Note_off_c, 0, 73, 64
4, 27688, Note_on_c, 0, 70, 58
4, 27720, Note_off_c, 0, 71, 64
4, 27808, Note_on_c, 0, 71, 50
4, 27824, Note_off_c, 0, 70, 64
4, 27960, Note_on_c, 0, 73, 56
4, 27992, Note_off_c, 0, 71, 64
4, 28088, Control_c, 0, 64, 0
4, 28092, Note_on_c, 0, 68, 45
4, 28124, Note_off_c, 0, 73, 64
4, 28244, Note_on_c, 0, 66, 44
4, 28256, Note_off_c, 0, 68, 64
4, 28548, Note_on_c, 0, 64, 19
4, 28548, Note_on_c, 0, 58, 26
4, 28552, Note_on_c, 0, 54, 20
4, 28592, Control_c, 0, 64, 127
4, 28728, Note_on_c, 0, 68, 40
4, 28752, Note_off_c, 0, 66, 64
4, 28776, Note_off_c, 0, 64, 64
4, 28804, Note_off_c, 0, 58, 64
4, 28836, Note_off_c, 0, 54, 64
4, 28876, Note_on_c, 0, 66, 52
4, 28888, Note_off_c, 0, 68, 64
4, 29024, Note_on_c, 0, 73, 46
4, 29080, Note_off_c, 0, 66, 64
4, 29112, Control_c, 0, 64, 0
4, 29192, Note_on_c, 0, 66, 52
4, 29248, Note_off_c, 0, 73, 64
4, 29344, Note_on_c, 0, 68, 43
4, 29368, Note_off_c, 0, 66, 64
4, 29500, Note_on_c, 0, 66, 53
4, 29528, Note_off_c, 0, 68, 64
4, 29604, Control_c, 0, 64, 127
4, 29648, Note_on_c, 0, 73, 40
4, 29680, Note_off_c, 0, 66, 64
4, 29808, Note_on_c, 0, 65, 44
4, 29820, Note_off_c, 0, 73, 64
4, 30000, Note_on_c, 0, 73, 29
4, 30024, Note_off_c, 0, 65, 64
4, 30096, Control_c, 0, 64, 0
4, 30204, Note_on_c, 0, 64, 38
4, 30216, Note_off_c, 0, 73, 64
4, 30384, Note_on_c, 0, 73, 32
4, 30560, Note_on_c, 0, 71, 40
4, 30580, Control_c, 0, 64, 127
4, 30584, Note_off_c, 0, 73, 64
4, 30592, Note_off_c, 0, 64, 64
4, 30880, Note_on_c, 0, 64, 21
4, 30880, Note_on_c, 0, 62, 22
4, 30892, Note_on_c, 0, 52, 40
4, 30908, Control_c, 0, 64, 0
4, 30976, Control_c, 0, 64, 127
4, 31056, Note_off_c, 0, 62, 64
4, 31056, Note_off_c, 0, 64, 64
4, 31072, Note_off_c, 0, 52, 64
4, 31196, Note_on_c, 0, 69, 44
4, 31208, Note_off_c, 0, 71, 64
4, 31320, Note_on_c, 0, 66, 41
4, 31348, Note_off_c, 0, 69, 64
4, 31460, Note_on_c, 0, 68, 47
4, 31464, Control_c, 0, 64, 0
4, 31484, Note_off_c, 0, 66, 64
4, 31748, Note_on_c, 0, 52, 34
4, 31748, Note_on_c, 0, 45, 34
4, 31752, Note_on_c, 0, 69, 44
4, 31752, Note_on_c, 0, 61, 34
4, 31836, Note_off_c, 0, 68, 64
4, 31928, Note_off_c, 0, 45, 64
4, 31928, Note_off_c, 0, 52, 64
4, 31932, Note_off_c, 0, 61, 64
4, 31980, Control_c, 0, 64, 127
4, 32024, Note_off_c, 0, 69, 64
4, 32024, Note_on_c, 0, 64, 44
4, 32160, Note_on_c, 0, 69, 44
4, 32188, Note_off_c, 0, 64, 64
4, 32288, Note_on_c, 0, 68, 45
4, 32312, Control_c, 0, 64, 0
4, 32320, Note_off_c, 0, 69, 64
4, 32576, Note_on_c, 0, 56, 34
4, 32588, Note_on_c, 0, 40, 43
4, 32592, Note_on_c, 0, 62, 33
4, 32700, Control_c, 0, 64, 127
4, 32756, Note_off_c, 0, 56, 64
4, 32768, Note_off_c, 0, 40, 64
4, 32772, Note_off_c, 0, 62, 64
4, 32864, Note_on_c, 0, 66, 47
4, 32880, Note_off_c, 0, 68, 64
4, 32992, Note_off_c, 0, 66, 64
4, 32996, Note_on_c, 0, 62, 45
4, 33120, Note_on_c, 0, 66, 51
4, 33140, Note_off_c, 0, 62, 64
4, 33156, Control_c, 0, 64, 0
4, 33400, Note_on_c, 0, 45, 30
4, 33408, Note_on_c, 0, 64, 41
4, 33412, Note_on_c, 0, 61, 27
4, 33412, Note_on_c, 0, 57, 40
4, 33412, Note_on_c, 0, 52, 28
4, 33424, Note_off_c, 0, 66, 64
4, 33456, Control_c, 0, 64, 127
4, 33580, Note_off_c, 0, 45, 64
4, 33592, Note_off_c, 0, 52, 64
4, 33592, Note_off_c, 0, 57, 64
4, 33592, Note_off_c, 0, 61, 64
4, 33692, Note_off_c, 0, 64, 64
4, 33712, Note_on_c, 0, 64, 46
4, 33720, Control_c, 0, 64, 0
4, 33772, Control_c, 0, 64, 127
4, 33836, Note_on_c, 0, 73, 42
4, 33880, Control_c, 0, 64, 0
4, 33896, Note_off_c, 0, 64, 64
4, 33984, Note_on_c, 0, 71, 41
4, 34016, Note_off_c, 0, 73, 64
4, 34252, Note_on_c, 0, 64, 22
4, 34252, Note_on_c, 0, 62, 25
4, 34260, Note_on_c, 0, 52, 41
4, 34376, Control_c, 0, 64, 127
4, 34432, Note_off_c, 0, 62, 64
4, 34432, Note_off_c, 0, 64, 64
4, 34440, Note_off_c, 0, 52, 64
4, 34516, Control_c, 0, 64, 0
4, 34536, Note_on_c, 0, 69, 51
4, 34548, Note_off_c, 0, 71, 64
4, 34656, Note_on_c, 0, 66, 46
4, 34680, Note_off_c, 0, 69, 64
4, 34792, Note_on_c, 0, 68, 51
4, 34816, Note_off_c, 0, 66, 64
4, 35056, Note_on_c, 0, 69, 47
4, 35056, Note_on_c, 0, 45, 41
4, 35064, Note_on_c, 0, 61, 41
4, 35072, Note_on_c, 0, 52, 37
4, 35104, Note_off_c, 0, 68, 64
4, 35236, Note_off_c, 0, 45, 64
4, 35244, Note_off_c, 0, 61, 64
4, 35252, Note_off_c, 0, 52, 64
4, 35332, Note_on_c, 0, 64, 47
4, 35376, Note_off_c, 0, 69, 64
4, 35480, Note_on_c, 0, 69, 46
4, 35496, Note_off_c, 0, 64, 64
4, 35620, Note_on_c, 0, 68, 45
4, 35660, Note_off_c, 0, 69, 64
4, 35864, Note_on_c, 0, 64, 34
4, 35864, Note_on_c, 0, 61, 23
4, 35864, Note_on_c, 0, 49, 34
4, 35876, Note_on_c, 0, 56, 23
4, 35920, Control_c, 0, 64, 127
4, 36044, Note_off_c, 0, 49, 64
4, 36044, Note_off_c, 0, 61, 64
4, 36044, Note_off_c, 0, 64, 64
4, 36056, Note_off_c, 0, 56, 64
4, 36144, Note_on_c, 0, 66, 62
4, 36160, Control_c, 0, 64, 0
4, 36176, Note_off_c, 0, 68, 64
4, 36260, Note_on_c, 0, 63, 57
4, 36292, Note_off_c, 0, 66, 64
4, 36392, Note_on_c, 0, 44, 57
4, 36396, Note_on_c, 0, 56, 55
4, 36396, Note_on_c, 0, 60, 60
4, 36400, Note_on_c, 0, 66, 64
4, 36412, Note_off_c, 0, 63, 64
4, 36480, Control_c, 0, 64, 127
4, 36568, Note_off_c, 0, 44, 64
4, 36576, Note_off_c, 0, 60, 64
4, 36576, Note_off_c, 0, 56, 64
4, 36648, Note_on_c, 0, 64, 54
4, 36652, Note_on_c, 0, 61, 64
4, 36656, Note_on_c, 0, 56, 64
4, 36672, Note_off_c, 0, 66, 64
4, 36680, Note_on_c, 0, 37, 51
4, 36680, Control_c, 0, 64, 0
4, 36688, Note_on_c, 0, 49, 44
4, 36740, Control_c, 0, 64, 127
4, 36832, Note_off_c, 0, 56, 64
4, 36832, Note_off_c, 0, 61, 64
4, 36856, Note_off_c, 0, 37, 64
4, 36868, Note_off_c, 0, 49, 64
4, 36920, Control_c, 0, 64, 0
4, 36928, Note_on_c, 0, 66, 62
4, 36940, Note_off_c, 0, 64, 64
4, 37040, Note_on_c, 0, 63, 54
4, 37068, Note_off_c, 0, 66, 64
4, 37180, Note_on_c, 0, 57, 55
4, 37184, Note_on_c, 0, 66, 67
4, 37188, Note_on_c, 0, 59, 54
4, 37196, Note_on_c, 0, 47, 56
4, 37208, Control_c, 0, 64, 127
4, 37224, Note_off_c, 0, 63, 64
4, 37360, Note_off_c, 0, 57, 64
4, 37368, Note_off_c, 0, 59, 64
4, 37376, Note_off_c, 0, 47, 64
4, 37460, Note_on_c, 0, 64, 57
4, 37464, Note_on_c, 0, 59, 64
4, 37464, Note_on_c, 0, 56, 62
4, 37464, Control_c, 0, 64, 0
4, 37480, Note_off_c, 0, 66, 64
4, 37480, Note_on_c, 0, 52, 45
4, 37480, Note_on_c, 0, 40, 49
4, 37548, Control_c, 0, 64, 127
4, 37644, Note_off_c, 0, 56, 64
4, 37644, Note_off_c, 0, 59, 64
4, 37660, Note_off_c, 0, 40, 64
4, 37660, Note_off_c, 0, 52, 64
4, 37720, Control_c, 0, 64, 0
4, 37740, Note_on_c, 0, 66, 43
4, 37768, Note_off_c, 0, 64, 64
4, 37864, Note_on_c, 0, 63, 33
4, 37872, Note_off_c, 0, 66, 64
4, 37992, Note_on_c, 0, 66, 68
4, 37996, Note_on_c, 0, 60, 61
4, 37996, Note_on_c, 0, 44, 54
4, 38004, Note_on_c, 0, 56, 59
4, 38024, Note_off_c, 0, 63, 64
4, 38040, Control_c, 0, 64, 127
4, 38176, Note_off_c, 0, 44, 64
4, 38176, Note_off_c, 0, 60, 64
4, 38184, Note_off_c, 0, 56, 64
4, 38324, Note_on_c, 0, 56, 50
4, 38336, Note_on_c, 0, 61, 51
4, 38344, Note_on_c, 0, 64, 48
4, 38344, Note_on_c, 0, 49, 41
4, 38344, Note_on_c, 0, 37, 46
4, 38360, Control_c, 0, 64, 0
4, 38376, Note_off_c, 0, 66, 64
4, 38400, Control_c, 0, 64, 127
4, 38504, Note_off_c, 0, 56, 64
4, 38512, Note_off_c, 0, 61, 64
4, 38524, Note_off_c, 0, 49, 64
4, 38524, Note_off_c, 0, 37, 64
4, 38584, Note_off_c, 0, 64, 64
4, 38624, Control_c, 0, 64, 0
4, 38640, Note_on_c, 0, 64, 48
4, 38760, Note_on_c, 0, 73, 46
4, 38820, Note_off_c, 0, 64, 64
4, 38912, Note_on_c, 0, 71, 49
4, 38916, Note_off_c, 0, 73, 64
4, 39188, Note_on_c, 0, 64, 29
4, 39192, Note_on_c, 0, 62, 33
4, 39196, Note_on_c, 0, 52, 34
4, 39224, Control_c, 0, 64, 127
4, 39368, Note_off_c, 0, 64, 64
4, 39372, Note_off_c, 0, 62, 64
4, 39376, Note_off_c, 0, 52, 64
4, 39480, Note_on_c, 0, 81, 45
4, 39488, Note_off_c, 0, 71, 64
4, 39616, Note_on_c, 0, 78, 27
4, 39648, Note_off_c, 0, 81, 64
4, 39708, Control_c, 0, 64, 0
4, 39748, Note_on_c, 0, 80, 48
4, 39784, Note_off_c, 0, 78, 64
4, 40028, Note_on_c, 0, 81, 46
4, 40040, Note_on_c, 0, 73, 44
4, 40044, Note_on_c, 0, 57, 39
4, 40052, Note_on_c, 0, 69, 27
4, 40056, Note_on_c, 0, 64, 29
4, 40068, Note_off_c, 0, 80, 64
4, 40076, Control_c, 0, 64, 127
4, 40220, Note_off_c, 0, 73, 64
4, 40224, Note_off_c, 0, 57, 64
4, 40232, Note_off_c, 0, 69, 64
4, 40236, Note_off_c, 0, 64, 64
4, 40356, Note_on_c, 0, 64, 50
4, 40404, Note_off_c, 0, 81, 64
4, 40476, Note_on_c, 0, 69, 51
4, 40496, Note_off_c, 0, 64, 64
4, 40584, Note_on_c, 0, 68, 51
4, 40596, Control_c, 0, 64, 0
4, 40612, Note_off_c, 0, 69, 64
4, 40872, Note_on_c, 0, 56, 30
4, 40872, Note_on_c, 0, 62, 45
4, 40884, Note_on_c, 0, 52, 34
4, 40884, Note_on_c, 0, 40, 40
4, 40920, Control_c, 0, 64, 127
4, 41052, Note_off_c, 0, 62, 64
4, 41052, Note_off_c, 0, 56, 64
4, 41064, Note_off_c, 0, 40, 64
4, 41064, Note_off_c, 0, 52, 64
4, 41144, Note_on_c, 0, 78, 52
4, 41184, Note_off_c, 0, 68, 64
4, 41264, Note_on_c, 0, 74, 49
4, 41280, Control_c, 0, 64, 0
4, 41296, Note_off_c, 0, 78, 64
4, 41380, Note_on_c, 0, 78, 56
4, 41384, Note_off_c, 0, 74, 64
4, 41644, Note_on_c, 0, 73, 46
4, 41648, Note_on_c, 0, 76, 40
4, 41656, Note_on_c, 0, 64, 33
4, 41656, Note_on_c, 0, 57, 34
4, 41660, Note_on_c, 0, 69, 43
4, 41672, Note_off_c, 0, 78, 64
4, 41684, Control_c, 0, 64, 127
4, 41824, Note_off_c, 0, 73, 64
4, 41836, Note_off_c, 0, 57, 64
4, 41836, Note_off_c, 0, 64, 64
4, 41840, Note_off_c, 0, 69, 64
4, 41916, Note_on_c, 0, 64, 49
4, 41940, Note_off_c, 0, 76, 64
4, 42032, Note_on_c, 0, 73, 46
4, 42084, Note_off_c, 0, 64, 64
4, 42112, Control_c, 0, 64, 0
4, 42168, Note_on_c, 0, 71, 45
4, 42200, Note_off_c, 0, 73, 64
4, 42436, Note_on_c, 0, 62, 34
4, 42440, Note_on_c, 0, 64, 34
4, 42448, Note_on_c, 0, 52, 40
4, 42460, Control_c, 0, 64, 127
4, 42616, Note_off_c, 0, 64, 64
4, 42616, Note_off_c, 0, 62, 64
4, 42628, Note_off_c, 0, 52, 64
4, 42712, Note_on_c, 0, 81, 51
4, 42752, Note_off_c, 0, 71, 64
4, 42852, Note_on_c, 0, 78, 23
4, 42896, Note_off_c, 0, 81, 64
4, 42964, Note_on_c, 0, 80, 51
4, 43004, Note_off_c, 0, 78, 64
4, 43200, Control_c, 0, 64, 0
4, 43220, Note_on_c, 0, 57, 45
4, 43224, Note_on_c, 0, 81, 45
4, 43224, Note_on_c, 0, 64, 42
4, 43236, Note_on_c, 0, 73, 44
4, 43244, Note_on_c, 0, 69, 33
4, 43256, Note_off_c, 0, 80, 64
4, 43288, Control_c, 0, 64, 127
4, 43400, Note_off_c, 0, 57, 64
4, 43404, Note_off_c, 0, 64, 64
4, 43416, Note_off_c, 0, 73, 64
4, 43424, Note_off_c, 0, 69, 64
4, 43488, Note_on_c, 0, 64, 44
4, 43504, Note_off_c, 0, 81, 64
4, 43608, Note_on_c, 0, 69, 41
4, 43636, Note_off_c, 0, 64, 64
4, 43732, Note_on_c, 0, 68, 45
4, 43772, Note_off_c, 0, 69, 64
4, 44000, Note_on_c, 0, 61, 23
4, 44004, Note_on_c, 0, 49, 34
4, 44008, Note_on_c, 0, 64, 37
4, 44012, Note_on_c, 0, 56, 2
4, 44032, Control_c, 0, 64, 0
4, 44104, Control_c, 0, 64, 127
4, 44176, Note_off_c, 0, 61, 64
4, 44184, Note_off_c, 0, 64, 64
4, 44184, Note_off_c, 0, 49, 64
4, 44192, Note_off_c, 0, 56, 64
4, 44252, Control_c, 0, 64, 0
4, 44284, Note_on_c, 0, 66, 62
4, 44296, Note_off_c, 0, 68, 64
4, 44400, Note_on_c, 0, 63, 56
4, 44416, Note_off_c, 0, 66, 64
4, 44524, Note_on_c, 0, 56, 68
4, 44524, Note_on_c, 0, 66, 64
4, 44528, Note_on_c, 0, 60, 64
4, 44536, Note_on_c, 0, 44, 54
4, 44568, Note_off_c, 0, 63, 64
4, 44704, Note_off_c, 0, 56, 64
4, 44708, Note_off_c, 0, 60, 64
4, 44712, Note_off_c, 0, 44, 64
4, 44788, Note_on_c, 0, 64, 58
4, 44796, Note_on_c, 0, 56, 62
4, 44804, Note_on_c, 0, 37, 54
4, 44808, Note_on_c, 0, 61, 56
4, 44812, Note_on_c, 0, 49, 49
4, 44832, Note_off_c, 0, 66, 64
4, 44844, Control_c, 0, 64, 127
4, 44976, Note_off_c, 0, 56, 64
4, 44984, Note_off_c, 0, 61, 64
4, 44984, Note_off_c, 0, 37, 64
4, 44992, Note_off_c, 0, 49, 64
4, 45032, Control_c, 0, 64, 0
4, 45068, Note_on_c, 0, 66, 64
4, 45100, Note_off_c, 0, 64, 64
4, 45176, Note_on_c, 0, 63, 56
4, 45204, Note_off_c, 0, 66, 64
4, 45304, Note_on_c, 0, 66, 67
4, 45312, Note_on_c, 0, 59, 28
4, 45312, Note_on_c, 0, 47, 56
4, 45316, Note_on_c, 0, 57, 64
4, 45320, Note_off_c, 0, 63, 64
4, 45368, Control_c, 0, 64, 127
4, 45488, Note_off_c, 0, 47, 64
4, 45488, Note_off_c, 0, 59, 64
4, 45496, Note_off_c, 0, 57, 64
4, 45560, Control_c, 0, 64, 0
4, 45580, Note_on_c, 0, 59, 28
4, 45580, Note_on_c, 0, 56, 67
4, 45584, Note_on_c, 0, 52, 50
4, 45584, Note_on_c, 0, 64, 58
4, 45596, Note_on_c, 0, 40, 55
4, 45612, Note_off_c, 0, 66, 64
4, 45760, Note_off_c, 0, 52, 64
4, 45760, Note_off_c, 0, 56, 64
4, 45760, Note_off_c, 0, 59, 64
4, 45776, Note_off_c, 0, 40, 64
4, 45840, Note_on_c, 0, 66, 58
4, 45864, Note_off_c, 0, 64, 64
4, 45956, Note_on_c, 0, 63, 57
4, 46020, Note_off_c, 0, 66, 64
4, 46076, Note_on_c, 0, 44, 60
4, 46088, Note_on_c, 0, 66, 67
4, 46088, Note_on_c, 0, 60, 60
4, 46088, Note_on_c, 0, 56, 62
4, 46104, Note_off_c, 0, 63, 64
4, 46160, Control_c, 0, 64, 127
4, 46256, Note_off_c, 0, 44, 64
4, 46268, Note_off_c, 0, 56, 64
4, 46268, Note_off_c, 0, 60, 64
4, 46340, Note_on_c, 0, 49, 41
4, 46352, Note_on_c, 0, 64, 48
4, 46352, Note_on_c, 0, 37, 44
4, 46356, Note_on_c, 0, 56, 51
4, 46364, Note_on_c, 0, 61, 54
4, 46392, Note_off_c, 0, 66, 64
4, 46392, Control_c, 0, 64, 0
4, 46464, Control_c, 0, 64, 127
4, 46504, Note_off_c, 0, 61, 64
4, 46520, Note_off_c, 0, 49, 64
4, 46532, Note_off_c, 0, 37, 64
4, 46536, Note_off_c, 0, 56, 64
4, 46584, Note_off_c, 0, 64, 64
4, 46688, Note_on_c, 0, 54, 17
4, 46696, Note_on_c, 0, 64, 41
4, 46704, Note_on_c, 0, 58, 34
4, 46716, Note_on_c, 0, 42, 23
4, 46744, Control_c, 0, 64, 0
4, 46884, Control_c, 0, 64, 127
4, 47020, Note_on_c, 0, 47, 40
4, 47024, Note_on_c, 0, 59, 28
4, 47024, Note_on_c, 0, 63, 29
4, 47032, Note_off_c, 0, 42, 64
4, 47064, Note_off_c, 0, 64, 64
4, 47072, Note_off_c, 0, 58, 64
4, 47092, Control_c, 0, 64, 0
4, 47220, Control_c, 0, 64, 127
4, 47580, Note_off_c, 0, 47, 64
4, 47600, Note_on_c, 0, 64, 37
4, 47604, Note_on_c, 0, 42, 40
4, 47612, Note_on_c, 0, 58, 40
4, 47628, Control_c, 0, 64, 0
4, 47644, Note_off_c, 0, 63, 64
4, 47644, Note_off_c, 0, 59, 64
4, 47736, Note_on_c, 0, 49, 41
4, 47736, Control_c, 0, 64, 127
4, 47748, Note_off_c, 0, 42, 64
4, 47828, Control_c, 0, 64, 0
4, 47864, Note_on_c, 0, 63, 42
4, 47868, Note_on_c, 0, 59, 45
4, 47884, Note_on_c, 0, 47, 42
4, 47888, Note_off_c, 0, 64, 64
4, 47896, Note_off_c, 0, 58, 64
4, 47908, Note_off_c, 0, 49, 64
4, 48072, Control_c, 0, 64, 127
4, 48380, Note_off_c, 0, 63, 64
4, 48384, Note_off_c, 0, 59, 64
4, 48388, Note_on_c, 0, 42, 45
4, 48400, Note_off_c, 0, 47, 64
4, 48400, Note_on_c, 0, 58, 34
4, 48400, Note_on_c, 0, 64, 37
4, 48412, Control_c, 0, 64, 0
4, 48496, Control_c, 0, 64, 127
4, 48520, Note_on_c, 0, 49, 43
4, 48544, Note_off_c, 0, 42, 64
4, 48640, Control_c, 0, 64, 0
4, 48648, Note_on_c, 0, 63, 43
4, 48652, Note_on_c, 0, 59, 37
4, 48656, Note_on_c, 0, 47, 47
4, 48664, Note_off_c, 0, 58, 64
4, 48668, Note_off_c, 0, 49, 64
4, 48668, Note_off_c, 0, 64, 64
4, 48728, Control_c, 0, 64, 127
4, 48764, Note_off_c, 0, 59, 64
4, 48776, Note_off_c, 0, 63, 64
4, 48792, Note_on_c, 0, 46, 50
4, 48824, Note_off_c, 0, 47, 64
4, 48868, Control_c, 0, 64, 0
4, 48912, Note_on_c, 0, 47, 51
4, 48928, Note_off_c, 0, 46, 64
4, 48928, Note_on_c, 0, 63, 42
4, 48932, Note_on_c, 0, 59, 45
4, 48952, Control_c, 0, 64, 127
4, 49052, Note_off_c, 0, 63, 64
4, 49052, Note_on_c, 0, 44, 51
4, 49056, Note_off_c, 0, 59, 64
4, 49080, Note_off_c, 0, 47, 64
4, 49208, Note_on_c, 0, 64, 40
4, 49208, Note_on_c, 0, 58, 45
4, 49212, Control_c, 0, 64, 0
4, 49224, Note_on_c, 0, 42, 51
4, 49256, Note_off_c, 0, 44, 64
4, 49360, Control_c, 0, 64, 127
4, 49368, Note_on_c, 0, 49, 39
4, 49376, Note_off_c, 0, 42, 64
4, 49484, Control_c, 0, 64, 0
4, 49496, Note_on_c, 0, 47, 45
4, 49504, Note_on_c, 0, 63, 34
4, 49516, Note_off_c, 0, 49, 64
4, 49524, Note_on_c, 0, 59, 43
4, 49556, Note_off_c, 0, 58, 64
4, 49556, Note_off_c, 0, 64, 64
4, 49696, Control_c, 0, 64, 127
4, 49808, Note_off_c, 0, 54, 64
4, 49844, Note_off_c, 0, 59, 64
4, 49856, Note_off_c, 0, 47, 64
4, 49864, Note_off_c, 0, 63, 64
4, 50188, Control_c, 0, 64, 0
4, 50216, Note_on_c, 0, 56, 41
4, 50220, Note_on_c, 0, 44, 55
4, 50232, Note_on_c, 0, 60, 45
4, 50232, Note_on_c, 0, 66, 40
4, 50624, Note_on_c, 0, 61, 47
4, 50628, Note_on_c, 0, 65, 33
4, 50636, Note_on_c, 0, 49, 40
4, 50644, Note_off_c, 0, 44, 64
4, 50708, Note_off_c, 0, 66, 64
4, 50708, Note_off_c, 0, 60, 64
4, 50864, Control_c, 0, 64, 127
4, 51244, Note_off_c, 0, 49, 64
4, 51256, Control_c, 0, 64, 0
4, 51264, Note_on_c, 0, 60, 43
4, 51268, Note_on_c, 0, 44, 45
4, 51268, Note_on_c, 0, 66, 42
4, 51292, Note_off_c, 0, 61, 64
4, 51296, Note_off_c, 0, 65, 64
4, 51316, Control_c, 0, 64, 127
4, 51388, Note_on_c, 0, 51, 45
4, 51416, Note_off_c, 0, 44, 64
4, 51528, Note_on_c, 0, 49, 43
4, 51536, Note_on_c, 0, 61, 44
4, 51552, Note_off_c, 0, 51, 64
4, 51552, Note_on_c, 0, 65, 41
4, 51560, Note_off_c, 0, 60, 64
4, 51572, Control_c, 0, 64, 0
4, 51576, Note_off_c, 0, 66, 64
4, 51724, Control_c, 0, 64, 127
4, 51936, Note_off_c, 0, 65, 64
4, 51964, Note_off_c, 0, 61, 64
4, 52000, Note_off_c, 0, 49, 64
4, 52088, Note_on_c, 0, 66, 51
4, 52096, Note_on_c, 0, 44, 37
4, 52104, Note_on_c, 0, 60, 37
4, 52108, Control_c, 0, 64, 0
4, 52164, Control_c, 0, 64, 127
4, 52172, Note_on_c, 0, 68, 50
4, 52176, Note_off_c, 0, 66, 64
4, 52192, Note_off_c, 0, 60, 64
4, 52248, Note_on_c, 0, 66, 51
4, 52248, Note_on_c, 0, 51, 42
4, 52260, Note_off_c, 0, 44, 64
4, 52276, Note_off_c, 0, 68, 64
4, 52332, Note_on_c, 0, 61, 48
4, 52344, Note_on_c, 0, 65, 49
4, 52360, Control_c, 0, 64, 0
4, 52368, Note_off_c, 0, 66, 64
4, 52380, Note_on_c, 0, 49, 44
4, 52388, Note_off_c, 0, 51, 64
4, 52416, Note_off_c, 0, 61, 64
4, 52428, Note_off_c, 0, 65, 64
4, 52504, Control_c, 0, 64, 127
4, 52528, Note_on_c, 0, 48, 40
4, 52544, Note_off_c, 0, 49, 64
4, 52636, Note_on_c, 0, 65, 41
4, 52636, Note_on_c, 0, 61, 34
4, 52644, Note_on_c, 0, 49, 42
4, 52672, Note_off_c, 0, 48, 64
4, 52728, Note_off_c, 0, 65, 64
4, 52736, Note_off_c, 0, 61, 64
4, 52768, Note_on_c, 0, 46, 43
4, 52784, Note_off_c, 0, 49, 64
4, 52896, Control_c, 0, 64, 0
4, 52912, Note_on_c, 0, 60, 47
4, 52916, Note_on_c, 0, 66, 50
4, 52916, Note_on_c, 0, 44, 47
4, 52944, Note_off_c, 0, 46, 64
4, 53044, Control_c, 0, 64, 127
4, 53072, Note_on_c, 0, 51, 37
4, 53092, Note_off_c, 0, 44, 64
4, 53232, Note_on_c, 0, 65, 43
4, 53236, Note_on_c, 0, 61, 24
4, 53240, Note_on_c, 0, 49, 33
4, 53252, Note_off_c, 0, 60, 64
4, 53256, Note_off_c, 0, 66, 64
4, 53264, Note_off_c, 0, 51, 64
4, 53264, Control_c, 0, 64, 0
4, 53392, Control_c, 0, 64, 127
4, 53504, Note_off_c, 0, 49, 64
4, 53544, Note_off_c, 0, 56, 64
4, 53564, Note_off_c, 0, 65, 64
4, 53572, Note_off_c, 0, 61, 64
4, 53864, Note_on_c, 0, 61, 32
4, 53868, Note_on_c, 0, 71, 38
4, 53868, Note_on_c, 0, 65, 36
4, 53868, Note_on_c, 0, 49, 20
4, 53960, Control_c, 0, 64, 0
4, 54120, Control_c, 0, 64, 127
4, 54252, Note_on_c, 0, 54, 18
4, 54276, Note_on_c, 0, 70, 43
4, 54276, Note_on_c, 0, 66, 34
4, 54308, Control_c, 0, 64, 0
4, 54312, Note_off_c, 0, 49, 64
4, 54312, Note_off_c, 0, 65, 64
4, 54312, Note_off_c, 0, 71, 64
4, 54768, Note_off_c, 0, 70, 64
4, 54776, Note_off_c, 0, 66, 64
4, 54836, Note_on_c, 0, 49, 41
4, 54840, Note_off_c, 0, 54, 64
4, 54848, Note_on_c, 0, 65, 36
4, 54848, Note_on_c, 0, 71, 39
4, 54872, Control_c, 0, 64, 127
4, 55008, Note_on_c, 0, 56, 36
4, 55060, Note_off_c, 0, 49, 64
4, 55144, Control_c, 0, 64, 0
4, 55152, Note_on_c, 0, 70, 40
4, 55156, Note_on_c, 0, 66, 36
4, 55160, Note_off_c, 0, 71, 64
4, 55168, Note_off_c, 0, 65, 64
4, 55168, Note_on_c, 0, 54, 41
4, 55200, Note_off_c, 0, 56, 64
4, 55276, Control_c, 0, 64, 127
4, 55620, Note_on_c, 0, 51, 22
4, 55652, Note_off_c, 0, 54, 64
4, 55692, Note_off_c, 0, 70, 64
4, 55692, Note_off_c, 0, 66, 64
4, 55756, Note_on_c, 0, 49, 33
4, 55760, Note_on_c, 0, 65, 23
4, 55768, Note_off_c, 0, 51, 64
4, 55768, Note_on_c, 0, 71, 31
4, 55784, Control_c, 0, 64, 0
4, 55820, Control_c, 0, 64, 127
4, 55844, Note_on_c, 0, 73, 43
4, 55856, Note_off_c, 0, 65, 64
4, 55860, Note_off_c, 0, 71, 64
4, 55892, Note_on_c, 0, 56, 34
4, 55928, Note_off_c, 0, 49, 64
4, 55936, Note_on_c, 0, 71, 34
4, 55944, Note_off_c, 0, 73, 64
4, 56008, Control_c, 0, 64, 0
4, 56024, Note_on_c, 0, 70, 47
4, 56032, Note_on_c, 0, 66, 37
4, 56032, Note_on_c, 0, 54, 28
4, 56044, Note_off_c, 0, 71, 64
4, 56064, Note_off_c, 0, 56, 64
4, 56088, Control_c, 0, 64, 127
4, 56132, Note_off_c, 0, 70, 64
4, 56136, Note_off_c, 0, 66, 64
4, 56156, Note_on_c, 0, 53, 37
4, 56180, Note_off_c, 0, 54, 64
4, 56288, Note_on_c, 0, 54, 26
4, 56296, Note_on_c, 0, 70, 42
4, 56304, Note_on_c, 0, 66, 39
4, 56320, Note_off_c, 0, 53, 64
4, 56328, Control_c, 0, 64, 0
4, 56368, Control_c, 0, 64, 127
4, 56408, Note_off_c, 0, 66, 64
4, 56408, Note_off_c, 0, 70, 64
4, 56428, Note_on_c, 0, 51, 37
4, 56460, Note_off_c, 0, 54, 64
4, 56580, Note_on_c, 0, 65, 36
4, 56588, Note_on_c, 0, 71, 37
4, 56592, Note_on_c, 0, 49, 36
4, 56600, Control_c, 0, 64, 0
4, 56612, Note_off_c, 0, 51, 64
4, 56656, Control_c, 0, 64, 127
4, 56676, Note_on_c, 0, 73, 39
4, 56696, Note_off_c, 0, 65, 64
4, 56708, Note_off_c, 0, 71, 64
4, 56736, Note_on_c, 0, 56, 34
4, 56760, Note_on_c, 0, 71, 40
4, 56784, Note_off_c, 0, 73, 64
4, 56792, Note_off_c, 0, 49, 64
4, 56868, Note_on_c, 0, 70, 43
4, 56872, Control_c, 0, 64, 0
4, 56876, Note_on_c, 0, 66, 43
4, 56888, Note_off_c, 0, 71, 64
4, 56888, Note_on_c, 0, 54, 34
4, 56908, Note_off_c, 0, 56, 64
4, 57160, Control_c, 0, 64, 127
4, 57244, Note_off_c, 0, 54, 64
4, 57392, Note_off_c, 0, 61, 64
4, 57436, Note_off_c, 0, 70, 64
4, 57444, Note_off_c, 0, 66, 64
4, 57500, Control_c, 0, 64, 0
4, 57512, Note_on_c, 0, 70, 37
4, 57516, Note_on_c, 0, 66, 42
4, 57516, Note_on_c, 0, 76, 39
4, 57516, Note_on_c, 0, 54, 45
4, 57888, Note_on_c, 0, 75, 38
4, 57888, Note_on_c, 0, 71, 38
4, 57900, Note_on_c, 0, 59, 36
4, 57908, Note_off_c, 0, 70, 64
4, 57916, Note_off_c, 0, 76, 64
4, 57920, Note_off_c, 0, 54, 64
4, 58120, Control_c, 0, 64, 127
4, 58404, Note_off_c, 0, 75, 64
4, 58404, Note_off_c, 0, 59, 64
4, 58408, Note_off_c, 0, 71, 64
4, 58464, Note_on_c, 0, 54, 35
4, 58476, Note_on_c, 0, 70, 37
4, 58488, Note_on_c, 0, 76, 43
4, 58580, Note_on_c, 0, 78, 38
4, 58592, Note_off_c, 0, 76, 64
4, 58608, Note_off_c, 0, 70, 64
4, 58616, Note_on_c, 0, 61, 40
4, 58656, Note_off_c, 0, 54, 64
4, 58660, Note_on_c, 0, 76, 38
4, 58676, Note_off_c, 0, 78, 64
4, 58772, Note_on_c, 0, 75, 42
4, 58784, Note_on_c, 0, 71, 37
4, 58792, Note_off_c, 0, 76, 64
4, 58796, Note_on_c, 0, 59, 34
4, 58816, Note_off_c, 0, 61, 64
4, 58832, Control_c, 0, 64, 0
4, 59000, Control_c, 0, 64, 127
4, 59236, Note_off_c, 0, 71, 64
4, 59248, Note_off_c, 0, 75, 64
4, 59264, Note_on_c, 0, 56, 40
4, 59308, Note_off_c, 0, 59, 64
4, 59396, Note_on_c, 0, 54, 44
4, 59428, Note_off_c, 0, 56, 64
4, 59488, Control_c, 0, 64, 0
4, 59528, Note_on_c, 0, 56, 40
4, 59544, Note_off_c, 0, 54, 64
4, 59664, Note_on_c, 0, 54, 49
4, 59696, Note_off_c, 0, 56, 64
4, 59760, Note_off_c, 0, 66, 64
4, 59808, Note_on_c, 0, 53, 38
4, 59836, Note_off_c, 0, 54, 64
4, 59928, Note_on_c, 0, 52, 51
4, 59956, Note_off_c, 0, 53, 64
4, 60052, Note_on_c, 0, 51, 45
4, 60076, Note_off_c, 0, 52, 64
4, 60192, Note_on_c, 0, 49, 53
4, 60216, Note_off_c, 0, 51, 64
4, 60328, Note_on_c, 0, 51, 64
4, 60368, Note_off_c, 0, 49, 64
4, 60472, Note_on_c, 0, 49, 64
4, 60496, Note_off_c, 0, 51, 64
4, 60616, Note_on_c, 0, 47, 48
4, 60640, Note_off_c, 0, 49, 64
4, 60752, Note_on_c, 0, 46, 62
4, 60784, Note_off_c, 0, 47, 64
4, 60872, Note_on_c, 0, 44, 70
4, 60908, Note_off_c, 0, 46, 64
4, 61040, Note_on_c, 0, 54, 76
4, 61040, Note_on_c, 0, 42, 64
4, 61044, Note_on_c, 0, 30, 64
4, 61080, Note_off_c, 0, 44, 64
4, 61380, Note_on_c, 0, 63, 56
4, 61380, Note_on_c, 0, 59, 58
4, 61392, Note_off_c, 0, 54, 64
4, 61460, Control_c, 0, 64, 127
4, 61516, Note_on_c, 0, 54, 65
4, 61536, Note_off_c, 0, 63, 64
4, 61536, Note_off_c, 0, 59, 64
4, 61568, Control_c, 0, 64, 0
4, 61608, Control_c, 0, 64, 127
4, 61644, Note_on_c, 0, 59, 58
4, 61644, Note_on_c, 0, 63, 54
4, 61656, Note_off_c, 0, 54, 64
4, 61772, Note_on_c, 0, 64, 61
4, 61772, Note_on_c, 0, 61, 51
4, 61784, Note_off_c, 0, 63, 64
4, 61784, Note_off_c, 0, 59, 64
4, 61872, Note_off_c, 0, 42, 64
4, 61876, Note_off_c, 0, 30, 64
4, 61900, Note_on_c, 0, 65, 64
4, 61916, Note_on_c, 0, 62, 64
4, 61932, Note_off_c, 0, 61, 64
4, 61932, Note_off_c, 0, 64, 64
4, 62044, Note_off_c, 0, 62, 64
4, 62044, Note_off_c, 0, 65, 64
4, 62080, Note_on_c, 0, 56, 64
4, 62152, Note_off_c, 0, 56, 64
4, 62160, Note_on_c, 0, 65, 64
4, 62164, Note_on_c, 0, 62, 61
4, 62168, Note_on_c, 0, 56, 64
4, 62172, Note_on_c, 0, 42, 67
4, 62172, Control_c, 0, 64, 0
4, 62176, Note_on_c, 0, 30, 64
4, 62244, Control_c, 0, 64, 127
4, 62356, Note_off_c, 0, 65, 64
4, 62360, Note_off_c, 0, 62, 64
4, 62368, Note_off_c, 0, 42, 64
4, 62368, Note_off_c, 0, 56, 64
4, 62372, Note_off_c, 0, 30, 64
4, 62436, Note_on_c, 0, 42, 55
4, 62444, Note_on_c, 0, 66, 64
4, 62444, Note_on_c, 0, 54, 50
4, 62444, Note_on_c, 0, 30, 64
4, 62448, Note_on_c, 0, 63, 59
4, 62464, Control_c, 0, 64, 0
4, 62504, Control_c, 0, 64, 127
4, 62616, Note_off_c, 0, 42, 64
4, 62640, Note_off_c, 0, 30, 64
4, 62640, Note_off_c, 0, 54, 64
4, 62640, Note_off_c, 0, 66, 64
4, 62644, Note_off_c, 0, 63, 64
4, 62708, Note_on_c, 0, 56, 60
4, 62768, Note_on_c, 0, 64, 56
4, 62796, Note_on_c, 0, 42, 61
4, 62800, Note_on_c, 0, 71, 64
4, 62800, Note_on_c, 0, 30, 64
4, 62820, Control_c, 0, 64, 0
4, 62892, Control_c, 0, 64, 127
4, 62984, Note_off_c, 0, 56, 64
4, 63004, Note_off_c, 0, 42, 64
4, 63040, Note_off_c, 0, 64, 64
4, 63072, Note_off_c, 0, 71, 64
4, 63136, Note_on_c, 0, 56, 51
4, 63136, Note_on_c, 0, 42, 64
4, 63136, Note_on_c, 0, 59, 57
4, 63192, Note_off_c, 0, 30, 64
4, 63280, Note_on_c, 0, 68, 55
4, 63280, Note_on_c, 0, 64, 55
4, 63284, Note_on_c, 0, 71, 64
4, 63288, Note_off_c, 0, 56, 64
4, 63292, Note_off_c, 0, 59, 64
4, 63396, Note_on_c, 0, 66, 65
4, 63400, Note_on_c, 0, 70, 65
4, 63412, Note_off_c, 0, 71, 64
4, 63412, Note_off_c, 0, 64, 64
4, 63412, Note_off_c, 0, 68, 64
4, 63428, Note_on_c, 0, 71, 70
4, 63448, Note_off_c, 0, 70, 64
4, 63448, Note_off_c, 0, 66, 64
4, 63496, Note_on_c, 0, 70, 75
4, 63504, Note_on_c, 0, 66, 64
4, 63528, Note_off_c, 0, 71, 64
4, 63544, Note_off_c, 0, 42, 64
4, 63620, Note_on_c, 0, 68, 55
4, 63624, Note_off_c, 0, 70, 64
4, 63628, Note_on_c, 0, 64, 67
4, 63632, Note_off_c, 0, 66, 64
4, 63768, Note_on_c, 0, 65, 67
4, 63768, Note_on_c, 0, 62, 75
4, 63780, Note_off_c, 0, 64, 64
4, 63788, Note_off_c, 0, 68, 64
4, 63792, Control_c, 0, 64, 0
4, 63840, Control_c, 0, 64, 127
4, 63920, Note_off_c, 0, 65, 64
4, 63928, Note_off_c, 0, 62, 64
4, 63944, Note_on_c, 0, 56, 57
4, 64000, Note_off_c, 0, 56, 64
4, 64016, Note_on_c, 0, 65, 64
4, 64016, Note_on_c, 0, 56, 57
4, 64024, Note_on_c, 0, 62, 61
4, 64024, Note_on_c, 0, 42, 64
4, 64024, Note_on_c, 0, 30, 64
4, 64048, Control_c, 0, 64, 0
4, 64100, Control_c, 0, 64, 127
4, 64220, Note_off_c, 0, 30, 64
4, 64220, Note_off_c, 0, 42, 64
4, 64296, Note_on_c, 0, 54, 56
4, 64296, Note_on_c, 0, 42, 55
4, 64300, Note_on_c, 0, 66, 64
4, 64304, Note_off_c, 0, 56, 64
4, 64304, Note_off_c, 0, 65, 64
4, 64304, Note_on_c, 0, 63, 60
4, 64304, Note_on_c, 0, 30, 64
4, 64308, Note_off_c, 0, 62, 64
4, 64320, Control_c, 0, 64, 0
4, 64360, Control_c, 0, 64, 127
4, 64496, Note_off_c, 0, 42, 64
4, 64500, Note_off_c, 0, 30, 64
4, 64576, Control_c, 0, 64, 0
4, 64580, Note_off_c, 0, 54, 64
4, 64588, Note_on_c, 0, 68, 67
4, 64588, Note_on_c, 0, 42, 55
4, 64592, Note_on_c, 0, 30, 64
4, 64592, Note_on_c, 0, 64, 64
4, 64600, Note_on_c, 0, 58, 50
4, 64604, Note_off_c, 0, 66, 64
4, 64608, Note_off_c, 0, 63, 64
4, 64640, Control_c, 0, 64, 127
4, 64824, Note_off_c, 0, 42, 64
4, 64828, Note_off_c, 0, 68, 64
4, 64832, Note_off_c, 0, 64, 64
4, 64832, Note_on_c, 0, 42, 55
4, 64840, Note_off_c, 0, 58, 64
4, 64840, Note_on_c, 0, 54, 69
4, 64960, Note_on_c, 0, 68, 60
4, 64960, Note_on_c, 0, 64, 49
4, 64960, Note_on_c, 0, 58, 1
4, 64988, Note_off_c, 0, 54, 64
4, 65040, Note_off_c, 0, 30, 64
4, 65048, Note_off_c, 0, 58, 64
4, 65048, Note_off_c, 0, 64, 64
4, 65048, Note_off_c, 0, 68, 64
4, 65064, Note_on_c, 0, 63, 55
4, 65064, Note_on_c, 0, 66, 55
4, 65096, Note_on_c, 0, 68, 59
4, 65116, Note_off_c, 0, 66, 64
4, 65116, Note_off_c, 0, 63, 64
4, 65144, Note_off_c, 0, 42, 64
4, 65152, Note_on_c, 0, 66, 75
4, 65152, Note_on_c, 0, 63, 64
4, 65152, Note_on_c, 0, 43, 65
4, 65152, Note_on_c, 0, 31, 65
4, 65156, Note_on_c, 0, 58, 60
4, 65196, Note_off_c, 0, 68, 64
4, 65248, Note_off_c, 0, 58, 64
4, 65288, Note_on_c, 0, 64, 64
4, 65288, Note_on_c, 0, 61, 60
4, 65300, Note_off_c, 0, 63, 64
4, 65300, Note_off_c, 0, 66, 64
4, 65368, Note_off_c, 0, 31, 64
4, 65368, Note_off_c, 0, 43, 64
4, 65428, Control_c, 0, 64, 0
4, 65436, Note_on_c, 0, 62, 67
4, 65440, Note_on_c, 0, 58, 75
4, 65440, Note_on_c, 0, 44, 65
4, 65440, Note_on_c, 0, 32, 65
4, 65460, Note_off_c, 0, 61, 64
4, 65460, Note_off_c, 0, 64, 64
4, 65524, Control_c, 0, 64, 127
4, 65568, Note_on_c, 0, 51, 62
4, 65620, Note_off_c, 0, 62, 64
4, 65628, Note_off_c, 0, 44, 64
4, 65628, Note_off_c, 0, 58, 64
4, 65672, Note_off_c, 0, 51, 64
4, 65688, Note_off_c, 0, 32, 64
4, 65704, Note_on_c, 0, 62, 62
4, 65708, Note_on_c, 0, 44, 65
4, 65712, Note_on_c, 0, 58, 70
4, 65724, Control_c, 0, 64, 0
4, 65796, Control_c, 0, 64, 127
4, 65872, Note_off_c, 0, 44, 64
4, 65992, Note_on_c, 0, 63, 64
4, 65992, Note_on_c, 0, 59, 62
4, 65996, Note_on_c, 0, 54, 54
4, 65996, Note_on_c, 0, 51, 54
4, 66000, Note_off_c, 0, 62, 64
4, 66000, Note_on_c, 0, 44, 54
4, 66008, Control_c, 0, 64, 0
4, 66012, Note_off_c, 0, 58, 64
4, 66068, Control_c, 0, 64, 127
4, 66184, Note_off_c, 0, 44, 64
4, 66196, Note_off_c, 0, 63, 64
4, 66196, Note_off_c, 0, 59, 64
4, 66200, Note_off_c, 0, 54, 64
4, 66200, Note_off_c, 0, 51, 64
4, 66276, Note_on_c, 0, 37, 54
4, 66280, Note_on_c, 0, 63, 65
4, 66288, Note_on_c, 0, 59, 64
4, 66300, Control_c, 0, 64, 0
4, 66392, Control_c, 0, 64, 127
4, 66572, Note_off_c, 0, 59, 64
4, 66576, Note_on_c, 0, 53, 60
4, 66584, Note_on_c, 0, 49, 53
4, 66588, Note_on_c, 0, 56, 60
4, 66596, Note_off_c, 0, 63, 64
4, 66672, Note_off_c, 0, 56, 64
4, 66672, Note_off_c, 0, 49, 64
4, 66712, Note_on_c, 0, 63, 73
4, 66712, Note_on_c, 0, 59, 60
4, 66744, Note_off_c, 0, 53, 64
4, 66752, Note_off_c, 0, 37, 64
4, 66768, Note_off_c, 0, 59, 64
4, 66768, Note_off_c, 0, 63, 64
4, 66788, Note_on_c, 0, 63, 70
4, 66792, Note_on_c, 0, 59, 62
4, 66840, Note_on_c, 0, 65, 64
4, 66856, Control_c, 0, 64, 0
4, 66860, Note_off_c, 0, 63, 64
4, 66864, Note_off_c, 0, 59, 64
4, 66876, Note_on_c, 0, 59, 52
4, 66880, Note_on_c, 0, 63, 71
4, 66884, Note_on_c, 0, 49, 53
4, 66888, Note_on_c, 0, 56, 60
4, 66900, Control_c, 0, 64, 127
4, 66924, Note_off_c, 0, 65, 64
4, 66972, Note_off_c, 0, 49, 64
4, 66976, Note_off_c, 0, 56, 64
4, 67016, Note_off_c, 0, 63, 64
4, 67016, Note_off_c, 0, 59, 64
4, 67052, Note_on_c, 0, 61, 72
4, 67052, Note_on_c, 0, 59, 70
4, 67140, Note_on_c, 0, 64, 64
4, 67140, Note_on_c, 0, 30, 67
4, 67148, Note_on_c, 0, 42, 65
4, 67152, Note_off_c, 0, 61, 64
4, 67152, Note_on_c, 0, 68, 67
4, 67160, Note_off_c, 0, 59, 64
4, 67160, Control_c, 0, 64, 0
4, 67220, Control_c, 0, 64, 127
4, 67288, Note_off_c, 0, 68, 64
4, 67308, Note_on_c, 0, 71, 65
4, 67308, Note_on_c, 0, 68, 60
4, 67312, Note_off_c, 0, 64, 64
4, 67408, Note_on_c, 0, 54, 71
4, 67416, Note_off_c, 0, 30, 64
4, 67416, Note_on_c, 0, 61, 65
4, 67420, Note_on_c, 0, 58, 67
4, 67424, Note_off_c, 0, 42, 64
4, 67444, Control_c, 0, 64, 0
4, 67448, Note_off_c, 0, 68, 64
4, 67448, Note_off_c, 0, 71, 64
4, 67504, Control_c, 0, 64, 127
4, 67672, Note_off_c, 0, 54, 64
4, 67680, Note_off_c, 0, 61, 64
4, 67680, Note_off_c, 0, 58, 64
4, 67728, Control_c, 0, 64, 0
4, 67736, Note_on_c, 0, 64, 64
4, 67736, Note_on_c, 0, 61, 65
4, 67736, Note_on_c, 0, 68, 64
4, 67744, Note_on_c, 0, 58, 65
4, 67744, Note_on_c, 0, 54, 71
4, 67760, Control_c, 0, 64, 127
4, 67952, Note_off_c, 0, 64, 64
4, 67976, Note_off_c, 0, 61, 64
4, 67984, Note_off_c, 0, 58, 64
4, 67988, Note_off_c, 0, 54, 64
4, 68008, Note_off_c, 0, 68, 64
4, 68060, Note_on_c, 0, 63, 60
4, 68064, Note_on_c, 0, 66, 64
4, 68068, Note_on_c, 0, 75, 64
4, 68072, Note_on_c, 0, 47, 54
4, 68072, Note_on_c, 0, 35, 60
4, 68100, Control_c, 0, 64, 0
4, 68168, Control_c, 0, 64, 127
4, 68340, Note_off_c, 0, 66, 64
4, 68352, Note_on_c, 0, 54, 54
4, 68376, Note_on_c, 0, 59, 55
4, 68380, Note_on_c, 0, 66, 75
4, 68384, Note_off_c, 0, 63, 64
4, 68392, Note_off_c, 0, 75, 64
4, 68396, Note_off_c, 0, 35, 64
4, 68396, Note_off_c, 0, 47, 64
4, 68400, Note_on_c, 0, 63, 55
4, 68484, Note_on_c, 0, 75, 55
4, 68488, Note_on_c, 0, 71, 55
4, 68512, Note_off_c, 0, 66, 64
4, 68580, Note_off_c, 0, 59, 64
4, 68596, Note_off_c, 0, 54, 64
4, 68608, Note_off_c, 0, 63, 64
4, 68632, Note_on_c, 0, 76, 56
4, 68640, Note_on_c, 0, 73, 75
4, 68648, Note_off_c, 0, 75, 64
4, 68652, Note_off_c, 0, 71, 64
4, 68800, Note_off_c, 0, 73, 64
4, 68800, Note_on_c, 0, 77, 64
4, 68800, Note_on_c, 0, 74, 65
4, 68808, Note_off_c, 0, 76, 64
4, 68856, Note_off_c, 0, 74, 64
4, 68856, Note_off_c, 0, 77, 64
4, 68892, Note_on_c, 0, 77, 64
4, 68892, Note_on_c, 0, 74, 74
4, 68904, Note_on_c, 0, 47, 64
4, 68912, Control_c, 0, 64, 0
4, 68972, Control_c, 0, 64, 127
4, 69072, Note_on_c, 0, 68, 71
4, 69128, Note_off_c, 0, 77, 64
4, 69136, Note_off_c, 0, 74, 64
4, 69168, Note_on_c, 0, 74, 60
4, 69168, Note_on_c, 0, 62, 55
4, 69168, Note_on_c, 0, 59, 52
4, 69176, Note_on_c, 0, 56, 50
4, 69176, Note_on_c, 0, 77, 70
4, 69200, Note_off_c, 0, 68, 64
4, 69200, Control_c, 0, 64, 0
4, 69268, Control_c, 0, 64, 127
4, 69360, Note_off_c, 0, 59, 64
4, 69368, Note_off_c, 0, 47, 64
4, 69372, Note_off_c, 0, 62, 64
4, 69376, Note_off_c, 0, 56, 64
4, 69408, Note_off_c, 0, 74, 64
4, 69452, Note_off_c, 0, 77, 64
4, 69464, Note_on_c, 0, 59, 51
4, 69464, Note_on_c, 0, 66, 62
4, 69472, Note_on_c, 0, 75, 59
4, 69472, Note_on_c, 0, 54, 60
4, 69472, Note_on_c, 0, 78, 67
4, 69472, Note_on_c, 0, 63, 59
4, 69648, Note_on_c, 0, 68, 67
4, 69660, Note_off_c, 0, 59, 64
4, 69664, Note_off_c, 0, 66, 64
4, 69668, Note_off_c, 0, 54, 64
4, 69668, Note_off_c, 0, 75, 64
4, 69672, Note_off_c, 0, 63, 64
4, 69672, Note_off_c, 0, 78, 64
4, 69692, Note_off_c, 0, 68, 64
4, 69744, Note_on_c, 0, 68, 64
4, 69800, Note_on_c, 0, 76, 54
4, 69832, Note_on_c, 0, 40, 59
4, 69840, Note_on_c, 0, 83, 73
4, 69852, Control_c, 0, 64, 0
4, 69912, Control_c, 0, 64, 127
4, 70092, Note_off_c, 0, 68, 64
4, 70152, Note_off_c, 0, 76, 64
4, 70188, Note_on_c, 0, 71, 50
4, 70188, Note_on_c, 0, 68, 48
4, 70188, Note_on_c, 0, 64, 61
4, 70188, Note_on_c, 0, 59, 60
4, 70188, Note_on_c, 0, 56, 52
4, 70192, Note_off_c, 0, 83, 64
4, 70276, Note_off_c, 0, 40, 64
4, 70292, Note_off_c, 0, 56, 64
4, 70292, Note_off_c, 0, 59, 64
4, 70292, Note_off_c, 0, 64, 64
4, 70292, Note_off_c, 0, 68, 64
4, 70308, Note_on_c, 0, 83, 60
4, 70308, Note_on_c, 0, 80, 65
4, 70336, Note_off_c, 0, 71, 64
4, 70400, Note_off_c, 0, 80, 64
4, 70400, Note_off_c, 0, 83, 64
4, 70416, Note_on_c, 0, 83, 65
4, 70440, Control_c, 0, 64, 0
4, 70468, Note_on_c, 0, 82, 61
4, 70480, Note_on_c, 0, 78, 60
4, 70496, Note_off_c, 0, 83, 64
4, 70516, Control_c, 0, 64, 127
4, 70624, Note_on_c, 0, 76, 67
4, 70624, Note_on_c, 0, 80, 72
4, 70648, Note_off_c, 0, 82, 64
4, 70656, Note_off_c, 0, 78, 64
4, 70768, Note_on_c, 0, 74, 70
4, 70772, Note_on_c, 0, 77, 64
4, 70776, Note_off_c, 0, 80, 64
4, 70780, Note_off_c, 0, 76, 64
4, 70792, Control_c, 0, 64, 0
4, 70800, Note_on_c, 0, 47, 65
4, 70856, Control_c, 0, 64, 127
4, 70952, Note_on_c, 0, 66, 61
4, 70956, Note_off_c, 0, 74, 64
4, 70960, Note_off_c, 0, 77, 64
4, 71028, Note_on_c, 0, 77, 60
4, 71032, Note_on_c, 0, 74, 59
4, 71040, Note_on_c, 0, 59, 51
4, 71040, Note_on_c, 0, 56, 50
4, 71044, Note_on_c, 0, 62, 58
4, 71064, Note_off_c, 0, 66, 64
4, 71064, Control_c, 0, 64, 0
4, 71144, Control_c, 0, 64, 127
4, 71252, Note_off_c, 0, 47, 64
4, 71312, Note_on_c, 0, 75, 52
4, 71316, Note_off_c, 0, 56, 64
4, 71316, Note_off_c, 0, 59, 64
4, 71316, Note_on_c, 0, 66, 50
4, 71320, Note_off_c, 0, 62, 64
4, 71320, Note_on_c, 0, 78, 62
4, 71320, Note_on_c, 0, 54, 54
4, 71324, Note_on_c, 0, 63, 51
4, 71328, Note_on_c, 0, 59, 51
4, 71344, Note_off_c, 0, 77, 64
4, 71348, Note_off_c, 0, 74, 64
4, 71348, Control_c, 0, 64, 0
4, 71400, Control_c, 0, 64, 127
4, 71596, Note_off_c, 0, 54, 64
4, 71600, Note_off_c, 0, 63, 64
4, 71600, Note_on_c, 0, 42, 61
4, 71604, Note_off_c, 0, 59, 64
4, 71608, Note_on_c, 0, 76, 64
4, 71608, Note_on_c, 0, 70, 64
4, 71608, Note_on_c, 0, 54, 61
4, 71620, Note_on_c, 0, 80, 60
4, 71628, Note_off_c, 0, 75, 64
4, 71632, Note_off_c, 0, 78, 64
4, 71632, Note_off_c, 0, 66, 64
4, 71632, Control_c, 0, 64, 0
4, 71716, Control_c, 0, 64, 127
4, 71856, Note_off_c, 0, 70, 64
4, 71856, Note_off_c, 0, 76, 64
4, 71868, Note_off_c, 0, 80, 64
4, 71868, Note_off_c, 0, 54, 64
4, 71896, Note_on_c, 0, 54, 28
4, 71908, Note_on_c, 0, 61, 48
4, 71912, Note_on_c, 0, 64, 36
4, 71916, Note_on_c, 0, 66, 68
4, 72044, Note_off_c, 0, 42, 64
4, 72044, Note_on_c, 0, 70, 61
4, 72044, Note_on_c, 0, 80, 62
4, 72044, Note_on_c, 0, 76, 61
4, 72060, Note_off_c, 0, 66, 64
4, 72148, Note_off_c, 0, 70, 64
4, 72152, Note_off_c, 0, 76, 64
4, 72160, Note_off_c, 0, 80, 64
4, 72176, Note_on_c, 0, 80, 64
4, 72204, Control_c, 0, 64, 0
4, 72208, Note_on_c, 0, 75, 51
4, 72208, Note_on_c, 0, 70, 62
4, 72208, Note_on_c, 0, 42, 61
4, 72212, Note_on_c, 0, 78, 49
4, 72244, Note_off_c, 0, 64, 64
4, 72248, Control_c, 0, 64, 127
4, 72264, Note_off_c, 0, 61, 64
4, 72268, Note_off_c, 0, 80, 64
4, 72296, Note_off_c, 0, 54, 64
4, 72352, Note_on_c, 0, 73, 58
4, 72356, Note_on_c, 0, 76, 60
4, 72376, Note_off_c, 0, 70, 64
4, 72376, Note_off_c, 0, 75, 64
4, 72380, Note_off_c, 0, 78, 64
4, 72440, Note_off_c, 0, 42, 64
4, 72500, Note_on_c, 0, 70, 65
4, 72504, Note_on_c, 0, 74, 65
4, 72512, Note_on_c, 0, 44, 54
4, 72524, Note_off_c, 0, 73, 64
4, 72528, Note_off_c, 0, 76, 64
4, 72536, Control_c, 0, 64, 0
4, 72604, Control_c, 0, 64, 127
4, 72672, Note_off_c, 0, 74, 64
4, 72708, Note_off_c, 0, 70, 64
4, 72708, Note_on_c, 0, 63, 58
4, 72768, Note_on_c, 0, 70, 65
4, 72768, Note_on_c, 0, 51, 55
4, 72768, Note_on_c, 0, 74, 60
4, 72772, Note_on_c, 0, 59, 51
4, 72772, Note_on_c, 0, 56, 54
4, 72804, Control_c, 0, 64, 0
4, 72820, Note_off_c, 0, 63, 64
4, 72860, Control_c, 0, 64, 127
4, 72932, Note_off_c, 0, 51, 64
4, 72936, Note_off_c, 0, 56, 64
4, 72936, Note_off_c, 0, 59, 64
4, 73060, Note_on_c, 0, 71, 60
4, 73068, Note_on_c, 0, 75, 65
4, 73068, Note_on_c, 0, 66, 49
4, 73068, Note_on_c, 0, 59, 51
4, 73068, Note_on_c, 0, 56, 54
4, 73068, Note_on_c, 0, 51, 55
4, 73080, Note_off_c, 0, 74, 64
4, 73080, Note_off_c, 0, 70, 64
4, 73104, Note_off_c, 0, 44, 64
4, 73112, Control_c, 0, 64, 0
4, 73152, Control_c, 0, 64, 127
4, 73232, Note_off_c, 0, 51, 64
4, 73232, Note_off_c, 0, 56, 64
4, 73232, Note_off_c, 0, 59, 64
4, 73256, Note_off_c, 0, 71, 64
4, 73264, Note_off_c, 0, 66, 64
4, 73264, Note_off_c, 0, 75, 64
4, 73352, Note_on_c, 0, 37, 54
4, 73352, Note_on_c, 0, 75, 64
4, 73360, Note_on_c, 0, 71, 61
4, 73368, Control_c, 0, 64, 0
4, 73424, Control_c, 0, 64, 127
4, 73656, Note_on_c, 0, 68, 53
4, 73656, Note_on_c, 0, 61, 54
4, 73660, Note_on_c, 0, 65, 48
4, 73668, Control_c, 0, 64, 0
4, 73680, Note_off_c, 0, 75, 64
4, 73688, Note_off_c, 0, 71, 64
4, 73712, Control_c, 0, 64, 127
4, 73744, Note_off_c, 0, 68, 64
4, 73744, Note_off_c, 0, 61, 64
4, 73764, Note_on_c, 0, 75, 65
4, 73792, Note_off_c, 0, 37, 64
4, 73808, Note_off_c, 0, 65, 64
4, 73888, Note_off_c, 0, 75, 64
4, 73912, Note_on_c, 0, 70, 67
4, 73912, Note_on_c, 0, 75, 64
4, 73920, Note_on_c, 0, 64, 59
4, 73920, Note_on_c, 0, 54, 55
4, 73928, Control_c, 0, 64, 0
4, 73968, Control_c, 0, 64, 127
4, 74008, Note_off_c, 0, 54, 64
4, 74080, Note_on_c, 0, 73, 65
4, 74112, Note_off_c, 0, 75, 64
4, 74124, Note_off_c, 0, 70, 64
4, 74132, Note_off_c, 0, 64, 64
4, 74152, Note_on_c, 0, 47, 58
4, 74168, Note_on_c, 0, 74, 65
4, 74172, Note_on_c, 0, 80, 68
4, 74180, Control_c, 0, 64, 0
4, 74184, Note_off_c, 0, 73, 64
4, 74232, Control_c, 0, 64, 127
4, 74336, Note_off_c, 0, 74, 64
4, 74348, Note_off_c, 0, 80, 64
4, 74352, Note_on_c, 0, 68, 60
4, 74416, Note_on_c, 0, 59, 51
4, 74416, Note_on_c, 0, 53, 50
4, 74424, Note_on_c, 0, 62, 44
4, 74428, Note_on_c, 0, 80, 72
4, 74432, Note_on_c, 0, 74, 60
4, 74464, Control_c, 0, 64, 0
4, 74472, Note_off_c, 0, 68, 64
4, 74500, Control_c, 0, 64, 127
4, 74628, Note_off_c, 0, 47, 64
4, 74696, Control_c, 0, 64, 0
4, 74700, Note_on_c, 0, 78, 61
4, 74700, Note_on_c, 0, 75, 64
4, 74704, Note_off_c, 0, 53, 64
4, 74704, Note_off_c, 0, 59, 64
4, 74704, Note_on_c, 0, 66, 64
4, 74712, Note_off_c, 0, 62, 64
4, 74712, Note_on_c, 0, 63, 53
4, 74712, Note_on_c, 0, 54, 50
4, 74716, Note_off_c, 0, 80, 64
4, 74720, Note_off_c, 0, 74, 64
4, 74720, Note_on_c, 0, 59, 51
4, 74768, Control_c, 0, 64, 127
4, 74832, Note_off_c, 0, 75, 64
4, 74832, Note_off_c, 0, 78, 64
4, 74840, Note_off_c, 0, 66, 64
4, 74844, Note_off_c, 0, 54, 64
4, 74844, Note_off_c, 0, 63, 64
4, 74856, Note_off_c, 0, 59, 64
4, 75024, Note_on_c, 0, 75, 62
4, 75024, Note_on_c, 0, 37, 61
4, 75032, Note_on_c, 0, 71, 64
4, 75092, Control_c, 0, 64, 0
4, 75152, Control_c, 0, 64, 127
4, 75296, Note_off_c, 0, 75, 64
4, 75300, Note_off_c, 0, 71, 64
4, 75344, Note_on_c, 0, 68, 54
4, 75352, Note_on_c, 0, 65, 53
4, 75352, Note_on_c, 0, 61, 60
4, 75432, Note_off_c, 0, 68, 64
4, 75440, Note_off_c, 0, 61, 64
4, 75456, Note_on_c, 0, 75, 62
4, 75472, Note_off_c, 0, 37, 64
4, 75480, Note_off_c, 0, 65, 64
4, 75556, Note_off_c, 0, 75, 64
4, 75596, Note_on_c, 0, 75, 67
4, 75596, Note_on_c, 0, 70, 65
4, 75608, Note_on_c, 0, 64, 64
4, 75608, Note_on_c, 0, 54, 51
4, 75624, Control_c, 0, 64, 0
4, 75680, Control_c, 0, 64, 127
4, 75700, Note_off_c, 0, 64, 64
4, 75708, Note_off_c, 0, 70, 64
4, 75740, Note_off_c, 0, 54, 64
4, 75760, Note_on_c, 0, 73, 68
4, 75784, Note_off_c, 0, 75, 64
4, 75824, Note_on_c, 0, 47, 52
4, 75840, Note_on_c, 0, 80, 75
4, 75848, Note_on_c, 0, 74, 67
4, 75852, Note_off_c, 0, 73, 64
4, 75852, Control_c, 0, 64, 0
4, 75888, Control_c, 0, 64, 127
4, 75980, Note_on_c, 0, 68, 65
4, 76016, Note_off_c, 0, 68, 64
4, 76020, Note_off_c, 0, 80, 64
4, 76028, Note_off_c, 0, 74, 64
4, 76044, Note_on_c, 0, 68, 73
4, 76096, Note_on_c, 0, 53, 52
4, 76100, Note_on_c, 0, 62, 51
4, 76100, Note_on_c, 0, 59, 54
4, 76108, Note_on_c, 0, 74, 64
4, 76108, Note_on_c, 0, 80, 72
4, 76116, Note_off_c, 0, 68, 64
4, 76140, Control_c, 0, 64, 0
4, 76176, Control_c, 0, 64, 127
4, 76288, Note_off_c, 0, 47, 64
4, 76396, Note_on_c, 0, 78, 71
4, 76396, Note_on_c, 0, 75, 64
4, 76404, Note_off_c, 0, 80, 64
4, 76404, Note_off_c, 0, 74, 64
4, 76408, Note_off_c, 0, 53, 64
4, 76408, Note_on_c, 0, 66, 64
4, 76412, Note_off_c, 0, 59, 64
4, 76412, Note_off_c, 0, 62, 64
4, 76420, Note_on_c, 0, 63, 54
4, 76424, Note_on_c, 0, 59, 56
4, 76428, Note_on_c, 0, 54, 54
4, 76428, Control_c, 0, 64, 0
4, 76480, Control_c, 0, 64, 127
4, 76528, Note_off_c, 0, 75, 64
4, 76528, Note_off_c, 0, 78, 64
4, 76544, Note_off_c, 0, 66, 64
4, 76552, Note_off_c, 0, 63, 64
4, 76556, Note_off_c, 0, 59, 64
4, 76560, Note_off_c, 0, 54, 64
4, 76736, Note_on_c, 0, 75, 64
4, 76736, Note_on_c, 0, 71, 60
4, 76736, Note_on_c, 0, 37, 89
4, 76748, Control_c, 0, 64, 0
4, 76808, Control_c, 0, 64, 127
4, 77120, Note_off_c, 0, 71, 64
4, 77120, Note_on_c, 0, 65, 59
4, 77120, Note_on_c, 0, 68, 67
4, 77136, Note_on_c, 0, 61, 52
4, 77136, Control_c, 0, 64, 0
4, 77156, Note_off_c, 0, 75, 64
4, 77204, Control_c, 0, 64, 127
4, 77304, Note_on_c, 0, 75, 64
4, 77360, Note_off_c, 0, 75, 64
4, 77392, Note_on_c, 0, 75, 67
4, 77556, Note_on_c, 0, 73, 70
4, 77560, Note_off_c, 0, 37, 64
4, 77576, Note_off_c, 0, 75, 64
4, 77628, Note_off_c, 0, 65, 64
4, 77648, Note_on_c, 0, 75, 64
4, 77648, Note_on_c, 0, 71, 55
4, 77668, Control_c, 0, 64, 0
4, 77680, Note_off_c, 0, 73, 64
4, 77744, Control_c, 0, 64, 127
4, 77808, Note_off_c, 0, 68, 64
4, 77816, Note_off_c, 0, 61, 64
4, 77912, Note_on_c, 0, 65, 64
4, 77916, Note_off_c, 0, 75, 64
4, 78044, Note_on_c, 0, 75, 72
4, 78100, Note_off_c, 0, 75, 64
4, 78140, Note_on_c, 0, 75, 68
4, 78232, Note_off_c, 0, 65, 64
4, 78268, Note_off_c, 0, 71, 64
4, 78296, Note_on_c, 0, 73, 65
4, 78332, Note_off_c, 0, 75, 64
4, 78408, Note_off_c, 0, 73, 64
4, 78416, Note_on_c, 0, 75, 70
4, 78416, Note_on_c, 0, 71, 60
4, 78432, Note_on_c, 0, 30, 77
4, 78444, Note_on_c, 0, 42, 71
4, 78452, Control_c, 0, 64, 0
4, 78508, Control_c, 0, 64, 127
4, 78816, Note_off_c, 0, 71, 64
4, 78860, Note_on_c, 0, 68, 50
4, 78860, Note_on_c, 0, 64, 51
4, 78868, Note_on_c, 0, 61, 51
4, 78880, Note_off_c, 0, 75, 64
4, 78900, Control_c, 0, 64, 0
4, 78936, Control_c, 0, 64, 127
4, 79020, Note_on_c, 0, 75, 58
4, 79080, Note_off_c, 0, 75, 64
4, 79128, Note_on_c, 0, 75, 65
4, 79264, Note_off_c, 0, 30, 64
4, 79272, Note_off_c, 0, 42, 64
4, 79292, Note_on_c, 0, 73, 67
4, 79320, Note_off_c, 0, 75, 64
4, 79360, Note_off_c, 0, 64, 64
4, 79408, Note_off_c, 0, 73, 64
4, 79408, Note_on_c, 0, 75, 65
4, 79432, Note_on_c, 0, 71, 49
4, 79468, Control_c, 0, 64, 0
4, 79516, Control_c, 0, 64, 127
4, 79688, Control_c, 0, 64, 0
4, 79696, Note_off_c, 0, 71, 64
4, 79700, Note_off_c, 0, 75, 64
4, 79704, Note_on_c, 0, 64, 60
4, 79748, Control_c, 0, 64, 127
4, 79852, Note_on_c, 0, 75, 64
4, 79884, Note_off_c, 0, 68, 64
4, 79888, Note_off_c, 0, 61, 64
4, 79908, Note_off_c, 0, 75, 64
4, 79952, Note_on_c, 0, 75, 60
4, 80056, Note_off_c, 0, 64, 64
4, 80120, Note_on_c, 0, 73, 56
4, 80168, Note_off_c, 0, 75, 64
4, 80264, Note_on_c, 0, 70, 60
4, 80272, Note_on_c, 0, 54, 51
4, 80272, Note_on_c, 0, 61, 48
4, 80284, Note_on_c, 0, 64, 40
4, 80292, Note_off_c, 0, 73, 64
4, 80328, Control_c, 0, 64, 0
4, 80416, Note_on_c, 0, 75, 55
4, 80420, Control_c, 0, 64, 127
4, 80484, Note_off_c, 0, 70, 64
4, 80548, Note_on_c, 0, 73, 59
4, 80600, Note_off_c, 0, 75, 64
4, 80676, Note_on_c, 0, 69, 58
4, 80700, Note_off_c, 0, 73, 64
4, 80748, Control_c, 0, 64, 0
4, 80784, Control_c, 0, 64, 127
4, 80796, Note_on_c, 0, 75, 52
4, 80896, Note_off_c, 0, 69, 64
4, 80920, Note_on_c, 0, 73, 58
4, 80968, Note_off_c, 0, 75, 64
4, 81064, Note_on_c, 0, 69, 61
4, 81068, Note_off_c, 0, 73, 64
4, 81184, Note_on_c, 0, 75, 38
4, 81216, Note_off_c, 0, 69, 64
4, 81324, Note_off_c, 0, 75, 64
4, 81332, Note_on_c, 0, 73, 41
4, 81440, Note_on_c, 0, 68, 61
4, 81476, Note_off_c, 0, 73, 64
4, 81588, Note_on_c, 0, 75, 50
4, 81592, Note_on_c, 0, 59, 49
4, 81612, Note_off_c, 0, 61, 64
4, 81612, Control_c, 0, 64, 0
4, 81652, Note_off_c, 0, 68, 64
4, 81716, Note_on_c, 0, 73, 50
4, 81732, Note_off_c, 0, 75, 64
4, 81784, Control_c, 0, 64, 127
4, 81864, Note_on_c, 0, 68, 62
4, 81872, Note_off_c, 0, 73, 64
4, 82004, Note_on_c, 0, 75, 51
4, 82076, Note_off_c, 0, 68, 64
4, 82140, Note_on_c, 0, 73, 50
4, 82144, Note_off_c, 0, 75, 64
4, 82272, Note_on_c, 0, 67, 52
4, 82300, Note_off_c, 0, 73, 64
4, 82324, Control_c, 0, 64, 0
4, 82392, Control_c, 0, 64, 127
4, 82408, Note_on_c, 0, 75, 43
4, 82480, Note_off_c, 0, 67, 64
4, 82564, Note_on_c, 0, 73, 34
4, 82588, Note_off_c, 0, 75, 64
4, 82724, Note_on_c, 0, 67, 44
4, 82736, Note_off_c, 0, 73, 64
4, 82884, Note_on_c, 0, 75, 44
4, 82944, Note_off_c, 0, 67, 64
4, 83036, Note_off_c, 0, 75, 64
4, 83052, Note_on_c, 0, 73, 40
4, 83220, Note_off_c, 0, 73, 64
4, 83224, Note_on_c, 0, 66, 49
4, 83396, Note_on_c, 0, 58, 36
4, 83404, Note_on_c, 0, 75, 43
4, 83456, Control_c, 0, 64, 0
4, 83472, Note_off_c, 0, 59, 64
4, 83572, Control_c, 0, 64, 127
4, 83584, Note_on_c, 0, 73, 42
4, 83592, Note_off_c, 0, 75, 64
4, 83632, Note_off_c, 0, 66, 64
4, 83820, Note_off_c, 0, 73, 64
4, 83848, Note_on_c, 0, 66, 40
4, 83952, Control_c, 0, 64, 0
4, 84016, Note_on_c, 0, 75, 37
4, 84064, Control_c, 0, 64, 127
4, 84176, Note_on_c, 0, 73, 35
4, 84184, Note_off_c, 0, 64, 64
4, 84188, Note_off_c, 0, 58, 64
4, 84196, Note_off_c, 0, 75, 64
4, 84208, Note_off_c, 0, 66, 64
4, 84220, Note_off_c, 0, 54, 64
4, 84524, Note_on_c, 0, 64, 23
4, 84536, Note_on_c, 0, 66, 24
4, 84540, Note_on_c, 0, 54, 28
4, 84560, Control_c, 0, 64, 0
4, 84644, Control_c, 0, 64, 127
4, 84864, Note_on_c, 0, 71, 45
4, 84884, Note_off_c, 0, 73, 64
4, 84976, Note_on_c, 0, 68, 40
4, 85008, Note_off_c, 0, 71, 64
4, 85068, Note_off_c, 0, 64, 64
4, 85080, Note_off_c, 0, 66, 64
4, 85084, Control_c, 0, 64, 0
4, 85120, Note_on_c, 0, 70, 45
4, 85152, Note_off_c, 0, 68, 64
4, 85176, Control_c, 0, 64, 127
4, 85184, Note_off_c, 0, 54, 64
4, 85420, Note_on_c, 0, 47, 42
4, 85420, Note_on_c, 0, 63, 43
4, 85432, Note_on_c, 0, 71, 45
4, 85440, Note_on_c, 0, 54, 35
4, 85440, Note_on_c, 0, 59, 37
4, 85456, Note_off_c, 0, 70, 64
4, 85456, Control_c, 0, 64, 0
4, 85512, Control_c, 0, 64, 127
4, 85708, Note_on_c, 0, 70, 51
4, 85744, Note_off_c, 0, 71, 64
4, 85836, Note_on_c, 0, 66, 45
4, 85860, Note_off_c, 0, 70, 64
4, 85908, Note_off_c, 0, 63, 64
4, 85928, Note_off_c, 0, 59, 64
4, 85948, Control_c, 0, 64, 0
4, 85960, Note_on_c, 0, 68, 55
4, 85996, Note_off_c, 0, 66, 64
4, 86016, Note_off_c, 0, 47, 64
4, 86024, Note_off_c, 0, 54, 64
4, 86048, Control_c, 0, 64, 127
4, 86212, Note_on_c, 0, 70, 54
4, 86220, Note_on_c, 0, 63, 45
4, 86224, Note_on_c, 0, 54, 40
4, 86232, Note_on_c, 0, 59, 47
4, 86232, Note_on_c, 0, 47, 43
4, 86240, Note_off_c, 0, 68, 64
4, 86244, Control_c, 0, 64, 0
4, 86336, Control_c, 0, 64, 127
4, 86452, Control_c, 0, 64, 0
4, 86464, Note_off_c, 0, 63, 64
4, 86476, Control_c, 0, 64, 127
4, 86480, Note_on_c, 0, 68, 54
4, 86496, Note_off_c, 0, 70, 64
4, 86600, Note_on_c, 0, 64, 47
4, 86632, Note_off_c, 0, 68, 64
4, 86720, Note_on_c, 0, 66, 51
4, 86744, Control_c, 0, 64, 0
4, 86748, Note_off_c, 0, 64, 64
4, 86752, Note_off_c, 0, 47, 64
4, 86776, Note_off_c, 0, 54, 64
4, 86780, Note_off_c, 0, 59, 64
4, 86784, Control_c, 0, 64, 127
4, 86992, Note_on_c, 0, 68, 47
4, 87000, Note_on_c, 0, 63, 47
4, 87008, Note_on_c, 0, 54, 48
4, 87008, Control_c, 0, 64, 0
4, 87016, Note_off_c, 0, 66, 64
4, 87020, Note_on_c, 0, 59, 34
4, 87020, Note_on_c, 0, 47, 40
4, 87104, Control_c, 0, 64, 127
4, 87208, Note_off_c, 0, 68, 64
4, 87256, Control_c, 0, 64, 0
4, 87268, Note_on_c, 0, 68, 64
4, 87280, Control_c, 0, 64, 127
4, 87372, Note_on_c, 0, 66, 65
4, 87376, Note_off_c, 0, 54, 64
4, 87380, Note_off_c, 0, 47, 64
4, 87384, Note_off_c, 0, 63, 64
4, 87392, Note_off_c, 0, 68, 64
4, 87404, Note_off_c, 0, 59, 64
4, 87504, Note_on_c, 0, 63, 59
4, 87524, Note_off_c, 0, 66, 64
4, 87692, Control_c, 0, 64, 0
4, 87740, Note_on_c, 0, 54, 54
4, 87740, Note_on_c, 0, 47, 48
4, 87740, Note_on_c, 0, 35, 57
4, 87744, Note_on_c, 0, 59, 51
4, 87796, Note_off_c, 0, 35, 64
4, 87796, Note_off_c, 0, 47, 64
4, 87796, Note_off_c, 0, 54, 64
4, 87800, Note_off_c, 0, 59, 64
4, 87996, Note_on_c, 0, 35, 64
4, 88000, Note_on_c, 0, 59, 55
4, 88000, Note_on_c, 0, 54, 62
4, 88000, Note_on_c, 0, 47, 48
4, 88052, Note_off_c, 0, 35, 64
4, 88056, Note_off_c, 0, 47, 64
4, 88056, Note_off_c, 0, 54, 64
4, 88056, Note_off_c, 0, 59, 64
4, 88260, Note_on_c, 0, 54, 63
4, 88260, Note_on_c, 0, 47, 48
4, 88260, Note_on_c, 0, 35, 74
4, 88264, Note_on_c, 0, 59, 56
4, 88320, Note_off_c, 0, 59, 64
4, 88320, Note_off_c, 0, 35, 64
4, 88320, Note_off_c, 0, 47, 64
4, 88320, Note_off_c, 0, 54, 64
4, 88344, Control_c, 0, 64, 127
4, 88724, Control_c, 0, 64, 0
4, 88760, Note_off_c, 0, 63, 64
4, 88760, Note_on_c, 0, 68, 65
4, 88880, Note_on_c, 0, 66, 60
4, 88908, Note_off_c, 0, 68, 64
4, 89012, Note_on_c, 0, 63, 73
4, 89024, Note_off_c, 0, 66, 64
4, 89264, Note_on_c, 0, 47, 57
4, 89268, Note_on_c, 0, 59, 61
4, 89268, Note_on_c, 0, 54, 60
4, 89268, Note_on_c, 0, 35, 60
4, 89300, Note_off_c, 0, 63, 64
4, 89304, Control_c, 0, 64, 127
4, 89324, Note_off_c, 0, 47, 64
4, 89328, Note_off_c, 0, 35, 64
4, 89328, Note_off_c, 0, 54, 64
4, 89328, Note_off_c, 0, 59, 64
4, 89592, Note_on_c, 0, 71, 64
4, 89592, Note_on_c, 0, 63, 70
4, 89592, Note_on_c, 0, 59, 56
4, 89596, Note_on_c, 0, 54, 60
4, 89596, Note_on_c, 0, 47, 60
4, 89652, Note_off_c, 0, 59, 64
4, 89652, Note_off_c, 0, 63, 64
4, 89652, Note_off_c, 0, 71, 64
4, 89656, Note_off_c, 0, 47, 64
4, 89656, Note_off_c, 0, 54, 64
4, 89968, Note_on_c, 0, 83, 59
4, 89968, Note_on_c, 0, 78, 59
4, 89968, Note_on_c, 0, 87, 64
4, 89972, Note_on_c, 0, 95, 64
4, 89972, Note_on_c, 0, 71, 56
4, 90352, Note_off_c, 0, 87, 64
4, 90352, Note_off_c, 0, 78, 64
4, 90352, Note_off_c, 0, 83, 64
4, 90356, Note_off_c, 0, 71, 64
4, 90356, Note_off_c, 0, 95, 64
4, 90356, End_track
0, 0, End_of_file
