0, 0, Header, 0, 2, 384
1, 0, Start_track
1, 0, Title_t, "Chopin's Mazurkas (played by © Ron Lubetsky)"
1, 0, Time_signature, 4, 2, 96, 8
1, 0, Sequencer_specific, 3, 0, 0, 65
1, 0, Tempo, 500000
1, 1464, Note_on_c, 0, 55, 93
1, 1464, Note_on_c, 0, 43, 86
1, 1464, Note_on_c, 0, 36, 93
1, 1564, Control_c, 0, 64, 127
1, 2400, Note_off_c, 0, 36, 64
1, 2400, Note_off_c, 0, 43, 64
1, 2400, Note_off_c, 0, 55, 64
1, 2516, Note_on_c, 0, 36, 75
1, 2520, Note_on_c, 0, 43, 81
1, 2524, Note_on_c, 0, 55, 88
1, 2556, Control_c, 0, 64, 0
1, 2564, Note_off_c, 0, 36, 64
1, 2564, Note_off_c, 0, 55, 64
1, 2572, Note_off_c, 0, 43, 64
1, 2796, Note_on_c, 0, 43, 92
1, 2796, Note_on_c, 0, 36, 88
1, 2808, Note_on_c, 0, 55, 93
1, 2844, Note_off_c, 0, 43, 64
1, 2844, Note_off_c, 0, 36, 64
1, 2848, Note_off_c, 0, 55, 64
1, 3100, Note_on_c, 0, 55, 102
1, 3108, Note_on_c, 0, 43, 93
1, 3112, Note_on_c, 0, 36, 93
1, 3184, Control_c, 0, 64, 127
1, 3980, Control_c, 0, 64, 0
1, 4108, Note_off_c, 0, 55, 64
1, 4116, Note_off_c, 0, 43, 64
1, 4120, Note_off_c, 0, 36, 64
1, 4164, Note_on_c, 0, 43, 82
1, 4164, Note_on_c, 0, 36, 81
1, 4172, Note_on_c, 0, 55, 83
1, 4204, Control_c, 0, 64, 0
1, 4212, Note_off_c, 0, 36, 64
1, 4212, Note_off_c, 0, 55, 64
1, 4216, Note_off_c, 0, 43, 64
1, 4440, Note_on_c, 0, 55, 95
1, 4440, Note_on_c, 0, 43, 88
1, 4448, Note_on_c, 0, 36, 83
1, 4488, Note_off_c, 0, 55, 64
1, 4488, Note_off_c, 0, 36, 64
1, 4492, Note_off_c, 0, 43, 64
1, 4716, Note_on_c, 0, 60, 66
1, 4720, Note_on_c, 0, 48, 72
1, 4724, Note_on_c, 0, 55, 66
1, 4728, Note_on_c, 0, 36, 65
1, 4732, Note_on_c, 0, 43, 64
1, 4864, Control_c, 0, 64, 127
1, 4900, Control_c, 0, 64, 0
1, 4912, Note_on_c, 0, 64, 52
1, 4980, Note_on_c, 0, 67, 66
1, 4996, Note_off_c, 0, 60, 64
1, 5012, Control_c, 0, 64, 127
1, 5020, Note_off_c, 0, 64, 64
1, 5228, Note_on_c, 0, 64, 67
1, 5236, Note_off_c, 0, 67, 64
1, 5240, Note_on_c, 0, 69, 73
1, 5412, Note_off_c, 0, 64, 64
1, 5492, Note_off_c, 0, 55, 64
1, 5492, Note_on_c, 0, 57, 67
1, 5500, Note_on_c, 0, 66, 73
1, 5500, Control_c, 0, 64, 0
1, 5504, Note_off_c, 0, 69, 64
1, 5568, Control_c, 0, 64, 127
1, 5612, Note_off_c, 0, 36, 64
1, 5628, Note_off_c, 0, 48, 64
1, 5628, Note_off_c, 0, 43, 64
1, 5672, Note_on_c, 0, 62, 62
1, 5700, Note_off_c, 0, 66, 64
1, 5736, Control_c, 0, 64, 0
1, 5748, Note_on_c, 0, 43, 80
1, 5756, Note_on_c, 0, 65, 71
1, 5764, Note_on_c, 0, 59, 80
1, 5764, Note_on_c, 0, 36, 73
1, 5776, Note_off_c, 0, 57, 64
1, 5796, Note_off_c, 0, 43, 64
1, 5800, Note_off_c, 0, 62, 64
1, 5800, Note_off_c, 0, 36, 64
1, 6000, Note_off_c, 0, 59, 64
1, 6000, Note_on_c, 0, 64, 63
1, 6000, Note_on_c, 0, 60, 66
1, 6016, Note_on_c, 0, 43, 89
1, 6020, Note_off_c, 0, 65, 64
1, 6032, Note_on_c, 0, 36, 72
1, 6060, Note_off_c, 0, 36, 64
1, 6068, Note_off_c, 0, 43, 64
1, 6240, Note_off_c, 0, 60, 64
1, 6264, Note_off_c, 0, 64, 64
1, 6272, Note_on_c, 0, 60, 71
1, 6280, Note_on_c, 0, 72, 71
1, 6292, Note_on_c, 0, 36, 71
1, 6296, Note_on_c, 0, 43, 80
1, 6476, Note_on_c, 0, 71, 64
1, 6508, Note_off_c, 0, 72, 64
1, 6532, Note_on_c, 0, 64, 65
1, 6536, Note_on_c, 0, 67, 73
1, 6548, Note_off_c, 0, 60, 64
1, 6592, Note_off_c, 0, 71, 64
1, 6608, Control_c, 0, 64, 127
1, 6700, Note_on_c, 0, 69, 66
1, 6732, Note_off_c, 0, 67, 64
1, 6736, Note_on_c, 0, 71, 63
1, 6768, Note_off_c, 0, 69, 64
1, 6800, Note_on_c, 0, 69, 66
1, 6808, Note_off_c, 0, 64, 64
1, 6812, Note_on_c, 0, 60, 44
1, 6820, Note_off_c, 0, 71, 64
1, 7016, Note_on_c, 0, 66, 81
1, 7020, Note_off_c, 0, 69, 64
1, 7028, Note_off_c, 0, 60, 64
1, 7036, Note_on_c, 0, 57, 66
1, 7052, Control_c, 0, 64, 0
1, 7100, Control_c, 0, 64, 127
1, 7168, Note_off_c, 0, 43, 64
1, 7176, Note_off_c, 0, 36, 64
1, 7204, Note_on_c, 0, 62, 65
1, 7212, Note_off_c, 0, 66, 64
1, 7264, Control_c, 0, 64, 0
1, 7276, Note_on_c, 0, 59, 71
1, 7276, Note_on_c, 0, 65, 71
1, 7276, Note_on_c, 0, 43, 71
1, 7276, Note_on_c, 0, 36, 71
1, 7296, Note_off_c, 0, 57, 64
1, 7300, Note_off_c, 0, 62, 64
1, 7316, Note_off_c, 0, 43, 64
1, 7316, Note_off_c, 0, 36, 64
1, 7516, Note_on_c, 0, 64, 66
1, 7528, Note_on_c, 0, 55, 73
1, 7532, Note_off_c, 0, 59, 64
1, 7536, Note_off_c, 0, 65, 64
1, 7544, Note_on_c, 0, 43, 80
1, 7544, Note_on_c, 0, 36, 72
1, 7560, Control_c, 0, 64, 127
1, 7580, Note_off_c, 0, 43, 64
1, 7588, Note_off_c, 0, 36, 64
1, 7712, Note_on_c, 0, 62, 71
1, 7720, Note_off_c, 0, 64, 64
1, 7780, Control_c, 0, 64, 0
1, 7788, Note_on_c, 0, 60, 77
1, 7796, Note_on_c, 0, 43, 73
1, 7796, Note_on_c, 0, 36, 74
1, 7804, Note_off_c, 0, 55, 64
1, 7820, Note_off_c, 0, 62, 64
1, 7964, Note_on_c, 0, 64, 50
1, 8028, Note_on_c, 0, 67, 71
1, 8044, Note_on_c, 0, 55, 71
1, 8052, Note_off_c, 0, 60, 64
1, 8056, Control_c, 0, 64, 127
1, 8100, Note_off_c, 0, 64, 64
1, 8284, Note_on_c, 0, 69, 66
1, 8284, Note_on_c, 0, 64, 62
1, 8292, Note_off_c, 0, 67, 64
1, 8304, Note_off_c, 0, 55, 64
1, 8524, Note_off_c, 0, 69, 64
1, 8524, Note_off_c, 0, 64, 64
1, 8564, Note_on_c, 0, 66, 77
1, 8564, Note_on_c, 0, 57, 66
1, 8640, Note_off_c, 0, 43, 64
1, 8644, Note_off_c, 0, 36, 64
1, 8724, Note_on_c, 0, 62, 58
1, 8764, Note_off_c, 0, 66, 64
1, 8788, Control_c, 0, 64, 0
1, 8804, Note_on_c, 0, 65, 66
1, 8812, Note_on_c, 0, 59, 66
1, 8820, Note_on_c, 0, 43, 81
1, 8820, Note_on_c, 0, 36, 77
1, 8828, Note_off_c, 0, 57, 64
1, 8828, Note_off_c, 0, 62, 64
1, 8856, Note_off_c, 0, 43, 64
1, 8860, Note_off_c, 0, 36, 64
1, 9048, Note_on_c, 0, 64, 59
1, 9052, Note_on_c, 0, 60, 62
1, 9060, Control_c, 0, 64, 127
1, 9072, Note_on_c, 0, 43, 80
1, 9080, Note_on_c, 0, 36, 73
1, 9084, Note_off_c, 0, 65, 64
1, 9084, Note_off_c, 0, 59, 64
1, 9120, Note_off_c, 0, 43, 64
1, 9120, Note_off_c, 0, 36, 64
1, 9276, Note_off_c, 0, 60, 64
1, 9288, Note_off_c, 0, 64, 64
1, 9304, Note_on_c, 0, 60, 66
1, 9308, Note_on_c, 0, 72, 63
1, 9324, Note_on_c, 0, 36, 72
1, 9328, Note_on_c, 0, 43, 77
1, 9328, Control_c, 0, 64, 0
1, 9464, Control_c, 0, 64, 127
1, 9488, Note_on_c, 0, 71, 71
1, 9512, Note_off_c, 0, 72, 64
1, 9524, Control_c, 0, 64, 0
1, 9552, Note_on_c, 0, 64, 57
1, 9556, Note_off_c, 0, 60, 64
1, 9556, Note_on_c, 0, 67, 80
1, 9580, Note_off_c, 0, 71, 64
1, 9608, Control_c, 0, 64, 127
1, 9712, Note_on_c, 0, 69, 73
1, 9736, Note_off_c, 0, 67, 64
1, 9752, Note_on_c, 0, 71, 57
1, 9772, Note_off_c, 0, 69, 64
1, 9800, Control_c, 0, 64, 0
1, 9812, Note_on_c, 0, 69, 66
1, 9816, Note_on_c, 0, 60, 56
1, 9828, Note_off_c, 0, 64, 64
1, 9828, Control_c, 0, 64, 127
1, 9848, Note_off_c, 0, 71, 64
1, 10020, Note_on_c, 0, 66, 79
1, 10020, Note_on_c, 0, 57, 69
1, 10032, Note_off_c, 0, 69, 64
1, 10036, Note_off_c, 0, 60, 64
1, 10048, Control_c, 0, 64, 0
1, 10116, Control_c, 0, 64, 127
1, 10152, Note_off_c, 0, 36, 64
1, 10156, Note_off_c, 0, 43, 64
1, 10192, Control_c, 0, 64, 0
1, 10208, Note_on_c, 0, 62, 48
1, 10236, Note_off_c, 0, 66, 64
1, 10268, Note_off_c, 0, 57, 64
1, 10276, Note_on_c, 0, 36, 62
1, 10276, Note_on_c, 0, 43, 71
1, 10284, Note_on_c, 0, 65, 62
1, 10284, Note_on_c, 0, 59, 62
1, 10312, Note_off_c, 0, 62, 64
1, 10316, Note_off_c, 0, 43, 64
1, 10320, Note_off_c, 0, 36, 64
1, 10500, Note_on_c, 0, 43, 58
1, 10512, Note_off_c, 0, 65, 64
1, 10512, Note_off_c, 0, 59, 64
1, 10512, Note_on_c, 0, 64, 52
1, 10512, Note_on_c, 0, 60, 54
1, 10512, Note_on_c, 0, 36, 56
1, 10548, Note_off_c, 0, 43, 64
1, 10556, Note_off_c, 0, 36, 64
1, 10556, Control_c, 0, 64, 127
1, 10716, Note_on_c, 0, 69, 56
1, 10748, Note_off_c, 0, 64, 64
1, 10776, Note_on_c, 0, 36, 46
1, 10780, Note_on_c, 0, 43, 44
1, 10780, Control_c, 0, 64, 0
1, 10796, Note_on_c, 0, 65, 56
1, 10796, Note_on_c, 0, 67, 64
1, 10848, Note_off_c, 0, 60, 64
1, 10848, Note_off_c, 0, 69, 64
1, 10972, Note_on_c, 0, 71, 47
1, 11032, Note_on_c, 0, 74, 52
1, 11056, Note_off_c, 0, 71, 64
1, 11288, Note_on_c, 0, 76, 52
1, 11292, Control_c, 0, 64, 127
1, 11324, Note_off_c, 0, 74, 64
1, 11532, Control_c, 0, 64, 0
1, 11544, Note_on_c, 0, 72, 52
1, 11544, Note_on_c, 0, 64, 44
1, 11564, Note_off_c, 0, 65, 64
1, 11588, Note_off_c, 0, 76, 64
1, 11600, Control_c, 0, 64, 127
1, 11624, Note_off_c, 0, 36, 64
1, 11628, Note_off_c, 0, 43, 64
1, 11704, Note_off_c, 0, 72, 64
1, 11716, Note_on_c, 0, 71, 44
1, 11724, Note_off_c, 0, 67, 64
1, 11728, Note_off_c, 0, 64, 64
1, 11728, Control_c, 0, 64, 0
1, 11780, Note_on_c, 0, 64, 44
1, 11784, Note_on_c, 0, 67, 58
1, 11788, Note_on_c, 0, 43, 66
1, 11788, Note_on_c, 0, 36, 58
1, 11812, Note_off_c, 0, 71, 64
1, 11832, Note_off_c, 0, 43, 64
1, 11832, Note_off_c, 0, 36, 64
1, 11868, Control_c, 0, 64, 0
1, 11988, Note_on_c, 0, 69, 48
1, 12012, Note_off_c, 0, 67, 64
1, 12028, Note_on_c, 0, 71, 56
1, 12060, Note_off_c, 0, 69, 64
1, 12060, Note_on_c, 0, 43, 64
1, 12060, Note_on_c, 0, 36, 58
1, 12084, Control_c, 0, 64, 127
1, 12088, Note_off_c, 0, 64, 64
1, 12096, Note_on_c, 0, 60, 50
1, 12100, Note_on_c, 0, 69, 48
1, 12124, Note_off_c, 0, 71, 64
1, 12132, Note_off_c, 0, 43, 64
1, 12132, Note_off_c, 0, 36, 64
1, 12304, Note_on_c, 0, 67, 54
1, 12308, Control_c, 0, 64, 0
1, 12320, Note_on_c, 0, 43, 58
1, 12320, Note_on_c, 0, 36, 54
1, 12324, Note_off_c, 0, 69, 64
1, 12328, Note_on_c, 0, 50, 54
1, 12436, Control_c, 0, 64, 127
1, 12500, Note_on_c, 0, 66, 56
1, 12508, Note_off_c, 0, 67, 64
1, 12544, Control_c, 0, 64, 0
1, 12564, Note_on_c, 0, 62, 47
1, 12572, Note_off_c, 0, 60, 64
1, 12572, Note_on_c, 0, 57, 42
1, 12604, Note_off_c, 0, 66, 64
1, 12620, Control_c, 0, 64, 127
1, 12804, Control_c, 0, 64, 0
1, 12812, Note_on_c, 0, 59, 56
1, 12816, Note_off_c, 0, 62, 64
1, 12816, Note_on_c, 0, 65, 47
1, 12828, Note_off_c, 0, 57, 64
1, 12864, Control_c, 0, 64, 127
1, 13020, Note_off_c, 0, 50, 64
1, 13044, Note_off_c, 0, 43, 64
1, 13044, Control_c, 0, 64, 0
1, 13056, Note_off_c, 0, 36, 64
1, 13076, Note_on_c, 0, 64, 52
1, 13076, Note_on_c, 0, 60, 52
1, 13080, Note_off_c, 0, 59, 64
1, 13084, Note_off_c, 0, 65, 64
1, 13092, Note_on_c, 0, 43, 44
1, 13100, Note_on_c, 0, 52, 44
1, 13100, Note_on_c, 0, 36, 56
1, 13156, Note_off_c, 0, 43, 64
1, 13156, Note_off_c, 0, 36, 64
1, 13164, Note_off_c, 0, 52, 64
1, 13284, Note_off_c, 0, 60, 64
1, 13320, Note_on_c, 0, 36, 50
1, 13324, Note_off_c, 0, 64, 64
1, 13332, Note_on_c, 0, 43, 52
1, 13348, Note_on_c, 0, 60, 56
1, 13348, Note_on_c, 0, 52, 62
1, 13372, Note_off_c, 0, 36, 64
1, 13388, Note_off_c, 0, 43, 64
1, 13388, Note_off_c, 0, 52, 64
1, 13416, Note_off_c, 0, 60, 64
1, 13588, Note_on_c, 0, 55, 24
1, 13596, Note_on_c, 0, 36, 65
1, 13600, Note_on_c, 0, 60, 27
1, 13600, Note_on_c, 0, 43, 57
1, 13612, Note_on_c, 0, 67, 59
1, 13612, Note_on_c, 0, 52, 72
1, 13624, Control_c, 0, 64, 127
1, 13644, Note_off_c, 0, 36, 64
1, 13652, Note_off_c, 0, 43, 64
1, 13652, Note_off_c, 0, 52, 64
1, 13840, Note_off_c, 0, 55, 64
1, 13852, Note_off_c, 0, 60, 64
1, 13892, Note_on_c, 0, 65, 64
1, 13892, Note_on_c, 0, 43, 62
1, 13904, Note_on_c, 0, 36, 64
1, 13904, Note_on_c, 0, 50, 71
1, 13916, Control_c, 0, 64, 0
1, 14072, Note_on_c, 0, 71, 54
1, 14144, Note_on_c, 0, 74, 50
1, 14180, Note_off_c, 0, 71, 64
1, 14196, Control_c, 0, 64, 127
1, 14396, Note_on_c, 0, 76, 55
1, 14408, Note_off_c, 0, 74, 64
1, 14420, Note_off_c, 0, 43, 64
1, 14440, Note_off_c, 0, 36, 64
1, 14448, Note_off_c, 0, 65, 64
1, 14468, Note_off_c, 0, 50, 64
1, 14576, Note_on_c, 0, 36, 56
1, 14612, Note_on_c, 0, 43, 55
1, 14640, Note_on_c, 0, 72, 59
1, 14648, Note_on_c, 0, 64, 55
1, 14652, Note_on_c, 0, 52, 64
1, 14656, Note_off_c, 0, 36, 64
1, 14680, Note_off_c, 0, 43, 64
1, 14680, Control_c, 0, 64, 0
1, 14688, Note_off_c, 0, 76, 64
1, 14700, Note_off_c, 0, 52, 64
1, 14836, Note_on_c, 0, 71, 47
1, 14852, Note_off_c, 0, 64, 64
1, 14860, Note_on_c, 0, 36, 64
1, 14860, Note_on_c, 0, 43, 65
1, 14864, Note_off_c, 0, 72, 64
1, 14868, Note_off_c, 0, 67, 64
1, 14880, Note_on_c, 0, 52, 71
1, 14912, Note_off_c, 0, 36, 64
1, 14912, Note_on_c, 0, 67, 50
1, 14924, Note_off_c, 0, 43, 64
1, 14928, Note_off_c, 0, 52, 64
1, 14964, Note_off_c, 0, 71, 64
1, 15072, Note_on_c, 0, 69, 47
1, 15084, Note_off_c, 0, 67, 64
1, 15120, Note_on_c, 0, 71, 50
1, 15128, Note_off_c, 0, 69, 64
1, 15132, Note_on_c, 0, 43, 33
1, 15140, Note_on_c, 0, 36, 33
1, 15148, Note_on_c, 0, 52, 65
1, 15156, Note_on_c, 0, 60, 37
1, 15160, Note_on_c, 0, 69, 66
1, 15160, Control_c, 0, 64, 127
1, 15192, Note_off_c, 0, 52, 64
1, 15196, Note_off_c, 0, 43, 64
1, 15196, Note_off_c, 0, 36, 64
1, 15220, Note_off_c, 0, 71, 64
1, 15364, Note_on_c, 0, 67, 57
1, 15368, Note_on_c, 0, 36, 57
1, 15384, Note_on_c, 0, 50, 64
1, 15384, Note_on_c, 0, 43, 41
1, 15408, Note_off_c, 0, 69, 64
1, 15412, Control_c, 0, 64, 0
1, 15548, Note_on_c, 0, 66, 50
1, 15568, Note_off_c, 0, 67, 64
1, 15600, Note_off_c, 0, 60, 64
1, 15604, Note_on_c, 0, 62, 55
1, 15608, Note_on_c, 0, 57, 59
1, 15644, Note_off_c, 0, 66, 64
1, 15740, Control_c, 0, 64, 127
1, 15812, Control_c, 0, 64, 0
1, 15860, Note_off_c, 0, 62, 64
1, 15860, Note_on_c, 0, 59, 64
1, 15864, Note_off_c, 0, 57, 64
1, 15880, Note_on_c, 0, 64, 55
1, 15932, Control_c, 0, 64, 127
1, 15996, Note_off_c, 0, 36, 64
1, 15996, Note_off_c, 0, 43, 64
1, 16016, Note_off_c, 0, 50, 64
1, 16088, Note_on_c, 0, 36, 62
1, 16112, Control_c, 0, 64, 0
1, 16120, Note_on_c, 0, 43, 59
1, 16132, Note_on_c, 0, 60, 59
1, 16140, Note_on_c, 0, 52, 64
1, 16152, Note_off_c, 0, 36, 64
1, 16176, Note_off_c, 0, 43, 64
1, 16184, Note_off_c, 0, 59, 64
1, 16196, Note_off_c, 0, 52, 64
1, 16204, Note_off_c, 0, 64, 64
1, 16368, Note_on_c, 0, 36, 72
1, 16368, Note_on_c, 0, 43, 57
1, 16392, Note_on_c, 0, 52, 72
1, 16428, Note_off_c, 0, 36, 64
1, 16436, Note_off_c, 0, 43, 64
1, 16452, Note_off_c, 0, 52, 64
1, 16588, Note_off_c, 0, 60, 64
1, 16608, Note_on_c, 0, 43, 59
1, 16612, Note_on_c, 0, 36, 65
1, 16632, Note_on_c, 0, 67, 62
1, 16632, Note_on_c, 0, 55, 47
1, 16644, Note_on_c, 0, 60, 59
1, 16652, Note_on_c, 0, 52, 65
1, 16676, Control_c, 0, 64, 127
1, 16684, Note_off_c, 0, 36, 64
1, 16692, Note_off_c, 0, 43, 64
1, 16708, Note_off_c, 0, 52, 64
1, 16836, Note_off_c, 0, 60, 64
1, 16892, Note_off_c, 0, 55, 64
1, 16892, Note_on_c, 0, 36, 59
1, 16904, Note_on_c, 0, 65, 66
1, 16916, Note_on_c, 0, 43, 26
1, 16916, Note_on_c, 0, 50, 66
1, 16932, Control_c, 0, 64, 0
1, 17076, Note_on_c, 0, 71, 50
1, 17144, Note_on_c, 0, 74, 65
1, 17168, Note_off_c, 0, 71, 64
1, 17404, Note_on_c, 0, 76, 64
1, 17420, Control_c, 0, 64, 127
1, 17436, Note_off_c, 0, 74, 64
1, 17484, Note_off_c, 0, 65, 64
1, 17520, Note_off_c, 0, 36, 64
1, 17556, Note_off_c, 0, 43, 64
1, 17556, Note_off_c, 0, 50, 64
1, 17612, Note_on_c, 0, 36, 55
1, 17628, Control_c, 0, 64, 0
1, 17640, Note_on_c, 0, 43, 57
1, 17640, Note_on_c, 0, 72, 59
1, 17652, Note_on_c, 0, 64, 47
1, 17660, Note_on_c, 0, 52, 64
1, 17664, Note_off_c, 0, 76, 64
1, 17684, Note_off_c, 0, 36, 64
1, 17696, Note_off_c, 0, 43, 64
1, 17708, Note_off_c, 0, 52, 64
1, 17732, Control_c, 0, 64, 127
1, 17820, Note_on_c, 0, 71, 54
1, 17824, Control_c, 0, 64, 0
1, 17844, Note_off_c, 0, 72, 64
1, 17848, Note_off_c, 0, 67, 64
1, 17868, Note_on_c, 0, 36, 64
1, 17872, Note_on_c, 0, 43, 50
1, 17880, Note_off_c, 0, 64, 64
1, 17892, Note_on_c, 0, 67, 64
1, 17892, Note_on_c, 0, 52, 66
1, 17916, Note_off_c, 0, 36, 64
1, 17928, Note_off_c, 0, 43, 64
1, 17940, Note_off_c, 0, 71, 64
1, 17940, Note_off_c, 0, 52, 64
1, 18024, Note_on_c, 0, 69, 62
1, 18032, Note_off_c, 0, 67, 64
1, 18072, Note_on_c, 0, 71, 50
1, 18100, Note_off_c, 0, 69, 64
1, 18108, Note_on_c, 0, 60, 54
1, 18120, Note_on_c, 0, 43, 50
1, 18128, Note_on_c, 0, 69, 59
1, 18128, Note_on_c, 0, 52, 64
1, 18128, Note_on_c, 0, 36, 56
1, 18156, Control_c, 0, 64, 127
1, 18164, Note_off_c, 0, 71, 64
1, 18172, Note_off_c, 0, 52, 64
1, 18184, Note_off_c, 0, 43, 64
1, 18184, Note_off_c, 0, 36, 64
1, 18360, Note_off_c, 0, 69, 64
1, 18364, Control_c, 0, 64, 0
1, 18380, Note_on_c, 0, 67, 50
1, 18380, Note_on_c, 0, 43, 31
1, 18380, Note_on_c, 0, 36, 64
1, 18388, Note_on_c, 0, 50, 64
1, 18520, Control_c, 0, 64, 127
1, 18540, Note_off_c, 0, 60, 64
1, 18548, Note_on_c, 0, 66, 40
1, 18572, Note_off_c, 0, 67, 64
1, 18588, Control_c, 0, 64, 0
1, 18620, Note_on_c, 0, 62, 54
1, 18624, Note_on_c, 0, 57, 62
1, 18664, Note_off_c, 0, 66, 64
1, 18728, Control_c, 0, 64, 127
1, 18848, Control_c, 0, 64, 0
1, 18876, Note_off_c, 0, 62, 64
1, 18884, Note_on_c, 0, 65, 55
1, 18884, Note_on_c, 0, 59, 59
1, 18920, Note_off_c, 0, 57, 64
1, 18928, Control_c, 0, 64, 127
1, 18940, Note_off_c, 0, 43, 64
1, 18944, Note_off_c, 0, 36, 64
1, 19000, Note_off_c, 0, 50, 64
1, 19068, Note_on_c, 0, 36, 59
1, 19112, Note_off_c, 0, 65, 64
1, 19112, Note_on_c, 0, 43, 54
1, 19116, Note_on_c, 0, 64, 57
1, 19120, Note_off_c, 0, 59, 64
1, 19124, Note_on_c, 0, 60, 55
1, 19132, Control_c, 0, 64, 0
1, 19144, Note_on_c, 0, 52, 64
1, 19152, Note_off_c, 0, 36, 64
1, 19172, Note_off_c, 0, 43, 64
1, 19200, Note_off_c, 0, 52, 64
1, 19316, Note_off_c, 0, 64, 64
1, 19328, Note_off_c, 0, 60, 64
1, 19356, Note_on_c, 0, 43, 59
1, 19360, Note_on_c, 0, 36, 65
1, 19380, Note_on_c, 0, 60, 59
1, 19384, Note_on_c, 0, 55, 62
1, 19396, Note_on_c, 0, 52, 59
1, 19416, Note_off_c, 0, 36, 64
1, 19424, Note_off_c, 0, 43, 64
1, 19444, Note_off_c, 0, 52, 64
1, 19452, Note_off_c, 0, 55, 64
1, 19464, Note_off_c, 0, 60, 64
1, 19612, Note_on_c, 0, 55, 50
1, 19612, Note_on_c, 0, 43, 62
1, 19616, Note_on_c, 0, 36, 64
1, 19628, Note_on_c, 0, 60, 50
1, 19640, Note_on_c, 0, 67, 64
1, 19644, Note_on_c, 0, 52, 73
1, 19672, Note_off_c, 0, 36, 64
1, 19684, Note_off_c, 0, 43, 64
1, 19688, Control_c, 0, 64, 127
1, 19696, Note_off_c, 0, 52, 64
1, 19820, Note_off_c, 0, 55, 64
1, 19836, Note_off_c, 0, 60, 64
1, 19912, Note_on_c, 0, 65, 65
1, 19920, Note_on_c, 0, 36, 64
1, 19920, Note_on_c, 0, 43, 44
1, 19928, Note_on_c, 0, 50, 72
1, 19948, Control_c, 0, 64, 0
1, 20084, Note_on_c, 0, 71, 52
1, 20144, Note_on_c, 0, 74, 54
1, 20176, Note_off_c, 0, 71, 64
1, 20388, Control_c, 0, 64, 127
1, 20416, Note_on_c, 0, 76, 50
1, 20432, Note_off_c, 0, 74, 64
1, 20492, Note_off_c, 0, 36, 64
1, 20492, Note_off_c, 0, 43, 64
1, 20536, Note_off_c, 0, 50, 64
1, 20592, Note_on_c, 0, 36, 59
1, 20628, Note_on_c, 0, 43, 50
1, 20660, Note_on_c, 0, 72, 57
1, 20668, Note_on_c, 0, 64, 47
1, 20668, Note_on_c, 0, 52, 57
1, 20676, Note_off_c, 0, 36, 64
1, 20680, Note_off_c, 0, 65, 64
1, 20688, Note_off_c, 0, 76, 64
1, 20688, Control_c, 0, 64, 0
1, 20700, Note_off_c, 0, 43, 64
1, 20724, Note_off_c, 0, 52, 64
1, 20724, Control_c, 0, 64, 127
1, 20832, Note_on_c, 0, 71, 55
1, 20832, Control_c, 0, 64, 0
1, 20836, Note_off_c, 0, 67, 64
1, 20876, Note_on_c, 0, 36, 64
1, 20884, Note_off_c, 0, 72, 64
1, 20892, Note_on_c, 0, 43, 47
1, 20896, Note_on_c, 0, 67, 64
1, 20904, Note_on_c, 0, 52, 71
1, 20908, Note_off_c, 0, 64, 64
1, 20932, Note_off_c, 0, 71, 64
1, 20932, Note_off_c, 0, 36, 64
1, 20940, Note_off_c, 0, 43, 64
1, 20952, Note_off_c, 0, 52, 64
1, 21044, Note_on_c, 0, 69, 62
1, 21084, Note_off_c, 0, 67, 64
1, 21084, Note_on_c, 0, 71, 59
1, 21112, Note_off_c, 0, 69, 64
1, 21136, Note_on_c, 0, 60, 55
1, 21136, Note_on_c, 0, 43, 57
1, 21152, Note_on_c, 0, 52, 66
1, 21156, Note_on_c, 0, 69, 64
1, 21156, Note_on_c, 0, 36, 33
1, 21180, Note_off_c, 0, 71, 64
1, 21180, Note_off_c, 0, 36, 64
1, 21196, Control_c, 0, 64, 127
1, 21208, Note_off_c, 0, 52, 64
1, 21212, Note_off_c, 0, 43, 64
1, 21364, Note_on_c, 0, 67, 57
1, 21388, Note_off_c, 0, 69, 64
1, 21388, Note_on_c, 0, 50, 57
1, 21388, Note_on_c, 0, 36, 57
1, 21388, Note_on_c, 0, 43, 52
1, 21392, Control_c, 0, 64, 0
1, 21556, Note_on_c, 0, 66, 50
1, 21580, Note_off_c, 0, 67, 64
1, 21612, Note_on_c, 0, 62, 59
1, 21636, Note_on_c, 0, 57, 50
1, 21644, Note_off_c, 0, 60, 64
1, 21656, Note_off_c, 0, 66, 64
1, 21708, Control_c, 0, 64, 127
1, 21828, Control_c, 0, 64, 0
1, 21868, Note_on_c, 0, 64, 59
1, 21876, Note_on_c, 0, 59, 59
1, 21900, Note_off_c, 0, 43, 64
1, 21900, Note_off_c, 0, 62, 64
1, 21908, Note_off_c, 0, 36, 64
1, 21920, Note_off_c, 0, 57, 64
1, 21924, Control_c, 0, 64, 127
1, 21952, Note_off_c, 0, 50, 64
1, 22056, Note_on_c, 0, 36, 57
1, 22100, Note_on_c, 0, 43, 54
1, 22120, Note_on_c, 0, 60, 59
1, 22128, Note_on_c, 0, 52, 59
1, 22128, Control_c, 0, 64, 0
1, 22144, Note_off_c, 0, 64, 64
1, 22152, Note_off_c, 0, 59, 64
1, 22160, Note_off_c, 0, 36, 64
1, 22176, Note_off_c, 0, 43, 64
1, 22204, Note_off_c, 0, 52, 64
1, 22356, Note_on_c, 0, 36, 64
1, 22364, Note_on_c, 0, 43, 64
1, 22396, Note_on_c, 0, 52, 64
1, 22428, Note_off_c, 0, 36, 64
1, 22432, Note_off_c, 0, 43, 64
1, 22432, Control_c, 0, 64, 127
1, 22460, Note_off_c, 0, 52, 64
1, 22576, Note_off_c, 0, 60, 64
1, 22700, Note_on_c, 0, 52, 66
1, 22712, Control_c, 0, 64, 0
1, 22916, Control_c, 0, 64, 0
1, 22968, Note_on_c, 0, 45, 48
1, 23000, Note_off_c, 0, 52, 64
1, 23020, Note_on_c, 0, 52, 71
1, 23076, Control_c, 0, 64, 127
1, 23184, Note_on_c, 0, 54, 54
1, 23196, Note_off_c, 0, 52, 64
1, 23212, Note_off_c, 0, 45, 64
1, 23296, Control_c, 0, 64, 0
1, 23304, Note_on_c, 0, 56, 52
1, 23312, Note_on_c, 0, 64, 47
1, 23320, Note_on_c, 0, 60, 44
1, 23336, Note_off_c, 0, 54, 64
1, 23360, Note_off_c, 0, 64, 64
1, 23364, Note_off_c, 0, 60, 64
1, 23412, Control_c, 0, 64, 127
1, 23424, Note_on_c, 0, 57, 56
1, 23440, Note_off_c, 0, 56, 64
1, 23520, Control_c, 0, 64, 0
1, 23532, Note_off_c, 0, 57, 64
1, 23544, Note_on_c, 0, 59, 52
1, 23568, Note_on_c, 0, 64, 47
1, 23572, Note_on_c, 0, 69, 42
1, 23596, Control_c, 0, 64, 127
1, 23616, Note_off_c, 0, 64, 64
1, 23616, Note_off_c, 0, 69, 64
1, 23656, Note_on_c, 0, 60, 42
1, 23664, Note_off_c, 0, 59, 64
1, 23752, Note_off_c, 0, 60, 64
1, 23808, Note_on_c, 0, 60, 52
1, 23812, Control_c, 0, 64, 0
1, 23896, Note_on_c, 0, 62, 52
1, 23908, Note_off_c, 0, 60, 64
1, 23968, Note_on_c, 0, 60, 46
1, 23988, Note_off_c, 0, 62, 64
1, 24028, Note_on_c, 0, 68, 48
1, 24032, Note_on_c, 0, 62, 48
1, 24048, Note_on_c, 0, 59, 52
1, 24056, Note_off_c, 0, 60, 64
1, 24076, Note_off_c, 0, 68, 64
1, 24076, Note_off_c, 0, 62, 64
1, 24284, Note_on_c, 0, 64, 57
1, 24304, Note_on_c, 0, 68, 42
1, 24308, Note_on_c, 0, 62, 36
1, 24324, Note_off_c, 0, 59, 64
1, 24352, Note_off_c, 0, 68, 64
1, 24356, Note_off_c, 0, 62, 64
1, 24372, Control_c, 0, 64, 127
1, 24524, Note_on_c, 0, 65, 47
1, 24536, Note_off_c, 0, 64, 64
1, 24536, Control_c, 0, 64, 0
1, 24620, Control_c, 0, 64, 127
1, 24704, Note_on_c, 0, 64, 44
1, 24732, Note_off_c, 0, 65, 64
1, 24764, Note_on_c, 0, 69, 44
1, 24768, Control_c, 0, 64, 0
1, 24776, Note_on_c, 0, 57, 27
1, 24784, Note_on_c, 0, 60, 48
1, 24800, Note_off_c, 0, 64, 64
1, 24848, Control_c, 0, 64, 127
1, 25020, Note_off_c, 0, 69, 64
1, 25028, Note_on_c, 0, 63, 50
1, 25032, Note_on_c, 0, 69, 48
1, 25036, Note_on_c, 0, 59, 50
1, 25044, Note_off_c, 0, 60, 64
1, 25068, Control_c, 0, 64, 0
1, 25076, Note_off_c, 0, 57, 64
1, 25132, Control_c, 0, 64, 127
1, 25288, Note_on_c, 0, 64, 44
1, 25292, Note_off_c, 0, 59, 64
1, 25292, Note_on_c, 0, 68, 48
1, 25300, Note_on_c, 0, 59, 42
1, 25300, Note_on_c, 0, 52, 50
1, 25300, Control_c, 0, 64, 0
1, 25304, Note_off_c, 0, 63, 64
1, 25308, Note_off_c, 0, 69, 64
1, 25356, Control_c, 0, 64, 127
1, 25528, Note_off_c, 0, 59, 64
1, 25560, Note_off_c, 0, 64, 64
1, 25564, Note_off_c, 0, 68, 64
1, 25568, Note_off_c, 0, 52, 64
1, 25568, Note_on_c, 0, 71, 58
1, 25568, Note_on_c, 0, 66, 58
1, 25568, Note_on_c, 0, 59, 59
1, 25568, Note_on_c, 0, 57, 50
1, 25572, Note_on_c, 0, 47, 56
1, 25572, Note_on_c, 0, 63, 59
1, 25576, Control_c, 0, 64, 0
1, 25624, Control_c, 0, 64, 127
1, 25744, Control_c, 0, 64, 0
1, 25780, Note_off_c, 0, 71, 64
1, 25780, Note_off_c, 0, 66, 64
1, 25780, Note_off_c, 0, 59, 64
1, 25780, Note_off_c, 0, 57, 64
1, 25784, Note_off_c, 0, 63, 64
1, 25788, Control_c, 0, 64, 127
1, 25832, Note_off_c, 0, 47, 64
1, 25836, Note_on_c, 0, 76, 58
1, 25840, Note_on_c, 0, 40, 58
1, 25840, Note_on_c, 0, 68, 56
1, 25840, Note_on_c, 0, 64, 56
1, 25844, Note_on_c, 0, 52, 58
1, 25860, Control_c, 0, 64, 0
1, 25912, Control_c, 0, 64, 127
1, 26024, Note_off_c, 0, 76, 64
1, 26024, Note_off_c, 0, 68, 64
1, 26028, Note_off_c, 0, 64, 64
1, 26040, Note_off_c, 0, 40, 64
1, 26040, Note_off_c, 0, 52, 64
1, 26092, Note_on_c, 0, 45, 64
1, 26184, Note_on_c, 0, 52, 46
1, 26188, Control_c, 0, 64, 0
1, 26268, Note_off_c, 0, 45, 64
1, 26344, Note_on_c, 0, 54, 56
1, 26364, Note_off_c, 0, 52, 64
1, 26460, Note_on_c, 0, 64, 48
1, 26460, Note_on_c, 0, 60, 47
1, 26460, Note_on_c, 0, 56, 52
1, 26508, Note_off_c, 0, 64, 64
1, 26508, Note_off_c, 0, 60, 64
1, 26520, Note_off_c, 0, 54, 64
1, 26592, Note_on_c, 0, 57, 54
1, 26616, Note_off_c, 0, 56, 64
1, 26716, Control_c, 0, 64, 127
1, 26728, Note_on_c, 0, 59, 50
1, 26736, Note_on_c, 0, 69, 58
1, 26736, Note_on_c, 0, 64, 40
1, 26764, Note_off_c, 0, 57, 64
1, 26784, Note_off_c, 0, 69, 64
1, 26784, Note_off_c, 0, 64, 64
1, 26844, Note_on_c, 0, 60, 56
1, 26872, Note_off_c, 0, 59, 64
1, 26916, Note_off_c, 0, 60, 64
1, 26980, Note_on_c, 0, 60, 56
1, 26996, Control_c, 0, 64, 0
1, 27076, Note_on_c, 0, 62, 58
1, 27088, Note_off_c, 0, 60, 64
1, 27140, Note_on_c, 0, 60, 48
1, 27160, Note_off_c, 0, 62, 64
1, 27212, Note_on_c, 0, 68, 47
1, 27220, Note_on_c, 0, 62, 47
1, 27228, Note_on_c, 0, 59, 52
1, 27248, Note_off_c, 0, 60, 64
1, 27260, Note_off_c, 0, 68, 64
1, 27268, Note_off_c, 0, 62, 64
1, 27348, Control_c, 0, 64, 127
1, 27436, Control_c, 0, 64, 0
1, 27464, Note_on_c, 0, 64, 55
1, 27476, Note_on_c, 0, 62, 47
1, 27476, Note_on_c, 0, 68, 48
1, 27484, Note_off_c, 0, 59, 64
1, 27524, Note_off_c, 0, 62, 64
1, 27524, Note_off_c, 0, 68, 64
1, 27536, Tempo, 500000
1, 27536, Control_c, 0, 64, 127
1, 27688, Note_on_c, 0, 65, 52
1, 27716, Control_c, 0, 64, 0
1, 27720, Note_off_c, 0, 64, 64
1, 27752, Control_c, 0, 64, 127
1, 27868, Note_on_c, 0, 64, 48
1, 27888, Note_off_c, 0, 65, 64
1, 27912, Note_on_c, 0, 57, 47
1, 27924, Note_on_c, 0, 69, 50
1, 27924, Note_on_c, 0, 60, 48
1, 27952, Control_c, 0, 64, 0
1, 27960, Note_off_c, 0, 64, 64
1, 28024, Control_c, 0, 64, 127
1, 28112, Note_off_c, 0, 60, 64
1, 28148, Note_off_c, 0, 69, 64
1, 28160, Note_off_c, 0, 57, 64
1, 28176, Control_c, 0, 64, 0
1, 28184, Note_on_c, 0, 68, 50
1, 28192, Note_on_c, 0, 71, 47
1, 28192, Note_on_c, 0, 62, 48
1, 28200, Note_on_c, 0, 52, 47
1, 28248, Control_c, 0, 64, 127
1, 28368, Note_off_c, 0, 52, 64
1, 28384, Note_on_c, 0, 72, 52
1, 28412, Note_off_c, 0, 68, 64
1, 28412, Note_off_c, 0, 71, 64
1, 28428, Control_c, 0, 64, 0
1, 28432, Note_off_c, 0, 62, 64
1, 28440, Note_on_c, 0, 69, 52
1, 28444, Note_on_c, 0, 45, 52
1, 28456, Note_on_c, 0, 60, 56
1, 28464, Note_off_c, 0, 72, 64
1, 28496, Control_c, 0, 64, 127
1, 28656, Note_off_c, 0, 69, 64
1, 28660, Note_off_c, 0, 45, 64
1, 28672, Note_off_c, 0, 60, 64
1, 28704, Control_c, 0, 64, 0
1, 28712, Note_on_c, 0, 71, 58
1, 28712, Note_on_c, 0, 64, 64
1, 28716, Note_on_c, 0, 76, 58
1, 28716, Note_on_c, 0, 68, 64
1, 28724, Note_on_c, 0, 52, 64
1, 28728, Note_on_c, 0, 40, 59
1, 28780, Control_c, 0, 64, 127
1, 28932, Note_off_c, 0, 71, 64
1, 28932, Note_off_c, 0, 64, 64
1, 28932, Note_off_c, 0, 76, 64
1, 28932, Note_off_c, 0, 68, 64
1, 28988, Note_off_c, 0, 52, 64
1, 28992, Note_off_c, 0, 40, 64
1, 29008, Note_on_c, 0, 72, 58
1, 29012, Note_on_c, 0, 33, 57
1, 29012, Note_on_c, 0, 45, 62
1, 29012, Note_on_c, 0, 69, 57
1, 29012, Note_on_c, 0, 76, 58
1, 29012, Note_on_c, 0, 81, 58
1, 29052, Control_c, 0, 64, 0
1, 29088, Control_c, 0, 64, 127
1, 29148, Note_off_c, 0, 72, 64
1, 29152, Note_off_c, 0, 69, 64
1, 29152, Note_off_c, 0, 76, 64
1, 29152, Note_off_c, 0, 81, 64
1, 29204, Note_off_c, 0, 33, 64
1, 29204, Note_off_c, 0, 45, 64
1, 29336, Note_on_c, 0, 45, 44
1, 29384, Control_c, 0, 64, 0
1, 29392, Note_on_c, 0, 52, 47
1, 29480, Control_c, 0, 64, 127
1, 29512, Note_on_c, 0, 54, 54
1, 29528, Note_off_c, 0, 52, 64
1, 29580, Note_off_c, 0, 45, 64
1, 29584, Control_c, 0, 64, 0
1, 29632, Note_on_c, 0, 64, 46
1, 29632, Note_on_c, 0, 60, 50
1, 29644, Note_on_c, 0, 56, 48
1, 29680, Note_off_c, 0, 64, 64
1, 29680, Note_off_c, 0, 60, 64
1, 29684, Note_off_c, 0, 54, 64
1, 29772, Note_on_c, 0, 57, 52
1, 29808, Note_off_c, 0, 56, 64
1, 29904, Note_on_c, 0, 64, 50
1, 29904, Note_on_c, 0, 59, 52
1, 29908, Note_on_c, 0, 69, 44
1, 29924, Note_off_c, 0, 57, 64
1, 29928, Control_c, 0, 64, 127
1, 29948, Note_off_c, 0, 64, 64
1, 29952, Note_off_c, 0, 69, 64
1, 30024, Note_on_c, 0, 60, 52
1, 30032, Note_off_c, 0, 59, 64
1, 30108, Note_off_c, 0, 60, 64
1, 30164, Note_on_c, 0, 60, 52
1, 30172, Control_c, 0, 64, 0
1, 30260, Note_on_c, 0, 62, 47
1, 30272, Note_off_c, 0, 60, 64
1, 30316, Note_on_c, 0, 60, 41
1, 30340, Note_off_c, 0, 62, 64
1, 30408, Note_on_c, 0, 68, 48
1, 30408, Note_on_c, 0, 62, 44
1, 30412, Note_on_c, 0, 59, 52
1, 30420, Note_off_c, 0, 60, 64
1, 30452, Note_off_c, 0, 68, 64
1, 30456, Note_off_c, 0, 62, 64
1, 30664, Note_on_c, 0, 64, 48
1, 30668, Note_on_c, 0, 68, 48
1, 30672, Note_on_c, 0, 62, 47
1, 30700, Note_off_c, 0, 59, 64
1, 30704, Control_c, 0, 64, 127
1, 30716, Note_off_c, 0, 68, 64
1, 30720, Note_off_c, 0, 62, 64
1, 30892, Control_c, 0, 64, 0
1, 30896, Note_on_c, 0, 65, 48
1, 30900, Note_off_c, 0, 64, 64
1, 30976, Control_c, 0, 64, 127
1, 31080, Note_on_c, 0, 64, 44
1, 31084, Note_off_c, 0, 65, 64
1, 31120, Control_c, 0, 64, 0
1, 31144, Note_on_c, 0, 60, 29
1, 31144, Note_on_c, 0, 57, 41
1, 31156, Note_on_c, 0, 69, 48
1, 31172, Note_off_c, 0, 64, 64
1, 31224, Control_c, 0, 64, 127
1, 31344, Note_off_c, 0, 60, 64
1, 31360, Note_off_c, 0, 69, 64
1, 31392, Note_off_c, 0, 57, 64
1, 31392, Note_on_c, 0, 69, 52
1, 31392, Note_on_c, 0, 63, 56
1, 31400, Note_on_c, 0, 59, 50
1, 31416, Control_c, 0, 64, 0
1, 31440, Control_c, 0, 64, 127
1, 31624, Note_off_c, 0, 59, 64
1, 31632, Note_off_c, 0, 69, 64
1, 31632, Note_off_c, 0, 63, 64
1, 31648, Note_on_c, 0, 64, 52
1, 31660, Note_on_c, 0, 68, 48
1, 31660, Note_on_c, 0, 59, 54
1, 31660, Note_on_c, 0, 52, 47
1, 31676, Control_c, 0, 64, 0
1, 31732, Control_c, 0, 64, 127
1, 31904, Note_off_c, 0, 64, 64
1, 31916, Note_off_c, 0, 68, 64
1, 31916, Note_off_c, 0, 59, 64
1, 31916, Note_off_c, 0, 52, 64
1, 31928, Control_c, 0, 64, 0
1, 31936, Note_on_c, 0, 57, 50
1, 31936, Note_on_c, 0, 59, 50
1, 31936, Note_on_c, 0, 63, 59
1, 31936, Note_on_c, 0, 66, 58
1, 31936, Note_on_c, 0, 71, 59
1, 31940, Note_on_c, 0, 47, 48
1, 31996, Control_c, 0, 64, 127
1, 32196, Note_off_c, 0, 57, 64
1, 32196, Note_off_c, 0, 59, 64
1, 32196, Note_off_c, 0, 63, 64
1, 32196, Note_off_c, 0, 66, 64
1, 32196, Note_off_c, 0, 71, 64
1, 32220, Note_off_c, 0, 47, 64
1, 32232, Note_on_c, 0, 52, 59
1, 32232, Note_on_c, 0, 76, 59
1, 32232, Note_on_c, 0, 68, 56
1, 32232, Note_on_c, 0, 64, 54
1, 32232, Note_on_c, 0, 40, 45
1, 32248, Control_c, 0, 64, 0
1, 32300, Control_c, 0, 64, 127
1, 32396, Note_on_c, 0, 45, 71
1, 32400, Note_off_c, 0, 64, 64
1, 32400, Note_off_c, 0, 68, 64
1, 32400, Note_off_c, 0, 76, 64
1, 32432, Note_off_c, 0, 40, 64
1, 32432, Note_off_c, 0, 52, 64
1, 32476, Control_c, 0, 64, 0
1, 32484, Note_on_c, 0, 52, 57
1, 32568, Note_off_c, 0, 45, 64
1, 32572, Control_c, 0, 64, 127
1, 32616, Note_on_c, 0, 54, 56
1, 32648, Note_off_c, 0, 52, 64
1, 32676, Control_c, 0, 64, 0
1, 32732, Note_on_c, 0, 56, 52
1, 32740, Note_on_c, 0, 64, 48
1, 32740, Note_on_c, 0, 60, 48
1, 32784, Note_off_c, 0, 64, 64
1, 32784, Note_off_c, 0, 60, 64
1, 32792, Note_off_c, 0, 54, 64
1, 32868, Note_on_c, 0, 57, 48
1, 32900, Note_off_c, 0, 56, 64
1, 32980, Control_c, 0, 64, 127
1, 33000, Note_on_c, 0, 59, 52
1, 33004, Note_on_c, 0, 69, 29
1, 33008, Note_on_c, 0, 64, 47
1, 33032, Note_off_c, 0, 57, 64
1, 33052, Note_off_c, 0, 69, 64
1, 33056, Note_off_c, 0, 64, 64
1, 33128, Note_on_c, 0, 60, 57
1, 33156, Note_off_c, 0, 59, 64
1, 33208, Note_off_c, 0, 60, 64
1, 33264, Control_c, 0, 64, 0
1, 33272, Note_on_c, 0, 60, 52
1, 33360, Note_on_c, 0, 62, 49
1, 33368, Note_off_c, 0, 60, 64
1, 33428, Note_on_c, 0, 60, 47
1, 33444, Note_off_c, 0, 62, 64
1, 33516, Note_on_c, 0, 59, 52
1, 33520, Note_on_c, 0, 68, 44
1, 33524, Note_on_c, 0, 62, 50
1, 33544, Note_off_c, 0, 60, 64
1, 33568, Note_off_c, 0, 68, 64
1, 33572, Note_off_c, 0, 62, 64
1, 33776, Note_on_c, 0, 68, 47
1, 33776, Note_on_c, 0, 64, 72
1, 33780, Note_on_c, 0, 62, 47
1, 33792, Note_off_c, 0, 59, 64
1, 33816, Control_c, 0, 64, 127
1, 33828, Note_off_c, 0, 68, 64
1, 33832, Note_off_c, 0, 62, 64
1, 34004, Control_c, 0, 64, 0
1, 34024, Note_on_c, 0, 65, 49
1, 34028, Note_off_c, 0, 64, 64
1, 34096, Control_c, 0, 64, 127
1, 34204, Note_on_c, 0, 64, 48
1, 34216, Note_off_c, 0, 65, 64
1, 34268, Note_on_c, 0, 69, 50
1, 34268, Control_c, 0, 64, 0
1, 34272, Note_on_c, 0, 60, 44
1, 34280, Note_on_c, 0, 57, 44
1, 34304, Note_off_c, 0, 64, 64
1, 34332, Control_c, 0, 64, 127
1, 34504, Note_off_c, 0, 69, 64
1, 34508, Note_off_c, 0, 60, 64
1, 34512, Control_c, 0, 64, 0
1, 34528, Note_on_c, 0, 68, 44
1, 34528, Note_on_c, 0, 71, 48
1, 34528, Note_on_c, 0, 62, 48
1, 34528, Note_on_c, 0, 52, 48
1, 34536, Note_off_c, 0, 57, 64
1, 34584, Control_c, 0, 64, 127
1, 34712, Note_on_c, 0, 72, 44
1, 34732, Note_off_c, 0, 68, 64
1, 34732, Note_off_c, 0, 71, 64
1, 34732, Note_off_c, 0, 62, 64
1, 34772, Note_off_c, 0, 52, 64
1, 34772, Control_c, 0, 64, 0
1, 34780, Note_on_c, 0, 69, 52
1, 34792, Note_on_c, 0, 57, 48
1, 34792, Note_on_c, 0, 45, 44
1, 34792, Note_on_c, 0, 60, 50
1, 34804, Note_off_c, 0, 72, 64
1, 34828, Control_c, 0, 64, 127
1, 34996, Note_off_c, 0, 69, 64
1, 35008, Note_off_c, 0, 60, 64
1, 35032, Note_off_c, 0, 57, 64
1, 35032, Note_off_c, 0, 45, 64
1, 35040, Note_on_c, 0, 52, 58
1, 35040, Note_on_c, 0, 62, 56
1, 35040, Note_on_c, 0, 64, 57
1, 35040, Note_on_c, 0, 68, 58
1, 35040, Note_on_c, 0, 71, 62
1, 35040, Note_on_c, 0, 76, 62
1, 35044, Note_on_c, 0, 40, 58
1, 35084, Control_c, 0, 64, 0
1, 35116, Control_c, 0, 64, 127
1, 35224, Control_c, 0, 64, 0
1, 35256, Control_c, 0, 64, 127
1, 35300, Note_off_c, 0, 62, 64
1, 35300, Note_off_c, 0, 64, 64
1, 35300, Note_off_c, 0, 68, 64
1, 35300, Note_off_c, 0, 71, 64
1, 35300, Note_off_c, 0, 76, 64
1, 35304, Note_off_c, 0, 52, 64
1, 35304, Note_off_c, 0, 40, 64
1, 35360, Note_on_c, 0, 69, 58
1, 35360, Note_on_c, 0, 45, 59
1, 35360, Note_on_c, 0, 33, 57
1, 35360, Note_on_c, 0, 81, 57
1, 35360, Note_on_c, 0, 72, 59
1, 35384, Control_c, 0, 64, 0
1, 35444, Control_c, 0, 64, 127
1, 35508, Note_off_c, 0, 69, 64
1, 35512, Note_off_c, 0, 81, 64
1, 35512, Note_off_c, 0, 72, 64
1, 35624, Note_off_c, 0, 45, 64
1, 35624, Note_off_c, 0, 33, 64
1, 35656, Control_c, 0, 64, 0
1, 35672, Note_on_c, 0, 35, 59
1, 35672, Note_on_c, 0, 47, 65
1, 35732, Control_c, 0, 64, 127
1, 35864, Note_on_c, 0, 75, 56
1, 35924, Note_on_c, 0, 76, 59
1, 35944, Control_c, 0, 64, 0
1, 35952, Note_off_c, 0, 75, 64
1, 35968, Note_on_c, 0, 69, 50
1, 35972, Note_on_c, 0, 66, 57
1, 35972, Note_on_c, 0, 59, 55
1, 35980, Note_on_c, 0, 75, 62
1, 35996, Note_off_c, 0, 35, 64
1, 36000, Note_off_c, 0, 47, 64
1, 36008, Note_off_c, 0, 76, 64
1, 36012, Control_c, 0, 64, 127
1, 36024, Note_off_c, 0, 69, 64
1, 36024, Note_off_c, 0, 59, 64
1, 36028, Note_off_c, 0, 66, 64
1, 36104, Note_on_c, 0, 73, 57
1, 36136, Note_off_c, 0, 75, 64
1, 36208, Control_c, 0, 64, 0
1, 36216, Note_on_c, 0, 75, 65
1, 36224, Note_on_c, 0, 69, 50
1, 36228, Note_on_c, 0, 66, 59
1, 36232, Note_on_c, 0, 59, 57
1, 36252, Control_c, 0, 64, 127
1, 36256, Note_off_c, 0, 73, 64
1, 36336, Note_on_c, 0, 76, 57
1, 36368, Note_off_c, 0, 75, 64
1, 36408, Note_off_c, 0, 69, 64
1, 36408, Note_off_c, 0, 66, 64
1, 36412, Note_off_c, 0, 59, 64
1, 36468, Note_on_c, 0, 78, 55
1, 36500, Note_off_c, 0, 76, 64
1, 36600, Note_on_c, 0, 80, 65
1, 36616, Note_off_c, 0, 78, 64
1, 36636, Control_c, 0, 64, 0
1, 36704, Note_on_c, 0, 76, 59
1, 36712, Note_on_c, 0, 52, 59
1, 36712, Note_on_c, 0, 59, 62
1, 36724, Note_on_c, 0, 68, 59
1, 36728, Note_off_c, 0, 80, 64
1, 36748, Note_off_c, 0, 52, 64
1, 36760, Note_off_c, 0, 59, 64
1, 36760, Note_off_c, 0, 68, 64
1, 36992, Note_on_c, 0, 52, 62
1, 37000, Note_on_c, 0, 68, 64
1, 37000, Note_on_c, 0, 59, 64
1, 37028, Control_c, 0, 64, 127
1, 37112, Note_off_c, 0, 76, 64
1, 37124, Note_on_c, 0, 71, 50
1, 37176, Note_off_c, 0, 52, 64
1, 37184, Note_off_c, 0, 68, 64
1, 37184, Note_off_c, 0, 59, 64
1, 37224, Control_c, 0, 64, 0
1, 37232, Note_on_c, 0, 74, 59
1, 37240, Note_off_c, 0, 71, 64
1, 37248, Control_c, 0, 64, 127
1, 37352, Note_off_c, 0, 74, 64
1, 37380, Note_on_c, 0, 73, 66
1, 37436, Note_off_c, 0, 73, 64
1, 37440, Note_on_c, 0, 74, 55
1, 37468, Control_c, 0, 64, 0
1, 37488, Note_on_c, 0, 57, 55
1, 37492, Note_on_c, 0, 67, 59
1, 37500, Note_on_c, 0, 73, 66
1, 37500, Note_on_c, 0, 64, 59
1, 37524, Note_off_c, 0, 74, 64
1, 37544, Note_off_c, 0, 64, 64
1, 37548, Note_off_c, 0, 57, 64
1, 37548, Note_off_c, 0, 67, 64
1, 37628, Note_on_c, 0, 71, 59
1, 37644, Note_off_c, 0, 73, 64
1, 37744, Note_on_c, 0, 73, 64
1, 37756, Control_c, 0, 64, 127
1, 37760, Note_on_c, 0, 67, 31
1, 37772, Note_off_c, 0, 71, 64
1, 37772, Note_on_c, 0, 57, 59
1, 37780, Note_on_c, 0, 64, 64
1, 37872, Note_on_c, 0, 74, 54
1, 37888, Note_off_c, 0, 73, 64
1, 37944, Note_off_c, 0, 67, 64
1, 37956, Note_off_c, 0, 57, 64
1, 37964, Note_off_c, 0, 64, 64
1, 37996, Note_on_c, 0, 76, 54
1, 38024, Note_off_c, 0, 74, 64
1, 38108, Note_on_c, 0, 78, 66
1, 38156, Note_off_c, 0, 76, 64
1, 38192, Control_c, 0, 64, 0
1, 38224, Note_on_c, 0, 57, 59
1, 38236, Note_on_c, 0, 74, 63
1, 38236, Note_on_c, 0, 66, 73
1, 38236, Note_on_c, 0, 50, 62
1, 38264, Note_off_c, 0, 78, 64
1, 38264, Note_off_c, 0, 66, 64
1, 38272, Note_off_c, 0, 57, 64
1, 38272, Note_off_c, 0, 50, 64
1, 38496, Note_on_c, 0, 66, 59
1, 38512, Note_on_c, 0, 57, 59
1, 38516, Note_on_c, 0, 50, 56
1, 38540, Control_c, 0, 64, 127
1, 38612, Note_off_c, 0, 74, 64
1, 38636, Note_on_c, 0, 69, 50
1, 38680, Note_off_c, 0, 66, 64
1, 38692, Note_off_c, 0, 57, 64
1, 38692, Control_c, 0, 64, 0
1, 38700, Note_off_c, 0, 50, 64
1, 38724, Note_on_c, 0, 72, 59
1, 38740, Note_off_c, 0, 69, 64
1, 38760, Control_c, 0, 64, 127
1, 38912, Note_on_c, 0, 71, 59
1, 38936, Note_off_c, 0, 72, 64
1, 38964, Note_on_c, 0, 72, 57
1, 38976, Note_off_c, 0, 71, 64
1, 38992, Control_c, 0, 64, 0
1, 39004, Note_on_c, 0, 62, 64
1, 39004, Note_on_c, 0, 55, 59
1, 39016, Note_on_c, 0, 65, 32
1, 39020, Note_on_c, 0, 71, 57
1, 39048, Note_off_c, 0, 72, 64
1, 39052, Note_off_c, 0, 62, 64
1, 39052, Note_off_c, 0, 55, 64
1, 39064, Note_off_c, 0, 65, 64
1, 39132, Note_on_c, 0, 69, 62
1, 39160, Note_off_c, 0, 71, 64
1, 39248, Note_on_c, 0, 71, 57
1, 39272, Note_on_c, 0, 65, 33
1, 39272, Note_on_c, 0, 62, 66
1, 39272, Note_on_c, 0, 55, 66
1, 39276, Control_c, 0, 64, 127
1, 39288, Note_off_c, 0, 69, 64
1, 39376, Note_on_c, 0, 72, 40
1, 39420, Note_off_c, 0, 71, 64
1, 39452, Note_off_c, 0, 65, 64
1, 39456, Note_off_c, 0, 62, 64
1, 39456, Note_off_c, 0, 55, 64
1, 39496, Note_on_c, 0, 74, 59
1, 39512, Note_off_c, 0, 72, 64
1, 39620, Note_on_c, 0, 76, 64
1, 39648, Note_off_c, 0, 74, 64
1, 39740, Note_on_c, 0, 36, 59
1, 39748, Note_on_c, 0, 72, 64
1, 39752, Note_on_c, 0, 64, 64
1, 39756, Note_on_c, 0, 48, 57
1, 39756, Control_c, 0, 64, 0
1, 39776, Note_off_c, 0, 76, 64
1, 39828, Control_c, 0, 64, 127
1, 39968, Note_on_c, 0, 38, 73
1, 39988, Note_on_c, 0, 65, 56
1, 39992, Note_on_c, 0, 71, 59
1, 39992, Note_on_c, 0, 62, 73
1, 39992, Note_on_c, 0, 50, 81
1, 40008, Note_off_c, 0, 36, 64
1, 40016, Note_off_c, 0, 72, 64
1, 40016, Control_c, 0, 64, 0
1, 40020, Note_off_c, 0, 64, 64
1, 40024, Note_off_c, 0, 48, 64
1, 40064, Control_c, 0, 64, 127
1, 40156, Note_off_c, 0, 71, 64
1, 40168, Note_on_c, 0, 40, 73
1, 40180, Note_on_c, 0, 71, 73
1, 40208, Note_off_c, 0, 65, 64
1, 40212, Note_off_c, 0, 62, 64
1, 40224, Note_off_c, 0, 38, 64
1, 40228, Note_on_c, 0, 52, 93
1, 40248, Note_off_c, 0, 50, 64
1, 40256, Control_c, 0, 64, 0
1, 40280, Note_off_c, 0, 40, 64
1, 40296, Note_off_c, 0, 71, 64
1, 40516, Note_on_c, 0, 56, 75
1, 40524, Note_on_c, 0, 64, 65
1, 40524, Note_on_c, 0, 62, 59
1, 40560, Note_off_c, 0, 56, 64
1, 40572, Note_off_c, 0, 64, 64
1, 40572, Note_off_c, 0, 62, 64
1, 40632, Note_on_c, 0, 53, 65
1, 40664, Note_off_c, 0, 52, 64
1, 40756, Note_off_c, 0, 53, 64
1, 40760, Note_on_c, 0, 64, 57
1, 40760, Note_on_c, 0, 62, 56
1, 40760, Note_on_c, 0, 52, 82
1, 40768, Note_on_c, 0, 56, 66
1, 40808, Note_off_c, 0, 64, 64
1, 40808, Note_off_c, 0, 62, 64
1, 40812, Note_off_c, 0, 56, 64
1, 41004, Note_on_c, 0, 50, 63
1, 41100, Note_off_c, 0, 52, 64
1, 41248, Note_on_c, 0, 48, 73
1, 41248, Note_on_c, 0, 64, 64
1, 41248, Note_on_c, 0, 60, 65
1, 41248, Note_on_c, 0, 57, 56
1, 41252, Note_on_c, 0, 69, 63
1, 41280, Note_off_c, 0, 50, 64
1, 41292, Control_c, 0, 64, 127
1, 41296, Note_off_c, 0, 64, 64
1, 41296, Note_off_c, 0, 60, 64
1, 41296, Note_off_c, 0, 57, 64
1, 41296, Note_off_c, 0, 69, 64
1, 41384, Note_on_c, 0, 47, 67
1, 41416, Note_off_c, 0, 48, 64
1, 41452, Control_c, 0, 64, 0
1, 41528, Note_on_c, 0, 81, 73
1, 41528, Note_on_c, 0, 72, 63
1, 41528, Note_on_c, 0, 45, 66
1, 41528, Note_on_c, 0, 76, 71
1, 41528, Note_on_c, 0, 69, 50
1, 41556, Note_off_c, 0, 47, 64
1, 41568, Control_c, 0, 64, 127
1, 41572, Note_off_c, 0, 81, 64
1, 41572, Note_off_c, 0, 72, 64
1, 41576, Note_off_c, 0, 76, 64
1, 41576, Note_off_c, 0, 69, 64
1, 41724, Control_c, 0, 64, 127
1, 41760, Note_off_c, 0, 45, 64
1, 41776, Control_c, 0, 64, 0
1, 41804, Note_on_c, 0, 35, 39
1, 41816, Note_on_c, 0, 47, 48
1, 41864, Control_c, 0, 64, 127
1, 41980, Note_on_c, 0, 75, 44
1, 42032, Note_on_c, 0, 76, 44
1, 42048, Note_off_c, 0, 75, 64
1, 42060, Control_c, 0, 64, 0
1, 42084, Note_on_c, 0, 75, 44
1, 42088, Note_on_c, 0, 69, 24
1, 42088, Note_on_c, 0, 66, 29
1, 42108, Note_on_c, 0, 59, 32
1, 42120, Note_off_c, 0, 76, 64
1, 42128, Note_off_c, 0, 35, 64
1, 42132, Note_off_c, 0, 69, 64
1, 42132, Note_off_c, 0, 66, 64
1, 42140, Note_off_c, 0, 47, 64
1, 42152, Note_off_c, 0, 59, 64
1, 42180, Control_c, 0, 64, 127
1, 42196, Note_on_c, 0, 73, 44
1, 42224, Note_off_c, 0, 75, 64
1, 42316, Note_on_c, 0, 69, 24
1, 42320, Control_c, 0, 64, 0
1, 42328, Note_on_c, 0, 75, 50
1, 42328, Note_on_c, 0, 66, 36
1, 42336, Note_on_c, 0, 59, 36
1, 42352, Control_c, 0, 64, 127
1, 42360, Note_off_c, 0, 73, 64
1, 42456, Note_on_c, 0, 76, 36
1, 42480, Note_off_c, 0, 75, 64
1, 42500, Note_off_c, 0, 69, 64
1, 42512, Note_off_c, 0, 66, 64
1, 42520, Note_off_c, 0, 59, 64
1, 42576, Note_on_c, 0, 78, 47
1, 42604, Note_off_c, 0, 76, 64
1, 42684, Note_on_c, 0, 80, 44
1, 42700, Note_off_c, 0, 78, 64
1, 42760, Control_c, 0, 64, 0
1, 42800, Note_on_c, 0, 52, 39
1, 42812, Note_on_c, 0, 59, 36
1, 42812, Note_on_c, 0, 76, 37
1, 42820, Note_on_c, 0, 68, 42
1, 42840, Note_off_c, 0, 80, 64
1, 42856, Note_off_c, 0, 52, 64
1, 42868, Note_off_c, 0, 59, 64
1, 42876, Note_off_c, 0, 68, 64
1, 43084, Note_on_c, 0, 68, 40
1, 43096, Note_on_c, 0, 59, 36
1, 43104, Note_on_c, 0, 52, 36
1, 43136, Control_c, 0, 64, 127
1, 43212, Note_on_c, 0, 71, 42
1, 43244, Note_off_c, 0, 76, 64
1, 43268, Note_off_c, 0, 68, 64
1, 43280, Note_off_c, 0, 59, 64
1, 43284, Note_off_c, 0, 52, 64
1, 43308, Note_on_c, 0, 74, 44
1, 43328, Note_off_c, 0, 71, 64
1, 43468, Note_on_c, 0, 73, 48
1, 43472, Note_off_c, 0, 74, 64
1, 43520, Note_on_c, 0, 74, 39
1, 43544, Note_off_c, 0, 73, 64
1, 43552, Control_c, 0, 64, 0
1, 43560, Note_on_c, 0, 67, 31
1, 43568, Note_on_c, 0, 64, 39
1, 43568, Note_on_c, 0, 57, 36
1, 43576, Note_on_c, 0, 73, 47
1, 43604, Note_off_c, 0, 74, 64
1, 43616, Note_off_c, 0, 67, 64
1, 43624, Note_off_c, 0, 64, 64
1, 43624, Note_off_c, 0, 57, 64
1, 43696, Note_on_c, 0, 71, 36
1, 43716, Note_off_c, 0, 73, 64
1, 43824, Note_on_c, 0, 73, 48
1, 43828, Note_on_c, 0, 67, 31
1, 43840, Note_on_c, 0, 64, 39
1, 43848, Note_off_c, 0, 71, 64
1, 43848, Note_on_c, 0, 57, 39
1, 43872, Control_c, 0, 64, 127
1, 43948, Note_on_c, 0, 74, 41
1, 43984, Note_off_c, 0, 73, 64
1, 44008, Note_off_c, 0, 67, 64
1, 44024, Note_off_c, 0, 64, 64
1, 44032, Note_off_c, 0, 57, 64
1, 44080, Note_on_c, 0, 76, 39
1, 44120, Note_off_c, 0, 74, 64
1, 44200, Note_on_c, 0, 78, 48
1, 44224, Note_off_c, 0, 76, 64
1, 44288, Control_c, 0, 64, 0
1, 44312, Note_on_c, 0, 74, 41
1, 44320, Note_on_c, 0, 66, 39
1, 44320, Note_on_c, 0, 57, 36
1, 44328, Note_on_c, 0, 50, 29
1, 44336, Note_off_c, 0, 78, 64
1, 44368, Note_off_c, 0, 66, 64
1, 44368, Note_off_c, 0, 57, 64
1, 44372, Note_off_c, 0, 50, 64
1, 44588, Note_on_c, 0, 66, 39
1, 44600, Note_on_c, 0, 50, 36
1, 44604, Note_on_c, 0, 57, 39
1, 44648, Control_c, 0, 64, 127
1, 44708, Note_on_c, 0, 69, 37
1, 44712, Note_off_c, 0, 74, 64
1, 44768, Note_off_c, 0, 66, 64
1, 44784, Note_off_c, 0, 50, 64
1, 44788, Note_off_c, 0, 57, 64
1, 44804, Note_on_c, 0, 72, 44
1, 44824, Note_off_c, 0, 69, 64
1, 44980, Note_on_c, 0, 71, 47
1, 45000, Note_off_c, 0, 72, 64
1, 45044, Note_on_c, 0, 72, 37
1, 45048, Control_c, 0, 64, 0
1, 45060, Note_off_c, 0, 71, 64
1, 45064, Note_on_c, 0, 65, 28
1, 45064, Note_on_c, 0, 62, 39
1, 45064, Note_on_c, 0, 55, 36
1, 45080, Note_on_c, 0, 71, 58
1, 45112, Note_off_c, 0, 72, 64
1, 45120, Note_off_c, 0, 65, 64
1, 45124, Note_off_c, 0, 62, 64
1, 45124, Note_off_c, 0, 55, 64
1, 45192, Note_on_c, 0, 69, 35
1, 45232, Note_off_c, 0, 71, 64
1, 45324, Note_on_c, 0, 65, 24
1, 45324, Note_on_c, 0, 62, 40
1, 45328, Note_on_c, 0, 71, 41
1, 45332, Note_on_c, 0, 55, 42
1, 45364, Note_off_c, 0, 69, 64
1, 45368, Control_c, 0, 64, 127
1, 45448, Note_on_c, 0, 72, 29
1, 45504, Note_off_c, 0, 71, 64
1, 45508, Note_off_c, 0, 65, 64
1, 45508, Note_off_c, 0, 62, 64
1, 45512, Note_off_c, 0, 55, 64
1, 45576, Note_on_c, 0, 74, 48
1, 45612, Note_off_c, 0, 72, 64
1, 45712, Note_on_c, 0, 76, 44
1, 45760, Note_off_c, 0, 74, 64
1, 45820, Note_on_c, 0, 36, 47
1, 45820, Note_on_c, 0, 72, 44
1, 45820, Control_c, 0, 64, 0
1, 45836, Note_on_c, 0, 48, 41
1, 45836, Note_on_c, 0, 64, 47
1, 45860, Note_off_c, 0, 76, 64
1, 45888, Control_c, 0, 64, 127
1, 46056, Note_off_c, 0, 72, 64
1, 46056, Note_on_c, 0, 71, 49
1, 46056, Note_on_c, 0, 62, 47
1, 46056, Note_on_c, 0, 38, 50
1, 46064, Note_on_c, 0, 50, 50
1, 46072, Note_off_c, 0, 64, 64
1, 46076, Control_c, 0, 64, 0
1, 46092, Note_off_c, 0, 36, 64
1, 46108, Note_off_c, 0, 48, 64
1, 46156, Control_c, 0, 64, 127
1, 46236, Note_off_c, 0, 71, 64
1, 46272, Note_on_c, 0, 71, 48
1, 46280, Note_on_c, 0, 40, 48
1, 46308, Note_off_c, 0, 38, 64
1, 46308, Note_off_c, 0, 62, 64
1, 46308, Note_on_c, 0, 52, 66
1, 46316, Note_off_c, 0, 50, 64
1, 46320, Control_c, 0, 64, 0
1, 46400, Note_off_c, 0, 71, 64
1, 46408, Note_off_c, 0, 40, 64
1, 46564, Control_c, 0, 64, 0
1, 46588, Note_on_c, 0, 64, 42
1, 46588, Note_on_c, 0, 62, 48
1, 46588, Note_on_c, 0, 56, 56
1, 46636, Note_off_c, 0, 64, 64
1, 46636, Note_off_c, 0, 62, 64
1, 46636, Note_off_c, 0, 56, 64
1, 46704, Note_on_c, 0, 53, 49
1, 46736, Note_off_c, 0, 52, 64
1, 46828, Note_on_c, 0, 52, 62
1, 46848, Note_off_c, 0, 53, 64
1, 46848, Note_on_c, 0, 64, 50
1, 46848, Note_on_c, 0, 62, 50
1, 46864, Note_on_c, 0, 56, 47
1, 46896, Note_off_c, 0, 64, 64
1, 46896, Note_off_c, 0, 62, 64
1, 46912, Note_off_c, 0, 56, 64
1, 47084, Note_on_c, 0, 50, 49
1, 47144, Note_off_c, 0, 52, 64
1, 47328, Note_on_c, 0, 69, 48
1, 47328, Note_on_c, 0, 48, 47
1, 47332, Note_on_c, 0, 64, 55
1, 47332, Note_on_c, 0, 57, 49
1, 47332, Note_on_c, 0, 60, 55
1, 47368, Note_off_c, 0, 50, 64
1, 47376, Note_off_c, 0, 69, 64
1, 47376, Note_off_c, 0, 64, 64
1, 47376, Note_off_c, 0, 57, 64
1, 47380, Note_off_c, 0, 60, 64
1, 47540, Note_on_c, 0, 47, 44
1, 47560, Note_off_c, 0, 48, 64
1, 47624, Note_on_c, 0, 81, 50
1, 47624, Note_on_c, 0, 45, 50
1, 47628, Note_on_c, 0, 76, 50
1, 47632, Note_on_c, 0, 72, 55
1, 47632, Note_on_c, 0, 69, 52
1, 47668, Control_c, 0, 64, 127
1, 47672, Note_off_c, 0, 81, 64
1, 47676, Note_off_c, 0, 76, 64
1, 47680, Note_off_c, 0, 72, 64
1, 47680, Note_off_c, 0, 69, 64
1, 47688, Note_off_c, 0, 47, 64
1, 47892, Note_off_c, 0, 45, 64
1, 48044, Note_on_c, 0, 55, 54
1, 48048, Note_on_c, 0, 48, 62
1, 48056, Note_on_c, 0, 67, 50
1, 48072, Control_c, 0, 64, 0
1, 48180, Note_on_c, 0, 69, 37
1, 48236, Note_off_c, 0, 67, 64
1, 48304, Note_on_c, 0, 71, 50
1, 48348, Note_off_c, 0, 69, 64
1, 48408, Control_c, 0, 64, 127
1, 48424, Note_on_c, 0, 72, 59
1, 48440, Note_off_c, 0, 71, 64
1, 48552, Note_on_c, 0, 74, 42
1, 48588, Note_off_c, 0, 72, 64
1, 48664, Note_on_c, 0, 76, 50
1, 48704, Note_off_c, 0, 74, 64
1, 48764, Note_off_c, 0, 48, 64
1, 48784, Note_on_c, 0, 78, 62
1, 48840, Note_off_c, 0, 76, 64
1, 48900, Note_on_c, 0, 57, 57
1, 48904, Note_on_c, 0, 79, 66
1, 48916, Note_off_c, 0, 55, 64
1, 48940, Note_off_c, 0, 78, 64
1, 49016, Note_on_c, 0, 59, 66
1, 49020, Note_on_c, 0, 78, 66
1, 49044, Note_off_c, 0, 79, 64
1, 49048, Note_off_c, 0, 57, 64
1, 49076, Control_c, 0, 64, 0
1, 49140, Note_on_c, 0, 74, 46
1, 49144, Note_on_c, 0, 60, 54
1, 49172, Note_off_c, 0, 78, 64
1, 49192, Note_off_c, 0, 59, 64
1, 49248, Note_on_c, 0, 62, 62
1, 49252, Note_on_c, 0, 76, 57
1, 49292, Note_off_c, 0, 74, 64
1, 49300, Note_off_c, 0, 60, 64
1, 49376, Note_on_c, 0, 64, 56
1, 49376, Note_on_c, 0, 72, 59
1, 49416, Note_off_c, 0, 62, 64
1, 49416, Note_off_c, 0, 76, 64
1, 49496, Note_on_c, 0, 74, 65
1, 49496, Note_on_c, 0, 66, 65
1, 49520, Note_off_c, 0, 72, 64
1, 49532, Note_off_c, 0, 64, 64
1, 49608, Note_on_c, 0, 76, 55
1, 49608, Note_on_c, 0, 67, 55
1, 49640, Note_off_c, 0, 66, 64
1, 49652, Note_off_c, 0, 74, 64
1, 49744, Note_on_c, 0, 74, 55
1, 49748, Note_on_c, 0, 66, 33
1, 49756, Note_off_c, 0, 76, 64
1, 49768, Control_c, 0, 64, 127
1, 49772, Note_off_c, 0, 67, 64
1, 49852, Note_on_c, 0, 62, 55
1, 49900, Note_off_c, 0, 66, 64
1, 49988, Note_on_c, 0, 72, 50
1, 49992, Note_on_c, 0, 64, 55
1, 50016, Note_off_c, 0, 62, 64
1, 50024, Note_off_c, 0, 74, 64
1, 50112, Note_on_c, 0, 69, 55
1, 50124, Note_on_c, 0, 60, 52
1, 50164, Note_off_c, 0, 72, 64
1, 50164, Note_off_c, 0, 64, 64
1, 50248, Note_on_c, 0, 67, 63
1, 50252, Note_on_c, 0, 65, 59
1, 50252, Note_on_c, 0, 62, 56
1, 50304, Control_c, 0, 64, 0
1, 50312, Note_off_c, 0, 60, 64
1, 50316, Note_off_c, 0, 69, 64
1, 50392, Note_on_c, 0, 64, 47
1, 50432, Note_off_c, 0, 62, 64
1, 50508, Note_on_c, 0, 62, 50
1, 50560, Note_off_c, 0, 64, 64
1, 50560, Control_c, 0, 64, 127
1, 50816, Note_on_c, 0, 72, 48
1, 50820, Note_off_c, 0, 62, 64
1, 50824, Note_on_c, 0, 64, 40
1, 50824, Note_on_c, 0, 60, 54
1, 50828, Note_off_c, 0, 67, 64
1, 50832, Note_off_c, 0, 65, 64
1, 50968, Note_on_c, 0, 57, 44
1, 50996, Note_off_c, 0, 60, 64
1, 51096, Note_off_c, 0, 72, 64
1, 51096, Note_on_c, 0, 55, 50
1, 51096, Note_on_c, 0, 48, 50
1, 51104, Note_off_c, 0, 64, 64
1, 51112, Note_on_c, 0, 67, 41
1, 51132, Note_off_c, 0, 57, 64
1, 51132, Control_c, 0, 64, 0
1, 51224, Note_on_c, 0, 69, 44
1, 51248, Note_off_c, 0, 67, 64
1, 51336, Note_on_c, 0, 71, 42
1, 51364, Note_off_c, 0, 69, 64
1, 51408, Control_c, 0, 64, 127
1, 51456, Note_on_c, 0, 72, 42
1, 51472, Note_off_c, 0, 71, 64
1, 51548, Control_c, 0, 64, 0
1, 51608, Note_on_c, 0, 60, 48
1, 51616, Note_on_c, 0, 74, 41
1, 51632, Note_off_c, 0, 55, 64
1, 51640, Note_off_c, 0, 72, 64
1, 51652, Control_c, 0, 64, 127
1, 51716, Note_on_c, 0, 76, 44
1, 51740, Note_off_c, 0, 74, 64
1, 51848, Note_on_c, 0, 55, 50
1, 51856, Note_on_c, 0, 78, 48
1, 51888, Note_off_c, 0, 60, 64
1, 51892, Note_off_c, 0, 48, 64
1, 51904, Note_off_c, 0, 76, 64
1, 51920, Control_c, 0, 64, 0
1, 51988, Note_on_c, 0, 57, 42
1, 51988, Note_on_c, 0, 79, 50
1, 52012, Note_off_c, 0, 78, 64
1, 52020, Note_off_c, 0, 55, 64
1, 52096, Note_on_c, 0, 78, 48
1, 52100, Note_on_c, 0, 59, 40
1, 52132, Note_off_c, 0, 79, 64
1, 52148, Note_off_c, 0, 57, 64
1, 52216, Note_on_c, 0, 60, 40
1, 52220, Note_on_c, 0, 74, 40
1, 52232, Note_off_c, 0, 59, 64
1, 52244, Note_off_c, 0, 78, 64
1, 52340, Note_on_c, 0, 76, 44
1, 52340, Note_on_c, 0, 62, 48
1, 52352, Note_off_c, 0, 74, 64
1, 52360, Note_off_c, 0, 60, 64
1, 52448, Note_on_c, 0, 64, 40
1, 52452, Note_on_c, 0, 72, 50
1, 52480, Note_off_c, 0, 76, 64
1, 52492, Note_off_c, 0, 62, 64
1, 52568, Note_on_c, 0, 74, 54
1, 52576, Note_on_c, 0, 66, 40
1, 52592, Note_off_c, 0, 64, 64
1, 52596, Note_off_c, 0, 72, 64
1, 52688, Note_on_c, 0, 67, 40
1, 52692, Note_on_c, 0, 76, 40
1, 52716, Note_off_c, 0, 66, 64
1, 52720, Note_off_c, 0, 74, 64
1, 52800, Note_on_c, 0, 66, 40
1, 52800, Note_on_c, 0, 74, 44
1, 52832, Note_off_c, 0, 67, 64
1, 52832, Note_off_c, 0, 76, 64
1, 52920, Note_on_c, 0, 62, 41
1, 52924, Note_on_c, 0, 71, 40
1, 52948, Note_off_c, 0, 66, 64
1, 52952, Note_off_c, 0, 74, 64
1, 53036, Note_on_c, 0, 64, 50
1, 53044, Note_on_c, 0, 72, 41
1, 53052, Control_c, 0, 64, 127
1, 53060, Note_off_c, 0, 62, 64
1, 53060, Note_off_c, 0, 71, 64
1, 53164, Note_on_c, 0, 69, 54
1, 53164, Note_on_c, 0, 60, 20
1, 53176, Note_off_c, 0, 72, 64
1, 53204, Note_off_c, 0, 64, 64
1, 53304, Note_on_c, 0, 62, 50
1, 53312, Note_on_c, 0, 67, 50
1, 53316, Note_on_c, 0, 65, 47
1, 53344, Note_off_c, 0, 69, 64
1, 53344, Note_off_c, 0, 60, 64
1, 53344, Control_c, 0, 64, 0
1, 53428, Note_on_c, 0, 64, 54
1, 53440, Note_off_c, 0, 62, 64
1, 53484, Control_c, 0, 64, 127
1, 53560, Note_on_c, 0, 62, 47
1, 53584, Note_off_c, 0, 64, 64
1, 53680, Note_on_c, 0, 59, 44
1, 53700, Note_off_c, 0, 62, 64
1, 53816, Note_on_c, 0, 64, 40
1, 53816, Note_on_c, 0, 60, 46
1, 53832, Note_off_c, 0, 59, 64
1, 53836, Note_off_c, 0, 65, 64
1, 53936, Note_on_c, 0, 57, 50
1, 53968, Note_off_c, 0, 60, 64
1, 54088, Note_on_c, 0, 48, 41
1, 54088, Note_on_c, 0, 55, 28
1, 54104, Note_off_c, 0, 57, 64
1, 54116, Control_c, 0, 64, 0
1, 54216, Note_on_c, 0, 69, 29
1, 54220, Note_off_c, 0, 64, 64
1, 54264, Note_off_c, 0, 67, 64
1, 54352, Note_on_c, 0, 71, 47
1, 54384, Note_off_c, 0, 69, 64
1, 54468, Note_on_c, 0, 72, 42
1, 54488, Note_off_c, 0, 71, 64
1, 54584, Note_on_c, 0, 74, 44
1, 54588, Control_c, 0, 64, 127
1, 54612, Note_off_c, 0, 72, 64
1, 54708, Note_on_c, 0, 76, 47
1, 54748, Note_off_c, 0, 74, 64
1, 54828, Note_on_c, 0, 78, 46
1, 54840, Note_off_c, 0, 48, 64
1, 54876, Note_off_c, 0, 76, 64
1, 54956, Note_on_c, 0, 79, 52
1, 54956, Note_on_c, 0, 57, 42
1, 54972, Note_off_c, 0, 78, 64
1, 55000, Note_off_c, 0, 55, 64
1, 55064, Note_on_c, 0, 59, 44
1, 55072, Note_on_c, 0, 78, 48
1, 55100, Note_off_c, 0, 79, 64
1, 55108, Note_off_c, 0, 57, 64
1, 55192, Note_on_c, 0, 60, 26
1, 55196, Note_on_c, 0, 74, 49
1, 55224, Note_off_c, 0, 59, 64
1, 55228, Tempo, 500000
1, 55228, Note_off_c, 0, 78, 64
1, 55312, Control_c, 0, 64, 0
1, 55320, Note_on_c, 0, 76, 39
1, 55320, Note_on_c, 0, 62, 42
1, 55336, Note_off_c, 0, 60, 64
1, 55336, Note_off_c, 0, 74, 64
1, 55436, Note_on_c, 0, 72, 46
1, 55436, Note_on_c, 0, 64, 44
1, 55456, Note_off_c, 0, 76, 64
1, 55468, Note_off_c, 0, 62, 64
1, 55556, Note_on_c, 0, 74, 57
1, 55556, Note_on_c, 0, 66, 54
1, 55592, Note_off_c, 0, 72, 64
1, 55592, Note_off_c, 0, 64, 64
1, 55668, Note_on_c, 0, 76, 47
1, 55684, Note_on_c, 0, 67, 52
1, 55700, Note_off_c, 0, 74, 64
1, 55712, Note_off_c, 0, 66, 64
1, 55792, Note_on_c, 0, 74, 50
1, 55792, Note_on_c, 0, 66, 39
1, 55804, Note_off_c, 0, 76, 64
1, 55820, Note_off_c, 0, 67, 64
1, 55896, Control_c, 0, 64, 127
1, 55912, Note_on_c, 0, 62, 37
1, 55952, Note_off_c, 0, 66, 64
1, 56024, Note_on_c, 0, 64, 29
1, 56028, Note_on_c, 0, 72, 47
1, 56048, Note_off_c, 0, 74, 64
1, 56068, Note_off_c, 0, 62, 64
1, 56152, Note_on_c, 0, 69, 35
1, 56152, Note_on_c, 0, 60, 36
1, 56168, Note_off_c, 0, 72, 64
1, 56184, Note_off_c, 0, 64, 64
1, 56260, Control_c, 0, 64, 0
1, 56276, Note_on_c, 0, 65, 42
1, 56280, Note_on_c, 0, 67, 52
1, 56280, Note_on_c, 0, 62, 33
1, 56324, Note_off_c, 0, 69, 64
1, 56324, Note_off_c, 0, 60, 64
1, 56400, Note_on_c, 0, 64, 49
1, 56408, Note_off_c, 0, 62, 64
1, 56448, Control_c, 0, 64, 127
1, 56496, Note_off_c, 0, 65, 64
1, 56528, Note_on_c, 0, 62, 47
1, 56536, Control_c, 0, 64, 0
1, 56552, Note_off_c, 0, 64, 64
1, 56600, Control_c, 0, 64, 127
1, 56776, Note_on_c, 0, 72, 42
1, 56780, Note_on_c, 0, 60, 40
1, 56784, Note_on_c, 0, 64, 32
1, 56800, Control_c, 0, 64, 0
1, 56808, Note_off_c, 0, 62, 64
1, 56852, Note_off_c, 0, 67, 64
1, 56876, Control_c, 0, 64, 127
1, 56912, Note_on_c, 0, 57, 48
1, 56924, Note_off_c, 0, 60, 64
1, 57036, Note_on_c, 0, 55, 44
1, 57036, Note_on_c, 0, 48, 44
1, 57044, Note_on_c, 0, 67, 39
1, 57048, Note_off_c, 0, 57, 64
1, 57060, Note_off_c, 0, 72, 64
1, 57060, Control_c, 0, 64, 0
1, 57072, Note_off_c, 0, 64, 64
1, 57188, Note_on_c, 0, 69, 36
1, 57200, Note_off_c, 0, 67, 64
1, 57312, Note_on_c, 0, 71, 39
1, 57336, Note_off_c, 0, 69, 64
1, 57420, Note_on_c, 0, 72, 35
1, 57436, Note_off_c, 0, 71, 64
1, 57540, Note_on_c, 0, 74, 37
1, 57548, Note_on_c, 0, 60, 47
1, 57552, Note_off_c, 0, 55, 64
1, 57580, Note_off_c, 0, 72, 64
1, 57596, Control_c, 0, 64, 127
1, 57668, Note_on_c, 0, 76, 36
1, 57688, Note_off_c, 0, 74, 64
1, 57804, Note_on_c, 0, 55, 44
1, 57808, Note_on_c, 0, 78, 36
1, 57844, Note_off_c, 0, 48, 64
1, 57848, Note_off_c, 0, 60, 64
1, 57848, Note_off_c, 0, 76, 64
1, 57860, Control_c, 0, 64, 0
1, 57936, Note_on_c, 0, 79, 42
1, 57940, Note_on_c, 0, 57, 35
1, 57960, Note_off_c, 0, 55, 64
1, 57964, Note_off_c, 0, 78, 64
1, 58048, Note_on_c, 0, 78, 44
1, 58056, Note_on_c, 0, 59, 39
1, 58064, Note_off_c, 0, 79, 64
1, 58104, Note_off_c, 0, 57, 64
1, 58176, Note_on_c, 0, 74, 35
1, 58184, Note_on_c, 0, 60, 40
1, 58204, Note_off_c, 0, 59, 64
1, 58208, Note_off_c, 0, 78, 64
1, 58292, Note_on_c, 0, 76, 41
1, 58296, Note_on_c, 0, 62, 47
1, 58320, Note_off_c, 0, 74, 64
1, 58328, Note_off_c, 0, 60, 64
1, 58404, Note_on_c, 0, 72, 44
1, 58404, Note_on_c, 0, 64, 42
1, 58436, Note_off_c, 0, 76, 64
1, 58440, Note_off_c, 0, 62, 64
1, 58524, Note_on_c, 0, 74, 42
1, 58528, Note_on_c, 0, 66, 41
1, 58556, Note_off_c, 0, 72, 64
1, 58556, Note_off_c, 0, 64, 64
1, 58648, Note_on_c, 0, 67, 35
1, 58652, Note_on_c, 0, 76, 29
1, 58664, Note_off_c, 0, 74, 64
1, 58668, Note_off_c, 0, 66, 64
1, 58728, Control_c, 0, 64, 127
1, 58752, Note_on_c, 0, 66, 31
1, 58756, Note_on_c, 0, 74, 42
1, 58780, Note_off_c, 0, 67, 64
1, 58784, Note_off_c, 0, 76, 64
1, 58884, Note_on_c, 0, 71, 32
1, 58888, Note_on_c, 0, 62, 29
1, 58896, Note_off_c, 0, 66, 64
1, 58896, Note_off_c, 0, 74, 64
1, 59008, Note_on_c, 0, 72, 32
1, 59008, Note_on_c, 0, 64, 37
1, 59024, Note_off_c, 0, 71, 64
1, 59028, Note_off_c, 0, 62, 64
1, 59124, Note_on_c, 0, 69, 35
1, 59124, Note_on_c, 0, 60, 16
1, 59168, Note_off_c, 0, 72, 64
1, 59168, Note_off_c, 0, 64, 64
1, 59240, Note_on_c, 0, 67, 42
1, 59244, Note_on_c, 0, 65, 37
1, 59244, Note_on_c, 0, 62, 44
1, 59272, Control_c, 0, 64, 0
1, 59288, Note_off_c, 0, 69, 64
1, 59288, Note_off_c, 0, 60, 64
1, 59380, Note_on_c, 0, 64, 44
1, 59400, Note_off_c, 0, 62, 64
1, 59400, Control_c, 0, 64, 127
1, 59528, Note_on_c, 0, 62, 37
1, 59548, Note_off_c, 0, 64, 64
1, 59656, Note_on_c, 0, 59, 28
1, 59676, Note_off_c, 0, 62, 64
1, 59816, Note_on_c, 0, 60, 35
1, 59836, Control_c, 0, 64, 0
1, 59840, Note_off_c, 0, 59, 64
1, 59888, Control_c, 0, 64, 127
1, 59960, Note_on_c, 0, 57, 21
1, 59972, Note_off_c, 0, 60, 64
1, 60108, Note_on_c, 0, 48, 35
1, 60120, Note_on_c, 0, 55, 29
1, 60132, Note_off_c, 0, 57, 64
1, 60176, Control_c, 0, 64, 0
1, 60332, Note_on_c, 0, 71, 44
1, 60412, Note_on_c, 0, 74, 44
1, 60440, Control_c, 0, 64, 127
1, 60472, Note_off_c, 0, 71, 64
1, 60664, Note_off_c, 0, 48, 64
1, 60672, Note_on_c, 0, 76, 47
1, 60676, Note_off_c, 0, 55, 64
1, 60712, Note_off_c, 0, 74, 64
1, 60940, Note_on_c, 0, 36, 48
1, 60944, Note_on_c, 0, 43, 28
1, 60952, Note_on_c, 0, 72, 52
1, 60960, Note_on_c, 0, 64, 48
1, 60968, Note_off_c, 0, 65, 64
1, 60972, Note_off_c, 0, 76, 64
1, 60980, Control_c, 0, 64, 0
1, 61080, Control_c, 0, 64, 127
1, 61120, Note_on_c, 0, 71, 50
1, 61144, Note_off_c, 0, 72, 64
1, 61152, Note_off_c, 0, 67, 64
1, 61152, Control_c, 0, 64, 0
1, 61184, Note_on_c, 0, 67, 58
1, 61220, Note_off_c, 0, 71, 64
1, 61244, Control_c, 0, 64, 127
1, 61388, Note_off_c, 0, 67, 64
1, 61392, Note_on_c, 0, 69, 32
1, 61404, Note_off_c, 0, 64, 64
1, 61432, Note_on_c, 0, 71, 50
1, 61460, Note_off_c, 0, 69, 64
1, 61500, Note_on_c, 0, 69, 52
1, 61512, Note_off_c, 0, 71, 64
1, 61708, Note_on_c, 0, 60, 36
1, 61720, Note_on_c, 0, 67, 52
1, 61744, Note_off_c, 0, 69, 64
1, 61752, Control_c, 0, 64, 0
1, 61804, Control_c, 0, 64, 127
1, 61904, Note_on_c, 0, 66, 44
1, 61920, Note_off_c, 0, 67, 64
1, 61968, Control_c, 0, 64, 0
1, 61976, Note_on_c, 0, 57, 44
1, 61980, Note_on_c, 0, 62, 48
1, 61992, Note_off_c, 0, 60, 64
1, 62016, Note_off_c, 0, 66, 64
1, 62232, Note_on_c, 0, 59, 48
1, 62240, Note_on_c, 0, 65, 44
1, 62252, Note_off_c, 0, 57, 64
1, 62260, Note_off_c, 0, 62, 64
1, 62388, Note_off_c, 0, 43, 64
1, 62400, Note_off_c, 0, 36, 64
1, 62488, Note_on_c, 0, 60, 44
1, 62496, Note_on_c, 0, 64, 44
1, 62528, Note_off_c, 0, 59, 64
1, 62532, Note_off_c, 0, 65, 64
1, 62584, Control_c, 0, 64, 127
1, 62688, Note_on_c, 0, 36, 50
1, 62724, Note_off_c, 0, 60, 64
1, 62728, Note_on_c, 0, 43, 16
1, 62732, Note_off_c, 0, 64, 64
1, 62736, Control_c, 0, 64, 0
1, 62752, Note_off_c, 0, 36, 64
1, 62752, Note_on_c, 0, 52, 56
1, 62776, Note_on_c, 0, 60, 41
1, 62792, Note_off_c, 0, 43, 64
1, 62816, Note_off_c, 0, 52, 64
1, 62840, Note_off_c, 0, 60, 64
1, 62964, Note_on_c, 0, 36, 50
1, 62988, Note_on_c, 0, 43, 21
1, 63020, Note_on_c, 0, 52, 52
1, 63028, Note_off_c, 0, 36, 64
1, 63028, Note_on_c, 0, 55, 44
1, 63032, Note_on_c, 0, 60, 37
1, 63048, Note_on_c, 0, 67, 48
1, 63052, Note_off_c, 0, 43, 64
1, 63080, Control_c, 0, 64, 127
1, 63084, Note_off_c, 0, 52, 64
1, 63256, Note_off_c, 0, 55, 64
1, 63260, Note_off_c, 0, 60, 64
1, 63300, Note_on_c, 0, 36, 47
1, 63312, Note_on_c, 0, 65, 56
1, 63316, Note_on_c, 0, 50, 52
1, 63320, Note_on_c, 0, 43, 21
1, 63344, Control_c, 0, 64, 0
1, 63476, Note_on_c, 0, 71, 44
1, 63552, Note_on_c, 0, 74, 47
1, 63592, Control_c, 0, 64, 127
1, 63596, Note_off_c, 0, 71, 64
1, 63800, Note_on_c, 0, 76, 48
1, 63840, Note_off_c, 0, 74, 64
1, 63932, Note_off_c, 0, 50, 64
1, 63944, Note_off_c, 0, 43, 64
1, 63964, Note_off_c, 0, 36, 64
1, 64044, Note_on_c, 0, 36, 48
1, 64056, Note_on_c, 0, 64, 47
1, 64060, Note_on_c, 0, 43, 48
1, 64064, Note_on_c, 0, 72, 54
1, 64064, Note_on_c, 0, 52, 50
1, 64076, Control_c, 0, 64, 0
1, 64096, Note_off_c, 0, 36, 64
1, 64104, Note_off_c, 0, 43, 64
1, 64108, Note_off_c, 0, 76, 64
1, 64132, Note_off_c, 0, 52, 64
1, 64136, Note_off_c, 0, 65, 64
1, 64240, Note_off_c, 0, 64, 64
1, 64256, Note_on_c, 0, 71, 41
1, 64276, Note_off_c, 0, 67, 64
1, 64276, Note_off_c, 0, 72, 64
1, 64296, Note_on_c, 0, 36, 48
1, 64300, Note_on_c, 0, 64, 47
1, 64308, Note_on_c, 0, 43, 35
1, 64316, Note_on_c, 0, 67, 48
1, 64316, Note_on_c, 0, 52, 54
1, 64352, Note_off_c, 0, 71, 64
1, 64352, Note_off_c, 0, 36, 64
1, 64360, Note_off_c, 0, 43, 64
1, 64368, Note_off_c, 0, 52, 64
1, 64440, Control_c, 0, 64, 127
1, 64460, Note_on_c, 0, 69, 52
1, 64484, Note_off_c, 0, 64, 64
1, 64488, Note_off_c, 0, 67, 64
1, 64496, Note_on_c, 0, 71, 50
1, 64504, Control_c, 0, 64, 0
1, 64520, Note_off_c, 0, 69, 64
1, 64544, Note_on_c, 0, 60, 48
1, 64560, Note_on_c, 0, 43, 44
1, 64560, Note_on_c, 0, 52, 52
1, 64568, Note_on_c, 0, 69, 50
1, 64568, Note_on_c, 0, 36, 41
1, 64596, Control_c, 0, 64, 127
1, 64600, Note_off_c, 0, 71, 64
1, 64616, Note_off_c, 0, 43, 64
1, 64616, Note_off_c, 0, 52, 64
1, 64616, Note_off_c, 0, 36, 64
1, 64808, Note_on_c, 0, 67, 44
1, 64820, Note_on_c, 0, 50, 56
1, 64828, Note_off_c, 0, 69, 64
1, 64828, Note_on_c, 0, 43, 41
1, 64828, Note_on_c, 0, 36, 50
1, 64848, Control_c, 0, 64, 0
1, 64996, Note_on_c, 0, 66, 27
1, 65024, Note_off_c, 0, 67, 64
1, 65052, Note_on_c, 0, 62, 48
1, 65064, Note_on_c, 0, 57, 52
1, 65076, Note_off_c, 0, 60, 64
1, 65100, Note_off_c, 0, 66, 64
1, 65124, Control_c, 0, 64, 127
1, 65308, Control_c, 0, 64, 0
1, 65320, Note_off_c, 0, 62, 64
1, 65320, Note_on_c, 0, 64, 49
1, 65328, Note_on_c, 0, 59, 56
1, 65332, Note_off_c, 0, 57, 64
1, 65388, Control_c, 0, 64, 127
1, 65416, Note_off_c, 0, 43, 64
1, 65436, Note_off_c, 0, 36, 64
1, 65464, Note_off_c, 0, 50, 64
1, 65552, Note_on_c, 0, 36, 52
1, 65560, Control_c, 0, 64, 0
1, 65572, Note_on_c, 0, 43, 49
1, 65588, Note_on_c, 0, 60, 48
1, 65600, Note_off_c, 0, 64, 64
1, 65604, Note_on_c, 0, 52, 52
1, 65608, Note_off_c, 0, 59, 64
1, 65620, Note_off_c, 0, 36, 64
1, 65632, Note_off_c, 0, 43, 64
1, 65652, Note_off_c, 0, 52, 64
1, 65832, Note_on_c, 0, 43, 39
1, 65832, Note_on_c, 0, 36, 56
1, 65836, Note_on_c, 0, 55, 54
1, 65848, Note_on_c, 0, 52, 62
1, 65888, Note_off_c, 0, 43, 64
1, 65888, Note_off_c, 0, 36, 64
1, 65888, Note_off_c, 0, 55, 64
1, 65900, Note_off_c, 0, 52, 64
1, 66072, Note_off_c, 0, 60, 64
1, 66072, Note_on_c, 0, 36, 56
1, 66080, Note_on_c, 0, 43, 56
1, 66104, Note_on_c, 0, 52, 57
1, 66112, Note_on_c, 0, 67, 59
1, 66120, Note_on_c, 0, 60, 48
1, 66120, Note_on_c, 0, 55, 48
1, 66128, Note_off_c, 0, 36, 64
1, 66144, Note_off_c, 0, 43, 64
1, 66164, Note_off_c, 0, 52, 64
1, 66168, Control_c, 0, 64, 127
1, 66332, Note_off_c, 0, 60, 64
1, 66332, Note_off_c, 0, 55, 64
1, 66368, Note_on_c, 0, 36, 50
1, 66376, Note_on_c, 0, 65, 62
1, 66376, Control_c, 0, 64, 0
1, 66392, Note_on_c, 0, 50, 54
1, 66392, Note_on_c, 0, 43, 48
1, 66556, Note_on_c, 0, 71, 41
1, 66616, Note_on_c, 0, 74, 56
1, 66648, Note_off_c, 0, 71, 64
1, 66664, Control_c, 0, 64, 127
1, 66888, Note_on_c, 0, 76, 52
1, 66928, Note_off_c, 0, 43, 64
1, 66932, Note_off_c, 0, 36, 64
1, 66932, Note_off_c, 0, 74, 64
1, 66952, Note_off_c, 0, 50, 64
1, 67072, Note_on_c, 0, 36, 44
1, 67120, Note_off_c, 0, 36, 64
1, 67124, Note_on_c, 0, 43, 47
1, 67124, Control_c, 0, 64, 0
1, 67136, Note_on_c, 0, 72, 56
1, 67140, Note_off_c, 0, 65, 64
1, 67144, Note_on_c, 0, 64, 50
1, 67144, Note_on_c, 0, 52, 58
1, 67164, Note_off_c, 0, 76, 64
1, 67172, Note_off_c, 0, 43, 64
1, 67196, Note_off_c, 0, 52, 64
1, 67316, Note_on_c, 0, 71, 48
1, 67332, Note_off_c, 0, 72, 64
1, 67336, Note_off_c, 0, 67, 64
1, 67352, Note_on_c, 0, 43, 56
1, 67360, Note_on_c, 0, 36, 52
1, 67372, Note_on_c, 0, 52, 58
1, 67384, Note_on_c, 0, 67, 44
1, 67400, Note_off_c, 0, 36, 64
1, 67404, Note_off_c, 0, 64, 64
1, 67412, Note_off_c, 0, 43, 64
1, 67420, Note_off_c, 0, 52, 64
1, 67428, Note_off_c, 0, 71, 64
1, 67536, Note_on_c, 0, 69, 54
1, 67572, Note_on_c, 0, 71, 44
1, 67600, Note_off_c, 0, 69, 64
1, 67616, Note_on_c, 0, 43, 44
1, 67616, Note_on_c, 0, 60, 50
1, 67624, Note_on_c, 0, 52, 57
1, 67628, Note_on_c, 0, 36, 48
1, 67640, Note_on_c, 0, 69, 52
1, 67648, Note_off_c, 0, 67, 64
1, 67664, Control_c, 0, 64, 127
1, 67672, Note_off_c, 0, 43, 64
1, 67672, Note_off_c, 0, 52, 64
1, 67672, Note_off_c, 0, 36, 64
1, 67680, Note_off_c, 0, 71, 64
1, 67872, Control_c, 0, 64, 0
1, 67880, Note_on_c, 0, 67, 46
1, 67888, Note_on_c, 0, 50, 57
1, 67888, Note_on_c, 0, 43, 57
1, 67888, Note_on_c, 0, 36, 56
1, 67896, Note_off_c, 0, 69, 64
1, 68056, Note_off_c, 0, 60, 64
1, 68064, Note_on_c, 0, 66, 52
1, 68096, Note_off_c, 0, 67, 64
1, 68128, Note_on_c, 0, 57, 56
1, 68136, Note_on_c, 0, 62, 48
1, 68172, Control_c, 0, 64, 127
1, 68176, Note_off_c, 0, 66, 64
1, 68372, Control_c, 0, 64, 0
1, 68392, Note_off_c, 0, 57, 64
1, 68392, Note_on_c, 0, 65, 50
1, 68396, Note_on_c, 0, 59, 56
1, 68400, Note_off_c, 0, 62, 64
1, 68464, Control_c, 0, 64, 127
1, 68568, Note_off_c, 0, 50, 64
1, 68568, Note_off_c, 0, 43, 64
1, 68568, Note_off_c, 0, 36, 64
1, 68624, Note_on_c, 0, 36, 52
1, 68632, Control_c, 0, 64, 0
1, 68636, Note_on_c, 0, 64, 47
1, 68636, Note_on_c, 0, 60, 47
1, 68640, Note_on_c, 0, 43, 52
1, 68656, Note_off_c, 0, 59, 64
1, 68660, Note_on_c, 0, 52, 47
1, 68680, Note_off_c, 0, 65, 64
1, 68680, Note_off_c, 0, 36, 64
1, 68700, Note_off_c, 0, 43, 64
1, 68712, Note_off_c, 0, 52, 64
1, 68836, Note_off_c, 0, 64, 64
1, 68836, Note_off_c, 0, 60, 64
1, 68888, Note_on_c, 0, 60, 50
1, 68888, Note_on_c, 0, 43, 56
1, 68888, Note_on_c, 0, 36, 52
1, 68896, Note_on_c, 0, 55, 58
1, 68904, Note_on_c, 0, 52, 62
1, 68952, Note_off_c, 0, 60, 64
1, 68952, Note_off_c, 0, 43, 64
1, 68952, Note_off_c, 0, 36, 64
1, 68960, Note_off_c, 0, 55, 64
1, 68968, Tempo, 500000
1, 68968, Note_off_c, 0, 52, 64
1, 69140, Note_on_c, 0, 55, 58
1, 69140, Note_on_c, 0, 36, 52
1, 69152, Note_on_c, 0, 60, 36
1, 69160, Note_on_c, 0, 43, 58
1, 69164, Note_on_c, 0, 52, 65
1, 69192, Note_off_c, 0, 36, 64
1, 69192, Note_on_c, 0, 67, 65
1, 69200, Control_c, 0, 64, 127
1, 69212, Note_off_c, 0, 43, 64
1, 69216, Note_off_c, 0, 52, 64
1, 69368, Note_off_c, 0, 55, 64
1, 69384, Note_off_c, 0, 60, 64
1, 69416, Note_on_c, 0, 36, 58
1, 69428, Note_on_c, 0, 43, 44
1, 69432, Note_on_c, 0, 65, 65
1, 69444, Note_on_c, 0, 50, 58
1, 69444, Control_c, 0, 64, 0
1, 69628, Note_on_c, 0, 71, 48
1, 69684, Note_on_c, 0, 74, 56
1, 69720, Note_off_c, 0, 71, 64
1, 69724, Control_c, 0, 64, 127
1, 69928, Control_c, 0, 64, 0
1, 69944, Note_on_c, 0, 76, 52
1, 69956, Control_c, 0, 64, 127
1, 69976, Note_off_c, 0, 74, 64
1, 69988, Note_off_c, 0, 36, 64
1, 70000, Note_off_c, 0, 43, 64
1, 70016, Note_off_c, 0, 50, 64
1, 70132, Note_on_c, 0, 36, 50
1, 70168, Note_on_c, 0, 43, 48
1, 70184, Note_off_c, 0, 36, 64
1, 70184, Note_on_c, 0, 72, 56
1, 70192, Control_c, 0, 64, 0
1, 70200, Note_on_c, 0, 64, 49
1, 70208, Note_on_c, 0, 52, 62
1, 70220, Note_off_c, 0, 43, 64
1, 70232, Note_off_c, 0, 76, 64
1, 70236, Note_off_c, 0, 65, 64
1, 70264, Note_off_c, 0, 52, 64
1, 70340, Note_off_c, 0, 67, 64
1, 70368, Note_on_c, 0, 71, 52
1, 70376, Note_off_c, 0, 64, 64
1, 70380, Note_off_c, 0, 72, 64
1, 70412, Note_on_c, 0, 36, 56
1, 70424, Note_on_c, 0, 43, 37
1, 70432, Note_on_c, 0, 52, 56
1, 70448, Note_on_c, 0, 67, 49
1, 70456, Note_on_c, 0, 64, 28
1, 70464, Note_off_c, 0, 36, 64
1, 70480, Note_off_c, 0, 43, 64
1, 70484, Note_off_c, 0, 52, 64
1, 70488, Note_off_c, 0, 71, 64
1, 70592, Note_on_c, 0, 69, 56
1, 70640, Note_on_c, 0, 71, 56
1, 70664, Note_on_c, 0, 36, 50
1, 70668, Note_off_c, 0, 69, 64
1, 70676, Note_on_c, 0, 60, 50
1, 70680, Note_on_c, 0, 43, 44
1, 70692, Note_on_c, 0, 69, 50
1, 70692, Note_on_c, 0, 52, 64
1, 70704, Control_c, 0, 64, 127
1, 70712, Note_off_c, 0, 67, 64
1, 70716, Note_off_c, 0, 36, 64
1, 70720, Note_off_c, 0, 64, 64
1, 70732, Note_off_c, 0, 43, 64
1, 70736, Note_off_c, 0, 71, 64
1, 70744, Note_off_c, 0, 52, 64
1, 70920, Note_on_c, 0, 67, 52
1, 70920, Note_on_c, 0, 36, 50
1, 70936, Note_on_c, 0, 50, 48
1, 70940, Note_off_c, 0, 69, 64
1, 70944, Note_on_c, 0, 43, 44
1, 70948, Control_c, 0, 64, 0
1, 71076, Control_c, 0, 64, 127
1, 71100, Note_on_c, 0, 66, 50
1, 71128, Note_off_c, 0, 67, 64
1, 71140, Control_c, 0, 64, 0
1, 71148, Note_on_c, 0, 62, 54
1, 71148, Note_on_c, 0, 57, 54
1, 71164, Note_off_c, 0, 60, 64
1, 71212, Note_off_c, 0, 66, 64
1, 71212, Control_c, 0, 64, 127
1, 71388, Note_off_c, 0, 36, 64
1, 71404, Note_off_c, 0, 50, 64
1, 71404, Note_off_c, 0, 62, 64
1, 71404, Note_off_c, 0, 57, 64
1, 71404, Note_on_c, 0, 64, 37
1, 71404, Note_on_c, 0, 59, 54
1, 71404, Control_c, 0, 64, 0
1, 71408, Note_off_c, 0, 43, 64
1, 71456, Control_c, 0, 64, 127
1, 71592, Note_off_c, 0, 64, 64
1, 71592, Note_off_c, 0, 59, 64
1, 71620, Note_on_c, 0, 59, 54
1, 71624, Note_on_c, 0, 64, 49
1, 71680, Note_on_c, 0, 52, 66
1, 71692, Note_on_c, 0, 60, 75
1, 71696, Note_off_c, 0, 59, 64
1, 71700, Note_on_c, 0, 36, 60
1, 71708, Note_on_c, 0, 43, 66
1, 71716, Note_off_c, 0, 64, 64
1, 71800, Control_c, 0, 64, 0
1, 71936, Note_off_c, 0, 36, 64
1, 71956, Note_off_c, 0, 52, 64
1, 71964, Note_on_c, 0, 84, 125
1, 71964, Note_on_c, 0, 48, 98
1, 71968, Note_off_c, 0, 60, 64
1, 71968, Note_on_c, 0, 64, 102
1, 71972, Note_on_c, 0, 72, 97
1, 71972, Note_on_c, 0, 55, 95
1, 71984, Note_off_c, 0, 43, 64
1, 71992, Control_c, 0, 64, 127
1, 72000, Note_off_c, 0, 72, 64
1, 72004, Note_off_c, 0, 84, 64
1, 72008, Note_off_c, 0, 48, 64
1, 72008, Note_off_c, 0, 64, 64
1, 72012, Note_off_c, 0, 55, 64
1, 72960, Control_c, 0, 64, 0
1, 72960, End_track
2, 0, Start_track
2, 1, Copyright_t, "__________________________________________________________\012\012KUNSTDERFUGE.COM GREAT CLASSICAL MIDI COLLECTION\012__________________________________________________________\012\012KUNST-DER-FUGE CONTRIBUTOR's PROPERTY\012Copyright by Contributor & Kunst der Fuge, © 2006\012\012Contributors' list: http://kunstderfuge.com/thanks.htm\012Terms and conditions: http://kunstderfuge.com/notes.htm\012__________________________________________________________\012\012NO WEBSITE MAY PUBLISH THIS FILE WITHOUT PERMISSION\012NO COMMERCIAL USE ALLOWED, NOR BY SALES NOR by eBay!\012PLEASE REPORT ANY ABUSE TO INFO@ONCLASSICAL.COM\012__________________________________________________________\012\012Thousands of free classical MIDI files at kunstderfuge.com"
2, 1, End_track
0, 0, End_of_file
