0, 0, Header, 0, 2, 384
1, 0, Start_track
1, 0, Title_t, "Chopin's Mazurkas (played by © Ron Lubetsky)"
1, 0, Time_signature, 4, 2, 96, 8
1, 0, Sequencer_specific, 3, 0, 0, 65
1, 0, Tempo, 500000
1, 1452, Control_c, 0, 64, 127
1, 1468, Note_on_c, 0, 55, 40
1, 1884, Note_on_c, 0, 67, 55
1, 1904, Control_c, 0, 64, 0
1, 1924, Note_off_c, 0, 55, 64
1, 1976, Control_c, 0, 64, 127
1, 2336, Note_on_c, 0, 65, 31
1, 2496, Note_on_c, 0, 72, 41
1, 2504, Note_on_c, 0, 63, 40
1, 2524, Note_off_c, 0, 65, 64
1, 2648, Note_on_c, 0, 71, 47
1, 2648, Note_on_c, 0, 62, 43
1, 2656, Note_on_c, 0, 74, 32
1, 2672, Note_off_c, 0, 72, 64
1, 2676, Note_off_c, 0, 63, 64
1, 2784, Note_on_c, 0, 72, 34
1, 2792, Note_on_c, 0, 60, 42
1, 2792, Note_on_c, 0, 75, 34
1, 2820, Note_off_c, 0, 71, 64
1, 2820, Note_off_c, 0, 62, 64
1, 2824, Note_off_c, 0, 74, 64
1, 2920, Note_on_c, 0, 77, 51
1, 2920, Note_on_c, 0, 71, 48
1, 2928, Note_on_c, 0, 62, 60
1, 2940, Note_off_c, 0, 72, 64
1, 2944, Note_off_c, 0, 60, 64
1, 2944, Note_off_c, 0, 75, 64
1, 2952, Control_c, 0, 64, 0
1, 3024, Control_c, 0, 64, 127
1, 3120, Note_off_c, 0, 77, 64
1, 3124, Note_off_c, 0, 71, 64
1, 3132, Note_off_c, 0, 62, 64
1, 3132, Note_on_c, 0, 79, 36
1, 3144, Note_on_c, 0, 55, 35
1, 3184, Control_c, 0, 64, 0
1, 3192, Note_on_c, 0, 71, 54
1, 3200, Note_on_c, 0, 77, 52
1, 3204, Note_on_c, 0, 62, 35
1, 3208, Note_off_c, 0, 79, 64
1, 3256, Note_off_c, 0, 55, 64
1, 3284, Control_c, 0, 64, 127
1, 3488, Note_on_c, 0, 75, 48
1, 3496, Note_on_c, 0, 72, 35
1, 3500, Note_on_c, 0, 60, 42
1, 3516, Control_c, 0, 64, 0
1, 3536, Note_off_c, 0, 71, 64
1, 3540, Note_off_c, 0, 77, 64
1, 3548, Note_off_c, 0, 62, 64
1, 3588, Control_c, 0, 64, 127
1, 3740, Note_off_c, 0, 72, 64
1, 3752, Note_off_c, 0, 75, 64
1, 3752, Note_off_c, 0, 60, 64
1, 3792, Note_on_c, 0, 77, 49
1, 3792, Note_on_c, 0, 71, 48
1, 3800, Note_on_c, 0, 62, 40
1, 3816, Control_c, 0, 64, 0
1, 3872, Control_c, 0, 64, 127
1, 3992, Note_off_c, 0, 77, 64
1, 3996, Note_off_c, 0, 71, 64
1, 4012, Note_on_c, 0, 55, 46
1, 4016, Note_off_c, 0, 62, 64
1, 4016, Note_on_c, 0, 79, 35
1, 4056, Note_on_c, 0, 71, 48
1, 4064, Note_on_c, 0, 62, 52
1, 4068, Note_on_c, 0, 77, 52
1, 4088, Note_off_c, 0, 79, 64
1, 4092, Control_c, 0, 64, 0
1, 4124, Note_off_c, 0, 55, 64
1, 4184, Control_c, 0, 64, 127
1, 4500, Note_on_c, 0, 72, 37
1, 4504, Note_on_c, 0, 75, 42
1, 4508, Note_on_c, 0, 60, 37
1, 4540, Note_off_c, 0, 71, 64
1, 4548, Note_off_c, 0, 62, 64
1, 4548, Control_c, 0, 64, 0
1, 4552, Note_off_c, 0, 77, 64
1, 4648, Control_c, 0, 64, 127
1, 4864, Note_off_c, 0, 72, 64
1, 4880, Note_off_c, 0, 75, 64
1, 4928, Note_off_c, 0, 60, 64
1, 5176, Note_on_c, 0, 59, 51
1, 5192, Note_off_c, 0, 67, 64
1, 5280, Control_c, 0, 64, 0
1, 5328, Note_on_c, 0, 60, 52
1, 5352, Note_off_c, 0, 59, 64
1, 5484, Note_on_c, 0, 62, 54
1, 5504, Note_off_c, 0, 60, 64
1, 5612, Note_on_c, 0, 63, 66
1, 5640, Note_off_c, 0, 62, 64
1, 5784, Note_on_c, 0, 62, 55
1, 5792, Note_off_c, 0, 63, 64
1, 5820, Control_c, 0, 64, 127
1, 6156, Note_on_c, 0, 60, 49
1, 6288, Note_on_c, 0, 58, 42
1, 6296, Note_on_c, 0, 67, 54
1, 6304, Note_off_c, 0, 60, 64
1, 6432, Note_on_c, 0, 69, 46
1, 6432, Note_on_c, 0, 66, 47
1, 6432, Note_on_c, 0, 57, 47
1, 6464, Note_off_c, 0, 58, 64
1, 6468, Note_off_c, 0, 67, 64
1, 6548, Note_on_c, 0, 67, 57
1, 6552, Note_on_c, 0, 70, 57
1, 6556, Note_on_c, 0, 55, 59
1, 6580, Note_off_c, 0, 57, 64
1, 6584, Note_off_c, 0, 69, 64
1, 6600, Note_off_c, 0, 66, 64
1, 6688, Control_c, 0, 64, 0
1, 6696, Note_on_c, 0, 72, 59
1, 6696, Note_on_c, 0, 57, 59
1, 6704, Note_on_c, 0, 66, 48
1, 6728, Note_off_c, 0, 67, 64
1, 6732, Note_off_c, 0, 70, 64
1, 6736, Note_off_c, 0, 55, 64
1, 6764, Control_c, 0, 64, 127
1, 6908, Note_off_c, 0, 72, 64
1, 6908, Note_off_c, 0, 57, 64
1, 6908, Note_on_c, 0, 50, 60
1, 6912, Note_off_c, 0, 66, 64
1, 6912, Note_on_c, 0, 74, 60
1, 6976, Note_on_c, 0, 66, 64
1, 6976, Note_on_c, 0, 57, 40
1, 6980, Note_on_c, 0, 72, 60
1, 6996, Control_c, 0, 64, 0
1, 7008, Note_off_c, 0, 74, 64
1, 7048, Note_off_c, 0, 50, 64
1, 7084, Control_c, 0, 64, 127
1, 7284, Control_c, 0, 64, 0
1, 7296, Note_on_c, 0, 55, 49
1, 7296, Note_on_c, 0, 67, 57
1, 7304, Note_on_c, 0, 70, 63
1, 7308, Note_off_c, 0, 66, 64
1, 7308, Note_off_c, 0, 57, 64
1, 7308, Note_off_c, 0, 72, 64
1, 7372, Control_c, 0, 64, 127
1, 7556, Note_off_c, 0, 70, 64
1, 7560, Note_off_c, 0, 67, 64
1, 7560, Note_on_c, 0, 57, 42
1, 7572, Note_on_c, 0, 66, 57
1, 7572, Note_on_c, 0, 72, 58
1, 7580, Note_off_c, 0, 55, 64
1, 7584, Control_c, 0, 64, 0
1, 7652, Control_c, 0, 64, 127
1, 7760, Note_off_c, 0, 66, 64
1, 7776, Note_off_c, 0, 72, 64
1, 7780, Note_on_c, 0, 74, 55
1, 7780, Note_on_c, 0, 50, 48
1, 7792, Note_off_c, 0, 57, 64
1, 7856, Control_c, 0, 64, 0
1, 7860, Note_on_c, 0, 57, 55
1, 7864, Note_on_c, 0, 72, 55
1, 7864, Note_on_c, 0, 66, 58
1, 7872, Note_off_c, 0, 74, 64
1, 7916, Note_off_c, 0, 50, 64
1, 7952, Control_c, 0, 64, 127
1, 8232, Note_on_c, 0, 67, 42
1, 8232, Note_on_c, 0, 70, 55
1, 8256, Note_on_c, 0, 55, 46
1, 8260, Note_off_c, 0, 57, 64
1, 8264, Note_off_c, 0, 72, 64
1, 8264, Control_c, 0, 64, 0
1, 8268, Note_off_c, 0, 66, 64
1, 8336, Control_c, 0, 64, 127
1, 8640, Note_off_c, 0, 67, 64
1, 8640, Note_off_c, 0, 70, 64
1, 8652, Note_off_c, 0, 62, 64
1, 8692, Note_on_c, 0, 68, 52
1, 8696, Note_on_c, 0, 63, 48
1, 8704, Note_on_c, 0, 60, 46
1, 8740, Control_c, 0, 64, 0
1, 8856, Control_c, 0, 64, 127
1, 9524, Note_on_c, 0, 66, 28
1, 9552, Note_off_c, 0, 68, 64
1, 9580, Note_off_c, 0, 63, 64
1, 9724, Note_off_c, 0, 60, 64
1, 9984, Note_on_c, 0, 67, 34
1, 9996, Note_off_c, 0, 66, 64
1, 10004, Note_on_c, 0, 59, 25
1, 10008, Note_on_c, 0, 62, 26
1, 10040, Control_c, 0, 64, 0
1, 10124, Control_c, 0, 64, 127
1, 10464, Note_off_c, 0, 59, 64
1, 10476, Note_on_c, 0, 53, 25
1, 10504, Note_off_c, 0, 62, 64
1, 10572, Note_off_c, 0, 67, 64
1, 10616, Note_on_c, 0, 51, 43
1, 10620, Note_on_c, 0, 60, 47
1, 10632, Note_off_c, 0, 53, 64
1, 10756, Note_on_c, 0, 50, 35
1, 10764, Note_on_c, 0, 62, 37
1, 10768, Note_on_c, 0, 59, 43
1, 10772, Note_off_c, 0, 51, 64
1, 10776, Note_off_c, 0, 60, 64
1, 10888, Note_on_c, 0, 60, 46
1, 10888, Note_on_c, 0, 63, 41
1, 10892, Note_on_c, 0, 48, 34
1, 10904, Note_off_c, 0, 50, 64
1, 10912, Note_off_c, 0, 62, 64
1, 10916, Note_off_c, 0, 59, 64
1, 11024, Control_c, 0, 64, 0
1, 11040, Note_on_c, 0, 65, 52
1, 11040, Note_on_c, 0, 59, 59
1, 11040, Note_on_c, 0, 50, 48
1, 11048, Note_off_c, 0, 60, 64
1, 11048, Note_off_c, 0, 63, 64
1, 11052, Note_off_c, 0, 48, 64
1, 11120, Control_c, 0, 64, 127
1, 11228, Note_on_c, 0, 43, 54
1, 11240, Note_on_c, 0, 67, 51
1, 11252, Note_off_c, 0, 65, 64
1, 11252, Note_off_c, 0, 59, 64
1, 11252, Note_off_c, 0, 50, 64
1, 11304, Control_c, 0, 64, 0
1, 11316, Note_on_c, 0, 65, 54
1, 11316, Note_on_c, 0, 59, 54
1, 11328, Note_on_c, 0, 50, 52
1, 11332, Note_off_c, 0, 67, 64
1, 11336, Note_off_c, 0, 43, 64
1, 11404, Control_c, 0, 64, 127
1, 11596, Note_on_c, 0, 48, 48
1, 11608, Note_off_c, 0, 50, 64
1, 11608, Note_on_c, 0, 63, 54
1, 11608, Note_on_c, 0, 60, 52
1, 11636, Control_c, 0, 64, 0
1, 11648, Note_off_c, 0, 65, 64
1, 11664, Note_off_c, 0, 59, 64
1, 11708, Control_c, 0, 64, 127
1, 11880, Note_on_c, 0, 50, 51
1, 11888, Note_off_c, 0, 60, 64
1, 11888, Note_on_c, 0, 65, 52
1, 11888, Note_on_c, 0, 59, 51
1, 11896, Note_off_c, 0, 48, 64
1, 11920, Control_c, 0, 64, 0
1, 11928, Note_off_c, 0, 63, 64
1, 11992, Control_c, 0, 64, 127
1, 12076, Note_on_c, 0, 43, 48
1, 12084, Note_on_c, 0, 67, 48
1, 12096, Note_off_c, 0, 50, 64
1, 12096, Note_off_c, 0, 65, 64
1, 12104, Note_off_c, 0, 59, 64
1, 12164, Note_on_c, 0, 65, 48
1, 12164, Note_on_c, 0, 59, 52
1, 12168, Note_off_c, 0, 67, 64
1, 12176, Note_on_c, 0, 50, 54
1, 12180, Tempo, 500000
1, 12180, Control_c, 0, 64, 0
1, 12212, Tempo, 500000
1, 12212, Note_off_c, 0, 43, 64
1, 12252, Control_c, 0, 64, 127
1, 12544, Note_on_c, 0, 63, 35
1, 12544, Note_on_c, 0, 48, 34
1, 12552, Note_on_c, 0, 60, 26
1, 12560, Control_c, 0, 64, 0
1, 12584, Note_off_c, 0, 50, 64
1, 12588, Note_off_c, 0, 65, 64
1, 12616, Note_off_c, 0, 59, 64
1, 12648, Control_c, 0, 64, 127
1, 12720, Note_off_c, 0, 63, 64
1, 12732, Note_off_c, 0, 60, 64
1, 12828, Note_off_c, 0, 48, 64
1, 13024, Note_off_c, 0, 55, 64
1, 13028, Note_on_c, 0, 48, 52
1, 13076, Note_on_c, 0, 50, 57
1, 13100, Note_off_c, 0, 48, 64
1, 13148, Note_on_c, 0, 48, 64
1, 13176, Control_c, 0, 64, 0
1, 13180, Note_off_c, 0, 50, 64
1, 13228, Note_on_c, 0, 47, 57
1, 13244, Note_off_c, 0, 48, 64
1, 13380, Note_on_c, 0, 48, 64
1, 13436, Note_off_c, 0, 47, 64
1, 13532, Note_on_c, 0, 50, 59
1, 13572, Note_off_c, 0, 48, 64
1, 13652, Note_on_c, 0, 51, 48
1, 13692, Note_off_c, 0, 50, 64
1, 13708, Tempo, 500000
1, 13764, Control_c, 0, 64, 127
1, 13812, Note_on_c, 0, 50, 59
1, 13832, Note_off_c, 0, 51, 64
1, 13936, Control_c, 0, 64, 0
1, 13940, Note_on_c, 0, 49, 55
1, 13948, Note_on_c, 0, 52, 66
1, 13972, Note_off_c, 0, 50, 64
1, 14080, Note_on_c, 0, 54, 65
1, 14084, Note_on_c, 0, 48, 69
1, 14100, Note_off_c, 0, 49, 64
1, 14104, Note_off_c, 0, 52, 64
1, 14220, Note_on_c, 0, 55, 69
1, 14228, Note_on_c, 0, 46, 66
1, 14244, Note_off_c, 0, 54, 64
1, 14244, Note_off_c, 0, 48, 64
1, 14372, Note_on_c, 0, 57, 66
1, 14372, Note_on_c, 0, 54, 57
1, 14376, Note_on_c, 0, 45, 63
1, 14388, Note_off_c, 0, 55, 64
1, 14396, Note_off_c, 0, 46, 64
1, 14504, Note_on_c, 0, 58, 74
1, 14504, Note_on_c, 0, 55, 60
1, 14504, Note_on_c, 0, 43, 65
1, 14528, Note_off_c, 0, 57, 64
1, 14528, Note_off_c, 0, 54, 64
1, 14532, Note_off_c, 0, 45, 64
1, 14632, Note_on_c, 0, 45, 72
1, 14636, Note_on_c, 0, 57, 66
1, 14640, Note_on_c, 0, 53, 69
1, 14648, Note_off_c, 0, 58, 64
1, 14648, Note_off_c, 0, 55, 64
1, 14648, Note_off_c, 0, 43, 64
1, 14684, Control_c, 0, 64, 127
1, 14788, Note_off_c, 0, 45, 64
1, 14796, Note_off_c, 0, 57, 64
1, 14796, Note_off_c, 0, 53, 64
1, 14828, Note_on_c, 0, 33, 78
1, 14832, Note_on_c, 0, 61, 74
1, 14840, Note_on_c, 0, 52, 83
1, 14908, Note_on_c, 0, 50, 88
1, 14908, Note_on_c, 0, 38, 88
1, 14908, Note_on_c, 0, 62, 77
1, 14920, Note_off_c, 0, 33, 64
1, 14928, Note_off_c, 0, 61, 64
1, 14928, Control_c, 0, 64, 0
1, 14936, Note_off_c, 0, 52, 64
1, 14948, Control_c, 0, 64, 0
1, 15184, Control_c, 0, 64, 127
1, 15272, Note_off_c, 0, 50, 64
1, 15272, Note_off_c, 0, 38, 64
1, 15272, Note_off_c, 0, 62, 64
1, 15544, Note_on_c, 0, 69, 54
1, 15552, Note_on_c, 0, 65, 52
1, 15556, Note_on_c, 0, 57, 51
1, 15560, Note_on_c, 0, 50, 40
1, 15572, Control_c, 0, 64, 0
1, 15604, Control_c, 0, 64, 127
1, 15748, Note_on_c, 0, 73, 55
1, 15756, Note_off_c, 0, 69, 64
1, 15756, Note_on_c, 0, 64, 63
1, 15764, Note_on_c, 0, 55, 40
1, 15768, Note_off_c, 0, 65, 64
1, 15772, Note_off_c, 0, 57, 64
1, 15844, Note_on_c, 0, 62, 64
1, 15852, Note_on_c, 0, 74, 60
1, 15852, Note_on_c, 0, 53, 54
1, 15868, Note_off_c, 0, 73, 64
1, 15872, Control_c, 0, 64, 0
1, 15876, Note_off_c, 0, 64, 64
1, 15884, Note_off_c, 0, 55, 64
1, 16072, Control_c, 0, 64, 127
1, 16316, Note_off_c, 0, 62, 64
1, 16344, Note_off_c, 0, 53, 64
1, 16428, Note_off_c, 0, 74, 64
1, 16588, Note_on_c, 0, 65, 32
1, 16596, Note_on_c, 0, 69, 40
1, 16600, Note_on_c, 0, 57, 28
1, 16612, Control_c, 0, 64, 0
1, 16664, Control_c, 0, 64, 127
1, 16884, Note_on_c, 0, 64, 47
1, 16884, Note_on_c, 0, 73, 46
1, 16904, Note_off_c, 0, 65, 64
1, 16904, Note_on_c, 0, 55, 28
1, 16916, Note_off_c, 0, 69, 64
1, 16920, Note_off_c, 0, 57, 64
1, 16984, Note_on_c, 0, 74, 41
1, 16992, Note_on_c, 0, 62, 47
1, 16996, Note_off_c, 0, 64, 64
1, 16996, Note_on_c, 0, 53, 28
1, 17000, Note_off_c, 0, 73, 64
1, 17004, Control_c, 0, 64, 0
1, 17020, Note_off_c, 0, 55, 64
1, 17216, Control_c, 0, 64, 127
1, 17660, Note_off_c, 0, 62, 64
1, 17660, Note_off_c, 0, 53, 64
1, 17672, Note_off_c, 0, 74, 64
1, 17684, Note_on_c, 0, 69, 40
1, 17696, Note_on_c, 0, 57, 29
1, 17732, Control_c, 0, 64, 0
1, 17788, Control_c, 0, 64, 127
1, 17852, Note_on_c, 0, 72, 42
1, 17860, Note_off_c, 0, 69, 64
1, 17864, Note_on_c, 0, 60, 36
1, 17892, Note_off_c, 0, 57, 64
1, 17924, Note_off_c, 0, 72, 64
1, 18020, Note_on_c, 0, 72, 51
1, 18080, Note_on_c, 0, 58, 32
1, 18088, Note_on_c, 0, 70, 54
1, 18100, Note_off_c, 0, 72, 64
1, 18104, Note_off_c, 0, 60, 64
1, 18140, Note_on_c, 0, 72, 51
1, 18148, Control_c, 0, 64, 0
1, 18152, Note_off_c, 0, 70, 64
1, 18204, Note_on_c, 0, 70, 51
1, 18224, Control_c, 0, 64, 127
1, 18232, Note_off_c, 0, 72, 64
1, 18340, Note_off_c, 0, 70, 64
1, 18352, Note_on_c, 0, 69, 48
1, 18364, Note_on_c, 0, 57, 40
1, 18372, Note_off_c, 0, 58, 64
1, 18396, Control_c, 0, 64, 0
1, 18444, Control_c, 0, 64, 127
1, 18492, Note_on_c, 0, 67, 48
1, 18500, Note_on_c, 0, 55, 40
1, 18508, Note_off_c, 0, 57, 64
1, 18516, Note_off_c, 0, 69, 64
1, 18612, Control_c, 0, 64, 0
1, 18640, Note_on_c, 0, 69, 42
1, 18644, Note_on_c, 0, 57, 46
1, 18652, Note_off_c, 0, 55, 64
1, 18656, Note_off_c, 0, 67, 64
1, 18740, Control_c, 0, 64, 127
1, 18856, Note_on_c, 0, 64, 41
1, 18880, Note_off_c, 0, 69, 64
1, 18880, Note_on_c, 0, 52, 40
1, 18912, Control_c, 0, 64, 0
1, 18928, Note_on_c, 0, 65, 42
1, 18956, Note_off_c, 0, 64, 64
1, 18956, Note_on_c, 0, 53, 32
1, 18968, Note_off_c, 0, 52, 64
1, 19020, Control_c, 0, 64, 127
1, 19164, Note_off_c, 0, 50, 64
1, 19208, Control_c, 0, 64, 0
1, 19212, Note_on_c, 0, 50, 40
1, 19220, Note_off_c, 0, 65, 64
1, 19224, Note_on_c, 0, 62, 40
1, 19236, Note_off_c, 0, 53, 64
1, 19260, Note_off_c, 0, 57, 64
1, 19292, Control_c, 0, 64, 127
1, 19500, Note_on_c, 0, 69, 42
1, 19512, Note_on_c, 0, 57, 36
1, 19512, Control_c, 0, 64, 0
1, 19524, Note_off_c, 0, 62, 64
1, 19584, Control_c, 0, 64, 127
1, 19644, Note_off_c, 0, 69, 64
1, 19648, Note_on_c, 0, 72, 46
1, 19660, Note_on_c, 0, 60, 40
1, 19680, Note_off_c, 0, 57, 64
1, 19708, Note_off_c, 0, 72, 64
1, 19788, Note_on_c, 0, 72, 51
1, 19828, Note_on_c, 0, 58, 26
1, 19832, Control_c, 0, 64, 0
1, 19844, Note_on_c, 0, 70, 51
1, 19852, Note_off_c, 0, 60, 64
1, 19860, Note_off_c, 0, 72, 64
1, 19908, Note_on_c, 0, 72, 51
1, 19920, Note_off_c, 0, 70, 64
1, 19932, Control_c, 0, 64, 127
1, 19968, Note_on_c, 0, 70, 48
1, 19996, Note_off_c, 0, 72, 64
1, 20076, Note_off_c, 0, 70, 64
1, 20084, Note_on_c, 0, 69, 47
1, 20092, Note_on_c, 0, 57, 40
1, 20100, Note_off_c, 0, 58, 64
1, 20104, Control_c, 0, 64, 0
1, 20208, Control_c, 0, 64, 127
1, 20224, Note_on_c, 0, 67, 42
1, 20236, Note_on_c, 0, 55, 40
1, 20240, Note_off_c, 0, 69, 64
1, 20248, Note_off_c, 0, 57, 64
1, 20348, Control_c, 0, 64, 0
1, 20368, Note_on_c, 0, 69, 43
1, 20372, Note_on_c, 0, 57, 40
1, 20380, Note_off_c, 0, 55, 64
1, 20392, Note_off_c, 0, 67, 64
1, 20444, Control_c, 0, 64, 127
1, 20592, Note_on_c, 0, 64, 43
1, 20608, Note_on_c, 0, 52, 28
1, 20624, Note_off_c, 0, 69, 64
1, 20640, Control_c, 0, 64, 0
1, 20664, Note_on_c, 0, 65, 43
1, 20680, Note_on_c, 0, 53, 26
1, 20696, Note_off_c, 0, 64, 64
1, 20696, Note_off_c, 0, 52, 64
1, 20736, Control_c, 0, 64, 127
1, 20948, Note_off_c, 0, 50, 64
1, 20964, Control_c, 0, 64, 0
1, 20976, Note_on_c, 0, 50, 28
1, 20976, Note_on_c, 0, 62, 37
1, 21000, Note_off_c, 0, 65, 64
1, 21020, Note_off_c, 0, 53, 64
1, 21052, Note_off_c, 0, 57, 64
1, 21072, Control_c, 0, 64, 127
1, 21276, Note_on_c, 0, 69, 35
1, 21292, Note_on_c, 0, 57, 32
1, 21292, Control_c, 0, 64, 0
1, 21304, Note_off_c, 0, 62, 64
1, 21376, Control_c, 0, 64, 127
1, 21528, Note_on_c, 0, 64, 32
1, 21544, Note_on_c, 0, 52, 26
1, 21580, Note_off_c, 0, 69, 64
1, 21604, Control_c, 0, 64, 0
1, 21612, Note_on_c, 0, 65, 41
1, 21636, Note_off_c, 0, 52, 64
1, 21640, Note_on_c, 0, 53, 40
1, 21652, Note_off_c, 0, 64, 64
1, 21700, Control_c, 0, 64, 127
1, 21912, Note_off_c, 0, 50, 64
1, 21952, Note_on_c, 0, 50, 32
1, 21956, Note_on_c, 0, 62, 40
1, 21976, Control_c, 0, 64, 0
1, 21984, Note_off_c, 0, 65, 64
1, 22000, Note_off_c, 0, 53, 64
1, 22060, Note_off_c, 0, 57, 64
1, 22068, Control_c, 0, 64, 127
1, 22304, Note_on_c, 0, 57, 32
1, 22308, Note_on_c, 0, 69, 40
1, 22320, Control_c, 0, 64, 0
1, 22352, Note_off_c, 0, 62, 64
1, 22408, Control_c, 0, 64, 127
1, 22644, Note_on_c, 0, 64, 34
1, 22648, Note_on_c, 0, 52, 36
1, 22708, Note_off_c, 0, 69, 64
1, 22708, Control_c, 0, 64, 0
1, 22748, Note_on_c, 0, 65, 41
1, 22752, Note_on_c, 0, 53, 32
1, 22760, Note_off_c, 0, 64, 64
1, 22764, Note_off_c, 0, 52, 64
1, 22788, Control_c, 0, 64, 127
1, 23104, Note_off_c, 0, 50, 64
1, 23172, Note_on_c, 0, 62, 40
1, 23172, Note_on_c, 0, 50, 28
1, 23184, Note_off_c, 0, 53, 64
1, 23188, Control_c, 0, 64, 0
1, 23236, Note_off_c, 0, 57, 64
1, 23236, Note_off_c, 0, 65, 64
1, 23264, Control_c, 0, 64, 127
1, 23748, Note_off_c, 0, 50, 64
1, 23816, Note_on_c, 0, 67, 41
1, 23816, Note_on_c, 0, 43, 43
1, 23820, Note_on_c, 0, 71, 48
1, 23936, Control_c, 0, 64, 0
1, 24084, Control_c, 0, 64, 127
1, 25172, Note_on_c, 0, 55, 41
1, 25196, Note_off_c, 0, 43, 64
1, 25196, Note_off_c, 0, 67, 64
1, 25204, Note_off_c, 0, 71, 64
1, 25216, Note_off_c, 0, 62, 64
1, 25280, Note_off_c, 0, 55, 64
1, 25396, Note_on_c, 0, 55, 57
1, 25448, Note_off_c, 0, 55, 64
1, 25496, Note_on_c, 0, 55, 65
1, 25568, Note_off_c, 0, 55, 64
1, 25844, Note_on_c, 0, 55, 72
1, 25864, Control_c, 0, 64, 0
1, 25972, Control_c, 0, 64, 127
1, 26324, Note_on_c, 0, 67, 72
1, 26384, Control_c, 0, 64, 0
1, 26452, Control_c, 0, 64, 127
1, 26476, Note_off_c, 0, 55, 64
1, 26892, Note_on_c, 0, 65, 28
1, 27036, Note_on_c, 0, 72, 48
1, 27044, Note_on_c, 0, 63, 40
1, 27060, Note_off_c, 0, 65, 64
1, 27184, Note_on_c, 0, 71, 55
1, 27188, Note_on_c, 0, 74, 43
1, 27192, Note_on_c, 0, 62, 28
1, 27200, Note_off_c, 0, 72, 64
1, 27208, Note_off_c, 0, 63, 64
1, 27320, Note_on_c, 0, 72, 48
1, 27324, Note_on_c, 0, 60, 48
1, 27324, Note_on_c, 0, 75, 48
1, 27340, Note_off_c, 0, 71, 64
1, 27348, Note_off_c, 0, 74, 64
1, 27348, Note_off_c, 0, 62, 64
1, 27452, Control_c, 0, 64, 0
1, 27460, Note_on_c, 0, 62, 60
1, 27468, Note_on_c, 0, 71, 48
1, 27468, Note_on_c, 0, 77, 54
1, 27476, Note_off_c, 0, 72, 64
1, 27480, Note_off_c, 0, 60, 64
1, 27484, Note_off_c, 0, 75, 64
1, 27536, Control_c, 0, 64, 127
1, 27656, Note_off_c, 0, 62, 64
1, 27660, Note_on_c, 0, 55, 54
1, 27668, Note_off_c, 0, 71, 64
1, 27668, Note_off_c, 0, 77, 64
1, 27676, Note_on_c, 0, 79, 43
1, 27732, Note_on_c, 0, 71, 48
1, 27740, Note_on_c, 0, 77, 55
1, 27744, Note_on_c, 0, 62, 34
1, 27752, Control_c, 0, 64, 0
1, 27764, Note_off_c, 0, 79, 64
1, 27784, Note_off_c, 0, 55, 64
1, 27812, Control_c, 0, 64, 127
1, 28020, Note_on_c, 0, 60, 46
1, 28028, Note_on_c, 0, 75, 52
1, 28040, Note_on_c, 0, 72, 54
1, 28044, Note_off_c, 0, 62, 64
1, 28056, Control_c, 0, 64, 0
1, 28068, Note_off_c, 0, 71, 64
1, 28072, Note_off_c, 0, 77, 64
1, 28136, Control_c, 0, 64, 127
1, 28300, Note_off_c, 0, 72, 64
1, 28304, Note_off_c, 0, 75, 64
1, 28308, Note_on_c, 0, 62, 34
1, 28316, Note_on_c, 0, 77, 51
1, 28320, Note_on_c, 0, 71, 51
1, 28324, Note_off_c, 0, 60, 64
1, 28332, Control_c, 0, 64, 0
1, 28388, Control_c, 0, 64, 127
1, 28500, Note_on_c, 0, 55, 40
1, 28508, Note_off_c, 0, 77, 64
1, 28508, Note_off_c, 0, 71, 64
1, 28512, Note_on_c, 0, 79, 43
1, 28520, Note_off_c, 0, 62, 64
1, 28576, Note_on_c, 0, 77, 54
1, 28588, Note_on_c, 0, 71, 52
1, 28592, Control_c, 0, 64, 0
1, 28600, Note_on_c, 0, 62, 48
1, 28604, Note_off_c, 0, 79, 64
1, 28652, Note_off_c, 0, 55, 64
1, 28668, Control_c, 0, 64, 127
1, 28924, Note_on_c, 0, 75, 43
1, 28932, Note_on_c, 0, 60, 37
1, 28932, Note_on_c, 0, 72, 43
1, 28944, Control_c, 0, 64, 0
1, 28952, Note_off_c, 0, 77, 64
1, 28956, Note_off_c, 0, 62, 64
1, 28960, Note_off_c, 0, 71, 64
1, 29040, Control_c, 0, 64, 127
1, 29244, Note_off_c, 0, 60, 64
1, 29252, Note_off_c, 0, 75, 64
1, 29260, Note_off_c, 0, 72, 64
1, 29620, Note_on_c, 0, 59, 54
1, 29676, Note_off_c, 0, 67, 64
1, 29756, Note_on_c, 0, 60, 49
1, 29768, Note_off_c, 0, 59, 64
1, 29900, Note_on_c, 0, 62, 40
1, 29924, Control_c, 0, 64, 0
1, 29932, Note_off_c, 0, 60, 64
1, 30020, Note_on_c, 0, 63, 54
1, 30044, Note_off_c, 0, 62, 64
1, 30200, Note_on_c, 0, 62, 48
1, 30228, Note_off_c, 0, 63, 64
1, 30276, Control_c, 0, 64, 127
1, 30528, Note_on_c, 0, 60, 40
1, 30664, Tempo, 500000
1, 30664, Note_on_c, 0, 67, 47
1, 30664, Note_on_c, 0, 58, 47
1, 30688, Note_off_c, 0, 60, 64
1, 30792, Note_on_c, 0, 66, 51
1, 30792, Note_on_c, 0, 57, 46
1, 30796, Note_on_c, 0, 69, 43
1, 30832, Note_off_c, 0, 58, 64
1, 30832, Note_off_c, 0, 67, 64
1, 30928, Note_on_c, 0, 55, 47
1, 30928, Note_on_c, 0, 70, 59
1, 30928, Note_on_c, 0, 67, 59
1, 30960, Note_off_c, 0, 69, 64
1, 30968, Note_off_c, 0, 66, 64
1, 30968, Note_off_c, 0, 57, 64
1, 31056, Note_on_c, 0, 66, 54
1, 31064, Note_on_c, 0, 72, 54
1, 31064, Note_on_c, 0, 57, 57
1, 31080, Note_off_c, 0, 55, 64
1, 31080, Note_off_c, 0, 70, 64
1, 31080, Note_off_c, 0, 67, 64
1, 31084, Control_c, 0, 64, 0
1, 31148, Control_c, 0, 64, 127
1, 31216, Note_off_c, 0, 57, 64
1, 31252, Note_on_c, 0, 50, 52
1, 31260, Note_off_c, 0, 66, 64
1, 31272, Note_off_c, 0, 72, 64
1, 31272, Note_on_c, 0, 74, 51
1, 31340, Note_on_c, 0, 72, 49
1, 31344, Note_on_c, 0, 66, 55
1, 31352, Note_on_c, 0, 57, 43
1, 31352, Control_c, 0, 64, 0
1, 31364, Note_off_c, 0, 50, 64
1, 31368, Note_off_c, 0, 74, 64
1, 31444, Control_c, 0, 64, 127
1, 31656, Note_on_c, 0, 70, 51
1, 31660, Note_on_c, 0, 67, 46
1, 31664, Control_c, 0, 64, 0
1, 31672, Note_on_c, 0, 55, 40
1, 31676, Note_off_c, 0, 72, 64
1, 31680, Note_off_c, 0, 57, 64
1, 31688, Note_off_c, 0, 66, 64
1, 31760, Control_c, 0, 64, 127
1, 31920, Note_off_c, 0, 70, 64
1, 31944, Control_c, 0, 64, 0
1, 31952, Note_on_c, 0, 57, 37
1, 31956, Note_on_c, 0, 72, 49
1, 31964, Note_off_c, 0, 55, 64
1, 31964, Note_on_c, 0, 66, 46
1, 31976, Note_off_c, 0, 67, 64
1, 32028, Control_c, 0, 64, 127
1, 32148, Note_off_c, 0, 66, 64
1, 32160, Note_on_c, 0, 74, 43
1, 32168, Note_off_c, 0, 72, 64
1, 32168, Note_on_c, 0, 50, 40
1, 32184, Note_off_c, 0, 57, 64
1, 32224, Note_on_c, 0, 72, 51
1, 32224, Control_c, 0, 64, 0
1, 32232, Note_on_c, 0, 66, 49
1, 32244, Note_off_c, 0, 74, 64
1, 32264, Note_on_c, 0, 57, 46
1, 32304, Control_c, 0, 64, 127
1, 32320, Note_off_c, 0, 50, 64
1, 32572, Control_c, 0, 64, 0
1, 32580, Note_off_c, 0, 66, 64
1, 32580, Note_on_c, 0, 70, 48
1, 32592, Note_on_c, 0, 55, 47
1, 32592, Note_on_c, 0, 67, 40
1, 32620, Note_off_c, 0, 72, 64
1, 32632, Note_off_c, 0, 57, 64
1, 32664, Control_c, 0, 64, 127
1, 32964, Note_off_c, 0, 70, 64
1, 32976, Note_off_c, 0, 67, 64
1, 33028, Note_on_c, 0, 63, 42
1, 33028, Note_on_c, 0, 68, 55
1, 33032, Note_on_c, 0, 60, 47
1, 33052, Control_c, 0, 64, 0
1, 33056, Note_off_c, 0, 62, 64
1, 33876, Control_c, 0, 64, 127
1, 33896, Note_on_c, 0, 66, 46
1, 33912, Note_off_c, 0, 68, 64
1, 33984, Note_off_c, 0, 63, 64
1, 34092, Note_off_c, 0, 60, 64
1, 34444, Note_on_c, 0, 67, 34
1, 34456, Note_on_c, 0, 59, 26
1, 34468, Note_on_c, 0, 62, 26
1, 34476, Note_off_c, 0, 66, 64
1, 34504, Control_c, 0, 64, 0
1, 34588, Control_c, 0, 64, 127
1, 34952, Note_off_c, 0, 59, 64
1, 34964, Note_on_c, 0, 53, 40
1, 34988, Note_off_c, 0, 62, 64
1, 35100, Note_on_c, 0, 60, 47
1, 35108, Note_on_c, 0, 51, 40
1, 35120, Note_off_c, 0, 53, 64
1, 35180, Note_off_c, 0, 67, 64
1, 35232, Note_on_c, 0, 50, 25
1, 35236, Note_on_c, 0, 59, 42
1, 35240, Note_on_c, 0, 62, 47
1, 35264, Note_off_c, 0, 60, 64
1, 35272, Note_off_c, 0, 51, 64
1, 35360, Note_on_c, 0, 48, 31
1, 35364, Note_on_c, 0, 60, 37
1, 35368, Note_on_c, 0, 63, 37
1, 35408, Note_off_c, 0, 50, 64
1, 35416, Note_off_c, 0, 59, 64
1, 35420, Note_off_c, 0, 62, 64
1, 35516, Note_on_c, 0, 50, 47
1, 35524, Note_on_c, 0, 65, 48
1, 35524, Note_on_c, 0, 59, 37
1, 35528, Control_c, 0, 64, 0
1, 35544, Note_off_c, 0, 48, 64
1, 35552, Note_off_c, 0, 60, 64
1, 35552, Note_off_c, 0, 63, 64
1, 35616, Control_c, 0, 64, 127
1, 35720, Note_on_c, 0, 43, 48
1, 35728, Note_off_c, 0, 59, 64
1, 35732, Note_on_c, 0, 67, 46
1, 35744, Note_off_c, 0, 50, 64
1, 35748, Note_off_c, 0, 65, 64
1, 35792, Control_c, 0, 64, 0
1, 35808, Note_on_c, 0, 65, 48
1, 35812, Note_on_c, 0, 59, 46
1, 35824, Note_off_c, 0, 67, 64
1, 35828, Note_on_c, 0, 50, 42
1, 35844, Note_off_c, 0, 43, 64
1, 35912, Control_c, 0, 64, 127
1, 36104, Note_on_c, 0, 48, 43
1, 36104, Note_on_c, 0, 63, 48
1, 36116, Note_off_c, 0, 50, 64
1, 36116, Note_on_c, 0, 60, 48
1, 36128, Control_c, 0, 64, 0
1, 36140, Note_off_c, 0, 65, 64
1, 36152, Note_off_c, 0, 59, 64
1, 36200, Control_c, 0, 64, 127
1, 36408, Note_off_c, 0, 60, 64
1, 36408, Note_on_c, 0, 65, 48
1, 36416, Note_on_c, 0, 59, 48
1, 36416, Note_on_c, 0, 50, 48
1, 36424, Note_off_c, 0, 48, 64
1, 36432, Control_c, 0, 64, 0
1, 36444, Note_off_c, 0, 63, 64
1, 36484, Control_c, 0, 64, 127
1, 36604, Note_off_c, 0, 59, 64
1, 36616, Note_off_c, 0, 65, 64
1, 36616, Note_on_c, 0, 67, 42
1, 36624, Note_off_c, 0, 50, 64
1, 36624, Note_on_c, 0, 43, 42
1, 36680, Control_c, 0, 64, 0
1, 36688, Note_on_c, 0, 65, 43
1, 36692, Note_on_c, 0, 59, 48
1, 36700, Note_off_c, 0, 67, 64
1, 36716, Note_on_c, 0, 50, 41
1, 36768, Note_off_c, 0, 43, 64
1, 36780, Control_c, 0, 64, 127
1, 37072, Note_on_c, 0, 63, 34
1, 37080, Control_c, 0, 64, 0
1, 37088, Note_on_c, 0, 48, 37
1, 37096, Note_on_c, 0, 60, 24
1, 37104, Note_off_c, 0, 50, 64
1, 37112, Note_off_c, 0, 65, 64
1, 37168, Note_off_c, 0, 59, 64
1, 37176, Control_c, 0, 64, 127
1, 37228, Note_off_c, 0, 63, 64
1, 37240, Note_off_c, 0, 60, 64
1, 37312, Note_off_c, 0, 48, 64
1, 37484, Note_on_c, 0, 48, 48
1, 37492, Note_off_c, 0, 55, 64
1, 37536, Note_on_c, 0, 50, 58
1, 37552, Note_off_c, 0, 48, 64
1, 37564, Control_c, 0, 64, 0
1, 37592, Note_on_c, 0, 48, 66
1, 37632, Note_off_c, 0, 50, 64
1, 37688, Note_on_c, 0, 47, 63
1, 37704, Note_off_c, 0, 48, 64
1, 37836, Note_on_c, 0, 48, 63
1, 37872, Note_off_c, 0, 47, 64
1, 37988, Note_on_c, 0, 50, 63
1, 38032, Note_off_c, 0, 48, 64
1, 38112, Note_on_c, 0, 51, 54
1, 38164, Note_off_c, 0, 50, 64
1, 38268, Note_on_c, 0, 50, 63
1, 38284, Note_off_c, 0, 51, 64
1, 38300, Control_c, 0, 64, 127
1, 38404, Note_on_c, 0, 49, 63
1, 38408, Note_on_c, 0, 52, 60
1, 38452, Note_off_c, 0, 50, 64
1, 38544, Note_on_c, 0, 54, 69
1, 38552, Note_on_c, 0, 48, 55
1, 38576, Note_off_c, 0, 49, 64
1, 38584, Note_off_c, 0, 52, 64
1, 38676, Note_on_c, 0, 46, 49
1, 38680, Note_on_c, 0, 55, 72
1, 38708, Note_off_c, 0, 54, 64
1, 38716, Note_off_c, 0, 48, 64
1, 38808, Note_on_c, 0, 45, 58
1, 38812, Note_on_c, 0, 57, 59
1, 38812, Note_on_c, 0, 54, 59
1, 38828, Note_off_c, 0, 46, 64
1, 38832, Note_off_c, 0, 55, 64
1, 38872, Control_c, 0, 64, 0
1, 38936, Note_on_c, 0, 55, 78
1, 38944, Note_on_c, 0, 43, 70
1, 38944, Note_on_c, 0, 58, 78
1, 38960, Note_off_c, 0, 45, 64
1, 38964, Note_off_c, 0, 57, 64
1, 38964, Note_off_c, 0, 54, 64
1, 39088, Note_on_c, 0, 57, 64
1, 39092, Note_off_c, 0, 55, 64
1, 39092, Note_on_c, 0, 53, 75
1, 39096, Note_off_c, 0, 43, 64
1, 39096, Note_off_c, 0, 58, 64
1, 39096, Note_on_c, 0, 45, 83
1, 39144, Control_c, 0, 64, 127
1, 39228, Note_off_c, 0, 45, 64
1, 39236, Note_off_c, 0, 53, 64
1, 39256, Note_off_c, 0, 57, 64
1, 39280, Note_on_c, 0, 61, 74
1, 39288, Note_on_c, 0, 52, 82
1, 39288, Note_on_c, 0, 33, 74
1, 39364, Note_on_c, 0, 62, 80
1, 39364, Note_on_c, 0, 38, 88
1, 39372, Note_on_c, 0, 50, 88
1, 39384, Note_off_c, 0, 61, 64
1, 39392, Note_off_c, 0, 52, 64
1, 39404, Note_off_c, 0, 33, 64
1, 39404, Control_c, 0, 64, 0
1, 39620, Control_c, 0, 64, 127
1, 39676, Note_off_c, 0, 62, 64
1, 39696, Note_off_c, 0, 38, 64
1, 39704, Note_off_c, 0, 50, 64
1, 40032, Note_on_c, 0, 69, 57
1, 40044, Note_on_c, 0, 65, 55
1, 40044, Note_on_c, 0, 57, 57
1, 40044, Control_c, 0, 64, 0
1, 40060, Note_on_c, 0, 50, 32
1, 40104, Control_c, 0, 64, 127
1, 40248, Note_on_c, 0, 73, 63
1, 40256, Note_on_c, 0, 64, 65
1, 40264, Note_off_c, 0, 69, 64
1, 40264, Note_on_c, 0, 55, 59
1, 40272, Note_off_c, 0, 65, 64
1, 40272, Note_off_c, 0, 57, 64
1, 40344, Note_on_c, 0, 74, 70
1, 40344, Note_on_c, 0, 53, 57
1, 40352, Note_on_c, 0, 62, 72
1, 40364, Note_off_c, 0, 73, 64
1, 40364, Note_off_c, 0, 64, 64
1, 40376, Note_off_c, 0, 55, 64
1, 40384, Control_c, 0, 64, 0
1, 40588, Control_c, 0, 64, 127
1, 40804, Note_off_c, 0, 74, 64
1, 40804, Note_off_c, 0, 53, 64
1, 40812, Note_off_c, 0, 62, 64
1, 41088, Control_c, 0, 64, 0
1, 41096, Note_on_c, 0, 57, 40
1, 41112, Note_on_c, 0, 69, 43
1, 41112, Note_on_c, 0, 65, 42
1, 41172, Control_c, 0, 64, 127
1, 41400, Note_on_c, 0, 64, 57
1, 41408, Tempo, 500000
1, 41408, Note_on_c, 0, 73, 54
1, 41408, Note_on_c, 0, 55, 35
1, 41432, Note_off_c, 0, 57, 64
1, 41444, Note_off_c, 0, 69, 64
1, 41448, Note_off_c, 0, 65, 64
1, 41512, Note_on_c, 0, 74, 51
1, 41516, Note_on_c, 0, 62, 48
1, 41516, Note_on_c, 0, 53, 48
1, 41528, Note_off_c, 0, 64, 64
1, 41532, Note_off_c, 0, 55, 64
1, 41532, Note_off_c, 0, 73, 64
1, 41544, Control_c, 0, 64, 0
1, 41724, Control_c, 0, 64, 127
1, 42188, Note_off_c, 0, 74, 64
1, 42196, Note_off_c, 0, 62, 64
1, 42196, Note_off_c, 0, 53, 64
1, 42196, Note_on_c, 0, 69, 36
1, 42204, Control_c, 0, 64, 0
1, 42212, Note_on_c, 0, 57, 32
1, 42276, Control_c, 0, 64, 127
1, 42360, Note_off_c, 0, 69, 64
1, 42368, Note_on_c, 0, 72, 40
1, 42368, Note_on_c, 0, 60, 40
1, 42380, Note_off_c, 0, 57, 64
1, 42420, Note_off_c, 0, 72, 64
1, 42524, Note_on_c, 0, 72, 46
1, 42584, Note_on_c, 0, 70, 41
1, 42584, Note_on_c, 0, 58, 32
1, 42604, Note_off_c, 0, 60, 64
1, 42604, Note_off_c, 0, 72, 64
1, 42640, Control_c, 0, 64, 0
1, 42644, Note_on_c, 0, 72, 51
1, 42656, Note_off_c, 0, 70, 64
1, 42704, Note_on_c, 0, 70, 51
1, 42736, Note_off_c, 0, 72, 64
1, 42752, Control_c, 0, 64, 127
1, 42836, Note_on_c, 0, 69, 49
1, 42840, Note_off_c, 0, 70, 64
1, 42856, Note_on_c, 0, 57, 46
1, 42864, Note_off_c, 0, 58, 64
1, 42876, Control_c, 0, 64, 0
1, 42980, Note_on_c, 0, 67, 51
1, 42984, Note_on_c, 0, 55, 40
1, 42992, Note_off_c, 0, 57, 64
1, 42996, Note_off_c, 0, 69, 64
1, 43124, Note_on_c, 0, 69, 43
1, 43128, Note_off_c, 0, 67, 64
1, 43128, Note_on_c, 0, 57, 47
1, 43144, Note_off_c, 0, 55, 64
1, 43352, Note_on_c, 0, 64, 40
1, 43376, Note_on_c, 0, 52, 40
1, 43380, Note_off_c, 0, 69, 64
1, 43428, Note_on_c, 0, 65, 47
1, 43436, Note_on_c, 0, 53, 36
1, 43448, Note_off_c, 0, 52, 64
1, 43452, Note_off_c, 0, 64, 64
1, 43648, Note_off_c, 0, 50, 64
1, 43708, Note_on_c, 0, 50, 41
1, 43720, Note_off_c, 0, 65, 64
1, 43720, Note_on_c, 0, 62, 41
1, 43732, Note_off_c, 0, 53, 64
1, 43744, Note_off_c, 0, 57, 64
1, 43780, Control_c, 0, 64, 127
1, 43980, Note_off_c, 0, 62, 64
1, 43996, Control_c, 0, 64, 0
1, 44004, Note_on_c, 0, 69, 46
1, 44012, Note_on_c, 0, 57, 34
1, 44072, Control_c, 0, 64, 127
1, 44156, Note_off_c, 0, 69, 64
1, 44156, Note_on_c, 0, 72, 46
1, 44168, Note_on_c, 0, 60, 36
1, 44192, Note_off_c, 0, 57, 64
1, 44212, Note_off_c, 0, 72, 64
1, 44296, Note_on_c, 0, 72, 51
1, 44324, Control_c, 0, 64, 0
1, 44332, Note_on_c, 0, 58, 31
1, 44356, Note_on_c, 0, 70, 43
1, 44372, Note_off_c, 0, 72, 64
1, 44384, Note_off_c, 0, 60, 64
1, 44412, Note_on_c, 0, 72, 51
1, 44420, Note_off_c, 0, 70, 64
1, 44476, Note_on_c, 0, 70, 48
1, 44496, Note_off_c, 0, 72, 64
1, 44588, Note_on_c, 0, 69, 48
1, 44596, Note_off_c, 0, 70, 64
1, 44600, Note_on_c, 0, 57, 43
1, 44604, Note_off_c, 0, 58, 64
1, 44728, Note_on_c, 0, 67, 47
1, 44740, Note_on_c, 0, 55, 37
1, 44748, Note_off_c, 0, 69, 64
1, 44756, Note_off_c, 0, 57, 64
1, 44876, Note_on_c, 0, 57, 40
1, 44884, Note_on_c, 0, 69, 42
1, 44888, Note_off_c, 0, 55, 64
1, 44892, Note_off_c, 0, 67, 64
1, 45096, Note_on_c, 0, 64, 42
1, 45120, Note_on_c, 0, 52, 26
1, 45132, Note_off_c, 0, 69, 64
1, 45160, Note_on_c, 0, 65, 43
1, 45188, Note_on_c, 0, 53, 25
1, 45192, Note_off_c, 0, 64, 64
1, 45200, Note_off_c, 0, 52, 64
1, 45444, Note_off_c, 0, 50, 64
1, 45476, Note_on_c, 0, 62, 37
1, 45480, Note_on_c, 0, 50, 37
1, 45488, Note_off_c, 0, 65, 64
1, 45508, Note_off_c, 0, 53, 64
1, 45564, Note_off_c, 0, 57, 64
1, 45636, Control_c, 0, 64, 127
1, 45752, Control_c, 0, 64, 0
1, 45796, Note_on_c, 0, 57, 32
1, 45796, Note_on_c, 0, 69, 36
1, 45816, Note_off_c, 0, 62, 64
1, 45860, Control_c, 0, 64, 127
1, 46052, Note_on_c, 0, 64, 35
1, 46060, Note_on_c, 0, 52, 25
1, 46104, Control_c, 0, 64, 0
1, 46112, Note_off_c, 0, 69, 64
1, 46132, Note_on_c, 0, 53, 36
1, 46140, Note_on_c, 0, 65, 32
1, 46164, Note_off_c, 0, 64, 64
1, 46172, Note_off_c, 0, 52, 64
1, 46188, Control_c, 0, 64, 127
1, 46440, Note_off_c, 0, 50, 64
1, 46444, Control_c, 0, 64, 0
1, 46480, Note_on_c, 0, 62, 32
1, 46484, Note_on_c, 0, 50, 26
1, 46496, Note_off_c, 0, 53, 64
1, 46496, Note_off_c, 0, 65, 64
1, 46540, Control_c, 0, 64, 127
1, 46584, Note_off_c, 0, 57, 64
1, 46836, Note_on_c, 0, 57, 26
1, 46852, Control_c, 0, 64, 0
1, 46856, Note_on_c, 0, 69, 32
1, 46880, Note_off_c, 0, 62, 64
1, 46964, Control_c, 0, 64, 127
1, 47156, Note_on_c, 0, 52, 19
1, 47156, Note_on_c, 0, 64, 26
1, 47200, Control_c, 0, 64, 0
1, 47252, Note_off_c, 0, 69, 64
1, 47268, Note_on_c, 0, 65, 29
1, 47268, Note_on_c, 0, 53, 31
1, 47284, Note_off_c, 0, 52, 64
1, 47288, Note_off_c, 0, 64, 64
1, 47312, Control_c, 0, 64, 127
1, 47624, Note_off_c, 0, 50, 64
1, 47688, Control_c, 0, 64, 0
1, 47696, Note_on_c, 0, 62, 31
1, 47700, Note_on_c, 0, 50, 32
1, 47724, Note_off_c, 0, 65, 64
1, 47728, Note_off_c, 0, 53, 64
1, 47788, Control_c, 0, 64, 127
1, 48040, Note_off_c, 0, 62, 64
1, 48060, Note_off_c, 0, 57, 64
1, 48332, Note_on_c, 0, 74, 32
1, 48340, Note_on_c, 0, 62, 23
1, 48392, Note_off_c, 0, 50, 64
1, 48400, Control_c, 0, 64, 0
1, 48516, Control_c, 0, 64, 127
1, 49072, Note_off_c, 0, 74, 64
1, 49104, Note_off_c, 0, 62, 64
1, 49420, Note_on_c, 0, 62, 40
1, 49444, Control_c, 0, 64, 0
1, 49496, Control_c, 0, 64, 127
1, 49564, Note_off_c, 0, 62, 64
1, 49648, Note_on_c, 0, 62, 59
1, 49700, Note_off_c, 0, 62, 64
1, 49740, Note_on_c, 0, 62, 64
1, 49760, Control_c, 0, 64, 0
1, 49816, Control_c, 0, 64, 127
1, 50028, Note_off_c, 0, 62, 64
1, 50100, Note_on_c, 0, 62, 63
1, 50132, Control_c, 0, 64, 0
1, 50196, Control_c, 0, 64, 127
1, 50408, Note_off_c, 0, 62, 64
1, 50496, Note_on_c, 0, 62, 71
1, 50520, Control_c, 0, 64, 0
1, 50592, Control_c, 0, 64, 127
1, 50868, Control_c, 0, 64, 0
1, 50884, Note_on_c, 0, 56, 40
1, 50892, Note_on_c, 0, 46, 48
1, 50948, Control_c, 0, 64, 127
1, 51256, Note_on_c, 0, 63, 64
1, 51256, Note_on_c, 0, 55, 58
1, 51268, Note_off_c, 0, 56, 64
1, 51272, Note_on_c, 0, 39, 57
1, 51284, Control_c, 0, 64, 0
1, 51316, Note_off_c, 0, 62, 64
1, 51332, Note_off_c, 0, 46, 64
1, 51348, Control_c, 0, 64, 127
1, 51628, Note_on_c, 0, 67, 63
1, 51640, Note_on_c, 0, 61, 60
1, 51644, Note_on_c, 0, 51, 70
1, 51664, Note_off_c, 0, 63, 64
1, 51664, Note_off_c, 0, 55, 64
1, 51668, Control_c, 0, 64, 0
1, 51720, Control_c, 0, 64, 127
1, 51728, Note_off_c, 0, 39, 64
1, 51896, Note_on_c, 0, 56, 77
1, 51900, Note_on_c, 0, 65, 60
1, 51932, Note_off_c, 0, 67, 64
1, 51948, Note_off_c, 0, 51, 64
1, 51988, Note_off_c, 0, 61, 64
1, 51996, Note_on_c, 0, 63, 63
1, 52004, Note_on_c, 0, 61, 59
1, 52012, Note_off_c, 0, 65, 64
1, 52012, Note_on_c, 0, 51, 46
1, 52012, Note_on_c, 0, 55, 57
1, 52032, Note_off_c, 0, 56, 64
1, 52040, Control_c, 0, 64, 0
1, 52188, Control_c, 0, 64, 127
1, 52280, Note_off_c, 0, 55, 64
1, 52296, Note_off_c, 0, 61, 64
1, 52304, Note_off_c, 0, 63, 64
1, 52360, Note_off_c, 0, 51, 64
1, 52528, Note_on_c, 0, 61, 52
1, 52532, Note_on_c, 0, 56, 52
1, 52532, Note_on_c, 0, 51, 52
1, 52536, Note_on_c, 0, 65, 57
1, 52548, Note_on_c, 0, 61, 52
1, 52600, Note_off_c, 0, 61, 64
1, 52620, Note_off_c, 0, 61, 64
1, 52652, Note_off_c, 0, 51, 64
1, 52680, Note_on_c, 0, 67, 66
1, 52680, Note_on_c, 0, 61, 64
1, 52684, Note_on_c, 0, 58, 74
1, 52692, Note_on_c, 0, 51, 60
1, 52696, Control_c, 0, 64, 0
1, 52700, Note_off_c, 0, 56, 64
1, 52704, Note_off_c, 0, 65, 64
1, 52748, Control_c, 0, 64, 127
1, 52756, Note_off_c, 0, 67, 64
1, 52756, Note_off_c, 0, 61, 64
1, 52768, Note_off_c, 0, 51, 64
1, 52780, Note_off_c, 0, 58, 64
1, 52896, Note_on_c, 0, 51, 52
1, 52904, Note_on_c, 0, 60, 64
1, 52904, Note_on_c, 0, 68, 69
1, 52904, Note_on_c, 0, 63, 64
1, 52972, Note_off_c, 0, 51, 64
1, 53000, Note_on_c, 0, 65, 60
1, 53000, Note_on_c, 0, 61, 74
1, 53000, Note_on_c, 0, 51, 64
1, 53004, Note_off_c, 0, 63, 64
1, 53004, Note_on_c, 0, 70, 54
1, 53008, Note_off_c, 0, 68, 64
1, 53012, Note_off_c, 0, 60, 64
1, 53024, Control_c, 0, 64, 0
1, 53076, Control_c, 0, 64, 127
1, 53264, Note_off_c, 0, 51, 64
1, 53320, Note_on_c, 0, 72, 70
1, 53336, Note_on_c, 0, 51, 57
1, 53340, Note_on_c, 0, 67, 66
1, 53340, Note_on_c, 0, 63, 72
1, 53356, Control_c, 0, 64, 0
1, 53360, Note_off_c, 0, 65, 64
1, 53360, Note_off_c, 0, 61, 64
1, 53364, Note_off_c, 0, 70, 64
1, 53376, Control_c, 0, 64, 127
1, 53600, Note_off_c, 0, 51, 64
1, 53640, Note_on_c, 0, 68, 59
1, 53644, Note_on_c, 0, 65, 65
1, 53648, Note_on_c, 0, 73, 71
1, 53660, Note_on_c, 0, 51, 58
1, 53660, Control_c, 0, 64, 0
1, 53668, Note_off_c, 0, 63, 64
1, 53680, Control_c, 0, 64, 127
1, 53684, Note_off_c, 0, 72, 64
1, 53684, Note_off_c, 0, 67, 64
1, 53724, Note_off_c, 0, 65, 64
1, 53728, Note_off_c, 0, 68, 64
1, 53748, Note_off_c, 0, 51, 64
1, 53752, Note_off_c, 0, 73, 64
1, 53856, Note_on_c, 0, 67, 65
1, 53872, Note_on_c, 0, 77, 64
1, 53880, Note_on_c, 0, 61, 77
1, 53880, Note_on_c, 0, 51, 57
1, 53948, Note_off_c, 0, 51, 64
1, 53952, Note_off_c, 0, 61, 64
1, 53956, Note_off_c, 0, 67, 64
1, 53968, Note_on_c, 0, 75, 77
1, 53968, Note_on_c, 0, 56, 69
1, 53972, Note_on_c, 0, 67, 66
1, 53972, Note_on_c, 0, 61, 51
1, 53976, Note_off_c, 0, 77, 64
1, 53992, Control_c, 0, 64, 0
1, 54116, Control_c, 0, 64, 127
1, 54228, Note_off_c, 0, 61, 64
1, 54420, Note_on_c, 0, 60, 57
1, 54428, Note_on_c, 0, 68, 64
1, 54452, Control_c, 0, 64, 0
1, 54468, Note_off_c, 0, 75, 64
1, 54472, Note_off_c, 0, 67, 64
1, 54556, Control_c, 0, 64, 127
1, 54592, Note_off_c, 0, 68, 64
1, 54740, Note_off_c, 0, 60, 64
1, 54780, Note_off_c, 0, 56, 64
1, 54912, Note_on_c, 0, 65, 75
1, 54956, Control_c, 0, 64, 0
1, 55040, Control_c, 0, 64, 127
1, 55332, Note_on_c, 0, 63, 66
1, 55344, Note_on_c, 0, 57, 63
1, 55356, Note_on_c, 0, 53, 52
1, 55364, Control_c, 0, 64, 0
1, 55432, Control_c, 0, 64, 127
1, 55652, Note_off_c, 0, 63, 64
1, 55660, Note_on_c, 0, 67, 66
1, 55672, Note_on_c, 0, 58, 85
1, 55676, Note_off_c, 0, 65, 64
1, 55680, Note_on_c, 0, 63, 82
1, 55684, Control_c, 0, 64, 0
1, 55696, Note_on_c, 0, 41, 42
1, 55708, Note_off_c, 0, 57, 64
1, 55724, Control_c, 0, 64, 127
1, 55840, Note_off_c, 0, 53, 64
1, 55972, Note_off_c, 0, 63, 64
1, 55980, Note_off_c, 0, 58, 64
1, 56000, Control_c, 0, 64, 0
1, 56004, Note_on_c, 0, 29, 66
1, 56012, Note_on_c, 0, 69, 72
1, 56016, Note_on_c, 0, 63, 66
1, 56016, Note_on_c, 0, 60, 70
1, 56044, Note_off_c, 0, 67, 64
1, 56052, Note_off_c, 0, 41, 64
1, 56064, Control_c, 0, 64, 127
1, 56132, Note_off_c, 0, 60, 64
1, 56148, Note_off_c, 0, 63, 64
1, 56156, Note_off_c, 0, 69, 64
1, 56264, Note_on_c, 0, 63, 59
1, 56264, Note_on_c, 0, 67, 57
1, 56268, Note_on_c, 0, 60, 58
1, 56268, Note_on_c, 0, 58, 55
1, 56268, Note_on_c, 0, 53, 52
1, 56324, Note_off_c, 0, 63, 64
1, 56328, Note_off_c, 0, 53, 64
1, 56332, Note_off_c, 0, 60, 64
1, 56348, Note_on_c, 0, 65, 72
1, 56352, Control_c, 0, 64, 0
1, 56356, Note_on_c, 0, 63, 70
1, 56360, Note_on_c, 0, 57, 66
1, 56364, Note_on_c, 0, 60, 70
1, 56364, Note_on_c, 0, 53, 66
1, 56372, Note_off_c, 0, 67, 64
1, 56376, Note_off_c, 0, 58, 64
1, 56384, Control_c, 0, 64, 0
1, 56452, Note_off_c, 0, 29, 64
1, 56504, Control_c, 0, 64, 127
1, 56572, Note_off_c, 0, 60, 64
1, 56596, Note_off_c, 0, 63, 64
1, 56608, Note_off_c, 0, 65, 64
1, 56620, Note_off_c, 0, 57, 64
1, 56628, Note_off_c, 0, 53, 64
1, 56828, Note_on_c, 0, 67, 60
1, 56828, Note_on_c, 0, 63, 64
1, 56828, Note_on_c, 0, 60, 59
1, 56828, Note_on_c, 0, 58, 59
1, 56828, Note_on_c, 0, 53, 48
1, 56948, Note_off_c, 0, 53, 64
1, 56964, Note_off_c, 0, 60, 64
1, 56968, Note_off_c, 0, 63, 64
1, 56968, Control_c, 0, 64, 0
1, 56980, Note_on_c, 0, 65, 65
1, 56980, Note_on_c, 0, 63, 65
1, 56984, Note_on_c, 0, 69, 72
1, 56984, Note_on_c, 0, 53, 60
1, 56992, Note_off_c, 0, 58, 64
1, 56992, Note_off_c, 0, 67, 64
1, 56992, Note_on_c, 0, 60, 63
1, 56996, Control_c, 0, 64, 0
1, 57032, Control_c, 0, 64, 127
1, 57048, Note_off_c, 0, 65, 64
1, 57048, Note_off_c, 0, 63, 64
1, 57060, Note_off_c, 0, 69, 64
1, 57064, Note_off_c, 0, 53, 64
1, 57092, Note_off_c, 0, 60, 64
1, 57196, Note_on_c, 0, 53, 65
1, 57196, Note_on_c, 0, 70, 66
1, 57196, Note_on_c, 0, 65, 64
1, 57208, Note_on_c, 0, 62, 60
1, 57260, Note_off_c, 0, 53, 64
1, 57276, Note_off_c, 0, 70, 64
1, 57276, Control_c, 0, 64, 0
1, 57292, Note_on_c, 0, 67, 71
1, 57292, Note_on_c, 0, 72, 70
1, 57292, Note_on_c, 0, 70, 74
1, 57292, Note_on_c, 0, 63, 72
1, 57292, Note_on_c, 0, 53, 72
1, 57304, Note_off_c, 0, 65, 64
1, 57312, Control_c, 0, 64, 127
1, 57316, Note_off_c, 0, 62, 64
1, 57364, Control_c, 0, 64, 127
1, 57604, Note_on_c, 0, 69, 70
1, 57604, Note_on_c, 0, 74, 72
1, 57612, Note_off_c, 0, 53, 64
1, 57612, Control_c, 0, 64, 0
1, 57620, Note_on_c, 0, 53, 58
1, 57624, Note_on_c, 0, 65, 59
1, 57640, Note_off_c, 0, 67, 64
1, 57644, Note_off_c, 0, 72, 64
1, 57644, Note_off_c, 0, 70, 64
1, 57644, Note_off_c, 0, 63, 64
1, 57660, Control_c, 0, 64, 127
1, 57904, Note_off_c, 0, 53, 64
1, 57908, Note_on_c, 0, 70, 66
1, 57908, Note_on_c, 0, 67, 52
1, 57912, Note_on_c, 0, 75, 66
1, 57916, Control_c, 0, 64, 0
1, 57928, Note_on_c, 0, 53, 52
1, 57940, Note_off_c, 0, 69, 64
1, 57940, Note_off_c, 0, 74, 64
1, 57948, Control_c, 0, 64, 127
1, 57960, Note_off_c, 0, 65, 64
1, 57992, Note_off_c, 0, 67, 64
1, 57996, Note_off_c, 0, 70, 64
1, 58016, Note_off_c, 0, 75, 64
1, 58020, Note_off_c, 0, 53, 64
1, 58116, Note_on_c, 0, 53, 66
1, 58124, Note_on_c, 0, 69, 72
1, 58128, Note_on_c, 0, 63, 64
1, 58132, Note_on_c, 0, 79, 63
1, 58136, Control_c, 0, 64, 0
1, 58196, Note_off_c, 0, 63, 64
1, 58200, Note_off_c, 0, 69, 64
1, 58224, Note_on_c, 0, 58, 77
1, 58232, Note_off_c, 0, 53, 64
1, 58236, Note_on_c, 0, 63, 60
1, 58236, Note_on_c, 0, 69, 72
1, 58236, Note_on_c, 0, 77, 72
1, 58248, Note_off_c, 0, 79, 64
1, 58276, Control_c, 0, 64, 0
1, 58380, Control_c, 0, 64, 127
1, 58696, Note_on_c, 0, 70, 63
1, 58700, Note_on_c, 0, 62, 52
1, 58712, Control_c, 0, 64, 0
1, 58724, Note_off_c, 0, 69, 64
1, 58732, Note_off_c, 0, 63, 64
1, 58736, Note_off_c, 0, 77, 64
1, 58804, Control_c, 0, 64, 127
1, 58964, Note_off_c, 0, 62, 64
1, 59036, Note_off_c, 0, 58, 64
1, 59060, Note_off_c, 0, 70, 64
1, 59180, Note_on_c, 0, 70, 72
1, 59192, Note_on_c, 0, 54, 54
1, 59204, Note_on_c, 0, 61, 31
1, 59208, Note_on_c, 0, 64, 32
1, 59220, Control_c, 0, 64, 0
1, 59292, Control_c, 0, 64, 127
1, 59336, Note_off_c, 0, 64, 64
1, 59348, Note_off_c, 0, 61, 64
1, 59364, Note_off_c, 0, 54, 64
1, 59652, Note_on_c, 0, 42, 57
1, 59688, Control_c, 0, 64, 0
1, 59772, Control_c, 0, 64, 127
1, 59808, Note_on_c, 0, 71, 48
1, 59820, Note_off_c, 0, 70, 64
1, 59980, Note_on_c, 0, 73, 48
1, 60000, Note_off_c, 0, 71, 64
1, 60124, Note_on_c, 0, 75, 57
1, 60140, Note_off_c, 0, 73, 64
1, 60244, Note_off_c, 0, 42, 64
1, 60292, Note_on_c, 0, 76, 64
1, 60304, Note_off_c, 0, 75, 64
1, 60436, Note_on_c, 0, 80, 72
1, 60452, Note_off_c, 0, 76, 64
1, 60596, Note_on_c, 0, 54, 59
1, 60596, Note_on_c, 0, 78, 63
1, 60628, Note_off_c, 0, 80, 64
1, 60652, Control_c, 0, 64, 0
1, 60752, Control_c, 0, 64, 127
1, 60968, Note_on_c, 0, 70, 70
1, 60976, Note_on_c, 0, 61, 63
1, 60996, Control_c, 0, 64, 0
1, 61008, Note_off_c, 0, 78, 64
1, 61036, Control_c, 0, 64, 127
1, 61292, Note_on_c, 0, 64, 42
1, 61296, Note_on_c, 0, 73, 71
1, 61340, Note_off_c, 0, 70, 64
1, 61348, Note_off_c, 0, 61, 64
1, 61420, Note_off_c, 0, 64, 64
1, 61420, Note_off_c, 0, 73, 64
1, 61420, Note_on_c, 0, 68, 64
1, 61428, Note_on_c, 0, 76, 70
1, 61564, Note_on_c, 0, 75, 66
1, 61576, Note_on_c, 0, 66, 63
1, 61608, Note_off_c, 0, 68, 64
1, 61616, Note_off_c, 0, 76, 64
1, 61844, Control_c, 0, 64, 0
1, 61864, Note_on_c, 0, 68, 71
1, 61864, Note_on_c, 0, 59, 63
1, 61880, Note_off_c, 0, 75, 64
1, 61892, Note_off_c, 0, 66, 64
1, 61924, Control_c, 0, 64, 127
1, 62176, Note_on_c, 0, 65, 48
1, 62180, Note_on_c, 0, 62, 51
1, 62188, Note_on_c, 0, 71, 66
1, 62212, Note_off_c, 0, 68, 64
1, 62212, Note_off_c, 0, 59, 64
1, 62264, Note_on_c, 0, 73, 63
1, 62284, Note_off_c, 0, 71, 64
1, 62364, Note_on_c, 0, 71, 58
1, 62380, Note_off_c, 0, 73, 64
1, 62496, Note_off_c, 0, 71, 64
1, 62496, Note_on_c, 0, 70, 66
1, 62504, Note_on_c, 0, 66, 48
1, 62508, Note_on_c, 0, 61, 31
1, 62520, Control_c, 0, 64, 0
1, 62532, Note_off_c, 0, 65, 64
1, 62536, Note_off_c, 0, 62, 64
1, 62592, Control_c, 0, 64, 127
1, 62740, Note_off_c, 0, 54, 64
1, 62828, Control_c, 0, 64, 0
1, 62844, Note_on_c, 0, 54, 42
1, 62872, Control_c, 0, 64, 127
1, 62900, Note_off_c, 0, 66, 64
1, 62908, Note_off_c, 0, 61, 64
1, 62956, Note_on_c, 0, 68, 59
1, 62980, Note_off_c, 0, 70, 64
1, 63116, Note_on_c, 0, 66, 63
1, 63116, Note_on_c, 0, 64, 47
1, 63116, Note_on_c, 0, 58, 47
1, 63128, Control_c, 0, 64, 0
1, 63152, Note_off_c, 0, 68, 64
1, 63196, Control_c, 0, 64, 127
1, 63220, Note_off_c, 0, 54, 64
1, 63280, Note_on_c, 0, 68, 63
1, 63320, Note_off_c, 0, 66, 64
1, 63384, Note_off_c, 0, 64, 64
1, 63384, Note_off_c, 0, 58, 64
1, 63420, Note_on_c, 0, 42, 48
1, 63428, Note_on_c, 0, 70, 48
1, 63436, Control_c, 0, 64, 0
1, 63448, Note_off_c, 0, 68, 64
1, 63508, Control_c, 0, 64, 127
1, 63556, Note_on_c, 0, 71, 66
1, 63568, Note_off_c, 0, 70, 64
1, 63680, Note_on_c, 0, 73, 64
1, 63700, Control_c, 0, 64, 0
1, 63728, Note_off_c, 0, 42, 64
1, 63752, Note_off_c, 0, 71, 64
1, 63752, Control_c, 0, 64, 127
1, 63820, Note_on_c, 0, 75, 63
1, 63852, Note_off_c, 0, 73, 64
1, 63968, Note_on_c, 0, 76, 64
1, 63992, Note_off_c, 0, 75, 64
1, 64104, Note_on_c, 0, 80, 64
1, 64132, Note_off_c, 0, 76, 64
1, 64236, Note_on_c, 0, 54, 52
1, 64236, Note_on_c, 0, 78, 64
1, 64260, Note_off_c, 0, 80, 64
1, 64260, Control_c, 0, 64, 0
1, 64360, Tempo, 500000
1, 64360, Control_c, 0, 64, 127
1, 64536, Note_on_c, 0, 61, 41
1, 64536, Note_on_c, 0, 70, 63
1, 64608, Note_off_c, 0, 78, 64
1, 64812, Note_on_c, 0, 64, 52
1, 64820, Note_on_c, 0, 73, 55
1, 64828, Note_off_c, 0, 61, 64
1, 64828, Note_off_c, 0, 70, 64
1, 64952, Note_on_c, 0, 76, 51
1, 64956, Note_on_c, 0, 68, 54
1, 64988, Note_off_c, 0, 64, 64
1, 64996, Note_off_c, 0, 73, 64
1, 65080, Note_on_c, 0, 75, 55
1, 65088, Note_on_c, 0, 66, 52
1, 65100, Control_c, 0, 64, 0
1, 65108, Note_off_c, 0, 76, 64
1, 65116, Note_off_c, 0, 68, 64
1, 65152, Control_c, 0, 64, 127
1, 65380, Note_on_c, 0, 59, 25
1, 65380, Note_on_c, 0, 68, 54
1, 65424, Note_off_c, 0, 75, 64
1, 65432, Note_off_c, 0, 66, 64
1, 65556, Note_off_c, 0, 59, 64
1, 65556, Note_off_c, 0, 68, 64
1, 65608, Note_on_c, 0, 71, 55
1, 65648, Note_off_c, 0, 71, 64
1, 65680, Note_on_c, 0, 65, 43
1, 65684, Note_on_c, 0, 62, 48
1, 65688, Note_on_c, 0, 71, 64
1, 65724, Control_c, 0, 64, 0
1, 65788, Control_c, 0, 64, 127
1, 65804, Note_on_c, 0, 73, 43
1, 65828, Note_off_c, 0, 71, 64
1, 65892, Note_on_c, 0, 71, 48
1, 65904, Note_off_c, 0, 73, 64
1, 66000, Note_on_c, 0, 70, 63
1, 66008, Note_on_c, 0, 66, 55
1, 66016, Note_on_c, 0, 61, 48
1, 66024, Note_off_c, 0, 65, 64
1, 66024, Note_off_c, 0, 71, 64
1, 66032, Note_off_c, 0, 62, 64
1, 66040, Control_c, 0, 64, 0
1, 66104, Control_c, 0, 64, 127
1, 66272, Note_off_c, 0, 54, 64
1, 66336, Note_on_c, 0, 54, 58
1, 66452, Note_on_c, 0, 68, 63
1, 66460, Note_off_c, 0, 66, 64
1, 66460, Note_off_c, 0, 70, 64
1, 66468, Note_off_c, 0, 61, 64
1, 66624, Note_on_c, 0, 64, 59
1, 66628, Note_on_c, 0, 58, 51
1, 66628, Note_on_c, 0, 66, 74
1, 66632, Control_c, 0, 64, 0
1, 66648, Note_off_c, 0, 68, 64
1, 66680, Control_c, 0, 64, 127
1, 66784, Note_off_c, 0, 54, 64
1, 66784, Note_off_c, 0, 58, 64
1, 66812, Note_off_c, 0, 64, 64
1, 66836, Note_off_c, 0, 66, 64
1, 66872, Note_on_c, 0, 68, 52
1, 66932, Note_on_c, 0, 70, 64
1, 66936, Note_on_c, 0, 42, 63
1, 66936, Control_c, 0, 64, 0
1, 66968, Note_off_c, 0, 68, 64
1, 66992, Control_c, 0, 64, 127
1, 67056, Note_off_c, 0, 42, 64
1, 67076, Note_on_c, 0, 71, 71
1, 67092, Note_off_c, 0, 70, 64
1, 67224, Note_on_c, 0, 73, 72
1, 67280, Note_off_c, 0, 71, 64
1, 67348, Note_on_c, 0, 75, 72
1, 67388, Note_off_c, 0, 73, 64
1, 67488, Note_on_c, 0, 76, 66
1, 67520, Note_off_c, 0, 75, 64
1, 67612, Note_on_c, 0, 78, 72
1, 67668, Note_off_c, 0, 76, 64
1, 67744, Note_on_c, 0, 80, 70
1, 67776, Note_off_c, 0, 78, 64
1, 68000, Control_c, 0, 64, 0
1, 68048, Note_on_c, 0, 61, 55
1, 68048, Note_on_c, 0, 54, 57
1, 68056, Note_on_c, 0, 70, 66
1, 68060, Note_on_c, 0, 64, 59
1, 68088, Control_c, 0, 64, 127
1, 68108, Note_off_c, 0, 80, 64
1, 68108, Note_off_c, 0, 64, 64
1, 68112, Note_off_c, 0, 61, 64
1, 68116, Note_off_c, 0, 54, 64
1, 68376, Control_c, 0, 64, 0
1, 68392, Note_on_c, 0, 69, 65
1, 68392, Note_on_c, 0, 65, 55
1, 68404, Note_off_c, 0, 70, 64
1, 68404, Note_on_c, 0, 62, 52
1, 68408, Note_on_c, 0, 53, 57
1, 68464, Control_c, 0, 64, 127
1, 68476, Note_off_c, 0, 65, 64
1, 68476, Note_off_c, 0, 62, 64
1, 68500, Note_off_c, 0, 53, 64
1, 68560, Note_off_c, 0, 69, 64
1, 68608, Note_on_c, 0, 70, 66
1, 68672, Control_c, 0, 64, 0
1, 68704, Note_on_c, 0, 72, 64
1, 68712, Note_on_c, 0, 41, 64
1, 68728, Note_off_c, 0, 70, 64
1, 68768, Control_c, 0, 64, 127
1, 68828, Note_off_c, 0, 41, 64
1, 68848, Note_on_c, 0, 74, 66
1, 68884, Note_off_c, 0, 72, 64
1, 68944, Control_c, 0, 64, 0
1, 68980, Note_on_c, 0, 75, 65
1, 69004, Control_c, 0, 64, 127
1, 69028, Note_off_c, 0, 74, 64
1, 69104, Note_on_c, 0, 77, 72
1, 69128, Note_off_c, 0, 75, 64
1, 69200, Control_c, 0, 64, 0
1, 69232, Control_c, 0, 64, 127
1, 69244, Note_on_c, 0, 79, 72
1, 69264, Note_off_c, 0, 77, 64
1, 69380, Note_on_c, 0, 81, 63
1, 69392, Control_c, 0, 64, 0
1, 69400, Note_off_c, 0, 79, 64
1, 69496, Control_c, 0, 64, 127
1, 69504, Note_on_c, 0, 82, 83
1, 69520, Note_off_c, 0, 81, 64
1, 69808, Note_on_c, 0, 67, 72
1, 69808, Control_c, 0, 64, 0
1, 69824, Note_on_c, 0, 52, 48
1, 69832, Note_on_c, 0, 60, 41
1, 69832, Note_on_c, 0, 58, 41
1, 69864, Note_off_c, 0, 82, 64
1, 69864, Control_c, 0, 64, 127
1, 70096, Note_on_c, 0, 53, 48
1, 70112, Note_off_c, 0, 52, 64
1, 70120, Note_on_c, 0, 65, 70
1, 70128, Control_c, 0, 64, 0
1, 70160, Note_off_c, 0, 67, 64
1, 70216, Control_c, 0, 64, 127
1, 70264, Note_on_c, 0, 79, 57
1, 70412, Note_on_c, 0, 77, 69
1, 70424, Note_off_c, 0, 79, 64
1, 70424, Note_on_c, 0, 57, 57
1, 70424, Control_c, 0, 64, 0
1, 70440, Note_off_c, 0, 60, 64
1, 70440, Note_off_c, 0, 58, 64
1, 70448, Note_off_c, 0, 65, 64
1, 70516, Control_c, 0, 64, 127
1, 70728, Note_on_c, 0, 63, 42
1, 70884, Note_off_c, 0, 53, 64
1, 70888, Note_off_c, 0, 57, 64
1, 70896, Note_on_c, 0, 76, 60
1, 70912, Note_off_c, 0, 77, 64
1, 70992, Note_off_c, 0, 63, 64
1, 71036, Note_on_c, 0, 75, 52
1, 71048, Note_on_c, 0, 46, 42
1, 71060, Note_off_c, 0, 76, 64
1, 71128, Control_c, 0, 64, 0
1, 71196, Control_c, 0, 64, 127
1, 71204, Note_on_c, 0, 74, 63
1, 71240, Note_off_c, 0, 75, 64
1, 71352, Note_on_c, 0, 72, 70
1, 71372, Note_on_c, 0, 62, 40
1, 71380, Note_on_c, 0, 58, 40
1, 71404, Note_off_c, 0, 74, 64
1, 71404, Note_on_c, 0, 53, 32
1, 71424, Note_off_c, 0, 46, 64
1, 71476, Note_on_c, 0, 70, 77
1, 71524, Note_off_c, 0, 72, 64
1, 71528, Note_off_c, 0, 62, 64
1, 71536, Note_off_c, 0, 58, 64
1, 71552, Note_off_c, 0, 53, 64
1, 71640, Note_on_c, 0, 69, 59
1, 71668, Note_off_c, 0, 70, 64
1, 71780, Note_on_c, 0, 67, 48
1, 71796, Note_off_c, 0, 69, 64
1, 71912, Note_on_c, 0, 41, 46
1, 71936, Note_on_c, 0, 65, 55
1, 71944, Control_c, 0, 64, 0
1, 71968, Note_off_c, 0, 67, 64
1, 72012, Control_c, 0, 64, 127
1, 72084, Note_on_c, 0, 75, 54
1, 72132, Note_off_c, 0, 65, 64
1, 72256, Note_on_c, 0, 64, 52
1, 72264, Note_on_c, 0, 74, 58
1, 72268, Note_on_c, 0, 55, 36
1, 72284, Control_c, 0, 64, 0
1, 72288, Note_off_c, 0, 75, 64
1, 72352, Control_c, 0, 64, 127
1, 72576, Note_off_c, 0, 41, 64
1, 72608, Note_on_c, 0, 63, 54
1, 72616, Note_on_c, 0, 57, 43
1, 72628, Control_c, 0, 64, 0
1, 72644, Note_off_c, 0, 55, 64
1, 72656, Note_off_c, 0, 64, 64
1, 72684, Control_c, 0, 64, 127
1, 72768, Note_on_c, 0, 72, 51
1, 72784, Note_off_c, 0, 74, 64
1, 72952, Note_on_c, 0, 58, 32
1, 72956, Note_on_c, 0, 70, 43
1, 72968, Note_on_c, 0, 46, 40
1, 72968, Control_c, 0, 64, 0
1, 72976, Note_off_c, 0, 72, 64
1, 72980, Note_on_c, 0, 62, 25
1, 72988, Note_off_c, 0, 63, 64
1, 72996, Note_off_c, 0, 57, 64
1, 73080, Control_c, 0, 64, 127
1, 73136, Note_on_c, 0, 55, 48
1, 73144, Note_off_c, 0, 58, 64
1, 73148, Note_off_c, 0, 46, 64
1, 73184, Note_off_c, 0, 70, 64
1, 73256, Note_off_c, 0, 62, 64
1, 73300, Note_on_c, 0, 53, 48
1, 73340, Note_off_c, 0, 55, 64
1, 73468, Note_on_c, 0, 51, 46
1, 73488, Note_off_c, 0, 53, 64
1, 73628, Note_on_c, 0, 50, 47
1, 73640, Note_on_c, 0, 53, 64
1, 73652, Control_c, 0, 64, 0
1, 73656, Note_off_c, 0, 51, 64
1, 73788, Control_c, 0, 64, 127
1, 73808, Note_on_c, 0, 48, 43
1, 73848, Note_off_c, 0, 50, 64
1, 73992, Note_on_c, 0, 58, 51
1, 73992, Note_on_c, 0, 62, 46
1, 74004, Note_on_c, 0, 46, 47
1, 74008, Control_c, 0, 64, 0
1, 74084, Note_off_c, 0, 48, 64
1, 74116, Control_c, 0, 64, 127
1, 74248, Note_on_c, 0, 43, 47
1, 74272, Note_off_c, 0, 46, 64
1, 74288, Control_c, 0, 64, 0
1, 74360, Note_on_c, 0, 41, 64
1, 74400, Note_off_c, 0, 43, 64
1, 74412, Control_c, 0, 64, 127
1, 74680, Note_on_c, 0, 63, 55
1, 74688, Note_on_c, 0, 46, 52
1, 74704, Note_off_c, 0, 62, 64
1, 74708, Control_c, 0, 64, 0
1, 74716, Note_off_c, 0, 41, 64
1, 74800, Control_c, 0, 64, 127
1, 75000, Note_on_c, 0, 65, 54
1, 75080, Note_off_c, 0, 65, 64
1, 75104, Note_off_c, 0, 63, 64
1, 75208, Note_on_c, 0, 63, 52
1, 75216, Note_off_c, 0, 58, 64
1, 75216, Note_on_c, 0, 57, 60
1, 75216, Note_on_c, 0, 65, 54
1, 75228, Note_on_c, 0, 47, 51
1, 75248, Note_off_c, 0, 46, 64
1, 75288, Note_off_c, 0, 63, 64
1, 75296, Note_off_c, 0, 65, 64
1, 75304, Note_on_c, 0, 48, 55
1, 75308, Note_on_c, 0, 55, 63
1, 75316, Note_on_c, 0, 65, 54
1, 75324, Note_on_c, 0, 63, 52
1, 75328, Note_off_c, 0, 47, 64
1, 75328, Note_off_c, 0, 57, 64
1, 75340, Control_c, 0, 64, 0
1, 75444, Control_c, 0, 64, 127
1, 75504, Note_off_c, 0, 48, 64
1, 75516, Note_off_c, 0, 65, 64
1, 75520, Note_off_c, 0, 63, 64
1, 75524, Note_off_c, 0, 55, 64
1, 75656, Note_on_c, 0, 65, 54
1, 75656, Note_on_c, 0, 63, 54
1, 75660, Control_c, 0, 64, 0
1, 75672, Note_on_c, 0, 57, 57
1, 75680, Note_on_c, 0, 41, 51
1, 75712, Control_c, 0, 64, 127
1, 75776, Control_c, 0, 64, 127
1, 75852, Note_off_c, 0, 65, 64
1, 75852, Note_off_c, 0, 63, 64
1, 75916, Note_off_c, 0, 57, 64
1, 75920, Note_off_c, 0, 41, 64
1, 76012, Note_on_c, 0, 58, 55
1, 76016, Note_on_c, 0, 62, 58
1, 76016, Note_on_c, 0, 46, 52
1, 76040, Control_c, 0, 64, 0
1, 76136, Control_c, 0, 64, 127
1, 76244, Note_on_c, 0, 43, 49
1, 76280, Note_off_c, 0, 46, 64
1, 76316, Control_c, 0, 64, 0
1, 76352, Note_on_c, 0, 41, 60
1, 76392, Control_c, 0, 64, 127
1, 76400, Note_off_c, 0, 43, 64
1, 76632, Note_off_c, 0, 53, 64
1, 76644, Note_off_c, 0, 58, 64
1, 76668, Note_on_c, 0, 58, 55
1, 76672, Note_on_c, 0, 67, 54
1, 76680, Note_off_c, 0, 62, 64
1, 76680, Note_on_c, 0, 40, 47
1, 76688, Control_c, 0, 64, 0
1, 76696, Note_off_c, 0, 41, 64
1, 76696, Note_on_c, 0, 48, 48
1, 76776, Note_off_c, 0, 67, 64
1, 76776, Control_c, 0, 64, 127
1, 76816, Note_off_c, 0, 58, 64
1, 76904, Note_off_c, 0, 40, 64
1, 77000, Note_on_c, 0, 58, 54
1, 77008, Note_on_c, 0, 41, 43
1, 77016, Note_on_c, 0, 60, 55
1, 77020, Control_c, 0, 64, 0
1, 77084, Control_c, 0, 64, 127
1, 77100, Note_off_c, 0, 58, 64
1, 77108, Note_off_c, 0, 60, 64
1, 77224, Note_on_c, 0, 60, 52
1, 77232, Note_off_c, 0, 41, 64
1, 77236, Note_on_c, 0, 57, 52
1, 77248, Note_on_c, 0, 36, 64
1, 77288, Note_off_c, 0, 60, 64
1, 77316, Note_on_c, 0, 60, 58
1, 77320, Note_on_c, 0, 55, 64
1, 77332, Note_off_c, 0, 57, 64
1, 77332, Control_c, 0, 64, 0
1, 77340, Note_on_c, 0, 41, 59
1, 77344, Note_off_c, 0, 36, 64
1, 77408, Control_c, 0, 64, 127
1, 77536, Note_off_c, 0, 60, 64
1, 77660, Note_on_c, 0, 36, 48
1, 77660, Control_c, 0, 64, 0
1, 77668, Note_on_c, 0, 57, 55
1, 77672, Note_on_c, 0, 60, 55
1, 77680, Note_off_c, 0, 48, 64
1, 77680, Note_off_c, 0, 41, 64
1, 77720, Note_off_c, 0, 55, 64
1, 77776, Control_c, 0, 64, 127
1, 77824, Note_off_c, 0, 57, 64
1, 77848, Note_off_c, 0, 60, 64
1, 77876, Note_off_c, 0, 36, 64
1, 78048, Control_c, 0, 64, 0
1, 78056, Note_on_c, 0, 60, 57
1, 78060, Note_on_c, 0, 56, 64
1, 78064, Note_on_c, 0, 41, 58
1, 78068, Note_on_c, 0, 48, 48
1, 78136, Control_c, 0, 64, 127
1, 78288, Note_on_c, 0, 37, 52
1, 78300, Note_off_c, 0, 41, 64
1, 78360, Control_c, 0, 64, 0
1, 78396, Note_on_c, 0, 36, 70
1, 78440, Control_c, 0, 64, 127
1, 78456, Note_off_c, 0, 37, 64
1, 78728, Note_on_c, 0, 62, 69
1, 78736, Note_on_c, 0, 41, 52
1, 78744, Note_off_c, 0, 36, 64
1, 78752, Note_off_c, 0, 60, 64
1, 78760, Control_c, 0, 64, 0
1, 78812, Control_c, 0, 64, 127
1, 79072, Note_off_c, 0, 41, 64
1, 79072, Note_on_c, 0, 63, 74
1, 79080, Control_c, 0, 64, 0
1, 79084, Note_off_c, 0, 62, 64
1, 79088, Note_on_c, 0, 55, 65
1, 79088, Note_on_c, 0, 36, 64
1, 79112, Note_off_c, 0, 56, 64
1, 79148, Control_c, 0, 64, 127
1, 79204, Note_off_c, 0, 48, 64
1, 79208, Note_off_c, 0, 63, 64
1, 79228, Note_off_c, 0, 55, 64
1, 79356, Note_on_c, 0, 63, 74
1, 79412, Note_off_c, 0, 63, 64
1, 79436, Note_on_c, 0, 58, 80
1, 79440, Note_on_c, 0, 63, 77
1, 79460, Note_on_c, 0, 55, 64
1, 79460, Note_on_c, 0, 48, 66
1, 79464, Control_c, 0, 64, 0
1, 79564, Note_off_c, 0, 36, 64
1, 79584, Control_c, 0, 64, 127
1, 79760, Note_off_c, 0, 48, 64
1, 79780, Note_off_c, 0, 55, 64
1, 79964, Note_on_c, 0, 62, 66
1, 79984, Note_off_c, 0, 63, 64
1, 80184, Note_on_c, 0, 60, 72
1, 80184, Note_on_c, 0, 41, 65
1, 80200, Note_off_c, 0, 62, 64
1, 80200, Note_on_c, 0, 51, 65
1, 80220, Control_c, 0, 64, 0
1, 80300, Control_c, 0, 64, 127
1, 80360, Note_off_c, 0, 58, 64
1, 80432, Note_on_c, 0, 59, 71
1, 80440, Note_off_c, 0, 60, 64
1, 80440, Note_on_c, 0, 50, 72
1, 80456, Note_off_c, 0, 51, 64
1, 80516, Note_on_c, 0, 60, 70
1, 80520, Control_c, 0, 64, 0
1, 80528, Note_on_c, 0, 51, 87
1, 80532, Note_off_c, 0, 59, 64
1, 80540, Note_off_c, 0, 50, 64
1, 80600, Control_c, 0, 64, 127
1, 80824, Note_on_c, 0, 56, 72
1, 80828, Note_on_c, 0, 62, 78
1, 80832, Note_on_c, 0, 47, 72
1, 80836, Note_off_c, 0, 60, 64
1, 80844, Note_off_c, 0, 51, 64
1, 80844, Control_c, 0, 64, 0
1, 80920, Control_c, 0, 64, 127
1, 81148, Control_c, 0, 64, 0
1, 81156, Note_on_c, 0, 48, 70
1, 81160, Note_on_c, 0, 55, 78
1, 81160, Note_on_c, 0, 63, 74
1, 81196, Note_off_c, 0, 56, 64
1, 81200, Note_off_c, 0, 62, 64
1, 81204, Note_off_c, 0, 47, 64
1, 81204, Control_c, 0, 64, 127
1, 81388, Note_on_c, 0, 64, 60
1, 81392, Note_on_c, 0, 46, 80
1, 81400, Note_on_c, 0, 54, 63
1, 81404, Note_off_c, 0, 48, 64
1, 81408, Note_off_c, 0, 41, 64
1, 81408, Note_off_c, 0, 55, 64
1, 81408, Note_off_c, 0, 63, 64
1, 81456, Control_c, 0, 64, 0
1, 81472, Note_on_c, 0, 65, 77
1, 81484, Note_on_c, 0, 53, 81
1, 81484, Note_on_c, 0, 45, 86
1, 81508, Note_off_c, 0, 64, 64
1, 81512, Note_off_c, 0, 46, 64
1, 81520, Note_off_c, 0, 54, 64
1, 81544, Control_c, 0, 64, 127
1, 81604, Note_off_c, 0, 53, 64
1, 81624, Note_off_c, 0, 65, 64
1, 81624, Note_off_c, 0, 45, 64
1, 81780, Note_on_c, 0, 41, 64
1, 81832, Note_on_c, 0, 73, 82
1, 81844, Note_on_c, 0, 63, 88
1, 81856, Note_on_c, 0, 57, 77
1, 81856, Control_c, 0, 64, 0
1, 81920, Control_c, 0, 64, 127
1, 82112, Note_off_c, 0, 41, 64
1, 82184, Note_on_c, 0, 58, 60
1, 82188, Note_on_c, 0, 62, 72
1, 82196, Note_off_c, 0, 73, 64
1, 82196, Note_off_c, 0, 57, 64
1, 82196, Note_on_c, 0, 74, 72
1, 82200, Note_off_c, 0, 63, 64
1, 82200, Note_on_c, 0, 70, 66
1, 82200, Control_c, 0, 64, 0
1, 82208, Note_on_c, 0, 53, 57
1, 82208, Note_on_c, 0, 46, 64
1, 82256, Control_c, 0, 64, 127
1, 82300, Note_off_c, 0, 53, 64
1, 82324, Note_off_c, 0, 46, 64
1, 82348, Note_off_c, 0, 58, 64
1, 82432, Note_on_c, 0, 43, 52
1, 82496, Control_c, 0, 64, 0
1, 82512, Note_on_c, 0, 41, 74
1, 82568, Note_off_c, 0, 43, 64
1, 82584, Control_c, 0, 64, 127
1, 82768, Note_off_c, 0, 70, 64
1, 82840, Note_on_c, 0, 75, 72
1, 82840, Note_on_c, 0, 70, 64
1, 82840, Note_on_c, 0, 63, 64
1, 82848, Note_off_c, 0, 74, 64
1, 82848, Note_on_c, 0, 46, 60
1, 82852, Note_off_c, 0, 62, 64
1, 82864, Note_on_c, 0, 53, 52
1, 82872, Control_c, 0, 64, 0
1, 82884, Note_off_c, 0, 41, 64
1, 82936, Control_c, 0, 64, 127
1, 83116, Note_off_c, 0, 75, 64
1, 83128, Note_off_c, 0, 63, 64
1, 83128, Note_off_c, 0, 70, 64
1, 83148, Note_on_c, 0, 65, 66
1, 83156, Note_on_c, 0, 77, 66
1, 83160, Note_on_c, 0, 70, 64
1, 83164, Note_on_c, 0, 75, 66
1, 83200, Note_off_c, 0, 70, 64
1, 83224, Note_off_c, 0, 65, 64
1, 83224, Note_off_c, 0, 75, 64
1, 83236, Note_off_c, 0, 77, 64
1, 83352, Note_on_c, 0, 65, 66
1, 83356, Note_on_c, 0, 77, 65
1, 83356, Note_on_c, 0, 69, 72
1, 83364, Note_on_c, 0, 47, 66
1, 83372, Note_on_c, 0, 75, 60
1, 83376, Note_off_c, 0, 46, 64
1, 83392, Note_off_c, 0, 69, 64
1, 83400, Note_off_c, 0, 65, 64
1, 83412, Note_off_c, 0, 75, 64
1, 83416, Note_off_c, 0, 77, 64
1, 83440, Control_c, 0, 64, 0
1, 83452, Note_on_c, 0, 77, 60
1, 83452, Note_on_c, 0, 75, 60
1, 83452, Note_on_c, 0, 65, 55
1, 83452, Note_on_c, 0, 48, 74
1, 83460, Note_on_c, 0, 67, 71
1, 83468, Note_off_c, 0, 47, 64
1, 83480, Control_c, 0, 64, 0
1, 83540, Control_c, 0, 64, 127
1, 83636, Note_off_c, 0, 67, 64
1, 83640, Note_on_c, 0, 50, 64
1, 83664, Note_off_c, 0, 48, 64
1, 83684, Note_off_c, 0, 77, 64
1, 83684, Note_off_c, 0, 75, 64
1, 83696, Note_off_c, 0, 65, 64
1, 83772, Note_on_c, 0, 77, 77
1, 83772, Note_on_c, 0, 75, 77
1, 83784, Control_c, 0, 64, 127
1, 83788, Note_on_c, 0, 65, 65
1, 83796, Note_on_c, 0, 69, 74
1, 83796, Note_on_c, 0, 48, 66
1, 83800, Note_off_c, 0, 50, 64
1, 83812, Control_c, 0, 64, 0
1, 83860, Control_c, 0, 64, 127
1, 83888, Note_off_c, 0, 77, 64
1, 83888, Note_off_c, 0, 75, 64
1, 83936, Note_off_c, 0, 69, 64
1, 83964, Note_off_c, 0, 65, 64
1, 83976, Note_off_c, 0, 53, 64
1, 84076, Note_off_c, 0, 48, 64
1, 84120, Note_on_c, 0, 70, 66
1, 84120, Note_on_c, 0, 62, 65
1, 84120, Note_on_c, 0, 74, 70
1, 84132, Note_on_c, 0, 46, 60
1, 84140, Note_on_c, 0, 53, 57
1, 84148, Control_c, 0, 64, 0
1, 84224, Control_c, 0, 64, 127
1, 84344, Note_on_c, 0, 43, 47
1, 84352, Note_off_c, 0, 46, 64
1, 84412, Note_on_c, 0, 41, 70
1, 84424, Control_c, 0, 64, 0
1, 84432, Note_off_c, 0, 43, 64
1, 84472, Control_c, 0, 64, 127
1, 84724, Note_off_c, 0, 70, 64
1, 84744, Note_on_c, 0, 70, 66
1, 84752, Note_on_c, 0, 79, 69
1, 84752, Note_on_c, 0, 67, 66
1, 84752, Note_on_c, 0, 40, 64
1, 84760, Note_on_c, 0, 72, 66
1, 84760, Note_on_c, 0, 48, 65
1, 84764, Note_off_c, 0, 74, 64
1, 84772, Note_off_c, 0, 41, 64
1, 84772, Control_c, 0, 64, 0
1, 84784, Note_off_c, 0, 53, 64
1, 84800, Note_off_c, 0, 62, 64
1, 84824, Control_c, 0, 64, 127
1, 84840, Note_off_c, 0, 70, 64
1, 84852, Note_off_c, 0, 72, 64
1, 84856, Note_off_c, 0, 79, 64
1, 84864, Note_off_c, 0, 67, 64
1, 84892, Note_off_c, 0, 48, 64
1, 84916, Note_off_c, 0, 40, 64
1, 85052, Note_on_c, 0, 72, 72
1, 85064, Note_on_c, 0, 70, 63
1, 85076, Note_on_c, 0, 65, 64
1, 85076, Note_on_c, 0, 48, 60
1, 85076, Note_on_c, 0, 41, 63
1, 85080, Control_c, 0, 64, 0
1, 85088, Note_on_c, 0, 60, 72
1, 85124, Note_off_c, 0, 72, 64
1, 85124, Control_c, 0, 64, 127
1, 85152, Note_off_c, 0, 65, 64
1, 85160, Note_off_c, 0, 60, 64
1, 85164, Note_off_c, 0, 41, 64
1, 85168, Note_off_c, 0, 70, 64
1, 85168, Note_off_c, 0, 48, 64
1, 85284, Note_on_c, 0, 69, 66
1, 85296, Note_on_c, 0, 65, 65
1, 85296, Note_on_c, 0, 72, 59
1, 85296, Note_on_c, 0, 60, 60
1, 85308, Note_on_c, 0, 36, 72
1, 85316, Note_on_c, 0, 48, 41
1, 85340, Note_off_c, 0, 69, 64
1, 85340, Note_off_c, 0, 65, 64
1, 85344, Note_off_c, 0, 72, 64
1, 85348, Note_off_c, 0, 60, 64
1, 85376, Control_c, 0, 64, 0
1, 85384, Note_on_c, 0, 67, 77
1, 85384, Note_on_c, 0, 65, 77
1, 85392, Note_off_c, 0, 48, 64
1, 85392, Note_on_c, 0, 72, 69
1, 85396, Control_c, 0, 64, 127
1, 85400, Note_off_c, 0, 36, 64
1, 85400, Note_on_c, 0, 60, 60
1, 85400, Note_on_c, 0, 41, 72
1, 85408, Control_c, 0, 64, 127
1, 85412, Note_on_c, 0, 48, 72
1, 85472, Control_c, 0, 64, 127
1, 85560, Note_off_c, 0, 67, 64
1, 85560, Note_off_c, 0, 65, 64
1, 85616, Note_off_c, 0, 72, 64
1, 85632, Note_off_c, 0, 60, 64
1, 85632, Note_off_c, 0, 41, 64
1, 85648, Note_off_c, 0, 48, 64
1, 85752, Note_on_c, 0, 60, 64
1, 85752, Note_on_c, 0, 72, 66
1, 85760, Note_on_c, 0, 69, 65
1, 85760, Note_on_c, 0, 36, 72
1, 85760, Note_on_c, 0, 65, 64
1, 85772, Note_on_c, 0, 48, 52
1, 85772, Control_c, 0, 64, 0
1, 85836, Control_c, 0, 64, 127
1, 85912, Note_off_c, 0, 36, 64
1, 85920, Note_off_c, 0, 48, 64
1, 85932, Note_off_c, 0, 65, 64
1, 85944, Note_off_c, 0, 72, 64
1, 85956, Note_off_c, 0, 69, 64
1, 85968, Note_off_c, 0, 60, 64
1, 86140, Note_on_c, 0, 68, 74
1, 86148, Note_on_c, 0, 72, 72
1, 86152, Note_on_c, 0, 65, 64
1, 86156, Note_on_c, 0, 60, 66
1, 86164, Note_on_c, 0, 41, 65
1, 86168, Note_on_c, 0, 48, 54
1, 86184, Control_c, 0, 64, 0
1, 86264, Control_c, 0, 64, 127
1, 86380, Note_on_c, 0, 37, 63
1, 86404, Note_off_c, 0, 41, 64
1, 86444, Control_c, 0, 64, 0
1, 86488, Note_on_c, 0, 36, 77
1, 86524, Control_c, 0, 64, 127
1, 86564, Note_off_c, 0, 37, 64
1, 86736, Note_off_c, 0, 48, 64
1, 86760, Note_off_c, 0, 68, 64
1, 86812, Note_on_c, 0, 68, 69
1, 86816, Note_off_c, 0, 36, 64
1, 86824, Note_on_c, 0, 74, 65
1, 86824, Note_on_c, 0, 62, 60
1, 86824, Note_on_c, 0, 48, 55
1, 86824, Note_on_c, 0, 41, 64
1, 86844, Control_c, 0, 64, 0
1, 86848, Note_off_c, 0, 72, 64
1, 86848, Note_off_c, 0, 65, 64
1, 86848, Note_off_c, 0, 60, 64
1, 86904, Control_c, 0, 64, 127
1, 87104, Note_off_c, 0, 41, 64
1, 87128, Note_on_c, 0, 67, 65
1, 87128, Note_on_c, 0, 63, 72
1, 87128, Note_on_c, 0, 36, 64
1, 87132, Note_on_c, 0, 75, 71
1, 87132, Control_c, 0, 64, 0
1, 87136, Note_off_c, 0, 68, 64
1, 87148, Note_off_c, 0, 74, 64
1, 87148, Note_off_c, 0, 62, 64
1, 87208, Control_c, 0, 64, 127
1, 87232, Note_off_c, 0, 48, 64
1, 87248, Note_off_c, 0, 67, 64
1, 87248, Note_off_c, 0, 63, 64
1, 87248, Note_off_c, 0, 36, 64
1, 87252, Note_off_c, 0, 75, 64
1, 87396, Note_on_c, 0, 48, 72
1, 87400, Note_on_c, 0, 60, 72
1, 87400, Note_on_c, 0, 63, 72
1, 87400, Note_on_c, 0, 75, 72
1, 87400, Note_on_c, 0, 55, 46
1, 87448, Note_off_c, 0, 60, 64
1, 87448, Note_off_c, 0, 75, 64
1, 87448, Note_off_c, 0, 55, 64
1, 87452, Note_off_c, 0, 48, 64
1, 87456, Note_off_c, 0, 63, 64
1, 87496, Note_on_c, 0, 75, 81
1, 87496, Note_on_c, 0, 70, 70
1, 87496, Note_on_c, 0, 63, 63
1, 87504, Note_on_c, 0, 60, 48
1, 87504, Note_on_c, 0, 55, 46
1, 87508, Note_on_c, 0, 48, 54
1, 87520, Control_c, 0, 64, 0
1, 87640, Control_c, 0, 64, 127
1, 87732, Note_off_c, 0, 55, 64
1, 87760, Note_off_c, 0, 60, 64
1, 87784, Note_off_c, 0, 48, 64
1, 87800, Note_off_c, 0, 70, 64
1, 87816, Note_off_c, 0, 63, 64
1, 87932, Note_on_c, 0, 74, 59
1, 87948, Note_off_c, 0, 75, 64
1, 88064, Note_on_c, 0, 63, 58
1, 88064, Note_on_c, 0, 72, 48
1, 88076, Note_off_c, 0, 74, 64
1, 88096, Note_off_c, 0, 63, 64
1, 88096, Note_on_c, 0, 74, 63
1, 88108, Note_off_c, 0, 72, 64
1, 88128, Control_c, 0, 64, 0
1, 88144, Note_on_c, 0, 63, 69
1, 88148, Note_on_c, 0, 57, 51
1, 88148, Note_on_c, 0, 41, 31
1, 88152, Note_on_c, 0, 72, 74
1, 88160, Note_on_c, 0, 48, 48
1, 88180, Note_off_c, 0, 74, 64
1, 88196, Note_off_c, 0, 41, 64
1, 88208, Note_off_c, 0, 48, 64
1, 88216, Note_off_c, 0, 63, 64
1, 88232, Control_c, 0, 64, 127
1, 88240, Note_off_c, 0, 72, 64
1, 88244, Note_off_c, 0, 57, 64
1, 88376, Note_on_c, 0, 63, 64
1, 88384, Note_on_c, 0, 71, 64
1, 88400, Note_on_c, 0, 57, 72
1, 88400, Note_on_c, 0, 53, 64
1, 88432, Note_off_c, 0, 63, 64
1, 88440, Control_c, 0, 64, 0
1, 88456, Note_off_c, 0, 57, 64
1, 88460, Note_off_c, 0, 53, 64
1, 88464, Note_on_c, 0, 72, 72
1, 88468, Note_on_c, 0, 63, 72
1, 88480, Note_on_c, 0, 53, 65
1, 88484, Note_off_c, 0, 71, 64
1, 88488, Note_on_c, 0, 57, 63
1, 88536, Control_c, 0, 64, 127
1, 88776, Control_c, 0, 64, 0
1, 88784, Note_off_c, 0, 53, 64
1, 88792, Note_off_c, 0, 57, 64
1, 88796, Note_off_c, 0, 63, 64
1, 88796, Note_on_c, 0, 53, 52
1, 88796, Note_on_c, 0, 63, 37
1, 88804, Note_on_c, 0, 57, 47
1, 88804, Note_on_c, 0, 74, 70
1, 88824, Note_off_c, 0, 72, 64
1, 88880, Control_c, 0, 64, 127
1, 89096, Note_off_c, 0, 57, 64
1, 89104, Note_on_c, 0, 46, 37
1, 89116, Note_off_c, 0, 53, 64
1, 89136, Note_on_c, 0, 58, 46
1, 89136, Note_on_c, 0, 62, 52
1, 89136, Note_on_c, 0, 53, 36
1, 89144, Note_off_c, 0, 63, 64
1, 89144, Note_on_c, 0, 70, 69
1, 89152, Control_c, 0, 64, 0
1, 89168, Note_off_c, 0, 74, 64
1, 89240, Control_c, 0, 64, 127
1, 89272, Note_off_c, 0, 70, 64
1, 89292, Note_off_c, 0, 58, 64
1, 89300, Note_off_c, 0, 62, 64
1, 89332, Note_off_c, 0, 53, 64
1, 89420, Note_off_c, 0, 46, 64
1, 89492, Note_on_c, 0, 59, 57
1, 89556, Control_c, 0, 64, 0
1, 89644, Note_on_c, 0, 58, 40
1, 89652, Control_c, 0, 64, 127
1, 89668, Note_off_c, 0, 59, 64
1, 89744, Control_c, 0, 64, 0
1, 89780, Note_on_c, 0, 56, 52
1, 89820, Note_off_c, 0, 58, 64
1, 89840, Control_c, 0, 64, 127
1, 89920, Note_on_c, 0, 58, 52
1, 89952, Note_off_c, 0, 56, 64
1, 90120, Note_on_c, 0, 59, 63
1, 90128, Note_off_c, 0, 58, 64
1, 90212, Note_on_c, 0, 63, 43
1, 90264, Note_off_c, 0, 59, 64
1, 90280, Note_on_c, 0, 71, 37
1, 90300, Note_on_c, 0, 44, 47
1, 90312, Note_off_c, 0, 63, 64
1, 90352, Control_c, 0, 64, 0
1, 90364, Note_on_c, 0, 51, 55
1, 90372, Note_on_c, 0, 70, 72
1, 90396, Note_off_c, 0, 71, 64
1, 90400, Note_on_c, 0, 59, 49
1, 90408, Note_off_c, 0, 44, 64
1, 90460, Note_off_c, 0, 51, 64
1, 90480, Note_off_c, 0, 59, 64
1, 90492, Control_c, 0, 64, 127
1, 90664, Note_on_c, 0, 44, 51
1, 90700, Control_c, 0, 64, 0
1, 90712, Note_on_c, 0, 68, 72
1, 90712, Note_on_c, 0, 59, 46
1, 90712, Note_on_c, 0, 51, 42
1, 90720, Note_off_c, 0, 70, 64
1, 90832, Control_c, 0, 64, 127
1, 90928, Note_off_c, 0, 44, 64
1, 90992, Note_off_c, 0, 51, 64
1, 91000, Note_on_c, 0, 75, 71
1, 91012, Note_off_c, 0, 59, 64
1, 91048, Note_off_c, 0, 68, 64
1, 91184, Note_on_c, 0, 44, 48
1, 91256, Note_on_c, 0, 51, 35
1, 91304, Note_on_c, 0, 73, 71
1, 91304, Note_on_c, 0, 59, 48
1, 91316, Control_c, 0, 64, 0
1, 91328, Note_off_c, 0, 75, 64
1, 91328, Note_off_c, 0, 44, 64
1, 91344, Note_off_c, 0, 51, 64
1, 91400, Control_c, 0, 64, 127
1, 91416, Note_off_c, 0, 59, 64
1, 91544, Note_on_c, 0, 44, 51
1, 91608, Note_on_c, 0, 53, 48
1, 91624, Control_c, 0, 64, 0
1, 91648, Note_on_c, 0, 59, 48
1, 91720, Control_c, 0, 64, 127
1, 91792, Note_on_c, 0, 71, 66
1, 91808, Note_off_c, 0, 53, 64
1, 91824, Note_off_c, 0, 73, 64
1, 91824, Note_off_c, 0, 59, 64
1, 91836, Note_off_c, 0, 44, 64
1, 91924, Note_on_c, 0, 70, 72
1, 91932, Note_off_c, 0, 71, 64
1, 92044, Note_on_c, 0, 68, 78
1, 92060, Note_off_c, 0, 70, 64
1, 92104, Note_on_c, 0, 39, 55
1, 92168, Note_on_c, 0, 46, 43
1, 92180, Control_c, 0, 64, 0
1, 92196, Note_on_c, 0, 70, 74
1, 92204, Note_on_c, 0, 54, 64
1, 92212, Note_off_c, 0, 68, 64
1, 92216, Note_off_c, 0, 39, 64
1, 92244, Note_off_c, 0, 46, 64
1, 92268, Control_c, 0, 64, 127
1, 92272, Note_off_c, 0, 54, 64
1, 92488, Control_c, 0, 64, 0
1, 92504, Note_on_c, 0, 66, 64
1, 92512, Note_on_c, 0, 54, 52
1, 92512, Note_on_c, 0, 39, 47
1, 92516, Note_off_c, 0, 70, 64
1, 92524, Note_on_c, 0, 46, 41
1, 92624, Control_c, 0, 64, 127
1, 92788, Note_off_c, 0, 46, 64
1, 92792, Note_off_c, 0, 39, 64
1, 92800, Note_on_c, 0, 63, 64
1, 92812, Note_off_c, 0, 66, 64
1, 92816, Note_off_c, 0, 54, 64
1, 93012, Note_on_c, 0, 39, 51
1, 93056, Note_on_c, 0, 46, 40
1, 93088, Control_c, 0, 64, 0
1, 93100, Note_on_c, 0, 54, 52
1, 93128, Note_off_c, 0, 39, 64
1, 93144, Note_off_c, 0, 46, 64
1, 93172, Control_c, 0, 64, 127
1, 93180, Note_off_c, 0, 54, 64
1, 93360, Note_on_c, 0, 39, 40
1, 93396, Note_on_c, 0, 48, 54
1, 93428, Control_c, 0, 64, 0
1, 93448, Note_on_c, 0, 54, 54
1, 93508, Control_c, 0, 64, 127
1, 93544, Note_off_c, 0, 63, 64
1, 93684, Tempo, 500000
1, 93684, Note_off_c, 0, 39, 64
1, 93688, Note_off_c, 0, 48, 64
1, 93704, Control_c, 0, 64, 0
1, 93716, Note_on_c, 0, 61, 71
1, 93720, Note_off_c, 0, 54, 64
1, 93800, Control_c, 0, 64, 127
1, 93852, Note_off_c, 0, 61, 64
1, 93912, Note_on_c, 0, 41, 49
1, 93928, Note_on_c, 0, 60, 65
1, 93952, Note_on_c, 0, 49, 48
1, 93976, Control_c, 0, 64, 0
1, 93996, Note_on_c, 0, 58, 72
1, 93996, Note_on_c, 0, 53, 48
1, 94016, Note_off_c, 0, 41, 64
1, 94036, Note_off_c, 0, 60, 64
1, 94036, Note_off_c, 0, 49, 64
1, 94064, Note_off_c, 0, 53, 64
1, 94076, Control_c, 0, 64, 127
1, 94232, Note_on_c, 0, 41, 35
1, 94256, Note_on_c, 0, 49, 43
1, 94288, Note_on_c, 0, 53, 51
1, 94296, Control_c, 0, 64, 0
1, 94308, Note_on_c, 0, 65, 64
1, 94344, Note_off_c, 0, 58, 64
1, 94392, Control_c, 0, 64, 127
1, 94396, Note_off_c, 0, 41, 64
1, 94404, Note_off_c, 0, 49, 64
1, 94440, Note_off_c, 0, 53, 64
1, 94532, Note_off_c, 0, 65, 64
1, 94612, Note_on_c, 0, 53, 72
1, 94792, Note_on_c, 0, 41, 48
1, 94856, Note_on_c, 0, 51, 54
1, 94864, Control_c, 0, 64, 0
1, 94888, Note_off_c, 0, 41, 64
1, 94892, Note_on_c, 0, 57, 55
1, 94956, Note_off_c, 0, 51, 64
1, 94972, Note_off_c, 0, 57, 64
1, 94984, Control_c, 0, 64, 127
1, 95192, Note_on_c, 0, 41, 40
1, 95200, Note_on_c, 0, 51, 51
1, 95208, Note_on_c, 0, 57, 40
1, 95212, Control_c, 0, 64, 0
1, 95272, Control_c, 0, 64, 127
1, 95316, Note_off_c, 0, 53, 64
1, 95352, Note_off_c, 0, 57, 64
1, 95380, Note_off_c, 0, 41, 64
1, 95396, Note_off_c, 0, 51, 64
1, 95500, Note_on_c, 0, 58, 70
1, 95720, Note_on_c, 0, 46, 42
1, 95768, Control_c, 0, 64, 0
1, 95772, Note_on_c, 0, 53, 51
1, 95816, Note_on_c, 0, 61, 54
1, 95832, Control_c, 0, 64, 127
1, 95904, Note_off_c, 0, 46, 64
1, 95956, Note_off_c, 0, 61, 64
1, 95972, Note_off_c, 0, 53, 64
1, 96096, Note_on_c, 0, 46, 31
1, 96120, Note_on_c, 0, 61, 40
1, 96120, Control_c, 0, 64, 0
1, 96128, Note_on_c, 0, 53, 31
1, 96160, Control_c, 0, 64, 127
1, 96396, Note_on_c, 0, 65, 65
1, 96412, Control_c, 0, 64, 0
1, 96448, Note_off_c, 0, 58, 64
1, 96448, Note_off_c, 0, 61, 64
1, 96448, Note_off_c, 0, 53, 64
1, 96456, Note_off_c, 0, 46, 64
1, 96464, Control_c, 0, 64, 127
1, 96556, Note_on_c, 0, 68, 43
1, 96584, Note_off_c, 0, 65, 64
1, 96600, Note_on_c, 0, 66, 64
1, 96604, Note_on_c, 0, 46, 40
1, 96640, Note_on_c, 0, 53, 43
1, 96652, Note_off_c, 0, 68, 64
1, 96656, Control_c, 0, 64, 0
1, 96676, Note_on_c, 0, 61, 55
1, 96684, Note_on_c, 0, 65, 77
1, 96700, Note_off_c, 0, 66, 64
1, 96712, Note_off_c, 0, 46, 64
1, 96720, Note_off_c, 0, 53, 64
1, 96736, Note_off_c, 0, 61, 64
1, 96748, Control_c, 0, 64, 127
1, 96976, Note_on_c, 0, 70, 63
1, 96984, Control_c, 0, 64, 0
1, 97000, Note_on_c, 0, 61, 54
1, 97000, Note_on_c, 0, 46, 40
1, 97024, Note_on_c, 0, 53, 25
1, 97056, Control_c, 0, 64, 127
1, 97108, Note_off_c, 0, 65, 64
1, 97136, Note_on_c, 0, 72, 70
1, 97176, Note_off_c, 0, 70, 64
1, 97296, Note_on_c, 0, 73, 80
1, 97316, Note_off_c, 0, 46, 64
1, 97320, Note_off_c, 0, 61, 64
1, 97320, Note_off_c, 0, 72, 64
1, 97328, Note_off_c, 0, 53, 64
1, 97436, Note_on_c, 0, 75, 47
1, 97460, Note_off_c, 0, 73, 64
1, 97488, Note_on_c, 0, 46, 55
1, 97504, Note_on_c, 0, 73, 55
1, 97528, Note_off_c, 0, 75, 64
1, 97528, Note_on_c, 0, 53, 41
1, 97536, Control_c, 0, 64, 0
1, 97552, Note_on_c, 0, 61, 60
1, 97560, Note_on_c, 0, 72, 65
1, 97584, Note_off_c, 0, 73, 64
1, 97624, Note_off_c, 0, 46, 64
1, 97628, Note_off_c, 0, 53, 64
1, 97632, Note_off_c, 0, 61, 64
1, 97640, Control_c, 0, 64, 127
1, 97852, Note_on_c, 0, 70, 64
1, 97864, Control_c, 0, 64, 0
1, 97884, Note_on_c, 0, 46, 55
1, 97888, Note_on_c, 0, 61, 60
1, 97900, Note_off_c, 0, 72, 64
1, 97900, Note_on_c, 0, 53, 48
1, 97940, Control_c, 0, 64, 127
1, 97972, Note_off_c, 0, 70, 64
1, 98080, Note_on_c, 0, 70, 78
1, 98160, Note_on_c, 0, 77, 72
1, 98192, Note_off_c, 0, 53, 64
1, 98196, Note_off_c, 0, 46, 64
1, 98200, Note_off_c, 0, 61, 64
1, 98200, Note_off_c, 0, 70, 64
1, 98248, Note_off_c, 0, 77, 64
1, 98360, Note_on_c, 0, 77, 58
1, 98392, Note_on_c, 0, 46, 60
1, 98416, Note_on_c, 0, 75, 64
1, 98428, Control_c, 0, 64, 0
1, 98452, Note_off_c, 0, 77, 64
1, 98456, Note_on_c, 0, 53, 48
1, 98464, Note_on_c, 0, 61, 60
1, 98500, Note_off_c, 0, 46, 64
1, 98500, Control_c, 0, 64, 127
1, 98512, Note_off_c, 0, 53, 64
1, 98536, Note_off_c, 0, 61, 64
1, 98696, Note_on_c, 0, 46, 55
1, 98708, Note_on_c, 0, 55, 58
1, 98728, Control_c, 0, 64, 0
1, 98744, Note_on_c, 0, 73, 70
1, 98752, Note_on_c, 0, 61, 64
1, 98776, Note_off_c, 0, 75, 64
1, 98832, Control_c, 0, 64, 127
1, 98948, Note_off_c, 0, 55, 64
1, 98960, Note_off_c, 0, 46, 64
1, 98996, Note_off_c, 0, 61, 64
1, 99024, Note_on_c, 0, 72, 65
1, 99052, Note_off_c, 0, 73, 64
1, 99140, Note_on_c, 0, 70, 77
1, 99168, Note_off_c, 0, 72, 64
1, 99248, Note_on_c, 0, 48, 54
1, 99264, Note_on_c, 0, 56, 49
1, 99264, Control_c, 0, 64, 0
1, 99276, Note_on_c, 0, 72, 69
1, 99280, Note_on_c, 0, 60, 57
1, 99292, Note_off_c, 0, 70, 64
1, 99348, Note_off_c, 0, 48, 64
1, 99352, Note_off_c, 0, 56, 64
1, 99360, Note_off_c, 0, 60, 64
1, 99376, Control_c, 0, 64, 127
1, 99580, Control_c, 0, 64, 0
1, 99588, Note_on_c, 0, 56, 63
1, 99588, Note_on_c, 0, 68, 63
1, 99596, Note_on_c, 0, 60, 55
1, 99608, Note_on_c, 0, 48, 55
1, 99628, Note_off_c, 0, 72, 64
1, 99700, Control_c, 0, 64, 127
1, 99872, Control_c, 0, 64, 0
1, 99896, Note_off_c, 0, 48, 64
1, 99896, Note_on_c, 0, 65, 74
1, 99916, Note_off_c, 0, 68, 64
1, 99920, Note_off_c, 0, 56, 64
1, 99920, Note_off_c, 0, 60, 64
1, 99948, Control_c, 0, 64, 127
1, 100100, Note_on_c, 0, 49, 28
1, 100144, Note_on_c, 0, 56, 34
1, 100168, Note_on_c, 0, 59, 55
1, 100176, Control_c, 0, 64, 0
1, 100256, Control_c, 0, 64, 127
1, 100260, Note_off_c, 0, 56, 64
1, 100264, Note_off_c, 0, 49, 64
1, 100312, Note_off_c, 0, 59, 64
1, 100480, Control_c, 0, 64, 0
1, 100492, Note_on_c, 0, 59, 51
1, 100500, Note_on_c, 0, 49, 40
1, 100504, Note_on_c, 0, 56, 25
1, 100576, Control_c, 0, 64, 127
1, 100752, Note_off_c, 0, 49, 64
1, 100760, Note_off_c, 0, 56, 64
1, 100764, Note_on_c, 0, 68, 64
1, 100788, Note_off_c, 0, 59, 64
1, 100872, Note_off_c, 0, 65, 64
1, 100972, Note_on_c, 0, 48, 43
1, 100980, Note_on_c, 0, 67, 63
1, 101004, Note_on_c, 0, 56, 48
1, 101032, Control_c, 0, 64, 0
1, 101040, Note_off_c, 0, 68, 64
1, 101044, Note_on_c, 0, 65, 72
1, 101064, Note_on_c, 0, 60, 48
1, 101072, Note_off_c, 0, 67, 64
1, 101080, Note_off_c, 0, 48, 64
1, 101096, Note_off_c, 0, 56, 64
1, 101120, Control_c, 0, 64, 127
1, 101132, Note_off_c, 0, 60, 64
1, 101324, Note_on_c, 0, 48, 25
1, 101332, Note_on_c, 0, 56, 35
1, 101348, Control_c, 0, 64, 0
1, 101360, Note_off_c, 0, 65, 64
1, 101360, Note_on_c, 0, 72, 72
1, 101364, Note_on_c, 0, 60, 49
1, 101444, Control_c, 0, 64, 127
1, 101492, Note_off_c, 0, 60, 64
1, 101500, Note_off_c, 0, 56, 64
1, 101528, Note_off_c, 0, 48, 64
1, 101652, Note_on_c, 0, 60, 57
1, 101688, Note_off_c, 0, 72, 64
1, 101852, Note_on_c, 0, 48, 36
1, 101920, Note_on_c, 0, 58, 41
1, 101928, Control_c, 0, 64, 0
1, 101960, Note_off_c, 0, 48, 64
1, 101972, Note_on_c, 0, 64, 42
1, 102020, Note_off_c, 0, 58, 64
1, 102024, Control_c, 0, 64, 127
1, 102048, Note_off_c, 0, 64, 64
1, 102244, Note_on_c, 0, 58, 31
1, 102252, Note_on_c, 0, 64, 28
1, 102252, Control_c, 0, 64, 0
1, 102256, Note_on_c, 0, 48, 13
1, 102320, Control_c, 0, 64, 127
1, 102508, Note_off_c, 0, 60, 64
1, 102524, Control_c, 0, 64, 0
1, 102532, Note_off_c, 0, 64, 64
1, 102536, Note_on_c, 0, 68, 60
1, 102544, Note_off_c, 0, 58, 64
1, 102580, Note_off_c, 0, 48, 64
1, 102584, Control_c, 0, 64, 127
1, 102712, Note_on_c, 0, 67, 66
1, 102728, Note_off_c, 0, 68, 64
1, 102752, Note_on_c, 0, 48, 42
1, 102768, Note_on_c, 0, 56, 47
1, 102808, Note_on_c, 0, 60, 36
1, 102816, Note_on_c, 0, 65, 63
1, 102832, Control_c, 0, 64, 0
1, 102848, Note_off_c, 0, 67, 64
1, 102872, Note_off_c, 0, 56, 64
1, 102876, Note_off_c, 0, 48, 64
1, 102884, Control_c, 0, 64, 127
1, 102896, Note_off_c, 0, 60, 64
1, 102972, Note_on_c, 0, 72, 72
1, 103020, Note_off_c, 0, 65, 64
1, 103088, Control_c, 0, 64, 0
1, 103092, Note_on_c, 0, 56, 40
1, 103112, Note_on_c, 0, 75, 66
1, 103112, Note_on_c, 0, 60, 40
1, 103128, Note_on_c, 0, 48, 25
1, 103136, Note_off_c, 0, 72, 64
1, 103160, Control_c, 0, 64, 127
1, 103240, Note_on_c, 0, 73, 70
1, 103264, Note_off_c, 0, 75, 64
1, 103316, Note_off_c, 0, 56, 64
1, 103316, Note_off_c, 0, 48, 64
1, 103324, Note_off_c, 0, 60, 64
1, 103364, Control_c, 0, 64, 0
1, 103380, Note_on_c, 0, 60, 78
1, 103412, Note_off_c, 0, 73, 64
1, 103416, Control_c, 0, 64, 127
1, 103576, Note_on_c, 0, 48, 36
1, 103640, Note_on_c, 0, 55, 41
1, 103672, Control_c, 0, 64, 0
1, 103680, Note_on_c, 0, 64, 40
1, 103684, Note_off_c, 0, 48, 64
1, 103740, Note_off_c, 0, 55, 64
1, 103752, Control_c, 0, 64, 127
1, 103764, Note_off_c, 0, 64, 64
1, 103992, Note_on_c, 0, 48, 25
1, 104020, Note_on_c, 0, 55, 37
1, 104052, Control_c, 0, 64, 0
1, 104060, Note_on_c, 0, 64, 36
1, 104116, Control_c, 0, 64, 127
1, 104188, Note_off_c, 0, 55, 64
1, 104212, Note_off_c, 0, 64, 64
1, 104396, Note_off_c, 0, 48, 64
1, 104428, Note_on_c, 0, 65, 72
1, 104444, Note_off_c, 0, 60, 64
1, 104764, Note_on_c, 0, 48, 48
1, 104768, Note_on_c, 0, 57, 57
1, 104780, Control_c, 0, 64, 0
1, 104904, Control_c, 0, 64, 127
1, 105148, Note_on_c, 0, 41, 59
1, 105172, Control_c, 0, 64, 0
1, 105188, Control_c, 0, 64, 127
1, 105236, Note_off_c, 0, 57, 64
1, 105360, Note_off_c, 0, 48, 64
1, 105416, Note_off_c, 0, 41, 64
1, 105444, Note_on_c, 0, 78, 52
1, 105540, Note_off_c, 0, 65, 64
1, 105580, Note_on_c, 0, 77, 48
1, 105608, Note_off_c, 0, 78, 64
1, 105704, Control_c, 0, 64, 0
1, 105716, Note_on_c, 0, 63, 49
1, 105720, Note_on_c, 0, 53, 25
1, 105728, Note_on_c, 0, 75, 55
1, 105736, Note_on_c, 0, 57, 35
1, 105748, Note_off_c, 0, 77, 64
1, 105768, Control_c, 0, 64, 127
1, 105800, Note_off_c, 0, 63, 64
1, 105800, Note_off_c, 0, 57, 64
1, 105824, Note_off_c, 0, 53, 64
1, 106016, Note_on_c, 0, 73, 55
1, 106020, Note_on_c, 0, 41, 35
1, 106032, Control_c, 0, 64, 0
1, 106048, Note_off_c, 0, 75, 64
1, 106092, Control_c, 0, 64, 127
1, 106140, Note_on_c, 0, 72, 58
1, 106160, Note_off_c, 0, 73, 64
1, 106196, Note_off_c, 0, 41, 64
1, 106272, Note_on_c, 0, 77, 58
1, 106340, Note_off_c, 0, 72, 64
1, 106392, Note_on_c, 0, 75, 64
1, 106432, Note_off_c, 0, 77, 64
1, 106528, Note_on_c, 0, 58, 51
1, 106536, Note_on_c, 0, 61, 49
1, 106536, Note_on_c, 0, 53, 43
1, 106544, Note_on_c, 0, 73, 55
1, 106560, Control_c, 0, 64, 0
1, 106576, Note_off_c, 0, 75, 64
1, 106596, Control_c, 0, 64, 127
1, 106600, Note_off_c, 0, 61, 64
1, 106608, Note_off_c, 0, 58, 64
1, 106608, Note_off_c, 0, 53, 64
1, 106824, Note_on_c, 0, 72, 55
1, 106836, Control_c, 0, 64, 0
1, 106840, Note_off_c, 0, 73, 64
1, 106848, Note_on_c, 0, 41, 55
1, 106900, Control_c, 0, 64, 127
1, 106952, Note_on_c, 0, 70, 64
1, 106996, Note_off_c, 0, 72, 64
1, 107040, Note_off_c, 0, 41, 64
1, 107088, Note_on_c, 0, 73, 55
1, 107100, Note_off_c, 0, 70, 64
1, 107212, Note_on_c, 0, 72, 58
1, 107264, Note_off_c, 0, 73, 64
1, 107328, Note_on_c, 0, 70, 64
1, 107348, Note_on_c, 0, 61, 47
1, 107360, Control_c, 0, 64, 0
1, 107368, Note_off_c, 0, 72, 64
1, 107368, Note_on_c, 0, 52, 43
1, 107412, Control_c, 0, 64, 127
1, 107444, Note_off_c, 0, 61, 64
1, 107444, Note_off_c, 0, 52, 64
1, 107620, Note_on_c, 0, 66, 51
1, 107644, Note_on_c, 0, 41, 48
1, 107656, Control_c, 0, 64, 0
1, 107664, Note_off_c, 0, 70, 64
1, 107720, Control_c, 0, 64, 127
1, 107816, Note_off_c, 0, 41, 64
1, 107904, Note_on_c, 0, 65, 52
1, 107928, Note_off_c, 0, 66, 64
1, 108180, Note_on_c, 0, 57, 35
1, 108184, Note_on_c, 0, 60, 35
1, 108192, Note_on_c, 0, 48, 26
1, 108200, Control_c, 0, 64, 0
1, 108232, Control_c, 0, 64, 127
1, 108268, Note_off_c, 0, 60, 64
1, 108288, Note_off_c, 0, 57, 64
1, 108296, Note_off_c, 0, 48, 64
1, 108476, Note_on_c, 0, 41, 37
1, 108488, Note_on_c, 0, 77, 57
1, 108488, Control_c, 0, 64, 0
1, 108556, Note_off_c, 0, 65, 64
1, 108560, Control_c, 0, 64, 127
1, 108692, Note_off_c, 0, 41, 64
1, 108864, Note_on_c, 0, 78, 57
1, 108896, Note_off_c, 0, 77, 64
1, 109016, Note_on_c, 0, 77, 57
1, 109080, Note_off_c, 0, 78, 64
1, 109136, Note_on_c, 0, 75, 60
1, 109140, Note_on_c, 0, 63, 42
1, 109152, Note_on_c, 0, 53, 37
1, 109156, Note_on_c, 0, 57, 43
1, 109156, Control_c, 0, 64, 0
1, 109168, Note_off_c, 0, 77, 64
1, 109208, Control_c, 0, 64, 127
1, 109228, Note_off_c, 0, 63, 64
1, 109232, Note_off_c, 0, 57, 64
1, 109240, Note_off_c, 0, 53, 64
1, 109416, Note_on_c, 0, 73, 49
1, 109440, Note_on_c, 0, 41, 37
1, 109440, Control_c, 0, 64, 0
1, 109456, Note_off_c, 0, 75, 64
1, 109488, Control_c, 0, 64, 127
1, 109548, Note_on_c, 0, 72, 58
1, 109568, Note_off_c, 0, 73, 64
1, 109616, Note_off_c, 0, 41, 64
1, 109656, Control_c, 0, 64, 0
1, 109664, Note_on_c, 0, 77, 58
1, 109724, Control_c, 0, 64, 127
1, 109784, Note_on_c, 0, 75, 57
1, 109792, Note_off_c, 0, 72, 64
1, 109812, Note_off_c, 0, 77, 64
1, 109912, Note_on_c, 0, 73, 60
1, 109920, Note_on_c, 0, 61, 46
1, 109924, Note_on_c, 0, 58, 37
1, 109932, Note_on_c, 0, 53, 41
1, 109956, Note_off_c, 0, 75, 64
1, 109992, Note_off_c, 0, 61, 64
1, 110008, Note_off_c, 0, 58, 64
1, 110016, Note_off_c, 0, 53, 64
1, 110192, Note_on_c, 0, 72, 52
1, 110204, Control_c, 0, 64, 0
1, 110212, Note_off_c, 0, 73, 64
1, 110212, Note_on_c, 0, 41, 31
1, 110252, Control_c, 0, 64, 127
1, 110308, Note_on_c, 0, 70, 64
1, 110356, Note_off_c, 0, 72, 64
1, 110420, Note_off_c, 0, 41, 64
1, 110444, Note_on_c, 0, 73, 54
1, 110464, Note_off_c, 0, 70, 64
1, 110560, Note_on_c, 0, 72, 54
1, 110564, Note_off_c, 0, 73, 64
1, 110696, Note_on_c, 0, 70, 63
1, 110704, Note_on_c, 0, 61, 28
1, 110704, Note_on_c, 0, 52, 48
1, 110712, Control_c, 0, 64, 0
1, 110732, Note_off_c, 0, 72, 64
1, 110780, Control_c, 0, 64, 127
1, 110808, Note_off_c, 0, 61, 64
1, 110816, Note_off_c, 0, 52, 64
1, 110976, Note_on_c, 0, 66, 52
1, 110992, Note_on_c, 0, 41, 46
1, 111008, Control_c, 0, 64, 0
1, 111024, Note_off_c, 0, 70, 64
1, 111060, Control_c, 0, 64, 127
1, 111180, Note_off_c, 0, 41, 64
1, 111236, Control_c, 0, 64, 0
1, 111240, Note_on_c, 0, 65, 55
1, 111272, Note_off_c, 0, 66, 64
1, 111288, Control_c, 0, 64, 127
1, 111512, Note_on_c, 0, 60, 34
1, 111528, Note_on_c, 0, 48, 37
1, 111536, Note_on_c, 0, 57, 23
1, 111580, Note_off_c, 0, 57, 64
1, 111584, Note_off_c, 0, 60, 64
1, 111600, Note_off_c, 0, 48, 64
1, 111780, Note_on_c, 0, 41, 49
1, 111788, Note_on_c, 0, 72, 55
1, 111800, Control_c, 0, 64, 0
1, 111832, Note_off_c, 0, 65, 64
1, 111880, Control_c, 0, 64, 127
1, 112004, Note_off_c, 0, 41, 64
1, 112036, Note_on_c, 0, 73, 57
1, 112044, Note_off_c, 0, 72, 64
1, 112148, Note_on_c, 0, 72, 58
1, 112216, Note_off_c, 0, 73, 64
1, 112288, Note_on_c, 0, 51, 54
1, 112296, Note_on_c, 0, 70, 66
1, 112300, Note_on_c, 0, 61, 48
1, 112304, Note_on_c, 0, 58, 48
1, 112308, Control_c, 0, 64, 0
1, 112320, Note_off_c, 0, 72, 64
1, 112376, Control_c, 0, 64, 127
1, 112444, Note_off_c, 0, 61, 64
1, 112452, Note_off_c, 0, 58, 64
1, 112464, Note_off_c, 0, 51, 64
1, 112628, Note_on_c, 0, 66, 55
1, 112632, Note_on_c, 0, 41, 51
1, 112644, Control_c, 0, 64, 0
1, 112680, Note_off_c, 0, 70, 64
1, 112728, Control_c, 0, 64, 127
1, 112824, Note_off_c, 0, 41, 64
1, 112908, Note_on_c, 0, 65, 60
1, 112924, Note_off_c, 0, 66, 64
1, 113164, Note_on_c, 0, 57, 49
1, 113172, Note_on_c, 0, 60, 41
1, 113176, Note_on_c, 0, 51, 51
1, 113188, Control_c, 0, 64, 0
1, 113236, Control_c, 0, 64, 127
1, 113252, Note_off_c, 0, 60, 64
1, 113260, Note_off_c, 0, 57, 64
1, 113272, Note_off_c, 0, 51, 64
1, 113488, Note_on_c, 0, 41, 42
1, 113492, Note_on_c, 0, 72, 72
1, 113512, Control_c, 0, 64, 0
1, 113532, Note_off_c, 0, 65, 64
1, 113588, Control_c, 0, 64, 127
1, 113704, Note_off_c, 0, 41, 64
1, 113772, Note_on_c, 0, 73, 72
1, 113800, Note_off_c, 0, 72, 64
1, 113880, Note_on_c, 0, 72, 63
1, 113888, Note_off_c, 0, 73, 64
1, 114064, Note_on_c, 0, 70, 77
1, 114064, Note_on_c, 0, 61, 51
1, 114064, Note_on_c, 0, 58, 43
1, 114064, Note_on_c, 0, 51, 41
1, 114084, Control_c, 0, 64, 0
1, 114088, Note_off_c, 0, 72, 64
1, 114144, Control_c, 0, 64, 127
1, 114172, Note_off_c, 0, 61, 64
1, 114180, Note_off_c, 0, 58, 64
1, 114200, Note_off_c, 0, 51, 64
1, 114424, Note_on_c, 0, 41, 37
1, 114428, Note_on_c, 0, 66, 66
1, 114448, Note_off_c, 0, 70, 64
1, 114448, Control_c, 0, 64, 0
1, 114508, Control_c, 0, 64, 127
1, 114700, Note_off_c, 0, 41, 64
1, 114724, Note_on_c, 0, 63, 64
1, 114752, Note_off_c, 0, 66, 64
1, 114860, Note_on_c, 0, 64, 70
1, 114880, Note_off_c, 0, 63, 64
1, 115024, Note_on_c, 0, 57, 40
1, 115032, Note_on_c, 0, 51, 52
1, 115040, Note_on_c, 0, 65, 64
1, 115048, Note_on_c, 0, 60, 41
1, 115052, Note_off_c, 0, 64, 64
1, 115072, Control_c, 0, 64, 0
1, 115176, Control_c, 0, 64, 127
1, 115288, Note_off_c, 0, 57, 64
1, 115308, Note_off_c, 0, 51, 64
1, 115328, Note_on_c, 0, 68, 60
1, 115340, Note_off_c, 0, 60, 64
1, 115376, Note_off_c, 0, 65, 64
1, 115464, Note_on_c, 0, 66, 64
1, 115504, Note_off_c, 0, 68, 64
1, 115576, Note_on_c, 0, 60, 52
1, 115600, Control_c, 0, 64, 0
1, 115676, Note_off_c, 0, 66, 64
1, 115680, Control_c, 0, 64, 127
1, 115704, Note_on_c, 0, 61, 60
1, 115740, Note_off_c, 0, 60, 64
1, 115848, Note_on_c, 0, 62, 60
1, 115896, Note_off_c, 0, 61, 64
1, 115920, Control_c, 0, 64, 0
1, 116012, Control_c, 0, 64, 127
1, 116128, Note_on_c, 0, 65, 60
1, 116164, Note_off_c, 0, 62, 64
1, 116252, Note_on_c, 0, 63, 60
1, 116300, Note_off_c, 0, 65, 64
1, 116416, Note_on_c, 0, 52, 63
1, 116432, Control_c, 0, 64, 0
1, 116520, Note_off_c, 0, 63, 64
1, 116548, Note_on_c, 0, 53, 64
1, 116568, Note_off_c, 0, 52, 64
1, 116600, Control_c, 0, 64, 127
1, 116676, Control_c, 0, 64, 0
1, 116732, Note_on_c, 0, 63, 60
1, 116800, Note_off_c, 0, 53, 64
1, 116832, Control_c, 0, 64, 127
1, 117048, Note_on_c, 0, 53, 60
1, 117084, Control_c, 0, 64, 0
1, 117156, Control_c, 0, 64, 127
1, 117188, Note_on_c, 0, 54, 57
1, 117224, Note_off_c, 0, 63, 64
1, 117232, Note_off_c, 0, 53, 64
1, 117356, Control_c, 0, 64, 0
1, 117384, Note_on_c, 0, 63, 51
1, 117436, Note_off_c, 0, 54, 64
1, 117436, Control_c, 0, 64, 127
1, 117552, Note_on_c, 0, 55, 63
1, 117592, Note_off_c, 0, 63, 64
1, 117728, Note_on_c, 0, 56, 58
1, 117748, Control_c, 0, 64, 0
1, 117760, Note_off_c, 0, 55, 64
1, 117860, Control_c, 0, 64, 127
1, 118152, Note_on_c, 0, 63, 55
1, 118164, Control_c, 0, 64, 0
1, 118216, Note_off_c, 0, 56, 64
1, 118232, Control_c, 0, 64, 127
1, 118332, Note_on_c, 0, 57, 52
1, 118344, Note_off_c, 0, 63, 64
1, 118548, Note_on_c, 0, 58, 51
1, 118560, Note_on_c, 0, 62, 48
1, 118568, Note_on_c, 0, 46, 48
1, 118576, Control_c, 0, 64, 0
1, 118588, Note_on_c, 0, 53, 26
1, 118596, Note_off_c, 0, 57, 64
1, 118788, Note_on_c, 0, 43, 40
1, 118828, Note_off_c, 0, 46, 64
1, 118896, Note_on_c, 0, 41, 58
1, 118936, Control_c, 0, 64, 127
1, 118960, Note_off_c, 0, 43, 64
1, 119216, Note_on_c, 0, 63, 54
1, 119220, Note_on_c, 0, 46, 51
1, 119240, Control_c, 0, 64, 0
1, 119256, Note_off_c, 0, 62, 64
1, 119264, Note_off_c, 0, 41, 64
1, 119308, Control_c, 0, 64, 127
1, 119516, Note_on_c, 0, 65, 52
1, 119576, Note_off_c, 0, 63, 64
1, 119608, Note_off_c, 0, 65, 64
1, 119720, Note_on_c, 0, 65, 42
1, 119720, Note_on_c, 0, 63, 42
1, 119728, Note_on_c, 0, 57, 47
1, 119732, Note_off_c, 0, 58, 64
1, 119732, Note_on_c, 0, 47, 32
1, 119752, Note_off_c, 0, 46, 64
1, 119800, Control_c, 0, 64, 0
1, 119804, Note_off_c, 0, 65, 64
1, 119804, Note_off_c, 0, 63, 64
1, 119808, Note_off_c, 0, 57, 64
1, 119808, Note_on_c, 0, 48, 55
1, 119812, Note_on_c, 0, 65, 54
1, 119816, Note_off_c, 0, 47, 64
1, 119816, Note_on_c, 0, 63, 54
1, 119816, Note_on_c, 0, 55, 60
1, 119840, Control_c, 0, 64, 0
1, 119932, Control_c, 0, 64, 127
1, 120004, Note_on_c, 0, 50, 55
1, 120016, Note_off_c, 0, 65, 64
1, 120024, Note_off_c, 0, 63, 64
1, 120028, Note_off_c, 0, 48, 64
1, 120032, Note_off_c, 0, 55, 64
1, 120136, Note_on_c, 0, 65, 52
1, 120136, Note_on_c, 0, 57, 55
1, 120144, Note_on_c, 0, 48, 54
1, 120144, Note_on_c, 0, 63, 52
1, 120164, Note_off_c, 0, 50, 64
1, 120184, Control_c, 0, 64, 0
1, 120244, Control_c, 0, 64, 127
1, 120392, Note_off_c, 0, 65, 64
1, 120400, Note_off_c, 0, 63, 64
1, 120416, Note_off_c, 0, 57, 64
1, 120456, Note_on_c, 0, 58, 55
1, 120464, Note_on_c, 0, 62, 55
1, 120468, Note_on_c, 0, 46, 54
1, 120484, Control_c, 0, 64, 0
1, 120496, Note_off_c, 0, 48, 64
1, 120572, Control_c, 0, 64, 127
1, 120672, Note_on_c, 0, 43, 35
1, 120680, Note_off_c, 0, 46, 64
1, 120744, Control_c, 0, 64, 0
1, 120760, Note_on_c, 0, 41, 60
1, 120816, Note_off_c, 0, 43, 64
1, 120824, Control_c, 0, 64, 127
1, 121044, Note_off_c, 0, 58, 64
1, 121068, Note_off_c, 0, 53, 64
1, 121080, Note_on_c, 0, 58, 57
1, 121080, Note_on_c, 0, 40, 48
1, 121084, Note_on_c, 0, 67, 58
1, 121088, Note_off_c, 0, 41, 64
1, 121096, Note_on_c, 0, 48, 48
1, 121104, Control_c, 0, 64, 0
1, 121112, Note_off_c, 0, 62, 64
1, 121184, Control_c, 0, 64, 127
1, 121348, Note_off_c, 0, 58, 64
1, 121376, Note_on_c, 0, 58, 54
1, 121384, Note_on_c, 0, 60, 55
1, 121384, Note_on_c, 0, 41, 52
1, 121392, Note_off_c, 0, 67, 64
1, 121400, Note_off_c, 0, 40, 64
1, 121408, Control_c, 0, 64, 0
1, 121484, Control_c, 0, 64, 127
1, 121488, Note_off_c, 0, 58, 64
1, 121496, Note_off_c, 0, 60, 64
1, 121596, Note_off_c, 0, 41, 64
1, 121596, Note_on_c, 0, 60, 55
1, 121600, Note_on_c, 0, 57, 55
1, 121616, Note_on_c, 0, 36, 64
1, 121656, Note_off_c, 0, 60, 64
1, 121656, Note_off_c, 0, 57, 64
1, 121680, Note_on_c, 0, 60, 55
1, 121688, Note_on_c, 0, 55, 64
1, 121692, Control_c, 0, 64, 0
1, 121716, Note_on_c, 0, 41, 51
1, 121728, Note_off_c, 0, 36, 64
1, 121792, Control_c, 0, 64, 127
1, 122000, Note_off_c, 0, 60, 64
1, 122000, Note_off_c, 0, 41, 64
1, 122012, Note_off_c, 0, 55, 64
1, 122016, Note_on_c, 0, 60, 57
1, 122024, Note_on_c, 0, 57, 64
1, 122024, Note_on_c, 0, 36, 54
1, 122040, Control_c, 0, 64, 0
1, 122072, Note_off_c, 0, 48, 64
1, 122128, Control_c, 0, 64, 127
1, 122176, Note_off_c, 0, 57, 64
1, 122204, Note_off_c, 0, 36, 64
1, 122224, Note_off_c, 0, 60, 64
1, 122344, Note_on_c, 0, 60, 55
1, 122352, Note_on_c, 0, 56, 63
1, 122360, Note_on_c, 0, 41, 54
1, 122368, Note_on_c, 0, 48, 40
1, 122368, Control_c, 0, 64, 0
1, 122460, Control_c, 0, 64, 127
1, 122560, Note_on_c, 0, 37, 57
1, 122596, Note_off_c, 0, 41, 64
1, 122624, Control_c, 0, 64, 0
1, 122660, Note_on_c, 0, 36, 52
1, 122704, Note_off_c, 0, 37, 64
1, 122748, Control_c, 0, 64, 127
1, 122976, Note_off_c, 0, 36, 64
1, 122980, Note_on_c, 0, 41, 54
1, 122988, Note_on_c, 0, 62, 60
1, 122996, Note_off_c, 0, 60, 64
1, 123000, Control_c, 0, 64, 0
1, 123088, Control_c, 0, 64, 127
1, 123292, Note_on_c, 0, 63, 60
1, 123300, Note_on_c, 0, 55, 52
1, 123304, Note_on_c, 0, 36, 57
1, 123308, Note_off_c, 0, 62, 64
1, 123320, Note_off_c, 0, 56, 64
1, 123320, Control_c, 0, 64, 0
1, 123332, Note_off_c, 0, 41, 64
1, 123356, Control_c, 0, 64, 127
1, 123376, Note_off_c, 0, 48, 64
1, 123416, Note_off_c, 0, 55, 64
1, 123428, Note_off_c, 0, 63, 64
1, 123532, Note_on_c, 0, 63, 63
1, 123584, Note_off_c, 0, 63, 64
1, 123616, Note_on_c, 0, 63, 63
1, 123620, Note_on_c, 0, 58, 74
1, 123620, Note_on_c, 0, 55, 42
1, 123636, Note_on_c, 0, 48, 54
1, 123660, Control_c, 0, 64, 0
1, 123784, Control_c, 0, 64, 127
1, 123788, Note_off_c, 0, 36, 64
1, 124016, Note_off_c, 0, 55, 64
1, 124040, Note_off_c, 0, 48, 64
1, 124100, Note_off_c, 0, 58, 64
1, 124100, Note_on_c, 0, 62, 54
1, 124132, Note_off_c, 0, 63, 64
1, 124260, Note_on_c, 0, 51, 59
1, 124264, Note_on_c, 0, 41, 57
1, 124264, Note_on_c, 0, 60, 63
1, 124284, Control_c, 0, 64, 0
1, 124292, Note_off_c, 0, 62, 64
1, 124344, Control_c, 0, 64, 127
1, 124452, Note_on_c, 0, 59, 46
1, 124460, Note_on_c, 0, 50, 52
1, 124476, Note_off_c, 0, 51, 64
1, 124480, Note_off_c, 0, 60, 64
1, 124528, Control_c, 0, 64, 0
1, 124540, Note_on_c, 0, 60, 63
1, 124548, Note_on_c, 0, 51, 70
1, 124564, Note_off_c, 0, 59, 64
1, 124572, Note_off_c, 0, 50, 64
1, 124660, Control_c, 0, 64, 127
1, 124840, Note_on_c, 0, 62, 65
1, 124848, Note_on_c, 0, 47, 58
1, 124848, Note_on_c, 0, 56, 60
1, 124856, Control_c, 0, 64, 0
1, 124868, Note_off_c, 0, 60, 64
1, 124876, Note_off_c, 0, 51, 64
1, 124936, Control_c, 0, 64, 127
1, 125164, Note_on_c, 0, 48, 72
1, 125176, Note_on_c, 0, 55, 70
1, 125176, Note_on_c, 0, 63, 70
1, 125184, Note_off_c, 0, 62, 64
1, 125192, Note_off_c, 0, 47, 64
1, 125192, Note_off_c, 0, 56, 64
1, 125192, Control_c, 0, 64, 0
1, 125252, Control_c, 0, 64, 127
1, 125368, Note_on_c, 0, 46, 63
1, 125384, Note_on_c, 0, 64, 65
1, 125384, Note_on_c, 0, 54, 77
1, 125404, Note_off_c, 0, 41, 64
1, 125404, Note_off_c, 0, 48, 64
1, 125416, Note_off_c, 0, 55, 64
1, 125416, Note_off_c, 0, 63, 64
1, 125468, Note_on_c, 0, 45, 48
1, 125472, Note_on_c, 0, 65, 64
1, 125480, Note_on_c, 0, 53, 81
1, 125488, Control_c, 0, 64, 0
1, 125496, Note_off_c, 0, 46, 64
1, 125496, Note_off_c, 0, 64, 64
1, 125512, Note_off_c, 0, 54, 64
1, 125564, Control_c, 0, 64, 127
1, 125716, Note_off_c, 0, 53, 64
1, 125728, Note_off_c, 0, 45, 64
1, 125740, Note_off_c, 0, 65, 64
1, 125792, Note_on_c, 0, 41, 65
1, 125848, Note_on_c, 0, 57, 70
1, 125848, Control_c, 0, 64, 0
1, 125860, Note_on_c, 0, 73, 88
1, 125860, Note_on_c, 0, 63, 87
1, 125940, Control_c, 0, 64, 127
1, 126172, Note_on_c, 0, 46, 57
1, 126212, Note_on_c, 0, 53, 52
1, 126236, Note_off_c, 0, 41, 64
1, 126240, Control_c, 0, 64, 0
1, 126248, Note_on_c, 0, 70, 72
1, 126256, Note_off_c, 0, 73, 64
1, 126256, Note_on_c, 0, 74, 74
1, 126256, Note_on_c, 0, 58, 72
1, 126260, Note_on_c, 0, 62, 78
1, 126264, Note_off_c, 0, 63, 64
1, 126304, Note_off_c, 0, 57, 64
1, 126320, Control_c, 0, 64, 127
1, 126364, Note_off_c, 0, 46, 64
1, 126412, Note_off_c, 0, 53, 64
1, 126436, Note_off_c, 0, 58, 64
1, 126500, Note_on_c, 0, 43, 60
1, 126572, Control_c, 0, 64, 0
1, 126592, Note_on_c, 0, 41, 78
1, 126640, Note_off_c, 0, 43, 64
1, 126652, Control_c, 0, 64, 127
1, 126896, Note_off_c, 0, 70, 64
1, 126904, Note_off_c, 0, 62, 64
1, 126904, Note_on_c, 0, 75, 71
1, 126908, Note_on_c, 0, 46, 63
1, 126916, Note_on_c, 0, 53, 58
1, 126916, Note_on_c, 0, 70, 66
1, 126920, Note_on_c, 0, 63, 78
1, 126936, Note_off_c, 0, 74, 64
1, 126944, Control_c, 0, 64, 0
1, 127000, Note_off_c, 0, 41, 64
1, 127008, Control_c, 0, 64, 127
1, 127188, Note_off_c, 0, 75, 64
1, 127196, Note_off_c, 0, 70, 64
1, 127196, Note_off_c, 0, 63, 64
1, 127212, Note_on_c, 0, 65, 69
1, 127212, Note_on_c, 0, 77, 69
1, 127212, Note_on_c, 0, 70, 71
1, 127216, Note_on_c, 0, 75, 66
1, 127396, Note_off_c, 0, 65, 64
1, 127396, Note_off_c, 0, 77, 64
1, 127396, Note_off_c, 0, 75, 64
1, 127408, Note_on_c, 0, 75, 74
1, 127416, Note_on_c, 0, 77, 74
1, 127416, Note_on_c, 0, 69, 72
1, 127416, Note_on_c, 0, 65, 64
1, 127416, Note_on_c, 0, 47, 64
1, 127432, Note_off_c, 0, 46, 64
1, 127436, Note_off_c, 0, 70, 64
1, 127464, Note_off_c, 0, 75, 64
1, 127472, Note_off_c, 0, 77, 64
1, 127480, Note_off_c, 0, 65, 64
1, 127496, Note_on_c, 0, 65, 63
1, 127496, Note_on_c, 0, 48, 65
1, 127504, Note_on_c, 0, 77, 72
1, 127504, Note_on_c, 0, 75, 71
1, 127504, Note_on_c, 0, 67, 64
1, 127516, Control_c, 0, 64, 0
1, 127524, Note_off_c, 0, 47, 64
1, 127528, Note_off_c, 0, 69, 64
1, 127576, Control_c, 0, 64, 127
1, 127600, Note_off_c, 0, 67, 64
1, 127624, Note_off_c, 0, 75, 64
1, 127680, Note_on_c, 0, 51, 88
1, 127720, Note_off_c, 0, 48, 64
1, 127776, Note_off_c, 0, 65, 64
1, 127776, Note_off_c, 0, 77, 64
1, 127824, Note_on_c, 0, 75, 69
1, 127824, Note_on_c, 0, 65, 58
1, 127824, Note_on_c, 0, 50, 81
1, 127832, Note_on_c, 0, 77, 66
1, 127832, Note_on_c, 0, 69, 69
1, 127856, Note_off_c, 0, 51, 64
1, 127856, Control_c, 0, 64, 0
1, 127904, Note_off_c, 0, 75, 64
1, 127908, Note_off_c, 0, 69, 64
1, 127916, Control_c, 0, 64, 127
1, 128000, Note_on_c, 0, 48, 65
1, 128008, Note_off_c, 0, 50, 64
1, 128040, Note_off_c, 0, 77, 64
1, 128044, Note_off_c, 0, 65, 64
1, 128112, Note_off_c, 0, 53, 64
1, 128152, Note_on_c, 0, 74, 82
1, 128156, Note_on_c, 0, 62, 63
1, 128156, Note_on_c, 0, 53, 58
1, 128156, Note_on_c, 0, 70, 80
1, 128164, Note_on_c, 0, 46, 88
1, 128176, Control_c, 0, 64, 0
1, 128196, Note_off_c, 0, 48, 64
1, 128208, Control_c, 0, 64, 127
1, 128276, Control_c, 0, 64, 127
1, 128348, Note_off_c, 0, 46, 64
1, 128348, Note_on_c, 0, 43, 64
1, 128432, Control_c, 0, 64, 0
1, 128448, Note_on_c, 0, 41, 78
1, 128492, Note_off_c, 0, 43, 64
1, 128496, Control_c, 0, 64, 127
1, 128752, Note_off_c, 0, 70, 64
1, 128768, Note_on_c, 0, 72, 72
1, 128772, Note_on_c, 0, 67, 66
1, 128776, Note_on_c, 0, 70, 77
1, 128776, Note_on_c, 0, 79, 74
1, 128784, Note_off_c, 0, 74, 64
1, 128788, Note_on_c, 0, 40, 69
1, 128792, Note_off_c, 0, 53, 64
1, 128792, Note_off_c, 0, 41, 64
1, 128792, Note_on_c, 0, 48, 63
1, 128804, Control_c, 0, 64, 0
1, 128812, Note_off_c, 0, 62, 64
1, 128856, Tempo, 500000
1, 128856, Control_c, 0, 64, 127
1, 129052, Note_off_c, 0, 70, 64
1, 129064, Note_off_c, 0, 72, 64
1, 129076, Note_on_c, 0, 72, 72
1, 129084, Note_on_c, 0, 70, 72
1, 129092, Note_on_c, 0, 60, 71
1, 129092, Note_on_c, 0, 65, 66
1, 129100, Note_on_c, 0, 41, 66
1, 129108, Control_c, 0, 64, 0
1, 129116, Note_off_c, 0, 79, 64
1, 129124, Note_off_c, 0, 67, 64
1, 129136, Note_off_c, 0, 40, 64
1, 129140, Control_c, 0, 64, 127
1, 129172, Note_off_c, 0, 72, 64
1, 129176, Note_off_c, 0, 65, 64
1, 129188, Note_off_c, 0, 60, 64
1, 129192, Note_off_c, 0, 41, 64
1, 129204, Note_off_c, 0, 70, 64
1, 129296, Note_on_c, 0, 69, 59
1, 129296, Note_on_c, 0, 65, 66
1, 129308, Note_on_c, 0, 60, 64
1, 129312, Note_on_c, 0, 72, 64
1, 129316, Note_on_c, 0, 48, 58
1, 129316, Note_on_c, 0, 36, 77
1, 129344, Note_off_c, 0, 69, 64
1, 129348, Note_off_c, 0, 60, 64
1, 129356, Note_off_c, 0, 65, 64
1, 129360, Note_off_c, 0, 72, 64
1, 129380, Note_off_c, 0, 48, 64
1, 129388, Note_on_c, 0, 65, 88
1, 129388, Control_c, 0, 64, 0
1, 129396, Note_on_c, 0, 67, 77
1, 129396, Note_on_c, 0, 60, 72
1, 129404, Note_off_c, 0, 36, 64
1, 129404, Note_on_c, 0, 48, 55
1, 129408, Note_on_c, 0, 72, 66
1, 129412, Note_on_c, 0, 41, 80
1, 129500, Control_c, 0, 64, 127
1, 129592, Note_off_c, 0, 72, 64
1, 129612, Note_off_c, 0, 65, 64
1, 129620, Note_off_c, 0, 60, 64
1, 129632, Note_off_c, 0, 67, 64
1, 129660, Note_off_c, 0, 48, 64
1, 129664, Note_off_c, 0, 41, 64
1, 129740, Note_on_c, 0, 69, 72
1, 129748, Note_on_c, 0, 60, 72
1, 129748, Note_on_c, 0, 48, 66
1, 129752, Note_on_c, 0, 72, 69
1, 129756, Note_on_c, 0, 65, 70
1, 129756, Note_on_c, 0, 36, 78
1, 129772, Control_c, 0, 64, 0
1, 129852, Control_c, 0, 64, 127
1, 129968, Note_off_c, 0, 69, 64
1, 129980, Note_off_c, 0, 48, 64
1, 129980, Note_off_c, 0, 65, 64
1, 129988, Note_off_c, 0, 60, 64
1, 129988, Note_off_c, 0, 72, 64
1, 129988, Note_off_c, 0, 36, 64
1, 130108, Note_on_c, 0, 65, 72
1, 130108, Note_on_c, 0, 68, 88
1, 130116, Note_on_c, 0, 60, 72
1, 130120, Note_on_c, 0, 72, 74
1, 130128, Note_on_c, 0, 48, 66
1, 130128, Note_on_c, 0, 41, 65
1, 130140, Control_c, 0, 64, 0
1, 130244, Control_c, 0, 64, 127
1, 130352, Note_on_c, 0, 37, 64
1, 130360, Note_off_c, 0, 41, 64
1, 130396, Control_c, 0, 64, 0
1, 130460, Note_on_c, 0, 36, 78
1, 130496, Control_c, 0, 64, 127
1, 130504, Note_off_c, 0, 37, 64
1, 130756, Note_off_c, 0, 48, 64
1, 130756, Note_off_c, 0, 48, 64
1, 130760, Note_off_c, 0, 68, 64
1, 130800, Note_on_c, 0, 68, 64
1, 130804, Note_on_c, 0, 62, 66
1, 130804, Note_on_c, 0, 41, 65
1, 130812, Note_on_c, 0, 74, 70
1, 130812, Note_on_c, 0, 48, 63
1, 130828, Note_off_c, 0, 65, 64
1, 130828, Control_c, 0, 64, 0
1, 130836, Note_off_c, 0, 36, 64
1, 130864, Note_off_c, 0, 60, 64
1, 130864, Note_off_c, 0, 72, 64
1, 130888, Control_c, 0, 64, 127
1, 131104, Note_off_c, 0, 48, 64
1, 131132, Note_on_c, 0, 75, 72
1, 131132, Control_c, 0, 64, 0
1, 131144, Note_off_c, 0, 41, 64
1, 131148, Note_on_c, 0, 67, 70
1, 131148, Note_on_c, 0, 63, 80
1, 131148, Note_on_c, 0, 36, 65
1, 131156, Note_on_c, 0, 48, 66
1, 131168, Note_off_c, 0, 68, 64
1, 131168, Note_off_c, 0, 74, 64
1, 131172, Note_off_c, 0, 62, 64
1, 131196, Control_c, 0, 64, 127
1, 131216, Note_off_c, 0, 36, 64
1, 131220, Note_off_c, 0, 67, 64
1, 131224, Note_off_c, 0, 75, 64
1, 131228, Note_off_c, 0, 63, 64
1, 131240, Note_off_c, 0, 48, 64
1, 131428, Note_on_c, 0, 55, 67
1, 131428, Note_on_c, 0, 48, 67
1, 131436, Note_on_c, 0, 63, 79
1, 131484, Note_off_c, 0, 48, 64
1, 131492, Note_off_c, 0, 63, 64
1, 131520, Note_on_c, 0, 63, 87
1, 131524, Note_on_c, 0, 48, 67
1, 131524, Note_on_c, 0, 54, 74
1, 131532, Note_off_c, 0, 55, 64
1, 131548, Control_c, 0, 64, 0
1, 131664, Control_c, 0, 64, 127
1, 132052, Note_on_c, 0, 62, 58
1, 132052, Note_on_c, 0, 55, 54
1, 132060, Note_off_c, 0, 54, 64
1, 132060, Note_on_c, 0, 47, 37
1, 132068, Note_off_c, 0, 63, 64
1, 132080, Note_off_c, 0, 48, 64
1, 132224, Note_on_c, 0, 65, 59
1, 132228, Note_on_c, 0, 50, 55
1, 132232, Note_on_c, 0, 56, 63
1, 132240, Note_off_c, 0, 62, 64
1, 132252, Note_off_c, 0, 47, 64
1, 132252, Control_c, 0, 64, 0
1, 132268, Note_off_c, 0, 55, 64
1, 132300, Control_c, 0, 64, 127
1, 132460, Note_on_c, 0, 64, 55
1, 132460, Note_on_c, 0, 49, 59
1, 132464, Note_on_c, 0, 57, 69
1, 132484, Note_off_c, 0, 65, 64
1, 132488, Note_off_c, 0, 50, 64
1, 132492, Note_off_c, 0, 56, 64
1, 132564, Control_c, 0, 64, 0
1, 132568, Note_on_c, 0, 67, 65
1, 132568, Note_on_c, 0, 52, 54
1, 132576, Note_on_c, 0, 58, 69
1, 132588, Note_off_c, 0, 64, 64
1, 132588, Note_off_c, 0, 49, 64
1, 132592, Note_off_c, 0, 57, 64
1, 132764, Control_c, 0, 64, 127
1, 133076, Note_on_c, 0, 66, 64
1, 133080, Note_on_c, 0, 59, 66
1, 133080, Note_on_c, 0, 51, 58
1, 133088, Note_off_c, 0, 67, 64
1, 133088, Note_off_c, 0, 52, 64
1, 133100, Note_off_c, 0, 58, 64
1, 133244, Note_on_c, 0, 54, 60
1, 133252, Note_on_c, 0, 69, 66
1, 133260, Note_off_c, 0, 51, 64
1, 133260, Note_on_c, 0, 60, 72
1, 133268, Note_off_c, 0, 59, 64
1, 133272, Note_off_c, 0, 66, 64
1, 133276, Control_c, 0, 64, 0
1, 133324, Control_c, 0, 64, 127
1, 133452, Note_on_c, 0, 61, 63
1, 133460, Note_on_c, 0, 68, 64
1, 133460, Note_on_c, 0, 53, 65
1, 133492, Note_off_c, 0, 60, 64
1, 133508, Note_off_c, 0, 69, 64
1, 133512, Note_off_c, 0, 54, 64
1, 133536, Note_on_c, 0, 62, 69
1, 133540, Note_on_c, 0, 65, 69
1, 133540, Note_on_c, 0, 71, 69
1, 133544, Note_on_c, 0, 56, 69
1, 133556, Control_c, 0, 64, 0
1, 133560, Note_off_c, 0, 68, 64
1, 133564, Note_off_c, 0, 61, 64
1, 133572, Note_off_c, 0, 53, 64
1, 133592, Control_c, 0, 64, 0
1, 133728, Control_c, 0, 64, 127
1, 134064, Note_on_c, 0, 55, 72
1, 134068, Control_c, 0, 64, 0
1, 134100, Note_off_c, 0, 56, 64
1, 134100, Control_c, 0, 64, 127
1, 134284, Note_off_c, 0, 62, 64
1, 134284, Note_on_c, 0, 67, 80
1, 134288, Note_off_c, 0, 65, 64
1, 134308, Control_c, 0, 64, 0
1, 134388, Control_c, 0, 64, 127
1, 134408, Note_off_c, 0, 71, 64
1, 134524, Note_off_c, 0, 55, 64
1, 134708, Note_on_c, 0, 65, 60
1, 134728, Control_c, 0, 64, 0
1, 134748, Control_c, 0, 64, 127
1, 134876, Note_on_c, 0, 63, 47
1, 134876, Note_on_c, 0, 72, 63
1, 134892, Note_off_c, 0, 65, 64
1, 135004, Note_on_c, 0, 62, 52
1, 135008, Note_on_c, 0, 71, 54
1, 135012, Note_on_c, 0, 74, 58
1, 135036, Note_off_c, 0, 63, 64
1, 135036, Note_off_c, 0, 72, 64
1, 135124, Note_on_c, 0, 75, 69
1, 135124, Note_on_c, 0, 72, 69
1, 135132, Note_off_c, 0, 62, 64
1, 135140, Note_on_c, 0, 60, 49
1, 135156, Note_off_c, 0, 74, 64
1, 135172, Note_off_c, 0, 71, 64
1, 135264, Note_on_c, 0, 62, 69
1, 135264, Control_c, 0, 64, 0
1, 135276, Note_on_c, 0, 77, 69
1, 135276, Note_on_c, 0, 71, 52
1, 135292, Note_off_c, 0, 60, 64
1, 135296, Note_off_c, 0, 72, 64
1, 135296, Note_off_c, 0, 75, 64
1, 135348, Control_c, 0, 64, 127
1, 135456, Note_off_c, 0, 62, 64
1, 135468, Note_off_c, 0, 77, 64
1, 135468, Note_off_c, 0, 71, 64
1, 135468, Note_on_c, 0, 79, 59
1, 135468, Note_on_c, 0, 55, 63
1, 135516, Note_on_c, 0, 62, 60
1, 135524, Note_on_c, 0, 71, 57
1, 135532, Note_on_c, 0, 77, 65
1, 135544, Note_off_c, 0, 55, 64
1, 135556, Note_off_c, 0, 79, 64
1, 135564, Control_c, 0, 64, 0
1, 135636, Control_c, 0, 64, 127
1, 135840, Note_on_c, 0, 75, 65
1, 135844, Note_on_c, 0, 72, 58
1, 135856, Note_on_c, 0, 60, 55
1, 135888, Control_c, 0, 64, 0
1, 135892, Note_off_c, 0, 62, 64
1, 135900, Note_off_c, 0, 71, 64
1, 135908, Note_off_c, 0, 77, 64
1, 135948, Control_c, 0, 64, 127
1, 136076, Note_off_c, 0, 60, 64
1, 136132, Note_off_c, 0, 72, 64
1, 136140, Note_off_c, 0, 75, 64
1, 136148, Note_on_c, 0, 77, 57
1, 136156, Note_on_c, 0, 71, 54
1, 136156, Note_on_c, 0, 62, 36
1, 136168, Control_c, 0, 64, 0
1, 136232, Control_c, 0, 64, 127
1, 136372, Note_off_c, 0, 77, 64
1, 136388, Note_off_c, 0, 62, 64
1, 136388, Note_on_c, 0, 55, 47
1, 136400, Note_off_c, 0, 71, 64
1, 136400, Note_on_c, 0, 79, 47
1, 136476, Note_on_c, 0, 77, 55
1, 136484, Note_off_c, 0, 79, 64
1, 136484, Note_on_c, 0, 71, 51
1, 136492, Note_on_c, 0, 62, 46
1, 136500, Note_off_c, 0, 55, 64
1, 136504, Control_c, 0, 64, 0
1, 136568, Control_c, 0, 64, 127
1, 136920, Note_on_c, 0, 60, 26
1, 136928, Note_on_c, 0, 72, 41
1, 136932, Note_on_c, 0, 75, 34
1, 136940, Note_off_c, 0, 71, 64
1, 136948, Note_off_c, 0, 62, 64
1, 136972, Control_c, 0, 64, 0
1, 137000, Note_off_c, 0, 77, 64
1, 137064, Control_c, 0, 64, 127
1, 137256, Note_off_c, 0, 75, 64
1, 137308, Note_off_c, 0, 72, 64
1, 137372, Note_off_c, 0, 60, 64
1, 137600, Note_off_c, 0, 67, 64
1, 137600, Note_on_c, 0, 59, 47
1, 137680, Control_c, 0, 64, 0
1, 137740, Note_on_c, 0, 60, 46
1, 137760, Control_c, 0, 64, 127
1, 137788, Note_off_c, 0, 59, 64
1, 137900, Note_on_c, 0, 62, 48
1, 137928, Note_off_c, 0, 60, 64
1, 138032, Note_on_c, 0, 63, 48
1, 138052, Note_off_c, 0, 62, 64
1, 138060, Control_c, 0, 64, 0
1, 138200, Note_on_c, 0, 62, 42
1, 138220, Note_off_c, 0, 63, 64
1, 138236, Control_c, 0, 64, 127
1, 138552, Note_on_c, 0, 60, 51
1, 138612, Control_c, 0, 64, 0
1, 138656, Control_c, 0, 64, 127
1, 138660, Note_on_c, 0, 58, 52
1, 138664, Note_on_c, 0, 67, 56
1, 138724, Note_off_c, 0, 60, 64
1, 138808, Note_on_c, 0, 57, 54
1, 138820, Note_on_c, 0, 69, 37
1, 138820, Note_on_c, 0, 66, 31
1, 138868, Note_off_c, 0, 58, 64
1, 138868, Note_off_c, 0, 67, 64
1, 138924, Note_on_c, 0, 55, 51
1, 138928, Note_on_c, 0, 70, 65
1, 138928, Note_on_c, 0, 67, 65
1, 138972, Note_off_c, 0, 57, 64
1, 138976, Note_off_c, 0, 69, 64
1, 138984, Note_off_c, 0, 66, 64
1, 139076, Note_on_c, 0, 66, 59
1, 139080, Note_on_c, 0, 57, 63
1, 139084, Note_on_c, 0, 72, 54
1, 139092, Control_c, 0, 64, 0
1, 139096, Note_off_c, 0, 55, 64
1, 139100, Note_off_c, 0, 70, 64
1, 139100, Note_off_c, 0, 67, 64
1, 139172, Control_c, 0, 64, 127
1, 139240, Note_off_c, 0, 57, 64
1, 139284, Note_on_c, 0, 50, 69
1, 139292, Note_off_c, 0, 66, 64
1, 139292, Note_off_c, 0, 72, 64
1, 139300, Note_on_c, 0, 74, 57
1, 139360, Note_on_c, 0, 72, 55
1, 139368, Note_on_c, 0, 66, 60
1, 139372, Note_on_c, 0, 57, 52
1, 139384, Note_off_c, 0, 74, 64
1, 139388, Control_c, 0, 64, 0
1, 139392, Note_off_c, 0, 50, 64
1, 139464, Control_c, 0, 64, 127
1, 139652, Note_on_c, 0, 70, 63
1, 139660, Note_on_c, 0, 55, 58
1, 139660, Note_on_c, 0, 67, 58
1, 139668, Note_off_c, 0, 66, 64
1, 139676, Note_off_c, 0, 57, 64
1, 139684, Control_c, 0, 64, 0
1, 139700, Note_off_c, 0, 72, 64
1, 139760, Control_c, 0, 64, 127
1, 139928, Note_on_c, 0, 72, 64
1, 139932, Note_on_c, 0, 57, 54
1, 139936, Note_on_c, 0, 66, 60
1, 139948, Control_c, 0, 64, 0
1, 139968, Note_off_c, 0, 70, 64
1, 139976, Note_off_c, 0, 55, 64
1, 139976, Note_off_c, 0, 67, 64
1, 140028, Control_c, 0, 64, 127
1, 140136, Note_off_c, 0, 66, 64
1, 140148, Note_on_c, 0, 74, 54
1, 140148, Note_on_c, 0, 50, 59
1, 140156, Note_off_c, 0, 72, 64
1, 140156, Note_off_c, 0, 57, 64
1, 140212, Note_on_c, 0, 72, 63
1, 140212, Note_on_c, 0, 66, 69
1, 140220, Control_c, 0, 64, 0
1, 140232, Note_on_c, 0, 57, 66
1, 140236, Note_off_c, 0, 74, 64
1, 140260, Note_off_c, 0, 50, 64
1, 140292, Control_c, 0, 64, 127
1, 140516, Note_on_c, 0, 70, 63
1, 140520, Note_on_c, 0, 67, 57
1, 140528, Note_on_c, 0, 55, 59
1, 140536, Control_c, 0, 64, 0
1, 140540, Note_off_c, 0, 72, 64
1, 140548, Note_off_c, 0, 66, 64
1, 140552, Note_off_c, 0, 57, 64
1, 140588, Control_c, 0, 64, 127
1, 140892, Note_off_c, 0, 67, 64
1, 140896, Note_on_c, 0, 68, 59
1, 140900, Note_on_c, 0, 63, 57
1, 140908, Note_off_c, 0, 70, 64
1, 140908, Note_on_c, 0, 60, 55
1, 140924, Note_off_c, 0, 62, 64
1, 140924, Control_c, 0, 64, 0
1, 141044, Control_c, 0, 64, 127
1, 141708, Note_on_c, 0, 66, 41
1, 141732, Note_off_c, 0, 63, 64
1, 141736, Note_off_c, 0, 68, 64
1, 141832, Note_off_c, 0, 60, 64
1, 142156, Note_on_c, 0, 67, 43
1, 142164, Note_on_c, 0, 62, 41
1, 142172, Note_on_c, 0, 59, 32
1, 142180, Note_off_c, 0, 66, 64
1, 142196, Control_c, 0, 64, 0
1, 142296, Control_c, 0, 64, 127
1, 142508, Note_off_c, 0, 62, 64
1, 142580, Note_on_c, 0, 53, 47
1, 142620, Note_off_c, 0, 59, 64
1, 142692, Note_off_c, 0, 67, 64
1, 142716, Note_on_c, 0, 51, 48
1, 142716, Note_on_c, 0, 60, 55
1, 142748, Note_off_c, 0, 53, 64
1, 142844, Note_on_c, 0, 50, 48
1, 142856, Note_on_c, 0, 62, 51
1, 142860, Note_on_c, 0, 59, 58
1, 142868, Note_off_c, 0, 51, 64
1, 142872, Note_off_c, 0, 60, 64
1, 142968, Note_on_c, 0, 60, 28
1, 142972, Note_on_c, 0, 63, 46
1, 142984, Note_on_c, 0, 48, 52
1, 143000, Control_c, 0, 64, 0
1, 143004, Note_off_c, 0, 50, 64
1, 143020, Note_off_c, 0, 62, 64
1, 143020, Note_off_c, 0, 59, 64
1, 143052, Control_c, 0, 64, 127
1, 143128, Note_on_c, 0, 65, 59
1, 143128, Note_on_c, 0, 50, 57
1, 143136, Note_on_c, 0, 59, 66
1, 143144, Note_off_c, 0, 60, 64
1, 143148, Note_off_c, 0, 63, 64
1, 143148, Control_c, 0, 64, 0
1, 143152, Note_off_c, 0, 48, 64
1, 143224, Control_c, 0, 64, 127
1, 143328, Note_on_c, 0, 43, 57
1, 143332, Note_on_c, 0, 67, 58
1, 143352, Note_off_c, 0, 65, 64
1, 143352, Note_off_c, 0, 50, 64
1, 143364, Note_off_c, 0, 59, 64
1, 143396, Control_c, 0, 64, 0
1, 143404, Note_on_c, 0, 65, 59
1, 143412, Note_on_c, 0, 59, 63
1, 143412, Note_on_c, 0, 50, 54
1, 143424, Note_off_c, 0, 67, 64
1, 143476, Note_off_c, 0, 43, 64
1, 143504, Control_c, 0, 64, 127
1, 143692, Note_on_c, 0, 48, 51
1, 143696, Note_on_c, 0, 63, 60
1, 143700, Note_on_c, 0, 60, 60
1, 143732, Control_c, 0, 64, 0
1, 143740, Note_off_c, 0, 65, 64
1, 143744, Note_off_c, 0, 59, 64
1, 143744, Note_off_c, 0, 50, 64
1, 143828, Control_c, 0, 64, 127
1, 143960, Note_off_c, 0, 60, 64
1, 143980, Note_off_c, 0, 63, 64
1, 143984, Note_on_c, 0, 59, 55
1, 143984, Note_on_c, 0, 50, 47
1, 143988, Note_off_c, 0, 48, 64
1, 143996, Note_on_c, 0, 65, 52
1, 144004, Control_c, 0, 64, 0
1, 144068, Control_c, 0, 64, 127
1, 144196, Note_on_c, 0, 43, 54
1, 144200, Note_off_c, 0, 59, 64
1, 144200, Note_off_c, 0, 50, 64
1, 144204, Note_on_c, 0, 67, 51
1, 144212, Note_off_c, 0, 65, 64
1, 144276, Note_on_c, 0, 59, 57
1, 144280, Note_on_c, 0, 50, 51
1, 144284, Note_on_c, 0, 65, 54
1, 144288, Control_c, 0, 64, 0
1, 144300, Note_off_c, 0, 67, 64
1, 144344, Note_off_c, 0, 43, 64
1, 144368, Control_c, 0, 64, 127
1, 144616, Note_on_c, 0, 63, 54
1, 144616, Note_on_c, 0, 48, 52
1, 144624, Note_on_c, 0, 60, 54
1, 144628, Note_off_c, 0, 50, 64
1, 144644, Control_c, 0, 64, 0
1, 144664, Note_off_c, 0, 59, 64
1, 144672, Note_off_c, 0, 65, 64
1, 144724, Control_c, 0, 64, 127
1, 145040, Note_off_c, 0, 63, 64
1, 145100, Note_off_c, 0, 60, 64
1, 145124, Note_off_c, 0, 48, 64
1, 145164, Note_on_c, 0, 48, 63
1, 145176, Note_off_c, 0, 55, 64
1, 145216, Note_on_c, 0, 50, 64
1, 145228, Note_off_c, 0, 48, 64
1, 145272, Note_on_c, 0, 48, 63
1, 145304, Note_off_c, 0, 50, 64
1, 145332, Control_c, 0, 64, 0
1, 145356, Note_on_c, 0, 47, 60
1, 145376, Note_off_c, 0, 48, 64
1, 145496, Note_on_c, 0, 48, 65
1, 145536, Note_off_c, 0, 47, 64
1, 145656, Note_on_c, 0, 50, 58
1, 145712, Note_off_c, 0, 48, 64
1, 145772, Note_on_c, 0, 51, 58
1, 145812, Note_off_c, 0, 50, 64
1, 145908, Tempo, 500000
1, 145908, Note_on_c, 0, 50, 64
1, 145928, Note_off_c, 0, 51, 64
1, 146048, Note_on_c, 0, 52, 70
1, 146056, Note_on_c, 0, 49, 72
1, 146080, Note_off_c, 0, 50, 64
1, 146184, Note_on_c, 0, 48, 63
1, 146188, Note_on_c, 0, 54, 74
1, 146204, Control_c, 0, 64, 127
1, 146220, Note_off_c, 0, 52, 64
1, 146228, Note_off_c, 0, 49, 64
1, 146308, Note_on_c, 0, 55, 64
1, 146316, Note_on_c, 0, 46, 66
1, 146336, Note_off_c, 0, 48, 64
1, 146340, Note_off_c, 0, 54, 64
1, 146392, Control_c, 0, 64, 0
1, 146440, Note_on_c, 0, 57, 57
1, 146448, Note_on_c, 0, 54, 57
1, 146452, Note_on_c, 0, 45, 60
1, 146460, Note_off_c, 0, 55, 64
1, 146468, Note_off_c, 0, 46, 64
1, 146572, Note_on_c, 0, 58, 57
1, 146572, Note_on_c, 0, 55, 57
1, 146576, Note_on_c, 0, 43, 51
1, 146596, Note_off_c, 0, 45, 64
1, 146600, Note_off_c, 0, 57, 64
1, 146604, Note_off_c, 0, 54, 64
1, 146724, Note_on_c, 0, 57, 69
1, 146732, Note_on_c, 0, 53, 64
1, 146736, Note_on_c, 0, 45, 80
1, 146748, Note_off_c, 0, 58, 64
1, 146748, Note_off_c, 0, 55, 64
1, 146752, Note_off_c, 0, 43, 64
1, 146776, Control_c, 0, 64, 127
1, 146872, Note_off_c, 0, 57, 64
1, 146884, Note_off_c, 0, 45, 64
1, 146888, Note_off_c, 0, 53, 64
1, 146920, Note_on_c, 0, 52, 81
1, 146924, Note_on_c, 0, 61, 74
1, 146928, Note_on_c, 0, 33, 81
1, 147004, Note_on_c, 0, 62, 80
1, 147004, Note_on_c, 0, 50, 89
1, 147008, Note_on_c, 0, 38, 89
1, 147024, Note_off_c, 0, 52, 64
1, 147032, Note_off_c, 0, 61, 64
1, 147056, Note_off_c, 0, 33, 64
1, 147064, Control_c, 0, 64, 0
1, 147256, Control_c, 0, 64, 127
1, 147288, Note_off_c, 0, 62, 64
1, 147328, Note_off_c, 0, 50, 64
1, 147332, Note_off_c, 0, 38, 64
1, 147704, Control_c, 0, 64, 0
1, 147720, Note_on_c, 0, 57, 51
1, 147724, Note_on_c, 0, 50, 48
1, 147724, Note_on_c, 0, 69, 54
1, 147724, Note_on_c, 0, 65, 51
1, 147780, Control_c, 0, 64, 127
1, 147924, Note_on_c, 0, 73, 54
1, 147928, Note_on_c, 0, 55, 51
1, 147936, Note_on_c, 0, 64, 59
1, 147944, Note_off_c, 0, 57, 64
1, 147952, Note_off_c, 0, 69, 64
1, 147952, Note_off_c, 0, 65, 64
1, 148028, Note_on_c, 0, 74, 55
1, 148028, Note_on_c, 0, 62, 60
1, 148028, Note_on_c, 0, 53, 55
1, 148044, Note_off_c, 0, 55, 64
1, 148048, Control_c, 0, 64, 0
1, 148056, Note_off_c, 0, 73, 64
1, 148068, Note_off_c, 0, 64, 64
1, 148168, Control_c, 0, 64, 127
1, 148596, Note_off_c, 0, 74, 64
1, 148596, Note_off_c, 0, 62, 64
1, 148596, Note_off_c, 0, 53, 64
1, 148720, Control_c, 0, 64, 0
1, 148736, Note_on_c, 0, 65, 36
1, 148736, Note_on_c, 0, 57, 36
1, 148740, Note_on_c, 0, 69, 42
1, 148792, Control_c, 0, 64, 127
1, 148988, Note_on_c, 0, 73, 46
1, 148988, Tempo, 500000
1, 148988, Note_on_c, 0, 64, 51
1, 149008, Note_on_c, 0, 55, 32
1, 149024, Note_off_c, 0, 57, 64
1, 149024, Note_off_c, 0, 65, 64
1, 149028, Note_off_c, 0, 69, 64
1, 149080, Note_on_c, 0, 62, 51
1, 149084, Note_on_c, 0, 53, 40
1, 149088, Note_on_c, 0, 74, 47
1, 149104, Note_off_c, 0, 73, 64
1, 149108, Note_off_c, 0, 64, 64
1, 149120, Control_c, 0, 64, 0
1, 149128, Note_off_c, 0, 55, 64
1, 149288, Control_c, 0, 64, 127
1, 149620, Note_off_c, 0, 62, 64
1, 149624, Note_off_c, 0, 53, 64
1, 149628, Note_off_c, 0, 74, 64
1, 149708, Note_on_c, 0, 57, 57
1, 149708, Note_on_c, 0, 69, 60
1, 149712, Control_c, 0, 64, 0
1, 149792, Control_c, 0, 64, 127
1, 149888, Note_on_c, 0, 60, 57
1, 149892, Note_off_c, 0, 69, 64
1, 149896, Note_off_c, 0, 57, 64
1, 149896, Note_on_c, 0, 72, 58
1, 149952, Note_off_c, 0, 72, 64
1, 150044, Note_on_c, 0, 72, 72
1, 150096, Note_off_c, 0, 60, 64
1, 150096, Note_on_c, 0, 58, 52
1, 150108, Note_on_c, 0, 70, 64
1, 150116, Note_off_c, 0, 72, 64
1, 150152, Control_c, 0, 64, 0
1, 150160, Note_on_c, 0, 72, 77
1, 150172, Note_off_c, 0, 70, 64
1, 150216, Note_on_c, 0, 70, 64
1, 150236, Control_c, 0, 64, 127
1, 150244, Note_off_c, 0, 72, 64
1, 150348, Note_on_c, 0, 69, 66
1, 150352, Note_off_c, 0, 70, 64
1, 150364, Note_on_c, 0, 57, 58
1, 150372, Note_off_c, 0, 58, 64
1, 150412, Control_c, 0, 64, 0
1, 150488, Control_c, 0, 64, 127
1, 150496, Note_on_c, 0, 67, 72
1, 150508, Note_on_c, 0, 55, 54
1, 150512, Note_off_c, 0, 69, 64
1, 150532, Note_off_c, 0, 57, 64
1, 150640, Note_on_c, 0, 69, 64
1, 150648, Note_on_c, 0, 57, 60
1, 150652, Note_off_c, 0, 55, 64
1, 150652, Control_c, 0, 64, 0
1, 150664, Note_off_c, 0, 67, 64
1, 150764, Control_c, 0, 64, 127
1, 150872, Note_on_c, 0, 52, 57
1, 150876, Note_on_c, 0, 64, 60
1, 150892, Note_off_c, 0, 69, 64
1, 150932, Control_c, 0, 64, 0
1, 150952, Note_on_c, 0, 65, 57
1, 150956, Note_on_c, 0, 53, 48
1, 150968, Note_off_c, 0, 52, 64
1, 150972, Note_off_c, 0, 64, 64
1, 151036, Control_c, 0, 64, 127
1, 151172, Note_off_c, 0, 50, 64
1, 151236, Control_c, 0, 64, 0
1, 151248, Note_off_c, 0, 65, 64
1, 151252, Note_on_c, 0, 50, 57
1, 151260, Note_on_c, 0, 62, 58
1, 151276, Note_off_c, 0, 53, 64
1, 151296, Control_c, 0, 64, 127
1, 151308, Note_off_c, 0, 57, 64
1, 151528, Note_off_c, 0, 62, 64
1, 151528, Note_on_c, 0, 69, 63
1, 151540, Control_c, 0, 64, 0
1, 151544, Note_on_c, 0, 57, 58
1, 151588, Control_c, 0, 64, 127
1, 151684, Note_off_c, 0, 69, 64
1, 151684, Note_on_c, 0, 72, 66
1, 151708, Note_on_c, 0, 60, 55
1, 151732, Note_off_c, 0, 57, 64
1, 151748, Note_off_c, 0, 72, 64
1, 151836, Note_on_c, 0, 72, 74
1, 151888, Note_on_c, 0, 58, 32
1, 151900, Note_on_c, 0, 70, 77
1, 151900, Control_c, 0, 64, 0
1, 151912, Note_off_c, 0, 72, 64
1, 151924, Note_off_c, 0, 60, 64
1, 151948, Note_on_c, 0, 72, 72
1, 151964, Note_off_c, 0, 70, 64
1, 151984, Control_c, 0, 64, 127
1, 152020, Note_on_c, 0, 70, 72
1, 152036, Note_off_c, 0, 72, 64
1, 152140, Note_on_c, 0, 69, 65
1, 152144, Note_off_c, 0, 70, 64
1, 152160, Note_on_c, 0, 57, 60
1, 152172, Note_off_c, 0, 58, 64
1, 152180, Control_c, 0, 64, 0
1, 152268, Control_c, 0, 64, 127
1, 152276, Note_on_c, 0, 67, 71
1, 152288, Note_on_c, 0, 55, 59
1, 152300, Note_off_c, 0, 69, 64
1, 152300, Note_off_c, 0, 57, 64
1, 152412, Control_c, 0, 64, 0
1, 152432, Note_on_c, 0, 69, 59
1, 152436, Note_off_c, 0, 67, 64
1, 152444, Note_off_c, 0, 55, 64
1, 152444, Note_on_c, 0, 57, 60
1, 152528, Control_c, 0, 64, 127
1, 152660, Note_on_c, 0, 64, 57
1, 152672, Note_on_c, 0, 52, 60
1, 152684, Note_off_c, 0, 69, 64
1, 152712, Control_c, 0, 64, 0
1, 152732, Note_on_c, 0, 53, 46
1, 152732, Note_on_c, 0, 65, 63
1, 152744, Note_off_c, 0, 52, 64
1, 152764, Note_off_c, 0, 64, 64
1, 152812, Control_c, 0, 64, 127
1, 153004, Note_off_c, 0, 50, 64
1, 153040, Note_on_c, 0, 62, 58
1, 153052, Note_on_c, 0, 50, 52
1, 153052, Control_c, 0, 64, 0
1, 153072, Note_off_c, 0, 65, 64
1, 153088, Note_off_c, 0, 53, 64
1, 153136, Control_c, 0, 64, 127
1, 153156, Note_off_c, 0, 57, 64
1, 153360, Note_on_c, 0, 69, 60
1, 153364, Note_off_c, 0, 62, 64
1, 153364, Note_on_c, 0, 57, 48
1, 153380, Control_c, 0, 64, 0
1, 153452, Control_c, 0, 64, 127
1, 153604, Note_on_c, 0, 64, 52
1, 153620, Note_on_c, 0, 52, 51
1, 153644, Note_off_c, 0, 69, 64
1, 153680, Note_on_c, 0, 65, 60
1, 153688, Control_c, 0, 64, 0
1, 153700, Note_on_c, 0, 53, 57
1, 153708, Note_off_c, 0, 52, 64
1, 153724, Note_off_c, 0, 64, 64
1, 153784, Control_c, 0, 64, 127
1, 153988, Note_off_c, 0, 50, 64
1, 154020, Note_on_c, 0, 62, 52
1, 154028, Note_on_c, 0, 50, 52
1, 154036, Note_off_c, 0, 65, 64
1, 154040, Control_c, 0, 64, 0
1, 154068, Note_off_c, 0, 53, 64
1, 154132, Control_c, 0, 64, 127
1, 154152, Note_off_c, 0, 57, 64
1, 154380, Note_on_c, 0, 69, 41
1, 154380, Note_on_c, 0, 57, 48
1, 154396, Note_off_c, 0, 62, 64
1, 154408, Control_c, 0, 64, 0
1, 154468, Control_c, 0, 64, 127
1, 154664, Note_on_c, 0, 64, 42
1, 154668, Note_on_c, 0, 52, 57
1, 154708, Note_off_c, 0, 69, 64
1, 154724, Control_c, 0, 64, 0
1, 154748, Note_on_c, 0, 65, 52
1, 154764, Note_on_c, 0, 53, 48
1, 154768, Note_off_c, 0, 52, 64
1, 154772, Note_off_c, 0, 64, 64
1, 154828, Control_c, 0, 64, 127
1, 155076, Note_off_c, 0, 50, 64
1, 155104, Control_c, 0, 64, 0
1, 155120, Note_on_c, 0, 50, 52
1, 155128, Note_on_c, 0, 62, 48
1, 155180, Note_off_c, 0, 65, 64
1, 155188, Control_c, 0, 64, 127
1, 155204, Note_off_c, 0, 53, 64
1, 155684, Note_off_c, 0, 50, 64
1, 155700, Note_on_c, 0, 71, 37
1, 155712, Note_on_c, 0, 67, 32
1, 155720, Note_on_c, 0, 43, 37
1, 155784, Control_c, 0, 64, 0
1, 155820, Note_off_c, 0, 57, 64
1, 155988, Control_c, 0, 64, 127
1, 156704, Control_c, 0, 64, 0
1, 156732, Note_off_c, 0, 62, 64
1, 156740, Note_on_c, 0, 55, 34
1, 156756, Control_c, 0, 64, 127
1, 156764, Note_off_c, 0, 71, 64
1, 156776, Note_off_c, 0, 67, 64
1, 156784, Note_off_c, 0, 43, 64
1, 156824, Note_off_c, 0, 55, 64
1, 156968, Note_on_c, 0, 55, 63
1, 157016, Note_off_c, 0, 55, 64
1, 157068, Note_on_c, 0, 55, 64
1, 157088, Control_c, 0, 64, 0
1, 157108, Control_c, 0, 64, 127
1, 157152, Note_off_c, 0, 55, 64
1, 157492, Note_on_c, 0, 55, 70
1, 157516, Control_c, 0, 64, 0
1, 157584, Control_c, 0, 64, 127
1, 157996, Note_on_c, 0, 67, 75
1, 158020, Control_c, 0, 64, 0
1, 158068, Note_off_c, 0, 55, 64
1, 158084, Control_c, 0, 64, 127
1, 158500, Note_on_c, 0, 65, 49
1, 158640, Note_on_c, 0, 63, 54
1, 158656, Note_off_c, 0, 65, 64
1, 158656, Note_on_c, 0, 72, 63
1, 158796, Note_on_c, 0, 71, 69
1, 158796, Note_on_c, 0, 62, 29
1, 158796, Note_on_c, 0, 74, 52
1, 158808, Note_off_c, 0, 72, 64
1, 158820, Note_off_c, 0, 63, 64
1, 158916, Note_on_c, 0, 72, 59
1, 158924, Note_on_c, 0, 75, 59
1, 158932, Note_on_c, 0, 60, 47
1, 158940, Note_on_c, 0, 60, 47
1, 158952, Note_off_c, 0, 71, 64
1, 158952, Note_off_c, 0, 62, 64
1, 158956, Note_off_c, 0, 74, 64
1, 159060, Note_on_c, 0, 77, 57
1, 159060, Note_on_c, 0, 71, 54
1, 159068, Note_on_c, 0, 62, 59
1, 159072, Note_off_c, 0, 72, 64
1, 159076, Note_off_c, 0, 75, 64
1, 159076, Note_off_c, 0, 60, 64
1, 159084, Control_c, 0, 64, 0
1, 159088, Note_off_c, 0, 60, 64
1, 159132, Control_c, 0, 64, 127
1, 159268, Note_on_c, 0, 55, 57
1, 159272, Note_on_c, 0, 79, 55
1, 159276, Note_off_c, 0, 77, 64
1, 159276, Note_off_c, 0, 71, 64
1, 159284, Note_off_c, 0, 62, 64
1, 159324, Note_on_c, 0, 71, 55
1, 159332, Note_on_c, 0, 77, 59
1, 159340, Note_on_c, 0, 62, 47
1, 159356, Note_off_c, 0, 55, 64
1, 159364, Control_c, 0, 64, 0
1, 159372, Note_off_c, 0, 79, 64
1, 159440, Control_c, 0, 64, 127
1, 159628, Note_on_c, 0, 72, 58
1, 159628, Note_on_c, 0, 75, 60
1, 159636, Note_on_c, 0, 60, 51
1, 159644, Note_off_c, 0, 62, 64
1, 159652, Note_off_c, 0, 77, 64
1, 159672, Control_c, 0, 64, 0
1, 159684, Note_off_c, 0, 71, 64
1, 159720, Control_c, 0, 64, 127
1, 159884, Note_off_c, 0, 72, 64
1, 159908, Note_on_c, 0, 62, 41
1, 159912, Note_on_c, 0, 77, 58
1, 159924, Note_off_c, 0, 60, 64
1, 159924, Note_on_c, 0, 71, 57
1, 159948, Note_off_c, 0, 75, 64
1, 159956, Control_c, 0, 64, 0
1, 160004, Control_c, 0, 64, 127
1, 160116, Note_off_c, 0, 71, 64
1, 160116, Note_on_c, 0, 55, 55
1, 160120, Note_off_c, 0, 62, 64
1, 160120, Note_on_c, 0, 79, 51
1, 160128, Note_off_c, 0, 77, 64
1, 160184, Note_on_c, 0, 77, 58
1, 160188, Note_on_c, 0, 71, 52
1, 160200, Note_on_c, 0, 62, 46
1, 160208, Note_off_c, 0, 79, 64
1, 160220, Control_c, 0, 64, 0
1, 160248, Note_off_c, 0, 55, 64
1, 160284, Control_c, 0, 64, 127
1, 160572, Note_on_c, 0, 60, 41
1, 160580, Note_on_c, 0, 75, 46
1, 160588, Note_on_c, 0, 72, 46
1, 160608, Note_off_c, 0, 62, 64
1, 160612, Control_c, 0, 64, 0
1, 160620, Note_off_c, 0, 77, 64
1, 160624, Note_off_c, 0, 71, 64
1, 160708, Control_c, 0, 64, 127
1, 160876, Note_off_c, 0, 72, 64
1, 160916, Note_off_c, 0, 75, 64
1, 160928, Note_off_c, 0, 60, 64
1, 161144, Note_on_c, 0, 59, 46
1, 161156, Tempo, 500000
1, 161156, Note_off_c, 0, 67, 64
1, 161272, Note_on_c, 0, 60, 48
1, 161300, Note_off_c, 0, 59, 64
1, 161432, Note_on_c, 0, 62, 40
1, 161468, Note_off_c, 0, 60, 64
1, 161528, Control_c, 0, 64, 0
1, 161556, Note_on_c, 0, 63, 52
1, 161580, Note_off_c, 0, 62, 64
1, 161708, Note_on_c, 0, 62, 41
1, 161732, Note_off_c, 0, 63, 64
1, 161756, Control_c, 0, 64, 127
1, 161856, Note_on_c, 0, 61, 51
1, 161860, Note_on_c, 0, 64, 56
1, 161984, Note_on_c, 0, 60, 46
1, 161988, Note_on_c, 0, 66, 62
1, 162016, Note_off_c, 0, 61, 64
1, 162024, Note_off_c, 0, 64, 64
1, 162132, Note_on_c, 0, 67, 65
1, 162132, Note_on_c, 0, 58, 39
1, 162164, Note_off_c, 0, 60, 64
1, 162168, Note_off_c, 0, 66, 64
1, 162200, Control_c, 0, 64, 0
1, 162248, Control_c, 0, 64, 127
1, 162260, Note_on_c, 0, 66, 54
1, 162264, Note_on_c, 0, 69, 35
1, 162268, Note_on_c, 0, 57, 48
1, 162284, Note_off_c, 0, 67, 64
1, 162284, Note_off_c, 0, 58, 64
1, 162408, Note_on_c, 0, 67, 71
1, 162412, Note_on_c, 0, 70, 71
1, 162420, Note_off_c, 0, 66, 64
1, 162424, Note_off_c, 0, 69, 64
1, 162424, Note_on_c, 0, 55, 49
1, 162428, Note_off_c, 0, 57, 64
1, 162568, Note_off_c, 0, 70, 64
1, 162568, Note_on_c, 0, 57, 67
1, 162568, Note_on_c, 0, 72, 62
1, 162572, Note_on_c, 0, 66, 67
1, 162576, Note_off_c, 0, 67, 64
1, 162580, Note_off_c, 0, 55, 64
1, 162592, Control_c, 0, 64, 0
1, 162656, Control_c, 0, 64, 127
1, 162660, Tempo, 500000
1, 162736, Note_off_c, 0, 57, 64
1, 162756, Note_on_c, 0, 50, 59
1, 162772, Note_on_c, 0, 74, 64
1, 162784, Note_off_c, 0, 66, 64
1, 162788, Note_off_c, 0, 72, 64
1, 162840, Note_on_c, 0, 57, 60
1, 162840, Note_on_c, 0, 72, 65
1, 162856, Note_on_c, 0, 66, 69
1, 162856, Control_c, 0, 64, 0
1, 162868, Note_off_c, 0, 74, 64
1, 162872, Note_off_c, 0, 50, 64
1, 162952, Control_c, 0, 64, 127
1, 163160, Note_on_c, 0, 70, 63
1, 163168, Note_on_c, 0, 55, 58
1, 163172, Note_on_c, 0, 67, 46
1, 163180, Note_off_c, 0, 72, 64
1, 163200, Note_off_c, 0, 57, 64
1, 163212, Control_c, 0, 64, 0
1, 163220, Note_off_c, 0, 66, 64
1, 163288, Control_c, 0, 64, 127
1, 163404, Note_off_c, 0, 67, 64
1, 163432, Note_off_c, 0, 70, 64
1, 163460, Note_on_c, 0, 72, 63
1, 163464, Note_on_c, 0, 57, 65
1, 163472, Note_on_c, 0, 66, 66
1, 163480, Note_off_c, 0, 55, 64
1, 163512, Control_c, 0, 64, 0
1, 163572, Control_c, 0, 64, 127
1, 163688, Note_on_c, 0, 50, 43
1, 163704, Note_off_c, 0, 66, 64
1, 163704, Note_on_c, 0, 74, 57
1, 163716, Note_off_c, 0, 72, 64
1, 163720, Note_off_c, 0, 57, 64
1, 163772, Note_on_c, 0, 72, 58
1, 163776, Note_on_c, 0, 66, 58
1, 163788, Note_off_c, 0, 74, 64
1, 163792, Note_on_c, 0, 57, 49
1, 163800, Control_c, 0, 64, 0
1, 163836, Note_off_c, 0, 50, 64
1, 163876, Control_c, 0, 64, 127
1, 164136, Note_on_c, 0, 70, 55
1, 164148, Note_on_c, 0, 67, 42
1, 164156, Note_off_c, 0, 66, 64
1, 164160, Note_on_c, 0, 55, 48
1, 164164, Control_c, 0, 64, 0
1, 164188, Note_off_c, 0, 72, 64
1, 164188, Note_off_c, 0, 57, 64
1, 164216, Control_c, 0, 64, 127
1, 164284, Note_off_c, 0, 70, 64
1, 164296, Note_off_c, 0, 67, 64
1, 164552, Note_off_c, 0, 62, 64
1, 164560, Note_on_c, 0, 63, 49
1, 164564, Note_on_c, 0, 68, 57
1, 164568, Note_on_c, 0, 60, 46
1, 164608, Control_c, 0, 64, 0
1, 164712, Control_c, 0, 64, 127
1, 165336, Note_on_c, 0, 66, 46
1, 165364, Note_off_c, 0, 68, 64
1, 165376, Note_off_c, 0, 63, 64
1, 165492, Note_off_c, 0, 60, 64
1, 165804, Note_on_c, 0, 67, 40
1, 165820, Note_on_c, 0, 62, 32
1, 165824, Note_on_c, 0, 59, 34
1, 165860, Note_off_c, 0, 66, 64
1, 165864, Control_c, 0, 64, 0
1, 165956, Control_c, 0, 64, 127
1, 166168, Note_off_c, 0, 59, 64
1, 166260, Note_on_c, 0, 53, 32
1, 166296, Note_off_c, 0, 62, 64
1, 166388, Note_on_c, 0, 51, 52
1, 166392, Note_on_c, 0, 60, 51
1, 166420, Note_off_c, 0, 53, 64
1, 166484, Note_off_c, 0, 67, 64
1, 166528, Note_on_c, 0, 50, 26
1, 166536, Note_on_c, 0, 59, 58
1, 166536, Note_on_c, 0, 62, 54
1, 166556, Note_off_c, 0, 51, 64
1, 166560, Note_off_c, 0, 60, 64
1, 166652, Note_on_c, 0, 63, 46
1, 166680, Note_off_c, 0, 50, 64
1, 166680, Note_on_c, 0, 48, 35
1, 166688, Note_off_c, 0, 59, 64
1, 166688, Note_off_c, 0, 62, 64
1, 166692, Note_on_c, 0, 59, 26
1, 166728, Note_off_c, 0, 59, 64
1, 166800, Note_on_c, 0, 65, 64
1, 166800, Note_on_c, 0, 50, 60
1, 166808, Note_on_c, 0, 59, 65
1, 166820, Note_off_c, 0, 63, 64
1, 166820, Control_c, 0, 64, 0
1, 166824, Note_off_c, 0, 48, 64
1, 166884, Control_c, 0, 64, 127
1, 166996, Note_on_c, 0, 43, 65
1, 167016, Note_on_c, 0, 67, 59
1, 167032, Note_off_c, 0, 65, 64
1, 167036, Note_off_c, 0, 50, 64
1, 167040, Note_off_c, 0, 59, 64
1, 167088, Note_on_c, 0, 50, 64
1, 167088, Note_on_c, 0, 59, 66
1, 167088, Note_on_c, 0, 65, 60
1, 167104, Note_off_c, 0, 67, 64
1, 167108, Note_off_c, 0, 43, 64
1, 167112, Control_c, 0, 64, 0
1, 167176, Control_c, 0, 64, 127
1, 167372, Note_off_c, 0, 65, 64
1, 167384, Note_on_c, 0, 63, 59
1, 167392, Note_on_c, 0, 60, 59
1, 167396, Note_on_c, 0, 48, 54
1, 167408, Note_off_c, 0, 50, 64
1, 167424, Control_c, 0, 64, 0
1, 167432, Note_off_c, 0, 59, 64
1, 167488, Control_c, 0, 64, 127
1, 167668, Note_on_c, 0, 50, 64
1, 167676, Note_off_c, 0, 48, 64
1, 167676, Note_on_c, 0, 59, 57
1, 167684, Note_off_c, 0, 60, 64
1, 167688, Note_on_c, 0, 65, 58
1, 167704, Control_c, 0, 64, 0
1, 167732, Note_off_c, 0, 63, 64
1, 167768, Control_c, 0, 64, 127
1, 167888, Note_off_c, 0, 59, 64
1, 167888, Note_on_c, 0, 67, 57
1, 167892, Note_on_c, 0, 43, 60
1, 167900, Note_off_c, 0, 50, 64
1, 167908, Note_off_c, 0, 65, 64
1, 167960, Note_on_c, 0, 65, 57
1, 167960, Note_on_c, 0, 59, 57
1, 167972, Note_on_c, 0, 50, 59
1, 167984, Note_off_c, 0, 67, 64
1, 167984, Control_c, 0, 64, 0
1, 168004, Note_off_c, 0, 43, 64
1, 168076, Control_c, 0, 64, 127
1, 168336, Note_on_c, 0, 48, 48
1, 168348, Note_off_c, 0, 65, 64
1, 168348, Note_on_c, 0, 63, 37
1, 168348, Note_on_c, 0, 60, 48
1, 168364, Note_off_c, 0, 50, 64
1, 168364, Control_c, 0, 64, 0
1, 168408, Note_off_c, 0, 59, 64
1, 168456, Control_c, 0, 64, 127
1, 168700, Note_off_c, 0, 48, 64
1, 168712, Note_off_c, 0, 63, 64
1, 168712, Note_off_c, 0, 60, 64
1, 168832, Note_off_c, 0, 55, 64
1, 168836, Note_on_c, 0, 48, 51
1, 168884, Note_on_c, 0, 50, 65
1, 168912, Note_off_c, 0, 48, 64
1, 168944, Note_on_c, 0, 48, 60
1, 168976, Note_off_c, 0, 50, 64
1, 168992, Control_c, 0, 64, 0
1, 169028, Note_on_c, 0, 47, 59
1, 169052, Note_off_c, 0, 48, 64
1, 169180, Note_on_c, 0, 48, 63
1, 169224, Note_off_c, 0, 47, 64
1, 169328, Note_on_c, 0, 50, 58
1, 169364, Note_off_c, 0, 48, 64
1, 169384, Control_c, 0, 64, 127
1, 169480, Note_on_c, 0, 51, 65
1, 169532, Note_off_c, 0, 50, 64
1, 169656, Note_on_c, 0, 56, 64
1, 169660, Note_on_c, 0, 53, 55
1, 169684, Note_off_c, 0, 51, 64
1, 169736, Control_c, 0, 64, 0
1, 170080, Note_on_c, 0, 60, 66
1, 170152, Control_c, 0, 64, 127
1, 170224, Note_on_c, 0, 61, 64
1, 170304, Note_off_c, 0, 60, 64
1, 170380, Note_on_c, 0, 63, 64
1, 170452, Note_off_c, 0, 61, 64
1, 170524, Note_on_c, 0, 65, 57
1, 170592, Note_off_c, 0, 63, 64
1, 170672, Note_off_c, 0, 53, 64
1, 170672, Note_on_c, 0, 66, 66
1, 170680, Note_on_c, 0, 60, 58
1, 170684, Note_on_c, 0, 51, 55
1, 170700, Control_c, 0, 64, 0
1, 170728, Note_off_c, 0, 65, 64
1, 170780, Control_c, 0, 64, 127
1, 170912, Note_on_c, 0, 68, 72
1, 170952, Note_off_c, 0, 68, 64
1, 170976, Control_c, 0, 64, 0
1, 171000, Note_on_c, 0, 68, 72
1, 171060, Control_c, 0, 64, 127
1, 171256, Note_off_c, 0, 68, 64
1, 171312, Note_on_c, 0, 68, 74
1, 171376, Note_off_c, 0, 51, 64
1, 171388, Note_off_c, 0, 60, 64
1, 171532, Note_off_c, 0, 68, 64
1, 171632, Note_on_c, 0, 61, 47
1, 171640, Note_on_c, 0, 65, 63
1, 171640, Note_on_c, 0, 68, 64
1, 171644, Note_off_c, 0, 66, 64
1, 171648, Note_on_c, 0, 49, 31
1, 171664, Control_c, 0, 64, 0
1, 171736, Control_c, 0, 64, 127
1, 171748, Note_off_c, 0, 68, 64
1, 171868, Note_on_c, 0, 68, 65
1, 171904, Note_off_c, 0, 68, 64
1, 171928, Control_c, 0, 64, 0
1, 171940, Note_on_c, 0, 68, 77
1, 171976, Control_c, 0, 64, 127
1, 172244, Note_off_c, 0, 68, 64
1, 172272, Note_on_c, 0, 68, 70
1, 172288, Note_on_c, 0, 48, 48
1, 172296, Control_c, 0, 64, 0
1, 172304, Note_off_c, 0, 49, 64
1, 172356, Control_c, 0, 64, 127
1, 172500, Note_off_c, 0, 61, 64
1, 172508, Note_off_c, 0, 65, 64
1, 172548, Note_off_c, 0, 68, 64
1, 172668, Note_on_c, 0, 68, 46
1, 172676, Note_on_c, 0, 47, 41
1, 172680, Note_on_c, 0, 65, 52
1, 172688, Note_on_c, 0, 62, 34
1, 172724, Note_off_c, 0, 48, 64
1, 172732, Note_off_c, 0, 56, 64
1, 172732, Control_c, 0, 64, 0
1, 172828, Control_c, 0, 64, 127
1, 173260, Note_on_c, 0, 67, 31
1, 173276, Control_c, 0, 64, 0
1, 173304, Note_off_c, 0, 68, 64
1, 173356, Control_c, 0, 64, 127
1, 173480, Note_off_c, 0, 65, 64
1, 173500, Note_off_c, 0, 47, 64
1, 173600, Note_off_c, 0, 62, 64
1, 173696, Note_off_c, 0, 67, 64
1, 173960, Note_on_c, 0, 43, 57
1, 174040, Control_c, 0, 64, 0
1, 174280, Note_on_c, 0, 45, 54
1, 174312, Note_off_c, 0, 43, 64
1, 174424, Note_on_c, 0, 47, 59
1, 174476, Note_off_c, 0, 45, 64
1, 174580, Note_on_c, 0, 48, 54
1, 174616, Control_c, 0, 64, 127
1, 174656, Note_off_c, 0, 47, 64
1, 174732, Note_on_c, 0, 50, 44
1, 174740, Note_off_c, 0, 48, 64
1, 174868, Note_on_c, 0, 51, 60
1, 174872, Note_on_c, 0, 60, 1
1, 174876, Note_on_c, 0, 66, 65
1, 174876, Note_on_c, 0, 54, 56
1, 174896, Control_c, 0, 64, 0
1, 174916, Note_off_c, 0, 50, 64
1, 175076, Note_off_c, 0, 51, 64
1, 175100, Note_on_c, 0, 51, 65
1, 175152, Note_off_c, 0, 51, 64
1, 175156, Control_c, 0, 64, 127
1, 175196, Note_on_c, 0, 51, 57
1, 175448, Note_off_c, 0, 51, 64
1, 175496, Note_on_c, 0, 51, 57
1, 175728, Note_off_c, 0, 51, 64
1, 175784, Note_off_c, 0, 54, 64
1, 175784, Note_off_c, 0, 60, 64
1, 175784, Note_off_c, 0, 66, 64
1, 175792, Note_on_c, 0, 56, 46
1, 175800, Note_on_c, 0, 51, 57
1, 175804, Note_on_c, 0, 65, 50
1, 175804, Note_on_c, 0, 60, 50
1, 175872, Note_off_c, 0, 51, 64
1, 176008, Note_on_c, 0, 51, 57
1, 176068, Note_off_c, 0, 51, 64
1, 176104, Note_on_c, 0, 50, 60
1, 176116, Note_on_c, 0, 59, 58
1, 176140, Control_c, 0, 64, 0
1, 176148, Note_off_c, 0, 60, 64
1, 176172, Control_c, 0, 64, 127
1, 176444, Note_on_c, 0, 63, 58
1, 176456, Note_on_c, 0, 48, 64
1, 176468, Control_c, 0, 64, 0
1, 176480, Note_off_c, 0, 50, 64
1, 176484, Note_off_c, 0, 59, 64
1, 176536, Control_c, 0, 64, 127
1, 176732, Note_off_c, 0, 56, 64
1, 176800, Note_off_c, 0, 48, 64
1, 176832, Note_on_c, 0, 47, 65
1, 176840, Note_on_c, 0, 56, 39
1, 176916, Control_c, 0, 64, 0
1, 177032, Control_c, 0, 64, 127
1, 177492, Note_off_c, 0, 56, 64
1, 177532, Note_on_c, 0, 66, 67
1, 177548, Note_off_c, 0, 65, 64
1, 177556, Note_on_c, 0, 57, 39
1, 177576, Control_c, 0, 64, 0
1, 177628, Control_c, 0, 64, 127
1, 177712, Note_off_c, 0, 47, 64
1, 177876, Note_off_c, 0, 63, 64
1, 177928, Note_on_c, 0, 58, 48
1, 177940, Note_on_c, 0, 67, 64
1, 177952, Note_on_c, 0, 63, 58
1, 177956, Note_on_c, 0, 46, 37
1, 177960, Note_off_c, 0, 66, 64
1, 177992, Note_off_c, 0, 57, 64
1, 177992, Control_c, 0, 64, 0
1, 178052, Control_c, 0, 64, 127
1, 178424, Note_on_c, 0, 51, 40
1, 178452, Note_off_c, 0, 46, 64
1, 178592, Note_on_c, 0, 55, 51
1, 178664, Note_off_c, 0, 51, 64
1, 178740, Note_on_c, 0, 60, 57
1, 178768, Note_off_c, 0, 55, 64
1, 178856, Note_off_c, 0, 58, 64
1, 178860, Note_on_c, 0, 62, 64
1, 178868, Note_on_c, 0, 56, 42
1, 178868, Note_on_c, 0, 58, 52
1, 178888, Note_off_c, 0, 60, 64
1, 178904, Note_off_c, 0, 67, 64
1, 178936, Note_off_c, 0, 63, 64
1, 179032, Note_off_c, 0, 58, 64
1, 179040, Note_on_c, 0, 46, 63
1, 179144, Note_on_c, 0, 50, 72
1, 179156, Note_off_c, 0, 46, 64
1, 179212, Note_on_c, 0, 48, 71
1, 179248, Note_off_c, 0, 50, 64
1, 179260, Control_c, 0, 64, 0
1, 179420, Control_c, 0, 64, 127
1, 179464, Control_c, 0, 64, 0
1, 179544, Control_c, 0, 64, 127
1, 179556, Note_on_c, 0, 46, 71
1, 179612, Note_off_c, 0, 48, 64
1, 179768, Note_off_c, 0, 62, 64
1, 179776, Note_off_c, 0, 56, 64
1, 179880, Note_on_c, 0, 45, 62
1, 179884, Note_on_c, 0, 61, 62
1, 179884, Note_on_c, 0, 57, 41
1, 179884, Note_on_c, 0, 53, 41
1, 179888, Note_off_c, 0, 46, 64
1, 179924, Control_c, 0, 64, 0
1, 180020, Control_c, 0, 64, 127
1, 180116, Note_on_c, 0, 62, 58
1, 180128, Note_off_c, 0, 61, 64
1, 180216, Note_on_c, 0, 65, 57
1, 180248, Note_off_c, 0, 62, 64
1, 180352, Note_on_c, 0, 50, 58
1, 180388, Note_off_c, 0, 45, 64
1, 180404, Note_off_c, 0, 53, 64
1, 180504, Note_on_c, 0, 64, 62
1, 180504, Note_on_c, 0, 53, 56
1, 180520, Note_off_c, 0, 57, 64
1, 180576, Note_off_c, 0, 50, 64
1, 180580, Note_off_c, 0, 65, 64
1, 180652, Note_off_c, 0, 64, 64
1, 180652, Note_on_c, 0, 57, 51
1, 180704, Note_off_c, 0, 53, 64
1, 180808, Note_on_c, 0, 53, 59
1, 180816, Note_on_c, 0, 56, 69
1, 180820, Note_on_c, 0, 59, 59
1, 180824, Note_on_c, 0, 64, 59
1, 180828, Note_off_c, 0, 57, 64
1, 180840, Control_c, 0, 64, 127
1, 180848, Control_c, 0, 64, 0
1, 180892, Control_c, 0, 64, 127
1, 180952, Note_off_c, 0, 56, 64
1, 181040, Note_on_c, 0, 44, 59
1, 181112, Note_off_c, 0, 53, 64
1, 181144, Note_on_c, 0, 53, 57
1, 181152, Note_off_c, 0, 44, 64
1, 181164, Tempo, 500000
1, 181164, Control_c, 0, 64, 0
1, 181236, Control_c, 0, 64, 127
1, 181492, Note_on_c, 0, 44, 56
1, 181496, Note_on_c, 0, 62, 62
1, 181520, Control_c, 0, 64, 0
1, 181540, Note_off_c, 0, 64, 64
1, 181560, Note_off_c, 0, 53, 64
1, 181572, Control_c, 0, 64, 127
1, 181616, Note_off_c, 0, 62, 64
1, 181620, Note_off_c, 0, 59, 64
1, 181644, Note_off_c, 0, 44, 64
1, 181848, Note_on_c, 0, 43, 52
1, 181848, Note_on_c, 0, 62, 65
1, 181848, Note_on_c, 0, 58, 64
1, 181856, Note_on_c, 0, 53, 64
1, 181876, Control_c, 0, 64, 0
1, 181876, Control_c, 0, 64, 0
1, 181964, Control_c, 0, 64, 127
1, 182088, Note_on_c, 0, 61, 66
1, 182124, Note_off_c, 0, 62, 64
1, 182168, Note_off_c, 0, 58, 64
1, 182180, Note_on_c, 0, 52, 64
1, 182188, Note_on_c, 0, 70, 80
1, 182196, Note_off_c, 0, 53, 64
1, 182200, Control_c, 0, 64, 0
1, 182220, Note_off_c, 0, 61, 64
1, 182280, Control_c, 0, 64, 127
1, 182532, Note_on_c, 0, 61, 71
1, 182544, Control_c, 0, 64, 0
1, 182564, Note_off_c, 0, 70, 64
1, 182584, Control_c, 0, 64, 127
1, 182692, Note_off_c, 0, 61, 64
1, 182868, Note_on_c, 0, 57, 63
1, 182872, Note_on_c, 0, 61, 66
1, 183092, Note_on_c, 0, 42, 64
1, 183100, Note_off_c, 0, 43, 64
1, 183196, Note_on_c, 0, 51, 77
1, 183216, Control_c, 0, 64, 0
1, 183220, Note_off_c, 0, 52, 64
1, 183228, Note_off_c, 0, 42, 64
1, 183300, Control_c, 0, 64, 127
1, 183392, Note_off_c, 0, 57, 64
1, 183544, Note_on_c, 0, 42, 60
1, 183548, Note_on_c, 0, 60, 70
1, 183568, Control_c, 0, 64, 0
1, 183600, Note_off_c, 0, 61, 64
1, 183620, Control_c, 0, 64, 127
1, 183692, Note_off_c, 0, 60, 64
1, 183884, Note_on_c, 0, 41, 57
1, 183896, Note_on_c, 0, 56, 63
1, 183900, Note_on_c, 0, 60, 71
1, 183908, Note_off_c, 0, 42, 64
1, 183912, Control_c, 0, 64, 0
1, 183972, Control_c, 0, 64, 127
1, 184004, Note_off_c, 0, 51, 64
1, 184168, Note_on_c, 0, 61, 69
1, 184200, Note_off_c, 0, 60, 64
1, 184240, Note_off_c, 0, 56, 64
1, 184284, Note_on_c, 0, 49, 64
1, 184288, Note_on_c, 0, 68, 66
1, 184460, Note_on_c, 0, 39, 60
1, 184480, Note_off_c, 0, 41, 64
1, 184504, Note_off_c, 0, 49, 64
1, 184588, Note_off_c, 0, 68, 64
1, 184644, Note_on_c, 0, 68, 66
1, 184644, Note_on_c, 0, 65, 66
1, 184644, Note_on_c, 0, 37, 65
1, 184664, Note_off_c, 0, 39, 64
1, 184684, Note_off_c, 0, 61, 64
1, 184844, Note_on_c, 0, 61, 55
1, 184856, Note_on_c, 0, 29, 65
1, 184896, Note_off_c, 0, 37, 64
1, 184968, Note_off_c, 0, 68, 64
1, 184968, Note_off_c, 0, 65, 64
1, 185112, Note_on_c, 0, 68, 60
1, 185124, Note_on_c, 0, 65, 59
1, 185124, Note_on_c, 0, 59, 48
1, 185128, Note_on_c, 0, 31, 59
1, 185148, Control_c, 0, 64, 0
1, 185176, Note_off_c, 0, 61, 64
1, 185188, Note_off_c, 0, 29, 64
1, 185208, Control_c, 0, 64, 127
1, 185396, Note_on_c, 0, 43, 59
1, 185416, Control_c, 0, 64, 0
1, 185448, Control_c, 0, 64, 127
1, 185668, Note_on_c, 0, 50, 66
1, 185684, Control_c, 0, 64, 0
1, 185732, Control_c, 0, 64, 127
1, 185932, Note_off_c, 0, 43, 64
1, 185964, Note_off_c, 0, 65, 64
1, 185980, Note_off_c, 0, 68, 64
1, 185996, Note_off_c, 0, 31, 64
1, 185996, Note_off_c, 0, 59, 64
1, 186268, Note_on_c, 0, 67, 64
1, 186276, Note_on_c, 0, 65, 64
1, 186288, Note_on_c, 0, 59, 63
1, 186300, Control_c, 0, 64, 0
1, 186348, Control_c, 0, 64, 127
1, 186360, Note_off_c, 0, 50, 64
1, 186676, Note_off_c, 0, 65, 64
1, 186688, Note_off_c, 0, 67, 64
1, 186692, Note_off_c, 0, 59, 64
1, 186792, Note_on_c, 0, 36, 48
1, 186868, Note_on_c, 0, 48, 31
1, 186932, Note_on_c, 0, 72, 66
1, 186936, Note_on_c, 0, 60, 57
1, 186956, Control_c, 0, 64, 0
1, 186988, Control_c, 0, 64, 127
1, 187004, Note_off_c, 0, 36, 64
1, 187048, Note_off_c, 0, 48, 64
1, 187240, Note_on_c, 0, 64, 49
1, 187316, Note_off_c, 0, 60, 64
1, 187500, Note_off_c, 0, 72, 64
1, 187508, Note_on_c, 0, 67, 59
1, 187540, Note_off_c, 0, 64, 64
1, 187688, Note_on_c, 0, 70, 47
1, 187740, Note_off_c, 0, 67, 64
1, 187880, Note_on_c, 0, 71, 60
1, 187880, Note_on_c, 0, 55, 23
1, 187892, Note_on_c, 0, 64, 47
1, 187908, Note_off_c, 0, 70, 64
1, 188048, Note_on_c, 0, 72, 58
1, 188076, Note_off_c, 0, 71, 64
1, 188140, Note_off_c, 0, 55, 64
1, 188152, Note_off_c, 0, 64, 64
1, 188220, Note_on_c, 0, 48, 46
1, 188232, Note_on_c, 0, 73, 59
1, 188268, Note_off_c, 0, 72, 64
1, 188268, Control_c, 0, 64, 0
1, 188300, Control_c, 0, 64, 127
1, 188412, Note_on_c, 0, 70, 51
1, 188432, Note_off_c, 0, 73, 64
1, 188588, Control_c, 0, 64, 0
1, 188596, Note_on_c, 0, 64, 31
1, 188596, Note_on_c, 0, 55, 40
1, 188604, Note_on_c, 0, 80, 71
1, 188612, Control_c, 0, 64, 127
1, 188644, Note_off_c, 0, 48, 64
1, 188648, Note_off_c, 0, 70, 64
1, 188704, Note_off_c, 0, 55, 64
1, 188708, Note_off_c, 0, 64, 64
1, 188964, Note_on_c, 0, 64, 43
1, 188964, Note_on_c, 0, 55, 52
1, 189140, Note_on_c, 0, 79, 63
1, 189152, Note_off_c, 0, 80, 64
1, 189300, Note_on_c, 0, 48, 59
1, 189308, Note_off_c, 0, 64, 64
1, 189308, Note_off_c, 0, 55, 64
1, 189316, Control_c, 0, 64, 0
1, 189336, Control_c, 0, 64, 127
1, 189372, Note_off_c, 0, 79, 64
1, 189612, Note_on_c, 0, 70, 69
1, 189624, Note_on_c, 0, 61, 55
1, 189624, Note_on_c, 0, 64, 54
1, 189652, Control_c, 0, 64, 0
1, 189672, Control_c, 0, 64, 127
1, 189876, Note_off_c, 0, 64, 64
1, 189924, Note_on_c, 0, 72, 52
1, 189936, Note_off_c, 0, 61, 64
1, 189944, Note_off_c, 0, 70, 64
1, 189960, Note_on_c, 0, 64, 43
1, 189968, Note_on_c, 0, 61, 73
1, 189976, Note_on_c, 0, 70, 51
1, 189996, Control_c, 0, 64, 0
1, 190012, Control_c, 0, 64, 127
1, 190028, Note_off_c, 0, 72, 64
1, 190080, Note_off_c, 0, 48, 64
1, 190144, Note_on_c, 0, 69, 51
1, 190156, Note_off_c, 0, 70, 64
1, 190280, Note_on_c, 0, 48, 57
1, 190288, Note_on_c, 0, 68, 57
1, 190304, Control_c, 0, 64, 0
1, 190316, Note_off_c, 0, 69, 64
1, 190356, Control_c, 0, 64, 127
1, 190448, Note_off_c, 0, 64, 64
1, 190452, Note_off_c, 0, 61, 64
1, 190452, Note_off_c, 0, 68, 64
1, 190580, Note_on_c, 0, 64, 48
1, 190580, Note_on_c, 0, 61, 48
1, 190588, Note_on_c, 0, 68, 54
1, 190588, Note_on_c, 0, 58, 52
1, 190628, Control_c, 0, 64, 0
1, 190652, Control_c, 0, 64, 127
1, 190812, Note_on_c, 0, 70, 46
1, 190820, Note_off_c, 0, 68, 64
1, 190844, Note_off_c, 0, 64, 64
1, 190844, Note_off_c, 0, 61, 64
1, 190848, Note_off_c, 0, 58, 64
1, 190872, Note_on_c, 0, 68, 60
1, 190876, Note_on_c, 0, 64, 62
1, 190876, Note_on_c, 0, 61, 62
1, 190892, Note_on_c, 0, 58, 51
1, 190916, Control_c, 0, 64, 0
1, 190948, Control_c, 0, 64, 127
1, 190956, Note_off_c, 0, 70, 64
1, 191020, Note_on_c, 0, 67, 54
1, 191040, Note_off_c, 0, 68, 64
1, 191116, Note_off_c, 0, 58, 64
1, 191136, Note_off_c, 0, 64, 64
1, 191136, Note_off_c, 0, 61, 64
1, 191144, Note_on_c, 0, 36, 55
1, 191172, Note_off_c, 0, 48, 64
1, 191188, Note_on_c, 0, 65, 54
1, 191220, Note_off_c, 0, 67, 64
1, 191220, Control_c, 0, 64, 0
1, 191236, Control_c, 0, 64, 127
1, 191380, Note_on_c, 0, 79, 69
1, 191444, Note_off_c, 0, 36, 64
1, 191444, Note_off_c, 0, 65, 64
1, 191556, Note_on_c, 0, 56, 35
1, 191572, Note_on_c, 0, 65, 40
1, 191580, Note_on_c, 0, 77, 58
1, 191628, Note_off_c, 0, 79, 64
1, 191668, Note_off_c, 0, 56, 64
1, 191684, Note_off_c, 0, 65, 64
1, 191724, Note_on_c, 0, 76, 57
1, 191792, Note_off_c, 0, 77, 64
1, 191864, Note_on_c, 0, 56, 51
1, 191876, Note_on_c, 0, 65, 43
1, 191884, Note_on_c, 0, 75, 51
1, 191924, Note_off_c, 0, 76, 64
1, 191948, Note_off_c, 0, 56, 64
1, 191948, Note_off_c, 0, 65, 64
1, 192032, Note_on_c, 0, 74, 62
1, 192068, Note_off_c, 0, 75, 64
1, 192224, Note_on_c, 0, 48, 59
1, 192256, Control_c, 0, 64, 0
1, 192288, Control_c, 0, 64, 127
1, 192424, Note_on_c, 0, 75, 54
1, 192444, Note_off_c, 0, 74, 64
1, 192476, Note_on_c, 0, 73, 59
1, 192520, Note_off_c, 0, 75, 64
1, 192532, Note_on_c, 0, 65, 48
1, 192544, Note_on_c, 0, 56, 48
1, 192576, Note_on_c, 0, 72, 59
1, 192596, Note_off_c, 0, 73, 64
1, 192676, Note_off_c, 0, 65, 64
1, 192688, Note_off_c, 0, 56, 64
1, 192708, Note_on_c, 0, 71, 66
1, 192740, Note_off_c, 0, 48, 64
1, 192784, Note_off_c, 0, 72, 64
1, 192820, Note_on_c, 0, 65, 52
1, 192844, Note_on_c, 0, 68, 57
1, 192852, Note_on_c, 0, 56, 54
1, 192892, Note_off_c, 0, 71, 64
1, 193012, Note_on_c, 0, 67, 73
1, 193028, Note_off_c, 0, 65, 64
1, 193060, Note_off_c, 0, 56, 64
1, 193084, Note_off_c, 0, 68, 64
1, 193180, Note_on_c, 0, 36, 72
1, 193184, Control_c, 0, 64, 0
1, 193220, Control_c, 0, 64, 127
1, 193388, Note_on_c, 0, 65, 70
1, 193392, Note_off_c, 0, 67, 64
1, 193448, Tempo, 500000
1, 193448, Note_off_c, 0, 65, 64
1, 193484, Note_on_c, 0, 65, 63
1, 193484, Note_on_c, 0, 59, 64
1, 193488, Note_on_c, 0, 55, 60
1, 193516, Control_c, 0, 64, 0
1, 193560, Control_c, 0, 64, 127
1, 193628, Note_off_c, 0, 36, 64
1, 193656, Note_off_c, 0, 65, 64
1, 193688, Note_off_c, 0, 59, 64
1, 193692, Note_off_c, 0, 55, 64
1, 193812, Note_on_c, 0, 65, 64
1, 193820, Note_on_c, 0, 59, 60
1, 193824, Note_on_c, 0, 55, 57
1, 194040, Note_off_c, 0, 59, 64
1, 194044, Note_off_c, 0, 55, 64
1, 194064, Note_off_c, 0, 65, 64
1, 194132, Note_on_c, 0, 43, 51
1, 194332, Note_on_c, 0, 65, 63
1, 194416, Note_on_c, 0, 59, 52
1, 194428, Note_on_c, 0, 55, 58
1, 194436, Note_on_c, 0, 67, 66
1, 194464, Note_off_c, 0, 65, 64
1, 194464, Control_c, 0, 64, 0
1, 194528, Control_c, 0, 64, 127
1, 194632, Note_off_c, 0, 55, 64
1, 194652, Note_off_c, 0, 59, 64
1, 194696, Note_off_c, 0, 43, 64
1, 194756, Note_on_c, 0, 59, 51
1, 194756, Note_on_c, 0, 55, 48
1, 194760, Note_on_c, 0, 62, 64
1, 194780, Note_off_c, 0, 67, 64
1, 195012, Note_off_c, 0, 59, 64
1, 195028, Note_off_c, 0, 55, 64
1, 195072, Note_on_c, 0, 36, 48
1, 195108, Note_on_c, 0, 64, 52
1, 195116, Control_c, 0, 64, 0
1, 195136, Note_off_c, 0, 62, 64
1, 195168, Control_c, 0, 64, 127
1, 195264, Note_on_c, 0, 66, 49
1, 195272, Note_off_c, 0, 64, 64
1, 195420, Note_on_c, 0, 64, 43
1, 195420, Note_on_c, 0, 67, 48
1, 195420, Note_on_c, 0, 55, 43
1, 195436, Note_off_c, 0, 66, 64
1, 195516, Note_off_c, 0, 55, 64
1, 195520, Note_off_c, 0, 64, 64
1, 195536, Note_off_c, 0, 36, 64
1, 195560, Note_on_c, 0, 68, 63
1, 195600, Note_off_c, 0, 67, 64
1, 195708, Note_on_c, 0, 64, 46
1, 195708, Note_on_c, 0, 55, 46
1, 195712, Note_on_c, 0, 70, 60
1, 195748, Note_off_c, 0, 68, 64
1, 195784, Note_off_c, 0, 55, 64
1, 195844, Note_on_c, 0, 72, 64
1, 195868, Note_off_c, 0, 70, 64
1, 196000, Note_on_c, 0, 73, 70
1, 196000, Note_on_c, 0, 48, 58
1, 196012, Control_c, 0, 64, 0
1, 196028, Note_off_c, 0, 72, 64
1, 196048, Control_c, 0, 64, 127
1, 196076, Note_off_c, 0, 64, 64
1, 196136, Note_on_c, 0, 70, 66
1, 196164, Note_off_c, 0, 73, 64
1, 196316, Note_off_c, 0, 48, 64
1, 196332, Note_off_c, 0, 70, 64
1, 196336, Note_on_c, 0, 64, 51
1, 196344, Note_on_c, 0, 80, 70
1, 196352, Note_on_c, 0, 55, 46
1, 196372, Control_c, 0, 64, 0
1, 196404, Control_c, 0, 64, 127
1, 196436, Note_off_c, 0, 55, 64
1, 196444, Note_off_c, 0, 64, 64
1, 196656, Note_on_c, 0, 55, 48
1, 196664, Note_on_c, 0, 64, 34
1, 196812, Note_on_c, 0, 79, 74
1, 196836, Note_off_c, 0, 80, 64
1, 197076, Note_on_c, 0, 48, 34
1, 197140, Note_on_c, 0, 85, 81
1, 197172, Control_c, 0, 64, 0
1, 197180, Note_off_c, 0, 79, 64
1, 197224, Control_c, 0, 64, 127
1, 197244, Note_off_c, 0, 55, 64
1, 197284, Note_off_c, 0, 64, 64
1, 197544, Note_on_c, 0, 64, 51
1, 197548, Note_on_c, 0, 70, 54
1, 197552, Note_on_c, 0, 61, 48
1, 197668, Note_off_c, 0, 85, 64
1, 197684, Note_off_c, 0, 48, 64
1, 197756, Note_off_c, 0, 64, 64
1, 197760, Note_off_c, 0, 61, 64
1, 197784, Note_on_c, 0, 72, 55
1, 197808, Note_off_c, 0, 70, 64
1, 197844, Note_on_c, 0, 70, 64
1, 197852, Note_on_c, 0, 61, 50
1, 197856, Note_on_c, 0, 64, 50
1, 197884, Note_off_c, 0, 72, 64
1, 198008, Note_on_c, 0, 69, 54
1, 198028, Note_off_c, 0, 70, 64
1, 198092, Note_off_c, 0, 64, 64
1, 198132, Note_off_c, 0, 61, 64
1, 198140, Note_on_c, 0, 48, 64
1, 198148, Note_on_c, 0, 68, 60
1, 198180, Note_off_c, 0, 69, 64
1, 198184, Control_c, 0, 64, 0
1, 198232, Control_c, 0, 64, 127
1, 198328, Note_off_c, 0, 68, 64
1, 198440, Note_on_c, 0, 58, 43
1, 198444, Note_on_c, 0, 68, 55
1, 198452, Note_on_c, 0, 64, 43
1, 198452, Note_on_c, 0, 61, 43
1, 198492, Control_c, 0, 64, 0
1, 198540, Control_c, 0, 64, 127
1, 198576, Note_off_c, 0, 58, 64
1, 198588, Note_off_c, 0, 64, 64
1, 198588, Note_off_c, 0, 61, 64
1, 198592, Note_off_c, 0, 48, 64
1, 198672, Note_on_c, 0, 70, 51
1, 198700, Note_off_c, 0, 68, 64
1, 198724, Note_on_c, 0, 68, 64
1, 198724, Note_on_c, 0, 64, 44
1, 198736, Note_on_c, 0, 61, 51
1, 198744, Note_on_c, 0, 58, 44
1, 198820, Note_off_c, 0, 70, 64
1, 198872, Note_off_c, 0, 61, 64
1, 198880, Note_off_c, 0, 58, 64
1, 198892, Note_on_c, 0, 67, 57
1, 198900, Note_off_c, 0, 64, 64
1, 198928, Note_off_c, 0, 68, 64
1, 199064, Note_on_c, 0, 36, 72
1, 199072, Note_on_c, 0, 65, 55
1, 199080, Control_c, 0, 64, 0
1, 199096, Note_off_c, 0, 67, 64
1, 199100, Control_c, 0, 64, 127
1, 199220, Note_on_c, 0, 79, 65
1, 199264, Note_off_c, 0, 65, 64
1, 199372, Note_on_c, 0, 77, 60
1, 199376, Note_on_c, 0, 56, 37
1, 199380, Note_on_c, 0, 65, 47
1, 199396, Control_c, 0, 64, 0
1, 199412, Control_c, 0, 64, 127
1, 199428, Note_off_c, 0, 79, 64
1, 199508, Note_off_c, 0, 36, 64
1, 199508, Note_on_c, 0, 76, 64
1, 199524, Note_off_c, 0, 65, 64
1, 199540, Note_off_c, 0, 56, 64
1, 199556, Note_off_c, 0, 77, 64
1, 199644, Note_on_c, 0, 65, 51
1, 199656, Note_on_c, 0, 75, 59
1, 199656, Note_on_c, 0, 56, 49
1, 199692, Note_off_c, 0, 76, 64
1, 199784, Note_on_c, 0, 74, 57
1, 199796, Note_off_c, 0, 75, 64
1, 199840, Note_off_c, 0, 65, 64
1, 199852, Note_off_c, 0, 56, 64
1, 199936, Note_on_c, 0, 73, 71
1, 199944, Note_on_c, 0, 48, 43
1, 199964, Control_c, 0, 64, 0
1, 199980, Note_off_c, 0, 74, 64
1, 200020, Control_c, 0, 64, 127
1, 200088, Note_on_c, 0, 75, 63
1, 200100, Note_off_c, 0, 73, 64
1, 200172, Note_on_c, 0, 73, 57
1, 200196, Note_off_c, 0, 75, 64
1, 200220, Note_on_c, 0, 65, 41
1, 200228, Note_on_c, 0, 56, 42
1, 200236, Note_on_c, 0, 72, 59
1, 200260, Note_off_c, 0, 73, 64
1, 200368, Note_on_c, 0, 71, 60
1, 200384, Note_off_c, 0, 65, 64
1, 200396, Note_off_c, 0, 56, 64
1, 200396, Note_off_c, 0, 72, 64
1, 200476, Note_off_c, 0, 48, 64
1, 200528, Note_on_c, 0, 65, 40
1, 200536, Note_on_c, 0, 68, 52
1, 200552, Note_on_c, 0, 56, 49
1, 200588, Note_off_c, 0, 71, 64
1, 200636, Note_off_c, 0, 65, 64
1, 200708, Note_on_c, 0, 65, 51
1, 200716, Note_off_c, 0, 56, 64
1, 200752, Note_off_c, 0, 68, 64
1, 200900, Note_on_c, 0, 36, 63
1, 200916, Note_on_c, 0, 80, 64
1, 200948, Note_off_c, 0, 65, 64
1, 201176, Note_on_c, 0, 65, 60
1, 201272, Note_off_c, 0, 65, 64
1, 201288, Note_on_c, 0, 65, 59
1, 201300, Note_on_c, 0, 59, 49
1, 201300, Note_on_c, 0, 56, 25
1, 201356, Note_off_c, 0, 36, 64
1, 201368, Note_off_c, 0, 80, 64
1, 201520, Note_off_c, 0, 65, 64
1, 201524, Note_off_c, 0, 59, 64
1, 201528, Note_off_c, 0, 56, 64
1, 201604, Note_on_c, 0, 65, 54
1, 201612, Note_on_c, 0, 56, 47
1, 201620, Note_on_c, 0, 59, 37
1, 201904, Note_on_c, 0, 43, 60
1, 202120, Note_off_c, 0, 65, 64
1, 202148, Note_on_c, 0, 65, 40
1, 202184, Note_off_c, 0, 56, 64
1, 202188, Note_off_c, 0, 59, 64
1, 202248, Note_on_c, 0, 55, 43
1, 202248, Note_on_c, 0, 59, 57
1, 202252, Note_on_c, 0, 63, 59
1, 202284, Note_off_c, 0, 65, 64
1, 202312, Control_c, 0, 64, 0
1, 202332, Control_c, 0, 64, 127
1, 202552, Note_off_c, 0, 59, 64
1, 202592, Note_off_c, 0, 55, 64
1, 202640, Note_on_c, 0, 59, 55
1, 202644, Note_on_c, 0, 61, 51
1, 202644, Note_on_c, 0, 55, 46
1, 202656, Note_off_c, 0, 63, 64
1, 202676, Control_c, 0, 64, 0
1, 202684, Control_c, 0, 64, 0
1, 202700, Control_c, 0, 64, 127
1, 202708, Control_c, 0, 64, 127
1, 202920, Note_off_c, 0, 43, 64
1, 202928, Note_off_c, 0, 55, 64
1, 202944, Note_off_c, 0, 59, 64
1, 203036, Note_on_c, 0, 60, 46
1, 203036, Note_on_c, 0, 36, 64
1, 203044, Note_off_c, 0, 61, 64
1, 203068, Control_c, 0, 64, 0
1, 203116, Control_c, 0, 64, 127
1, 203452, Note_on_c, 0, 52, 70
1, 203468, Note_on_c, 0, 70, 60
1, 203516, Control_c, 0, 64, 0
1, 203524, Note_off_c, 0, 36, 64
1, 203576, Control_c, 0, 64, 127
1, 203596, Note_on_c, 0, 68, 58
1, 203616, Note_on_c, 0, 53, 52
1, 203664, Note_off_c, 0, 70, 64
1, 203676, Note_off_c, 0, 52, 64
1, 203756, Note_on_c, 0, 67, 60
1, 203756, Note_on_c, 0, 55, 60
1, 203792, Note_off_c, 0, 60, 64
1, 203796, Note_off_c, 0, 53, 64
1, 203824, Note_off_c, 0, 68, 64
1, 203892, Note_on_c, 0, 56, 66
1, 203892, Note_on_c, 0, 65, 65
1, 203912, Note_off_c, 0, 55, 64
1, 203924, Note_off_c, 0, 67, 64
1, 204052, Note_on_c, 0, 61, 66
1, 204052, Note_on_c, 0, 64, 66
1, 204052, Note_on_c, 0, 67, 60
1, 204060, Note_on_c, 0, 48, 64
1, 204060, Note_on_c, 0, 58, 72
1, 204072, Note_off_c, 0, 65, 64
1, 204076, Note_on_c, 0, 58, 72
1, 204096, Note_on_c, 0, 67, 60
1, 204104, Note_off_c, 0, 56, 64
1, 204104, Control_c, 0, 64, 0
1, 204164, Control_c, 0, 64, 127
1, 204264, Note_on_c, 0, 68, 59
1, 204284, Note_off_c, 0, 61, 64
1, 204284, Note_on_c, 0, 60, 74
1, 204292, Note_off_c, 0, 64, 64
1, 204308, Note_off_c, 0, 58, 64
1, 204308, Note_off_c, 0, 58, 64
1, 204340, Note_on_c, 0, 67, 72
1, 204356, Note_on_c, 0, 64, 66
1, 204356, Note_on_c, 0, 61, 52
1, 204360, Note_on_c, 0, 58, 71
1, 204372, Note_off_c, 0, 68, 64
1, 204380, Control_c, 0, 64, 0
1, 204396, Note_on_c, 0, 58, 72
1, 204404, Note_off_c, 0, 60, 64
1, 204412, Note_off_c, 0, 67, 64
1, 204412, Note_off_c, 0, 67, 64
1, 204416, Note_on_c, 0, 67, 60
1, 204444, Control_c, 0, 64, 127
1, 204572, Note_off_c, 0, 58, 64
1, 204584, Note_off_c, 0, 67, 64
1, 204584, Note_off_c, 0, 64, 64
1, 204628, Note_off_c, 0, 58, 64
1, 204652, Note_on_c, 0, 65, 66
1, 204652, Note_on_c, 0, 56, 64
1, 204676, Note_off_c, 0, 67, 64
1, 204844, Note_off_c, 0, 65, 64
1, 204844, Note_off_c, 0, 56, 64
1, 204956, Note_on_c, 0, 65, 51
1, 204956, Note_on_c, 0, 56, 71
1, 204964, Note_on_c, 0, 73, 56
1, 204972, Note_off_c, 0, 61, 64
1, 204988, Control_c, 0, 64, 0
1, 205036, Control_c, 0, 64, 127
1, 205200, Note_on_c, 0, 77, 50
1, 205200, Note_on_c, 0, 68, 28
1, 205232, Note_off_c, 0, 73, 64
1, 205236, Note_off_c, 0, 65, 64
1, 205260, Note_off_c, 0, 56, 64
1, 205260, Note_off_c, 0, 77, 64
1, 205260, Note_off_c, 0, 68, 64
1, 205280, Note_on_c, 0, 58, 64
1, 205284, Note_on_c, 0, 68, 57
1, 205292, Note_on_c, 0, 77, 56
1, 205308, Control_c, 0, 64, 0
1, 205356, Control_c, 0, 64, 127
1, 205448, Note_off_c, 0, 58, 64
1, 205448, Note_on_c, 0, 60, 77
1, 205600, Note_on_c, 0, 65, 71
1, 205608, Note_on_c, 0, 61, 54
1, 205612, Note_on_c, 0, 73, 62
1, 205620, Note_off_c, 0, 68, 64
1, 205624, Control_c, 0, 64, 0
1, 205628, Note_off_c, 0, 77, 64
1, 205644, Control_c, 0, 64, 127
1, 205656, Note_off_c, 0, 60, 64
1, 205760, Note_on_c, 0, 63, 54
1, 205772, Note_off_c, 0, 61, 64
1, 205904, Note_off_c, 0, 65, 64
1, 205924, Note_on_c, 0, 61, 74
1, 205924, Note_on_c, 0, 65, 82
1, 205928, Note_off_c, 0, 48, 64
1, 205932, Note_on_c, 0, 68, 50
1, 205944, Note_off_c, 0, 63, 64
1, 205952, Note_off_c, 0, 73, 64
1, 206092, Note_on_c, 0, 60, 55
1, 206108, Note_off_c, 0, 61, 64
1, 206180, Note_on_c, 0, 67, 46
1, 206196, Note_off_c, 0, 68, 64
1, 206252, Note_off_c, 0, 67, 64
1, 206276, Note_on_c, 0, 67, 49
1, 206276, Note_on_c, 0, 59, 77
1, 206320, Note_off_c, 0, 60, 64
1, 206328, Control_c, 0, 64, 0
1, 206380, Control_c, 0, 64, 127
1, 206404, Note_off_c, 0, 65, 64
1, 206548, Note_off_c, 0, 67, 64
1, 206548, Note_off_c, 0, 59, 64
1, 206624, Note_on_c, 0, 65, 64
1, 206628, Note_on_c, 0, 55, 52
1, 206628, Note_on_c, 0, 74, 65
1, 206640, Control_c, 0, 64, 0
1, 206688, Control_c, 0, 64, 127
1, 206928, Note_on_c, 0, 48, 64
1, 206928, Note_on_c, 0, 36, 64
1, 206940, Note_off_c, 0, 65, 64
1, 206948, Note_on_c, 0, 64, 57
1, 206956, Note_off_c, 0, 74, 64
1, 206964, Note_on_c, 0, 72, 57
1, 206980, Control_c, 0, 64, 0
1, 207020, Note_off_c, 0, 55, 64
1, 207028, Control_c, 0, 64, 127
1, 207108, Note_on_c, 0, 71, 63
1, 207136, Note_off_c, 0, 72, 64
1, 207208, Note_off_c, 0, 64, 64
1, 207272, Note_on_c, 0, 72, 83
1, 207276, Note_on_c, 0, 52, 64
1, 207276, Note_on_c, 0, 70, 77
1, 207300, Note_off_c, 0, 71, 64
1, 207324, Control_c, 0, 64, 0
1, 207372, Control_c, 0, 64, 127
1, 207432, Note_on_c, 0, 68, 64
1, 207432, Note_on_c, 0, 53, 70
1, 207440, Note_off_c, 0, 70, 64
1, 207444, Note_off_c, 0, 52, 64
1, 207572, Note_off_c, 0, 72, 64
1, 207580, Note_on_c, 0, 55, 71
1, 207580, Note_on_c, 0, 67, 72
1, 207596, Note_off_c, 0, 68, 64
1, 207596, Control_c, 0, 64, 0
1, 207600, Note_off_c, 0, 53, 64
1, 207604, Note_on_c, 0, 72, 83
1, 207616, Note_off_c, 0, 36, 64
1, 207656, Control_c, 0, 64, 127
1, 207704, Note_on_c, 0, 56, 59
1, 207712, Note_on_c, 0, 65, 60
1, 207724, Note_off_c, 0, 55, 64
1, 207724, Note_off_c, 0, 67, 64
1, 207832, Note_off_c, 0, 72, 64
1, 207868, Note_on_c, 0, 72, 79
1, 207884, Note_on_c, 0, 67, 66
1, 207884, Note_on_c, 0, 58, 87
1, 207888, Note_on_c, 0, 64, 48
1, 207892, Note_off_c, 0, 56, 64
1, 207900, Note_off_c, 0, 65, 64
1, 207916, Control_c, 0, 64, 0
1, 207960, Control_c, 0, 64, 127
1, 208100, Note_on_c, 0, 68, 48
1, 208104, Note_on_c, 0, 60, 72
1, 208124, Note_off_c, 0, 67, 64
1, 208128, Note_off_c, 0, 58, 64
1, 208168, Note_on_c, 0, 58, 66
1, 208172, Note_on_c, 0, 67, 74
1, 208208, Note_off_c, 0, 68, 64
1, 208212, Note_off_c, 0, 60, 64
1, 208220, Control_c, 0, 64, 0
1, 208296, Control_c, 0, 64, 127
1, 208436, Note_off_c, 0, 64, 64
1, 208488, Note_on_c, 0, 56, 70
1, 208508, Note_on_c, 0, 65, 66
1, 208516, Note_on_c, 0, 73, 71
1, 208528, Control_c, 0, 64, 0
1, 208532, Note_off_c, 0, 58, 64
1, 208536, Note_off_c, 0, 72, 64
1, 208536, Note_off_c, 0, 67, 64
1, 208580, Control_c, 0, 64, 127
1, 208724, Note_off_c, 0, 56, 64
1, 208736, Note_off_c, 0, 65, 64
1, 208860, Note_on_c, 0, 56, 70
1, 208876, Control_c, 0, 64, 127
1, 208968, Note_on_c, 0, 80, 72
1, 209128, Note_on_c, 0, 58, 64
1, 209132, Note_off_c, 0, 56, 64
1, 209140, Note_on_c, 0, 77, 64
1, 209140, Note_on_c, 0, 68, 80
1, 209168, Note_off_c, 0, 80, 64
1, 209180, Control_c, 0, 64, 0
1, 209188, Note_off_c, 0, 73, 64
1, 209228, Control_c, 0, 64, 127
1, 209296, Note_on_c, 0, 60, 64
1, 209324, Note_off_c, 0, 58, 64
1, 209436, Note_on_c, 0, 61, 71
1, 209436, Note_on_c, 0, 61, 71
1, 209448, Note_on_c, 0, 73, 72
1, 209448, Note_on_c, 0, 65, 72
1, 209460, Note_off_c, 0, 60, 64
1, 209548, Note_off_c, 0, 77, 64
1, 209548, Note_off_c, 0, 68, 64
1, 209584, Note_on_c, 0, 63, 64
1, 209624, Note_off_c, 0, 61, 64
1, 209624, Note_off_c, 0, 61, 64
1, 209740, Note_off_c, 0, 65, 64
1, 209756, Note_on_c, 0, 61, 70
1, 209768, Note_on_c, 0, 65, 66
1, 209768, Note_on_c, 0, 68, 59
1, 209772, Note_off_c, 0, 73, 64
1, 209796, Note_off_c, 0, 48, 64
1, 209800, Note_off_c, 0, 63, 64
1, 209912, Note_on_c, 0, 60, 77
1, 209932, Note_off_c, 0, 61, 64
1, 210020, Note_on_c, 0, 67, 66
1, 210028, Note_off_c, 0, 68, 64
1, 210092, Note_off_c, 0, 67, 64
1, 210092, Control_c, 0, 64, 0
1, 210108, Note_on_c, 0, 67, 70
1, 210108, Note_on_c, 0, 59, 66
1, 210152, Control_c, 0, 64, 127
1, 210156, Note_off_c, 0, 60, 64
1, 210420, Note_off_c, 0, 65, 64
1, 210480, Note_on_c, 0, 74, 58
1, 210480, Note_on_c, 0, 55, 59
1, 210484, Note_on_c, 0, 65, 72
1, 210516, Note_off_c, 0, 59, 64
1, 210516, Note_off_c, 0, 67, 64
1, 210528, Control_c, 0, 64, 0
1, 210576, Control_c, 0, 64, 127
1, 210924, Note_off_c, 0, 55, 64
1, 210992, Note_on_c, 0, 72, 59
1, 210992, Note_on_c, 0, 64, 59
1, 210996, Note_on_c, 0, 48, 42
1, 211008, Note_off_c, 0, 74, 64
1, 211008, Note_on_c, 0, 55, 48
1, 211012, Note_off_c, 0, 65, 64
1, 211056, Control_c, 0, 64, 0
1, 211132, Control_c, 0, 64, 127
1, 211504, Note_off_c, 0, 48, 64
1, 211512, Note_on_c, 0, 43, 65
1, 211656, Note_on_c, 0, 48, 69
1, 211668, Note_off_c, 0, 43, 64
1, 211704, Control_c, 0, 64, 0
1, 211788, Control_c, 0, 64, 127
1, 211828, Note_on_c, 0, 50, 71
1, 211852, Note_off_c, 0, 48, 64
1, 211956, Control_c, 0, 64, 0
1, 211972, Note_on_c, 0, 48, 71
1, 211992, Note_off_c, 0, 50, 64
1, 212084, Control_c, 0, 64, 127
1, 212236, Note_off_c, 0, 48, 64
1, 212236, Note_on_c, 0, 43, 65
1, 212280, Control_c, 0, 64, 0
1, 212308, Note_on_c, 0, 48, 71
1, 212336, Note_off_c, 0, 43, 64
1, 212404, Control_c, 0, 64, 127
1, 212508, Note_off_c, 0, 64, 64
1, 212532, Note_off_c, 0, 48, 64
1, 212556, Note_off_c, 0, 55, 64
1, 212580, Note_off_c, 0, 72, 64
1, 212696, Note_on_c, 0, 65, 49
1, 212700, Note_on_c, 0, 71, 52
1, 212700, Note_on_c, 0, 43, 51
1, 212708, Note_on_c, 0, 55, 37
1, 212744, Control_c, 0, 64, 0
1, 212836, Control_c, 0, 64, 127
1, 213204, Note_off_c, 0, 55, 64
1, 213216, Note_on_c, 0, 64, 43
1, 213216, Note_on_c, 0, 72, 47
1, 213224, Note_on_c, 0, 55, 32
1, 213224, Note_on_c, 0, 48, 34
1, 213244, Note_off_c, 0, 71, 64
1, 213244, Note_off_c, 0, 43, 64
1, 213248, Note_off_c, 0, 65, 64
1, 213276, Control_c, 0, 64, 0
1, 213376, Control_c, 0, 64, 127
1, 213756, Note_on_c, 0, 43, 49
1, 213764, Note_off_c, 0, 48, 64
1, 213924, Note_on_c, 0, 48, 57
1, 213940, Note_off_c, 0, 43, 64
1, 214080, Note_on_c, 0, 50, 55
1, 214108, Note_off_c, 0, 48, 64
1, 214196, Control_c, 0, 64, 0
1, 214244, Note_on_c, 0, 48, 55
1, 214276, Note_off_c, 0, 50, 64
1, 214336, Control_c, 0, 64, 127
1, 214524, Note_off_c, 0, 48, 64
1, 214524, Note_on_c, 0, 43, 49
1, 214560, Control_c, 0, 64, 0
1, 214592, Note_on_c, 0, 48, 49
1, 214620, Note_off_c, 0, 43, 64
1, 214668, Control_c, 0, 64, 127
1, 214728, Note_off_c, 0, 55, 64
1, 214732, Note_off_c, 0, 48, 64
1, 214780, Note_off_c, 0, 64, 64
1, 214856, Note_off_c, 0, 72, 64
1, 214996, Note_on_c, 0, 55, 31
1, 215004, Note_on_c, 0, 71, 34
1, 215004, Note_on_c, 0, 65, 46
1, 215004, Note_on_c, 0, 43, 31
1, 215016, Control_c, 0, 64, 127
1, 215020, Tempo, 500000
1, 215020, Control_c, 0, 64, 0
1, 215064, Control_c, 0, 64, 127
1, 215340, Note_off_c, 0, 55, 64
1, 215348, Note_off_c, 0, 43, 64
1, 215348, Note_off_c, 0, 65, 64
1, 215348, Note_off_c, 0, 71, 64
1, 215376, Note_on_c, 0, 64, 51
1, 215388, Note_on_c, 0, 76, 43
1, 215388, Note_on_c, 0, 72, 52
1, 215392, Note_on_c, 0, 48, 40
1, 215400, Note_on_c, 0, 55, 26
1, 215420, Control_c, 0, 64, 0
1, 215472, Note_off_c, 0, 76, 64
1, 215484, Note_off_c, 0, 72, 64
1, 215484, Control_c, 0, 64, 127
1, 215532, Note_off_c, 0, 64, 64
1, 215640, Note_on_c, 0, 64, 64
1, 215688, Note_off_c, 0, 55, 64
1, 215704, Note_off_c, 0, 64, 64
1, 215720, Note_off_c, 0, 48, 64
1, 215728, Control_c, 0, 64, 0
1, 215736, Note_on_c, 0, 64, 57
1, 215796, Control_c, 0, 64, 127
1, 215872, Note_off_c, 0, 64, 64
1, 216104, Note_on_c, 0, 56, 58
1, 216116, Note_on_c, 0, 60, 59
1, 216120, Note_on_c, 0, 64, 55
1, 216128, Note_on_c, 0, 41, 54
1, 216136, Note_on_c, 0, 53, 46
1, 216144, Control_c, 0, 64, 0
1, 216208, Control_c, 0, 64, 127
1, 216216, Note_off_c, 0, 53, 64
1, 216244, Note_off_c, 0, 41, 64
1, 216272, Note_off_c, 0, 60, 64
1, 216296, Note_off_c, 0, 64, 64
1, 216380, Note_off_c, 0, 56, 64
1, 216512, Note_on_c, 0, 64, 51
1, 216512, Note_on_c, 0, 55, 48
1, 216524, Note_on_c, 0, 60, 51
1, 216528, Note_on_c, 0, 36, 48
1, 216536, Note_on_c, 0, 48, 47
1, 216536, Control_c, 0, 64, 0
1, 216600, Note_off_c, 0, 48, 64
1, 216604, Note_off_c, 0, 36, 64
1, 216616, Control_c, 0, 64, 127
1, 216628, Note_off_c, 0, 60, 64
1, 216660, Note_off_c, 0, 64, 64
1, 216780, Note_on_c, 0, 64, 51
1, 216828, Note_off_c, 0, 64, 64
1, 216848, Control_c, 0, 64, 0
1, 216864, Note_on_c, 0, 64, 59
1, 216900, Note_off_c, 0, 55, 64
1, 216972, Control_c, 0, 64, 127
1, 217096, Note_off_c, 0, 64, 64
1, 217268, Note_on_c, 0, 56, 41
1, 217272, Note_on_c, 0, 64, 54
1, 217280, Note_on_c, 0, 60, 54
1, 217280, Note_on_c, 0, 41, 41
1, 217288, Control_c, 0, 64, 0
1, 217300, Note_on_c, 0, 48, 21
1, 217356, Control_c, 0, 64, 127
1, 217424, Note_off_c, 0, 60, 64
1, 217432, Note_off_c, 0, 41, 64
1, 217436, Note_off_c, 0, 48, 64
1, 217472, Note_off_c, 0, 64, 64
1, 217512, Note_off_c, 0, 56, 64
1, 217712, Note_on_c, 0, 60, 49
1, 217720, Note_on_c, 0, 36, 47
1, 217728, Note_on_c, 0, 64, 43
1, 217728, Note_on_c, 0, 55, 41
1, 217736, Note_on_c, 0, 48, 40
1, 217744, Control_c, 0, 64, 0
1, 217784, Note_off_c, 0, 60, 64
1, 217784, Note_off_c, 0, 55, 64
1, 217788, Note_off_c, 0, 36, 64
1, 217792, Note_off_c, 0, 48, 64
1, 217796, Note_off_c, 0, 64, 64
1, 217884, Control_c, 0, 64, 127
1, 217976, Control_c, 0, 64, 0
1, 218152, Note_on_c, 0, 64, 40
1, 218152, Note_on_c, 0, 36, 42
1, 218164, Note_on_c, 0, 55, 35
1, 218164, Note_on_c, 0, 48, 42
1, 218168, Note_on_c, 0, 60, 42
1, 218204, Note_off_c, 0, 60, 64
1, 218208, Note_off_c, 0, 55, 64
1, 218212, Note_off_c, 0, 36, 64
1, 218220, Note_off_c, 0, 48, 64
1, 218224, Note_off_c, 0, 64, 64
1, 219128, Note_on_c, 0, 36, 28
1, 219132, Note_on_c, 0, 60, 36
1, 219136, Note_on_c, 0, 64, 37
1, 219144, Note_on_c, 0, 55, 31
1, 219148, Note_on_c, 0, 48, 28
1, 219188, Note_off_c, 0, 60, 64
1, 219196, Note_off_c, 0, 55, 64
1, 219200, Note_off_c, 0, 64, 64
1, 219204, Note_off_c, 0, 36, 64
1, 219204, Note_off_c, 0, 48, 64
1, 219660, Note_on_c, 0, 64, 36
1, 219672, Note_on_c, 0, 55, 23
1, 219672, Note_on_c, 0, 36, 23
1, 219676, Note_on_c, 0, 60, 35
1, 219688, Note_on_c, 0, 48, 23
1, 219708, Note_off_c, 0, 60, 64
1, 219720, Note_off_c, 0, 55, 64
1, 219720, Note_off_c, 0, 36, 64
1, 219724, Note_off_c, 0, 64, 64
1, 219732, Note_off_c, 0, 48, 64
1, 219732, End_track
2, 0, Start_track
2, 1, Copyright_t, "__________________________________________________________\012\012KUNSTDERFUGE.COM GREAT CLASSICAL MIDI COLLECTION\012__________________________________________________________\012\012KUNST-DER-FUGE CONTRIBUTOR's PROPERTY\012Copyright by Contributor & Kunst der Fuge, © 2006\012\012Contributors' list: http://kunstderfuge.com/thanks.htm\012Terms and conditions: http://kunstderfuge.com/notes.htm\012__________________________________________________________\012\012NO WEBSITE MAY PUBLISH THIS FILE WITHOUT PERMISSION\012NO COMMERCIAL USE ALLOWED, NOR BY SALES NOR by eBay!\012PLEASE REPORT ANY ABUSE TO INFO@ONCLASSICAL.COM\012__________________________________________________________\012\012Thousands of free classical MIDI files at kunstderfuge.com"
2, 1, End_track
0, 0, End_of_file
