0, 0, Header, 0, 2, 384
1, 0, Start_track
1, 0, Title_t, "Chopin's Mazurkas (played by © Ron Lubetsky)"
1, 0, Time_signature, 4, 2, 96, 8
1, 0, Sequencer_specific, 3, 0, 0, 65
1, 0, Tempo, 500000
1, 292, Note_on_c, 0, 73, 50
1, 372, Control_c, 0, 64, 0
1, 424, Control_c, 0, 64, 127
1, 444, Note_on_c, 0, 71, 62
1, 472, Note_off_c, 0, 73, 64
1, 812, Note_on_c, 0, 69, 58
1, 824, Note_off_c, 0, 71, 64
1, 828, Control_c, 0, 64, 0
1, 900, Control_c, 0, 64, 127
1, 1164, Note_on_c, 0, 68, 55
1, 1196, Note_off_c, 0, 69, 64
1, 1200, Control_c, 0, 64, 0
1, 1284, Control_c, 0, 64, 127
1, 1440, Note_on_c, 0, 64, 41
1, 1452, Note_off_c, 0, 68, 64
1, 1516, Note_on_c, 0, 61, 62
1, 1548, Note_off_c, 0, 64, 64
1, 1552, Control_c, 0, 64, 0
1, 1620, Control_c, 0, 64, 127
1, 1884, Note_on_c, 0, 62, 64
1, 1900, Note_off_c, 0, 61, 64
1, 1936, Control_c, 0, 64, 0
1, 2036, Control_c, 0, 64, 127
1, 2252, Note_on_c, 0, 64, 63
1, 2284, Note_off_c, 0, 62, 64
1, 2288, Control_c, 0, 64, 0
1, 2376, Control_c, 0, 64, 127
1, 2532, Note_on_c, 0, 66, 55
1, 2568, Note_off_c, 0, 64, 64
1, 2596, Control_c, 0, 64, 0
1, 2612, Note_on_c, 0, 68, 58
1, 2652, Note_off_c, 0, 66, 64
1, 2672, Control_c, 0, 64, 127
1, 2892, Note_off_c, 0, 68, 64
1, 2904, Note_on_c, 0, 71, 59
1, 2956, Control_c, 0, 64, 0
1, 2976, Note_on_c, 0, 69, 66
1, 2992, Note_off_c, 0, 71, 64
1, 3032, Control_c, 0, 64, 127
1, 3408, Note_off_c, 0, 69, 64
1, 3408, Note_on_c, 0, 68, 57
1, 3424, Control_c, 0, 64, 0
1, 3512, Control_c, 0, 64, 127
1, 3700, Note_on_c, 0, 64, 51
1, 3736, Note_off_c, 0, 68, 64
1, 3784, Note_on_c, 0, 61, 50
1, 3792, Note_on_c, 0, 56, 50
1, 3812, Control_c, 0, 64, 0
1, 3840, Note_off_c, 0, 64, 64
1, 3872, Control_c, 0, 64, 127
1, 4144, Note_off_c, 0, 56, 64
1, 4176, Note_on_c, 0, 54, 43
1, 4184, Note_on_c, 0, 62, 60
1, 4196, Note_on_c, 0, 57, 41
1, 4216, Note_off_c, 0, 61, 64
1, 4224, Control_c, 0, 64, 0
1, 4304, Control_c, 0, 64, 127
1, 4612, Note_on_c, 0, 64, 55
1, 4620, Note_off_c, 0, 62, 64
1, 4624, Note_off_c, 0, 54, 64
1, 4624, Note_on_c, 0, 49, 57
1, 4632, Note_off_c, 0, 57, 64
1, 4640, Control_c, 0, 64, 0
1, 4708, Control_c, 0, 64, 127
1, 4924, Note_off_c, 0, 64, 64
1, 4924, Note_on_c, 0, 73, 56
1, 4996, Note_on_c, 0, 61, 47
1, 4996, Note_on_c, 0, 64, 36
1, 5000, Note_on_c, 0, 56, 31
1, 5008, Note_on_c, 0, 71, 62
1, 5020, Note_off_c, 0, 73, 64
1, 5032, Control_c, 0, 64, 0
1, 5088, Control_c, 0, 64, 127
1, 5108, Note_off_c, 0, 49, 64
1, 5152, Note_off_c, 0, 61, 64
1, 5156, Note_off_c, 0, 64, 64
1, 5160, Note_off_c, 0, 56, 64
1, 5368, Note_on_c, 0, 66, 55
1, 5372, Note_on_c, 0, 69, 62
1, 5376, Note_on_c, 0, 61, 31
1, 5384, Note_off_c, 0, 71, 64
1, 5384, Note_on_c, 0, 57, 42
1, 5388, Control_c, 0, 64, 0
1, 5412, Control_c, 0, 64, 127
1, 5712, Note_off_c, 0, 66, 64
1, 5716, Note_off_c, 0, 61, 64
1, 5724, Note_on_c, 0, 68, 58
1, 5728, Note_off_c, 0, 57, 64
1, 5736, Note_on_c, 0, 49, 58
1, 5752, Note_off_c, 0, 69, 64
1, 5756, Control_c, 0, 64, 0
1, 5804, Control_c, 0, 64, 127
1, 6004, Note_on_c, 0, 64, 60
1, 6024, Note_off_c, 0, 68, 64
1, 6064, Note_on_c, 0, 61, 58
1, 6072, Note_on_c, 0, 56, 44
1, 6088, Control_c, 0, 64, 0
1, 6108, Note_off_c, 0, 64, 64
1, 6148, Control_c, 0, 64, 127
1, 6288, Note_off_c, 0, 49, 64
1, 6400, Note_off_c, 0, 56, 64
1, 6420, Note_on_c, 0, 54, 41
1, 6424, Note_on_c, 0, 62, 56
1, 6432, Note_on_c, 0, 57, 34
1, 6440, Note_off_c, 0, 61, 64
1, 6440, Control_c, 0, 64, 0
1, 6512, Control_c, 0, 64, 127
1, 6752, Note_off_c, 0, 54, 64
1, 6760, Note_on_c, 0, 64, 62
1, 6764, Note_on_c, 0, 49, 60
1, 6784, Control_c, 0, 64, 0
1, 6792, Note_off_c, 0, 62, 64
1, 6800, Note_off_c, 0, 57, 64
1, 6848, Control_c, 0, 64, 127
1, 7040, Note_on_c, 0, 66, 48
1, 7064, Note_off_c, 0, 64, 64
1, 7116, Note_on_c, 0, 64, 26
1, 7116, Note_on_c, 0, 61, 46
1, 7124, Note_on_c, 0, 68, 62
1, 7140, Control_c, 0, 64, 0
1, 7176, Note_off_c, 0, 66, 64
1, 7184, Control_c, 0, 64, 127
1, 7232, Note_off_c, 0, 49, 64
1, 7272, Note_off_c, 0, 64, 64
1, 7272, Note_off_c, 0, 61, 64
1, 7416, Note_on_c, 0, 71, 58
1, 7432, Note_off_c, 0, 68, 64
1, 7488, Note_on_c, 0, 66, 39
1, 7496, Note_on_c, 0, 57, 39
1, 7504, Note_on_c, 0, 69, 62
1, 7508, Note_on_c, 0, 61, 32
1, 7516, Control_c, 0, 64, 0
1, 7528, Note_off_c, 0, 71, 64
1, 7552, Control_c, 0, 64, 127
1, 7832, Note_off_c, 0, 66, 64
1, 7840, Note_off_c, 0, 57, 64
1, 7852, Note_off_c, 0, 61, 64
1, 7896, Note_on_c, 0, 68, 55
1, 7924, Note_on_c, 0, 49, 42
1, 7932, Note_off_c, 0, 69, 64
1, 7964, Control_c, 0, 64, 0
1, 8048, Control_c, 0, 64, 127
1, 8328, Note_on_c, 0, 56, 39
1, 8336, Note_on_c, 0, 61, 31
1, 8352, Control_c, 0, 64, 0
1, 8400, Note_off_c, 0, 49, 64
1, 8424, Control_c, 0, 64, 127
1, 8544, Note_on_c, 0, 64, 40
1, 8576, Note_off_c, 0, 68, 64
1, 8580, Note_off_c, 0, 61, 64
1, 8616, Note_off_c, 0, 56, 64
1, 8788, Note_on_c, 0, 68, 52
1, 8832, Note_off_c, 0, 64, 64
1, 9000, Note_on_c, 0, 64, 57
1, 9048, Note_off_c, 0, 68, 64
1, 9192, Control_c, 0, 64, 0
1, 9196, Note_on_c, 0, 40, 64
1, 9240, Control_c, 0, 64, 127
1, 9400, Note_on_c, 0, 76, 57
1, 9464, Note_off_c, 0, 64, 64
1, 9564, Control_c, 0, 64, 127
1, 9568, Note_on_c, 0, 64, 26
1, 9568, Note_on_c, 0, 75, 59
1, 9568, Note_on_c, 0, 68, 48
1, 9572, Note_on_c, 0, 59, 37
1, 9596, Note_off_c, 0, 76, 64
1, 9616, Control_c, 0, 64, 0
1, 9632, Control_c, 0, 64, 127
1, 9700, Note_off_c, 0, 64, 64
1, 9704, Note_off_c, 0, 68, 64
1, 9704, Note_off_c, 0, 59, 64
1, 9932, Note_on_c, 0, 73, 62
1, 9944, Note_on_c, 0, 58, 42
1, 9960, Note_on_c, 0, 67, 25
1, 9960, Control_c, 0, 64, 0
1, 9964, Note_on_c, 0, 64, 26
1, 9984, Note_off_c, 0, 75, 64
1, 9984, Control_c, 0, 64, 127
1, 10024, Note_off_c, 0, 40, 64
1, 10284, Note_off_c, 0, 58, 64
1, 10300, Note_off_c, 0, 67, 64
1, 10304, Note_off_c, 0, 64, 64
1, 10304, Note_on_c, 0, 71, 56
1, 10308, Note_on_c, 0, 40, 58
1, 10312, Note_off_c, 0, 73, 64
1, 10344, Control_c, 0, 64, 0
1, 10420, Control_c, 0, 64, 127
1, 10564, Note_on_c, 0, 68, 60
1, 10624, Note_off_c, 0, 71, 64
1, 10640, Note_on_c, 0, 59, 46
1, 10644, Note_on_c, 0, 64, 55
1, 10672, Note_off_c, 0, 68, 64
1, 10684, Control_c, 0, 64, 0
1, 10740, Control_c, 0, 64, 127
1, 10872, Note_off_c, 0, 40, 64
1, 10960, Note_off_c, 0, 59, 64
1, 10976, Note_on_c, 0, 61, 36
1, 10976, Note_on_c, 0, 58, 48
1, 10984, Note_on_c, 0, 67, 62
1, 11016, Control_c, 0, 64, 0
1, 11024, Note_off_c, 0, 64, 64
1, 11072, Control_c, 0, 64, 127
1, 11268, Note_off_c, 0, 61, 64
1, 11340, Note_on_c, 0, 68, 62
1, 11348, Note_on_c, 0, 52, 56
1, 11364, Control_c, 0, 64, 0
1, 11372, Note_off_c, 0, 58, 64
1, 11384, Note_off_c, 0, 67, 64
1, 11404, Control_c, 0, 64, 127
1, 11528, Note_on_c, 0, 69, 56
1, 11540, Note_off_c, 0, 68, 64
1, 11692, Note_on_c, 0, 70, 59
1, 11700, Note_on_c, 0, 68, 49
1, 11712, Note_on_c, 0, 64, 47
1, 11712, Note_on_c, 0, 59, 51
1, 11720, Note_off_c, 0, 69, 64
1, 11724, Control_c, 0, 64, 0
1, 11760, Control_c, 0, 64, 127
1, 11796, Note_off_c, 0, 52, 64
1, 11812, Note_off_c, 0, 64, 64
1, 11816, Note_off_c, 0, 68, 64
1, 11816, Note_off_c, 0, 59, 64
1, 11864, Note_on_c, 0, 71, 55
1, 11888, Note_off_c, 0, 70, 64
1, 12032, Note_on_c, 0, 72, 64
1, 12048, Note_on_c, 0, 58, 50
1, 12048, Note_on_c, 0, 67, 48
1, 12052, Note_on_c, 0, 64, 50
1, 12064, Note_off_c, 0, 71, 64
1, 12072, Control_c, 0, 64, 0
1, 12124, Control_c, 0, 64, 127
1, 12200, Note_on_c, 0, 75, 56
1, 12228, Note_off_c, 0, 72, 64
1, 12256, Note_on_c, 0, 73, 57
1, 12292, Note_off_c, 0, 75, 64
1, 12392, Note_off_c, 0, 58, 64
1, 12392, Note_off_c, 0, 67, 64
1, 12396, Note_off_c, 0, 64, 64
1, 12408, Control_c, 0, 64, 0
1, 12416, Note_on_c, 0, 71, 57
1, 12420, Note_on_c, 0, 52, 60
1, 12428, Note_off_c, 0, 73, 64
1, 12472, Control_c, 0, 64, 127
1, 12648, Note_on_c, 0, 68, 59
1, 12664, Note_off_c, 0, 71, 64
1, 12724, Note_on_c, 0, 59, 50
1, 12728, Note_on_c, 0, 64, 62
1, 12760, Control_c, 0, 64, 0
1, 12772, Note_off_c, 0, 68, 64
1, 12836, Control_c, 0, 64, 127
1, 13008, Note_off_c, 0, 59, 64
1, 13068, Note_on_c, 0, 61, 33
1, 13068, Note_on_c, 0, 58, 51
1, 13080, Note_on_c, 0, 67, 64
1, 13092, Note_off_c, 0, 52, 64
1, 13096, Control_c, 0, 64, 0
1, 13116, Control_c, 0, 64, 127
1, 13124, Note_off_c, 0, 64, 64
1, 13408, Note_off_c, 0, 61, 64
1, 13408, Note_off_c, 0, 58, 64
1, 13416, Note_on_c, 0, 40, 62
1, 13416, Note_on_c, 0, 68, 64
1, 13432, Control_c, 0, 64, 0
1, 13448, Note_off_c, 0, 67, 64
1, 13488, Control_c, 0, 64, 127
1, 13644, Note_off_c, 0, 68, 64
1, 13664, Note_on_c, 0, 76, 59
1, 13744, Note_on_c, 0, 75, 66
1, 13764, Note_on_c, 0, 68, 57
1, 13768, Note_off_c, 0, 76, 64
1, 13776, Note_on_c, 0, 59, 49
1, 13780, Note_on_c, 0, 64, 49
1, 13792, Control_c, 0, 64, 0
1, 13844, Control_c, 0, 64, 127
1, 13868, Note_off_c, 0, 59, 64
1, 13876, Note_off_c, 0, 68, 64
1, 13892, Note_off_c, 0, 64, 64
1, 14108, Note_on_c, 0, 73, 69
1, 14116, Note_on_c, 0, 67, 47
1, 14128, Note_on_c, 0, 58, 51
1, 14132, Note_on_c, 0, 64, 47
1, 14152, Control_c, 0, 64, 0
1, 14156, Note_off_c, 0, 75, 64
1, 14172, Control_c, 0, 64, 127
1, 14248, Note_off_c, 0, 40, 64
1, 14460, Note_off_c, 0, 67, 64
1, 14464, Note_on_c, 0, 71, 66
1, 14464, Note_on_c, 0, 52, 60
1, 14468, Note_off_c, 0, 58, 64
1, 14472, Note_off_c, 0, 64, 64
1, 14500, Control_c, 0, 64, 0
1, 14504, Note_off_c, 0, 73, 64
1, 14568, Control_c, 0, 64, 127
1, 14696, Note_on_c, 0, 68, 62
1, 14740, Note_off_c, 0, 71, 64
1, 14760, Note_on_c, 0, 59, 52
1, 14768, Note_on_c, 0, 64, 64
1, 14796, Note_off_c, 0, 68, 64
1, 14812, Control_c, 0, 64, 0
1, 14864, Control_c, 0, 64, 127
1, 15052, Note_off_c, 0, 59, 64
1, 15084, Note_off_c, 0, 52, 64
1, 15124, Note_on_c, 0, 58, 50
1, 15132, Note_on_c, 0, 61, 41
1, 15132, Note_on_c, 0, 67, 67
1, 15140, Note_off_c, 0, 64, 64
1, 15164, Control_c, 0, 64, 0
1, 15232, Control_c, 0, 64, 127
1, 15456, Note_off_c, 0, 58, 64
1, 15460, Note_on_c, 0, 68, 64
1, 15476, Note_on_c, 0, 52, 62
1, 15496, Note_off_c, 0, 61, 64
1, 15508, Note_off_c, 0, 67, 64
1, 15508, Control_c, 0, 64, 0
1, 15560, Control_c, 0, 64, 127
1, 15628, Note_on_c, 0, 69, 51
1, 15640, Note_off_c, 0, 68, 64
1, 15804, Note_on_c, 0, 68, 64
1, 15812, Note_on_c, 0, 70, 65
1, 15820, Note_on_c, 0, 59, 59
1, 15832, Control_c, 0, 64, 0
1, 15848, Note_off_c, 0, 69, 64
1, 15888, Control_c, 0, 64, 127
1, 15968, Note_on_c, 0, 73, 55
1, 16016, Note_off_c, 0, 70, 64
1, 16040, Note_off_c, 0, 68, 64
1, 16056, Note_off_c, 0, 59, 64
1, 16108, Note_off_c, 0, 52, 64
1, 16124, Note_on_c, 0, 71, 58
1, 16148, Note_off_c, 0, 73, 64
1, 16284, Note_on_c, 0, 75, 64
1, 16364, Note_off_c, 0, 71, 64
1, 16440, Note_on_c, 0, 78, 56
1, 16456, Note_off_c, 0, 75, 64
1, 16468, Control_c, 0, 64, 0
1, 16548, Control_c, 0, 64, 127
1, 16608, Note_on_c, 0, 76, 51
1, 16632, Note_off_c, 0, 78, 64
1, 16664, Note_on_c, 0, 78, 65
1, 16680, Note_off_c, 0, 76, 64
1, 16712, Note_on_c, 0, 76, 58
1, 16732, Note_off_c, 0, 78, 64
1, 16756, Control_c, 0, 64, 0
1, 16768, Note_on_c, 0, 75, 62
1, 16784, Note_off_c, 0, 76, 64
1, 16844, Control_c, 0, 64, 127
1, 16912, Note_on_c, 0, 76, 58
1, 16936, Note_off_c, 0, 75, 64
1, 17080, Note_on_c, 0, 78, 62
1, 17100, Note_off_c, 0, 76, 64
1, 17208, Note_on_c, 0, 79, 70
1, 17224, Note_off_c, 0, 78, 64
1, 17316, Control_c, 0, 64, 0
1, 17388, Note_on_c, 0, 80, 62
1, 17400, Note_on_c, 0, 48, 64
1, 17412, Note_off_c, 0, 79, 64
1, 17448, Control_c, 0, 64, 127
1, 17720, Note_on_c, 0, 56, 49
1, 17728, Note_on_c, 0, 63, 49
1, 17728, Note_on_c, 0, 66, 44
1, 17744, Control_c, 0, 64, 0
1, 17772, Note_off_c, 0, 56, 64
1, 17780, Note_off_c, 0, 63, 64
1, 17780, Note_off_c, 0, 66, 64
1, 17840, Note_off_c, 0, 48, 64
1, 17908, Note_on_c, 0, 82, 59
1, 17944, Note_off_c, 0, 80, 64
1, 18076, Note_on_c, 0, 80, 35
1, 18088, Note_on_c, 0, 66, 52
1, 18088, Note_on_c, 0, 56, 51
1, 18100, Note_off_c, 0, 82, 64
1, 18100, Note_on_c, 0, 63, 47
1, 18116, Control_c, 0, 64, 127
1, 18220, Note_off_c, 0, 80, 64
1, 18232, Note_on_c, 0, 79, 62
1, 18268, Note_off_c, 0, 66, 64
1, 18272, Note_off_c, 0, 56, 64
1, 18284, Note_off_c, 0, 63, 64
1, 18388, Note_on_c, 0, 80, 59
1, 18392, Control_c, 0, 64, 0
1, 18404, Note_on_c, 0, 49, 59
1, 18416, Control_c, 0, 64, 127
1, 18436, Note_off_c, 0, 79, 64
1, 18536, Note_on_c, 0, 82, 62
1, 18560, Note_off_c, 0, 80, 64
1, 18644, Control_c, 0, 64, 0
1, 18680, Note_on_c, 0, 80, 77
1, 18692, Note_on_c, 0, 56, 45
1, 18696, Note_on_c, 0, 65, 47
1, 18696, Note_on_c, 0, 61, 49
1, 18712, Note_off_c, 0, 82, 64
1, 18744, Note_off_c, 0, 56, 64
1, 18748, Note_off_c, 0, 65, 64
1, 18748, Note_off_c, 0, 61, 64
1, 18840, Note_on_c, 0, 79, 46
1, 18848, Note_off_c, 0, 49, 64
1, 18860, Note_off_c, 0, 80, 64
1, 19008, Note_on_c, 0, 80, 73
1, 19020, Note_on_c, 0, 56, 56
1, 19024, Note_on_c, 0, 61, 56
1, 19028, Note_on_c, 0, 65, 56
1, 19048, Control_c, 0, 64, 127
1, 19092, Note_off_c, 0, 79, 64
1, 19164, Note_on_c, 0, 82, 56
1, 19176, Note_off_c, 0, 80, 64
1, 19204, Note_off_c, 0, 56, 64
1, 19204, Note_off_c, 0, 61, 64
1, 19212, Note_off_c, 0, 65, 64
1, 19300, Control_c, 0, 64, 0
1, 19312, Note_on_c, 0, 80, 73
1, 19320, Note_on_c, 0, 44, 66
1, 19352, Note_off_c, 0, 82, 64
1, 19380, Control_c, 0, 64, 127
1, 19464, Note_on_c, 0, 79, 50
1, 19468, Note_off_c, 0, 80, 64
1, 19616, Control_c, 0, 64, 0
1, 19624, Note_on_c, 0, 80, 77
1, 19628, Note_on_c, 0, 60, 46
1, 19632, Note_on_c, 0, 56, 58
1, 19632, Note_on_c, 0, 51, 49
1, 19636, Note_on_c, 0, 66, 58
1, 19664, Control_c, 0, 64, 0
1, 19668, Note_off_c, 0, 79, 64
1, 19680, Note_off_c, 0, 60, 64
1, 19688, Note_off_c, 0, 56, 64
1, 19688, Note_off_c, 0, 51, 64
1, 19688, Note_off_c, 0, 66, 64
1, 19756, Note_on_c, 0, 82, 67
1, 19764, Note_off_c, 0, 44, 64
1, 19780, Note_off_c, 0, 80, 64
1, 19832, Control_c, 0, 64, 0
1, 19896, Note_on_c, 0, 51, 49
1, 19896, Note_on_c, 0, 56, 58
1, 19900, Note_on_c, 0, 80, 71
1, 19908, Note_on_c, 0, 60, 46
1, 19924, Note_off_c, 0, 82, 64
1, 19928, Note_on_c, 0, 66, 48
1, 19928, Control_c, 0, 64, 127
1, 20032, Note_on_c, 0, 78, 64
1, 20044, Note_off_c, 0, 80, 64
1, 20080, Note_off_c, 0, 51, 64
1, 20080, Note_off_c, 0, 56, 64
1, 20092, Note_off_c, 0, 60, 64
1, 20108, Note_off_c, 0, 66, 64
1, 20112, Note_off_c, 0, 78, 64
1, 20184, Note_on_c, 0, 78, 78
1, 20252, Note_on_c, 0, 77, 98
1, 20256, Note_on_c, 0, 37, 66
1, 20256, Note_on_c, 0, 49, 70
1, 20264, Note_off_c, 0, 78, 64
1, 20280, Control_c, 0, 64, 0
1, 20520, Note_off_c, 0, 77, 64
1, 20520, Note_on_c, 0, 76, 64
1, 20564, Note_on_c, 0, 61, 44
1, 20568, Note_on_c, 0, 56, 49
1, 20568, Note_on_c, 0, 53, 51
1, 20572, Note_on_c, 0, 65, 44
1, 20592, Note_on_c, 0, 77, 69
1, 20616, Note_off_c, 0, 76, 64
1, 20616, Note_off_c, 0, 61, 64
1, 20620, Note_off_c, 0, 56, 64
1, 20620, Note_off_c, 0, 53, 64
1, 20624, Note_off_c, 0, 65, 64
1, 20696, Note_off_c, 0, 37, 64
1, 20700, Note_off_c, 0, 49, 64
1, 20916, Control_c, 0, 64, 127
1, 20928, Note_on_c, 0, 73, 80
1, 20932, Note_on_c, 0, 65, 45
1, 20936, Note_off_c, 0, 77, 64
1, 20936, Note_on_c, 0, 61, 47
1, 20936, Note_on_c, 0, 56, 40
1, 20944, Note_on_c, 0, 53, 39
1, 21116, Note_off_c, 0, 65, 64
1, 21120, Note_off_c, 0, 61, 64
1, 21120, Note_off_c, 0, 56, 64
1, 21128, Note_off_c, 0, 53, 64
1, 21232, Note_off_c, 0, 73, 64
1, 21232, Control_c, 0, 64, 0
1, 21244, Note_on_c, 0, 45, 69
1, 21244, Note_on_c, 0, 77, 73
1, 21344, Control_c, 0, 64, 127
1, 21560, Control_c, 0, 64, 0
1, 21572, Note_on_c, 0, 60, 47
1, 21580, Note_on_c, 0, 63, 55
1, 21580, Note_on_c, 0, 53, 32
1, 21584, Note_on_c, 0, 65, 49
1, 21624, Note_off_c, 0, 60, 64
1, 21632, Note_off_c, 0, 63, 64
1, 21632, Note_off_c, 0, 53, 64
1, 21636, Note_off_c, 0, 65, 64
1, 21680, Note_off_c, 0, 45, 64
1, 21728, Note_on_c, 0, 78, 62
1, 21768, Note_off_c, 0, 77, 64
1, 21888, Note_on_c, 0, 77, 59
1, 21892, Note_on_c, 0, 63, 44
1, 21892, Note_on_c, 0, 60, 31
1, 21896, Note_on_c, 0, 65, 44
1, 21904, Note_on_c, 0, 53, 32
1, 21904, Control_c, 0, 64, 127
1, 21924, Note_off_c, 0, 78, 64
1, 22032, Note_on_c, 0, 76, 64
1, 22040, Note_off_c, 0, 77, 64
1, 22076, Note_off_c, 0, 63, 64
1, 22076, Note_off_c, 0, 60, 64
1, 22080, Note_off_c, 0, 65, 64
1, 22088, Note_off_c, 0, 53, 64
1, 22192, Note_on_c, 0, 46, 50
1, 22212, Note_on_c, 0, 77, 64
1, 22216, Control_c, 0, 64, 0
1, 22248, Note_off_c, 0, 76, 64
1, 22304, Control_c, 0, 64, 127
1, 22380, Note_on_c, 0, 78, 62
1, 22408, Note_off_c, 0, 77, 64
1, 22528, Note_on_c, 0, 58, 44
1, 22528, Note_on_c, 0, 77, 66
1, 22532, Note_on_c, 0, 65, 46
1, 22532, Note_on_c, 0, 53, 44
1, 22536, Note_on_c, 0, 61, 38
1, 22540, Control_c, 0, 64, 0
1, 22564, Note_off_c, 0, 78, 64
1, 22604, Control_c, 0, 64, 127
1, 22636, Note_off_c, 0, 46, 64
1, 22656, Note_on_c, 0, 76, 73
1, 22692, Note_off_c, 0, 77, 64
1, 22708, Note_off_c, 0, 58, 64
1, 22716, Note_off_c, 0, 65, 64
1, 22716, Note_off_c, 0, 53, 64
1, 22720, Note_off_c, 0, 61, 64
1, 22848, Note_on_c, 0, 63, 44
1, 22848, Note_on_c, 0, 77, 66
1, 22848, Note_on_c, 0, 58, 45
1, 22856, Note_on_c, 0, 61, 47
1, 22860, Note_on_c, 0, 51, 40
1, 22864, Control_c, 0, 64, 0
1, 22872, Note_off_c, 0, 76, 64
1, 22916, Control_c, 0, 64, 127
1, 22992, Note_on_c, 0, 79, 63
1, 23008, Note_off_c, 0, 77, 64
1, 23028, Note_off_c, 0, 63, 64
1, 23032, Note_off_c, 0, 58, 64
1, 23040, Note_off_c, 0, 61, 64
1, 23040, Note_off_c, 0, 51, 64
1, 23160, Note_on_c, 0, 44, 51
1, 23168, Note_on_c, 0, 82, 62
1, 23172, Control_c, 0, 64, 0
1, 23192, Note_off_c, 0, 79, 64
1, 23248, Control_c, 0, 64, 127
1, 23312, Note_on_c, 0, 80, 63
1, 23336, Note_off_c, 0, 82, 64
1, 23472, Note_on_c, 0, 56, 33
1, 23480, Note_on_c, 0, 60, 46
1, 23484, Note_on_c, 0, 78, 64
1, 23484, Note_on_c, 0, 66, 37
1, 23496, Note_off_c, 0, 80, 64
1, 23496, Control_c, 0, 64, 0
1, 23528, Note_off_c, 0, 56, 64
1, 23532, Note_off_c, 0, 60, 64
1, 23536, Note_off_c, 0, 66, 64
1, 23576, Control_c, 0, 64, 127
1, 23608, Note_off_c, 0, 44, 64
1, 23624, Note_on_c, 0, 70, 70
1, 23648, Note_off_c, 0, 78, 64
1, 23760, Note_on_c, 0, 72, 62
1, 23784, Note_on_c, 0, 56, 36
1, 23784, Note_on_c, 0, 66, 41
1, 23788, Note_off_c, 0, 70, 64
1, 23796, Note_on_c, 0, 63, 39
1, 23800, Control_c, 0, 64, 0
1, 23856, Control_c, 0, 64, 127
1, 23908, Note_on_c, 0, 68, 63
1, 23916, Note_off_c, 0, 72, 64
1, 23964, Note_off_c, 0, 56, 64
1, 23968, Note_off_c, 0, 66, 64
1, 23976, Note_off_c, 0, 63, 64
1, 24072, Note_on_c, 0, 49, 59
1, 24080, Note_on_c, 0, 75, 65
1, 24104, Control_c, 0, 64, 0
1, 24136, Note_off_c, 0, 68, 64
1, 24176, Control_c, 0, 64, 127
1, 24312, Note_on_c, 0, 77, 62
1, 24316, Note_off_c, 0, 75, 64
1, 24376, Note_on_c, 0, 73, 71
1, 24384, Note_on_c, 0, 56, 41
1, 24388, Note_on_c, 0, 65, 44
1, 24388, Note_on_c, 0, 61, 46
1, 24412, Note_off_c, 0, 77, 64
1, 24416, Control_c, 0, 64, 0
1, 24440, Control_c, 0, 64, 127
1, 24536, Note_off_c, 0, 49, 64
1, 24564, Note_off_c, 0, 56, 64
1, 24572, Note_off_c, 0, 65, 64
1, 24572, Note_off_c, 0, 61, 64
1, 24572, Note_on_c, 0, 77, 48
1, 24584, Note_off_c, 0, 73, 64
1, 24716, Note_on_c, 0, 49, 71
1, 24720, Note_on_c, 0, 78, 67
1, 24720, Control_c, 0, 64, 0
1, 24756, Note_off_c, 0, 77, 64
1, 24768, Control_c, 0, 64, 127
1, 24864, Note_on_c, 0, 79, 79
1, 24888, Note_off_c, 0, 78, 64
1, 25024, Control_c, 0, 64, 0
1, 25036, Note_on_c, 0, 80, 79
1, 25044, Note_on_c, 0, 36, 73
1, 25044, Note_on_c, 0, 48, 69
1, 25052, Note_off_c, 0, 79, 64
1, 25056, Note_off_c, 0, 49, 64
1, 25112, Control_c, 0, 64, 127
1, 25376, Note_on_c, 0, 63, 56
1, 25380, Note_on_c, 0, 56, 69
1, 25384, Note_on_c, 0, 66, 65
1, 25392, Control_c, 0, 64, 0
1, 25428, Note_off_c, 0, 63, 64
1, 25432, Note_off_c, 0, 56, 64
1, 25440, Note_off_c, 0, 66, 64
1, 25456, Control_c, 0, 64, 127
1, 25472, Note_off_c, 0, 36, 64
1, 25472, Note_off_c, 0, 48, 64
1, 25532, Note_on_c, 0, 82, 74
1, 25544, Note_off_c, 0, 80, 64
1, 25680, Note_on_c, 0, 80, 85
1, 25708, Note_on_c, 0, 63, 56
1, 25712, Note_on_c, 0, 66, 62
1, 25712, Note_on_c, 0, 56, 64
1, 25724, Note_off_c, 0, 82, 64
1, 25832, Note_on_c, 0, 79, 74
1, 25848, Note_off_c, 0, 80, 64
1, 25888, Note_off_c, 0, 63, 64
1, 25892, Note_off_c, 0, 66, 64
1, 25892, Note_off_c, 0, 56, 64
1, 26024, Note_on_c, 0, 80, 78
1, 26036, Note_on_c, 0, 37, 71
1, 26036, Control_c, 0, 64, 0
1, 26048, Note_on_c, 0, 49, 83
1, 26072, Note_off_c, 0, 79, 64
1, 26104, Control_c, 0, 64, 127
1, 26148, Note_on_c, 0, 82, 82
1, 26168, Note_off_c, 0, 80, 64
1, 26240, Note_on_c, 0, 80, 78
1, 26276, Note_off_c, 0, 82, 64
1, 26348, Note_on_c, 0, 65, 69
1, 26348, Note_on_c, 0, 53, 66
1, 26352, Note_on_c, 0, 61, 54
1, 26352, Note_on_c, 0, 56, 59
1, 26364, Note_on_c, 0, 79, 82
1, 26368, Control_c, 0, 64, 0
1, 26376, Note_off_c, 0, 80, 64
1, 26400, Note_off_c, 0, 65, 64
1, 26400, Note_off_c, 0, 53, 64
1, 26408, Note_off_c, 0, 61, 64
1, 26408, Note_off_c, 0, 56, 64
1, 26436, Control_c, 0, 64, 127
1, 26452, Note_off_c, 0, 37, 64
1, 26460, Note_on_c, 0, 80, 82
1, 26464, Note_off_c, 0, 49, 64
1, 26508, Note_off_c, 0, 79, 64
1, 26580, Note_on_c, 0, 82, 82
1, 26604, Note_off_c, 0, 80, 64
1, 26636, Note_on_c, 0, 65, 58
1, 26640, Note_on_c, 0, 61, 58
1, 26640, Note_on_c, 0, 56, 56
1, 26640, Note_on_c, 0, 53, 50
1, 26684, Note_on_c, 0, 80, 82
1, 26716, Note_off_c, 0, 82, 64
1, 26784, Note_on_c, 0, 79, 81
1, 26808, Note_off_c, 0, 80, 64
1, 26816, Note_off_c, 0, 65, 64
1, 26824, Note_off_c, 0, 61, 64
1, 26824, Note_off_c, 0, 56, 64
1, 26824, Note_off_c, 0, 53, 64
1, 26876, Note_on_c, 0, 80, 81
1, 26928, Note_off_c, 0, 79, 64
1, 26956, Control_c, 0, 64, 0
1, 26976, Note_on_c, 0, 44, 80
1, 26976, Note_on_c, 0, 32, 69
1, 26984, Note_on_c, 0, 82, 82
1, 27012, Note_off_c, 0, 80, 64
1, 27032, Control_c, 0, 64, 127
1, 27076, Note_on_c, 0, 80, 82
1, 27096, Note_off_c, 0, 82, 64
1, 27184, Note_on_c, 0, 79, 74
1, 27208, Note_off_c, 0, 80, 64
1, 27288, Note_on_c, 0, 80, 82
1, 27288, Control_c, 0, 64, 0
1, 27296, Control_c, 0, 64, 0
1, 27300, Note_on_c, 0, 51, 73
1, 27308, Note_on_c, 0, 66, 69
1, 27308, Note_on_c, 0, 60, 69
1, 27308, Note_on_c, 0, 56, 73
1, 27316, Note_off_c, 0, 79, 64
1, 27332, Control_c, 0, 64, 127
1, 27352, Note_off_c, 0, 51, 64
1, 27360, Note_off_c, 0, 66, 64
1, 27360, Note_off_c, 0, 60, 64
1, 27360, Note_off_c, 0, 56, 64
1, 27376, Note_on_c, 0, 82, 60
1, 27400, Note_off_c, 0, 32, 64
1, 27408, Note_off_c, 0, 44, 64
1, 27408, Note_off_c, 0, 80, 64
1, 27448, Note_on_c, 0, 80, 82
1, 27488, Note_off_c, 0, 82, 64
1, 27560, Note_on_c, 0, 79, 77
1, 27576, Note_off_c, 0, 80, 64
1, 27576, Note_on_c, 0, 51, 32
1, 27576, Note_on_c, 0, 56, 73
1, 27584, Note_on_c, 0, 60, 64
1, 27584, Note_on_c, 0, 66, 59
1, 27628, Control_c, 0, 64, 0
1, 27664, Note_on_c, 0, 80, 75
1, 27688, Note_off_c, 0, 79, 64
1, 27760, Note_off_c, 0, 51, 64
1, 27760, Note_off_c, 0, 56, 64
1, 27764, Note_off_c, 0, 60, 64
1, 27764, Note_off_c, 0, 66, 64
1, 27788, Note_on_c, 0, 78, 72
1, 27816, Note_off_c, 0, 80, 64
1, 27888, Note_on_c, 0, 77, 78
1, 27904, Note_off_c, 0, 78, 64
1, 27940, Note_on_c, 0, 78, 74
1, 27956, Note_off_c, 0, 77, 64
1, 27960, Note_on_c, 0, 37, 73
1, 27968, Note_on_c, 0, 77, 69
1, 27968, Note_on_c, 0, 49, 73
1, 27976, Note_off_c, 0, 78, 64
1, 27984, Control_c, 0, 64, 0
1, 28060, Control_c, 0, 64, 127
1, 28208, Note_off_c, 0, 77, 64
1, 28208, Note_on_c, 0, 76, 80
1, 28280, Note_on_c, 0, 77, 80
1, 28280, Note_on_c, 0, 65, 66
1, 28288, Note_on_c, 0, 61, 63
1, 28288, Note_on_c, 0, 56, 57
1, 28288, Note_on_c, 0, 53, 58
1, 28296, Control_c, 0, 64, 0
1, 28304, Note_off_c, 0, 76, 64
1, 28332, Note_off_c, 0, 65, 64
1, 28340, Note_off_c, 0, 61, 64
1, 28340, Note_off_c, 0, 56, 64
1, 28340, Note_off_c, 0, 53, 64
1, 28392, Note_off_c, 0, 37, 64
1, 28400, Note_off_c, 0, 49, 64
1, 28616, Control_c, 0, 64, 127
1, 28624, Note_on_c, 0, 65, 58
1, 28624, Note_on_c, 0, 61, 55
1, 28624, Note_on_c, 0, 56, 50
1, 28624, Note_on_c, 0, 53, 39
1, 28636, Note_on_c, 0, 73, 83
1, 28652, Note_off_c, 0, 77, 64
1, 28808, Note_off_c, 0, 65, 64
1, 28808, Note_off_c, 0, 61, 64
1, 28808, Note_off_c, 0, 56, 64
1, 28808, Note_off_c, 0, 53, 64
1, 28944, Note_off_c, 0, 73, 64
1, 28956, Note_on_c, 0, 77, 83
1, 28964, Note_on_c, 0, 33, 69
1, 28968, Note_on_c, 0, 45, 64
1, 28980, Control_c, 0, 64, 0
1, 29072, Control_c, 0, 64, 127
1, 29292, Note_on_c, 0, 63, 64
1, 29292, Note_on_c, 0, 57, 62
1, 29292, Note_on_c, 0, 53, 58
1, 29296, Note_on_c, 0, 65, 62
1, 29316, Control_c, 0, 64, 0
1, 29344, Note_off_c, 0, 63, 64
1, 29344, Note_off_c, 0, 57, 64
1, 29344, Note_off_c, 0, 53, 64
1, 29348, Note_off_c, 0, 65, 64
1, 29400, Note_off_c, 0, 33, 64
1, 29404, Note_off_c, 0, 45, 64
1, 29412, Control_c, 0, 64, 127
1, 29448, Note_on_c, 0, 78, 73
1, 29488, Note_off_c, 0, 77, 64
1, 29608, Note_on_c, 0, 77, 77
1, 29612, Note_on_c, 0, 63, 62
1, 29612, Note_on_c, 0, 57, 56
1, 29620, Note_on_c, 0, 65, 57
1, 29620, Note_on_c, 0, 53, 48
1, 29632, Control_c, 0, 64, 0
1, 29656, Control_c, 0, 64, 127
1, 29688, Note_off_c, 0, 78, 64
1, 29748, Note_on_c, 0, 76, 85
1, 29792, Note_off_c, 0, 77, 64
1, 29792, Note_off_c, 0, 63, 64
1, 29792, Note_off_c, 0, 57, 64
1, 29804, Note_off_c, 0, 65, 64
1, 29804, Note_off_c, 0, 53, 64
1, 29928, Control_c, 0, 64, 0
1, 29936, Note_on_c, 0, 77, 77
1, 29944, Note_on_c, 0, 34, 69
1, 29956, Note_on_c, 0, 46, 78
1, 29988, Note_off_c, 0, 76, 64
1, 30016, Control_c, 0, 64, 127
1, 30052, Note_on_c, 0, 78, 58
1, 30088, Note_off_c, 0, 77, 64
1, 30176, Note_on_c, 0, 77, 69
1, 30208, Note_off_c, 0, 78, 64
1, 30256, Note_on_c, 0, 53, 64
1, 30268, Note_on_c, 0, 61, 60
1, 30272, Note_on_c, 0, 58, 56
1, 30280, Note_on_c, 0, 76, 87
1, 30292, Control_c, 0, 64, 0
1, 30304, Note_off_c, 0, 77, 64
1, 30336, Control_c, 0, 64, 127
1, 30380, Note_off_c, 0, 34, 64
1, 30388, Note_on_c, 0, 77, 71
1, 30392, Note_off_c, 0, 46, 64
1, 30440, Note_off_c, 0, 53, 64
1, 30440, Note_off_c, 0, 76, 64
1, 30452, Note_off_c, 0, 61, 64
1, 30456, Note_off_c, 0, 58, 64
1, 30480, Note_on_c, 0, 78, 79
1, 30520, Note_off_c, 0, 77, 64
1, 30596, Note_on_c, 0, 77, 67
1, 30604, Note_on_c, 0, 51, 64
1, 30608, Note_on_c, 0, 61, 66
1, 30616, Note_off_c, 0, 78, 64
1, 30616, Note_on_c, 0, 58, 66
1, 30712, Note_on_c, 0, 78, 51
1, 30752, Note_off_c, 0, 77, 64
1, 30788, Note_off_c, 0, 51, 64
1, 30788, Note_off_c, 0, 61, 64
1, 30800, Note_off_c, 0, 58, 64
1, 30816, Note_on_c, 0, 79, 87
1, 30836, Note_off_c, 0, 78, 64
1, 30936, Note_on_c, 0, 82, 78
1, 30948, Note_off_c, 0, 79, 64
1, 30972, Note_on_c, 0, 44, 74
1, 30984, Control_c, 0, 64, 0
1, 31052, Control_c, 0, 64, 127
1, 31092, Note_on_c, 0, 80, 58
1, 31112, Note_off_c, 0, 82, 64
1, 31280, Note_on_c, 0, 78, 64
1, 31280, Note_on_c, 0, 60, 59
1, 31280, Note_on_c, 0, 56, 41
1, 31284, Note_on_c, 0, 66, 63
1, 31288, Note_off_c, 0, 80, 64
1, 31304, Control_c, 0, 64, 0
1, 31336, Note_off_c, 0, 60, 64
1, 31336, Note_off_c, 0, 56, 64
1, 31336, Note_off_c, 0, 66, 64
1, 31380, Control_c, 0, 64, 127
1, 31404, Note_off_c, 0, 44, 64
1, 31428, Note_off_c, 0, 78, 64
1, 31432, Note_on_c, 0, 70, 73
1, 31592, Note_on_c, 0, 72, 66
1, 31612, Note_off_c, 0, 70, 64
1, 31628, Note_on_c, 0, 66, 58
1, 31628, Note_on_c, 0, 56, 65
1, 31636, Note_on_c, 0, 63, 29
1, 31644, Control_c, 0, 64, 0
1, 31704, Control_c, 0, 64, 127
1, 31772, Note_on_c, 0, 68, 77
1, 31792, Note_off_c, 0, 72, 64
1, 31808, Note_off_c, 0, 66, 64
1, 31808, Note_off_c, 0, 56, 64
1, 31820, Note_off_c, 0, 63, 64
1, 31948, Note_on_c, 0, 75, 52
1, 31964, Note_on_c, 0, 49, 60
1, 31984, Control_c, 0, 64, 0
1, 32040, Note_off_c, 0, 68, 64
1, 32056, Control_c, 0, 64, 127
1, 32200, Note_on_c, 0, 77, 63
1, 32232, Note_off_c, 0, 75, 64
1, 32292, Note_on_c, 0, 73, 56
1, 32312, Note_on_c, 0, 65, 43
1, 32320, Note_on_c, 0, 56, 27
1, 32328, Note_on_c, 0, 61, 29
1, 32340, Control_c, 0, 64, 0
1, 32348, Note_off_c, 0, 77, 64
1, 32396, Control_c, 0, 64, 127
1, 32736, Note_on_c, 0, 72, 60
1, 32764, Note_off_c, 0, 73, 64
1, 32992, Note_off_c, 0, 65, 64
1, 33000, Note_off_c, 0, 56, 64
1, 33008, Note_off_c, 0, 61, 64
1, 33020, Note_off_c, 0, 49, 64
1, 33184, Note_on_c, 0, 71, 66
1, 33232, Note_off_c, 0, 72, 64
1, 33256, Control_c, 0, 64, 0
1, 33328, Control_c, 0, 64, 127
1, 33636, Note_on_c, 0, 49, 25
1, 33640, Note_on_c, 0, 65, 31
1, 33656, Note_on_c, 0, 59, 25
1, 33716, Control_c, 0, 64, 0
1, 33768, Control_c, 0, 64, 127
1, 33996, Note_off_c, 0, 49, 64
1, 34000, Note_off_c, 0, 65, 64
1, 34016, Note_off_c, 0, 59, 64
1, 34036, Note_on_c, 0, 70, 57
1, 34044, Note_on_c, 0, 49, 48
1, 34048, Note_on_c, 0, 65, 34
1, 34048, Note_on_c, 0, 59, 46
1, 34072, Note_off_c, 0, 71, 64
1, 34072, Control_c, 0, 64, 0
1, 34152, Control_c, 0, 64, 127
1, 34192, Note_on_c, 0, 68, 62
1, 34252, Note_off_c, 0, 70, 64
1, 34360, Note_on_c, 0, 67, 64
1, 34384, Note_off_c, 0, 68, 64
1, 34408, Control_c, 0, 64, 0
1, 34444, Control_c, 0, 64, 127
1, 34484, Note_on_c, 0, 68, 65
1, 34544, Note_off_c, 0, 67, 64
1, 34596, Note_off_c, 0, 49, 64
1, 34600, Note_off_c, 0, 65, 64
1, 34600, Note_off_c, 0, 59, 64
1, 34672, Note_on_c, 0, 49, 48
1, 34676, Note_on_c, 0, 70, 73
1, 34676, Note_on_c, 0, 65, 40
1, 34684, Note_on_c, 0, 59, 43
1, 34696, Control_c, 0, 64, 0
1, 34716, Note_off_c, 0, 68, 64
1, 34752, Control_c, 0, 64, 127
1, 34940, Note_off_c, 0, 49, 64
1, 34944, Note_off_c, 0, 65, 64
1, 34956, Note_off_c, 0, 59, 64
1, 35008, Note_on_c, 0, 49, 50
1, 35012, Note_on_c, 0, 59, 49
1, 35016, Note_on_c, 0, 65, 19
1, 35028, Note_on_c, 0, 71, 67
1, 35044, Control_c, 0, 64, 0
1, 35060, Note_off_c, 0, 70, 64
1, 35064, Control_c, 0, 64, 127
1, 35264, Note_off_c, 0, 59, 64
1, 35272, Note_off_c, 0, 65, 64
1, 35304, Note_off_c, 0, 49, 64
1, 35340, Note_on_c, 0, 66, 48
1, 35352, Note_on_c, 0, 42, 62
1, 35384, Control_c, 0, 64, 0
1, 35404, Control_c, 0, 64, 127
1, 35564, Note_off_c, 0, 66, 64
1, 35568, Note_on_c, 0, 72, 63
1, 35600, Note_off_c, 0, 71, 64
1, 35656, Note_off_c, 0, 72, 64
1, 35660, Note_off_c, 0, 42, 64
1, 35660, Note_on_c, 0, 58, 46
1, 35672, Note_on_c, 0, 72, 64
1, 35672, Note_on_c, 0, 66, 40
1, 35680, Note_on_c, 0, 49, 46
1, 35932, Note_off_c, 0, 58, 64
1, 35944, Note_off_c, 0, 66, 64
1, 35952, Note_off_c, 0, 49, 64
1, 36016, Note_on_c, 0, 73, 69
1, 36020, Note_on_c, 0, 58, 47
1, 36024, Note_on_c, 0, 49, 50
1, 36032, Note_on_c, 0, 66, 46
1, 36052, Control_c, 0, 64, 0
1, 36056, Note_off_c, 0, 72, 64
1, 36152, Control_c, 0, 64, 127
1, 36332, Control_c, 0, 64, 0
1, 36360, Note_on_c, 0, 77, 66
1, 36396, Note_off_c, 0, 73, 64
1, 36396, Control_c, 0, 64, 127
1, 36608, Note_on_c, 0, 78, 62
1, 36616, Note_off_c, 0, 58, 64
1, 36624, Note_off_c, 0, 66, 64
1, 36632, Note_off_c, 0, 49, 64
1, 36652, Note_off_c, 0, 77, 64
1, 36684, Note_on_c, 0, 49, 52
1, 36696, Note_on_c, 0, 58, 44
1, 36704, Note_on_c, 0, 66, 53
1, 36704, Note_on_c, 0, 73, 67
1, 36720, Note_off_c, 0, 78, 64
1, 36736, Control_c, 0, 64, 0
1, 36772, Control_c, 0, 64, 127
1, 37052, Note_off_c, 0, 66, 64
1, 37068, Note_on_c, 0, 40, 54
1, 37072, Note_on_c, 0, 68, 46
1, 37104, Control_c, 0, 64, 0
1, 37120, Note_off_c, 0, 49, 64
1, 37128, Note_off_c, 0, 58, 64
1, 37156, Control_c, 0, 64, 127
1, 37460, Note_off_c, 0, 73, 64
1, 37504, Note_on_c, 0, 39, 59
1, 37512, Note_off_c, 0, 40, 64
1, 37576, Note_on_c, 0, 73, 69
1, 37600, Control_c, 0, 64, 0
1, 37672, Control_c, 0, 64, 127
1, 38072, Note_on_c, 0, 51, 44
1, 38072, Control_c, 0, 64, 0
1, 38080, Note_on_c, 0, 61, 29
1, 38088, Note_on_c, 0, 67, 58
1, 38100, Note_off_c, 0, 68, 64
1, 38112, Control_c, 0, 64, 127
1, 38188, Note_off_c, 0, 39, 64
1, 38404, Note_off_c, 0, 51, 64
1, 38412, Note_off_c, 0, 61, 64
1, 38420, Note_off_c, 0, 67, 64
1, 38452, Note_on_c, 0, 61, 42
1, 38456, Note_on_c, 0, 71, 62
1, 38464, Note_on_c, 0, 67, 39
1, 38464, Note_on_c, 0, 51, 37
1, 38484, Note_off_c, 0, 73, 64
1, 38484, Control_c, 0, 64, 0
1, 38536, Control_c, 0, 64, 127
1, 38608, Note_on_c, 0, 70, 66
1, 38656, Note_off_c, 0, 71, 64
1, 38792, Note_on_c, 0, 69, 57
1, 38812, Control_c, 0, 64, 0
1, 38816, Note_off_c, 0, 70, 64
1, 38848, Control_c, 0, 64, 127
1, 38916, Note_on_c, 0, 70, 70
1, 38960, Note_off_c, 0, 51, 64
1, 38960, Note_off_c, 0, 69, 64
1, 38968, Note_off_c, 0, 61, 64
1, 38980, Note_off_c, 0, 67, 64
1, 39084, Note_on_c, 0, 67, 45
1, 39104, Note_on_c, 0, 61, 64
1, 39104, Note_on_c, 0, 51, 64
1, 39112, Note_on_c, 0, 76, 65
1, 39124, Note_off_c, 0, 70, 64
1, 39128, Control_c, 0, 64, 0
1, 39176, Control_c, 0, 64, 127
1, 39384, Note_off_c, 0, 67, 64
1, 39400, Note_off_c, 0, 61, 64
1, 39400, Note_off_c, 0, 51, 64
1, 39428, Note_on_c, 0, 67, 45
1, 39452, Note_on_c, 0, 61, 49
1, 39452, Note_on_c, 0, 51, 56
1, 39464, Control_c, 0, 64, 0
1, 39488, Control_c, 0, 64, 127
1, 39600, Note_on_c, 0, 75, 63
1, 39636, Note_off_c, 0, 76, 64
1, 39752, Note_off_c, 0, 61, 64
1, 39752, Note_off_c, 0, 51, 64
1, 39776, Note_on_c, 0, 44, 59
1, 39784, Note_on_c, 0, 68, 61
1, 39804, Control_c, 0, 64, 0
1, 39832, Note_off_c, 0, 67, 64
1, 39856, Control_c, 0, 64, 127
1, 40008, Note_off_c, 0, 75, 64
1, 40008, Note_on_c, 0, 74, 66
1, 40048, Note_off_c, 0, 68, 64
1, 40060, Note_off_c, 0, 74, 64
1, 40080, Note_on_c, 0, 74, 69
1, 40088, Note_on_c, 0, 51, 58
1, 40096, Note_on_c, 0, 68, 45
1, 40096, Note_on_c, 0, 59, 44
1, 40116, Note_off_c, 0, 44, 64
1, 40120, Control_c, 0, 64, 0
1, 40164, Control_c, 0, 64, 127
1, 40384, Note_off_c, 0, 51, 64
1, 40404, Note_off_c, 0, 59, 64
1, 40408, Note_on_c, 0, 75, 69
1, 40416, Note_off_c, 0, 68, 64
1, 40420, Note_on_c, 0, 59, 58
1, 40420, Note_on_c, 0, 51, 58
1, 40428, Note_on_c, 0, 68, 45
1, 40448, Note_off_c, 0, 74, 64
1, 40448, Control_c, 0, 64, 0
1, 40492, Control_c, 0, 64, 127
1, 40736, Note_on_c, 0, 79, 64
1, 40784, Note_off_c, 0, 75, 64
1, 40976, Note_on_c, 0, 80, 59
1, 41008, Note_off_c, 0, 51, 64
1, 41028, Note_off_c, 0, 68, 64
1, 41040, Note_off_c, 0, 59, 64
1, 41040, Note_off_c, 0, 79, 64
1, 41056, Note_on_c, 0, 59, 50
1, 41060, Note_on_c, 0, 51, 64
1, 41064, Note_on_c, 0, 75, 67
1, 41076, Note_off_c, 0, 80, 64
1, 41080, Note_on_c, 0, 68, 61
1, 41096, Control_c, 0, 64, 0
1, 41168, Control_c, 0, 64, 127
1, 41384, Note_off_c, 0, 59, 64
1, 41400, Note_on_c, 0, 56, 59
1, 41412, Note_on_c, 0, 59, 50
1, 41412, Note_on_c, 0, 66, 61
1, 41428, Control_c, 0, 64, 0
1, 41448, Note_off_c, 0, 51, 64
1, 41448, Control_c, 0, 64, 127
1, 41464, Note_off_c, 0, 68, 64
1, 41728, Note_on_c, 0, 37, 67
1, 41732, Note_on_c, 0, 65, 73
1, 41760, Note_off_c, 0, 66, 64
1, 41788, Note_off_c, 0, 56, 64
1, 41800, Note_off_c, 0, 59, 64
1, 41852, Note_off_c, 0, 75, 64
1, 41936, Note_on_c, 0, 73, 49
1, 41984, Note_off_c, 0, 65, 64
1, 42076, Note_on_c, 0, 77, 69
1, 42088, Note_on_c, 0, 61, 58
1, 42088, Note_on_c, 0, 59, 56
1, 42096, Note_on_c, 0, 65, 62
1, 42104, Note_off_c, 0, 73, 64
1, 42104, Control_c, 0, 64, 0
1, 42192, Control_c, 0, 64, 127
1, 42208, Note_off_c, 0, 37, 64
1, 42412, Control_c, 0, 64, 0
1, 42424, Note_on_c, 0, 83, 59
1, 42428, Note_on_c, 0, 71, 56
1, 42440, Control_c, 0, 64, 127
1, 42476, Note_off_c, 0, 77, 64
1, 42768, Note_off_c, 0, 65, 64
1, 42768, Note_on_c, 0, 82, 62
1, 42780, Note_on_c, 0, 70, 55
1, 42804, Note_off_c, 0, 83, 64
1, 42812, Note_off_c, 0, 71, 64
1, 42920, Note_on_c, 0, 80, 58
1, 42924, Note_on_c, 0, 68, 62
1, 42976, Note_off_c, 0, 82, 64
1, 42988, Note_off_c, 0, 70, 64
1, 43028, Note_off_c, 0, 61, 64
1, 43056, Note_off_c, 0, 59, 64
1, 43092, Note_on_c, 0, 77, 62
1, 43104, Note_off_c, 0, 68, 64
1, 43104, Note_on_c, 0, 65, 55
1, 43108, Note_off_c, 0, 80, 64
1, 43120, Control_c, 0, 64, 0
1, 43168, Control_c, 0, 64, 127
1, 43408, Note_off_c, 0, 65, 64
1, 43408, Note_on_c, 0, 73, 67
1, 43420, Note_on_c, 0, 61, 49
1, 43432, Note_off_c, 0, 77, 64
1, 43748, Note_on_c, 0, 71, 69
1, 43756, Note_on_c, 0, 37, 66
1, 43768, Note_off_c, 0, 73, 64
1, 43776, Note_off_c, 0, 61, 64
1, 43784, Control_c, 0, 64, 0
1, 43836, Control_c, 0, 64, 127
1, 43908, Note_on_c, 0, 73, 63
1, 43936, Note_off_c, 0, 71, 64
1, 44068, Note_on_c, 0, 59, 39
1, 44068, Note_on_c, 0, 65, 58
1, 44076, Note_on_c, 0, 77, 66
1, 44080, Note_on_c, 0, 61, 42
1, 44104, Note_off_c, 0, 73, 64
1, 44116, Control_c, 0, 64, 0
1, 44172, Control_c, 0, 64, 127
1, 44192, Note_off_c, 0, 37, 64
1, 44388, Note_on_c, 0, 82, 64
1, 44400, Note_on_c, 0, 70, 59
1, 44448, Note_off_c, 0, 77, 64
1, 44664, Note_off_c, 0, 59, 64
1, 44664, Note_off_c, 0, 65, 64
1, 44680, Note_off_c, 0, 61, 64
1, 44708, Note_on_c, 0, 80, 65
1, 44716, Note_on_c, 0, 68, 54
1, 44720, Note_on_c, 0, 58, 52
1, 44732, Note_off_c, 0, 82, 64
1, 44736, Note_on_c, 0, 61, 27
1, 44744, Note_off_c, 0, 70, 64
1, 44752, Control_c, 0, 64, 0
1, 44824, Control_c, 0, 64, 127
1, 44876, Note_on_c, 0, 66, 21
1, 44884, Note_on_c, 0, 78, 41
1, 44944, Note_off_c, 0, 80, 64
1, 44952, Note_off_c, 0, 68, 64
1, 45016, Note_off_c, 0, 61, 64
1, 45024, Note_off_c, 0, 58, 64
1, 45040, Note_on_c, 0, 73, 43
1, 45052, Note_on_c, 0, 61, 46
1, 45068, Control_c, 0, 64, 0
1, 45084, Note_off_c, 0, 66, 64
1, 45092, Note_off_c, 0, 78, 64
1, 45136, Control_c, 0, 64, 127
1, 45356, Note_on_c, 0, 75, 47
1, 45360, Note_on_c, 0, 63, 36
1, 45396, Note_off_c, 0, 73, 64
1, 45408, Note_off_c, 0, 61, 64
1, 45428, Note_off_c, 0, 63, 64
1, 45560, Note_on_c, 0, 70, 50
1, 45616, Note_off_c, 0, 75, 64
1, 45676, Note_on_c, 0, 71, 73
1, 45684, Note_on_c, 0, 37, 64
1, 45704, Control_c, 0, 64, 0
1, 45724, Note_off_c, 0, 70, 64
1, 45756, Control_c, 0, 64, 127
1, 45860, Note_on_c, 0, 73, 63
1, 45904, Note_off_c, 0, 71, 64
1, 46020, Note_on_c, 0, 77, 64
1, 46024, Note_off_c, 0, 73, 64
1, 46028, Note_on_c, 0, 59, 50
1, 46028, Note_on_c, 0, 61, 50
1, 46032, Note_on_c, 0, 65, 58
1, 46048, Control_c, 0, 64, 0
1, 46136, Control_c, 0, 64, 127
1, 46348, Note_on_c, 0, 83, 58
1, 46360, Note_off_c, 0, 77, 64
1, 46364, Note_on_c, 0, 71, 49
1, 46500, Note_off_c, 0, 37, 64
1, 46672, Note_on_c, 0, 82, 56
1, 46676, Note_on_c, 0, 70, 62
1, 46704, Note_off_c, 0, 83, 64
1, 46720, Note_off_c, 0, 71, 64
1, 46724, Control_c, 0, 64, 0
1, 46796, Control_c, 0, 64, 127
1, 46924, Note_on_c, 0, 80, 56
1, 46936, Note_on_c, 0, 68, 44
1, 46968, Note_off_c, 0, 65, 64
1, 46968, Note_off_c, 0, 82, 64
1, 46972, Note_off_c, 0, 70, 64
1, 46984, Note_off_c, 0, 59, 64
1, 46984, Note_off_c, 0, 61, 64
1, 47028, Note_on_c, 0, 75, 62
1, 47036, Note_on_c, 0, 63, 47
1, 47048, Control_c, 0, 64, 0
1, 47056, Note_off_c, 0, 80, 64
1, 47068, Note_off_c, 0, 68, 64
1, 47104, Control_c, 0, 64, 127
1, 47352, Note_on_c, 0, 80, 54
1, 47364, Note_on_c, 0, 68, 50
1, 47392, Note_off_c, 0, 75, 64
1, 47404, Note_off_c, 0, 63, 64
1, 47408, Control_c, 0, 64, 0
1, 47464, Control_c, 0, 64, 127
1, 47616, Note_on_c, 0, 78, 50
1, 47628, Note_off_c, 0, 80, 64
1, 47628, Note_on_c, 0, 66, 42
1, 47632, Note_off_c, 0, 68, 64
1, 47692, Note_on_c, 0, 73, 58
1, 47720, Note_on_c, 0, 61, 49
1, 47728, Note_off_c, 0, 78, 64
1, 47736, Control_c, 0, 64, 0
1, 47744, Note_off_c, 0, 66, 64
1, 47792, Control_c, 0, 64, 127
1, 48052, Note_on_c, 0, 66, 32
1, 48052, Note_on_c, 0, 78, 51
1, 48060, Note_off_c, 0, 73, 64
1, 48088, Note_off_c, 0, 61, 64
1, 48096, Control_c, 0, 64, 0
1, 48152, Control_c, 0, 64, 127
1, 48320, Note_on_c, 0, 65, 40
1, 48328, Note_on_c, 0, 77, 48
1, 48364, Note_off_c, 0, 66, 64
1, 48364, Note_off_c, 0, 78, 64
1, 48432, Note_on_c, 0, 59, 32
1, 48440, Note_on_c, 0, 71, 32
1, 48440, Control_c, 0, 64, 0
1, 48456, Note_off_c, 0, 65, 64
1, 48468, Note_off_c, 0, 77, 64
1, 48508, Control_c, 0, 64, 127
1, 48840, Note_on_c, 0, 77, 46
1, 48840, Note_on_c, 0, 65, 33
1, 48872, Note_off_c, 0, 59, 64
1, 48880, Note_off_c, 0, 71, 64
1, 48880, Control_c, 0, 64, 0
1, 48980, Control_c, 0, 64, 127
1, 49020, Note_on_c, 0, 75, 46
1, 49036, Note_off_c, 0, 77, 64
1, 49044, Note_on_c, 0, 63, 33
1, 49084, Note_off_c, 0, 65, 64
1, 49200, Note_on_c, 0, 61, 20
1, 49216, Note_on_c, 0, 73, 50
1, 49232, Control_c, 0, 64, 0
1, 49240, Note_off_c, 0, 63, 64
1, 49252, Note_off_c, 0, 75, 64
1, 49288, Control_c, 0, 64, 127
1, 49600, Note_on_c, 0, 71, 37
1, 49608, Note_on_c, 0, 59, 28
1, 49644, Note_off_c, 0, 61, 64
1, 49656, Note_off_c, 0, 73, 64
1, 49952, Note_on_c, 0, 70, 56
1, 49952, Control_c, 0, 64, 0
1, 49964, Note_on_c, 0, 58, 36
1, 49984, Note_off_c, 0, 71, 64
1, 50000, Note_off_c, 0, 59, 64
1, 50024, Control_c, 0, 64, 127
1, 50152, Note_off_c, 0, 70, 64
1, 50200, Note_off_c, 0, 58, 64
1, 50240, Note_on_c, 0, 70, 54
1, 50304, Note_on_c, 0, 42, 56
1, 50312, Note_on_c, 0, 58, 52
1, 50320, Note_on_c, 0, 61, 57
1, 50340, Control_c, 0, 64, 0
1, 50400, Note_off_c, 0, 70, 64
1, 50424, Control_c, 0, 64, 127
1, 50620, Control_c, 0, 64, 0
1, 50636, Note_off_c, 0, 58, 64
1, 50640, Note_off_c, 0, 61, 64
1, 50668, Note_on_c, 0, 49, 39
1, 50668, Note_on_c, 0, 70, 62
1, 50672, Note_on_c, 0, 58, 44
1, 50676, Note_on_c, 0, 54, 25
1, 50680, Note_on_c, 0, 61, 48
1, 50688, Control_c, 0, 64, 127
1, 50696, Control_c, 0, 64, 0
1, 51008, Note_off_c, 0, 42, 64
1, 51012, Note_on_c, 0, 41, 55
1, 51056, Control_c, 0, 64, 0
1, 51068, Note_off_c, 0, 49, 64
1, 51076, Note_off_c, 0, 54, 64
1, 51100, Note_off_c, 0, 58, 64
1, 51148, Control_c, 0, 64, 127
1, 51156, Note_on_c, 0, 68, 48
1, 51164, Note_off_c, 0, 70, 64
1, 51168, Note_on_c, 0, 56, 48
1, 51280, Note_on_c, 0, 70, 47
1, 51296, Note_off_c, 0, 68, 64
1, 51308, Note_off_c, 0, 56, 64
1, 51308, Note_on_c, 0, 49, 43
1, 51320, Note_on_c, 0, 56, 47
1, 51332, Note_on_c, 0, 68, 54
1, 51388, Note_off_c, 0, 70, 64
1, 51488, Note_on_c, 0, 67, 57
1, 51500, Note_on_c, 0, 55, 57
1, 51576, Note_off_c, 0, 56, 64
1, 51588, Note_off_c, 0, 68, 64
1, 51644, Note_off_c, 0, 41, 64
1, 51660, Note_on_c, 0, 68, 54
1, 51664, Note_on_c, 0, 56, 57
1, 51700, Note_off_c, 0, 67, 64
1, 51704, Note_on_c, 0, 41, 50
1, 51712, Note_off_c, 0, 55, 64
1, 51720, Control_c, 0, 64, 0
1, 51760, Control_c, 0, 64, 127
1, 51992, Note_off_c, 0, 61, 64
1, 52012, Note_on_c, 0, 60, 47
1, 52016, Note_on_c, 0, 39, 47
1, 52016, Note_on_c, 0, 66, 59
1, 52036, Control_c, 0, 64, 0
1, 52044, Note_off_c, 0, 41, 64
1, 52104, Note_off_c, 0, 68, 64
1, 52108, Note_off_c, 0, 56, 64
1, 52116, Control_c, 0, 64, 127
1, 52124, Note_off_c, 0, 49, 64
1, 52152, Note_off_c, 0, 60, 64
1, 52160, Note_off_c, 0, 66, 64
1, 52248, Note_on_c, 0, 66, 44
1, 52248, Note_on_c, 0, 60, 55
1, 52316, Note_on_c, 0, 56, 62
1, 52332, Note_on_c, 0, 44, 27
1, 52336, Note_on_c, 0, 51, 34
1, 52352, Control_c, 0, 64, 0
1, 52400, Note_off_c, 0, 66, 64
1, 52400, Note_off_c, 0, 60, 64
1, 52420, Control_c, 0, 64, 127
1, 52640, Note_off_c, 0, 39, 64
1, 52672, Note_on_c, 0, 66, 56
1, 52680, Note_on_c, 0, 39, 49
1, 52684, Note_on_c, 0, 60, 55
1, 52696, Control_c, 0, 64, 0
1, 52752, Note_off_c, 0, 51, 64
1, 52772, Control_c, 0, 64, 127
1, 52996, Note_on_c, 0, 61, 55
1, 53000, Note_on_c, 0, 37, 52
1, 53012, Control_c, 0, 64, 0
1, 53032, Note_off_c, 0, 39, 64
1, 53040, Note_off_c, 0, 60, 64
1, 53044, Note_off_c, 0, 44, 64
1, 53084, Control_c, 0, 64, 127
1, 53172, Note_on_c, 0, 65, 31
1, 53200, Note_off_c, 0, 66, 64
1, 53284, Note_on_c, 0, 66, 59
1, 53300, Note_off_c, 0, 65, 64
1, 53316, Note_on_c, 0, 49, 27
1, 53316, Note_on_c, 0, 44, 39
1, 53324, Note_on_c, 0, 65, 55
1, 53332, Control_c, 0, 64, 0
1, 53336, Note_off_c, 0, 61, 64
1, 53364, Note_off_c, 0, 66, 64
1, 53396, Control_c, 0, 64, 127
1, 53480, Note_on_c, 0, 64, 57
1, 53512, Note_off_c, 0, 65, 64
1, 53620, Note_off_c, 0, 56, 64
1, 53620, Note_off_c, 0, 37, 64
1, 53640, Note_off_c, 0, 64, 64
1, 53664, Note_on_c, 0, 65, 46
1, 53664, Note_on_c, 0, 37, 50
1, 53672, Note_on_c, 0, 56, 51
1, 53688, Control_c, 0, 64, 0
1, 53700, Note_off_c, 0, 49, 64
1, 53700, Note_off_c, 0, 44, 64
1, 53740, Control_c, 0, 64, 127
1, 53992, Note_off_c, 0, 65, 64
1, 53996, Note_on_c, 0, 61, 46
1, 53996, Note_on_c, 0, 57, 54
1, 54000, Note_on_c, 0, 42, 46
1, 54008, Note_off_c, 0, 56, 64
1, 54020, Note_off_c, 0, 37, 64
1, 54024, Control_c, 0, 64, 0
1, 54096, Control_c, 0, 64, 127
1, 54228, Note_on_c, 0, 63, 44
1, 54244, Note_off_c, 0, 61, 64
1, 54244, Note_off_c, 0, 57, 64
1, 54264, Note_off_c, 0, 63, 64
1, 54308, Note_on_c, 0, 54, 49
1, 54316, Note_on_c, 0, 57, 55
1, 54320, Note_on_c, 0, 63, 69
1, 54320, Note_on_c, 0, 49, 46
1, 54344, Control_c, 0, 64, 0
1, 54396, Control_c, 0, 64, 127
1, 54504, Note_off_c, 0, 42, 64
1, 54540, Note_on_c, 0, 61, 64
1, 54544, Note_off_c, 0, 63, 64
1, 54564, Note_off_c, 0, 57, 64
1, 54588, Note_off_c, 0, 61, 64
1, 54636, Note_on_c, 0, 61, 66
1, 54636, Note_on_c, 0, 42, 55
1, 54648, Note_on_c, 0, 57, 58
1, 54652, Control_c, 0, 64, 0
1, 54672, Note_off_c, 0, 54, 64
1, 54708, Control_c, 0, 64, 127
1, 54856, Note_on_c, 0, 63, 59
1, 54880, Note_off_c, 0, 61, 64
1, 54896, Note_off_c, 0, 57, 64
1, 54904, Note_off_c, 0, 63, 64
1, 54920, Note_off_c, 0, 49, 64
1, 54924, Note_on_c, 0, 44, 58
1, 54944, Note_on_c, 0, 61, 69
1, 54944, Note_on_c, 0, 56, 49
1, 54944, Note_on_c, 0, 49, 54
1, 54948, Note_on_c, 0, 63, 69
1, 54972, Note_off_c, 0, 42, 64
1, 54984, Control_c, 0, 64, 0
1, 55040, Control_c, 0, 64, 127
1, 55168, Note_on_c, 0, 65, 55
1, 55176, Note_off_c, 0, 61, 64
1, 55176, Note_off_c, 0, 56, 64
1, 55176, Note_off_c, 0, 49, 64
1, 55184, Note_off_c, 0, 63, 64
1, 55228, Note_off_c, 0, 65, 64
1, 55264, Note_on_c, 0, 56, 56
1, 55268, Note_on_c, 0, 65, 65
1, 55272, Note_on_c, 0, 49, 42
1, 55276, Note_on_c, 0, 61, 65
1, 55300, Control_c, 0, 64, 0
1, 55324, Control_c, 0, 64, 127
1, 55436, Note_off_c, 0, 65, 64
1, 55480, Note_on_c, 0, 66, 69
1, 55532, Note_off_c, 0, 61, 64
1, 55556, Note_off_c, 0, 66, 64
1, 55568, Control_c, 0, 64, 0
1, 55576, Note_on_c, 0, 66, 69
1, 55640, Control_c, 0, 64, 127
1, 55660, Note_off_c, 0, 44, 64
1, 55672, Note_off_c, 0, 56, 64
1, 55680, Note_off_c, 0, 49, 64
1, 55780, Note_on_c, 0, 67, 58
1, 55808, Note_off_c, 0, 66, 64
1, 55868, Note_off_c, 0, 67, 64
1, 55896, Note_on_c, 0, 32, 78
1, 55920, Control_c, 0, 64, 0
1, 55928, Note_on_c, 0, 67, 66
1, 55944, Control_c, 0, 64, 127
1, 56132, Control_c, 0, 64, 0
1, 56160, Note_on_c, 0, 68, 59
1, 56168, Note_off_c, 0, 67, 64
1, 56224, Note_on_c, 0, 63, 44
1, 56224, Note_on_c, 0, 60, 65
1, 56232, Note_on_c, 0, 56, 44
1, 56232, Note_on_c, 0, 51, 46
1, 56312, Note_off_c, 0, 68, 64
1, 56328, Note_on_c, 0, 68, 74
1, 56348, Note_off_c, 0, 32, 64
1, 56372, Note_off_c, 0, 63, 64
1, 56384, Note_off_c, 0, 56, 64
1, 56388, Note_on_c, 0, 70, 73
1, 56396, Note_off_c, 0, 51, 64
1, 56404, Note_off_c, 0, 60, 64
1, 56404, Note_off_c, 0, 68, 64
1, 56452, Note_on_c, 0, 68, 70
1, 56488, Note_off_c, 0, 70, 64
1, 56528, Note_on_c, 0, 63, 50
1, 56536, Note_on_c, 0, 56, 50
1, 56540, Note_on_c, 0, 60, 51
1, 56540, Note_on_c, 0, 51, 51
1, 56544, Note_on_c, 0, 66, 62
1, 56552, Note_on_c, 0, 67, 69
1, 56568, Control_c, 0, 64, 0
1, 56584, Note_off_c, 0, 68, 64
1, 56620, Control_c, 0, 64, 127
1, 56712, Note_off_c, 0, 63, 64
1, 56712, Note_on_c, 0, 68, 69
1, 56716, Note_off_c, 0, 56, 64
1, 56720, Note_off_c, 0, 60, 64
1, 56720, Note_off_c, 0, 51, 64
1, 56724, Note_off_c, 0, 66, 64
1, 56736, Note_off_c, 0, 67, 64
1, 56876, Note_on_c, 0, 75, 69
1, 56884, Note_on_c, 0, 37, 69
1, 56892, Note_on_c, 0, 49, 58
1, 56892, Control_c, 0, 64, 0
1, 56924, Note_off_c, 0, 68, 64
1, 56972, Control_c, 0, 64, 127
1, 57116, Note_on_c, 0, 77, 62
1, 57128, Note_off_c, 0, 75, 64
1, 57196, Note_on_c, 0, 61, 55
1, 57196, Note_on_c, 0, 56, 48
1, 57200, Note_on_c, 0, 73, 78
1, 57200, Note_on_c, 0, 65, 73
1, 57208, Note_off_c, 0, 77, 64
1, 57236, Control_c, 0, 64, 0
1, 57304, Control_c, 0, 64, 127
1, 57328, Note_off_c, 0, 37, 64
1, 57332, Note_off_c, 0, 49, 64
1, 57376, Note_off_c, 0, 61, 64
1, 57376, Note_off_c, 0, 56, 64
1, 57516, Note_on_c, 0, 49, 62
1, 57676, Note_on_c, 0, 72, 64
1, 57712, Note_off_c, 0, 73, 64
1, 57728, Note_off_c, 0, 65, 64
1, 57848, Note_on_c, 0, 66, 54
1, 57856, Note_on_c, 0, 70, 59
1, 57864, Note_on_c, 0, 42, 56
1, 57888, Note_off_c, 0, 72, 64
1, 57892, Control_c, 0, 64, 0
1, 57928, Note_off_c, 0, 66, 64
1, 57936, Note_off_c, 0, 70, 64
1, 58084, Note_on_c, 0, 70, 59
1, 58092, Note_on_c, 0, 66, 54
1, 58136, Note_off_c, 0, 49, 64
1, 58168, Note_on_c, 0, 49, 36
1, 58176, Note_on_c, 0, 61, 58
1, 58180, Note_on_c, 0, 54, 42
1, 58180, Note_on_c, 0, 58, 58
1, 58220, Control_c, 0, 64, 127
1, 58244, Note_off_c, 0, 70, 64
1, 58252, Note_off_c, 0, 66, 64
1, 58460, Note_off_c, 0, 42, 64
1, 58472, Note_off_c, 0, 54, 64
1, 58480, Note_off_c, 0, 58, 64
1, 58500, Control_c, 0, 64, 0
1, 58512, Note_on_c, 0, 58, 58
1, 58520, Note_on_c, 0, 70, 58
1, 58520, Note_on_c, 0, 42, 52
1, 58600, Control_c, 0, 64, 127
1, 58824, Note_on_c, 0, 41, 57
1, 58836, Control_c, 0, 64, 0
1, 58876, Note_off_c, 0, 42, 64
1, 58944, Control_c, 0, 64, 127
1, 58980, Note_on_c, 0, 68, 49
1, 58984, Note_on_c, 0, 56, 57
1, 59016, Note_off_c, 0, 58, 64
1, 59020, Note_off_c, 0, 70, 64
1, 59076, Note_off_c, 0, 49, 64
1, 59108, Note_off_c, 0, 56, 64
1, 59112, Note_on_c, 0, 70, 56
1, 59120, Note_off_c, 0, 68, 64
1, 59136, Control_c, 0, 64, 0
1, 59152, Note_on_c, 0, 68, 56
1, 59152, Note_on_c, 0, 56, 55
1, 59152, Note_on_c, 0, 53, 49
1, 59152, Note_on_c, 0, 49, 55
1, 59196, Note_off_c, 0, 70, 64
1, 59248, Control_c, 0, 64, 127
1, 59296, Note_on_c, 0, 55, 52
1, 59312, Note_on_c, 0, 67, 52
1, 59328, Note_off_c, 0, 68, 64
1, 59328, Note_off_c, 0, 56, 64
1, 59340, Note_off_c, 0, 53, 64
1, 59356, Note_off_c, 0, 41, 64
1, 59460, Note_on_c, 0, 56, 58
1, 59468, Note_on_c, 0, 68, 62
1, 59468, Note_on_c, 0, 41, 57
1, 59472, Note_off_c, 0, 55, 64
1, 59476, Control_c, 0, 64, 0
1, 59488, Note_off_c, 0, 67, 64
1, 59548, Control_c, 0, 64, 127
1, 59680, Note_off_c, 0, 61, 64
1, 59684, Note_off_c, 0, 49, 64
1, 59760, Note_on_c, 0, 66, 57
1, 59768, Note_on_c, 0, 39, 56
1, 59768, Note_on_c, 0, 60, 44
1, 59776, Note_off_c, 0, 41, 64
1, 59780, Note_off_c, 0, 56, 64
1, 59780, Control_c, 0, 64, 0
1, 59784, Note_off_c, 0, 68, 64
1, 59840, Note_off_c, 0, 66, 64
1, 59844, Note_off_c, 0, 60, 64
1, 59992, Note_on_c, 0, 66, 59
1, 59992, Note_on_c, 0, 60, 41
1, 60088, Note_on_c, 0, 56, 58
1, 60092, Note_on_c, 0, 51, 59
1, 60092, Note_on_c, 0, 44, 58
1, 60112, Control_c, 0, 64, 127
1, 60128, Note_off_c, 0, 66, 64
1, 60128, Note_off_c, 0, 60, 64
1, 60372, Note_off_c, 0, 39, 64
1, 60420, Note_on_c, 0, 66, 57
1, 60432, Note_on_c, 0, 60, 52
1, 60432, Note_on_c, 0, 39, 49
1, 60452, Control_c, 0, 64, 0
1, 60504, Note_off_c, 0, 51, 64
1, 60536, Control_c, 0, 64, 127
1, 60736, Note_on_c, 0, 37, 62
1, 60752, Control_c, 0, 64, 0
1, 60760, Note_on_c, 0, 61, 56
1, 60768, Note_off_c, 0, 39, 64
1, 60792, Note_off_c, 0, 60, 64
1, 60840, Control_c, 0, 64, 127
1, 60960, Note_on_c, 0, 65, 49
1, 60980, Note_off_c, 0, 66, 64
1, 61004, Note_off_c, 0, 44, 64
1, 61012, Note_on_c, 0, 66, 55
1, 61036, Note_off_c, 0, 65, 64
1, 61048, Note_on_c, 0, 49, 62
1, 61048, Note_on_c, 0, 65, 57
1, 61048, Note_on_c, 0, 44, 56
1, 61084, Control_c, 0, 64, 0
1, 61100, Note_off_c, 0, 66, 64
1, 61160, Control_c, 0, 64, 127
1, 61180, Note_off_c, 0, 61, 64
1, 61272, Note_on_c, 0, 64, 57
1, 61296, Note_off_c, 0, 65, 64
1, 61352, Note_off_c, 0, 37, 64
1, 61356, Note_off_c, 0, 56, 64
1, 61368, Note_on_c, 0, 56, 62
1, 61384, Note_on_c, 0, 65, 64
1, 61384, Note_on_c, 0, 37, 56
1, 61408, Control_c, 0, 64, 0
1, 61416, Note_off_c, 0, 44, 64
1, 61416, Note_off_c, 0, 64, 64
1, 61480, Control_c, 0, 64, 127
1, 61716, Note_off_c, 0, 65, 64
1, 61724, Note_on_c, 0, 57, 44
1, 61724, Note_on_c, 0, 42, 46
1, 61728, Note_on_c, 0, 61, 46
1, 61752, Note_off_c, 0, 56, 64
1, 61752, Control_c, 0, 64, 0
1, 61756, Note_off_c, 0, 37, 64
1, 61840, Control_c, 0, 64, 127
1, 61960, Note_on_c, 0, 63, 51
1, 61968, Note_off_c, 0, 61, 64
1, 61984, Note_off_c, 0, 49, 64
1, 61992, Note_off_c, 0, 57, 64
1, 62008, Note_off_c, 0, 63, 64
1, 62032, Note_on_c, 0, 57, 52
1, 62044, Note_on_c, 0, 54, 41
1, 62044, Note_on_c, 0, 63, 55
1, 62044, Note_on_c, 0, 49, 46
1, 62056, Control_c, 0, 64, 0
1, 62124, Control_c, 0, 64, 127
1, 62232, Note_off_c, 0, 42, 64
1, 62264, Note_on_c, 0, 61, 63
1, 62268, Note_off_c, 0, 63, 64
1, 62304, Note_off_c, 0, 57, 64
1, 62320, Note_off_c, 0, 61, 64
1, 62340, Note_on_c, 0, 42, 52
1, 62344, Note_on_c, 0, 61, 65
1, 62344, Note_on_c, 0, 57, 50
1, 62364, Control_c, 0, 64, 0
1, 62416, Note_off_c, 0, 54, 64
1, 62420, Control_c, 0, 64, 127
1, 62552, Note_on_c, 0, 63, 54
1, 62588, Note_off_c, 0, 61, 64
1, 62592, Note_off_c, 0, 42, 64
1, 62592, Note_off_c, 0, 57, 64
1, 62592, Note_off_c, 0, 63, 64
1, 62644, Note_on_c, 0, 44, 56
1, 62648, Note_on_c, 0, 63, 67
1, 62648, Note_on_c, 0, 61, 67
1, 62652, Note_on_c, 0, 56, 49
1, 62720, Control_c, 0, 64, 0
1, 62784, Control_c, 0, 64, 127
1, 62868, Note_off_c, 0, 63, 64
1, 62884, Note_off_c, 0, 44, 64
1, 62888, Note_off_c, 0, 49, 64
1, 62900, Note_on_c, 0, 65, 54
1, 62908, Note_off_c, 0, 61, 64
1, 62908, Note_off_c, 0, 56, 64
1, 62960, Note_off_c, 0, 65, 64
1, 62976, Note_on_c, 0, 49, 39
1, 62980, Note_on_c, 0, 65, 63
1, 62980, Note_on_c, 0, 61, 65
1, 62980, Note_on_c, 0, 56, 49
1, 62992, Control_c, 0, 64, 0
1, 63064, Control_c, 0, 64, 127
1, 63104, Note_off_c, 0, 65, 64
1, 63216, Note_on_c, 0, 66, 63
1, 63276, Note_off_c, 0, 66, 64
1, 63304, Note_off_c, 0, 49, 64
1, 63312, Note_off_c, 0, 56, 64
1, 63312, Note_on_c, 0, 66, 60
1, 63312, Note_on_c, 0, 44, 77
1, 63312, Control_c, 0, 64, 127
1, 63552, Note_on_c, 0, 67, 59
1, 63564, Note_off_c, 0, 66, 64
1, 63612, Note_off_c, 0, 67, 64
1, 63632, Note_on_c, 0, 67, 60
1, 63640, Note_on_c, 0, 32, 79
1, 63648, Note_off_c, 0, 44, 64
1, 63652, Control_c, 0, 64, 0
1, 63708, Control_c, 0, 64, 127
1, 63856, Note_off_c, 0, 61, 64
1, 63880, Note_on_c, 0, 68, 69
1, 63888, Note_off_c, 0, 67, 64
1, 63924, Note_off_c, 0, 68, 64
1, 63972, Note_on_c, 0, 60, 64
1, 63972, Note_on_c, 0, 63, 59
1, 63972, Note_on_c, 0, 66, 69
1, 63976, Note_on_c, 0, 56, 55
1, 63976, Note_on_c, 0, 51, 56
1, 63976, Note_on_c, 0, 68, 62
1, 63992, Control_c, 0, 64, 0
1, 64036, Control_c, 0, 64, 127
1, 64216, Note_on_c, 0, 69, 58
1, 64240, Note_off_c, 0, 68, 64
1, 64272, Note_off_c, 0, 69, 64
1, 64324, Note_on_c, 0, 69, 64
1, 64548, Note_on_c, 0, 70, 50
1, 64560, Note_off_c, 0, 69, 64
1, 64632, Note_off_c, 0, 70, 64
1, 64672, Note_on_c, 0, 70, 57
1, 64848, Note_off_c, 0, 32, 64
1, 64908, Note_on_c, 0, 71, 43
1, 64912, Note_off_c, 0, 56, 64
1, 64912, Note_off_c, 0, 60, 64
1, 64912, Note_off_c, 0, 63, 64
1, 64912, Note_off_c, 0, 66, 64
1, 64916, Note_off_c, 0, 51, 64
1, 64928, Note_off_c, 0, 70, 64
1, 64992, Note_off_c, 0, 71, 64
1, 65048, Note_on_c, 0, 71, 56
1, 65220, Control_c, 0, 64, 0
1, 65260, Control_c, 0, 64, 127
1, 65344, Note_on_c, 0, 72, 58
1, 65360, Note_off_c, 0, 71, 64
1, 65428, Note_off_c, 0, 72, 64
1, 65472, Note_on_c, 0, 72, 56
1, 65732, Note_on_c, 0, 73, 48
1, 65760, Note_off_c, 0, 72, 64
1, 65832, Note_off_c, 0, 73, 64
1, 65884, Note_on_c, 0, 45, 42
1, 65888, Note_on_c, 0, 73, 49
1, 65888, Note_on_c, 0, 61, 27
1, 65900, Note_on_c, 0, 52, 36
1, 65900, Note_on_c, 0, 64, 39
1, 65972, Control_c, 0, 64, 0
1, 66072, Note_on_c, 0, 57, 39
1, 66080, Note_off_c, 0, 52, 64
1, 66092, Control_c, 0, 64, 127
1, 66112, Control_c, 0, 64, 0
1, 66232, Note_on_c, 0, 56, 57
1, 66324, Note_off_c, 0, 57, 64
1, 66544, Control_c, 0, 64, 127
1, 66556, Note_on_c, 0, 54, 37
1, 66596, Note_off_c, 0, 56, 64
1, 66652, Note_off_c, 0, 64, 64
1, 66672, Note_off_c, 0, 61, 64
1, 66672, Note_off_c, 0, 73, 64
1, 66928, Note_on_c, 0, 52, 44
1, 66928, Note_on_c, 0, 64, 52
1, 66940, Note_on_c, 0, 61, 48
1, 66940, Note_on_c, 0, 73, 35
1, 66972, Note_off_c, 0, 54, 64
1, 66996, Control_c, 0, 64, 0
1, 67092, Note_on_c, 0, 69, 54
1, 67168, Note_off_c, 0, 64, 64
1, 67288, Note_on_c, 0, 68, 62
1, 67332, Note_off_c, 0, 69, 64
1, 67396, Control_c, 0, 64, 127
1, 67636, Note_on_c, 0, 66, 44
1, 67660, Note_off_c, 0, 45, 64
1, 67664, Note_off_c, 0, 68, 64
1, 67672, Note_off_c, 0, 52, 64
1, 67876, Note_off_c, 0, 61, 64
1, 67876, Note_off_c, 0, 73, 64
1, 67956, Note_on_c, 0, 45, 39
1, 67960, Note_on_c, 0, 64, 50
1, 67968, Note_on_c, 0, 73, 40
1, 67968, Note_on_c, 0, 52, 35
1, 67980, Note_off_c, 0, 66, 64
1, 68020, Control_c, 0, 64, 0
1, 68128, Note_on_c, 0, 61, 54
1, 68208, Note_off_c, 0, 64, 64
1, 68304, Note_on_c, 0, 57, 51
1, 68312, Control_c, 0, 64, 127
1, 68436, Note_off_c, 0, 61, 64
1, 68632, Note_on_c, 0, 59, 50
1, 68656, Control_c, 0, 64, 0
1, 68664, Note_off_c, 0, 57, 64
1, 68676, Control_c, 0, 64, 127
1, 68776, Note_off_c, 0, 73, 64
1, 68992, Note_on_c, 0, 61, 49
1, 69008, Note_on_c, 0, 73, 49
1, 69032, Note_off_c, 0, 59, 64
1, 69076, Control_c, 0, 64, 0
1, 69180, Control_c, 0, 64, 127
1, 69188, Note_on_c, 0, 62, 51
1, 69208, Note_off_c, 0, 61, 64
1, 69364, Control_c, 0, 64, 0
1, 69384, Note_on_c, 0, 64, 47
1, 69408, Control_c, 0, 64, 127
1, 69440, Note_off_c, 0, 62, 64
1, 69552, Note_off_c, 0, 45, 64
1, 69564, Note_off_c, 0, 52, 64
1, 69756, Note_on_c, 0, 71, 48
1, 69756, Note_on_c, 0, 65, 51
1, 69768, Note_off_c, 0, 64, 64
1, 69768, Note_on_c, 0, 59, 39
1, 69768, Note_on_c, 0, 49, 51
1, 69768, Note_on_c, 0, 44, 2
1, 69776, Note_off_c, 0, 73, 64
1, 69828, Control_c, 0, 64, 0
1, 69880, Control_c, 0, 64, 127
1, 70216, Note_on_c, 0, 42, 39
1, 70220, Note_on_c, 0, 66, 42
1, 70228, Note_on_c, 0, 69, 44
1, 70256, Note_off_c, 0, 71, 64
1, 70256, Note_off_c, 0, 65, 64
1, 70276, Note_off_c, 0, 44, 64
1, 70288, Control_c, 0, 64, 0
1, 70296, Note_off_c, 0, 59, 64
1, 70336, Control_c, 0, 64, 127
1, 70384, Note_on_c, 0, 54, 46
1, 70400, Note_off_c, 0, 49, 64
1, 70564, Note_on_c, 0, 52, 49
1, 70584, Control_c, 0, 64, 0
1, 70600, Note_off_c, 0, 54, 64
1, 70652, Control_c, 0, 64, 127
1, 70888, Control_c, 0, 64, 0
1, 70896, Note_on_c, 0, 50, 46
1, 70920, Note_off_c, 0, 52, 64
1, 70976, Control_c, 0, 64, 127
1, 71076, Note_off_c, 0, 66, 64
1, 71124, Note_off_c, 0, 69, 64
1, 71196, Note_off_c, 0, 42, 64
1, 71220, Note_on_c, 0, 49, 44
1, 71228, Note_on_c, 0, 69, 32
1, 71232, Note_on_c, 0, 66, 32
1, 71232, Note_on_c, 0, 57, 35
1, 71256, Note_off_c, 0, 50, 64
1, 71280, Control_c, 0, 64, 0
1, 71328, Control_c, 0, 64, 127
1, 71388, Note_on_c, 0, 45, 33
1, 71432, Note_off_c, 0, 49, 64
1, 71548, Note_on_c, 0, 42, 55
1, 71584, Note_off_c, 0, 45, 64
1, 71620, Control_c, 0, 64, 0
1, 71688, Control_c, 0, 64, 127
1, 71740, Note_off_c, 0, 66, 64
1, 71744, Note_off_c, 0, 69, 64
1, 71840, Note_off_c, 0, 57, 64
1, 71920, Note_on_c, 0, 67, 41
1, 71920, Note_on_c, 0, 43, 51
1, 71928, Note_off_c, 0, 42, 64
1, 71932, Note_on_c, 0, 64, 39
1, 71932, Note_on_c, 0, 55, 35
1, 71992, Control_c, 0, 64, 0
1, 72056, Control_c, 0, 64, 127
1, 72068, Note_off_c, 0, 67, 64
1, 72080, Note_off_c, 0, 64, 64
1, 72080, Note_off_c, 0, 55, 64
1, 72168, Note_on_c, 0, 67, 31
1, 72176, Note_on_c, 0, 55, 32
1, 72184, Note_on_c, 0, 64, 32
1, 72224, Note_on_c, 0, 62, 33
1, 72224, Note_on_c, 0, 54, 34
1, 72232, Note_on_c, 0, 66, 41
1, 72272, Note_off_c, 0, 67, 64
1, 72272, Note_on_c, 0, 45, 49
1, 72276, Note_off_c, 0, 55, 64
1, 72288, Note_off_c, 0, 43, 64
1, 72288, Note_off_c, 0, 64, 64
1, 72328, Control_c, 0, 64, 0
1, 72456, Note_on_c, 0, 50, 46
1, 72508, Note_off_c, 0, 45, 64
1, 72612, Note_on_c, 0, 49, 55
1, 72648, Note_off_c, 0, 50, 64
1, 72952, Note_on_c, 0, 47, 49
1, 72956, Note_off_c, 0, 49, 64
1, 73324, Note_on_c, 0, 45, 59
1, 73360, Note_off_c, 0, 47, 64
1, 73484, Note_on_c, 0, 42, 47
1, 73520, Note_off_c, 0, 45, 64
1, 73700, Note_off_c, 0, 42, 64
1, 73704, Note_on_c, 0, 38, 40
1, 74160, Note_on_c, 0, 36, 39
1, 74176, Note_off_c, 0, 38, 64
1, 74184, Control_c, 0, 64, 127
1, 74212, Note_off_c, 0, 62, 64
1, 74264, Note_off_c, 0, 54, 64
1, 74400, Note_off_c, 0, 66, 64
1, 74768, Note_on_c, 0, 37, 50
1, 74792, Note_on_c, 0, 65, 50
1, 74792, Control_c, 0, 64, 0
1, 74800, Note_on_c, 0, 61, 28
1, 74800, Note_on_c, 0, 53, 28
1, 74808, Note_off_c, 0, 36, 64
1, 74868, Control_c, 0, 64, 127
1, 74960, Note_off_c, 0, 61, 64
1, 74960, Note_off_c, 0, 53, 64
1, 75080, Note_on_c, 0, 73, 58
1, 75088, Control_c, 0, 64, 127
1, 75100, Note_off_c, 0, 65, 64
1, 75256, Note_on_c, 0, 71, 46
1, 75308, Note_off_c, 0, 73, 64
1, 75380, Note_off_c, 0, 37, 64
1, 75624, Note_on_c, 0, 69, 51
1, 75628, Note_on_c, 0, 66, 23
1, 75632, Note_on_c, 0, 61, 22
1, 75632, Note_on_c, 0, 57, 39
1, 75636, Note_off_c, 0, 71, 64
1, 75732, Note_off_c, 0, 61, 64
1, 75732, Note_off_c, 0, 57, 64
1, 75748, Note_off_c, 0, 66, 64
1, 75984, Note_on_c, 0, 68, 62
1, 76008, Note_on_c, 0, 49, 55
1, 76016, Note_off_c, 0, 69, 64
1, 76036, Control_c, 0, 64, 0
1, 76104, Control_c, 0, 64, 127
1, 76156, Note_on_c, 0, 65, 59
1, 76160, Note_off_c, 0, 68, 64
1, 76304, Note_on_c, 0, 61, 46
1, 76312, Note_on_c, 0, 56, 50
1, 76348, Note_off_c, 0, 65, 64
1, 76360, Control_c, 0, 64, 0
1, 76396, Control_c, 0, 64, 127
1, 76608, Note_off_c, 0, 56, 64
1, 76632, Note_on_c, 0, 54, 35
1, 76640, Note_on_c, 0, 62, 57
1, 76652, Note_on_c, 0, 57, 27
1, 76684, Note_off_c, 0, 61, 64
1, 76688, Control_c, 0, 64, 0
1, 76724, Control_c, 0, 64, 127
1, 76864, Note_off_c, 0, 49, 64
1, 76980, Note_off_c, 0, 54, 64
1, 76988, Note_off_c, 0, 57, 64
1, 76988, Note_on_c, 0, 65, 58
1, 76992, Note_on_c, 0, 49, 50
1, 77008, Note_off_c, 0, 62, 64
1, 77016, Control_c, 0, 64, 0
1, 77104, Control_c, 0, 64, 127
1, 77136, Note_on_c, 0, 66, 62
1, 77172, Note_off_c, 0, 65, 64
1, 77280, Note_on_c, 0, 68, 62
1, 77336, Note_off_c, 0, 66, 64
1, 77528, Note_on_c, 0, 69, 46
1, 77576, Note_on_c, 0, 71, 63
1, 77580, Note_off_c, 0, 49, 64
1, 77584, Note_off_c, 0, 68, 64
1, 77608, Note_off_c, 0, 69, 64
1, 77628, Note_on_c, 0, 61, 27
1, 77632, Note_on_c, 0, 66, 34
1, 77636, Note_on_c, 0, 69, 69
1, 77640, Note_on_c, 0, 57, 43
1, 77668, Note_off_c, 0, 71, 64
1, 77672, Control_c, 0, 64, 0
1, 77724, Control_c, 0, 64, 127
1, 77732, Note_off_c, 0, 66, 64
1, 77744, Note_off_c, 0, 61, 64
1, 77744, Note_off_c, 0, 57, 64
1, 77972, Note_on_c, 0, 68, 62
1, 78004, Note_off_c, 0, 69, 64
1, 78004, Note_on_c, 0, 49, 51
1, 78004, Control_c, 0, 64, 0
1, 78076, Control_c, 0, 64, 127
1, 78132, Note_on_c, 0, 65, 55
1, 78148, Note_off_c, 0, 68, 64
1, 78276, Note_on_c, 0, 61, 56
1, 78288, Note_on_c, 0, 56, 56
1, 78304, Control_c, 0, 64, 0
1, 78312, Note_off_c, 0, 65, 64
1, 78364, Control_c, 0, 64, 127
1, 78552, Note_off_c, 0, 56, 64
1, 78588, Note_off_c, 0, 49, 64
1, 78608, Note_on_c, 0, 54, 46
1, 78612, Note_on_c, 0, 62, 43
1, 78612, Note_on_c, 0, 57, 54
1, 78640, Note_off_c, 0, 61, 64
1, 78948, Note_off_c, 0, 54, 64
1, 78952, Note_on_c, 0, 37, 65
1, 78956, Note_off_c, 0, 57, 64
1, 78956, Note_on_c, 0, 65, 66
1, 78976, Control_c, 0, 64, 0
1, 78992, Note_off_c, 0, 62, 64
1, 79036, Control_c, 0, 64, 127
1, 79104, Note_on_c, 0, 73, 52
1, 79128, Note_off_c, 0, 65, 64
1, 79256, Note_on_c, 0, 71, 58
1, 79260, Note_on_c, 0, 56, 37
1, 79264, Note_on_c, 0, 65, 23
1, 79268, Note_off_c, 0, 73, 64
1, 79268, Note_on_c, 0, 61, 48
1, 79300, Control_c, 0, 64, 0
1, 79372, Control_c, 0, 64, 127
1, 79404, Note_off_c, 0, 37, 64
1, 79432, Note_off_c, 0, 56, 64
1, 79436, Note_off_c, 0, 65, 64
1, 79436, Note_off_c, 0, 61, 64
1, 79580, Note_on_c, 0, 66, 45
1, 79584, Note_on_c, 0, 69, 67
1, 79592, Note_on_c, 0, 57, 40
1, 79608, Note_on_c, 0, 61, 28
1, 79608, Control_c, 0, 64, 0
1, 79628, Note_off_c, 0, 71, 64
1, 79648, Control_c, 0, 64, 127
1, 79900, Note_on_c, 0, 68, 63
1, 79920, Note_off_c, 0, 66, 64
1, 79920, Note_on_c, 0, 49, 56
1, 79928, Note_off_c, 0, 69, 64
1, 79936, Note_off_c, 0, 57, 64
1, 79944, Control_c, 0, 64, 0
1, 79948, Note_off_c, 0, 61, 64
1, 80016, Control_c, 0, 64, 127
1, 80040, Note_on_c, 0, 65, 66
1, 80084, Note_off_c, 0, 68, 64
1, 80184, Note_on_c, 0, 61, 49
1, 80184, Note_on_c, 0, 56, 50
1, 80228, Control_c, 0, 64, 0
1, 80232, Note_off_c, 0, 65, 64
1, 80264, Control_c, 0, 64, 127
1, 80304, Note_off_c, 0, 49, 64
1, 80472, Note_off_c, 0, 56, 64
1, 80496, Note_on_c, 0, 57, 35
1, 80504, Note_on_c, 0, 54, 33
1, 80512, Note_on_c, 0, 62, 53
1, 80528, Control_c, 0, 64, 0
1, 80548, Note_off_c, 0, 61, 64
1, 80596, Control_c, 0, 64, 127
1, 80836, Note_off_c, 0, 57, 64
1, 80836, Note_on_c, 0, 65, 64
1, 80844, Note_off_c, 0, 54, 64
1, 80844, Note_on_c, 0, 49, 36
1, 80856, Note_off_c, 0, 62, 64
1, 80896, Control_c, 0, 64, 0
1, 80960, Control_c, 0, 64, 127
1, 80988, Note_on_c, 0, 66, 56
1, 81044, Note_off_c, 0, 65, 64
1, 81140, Note_on_c, 0, 68, 63
1, 81192, Note_off_c, 0, 66, 64
1, 81352, Note_on_c, 0, 69, 57
1, 81364, Note_off_c, 0, 68, 64
1, 81408, Note_on_c, 0, 71, 69
1, 81436, Note_off_c, 0, 69, 64
1, 81448, Note_off_c, 0, 49, 64
1, 81464, Note_on_c, 0, 69, 67
1, 81468, Note_on_c, 0, 61, 22
1, 81472, Note_on_c, 0, 66, 39
1, 81472, Note_on_c, 0, 57, 42
1, 81496, Note_off_c, 0, 71, 64
1, 81516, Control_c, 0, 64, 0
1, 81576, Control_c, 0, 64, 127
1, 81808, Note_off_c, 0, 61, 64
1, 81812, Note_off_c, 0, 66, 64
1, 81812, Note_off_c, 0, 57, 64
1, 81868, Note_on_c, 0, 68, 62
1, 81888, Note_on_c, 0, 49, 41
1, 81912, Note_off_c, 0, 69, 64
1, 81916, Control_c, 0, 64, 0
1, 82004, Control_c, 0, 64, 127
1, 82312, Note_on_c, 0, 56, 48
1, 82344, Control_c, 0, 64, 0
1, 82400, Control_c, 0, 64, 127
1, 82492, Note_off_c, 0, 68, 64
1, 82504, Note_on_c, 0, 61, 59
1, 82604, Note_off_c, 0, 56, 64
1, 82728, Note_on_c, 0, 68, 70
1, 82736, Note_off_c, 0, 61, 64
1, 82740, Note_off_c, 0, 49, 64
1, 82776, Control_c, 0, 64, 0
1, 82812, Control_c, 0, 64, 127
1, 82952, Note_on_c, 0, 61, 44
1, 83184, Note_on_c, 0, 40, 57
1, 83200, Note_on_c, 0, 59, 62
1, 83220, Control_c, 0, 64, 0
1, 83240, Note_off_c, 0, 61, 64
1, 83244, Control_c, 0, 64, 127
1, 83292, Note_off_c, 0, 59, 64
1, 83376, Note_off_c, 0, 68, 64
1, 83452, Note_on_c, 0, 76, 37
1, 83528, Control_c, 0, 64, 0
1, 83548, Note_on_c, 0, 75, 62
1, 83560, Note_on_c, 0, 68, 50
1, 83564, Note_on_c, 0, 59, 33
1, 83584, Control_c, 0, 64, 127
1, 83600, Note_off_c, 0, 76, 64
1, 83660, Note_off_c, 0, 59, 64
1, 83688, Note_off_c, 0, 68, 64
1, 83760, Note_off_c, 0, 40, 64
1, 83896, Control_c, 0, 64, 0
1, 83904, Note_on_c, 0, 73, 67
1, 83904, Note_on_c, 0, 58, 33
1, 83912, Note_on_c, 0, 64, 35
1, 83916, Note_on_c, 0, 67, 39
1, 83936, Note_off_c, 0, 75, 64
1, 83936, Control_c, 0, 64, 127
1, 84248, Note_off_c, 0, 58, 64
1, 84248, Note_on_c, 0, 71, 62
1, 84252, Note_on_c, 0, 52, 57
1, 84256, Note_off_c, 0, 64, 64
1, 84256, Note_off_c, 0, 67, 64
1, 84264, Note_off_c, 0, 73, 64
1, 84264, Control_c, 0, 64, 0
1, 84336, Control_c, 0, 64, 127
1, 84388, Note_on_c, 0, 68, 64
1, 84444, Note_off_c, 0, 71, 64
1, 84544, Note_on_c, 0, 64, 62
1, 84552, Note_on_c, 0, 59, 43
1, 84568, Note_off_c, 0, 68, 64
1, 84568, Control_c, 0, 64, 0
1, 84604, Control_c, 0, 64, 127
1, 84812, Note_off_c, 0, 59, 64
1, 84844, Note_off_c, 0, 52, 64
1, 84856, Note_on_c, 0, 61, 39
1, 84856, Control_c, 0, 64, 0
1, 84860, Note_on_c, 0, 58, 43
1, 84876, Note_on_c, 0, 67, 64
1, 84896, Control_c, 0, 64, 127
1, 84912, Note_off_c, 0, 64, 64
1, 85168, Note_on_c, 0, 68, 64
1, 85176, Note_on_c, 0, 40, 65
1, 85200, Note_off_c, 0, 61, 64
1, 85200, Note_off_c, 0, 58, 64
1, 85204, Control_c, 0, 64, 0
1, 85212, Note_off_c, 0, 67, 64
1, 85244, Control_c, 0, 64, 127
1, 85332, Note_on_c, 0, 69, 63
1, 85336, Note_off_c, 0, 68, 64
1, 85496, Note_on_c, 0, 70, 59
1, 85496, Note_on_c, 0, 68, 45
1, 85500, Note_on_c, 0, 64, 19
1, 85500, Note_on_c, 0, 59, 34
1, 85524, Control_c, 0, 64, 0
1, 85528, Note_off_c, 0, 69, 64
1, 85568, Control_c, 0, 64, 127
1, 85616, Note_off_c, 0, 68, 64
1, 85620, Note_off_c, 0, 64, 64
1, 85620, Note_off_c, 0, 59, 64
1, 85628, Note_off_c, 0, 40, 64
1, 85640, Note_on_c, 0, 71, 52
1, 85664, Note_off_c, 0, 70, 64
1, 85788, Note_on_c, 0, 72, 65
1, 85800, Note_off_c, 0, 71, 64
1, 85800, Note_on_c, 0, 58, 29
1, 85812, Note_on_c, 0, 64, 35
1, 85820, Note_on_c, 0, 67, 33
1, 85820, Control_c, 0, 64, 0
1, 85888, Control_c, 0, 64, 127
1, 85908, Note_on_c, 0, 75, 56
1, 85944, Note_off_c, 0, 72, 64
1, 85968, Note_on_c, 0, 73, 73
1, 86004, Note_off_c, 0, 75, 64
1, 86112, Note_on_c, 0, 71, 62
1, 86120, Note_off_c, 0, 73, 64
1, 86124, Note_on_c, 0, 52, 58
1, 86136, Control_c, 0, 64, 0
1, 86144, Note_off_c, 0, 58, 64
1, 86156, Note_off_c, 0, 64, 64
1, 86164, Note_off_c, 0, 67, 64
1, 86208, Control_c, 0, 64, 127
1, 86248, Note_on_c, 0, 68, 73
1, 86280, Note_off_c, 0, 71, 64
1, 86408, Note_on_c, 0, 64, 59
1, 86424, Note_off_c, 0, 68, 64
1, 86424, Note_on_c, 0, 59, 45
1, 86440, Control_c, 0, 64, 0
1, 86504, Control_c, 0, 64, 127
1, 86664, Note_off_c, 0, 59, 64
1, 86712, Control_c, 0, 64, 0
1, 86720, Note_on_c, 0, 61, 40
1, 86724, Note_on_c, 0, 58, 45
1, 86728, Note_on_c, 0, 67, 67
1, 86744, Note_off_c, 0, 52, 64
1, 86752, Note_off_c, 0, 64, 64
1, 86772, Control_c, 0, 64, 127
1, 87056, Note_on_c, 0, 68, 67
1, 87060, Note_on_c, 0, 40, 64
1, 87064, Note_off_c, 0, 61, 64
1, 87068, Note_off_c, 0, 58, 64
1, 87072, Control_c, 0, 64, 0
1, 87128, Note_off_c, 0, 67, 64
1, 87144, Control_c, 0, 64, 127
1, 87272, Note_off_c, 0, 68, 64
1, 87280, Note_on_c, 0, 76, 58
1, 87360, Note_on_c, 0, 75, 63
1, 87376, Note_on_c, 0, 59, 34
1, 87376, Note_on_c, 0, 68, 39
1, 87380, Note_on_c, 0, 64, 23
1, 87384, Note_off_c, 0, 76, 64
1, 87408, Control_c, 0, 64, 0
1, 87464, Control_c, 0, 64, 127
1, 87492, Note_off_c, 0, 59, 64
1, 87496, Note_off_c, 0, 68, 64
1, 87500, Note_off_c, 0, 64, 64
1, 87508, Note_off_c, 0, 40, 64
1, 87688, Note_on_c, 0, 73, 69
1, 87688, Note_on_c, 0, 67, 33
1, 87688, Note_on_c, 0, 58, 34
1, 87696, Note_on_c, 0, 64, 33
1, 87700, Control_c, 0, 64, 0
1, 87712, Note_off_c, 0, 75, 64
1, 87720, Control_c, 0, 64, 127
1, 88012, Note_on_c, 0, 52, 58
1, 88016, Note_on_c, 0, 71, 62
1, 88032, Note_off_c, 0, 67, 64
1, 88032, Note_off_c, 0, 58, 64
1, 88032, Control_c, 0, 64, 0
1, 88036, Note_off_c, 0, 73, 64
1, 88040, Note_off_c, 0, 64, 64
1, 88108, Control_c, 0, 64, 127
1, 88164, Note_on_c, 0, 68, 64
1, 88220, Note_off_c, 0, 71, 64
1, 88324, Note_on_c, 0, 64, 66
1, 88328, Note_on_c, 0, 59, 44
1, 88352, Control_c, 0, 64, 0
1, 88360, Note_off_c, 0, 68, 64
1, 88424, Control_c, 0, 64, 127
1, 88576, Note_off_c, 0, 59, 64
1, 88636, Note_on_c, 0, 61, 33
1, 88636, Note_on_c, 0, 58, 47
1, 88644, Note_on_c, 0, 67, 67
1, 88656, Note_off_c, 0, 52, 64
1, 88664, Note_off_c, 0, 64, 64
1, 88956, Note_on_c, 0, 40, 69
1, 88968, Note_on_c, 0, 68, 66
1, 88976, Note_off_c, 0, 61, 64
1, 88976, Control_c, 0, 64, 0
1, 88980, Note_off_c, 0, 58, 64
1, 89016, Note_off_c, 0, 67, 64
1, 89032, Control_c, 0, 64, 127
1, 89112, Note_on_c, 0, 69, 59
1, 89140, Note_off_c, 0, 68, 64
1, 89288, Note_on_c, 0, 64, 49
1, 89296, Note_on_c, 0, 70, 65
1, 89300, Note_off_c, 0, 69, 64
1, 89300, Note_on_c, 0, 59, 39
1, 89308, Note_on_c, 0, 56, 48
1, 89312, Note_on_c, 0, 68, 67
1, 89336, Control_c, 0, 64, 0
1, 89440, Note_on_c, 0, 73, 62
1, 89444, Control_c, 0, 64, 127
1, 89492, Note_off_c, 0, 70, 64
1, 89592, Note_on_c, 0, 71, 59
1, 89624, Note_off_c, 0, 73, 64
1, 89712, Note_off_c, 0, 64, 64
1, 89724, Note_off_c, 0, 59, 64
1, 89732, Note_off_c, 0, 56, 64
1, 89732, Note_on_c, 0, 75, 64
1, 89736, Note_off_c, 0, 68, 64
1, 89784, Note_off_c, 0, 71, 64
1, 89788, Note_off_c, 0, 40, 64
1, 89888, Note_on_c, 0, 78, 77
1, 89908, Control_c, 0, 64, 0
1, 89960, Note_off_c, 0, 75, 64
1, 89984, Control_c, 0, 64, 127
1, 90036, Note_on_c, 0, 76, 67
1, 90052, Note_off_c, 0, 78, 64
1, 90084, Note_on_c, 0, 78, 74
1, 90104, Note_off_c, 0, 76, 64
1, 90136, Note_on_c, 0, 76, 69
1, 90156, Note_off_c, 0, 78, 64
1, 90216, Note_on_c, 0, 75, 55
1, 90240, Note_off_c, 0, 76, 64
1, 90352, Note_on_c, 0, 76, 66
1, 90396, Note_off_c, 0, 75, 64
1, 90500, Note_on_c, 0, 78, 62
1, 90552, Note_off_c, 0, 76, 64
1, 90644, Note_on_c, 0, 79, 73
1, 90672, Note_off_c, 0, 78, 64
1, 90784, Control_c, 0, 64, 0
1, 90800, Note_on_c, 0, 36, 67
1, 90808, Note_on_c, 0, 80, 69
1, 90812, Note_on_c, 0, 48, 67
1, 90844, Note_off_c, 0, 79, 64
1, 90872, Control_c, 0, 64, 127
1, 91120, Control_c, 0, 64, 0
1, 91124, Note_on_c, 0, 56, 73
1, 91136, Note_on_c, 0, 63, 71
1, 91136, Note_on_c, 0, 66, 83
1, 91176, Note_off_c, 0, 56, 64
1, 91188, Note_off_c, 0, 63, 64
1, 91188, Note_off_c, 0, 66, 64
1, 91228, Note_off_c, 0, 36, 64
1, 91240, Note_off_c, 0, 48, 64
1, 91308, Note_on_c, 0, 82, 58
1, 91352, Note_off_c, 0, 80, 64
1, 91444, Control_c, 0, 64, 127
1, 91480, Note_on_c, 0, 80, 64
1, 91492, Note_on_c, 0, 66, 77
1, 91492, Note_on_c, 0, 56, 82
1, 91496, Note_on_c, 0, 63, 78
1, 91512, Note_off_c, 0, 82, 64
1, 91632, Note_on_c, 0, 79, 64
1, 91644, Note_off_c, 0, 80, 64
1, 91672, Note_off_c, 0, 66, 64
1, 91672, Note_off_c, 0, 56, 64
1, 91680, Note_off_c, 0, 63, 64
1, 91804, Note_on_c, 0, 80, 71
1, 91812, Note_on_c, 0, 49, 77
1, 91816, Note_on_c, 0, 37, 71
1, 91824, Control_c, 0, 64, 0
1, 91852, Note_off_c, 0, 79, 64
1, 91872, Control_c, 0, 64, 127
1, 91960, Note_on_c, 0, 82, 77
1, 91984, Note_off_c, 0, 80, 64
1, 92064, Control_c, 0, 64, 0
1, 92080, Note_on_c, 0, 53, 67
1, 92084, Note_on_c, 0, 65, 70
1, 92084, Note_on_c, 0, 56, 64
1, 92088, Note_on_c, 0, 61, 59
1, 92092, Note_on_c, 0, 80, 77
1, 92124, Note_off_c, 0, 82, 64
1, 92132, Note_off_c, 0, 53, 64
1, 92136, Note_off_c, 0, 65, 64
1, 92136, Note_off_c, 0, 56, 64
1, 92140, Note_off_c, 0, 61, 64
1, 92248, Note_off_c, 0, 37, 64
1, 92248, Note_off_c, 0, 49, 64
1, 92248, Note_on_c, 0, 79, 69
1, 92264, Note_off_c, 0, 80, 64
1, 92404, Note_on_c, 0, 80, 83
1, 92416, Note_on_c, 0, 61, 78
1, 92424, Note_on_c, 0, 65, 71
1, 92424, Note_on_c, 0, 56, 74
1, 92424, Note_on_c, 0, 53, 69
1, 92444, Control_c, 0, 64, 127
1, 92456, Note_off_c, 0, 79, 64
1, 92540, Note_on_c, 0, 82, 78
1, 92560, Note_off_c, 0, 80, 64
1, 92600, Note_off_c, 0, 61, 64
1, 92608, Note_off_c, 0, 65, 64
1, 92608, Note_off_c, 0, 56, 64
1, 92608, Note_off_c, 0, 53, 64
1, 92672, Control_c, 0, 64, 0
1, 92692, Note_on_c, 0, 32, 60
1, 92696, Note_on_c, 0, 80, 85
1, 92700, Note_on_c, 0, 44, 60
1, 92720, Note_off_c, 0, 82, 64
1, 92780, Control_c, 0, 64, 127
1, 92840, Note_on_c, 0, 79, 71
1, 92852, Note_off_c, 0, 80, 64
1, 92972, Control_c, 0, 64, 0
1, 92988, Note_on_c, 0, 80, 82
1, 93000, Note_on_c, 0, 51, 60
1, 93008, Note_on_c, 0, 56, 73
1, 93008, Note_on_c, 0, 66, 73
1, 93008, Note_on_c, 0, 60, 63
1, 93032, Note_off_c, 0, 79, 64
1, 93052, Note_off_c, 0, 51, 64
1, 93060, Note_off_c, 0, 56, 64
1, 93060, Note_off_c, 0, 66, 64
1, 93060, Note_off_c, 0, 60, 64
1, 93112, Note_on_c, 0, 82, 77
1, 93140, Note_off_c, 0, 80, 64
1, 93148, Note_off_c, 0, 32, 64
1, 93152, Note_off_c, 0, 44, 64
1, 93264, Note_on_c, 0, 80, 69
1, 93268, Note_on_c, 0, 51, 60
1, 93276, Note_on_c, 0, 56, 73
1, 93276, Control_c, 0, 64, 127
1, 93280, Note_on_c, 0, 66, 69
1, 93280, Note_on_c, 0, 60, 63
1, 93292, Note_off_c, 0, 82, 64
1, 93400, Note_on_c, 0, 78, 73
1, 93424, Note_off_c, 0, 80, 64
1, 93452, Note_off_c, 0, 51, 64
1, 93456, Note_off_c, 0, 56, 64
1, 93464, Note_off_c, 0, 66, 64
1, 93464, Note_off_c, 0, 60, 64
1, 93564, Note_on_c, 0, 77, 59
1, 93600, Note_off_c, 0, 78, 64
1, 93616, Control_c, 0, 64, 0
1, 93620, Note_on_c, 0, 78, 73
1, 93632, Note_on_c, 0, 37, 69
1, 93636, Note_on_c, 0, 49, 62
1, 93648, Note_off_c, 0, 77, 64
1, 93648, Control_c, 0, 64, 127
1, 93664, Note_on_c, 0, 77, 71
1, 93692, Note_off_c, 0, 78, 64
1, 93776, Note_off_c, 0, 77, 64
1, 93880, Note_on_c, 0, 76, 66
1, 93928, Control_c, 0, 64, 0
1, 93952, Note_on_c, 0, 65, 48
1, 93952, Note_on_c, 0, 56, 73
1, 93960, Note_on_c, 0, 61, 73
1, 93964, Note_on_c, 0, 53, 66
1, 93972, Note_on_c, 0, 77, 69
1, 93992, Note_off_c, 0, 76, 64
1, 94008, Note_off_c, 0, 65, 64
1, 94008, Note_off_c, 0, 56, 64
1, 94012, Note_off_c, 0, 61, 64
1, 94016, Note_off_c, 0, 53, 64
1, 94064, Note_off_c, 0, 37, 64
1, 94072, Note_off_c, 0, 49, 64
1, 94272, Note_on_c, 0, 61, 64
1, 94272, Note_on_c, 0, 53, 42
1, 94276, Note_on_c, 0, 73, 82
1, 94280, Note_on_c, 0, 56, 50
1, 94284, Note_off_c, 0, 77, 64
1, 94284, Note_on_c, 0, 65, 58
1, 94316, Control_c, 0, 64, 127
1, 94456, Note_off_c, 0, 61, 64
1, 94456, Note_off_c, 0, 53, 64
1, 94464, Note_off_c, 0, 56, 64
1, 94464, Note_off_c, 0, 65, 64
1, 94572, Note_off_c, 0, 73, 64
1, 94592, Note_on_c, 0, 77, 73
1, 94608, Note_on_c, 0, 33, 69
1, 94608, Control_c, 0, 64, 0
1, 94616, Note_on_c, 0, 45, 64
1, 94704, Control_c, 0, 64, 127
1, 94908, Control_c, 0, 64, 0
1, 94940, Note_on_c, 0, 65, 50
1, 94940, Note_on_c, 0, 57, 64
1, 94940, Note_on_c, 0, 53, 56
1, 94940, Note_on_c, 0, 63, 64
1, 94992, Note_off_c, 0, 65, 64
1, 94992, Note_off_c, 0, 57, 64
1, 94992, Note_off_c, 0, 53, 64
1, 94992, Note_off_c, 0, 63, 64
1, 95044, Note_off_c, 0, 33, 64
1, 95056, Note_off_c, 0, 45, 64
1, 95092, Note_on_c, 0, 78, 67
1, 95120, Note_off_c, 0, 77, 64
1, 95244, Note_on_c, 0, 77, 63
1, 95248, Note_on_c, 0, 63, 65
1, 95248, Note_on_c, 0, 57, 47
1, 95252, Note_on_c, 0, 53, 40
1, 95256, Note_on_c, 0, 65, 66
1, 95284, Control_c, 0, 64, 127
1, 95292, Note_off_c, 0, 78, 64
1, 95392, Note_on_c, 0, 76, 69
1, 95416, Note_off_c, 0, 77, 64
1, 95428, Note_off_c, 0, 63, 64
1, 95428, Note_off_c, 0, 57, 64
1, 95436, Note_off_c, 0, 53, 64
1, 95440, Note_off_c, 0, 65, 64
1, 95552, Control_c, 0, 64, 0
1, 95564, Note_on_c, 0, 77, 69
1, 95576, Note_on_c, 0, 46, 78
1, 95584, Note_on_c, 0, 34, 73
1, 95612, Note_off_c, 0, 76, 64
1, 95656, Control_c, 0, 64, 127
1, 95704, Note_on_c, 0, 78, 64
1, 95736, Note_off_c, 0, 77, 64
1, 95864, Control_c, 0, 64, 0
1, 95876, Note_on_c, 0, 77, 69
1, 95876, Note_on_c, 0, 65, 67
1, 95876, Note_on_c, 0, 53, 63
1, 95880, Note_on_c, 0, 58, 63
1, 95884, Note_on_c, 0, 61, 67
1, 95940, Control_c, 0, 64, 127
1, 95960, Note_off_c, 0, 78, 64
1, 96008, Note_off_c, 0, 46, 64
1, 96008, Note_on_c, 0, 76, 62
1, 96016, Note_off_c, 0, 34, 64
1, 96020, Note_off_c, 0, 77, 64
1, 96056, Note_off_c, 0, 65, 64
1, 96056, Note_off_c, 0, 53, 64
1, 96064, Note_off_c, 0, 58, 64
1, 96068, Note_off_c, 0, 61, 64
1, 96168, Control_c, 0, 64, 0
1, 96184, Note_on_c, 0, 77, 69
1, 96192, Note_on_c, 0, 61, 65
1, 96196, Note_on_c, 0, 63, 64
1, 96196, Note_on_c, 0, 51, 67
1, 96204, Note_on_c, 0, 58, 62
1, 96224, Note_off_c, 0, 76, 64
1, 96280, Control_c, 0, 64, 127
1, 96336, Note_on_c, 0, 79, 64
1, 96372, Note_off_c, 0, 77, 64
1, 96376, Note_off_c, 0, 61, 64
1, 96380, Note_off_c, 0, 63, 64
1, 96380, Note_off_c, 0, 51, 64
1, 96384, Note_off_c, 0, 58, 64
1, 96500, Note_on_c, 0, 44, 73
1, 96500, Note_on_c, 0, 82, 63
1, 96516, Control_c, 0, 64, 0
1, 96524, Note_off_c, 0, 79, 64
1, 96588, Control_c, 0, 64, 127
1, 96644, Note_on_c, 0, 80, 65
1, 96668, Note_off_c, 0, 82, 64
1, 96796, Control_c, 0, 64, 0
1, 96800, Note_on_c, 0, 60, 66
1, 96804, Note_on_c, 0, 78, 66
1, 96808, Note_on_c, 0, 56, 32
1, 96808, Note_on_c, 0, 51, 63
1, 96812, Note_on_c, 0, 66, 73
1, 96828, Note_off_c, 0, 80, 64
1, 96856, Note_off_c, 0, 60, 64
1, 96860, Note_off_c, 0, 56, 64
1, 96860, Note_off_c, 0, 51, 64
1, 96864, Note_off_c, 0, 66, 64
1, 96936, Note_off_c, 0, 44, 64
1, 96936, Note_on_c, 0, 70, 73
1, 96948, Control_c, 0, 64, 127
1, 96964, Note_off_c, 0, 78, 64
1, 97096, Note_on_c, 0, 72, 69
1, 97104, Note_on_c, 0, 66, 66
1, 97104, Note_on_c, 0, 51, 60
1, 97108, Note_on_c, 0, 56, 32
1, 97116, Note_on_c, 0, 60, 63
1, 97124, Note_off_c, 0, 70, 64
1, 97244, Note_on_c, 0, 68, 73
1, 97276, Note_off_c, 0, 72, 64
1, 97284, Note_off_c, 0, 66, 64
1, 97288, Note_off_c, 0, 51, 64
1, 97292, Note_off_c, 0, 56, 64
1, 97296, Note_off_c, 0, 60, 64
1, 97392, Control_c, 0, 64, 0
1, 97400, Note_on_c, 0, 75, 64
1, 97408, Note_on_c, 0, 37, 73
1, 97472, Note_off_c, 0, 68, 64
1, 97496, Control_c, 0, 64, 127
1, 97580, Note_off_c, 0, 75, 64
1, 97612, Note_on_c, 0, 77, 63
1, 97680, Control_c, 0, 64, 0
1, 97704, Note_on_c, 0, 61, 59
1, 97704, Note_on_c, 0, 53, 74
1, 97708, Note_on_c, 0, 73, 64
1, 97708, Note_on_c, 0, 65, 58
1, 97712, Note_on_c, 0, 56, 58
1, 97716, Note_off_c, 0, 77, 64
1, 97756, Note_off_c, 0, 61, 64
1, 97756, Note_off_c, 0, 53, 64
1, 97760, Note_off_c, 0, 65, 64
1, 97764, Note_off_c, 0, 56, 64
1, 97776, Control_c, 0, 64, 127
1, 97856, Note_on_c, 0, 77, 63
1, 97896, Note_off_c, 0, 37, 64
1, 97896, Note_off_c, 0, 73, 64
1, 98008, Note_on_c, 0, 61, 67
1, 98012, Note_on_c, 0, 53, 67
1, 98020, Note_on_c, 0, 65, 64
1, 98020, Note_on_c, 0, 56, 65
1, 98032, Note_on_c, 0, 78, 69
1, 98048, Note_off_c, 0, 77, 64
1, 98160, Note_on_c, 0, 79, 66
1, 98176, Note_off_c, 0, 78, 64
1, 98192, Note_off_c, 0, 61, 64
1, 98192, Note_off_c, 0, 53, 64
1, 98204, Note_off_c, 0, 65, 64
1, 98204, Note_off_c, 0, 56, 64
1, 98332, Control_c, 0, 64, 0
1, 98340, Note_on_c, 0, 36, 73
1, 98344, Note_on_c, 0, 80, 73
1, 98348, Note_on_c, 0, 48, 80
1, 98412, Note_off_c, 0, 79, 64
1, 98432, Control_c, 0, 64, 127
1, 98500, Control_c, 0, 64, 0
1, 98652, Note_on_c, 0, 56, 62
1, 98656, Note_on_c, 0, 68, 73
1, 98656, Note_on_c, 0, 63, 66
1, 98660, Note_on_c, 0, 66, 69
1, 98704, Note_off_c, 0, 56, 64
1, 98712, Note_off_c, 0, 63, 64
1, 98712, Note_off_c, 0, 66, 64
1, 98768, Note_off_c, 0, 36, 64
1, 98776, Note_off_c, 0, 48, 64
1, 98792, Note_on_c, 0, 82, 69
1, 98816, Note_off_c, 0, 80, 64
1, 98912, Note_on_c, 0, 80, 78
1, 98920, Note_off_c, 0, 68, 64
1, 98944, Note_off_c, 0, 82, 64
1, 98952, Note_on_c, 0, 82, 80
1, 98980, Note_off_c, 0, 80, 64
1, 98984, Control_c, 0, 64, 0
1, 98996, Note_on_c, 0, 68, 64
1, 99000, Note_on_c, 0, 63, 66
1, 99000, Note_on_c, 0, 56, 64
1, 99000, Note_on_c, 0, 66, 64
1, 99004, Note_on_c, 0, 80, 78
1, 99040, Note_off_c, 0, 82, 64
1, 99052, Control_c, 0, 64, 127
1, 99136, Note_on_c, 0, 79, 73
1, 99156, Note_off_c, 0, 80, 64
1, 99180, Note_off_c, 0, 63, 64
1, 99180, Note_off_c, 0, 56, 64
1, 99184, Note_off_c, 0, 66, 64
1, 99292, Control_c, 0, 64, 0
1, 99300, Note_on_c, 0, 80, 78
1, 99304, Note_on_c, 0, 37, 65
1, 99308, Note_on_c, 0, 49, 73
1, 99332, Note_off_c, 0, 79, 64
1, 99376, Control_c, 0, 64, 127
1, 99444, Note_on_c, 0, 82, 83
1, 99488, Note_off_c, 0, 80, 64
1, 99508, Note_off_c, 0, 82, 64
1, 99508, Note_on_c, 0, 80, 77
1, 99528, Note_off_c, 0, 68, 64
1, 99564, Note_on_c, 0, 82, 83
1, 99600, Note_on_c, 0, 65, 64
1, 99600, Note_on_c, 0, 61, 64
1, 99600, Note_on_c, 0, 53, 58
1, 99604, Note_off_c, 0, 80, 64
1, 99604, Note_on_c, 0, 68, 73
1, 99608, Note_on_c, 0, 80, 74
1, 99608, Note_on_c, 0, 56, 49
1, 99632, Control_c, 0, 64, 0
1, 99640, Note_off_c, 0, 82, 64
1, 99652, Note_off_c, 0, 65, 64
1, 99652, Note_off_c, 0, 61, 64
1, 99652, Note_off_c, 0, 53, 64
1, 99660, Note_off_c, 0, 56, 64
1, 99688, Control_c, 0, 64, 127
1, 99728, Note_off_c, 0, 37, 64
1, 99736, Note_off_c, 0, 49, 64
1, 99744, Note_on_c, 0, 79, 69
1, 99768, Note_off_c, 0, 80, 64
1, 99868, Note_off_c, 0, 68, 64
1, 99888, Note_on_c, 0, 80, 87
1, 99892, Note_on_c, 0, 68, 73
1, 99896, Control_c, 0, 64, 0
1, 99908, Note_on_c, 0, 65, 62
1, 99912, Note_on_c, 0, 61, 62
1, 99912, Note_on_c, 0, 56, 50
1, 99912, Note_on_c, 0, 53, 33
1, 99932, Note_off_c, 0, 79, 64
1, 99960, Control_c, 0, 64, 127
1, 100040, Note_on_c, 0, 82, 82
1, 100076, Note_off_c, 0, 80, 64
1, 100088, Note_off_c, 0, 65, 64
1, 100092, Note_off_c, 0, 61, 64
1, 100096, Note_off_c, 0, 56, 64
1, 100096, Note_off_c, 0, 53, 64
1, 100104, Note_on_c, 0, 80, 78
1, 100124, Note_off_c, 0, 82, 64
1, 100160, Note_on_c, 0, 82, 80
1, 100188, Note_off_c, 0, 80, 64
1, 100196, Note_on_c, 0, 80, 77
1, 100200, Note_on_c, 0, 32, 67
1, 100204, Note_on_c, 0, 44, 69
1, 100224, Control_c, 0, 64, 0
1, 100236, Note_off_c, 0, 82, 64
1, 100288, Control_c, 0, 64, 127
1, 100352, Note_on_c, 0, 79, 70
1, 100360, Note_off_c, 0, 80, 64
1, 100448, Note_off_c, 0, 68, 64
1, 100492, Control_c, 0, 64, 0
1, 100500, Note_on_c, 0, 51, 50
1, 100504, Note_on_c, 0, 80, 83
1, 100508, Note_on_c, 0, 68, 73
1, 100508, Note_on_c, 0, 66, 39
1, 100508, Note_on_c, 0, 56, 73
1, 100512, Note_on_c, 0, 60, 64
1, 100552, Note_off_c, 0, 79, 64
1, 100552, Note_off_c, 0, 51, 64
1, 100560, Note_off_c, 0, 66, 64
1, 100560, Note_off_c, 0, 56, 64
1, 100564, Note_off_c, 0, 60, 64
1, 100564, Control_c, 0, 64, 127
1, 100632, Note_on_c, 0, 82, 80
1, 100640, Note_off_c, 0, 32, 64
1, 100644, Note_off_c, 0, 44, 64
1, 100648, Note_off_c, 0, 80, 64
1, 100688, Note_on_c, 0, 80, 80
1, 100720, Note_off_c, 0, 82, 64
1, 100744, Note_on_c, 0, 82, 80
1, 100764, Note_off_c, 0, 80, 64
1, 100768, Note_off_c, 0, 68, 64
1, 100776, Note_on_c, 0, 56, 73
1, 100784, Note_on_c, 0, 66, 64
1, 100784, Note_on_c, 0, 60, 57
1, 100784, Note_on_c, 0, 51, 39
1, 100784, Control_c, 0, 64, 0
1, 100788, Note_on_c, 0, 68, 73
1, 100792, Note_on_c, 0, 80, 74
1, 100816, Note_off_c, 0, 82, 64
1, 100848, Control_c, 0, 64, 127
1, 100944, Note_on_c, 0, 78, 73
1, 100960, Note_off_c, 0, 56, 64
1, 100960, Note_off_c, 0, 80, 64
1, 100964, Note_off_c, 0, 66, 64
1, 100964, Note_off_c, 0, 60, 64
1, 100964, Note_off_c, 0, 51, 64
1, 101104, Note_on_c, 0, 77, 73
1, 101108, Control_c, 0, 64, 0
1, 101120, Note_on_c, 0, 37, 69
1, 101120, Note_on_c, 0, 49, 82
1, 101128, Note_off_c, 0, 78, 64
1, 101192, Control_c, 0, 64, 127
1, 101344, Note_off_c, 0, 68, 64
1, 101360, Note_on_c, 0, 76, 69
1, 101396, Note_off_c, 0, 77, 64
1, 101412, Control_c, 0, 64, 0
1, 101416, Note_on_c, 0, 61, 64
1, 101424, Note_on_c, 0, 65, 69
1, 101424, Note_on_c, 0, 56, 59
1, 101424, Note_on_c, 0, 53, 62
1, 101428, Note_on_c, 0, 68, 73
1, 101436, Note_on_c, 0, 77, 74
1, 101448, Note_off_c, 0, 76, 64
1, 101468, Note_off_c, 0, 61, 64
1, 101476, Note_off_c, 0, 65, 64
1, 101476, Note_off_c, 0, 56, 64
1, 101476, Note_off_c, 0, 53, 64
1, 101552, Note_off_c, 0, 37, 64
1, 101552, Note_off_c, 0, 49, 64
1, 101692, Note_off_c, 0, 68, 64
1, 101748, Control_c, 0, 64, 127
1, 101756, Note_on_c, 0, 56, 65
1, 101760, Note_on_c, 0, 73, 79
1, 101760, Note_on_c, 0, 65, 59
1, 101760, Note_on_c, 0, 61, 65
1, 101760, Note_on_c, 0, 68, 73
1, 101760, Note_on_c, 0, 53, 40
1, 101772, Note_off_c, 0, 77, 64
1, 101936, Note_off_c, 0, 56, 64
1, 101940, Note_off_c, 0, 65, 64
1, 101940, Note_off_c, 0, 61, 64
1, 101944, Note_off_c, 0, 53, 64
1, 102096, Note_on_c, 0, 77, 73
1, 102100, Note_off_c, 0, 73, 64
1, 102100, Note_on_c, 0, 29, 79
1, 102108, Note_on_c, 0, 41, 75
1, 102124, Control_c, 0, 64, 0
1, 102196, Control_c, 0, 64, 127
1, 102316, Note_off_c, 0, 68, 64
1, 102416, Control_c, 0, 64, 0
1, 102428, Note_on_c, 0, 69, 73
1, 102428, Note_on_c, 0, 60, 58
1, 102428, Note_on_c, 0, 53, 56
1, 102432, Note_on_c, 0, 65, 59
1, 102436, Note_on_c, 0, 63, 56
1, 102448, Control_c, 0, 64, 127
1, 102480, Note_off_c, 0, 60, 64
1, 102480, Note_off_c, 0, 53, 64
1, 102488, Note_off_c, 0, 65, 64
1, 102488, Note_off_c, 0, 63, 64
1, 102528, Note_off_c, 0, 29, 64
1, 102536, Note_off_c, 0, 41, 64
1, 102596, Note_on_c, 0, 78, 57
1, 102604, Note_off_c, 0, 77, 64
1, 102664, Note_on_c, 0, 77, 65
1, 102672, Note_off_c, 0, 78, 64
1, 102688, Note_off_c, 0, 69, 64
1, 102724, Note_on_c, 0, 78, 80
1, 102748, Note_off_c, 0, 77, 64
1, 102752, Control_c, 0, 64, 0
1, 102784, Note_on_c, 0, 53, 41
1, 102784, Note_on_c, 0, 60, 58
1, 102784, Note_on_c, 0, 63, 63
1, 102784, Note_on_c, 0, 65, 62
1, 102784, Note_on_c, 0, 69, 73
1, 102784, Note_on_c, 0, 77, 77
1, 102808, Control_c, 0, 64, 127
1, 102832, Note_off_c, 0, 78, 64
1, 102936, Note_on_c, 0, 76, 64
1, 102968, Note_off_c, 0, 53, 64
1, 102968, Note_off_c, 0, 60, 64
1, 102968, Note_off_c, 0, 63, 64
1, 102968, Note_off_c, 0, 65, 64
1, 102968, Note_off_c, 0, 77, 64
1, 103100, Note_off_c, 0, 69, 64
1, 103100, Note_on_c, 0, 77, 63
1, 103116, Note_on_c, 0, 34, 77
1, 103136, Note_off_c, 0, 76, 64
1, 103136, Note_on_c, 0, 46, 29
1, 103256, Note_on_c, 0, 89, 87
1, 103256, Note_on_c, 0, 85, 83
1, 103320, Note_off_c, 0, 77, 64
1, 103400, Control_c, 0, 64, 0
1, 103416, Note_on_c, 0, 53, 62
1, 103420, Note_on_c, 0, 65, 58
1, 103420, Note_on_c, 0, 61, 59
1, 103420, Note_on_c, 0, 58, 36
1, 103428, Note_on_c, 0, 87, 88
1, 103428, Note_on_c, 0, 84, 88
1, 103440, Note_off_c, 0, 89, 64
1, 103440, Note_off_c, 0, 85, 64
1, 103456, Control_c, 0, 64, 127
1, 103536, Note_off_c, 0, 34, 64
1, 103552, Note_off_c, 0, 46, 64
1, 103584, Note_on_c, 0, 85, 78
1, 103596, Note_on_c, 0, 82, 87
1, 103600, Note_off_c, 0, 53, 64
1, 103600, Note_off_c, 0, 65, 64
1, 103600, Note_off_c, 0, 61, 64
1, 103600, Note_off_c, 0, 58, 64
1, 103612, Note_off_c, 0, 87, 64
1, 103612, Note_off_c, 0, 84, 64
1, 103772, Note_on_c, 0, 58, 36
1, 103776, Note_on_c, 0, 63, 62
1, 103776, Note_on_c, 0, 54, 62
1, 103784, Note_off_c, 0, 82, 64
1, 103792, Note_on_c, 0, 82, 87
1, 103792, Note_on_c, 0, 78, 80
1, 103816, Note_off_c, 0, 85, 64
1, 103952, Note_off_c, 0, 58, 64
1, 103956, Note_off_c, 0, 63, 64
1, 103960, Note_off_c, 0, 54, 64
1, 103960, Note_off_c, 0, 78, 64
1, 103972, Note_on_c, 0, 70, 86
1, 103980, Note_on_c, 0, 78, 77
1, 104000, Note_off_c, 0, 82, 64
1, 104116, Note_on_c, 0, 68, 69
1, 104124, Note_on_c, 0, 77, 69
1, 104132, Note_on_c, 0, 44, 73
1, 104148, Note_off_c, 0, 70, 64
1, 104148, Note_off_c, 0, 78, 64
1, 104156, Control_c, 0, 64, 0
1, 104216, Control_c, 0, 64, 127
1, 104320, Note_on_c, 0, 75, 56
1, 104320, Note_on_c, 0, 66, 62
1, 104328, Note_off_c, 0, 68, 64
1, 104332, Note_off_c, 0, 77, 64
1, 104380, Note_on_c, 0, 77, 64
1, 104384, Note_off_c, 0, 75, 64
1, 104432, Note_on_c, 0, 75, 73
1, 104452, Note_off_c, 0, 77, 64
1, 104480, Note_on_c, 0, 60, 67
1, 104480, Note_on_c, 0, 56, 47
1, 104480, Note_on_c, 0, 51, 58
1, 104492, Control_c, 0, 64, 0
1, 104496, Note_on_c, 0, 65, 52
1, 104504, Note_on_c, 0, 74, 57
1, 104516, Note_off_c, 0, 66, 64
1, 104524, Note_off_c, 0, 75, 64
1, 104536, Note_off_c, 0, 60, 64
1, 104536, Note_off_c, 0, 56, 64
1, 104536, Note_off_c, 0, 51, 64
1, 104576, Control_c, 0, 64, 127
1, 104584, Note_off_c, 0, 44, 64
1, 104636, Note_on_c, 0, 66, 56
1, 104636, Note_on_c, 0, 75, 57
1, 104648, Note_off_c, 0, 65, 64
1, 104660, Note_off_c, 0, 74, 64
1, 104784, Control_c, 0, 64, 0
1, 104796, Note_on_c, 0, 70, 69
1, 104796, Note_on_c, 0, 60, 63
1, 104796, Note_on_c, 0, 51, 55
1, 104800, Note_on_c, 0, 56, 62
1, 104800, Note_on_c, 0, 78, 65
1, 104812, Note_off_c, 0, 66, 64
1, 104816, Note_off_c, 0, 75, 64
1, 104868, Control_c, 0, 64, 127
1, 104932, Note_off_c, 0, 70, 64
1, 104936, Note_off_c, 0, 78, 64
1, 104976, Note_off_c, 0, 60, 64
1, 104976, Note_off_c, 0, 51, 64
1, 104980, Note_off_c, 0, 56, 64
1, 105020, Note_on_c, 0, 72, 69
1, 105024, Note_on_c, 0, 63, 36
1, 105096, Control_c, 0, 64, 0
1, 105108, Note_on_c, 0, 37, 90
1, 105128, Note_on_c, 0, 75, 64
1, 105136, Note_on_c, 0, 66, 47
1, 105140, Note_off_c, 0, 72, 64
1, 105144, Note_off_c, 0, 63, 64
1, 105192, Control_c, 0, 64, 127
1, 105264, Note_on_c, 0, 73, 74
1, 105272, Note_off_c, 0, 75, 64
1, 105272, Note_on_c, 0, 65, 55
1, 105280, Note_off_c, 0, 66, 64
1, 105316, Note_on_c, 0, 75, 74
1, 105336, Note_off_c, 0, 73, 64
1, 105368, Note_on_c, 0, 73, 70
1, 105396, Note_on_c, 0, 61, 65
1, 105396, Note_on_c, 0, 56, 56
1, 105400, Note_off_c, 0, 75, 64
1, 105404, Note_on_c, 0, 68, 63
1, 105416, Note_on_c, 0, 72, 69
1, 105424, Control_c, 0, 64, 0
1, 105448, Note_off_c, 0, 61, 64
1, 105448, Note_off_c, 0, 56, 64
1, 105452, Note_off_c, 0, 73, 64
1, 105456, Note_off_c, 0, 68, 64
1, 105520, Control_c, 0, 64, 127
1, 105548, Note_off_c, 0, 65, 64
1, 105552, Note_off_c, 0, 37, 64
1, 105596, Note_off_c, 0, 72, 64
1, 105632, Note_on_c, 0, 73, 70
1, 105724, Note_on_c, 0, 56, 62
1, 105728, Note_on_c, 0, 77, 73
1, 105728, Note_on_c, 0, 65, 63
1, 105728, Note_on_c, 0, 68, 63
1, 105728, Note_on_c, 0, 61, 64
1, 105736, Control_c, 0, 64, 0
1, 105752, Note_off_c, 0, 73, 64
1, 105788, Control_c, 0, 64, 127
1, 105904, Note_off_c, 0, 56, 64
1, 105904, Note_off_c, 0, 77, 64
1, 105912, Note_off_c, 0, 68, 64
1, 105912, Note_off_c, 0, 61, 64
1, 105940, Note_on_c, 0, 70, 69
1, 106016, Note_on_c, 0, 44, 67
1, 106028, Note_on_c, 0, 68, 71
1, 106032, Control_c, 0, 64, 0
1, 106048, Note_off_c, 0, 70, 64
1, 106108, Control_c, 0, 64, 127
1, 106216, Control_c, 0, 64, 0
1, 106244, Note_off_c, 0, 68, 64
1, 106252, Note_on_c, 0, 72, 63
1, 106256, Note_off_c, 0, 65, 64
1, 106312, Note_on_c, 0, 56, 60
1, 106312, Note_on_c, 0, 66, 73
1, 106312, Note_on_c, 0, 63, 73
1, 106312, Note_on_c, 0, 60, 60
1, 106312, Note_on_c, 0, 51, 64
1, 106316, Note_on_c, 0, 70, 73
1, 106324, Control_c, 0, 64, 0
1, 106344, Note_off_c, 0, 72, 64
1, 106364, Note_off_c, 0, 56, 64
1, 106364, Note_off_c, 0, 66, 64
1, 106364, Note_off_c, 0, 63, 64
1, 106364, Note_off_c, 0, 60, 64
1, 106364, Note_off_c, 0, 51, 64
1, 106428, Control_c, 0, 64, 127
1, 106456, Note_off_c, 0, 44, 64
1, 106528, Note_on_c, 0, 68, 49
1, 106552, Note_off_c, 0, 70, 64
1, 106624, Control_c, 0, 64, 0
1, 106644, Note_on_c, 0, 66, 64
1, 106644, Note_on_c, 0, 63, 59
1, 106644, Note_on_c, 0, 60, 57
1, 106644, Note_on_c, 0, 56, 59
1, 106648, Note_on_c, 0, 72, 62
1, 106652, Note_on_c, 0, 51, 49
1, 106668, Note_off_c, 0, 68, 64
1, 106716, Control_c, 0, 64, 127
1, 106828, Note_off_c, 0, 66, 64
1, 106828, Note_off_c, 0, 63, 64
1, 106828, Note_off_c, 0, 60, 64
1, 106828, Note_off_c, 0, 56, 64
1, 106832, Note_off_c, 0, 51, 64
1, 106848, Note_on_c, 0, 70, 54
1, 106872, Note_off_c, 0, 72, 64
1, 106908, Note_on_c, 0, 49, 69
1, 106924, Control_c, 0, 64, 0
1, 106948, Note_on_c, 0, 68, 58
1, 106976, Note_off_c, 0, 70, 64
1, 107008, Control_c, 0, 64, 127
1, 107128, Note_off_c, 0, 68, 64
1, 107176, Note_on_c, 0, 72, 66
1, 107236, Control_c, 0, 64, 0
1, 107240, Note_on_c, 0, 65, 40
1, 107240, Note_on_c, 0, 61, 43
1, 107240, Note_on_c, 0, 53, 66
1, 107244, Note_on_c, 0, 70, 73
1, 107244, Note_on_c, 0, 56, 63
1, 107276, Note_off_c, 0, 72, 64
1, 107320, Note_off_c, 0, 65, 64
1, 107320, Note_off_c, 0, 61, 64
1, 107320, Note_off_c, 0, 53, 64
1, 107324, Note_off_c, 0, 56, 64
1, 107328, Control_c, 0, 64, 127
1, 107360, Note_off_c, 0, 49, 64
1, 107456, Note_on_c, 0, 68, 63
1, 107468, Note_off_c, 0, 70, 64
1, 107528, Note_on_c, 0, 53, 58
1, 107528, Note_on_c, 0, 65, 59
1, 107528, Note_on_c, 0, 61, 32
1, 107532, Note_on_c, 0, 56, 64
1, 107544, Note_on_c, 0, 72, 69
1, 107548, Control_c, 0, 64, 0
1, 107568, Note_off_c, 0, 68, 64
1, 107616, Control_c, 0, 64, 127
1, 107708, Note_off_c, 0, 53, 64
1, 107712, Note_off_c, 0, 65, 64
1, 107712, Note_off_c, 0, 61, 64
1, 107716, Note_off_c, 0, 56, 64
1, 107776, Note_on_c, 0, 70, 55
1, 107796, Note_off_c, 0, 72, 64
1, 107816, Note_on_c, 0, 44, 66
1, 107832, Note_on_c, 0, 68, 69
1, 107844, Control_c, 0, 64, 0
1, 107856, Note_off_c, 0, 70, 64
1, 107888, Control_c, 0, 64, 127
1, 107900, Note_off_c, 0, 68, 64
1, 107964, Note_on_c, 0, 75, 63
1, 108008, Note_on_c, 0, 77, 63
1, 108032, Note_off_c, 0, 75, 64
1, 108052, Note_on_c, 0, 75, 59
1, 108096, Note_off_c, 0, 77, 64
1, 108104, Note_on_c, 0, 56, 63
1, 108108, Note_on_c, 0, 74, 67
1, 108112, Note_on_c, 0, 66, 25
1, 108112, Note_on_c, 0, 51, 62
1, 108112, Note_on_c, 0, 60, 59
1, 108136, Note_off_c, 0, 75, 64
1, 108144, Control_c, 0, 64, 0
1, 108156, Note_off_c, 0, 56, 64
1, 108164, Note_off_c, 0, 51, 64
1, 108168, Note_off_c, 0, 60, 64
1, 108220, Control_c, 0, 64, 127
1, 108264, Note_off_c, 0, 44, 64
1, 108316, Note_on_c, 0, 75, 64
1, 108336, Note_off_c, 0, 74, 64
1, 108344, Note_off_c, 0, 66, 64
1, 108396, Note_on_c, 0, 78, 74
1, 108396, Control_c, 0, 64, 0
1, 108400, Note_on_c, 0, 66, 28
1, 108400, Control_c, 0, 64, 127
1, 108408, Note_on_c, 0, 56, 69
1, 108412, Note_on_c, 0, 60, 71
1, 108416, Note_on_c, 0, 51, 64
1, 108428, Note_off_c, 0, 75, 64
1, 108472, Control_c, 0, 64, 127
1, 108592, Note_off_c, 0, 56, 64
1, 108596, Note_off_c, 0, 60, 64
1, 108600, Note_off_c, 0, 51, 64
1, 108612, Note_on_c, 0, 72, 64
1, 108620, Note_off_c, 0, 78, 64
1, 108632, Note_off_c, 0, 66, 64
1, 108668, Note_on_c, 0, 37, 95
1, 108676, Control_c, 0, 64, 0
1, 108696, Note_on_c, 0, 75, 69
1, 108712, Note_off_c, 0, 72, 64
1, 108776, Control_c, 0, 64, 127
1, 108832, Note_on_c, 0, 73, 74
1, 108872, Note_off_c, 0, 75, 64
1, 108880, Note_on_c, 0, 75, 74
1, 108900, Note_off_c, 0, 73, 64
1, 108936, Note_on_c, 0, 73, 70
1, 108960, Note_on_c, 0, 68, 56
1, 108960, Note_on_c, 0, 65, 57
1, 108960, Note_on_c, 0, 61, 59
1, 108960, Note_on_c, 0, 56, 41
1, 108968, Note_off_c, 0, 75, 64
1, 108968, Note_on_c, 0, 72, 69
1, 108972, Control_c, 0, 64, 0
1, 109000, Note_off_c, 0, 73, 64
1, 109016, Note_off_c, 0, 68, 64
1, 109016, Note_off_c, 0, 61, 64
1, 109016, Note_off_c, 0, 56, 64
1, 109044, Note_off_c, 0, 65, 64
1, 109056, Control_c, 0, 64, 127
1, 109120, Note_off_c, 0, 37, 64
1, 109152, Note_on_c, 0, 73, 64
1, 109168, Note_off_c, 0, 72, 64
1, 109244, Note_on_c, 0, 65, 72
1, 109244, Note_on_c, 0, 61, 63
1, 109244, Control_c, 0, 64, 0
1, 109256, Note_on_c, 0, 77, 69
1, 109256, Note_on_c, 0, 68, 57
1, 109256, Note_on_c, 0, 56, 54
1, 109280, Control_c, 0, 64, 127
1, 109288, Note_off_c, 0, 73, 64
1, 109376, Note_off_c, 0, 77, 64
1, 109420, Note_on_c, 0, 70, 55
1, 109424, Note_off_c, 0, 65, 64
1, 109424, Note_off_c, 0, 61, 64
1, 109440, Note_off_c, 0, 68, 64
1, 109440, Note_off_c, 0, 56, 64
1, 109500, Note_on_c, 0, 68, 73
1, 109508, Note_on_c, 0, 44, 69
1, 109516, Control_c, 0, 64, 0
1, 109528, Note_off_c, 0, 70, 64
1, 109584, Control_c, 0, 64, 127
1, 109704, Note_on_c, 0, 72, 69
1, 109744, Note_off_c, 0, 68, 64
1, 109776, Note_on_c, 0, 66, 69
1, 109776, Note_on_c, 0, 63, 63
1, 109776, Note_on_c, 0, 60, 59
1, 109776, Note_on_c, 0, 70, 69
1, 109780, Note_on_c, 0, 56, 59
1, 109780, Note_on_c, 0, 51, 55
1, 109780, Control_c, 0, 64, 0
1, 109824, Note_off_c, 0, 72, 64
1, 109848, Note_off_c, 0, 63, 64
1, 109848, Note_off_c, 0, 60, 64
1, 109856, Note_off_c, 0, 56, 64
1, 109856, Note_off_c, 0, 51, 64
1, 109856, Control_c, 0, 64, 127
1, 109924, Note_off_c, 0, 66, 64
1, 109960, Note_off_c, 0, 44, 64
1, 109996, Note_on_c, 0, 68, 71
1, 110024, Note_off_c, 0, 70, 64
1, 110080, Note_on_c, 0, 72, 69
1, 110080, Note_on_c, 0, 66, 69
1, 110080, Note_on_c, 0, 63, 55
1, 110080, Note_on_c, 0, 60, 63
1, 110080, Note_on_c, 0, 56, 59
1, 110080, Note_on_c, 0, 51, 58
1, 110096, Control_c, 0, 64, 0
1, 110112, Note_off_c, 0, 68, 64
1, 110128, Control_c, 0, 64, 127
1, 110184, Control_c, 0, 64, 127
1, 110192, Control_c, 0, 64, 0
1, 110264, Note_off_c, 0, 66, 64
1, 110264, Note_off_c, 0, 63, 64
1, 110264, Note_off_c, 0, 60, 64
1, 110264, Note_off_c, 0, 56, 64
1, 110264, Note_off_c, 0, 51, 64
1, 110320, Note_on_c, 0, 70, 62
1, 110336, Note_off_c, 0, 72, 64
1, 110368, Note_on_c, 0, 44, 69
1, 110380, Note_on_c, 0, 68, 73
1, 110400, Control_c, 0, 64, 0
1, 110408, Note_off_c, 0, 70, 64
1, 110456, Control_c, 0, 64, 127
1, 110548, Note_on_c, 0, 72, 69
1, 110588, Note_off_c, 0, 68, 64
1, 110636, Note_on_c, 0, 65, 63
1, 110636, Note_on_c, 0, 61, 56
1, 110636, Note_on_c, 0, 56, 56
1, 110636, Note_on_c, 0, 53, 64
1, 110640, Note_on_c, 0, 70, 69
1, 110660, Note_off_c, 0, 72, 64
1, 110664, Control_c, 0, 64, 0
1, 110700, Control_c, 0, 64, 127
1, 110712, Note_off_c, 0, 65, 64
1, 110712, Note_off_c, 0, 61, 64
1, 110712, Note_off_c, 0, 56, 64
1, 110712, Note_off_c, 0, 53, 64
1, 110804, Note_on_c, 0, 68, 55
1, 110812, Note_off_c, 0, 44, 64
1, 110836, Note_off_c, 0, 70, 64
1, 110892, Note_on_c, 0, 65, 63
1, 110892, Note_on_c, 0, 61, 56
1, 110896, Note_on_c, 0, 56, 56
1, 110896, Note_on_c, 0, 53, 63
1, 110900, Note_on_c, 0, 72, 69
1, 110916, Control_c, 0, 64, 0
1, 110924, Control_c, 0, 64, 127
1, 110936, Note_off_c, 0, 68, 64
1, 110988, Control_c, 0, 64, 127
1, 111064, Note_on_c, 0, 73, 69
1, 111072, Note_off_c, 0, 65, 64
1, 111072, Note_off_c, 0, 61, 64
1, 111076, Control_c, 0, 64, 0
1, 111080, Note_off_c, 0, 56, 64
1, 111080, Note_off_c, 0, 53, 64
1, 111096, Note_off_c, 0, 72, 64
1, 111160, Note_on_c, 0, 44, 67
1, 111160, Note_on_c, 0, 32, 67
1, 111172, Note_off_c, 0, 73, 64
1, 111176, Control_c, 0, 64, 0
1, 111232, Control_c, 0, 64, 127
1, 111360, Note_on_c, 0, 73, 65
1, 111384, Control_c, 0, 64, 0
1, 111424, Control_c, 0, 64, 0
1, 111436, Note_on_c, 0, 67, 25
1, 111436, Note_on_c, 0, 64, 73
1, 111436, Note_on_c, 0, 61, 67
1, 111436, Note_on_c, 0, 56, 62
1, 111440, Note_on_c, 0, 72, 66
1, 111496, Note_off_c, 0, 73, 64
1, 111512, Note_off_c, 0, 67, 64
1, 111512, Note_off_c, 0, 64, 64
1, 111512, Note_off_c, 0, 61, 64
1, 111512, Note_off_c, 0, 56, 64
1, 111512, Control_c, 0, 64, 127
1, 111608, Note_on_c, 0, 70, 62
1, 111628, Note_off_c, 0, 44, 64
1, 111628, Note_off_c, 0, 32, 64
1, 111640, Note_off_c, 0, 72, 64
1, 111688, Note_on_c, 0, 56, 56
1, 111692, Note_on_c, 0, 67, 25
1, 111692, Note_on_c, 0, 64, 55
1, 111692, Note_on_c, 0, 61, 62
1, 111700, Note_on_c, 0, 73, 78
1, 111728, Control_c, 0, 64, 0
1, 111732, Note_off_c, 0, 70, 64
1, 111732, Control_c, 0, 64, 127
1, 111752, Control_c, 0, 64, 127
1, 111856, Note_on_c, 0, 72, 64
1, 111868, Note_off_c, 0, 56, 64
1, 111872, Note_off_c, 0, 67, 64
1, 111872, Note_off_c, 0, 64, 64
1, 111872, Note_off_c, 0, 61, 64
1, 111904, Note_off_c, 0, 73, 64
1, 111952, Control_c, 0, 64, 0
1, 111960, Note_on_c, 0, 44, 92
1, 111964, Note_on_c, 0, 56, 64
1, 111968, Note_on_c, 0, 70, 85
1, 112008, Note_off_c, 0, 72, 64
1, 112036, Control_c, 0, 64, 127
1, 112112, Note_on_c, 0, 76, 73
1, 112160, Note_off_c, 0, 70, 64
1, 112180, Note_off_c, 0, 56, 64
1, 112208, Note_on_c, 0, 75, 73
1, 112208, Note_on_c, 0, 70, 67
1, 112208, Note_on_c, 0, 67, 25
1, 112212, Note_on_c, 0, 61, 66
1, 112212, Note_on_c, 0, 56, 58
1, 112224, Control_c, 0, 64, 0
1, 112264, Note_off_c, 0, 76, 64
1, 112264, Control_c, 0, 64, 127
1, 112284, Note_off_c, 0, 70, 64
1, 112284, Note_off_c, 0, 67, 64
1, 112288, Note_off_c, 0, 61, 64
1, 112288, Note_off_c, 0, 56, 64
1, 112308, Control_c, 0, 64, 127
1, 112376, Note_on_c, 0, 73, 73
1, 112396, Note_off_c, 0, 75, 64
1, 112424, Note_off_c, 0, 44, 64
1, 112476, Note_on_c, 0, 76, 73
1, 112476, Note_on_c, 0, 67, 73
1, 112480, Note_on_c, 0, 70, 70
1, 112480, Note_on_c, 0, 56, 65
1, 112484, Note_on_c, 0, 61, 62
1, 112500, Note_off_c, 0, 73, 64
1, 112504, Control_c, 0, 64, 0
1, 112552, Control_c, 0, 64, 127
1, 112732, Control_c, 0, 64, 0
1, 112744, Note_on_c, 0, 44, 74
1, 112748, Note_on_c, 0, 32, 74
1, 112816, Control_c, 0, 64, 127
1, 112828, Note_off_c, 0, 76, 64
1, 112900, Note_off_c, 0, 67, 64
1, 112904, Note_off_c, 0, 70, 64
1, 112904, Note_off_c, 0, 56, 64
1, 112908, Note_off_c, 0, 61, 64
1, 112924, Note_on_c, 0, 73, 59
1, 112996, Note_on_c, 0, 56, 59
1, 113000, Note_on_c, 0, 72, 67
1, 113004, Note_on_c, 0, 67, 66
1, 113004, Note_on_c, 0, 64, 66
1, 113004, Note_on_c, 0, 61, 69
1, 113004, Control_c, 0, 64, 0
1, 113064, Note_off_c, 0, 73, 64
1, 113072, Note_off_c, 0, 56, 64
1, 113080, Note_off_c, 0, 67, 64
1, 113080, Note_off_c, 0, 64, 64
1, 113080, Note_off_c, 0, 61, 64
1, 113096, Control_c, 0, 64, 127
1, 113176, Note_on_c, 0, 70, 69
1, 113212, Note_off_c, 0, 44, 64
1, 113216, Note_off_c, 0, 32, 64
1, 113216, Note_off_c, 0, 72, 64
1, 113280, Note_on_c, 0, 61, 69
1, 113284, Note_on_c, 0, 73, 80
1, 113284, Note_on_c, 0, 67, 74
1, 113284, Note_on_c, 0, 64, 57
1, 113284, Note_on_c, 0, 56, 63
1, 113284, Control_c, 0, 64, 0
1, 113304, Note_off_c, 0, 70, 64
1, 113336, Control_c, 0, 64, 127
1, 113456, Note_on_c, 0, 72, 66
1, 113460, Note_off_c, 0, 61, 64
1, 113464, Note_off_c, 0, 67, 64
1, 113464, Note_off_c, 0, 64, 64
1, 113464, Note_off_c, 0, 56, 64
1, 113512, Note_off_c, 0, 73, 64
1, 113544, Note_on_c, 0, 70, 86
1, 113548, Note_on_c, 0, 56, 74
1, 113548, Control_c, 0, 64, 0
1, 113552, Note_on_c, 0, 44, 73
1, 113592, Note_off_c, 0, 72, 64
1, 113596, Control_c, 0, 64, 127
1, 113632, Control_c, 0, 64, 0
1, 113732, Note_on_c, 0, 76, 64
1, 113760, Note_off_c, 0, 70, 64
1, 113800, Note_off_c, 0, 56, 64
1, 113804, Control_c, 0, 64, 0
1, 113816, Note_on_c, 0, 70, 66
1, 113816, Note_on_c, 0, 67, 66
1, 113816, Note_on_c, 0, 61, 69
1, 113816, Note_on_c, 0, 75, 74
1, 113828, Note_on_c, 0, 56, 58
1, 113872, Control_c, 0, 64, 127
1, 113892, Note_off_c, 0, 70, 64
1, 113892, Note_off_c, 0, 67, 64
1, 113892, Note_off_c, 0, 61, 64
1, 113896, Note_off_c, 0, 76, 64
1, 113904, Note_off_c, 0, 56, 64
1, 113912, Control_c, 0, 64, 0
1, 114020, Note_off_c, 0, 44, 64
1, 114028, Note_on_c, 0, 73, 78
1, 114060, Note_off_c, 0, 75, 64
1, 114096, Note_on_c, 0, 67, 67
1, 114100, Note_on_c, 0, 78, 83
1, 114104, Note_on_c, 0, 70, 69
1, 114104, Note_on_c, 0, 61, 69
1, 114104, Note_on_c, 0, 56, 59
1, 114144, Note_off_c, 0, 73, 64
1, 114276, Note_on_c, 0, 76, 69
1, 114280, Note_off_c, 0, 67, 64
1, 114288, Note_off_c, 0, 70, 64
1, 114288, Note_off_c, 0, 61, 64
1, 114288, Note_off_c, 0, 56, 64
1, 114296, Note_off_c, 0, 78, 64
1, 114364, Control_c, 0, 64, 0
1, 114392, Note_on_c, 0, 75, 67
1, 114392, Note_on_c, 0, 44, 79
1, 114400, Note_on_c, 0, 32, 97
1, 114428, Note_off_c, 0, 76, 64
1, 114436, Control_c, 0, 64, 127
1, 114548, Note_off_c, 0, 75, 64
1, 114576, Note_on_c, 0, 75, 69
1, 114636, Note_on_c, 0, 66, 69
1, 114636, Note_on_c, 0, 63, 67
1, 114640, Note_on_c, 0, 73, 59
1, 114640, Note_on_c, 0, 69, 64
1, 114640, Control_c, 0, 64, 0
1, 114644, Note_on_c, 0, 56, 65
1, 114644, Control_c, 0, 64, 0
1, 114664, Note_off_c, 0, 75, 64
1, 114664, Control_c, 0, 64, 127
1, 114732, Control_c, 0, 64, 127
1, 114796, Note_on_c, 0, 72, 71
1, 114816, Note_off_c, 0, 66, 64
1, 114816, Note_off_c, 0, 63, 64
1, 114824, Note_off_c, 0, 69, 64
1, 114828, Note_off_c, 0, 73, 64
1, 114828, Note_off_c, 0, 56, 64
1, 114832, Note_off_c, 0, 44, 64
1, 114836, Note_off_c, 0, 32, 64
1, 114904, Note_on_c, 0, 66, 56
1, 114904, Note_on_c, 0, 63, 67
1, 114908, Note_on_c, 0, 75, 69
1, 114912, Note_on_c, 0, 69, 64
1, 114916, Note_on_c, 0, 56, 67
1, 114936, Control_c, 0, 64, 0
1, 114944, Note_off_c, 0, 72, 64
1, 114960, Control_c, 0, 64, 127
1, 115052, Note_on_c, 0, 73, 59
1, 115064, Note_off_c, 0, 75, 64
1, 115088, Note_off_c, 0, 66, 64
1, 115088, Note_off_c, 0, 63, 64
1, 115092, Note_off_c, 0, 69, 64
1, 115096, Note_off_c, 0, 56, 64
1, 115176, Note_on_c, 0, 72, 69
1, 115188, Note_on_c, 0, 44, 83
1, 115188, Control_c, 0, 64, 0
1, 115200, Note_on_c, 0, 56, 83
1, 115208, Note_off_c, 0, 73, 64
1, 115248, Control_c, 0, 64, 127
1, 115344, Note_on_c, 0, 78, 64
1, 115380, Note_off_c, 0, 72, 64
1, 115428, Note_on_c, 0, 69, 66
1, 115428, Note_on_c, 0, 63, 57
1, 115428, Note_on_c, 0, 60, 64
1, 115436, Note_on_c, 0, 72, 58
1, 115440, Note_on_c, 0, 76, 80
1, 115440, Note_on_c, 0, 66, 58
1, 115468, Note_off_c, 0, 78, 64
1, 115472, Control_c, 0, 64, 127
1, 115480, Control_c, 0, 64, 0
1, 115512, Control_c, 0, 64, 127
1, 115584, Note_on_c, 0, 75, 64
1, 115612, Note_off_c, 0, 69, 64
1, 115612, Note_off_c, 0, 63, 64
1, 115612, Note_off_c, 0, 60, 64
1, 115612, Note_off_c, 0, 76, 64
1, 115616, Note_off_c, 0, 72, 64
1, 115620, Note_off_c, 0, 44, 64
1, 115620, Note_off_c, 0, 66, 64
1, 115632, Note_off_c, 0, 56, 64
1, 115696, Note_on_c, 0, 78, 82
1, 115696, Note_on_c, 0, 66, 69
1, 115704, Note_on_c, 0, 69, 66
1, 115712, Note_on_c, 0, 63, 69
1, 115712, Note_on_c, 0, 60, 65
1, 115712, Note_on_c, 0, 72, 73
1, 115728, Note_off_c, 0, 75, 64
1, 115748, Control_c, 0, 64, 0
1, 115772, Control_c, 0, 64, 127
1, 115976, Control_c, 0, 64, 0
1, 116000, Note_on_c, 0, 32, 81
1, 116008, Note_on_c, 0, 44, 98
1, 116056, Control_c, 0, 64, 127
1, 116092, Note_off_c, 0, 78, 64
1, 116096, Note_off_c, 0, 66, 64
1, 116104, Note_off_c, 0, 69, 64
1, 116108, Note_off_c, 0, 63, 64
1, 116108, Note_off_c, 0, 60, 64
1, 116112, Note_off_c, 0, 72, 64
1, 116192, Note_on_c, 0, 75, 67
1, 116272, Control_c, 0, 64, 0
1, 116288, Note_on_c, 0, 66, 67
1, 116288, Note_on_c, 0, 73, 73
1, 116288, Note_on_c, 0, 63, 73
1, 116292, Note_on_c, 0, 69, 77
1, 116292, Note_on_c, 0, 60, 70
1, 116292, Note_on_c, 0, 56, 64
1, 116336, Note_off_c, 0, 75, 64
1, 116360, Control_c, 0, 64, 127
1, 116444, Note_off_c, 0, 32, 64
1, 116456, Note_off_c, 0, 44, 64
1, 116456, Note_on_c, 0, 72, 69
1, 116468, Note_off_c, 0, 66, 64
1, 116472, Note_off_c, 0, 63, 64
1, 116476, Note_off_c, 0, 69, 64
1, 116476, Note_off_c, 0, 60, 64
1, 116476, Note_off_c, 0, 56, 64
1, 116484, Note_off_c, 0, 73, 64
1, 116540, Control_c, 0, 64, 0
1, 116576, Note_on_c, 0, 75, 69
1, 116576, Note_on_c, 0, 66, 73
1, 116576, Note_on_c, 0, 63, 71
1, 116580, Note_on_c, 0, 69, 73
1, 116580, Note_on_c, 0, 60, 73
1, 116584, Note_on_c, 0, 56, 73
1, 116596, Note_off_c, 0, 72, 64
1, 116616, Control_c, 0, 64, 127
1, 116748, Note_on_c, 0, 73, 59
1, 116792, Note_off_c, 0, 75, 64
1, 116812, Note_off_c, 0, 63, 64
1, 116812, Note_off_c, 0, 66, 64
1, 116820, Note_off_c, 0, 56, 64
1, 116820, Note_off_c, 0, 60, 64
1, 116820, Note_off_c, 0, 69, 64
1, 116844, Note_on_c, 0, 44, 83
1, 116856, Note_on_c, 0, 56, 83
1, 116856, Control_c, 0, 64, 0
1, 116868, Note_on_c, 0, 72, 56
1, 116888, Note_off_c, 0, 73, 64
1, 116920, Control_c, 0, 64, 127
1, 117016, Note_on_c, 0, 78, 73
1, 117032, Note_off_c, 0, 72, 64
1, 117120, Note_off_c, 0, 56, 64
1, 117132, Note_on_c, 0, 76, 71
1, 117136, Note_on_c, 0, 69, 69
1, 117136, Note_on_c, 0, 63, 69
1, 117136, Note_on_c, 0, 60, 69
1, 117144, Note_on_c, 0, 72, 69
1, 117144, Note_on_c, 0, 56, 59
1, 117172, Note_off_c, 0, 78, 64
1, 117172, Control_c, 0, 64, 0
1, 117236, Control_c, 0, 64, 127
1, 117300, Note_off_c, 0, 44, 64
1, 117320, Note_off_c, 0, 69, 64
1, 117320, Note_off_c, 0, 63, 64
1, 117320, Note_off_c, 0, 60, 64
1, 117328, Note_off_c, 0, 72, 64
1, 117328, Note_off_c, 0, 56, 64
1, 117328, Note_on_c, 0, 75, 69
1, 117344, Note_off_c, 0, 76, 64
1, 117436, Note_on_c, 0, 76, 71
1, 117440, Note_on_c, 0, 72, 69
1, 117440, Note_on_c, 0, 56, 69
1, 117444, Note_on_c, 0, 60, 66
1, 117444, Note_on_c, 0, 69, 69
1, 117444, Note_on_c, 0, 63, 71
1, 117460, Note_off_c, 0, 75, 64
1, 117460, Control_c, 0, 64, 0
1, 117488, Control_c, 0, 64, 127
1, 117620, Note_off_c, 0, 72, 64
1, 117620, Note_off_c, 0, 56, 64
1, 117624, Note_off_c, 0, 60, 64
1, 117628, Note_off_c, 0, 69, 64
1, 117628, Note_off_c, 0, 63, 64
1, 117644, Note_on_c, 0, 78, 66
1, 117684, Note_off_c, 0, 76, 64
1, 117768, Control_c, 0, 64, 0
1, 117776, Note_on_c, 0, 37, 78
1, 117776, Note_on_c, 0, 68, 86
1, 117776, Note_on_c, 0, 49, 92
1, 117784, Note_on_c, 0, 76, 78
1, 117788, Note_on_c, 0, 80, 77
1, 117788, Note_on_c, 0, 73, 67
1, 117824, Note_off_c, 0, 78, 64
1, 117856, Control_c, 0, 64, 127
1, 117936, Note_off_c, 0, 73, 64
1, 117964, Note_off_c, 0, 80, 64
1, 117964, Note_on_c, 0, 85, 72
1, 117964, Note_on_c, 0, 73, 70
1, 117964, Note_on_c, 0, 61, 72
1, 117968, Note_off_c, 0, 49, 64
1, 117976, Note_on_c, 0, 49, 64
1, 118056, Note_off_c, 0, 68, 64
1, 118056, Control_c, 0, 64, 0
1, 118100, Note_off_c, 0, 61, 64
1, 118112, Note_off_c, 0, 49, 64
1, 118120, Control_c, 0, 64, 127
1, 118124, Note_on_c, 0, 59, 88
1, 118124, Note_on_c, 0, 47, 72
1, 118128, Note_on_c, 0, 71, 83
1, 118128, Note_on_c, 0, 83, 85
1, 118136, Note_off_c, 0, 76, 64
1, 118140, Note_off_c, 0, 85, 64
1, 118140, Note_off_c, 0, 73, 64
1, 118416, Note_on_c, 0, 57, 73
1, 118416, Note_on_c, 0, 45, 73
1, 118424, Note_on_c, 0, 69, 73
1, 118428, Note_on_c, 0, 81, 69
1, 118432, Note_off_c, 0, 47, 64
1, 118432, Note_off_c, 0, 59, 64
1, 118432, Note_off_c, 0, 71, 64
1, 118436, Note_off_c, 0, 83, 64
1, 118504, Note_off_c, 0, 37, 64
1, 118636, Control_c, 0, 64, 127
1, 118724, Control_c, 0, 64, 0
1, 118736, Note_on_c, 0, 80, 71
1, 118736, Note_on_c, 0, 76, 69
1, 118736, Note_on_c, 0, 73, 71
1, 118736, Note_on_c, 0, 68, 82
1, 118736, Note_on_c, 0, 56, 74
1, 118736, Note_on_c, 0, 52, 69
1, 118736, Note_on_c, 0, 49, 71
1, 118736, Note_on_c, 0, 44, 77
1, 118764, Note_off_c, 0, 57, 64
1, 118764, Note_off_c, 0, 45, 64
1, 118772, Note_off_c, 0, 69, 64
1, 118776, Note_off_c, 0, 81, 64
1, 118784, Control_c, 0, 64, 127
1, 118912, Note_off_c, 0, 76, 64
1, 118912, Note_off_c, 0, 73, 64
1, 118912, Note_off_c, 0, 52, 64
1, 118912, Note_off_c, 0, 49, 64
1, 118928, Note_on_c, 0, 40, 65
1, 118932, Note_on_c, 0, 52, 74
1, 118940, Note_on_c, 0, 76, 77
1, 118940, Note_on_c, 0, 64, 74
1, 118944, Note_off_c, 0, 80, 64
1, 118944, Note_off_c, 0, 68, 64
1, 118944, Note_off_c, 0, 56, 64
1, 118944, Note_off_c, 0, 44, 64
1, 118988, Control_c, 0, 64, 0
1, 119024, Note_on_c, 0, 73, 74
1, 119036, Note_on_c, 0, 37, 86
1, 119036, Note_on_c, 0, 61, 78
1, 119036, Note_on_c, 0, 49, 87
1, 119040, Note_off_c, 0, 40, 64
1, 119040, Note_off_c, 0, 52, 64
1, 119048, Note_off_c, 0, 76, 64
1, 119048, Note_off_c, 0, 64, 64
1, 119064, Control_c, 0, 64, 127
1, 119324, Control_c, 0, 64, 0
1, 119340, Note_on_c, 0, 74, 66
1, 119340, Note_on_c, 0, 62, 69
1, 119340, Note_on_c, 0, 50, 73
1, 119340, Note_on_c, 0, 38, 69
1, 119356, Control_c, 0, 64, 127
1, 119368, Note_off_c, 0, 73, 64
1, 119376, Note_off_c, 0, 37, 64
1, 119376, Note_off_c, 0, 61, 64
1, 119376, Note_off_c, 0, 49, 64
1, 119460, Control_c, 0, 64, 0
1, 119504, Control_c, 0, 64, 127
1, 119608, Control_c, 0, 64, 0
1, 119616, Note_on_c, 0, 73, 71
1, 119616, Note_on_c, 0, 52, 74
1, 119616, Note_on_c, 0, 49, 69
1, 119616, Note_on_c, 0, 44, 69
1, 119616, Note_on_c, 0, 40, 65
1, 119616, Note_on_c, 0, 76, 71
1, 119616, Note_on_c, 0, 68, 69
1, 119620, Note_on_c, 0, 64, 73
1, 119632, Note_off_c, 0, 74, 64
1, 119632, Note_off_c, 0, 62, 64
1, 119632, Note_off_c, 0, 50, 64
1, 119632, Note_off_c, 0, 38, 64
1, 119652, Control_c, 0, 64, 127
1, 119808, Note_off_c, 0, 76, 64
1, 119808, Note_on_c, 0, 78, 77
1, 119808, Note_on_c, 0, 66, 83
1, 119812, Note_on_c, 0, 42, 82
1, 119812, Note_on_c, 0, 54, 80
1, 119824, Note_off_c, 0, 40, 64
1, 119824, Note_off_c, 0, 44, 64
1, 119824, Note_off_c, 0, 49, 64
1, 119824, Note_off_c, 0, 52, 64
1, 119824, Note_off_c, 0, 68, 64
1, 119824, Note_off_c, 0, 73, 64
1, 119828, Note_off_c, 0, 64, 64
1, 119892, Control_c, 0, 64, 0
1, 119904, Note_on_c, 0, 68, 82
1, 119904, Note_on_c, 0, 80, 80
1, 119908, Note_on_c, 0, 56, 83
1, 119916, Note_off_c, 0, 78, 64
1, 119916, Note_off_c, 0, 66, 64
1, 119916, Note_on_c, 0, 44, 69
1, 119920, Note_off_c, 0, 42, 64
1, 119920, Note_off_c, 0, 54, 64
1, 119936, Control_c, 0, 64, 127
1, 120184, Note_on_c, 0, 57, 67
1, 120192, Note_on_c, 0, 81, 69
1, 120192, Note_on_c, 0, 69, 78
1, 120192, Note_on_c, 0, 45, 66
1, 120212, Note_off_c, 0, 68, 64
1, 120216, Note_off_c, 0, 80, 64
1, 120220, Note_off_c, 0, 56, 64
1, 120224, Note_off_c, 0, 44, 64
1, 120224, Control_c, 0, 64, 0
1, 120272, Control_c, 0, 64, 127
1, 120480, Note_on_c, 0, 76, 70
1, 120480, Note_on_c, 0, 73, 71
1, 120484, Note_on_c, 0, 68, 86
1, 120484, Note_on_c, 0, 56, 71
1, 120484, Note_on_c, 0, 52, 71
1, 120484, Note_on_c, 0, 49, 46
1, 120488, Note_on_c, 0, 80, 74
1, 120488, Note_on_c, 0, 44, 73
1, 120496, Note_off_c, 0, 57, 64
1, 120500, Note_off_c, 0, 81, 64
1, 120500, Note_off_c, 0, 69, 64
1, 120504, Note_off_c, 0, 45, 64
1, 120516, Control_c, 0, 64, 0
1, 120540, Control_c, 0, 64, 127
1, 120632, Note_off_c, 0, 76, 64
1, 120632, Note_off_c, 0, 73, 64
1, 120636, Note_off_c, 0, 52, 64
1, 120636, Note_off_c, 0, 49, 64
1, 120656, Note_on_c, 0, 76, 69
1, 120664, Note_on_c, 0, 64, 80
1, 120664, Note_on_c, 0, 52, 77
1, 120668, Note_off_c, 0, 68, 64
1, 120668, Note_off_c, 0, 56, 64
1, 120668, Note_on_c, 0, 40, 66
1, 120672, Note_off_c, 0, 80, 64
1, 120688, Note_off_c, 0, 44, 64
1, 120740, Control_c, 0, 64, 0
1, 120760, Note_on_c, 0, 73, 65
1, 120764, Note_off_c, 0, 76, 64
1, 120764, Note_on_c, 0, 61, 85
1, 120768, Note_on_c, 0, 49, 82
1, 120768, Note_on_c, 0, 37, 80
1, 120772, Note_off_c, 0, 64, 64
1, 120772, Note_off_c, 0, 52, 64
1, 120776, Note_off_c, 0, 40, 64
1, 120784, Control_c, 0, 64, 127
1, 120912, Control_c, 0, 64, 0
1, 120956, Control_c, 0, 64, 127
1, 121036, Note_on_c, 0, 74, 85
1, 121036, Note_on_c, 0, 62, 73
1, 121040, Note_on_c, 0, 38, 67
1, 121044, Note_off_c, 0, 73, 64
1, 121044, Note_on_c, 0, 50, 71
1, 121048, Note_off_c, 0, 61, 64
1, 121048, Note_off_c, 0, 49, 64
1, 121048, Note_off_c, 0, 37, 64
1, 121288, Control_c, 0, 64, 0
1, 121316, Note_on_c, 0, 40, 64
1, 121324, Note_on_c, 0, 73, 73
1, 121324, Note_on_c, 0, 64, 77
1, 121324, Note_on_c, 0, 52, 73
1, 121328, Note_on_c, 0, 76, 73
1, 121344, Note_off_c, 0, 74, 64
1, 121344, Note_off_c, 0, 38, 64
1, 121348, Note_off_c, 0, 50, 64
1, 121348, Note_off_c, 0, 62, 64
1, 121368, Control_c, 0, 64, 127
1, 121488, Note_off_c, 0, 40, 64
1, 121500, Note_off_c, 0, 52, 64
1, 121500, Note_off_c, 0, 64, 64
1, 121500, Note_off_c, 0, 73, 64
1, 121500, Note_off_c, 0, 76, 64
1, 121508, Note_on_c, 0, 49, 82
1, 121516, Note_on_c, 0, 76, 73
1, 121516, Note_on_c, 0, 61, 89
1, 121520, Note_on_c, 0, 64, 73
1, 121520, Note_on_c, 0, 73, 85
1, 121552, Note_off_c, 0, 73, 64
1, 121556, Note_off_c, 0, 76, 64
1, 121556, Note_off_c, 0, 64, 64
1, 121576, Note_off_c, 0, 49, 64
1, 121580, Note_on_c, 0, 59, 70
1, 121580, Note_on_c, 0, 47, 62
1, 121580, Note_on_c, 0, 64, 73
1, 121592, Note_off_c, 0, 61, 64
1, 121592, Note_on_c, 0, 76, 73
1, 121592, Note_on_c, 0, 73, 80
1, 121600, Control_c, 0, 64, 0
1, 121644, Control_c, 0, 64, 127
1, 121772, Note_off_c, 0, 73, 64
1, 121784, Note_off_c, 0, 64, 64
1, 121796, Note_off_c, 0, 76, 64
1, 121888, Note_on_c, 0, 45, 87
1, 121892, Note_on_c, 0, 76, 73
1, 121896, Note_on_c, 0, 73, 80
1, 121908, Note_on_c, 0, 64, 73
1, 121908, Note_on_c, 0, 57, 83
1, 121916, Note_off_c, 0, 59, 64
1, 121916, Note_off_c, 0, 47, 64
1, 121920, Control_c, 0, 64, 0
1, 121948, Control_c, 0, 64, 127
1, 122040, Note_off_c, 0, 73, 64
1, 122044, Note_off_c, 0, 76, 64
1, 122048, Note_off_c, 0, 64, 64
1, 122188, Note_on_c, 0, 56, 83
1, 122188, Note_on_c, 0, 44, 80
1, 122188, Note_on_c, 0, 73, 85
1, 122188, Note_on_c, 0, 64, 74
1, 122196, Note_on_c, 0, 76, 74
1, 122200, Control_c, 0, 64, 0
1, 122204, Note_off_c, 0, 45, 64
1, 122220, Note_off_c, 0, 57, 64
1, 122224, Control_c, 0, 64, 127
1, 122248, Note_off_c, 0, 64, 64
1, 122260, Note_off_c, 0, 73, 64
1, 122260, Note_off_c, 0, 76, 64
1, 122384, Note_on_c, 0, 73, 82
1, 122384, Note_on_c, 0, 41, 69
1, 122388, Note_on_c, 0, 76, 73
1, 122388, Note_on_c, 0, 64, 73
1, 122392, Note_on_c, 0, 52, 74
1, 122404, Note_off_c, 0, 56, 64
1, 122404, Note_off_c, 0, 44, 64
1, 122420, Note_off_c, 0, 73, 64
1, 122424, Note_off_c, 0, 76, 64
1, 122424, Note_off_c, 0, 64, 64
1, 122440, Control_c, 0, 64, 0
1, 122456, Note_off_c, 0, 41, 64
1, 122456, Note_off_c, 0, 52, 64
1, 122456, Note_on_c, 0, 49, 89
1, 122460, Note_on_c, 0, 76, 73
1, 122460, Note_on_c, 0, 73, 80
1, 122460, Note_on_c, 0, 64, 70
1, 122464, Note_on_c, 0, 37, 85
1, 122500, Control_c, 0, 64, 127
1, 122656, Note_off_c, 0, 76, 64
1, 122664, Note_off_c, 0, 73, 64
1, 122664, Note_off_c, 0, 64, 64
1, 122756, Note_on_c, 0, 73, 78
1, 122760, Note_on_c, 0, 38, 83
1, 122764, Note_on_c, 0, 76, 73
1, 122764, Note_on_c, 0, 64, 73
1, 122764, Note_on_c, 0, 50, 86
1, 122768, Note_off_c, 0, 49, 64
1, 122772, Note_off_c, 0, 37, 64
1, 122792, Control_c, 0, 64, 0
1, 122832, Control_c, 0, 64, 127
1, 122880, Note_off_c, 0, 64, 64
1, 122880, Tempo, 500000
1, 122888, Note_off_c, 0, 73, 64
1, 122896, Note_off_c, 0, 76, 64
1, 123032, Control_c, 0, 64, 0
1, 123044, Note_on_c, 0, 76, 73
1, 123044, Note_on_c, 0, 73, 80
1, 123044, Note_on_c, 0, 64, 74
1, 123048, Note_on_c, 0, 40, 78
1, 123056, Note_on_c, 0, 52, 80
1, 123068, Note_off_c, 0, 38, 64
1, 123076, Note_off_c, 0, 50, 64
1, 123084, Control_c, 0, 64, 127
1, 123148, Note_off_c, 0, 76, 64
1, 123148, Note_off_c, 0, 73, 64
1, 123148, Note_off_c, 0, 64, 64
1, 123232, Note_on_c, 0, 76, 71
1, 123236, Note_on_c, 0, 73, 83
1, 123236, Note_on_c, 0, 64, 73
1, 123236, Note_on_c, 0, 54, 89
1, 123236, Note_on_c, 0, 42, 87
1, 123244, Note_off_c, 0, 40, 64
1, 123252, Note_off_c, 0, 52, 64
1, 123264, Note_off_c, 0, 76, 64
1, 123272, Note_off_c, 0, 73, 64
1, 123280, Note_off_c, 0, 64, 64
1, 123292, Control_c, 0, 64, 0
1, 123300, Note_on_c, 0, 64, 73
1, 123308, Note_on_c, 0, 76, 74
1, 123308, Note_on_c, 0, 73, 83
1, 123324, Note_on_c, 0, 44, 85
1, 123328, Note_off_c, 0, 54, 64
1, 123328, Note_off_c, 0, 42, 64
1, 123328, Note_on_c, 0, 56, 92
1, 123352, Control_c, 0, 64, 127
1, 123496, Note_off_c, 0, 64, 64
1, 123512, Note_off_c, 0, 76, 64
1, 123512, Note_off_c, 0, 73, 64
1, 123620, Note_on_c, 0, 73, 71
1, 123620, Note_on_c, 0, 57, 90
1, 123632, Note_on_c, 0, 76, 69
1, 123632, Note_on_c, 0, 64, 71
1, 123636, Note_off_c, 0, 44, 64
1, 123636, Note_off_c, 0, 56, 64
1, 123636, Note_on_c, 0, 45, 81
1, 123652, Control_c, 0, 64, 0
1, 123696, Control_c, 0, 64, 127
1, 123792, Note_off_c, 0, 73, 64
1, 123796, Note_off_c, 0, 76, 64
1, 123812, Note_off_c, 0, 64, 64
1, 123936, Note_on_c, 0, 76, 71
1, 123936, Note_on_c, 0, 73, 78
1, 123936, Note_on_c, 0, 64, 74
1, 123948, Note_on_c, 0, 44, 87
1, 123952, Note_on_c, 0, 56, 87
1, 123952, Control_c, 0, 64, 0
1, 123960, Note_off_c, 0, 57, 64
1, 123972, Control_c, 0, 64, 127
1, 123976, Note_off_c, 0, 45, 64
1, 124040, Note_off_c, 0, 76, 64
1, 124040, Note_off_c, 0, 73, 64
1, 124040, Note_off_c, 0, 64, 64
1, 124196, Note_on_c, 0, 52, 82
1, 124200, Note_on_c, 0, 76, 69
1, 124200, Note_on_c, 0, 40, 73
1, 124204, Note_on_c, 0, 73, 78
1, 124204, Note_on_c, 0, 64, 74
1, 124208, Note_off_c, 0, 44, 64
1, 124212, Note_off_c, 0, 56, 64
1, 124240, Note_off_c, 0, 73, 64
1, 124240, Note_off_c, 0, 64, 64
1, 124248, Note_off_c, 0, 76, 64
1, 124268, Note_on_c, 0, 37, 92
1, 124272, Note_off_c, 0, 52, 64
1, 124272, Note_on_c, 0, 64, 71
1, 124272, Note_on_c, 0, 49, 92
1, 124280, Note_off_c, 0, 40, 64
1, 124280, Note_on_c, 0, 73, 83
1, 124284, Note_on_c, 0, 76, 74
1, 124300, Control_c, 0, 64, 0
1, 124368, Control_c, 0, 64, 127
1, 124504, Note_off_c, 0, 76, 64
1, 124512, Note_off_c, 0, 73, 64
1, 124528, Note_off_c, 0, 64, 64
1, 124708, Note_on_c, 0, 75, 74
1, 124712, Note_on_c, 0, 61, 77
1, 124720, Note_on_c, 0, 67, 73
1, 124724, Note_on_c, 0, 51, 83
1, 124724, Note_on_c, 0, 39, 71
1, 124736, Note_off_c, 0, 37, 64
1, 124740, Note_off_c, 0, 49, 64
1, 124772, Control_c, 0, 64, 0
1, 124840, Control_c, 0, 64, 127
1, 125084, Note_off_c, 0, 51, 64
1, 125084, Note_off_c, 0, 39, 64
1, 125116, Note_off_c, 0, 75, 64
1, 125140, Note_off_c, 0, 61, 64
1, 125140, Note_off_c, 0, 67, 64
1, 125200, Note_on_c, 0, 32, 50
1, 125204, Note_on_c, 0, 54, 54
1, 125208, Note_on_c, 0, 44, 50
1, 125208, Note_on_c, 0, 64, 69
1, 125256, Control_c, 0, 64, 0
1, 125376, Control_c, 0, 64, 127
1, 125464, Note_on_c, 0, 63, 71
1, 125488, Note_off_c, 0, 64, 64
1, 125544, Note_on_c, 0, 66, 83
1, 125568, Note_off_c, 0, 63, 64
1, 125608, Note_off_c, 0, 32, 64
1, 125616, Note_off_c, 0, 44, 64
1, 125648, Note_off_c, 0, 54, 64
1, 125856, Note_on_c, 0, 32, 33
1, 125860, Note_on_c, 0, 54, 73
1, 125860, Note_on_c, 0, 44, 73
1, 125892, Control_c, 0, 64, 0
1, 125968, Control_c, 0, 64, 127
1, 126040, Note_on_c, 0, 60, 77
1, 126056, Note_off_c, 0, 66, 64
1, 126120, Note_off_c, 0, 44, 64
1, 126184, Note_off_c, 0, 32, 64
1, 126184, Note_on_c, 0, 63, 78
1, 126188, Note_on_c, 0, 44, 77
1, 126188, Note_on_c, 0, 37, 77
1, 126192, Note_on_c, 0, 52, 77
1, 126200, Note_off_c, 0, 60, 64
1, 126200, Control_c, 0, 64, 0
1, 126276, Control_c, 0, 64, 127
1, 126300, Note_off_c, 0, 54, 64
1, 126444, Note_on_c, 0, 61, 65
1, 126456, Note_off_c, 0, 63, 64
1, 126536, Note_on_c, 0, 64, 80
1, 126572, Note_off_c, 0, 61, 64
1, 126624, Note_off_c, 0, 44, 64
1, 126624, Note_off_c, 0, 37, 64
1, 126632, Note_off_c, 0, 52, 64
1, 126808, Note_on_c, 0, 44, 77
1, 126816, Note_on_c, 0, 37, 69
1, 126816, Note_on_c, 0, 52, 77
1, 126840, Control_c, 0, 64, 0
1, 126864, Control_c, 0, 64, 127
1, 126912, Control_c, 0, 64, 127
1, 126948, Note_on_c, 0, 57, 73
1, 127000, Note_off_c, 0, 64, 64
1, 127096, Note_off_c, 0, 44, 64
1, 127104, Note_on_c, 0, 56, 79
1, 127112, Note_off_c, 0, 37, 64
1, 127112, Note_off_c, 0, 52, 64
1, 127112, Note_on_c, 0, 44, 71
1, 127120, Note_on_c, 0, 36, 70
1, 127128, Note_on_c, 0, 51, 85
1, 127128, Control_c, 0, 64, 0
1, 127140, Note_off_c, 0, 57, 64
1, 127216, Control_c, 0, 64, 127
1, 127348, Note_on_c, 0, 57, 71
1, 127360, Note_off_c, 0, 56, 64
1, 127384, Control_c, 0, 64, 0
1, 127424, Note_on_c, 0, 56, 74
1, 127464, Note_off_c, 0, 57, 64
1, 127472, Control_c, 0, 64, 127
1, 127640, Note_off_c, 0, 44, 64
1, 127640, Note_off_c, 0, 56, 64
1, 127652, Note_off_c, 0, 36, 64
1, 127656, Note_off_c, 0, 51, 64
1, 127688, Control_c, 0, 64, 0
1, 127692, Note_on_c, 0, 56, 85
1, 127696, Note_on_c, 0, 51, 77
1, 127696, Note_on_c, 0, 44, 60
1, 127696, Note_on_c, 0, 36, 59
1, 127768, Control_c, 0, 64, 127
1, 127808, Control_c, 0, 64, 127
1, 127984, Control_c, 0, 64, 0
1, 128008, Note_on_c, 0, 37, 60
1, 128012, Note_off_c, 0, 44, 64
1, 128012, Note_on_c, 0, 52, 64
1, 128020, Note_on_c, 0, 44, 46
1, 128032, Note_off_c, 0, 51, 64
1, 128032, Note_off_c, 0, 36, 64
1, 128104, Control_c, 0, 64, 127
1, 128232, Note_on_c, 0, 57, 59
1, 128264, Note_off_c, 0, 56, 64
1, 128264, Control_c, 0, 64, 0
1, 128304, Note_on_c, 0, 56, 65
1, 128348, Note_off_c, 0, 57, 64
1, 128364, Control_c, 0, 64, 127
1, 128560, Note_off_c, 0, 37, 64
1, 128564, Note_off_c, 0, 52, 64
1, 128572, Note_off_c, 0, 44, 64
1, 128580, Note_on_c, 0, 37, 44
1, 128580, Note_on_c, 0, 52, 56
1, 128592, Note_on_c, 0, 44, 48
1, 128836, Note_off_c, 0, 56, 64
1, 128860, Note_off_c, 0, 37, 64
1, 128860, Note_off_c, 0, 52, 64
1, 128872, Note_off_c, 0, 44, 64
1, 128880, Note_on_c, 0, 32, 51
1, 128880, Note_on_c, 0, 44, 51
1, 128884, Note_on_c, 0, 64, 52
1, 128888, Note_on_c, 0, 54, 56
1, 128912, Control_c, 0, 64, 0
1, 129012, Control_c, 0, 64, 127
1, 129100, Note_on_c, 0, 63, 50
1, 129128, Note_off_c, 0, 64, 64
1, 129148, Control_c, 0, 64, 0
1, 129184, Note_on_c, 0, 66, 62
1, 129212, Note_off_c, 0, 63, 64
1, 129220, Control_c, 0, 64, 127
1, 129452, Note_off_c, 0, 32, 64
1, 129452, Note_off_c, 0, 44, 64
1, 129456, Note_off_c, 0, 54, 64
1, 129464, Note_on_c, 0, 54, 49
1, 129464, Note_on_c, 0, 32, 48
1, 129472, Note_on_c, 0, 44, 49
1, 129500, Control_c, 0, 64, 0
1, 129572, Control_c, 0, 64, 127
1, 129612, Note_on_c, 0, 60, 55
1, 129664, Note_off_c, 0, 66, 64
1, 129764, Note_off_c, 0, 54, 64
1, 129764, Note_off_c, 0, 32, 64
1, 129768, Control_c, 0, 64, 0
1, 129772, Note_off_c, 0, 44, 64
1, 129788, Control_c, 0, 64, 0
1, 129792, Note_on_c, 0, 63, 52
1, 129792, Note_on_c, 0, 52, 49
1, 129792, Note_on_c, 0, 44, 51
1, 129792, Note_on_c, 0, 37, 46
1, 129808, Note_off_c, 0, 60, 64
1, 129892, Control_c, 0, 64, 127
1, 129988, Note_on_c, 0, 61, 51
1, 130008, Note_off_c, 0, 63, 64
1, 130072, Control_c, 0, 64, 0
1, 130088, Note_on_c, 0, 64, 58
1, 130112, Note_off_c, 0, 61, 64
1, 130136, Control_c, 0, 64, 127
1, 130320, Note_off_c, 0, 52, 64
1, 130320, Note_off_c, 0, 44, 64
1, 130320, Note_off_c, 0, 37, 64
1, 130368, Note_on_c, 0, 37, 41
1, 130368, Note_on_c, 0, 52, 49
1, 130368, Note_on_c, 0, 44, 48
1, 130376, Control_c, 0, 64, 0
1, 130448, Control_c, 0, 64, 127
1, 130492, Note_on_c, 0, 57, 50
1, 130552, Note_off_c, 0, 64, 64
1, 130640, Note_off_c, 0, 44, 64
1, 130640, Note_on_c, 0, 56, 58
1, 130652, Note_on_c, 0, 51, 64
1, 130652, Note_on_c, 0, 36, 46
1, 130656, Note_on_c, 0, 44, 47
1, 130660, Note_off_c, 0, 37, 64
1, 130660, Note_off_c, 0, 52, 64
1, 130668, Note_off_c, 0, 57, 64
1, 130672, Control_c, 0, 64, 0
1, 130772, Control_c, 0, 64, 127
1, 130864, Note_on_c, 0, 57, 52
1, 130876, Note_off_c, 0, 56, 64
1, 130908, Control_c, 0, 64, 0
1, 130928, Note_on_c, 0, 56, 62
1, 130952, Note_off_c, 0, 57, 64
1, 131144, Note_off_c, 0, 56, 64
1, 131196, Note_off_c, 0, 51, 64
1, 131196, Note_off_c, 0, 36, 64
1, 131200, Note_off_c, 0, 44, 64
1, 131220, Note_on_c, 0, 51, 49
1, 131220, Note_on_c, 0, 36, 45
1, 131224, Note_on_c, 0, 56, 60
1, 131232, Note_on_c, 0, 44, 43
1, 131248, Control_c, 0, 64, 127
1, 131496, Control_c, 0, 64, 0
1, 131508, Note_off_c, 0, 44, 64
1, 131512, Note_on_c, 0, 52, 56
1, 131516, Note_off_c, 0, 51, 64
1, 131520, Note_on_c, 0, 44, 58
1, 131524, Note_on_c, 0, 37, 58
1, 131528, Note_off_c, 0, 36, 64
1, 131736, Note_on_c, 0, 57, 52
1, 131772, Note_off_c, 0, 56, 64
1, 131804, Control_c, 0, 64, 127
1, 131812, Note_on_c, 0, 56, 58
1, 131836, Note_off_c, 0, 57, 64
1, 131976, Control_c, 0, 64, 0
1, 132080, Note_off_c, 0, 52, 64
1, 132088, Note_off_c, 0, 44, 64
1, 132088, Note_on_c, 0, 52, 48
1, 132096, Note_off_c, 0, 37, 64
1, 132100, Note_on_c, 0, 44, 42
1, 132100, Note_on_c, 0, 37, 43
1, 132124, Control_c, 0, 64, 127
1, 132376, Note_off_c, 0, 44, 64
1, 132384, Note_off_c, 0, 52, 64
1, 132388, Note_off_c, 0, 37, 64
1, 132392, Note_on_c, 0, 36, 48
1, 132392, Note_on_c, 0, 51, 48
1, 132392, Control_c, 0, 64, 0
1, 132404, Note_on_c, 0, 44, 37
1, 132660, Note_on_c, 0, 57, 42
1, 132676, Note_off_c, 0, 56, 64
1, 132716, Note_on_c, 0, 56, 46
1, 132736, Note_off_c, 0, 57, 64
1, 132932, Note_off_c, 0, 56, 64
1, 132976, Note_off_c, 0, 36, 64
1, 132976, Note_off_c, 0, 51, 64
1, 132984, Note_on_c, 0, 56, 46
1, 132988, Note_off_c, 0, 44, 64
1, 133008, Note_on_c, 0, 51, 32
1, 133008, Note_on_c, 0, 36, 34
1, 133016, Note_on_c, 0, 44, 39
1, 133048, Control_c, 0, 64, 127
1, 133336, Note_off_c, 0, 51, 64
1, 133336, Note_off_c, 0, 36, 64
1, 133336, Note_on_c, 0, 52, 47
1, 133344, Note_off_c, 0, 44, 64
1, 133344, Note_on_c, 0, 44, 46
1, 133356, Note_on_c, 0, 37, 39
1, 133376, Control_c, 0, 64, 0
1, 133596, Note_on_c, 0, 57, 48
1, 133628, Note_off_c, 0, 56, 64
1, 133632, Control_c, 0, 64, 127
1, 133672, Note_on_c, 0, 56, 48
1, 133700, Note_off_c, 0, 57, 64
1, 133944, Note_off_c, 0, 52, 64
1, 133952, Note_off_c, 0, 44, 64
1, 133968, Note_off_c, 0, 37, 64
1, 133988, Note_on_c, 0, 37, 26
1, 133992, Note_on_c, 0, 44, 41
1, 134000, Control_c, 0, 64, 0
1, 134008, Note_on_c, 0, 52, 46
1, 134084, Control_c, 0, 64, 127
1, 134336, Note_off_c, 0, 44, 64
1, 134340, Note_on_c, 0, 51, 52
1, 134340, Note_on_c, 0, 44, 42
1, 134348, Note_off_c, 0, 37, 64
1, 134352, Note_off_c, 0, 52, 64
1, 134368, Note_on_c, 0, 32, 42
1, 134392, Control_c, 0, 64, 0
1, 134628, Note_on_c, 0, 57, 29
1, 134664, Note_off_c, 0, 56, 64
1, 134692, Note_on_c, 0, 56, 35
1, 134700, Note_off_c, 0, 57, 64
1, 134704, Control_c, 0, 64, 127
1, 134916, Control_c, 0, 64, 0
1, 134988, Note_off_c, 0, 51, 64
1, 134996, Note_off_c, 0, 44, 64
1, 135008, Note_off_c, 0, 32, 64
1, 135048, Note_on_c, 0, 44, 42
1, 135052, Note_on_c, 0, 32, 42
1, 135056, Note_on_c, 0, 51, 37
1, 135092, Control_c, 0, 64, 0
1, 135116, Control_c, 0, 64, 0
1, 135160, Control_c, 0, 64, 127
1, 135384, Note_off_c, 0, 32, 64
1, 135384, Note_off_c, 0, 44, 64
1, 135416, Note_on_c, 0, 32, 42
1, 135424, Note_on_c, 0, 44, 43
1, 135472, Control_c, 0, 64, 0
1, 135488, Control_c, 0, 64, 0
1, 135520, Control_c, 0, 64, 127
1, 135764, Note_on_c, 0, 52, 41
1, 135772, Note_off_c, 0, 51, 64
1, 135848, Control_c, 0, 64, 0
1, 135864, Note_on_c, 0, 51, 56
1, 135884, Note_off_c, 0, 52, 64
1, 135928, Control_c, 0, 64, 127
1, 136284, Note_off_c, 0, 32, 64
1, 136284, Note_off_c, 0, 44, 64
1, 136332, Note_on_c, 0, 32, 42
1, 136344, Note_on_c, 0, 44, 34
1, 136348, Control_c, 0, 64, 0
1, 136448, Control_c, 0, 64, 127
1, 136728, Note_on_c, 0, 49, 34
1, 136744, Note_off_c, 0, 51, 64
1, 137016, Control_c, 0, 64, 0
1, 137148, Note_off_c, 0, 56, 64
1, 137192, Note_off_c, 0, 44, 64
1, 137200, Note_off_c, 0, 32, 64
1, 137216, Note_off_c, 0, 49, 64
1, 137216, Note_on_c, 0, 56, 33
1, 137228, Note_on_c, 0, 37, 29
1, 137228, Note_on_c, 0, 44, 39
1, 137236, Note_on_c, 0, 49, 34
1, 137320, Control_c, 0, 64, 0
1, 137736, Control_c, 0, 64, 127
1, 140544, Note_off_c, 0, 37, 64
1, 140544, Note_off_c, 0, 49, 64
1, 140552, Note_off_c, 0, 44, 64
1, 140584, Note_off_c, 0, 56, 64
1, 141176, Control_c, 0, 64, 0
1, 141176, End_track
2, 0, Start_track
2, 1, Copyright_t, "__________________________________________________________\012\012KUNSTDERFUGE.COM GREAT CLASSICAL MIDI COLLECTION\012__________________________________________________________\012\012KUNST-DER-FUGE CONTRIBUTOR's PROPERTY\012Copyright by Contributor & Kunst der Fuge, © 2006\012\012Contributors' list: http://kunstderfuge.com/thanks.htm\012Terms and conditions: http://kunstderfuge.com/notes.htm\012__________________________________________________________\012\012NO WEBSITE MAY PUBLISH THIS FILE WITHOUT PERMISSION\012NO COMMERCIAL USE ALLOWED, NOR BY SALES NOR by eBay!\012PLEASE REPORT ANY ABUSE TO INFO@ONCLASSICAL.COM\012__________________________________________________________\012\012Thousands of free classical MIDI files at kunstderfuge.com"
2, 1, End_track
0, 0, End_of_file
