0, 0, Header, 0, 2, 384
1, 0, Start_track
1, 0, Title_t, "Chopin's Mazurkas (played by © Ron Lubetsky)"
1, 0, Control_c, 0, 0, 0
1, 0, Program_c, 0, 0
1, 0, Time_signature, 4, 2, 96, 8
1, 0, Sequencer_specific, 3, 0, 0, 65
1, 0, Tempo, 500000
1, 796, Note_on_c, 0, 71, 61
1, 808, Control_c, 0, 64, 0
1, 936, Control_c, 0, 64, 127
1, 1124, Note_on_c, 0, 40, 57
1, 1188, Control_c, 0, 64, 0
1, 1208, Note_on_c, 0, 69, 65
1, 1244, Control_c, 0, 64, 127
1, 1260, Note_off_c, 0, 71, 64
1, 1560, Note_on_c, 0, 67, 55
1, 1596, Note_off_c, 0, 69, 64
1, 1616, Note_off_c, 0, 40, 64
1, 1632, Note_on_c, 0, 66, 66
1, 1632, Control_c, 0, 64, 0
1, 1644, Note_on_c, 0, 55, 41
1, 1656, Note_on_c, 0, 59, 29
1, 1668, Control_c, 0, 64, 127
1, 1684, Note_off_c, 0, 67, 64
1, 1780, Note_off_c, 0, 55, 64
1, 1804, Note_off_c, 0, 59, 64
1, 1976, Note_on_c, 0, 64, 66
1, 1976, Note_on_c, 0, 59, 35
1, 1976, Note_on_c, 0, 55, 36
1, 2008, Note_off_c, 0, 66, 64
1, 2292, Note_on_c, 0, 45, 46
1, 2360, Note_off_c, 0, 59, 64
1, 2360, Note_off_c, 0, 55, 64
1, 2396, Note_on_c, 0, 74, 70
1, 2420, Note_off_c, 0, 64, 64
1, 2424, Control_c, 0, 64, 0
1, 2448, Control_c, 0, 64, 127
1, 2796, Note_on_c, 0, 64, 22
1, 2796, Note_on_c, 0, 60, 31
1, 2796, Note_on_c, 0, 57, 35
1, 2804, Note_off_c, 0, 45, 64
1, 2916, Note_off_c, 0, 60, 64
1, 2916, Note_off_c, 0, 57, 64
1, 2924, Note_off_c, 0, 64, 64
1, 3120, Note_on_c, 0, 72, 57
1, 3120, Note_on_c, 0, 57, 33
1, 3132, Note_on_c, 0, 64, 31
1, 3136, Note_on_c, 0, 60, 28
1, 3148, Note_off_c, 0, 74, 64
1, 3324, Note_off_c, 0, 57, 64
1, 3324, Note_off_c, 0, 60, 64
1, 3384, Note_off_c, 0, 64, 64
1, 3472, Note_on_c, 0, 50, 53
1, 3484, Note_on_c, 0, 60, 44
1, 3488, Note_on_c, 0, 64, 35
1, 3496, Note_on_c, 0, 71, 66
1, 3500, Note_off_c, 0, 72, 64
1, 3508, Control_c, 0, 64, 0
1, 3580, Control_c, 0, 64, 127
1, 3668, Note_off_c, 0, 64, 64
1, 3700, Note_off_c, 0, 60, 64
1, 3728, Note_on_c, 0, 69, 57
1, 3784, Note_off_c, 0, 71, 64
1, 3836, Note_on_c, 0, 64, 57
1, 3836, Control_c, 0, 64, 0
1, 3848, Note_on_c, 0, 62, 23
1, 3860, Note_on_c, 0, 59, 36
1, 3884, Note_off_c, 0, 69, 64
1, 3884, Control_c, 0, 64, 127
1, 4004, Note_off_c, 0, 62, 64
1, 4004, Note_off_c, 0, 59, 64
1, 4012, Note_on_c, 0, 66, 55
1, 4040, Note_off_c, 0, 64, 64
1, 4192, Note_on_c, 0, 62, 61
1, 4196, Note_on_c, 0, 57, 33
1, 4204, Note_on_c, 0, 60, 37
1, 4212, Note_off_c, 0, 66, 64
1, 4300, Note_off_c, 0, 50, 64
1, 4388, Note_off_c, 0, 57, 64
1, 4408, Note_off_c, 0, 60, 64
1, 4428, Note_on_c, 0, 67, 59
1, 4472, Note_off_c, 0, 62, 64
1, 4480, Note_off_c, 0, 67, 64
1, 4516, Note_on_c, 0, 67, 66
1, 4560, Control_c, 0, 64, 0
1, 4564, Note_on_c, 0, 43, 58
1, 4580, Note_on_c, 0, 72, 66
1, 4608, Note_off_c, 0, 67, 64
1, 4616, Control_c, 0, 64, 127
1, 4920, Note_on_c, 0, 62, 39
1, 4928, Note_on_c, 0, 55, 39
1, 5040, Note_off_c, 0, 43, 64
1, 5156, Note_off_c, 0, 62, 64
1, 5180, Note_off_c, 0, 55, 64
1, 5364, Note_on_c, 0, 71, 61
1, 5408, Note_off_c, 0, 72, 64
1, 5748, Note_on_c, 0, 47, 41
1, 5772, Control_c, 0, 64, 0
1, 5808, Control_c, 0, 64, 127
1, 5920, Note_off_c, 0, 71, 64
1, 6020, Note_on_c, 0, 72, 53
1, 6104, Note_on_c, 0, 66, 36
1, 6108, Note_on_c, 0, 69, 19
1, 6116, Note_on_c, 0, 59, 40
1, 6124, Note_on_c, 0, 73, 62
1, 6132, Note_on_c, 0, 71, 39
1, 6140, Note_off_c, 0, 72, 64
1, 6192, Note_off_c, 0, 71, 64
1, 6200, Note_off_c, 0, 73, 64
1, 6216, Note_off_c, 0, 59, 64
1, 6216, Note_off_c, 0, 66, 64
1, 6224, Note_off_c, 0, 69, 64
1, 6232, Note_off_c, 0, 47, 64
1, 6292, Note_on_c, 0, 74, 67
1, 6292, Note_on_c, 0, 71, 55
1, 6360, Note_off_c, 0, 74, 64
1, 6460, Note_on_c, 0, 75, 70
1, 6460, Note_on_c, 0, 66, 40
1, 6460, Note_on_c, 0, 69, 37
1, 6464, Note_on_c, 0, 59, 39
1, 6740, Note_off_c, 0, 71, 64
1, 6752, Note_off_c, 0, 75, 64
1, 6752, Note_off_c, 0, 69, 64
1, 6764, Note_off_c, 0, 66, 64
1, 6788, Note_off_c, 0, 59, 64
1, 6800, Note_on_c, 0, 76, 63
1, 6808, Note_on_c, 0, 52, 46
1, 6816, Control_c, 0, 64, 0
1, 6872, Control_c, 0, 64, 127
1, 6996, Note_off_c, 0, 76, 64
1, 7028, Note_on_c, 0, 78, 49
1, 7124, Note_on_c, 0, 79, 57
1, 7124, Note_on_c, 0, 67, 37
1, 7124, Note_on_c, 0, 59, 45
1, 7128, Note_off_c, 0, 78, 64
1, 7236, Note_off_c, 0, 59, 64
1, 7244, Note_off_c, 0, 67, 64
1, 7332, Note_on_c, 0, 84, 59
1, 7432, Note_off_c, 0, 79, 64
1, 7444, Note_off_c, 0, 52, 64
1, 7488, Note_on_c, 0, 83, 62
1, 7504, Note_on_c, 0, 67, 31
1, 7512, Note_off_c, 0, 84, 64
1, 7512, Note_on_c, 0, 59, 41
1, 7624, Note_off_c, 0, 59, 64
1, 7632, Note_off_c, 0, 67, 64
1, 7836, Note_on_c, 0, 82, 62
1, 7848, Note_on_c, 0, 52, 41
1, 7856, Note_off_c, 0, 83, 64
1, 7860, Control_c, 0, 64, 0
1, 7892, Note_off_c, 0, 82, 64
1, 7912, Control_c, 0, 64, 127
1, 8092, Note_on_c, 0, 78, 49
1, 8168, Note_on_c, 0, 66, 41
1, 8172, Note_on_c, 0, 82, 74
1, 8180, Note_on_c, 0, 61, 28
1, 8180, Note_on_c, 0, 58, 31
1, 8200, Note_off_c, 0, 78, 64
1, 8284, Note_off_c, 0, 82, 64
1, 8284, Note_off_c, 0, 61, 64
1, 8288, Note_off_c, 0, 66, 64
1, 8332, Note_off_c, 0, 58, 64
1, 8432, Note_on_c, 0, 81, 54
1, 8508, Note_on_c, 0, 78, 66
1, 8512, Note_on_c, 0, 57, 41
1, 8516, Note_on_c, 0, 66, 46
1, 8516, Note_on_c, 0, 60, 45
1, 8540, Note_off_c, 0, 81, 64
1, 8676, Note_off_c, 0, 57, 64
1, 8696, Note_off_c, 0, 66, 64
1, 8708, Note_off_c, 0, 60, 64
1, 8768, Note_off_c, 0, 78, 64
1, 8832, Note_off_c, 0, 52, 64
1, 8860, Note_on_c, 0, 81, 61
1, 8868, Note_on_c, 0, 52, 45
1, 8888, Control_c, 0, 64, 0
1, 8912, Note_off_c, 0, 81, 64
1, 8956, Control_c, 0, 64, 127
1, 9112, Note_on_c, 0, 78, 66
1, 9172, Control_c, 0, 64, 0
1, 9184, Note_on_c, 0, 63, 45
1, 9192, Note_on_c, 0, 57, 46
1, 9204, Note_on_c, 0, 81, 57
1, 9216, Note_off_c, 0, 78, 64
1, 9240, Control_c, 0, 64, 127
1, 9264, Note_off_c, 0, 63, 64
1, 9268, Note_off_c, 0, 57, 64
1, 9468, Note_off_c, 0, 81, 64
1, 9480, Note_on_c, 0, 79, 50
1, 9544, Note_on_c, 0, 64, 45
1, 9556, Note_on_c, 0, 76, 61
1, 9556, Note_on_c, 0, 55, 37
1, 9592, Note_off_c, 0, 79, 64
1, 9612, Note_off_c, 0, 64, 64
1, 9616, Note_off_c, 0, 55, 64
1, 9636, Note_off_c, 0, 52, 64
1, 9640, Note_off_c, 0, 76, 64
1, 9896, Note_on_c, 0, 71, 52
1, 9904, Note_on_c, 0, 47, 57
1, 9908, Control_c, 0, 64, 0
1, 9968, Control_c, 0, 64, 127
1, 10080, Note_off_c, 0, 71, 64
1, 10140, Note_on_c, 0, 71, 36
1, 10140, Note_on_c, 0, 72, 54
1, 10204, Note_off_c, 0, 71, 64
1, 10204, Note_off_c, 0, 72, 64
1, 10236, Note_on_c, 0, 66, 36
1, 10236, Note_on_c, 0, 59, 37
1, 10244, Note_on_c, 0, 73, 66
1, 10244, Note_on_c, 0, 71, 58
1, 10252, Note_on_c, 0, 69, 44
1, 10308, Note_off_c, 0, 71, 64
1, 10316, Note_off_c, 0, 73, 64
1, 10320, Note_off_c, 0, 69, 64
1, 10324, Note_off_c, 0, 66, 64
1, 10328, Note_off_c, 0, 59, 64
1, 10376, Note_off_c, 0, 47, 64
1, 10396, Note_on_c, 0, 74, 66
1, 10400, Note_on_c, 0, 71, 52
1, 10460, Note_off_c, 0, 74, 64
1, 10468, Note_off_c, 0, 71, 64
1, 10560, Note_on_c, 0, 75, 72
1, 10560, Note_on_c, 0, 71, 52
1, 10560, Note_on_c, 0, 66, 45
1, 10568, Note_on_c, 0, 69, 36
1, 10572, Note_on_c, 0, 59, 36
1, 10860, Note_off_c, 0, 59, 64
1, 10872, Note_off_c, 0, 66, 64
1, 10892, Note_off_c, 0, 69, 64
1, 10912, Note_on_c, 0, 76, 57
1, 10920, Note_on_c, 0, 52, 45
1, 10928, Note_off_c, 0, 75, 64
1, 10932, Note_off_c, 0, 71, 64
1, 10944, Control_c, 0, 64, 0
1, 10984, Control_c, 0, 64, 127
1, 11120, Note_on_c, 0, 91, 58
1, 11148, Note_off_c, 0, 76, 64
1, 11156, Note_off_c, 0, 91, 64
1, 11264, Note_on_c, 0, 90, 55
1, 11324, Note_on_c, 0, 91, 55
1, 11356, Note_off_c, 0, 90, 64
1, 11364, Control_c, 0, 64, 0
1, 11368, Note_on_c, 0, 90, 74
1, 11372, Note_on_c, 0, 67, 33
1, 11372, Note_on_c, 0, 59, 41
1, 11388, Control_c, 0, 64, 127
1, 11408, Note_off_c, 0, 91, 64
1, 11528, Note_on_c, 0, 88, 50
1, 11580, Note_off_c, 0, 90, 64
1, 11672, Note_off_c, 0, 67, 64
1, 11684, Note_off_c, 0, 59, 64
1, 11692, Note_off_c, 0, 52, 64
1, 11700, Note_on_c, 0, 84, 57
1, 11732, Note_off_c, 0, 88, 64
1, 11876, Note_on_c, 0, 83, 37
1, 11900, Note_off_c, 0, 84, 64
1, 12048, Note_on_c, 0, 42, 52
1, 12060, Note_on_c, 0, 82, 62
1, 12076, Note_off_c, 0, 83, 64
1, 12088, Control_c, 0, 64, 0
1, 12132, Control_c, 0, 64, 127
1, 12244, Note_on_c, 0, 85, 58
1, 12264, Note_off_c, 0, 82, 64
1, 12424, Note_on_c, 0, 83, 61
1, 12424, Note_on_c, 0, 54, 23
1, 12424, Note_on_c, 0, 87, 70
1, 12436, Note_on_c, 0, 61, 31
1, 12440, Note_on_c, 0, 64, 20
1, 12476, Note_off_c, 0, 85, 64
1, 12580, Note_off_c, 0, 61, 64
1, 12592, Note_on_c, 0, 80, 37
1, 12596, Note_off_c, 0, 64, 64
1, 12620, Note_off_c, 0, 83, 64
1, 12620, Note_off_c, 0, 87, 64
1, 12644, Note_off_c, 0, 54, 64
1, 12780, Note_off_c, 0, 80, 64
1, 12780, Note_on_c, 0, 61, 41
1, 12788, Note_on_c, 0, 76, 54
1, 12788, Note_on_c, 0, 64, 37
1, 12788, Note_on_c, 0, 54, 44
1, 12876, Note_off_c, 0, 42, 64
1, 12904, Note_off_c, 0, 64, 64
1, 12928, Note_off_c, 0, 61, 64
1, 12948, Note_off_c, 0, 54, 64
1, 13016, Note_off_c, 0, 76, 64
1, 13052, Note_on_c, 0, 82, 58
1, 13052, Note_on_c, 0, 78, 53
1, 13076, Note_off_c, 0, 82, 64
1, 13084, Note_off_c, 0, 78, 64
1, 13120, Note_on_c, 0, 82, 67
1, 13128, Note_on_c, 0, 78, 70
1, 13136, Note_on_c, 0, 47, 40
1, 13168, Control_c, 0, 64, 0
1, 13216, Control_c, 0, 64, 127
1, 13340, Note_on_c, 0, 83, 55
1, 13344, Note_on_c, 0, 75, 66
1, 13348, Note_off_c, 0, 82, 64
1, 13352, Note_off_c, 0, 78, 64
1, 13548, Note_on_c, 0, 66, 50
1, 13548, Note_on_c, 0, 59, 50
1, 13676, Note_off_c, 0, 47, 64
1, 13688, Note_off_c, 0, 83, 64
1, 13692, Note_off_c, 0, 75, 64
1, 13804, Note_off_c, 0, 59, 64
1, 13836, Note_off_c, 0, 66, 64
1, 13892, Note_on_c, 0, 71, 52
1, 14232, Note_on_c, 0, 40, 46
1, 14308, Note_on_c, 0, 69, 52
1, 14328, Control_c, 0, 64, 0
1, 14340, Note_off_c, 0, 71, 64
1, 14364, Control_c, 0, 64, 127
1, 14604, Note_on_c, 0, 67, 41
1, 14624, Note_off_c, 0, 69, 64
1, 14676, Note_on_c, 0, 59, 35
1, 14688, Note_on_c, 0, 55, 39
1, 14700, Note_on_c, 0, 66, 46
1, 14724, Note_off_c, 0, 67, 64
1, 14808, Note_off_c, 0, 40, 64
1, 14816, Note_off_c, 0, 59, 64
1, 14828, Note_off_c, 0, 55, 64
1, 15000, Note_on_c, 0, 64, 50
1, 15000, Note_on_c, 0, 55, 33
1, 15012, Note_off_c, 0, 66, 64
1, 15012, Note_on_c, 0, 59, 33
1, 15316, Tempo, 500000
1, 15316, Note_on_c, 0, 45, 41
1, 15372, Note_off_c, 0, 55, 64
1, 15384, Note_off_c, 0, 59, 64
1, 15384, Note_on_c, 0, 74, 52
1, 15400, Control_c, 0, 64, 0
1, 15408, Note_off_c, 0, 64, 64
1, 15472, Control_c, 0, 64, 127
1, 15732, Note_on_c, 0, 64, 26
1, 15736, Note_on_c, 0, 60, 18
1, 15736, Note_on_c, 0, 57, 22
1, 15840, Note_off_c, 0, 60, 64
1, 15844, Note_off_c, 0, 57, 64
1, 15856, Note_off_c, 0, 64, 64
1, 15888, Note_off_c, 0, 45, 64
1, 16024, Note_off_c, 0, 74, 64
1, 16040, Note_on_c, 0, 72, 45
1, 16048, Note_on_c, 0, 57, 28
1, 16056, Note_on_c, 0, 64, 32
1, 16064, Note_on_c, 0, 60, 31
1, 16120, Note_off_c, 0, 57, 64
1, 16148, Note_off_c, 0, 60, 64
1, 16160, Note_off_c, 0, 64, 64
1, 16376, Note_on_c, 0, 50, 33
1, 16384, Note_on_c, 0, 60, 32
1, 16392, Note_on_c, 0, 71, 52
1, 16396, Note_on_c, 0, 64, 28
1, 16400, Note_off_c, 0, 72, 64
1, 16416, Control_c, 0, 64, 0
1, 16488, Control_c, 0, 64, 127
1, 16536, Note_off_c, 0, 64, 64
1, 16580, Note_off_c, 0, 60, 64
1, 16604, Note_on_c, 0, 69, 46
1, 16652, Note_off_c, 0, 71, 64
1, 16728, Note_off_c, 0, 69, 64
1, 16728, Note_on_c, 0, 64, 46
1, 16736, Control_c, 0, 64, 0
1, 16744, Note_on_c, 0, 62, 28
1, 16744, Note_on_c, 0, 59, 28
1, 16776, Tempo, 500000
1, 16776, Control_c, 0, 64, 127
1, 16844, Note_off_c, 0, 62, 64
1, 16868, Note_off_c, 0, 59, 64
1, 16884, Note_on_c, 0, 66, 46
1, 16904, Note_off_c, 0, 64, 64
1, 17052, Note_on_c, 0, 62, 52
1, 17052, Note_on_c, 0, 57, 29
1, 17056, Note_on_c, 0, 60, 31
1, 17064, Note_off_c, 0, 66, 64
1, 17124, Note_off_c, 0, 57, 64
1, 17124, Note_off_c, 0, 60, 64
1, 17156, Note_off_c, 0, 50, 64
1, 17268, Note_on_c, 0, 67, 52
1, 17300, Note_off_c, 0, 62, 64
1, 17332, Note_off_c, 0, 67, 64
1, 17364, Note_on_c, 0, 67, 52
1, 17412, Note_on_c, 0, 72, 52
1, 17424, Control_c, 0, 64, 0
1, 17432, Note_on_c, 0, 43, 31
1, 17456, Note_off_c, 0, 67, 64
1, 17516, Control_c, 0, 64, 127
1, 17788, Note_on_c, 0, 55, 31
1, 17788, Note_on_c, 0, 62, 35
1, 17924, Note_off_c, 0, 43, 64
1, 18064, Note_off_c, 0, 62, 64
1, 18076, Note_off_c, 0, 55, 64
1, 18176, Note_on_c, 0, 71, 42
1, 18212, Note_off_c, 0, 72, 64
1, 18500, Control_c, 0, 64, 0
1, 18512, Note_on_c, 0, 47, 41
1, 18564, Control_c, 0, 64, 127
1, 18744, Note_on_c, 0, 72, 41
1, 18752, Note_off_c, 0, 71, 64
1, 18804, Note_off_c, 0, 72, 64
1, 18824, Note_on_c, 0, 66, 40
1, 18828, Note_on_c, 0, 69, 35
1, 18836, Note_on_c, 0, 71, 31
1, 18836, Note_on_c, 0, 59, 39
1, 18844, Note_on_c, 0, 73, 50
1, 18904, Note_off_c, 0, 71, 64
1, 18912, Note_off_c, 0, 73, 64
1, 18920, Note_off_c, 0, 66, 64
1, 18924, Note_off_c, 0, 59, 64
1, 18928, Note_off_c, 0, 69, 64
1, 18996, Note_off_c, 0, 47, 64
1, 19004, Note_on_c, 0, 74, 48
1, 19008, Note_on_c, 0, 71, 31
1, 19052, Note_off_c, 0, 71, 64
1, 19060, Note_off_c, 0, 74, 64
1, 19140, Note_on_c, 0, 75, 57
1, 19140, Note_on_c, 0, 71, 31
1, 19140, Note_on_c, 0, 69, 28
1, 19140, Note_on_c, 0, 59, 28
1, 19148, Note_on_c, 0, 66, 36
1, 19448, Note_off_c, 0, 71, 64
1, 19448, Note_off_c, 0, 69, 64
1, 19448, Note_off_c, 0, 59, 64
1, 19452, Note_off_c, 0, 66, 64
1, 19476, Note_on_c, 0, 76, 52
1, 19492, Note_off_c, 0, 75, 64
1, 19492, Control_c, 0, 64, 0
1, 19496, Note_on_c, 0, 52, 40
1, 19580, Control_c, 0, 64, 127
1, 19676, Note_off_c, 0, 76, 64
1, 19700, Note_on_c, 0, 78, 39
1, 19784, Note_off_c, 0, 78, 64
1, 19784, Note_on_c, 0, 59, 35
1, 19788, Note_on_c, 0, 79, 41
1, 19796, Note_on_c, 0, 67, 22
1, 19900, Note_off_c, 0, 59, 64
1, 19912, Note_off_c, 0, 67, 64
1, 19964, Note_on_c, 0, 84, 46
1, 20040, Note_off_c, 0, 79, 64
1, 20120, Note_off_c, 0, 84, 64
1, 20136, Note_on_c, 0, 83, 52
1, 20136, Note_on_c, 0, 67, 31
1, 20144, Note_on_c, 0, 59, 36
1, 20188, Note_off_c, 0, 52, 64
1, 20324, Note_off_c, 0, 67, 64
1, 20448, Control_c, 0, 64, 0
1, 20460, Note_off_c, 0, 59, 64
1, 20460, Note_on_c, 0, 82, 46
1, 20480, Note_on_c, 0, 52, 42
1, 20504, Note_off_c, 0, 83, 64
1, 20516, Note_off_c, 0, 82, 64
1, 20560, Control_c, 0, 64, 127
1, 20716, Note_on_c, 0, 78, 46
1, 20792, Note_on_c, 0, 58, 33
1, 20800, Note_on_c, 0, 61, 33
1, 20804, Note_on_c, 0, 82, 57
1, 20804, Note_on_c, 0, 66, 35
1, 20832, Note_off_c, 0, 78, 64
1, 20920, Note_off_c, 0, 66, 64
1, 20924, Note_off_c, 0, 61, 64
1, 20928, Note_off_c, 0, 82, 64
1, 20956, Note_off_c, 0, 58, 64
1, 21076, Note_on_c, 0, 81, 46
1, 21140, Note_on_c, 0, 78, 52
1, 21140, Note_on_c, 0, 66, 31
1, 21148, Note_on_c, 0, 60, 35
1, 21160, Note_on_c, 0, 57, 28
1, 21180, Note_off_c, 0, 81, 64
1, 21420, Note_off_c, 0, 66, 64
1, 21428, Note_off_c, 0, 60, 64
1, 21440, Note_off_c, 0, 57, 64
1, 21460, Note_off_c, 0, 52, 64
1, 21460, Note_off_c, 0, 78, 64
1, 21464, Control_c, 0, 64, 0
1, 21484, Note_on_c, 0, 81, 48
1, 21492, Note_on_c, 0, 52, 45
1, 21540, Note_off_c, 0, 81, 64
1, 21540, Control_c, 0, 64, 127
1, 21716, Note_on_c, 0, 78, 46
1, 21792, Note_on_c, 0, 63, 37
1, 21800, Note_on_c, 0, 57, 37
1, 21804, Note_on_c, 0, 81, 49
1, 21816, Control_c, 0, 64, 0
1, 21828, Note_off_c, 0, 78, 64
1, 21836, Control_c, 0, 64, 127
1, 21952, Note_off_c, 0, 63, 64
1, 21960, Note_off_c, 0, 57, 64
1, 22068, Note_off_c, 0, 81, 64
1, 22072, Note_on_c, 0, 79, 46
1, 22096, Control_c, 0, 64, 0
1, 22136, Note_on_c, 0, 64, 29
1, 22144, Note_on_c, 0, 76, 44
1, 22144, Note_on_c, 0, 55, 35
1, 22164, Control_c, 0, 64, 127
1, 22192, Note_off_c, 0, 79, 64
1, 22212, Note_off_c, 0, 64, 64
1, 22220, Note_off_c, 0, 55, 64
1, 22248, Note_off_c, 0, 76, 64
1, 22260, Note_off_c, 0, 52, 64
1, 22468, Note_on_c, 0, 71, 49
1, 22472, Control_c, 0, 64, 0
1, 22500, Note_on_c, 0, 47, 44
1, 22512, Control_c, 0, 64, 127
1, 22664, Note_off_c, 0, 71, 64
1, 22712, Note_on_c, 0, 72, 45
1, 22712, Note_on_c, 0, 71, 31
1, 22744, Note_off_c, 0, 71, 64
1, 22772, Note_off_c, 0, 72, 64
1, 22796, Control_c, 0, 64, 0
1, 22808, Note_on_c, 0, 66, 31
1, 22812, Note_on_c, 0, 59, 35
1, 22820, Note_on_c, 0, 73, 57
1, 22820, Note_on_c, 0, 71, 45
1, 22824, Note_on_c, 0, 69, 26
1, 22832, Control_c, 0, 64, 127
1, 22868, Note_off_c, 0, 71, 64
1, 22884, Note_off_c, 0, 73, 64
1, 22900, Note_off_c, 0, 59, 64
1, 22904, Note_off_c, 0, 66, 64
1, 22916, Note_off_c, 0, 69, 64
1, 22964, Note_off_c, 0, 47, 64
1, 22976, Note_on_c, 0, 74, 44
1, 22980, Note_on_c, 0, 71, 42
1, 23036, Note_off_c, 0, 74, 64
1, 23048, Note_off_c, 0, 71, 64
1, 23100, Control_c, 0, 64, 0
1, 23124, Note_on_c, 0, 66, 39
1, 23136, Note_on_c, 0, 69, 31
1, 23136, Note_on_c, 0, 59, 33
1, 23148, Note_on_c, 0, 71, 48
1, 23148, Note_on_c, 0, 75, 62
1, 23156, Control_c, 0, 64, 127
1, 23432, Note_off_c, 0, 66, 64
1, 23444, Note_off_c, 0, 69, 64
1, 23444, Note_off_c, 0, 59, 64
1, 23452, Note_off_c, 0, 71, 64
1, 23492, Control_c, 0, 64, 0
1, 23508, Note_on_c, 0, 76, 46
1, 23512, Note_on_c, 0, 52, 46
1, 23532, Note_off_c, 0, 75, 64
1, 23532, Control_c, 0, 64, 127
1, 23764, Note_on_c, 0, 91, 48
1, 23792, Note_off_c, 0, 76, 64
1, 23852, Note_off_c, 0, 91, 64
1, 23896, Note_on_c, 0, 90, 52
1, 23956, Note_on_c, 0, 91, 52
1, 23964, Note_off_c, 0, 90, 64
1, 23976, Note_on_c, 0, 67, 23
1, 23984, Note_on_c, 0, 59, 28
1, 24008, Note_on_c, 0, 90, 52
1, 24056, Note_off_c, 0, 91, 64
1, 24160, Note_on_c, 0, 88, 41
1, 24196, Note_off_c, 0, 90, 64
1, 24256, Note_off_c, 0, 67, 64
1, 24308, Note_on_c, 0, 84, 45
1, 24320, Note_off_c, 0, 59, 64
1, 24332, Note_off_c, 0, 52, 64
1, 24388, Note_off_c, 0, 88, 64
1, 24500, Note_on_c, 0, 83, 44
1, 24540, Note_off_c, 0, 84, 64
1, 24672, Note_on_c, 0, 82, 42
1, 24692, Note_on_c, 0, 47, 41
1, 24716, Control_c, 0, 64, 0
1, 24724, Note_off_c, 0, 83, 64
1, 24740, Control_c, 0, 64, 127
1, 24884, Note_on_c, 0, 78, 42
1, 24892, Note_off_c, 0, 82, 64
1, 25068, Note_off_c, 0, 78, 64
1, 25076, Note_on_c, 0, 69, 32
1, 25076, Note_on_c, 0, 84, 42
1, 25080, Note_on_c, 0, 63, 18
1, 25088, Note_on_c, 0, 59, 32
1, 25164, Note_off_c, 0, 47, 64
1, 25204, Note_off_c, 0, 84, 64
1, 25204, Note_on_c, 0, 82, 32
1, 25220, Note_off_c, 0, 69, 64
1, 25228, Note_off_c, 0, 63, 64
1, 25236, Note_off_c, 0, 59, 64
1, 25304, Note_off_c, 0, 82, 64
1, 25308, Note_on_c, 0, 83, 42
1, 25400, Note_on_c, 0, 69, 16
1, 25420, Note_on_c, 0, 81, 32
1, 25428, Note_on_c, 0, 59, 28
1, 25428, Note_on_c, 0, 63, 32
1, 25456, Note_off_c, 0, 83, 64
1, 25536, Note_on_c, 0, 82, 37
1, 25556, Note_off_c, 0, 81, 64
1, 25668, Note_off_c, 0, 69, 64
1, 25668, Note_on_c, 0, 80, 39
1, 25680, Note_off_c, 0, 59, 64
1, 25688, Note_off_c, 0, 82, 64
1, 25696, Note_off_c, 0, 63, 64
1, 25796, Note_on_c, 0, 81, 39
1, 25816, Note_off_c, 0, 80, 64
1, 25820, Note_on_c, 0, 52, 39
1, 25952, Note_on_c, 0, 79, 37
1, 25972, Note_off_c, 0, 81, 64
1, 26096, Note_on_c, 0, 78, 35
1, 26120, Note_off_c, 0, 79, 64
1, 26324, Note_on_c, 0, 55, 20
1, 26328, Note_on_c, 0, 76, 42
1, 26332, Note_on_c, 0, 59, 20
1, 26348, Note_on_c, 0, 67, 10
1, 26356, Note_off_c, 0, 78, 64
1, 26440, Control_c, 0, 64, 0
1, 26508, Control_c, 0, 64, 127
1, 26752, Note_off_c, 0, 55, 64
1, 26764, Note_off_c, 0, 59, 64
1, 26780, Note_off_c, 0, 67, 64
1, 26812, Note_off_c, 0, 52, 64
1, 27232, Note_on_c, 0, 43, 35
1, 27248, Note_on_c, 0, 65, 31
1, 27480, Note_on_c, 0, 74, 33
1, 27520, Note_off_c, 0, 76, 64
1, 27672, Note_on_c, 0, 71, 37
1, 27672, Note_on_c, 0, 55, 33
1, 27680, Note_on_c, 0, 62, 31
1, 27712, Note_off_c, 0, 74, 64
1, 27716, Note_off_c, 0, 43, 64
1, 27788, Note_off_c, 0, 55, 64
1, 27788, Note_off_c, 0, 62, 64
1, 27808, Note_off_c, 0, 65, 64
1, 28020, Note_on_c, 0, 69, 40
1, 28028, Note_on_c, 0, 62, 36
1, 28028, Note_on_c, 0, 55, 36
1, 28048, Note_on_c, 0, 65, 19
1, 28052, Note_off_c, 0, 71, 64
1, 28132, Note_off_c, 0, 62, 64
1, 28152, Note_off_c, 0, 65, 64
1, 28272, Note_on_c, 0, 71, 32
1, 28276, Note_off_c, 0, 69, 64
1, 28300, Note_on_c, 0, 69, 40
1, 28332, Note_on_c, 0, 48, 27
1, 28348, Note_off_c, 0, 71, 64
1, 28352, Note_on_c, 0, 64, 41
1, 28356, Note_on_c, 0, 67, 40
1, 28392, Note_off_c, 0, 69, 64
1, 28396, Control_c, 0, 64, 0
1, 28408, Note_off_c, 0, 55, 64
1, 28440, Note_off_c, 0, 48, 64
1, 28440, Control_c, 0, 64, 127
1, 28524, Note_off_c, 0, 64, 64
1, 28696, Note_on_c, 0, 64, 40
1, 28700, Note_on_c, 0, 55, 36
1, 28708, Note_on_c, 0, 48, 31
1, 28828, Note_off_c, 0, 48, 64
1, 28840, Note_off_c, 0, 55, 64
1, 28868, Note_off_c, 0, 64, 64
1, 28892, Note_off_c, 0, 67, 64
1, 29004, Note_on_c, 0, 76, 46
1, 29004, Note_on_c, 0, 64, 41
1, 29016, Note_on_c, 0, 55, 27
1, 29024, Note_on_c, 0, 48, 20
1, 29100, Note_off_c, 0, 55, 64
1, 29176, Note_off_c, 0, 64, 64
1, 29280, Note_on_c, 0, 56, 36
1, 29360, Note_on_c, 0, 55, 39
1, 29388, Note_on_c, 0, 65, 37
1, 29396, Note_off_c, 0, 56, 64
1, 29524, Note_off_c, 0, 55, 64
1, 29556, Note_on_c, 0, 74, 37
1, 29588, Note_off_c, 0, 76, 64
1, 29620, Note_off_c, 0, 48, 64
1, 29640, Note_off_c, 0, 65, 64
1, 29692, Note_off_c, 0, 74, 64
1, 29700, Note_on_c, 0, 71, 39
1, 29716, Note_on_c, 0, 65, 37
1, 29716, Note_on_c, 0, 55, 35
1, 29732, Note_on_c, 0, 48, 27
1, 29732, Control_c, 0, 64, 0
1, 29764, Control_c, 0, 64, 127
1, 29896, Note_off_c, 0, 48, 64
1, 29916, Note_off_c, 0, 65, 64
1, 29920, Note_off_c, 0, 55, 64
1, 30036, Note_on_c, 0, 69, 35
1, 30044, Note_on_c, 0, 65, 36
1, 30044, Note_on_c, 0, 55, 36
1, 30052, Note_on_c, 0, 48, 36
1, 30072, Note_off_c, 0, 71, 64
1, 30176, Note_off_c, 0, 48, 64
1, 30228, Note_off_c, 0, 55, 64
1, 30260, Note_on_c, 0, 71, 29
1, 30272, Note_off_c, 0, 69, 64
1, 30272, Note_off_c, 0, 65, 64
1, 30308, Note_on_c, 0, 69, 40
1, 30336, Note_off_c, 0, 71, 64
1, 30348, Note_on_c, 0, 64, 29
1, 30356, Note_on_c, 0, 67, 53
1, 30356, Note_on_c, 0, 55, 33
1, 30364, Note_on_c, 0, 48, 31
1, 30376, Note_off_c, 0, 69, 64
1, 30512, Note_off_c, 0, 48, 64
1, 30524, Note_off_c, 0, 55, 64
1, 30576, Note_off_c, 0, 64, 64
1, 30692, Note_on_c, 0, 64, 41
1, 30708, Note_on_c, 0, 55, 31
1, 30716, Note_on_c, 0, 48, 33
1, 30824, Note_off_c, 0, 48, 64
1, 30836, Note_off_c, 0, 55, 64
1, 30864, Note_off_c, 0, 64, 64
1, 31028, Note_on_c, 0, 72, 40
1, 31044, Note_on_c, 0, 64, 36
1, 31048, Note_off_c, 0, 67, 64
1, 31048, Note_on_c, 0, 48, 39
1, 31060, Note_on_c, 0, 57, 24
1, 31100, Control_c, 0, 64, 0
1, 31120, Control_c, 0, 64, 127
1, 31240, Note_off_c, 0, 64, 64
1, 31252, Note_off_c, 0, 57, 64
1, 31304, Note_off_c, 0, 48, 64
1, 31380, Note_on_c, 0, 50, 40
1, 31384, Note_on_c, 0, 65, 42
1, 31400, Note_on_c, 0, 57, 36
1, 31516, Note_off_c, 0, 50, 64
1, 31588, Note_off_c, 0, 72, 64
1, 31612, Note_off_c, 0, 65, 64
1, 31624, Note_on_c, 0, 71, 41
1, 31712, Note_on_c, 0, 52, 39
1, 31724, Note_on_c, 0, 64, 37
1, 31724, Note_on_c, 0, 45, 41
1, 31724, Note_on_c, 0, 74, 46
1, 31740, Note_off_c, 0, 71, 64
1, 31772, Control_c, 0, 64, 0
1, 31784, Note_off_c, 0, 57, 64
1, 31796, Control_c, 0, 64, 127
1, 31916, Note_off_c, 0, 74, 64
1, 31916, Note_on_c, 0, 72, 40
1, 32064, Note_on_c, 0, 60, 41
1, 32076, Note_on_c, 0, 69, 42
1, 32084, Control_c, 0, 64, 0
1, 32100, Note_off_c, 0, 72, 64
1, 32108, Control_c, 0, 64, 127
1, 32236, Note_off_c, 0, 60, 64
1, 32288, Note_off_c, 0, 64, 64
1, 32404, Note_off_c, 0, 45, 64
1, 32412, Note_on_c, 0, 50, 35
1, 32420, Note_on_c, 0, 72, 41
1, 32420, Note_on_c, 0, 65, 41
1, 32424, Note_on_c, 0, 57, 39
1, 32436, Note_off_c, 0, 52, 64
1, 32448, Note_off_c, 0, 69, 64
1, 32456, Control_c, 0, 64, 0
1, 32492, Control_c, 0, 64, 127
1, 32628, Note_off_c, 0, 57, 64
1, 32640, Note_off_c, 0, 72, 64
1, 32652, Note_off_c, 0, 65, 64
1, 32660, Note_on_c, 0, 71, 23
1, 32680, Note_off_c, 0, 50, 64
1, 32736, Note_on_c, 0, 52, 35
1, 32744, Note_on_c, 0, 45, 36
1, 32748, Note_on_c, 0, 74, 46
1, 32756, Note_on_c, 0, 64, 33
1, 32772, Note_off_c, 0, 71, 64
1, 32788, Control_c, 0, 64, 0
1, 32840, Control_c, 0, 64, 127
1, 32948, Note_on_c, 0, 72, 41
1, 32956, Note_off_c, 0, 74, 64
1, 33084, Note_on_c, 0, 69, 40
1, 33100, Note_off_c, 0, 45, 64
1, 33100, Note_on_c, 0, 60, 35
1, 33148, Note_off_c, 0, 72, 64
1, 33228, Note_off_c, 0, 69, 64
1, 33244, Note_off_c, 0, 64, 64
1, 33256, Note_off_c, 0, 60, 64
1, 33420, Note_off_c, 0, 52, 64
1, 33452, Note_on_c, 0, 47, 41
1, 33452, Note_on_c, 0, 68, 33
1, 33452, Note_on_c, 0, 63, 35
1, 33464, Note_on_c, 0, 59, 19
1, 33500, Control_c, 0, 64, 0
1, 33524, Control_c, 0, 64, 127
1, 33576, Note_off_c, 0, 47, 64
1, 33664, Note_off_c, 0, 59, 64
1, 33692, Note_on_c, 0, 66, 29
1, 33696, Note_on_c, 0, 57, 36
1, 33700, Note_off_c, 0, 63, 64
1, 33708, Note_off_c, 0, 68, 64
1, 33780, Note_on_c, 0, 69, 41
1, 33796, Note_on_c, 0, 61, 36
1, 33800, Note_off_c, 0, 66, 64
1, 33828, Note_off_c, 0, 57, 64
1, 33996, Note_off_c, 0, 61, 64
1, 34020, Note_off_c, 0, 69, 64
1, 34040, Note_on_c, 0, 68, 36
1, 34044, Note_on_c, 0, 59, 31
1, 34140, Note_on_c, 0, 64, 41
1, 34144, Note_on_c, 0, 56, 39
1, 34144, Note_on_c, 0, 52, 36
1, 34176, Control_c, 0, 64, 0
1, 34188, Note_off_c, 0, 68, 64
1, 34212, Note_off_c, 0, 59, 64
1, 34216, Control_c, 0, 64, 127
1, 34248, Note_off_c, 0, 64, 64
1, 34516, Note_on_c, 0, 76, 42
1, 34528, Note_on_c, 0, 64, 41
1, 34560, Control_c, 0, 64, 0
1, 34580, Control_c, 0, 64, 127
1, 34684, Note_off_c, 0, 76, 64
1, 34724, Note_off_c, 0, 64, 64
1, 34776, Note_off_c, 0, 52, 64
1, 34892, Note_on_c, 0, 64, 36
1, 34892, Note_on_c, 0, 76, 46
1, 34904, Note_off_c, 0, 56, 64
1, 34908, Control_c, 0, 64, 0
1, 34964, Control_c, 0, 64, 127
1, 35004, Note_off_c, 0, 76, 64
1, 35052, Note_off_c, 0, 64, 64
1, 35300, Note_on_c, 0, 76, 57
1, 35316, Note_on_c, 0, 64, 41
1, 35600, Note_off_c, 0, 64, 64
1, 35764, Note_on_c, 0, 65, 35
1, 35968, Note_on_c, 0, 74, 20
1, 35992, Note_off_c, 0, 76, 64
1, 36100, Note_off_c, 0, 65, 64
1, 36156, Note_off_c, 0, 74, 64
1, 36160, Note_on_c, 0, 71, 36
1, 36164, Note_on_c, 0, 55, 36
1, 36168, Note_on_c, 0, 65, 35
1, 36180, Control_c, 0, 64, 0
1, 36212, Control_c, 0, 64, 127
1, 36272, Note_off_c, 0, 55, 64
1, 36348, Note_off_c, 0, 71, 64
1, 36368, Note_off_c, 0, 65, 64
1, 36512, Note_on_c, 0, 69, 36
1, 36516, Note_on_c, 0, 65, 31
1, 36524, Note_on_c, 0, 55, 37
1, 36688, Note_off_c, 0, 69, 64
1, 36756, Note_on_c, 0, 71, 27
1, 36776, Note_off_c, 0, 65, 64
1, 36804, Note_on_c, 0, 69, 36
1, 36840, Note_off_c, 0, 71, 64
1, 36848, Note_on_c, 0, 64, 31
1, 36852, Note_on_c, 0, 67, 31
1, 36864, Note_on_c, 0, 48, 33
1, 36880, Control_c, 0, 64, 0
1, 36900, Note_off_c, 0, 69, 64
1, 36952, Control_c, 0, 64, 127
1, 37020, Note_off_c, 0, 64, 64
1, 37060, Note_off_c, 0, 48, 64
1, 37120, Note_off_c, 0, 55, 64
1, 37200, Note_on_c, 0, 64, 40
1, 37216, Note_on_c, 0, 48, 29
1, 37220, Note_on_c, 0, 55, 27
1, 37236, Note_off_c, 0, 67, 64
1, 37300, Note_off_c, 0, 55, 64
1, 37328, Note_off_c, 0, 48, 64
1, 37408, Note_off_c, 0, 64, 64
1, 37564, Note_on_c, 0, 64, 40
1, 37568, Note_on_c, 0, 55, 31
1, 37572, Note_on_c, 0, 76, 46
1, 37580, Note_on_c, 0, 48, 27
1, 37660, Note_off_c, 0, 55, 64
1, 37708, Note_off_c, 0, 64, 64
1, 37824, Note_on_c, 0, 56, 36
1, 37904, Note_on_c, 0, 65, 42
1, 37904, Note_on_c, 0, 55, 39
1, 37924, Note_off_c, 0, 76, 64
1, 37932, Control_c, 0, 64, 0
1, 37940, Note_off_c, 0, 56, 64
1, 37972, Control_c, 0, 64, 127
1, 38100, Note_on_c, 0, 74, 37
1, 38120, Note_off_c, 0, 55, 64
1, 38148, Note_off_c, 0, 65, 64
1, 38176, Note_off_c, 0, 48, 64
1, 38244, Note_off_c, 0, 74, 64
1, 38264, Note_on_c, 0, 71, 36
1, 38264, Note_on_c, 0, 55, 37
1, 38268, Note_on_c, 0, 65, 36
1, 38268, Note_on_c, 0, 48, 31
1, 38372, Note_off_c, 0, 48, 64
1, 38388, Note_off_c, 0, 55, 64
1, 38444, Note_off_c, 0, 65, 64
1, 38504, Note_off_c, 0, 71, 64
1, 38596, Note_on_c, 0, 69, 41
1, 38596, Note_on_c, 0, 65, 35
1, 38608, Note_on_c, 0, 55, 31
1, 38612, Note_on_c, 0, 48, 24
1, 38704, Note_off_c, 0, 55, 64
1, 38704, Note_off_c, 0, 48, 64
1, 38716, Note_off_c, 0, 69, 64
1, 38812, Note_off_c, 0, 65, 64
1, 38824, Note_on_c, 0, 71, 41
1, 38880, Note_on_c, 0, 69, 41
1, 38896, Note_off_c, 0, 71, 64
1, 38920, Note_on_c, 0, 67, 41
1, 38920, Note_on_c, 0, 64, 46
1, 38940, Note_on_c, 0, 55, 31
1, 38948, Note_off_c, 0, 69, 64
1, 38948, Note_on_c, 0, 48, 31
1, 38964, Control_c, 0, 64, 0
1, 39032, Control_c, 0, 64, 127
1, 39052, Note_off_c, 0, 64, 64
1, 39112, Note_off_c, 0, 48, 64
1, 39140, Note_off_c, 0, 55, 64
1, 39284, Note_on_c, 0, 64, 41
1, 39296, Note_on_c, 0, 55, 36
1, 39312, Note_on_c, 0, 48, 24
1, 39380, Note_off_c, 0, 48, 64
1, 39388, Note_off_c, 0, 55, 64
1, 39424, Note_off_c, 0, 64, 64
1, 39660, Note_on_c, 0, 72, 44
1, 39660, Note_on_c, 0, 55, 37
1, 39660, Note_on_c, 0, 48, 36
1, 39668, Note_on_c, 0, 64, 45
1, 39732, Note_off_c, 0, 67, 64
1, 39756, Note_off_c, 0, 64, 64
1, 39876, Note_off_c, 0, 55, 64
1, 39944, Note_off_c, 0, 48, 64
1, 40020, Note_on_c, 0, 71, 39
1, 40028, Note_on_c, 0, 60, 36
1, 40032, Note_off_c, 0, 72, 64
1, 40036, Note_on_c, 0, 54, 31
1, 40036, Note_on_c, 0, 50, 36
1, 40060, Control_c, 0, 64, 0
1, 40096, Control_c, 0, 64, 127
1, 40164, Note_off_c, 0, 50, 64
1, 40180, Note_off_c, 0, 54, 64
1, 40260, Note_on_c, 0, 69, 41
1, 40308, Note_off_c, 0, 60, 64
1, 40312, Note_off_c, 0, 71, 64
1, 40368, Control_c, 0, 64, 0
1, 40376, Note_on_c, 0, 71, 46
1, 40376, Note_on_c, 0, 60, 36
1, 40376, Note_on_c, 0, 54, 36
1, 40388, Note_off_c, 0, 69, 64
1, 40388, Note_on_c, 0, 50, 35
1, 40404, Control_c, 0, 64, 127
1, 40564, Note_on_c, 0, 69, 41
1, 40576, Note_off_c, 0, 54, 64
1, 40580, Note_off_c, 0, 50, 64
1, 40620, Note_off_c, 0, 60, 64
1, 40640, Note_off_c, 0, 71, 64
1, 40732, Note_on_c, 0, 62, 42
1, 40740, Note_on_c, 0, 59, 41
1, 40748, Note_on_c, 0, 43, 31
1, 40748, Note_on_c, 0, 55, 31
1, 40760, Note_on_c, 0, 50, 20
1, 40772, Control_c, 0, 64, 0
1, 40788, Note_off_c, 0, 69, 64
1, 40796, Control_c, 0, 64, 127
1, 40876, Note_off_c, 0, 59, 64
1, 41036, Note_off_c, 0, 55, 64
1, 41088, Note_on_c, 0, 71, 41
1, 41088, Note_on_c, 0, 60, 40
1, 41088, Note_on_c, 0, 54, 20
1, 41112, Control_c, 0, 64, 0
1, 41156, Control_c, 0, 64, 127
1, 41172, Note_off_c, 0, 62, 64
1, 41312, Note_off_c, 0, 50, 64
1, 41312, Note_off_c, 0, 54, 64
1, 41340, Note_on_c, 0, 69, 41
1, 41360, Note_off_c, 0, 60, 64
1, 41376, Note_off_c, 0, 71, 64
1, 41404, Note_off_c, 0, 43, 64
1, 41432, Note_on_c, 0, 71, 41
1, 41432, Note_on_c, 0, 54, 33
1, 41436, Note_on_c, 0, 60, 41
1, 41440, Note_on_c, 0, 43, 35
1, 41452, Note_on_c, 0, 50, 35
1, 41492, Note_off_c, 0, 69, 64
1, 41636, Note_on_c, 0, 69, 39
1, 41644, Note_off_c, 0, 50, 64
1, 41660, Note_off_c, 0, 43, 64
1, 41684, Note_off_c, 0, 71, 64
1, 41692, Note_off_c, 0, 54, 64
1, 41704, Note_off_c, 0, 60, 64
1, 41804, Note_on_c, 0, 71, 45
1, 41808, Note_on_c, 0, 50, 36
1, 41808, Note_on_c, 0, 43, 33
1, 41820, Note_on_c, 0, 60, 39
1, 41820, Note_on_c, 0, 54, 33
1, 41876, Note_off_c, 0, 69, 64
1, 41976, Note_on_c, 0, 69, 35
1, 41992, Note_off_c, 0, 60, 64
1, 42004, Note_off_c, 0, 71, 64
1, 42060, Note_off_c, 0, 43, 64
1, 42072, Note_off_c, 0, 50, 64
1, 42112, Note_off_c, 0, 54, 64
1, 42148, Note_on_c, 0, 67, 41
1, 42148, Note_on_c, 0, 59, 26
1, 42156, Note_on_c, 0, 50, 29
1, 42172, Note_on_c, 0, 43, 26
1, 42196, Control_c, 0, 64, 0
1, 42204, Note_off_c, 0, 69, 64
1, 42232, Control_c, 0, 64, 127
1, 42452, Note_off_c, 0, 43, 64
1, 42512, Note_on_c, 0, 68, 57
1, 42516, Note_on_c, 0, 60, 39
1, 42520, Note_on_c, 0, 51, 36
1, 42524, Note_on_c, 0, 43, 32
1, 42548, Note_off_c, 0, 59, 64
1, 42564, Control_c, 0, 64, 0
1, 42568, Note_off_c, 0, 50, 64
1, 42572, Note_off_c, 0, 67, 64
1, 42600, Control_c, 0, 64, 127
1, 42724, Note_off_c, 0, 43, 64
1, 42856, Note_on_c, 0, 61, 41
1, 42868, Note_on_c, 0, 52, 39
1, 42872, Note_on_c, 0, 43, 29
1, 42880, Note_off_c, 0, 60, 64
1, 42880, Note_off_c, 0, 51, 64
1, 42912, Control_c, 0, 64, 0
1, 42948, Control_c, 0, 64, 127
1, 43080, Note_off_c, 0, 43, 64
1, 43216, Note_on_c, 0, 62, 40
1, 43224, Note_on_c, 0, 43, 41
1, 43228, Note_on_c, 0, 53, 41
1, 43240, Note_off_c, 0, 61, 64
1, 43244, Control_c, 0, 64, 0
1, 43252, Note_off_c, 0, 52, 64
1, 43280, Control_c, 0, 64, 127
1, 43460, Note_off_c, 0, 43, 64
1, 43552, Note_on_c, 0, 61, 39
1, 43568, Note_on_c, 0, 52, 37
1, 43572, Note_on_c, 0, 43, 20
1, 43580, Control_c, 0, 64, 0
1, 43596, Note_off_c, 0, 62, 64
1, 43608, Control_c, 0, 64, 127
1, 43616, Note_off_c, 0, 53, 64
1, 43632, Control_c, 0, 64, 0
1, 43668, Control_c, 0, 64, 127
1, 43796, Note_off_c, 0, 43, 64
1, 43900, Note_on_c, 0, 51, 29
1, 43904, Note_on_c, 0, 43, 20
1, 43908, Note_on_c, 0, 60, 28
1, 43964, Control_c, 0, 64, 0
1, 43976, Note_off_c, 0, 61, 64
1, 43992, Note_off_c, 0, 52, 64
1, 44000, Control_c, 0, 64, 127
1, 44068, Note_off_c, 0, 68, 64
1, 44108, Note_off_c, 0, 51, 64
1, 44108, Note_off_c, 0, 60, 64
1, 44128, Note_off_c, 0, 43, 64
1, 44260, Note_on_c, 0, 70, 39
1, 44268, Note_on_c, 0, 51, 35
1, 44268, Note_on_c, 0, 60, 31
1, 44268, Note_on_c, 0, 43, 36
1, 44460, Note_off_c, 0, 70, 64
1, 44476, Note_off_c, 0, 60, 64
1, 44480, Note_on_c, 0, 68, 36
1, 44504, Note_off_c, 0, 51, 64
1, 44564, Note_off_c, 0, 43, 64
1, 44580, Note_on_c, 0, 70, 46
1, 44584, Note_on_c, 0, 51, 36
1, 44604, Note_on_c, 0, 60, 35
1, 44604, Note_on_c, 0, 43, 27
1, 44636, Note_off_c, 0, 68, 64
1, 44760, Note_on_c, 0, 68, 39
1, 44792, Note_off_c, 0, 60, 64
1, 44808, Note_off_c, 0, 51, 64
1, 44820, Note_off_c, 0, 70, 64
1, 44908, Note_off_c, 0, 43, 64
1, 44920, Note_off_c, 0, 68, 64
1, 44932, Note_on_c, 0, 62, 41
1, 44944, Note_on_c, 0, 59, 31
1, 44948, Note_on_c, 0, 50, 36
1, 44948, Note_on_c, 0, 43, 39
1, 44984, Control_c, 0, 64, 0
1, 45024, Control_c, 0, 64, 127
1, 45092, Note_off_c, 0, 59, 64
1, 45204, Note_off_c, 0, 50, 64
1, 45280, Note_off_c, 0, 43, 64
1, 45292, Note_off_c, 0, 62, 64
1, 45292, Note_on_c, 0, 70, 39
1, 45304, Note_on_c, 0, 60, 39
1, 45304, Note_on_c, 0, 51, 37
1, 45312, Note_on_c, 0, 43, 31
1, 45320, Control_c, 0, 64, 0
1, 45364, Control_c, 0, 64, 127
1, 45532, Note_on_c, 0, 68, 42
1, 45540, Note_off_c, 0, 70, 64
1, 45552, Note_off_c, 0, 60, 64
1, 45568, Note_off_c, 0, 51, 64
1, 45612, Note_off_c, 0, 43, 64
1, 45636, Note_on_c, 0, 70, 52
1, 45640, Note_on_c, 0, 60, 41
1, 45640, Note_on_c, 0, 51, 37
1, 45652, Note_on_c, 0, 43, 35
1, 45656, Note_off_c, 0, 68, 64
1, 45664, Control_c, 0, 64, 0
1, 45692, Control_c, 0, 64, 127
1, 45816, Note_on_c, 0, 68, 44
1, 45828, Note_off_c, 0, 70, 64
1, 45900, Note_off_c, 0, 51, 64
1, 45916, Note_off_c, 0, 60, 64
1, 45980, Note_off_c, 0, 43, 64
1, 45984, Note_on_c, 0, 70, 49
1, 45988, Note_on_c, 0, 51, 35
1, 45996, Note_on_c, 0, 60, 45
1, 46004, Note_off_c, 0, 68, 64
1, 46012, Note_on_c, 0, 43, 23
1, 46148, Note_on_c, 0, 68, 31
1, 46184, Note_off_c, 0, 70, 64
1, 46196, Note_off_c, 0, 60, 64
1, 46212, Note_off_c, 0, 51, 64
1, 46296, Note_on_c, 0, 67, 37
1, 46312, Note_off_c, 0, 43, 64
1, 46312, Note_on_c, 0, 59, 33
1, 46320, Note_on_c, 0, 50, 36
1, 46324, Note_off_c, 0, 68, 64
1, 46340, Note_on_c, 0, 43, 26
1, 46364, Control_c, 0, 64, 0
1, 46416, Control_c, 0, 64, 127
1, 46576, Note_off_c, 0, 59, 64
1, 46604, Note_off_c, 0, 50, 64
1, 46612, Note_off_c, 0, 43, 64
1, 46652, Note_off_c, 0, 67, 64
1, 46668, Note_on_c, 0, 43, 22
1, 46676, Note_on_c, 0, 60, 35
1, 46688, Note_on_c, 0, 51, 31
1, 46688, Note_on_c, 0, 69, 54
1, 46720, Control_c, 0, 64, 0
1, 46772, Control_c, 0, 64, 127
1, 46916, Note_off_c, 0, 43, 64
1, 47000, Note_on_c, 0, 43, 20
1, 47020, Note_on_c, 0, 52, 35
1, 47036, Note_on_c, 0, 61, 40
1, 47044, Note_off_c, 0, 51, 64
1, 47076, Note_off_c, 0, 60, 64
1, 47124, Control_c, 0, 64, 0
1, 47164, Control_c, 0, 64, 127
1, 47228, Note_off_c, 0, 43, 64
1, 47360, Note_on_c, 0, 53, 36
1, 47364, Note_on_c, 0, 62, 41
1, 47372, Note_off_c, 0, 61, 64
1, 47372, Note_on_c, 0, 43, 26
1, 47380, Note_off_c, 0, 52, 64
1, 47624, Note_off_c, 0, 43, 64
1, 47700, Note_on_c, 0, 61, 39
1, 47704, Note_on_c, 0, 52, 35
1, 47716, Note_on_c, 0, 43, 20
1, 47716, Control_c, 0, 64, 0
1, 47724, Note_off_c, 0, 62, 64
1, 47756, Control_c, 0, 64, 127
1, 47764, Note_off_c, 0, 53, 64
1, 47780, Control_c, 0, 64, 0
1, 47816, Control_c, 0, 64, 127
1, 47944, Note_off_c, 0, 43, 64
1, 48040, Note_on_c, 0, 51, 35
1, 48048, Note_on_c, 0, 60, 29
1, 48052, Note_on_c, 0, 43, 20
1, 48060, Note_off_c, 0, 52, 64
1, 48080, Note_off_c, 0, 61, 64
1, 48112, Control_c, 0, 64, 0
1, 48148, Control_c, 0, 64, 127
1, 48276, Note_off_c, 0, 43, 64
1, 48388, Note_on_c, 0, 67, 37
1, 48392, Note_on_c, 0, 59, 40
1, 48400, Note_on_c, 0, 50, 36
1, 48404, Note_off_c, 0, 60, 64
1, 48404, Note_on_c, 0, 43, 35
1, 48416, Control_c, 0, 64, 0
1, 48420, Note_off_c, 0, 69, 64
1, 48428, Note_off_c, 0, 51, 64
1, 48460, Control_c, 0, 64, 127
1, 48636, Note_off_c, 0, 43, 64
1, 48720, Note_on_c, 0, 51, 36
1, 48724, Note_on_c, 0, 68, 53
1, 48732, Note_on_c, 0, 60, 39
1, 48736, Note_on_c, 0, 43, 32
1, 48748, Note_off_c, 0, 59, 64
1, 48756, Note_off_c, 0, 50, 64
1, 48772, Control_c, 0, 64, 0
1, 48776, Note_off_c, 0, 67, 64
1, 48812, Control_c, 0, 64, 127
1, 49064, Note_off_c, 0, 43, 64
1, 49064, Note_on_c, 0, 52, 36
1, 49072, Note_on_c, 0, 61, 46
1, 49096, Note_off_c, 0, 51, 64
1, 49096, Control_c, 0, 64, 0
1, 49108, Note_off_c, 0, 60, 64
1, 49112, Note_on_c, 0, 43, 20
1, 49124, Control_c, 0, 64, 127
1, 49172, Control_c, 0, 64, 0
1, 49212, Control_c, 0, 64, 127
1, 49340, Note_off_c, 0, 43, 64
1, 49388, Note_on_c, 0, 62, 40
1, 49396, Note_on_c, 0, 53, 42
1, 49420, Note_on_c, 0, 43, 20
1, 49432, Note_off_c, 0, 61, 64
1, 49436, Note_off_c, 0, 52, 64
1, 49480, Control_c, 0, 64, 0
1, 49516, Control_c, 0, 64, 127
1, 49644, Note_off_c, 0, 43, 64
1, 49716, Note_on_c, 0, 43, 31
1, 49724, Note_on_c, 0, 69, 58
1, 49724, Note_on_c, 0, 61, 46
1, 49736, Note_on_c, 0, 52, 37
1, 49772, Note_off_c, 0, 62, 64
1, 49780, Note_off_c, 0, 53, 64
1, 49792, Control_c, 0, 64, 0
1, 49824, Control_c, 0, 64, 127
1, 49832, Note_off_c, 0, 68, 64
1, 50020, Note_off_c, 0, 43, 64
1, 50072, Note_on_c, 0, 60, 37
1, 50080, Note_on_c, 0, 51, 36
1, 50112, Note_on_c, 0, 43, 20
1, 50124, Note_off_c, 0, 61, 64
1, 50136, Note_off_c, 0, 52, 64
1, 50172, Control_c, 0, 64, 0
1, 50208, Control_c, 0, 64, 127
1, 50336, Note_off_c, 0, 43, 64
1, 50404, Note_on_c, 0, 43, 20
1, 50412, Note_on_c, 0, 59, 26
1, 50424, Note_on_c, 0, 50, 28
1, 50428, Note_off_c, 0, 60, 64
1, 50428, Note_on_c, 0, 67, 31
1, 50436, Note_off_c, 0, 51, 64
1, 50460, Control_c, 0, 64, 0
1, 50476, Note_off_c, 0, 69, 64
1, 50480, Control_c, 0, 64, 127
1, 50684, Note_off_c, 0, 43, 64
1, 50740, Note_on_c, 0, 43, 15
1, 50748, Note_on_c, 0, 51, 27
1, 50764, Note_on_c, 0, 69, 41
1, 50768, Note_on_c, 0, 60, 24
1, 50780, Note_off_c, 0, 50, 64
1, 50788, Note_off_c, 0, 67, 64
1, 50820, Note_off_c, 0, 59, 64
1, 50824, Control_c, 0, 64, 0
1, 50860, Control_c, 0, 64, 127
1, 51036, Note_off_c, 0, 43, 64
1, 51084, Note_on_c, 0, 43, 15
1, 51092, Note_off_c, 0, 51, 64
1, 51096, Note_on_c, 0, 61, 31
1, 51100, Note_on_c, 0, 52, 18
1, 51116, Note_off_c, 0, 60, 64
1, 51184, Control_c, 0, 64, 0
1, 51220, Control_c, 0, 64, 127
1, 51380, Note_off_c, 0, 43, 64
1, 51444, Note_on_c, 0, 62, 28
1, 51444, Note_on_c, 0, 53, 26
1, 51444, Note_on_c, 0, 43, 15
1, 51448, Note_off_c, 0, 52, 64
1, 51452, Note_off_c, 0, 61, 64
1, 51476, Control_c, 0, 64, 0
1, 51508, Control_c, 0, 64, 127
1, 51540, Control_c, 0, 64, 0
1, 51580, Control_c, 0, 64, 127
1, 51740, Note_off_c, 0, 43, 64
1, 51768, Note_on_c, 0, 61, 33
1, 51776, Note_on_c, 0, 43, 15
1, 51780, Note_on_c, 0, 52, 29
1, 51816, Note_off_c, 0, 62, 64
1, 51840, Note_off_c, 0, 53, 64
1, 51876, Control_c, 0, 64, 0
1, 51912, Control_c, 0, 64, 127
1, 52072, Note_off_c, 0, 43, 64
1, 52108, Note_on_c, 0, 43, 15
1, 52108, Note_on_c, 0, 68, 32
1, 52116, Note_off_c, 0, 69, 64
1, 52116, Note_on_c, 0, 51, 29
1, 52124, Note_on_c, 0, 60, 31
1, 52128, Note_off_c, 0, 52, 64
1, 52136, Control_c, 0, 64, 0
1, 52144, Note_off_c, 0, 61, 64
1, 52192, Control_c, 0, 64, 127
1, 52404, Note_off_c, 0, 43, 64
1, 52424, Control_c, 0, 64, 0
1, 52460, Note_off_c, 0, 60, 64
1, 52460, Note_on_c, 0, 59, 33
1, 52460, Control_c, 0, 64, 127
1, 52464, Note_off_c, 0, 68, 64
1, 52464, Note_on_c, 0, 67, 35
1, 52480, Note_on_c, 0, 50, 31
1, 52480, Note_on_c, 0, 43, 23
1, 52492, Note_off_c, 0, 51, 64
1, 52504, Control_c, 0, 64, 0
1, 52524, Control_c, 0, 64, 127
1, 52776, Note_off_c, 0, 43, 64
1, 52788, Note_off_c, 0, 67, 64
1, 52804, Note_off_c, 0, 59, 64
1, 52804, Note_on_c, 0, 51, 36
1, 52812, Note_on_c, 0, 60, 31
1, 52820, Note_on_c, 0, 68, 36
1, 52824, Note_off_c, 0, 50, 64
1, 52828, Note_on_c, 0, 43, 23
1, 53128, Note_off_c, 0, 68, 64
1, 53140, Note_off_c, 0, 51, 64
1, 53148, Note_off_c, 0, 43, 64
1, 53160, Note_off_c, 0, 60, 64
1, 53160, Note_on_c, 0, 60, 40
1, 53160, Note_on_c, 0, 51, 33
1, 53164, Note_on_c, 0, 68, 46
1, 53172, Note_on_c, 0, 43, 31
1, 53416, Note_off_c, 0, 68, 64
1, 53428, Note_off_c, 0, 51, 64
1, 53452, Note_off_c, 0, 60, 64
1, 53472, Note_off_c, 0, 43, 64
1, 53476, Note_on_c, 0, 60, 45
1, 53480, Note_on_c, 0, 68, 50
1, 53496, Note_on_c, 0, 51, 39
1, 53500, Note_on_c, 0, 43, 36
1, 53812, Note_off_c, 0, 43, 64
1, 53820, Note_off_c, 0, 60, 64
1, 53828, Note_off_c, 0, 68, 64
1, 53836, Note_on_c, 0, 61, 44
1, 53836, Note_on_c, 0, 43, 37
1, 53844, Note_on_c, 0, 69, 42
1, 53844, Note_on_c, 0, 52, 37
1, 53848, Note_off_c, 0, 51, 64
1, 54112, Note_off_c, 0, 52, 64
1, 54116, Note_off_c, 0, 61, 64
1, 54124, Note_off_c, 0, 43, 64
1, 54124, Note_off_c, 0, 69, 64
1, 54172, Note_on_c, 0, 69, 42
1, 54176, Note_on_c, 0, 61, 48
1, 54176, Note_on_c, 0, 43, 44
1, 54180, Note_on_c, 0, 52, 42
1, 54428, Note_off_c, 0, 61, 64
1, 54468, Note_off_c, 0, 69, 64
1, 54500, Note_off_c, 0, 52, 64
1, 54516, Note_off_c, 0, 43, 64
1, 54524, Note_on_c, 0, 69, 49
1, 54528, Note_on_c, 0, 61, 49
1, 54540, Note_on_c, 0, 43, 41
1, 54540, Note_on_c, 0, 52, 41
1, 54844, Note_off_c, 0, 61, 64
1, 54852, Note_off_c, 0, 52, 64
1, 54872, Note_off_c, 0, 43, 64
1, 54884, Note_on_c, 0, 70, 48
1, 54884, Note_on_c, 0, 61, 49
1, 54892, Note_on_c, 0, 52, 41
1, 54900, Note_off_c, 0, 69, 64
1, 54900, Note_on_c, 0, 42, 55
1, 54912, Control_c, 0, 64, 0
1, 54964, Control_c, 0, 64, 127
1, 55168, Note_off_c, 0, 70, 64
1, 55176, Note_off_c, 0, 42, 64
1, 55196, Note_off_c, 0, 52, 64
1, 55200, Note_off_c, 0, 61, 64
1, 55228, Note_on_c, 0, 70, 53
1, 55232, Note_on_c, 0, 61, 59
1, 55240, Note_on_c, 0, 52, 50
1, 55240, Note_on_c, 0, 42, 50
1, 55260, Control_c, 0, 64, 0
1, 55300, Control_c, 0, 64, 127
1, 55548, Note_off_c, 0, 61, 64
1, 55556, Note_off_c, 0, 42, 64
1, 55572, Note_off_c, 0, 52, 64
1, 55600, Note_on_c, 0, 52, 45
1, 55612, Note_off_c, 0, 70, 64
1, 55612, Note_on_c, 0, 42, 53
1, 55616, Note_on_c, 0, 70, 57
1, 55616, Note_on_c, 0, 61, 54
1, 55660, Control_c, 0, 64, 0
1, 55676, Control_c, 0, 64, 127
1, 56004, Note_off_c, 0, 52, 64
1, 56012, Note_off_c, 0, 42, 64
1, 56028, Note_on_c, 0, 53, 45
1, 56036, Note_on_c, 0, 47, 52
1, 56044, Note_on_c, 0, 71, 57
1, 56044, Note_on_c, 0, 62, 57
1, 56060, Note_off_c, 0, 61, 64
1, 56088, Control_c, 0, 64, 0
1, 56092, Note_off_c, 0, 70, 64
1, 56144, Control_c, 0, 64, 127
1, 56416, Note_off_c, 0, 71, 64
1, 56424, Note_off_c, 0, 53, 64
1, 56424, Note_off_c, 0, 47, 64
1, 56468, Note_off_c, 0, 62, 64
1, 56496, Note_on_c, 0, 71, 53
1, 56508, Note_on_c, 0, 63, 58
1, 56516, Note_on_c, 0, 54, 50
1, 56520, Note_on_c, 0, 47, 54
1, 56940, Note_on_c, 0, 59, 50
1, 56968, Note_off_c, 0, 47, 64
1, 56996, Note_on_c, 0, 64, 55
1, 57012, Note_off_c, 0, 54, 64
1, 57060, Note_off_c, 0, 63, 64
1, 57068, Note_on_c, 0, 52, 54
1, 57076, Note_off_c, 0, 71, 64
1, 57076, Note_on_c, 0, 69, 67
1, 57076, Note_on_c, 0, 40, 57
1, 57104, Note_off_c, 0, 59, 64
1, 57116, Control_c, 0, 64, 0
1, 57164, Control_c, 0, 64, 127
1, 57180, Note_off_c, 0, 64, 64
1, 57492, Note_off_c, 0, 69, 64
1, 57492, Note_on_c, 0, 67, 61
1, 57556, Note_on_c, 0, 55, 45
1, 57560, Note_on_c, 0, 59, 45
1, 57572, Note_on_c, 0, 66, 67
1, 57620, Note_off_c, 0, 67, 64
1, 57676, Note_off_c, 0, 52, 64
1, 57716, Note_off_c, 0, 55, 64
1, 57740, Note_off_c, 0, 59, 64
1, 57776, Note_off_c, 0, 40, 64
1, 57916, Note_off_c, 0, 66, 64
1, 57924, Note_on_c, 0, 64, 65
1, 57924, Note_on_c, 0, 55, 42
1, 57932, Note_on_c, 0, 59, 46
1, 58264, Note_on_c, 0, 45, 37
1, 58288, Note_on_c, 0, 74, 48
1, 58304, Note_off_c, 0, 64, 64
1, 58312, Note_off_c, 0, 55, 64
1, 58316, Note_off_c, 0, 59, 64
1, 58324, Control_c, 0, 64, 0
1, 58344, Control_c, 0, 64, 127
1, 58624, Note_on_c, 0, 60, 24
1, 58628, Note_on_c, 0, 57, 24
1, 58636, Note_on_c, 0, 64, 23
1, 58756, Note_off_c, 0, 57, 64
1, 58764, Note_off_c, 0, 60, 64
1, 58776, Note_off_c, 0, 64, 64
1, 58780, Note_off_c, 0, 45, 64
1, 58932, Note_off_c, 0, 74, 64
1, 58940, Note_on_c, 0, 72, 46
1, 58964, Note_on_c, 0, 57, 29
1, 58968, Note_on_c, 0, 64, 29
1, 58968, Note_on_c, 0, 60, 32
1, 59052, Note_off_c, 0, 57, 64
1, 59088, Note_off_c, 0, 64, 64
1, 59088, Note_off_c, 0, 60, 64
1, 59284, Note_off_c, 0, 72, 64
1, 59284, Note_on_c, 0, 50, 29
1, 59292, Note_on_c, 0, 71, 41
1, 59300, Note_on_c, 0, 60, 32
1, 59308, Note_on_c, 0, 64, 29
1, 59320, Control_c, 0, 64, 0
1, 59356, Control_c, 0, 64, 127
1, 59460, Note_off_c, 0, 64, 64
1, 59496, Note_off_c, 0, 60, 64
1, 59532, Note_on_c, 0, 69, 42
1, 59588, Note_off_c, 0, 71, 64
1, 59632, Note_on_c, 0, 62, 29
1, 59632, Note_on_c, 0, 64, 39
1, 59636, Note_on_c, 0, 59, 24
1, 59644, Note_off_c, 0, 69, 64
1, 59656, Control_c, 0, 64, 0
1, 59676, Control_c, 0, 64, 127
1, 59748, Note_off_c, 0, 62, 64
1, 59776, Note_off_c, 0, 59, 64
1, 59784, Note_on_c, 0, 66, 42
1, 59812, Note_off_c, 0, 64, 64
1, 59968, Note_on_c, 0, 60, 31
1, 59968, Note_on_c, 0, 57, 29
1, 59968, Note_on_c, 0, 62, 42
1, 59972, Note_off_c, 0, 66, 64
1, 60040, Note_off_c, 0, 50, 64
1, 60088, Note_off_c, 0, 57, 64
1, 60108, Note_off_c, 0, 60, 64
1, 60224, Note_on_c, 0, 67, 42
1, 60248, Note_off_c, 0, 62, 64
1, 60284, Note_on_c, 0, 43, 41
1, 60308, Note_on_c, 0, 72, 46
1, 60316, Control_c, 0, 64, 0
1, 60356, Control_c, 0, 64, 127
1, 60380, Note_off_c, 0, 67, 64
1, 60636, Note_on_c, 0, 55, 36
1, 60644, Note_on_c, 0, 62, 32
1, 60752, Note_off_c, 0, 43, 64
1, 60836, Note_off_c, 0, 62, 64
1, 60852, Note_off_c, 0, 55, 64
1, 60976, Note_on_c, 0, 71, 36
1, 61004, Note_off_c, 0, 72, 64
1, 61256, Control_c, 0, 64, 0
1, 61272, Note_on_c, 0, 47, 49
1, 61300, Control_c, 0, 64, 127
1, 61388, Note_off_c, 0, 71, 64
1, 61524, Note_on_c, 0, 72, 42
1, 61540, Note_on_c, 0, 71, 27
1, 61588, Note_off_c, 0, 71, 64
1, 61588, Note_on_c, 0, 66, 23
1, 61592, Note_off_c, 0, 72, 64
1, 61604, Note_on_c, 0, 69, 23
1, 61612, Note_on_c, 0, 59, 23
1, 61620, Note_on_c, 0, 73, 49
1, 61640, Note_on_c, 0, 71, 29
1, 61680, Note_off_c, 0, 71, 64
1, 61696, Note_off_c, 0, 73, 64
1, 61700, Note_off_c, 0, 59, 64
1, 61716, Note_off_c, 0, 69, 64
1, 61724, Note_off_c, 0, 66, 64
1, 61744, Note_off_c, 0, 47, 64
1, 61784, Note_on_c, 0, 74, 46
1, 61784, Note_on_c, 0, 71, 41
1, 61852, Note_off_c, 0, 74, 64
1, 61856, Note_off_c, 0, 71, 64
1, 61944, Note_on_c, 0, 66, 36
1, 61952, Note_on_c, 0, 75, 50
1, 61952, Note_on_c, 0, 59, 32
1, 61960, Note_on_c, 0, 69, 29
1, 61964, Note_on_c, 0, 71, 20
1, 62276, Note_on_c, 0, 76, 45
1, 62284, Note_on_c, 0, 52, 44
1, 62288, Note_off_c, 0, 66, 64
1, 62292, Control_c, 0, 64, 0
1, 62296, Note_off_c, 0, 75, 64
1, 62296, Note_off_c, 0, 59, 64
1, 62304, Note_off_c, 0, 69, 64
1, 62308, Note_off_c, 0, 71, 64
1, 62316, Control_c, 0, 64, 127
1, 62512, Note_on_c, 0, 78, 36
1, 62536, Note_off_c, 0, 76, 64
1, 62580, Note_on_c, 0, 67, 29
1, 62592, Note_off_c, 0, 78, 64
1, 62592, Note_on_c, 0, 59, 40
1, 62604, Note_on_c, 0, 79, 44
1, 62692, Note_off_c, 0, 67, 64
1, 62696, Note_off_c, 0, 59, 64
1, 62780, Note_on_c, 0, 84, 42
1, 62860, Note_off_c, 0, 79, 64
1, 62932, Note_on_c, 0, 67, 29
1, 62940, Note_on_c, 0, 83, 45
1, 62948, Note_on_c, 0, 59, 40
1, 62992, Note_off_c, 0, 52, 64
1, 63116, Note_off_c, 0, 84, 64
1, 63120, Note_off_c, 0, 67, 64
1, 63228, Note_off_c, 0, 83, 64
1, 63240, Note_on_c, 0, 82, 53
1, 63256, Control_c, 0, 64, 0
1, 63268, Note_on_c, 0, 52, 41
1, 63276, Note_off_c, 0, 59, 64
1, 63304, Control_c, 0, 64, 127
1, 63320, Note_off_c, 0, 82, 64
1, 63492, Note_on_c, 0, 78, 41
1, 63576, Note_on_c, 0, 82, 50
1, 63576, Note_on_c, 0, 61, 36
1, 63576, Note_on_c, 0, 58, 36
1, 63588, Note_on_c, 0, 66, 32
1, 63600, Note_off_c, 0, 78, 64
1, 63608, Control_c, 0, 64, 0
1, 63632, Control_c, 0, 64, 127
1, 63684, Note_off_c, 0, 82, 64
1, 63692, Note_off_c, 0, 66, 64
1, 63696, Note_off_c, 0, 61, 64
1, 63740, Note_off_c, 0, 58, 64
1, 63844, Note_on_c, 0, 81, 40
1, 63908, Note_on_c, 0, 66, 39
1, 63916, Note_on_c, 0, 78, 49
1, 63916, Note_on_c, 0, 60, 39
1, 63928, Note_on_c, 0, 57, 32
1, 63936, Control_c, 0, 64, 0
1, 63948, Note_off_c, 0, 81, 64
1, 63972, Control_c, 0, 64, 127
1, 64084, Note_off_c, 0, 57, 64
1, 64104, Note_off_c, 0, 66, 64
1, 64212, Note_off_c, 0, 60, 64
1, 64224, Note_off_c, 0, 78, 64
1, 64228, Note_off_c, 0, 52, 64
1, 64240, Note_on_c, 0, 81, 44
1, 64244, Note_on_c, 0, 52, 41
1, 64280, Control_c, 0, 64, 0
1, 64292, Note_off_c, 0, 81, 64
1, 64316, Control_c, 0, 64, 127
1, 64484, Tempo, 500000
1, 64484, Note_on_c, 0, 78, 46
1, 64556, Note_on_c, 0, 57, 40
1, 64560, Note_on_c, 0, 81, 45
1, 64564, Note_on_c, 0, 63, 28
1, 64580, Note_off_c, 0, 78, 64
1, 64596, Control_c, 0, 64, 0
1, 64616, Control_c, 0, 64, 127
1, 64716, Note_off_c, 0, 57, 64
1, 64736, Note_off_c, 0, 63, 64
1, 64812, Note_off_c, 0, 81, 64
1, 64832, Note_on_c, 0, 79, 41
1, 64896, Note_on_c, 0, 64, 29
1, 64904, Note_on_c, 0, 55, 29
1, 64908, Note_on_c, 0, 76, 42
1, 64944, Note_off_c, 0, 79, 64
1, 64980, Note_off_c, 0, 64, 64
1, 64980, Note_off_c, 0, 55, 64
1, 65016, Note_off_c, 0, 52, 64
1, 65016, Note_off_c, 0, 76, 64
1, 65248, Note_on_c, 0, 71, 44
1, 65256, Note_on_c, 0, 47, 49
1, 65444, Note_off_c, 0, 71, 64
1, 65500, Note_on_c, 0, 72, 41
1, 65508, Note_on_c, 0, 71, 39
1, 65568, Note_off_c, 0, 71, 64
1, 65572, Note_off_c, 0, 72, 64
1, 65584, Note_on_c, 0, 66, 19
1, 65584, Note_on_c, 0, 59, 33
1, 65600, Note_on_c, 0, 73, 50
1, 65600, Note_on_c, 0, 69, 20
1, 65604, Note_on_c, 0, 71, 28
1, 65644, Note_off_c, 0, 71, 64
1, 65672, Note_off_c, 0, 73, 64
1, 65684, Note_off_c, 0, 59, 64
1, 65692, Note_off_c, 0, 66, 64
1, 65708, Note_off_c, 0, 69, 64
1, 65716, Note_off_c, 0, 47, 64
1, 65740, Note_on_c, 0, 74, 48
1, 65748, Note_on_c, 0, 71, 42
1, 65808, Note_off_c, 0, 74, 64
1, 65812, Note_off_c, 0, 71, 64
1, 65916, Note_on_c, 0, 75, 57
1, 65920, Note_on_c, 0, 66, 41
1, 65920, Note_on_c, 0, 59, 39
1, 65928, Note_on_c, 0, 69, 36
1, 66004, Tempo, 500000
1, 66228, Note_off_c, 0, 59, 64
1, 66228, Note_off_c, 0, 66, 64
1, 66236, Note_off_c, 0, 69, 64
1, 66244, Note_on_c, 0, 76, 42
1, 66264, Note_on_c, 0, 52, 45
1, 66268, Note_off_c, 0, 75, 64
1, 66316, Note_off_c, 0, 76, 64
1, 66436, Note_on_c, 0, 91, 58
1, 66528, Note_off_c, 0, 91, 64
1, 66572, Note_on_c, 0, 90, 58
1, 66592, Note_on_c, 0, 91, 65
1, 66612, Note_on_c, 0, 67, 46
1, 66616, Note_on_c, 0, 59, 57
1, 66628, Note_off_c, 0, 90, 64
1, 66636, Control_c, 0, 64, 0
1, 66652, Note_on_c, 0, 90, 63
1, 66676, Control_c, 0, 64, 127
1, 66688, Note_off_c, 0, 91, 64
1, 66800, Note_on_c, 0, 88, 27
1, 66836, Note_off_c, 0, 59, 64
1, 66868, Note_off_c, 0, 90, 64
1, 66888, Note_off_c, 0, 67, 64
1, 66932, Note_off_c, 0, 52, 64
1, 66964, Note_on_c, 0, 84, 57
1, 66992, Note_off_c, 0, 88, 64
1, 67120, Note_on_c, 0, 83, 54
1, 67168, Note_off_c, 0, 84, 64
1, 67296, Note_on_c, 0, 52, 32
1, 67304, Note_on_c, 0, 82, 37
1, 67316, Control_c, 0, 64, 0
1, 67344, Note_off_c, 0, 83, 64
1, 67356, Control_c, 0, 64, 127
1, 67460, Note_on_c, 0, 83, 39
1, 67504, Note_off_c, 0, 82, 64
1, 67616, Note_on_c, 0, 63, 15
1, 67624, Note_on_c, 0, 84, 35
1, 67632, Note_on_c, 0, 59, 26
1, 67644, Note_off_c, 0, 83, 64
1, 67644, Note_on_c, 0, 71, 13
1, 67656, Control_c, 0, 64, 0
1, 67684, Control_c, 0, 64, 127
1, 67756, Note_off_c, 0, 63, 64
1, 67756, Note_off_c, 0, 59, 64
1, 67768, Note_on_c, 0, 82, 44
1, 67776, Note_off_c, 0, 52, 64
1, 67812, Note_off_c, 0, 84, 64
1, 67816, Note_off_c, 0, 71, 64
1, 67920, Note_off_c, 0, 82, 64
1, 67924, Note_on_c, 0, 83, 36
1, 67960, Note_on_c, 0, 63, 24
1, 67972, Note_on_c, 0, 71, 18
1, 67976, Note_on_c, 0, 59, 23
1, 68040, Note_on_c, 0, 78, 44
1, 68056, Note_off_c, 0, 83, 64
1, 68148, Note_off_c, 0, 71, 64
1, 68148, Note_on_c, 0, 81, 37
1, 68164, Note_off_c, 0, 63, 64
1, 68164, Note_off_c, 0, 59, 64
1, 68192, Note_off_c, 0, 78, 64
1, 68280, Note_on_c, 0, 79, 39
1, 68292, Note_on_c, 0, 52, 26
1, 68312, Control_c, 0, 64, 0
1, 68320, Note_off_c, 0, 81, 64
1, 68348, Control_c, 0, 64, 127
1, 68460, Note_off_c, 0, 79, 64
1, 68484, Note_on_c, 0, 91, 33
1, 68596, Note_off_c, 0, 91, 64
1, 68612, Note_on_c, 0, 90, 36
1, 68672, Note_off_c, 0, 90, 64
1, 68688, Note_on_c, 0, 91, 39
1, 68720, Note_on_c, 0, 59, 20
1, 68720, Note_on_c, 0, 67, 14
1, 68732, Note_on_c, 0, 90, 36
1, 68740, Control_c, 0, 64, 0
1, 68760, Control_c, 0, 64, 127
1, 68780, Note_off_c, 0, 91, 64
1, 68880, Note_on_c, 0, 88, 28
1, 68920, Note_off_c, 0, 90, 64
1, 68928, Note_off_c, 0, 52, 64
1, 69064, Note_on_c, 0, 84, 32
1, 69100, Note_off_c, 0, 88, 64
1, 69120, Note_off_c, 0, 67, 64
1, 69204, Note_on_c, 0, 83, 28
1, 69236, Note_off_c, 0, 59, 64
1, 69252, Note_off_c, 0, 84, 64
1, 69384, Note_on_c, 0, 52, 26
1, 69396, Note_on_c, 0, 82, 29
1, 69404, Control_c, 0, 64, 0
1, 69424, Control_c, 0, 64, 127
1, 69440, Note_off_c, 0, 83, 64
1, 69580, Note_on_c, 0, 83, 32
1, 69600, Note_off_c, 0, 82, 64
1, 69752, Note_on_c, 0, 59, 19
1, 69756, Note_on_c, 0, 84, 29
1, 69756, Note_on_c, 0, 71, 11
1, 69764, Note_on_c, 0, 63, 9
1, 69768, Note_on_c, 0, 69, 13
1, 69808, Note_off_c, 0, 83, 64
1, 69876, Note_off_c, 0, 52, 64
1, 69876, Note_on_c, 0, 82, 36
1, 69916, Note_off_c, 0, 59, 64
1, 69936, Note_off_c, 0, 84, 64
1, 69948, Note_off_c, 0, 63, 64
1, 69956, Note_off_c, 0, 69, 64
1, 69972, Note_off_c, 0, 71, 64
1, 70060, Note_on_c, 0, 83, 32
1, 70080, Note_on_c, 0, 63, 20
1, 70084, Note_off_c, 0, 82, 64
1, 70084, Note_on_c, 0, 59, 20
1, 70092, Note_on_c, 0, 71, 11
1, 70096, Note_on_c, 0, 69, 13
1, 70192, Note_on_c, 0, 78, 32
1, 70228, Note_off_c, 0, 83, 64
1, 70236, Note_off_c, 0, 69, 64
1, 70248, Note_off_c, 0, 63, 64
1, 70264, Note_off_c, 0, 71, 64
1, 70268, Note_off_c, 0, 59, 64
1, 70340, Note_on_c, 0, 81, 23
1, 70396, Note_off_c, 0, 78, 64
1, 70476, Note_on_c, 0, 52, 35
1, 70484, Note_on_c, 0, 79, 39
1, 70524, Tempo, 500000
1, 70524, Note_off_c, 0, 81, 64
1, 70668, Note_on_c, 0, 100, 52
1, 70756, Note_off_c, 0, 79, 64
1, 70772, Note_off_c, 0, 100, 64
1, 70816, Note_on_c, 0, 96, 58
1, 70856, Note_on_c, 0, 98, 67
1, 70892, Note_on_c, 0, 64, 46
1, 70900, Note_on_c, 0, 59, 46
1, 70904, Note_off_c, 0, 96, 64
1, 70904, Note_on_c, 0, 71, 29
1, 70908, Note_on_c, 0, 67, 29
1, 70920, Note_on_c, 0, 96, 42
1, 70956, Note_off_c, 0, 98, 64
1, 71040, Note_on_c, 0, 95, 54
1, 71096, Note_off_c, 0, 96, 64
1, 71208, Note_on_c, 0, 91, 63
1, 71264, Note_off_c, 0, 95, 64
1, 71348, Note_on_c, 0, 88, 54
1, 71452, Note_off_c, 0, 91, 64
1, 71468, Note_off_c, 0, 52, 64
1, 71484, Note_on_c, 0, 84, 44
1, 71508, Note_off_c, 0, 64, 64
1, 71520, Note_off_c, 0, 59, 64
1, 71544, Note_off_c, 0, 88, 64
1, 71552, Note_off_c, 0, 71, 64
1, 71556, Note_off_c, 0, 67, 64
1, 71608, Note_on_c, 0, 83, 39
1, 71668, Note_off_c, 0, 84, 64
1, 71756, Note_on_c, 0, 52, 46
1, 71764, Note_on_c, 0, 82, 45
1, 71820, Note_off_c, 0, 83, 64
1, 71992, Note_on_c, 0, 78, 27
1, 72012, Note_off_c, 0, 82, 64
1, 72164, Note_on_c, 0, 84, 48
1, 72180, Note_on_c, 0, 71, 23
1, 72180, Note_on_c, 0, 63, 26
1, 72180, Note_on_c, 0, 59, 27
1, 72188, Note_on_c, 0, 69, 20
1, 72228, Control_c, 0, 64, 0
1, 72232, Note_off_c, 0, 78, 64
1, 72252, Control_c, 0, 64, 127
1, 72292, Note_on_c, 0, 82, 52
1, 72352, Note_off_c, 0, 84, 64
1, 72420, Note_off_c, 0, 59, 64
1, 72444, Note_on_c, 0, 83, 42
1, 72460, Note_off_c, 0, 63, 64
1, 72468, Note_off_c, 0, 69, 64
1, 72468, Note_off_c, 0, 71, 64
1, 72548, Note_off_c, 0, 82, 64
1, 72612, Note_on_c, 0, 81, 44
1, 72628, Note_on_c, 0, 71, 15
1, 72628, Note_on_c, 0, 69, 15
1, 72628, Note_on_c, 0, 63, 19
1, 72644, Note_on_c, 0, 59, 11
1, 72676, Note_off_c, 0, 83, 64
1, 72756, Note_on_c, 0, 82, 46
1, 72824, Note_off_c, 0, 81, 64
1, 72920, Note_off_c, 0, 69, 64
1, 72920, Note_off_c, 0, 63, 64
1, 72924, Note_on_c, 0, 80, 37
1, 72932, Note_off_c, 0, 71, 64
1, 72956, Note_off_c, 0, 59, 64
1, 72980, Note_off_c, 0, 82, 64
1, 72996, Note_off_c, 0, 52, 64
1, 73108, Note_on_c, 0, 81, 37
1, 73124, Note_on_c, 0, 52, 36
1, 73156, Note_off_c, 0, 80, 64
1, 73308, Note_on_c, 0, 79, 35
1, 73360, Note_off_c, 0, 81, 64
1, 73512, Note_on_c, 0, 78, 35
1, 73556, Note_off_c, 0, 79, 64
1, 73800, Note_on_c, 0, 76, 32
1, 73812, Note_off_c, 0, 78, 64
1, 73812, Note_on_c, 0, 59, 18
1, 73824, Note_on_c, 0, 67, 11
1, 73920, Control_c, 0, 64, 0
1, 74008, Control_c, 0, 64, 127
1, 74108, Control_c, 0, 64, 0
1, 74232, Control_c, 0, 64, 127
1, 74764, Control_c, 0, 64, 0
1, 74928, Control_c, 0, 64, 127
1, 75984, Note_off_c, 0, 52, 64
1, 75984, Note_off_c, 0, 59, 64
1, 75984, Note_off_c, 0, 76, 64
1, 75992, Note_off_c, 0, 67, 64
1, 76052, Control_c, 0, 64, 0
1, 76052, End_track
2, 0, Start_track
2, 1, Copyright_t, "__________________________________________________________\012\012KUNSTDERFUGE.COM GREAT CLASSICAL MIDI COLLECTION\012__________________________________________________________\012\012KUNST-DER-FUGE CONTRIBUTOR's PROPERTY\012Copyright by Contributor & Kunst der Fuge, © 2006\012\012Contributors' list: http://kunstderfuge.com/thanks.htm\012Terms and conditions: http://kunstderfuge.com/notes.htm\012__________________________________________________________\012\012NO WEBSITE MAY PUBLISH THIS FILE WITHOUT PERMISSION\012NO COMMERCIAL USE ALLOWED, NOR BY SALES NOR by eBay!\012PLEASE REPORT ANY ABUSE TO INFO@ONCLASSICAL.COM\012__________________________________________________________\012\012Thousands of free classical MIDI files at kunstderfuge.com"
2, 1, End_track
0, 0, End_of_file
