0, 0, Header, 0, 2, 384
1, 0, Start_track
1, 0, Title_t, "Chopin's Mazurkas (played by © Ron Lubetsky)"
1, 0, Time_signature, 4, 2, 96, 8
1, 0, Sequencer_specific, 3, 0, 0, 65
1, 0, Tempo, 500000
1, 80, Note_on_c, 0, 48, 55
1, 132, Control_c, 0, 64, 0
1, 172, Control_c, 0, 64, 127
1, 464, Note_off_c, 0, 48, 64
1, 516, Note_on_c, 0, 64, 34
1, 520, Note_on_c, 0, 58, 34
1, 640, Note_on_c, 0, 73, 78
1, 728, Note_off_c, 0, 64, 64
1, 732, Note_off_c, 0, 58, 64
1, 1136, Note_on_c, 0, 58, 37
1, 1140, Note_on_c, 0, 64, 25
1, 1248, Note_off_c, 0, 58, 64
1, 1248, Note_off_c, 0, 64, 64
1, 1568, Note_on_c, 0, 48, 45
1, 1800, Note_on_c, 0, 72, 54
1, 1872, Note_off_c, 0, 73, 64
1, 1952, Note_off_c, 0, 48, 64
1, 2048, Note_on_c, 0, 56, 47
1, 2048, Note_on_c, 0, 65, 39
1, 2124, Control_c, 0, 64, 0
1, 2140, Note_on_c, 0, 70, 55
1, 2152, Note_off_c, 0, 72, 64
1, 2196, Control_c, 0, 64, 127
1, 2256, Note_off_c, 0, 56, 64
1, 2256, Note_off_c, 0, 65, 64
1, 2288, Note_on_c, 0, 68, 60
1, 2360, Note_off_c, 0, 70, 64
1, 2432, Note_on_c, 0, 60, 28
1, 2440, Note_on_c, 0, 56, 46
1, 2456, Note_on_c, 0, 67, 47
1, 2488, Note_off_c, 0, 68, 64
1, 2540, Note_off_c, 0, 60, 64
1, 2548, Note_off_c, 0, 56, 64
1, 2624, Note_on_c, 0, 65, 46
1, 2668, Note_off_c, 0, 67, 64
1, 2788, Note_on_c, 0, 48, 47
1, 2788, Note_on_c, 0, 67, 54
1, 2804, Control_c, 0, 64, 0
1, 2812, Note_off_c, 0, 65, 64
1, 2856, Control_c, 0, 64, 127
1, 2944, Note_on_c, 0, 60, 66
1, 2964, Note_off_c, 0, 67, 64
1, 3120, Note_on_c, 0, 72, 85
1, 3128, Note_on_c, 0, 58, 44
1, 3144, Note_on_c, 0, 64, 46
1, 3152, Note_off_c, 0, 60, 64
1, 3172, Note_off_c, 0, 48, 64
1, 3172, Control_c, 0, 64, 0
1, 3224, Control_c, 0, 64, 127
1, 3336, Note_off_c, 0, 58, 64
1, 3356, Note_off_c, 0, 64, 64
1, 3516, Note_on_c, 0, 64, 35
1, 3520, Note_on_c, 0, 58, 47
1, 3628, Note_off_c, 0, 64, 64
1, 3628, Note_off_c, 0, 58, 64
1, 3700, Note_on_c, 0, 67, 66
1, 3740, Note_off_c, 0, 72, 64
1, 3940, Note_on_c, 0, 68, 84
1, 3968, Note_on_c, 0, 41, 67
1, 4016, Note_off_c, 0, 67, 64
1, 4036, Control_c, 0, 64, 0
1, 4088, Control_c, 0, 64, 127
1, 4280, Note_on_c, 0, 72, 77
1, 4332, Note_off_c, 0, 68, 64
1, 4352, Note_off_c, 0, 41, 64
1, 4396, Note_on_c, 0, 77, 85
1, 4412, Note_on_c, 0, 60, 37
1, 4416, Note_on_c, 0, 56, 22
1, 4424, Note_on_c, 0, 65, 30
1, 4440, Note_off_c, 0, 72, 64
1, 4464, Control_c, 0, 64, 0
1, 4536, Control_c, 0, 64, 127
1, 4620, Note_off_c, 0, 60, 64
1, 4624, Note_off_c, 0, 56, 64
1, 4632, Note_off_c, 0, 65, 64
1, 4836, Note_on_c, 0, 61, 39
1, 4836, Note_on_c, 0, 56, 28
1, 4848, Note_on_c, 0, 65, 39
1, 5096, Note_off_c, 0, 61, 64
1, 5096, Note_off_c, 0, 56, 64
1, 5112, Note_off_c, 0, 65, 64
1, 5308, Note_on_c, 0, 43, 75
1, 5348, Control_c, 0, 64, 0
1, 5416, Control_c, 0, 64, 127
1, 5540, Note_off_c, 0, 77, 64
1, 5692, Note_off_c, 0, 43, 64
1, 5724, Note_on_c, 0, 51, 45
1, 5748, Note_on_c, 0, 61, 34
1, 5748, Note_on_c, 0, 58, 59
1, 5804, Note_on_c, 0, 77, 91
1, 5832, Control_c, 0, 64, 0
1, 5904, Control_c, 0, 64, 127
1, 5936, Note_off_c, 0, 51, 64
1, 5960, Note_off_c, 0, 61, 64
1, 5960, Note_off_c, 0, 58, 64
1, 6128, Note_on_c, 0, 61, 39
1, 6144, Note_on_c, 0, 58, 28
1, 6144, Note_on_c, 0, 51, 44
1, 6240, Note_off_c, 0, 61, 64
1, 6252, Note_off_c, 0, 58, 64
1, 6256, Note_off_c, 0, 51, 64
1, 6496, Note_on_c, 0, 44, 50
1, 6556, Control_c, 0, 64, 0
1, 6624, Control_c, 0, 64, 127
1, 6688, Note_on_c, 0, 75, 63
1, 6732, Note_off_c, 0, 77, 64
1, 6880, Note_off_c, 0, 44, 64
1, 6884, Note_on_c, 0, 51, 39
1, 6888, Note_on_c, 0, 73, 62
1, 6904, Note_on_c, 0, 60, 44
1, 6936, Note_off_c, 0, 75, 64
1, 6940, Control_c, 0, 64, 0
1, 7012, Control_c, 0, 64, 127
1, 7076, Note_on_c, 0, 72, 62
1, 7096, Note_off_c, 0, 51, 64
1, 7104, Note_off_c, 0, 73, 64
1, 7116, Note_off_c, 0, 60, 64
1, 7244, Note_on_c, 0, 70, 38
1, 7256, Note_off_c, 0, 72, 64
1, 7396, Note_on_c, 0, 68, 56
1, 7400, Note_off_c, 0, 70, 64
1, 7580, Note_on_c, 0, 67, 51
1, 7592, Note_on_c, 0, 46, 56
1, 7608, Note_off_c, 0, 68, 64
1, 7640, Control_c, 0, 64, 0
1, 7724, Control_c, 0, 64, 127
1, 7764, Note_on_c, 0, 66, 70
1, 7796, Note_off_c, 0, 67, 64
1, 7952, Note_on_c, 0, 70, 39
1, 7972, Note_on_c, 0, 61, 34
1, 7976, Note_off_c, 0, 46, 64
1, 7984, Note_on_c, 0, 54, 31
1, 8000, Note_off_c, 0, 66, 64
1, 8024, Control_c, 0, 64, 0
1, 8096, Control_c, 0, 64, 127
1, 8152, Note_on_c, 0, 65, 62
1, 8180, Note_off_c, 0, 61, 64
1, 8192, Note_off_c, 0, 54, 64
1, 8224, Note_off_c, 0, 70, 64
1, 8352, Note_on_c, 0, 68, 43
1, 8372, Note_on_c, 0, 58, 59
1, 8384, Note_on_c, 0, 61, 35
1, 8396, Note_off_c, 0, 65, 64
1, 8444, Control_c, 0, 64, 0
1, 8492, Control_c, 0, 64, 127
1, 8580, Note_off_c, 0, 58, 64
1, 8588, Note_on_c, 0, 66, 45
1, 8592, Note_off_c, 0, 61, 64
1, 8624, Note_off_c, 0, 68, 64
1, 8828, Note_on_c, 0, 48, 50
1, 8840, Note_on_c, 0, 65, 51
1, 8852, Note_off_c, 0, 66, 64
1, 8896, Control_c, 0, 64, 0
1, 8984, Control_c, 0, 64, 127
1, 9080, Note_on_c, 0, 64, 50
1, 9112, Note_off_c, 0, 65, 64
1, 9212, Note_off_c, 0, 48, 64
1, 9376, Note_off_c, 0, 64, 64
1, 9420, Note_on_c, 0, 64, 26
1, 9420, Note_on_c, 0, 55, 38
1, 9424, Note_on_c, 0, 60, 46
1, 9472, Control_c, 0, 64, 0
1, 9568, Control_c, 0, 64, 127
1, 9628, Note_off_c, 0, 64, 64
1, 9628, Note_off_c, 0, 55, 64
1, 9880, Note_on_c, 0, 64, 25
1, 9900, Note_on_c, 0, 55, 25
1, 9988, Note_off_c, 0, 64, 64
1, 10008, Note_off_c, 0, 55, 64
1, 10152, Note_off_c, 0, 60, 64
1, 10276, Note_on_c, 0, 60, 69
1, 10424, Note_on_c, 0, 36, 62
1, 10464, Note_on_c, 0, 73, 69
1, 10540, Note_off_c, 0, 60, 64
1, 10996, Note_off_c, 0, 73, 64
1, 11052, Note_on_c, 0, 64, 44
1, 11056, Note_on_c, 0, 58, 50
1, 11084, Note_on_c, 0, 73, 62
1, 11144, Control_c, 0, 64, 0
1, 11232, Control_c, 0, 64, 127
1, 11264, Note_off_c, 0, 64, 64
1, 11264, Note_off_c, 0, 58, 64
1, 11508, Note_on_c, 0, 58, 39
1, 11520, Note_on_c, 0, 64, 44
1, 11592, Note_off_c, 0, 36, 64
1, 11616, Note_off_c, 0, 58, 64
1, 11632, Note_off_c, 0, 64, 64
1, 11888, Note_on_c, 0, 48, 56
1, 12084, Note_on_c, 0, 72, 62
1, 12120, Note_off_c, 0, 73, 64
1, 12240, Note_on_c, 0, 56, 44
1, 12248, Note_on_c, 0, 60, 46
1, 12256, Note_on_c, 0, 70, 63
1, 12264, Note_on_c, 0, 65, 46
1, 12272, Note_off_c, 0, 48, 64
1, 12296, Note_off_c, 0, 72, 64
1, 12308, Control_c, 0, 64, 0
1, 12376, Control_c, 0, 64, 127
1, 12396, Note_on_c, 0, 68, 64
1, 12436, Note_off_c, 0, 70, 64
1, 12452, Note_off_c, 0, 56, 64
1, 12456, Note_off_c, 0, 60, 64
1, 12472, Note_off_c, 0, 65, 64
1, 12544, Note_on_c, 0, 60, 44
1, 12548, Note_on_c, 0, 56, 63
1, 12568, Note_on_c, 0, 67, 77
1, 12592, Note_off_c, 0, 68, 64
1, 12652, Note_off_c, 0, 60, 64
1, 12660, Note_off_c, 0, 56, 64
1, 12724, Note_on_c, 0, 65, 77
1, 12772, Note_off_c, 0, 67, 64
1, 12928, Note_on_c, 0, 67, 64
1, 12968, Note_off_c, 0, 65, 64
1, 12968, Note_on_c, 0, 36, 52
1, 13016, Control_c, 0, 64, 0
1, 13052, Control_c, 0, 64, 127
1, 13168, Note_on_c, 0, 60, 75
1, 13196, Note_off_c, 0, 67, 64
1, 13352, Note_off_c, 0, 36, 64
1, 13360, Note_on_c, 0, 64, 39
1, 13364, Note_on_c, 0, 58, 57
1, 13368, Note_on_c, 0, 72, 64
1, 13424, Note_off_c, 0, 60, 64
1, 13432, Control_c, 0, 64, 0
1, 13512, Control_c, 0, 64, 127
1, 13572, Note_off_c, 0, 64, 64
1, 13576, Note_off_c, 0, 58, 64
1, 13756, Note_on_c, 0, 58, 39
1, 13764, Note_on_c, 0, 64, 39
1, 13864, Note_off_c, 0, 58, 64
1, 13872, Note_off_c, 0, 64, 64
1, 13948, Note_on_c, 0, 67, 63
1, 13968, Note_off_c, 0, 72, 64
1, 14192, Note_on_c, 0, 69, 75
1, 14224, Note_off_c, 0, 67, 64
1, 14224, Note_on_c, 0, 41, 64
1, 14252, Control_c, 0, 64, 0
1, 14324, Control_c, 0, 64, 127
1, 14412, Note_on_c, 0, 72, 79
1, 14480, Note_off_c, 0, 69, 64
1, 14608, Note_off_c, 0, 41, 64
1, 14648, Note_on_c, 0, 77, 75
1, 14660, Note_on_c, 0, 53, 53
1, 14672, Note_on_c, 0, 63, 50
1, 14680, Note_off_c, 0, 72, 64
1, 14720, Control_c, 0, 64, 0
1, 14772, Control_c, 0, 64, 127
1, 14872, Note_off_c, 0, 53, 64
1, 14884, Note_off_c, 0, 63, 64
1, 15012, Note_on_c, 0, 53, 60
1, 15024, Note_on_c, 0, 57, 39
1, 15036, Note_on_c, 0, 63, 37
1, 15184, Note_on_c, 0, 76, 81
1, 15220, Note_off_c, 0, 53, 64
1, 15236, Note_off_c, 0, 57, 64
1, 15240, Note_off_c, 0, 77, 64
1, 15244, Note_off_c, 0, 63, 64
1, 15412, Note_on_c, 0, 46, 46
1, 15508, Note_on_c, 0, 75, 70
1, 15528, Control_c, 0, 64, 0
1, 15544, Note_off_c, 0, 76, 64
1, 15604, Control_c, 0, 64, 127
1, 15724, Note_on_c, 0, 74, 62
1, 15776, Note_off_c, 0, 75, 64
1, 15796, Note_off_c, 0, 46, 64
1, 15944, Note_on_c, 0, 73, 70
1, 15944, Note_on_c, 0, 61, 31
1, 15956, Note_off_c, 0, 74, 64
1, 15956, Note_on_c, 0, 65, 40
1, 15964, Note_on_c, 0, 55, 34
1, 15968, Note_on_c, 0, 53, 34
1, 15992, Control_c, 0, 64, 0
1, 16080, Control_c, 0, 64, 127
1, 16160, Note_on_c, 0, 69, 56
1, 16188, Note_off_c, 0, 73, 64
1, 16216, Note_off_c, 0, 61, 64
1, 16220, Note_off_c, 0, 65, 64
1, 16236, Note_off_c, 0, 55, 64
1, 16248, Note_off_c, 0, 53, 64
1, 16340, Note_on_c, 0, 70, 60
1, 16392, Note_off_c, 0, 69, 64
1, 16516, Note_on_c, 0, 71, 63
1, 16552, Note_off_c, 0, 70, 64
1, 16704, Note_on_c, 0, 73, 62
1, 16728, Note_on_c, 0, 48, 50
1, 16744, Note_off_c, 0, 71, 64
1, 16760, Control_c, 0, 64, 0
1, 16844, Control_c, 0, 64, 127
1, 16936, Note_on_c, 0, 75, 52
1, 16960, Note_off_c, 0, 73, 64
1, 17024, Note_on_c, 0, 73, 69
1, 17060, Note_off_c, 0, 75, 64
1, 17104, Note_on_c, 0, 56, 26
1, 17112, Note_off_c, 0, 48, 64
1, 17128, Note_on_c, 0, 72, 70
1, 17136, Note_on_c, 0, 65, 34
1, 17136, Note_on_c, 0, 60, 26
1, 17160, Note_off_c, 0, 73, 64
1, 17204, Control_c, 0, 64, 0
1, 17284, Control_c, 0, 64, 127
1, 17316, Note_off_c, 0, 56, 64
1, 17348, Note_off_c, 0, 65, 64
1, 17348, Note_off_c, 0, 60, 64
1, 17408, Note_on_c, 0, 67, 56
1, 17420, Note_off_c, 0, 72, 64
1, 17600, Note_on_c, 0, 68, 57
1, 17660, Note_off_c, 0, 67, 64
1, 17760, Note_on_c, 0, 71, 57
1, 17800, Note_off_c, 0, 68, 64
1, 17904, Note_on_c, 0, 36, 69
1, 17932, Control_c, 0, 64, 0
1, 17948, Note_on_c, 0, 73, 50
1, 17984, Note_off_c, 0, 71, 64
1, 17992, Control_c, 0, 64, 127
1, 18108, Note_on_c, 0, 72, 47
1, 18128, Note_off_c, 0, 73, 64
1, 18272, Note_on_c, 0, 55, 34
1, 18288, Note_off_c, 0, 36, 64
1, 18288, Note_on_c, 0, 64, 51
1, 18288, Note_on_c, 0, 71, 56
1, 18324, Note_off_c, 0, 72, 64
1, 18336, Control_c, 0, 64, 0
1, 18388, Control_c, 0, 64, 127
1, 18452, Note_on_c, 0, 66, 45
1, 18476, Note_off_c, 0, 71, 64
1, 18484, Note_off_c, 0, 55, 64
1, 18500, Note_off_c, 0, 64, 64
1, 18660, Note_on_c, 0, 67, 53
1, 18660, Note_on_c, 0, 58, 34
1, 18664, Note_on_c, 0, 60, 28
1, 18672, Note_on_c, 0, 64, 25
1, 18696, Note_off_c, 0, 66, 64
1, 18772, Note_off_c, 0, 58, 64
1, 18776, Note_off_c, 0, 60, 64
1, 18780, Note_off_c, 0, 64, 64
1, 18864, Note_on_c, 0, 70, 57
1, 18896, Note_off_c, 0, 67, 64
1, 19100, Note_on_c, 0, 69, 56
1, 19128, Note_on_c, 0, 41, 56
1, 19160, Note_off_c, 0, 70, 64
1, 19220, Control_c, 0, 64, 0
1, 19288, Control_c, 0, 64, 127
1, 19344, Note_on_c, 0, 68, 56
1, 19388, Note_off_c, 0, 69, 64
1, 19512, Note_off_c, 0, 41, 64
1, 19608, Note_on_c, 0, 56, 27
1, 19612, Note_on_c, 0, 65, 57
1, 19616, Note_on_c, 0, 60, 27
1, 19656, Note_off_c, 0, 68, 64
1, 19720, Control_c, 0, 64, 0
1, 19784, Control_c, 0, 64, 127
1, 19816, Note_off_c, 0, 56, 64
1, 19824, Note_off_c, 0, 60, 64
1, 20208, Note_on_c, 0, 53, 18
1, 20212, Note_on_c, 0, 56, 15
1, 20216, Note_on_c, 0, 61, 20
1, 20304, Control_c, 0, 64, 0
1, 20388, Control_c, 0, 64, 127
1, 20420, Note_off_c, 0, 53, 64
1, 20420, Note_off_c, 0, 56, 64
1, 20424, Note_off_c, 0, 61, 64
1, 20684, Note_off_c, 0, 65, 64
1, 20740, Note_on_c, 0, 63, 57
1, 20748, Control_c, 0, 64, 0
1, 20808, Control_c, 0, 64, 127
1, 21108, Note_on_c, 0, 61, 47
1, 21132, Note_on_c, 0, 51, 39
1, 21132, Note_on_c, 0, 43, 37
1, 21152, Control_c, 0, 64, 0
1, 21216, Control_c, 0, 64, 127
1, 21284, Note_off_c, 0, 43, 64
1, 21324, Note_off_c, 0, 51, 64
1, 21348, Note_off_c, 0, 61, 64
1, 21480, Note_on_c, 0, 39, 46
1, 21492, Note_on_c, 0, 55, 44
1, 21492, Note_on_c, 0, 61, 47
1, 21492, Note_on_c, 0, 65, 52
1, 21496, Note_on_c, 0, 51, 34
1, 21512, Control_c, 0, 64, 0
1, 21528, Note_off_c, 0, 63, 64
1, 21608, Control_c, 0, 64, 127
1, 21776, Note_off_c, 0, 65, 64
1, 21780, Note_on_c, 0, 63, 57
1, 21840, Note_on_c, 0, 65, 69
1, 21868, Note_off_c, 0, 63, 64
1, 21892, Control_c, 0, 64, 0
1, 21908, Note_on_c, 0, 63, 70
1, 21928, Note_off_c, 0, 39, 64
1, 21948, Control_c, 0, 64, 127
1, 21952, Note_off_c, 0, 55, 64
1, 21952, Note_off_c, 0, 61, 64
1, 21956, Note_off_c, 0, 51, 64
1, 21956, Note_off_c, 0, 65, 64
1, 22076, Note_on_c, 0, 62, 70
1, 22096, Note_off_c, 0, 63, 64
1, 22216, Note_on_c, 0, 63, 79
1, 22240, Note_on_c, 0, 51, 38
1, 22240, Note_on_c, 0, 44, 52
1, 22248, Note_off_c, 0, 62, 64
1, 22252, Note_on_c, 0, 60, 45
1, 22276, Control_c, 0, 64, 0
1, 22340, Control_c, 0, 64, 127
1, 22508, Note_off_c, 0, 51, 64
1, 22508, Note_off_c, 0, 44, 64
1, 22520, Note_off_c, 0, 60, 64
1, 22680, Note_on_c, 0, 51, 37
1, 22688, Note_on_c, 0, 72, 79
1, 22696, Note_on_c, 0, 44, 46
1, 22700, Note_on_c, 0, 60, 52
1, 22712, Note_off_c, 0, 63, 64
1, 22760, Control_c, 0, 64, 0
1, 22852, Control_c, 0, 64, 127
1, 23028, Note_off_c, 0, 44, 64
1, 23064, Note_off_c, 0, 51, 64
1, 23064, Note_on_c, 0, 70, 79
1, 23088, Note_off_c, 0, 72, 64
1, 23116, Note_off_c, 0, 60, 64
1, 23424, Note_on_c, 0, 61, 52
1, 23432, Note_on_c, 0, 58, 50
1, 23432, Note_on_c, 0, 65, 59
1, 23440, Note_on_c, 0, 44, 38
1, 23468, Note_on_c, 0, 51, 26
1, 23488, Control_c, 0, 64, 0
1, 23560, Control_c, 0, 64, 127
1, 23668, Note_off_c, 0, 61, 64
1, 23672, Note_off_c, 0, 58, 64
1, 23672, Note_off_c, 0, 65, 64
1, 23684, Note_off_c, 0, 44, 64
1, 23712, Note_off_c, 0, 51, 64
1, 23792, Note_on_c, 0, 72, 75
1, 23792, Note_on_c, 0, 44, 44
1, 23804, Note_on_c, 0, 61, 57
1, 23804, Note_on_c, 0, 58, 37
1, 23808, Note_off_c, 0, 70, 64
1, 23808, Note_on_c, 0, 51, 35
1, 23816, Note_on_c, 0, 67, 59
1, 23848, Control_c, 0, 64, 0
1, 23944, Control_c, 0, 64, 127
1, 24052, Note_on_c, 0, 68, 62
1, 24088, Note_off_c, 0, 72, 64
1, 24096, Note_on_c, 0, 70, 77
1, 24104, Note_off_c, 0, 68, 64
1, 24152, Control_c, 0, 64, 0
1, 24164, Note_off_c, 0, 44, 64
1, 24164, Note_on_c, 0, 68, 84
1, 24176, Note_off_c, 0, 61, 64
1, 24176, Note_off_c, 0, 58, 64
1, 24180, Note_off_c, 0, 51, 64
1, 24188, Note_off_c, 0, 67, 64
1, 24200, Note_off_c, 0, 70, 64
1, 24220, Control_c, 0, 64, 127
1, 24400, Note_on_c, 0, 67, 70
1, 24440, Note_off_c, 0, 68, 64
1, 24504, Note_on_c, 0, 60, 69
1, 24508, Note_on_c, 0, 44, 52
1, 24512, Note_on_c, 0, 68, 79
1, 24516, Note_on_c, 0, 51, 57
1, 24528, Control_c, 0, 64, 0
1, 24552, Note_off_c, 0, 67, 64
1, 24592, Control_c, 0, 64, 127
1, 24736, Note_off_c, 0, 60, 64
1, 24744, Note_off_c, 0, 44, 64
1, 24752, Note_off_c, 0, 51, 64
1, 24760, Note_on_c, 0, 44, 63
1, 24856, Note_on_c, 0, 51, 45
1, 24900, Note_on_c, 0, 60, 63
1, 24904, Note_on_c, 0, 75, 72
1, 24916, Note_on_c, 0, 63, 64
1, 24952, Control_c, 0, 64, 0
1, 24960, Note_off_c, 0, 68, 64
1, 25016, Control_c, 0, 64, 127
1, 25144, Note_off_c, 0, 44, 64
1, 25152, Note_off_c, 0, 60, 64
1, 25176, Note_off_c, 0, 75, 64
1, 25192, Note_off_c, 0, 63, 64
1, 25264, Note_off_c, 0, 51, 64
1, 25304, Note_on_c, 0, 63, 84
1, 25340, Control_c, 0, 64, 0
1, 25404, Control_c, 0, 64, 127
1, 25632, Note_on_c, 0, 39, 39
1, 25644, Note_on_c, 0, 51, 35
1, 25648, Note_on_c, 0, 61, 53
1, 25664, Note_on_c, 0, 55, 44
1, 25896, Note_off_c, 0, 39, 64
1, 25912, Note_off_c, 0, 51, 64
1, 25916, Note_off_c, 0, 61, 64
1, 25932, Note_off_c, 0, 55, 64
1, 25992, Note_on_c, 0, 65, 69
1, 25996, Note_on_c, 0, 61, 53
1, 26000, Note_on_c, 0, 39, 52
1, 26000, Note_on_c, 0, 55, 52
1, 26004, Note_on_c, 0, 51, 51
1, 26032, Control_c, 0, 64, 0
1, 26040, Note_off_c, 0, 63, 64
1, 26080, Control_c, 0, 64, 127
1, 26252, Note_on_c, 0, 63, 79
1, 26264, Note_off_c, 0, 65, 64
1, 26316, Note_on_c, 0, 65, 70
1, 26344, Note_off_c, 0, 63, 64
1, 26356, Control_c, 0, 64, 0
1, 26360, Note_off_c, 0, 61, 64
1, 26368, Note_off_c, 0, 39, 64
1, 26368, Note_off_c, 0, 55, 64
1, 26368, Note_off_c, 0, 51, 64
1, 26368, Note_on_c, 0, 63, 79
1, 26408, Control_c, 0, 64, 127
1, 26428, Note_off_c, 0, 65, 64
1, 26512, Note_on_c, 0, 62, 78
1, 26536, Note_off_c, 0, 63, 64
1, 26664, Note_on_c, 0, 63, 81
1, 26672, Note_on_c, 0, 60, 64
1, 26676, Note_on_c, 0, 44, 62
1, 26696, Note_off_c, 0, 62, 64
1, 26696, Note_on_c, 0, 51, 44
1, 26708, Control_c, 0, 64, 0
1, 26768, Control_c, 0, 64, 127
1, 26840, Note_on_c, 0, 43, 62
1, 26856, Note_off_c, 0, 44, 64
1, 26932, Note_off_c, 0, 51, 64
1, 26936, Note_off_c, 0, 60, 64
1, 27048, Note_on_c, 0, 68, 70
1, 27048, Note_on_c, 0, 41, 51
1, 27056, Note_on_c, 0, 60, 59
1, 27064, Note_off_c, 0, 63, 64
1, 27068, Note_on_c, 0, 53, 31
1, 27096, Note_off_c, 0, 43, 64
1, 27112, Control_c, 0, 64, 0
1, 27204, Control_c, 0, 64, 127
1, 27436, Note_on_c, 0, 67, 79
1, 27444, Note_off_c, 0, 41, 64
1, 27460, Control_c, 0, 64, 0
1, 27468, Note_off_c, 0, 68, 64
1, 27520, Control_c, 0, 64, 127
1, 27576, Note_off_c, 0, 53, 64
1, 27780, Note_on_c, 0, 43, 57
1, 27788, Note_on_c, 0, 50, 52
1, 27804, Control_c, 0, 64, 0
1, 27852, Control_c, 0, 64, 127
1, 27944, Note_on_c, 0, 59, 63
1, 27976, Note_off_c, 0, 60, 64
1, 27976, Note_off_c, 0, 67, 64
1, 28000, Note_off_c, 0, 43, 64
1, 28008, Note_off_c, 0, 50, 64
1, 28100, Note_on_c, 0, 62, 57
1, 28108, Note_on_c, 0, 55, 40
1, 28136, Note_off_c, 0, 59, 64
1, 28144, Note_on_c, 0, 50, 40
1, 28148, Note_on_c, 0, 43, 35
1, 28168, Control_c, 0, 64, 0
1, 28256, Control_c, 0, 64, 127
1, 28420, Note_off_c, 0, 62, 64
1, 28428, Note_off_c, 0, 55, 64
1, 28456, Note_on_c, 0, 67, 70
1, 28460, Note_on_c, 0, 60, 57
1, 28508, Note_off_c, 0, 50, 64
1, 28520, Note_off_c, 0, 43, 64
1, 28644, Note_on_c, 0, 59, 62
1, 28672, Note_off_c, 0, 60, 64
1, 28796, Note_on_c, 0, 57, 69
1, 28808, Note_on_c, 0, 43, 35
1, 28812, Note_on_c, 0, 50, 35
1, 28832, Note_off_c, 0, 59, 64
1, 28964, Note_on_c, 0, 59, 70
1, 28972, Note_off_c, 0, 57, 64
1, 29076, Note_off_c, 0, 43, 64
1, 29080, Note_off_c, 0, 50, 64
1, 29148, Note_on_c, 0, 62, 72
1, 29152, Note_on_c, 0, 55, 59
1, 29160, Note_off_c, 0, 67, 64
1, 29160, Note_on_c, 0, 43, 39
1, 29164, Note_on_c, 0, 50, 35
1, 29176, Note_off_c, 0, 59, 64
1, 29176, Control_c, 0, 64, 0
1, 29224, Control_c, 0, 64, 127
1, 29520, Note_off_c, 0, 62, 64
1, 29524, Note_off_c, 0, 55, 64
1, 29536, Note_off_c, 0, 43, 64
1, 29536, Note_off_c, 0, 50, 64
1, 29564, Note_on_c, 0, 61, 63
1, 29564, Note_on_c, 0, 63, 64
1, 29584, Note_on_c, 0, 56, 69
1, 29660, Control_c, 0, 64, 0
1, 29744, Note_on_c, 0, 55, 62
1, 29768, Control_c, 0, 64, 127
1, 29776, Note_off_c, 0, 56, 64
1, 29952, Note_on_c, 0, 53, 45
1, 29988, Note_off_c, 0, 55, 64
1, 30104, Note_on_c, 0, 55, 66
1, 30140, Note_off_c, 0, 53, 64
1, 30300, Note_off_c, 0, 61, 64
1, 30320, Note_on_c, 0, 39, 63
1, 30324, Note_on_c, 0, 51, 40
1, 30336, Note_off_c, 0, 55, 64
1, 30336, Note_on_c, 0, 65, 69
1, 30340, Note_on_c, 0, 61, 69
1, 30372, Note_off_c, 0, 63, 64
1, 30388, Control_c, 0, 64, 0
1, 30492, Control_c, 0, 64, 127
1, 30612, Note_off_c, 0, 61, 64
1, 30628, Note_off_c, 0, 65, 64
1, 30660, Note_on_c, 0, 63, 62
1, 30708, Note_on_c, 0, 65, 71
1, 30736, Note_off_c, 0, 63, 64
1, 30768, Note_on_c, 0, 63, 79
1, 30784, Control_c, 0, 64, 0
1, 30812, Note_off_c, 0, 65, 64
1, 30848, Control_c, 0, 64, 127
1, 30940, Note_on_c, 0, 62, 62
1, 30960, Note_off_c, 0, 39, 64
1, 30964, Note_off_c, 0, 51, 64
1, 30964, Note_off_c, 0, 63, 64
1, 31088, Note_on_c, 0, 63, 72
1, 31100, Note_on_c, 0, 60, 66
1, 31104, Note_on_c, 0, 44, 56
1, 31112, Note_off_c, 0, 62, 64
1, 31112, Note_on_c, 0, 51, 52
1, 31120, Control_c, 0, 64, 0
1, 31180, Control_c, 0, 64, 127
1, 31416, Note_off_c, 0, 60, 64
1, 31420, Note_off_c, 0, 44, 64
1, 31424, Note_off_c, 0, 51, 64
1, 31452, Note_on_c, 0, 51, 59
1, 31452, Note_on_c, 0, 44, 62
1, 31456, Note_on_c, 0, 72, 79
1, 31464, Note_on_c, 0, 60, 69
1, 31472, Note_off_c, 0, 63, 64
1, 31504, Control_c, 0, 64, 0
1, 31584, Control_c, 0, 64, 127
1, 31764, Note_off_c, 0, 60, 64
1, 31776, Note_on_c, 0, 70, 72
1, 31808, Note_off_c, 0, 51, 64
1, 31812, Control_c, 0, 64, 0
1, 31828, Note_off_c, 0, 44, 64
1, 31840, Note_off_c, 0, 72, 64
1, 31860, Control_c, 0, 64, 127
1, 32104, Note_on_c, 0, 44, 51
1, 32104, Note_on_c, 0, 61, 46
1, 32116, Note_on_c, 0, 58, 40
1, 32116, Note_on_c, 0, 65, 52
1, 32128, Note_on_c, 0, 51, 34
1, 32152, Control_c, 0, 64, 0
1, 32188, Control_c, 0, 64, 127
1, 32368, Note_off_c, 0, 44, 64
1, 32368, Note_off_c, 0, 61, 64
1, 32384, Note_off_c, 0, 58, 64
1, 32384, Note_off_c, 0, 65, 64
1, 32396, Note_off_c, 0, 51, 64
1, 32452, Note_on_c, 0, 61, 59
1, 32456, Note_on_c, 0, 72, 72
1, 32468, Note_on_c, 0, 44, 56
1, 32472, Note_on_c, 0, 67, 52
1, 32476, Note_on_c, 0, 51, 50
1, 32484, Note_on_c, 0, 58, 35
1, 32492, Control_c, 0, 64, 0
1, 32496, Note_off_c, 0, 70, 64
1, 32552, Control_c, 0, 64, 127
1, 32704, Note_on_c, 0, 68, 60
1, 32740, Note_off_c, 0, 72, 64
1, 32752, Note_on_c, 0, 70, 84
1, 32768, Note_off_c, 0, 68, 64
1, 32776, Note_off_c, 0, 61, 64
1, 32792, Note_off_c, 0, 44, 64
1, 32796, Note_off_c, 0, 67, 64
1, 32800, Note_off_c, 0, 51, 64
1, 32808, Note_off_c, 0, 58, 64
1, 32828, Note_on_c, 0, 68, 78
1, 32840, Control_c, 0, 64, 0
1, 32864, Note_off_c, 0, 70, 64
1, 32904, Control_c, 0, 64, 127
1, 33052, Note_on_c, 0, 67, 69
1, 33084, Note_off_c, 0, 68, 64
1, 33144, Note_on_c, 0, 60, 70
1, 33152, Note_on_c, 0, 68, 88
1, 33152, Note_on_c, 0, 44, 62
1, 33164, Note_on_c, 0, 56, 57
1, 33164, Note_on_c, 0, 51, 57
1, 33168, Control_c, 0, 64, 0
1, 33180, Note_off_c, 0, 67, 64
1, 33192, Control_c, 0, 64, 127
1, 33420, Note_off_c, 0, 44, 64
1, 33424, Note_off_c, 0, 60, 64
1, 33432, Note_off_c, 0, 56, 64
1, 33432, Note_off_c, 0, 51, 64
1, 33436, Note_off_c, 0, 68, 64
1, 33488, Note_on_c, 0, 77, 72
1, 33488, Note_on_c, 0, 65, 69
1, 33496, Note_on_c, 0, 44, 63
1, 33528, Note_on_c, 0, 51, 66
1, 33576, Note_on_c, 0, 60, 51
1, 33576, Note_on_c, 0, 75, 72
1, 33592, Note_on_c, 0, 63, 84
1, 33616, Control_c, 0, 64, 0
1, 33628, Note_off_c, 0, 77, 64
1, 33628, Note_off_c, 0, 65, 64
1, 33696, Control_c, 0, 64, 127
1, 33916, Note_off_c, 0, 75, 64
1, 33932, Note_off_c, 0, 63, 64
1, 33960, Note_off_c, 0, 60, 64
1, 33976, Note_off_c, 0, 44, 64
1, 33992, Note_off_c, 0, 51, 64
1, 34000, Control_c, 0, 64, 0
1, 34024, Note_on_c, 0, 63, 85
1, 34080, Control_c, 0, 64, 0
1, 34160, Control_c, 0, 64, 127
1, 34364, Note_on_c, 0, 39, 66
1, 34376, Note_on_c, 0, 61, 63
1, 34376, Note_on_c, 0, 51, 52
1, 34384, Note_on_c, 0, 55, 56
1, 34404, Control_c, 0, 64, 0
1, 34424, Control_c, 0, 64, 127
1, 34632, Note_off_c, 0, 39, 64
1, 34644, Note_off_c, 0, 61, 64
1, 34644, Note_off_c, 0, 51, 64
1, 34652, Note_off_c, 0, 55, 64
1, 34704, Note_on_c, 0, 61, 50
1, 34712, Note_on_c, 0, 51, 56
1, 34716, Note_on_c, 0, 55, 70
1, 34720, Note_on_c, 0, 65, 62
1, 34720, Note_on_c, 0, 39, 60
1, 34740, Control_c, 0, 64, 0
1, 34752, Note_off_c, 0, 63, 64
1, 34800, Control_c, 0, 64, 127
1, 34992, Note_on_c, 0, 63, 52
1, 35008, Note_off_c, 0, 65, 64
1, 35036, Note_off_c, 0, 61, 64
1, 35040, Note_on_c, 0, 65, 79
1, 35048, Note_off_c, 0, 51, 64
1, 35048, Note_off_c, 0, 55, 64
1, 35052, Note_off_c, 0, 39, 64
1, 35064, Note_off_c, 0, 63, 64
1, 35064, Control_c, 0, 64, 0
1, 35108, Note_on_c, 0, 63, 64
1, 35144, Note_off_c, 0, 65, 64
1, 35164, Control_c, 0, 64, 127
1, 35332, Note_on_c, 0, 62, 64
1, 35372, Note_off_c, 0, 63, 64
1, 35428, Note_on_c, 0, 60, 72
1, 35432, Note_on_c, 0, 63, 89
1, 35452, Note_on_c, 0, 51, 35
1, 35452, Note_on_c, 0, 44, 46
1, 35460, Note_off_c, 0, 62, 64
1, 35472, Control_c, 0, 64, 0
1, 35536, Control_c, 0, 64, 127
1, 35780, Note_off_c, 0, 60, 64
1, 35804, Note_off_c, 0, 51, 64
1, 35804, Note_off_c, 0, 44, 64
1, 35852, Note_on_c, 0, 68, 70
1, 35860, Note_on_c, 0, 41, 60
1, 35864, Note_on_c, 0, 60, 66
1, 35868, Note_on_c, 0, 50, 72
1, 35904, Note_off_c, 0, 63, 64
1, 35916, Control_c, 0, 64, 0
1, 35992, Control_c, 0, 64, 127
1, 36256, Note_on_c, 0, 67, 79
1, 36280, Note_off_c, 0, 41, 64
1, 36288, Control_c, 0, 64, 0
1, 36324, Note_off_c, 0, 68, 64
1, 36336, Note_off_c, 0, 50, 64
1, 36340, Control_c, 0, 64, 127
1, 36588, Note_on_c, 0, 50, 52
1, 36588, Note_on_c, 0, 43, 46
1, 36608, Control_c, 0, 64, 0
1, 36656, Control_c, 0, 64, 127
1, 36744, Note_on_c, 0, 59, 52
1, 36760, Note_off_c, 0, 60, 64
1, 36824, Note_off_c, 0, 67, 64
1, 36856, Note_off_c, 0, 50, 64
1, 36856, Note_off_c, 0, 43, 64
1, 36908, Note_off_c, 0, 59, 64
1, 36912, Note_on_c, 0, 62, 46
1, 36916, Note_on_c, 0, 55, 62
1, 36928, Note_on_c, 0, 50, 57
1, 36932, Note_on_c, 0, 43, 46
1, 36940, Control_c, 0, 64, 0
1, 37020, Control_c, 0, 64, 127
1, 37256, Note_on_c, 0, 60, 63
1, 37256, Note_on_c, 0, 67, 66
1, 37276, Note_off_c, 0, 62, 64
1, 37280, Note_off_c, 0, 55, 64
1, 37288, Note_off_c, 0, 50, 64
1, 37296, Note_off_c, 0, 43, 64
1, 37412, Note_on_c, 0, 59, 64
1, 37436, Note_off_c, 0, 60, 64
1, 37580, Note_on_c, 0, 43, 45
1, 37584, Note_on_c, 0, 50, 59
1, 37592, Note_on_c, 0, 57, 52
1, 37652, Note_off_c, 0, 59, 64
1, 37668, Note_off_c, 0, 43, 64
1, 37668, Note_off_c, 0, 50, 64
1, 37740, Note_on_c, 0, 59, 57
1, 37768, Note_off_c, 0, 57, 64
1, 37872, Note_on_c, 0, 62, 71
1, 37884, Note_on_c, 0, 55, 71
1, 37888, Note_off_c, 0, 59, 64
1, 37892, Note_off_c, 0, 67, 64
1, 37896, Note_on_c, 0, 43, 57
1, 37900, Note_on_c, 0, 50, 64
1, 38212, Note_off_c, 0, 50, 64
1, 38240, Note_off_c, 0, 43, 64
1, 38244, Note_on_c, 0, 69, 78
1, 38248, Note_on_c, 0, 67, 72
1, 38268, Note_off_c, 0, 62, 64
1, 38280, Note_off_c, 0, 55, 64
1, 38284, Control_c, 0, 64, 0
1, 38348, Control_c, 0, 64, 127
1, 38380, Note_on_c, 0, 66, 79
1, 38452, Note_off_c, 0, 67, 64
1, 38536, Note_on_c, 0, 64, 70
1, 38552, Note_on_c, 0, 43, 47
1, 38568, Control_c, 0, 64, 0
1, 38576, Note_off_c, 0, 66, 64
1, 38576, Note_on_c, 0, 57, 27
1, 38576, Note_on_c, 0, 50, 52
1, 38620, Note_off_c, 0, 69, 64
1, 38636, Control_c, 0, 64, 127
1, 38664, Note_on_c, 0, 66, 79
1, 38704, Note_off_c, 0, 64, 64
1, 38820, Note_off_c, 0, 43, 64
1, 38840, Note_off_c, 0, 57, 64
1, 38840, Note_off_c, 0, 50, 64
1, 38872, Note_on_c, 0, 57, 52
1, 38872, Note_on_c, 0, 43, 62
1, 38872, Note_on_c, 0, 74, 70
1, 38880, Note_on_c, 0, 62, 70
1, 38884, Note_on_c, 0, 50, 63
1, 38908, Note_off_c, 0, 66, 64
1, 39180, Note_off_c, 0, 74, 64
1, 39188, Note_off_c, 0, 62, 64
1, 39204, Note_on_c, 0, 74, 79
1, 39208, Note_on_c, 0, 72, 77
1, 39208, Control_c, 0, 64, 0
1, 39232, Note_off_c, 0, 50, 64
1, 39240, Note_off_c, 0, 43, 64
1, 39248, Note_off_c, 0, 57, 64
1, 39248, Control_c, 0, 64, 127
1, 39396, Note_on_c, 0, 71, 66
1, 39400, Note_off_c, 0, 74, 64
1, 39480, Note_on_c, 0, 74, 88
1, 39520, Note_off_c, 0, 71, 64
1, 39528, Note_off_c, 0, 72, 64
1, 39564, Note_off_c, 0, 74, 64
1, 39604, Note_on_c, 0, 69, 84
1, 39616, Note_on_c, 0, 74, 81
1, 39624, Note_on_c, 0, 59, 40
1, 39632, Note_on_c, 0, 50, 59
1, 39640, Note_on_c, 0, 43, 40
1, 39664, Control_c, 0, 64, 0
1, 39724, Control_c, 0, 64, 127
1, 39800, Note_on_c, 0, 71, 70
1, 39836, Note_off_c, 0, 69, 64
1, 39892, Note_off_c, 0, 59, 64
1, 39900, Note_off_c, 0, 50, 64
1, 39908, Note_off_c, 0, 43, 64
1, 39976, Note_on_c, 0, 59, 52
1, 39980, Note_on_c, 0, 79, 84
1, 39988, Note_on_c, 0, 43, 45
1, 39992, Note_on_c, 0, 67, 71
1, 39992, Note_on_c, 0, 50, 56
1, 40000, Note_off_c, 0, 74, 64
1, 40028, Control_c, 0, 64, 0
1, 40036, Note_off_c, 0, 71, 64
1, 40080, Control_c, 0, 64, 127
1, 40328, Note_off_c, 0, 79, 64
1, 40344, Note_off_c, 0, 67, 64
1, 40352, Note_on_c, 0, 67, 78
1, 40356, Note_on_c, 0, 65, 70
1, 40392, Note_off_c, 0, 59, 64
1, 40396, Control_c, 0, 64, 0
1, 40400, Note_off_c, 0, 43, 64
1, 40408, Note_off_c, 0, 50, 64
1, 40448, Control_c, 0, 64, 127
1, 40536, Note_on_c, 0, 64, 71
1, 40620, Note_off_c, 0, 65, 64
1, 40688, Note_on_c, 0, 62, 79
1, 40696, Note_on_c, 0, 58, 59
1, 40704, Note_on_c, 0, 48, 63
1, 40708, Note_on_c, 0, 43, 46
1, 40720, Note_off_c, 0, 64, 64
1, 40728, Control_c, 0, 64, 0
1, 40792, Control_c, 0, 64, 127
1, 40836, Note_on_c, 0, 64, 64
1, 40872, Note_off_c, 0, 62, 64
1, 40964, Note_off_c, 0, 58, 64
1, 40968, Note_off_c, 0, 48, 64
1, 40976, Note_off_c, 0, 43, 64
1, 41008, Note_on_c, 0, 58, 52
1, 41008, Note_on_c, 0, 60, 63
1, 41008, Note_on_c, 0, 43, 52
1, 41016, Note_on_c, 0, 72, 84
1, 41020, Note_on_c, 0, 48, 59
1, 41044, Note_off_c, 0, 67, 64
1, 41048, Note_off_c, 0, 64, 64
1, 41280, Note_off_c, 0, 60, 64
1, 41288, Note_off_c, 0, 72, 64
1, 41324, Note_off_c, 0, 58, 64
1, 41332, Control_c, 0, 64, 0
1, 41340, Note_on_c, 0, 70, 70
1, 41340, Note_on_c, 0, 72, 79
1, 41348, Note_off_c, 0, 43, 64
1, 41352, Note_off_c, 0, 48, 64
1, 41404, Control_c, 0, 64, 127
1, 41516, Note_on_c, 0, 68, 79
1, 41528, Note_off_c, 0, 72, 64
1, 41548, Note_off_c, 0, 70, 64
1, 41604, Note_on_c, 0, 72, 84
1, 41684, Note_off_c, 0, 72, 64
1, 41720, Note_on_c, 0, 67, 79
1, 41720, Note_on_c, 0, 72, 84
1, 41736, Note_on_c, 0, 41, 62
1, 41740, Note_on_c, 0, 56, 52
1, 41748, Note_on_c, 0, 48, 53
1, 41748, Control_c, 0, 64, 0
1, 41752, Note_off_c, 0, 68, 64
1, 41800, Control_c, 0, 64, 127
1, 41888, Note_on_c, 0, 68, 69
1, 41916, Note_off_c, 0, 72, 64
1, 41932, Note_off_c, 0, 67, 64
1, 42000, Note_off_c, 0, 41, 64
1, 42008, Note_off_c, 0, 56, 64
1, 42016, Note_off_c, 0, 48, 64
1, 42092, Note_on_c, 0, 77, 70
1, 42104, Note_on_c, 0, 56, 53
1, 42104, Note_on_c, 0, 41, 52
1, 42108, Note_off_c, 0, 68, 64
1, 42108, Note_on_c, 0, 65, 70
1, 42128, Note_on_c, 0, 48, 46
1, 42484, Note_off_c, 0, 77, 64
1, 42496, Note_off_c, 0, 65, 64
1, 42560, Note_on_c, 0, 65, 75
1, 42616, Note_off_c, 0, 48, 64
1, 42632, Note_off_c, 0, 56, 64
1, 42632, Control_c, 0, 64, 0
1, 42648, Note_off_c, 0, 41, 64
1, 42680, Control_c, 0, 64, 127
1, 42760, Note_on_c, 0, 63, 64
1, 42872, Note_off_c, 0, 65, 64
1, 42932, Note_on_c, 0, 56, 66
1, 42936, Note_on_c, 0, 61, 78
1, 42952, Note_on_c, 0, 41, 51
1, 42956, Note_on_c, 0, 48, 57
1, 42976, Note_off_c, 0, 63, 64
1, 42992, Control_c, 0, 64, 0
1, 43040, Control_c, 0, 64, 127
1, 43200, Note_off_c, 0, 56, 64
1, 43216, Note_off_c, 0, 41, 64
1, 43224, Note_off_c, 0, 48, 64
1, 43272, Note_on_c, 0, 56, 88
1, 43296, Note_off_c, 0, 61, 64
1, 43296, Note_on_c, 0, 48, 69
1, 43304, Note_on_c, 0, 41, 64
1, 43304, Control_c, 0, 64, 0
1, 43380, Control_c, 0, 64, 127
1, 43404, Note_on_c, 0, 58, 70
1, 43468, Note_off_c, 0, 56, 64
1, 43576, Note_on_c, 0, 60, 84
1, 43596, Note_off_c, 0, 58, 64
1, 43616, Note_off_c, 0, 48, 64
1, 43624, Note_off_c, 0, 41, 64
1, 43900, Note_on_c, 0, 55, 72
1, 43900, Control_c, 0, 64, 0
1, 43904, Note_on_c, 0, 48, 62
1, 43912, Note_on_c, 0, 52, 70
1, 43912, Note_on_c, 0, 36, 69
1, 44008, Control_c, 0, 64, 127
1, 44168, Note_off_c, 0, 55, 64
1, 44168, Note_off_c, 0, 48, 64
1, 44176, Note_off_c, 0, 52, 64
1, 44176, Note_off_c, 0, 36, 64
1, 44228, Note_off_c, 0, 60, 64
1, 44272, Note_on_c, 0, 55, 70
1, 44272, Note_on_c, 0, 60, 79
1, 44276, Note_on_c, 0, 52, 72
1, 44296, Note_on_c, 0, 36, 72
1, 44296, Note_on_c, 0, 48, 77
1, 44296, Control_c, 0, 64, 0
1, 44312, Control_c, 0, 64, 0
1, 44364, Control_c, 0, 64, 127
1, 44648, Note_on_c, 0, 65, 79
1, 44656, Note_off_c, 0, 60, 64
1, 44744, Note_off_c, 0, 36, 64
1, 44752, Note_off_c, 0, 55, 64
1, 44760, Note_off_c, 0, 52, 64
1, 44780, Note_off_c, 0, 48, 64
1, 44824, Note_on_c, 0, 63, 75
1, 44860, Note_off_c, 0, 65, 64
1, 44988, Note_on_c, 0, 61, 66
1, 44996, Note_on_c, 0, 53, 72
1, 45004, Note_off_c, 0, 63, 64
1, 45008, Note_on_c, 0, 37, 70
1, 45016, Note_on_c, 0, 44, 47
1, 45032, Control_c, 0, 64, 0
1, 45136, Control_c, 0, 64, 127
1, 45264, Note_off_c, 0, 53, 64
1, 45276, Note_off_c, 0, 37, 64
1, 45280, Note_off_c, 0, 44, 64
1, 45372, Note_on_c, 0, 56, 70
1, 45384, Note_on_c, 0, 37, 70
1, 45388, Note_on_c, 0, 53, 39
1, 45396, Note_off_c, 0, 61, 64
1, 45396, Note_on_c, 0, 44, 70
1, 45420, Control_c, 0, 64, 0
1, 45484, Control_c, 0, 64, 127
1, 45580, Note_on_c, 0, 58, 72
1, 45624, Note_off_c, 0, 56, 64
1, 45800, Note_off_c, 0, 37, 64
1, 45800, Control_c, 0, 64, 0
1, 45804, Note_off_c, 0, 53, 64
1, 45808, Note_on_c, 0, 60, 75
1, 45812, Note_off_c, 0, 44, 64
1, 45848, Note_off_c, 0, 58, 64
1, 45884, Control_c, 0, 64, 127
1, 46232, Note_on_c, 0, 56, 77
1, 46232, Note_on_c, 0, 32, 66
1, 46240, Note_on_c, 0, 51, 79
1, 46248, Note_on_c, 0, 44, 66
1, 46256, Control_c, 0, 64, 0
1, 46352, Control_c, 0, 64, 127
1, 46500, Note_off_c, 0, 56, 64
1, 46500, Note_off_c, 0, 32, 64
1, 46508, Note_off_c, 0, 51, 64
1, 46516, Note_off_c, 0, 44, 64
1, 46576, Note_off_c, 0, 60, 64
1, 46744, Note_on_c, 0, 32, 72
1, 46756, Note_on_c, 0, 60, 79
1, 46764, Note_on_c, 0, 51, 75
1, 46768, Note_on_c, 0, 56, 78
1, 46768, Note_on_c, 0, 44, 72
1, 46792, Control_c, 0, 64, 0
1, 46888, Control_c, 0, 64, 127
1, 47116, Note_off_c, 0, 32, 64
1, 47136, Note_off_c, 0, 51, 64
1, 47140, Note_off_c, 0, 60, 64
1, 47140, Note_off_c, 0, 56, 64
1, 47140, Note_off_c, 0, 44, 64
1, 47340, Note_on_c, 0, 60, 94
1, 47436, Note_on_c, 0, 40, 76
1, 47456, Note_on_c, 0, 73, 104
1, 47472, Control_c, 0, 64, 0
1, 47520, Note_off_c, 0, 60, 64
1, 47536, Control_c, 0, 64, 127
1, 47996, Note_off_c, 0, 73, 64
1, 48064, Note_on_c, 0, 58, 66
1, 48084, Note_on_c, 0, 60, 52
1, 48112, Note_on_c, 0, 67, 34
1, 48124, Note_on_c, 0, 73, 101
1, 48164, Control_c, 0, 64, 0
1, 48176, Control_c, 0, 64, 0
1, 48208, Control_c, 0, 64, 127
1, 48256, Control_c, 0, 64, 127
1, 48276, Note_off_c, 0, 58, 64
1, 48296, Note_off_c, 0, 60, 64
1, 48320, Note_off_c, 0, 67, 64
1, 48516, Note_on_c, 0, 58, 62
1, 48520, Note_on_c, 0, 67, 40
1, 48536, Note_on_c, 0, 60, 44
1, 48700, Control_c, 0, 64, 0
1, 48776, Note_off_c, 0, 40, 64
1, 48976, Note_off_c, 0, 58, 64
1, 48984, Note_off_c, 0, 67, 64
1, 48996, Note_off_c, 0, 60, 64
1, 49024, Note_on_c, 0, 41, 75
1, 49092, Control_c, 0, 64, 0
1, 49144, Control_c, 0, 64, 127
1, 49260, Note_on_c, 0, 72, 81
1, 49272, Note_off_c, 0, 73, 64
1, 49448, Note_on_c, 0, 56, 52
1, 49452, Note_on_c, 0, 70, 79
1, 49464, Note_on_c, 0, 65, 47
1, 49500, Note_off_c, 0, 72, 64
1, 49508, Control_c, 0, 64, 0
1, 49552, Control_c, 0, 64, 127
1, 49592, Note_on_c, 0, 68, 101
1, 49616, Note_off_c, 0, 70, 64
1, 49656, Note_off_c, 0, 56, 64
1, 49672, Note_off_c, 0, 65, 64
1, 49760, Note_on_c, 0, 56, 59
1, 49768, Note_on_c, 0, 60, 66
1, 49772, Note_on_c, 0, 67, 90
1, 49800, Note_off_c, 0, 68, 64
1, 49872, Note_off_c, 0, 56, 64
1, 49876, Note_off_c, 0, 60, 64
1, 49936, Note_on_c, 0, 65, 81
1, 49960, Note_off_c, 0, 67, 64
1, 50040, Note_off_c, 0, 41, 64
1, 50088, Note_on_c, 0, 48, 81
1, 50096, Note_on_c, 0, 67, 84
1, 50112, Control_c, 0, 64, 0
1, 50136, Note_off_c, 0, 65, 64
1, 50176, Control_c, 0, 64, 127
1, 50276, Note_on_c, 0, 60, 77
1, 50320, Note_off_c, 0, 67, 64
1, 50452, Note_on_c, 0, 72, 90
1, 50468, Note_on_c, 0, 58, 59
1, 50472, Note_off_c, 0, 48, 64
1, 50476, Note_off_c, 0, 60, 64
1, 50496, Note_on_c, 0, 64, 34
1, 50496, Control_c, 0, 64, 0
1, 50560, Control_c, 0, 64, 127
1, 50676, Note_off_c, 0, 58, 64
1, 50704, Note_off_c, 0, 64, 64
1, 50784, Note_on_c, 0, 64, 39
1, 50792, Note_on_c, 0, 60, 44
1, 50800, Note_on_c, 0, 58, 44
1, 50892, Note_off_c, 0, 64, 64
1, 50904, Note_off_c, 0, 60, 64
1, 50908, Note_off_c, 0, 58, 64
1, 50952, Note_on_c, 0, 67, 81
1, 50972, Note_off_c, 0, 72, 64
1, 51148, Note_on_c, 0, 68, 85
1, 51148, Note_on_c, 0, 41, 70
1, 51196, Note_off_c, 0, 67, 64
1, 51196, Control_c, 0, 64, 0
1, 51260, Control_c, 0, 64, 127
1, 51404, Note_on_c, 0, 72, 77
1, 51440, Note_off_c, 0, 68, 64
1, 51500, Note_on_c, 0, 56, 38
1, 51508, Note_on_c, 0, 77, 79
1, 51512, Note_on_c, 0, 65, 53
1, 51520, Note_on_c, 0, 60, 53
1, 51532, Note_off_c, 0, 41, 64
1, 51544, Note_off_c, 0, 72, 64
1, 51572, Control_c, 0, 64, 0
1, 51632, Control_c, 0, 64, 127
1, 51712, Note_off_c, 0, 56, 64
1, 51720, Note_off_c, 0, 65, 64
1, 51728, Note_off_c, 0, 60, 64
1, 51864, Note_on_c, 0, 61, 51
1, 51864, Note_on_c, 0, 56, 56
1, 51872, Note_on_c, 0, 65, 38
1, 51972, Note_off_c, 0, 61, 64
1, 51972, Note_off_c, 0, 56, 64
1, 51984, Note_off_c, 0, 65, 64
1, 52256, Note_on_c, 0, 43, 81
1, 52308, Control_c, 0, 64, 0
1, 52380, Control_c, 0, 64, 127
1, 52512, Note_off_c, 0, 77, 64
1, 52640, Note_off_c, 0, 43, 64
1, 52720, Note_on_c, 0, 51, 59
1, 52724, Note_on_c, 0, 61, 50
1, 52736, Note_on_c, 0, 58, 44
1, 52784, Note_on_c, 0, 77, 94
1, 52832, Control_c, 0, 64, 0
1, 52864, Control_c, 0, 64, 127
1, 52928, Note_off_c, 0, 51, 64
1, 52936, Note_off_c, 0, 61, 64
1, 52944, Note_off_c, 0, 58, 64
1, 53260, Note_on_c, 0, 51, 37
1, 53272, Note_on_c, 0, 58, 31
1, 53280, Note_on_c, 0, 61, 28
1, 53324, Note_off_c, 0, 77, 64
1, 53368, Note_off_c, 0, 51, 64
1, 53384, Note_off_c, 0, 58, 64
1, 53388, Note_off_c, 0, 61, 64
1, 53484, Note_on_c, 0, 77, 84
1, 53704, Note_on_c, 0, 44, 71
1, 53756, Control_c, 0, 64, 0
1, 53832, Control_c, 0, 64, 127
1, 53880, Note_on_c, 0, 75, 56
1, 53992, Note_off_c, 0, 77, 64
1, 54064, Note_on_c, 0, 51, 63
1, 54064, Note_on_c, 0, 73, 79
1, 54076, Note_on_c, 0, 60, 50
1, 54088, Note_off_c, 0, 44, 64
1, 54100, Control_c, 0, 64, 0
1, 54112, Note_off_c, 0, 75, 64
1, 54116, Control_c, 0, 64, 127
1, 54220, Note_on_c, 0, 72, 79
1, 54264, Note_off_c, 0, 73, 64
1, 54376, Note_off_c, 0, 51, 64
1, 54376, Note_on_c, 0, 70, 46
1, 54428, Note_off_c, 0, 60, 64
1, 54440, Note_off_c, 0, 72, 64
1, 54536, Note_on_c, 0, 68, 44
1, 54576, Note_off_c, 0, 70, 64
1, 54708, Note_on_c, 0, 67, 52
1, 54716, Note_on_c, 0, 46, 66
1, 54752, Control_c, 0, 64, 0
1, 54756, Note_off_c, 0, 68, 64
1, 54812, Control_c, 0, 64, 127
1, 54864, Note_on_c, 0, 66, 77
1, 54912, Note_off_c, 0, 67, 64
1, 55040, Note_on_c, 0, 70, 67
1, 55052, Note_on_c, 0, 61, 63
1, 55052, Note_on_c, 0, 54, 30
1, 55072, Note_off_c, 0, 66, 64
1, 55100, Note_off_c, 0, 46, 64
1, 55136, Control_c, 0, 64, 0
1, 55184, Control_c, 0, 64, 127
1, 55224, Note_on_c, 0, 65, 77
1, 55260, Note_off_c, 0, 61, 64
1, 55260, Note_off_c, 0, 54, 64
1, 55288, Note_off_c, 0, 70, 64
1, 55424, Note_on_c, 0, 61, 40
1, 55428, Note_on_c, 0, 58, 59
1, 55440, Note_on_c, 0, 68, 68
1, 55504, Control_c, 0, 64, 0
1, 55516, Note_off_c, 0, 65, 64
1, 55544, Control_c, 0, 64, 127
1, 55632, Note_off_c, 0, 61, 64
1, 55640, Note_off_c, 0, 58, 64
1, 55648, Note_on_c, 0, 66, 62
1, 55696, Note_off_c, 0, 68, 64
1, 55864, Note_on_c, 0, 65, 69
1, 55884, Note_on_c, 0, 48, 56
1, 55912, Note_off_c, 0, 66, 64
1, 55952, Control_c, 0, 64, 0
1, 56012, Control_c, 0, 64, 127
1, 56108, Note_on_c, 0, 64, 56
1, 56136, Note_off_c, 0, 65, 64
1, 56384, Note_off_c, 0, 64, 64
1, 56384, Note_on_c, 0, 60, 60
1, 56396, Note_on_c, 0, 64, 45
1, 56396, Note_on_c, 0, 55, 52
1, 56444, Note_off_c, 0, 48, 64
1, 56460, Control_c, 0, 64, 0
1, 56496, Control_c, 0, 64, 127
1, 56604, Note_off_c, 0, 64, 64
1, 56604, Note_off_c, 0, 55, 64
1, 56824, Note_on_c, 0, 64, 45
1, 56832, Note_on_c, 0, 55, 44
1, 56936, Note_off_c, 0, 64, 64
1, 56940, Note_off_c, 0, 55, 64
1, 57152, Note_off_c, 0, 60, 64
1, 57292, Note_on_c, 0, 60, 88
1, 57424, Note_on_c, 0, 36, 71
1, 57472, Note_on_c, 0, 73, 78
1, 57480, Control_c, 0, 64, 0
1, 57536, Note_off_c, 0, 60, 64
1, 57560, Control_c, 0, 64, 127
1, 58000, Note_off_c, 0, 73, 64
1, 58040, Note_on_c, 0, 58, 34
1, 58044, Note_on_c, 0, 64, 40
1, 58128, Note_on_c, 0, 73, 94
1, 58204, Control_c, 0, 64, 0
1, 58248, Note_off_c, 0, 58, 64
1, 58248, Control_c, 0, 64, 127
1, 58256, Note_off_c, 0, 64, 64
1, 58528, Note_on_c, 0, 58, 44
1, 58536, Note_on_c, 0, 64, 45
1, 58696, Note_off_c, 0, 36, 64
1, 58784, Control_c, 0, 64, 0
1, 58888, Note_off_c, 0, 58, 64
1, 58896, Note_on_c, 0, 48, 52
1, 58900, Note_off_c, 0, 64, 64
1, 59000, Note_off_c, 0, 73, 64
1, 59060, Note_on_c, 0, 72, 70
1, 59152, Note_on_c, 0, 70, 69
1, 59184, Note_off_c, 0, 72, 64
1, 59200, Note_on_c, 0, 72, 75
1, 59228, Note_off_c, 0, 70, 64
1, 59232, Note_on_c, 0, 56, 28
1, 59244, Note_on_c, 0, 70, 94
1, 59244, Note_on_c, 0, 60, 40
1, 59256, Note_on_c, 0, 65, 40
1, 59280, Note_off_c, 0, 48, 64
1, 59280, Note_off_c, 0, 72, 64
1, 59292, Control_c, 0, 64, 0
1, 59328, Control_c, 0, 64, 127
1, 59384, Note_on_c, 0, 68, 79
1, 59404, Note_off_c, 0, 70, 64
1, 59444, Note_off_c, 0, 56, 64
1, 59452, Note_off_c, 0, 60, 64
1, 59464, Note_off_c, 0, 65, 64
1, 59544, Note_on_c, 0, 60, 47
1, 59552, Note_on_c, 0, 56, 27
1, 59556, Note_on_c, 0, 67, 66
1, 59592, Note_off_c, 0, 68, 64
1, 59656, Note_off_c, 0, 60, 64
1, 59664, Note_off_c, 0, 56, 64
1, 59712, Note_on_c, 0, 65, 69
1, 59744, Note_off_c, 0, 67, 64
1, 59884, Note_on_c, 0, 36, 66
1, 59888, Note_on_c, 0, 67, 82
1, 59912, Note_off_c, 0, 65, 64
1, 59920, Control_c, 0, 64, 0
1, 60004, Control_c, 0, 64, 127
1, 60088, Note_on_c, 0, 60, 77
1, 60148, Note_off_c, 0, 67, 64
1, 60268, Note_off_c, 0, 36, 64
1, 60268, Note_on_c, 0, 58, 60
1, 60280, Note_on_c, 0, 64, 51
1, 60280, Note_on_c, 0, 72, 85
1, 60292, Note_off_c, 0, 60, 64
1, 60352, Control_c, 0, 64, 0
1, 60404, Control_c, 0, 64, 127
1, 60476, Note_off_c, 0, 58, 64
1, 60492, Note_off_c, 0, 64, 64
1, 60716, Note_on_c, 0, 58, 36
1, 60728, Note_on_c, 0, 64, 32
1, 60828, Note_off_c, 0, 58, 64
1, 60836, Note_off_c, 0, 64, 64
1, 60896, Note_off_c, 0, 72, 64
1, 60956, Note_on_c, 0, 67, 72
1, 61220, Note_on_c, 0, 41, 52
1, 61244, Note_on_c, 0, 69, 72
1, 61288, Control_c, 0, 64, 0
1, 61296, Note_off_c, 0, 67, 64
1, 61352, Control_c, 0, 64, 127
1, 61504, Note_on_c, 0, 72, 68
1, 61552, Note_off_c, 0, 69, 64
1, 61604, Note_off_c, 0, 41, 64
1, 61736, Note_on_c, 0, 53, 46
1, 61748, Note_on_c, 0, 77, 64
1, 61748, Note_on_c, 0, 63, 40
1, 61764, Note_off_c, 0, 72, 64
1, 61788, Control_c, 0, 64, 0
1, 61836, Control_c, 0, 64, 127
1, 61948, Note_off_c, 0, 53, 64
1, 61960, Note_off_c, 0, 63, 64
1, 62124, Note_on_c, 0, 53, 33
1, 62132, Note_on_c, 0, 63, 28
1, 62136, Note_on_c, 0, 57, 37
1, 62236, Note_off_c, 0, 53, 64
1, 62240, Note_off_c, 0, 63, 64
1, 62248, Note_off_c, 0, 57, 64
1, 62344, Note_on_c, 0, 76, 70
1, 62368, Note_off_c, 0, 77, 64
1, 62548, Note_on_c, 0, 46, 57
1, 62572, Note_on_c, 0, 75, 52
1, 62584, Control_c, 0, 64, 0
1, 62612, Note_off_c, 0, 76, 64
1, 62632, Control_c, 0, 64, 127
1, 62772, Note_on_c, 0, 74, 52
1, 62812, Note_off_c, 0, 75, 64
1, 62932, Note_off_c, 0, 46, 64
1, 62976, Note_on_c, 0, 53, 45
1, 62992, Note_on_c, 0, 73, 59
1, 62996, Note_on_c, 0, 55, 27
1, 63004, Note_on_c, 0, 65, 27
1, 63008, Note_on_c, 0, 61, 26
1, 63016, Note_off_c, 0, 74, 64
1, 63064, Control_c, 0, 64, 0
1, 63140, Control_c, 0, 64, 127
1, 63224, Note_on_c, 0, 69, 46
1, 63272, Note_off_c, 0, 73, 64
1, 63320, Note_off_c, 0, 65, 64
1, 63328, Note_off_c, 0, 61, 64
1, 63344, Note_off_c, 0, 55, 64
1, 63348, Note_off_c, 0, 53, 64
1, 63396, Note_on_c, 0, 70, 51
1, 63440, Note_off_c, 0, 69, 64
1, 63552, Note_on_c, 0, 71, 47
1, 63584, Note_off_c, 0, 70, 64
1, 63728, Note_on_c, 0, 48, 51
1, 63736, Note_on_c, 0, 73, 62
1, 63760, Note_off_c, 0, 71, 64
1, 63760, Control_c, 0, 64, 0
1, 63812, Control_c, 0, 64, 127
1, 63968, Note_on_c, 0, 75, 52
1, 63988, Note_off_c, 0, 73, 64
1, 64056, Note_on_c, 0, 73, 60
1, 64088, Note_off_c, 0, 75, 64
1, 64108, Note_on_c, 0, 56, 31
1, 64108, Note_on_c, 0, 60, 45
1, 64112, Note_off_c, 0, 48, 64
1, 64120, Note_on_c, 0, 72, 57
1, 64136, Note_on_c, 0, 65, 27
1, 64152, Note_off_c, 0, 73, 64
1, 64200, Control_c, 0, 64, 0
1, 64260, Control_c, 0, 64, 127
1, 64356, Note_on_c, 0, 67, 63
1, 64408, Note_off_c, 0, 72, 64
1, 64456, Note_off_c, 0, 65, 64
1, 64476, Note_off_c, 0, 60, 64
1, 64512, Note_off_c, 0, 56, 64
1, 64576, Note_on_c, 0, 68, 62
1, 64624, Note_off_c, 0, 67, 64
1, 64804, Note_on_c, 0, 71, 57
1, 64848, Note_off_c, 0, 68, 64
1, 65048, Note_on_c, 0, 36, 62
1, 65088, Note_on_c, 0, 73, 69
1, 65124, Note_off_c, 0, 71, 64
1, 65124, Control_c, 0, 64, 0
1, 65196, Control_c, 0, 64, 127
1, 65396, Note_on_c, 0, 72, 39
1, 65432, Note_off_c, 0, 36, 64
1, 65432, Note_off_c, 0, 73, 64
1, 65608, Note_on_c, 0, 55, 31
1, 65620, Note_on_c, 0, 71, 53
1, 65620, Note_on_c, 0, 64, 26
1, 65640, Note_off_c, 0, 72, 64
1, 65848, Note_off_c, 0, 55, 64
1, 65852, Note_on_c, 0, 66, 47
1, 65860, Note_off_c, 0, 71, 64
1, 65872, Note_off_c, 0, 64, 64
1, 66128, Note_on_c, 0, 67, 56
1, 66136, Note_on_c, 0, 58, 27
1, 66140, Note_on_c, 0, 60, 27
1, 66160, Note_on_c, 0, 64, 25
1, 66164, Note_off_c, 0, 66, 64
1, 66216, Control_c, 0, 64, 0
1, 66264, Control_c, 0, 64, 127
1, 66380, Note_off_c, 0, 64, 64
1, 66384, Note_off_c, 0, 60, 64
1, 66408, Note_off_c, 0, 58, 64
1, 66436, Note_on_c, 0, 70, 52
1, 66464, Note_off_c, 0, 67, 64
1, 66828, Note_on_c, 0, 41, 44
1, 66828, Note_on_c, 0, 69, 44
1, 66900, Note_off_c, 0, 70, 64
1, 66960, Control_c, 0, 64, 0
1, 67036, Control_c, 0, 64, 127
1, 67168, Note_on_c, 0, 68, 47
1, 67216, Note_off_c, 0, 69, 64
1, 67580, Note_on_c, 0, 65, 27
1, 67592, Note_on_c, 0, 56, 31
1, 67600, Note_on_c, 0, 48, 34
1, 67616, Note_off_c, 0, 68, 64
1, 67760, Control_c, 0, 64, 0
1, 68100, Control_c, 0, 64, 127
1, 69336, Control_c, 0, 64, 0
1, 69624, Note_off_c, 0, 48, 64
1, 69656, Note_off_c, 0, 41, 64
1, 69668, Note_off_c, 0, 56, 64
1, 69704, Note_off_c, 0, 65, 64
1, 69704, End_track
2, 0, Start_track
2, 1, Copyright_t, "__________________________________________________________\012\012KUNSTDERFUGE.COM GREAT CLASSICAL MIDI COLLECTION\012__________________________________________________________\012\012KUNST-DER-FUGE CONTRIBUTOR's PROPERTY\012Copyright by Contributor & Kunst der Fuge, © 2006\012\012Contributors' list: http://kunstderfuge.com/thanks.htm\012Terms and conditions: http://kunstderfuge.com/notes.htm\012__________________________________________________________\012\012NO WEBSITE MAY PUBLISH THIS FILE WITHOUT PERMISSION\012NO COMMERCIAL USE ALLOWED, NOR BY SALES NOR by eBay!\012PLEASE REPORT ANY ABUSE TO INFO@ONCLASSICAL.COM\012__________________________________________________________\012\012Thousands of free classical MIDI files at kunstderfuge.com"
2, 1, End_track
0, 0, End_of_file
