0, 0, Header, 0, 2, 384
1, 0, Start_track
1, 0, Title_t, "Chopin's Mazurkas (played by © Ron Lubetsky)"
1, 0, Time_signature, 4, 2, 96, 8
1, 0, Sequencer_specific, 3, 0, 0, 65
1, 0, Tempo, 500000
1, 164, Control_c, 0, 64, 0
1, 240, Note_on_c, 0, 62, 66
1, 240, Control_c, 0, 64, 127
1, 712, Note_on_c, 0, 74, 73
1, 720, Note_on_c, 0, 38, 52
1, 760, Note_off_c, 0, 62, 64
1, 784, Control_c, 0, 64, 0
1, 860, Control_c, 0, 64, 127
1, 1032, Note_on_c, 0, 77, 65
1, 1068, Note_off_c, 0, 74, 64
1, 1112, Note_on_c, 0, 75, 58
1, 1120, Note_off_c, 0, 77, 64
1, 1168, Note_on_c, 0, 74, 75
1, 1168, Control_c, 0, 64, 0
1, 1180, Note_off_c, 0, 75, 64
1, 1180, Note_on_c, 0, 54, 42
1, 1180, Note_on_c, 0, 62, 42
1, 1184, Note_on_c, 0, 60, 42
1, 1232, Control_c, 0, 64, 127
1, 1256, Note_off_c, 0, 62, 64
1, 1256, Note_off_c, 0, 60, 64
1, 1304, Note_off_c, 0, 54, 64
1, 1324, Note_off_c, 0, 38, 64
1, 1528, Note_on_c, 0, 54, 42
1, 1536, Note_on_c, 0, 69, 72
1, 1540, Note_on_c, 0, 62, 42
1, 1544, Note_on_c, 0, 60, 42
1, 1600, Note_off_c, 0, 74, 64
1, 1600, Note_off_c, 0, 60, 64
1, 1624, Note_off_c, 0, 62, 64
1, 1632, Note_off_c, 0, 54, 64
1, 1912, Note_on_c, 0, 43, 35
1, 1912, Note_on_c, 0, 70, 74
1, 1944, Control_c, 0, 64, 0
1, 1956, Note_off_c, 0, 69, 64
1, 2020, Control_c, 0, 64, 127
1, 2244, Note_on_c, 0, 58, 46
1, 2248, Note_on_c, 0, 55, 28
1, 2268, Note_on_c, 0, 62, 46
1, 2336, Note_off_c, 0, 58, 64
1, 2356, Note_off_c, 0, 62, 64
1, 2364, Note_off_c, 0, 55, 64
1, 2404, Note_off_c, 0, 70, 64
1, 2416, Note_off_c, 0, 43, 64
1, 2424, Note_on_c, 0, 67, 72
1, 2596, Note_on_c, 0, 63, 54
1, 2596, Note_on_c, 0, 55, 55
1, 2616, Note_on_c, 0, 58, 46
1, 2640, Note_on_c, 0, 74, 82
1, 2656, Note_off_c, 0, 67, 64
1, 2668, Note_off_c, 0, 63, 64
1, 2684, Note_off_c, 0, 55, 64
1, 2684, Note_off_c, 0, 58, 64
1, 2792, Note_on_c, 0, 75, 82
1, 2840, Note_off_c, 0, 74, 64
1, 2988, Note_on_c, 0, 45, 66
1, 3000, Note_on_c, 0, 77, 74
1, 3012, Note_off_c, 0, 75, 64
1, 3024, Control_c, 0, 64, 0
1, 3068, Control_c, 0, 64, 127
1, 3216, Note_on_c, 0, 81, 82
1, 3256, Note_off_c, 0, 77, 64
1, 3272, Note_on_c, 0, 79, 80
1, 3288, Note_off_c, 0, 81, 64
1, 3332, Note_on_c, 0, 60, 21
1, 3332, Note_on_c, 0, 63, 55
1, 3332, Note_on_c, 0, 53, 40
1, 3348, Note_on_c, 0, 77, 77
1, 3352, Note_off_c, 0, 79, 64
1, 3352, Control_c, 0, 64, 0
1, 3400, Control_c, 0, 64, 127
1, 3424, Note_off_c, 0, 63, 64
1, 3424, Note_off_c, 0, 53, 64
1, 3432, Note_off_c, 0, 60, 64
1, 3468, Note_off_c, 0, 45, 64
1, 3640, Note_on_c, 0, 60, 21
1, 3648, Note_on_c, 0, 53, 49
1, 3664, Note_off_c, 0, 77, 64
1, 3664, Note_on_c, 0, 63, 46
1, 3668, Note_on_c, 0, 72, 75
1, 3724, Note_off_c, 0, 63, 64
1, 3736, Note_off_c, 0, 60, 64
1, 3752, Note_off_c, 0, 53, 64
1, 4024, Note_on_c, 0, 46, 62
1, 4084, Note_on_c, 0, 74, 80
1, 4120, Control_c, 0, 64, 0
1, 4124, Note_off_c, 0, 72, 64
1, 4196, Control_c, 0, 64, 127
1, 4484, Note_on_c, 0, 58, 46
1, 4488, Note_on_c, 0, 53, 35
1, 4500, Note_on_c, 0, 62, 35
1, 4608, Note_off_c, 0, 58, 64
1, 4608, Note_off_c, 0, 62, 64
1, 4616, Note_off_c, 0, 46, 64
1, 4616, Note_off_c, 0, 53, 64
1, 4748, Note_off_c, 0, 74, 64
1, 4848, Note_on_c, 0, 58, 36
1, 4848, Note_on_c, 0, 53, 28
1, 4852, Note_on_c, 0, 74, 82
1, 4864, Note_on_c, 0, 62, 27
1, 4924, Note_off_c, 0, 74, 64
1, 4992, Note_on_c, 0, 74, 85
1, 5040, Note_off_c, 0, 62, 64
1, 5048, Note_off_c, 0, 74, 64
1, 5060, Note_off_c, 0, 58, 64
1, 5064, Note_off_c, 0, 53, 64
1, 5124, Note_on_c, 0, 74, 88
1, 5288, Note_on_c, 0, 77, 72
1, 5324, Note_off_c, 0, 74, 64
1, 5352, Note_on_c, 0, 75, 82
1, 5384, Note_off_c, 0, 77, 64
1, 5416, Note_on_c, 0, 54, 28
1, 5416, Note_on_c, 0, 50, 35
1, 5416, Control_c, 0, 64, 0
1, 5432, Note_on_c, 0, 60, 41
1, 5440, Note_on_c, 0, 74, 94
1, 5456, Note_off_c, 0, 75, 64
1, 5492, Control_c, 0, 64, 127
1, 5524, Note_off_c, 0, 50, 64
1, 5528, Note_off_c, 0, 60, 64
1, 5532, Note_off_c, 0, 54, 64
1, 5724, Note_on_c, 0, 60, 21
1, 5736, Note_on_c, 0, 54, 49
1, 5740, Note_on_c, 0, 50, 35
1, 5744, Note_on_c, 0, 69, 65
1, 5752, Note_off_c, 0, 74, 64
1, 5796, Note_off_c, 0, 50, 64
1, 5808, Note_off_c, 0, 54, 64
1, 5824, Note_off_c, 0, 60, 64
1, 5984, Note_off_c, 0, 69, 64
1, 5996, Note_on_c, 0, 72, 72
1, 6044, Note_on_c, 0, 70, 82
1, 6056, Note_on_c, 0, 43, 74
1, 6080, Note_off_c, 0, 72, 64
1, 6088, Control_c, 0, 64, 0
1, 6136, Control_c, 0, 64, 127
1, 6208, Note_on_c, 0, 69, 69
1, 6228, Note_off_c, 0, 70, 64
1, 6308, Note_on_c, 0, 58, 59
1, 6324, Note_on_c, 0, 50, 69
1, 6328, Note_on_c, 0, 67, 75
1, 6340, Control_c, 0, 64, 0
1, 6348, Note_off_c, 0, 69, 64
1, 6364, Control_c, 0, 64, 127
1, 6648, Note_off_c, 0, 50, 64
1, 6652, Note_on_c, 0, 72, 81
1, 6652, Note_on_c, 0, 63, 88
1, 6664, Note_on_c, 0, 55, 65
1, 6664, Note_on_c, 0, 48, 63
1, 6676, Note_off_c, 0, 67, 64
1, 6688, Control_c, 0, 64, 0
1, 6712, Note_off_c, 0, 58, 64
1, 6760, Control_c, 0, 64, 127
1, 6964, Note_on_c, 0, 67, 66
1, 6984, Note_off_c, 0, 72, 64
1, 6988, Note_off_c, 0, 43, 64
1, 7020, Note_off_c, 0, 63, 64
1, 7064, Note_on_c, 0, 69, 72
1, 7092, Note_off_c, 0, 67, 64
1, 7172, Note_off_c, 0, 48, 64
1, 7184, Note_on_c, 0, 70, 81
1, 7192, Note_on_c, 0, 62, 88
1, 7196, Note_on_c, 0, 43, 65
1, 7208, Note_off_c, 0, 69, 64
1, 7208, Note_on_c, 0, 50, 74
1, 7224, Control_c, 0, 64, 0
1, 7236, Note_off_c, 0, 55, 64
1, 7288, Control_c, 0, 64, 127
1, 7440, Note_off_c, 0, 62, 64
1, 7500, Note_on_c, 0, 72, 81
1, 7512, Note_on_c, 0, 63, 88
1, 7512, Note_on_c, 0, 55, 72
1, 7512, Note_on_c, 0, 48, 69
1, 7524, Note_off_c, 0, 43, 64
1, 7524, Note_off_c, 0, 50, 64
1, 7528, Note_off_c, 0, 70, 64
1, 7544, Control_c, 0, 64, 0
1, 7616, Control_c, 0, 64, 127
1, 7824, Note_on_c, 0, 67, 82
1, 7828, Note_off_c, 0, 72, 64
1, 7872, Note_off_c, 0, 63, 64
1, 7944, Note_on_c, 0, 69, 74
1, 7968, Note_off_c, 0, 67, 64
1, 8100, Note_off_c, 0, 48, 64
1, 8104, Note_on_c, 0, 43, 63
1, 8108, Note_on_c, 0, 70, 75
1, 8112, Note_on_c, 0, 62, 74
1, 8124, Note_on_c, 0, 50, 54
1, 8136, Control_c, 0, 64, 0
1, 8148, Note_off_c, 0, 69, 64
1, 8172, Note_off_c, 0, 55, 64
1, 8200, Control_c, 0, 64, 127
1, 8488, Note_off_c, 0, 62, 64
1, 8512, Note_on_c, 0, 72, 85
1, 8524, Note_off_c, 0, 50, 64
1, 8524, Note_on_c, 0, 55, 52
1, 8524, Note_on_c, 0, 63, 75
1, 8532, Note_on_c, 0, 48, 55
1, 8536, Note_off_c, 0, 43, 64
1, 8552, Note_off_c, 0, 70, 64
1, 8552, Control_c, 0, 64, 0
1, 8616, Control_c, 0, 64, 127
1, 8908, Note_off_c, 0, 55, 64
1, 8908, Note_off_c, 0, 63, 64
1, 8916, Note_off_c, 0, 48, 64
1, 8956, Note_on_c, 0, 42, 67
1, 8976, Note_on_c, 0, 62, 69
1, 8976, Note_on_c, 0, 74, 72
1, 8976, Control_c, 0, 64, 0
1, 9000, Control_c, 0, 64, 127
1, 9020, Note_off_c, 0, 72, 64
1, 9072, Note_off_c, 0, 62, 64
1, 9188, Note_on_c, 0, 75, 58
1, 9192, Note_off_c, 0, 74, 64
1, 9304, Note_on_c, 0, 50, 35
1, 9312, Note_on_c, 0, 74, 86
1, 9320, Note_off_c, 0, 75, 64
1, 9320, Note_on_c, 0, 60, 32
1, 9328, Control_c, 0, 64, 0
1, 9388, Control_c, 0, 64, 127
1, 9400, Note_off_c, 0, 50, 64
1, 9428, Note_off_c, 0, 42, 64
1, 9436, Note_off_c, 0, 60, 64
1, 9584, Note_on_c, 0, 50, 66
1, 9600, Note_on_c, 0, 60, 47
1, 9604, Note_on_c, 0, 69, 69
1, 9648, Note_off_c, 0, 60, 64
1, 9652, Note_off_c, 0, 74, 64
1, 9656, Note_off_c, 0, 50, 64
1, 9884, Note_on_c, 0, 70, 85
1, 9892, Note_on_c, 0, 43, 62
1, 9904, Note_off_c, 0, 69, 64
1, 9920, Control_c, 0, 64, 0
1, 9980, Control_c, 0, 64, 127
1, 10232, Note_on_c, 0, 55, 23
1, 10240, Note_on_c, 0, 62, 47
1, 10244, Note_on_c, 0, 58, 46
1, 10380, Note_off_c, 0, 43, 64
1, 10412, Note_on_c, 0, 67, 74
1, 10416, Note_off_c, 0, 62, 64
1, 10424, Note_off_c, 0, 58, 64
1, 10428, Note_off_c, 0, 55, 64
1, 10460, Note_off_c, 0, 70, 64
1, 10608, Note_on_c, 0, 55, 42
1, 10608, Note_on_c, 0, 58, 42
1, 10620, Note_on_c, 0, 74, 82
1, 10628, Note_on_c, 0, 63, 54
1, 10632, Note_off_c, 0, 67, 64
1, 10664, Control_c, 0, 64, 0
1, 10716, Control_c, 0, 64, 127
1, 10724, Note_off_c, 0, 63, 64
1, 10732, Note_off_c, 0, 58, 64
1, 10756, Note_off_c, 0, 55, 64
1, 10812, Note_on_c, 0, 75, 73
1, 10872, Note_off_c, 0, 74, 64
1, 10972, Note_on_c, 0, 45, 80
1, 10972, Note_on_c, 0, 77, 75
1, 10988, Note_off_c, 0, 75, 64
1, 10996, Control_c, 0, 64, 0
1, 11044, Control_c, 0, 64, 127
1, 11164, Note_on_c, 0, 81, 82
1, 11176, Note_off_c, 0, 77, 64
1, 11216, Note_on_c, 0, 79, 80
1, 11244, Note_off_c, 0, 81, 64
1, 11256, Note_on_c, 0, 60, 21
1, 11264, Note_on_c, 0, 63, 40
1, 11272, Note_on_c, 0, 77, 90
1, 11280, Control_c, 0, 64, 0
1, 11288, Note_on_c, 0, 53, 35
1, 11296, Note_off_c, 0, 79, 64
1, 11336, Control_c, 0, 64, 127
1, 11352, Note_off_c, 0, 60, 64
1, 11364, Note_off_c, 0, 53, 64
1, 11376, Note_off_c, 0, 63, 64
1, 11440, Note_off_c, 0, 45, 64
1, 11580, Note_on_c, 0, 53, 49
1, 11588, Note_on_c, 0, 57, 35
1, 11588, Note_on_c, 0, 63, 46
1, 11600, Note_off_c, 0, 77, 64
1, 11600, Note_on_c, 0, 72, 72
1, 11648, Note_off_c, 0, 63, 64
1, 11664, Note_off_c, 0, 53, 64
1, 11668, Note_off_c, 0, 57, 64
1, 11936, Note_on_c, 0, 46, 66
1, 12008, Note_on_c, 0, 74, 81
1, 12024, Control_c, 0, 64, 0
1, 12056, Note_off_c, 0, 72, 64
1, 12104, Control_c, 0, 64, 127
1, 12352, Note_on_c, 0, 58, 29
1, 12368, Note_on_c, 0, 53, 36
1, 12376, Note_on_c, 0, 62, 28
1, 12456, Note_off_c, 0, 58, 64
1, 12468, Note_off_c, 0, 53, 64
1, 12472, Note_off_c, 0, 62, 64
1, 12500, Note_off_c, 0, 46, 64
1, 12536, Note_off_c, 0, 74, 64
1, 12652, Note_on_c, 0, 53, 46
1, 12656, Note_on_c, 0, 74, 82
1, 12672, Note_on_c, 0, 62, 36
1, 12676, Note_on_c, 0, 58, 36
1, 12720, Note_off_c, 0, 74, 64
1, 12792, Note_on_c, 0, 74, 82
1, 12852, Note_off_c, 0, 74, 64
1, 12908, Note_off_c, 0, 62, 64
1, 12912, Note_off_c, 0, 58, 64
1, 12920, Note_on_c, 0, 74, 88
1, 12928, Control_c, 0, 64, 0
1, 12932, Note_off_c, 0, 53, 64
1, 12976, Control_c, 0, 64, 127
1, 13080, Note_off_c, 0, 74, 64
1, 13096, Note_on_c, 0, 77, 49
1, 13140, Note_on_c, 0, 75, 72
1, 13172, Note_off_c, 0, 77, 64
1, 13184, Note_on_c, 0, 54, 39
1, 13188, Note_on_c, 0, 50, 41
1, 13196, Note_on_c, 0, 60, 40
1, 13200, Control_c, 0, 64, 0
1, 13208, Note_on_c, 0, 74, 72
1, 13232, Note_off_c, 0, 75, 64
1, 13268, Control_c, 0, 64, 127
1, 13276, Note_off_c, 0, 54, 64
1, 13292, Note_off_c, 0, 50, 64
1, 13304, Note_off_c, 0, 60, 64
1, 13496, Note_on_c, 0, 54, 21
1, 13504, Note_on_c, 0, 50, 27
1, 13512, Note_off_c, 0, 74, 64
1, 13512, Note_on_c, 0, 69, 74
1, 13512, Note_on_c, 0, 60, 28
1, 13592, Note_off_c, 0, 54, 64
1, 13596, Note_off_c, 0, 50, 64
1, 13640, Note_off_c, 0, 60, 64
1, 13848, Note_on_c, 0, 70, 77
1, 13868, Note_off_c, 0, 69, 64
1, 13880, Note_on_c, 0, 43, 69
1, 13936, Control_c, 0, 64, 0
1, 13968, Control_c, 0, 64, 127
1, 14280, Note_on_c, 0, 67, 72
1, 14288, Note_on_c, 0, 62, 29
1, 14288, Note_on_c, 0, 58, 46
1, 14300, Note_on_c, 0, 55, 46
1, 14320, Note_off_c, 0, 70, 64
1, 14368, Note_off_c, 0, 62, 64
1, 14384, Note_off_c, 0, 43, 64
1, 14384, Note_off_c, 0, 55, 64
1, 14408, Note_off_c, 0, 58, 64
1, 14476, Note_on_c, 0, 82, 88
1, 14488, Note_off_c, 0, 67, 64
1, 14644, Note_on_c, 0, 48, 46
1, 14660, Note_on_c, 0, 81, 90
1, 14664, Note_on_c, 0, 63, 67
1, 14672, Note_on_c, 0, 55, 62
1, 14716, Note_off_c, 0, 82, 64
1, 14804, Note_on_c, 0, 79, 82
1, 14828, Note_off_c, 0, 81, 64
1, 14896, Note_off_c, 0, 79, 64
1, 14912, Note_off_c, 0, 55, 64
1, 14936, Note_off_c, 0, 63, 64
1, 14952, Note_on_c, 0, 50, 72
1, 14960, Note_on_c, 0, 79, 95
1, 14972, Note_off_c, 0, 48, 64
1, 15048, Control_c, 0, 64, 0
1, 15084, Control_c, 0, 64, 127
1, 15128, Note_on_c, 0, 77, 74
1, 15168, Note_off_c, 0, 79, 64
1, 15288, Note_on_c, 0, 55, 55
1, 15296, Note_on_c, 0, 75, 73
1, 15296, Note_on_c, 0, 60, 56
1, 15300, Note_off_c, 0, 77, 64
1, 15444, Note_off_c, 0, 60, 64
1, 15496, Note_off_c, 0, 75, 64
1, 15496, Note_on_c, 0, 77, 59
1, 15564, Note_on_c, 0, 75, 75
1, 15568, Note_off_c, 0, 55, 64
1, 15600, Note_on_c, 0, 54, 32
1, 15608, Note_off_c, 0, 77, 64
1, 15612, Note_on_c, 0, 60, 55
1, 15652, Control_c, 0, 64, 0
1, 15660, Note_on_c, 0, 74, 86
1, 15676, Control_c, 0, 64, 127
1, 15680, Note_off_c, 0, 75, 64
1, 15712, Note_off_c, 0, 50, 64
1, 15736, Note_off_c, 0, 60, 64
1, 15760, Note_off_c, 0, 54, 64
1, 15868, Note_on_c, 0, 72, 69
1, 15912, Note_off_c, 0, 74, 64
1, 16064, Note_on_c, 0, 70, 75
1, 16088, Note_on_c, 0, 43, 55
1, 16096, Note_off_c, 0, 72, 64
1, 16144, Control_c, 0, 64, 0
1, 16216, Control_c, 0, 64, 127
1, 16280, Note_on_c, 0, 69, 35
1, 16324, Note_off_c, 0, 70, 64
1, 16460, Note_on_c, 0, 67, 59
1, 16460, Note_on_c, 0, 50, 33
1, 16472, Note_on_c, 0, 58, 27
1, 16496, Control_c, 0, 64, 0
1, 16504, Note_off_c, 0, 69, 64
1, 16584, Control_c, 0, 64, 127
1, 16616, Note_off_c, 0, 50, 64
1, 16632, Note_off_c, 0, 58, 64
1, 16860, Note_on_c, 0, 58, 35
1, 16888, Note_on_c, 0, 50, 27
1, 16940, Note_off_c, 0, 67, 64
1, 16944, Note_off_c, 0, 43, 64
1, 16948, Note_off_c, 0, 58, 64
1, 16960, Note_off_c, 0, 50, 64
1, 17232, Note_on_c, 0, 41, 69
1, 17260, Note_on_c, 0, 72, 80
1, 17260, Control_c, 0, 64, 0
1, 17328, Control_c, 0, 64, 127
1, 17336, Note_on_c, 0, 67, 80
1, 17380, Note_off_c, 0, 72, 64
1, 17540, Note_on_c, 0, 63, 56
1, 17552, Note_on_c, 0, 53, 52
1, 17572, Note_on_c, 0, 58, 52
1, 17672, Note_off_c, 0, 58, 64
1, 17684, Note_off_c, 0, 53, 64
1, 17744, Note_off_c, 0, 63, 64
1, 17884, Note_on_c, 0, 63, 52
1, 17884, Note_on_c, 0, 53, 62
1, 17888, Note_on_c, 0, 58, 63
1, 17972, Note_off_c, 0, 58, 64
1, 18016, Note_off_c, 0, 63, 64
1, 18060, Note_off_c, 0, 53, 64
1, 18080, Note_off_c, 0, 41, 64
1, 18192, Note_on_c, 0, 63, 64
1, 18192, Note_on_c, 0, 53, 46
1, 18192, Note_on_c, 0, 69, 82
1, 18192, Note_on_c, 0, 60, 57
1, 18212, Note_off_c, 0, 67, 64
1, 18216, Control_c, 0, 64, 0
1, 18236, Control_c, 0, 64, 127
1, 18256, Note_on_c, 0, 58, 56
1, 18268, Note_on_c, 0, 67, 82
1, 18280, Note_off_c, 0, 69, 64
1, 18340, Note_on_c, 0, 57, 55
1, 18344, Note_off_c, 0, 60, 64
1, 18348, Note_on_c, 0, 65, 82
1, 18376, Note_off_c, 0, 67, 64
1, 18408, Note_off_c, 0, 58, 64
1, 18448, Control_c, 0, 64, 0
1, 18460, Note_on_c, 0, 62, 36
1, 18460, Note_on_c, 0, 58, 66
1, 18468, Note_on_c, 0, 70, 82
1, 18480, Note_off_c, 0, 57, 64
1, 18480, Note_off_c, 0, 63, 64
1, 18504, Note_off_c, 0, 53, 64
1, 18504, Note_off_c, 0, 65, 64
1, 18520, Control_c, 0, 64, 127
1, 18748, Note_off_c, 0, 62, 64
1, 18748, Note_off_c, 0, 58, 64
1, 18772, Note_on_c, 0, 74, 79
1, 18784, Note_on_c, 0, 46, 54
1, 18792, Note_off_c, 0, 70, 64
1, 18796, Control_c, 0, 64, 0
1, 18856, Control_c, 0, 64, 127
1, 19076, Note_off_c, 0, 46, 64
1, 19128, Note_on_c, 0, 41, 59
1, 19136, Note_on_c, 0, 72, 73
1, 19148, Control_c, 0, 64, 0
1, 19172, Note_off_c, 0, 74, 64
1, 19208, Control_c, 0, 64, 127
1, 19216, Note_on_c, 0, 67, 92
1, 19240, Note_off_c, 0, 72, 64
1, 19424, Note_on_c, 0, 58, 59
1, 19424, Note_on_c, 0, 53, 40
1, 19440, Note_on_c, 0, 63, 62
1, 19448, Control_c, 0, 64, 0
1, 19480, Control_c, 0, 64, 127
1, 19496, Note_off_c, 0, 63, 64
1, 19516, Note_off_c, 0, 58, 64
1, 19544, Note_off_c, 0, 53, 64
1, 19716, Note_on_c, 0, 53, 59
1, 19728, Note_on_c, 0, 63, 55
1, 19732, Note_on_c, 0, 58, 56
1, 19808, Note_off_c, 0, 63, 64
1, 19828, Note_off_c, 0, 58, 64
1, 19872, Note_off_c, 0, 53, 64
1, 20004, Note_off_c, 0, 41, 64
1, 20024, Note_on_c, 0, 63, 67
1, 20028, Note_on_c, 0, 60, 74
1, 20032, Note_on_c, 0, 69, 88
1, 20040, Note_on_c, 0, 53, 39
1, 20048, Control_c, 0, 64, 0
1, 20060, Note_off_c, 0, 67, 64
1, 20080, Control_c, 0, 64, 127
1, 20108, Note_on_c, 0, 67, 82
1, 20112, Note_on_c, 0, 58, 57
1, 20136, Note_off_c, 0, 69, 64
1, 20144, Note_off_c, 0, 60, 64
1, 20188, Note_on_c, 0, 65, 63
1, 20188, Note_on_c, 0, 57, 58
1, 20216, Note_off_c, 0, 67, 64
1, 20228, Note_off_c, 0, 58, 64
1, 20284, Control_c, 0, 64, 0
1, 20296, Note_off_c, 0, 53, 64
1, 20304, Note_on_c, 0, 58, 56
1, 20308, Note_on_c, 0, 62, 46
1, 20308, Note_on_c, 0, 70, 88
1, 20312, Note_off_c, 0, 63, 64
1, 20324, Note_off_c, 0, 65, 64
1, 20344, Control_c, 0, 64, 127
1, 20348, Note_off_c, 0, 57, 64
1, 20608, Note_on_c, 0, 74, 66
1, 20612, Note_on_c, 0, 46, 71
1, 20624, Note_off_c, 0, 70, 64
1, 20640, Note_off_c, 0, 58, 64
1, 20644, Note_off_c, 0, 62, 64
1, 20752, Note_on_c, 0, 75, 66
1, 20800, Note_off_c, 0, 74, 64
1, 20824, Note_off_c, 0, 46, 64
1, 20904, Note_on_c, 0, 71, 66
1, 20904, Note_on_c, 0, 55, 59
1, 20908, Note_on_c, 0, 62, 62
1, 20916, Note_on_c, 0, 77, 59
1, 20916, Note_on_c, 0, 67, 44
1, 20928, Control_c, 0, 64, 0
1, 20936, Note_off_c, 0, 75, 64
1, 20976, Control_c, 0, 64, 127
1, 20984, Note_on_c, 0, 79, 62
1, 21000, Note_off_c, 0, 67, 64
1, 21004, Note_off_c, 0, 77, 64
1, 21020, Note_off_c, 0, 62, 64
1, 21024, Note_off_c, 0, 55, 64
1, 21072, Note_on_c, 0, 77, 66
1, 21096, Note_off_c, 0, 79, 64
1, 21100, Note_off_c, 0, 71, 64
1, 21172, Note_on_c, 0, 60, 72
1, 21184, Note_on_c, 0, 76, 67
1, 21184, Note_on_c, 0, 67, 64
1, 21188, Note_on_c, 0, 70, 66
1, 21204, Control_c, 0, 64, 0
1, 21208, Note_off_c, 0, 77, 64
1, 21240, Control_c, 0, 64, 127
1, 21272, Note_off_c, 0, 70, 64
1, 21320, Note_off_c, 0, 67, 64
1, 21344, Note_off_c, 0, 60, 64
1, 21476, Note_on_c, 0, 67, 59
1, 21476, Note_on_c, 0, 70, 63
1, 21480, Note_on_c, 0, 60, 66
1, 21484, Note_on_c, 0, 72, 66
1, 21540, Note_off_c, 0, 76, 64
1, 21604, Note_off_c, 0, 67, 64
1, 21604, Note_on_c, 0, 74, 74
1, 21628, Note_off_c, 0, 70, 64
1, 21632, Note_off_c, 0, 72, 64
1, 21696, Note_off_c, 0, 60, 64
1, 21736, Note_on_c, 0, 75, 66
1, 21744, Note_on_c, 0, 69, 72
1, 21752, Note_off_c, 0, 74, 64
1, 21752, Note_on_c, 0, 53, 66
1, 21760, Note_on_c, 0, 60, 54
1, 21772, Control_c, 0, 64, 0
1, 21788, Control_c, 0, 64, 127
1, 21840, Note_on_c, 0, 77, 54
1, 21864, Note_off_c, 0, 75, 64
1, 21880, Note_off_c, 0, 60, 64
1, 21912, Note_on_c, 0, 75, 64
1, 21916, Note_off_c, 0, 69, 64
1, 21936, Note_off_c, 0, 77, 64
1, 21944, Note_off_c, 0, 53, 64
1, 21992, Note_on_c, 0, 74, 64
1, 22004, Note_on_c, 0, 58, 54
1, 22012, Note_off_c, 0, 75, 64
1, 22012, Note_on_c, 0, 65, 59
1, 22016, Note_on_c, 0, 68, 74
1, 22028, Control_c, 0, 64, 0
1, 22076, Control_c, 0, 64, 127
1, 22204, Note_off_c, 0, 65, 64
1, 22216, Note_off_c, 0, 58, 64
1, 22244, Note_off_c, 0, 68, 64
1, 22292, Note_on_c, 0, 70, 75
1, 22296, Note_on_c, 0, 68, 48
1, 22300, Note_on_c, 0, 58, 62
1, 22300, Note_on_c, 0, 65, 48
1, 22332, Note_off_c, 0, 74, 64
1, 22420, Note_off_c, 0, 65, 64
1, 22448, Note_off_c, 0, 68, 64
1, 22476, Note_off_c, 0, 58, 64
1, 22564, Note_on_c, 0, 73, 63
1, 22568, Note_off_c, 0, 70, 64
1, 22568, Note_on_c, 0, 58, 66
1, 22576, Note_on_c, 0, 67, 66
1, 22576, Note_on_c, 0, 51, 64
1, 22600, Control_c, 0, 64, 0
1, 22620, Control_c, 0, 64, 127
1, 22660, Note_on_c, 0, 75, 64
1, 22672, Note_off_c, 0, 73, 64
1, 22704, Note_off_c, 0, 67, 64
1, 22740, Note_off_c, 0, 58, 64
1, 22744, Note_on_c, 0, 73, 54
1, 22760, Note_off_c, 0, 75, 64
1, 22816, Note_off_c, 0, 51, 64
1, 22824, Note_on_c, 0, 72, 66
1, 22836, Note_on_c, 0, 66, 74
1, 22840, Note_off_c, 0, 73, 64
1, 22840, Note_on_c, 0, 56, 66
1, 22848, Note_on_c, 0, 63, 64
1, 22856, Control_c, 0, 64, 0
1, 22904, Control_c, 0, 64, 127
1, 22956, Note_off_c, 0, 63, 64
1, 22968, Note_off_c, 0, 56, 64
1, 23064, Note_off_c, 0, 66, 64
1, 23116, Note_on_c, 0, 66, 29
1, 23116, Note_on_c, 0, 56, 64
1, 23116, Note_on_c, 0, 68, 74
1, 23128, Note_on_c, 0, 63, 55
1, 23156, Note_off_c, 0, 72, 64
1, 23204, Note_off_c, 0, 66, 64
1, 23244, Note_off_c, 0, 63, 64
1, 23244, Note_on_c, 0, 70, 66
1, 23256, Note_off_c, 0, 68, 64
1, 23264, Note_off_c, 0, 56, 64
1, 23392, Note_on_c, 0, 65, 72
1, 23404, Note_on_c, 0, 49, 54
1, 23404, Note_on_c, 0, 71, 59
1, 23408, Note_on_c, 0, 56, 48
1, 23424, Control_c, 0, 64, 0
1, 23440, Note_off_c, 0, 70, 64
1, 23472, Control_c, 0, 64, 127
1, 23492, Note_on_c, 0, 73, 66
1, 23516, Note_off_c, 0, 71, 64
1, 23524, Note_off_c, 0, 65, 64
1, 23588, Note_on_c, 0, 71, 59
1, 23600, Note_off_c, 0, 73, 64
1, 23620, Note_off_c, 0, 49, 64
1, 23632, Note_off_c, 0, 56, 64
1, 23688, Note_on_c, 0, 54, 54
1, 23688, Note_on_c, 0, 64, 59
1, 23696, Note_on_c, 0, 70, 59
1, 23700, Note_on_c, 0, 61, 48
1, 23704, Control_c, 0, 64, 0
1, 23728, Note_off_c, 0, 71, 64
1, 23768, Control_c, 0, 64, 127
1, 23884, Note_off_c, 0, 64, 64
1, 23896, Note_off_c, 0, 61, 64
1, 23904, Note_off_c, 0, 54, 64
1, 23992, Note_on_c, 0, 64, 54
1, 23996, Note_on_c, 0, 61, 37
1, 23996, Note_on_c, 0, 66, 64
1, 24000, Note_on_c, 0, 54, 46
1, 24056, Note_off_c, 0, 70, 64
1, 24244, Note_off_c, 0, 64, 64
1, 24244, Note_off_c, 0, 61, 64
1, 24316, Note_on_c, 0, 48, 67
1, 24332, Note_off_c, 0, 66, 64
1, 24340, Note_on_c, 0, 64, 83
1, 24360, Note_off_c, 0, 54, 64
1, 24360, Note_on_c, 0, 72, 75
1, 24384, Control_c, 0, 64, 0
1, 24424, Note_on_c, 0, 67, 87
1, 24440, Note_off_c, 0, 64, 64
1, 24452, Control_c, 0, 64, 127
1, 24460, Note_off_c, 0, 72, 64
1, 24616, Note_on_c, 0, 58, 75
1, 24628, Note_on_c, 0, 64, 67
1, 24712, Note_off_c, 0, 64, 64
1, 24720, Note_off_c, 0, 58, 64
1, 24916, Note_on_c, 0, 58, 52
1, 24944, Note_on_c, 0, 64, 59
1, 25000, Note_off_c, 0, 64, 64
1, 25028, Note_off_c, 0, 58, 64
1, 25128, Note_off_c, 0, 48, 64
1, 25220, Note_on_c, 0, 60, 66
1, 25220, Note_on_c, 0, 53, 57
1, 25224, Note_on_c, 0, 63, 64
1, 25224, Note_on_c, 0, 69, 77
1, 25248, Note_off_c, 0, 67, 64
1, 25296, Note_on_c, 0, 58, 52
1, 25300, Note_on_c, 0, 67, 74
1, 25324, Note_off_c, 0, 69, 64
1, 25340, Note_off_c, 0, 60, 64
1, 25372, Note_on_c, 0, 57, 52
1, 25372, Note_on_c, 0, 65, 79
1, 25396, Note_off_c, 0, 67, 64
1, 25432, Note_off_c, 0, 58, 64
1, 25444, Note_off_c, 0, 53, 64
1, 25476, Note_on_c, 0, 62, 64
1, 25476, Note_on_c, 0, 70, 101
1, 25480, Note_on_c, 0, 58, 80
1, 25488, Control_c, 0, 64, 0
1, 25496, Note_off_c, 0, 63, 64
1, 25504, Note_off_c, 0, 57, 64
1, 25520, Note_off_c, 0, 65, 64
1, 25536, Control_c, 0, 64, 127
1, 25680, Note_off_c, 0, 62, 64
1, 25684, Note_off_c, 0, 58, 64
1, 25764, Note_on_c, 0, 46, 72
1, 25776, Note_on_c, 0, 74, 62
1, 25792, Note_off_c, 0, 70, 64
1, 26040, Note_off_c, 0, 46, 64
1, 26048, Note_off_c, 0, 74, 64
1, 26064, Note_on_c, 0, 48, 82
1, 26072, Note_on_c, 0, 64, 80
1, 26072, Note_on_c, 0, 72, 72
1, 26092, Control_c, 0, 64, 0
1, 26156, Control_c, 0, 64, 127
1, 26168, Note_on_c, 0, 67, 84
1, 26180, Note_off_c, 0, 72, 64
1, 26184, Note_off_c, 0, 64, 64
1, 26392, Note_on_c, 0, 64, 59
1, 26392, Note_on_c, 0, 58, 52
1, 26408, Control_c, 0, 64, 0
1, 26424, Control_c, 0, 64, 127
1, 26464, Note_off_c, 0, 58, 64
1, 26488, Note_off_c, 0, 64, 64
1, 26668, Note_on_c, 0, 64, 46
1, 26668, Note_on_c, 0, 58, 71
1, 26744, Note_off_c, 0, 64, 64
1, 26760, Note_off_c, 0, 58, 64
1, 26924, Note_off_c, 0, 48, 64
1, 26952, Note_on_c, 0, 53, 55
1, 26960, Note_on_c, 0, 63, 71
1, 26960, Note_on_c, 0, 60, 67
1, 26964, Note_on_c, 0, 69, 82
1, 26980, Note_off_c, 0, 67, 64
1, 27044, Note_on_c, 0, 67, 79
1, 27044, Note_on_c, 0, 58, 46
1, 27068, Note_off_c, 0, 69, 64
1, 27084, Note_off_c, 0, 60, 64
1, 27108, Note_on_c, 0, 57, 46
1, 27116, Note_on_c, 0, 65, 59
1, 27132, Note_off_c, 0, 67, 64
1, 27144, Note_off_c, 0, 58, 64
1, 27200, Note_off_c, 0, 53, 64
1, 27200, Control_c, 0, 64, 0
1, 27208, Note_on_c, 0, 62, 36
1, 27216, Note_on_c, 0, 70, 95
1, 27216, Note_on_c, 0, 58, 67
1, 27236, Note_off_c, 0, 63, 64
1, 27236, Note_off_c, 0, 57, 64
1, 27240, Control_c, 0, 64, 127
1, 27248, Note_off_c, 0, 65, 64
1, 27404, Note_off_c, 0, 62, 64
1, 27408, Note_off_c, 0, 58, 64
1, 27492, Note_off_c, 0, 70, 64
1, 27508, Note_on_c, 0, 46, 72
1, 27520, Note_on_c, 0, 74, 74
1, 27624, Note_on_c, 0, 75, 66
1, 27692, Note_off_c, 0, 74, 64
1, 27704, Note_off_c, 0, 46, 64
1, 27776, Note_on_c, 0, 55, 59
1, 27784, Note_on_c, 0, 62, 52
1, 27792, Note_on_c, 0, 67, 63
1, 27796, Note_off_c, 0, 75, 64
1, 27796, Note_on_c, 0, 77, 63
1, 27800, Note_on_c, 0, 71, 74
1, 27812, Control_c, 0, 64, 0
1, 27848, Control_c, 0, 64, 127
1, 27868, Note_on_c, 0, 79, 66
1, 27888, Note_off_c, 0, 77, 64
1, 27892, Note_off_c, 0, 67, 64
1, 27952, Note_on_c, 0, 77, 63
1, 27964, Note_off_c, 0, 71, 64
1, 27980, Note_off_c, 0, 79, 64
1, 28032, Note_off_c, 0, 62, 64
1, 28040, Note_off_c, 0, 55, 64
1, 28060, Note_on_c, 0, 76, 71
1, 28068, Note_on_c, 0, 60, 66
1, 28072, Note_on_c, 0, 67, 63
1, 28072, Note_on_c, 0, 70, 74
1, 28080, Control_c, 0, 64, 0
1, 28088, Note_off_c, 0, 77, 64
1, 28104, Control_c, 0, 64, 127
1, 28236, Note_off_c, 0, 70, 64
1, 28252, Note_off_c, 0, 67, 64
1, 28284, Note_off_c, 0, 60, 64
1, 28360, Note_on_c, 0, 70, 63
1, 28364, Note_on_c, 0, 67, 44
1, 28364, Note_on_c, 0, 72, 67
1, 28368, Note_on_c, 0, 60, 62
1, 28392, Note_off_c, 0, 76, 64
1, 28488, Note_on_c, 0, 74, 72
1, 28492, Note_off_c, 0, 67, 64
1, 28508, Note_off_c, 0, 72, 64
1, 28512, Note_off_c, 0, 70, 64
1, 28536, Note_off_c, 0, 60, 64
1, 28628, Note_on_c, 0, 75, 66
1, 28628, Note_on_c, 0, 69, 66
1, 28632, Note_on_c, 0, 60, 56
1, 28636, Note_on_c, 0, 53, 67
1, 28656, Note_off_c, 0, 74, 64
1, 28656, Control_c, 0, 64, 0
1, 28672, Control_c, 0, 64, 127
1, 28716, Note_on_c, 0, 77, 63
1, 28728, Note_off_c, 0, 60, 64
1, 28744, Note_off_c, 0, 75, 64
1, 28792, Note_off_c, 0, 53, 64
1, 28800, Note_off_c, 0, 69, 64
1, 28800, Note_on_c, 0, 75, 63
1, 28812, Note_off_c, 0, 77, 64
1, 28876, Note_on_c, 0, 74, 57
1, 28884, Note_on_c, 0, 58, 48
1, 28888, Note_on_c, 0, 65, 63
1, 28892, Note_on_c, 0, 68, 74
1, 28896, Note_off_c, 0, 75, 64
1, 28908, Control_c, 0, 64, 0
1, 28944, Control_c, 0, 64, 127
1, 29032, Note_off_c, 0, 65, 64
1, 29040, Note_off_c, 0, 58, 64
1, 29144, Note_off_c, 0, 68, 64
1, 29160, Note_on_c, 0, 58, 74
1, 29168, Note_on_c, 0, 65, 67
1, 29168, Note_on_c, 0, 68, 66
1, 29168, Note_on_c, 0, 70, 66
1, 29208, Note_off_c, 0, 74, 64
1, 29256, Note_off_c, 0, 68, 64
1, 29276, Note_on_c, 0, 72, 66
1, 29284, Note_off_c, 0, 70, 64
1, 29336, Note_off_c, 0, 58, 64
1, 29340, Note_off_c, 0, 65, 64
1, 29400, Note_on_c, 0, 73, 66
1, 29400, Note_on_c, 0, 67, 64
1, 29404, Note_on_c, 0, 64, 48
1, 29404, Note_on_c, 0, 58, 59
1, 29416, Note_on_c, 0, 52, 59
1, 29448, Note_off_c, 0, 72, 64
1, 29448, Control_c, 0, 64, 0
1, 29468, Control_c, 0, 64, 127
1, 29484, Note_off_c, 0, 64, 64
1, 29496, Note_on_c, 0, 75, 74
1, 29500, Note_off_c, 0, 52, 64
1, 29508, Note_off_c, 0, 58, 64
1, 29528, Note_off_c, 0, 73, 64
1, 29560, Note_on_c, 0, 73, 72
1, 29580, Note_off_c, 0, 67, 64
1, 29604, Note_off_c, 0, 75, 64
1, 29688, Note_on_c, 0, 53, 48
1, 29692, Note_on_c, 0, 72, 72
1, 29692, Note_on_c, 0, 67, 64
1, 29692, Note_on_c, 0, 58, 48
1, 29700, Note_on_c, 0, 63, 64
1, 29708, Control_c, 0, 64, 0
1, 29736, Note_off_c, 0, 73, 64
1, 29756, Control_c, 0, 64, 127
1, 29772, Note_off_c, 0, 53, 64
1, 29776, Note_off_c, 0, 58, 64
1, 29784, Note_off_c, 0, 67, 64
1, 29788, Note_off_c, 0, 63, 64
1, 29976, Note_on_c, 0, 53, 59
1, 29976, Note_on_c, 0, 74, 71
1, 29980, Note_on_c, 0, 65, 52
1, 29984, Note_on_c, 0, 63, 63
1, 29988, Note_on_c, 0, 57, 66
1, 30008, Note_off_c, 0, 72, 64
1, 30076, Note_on_c, 0, 72, 72
1, 30096, Note_off_c, 0, 74, 64
1, 30168, Note_off_c, 0, 53, 64
1, 30176, Note_off_c, 0, 65, 64
1, 30180, Note_off_c, 0, 63, 64
1, 30184, Note_off_c, 0, 57, 64
1, 30232, Control_c, 0, 64, 0
1, 30252, Note_on_c, 0, 70, 82
1, 30252, Note_on_c, 0, 62, 55
1, 30256, Note_on_c, 0, 58, 64
1, 30272, Note_off_c, 0, 72, 64
1, 30280, Control_c, 0, 64, 127
1, 30456, Control_c, 0, 64, 0
1, 30504, Control_c, 0, 64, 127
1, 30540, Note_off_c, 0, 62, 64
1, 30544, Note_off_c, 0, 58, 64
1, 30592, Note_on_c, 0, 46, 55
1, 30600, Note_on_c, 0, 82, 65
1, 30784, Note_off_c, 0, 46, 64
1, 30784, Note_off_c, 0, 82, 64
1, 30892, Note_on_c, 0, 94, 81
1, 30900, Note_on_c, 0, 34, 80
1, 31016, Control_c, 0, 64, 0
1, 31076, Note_off_c, 0, 94, 64
1, 31092, Control_c, 0, 64, 0
1, 31112, Note_off_c, 0, 70, 64
1, 31120, Note_off_c, 0, 34, 64
1, 31184, Note_on_c, 0, 41, 56
1, 31196, Note_on_c, 0, 72, 82
1, 31248, Control_c, 0, 64, 0
1, 31280, Note_on_c, 0, 67, 82
1, 31296, Control_c, 0, 64, 127
1, 31316, Note_off_c, 0, 72, 64
1, 31492, Note_on_c, 0, 53, 31
1, 31496, Note_on_c, 0, 58, 56
1, 31496, Control_c, 0, 64, 0
1, 31504, Note_on_c, 0, 63, 66
1, 31520, Control_c, 0, 64, 127
1, 31576, Note_off_c, 0, 53, 64
1, 31616, Note_off_c, 0, 58, 64
1, 31644, Note_off_c, 0, 63, 64
1, 31772, Note_on_c, 0, 53, 40
1, 31776, Note_on_c, 0, 58, 62
1, 31780, Note_on_c, 0, 63, 52
1, 31864, Note_off_c, 0, 53, 64
1, 31876, Note_off_c, 0, 63, 64
1, 31880, Note_off_c, 0, 58, 64
1, 32040, Note_on_c, 0, 53, 52
1, 32044, Note_on_c, 0, 69, 80
1, 32048, Note_on_c, 0, 63, 50
1, 32056, Note_on_c, 0, 60, 44
1, 32060, Control_c, 0, 64, 0
1, 32080, Note_off_c, 0, 67, 64
1, 32084, Control_c, 0, 64, 127
1, 32112, Note_off_c, 0, 41, 64
1, 32120, Note_on_c, 0, 67, 75
1, 32132, Note_on_c, 0, 58, 56
1, 32152, Note_off_c, 0, 69, 64
1, 32204, Note_off_c, 0, 67, 64
1, 32224, Note_off_c, 0, 60, 64
1, 32228, Note_on_c, 0, 65, 73
1, 32232, Note_on_c, 0, 57, 46
1, 32260, Note_off_c, 0, 58, 64
1, 32296, Note_on_c, 0, 62, 60
1, 32296, Note_on_c, 0, 58, 69
1, 32300, Note_off_c, 0, 53, 64
1, 32308, Note_on_c, 0, 70, 105
1, 32312, Control_c, 0, 64, 0
1, 32316, Note_off_c, 0, 63, 64
1, 32336, Note_off_c, 0, 65, 64
1, 32352, Note_off_c, 0, 57, 64
1, 32368, Control_c, 0, 64, 127
1, 32516, Note_off_c, 0, 62, 64
1, 32516, Note_off_c, 0, 58, 64
1, 32592, Note_on_c, 0, 46, 85
1, 32608, Note_on_c, 0, 74, 67
1, 32624, Note_off_c, 0, 70, 64
1, 32736, Note_off_c, 0, 46, 64
1, 32824, Note_off_c, 0, 74, 64
1, 32880, Note_on_c, 0, 41, 81
1, 32888, Note_on_c, 0, 72, 82
1, 32900, Control_c, 0, 64, 0
1, 32952, Control_c, 0, 64, 127
1, 32960, Note_on_c, 0, 67, 80
1, 32996, Note_off_c, 0, 72, 64
1, 33160, Note_on_c, 0, 53, 33
1, 33168, Note_on_c, 0, 63, 48
1, 33172, Note_on_c, 0, 58, 59
1, 33244, Note_off_c, 0, 53, 64
1, 33252, Note_off_c, 0, 58, 64
1, 33256, Note_off_c, 0, 63, 64
1, 33444, Note_on_c, 0, 63, 71
1, 33452, Note_on_c, 0, 53, 62
1, 33456, Note_on_c, 0, 58, 46
1, 33544, Note_off_c, 0, 58, 64
1, 33552, Note_off_c, 0, 63, 64
1, 33580, Note_off_c, 0, 53, 64
1, 33716, Note_off_c, 0, 41, 64
1, 33724, Note_on_c, 0, 53, 69
1, 33728, Control_c, 0, 64, 0
1, 33732, Note_on_c, 0, 60, 70
1, 33736, Note_on_c, 0, 69, 73
1, 33752, Note_off_c, 0, 67, 64
1, 33752, Control_c, 0, 64, 127
1, 33800, Note_on_c, 0, 58, 62
1, 33800, Note_on_c, 0, 67, 72
1, 33824, Note_off_c, 0, 69, 64
1, 33884, Note_off_c, 0, 60, 64
1, 33884, Note_on_c, 0, 57, 23
1, 33892, Note_on_c, 0, 65, 75
1, 33904, Note_off_c, 0, 67, 64
1, 33908, Note_off_c, 0, 58, 64
1, 33976, Note_on_c, 0, 62, 63
1, 33976, Note_on_c, 0, 70, 100
1, 33984, Note_off_c, 0, 53, 64
1, 33984, Note_on_c, 0, 58, 74
1, 34000, Control_c, 0, 64, 0
1, 34008, Note_off_c, 0, 57, 64
1, 34032, Control_c, 0, 64, 127
1, 34044, Note_off_c, 0, 65, 64
1, 34252, Note_off_c, 0, 70, 64
1, 34272, Note_on_c, 0, 46, 74
1, 34272, Note_on_c, 0, 74, 71
1, 34276, Note_off_c, 0, 62, 64
1, 34284, Note_off_c, 0, 58, 64
1, 34380, Note_on_c, 0, 75, 74
1, 34456, Note_off_c, 0, 46, 64
1, 34456, Note_off_c, 0, 74, 64
1, 34536, Note_on_c, 0, 77, 62
1, 34536, Note_on_c, 0, 67, 54
1, 34540, Note_on_c, 0, 62, 63
1, 34540, Note_on_c, 0, 55, 48
1, 34548, Note_on_c, 0, 71, 62
1, 34564, Control_c, 0, 64, 0
1, 34580, Note_off_c, 0, 75, 64
1, 34596, Control_c, 0, 64, 127
1, 34608, Note_on_c, 0, 79, 54
1, 34620, Note_off_c, 0, 77, 64
1, 34620, Note_off_c, 0, 67, 64
1, 34700, Note_off_c, 0, 71, 64
1, 34704, Note_on_c, 0, 77, 62
1, 34728, Note_off_c, 0, 79, 64
1, 34788, Note_off_c, 0, 55, 64
1, 34792, Note_off_c, 0, 62, 64
1, 34804, Note_on_c, 0, 60, 59
1, 34808, Note_on_c, 0, 76, 74
1, 34808, Note_on_c, 0, 67, 59
1, 34816, Note_on_c, 0, 70, 74
1, 34824, Note_off_c, 0, 77, 64
1, 34824, Control_c, 0, 64, 0
1, 34844, Control_c, 0, 64, 127
1, 34968, Note_off_c, 0, 67, 64
1, 34996, Note_off_c, 0, 70, 64
1, 35016, Note_off_c, 0, 60, 64
1, 35076, Note_on_c, 0, 70, 1
1, 35080, Note_on_c, 0, 60, 59
1, 35080, Note_on_c, 0, 72, 71
1, 35080, Note_on_c, 0, 67, 48
1, 35124, Note_off_c, 0, 76, 64
1, 35188, Note_off_c, 0, 67, 64
1, 35192, Note_on_c, 0, 74, 66
1, 35204, Note_off_c, 0, 70, 64
1, 35224, Note_off_c, 0, 72, 64
1, 35268, Note_off_c, 0, 60, 64
1, 35332, Note_on_c, 0, 75, 62
1, 35336, Note_on_c, 0, 69, 63
1, 35336, Note_on_c, 0, 60, 62
1, 35336, Note_on_c, 0, 53, 64
1, 35348, Note_off_c, 0, 74, 64
1, 35348, Note_on_c, 0, 65, 55
1, 35368, Control_c, 0, 64, 0
1, 35384, Control_c, 0, 64, 127
1, 35404, Note_on_c, 0, 77, 62
1, 35428, Note_off_c, 0, 75, 64
1, 35456, Note_off_c, 0, 60, 64
1, 35484, Note_off_c, 0, 65, 64
1, 35492, Note_off_c, 0, 53, 64
1, 35496, Note_on_c, 0, 75, 59
1, 35504, Note_off_c, 0, 69, 64
1, 35512, Note_off_c, 0, 77, 64
1, 35580, Note_on_c, 0, 74, 63
1, 35580, Note_on_c, 0, 58, 48
1, 35588, Note_on_c, 0, 65, 62
1, 35588, Note_on_c, 0, 68, 72
1, 35608, Note_off_c, 0, 75, 64
1, 35624, Control_c, 0, 64, 0
1, 35640, Control_c, 0, 64, 127
1, 35708, Note_off_c, 0, 65, 64
1, 35736, Note_off_c, 0, 68, 64
1, 35756, Note_off_c, 0, 58, 64
1, 35856, Note_on_c, 0, 70, 71
1, 35856, Note_on_c, 0, 68, 62
1, 35864, Note_on_c, 0, 65, 62
1, 35864, Note_on_c, 0, 58, 74
1, 35892, Note_off_c, 0, 74, 64
1, 36036, Note_off_c, 0, 68, 64
1, 36040, Control_c, 0, 64, 0
1, 36092, Note_off_c, 0, 65, 64
1, 36140, Note_off_c, 0, 58, 64
1, 36144, Note_on_c, 0, 73, 66
1, 36144, Note_on_c, 0, 67, 62
1, 36144, Note_on_c, 0, 58, 66
1, 36148, Note_on_c, 0, 51, 54
1, 36172, Note_off_c, 0, 70, 64
1, 36172, Control_c, 0, 64, 0
1, 36188, Control_c, 0, 64, 127
1, 36216, Note_on_c, 0, 75, 59
1, 36236, Note_off_c, 0, 73, 64
1, 36276, Note_off_c, 0, 67, 64
1, 36308, Note_off_c, 0, 58, 64
1, 36316, Note_on_c, 0, 73, 46
1, 36332, Note_off_c, 0, 75, 64
1, 36376, Note_on_c, 0, 72, 72
1, 36376, Note_on_c, 0, 66, 63
1, 36380, Note_off_c, 0, 51, 64
1, 36396, Note_off_c, 0, 73, 64
1, 36396, Note_on_c, 0, 56, 64
1, 36400, Note_on_c, 0, 63, 59
1, 36412, Control_c, 0, 64, 0
1, 36460, Control_c, 0, 64, 127
1, 36616, Note_off_c, 0, 63, 64
1, 36632, Note_off_c, 0, 66, 64
1, 36632, Note_off_c, 0, 56, 64
1, 36656, Control_c, 0, 64, 0
1, 36664, Note_on_c, 0, 66, 62
1, 36664, Note_on_c, 0, 68, 72
1, 36664, Note_on_c, 0, 63, 74
1, 36672, Note_on_c, 0, 56, 64
1, 36692, Note_off_c, 0, 72, 64
1, 36712, Control_c, 0, 64, 127
1, 36752, Note_off_c, 0, 66, 64
1, 36784, Note_on_c, 0, 70, 63
1, 36812, Note_off_c, 0, 68, 64
1, 36848, Note_off_c, 0, 56, 64
1, 36860, Note_off_c, 0, 63, 64
1, 36944, Note_on_c, 0, 71, 63
1, 36944, Note_on_c, 0, 65, 55
1, 36944, Note_on_c, 0, 56, 37
1, 36948, Note_on_c, 0, 49, 62
1, 36952, Control_c, 0, 64, 0
1, 36964, Note_off_c, 0, 70, 64
1, 36992, Control_c, 0, 64, 127
1, 37032, Note_on_c, 0, 73, 71
1, 37056, Note_off_c, 0, 71, 64
1, 37060, Note_off_c, 0, 65, 64
1, 37136, Note_on_c, 0, 71, 55
1, 37160, Note_off_c, 0, 49, 64
1, 37168, Note_off_c, 0, 73, 64
1, 37188, Note_off_c, 0, 56, 64
1, 37212, Note_on_c, 0, 70, 71
1, 37220, Note_on_c, 0, 64, 62
1, 37228, Note_on_c, 0, 54, 46
1, 37228, Note_on_c, 0, 61, 52
1, 37240, Note_off_c, 0, 71, 64
1, 37244, Control_c, 0, 64, 0
1, 37324, Control_c, 0, 64, 127
1, 37336, Note_off_c, 0, 54, 64
1, 37344, Note_off_c, 0, 61, 64
1, 37452, Note_off_c, 0, 64, 64
1, 37528, Note_on_c, 0, 66, 75
1, 37532, Note_on_c, 0, 64, 62
1, 37536, Note_on_c, 0, 61, 48
1, 37544, Note_on_c, 0, 54, 55
1, 37584, Note_off_c, 0, 70, 64
1, 37664, Note_off_c, 0, 61, 64
1, 37672, Note_off_c, 0, 64, 64
1, 37704, Note_off_c, 0, 54, 64
1, 37752, Control_c, 0, 64, 0
1, 37792, Control_c, 0, 64, 0
1, 37872, Note_off_c, 0, 66, 64
1, 37892, Note_on_c, 0, 48, 65
1, 37896, Note_on_c, 0, 64, 73
1, 37904, Note_on_c, 0, 72, 82
1, 37912, Control_c, 0, 64, 0
1, 37972, Note_on_c, 0, 67, 90
1, 37992, Note_off_c, 0, 72, 64
1, 38000, Control_c, 0, 64, 127
1, 38012, Note_off_c, 0, 64, 64
1, 38168, Note_on_c, 0, 58, 62
1, 38176, Note_on_c, 0, 64, 48
1, 38252, Note_off_c, 0, 58, 64
1, 38256, Note_off_c, 0, 64, 64
1, 38456, Note_on_c, 0, 58, 44
1, 38468, Note_on_c, 0, 64, 48
1, 38556, Note_off_c, 0, 64, 64
1, 38564, Note_off_c, 0, 58, 64
1, 38728, Note_off_c, 0, 48, 64
1, 38752, Control_c, 0, 64, 0
1, 38756, Note_on_c, 0, 63, 62
1, 38760, Note_on_c, 0, 60, 57
1, 38768, Note_on_c, 0, 69, 72
1, 38768, Note_on_c, 0, 53, 55
1, 38792, Control_c, 0, 64, 127
1, 38800, Note_off_c, 0, 67, 64
1, 38852, Note_on_c, 0, 67, 65
1, 38864, Note_off_c, 0, 69, 64
1, 38864, Note_on_c, 0, 58, 56
1, 38912, Note_off_c, 0, 60, 64
1, 38928, Note_on_c, 0, 65, 65
1, 38948, Note_on_c, 0, 57, 35
1, 38956, Note_off_c, 0, 67, 64
1, 38992, Note_off_c, 0, 58, 64
1, 39004, Control_c, 0, 64, 0
1, 39024, Note_on_c, 0, 62, 41
1, 39024, Note_on_c, 0, 70, 88
1, 39032, Note_on_c, 0, 58, 58
1, 39040, Note_off_c, 0, 57, 64
1, 39048, Note_off_c, 0, 63, 64
1, 39048, Note_off_c, 0, 53, 64
1, 39064, Control_c, 0, 64, 127
1, 39072, Note_off_c, 0, 65, 64
1, 39264, Note_off_c, 0, 62, 64
1, 39272, Note_off_c, 0, 58, 64
1, 39300, Note_on_c, 0, 74, 73
1, 39304, Note_on_c, 0, 46, 72
1, 39344, Note_off_c, 0, 70, 64
1, 39568, Note_off_c, 0, 46, 64
1, 39624, Note_on_c, 0, 48, 73
1, 39624, Note_on_c, 0, 72, 82
1, 39632, Note_on_c, 0, 64, 75
1, 39632, Control_c, 0, 64, 0
1, 39636, Note_off_c, 0, 74, 64
1, 39700, Control_c, 0, 64, 127
1, 39712, Note_off_c, 0, 64, 64
1, 39716, Note_on_c, 0, 67, 94
1, 39744, Note_off_c, 0, 72, 64
1, 39872, Note_on_c, 0, 58, 41
1, 39888, Note_on_c, 0, 64, 41
1, 39944, Note_off_c, 0, 58, 64
1, 39948, Note_off_c, 0, 64, 64
1, 40168, Note_on_c, 0, 58, 54
1, 40176, Note_on_c, 0, 64, 48
1, 40240, Note_off_c, 0, 64, 64
1, 40248, Note_off_c, 0, 58, 64
1, 40448, Control_c, 0, 64, 0
1, 40452, Note_on_c, 0, 63, 57
1, 40452, Note_on_c, 0, 53, 55
1, 40456, Note_on_c, 0, 60, 56
1, 40464, Note_on_c, 0, 69, 72
1, 40476, Note_off_c, 0, 48, 64
1, 40476, Control_c, 0, 64, 127
1, 40480, Note_off_c, 0, 67, 64
1, 40520, Note_on_c, 0, 58, 55
1, 40532, Note_on_c, 0, 67, 82
1, 40556, Note_off_c, 0, 69, 64
1, 40616, Note_off_c, 0, 60, 64
1, 40616, Note_on_c, 0, 57, 46
1, 40624, Note_on_c, 0, 65, 65
1, 40640, Note_off_c, 0, 58, 64
1, 40648, Note_off_c, 0, 67, 64
1, 40692, Note_off_c, 0, 53, 64
1, 40696, Note_on_c, 0, 62, 70
1, 40696, Note_on_c, 0, 58, 70
1, 40704, Note_on_c, 0, 70, 92
1, 40712, Control_c, 0, 64, 0
1, 40716, Note_off_c, 0, 63, 64
1, 40720, Note_off_c, 0, 57, 64
1, 40728, Note_off_c, 0, 65, 64
1, 40752, Control_c, 0, 64, 127
1, 40932, Note_off_c, 0, 62, 64
1, 40932, Note_off_c, 0, 58, 64
1, 41004, Note_on_c, 0, 74, 67
1, 41008, Note_on_c, 0, 46, 79
1, 41040, Control_c, 0, 64, 0
1, 41064, Note_off_c, 0, 70, 64
1, 41072, Control_c, 0, 64, 127
1, 41112, Note_on_c, 0, 75, 74
1, 41160, Note_off_c, 0, 74, 64
1, 41184, Note_off_c, 0, 46, 64
1, 41264, Note_on_c, 0, 71, 67
1, 41272, Note_on_c, 0, 62, 56
1, 41272, Note_on_c, 0, 55, 66
1, 41272, Note_on_c, 0, 77, 63
1, 41276, Note_on_c, 0, 67, 63
1, 41308, Note_off_c, 0, 75, 64
1, 41308, Control_c, 0, 64, 0
1, 41328, Control_c, 0, 64, 127
1, 41356, Note_on_c, 0, 79, 71
1, 41364, Note_off_c, 0, 67, 64
1, 41376, Note_off_c, 0, 77, 64
1, 41408, Note_off_c, 0, 71, 64
1, 41448, Note_on_c, 0, 77, 56
1, 41480, Note_off_c, 0, 55, 64
1, 41488, Note_off_c, 0, 62, 64
1, 41488, Note_off_c, 0, 79, 64
1, 41540, Note_on_c, 0, 76, 75
1, 41540, Note_on_c, 0, 60, 67
1, 41544, Note_on_c, 0, 70, 74
1, 41544, Note_on_c, 0, 67, 67
1, 41552, Control_c, 0, 64, 0
1, 41556, Note_off_c, 0, 77, 64
1, 41568, Control_c, 0, 64, 127
1, 41644, Note_off_c, 0, 67, 64
1, 41652, Note_off_c, 0, 60, 64
1, 41728, Note_off_c, 0, 70, 64
1, 41796, Control_c, 0, 64, 0
1, 41812, Note_on_c, 0, 60, 66
1, 41816, Note_on_c, 0, 72, 79
1, 41816, Note_on_c, 0, 67, 66
1, 41820, Note_on_c, 0, 70, 71
1, 41852, Note_off_c, 0, 76, 64
1, 41860, Control_c, 0, 64, 127
1, 41888, Note_off_c, 0, 67, 64
1, 41904, Note_off_c, 0, 60, 64
1, 41912, Note_off_c, 0, 70, 64
1, 41924, Note_on_c, 0, 74, 66
1, 41952, Note_off_c, 0, 72, 64
1, 42044, Note_on_c, 0, 60, 66
1, 42044, Note_on_c, 0, 53, 67
1, 42048, Note_on_c, 0, 75, 59
1, 42052, Note_on_c, 0, 69, 52
1, 42068, Note_off_c, 0, 74, 64
1, 42088, Control_c, 0, 64, 0
1, 42124, Control_c, 0, 64, 127
1, 42136, Note_on_c, 0, 77, 72
1, 42168, Note_off_c, 0, 75, 64
1, 42204, Note_off_c, 0, 69, 64
1, 42216, Note_off_c, 0, 53, 64
1, 42228, Note_on_c, 0, 75, 64
1, 42240, Note_off_c, 0, 60, 64
1, 42248, Note_off_c, 0, 77, 64
1, 42308, Note_on_c, 0, 58, 66
1, 42308, Note_on_c, 0, 68, 66
1, 42316, Note_on_c, 0, 74, 66
1, 42316, Note_on_c, 0, 65, 62
1, 42328, Control_c, 0, 64, 0
1, 42340, Note_off_c, 0, 75, 64
1, 42364, Control_c, 0, 64, 127
1, 42412, Note_off_c, 0, 68, 64
1, 42420, Note_off_c, 0, 65, 64
1, 42432, Note_off_c, 0, 58, 64
1, 42580, Note_on_c, 0, 70, 72
1, 42584, Note_on_c, 0, 68, 59
1, 42584, Note_on_c, 0, 65, 66
1, 42592, Note_on_c, 0, 58, 74
1, 42620, Note_off_c, 0, 74, 64
1, 42656, Note_off_c, 0, 65, 64
1, 42660, Note_off_c, 0, 68, 64
1, 42680, Note_off_c, 0, 58, 64
1, 42688, Note_on_c, 0, 72, 64
1, 42712, Note_off_c, 0, 70, 64
1, 42844, Note_on_c, 0, 67, 44
1, 42844, Note_on_c, 0, 73, 66
1, 42852, Note_on_c, 0, 52, 59
1, 42852, Note_on_c, 0, 64, 52
1, 42852, Note_on_c, 0, 58, 59
1, 42868, Control_c, 0, 64, 0
1, 42880, Note_off_c, 0, 72, 64
1, 42896, Control_c, 0, 64, 127
1, 42924, Note_off_c, 0, 52, 64
1, 42932, Note_off_c, 0, 64, 64
1, 42940, Note_on_c, 0, 75, 66
1, 42956, Note_off_c, 0, 73, 64
1, 42980, Note_off_c, 0, 58, 64
1, 43000, Note_on_c, 0, 73, 59
1, 43044, Note_off_c, 0, 75, 64
1, 43048, Note_off_c, 0, 67, 64
1, 43112, Note_on_c, 0, 72, 67
1, 43112, Note_on_c, 0, 67, 64
1, 43112, Note_on_c, 0, 63, 66
1, 43112, Note_on_c, 0, 53, 62
1, 43120, Note_on_c, 0, 58, 32
1, 43140, Control_c, 0, 64, 0
1, 43156, Note_off_c, 0, 73, 64
1, 43188, Control_c, 0, 64, 127
1, 43232, Note_off_c, 0, 58, 64
1, 43252, Note_off_c, 0, 67, 64
1, 43252, Note_off_c, 0, 63, 64
1, 43252, Note_off_c, 0, 53, 64
1, 43420, Note_on_c, 0, 65, 52
1, 43428, Note_on_c, 0, 53, 52
1, 43432, Note_on_c, 0, 63, 48
1, 43432, Note_on_c, 0, 74, 66
1, 43432, Note_on_c, 0, 57, 52
1, 43440, Note_off_c, 0, 72, 64
1, 43460, Control_c, 0, 64, 0
1, 43492, Control_c, 0, 64, 127
1, 43536, Note_on_c, 0, 72, 66
1, 43552, Note_off_c, 0, 74, 64
1, 43616, Note_off_c, 0, 65, 64
1, 43624, Note_off_c, 0, 63, 64
1, 43628, Note_off_c, 0, 57, 64
1, 43648, Note_off_c, 0, 53, 64
1, 43680, Note_on_c, 0, 70, 82
1, 43684, Note_on_c, 0, 62, 48
1, 43684, Note_on_c, 0, 58, 66
1, 43708, Note_off_c, 0, 72, 64
1, 43880, Control_c, 0, 64, 0
1, 43996, Note_off_c, 0, 62, 64
1, 44008, Note_on_c, 0, 46, 39
1, 44008, Note_on_c, 0, 82, 73
1, 44072, Note_off_c, 0, 58, 64
1, 44336, Note_on_c, 0, 94, 81
1, 44360, Note_on_c, 0, 34, 75
1, 44476, Note_off_c, 0, 82, 64
1, 44596, Note_off_c, 0, 94, 64
1, 44652, Note_off_c, 0, 34, 64
1, 44696, Note_off_c, 0, 46, 64
1, 44744, Note_on_c, 0, 62, 60
1, 44748, Note_off_c, 0, 70, 64
1, 44772, Control_c, 0, 64, 0
1, 44848, Control_c, 0, 64, 127
1, 44904, Note_on_c, 0, 63, 59
1, 44936, Note_off_c, 0, 62, 64
1, 45104, Note_on_c, 0, 62, 73
1, 45136, Control_c, 0, 64, 0
1, 45140, Note_off_c, 0, 63, 64
1, 45240, Control_c, 0, 64, 127
1, 45464, Note_on_c, 0, 69, 59
1, 45496, Note_off_c, 0, 62, 64
1, 45508, Control_c, 0, 64, 0
1, 45596, Control_c, 0, 64, 127
1, 45932, Note_on_c, 0, 67, 67
1, 45960, Note_off_c, 0, 69, 64
1, 46040, Control_c, 0, 64, 0
1, 46052, Control_c, 0, 64, 127
1, 46464, Note_on_c, 0, 66, 60
1, 46500, Note_off_c, 0, 67, 64
1, 46624, Control_c, 0, 64, 0
1, 46672, Control_c, 0, 64, 127
1, 47068, Note_on_c, 0, 63, 57
1, 47092, Note_off_c, 0, 66, 64
1, 47184, Control_c, 0, 64, 0
1, 47200, Control_c, 0, 64, 127
1, 47252, Note_on_c, 0, 62, 75
1, 47276, Note_off_c, 0, 63, 64
1, 47384, Note_on_c, 0, 63, 59
1, 47440, Note_off_c, 0, 62, 64
1, 47444, Control_c, 0, 64, 0
1, 47536, Control_c, 0, 64, 127
1, 47552, Note_on_c, 0, 62, 80
1, 47592, Note_off_c, 0, 63, 64
1, 47896, Note_on_c, 0, 69, 69
1, 47936, Note_off_c, 0, 62, 64
1, 47936, Control_c, 0, 64, 0
1, 48012, Control_c, 0, 64, 127
1, 48316, Note_on_c, 0, 67, 69
1, 48356, Note_off_c, 0, 69, 64
1, 48440, Note_on_c, 0, 69, 70
1, 48460, Note_off_c, 0, 67, 64
1, 48528, Note_on_c, 0, 67, 58
1, 48544, Note_off_c, 0, 69, 64
1, 48644, Note_on_c, 0, 66, 77
1, 48664, Control_c, 0, 64, 0
1, 48676, Note_off_c, 0, 67, 64
1, 48784, Control_c, 0, 64, 127
1, 49116, Note_on_c, 0, 63, 57
1, 49152, Note_off_c, 0, 66, 64
1, 49168, Control_c, 0, 64, 0
1, 49248, Control_c, 0, 64, 127
1, 49648, Note_on_c, 0, 62, 72
1, 49680, Note_off_c, 0, 63, 64
1, 49712, Control_c, 0, 64, 0
1, 49744, Control_c, 0, 64, 127
1, 49864, Note_on_c, 0, 63, 46
1, 49888, Note_off_c, 0, 62, 64
1, 50064, Note_on_c, 0, 62, 74
1, 50088, Note_off_c, 0, 63, 64
1, 50088, Control_c, 0, 64, 0
1, 50164, Control_c, 0, 64, 127
1, 50444, Note_on_c, 0, 72, 77
1, 50524, Note_off_c, 0, 62, 64
1, 50888, Note_on_c, 0, 71, 63
1, 50960, Note_off_c, 0, 72, 64
1, 51064, Note_on_c, 0, 70, 66
1, 51104, Note_off_c, 0, 71, 64
1, 51240, Note_on_c, 0, 69, 58
1, 51268, Note_off_c, 0, 70, 64
1, 51292, Control_c, 0, 64, 0
1, 51524, Control_c, 0, 64, 127
1, 51628, Note_on_c, 0, 68, 62
1, 51664, Note_off_c, 0, 69, 64
1, 51828, Note_on_c, 0, 67, 56
1, 51864, Note_off_c, 0, 68, 64
1, 52084, Note_on_c, 0, 66, 35
1, 52116, Note_off_c, 0, 67, 64
1, 52116, Control_c, 0, 64, 0
1, 52188, Control_c, 0, 64, 127
1, 52368, Note_on_c, 0, 73, 56
1, 52436, Note_off_c, 0, 66, 64
1, 52696, Note_on_c, 0, 74, 55
1, 52720, Note_off_c, 0, 73, 64
1, 52792, Control_c, 0, 64, 0
1, 52896, Control_c, 0, 64, 127
1, 53540, Note_on_c, 0, 75, 37
1, 53612, Note_off_c, 0, 74, 64
1, 53820, Note_on_c, 0, 74, 60
1, 53844, Note_off_c, 0, 75, 64
1, 54084, Note_on_c, 0, 75, 58
1, 54124, Note_off_c, 0, 74, 64
1, 54332, Note_on_c, 0, 74, 71
1, 54352, Note_off_c, 0, 75, 64
1, 54568, Note_on_c, 0, 75, 85
1, 54636, Note_off_c, 0, 74, 64
1, 54824, Note_on_c, 0, 74, 73
1, 54900, Note_off_c, 0, 75, 64
1, 55160, Note_on_c, 0, 75, 70
1, 55224, Note_off_c, 0, 74, 64
1, 55540, Note_on_c, 0, 38, 47
1, 55552, Note_on_c, 0, 74, 86
1, 55588, Note_off_c, 0, 75, 64
1, 55600, Control_c, 0, 64, 0
1, 55664, Control_c, 0, 64, 127
1, 55880, Note_off_c, 0, 74, 64
1, 55896, Note_on_c, 0, 77, 57
1, 55944, Note_on_c, 0, 75, 74
1, 55980, Note_off_c, 0, 77, 64
1, 56012, Note_on_c, 0, 74, 89
1, 56024, Note_on_c, 0, 54, 43
1, 56028, Note_on_c, 0, 60, 47
1, 56032, Control_c, 0, 64, 0
1, 56036, Note_on_c, 0, 62, 47
1, 56040, Note_off_c, 0, 75, 64
1, 56072, Control_c, 0, 64, 127
1, 56132, Note_off_c, 0, 60, 64
1, 56156, Note_off_c, 0, 62, 64
1, 56164, Note_off_c, 0, 54, 64
1, 56364, Note_on_c, 0, 54, 47
1, 56376, Note_off_c, 0, 74, 64
1, 56376, Note_on_c, 0, 60, 35
1, 56376, Note_on_c, 0, 69, 75
1, 56384, Note_on_c, 0, 62, 40
1, 56456, Note_off_c, 0, 60, 64
1, 56460, Note_off_c, 0, 62, 64
1, 56468, Note_off_c, 0, 38, 64
1, 56480, Note_off_c, 0, 54, 64
1, 56736, Note_on_c, 0, 70, 90
1, 56744, Note_on_c, 0, 43, 78
1, 56780, Control_c, 0, 64, 0
1, 56788, Note_off_c, 0, 69, 64
1, 56832, Control_c, 0, 64, 127
1, 57084, Note_on_c, 0, 55, 31
1, 57100, Note_on_c, 0, 62, 49
1, 57104, Note_on_c, 0, 58, 47
1, 57184, Note_off_c, 0, 55, 64
1, 57188, Note_off_c, 0, 62, 64
1, 57192, Note_off_c, 0, 58, 64
1, 57228, Note_on_c, 0, 67, 75
1, 57264, Note_off_c, 0, 70, 64
1, 57380, Note_on_c, 0, 63, 59
1, 57388, Note_on_c, 0, 74, 73
1, 57400, Note_off_c, 0, 67, 64
1, 57400, Note_on_c, 0, 55, 60
1, 57400, Note_on_c, 0, 58, 54
1, 57456, Note_off_c, 0, 63, 64
1, 57480, Note_off_c, 0, 58, 64
1, 57496, Note_off_c, 0, 55, 64
1, 57520, Note_on_c, 0, 75, 82
1, 57560, Note_off_c, 0, 74, 64
1, 57612, Note_off_c, 0, 43, 64
1, 57672, Note_on_c, 0, 77, 72
1, 57676, Note_on_c, 0, 45, 72
1, 57700, Note_off_c, 0, 75, 64
1, 57704, Control_c, 0, 64, 0
1, 57736, Control_c, 0, 64, 127
1, 57856, Note_on_c, 0, 81, 72
1, 57864, Note_off_c, 0, 77, 64
1, 57904, Note_on_c, 0, 79, 73
1, 57932, Note_off_c, 0, 81, 64
1, 57956, Note_on_c, 0, 53, 54
1, 57956, Note_on_c, 0, 63, 52
1, 57960, Note_on_c, 0, 60, 54
1, 57968, Note_on_c, 0, 77, 101
1, 57976, Control_c, 0, 64, 0
1, 57988, Note_off_c, 0, 79, 64
1, 58012, Control_c, 0, 64, 127
1, 58024, Note_off_c, 0, 60, 64
1, 58028, Note_off_c, 0, 53, 64
1, 58048, Note_off_c, 0, 63, 64
1, 58248, Note_on_c, 0, 63, 58
1, 58256, Note_on_c, 0, 72, 75
1, 58256, Note_on_c, 0, 53, 54
1, 58272, Note_on_c, 0, 57, 54
1, 58292, Note_off_c, 0, 77, 64
1, 58312, Note_off_c, 0, 63, 64
1, 58328, Note_off_c, 0, 53, 64
1, 58336, Note_off_c, 0, 57, 64
1, 58520, Note_off_c, 0, 45, 64
1, 58576, Note_on_c, 0, 46, 59
1, 58588, Note_on_c, 0, 74, 80
1, 58640, Note_off_c, 0, 72, 64
1, 58648, Control_c, 0, 64, 0
1, 58696, Control_c, 0, 64, 127
1, 58908, Note_on_c, 0, 53, 35
1, 58924, Note_on_c, 0, 58, 49
1, 58928, Note_on_c, 0, 62, 23
1, 59032, Note_off_c, 0, 53, 64
1, 59040, Note_off_c, 0, 58, 64
1, 59048, Note_off_c, 0, 62, 64
1, 59088, Note_off_c, 0, 74, 64
1, 59212, Note_on_c, 0, 74, 80
1, 59216, Note_on_c, 0, 62, 58
1, 59228, Note_on_c, 0, 58, 49
1, 59228, Note_on_c, 0, 53, 49
1, 59272, Note_off_c, 0, 74, 64
1, 59348, Note_on_c, 0, 74, 85
1, 59388, Note_off_c, 0, 62, 64
1, 59408, Note_off_c, 0, 74, 64
1, 59416, Note_off_c, 0, 58, 64
1, 59432, Note_off_c, 0, 53, 64
1, 59480, Note_on_c, 0, 74, 95
1, 59488, Note_off_c, 0, 46, 64
1, 59488, Control_c, 0, 64, 0
1, 59520, Control_c, 0, 64, 127
1, 59624, Note_off_c, 0, 74, 64
1, 59632, Note_on_c, 0, 77, 66
1, 59684, Note_on_c, 0, 75, 64
1, 59712, Note_off_c, 0, 77, 64
1, 59736, Note_on_c, 0, 54, 59
1, 59740, Control_c, 0, 64, 0
1, 59752, Note_on_c, 0, 60, 37
1, 59752, Note_on_c, 0, 50, 32
1, 59752, Note_on_c, 0, 74, 86
1, 59784, Note_off_c, 0, 75, 64
1, 59784, Control_c, 0, 64, 127
1, 59812, Note_off_c, 0, 54, 64
1, 59832, Note_off_c, 0, 60, 64
1, 59832, Note_off_c, 0, 50, 64
1, 60016, Note_on_c, 0, 60, 58
1, 60016, Note_on_c, 0, 54, 59
1, 60024, Note_on_c, 0, 50, 46
1, 60028, Note_on_c, 0, 69, 86
1, 60052, Note_off_c, 0, 74, 64
1, 60064, Note_off_c, 0, 60, 64
1, 60076, Note_off_c, 0, 54, 64
1, 60088, Note_off_c, 0, 50, 64
1, 60240, Note_off_c, 0, 69, 64
1, 60256, Note_on_c, 0, 72, 78
1, 60300, Note_on_c, 0, 70, 87
1, 60320, Note_on_c, 0, 43, 80
1, 60340, Note_off_c, 0, 72, 64
1, 60344, Control_c, 0, 64, 0
1, 60376, Control_c, 0, 64, 127
1, 60448, Note_on_c, 0, 69, 74
1, 60472, Note_off_c, 0, 70, 64
1, 60584, Note_on_c, 0, 58, 71
1, 60584, Note_on_c, 0, 67, 78
1, 60592, Note_off_c, 0, 69, 64
1, 60596, Note_on_c, 0, 50, 72
1, 60600, Control_c, 0, 64, 0
1, 60620, Control_c, 0, 64, 127
1, 60932, Note_on_c, 0, 63, 80
1, 60936, Note_on_c, 0, 72, 88
1, 60948, Note_off_c, 0, 50, 64
1, 60948, Note_on_c, 0, 55, 71
1, 60952, Note_on_c, 0, 48, 59
1, 60956, Note_off_c, 0, 67, 64
1, 60996, Note_off_c, 0, 43, 64
1, 61000, Control_c, 0, 64, 0
1, 61004, Note_off_c, 0, 58, 64
1, 61088, Control_c, 0, 64, 127
1, 61260, Note_on_c, 0, 67, 74
1, 61276, Note_off_c, 0, 72, 64
1, 61348, Note_off_c, 0, 63, 64
1, 61352, Note_on_c, 0, 69, 75
1, 61384, Note_off_c, 0, 67, 64
1, 61488, Note_off_c, 0, 48, 64
1, 61488, Note_on_c, 0, 43, 72
1, 61500, Note_on_c, 0, 70, 89
1, 61504, Note_on_c, 0, 62, 89
1, 61504, Note_on_c, 0, 50, 78
1, 61516, Note_off_c, 0, 69, 64
1, 61528, Control_c, 0, 64, 0
1, 61548, Note_off_c, 0, 55, 64
1, 61576, Control_c, 0, 64, 127
1, 61624, Note_off_c, 0, 62, 64
1, 61812, Note_on_c, 0, 72, 89
1, 61820, Note_on_c, 0, 63, 87
1, 61828, Note_on_c, 0, 48, 80
1, 61832, Note_off_c, 0, 43, 64
1, 61832, Note_on_c, 0, 55, 80
1, 61840, Note_off_c, 0, 70, 64
1, 61852, Note_off_c, 0, 50, 64
1, 61872, Control_c, 0, 64, 0
1, 61976, Control_c, 0, 64, 127
1, 62160, Note_on_c, 0, 67, 74
1, 62176, Note_off_c, 0, 72, 64
1, 62288, Note_on_c, 0, 69, 71
1, 62296, Note_off_c, 0, 63, 64
1, 62320, Note_off_c, 0, 67, 64
1, 62436, Note_off_c, 0, 48, 64
1, 62456, Note_on_c, 0, 43, 66
1, 62468, Note_on_c, 0, 62, 89
1, 62472, Note_on_c, 0, 70, 93
1, 62472, Note_on_c, 0, 50, 82
1, 62496, Note_off_c, 0, 69, 64
1, 62504, Control_c, 0, 64, 0
1, 62516, Note_off_c, 0, 55, 64
1, 62544, Control_c, 0, 64, 127
1, 62792, Note_off_c, 0, 62, 64
1, 62848, Note_off_c, 0, 43, 64
1, 62856, Note_off_c, 0, 50, 64
1, 62864, Note_on_c, 0, 63, 80
1, 62872, Note_on_c, 0, 48, 65
1, 62880, Note_on_c, 0, 55, 69
1, 62888, Note_on_c, 0, 72, 89
1, 62912, Note_off_c, 0, 70, 64
1, 63004, Note_off_c, 0, 55, 64
1, 63048, Note_off_c, 0, 48, 64
1, 63192, Note_off_c, 0, 63, 64
1, 63268, Note_on_c, 0, 42, 75
1, 63280, Note_on_c, 0, 62, 81
1, 63280, Note_on_c, 0, 74, 88
1, 63280, Control_c, 0, 64, 0
1, 63284, Note_off_c, 0, 72, 64
1, 63332, Control_c, 0, 64, 127
1, 63464, Note_off_c, 0, 62, 64
1, 63472, Note_on_c, 0, 75, 74
1, 63484, Note_off_c, 0, 74, 64
1, 63604, Control_c, 0, 64, 0
1, 63620, Note_off_c, 0, 75, 64
1, 63620, Note_on_c, 0, 50, 49
1, 63628, Note_on_c, 0, 74, 88
1, 63632, Note_on_c, 0, 60, 52
1, 63680, Control_c, 0, 64, 127
1, 63712, Note_off_c, 0, 50, 64
1, 63728, Note_off_c, 0, 60, 64
1, 63744, Note_off_c, 0, 42, 64
1, 63904, Note_on_c, 0, 50, 59
1, 63908, Note_on_c, 0, 60, 58
1, 63920, Note_on_c, 0, 69, 86
1, 63936, Note_off_c, 0, 74, 64
1, 63972, Note_off_c, 0, 60, 64
1, 63980, Note_off_c, 0, 50, 64
1, 64208, Note_on_c, 0, 70, 86
1, 64212, Note_on_c, 0, 43, 88
1, 64224, Control_c, 0, 64, 0
1, 64228, Note_off_c, 0, 69, 64
1, 64272, Control_c, 0, 64, 127
1, 64492, Note_on_c, 0, 55, 49
1, 64512, Note_on_c, 0, 58, 59
1, 64516, Control_c, 0, 64, 0
1, 64524, Note_on_c, 0, 62, 59
1, 64552, Control_c, 0, 64, 127
1, 64608, Note_off_c, 0, 55, 64
1, 64612, Note_off_c, 0, 58, 64
1, 64628, Note_on_c, 0, 67, 82
1, 64636, Note_off_c, 0, 62, 64
1, 64680, Note_off_c, 0, 43, 64
1, 64696, Note_off_c, 0, 70, 64
1, 64820, Note_on_c, 0, 63, 59
1, 64832, Note_on_c, 0, 58, 57
1, 64832, Note_on_c, 0, 55, 59
1, 64840, Note_on_c, 0, 74, 89
1, 64852, Control_c, 0, 64, 0
1, 64888, Note_off_c, 0, 63, 64
1, 64892, Note_off_c, 0, 67, 64
1, 64900, Note_off_c, 0, 55, 64
1, 64904, Note_off_c, 0, 58, 64
1, 64904, Control_c, 0, 64, 127
1, 64996, Note_on_c, 0, 75, 95
1, 65040, Note_off_c, 0, 74, 64
1, 65160, Note_on_c, 0, 77, 82
1, 65168, Note_on_c, 0, 45, 80
1, 65180, Control_c, 0, 64, 0
1, 65192, Note_off_c, 0, 75, 64
1, 65216, Control_c, 0, 64, 127
1, 65360, Note_on_c, 0, 81, 81
1, 65376, Note_off_c, 0, 77, 64
1, 65412, Note_on_c, 0, 79, 82
1, 65436, Note_off_c, 0, 81, 64
1, 65448, Note_on_c, 0, 63, 64
1, 65460, Note_on_c, 0, 53, 58
1, 65464, Note_on_c, 0, 60, 54
1, 65480, Note_on_c, 0, 77, 93
1, 65484, Control_c, 0, 64, 0
1, 65496, Note_off_c, 0, 79, 64
1, 65532, Control_c, 0, 64, 127
1, 65560, Note_off_c, 0, 60, 64
1, 65568, Note_off_c, 0, 53, 64
1, 65588, Note_off_c, 0, 63, 64
1, 65620, Note_off_c, 0, 45, 64
1, 65752, Note_on_c, 0, 53, 59
1, 65760, Note_on_c, 0, 63, 59
1, 65764, Note_off_c, 0, 77, 64
1, 65764, Note_on_c, 0, 72, 78
1, 65772, Note_on_c, 0, 57, 59
1, 65788, Control_c, 0, 64, 0
1, 65808, Control_c, 0, 64, 127
1, 65832, Note_off_c, 0, 63, 64
1, 65844, Note_off_c, 0, 57, 64
1, 65848, Note_off_c, 0, 53, 64
1, 66148, Note_on_c, 0, 46, 71
1, 66168, Note_on_c, 0, 74, 87
1, 66180, Control_c, 0, 64, 0
1, 66200, Note_off_c, 0, 72, 64
1, 66244, Control_c, 0, 64, 127
1, 66568, Note_on_c, 0, 53, 59
1, 66572, Note_on_c, 0, 58, 54
1, 66580, Note_on_c, 0, 62, 54
1, 66588, Control_c, 0, 64, 0
1, 66620, Control_c, 0, 64, 127
1, 66680, Note_off_c, 0, 53, 64
1, 66680, Note_off_c, 0, 58, 64
1, 66692, Note_off_c, 0, 46, 64
1, 66696, Note_off_c, 0, 62, 64
1, 66736, Note_off_c, 0, 74, 64
1, 66920, Note_on_c, 0, 58, 54
1, 66924, Note_on_c, 0, 62, 51
1, 66924, Note_on_c, 0, 53, 40
1, 66928, Note_on_c, 0, 74, 86
1, 66988, Note_off_c, 0, 74, 64
1, 67052, Note_on_c, 0, 74, 89
1, 67112, Note_off_c, 0, 74, 64
1, 67172, Note_on_c, 0, 74, 93
1, 67192, Note_off_c, 0, 62, 64
1, 67208, Note_off_c, 0, 58, 64
1, 67212, Note_off_c, 0, 53, 64
1, 67348, Note_off_c, 0, 74, 64
1, 67364, Note_on_c, 0, 77, 74
1, 67408, Note_on_c, 0, 75, 87
1, 67440, Note_off_c, 0, 77, 64
1, 67456, Control_c, 0, 64, 0
1, 67468, Note_on_c, 0, 50, 54
1, 67468, Note_on_c, 0, 54, 43
1, 67472, Note_on_c, 0, 60, 49
1, 67480, Note_on_c, 0, 74, 75
1, 67500, Note_off_c, 0, 75, 64
1, 67536, Control_c, 0, 64, 127
1, 67560, Note_off_c, 0, 54, 64
1, 67576, Note_off_c, 0, 50, 64
1, 67584, Note_off_c, 0, 60, 64
1, 67780, Note_on_c, 0, 50, 59
1, 67792, Note_on_c, 0, 60, 59
1, 67792, Note_on_c, 0, 54, 40
1, 67796, Note_on_c, 0, 69, 80
1, 67804, Note_off_c, 0, 74, 64
1, 67824, Note_off_c, 0, 54, 64
1, 67840, Note_off_c, 0, 60, 64
1, 67852, Note_off_c, 0, 50, 64
1, 68144, Note_on_c, 0, 70, 100
1, 68144, Note_on_c, 0, 43, 78
1, 68156, Control_c, 0, 64, 0
1, 68188, Note_off_c, 0, 69, 64
1, 68208, Control_c, 0, 64, 127
1, 68552, Note_on_c, 0, 58, 66
1, 68556, Note_on_c, 0, 62, 63
1, 68556, Note_on_c, 0, 55, 70
1, 68568, Note_on_c, 0, 67, 79
1, 68596, Note_off_c, 0, 70, 64
1, 68700, Note_off_c, 0, 55, 64
1, 68720, Note_off_c, 0, 58, 64
1, 68724, Note_off_c, 0, 62, 64
1, 68772, Note_on_c, 0, 82, 93
1, 68852, Note_off_c, 0, 67, 64
1, 68980, Note_on_c, 0, 48, 59
1, 68992, Note_off_c, 0, 43, 64
1, 68992, Note_on_c, 0, 81, 95
1, 68992, Note_on_c, 0, 63, 60
1, 69004, Note_on_c, 0, 55, 74
1, 69044, Note_off_c, 0, 82, 64
1, 69156, Note_off_c, 0, 48, 64
1, 69160, Note_on_c, 0, 79, 82
1, 69184, Note_off_c, 0, 81, 64
1, 69228, Note_off_c, 0, 79, 64
1, 69256, Note_off_c, 0, 55, 64
1, 69268, Note_off_c, 0, 63, 64
1, 69328, Note_on_c, 0, 50, 72
1, 69332, Note_on_c, 0, 79, 69
1, 69416, Control_c, 0, 64, 0
1, 69464, Control_c, 0, 64, 127
1, 69496, Note_on_c, 0, 77, 80
1, 69512, Note_off_c, 0, 79, 64
1, 69680, Note_on_c, 0, 75, 78
1, 69692, Note_off_c, 0, 77, 64
1, 69696, Note_on_c, 0, 55, 71
1, 69704, Note_on_c, 0, 60, 65
1, 69728, Control_c, 0, 64, 0
1, 69776, Control_c, 0, 64, 127
1, 69932, Note_off_c, 0, 60, 64
1, 69936, Note_on_c, 0, 77, 80
1, 69952, Note_off_c, 0, 75, 64
1, 69984, Note_on_c, 0, 75, 80
1, 70016, Note_off_c, 0, 77, 64
1, 70028, Note_on_c, 0, 54, 65
1, 70064, Note_on_c, 0, 74, 66
1, 70072, Note_on_c, 0, 60, 54
1, 70084, Note_off_c, 0, 55, 64
1, 70092, Note_off_c, 0, 75, 64
1, 70092, Control_c, 0, 64, 0
1, 70152, Control_c, 0, 64, 127
1, 70284, Note_off_c, 0, 54, 64
1, 70292, Note_off_c, 0, 60, 64
1, 70332, Note_on_c, 0, 72, 78
1, 70368, Note_off_c, 0, 74, 64
1, 70580, Note_off_c, 0, 50, 64
1, 70612, Note_on_c, 0, 70, 89
1, 70616, Note_on_c, 0, 43, 71
1, 70644, Note_off_c, 0, 72, 64
1, 70676, Control_c, 0, 64, 0
1, 70740, Control_c, 0, 64, 127
1, 70916, Note_on_c, 0, 69, 70
1, 70936, Note_off_c, 0, 70, 64
1, 71220, Note_on_c, 0, 67, 66
1, 71228, Note_on_c, 0, 58, 37
1, 71244, Note_off_c, 0, 69, 64
1, 71248, Note_on_c, 0, 50, 35
1, 71360, Control_c, 0, 64, 0
1, 72680, Note_off_c, 0, 50, 64
1, 72704, Note_off_c, 0, 58, 64
1, 72724, Note_off_c, 0, 67, 64
1, 72728, Note_off_c, 0, 43, 64
1, 72728, End_track
2, 0, Start_track
2, 1, Copyright_t, "__________________________________________________________\012\012KUNSTDERFUGE.COM GREAT CLASSICAL MIDI COLLECTION\012__________________________________________________________\012\012KUNST-DER-FUGE CONTRIBUTOR's PROPERTY\012Copyright by Contributor & Kunst der Fuge, © 2006\012\012Contributors' list: http://kunstderfuge.com/thanks.htm\012Terms and conditions: http://kunstderfuge.com/notes.htm\012__________________________________________________________\012\012NO WEBSITE MAY PUBLISH THIS FILE WITHOUT PERMISSION\012NO COMMERCIAL USE ALLOWED, NOR BY SALES NOR by eBay!\012PLEASE REPORT ANY ABUSE TO INFO@ONCLASSICAL.COM\012__________________________________________________________\012\012Thousands of free classical MIDI files at kunstderfuge.com"
2, 1, End_track
0, 0, End_of_file
