0, 0, Header, 0, 2, 384
1, 0, Start_track
1, 0, Title_t, "Chopin's Mazurkas (played by © Ron Lubetsky)"
1, 0, Control_c, 0, 0, 0
1, 0, Program_c, 0, 0
1, 0, Time_signature, 4, 2, 96, 8
1, 0, Sequencer_specific, 3, 0, 0, 65
1, 0, Tempo, 500000
1, 1464, Note_on_c, 0, 63, 49
1, 1500, Control_c, 0, 64, 127
1, 2008, Note_on_c, 0, 64, 53
1, 2076, Control_c, 0, 64, 0
1, 2080, Note_off_c, 0, 63, 64
1, 2148, Control_c, 0, 64, 127
1, 2500, Note_on_c, 0, 63, 52
1, 2516, Note_off_c, 0, 64, 64
1, 2612, Note_on_c, 0, 71, 57
1, 2612, Note_on_c, 0, 68, 46
1, 2612, Note_on_c, 0, 62, 60
1, 2648, Note_off_c, 0, 63, 64
1, 2672, Control_c, 0, 64, 0
1, 2740, Control_c, 0, 64, 127
1, 3268, Note_on_c, 0, 70, 68
1, 3276, Note_on_c, 0, 61, 54
1, 3280, Note_on_c, 0, 39, 49
1, 3284, Note_on_c, 0, 67, 54
1, 3288, Note_off_c, 0, 62, 64
1, 3288, Note_off_c, 0, 68, 64
1, 3380, Note_off_c, 0, 71, 64
1, 3404, Control_c, 0, 64, 0
1, 3420, Control_c, 0, 64, 127
1, 4036, Note_off_c, 0, 39, 64
1, 4040, Note_on_c, 0, 44, 56
1, 4052, Note_on_c, 0, 68, 65
1, 4092, Note_off_c, 0, 61, 64
1, 4100, Note_off_c, 0, 67, 64
1, 4124, Note_off_c, 0, 70, 64
1, 4172, Control_c, 0, 64, 0
1, 4248, Control_c, 0, 64, 127
1, 4940, Note_on_c, 0, 51, 30
1, 4960, Note_on_c, 0, 63, 39
1, 4960, Note_on_c, 0, 56, 27
1, 4968, Note_on_c, 0, 59, 45
1, 5112, Control_c, 0, 64, 0
1, 5200, Control_c, 0, 64, 127
1, 5892, Note_on_c, 0, 70, 52
1, 5916, Note_off_c, 0, 68, 64
1, 6112, Note_off_c, 0, 51, 64
1, 6128, Note_off_c, 0, 63, 64
1, 6128, Note_off_c, 0, 56, 64
1, 6136, Note_off_c, 0, 59, 64
1, 6156, Note_on_c, 0, 71, 54
1, 6184, Note_off_c, 0, 70, 64
1, 6240, Control_c, 0, 64, 0
1, 6288, Note_off_c, 0, 44, 64
1, 6348, Control_c, 0, 64, 127
1, 6376, Note_on_c, 0, 73, 54
1, 6424, Note_off_c, 0, 71, 64
1, 6604, Note_on_c, 0, 75, 57
1, 6636, Note_off_c, 0, 73, 64
1, 6980, Note_on_c, 0, 78, 54
1, 7012, Note_off_c, 0, 75, 64
1, 7040, Note_on_c, 0, 76, 56
1, 7084, Note_off_c, 0, 78, 64
1, 7500, Note_on_c, 0, 75, 50
1, 7552, Control_c, 0, 64, 0
1, 7560, Note_off_c, 0, 76, 64
1, 7588, Control_c, 0, 64, 127
1, 7716, Note_on_c, 0, 80, 54
1, 7724, Note_off_c, 0, 75, 64
1, 7784, Note_off_c, 0, 80, 64
1, 7980, Note_on_c, 0, 75, 61
1, 8008, Control_c, 0, 64, 0
1, 8116, Control_c, 0, 64, 127
1, 8492, Note_on_c, 0, 56, 39
1, 8504, Note_on_c, 0, 71, 38
1, 8508, Note_on_c, 0, 68, 24
1, 8516, Note_on_c, 0, 63, 23
1, 8612, Control_c, 0, 64, 0
1, 8664, Control_c, 0, 64, 127
1, 8764, Note_off_c, 0, 75, 64
1, 9028, Note_on_c, 0, 75, 61
1, 9444, Note_off_c, 0, 56, 64
1, 9456, Note_off_c, 0, 71, 64
1, 9456, Note_on_c, 0, 73, 57
1, 9460, Note_off_c, 0, 68, 64
1, 9460, Note_off_c, 0, 75, 64
1, 9472, Note_off_c, 0, 63, 64
1, 9556, Note_on_c, 0, 70, 58
1, 9560, Note_off_c, 0, 73, 64
1, 9560, Note_on_c, 0, 76, 61
1, 9580, Note_on_c, 0, 68, 50
1, 9580, Note_on_c, 0, 49, 47
1, 9580, Note_on_c, 0, 61, 38
1, 9612, Control_c, 0, 64, 0
1, 9668, Control_c, 0, 64, 127
1, 10076, Note_off_c, 0, 70, 64
1, 10100, Note_off_c, 0, 68, 64
1, 10160, Note_on_c, 0, 75, 53
1, 10168, Note_on_c, 0, 71, 57
1, 10176, Note_off_c, 0, 49, 64
1, 10176, Note_on_c, 0, 68, 39
1, 10176, Note_on_c, 0, 56, 38
1, 10176, Note_on_c, 0, 44, 46
1, 10180, Note_off_c, 0, 61, 64
1, 10240, Control_c, 0, 64, 0
1, 10268, Note_off_c, 0, 76, 64
1, 10276, Control_c, 0, 64, 127
1, 10668, Note_on_c, 0, 73, 58
1, 10672, Note_off_c, 0, 75, 64
1, 10676, Note_off_c, 0, 71, 64
1, 10740, Note_on_c, 0, 71, 61
1, 10756, Note_off_c, 0, 68, 64
1, 10780, Control_c, 0, 64, 0
1, 10808, Note_off_c, 0, 73, 64
1, 10816, Control_c, 0, 64, 127
1, 10836, Note_off_c, 0, 44, 64
1, 10872, Note_off_c, 0, 56, 64
1, 11152, Note_on_c, 0, 70, 61
1, 11172, Note_off_c, 0, 71, 64
1, 11252, Note_on_c, 0, 49, 46
1, 11252, Note_on_c, 0, 37, 46
1, 11256, Note_on_c, 0, 73, 69
1, 11268, Note_on_c, 0, 64, 46
1, 11284, Note_on_c, 0, 68, 58
1, 11312, Note_off_c, 0, 70, 64
1, 11324, Control_c, 0, 64, 0
1, 11344, Control_c, 0, 64, 127
1, 11940, Note_off_c, 0, 68, 64
1, 11956, Note_off_c, 0, 64, 64
1, 11972, Note_on_c, 0, 71, 56
1, 11976, Note_on_c, 0, 68, 41
1, 11988, Note_on_c, 0, 63, 32
1, 11988, Note_on_c, 0, 32, 31
1, 12000, Note_on_c, 0, 44, 30
1, 12004, Note_off_c, 0, 73, 64
1, 12044, Note_off_c, 0, 49, 64
1, 12100, Control_c, 0, 64, 0
1, 12160, Note_off_c, 0, 37, 64
1, 12180, Control_c, 0, 64, 127
1, 12596, Note_on_c, 0, 64, 50
1, 12628, Note_off_c, 0, 68, 64
1, 12628, Note_off_c, 0, 71, 64
1, 12640, Note_off_c, 0, 63, 64
1, 12652, Note_off_c, 0, 44, 64
1, 12668, Control_c, 0, 64, 0
1, 12676, Note_off_c, 0, 32, 64
1, 12724, Control_c, 0, 64, 127
1, 13004, Note_on_c, 0, 63, 50
1, 13052, Note_off_c, 0, 64, 64
1, 13100, Note_on_c, 0, 62, 57
1, 13116, Note_on_c, 0, 71, 53
1, 13120, Note_on_c, 0, 68, 42
1, 13136, Note_off_c, 0, 63, 64
1, 13156, Control_c, 0, 64, 0
1, 13188, Control_c, 0, 64, 127
1, 13676, Note_off_c, 0, 68, 64
1, 13680, Note_off_c, 0, 62, 64
1, 13696, Note_on_c, 0, 70, 56
1, 13696, Note_on_c, 0, 61, 49
1, 13708, Note_off_c, 0, 71, 64
1, 13708, Note_on_c, 0, 67, 53
1, 13716, Note_on_c, 0, 39, 39
1, 13792, Control_c, 0, 64, 0
1, 13828, Control_c, 0, 64, 127
1, 14316, Note_off_c, 0, 39, 64
1, 14348, Note_on_c, 0, 44, 30
1, 14368, Note_on_c, 0, 68, 63
1, 14372, Note_off_c, 0, 70, 64
1, 14376, Note_off_c, 0, 67, 64
1, 14408, Note_off_c, 0, 61, 64
1, 14480, Control_c, 0, 64, 0
1, 14516, Control_c, 0, 64, 127
1, 15048, Note_on_c, 0, 63, 30
1, 15056, Note_on_c, 0, 59, 23
1, 15072, Note_on_c, 0, 56, 19
1, 15076, Note_on_c, 0, 51, 23
1, 15532, Note_off_c, 0, 63, 64
1, 15540, Note_off_c, 0, 59, 64
1, 15556, Note_off_c, 0, 51, 64
1, 15556, Note_off_c, 0, 56, 64
1, 15676, Note_on_c, 0, 71, 47
1, 15676, Note_on_c, 0, 63, 31
1, 15684, Note_off_c, 0, 68, 64
1, 15696, Note_on_c, 0, 56, 15
1, 15704, Note_on_c, 0, 59, 16
1, 15704, Note_on_c, 0, 51, 17
1, 15752, Control_c, 0, 64, 0
1, 15788, Control_c, 0, 64, 127
1, 16212, Note_on_c, 0, 75, 58
1, 16236, Note_off_c, 0, 71, 64
1, 16236, Note_off_c, 0, 63, 64
1, 16256, Note_off_c, 0, 56, 64
1, 16260, Note_off_c, 0, 59, 64
1, 16260, Note_off_c, 0, 51, 64
1, 16308, Note_off_c, 0, 44, 64
1, 16612, Note_on_c, 0, 73, 42
1, 16620, Note_off_c, 0, 75, 64
1, 16672, Note_on_c, 0, 76, 52
1, 16684, Note_on_c, 0, 68, 42
1, 16692, Note_on_c, 0, 49, 39
1, 16696, Note_on_c, 0, 70, 57
1, 16708, Note_on_c, 0, 61, 26
1, 16732, Note_off_c, 0, 73, 64
1, 17180, Note_off_c, 0, 68, 64
1, 17192, Note_off_c, 0, 70, 64
1, 17236, Note_on_c, 0, 75, 52
1, 17248, Note_on_c, 0, 71, 36
1, 17248, Note_on_c, 0, 44, 27
1, 17260, Note_off_c, 0, 49, 64
1, 17260, Note_off_c, 0, 76, 64
1, 17260, Note_on_c, 0, 68, 24
1, 17264, Note_on_c, 0, 56, 20
1, 17276, Note_off_c, 0, 61, 64
1, 17724, Note_on_c, 0, 73, 47
1, 17732, Note_off_c, 0, 71, 64
1, 17772, Note_off_c, 0, 75, 64
1, 17796, Note_off_c, 0, 68, 64
1, 17796, Note_on_c, 0, 71, 47
1, 17812, Note_off_c, 0, 73, 64
1, 17872, Control_c, 0, 64, 0
1, 17880, Note_off_c, 0, 44, 64
1, 17908, Note_off_c, 0, 56, 64
1, 17928, Control_c, 0, 64, 127
1, 18268, Note_on_c, 0, 70, 46
1, 18300, Note_off_c, 0, 71, 64
1, 18360, Note_on_c, 0, 37, 34
1, 18364, Note_on_c, 0, 73, 41
1, 18376, Note_on_c, 0, 49, 21
1, 18380, Note_on_c, 0, 68, 50
1, 18380, Note_on_c, 0, 64, 21
1, 18444, Note_off_c, 0, 70, 64
1, 18868, Note_off_c, 0, 64, 64
1, 18876, Note_off_c, 0, 68, 64
1, 19044, Note_off_c, 0, 37, 64
1, 19052, Note_on_c, 0, 63, 31
1, 19060, Note_off_c, 0, 49, 64
1, 19060, Note_on_c, 0, 68, 32
1, 19068, Note_on_c, 0, 71, 34
1, 19072, Note_on_c, 0, 32, 26
1, 19080, Note_off_c, 0, 73, 64
1, 19088, Note_on_c, 0, 44, 17
1, 19184, Control_c, 0, 64, 0
1, 19220, Control_c, 0, 64, 127
1, 19532, Note_off_c, 0, 63, 64
1, 19540, Note_off_c, 0, 68, 64
1, 19544, Note_off_c, 0, 71, 64
1, 19660, Note_on_c, 0, 64, 21
1, 19716, Note_on_c, 0, 66, 41
1, 19728, Note_off_c, 0, 64, 64
1, 19792, Note_on_c, 0, 64, 42
1, 19808, Note_off_c, 0, 44, 64
1, 19816, Note_off_c, 0, 32, 64
1, 19820, Note_off_c, 0, 66, 64
1, 19820, Control_c, 0, 64, 0
1, 19864, Control_c, 0, 64, 127
1, 20300, Note_on_c, 0, 63, 32
1, 20308, Note_off_c, 0, 64, 64
1, 20384, Note_on_c, 0, 71, 46
1, 20384, Note_on_c, 0, 62, 45
1, 20400, Note_on_c, 0, 68, 35
1, 20432, Note_off_c, 0, 63, 64
1, 20480, Control_c, 0, 64, 0
1, 20508, Control_c, 0, 64, 127
1, 21088, Note_off_c, 0, 62, 64
1, 21096, Note_on_c, 0, 61, 23
1, 21104, Note_off_c, 0, 71, 64
1, 21104, Note_off_c, 0, 68, 64
1, 21104, Note_on_c, 0, 70, 49
1, 21112, Note_on_c, 0, 67, 32
1, 21112, Note_on_c, 0, 39, 35
1, 21212, Control_c, 0, 64, 0
1, 21264, Control_c, 0, 64, 127
1, 21720, Note_off_c, 0, 39, 64
1, 21724, Note_on_c, 0, 68, 36
1, 21724, Note_on_c, 0, 44, 23
1, 21788, Note_off_c, 0, 61, 64
1, 21792, Note_off_c, 0, 70, 64
1, 21800, Note_off_c, 0, 67, 64
1, 21828, Control_c, 0, 64, 0
1, 21864, Control_c, 0, 64, 127
1, 22364, Note_on_c, 0, 63, 23
1, 22380, Note_on_c, 0, 56, 23
1, 22380, Note_on_c, 0, 59, 30
1, 22464, Control_c, 0, 64, 0
1, 22500, Control_c, 0, 64, 127
1, 22520, Note_off_c, 0, 44, 64
1, 22852, Note_off_c, 0, 68, 64
1, 22996, Note_on_c, 0, 55, 28
1, 23000, Note_on_c, 0, 71, 47
1, 23008, Note_on_c, 0, 64, 46
1, 23020, Note_off_c, 0, 63, 64
1, 23128, Note_off_c, 0, 56, 64
1, 23496, Note_off_c, 0, 64, 64
1, 23588, Note_on_c, 0, 64, 49
1, 23588, Note_on_c, 0, 61, 24
1, 23596, Note_on_c, 0, 54, 35
1, 23596, Note_on_c, 0, 70, 60
1, 23620, Note_off_c, 0, 59, 64
1, 23628, Note_off_c, 0, 55, 64
1, 23708, Note_off_c, 0, 71, 64
1, 23720, Control_c, 0, 64, 0
1, 23772, Control_c, 0, 64, 127
1, 24068, Note_off_c, 0, 70, 64
1, 24068, Note_on_c, 0, 68, 49
1, 24068, Note_on_c, 0, 59, 9
1, 24084, Note_off_c, 0, 61, 64
1, 24156, Note_off_c, 0, 68, 64
1, 24156, Note_off_c, 0, 59, 64
1, 24156, Note_on_c, 0, 66, 32
1, 24160, Note_on_c, 0, 58, 16
1, 24216, Control_c, 0, 64, 0
1, 24236, Control_c, 0, 64, 127
1, 24672, Note_on_c, 0, 71, 58
1, 24684, Note_on_c, 0, 63, 38
1, 24716, Note_off_c, 0, 66, 64
1, 24740, Note_off_c, 0, 58, 64
1, 24804, Note_off_c, 0, 54, 64
1, 24848, Note_off_c, 0, 64, 64
1, 25200, Note_on_c, 0, 54, 39
1, 25204, Note_on_c, 0, 64, 53
1, 25208, Note_on_c, 0, 61, 36
1, 25212, Note_on_c, 0, 70, 60
1, 25220, Note_off_c, 0, 71, 64
1, 25228, Note_off_c, 0, 63, 64
1, 25320, Control_c, 0, 64, 0
1, 25372, Control_c, 0, 64, 127
1, 25660, Note_on_c, 0, 59, 27
1, 25668, Note_on_c, 0, 68, 49
1, 25708, Note_off_c, 0, 61, 64
1, 25708, Note_off_c, 0, 70, 64
1, 25744, Note_on_c, 0, 66, 56
1, 25748, Note_on_c, 0, 58, 23
1, 25772, Note_off_c, 0, 68, 64
1, 25792, Note_off_c, 0, 59, 64
1, 25844, Control_c, 0, 64, 0
1, 25892, Control_c, 0, 64, 127
1, 26276, Note_on_c, 0, 68, 54
1, 26280, Note_off_c, 0, 66, 64
1, 26280, Note_on_c, 0, 59, 56
1, 26284, Note_off_c, 0, 58, 64
1, 26372, Note_off_c, 0, 54, 64
1, 26452, Note_off_c, 0, 64, 64
1, 26796, Note_on_c, 0, 54, 54
1, 26800, Note_off_c, 0, 68, 64
1, 26804, Note_on_c, 0, 70, 60
1, 26804, Note_on_c, 0, 66, 60
1, 26812, Note_on_c, 0, 61, 58
1, 26820, Note_on_c, 0, 64, 53
1, 26860, Note_off_c, 0, 59, 64
1, 27192, Note_on_c, 0, 63, 31
1, 27196, Note_on_c, 0, 71, 63
1, 27232, Note_off_c, 0, 61, 64
1, 27248, Note_off_c, 0, 70, 64
1, 27252, Note_off_c, 0, 66, 64
1, 27264, Note_off_c, 0, 64, 64
1, 27300, Note_on_c, 0, 73, 67
1, 27308, Note_off_c, 0, 63, 64
1, 27308, Note_on_c, 0, 70, 69
1, 27308, Note_on_c, 0, 66, 61
1, 27320, Note_off_c, 0, 71, 64
1, 27320, Note_on_c, 0, 64, 69
1, 27856, Note_on_c, 0, 72, 69
1, 27860, Note_on_c, 0, 63, 58
1, 27864, Note_on_c, 0, 69, 69
1, 27896, Note_off_c, 0, 73, 64
1, 27900, Note_off_c, 0, 70, 64
1, 27924, Note_off_c, 0, 64, 64
1, 28056, Note_off_c, 0, 54, 64
1, 28212, Note_off_c, 0, 66, 64
1, 28384, Note_on_c, 0, 54, 53
1, 28384, Note_on_c, 0, 61, 63
1, 28392, Note_on_c, 0, 73, 80
1, 28396, Note_on_c, 0, 70, 68
1, 28404, Note_on_c, 0, 66, 57
1, 28436, Note_off_c, 0, 72, 64
1, 28440, Note_off_c, 0, 63, 64
1, 28444, Note_off_c, 0, 69, 64
1, 28804, Note_on_c, 0, 71, 65
1, 28812, Note_on_c, 0, 80, 72
1, 28812, Note_on_c, 0, 65, 49
1, 28820, Note_on_c, 0, 62, 71
1, 28824, Note_off_c, 0, 61, 64
1, 28828, Note_off_c, 0, 73, 64
1, 28832, Note_off_c, 0, 70, 64
1, 28844, Note_off_c, 0, 66, 64
1, 28916, Note_on_c, 0, 61, 75
1, 28924, Note_on_c, 0, 70, 84
1, 28928, Note_off_c, 0, 62, 64
1, 28932, Note_on_c, 0, 78, 80
1, 28944, Note_on_c, 0, 66, 83
1, 28952, Note_off_c, 0, 71, 64
1, 28952, Note_off_c, 0, 80, 64
1, 28956, Note_off_c, 0, 65, 64
1, 29364, Note_off_c, 0, 61, 64
1, 29372, Note_on_c, 0, 63, 67
1, 29424, Control_c, 0, 64, 0
1, 29456, Note_off_c, 0, 54, 64
1, 29476, Note_on_c, 0, 61, 58
1, 29508, Note_off_c, 0, 63, 64
1, 29568, Control_c, 0, 64, 127
1, 29636, Note_off_c, 0, 66, 64
1, 30040, Note_on_c, 0, 68, 57
1, 30056, Note_on_c, 0, 71, 56
1, 30076, Note_off_c, 0, 70, 64
1, 30124, Control_c, 0, 64, 0
1, 30164, Control_c, 0, 64, 127
1, 30432, Note_off_c, 0, 78, 64
1, 30472, Note_on_c, 0, 77, 60
1, 30596, Note_on_c, 0, 83, 69
1, 30596, Note_on_c, 0, 73, 61
1, 30644, Note_off_c, 0, 68, 64
1, 31136, Note_on_c, 0, 82, 64
1, 31136, Note_on_c, 0, 78, 46
1, 31140, Note_off_c, 0, 77, 64
1, 31148, Note_off_c, 0, 83, 64
1, 31168, Note_on_c, 0, 66, 30
1, 31180, Control_c, 0, 64, 0
1, 31216, Control_c, 0, 64, 127
1, 31228, Note_off_c, 0, 61, 64
1, 31244, Note_off_c, 0, 71, 64
1, 31260, Note_off_c, 0, 73, 64
1, 31424, Note_off_c, 0, 82, 64
1, 31424, Note_off_c, 0, 78, 64
1, 31452, Note_off_c, 0, 66, 64
1, 31596, Note_on_c, 0, 66, 38
1, 31648, Note_on_c, 0, 68, 50
1, 31656, Note_off_c, 0, 66, 64
1, 31720, Note_on_c, 0, 66, 46
1, 31732, Note_off_c, 0, 68, 64
1, 31744, Control_c, 0, 64, 0
1, 31804, Control_c, 0, 64, 127
1, 32120, Note_off_c, 0, 66, 64
1, 32136, Note_on_c, 0, 65, 43
1, 32260, Note_on_c, 0, 49, 32
1, 32260, Note_on_c, 0, 71, 43
1, 32276, Note_on_c, 0, 61, 20
1, 32276, Note_on_c, 0, 56, 21
1, 32344, Control_c, 0, 64, 0
1, 32396, Control_c, 0, 64, 127
1, 32776, Note_on_c, 0, 70, 41
1, 32784, Note_on_c, 0, 66, 38
1, 32796, Note_off_c, 0, 56, 64
1, 32800, Note_off_c, 0, 49, 64
1, 32804, Note_off_c, 0, 65, 64
1, 32812, Note_on_c, 0, 54, 26
1, 32824, Note_off_c, 0, 71, 64
1, 32844, Control_c, 0, 64, 0
1, 32932, Control_c, 0, 64, 127
1, 32952, Note_off_c, 0, 66, 64
1, 32976, Note_off_c, 0, 70, 64
1, 33328, Note_off_c, 0, 54, 64
1, 33340, Note_on_c, 0, 78, 69
1, 33380, Note_off_c, 0, 61, 64
1, 33732, Note_on_c, 0, 77, 61
1, 33752, Note_off_c, 0, 78, 64
1, 33828, Note_on_c, 0, 83, 64
1, 33836, Note_on_c, 0, 73, 47
1, 33836, Note_on_c, 0, 61, 57
1, 33860, Note_on_c, 0, 68, 31
1, 33892, Control_c, 0, 64, 0
1, 33944, Control_c, 0, 64, 127
1, 34356, Note_on_c, 0, 82, 58
1, 34360, Note_on_c, 0, 78, 57
1, 34384, Note_off_c, 0, 83, 64
1, 34396, Note_on_c, 0, 66, 24
1, 34404, Note_off_c, 0, 68, 64
1, 34404, Control_c, 0, 64, 0
1, 34416, Note_off_c, 0, 77, 64
1, 34444, Control_c, 0, 64, 127
1, 34448, Note_off_c, 0, 61, 64
1, 34468, Note_off_c, 0, 82, 64
1, 34476, Note_off_c, 0, 78, 64
1, 34520, Note_off_c, 0, 73, 64
1, 34576, Note_off_c, 0, 66, 64
1, 34768, Note_on_c, 0, 66, 46
1, 34812, Note_on_c, 0, 68, 52
1, 34820, Note_off_c, 0, 66, 64
1, 34880, Note_on_c, 0, 66, 58
1, 34900, Note_off_c, 0, 68, 64
1, 34904, Control_c, 0, 64, 0
1, 34924, Control_c, 0, 64, 127
1, 35332, Note_on_c, 0, 65, 31
1, 35344, Note_off_c, 0, 66, 64
1, 35448, Note_on_c, 0, 49, 26
1, 35476, Note_on_c, 0, 71, 49
1, 35476, Note_on_c, 0, 61, 23
1, 35476, Note_on_c, 0, 56, 31
1, 35552, Control_c, 0, 64, 0
1, 35600, Control_c, 0, 64, 127
1, 36040, Note_off_c, 0, 61, 64
1, 36116, Note_off_c, 0, 49, 64
1, 36116, Note_on_c, 0, 70, 36
1, 36116, Note_on_c, 0, 66, 41
1, 36128, Note_on_c, 0, 54, 28
1, 36136, Note_off_c, 0, 56, 64
1, 36136, Note_on_c, 0, 61, 20
1, 36140, Note_off_c, 0, 65, 64
1, 36152, Note_off_c, 0, 71, 64
1, 36212, Control_c, 0, 64, 0
1, 36268, Control_c, 0, 64, 127
1, 36364, Note_off_c, 0, 54, 64
1, 36416, Note_off_c, 0, 61, 64
1, 36480, Note_off_c, 0, 66, 64
1, 36728, Note_on_c, 0, 52, 52
1, 36804, Note_on_c, 0, 68, 68
1, 36836, Tempo, 500000
1, 36836, Note_off_c, 0, 70, 64
1, 36912, Control_c, 0, 64, 0
1, 36980, Control_c, 0, 64, 127
1, 37360, Note_on_c, 0, 56, 36
1, 37380, Note_on_c, 0, 61, 27
1, 37388, Note_on_c, 0, 64, 28
1, 37552, Note_off_c, 0, 61, 64
1, 37568, Note_off_c, 0, 64, 64
1, 37572, Note_off_c, 0, 56, 64
1, 37576, Note_on_c, 0, 70, 41
1, 37588, Note_off_c, 0, 68, 64
1, 37684, Note_off_c, 0, 70, 64
1, 37740, Note_on_c, 0, 68, 50
1, 37780, Note_on_c, 0, 70, 57
1, 37796, Note_off_c, 0, 68, 64
1, 37828, Note_on_c, 0, 61, 38
1, 37836, Note_on_c, 0, 64, 31
1, 37844, Note_on_c, 0, 56, 32
1, 37848, Note_on_c, 0, 68, 61
1, 37872, Note_off_c, 0, 70, 64
1, 37892, Control_c, 0, 64, 0
1, 37924, Control_c, 0, 64, 127
1, 38072, Note_on_c, 0, 67, 63
1, 38084, Note_off_c, 0, 68, 64
1, 38148, Note_off_c, 0, 61, 64
1, 38164, Note_off_c, 0, 64, 64
1, 38168, Note_off_c, 0, 56, 64
1, 38300, Note_on_c, 0, 68, 61
1, 38308, Note_on_c, 0, 64, 46
1, 38316, Note_on_c, 0, 61, 49
1, 38316, Note_on_c, 0, 56, 46
1, 38328, Note_off_c, 0, 67, 64
1, 38376, Control_c, 0, 64, 0
1, 38396, Control_c, 0, 64, 127
1, 38508, Note_on_c, 0, 73, 56
1, 38560, Note_off_c, 0, 68, 64
1, 38712, Note_off_c, 0, 61, 64
1, 38720, Note_off_c, 0, 73, 64
1, 38724, Note_off_c, 0, 56, 64
1, 38728, Note_on_c, 0, 75, 54
1, 38736, Note_off_c, 0, 64, 64
1, 38788, Control_c, 0, 64, 0
1, 38808, Control_c, 0, 64, 127
1, 38884, Note_off_c, 0, 52, 64
1, 39140, Note_off_c, 0, 75, 64
1, 39280, Note_on_c, 0, 76, 71
1, 39748, Note_off_c, 0, 76, 64
1, 39752, Note_on_c, 0, 64, 52
1, 39768, Note_on_c, 0, 42, 57
1, 39832, Control_c, 0, 64, 0
1, 39852, Control_c, 0, 64, 127
1, 40188, Note_off_c, 0, 42, 64
1, 40196, Note_on_c, 0, 66, 58
1, 40212, Note_on_c, 0, 49, 42
1, 40220, Note_on_c, 0, 58, 38
1, 40228, Note_off_c, 0, 64, 64
1, 40228, Note_on_c, 0, 54, 24
1, 40288, Note_off_c, 0, 49, 64
1, 40296, Note_off_c, 0, 58, 64
1, 40304, Note_off_c, 0, 54, 64
1, 40644, Note_on_c, 0, 58, 31
1, 40652, Note_on_c, 0, 49, 30
1, 40660, Note_on_c, 0, 54, 30
1, 40720, Note_off_c, 0, 58, 64
1, 40728, Note_off_c, 0, 49, 64
1, 40736, Note_off_c, 0, 54, 64
1, 40796, Note_off_c, 0, 66, 64
1, 40800, Note_on_c, 0, 61, 53
1, 40980, Note_on_c, 0, 47, 50
1, 41000, Note_on_c, 0, 63, 63
1, 41024, Note_off_c, 0, 61, 64
1, 41036, Control_c, 0, 64, 0
1, 41076, Control_c, 0, 64, 127
1, 41164, Note_on_c, 0, 66, 64
1, 41188, Note_off_c, 0, 63, 64
1, 41312, Note_off_c, 0, 66, 64
1, 41316, Note_on_c, 0, 68, 60
1, 41332, Note_on_c, 0, 54, 24
1, 41340, Note_on_c, 0, 59, 24
1, 41348, Note_on_c, 0, 51, 20
1, 41404, Note_off_c, 0, 47, 64
1, 41408, Note_off_c, 0, 54, 64
1, 41416, Note_off_c, 0, 59, 64
1, 41428, Note_off_c, 0, 51, 64
1, 41716, Note_on_c, 0, 63, 61
1, 41728, Note_on_c, 0, 54, 17
1, 41732, Note_on_c, 0, 59, 38
1, 41740, Note_on_c, 0, 51, 41
1, 41756, Note_off_c, 0, 68, 64
1, 41804, Note_off_c, 0, 54, 64
1, 41808, Note_off_c, 0, 59, 64
1, 41820, Note_off_c, 0, 51, 64
1, 42116, Note_off_c, 0, 63, 64
1, 42116, Note_on_c, 0, 76, 56
1, 42120, Note_on_c, 0, 42, 49
1, 42124, Note_on_c, 0, 64, 39
1, 42496, Note_on_c, 0, 58, 20
1, 42500, Note_off_c, 0, 64, 64
1, 42500, Note_on_c, 0, 66, 54
1, 42500, Note_on_c, 0, 49, 30
1, 42504, Note_on_c, 0, 78, 64
1, 42528, Note_off_c, 0, 76, 64
1, 42528, Note_on_c, 0, 54, 19
1, 42540, Note_off_c, 0, 42, 64
1, 42552, Control_c, 0, 64, 0
1, 42572, Note_off_c, 0, 58, 64
1, 42580, Note_off_c, 0, 49, 64
1, 42604, Note_off_c, 0, 54, 64
1, 42628, Control_c, 0, 64, 127
1, 42876, Note_on_c, 0, 49, 36
1, 42884, Note_on_c, 0, 58, 21
1, 42904, Note_on_c, 0, 54, 20
1, 42956, Note_off_c, 0, 49, 64
1, 42960, Note_off_c, 0, 58, 64
1, 42980, Note_off_c, 0, 54, 64
1, 43020, Note_on_c, 0, 61, 50
1, 43032, Note_on_c, 0, 73, 53
1, 43044, Note_off_c, 0, 78, 64
1, 43100, Note_off_c, 0, 66, 64
1, 43224, Note_off_c, 0, 61, 64
1, 43224, Note_on_c, 0, 63, 57
1, 43228, Note_on_c, 0, 75, 61
1, 43240, Note_on_c, 0, 47, 43
1, 43244, Note_off_c, 0, 73, 64
1, 43380, Note_on_c, 0, 66, 61
1, 43388, Note_on_c, 0, 78, 64
1, 43424, Note_off_c, 0, 63, 64
1, 43428, Note_off_c, 0, 75, 64
1, 43532, Note_on_c, 0, 80, 64
1, 43536, Note_on_c, 0, 68, 57
1, 43544, Note_on_c, 0, 51, 36
1, 43556, Note_off_c, 0, 66, 64
1, 43564, Note_off_c, 0, 78, 64
1, 43564, Note_on_c, 0, 59, 30
1, 43564, Note_on_c, 0, 54, 23
1, 43576, Note_off_c, 0, 47, 64
1, 43580, Control_c, 0, 64, 0
1, 43620, Note_off_c, 0, 51, 64
1, 43624, Control_c, 0, 64, 127
1, 43640, Note_off_c, 0, 59, 64
1, 43644, Note_off_c, 0, 54, 64
1, 43988, Note_off_c, 0, 80, 64
1, 44000, Note_on_c, 0, 75, 53
1, 44000, Note_on_c, 0, 63, 45
1, 44008, Note_off_c, 0, 68, 64
1, 44016, Note_on_c, 0, 51, 34
1, 44024, Note_on_c, 0, 59, 23
1, 44028, Note_on_c, 0, 54, 20
1, 44092, Note_off_c, 0, 51, 64
1, 44100, Note_off_c, 0, 59, 64
1, 44104, Note_off_c, 0, 54, 64
1, 44448, Note_off_c, 0, 75, 64
1, 44452, Note_on_c, 0, 64, 47
1, 44460, Note_on_c, 0, 76, 53
1, 44468, Note_off_c, 0, 63, 64
1, 44468, Note_on_c, 0, 42, 36
1, 44892, Note_off_c, 0, 42, 64
1, 44932, Note_on_c, 0, 66, 41
1, 44932, Note_on_c, 0, 78, 46
1, 44932, Note_on_c, 0, 49, 20
1, 44948, Note_on_c, 0, 58, 20
1, 44956, Note_on_c, 0, 54, 16
1, 45000, Note_off_c, 0, 76, 64
1, 45012, Note_off_c, 0, 49, 64
1, 45016, Control_c, 0, 64, 0
1, 45020, Note_off_c, 0, 64, 64
1, 45024, Note_off_c, 0, 58, 64
1, 45036, Note_off_c, 0, 54, 64
1, 45052, Control_c, 0, 64, 127
1, 45460, Note_on_c, 0, 58, 15
1, 45464, Note_on_c, 0, 49, 24
1, 45476, Note_on_c, 0, 54, 23
1, 45536, Note_off_c, 0, 58, 64
1, 45540, Note_off_c, 0, 49, 64
1, 45552, Note_off_c, 0, 54, 64
1, 45648, Note_on_c, 0, 73, 43
1, 45648, Note_on_c, 0, 61, 46
1, 45684, Note_off_c, 0, 78, 64
1, 45764, Note_off_c, 0, 66, 64
1, 45844, Note_on_c, 0, 63, 23
1, 45868, Note_on_c, 0, 75, 43
1, 45892, Note_off_c, 0, 73, 64
1, 45892, Note_off_c, 0, 61, 64
1, 45892, Note_on_c, 0, 47, 27
1, 45988, Control_c, 0, 64, 0
1, 46056, Control_c, 0, 64, 127
1, 46464, Note_on_c, 0, 54, 23
1, 46480, Note_on_c, 0, 59, 17
1, 46516, Control_c, 0, 64, 0
1, 46544, Control_c, 0, 64, 127
1, 46684, Note_off_c, 0, 63, 64
1, 46708, Note_off_c, 0, 75, 64
1, 46924, Note_on_c, 0, 66, 71
1, 46964, Note_off_c, 0, 47, 64
1, 46984, Note_off_c, 0, 54, 64
1, 47012, Note_off_c, 0, 59, 64
1, 47376, Note_on_c, 0, 52, 50
1, 47400, Note_on_c, 0, 68, 67
1, 47416, Note_off_c, 0, 66, 64
1, 47484, Control_c, 0, 64, 0
1, 47524, Control_c, 0, 64, 127
1, 47860, Note_on_c, 0, 56, 38
1, 47864, Note_on_c, 0, 61, 28
1, 47880, Note_on_c, 0, 64, 28
1, 48016, Note_off_c, 0, 64, 64
1, 48028, Note_off_c, 0, 61, 64
1, 48044, Note_off_c, 0, 56, 64
1, 48048, Note_on_c, 0, 70, 54
1, 48052, Note_off_c, 0, 68, 64
1, 48100, Note_off_c, 0, 70, 64
1, 48220, Note_on_c, 0, 68, 58
1, 48272, Note_on_c, 0, 70, 61
1, 48284, Note_off_c, 0, 68, 64
1, 48284, Note_on_c, 0, 61, 38
1, 48304, Note_on_c, 0, 64, 36
1, 48308, Note_on_c, 0, 56, 31
1, 48332, Note_on_c, 0, 68, 60
1, 48356, Note_off_c, 0, 70, 64
1, 48424, Note_off_c, 0, 61, 64
1, 48428, Note_off_c, 0, 56, 64
1, 48440, Note_off_c, 0, 64, 64
1, 48480, Note_on_c, 0, 67, 61
1, 48492, Note_off_c, 0, 68, 64
1, 48660, Note_on_c, 0, 68, 64
1, 48660, Note_on_c, 0, 61, 31
1, 48672, Note_on_c, 0, 64, 30
1, 48676, Note_on_c, 0, 56, 31
1, 48684, Note_off_c, 0, 67, 64
1, 48828, Note_on_c, 0, 73, 61
1, 48864, Note_off_c, 0, 68, 64
1, 48900, Note_off_c, 0, 61, 64
1, 48912, Note_off_c, 0, 56, 64
1, 48936, Note_off_c, 0, 64, 64
1, 49012, Note_on_c, 0, 75, 53
1, 49040, Note_off_c, 0, 73, 64
1, 49056, Note_off_c, 0, 52, 64
1, 49188, Note_off_c, 0, 75, 64
1, 49412, Note_on_c, 0, 76, 65
1, 49884, Note_on_c, 0, 64, 47
1, 49892, Note_on_c, 0, 42, 54
1, 49908, Note_off_c, 0, 76, 64
1, 50316, Note_off_c, 0, 42, 64
1, 50316, Note_on_c, 0, 66, 60
1, 50320, Note_on_c, 0, 49, 36
1, 50332, Note_on_c, 0, 54, 38
1, 50340, Note_on_c, 0, 58, 38
1, 50364, Control_c, 0, 64, 0
1, 50372, Note_off_c, 0, 64, 64
1, 50396, Note_off_c, 0, 49, 64
1, 50408, Note_off_c, 0, 54, 64
1, 50408, Control_c, 0, 64, 127
1, 50416, Note_off_c, 0, 58, 64
1, 50732, Note_on_c, 0, 58, 45
1, 50740, Note_on_c, 0, 49, 34
1, 50756, Note_on_c, 0, 54, 35
1, 50808, Note_off_c, 0, 58, 64
1, 50816, Note_off_c, 0, 49, 64
1, 50832, Note_off_c, 0, 54, 64
1, 50884, Note_on_c, 0, 61, 58
1, 50896, Note_off_c, 0, 66, 64
1, 51064, Note_on_c, 0, 47, 56
1, 51068, Note_on_c, 0, 63, 64
1, 51080, Control_c, 0, 64, 0
1, 51092, Note_off_c, 0, 61, 64
1, 51116, Control_c, 0, 64, 127
1, 51208, Note_on_c, 0, 66, 58
1, 51244, Note_off_c, 0, 63, 64
1, 51352, Note_on_c, 0, 68, 61
1, 51360, Note_on_c, 0, 51, 38
1, 51368, Note_on_c, 0, 59, 42
1, 51372, Note_off_c, 0, 66, 64
1, 51372, Note_on_c, 0, 54, 26
1, 51388, Control_c, 0, 64, 0
1, 51436, Note_off_c, 0, 51, 64
1, 51436, Control_c, 0, 64, 127
1, 51444, Note_off_c, 0, 59, 64
1, 51452, Note_off_c, 0, 54, 64
1, 51484, Note_off_c, 0, 47, 64
1, 51748, Note_on_c, 0, 63, 61
1, 51764, Note_on_c, 0, 59, 41
1, 51772, Note_on_c, 0, 51, 43
1, 51784, Note_on_c, 0, 54, 24
1, 51792, Note_off_c, 0, 68, 64
1, 51844, Note_off_c, 0, 59, 64
1, 51848, Note_off_c, 0, 51, 64
1, 51860, Note_off_c, 0, 54, 64
1, 52108, Note_off_c, 0, 63, 64
1, 52108, Note_on_c, 0, 76, 56
1, 52112, Note_on_c, 0, 64, 49
1, 52120, Note_on_c, 0, 42, 46
1, 52456, Note_on_c, 0, 58, 34
1, 52456, Note_on_c, 0, 78, 68
1, 52456, Note_on_c, 0, 49, 34
1, 52464, Note_off_c, 0, 64, 64
1, 52468, Note_on_c, 0, 54, 36
1, 52472, Note_on_c, 0, 66, 53
1, 52480, Note_off_c, 0, 76, 64
1, 52516, Control_c, 0, 64, 0
1, 52532, Note_off_c, 0, 58, 64
1, 52532, Note_off_c, 0, 49, 64
1, 52540, Control_c, 0, 64, 127
1, 52544, Note_off_c, 0, 42, 64
1, 52544, Note_off_c, 0, 54, 64
1, 52828, Note_on_c, 0, 58, 50
1, 52844, Note_on_c, 0, 49, 35
1, 52880, Note_on_c, 0, 54, 19
1, 52904, Note_off_c, 0, 58, 64
1, 52920, Note_off_c, 0, 49, 64
1, 52956, Note_off_c, 0, 54, 64
1, 52988, Note_on_c, 0, 73, 58
1, 52996, Note_on_c, 0, 61, 64
1, 53012, Note_off_c, 0, 78, 64
1, 53052, Note_off_c, 0, 66, 64
1, 53152, Note_on_c, 0, 63, 60
1, 53164, Note_on_c, 0, 75, 60
1, 53180, Note_on_c, 0, 47, 50
1, 53192, Note_off_c, 0, 73, 64
1, 53196, Note_off_c, 0, 61, 64
1, 53316, Note_on_c, 0, 66, 64
1, 53316, Note_on_c, 0, 78, 63
1, 53364, Note_off_c, 0, 63, 64
1, 53376, Note_off_c, 0, 75, 64
1, 53452, Note_on_c, 0, 68, 58
1, 53456, Note_on_c, 0, 80, 71
1, 53468, Note_off_c, 0, 66, 64
1, 53468, Note_off_c, 0, 78, 64
1, 53468, Note_on_c, 0, 51, 38
1, 53476, Note_on_c, 0, 59, 38
1, 53476, Note_on_c, 0, 54, 30
1, 53492, Control_c, 0, 64, 0
1, 53548, Note_off_c, 0, 51, 64
1, 53548, Control_c, 0, 64, 127
1, 53552, Note_off_c, 0, 59, 64
1, 53552, Note_off_c, 0, 54, 64
1, 53604, Note_off_c, 0, 47, 64
1, 53916, Note_on_c, 0, 75, 53
1, 53916, Note_on_c, 0, 63, 60
1, 53928, Note_on_c, 0, 59, 21
1, 53944, Note_on_c, 0, 54, 19
1, 53948, Note_on_c, 0, 51, 20
1, 53968, Note_off_c, 0, 80, 64
1, 53996, Note_off_c, 0, 68, 64
1, 54004, Note_off_c, 0, 59, 64
1, 54020, Note_off_c, 0, 54, 64
1, 54024, Note_off_c, 0, 51, 64
1, 54300, Note_on_c, 0, 64, 41
1, 54308, Note_on_c, 0, 76, 43
1, 54320, Note_on_c, 0, 42, 42
1, 54344, Note_off_c, 0, 75, 64
1, 54348, Note_off_c, 0, 63, 64
1, 54744, Note_off_c, 0, 42, 64
1, 54768, Note_on_c, 0, 78, 53
1, 54772, Note_on_c, 0, 66, 49
1, 54776, Note_on_c, 0, 49, 20
1, 54784, Note_on_c, 0, 58, 20
1, 54800, Note_off_c, 0, 64, 64
1, 54800, Note_on_c, 0, 54, 20
1, 54804, Note_off_c, 0, 76, 64
1, 54828, Control_c, 0, 64, 0
1, 54852, Note_off_c, 0, 49, 64
1, 54860, Note_off_c, 0, 58, 64
1, 54868, Control_c, 0, 64, 127
1, 54876, Note_off_c, 0, 54, 64
1, 55360, Note_on_c, 0, 58, 17
1, 55360, Note_on_c, 0, 54, 26
1, 55368, Note_on_c, 0, 49, 20
1, 55588, Note_off_c, 0, 78, 64
1, 55604, Note_on_c, 0, 73, 47
1, 55612, Note_on_c, 0, 61, 41
1, 55688, Note_off_c, 0, 66, 64
1, 55960, Note_off_c, 0, 49, 64
1, 56016, Note_on_c, 0, 47, 30
1, 56032, Note_on_c, 0, 75, 49
1, 56036, Note_on_c, 0, 63, 42
1, 56060, Note_off_c, 0, 58, 64
1, 56064, Note_off_c, 0, 54, 64
1, 56080, Note_off_c, 0, 73, 64
1, 56088, Note_off_c, 0, 61, 64
1, 56144, Control_c, 0, 64, 0
1, 56196, Control_c, 0, 64, 127
1, 56980, Note_on_c, 0, 54, 21
1, 57008, Note_on_c, 0, 59, 21
1, 57264, Note_off_c, 0, 75, 64
1, 57404, Note_off_c, 0, 63, 64
1, 57676, Note_on_c, 0, 63, 52
1, 57724, Note_off_c, 0, 59, 64
1, 57732, Note_off_c, 0, 54, 64
1, 57732, Control_c, 0, 64, 0
1, 57748, Note_off_c, 0, 47, 64
1, 57792, Control_c, 0, 64, 127
1, 58180, Note_on_c, 0, 64, 47
1, 58204, Note_off_c, 0, 63, 64
1, 58232, Control_c, 0, 64, 0
1, 58268, Control_c, 0, 64, 127
1, 58628, Note_on_c, 0, 63, 49
1, 58660, Note_off_c, 0, 64, 64
1, 58728, Note_on_c, 0, 62, 56
1, 58740, Note_on_c, 0, 68, 52
1, 58748, Note_on_c, 0, 71, 54
1, 58812, Control_c, 0, 64, 0
1, 58836, Note_off_c, 0, 63, 64
1, 58860, Control_c, 0, 64, 127
1, 59428, Note_on_c, 0, 61, 54
1, 59432, Note_on_c, 0, 70, 61
1, 59440, Note_on_c, 0, 67, 56
1, 59452, Note_on_c, 0, 39, 53
1, 59500, Note_off_c, 0, 62, 64
1, 59512, Note_off_c, 0, 68, 64
1, 59520, Note_off_c, 0, 71, 64
1, 59548, Control_c, 0, 64, 0
1, 59588, Control_c, 0, 64, 127
1, 60076, Note_on_c, 0, 68, 60
1, 60084, Note_on_c, 0, 44, 56
1, 60112, Note_off_c, 0, 61, 64
1, 60116, Note_off_c, 0, 70, 64
1, 60124, Note_off_c, 0, 67, 64
1, 60128, Note_off_c, 0, 39, 64
1, 60168, Control_c, 0, 64, 0
1, 60240, Control_c, 0, 64, 127
1, 61044, Note_on_c, 0, 56, 26
1, 61044, Note_on_c, 0, 51, 31
1, 61052, Note_on_c, 0, 63, 45
1, 61052, Note_on_c, 0, 59, 38
1, 61196, Control_c, 0, 64, 0
1, 61252, Control_c, 0, 64, 127
1, 61760, Note_off_c, 0, 51, 64
1, 61760, Note_off_c, 0, 56, 64
1, 61772, Note_off_c, 0, 59, 64
1, 61772, Note_off_c, 0, 63, 64
1, 61928, Note_on_c, 0, 70, 60
1, 61964, Note_off_c, 0, 68, 64
1, 62116, Note_off_c, 0, 44, 64
1, 62176, Note_on_c, 0, 71, 61
1, 62184, Note_off_c, 0, 70, 64
1, 62236, Control_c, 0, 64, 0
1, 62400, Note_on_c, 0, 73, 67
1, 62404, Control_c, 0, 64, 127
1, 62424, Note_off_c, 0, 71, 64
1, 62616, Note_on_c, 0, 75, 65
1, 62624, Control_c, 0, 64, 0
1, 62644, Note_off_c, 0, 73, 64
1, 62672, Control_c, 0, 64, 127
1, 62996, Note_on_c, 0, 78, 54
1, 63024, Note_off_c, 0, 75, 64
1, 63060, Note_on_c, 0, 76, 54
1, 63116, Note_off_c, 0, 78, 64
1, 63488, Note_on_c, 0, 75, 63
1, 63516, Note_off_c, 0, 76, 64
1, 63688, Note_on_c, 0, 80, 45
1, 63696, Note_off_c, 0, 75, 64
1, 63756, Note_off_c, 0, 80, 64
1, 63892, Control_c, 0, 64, 0
1, 63952, Note_on_c, 0, 75, 61
1, 64028, Control_c, 0, 64, 127
1, 64556, Note_on_c, 0, 68, 36
1, 64572, Note_on_c, 0, 71, 34
1, 64572, Note_on_c, 0, 63, 27
1, 64580, Note_on_c, 0, 56, 24
1, 64644, Control_c, 0, 64, 0
1, 64680, Control_c, 0, 64, 127
1, 64992, Note_off_c, 0, 75, 64
1, 65132, Note_on_c, 0, 75, 61
1, 65500, Note_on_c, 0, 73, 60
1, 65508, Note_off_c, 0, 68, 64
1, 65524, Note_off_c, 0, 71, 64
1, 65524, Note_off_c, 0, 63, 64
1, 65532, Note_off_c, 0, 56, 64
1, 65548, Note_off_c, 0, 75, 64
1, 65596, Note_on_c, 0, 70, 47
1, 65600, Note_off_c, 0, 73, 64
1, 65608, Note_on_c, 0, 76, 60
1, 65612, Note_on_c, 0, 68, 53
1, 65624, Note_on_c, 0, 61, 50
1, 65624, Note_on_c, 0, 49, 54
1, 65672, Control_c, 0, 64, 0
1, 65692, Control_c, 0, 64, 127
1, 66084, Note_off_c, 0, 70, 64
1, 66092, Note_off_c, 0, 76, 64
1, 66100, Note_off_c, 0, 68, 64
1, 66104, Note_on_c, 0, 75, 61
1, 66104, Note_on_c, 0, 71, 60
1, 66112, Note_on_c, 0, 68, 54
1, 66112, Note_on_c, 0, 44, 56
1, 66120, Note_on_c, 0, 56, 49
1, 66148, Note_off_c, 0, 49, 64
1, 66148, Note_off_c, 0, 61, 64
1, 66156, Control_c, 0, 64, 0
1, 66200, Control_c, 0, 64, 127
1, 66516, Note_on_c, 0, 73, 58
1, 66524, Note_off_c, 0, 71, 64
1, 66568, Note_off_c, 0, 75, 64
1, 66588, Note_on_c, 0, 71, 64
1, 66600, Note_off_c, 0, 68, 64
1, 66612, Note_off_c, 0, 73, 64
1, 66648, Note_off_c, 0, 44, 64
1, 66676, Note_off_c, 0, 56, 64
1, 66988, Note_on_c, 0, 70, 63
1, 67020, Note_off_c, 0, 71, 64
1, 67084, Note_on_c, 0, 73, 68
1, 67092, Note_on_c, 0, 64, 58
1, 67092, Note_on_c, 0, 37, 52
1, 67104, Note_on_c, 0, 68, 61
1, 67104, Note_on_c, 0, 49, 42
1, 67112, Note_off_c, 0, 70, 64
1, 67660, Note_off_c, 0, 68, 64
1, 67760, Note_on_c, 0, 63, 53
1, 67764, Note_on_c, 0, 68, 54
1, 67772, Note_on_c, 0, 71, 58
1, 67780, Note_off_c, 0, 37, 64
1, 67780, Note_off_c, 0, 73, 64
1, 67780, Note_on_c, 0, 32, 50
1, 67788, Note_on_c, 0, 44, 31
1, 67792, Note_off_c, 0, 49, 64
1, 67852, Note_off_c, 0, 64, 64
1, 67884, Control_c, 0, 64, 0
1, 67932, Control_c, 0, 64, 127
1, 68328, Note_off_c, 0, 63, 64
1, 68332, Note_on_c, 0, 64, 49
1, 68376, Note_off_c, 0, 68, 64
1, 68380, Note_off_c, 0, 32, 64
1, 68380, Note_off_c, 0, 44, 64
1, 68392, Note_off_c, 0, 71, 64
1, 68392, Control_c, 0, 64, 0
1, 68416, Control_c, 0, 64, 127
1, 68764, Note_on_c, 0, 63, 50
1, 68824, Note_off_c, 0, 64, 64
1, 68868, Note_on_c, 0, 62, 61
1, 68876, Note_on_c, 0, 71, 56
1, 68880, Note_on_c, 0, 68, 50
1, 68904, Note_off_c, 0, 63, 64
1, 68916, Control_c, 0, 64, 0
1, 68948, Control_c, 0, 64, 127
1, 69504, Note_on_c, 0, 61, 56
1, 69512, Note_on_c, 0, 70, 67
1, 69528, Note_on_c, 0, 67, 46
1, 69532, Note_on_c, 0, 39, 39
1, 69548, Note_off_c, 0, 62, 64
1, 69548, Note_off_c, 0, 68, 64
1, 69548, Note_off_c, 0, 71, 64
1, 69616, Control_c, 0, 64, 0
1, 69664, Control_c, 0, 64, 127
1, 70148, Note_on_c, 0, 44, 38
1, 70176, Note_on_c, 0, 68, 58
1, 70200, Note_off_c, 0, 67, 64
1, 70212, Note_off_c, 0, 39, 64
1, 70236, Note_off_c, 0, 70, 64
1, 70240, Note_off_c, 0, 61, 64
1, 70276, Control_c, 0, 64, 0
1, 70316, Control_c, 0, 64, 127
1, 70836, Note_on_c, 0, 63, 26
1, 70836, Note_on_c, 0, 59, 43
1, 70864, Note_on_c, 0, 56, 21
1, 70872, Note_on_c, 0, 51, 21
1, 71272, Note_off_c, 0, 63, 64
1, 71276, Note_off_c, 0, 59, 64
1, 71300, Note_off_c, 0, 56, 64
1, 71308, Note_off_c, 0, 51, 64
1, 71372, Note_off_c, 0, 68, 64
1, 71396, Note_on_c, 0, 63, 26
1, 71404, Note_on_c, 0, 71, 49
1, 71412, Note_on_c, 0, 59, 23
1, 71420, Note_on_c, 0, 56, 15
1, 71440, Note_on_c, 0, 51, 17
1, 71492, Control_c, 0, 64, 0
1, 71516, Control_c, 0, 64, 127
1, 71952, Note_on_c, 0, 75, 49
1, 72008, Note_off_c, 0, 71, 64
1, 72020, Note_off_c, 0, 63, 64
1, 72040, Note_off_c, 0, 59, 64
1, 72048, Note_off_c, 0, 44, 64
1, 72048, Note_off_c, 0, 56, 64
1, 72064, Note_off_c, 0, 51, 64
1, 72336, Note_off_c, 0, 75, 64
1, 72336, Note_on_c, 0, 73, 38
1, 72432, Note_on_c, 0, 76, 52
1, 72436, Note_off_c, 0, 73, 64
1, 72436, Note_on_c, 0, 70, 39
1, 72448, Note_on_c, 0, 68, 47
1, 72448, Note_on_c, 0, 49, 38
1, 72460, Note_on_c, 0, 61, 27
1, 72524, Control_c, 0, 64, 0
1, 72544, Control_c, 0, 64, 127
1, 72884, Note_off_c, 0, 68, 64
1, 72940, Note_on_c, 0, 75, 47
1, 72952, Note_on_c, 0, 71, 42
1, 72952, Note_on_c, 0, 44, 34
1, 72960, Note_on_c, 0, 68, 36
1, 72968, Note_on_c, 0, 56, 23
1, 72984, Note_off_c, 0, 70, 64
1, 72988, Note_off_c, 0, 76, 64
1, 73000, Note_off_c, 0, 49, 64
1, 73008, Control_c, 0, 64, 0
1, 73012, Note_off_c, 0, 61, 64
1, 73028, Control_c, 0, 64, 127
1, 73048, Note_off_c, 0, 71, 64
1, 73072, Note_off_c, 0, 75, 64
1, 73352, Note_on_c, 0, 73, 39
1, 73408, Note_off_c, 0, 68, 64
1, 73428, Note_on_c, 0, 71, 35
1, 73444, Note_off_c, 0, 73, 64
1, 73524, Note_off_c, 0, 44, 64
1, 73556, Tempo, 500000
1, 73556, Note_off_c, 0, 56, 64
1, 73848, Note_off_c, 0, 71, 64
1, 73856, Note_on_c, 0, 70, 21
1, 73944, Note_on_c, 0, 73, 41
1, 73948, Note_on_c, 0, 37, 43
1, 73956, Note_on_c, 0, 64, 43
1, 73964, Note_on_c, 0, 68, 38
1, 73964, Note_on_c, 0, 49, 26
1, 73980, Note_off_c, 0, 70, 64
1, 74024, Control_c, 0, 64, 0
1, 74064, Control_c, 0, 64, 127
1, 74628, Note_off_c, 0, 37, 64
1, 74636, Note_off_c, 0, 64, 64
1, 74644, Note_off_c, 0, 68, 64
1, 74644, Note_off_c, 0, 49, 64
1, 74704, Note_on_c, 0, 63, 26
1, 74712, Note_on_c, 0, 68, 34
1, 74720, Note_on_c, 0, 32, 26
1, 74724, Note_on_c, 0, 71, 34
1, 74732, Note_on_c, 0, 44, 19
1, 74736, Note_off_c, 0, 73, 64
1, 74852, Control_c, 0, 64, 0
1, 74888, Control_c, 0, 64, 127
1, 75164, Note_off_c, 0, 63, 64
1, 75172, Note_off_c, 0, 68, 64
1, 75208, Note_off_c, 0, 71, 64
1, 75284, Note_on_c, 0, 64, 23
1, 75340, Note_on_c, 0, 66, 32
1, 75348, Note_off_c, 0, 64, 64
1, 75416, Note_on_c, 0, 64, 32
1, 75444, Note_off_c, 0, 66, 64
1, 75444, Control_c, 0, 64, 0
1, 75448, Control_c, 0, 64, 0
1, 75488, Control_c, 0, 64, 127
1, 75492, Control_c, 0, 64, 127
1, 75968, Note_on_c, 0, 63, 39
1, 76004, Note_off_c, 0, 64, 64
1, 76076, Note_on_c, 0, 62, 45
1, 76104, Note_on_c, 0, 71, 41
1, 76108, Note_on_c, 0, 68, 31
1, 76116, Note_off_c, 0, 63, 64
1, 76140, Note_off_c, 0, 32, 64
1, 76144, Note_off_c, 0, 44, 64
1, 76192, Control_c, 0, 64, 0
1, 76228, Control_c, 0, 64, 127
1, 76936, Note_on_c, 0, 61, 41
1, 76940, Note_on_c, 0, 70, 42
1, 76952, Note_on_c, 0, 39, 38
1, 76960, Note_on_c, 0, 67, 36
1, 77004, Note_off_c, 0, 62, 64
1, 77028, Note_off_c, 0, 71, 64
1, 77036, Note_off_c, 0, 68, 64
1, 77076, Control_c, 0, 64, 0
1, 77140, Control_c, 0, 64, 127
1, 77984, Note_on_c, 0, 68, 45
1, 77988, Note_on_c, 0, 44, 34
1, 78020, Note_off_c, 0, 61, 64
1, 78028, Note_off_c, 0, 70, 64
1, 78044, Note_off_c, 0, 67, 64
1, 78144, Note_off_c, 0, 39, 64
1, 78148, Control_c, 0, 64, 0
1, 78168, Control_c, 0, 64, 127
1, 79456, Note_on_c, 0, 63, 30
1, 79460, Note_on_c, 0, 59, 21
1, 79484, Note_on_c, 0, 51, 17
1, 79492, Note_on_c, 0, 56, 13
1, 80240, Control_c, 0, 64, 0
1, 80428, Control_c, 0, 64, 127
1, 83212, Note_off_c, 0, 63, 64
1, 83224, Note_off_c, 0, 59, 64
1, 83236, Note_off_c, 0, 44, 64
1, 83236, Note_off_c, 0, 51, 64
1, 83244, Note_off_c, 0, 68, 64
1, 83252, Note_off_c, 0, 56, 64
1, 83352, Control_c, 0, 64, 0
1, 83352, End_track
2, 0, Start_track
2, 1, Copyright_t, "__________________________________________________________\012\012KUNSTDERFUGE.COM GREAT CLASSICAL MIDI COLLECTION\012__________________________________________________________\012\012KUNST-DER-FUGE CONTRIBUTOR's PROPERTY\012Copyright by Contributor & Kunst der Fuge, © 2006\012\012Contributors' list: http://kunstderfuge.com/thanks.htm\012Terms and conditions: http://kunstderfuge.com/notes.htm\012__________________________________________________________\012\012NO WEBSITE MAY PUBLISH THIS FILE WITHOUT PERMISSION\012NO COMMERCIAL USE ALLOWED, NOR BY SALES NOR by eBay!\012PLEASE REPORT ANY ABUSE TO INFO@ONCLASSICAL.COM\012__________________________________________________________\012\012Thousands of free classical MIDI files at kunstderfuge.com"
2, 1, End_track
0, 0, End_of_file
