0, 0, Header, 0, 2, 384
1, 0, Start_track
1, 0, Title_t, "Chopin's Polonaise op. 61 (played by © Ron Lubetsky)"
1, 0, Control_c, 0, 0, 0
1, 0, Program_c, 0, 0
1, 0, Time_signature, 4, 2, 96, 8
1, 0, Sequencer_specific, 3, 0, 0, 65
1, 0, Tempo, 500000
1, 0, Control_c, 0, 7, 127
1, 60, Note_on_c, 0, 68, 73
1, 60, Note_on_c, 0, 44, 57
1, 64, Note_on_c, 0, 32, 57
1, 64, Note_on_c, 0, 56, 67
1, 72, Note_on_c, 0, 59, 70
1, 100, Control_c, 0, 64, 127
1, 172, Note_on_c, 0, 63, 74
1, 204, Note_off_c, 0, 68, 64
1, 516, Note_off_c, 0, 32, 64
1, 664, Note_off_c, 0, 63, 64
1, 672, Note_off_c, 0, 44, 64
1, 680, Note_off_c, 0, 56, 64
1, 688, Note_off_c, 0, 59, 64
1, 1112, Note_on_c, 0, 35, 66
1, 1124, Note_on_c, 0, 54, 63
1, 1124, Note_on_c, 0, 47, 54
1, 1128, Note_on_c, 0, 63, 70
1, 1128, Note_on_c, 0, 59, 73
1, 1244, Control_c, 0, 64, 0
1, 1436, Control_c, 0, 64, 127
1, 2624, Note_off_c, 0, 35, 64
1, 2724, Control_c, 0, 64, 0
1, 2736, Note_on_c, 0, 35, 67
1, 2916, Control_c, 0, 64, 127
1, 3296, Note_off_c, 0, 47, 64
1, 3300, Note_off_c, 0, 63, 64
1, 3304, Note_off_c, 0, 59, 64
1, 3316, Note_off_c, 0, 54, 64
1, 3328, Note_on_c, 0, 42, 57
1, 3620, Note_on_c, 0, 47, 45
1, 3832, Note_on_c, 0, 54, 50
1, 3944, Note_off_c, 0, 47, 64
1, 4080, Note_on_c, 0, 59, 36
1, 4276, Note_on_c, 0, 61, 46
1, 4292, Note_off_c, 0, 59, 64
1, 4304, Note_off_c, 0, 54, 64
1, 4320, Note_off_c, 0, 35, 64
1, 4472, Note_on_c, 0, 64, 57
1, 4512, Note_off_c, 0, 42, 64
1, 4564, Note_off_c, 0, 61, 64
1, 4632, Note_on_c, 0, 63, 56
1, 4648, Note_off_c, 0, 64, 64
1, 4800, Note_on_c, 0, 66, 59
1, 4852, Note_off_c, 0, 63, 64
1, 4984, Note_on_c, 0, 71, 60
1, 5088, Note_off_c, 0, 66, 64
1, 5132, Note_on_c, 0, 73, 68
1, 5160, Note_off_c, 0, 71, 64
1, 5308, Note_on_c, 0, 76, 60
1, 5320, Note_off_c, 0, 73, 64
1, 5464, Note_on_c, 0, 75, 56
1, 5504, Note_off_c, 0, 76, 64
1, 5624, Note_on_c, 0, 78, 57
1, 5688, Note_off_c, 0, 75, 64
1, 5792, Note_on_c, 0, 83, 55
1, 5952, Note_on_c, 0, 85, 45
1, 5964, Note_off_c, 0, 78, 64
1, 5980, Note_off_c, 0, 83, 64
1, 6132, Note_on_c, 0, 88, 56
1, 6184, Note_off_c, 0, 85, 64
1, 6288, Note_on_c, 0, 87, 50
1, 6312, Note_off_c, 0, 88, 64
1, 6460, Note_on_c, 0, 90, 49
1, 6544, Note_off_c, 0, 87, 64
1, 6640, Note_on_c, 0, 95, 43
1, 6780, Note_off_c, 0, 90, 64
1, 6804, Note_on_c, 0, 97, 51
1, 6836, Note_off_c, 0, 95, 64
1, 7028, Note_on_c, 0, 100, 35
1, 7076, Note_off_c, 0, 97, 64
1, 7216, Note_on_c, 0, 99, 54
1, 7224, Note_off_c, 0, 100, 64
1, 7568, Note_off_c, 0, 99, 64
1, 9504, Note_on_c, 0, 30, 62
1, 9516, Note_on_c, 0, 42, 49
1, 9516, Note_on_c, 0, 66, 73
1, 9528, Note_on_c, 0, 58, 68
1, 9528, Note_on_c, 0, 54, 64
1, 9544, Control_c, 0, 64, 0
1, 9636, Note_on_c, 0, 61, 79
1, 9652, Note_off_c, 0, 66, 64
1, 9672, Control_c, 0, 64, 127
1, 9744, Note_off_c, 0, 58, 64
1, 10192, Note_off_c, 0, 30, 64
1, 10192, Note_off_c, 0, 61, 64
1, 10204, Note_off_c, 0, 42, 64
1, 10216, Note_off_c, 0, 54, 64
1, 10504, Note_on_c, 0, 61, 76
1, 10516, Note_on_c, 0, 57, 79
1, 10516, Note_on_c, 0, 52, 73
1, 10516, Note_on_c, 0, 45, 63
1, 10524, Note_on_c, 0, 33, 68
1, 10624, Control_c, 0, 64, 0
1, 10772, Control_c, 0, 64, 127
1, 12080, Note_off_c, 0, 33, 64
1, 12440, Note_on_c, 0, 33, 68
1, 12448, Control_c, 0, 64, 0
1, 12748, Note_on_c, 0, 40, 64
1, 12876, Note_off_c, 0, 45, 64
1, 12888, Note_off_c, 0, 57, 64
1, 12900, Note_off_c, 0, 61, 64
1, 12924, Control_c, 0, 64, 127
1, 12928, Note_off_c, 0, 52, 64
1, 12976, Note_on_c, 0, 45, 45
1, 13228, Note_off_c, 0, 40, 64
1, 13244, Note_off_c, 0, 45, 64
1, 13244, Note_on_c, 0, 52, 46
1, 13456, Note_on_c, 0, 57, 50
1, 13508, Note_off_c, 0, 52, 64
1, 13664, Note_on_c, 0, 59, 67
1, 13672, Note_off_c, 0, 33, 64
1, 13712, Note_off_c, 0, 57, 64
1, 13856, Note_on_c, 0, 62, 64
1, 13904, Note_off_c, 0, 59, 64
1, 14024, Note_on_c, 0, 61, 69
1, 14040, Note_off_c, 0, 62, 64
1, 14196, Note_off_c, 0, 61, 64
1, 14208, Note_on_c, 0, 64, 62
1, 14340, Note_on_c, 0, 69, 67
1, 14488, Note_off_c, 0, 64, 64
1, 14512, Note_on_c, 0, 71, 62
1, 14628, Note_off_c, 0, 69, 64
1, 14668, Note_off_c, 0, 71, 64
1, 14672, Note_on_c, 0, 74, 60
1, 14812, Note_on_c, 0, 73, 56
1, 14844, Note_off_c, 0, 74, 64
1, 14988, Note_on_c, 0, 76, 55
1, 15096, Note_off_c, 0, 73, 64
1, 15152, Note_on_c, 0, 81, 55
1, 15256, Note_off_c, 0, 76, 64
1, 15324, Note_on_c, 0, 83, 60
1, 15404, Note_off_c, 0, 81, 64
1, 15504, Note_on_c, 0, 86, 53
1, 15540, Note_off_c, 0, 83, 64
1, 15672, Note_off_c, 0, 86, 64
1, 15672, Note_on_c, 0, 85, 61
1, 15864, Note_on_c, 0, 88, 41
1, 15956, Note_off_c, 0, 85, 64
1, 16048, Note_on_c, 0, 93, 57
1, 16148, Note_off_c, 0, 88, 64
1, 16248, Note_on_c, 0, 95, 43
1, 16332, Note_off_c, 0, 93, 64
1, 16460, Note_on_c, 0, 98, 46
1, 16528, Note_off_c, 0, 95, 64
1, 16680, Note_on_c, 0, 97, 47
1, 16716, Note_off_c, 0, 98, 64
1, 17076, Note_off_c, 0, 97, 64
1, 18160, Note_on_c, 0, 52, 59
1, 18168, Note_on_c, 0, 49, 45
1, 18168, Note_on_c, 0, 64, 57
1, 18176, Note_on_c, 0, 37, 53
1, 18288, Note_on_c, 0, 59, 73
1, 18300, Note_off_c, 0, 64, 64
1, 18368, Control_c, 0, 64, 0
1, 18516, Control_c, 0, 64, 127
1, 18820, Note_on_c, 0, 57, 63
1, 18868, Note_off_c, 0, 59, 64
1, 19124, Note_off_c, 0, 52, 64
1, 19128, Note_off_c, 0, 49, 64
1, 19136, Note_off_c, 0, 37, 64
1, 19352, Note_on_c, 0, 40, 48
1, 19352, Note_on_c, 0, 49, 56
1, 19356, Note_off_c, 0, 57, 64
1, 19356, Note_on_c, 0, 56, 63
1, 19404, Control_c, 0, 64, 0
1, 19524, Control_c, 0, 64, 127
1, 19996, Note_on_c, 0, 55, 65
1, 20008, Note_off_c, 0, 56, 64
1, 20280, Note_off_c, 0, 40, 64
1, 20280, Note_off_c, 0, 49, 64
1, 20464, Note_on_c, 0, 59, 61
1, 20468, Note_off_c, 0, 55, 64
1, 20476, Note_on_c, 0, 56, 42
1, 20572, Note_on_c, 0, 58, 58
1, 20592, Note_on_c, 0, 55, 64
1, 20604, Note_off_c, 0, 59, 64
1, 20616, Note_off_c, 0, 56, 64
1, 21016, Note_on_c, 0, 38, 61
1, 21092, Control_c, 0, 64, 0
1, 21104, Note_on_c, 0, 39, 62
1, 21152, Note_off_c, 0, 38, 64
1, 21184, Note_on_c, 0, 42, 63
1, 21200, Note_off_c, 0, 39, 64
1, 21284, Note_on_c, 0, 40, 56
1, 21288, Control_c, 0, 64, 127
1, 21296, Note_off_c, 0, 42, 64
1, 21772, Note_off_c, 0, 40, 64
1, 21812, Control_c, 0, 64, 0
1, 21848, Note_on_c, 0, 39, 70
1, 21920, Note_off_c, 0, 39, 64
1, 21976, Control_c, 0, 64, 127
1, 21988, Note_on_c, 0, 39, 68
1, 22488, Note_off_c, 0, 39, 64
1, 22500, Note_on_c, 0, 34, 52
1, 22528, Control_c, 0, 64, 0
1, 22628, Note_on_c, 0, 39, 60
1, 22680, Note_off_c, 0, 34, 64
1, 22704, Control_c, 0, 64, 127
1, 23056, Note_off_c, 0, 55, 64
1, 23160, Note_off_c, 0, 58, 64
1, 23424, Note_off_c, 0, 39, 64
1, 23892, Note_on_c, 0, 67, 52
1, 23904, Note_on_c, 0, 55, 35
1, 24012, Control_c, 0, 64, 0
1, 24772, Control_c, 0, 64, 127
1, 25160, Note_on_c, 0, 66, 50
1, 25172, Note_on_c, 0, 54, 31
1, 25240, Note_off_c, 0, 55, 64
1, 25248, Note_off_c, 0, 67, 64
1, 25472, Note_off_c, 0, 54, 64
1, 25584, Note_off_c, 0, 66, 64
1, 25936, Note_on_c, 0, 66, 45
1, 25936, Note_on_c, 0, 39, 40
1, 25944, Note_on_c, 0, 63, 44
1, 25948, Note_on_c, 0, 75, 49
1, 25956, Note_on_c, 0, 51, 31
1, 25976, Control_c, 0, 64, 0
1, 26064, Note_on_c, 0, 70, 47
1, 26072, Control_c, 0, 64, 127
1, 26100, Note_off_c, 0, 75, 64
1, 26136, Note_off_c, 0, 66, 64
1, 26208, Note_off_c, 0, 63, 64
1, 26320, Note_off_c, 0, 39, 64
1, 26396, Note_off_c, 0, 51, 64
1, 26476, Note_off_c, 0, 70, 64
1, 26636, Note_on_c, 0, 42, 33
1, 26724, Note_on_c, 0, 49, 33
1, 26792, Note_on_c, 0, 54, 33
1, 26828, Note_on_c, 0, 58, 41
1, 26888, Note_on_c, 0, 61, 45
1, 26972, Note_on_c, 0, 66, 39
1, 27060, Control_c, 0, 64, 0
1, 27088, Note_on_c, 0, 70, 54
1, 27272, Control_c, 0, 64, 127
1, 27968, Note_off_c, 0, 49, 64
1, 28008, Note_off_c, 0, 54, 64
1, 28276, Note_off_c, 0, 42, 64
1, 28836, Note_on_c, 0, 30, 54
1, 29056, Control_c, 0, 64, 0
1, 29164, Control_c, 0, 64, 127
1, 29184, Note_on_c, 0, 42, 52
1, 29488, Note_on_c, 0, 49, 51
1, 29500, Note_off_c, 0, 70, 64
1, 29556, Note_off_c, 0, 66, 64
1, 29576, Note_off_c, 0, 58, 64
1, 29628, Note_off_c, 0, 61, 64
1, 29776, Note_on_c, 0, 54, 50
1, 29840, Note_off_c, 0, 49, 64
1, 29868, Note_off_c, 0, 30, 64
1, 29996, Note_on_c, 0, 56, 49
1, 30084, Note_off_c, 0, 54, 64
1, 30192, Note_off_c, 0, 56, 64
1, 30208, Note_on_c, 0, 59, 48
1, 30280, Note_off_c, 0, 42, 64
1, 30372, Note_on_c, 0, 58, 47
1, 30388, Note_off_c, 0, 59, 64
1, 30520, Note_on_c, 0, 61, 47
1, 30544, Note_off_c, 0, 58, 64
1, 30696, Note_on_c, 0, 66, 46
1, 30804, Note_off_c, 0, 61, 64
1, 30808, Note_on_c, 0, 68, 46
1, 30824, Note_off_c, 0, 66, 64
1, 30952, Note_on_c, 0, 71, 45
1, 30968, Note_off_c, 0, 68, 64
1, 31116, Note_on_c, 0, 70, 45
1, 31148, Note_off_c, 0, 71, 64
1, 31236, Note_on_c, 0, 73, 45
1, 31392, Note_on_c, 0, 78, 44
1, 31400, Note_off_c, 0, 70, 64
1, 31504, Note_off_c, 0, 73, 64
1, 31536, Note_on_c, 0, 80, 44
1, 31584, Note_off_c, 0, 78, 64
1, 31684, Note_on_c, 0, 83, 43
1, 31720, Note_off_c, 0, 80, 64
1, 31828, Note_on_c, 0, 82, 43
1, 31840, Note_off_c, 0, 83, 64
1, 31988, Note_on_c, 0, 85, 42
1, 32044, Note_off_c, 0, 82, 64
1, 32128, Note_on_c, 0, 90, 41
1, 32272, Note_off_c, 0, 85, 64
1, 32288, Note_on_c, 0, 92, 41
1, 32356, Note_off_c, 0, 90, 64
1, 32456, Note_on_c, 0, 95, 40
1, 32496, Note_off_c, 0, 92, 64
1, 32624, Note_on_c, 0, 94, 40
1, 32628, Note_off_c, 0, 95, 64
1, 32944, Note_off_c, 0, 94, 64
1, 34052, Note_on_c, 0, 37, 49
1, 34068, Note_on_c, 0, 49, 37
1, 34080, Note_on_c, 0, 73, 52
1, 34080, Note_on_c, 0, 61, 34
1, 34092, Note_on_c, 0, 65, 45
1, 34096, Control_c, 0, 64, 0
1, 34196, Control_c, 0, 64, 127
1, 34212, Note_on_c, 0, 68, 58
1, 34224, Note_off_c, 0, 73, 64
1, 34320, Note_off_c, 0, 65, 64
1, 34440, Note_off_c, 0, 61, 64
1, 34464, Note_off_c, 0, 37, 64
1, 34488, Note_off_c, 0, 49, 64
1, 34624, Note_off_c, 0, 68, 64
1, 34832, Note_on_c, 0, 40, 40
1, 34880, Note_on_c, 0, 47, 45
1, 34936, Note_on_c, 0, 52, 41
1, 34980, Note_on_c, 0, 56, 49
1, 35048, Note_on_c, 0, 59, 48
1, 35116, Note_on_c, 0, 64, 34
1, 35144, Control_c, 0, 64, 0
1, 35156, Note_on_c, 0, 68, 49
1, 35344, Control_c, 0, 64, 127
1, 35988, Note_off_c, 0, 47, 64
1, 36000, Note_off_c, 0, 40, 64
1, 36060, Note_off_c, 0, 52, 64
1, 36148, Note_on_c, 0, 28, 73
1, 36520, Note_on_c, 0, 40, 64
1, 36596, Note_off_c, 0, 64, 64
1, 36836, Note_on_c, 0, 47, 65
1, 36888, Note_off_c, 0, 68, 64
1, 36912, Note_off_c, 0, 59, 64
1, 36996, Note_off_c, 0, 56, 64
1, 37036, Note_off_c, 0, 28, 64
1, 37084, Note_on_c, 0, 52, 50
1, 37180, Note_off_c, 0, 47, 64
1, 37288, Note_on_c, 0, 54, 38
1, 37328, Note_off_c, 0, 40, 64
1, 37332, Note_off_c, 0, 52, 64
1, 37492, Note_on_c, 0, 57, 51
1, 37520, Note_off_c, 0, 54, 64
1, 37652, Note_on_c, 0, 56, 56
1, 37656, Note_off_c, 0, 57, 64
1, 37828, Note_off_c, 0, 56, 64
1, 37832, Note_on_c, 0, 59, 45
1, 38012, Note_on_c, 0, 64, 32
1, 38112, Note_off_c, 0, 59, 64
1, 38156, Note_on_c, 0, 66, 35
1, 38216, Note_off_c, 0, 64, 64
1, 38304, Note_on_c, 0, 69, 48
1, 38344, Note_off_c, 0, 66, 64
1, 38456, Note_on_c, 0, 68, 56
1, 38540, Note_off_c, 0, 69, 64
1, 38592, Note_on_c, 0, 71, 62
1, 38736, Note_on_c, 0, 76, 61
1, 38740, Note_off_c, 0, 68, 64
1, 38868, Note_on_c, 0, 78, 47
1, 38896, Note_off_c, 0, 71, 64
1, 38928, Note_off_c, 0, 76, 64
1, 39016, Note_on_c, 0, 81, 45
1, 39088, Note_off_c, 0, 78, 64
1, 39136, Note_on_c, 0, 80, 53
1, 39152, Note_off_c, 0, 81, 64
1, 39248, Note_off_c, 0, 80, 64
1, 39304, Note_on_c, 0, 83, 59
1, 39456, Note_on_c, 0, 88, 56
1, 39600, Note_on_c, 0, 90, 35
1, 39640, Note_off_c, 0, 83, 64
1, 39692, Note_off_c, 0, 88, 64
1, 39784, Note_on_c, 0, 93, 37
1, 39848, Note_off_c, 0, 90, 64
1, 39936, Note_on_c, 0, 92, 46
1, 39964, Note_off_c, 0, 93, 64
1, 40296, Note_off_c, 0, 92, 64
1, 42060, Note_on_c, 0, 56, 35
1, 42068, Note_on_c, 0, 59, 55
1, 42072, Note_on_c, 0, 44, 50
1, 42092, Note_on_c, 0, 71, 67
1, 42176, Note_on_c, 0, 66, 85
1, 42216, Note_off_c, 0, 71, 64
1, 42228, Control_c, 0, 64, 0
1, 42376, Control_c, 0, 64, 127
1, 42748, Note_off_c, 0, 66, 64
1, 42784, Note_on_c, 0, 64, 66
1, 42832, Note_off_c, 0, 59, 64
1, 43016, Note_off_c, 0, 56, 64
1, 43096, Note_off_c, 0, 44, 64
1, 43232, Control_c, 0, 64, 0
1, 43300, Note_on_c, 0, 63, 67
1, 43300, Note_on_c, 0, 56, 48
1, 43312, Note_on_c, 0, 47, 66
1, 43312, Note_on_c, 0, 59, 46
1, 43340, Control_c, 0, 64, 127
1, 43356, Note_off_c, 0, 64, 64
1, 43776, Note_off_c, 0, 63, 64
1, 43776, Note_off_c, 0, 56, 64
1, 43776, Note_off_c, 0, 59, 64
1, 43888, Note_on_c, 0, 56, 61
1, 43892, Note_on_c, 0, 62, 66
1, 43896, Note_on_c, 0, 53, 52
1, 44504, Note_off_c, 0, 56, 64
1, 44532, Note_on_c, 0, 66, 72
1, 44544, Note_on_c, 0, 63, 46
1, 44556, Note_off_c, 0, 62, 64
1, 44556, Note_on_c, 0, 56, 62
1, 44560, Note_off_c, 0, 53, 64
1, 44672, Note_off_c, 0, 63, 64
1, 44680, Note_off_c, 0, 66, 64
1, 44684, Note_off_c, 0, 56, 64
1, 44708, Note_on_c, 0, 65, 52
1, 44716, Note_on_c, 0, 62, 52
1, 44724, Note_on_c, 0, 56, 45
1, 45120, Note_off_c, 0, 47, 64
1, 45120, Note_off_c, 0, 65, 64
1, 45120, Note_off_c, 0, 62, 64
1, 45120, Note_off_c, 0, 56, 64
1, 45120, Note_on_c, 0, 45, 57
1, 45120, Note_on_c, 0, 33, 34
1, 45176, Note_on_c, 0, 34, 40
1, 45184, Note_on_c, 0, 46, 51
1, 45200, Control_c, 0, 64, 127
1, 45248, Note_off_c, 0, 45, 64
1, 45248, Note_off_c, 0, 33, 64
1, 45252, Note_on_c, 0, 49, 56
1, 45252, Note_on_c, 0, 37, 28
1, 45304, Note_off_c, 0, 46, 64
1, 45304, Note_on_c, 0, 47, 68
1, 45312, Note_on_c, 0, 35, 47
1, 45320, Note_off_c, 0, 34, 64
1, 45332, Control_c, 0, 64, 0
1, 45372, Note_off_c, 0, 49, 64
1, 45372, Note_off_c, 0, 37, 64
1, 45436, Control_c, 0, 64, 127
1, 45668, Note_on_c, 0, 54, 67
1, 45676, Note_on_c, 0, 63, 67
1, 45676, Note_on_c, 0, 57, 51
1, 45848, Note_off_c, 0, 54, 64
1, 45856, Note_off_c, 0, 63, 64
1, 45856, Note_off_c, 0, 57, 64
1, 45984, Note_on_c, 0, 56, 56
1, 45996, Note_on_c, 0, 62, 58
1, 46008, Note_on_c, 0, 53, 36
1, 46132, Control_c, 0, 64, 0
1, 46224, Control_c, 0, 64, 127
1, 46528, Note_off_c, 0, 56, 64
1, 46544, Note_on_c, 0, 66, 72
1, 46544, Note_on_c, 0, 56, 57
1, 46560, Note_on_c, 0, 63, 48
1, 46564, Note_off_c, 0, 62, 64
1, 46576, Note_off_c, 0, 53, 64
1, 46672, Note_off_c, 0, 66, 64
1, 46672, Note_off_c, 0, 56, 64
1, 46680, Note_on_c, 0, 62, 52
1, 46688, Note_off_c, 0, 63, 64
1, 46688, Note_on_c, 0, 65, 52
1, 46688, Note_on_c, 0, 56, 45
1, 46984, Note_off_c, 0, 47, 64
1, 46992, Note_off_c, 0, 35, 64
1, 47040, Note_off_c, 0, 62, 64
1, 47040, Note_off_c, 0, 65, 64
1, 47040, Note_off_c, 0, 56, 64
1, 47052, Note_on_c, 0, 33, 40
1, 47056, Note_on_c, 0, 45, 68
1, 47116, Note_on_c, 0, 34, 48
1, 47120, Note_on_c, 0, 46, 60
1, 47184, Note_off_c, 0, 33, 64
1, 47184, Note_off_c, 0, 45, 64
1, 47192, Note_on_c, 0, 49, 67
1, 47200, Note_on_c, 0, 37, 34
1, 47236, Note_off_c, 0, 34, 64
1, 47244, Note_off_c, 0, 46, 64
1, 47272, Control_c, 0, 64, 0
1, 47288, Note_on_c, 0, 47, 71
1, 47288, Note_on_c, 0, 35, 49
1, 47312, Note_off_c, 0, 49, 64
1, 47320, Note_off_c, 0, 37, 64
1, 47376, Control_c, 0, 64, 127
1, 47652, Note_on_c, 0, 57, 67
1, 47656, Note_on_c, 0, 66, 63
1, 47664, Note_on_c, 0, 63, 63
1, 47880, Note_off_c, 0, 57, 64
1, 47884, Note_off_c, 0, 66, 64
1, 47892, Note_off_c, 0, 63, 64
1, 47948, Note_on_c, 0, 56, 73
1, 47960, Note_on_c, 0, 68, 73
1, 47960, Note_on_c, 0, 64, 68
1, 48436, Note_off_c, 0, 56, 64
1, 48440, Note_on_c, 0, 54, 35
1, 48444, Note_on_c, 0, 69, 73
1, 48448, Note_off_c, 0, 68, 64
1, 48448, Note_off_c, 0, 64, 64
1, 48456, Note_on_c, 0, 63, 66
1, 48552, Note_off_c, 0, 63, 64
1, 48572, Note_on_c, 0, 63, 73
1, 48576, Note_on_c, 0, 66, 73
1, 48588, Note_on_c, 0, 57, 66
1, 48600, Note_off_c, 0, 54, 64
1, 48604, Note_off_c, 0, 69, 64
1, 48604, Control_c, 0, 64, 0
1, 48720, Control_c, 0, 64, 127
1, 48904, Note_on_c, 0, 49, 79
1, 48968, Note_off_c, 0, 35, 64
1, 48968, Note_off_c, 0, 47, 64
1, 49072, Note_off_c, 0, 49, 64
1, 49072, Note_on_c, 0, 48, 62
1, 49184, Control_c, 0, 64, 0
1, 49196, Note_off_c, 0, 57, 64
1, 49220, Note_on_c, 0, 47, 72
1, 49240, Note_off_c, 0, 48, 64
1, 49304, Control_c, 0, 64, 127
1, 49376, Note_off_c, 0, 63, 64
1, 49516, Note_on_c, 0, 68, 67
1, 49516, Note_on_c, 0, 56, 69
1, 49528, Note_on_c, 0, 64, 60
1, 49544, Note_off_c, 0, 66, 64
1, 49728, Note_off_c, 0, 56, 64
1, 49804, Note_on_c, 0, 63, 73
1, 49808, Note_on_c, 0, 54, 61
1, 49812, Note_on_c, 0, 69, 76
1, 49832, Note_off_c, 0, 64, 64
1, 49836, Note_off_c, 0, 68, 64
1, 49844, Note_off_c, 0, 47, 64
1, 50252, Note_off_c, 0, 63, 64
1, 50272, Note_on_c, 0, 73, 70
1, 50272, Note_on_c, 0, 63, 70
1, 50276, Note_off_c, 0, 54, 64
1, 50280, Note_off_c, 0, 69, 64
1, 50288, Note_on_c, 0, 57, 42
1, 50404, Note_on_c, 0, 71, 69
1, 50404, Note_on_c, 0, 56, 60
1, 50416, Note_off_c, 0, 73, 64
1, 50416, Note_off_c, 0, 63, 64
1, 50416, Note_on_c, 0, 64, 68
1, 50432, Note_off_c, 0, 57, 64
1, 50464, Control_c, 0, 64, 0
1, 50540, Control_c, 0, 64, 127
1, 50764, Note_on_c, 0, 49, 45
1, 50916, Note_off_c, 0, 56, 64
1, 50916, Note_off_c, 0, 71, 64
1, 50916, Note_on_c, 0, 63, 73
1, 50928, Note_off_c, 0, 64, 64
1, 50928, Note_on_c, 0, 66, 75
1, 50928, Note_on_c, 0, 48, 65
1, 50940, Note_off_c, 0, 49, 64
1, 51092, Note_off_c, 0, 66, 64
1, 51100, Note_off_c, 0, 63, 64
1, 51104, Note_off_c, 0, 48, 64
1, 51120, Note_on_c, 0, 47, 67
1, 51136, Note_on_c, 0, 68, 68
1, 51136, Note_on_c, 0, 64, 70
1, 51324, Control_c, 0, 64, 0
1, 51444, Control_c, 0, 64, 127
1, 51784, Note_off_c, 0, 68, 64
1, 51784, Note_off_c, 0, 64, 64
1, 51792, Note_on_c, 0, 73, 58
1, 51804, Note_on_c, 0, 64, 53
1, 51812, Note_on_c, 0, 58, 58
1, 51812, Note_on_c, 0, 55, 49
1, 51964, Note_on_c, 0, 66, 54
1, 51968, Note_on_c, 0, 63, 53
1, 51976, Note_on_c, 0, 59, 32
1, 51984, Note_on_c, 0, 54, 28
1, 52008, Note_off_c, 0, 73, 64
1, 52012, Control_c, 0, 64, 0
1, 52024, Note_off_c, 0, 64, 64
1, 52028, Note_off_c, 0, 58, 64
1, 52028, Note_off_c, 0, 55, 64
1, 52120, Control_c, 0, 64, 127
1, 52424, Note_off_c, 0, 63, 64
1, 52424, Note_off_c, 0, 66, 64
1, 52424, Note_on_c, 0, 68, 52
1, 52428, Note_on_c, 0, 62, 57
1, 52432, Note_off_c, 0, 59, 64
1, 52432, Note_on_c, 0, 53, 63
1, 52436, Note_off_c, 0, 54, 64
1, 52656, Note_off_c, 0, 68, 64
1, 52656, Note_off_c, 0, 62, 64
1, 52672, Note_on_c, 0, 71, 64
1, 52680, Control_c, 0, 64, 0
1, 52684, Note_on_c, 0, 61, 64
1, 52704, Note_off_c, 0, 53, 64
1, 52704, Note_on_c, 0, 54, 32
1, 52800, Control_c, 0, 64, 127
1, 52900, Note_off_c, 0, 71, 64
1, 52912, Note_on_c, 0, 69, 54
1, 53092, Note_on_c, 0, 68, 58
1, 53112, Note_off_c, 0, 69, 64
1, 53272, Note_on_c, 0, 63, 53
1, 53272, Note_on_c, 0, 66, 58
1, 53272, Note_on_c, 0, 57, 37
1, 53296, Note_off_c, 0, 68, 64
1, 53308, Control_c, 0, 64, 0
1, 53320, Note_off_c, 0, 61, 64
1, 53340, Note_off_c, 0, 54, 64
1, 53392, Control_c, 0, 64, 127
1, 53580, Note_off_c, 0, 47, 64
1, 53728, Note_off_c, 0, 66, 64
1, 53740, Note_on_c, 0, 68, 52
1, 53856, Note_off_c, 0, 57, 64
1, 53856, Note_off_c, 0, 63, 64
1, 53864, Note_on_c, 0, 56, 52
1, 53872, Note_on_c, 0, 64, 56
1, 53876, Control_c, 0, 64, 0
1, 53880, Note_on_c, 0, 47, 39
1, 53912, Note_off_c, 0, 68, 64
1, 53984, Control_c, 0, 64, 127
1, 54420, Note_on_c, 0, 59, 49
1, 54648, Note_off_c, 0, 64, 64
1, 54656, Note_on_c, 0, 51, 66
1, 54712, Note_off_c, 0, 56, 64
1, 54856, Note_off_c, 0, 59, 64
1, 54904, Note_off_c, 0, 51, 64
1, 54916, Note_on_c, 0, 52, 72
1, 54920, Note_on_c, 0, 68, 58
1, 54928, Note_on_c, 0, 64, 56
1, 54948, Control_c, 0, 64, 0
1, 55040, Control_c, 0, 64, 127
1, 55316, Note_on_c, 0, 61, 56
1, 55320, Note_off_c, 0, 64, 64
1, 55352, Note_off_c, 0, 52, 64
1, 55500, Note_on_c, 0, 69, 56
1, 55504, Note_on_c, 0, 64, 52
1, 55520, Note_on_c, 0, 54, 51
1, 55524, Note_off_c, 0, 61, 64
1, 55532, Note_off_c, 0, 68, 64
1, 55848, Control_c, 0, 64, 0
1, 55896, Note_on_c, 0, 56, 44
1, 55956, Note_off_c, 0, 54, 64
1, 56004, Control_c, 0, 64, 127
1, 56056, Note_off_c, 0, 56, 64
1, 56164, Note_on_c, 0, 59, 58
1, 56352, Note_on_c, 0, 57, 59
1, 56368, Note_off_c, 0, 59, 64
1, 56480, Note_on_c, 0, 56, 66
1, 56504, Note_off_c, 0, 57, 64
1, 56564, Note_off_c, 0, 69, 64
1, 56568, Note_off_c, 0, 64, 64
1, 56600, Control_c, 0, 64, 0
1, 56628, Note_on_c, 0, 69, 54
1, 56636, Note_on_c, 0, 54, 51
1, 56640, Note_on_c, 0, 63, 48
1, 56668, Note_off_c, 0, 56, 64
1, 56700, Control_c, 0, 64, 127
1, 56768, Note_off_c, 0, 47, 64
1, 56948, Note_off_c, 0, 69, 64
1, 56988, Note_off_c, 0, 54, 64
1, 56992, Note_off_c, 0, 63, 64
1, 57008, Note_on_c, 0, 68, 34
1, 57024, Note_on_c, 0, 56, 51
1, 57132, Control_c, 0, 64, 0
1, 57136, Note_off_c, 0, 68, 64
1, 57148, Note_on_c, 0, 52, 57
1, 57152, Note_off_c, 0, 56, 64
1, 57152, Note_on_c, 0, 59, 41
1, 57156, Note_on_c, 0, 64, 48
1, 57164, Note_on_c, 0, 68, 54
1, 57252, Control_c, 0, 64, 127
1, 57672, Note_off_c, 0, 59, 64
1, 57676, Note_off_c, 0, 64, 64
1, 57704, Note_on_c, 0, 47, 45
1, 57724, Note_on_c, 0, 63, 56
1, 57784, Note_off_c, 0, 68, 64
1, 58004, Note_on_c, 0, 70, 73
1, 58040, Note_off_c, 0, 52, 64
1, 58072, Note_off_c, 0, 47, 64
1, 58092, Note_off_c, 0, 63, 64
1, 58192, Note_off_c, 0, 70, 64
1, 58264, Note_on_c, 0, 63, 66
1, 58284, Note_on_c, 0, 68, 68
1, 58284, Note_on_c, 0, 71, 75
1, 58296, Note_on_c, 0, 44, 53
1, 58296, Note_on_c, 0, 32, 61
1, 58320, Control_c, 0, 64, 0
1, 58380, Control_c, 0, 64, 127
1, 58680, Note_on_c, 0, 76, 73
1, 58696, Note_off_c, 0, 71, 64
1, 58704, Note_off_c, 0, 63, 64
1, 58724, Note_off_c, 0, 68, 64
1, 58736, Note_off_c, 0, 32, 64
1, 58736, Note_off_c, 0, 44, 64
1, 58788, Note_on_c, 0, 49, 64
1, 58792, Control_c, 0, 64, 0
1, 58800, Note_on_c, 0, 64, 70
1, 58812, Note_on_c, 0, 70, 85
1, 58812, Note_on_c, 0, 68, 81
1, 58816, Note_on_c, 0, 37, 62
1, 58832, Note_off_c, 0, 76, 64
1, 58888, Control_c, 0, 64, 127
1, 59092, Note_off_c, 0, 70, 64
1, 59120, Note_off_c, 0, 68, 64
1, 59156, Note_off_c, 0, 49, 64
1, 59184, Note_off_c, 0, 37, 64
1, 59224, Note_on_c, 0, 71, 75
1, 59236, Note_off_c, 0, 64, 64
1, 59352, Control_c, 0, 64, 0
1, 59376, Note_on_c, 0, 46, 48
1, 59376, Note_on_c, 0, 34, 9
1, 59392, Note_on_c, 0, 75, 73
1, 59396, Note_on_c, 0, 68, 44
1, 59396, Note_on_c, 0, 64, 50
1, 59440, Note_off_c, 0, 71, 64
1, 59464, Control_c, 0, 64, 127
1, 59600, Note_on_c, 0, 73, 75
1, 59624, Note_off_c, 0, 75, 64
1, 59744, Note_off_c, 0, 46, 64
1, 59744, Note_off_c, 0, 34, 64
1, 59768, Note_on_c, 0, 71, 74
1, 59780, Note_off_c, 0, 68, 64
1, 59808, Note_off_c, 0, 73, 64
1, 59820, Note_off_c, 0, 64, 64
1, 59968, Control_c, 0, 64, 0
1, 59980, Note_on_c, 0, 61, 79
1, 59980, Note_on_c, 0, 39, 60
1, 59984, Note_on_c, 0, 70, 66
1, 59992, Note_off_c, 0, 71, 64
1, 60000, Note_on_c, 0, 51, 33
1, 60008, Note_on_c, 0, 67, 34
1, 60088, Control_c, 0, 64, 127
1, 60404, Note_off_c, 0, 39, 64
1, 60416, Note_off_c, 0, 70, 64
1, 60424, Note_off_c, 0, 51, 64
1, 60524, Note_on_c, 0, 71, 73
1, 60588, Note_off_c, 0, 61, 64
1, 60612, Note_off_c, 0, 67, 64
1, 60632, Control_c, 0, 64, 0
1, 60664, Note_off_c, 0, 71, 64
1, 60664, Note_on_c, 0, 68, 73
1, 60672, Note_on_c, 0, 64, 71
1, 60680, Note_on_c, 0, 61, 72
1, 60688, Note_on_c, 0, 44, 51
1, 60688, Note_on_c, 0, 32, 48
1, 60756, Control_c, 0, 64, 127
1, 61032, Note_off_c, 0, 64, 64
1, 61152, Note_off_c, 0, 61, 64
1, 61320, Note_on_c, 0, 63, 47
1, 61328, Note_on_c, 0, 59, 39
1, 61440, Control_c, 0, 64, 0
1, 61512, Control_c, 0, 64, 127
1, 61608, Note_on_c, 0, 46, 50
1, 61624, Note_off_c, 0, 44, 64
1, 61644, Note_off_c, 0, 32, 64
1, 61804, Control_c, 0, 64, 0
1, 61840, Note_on_c, 0, 47, 51
1, 61900, Note_off_c, 0, 46, 64
1, 61976, Control_c, 0, 64, 127
1, 62080, Note_off_c, 0, 59, 64
1, 62108, Note_off_c, 0, 68, 64
1, 62216, Note_on_c, 0, 52, 49
1, 62220, Note_off_c, 0, 47, 64
1, 62244, Note_off_c, 0, 63, 64
1, 62288, Control_c, 0, 64, 0
1, 62360, Note_on_c, 0, 46, 48
1, 62416, Note_off_c, 0, 52, 64
1, 62456, Control_c, 0, 64, 127
1, 62768, Note_on_c, 0, 47, 41
1, 62816, Note_off_c, 0, 46, 64
1, 62912, Note_on_c, 0, 51, 49
1, 62920, Note_off_c, 0, 47, 64
1, 62940, Control_c, 0, 64, 0
1, 62960, Control_c, 0, 64, 127
1, 63128, Note_on_c, 0, 49, 45
1, 63160, Note_off_c, 0, 51, 64
1, 63296, Note_on_c, 0, 47, 51
1, 63344, Note_off_c, 0, 49, 64
1, 63392, Control_c, 0, 64, 0
1, 63524, Note_on_c, 0, 55, 37
1, 63528, Note_off_c, 0, 47, 64
1, 63532, Note_on_c, 0, 63, 41
1, 63532, Note_on_c, 0, 61, 38
1, 63532, Note_on_c, 0, 46, 55
1, 63980, Note_on_c, 0, 47, 42
1, 64032, Note_off_c, 0, 55, 64
1, 64032, Note_off_c, 0, 63, 64
1, 64032, Note_off_c, 0, 61, 64
1, 64032, Note_off_c, 0, 46, 64
1, 64184, Note_on_c, 0, 63, 41
1, 64184, Note_on_c, 0, 60, 46
1, 64184, Note_on_c, 0, 44, 51
1, 64184, Control_c, 0, 64, 0
1, 64192, Note_on_c, 0, 54, 40
1, 64208, Note_off_c, 0, 47, 64
1, 64320, Control_c, 0, 64, 127
1, 64836, Note_on_c, 0, 37, 34
1, 64848, Note_off_c, 0, 44, 64
1, 64848, Note_off_c, 0, 60, 64
1, 64848, Note_off_c, 0, 63, 64
1, 64848, Note_on_c, 0, 61, 50
1, 64848, Note_on_c, 0, 52, 32
1, 64856, Note_off_c, 0, 54, 64
1, 65200, Control_c, 0, 64, 0
1, 65716, Control_c, 0, 64, 127
1, 65720, Note_on_c, 0, 57, 42
1, 66168, Note_off_c, 0, 57, 64
1, 66348, Note_off_c, 0, 37, 64
1, 66360, Note_off_c, 0, 52, 64
1, 66360, Note_off_c, 0, 61, 64
1, 66480, Note_on_c, 0, 55, 41
1, 66484, Control_c, 0, 64, 0
1, 66488, Note_on_c, 0, 39, 34
1, 66572, Control_c, 0, 64, 127
1, 66632, Note_off_c, 0, 55, 64
1, 66656, Note_off_c, 0, 39, 64
1, 66968, Note_on_c, 0, 63, 38
1, 66968, Note_on_c, 0, 51, 73
1, 67028, Note_off_c, 0, 63, 64
1, 67028, Note_off_c, 0, 51, 64
1, 67044, Note_on_c, 0, 63, 73
1, 67052, Note_on_c, 0, 51, 68
1, 67072, Control_c, 0, 64, 0
1, 67120, Note_off_c, 0, 63, 64
1, 67128, Note_off_c, 0, 51, 64
1, 67128, Note_on_c, 0, 63, 81
1, 67136, Note_on_c, 0, 51, 82
1, 67176, Note_off_c, 0, 63, 64
1, 67180, Note_off_c, 0, 51, 64
1, 67416, Note_on_c, 0, 63, 73
1, 67416, Note_on_c, 0, 51, 72
1, 67464, Note_off_c, 0, 63, 64
1, 67472, Note_off_c, 0, 51, 64
1, 67716, Control_c, 0, 64, 127
1, 67744, Note_on_c, 0, 51, 70
1, 67748, Note_on_c, 0, 63, 73
1, 67816, Note_off_c, 0, 63, 64
1, 67824, Note_off_c, 0, 51, 64
1, 68112, Note_on_c, 0, 51, 73
1, 68124, Note_on_c, 0, 63, 80
1, 68172, Note_off_c, 0, 51, 64
1, 68184, Note_off_c, 0, 63, 64
1, 68204, Note_on_c, 0, 63, 72
1, 68204, Note_on_c, 0, 51, 72
1, 68272, Note_off_c, 0, 63, 64
1, 68272, Note_off_c, 0, 51, 64
1, 68284, Note_on_c, 0, 63, 81
1, 68288, Note_on_c, 0, 51, 66
1, 68344, Note_off_c, 0, 63, 64
1, 68348, Note_off_c, 0, 51, 64
1, 68416, Control_c, 0, 64, 0
1, 68520, Control_c, 0, 64, 127
1, 68556, Note_on_c, 0, 63, 70
1, 68556, Note_on_c, 0, 51, 68
1, 68616, Note_off_c, 0, 63, 64
1, 68616, Note_off_c, 0, 51, 64
1, 68640, Note_on_c, 0, 51, 62
1, 68640, Note_on_c, 0, 63, 66
1, 68716, Note_off_c, 0, 51, 64
1, 68720, Note_off_c, 0, 63, 64
1, 68748, Note_on_c, 0, 51, 73
1, 68748, Note_on_c, 0, 63, 69
1, 68792, Note_off_c, 0, 51, 64
1, 68796, Note_off_c, 0, 63, 64
1, 68824, Control_c, 0, 64, 0
1, 69008, Note_on_c, 0, 51, 67
1, 69012, Note_on_c, 0, 63, 69
1, 69056, Note_off_c, 0, 51, 64
1, 69060, Note_off_c, 0, 63, 64
1, 69236, Control_c, 0, 64, 127
1, 69284, Note_on_c, 0, 51, 65
1, 69292, Note_on_c, 0, 63, 57
1, 69440, Note_off_c, 0, 51, 64
1, 69444, Note_off_c, 0, 63, 64
1, 69464, Control_c, 0, 64, 0
1, 69548, Note_on_c, 0, 63, 48
1, 69548, Note_on_c, 0, 51, 39
1, 69584, Control_c, 0, 64, 127
1, 69700, Note_off_c, 0, 63, 64
1, 69700, Note_off_c, 0, 51, 64
1, 69808, Note_on_c, 0, 63, 45
1, 69816, Note_on_c, 0, 51, 35
1, 69956, Note_off_c, 0, 63, 64
1, 69964, Note_off_c, 0, 51, 64
1, 70064, Note_on_c, 0, 53, 45
1, 70072, Note_on_c, 0, 63, 50
1, 70076, Note_on_c, 0, 61, 50
1, 70220, Note_off_c, 0, 53, 64
1, 70220, Note_off_c, 0, 63, 64
1, 70224, Note_off_c, 0, 61, 64
1, 70312, Note_on_c, 0, 55, 39
1, 70328, Note_on_c, 0, 70, 73
1, 70332, Note_on_c, 0, 63, 22
1, 70332, Note_on_c, 0, 61, 50
1, 70464, Note_off_c, 0, 55, 64
1, 70480, Note_off_c, 0, 63, 64
1, 70480, Note_off_c, 0, 61, 64
1, 70520, Control_c, 0, 64, 0
1, 70560, Note_on_c, 0, 63, 53
1, 70564, Note_on_c, 0, 61, 50
1, 70568, Note_on_c, 0, 51, 45
1, 70624, Control_c, 0, 64, 127
1, 70712, Note_off_c, 0, 61, 64
1, 70720, Note_off_c, 0, 51, 64
1, 70720, Note_off_c, 0, 63, 64
1, 70752, Note_off_c, 0, 70, 64
1, 70828, Note_on_c, 0, 56, 45
1, 70832, Note_on_c, 0, 61, 50
1, 70832, Note_on_c, 0, 63, 27
1, 70844, Note_on_c, 0, 72, 76
1, 70980, Note_off_c, 0, 56, 64
1, 70980, Note_off_c, 0, 61, 64
1, 70988, Note_off_c, 0, 63, 64
1, 71016, Control_c, 0, 64, 0
1, 71096, Note_on_c, 0, 53, 49
1, 71108, Note_on_c, 0, 63, 50
1, 71108, Note_on_c, 0, 61, 50
1, 71128, Control_c, 0, 64, 127
1, 71192, Note_off_c, 0, 72, 64
1, 71240, Note_off_c, 0, 53, 64
1, 71256, Note_off_c, 0, 63, 64
1, 71256, Note_off_c, 0, 61, 64
1, 71336, Note_on_c, 0, 70, 76
1, 71340, Note_on_c, 0, 63, 50
1, 71344, Note_on_c, 0, 61, 50
1, 71344, Note_on_c, 0, 55, 44
1, 71424, Control_c, 0, 64, 0
1, 71488, Note_off_c, 0, 63, 64
1, 71492, Note_off_c, 0, 61, 64
1, 71500, Note_off_c, 0, 55, 64
1, 71556, Note_on_c, 0, 53, 49
1, 71568, Note_on_c, 0, 63, 54
1, 71576, Note_on_c, 0, 61, 50
1, 71604, Control_c, 0, 64, 127
1, 71628, Note_off_c, 0, 63, 64
1, 71652, Note_on_c, 0, 63, 81
1, 71708, Note_off_c, 0, 63, 64
1, 71712, Note_off_c, 0, 53, 64
1, 71712, Control_c, 0, 64, 0
1, 71724, Note_off_c, 0, 61, 64
1, 71736, Note_on_c, 0, 55, 47
1, 71740, Note_on_c, 0, 63, 76
1, 71752, Note_on_c, 0, 61, 50
1, 71792, Control_c, 0, 64, 127
1, 71888, Note_off_c, 0, 55, 64
1, 71896, Note_off_c, 0, 70, 64
1, 71896, Note_off_c, 0, 63, 64
1, 71904, Note_off_c, 0, 61, 64
1, 71980, Note_on_c, 0, 63, 50
1, 71992, Note_on_c, 0, 51, 49
1, 72000, Note_on_c, 0, 72, 76
1, 72128, Note_off_c, 0, 63, 64
1, 72160, Note_off_c, 0, 51, 64
1, 72176, Control_c, 0, 64, 0
1, 72228, Note_off_c, 0, 72, 64
1, 72236, Note_on_c, 0, 60, 35
1, 72244, Note_on_c, 0, 56, 45
1, 72248, Note_on_c, 0, 68, 79
1, 72288, Control_c, 0, 64, 127
1, 72388, Note_off_c, 0, 60, 64
1, 72400, Note_off_c, 0, 56, 64
1, 72504, Note_on_c, 0, 58, 30
1, 72504, Note_on_c, 0, 56, 39
1, 72504, Note_on_c, 0, 49, 47
1, 72512, Note_on_c, 0, 77, 73
1, 72524, Note_off_c, 0, 68, 64
1, 72656, Note_off_c, 0, 58, 64
1, 72656, Note_off_c, 0, 56, 64
1, 72656, Note_off_c, 0, 49, 64
1, 72724, Control_c, 0, 64, 0
1, 72816, Note_on_c, 0, 55, 42
1, 72824, Note_on_c, 0, 51, 19
1, 72824, Note_on_c, 0, 70, 70
1, 72828, Note_on_c, 0, 61, 36
1, 72868, Control_c, 0, 64, 127
1, 72872, Note_off_c, 0, 77, 64
1, 72968, Note_off_c, 0, 55, 64
1, 72976, Note_off_c, 0, 51, 64
1, 72984, Note_off_c, 0, 61, 64
1, 73056, Note_off_c, 0, 70, 64
1, 73096, Note_on_c, 0, 39, 81
1, 73316, Note_on_c, 0, 72, 79
1, 73480, Note_on_c, 0, 75, 69
1, 73520, Note_off_c, 0, 72, 64
1, 73632, Note_on_c, 0, 73, 73
1, 73656, Note_off_c, 0, 75, 64
1, 73660, Note_off_c, 0, 39, 64
1, 73688, Control_c, 0, 64, 0
1, 73708, Note_on_c, 0, 63, 37
1, 73708, Note_on_c, 0, 51, 46
1, 73808, Control_c, 0, 64, 127
1, 73832, Note_on_c, 0, 72, 79
1, 73888, Note_off_c, 0, 73, 64
1, 73952, Note_off_c, 0, 51, 64
1, 73952, Note_off_c, 0, 63, 64
1, 74016, Note_on_c, 0, 63, 53
1, 74016, Note_on_c, 0, 61, 50
1, 74016, Note_on_c, 0, 55, 49
1, 74028, Note_on_c, 0, 70, 69
1, 74064, Note_off_c, 0, 72, 64
1, 74260, Note_off_c, 0, 63, 64
1, 74260, Note_off_c, 0, 61, 64
1, 74260, Note_off_c, 0, 55, 64
1, 74284, Note_on_c, 0, 51, 47
1, 74288, Note_on_c, 0, 63, 50
1, 74348, Note_off_c, 0, 70, 64
1, 74372, Note_on_c, 0, 72, 64
1, 74436, Note_off_c, 0, 51, 64
1, 74436, Note_off_c, 0, 63, 64
1, 74476, Control_c, 0, 64, 0
1, 74512, Note_on_c, 0, 68, 59
1, 74512, Note_on_c, 0, 44, 62
1, 74580, Control_c, 0, 64, 127
1, 74592, Note_off_c, 0, 72, 64
1, 74800, Note_on_c, 0, 51, 40
1, 74808, Note_on_c, 0, 60, 50
1, 74816, Note_on_c, 0, 63, 30
1, 74956, Note_off_c, 0, 60, 64
1, 74968, Note_off_c, 0, 63, 64
1, 75040, Note_on_c, 0, 60, 50
1, 75040, Note_on_c, 0, 63, 46
1, 75044, Note_on_c, 0, 53, 40
1, 75048, Note_off_c, 0, 51, 64
1, 75188, Note_off_c, 0, 60, 64
1, 75192, Note_off_c, 0, 63, 64
1, 75260, Note_on_c, 0, 60, 50
1, 75260, Note_on_c, 0, 55, 49
1, 75264, Note_on_c, 0, 63, 38
1, 75276, Note_off_c, 0, 53, 64
1, 75280, Control_c, 0, 64, 0
1, 75408, Note_off_c, 0, 60, 64
1, 75416, Note_off_c, 0, 63, 64
1, 75436, Note_off_c, 0, 44, 64
1, 75492, Control_c, 0, 64, 127
1, 75508, Note_off_c, 0, 55, 64
1, 75516, Note_on_c, 0, 60, 50
1, 75516, Note_on_c, 0, 56, 50
1, 75520, Note_on_c, 0, 63, 39
1, 75664, Note_off_c, 0, 60, 64
1, 75664, Note_off_c, 0, 56, 64
1, 75672, Note_off_c, 0, 63, 64
1, 75748, Note_off_c, 0, 68, 64
1, 75856, Note_on_c, 0, 54, 46
1, 75860, Note_on_c, 0, 58, 48
1, 75872, Note_on_c, 0, 42, 70
1, 76116, Note_off_c, 0, 54, 64
1, 76116, Note_off_c, 0, 58, 64
1, 76128, Note_off_c, 0, 42, 64
1, 76140, Note_on_c, 0, 57, 56
1, 76140, Note_on_c, 0, 53, 36
1, 76140, Note_on_c, 0, 41, 57
1, 76184, Control_c, 0, 64, 0
1, 76276, Control_c, 0, 64, 127
1, 76292, Note_on_c, 0, 72, 73
1, 76356, Note_off_c, 0, 53, 64
1, 76384, Note_off_c, 0, 57, 64
1, 76664, Note_on_c, 0, 55, 47
1, 76680, Note_on_c, 0, 63, 47
1, 76684, Note_on_c, 0, 65, 39
1, 76740, Note_off_c, 0, 41, 64
1, 76804, Control_c, 0, 64, 0
1, 76820, Note_off_c, 0, 55, 64
1, 76828, Note_off_c, 0, 63, 64
1, 76840, Note_off_c, 0, 65, 64
1, 76888, Control_c, 0, 64, 127
1, 76896, Note_on_c, 0, 63, 44
1, 76912, Note_on_c, 0, 65, 44
1, 76912, Note_on_c, 0, 57, 44
1, 77040, Note_off_c, 0, 63, 64
1, 77064, Note_off_c, 0, 57, 64
1, 77068, Note_off_c, 0, 65, 64
1, 77136, Note_on_c, 0, 53, 51
1, 77152, Note_on_c, 0, 65, 34
1, 77292, Note_off_c, 0, 53, 64
1, 77304, Note_off_c, 0, 65, 64
1, 77356, Control_c, 0, 64, 0
1, 77368, Note_on_c, 0, 65, 44
1, 77368, Note_on_c, 0, 73, 66
1, 77368, Note_on_c, 0, 58, 47
1, 77384, Note_on_c, 0, 61, 36
1, 77432, Control_c, 0, 64, 127
1, 77444, Note_off_c, 0, 72, 64
1, 77520, Note_off_c, 0, 65, 64
1, 77540, Note_off_c, 0, 58, 64
1, 77540, Note_off_c, 0, 61, 64
1, 77604, Note_on_c, 0, 55, 45
1, 77612, Note_on_c, 0, 65, 45
1, 77808, Note_off_c, 0, 55, 64
1, 77812, Note_off_c, 0, 65, 64
1, 77828, Note_on_c, 0, 65, 34
1, 77844, Note_on_c, 0, 63, 48
1, 77852, Note_on_c, 0, 72, 68
1, 77856, Note_on_c, 0, 57, 47
1, 77872, Note_off_c, 0, 73, 64
1, 77984, Note_off_c, 0, 65, 64
1, 77996, Note_off_c, 0, 63, 64
1, 78008, Note_off_c, 0, 57, 64
1, 78092, Note_on_c, 0, 65, 59
1, 78096, Note_on_c, 0, 63, 45
1, 78096, Note_on_c, 0, 55, 34
1, 78152, Note_off_c, 0, 65, 64
1, 78164, Note_on_c, 0, 65, 73
1, 78212, Note_off_c, 0, 63, 64
1, 78236, Note_off_c, 0, 65, 64
1, 78240, Note_off_c, 0, 55, 64
1, 78252, Note_on_c, 0, 57, 30
1, 78264, Note_on_c, 0, 65, 72
1, 78264, Note_on_c, 0, 63, 41
1, 78404, Note_off_c, 0, 57, 64
1, 78416, Note_off_c, 0, 63, 64
1, 78416, Note_off_c, 0, 65, 64
1, 78424, Control_c, 0, 64, 0
1, 78532, Note_on_c, 0, 73, 68
1, 78532, Note_on_c, 0, 65, 48
1, 78532, Note_on_c, 0, 63, 17
1, 78532, Note_on_c, 0, 53, 51
1, 78536, Note_off_c, 0, 72, 64
1, 78544, Control_c, 0, 64, 127
1, 78688, Note_off_c, 0, 65, 64
1, 78688, Note_off_c, 0, 63, 64
1, 78688, Note_off_c, 0, 53, 64
1, 78776, Note_on_c, 0, 58, 45
1, 78784, Note_on_c, 0, 70, 70
1, 78784, Note_on_c, 0, 61, 37
1, 78796, Note_off_c, 0, 73, 64
1, 79024, Note_off_c, 0, 58, 64
1, 79044, Note_on_c, 0, 51, 34
1, 79052, Note_on_c, 0, 60, 22
1, 79064, Note_on_c, 0, 78, 73
1, 79064, Note_on_c, 0, 58, 30
1, 79084, Note_off_c, 0, 70, 64
1, 79084, Note_off_c, 0, 61, 64
1, 79244, Control_c, 0, 64, 0
1, 79252, Note_off_c, 0, 51, 64
1, 79260, Note_off_c, 0, 60, 64
1, 79268, Note_off_c, 0, 58, 64
1, 79392, Note_on_c, 0, 57, 37
1, 79400, Control_c, 0, 64, 127
1, 79404, Note_on_c, 0, 63, 34
1, 79404, Note_on_c, 0, 53, 43
1, 79424, Note_on_c, 0, 72, 67
1, 79496, Note_off_c, 0, 78, 64
1, 79584, Note_off_c, 0, 57, 64
1, 79596, Note_off_c, 0, 63, 64
1, 79596, Note_off_c, 0, 53, 64
1, 79764, Note_on_c, 0, 41, 62
1, 79952, Note_on_c, 0, 73, 67
1, 80028, Note_off_c, 0, 72, 64
1, 80124, Note_on_c, 0, 77, 63
1, 80172, Note_off_c, 0, 73, 64
1, 80204, Note_off_c, 0, 41, 64
1, 80248, Note_on_c, 0, 75, 60
1, 80292, Note_off_c, 0, 77, 64
1, 80300, Note_on_c, 0, 65, 57
1, 80312, Note_on_c, 0, 53, 62
1, 80364, Note_on_c, 0, 73, 73
1, 80452, Note_off_c, 0, 65, 64
1, 80464, Note_off_c, 0, 75, 64
1, 80464, Note_off_c, 0, 53, 64
1, 80528, Note_on_c, 0, 65, 64
1, 80528, Note_on_c, 0, 63, 62
1, 80536, Note_on_c, 0, 57, 60
1, 80548, Note_on_c, 0, 72, 73
1, 80592, Note_off_c, 0, 73, 64
1, 80724, Control_c, 0, 64, 0
1, 80744, Note_off_c, 0, 65, 64
1, 80744, Note_off_c, 0, 63, 64
1, 80748, Note_off_c, 0, 57, 64
1, 80804, Control_c, 0, 64, 127
1, 80828, Note_on_c, 0, 65, 62
1, 80828, Note_on_c, 0, 53, 62
1, 80964, Note_off_c, 0, 72, 64
1, 80972, Note_on_c, 0, 73, 57
1, 80976, Note_off_c, 0, 65, 64
1, 80976, Note_off_c, 0, 53, 64
1, 81152, Note_on_c, 0, 70, 69
1, 81156, Note_on_c, 0, 46, 63
1, 81176, Note_off_c, 0, 73, 64
1, 81488, Note_on_c, 0, 58, 67
1, 81496, Note_on_c, 0, 61, 62
1, 81496, Note_on_c, 0, 53, 59
1, 81600, Note_off_c, 0, 58, 64
1, 81616, Note_off_c, 0, 53, 64
1, 81644, Note_off_c, 0, 61, 64
1, 81744, Note_on_c, 0, 58, 51
1, 81748, Note_on_c, 0, 61, 63
1, 81752, Note_on_c, 0, 82, 81
1, 81756, Note_off_c, 0, 46, 64
1, 81760, Note_on_c, 0, 65, 61
1, 81772, Note_off_c, 0, 70, 64
1, 81852, Note_off_c, 0, 58, 64
1, 81856, Note_off_c, 0, 61, 64
1, 81868, Note_off_c, 0, 65, 64
1, 82016, Note_on_c, 0, 70, 59
1, 82016, Note_on_c, 0, 61, 62
1, 82020, Note_on_c, 0, 65, 57
1, 82120, Note_off_c, 0, 70, 64
1, 82120, Note_off_c, 0, 61, 64
1, 82128, Note_off_c, 0, 65, 64
1, 82296, Note_on_c, 0, 73, 63
1, 82296, Note_on_c, 0, 65, 66
1, 82308, Note_on_c, 0, 70, 72
1, 82500, Note_off_c, 0, 82, 64
1, 82736, Note_off_c, 0, 65, 64
1, 82744, Note_on_c, 0, 80, 68
1, 82748, Note_off_c, 0, 70, 64
1, 82752, Note_off_c, 0, 73, 64
1, 82808, Control_c, 0, 64, 0
1, 82824, Note_off_c, 0, 80, 64
1, 82872, Note_on_c, 0, 75, 72
1, 82872, Note_on_c, 0, 72, 73
1, 82888, Note_on_c, 0, 80, 67
1, 82908, Note_on_c, 0, 39, 76
1, 82948, Control_c, 0, 64, 127
1, 83244, Note_on_c, 0, 70, 63
1, 83248, Note_off_c, 0, 72, 64
1, 83248, Note_off_c, 0, 75, 64
1, 83248, Note_on_c, 0, 63, 59
1, 83256, Note_on_c, 0, 73, 62
1, 83256, Note_on_c, 0, 79, 67
1, 83264, Note_off_c, 0, 80, 64
1, 83264, Note_on_c, 0, 51, 59
1, 83456, Note_off_c, 0, 63, 64
1, 83472, Note_off_c, 0, 51, 64
1, 83512, Note_off_c, 0, 79, 64
1, 83516, Note_off_c, 0, 70, 64
1, 83524, Note_on_c, 0, 73, 64
1, 83524, Note_on_c, 0, 72, 67
1, 83528, Note_off_c, 0, 73, 64
1, 83536, Note_on_c, 0, 79, 63
1, 83536, Note_on_c, 0, 67, 62
1, 83536, Note_on_c, 0, 61, 32
1, 83540, Note_on_c, 0, 84, 79
1, 83776, Note_off_c, 0, 79, 64
1, 83784, Note_off_c, 0, 61, 64
1, 83792, Note_off_c, 0, 73, 64
1, 83792, Note_off_c, 0, 72, 64
1, 83808, Note_off_c, 0, 67, 64
1, 83808, Note_off_c, 0, 84, 64
1, 83808, Note_on_c, 0, 82, 67
1, 83808, Note_on_c, 0, 79, 51
1, 83808, Note_on_c, 0, 73, 57
1, 83808, Note_on_c, 0, 70, 57
1, 83808, Note_on_c, 0, 61, 62
1, 83880, Note_off_c, 0, 39, 64
1, 84080, Control_c, 0, 64, 0
1, 84100, Note_on_c, 0, 53, 68
1, 84108, Note_on_c, 0, 41, 63
1, 84108, Note_on_c, 0, 80, 70
1, 84112, Note_off_c, 0, 82, 64
1, 84112, Note_off_c, 0, 79, 64
1, 84112, Note_off_c, 0, 73, 64
1, 84112, Note_off_c, 0, 70, 64
1, 84112, Note_off_c, 0, 61, 64
1, 84164, Control_c, 0, 64, 127
1, 84388, Note_off_c, 0, 80, 64
1, 84396, Note_on_c, 0, 61, 62
1, 84396, Note_on_c, 0, 56, 57
1, 84396, Note_on_c, 0, 68, 62
1, 84404, Note_on_c, 0, 73, 62
1, 84404, Note_on_c, 0, 65, 46
1, 84544, Note_on_c, 0, 77, 59
1, 84612, Note_off_c, 0, 56, 64
1, 84612, Note_off_c, 0, 61, 64
1, 84616, Note_off_c, 0, 68, 64
1, 84620, Note_off_c, 0, 73, 64
1, 84624, Note_off_c, 0, 65, 64
1, 84636, Note_off_c, 0, 77, 64
1, 84692, Note_off_c, 0, 53, 64
1, 84696, Note_off_c, 0, 41, 64
1, 84716, Note_on_c, 0, 77, 68
1, 84716, Note_on_c, 0, 72, 62
1, 84716, Note_on_c, 0, 36, 73
1, 84728, Note_on_c, 0, 68, 62
1, 84728, Note_on_c, 0, 48, 73
1, 84984, Note_off_c, 0, 77, 64
1, 84984, Note_off_c, 0, 72, 64
1, 84992, Note_on_c, 0, 75, 66
1, 84996, Note_off_c, 0, 68, 64
1, 84996, Note_on_c, 0, 72, 66
1, 84996, Note_on_c, 0, 63, 52
1, 84996, Note_on_c, 0, 60, 62
1, 84996, Note_on_c, 0, 55, 41
1, 85008, Note_on_c, 0, 67, 62
1, 85208, Note_off_c, 0, 72, 64
1, 85208, Note_off_c, 0, 60, 64
1, 85212, Note_off_c, 0, 63, 64
1, 85224, Note_off_c, 0, 75, 64
1, 85228, Note_off_c, 0, 55, 64
1, 85228, Note_on_c, 0, 72, 62
1, 85228, Note_on_c, 0, 60, 25
1, 85232, Note_on_c, 0, 80, 66
1, 85236, Note_off_c, 0, 67, 64
1, 85236, Note_on_c, 0, 75, 67
1, 85236, Note_on_c, 0, 63, 53
1, 85240, Note_on_c, 0, 68, 68
1, 85432, Note_off_c, 0, 60, 64
1, 85448, Note_off_c, 0, 63, 64
1, 85456, Note_off_c, 0, 72, 64
1, 85460, Note_on_c, 0, 67, 62
1, 85464, Note_on_c, 0, 63, 62
1, 85472, Note_off_c, 0, 75, 64
1, 85472, Note_on_c, 0, 60, 51
1, 85480, Note_on_c, 0, 79, 69
1, 85488, Note_off_c, 0, 80, 64
1, 85488, Note_on_c, 0, 75, 63
1, 85488, Note_on_c, 0, 72, 63
1, 85496, Note_off_c, 0, 68, 64
1, 85692, Note_off_c, 0, 36, 64
1, 85704, Note_off_c, 0, 48, 64
1, 85748, Note_off_c, 0, 67, 64
1, 85756, Note_off_c, 0, 63, 64
1, 85756, Control_c, 0, 64, 0
1, 85760, Note_off_c, 0, 60, 64
1, 85768, Note_off_c, 0, 79, 64
1, 85776, Note_on_c, 0, 77, 67
1, 85780, Note_off_c, 0, 75, 64
1, 85780, Note_off_c, 0, 72, 64
1, 85780, Note_on_c, 0, 37, 71
1, 85788, Note_on_c, 0, 49, 71
1, 85852, Control_c, 0, 64, 127
1, 86064, Note_on_c, 0, 61, 62
1, 86064, Note_on_c, 0, 56, 39
1, 86068, Note_off_c, 0, 77, 64
1, 86072, Note_on_c, 0, 65, 51
1, 86080, Note_on_c, 0, 68, 58
1, 86212, Note_on_c, 0, 73, 62
1, 86256, Note_off_c, 0, 61, 64
1, 86256, Note_off_c, 0, 56, 64
1, 86260, Note_off_c, 0, 68, 64
1, 86264, Note_off_c, 0, 65, 64
1, 86284, Note_off_c, 0, 73, 64
1, 86300, Note_off_c, 0, 37, 64
1, 86308, Note_off_c, 0, 49, 64
1, 86316, Control_c, 0, 64, 0
1, 86332, Note_on_c, 0, 44, 52
1, 86340, Note_on_c, 0, 73, 73
1, 86340, Note_on_c, 0, 32, 74
1, 86348, Note_on_c, 0, 68, 72
1, 86348, Note_on_c, 0, 65, 57
1, 86376, Control_c, 0, 64, 127
1, 86608, Note_on_c, 0, 63, 51
1, 86608, Note_on_c, 0, 60, 31
1, 86608, Note_on_c, 0, 51, 62
1, 86612, Note_off_c, 0, 68, 64
1, 86616, Note_on_c, 0, 56, 62
1, 86624, Note_on_c, 0, 68, 61
1, 86628, Note_on_c, 0, 72, 66
1, 86664, Note_off_c, 0, 73, 64
1, 86672, Note_off_c, 0, 65, 64
1, 86852, Note_off_c, 0, 44, 64
1, 86860, Note_off_c, 0, 32, 64
1, 86904, Note_on_c, 0, 41, 68
1, 87020, Note_off_c, 0, 63, 64
1, 87020, Note_off_c, 0, 60, 64
1, 87020, Note_off_c, 0, 51, 64
1, 87024, Note_off_c, 0, 56, 64
1, 87036, Note_off_c, 0, 72, 64
1, 87056, Note_off_c, 0, 68, 64
1, 87172, Note_on_c, 0, 53, 60
1, 87180, Note_on_c, 0, 62, 29
1, 87276, Note_on_c, 0, 68, 66
1, 87276, Note_on_c, 0, 72, 62
1, 87328, Note_off_c, 0, 53, 64
1, 87332, Note_off_c, 0, 62, 64
1, 87340, Note_off_c, 0, 72, 64
1, 87344, Control_c, 0, 64, 0
1, 87376, Note_off_c, 0, 41, 64
1, 87384, Note_off_c, 0, 68, 64
1, 87388, Note_on_c, 0, 72, 67
1, 87400, Note_on_c, 0, 43, 77
1, 87428, Control_c, 0, 64, 127
1, 87620, Note_on_c, 0, 67, 58
1, 87620, Note_on_c, 0, 65, 48
1, 87628, Note_on_c, 0, 71, 67
1, 87632, Note_on_c, 0, 62, 38
1, 87632, Note_on_c, 0, 55, 36
1, 87692, Note_off_c, 0, 72, 64
1, 87852, Note_off_c, 0, 67, 64
1, 87852, Note_off_c, 0, 65, 64
1, 87864, Note_off_c, 0, 62, 64
1, 87864, Note_off_c, 0, 55, 64
1, 87872, Note_on_c, 0, 72, 62
1, 87876, Note_on_c, 0, 65, 56
1, 87876, Note_on_c, 0, 57, 32
1, 87876, Note_on_c, 0, 55, 45
1, 87888, Note_on_c, 0, 67, 46
1, 87944, Note_off_c, 0, 71, 64
1, 88092, Note_off_c, 0, 57, 64
1, 88092, Note_off_c, 0, 55, 64
1, 88104, Note_off_c, 0, 67, 64
1, 88108, Note_off_c, 0, 65, 64
1, 88112, Note_on_c, 0, 55, 21
1, 88112, Note_on_c, 0, 74, 62
1, 88120, Note_on_c, 0, 67, 57
1, 88120, Note_on_c, 0, 65, 46
1, 88136, Note_on_c, 0, 59, 57
1, 88148, Note_off_c, 0, 72, 64
1, 88304, Note_off_c, 0, 43, 64
1, 88320, Control_c, 0, 64, 0
1, 88352, Note_on_c, 0, 48, 61
1, 88404, Control_c, 0, 64, 127
1, 88464, Note_off_c, 0, 55, 64
1, 88468, Note_off_c, 0, 74, 64
1, 88476, Note_off_c, 0, 67, 64
1, 88476, Note_off_c, 0, 65, 64
1, 88492, Note_off_c, 0, 59, 64
1, 88584, Note_on_c, 0, 56, 56
1, 88600, Note_on_c, 0, 65, 39
1, 88696, Note_on_c, 0, 71, 62
1, 88708, Note_on_c, 0, 68, 53
1, 88716, Note_on_c, 0, 77, 67
1, 88772, Note_off_c, 0, 71, 64
1, 88784, Note_off_c, 0, 68, 64
1, 88792, Note_off_c, 0, 77, 64
1, 88796, Note_off_c, 0, 56, 64
1, 88812, Note_off_c, 0, 65, 64
1, 88824, Note_off_c, 0, 48, 64
1, 88824, Note_on_c, 0, 77, 67
1, 88832, Note_on_c, 0, 71, 60
1, 88832, Note_on_c, 0, 68, 63
1, 88836, Note_on_c, 0, 36, 74
1, 89044, Note_off_c, 0, 71, 64
1, 89044, Note_off_c, 0, 68, 64
1, 89104, Note_on_c, 0, 75, 67
1, 89104, Note_on_c, 0, 67, 32
1, 89104, Note_on_c, 0, 63, 62
1, 89112, Note_on_c, 0, 72, 56
1, 89112, Note_on_c, 0, 55, 60
1, 89128, Note_off_c, 0, 77, 64
1, 89320, Note_off_c, 0, 75, 64
1, 89320, Note_off_c, 0, 67, 64
1, 89320, Note_off_c, 0, 63, 64
1, 89328, Note_off_c, 0, 72, 64
1, 89328, Note_off_c, 0, 55, 64
1, 89428, Note_off_c, 0, 36, 64
1, 89464, Note_on_c, 0, 72, 62
1, 89464, Note_on_c, 0, 69, 66
1, 89464, Note_on_c, 0, 66, 55
1, 89472, Note_on_c, 0, 75, 67
1, 89480, Note_on_c, 0, 37, 76
1, 89780, Note_on_c, 0, 73, 67
1, 89784, Note_on_c, 0, 70, 62
1, 89784, Note_on_c, 0, 61, 62
1, 89784, Note_on_c, 0, 58, 59
1, 89784, Note_on_c, 0, 65, 63
1, 89788, Note_off_c, 0, 72, 64
1, 89788, Note_off_c, 0, 69, 64
1, 89788, Note_off_c, 0, 66, 64
1, 89796, Note_off_c, 0, 75, 64
1, 90016, Note_off_c, 0, 61, 64
1, 90016, Note_off_c, 0, 58, 64
1, 90028, Note_on_c, 0, 79, 63
1, 90040, Note_on_c, 0, 58, 56
1, 90044, Note_off_c, 0, 73, 64
1, 90044, Note_on_c, 0, 67, 51
1, 90048, Note_off_c, 0, 70, 64
1, 90052, Note_off_c, 0, 65, 64
1, 90052, Note_on_c, 0, 61, 34
1, 90272, Note_off_c, 0, 58, 64
1, 90280, Note_off_c, 0, 79, 64
1, 90280, Note_on_c, 0, 68, 63
1, 90284, Note_off_c, 0, 61, 64
1, 90288, Note_on_c, 0, 77, 67
1, 90296, Note_off_c, 0, 67, 64
1, 90296, Note_on_c, 0, 61, 62
1, 90308, Note_on_c, 0, 58, 61
1, 90456, Note_off_c, 0, 37, 64
1, 90512, Control_c, 0, 64, 0
1, 90540, Note_on_c, 0, 39, 64
1, 90548, Note_off_c, 0, 68, 64
1, 90556, Note_off_c, 0, 77, 64
1, 90556, Note_on_c, 0, 75, 66
1, 90564, Note_off_c, 0, 61, 64
1, 90576, Note_off_c, 0, 58, 64
1, 90604, Control_c, 0, 64, 127
1, 90816, Note_on_c, 0, 60, 50
1, 90820, Note_on_c, 0, 67, 56
1, 90820, Note_on_c, 0, 63, 59
1, 90824, Note_on_c, 0, 72, 67
1, 90824, Note_on_c, 0, 55, 62
1, 90828, Note_off_c, 0, 75, 64
1, 91012, Note_off_c, 0, 39, 64
1, 91096, Control_c, 0, 64, 0
1, 91112, Note_off_c, 0, 60, 64
1, 91116, Note_off_c, 0, 67, 64
1, 91116, Note_off_c, 0, 63, 64
1, 91116, Note_on_c, 0, 41, 73
1, 91120, Note_off_c, 0, 72, 64
1, 91120, Note_off_c, 0, 55, 64
1, 91132, Note_on_c, 0, 68, 59
1, 91172, Control_c, 0, 64, 127
1, 91396, Note_on_c, 0, 56, 32
1, 91396, Note_on_c, 0, 53, 41
1, 91400, Note_on_c, 0, 60, 39
1, 91588, Note_off_c, 0, 41, 64
1, 91684, Note_on_c, 0, 61, 52
1, 91688, Note_on_c, 0, 40, 68
1, 91700, Note_off_c, 0, 56, 64
1, 91700, Note_off_c, 0, 53, 64
1, 91720, Note_off_c, 0, 60, 64
1, 91960, Note_on_c, 0, 52, 47
1, 91972, Note_on_c, 0, 59, 47
1, 91972, Note_on_c, 0, 56, 48
1, 91984, Note_on_c, 0, 62, 53
1, 91988, Note_off_c, 0, 61, 64
1, 92032, Note_off_c, 0, 68, 64
1, 92080, Note_on_c, 0, 68, 72
1, 92160, Note_off_c, 0, 40, 64
1, 92232, Note_off_c, 0, 68, 64
1, 92256, Note_off_c, 0, 52, 64
1, 92256, Note_off_c, 0, 56, 64
1, 92256, Note_off_c, 0, 59, 64
1, 92256, Note_off_c, 0, 62, 64
1, 92272, Note_on_c, 0, 70, 66
1, 92276, Note_on_c, 0, 58, 73
1, 92280, Note_on_c, 0, 68, 62
1, 92280, Note_on_c, 0, 63, 62
1, 92288, Note_on_c, 0, 39, 64
1, 92408, Note_on_c, 0, 72, 68
1, 92420, Note_on_c, 0, 60, 67
1, 92440, Note_off_c, 0, 70, 64
1, 92444, Note_off_c, 0, 58, 64
1, 92448, Note_off_c, 0, 68, 64
1, 92448, Note_off_c, 0, 63, 64
1, 92528, Note_on_c, 0, 51, 28
1, 92536, Note_on_c, 0, 58, 62
1, 92648, Note_off_c, 0, 72, 64
1, 92656, Note_off_c, 0, 60, 64
1, 92684, Note_off_c, 0, 51, 64
1, 92684, Note_off_c, 0, 58, 64
1, 92696, Note_on_c, 0, 67, 62
1, 92696, Note_on_c, 0, 61, 56
1, 92700, Note_on_c, 0, 73, 68
1, 92760, Note_off_c, 0, 39, 64
1, 92768, Note_off_c, 0, 67, 64
1, 92780, Note_off_c, 0, 61, 64
1, 92784, Note_off_c, 0, 73, 64
1, 92820, Control_c, 0, 64, 0
1, 92840, Note_on_c, 0, 34, 62
1, 92844, Note_on_c, 0, 46, 78
1, 92848, Note_on_c, 0, 73, 73
1, 92852, Note_on_c, 0, 61, 72
1, 92908, Control_c, 0, 64, 127
1, 93144, Note_on_c, 0, 65, 34
1, 93152, Note_on_c, 0, 67, 31
1, 93228, Note_on_c, 0, 33, 76
1, 93252, Note_on_c, 0, 45, 72
1, 93312, Note_off_c, 0, 34, 64
1, 93312, Note_off_c, 0, 46, 64
1, 93336, Note_off_c, 0, 65, 64
1, 93344, Note_off_c, 0, 67, 64
1, 93408, Note_on_c, 0, 34, 77
1, 93420, Note_on_c, 0, 65, 62
1, 93420, Note_on_c, 0, 46, 86
1, 93432, Note_on_c, 0, 67, 65
1, 93444, Note_off_c, 0, 33, 64
1, 93468, Note_off_c, 0, 45, 64
1, 93560, Note_on_c, 0, 49, 79
1, 93560, Note_on_c, 0, 37, 47
1, 93612, Note_off_c, 0, 65, 64
1, 93624, Note_off_c, 0, 34, 64
1, 93624, Note_off_c, 0, 67, 64
1, 93636, Note_off_c, 0, 46, 64
1, 93712, Note_on_c, 0, 68, 70
1, 93712, Note_on_c, 0, 65, 67
1, 93764, Note_on_c, 0, 60, 63
1, 93764, Note_on_c, 0, 48, 72
1, 93776, Note_off_c, 0, 37, 64
1, 93776, Note_off_c, 0, 49, 64
1, 93904, Note_off_c, 0, 68, 64
1, 93904, Note_off_c, 0, 65, 64
1, 93956, Note_off_c, 0, 60, 64
1, 93956, Note_off_c, 0, 48, 64
1, 93964, Note_on_c, 0, 58, 85
1, 93968, Note_on_c, 0, 68, 70
1, 93968, Note_on_c, 0, 65, 70
1, 93976, Note_on_c, 0, 46, 80
1, 94160, Note_off_c, 0, 68, 64
1, 94160, Note_off_c, 0, 65, 64
1, 94176, Note_off_c, 0, 61, 64
1, 94176, Note_off_c, 0, 73, 64
1, 94264, Note_on_c, 0, 67, 70
1, 94264, Note_on_c, 0, 65, 70
1, 94372, Note_off_c, 0, 58, 64
1, 94384, Note_off_c, 0, 46, 64
1, 94444, Note_on_c, 0, 58, 73
1, 94456, Note_off_c, 0, 67, 64
1, 94456, Note_off_c, 0, 65, 64
1, 94456, Note_on_c, 0, 70, 73
1, 94564, Note_on_c, 0, 77, 84
1, 94564, Note_on_c, 0, 65, 74
1, 94572, Note_on_c, 0, 49, 69
1, 94572, Note_on_c, 0, 37, 76
1, 94584, Note_off_c, 0, 58, 64
1, 94596, Note_off_c, 0, 70, 64
1, 94800, Note_on_c, 0, 70, 70
1, 94800, Note_on_c, 0, 67, 68
1, 94936, Note_on_c, 0, 48, 49
1, 94960, Note_on_c, 0, 36, 49
1, 94992, Note_off_c, 0, 70, 64
1, 94992, Note_off_c, 0, 67, 64
1, 95004, Note_off_c, 0, 49, 64
1, 95004, Note_off_c, 0, 37, 64
1, 95116, Note_on_c, 0, 70, 66
1, 95116, Note_on_c, 0, 49, 59
1, 95116, Note_on_c, 0, 37, 59
1, 95128, Note_on_c, 0, 67, 85
1, 95152, Note_off_c, 0, 48, 64
1, 95176, Note_off_c, 0, 36, 64
1, 95256, Note_on_c, 0, 55, 57
1, 95256, Note_on_c, 0, 43, 57
1, 95308, Note_off_c, 0, 70, 64
1, 95320, Note_off_c, 0, 67, 64
1, 95360, Note_on_c, 0, 72, 72
1, 95360, Note_on_c, 0, 67, 72
1, 95364, Note_off_c, 0, 37, 64
1, 95368, Note_off_c, 0, 49, 64
1, 95428, Note_on_c, 0, 51, 62
1, 95436, Note_on_c, 0, 63, 62
1, 95464, Note_off_c, 0, 55, 64
1, 95464, Note_off_c, 0, 43, 64
1, 95552, Note_off_c, 0, 72, 64
1, 95552, Note_off_c, 0, 67, 64
1, 95628, Note_on_c, 0, 72, 68
1, 95628, Note_on_c, 0, 67, 72
1, 95628, Note_on_c, 0, 61, 72
1, 95640, Note_on_c, 0, 49, 68
1, 95640, Control_c, 0, 64, 0
1, 95676, Note_off_c, 0, 51, 64
1, 95684, Note_off_c, 0, 63, 64
1, 95732, Control_c, 0, 64, 127
1, 95808, Note_off_c, 0, 65, 64
1, 95808, Note_off_c, 0, 77, 64
1, 95820, Note_off_c, 0, 72, 64
1, 95820, Note_off_c, 0, 67, 64
1, 95884, Note_on_c, 0, 70, 80
1, 95884, Note_on_c, 0, 67, 66
1, 96000, Note_off_c, 0, 61, 64
1, 96000, Note_off_c, 0, 49, 64
1, 96056, Note_on_c, 0, 64, 76
1, 96064, Note_on_c, 0, 76, 73
1, 96076, Note_off_c, 0, 70, 64
1, 96076, Note_off_c, 0, 67, 64
1, 96132, Note_off_c, 0, 64, 64
1, 96140, Note_off_c, 0, 76, 64
1, 96192, Note_on_c, 0, 25, 80
1, 96196, Note_on_c, 0, 76, 82
1, 96204, Note_on_c, 0, 64, 73
1, 96204, Note_on_c, 0, 37, 72
1, 96448, Note_on_c, 0, 70, 62
1, 96448, Note_on_c, 0, 67, 44
1, 96652, Note_on_c, 0, 36, 47
1, 96652, Note_on_c, 0, 24, 52
1, 96696, Note_off_c, 0, 25, 64
1, 96708, Note_off_c, 0, 37, 64
1, 96712, Note_off_c, 0, 70, 64
1, 96712, Note_off_c, 0, 67, 64
1, 96716, Note_off_c, 0, 36, 64
1, 96728, Note_off_c, 0, 24, 64
1, 96740, Note_on_c, 0, 70, 75
1, 96752, Note_on_c, 0, 67, 70
1, 96752, Note_on_c, 0, 36, 83
1, 96752, Note_on_c, 0, 24, 79
1, 97008, Note_off_c, 0, 76, 64
1, 97016, Note_off_c, 0, 64, 64
1, 97124, Note_off_c, 0, 70, 64
1, 97136, Note_off_c, 0, 67, 64
1, 97268, Note_on_c, 0, 80, 73
1, 97280, Note_on_c, 0, 70, 66
1, 97280, Note_on_c, 0, 68, 68
1, 97284, Note_on_c, 0, 61, 62
1, 97288, Note_on_c, 0, 58, 59
1, 97320, Note_off_c, 0, 70, 64
1, 97328, Note_off_c, 0, 80, 64
1, 97328, Note_off_c, 0, 68, 64
1, 97336, Note_off_c, 0, 61, 64
1, 97340, Note_off_c, 0, 58, 64
1, 97360, Note_on_c, 0, 61, 62
1, 97364, Note_on_c, 0, 80, 68
1, 97368, Note_on_c, 0, 58, 62
1, 97376, Note_on_c, 0, 70, 68
1, 97376, Note_on_c, 0, 68, 66
1, 97404, Note_off_c, 0, 24, 64
1, 97436, Note_off_c, 0, 36, 64
1, 97608, Note_off_c, 0, 61, 64
1, 97616, Note_off_c, 0, 58, 64
1, 97636, Note_on_c, 0, 79, 68
1, 97636, Note_on_c, 0, 58, 52
1, 97644, Note_off_c, 0, 80, 64
1, 97648, Note_on_c, 0, 67, 67
1, 97656, Note_off_c, 0, 70, 64
1, 97656, Note_off_c, 0, 68, 64
1, 97656, Note_on_c, 0, 61, 62
1, 97664, Note_on_c, 0, 70, 67
1, 97880, Control_c, 0, 64, 0
1, 97924, Note_off_c, 0, 79, 64
1, 97924, Note_off_c, 0, 58, 64
1, 97936, Note_off_c, 0, 67, 64
1, 97936, Note_on_c, 0, 77, 79
1, 97940, Note_on_c, 0, 65, 77
1, 97940, Note_on_c, 0, 25, 72
1, 97944, Note_off_c, 0, 61, 64
1, 97948, Note_on_c, 0, 37, 82
1, 97952, Note_off_c, 0, 70, 64
1, 97980, Control_c, 0, 64, 127
1, 98200, Note_off_c, 0, 37, 64
1, 98200, Note_on_c, 0, 70, 69
1, 98200, Note_on_c, 0, 67, 37
1, 98212, Note_off_c, 0, 25, 64
1, 98368, Note_on_c, 0, 24, 69
1, 98376, Note_on_c, 0, 36, 82
1, 98428, Note_off_c, 0, 36, 64
1, 98436, Note_off_c, 0, 24, 64
1, 98496, Note_on_c, 0, 76, 79
1, 98504, Note_off_c, 0, 67, 64
1, 98504, Note_off_c, 0, 70, 64
1, 98504, Note_on_c, 0, 64, 82
1, 98512, Note_on_c, 0, 36, 80
1, 98512, Note_on_c, 0, 24, 73
1, 98552, Note_off_c, 0, 77, 64
1, 98556, Note_off_c, 0, 65, 64
1, 98680, Note_off_c, 0, 24, 64
1, 98712, Note_off_c, 0, 36, 64
1, 98736, Note_off_c, 0, 76, 64
1, 98748, Note_off_c, 0, 64, 64
1, 98968, Note_on_c, 0, 58, 59
1, 98980, Note_on_c, 0, 61, 60
1, 98984, Note_on_c, 0, 80, 73
1, 98988, Note_on_c, 0, 70, 72
1, 99032, Note_off_c, 0, 58, 64
1, 99032, Note_off_c, 0, 70, 64
1, 99036, Note_off_c, 0, 61, 64
1, 99044, Note_off_c, 0, 80, 64
1, 99052, Control_c, 0, 64, 0
1, 99072, Note_on_c, 0, 70, 72
1, 99076, Note_on_c, 0, 80, 70
1, 99084, Note_on_c, 0, 61, 68
1, 99084, Note_on_c, 0, 58, 61
1, 99128, Control_c, 0, 64, 127
1, 99304, Note_off_c, 0, 70, 64
1, 99320, Note_off_c, 0, 61, 64
1, 99340, Note_off_c, 0, 80, 64
1, 99340, Note_off_c, 0, 58, 64
1, 99344, Note_on_c, 0, 79, 66
1, 99352, Note_on_c, 0, 67, 64
1, 99356, Note_on_c, 0, 70, 62
1, 99364, Note_on_c, 0, 58, 52
1, 99368, Note_on_c, 0, 61, 62
1, 99608, Note_on_c, 0, 37, 62
1, 99648, Note_off_c, 0, 79, 64
1, 99656, Note_off_c, 0, 67, 64
1, 99660, Note_off_c, 0, 70, 64
1, 99660, Note_on_c, 0, 49, 29
1, 99668, Note_off_c, 0, 58, 64
1, 99668, Note_on_c, 0, 77, 67
1, 99672, Note_off_c, 0, 61, 64
1, 99672, Note_on_c, 0, 65, 59
1, 99944, Note_off_c, 0, 77, 64
1, 99944, Note_on_c, 0, 58, 41
1, 99952, Note_on_c, 0, 67, 59
1, 99952, Note_on_c, 0, 70, 57
1, 99960, Note_on_c, 0, 55, 36
1, 100008, Note_off_c, 0, 65, 64
1, 100040, Note_off_c, 0, 49, 64
1, 100184, Note_on_c, 0, 76, 68
1, 100192, Note_on_c, 0, 64, 57
1, 100216, Note_off_c, 0, 70, 64
1, 100220, Note_off_c, 0, 67, 64
1, 100248, Note_off_c, 0, 55, 64
1, 100264, Note_off_c, 0, 58, 64
1, 100428, Note_on_c, 0, 55, 56
1, 100444, Note_on_c, 0, 70, 57
1, 100444, Note_on_c, 0, 58, 51
1, 100456, Note_on_c, 0, 67, 59
1, 100476, Note_off_c, 0, 76, 64
1, 100516, Note_off_c, 0, 64, 64
1, 100524, Note_off_c, 0, 37, 64
1, 100716, Note_off_c, 0, 55, 64
1, 100724, Note_on_c, 0, 75, 62
1, 100728, Note_on_c, 0, 63, 63
1, 100732, Note_off_c, 0, 58, 64
1, 100748, Note_on_c, 0, 49, 41
1, 100752, Note_off_c, 0, 70, 64
1, 100760, Note_off_c, 0, 67, 64
1, 101004, Note_on_c, 0, 58, 24
1, 101004, Note_on_c, 0, 55, 56
1, 101004, Note_on_c, 0, 70, 44
1, 101012, Note_on_c, 0, 67, 58
1, 101036, Note_off_c, 0, 75, 64
1, 101112, Note_off_c, 0, 63, 64
1, 101220, Note_off_c, 0, 49, 64
1, 101260, Note_on_c, 0, 74, 66
1, 101268, Note_on_c, 0, 50, 56
1, 101268, Note_on_c, 0, 62, 62
1, 101276, Note_off_c, 0, 67, 64
1, 101280, Note_off_c, 0, 70, 64
1, 101292, Note_off_c, 0, 58, 64
1, 101292, Note_off_c, 0, 55, 64
1, 101292, Control_c, 0, 64, 0
1, 101400, Control_c, 0, 64, 127
1, 101504, Note_on_c, 0, 58, 48
1, 101520, Note_on_c, 0, 55, 56
1, 101528, Note_on_c, 0, 67, 46
1, 101536, Note_on_c, 0, 70, 54
1, 101556, Note_off_c, 0, 74, 64
1, 101576, Note_off_c, 0, 62, 64
1, 101740, Note_off_c, 0, 50, 64
1, 101808, Note_off_c, 0, 58, 64
1, 101816, Note_on_c, 0, 61, 50
1, 101816, Note_on_c, 0, 51, 53
1, 101824, Note_on_c, 0, 73, 64
1, 101836, Note_off_c, 0, 67, 64
1, 101984, Note_off_c, 0, 55, 64
1, 102084, Note_on_c, 0, 67, 66
1, 102152, Note_off_c, 0, 70, 64
1, 102256, Note_on_c, 0, 65, 75
1, 102300, Note_off_c, 0, 73, 64
1, 102324, Note_off_c, 0, 65, 64
1, 102372, Note_on_c, 0, 73, 73
1, 102412, Note_on_c, 0, 65, 66
1, 102700, Note_on_c, 0, 63, 64
1, 102724, Note_off_c, 0, 65, 64
1, 102868, Note_off_c, 0, 67, 64
1, 102884, Note_off_c, 0, 73, 64
1, 102928, Note_on_c, 0, 72, 73
1, 102996, Note_off_c, 0, 72, 64
1, 103044, Note_on_c, 0, 72, 73
1, 103108, Note_off_c, 0, 63, 64
1, 103176, Control_c, 0, 64, 0
1, 103260, Control_c, 0, 64, 127
1, 103352, Note_off_c, 0, 61, 64
1, 103364, Note_on_c, 0, 63, 23
1, 103364, Note_on_c, 0, 53, 56
1, 103372, Note_on_c, 0, 61, 50
1, 103392, Note_off_c, 0, 51, 64
1, 103520, Note_off_c, 0, 61, 64
1, 103524, Note_off_c, 0, 63, 64
1, 103524, Note_off_c, 0, 53, 64
1, 103640, Note_on_c, 0, 61, 50
1, 103656, Note_on_c, 0, 63, 50
1, 103660, Note_on_c, 0, 55, 38
1, 103664, Note_on_c, 0, 70, 76
1, 103680, Note_off_c, 0, 72, 64
1, 103692, Control_c, 0, 64, 0
1, 103788, Note_off_c, 0, 61, 64
1, 103816, Note_off_c, 0, 63, 64
1, 103816, Note_off_c, 0, 55, 64
1, 103824, Control_c, 0, 64, 127
1, 103948, Note_on_c, 0, 63, 36
1, 103948, Note_on_c, 0, 51, 45
1, 103964, Note_on_c, 0, 61, 50
1, 104104, Note_off_c, 0, 63, 64
1, 104104, Note_off_c, 0, 51, 64
1, 104112, Note_off_c, 0, 61, 64
1, 104196, Note_on_c, 0, 61, 50
1, 104200, Note_off_c, 0, 70, 64
1, 104200, Note_on_c, 0, 72, 76
1, 104204, Note_on_c, 0, 63, 43
1, 104216, Note_on_c, 0, 56, 50
1, 104344, Note_off_c, 0, 61, 64
1, 104364, Note_off_c, 0, 63, 64
1, 104372, Note_off_c, 0, 56, 64
1, 104472, Note_on_c, 0, 61, 50
1, 104472, Note_on_c, 0, 53, 56
1, 104472, Note_on_c, 0, 63, 23
1, 104620, Note_off_c, 0, 61, 64
1, 104632, Note_off_c, 0, 53, 64
1, 104632, Note_off_c, 0, 63, 64
1, 104748, Control_c, 0, 64, 0
1, 104752, Note_on_c, 0, 63, 44
1, 104760, Note_on_c, 0, 70, 76
1, 104768, Note_on_c, 0, 55, 37
1, 104772, Note_on_c, 0, 61, 50
1, 104792, Note_off_c, 0, 72, 64
1, 104844, Control_c, 0, 64, 127
1, 104900, Note_off_c, 0, 55, 64
1, 104912, Note_off_c, 0, 63, 64
1, 104920, Note_off_c, 0, 61, 64
1, 105116, Note_on_c, 0, 61, 50
1, 105120, Note_on_c, 0, 63, 62
1, 105132, Note_on_c, 0, 53, 44
1, 105200, Note_off_c, 0, 63, 64
1, 105220, Note_on_c, 0, 63, 76
1, 105264, Note_off_c, 0, 61, 64
1, 105288, Note_off_c, 0, 53, 64
1, 105288, Note_off_c, 0, 63, 64
1, 105324, Note_on_c, 0, 63, 68
1, 105336, Note_on_c, 0, 55, 49
1, 105348, Note_on_c, 0, 61, 50
1, 105480, Note_off_c, 0, 63, 64
1, 105496, Note_off_c, 0, 55, 64
1, 105496, Note_off_c, 0, 61, 64
1, 105576, Note_on_c, 0, 63, 50
1, 105580, Note_on_c, 0, 72, 76
1, 105588, Note_on_c, 0, 51, 48
1, 105664, Note_off_c, 0, 70, 64
1, 105712, Control_c, 0, 64, 0
1, 105736, Note_off_c, 0, 63, 64
1, 105744, Note_off_c, 0, 51, 64
1, 105868, Note_on_c, 0, 68, 68
1, 105884, Note_on_c, 0, 60, 50
1, 105888, Note_on_c, 0, 56, 21
1, 105904, Note_off_c, 0, 72, 64
1, 105904, Control_c, 0, 64, 127
1, 106072, Note_off_c, 0, 56, 64
1, 106072, Note_off_c, 0, 60, 64
1, 106176, Note_on_c, 0, 58, 42
1, 106176, Note_on_c, 0, 56, 42
1, 106176, Note_on_c, 0, 49, 53
1, 106188, Note_on_c, 0, 77, 70
1, 106328, Note_off_c, 0, 68, 64
1, 106332, Note_off_c, 0, 58, 64
1, 106332, Note_off_c, 0, 56, 64
1, 106352, Note_off_c, 0, 49, 64
1, 106528, Note_off_c, 0, 77, 64
1, 106584, Control_c, 0, 64, 0
1, 106596, Note_on_c, 0, 70, 76
1, 106676, Control_c, 0, 64, 127
1, 106904, Note_on_c, 0, 39, 73
1, 107016, Note_on_c, 0, 72, 76
1, 107048, Note_off_c, 0, 70, 64
1, 107140, Note_on_c, 0, 75, 67
1, 107200, Note_off_c, 0, 72, 64
1, 107260, Note_on_c, 0, 73, 75
1, 107296, Note_off_c, 0, 75, 64
1, 107344, Note_on_c, 0, 63, 30
1, 107344, Note_on_c, 0, 51, 51
1, 107460, Note_on_c, 0, 72, 76
1, 107504, Note_off_c, 0, 63, 64
1, 107504, Note_off_c, 0, 51, 64
1, 107520, Note_off_c, 0, 73, 64
1, 107596, Note_on_c, 0, 70, 76
1, 107596, Note_on_c, 0, 55, 25
1, 107604, Note_on_c, 0, 63, 39
1, 107616, Note_on_c, 0, 61, 47
1, 107624, Note_off_c, 0, 72, 64
1, 107752, Note_off_c, 0, 55, 64
1, 107756, Note_off_c, 0, 39, 64
1, 107760, Note_off_c, 0, 63, 64
1, 107772, Note_off_c, 0, 61, 64
1, 107864, Note_on_c, 0, 63, 40
1, 107884, Note_on_c, 0, 51, 53
1, 107984, Note_on_c, 0, 72, 76
1, 108012, Note_off_c, 0, 70, 64
1, 108024, Note_off_c, 0, 63, 64
1, 108040, Note_off_c, 0, 51, 64
1, 108100, Control_c, 0, 64, 0
1, 108144, Note_on_c, 0, 68, 70
1, 108168, Note_on_c, 0, 39, 90
1, 108192, Note_off_c, 0, 72, 64
1, 108208, Control_c, 0, 64, 127
1, 108452, Note_on_c, 0, 51, 30
1, 108460, Note_on_c, 0, 63, 49
1, 108464, Note_on_c, 0, 60, 50
1, 108616, Note_off_c, 0, 63, 64
1, 108616, Note_off_c, 0, 60, 64
1, 108620, Note_off_c, 0, 51, 64
1, 108672, Note_on_c, 0, 53, 49
1, 108680, Note_on_c, 0, 63, 45
1, 108688, Note_on_c, 0, 60, 50
1, 108824, Note_off_c, 0, 63, 64
1, 108836, Note_off_c, 0, 53, 64
1, 108836, Note_off_c, 0, 60, 64
1, 108900, Note_on_c, 0, 60, 50
1, 108904, Note_on_c, 0, 63, 46
1, 108908, Note_on_c, 0, 55, 48
1, 108996, Note_off_c, 0, 39, 64
1, 109048, Note_off_c, 0, 60, 64
1, 109060, Note_off_c, 0, 63, 64
1, 109064, Note_off_c, 0, 55, 64
1, 109136, Note_on_c, 0, 56, 32
1, 109144, Note_on_c, 0, 63, 73
1, 109152, Note_on_c, 0, 60, 45
1, 109188, Note_off_c, 0, 68, 64
1, 109292, Note_off_c, 0, 56, 64
1, 109312, Note_off_c, 0, 60, 64
1, 109408, Note_on_c, 0, 58, 44
1, 109416, Note_on_c, 0, 60, 50
1, 109436, Note_on_c, 0, 66, 45
1, 109564, Note_off_c, 0, 58, 64
1, 109576, Note_off_c, 0, 60, 64
1, 109596, Note_off_c, 0, 66, 64
1, 109728, Note_on_c, 0, 72, 76
1, 109728, Note_on_c, 0, 39, 71
1, 109776, Note_off_c, 0, 63, 64
1, 109816, Control_c, 0, 64, 0
1, 109880, Control_c, 0, 64, 127
1, 110020, Note_on_c, 0, 65, 39
1, 110028, Note_on_c, 0, 63, 44
1, 110028, Note_on_c, 0, 55, 49
1, 110180, Note_off_c, 0, 65, 64
1, 110184, Note_off_c, 0, 63, 64
1, 110184, Note_off_c, 0, 55, 64
1, 110288, Note_on_c, 0, 63, 47
1, 110288, Note_on_c, 0, 57, 45
1, 110296, Note_on_c, 0, 65, 45
1, 110448, Note_off_c, 0, 63, 64
1, 110448, Note_off_c, 0, 57, 64
1, 110456, Note_off_c, 0, 65, 64
1, 110512, Note_on_c, 0, 65, 34
1, 110512, Note_on_c, 0, 53, 45
1, 110520, Note_on_c, 0, 63, 25
1, 110672, Note_off_c, 0, 53, 64
1, 110672, Note_off_c, 0, 65, 64
1, 110680, Note_off_c, 0, 63, 64
1, 110756, Control_c, 0, 64, 0
1, 110760, Note_on_c, 0, 63, 50
1, 110760, Note_on_c, 0, 58, 45
1, 110764, Note_on_c, 0, 73, 75
1, 110772, Note_on_c, 0, 65, 47
1, 110784, Note_off_c, 0, 39, 64
1, 110784, Note_off_c, 0, 72, 64
1, 110880, Control_c, 0, 64, 127
1, 110920, Note_off_c, 0, 63, 64
1, 110920, Note_off_c, 0, 58, 64
1, 110920, Note_off_c, 0, 65, 64
1, 111012, Note_on_c, 0, 55, 45
1, 111012, Note_on_c, 0, 63, 35
1, 111028, Note_on_c, 0, 65, 43
1, 111104, Note_off_c, 0, 73, 64
1, 111144, Note_off_c, 0, 63, 64
1, 111168, Note_off_c, 0, 55, 64
1, 111188, Note_off_c, 0, 65, 64
1, 111240, Note_on_c, 0, 65, 50
1, 111244, Note_on_c, 0, 72, 76
1, 111244, Note_on_c, 0, 63, 45
1, 111256, Note_on_c, 0, 57, 44
1, 111368, Note_off_c, 0, 63, 64
1, 111392, Note_off_c, 0, 65, 64
1, 111416, Note_off_c, 0, 57, 64
1, 111492, Note_on_c, 0, 65, 62
1, 111492, Note_on_c, 0, 63, 45
1, 111508, Note_on_c, 0, 55, 37
1, 111556, Note_off_c, 0, 65, 64
1, 111572, Control_c, 0, 64, 0
1, 111584, Note_on_c, 0, 65, 69
1, 111600, Note_off_c, 0, 63, 64
1, 111664, Note_off_c, 0, 55, 64
1, 111672, Note_off_c, 0, 65, 64
1, 111684, Note_on_c, 0, 65, 62
1, 111684, Note_on_c, 0, 63, 40
1, 111688, Control_c, 0, 64, 127
1, 111696, Note_on_c, 0, 57, 46
1, 111732, Note_off_c, 0, 72, 64
1, 111844, Note_off_c, 0, 65, 64
1, 111844, Note_off_c, 0, 63, 64
1, 111856, Note_off_c, 0, 57, 64
1, 111932, Note_on_c, 0, 65, 50
1, 111944, Note_on_c, 0, 53, 49
1, 111952, Note_on_c, 0, 73, 75
1, 112092, Note_off_c, 0, 65, 64
1, 112104, Note_off_c, 0, 53, 64
1, 112208, Note_on_c, 0, 65, 36
1, 112208, Note_on_c, 0, 58, 31
1, 112212, Note_on_c, 0, 70, 73
1, 112216, Note_on_c, 0, 61, 50
1, 112232, Note_off_c, 0, 73, 64
1, 112364, Note_off_c, 0, 61, 64
1, 112368, Note_off_c, 0, 65, 64
1, 112368, Note_off_c, 0, 58, 64
1, 112504, Note_on_c, 0, 78, 69
1, 112504, Note_on_c, 0, 60, 38
1, 112504, Note_on_c, 0, 51, 37
1, 112512, Note_on_c, 0, 58, 42
1, 112528, Note_off_c, 0, 70, 64
1, 112664, Note_off_c, 0, 60, 64
1, 112664, Note_off_c, 0, 51, 64
1, 112668, Note_off_c, 0, 58, 64
1, 112800, Note_on_c, 0, 39, 73
1, 112800, Note_on_c, 0, 72, 78
1, 112844, Note_off_c, 0, 78, 64
1, 113192, Note_on_c, 0, 65, 41
1, 113196, Note_on_c, 0, 53, 41
1, 113204, Control_c, 0, 64, 0
1, 113336, Note_on_c, 0, 73, 70
1, 113352, Control_c, 0, 64, 127
1, 113364, Note_off_c, 0, 53, 64
1, 113376, Note_off_c, 0, 72, 64
1, 113392, Note_off_c, 0, 65, 64
1, 113452, Note_on_c, 0, 77, 73
1, 113488, Note_off_c, 0, 73, 64
1, 113588, Note_on_c, 0, 75, 76
1, 113636, Note_off_c, 0, 77, 64
1, 113644, Note_on_c, 0, 65, 41
1, 113644, Note_on_c, 0, 53, 41
1, 113664, Note_off_c, 0, 39, 64
1, 113796, Note_off_c, 0, 53, 64
1, 113796, Note_off_c, 0, 65, 64
1, 113796, Note_on_c, 0, 73, 82
1, 113844, Note_off_c, 0, 75, 64
1, 113908, Note_on_c, 0, 72, 79
1, 113912, Note_on_c, 0, 65, 41
1, 113912, Note_on_c, 0, 63, 41
1, 113912, Note_on_c, 0, 57, 41
1, 113952, Note_off_c, 0, 73, 64
1, 114064, Note_off_c, 0, 65, 64
1, 114064, Note_off_c, 0, 63, 64
1, 114064, Note_off_c, 0, 57, 64
1, 114080, Note_on_c, 0, 65, 41
1, 114092, Note_on_c, 0, 53, 41
1, 114232, Note_off_c, 0, 65, 64
1, 114244, Note_off_c, 0, 53, 64
1, 114244, Note_on_c, 0, 77, 68
1, 114288, Note_off_c, 0, 72, 64
1, 114336, Control_c, 0, 64, 0
1, 114384, Note_on_c, 0, 39, 73
1, 114392, Note_on_c, 0, 74, 56
1, 114392, Note_on_c, 0, 71, 72
1, 114436, Note_off_c, 0, 77, 64
1, 114448, Control_c, 0, 64, 127
1, 114640, Note_on_c, 0, 68, 38
1, 114656, Note_on_c, 0, 56, 52
1, 114736, Note_off_c, 0, 71, 64
1, 114800, Note_on_c, 0, 75, 67
1, 114848, Note_off_c, 0, 74, 64
1, 114892, Note_off_c, 0, 68, 64
1, 114904, Note_off_c, 0, 56, 64
1, 114912, Note_off_c, 0, 75, 64
1, 114948, Note_on_c, 0, 75, 66
1, 114956, Note_on_c, 0, 79, 54
1, 115088, Note_on_c, 0, 74, 57
1, 115112, Note_off_c, 0, 75, 64
1, 115112, Note_on_c, 0, 77, 59
1, 115120, Note_off_c, 0, 79, 64
1, 115128, Note_on_c, 0, 56, 52
1, 115152, Note_on_c, 0, 68, 38
1, 115244, Note_on_c, 0, 75, 66
1, 115252, Note_on_c, 0, 72, 62
1, 115268, Note_off_c, 0, 74, 64
1, 115292, Note_off_c, 0, 77, 64
1, 115324, Note_on_c, 0, 75, 67
1, 115336, Note_off_c, 0, 56, 64
1, 115360, Note_off_c, 0, 68, 64
1, 115372, Note_on_c, 0, 59, 62
1, 115384, Note_on_c, 0, 68, 69
1, 115384, Note_on_c, 0, 65, 72
1, 115404, Note_on_c, 0, 74, 62
1, 115452, Note_off_c, 0, 72, 64
1, 115488, Note_off_c, 0, 75, 64
1, 115488, Note_off_c, 0, 75, 64
1, 115612, Note_off_c, 0, 39, 64
1, 115648, Note_off_c, 0, 68, 64
1, 115648, Note_on_c, 0, 56, 52
1, 115652, Note_on_c, 0, 68, 52
1, 115660, Note_on_c, 0, 79, 61
1, 115660, Note_on_c, 0, 75, 57
1, 115668, Note_off_c, 0, 59, 64
1, 115680, Note_off_c, 0, 65, 64
1, 115700, Note_off_c, 0, 74, 64
1, 115884, Note_on_c, 0, 77, 62
1, 115888, Note_on_c, 0, 51, 55
1, 115888, Note_on_c, 0, 74, 66
1, 115896, Note_off_c, 0, 56, 64
1, 115904, Note_off_c, 0, 68, 64
1, 115904, Note_off_c, 0, 79, 64
1, 115904, Note_off_c, 0, 75, 64
1, 116024, Note_on_c, 0, 75, 73
1, 116024, Note_on_c, 0, 72, 67
1, 116068, Note_off_c, 0, 77, 64
1, 116072, Note_off_c, 0, 74, 64
1, 116140, Note_on_c, 0, 74, 57
1, 116140, Note_on_c, 0, 68, 38
1, 116144, Note_on_c, 0, 65, 68
1, 116144, Note_on_c, 0, 56, 52
1, 116168, Note_off_c, 0, 72, 64
1, 116184, Note_off_c, 0, 75, 64
1, 116240, Note_on_c, 0, 79, 58
1, 116240, Note_on_c, 0, 75, 68
1, 116288, Note_off_c, 0, 74, 64
1, 116292, Note_off_c, 0, 65, 64
1, 116336, Note_on_c, 0, 75, 67
1, 116356, Note_on_c, 0, 74, 68
1, 116360, Note_on_c, 0, 77, 66
1, 116376, Note_off_c, 0, 79, 64
1, 116388, Note_off_c, 0, 68, 64
1, 116396, Note_off_c, 0, 56, 64
1, 116472, Note_on_c, 0, 75, 72
1, 116472, Note_on_c, 0, 72, 67
1, 116484, Note_off_c, 0, 74, 64
1, 116488, Note_off_c, 0, 77, 64
1, 116496, Note_off_c, 0, 75, 64
1, 116568, Control_c, 0, 64, 0
1, 116588, Note_on_c, 0, 56, 52
1, 116592, Note_on_c, 0, 74, 61
1, 116592, Note_on_c, 0, 65, 48
1, 116608, Note_off_c, 0, 72, 64
1, 116660, Note_off_c, 0, 75, 64
1, 116660, Note_off_c, 0, 75, 64
1, 116704, Note_on_c, 0, 75, 72
1, 116704, Note_on_c, 0, 72, 63
1, 116740, Note_off_c, 0, 74, 64
1, 116744, Note_off_c, 0, 65, 64
1, 116792, Control_c, 0, 64, 127
1, 116824, Note_on_c, 0, 76, 67
1, 116824, Note_on_c, 0, 73, 67
1, 116824, Note_on_c, 0, 71, 38
1, 116832, Note_on_c, 0, 62, 52
1, 116836, Note_off_c, 0, 56, 64
1, 116856, Note_off_c, 0, 72, 64
1, 116856, Note_off_c, 0, 75, 64
1, 116920, Note_off_c, 0, 51, 64
1, 116928, Note_off_c, 0, 71, 64
1, 116928, Note_off_c, 0, 62, 64
1, 116928, Note_on_c, 0, 77, 72
1, 116928, Note_on_c, 0, 74, 46
1, 116972, Note_off_c, 0, 76, 64
1, 116972, Note_off_c, 0, 73, 64
1, 117028, Note_on_c, 0, 75, 67
1, 117036, Note_on_c, 0, 78, 59
1, 117076, Note_off_c, 0, 77, 64
1, 117076, Note_off_c, 0, 74, 64
1, 117164, Note_on_c, 0, 79, 79
1, 117164, Note_on_c, 0, 76, 44
1, 117224, Note_off_c, 0, 75, 64
1, 117228, Note_off_c, 0, 78, 64
1, 117284, Note_on_c, 0, 80, 68
1, 117284, Note_on_c, 0, 77, 70
1, 117312, Note_off_c, 0, 79, 64
1, 117312, Note_off_c, 0, 76, 64
1, 117412, Note_on_c, 0, 79, 70
1, 117416, Note_on_c, 0, 75, 66
1, 117424, Note_off_c, 0, 80, 64
1, 117424, Note_off_c, 0, 77, 64
1, 117516, Note_on_c, 0, 59, 75
1, 117528, Note_on_c, 0, 77, 66
1, 117528, Note_on_c, 0, 74, 66
1, 117528, Note_on_c, 0, 68, 62
1, 117540, Note_off_c, 0, 79, 64
1, 117544, Note_off_c, 0, 75, 64
1, 117648, Note_on_c, 0, 78, 72
1, 117656, Note_on_c, 0, 82, 77
1, 117676, Note_off_c, 0, 77, 64
1, 117676, Note_off_c, 0, 74, 64
1, 117764, Note_off_c, 0, 59, 64
1, 117772, Note_on_c, 0, 71, 70
1, 117772, Note_on_c, 0, 62, 45
1, 117776, Note_off_c, 0, 68, 64
1, 117776, Note_on_c, 0, 80, 63
1, 117780, Note_on_c, 0, 77, 76
1, 117784, Note_off_c, 0, 78, 64
1, 117788, Note_off_c, 0, 82, 64
1, 117880, Note_on_c, 0, 79, 63
1, 117880, Note_on_c, 0, 75, 76
1, 117928, Note_off_c, 0, 80, 64
1, 117928, Note_off_c, 0, 77, 64
1, 117996, Note_on_c, 0, 74, 67
1, 118000, Note_on_c, 0, 77, 67
1, 118000, Note_on_c, 0, 68, 72
1, 118000, Note_on_c, 0, 59, 59
1, 118008, Note_off_c, 0, 79, 64
1, 118008, Note_off_c, 0, 75, 64
1, 118020, Note_off_c, 0, 71, 64
1, 118020, Note_off_c, 0, 62, 64
1, 118116, Note_on_c, 0, 78, 72
1, 118116, Note_on_c, 0, 75, 68
1, 118124, Note_off_c, 0, 74, 64
1, 118128, Note_off_c, 0, 77, 64
1, 118220, Note_on_c, 0, 65, 38
1, 118224, Note_on_c, 0, 74, 38
1, 118232, Note_on_c, 0, 79, 73
1, 118232, Note_on_c, 0, 76, 69
1, 118244, Note_off_c, 0, 78, 64
1, 118244, Note_off_c, 0, 75, 64
1, 118248, Note_off_c, 0, 68, 64
1, 118248, Note_off_c, 0, 59, 64
1, 118316, Note_off_c, 0, 74, 64
1, 118320, Note_off_c, 0, 65, 64
1, 118348, Note_on_c, 0, 77, 62
1, 118352, Note_on_c, 0, 80, 67
1, 118360, Note_off_c, 0, 76, 64
1, 118360, Note_off_c, 0, 79, 64
1, 118468, Note_on_c, 0, 81, 76
1, 118468, Note_on_c, 0, 78, 66
1, 118476, Note_off_c, 0, 77, 64
1, 118500, Note_off_c, 0, 80, 64
1, 118564, Note_on_c, 0, 81, 77
1, 118584, Note_on_c, 0, 82, 66
1, 118584, Note_on_c, 0, 79, 67
1, 118596, Note_off_c, 0, 81, 64
1, 118596, Note_off_c, 0, 78, 64
1, 118644, Note_off_c, 0, 81, 64
1, 118712, Note_on_c, 0, 80, 77
1, 118724, Note_on_c, 0, 83, 76
1, 118728, Note_off_c, 0, 82, 64
1, 118732, Note_off_c, 0, 79, 64
1, 118820, Note_on_c, 0, 79, 62
1, 118824, Note_on_c, 0, 82, 62
1, 118856, Note_off_c, 0, 80, 64
1, 118856, Note_off_c, 0, 83, 64
1, 118948, Note_on_c, 0, 77, 45
1, 118956, Note_on_c, 0, 80, 76
1, 118960, Note_on_c, 0, 71, 56
1, 118960, Note_on_c, 0, 62, 62
1, 118968, Note_off_c, 0, 79, 64
1, 118972, Note_off_c, 0, 82, 64
1, 119076, Note_on_c, 0, 83, 73
1, 119088, Note_on_c, 0, 87, 77
1, 119092, Note_off_c, 0, 77, 64
1, 119100, Note_off_c, 0, 80, 64
1, 119192, Note_on_c, 0, 86, 60
1, 119204, Note_on_c, 0, 74, 73
1, 119204, Note_on_c, 0, 65, 72
1, 119208, Note_off_c, 0, 71, 64
1, 119208, Note_off_c, 0, 62, 64
1, 119208, Note_off_c, 0, 83, 64
1, 119208, Note_on_c, 0, 82, 70
1, 119216, Note_off_c, 0, 87, 64
1, 119308, Note_on_c, 0, 80, 70
1, 119316, Note_off_c, 0, 86, 64
1, 119320, Note_on_c, 0, 83, 66
1, 119336, Note_off_c, 0, 82, 64
1, 119424, Note_on_c, 0, 82, 66
1, 119424, Note_on_c, 0, 79, 56
1, 119432, Note_off_c, 0, 80, 64
1, 119440, Note_off_c, 0, 83, 64
1, 119452, Note_off_c, 0, 74, 64
1, 119452, Note_off_c, 0, 65, 64
1, 119552, Note_off_c, 0, 82, 64
1, 119556, Note_on_c, 0, 80, 70
1, 119560, Note_on_c, 0, 77, 84
1, 119576, Note_off_c, 0, 79, 64
1, 119664, Note_on_c, 0, 82, 72
1, 119664, Note_on_c, 0, 78, 70
1, 119684, Note_off_c, 0, 80, 64
1, 119688, Note_off_c, 0, 77, 64
1, 119768, Note_on_c, 0, 77, 66
1, 119776, Note_on_c, 0, 80, 63
1, 119800, Note_off_c, 0, 82, 64
1, 119800, Note_off_c, 0, 78, 64
1, 119896, Note_on_c, 0, 75, 62
1, 119904, Note_off_c, 0, 80, 64
1, 119904, Note_on_c, 0, 79, 75
1, 119912, Note_off_c, 0, 77, 64
1, 119984, Note_on_c, 0, 74, 67
1, 119992, Note_on_c, 0, 77, 62
1, 120008, Note_off_c, 0, 75, 64
1, 120016, Note_off_c, 0, 79, 64
1, 120128, Note_on_c, 0, 83, 64
1, 120128, Note_on_c, 0, 80, 57
1, 120152, Note_off_c, 0, 74, 64
1, 120160, Note_off_c, 0, 77, 64
1, 120268, Note_on_c, 0, 91, 82
1, 120268, Note_on_c, 0, 87, 68
1, 120268, Note_on_c, 0, 55, 58
1, 120272, Note_off_c, 0, 83, 64
1, 120272, Note_off_c, 0, 80, 64
1, 120388, Note_on_c, 0, 89, 64
1, 120388, Note_on_c, 0, 86, 68
1, 120408, Note_on_c, 0, 56, 62
1, 120424, Note_off_c, 0, 91, 64
1, 120424, Note_off_c, 0, 87, 64
1, 120428, Note_off_c, 0, 55, 64
1, 120532, Note_off_c, 0, 89, 64
1, 120532, Note_off_c, 0, 86, 64
1, 120536, Note_on_c, 0, 59, 58
1, 120544, Note_on_c, 0, 84, 69
1, 120552, Note_off_c, 0, 56, 64
1, 120552, Note_on_c, 0, 87, 67
1, 120656, Note_on_c, 0, 62, 74
1, 120668, Note_off_c, 0, 84, 64
1, 120672, Note_on_c, 0, 86, 81
1, 120672, Note_on_c, 0, 82, 81
1, 120680, Note_off_c, 0, 59, 64
1, 120696, Note_off_c, 0, 87, 64
1, 120800, Note_off_c, 0, 62, 64
1, 120800, Note_on_c, 0, 65, 57
1, 120808, Note_on_c, 0, 83, 59
1, 120808, Note_on_c, 0, 80, 73
1, 120816, Note_off_c, 0, 86, 64
1, 120816, Note_off_c, 0, 82, 64
1, 120928, Note_on_c, 0, 74, 66
1, 120940, Note_on_c, 0, 82, 70
1, 120940, Note_on_c, 0, 79, 72
1, 120944, Note_off_c, 0, 65, 64
1, 120952, Note_off_c, 0, 83, 64
1, 120952, Note_off_c, 0, 80, 64
1, 121028, Note_on_c, 0, 62, 51
1, 121044, Note_on_c, 0, 80, 68
1, 121048, Note_on_c, 0, 83, 67
1, 121064, Note_off_c, 0, 74, 64
1, 121076, Note_off_c, 0, 82, 64
1, 121076, Note_off_c, 0, 79, 64
1, 121172, Note_off_c, 0, 62, 64
1, 121180, Note_on_c, 0, 77, 73
1, 121184, Note_on_c, 0, 85, 73
1, 121184, Note_on_c, 0, 82, 70
1, 121188, Note_off_c, 0, 80, 64
1, 121192, Note_off_c, 0, 83, 64
1, 121368, Note_on_c, 0, 83, 64
1, 121368, Note_on_c, 0, 80, 73
1, 121376, Note_off_c, 0, 82, 64
1, 121376, Note_off_c, 0, 85, 64
1, 121384, Note_off_c, 0, 77, 64
1, 121420, Note_off_c, 0, 83, 64
1, 121428, Note_off_c, 0, 80, 64
1, 121468, Note_on_c, 0, 83, 75
1, 121472, Note_on_c, 0, 80, 79
1, 121568, Note_on_c, 0, 79, 57
1, 121576, Note_on_c, 0, 82, 81
1, 121600, Note_off_c, 0, 83, 64
1, 121604, Note_off_c, 0, 80, 64
1, 121664, Note_on_c, 0, 80, 73
1, 121668, Note_on_c, 0, 77, 41
1, 121680, Note_off_c, 0, 79, 64
1, 121692, Note_off_c, 0, 82, 64
1, 121772, Control_c, 0, 64, 0
1, 121808, Note_on_c, 0, 51, 67
1, 121808, Note_on_c, 0, 39, 66
1, 121824, Note_on_c, 0, 79, 73
1, 121836, Note_on_c, 0, 82, 73
1, 121840, Note_off_c, 0, 80, 64
1, 121848, Note_off_c, 0, 77, 64
1, 121864, Control_c, 0, 64, 127
1, 122148, Note_on_c, 0, 63, 68
1, 122148, Note_on_c, 0, 55, 68
1, 122156, Note_on_c, 0, 67, 71
1, 122156, Note_on_c, 0, 58, 68
1, 122160, Note_off_c, 0, 79, 64
1, 122160, Note_on_c, 0, 87, 79
1, 122160, Note_on_c, 0, 75, 79
1, 122176, Note_off_c, 0, 82, 64
1, 122260, Note_off_c, 0, 39, 64
1, 122264, Note_off_c, 0, 51, 64
1, 122380, Note_off_c, 0, 63, 64
1, 122380, Note_off_c, 0, 55, 64
1, 122388, Note_off_c, 0, 67, 64
1, 122388, Note_off_c, 0, 58, 64
1, 122392, Note_off_c, 0, 87, 64
1, 122392, Note_off_c, 0, 75, 64
1, 122448, Note_on_c, 0, 37, 79
1, 122464, Note_on_c, 0, 49, 79
1, 122464, Note_on_c, 0, 88, 79
1, 122464, Note_on_c, 0, 76, 79
1, 122768, Note_off_c, 0, 88, 64
1, 122768, Note_off_c, 0, 76, 64
1, 122784, Note_on_c, 0, 81, 68
1, 122784, Note_on_c, 0, 69, 79
1, 122784, Note_on_c, 0, 67, 68
1, 122784, Note_on_c, 0, 64, 79
1, 122784, Note_on_c, 0, 57, 67
1, 122892, Note_off_c, 0, 37, 64
1, 122928, Note_off_c, 0, 49, 64
1, 123016, Note_off_c, 0, 57, 64
1, 123016, Note_off_c, 0, 64, 64
1, 123016, Note_off_c, 0, 67, 64
1, 123072, Note_on_c, 0, 48, 79
1, 123072, Note_on_c, 0, 36, 90
1, 123076, Control_c, 0, 64, 127
1, 123264, Note_off_c, 0, 69, 64
1, 123264, Note_off_c, 0, 81, 64
1, 123328, Note_on_c, 0, 75, 79
1, 123328, Note_on_c, 0, 57, 68
1, 123332, Note_on_c, 0, 87, 79
1, 123332, Note_on_c, 0, 67, 71
1, 123332, Note_on_c, 0, 63, 68
1, 123488, Note_off_c, 0, 36, 64
1, 123500, Control_c, 0, 64, 0
1, 123512, Note_off_c, 0, 48, 64
1, 123560, Note_off_c, 0, 57, 64
1, 123564, Note_off_c, 0, 67, 64
1, 123564, Note_off_c, 0, 63, 64
1, 123576, Note_on_c, 0, 37, 79
1, 123576, Note_on_c, 0, 49, 79
1, 123588, Control_c, 0, 64, 127
1, 123848, Note_off_c, 0, 75, 64
1, 123852, Note_off_c, 0, 87, 64
1, 123864, Note_on_c, 0, 57, 76
1, 123864, Note_on_c, 0, 67, 79
1, 123864, Note_on_c, 0, 64, 79
1, 123872, Note_on_c, 0, 88, 86
1, 123876, Note_on_c, 0, 76, 79
1, 123924, Note_off_c, 0, 57, 64
1, 123928, Note_off_c, 0, 67, 64
1, 123928, Note_off_c, 0, 64, 64
1, 123972, Note_on_c, 0, 64, 84
1, 123972, Note_on_c, 0, 57, 84
1, 123980, Note_on_c, 0, 67, 79
1, 124024, Note_off_c, 0, 37, 64
1, 124024, Note_off_c, 0, 49, 64
1, 124032, Note_off_c, 0, 64, 64
1, 124040, Note_off_c, 0, 67, 64
1, 124044, Note_off_c, 0, 57, 64
1, 124088, Note_on_c, 0, 64, 82
1, 124096, Note_on_c, 0, 67, 79
1, 124100, Note_on_c, 0, 57, 79
1, 124216, Note_off_c, 0, 64, 64
1, 124220, Note_off_c, 0, 67, 64
1, 124224, Note_off_c, 0, 57, 64
1, 124364, Note_on_c, 0, 67, 86
1, 124368, Note_on_c, 0, 69, 82
1, 124368, Note_on_c, 0, 64, 88
1, 124368, Note_on_c, 0, 57, 68
1, 124376, Note_off_c, 0, 88, 64
1, 124376, Note_on_c, 0, 81, 86
1, 124380, Note_off_c, 0, 76, 64
1, 124596, Note_off_c, 0, 67, 64
1, 124600, Note_off_c, 0, 57, 64
1, 124600, Note_off_c, 0, 64, 64
1, 124640, Note_on_c, 0, 48, 92
1, 124856, Note_off_c, 0, 69, 64
1, 124864, Note_off_c, 0, 81, 64
1, 124868, Note_on_c, 0, 87, 91
1, 124872, Note_on_c, 0, 75, 87
1, 124880, Note_on_c, 0, 63, 82
1, 124888, Note_on_c, 0, 67, 86
1, 124892, Note_on_c, 0, 57, 79
1, 125008, Note_off_c, 0, 63, 64
1, 125016, Note_off_c, 0, 67, 64
1, 125016, Note_off_c, 0, 57, 64
1, 125040, Control_c, 0, 64, 0
1, 125048, Note_off_c, 0, 48, 64
1, 125104, Note_on_c, 0, 48, 83
1, 125124, Control_c, 0, 64, 127
1, 125340, Note_off_c, 0, 87, 64
1, 125344, Note_off_c, 0, 75, 64
1, 125356, Note_on_c, 0, 74, 82
1, 125360, Note_on_c, 0, 86, 82
1, 125360, Note_on_c, 0, 57, 79
1, 125368, Note_on_c, 0, 66, 73
1, 125436, Note_off_c, 0, 57, 64
1, 125444, Note_off_c, 0, 66, 64
1, 125476, Note_on_c, 0, 66, 88
1, 125484, Note_on_c, 0, 56, 71
1, 125528, Note_off_c, 0, 66, 64
1, 125536, Note_off_c, 0, 56, 64
1, 125564, Note_off_c, 0, 48, 64
1, 125568, Note_on_c, 0, 66, 38
1, 125576, Note_on_c, 0, 56, 79
1, 125680, Note_off_c, 0, 66, 64
1, 125692, Note_off_c, 0, 56, 64
1, 125800, Note_on_c, 0, 66, 76
1, 125808, Note_on_c, 0, 80, 79
1, 125808, Note_on_c, 0, 68, 79
1, 125816, Note_on_c, 0, 56, 76
1, 125892, Note_off_c, 0, 74, 64
1, 125896, Note_off_c, 0, 86, 64
1, 125964, Note_off_c, 0, 56, 64
1, 125968, Note_off_c, 0, 66, 64
1, 126092, Note_on_c, 0, 47, 79
1, 126136, Control_c, 0, 64, 0
1, 126164, Control_c, 0, 64, 127
1, 126336, Note_on_c, 0, 85, 86
1, 126348, Note_on_c, 0, 73, 88
1, 126348, Note_on_c, 0, 65, 76
1, 126348, Note_on_c, 0, 56, 46
1, 126424, Note_off_c, 0, 68, 64
1, 126424, Note_off_c, 0, 80, 64
1, 126560, Note_off_c, 0, 47, 64
1, 126580, Note_off_c, 0, 65, 64
1, 126580, Note_off_c, 0, 56, 64
1, 126608, Note_on_c, 0, 46, 79
1, 126720, Note_off_c, 0, 85, 64
1, 126720, Note_off_c, 0, 73, 64
1, 126820, Note_on_c, 0, 72, 77
1, 126824, Note_on_c, 0, 84, 77
1, 126836, Note_on_c, 0, 64, 86
1, 126840, Note_on_c, 0, 56, 73
1, 126896, Note_off_c, 0, 64, 64
1, 126900, Note_off_c, 0, 56, 64
1, 126956, Note_on_c, 0, 64, 79
1, 126972, Note_on_c, 0, 55, 51
1, 126992, Note_off_c, 0, 46, 64
1, 127016, Note_off_c, 0, 64, 64
1, 127032, Note_off_c, 0, 55, 64
1, 127068, Note_on_c, 0, 64, 73
1, 127076, Note_on_c, 0, 54, 73
1, 127288, Note_off_c, 0, 64, 64
1, 127292, Note_off_c, 0, 54, 64
1, 127352, Note_on_c, 0, 78, 79
1, 127352, Note_on_c, 0, 66, 68
1, 127352, Note_on_c, 0, 64, 73
1, 127352, Note_on_c, 0, 54, 64
1, 127408, Note_off_c, 0, 84, 64
1, 127424, Note_off_c, 0, 64, 64
1, 127424, Note_off_c, 0, 54, 64
1, 127440, Note_off_c, 0, 72, 64
1, 127440, Note_on_c, 0, 63, 81
1, 127456, Note_on_c, 0, 54, 79
1, 127560, Note_off_c, 0, 63, 64
1, 127576, Note_off_c, 0, 54, 64
1, 127632, Note_on_c, 0, 45, 79
1, 127816, Note_off_c, 0, 78, 64
1, 127832, Note_off_c, 0, 66, 64
1, 127936, Note_on_c, 0, 83, 82
1, 127944, Note_on_c, 0, 71, 79
1, 127948, Note_on_c, 0, 63, 54
1, 127948, Note_on_c, 0, 59, 68
1, 127948, Note_on_c, 0, 54, 38
1, 127968, Note_off_c, 0, 45, 64
1, 128180, Note_off_c, 0, 63, 64
1, 128180, Note_off_c, 0, 59, 64
1, 128180, Note_off_c, 0, 54, 64
1, 128252, Note_off_c, 0, 83, 64
1, 128256, Note_off_c, 0, 71, 64
1, 128260, Note_on_c, 0, 44, 77
1, 128264, Note_on_c, 0, 83, 80
1, 128268, Note_on_c, 0, 71, 82
1, 128328, Control_c, 0, 64, 127
1, 128524, Note_on_c, 0, 64, 56
1, 128524, Note_on_c, 0, 59, 65
1, 128524, Note_on_c, 0, 52, 38
1, 128592, Note_on_c, 0, 70, 73
1, 128604, Note_on_c, 0, 82, 72
1, 128640, Note_off_c, 0, 83, 64
1, 128648, Note_off_c, 0, 71, 64
1, 128684, Note_on_c, 0, 69, 72
1, 128688, Note_on_c, 0, 81, 69
1, 128728, Note_off_c, 0, 70, 64
1, 128740, Note_off_c, 0, 44, 64
1, 128740, Note_off_c, 0, 82, 64
1, 128784, Note_on_c, 0, 80, 77
1, 128784, Note_on_c, 0, 68, 73
1, 128820, Note_off_c, 0, 69, 64
1, 128824, Note_off_c, 0, 81, 64
1, 128876, Note_on_c, 0, 79, 73
1, 128876, Note_on_c, 0, 67, 77
1, 128920, Note_off_c, 0, 80, 64
1, 128920, Note_off_c, 0, 68, 64
1, 128932, Note_off_c, 0, 64, 64
1, 128932, Note_off_c, 0, 59, 64
1, 128932, Note_off_c, 0, 52, 64
1, 128952, Note_on_c, 0, 78, 72
1, 128952, Note_on_c, 0, 66, 79
1, 128952, Note_on_c, 0, 52, 47
1, 128960, Note_on_c, 0, 59, 52
1, 129012, Note_off_c, 0, 79, 64
1, 129012, Note_off_c, 0, 67, 64
1, 129056, Note_on_c, 0, 77, 72
1, 129060, Note_on_c, 0, 65, 73
1, 129088, Note_off_c, 0, 66, 64
1, 129088, Note_off_c, 0, 78, 64
1, 129144, Note_on_c, 0, 64, 62
1, 129152, Note_on_c, 0, 76, 62
1, 129184, Note_off_c, 0, 52, 64
1, 129192, Note_off_c, 0, 59, 64
1, 129192, Note_off_c, 0, 77, 64
1, 129196, Note_off_c, 0, 65, 64
1, 129280, Note_off_c, 0, 64, 64
1, 129288, Note_off_c, 0, 76, 64
1, 129312, Note_on_c, 0, 75, 75
1, 129312, Note_on_c, 0, 63, 72
1, 129312, Note_on_c, 0, 44, 64
1, 129352, Control_c, 0, 64, 127
1, 129580, Note_off_c, 0, 44, 64
1, 129624, Note_on_c, 0, 74, 67
1, 129624, Note_on_c, 0, 62, 66
1, 129628, Note_off_c, 0, 63, 64
1, 129628, Note_on_c, 0, 59, 59
1, 129632, Note_off_c, 0, 75, 64
1, 129636, Note_on_c, 0, 53, 56
1, 129824, Control_c, 0, 64, 0
1, 129860, Note_off_c, 0, 59, 64
1, 129868, Note_off_c, 0, 53, 64
1, 129916, Note_on_c, 0, 43, 63
1, 129936, Control_c, 0, 64, 127
1, 130176, Note_on_c, 0, 51, 33
1, 130188, Note_on_c, 0, 58, 57
1, 130192, Note_off_c, 0, 74, 64
1, 130192, Note_off_c, 0, 62, 64
1, 130192, Note_on_c, 0, 73, 62
1, 130196, Note_on_c, 0, 61, 67
1, 130240, Note_off_c, 0, 43, 64
1, 130408, Note_off_c, 0, 51, 64
1, 130420, Note_off_c, 0, 58, 64
1, 130424, Control_c, 0, 64, 0
1, 130480, Note_on_c, 0, 44, 62
1, 130484, Note_on_c, 0, 60, 70
1, 130492, Note_on_c, 0, 72, 64
1, 130496, Note_off_c, 0, 73, 64
1, 130500, Note_off_c, 0, 61, 64
1, 130516, Control_c, 0, 64, 127
1, 130676, Note_off_c, 0, 44, 64
1, 130764, Note_on_c, 0, 68, 56
1, 130804, Note_off_c, 0, 60, 64
1, 130812, Note_off_c, 0, 72, 64
1, 130852, Note_on_c, 0, 60, 43
1, 130852, Note_on_c, 0, 51, 28
1, 130868, Note_on_c, 0, 80, 76
1, 131084, Note_off_c, 0, 60, 64
1, 131084, Note_off_c, 0, 51, 64
1, 131172, Note_off_c, 0, 68, 64
1, 131236, Note_on_c, 0, 56, 62
1, 131236, Note_on_c, 0, 41, 52
1, 131248, Note_on_c, 0, 68, 62
1, 131296, Control_c, 0, 64, 0
1, 131312, Note_off_c, 0, 80, 64
1, 131384, Control_c, 0, 64, 127
1, 131632, Note_on_c, 0, 62, 59
1, 131632, Note_on_c, 0, 40, 45
1, 131644, Note_off_c, 0, 41, 64
1, 131816, Control_c, 0, 64, 0
1, 131836, Note_off_c, 0, 56, 64
1, 131848, Note_off_c, 0, 68, 64
1, 131888, Note_on_c, 0, 70, 56
1, 131888, Note_on_c, 0, 58, 60
1, 131900, Note_off_c, 0, 40, 64
1, 131900, Control_c, 0, 64, 127
1, 132012, Note_off_c, 0, 70, 64
1, 132012, Note_off_c, 0, 58, 64
1, 132032, Note_on_c, 0, 39, 40
1, 132040, Note_off_c, 0, 62, 64
1, 132044, Note_on_c, 0, 70, 60
1, 132044, Note_on_c, 0, 58, 2
1, 132056, Control_c, 0, 64, 0
1, 132140, Control_c, 0, 64, 127
1, 132336, Note_on_c, 0, 51, 52
1, 132352, Note_on_c, 0, 67, 52
1, 132352, Note_on_c, 0, 63, 53
1, 132516, Note_off_c, 0, 51, 64
1, 132528, Note_off_c, 0, 67, 64
1, 132528, Note_off_c, 0, 63, 64
1, 132608, Note_on_c, 0, 67, 57
1, 132608, Note_on_c, 0, 63, 49
1, 132620, Note_on_c, 0, 51, 51
1, 132864, Note_on_c, 0, 50, 49
1, 132876, Note_on_c, 0, 68, 46
1, 132876, Note_on_c, 0, 64, 51
1, 132928, Note_off_c, 0, 67, 64
1, 132928, Note_off_c, 0, 63, 64
1, 132940, Note_off_c, 0, 51, 64
1, 133152, Control_c, 0, 64, 0
1, 133156, Note_on_c, 0, 51, 47
1, 133168, Note_on_c, 0, 67, 47
1, 133168, Note_on_c, 0, 63, 47
1, 133184, Note_off_c, 0, 50, 64
1, 133196, Note_off_c, 0, 68, 64
1, 133196, Note_off_c, 0, 64, 64
1, 133248, Control_c, 0, 64, 127
1, 133464, Note_on_c, 0, 62, 47
1, 133464, Note_on_c, 0, 68, 40
1, 133476, Note_on_c, 0, 52, 31
1, 133488, Note_off_c, 0, 67, 64
1, 133488, Note_off_c, 0, 63, 64
1, 133552, Note_off_c, 0, 51, 64
1, 133572, Note_off_c, 0, 58, 64
1, 133572, Note_off_c, 0, 70, 64
1, 133608, Note_off_c, 0, 68, 64
1, 133616, Note_off_c, 0, 39, 64
1, 133632, Note_off_c, 0, 62, 64
1, 133632, Note_off_c, 0, 52, 64
1, 133848, Note_on_c, 0, 70, 48
1, 133860, Note_on_c, 0, 58, 48
1, 133896, Note_off_c, 0, 70, 64
1, 133904, Note_off_c, 0, 58, 64
1, 133936, Note_on_c, 0, 70, 51
1, 133936, Note_on_c, 0, 58, 51
1, 133936, Note_on_c, 0, 39, 46
1, 134004, Control_c, 0, 64, 0
1, 134088, Control_c, 0, 64, 127
1, 134244, Note_on_c, 0, 51, 38
1, 134256, Note_on_c, 0, 67, 38
1, 134256, Note_on_c, 0, 63, 39
1, 134424, Note_off_c, 0, 51, 64
1, 134436, Note_off_c, 0, 67, 64
1, 134436, Note_off_c, 0, 63, 64
1, 134512, Note_on_c, 0, 67, 44
1, 134512, Note_on_c, 0, 63, 37
1, 134528, Note_on_c, 0, 51, 38
1, 134768, Note_on_c, 0, 50, 38
1, 134784, Note_on_c, 0, 68, 36
1, 134784, Note_on_c, 0, 64, 39
1, 134832, Note_off_c, 0, 67, 64
1, 134832, Note_off_c, 0, 63, 64
1, 134848, Note_off_c, 0, 51, 64
1, 134992, Control_c, 0, 64, 0
1, 135116, Note_on_c, 0, 67, 39
1, 135116, Note_on_c, 0, 51, 40
1, 135116, Control_c, 0, 64, 127
1, 135128, Note_on_c, 0, 63, 39
1, 135144, Note_off_c, 0, 50, 64
1, 135160, Note_off_c, 0, 68, 64
1, 135160, Note_off_c, 0, 64, 64
1, 135208, Control_c, 0, 64, 0
1, 135256, Note_off_c, 0, 39, 64
1, 135372, Control_c, 0, 64, 127
1, 135424, Note_off_c, 0, 58, 64
1, 135424, Note_off_c, 0, 70, 64
1, 135552, Note_on_c, 0, 68, 39
1, 135556, Note_off_c, 0, 51, 64
1, 135556, Note_off_c, 0, 67, 64
1, 135564, Note_on_c, 0, 62, 34
1, 135564, Note_on_c, 0, 52, 34
1, 135568, Note_off_c, 0, 63, 64
1, 135748, Note_off_c, 0, 68, 64
1, 135760, Note_off_c, 0, 62, 64
1, 135760, Note_off_c, 0, 52, 64
1, 136248, Note_on_c, 0, 70, 46
1, 136256, Note_on_c, 0, 58, 50
1, 136312, Note_off_c, 0, 70, 64
1, 136320, Note_off_c, 0, 58, 64
1, 136336, Control_c, 0, 64, 0
1, 136344, Note_on_c, 0, 66, 38
1, 136344, Note_on_c, 0, 63, 39
1, 136352, Note_on_c, 0, 58, 48
1, 136352, Note_on_c, 0, 51, 38
1, 136352, Note_on_c, 0, 70, 46
1, 136492, Control_c, 0, 64, 127
1, 136756, Note_off_c, 0, 63, 64
1, 136756, Note_off_c, 0, 66, 64
1, 136764, Note_off_c, 0, 70, 64
1, 136944, Note_on_c, 0, 63, 22
1, 136948, Note_on_c, 0, 70, 44
1, 136952, Note_on_c, 0, 66, 39
1, 137012, Control_c, 0, 64, 0
1, 137104, Control_c, 0, 64, 127
1, 137360, Note_off_c, 0, 63, 64
1, 137360, Note_off_c, 0, 70, 64
1, 137364, Note_off_c, 0, 66, 64
1, 137528, Note_off_c, 0, 51, 64
1, 137528, Note_off_c, 0, 58, 64
1, 137528, Note_on_c, 0, 72, 49
1, 137536, Note_on_c, 0, 66, 44
1, 137536, Note_on_c, 0, 44, 35
1, 137540, Control_c, 0, 64, 0
1, 137540, Note_on_c, 0, 56, 33
1, 137540, Note_on_c, 0, 60, 45
1, 137652, Control_c, 0, 64, 127
1, 138048, Control_c, 0, 64, 0
1, 138172, Note_off_c, 0, 60, 64
1, 138208, Note_on_c, 0, 60, 47
1, 138208, Control_c, 0, 64, 0
1, 138212, Note_on_c, 0, 37, 47
1, 138264, Note_off_c, 0, 56, 64
1, 138268, Note_off_c, 0, 66, 64
1, 138272, Note_off_c, 0, 60, 64
1, 138280, Note_off_c, 0, 72, 64
1, 138288, Note_off_c, 0, 44, 64
1, 138288, Note_on_c, 0, 60, 44
1, 138316, Control_c, 0, 64, 127
1, 138352, Note_on_c, 0, 66, 42
1, 138480, Note_on_c, 0, 57, 19
1, 138496, Note_on_c, 0, 75, 47
1, 138560, Note_off_c, 0, 60, 64
1, 139032, Note_off_c, 0, 66, 64
1, 139044, Note_off_c, 0, 57, 64
1, 139044, Note_on_c, 0, 73, 41
1, 139044, Note_on_c, 0, 65, 32
1, 139052, Note_on_c, 0, 49, 27
1, 139056, Note_on_c, 0, 58, 36
1, 139056, Control_c, 0, 64, 0
1, 139064, Note_off_c, 0, 75, 64
1, 139168, Control_c, 0, 64, 127
1, 139228, Note_off_c, 0, 37, 64
1, 139656, Note_off_c, 0, 73, 64
1, 139660, Note_off_c, 0, 65, 64
1, 139672, Note_off_c, 0, 49, 64
1, 139672, Note_off_c, 0, 58, 64
1, 139680, Note_on_c, 0, 67, 44
1, 139688, Note_on_c, 0, 61, 36
1, 139688, Note_on_c, 0, 51, 32
1, 139696, Note_on_c, 0, 58, 36
1, 139720, Control_c, 0, 64, 0
1, 139828, Control_c, 0, 64, 127
1, 140312, Control_c, 0, 64, 0
1, 140336, Note_on_c, 0, 44, 41
1, 140340, Note_on_c, 0, 68, 47
1, 140340, Note_on_c, 0, 60, 39
1, 140432, Note_off_c, 0, 67, 64
1, 140440, Note_off_c, 0, 51, 64
1, 140444, Note_off_c, 0, 61, 64
1, 140452, Note_off_c, 0, 58, 64
1, 140452, Control_c, 0, 64, 127
1, 140640, Note_on_c, 0, 51, 44
1, 140740, Note_on_c, 0, 53, 47
1, 140812, Note_off_c, 0, 68, 64
1, 140812, Note_off_c, 0, 60, 64
1, 140836, Note_on_c, 0, 55, 48
1, 140856, Note_off_c, 0, 53, 64
1, 140880, Note_off_c, 0, 44, 64
1, 140928, Note_on_c, 0, 56, 40
1, 140952, Note_off_c, 0, 51, 64
1, 140984, Note_off_c, 0, 55, 64
1, 141024, Note_on_c, 0, 58, 49
1, 141096, Note_off_c, 0, 56, 64
1, 141124, Note_on_c, 0, 60, 41
1, 141184, Note_off_c, 0, 58, 64
1, 141280, Note_on_c, 0, 65, 48
1, 141280, Note_on_c, 0, 61, 61
1, 141292, Note_off_c, 0, 60, 64
1, 141312, Control_c, 0, 64, 127
1, 141408, Note_on_c, 0, 73, 45
1, 141448, Note_off_c, 0, 65, 64
1, 141496, Note_on_c, 0, 68, 39
1, 141552, Note_off_c, 0, 73, 64
1, 141600, Note_on_c, 0, 70, 42
1, 141668, Note_off_c, 0, 68, 64
1, 141676, Note_off_c, 0, 61, 64
1, 141696, Note_off_c, 0, 70, 64
1, 141696, Note_on_c, 0, 63, 44
1, 141696, Note_on_c, 0, 60, 43
1, 141700, Note_on_c, 0, 72, 47
1, 141700, Note_on_c, 0, 44, 36
1, 141720, Control_c, 0, 64, 127
1, 141972, Note_on_c, 0, 51, 45
1, 141992, Note_off_c, 0, 63, 64
1, 141992, Note_off_c, 0, 60, 64
1, 141996, Note_off_c, 0, 72, 64
1, 142044, Note_off_c, 0, 44, 64
1, 142084, Note_on_c, 0, 53, 47
1, 142152, Note_off_c, 0, 51, 64
1, 142176, Note_on_c, 0, 55, 49
1, 142212, Control_c, 0, 64, 0
1, 142220, Note_off_c, 0, 53, 64
1, 142272, Note_on_c, 0, 56, 51
1, 142288, Control_c, 0, 64, 127
1, 142328, Note_off_c, 0, 55, 64
1, 142368, Note_on_c, 0, 58, 56
1, 142448, Note_off_c, 0, 56, 64
1, 142464, Note_on_c, 0, 60, 54
1, 142524, Note_off_c, 0, 58, 64
1, 142560, Note_on_c, 0, 61, 54
1, 142560, Note_on_c, 0, 63, 58
1, 142660, Note_on_c, 0, 70, 47
1, 142672, Note_off_c, 0, 60, 64
1, 142676, Control_c, 0, 64, 0
1, 142716, Note_off_c, 0, 63, 64
1, 142756, Note_on_c, 0, 65, 30
1, 142812, Control_c, 0, 64, 127
1, 142832, Note_off_c, 0, 70, 64
1, 142852, Note_on_c, 0, 67, 45
1, 142900, Note_off_c, 0, 65, 64
1, 142944, Note_off_c, 0, 61, 64
1, 142944, Note_off_c, 0, 67, 64
1, 142944, Note_on_c, 0, 68, 47
1, 142944, Note_on_c, 0, 60, 49
1, 142956, Note_on_c, 0, 44, 47
1, 142984, Control_c, 0, 64, 127
1, 143140, Note_on_c, 0, 63, 56
1, 143204, Note_off_c, 0, 63, 64
1, 143240, Note_off_c, 0, 68, 64
1, 143240, Note_off_c, 0, 60, 64
1, 143248, Note_on_c, 0, 63, 56
1, 143252, Note_off_c, 0, 44, 64
1, 143256, Note_on_c, 0, 60, 41
1, 143308, Note_off_c, 0, 63, 64
1, 143328, Note_on_c, 0, 58, 53
1, 143332, Note_on_c, 0, 63, 57
1, 143400, Note_off_c, 0, 60, 64
1, 143424, Note_on_c, 0, 56, 47
1, 143444, Note_off_c, 0, 63, 64
1, 143472, Note_off_c, 0, 58, 64
1, 143516, Note_off_c, 0, 56, 64
1, 143520, Note_on_c, 0, 63, 60
1, 143520, Note_on_c, 0, 55, 49
1, 143616, Note_on_c, 0, 53, 52
1, 143652, Note_off_c, 0, 63, 64
1, 143656, Note_off_c, 0, 55, 64
1, 143704, Note_on_c, 0, 63, 44
1, 143712, Note_on_c, 0, 61, 57
1, 143712, Note_on_c, 0, 51, 32
1, 143800, Note_on_c, 0, 70, 47
1, 143808, Note_off_c, 0, 53, 64
1, 143836, Note_off_c, 0, 63, 64
1, 143888, Control_c, 0, 64, 0
1, 143904, Note_on_c, 0, 65, 43
1, 143944, Note_off_c, 0, 70, 64
1, 144000, Note_on_c, 0, 67, 44
1, 144016, Control_c, 0, 64, 127
1, 144036, Note_off_c, 0, 65, 64
1, 144044, Note_off_c, 0, 61, 64
1, 144092, Note_off_c, 0, 51, 64
1, 144096, Note_off_c, 0, 67, 64
1, 144100, Note_on_c, 0, 68, 53
1, 144100, Note_on_c, 0, 60, 44
1, 144100, Note_on_c, 0, 44, 49
1, 144120, Control_c, 0, 64, 127
1, 144288, Note_on_c, 0, 63, 51
1, 144344, Note_off_c, 0, 63, 64
1, 144376, Note_off_c, 0, 68, 64
1, 144376, Note_off_c, 0, 60, 64
1, 144376, Note_off_c, 0, 44, 64
1, 144384, Note_on_c, 0, 60, 49
1, 144388, Note_on_c, 0, 63, 56
1, 144460, Note_off_c, 0, 63, 64
1, 144480, Note_on_c, 0, 63, 61
1, 144480, Note_on_c, 0, 58, 54
1, 144536, Note_off_c, 0, 60, 64
1, 144576, Note_on_c, 0, 56, 47
1, 144620, Note_off_c, 0, 63, 64
1, 144632, Note_off_c, 0, 58, 64
1, 144664, Note_off_c, 0, 56, 64
1, 144676, Note_on_c, 0, 63, 56
1, 144676, Note_on_c, 0, 55, 46
1, 144772, Note_on_c, 0, 53, 52
1, 144812, Note_off_c, 0, 55, 64
1, 144832, Note_off_c, 0, 63, 64
1, 144864, Note_off_c, 0, 53, 64
1, 144864, Note_on_c, 0, 63, 51
1, 144864, Note_on_c, 0, 61, 47
1, 144868, Note_on_c, 0, 51, 47
1, 144896, Control_c, 0, 64, 127
1, 144960, Note_on_c, 0, 70, 53
1, 145044, Note_off_c, 0, 63, 64
1, 145060, Note_on_c, 0, 65, 54
1, 145088, Note_off_c, 0, 70, 64
1, 145152, Note_on_c, 0, 67, 40
1, 145212, Note_off_c, 0, 65, 64
1, 145248, Note_off_c, 0, 61, 64
1, 145248, Note_off_c, 0, 51, 64
1, 145248, Note_off_c, 0, 67, 64
1, 145248, Note_on_c, 0, 70, 55
1, 145248, Note_on_c, 0, 63, 49
1, 145252, Note_on_c, 0, 44, 42
1, 145252, Note_on_c, 0, 60, 49
1, 145388, Note_on_c, 0, 72, 55
1, 145440, Note_on_c, 0, 51, 45
1, 145448, Note_off_c, 0, 70, 64
1, 145448, Note_off_c, 0, 63, 64
1, 145452, Note_off_c, 0, 60, 64
1, 145484, Control_c, 0, 64, 0
1, 145492, Control_c, 0, 64, 127
1, 145496, Note_on_c, 0, 67, 58
1, 145540, Note_on_c, 0, 53, 42
1, 145552, Control_c, 0, 64, 127
1, 145576, Note_off_c, 0, 72, 64
1, 145624, Note_off_c, 0, 51, 64
1, 145632, Control_c, 0, 64, 0
1, 145636, Note_on_c, 0, 70, 54
1, 145636, Note_on_c, 0, 51, 30
1, 145692, Note_off_c, 0, 53, 64
1, 145732, Note_on_c, 0, 53, 44
1, 145784, Control_c, 0, 64, 127
1, 145816, Note_off_c, 0, 51, 64
1, 145824, Note_on_c, 0, 51, 45
1, 145832, Note_off_c, 0, 67, 64
1, 145884, Note_off_c, 0, 53, 64
1, 145920, Note_on_c, 0, 53, 30
1, 145984, Control_c, 0, 64, 0
1, 145992, Control_c, 0, 64, 127
1, 146008, Note_off_c, 0, 51, 64
1, 146008, Note_on_c, 0, 68, 51
1, 146016, Note_on_c, 0, 60, 40
1, 146024, Note_off_c, 0, 70, 64
1, 146028, Note_on_c, 0, 51, 45
1, 146052, Control_c, 0, 64, 127
1, 146072, Note_off_c, 0, 53, 64
1, 146112, Note_on_c, 0, 53, 30
1, 146148, Control_c, 0, 64, 0
1, 146212, Note_off_c, 0, 51, 64
1, 146224, Note_on_c, 0, 51, 30
1, 146252, Control_c, 0, 64, 0
1, 146260, Control_c, 0, 64, 127
1, 146272, Note_off_c, 0, 68, 64
1, 146276, Note_off_c, 0, 60, 64
1, 146288, Note_off_c, 0, 53, 64
1, 146300, Note_off_c, 0, 44, 64
1, 146316, Note_on_c, 0, 46, 39
1, 146320, Control_c, 0, 64, 127
1, 146392, Note_on_c, 0, 44, 55
1, 146404, Note_off_c, 0, 51, 64
1, 146496, Note_off_c, 0, 46, 64
1, 146496, Note_on_c, 0, 49, 28
1, 146504, Note_on_c, 0, 61, 43
1, 146524, Control_c, 0, 64, 127
1, 146572, Note_off_c, 0, 44, 64
1, 146592, Note_on_c, 0, 60, 45
1, 146596, Note_on_c, 0, 48, 37
1, 146656, Note_off_c, 0, 49, 64
1, 146664, Note_off_c, 0, 61, 64
1, 146688, Note_on_c, 0, 44, 43
1, 146744, Note_off_c, 0, 60, 64
1, 146748, Note_off_c, 0, 48, 64
1, 146784, Note_on_c, 0, 43, 57
1, 146836, Note_off_c, 0, 44, 64
1, 146880, Note_on_c, 0, 61, 50
1, 146880, Note_on_c, 0, 49, 51
1, 146932, Note_off_c, 0, 43, 64
1, 146980, Note_on_c, 0, 60, 53
1, 146980, Note_on_c, 0, 48, 44
1, 147032, Note_off_c, 0, 61, 64
1, 147060, Note_off_c, 0, 49, 64
1, 147076, Note_on_c, 0, 43, 51
1, 147172, Note_on_c, 0, 41, 59
1, 147196, Note_off_c, 0, 60, 64
1, 147196, Note_off_c, 0, 48, 64
1, 147232, Control_c, 0, 64, 0
1, 147252, Note_off_c, 0, 43, 64
1, 147264, Note_on_c, 0, 61, 49
1, 147264, Note_on_c, 0, 49, 52
1, 147348, Note_off_c, 0, 41, 64
1, 147360, Note_on_c, 0, 60, 45
1, 147364, Note_on_c, 0, 48, 56
1, 147424, Note_off_c, 0, 61, 64
1, 147424, Note_off_c, 0, 49, 64
1, 147456, Note_on_c, 0, 41, 55
1, 147460, Note_on_c, 0, 62, 44
1, 147540, Note_off_c, 0, 60, 64
1, 147548, Note_off_c, 0, 48, 64
1, 147548, Note_off_c, 0, 41, 64
1, 147552, Note_off_c, 0, 62, 64
1, 147572, Note_on_c, 0, 55, 54
1, 147616, Control_c, 0, 64, 0
1, 147656, Note_on_c, 0, 64, 53
1, 147664, Note_off_c, 0, 55, 64
1, 147680, Control_c, 0, 64, 127
1, 147692, Note_on_c, 0, 36, 59
1, 147712, Control_c, 0, 64, 0
1, 147792, Control_c, 0, 64, 127
1, 147824, Note_on_c, 0, 72, 49
1, 147880, Note_off_c, 0, 64, 64
1, 147916, Control_c, 0, 64, 0
1, 148032, Note_on_c, 0, 43, 48
1, 148048, Control_c, 0, 64, 127
1, 148132, Note_on_c, 0, 45, 51
1, 148228, Note_on_c, 0, 47, 53
1, 148232, Note_off_c, 0, 43, 64
1, 148232, Control_c, 0, 64, 0
1, 148268, Note_off_c, 0, 36, 64
1, 148312, Control_c, 0, 64, 127
1, 148320, Note_off_c, 0, 72, 64
1, 148320, Note_off_c, 0, 45, 64
1, 148320, Note_on_c, 0, 48, 51
1, 148360, Note_off_c, 0, 47, 64
1, 148420, Note_on_c, 0, 50, 57
1, 148452, Note_off_c, 0, 48, 64
1, 148516, Note_on_c, 0, 52, 51
1, 148568, Note_off_c, 0, 50, 64
1, 148608, Note_on_c, 0, 56, 59
1, 148608, Note_on_c, 0, 53, 30
1, 148656, Control_c, 0, 64, 127
1, 148664, Note_off_c, 0, 52, 64
1, 148704, Note_on_c, 0, 68, 52
1, 148768, Note_off_c, 0, 53, 64
1, 148792, Note_on_c, 0, 60, 51
1, 148840, Note_off_c, 0, 68, 64
1, 148904, Note_on_c, 0, 62, 46
1, 148924, Note_off_c, 0, 60, 64
1, 148928, Note_off_c, 0, 56, 64
1, 148992, Note_off_c, 0, 62, 64
1, 148992, Note_on_c, 0, 55, 44
1, 148992, Note_on_c, 0, 36, 59
1, 148996, Note_on_c, 0, 67, 48
1, 148996, Note_on_c, 0, 64, 44
1, 149172, Control_c, 0, 64, 0
1, 149184, Note_on_c, 0, 43, 52
1, 149248, Control_c, 0, 64, 0
1, 149288, Note_on_c, 0, 45, 50
1, 149352, Note_off_c, 0, 43, 64
1, 149380, Note_on_c, 0, 47, 53
1, 149388, Control_c, 0, 64, 127
1, 149464, Note_off_c, 0, 45, 64
1, 149472, Note_on_c, 0, 48, 52
1, 149520, Note_off_c, 0, 47, 64
1, 149564, Note_off_c, 0, 36, 64
1, 149572, Note_on_c, 0, 50, 43
1, 149596, Note_off_c, 0, 48, 64
1, 149644, Control_c, 0, 64, 127
1, 149664, Note_on_c, 0, 52, 47
1, 149672, Note_off_c, 0, 55, 64
1, 149676, Note_off_c, 0, 67, 64
1, 149724, Note_off_c, 0, 50, 64
1, 149760, Note_off_c, 0, 64, 64
1, 149760, Control_c, 0, 64, 0
1, 149764, Control_c, 0, 64, 0
1, 149772, Note_on_c, 0, 56, 65
1, 149772, Note_on_c, 0, 53, 54
1, 149812, Note_off_c, 0, 52, 64
1, 149856, Note_on_c, 0, 65, 47
1, 149876, Control_c, 0, 64, 127
1, 149896, Control_c, 0, 64, 127
1, 149952, Note_on_c, 0, 60, 45
1, 149980, Note_off_c, 0, 65, 64
1, 150048, Note_off_c, 0, 56, 64
1, 150048, Note_off_c, 0, 53, 64
1, 150048, Note_on_c, 0, 62, 45
1, 150088, Note_off_c, 0, 60, 64
1, 150144, Note_off_c, 0, 62, 64
1, 150144, Note_on_c, 0, 36, 55
1, 150152, Note_on_c, 0, 64, 47
1, 150160, Note_on_c, 0, 60, 23
1, 150188, Control_c, 0, 64, 0
1, 150224, Control_c, 0, 64, 127
1, 150232, Note_off_c, 0, 60, 64
1, 150304, Control_c, 0, 64, 127
1, 150340, Note_on_c, 0, 60, 50
1, 150400, Note_off_c, 0, 60, 64
1, 150412, Note_off_c, 0, 64, 64
1, 150436, Note_on_c, 0, 55, 28
1, 150436, Note_on_c, 0, 60, 54
1, 150488, Note_off_c, 0, 60, 64
1, 150512, Note_on_c, 0, 60, 58
1, 150532, Note_on_c, 0, 53, 47
1, 150548, Control_c, 0, 64, 0
1, 150584, Note_off_c, 0, 55, 64
1, 150624, Note_on_c, 0, 52, 43
1, 150648, Control_c, 0, 64, 127
1, 150704, Note_off_c, 0, 60, 64
1, 150708, Note_off_c, 0, 53, 64
1, 150720, Note_off_c, 0, 36, 64
1, 150724, Note_on_c, 0, 60, 53
1, 150724, Note_on_c, 0, 48, 52
1, 150764, Note_off_c, 0, 52, 64
1, 150816, Note_on_c, 0, 43, 45
1, 150864, Note_off_c, 0, 48, 64
1, 150912, Note_off_c, 0, 60, 64
1, 150924, Note_on_c, 0, 56, 58
1, 150924, Note_on_c, 0, 41, 43
1, 150956, Note_off_c, 0, 43, 64
1, 150988, Control_c, 0, 64, 0
1, 151016, Note_on_c, 0, 64, 48
1, 151032, Control_c, 0, 64, 127
1, 151108, Control_c, 0, 64, 127
1, 151108, Note_on_c, 0, 60, 47
1, 151124, Note_off_c, 0, 64, 64
1, 151204, Note_on_c, 0, 62, 51
1, 151204, Note_on_c, 0, 59, 56
1, 151248, Note_off_c, 0, 60, 64
1, 151288, Note_off_c, 0, 56, 64
1, 151288, Note_off_c, 0, 41, 64
1, 151300, Note_on_c, 0, 64, 47
1, 151300, Note_on_c, 0, 60, 33
1, 151300, Note_on_c, 0, 36, 61
1, 151344, Note_off_c, 0, 62, 64
1, 151344, Note_off_c, 0, 59, 64
1, 151452, Control_c, 0, 64, 0
1, 151464, Note_off_c, 0, 60, 64
1, 151492, Note_on_c, 0, 60, 47
1, 151508, Control_c, 0, 64, 0
1, 151540, Control_c, 0, 64, 127
1, 151544, Note_off_c, 0, 60, 64
1, 151588, Note_on_c, 0, 60, 56
1, 151588, Note_on_c, 0, 55, 45
1, 151608, Note_off_c, 0, 64, 64
1, 151640, Note_off_c, 0, 60, 64
1, 151656, Control_c, 0, 64, 127
1, 151680, Note_on_c, 0, 53, 51
1, 151684, Note_on_c, 0, 60, 60
1, 151704, Note_off_c, 0, 55, 64
1, 151780, Note_on_c, 0, 52, 49
1, 151808, Note_off_c, 0, 53, 64
1, 151872, Note_off_c, 0, 36, 64
1, 151872, Note_off_c, 0, 60, 64
1, 151884, Note_on_c, 0, 48, 25
1, 151888, Note_on_c, 0, 60, 53
1, 151908, Note_off_c, 0, 52, 64
1, 151964, Note_on_c, 0, 43, 38
1, 152000, Note_off_c, 0, 48, 64
1, 152064, Note_on_c, 0, 56, 53
1, 152068, Note_on_c, 0, 41, 46
1, 152100, Note_off_c, 0, 60, 64
1, 152160, Note_on_c, 0, 64, 51
1, 152172, Note_off_c, 0, 43, 64
1, 152192, Control_c, 0, 64, 0
1, 152260, Note_on_c, 0, 60, 49
1, 152312, Note_off_c, 0, 64, 64
1, 152320, Control_c, 0, 64, 127
1, 152320, Control_c, 0, 64, 0
1, 152352, Note_on_c, 0, 62, 47
1, 152356, Note_on_c, 0, 59, 39
1, 152364, Note_off_c, 0, 41, 64
1, 152404, Note_off_c, 0, 60, 64
1, 152448, Note_off_c, 0, 56, 64
1, 152448, Note_on_c, 0, 64, 47
1, 152448, Note_on_c, 0, 55, 49
1, 152452, Note_on_c, 0, 60, 49
1, 152452, Note_on_c, 0, 36, 59
1, 152496, Note_off_c, 0, 62, 64
1, 152496, Control_c, 0, 64, 127
1, 152500, Note_off_c, 0, 59, 64
1, 152616, Control_c, 0, 64, 0
1, 152640, Note_off_c, 0, 64, 64
1, 152640, Note_off_c, 0, 55, 64
1, 152640, Note_off_c, 0, 60, 64
1, 152640, Note_off_c, 0, 36, 64
1, 152672, Note_on_c, 0, 58, 47
1, 152672, Note_on_c, 0, 64, 47
1, 152680, Note_on_c, 0, 55, 47
1, 152684, Note_on_c, 0, 61, 47
1, 152716, Control_c, 0, 64, 127
1, 152828, Note_on_c, 0, 65, 47
1, 152828, Note_on_c, 0, 56, 47
1, 152832, Note_off_c, 0, 58, 64
1, 152836, Note_off_c, 0, 64, 64
1, 152840, Note_off_c, 0, 55, 64
1, 152840, Note_off_c, 0, 61, 64
1, 152960, Control_c, 0, 64, 0
1, 152976, Note_on_c, 0, 55, 47
1, 152976, Note_on_c, 0, 61, 47
1, 152980, Note_on_c, 0, 64, 47
1, 152984, Note_on_c, 0, 58, 47
1, 152988, Note_off_c, 0, 65, 64
1, 152988, Note_off_c, 0, 56, 64
1, 153028, Control_c, 0, 64, 127
1, 153092, Note_on_c, 0, 68, 47
1, 153100, Note_on_c, 0, 48, 47
1, 153132, Note_off_c, 0, 55, 64
1, 153136, Note_off_c, 0, 61, 64
1, 153136, Note_off_c, 0, 64, 64
1, 153144, Note_off_c, 0, 58, 64
1, 153216, Note_on_c, 0, 64, 47
1, 153216, Note_on_c, 0, 58, 47
1, 153220, Note_on_c, 0, 61, 47
1, 153228, Note_on_c, 0, 67, 47
1, 153252, Note_off_c, 0, 68, 64
1, 153264, Note_off_c, 0, 48, 64
1, 153336, Note_on_c, 0, 68, 47
1, 153344, Note_on_c, 0, 60, 47
1, 153372, Note_off_c, 0, 64, 64
1, 153372, Note_off_c, 0, 58, 64
1, 153380, Note_off_c, 0, 61, 64
1, 153384, Note_off_c, 0, 67, 64
1, 153444, Note_on_c, 0, 64, 47
1, 153444, Note_on_c, 0, 58, 47
1, 153452, Note_on_c, 0, 67, 47
1, 153452, Note_on_c, 0, 61, 47
1, 153496, Note_off_c, 0, 68, 64
1, 153500, Note_off_c, 0, 60, 64
1, 153552, Note_on_c, 0, 72, 47
1, 153552, Note_on_c, 0, 48, 47
1, 153604, Note_off_c, 0, 58, 64
1, 153604, Note_off_c, 0, 64, 64
1, 153608, Note_off_c, 0, 61, 64
1, 153608, Note_off_c, 0, 67, 64
1, 153656, Note_on_c, 0, 70, 47
1, 153656, Note_on_c, 0, 67, 47
1, 153656, Note_on_c, 0, 64, 47
1, 153664, Note_on_c, 0, 61, 47
1, 153712, Note_off_c, 0, 48, 64
1, 153724, Note_off_c, 0, 72, 64
1, 153764, Note_on_c, 0, 63, 47
1, 153772, Note_on_c, 0, 72, 47
1, 153828, Note_off_c, 0, 70, 64
1, 153828, Note_off_c, 0, 67, 64
1, 153828, Note_off_c, 0, 64, 64
1, 153832, Note_off_c, 0, 61, 64
1, 153880, Note_on_c, 0, 70, 47
1, 153884, Note_on_c, 0, 67, 47
1, 153884, Note_on_c, 0, 64, 47
1, 153892, Note_on_c, 0, 61, 47
1, 153924, Note_off_c, 0, 63, 64
1, 153928, Note_off_c, 0, 72, 64
1, 153984, Note_on_c, 0, 60, 47
1, 153988, Note_on_c, 0, 77, 47
1, 154040, Note_off_c, 0, 70, 64
1, 154040, Note_off_c, 0, 67, 64
1, 154040, Note_off_c, 0, 64, 64
1, 154048, Note_off_c, 0, 61, 64
1, 154080, Note_on_c, 0, 76, 47
1, 154084, Note_on_c, 0, 73, 47
1, 154084, Note_on_c, 0, 70, 47
1, 154084, Note_on_c, 0, 67, 47
1, 154132, Control_c, 0, 64, 0
1, 154140, Note_off_c, 0, 60, 64
1, 154148, Note_off_c, 0, 77, 64
1, 154168, Note_on_c, 0, 68, 47
1, 154176, Note_on_c, 0, 77, 47
1, 154232, Control_c, 0, 64, 127
1, 154236, Note_off_c, 0, 76, 64
1, 154244, Note_off_c, 0, 73, 64
1, 154244, Note_off_c, 0, 70, 64
1, 154244, Note_off_c, 0, 67, 64
1, 154272, Note_on_c, 0, 76, 47
1, 154272, Note_on_c, 0, 73, 47
1, 154272, Note_on_c, 0, 70, 47
1, 154280, Note_on_c, 0, 67, 47
1, 154328, Note_off_c, 0, 68, 64
1, 154332, Note_off_c, 0, 77, 64
1, 154368, Note_on_c, 0, 60, 47
1, 154372, Note_on_c, 0, 80, 47
1, 154428, Note_off_c, 0, 76, 64
1, 154428, Note_off_c, 0, 73, 64
1, 154428, Note_off_c, 0, 70, 64
1, 154440, Note_off_c, 0, 67, 64
1, 154464, Note_on_c, 0, 70, 47
1, 154468, Note_on_c, 0, 79, 47
1, 154468, Note_on_c, 0, 76, 47
1, 154468, Note_on_c, 0, 73, 47
1, 154524, Note_off_c, 0, 60, 64
1, 154532, Note_off_c, 0, 80, 64
1, 154560, Note_on_c, 0, 80, 47
1, 154564, Note_on_c, 0, 72, 47
1, 154604, Note_off_c, 0, 70, 64
1, 154628, Note_off_c, 0, 79, 64
1, 154628, Note_off_c, 0, 76, 64
1, 154628, Note_off_c, 0, 73, 64
1, 154656, Note_on_c, 0, 76, 47
1, 154656, Note_on_c, 0, 73, 47
1, 154660, Note_on_c, 0, 79, 47
1, 154660, Note_on_c, 0, 70, 47
1, 154700, Note_off_c, 0, 80, 64
1, 154704, Note_off_c, 0, 72, 64
1, 154752, Note_on_c, 0, 60, 47
1, 154756, Note_on_c, 0, 84, 47
1, 154812, Note_off_c, 0, 76, 64
1, 154812, Note_off_c, 0, 73, 64
1, 154820, Note_off_c, 0, 79, 64
1, 154820, Note_off_c, 0, 70, 64
1, 154848, Note_on_c, 0, 76, 47
1, 154852, Note_on_c, 0, 82, 47
1, 154852, Note_on_c, 0, 79, 47
1, 154860, Note_on_c, 0, 73, 47
1, 154908, Note_off_c, 0, 60, 64
1, 154916, Note_off_c, 0, 84, 64
1, 154960, Note_on_c, 0, 75, 47
1, 154964, Note_on_c, 0, 84, 47
1, 154972, Note_on_c, 0, 76, 47
1, 154988, Note_off_c, 0, 76, 64
1, 154992, Note_off_c, 0, 79, 64
1, 154996, Note_off_c, 0, 82, 64
1, 155000, Note_off_c, 0, 73, 64
1, 155008, Note_off_c, 0, 76, 64
1, 155084, Note_on_c, 0, 73, 47
1, 155088, Note_on_c, 0, 79, 47
1, 155092, Note_on_c, 0, 82, 47
1, 155096, Note_on_c, 0, 76, 47
1, 155112, Note_off_c, 0, 75, 64
1, 155116, Note_off_c, 0, 84, 64
1, 155208, Note_on_c, 0, 75, 47
1, 155212, Note_on_c, 0, 84, 47
1, 155224, Note_off_c, 0, 73, 64
1, 155232, Note_off_c, 0, 79, 64
1, 155232, Note_off_c, 0, 82, 64
1, 155236, Note_off_c, 0, 76, 64
1, 155320, Note_on_c, 0, 82, 47
1, 155324, Note_on_c, 0, 79, 47
1, 155336, Note_on_c, 0, 76, 47
1, 155336, Note_on_c, 0, 73, 47
1, 155352, Note_off_c, 0, 75, 64
1, 155352, Note_off_c, 0, 84, 64
1, 155456, Note_on_c, 0, 84, 47
1, 155464, Note_off_c, 0, 79, 64
1, 155464, Note_on_c, 0, 72, 47
1, 155472, Note_off_c, 0, 82, 64
1, 155476, Note_off_c, 0, 76, 64
1, 155476, Note_off_c, 0, 73, 64
1, 155576, Note_on_c, 0, 82, 47
1, 155580, Note_on_c, 0, 79, 47
1, 155580, Note_on_c, 0, 73, 47
1, 155588, Note_on_c, 0, 76, 47
1, 155596, Note_off_c, 0, 84, 64
1, 155604, Note_off_c, 0, 72, 64
1, 155704, Note_on_c, 0, 84, 47
1, 155712, Note_on_c, 0, 75, 47
1, 155720, Note_off_c, 0, 79, 64
1, 155720, Note_off_c, 0, 73, 64
1, 155728, Note_off_c, 0, 82, 64
1, 155728, Note_off_c, 0, 76, 64
1, 155816, Note_on_c, 0, 82, 47
1, 155820, Note_on_c, 0, 79, 47
1, 155820, Note_on_c, 0, 73, 47
1, 155836, Note_on_c, 0, 76, 47
1, 155840, Note_off_c, 0, 84, 64
1, 155852, Note_off_c, 0, 75, 64
1, 155904, Note_on_c, 0, 84, 47
1, 155908, Note_on_c, 0, 72, 47
1, 155960, Note_off_c, 0, 79, 64
1, 155960, Note_off_c, 0, 73, 64
1, 155968, Note_off_c, 0, 82, 64
1, 155976, Note_off_c, 0, 76, 64
1, 156000, Note_on_c, 0, 73, 47
1, 156004, Note_on_c, 0, 82, 47
1, 156004, Note_on_c, 0, 79, 47
1, 156004, Note_on_c, 0, 76, 47
1, 156048, Note_off_c, 0, 72, 64
1, 156052, Note_off_c, 0, 84, 64
1, 156096, Note_on_c, 0, 75, 47
1, 156100, Note_on_c, 0, 84, 47
1, 156140, Note_off_c, 0, 73, 64
1, 156144, Note_off_c, 0, 79, 64
1, 156144, Note_off_c, 0, 76, 64
1, 156168, Note_off_c, 0, 82, 64
1, 156192, Note_on_c, 0, 82, 47
1, 156192, Note_on_c, 0, 79, 47
1, 156196, Note_on_c, 0, 76, 47
1, 156196, Note_on_c, 0, 73, 47
1, 156252, Note_off_c, 0, 75, 64
1, 156260, Note_off_c, 0, 84, 64
1, 156280, Note_on_c, 0, 84, 47
1, 156292, Note_on_c, 0, 72, 47
1, 156348, Note_off_c, 0, 82, 64
1, 156348, Note_off_c, 0, 79, 64
1, 156356, Note_off_c, 0, 76, 64
1, 156356, Note_off_c, 0, 73, 64
1, 156368, Note_on_c, 0, 82, 47
1, 156368, Note_on_c, 0, 79, 47
1, 156368, Note_on_c, 0, 76, 47
1, 156368, Note_on_c, 0, 73, 47
1, 156432, Note_off_c, 0, 72, 64
1, 156440, Note_off_c, 0, 84, 64
1, 156452, Control_c, 0, 64, 0
1, 156480, Note_on_c, 0, 80, 47
1, 156480, Note_on_c, 0, 72, 47
1, 156508, Control_c, 0, 64, 127
1, 156512, Note_off_c, 0, 73, 64
1, 156528, Note_off_c, 0, 79, 64
1, 156528, Note_off_c, 0, 76, 64
1, 156532, Note_off_c, 0, 82, 64
1, 156576, Note_on_c, 0, 79, 47
1, 156576, Note_on_c, 0, 70, 47
1, 156580, Note_on_c, 0, 73, 47
1, 156640, Note_off_c, 0, 80, 64
1, 156644, Note_off_c, 0, 72, 64
1, 156672, Note_on_c, 0, 77, 48
1, 156672, Note_on_c, 0, 68, 48
1, 156732, Note_off_c, 0, 70, 64
1, 156732, Note_off_c, 0, 79, 64
1, 156740, Note_off_c, 0, 73, 64
1, 156768, Note_on_c, 0, 70, 49
1, 156768, Note_on_c, 0, 67, 49
1, 156772, Note_on_c, 0, 76, 49
1, 156824, Note_off_c, 0, 77, 64
1, 156828, Note_off_c, 0, 68, 64
1, 156864, Note_on_c, 0, 73, 49
1, 156868, Note_on_c, 0, 65, 49
1, 156924, Note_off_c, 0, 70, 64
1, 156924, Note_off_c, 0, 67, 64
1, 156932, Note_off_c, 0, 76, 64
1, 156960, Note_on_c, 0, 67, 50
1, 156960, Note_on_c, 0, 64, 50
1, 156964, Note_on_c, 0, 72, 50
1, 157004, Note_off_c, 0, 73, 64
1, 157008, Note_off_c, 0, 65, 64
1, 157056, Note_on_c, 0, 70, 51
1, 157056, Note_on_c, 0, 61, 51
1, 157100, Note_off_c, 0, 67, 64
1, 157100, Note_off_c, 0, 64, 64
1, 157104, Note_off_c, 0, 72, 64
1, 157152, Note_on_c, 0, 68, 51
1, 157152, Note_on_c, 0, 64, 51
1, 157156, Note_on_c, 0, 60, 51
1, 157212, Note_off_c, 0, 70, 64
1, 157212, Note_off_c, 0, 61, 64
1, 157248, Note_on_c, 0, 58, 52
1, 157252, Note_on_c, 0, 67, 52
1, 157308, Note_off_c, 0, 68, 64
1, 157308, Note_off_c, 0, 64, 64
1, 157316, Note_off_c, 0, 60, 64
1, 157336, Note_on_c, 0, 56, 52
1, 157344, Note_on_c, 0, 65, 52
1, 157348, Note_on_c, 0, 61, 52
1, 157404, Note_off_c, 0, 58, 64
1, 157412, Note_off_c, 0, 67, 64
1, 157440, Note_on_c, 0, 64, 52
1, 157440, Note_on_c, 0, 55, 52
1, 157496, Note_off_c, 0, 56, 64
1, 157500, Note_off_c, 0, 65, 64
1, 157512, Note_off_c, 0, 61, 64
1, 157592, Note_off_c, 0, 55, 64
1, 157632, Note_on_c, 0, 68, 58
1, 157632, Note_on_c, 0, 59, 56
1, 157632, Note_on_c, 0, 35, 56
1, 157636, Note_on_c, 0, 56, 62
1, 157728, Note_off_c, 0, 64, 64
1, 157792, Control_c, 0, 64, 0
1, 157828, Note_on_c, 0, 64, 51
1, 157828, Note_on_c, 0, 47, 37
1, 157884, Control_c, 0, 64, 127
1, 157888, Note_off_c, 0, 64, 64
1, 157920, Note_off_c, 0, 47, 64
1, 157924, Note_on_c, 0, 64, 57
1, 157924, Note_on_c, 0, 49, 51
1, 157992, Note_off_c, 0, 68, 64
1, 157992, Note_off_c, 0, 59, 64
1, 157992, Note_off_c, 0, 64, 64
1, 158000, Note_off_c, 0, 56, 64
1, 158000, Note_on_c, 0, 64, 51
1, 158016, Note_off_c, 0, 49, 64
1, 158020, Note_on_c, 0, 51, 52
1, 158112, Note_off_c, 0, 35, 64
1, 158112, Note_on_c, 0, 52, 21
1, 158160, Note_off_c, 0, 51, 64
1, 158192, Note_off_c, 0, 64, 64
1, 158212, Note_on_c, 0, 64, 54
1, 158216, Note_on_c, 0, 54, 51
1, 158256, Note_off_c, 0, 52, 64
1, 158308, Note_on_c, 0, 56, 51
1, 158364, Note_off_c, 0, 54, 64
1, 158400, Note_on_c, 0, 57, 22
1, 158404, Note_on_c, 0, 61, 63
1, 158424, Note_off_c, 0, 64, 64
1, 158440, Note_off_c, 0, 56, 64
1, 158496, Note_on_c, 0, 69, 53
1, 158540, Control_c, 0, 64, 0
1, 158592, Note_on_c, 0, 64, 49
1, 158600, Note_off_c, 0, 69, 64
1, 158640, Control_c, 0, 64, 127
1, 158688, Note_on_c, 0, 66, 51
1, 158716, Note_off_c, 0, 61, 64
1, 158732, Note_off_c, 0, 64, 64
1, 158776, Note_off_c, 0, 57, 64
1, 158796, Note_on_c, 0, 56, 58
1, 158800, Note_on_c, 0, 68, 53
1, 158800, Note_on_c, 0, 64, 53
1, 158808, Note_on_c, 0, 35, 51
1, 158816, Control_c, 0, 64, 0
1, 158828, Note_off_c, 0, 66, 64
1, 158876, Control_c, 0, 64, 127
1, 158880, Note_off_c, 0, 64, 64
1, 158980, Note_on_c, 0, 64, 53
1, 158980, Note_on_c, 0, 47, 57
1, 159040, Note_off_c, 0, 56, 64
1, 159048, Note_off_c, 0, 64, 64
1, 159072, Note_on_c, 0, 64, 53
1, 159072, Note_on_c, 0, 49, 47
1, 159104, Note_off_c, 0, 47, 64
1, 159152, Note_off_c, 0, 68, 64
1, 159152, Note_off_c, 0, 64, 64
1, 159156, Control_c, 0, 64, 0
1, 159168, Note_on_c, 0, 64, 57
1, 159172, Note_on_c, 0, 51, 57
1, 159244, Control_c, 0, 64, 127
1, 159248, Note_off_c, 0, 49, 64
1, 159264, Note_off_c, 0, 35, 64
1, 159264, Note_on_c, 0, 52, 42
1, 159332, Note_off_c, 0, 51, 64
1, 159360, Note_off_c, 0, 64, 64
1, 159364, Note_on_c, 0, 54, 44
1, 159372, Note_on_c, 0, 64, 58
1, 159396, Note_off_c, 0, 52, 64
1, 159460, Note_on_c, 0, 56, 54
1, 159492, Note_off_c, 0, 54, 64
1, 159552, Note_off_c, 0, 64, 64
1, 159556, Note_on_c, 0, 59, 59
1, 159560, Note_on_c, 0, 57, 56
1, 159608, Control_c, 0, 64, 0
1, 159620, Note_off_c, 0, 56, 64
1, 159648, Note_on_c, 0, 66, 49
1, 159700, Control_c, 0, 64, 127
1, 159732, Note_off_c, 0, 59, 64
1, 159748, Note_on_c, 0, 61, 64
1, 159776, Note_off_c, 0, 66, 64
1, 159824, Control_c, 0, 64, 0
1, 159844, Note_on_c, 0, 63, 43
1, 159888, Note_off_c, 0, 61, 64
1, 159936, Note_on_c, 0, 59, 56
1, 159940, Note_on_c, 0, 64, 54
1, 159940, Note_on_c, 0, 40, 47
1, 159944, Note_off_c, 0, 57, 64
1, 159948, Control_c, 0, 64, 127
1, 159980, Control_c, 0, 64, 0
1, 160016, Note_off_c, 0, 63, 64
1, 160048, Control_c, 0, 64, 127
1, 160056, Note_off_c, 0, 59, 64
1, 160124, Note_off_c, 0, 64, 64
1, 160132, Note_on_c, 0, 59, 45
1, 160188, Note_off_c, 0, 59, 64
1, 160224, Note_on_c, 0, 56, 39
1, 160228, Note_on_c, 0, 59, 51
1, 160280, Note_off_c, 0, 59, 64
1, 160320, Note_on_c, 0, 59, 58
1, 160320, Note_on_c, 0, 54, 57
1, 160352, Note_off_c, 0, 56, 64
1, 160416, Control_c, 0, 64, 0
1, 160420, Note_on_c, 0, 52, 52
1, 160456, Note_off_c, 0, 54, 64
1, 160472, Control_c, 0, 64, 127
1, 160512, Note_off_c, 0, 59, 64
1, 160512, Note_on_c, 0, 51, 43
1, 160516, Note_off_c, 0, 40, 64
1, 160524, Note_on_c, 0, 59, 53
1, 160568, Note_off_c, 0, 52, 64
1, 160608, Note_on_c, 0, 49, 45
1, 160624, Note_off_c, 0, 51, 64
1, 160704, Note_off_c, 0, 59, 64
1, 160708, Note_on_c, 0, 47, 41
1, 160716, Note_on_c, 0, 57, 46
1, 160716, Note_on_c, 0, 59, 49
1, 160756, Control_c, 0, 64, 127
1, 160760, Control_c, 0, 64, 0
1, 160764, Note_off_c, 0, 49, 64
1, 160804, Note_on_c, 0, 66, 54
1, 160852, Control_c, 0, 64, 127
1, 160884, Note_off_c, 0, 59, 64
1, 160896, Note_off_c, 0, 47, 64
1, 160896, Note_on_c, 0, 61, 51
1, 160896, Note_on_c, 0, 47, 41
1, 160924, Note_off_c, 0, 66, 64
1, 160968, Note_off_c, 0, 47, 64
1, 160996, Note_on_c, 0, 63, 49
1, 161024, Note_off_c, 0, 61, 64
1, 161088, Note_on_c, 0, 64, 51
1, 161092, Note_on_c, 0, 40, 49
1, 161112, Control_c, 0, 64, 0
1, 161160, Note_off_c, 0, 63, 64
1, 161192, Control_c, 0, 64, 0
1, 161240, Control_c, 0, 64, 127
1, 161256, Control_c, 0, 64, 127
1, 161284, Note_on_c, 0, 59, 49
1, 161336, Note_off_c, 0, 59, 64
1, 161376, Note_off_c, 0, 64, 64
1, 161380, Note_on_c, 0, 59, 58
1, 161380, Note_on_c, 0, 56, 53
1, 161452, Note_off_c, 0, 59, 64
1, 161472, Note_on_c, 0, 59, 58
1, 161476, Note_on_c, 0, 54, 57
1, 161508, Note_off_c, 0, 56, 64
1, 161524, Note_off_c, 0, 57, 64
1, 161544, Control_c, 0, 64, 0
1, 161572, Note_on_c, 0, 52, 47
1, 161624, Note_off_c, 0, 54, 64
1, 161664, Note_on_c, 0, 51, 45
1, 161668, Note_off_c, 0, 40, 64
1, 161668, Note_on_c, 0, 60, 53
1, 161672, Control_c, 0, 64, 127
1, 161680, Note_off_c, 0, 59, 64
1, 161740, Note_off_c, 0, 52, 64
1, 161760, Note_on_c, 0, 50, 46
1, 161832, Note_off_c, 0, 51, 64
1, 161856, Note_off_c, 0, 60, 64
1, 161856, Note_on_c, 0, 49, 52
1, 161856, Note_on_c, 0, 41, 49
1, 161860, Note_on_c, 0, 61, 52
1, 161860, Note_on_c, 0, 59, 45
1, 161880, Control_c, 0, 64, 0
1, 161916, Note_off_c, 0, 50, 64
1, 161956, Note_on_c, 0, 71, 45
1, 161996, Control_c, 0, 64, 127
1, 162028, Note_off_c, 0, 61, 64
1, 162048, Note_on_c, 0, 66, 47
1, 162064, Note_off_c, 0, 71, 64
1, 162148, Note_on_c, 0, 68, 49
1, 162224, Note_off_c, 0, 66, 64
1, 162232, Note_on_c, 0, 61, 49
1, 162236, Note_off_c, 0, 49, 64
1, 162240, Note_off_c, 0, 41, 64
1, 162240, Note_off_c, 0, 59, 64
1, 162240, Note_on_c, 0, 42, 45
1, 162240, Note_on_c, 0, 69, 51
1, 162244, Note_on_c, 0, 57, 50
1, 162264, Control_c, 0, 64, 0
1, 162308, Note_off_c, 0, 68, 64
1, 162348, Control_c, 0, 64, 127
1, 162352, Control_c, 0, 64, 127
1, 162424, Note_off_c, 0, 61, 64
1, 162432, Note_on_c, 0, 61, 62
1, 162432, Note_on_c, 0, 49, 47
1, 162488, Note_off_c, 0, 61, 64
1, 162516, Note_off_c, 0, 69, 64
1, 162520, Note_off_c, 0, 57, 64
1, 162532, Note_on_c, 0, 61, 66
1, 162532, Note_on_c, 0, 51, 56
1, 162560, Note_off_c, 0, 49, 64
1, 162588, Note_off_c, 0, 61, 64
1, 162624, Note_on_c, 0, 61, 66
1, 162628, Note_on_c, 0, 53, 56
1, 162648, Note_off_c, 0, 51, 64
1, 162660, Control_c, 0, 64, 0
1, 162680, Control_c, 0, 64, 127
1, 162696, Note_off_c, 0, 61, 64
1, 162724, Note_on_c, 0, 54, 60
1, 162768, Note_off_c, 0, 53, 64
1, 162800, Note_on_c, 0, 61, 63
1, 162812, Tempo, 500000
1, 162812, Note_off_c, 0, 42, 64
1, 162812, Tempo, 500000
1, 162812, Note_on_c, 0, 56, 47
1, 162868, Note_off_c, 0, 54, 64
1, 162912, Note_on_c, 0, 57, 55
1, 162928, Note_off_c, 0, 56, 64
1, 162956, Control_c, 0, 64, 0
1, 162988, Note_off_c, 0, 61, 64
1, 163004, Note_on_c, 0, 59, 47
1, 163008, Note_on_c, 0, 61, 51
1, 163008, Note_on_c, 0, 49, 44
1, 163072, Note_off_c, 0, 57, 64
1, 163096, Note_on_c, 0, 68, 57
1, 163112, Control_c, 0, 64, 127
1, 163200, Note_on_c, 0, 63, 48
1, 163220, Note_off_c, 0, 61, 64
1, 163220, Note_off_c, 0, 68, 64
1, 163268, Note_off_c, 0, 49, 64
1, 163296, Note_on_c, 0, 65, 54
1, 163348, Note_off_c, 0, 63, 64
1, 163392, Note_on_c, 0, 66, 59
1, 163392, Note_on_c, 0, 42, 56
1, 163420, Control_c, 0, 64, 0
1, 163440, Note_off_c, 0, 65, 64
1, 163484, Control_c, 0, 64, 127
1, 163580, Note_on_c, 0, 61, 57
1, 163636, Note_off_c, 0, 61, 64
1, 163680, Note_on_c, 0, 61, 57
1, 163680, Note_on_c, 0, 57, 54
1, 163696, Note_off_c, 0, 66, 64
1, 163744, Note_off_c, 0, 61, 64
1, 163756, Control_c, 0, 64, 0
1, 163772, Note_off_c, 0, 59, 64
1, 163772, Note_on_c, 0, 61, 57
1, 163776, Note_on_c, 0, 56, 53
1, 163788, Note_off_c, 0, 57, 64
1, 163868, Note_on_c, 0, 54, 59
1, 163912, Control_c, 0, 64, 127
1, 163924, Note_off_c, 0, 56, 64
1, 163968, Note_off_c, 0, 42, 64
1, 163968, Note_on_c, 0, 62, 57
1, 163968, Note_on_c, 0, 53, 38
1, 163980, Note_off_c, 0, 61, 64
1, 164064, Note_off_c, 0, 54, 64
1, 164064, Note_on_c, 0, 52, 54
1, 164112, Note_off_c, 0, 53, 64
1, 164156, Note_off_c, 0, 62, 64
1, 164156, Note_on_c, 0, 63, 63
1, 164160, Note_on_c, 0, 51, 47
1, 164160, Note_on_c, 0, 58, 67
1, 164168, Note_on_c, 0, 43, 42
1, 164180, Control_c, 0, 64, 0
1, 164224, Note_off_c, 0, 52, 64
1, 164256, Note_on_c, 0, 73, 63
1, 164284, Control_c, 0, 64, 127
1, 164340, Note_off_c, 0, 63, 64
1, 164352, Note_off_c, 0, 73, 64
1, 164360, Note_on_c, 0, 68, 59
1, 164448, Note_on_c, 0, 70, 54
1, 164452, Note_off_c, 0, 58, 64
1, 164516, Note_off_c, 0, 68, 64
1, 164540, Note_on_c, 0, 63, 57
1, 164544, Note_on_c, 0, 71, 59
1, 164544, Note_on_c, 0, 59, 60
1, 164552, Note_off_c, 0, 70, 64
1, 164552, Note_on_c, 0, 44, 59
1, 164584, Note_off_c, 0, 43, 64
1, 164584, Note_off_c, 0, 51, 64
1, 164596, Control_c, 0, 64, 0
1, 164612, Control_c, 0, 64, 0
1, 164716, Control_c, 0, 64, 127
1, 164732, Note_off_c, 0, 63, 64
1, 164736, Note_on_c, 0, 51, 51
1, 164744, Note_on_c, 0, 63, 57
1, 164800, Note_off_c, 0, 63, 64
1, 164820, Note_off_c, 0, 59, 64
1, 164828, Note_on_c, 0, 63, 57
1, 164832, Note_on_c, 0, 53, 56
1, 164888, Note_off_c, 0, 71, 64
1, 164892, Note_off_c, 0, 51, 64
1, 164892, Note_off_c, 0, 63, 64
1, 164928, Note_on_c, 0, 63, 71
1, 164928, Note_on_c, 0, 55, 64
1, 164988, Note_off_c, 0, 53, 64
1, 165020, Note_on_c, 0, 56, 65
1, 165064, Note_off_c, 0, 55, 64
1, 165072, Control_c, 0, 64, 0
1, 165108, Note_off_c, 0, 63, 64
1, 165116, Note_on_c, 0, 63, 68
1, 165120, Note_on_c, 0, 58, 61
1, 165124, Note_off_c, 0, 44, 64
1, 165148, Note_off_c, 0, 56, 64
1, 165184, Control_c, 0, 64, 127
1, 165216, Note_on_c, 0, 59, 40
1, 165236, Note_off_c, 0, 58, 64
1, 165308, Note_off_c, 0, 63, 64
1, 165312, Note_on_c, 0, 63, 61
1, 165312, Note_on_c, 0, 61, 56
1, 165320, Note_on_c, 0, 51, 41
1, 165324, Note_on_c, 0, 58, 45
1, 165336, Control_c, 0, 64, 0
1, 165372, Control_c, 0, 64, 0
1, 165376, Note_off_c, 0, 59, 64
1, 165408, Note_on_c, 0, 70, 57
1, 165432, Control_c, 0, 64, 127
1, 165496, Control_c, 0, 64, 127
1, 165504, Note_on_c, 0, 65, 62
1, 165512, Note_off_c, 0, 63, 64
1, 165524, Note_off_c, 0, 58, 64
1, 165532, Note_off_c, 0, 70, 64
1, 165600, Note_on_c, 0, 67, 59
1, 165660, Note_off_c, 0, 65, 64
1, 165684, Note_on_c, 0, 68, 62
1, 165692, Note_on_c, 0, 44, 62
1, 165696, Note_on_c, 0, 63, 57
1, 165704, Note_off_c, 0, 51, 64
1, 165724, Note_off_c, 0, 67, 64
1, 165736, Control_c, 0, 64, 0
1, 165776, Control_c, 0, 64, 0
1, 165800, Note_off_c, 0, 61, 64
1, 165856, Control_c, 0, 64, 127
1, 165876, Note_off_c, 0, 63, 64
1, 165884, Note_off_c, 0, 68, 64
1, 165884, Note_on_c, 0, 51, 51
1, 165888, Note_on_c, 0, 63, 57
1, 165888, Note_on_c, 0, 59, 47
1, 165948, Note_off_c, 0, 63, 64
1, 165984, Note_on_c, 0, 63, 57
1, 165992, Note_on_c, 0, 53, 59
1, 166016, Note_off_c, 0, 51, 64
1, 166044, Note_off_c, 0, 63, 64
1, 166076, Note_on_c, 0, 63, 57
1, 166080, Note_on_c, 0, 55, 45
1, 166084, Note_off_c, 0, 59, 64
1, 166104, Note_off_c, 0, 53, 64
1, 166172, Note_on_c, 0, 56, 58
1, 166216, Note_off_c, 0, 63, 64
1, 166220, Note_on_c, 0, 63, 57
1, 166232, Note_off_c, 0, 55, 64
1, 166260, Control_c, 0, 64, 0
1, 166264, Note_off_c, 0, 44, 64
1, 166268, Note_on_c, 0, 58, 66
1, 166328, Note_off_c, 0, 63, 64
1, 166332, Note_off_c, 0, 56, 64
1, 166336, Note_on_c, 0, 63, 66
1, 166368, Note_on_c, 0, 59, 56
1, 166384, Note_off_c, 0, 58, 64
1, 166392, Control_c, 0, 64, 127
1, 166460, Note_off_c, 0, 63, 64
1, 166460, Note_off_c, 0, 59, 64
1, 166492, Note_on_c, 0, 63, 61
1, 166496, Note_on_c, 0, 61, 57
1, 166496, Note_on_c, 0, 58, 61
1, 166556, Control_c, 0, 64, 0
1, 166568, Note_on_c, 0, 70, 60
1, 166588, Note_off_c, 0, 58, 64
1, 166632, Note_off_c, 0, 63, 64
1, 166636, Control_c, 0, 64, 127
1, 166676, Note_on_c, 0, 65, 62
1, 166708, Note_off_c, 0, 70, 64
1, 166748, Control_c, 0, 64, 0
1, 166764, Note_on_c, 0, 67, 56
1, 166764, Note_on_c, 0, 58, 59
1, 166772, Note_off_c, 0, 65, 64
1, 166880, Control_c, 0, 64, 127
1, 166884, Note_off_c, 0, 67, 64
1, 166896, Note_off_c, 0, 58, 64
1, 166940, Note_off_c, 0, 61, 64
1, 166944, Note_on_c, 0, 38, 63
1, 166944, Note_on_c, 0, 50, 56
1, 166944, Note_on_c, 0, 68, 59
1, 166944, Note_on_c, 0, 59, 59
1, 166948, Control_c, 0, 64, 0
1, 167004, Control_c, 0, 64, 127
1, 167136, Note_off_c, 0, 59, 64
1, 167224, Note_off_c, 0, 68, 64
1, 167228, Note_on_c, 0, 59, 55
1, 167232, Note_on_c, 0, 64, 51
1, 167232, Note_on_c, 0, 56, 54
1, 167392, Note_off_c, 0, 56, 64
1, 167392, Control_c, 0, 64, 0
1, 167392, Note_on_c, 0, 57, 46
1, 167392, Note_on_c, 0, 66, 53
1, 167396, Note_off_c, 0, 64, 64
1, 167420, Note_on_c, 0, 59, 25
1, 167428, Note_off_c, 0, 59, 64
1, 167428, Note_off_c, 0, 59, 64
1, 167516, Note_on_c, 0, 64, 47
1, 167516, Note_on_c, 0, 56, 46
1, 167520, Note_off_c, 0, 38, 64
1, 167520, Note_off_c, 0, 50, 64
1, 167520, Note_on_c, 0, 59, 54
1, 167524, Control_c, 0, 64, 127
1, 167552, Note_off_c, 0, 57, 64
1, 167552, Note_off_c, 0, 66, 64
1, 167612, Note_on_c, 0, 50, 60
1, 167616, Note_on_c, 0, 71, 55
1, 167672, Note_off_c, 0, 64, 64
1, 167672, Note_off_c, 0, 56, 64
1, 167680, Note_off_c, 0, 59, 64
1, 167708, Note_on_c, 0, 68, 58
1, 167712, Note_on_c, 0, 64, 58
1, 167712, Note_on_c, 0, 59, 26
1, 167768, Note_off_c, 0, 50, 64
1, 167776, Note_off_c, 0, 71, 64
1, 167812, Note_on_c, 0, 61, 61
1, 167812, Note_on_c, 0, 69, 52
1, 167848, Note_off_c, 0, 68, 64
1, 167852, Note_off_c, 0, 64, 64
1, 167852, Note_off_c, 0, 59, 64
1, 167904, Note_on_c, 0, 68, 56
1, 167904, Note_on_c, 0, 64, 56
1, 167904, Note_on_c, 0, 59, 51
1, 167952, Note_off_c, 0, 61, 64
1, 167952, Note_off_c, 0, 69, 64
1, 168000, Note_on_c, 0, 76, 51
1, 168000, Note_on_c, 0, 50, 54
1, 168064, Note_off_c, 0, 68, 64
1, 168064, Note_off_c, 0, 64, 64
1, 168064, Note_off_c, 0, 59, 64
1, 168092, Note_on_c, 0, 71, 55
1, 168092, Note_on_c, 0, 68, 63
1, 168096, Note_on_c, 0, 62, 51
1, 168160, Note_off_c, 0, 76, 64
1, 168160, Note_off_c, 0, 50, 64
1, 168176, Note_on_c, 0, 64, 44
1, 168180, Control_c, 0, 64, 127
1, 168188, Note_on_c, 0, 73, 54
1, 168232, Note_off_c, 0, 71, 64
1, 168232, Note_off_c, 0, 68, 64
1, 168236, Note_off_c, 0, 62, 64
1, 168288, Note_on_c, 0, 71, 59
1, 168288, Note_on_c, 0, 68, 60
1, 168288, Note_on_c, 0, 62, 20
1, 168316, Note_off_c, 0, 64, 64
1, 168328, Note_off_c, 0, 73, 64
1, 168384, Note_on_c, 0, 80, 70
1, 168384, Note_on_c, 0, 50, 32
1, 168448, Note_off_c, 0, 71, 64
1, 168448, Note_off_c, 0, 68, 64
1, 168448, Note_off_c, 0, 62, 64
1, 168476, Note_on_c, 0, 68, 62
1, 168480, Note_on_c, 0, 76, 45
1, 168480, Note_on_c, 0, 71, 52
1, 168544, Note_off_c, 0, 80, 64
1, 168544, Note_off_c, 0, 50, 64
1, 168576, Note_on_c, 0, 78, 66
1, 168576, Note_on_c, 0, 69, 61
1, 168632, Note_off_c, 0, 68, 64
1, 168640, Note_off_c, 0, 76, 64
1, 168640, Note_off_c, 0, 71, 64
1, 168668, Note_on_c, 0, 76, 56
1, 168672, Note_on_c, 0, 71, 61
1, 168672, Note_on_c, 0, 68, 56
1, 168716, Note_off_c, 0, 78, 64
1, 168716, Note_off_c, 0, 69, 64
1, 168764, Note_on_c, 0, 83, 62
1, 168768, Note_on_c, 0, 62, 62
1, 168824, Note_off_c, 0, 76, 64
1, 168832, Note_off_c, 0, 71, 64
1, 168832, Note_off_c, 0, 68, 64
1, 168860, Note_on_c, 0, 80, 68
1, 168864, Note_on_c, 0, 76, 64
1, 168864, Note_on_c, 0, 71, 58
1, 168920, Note_off_c, 0, 83, 64
1, 168924, Note_off_c, 0, 62, 64
1, 168956, Note_on_c, 0, 81, 64
1, 168956, Note_on_c, 0, 73, 58
1, 169000, Note_off_c, 0, 80, 64
1, 169004, Note_off_c, 0, 71, 64
1, 169004, Note_off_c, 0, 76, 64
1, 169056, Note_on_c, 0, 76, 63
1, 169056, Note_on_c, 0, 71, 57
1, 169064, Note_on_c, 0, 80, 70
1, 169096, Note_off_c, 0, 81, 64
1, 169096, Note_off_c, 0, 73, 64
1, 169152, Note_on_c, 0, 88, 59
1, 169152, Note_on_c, 0, 62, 61
1, 169216, Note_off_c, 0, 76, 64
1, 169216, Note_off_c, 0, 71, 64
1, 169220, Note_off_c, 0, 80, 64
1, 169248, Note_on_c, 0, 83, 62
1, 169248, Note_on_c, 0, 74, 60
1, 169260, Note_on_c, 0, 80, 70
1, 169312, Note_off_c, 0, 88, 64
1, 169312, Note_off_c, 0, 62, 64
1, 169340, Note_on_c, 0, 85, 65
1, 169344, Note_on_c, 0, 76, 56
1, 169388, Note_off_c, 0, 83, 64
1, 169388, Note_off_c, 0, 74, 64
1, 169400, Note_off_c, 0, 80, 64
1, 169436, Note_on_c, 0, 80, 68
1, 169440, Note_on_c, 0, 83, 68
1, 169440, Note_on_c, 0, 74, 60
1, 169480, Note_off_c, 0, 85, 64
1, 169484, Note_off_c, 0, 76, 64
1, 169532, Note_on_c, 0, 92, 63
1, 169536, Note_on_c, 0, 62, 66
1, 169576, Note_off_c, 0, 80, 64
1, 169580, Note_off_c, 0, 83, 64
1, 169580, Note_off_c, 0, 74, 64
1, 169632, Note_on_c, 0, 88, 66
1, 169632, Note_on_c, 0, 80, 84
1, 169640, Note_on_c, 0, 83, 45
1, 169688, Note_off_c, 0, 92, 64
1, 169696, Note_off_c, 0, 62, 64
1, 169724, Note_on_c, 0, 81, 44
1, 169728, Note_on_c, 0, 90, 55
1, 169772, Note_off_c, 0, 88, 64
1, 169772, Note_off_c, 0, 80, 64
1, 169780, Note_off_c, 0, 83, 64
1, 169820, Note_on_c, 0, 80, 68
1, 169824, Note_on_c, 0, 88, 57
1, 169824, Note_on_c, 0, 83, 59
1, 169864, Note_off_c, 0, 81, 64
1, 169868, Note_off_c, 0, 90, 64
1, 169916, Note_on_c, 0, 92, 73
1, 169928, Note_on_c, 0, 74, 53
1, 169976, Note_off_c, 0, 80, 64
1, 169984, Note_off_c, 0, 88, 64
1, 169984, Note_off_c, 0, 83, 64
1, 170016, Note_on_c, 0, 88, 62
1, 170016, Note_on_c, 0, 83, 61
1, 170016, Note_on_c, 0, 80, 63
1, 170072, Note_off_c, 0, 92, 64
1, 170084, Note_off_c, 0, 74, 64
1, 170108, Note_on_c, 0, 81, 63
1, 170112, Note_on_c, 0, 89, 61
1, 170160, Note_off_c, 0, 88, 64
1, 170160, Note_off_c, 0, 83, 64
1, 170160, Note_off_c, 0, 80, 64
1, 170204, Note_on_c, 0, 88, 67
1, 170204, Note_on_c, 0, 83, 69
1, 170208, Note_on_c, 0, 80, 67
1, 170264, Note_off_c, 0, 81, 64
1, 170272, Note_off_c, 0, 89, 64
1, 170304, Note_on_c, 0, 92, 76
1, 170304, Note_on_c, 0, 74, 56
1, 170344, Note_off_c, 0, 88, 64
1, 170344, Note_off_c, 0, 83, 64
1, 170348, Note_off_c, 0, 80, 64
1, 170400, Note_on_c, 0, 88, 67
1, 170400, Note_on_c, 0, 83, 57
1, 170400, Note_on_c, 0, 80, 56
1, 170464, Note_off_c, 0, 92, 64
1, 170464, Note_off_c, 0, 74, 64
1, 170496, Note_on_c, 0, 90, 62
1, 170496, Note_on_c, 0, 81, 57
1, 170560, Note_off_c, 0, 80, 64
1, 170560, Note_off_c, 0, 83, 64
1, 170560, Note_off_c, 0, 88, 64
1, 170592, Note_on_c, 0, 88, 67
1, 170592, Note_on_c, 0, 83, 62
1, 170592, Note_on_c, 0, 80, 70
1, 170656, Note_off_c, 0, 90, 64
1, 170656, Note_off_c, 0, 81, 64
1, 170736, Note_on_c, 0, 92, 57
1, 170752, Note_off_c, 0, 88, 64
1, 170752, Note_off_c, 0, 83, 64
1, 170752, Note_off_c, 0, 80, 64
1, 170876, Note_on_c, 0, 89, 63
1, 170896, Note_off_c, 0, 92, 64
1, 170972, Note_on_c, 0, 77, 52
1, 170976, Note_on_c, 0, 86, 57
1, 171032, Note_off_c, 0, 89, 64
1, 171068, Note_on_c, 0, 83, 39
1, 171072, Note_on_c, 0, 74, 56
1, 171128, Note_off_c, 0, 77, 64
1, 171136, Note_off_c, 0, 86, 64
1, 171164, Note_on_c, 0, 80, 57
1, 171164, Note_on_c, 0, 71, 39
1, 171208, Note_off_c, 0, 83, 64
1, 171212, Note_off_c, 0, 74, 64
1, 171260, Note_on_c, 0, 68, 58
1, 171264, Note_on_c, 0, 77, 58
1, 171332, Note_off_c, 0, 80, 64
1, 171332, Note_off_c, 0, 71, 64
1, 171356, Note_on_c, 0, 74, 54
1, 171360, Note_on_c, 0, 65, 58
1, 171428, Note_off_c, 0, 68, 64
1, 171436, Note_off_c, 0, 77, 64
1, 171488, Note_on_c, 0, 71, 56
1, 171488, Note_on_c, 0, 62, 62
1, 171524, Note_off_c, 0, 74, 64
1, 171532, Note_off_c, 0, 65, 64
1, 171648, Note_on_c, 0, 68, 59
1, 171648, Note_on_c, 0, 59, 47
1, 171700, Note_off_c, 0, 71, 64
1, 171700, Note_off_c, 0, 62, 64
1, 171836, Note_on_c, 0, 62, 56
1, 171840, Note_on_c, 0, 56, 47
1, 171860, Note_off_c, 0, 68, 64
1, 171860, Note_off_c, 0, 59, 64
1, 172028, Note_on_c, 0, 63, 63
1, 172032, Note_on_c, 0, 53, 50
1, 172044, Note_off_c, 0, 62, 64
1, 172052, Note_off_c, 0, 56, 64
1, 172284, Note_on_c, 0, 34, 67
1, 172284, Note_on_c, 0, 65, 63
1, 172308, Note_off_c, 0, 63, 64
1, 172312, Note_off_c, 0, 53, 64
1, 172396, Control_c, 0, 64, 0
1, 172476, Control_c, 0, 64, 127
1, 172580, Note_on_c, 0, 56, 56
1, 172624, Note_off_c, 0, 65, 64
1, 172760, Note_off_c, 0, 56, 64
1, 172768, Note_on_c, 0, 58, 56
1, 172840, Note_on_c, 0, 70, 64
1, 172904, Note_on_c, 0, 72, 63
1, 172992, Note_on_c, 0, 74, 62
1, 172996, Note_off_c, 0, 70, 64
1, 173004, Note_on_c, 0, 62, 61
1, 173012, Note_off_c, 0, 58, 64
1, 173060, Note_off_c, 0, 72, 64
1, 173096, Note_on_c, 0, 75, 61
1, 173152, Note_off_c, 0, 74, 64
1, 173164, Note_on_c, 0, 58, 57
1, 173196, Note_on_c, 0, 77, 60
1, 173228, Note_off_c, 0, 62, 64
1, 173252, Note_off_c, 0, 75, 64
1, 173276, Note_on_c, 0, 56, 62
1, 173280, Control_c, 0, 64, 0
1, 173300, Note_on_c, 0, 79, 59
1, 173316, Note_off_c, 0, 58, 64
1, 173356, Note_off_c, 0, 77, 64
1, 173392, Control_c, 0, 64, 127
1, 173416, Note_on_c, 0, 80, 57
1, 173416, Note_on_c, 0, 53, 62
1, 173444, Note_off_c, 0, 56, 64
1, 173460, Note_off_c, 0, 79, 64
1, 173492, Note_on_c, 0, 82, 56
1, 173572, Note_off_c, 0, 80, 64
1, 173584, Note_off_c, 0, 53, 64
1, 173588, Note_on_c, 0, 56, 57
1, 173608, Note_on_c, 0, 84, 55
1, 173652, Note_off_c, 0, 82, 64
1, 173708, Note_on_c, 0, 86, 53
1, 173708, Note_on_c, 0, 58, 56
1, 173748, Note_off_c, 0, 56, 64
1, 173748, Note_off_c, 0, 84, 64
1, 173820, Note_on_c, 0, 87, 52
1, 173840, Note_on_c, 0, 62, 75
1, 173848, Note_off_c, 0, 58, 64
1, 173868, Note_off_c, 0, 86, 64
1, 173900, Note_on_c, 0, 89, 51
1, 173944, Note_off_c, 0, 34, 64
1, 173960, Note_on_c, 0, 58, 45
1, 173976, Note_off_c, 0, 87, 64
1, 173992, Note_on_c, 0, 91, 51
1, 174008, Note_off_c, 0, 62, 64
1, 174060, Note_off_c, 0, 89, 64
1, 174076, Note_on_c, 0, 56, 56
1, 174092, Note_on_c, 0, 92, 50
1, 174112, Note_off_c, 0, 58, 64
1, 174148, Note_off_c, 0, 91, 64
1, 174208, Note_on_c, 0, 96, 56
1, 174212, Note_on_c, 0, 50, 49
1, 174240, Note_off_c, 0, 56, 64
1, 174252, Note_off_c, 0, 92, 64
1, 174256, Control_c, 0, 64, 0
1, 174300, Note_on_c, 0, 94, 47
1, 174304, Control_c, 0, 64, 127
1, 174368, Note_off_c, 0, 96, 64
1, 174392, Note_on_c, 0, 56, 48
1, 174432, Note_off_c, 0, 50, 64
1, 174456, Note_off_c, 0, 94, 64
1, 174524, Note_on_c, 0, 58, 51
1, 174568, Note_off_c, 0, 56, 64
1, 174648, Note_on_c, 0, 62, 68
1, 174664, Note_off_c, 0, 58, 64
1, 174796, Note_on_c, 0, 58, 55
1, 174864, Note_off_c, 0, 62, 64
1, 174924, Note_on_c, 0, 56, 59
1, 174956, Note_off_c, 0, 58, 64
1, 175068, Note_off_c, 0, 56, 64
1, 175088, Note_on_c, 0, 46, 66
1, 175088, Note_on_c, 0, 65, 67
1, 175104, Control_c, 0, 64, 0
1, 175180, Control_c, 0, 64, 127
1, 175236, Note_on_c, 0, 56, 56
1, 175356, Note_on_c, 0, 58, 50
1, 175396, Note_off_c, 0, 56, 64
1, 175480, Note_on_c, 0, 62, 56
1, 175492, Note_off_c, 0, 58, 64
1, 175620, Note_on_c, 0, 58, 32
1, 175700, Note_off_c, 0, 62, 64
1, 175756, Note_on_c, 0, 56, 52
1, 175792, Note_off_c, 0, 58, 64
1, 175916, Note_on_c, 0, 67, 59
1, 175920, Note_on_c, 0, 63, 57
1, 175924, Note_off_c, 0, 56, 64
1, 175956, Note_off_c, 0, 65, 64
1, 175964, Control_c, 0, 64, 0
1, 176032, Control_c, 0, 64, 127
1, 176064, Note_on_c, 0, 58, 45
1, 176088, Note_off_c, 0, 63, 64
1, 176192, Note_on_c, 0, 56, 57
1, 176204, Note_off_c, 0, 58, 64
1, 176344, Note_on_c, 0, 62, 57
1, 176348, Note_on_c, 0, 65, 60
1, 176352, Note_off_c, 0, 56, 64
1, 176380, Note_off_c, 0, 67, 64
1, 176400, Control_c, 0, 64, 0
1, 176480, Control_c, 0, 64, 127
1, 176484, Note_on_c, 0, 58, 39
1, 176524, Note_off_c, 0, 62, 64
1, 176612, Note_on_c, 0, 56, 29
1, 176632, Note_off_c, 0, 58, 64
1, 176764, Note_on_c, 0, 62, 52
1, 176776, Note_off_c, 0, 56, 64
1, 176828, Note_off_c, 0, 46, 64
1, 176876, Note_on_c, 0, 58, 45
1, 176940, Note_off_c, 0, 62, 64
1, 176984, Note_on_c, 0, 67, 62
1, 177016, Note_off_c, 0, 65, 64
1, 177056, Note_on_c, 0, 56, 55
1, 177084, Note_off_c, 0, 58, 64
1, 177216, Note_on_c, 0, 63, 67
1, 177220, Note_off_c, 0, 67, 64
1, 177224, Note_on_c, 0, 60, 53
1, 177232, Note_off_c, 0, 56, 64
1, 177268, Control_c, 0, 64, 0
1, 177344, Control_c, 0, 64, 127
1, 177356, Note_on_c, 0, 56, 29
1, 177432, Note_off_c, 0, 60, 64
1, 177492, Note_off_c, 0, 63, 64
1, 177552, Note_on_c, 0, 55, 35
1, 177564, Note_off_c, 0, 56, 64
1, 177612, Note_on_c, 0, 72, 69
1, 177720, Note_on_c, 0, 65, 62
1, 177720, Note_on_c, 0, 62, 56
1, 177760, Note_off_c, 0, 55, 64
1, 177764, Control_c, 0, 64, 0
1, 177776, Note_off_c, 0, 72, 64
1, 177844, Control_c, 0, 64, 127
1, 177856, Note_on_c, 0, 58, 45
1, 177956, Note_off_c, 0, 62, 64
1, 177992, Note_on_c, 0, 56, 54
1, 178024, Note_off_c, 0, 58, 64
1, 178044, Note_off_c, 0, 65, 64
1, 178060, Note_on_c, 0, 67, 67
1, 178156, Note_on_c, 0, 70, 62
1, 178156, Note_on_c, 0, 62, 64
1, 178164, Control_c, 0, 64, 0
1, 178184, Note_off_c, 0, 56, 64
1, 178236, Control_c, 0, 64, 127
1, 178248, Note_off_c, 0, 67, 64
1, 178296, Note_on_c, 0, 68, 72
1, 178300, Note_on_c, 0, 58, 40
1, 178356, Note_off_c, 0, 70, 64
1, 178376, Note_off_c, 0, 62, 64
1, 178436, Note_on_c, 0, 56, 52
1, 178444, Note_on_c, 0, 67, 59
1, 178448, Note_off_c, 0, 68, 64
1, 178464, Note_off_c, 0, 58, 64
1, 178580, Control_c, 0, 64, 0
1, 178588, Note_on_c, 0, 62, 50
1, 178592, Note_on_c, 0, 65, 56
1, 178628, Note_off_c, 0, 56, 64
1, 178636, Note_off_c, 0, 67, 64
1, 178648, Control_c, 0, 64, 127
1, 178728, Note_on_c, 0, 58, 60
1, 178808, Note_off_c, 0, 62, 64
1, 178828, Note_on_c, 0, 67, 67
1, 178868, Note_off_c, 0, 65, 64
1, 178908, Note_on_c, 0, 56, 56
1, 178952, Note_off_c, 0, 58, 64
1, 179100, Note_on_c, 0, 61, 56
1, 179116, Note_on_c, 0, 63, 58
1, 179116, Control_c, 0, 64, 0
1, 179144, Note_off_c, 0, 67, 64
1, 179160, Note_off_c, 0, 56, 64
1, 179228, Control_c, 0, 64, 127
1, 179308, Note_off_c, 0, 61, 64
1, 179316, Note_on_c, 0, 58, 55
1, 179388, Note_off_c, 0, 63, 64
1, 179456, Note_on_c, 0, 70, 63
1, 179524, Note_off_c, 0, 58, 64
1, 179544, Note_on_c, 0, 56, 55
1, 179584, Note_on_c, 0, 72, 62
1, 179616, Note_off_c, 0, 70, 64
1, 179700, Note_on_c, 0, 73, 60
1, 179744, Note_off_c, 0, 72, 64
1, 179744, Note_on_c, 0, 61, 55
1, 179756, Note_off_c, 0, 56, 64
1, 179816, Control_c, 0, 64, 0
1, 179828, Note_on_c, 0, 75, 59
1, 179860, Note_off_c, 0, 73, 64
1, 179892, Note_on_c, 0, 56, 55
1, 179944, Note_on_c, 0, 77, 56
1, 179952, Note_off_c, 0, 61, 64
1, 179988, Note_off_c, 0, 75, 64
1, 180044, Note_on_c, 0, 55, 55
1, 180044, Note_on_c, 0, 79, 56
1, 180100, Note_off_c, 0, 56, 64
1, 180100, Note_off_c, 0, 77, 64
1, 180188, Note_on_c, 0, 80, 54
1, 180204, Note_off_c, 0, 79, 64
1, 180204, Note_on_c, 0, 61, 55
1, 180252, Note_off_c, 0, 55, 64
1, 180288, Note_on_c, 0, 82, 53
1, 180344, Note_off_c, 0, 80, 64
1, 180372, Note_on_c, 0, 53, 55
1, 180404, Note_on_c, 0, 84, 51
1, 180412, Note_off_c, 0, 61, 64
1, 180448, Note_off_c, 0, 82, 64
1, 180484, Note_on_c, 0, 51, 55
1, 180508, Note_on_c, 0, 85, 50
1, 180560, Note_off_c, 0, 84, 64
1, 180580, Note_off_c, 0, 53, 64
1, 180584, Note_on_c, 0, 89, 49
1, 180600, Control_c, 0, 64, 127
1, 180664, Note_off_c, 0, 85, 64
1, 180668, Note_on_c, 0, 44, 55
1, 180684, Note_on_c, 0, 87, 47
1, 180688, Control_c, 0, 64, 0
1, 180696, Note_off_c, 0, 51, 64
1, 180724, Control_c, 0, 64, 0
1, 180740, Note_off_c, 0, 89, 64
1, 180748, Control_c, 0, 64, 127
1, 180840, Note_on_c, 0, 54, 66
1, 180844, Note_off_c, 0, 87, 64
1, 180960, Note_on_c, 0, 56, 42
1, 180980, Note_off_c, 0, 54, 64
1, 181080, Note_on_c, 0, 60, 64
1, 181100, Note_off_c, 0, 56, 64
1, 181212, Note_on_c, 0, 56, 38
1, 181264, Note_off_c, 0, 60, 64
1, 181276, Control_c, 0, 64, 127
1, 181340, Note_on_c, 0, 54, 46
1, 181352, Note_off_c, 0, 56, 64
1, 181480, Note_on_c, 0, 65, 62
1, 181480, Note_on_c, 0, 61, 72
1, 181492, Note_off_c, 0, 54, 64
1, 181500, Control_c, 0, 64, 0
1, 181556, Control_c, 0, 64, 127
1, 181612, Note_on_c, 0, 56, 55
1, 181644, Note_off_c, 0, 61, 64
1, 181680, Control_c, 0, 64, 0
1, 181744, Note_on_c, 0, 54, 53
1, 181760, Control_c, 0, 64, 127
1, 181764, Note_off_c, 0, 56, 64
1, 181884, Note_on_c, 0, 63, 70
1, 181888, Note_on_c, 0, 60, 59
1, 181900, Note_off_c, 0, 54, 64
1, 181924, Control_c, 0, 64, 0
1, 181932, Note_off_c, 0, 65, 64
1, 182012, Control_c, 0, 64, 127
1, 182028, Note_on_c, 0, 56, 34
1, 182108, Note_off_c, 0, 60, 64
1, 182156, Note_on_c, 0, 54, 42
1, 182188, Note_off_c, 0, 56, 64
1, 182288, Note_on_c, 0, 60, 54
1, 182300, Note_off_c, 0, 54, 64
1, 182336, Control_c, 0, 64, 0
1, 182404, Note_on_c, 0, 56, 62
1, 182404, Control_c, 0, 64, 127
1, 182452, Note_off_c, 0, 60, 64
1, 182492, Note_off_c, 0, 63, 64
1, 182500, Note_on_c, 0, 65, 67
1, 182556, Note_on_c, 0, 54, 45
1, 182572, Note_off_c, 0, 56, 64
1, 182692, Note_off_c, 0, 54, 64
1, 182704, Note_on_c, 0, 61, 69
1, 182704, Note_on_c, 0, 58, 70
1, 182720, Note_off_c, 0, 65, 64
1, 182728, Control_c, 0, 64, 0
1, 182780, Note_off_c, 0, 44, 64
1, 182796, Control_c, 0, 64, 127
1, 182844, Note_on_c, 0, 54, 52
1, 182864, Note_off_c, 0, 58, 64
1, 182892, Control_c, 0, 64, 0
1, 182924, Note_on_c, 0, 51, 34
1, 182964, Note_off_c, 0, 54, 64
1, 182964, Note_on_c, 0, 70, 67
1, 182972, Control_c, 0, 64, 127
1, 183108, Note_off_c, 0, 51, 64
1, 183164, Control_c, 0, 64, 127
1, 183168, Note_on_c, 0, 63, 57
1, 183168, Note_on_c, 0, 44, 34
1, 183180, Control_c, 0, 64, 0
1, 183260, Control_c, 0, 64, 127
1, 183272, Note_on_c, 0, 51, 45
1, 183352, Note_off_c, 0, 44, 64
1, 183388, Note_on_c, 0, 65, 63
1, 183420, Note_off_c, 0, 70, 64
1, 183464, Control_c, 0, 64, 0
1, 183480, Note_off_c, 0, 51, 64
1, 183500, Note_on_c, 0, 54, 45
1, 183512, Note_off_c, 0, 63, 64
1, 183560, Control_c, 0, 64, 127
1, 183636, Note_on_c, 0, 68, 63
1, 183644, Note_off_c, 0, 61, 64
1, 183644, Note_off_c, 0, 65, 64
1, 183644, Note_on_c, 0, 61, 69
1, 183644, Note_on_c, 0, 58, 57
1, 183712, Note_off_c, 0, 54, 64
1, 183772, Note_on_c, 0, 66, 58
1, 183772, Note_on_c, 0, 51, 51
1, 183824, Note_off_c, 0, 68, 64
1, 183832, Note_off_c, 0, 58, 64
1, 183896, Control_c, 0, 64, 0
1, 183912, Note_on_c, 0, 53, 52
1, 183916, Note_on_c, 0, 65, 67
1, 183952, Note_off_c, 0, 66, 64
1, 183960, Note_off_c, 0, 51, 64
1, 183992, Control_c, 0, 64, 127
1, 184020, Note_on_c, 0, 54, 47
1, 184032, Note_on_c, 0, 63, 67
1, 184032, Note_on_c, 0, 60, 63
1, 184040, Control_c, 0, 64, 0
1, 184044, Note_off_c, 0, 61, 64
1, 184100, Note_off_c, 0, 53, 64
1, 184104, Note_off_c, 0, 65, 64
1, 184132, Control_c, 0, 64, 127
1, 184192, Note_on_c, 0, 44, 61
1, 184228, Note_off_c, 0, 54, 64
1, 184348, Note_on_c, 0, 56, 48
1, 184368, Note_off_c, 0, 63, 64
1, 184400, Note_off_c, 0, 60, 64
1, 184412, Note_off_c, 0, 44, 64
1, 184416, Note_on_c, 0, 65, 59
1, 184556, Note_on_c, 0, 53, 66
1, 184564, Note_off_c, 0, 56, 64
1, 184564, Note_on_c, 0, 62, 67
1, 184568, Note_on_c, 0, 59, 57
1, 184576, Control_c, 0, 64, 0
1, 184656, Note_off_c, 0, 65, 64
1, 184680, Control_c, 0, 64, 127
1, 184728, Note_on_c, 0, 44, 55
1, 184744, Note_off_c, 0, 53, 64
1, 184760, Control_c, 0, 64, 0
1, 184804, Note_off_c, 0, 59, 64
1, 184836, Control_c, 0, 64, 127
1, 184884, Note_on_c, 0, 53, 62
1, 184908, Note_off_c, 0, 44, 64
1, 185048, Note_on_c, 0, 59, 62
1, 185052, Note_off_c, 0, 53, 64
1, 185192, Note_on_c, 0, 53, 59
1, 185248, Note_off_c, 0, 59, 64
1, 185276, Control_c, 0, 64, 0
1, 185332, Note_on_c, 0, 44, 55
1, 185356, Control_c, 0, 64, 127
1, 185380, Note_off_c, 0, 53, 64
1, 185532, Note_off_c, 0, 62, 64
1, 185544, Note_on_c, 0, 74, 66
1, 185556, Note_on_c, 0, 58, 73
1, 185556, Note_on_c, 0, 46, 24
1, 185556, Control_c, 0, 64, 0
1, 185596, Note_off_c, 0, 44, 64
1, 185652, Control_c, 0, 64, 127
1, 185724, Note_on_c, 0, 53, 62
1, 185796, Note_off_c, 0, 58, 64
1, 185796, Note_off_c, 0, 46, 64
1, 185844, Note_off_c, 0, 74, 64
1, 185920, Note_on_c, 0, 50, 29
1, 185928, Note_off_c, 0, 53, 64
1, 185984, Note_on_c, 0, 74, 68
1, 186044, Note_off_c, 0, 74, 64
1, 186064, Control_c, 0, 64, 0
1, 186080, Note_on_c, 0, 56, 54
1, 186080, Note_on_c, 0, 47, 43
1, 186084, Note_on_c, 0, 74, 72
1, 186108, Note_off_c, 0, 50, 64
1, 186160, Control_c, 0, 64, 0
1, 186184, Control_c, 0, 64, 127
1, 186240, Control_c, 0, 64, 127
1, 186332, Note_off_c, 0, 74, 64
1, 186336, Note_on_c, 0, 71, 53
1, 186364, Note_on_c, 0, 53, 47
1, 186428, Note_on_c, 0, 68, 62
1, 186468, Note_off_c, 0, 71, 64
1, 186492, Note_off_c, 0, 56, 64
1, 186500, Note_on_c, 0, 65, 62
1, 186540, Note_off_c, 0, 68, 64
1, 186564, Control_c, 0, 64, 0
1, 186572, Note_on_c, 0, 62, 61
1, 186576, Note_off_c, 0, 53, 64
1, 186592, Note_on_c, 0, 50, 47
1, 186608, Note_off_c, 0, 65, 64
1, 186620, Note_on_c, 0, 63, 72
1, 186652, Note_off_c, 0, 62, 64
1, 186652, Control_c, 0, 64, 127
1, 186676, Note_on_c, 0, 65, 73
1, 186692, Note_off_c, 0, 63, 64
1, 186732, Note_on_c, 0, 63, 61
1, 186732, Note_on_c, 0, 56, 64
1, 186752, Control_c, 0, 64, 0
1, 186780, Note_off_c, 0, 65, 64
1, 186796, Note_off_c, 0, 50, 64
1, 186860, Control_c, 0, 64, 127
1, 186888, Control_c, 0, 64, 0
1, 186964, Note_on_c, 0, 53, 47
1, 187068, Note_on_c, 0, 62, 73
1, 187084, Note_off_c, 0, 47, 64
1, 187092, Note_off_c, 0, 63, 64
1, 187124, Note_off_c, 0, 56, 64
1, 187148, Note_on_c, 0, 50, 47
1, 187164, Note_off_c, 0, 53, 64
1, 187308, Note_off_c, 0, 50, 64
1, 187316, Note_on_c, 0, 58, 73
1, 187316, Note_on_c, 0, 46, 45
1, 187324, Control_c, 0, 64, 0
1, 187360, Control_c, 0, 64, 127
1, 187416, Control_c, 0, 64, 127
1, 187468, Note_on_c, 0, 53, 47
1, 187628, Note_on_c, 0, 50, 47
1, 187660, Note_off_c, 0, 53, 64
1, 187668, Control_c, 0, 64, 0
1, 187700, Note_off_c, 0, 46, 64
1, 187708, Note_off_c, 0, 58, 64
1, 187784, Control_c, 0, 64, 127
1, 187820, Note_on_c, 0, 56, 67
1, 187832, Note_on_c, 0, 47, 45
1, 187840, Note_off_c, 0, 50, 64
1, 187864, Control_c, 0, 64, 0
1, 187968, Control_c, 0, 64, 127
1, 188012, Note_on_c, 0, 53, 47
1, 188116, Note_off_c, 0, 47, 64
1, 188128, Control_c, 0, 64, 0
1, 188164, Note_on_c, 0, 50, 47
1, 188188, Note_off_c, 0, 53, 64
1, 188212, Note_off_c, 0, 56, 64
1, 188232, Control_c, 0, 64, 127
1, 188328, Control_c, 0, 64, 0
1, 188364, Note_on_c, 0, 56, 69
1, 188396, Note_off_c, 0, 50, 64
1, 188412, Control_c, 0, 64, 127
1, 188532, Note_on_c, 0, 53, 47
1, 188552, Control_c, 0, 64, 0
1, 188644, Note_on_c, 0, 61, 66
1, 188652, Control_c, 0, 64, 127
1, 188676, Note_off_c, 0, 62, 64
1, 188756, Note_off_c, 0, 56, 64
1, 188756, Note_on_c, 0, 58, 72
1, 188760, Note_off_c, 0, 53, 64
1, 188764, Note_on_c, 0, 49, 47
1, 188980, Note_on_c, 0, 54, 69
1, 188988, Control_c, 0, 64, 0
1, 189028, Note_off_c, 0, 49, 64
1, 189088, Control_c, 0, 64, 127
1, 189140, Note_off_c, 0, 58, 64
1, 189164, Note_on_c, 0, 46, 72
1, 189196, Control_c, 0, 64, 0
1, 189268, Note_on_c, 0, 66, 52
1, 189292, Note_off_c, 0, 61, 64
1, 189324, Control_c, 0, 64, 127
1, 189404, Note_off_c, 0, 46, 64
1, 189452, Note_on_c, 0, 63, 75
1, 189588, Note_off_c, 0, 66, 64
1, 189632, Note_off_c, 0, 54, 64
1, 189692, Note_on_c, 0, 66, 52
1, 189692, Note_on_c, 0, 44, 35
1, 189696, Note_on_c, 0, 51, 52
1, 189744, Control_c, 0, 64, 0
1, 189744, Control_c, 0, 64, 0
1, 189756, Note_on_c, 0, 71, 54
1, 189820, Control_c, 0, 64, 127
1, 189836, Control_c, 0, 64, 127
1, 189960, Note_off_c, 0, 44, 64
1, 189964, Note_off_c, 0, 51, 64
1, 189980, Note_off_c, 0, 63, 64
1, 190012, Note_on_c, 0, 56, 62
1, 190084, Control_c, 0, 64, 0
1, 190172, Note_off_c, 0, 66, 64
1, 190172, Note_off_c, 0, 71, 64
1, 190184, Note_on_c, 0, 58, 62
1, 190220, Note_off_c, 0, 56, 64
1, 190272, Control_c, 0, 64, 127
1, 190380, Note_on_c, 0, 61, 62
1, 190388, Note_off_c, 0, 58, 64
1, 190540, Note_on_c, 0, 59, 62
1, 190596, Note_off_c, 0, 61, 64
1, 190676, Control_c, 0, 64, 0
1, 190692, Note_on_c, 0, 58, 62
1, 190720, Note_off_c, 0, 59, 64
1, 190804, Control_c, 0, 64, 127
1, 190880, Note_on_c, 0, 65, 66
1, 190884, Note_on_c, 0, 71, 66
1, 190900, Note_off_c, 0, 58, 64
1, 190924, Note_on_c, 0, 56, 62
1, 190944, Control_c, 0, 64, 0
1, 191012, Control_c, 0, 64, 127
1, 191112, Note_on_c, 0, 49, 38
1, 191188, Control_c, 0, 64, 0
1, 191228, Note_off_c, 0, 56, 64
1, 191260, Note_on_c, 0, 61, 50
1, 191272, Control_c, 0, 64, 127
1, 191284, Note_off_c, 0, 49, 64
1, 191356, Note_off_c, 0, 71, 64
1, 191380, Note_on_c, 0, 70, 62
1, 191416, Note_off_c, 0, 65, 64
1, 191468, Note_off_c, 0, 61, 64
1, 191488, Note_off_c, 0, 70, 64
1, 191488, Note_on_c, 0, 68, 68
1, 191496, Note_on_c, 0, 58, 56
1, 191500, Note_on_c, 0, 64, 67
1, 191556, Control_c, 0, 64, 0
1, 191656, Control_c, 0, 64, 127
1, 191828, Control_c, 0, 64, 0
1, 191876, Note_off_c, 0, 58, 64
1, 191900, Control_c, 0, 64, 127
1, 191956, Note_on_c, 0, 59, 62
1, 192040, Note_off_c, 0, 64, 64
1, 192052, Note_on_c, 0, 63, 62
1, 192060, Note_on_c, 0, 67, 69
1, 192064, Note_off_c, 0, 59, 64
1, 192064, Control_c, 0, 64, 0
1, 192088, Note_off_c, 0, 68, 64
1, 192148, Control_c, 0, 64, 127
1, 192232, Note_on_c, 0, 61, 62
1, 192268, Note_off_c, 0, 63, 64
1, 192388, Note_on_c, 0, 59, 62
1, 192440, Note_off_c, 0, 61, 64
1, 192476, Note_on_c, 0, 75, 67
1, 192540, Note_off_c, 0, 67, 64
1, 192556, Note_off_c, 0, 75, 64
1, 192604, Note_on_c, 0, 75, 67
1, 192608, Note_on_c, 0, 67, 55
1, 192612, Note_on_c, 0, 58, 62
1, 192640, Control_c, 0, 64, 0
1, 192656, Note_off_c, 0, 59, 64
1, 192720, Control_c, 0, 64, 127
1, 192796, Note_on_c, 0, 73, 67
1, 192808, Note_off_c, 0, 75, 64
1, 192816, Note_on_c, 0, 51, 73
1, 192820, Note_off_c, 0, 58, 64
1, 192860, Note_off_c, 0, 67, 64
1, 192940, Note_on_c, 0, 63, 75
1, 192948, Note_on_c, 0, 71, 68
1, 192948, Note_on_c, 0, 66, 63
1, 192972, Note_off_c, 0, 73, 64
1, 193028, Note_off_c, 0, 51, 64
1, 193132, Note_off_c, 0, 63, 64
1, 193140, Note_off_c, 0, 66, 64
1, 193152, Note_on_c, 0, 70, 68
1, 193152, Note_on_c, 0, 66, 57
1, 193152, Note_on_c, 0, 63, 72
1, 193156, Note_off_c, 0, 71, 64
1, 193212, Control_c, 0, 64, 0
1, 193280, Control_c, 0, 64, 127
1, 193340, Note_on_c, 0, 64, 73
1, 193340, Note_on_c, 0, 61, 39
1, 193364, Note_off_c, 0, 66, 64
1, 193364, Note_off_c, 0, 63, 64
1, 193536, Note_on_c, 0, 63, 67
1, 193536, Note_on_c, 0, 59, 49
1, 193548, Note_off_c, 0, 61, 64
1, 193548, Note_off_c, 0, 64, 64
1, 193560, Note_off_c, 0, 70, 64
1, 193612, Note_on_c, 0, 71, 66
1, 193620, Note_on_c, 0, 75, 67
1, 193712, Note_off_c, 0, 71, 64
1, 193716, Note_off_c, 0, 75, 64
1, 193724, Note_on_c, 0, 75, 72
1, 193724, Note_on_c, 0, 61, 76
1, 193728, Note_on_c, 0, 67, 63
1, 193728, Note_on_c, 0, 58, 64
1, 193748, Note_off_c, 0, 63, 64
1, 193748, Note_off_c, 0, 59, 64
1, 193848, Control_c, 0, 64, 0
1, 193916, Note_on_c, 0, 73, 66
1, 193916, Control_c, 0, 64, 127
1, 193920, Note_on_c, 0, 51, 68
1, 193932, Note_off_c, 0, 75, 64
1, 193940, Note_off_c, 0, 58, 64
1, 193952, Note_off_c, 0, 61, 64
1, 194092, Note_off_c, 0, 67, 64
1, 194092, Note_on_c, 0, 63, 75
1, 194108, Note_on_c, 0, 71, 64
1, 194108, Note_on_c, 0, 68, 67
1, 194112, Note_on_c, 0, 59, 72
1, 194112, Note_on_c, 0, 56, 62
1, 194124, Note_off_c, 0, 73, 64
1, 194260, Note_off_c, 0, 51, 64
1, 194284, Note_off_c, 0, 63, 64
1, 194300, Note_on_c, 0, 63, 75
1, 194300, Note_on_c, 0, 51, 73
1, 194304, Note_on_c, 0, 70, 66
1, 194304, Note_on_c, 0, 67, 63
1, 194304, Note_on_c, 0, 58, 73
1, 194312, Note_off_c, 0, 71, 64
1, 194312, Note_off_c, 0, 68, 64
1, 194324, Note_off_c, 0, 59, 64
1, 194324, Note_off_c, 0, 56, 64
1, 194492, Note_on_c, 0, 49, 77
1, 194496, Note_on_c, 0, 61, 70
1, 194508, Note_off_c, 0, 63, 64
1, 194508, Note_off_c, 0, 51, 64
1, 194688, Note_off_c, 0, 70, 64
1, 194688, Note_off_c, 0, 67, 64
1, 194688, Note_off_c, 0, 58, 64
1, 194700, Note_off_c, 0, 49, 64
1, 194708, Note_off_c, 0, 61, 64
1, 194720, Note_on_c, 0, 47, 57
1, 194732, Note_on_c, 0, 59, 64
1, 194780, Note_on_c, 0, 75, 67
1, 194784, Note_on_c, 0, 68, 66
1, 194784, Note_on_c, 0, 63, 66
1, 194876, Note_off_c, 0, 75, 64
1, 194876, Note_on_c, 0, 64, 73
1, 194876, Note_on_c, 0, 46, 77
1, 194880, Note_on_c, 0, 67, 63
1, 194880, Note_on_c, 0, 58, 80
1, 194888, Note_on_c, 0, 75, 70
1, 194892, Note_off_c, 0, 68, 64
1, 194892, Note_off_c, 0, 63, 64
1, 194896, Control_c, 0, 64, 0
1, 194932, Note_off_c, 0, 47, 64
1, 194940, Note_off_c, 0, 59, 64
1, 194944, Control_c, 0, 64, 127
1, 195052, Note_on_c, 0, 73, 64
1, 195068, Note_off_c, 0, 64, 64
1, 195068, Note_off_c, 0, 46, 64
1, 195068, Note_off_c, 0, 67, 64
1, 195068, Note_off_c, 0, 58, 64
1, 195068, Note_off_c, 0, 75, 64
1, 195264, Note_off_c, 0, 73, 64
1, 195264, Note_on_c, 0, 71, 66
1, 195264, Note_on_c, 0, 68, 68
1, 195264, Note_on_c, 0, 64, 67
1, 195264, Note_on_c, 0, 44, 78
1, 195276, Note_on_c, 0, 56, 72
1, 195444, Note_off_c, 0, 71, 64
1, 195444, Note_off_c, 0, 68, 64
1, 195444, Note_off_c, 0, 64, 64
1, 195444, Note_off_c, 0, 44, 64
1, 195452, Note_on_c, 0, 70, 69
1, 195456, Note_off_c, 0, 56, 64
1, 195456, Note_on_c, 0, 73, 70
1, 195456, Note_on_c, 0, 64, 52
1, 195456, Note_on_c, 0, 55, 76
1, 195456, Note_on_c, 0, 43, 76
1, 195504, Control_c, 0, 64, 0
1, 195552, Control_c, 0, 64, 127
1, 195644, Note_on_c, 0, 71, 71
1, 195644, Note_on_c, 0, 56, 77
1, 195648, Note_on_c, 0, 63, 77
1, 195648, Note_on_c, 0, 44, 68
1, 195660, Note_off_c, 0, 70, 64
1, 195668, Note_off_c, 0, 73, 64
1, 195668, Note_off_c, 0, 64, 64
1, 195668, Note_off_c, 0, 55, 64
1, 195668, Note_off_c, 0, 43, 64
1, 195852, Note_off_c, 0, 71, 64
1, 195852, Note_off_c, 0, 56, 64
1, 195860, Note_off_c, 0, 63, 64
1, 195860, Note_off_c, 0, 44, 64
1, 195872, Note_on_c, 0, 67, 61
1, 195872, Note_on_c, 0, 58, 80
1, 195872, Note_on_c, 0, 51, 77
1, 195880, Note_on_c, 0, 70, 72
1, 195880, Note_on_c, 0, 39, 77
1, 196036, Control_c, 0, 64, 0
1, 196084, Note_off_c, 0, 67, 64
1, 196084, Note_off_c, 0, 58, 64
1, 196084, Note_off_c, 0, 51, 64
1, 196088, Note_off_c, 0, 70, 64
1, 196088, Note_off_c, 0, 39, 64
1, 196092, Control_c, 0, 64, 0
1, 196096, Control_c, 0, 64, 127
1, 196116, Note_on_c, 0, 59, 75
1, 196124, Note_on_c, 0, 68, 64
1, 196124, Note_on_c, 0, 50, 68
1, 196124, Note_on_c, 0, 38, 68
1, 196128, Note_on_c, 0, 71, 73
1, 196148, Control_c, 0, 64, 127
1, 196188, Control_c, 0, 64, 0
1, 196260, Control_c, 0, 64, 127
1, 196324, Note_off_c, 0, 59, 64
1, 196332, Note_off_c, 0, 68, 64
1, 196332, Note_off_c, 0, 50, 64
1, 196332, Note_off_c, 0, 38, 64
1, 196340, Note_off_c, 0, 71, 64
1, 196364, Note_on_c, 0, 70, 78
1, 196364, Note_on_c, 0, 67, 79
1, 196364, Note_on_c, 0, 58, 77
1, 196364, Note_on_c, 0, 51, 81
1, 196364, Note_on_c, 0, 39, 63
1, 196576, Note_off_c, 0, 70, 64
1, 196576, Note_off_c, 0, 67, 64
1, 196576, Note_off_c, 0, 58, 64
1, 196576, Note_off_c, 0, 51, 64
1, 196576, Note_off_c, 0, 39, 64
1, 196652, Note_on_c, 0, 71, 77
1, 196652, Note_on_c, 0, 68, 81
1, 196652, Note_on_c, 0, 50, 64
1, 196652, Note_on_c, 0, 38, 71
1, 196656, Control_c, 0, 64, 0
1, 196660, Note_on_c, 0, 59, 76
1, 196916, Note_off_c, 0, 71, 64
1, 196916, Note_off_c, 0, 68, 64
1, 196916, Note_off_c, 0, 50, 64
1, 196916, Note_off_c, 0, 38, 64
1, 196924, Note_off_c, 0, 59, 64
1, 196992, Note_on_c, 0, 70, 81
1, 197000, Note_on_c, 0, 39, 68
1, 197020, Control_c, 0, 64, 127
1, 197128, Note_on_c, 0, 50, 58
1, 197224, Note_on_c, 0, 63, 55
1, 197224, Note_on_c, 0, 61, 55
1, 197284, Note_off_c, 0, 50, 64
1, 197332, Note_on_c, 0, 51, 58
1, 197460, Note_on_c, 0, 54, 58
1, 197460, Control_c, 0, 64, 63
1, 197472, Note_off_c, 0, 39, 64
1, 197488, Note_off_c, 0, 63, 64
1, 197488, Note_off_c, 0, 61, 64
1, 197488, Note_off_c, 0, 51, 64
1, 197520, Control_c, 0, 64, 127
1, 197612, Note_on_c, 0, 52, 58
1, 197624, Note_off_c, 0, 54, 64
1, 197692, Note_on_c, 0, 63, 55
1, 197692, Note_on_c, 0, 61, 55
1, 197740, Note_on_c, 0, 51, 58
1, 197792, Note_off_c, 0, 52, 64
1, 197920, Note_off_c, 0, 51, 64
1, 197952, Note_on_c, 0, 71, 62
1, 197952, Note_on_c, 0, 44, 68
1, 197956, Note_off_c, 0, 63, 64
1, 197956, Note_off_c, 0, 61, 64
1, 197972, Control_c, 0, 64, 0
1, 197984, Note_off_c, 0, 70, 64
1, 198048, Control_c, 0, 64, 127
1, 198100, Note_on_c, 0, 56, 58
1, 198184, Note_on_c, 0, 63, 55
1, 198184, Note_on_c, 0, 59, 58
1, 198196, Control_c, 0, 64, 0
1, 198240, Note_on_c, 0, 51, 58
1, 198292, Control_c, 0, 64, 127
1, 198308, Note_off_c, 0, 56, 64
1, 198360, Note_off_c, 0, 71, 64
1, 198424, Note_off_c, 0, 44, 64
1, 198424, Note_off_c, 0, 51, 64
1, 198428, Note_on_c, 0, 70, 62
1, 198432, Note_on_c, 0, 37, 46
1, 198448, Note_off_c, 0, 63, 64
1, 198448, Note_off_c, 0, 59, 64
1, 198468, Control_c, 0, 64, 0
1, 198540, Control_c, 0, 64, 127
1, 198588, Note_on_c, 0, 56, 58
1, 198656, Note_on_c, 0, 64, 55
1, 198664, Note_on_c, 0, 58, 55
1, 198764, Note_on_c, 0, 49, 58
1, 198796, Note_off_c, 0, 56, 64
1, 198880, Control_c, 0, 64, 127
1, 198904, Note_off_c, 0, 37, 64
1, 198908, Note_on_c, 0, 39, 46
1, 198924, Note_off_c, 0, 64, 64
1, 198928, Note_off_c, 0, 58, 64
1, 198976, Note_off_c, 0, 49, 64
1, 198980, Control_c, 0, 64, 0
1, 199024, Control_c, 0, 64, 127
1, 199052, Note_on_c, 0, 55, 58
1, 199056, Control_c, 0, 64, 0
1, 199144, Note_on_c, 0, 71, 65
1, 199144, Note_on_c, 0, 61, 50
1, 199148, Note_on_c, 0, 63, 50
1, 199156, Note_off_c, 0, 70, 64
1, 199228, Note_on_c, 0, 51, 58
1, 199232, Control_c, 0, 64, 0
1, 199264, Note_off_c, 0, 55, 64
1, 199336, Control_c, 0, 64, 127
1, 199380, Note_off_c, 0, 39, 64
1, 199388, Note_off_c, 0, 71, 64
1, 199388, Note_on_c, 0, 44, 49
1, 199392, Note_on_c, 0, 68, 65
1, 199408, Note_off_c, 0, 61, 64
1, 199408, Note_off_c, 0, 51, 64
1, 199412, Note_off_c, 0, 63, 64
1, 199456, Control_c, 0, 64, 0
1, 199520, Note_on_c, 0, 56, 58
1, 199524, Control_c, 0, 64, 127
1, 199624, Note_on_c, 0, 63, 50
1, 199624, Note_on_c, 0, 59, 50
1, 199700, Control_c, 0, 64, 0
1, 199732, Note_off_c, 0, 56, 64
1, 199740, Note_on_c, 0, 49, 58
1, 199760, Control_c, 0, 64, 127
1, 199764, Note_on_c, 0, 76, 64
1, 199840, Control_c, 0, 64, 127
1, 199860, Note_off_c, 0, 44, 64
1, 199868, Note_on_c, 0, 70, 65
1, 199868, Note_on_c, 0, 37, 49
1, 199888, Note_off_c, 0, 59, 64
1, 199888, Note_off_c, 0, 63, 64
1, 199912, Note_off_c, 0, 76, 64
1, 199920, Note_off_c, 0, 68, 64
1, 199948, Note_off_c, 0, 49, 64
1, 199996, Note_on_c, 0, 61, 58
1, 200016, Control_c, 0, 64, 0
1, 200032, Control_c, 0, 64, 0
1, 200104, Note_on_c, 0, 68, 67
1, 200104, Note_on_c, 0, 64, 50
1, 200108, Control_c, 0, 64, 127
1, 200188, Control_c, 0, 64, 0
1, 200192, Note_on_c, 0, 56, 58
1, 200252, Note_off_c, 0, 70, 64
1, 200260, Note_off_c, 0, 61, 64
1, 200264, Control_c, 0, 64, 127
1, 200284, Note_on_c, 0, 71, 77
1, 200348, Note_on_c, 0, 75, 77
1, 200352, Note_on_c, 0, 59, 65
1, 200368, Note_off_c, 0, 68, 64
1, 200368, Note_off_c, 0, 64, 64
1, 200396, Note_off_c, 0, 71, 64
1, 200404, Note_off_c, 0, 56, 64
1, 200468, Note_on_c, 0, 73, 70
1, 200476, Note_on_c, 0, 58, 50
1, 200532, Control_c, 0, 64, 0
1, 200556, Note_off_c, 0, 75, 64
1, 200564, Note_off_c, 0, 59, 64
1, 200576, Note_on_c, 0, 68, 65
1, 200576, Note_on_c, 0, 64, 58
1, 200600, Control_c, 0, 64, 127
1, 200616, Note_on_c, 0, 71, 78
1, 200616, Note_on_c, 0, 63, 65
1, 200684, Note_off_c, 0, 58, 64
1, 200688, Note_off_c, 0, 73, 64
1, 200824, Note_off_c, 0, 37, 64
1, 200824, Note_off_c, 0, 63, 64
1, 200828, Note_off_c, 0, 71, 64
1, 200828, Note_on_c, 0, 61, 58
1, 200832, Note_on_c, 0, 70, 77
1, 200844, Note_off_c, 0, 68, 64
1, 200844, Note_off_c, 0, 64, 64
1, 200876, Control_c, 0, 64, 0
1, 200964, Note_off_c, 0, 61, 64
1, 200964, Control_c, 0, 64, 0
1, 200968, Control_c, 0, 64, 127
1, 200980, Note_on_c, 0, 51, 58
1, 201016, Control_c, 0, 64, 127
1, 201064, Note_on_c, 0, 67, 62
1, 201064, Note_on_c, 0, 61, 65
1, 201156, Note_off_c, 0, 70, 64
1, 201164, Note_off_c, 0, 51, 64
1, 201176, Control_c, 0, 64, 0
1, 201192, Note_on_c, 0, 39, 58
1, 201196, Note_on_c, 0, 71, 83
1, 201248, Control_c, 0, 64, 127
1, 201252, Control_c, 0, 64, 0
1, 201308, Note_off_c, 0, 71, 64
1, 201308, Note_on_c, 0, 44, 56
1, 201312, Note_on_c, 0, 68, 83
1, 201316, Control_c, 0, 64, 127
1, 201328, Note_off_c, 0, 61, 64
1, 201328, Note_off_c, 0, 67, 64
1, 201400, Note_off_c, 0, 39, 64
1, 201448, Note_on_c, 0, 50, 58
1, 201484, Control_c, 0, 64, 0
1, 201548, Note_on_c, 0, 63, 50
1, 201548, Note_on_c, 0, 59, 50
1, 201584, Control_c, 0, 64, 127
1, 201644, Note_on_c, 0, 51, 58
1, 201656, Note_off_c, 0, 50, 64
1, 201792, Note_on_c, 0, 52, 58
1, 201816, Note_off_c, 0, 63, 64
1, 201816, Note_off_c, 0, 59, 64
1, 201856, Note_off_c, 0, 51, 64
1, 201952, Note_on_c, 0, 51, 58
1, 201992, Note_off_c, 0, 44, 64
1, 202004, Note_off_c, 0, 52, 64
1, 202036, Note_on_c, 0, 63, 50
1, 202036, Note_on_c, 0, 59, 50
1, 202132, Note_on_c, 0, 44, 46
1, 202164, Note_off_c, 0, 51, 64
1, 202220, Control_c, 0, 64, 0
1, 202228, Note_off_c, 0, 63, 64
1, 202268, Note_on_c, 0, 53, 58
1, 202272, Note_on_c, 0, 63, 50
1, 202300, Note_off_c, 0, 59, 64
1, 202316, Control_c, 0, 64, 127
1, 202340, Note_off_c, 0, 44, 64
1, 202440, Note_on_c, 0, 51, 58
1, 202456, Control_c, 0, 64, 0
1, 202476, Note_off_c, 0, 53, 64
1, 202480, Note_off_c, 0, 68, 64
1, 202504, Note_on_c, 0, 58, 50
1, 202532, Control_c, 0, 64, 127
1, 202556, Note_on_c, 0, 42, 46
1, 202624, Note_off_c, 0, 51, 64
1, 202652, Control_c, 0, 64, 0
1, 202676, Note_off_c, 0, 58, 64
1, 202696, Note_on_c, 0, 57, 62
1, 202720, Control_c, 0, 64, 127
1, 202724, Note_off_c, 0, 63, 64
1, 202748, Note_on_c, 0, 41, 51
1, 202752, Note_on_c, 0, 72, 77
1, 202764, Note_off_c, 0, 42, 64
1, 202880, Note_on_c, 0, 52, 58
1, 202988, Note_on_c, 0, 65, 50
1, 202988, Note_on_c, 0, 63, 50
1, 203044, Control_c, 0, 64, 0
1, 203064, Note_off_c, 0, 52, 64
1, 203092, Note_on_c, 0, 53, 58
1, 203116, Control_c, 0, 64, 127
1, 203212, Note_off_c, 0, 57, 64
1, 203220, Note_off_c, 0, 41, 64
1, 203232, Note_on_c, 0, 45, 51
1, 203256, Note_off_c, 0, 65, 64
1, 203256, Note_off_c, 0, 63, 64
1, 203276, Note_off_c, 0, 53, 64
1, 203400, Note_on_c, 0, 54, 58
1, 203468, Note_on_c, 0, 65, 50
1, 203468, Note_on_c, 0, 63, 50
1, 203552, Note_off_c, 0, 54, 64
1, 203568, Control_c, 0, 64, 0
1, 203592, Note_on_c, 0, 53, 58
1, 203652, Control_c, 0, 64, 127
1, 203704, Note_off_c, 0, 45, 64
1, 203724, Control_c, 0, 64, 0
1, 203736, Note_off_c, 0, 65, 64
1, 203736, Note_off_c, 0, 63, 64
1, 203744, Note_on_c, 0, 73, 73
1, 203756, Note_on_c, 0, 46, 49
1, 203808, Note_off_c, 0, 72, 64
1, 203836, Note_off_c, 0, 53, 64
1, 203840, Control_c, 0, 64, 127
1, 203976, Note_on_c, 0, 54, 58
1, 204040, Note_on_c, 0, 65, 50
1, 204040, Note_on_c, 0, 61, 50
1, 204116, Note_on_c, 0, 53, 58
1, 204124, Control_c, 0, 64, 0
1, 204180, Note_off_c, 0, 54, 64
1, 204208, Control_c, 0, 64, 0
1, 204228, Note_off_c, 0, 46, 64
1, 204228, Control_c, 0, 64, 127
1, 204260, Note_off_c, 0, 73, 64
1, 204284, Note_off_c, 0, 65, 64
1, 204284, Note_off_c, 0, 61, 64
1, 204284, Note_on_c, 0, 39, 49
1, 204288, Note_on_c, 0, 72, 73
1, 204320, Note_off_c, 0, 53, 64
1, 204320, Control_c, 0, 64, 127
1, 204436, Note_on_c, 0, 58, 58
1, 204520, Note_on_c, 0, 66, 50
1, 204520, Note_on_c, 0, 60, 50
1, 204588, Note_on_c, 0, 51, 58
1, 204644, Note_off_c, 0, 58, 64
1, 204660, Control_c, 0, 64, 0
1, 204756, Note_off_c, 0, 39, 64
1, 204768, Note_on_c, 0, 41, 49
1, 204768, Control_c, 0, 64, 127
1, 204772, Control_c, 0, 64, 0
1, 204784, Note_off_c, 0, 66, 64
1, 204784, Note_off_c, 0, 60, 64
1, 204800, Note_off_c, 0, 51, 64
1, 204832, Control_c, 0, 64, 127
1, 204892, Note_on_c, 0, 57, 58
1, 205004, Note_on_c, 0, 65, 50
1, 205004, Note_on_c, 0, 63, 50
1, 205064, Note_on_c, 0, 53, 58
1, 205076, Control_c, 0, 64, 0
1, 205100, Note_off_c, 0, 57, 64
1, 205140, Control_c, 0, 64, 127
1, 205160, Note_on_c, 0, 73, 73
1, 205176, Note_off_c, 0, 72, 64
1, 205240, Note_off_c, 0, 41, 64
1, 205244, Note_on_c, 0, 70, 80
1, 205248, Note_on_c, 0, 46, 49
1, 205272, Note_off_c, 0, 65, 64
1, 205272, Note_off_c, 0, 63, 64
1, 205300, Note_off_c, 0, 53, 64
1, 205308, Note_off_c, 0, 73, 64
1, 205332, Control_c, 0, 64, 0
1, 205356, Note_on_c, 0, 58, 58
1, 205416, Control_c, 0, 64, 127
1, 205468, Note_on_c, 0, 65, 50
1, 205468, Note_on_c, 0, 61, 50
1, 205532, Note_off_c, 0, 70, 64
1, 205548, Note_on_c, 0, 51, 58
1, 205568, Note_off_c, 0, 58, 64
1, 205608, Note_on_c, 0, 78, 77
1, 205608, Note_on_c, 0, 70, 51
1, 205608, Note_on_c, 0, 66, 51
1, 205720, Note_off_c, 0, 46, 64
1, 205724, Note_on_c, 0, 72, 76
1, 205728, Note_on_c, 0, 39, 51
1, 205732, Note_off_c, 0, 65, 64
1, 205732, Note_off_c, 0, 61, 64
1, 205732, Note_off_c, 0, 51, 64
1, 205756, Note_off_c, 0, 78, 64
1, 205756, Note_off_c, 0, 70, 64
1, 205756, Note_off_c, 0, 66, 64
1, 205856, Note_on_c, 0, 63, 69
1, 205932, Control_c, 0, 64, 0
1, 205964, Note_on_c, 0, 70, 61
1, 205964, Note_on_c, 0, 66, 55
1, 206008, Control_c, 0, 64, 127
1, 206048, Note_on_c, 0, 58, 58
1, 206068, Note_off_c, 0, 63, 64
1, 206088, Note_on_c, 0, 73, 77
1, 206096, Note_off_c, 0, 72, 64
1, 206128, Control_c, 0, 64, 0
1, 206204, Note_on_c, 0, 77, 85
1, 206204, Note_on_c, 0, 61, 70
1, 206228, Note_off_c, 0, 73, 64
1, 206232, Note_off_c, 0, 70, 64
1, 206232, Note_off_c, 0, 66, 64
1, 206232, Control_c, 0, 64, 127
1, 206260, Note_off_c, 0, 58, 64
1, 206364, Note_on_c, 0, 60, 51
1, 206368, Note_on_c, 0, 75, 80
1, 206380, Note_off_c, 0, 77, 64
1, 206380, Note_off_c, 0, 61, 64
1, 206444, Control_c, 0, 64, 0
1, 206444, Note_on_c, 0, 70, 70
1, 206444, Note_on_c, 0, 66, 33
1, 206496, Note_on_c, 0, 73, 69
1, 206496, Note_on_c, 0, 65, 65
1, 206516, Control_c, 0, 64, 127
1, 206540, Note_off_c, 0, 60, 64
1, 206548, Note_off_c, 0, 75, 64
1, 206560, Control_c, 0, 64, 0
1, 206664, Control_c, 0, 64, 127
1, 206676, Note_off_c, 0, 73, 64
1, 206676, Note_off_c, 0, 65, 64
1, 206688, Note_on_c, 0, 72, 85
1, 206688, Note_on_c, 0, 63, 70
1, 206712, Note_off_c, 0, 70, 64
1, 206712, Note_off_c, 0, 66, 64
1, 206796, Note_off_c, 0, 39, 64
1, 206816, Note_on_c, 0, 51, 58
1, 206828, Control_c, 0, 64, 0
1, 206868, Note_off_c, 0, 63, 64
1, 206876, Control_c, 0, 64, 127
1, 206924, Note_on_c, 0, 70, 64
1, 206924, Note_on_c, 0, 66, 50
1, 206932, Note_on_c, 0, 58, 58
1, 206972, Note_off_c, 0, 72, 64
1, 207000, Note_off_c, 0, 51, 64
1, 207004, Control_c, 0, 64, 0
1, 207080, Control_c, 0, 64, 127
1, 207092, Note_on_c, 0, 73, 83
1, 207140, Note_off_c, 0, 58, 64
1, 207168, Note_on_c, 0, 61, 50
1, 207168, Note_on_c, 0, 77, 85
1, 207192, Note_off_c, 0, 70, 64
1, 207192, Note_off_c, 0, 66, 64
1, 207224, Note_off_c, 0, 73, 64
1, 207316, Note_on_c, 0, 75, 73
1, 207316, Note_on_c, 0, 60, 62
1, 207348, Note_off_c, 0, 77, 64
1, 207380, Note_off_c, 0, 61, 64
1, 207404, Note_on_c, 0, 70, 61
1, 207404, Note_on_c, 0, 66, 59
1, 207456, Note_on_c, 0, 73, 74
1, 207456, Note_on_c, 0, 65, 62
1, 207472, Control_c, 0, 64, 0
1, 207500, Note_off_c, 0, 75, 64
1, 207524, Note_off_c, 0, 60, 64
1, 207568, Control_c, 0, 64, 127
1, 207640, Note_off_c, 0, 73, 64
1, 207644, Note_on_c, 0, 72, 74
1, 207648, Note_on_c, 0, 63, 54
1, 207668, Note_off_c, 0, 65, 64
1, 207672, Note_off_c, 0, 70, 64
1, 207672, Note_off_c, 0, 66, 64
1, 207788, Note_on_c, 0, 51, 58
1, 207860, Note_off_c, 0, 63, 64
1, 207880, Note_on_c, 0, 66, 67
1, 207884, Note_on_c, 0, 70, 66
1, 207912, Control_c, 0, 64, 0
1, 207944, Note_on_c, 0, 58, 58
1, 207972, Note_off_c, 0, 51, 64
1, 207996, Control_c, 0, 64, 127
1, 208028, Note_off_c, 0, 72, 64
1, 208052, Note_on_c, 0, 72, 85
1, 208128, Note_off_c, 0, 58, 64
1, 208128, Note_on_c, 0, 73, 82
1, 208128, Note_on_c, 0, 64, 66
1, 208152, Note_off_c, 0, 66, 64
1, 208152, Note_off_c, 0, 70, 64
1, 208164, Note_off_c, 0, 72, 64
1, 208316, Note_on_c, 0, 52, 69
1, 208340, Note_off_c, 0, 64, 64
1, 208348, Control_c, 0, 64, 0
1, 208412, Note_on_c, 0, 67, 83
1, 208412, Control_c, 0, 64, 127
1, 208416, Note_on_c, 0, 70, 83
1, 208476, Control_c, 0, 64, 0
1, 208524, Note_off_c, 0, 52, 64
1, 208552, Control_c, 0, 64, 127
1, 208584, Note_off_c, 0, 73, 64
1, 208608, Note_on_c, 0, 58, 69
1, 208676, Note_off_c, 0, 67, 64
1, 208684, Note_off_c, 0, 70, 64
1, 208700, Note_on_c, 0, 73, 85
1, 208820, Note_off_c, 0, 58, 64
1, 208884, Control_c, 0, 64, 0
1, 208896, Note_on_c, 0, 74, 66
1, 208904, Note_on_c, 0, 53, 53
1, 208924, Note_off_c, 0, 73, 64
1, 208972, Control_c, 0, 64, 0
1, 209076, Control_c, 0, 64, 127
1, 209152, Note_on_c, 0, 65, 45
1, 209156, Note_on_c, 0, 58, 43
1, 209240, Note_off_c, 0, 65, 64
1, 209252, Note_off_c, 0, 58, 64
1, 209324, Note_off_c, 0, 53, 64
1, 209372, Control_c, 0, 64, 0
1, 209376, Note_on_c, 0, 58, 45
1, 209380, Note_on_c, 0, 65, 47
1, 209428, Control_c, 0, 64, 127
1, 209468, Note_off_c, 0, 65, 64
1, 209480, Note_off_c, 0, 58, 64
1, 209572, Note_on_c, 0, 58, 44
1, 209580, Note_on_c, 0, 65, 47
1, 209672, Note_off_c, 0, 65, 64
1, 209704, Note_off_c, 0, 58, 64
1, 209792, Note_on_c, 0, 58, 2
1, 209796, Note_off_c, 0, 74, 64
1, 209808, Note_on_c, 0, 65, 45
1, 209812, Note_on_c, 0, 75, 56
1, 209896, Note_off_c, 0, 65, 64
1, 209924, Note_off_c, 0, 58, 64
1, 210036, Note_on_c, 0, 56, 23
1, 210044, Note_on_c, 0, 62, 34
1, 210072, Note_on_c, 0, 70, 48
1, 210084, Note_off_c, 0, 75, 64
1, 210176, Note_off_c, 0, 62, 64
1, 210276, Note_on_c, 0, 53, 50
1, 210308, Note_off_c, 0, 56, 64
1, 210308, Note_off_c, 0, 70, 64
1, 210356, Note_on_c, 0, 71, 56
1, 210380, Control_c, 0, 64, 0
1, 210460, Control_c, 0, 64, 127
1, 210496, Note_on_c, 0, 74, 48
1, 210532, Note_off_c, 0, 71, 64
1, 210540, Note_on_c, 0, 57, 40
1, 210548, Note_on_c, 0, 63, 28
1, 210572, Note_off_c, 0, 74, 64
1, 210580, Note_on_c, 0, 71, 57
1, 210644, Note_on_c, 0, 74, 52
1, 210676, Note_off_c, 0, 57, 64
1, 210676, Note_off_c, 0, 63, 64
1, 210684, Note_off_c, 0, 71, 64
1, 210732, Note_on_c, 0, 72, 56
1, 210740, Note_on_c, 0, 63, 52
1, 210748, Note_on_c, 0, 57, 52
1, 210760, Note_off_c, 0, 74, 64
1, 210832, Note_off_c, 0, 57, 64
1, 210836, Note_off_c, 0, 63, 64
1, 210908, Note_on_c, 0, 63, 47
1, 210916, Note_on_c, 0, 57, 50
1, 210924, Note_off_c, 0, 53, 64
1, 211060, Note_off_c, 0, 57, 64
1, 211084, Note_on_c, 0, 52, 53
1, 211176, Note_off_c, 0, 52, 64
1, 211180, Note_off_c, 0, 63, 64
1, 211304, Note_on_c, 0, 51, 57
1, 211436, Note_on_c, 0, 65, 47
1, 211468, Note_off_c, 0, 72, 64
1, 211480, Note_off_c, 0, 51, 64
1, 211580, Control_c, 0, 64, 0
1, 211588, Note_on_c, 0, 77, 56
1, 211588, Note_on_c, 0, 50, 52
1, 211620, Note_off_c, 0, 65, 64
1, 211664, Control_c, 0, 64, 127
1, 211800, Note_on_c, 0, 58, 45
1, 211808, Note_on_c, 0, 65, 33
1, 211876, Note_off_c, 0, 65, 64
1, 211880, Note_off_c, 0, 58, 64
1, 211960, Note_on_c, 0, 65, 45
1, 211972, Note_on_c, 0, 58, 43
1, 212036, Note_off_c, 0, 58, 64
1, 212040, Note_off_c, 0, 65, 64
1, 212124, Note_on_c, 0, 65, 44
1, 212124, Note_on_c, 0, 58, 39
1, 212204, Note_off_c, 0, 65, 64
1, 212204, Note_off_c, 0, 58, 64
1, 212276, Note_on_c, 0, 75, 53
1, 212284, Note_off_c, 0, 77, 64
1, 212296, Note_on_c, 0, 65, 45
1, 212308, Note_on_c, 0, 58, 41
1, 212384, Note_off_c, 0, 65, 64
1, 212384, Note_off_c, 0, 58, 64
1, 212420, Note_off_c, 0, 50, 64
1, 212516, Note_on_c, 0, 65, 35
1, 212524, Note_on_c, 0, 58, 47
1, 212700, Note_off_c, 0, 65, 64
1, 212708, Note_on_c, 0, 74, 56
1, 212748, Note_off_c, 0, 75, 64
1, 212820, Note_off_c, 0, 74, 64
1, 212852, Note_on_c, 0, 51, 50
1, 212876, Note_off_c, 0, 58, 64
1, 212912, Note_on_c, 0, 74, 56
1, 212948, Control_c, 0, 64, 0
1, 213028, Control_c, 0, 64, 127
1, 213108, Note_on_c, 0, 75, 48
1, 213140, Note_off_c, 0, 74, 64
1, 213212, Note_on_c, 0, 66, 47
1, 213220, Note_on_c, 0, 71, 52
1, 213224, Note_on_c, 0, 57, 48
1, 213264, Note_off_c, 0, 75, 64
1, 213292, Note_on_c, 0, 74, 53
1, 213300, Note_off_c, 0, 57, 64
1, 213312, Note_off_c, 0, 66, 64
1, 213332, Note_off_c, 0, 71, 64
1, 213372, Note_on_c, 0, 66, 52
1, 213380, Note_on_c, 0, 72, 57
1, 213392, Note_on_c, 0, 57, 45
1, 213404, Note_off_c, 0, 74, 64
1, 213452, Note_off_c, 0, 57, 64
1, 213472, Note_off_c, 0, 66, 64
1, 213556, Note_on_c, 0, 66, 52
1, 213564, Note_on_c, 0, 57, 52
1, 213592, Note_off_c, 0, 51, 64
1, 213656, Note_off_c, 0, 66, 64
1, 213656, Note_off_c, 0, 57, 64
1, 213744, Note_on_c, 0, 66, 52
1, 213764, Note_on_c, 0, 57, 48
1, 213956, Note_off_c, 0, 66, 64
1, 213976, Note_off_c, 0, 57, 64
1, 213988, Control_c, 0, 64, 0
1, 213996, Note_on_c, 0, 78, 56
1, 213996, Note_on_c, 0, 39, 52
1, 214016, Control_c, 0, 64, 127
1, 214136, Note_off_c, 0, 72, 64
1, 214372, Control_c, 0, 64, 0
1, 214388, Note_on_c, 0, 77, 59
1, 214388, Note_on_c, 0, 38, 52
1, 214436, Control_c, 0, 64, 127
1, 214452, Note_off_c, 0, 78, 64
1, 214452, Note_off_c, 0, 39, 64
1, 214652, Note_on_c, 0, 50, 25
1, 214656, Note_on_c, 0, 62, 27
1, 214656, Note_on_c, 0, 58, 38
1, 214824, Note_on_c, 0, 76, 52
1, 214844, Note_off_c, 0, 77, 64
1, 214844, Note_off_c, 0, 38, 64
1, 214968, Control_c, 0, 64, 0
1, 214984, Note_on_c, 0, 43, 53
1, 214992, Note_off_c, 0, 50, 64
1, 214992, Note_on_c, 0, 75, 56
1, 215000, Note_off_c, 0, 62, 64
1, 215000, Note_off_c, 0, 58, 64
1, 215020, Note_off_c, 0, 76, 64
1, 215044, Control_c, 0, 64, 127
1, 215132, Note_on_c, 0, 74, 56
1, 215184, Note_off_c, 0, 75, 64
1, 215264, Note_on_c, 0, 58, 45
1, 215264, Note_on_c, 0, 52, 41
1, 215268, Note_off_c, 0, 74, 64
1, 215272, Note_on_c, 0, 72, 52
1, 215272, Note_on_c, 0, 62, 44
1, 215372, Note_on_c, 0, 70, 59
1, 215420, Note_off_c, 0, 43, 64
1, 215424, Note_off_c, 0, 72, 64
1, 215500, Note_on_c, 0, 69, 52
1, 215508, Note_on_c, 0, 36, 55
1, 215520, Note_off_c, 0, 70, 64
1, 215544, Control_c, 0, 64, 127
1, 215548, Note_off_c, 0, 58, 64
1, 215548, Note_off_c, 0, 52, 64
1, 215560, Note_off_c, 0, 62, 64
1, 215644, Note_on_c, 0, 70, 61
1, 215684, Note_off_c, 0, 69, 64
1, 215728, Control_c, 0, 64, 0
1, 215764, Note_on_c, 0, 72, 54
1, 215764, Note_on_c, 0, 58, 48
1, 215764, Note_on_c, 0, 52, 47
1, 215772, Note_on_c, 0, 60, 45
1, 215784, Control_c, 0, 64, 0
1, 215804, Control_c, 0, 64, 127
1, 215808, Note_off_c, 0, 70, 64
1, 215860, Control_c, 0, 64, 127
1, 215876, Note_on_c, 0, 74, 52
1, 215932, Note_off_c, 0, 72, 64
1, 216044, Note_off_c, 0, 36, 64
1, 216076, Note_on_c, 0, 41, 51
1, 216092, Note_on_c, 0, 65, 56
1, 216100, Note_off_c, 0, 74, 64
1, 216108, Note_off_c, 0, 58, 64
1, 216108, Note_off_c, 0, 52, 64
1, 216112, Note_off_c, 0, 60, 64
1, 216112, Control_c, 0, 64, 0
1, 216212, Control_c, 0, 64, 127
1, 216364, Note_on_c, 0, 58, 42
1, 216392, Note_on_c, 0, 48, 35
1, 216576, Note_off_c, 0, 58, 64
1, 216600, Note_on_c, 0, 58, 48
1, 216604, Note_off_c, 0, 48, 64
1, 216616, Note_on_c, 0, 48, 43
1, 216640, Note_off_c, 0, 65, 64
1, 216812, Note_off_c, 0, 58, 64
1, 216828, Note_off_c, 0, 48, 64
1, 216836, Note_on_c, 0, 58, 48
1, 216840, Note_on_c, 0, 60, 56
1, 216844, Note_on_c, 0, 48, 47
1, 216896, Note_off_c, 0, 41, 64
1, 216948, Note_on_c, 0, 62, 56
1, 216988, Note_off_c, 0, 60, 64
1, 217048, Note_off_c, 0, 58, 64
1, 217076, Note_on_c, 0, 63, 61
1, 217088, Control_c, 0, 64, 0
1, 217092, Note_off_c, 0, 48, 64
1, 217092, Note_on_c, 0, 41, 62
1, 217132, Note_off_c, 0, 62, 64
1, 217184, Control_c, 0, 64, 127
1, 217196, Note_off_c, 0, 63, 64
1, 217200, Note_on_c, 0, 64, 62
1, 217332, Note_on_c, 0, 65, 52
1, 217332, Note_on_c, 0, 57, 40
1, 217332, Note_on_c, 0, 48, 48
1, 217344, Note_off_c, 0, 41, 64
1, 217352, Note_off_c, 0, 64, 64
1, 217452, Note_on_c, 0, 63, 59
1, 217480, Note_off_c, 0, 65, 64
1, 217608, Note_on_c, 0, 42, 45
1, 217612, Note_on_c, 0, 62, 61
1, 217624, Note_off_c, 0, 63, 64
1, 217636, Control_c, 0, 64, 0
1, 217640, Control_c, 0, 64, 0
1, 217652, Note_off_c, 0, 57, 64
1, 217652, Note_off_c, 0, 48, 64
1, 217692, Control_c, 0, 64, 127
1, 217928, Control_c, 0, 64, 127
1, 217940, Note_on_c, 0, 57, 32
1, 217944, Note_on_c, 0, 50, 32
1, 217980, Note_off_c, 0, 42, 64
1, 218216, Note_on_c, 0, 43, 62
1, 218228, Control_c, 0, 64, 0
1, 218248, Note_off_c, 0, 50, 64
1, 218248, Note_off_c, 0, 57, 64
1, 218320, Control_c, 0, 64, 127
1, 218488, Control_c, 0, 64, 0
1, 218512, Note_on_c, 0, 58, 48
1, 218532, Note_on_c, 0, 55, 28
1, 218532, Note_on_c, 0, 50, 46
1, 218560, Note_off_c, 0, 43, 64
1, 218568, Control_c, 0, 64, 127
1, 218812, Control_c, 0, 64, 0
1, 218828, Note_on_c, 0, 38, 53
1, 218884, Control_c, 0, 64, 127
1, 219036, Note_off_c, 0, 58, 64
1, 219056, Note_off_c, 0, 55, 64
1, 219056, Note_off_c, 0, 50, 64
1, 219148, Note_on_c, 0, 54, 36
1, 219156, Note_on_c, 0, 57, 48
1, 219160, Note_on_c, 0, 50, 39
1, 219160, Control_c, 0, 64, 0
1, 219168, Note_off_c, 0, 38, 64
1, 219228, Control_c, 0, 64, 127
1, 219352, Control_c, 0, 64, 0
1, 219416, Control_c, 0, 64, 127
1, 219476, Note_off_c, 0, 54, 64
1, 219484, Note_off_c, 0, 57, 64
1, 219488, Note_off_c, 0, 50, 64
1, 219500, Note_on_c, 0, 59, 45
1, 219508, Note_on_c, 0, 50, 48
1, 219508, Control_c, 0, 64, 0
1, 219516, Note_on_c, 0, 55, 38
1, 219600, Control_c, 0, 64, 127
1, 219788, Control_c, 0, 64, 0
1, 219852, Note_on_c, 0, 43, 42
1, 219856, Note_off_c, 0, 50, 64
1, 219864, Control_c, 0, 64, 127
1, 219880, Note_off_c, 0, 55, 64
1, 219932, Note_off_c, 0, 62, 64
1, 220016, Note_off_c, 0, 59, 64
1, 220196, Note_off_c, 0, 43, 64
1, 220208, Note_on_c, 0, 36, 45
1, 220236, Control_c, 0, 64, 0
1, 220264, Note_on_c, 0, 63, 57
1, 220316, Control_c, 0, 64, 127
1, 220548, Note_off_c, 0, 36, 64
1, 220652, Control_c, 0, 64, 0
1, 220688, Note_on_c, 0, 48, 45
1, 220700, Note_on_c, 0, 55, 32
1, 220708, Note_on_c, 0, 60, 26
1, 220728, Control_c, 0, 64, 127
1, 221028, Note_off_c, 0, 48, 64
1, 221040, Note_off_c, 0, 55, 64
1, 221048, Note_off_c, 0, 60, 64
1, 221148, Control_c, 0, 64, 0
1, 221204, Control_c, 0, 64, 0
1, 221228, Note_on_c, 0, 29, 62
1, 221228, Control_c, 0, 64, 127
1, 221276, Control_c, 0, 64, 127
1, 221308, Note_off_c, 0, 63, 64
1, 221476, Note_on_c, 0, 65, 48
1, 221552, Control_c, 0, 64, 0
1, 221556, Control_c, 0, 64, 0
1, 221620, Control_c, 0, 64, 127
1, 221628, Note_on_c, 0, 69, 50
1, 221636, Control_c, 0, 64, 127
1, 221696, Note_off_c, 0, 65, 64
1, 221760, Note_on_c, 0, 72, 51
1, 221796, Note_off_c, 0, 69, 64
1, 221952, Note_on_c, 0, 63, 42
1, 221952, Note_on_c, 0, 57, 50
1, 221952, Note_on_c, 0, 53, 43
1, 221956, Note_on_c, 0, 75, 53
1, 221968, Control_c, 0, 64, 0
1, 222012, Note_off_c, 0, 72, 64
1, 222032, Control_c, 0, 64, 127
1, 222136, Note_on_c, 0, 77, 55
1, 222140, Note_off_c, 0, 75, 64
1, 222164, Note_off_c, 0, 63, 64
1, 222164, Note_off_c, 0, 57, 64
1, 222164, Note_off_c, 0, 53, 64
1, 222312, Note_on_c, 0, 81, 56
1, 222356, Note_off_c, 0, 77, 64
1, 222500, Control_c, 0, 64, 0
1, 222524, Note_on_c, 0, 79, 59
1, 222564, Note_off_c, 0, 81, 64
1, 222612, Control_c, 0, 64, 127
1, 222724, Note_off_c, 0, 29, 64
1, 222876, Note_on_c, 0, 34, 70
1, 222904, Note_off_c, 0, 79, 64
1, 222904, Note_on_c, 0, 77, 63
1, 222924, Control_c, 0, 64, 0
1, 223016, Control_c, 0, 64, 127
1, 223572, Note_on_c, 0, 53, 57
1, 223576, Note_on_c, 0, 62, 43
1, 223780, Note_off_c, 0, 53, 64
1, 223784, Note_off_c, 0, 62, 64
1, 223988, Note_on_c, 0, 74, 54
1, 224004, Note_on_c, 0, 65, 38
1, 224008, Note_on_c, 0, 62, 24
1, 224076, Control_c, 0, 64, 0
1, 224132, Control_c, 0, 64, 127
1, 224196, Note_off_c, 0, 74, 64
1, 224212, Note_off_c, 0, 65, 64
1, 224216, Note_off_c, 0, 62, 64
1, 224228, Note_off_c, 0, 34, 64
1, 224284, Note_on_c, 0, 62, 30
1, 224288, Note_on_c, 0, 65, 41
1, 224292, Note_off_c, 0, 77, 64
1, 224292, Note_on_c, 0, 72, 38
1, 224308, Note_on_c, 0, 79, 59
1, 224492, Note_off_c, 0, 62, 64
1, 224496, Note_off_c, 0, 65, 64
1, 224500, Note_off_c, 0, 72, 64
1, 224564, Note_on_c, 0, 65, 39
1, 224572, Note_on_c, 0, 62, 37
1, 224576, Note_on_c, 0, 74, 56
1, 224576, Note_on_c, 0, 70, 47
1, 224604, Note_off_c, 0, 79, 64
1, 224772, Note_off_c, 0, 65, 64
1, 224780, Note_off_c, 0, 62, 64
1, 224788, Note_off_c, 0, 70, 64
1, 224860, Note_on_c, 0, 67, 32
1, 224860, Note_on_c, 0, 62, 19
1, 224868, Note_on_c, 0, 79, 57
1, 224868, Note_on_c, 0, 58, 24
1, 224884, Control_c, 0, 64, 0
1, 224904, Note_off_c, 0, 74, 64
1, 224940, Control_c, 0, 64, 127
1, 225068, Note_off_c, 0, 67, 64
1, 225068, Note_off_c, 0, 62, 64
1, 225084, Note_off_c, 0, 58, 64
1, 225140, Note_on_c, 0, 63, 24
1, 225140, Note_on_c, 0, 60, 24
1, 225152, Note_on_c, 0, 69, 42
1, 225252, Control_c, 0, 64, 0
1, 225296, Control_c, 0, 64, 127
1, 225308, Control_c, 0, 64, 0
1, 225400, Control_c, 0, 64, 127
1, 225416, Note_on_c, 0, 77, 57
1, 225436, Note_off_c, 0, 79, 64
1, 225452, Note_off_c, 0, 63, 64
1, 225452, Note_off_c, 0, 60, 64
1, 225464, Note_off_c, 0, 69, 64
1, 225512, Note_off_c, 0, 77, 64
1, 225564, Note_on_c, 0, 63, 38
1, 225568, Note_on_c, 0, 57, 47
1, 225572, Note_on_c, 0, 65, 32
1, 225596, Note_on_c, 0, 77, 52
1, 225732, Note_on_c, 0, 75, 57
1, 225812, Note_off_c, 0, 77, 64
1, 225852, Note_on_c, 0, 74, 52
1, 225872, Note_off_c, 0, 63, 64
1, 225876, Note_off_c, 0, 57, 64
1, 225884, Note_off_c, 0, 65, 64
1, 225892, Note_off_c, 0, 75, 64
1, 225912, Note_off_c, 0, 74, 64
1, 225972, Note_on_c, 0, 63, 44
1, 225984, Note_on_c, 0, 66, 34
1, 225984, Note_on_c, 0, 58, 39
1, 225988, Note_on_c, 0, 72, 56
1, 226112, Note_on_c, 0, 74, 52
1, 226116, Control_c, 0, 64, 0
1, 226120, Note_off_c, 0, 72, 64
1, 226172, Note_off_c, 0, 74, 64
1, 226172, Note_on_c, 0, 72, 50
1, 226180, Control_c, 0, 64, 127
1, 226208, Note_off_c, 0, 63, 64
1, 226216, Note_off_c, 0, 72, 64
1, 226220, Note_off_c, 0, 66, 64
1, 226220, Note_off_c, 0, 58, 64
1, 226228, Note_on_c, 0, 74, 56
1, 226260, Note_off_c, 0, 74, 64
1, 226264, Note_on_c, 0, 72, 52
1, 226280, Note_on_c, 0, 57, 39
1, 226280, Note_on_c, 0, 65, 43
1, 226288, Note_on_c, 0, 63, 31
1, 226300, Note_on_c, 0, 74, 52
1, 226308, Note_off_c, 0, 72, 64
1, 226344, Note_on_c, 0, 72, 57
1, 226368, Note_off_c, 0, 74, 64
1, 226412, Note_off_c, 0, 72, 64
1, 226420, Note_on_c, 0, 71, 56
1, 226500, Note_off_c, 0, 63, 64
1, 226516, Note_off_c, 0, 57, 64
1, 226516, Note_off_c, 0, 65, 64
1, 226528, Note_off_c, 0, 71, 64
1, 226536, Note_on_c, 0, 72, 56
1, 226548, Note_on_c, 0, 63, 51
1, 226548, Note_on_c, 0, 57, 51
1, 226548, Note_on_c, 0, 54, 39
1, 226564, Control_c, 0, 64, 0
1, 226644, Control_c, 0, 64, 127
1, 226664, Control_c, 0, 64, 0
1, 226676, Note_off_c, 0, 72, 64
1, 226688, Note_on_c, 0, 75, 57
1, 226712, Control_c, 0, 64, 127
1, 226832, Note_off_c, 0, 63, 64
1, 226832, Note_off_c, 0, 57, 64
1, 226832, Note_off_c, 0, 54, 64
1, 226844, Note_on_c, 0, 50, 43
1, 226848, Note_on_c, 0, 69, 54
1, 226848, Note_on_c, 0, 60, 52
1, 226856, Note_on_c, 0, 54, 42
1, 226976, Note_off_c, 0, 75, 64
1, 227004, Note_on_c, 0, 74, 44
1, 227032, Control_c, 0, 64, 0
1, 227088, Control_c, 0, 64, 127
1, 227132, Note_off_c, 0, 50, 64
1, 227132, Note_off_c, 0, 69, 64
1, 227132, Note_off_c, 0, 60, 64
1, 227132, Note_off_c, 0, 54, 64
1, 227172, Note_on_c, 0, 43, 45
1, 227188, Note_on_c, 0, 72, 56
1, 227196, Note_off_c, 0, 74, 64
1, 227204, Control_c, 0, 64, 0
1, 227264, Control_c, 0, 64, 127
1, 227316, Note_on_c, 0, 70, 56
1, 227320, Note_off_c, 0, 72, 64
1, 227420, Note_on_c, 0, 73, 61
1, 227424, Control_c, 0, 64, 0
1, 227464, Note_off_c, 0, 70, 64
1, 227500, Note_on_c, 0, 55, 47
1, 227500, Note_on_c, 0, 50, 42
1, 227504, Note_on_c, 0, 75, 56
1, 227516, Note_on_c, 0, 58, 47
1, 227516, Control_c, 0, 64, 127
1, 227540, Note_off_c, 0, 73, 64
1, 227600, Note_on_c, 0, 74, 57
1, 227608, Note_off_c, 0, 75, 64
1, 227684, Note_on_c, 0, 78, 52
1, 227712, Note_off_c, 0, 74, 64
1, 227780, Note_on_c, 0, 81, 62
1, 227796, Note_off_c, 0, 78, 64
1, 227876, Note_on_c, 0, 79, 68
1, 227888, Note_off_c, 0, 81, 64
1, 227964, Control_c, 0, 64, 0
1, 227976, Note_on_c, 0, 81, 66
1, 227980, Note_off_c, 0, 79, 64
1, 228004, Note_off_c, 0, 55, 64
1, 228004, Note_off_c, 0, 50, 64
1, 228016, Note_off_c, 0, 58, 64
1, 228064, Control_c, 0, 64, 127
1, 228080, Note_off_c, 0, 81, 64
1, 228092, Note_on_c, 0, 50, 31
1, 228100, Note_on_c, 0, 84, 93
1, 228116, Note_on_c, 0, 62, 50
1, 228196, Note_on_c, 0, 82, 87
1, 228204, Note_off_c, 0, 84, 64
1, 228300, Note_on_c, 0, 85, 83
1, 228316, Note_off_c, 0, 82, 64
1, 228396, Note_off_c, 0, 43, 64
1, 228412, Note_off_c, 0, 85, 64
1, 228472, Note_on_c, 0, 58, 44
1, 228480, Note_on_c, 0, 67, 51
1, 228492, Note_on_c, 0, 86, 85
1, 228500, Note_off_c, 0, 50, 64
1, 228524, Note_off_c, 0, 62, 64
1, 228640, Note_on_c, 0, 98, 75
1, 228752, Note_on_c, 0, 93, 72
1, 228796, Note_off_c, 0, 98, 64
1, 228828, Note_off_c, 0, 86, 64
1, 228844, Note_on_c, 0, 96, 75
1, 228860, Note_off_c, 0, 93, 64
1, 228884, Note_on_c, 0, 94, 70
1, 228940, Note_on_c, 0, 91, 76
1, 228940, Control_c, 0, 64, 0
1, 228948, Note_off_c, 0, 96, 64
1, 228988, Note_off_c, 0, 94, 64
1, 229004, Note_on_c, 0, 86, 76
1, 229036, Control_c, 0, 64, 127
1, 229048, Note_off_c, 0, 91, 64
1, 229076, Note_on_c, 0, 84, 67
1, 229108, Note_off_c, 0, 58, 64
1, 229108, Note_off_c, 0, 86, 64
1, 229116, Note_off_c, 0, 67, 64
1, 229140, Note_on_c, 0, 82, 81
1, 229180, Note_off_c, 0, 84, 64
1, 229216, Note_on_c, 0, 79, 43
1, 229244, Note_off_c, 0, 82, 64
1, 229308, Note_on_c, 0, 74, 62
1, 229324, Note_off_c, 0, 79, 64
1, 229408, Note_on_c, 0, 70, 62
1, 229412, Note_off_c, 0, 74, 64
1, 229516, Note_off_c, 0, 70, 64
1, 229548, Control_c, 0, 64, 0
1, 229580, Note_on_c, 0, 60, 50
1, 229684, Note_on_c, 0, 70, 62
1, 229696, Note_on_c, 0, 38, 47
1, 229724, Note_off_c, 0, 60, 64
1, 229788, Control_c, 0, 64, 0
1, 229844, Control_c, 0, 64, 127
1, 230044, Control_c, 0, 64, 0
1, 230132, Note_on_c, 0, 60, 33
1, 230144, Note_on_c, 0, 50, 40
1, 230144, Note_on_c, 0, 54, 21
1, 230152, Control_c, 0, 64, 127
1, 230476, Note_off_c, 0, 60, 64
1, 230488, Note_off_c, 0, 50, 64
1, 230488, Note_off_c, 0, 54, 64
1, 230616, Control_c, 0, 64, 0
1, 230676, Note_on_c, 0, 50, 34
1, 230676, Note_on_c, 0, 60, 34
1, 230676, Note_on_c, 0, 54, 34
1, 230708, Control_c, 0, 64, 127
1, 230836, Note_off_c, 0, 54, 64
1, 230864, Note_off_c, 0, 50, 64
1, 230864, Note_off_c, 0, 60, 64
1, 230976, Note_on_c, 0, 60, 28
1, 230980, Note_on_c, 0, 50, 32
1, 230988, Note_on_c, 0, 54, 29
1, 231004, Note_on_c, 0, 69, 57
1, 231008, Note_off_c, 0, 70, 64
1, 231016, Note_off_c, 0, 38, 64
1, 231156, Control_c, 0, 64, 0
1, 231164, Note_off_c, 0, 60, 64
1, 231172, Note_off_c, 0, 50, 64
1, 231176, Note_off_c, 0, 54, 64
1, 231260, Control_c, 0, 64, 127
1, 231268, Note_on_c, 0, 60, 33
1, 231268, Note_on_c, 0, 51, 29
1, 231272, Note_on_c, 0, 54, 30
1, 231456, Note_off_c, 0, 60, 64
1, 231456, Note_off_c, 0, 51, 64
1, 231460, Note_off_c, 0, 54, 64
1, 231476, Note_off_c, 0, 69, 64
1, 231476, Note_on_c, 0, 67, 56
1, 231620, Control_c, 0, 64, 0
1, 231636, Control_c, 0, 64, 0
1, 231644, Note_on_c, 0, 40, 69
1, 231652, Note_on_c, 0, 79, 72
1, 231652, Note_on_c, 0, 52, 65
1, 231704, Control_c, 0, 64, 127
1, 231712, Control_c, 0, 64, 127
1, 231900, Note_off_c, 0, 52, 64
1, 231936, Note_on_c, 0, 61, 62
1, 231936, Note_on_c, 0, 58, 62
1, 231936, Note_on_c, 0, 55, 64
1, 231936, Note_on_c, 0, 52, 43
1, 232136, Note_off_c, 0, 67, 64
1, 232204, Note_off_c, 0, 61, 64
1, 232204, Note_off_c, 0, 58, 64
1, 232204, Note_off_c, 0, 55, 64
1, 232204, Note_off_c, 0, 52, 64
1, 232232, Note_on_c, 0, 67, 53
1, 232232, Note_on_c, 0, 61, 56
1, 232232, Note_on_c, 0, 58, 58
1, 232276, Control_c, 0, 64, 0
1, 232380, Control_c, 0, 64, 127
1, 232416, Note_on_c, 0, 76, 48
1, 232436, Control_c, 0, 64, 0
1, 232488, Note_off_c, 0, 79, 64
1, 232492, Note_off_c, 0, 40, 64
1, 232504, Control_c, 0, 64, 127
1, 232508, Note_on_c, 0, 73, 52
1, 232576, Note_off_c, 0, 76, 64
1, 232608, Note_on_c, 0, 72, 45
1, 232612, Note_off_c, 0, 67, 64
1, 232664, Note_off_c, 0, 73, 64
1, 232700, Note_on_c, 0, 70, 57
1, 232768, Note_off_c, 0, 72, 64
1, 232800, Note_on_c, 0, 69, 53
1, 232844, Note_off_c, 0, 70, 64
1, 232896, Note_on_c, 0, 67, 48
1, 232952, Note_off_c, 0, 61, 64
1, 232960, Note_off_c, 0, 69, 64
1, 232992, Note_on_c, 0, 66, 56
1, 233036, Control_c, 0, 64, 0
1, 233056, Note_off_c, 0, 67, 64
1, 233088, Note_on_c, 0, 64, 47
1, 233112, Control_c, 0, 64, 127
1, 233152, Note_off_c, 0, 66, 64
1, 233192, Note_on_c, 0, 63, 53
1, 233196, Note_off_c, 0, 58, 64
1, 233248, Note_off_c, 0, 64, 64
1, 233276, Note_on_c, 0, 61, 61
1, 233348, Note_off_c, 0, 63, 64
1, 233372, Note_on_c, 0, 58, 51
1, 233432, Note_off_c, 0, 61, 64
1, 233468, Note_on_c, 0, 55, 52
1, 233544, Note_off_c, 0, 58, 64
1, 233568, Note_on_c, 0, 58, 56
1, 233660, Note_on_c, 0, 61, 52
1, 233756, Note_on_c, 0, 66, 48
1, 233780, Note_off_c, 0, 58, 64
1, 233816, Note_off_c, 0, 61, 64
1, 233828, Note_off_c, 0, 55, 64
1, 233852, Note_on_c, 0, 64, 53
1, 233912, Note_off_c, 0, 66, 64
1, 233948, Note_on_c, 0, 69, 52
1, 233948, Control_c, 0, 64, 0
1, 234008, Note_off_c, 0, 64, 64
1, 234012, Control_c, 0, 64, 127
1, 234048, Note_on_c, 0, 67, 62
1, 234104, Note_off_c, 0, 69, 64
1, 234144, Note_on_c, 0, 81, 67
1, 234208, Note_off_c, 0, 67, 64
1, 234228, Note_on_c, 0, 43, 69
1, 234236, Note_on_c, 0, 82, 97
1, 234240, Note_on_c, 0, 55, 65
1, 234304, Note_off_c, 0, 81, 64
1, 234508, Note_off_c, 0, 55, 64
1, 234524, Note_on_c, 0, 64, 41
1, 234524, Note_on_c, 0, 61, 51
1, 234524, Note_on_c, 0, 58, 50
1, 234528, Note_on_c, 0, 55, 61
1, 234556, Control_c, 0, 64, 0
1, 234644, Control_c, 0, 64, 0
1, 234660, Control_c, 0, 64, 127
1, 234704, Control_c, 0, 64, 127
1, 234788, Note_off_c, 0, 64, 64
1, 234788, Note_off_c, 0, 61, 64
1, 234788, Note_off_c, 0, 58, 64
1, 234796, Note_off_c, 0, 55, 64
1, 234812, Note_on_c, 0, 64, 52
1, 234812, Note_on_c, 0, 70, 61
1, 234816, Note_on_c, 0, 61, 62
1, 235044, Note_off_c, 0, 82, 64
1, 235064, Note_off_c, 0, 43, 64
1, 235068, Control_c, 0, 64, 0
1, 235100, Note_off_c, 0, 61, 64
1, 235100, Note_off_c, 0, 64, 64
1, 235100, Note_off_c, 0, 70, 64
1, 235100, Note_on_c, 0, 79, 66
1, 235196, Note_on_c, 0, 76, 53
1, 235256, Note_off_c, 0, 79, 64
1, 235292, Note_on_c, 0, 75, 52
1, 235352, Note_off_c, 0, 76, 64
1, 235392, Note_on_c, 0, 73, 43
1, 235448, Note_off_c, 0, 75, 64
1, 235452, Control_c, 0, 64, 0
1, 235484, Note_on_c, 0, 72, 50
1, 235532, Control_c, 0, 64, 127
1, 235552, Note_off_c, 0, 73, 64
1, 235584, Note_on_c, 0, 70, 50
1, 235640, Note_off_c, 0, 72, 64
1, 235680, Note_on_c, 0, 69, 48
1, 235744, Note_off_c, 0, 70, 64
1, 235772, Note_on_c, 0, 67, 47
1, 235840, Note_off_c, 0, 69, 64
1, 235872, Note_on_c, 0, 66, 51
1, 235928, Note_off_c, 0, 67, 64
1, 235968, Note_on_c, 0, 64, 37
1, 236020, Control_c, 0, 64, 0
1, 236032, Note_off_c, 0, 66, 64
1, 236064, Note_on_c, 0, 61, 52
1, 236092, Control_c, 0, 64, 127
1, 236128, Note_off_c, 0, 64, 64
1, 236156, Note_on_c, 0, 58, 61
1, 236224, Note_off_c, 0, 61, 64
1, 236256, Note_on_c, 0, 61, 45
1, 236272, Control_c, 0, 64, 0
1, 236312, Note_off_c, 0, 58, 64
1, 236340, Control_c, 0, 64, 127
1, 236352, Note_on_c, 0, 43, 53
1, 236352, Note_on_c, 0, 55, 56
1, 236352, Note_on_c, 0, 64, 56
1, 236416, Note_off_c, 0, 61, 64
1, 236448, Note_on_c, 0, 70, 51
1, 236512, Note_off_c, 0, 64, 64
1, 236544, Note_on_c, 0, 73, 56
1, 236544, Note_on_c, 0, 54, 57
1, 236544, Note_on_c, 0, 42, 61
1, 236608, Note_off_c, 0, 70, 64
1, 236620, Note_off_c, 0, 43, 64
1, 236620, Note_off_c, 0, 55, 64
1, 236640, Note_on_c, 0, 76, 42
1, 236704, Note_off_c, 0, 73, 64
1, 236732, Note_on_c, 0, 79, 73
1, 236736, Note_on_c, 0, 52, 57
1, 236736, Note_on_c, 0, 40, 58
1, 236800, Note_off_c, 0, 76, 64
1, 236812, Note_off_c, 0, 54, 64
1, 236812, Note_off_c, 0, 42, 64
1, 236924, Note_off_c, 0, 79, 64
1, 236924, Note_off_c, 0, 52, 64
1, 236924, Note_off_c, 0, 40, 64
1, 236928, Note_on_c, 0, 91, 78
1, 236976, Note_off_c, 0, 91, 64
1, 237016, Control_c, 0, 64, 0
1, 237024, Note_on_c, 0, 91, 93
1, 237024, Note_on_c, 0, 50, 57
1, 237032, Note_on_c, 0, 38, 56
1, 237092, Control_c, 0, 64, 127
1, 237116, Note_on_c, 0, 90, 79
1, 237192, Note_off_c, 0, 91, 64
1, 237212, Note_on_c, 0, 66, 52
1, 237216, Note_on_c, 0, 78, 63
1, 237224, Note_on_c, 0, 59, 47
1, 237224, Note_on_c, 0, 54, 56
1, 237292, Note_off_c, 0, 50, 64
1, 237312, Note_on_c, 0, 77, 56
1, 237336, Note_off_c, 0, 90, 64
1, 237376, Note_off_c, 0, 78, 64
1, 237404, Note_off_c, 0, 66, 64
1, 237404, Note_on_c, 0, 71, 40
1, 237408, Note_on_c, 0, 89, 83
1, 237416, Note_off_c, 0, 59, 64
1, 237420, Note_on_c, 0, 66, 62
1, 237428, Note_on_c, 0, 59, 45
1, 237432, Note_off_c, 0, 54, 64
1, 237504, Note_on_c, 0, 88, 79
1, 237528, Note_off_c, 0, 77, 64
1, 237572, Note_off_c, 0, 89, 64
1, 237600, Note_on_c, 0, 76, 59
1, 237636, Control_c, 0, 64, 0
1, 237684, Control_c, 0, 64, 127
1, 237696, Note_on_c, 0, 75, 62
1, 237720, Note_off_c, 0, 88, 64
1, 237760, Note_off_c, 0, 76, 64
1, 237788, Note_on_c, 0, 87, 82
1, 237856, Note_off_c, 0, 38, 64
1, 237884, Note_on_c, 0, 86, 74
1, 237912, Note_off_c, 0, 75, 64
1, 237944, Note_off_c, 0, 87, 64
1, 237968, Note_off_c, 0, 66, 64
1, 237972, Note_off_c, 0, 59, 64
1, 237984, Note_on_c, 0, 74, 45
1, 237992, Control_c, 0, 64, 0
1, 238020, Note_off_c, 0, 71, 64
1, 238040, Control_c, 0, 64, 127
1, 238076, Note_on_c, 0, 73, 47
1, 238096, Note_off_c, 0, 86, 64
1, 238144, Note_off_c, 0, 74, 64
1, 238172, Note_on_c, 0, 85, 86
1, 238176, Note_on_c, 0, 52, 54
1, 238176, Note_on_c, 0, 40, 56
1, 238268, Note_on_c, 0, 84, 70
1, 238288, Note_off_c, 0, 73, 64
1, 238328, Note_off_c, 0, 85, 64
1, 238364, Note_on_c, 0, 72, 32
1, 238364, Note_on_c, 0, 59, 52
1, 238368, Note_on_c, 0, 67, 34
1, 238388, Note_off_c, 0, 52, 64
1, 238464, Note_on_c, 0, 71, 53
1, 238480, Note_off_c, 0, 84, 64
1, 238504, Control_c, 0, 64, 0
1, 238532, Note_off_c, 0, 72, 64
1, 238552, Control_c, 0, 64, 127
1, 238556, Note_on_c, 0, 83, 89
1, 238620, Control_c, 0, 64, 0
1, 238644, Control_c, 0, 64, 127
1, 238656, Note_on_c, 0, 82, 70
1, 238680, Note_off_c, 0, 71, 64
1, 238712, Note_off_c, 0, 83, 64
1, 238748, Note_on_c, 0, 70, 47
1, 238848, Note_on_c, 0, 69, 57
1, 238872, Note_off_c, 0, 82, 64
1, 238904, Note_off_c, 0, 70, 64
1, 238940, Note_off_c, 0, 40, 64
1, 238940, Note_off_c, 0, 59, 64
1, 238940, Note_off_c, 0, 67, 64
1, 238940, Note_on_c, 0, 81, 64
1, 239008, Note_off_c, 0, 69, 64
1, 239020, Note_on_c, 0, 80, 66
1, 239080, Control_c, 0, 64, 0
1, 239084, Note_off_c, 0, 81, 64
1, 239092, Note_on_c, 0, 68, 45
1, 239160, Control_c, 0, 64, 127
1, 239176, Note_on_c, 0, 67, 61
1, 239232, Note_off_c, 0, 68, 64
1, 239236, Note_off_c, 0, 80, 64
1, 239272, Note_on_c, 0, 79, 59
1, 239380, Note_on_c, 0, 30, 61
1, 239388, Note_off_c, 0, 67, 64
1, 239388, Note_on_c, 0, 42, 56
1, 239388, Note_on_c, 0, 66, 71
1, 239412, Note_off_c, 0, 79, 64
1, 239480, Control_c, 0, 64, 0
1, 239548, Control_c, 0, 64, 127
1, 239596, Control_c, 0, 64, 63
1, 239660, Control_c, 0, 64, 127
1, 239768, Note_on_c, 0, 49, 51
1, 239788, Note_on_c, 0, 59, 47
1, 239980, Note_off_c, 0, 49, 64
1, 239996, Note_off_c, 0, 59, 64
1, 240012, Note_off_c, 0, 30, 64
1, 240036, Note_on_c, 0, 49, 51
1, 240044, Note_on_c, 0, 59, 24
1, 240108, Control_c, 0, 64, 0
1, 240180, Note_on_c, 0, 74, 57
1, 240188, Control_c, 0, 64, 127
1, 240216, Note_off_c, 0, 66, 64
1, 240248, Note_off_c, 0, 49, 64
1, 240252, Note_off_c, 0, 59, 64
1, 240292, Note_on_c, 0, 49, 51
1, 240300, Note_on_c, 0, 59, 52
1, 240360, Note_on_c, 0, 73, 61
1, 240368, Note_off_c, 0, 74, 64
1, 240504, Note_off_c, 0, 49, 64
1, 240512, Note_off_c, 0, 59, 64
1, 240528, Note_off_c, 0, 73, 64
1, 240536, Note_on_c, 0, 49, 50
1, 240540, Note_on_c, 0, 58, 48
1, 240548, Note_on_c, 0, 64, 53
1, 240572, Control_c, 0, 64, 0
1, 240604, Control_c, 0, 64, 0
1, 240640, Control_c, 0, 64, 127
1, 240680, Control_c, 0, 64, 127
1, 240700, Note_off_c, 0, 42, 64
1, 240708, Note_on_c, 0, 66, 52
1, 240732, Note_off_c, 0, 64, 64
1, 240748, Note_off_c, 0, 49, 64
1, 240752, Note_off_c, 0, 58, 64
1, 240784, Note_on_c, 0, 58, 47
1, 240792, Note_on_c, 0, 49, 50
1, 240848, Note_off_c, 0, 66, 64
1, 240924, Note_on_c, 0, 61, 61
1, 240984, Note_off_c, 0, 61, 64
1, 240992, Note_off_c, 0, 58, 64
1, 241000, Note_off_c, 0, 49, 64
1, 241028, Note_on_c, 0, 61, 56
1, 241064, Control_c, 0, 64, 0
1, 241068, Note_on_c, 0, 41, 51
1, 241080, Note_on_c, 0, 29, 53
1, 241116, Control_c, 0, 64, 0
1, 241124, Control_c, 0, 64, 127
1, 241160, Control_c, 0, 64, 127
1, 241352, Note_on_c, 0, 50, 50
1, 241364, Note_on_c, 0, 59, 50
1, 241364, Note_on_c, 0, 62, 56
1, 241412, Note_off_c, 0, 61, 64
1, 241560, Note_off_c, 0, 50, 64
1, 241572, Note_off_c, 0, 59, 64
1, 241596, Control_c, 0, 64, 0
1, 241616, Note_on_c, 0, 59, 52
1, 241624, Note_on_c, 0, 50, 56
1, 241628, Note_off_c, 0, 29, 64
1, 241660, Control_c, 0, 64, 127
1, 241828, Note_off_c, 0, 59, 64
1, 241836, Note_off_c, 0, 50, 64
1, 241852, Note_on_c, 0, 55, 54
1, 241856, Note_on_c, 0, 50, 57
1, 241860, Note_on_c, 0, 59, 53
1, 242012, Note_off_c, 0, 62, 64
1, 242060, Note_off_c, 0, 55, 64
1, 242064, Note_off_c, 0, 50, 64
1, 242068, Note_off_c, 0, 59, 64
1, 242120, Note_on_c, 0, 67, 59
1, 242120, Note_on_c, 0, 59, 51
1, 242132, Note_on_c, 0, 55, 57
1, 242132, Note_on_c, 0, 50, 61
1, 242168, Control_c, 0, 64, 0
1, 242248, Control_c, 0, 64, 127
1, 242332, Note_off_c, 0, 59, 64
1, 242340, Note_off_c, 0, 55, 64
1, 242344, Note_off_c, 0, 50, 64
1, 242376, Note_on_c, 0, 59, 52
1, 242376, Note_on_c, 0, 55, 60
1, 242376, Note_on_c, 0, 50, 62
1, 242388, Note_on_c, 0, 79, 73
1, 242404, Note_off_c, 0, 67, 64
1, 242452, Control_c, 0, 64, 0
1, 242528, Control_c, 0, 64, 127
1, 242540, Note_off_c, 0, 41, 64
1, 242584, Note_off_c, 0, 59, 64
1, 242584, Note_off_c, 0, 55, 64
1, 242584, Note_off_c, 0, 50, 64
1, 242684, Note_on_c, 0, 93, 82
1, 242688, Note_on_c, 0, 40, 72
1, 242696, Note_on_c, 0, 28, 61
1, 242712, Note_off_c, 0, 79, 64
1, 242764, Control_c, 0, 64, 0
1, 242784, Note_on_c, 0, 92, 75
1, 242828, Control_c, 0, 64, 127
1, 242876, Note_on_c, 0, 60, 62
1, 242876, Note_on_c, 0, 55, 52
1, 242876, Note_on_c, 0, 48, 65
1, 242880, Note_on_c, 0, 91, 80
1, 242924, Note_off_c, 0, 93, 64
1, 242976, Note_on_c, 0, 79, 62
1, 243028, Note_off_c, 0, 92, 64
1, 243028, Note_off_c, 0, 91, 64
1, 243072, Note_on_c, 0, 91, 79
1, 243100, Control_c, 0, 64, 0
1, 243156, Control_c, 0, 64, 127
1, 243164, Note_on_c, 0, 90, 75
1, 243204, Note_off_c, 0, 79, 64
1, 243220, Note_off_c, 0, 60, 64
1, 243220, Note_off_c, 0, 55, 64
1, 243228, Note_off_c, 0, 48, 64
1, 243252, Note_off_c, 0, 91, 64
1, 243260, Note_on_c, 0, 67, 65
1, 243264, Note_on_c, 0, 78, 43
1, 243264, Note_on_c, 0, 60, 55
1, 243264, Note_on_c, 0, 55, 62
1, 243356, Note_on_c, 0, 77, 50
1, 243404, Note_off_c, 0, 90, 64
1, 243444, Note_off_c, 0, 78, 64
1, 243452, Note_off_c, 0, 67, 64
1, 243452, Note_on_c, 0, 89, 73
1, 243452, Note_on_c, 0, 72, 48
1, 243456, Note_on_c, 0, 67, 39
1, 243460, Note_off_c, 0, 60, 64
1, 243460, Note_off_c, 0, 55, 64
1, 243464, Note_on_c, 0, 60, 69
1, 243552, Note_on_c, 0, 88, 73
1, 243580, Note_off_c, 0, 77, 64
1, 243620, Control_c, 0, 64, 0
1, 243628, Note_off_c, 0, 89, 64
1, 243644, Note_on_c, 0, 76, 40
1, 243724, Control_c, 0, 64, 127
1, 243732, Note_off_c, 0, 72, 64
1, 243740, Note_off_c, 0, 67, 64
1, 243744, Note_off_c, 0, 60, 64
1, 243744, Note_on_c, 0, 75, 50
1, 243796, Note_off_c, 0, 88, 64
1, 243820, Note_off_c, 0, 76, 64
1, 243836, Note_on_c, 0, 41, 65
1, 243840, Note_off_c, 0, 40, 64
1, 243840, Note_on_c, 0, 29, 61
1, 243840, Note_on_c, 0, 87, 87
1, 243848, Note_off_c, 0, 28, 64
1, 243932, Note_off_c, 0, 75, 64
1, 243932, Note_on_c, 0, 86, 79
1, 243952, Control_c, 0, 64, 0
1, 243980, Control_c, 0, 64, 127
1, 244020, Note_off_c, 0, 87, 64
1, 244028, Note_on_c, 0, 59, 44
1, 244028, Note_on_c, 0, 68, 47
1, 244028, Note_on_c, 0, 74, 48
1, 244124, Control_c, 0, 64, 0
1, 244128, Note_on_c, 0, 73, 69
1, 244172, Note_off_c, 0, 86, 64
1, 244200, Control_c, 0, 64, 127
1, 244204, Note_off_c, 0, 74, 64
1, 244224, Note_on_c, 0, 85, 83
1, 244320, Note_on_c, 0, 84, 55
1, 244372, Note_off_c, 0, 73, 64
1, 244384, Note_off_c, 0, 85, 64
1, 244412, Note_on_c, 0, 72, 57
1, 244508, Note_on_c, 0, 71, 56
1, 244532, Note_off_c, 0, 84, 64
1, 244568, Note_off_c, 0, 72, 64
1, 244572, Note_on_c, 0, 83, 78
1, 244652, Control_c, 0, 64, 0
1, 244652, Note_on_c, 0, 82, 79
1, 244664, Note_off_c, 0, 71, 64
1, 244704, Note_on_c, 0, 70, 59
1, 244728, Note_off_c, 0, 83, 64
1, 244732, Note_off_c, 0, 59, 64
1, 244732, Note_off_c, 0, 68, 64
1, 244732, Control_c, 0, 64, 127
1, 244796, Note_on_c, 0, 69, 57
1, 244812, Note_off_c, 0, 82, 64
1, 244864, Note_off_c, 0, 70, 64
1, 244876, Note_on_c, 0, 81, 72
1, 244952, Note_off_c, 0, 69, 64
1, 244956, Note_on_c, 0, 80, 63
1, 245004, Note_on_c, 0, 68, 56
1, 245036, Note_off_c, 0, 81, 64
1, 245076, Note_on_c, 0, 67, 57
1, 245084, Note_off_c, 0, 41, 64
1, 245084, Note_on_c, 0, 42, 42
1, 245084, Note_on_c, 0, 30, 53
1, 245088, Note_off_c, 0, 29, 64
1, 245108, Control_c, 0, 64, 0
1, 245112, Note_off_c, 0, 80, 64
1, 245148, Note_on_c, 0, 79, 63
1, 245164, Note_off_c, 0, 68, 64
1, 245164, Control_c, 0, 64, 127
1, 245236, Note_on_c, 0, 78, 54
1, 245248, Note_off_c, 0, 67, 64
1, 245292, Note_on_c, 0, 66, 48
1, 245304, Note_off_c, 0, 79, 64
1, 245328, Control_c, 0, 64, 0
1, 245376, Note_on_c, 0, 54, 48
1, 245376, Note_on_c, 0, 50, 56
1, 245376, Note_on_c, 0, 65, 48
1, 245380, Note_on_c, 0, 62, 51
1, 245384, Note_on_c, 0, 59, 53
1, 245396, Note_off_c, 0, 78, 64
1, 245424, Control_c, 0, 64, 0
1, 245436, Note_off_c, 0, 66, 64
1, 245468, Note_on_c, 0, 66, 48
1, 245476, Control_c, 0, 64, 127
1, 245508, Note_off_c, 0, 65, 64
1, 245564, Note_on_c, 0, 67, 48
1, 245588, Note_off_c, 0, 66, 64
1, 245660, Note_on_c, 0, 68, 48
1, 245660, Control_c, 0, 64, 0
1, 245692, Note_off_c, 0, 67, 64
1, 245720, Control_c, 0, 64, 127
1, 245756, Control_c, 0, 64, 0
1, 245768, Note_on_c, 0, 69, 48
1, 245788, Control_c, 0, 64, 127
1, 245792, Note_off_c, 0, 68, 64
1, 245852, Note_on_c, 0, 70, 48
1, 245868, Note_off_c, 0, 30, 64
1, 245868, Note_off_c, 0, 42, 64
1, 245888, Note_off_c, 0, 69, 64
1, 245948, Note_on_c, 0, 71, 48
1, 245984, Note_off_c, 0, 70, 64
1, 246048, Note_on_c, 0, 73, 48
1, 246120, Note_off_c, 0, 71, 64
1, 246144, Note_on_c, 0, 76, 48
1, 246200, Note_off_c, 0, 73, 64
1, 246220, Control_c, 0, 64, 0
1, 246236, Note_on_c, 0, 75, 48
1, 246260, Note_off_c, 0, 76, 64
1, 246308, Control_c, 0, 64, 127
1, 246332, Note_on_c, 0, 74, 48
1, 246396, Note_off_c, 0, 75, 64
1, 246428, Note_on_c, 0, 70, 48
1, 246432, Note_off_c, 0, 74, 64
1, 246528, Note_on_c, 0, 73, 48
1, 246560, Note_off_c, 0, 70, 64
1, 246624, Note_on_c, 0, 71, 48
1, 246636, Note_off_c, 0, 73, 64
1, 246716, Note_on_c, 0, 72, 48
1, 246768, Note_off_c, 0, 71, 64
1, 246812, Note_on_c, 0, 73, 48
1, 246824, Control_c, 0, 64, 0
1, 246856, Note_off_c, 0, 72, 64
1, 246900, Control_c, 0, 64, 127
1, 246912, Note_on_c, 0, 76, 48
1, 246956, Note_off_c, 0, 73, 64
1, 247008, Note_on_c, 0, 74, 48
1, 247012, Note_off_c, 0, 76, 64
1, 247100, Note_on_c, 0, 75, 48
1, 247200, Note_on_c, 0, 76, 48
1, 247204, Note_off_c, 0, 74, 64
1, 247208, Note_off_c, 0, 75, 64
1, 247292, Note_off_c, 0, 50, 64
1, 247292, Note_off_c, 0, 54, 64
1, 247292, Note_off_c, 0, 59, 64
1, 247292, Note_off_c, 0, 62, 64
1, 247292, Note_on_c, 0, 79, 57
1, 247344, Note_off_c, 0, 76, 64
1, 247388, Note_on_c, 0, 77, 48
1, 247392, Note_off_c, 0, 79, 64
1, 247484, Note_on_c, 0, 78, 48
1, 247528, Note_off_c, 0, 77, 64
1, 247584, Note_on_c, 0, 82, 68
1, 247620, Note_off_c, 0, 78, 64
1, 247680, Note_on_c, 0, 83, 68
1, 247704, Note_off_c, 0, 82, 64
1, 247716, Control_c, 0, 64, 0
1, 247768, Control_c, 0, 64, 127
1, 247776, Note_on_c, 0, 81, 56
1, 247780, Note_off_c, 0, 83, 64
1, 247868, Note_on_c, 0, 79, 56
1, 247928, Note_off_c, 0, 81, 64
1, 247968, Note_on_c, 0, 78, 46
1, 248012, Note_off_c, 0, 79, 64
1, 248060, Note_off_c, 0, 78, 64
1, 248060, Note_on_c, 0, 77, 46
1, 248140, Note_on_c, 0, 79, 54
1, 248172, Note_off_c, 0, 77, 64
1, 248252, Note_on_c, 0, 78, 45
1, 248292, Note_off_c, 0, 79, 64
1, 248356, Note_on_c, 0, 74, 45
1, 248364, Note_off_c, 0, 78, 64
1, 248444, Note_on_c, 0, 70, 44
1, 248456, Note_off_c, 0, 74, 64
1, 248540, Note_on_c, 0, 71, 43
1, 248572, Note_off_c, 0, 70, 64
1, 248640, Note_on_c, 0, 74, 43
1, 248684, Note_off_c, 0, 71, 64
1, 248732, Note_on_c, 0, 73, 43
1, 248760, Control_c, 0, 64, 0
1, 248804, Note_off_c, 0, 74, 64
1, 248824, Control_c, 0, 64, 127
1, 248832, Note_on_c, 0, 76, 42
1, 248860, Note_off_c, 0, 73, 64
1, 248916, Note_on_c, 0, 74, 42
1, 248972, Note_off_c, 0, 76, 64
1, 249028, Note_on_c, 0, 73, 41
1, 249084, Note_off_c, 0, 74, 64
1, 249140, Note_on_c, 0, 71, 40
1, 249148, Note_off_c, 0, 73, 64
1, 249240, Note_on_c, 0, 70, 40
1, 249260, Note_off_c, 0, 71, 64
1, 249348, Note_on_c, 0, 73, 39
1, 249364, Note_off_c, 0, 70, 64
1, 249452, Note_on_c, 0, 71, 39
1, 249464, Note_off_c, 0, 73, 64
1, 249476, Control_c, 0, 64, 0
1, 249560, Note_off_c, 0, 71, 64
1, 249568, Note_on_c, 0, 67, 39
1, 249580, Control_c, 0, 64, 127
1, 249672, Note_on_c, 0, 65, 37
1, 249716, Note_off_c, 0, 67, 64
1, 249780, Note_on_c, 0, 66, 39
1, 249812, Note_off_c, 0, 65, 64
1, 249900, Note_off_c, 0, 66, 64
1, 249904, Note_on_c, 0, 71, 28
1, 250016, Note_on_c, 0, 70, 39
1, 250032, Note_off_c, 0, 71, 64
1, 250112, Note_on_c, 0, 66, 39
1, 250188, Note_off_c, 0, 70, 64
1, 250216, Note_on_c, 0, 65, 38
1, 250228, Note_off_c, 0, 66, 64
1, 250236, Control_c, 0, 64, 0
1, 250324, Note_on_c, 0, 69, 37
1, 250360, Note_off_c, 0, 65, 64
1, 250432, Note_on_c, 0, 68, 43
1, 250472, Note_off_c, 0, 69, 64
1, 250536, Note_on_c, 0, 64, 33
1, 250548, Note_off_c, 0, 68, 64
1, 250640, Note_on_c, 0, 63, 45
1, 250688, Note_off_c, 0, 64, 64
1, 250740, Note_on_c, 0, 67, 35
1, 250768, Note_off_c, 0, 63, 64
1, 250840, Note_on_c, 0, 66, 38
1, 250884, Note_off_c, 0, 67, 64
1, 250884, Control_c, 0, 64, 0
1, 250952, Note_on_c, 0, 62, 36
1, 250964, Note_off_c, 0, 66, 64
1, 250964, Control_c, 0, 64, 127
1, 250964, Control_c, 0, 64, 127
1, 251052, Note_on_c, 0, 61, 38
1, 251116, Note_off_c, 0, 62, 64
1, 251144, Control_c, 0, 64, 0
1, 251164, Note_on_c, 0, 65, 34
1, 251184, Note_off_c, 0, 61, 64
1, 251276, Note_on_c, 0, 64, 36
1, 251316, Note_off_c, 0, 65, 64
1, 251388, Note_on_c, 0, 60, 33
1, 251396, Note_off_c, 0, 64, 64
1, 251516, Note_on_c, 0, 59, 34
1, 251556, Note_off_c, 0, 60, 64
1, 251632, Note_on_c, 0, 63, 27
1, 251656, Note_off_c, 0, 59, 64
1, 251764, Note_on_c, 0, 62, 34
1, 251776, Note_off_c, 0, 63, 64
1, 251900, Note_on_c, 0, 58, 31
1, 251920, Note_off_c, 0, 62, 64
1, 252044, Note_on_c, 0, 61, 22
1, 252068, Note_off_c, 0, 58, 64
1, 252084, Control_c, 0, 64, 0
1, 252168, Control_c, 0, 64, 127
1, 252212, Note_on_c, 0, 59, 33
1, 252228, Note_off_c, 0, 61, 64
1, 252404, Note_on_c, 0, 55, 31
1, 252416, Note_off_c, 0, 59, 64
1, 252496, Control_c, 0, 64, 127
1, 252648, Note_on_c, 0, 54, 33
1, 252676, Control_c, 0, 64, 0
1, 252704, Note_off_c, 0, 55, 64
1, 253368, Control_c, 0, 64, 127
1, 253456, Control_c, 0, 64, 0
1, 253532, Control_c, 0, 64, 127
1, 254376, Note_on_c, 0, 62, 43
1, 254388, Note_on_c, 0, 59, 23
1, 254388, Note_on_c, 0, 53, 17
1, 254392, Note_on_c, 0, 55, 32
1, 254396, Note_on_c, 0, 42, 32
1, 254820, Control_c, 0, 64, 0
1, 254880, Control_c, 0, 64, 0
1, 254940, Control_c, 0, 64, 127
1, 254956, Control_c, 0, 64, 127
1, 255572, Control_c, 0, 64, 0
1, 255648, Control_c, 0, 64, 127
1, 255764, Note_off_c, 0, 62, 64
1, 255776, Note_off_c, 0, 53, 64
1, 255776, Note_off_c, 0, 54, 64
1, 255776, Note_off_c, 0, 59, 64
1, 255780, Note_off_c, 0, 42, 64
1, 255780, Note_off_c, 0, 55, 64
1, 255796, Note_on_c, 0, 54, 38
1, 255940, Control_c, 0, 64, 0
1, 255996, Control_c, 0, 64, 127
1, 256188, Control_c, 0, 64, 0
1, 256244, Control_c, 0, 64, 127
1, 256908, Control_c, 0, 64, 0
1, 257008, Control_c, 0, 64, 127
1, 257532, Note_on_c, 0, 64, 33
1, 257536, Note_on_c, 0, 66, 33
1, 257536, Note_on_c, 0, 58, 27
1, 257536, Note_on_c, 0, 42, 28
1, 257540, Note_on_c, 0, 49, 22
1, 257720, Control_c, 0, 64, 0
1, 257832, Control_c, 0, 64, 127
1, 257880, Control_c, 0, 64, 0
1, 257976, Control_c, 0, 64, 127
1, 258428, Control_c, 0, 64, 0
1, 258720, Control_c, 0, 64, 127
1, 258772, Note_off_c, 0, 64, 64
1, 258776, Note_off_c, 0, 42, 64
1, 258776, Note_off_c, 0, 58, 64
1, 258776, Note_off_c, 0, 66, 64
1, 258780, Note_off_c, 0, 49, 64
1, 258812, Note_off_c, 0, 54, 64
1, 259020, Control_c, 0, 64, 0
1, 259076, Control_c, 0, 64, 127
1, 259116, Control_c, 0, 64, 127
1, 259132, Note_on_c, 0, 42, 33
1, 259136, Note_on_c, 0, 54, 31
1, 259144, Note_on_c, 0, 66, 35
1, 259144, Note_on_c, 0, 47, 34
1, 259144, Note_on_c, 0, 35, 34
1, 259156, Note_on_c, 0, 63, 28
1, 259156, Note_on_c, 0, 59, 33
1, 259408, Control_c, 0, 64, 0
1, 260064, Note_off_c, 0, 35, 64
1, 260076, Note_on_c, 0, 35, 37
1, 260096, Note_off_c, 0, 42, 64
1, 260116, Note_off_c, 0, 66, 64
1, 260116, Note_on_c, 0, 42, 37
1, 260124, Note_off_c, 0, 47, 64
1, 260124, Note_off_c, 0, 59, 64
1, 260124, Note_off_c, 0, 63, 64
1, 260132, Note_off_c, 0, 54, 64
1, 260148, Note_on_c, 0, 58, 41
1, 260148, Note_on_c, 0, 54, 37
1, 260148, Note_on_c, 0, 49, 41
1, 260156, Note_on_c, 0, 66, 39
1, 260160, Note_on_c, 0, 64, 41
1, 260268, Control_c, 0, 64, 0
1, 260368, Control_c, 0, 64, 127
1, 261116, Note_off_c, 0, 35, 64
1, 261128, Note_on_c, 0, 35, 42
1, 261140, Note_off_c, 0, 42, 64
1, 261168, Note_off_c, 0, 49, 64
1, 261172, Note_off_c, 0, 54, 64
1, 261180, Note_on_c, 0, 42, 41
1, 261184, Note_off_c, 0, 58, 64
1, 261200, Note_off_c, 0, 64, 64
1, 261208, Note_off_c, 0, 66, 64
1, 261236, Note_on_c, 0, 66, 42
1, 261248, Note_on_c, 0, 63, 44
1, 261248, Note_on_c, 0, 59, 44
1, 261256, Note_on_c, 0, 54, 40
1, 261260, Note_on_c, 0, 51, 43
1, 261308, Control_c, 0, 64, 0
1, 261392, Control_c, 0, 64, 127
1, 262196, Note_off_c, 0, 35, 64
1, 262204, Note_on_c, 0, 35, 45
1, 262248, Note_off_c, 0, 42, 64
1, 262268, Note_on_c, 0, 42, 45
1, 262284, Note_off_c, 0, 66, 64
1, 262296, Note_off_c, 0, 63, 64
1, 262296, Note_off_c, 0, 59, 64
1, 262304, Note_off_c, 0, 54, 64
1, 262308, Note_off_c, 0, 51, 64
1, 262324, Note_on_c, 0, 66, 45
1, 262336, Note_on_c, 0, 58, 49
1, 262344, Note_on_c, 0, 64, 47
1, 262348, Note_on_c, 0, 54, 49
1, 262348, Note_on_c, 0, 49, 49
1, 262396, Control_c, 0, 64, 0
1, 262508, Control_c, 0, 64, 127
1, 263272, Note_off_c, 0, 35, 64
1, 263276, Note_on_c, 0, 35, 47
1, 263336, Note_off_c, 0, 42, 64
1, 263340, Note_on_c, 0, 42, 46
1, 263372, Note_off_c, 0, 66, 64
1, 263384, Note_off_c, 0, 58, 64
1, 263392, Note_off_c, 0, 64, 64
1, 263396, Note_off_c, 0, 49, 64
1, 263396, Note_off_c, 0, 54, 64
1, 263400, Control_c, 0, 64, 0
1, 263412, Note_on_c, 0, 66, 49
1, 263428, Note_on_c, 0, 51, 47
1, 263428, Note_on_c, 0, 59, 50
1, 263428, Note_on_c, 0, 54, 46
1, 263428, Note_on_c, 0, 63, 48
1, 263512, Control_c, 0, 64, 127
1, 264188, Note_off_c, 0, 35, 64
1, 264252, Note_off_c, 0, 42, 64
1, 264320, Note_off_c, 0, 66, 64
1, 264340, Note_off_c, 0, 54, 64
1, 264340, Note_off_c, 0, 59, 64
1, 264340, Note_off_c, 0, 63, 64
1, 264472, Note_off_c, 0, 51, 64
1, 264500, Note_on_c, 0, 71, 53
1, 264504, Note_on_c, 0, 63, 51
1, 264504, Note_on_c, 0, 59, 47
1, 264516, Note_on_c, 0, 42, 46
1, 264516, Note_on_c, 0, 35, 48
1, 264516, Control_c, 0, 64, 0
1, 264532, Note_on_c, 0, 47, 49
1, 264612, Control_c, 0, 64, 127
1, 265740, Note_off_c, 0, 71, 64
1, 265744, Note_off_c, 0, 59, 64
1, 265744, Note_off_c, 0, 63, 64
1, 265756, Note_off_c, 0, 35, 64
1, 265756, Note_off_c, 0, 42, 64
1, 265772, Note_off_c, 0, 47, 64
1, 265820, Note_on_c, 0, 75, 51
1, 265836, Note_on_c, 0, 66, 54
1, 265836, Note_on_c, 0, 63, 53
1, 265844, Note_on_c, 0, 71, 54
1, 265848, Note_on_c, 0, 42, 49
1, 265848, Note_on_c, 0, 30, 51
1, 265904, Control_c, 0, 64, 0
1, 266016, Control_c, 0, 64, 127
1, 267924, Note_off_c, 0, 75, 64
1, 267940, Note_off_c, 0, 63, 64
1, 267940, Note_off_c, 0, 66, 64
1, 267948, Note_off_c, 0, 71, 64
1, 267952, Note_off_c, 0, 30, 64
1, 267952, Note_off_c, 0, 42, 64
1, 268024, Note_on_c, 0, 63, 47
1, 268028, Note_on_c, 0, 75, 53
1, 268028, Note_on_c, 0, 66, 53
1, 268036, Note_on_c, 0, 42, 48
1, 268044, Note_on_c, 0, 71, 52
1, 268044, Note_on_c, 0, 54, 47
1, 268076, Control_c, 0, 64, 0
1, 268176, Control_c, 0, 64, 127
1, 269040, Note_off_c, 0, 63, 64
1, 269044, Note_off_c, 0, 66, 64
1, 269044, Note_off_c, 0, 75, 64
1, 269052, Note_off_c, 0, 42, 64
1, 269060, Note_off_c, 0, 54, 64
1, 269060, Note_off_c, 0, 71, 64
1, 269088, Note_on_c, 0, 73, 51
1, 269088, Note_on_c, 0, 56, 53
1, 269088, Note_on_c, 0, 42, 53
1, 269100, Note_on_c, 0, 65, 54
1, 269100, Note_on_c, 0, 61, 51
1, 269108, Note_on_c, 0, 71, 54
1, 269112, Note_on_c, 0, 49, 51
1, 269220, Control_c, 0, 64, 0
1, 269320, Control_c, 0, 64, 127
1, 269856, Note_off_c, 0, 42, 64
1, 269880, Note_off_c, 0, 49, 64
1, 269908, Note_on_c, 0, 42, 42
1, 269984, Note_on_c, 0, 49, 41
1, 269992, Note_off_c, 0, 73, 64
1, 269992, Note_off_c, 0, 56, 64
1, 270004, Note_off_c, 0, 65, 64
1, 270004, Note_off_c, 0, 61, 64
1, 270012, Note_off_c, 0, 71, 64
1, 270020, Control_c, 0, 64, 0
1, 270036, Note_on_c, 0, 64, 53
1, 270040, Note_on_c, 0, 75, 54
1, 270044, Note_on_c, 0, 66, 49
1, 270084, Control_c, 0, 64, 127
1, 270168, Note_on_c, 0, 59, 47
1, 270192, Control_c, 0, 64, 127
1, 270260, Control_c, 0, 64, 0
1, 270284, Note_on_c, 0, 58, 47
1, 270304, Note_off_c, 0, 59, 64
1, 270380, Note_off_c, 0, 58, 64
1, 270388, Note_on_c, 0, 59, 47
1, 270464, Note_on_c, 0, 58, 48
1, 270484, Note_off_c, 0, 59, 64
1, 270540, Note_off_c, 0, 58, 64
1, 270548, Note_on_c, 0, 59, 48
1, 270612, Note_on_c, 0, 58, 49
1, 270612, Control_c, 0, 64, 127
1, 270632, Note_off_c, 0, 59, 64
1, 270676, Note_off_c, 0, 58, 64
1, 270680, Note_on_c, 0, 59, 49
1, 270736, Note_on_c, 0, 58, 49
1, 270748, Note_off_c, 0, 59, 64
1, 270796, Note_on_c, 0, 59, 50
1, 270800, Note_off_c, 0, 58, 64
1, 270856, Note_on_c, 0, 58, 50
1, 270860, Note_off_c, 0, 59, 64
1, 270920, Note_off_c, 0, 58, 64
1, 270920, Note_on_c, 0, 59, 51
1, 270976, Note_off_c, 0, 42, 64
1, 270980, Note_off_c, 0, 59, 64
1, 270980, Note_on_c, 0, 58, 51
1, 270988, Note_off_c, 0, 64, 64
1, 270996, Note_off_c, 0, 66, 64
1, 271032, Note_off_c, 0, 58, 64
1, 271036, Note_on_c, 0, 54, 32
1, 271040, Note_on_c, 0, 59, 51
1, 271052, Note_off_c, 0, 49, 64
1, 271052, Note_on_c, 0, 64, 44
1, 271064, Note_on_c, 0, 66, 44
1, 271068, Note_on_c, 0, 61, 40
1, 271092, Note_on_c, 0, 58, 51
1, 271100, Note_off_c, 0, 59, 64
1, 271108, Note_off_c, 0, 75, 64
1, 271148, Note_off_c, 0, 58, 64
1, 271156, Note_on_c, 0, 59, 51
1, 271200, Note_on_c, 0, 58, 51
1, 271220, Note_off_c, 0, 59, 64
1, 271256, Note_off_c, 0, 58, 64
1, 271268, Note_on_c, 0, 59, 51
1, 271312, Note_on_c, 0, 58, 51
1, 271328, Note_off_c, 0, 59, 64
1, 271364, Note_off_c, 0, 58, 64
1, 271380, Note_on_c, 0, 59, 51
1, 271440, Note_on_c, 0, 58, 50
1, 271444, Note_off_c, 0, 59, 64
1, 271484, Note_off_c, 0, 58, 64
1, 271500, Note_on_c, 0, 59, 50
1, 271548, Note_on_c, 0, 58, 50
1, 271556, Note_off_c, 0, 59, 64
1, 271608, Note_off_c, 0, 58, 64
1, 271620, Note_on_c, 0, 59, 50
1, 271644, Note_on_c, 0, 58, 50
1, 271668, Note_off_c, 0, 59, 64
1, 271692, Note_on_c, 0, 59, 49
1, 271720, Note_off_c, 0, 58, 64
1, 271792, Control_c, 0, 64, 0
1, 271792, Note_on_c, 0, 58, 50
1, 271836, Note_on_c, 0, 56, 54
1, 271848, Note_off_c, 0, 59, 64
1, 271868, Note_off_c, 0, 58, 64
1, 271980, Note_on_c, 0, 58, 47
1, 271988, Note_off_c, 0, 54, 64
1, 272004, Note_off_c, 0, 64, 64
1, 272012, Note_off_c, 0, 56, 64
1, 272016, Note_off_c, 0, 66, 64
1, 272020, Note_off_c, 0, 61, 64
1, 272204, Note_on_c, 0, 59, 45
1, 272212, Note_on_c, 0, 63, 34
1, 272212, Note_on_c, 0, 54, 44
1, 272236, Note_off_c, 0, 58, 64
1, 272308, Note_on_c, 0, 35, 66
1, 272328, Note_on_c, 0, 71, 44
1, 272468, Control_c, 0, 64, 127
1, 272556, Note_on_c, 0, 42, 43
1, 272852, Note_on_c, 0, 47, 48
1, 272864, Note_off_c, 0, 42, 64
1, 273120, Note_on_c, 0, 49, 41
1, 273164, Note_off_c, 0, 47, 64
1, 273272, Note_off_c, 0, 59, 64
1, 273280, Note_off_c, 0, 63, 64
1, 273280, Note_off_c, 0, 54, 64
1, 273292, Control_c, 0, 64, 0
1, 273364, Note_off_c, 0, 71, 64
1, 273372, Control_c, 0, 64, 127
1, 273384, Note_on_c, 0, 51, 52
1, 273396, Note_off_c, 0, 35, 64
1, 273420, Note_off_c, 0, 49, 64
1, 273612, Note_on_c, 0, 56, 31
1, 273648, Note_off_c, 0, 51, 64
1, 273844, Note_on_c, 0, 54, 49
1, 273880, Note_off_c, 0, 56, 64
1, 274060, Note_off_c, 0, 54, 64
1, 274092, Note_on_c, 0, 54, 39
1, 274092, Note_on_c, 0, 51, 46
1, 274112, Note_on_c, 0, 59, 39
1, 274348, Note_on_c, 0, 66, 53
1, 274360, Note_off_c, 0, 54, 64
1, 274368, Note_on_c, 0, 63, 40
1, 274380, Note_off_c, 0, 59, 64
1, 274380, Note_on_c, 0, 49, 58
1, 274384, Note_off_c, 0, 51, 64
1, 274600, Note_off_c, 0, 63, 64
1, 274620, Note_on_c, 0, 51, 45
1, 274628, Note_on_c, 0, 59, 42
1, 274644, Note_on_c, 0, 54, 42
1, 274648, Note_off_c, 0, 49, 64
1, 274812, Note_off_c, 0, 54, 64
1, 274864, Note_on_c, 0, 68, 58
1, 274884, Note_off_c, 0, 66, 64
1, 274884, Note_on_c, 0, 63, 43
1, 274896, Note_on_c, 0, 49, 56
1, 274924, Note_off_c, 0, 51, 64
1, 274924, Note_off_c, 0, 59, 64
1, 275132, Note_on_c, 0, 47, 62
1, 275140, Note_on_c, 0, 59, 44
1, 275148, Note_on_c, 0, 54, 44
1, 275156, Note_off_c, 0, 63, 64
1, 275160, Note_off_c, 0, 49, 64
1, 275364, Control_c, 0, 64, 0
1, 275400, Note_off_c, 0, 68, 64
1, 275436, Note_on_c, 0, 68, 34
1, 275456, Note_on_c, 0, 64, 45
1, 275464, Note_on_c, 0, 30, 56
1, 275476, Note_off_c, 0, 59, 64
1, 275488, Control_c, 0, 64, 127
1, 275492, Note_off_c, 0, 47, 64
1, 275496, Note_off_c, 0, 54, 64
1, 275820, Note_off_c, 0, 64, 64
1, 275828, Note_on_c, 0, 54, 44
1, 275828, Note_on_c, 0, 42, 58
1, 275844, Note_on_c, 0, 59, 44
1, 276108, Note_off_c, 0, 42, 64
1, 276108, Note_on_c, 0, 49, 55
1, 276120, Note_off_c, 0, 59, 64
1, 276124, Note_on_c, 0, 66, 54
1, 276132, Note_off_c, 0, 68, 64
1, 276132, Note_on_c, 0, 64, 41
1, 276204, Note_off_c, 0, 54, 64
1, 276372, Note_on_c, 0, 51, 39
1, 276384, Note_on_c, 0, 54, 40
1, 276396, Note_on_c, 0, 58, 39
1, 276408, Note_off_c, 0, 64, 64
1, 276416, Note_off_c, 0, 49, 64
1, 276552, Note_off_c, 0, 30, 64
1, 276620, Note_on_c, 0, 52, 53
1, 276636, Note_off_c, 0, 51, 64
1, 276644, Note_on_c, 0, 64, 38
1, 276676, Note_off_c, 0, 54, 64
1, 276688, Note_off_c, 0, 58, 64
1, 276840, Note_on_c, 0, 58, 37
1, 276848, Note_on_c, 0, 56, 46
1, 276884, Note_off_c, 0, 52, 64
1, 276908, Note_off_c, 0, 64, 64
1, 277068, Note_on_c, 0, 63, 35
1, 277076, Note_on_c, 0, 54, 47
1, 277104, Note_off_c, 0, 58, 64
1, 277112, Note_off_c, 0, 56, 64
1, 277292, Note_off_c, 0, 54, 64
1, 277308, Note_on_c, 0, 54, 39
1, 277320, Note_on_c, 0, 51, 34
1, 277324, Note_on_c, 0, 59, 34
1, 277336, Note_off_c, 0, 63, 64
1, 277492, Note_off_c, 0, 66, 64
1, 277512, Note_off_c, 0, 54, 64
1, 277512, Note_off_c, 0, 59, 64
1, 277512, Control_c, 0, 64, 0
1, 277524, Note_on_c, 0, 66, 49
1, 277528, Note_on_c, 0, 49, 50
1, 277536, Note_on_c, 0, 63, 34
1, 277588, Note_off_c, 0, 51, 64
1, 277596, Control_c, 0, 64, 127
1, 277732, Note_on_c, 0, 54, 36
1, 277740, Note_on_c, 0, 59, 37
1, 277744, Note_on_c, 0, 51, 35
1, 277796, Note_off_c, 0, 49, 64
1, 277804, Note_off_c, 0, 63, 64
1, 277952, Note_on_c, 0, 68, 58
1, 277952, Note_on_c, 0, 63, 39
1, 277964, Note_on_c, 0, 49, 62
1, 277980, Note_off_c, 0, 66, 64
1, 278008, Note_off_c, 0, 54, 64
1, 278016, Note_off_c, 0, 51, 64
1, 278020, Note_off_c, 0, 59, 64
1, 278172, Note_on_c, 0, 59, 43
1, 278180, Note_on_c, 0, 54, 43
1, 278188, Note_on_c, 0, 47, 58
1, 278220, Note_off_c, 0, 63, 64
1, 278228, Note_off_c, 0, 49, 64
1, 278324, Control_c, 0, 64, 0
1, 278360, Note_off_c, 0, 68, 64
1, 278400, Note_on_c, 0, 68, 68
1, 278412, Note_on_c, 0, 64, 45
1, 278420, Note_on_c, 0, 30, 61
1, 278436, Control_c, 0, 64, 127
1, 278468, Note_off_c, 0, 59, 64
1, 278476, Note_off_c, 0, 54, 64
1, 278548, Note_off_c, 0, 47, 64
1, 278652, Note_on_c, 0, 59, 44
1, 278652, Note_on_c, 0, 54, 44
1, 278652, Note_on_c, 0, 42, 73
1, 278676, Note_off_c, 0, 64, 64
1, 278884, Note_on_c, 0, 66, 63
1, 278896, Note_on_c, 0, 64, 42
1, 278900, Note_on_c, 0, 49, 63
1, 278904, Note_off_c, 0, 68, 64
1, 278904, Note_off_c, 0, 59, 64
1, 278928, Note_off_c, 0, 42, 64
1, 278952, Note_off_c, 0, 54, 64
1, 279096, Note_on_c, 0, 51, 50
1, 279108, Note_off_c, 0, 49, 64
1, 279116, Note_on_c, 0, 54, 40
1, 279124, Note_on_c, 0, 58, 40
1, 279140, Note_off_c, 0, 64, 64
1, 279304, Note_off_c, 0, 54, 64
1, 279312, Note_on_c, 0, 52, 50
1, 279328, Note_off_c, 0, 58, 64
1, 279348, Note_on_c, 0, 64, 39
1, 279364, Note_off_c, 0, 51, 64
1, 279508, Note_off_c, 0, 30, 64
1, 279532, Note_on_c, 0, 58, 37
1, 279532, Note_on_c, 0, 56, 46
1, 279580, Note_off_c, 0, 52, 64
1, 279612, Note_off_c, 0, 64, 64
1, 279684, Control_c, 0, 64, 0
1, 279728, Note_off_c, 0, 58, 64
1, 279740, Note_on_c, 0, 63, 35
1, 279740, Note_on_c, 0, 54, 36
1, 279748, Note_off_c, 0, 56, 64
1, 279776, Control_c, 0, 64, 127
1, 279908, Note_off_c, 0, 54, 64
1, 279932, Note_on_c, 0, 51, 48
1, 279932, Note_on_c, 0, 59, 34
1, 279940, Note_on_c, 0, 54, 34
1, 279956, Note_on_c, 0, 59, 34
1, 280004, Note_off_c, 0, 63, 64
1, 280124, Note_off_c, 0, 66, 64
1, 280140, Note_off_c, 0, 59, 64
1, 280140, Note_off_c, 0, 54, 64
1, 280140, Note_off_c, 0, 59, 64
1, 280160, Note_on_c, 0, 66, 55
1, 280172, Note_on_c, 0, 63, 33
1, 280172, Note_on_c, 0, 49, 48
1, 280188, Note_off_c, 0, 51, 64
1, 280360, Note_on_c, 0, 59, 34
1, 280368, Note_on_c, 0, 54, 34
1, 280380, Note_on_c, 0, 51, 43
1, 280436, Note_off_c, 0, 63, 64
1, 280436, Note_off_c, 0, 49, 64
1, 280580, Note_on_c, 0, 68, 53
1, 280584, Note_on_c, 0, 63, 34
1, 280592, Note_on_c, 0, 49, 48
1, 280600, Note_off_c, 0, 66, 64
1, 280624, Note_off_c, 0, 59, 64
1, 280624, Note_off_c, 0, 54, 64
1, 280636, Note_off_c, 0, 51, 64
1, 280808, Note_on_c, 0, 54, 34
1, 280812, Note_on_c, 0, 59, 34
1, 280828, Note_on_c, 0, 47, 26
1, 280848, Note_off_c, 0, 63, 64
1, 280856, Note_off_c, 0, 49, 64
1, 281076, Note_off_c, 0, 54, 64
1, 281080, Note_off_c, 0, 59, 64
1, 281104, Note_on_c, 0, 39, 47
1, 281112, Note_on_c, 0, 70, 61
1, 281112, Control_c, 0, 64, 0
1, 281116, Note_off_c, 0, 68, 64
1, 281124, Note_on_c, 0, 66, 36
1, 281188, Note_off_c, 0, 47, 64
1, 281228, Control_c, 0, 64, 127
1, 281388, Note_on_c, 0, 58, 37
1, 281404, Note_on_c, 0, 63, 37
1, 281420, Note_on_c, 0, 46, 50
1, 281424, Note_off_c, 0, 66, 64
1, 281616, Note_on_c, 0, 51, 54
1, 281632, Note_on_c, 0, 66, 38
1, 281640, Note_off_c, 0, 58, 64
1, 281652, Note_off_c, 0, 63, 64
1, 281684, Note_off_c, 0, 46, 64
1, 281808, Note_on_c, 0, 53, 44
1, 281812, Note_off_c, 0, 51, 64
1, 281820, Note_on_c, 0, 63, 39
1, 281828, Note_on_c, 0, 58, 39
1, 281844, Note_off_c, 0, 66, 64
1, 281980, Note_off_c, 0, 70, 64
1, 282004, Note_on_c, 0, 70, 47
1, 282024, Note_on_c, 0, 54, 54
1, 282036, Note_on_c, 0, 66, 39
1, 282052, Note_off_c, 0, 53, 64
1, 282060, Note_off_c, 0, 63, 64
1, 282064, Note_off_c, 0, 58, 64
1, 282076, Control_c, 0, 64, 0
1, 282172, Control_c, 0, 64, 127
1, 282192, Note_off_c, 0, 39, 64
1, 282228, Note_on_c, 0, 63, 39
1, 282244, Note_on_c, 0, 59, 46
1, 282256, Note_off_c, 0, 66, 64
1, 282260, Note_off_c, 0, 54, 64
1, 282436, Note_on_c, 0, 58, 54
1, 282480, Note_on_c, 0, 66, 40
1, 282488, Note_off_c, 0, 59, 64
1, 282516, Note_off_c, 0, 63, 64
1, 282636, Note_off_c, 0, 58, 64
1, 282656, Note_on_c, 0, 58, 41
1, 282664, Note_on_c, 0, 54, 52
1, 282672, Note_on_c, 0, 63, 41
1, 282688, Note_off_c, 0, 66, 64
1, 282860, Note_off_c, 0, 70, 64
1, 282872, Control_c, 0, 64, 0
1, 282884, Note_off_c, 0, 58, 64
1, 282888, Note_on_c, 0, 70, 67
1, 282888, Note_on_c, 0, 66, 35
1, 282888, Note_on_c, 0, 53, 49
1, 282900, Note_off_c, 0, 63, 64
1, 282924, Control_c, 0, 64, 127
1, 282932, Note_off_c, 0, 54, 64
1, 283072, Note_on_c, 0, 54, 45
1, 283080, Note_on_c, 0, 58, 36
1, 283084, Note_on_c, 0, 63, 36
1, 283100, Note_off_c, 0, 66, 64
1, 283108, Note_off_c, 0, 53, 64
1, 283332, Note_on_c, 0, 72, 58
1, 283336, Note_off_c, 0, 54, 64
1, 283336, Note_on_c, 0, 53, 52
1, 283348, Note_on_c, 0, 66, 37
1, 283360, Note_off_c, 0, 70, 64
1, 283412, Note_off_c, 0, 58, 64
1, 283412, Note_off_c, 0, 63, 64
1, 283560, Note_on_c, 0, 58, 38
1, 283572, Note_on_c, 0, 51, 47
1, 283580, Note_on_c, 0, 63, 38
1, 283592, Note_off_c, 0, 66, 64
1, 283596, Note_off_c, 0, 53, 64
1, 283860, Control_c, 0, 64, 0
1, 283868, Note_off_c, 0, 58, 64
1, 283880, Note_on_c, 0, 70, 45
1, 283880, Note_on_c, 0, 74, 73
1, 283884, Note_off_c, 0, 63, 64
1, 283892, Note_on_c, 0, 29, 57
1, 283900, Note_off_c, 0, 72, 64
1, 283932, Note_off_c, 0, 51, 64
1, 283956, Control_c, 0, 64, 127
1, 284180, Note_on_c, 0, 41, 65
1, 284188, Note_on_c, 0, 65, 44
1, 284196, Note_on_c, 0, 62, 44
1, 284228, Note_off_c, 0, 70, 64
1, 284368, Note_off_c, 0, 74, 64
1, 284396, Note_on_c, 0, 74, 65
1, 284396, Note_on_c, 0, 70, 42
1, 284412, Note_on_c, 0, 46, 56
1, 284420, Note_off_c, 0, 41, 64
1, 284448, Note_off_c, 0, 65, 64
1, 284452, Note_off_c, 0, 62, 64
1, 284604, Note_off_c, 0, 46, 64
1, 284616, Note_on_c, 0, 65, 40
1, 284620, Note_on_c, 0, 53, 58
1, 284628, Note_on_c, 0, 62, 40
1, 284660, Note_off_c, 0, 70, 64
1, 284816, Note_on_c, 0, 70, 39
1, 284820, Note_off_c, 0, 53, 64
1, 284824, Note_on_c, 0, 58, 41
1, 284868, Note_off_c, 0, 65, 64
1, 284872, Note_off_c, 0, 62, 64
1, 284980, Note_off_c, 0, 29, 64
1, 285028, Note_on_c, 0, 65, 37
1, 285052, Note_on_c, 0, 62, 37
1, 285052, Note_on_c, 0, 55, 30
1, 285060, Note_off_c, 0, 58, 64
1, 285088, Note_off_c, 0, 70, 64
1, 285228, Note_on_c, 0, 70, 36
1, 285256, Note_on_c, 0, 53, 50
1, 285272, Note_off_c, 0, 55, 64
1, 285276, Note_off_c, 0, 65, 64
1, 285284, Note_off_c, 0, 62, 64
1, 285456, Note_off_c, 0, 53, 64
1, 285476, Note_on_c, 0, 65, 34
1, 285484, Note_on_c, 0, 50, 48
1, 285500, Note_on_c, 0, 62, 34
1, 285524, Note_off_c, 0, 70, 64
1, 285684, Note_off_c, 0, 74, 64
1, 285708, Note_on_c, 0, 70, 33
1, 285708, Note_on_c, 0, 74, 49
1, 285716, Note_on_c, 0, 46, 34
1, 285752, Note_off_c, 0, 50, 64
1, 285764, Note_off_c, 0, 62, 64
1, 285764, Note_off_c, 0, 65, 64
1, 285932, Note_off_c, 0, 46, 64
1, 285984, Note_on_c, 0, 67, 30
1, 285984, Note_on_c, 0, 43, 28
1, 285988, Note_on_c, 0, 62, 30
1, 286028, Note_off_c, 0, 70, 64
1, 286224, Control_c, 0, 64, 0
1, 286228, Note_off_c, 0, 74, 64
1, 286252, Note_on_c, 0, 69, 33
1, 286260, Note_off_c, 0, 43, 64
1, 286268, Note_on_c, 0, 74, 51
1, 286272, Note_on_c, 0, 41, 41
1, 286284, Note_off_c, 0, 67, 64
1, 286292, Note_off_c, 0, 62, 64
1, 286324, Control_c, 0, 64, 127
1, 286556, Note_on_c, 0, 65, 35
1, 286556, Note_on_c, 0, 63, 35
1, 286556, Note_on_c, 0, 29, 46
1, 286584, Note_off_c, 0, 41, 64
1, 286588, Note_off_c, 0, 69, 64
1, 286840, Control_c, 0, 64, 0
1, 286884, Note_off_c, 0, 74, 64
1, 286908, Note_on_c, 0, 34, 45
1, 286916, Note_off_c, 0, 29, 64
1, 286916, Note_on_c, 0, 69, 39
1, 286916, Note_on_c, 0, 74, 56
1, 286936, Control_c, 0, 64, 127
1, 286964, Note_off_c, 0, 65, 64
1, 286964, Note_off_c, 0, 63, 64
1, 287308, Note_on_c, 0, 65, 43
1, 287316, Note_on_c, 0, 62, 43
1, 287324, Note_on_c, 0, 41, 46
1, 287376, Note_off_c, 0, 69, 64
1, 287596, Note_off_c, 0, 74, 64
1, 287640, Note_on_c, 0, 70, 45
1, 287640, Note_on_c, 0, 46, 60
1, 287648, Note_on_c, 0, 74, 59
1, 287688, Note_off_c, 0, 65, 64
1, 287692, Note_off_c, 0, 41, 64
1, 287700, Note_off_c, 0, 62, 64
1, 287936, Note_on_c, 0, 65, 45
1, 287936, Note_on_c, 0, 62, 45
1, 287936, Note_on_c, 0, 53, 58
1, 287940, Note_off_c, 0, 46, 64
1, 287996, Note_off_c, 0, 34, 64
1, 288116, Note_off_c, 0, 70, 64
1, 288212, Note_off_c, 0, 53, 64
1, 288212, Note_on_c, 0, 58, 54
1, 288220, Note_on_c, 0, 70, 44
1, 288296, Note_off_c, 0, 65, 64
1, 288304, Note_off_c, 0, 62, 64
1, 288444, Note_on_c, 0, 65, 42
1, 288444, Note_on_c, 0, 62, 42
1, 288444, Note_on_c, 0, 55, 60
1, 288468, Note_off_c, 0, 70, 64
1, 288476, Note_off_c, 0, 58, 64
1, 288644, Note_on_c, 0, 70, 41
1, 288660, Note_on_c, 0, 53, 58
1, 288664, Note_off_c, 0, 55, 64
1, 288692, Note_off_c, 0, 65, 64
1, 288708, Note_off_c, 0, 62, 64
1, 288856, Note_on_c, 0, 65, 40
1, 288864, Note_on_c, 0, 50, 45
1, 288876, Note_on_c, 0, 62, 40
1, 288900, Note_off_c, 0, 70, 64
1, 288924, Note_off_c, 0, 53, 64
1, 289080, Note_off_c, 0, 74, 64
1, 289092, Note_on_c, 0, 46, 34
1, 289108, Note_off_c, 0, 50, 64
1, 289108, Note_on_c, 0, 70, 39
1, 289108, Note_on_c, 0, 74, 60
1, 289156, Note_off_c, 0, 65, 64
1, 289156, Note_off_c, 0, 62, 64
1, 289324, Note_on_c, 0, 67, 39
1, 289336, Note_on_c, 0, 62, 39
1, 289340, Note_on_c, 0, 43, 42
1, 289348, Note_off_c, 0, 46, 64
1, 289384, Note_off_c, 0, 70, 64
1, 289548, Note_off_c, 0, 74, 64
1, 289568, Control_c, 0, 64, 0
1, 289588, Note_on_c, 0, 74, 60
1, 289588, Note_on_c, 0, 69, 38
1, 289600, Note_on_c, 0, 41, 52
1, 289608, Note_off_c, 0, 43, 64
1, 289628, Note_off_c, 0, 67, 64
1, 289640, Note_off_c, 0, 62, 64
1, 289668, Control_c, 0, 64, 127
1, 289860, Note_on_c, 0, 29, 45
1, 289872, Note_on_c, 0, 65, 37
1, 289884, Note_on_c, 0, 63, 37
1, 289916, Note_off_c, 0, 69, 64
1, 289960, Note_off_c, 0, 41, 64
1, 290204, Note_off_c, 0, 74, 64
1, 290204, Control_c, 0, 64, 0
1, 290212, Note_on_c, 0, 34, 41
1, 290220, Note_on_c, 0, 69, 35
1, 290228, Note_off_c, 0, 29, 64
1, 290228, Note_on_c, 0, 74, 52
1, 290264, Note_off_c, 0, 65, 64
1, 290276, Note_off_c, 0, 63, 64
1, 290316, Control_c, 0, 64, 127
1, 290524, Note_on_c, 0, 62, 34
1, 290540, Note_on_c, 0, 41, 42
1, 290548, Note_on_c, 0, 65, 34
1, 290728, Note_off_c, 0, 69, 64
1, 290732, Note_off_c, 0, 74, 64
1, 290824, Note_on_c, 0, 70, 33
1, 290836, Note_on_c, 0, 74, 48
1, 290844, Note_on_c, 0, 46, 39
1, 290860, Note_off_c, 0, 41, 64
1, 290868, Note_off_c, 0, 62, 64
1, 290872, Note_off_c, 0, 65, 64
1, 291092, Note_on_c, 0, 65, 31
1, 291092, Note_on_c, 0, 53, 46
1, 291100, Note_on_c, 0, 62, 31
1, 291116, Note_off_c, 0, 46, 64
1, 291140, Note_off_c, 0, 70, 64
1, 291160, Note_off_c, 0, 74, 64
1, 291316, Note_off_c, 0, 34, 64
1, 291324, Note_on_c, 0, 74, 44
1, 291324, Note_on_c, 0, 70, 30
1, 291332, Note_on_c, 0, 54, 34
1, 291352, Note_off_c, 0, 53, 64
1, 291364, Note_off_c, 0, 65, 64
1, 291372, Note_off_c, 0, 62, 64
1, 291540, Note_on_c, 0, 65, 30
1, 291540, Note_on_c, 0, 62, 30
1, 291548, Note_on_c, 0, 53, 41
1, 291600, Note_off_c, 0, 54, 64
1, 291644, Note_off_c, 0, 74, 64
1, 291644, Note_off_c, 0, 70, 64
1, 291660, Control_c, 0, 64, 0
1, 291772, Note_on_c, 0, 66, 33
1, 291780, Note_on_c, 0, 70, 40
1, 291780, Note_on_c, 0, 51, 42
1, 291800, Control_c, 0, 64, 127
1, 291812, Note_off_c, 0, 53, 64
1, 291820, Note_off_c, 0, 62, 64
1, 291828, Note_off_c, 0, 65, 64
1, 292032, Note_on_c, 0, 50, 33
1, 292040, Note_on_c, 0, 65, 32
1, 292040, Note_on_c, 0, 58, 34
1, 292052, Note_off_c, 0, 51, 64
1, 292092, Note_off_c, 0, 66, 64
1, 292104, Note_off_c, 0, 70, 64
1, 292316, Note_off_c, 0, 50, 64
1, 292316, Note_on_c, 0, 50, 33
1, 292316, Note_off_c, 0, 50, 64
1, 292320, Note_on_c, 0, 64, 39
1, 292320, Note_on_c, 0, 55, 29
1, 292328, Note_on_c, 0, 49, 36
1, 292340, Note_off_c, 0, 65, 64
1, 292340, Note_off_c, 0, 58, 64
1, 292604, Note_on_c, 0, 63, 37
1, 292604, Note_on_c, 0, 48, 34
1, 292616, Note_on_c, 0, 57, 31
1, 292644, Note_off_c, 0, 64, 64
1, 292644, Note_off_c, 0, 55, 64
1, 292648, Note_off_c, 0, 49, 64
1, 292836, Note_on_c, 0, 46, 39
1, 292840, Note_on_c, 0, 58, 33
1, 292848, Note_on_c, 0, 62, 41
1, 292924, Note_off_c, 0, 63, 64
1, 292940, Note_off_c, 0, 57, 64
1, 293000, Note_off_c, 0, 48, 64
1, 293128, Note_on_c, 0, 67, 43
1, 293128, Note_on_c, 0, 63, 34
1, 293128, Note_on_c, 0, 39, 40
1, 293164, Note_off_c, 0, 58, 64
1, 293172, Note_off_c, 0, 62, 64
1, 293196, Note_off_c, 0, 46, 64
1, 293372, Note_on_c, 0, 62, 42
1, 293376, Note_on_c, 0, 34, 53
1, 293376, Note_on_c, 0, 65, 34
1, 293392, Note_off_c, 0, 39, 64
1, 293392, Note_off_c, 0, 63, 64
1, 293392, Note_off_c, 0, 67, 64
1, 293484, Control_c, 0, 64, 127
1, 293620, Note_off_c, 0, 62, 64
1, 293636, Note_off_c, 0, 65, 64
1, 293664, Note_on_c, 0, 53, 39
1, 293672, Note_on_c, 0, 58, 39
1, 293884, Note_on_c, 0, 65, 44
1, 293884, Note_on_c, 0, 62, 37
1, 293920, Note_off_c, 0, 53, 64
1, 293920, Note_off_c, 0, 58, 64
1, 294116, Note_on_c, 0, 61, 35
1, 294124, Note_off_c, 0, 65, 64
1, 294128, Note_on_c, 0, 53, 35
1, 294144, Note_off_c, 0, 62, 64
1, 294348, Note_on_c, 0, 62, 34
1, 294356, Note_on_c, 0, 65, 38
1, 294384, Note_off_c, 0, 61, 64
1, 294384, Note_off_c, 0, 53, 64
1, 294548, Note_off_c, 0, 62, 64
1, 294560, Note_off_c, 0, 65, 64
1, 294568, Note_on_c, 0, 58, 31
1, 294568, Note_on_c, 0, 53, 31
1, 294812, Note_on_c, 0, 66, 40
1, 294812, Note_on_c, 0, 62, 33
1, 294824, Note_off_c, 0, 58, 64
1, 294856, Note_off_c, 0, 53, 64
1, 295060, Note_on_c, 0, 54, 34
1, 295076, Note_on_c, 0, 61, 34
1, 295136, Note_off_c, 0, 62, 64
1, 295136, Note_off_c, 0, 66, 64
1, 295356, Note_on_c, 0, 62, 36
1, 295364, Note_on_c, 0, 66, 45
1, 295384, Note_off_c, 0, 34, 64
1, 295384, Note_off_c, 0, 54, 64
1, 295388, Note_on_c, 0, 35, 47
1, 295388, Control_c, 0, 64, 0
1, 295396, Note_off_c, 0, 61, 64
1, 295468, Control_c, 0, 64, 127
1, 295664, Note_on_c, 0, 59, 38
1, 295668, Note_on_c, 0, 54, 38
1, 295708, Note_off_c, 0, 62, 64
1, 295716, Note_off_c, 0, 66, 64
1, 295976, Note_on_c, 0, 66, 34
1, 295976, Note_on_c, 0, 63, 39
1, 296036, Note_off_c, 0, 59, 64
1, 296040, Note_off_c, 0, 54, 64
1, 296276, Note_on_c, 0, 62, 41
1, 296296, Note_on_c, 0, 54, 42
1, 296300, Note_off_c, 0, 66, 64
1, 296300, Note_off_c, 0, 63, 64
1, 296612, Note_on_c, 0, 66, 49
1, 296612, Note_on_c, 0, 63, 42
1, 296644, Note_off_c, 0, 62, 64
1, 296668, Note_off_c, 0, 54, 64
1, 296668, Control_c, 0, 64, 0
1, 296820, Control_c, 0, 64, 127
1, 296868, Note_on_c, 0, 42, 50
1, 296880, Note_on_c, 0, 59, 39
1, 296888, Note_on_c, 0, 54, 39
1, 296912, Note_off_c, 0, 63, 64
1, 296924, Note_off_c, 0, 66, 64
1, 296948, Note_off_c, 0, 35, 64
1, 297136, Note_on_c, 0, 63, 37
1, 297140, Note_on_c, 0, 66, 40
1, 297148, Note_off_c, 0, 59, 64
1, 297148, Note_on_c, 0, 47, 49
1, 297156, Note_off_c, 0, 42, 64
1, 297172, Note_off_c, 0, 54, 64
1, 297364, Note_on_c, 0, 54, 34
1, 297372, Note_on_c, 0, 49, 47
1, 297380, Note_off_c, 0, 63, 64
1, 297380, Note_on_c, 0, 59, 34
1, 297388, Note_off_c, 0, 66, 64
1, 297424, Note_off_c, 0, 47, 64
1, 297596, Note_on_c, 0, 63, 34
1, 297596, Note_on_c, 0, 51, 41
1, 297600, Note_off_c, 0, 54, 64
1, 297604, Note_on_c, 0, 66, 38
1, 297616, Note_off_c, 0, 59, 64
1, 297628, Note_off_c, 0, 49, 64
1, 297812, Note_on_c, 0, 59, 30
1, 297812, Note_on_c, 0, 56, 43
1, 297860, Note_off_c, 0, 51, 64
1, 297868, Note_off_c, 0, 66, 64
1, 297880, Note_off_c, 0, 63, 64
1, 298004, Control_c, 0, 64, 0
1, 298016, Note_on_c, 0, 66, 45
1, 298024, Note_on_c, 0, 54, 46
1, 298028, Note_on_c, 0, 63, 37
1, 298052, Note_off_c, 0, 56, 64
1, 298052, Note_off_c, 0, 59, 64
1, 298100, Control_c, 0, 64, 127
1, 298208, Note_off_c, 0, 54, 64
1, 298208, Note_on_c, 0, 54, 48
1, 298228, Note_on_c, 0, 51, 48
1, 298248, Note_on_c, 0, 59, 37
1, 298268, Note_off_c, 0, 66, 64
1, 298280, Note_off_c, 0, 63, 64
1, 298460, Note_off_c, 0, 54, 64
1, 298472, Note_off_c, 0, 59, 64
1, 298476, Note_on_c, 0, 63, 37
1, 298484, Note_on_c, 0, 66, 43
1, 298496, Note_on_c, 0, 49, 43
1, 298528, Note_off_c, 0, 51, 64
1, 298744, Note_off_c, 0, 63, 64
1, 298748, Note_off_c, 0, 66, 64
1, 298748, Note_on_c, 0, 59, 37
1, 298764, Note_on_c, 0, 71, 53
1, 298768, Note_on_c, 0, 51, 36
1, 298772, Note_off_c, 0, 49, 64
1, 299012, Note_off_c, 0, 59, 64
1, 299040, Note_on_c, 0, 49, 49
1, 299044, Note_on_c, 0, 63, 37
1, 299048, Note_on_c, 0, 70, 59
1, 299060, Note_off_c, 0, 71, 64
1, 299072, Note_off_c, 0, 51, 64
1, 299308, Note_off_c, 0, 63, 64
1, 299424, Note_off_c, 0, 49, 64
1, 299444, Note_on_c, 0, 47, 54
1, 299464, Note_on_c, 0, 54, 37
1, 299464, Note_on_c, 0, 59, 37
1, 299696, Note_on_c, 0, 68, 49
1, 299712, Note_off_c, 0, 70, 64
1, 299780, Note_off_c, 0, 54, 64
1, 299780, Note_off_c, 0, 59, 64
1, 299876, Control_c, 0, 64, 0
1, 299884, Note_off_c, 0, 68, 64
1, 299912, Note_on_c, 0, 64, 37
1, 299916, Note_off_c, 0, 47, 64
1, 299916, Note_on_c, 0, 68, 51
1, 299928, Note_on_c, 0, 30, 45
1, 299988, Control_c, 0, 64, 127
1, 300176, Note_off_c, 0, 64, 64
1, 300220, Note_on_c, 0, 59, 37
1, 300220, Note_on_c, 0, 54, 37
1, 300224, Note_on_c, 0, 42, 58
1, 300476, Note_on_c, 0, 49, 52
1, 300484, Note_off_c, 0, 59, 64
1, 300484, Note_off_c, 0, 54, 64
1, 300488, Note_on_c, 0, 66, 45
1, 300488, Note_on_c, 0, 64, 37
1, 300500, Note_off_c, 0, 68, 64
1, 300572, Note_off_c, 0, 42, 64
1, 300700, Note_off_c, 0, 49, 64
1, 300724, Note_on_c, 0, 51, 49
1, 300732, Note_on_c, 0, 58, 37
1, 300732, Note_on_c, 0, 54, 37
1, 300752, Note_off_c, 0, 64, 64
1, 300924, Note_off_c, 0, 58, 64
1, 300924, Note_off_c, 0, 54, 64
1, 300944, Control_c, 0, 64, 0
1, 300960, Note_on_c, 0, 64, 37
1, 300960, Note_on_c, 0, 52, 49
1, 301000, Note_off_c, 0, 51, 64
1, 301052, Note_off_c, 0, 30, 64
1, 301148, Control_c, 0, 64, 127
1, 301172, Note_off_c, 0, 64, 64
1, 301180, Note_on_c, 0, 58, 37
1, 301180, Note_on_c, 0, 56, 46
1, 301260, Note_off_c, 0, 52, 64
1, 301408, Note_off_c, 0, 58, 64
1, 301436, Note_on_c, 0, 63, 37
1, 301452, Note_on_c, 0, 54, 51
1, 301460, Note_off_c, 0, 56, 64
1, 301636, Note_off_c, 0, 54, 64
1, 301644, Note_on_c, 0, 51, 50
1, 301652, Note_on_c, 0, 54, 37
1, 301652, Note_on_c, 0, 59, 37
1, 301700, Note_off_c, 0, 63, 64
1, 301876, Note_off_c, 0, 54, 64
1, 301876, Note_off_c, 0, 59, 64
1, 301900, Note_on_c, 0, 63, 37
1, 301900, Note_on_c, 0, 49, 51
1, 301944, Note_off_c, 0, 51, 64
1, 302164, Note_off_c, 0, 63, 64
1, 302172, Note_on_c, 0, 71, 57
1, 302176, Note_on_c, 0, 59, 37
1, 302180, Note_on_c, 0, 51, 48
1, 302200, Note_off_c, 0, 49, 64
1, 302208, Note_off_c, 0, 66, 64
1, 302420, Note_on_c, 0, 63, 37
1, 302424, Note_on_c, 0, 49, 52
1, 302428, Note_on_c, 0, 70, 69
1, 302444, Note_off_c, 0, 59, 64
1, 302452, Note_off_c, 0, 71, 64
1, 302492, Note_off_c, 0, 51, 64
1, 302652, Note_on_c, 0, 54, 37
1, 302652, Note_on_c, 0, 59, 37
1, 302684, Note_off_c, 0, 63, 64
1, 302688, Note_on_c, 0, 47, 47
1, 302724, Note_off_c, 0, 49, 64
1, 302844, Note_on_c, 0, 68, 51
1, 302868, Note_off_c, 0, 70, 64
1, 302916, Note_off_c, 0, 54, 64
1, 302920, Note_off_c, 0, 59, 64
1, 302928, Note_off_c, 0, 68, 64
1, 302976, Control_c, 0, 64, 0
1, 302984, Note_on_c, 0, 64, 37
1, 302988, Note_on_c, 0, 68, 61
1, 303012, Note_on_c, 0, 30, 42
1, 303048, Note_off_c, 0, 47, 64
1, 303064, Control_c, 0, 64, 127
1, 303248, Note_off_c, 0, 64, 64
1, 303252, Note_on_c, 0, 59, 37
1, 303252, Note_on_c, 0, 54, 37
1, 303260, Note_on_c, 0, 42, 43
1, 303496, Note_on_c, 0, 49, 50
1, 303508, Note_off_c, 0, 68, 64
1, 303508, Note_on_c, 0, 66, 48
1, 303508, Note_on_c, 0, 64, 37
1, 303516, Note_off_c, 0, 59, 64
1, 303516, Note_off_c, 0, 54, 64
1, 303544, Note_off_c, 0, 42, 64
1, 303712, Note_on_c, 0, 51, 51
1, 303712, Note_on_c, 0, 54, 37
1, 303716, Note_on_c, 0, 58, 37
1, 303748, Note_off_c, 0, 49, 64
1, 303772, Note_off_c, 0, 64, 64
1, 303900, Note_off_c, 0, 54, 64
1, 303908, Note_off_c, 0, 58, 64
1, 303916, Note_on_c, 0, 52, 56
1, 303924, Note_off_c, 0, 51, 64
1, 303932, Note_on_c, 0, 64, 37
1, 304100, Note_off_c, 0, 30, 64
1, 304140, Note_on_c, 0, 58, 37
1, 304140, Note_on_c, 0, 56, 55
1, 304188, Note_off_c, 0, 52, 64
1, 304196, Note_off_c, 0, 64, 64
1, 304336, Note_off_c, 0, 58, 64
1, 304340, Note_on_c, 0, 63, 37
1, 304344, Note_on_c, 0, 54, 52
1, 304400, Note_off_c, 0, 56, 64
1, 304528, Note_off_c, 0, 54, 64
1, 304548, Note_on_c, 0, 59, 37
1, 304548, Note_on_c, 0, 51, 52
1, 304564, Note_on_c, 0, 54, 37
1, 304604, Note_off_c, 0, 63, 64
1, 304732, Note_off_c, 0, 66, 64
1, 304752, Note_on_c, 0, 66, 61
1, 304768, Note_on_c, 0, 49, 53
1, 304768, Note_on_c, 0, 63, 37
1, 304772, Note_off_c, 0, 59, 64
1, 304788, Note_off_c, 0, 51, 64
1, 304788, Note_off_c, 0, 54, 64
1, 304948, Note_off_c, 0, 63, 64
1, 304960, Note_on_c, 0, 51, 30
1, 304968, Note_on_c, 0, 54, 37
1, 304972, Note_on_c, 0, 59, 37
1, 305032, Note_off_c, 0, 49, 64
1, 305132, Control_c, 0, 64, 0
1, 305160, Note_off_c, 0, 66, 64
1, 305180, Note_on_c, 0, 66, 61
1, 305188, Note_on_c, 0, 49, 53
1, 305192, Note_on_c, 0, 63, 37
1, 305224, Note_off_c, 0, 54, 64
1, 305224, Control_c, 0, 64, 127
1, 305228, Note_off_c, 0, 51, 64
1, 305228, Note_off_c, 0, 59, 64
1, 305416, Note_on_c, 0, 59, 37
1, 305420, Note_on_c, 0, 54, 37
1, 305444, Note_on_c, 0, 47, 47
1, 305456, Note_off_c, 0, 49, 64
1, 305456, Note_off_c, 0, 63, 64
1, 305588, Note_off_c, 0, 66, 64
1, 305592, Note_on_c, 0, 68, 64
1, 305680, Note_off_c, 0, 59, 64
1, 305688, Note_off_c, 0, 54, 64
1, 305804, Note_off_c, 0, 47, 64
1, 305808, Control_c, 0, 64, 0
1, 305812, Note_on_c, 0, 63, 37
1, 305820, Note_on_c, 0, 69, 61
1, 305824, Note_off_c, 0, 68, 64
1, 305840, Note_on_c, 0, 35, 50
1, 305896, Control_c, 0, 64, 127
1, 306112, Note_off_c, 0, 63, 64
1, 306124, Note_on_c, 0, 59, 37
1, 306132, Note_on_c, 0, 42, 51
1, 306140, Note_on_c, 0, 54, 37
1, 306184, Note_off_c, 0, 69, 64
1, 306356, Note_on_c, 0, 47, 54
1, 306356, Note_on_c, 0, 69, 61
1, 306364, Note_on_c, 0, 63, 37
1, 306396, Note_off_c, 0, 42, 64
1, 306420, Note_off_c, 0, 59, 64
1, 306436, Note_off_c, 0, 54, 64
1, 306568, Note_on_c, 0, 54, 37
1, 306568, Note_on_c, 0, 49, 52
1, 306572, Note_on_c, 0, 59, 37
1, 306620, Note_off_c, 0, 47, 64
1, 306628, Note_off_c, 0, 69, 64
1, 306628, Note_off_c, 0, 63, 64
1, 306764, Note_off_c, 0, 49, 64
1, 306768, Note_on_c, 0, 51, 52
1, 306780, Note_on_c, 0, 69, 59
1, 306840, Note_off_c, 0, 54, 64
1, 306848, Note_off_c, 0, 59, 64
1, 306904, Note_off_c, 0, 35, 64
1, 306976, Note_on_c, 0, 57, 37
1, 306984, Note_on_c, 0, 61, 53
1, 307032, Note_off_c, 0, 51, 64
1, 307064, Tempo, 500000
1, 307064, Note_off_c, 0, 69, 64
1, 307064, Tempo, 500000
1, 307192, Note_on_c, 0, 63, 37
1, 307192, Note_on_c, 0, 69, 61
1, 307196, Note_on_c, 0, 59, 59
1, 307240, Note_off_c, 0, 57, 64
1, 307244, Note_off_c, 0, 61, 64
1, 307380, Note_off_c, 0, 59, 64
1, 307388, Note_on_c, 0, 56, 47
1, 307396, Note_on_c, 0, 59, 34
1, 307424, Note_off_c, 0, 63, 64
1, 307424, Note_off_c, 0, 69, 64
1, 307624, Note_on_c, 0, 69, 66
1, 307636, Note_on_c, 0, 63, 37
1, 307640, Control_c, 0, 64, 0
1, 307652, Note_on_c, 0, 54, 50
1, 307672, Note_off_c, 0, 56, 64
1, 307676, Note_off_c, 0, 59, 64
1, 307704, Control_c, 0, 64, 127
1, 307896, Note_on_c, 0, 57, 37
1, 307896, Note_on_c, 0, 56, 42
1, 307900, Note_on_c, 0, 59, 37
1, 307908, Note_off_c, 0, 54, 64
1, 307952, Note_off_c, 0, 69, 64
1, 307964, Note_off_c, 0, 63, 64
1, 308136, Note_on_c, 0, 64, 37
1, 308136, Note_on_c, 0, 54, 49
1, 308148, Note_on_c, 0, 69, 62
1, 308176, Note_off_c, 0, 57, 64
1, 308180, Note_off_c, 0, 56, 64
1, 308184, Note_off_c, 0, 59, 64
1, 308404, Note_off_c, 0, 54, 64
1, 308408, Note_on_c, 0, 52, 46
1, 308408, Note_on_c, 0, 59, 37
1, 308412, Note_on_c, 0, 56, 18
1, 308468, Tempo, 500000
1, 308504, Note_off_c, 0, 69, 64
1, 308564, Note_on_c, 0, 68, 50
1, 308568, Note_off_c, 0, 64, 64
1, 308664, Note_off_c, 0, 59, 64
1, 308668, Note_off_c, 0, 56, 64
1, 308728, Note_on_c, 0, 71, 61
1, 308736, Note_on_c, 0, 50, 47
1, 308744, Note_off_c, 0, 68, 64
1, 308744, Control_c, 0, 64, 0
1, 308744, Note_on_c, 0, 66, 37
1, 308752, Note_off_c, 0, 52, 64
1, 308816, Control_c, 0, 64, 127
1, 309024, Note_on_c, 0, 59, 37
1, 309024, Note_on_c, 0, 54, 46
1, 309032, Note_on_c, 0, 38, 37
1, 309120, Note_off_c, 0, 50, 64
1, 309132, Note_off_c, 0, 66, 64
1, 309232, Note_off_c, 0, 71, 64
1, 309252, Control_c, 0, 64, 0
1, 309272, Note_on_c, 0, 66, 37
1, 309272, Note_on_c, 0, 37, 43
1, 309276, Note_on_c, 0, 71, 61
1, 309280, Note_off_c, 0, 38, 64
1, 309292, Note_off_c, 0, 59, 64
1, 309292, Note_off_c, 0, 54, 64
1, 309328, Control_c, 0, 64, 127
1, 309480, Note_on_c, 0, 61, 37
1, 309480, Note_on_c, 0, 59, 37
1, 309480, Note_on_c, 0, 49, 52
1, 309544, Note_off_c, 0, 66, 64
1, 309636, Note_off_c, 0, 37, 64
1, 309660, Note_off_c, 0, 71, 64
1, 309684, Note_on_c, 0, 56, 31
1, 309692, Note_on_c, 0, 71, 57
1, 309700, Note_on_c, 0, 65, 37
1, 309740, Note_off_c, 0, 61, 64
1, 309740, Note_off_c, 0, 59, 64
1, 309748, Note_off_c, 0, 49, 64
1, 309912, Note_on_c, 0, 59, 48
1, 309916, Note_on_c, 0, 63, 42
1, 309928, Note_off_c, 0, 65, 64
1, 309948, Note_off_c, 0, 56, 64
1, 310116, Note_off_c, 0, 71, 64
1, 310136, Note_on_c, 0, 65, 37
1, 310136, Note_on_c, 0, 61, 52
1, 310144, Note_on_c, 0, 71, 55
1, 310176, Note_off_c, 0, 59, 64
1, 310180, Note_off_c, 0, 63, 64
1, 310352, Note_off_c, 0, 61, 64
1, 310396, Note_on_c, 0, 61, 36
1, 310396, Note_on_c, 0, 59, 36
1, 310396, Note_on_c, 0, 56, 41
1, 310400, Note_off_c, 0, 65, 64
1, 310660, Note_off_c, 0, 56, 64
1, 310664, Note_off_c, 0, 71, 64
1, 310664, Note_off_c, 0, 61, 64
1, 310664, Note_off_c, 0, 59, 64
1, 310664, Note_on_c, 0, 71, 54
1, 310664, Note_on_c, 0, 55, 53
1, 310680, Note_off_c, 0, 71, 64
1, 310680, Note_on_c, 0, 64, 35
1, 310684, Note_on_c, 0, 71, 51
1, 310944, Note_off_c, 0, 64, 64
1, 310948, Note_on_c, 0, 61, 34
1, 310952, Note_on_c, 0, 59, 34
1, 310952, Note_on_c, 0, 56, 39
1, 311024, Note_off_c, 0, 55, 64
1, 311140, Note_off_c, 0, 71, 64
1, 311192, Note_off_c, 0, 61, 64
1, 311196, Note_off_c, 0, 59, 64
1, 311220, Note_off_c, 0, 56, 64
1, 311236, Note_on_c, 0, 64, 34
1, 311236, Note_on_c, 0, 55, 54
1, 311240, Note_on_c, 0, 70, 52
1, 311484, Note_on_c, 0, 61, 34
1, 311492, Note_on_c, 0, 58, 34
1, 311496, Note_on_c, 0, 54, 50
1, 311500, Note_off_c, 0, 64, 64
1, 311500, Note_off_c, 0, 55, 64
1, 311712, Note_off_c, 0, 70, 64
1, 311752, Note_off_c, 0, 61, 64
1, 311752, Note_on_c, 0, 65, 34
1, 311756, Note_off_c, 0, 58, 64
1, 311760, Note_on_c, 0, 70, 56
1, 311768, Note_on_c, 0, 53, 44
1, 311800, Note_off_c, 0, 54, 64
1, 311976, Note_on_c, 0, 61, 34
1, 311976, Note_on_c, 0, 58, 34
1, 311992, Note_on_c, 0, 54, 41
1, 312000, Note_off_c, 0, 53, 64
1, 312020, Note_off_c, 0, 65, 64
1, 312168, Note_off_c, 0, 70, 64
1, 312176, Note_on_c, 0, 53, 42
1, 312180, Note_on_c, 0, 70, 61
1, 312188, Control_c, 0, 64, 0
1, 312200, Note_on_c, 0, 66, 34
1, 312216, Note_off_c, 0, 54, 64
1, 312244, Note_off_c, 0, 61, 64
1, 312244, Note_off_c, 0, 58, 64
1, 312380, Control_c, 0, 64, 127
1, 312392, Note_on_c, 0, 61, 33
1, 312400, Note_on_c, 0, 58, 33
1, 312400, Note_on_c, 0, 52, 46
1, 312452, Note_off_c, 0, 53, 64
1, 312464, Note_off_c, 0, 66, 64
1, 312588, Note_off_c, 0, 70, 64
1, 312600, Note_on_c, 0, 67, 33
1, 312616, Note_on_c, 0, 70, 52
1, 312632, Note_on_c, 0, 51, 41
1, 312644, Note_off_c, 0, 52, 64
1, 312660, Note_off_c, 0, 61, 64
1, 312664, Note_off_c, 0, 58, 64
1, 312828, Note_on_c, 0, 61, 32
1, 312832, Note_on_c, 0, 58, 32
1, 312844, Note_on_c, 0, 52, 43
1, 312864, Note_off_c, 0, 67, 64
1, 312896, Note_off_c, 0, 51, 64
1, 313008, Control_c, 0, 64, 0
1, 313024, Note_off_c, 0, 70, 64
1, 313048, Note_on_c, 0, 67, 32
1, 313052, Note_on_c, 0, 51, 40
1, 313056, Note_on_c, 0, 70, 51
1, 313068, Note_off_c, 0, 52, 64
1, 313096, Note_off_c, 0, 61, 64
1, 313100, Note_off_c, 0, 58, 64
1, 313108, Control_c, 0, 64, 127
1, 313312, Note_off_c, 0, 67, 64
1, 313316, Note_on_c, 0, 58, 32
1, 313320, Note_on_c, 0, 62, 32
1, 313324, Note_on_c, 0, 50, 42
1, 313332, Note_off_c, 0, 51, 64
1, 313544, Note_off_c, 0, 70, 64
1, 313560, Note_on_c, 0, 70, 47
1, 313568, Note_on_c, 0, 49, 42
1, 313572, Note_on_c, 0, 67, 31
1, 313580, Note_off_c, 0, 58, 64
1, 313588, Note_off_c, 0, 62, 64
1, 313600, Note_off_c, 0, 50, 64
1, 313792, Note_on_c, 0, 50, 41
1, 313800, Note_on_c, 0, 63, 30
1, 313804, Note_off_c, 0, 67, 64
1, 313804, Note_on_c, 0, 58, 30
1, 313820, Note_off_c, 0, 49, 64
1, 314032, Note_off_c, 0, 70, 64
1, 314048, Note_on_c, 0, 49, 27
1, 314064, Note_on_c, 0, 70, 51
1, 314068, Note_off_c, 0, 50, 64
1, 314072, Note_on_c, 0, 67, 30
1, 314092, Note_off_c, 0, 63, 64
1, 314096, Note_off_c, 0, 58, 64
1, 314312, Note_off_c, 0, 67, 64
1, 314316, Note_on_c, 0, 64, 30
1, 314320, Note_on_c, 0, 48, 39
1, 314324, Note_on_c, 0, 58, 29
1, 314352, Note_off_c, 0, 49, 64
1, 314556, Note_off_c, 0, 64, 64
1, 314568, Note_off_c, 0, 58, 64
1, 314616, Control_c, 0, 64, 0
1, 314636, Note_on_c, 0, 47, 34
1, 314648, Note_on_c, 0, 55, 34
1, 314660, Note_on_c, 0, 71, 47
1, 314660, Note_on_c, 0, 67, 29
1, 314664, Note_off_c, 0, 70, 64
1, 314664, Note_on_c, 0, 59, 29
1, 314676, Note_on_c, 0, 64, 29
1, 314696, Note_off_c, 0, 48, 64
1, 314720, Control_c, 0, 64, 127
1, 315048, Note_off_c, 0, 47, 64
1, 315072, Note_off_c, 0, 67, 64
1, 315072, Note_off_c, 0, 71, 64
1, 315084, Note_off_c, 0, 64, 64
1, 315088, Note_off_c, 0, 59, 64
1, 315092, Note_off_c, 0, 55, 64
1, 315408, Control_c, 0, 64, 0
1, 315472, Note_on_c, 0, 67, 35
1, 315476, Note_on_c, 0, 72, 40
1, 315476, Note_on_c, 0, 64, 34
1, 315476, Note_on_c, 0, 60, 29
1, 315484, Note_on_c, 0, 46, 32
1, 315496, Note_on_c, 0, 55, 21
1, 315512, Control_c, 0, 64, 127
1, 315628, Note_off_c, 0, 64, 64
1, 315636, Note_off_c, 0, 67, 64
1, 315640, Note_off_c, 0, 72, 64
1, 315644, Note_off_c, 0, 60, 64
1, 315664, Note_off_c, 0, 55, 64
1, 315676, Note_off_c, 0, 46, 64
1, 317600, Control_c, 0, 64, 0
1, 317680, Note_on_c, 0, 60, 42
1, 318104, Note_on_c, 0, 61, 47
1, 318128, Note_off_c, 0, 60, 64
1, 318616, Control_c, 0, 64, 127
1, 318828, Control_c, 0, 64, 0
1, 318936, Note_on_c, 0, 64, 42
1, 318952, Note_off_c, 0, 61, 64
1, 319016, Control_c, 0, 64, 127
1, 320036, Note_on_c, 0, 63, 38
1, 320040, Note_off_c, 0, 64, 64
1, 320472, Control_c, 0, 64, 0
1, 320492, Note_on_c, 0, 70, 48
1, 320496, Note_on_c, 0, 43, 43
1, 320520, Note_off_c, 0, 63, 64
1, 320580, Control_c, 0, 64, 127
1, 321052, Note_on_c, 0, 63, 22
1, 321056, Note_on_c, 0, 61, 22
1, 321072, Note_on_c, 0, 58, 22
1, 321080, Note_on_c, 0, 51, 22
1, 321620, Note_off_c, 0, 63, 64
1, 321624, Note_off_c, 0, 61, 64
1, 321640, Note_off_c, 0, 58, 64
1, 321648, Note_off_c, 0, 51, 64
1, 321660, Note_on_c, 0, 58, 22
1, 321668, Note_on_c, 0, 63, 22
1, 321672, Note_on_c, 0, 61, 22
1, 321676, Note_on_c, 0, 51, 22
1, 321780, Note_off_c, 0, 70, 64
1, 321784, Note_off_c, 0, 43, 64
1, 321916, Note_off_c, 0, 58, 64
1, 321924, Note_off_c, 0, 63, 64
1, 321928, Note_off_c, 0, 61, 64
1, 321936, Note_off_c, 0, 51, 64
1, 321956, Note_on_c, 0, 51, 22
1, 321972, Note_on_c, 0, 68, 52
1, 321976, Note_on_c, 0, 63, 22
1, 321984, Note_on_c, 0, 61, 22
1, 321992, Note_on_c, 0, 58, 22
1, 322212, Note_off_c, 0, 51, 64
1, 322232, Note_off_c, 0, 63, 64
1, 322240, Note_off_c, 0, 61, 64
1, 322252, Note_off_c, 0, 58, 64
1, 322312, Note_on_c, 0, 63, 22
1, 322316, Note_on_c, 0, 58, 22
1, 322320, Note_on_c, 0, 61, 22
1, 322328, Note_on_c, 0, 51, 22
1, 322496, Note_on_c, 0, 70, 51
1, 322524, Note_off_c, 0, 68, 64
1, 322548, Note_off_c, 0, 63, 64
1, 322552, Note_off_c, 0, 58, 64
1, 322552, Note_off_c, 0, 61, 64
1, 322584, Note_off_c, 0, 51, 64
1, 322700, Control_c, 0, 64, 0
1, 322724, Note_on_c, 0, 44, 45
1, 322736, Note_on_c, 0, 71, 52
1, 322764, Note_off_c, 0, 70, 64
1, 322776, Control_c, 0, 64, 127
1, 322968, Note_on_c, 0, 70, 47
1, 322992, Note_off_c, 0, 71, 64
1, 323152, Note_on_c, 0, 51, 22
1, 323164, Note_on_c, 0, 68, 43
1, 323164, Note_on_c, 0, 56, 22
1, 323164, Note_on_c, 0, 63, 22
1, 323168, Note_off_c, 0, 70, 64
1, 323176, Note_on_c, 0, 59, 22
1, 323328, Note_on_c, 0, 76, 46
1, 323360, Note_off_c, 0, 68, 64
1, 323468, Note_on_c, 0, 75, 52
1, 323504, Note_off_c, 0, 76, 64
1, 323672, Note_off_c, 0, 51, 64
1, 323684, Note_off_c, 0, 56, 64
1, 323684, Note_off_c, 0, 63, 64
1, 323696, Note_off_c, 0, 59, 64
1, 323716, Note_on_c, 0, 63, 22
1, 323720, Note_on_c, 0, 51, 22
1, 323728, Note_on_c, 0, 56, 22
1, 323736, Note_on_c, 0, 59, 22
1, 323944, Note_off_c, 0, 63, 64
1, 323948, Note_off_c, 0, 51, 64
1, 323956, Note_off_c, 0, 56, 64
1, 323960, Note_off_c, 0, 59, 64
1, 323972, Note_off_c, 0, 44, 64
1, 323972, Note_on_c, 0, 56, 22
1, 323972, Note_on_c, 0, 51, 22
1, 323972, Note_on_c, 0, 63, 22
1, 323984, Note_on_c, 0, 59, 22
1, 324196, Note_off_c, 0, 51, 64
1, 324196, Note_off_c, 0, 56, 64
1, 324200, Note_off_c, 0, 63, 64
1, 324208, Note_off_c, 0, 59, 64
1, 324224, Note_on_c, 0, 51, 22
1, 324228, Note_on_c, 0, 63, 22
1, 324240, Note_on_c, 0, 59, 22
1, 324240, Note_on_c, 0, 56, 22
1, 324448, Note_off_c, 0, 51, 64
1, 324452, Note_off_c, 0, 63, 64
1, 324464, Note_off_c, 0, 59, 64
1, 324464, Note_off_c, 0, 56, 64
1, 324552, Control_c, 0, 64, 0
1, 324584, Note_on_c, 0, 70, 53
1, 324592, Note_on_c, 0, 43, 48
1, 324636, Note_off_c, 0, 75, 64
1, 324644, Control_c, 0, 64, 127
1, 324944, Note_on_c, 0, 63, 22
1, 324952, Note_on_c, 0, 51, 22
1, 324956, Note_on_c, 0, 58, 22
1, 324968, Note_on_c, 0, 61, 22
1, 325168, Note_off_c, 0, 63, 64
1, 325176, Note_off_c, 0, 51, 64
1, 325184, Note_off_c, 0, 58, 64
1, 325192, Note_off_c, 0, 61, 64
1, 325240, Note_on_c, 0, 63, 22
1, 325240, Note_on_c, 0, 61, 22
1, 325244, Note_on_c, 0, 51, 22
1, 325252, Note_on_c, 0, 58, 22
1, 325448, Note_off_c, 0, 63, 64
1, 325448, Note_off_c, 0, 61, 64
1, 325456, Note_off_c, 0, 51, 64
1, 325460, Note_off_c, 0, 58, 64
1, 325496, Note_on_c, 0, 63, 22
1, 325496, Note_on_c, 0, 61, 22
1, 325496, Note_on_c, 0, 58, 22
1, 325520, Note_on_c, 0, 51, 22
1, 325720, Note_off_c, 0, 58, 64
1, 325720, Note_off_c, 0, 61, 64
1, 325720, Note_off_c, 0, 63, 64
1, 325744, Note_off_c, 0, 51, 64
1, 325788, Note_on_c, 0, 63, 22
1, 325788, Note_on_c, 0, 58, 22
1, 325792, Note_on_c, 0, 61, 22
1, 325796, Note_on_c, 0, 68, 58
1, 325800, Note_on_c, 0, 51, 22
1, 325820, Note_off_c, 0, 70, 64
1, 325824, Note_off_c, 0, 43, 64
1, 326048, Note_off_c, 0, 63, 64
1, 326048, Note_off_c, 0, 58, 64
1, 326052, Note_off_c, 0, 61, 64
1, 326060, Note_off_c, 0, 51, 64
1, 326120, Note_on_c, 0, 63, 22
1, 326120, Note_on_c, 0, 61, 22
1, 326120, Note_on_c, 0, 58, 22
1, 326136, Note_on_c, 0, 51, 22
1, 326292, Note_on_c, 0, 70, 51
1, 326340, Note_off_c, 0, 68, 64
1, 326348, Note_off_c, 0, 63, 64
1, 326348, Note_off_c, 0, 61, 64
1, 326348, Note_off_c, 0, 58, 64
1, 326360, Note_off_c, 0, 51, 64
1, 326452, Note_off_c, 0, 70, 64
1, 326568, Control_c, 0, 64, 0
1, 326588, Note_on_c, 0, 44, 38
1, 326600, Note_on_c, 0, 71, 52
1, 326660, Control_c, 0, 64, 127
1, 326820, Note_on_c, 0, 68, 53
1, 326848, Note_off_c, 0, 71, 64
1, 327004, Note_on_c, 0, 63, 22
1, 327004, Note_on_c, 0, 59, 22
1, 327004, Note_on_c, 0, 51, 22
1, 327016, Note_on_c, 0, 56, 22
1, 327024, Note_on_c, 0, 78, 45
1, 327128, Note_on_c, 0, 76, 51
1, 327144, Note_off_c, 0, 78, 64
1, 327152, Note_off_c, 0, 68, 64
1, 327240, Note_on_c, 0, 75, 37
1, 327256, Note_off_c, 0, 76, 64
1, 327300, Note_off_c, 0, 75, 64
1, 327348, Note_on_c, 0, 75, 57
1, 327572, Note_off_c, 0, 51, 64
1, 327572, Note_off_c, 0, 59, 64
1, 327572, Note_off_c, 0, 63, 64
1, 327584, Note_off_c, 0, 56, 64
1, 327604, Note_on_c, 0, 63, 22
1, 327612, Note_on_c, 0, 56, 22
1, 327616, Note_on_c, 0, 51, 22
1, 327620, Note_on_c, 0, 59, 22
1, 327828, Note_off_c, 0, 63, 64
1, 327840, Note_off_c, 0, 56, 64
1, 327840, Note_off_c, 0, 51, 64
1, 327844, Note_off_c, 0, 59, 64
1, 327860, Note_off_c, 0, 44, 64
1, 327872, Note_on_c, 0, 63, 22
1, 327880, Note_on_c, 0, 59, 22
1, 327880, Note_on_c, 0, 51, 22
1, 327896, Note_on_c, 0, 56, 22
1, 328096, Note_off_c, 0, 63, 64
1, 328108, Note_off_c, 0, 59, 64
1, 328108, Note_off_c, 0, 51, 64
1, 328120, Note_off_c, 0, 56, 64
1, 328168, Note_on_c, 0, 63, 22
1, 328172, Note_off_c, 0, 75, 64
1, 328172, Note_on_c, 0, 51, 22
1, 328180, Note_on_c, 0, 59, 22
1, 328184, Note_on_c, 0, 56, 22
1, 328392, Note_off_c, 0, 63, 64
1, 328400, Note_off_c, 0, 51, 64
1, 328408, Note_off_c, 0, 59, 64
1, 328412, Note_off_c, 0, 56, 64
1, 328504, Note_on_c, 0, 35, 52
1, 328508, Note_on_c, 0, 47, 48
1, 328516, Note_on_c, 0, 75, 54
1, 328984, Note_on_c, 0, 54, 29
1, 328984, Note_on_c, 0, 51, 29
1, 328988, Note_on_c, 0, 59, 29
1, 328996, Note_on_c, 0, 63, 29
1, 329240, Note_off_c, 0, 54, 64
1, 329240, Note_off_c, 0, 51, 64
1, 329248, Note_off_c, 0, 59, 64
1, 329252, Note_off_c, 0, 63, 64
1, 329264, Note_on_c, 0, 63, 30
1, 329276, Note_on_c, 0, 54, 30
1, 329280, Note_on_c, 0, 59, 30
1, 329288, Note_on_c, 0, 51, 30
1, 329472, Note_off_c, 0, 63, 64
1, 329484, Note_off_c, 0, 54, 64
1, 329488, Note_off_c, 0, 59, 64
1, 329496, Note_off_c, 0, 51, 64
1, 329516, Note_on_c, 0, 63, 31
1, 329520, Note_on_c, 0, 51, 31
1, 329528, Note_on_c, 0, 73, 56
1, 329528, Note_on_c, 0, 54, 31
1, 329536, Note_on_c, 0, 59, 31
1, 329560, Note_off_c, 0, 75, 64
1, 329660, Note_on_c, 0, 71, 57
1, 329696, Note_off_c, 0, 73, 64
1, 329740, Note_off_c, 0, 63, 64
1, 329744, Note_off_c, 0, 51, 64
1, 329752, Note_off_c, 0, 54, 64
1, 329760, Note_off_c, 0, 59, 64
1, 329784, Note_on_c, 0, 59, 31
1, 329796, Note_on_c, 0, 70, 59
1, 329796, Note_on_c, 0, 63, 31
1, 329796, Note_on_c, 0, 54, 31
1, 329796, Note_on_c, 0, 51, 31
1, 329820, Note_off_c, 0, 71, 64
1, 329928, Note_on_c, 0, 73, 58
1, 329976, Note_off_c, 0, 70, 64
1, 330008, Note_off_c, 0, 59, 64
1, 330020, Note_off_c, 0, 63, 64
1, 330020, Note_off_c, 0, 54, 64
1, 330020, Note_off_c, 0, 51, 64
1, 330064, Note_on_c, 0, 63, 32
1, 330068, Note_on_c, 0, 71, 56
1, 330076, Note_on_c, 0, 59, 32
1, 330076, Note_on_c, 0, 51, 32
1, 330080, Note_on_c, 0, 55, 32
1, 330088, Note_off_c, 0, 73, 64
1, 330128, Note_off_c, 0, 35, 64
1, 330136, Note_off_c, 0, 47, 64
1, 330220, Note_on_c, 0, 70, 62
1, 330232, Note_off_c, 0, 71, 64
1, 330320, Note_off_c, 0, 63, 64
1, 330336, Note_off_c, 0, 51, 64
1, 330336, Note_off_c, 0, 55, 64
1, 330336, Note_off_c, 0, 59, 64
1, 330388, Note_off_c, 0, 70, 64
1, 330388, Control_c, 0, 64, 0
1, 330440, Note_on_c, 0, 70, 65
1, 330444, Note_on_c, 0, 52, 47
1, 330448, Note_on_c, 0, 40, 47
1, 330468, Control_c, 0, 64, 127
1, 330844, Note_on_c, 0, 59, 33
1, 330848, Note_on_c, 0, 56, 33
1, 330852, Note_on_c, 0, 64, 33
1, 330980, Note_off_c, 0, 70, 64
1, 330984, Note_on_c, 0, 68, 58
1, 331084, Note_off_c, 0, 68, 64
1, 331144, Note_off_c, 0, 59, 64
1, 331148, Note_off_c, 0, 56, 64
1, 331152, Note_off_c, 0, 64, 64
1, 331224, Note_on_c, 0, 80, 63
1, 331236, Note_on_c, 0, 56, 34
1, 331240, Note_on_c, 0, 64, 34
1, 331240, Note_on_c, 0, 59, 34
1, 331476, Note_off_c, 0, 56, 64
1, 331500, Note_off_c, 0, 64, 64
1, 331500, Note_off_c, 0, 59, 64
1, 331528, Note_on_c, 0, 56, 34
1, 331536, Note_on_c, 0, 64, 34
1, 331544, Note_on_c, 0, 59, 34
1, 331672, Note_off_c, 0, 40, 64
1, 331688, Note_off_c, 0, 52, 64
1, 331740, Note_off_c, 0, 56, 64
1, 331744, Note_off_c, 0, 64, 64
1, 331752, Note_off_c, 0, 59, 64
1, 331768, Note_on_c, 0, 56, 34
1, 331776, Note_on_c, 0, 64, 34
1, 331776, Note_on_c, 0, 59, 34
1, 331980, Note_off_c, 0, 56, 64
1, 331984, Note_off_c, 0, 64, 64
1, 331984, Note_off_c, 0, 59, 64
1, 332012, Note_on_c, 0, 64, 35
1, 332016, Note_on_c, 0, 60, 35
1, 332024, Note_on_c, 0, 56, 35
1, 332096, Note_off_c, 0, 80, 64
1, 332124, Note_on_c, 0, 78, 61
1, 332228, Note_off_c, 0, 78, 64
1, 332296, Note_on_c, 0, 52, 57
1, 332304, Control_c, 0, 64, 0
1, 332348, Note_on_c, 0, 78, 61
1, 332360, Note_off_c, 0, 64, 64
1, 332360, Note_off_c, 0, 60, 64
1, 332368, Note_off_c, 0, 56, 64
1, 332408, Control_c, 0, 64, 127
1, 332500, Note_on_c, 0, 76, 62
1, 332544, Note_off_c, 0, 78, 64
1, 332640, Note_off_c, 0, 76, 64
1, 332640, Note_on_c, 0, 72, 56
1, 332648, Note_on_c, 0, 64, 44
1, 332648, Note_on_c, 0, 61, 44
1, 332648, Note_on_c, 0, 56, 44
1, 332764, Note_on_c, 0, 73, 54
1, 332784, Note_off_c, 0, 72, 64
1, 332888, Note_on_c, 0, 76, 57
1, 332896, Note_off_c, 0, 73, 64
1, 333004, Note_on_c, 0, 75, 62
1, 333040, Note_off_c, 0, 76, 64
1, 333088, Note_off_c, 0, 61, 64
1, 333088, Note_off_c, 0, 56, 64
1, 333104, Note_off_c, 0, 64, 64
1, 333124, Note_off_c, 0, 75, 64
1, 333136, Note_on_c, 0, 61, 42
1, 333136, Note_on_c, 0, 70, 53
1, 333144, Note_on_c, 0, 56, 42
1, 333152, Note_on_c, 0, 64, 42
1, 333200, Note_off_c, 0, 52, 64
1, 333256, Note_on_c, 0, 71, 55
1, 333268, Note_off_c, 0, 70, 64
1, 333364, Control_c, 0, 64, 0
1, 333408, Note_on_c, 0, 75, 51
1, 333416, Note_on_c, 0, 52, 51
1, 333428, Note_off_c, 0, 71, 64
1, 333440, Note_off_c, 0, 61, 64
1, 333440, Control_c, 0, 64, 127
1, 333448, Note_off_c, 0, 56, 64
1, 333456, Note_off_c, 0, 64, 64
1, 333560, Note_on_c, 0, 73, 34
1, 333608, Note_off_c, 0, 75, 64
1, 333712, Note_off_c, 0, 73, 64
1, 333716, Note_on_c, 0, 67, 48
1, 333724, Note_on_c, 0, 56, 38
1, 333728, Note_on_c, 0, 61, 38
1, 333764, Note_off_c, 0, 52, 64
1, 333896, Note_on_c, 0, 68, 45
1, 333900, Note_off_c, 0, 67, 64
1, 334024, Note_off_c, 0, 56, 64
1, 334032, Note_off_c, 0, 61, 64
1, 334072, Note_on_c, 0, 70, 50
1, 334076, Note_on_c, 0, 39, 45
1, 334084, Note_on_c, 0, 51, 47
1, 334104, Note_off_c, 0, 68, 64
1, 334108, Control_c, 0, 64, 127
1, 334424, Note_on_c, 0, 67, 34
1, 334432, Note_on_c, 0, 63, 34
1, 334440, Note_on_c, 0, 58, 34
1, 334448, Note_on_c, 0, 55, 34
1, 334680, Note_off_c, 0, 67, 64
1, 334692, Note_off_c, 0, 63, 64
1, 334700, Note_off_c, 0, 58, 64
1, 334704, Note_off_c, 0, 55, 64
1, 334720, Note_on_c, 0, 63, 36
1, 334724, Note_on_c, 0, 55, 36
1, 334728, Note_on_c, 0, 58, 36
1, 334736, Note_on_c, 0, 67, 36
1, 334940, Note_off_c, 0, 39, 64
1, 334944, Note_off_c, 0, 63, 64
1, 334952, Note_off_c, 0, 51, 64
1, 334952, Note_off_c, 0, 55, 64
1, 334952, Note_off_c, 0, 58, 64
1, 334960, Note_off_c, 0, 67, 64
1, 334976, Note_off_c, 0, 70, 64
1, 334984, Note_on_c, 0, 66, 38
1, 334984, Note_on_c, 0, 63, 38
1, 335000, Note_on_c, 0, 58, 38
1, 335000, Note_on_c, 0, 54, 38
1, 335244, Note_off_c, 0, 66, 64
1, 335244, Note_off_c, 0, 63, 64
1, 335256, Note_off_c, 0, 58, 64
1, 335256, Note_off_c, 0, 54, 64
1, 335260, Control_c, 0, 64, 0
1, 335292, Note_on_c, 0, 37, 61
1, 335300, Note_on_c, 0, 71, 66
1, 335304, Note_on_c, 0, 49, 66
1, 335340, Control_c, 0, 64, 127
1, 335680, Note_on_c, 0, 64, 44
1, 335680, Note_on_c, 0, 58, 44
1, 335688, Note_on_c, 0, 54, 44
1, 335740, Note_off_c, 0, 37, 64
1, 335748, Note_off_c, 0, 49, 64
1, 335888, Note_on_c, 0, 73, 61
1, 335920, Note_off_c, 0, 71, 64
1, 335936, Note_off_c, 0, 64, 64
1, 335936, Note_off_c, 0, 58, 64
1, 335948, Note_off_c, 0, 54, 64
1, 336016, Control_c, 0, 64, 0
1, 336024, Note_on_c, 0, 47, 59
1, 336024, Note_on_c, 0, 35, 55
1, 336028, Note_on_c, 0, 75, 68
1, 336080, Control_c, 0, 64, 127
1, 336104, Note_off_c, 0, 73, 64
1, 336440, Note_off_c, 0, 75, 64
1, 336452, Note_on_c, 0, 80, 69
1, 336456, Note_on_c, 0, 63, 47
1, 336468, Note_on_c, 0, 59, 47
1, 336468, Note_on_c, 0, 54, 47
1, 336476, Note_off_c, 0, 35, 64
1, 336484, Note_off_c, 0, 47, 64
1, 336716, Note_off_c, 0, 63, 64
1, 336724, Note_off_c, 0, 59, 64
1, 336724, Note_off_c, 0, 54, 64
1, 336760, Note_on_c, 0, 34, 23
1, 336764, Note_on_c, 0, 78, 69
1, 336772, Note_on_c, 0, 46, 68
1, 336800, Control_c, 0, 64, 0
1, 336808, Note_off_c, 0, 80, 64
1, 336876, Control_c, 0, 64, 127
1, 337168, Note_on_c, 0, 54, 49
1, 337176, Note_on_c, 0, 61, 49
1, 337388, Note_off_c, 0, 61, 64
1, 337396, Note_off_c, 0, 54, 64
1, 337420, Note_on_c, 0, 61, 50
1, 337436, Note_on_c, 0, 54, 50
1, 337580, Note_off_c, 0, 34, 64
1, 337600, Note_off_c, 0, 46, 64
1, 337644, Note_off_c, 0, 61, 64
1, 337660, Note_off_c, 0, 54, 64
1, 337704, Note_on_c, 0, 61, 51
1, 337716, Note_on_c, 0, 54, 51
1, 337720, Note_on_c, 0, 73, 59
1, 337928, Note_off_c, 0, 61, 64
1, 337940, Note_off_c, 0, 54, 64
1, 338020, Note_off_c, 0, 78, 64
1, 338052, Control_c, 0, 64, 0
1, 338068, Note_off_c, 0, 73, 64
1, 338076, Note_on_c, 0, 69, 60
1, 338080, Note_on_c, 0, 44, 71
1, 338140, Control_c, 0, 64, 127
1, 338256, Note_on_c, 0, 70, 67
1, 338304, Note_off_c, 0, 69, 64
1, 338424, Note_on_c, 0, 78, 59
1, 338428, Note_on_c, 0, 64, 46
1, 338428, Note_on_c, 0, 59, 46
1, 338428, Note_on_c, 0, 56, 46
1, 338444, Note_off_c, 0, 70, 64
1, 338520, Note_off_c, 0, 44, 64
1, 338592, Note_on_c, 0, 77, 64
1, 338608, Note_off_c, 0, 78, 64
1, 338688, Note_off_c, 0, 64, 64
1, 338688, Note_off_c, 0, 59, 64
1, 338688, Note_off_c, 0, 56, 64
1, 338764, Note_on_c, 0, 43, 63
1, 338776, Note_on_c, 0, 76, 62
1, 338788, Note_off_c, 0, 77, 64
1, 338920, Note_on_c, 0, 75, 56
1, 338952, Note_off_c, 0, 76, 64
1, 339044, Note_off_c, 0, 75, 64
1, 339072, Note_on_c, 0, 69, 62
1, 339076, Note_on_c, 0, 51, 40
1, 339080, Note_on_c, 0, 63, 40
1, 339088, Note_on_c, 0, 58, 40
1, 339224, Note_on_c, 0, 70, 39
1, 339296, Note_off_c, 0, 69, 64
1, 339336, Note_off_c, 0, 51, 64
1, 339340, Note_off_c, 0, 63, 64
1, 339344, Note_off_c, 0, 58, 64
1, 339348, Note_on_c, 0, 75, 63
1, 339360, Note_off_c, 0, 70, 64
1, 339388, Note_on_c, 0, 63, 38
1, 339392, Note_on_c, 0, 51, 38
1, 339404, Note_on_c, 0, 58, 38
1, 339584, Note_off_c, 0, 51, 64
1, 339584, Note_off_c, 0, 63, 64
1, 339592, Note_off_c, 0, 43, 64
1, 339600, Note_off_c, 0, 58, 64
1, 339620, Note_on_c, 0, 63, 36
1, 339620, Note_on_c, 0, 58, 36
1, 339620, Note_on_c, 0, 51, 36
1, 339832, Control_c, 0, 64, 0
1, 339844, Note_off_c, 0, 63, 64
1, 339844, Note_off_c, 0, 58, 64
1, 339844, Note_off_c, 0, 51, 64
1, 339864, Note_on_c, 0, 69, 72
1, 339872, Note_on_c, 0, 42, 62
1, 339900, Note_off_c, 0, 75, 64
1, 339908, Control_c, 0, 64, 127
1, 340156, Note_on_c, 0, 74, 73
1, 340156, Note_on_c, 0, 54, 46
1, 340164, Note_on_c, 0, 62, 51
1, 340164, Note_on_c, 0, 57, 49
1, 340204, Note_off_c, 0, 69, 64
1, 340332, Note_off_c, 0, 42, 64
1, 340424, Note_off_c, 0, 54, 64
1, 340428, Note_off_c, 0, 62, 64
1, 340428, Note_off_c, 0, 57, 64
1, 340492, Control_c, 0, 64, 0
1, 340504, Note_on_c, 0, 73, 73
1, 340516, Note_off_c, 0, 74, 64
1, 340516, Note_on_c, 0, 41, 68
1, 340544, Control_c, 0, 64, 127
1, 340800, Note_on_c, 0, 61, 44
1, 340808, Note_on_c, 0, 56, 44
1, 340808, Note_on_c, 0, 49, 44
1, 340968, Note_off_c, 0, 49, 64
1, 341008, Note_off_c, 0, 61, 64
1, 341020, Note_off_c, 0, 56, 64
1, 341020, Note_on_c, 0, 61, 44
1, 341032, Note_on_c, 0, 49, 44
1, 341040, Note_on_c, 0, 56, 44
1, 341176, Note_off_c, 0, 61, 64
1, 341184, Note_off_c, 0, 56, 64
1, 341192, Note_off_c, 0, 49, 64
1, 341256, Note_on_c, 0, 49, 44
1, 341260, Note_on_c, 0, 61, 44
1, 341268, Note_on_c, 0, 68, 62
1, 341272, Note_on_c, 0, 56, 44
1, 341328, Note_off_c, 0, 73, 64
1, 341336, Note_off_c, 0, 41, 64
1, 341480, Note_off_c, 0, 49, 64
1, 341484, Note_off_c, 0, 61, 64
1, 341496, Note_off_c, 0, 56, 64
1, 341552, Control_c, 0, 64, 0
1, 341584, Note_on_c, 0, 40, 62
1, 341588, Note_on_c, 0, 67, 72
1, 341608, Note_off_c, 0, 68, 64
1, 341632, Control_c, 0, 64, 127
1, 341816, Note_on_c, 0, 68, 59
1, 341872, Note_off_c, 0, 67, 64
1, 342000, Note_on_c, 0, 75, 57
1, 342000, Note_on_c, 0, 61, 44
1, 342020, Note_on_c, 0, 56, 44
1, 342024, Note_on_c, 0, 52, 44
1, 342072, Note_off_c, 0, 68, 64
1, 342108, Note_on_c, 0, 73, 60
1, 342140, Note_off_c, 0, 75, 64
1, 342252, Note_on_c, 0, 71, 61
1, 342272, Note_off_c, 0, 73, 64
1, 342372, Note_on_c, 0, 70, 68
1, 342392, Note_off_c, 0, 71, 64
1, 342424, Note_off_c, 0, 61, 64
1, 342444, Note_off_c, 0, 56, 64
1, 342472, Note_on_c, 0, 61, 44
1, 342480, Note_off_c, 0, 52, 64
1, 342492, Note_on_c, 0, 73, 63
1, 342496, Note_on_c, 0, 56, 44
1, 342500, Note_on_c, 0, 52, 44
1, 342504, Note_off_c, 0, 70, 64
1, 342600, Note_on_c, 0, 71, 60
1, 342632, Note_off_c, 0, 73, 64
1, 342720, Note_on_c, 0, 70, 54
1, 342752, Note_off_c, 0, 71, 64
1, 342828, Note_on_c, 0, 68, 63
1, 342856, Note_off_c, 0, 70, 64
1, 342896, Note_off_c, 0, 61, 64
1, 342920, Note_off_c, 0, 56, 64
1, 342924, Note_off_c, 0, 52, 64
1, 342960, Note_on_c, 0, 61, 44
1, 342960, Note_on_c, 0, 56, 44
1, 342960, Note_on_c, 0, 71, 62
1, 342972, Note_on_c, 0, 52, 44
1, 342980, Note_off_c, 0, 68, 64
1, 343080, Note_on_c, 0, 70, 61
1, 343096, Note_off_c, 0, 71, 64
1, 343204, Note_off_c, 0, 40, 64
1, 343212, Control_c, 0, 64, 0
1, 343220, Note_off_c, 0, 52, 64
1, 343224, Note_off_c, 0, 61, 64
1, 343224, Note_off_c, 0, 56, 64
1, 343240, Note_on_c, 0, 68, 51
1, 343256, Note_on_c, 0, 52, 50
1, 343264, Note_off_c, 0, 70, 64
1, 343304, Control_c, 0, 64, 127
1, 343496, Note_on_c, 0, 61, 42
1, 343496, Note_on_c, 0, 58, 42
1, 343508, Note_on_c, 0, 54, 42
1, 343692, Note_off_c, 0, 61, 64
1, 343692, Note_off_c, 0, 58, 64
1, 343700, Note_off_c, 0, 54, 64
1, 343736, Note_on_c, 0, 61, 40
1, 343740, Note_on_c, 0, 54, 40
1, 343744, Note_on_c, 0, 58, 40
1, 343928, Note_off_c, 0, 61, 64
1, 343932, Note_off_c, 0, 54, 64
1, 343936, Note_off_c, 0, 58, 64
1, 343960, Note_on_c, 0, 61, 39
1, 343960, Note_on_c, 0, 58, 39
1, 343960, Note_on_c, 0, 54, 39
1, 344152, Note_off_c, 0, 54, 64
1, 344152, Note_off_c, 0, 58, 64
1, 344152, Note_off_c, 0, 61, 64
1, 344184, Note_on_c, 0, 54, 37
1, 344188, Note_on_c, 0, 61, 37
1, 344196, Note_on_c, 0, 58, 37
1, 344308, Note_off_c, 0, 52, 64
1, 344360, Note_off_c, 0, 68, 64
1, 344376, Note_off_c, 0, 54, 64
1, 344384, Note_off_c, 0, 61, 64
1, 344388, Note_off_c, 0, 58, 64
1, 344444, Note_on_c, 0, 61, 35
1, 344444, Note_on_c, 0, 58, 35
1, 344456, Note_on_c, 0, 54, 35
1, 344592, Note_on_c, 0, 66, 56
1, 344644, Note_off_c, 0, 66, 64
1, 344644, Control_c, 0, 64, 0
1, 344652, Note_off_c, 0, 61, 64
1, 344652, Note_off_c, 0, 58, 64
1, 344664, Note_off_c, 0, 54, 64
1, 344680, Note_on_c, 0, 66, 68
1, 344696, Note_on_c, 0, 63, 39
1, 344696, Note_on_c, 0, 51, 34
1, 344700, Note_on_c, 0, 54, 28
1, 344708, Note_on_c, 0, 59, 41
1, 344732, Control_c, 0, 64, 127
1, 344864, Note_on_c, 0, 68, 63
1, 344888, Note_off_c, 0, 66, 64
1, 344912, Note_off_c, 0, 68, 64
1, 344956, Note_on_c, 0, 68, 68
1, 345048, Note_off_c, 0, 68, 64
1, 345116, Note_on_c, 0, 70, 60
1, 345164, Note_off_c, 0, 70, 64
1, 345212, Note_on_c, 0, 70, 70
1, 345316, Note_off_c, 0, 70, 64
1, 345384, Note_on_c, 0, 71, 55
1, 345440, Note_off_c, 0, 71, 64
1, 345468, Note_on_c, 0, 71, 58
1, 345560, Note_off_c, 0, 71, 64
1, 345604, Note_off_c, 0, 59, 64
1, 345640, Note_on_c, 0, 73, 62
1, 345688, Note_off_c, 0, 73, 64
1, 345732, Note_on_c, 0, 73, 65
1, 345744, Note_off_c, 0, 63, 64
1, 345752, Note_off_c, 0, 54, 64
1, 345800, Note_off_c, 0, 51, 64
1, 345848, Note_off_c, 0, 73, 64
1, 345908, Note_on_c, 0, 74, 62
1, 345976, Note_off_c, 0, 74, 64
1, 346012, Note_on_c, 0, 74, 69
1, 346196, Note_off_c, 0, 74, 64
1, 346208, Note_on_c, 0, 75, 70
1, 346260, Note_off_c, 0, 75, 64
1, 346304, Note_on_c, 0, 75, 72
1, 346308, Note_on_c, 0, 37, 71
1, 346316, Note_on_c, 0, 49, 58
1, 346592, Control_c, 0, 64, 0
1, 346648, Note_on_c, 0, 68, 68
1, 346668, Note_on_c, 0, 71, 62
1, 346672, Note_on_c, 0, 65, 66
1, 346672, Note_on_c, 0, 59, 63
1, 346684, Note_off_c, 0, 75, 64
1, 346696, Control_c, 0, 64, 127
1, 346968, Note_off_c, 0, 71, 64
1, 346972, Note_off_c, 0, 65, 64
1, 346972, Note_off_c, 0, 59, 64
1, 347064, Note_on_c, 0, 75, 79
1, 347072, Note_on_c, 0, 59, 63
1, 347076, Note_on_c, 0, 71, 68
1, 347084, Note_on_c, 0, 65, 62
1, 347096, Note_off_c, 0, 68, 64
1, 347296, Note_off_c, 0, 59, 64
1, 347304, Note_off_c, 0, 71, 64
1, 347312, Note_off_c, 0, 65, 64
1, 347356, Note_on_c, 0, 71, 54
1, 347368, Note_on_c, 0, 65, 51
1, 347368, Note_on_c, 0, 59, 51
1, 347568, Note_off_c, 0, 71, 64
1, 347576, Note_off_c, 0, 65, 64
1, 347576, Note_off_c, 0, 59, 64
1, 347588, Note_on_c, 0, 71, 62
1, 347588, Note_on_c, 0, 59, 57
1, 347592, Note_on_c, 0, 65, 64
1, 347768, Note_off_c, 0, 71, 64
1, 347768, Note_off_c, 0, 59, 64
1, 347768, Note_off_c, 0, 65, 64
1, 347784, Note_on_c, 0, 73, 68
1, 347796, Note_on_c, 0, 71, 65
1, 347808, Note_on_c, 0, 65, 65
1, 347808, Note_on_c, 0, 59, 64
1, 347824, Note_off_c, 0, 75, 64
1, 347896, Note_off_c, 0, 37, 64
1, 347904, Note_off_c, 0, 49, 64
1, 347936, Note_off_c, 0, 73, 64
1, 347988, Note_off_c, 0, 71, 64
1, 348000, Note_off_c, 0, 65, 64
1, 348000, Note_off_c, 0, 59, 64
1, 348012, Note_on_c, 0, 71, 68
1, 348016, Note_on_c, 0, 61, 30
1, 348024, Note_on_c, 0, 65, 66
1, 348024, Note_on_c, 0, 72, 83
1, 348028, Note_on_c, 0, 59, 64
1, 348144, Note_on_c, 0, 73, 85
1, 348164, Note_off_c, 0, 72, 64
1, 348204, Note_off_c, 0, 73, 64
1, 348288, Note_on_c, 0, 73, 76
1, 348376, Note_on_c, 0, 87, 85
1, 348528, Note_on_c, 0, 85, 71
1, 348560, Note_off_c, 0, 87, 64
1, 348576, Note_off_c, 0, 73, 64
1, 348688, Note_on_c, 0, 83, 71
1, 348748, Note_off_c, 0, 85, 64
1, 348808, Note_on_c, 0, 80, 55
1, 348888, Note_off_c, 0, 71, 64
1, 348892, Note_off_c, 0, 61, 64
1, 348892, Note_off_c, 0, 83, 64
1, 348896, Note_off_c, 0, 65, 64
1, 348904, Note_off_c, 0, 59, 64
1, 348932, Note_on_c, 0, 75, 66
1, 348996, Note_off_c, 0, 80, 64
1, 349088, Note_on_c, 0, 73, 47
1, 349136, Note_off_c, 0, 75, 64
1, 349252, Note_on_c, 0, 71, 45
1, 349288, Note_off_c, 0, 73, 64
1, 349404, Note_on_c, 0, 68, 50
1, 349440, Note_off_c, 0, 71, 64
1, 349572, Note_on_c, 0, 61, 49
1, 349592, Note_off_c, 0, 68, 64
1, 349740, Note_on_c, 0, 63, 46
1, 349768, Note_off_c, 0, 61, 64
1, 349888, Note_on_c, 0, 42, 62
1, 349960, Note_on_c, 0, 49, 52
1, 350008, Note_on_c, 0, 64, 51
1, 350012, Note_on_c, 0, 59, 48
1, 350048, Note_off_c, 0, 63, 64
1, 350076, Control_c, 0, 64, 0
1, 350156, Control_c, 0, 64, 127
1, 350468, Note_on_c, 0, 54, 52
1, 350480, Note_off_c, 0, 59, 64
1, 350872, Note_on_c, 0, 59, 57
1, 350900, Note_off_c, 0, 54, 64
1, 351864, Note_off_c, 0, 59, 64
1, 351872, Note_on_c, 0, 58, 44
1, 351928, Note_off_c, 0, 42, 64
1, 352008, Note_off_c, 0, 49, 64
1, 352064, Note_on_c, 0, 42, 22
1, 352148, Note_off_c, 0, 58, 64
1, 352208, Note_on_c, 0, 49, 38
1, 352296, Note_on_c, 0, 58, 56
1, 352332, Note_on_c, 0, 63, 68
1, 352336, Note_off_c, 0, 64, 64
1, 352384, Control_c, 0, 64, 0
1, 352464, Control_c, 0, 64, 127
1, 352608, Note_on_c, 0, 64, 51
1, 352624, Note_off_c, 0, 63, 64
1, 352828, Note_on_c, 0, 75, 69
1, 352916, Note_off_c, 0, 64, 64
1, 353008, Note_on_c, 0, 73, 55
1, 353036, Note_off_c, 0, 75, 64
1, 353188, Note_on_c, 0, 75, 65
1, 353212, Note_off_c, 0, 73, 64
1, 353332, Note_on_c, 0, 73, 73
1, 353348, Note_off_c, 0, 49, 64
1, 353348, Note_off_c, 0, 75, 64
1, 353372, Note_off_c, 0, 42, 64
1, 353448, Note_off_c, 0, 58, 64
1, 353492, Note_on_c, 0, 75, 64
1, 353516, Note_off_c, 0, 73, 64
1, 353636, Note_on_c, 0, 73, 70
1, 353660, Note_off_c, 0, 75, 64
1, 353800, Note_on_c, 0, 75, 58
1, 353824, Note_off_c, 0, 73, 64
1, 353936, Note_on_c, 0, 73, 69
1, 353964, Note_off_c, 0, 75, 64
1, 354112, Note_on_c, 0, 75, 52
1, 354132, Note_off_c, 0, 73, 64
1, 354252, Note_on_c, 0, 73, 64
1, 354268, Note_off_c, 0, 75, 64
1, 354368, Control_c, 0, 64, 0
1, 354416, Note_off_c, 0, 73, 64
1, 354424, Note_on_c, 0, 75, 45
1, 354424, Note_on_c, 0, 66, 53
1, 354432, Control_c, 0, 64, 127
1, 354460, Control_c, 0, 64, 127
1, 354560, Note_on_c, 0, 73, 53
1, 354572, Note_on_c, 0, 64, 49
1, 354600, Note_off_c, 0, 66, 64
1, 354612, Note_off_c, 0, 75, 64
1, 354688, Note_on_c, 0, 75, 54
1, 354696, Note_off_c, 0, 73, 64
1, 354696, Note_on_c, 0, 66, 50
1, 354700, Note_off_c, 0, 64, 64
1, 354808, Note_off_c, 0, 66, 64
1, 354816, Note_on_c, 0, 73, 53
1, 354824, Note_on_c, 0, 64, 54
1, 354832, Note_off_c, 0, 75, 64
1, 354932, Note_off_c, 0, 73, 64
1, 354932, Note_on_c, 0, 75, 49
1, 354936, Note_on_c, 0, 66, 55
1, 354944, Note_off_c, 0, 64, 64
1, 355032, Note_off_c, 0, 66, 64
1, 355040, Note_on_c, 0, 73, 55
1, 355040, Note_on_c, 0, 64, 55
1, 355056, Note_off_c, 0, 75, 64
1, 355140, Note_off_c, 0, 73, 64
1, 355140, Note_on_c, 0, 75, 56
1, 355144, Note_on_c, 0, 66, 52
1, 355160, Note_off_c, 0, 64, 64
1, 355220, Note_off_c, 0, 66, 64
1, 355240, Note_on_c, 0, 73, 56
1, 355244, Note_on_c, 0, 64, 58
1, 355264, Note_off_c, 0, 75, 64
1, 355340, Note_off_c, 0, 73, 64
1, 355348, Note_on_c, 0, 75, 56
1, 355356, Note_on_c, 0, 66, 54
1, 355360, Note_off_c, 0, 64, 64
1, 355424, Note_off_c, 0, 66, 64
1, 355432, Note_on_c, 0, 73, 56
1, 355432, Note_on_c, 0, 64, 58
1, 355444, Note_off_c, 0, 75, 64
1, 355500, Note_off_c, 0, 64, 64
1, 355504, Note_off_c, 0, 73, 64
1, 355520, Note_on_c, 0, 75, 62
1, 355524, Note_on_c, 0, 66, 56
1, 355572, Note_on_c, 0, 73, 56
1, 355576, Note_off_c, 0, 66, 64
1, 355580, Note_on_c, 0, 64, 62
1, 355604, Note_off_c, 0, 75, 64
1, 355632, Note_off_c, 0, 64, 64
1, 355640, Note_off_c, 0, 73, 64
1, 355668, Note_on_c, 0, 75, 59
1, 355668, Note_on_c, 0, 66, 50
1, 355712, Note_on_c, 0, 73, 57
1, 355720, Note_on_c, 0, 64, 60
1, 355728, Note_off_c, 0, 66, 64
1, 355748, Note_off_c, 0, 75, 64
1, 355788, Note_off_c, 0, 73, 64
1, 355788, Note_off_c, 0, 64, 64
1, 355816, Note_on_c, 0, 75, 65
1, 355824, Note_on_c, 0, 66, 47
1, 355888, Note_on_c, 0, 73, 47
1, 355896, Note_on_c, 0, 64, 66
1, 355904, Note_off_c, 0, 66, 64
1, 355912, Note_off_c, 0, 75, 64
1, 355944, Note_off_c, 0, 64, 64
1, 355956, Note_on_c, 0, 66, 62
1, 355960, Note_off_c, 0, 73, 64
1, 355960, Note_on_c, 0, 75, 65
1, 356012, Note_on_c, 0, 64, 65
1, 356016, Note_on_c, 0, 73, 58
1, 356024, Note_off_c, 0, 66, 64
1, 356032, Note_off_c, 0, 75, 64
1, 356064, Note_on_c, 0, 75, 60
1, 356068, Note_off_c, 0, 64, 64
1, 356076, Note_off_c, 0, 73, 64
1, 356076, Note_on_c, 0, 66, 61
1, 356112, Note_off_c, 0, 66, 64
1, 356120, Note_on_c, 0, 73, 56
1, 356120, Note_on_c, 0, 64, 61
1, 356140, Note_off_c, 0, 75, 64
1, 356168, Note_off_c, 0, 64, 64
1, 356172, Note_on_c, 0, 75, 61
1, 356176, Note_on_c, 0, 66, 65
1, 356180, Note_off_c, 0, 73, 64
1, 356220, Note_off_c, 0, 66, 64
1, 356220, Note_on_c, 0, 73, 59
1, 356228, Note_on_c, 0, 64, 57
1, 356248, Note_off_c, 0, 75, 64
1, 356272, Note_off_c, 0, 64, 64
1, 356276, Note_on_c, 0, 75, 61
1, 356284, Note_on_c, 0, 66, 63
1, 356292, Note_off_c, 0, 73, 64
1, 356320, Note_off_c, 0, 66, 64
1, 356324, Note_on_c, 0, 73, 60
1, 356328, Note_on_c, 0, 64, 61
1, 356344, Note_off_c, 0, 75, 64
1, 356372, Note_off_c, 0, 64, 64
1, 356384, Note_on_c, 0, 75, 62
1, 356384, Note_on_c, 0, 66, 61
1, 356392, Note_off_c, 0, 73, 64
1, 356428, Note_on_c, 0, 73, 57
1, 356432, Note_on_c, 0, 64, 61
1, 356440, Note_off_c, 0, 66, 64
1, 356452, Note_off_c, 0, 75, 64
1, 356472, Note_off_c, 0, 64, 64
1, 356492, Note_on_c, 0, 75, 66
1, 356496, Note_off_c, 0, 73, 64
1, 356496, Note_on_c, 0, 66, 62
1, 356520, Note_on_c, 0, 73, 53
1, 356528, Note_on_c, 0, 64, 62
1, 356536, Note_off_c, 0, 66, 64
1, 356576, Note_off_c, 0, 64, 64
1, 356592, Note_off_c, 0, 73, 64
1, 356592, Note_on_c, 0, 66, 52
1, 356632, Note_off_c, 0, 66, 64
1, 356632, Note_on_c, 0, 73, 53
1, 356640, Note_on_c, 0, 64, 56
1, 356652, Note_off_c, 0, 75, 64
1, 356680, Note_off_c, 0, 64, 64
1, 356688, Note_on_c, 0, 75, 63
1, 356696, Note_on_c, 0, 66, 60
1, 356700, Note_off_c, 0, 73, 64
1, 356728, Note_on_c, 0, 73, 49
1, 356736, Note_on_c, 0, 64, 63
1, 356740, Note_off_c, 0, 66, 64
1, 356756, Note_off_c, 0, 75, 64
1, 356784, Note_off_c, 0, 64, 64
1, 356792, Note_on_c, 0, 75, 60
1, 356796, Note_off_c, 0, 73, 64
1, 356800, Note_on_c, 0, 66, 56
1, 356840, Note_on_c, 0, 64, 69
1, 356840, Note_on_c, 0, 73, 54
1, 356864, Note_off_c, 0, 66, 64
1, 356872, Note_off_c, 0, 64, 64
1, 356884, Note_off_c, 0, 73, 64
1, 356896, Note_on_c, 0, 66, 56
1, 356916, Note_on_c, 0, 73, 66
1, 356920, Note_on_c, 0, 64, 74
1, 356964, Note_off_c, 0, 66, 64
1, 356976, Note_off_c, 0, 75, 64
1, 357008, Note_on_c, 0, 71, 25
1, 357016, Note_on_c, 0, 75, 71
1, 357020, Note_off_c, 0, 64, 64
1, 357024, Note_off_c, 0, 73, 64
1, 357024, Note_on_c, 0, 66, 66
1, 357184, Note_off_c, 0, 66, 64
1, 357192, Note_on_c, 0, 73, 58
1, 357200, Note_on_c, 0, 64, 71
1, 357200, Note_on_c, 0, 70, 61
1, 357216, Note_off_c, 0, 71, 64
1, 357220, Note_off_c, 0, 75, 64
1, 357296, Note_on_c, 0, 75, 42
1, 357312, Note_on_c, 0, 71, 47
1, 357312, Note_on_c, 0, 66, 59
1, 357320, Note_off_c, 0, 64, 64
1, 357324, Note_off_c, 0, 73, 64
1, 357328, Note_off_c, 0, 70, 64
1, 357428, Note_on_c, 0, 70, 58
1, 357432, Note_on_c, 0, 64, 60
1, 357440, Note_on_c, 0, 73, 60
1, 357448, Note_off_c, 0, 71, 64
1, 357448, Note_off_c, 0, 66, 64
1, 357456, Note_off_c, 0, 75, 64
1, 357548, Note_on_c, 0, 75, 56
1, 357552, Note_on_c, 0, 66, 64
1, 357556, Note_on_c, 0, 71, 60
1, 357568, Note_off_c, 0, 70, 64
1, 357568, Note_off_c, 0, 73, 64
1, 357572, Note_off_c, 0, 64, 64
1, 357664, Note_on_c, 0, 73, 60
1, 357664, Note_on_c, 0, 70, 61
1, 357664, Note_on_c, 0, 64, 62
1, 357672, Note_off_c, 0, 66, 64
1, 357680, Note_off_c, 0, 71, 64
1, 357688, Note_off_c, 0, 75, 64
1, 357764, Note_on_c, 0, 75, 62
1, 357772, Note_on_c, 0, 66, 66
1, 357772, Note_on_c, 0, 71, 62
1, 357776, Note_off_c, 0, 73, 64
1, 357784, Note_off_c, 0, 70, 64
1, 357784, Note_off_c, 0, 64, 64
1, 357864, Note_on_c, 0, 64, 59
1, 357868, Note_on_c, 0, 70, 57
1, 357872, Note_on_c, 0, 73, 62
1, 357880, Note_off_c, 0, 66, 64
1, 357884, Note_off_c, 0, 71, 64
1, 357888, Note_off_c, 0, 75, 64
1, 357956, Note_on_c, 0, 66, 62
1, 357960, Note_off_c, 0, 64, 64
1, 357960, Note_on_c, 0, 75, 59
1, 357968, Note_off_c, 0, 70, 64
1, 357968, Note_off_c, 0, 73, 64
1, 357968, Note_on_c, 0, 71, 56
1, 358028, Note_on_c, 0, 64, 56
1, 358032, Note_on_c, 0, 70, 56
1, 358040, Note_on_c, 0, 73, 48
1, 358044, Note_off_c, 0, 66, 64
1, 358048, Note_off_c, 0, 75, 64
1, 358052, Note_off_c, 0, 71, 64
1, 358088, Note_off_c, 0, 64, 64
1, 358092, Note_off_c, 0, 73, 64
1, 358096, Note_off_c, 0, 70, 64
1, 358100, Note_on_c, 0, 75, 62
1, 358104, Note_on_c, 0, 66, 60
1, 358108, Note_on_c, 0, 71, 56
1, 358144, Note_on_c, 0, 64, 57
1, 358148, Note_on_c, 0, 73, 48
1, 358148, Note_on_c, 0, 70, 55
1, 358156, Note_off_c, 0, 66, 64
1, 358164, Note_off_c, 0, 75, 64
1, 358168, Note_off_c, 0, 71, 64
1, 358200, Note_off_c, 0, 64, 64
1, 358200, Note_off_c, 0, 73, 64
1, 358200, Note_off_c, 0, 70, 64
1, 358208, Note_on_c, 0, 75, 58
1, 358212, Note_on_c, 0, 66, 56
1, 358220, Note_on_c, 0, 71, 56
1, 358256, Note_on_c, 0, 64, 58
1, 358260, Note_on_c, 0, 70, 55
1, 358264, Note_off_c, 0, 66, 64
1, 358264, Note_on_c, 0, 73, 45
1, 358272, Note_off_c, 0, 71, 64
1, 358276, Note_off_c, 0, 75, 64
1, 358308, Note_off_c, 0, 64, 64
1, 358312, Note_off_c, 0, 70, 64
1, 358312, Note_off_c, 0, 73, 64
1, 358320, Note_on_c, 0, 75, 57
1, 358324, Note_on_c, 0, 66, 47
1, 358328, Note_on_c, 0, 71, 57
1, 358376, Note_on_c, 0, 73, 52
1, 358380, Note_on_c, 0, 64, 56
1, 358384, Note_on_c, 0, 70, 55
1, 358388, Note_off_c, 0, 66, 64
1, 358396, Note_off_c, 0, 75, 64
1, 358396, Note_off_c, 0, 71, 64
1, 358424, Note_off_c, 0, 64, 64
1, 358428, Note_off_c, 0, 70, 64
1, 358432, Note_on_c, 0, 66, 62
1, 358440, Note_off_c, 0, 73, 64
1, 358440, Note_on_c, 0, 75, 61
1, 358444, Note_on_c, 0, 71, 59
1, 358480, Note_on_c, 0, 64, 57
1, 358488, Note_on_c, 0, 73, 35
1, 358488, Note_on_c, 0, 70, 51
1, 358492, Note_off_c, 0, 66, 64
1, 358504, Note_off_c, 0, 71, 64
1, 358508, Note_off_c, 0, 75, 64
1, 358528, Note_off_c, 0, 64, 64
1, 358528, Note_off_c, 0, 73, 64
1, 358528, Note_off_c, 0, 70, 64
1, 358536, Note_on_c, 0, 75, 50
1, 358536, Note_on_c, 0, 66, 52
1, 358544, Note_on_c, 0, 71, 57
1, 358580, Note_on_c, 0, 73, 59
1, 358584, Note_on_c, 0, 64, 65
1, 358588, Note_off_c, 0, 66, 64
1, 358588, Note_on_c, 0, 70, 61
1, 358596, Note_off_c, 0, 71, 64
1, 358600, Note_off_c, 0, 75, 64
1, 358632, Note_off_c, 0, 70, 64
1, 358636, Note_off_c, 0, 64, 64
1, 358636, Note_on_c, 0, 66, 60
1, 358640, Note_on_c, 0, 75, 59
1, 358648, Note_off_c, 0, 73, 64
1, 358656, Note_on_c, 0, 71, 50
1, 358688, Note_on_c, 0, 64, 60
1, 358692, Note_off_c, 0, 66, 64
1, 358692, Note_on_c, 0, 73, 37
1, 358696, Note_on_c, 0, 70, 60
1, 358704, Note_off_c, 0, 71, 64
1, 358708, Note_off_c, 0, 75, 64
1, 358736, Note_off_c, 0, 64, 64
1, 358744, Note_off_c, 0, 70, 64
1, 358744, Note_on_c, 0, 66, 60
1, 358748, Note_on_c, 0, 75, 60
1, 358752, Note_off_c, 0, 73, 64
1, 358756, Note_on_c, 0, 71, 58
1, 358788, Note_off_c, 0, 66, 64
1, 358788, Note_on_c, 0, 64, 65
1, 358800, Note_on_c, 0, 70, 56
1, 358804, Note_on_c, 0, 73, 31
1, 358808, Note_off_c, 0, 71, 64
1, 358812, Note_off_c, 0, 75, 64
1, 358836, Note_off_c, 0, 64, 64
1, 358840, Note_off_c, 0, 70, 64
1, 358844, Note_off_c, 0, 73, 64
1, 358848, Note_on_c, 0, 75, 57
1, 358848, Note_on_c, 0, 66, 57
1, 358860, Note_on_c, 0, 71, 56
1, 358892, Note_on_c, 0, 64, 64
1, 358892, Note_on_c, 0, 70, 55
1, 358900, Note_off_c, 0, 66, 64
1, 358904, Note_on_c, 0, 73, 34
1, 358908, Note_off_c, 0, 71, 64
1, 358912, Note_off_c, 0, 75, 64
1, 358936, Note_off_c, 0, 70, 64
1, 358940, Note_off_c, 0, 64, 64
1, 358944, Note_off_c, 0, 73, 64
1, 358944, Note_on_c, 0, 66, 58
1, 358952, Note_on_c, 0, 75, 60
1, 358964, Note_on_c, 0, 71, 52
1, 358992, Note_on_c, 0, 64, 60
1, 359000, Note_on_c, 0, 70, 58
1, 359000, Note_on_c, 0, 73, 33
1, 359008, Note_off_c, 0, 71, 64
1, 359012, Note_off_c, 0, 66, 64
1, 359016, Note_off_c, 0, 75, 64
1, 359028, Note_off_c, 0, 70, 64
1, 359032, Note_off_c, 0, 64, 64
1, 359036, Note_off_c, 0, 73, 64
1, 359052, Note_on_c, 0, 75, 53
1, 359052, Note_on_c, 0, 66, 41
1, 359072, Note_on_c, 0, 71, 49
1, 359088, Note_on_c, 0, 64, 45
1, 359096, Note_on_c, 0, 73, 27
1, 359116, Note_off_c, 0, 66, 64
1, 359120, Note_off_c, 0, 71, 64
1, 359128, Note_off_c, 0, 75, 64
1, 359152, Note_on_c, 0, 70, 39
1, 359212, Note_off_c, 0, 73, 64
1, 359216, Note_on_c, 0, 75, 66
1, 359216, Note_on_c, 0, 66, 59
1, 359220, Note_off_c, 0, 64, 64
1, 359224, Note_on_c, 0, 71, 62
1, 359228, Note_off_c, 0, 70, 64
1, 359344, Note_on_c, 0, 70, 78
1, 359352, Note_on_c, 0, 73, 38
1, 359352, Note_on_c, 0, 64, 71
1, 359352, Note_on_c, 0, 61, 73
1, 359364, Note_off_c, 0, 66, 64
1, 359364, Note_off_c, 0, 71, 64
1, 359368, Note_off_c, 0, 75, 64
1, 359440, Note_off_c, 0, 70, 64
1, 359456, Note_on_c, 0, 75, 73
1, 359464, Note_off_c, 0, 73, 64
1, 359464, Note_on_c, 0, 71, 67
1, 359464, Note_on_c, 0, 66, 78
1, 359468, Note_off_c, 0, 64, 64
1, 359476, Note_off_c, 0, 61, 64
1, 359532, Note_off_c, 0, 66, 64
1, 359544, Note_off_c, 0, 71, 64
1, 359548, Note_off_c, 0, 75, 64
1, 359552, Note_on_c, 0, 70, 62
1, 359556, Note_on_c, 0, 61, 63
1, 359556, Note_on_c, 0, 73, 67
1, 359556, Note_on_c, 0, 64, 68
1, 359624, Note_on_c, 0, 66, 67
1, 359624, Note_on_c, 0, 71, 52
1, 359628, Note_off_c, 0, 73, 64
1, 359628, Note_off_c, 0, 64, 64
1, 359628, Note_on_c, 0, 75, 65
1, 359632, Note_off_c, 0, 70, 64
1, 359640, Note_off_c, 0, 61, 64
1, 359696, Note_off_c, 0, 66, 64
1, 359700, Note_off_c, 0, 71, 64
1, 359700, Note_on_c, 0, 70, 61
1, 359704, Note_on_c, 0, 73, 65
1, 359712, Note_on_c, 0, 64, 63
1, 359712, Note_on_c, 0, 61, 53
1, 359720, Note_off_c, 0, 75, 64
1, 359760, Note_off_c, 0, 64, 64
1, 359764, Note_off_c, 0, 61, 64
1, 359768, Note_on_c, 0, 71, 30
1, 359768, Note_on_c, 0, 75, 69
1, 359768, Note_on_c, 0, 66, 70
1, 359776, Note_off_c, 0, 70, 64
1, 359776, Note_off_c, 0, 73, 64
1, 359808, Note_off_c, 0, 71, 64
1, 359824, Note_on_c, 0, 61, 62
1, 359828, Note_on_c, 0, 70, 65
1, 359828, Note_on_c, 0, 64, 66
1, 359832, Note_on_c, 0, 73, 52
1, 359836, Note_off_c, 0, 66, 64
1, 359844, Note_off_c, 0, 75, 64
1, 359888, Note_off_c, 0, 61, 64
1, 359888, Note_off_c, 0, 64, 64
1, 359896, Note_off_c, 0, 70, 64
1, 359896, Note_off_c, 0, 73, 64
1, 359896, Note_on_c, 0, 71, 25
1, 359900, Note_on_c, 0, 75, 68
1, 359900, Note_on_c, 0, 66, 68
1, 359952, Note_off_c, 0, 71, 64
1, 359960, Note_on_c, 0, 70, 66
1, 359960, Note_on_c, 0, 61, 64
1, 359968, Note_off_c, 0, 66, 64
1, 359968, Note_on_c, 0, 73, 63
1, 359972, Note_on_c, 0, 64, 65
1, 359984, Note_off_c, 0, 75, 64
1, 360012, Note_off_c, 0, 64, 64
1, 360020, Note_off_c, 0, 61, 64
1, 360024, Note_off_c, 0, 70, 64
1, 360024, Note_off_c, 0, 73, 64
1, 360032, Note_on_c, 0, 75, 68
1, 360036, Note_on_c, 0, 71, 30
1, 360036, Note_on_c, 0, 66, 68
1, 360040, Note_on_c, 0, 66, 70
1, 360080, Note_on_c, 0, 61, 62
1, 360084, Note_off_c, 0, 66, 64
1, 360088, Note_off_c, 0, 71, 64
1, 360088, Note_on_c, 0, 70, 52
1, 360088, Note_on_c, 0, 64, 64
1, 360096, Note_on_c, 0, 73, 47
1, 360108, Note_off_c, 0, 66, 64
1, 360112, Note_off_c, 0, 75, 64
1, 360124, Note_off_c, 0, 64, 64
1, 360132, Note_off_c, 0, 61, 64
1, 360132, Note_off_c, 0, 70, 64
1, 360132, Note_off_c, 0, 73, 64
1, 360144, Note_on_c, 0, 75, 68
1, 360144, Note_on_c, 0, 71, 30
1, 360144, Note_on_c, 0, 66, 68
1, 360188, Note_on_c, 0, 61, 54
1, 360192, Note_off_c, 0, 66, 64
1, 360192, Note_on_c, 0, 70, 51
1, 360192, Note_on_c, 0, 64, 64
1, 360192, Note_on_c, 0, 73, 39
1, 360196, Note_off_c, 0, 75, 64
1, 360196, Note_off_c, 0, 71, 64
1, 360236, Note_off_c, 0, 64, 64
1, 360240, Note_off_c, 0, 70, 64
1, 360240, Note_off_c, 0, 73, 64
1, 360244, Note_off_c, 0, 61, 64
1, 360248, Note_on_c, 0, 75, 70
1, 360260, Note_on_c, 0, 66, 75
1, 360272, Note_on_c, 0, 71, 52
1, 360304, Note_on_c, 0, 61, 47
1, 360308, Note_on_c, 0, 70, 50
1, 360308, Note_on_c, 0, 64, 71
1, 360312, Note_off_c, 0, 75, 64
1, 360316, Note_on_c, 0, 73, 48
1, 360320, Note_off_c, 0, 71, 64
1, 360328, Note_off_c, 0, 66, 64
1, 360352, Note_off_c, 0, 64, 64
1, 360356, Note_off_c, 0, 61, 64
1, 360360, Note_off_c, 0, 70, 64
1, 360360, Note_on_c, 0, 66, 68
1, 360364, Note_off_c, 0, 73, 64
1, 360368, Note_on_c, 0, 75, 30
1, 360368, Note_on_c, 0, 71, 65
1, 360408, Note_on_c, 0, 61, 64
1, 360408, Note_on_c, 0, 64, 67
1, 360416, Note_off_c, 0, 66, 64
1, 360416, Note_on_c, 0, 73, 55
1, 360416, Note_on_c, 0, 70, 55
1, 360420, Note_off_c, 0, 75, 64
1, 360424, Note_off_c, 0, 71, 64
1, 360448, Note_off_c, 0, 61, 64
1, 360448, Note_off_c, 0, 64, 64
1, 360452, Note_off_c, 0, 70, 64
1, 360452, Note_on_c, 0, 75, 68
1, 360456, Note_on_c, 0, 66, 68
1, 360460, Note_off_c, 0, 73, 64
1, 360460, Note_on_c, 0, 71, 70
1, 360472, Note_on_c, 0, 71, 30
1, 360500, Note_on_c, 0, 61, 64
1, 360504, Note_off_c, 0, 75, 64
1, 360504, Note_off_c, 0, 66, 64
1, 360504, Note_on_c, 0, 64, 70
1, 360512, Note_on_c, 0, 73, 59
1, 360512, Note_on_c, 0, 70, 57
1, 360524, Note_off_c, 0, 71, 64
1, 360524, Note_off_c, 0, 71, 64
1, 360540, Note_on_c, 0, 66, 70
1, 360544, Note_off_c, 0, 61, 64
1, 360548, Note_off_c, 0, 64, 64
1, 360548, Note_on_c, 0, 75, 70
1, 360548, Note_on_c, 0, 71, 68
1, 360552, Note_off_c, 0, 70, 64
1, 360560, Note_off_c, 0, 73, 64
1, 360596, Note_off_c, 0, 66, 64
1, 360596, Note_on_c, 0, 61, 72
1, 360600, Note_off_c, 0, 75, 64
1, 360600, Note_off_c, 0, 71, 64
1, 360604, Note_on_c, 0, 73, 53
1, 360604, Note_on_c, 0, 70, 67
1, 360608, Note_on_c, 0, 64, 66
1, 360632, Note_on_c, 0, 75, 67
1, 360640, Note_off_c, 0, 64, 64
1, 360640, Note_on_c, 0, 66, 76
1, 360644, Note_off_c, 0, 61, 64
1, 360652, Note_off_c, 0, 70, 64
1, 360652, Note_on_c, 0, 71, 57
1, 360656, Note_off_c, 0, 73, 64
1, 360668, Control_c, 0, 64, 0
1, 360688, Note_on_c, 0, 61, 78
1, 360696, Note_off_c, 0, 71, 64
1, 360700, Note_off_c, 0, 66, 64
1, 360700, Note_on_c, 0, 73, 67
1, 360700, Note_on_c, 0, 70, 73
1, 360700, Note_on_c, 0, 64, 73
1, 360708, Note_off_c, 0, 75, 64
1, 360720, Control_c, 0, 64, 127
1, 360732, Note_on_c, 0, 75, 76
1, 360736, Note_on_c, 0, 66, 76
1, 360740, Note_off_c, 0, 61, 64
1, 360744, Note_off_c, 0, 70, 64
1, 360744, Note_off_c, 0, 64, 64
1, 360752, Note_off_c, 0, 73, 64
1, 360752, Note_on_c, 0, 71, 70
1, 360788, Note_off_c, 0, 66, 64
1, 360788, Note_off_c, 0, 71, 64
1, 360792, Note_on_c, 0, 61, 76
1, 360796, Note_on_c, 0, 70, 71
1, 360796, Note_on_c, 0, 64, 76
1, 360800, Note_on_c, 0, 73, 64
1, 360804, Note_off_c, 0, 75, 64
1, 360824, Note_on_c, 0, 75, 66
1, 360832, Note_on_c, 0, 66, 72
1, 360832, Note_on_c, 0, 71, 36
1, 360836, Note_off_c, 0, 61, 64
1, 360836, Note_off_c, 0, 64, 64
1, 360840, Note_off_c, 0, 70, 64
1, 360840, Note_off_c, 0, 73, 64
1, 360876, Note_off_c, 0, 66, 64
1, 360884, Note_off_c, 0, 71, 64
1, 360888, Note_on_c, 0, 73, 56
1, 360888, Note_on_c, 0, 64, 80
1, 360888, Note_on_c, 0, 61, 77
1, 360892, Note_on_c, 0, 70, 64
1, 360904, Note_off_c, 0, 75, 64
1, 360920, Note_off_c, 0, 73, 64
1, 360924, Note_off_c, 0, 64, 64
1, 360924, Note_on_c, 0, 75, 67
1, 360928, Note_on_c, 0, 66, 68
1, 360932, Note_off_c, 0, 61, 64
1, 360932, Note_off_c, 0, 70, 64
1, 360932, Note_on_c, 0, 71, 30
1, 360972, Note_off_c, 0, 66, 64
1, 360980, Note_off_c, 0, 75, 64
1, 360984, Note_off_c, 0, 71, 64
1, 360988, Note_on_c, 0, 70, 67
1, 360988, Note_on_c, 0, 61, 76
1, 360992, Note_on_c, 0, 64, 78
1, 360992, Note_on_c, 0, 73, 48
1, 361016, Note_on_c, 0, 75, 68
1, 361024, Note_off_c, 0, 64, 64
1, 361028, Note_off_c, 0, 70, 64
1, 361028, Note_off_c, 0, 73, 64
1, 361028, Note_on_c, 0, 71, 72
1, 361028, Note_on_c, 0, 66, 72
1, 361032, Note_off_c, 0, 61, 64
1, 361068, Note_off_c, 0, 75, 64
1, 361072, Note_off_c, 0, 71, 64
1, 361072, Note_off_c, 0, 66, 64
1, 361080, Note_on_c, 0, 73, 68
1, 361080, Note_on_c, 0, 70, 43
1, 361080, Note_on_c, 0, 64, 72
1, 361080, Note_on_c, 0, 61, 28
1, 361116, Note_off_c, 0, 64, 64
1, 361116, Note_off_c, 0, 61, 64
1, 361124, Note_off_c, 0, 73, 64
1, 361124, Note_off_c, 0, 70, 64
1, 361156, Note_on_c, 0, 72, 62
1, 361156, Note_on_c, 0, 69, 75
1, 361156, Note_on_c, 0, 63, 27
1, 361228, Note_off_c, 0, 72, 64
1, 361228, Note_off_c, 0, 69, 64
1, 361228, Note_off_c, 0, 63, 64
1, 361228, Note_on_c, 0, 64, 85
1, 361232, Note_on_c, 0, 73, 90
1, 361232, Note_on_c, 0, 70, 71
1, 361316, Note_off_c, 0, 70, 64
1, 361328, Note_off_c, 0, 64, 64
1, 361332, Note_off_c, 0, 73, 64
1, 361332, Note_on_c, 0, 66, 90
1, 361336, Note_on_c, 0, 70, 87
1, 361420, Note_off_c, 0, 70, 64
1, 361432, Note_off_c, 0, 66, 64
1, 361448, Note_on_c, 0, 64, 73
1, 361452, Note_on_c, 0, 73, 86
1, 361452, Note_on_c, 0, 70, 83
1, 361536, Note_off_c, 0, 70, 64
1, 361544, Note_on_c, 0, 76, 89
1, 361544, Note_on_c, 0, 70, 87
1, 361544, Note_on_c, 0, 61, 86
1, 361548, Note_off_c, 0, 64, 64
1, 361552, Note_off_c, 0, 73, 64
1, 361632, Note_off_c, 0, 70, 64
1, 361632, Note_off_c, 0, 61, 64
1, 361640, Note_off_c, 0, 76, 64
1, 361640, Note_on_c, 0, 79, 89
1, 361640, Note_on_c, 0, 70, 89
1, 361640, Note_on_c, 0, 54, 89
1, 361648, Note_on_c, 0, 61, 90
1, 361824, Note_off_c, 0, 54, 64
1, 361844, Note_off_c, 0, 79, 64
1, 361848, Note_off_c, 0, 70, 64
1, 361864, Note_off_c, 0, 61, 64
1, 362288, Control_c, 0, 64, 0
1, 362472, Control_c, 0, 64, 127
1, 362640, Note_on_c, 0, 64, 93
1, 362640, Note_on_c, 0, 58, 78
1, 362640, Note_on_c, 0, 54, 84
1, 362644, Note_on_c, 0, 42, 85
1, 362736, Note_off_c, 0, 64, 64
1, 362736, Note_off_c, 0, 58, 64
1, 362736, Note_off_c, 0, 54, 64
1, 362840, Note_on_c, 0, 64, 93
1, 362844, Note_on_c, 0, 59, 93
1, 362848, Note_on_c, 0, 54, 93
1, 362864, Note_on_c, 0, 35, 83
1, 362880, Note_off_c, 0, 42, 64
1, 362888, Control_c, 0, 64, 0
1, 362972, Control_c, 0, 64, 127
1, 363352, Note_on_c, 0, 42, 75
1, 363420, Note_off_c, 0, 35, 64
1, 363692, Note_off_c, 0, 64, 64
1, 363716, Note_on_c, 0, 63, 79
1, 363720, Note_on_c, 0, 47, 63
1, 363732, Control_c, 0, 64, 0
1, 363744, Note_off_c, 0, 42, 64
1, 363804, Control_c, 0, 64, 127
1, 364096, Note_on_c, 0, 49, 50
1, 364176, Note_off_c, 0, 54, 64
1, 364256, Note_off_c, 0, 47, 64
1, 364412, Note_on_c, 0, 51, 55
1, 364420, Note_off_c, 0, 49, 64
1, 364736, Note_off_c, 0, 51, 64
1, 364736, Note_on_c, 0, 56, 54
1, 365000, Control_c, 0, 64, 0
1, 365024, Note_on_c, 0, 54, 58
1, 365048, Note_off_c, 0, 56, 64
1, 365104, Control_c, 0, 64, 127
1, 365340, Note_on_c, 0, 51, 56
1, 365400, Note_off_c, 0, 54, 64
1, 365620, Note_off_c, 0, 51, 64
1, 365624, Note_on_c, 0, 49, 47
1, 365920, Note_off_c, 0, 49, 64
1, 365936, Note_on_c, 0, 51, 35
1, 366228, Note_on_c, 0, 49, 54
1, 366272, Note_off_c, 0, 51, 64
1, 366584, Note_on_c, 0, 47, 54
1, 366588, Note_off_c, 0, 49, 64
1, 366868, Note_off_c, 0, 59, 64
1, 366876, Note_off_c, 0, 63, 64
1, 366904, Note_on_c, 0, 35, 62
1, 366912, Note_on_c, 0, 64, 58
1, 366916, Note_on_c, 0, 54, 52
1, 366924, Note_on_c, 0, 59, 58
1, 366932, Control_c, 0, 64, 0
1, 366944, Note_off_c, 0, 47, 64
1, 367044, Control_c, 0, 64, 127
1, 367268, Note_off_c, 0, 35, 64
1, 367292, Note_on_c, 0, 42, 62
1, 367600, Note_on_c, 0, 49, 58
1, 367648, Note_off_c, 0, 42, 64
1, 367908, Note_on_c, 0, 51, 61
1, 367940, Note_off_c, 0, 54, 64
1, 367964, Note_off_c, 0, 49, 64
1, 368260, Note_on_c, 0, 58, 49
1, 368272, Control_c, 0, 64, 0
1, 368280, Note_off_c, 0, 59, 64
1, 368280, Note_on_c, 0, 52, 61
1, 368304, Note_off_c, 0, 51, 64
1, 368348, Control_c, 0, 64, 127
1, 368648, Note_on_c, 0, 56, 58
1, 368744, Note_off_c, 0, 52, 64
1, 368748, Note_off_c, 0, 58, 64
1, 368784, Note_off_c, 0, 64, 64
1, 368884, Note_on_c, 0, 58, 43
1, 369020, Note_off_c, 0, 58, 64
1, 369028, Note_off_c, 0, 56, 64
1, 369044, Note_on_c, 0, 63, 49
1, 369056, Note_on_c, 0, 54, 36
1, 369056, Note_on_c, 0, 59, 46
1, 369080, Control_c, 0, 64, 0
1, 369164, Control_c, 0, 64, 127
1, 369420, Note_on_c, 0, 51, 43
1, 369720, Note_on_c, 0, 49, 51
1, 369768, Note_off_c, 0, 51, 64
1, 370012, Note_off_c, 0, 49, 64
1, 370024, Note_on_c, 0, 51, 55
1, 370304, Note_on_c, 0, 49, 56
1, 370432, Note_off_c, 0, 51, 64
1, 370556, Note_off_c, 0, 63, 64
1, 370604, Note_on_c, 0, 47, 59
1, 370624, Note_off_c, 0, 59, 64
1, 370628, Note_off_c, 0, 49, 64
1, 370748, Note_off_c, 0, 54, 64
1, 370988, Note_off_c, 0, 47, 64
1, 371028, Control_c, 0, 64, 0
1, 371040, Note_on_c, 0, 64, 55
1, 371040, Note_on_c, 0, 54, 46
1, 371060, Note_on_c, 0, 59, 53
1, 371068, Note_on_c, 0, 35, 42
1, 371112, Control_c, 0, 64, 127
1, 371428, Note_on_c, 0, 42, 56
1, 371460, Note_off_c, 0, 35, 64
1, 371752, Note_on_c, 0, 49, 49
1, 371848, Note_off_c, 0, 42, 64
1, 372032, Note_on_c, 0, 51, 55
1, 372048, Note_off_c, 0, 49, 64
1, 372312, Note_on_c, 0, 52, 52
1, 372320, Note_off_c, 0, 51, 64
1, 372332, Note_off_c, 0, 54, 64
1, 372600, Note_on_c, 0, 56, 42
1, 372612, Note_off_c, 0, 52, 64
1, 372744, Note_off_c, 0, 59, 64
1, 372960, Note_on_c, 0, 54, 46
1, 372976, Note_off_c, 0, 56, 64
1, 372976, Note_on_c, 0, 58, 46
1, 372980, Control_c, 0, 64, 0
1, 373076, Control_c, 0, 64, 127
1, 373280, Note_on_c, 0, 51, 52
1, 373568, Note_on_c, 0, 49, 45
1, 373596, Note_off_c, 0, 51, 64
1, 373848, Note_on_c, 0, 51, 49
1, 373884, Note_off_c, 0, 49, 64
1, 374136, Note_off_c, 0, 64, 64
1, 374160, Note_on_c, 0, 49, 45
1, 374212, Note_off_c, 0, 51, 64
1, 374608, Note_on_c, 0, 47, 31
1, 374612, Note_off_c, 0, 49, 64
1, 374620, Note_on_c, 0, 63, 50
1, 374804, Note_off_c, 0, 58, 64
1, 374840, Note_off_c, 0, 54, 64
1, 374908, Note_on_c, 0, 58, 35
1, 375092, Note_off_c, 0, 63, 64
1, 375152, Note_on_c, 0, 54, 39
1, 375160, Note_on_c, 0, 63, 46
1, 375168, Note_on_c, 0, 59, 43
1, 375168, Note_on_c, 0, 51, 48
1, 375188, Control_c, 0, 64, 0
1, 375208, Note_off_c, 0, 58, 64
1, 375216, Note_off_c, 0, 47, 64
1, 375300, Control_c, 0, 64, 127
1, 375564, Note_on_c, 0, 47, 51
1, 375600, Note_off_c, 0, 51, 64
1, 375816, Note_on_c, 0, 44, 44
1, 375824, Note_off_c, 0, 47, 64
1, 376096, Note_on_c, 0, 47, 43
1, 376100, Note_off_c, 0, 44, 64
1, 376364, Note_on_c, 0, 44, 47
1, 376488, Note_off_c, 0, 47, 64
1, 376628, Note_on_c, 0, 42, 45
1, 376648, Control_c, 0, 64, 0
1, 376664, Note_off_c, 0, 44, 64
1, 376760, Control_c, 0, 64, 127
1, 376912, Note_on_c, 0, 47, 39
1, 376936, Note_off_c, 0, 42, 64
1, 377184, Note_on_c, 0, 44, 38
1, 377272, Note_off_c, 0, 47, 64
1, 377448, Note_on_c, 0, 42, 36
1, 377468, Note_off_c, 0, 44, 64
1, 377748, Note_on_c, 0, 44, 35
1, 377780, Note_off_c, 0, 42, 64
1, 377988, Note_off_c, 0, 59, 64
1, 378080, Note_off_c, 0, 63, 64
1, 378084, Note_on_c, 0, 42, 33
1, 378136, Note_off_c, 0, 44, 64
1, 378192, Note_off_c, 0, 54, 64
1, 378456, Note_on_c, 0, 39, 30
1, 378532, Note_off_c, 0, 42, 64
1, 378944, Note_on_c, 0, 63, 45
1, 378952, Note_on_c, 0, 35, 28
1, 378952, Note_on_c, 0, 71, 47
1, 378960, Note_on_c, 0, 59, 43
1, 378960, Control_c, 0, 64, 0
1, 378972, Note_on_c, 0, 47, 28
1, 378976, Note_off_c, 0, 39, 64
1, 379048, Control_c, 0, 64, 127
1, 379132, Note_on_c, 0, 66, 47
1, 379172, Note_off_c, 0, 71, 64
1, 379304, Note_off_c, 0, 63, 64
1, 379496, Note_off_c, 0, 35, 64
1, 379544, Note_off_c, 0, 47, 64
1, 379824, Note_off_c, 0, 59, 64
1, 379832, Note_off_c, 0, 66, 64
1, 380336, Note_on_c, 0, 66, 36
1, 380348, Note_on_c, 0, 57, 36
1, 380352, Note_on_c, 0, 62, 46
1, 380352, Note_on_c, 0, 38, 30
1, 380360, Note_on_c, 0, 50, 31
1, 380436, Control_c, 0, 64, 0
1, 380588, Control_c, 0, 64, 127
1, 381372, Note_off_c, 0, 38, 64
1, 381460, Note_off_c, 0, 50, 64
1, 381848, Note_on_c, 0, 26, 68
1, 382440, Note_on_c, 0, 38, 45
1, 382844, Note_on_c, 0, 45, 45
1, 383140, Note_off_c, 0, 57, 64
1, 383152, Note_on_c, 0, 50, 45
1, 383156, Note_off_c, 0, 62, 64
1, 383236, Note_off_c, 0, 66, 64
1, 383432, Note_on_c, 0, 57, 37
1, 383684, Note_on_c, 0, 62, 44
1, 383708, Note_off_c, 0, 45, 64
1, 383732, Note_off_c, 0, 50, 64
1, 383772, Note_off_c, 0, 57, 64
1, 383900, Note_on_c, 0, 64, 51
1, 383964, Note_off_c, 0, 62, 64
1, 384120, Note_on_c, 0, 67, 62
1, 384172, Note_off_c, 0, 64, 64
1, 384336, Note_on_c, 0, 66, 56
1, 384364, Note_off_c, 0, 67, 64
1, 384568, Note_on_c, 0, 69, 47
1, 384580, Note_off_c, 0, 66, 64
1, 384764, Note_on_c, 0, 74, 45
1, 384808, Note_off_c, 0, 69, 64
1, 384976, Note_on_c, 0, 76, 44
1, 385028, Note_off_c, 0, 74, 64
1, 385196, Note_off_c, 0, 76, 64
1, 385236, Note_on_c, 0, 79, 40
1, 385432, Note_on_c, 0, 78, 49
1, 385476, Note_off_c, 0, 79, 64
1, 385656, Note_on_c, 0, 81, 39
1, 385696, Note_off_c, 0, 78, 64
1, 385908, Note_on_c, 0, 86, 28
1, 385940, Note_off_c, 0, 81, 64
1, 386120, Note_on_c, 0, 88, 49
1, 386128, Note_off_c, 0, 86, 64
1, 386392, Note_on_c, 0, 91, 35
1, 386464, Note_off_c, 0, 88, 64
1, 386644, Note_on_c, 0, 90, 35
1, 386712, Note_off_c, 0, 91, 64
1, 387264, Note_off_c, 0, 38, 64
1, 387268, Note_off_c, 0, 90, 64
1, 387312, Note_off_c, 0, 26, 64
1, 389504, Control_c, 0, 64, 0
1, 389552, Note_on_c, 0, 61, 78
1, 389560, Note_on_c, 0, 69, 81
1, 389568, Note_on_c, 0, 45, 75
1, 389568, Note_on_c, 0, 33, 68
1, 389616, Control_c, 0, 64, 127
1, 389700, Note_on_c, 0, 64, 76
1, 389744, Note_off_c, 0, 61, 64
1, 389744, Note_off_c, 0, 69, 64
1, 390024, Note_off_c, 0, 64, 64
1, 390036, Note_off_c, 0, 45, 64
1, 390036, Note_off_c, 0, 33, 64
1, 390716, Note_on_c, 0, 64, 81
1, 390716, Note_on_c, 0, 60, 83
1, 390728, Note_on_c, 0, 55, 82
1, 390728, Note_on_c, 0, 48, 79
1, 390736, Note_on_c, 0, 36, 78
1, 390752, Control_c, 0, 64, 0
1, 390884, Control_c, 0, 64, 127
1, 391212, Note_off_c, 0, 60, 64
1, 391224, Note_off_c, 0, 64, 64
1, 391224, Note_off_c, 0, 55, 64
1, 391272, Note_off_c, 0, 48, 64
1, 391296, Note_off_c, 0, 36, 64
1, 392344, Note_on_c, 0, 24, 110
1, 393016, Note_on_c, 0, 36, 75
1, 393648, Note_on_c, 0, 43, 70
1, 393996, Note_on_c, 0, 48, 68
1, 394016, Note_off_c, 0, 43, 64
1, 394288, Note_on_c, 0, 55, 56
1, 394360, Note_off_c, 0, 48, 64
1, 394532, Note_on_c, 0, 60, 56
1, 394672, Note_off_c, 0, 55, 64
1, 394764, Note_on_c, 0, 62, 54
1, 394784, Note_off_c, 0, 60, 64
1, 395004, Note_on_c, 0, 65, 52
1, 395036, Note_off_c, 0, 62, 64
1, 395232, Note_on_c, 0, 64, 51
1, 395248, Note_off_c, 0, 65, 64
1, 395476, Note_on_c, 0, 67, 51
1, 395508, Note_off_c, 0, 64, 64
1, 395676, Note_on_c, 0, 72, 49
1, 395852, Note_off_c, 0, 67, 64
1, 395872, Note_on_c, 0, 74, 48
1, 395956, Note_off_c, 0, 72, 64
1, 396088, Note_on_c, 0, 77, 46
1, 396100, Note_off_c, 0, 74, 64
1, 396328, Note_on_c, 0, 76, 45
1, 396344, Note_off_c, 0, 77, 64
1, 396560, Note_on_c, 0, 79, 44
1, 396572, Note_off_c, 0, 76, 64
1, 396812, Note_on_c, 0, 84, 43
1, 396816, Note_off_c, 0, 79, 64
1, 397072, Note_off_c, 0, 84, 64
1, 397088, Note_on_c, 0, 86, 40
1, 397396, Note_on_c, 0, 89, 39
1, 397420, Note_off_c, 0, 86, 64
1, 397784, Note_on_c, 0, 88, 37
1, 397820, Note_off_c, 0, 89, 64
1, 398720, Note_off_c, 0, 88, 64
1, 399640, Note_off_c, 0, 24, 64
1, 399644, Note_off_c, 0, 36, 64
1, 400716, Note_on_c, 0, 67, 54
1, 400820, Control_c, 0, 64, 0
1, 400944, Control_c, 0, 64, 127
1, 401148, Note_on_c, 0, 58, 20
1, 401160, Note_on_c, 0, 60, 20
1, 401416, Note_off_c, 0, 58, 64
1, 401424, Note_off_c, 0, 60, 64
1, 401464, Note_on_c, 0, 58, 24
1, 401480, Note_on_c, 0, 60, 19
1, 401688, Note_off_c, 0, 58, 64
1, 401704, Note_off_c, 0, 60, 64
1, 401736, Note_on_c, 0, 58, 32
1, 401736, Note_on_c, 0, 60, 25
1, 401960, Note_off_c, 0, 58, 64
1, 401964, Note_off_c, 0, 60, 64
1, 402032, Note_on_c, 0, 60, 22
1, 402032, Note_on_c, 0, 58, 29
1, 402036, Note_on_c, 0, 65, 57
1, 402072, Note_off_c, 0, 67, 64
1, 402224, Note_off_c, 0, 60, 64
1, 402224, Note_off_c, 0, 58, 64
1, 402328, Note_on_c, 0, 67, 56
1, 402332, Note_on_c, 0, 58, 39
1, 402332, Note_on_c, 0, 60, 20
1, 402336, Note_off_c, 0, 65, 64
1, 402560, Note_off_c, 0, 58, 64
1, 402560, Note_off_c, 0, 60, 64
1, 402696, Control_c, 0, 64, 0
1, 402712, Note_on_c, 0, 68, 53
1, 402724, Note_on_c, 0, 41, 51
1, 402744, Note_off_c, 0, 67, 64
1, 402760, Control_c, 0, 64, 127
1, 402928, Note_on_c, 0, 67, 46
1, 402964, Note_off_c, 0, 68, 64
1, 403124, Note_on_c, 0, 65, 44
1, 403132, Note_on_c, 0, 56, 20
1, 403132, Note_on_c, 0, 53, 17
1, 403132, Note_on_c, 0, 48, 26
1, 403136, Note_on_c, 0, 60, 30
1, 403156, Note_off_c, 0, 67, 64
1, 403264, Note_on_c, 0, 73, 44
1, 403360, Note_off_c, 0, 56, 64
1, 403360, Note_off_c, 0, 53, 64
1, 403360, Note_off_c, 0, 48, 64
1, 403364, Note_off_c, 0, 60, 64
1, 403400, Note_off_c, 0, 65, 64
1, 403400, Note_off_c, 0, 73, 64
1, 403400, Note_on_c, 0, 56, 20
1, 403400, Note_on_c, 0, 53, 27
1, 403412, Note_on_c, 0, 48, 33
1, 403416, Note_on_c, 0, 60, 21
1, 403424, Note_on_c, 0, 72, 34
1, 403628, Note_off_c, 0, 56, 64
1, 403628, Note_off_c, 0, 53, 64
1, 403640, Note_off_c, 0, 48, 64
1, 403644, Note_off_c, 0, 60, 64
1, 403656, Note_on_c, 0, 56, 25
1, 403676, Note_on_c, 0, 53, 28
1, 403680, Note_on_c, 0, 60, 25
1, 403696, Note_on_c, 0, 48, 25
1, 403884, Note_off_c, 0, 56, 64
1, 403904, Note_off_c, 0, 53, 64
1, 403908, Note_off_c, 0, 60, 64
1, 403920, Note_off_c, 0, 48, 64
1, 403928, Note_on_c, 0, 56, 25
1, 403932, Note_on_c, 0, 60, 25
1, 403944, Note_off_c, 0, 41, 64
1, 403944, Note_on_c, 0, 53, 28
1, 403944, Note_on_c, 0, 48, 24
1, 404152, Note_off_c, 0, 56, 64
1, 404156, Note_off_c, 0, 60, 64
1, 404168, Note_off_c, 0, 53, 64
1, 404172, Note_off_c, 0, 48, 64
1, 404184, Note_on_c, 0, 56, 20
1, 404184, Note_on_c, 0, 53, 20
1, 404188, Note_on_c, 0, 60, 31
1, 404208, Note_on_c, 0, 48, 20
1, 404448, Note_off_c, 0, 56, 64
1, 404448, Note_off_c, 0, 53, 64
1, 404456, Note_off_c, 0, 60, 64
1, 404472, Note_off_c, 0, 48, 64
1, 404540, Control_c, 0, 64, 0
1, 404552, Note_on_c, 0, 40, 47
1, 404560, Note_on_c, 0, 67, 58
1, 404588, Control_c, 0, 64, 127
1, 404608, Note_off_c, 0, 72, 64
1, 405020, Note_on_c, 0, 55, 27
1, 405020, Note_on_c, 0, 48, 27
1, 405028, Note_on_c, 0, 60, 23
1, 405028, Note_on_c, 0, 58, 28
1, 405668, Note_off_c, 0, 48, 64
1, 405668, Note_off_c, 0, 55, 64
1, 405676, Note_off_c, 0, 58, 64
1, 405676, Note_off_c, 0, 60, 64
1, 405768, Note_on_c, 0, 60, 26
1, 405772, Note_on_c, 0, 48, 28
1, 405784, Note_off_c, 0, 40, 64
1, 405992, Note_off_c, 0, 60, 64
1, 405996, Note_off_c, 0, 48, 64
1, 406048, Note_on_c, 0, 60, 27
1, 406060, Note_on_c, 0, 65, 59
1, 406072, Note_on_c, 0, 48, 27
1, 406112, Note_off_c, 0, 67, 64
1, 406276, Note_off_c, 0, 60, 64
1, 406296, Note_off_c, 0, 48, 64
1, 406296, Note_on_c, 0, 60, 28
1, 406304, Note_on_c, 0, 67, 60
1, 406316, Note_off_c, 0, 65, 64
1, 406316, Note_on_c, 0, 48, 27
1, 406520, Note_off_c, 0, 60, 64
1, 406544, Note_off_c, 0, 48, 64
1, 406580, Control_c, 0, 64, 0
1, 406616, Note_on_c, 0, 68, 56
1, 406632, Note_on_c, 0, 41, 58
1, 406644, Note_off_c, 0, 67, 64
1, 406672, Control_c, 0, 64, 127
1, 406804, Note_off_c, 0, 68, 64
1, 406812, Note_on_c, 0, 65, 44
1, 406992, Note_on_c, 0, 75, 45
1, 407004, Note_on_c, 0, 60, 29
1, 407004, Note_on_c, 0, 48, 27
1, 407008, Note_on_c, 0, 53, 31
1, 407016, Note_on_c, 0, 56, 22
1, 407076, Note_on_c, 0, 73, 53
1, 407096, Note_off_c, 0, 75, 64
1, 407104, Note_off_c, 0, 65, 64
1, 407176, Note_on_c, 0, 72, 60
1, 407204, Note_off_c, 0, 73, 64
1, 407252, Note_off_c, 0, 72, 64
1, 407296, Note_on_c, 0, 72, 60
1, 407524, Note_off_c, 0, 48, 64
1, 407524, Note_off_c, 0, 60, 64
1, 407528, Note_off_c, 0, 53, 64
1, 407536, Note_off_c, 0, 56, 64
1, 407560, Note_on_c, 0, 60, 25
1, 407568, Note_on_c, 0, 48, 26
1, 407576, Note_on_c, 0, 56, 25
1, 407804, Note_off_c, 0, 60, 64
1, 407808, Note_off_c, 0, 48, 64
1, 407816, Note_off_c, 0, 56, 64
1, 407844, Note_on_c, 0, 60, 28
1, 407856, Note_off_c, 0, 41, 64
1, 407856, Note_on_c, 0, 56, 28
1, 407856, Note_on_c, 0, 48, 30
1, 408104, Note_off_c, 0, 60, 64
1, 408112, Note_off_c, 0, 56, 64
1, 408112, Note_off_c, 0, 48, 64
1, 408196, Note_on_c, 0, 60, 31
1, 408204, Note_on_c, 0, 53, 34
1, 408208, Note_on_c, 0, 56, 32
1, 408408, Note_off_c, 0, 72, 64
1, 408464, Note_off_c, 0, 60, 64
1, 408468, Note_off_c, 0, 53, 64
1, 408472, Note_off_c, 0, 56, 64
1, 408632, Control_c, 0, 64, 0
1, 408644, Note_on_c, 0, 44, 60
1, 408652, Note_on_c, 0, 72, 62
1, 408704, Control_c, 0, 64, 127
1, 409048, Note_on_c, 0, 51, 20
1, 409052, Note_on_c, 0, 60, 30
1, 409060, Note_on_c, 0, 56, 19
1, 409256, Note_off_c, 0, 51, 64
1, 409260, Note_off_c, 0, 60, 64
1, 409268, Note_off_c, 0, 56, 64
1, 409280, Note_on_c, 0, 60, 33
1, 409292, Note_on_c, 0, 56, 34
1, 409292, Note_on_c, 0, 51, 33
1, 409504, Note_off_c, 0, 60, 64
1, 409516, Note_off_c, 0, 56, 64
1, 409516, Note_off_c, 0, 51, 64
1, 409532, Note_on_c, 0, 56, 38
1, 409536, Note_on_c, 0, 60, 33
1, 409544, Note_on_c, 0, 70, 57
1, 409544, Note_on_c, 0, 51, 35
1, 409584, Note_off_c, 0, 72, 64
1, 409676, Note_on_c, 0, 68, 51
1, 409692, Note_off_c, 0, 70, 64
1, 409760, Note_off_c, 0, 56, 64
1, 409760, Note_off_c, 0, 60, 64
1, 409768, Note_off_c, 0, 51, 64
1, 409792, Note_off_c, 0, 68, 64
1, 409800, Note_on_c, 0, 67, 54
1, 409800, Note_on_c, 0, 60, 20
1, 409816, Note_on_c, 0, 56, 25
1, 409816, Note_on_c, 0, 51, 34
1, 409900, Note_off_c, 0, 44, 64
1, 409912, Note_on_c, 0, 70, 60
1, 409956, Note_off_c, 0, 67, 64
1, 410012, Note_off_c, 0, 60, 64
1, 410024, Note_off_c, 0, 56, 64
1, 410024, Note_off_c, 0, 51, 64
1, 410048, Note_on_c, 0, 56, 33
1, 410052, Note_on_c, 0, 68, 66
1, 410060, Note_on_c, 0, 60, 41
1, 410060, Note_on_c, 0, 52, 38
1, 410092, Note_off_c, 0, 70, 64
1, 410184, Note_on_c, 0, 67, 59
1, 410208, Note_off_c, 0, 68, 64
1, 410280, Note_off_c, 0, 67, 64
1, 410304, Note_off_c, 0, 56, 64
1, 410316, Note_off_c, 0, 52, 64
1, 410316, Note_off_c, 0, 60, 64
1, 410352, Control_c, 0, 64, 0
1, 410388, Note_on_c, 0, 37, 54
1, 410396, Note_on_c, 0, 67, 62
1, 410428, Control_c, 0, 64, 127
1, 410812, Note_on_c, 0, 61, 25
1, 410812, Note_on_c, 0, 56, 24
1, 410812, Note_on_c, 0, 53, 35
1, 410892, Note_on_c, 0, 65, 54
1, 410900, Note_off_c, 0, 67, 64
1, 410956, Note_off_c, 0, 65, 64
1, 411008, Note_on_c, 0, 65, 57
1, 411072, Note_off_c, 0, 61, 64
1, 411072, Note_off_c, 0, 56, 64
1, 411072, Note_off_c, 0, 53, 64
1, 411184, Note_on_c, 0, 77, 60
1, 411196, Note_on_c, 0, 61, 25
1, 411196, Note_on_c, 0, 56, 24
1, 411196, Note_on_c, 0, 53, 35
1, 411264, Note_off_c, 0, 65, 64
1, 411456, Note_off_c, 0, 61, 64
1, 411456, Note_off_c, 0, 56, 64
1, 411456, Note_off_c, 0, 53, 64
1, 411528, Note_on_c, 0, 61, 30
1, 411528, Note_on_c, 0, 53, 31
1, 411532, Note_on_c, 0, 65, 25
1, 411536, Note_on_c, 0, 56, 33
1, 411740, Note_off_c, 0, 53, 64
1, 411740, Note_off_c, 0, 61, 64
1, 411744, Note_off_c, 0, 56, 64
1, 411744, Note_off_c, 0, 65, 64
1, 411764, Note_on_c, 0, 65, 28
1, 411776, Note_on_c, 0, 61, 29
1, 411776, Note_on_c, 0, 56, 27
1, 411776, Note_on_c, 0, 53, 27
1, 411976, Note_off_c, 0, 65, 64
1, 411988, Note_off_c, 0, 61, 64
1, 411988, Note_off_c, 0, 56, 64
1, 411988, Note_off_c, 0, 53, 64
1, 412028, Note_on_c, 0, 53, 35
1, 412028, Note_on_c, 0, 61, 30
1, 412036, Note_on_c, 0, 65, 28
1, 412036, Note_on_c, 0, 56, 29
1, 412236, Note_off_c, 0, 53, 64
1, 412240, Note_off_c, 0, 61, 64
1, 412244, Note_off_c, 0, 65, 64
1, 412244, Note_off_c, 0, 56, 64
1, 412328, Note_on_c, 0, 53, 33
1, 412332, Note_on_c, 0, 61, 30
1, 412340, Note_on_c, 0, 65, 27
1, 412344, Note_on_c, 0, 56, 28
1, 412424, Note_off_c, 0, 77, 64
1, 412592, Note_off_c, 0, 53, 64
1, 412600, Note_off_c, 0, 61, 64
1, 412604, Note_off_c, 0, 65, 64
1, 412608, Note_off_c, 0, 56, 64
1, 412656, Note_on_c, 0, 56, 45
1, 412924, Note_on_c, 0, 54, 48
1, 412964, Note_off_c, 0, 56, 64
1, 413156, Note_off_c, 0, 37, 64
1, 413200, Note_on_c, 0, 56, 48
1, 413224, Note_off_c, 0, 54, 64
1, 413472, Note_on_c, 0, 54, 34
1, 413504, Note_off_c, 0, 56, 64
1, 413728, Control_c, 0, 64, 0
1, 413756, Note_on_c, 0, 53, 39
1, 413792, Note_off_c, 0, 54, 64
1, 414016, Note_on_c, 0, 56, 40
1, 414060, Note_off_c, 0, 53, 64
1, 414280, Note_on_c, 0, 53, 39
1, 414304, Note_off_c, 0, 56, 64
1, 414316, Control_c, 0, 64, 127
1, 414520, Note_on_c, 0, 51, 41
1, 414604, Note_off_c, 0, 53, 64
1, 414788, Note_on_c, 0, 53, 36
1, 414824, Note_off_c, 0, 51, 64
1, 415044, Note_on_c, 0, 51, 45
1, 415280, Note_off_c, 0, 53, 64
1, 415300, Note_on_c, 0, 49, 50
1, 415320, Note_off_c, 0, 51, 64
1, 415564, Note_on_c, 0, 53, 43
1, 415572, Note_on_c, 0, 65, 43
1, 415588, Note_off_c, 0, 49, 64
1, 415648, Control_c, 0, 64, 0
1, 415756, Control_c, 0, 64, 127
1, 415816, Note_on_c, 0, 61, 47
1, 415828, Note_off_c, 0, 65, 64
1, 415840, Note_on_c, 0, 49, 39
1, 415904, Note_off_c, 0, 53, 64
1, 416056, Note_on_c, 0, 60, 51
1, 416064, Note_on_c, 0, 48, 40
1, 416072, Note_off_c, 0, 49, 64
1, 416080, Note_off_c, 0, 61, 64
1, 416276, Note_on_c, 0, 53, 45
1, 416288, Note_off_c, 0, 48, 64
1, 416296, Note_on_c, 0, 65, 56
1, 416316, Note_off_c, 0, 60, 64
1, 416540, Note_on_c, 0, 48, 52
1, 416544, Note_on_c, 0, 60, 54
1, 416572, Note_off_c, 0, 65, 64
1, 416580, Note_off_c, 0, 53, 64
1, 416724, Control_c, 0, 64, 0
1, 416764, Note_on_c, 0, 58, 51
1, 416784, Note_off_c, 0, 60, 64
1, 416784, Note_on_c, 0, 46, 53
1, 416804, Control_c, 0, 64, 127
1, 416832, Note_off_c, 0, 48, 64
1, 416988, Note_off_c, 0, 46, 64
1, 417000, Note_on_c, 0, 65, 54
1, 417004, Note_on_c, 0, 53, 50
1, 417024, Note_off_c, 0, 58, 64
1, 417232, Note_on_c, 0, 46, 48
1, 417244, Note_on_c, 0, 58, 58
1, 417268, Note_off_c, 0, 65, 64
1, 417344, Note_off_c, 0, 53, 64
1, 417460, Note_on_c, 0, 56, 54
1, 417464, Note_on_c, 0, 44, 55
1, 417476, Note_off_c, 0, 58, 64
1, 417508, Note_off_c, 0, 46, 64
1, 417632, Control_c, 0, 64, 0
1, 417680, Note_on_c, 0, 53, 51
1, 417680, Note_on_c, 0, 65, 59
1, 417692, Note_off_c, 0, 44, 64
1, 417704, Note_off_c, 0, 56, 64
1, 417740, Control_c, 0, 64, 127
1, 417912, Note_on_c, 0, 42, 48
1, 417912, Note_on_c, 0, 54, 60
1, 417960, Note_off_c, 0, 65, 64
1, 417968, Note_off_c, 0, 53, 64
1, 418144, Note_on_c, 0, 56, 58
1, 418156, Note_on_c, 0, 44, 51
1, 418176, Note_off_c, 0, 42, 64
1, 418184, Note_off_c, 0, 54, 64
1, 418416, Note_off_c, 0, 56, 64
1, 418424, Note_off_c, 0, 44, 64
1, 418432, Control_c, 0, 64, 0
1, 418440, Note_on_c, 0, 49, 33
1, 418448, Note_on_c, 0, 59, 33
1, 418448, Note_on_c, 0, 37, 38
1, 418464, Note_on_c, 0, 53, 18
1, 418528, Control_c, 0, 64, 127
1, 418548, Note_on_c, 0, 56, 38
1, 418616, Note_off_c, 0, 53, 64
1, 418656, Note_off_c, 0, 56, 64
1, 418664, Note_on_c, 0, 55, 32
1, 418720, Note_off_c, 0, 37, 64
1, 418728, Note_on_c, 0, 56, 46
1, 418744, Note_off_c, 0, 55, 64
1, 418804, Note_on_c, 0, 55, 40
1, 418808, Note_off_c, 0, 59, 64
1, 418820, Note_off_c, 0, 49, 64
1, 418832, Note_off_c, 0, 56, 64
1, 418840, Note_on_c, 0, 41, 32
1, 418876, Note_on_c, 0, 53, 44
1, 418880, Control_c, 0, 64, 0
1, 418900, Note_off_c, 0, 55, 64
1, 418952, Control_c, 0, 64, 127
1, 418960, Note_on_c, 0, 36, 34
1, 418976, Note_on_c, 0, 60, 44
1, 418976, Note_on_c, 0, 48, 41
1, 419032, Note_on_c, 0, 56, 39
1, 419036, Note_off_c, 0, 41, 64
1, 419060, Note_off_c, 0, 53, 64
1, 419104, Note_on_c, 0, 55, 26
1, 419120, Note_off_c, 0, 56, 64
1, 419176, Note_on_c, 0, 56, 48
1, 419184, Note_off_c, 0, 36, 64
1, 419200, Note_off_c, 0, 55, 64
1, 419216, Note_off_c, 0, 48, 64
1, 419256, Note_on_c, 0, 55, 37
1, 419276, Note_off_c, 0, 56, 64
1, 419304, Control_c, 0, 64, 0
1, 419304, Note_on_c, 0, 41, 42
1, 419336, Note_off_c, 0, 60, 64
1, 419336, Note_on_c, 0, 53, 44
1, 419348, Note_off_c, 0, 55, 64
1, 419392, Control_c, 0, 64, 127
1, 419408, Note_on_c, 0, 49, 52
1, 419412, Note_on_c, 0, 59, 45
1, 419420, Note_on_c, 0, 37, 51
1, 419472, Note_off_c, 0, 41, 64
1, 419476, Note_on_c, 0, 56, 43
1, 419484, Note_off_c, 0, 53, 64
1, 419556, Note_on_c, 0, 55, 26
1, 419568, Note_off_c, 0, 56, 64
1, 419636, Note_on_c, 0, 56, 53
1, 419652, Note_off_c, 0, 55, 64
1, 419668, Note_off_c, 0, 49, 64
1, 419676, Note_off_c, 0, 37, 64
1, 419708, Note_on_c, 0, 55, 39
1, 419736, Note_off_c, 0, 56, 64
1, 419740, Control_c, 0, 64, 0
1, 419740, Note_on_c, 0, 41, 39
1, 419764, Note_on_c, 0, 53, 48
1, 419772, Note_off_c, 0, 59, 64
1, 419788, Note_off_c, 0, 55, 64
1, 419824, Note_on_c, 0, 36, 45
1, 419832, Note_on_c, 0, 48, 47
1, 419836, Control_c, 0, 64, 127
1, 419852, Note_on_c, 0, 60, 47
1, 419896, Note_off_c, 0, 41, 64
1, 419908, Note_on_c, 0, 56, 50
1, 419920, Note_off_c, 0, 53, 64
1, 419976, Note_on_c, 0, 55, 40
1, 420000, Note_off_c, 0, 56, 64
1, 420040, Note_off_c, 0, 36, 64
1, 420048, Note_on_c, 0, 56, 53
1, 420064, Note_off_c, 0, 55, 64
1, 420084, Note_off_c, 0, 48, 64
1, 420112, Note_on_c, 0, 55, 48
1, 420136, Note_off_c, 0, 56, 64
1, 420144, Note_on_c, 0, 41, 40
1, 420152, Control_c, 0, 64, 0
1, 420176, Note_on_c, 0, 53, 45
1, 420184, Note_off_c, 0, 55, 64
1, 420212, Note_off_c, 0, 60, 64
1, 420236, Control_c, 0, 64, 127
1, 420256, Note_on_c, 0, 61, 49
1, 420256, Note_on_c, 0, 47, 54
1, 420256, Note_on_c, 0, 36, 43
1, 420312, Note_off_c, 0, 41, 64
1, 420320, Note_off_c, 0, 53, 64
1, 420328, Note_on_c, 0, 56, 51
1, 420380, Note_on_c, 0, 54, 48
1, 420404, Note_off_c, 0, 56, 64
1, 420412, Note_off_c, 0, 36, 64
1, 420476, Note_on_c, 0, 56, 51
1, 420488, Note_off_c, 0, 54, 64
1, 420516, Control_c, 0, 64, 0
1, 420536, Note_on_c, 0, 54, 43
1, 420548, Note_off_c, 0, 56, 64
1, 420552, Note_off_c, 0, 47, 64
1, 420568, Note_on_c, 0, 41, 45
1, 420584, Note_on_c, 0, 53, 31
1, 420608, Note_off_c, 0, 54, 64
1, 420616, Note_off_c, 0, 61, 64
1, 420620, Control_c, 0, 64, 127
1, 420656, Note_on_c, 0, 61, 58
1, 420680, Note_on_c, 0, 47, 61
1, 420684, Note_on_c, 0, 36, 45
1, 420704, Note_off_c, 0, 53, 64
1, 420728, Note_off_c, 0, 41, 64
1, 420728, Note_on_c, 0, 56, 53
1, 420780, Note_on_c, 0, 54, 50
1, 420800, Note_off_c, 0, 56, 64
1, 420872, Note_on_c, 0, 56, 50
1, 420880, Note_off_c, 0, 54, 64
1, 420900, Note_off_c, 0, 36, 64
1, 420924, Note_on_c, 0, 54, 47
1, 420952, Note_off_c, 0, 56, 64
1, 420964, Note_off_c, 0, 47, 64
1, 420964, Note_on_c, 0, 41, 52
1, 420968, Control_c, 0, 64, 0
1, 421004, Note_off_c, 0, 54, 64
1, 421008, Note_on_c, 0, 53, 39
1, 421016, Note_off_c, 0, 61, 64
1, 421044, Control_c, 0, 64, 127
1, 421096, Note_off_c, 0, 53, 64
1, 421104, Note_on_c, 0, 47, 59
1, 421104, Note_on_c, 0, 36, 44
1, 421112, Note_on_c, 0, 61, 37
1, 421152, Note_off_c, 0, 41, 64
1, 421176, Note_on_c, 0, 56, 43
1, 421220, Note_on_c, 0, 54, 57
1, 421248, Note_off_c, 0, 56, 64
1, 421272, Note_on_c, 0, 53, 67
1, 421300, Note_off_c, 0, 54, 64
1, 421336, Note_on_c, 0, 56, 52
1, 421372, Note_off_c, 0, 53, 64
1, 421380, Note_off_c, 0, 61, 64
1, 421412, Note_on_c, 0, 61, 73
1, 421464, Note_off_c, 0, 56, 64
1, 421500, Note_on_c, 0, 65, 75
1, 421512, Note_on_c, 0, 56, 76
1, 421544, Note_off_c, 0, 61, 64
1, 421572, Note_off_c, 0, 56, 64
1, 421584, Note_on_c, 0, 68, 70
1, 421616, Note_on_c, 0, 56, 76
1, 421632, Note_off_c, 0, 65, 64
1, 421668, Note_off_c, 0, 56, 64
1, 421692, Note_off_c, 0, 68, 64
1, 421692, Note_on_c, 0, 68, 59
1, 421692, Note_on_c, 0, 56, 76
1, 421700, Note_on_c, 0, 73, 64
1, 421760, Note_on_c, 0, 77, 62
1, 421812, Note_off_c, 0, 68, 64
1, 421812, Note_off_c, 0, 56, 64
1, 421820, Note_on_c, 0, 68, 76
1, 421828, Note_on_c, 0, 80, 56
1, 421832, Note_off_c, 0, 73, 64
1, 421832, Note_on_c, 0, 56, 76
1, 421888, Note_off_c, 0, 77, 64
1, 421908, Note_on_c, 0, 89, 58
1, 421940, Note_off_c, 0, 68, 64
1, 421952, Note_off_c, 0, 56, 64
1, 421960, Note_off_c, 0, 80, 64
1, 421988, Note_on_c, 0, 68, 76
1, 421992, Note_on_c, 0, 87, 48
1, 422000, Note_on_c, 0, 56, 76
1, 422036, Note_off_c, 0, 89, 64
1, 422048, Note_on_c, 0, 85, 51
1, 422100, Note_on_c, 0, 80, 52
1, 422124, Note_off_c, 0, 87, 64
1, 422156, Note_on_c, 0, 77, 45
1, 422180, Note_off_c, 0, 85, 64
1, 422228, Note_on_c, 0, 75, 51
1, 422232, Note_off_c, 0, 80, 64
1, 422236, Note_off_c, 0, 68, 64
1, 422248, Note_off_c, 0, 56, 64
1, 422288, Note_off_c, 0, 77, 64
1, 422292, Note_on_c, 0, 73, 44
1, 422328, Note_off_c, 0, 47, 64
1, 422328, Note_off_c, 0, 36, 64
1, 422328, Note_on_c, 0, 68, 56
1, 422360, Note_off_c, 0, 75, 64
1, 422400, Note_on_c, 0, 65, 47
1, 422424, Note_off_c, 0, 73, 64
1, 422456, Note_off_c, 0, 68, 64
1, 422460, Note_on_c, 0, 63, 56
1, 422460, Note_on_c, 0, 54, 48
1, 422460, Note_on_c, 0, 42, 56
1, 422528, Note_off_c, 0, 65, 64
1, 422552, Note_on_c, 0, 61, 54
1, 422592, Note_off_c, 0, 63, 64
1, 422680, Note_off_c, 0, 61, 64
1, 422680, Note_on_c, 0, 56, 45
1, 422728, Note_off_c, 0, 54, 64
1, 422728, Note_off_c, 0, 42, 64
1, 422760, Note_on_c, 0, 61, 56
1, 422760, Note_on_c, 0, 53, 32
1, 422760, Note_on_c, 0, 41, 37
1, 422788, Control_c, 0, 64, 0
1, 422832, Note_off_c, 0, 56, 64
1, 422924, Note_off_c, 0, 61, 64
1, 422924, Note_off_c, 0, 53, 64
1, 422924, Note_off_c, 0, 41, 64
1, 422924, Note_on_c, 0, 62, 45
1, 422924, Note_on_c, 0, 52, 47
1, 422952, Note_on_c, 0, 40, 39
1, 422968, Control_c, 0, 64, 127
1, 422976, Note_on_c, 0, 59, 43
1, 423052, Note_on_c, 0, 58, 34
1, 423060, Note_off_c, 0, 59, 64
1, 423124, Note_on_c, 0, 59, 31
1, 423140, Note_off_c, 0, 58, 64
1, 423168, Note_on_c, 0, 58, 45
1, 423188, Note_off_c, 0, 59, 64
1, 423204, Note_on_c, 0, 47, 39
1, 423208, Note_off_c, 0, 52, 64
1, 423208, Note_off_c, 0, 40, 64
1, 423260, Note_on_c, 0, 56, 41
1, 423264, Note_off_c, 0, 58, 64
1, 423264, Control_c, 0, 64, 0
1, 423284, Note_off_c, 0, 62, 64
1, 423328, Note_on_c, 0, 63, 48
1, 423352, Note_off_c, 0, 47, 64
1, 423356, Control_c, 0, 64, 127
1, 423364, Note_on_c, 0, 39, 48
1, 423372, Note_on_c, 0, 51, 30
1, 423392, Note_off_c, 0, 56, 64
1, 423392, Note_on_c, 0, 59, 44
1, 423476, Note_off_c, 0, 59, 64
1, 423476, Note_on_c, 0, 58, 32
1, 423528, Note_on_c, 0, 59, 44
1, 423536, Note_off_c, 0, 58, 64
1, 423588, Note_on_c, 0, 58, 48
1, 423608, Note_off_c, 0, 59, 64
1, 423620, Note_off_c, 0, 39, 64
1, 423624, Note_on_c, 0, 47, 39
1, 423644, Note_off_c, 0, 51, 64
1, 423648, Note_on_c, 0, 56, 45
1, 423668, Note_off_c, 0, 58, 64
1, 423680, Control_c, 0, 64, 0
1, 423688, Note_off_c, 0, 63, 64
1, 423732, Note_off_c, 0, 47, 64
1, 423732, Note_off_c, 0, 56, 64
1, 423736, Note_on_c, 0, 62, 48
1, 423744, Note_on_c, 0, 40, 48
1, 423756, Note_on_c, 0, 52, 56
1, 423776, Control_c, 0, 64, 127
1, 423788, Note_on_c, 0, 59, 36
1, 423868, Note_on_c, 0, 58, 33
1, 423880, Note_off_c, 0, 59, 64
1, 423940, Note_off_c, 0, 58, 64
1, 423944, Note_on_c, 0, 59, 45
1, 423980, Note_off_c, 0, 40, 64
1, 423988, Note_on_c, 0, 58, 52
1, 423996, Note_off_c, 0, 52, 64
1, 424016, Note_on_c, 0, 47, 47
1, 424020, Note_off_c, 0, 59, 64
1, 424032, Control_c, 0, 64, 0
1, 424056, Note_on_c, 0, 56, 60
1, 424068, Note_off_c, 0, 58, 64
1, 424096, Note_off_c, 0, 62, 64
1, 424112, Control_c, 0, 64, 127
1, 424120, Note_on_c, 0, 63, 56
1, 424152, Note_off_c, 0, 47, 64
1, 424152, Note_on_c, 0, 51, 56
1, 424156, Note_on_c, 0, 39, 61
1, 424168, Note_off_c, 0, 56, 64
1, 424184, Note_on_c, 0, 59, 50
1, 424272, Note_on_c, 0, 58, 59
1, 424300, Note_off_c, 0, 59, 64
1, 424336, Note_on_c, 0, 59, 56
1, 424344, Note_off_c, 0, 58, 64
1, 424368, Note_off_c, 0, 39, 64
1, 424376, Note_off_c, 0, 51, 64
1, 424384, Note_on_c, 0, 58, 56
1, 424412, Note_off_c, 0, 59, 64
1, 424424, Note_on_c, 0, 47, 47
1, 424440, Note_on_c, 0, 56, 56
1, 424452, Control_c, 0, 64, 0
1, 424468, Note_off_c, 0, 58, 64
1, 424480, Note_off_c, 0, 63, 64
1, 424508, Note_on_c, 0, 50, 57
1, 424508, Note_on_c, 0, 38, 56
1, 424520, Note_off_c, 0, 56, 64
1, 424520, Note_on_c, 0, 64, 52
1, 424540, Control_c, 0, 64, 127
1, 424564, Note_on_c, 0, 59, 53
1, 424584, Note_off_c, 0, 47, 64
1, 424648, Note_on_c, 0, 57, 52
1, 424656, Note_off_c, 0, 59, 64
1, 424744, Note_on_c, 0, 59, 52
1, 424752, Note_off_c, 0, 57, 64
1, 424796, Note_on_c, 0, 57, 52
1, 424808, Control_c, 0, 64, 0
1, 424816, Note_off_c, 0, 38, 64
1, 424828, Note_on_c, 0, 47, 51
1, 424836, Note_off_c, 0, 59, 64
1, 424848, Note_on_c, 0, 56, 32
1, 424856, Note_off_c, 0, 50, 64
1, 424880, Note_off_c, 0, 64, 64
1, 424888, Note_off_c, 0, 57, 64
1, 424900, Control_c, 0, 64, 127
1, 424916, Note_on_c, 0, 64, 62
1, 424924, Note_on_c, 0, 50, 61
1, 424928, Note_on_c, 0, 38, 61
1, 424952, Note_off_c, 0, 47, 64
1, 424956, Note_off_c, 0, 56, 64
1, 424984, Note_on_c, 0, 59, 52
1, 425060, Note_on_c, 0, 57, 53
1, 425080, Note_off_c, 0, 59, 64
1, 425156, Note_off_c, 0, 57, 64
1, 425160, Note_on_c, 0, 59, 56
1, 425184, Note_off_c, 0, 38, 64
1, 425224, Note_on_c, 0, 57, 33
1, 425236, Note_off_c, 0, 50, 64
1, 425252, Note_off_c, 0, 59, 64
1, 425252, Control_c, 0, 64, 0
1, 425276, Note_off_c, 0, 64, 64
1, 425276, Note_on_c, 0, 47, 57
1, 425308, Note_on_c, 0, 56, 36
1, 425316, Note_on_c, 0, 38, 63
1, 425328, Note_on_c, 0, 64, 60
1, 425328, Note_on_c, 0, 50, 64
1, 425332, Note_off_c, 0, 57, 64
1, 425344, Control_c, 0, 64, 127
1, 425392, Note_on_c, 0, 59, 61
1, 425396, Note_off_c, 0, 56, 64
1, 425440, Note_off_c, 0, 47, 64
1, 425452, Note_on_c, 0, 57, 60
1, 425472, Note_off_c, 0, 38, 64
1, 425472, Note_off_c, 0, 59, 64
1, 425508, Note_off_c, 0, 50, 64
1, 425508, Note_on_c, 0, 56, 64
1, 425544, Note_off_c, 0, 57, 64
1, 425592, Note_off_c, 0, 64, 64
1, 425628, Note_on_c, 0, 59, 62
1, 425640, Note_off_c, 0, 56, 64
1, 425712, Note_on_c, 0, 64, 44
1, 425768, Note_off_c, 0, 59, 64
1, 425800, Note_on_c, 0, 59, 76
1, 425808, Note_on_c, 0, 68, 49
1, 425844, Note_off_c, 0, 64, 64
1, 425860, Note_off_c, 0, 59, 64
1, 425880, Note_on_c, 0, 71, 71
1, 425880, Note_on_c, 0, 59, 76
1, 425936, Note_off_c, 0, 59, 64
1, 425940, Note_off_c, 0, 68, 64
1, 425972, Note_off_c, 0, 71, 64
1, 425980, Note_on_c, 0, 59, 76
1, 425988, Note_on_c, 0, 71, 76
1, 425988, Note_on_c, 0, 76, 59
1, 426076, Note_on_c, 0, 80, 62
1, 426100, Note_off_c, 0, 59, 64
1, 426108, Note_off_c, 0, 71, 64
1, 426120, Note_off_c, 0, 76, 64
1, 426136, Note_on_c, 0, 71, 71
1, 426140, Note_on_c, 0, 83, 63
1, 426140, Note_on_c, 0, 59, 76
1, 426208, Note_off_c, 0, 80, 64
1, 426224, Note_on_c, 0, 95, 76
1, 426256, Note_off_c, 0, 71, 64
1, 426260, Note_off_c, 0, 59, 64
1, 426272, Note_on_c, 0, 92, 57
1, 426280, Note_on_c, 0, 71, 59
1, 426280, Note_on_c, 0, 59, 15
1, 426288, Note_off_c, 0, 83, 64
1, 426344, Note_on_c, 0, 90, 40
1, 426356, Note_off_c, 0, 95, 64
1, 426404, Note_off_c, 0, 92, 64
1, 426408, Note_on_c, 0, 88, 30
1, 426472, Note_off_c, 0, 90, 64
1, 426488, Note_on_c, 0, 83, 48
1, 426528, Note_off_c, 0, 71, 64
1, 426528, Note_off_c, 0, 59, 64
1, 426536, Note_off_c, 0, 88, 64
1, 426560, Note_on_c, 0, 80, 52
1, 426620, Note_off_c, 0, 83, 64
1, 426620, Note_on_c, 0, 78, 23
1, 426648, Note_on_c, 0, 76, 48
1, 426688, Note_off_c, 0, 80, 64
1, 426692, Note_on_c, 0, 71, 56
1, 426752, Note_off_c, 0, 78, 64
1, 426776, Note_off_c, 0, 76, 64
1, 426788, Note_on_c, 0, 50, 28
1, 426792, Note_on_c, 0, 38, 66
1, 426792, Note_on_c, 0, 68, 49
1, 426824, Note_off_c, 0, 71, 64
1, 426876, Note_on_c, 0, 64, 48
1, 426924, Note_off_c, 0, 68, 64
1, 426968, Note_on_c, 0, 59, 47
1, 427008, Note_off_c, 0, 64, 64
1, 427080, Note_on_c, 0, 60, 52
1, 427088, Note_on_c, 0, 52, 45
1, 427096, Note_off_c, 0, 59, 64
1, 427096, Note_on_c, 0, 40, 62
1, 427148, Note_off_c, 0, 50, 64
1, 427152, Note_off_c, 0, 38, 64
1, 427208, Note_off_c, 0, 60, 64
1, 427208, Note_off_c, 0, 52, 64
1, 427208, Note_off_c, 0, 40, 64
1, 427208, Note_on_c, 0, 68, 56
1, 427208, Note_on_c, 0, 41, 29
1, 427216, Note_on_c, 0, 53, 43
1, 427228, Control_c, 0, 64, 0
1, 427312, Note_on_c, 0, 62, 43
1, 427324, Control_c, 0, 64, 127
1, 427380, Note_on_c, 0, 60, 43
1, 427400, Note_off_c, 0, 62, 64
1, 427452, Note_on_c, 0, 62, 43
1, 427460, Note_off_c, 0, 60, 64
1, 427504, Note_on_c, 0, 60, 44
1, 427536, Note_off_c, 0, 62, 64
1, 427544, Note_on_c, 0, 43, 39
1, 427568, Note_off_c, 0, 68, 64
1, 427568, Note_off_c, 0, 41, 64
1, 427576, Note_off_c, 0, 53, 64
1, 427580, Note_on_c, 0, 59, 44
1, 427584, Note_off_c, 0, 60, 64
1, 427600, Control_c, 0, 64, 0
1, 427664, Note_on_c, 0, 52, 47
1, 427668, Note_on_c, 0, 67, 42
1, 427672, Note_off_c, 0, 59, 64
1, 427672, Note_on_c, 0, 40, 47
1, 427680, Control_c, 0, 64, 127
1, 427728, Note_off_c, 0, 43, 64
1, 427728, Note_on_c, 0, 64, 39
1, 427808, Note_on_c, 0, 62, 39
1, 427820, Note_off_c, 0, 64, 64
1, 427872, Note_on_c, 0, 64, 39
1, 427892, Note_off_c, 0, 62, 64
1, 427936, Note_on_c, 0, 62, 39
1, 427964, Note_on_c, 0, 43, 43
1, 427968, Note_off_c, 0, 64, 64
1, 428008, Note_on_c, 0, 60, 39
1, 428008, Control_c, 0, 64, 0
1, 428024, Note_off_c, 0, 52, 64
1, 428028, Note_off_c, 0, 67, 64
1, 428028, Note_off_c, 0, 62, 64
1, 428032, Note_off_c, 0, 40, 64
1, 428056, Note_off_c, 0, 43, 64
1, 428056, Note_on_c, 0, 55, 43
1, 428064, Note_on_c, 0, 70, 52
1, 428064, Note_on_c, 0, 43, 46
1, 428104, Note_off_c, 0, 60, 64
1, 428104, Control_c, 0, 64, 127
1, 428124, Note_on_c, 0, 64, 40
1, 428188, Note_on_c, 0, 62, 40
1, 428208, Note_off_c, 0, 64, 64
1, 428252, Note_on_c, 0, 64, 41
1, 428264, Note_off_c, 0, 62, 64
1, 428316, Note_on_c, 0, 62, 41
1, 428336, Note_off_c, 0, 64, 64
1, 428356, Note_on_c, 0, 45, 42
1, 428392, Note_on_c, 0, 61, 42
1, 428408, Note_off_c, 0, 62, 64
1, 428416, Note_off_c, 0, 55, 64
1, 428424, Note_off_c, 0, 70, 64
1, 428424, Note_off_c, 0, 43, 64
1, 428424, Control_c, 0, 64, 0
1, 428444, Note_on_c, 0, 69, 52
1, 428444, Note_on_c, 0, 54, 55
1, 428444, Note_on_c, 0, 42, 51
1, 428460, Note_off_c, 0, 45, 64
1, 428488, Note_off_c, 0, 61, 64
1, 428504, Control_c, 0, 64, 127
1, 428528, Note_on_c, 0, 66, 43
1, 428596, Note_on_c, 0, 64, 43
1, 428616, Note_off_c, 0, 66, 64
1, 428672, Note_on_c, 0, 66, 43
1, 428684, Note_off_c, 0, 64, 64
1, 428720, Note_on_c, 0, 64, 44
1, 428744, Note_on_c, 0, 45, 30
1, 428748, Note_off_c, 0, 66, 64
1, 428792, Note_off_c, 0, 64, 64
1, 428796, Note_on_c, 0, 62, 44
1, 428804, Note_off_c, 0, 42, 64
1, 428804, Note_off_c, 0, 54, 64
1, 428804, Note_off_c, 0, 69, 64
1, 428864, Control_c, 0, 64, 0
1, 428876, Note_off_c, 0, 45, 64
1, 428892, Note_on_c, 0, 72, 56
1, 428892, Note_on_c, 0, 57, 37
1, 428896, Note_off_c, 0, 62, 64
1, 428904, Note_on_c, 0, 45, 51
1, 428936, Control_c, 0, 64, 127
1, 428952, Note_on_c, 0, 66, 44
1, 429000, Note_on_c, 0, 64, 44
1, 429028, Note_off_c, 0, 66, 64
1, 429072, Note_on_c, 0, 66, 45
1, 429084, Note_off_c, 0, 64, 64
1, 429128, Note_on_c, 0, 64, 45
1, 429140, Note_off_c, 0, 66, 64
1, 429168, Note_on_c, 0, 47, 46
1, 429200, Note_on_c, 0, 63, 45
1, 429216, Note_off_c, 0, 64, 64
1, 429232, Control_c, 0, 64, 0
1, 429252, Note_off_c, 0, 72, 64
1, 429252, Note_off_c, 0, 57, 64
1, 429264, Note_off_c, 0, 45, 64
1, 429272, Note_off_c, 0, 47, 64
1, 429276, Note_on_c, 0, 56, 38
1, 429280, Note_on_c, 0, 44, 49
1, 429284, Note_on_c, 0, 71, 53
1, 429292, Note_off_c, 0, 63, 64
1, 429316, Control_c, 0, 64, 127
1, 429340, Note_on_c, 0, 68, 46
1, 429412, Note_on_c, 0, 66, 47
1, 429436, Note_off_c, 0, 68, 64
1, 429484, Note_on_c, 0, 68, 47
1, 429488, Note_off_c, 0, 66, 64
1, 429540, Note_on_c, 0, 66, 47
1, 429568, Note_off_c, 0, 68, 64
1, 429572, Note_on_c, 0, 52, 33
1, 429592, Note_on_c, 0, 64, 47
1, 429612, Note_off_c, 0, 66, 64
1, 429636, Note_off_c, 0, 56, 64
1, 429640, Note_off_c, 0, 44, 64
1, 429644, Note_off_c, 0, 71, 64
1, 429668, Note_on_c, 0, 62, 39
1, 429668, Note_on_c, 0, 50, 36
1, 429672, Note_on_c, 0, 71, 47
1, 429676, Note_off_c, 0, 52, 64
1, 429676, Control_c, 0, 64, 0
1, 429684, Note_off_c, 0, 64, 64
1, 429744, Control_c, 0, 64, 127
1, 429752, Note_on_c, 0, 68, 48
1, 429816, Note_on_c, 0, 66, 48
1, 429824, Note_off_c, 0, 68, 64
1, 429872, Note_on_c, 0, 68, 48
1, 429900, Note_off_c, 0, 66, 64
1, 429936, Note_on_c, 0, 66, 48
1, 429944, Note_off_c, 0, 68, 64
1, 429968, Note_on_c, 0, 56, 43
1, 429968, Note_on_c, 0, 53, 36
1, 430000, Note_on_c, 0, 65, 48
1, 430008, Note_off_c, 0, 66, 64
1, 430028, Note_off_c, 0, 62, 64
1, 430028, Note_off_c, 0, 50, 64
1, 430032, Note_off_c, 0, 71, 64
1, 430040, Control_c, 0, 64, 0
1, 430092, Note_off_c, 0, 65, 64
1, 430096, Note_on_c, 0, 73, 66
1, 430104, Note_on_c, 0, 49, 39
1, 430112, Note_off_c, 0, 53, 64
1, 430112, Note_off_c, 0, 56, 64
1, 430116, Note_on_c, 0, 61, 43
1, 430120, Control_c, 0, 64, 127
1, 430160, Note_on_c, 0, 68, 50
1, 430228, Note_on_c, 0, 66, 50
1, 430248, Note_off_c, 0, 68, 64
1, 430284, Note_on_c, 0, 68, 51
1, 430300, Note_off_c, 0, 66, 64
1, 430344, Note_on_c, 0, 66, 51
1, 430372, Note_off_c, 0, 68, 64
1, 430376, Note_on_c, 0, 56, 56
1, 430376, Note_on_c, 0, 53, 52
1, 430384, Note_off_c, 0, 49, 64
1, 430396, Note_off_c, 0, 61, 64
1, 430416, Note_on_c, 0, 65, 51
1, 430424, Note_off_c, 0, 66, 64
1, 430456, Note_off_c, 0, 73, 64
1, 430464, Control_c, 0, 64, 0
1, 430500, Note_on_c, 0, 74, 64
1, 430512, Note_off_c, 0, 65, 64
1, 430516, Note_on_c, 0, 47, 39
1, 430528, Note_off_c, 0, 56, 64
1, 430528, Note_off_c, 0, 53, 64
1, 430528, Note_on_c, 0, 59, 46
1, 430552, Control_c, 0, 64, 127
1, 430564, Note_on_c, 0, 68, 51
1, 430628, Note_on_c, 0, 66, 52
1, 430648, Note_off_c, 0, 68, 64
1, 430692, Note_on_c, 0, 68, 52
1, 430716, Note_off_c, 0, 66, 64
1, 430756, Note_on_c, 0, 66, 52
1, 430784, Note_off_c, 0, 68, 64
1, 430792, Note_on_c, 0, 56, 59
1, 430792, Note_on_c, 0, 53, 52
1, 430832, Note_on_c, 0, 65, 52
1, 430840, Note_off_c, 0, 66, 64
1, 430860, Note_off_c, 0, 74, 64
1, 430876, Note_off_c, 0, 47, 64
1, 430888, Note_off_c, 0, 59, 64
1, 430904, Control_c, 0, 64, 0
1, 430916, Note_off_c, 0, 65, 64
1, 430924, Note_on_c, 0, 74, 64
1, 430928, Note_off_c, 0, 53, 64
1, 430928, Note_on_c, 0, 65, 70
1, 430936, Note_off_c, 0, 56, 64
1, 430936, Note_on_c, 0, 53, 47
1, 430984, Control_c, 0, 64, 127
1, 430992, Note_on_c, 0, 71, 52
1, 431064, Note_on_c, 0, 70, 53
1, 431092, Note_off_c, 0, 71, 64
1, 431132, Note_on_c, 0, 71, 53
1, 431160, Note_off_c, 0, 70, 64
1, 431204, Note_on_c, 0, 70, 54
1, 431212, Note_off_c, 0, 71, 64
1, 431240, Note_on_c, 0, 59, 51
1, 431240, Note_on_c, 0, 56, 46
1, 431248, Note_on_c, 0, 68, 55
1, 431268, Control_c, 0, 64, 0
1, 431284, Note_off_c, 0, 74, 64
1, 431288, Note_off_c, 0, 65, 64
1, 431288, Note_off_c, 0, 70, 64
1, 431296, Note_off_c, 0, 53, 64
1, 431328, Note_on_c, 0, 75, 73
1, 431336, Note_on_c, 0, 51, 63
1, 431348, Note_on_c, 0, 63, 64
1, 431348, Control_c, 0, 64, 127
1, 431352, Note_off_c, 0, 59, 64
1, 431352, Note_off_c, 0, 56, 64
1, 431380, Note_off_c, 0, 68, 64
1, 431380, Note_on_c, 0, 71, 56
1, 431444, Note_on_c, 0, 70, 56
1, 431468, Note_off_c, 0, 71, 64
1, 431520, Note_on_c, 0, 71, 56
1, 431532, Note_off_c, 0, 70, 64
1, 431584, Note_on_c, 0, 70, 56
1, 431616, Note_off_c, 0, 71, 64
1, 431624, Note_on_c, 0, 59, 51
1, 431624, Note_on_c, 0, 56, 51
1, 431640, Note_off_c, 0, 51, 64
1, 431640, Note_on_c, 0, 68, 56
1, 431648, Note_off_c, 0, 63, 64
1, 431664, Note_off_c, 0, 70, 64
1, 431680, Control_c, 0, 64, 0
1, 431688, Note_off_c, 0, 75, 64
1, 431712, Note_off_c, 0, 68, 64
1, 431716, Note_on_c, 0, 77, 72
1, 431728, Note_on_c, 0, 62, 62
1, 431728, Note_on_c, 0, 50, 56
1, 431732, Note_off_c, 0, 59, 64
1, 431732, Note_off_c, 0, 56, 64
1, 431768, Control_c, 0, 64, 127
1, 431776, Note_on_c, 0, 71, 56
1, 431848, Note_on_c, 0, 70, 57
1, 431860, Note_off_c, 0, 71, 64
1, 431928, Note_on_c, 0, 71, 57
1, 431940, Note_off_c, 0, 70, 64
1, 431992, Note_off_c, 0, 71, 64
1, 431992, Note_on_c, 0, 70, 57
1, 432024, Note_on_c, 0, 59, 56
1, 432024, Note_on_c, 0, 56, 48
1, 432028, Note_off_c, 0, 62, 64
1, 432032, Note_off_c, 0, 50, 64
1, 432040, Note_on_c, 0, 68, 57
1, 432060, Note_off_c, 0, 70, 64
1, 432076, Note_off_c, 0, 77, 64
1, 432092, Note_off_c, 0, 59, 64
1, 432092, Note_off_c, 0, 56, 64
1, 432112, Note_off_c, 0, 68, 64
1, 432220, Note_on_c, 0, 38, 56
1, 432224, Note_on_c, 0, 50, 56
1, 432280, Control_c, 0, 64, 127
1, 432312, Note_on_c, 0, 39, 56
1, 432316, Note_on_c, 0, 51, 56
1, 432340, Note_off_c, 0, 38, 64
1, 432344, Note_off_c, 0, 50, 64
1, 432400, Note_on_c, 0, 54, 56
1, 432400, Note_on_c, 0, 42, 56
1, 432456, Note_off_c, 0, 39, 64
1, 432464, Note_off_c, 0, 51, 64
1, 432480, Note_on_c, 0, 43, 56
1, 432484, Note_on_c, 0, 55, 56
1, 432520, Note_off_c, 0, 54, 64
1, 432520, Note_off_c, 0, 42, 64
1, 432544, Control_c, 0, 64, 0
1, 432588, Note_on_c, 0, 42, 57
1, 432592, Note_on_c, 0, 54, 57
1, 432600, Note_off_c, 0, 43, 64
1, 432600, Note_off_c, 0, 55, 64
1, 432640, Control_c, 0, 64, 127
1, 432684, Note_on_c, 0, 55, 57
1, 432684, Note_on_c, 0, 43, 57
1, 432716, Note_off_c, 0, 42, 64
1, 432732, Note_off_c, 0, 54, 64
1, 432776, Note_on_c, 0, 45, 58
1, 432776, Note_on_c, 0, 57, 58
1, 432824, Note_off_c, 0, 55, 64
1, 432824, Note_off_c, 0, 43, 64
1, 432860, Note_on_c, 0, 58, 59
1, 432860, Note_on_c, 0, 46, 59
1, 432884, Control_c, 0, 64, 0
1, 432908, Note_off_c, 0, 45, 64
1, 432912, Note_off_c, 0, 57, 64
1, 432952, Note_on_c, 0, 45, 60
1, 432952, Note_on_c, 0, 57, 60
1, 432968, Note_off_c, 0, 58, 64
1, 432968, Note_off_c, 0, 46, 64
1, 432968, Control_c, 0, 64, 127
1, 433024, Note_on_c, 0, 46, 60
1, 433028, Note_on_c, 0, 58, 60
1, 433048, Note_off_c, 0, 45, 64
1, 433052, Note_off_c, 0, 57, 64
1, 433112, Note_on_c, 0, 60, 60
1, 433116, Note_on_c, 0, 48, 60
1, 433152, Note_off_c, 0, 46, 64
1, 433156, Note_off_c, 0, 58, 64
1, 433164, Control_c, 0, 64, 0
1, 433192, Note_on_c, 0, 49, 61
1, 433196, Note_on_c, 0, 61, 61
1, 433248, Note_off_c, 0, 48, 64
1, 433256, Control_c, 0, 64, 127
1, 433264, Note_off_c, 0, 60, 64
1, 433304, Note_on_c, 0, 57, 61
1, 433304, Note_on_c, 0, 45, 61
1, 433324, Note_off_c, 0, 49, 64
1, 433328, Note_off_c, 0, 61, 64
1, 433372, Note_on_c, 0, 46, 61
1, 433376, Note_on_c, 0, 58, 61
1, 433444, Note_off_c, 0, 57, 64
1, 433444, Note_off_c, 0, 45, 64
1, 433460, Note_on_c, 0, 48, 61
1, 433460, Note_on_c, 0, 60, 61
1, 433484, Note_off_c, 0, 46, 64
1, 433488, Note_off_c, 0, 58, 64
1, 433544, Note_on_c, 0, 61, 62
1, 433544, Note_on_c, 0, 49, 62
1, 433560, Control_c, 0, 64, 0
1, 433584, Note_off_c, 0, 48, 64
1, 433588, Note_off_c, 0, 60, 64
1, 433632, Note_on_c, 0, 60, 62
1, 433636, Note_on_c, 0, 48, 62
1, 433648, Note_off_c, 0, 61, 64
1, 433648, Note_off_c, 0, 49, 64
1, 433672, Control_c, 0, 64, 127
1, 433716, Note_on_c, 0, 49, 63
1, 433716, Note_on_c, 0, 61, 63
1, 433752, Note_off_c, 0, 48, 64
1, 433760, Note_off_c, 0, 60, 64
1, 433792, Note_on_c, 0, 63, 63
1, 433792, Note_on_c, 0, 51, 63
1, 433820, Note_off_c, 0, 49, 64
1, 433824, Note_off_c, 0, 61, 64
1, 433868, Control_c, 0, 64, 0
1, 433880, Note_on_c, 0, 64, 64
1, 433880, Note_on_c, 0, 52, 64
1, 433912, Note_off_c, 0, 63, 64
1, 433912, Note_off_c, 0, 51, 64
1, 433964, Control_c, 0, 64, 127
1, 433976, Note_on_c, 0, 63, 64
1, 433976, Note_on_c, 0, 51, 64
1, 433984, Note_off_c, 0, 64, 64
1, 433984, Note_off_c, 0, 52, 64
1, 434064, Note_on_c, 0, 64, 65
1, 434064, Note_on_c, 0, 52, 65
1, 434092, Note_off_c, 0, 63, 64
1, 434092, Note_off_c, 0, 51, 64
1, 434152, Note_on_c, 0, 66, 65
1, 434152, Note_on_c, 0, 54, 65
1, 434184, Note_off_c, 0, 64, 64
1, 434188, Note_off_c, 0, 52, 64
1, 434248, Note_on_c, 0, 67, 67
1, 434248, Note_on_c, 0, 55, 67
1, 434256, Control_c, 0, 64, 0
1, 434268, Note_off_c, 0, 66, 64
1, 434268, Note_off_c, 0, 54, 64
1, 434344, Note_on_c, 0, 48, 67
1, 434348, Note_on_c, 0, 60, 67
1, 434352, Control_c, 0, 64, 127
1, 434364, Note_off_c, 0, 67, 64
1, 434364, Note_off_c, 0, 55, 64
1, 434424, Note_on_c, 0, 61, 68
1, 434428, Note_on_c, 0, 49, 68
1, 434476, Note_off_c, 0, 48, 64
1, 434476, Note_off_c, 0, 60, 64
1, 434504, Note_on_c, 0, 51, 68
1, 434508, Note_on_c, 0, 63, 68
1, 434536, Note_off_c, 0, 61, 64
1, 434540, Note_off_c, 0, 49, 64
1, 434564, Control_c, 0, 64, 0
1, 434592, Note_on_c, 0, 64, 68
1, 434592, Note_on_c, 0, 52, 68
1, 434624, Note_off_c, 0, 51, 64
1, 434624, Note_off_c, 0, 63, 64
1, 434660, Control_c, 0, 64, 127
1, 434688, Note_on_c, 0, 63, 68
1, 434688, Note_on_c, 0, 51, 68
1, 434704, Note_off_c, 0, 52, 64
1, 434704, Note_off_c, 0, 64, 64
1, 434780, Note_on_c, 0, 64, 68
1, 434780, Note_on_c, 0, 52, 68
1, 434808, Note_off_c, 0, 63, 64
1, 434808, Note_off_c, 0, 51, 64
1, 434856, Note_on_c, 0, 54, 68
1, 434860, Note_on_c, 0, 66, 68
1, 434916, Note_off_c, 0, 52, 64
1, 434920, Note_off_c, 0, 64, 64
1, 434940, Note_on_c, 0, 67, 69
1, 434940, Note_on_c, 0, 55, 69
1, 434952, Control_c, 0, 64, 0
1, 434976, Note_off_c, 0, 54, 64
1, 434984, Note_off_c, 0, 66, 64
1, 435036, Note_on_c, 0, 54, 69
1, 435040, Note_on_c, 0, 66, 69
1, 435056, Note_off_c, 0, 67, 64
1, 435056, Note_off_c, 0, 55, 64
1, 435056, Control_c, 0, 64, 127
1, 435132, Note_on_c, 0, 67, 70
1, 435132, Note_on_c, 0, 55, 70
1, 435168, Note_off_c, 0, 54, 64
1, 435168, Note_off_c, 0, 66, 64
1, 435220, Note_on_c, 0, 57, 70
1, 435224, Note_on_c, 0, 69, 70
1, 435248, Note_off_c, 0, 67, 64
1, 435248, Note_off_c, 0, 55, 64
1, 435300, Note_on_c, 0, 70, 70
1, 435304, Note_on_c, 0, 58, 70
1, 435332, Note_off_c, 0, 57, 64
1, 435336, Note_off_c, 0, 69, 64
1, 435352, Control_c, 0, 64, 0
1, 435376, Note_on_c, 0, 57, 71
1, 435380, Note_on_c, 0, 69, 71
1, 435404, Note_off_c, 0, 70, 64
1, 435412, Note_off_c, 0, 58, 64
1, 435428, Control_c, 0, 64, 127
1, 435472, Note_on_c, 0, 58, 72
1, 435472, Note_on_c, 0, 70, 72
1, 435488, Note_off_c, 0, 57, 64
1, 435496, Note_off_c, 0, 69, 64
1, 435560, Note_on_c, 0, 60, 73
1, 435568, Note_on_c, 0, 72, 73
1, 435600, Note_off_c, 0, 58, 64
1, 435600, Note_off_c, 0, 70, 64
1, 435640, Note_on_c, 0, 73, 73
1, 435644, Note_on_c, 0, 61, 73
1, 435688, Note_off_c, 0, 72, 64
1, 435692, Note_off_c, 0, 60, 64
1, 435736, Note_on_c, 0, 60, 73
1, 435740, Note_on_c, 0, 72, 73
1, 435756, Note_off_c, 0, 73, 64
1, 435760, Note_off_c, 0, 61, 64
1, 435832, Note_on_c, 0, 73, 74
1, 435836, Note_on_c, 0, 61, 74
1, 435860, Note_off_c, 0, 60, 64
1, 435864, Note_off_c, 0, 72, 64
1, 435924, Note_on_c, 0, 75, 74
1, 435924, Note_on_c, 0, 63, 74
1, 435968, Note_off_c, 0, 73, 64
1, 435972, Note_off_c, 0, 61, 64
1, 436008, Note_on_c, 0, 76, 74
1, 436016, Note_on_c, 0, 64, 74
1, 436052, Note_off_c, 0, 75, 64
1, 436052, Note_off_c, 0, 63, 64
1, 436116, Note_on_c, 0, 63, 75
1, 436116, Note_on_c, 0, 75, 75
1, 436140, Note_off_c, 0, 76, 64
1, 436148, Note_off_c, 0, 64, 64
1, 436220, Note_on_c, 0, 64, 76
1, 436224, Note_on_c, 0, 76, 76
1, 436248, Note_off_c, 0, 63, 64
1, 436252, Note_off_c, 0, 75, 64
1, 436316, Note_on_c, 0, 78, 77
1, 436316, Note_on_c, 0, 66, 77
1, 436364, Note_off_c, 0, 64, 64
1, 436368, Note_off_c, 0, 76, 64
1, 436408, Note_on_c, 0, 79, 78
1, 436412, Note_on_c, 0, 67, 78
1, 436424, Note_off_c, 0, 78, 64
1, 436424, Note_off_c, 0, 66, 64
1, 436520, Note_off_c, 0, 79, 64
1, 436524, Note_off_c, 0, 67, 64
1, 436532, Control_c, 0, 64, 127
1, 436540, Note_on_c, 0, 82, 82
1, 436548, Note_on_c, 0, 70, 75
1, 436548, Note_on_c, 0, 39, 93
1, 436548, Note_on_c, 0, 51, 93
1, 436704, Note_off_c, 0, 39, 64
1, 436708, Note_off_c, 0, 51, 64
1, 436760, Note_on_c, 0, 53, 68
1, 436768, Note_on_c, 0, 75, 68
1, 436768, Note_on_c, 0, 73, 68
1, 436776, Note_on_c, 0, 65, 62
1, 436848, Note_off_c, 0, 75, 64
1, 436848, Note_off_c, 0, 73, 64
1, 436912, Note_on_c, 0, 51, 73
1, 436916, Note_on_c, 0, 73, 78
1, 436920, Note_off_c, 0, 53, 64
1, 436920, Note_on_c, 0, 75, 79
1, 436920, Note_on_c, 0, 63, 64
1, 436932, Note_off_c, 0, 65, 64
1, 437000, Note_off_c, 0, 73, 64
1, 437004, Note_off_c, 0, 75, 64
1, 437064, Note_on_c, 0, 73, 76
1, 437068, Note_on_c, 0, 41, 65
1, 437072, Note_off_c, 0, 51, 64
1, 437072, Note_on_c, 0, 53, 50
1, 437072, Note_on_c, 0, 75, 74
1, 437080, Note_off_c, 0, 63, 64
1, 437148, Note_off_c, 0, 73, 64
1, 437148, Control_c, 0, 64, 0
1, 437156, Note_off_c, 0, 75, 64
1, 437200, Control_c, 0, 64, 127
1, 437204, Note_on_c, 0, 55, 79
1, 437208, Note_on_c, 0, 73, 70
1, 437212, Note_on_c, 0, 75, 67
1, 437212, Note_on_c, 0, 43, 69
1, 437228, Note_off_c, 0, 41, 64
1, 437232, Note_off_c, 0, 53, 64
1, 437292, Note_off_c, 0, 73, 64
1, 437292, Note_off_c, 0, 75, 64
1, 437308, Note_off_c, 0, 70, 64
1, 437340, Note_on_c, 0, 51, 52
1, 437344, Note_on_c, 0, 39, 79
1, 437348, Note_on_c, 0, 75, 70
1, 437348, Note_on_c, 0, 73, 68
1, 437364, Note_off_c, 0, 55, 64
1, 437368, Note_off_c, 0, 82, 64
1, 437368, Note_off_c, 0, 43, 64
1, 437428, Note_off_c, 0, 75, 64
1, 437428, Note_off_c, 0, 73, 64
1, 437472, Control_c, 0, 64, 0
1, 437492, Note_on_c, 0, 56, 70
1, 437496, Note_off_c, 0, 51, 64
1, 437496, Note_on_c, 0, 80, 70
1, 437496, Note_on_c, 0, 75, 78
1, 437500, Note_on_c, 0, 84, 79
1, 437500, Note_on_c, 0, 44, 83
1, 437504, Note_off_c, 0, 39, 64
1, 437504, Note_on_c, 0, 72, 75
1, 437540, Control_c, 0, 64, 127
1, 437576, Note_off_c, 0, 80, 64
1, 437576, Note_off_c, 0, 75, 64
1, 437584, Note_off_c, 0, 72, 64
1, 437640, Note_on_c, 0, 36, 69
1, 437640, Note_on_c, 0, 72, 75
1, 437648, Note_on_c, 0, 48, 66
1, 437648, Note_on_c, 0, 80, 70
1, 437648, Note_on_c, 0, 75, 78
1, 437652, Note_off_c, 0, 56, 64
1, 437660, Note_off_c, 0, 44, 64
1, 437724, Note_off_c, 0, 72, 64
1, 437728, Note_off_c, 0, 80, 64
1, 437728, Note_off_c, 0, 75, 64
1, 437772, Note_on_c, 0, 75, 83
1, 437772, Note_on_c, 0, 72, 75
1, 437776, Note_on_c, 0, 80, 79
1, 437776, Note_on_c, 0, 49, 76
1, 437784, Note_on_c, 0, 37, 73
1, 437792, Note_off_c, 0, 84, 64
1, 437800, Note_off_c, 0, 36, 64
1, 437808, Note_off_c, 0, 48, 64
1, 437852, Note_off_c, 0, 75, 64
1, 437852, Note_off_c, 0, 72, 64
1, 437860, Note_off_c, 0, 80, 64
1, 437896, Control_c, 0, 64, 0
1, 437908, Note_on_c, 0, 82, 79
1, 437908, Note_on_c, 0, 51, 67
1, 437912, Note_on_c, 0, 80, 81
1, 437912, Note_on_c, 0, 70, 85
1, 437912, Note_on_c, 0, 39, 75
1, 437920, Note_on_c, 0, 75, 68
1, 437936, Note_off_c, 0, 49, 64
1, 437940, Note_off_c, 0, 37, 64
1, 437960, Control_c, 0, 64, 127
1, 437992, Note_off_c, 0, 80, 64
1, 437992, Note_off_c, 0, 70, 64
1, 438000, Note_off_c, 0, 75, 64
1, 438044, Note_on_c, 0, 70, 85
1, 438052, Note_on_c, 0, 80, 79
1, 438052, Note_on_c, 0, 75, 79
1, 438052, Note_on_c, 0, 38, 70
1, 438060, Note_on_c, 0, 50, 70
1, 438064, Note_off_c, 0, 51, 64
1, 438072, Note_off_c, 0, 39, 64
1, 438128, Note_off_c, 0, 70, 64
1, 438136, Note_off_c, 0, 80, 64
1, 438136, Note_off_c, 0, 75, 64
1, 438172, Note_on_c, 0, 80, 68
1, 438172, Note_on_c, 0, 70, 62
1, 438176, Note_on_c, 0, 75, 67
1, 438184, Note_on_c, 0, 51, 85
1, 438184, Note_on_c, 0, 39, 75
1, 438212, Note_off_c, 0, 38, 64
1, 438216, Note_off_c, 0, 50, 64
1, 438256, Note_off_c, 0, 80, 64
1, 438256, Note_off_c, 0, 70, 64
1, 438260, Note_off_c, 0, 75, 64
1, 438292, Control_c, 0, 64, 0
1, 438304, Note_on_c, 0, 70, 79
1, 438312, Note_on_c, 0, 79, 75
1, 438312, Note_on_c, 0, 73, 75
1, 438320, Note_on_c, 0, 40, 67
1, 438320, Note_on_c, 0, 52, 79
1, 438340, Note_off_c, 0, 51, 64
1, 438340, Note_off_c, 0, 39, 64
1, 438344, Control_c, 0, 64, 127
1, 438388, Note_off_c, 0, 70, 64
1, 438392, Note_off_c, 0, 79, 64
1, 438392, Note_off_c, 0, 73, 64
1, 438424, Note_on_c, 0, 79, 75
1, 438424, Note_on_c, 0, 73, 68
1, 438432, Note_on_c, 0, 70, 79
1, 438440, Note_on_c, 0, 51, 74
1, 438448, Note_on_c, 0, 39, 70
1, 438460, Note_off_c, 0, 82, 64
1, 438476, Note_off_c, 0, 40, 64
1, 438480, Note_off_c, 0, 52, 64
1, 438504, Note_off_c, 0, 79, 64
1, 438504, Note_off_c, 0, 73, 64
1, 438512, Note_off_c, 0, 70, 64
1, 438564, Note_on_c, 0, 79, 66
1, 438572, Note_on_c, 0, 84, 75
1, 438572, Note_on_c, 0, 72, 79
1, 438576, Note_on_c, 0, 40, 73
1, 438576, Note_on_c, 0, 52, 75
1, 438600, Note_off_c, 0, 51, 64
1, 438604, Note_off_c, 0, 39, 64
1, 438648, Note_off_c, 0, 79, 64
1, 438656, Note_off_c, 0, 72, 64
1, 438680, Control_c, 0, 64, 0
1, 438696, Note_on_c, 0, 72, 78
1, 438700, Note_on_c, 0, 77, 78
1, 438700, Note_on_c, 0, 80, 73
1, 438708, Note_on_c, 0, 53, 64
1, 438708, Note_on_c, 0, 41, 73
1, 438736, Note_off_c, 0, 40, 64
1, 438736, Note_off_c, 0, 52, 64
1, 438736, Control_c, 0, 64, 127
1, 438756, Note_off_c, 0, 84, 64
1, 438768, Note_off_c, 0, 72, 64
1, 438780, Note_off_c, 0, 77, 64
1, 438836, Note_on_c, 0, 72, 73
1, 438840, Note_on_c, 0, 77, 78
1, 438844, Note_on_c, 0, 51, 79
1, 438848, Note_on_c, 0, 39, 79
1, 438864, Note_off_c, 0, 53, 64
1, 438864, Note_off_c, 0, 41, 64
1, 438920, Note_off_c, 0, 72, 64
1, 438920, Note_off_c, 0, 77, 64
1, 438980, Note_off_c, 0, 80, 64
1, 438984, Note_on_c, 0, 80, 85
1, 438992, Note_on_c, 0, 89, 85
1, 438992, Note_on_c, 0, 77, 75
1, 438996, Note_on_c, 0, 50, 78
1, 438996, Note_on_c, 0, 38, 73
1, 439000, Note_off_c, 0, 51, 64
1, 439008, Note_off_c, 0, 39, 64
1, 439068, Note_off_c, 0, 80, 64
1, 439072, Note_off_c, 0, 77, 64
1, 439120, Control_c, 0, 64, 0
1, 439164, Note_on_c, 0, 80, 79
1, 439164, Note_on_c, 0, 77, 79
1, 439168, Note_on_c, 0, 82, 85
1, 439168, Note_on_c, 0, 70, 85
1, 439176, Note_on_c, 0, 49, 96
1, 439176, Note_on_c, 0, 37, 90
1, 439180, Note_off_c, 0, 50, 64
1, 439180, Note_off_c, 0, 38, 64
1, 439192, Note_off_c, 0, 89, 64
1, 439192, Control_c, 0, 64, 127
1, 439248, Note_off_c, 0, 80, 64
1, 439248, Note_off_c, 0, 77, 64
1, 439248, Note_off_c, 0, 70, 64
1, 439324, Note_on_c, 0, 51, 65
1, 439328, Note_on_c, 0, 61, 45
1, 439332, Note_off_c, 0, 37, 64
1, 439332, Note_off_c, 0, 49, 64
1, 439332, Note_on_c, 0, 80, 79
1, 439332, Note_on_c, 0, 77, 73
1, 439336, Note_on_c, 0, 70, 89
1, 439384, Note_off_c, 0, 82, 64
1, 439412, Note_off_c, 0, 80, 64
1, 439412, Note_off_c, 0, 77, 64
1, 439416, Note_off_c, 0, 70, 64
1, 439464, Note_on_c, 0, 84, 76
1, 439472, Note_on_c, 0, 80, 79
1, 439472, Note_on_c, 0, 77, 79
1, 439472, Note_on_c, 0, 60, 64
1, 439472, Note_on_c, 0, 48, 73
1, 439484, Note_off_c, 0, 51, 64
1, 439488, Note_off_c, 0, 61, 64
1, 439552, Note_off_c, 0, 80, 64
1, 439556, Note_off_c, 0, 77, 64
1, 439608, Note_on_c, 0, 58, 43
1, 439608, Note_on_c, 0, 46, 46
1, 439612, Note_on_c, 0, 87, 75
1, 439620, Note_on_c, 0, 77, 73
1, 439624, Note_off_c, 0, 84, 64
1, 439624, Note_on_c, 0, 80, 68
1, 439632, Note_off_c, 0, 60, 64
1, 439632, Note_off_c, 0, 48, 64
1, 439700, Note_off_c, 0, 77, 64
1, 439704, Note_off_c, 0, 80, 64
1, 439756, Note_off_c, 0, 87, 64
1, 439760, Note_on_c, 0, 85, 85
1, 439764, Note_off_c, 0, 58, 64
1, 439764, Note_off_c, 0, 46, 64
1, 439768, Note_on_c, 0, 77, 76
1, 439768, Note_on_c, 0, 80, 79
1, 439772, Note_on_c, 0, 73, 79
1, 439780, Note_on_c, 0, 46, 96
1, 439780, Note_on_c, 0, 34, 90
1, 439848, Note_off_c, 0, 77, 64
1, 439852, Note_off_c, 0, 80, 64
1, 439856, Note_off_c, 0, 73, 64
1, 439904, Note_off_c, 0, 85, 64
1, 439908, Note_on_c, 0, 84, 83
1, 439908, Note_on_c, 0, 36, 73
1, 439912, Note_on_c, 0, 80, 62
1, 439916, Note_on_c, 0, 75, 68
1, 439920, Note_on_c, 0, 48, 62
1, 439936, Note_off_c, 0, 46, 64
1, 439936, Note_off_c, 0, 34, 64
1, 439992, Note_off_c, 0, 80, 64
1, 439996, Note_off_c, 0, 75, 64
1, 440048, Control_c, 0, 64, 0
1, 440052, Note_off_c, 0, 84, 64
1, 440064, Note_off_c, 0, 36, 64
1, 440064, Note_on_c, 0, 82, 79
1, 440068, Note_on_c, 0, 37, 81
1, 440072, Note_on_c, 0, 49, 82
1, 440072, Note_on_c, 0, 77, 68
1, 440076, Note_on_c, 0, 80, 78
1, 440080, Note_off_c, 0, 48, 64
1, 440080, Note_on_c, 0, 70, 86
1, 440096, Control_c, 0, 64, 127
1, 440156, Note_off_c, 0, 77, 64
1, 440160, Note_off_c, 0, 80, 64
1, 440160, Note_off_c, 0, 70, 64
1, 440228, Note_off_c, 0, 37, 64
1, 440232, Note_off_c, 0, 49, 64
1, 440232, Note_on_c, 0, 80, 76
1, 440232, Note_on_c, 0, 70, 90
1, 440232, Note_on_c, 0, 53, 83
1, 440232, Note_on_c, 0, 73, 68
1, 440244, Note_on_c, 0, 41, 78
1, 440312, Note_off_c, 0, 80, 64
1, 440312, Note_off_c, 0, 70, 64
1, 440316, Note_off_c, 0, 73, 64
1, 440392, Note_off_c, 0, 53, 64
1, 440392, Control_c, 0, 64, 0
1, 440400, Note_off_c, 0, 41, 64
1, 440408, Note_off_c, 0, 82, 64
1, 440424, Note_on_c, 0, 84, 85
1, 440424, Note_on_c, 0, 73, 80
1, 440428, Note_on_c, 0, 79, 79
1, 440428, Note_on_c, 0, 39, 85
1, 440432, Note_on_c, 0, 51, 96
1, 440440, Control_c, 0, 64, 127
1, 440508, Note_off_c, 0, 73, 64
1, 440512, Note_off_c, 0, 79, 64
1, 440588, Note_off_c, 0, 39, 64
1, 440592, Note_off_c, 0, 51, 64
1, 440592, Control_c, 0, 64, 0
1, 440608, Note_off_c, 0, 84, 64
1, 440612, Note_on_c, 0, 32, 78
1, 440616, Note_on_c, 0, 80, 79
1, 440616, Note_on_c, 0, 72, 90
1, 440616, Note_on_c, 0, 68, 87
1, 440616, Note_on_c, 0, 44, 87
1, 440640, Control_c, 0, 64, 127
1, 440700, Note_off_c, 0, 80, 64
1, 440700, Note_off_c, 0, 72, 64
1, 440700, Note_off_c, 0, 68, 64
1, 440768, Control_c, 0, 64, 0
1, 440784, Note_on_c, 0, 75, 85
1, 440784, Note_on_c, 0, 66, 85
1, 440784, Note_on_c, 0, 33, 75
1, 440792, Note_on_c, 0, 72, 79
1, 440792, Note_on_c, 0, 45, 85
1, 440796, Note_off_c, 0, 32, 64
1, 440800, Note_off_c, 0, 44, 64
1, 440804, Control_c, 0, 64, 127
1, 440868, Note_off_c, 0, 66, 64
1, 440872, Note_off_c, 0, 72, 64
1, 440872, Note_off_c, 0, 75, 64
1, 440924, Note_on_c, 0, 34, 73
1, 440928, Note_on_c, 0, 74, 79
1, 440932, Note_on_c, 0, 65, 73
1, 440932, Note_on_c, 0, 46, 90
1, 440944, Note_off_c, 0, 33, 64
1, 440952, Note_off_c, 0, 45, 64
1, 441008, Note_off_c, 0, 74, 64
1, 441012, Note_off_c, 0, 65, 64
1, 441028, Control_c, 0, 64, 0
1, 441052, Note_on_c, 0, 77, 79
1, 441056, Note_on_c, 0, 74, 78
1, 441060, Note_on_c, 0, 68, 85
1, 441060, Note_on_c, 0, 47, 83
1, 441064, Note_on_c, 0, 35, 68
1, 441080, Note_off_c, 0, 34, 64
1, 441080, Control_c, 0, 64, 127
1, 441088, Note_off_c, 0, 46, 64
1, 441140, Note_off_c, 0, 74, 64
1, 441144, Note_off_c, 0, 68, 64
1, 441164, Note_off_c, 0, 77, 64
1, 441192, Note_on_c, 0, 76, 70
1, 441192, Note_on_c, 0, 67, 79
1, 441200, Note_on_c, 0, 36, 68
1, 441200, Note_on_c, 0, 48, 89
1, 441220, Note_off_c, 0, 47, 64
1, 441224, Note_off_c, 0, 35, 64
1, 441276, Note_off_c, 0, 76, 64
1, 441276, Note_off_c, 0, 67, 64
1, 441328, Note_on_c, 0, 79, 79
1, 441328, Note_on_c, 0, 76, 73
1, 441332, Note_on_c, 0, 37, 78
1, 441336, Note_on_c, 0, 49, 87
1, 441340, Note_on_c, 0, 70, 79
1, 441356, Note_off_c, 0, 36, 64
1, 441360, Note_off_c, 0, 48, 64
1, 441412, Note_off_c, 0, 76, 64
1, 441424, Note_off_c, 0, 70, 64
1, 441432, Note_off_c, 0, 79, 64
1, 441452, Control_c, 0, 64, 0
1, 441464, Note_on_c, 0, 78, 75
1, 441468, Note_on_c, 0, 69, 78
1, 441472, Note_on_c, 0, 38, 71
1, 441476, Note_on_c, 0, 50, 85
1, 441492, Note_off_c, 0, 37, 64
1, 441496, Note_off_c, 0, 49, 64
1, 441504, Control_c, 0, 64, 127
1, 441552, Note_off_c, 0, 78, 64
1, 441556, Note_off_c, 0, 69, 64
1, 441624, Note_on_c, 0, 81, 81
1, 441624, Note_on_c, 0, 77, 78
1, 441632, Note_on_c, 0, 72, 70
1, 441632, Note_on_c, 0, 69, 74
1, 441636, Note_on_c, 0, 39, 73
1, 441636, Note_on_c, 0, 51, 81
1, 441656, Note_off_c, 0, 38, 64
1, 441660, Note_off_c, 0, 50, 64
1, 441712, Note_off_c, 0, 77, 64
1, 441720, Note_off_c, 0, 72, 64
1, 441720, Note_off_c, 0, 69, 64
1, 441744, Note_off_c, 0, 81, 64
1, 441792, Note_on_c, 0, 76, 70
1, 441792, Note_on_c, 0, 72, 68
1, 441796, Note_on_c, 0, 69, 71
1, 441796, Note_on_c, 0, 81, 75
1, 441800, Note_on_c, 0, 52, 71
1, 441804, Note_on_c, 0, 40, 79
1, 441820, Note_off_c, 0, 39, 64
1, 441820, Note_off_c, 0, 51, 64
1, 441880, Note_off_c, 0, 76, 64
1, 441880, Note_off_c, 0, 72, 64
1, 441884, Note_off_c, 0, 69, 64
1, 441884, Note_off_c, 0, 81, 64
1, 441972, Control_c, 0, 64, 0
1, 442000, Note_off_c, 0, 52, 64
1, 442004, Note_off_c, 0, 40, 64
1, 442008, Note_on_c, 0, 53, 86
1, 442012, Note_on_c, 0, 41, 82
1, 442016, Note_on_c, 0, 84, 83
1, 442016, Note_on_c, 0, 75, 87
1, 442020, Note_on_c, 0, 81, 85
1, 442020, Note_on_c, 0, 72, 87
1, 442032, Control_c, 0, 64, 127
1, 442096, Note_off_c, 0, 75, 64
1, 442104, Note_off_c, 0, 72, 64
1, 442116, Note_off_c, 0, 81, 64
1, 442164, Note_off_c, 0, 53, 64
1, 442168, Note_off_c, 0, 41, 64
1, 442172, Note_on_c, 0, 75, 91
1, 442176, Note_on_c, 0, 72, 87
1, 442176, Note_on_c, 0, 54, 73
1, 442180, Note_on_c, 0, 81, 76
1, 442180, Note_on_c, 0, 66, 81
1, 442256, Note_off_c, 0, 75, 64
1, 442256, Note_off_c, 0, 72, 64
1, 442264, Note_off_c, 0, 81, 64
1, 442296, Note_off_c, 0, 54, 64
1, 442304, Note_off_c, 0, 66, 64
1, 442308, Note_on_c, 0, 53, 76
1, 442312, Note_on_c, 0, 65, 79
1, 442312, Note_on_c, 0, 81, 78
1, 442312, Note_on_c, 0, 72, 81
1, 442316, Note_on_c, 0, 75, 85
1, 442396, Note_off_c, 0, 72, 64
1, 442396, Note_off_c, 0, 75, 64
1, 442396, Note_off_c, 0, 81, 64
1, 442448, Note_on_c, 0, 55, 67
1, 442448, Note_on_c, 0, 43, 74
1, 442460, Note_on_c, 0, 77, 90
1, 442460, Note_on_c, 0, 75, 82
1, 442464, Note_off_c, 0, 53, 64
1, 442468, Note_off_c, 0, 65, 64
1, 442544, Note_off_c, 0, 77, 64
1, 442544, Note_off_c, 0, 75, 64
1, 442592, Note_on_c, 0, 45, 73
1, 442596, Note_on_c, 0, 57, 65
1, 442600, Note_on_c, 0, 77, 86
1, 442600, Note_on_c, 0, 75, 81
1, 442608, Note_off_c, 0, 55, 64
1, 442608, Note_off_c, 0, 43, 64
1, 442680, Note_off_c, 0, 77, 64
1, 442680, Note_off_c, 0, 75, 64
1, 442732, Note_on_c, 0, 53, 50
1, 442732, Note_on_c, 0, 41, 53
1, 442732, Note_on_c, 0, 77, 86
1, 442732, Note_on_c, 0, 75, 79
1, 442748, Note_off_c, 0, 45, 64
1, 442756, Note_off_c, 0, 57, 64
1, 442760, Note_off_c, 0, 84, 64
1, 442816, Note_off_c, 0, 77, 64
1, 442816, Note_off_c, 0, 75, 64
1, 442860, Control_c, 0, 64, 0
1, 442876, Note_on_c, 0, 82, 73
1, 442876, Note_on_c, 0, 77, 83
1, 442880, Note_on_c, 0, 85, 87
1, 442880, Note_on_c, 0, 73, 83
1, 442880, Note_on_c, 0, 46, 79
1, 442888, Note_on_c, 0, 58, 66
1, 442904, Control_c, 0, 64, 127
1, 442916, Note_off_c, 0, 53, 64
1, 442916, Note_off_c, 0, 41, 64
1, 442960, Note_off_c, 0, 82, 64
1, 442960, Note_off_c, 0, 77, 64
1, 442964, Note_off_c, 0, 73, 64
1, 443056, Note_on_c, 0, 73, 79
1, 443056, Note_on_c, 0, 77, 68
1, 443056, Note_on_c, 0, 82, 74
1, 443064, Note_off_c, 0, 46, 64
1, 443064, Note_on_c, 0, 49, 93
1, 443072, Note_off_c, 0, 58, 64
1, 443072, Note_on_c, 0, 37, 93
1, 443136, Note_off_c, 0, 73, 64
1, 443136, Note_off_c, 0, 77, 64
1, 443140, Note_off_c, 0, 82, 64
1, 443192, Note_on_c, 0, 82, 80
1, 443196, Note_on_c, 0, 78, 85
1, 443196, Note_on_c, 0, 73, 68
1, 443200, Note_on_c, 0, 51, 78
1, 443204, Note_on_c, 0, 39, 78
1, 443220, Note_off_c, 0, 49, 64
1, 443232, Note_off_c, 0, 37, 64
1, 443272, Note_off_c, 0, 82, 64
1, 443280, Note_off_c, 0, 78, 64
1, 443280, Note_off_c, 0, 73, 64
1, 443296, Note_off_c, 0, 85, 64
1, 443308, Control_c, 0, 64, 0
1, 443332, Note_on_c, 0, 82, 74
1, 443332, Note_on_c, 0, 78, 85
1, 443336, Note_on_c, 0, 84, 78
1, 443336, Note_on_c, 0, 72, 85
1, 443340, Note_on_c, 0, 52, 67
1, 443340, Note_on_c, 0, 40, 67
1, 443360, Note_off_c, 0, 51, 64
1, 443360, Note_off_c, 0, 39, 64
1, 443368, Control_c, 0, 64, 127
1, 443412, Note_off_c, 0, 82, 64
1, 443412, Note_off_c, 0, 78, 64
1, 443416, Note_off_c, 0, 72, 64
1, 443472, Note_on_c, 0, 39, 73
1, 443472, Note_on_c, 0, 51, 73
1, 443476, Note_on_c, 0, 72, 79
1, 443480, Note_on_c, 0, 78, 71
1, 443480, Note_on_c, 0, 82, 79
1, 443500, Note_off_c, 0, 52, 64
1, 443500, Note_off_c, 0, 40, 64
1, 443560, Note_off_c, 0, 72, 64
1, 443560, Note_off_c, 0, 78, 64
1, 443564, Note_off_c, 0, 82, 64
1, 443600, Note_on_c, 0, 78, 73
1, 443608, Note_on_c, 0, 82, 73
1, 443608, Note_on_c, 0, 72, 78
1, 443612, Note_on_c, 0, 40, 78
1, 443616, Note_on_c, 0, 52, 85
1, 443632, Note_off_c, 0, 39, 64
1, 443632, Note_off_c, 0, 51, 64
1, 443684, Note_off_c, 0, 78, 64
1, 443688, Note_off_c, 0, 82, 64
1, 443688, Note_off_c, 0, 72, 64
1, 443720, Control_c, 0, 64, 0
1, 443740, Note_on_c, 0, 75, 85
1, 443740, Note_on_c, 0, 72, 81
1, 443744, Note_on_c, 0, 41, 73
1, 443752, Note_on_c, 0, 53, 87
1, 443752, Note_on_c, 0, 81, 75
1, 443772, Note_off_c, 0, 40, 64
1, 443772, Control_c, 0, 64, 127
1, 443776, Note_off_c, 0, 52, 64
1, 443824, Note_off_c, 0, 75, 64
1, 443824, Note_off_c, 0, 72, 64
1, 443832, Note_off_c, 0, 81, 64
1, 443880, Note_on_c, 0, 75, 83
1, 443884, Note_on_c, 0, 81, 73
1, 443884, Note_on_c, 0, 72, 75
1, 443884, Note_on_c, 0, 52, 79
1, 443884, Note_on_c, 0, 40, 73
1, 443904, Note_off_c, 0, 41, 64
1, 443908, Note_off_c, 0, 53, 64
1, 443912, Note_off_c, 0, 84, 64
1, 443964, Note_off_c, 0, 75, 64
1, 443968, Note_off_c, 0, 72, 64
1, 443968, Note_off_c, 0, 81, 64
1, 444024, Note_on_c, 0, 81, 74
1, 444024, Note_on_c, 0, 75, 68
1, 444028, Note_on_c, 0, 85, 93
1, 444028, Note_on_c, 0, 72, 73
1, 444032, Note_on_c, 0, 53, 73
1, 444032, Note_on_c, 0, 41, 73
1, 444044, Note_off_c, 0, 40, 64
1, 444044, Note_off_c, 0, 52, 64
1, 444104, Note_off_c, 0, 81, 64
1, 444104, Note_off_c, 0, 75, 64
1, 444112, Note_off_c, 0, 72, 64
1, 444152, Control_c, 0, 64, 0
1, 444176, Note_on_c, 0, 82, 83
1, 444180, Note_off_c, 0, 85, 64
1, 444180, Note_on_c, 0, 42, 76
1, 444180, Note_on_c, 0, 73, 82
1, 444184, Note_on_c, 0, 70, 85
1, 444184, Note_on_c, 0, 54, 79
1, 444192, Note_off_c, 0, 53, 64
1, 444192, Note_off_c, 0, 41, 64
1, 444200, Control_c, 0, 64, 127
1, 444264, Note_off_c, 0, 73, 64
1, 444268, Note_off_c, 0, 70, 64
1, 444328, Note_on_c, 0, 70, 85
1, 444332, Note_on_c, 0, 73, 81
1, 444336, Note_off_c, 0, 42, 64
1, 444344, Note_off_c, 0, 54, 64
1, 444348, Note_on_c, 0, 53, 78
1, 444348, Note_on_c, 0, 41, 79
1, 444412, Note_off_c, 0, 70, 64
1, 444416, Note_off_c, 0, 73, 64
1, 444472, Note_off_c, 0, 82, 64
1, 444504, Note_on_c, 0, 90, 93
1, 444512, Note_on_c, 0, 82, 90
1, 444512, Note_on_c, 0, 78, 91
1, 444520, Note_on_c, 0, 40, 71
1, 444524, Note_on_c, 0, 52, 83
1, 444532, Note_off_c, 0, 53, 64
1, 444532, Note_off_c, 0, 41, 64
1, 444592, Note_off_c, 0, 82, 64
1, 444596, Note_off_c, 0, 78, 64
1, 444668, Control_c, 0, 64, 0
1, 444676, Note_off_c, 0, 40, 64
1, 444680, Note_off_c, 0, 52, 64
1, 444692, Note_on_c, 0, 78, 83
1, 444696, Note_on_c, 0, 84, 80
1, 444696, Note_on_c, 0, 82, 89
1, 444696, Note_on_c, 0, 72, 83
1, 444704, Note_off_c, 0, 90, 64
1, 444704, Note_on_c, 0, 51, 93
1, 444704, Note_on_c, 0, 39, 85
1, 444712, Control_c, 0, 64, 127
1, 444776, Note_off_c, 0, 78, 64
1, 444776, Note_off_c, 0, 82, 64
1, 444776, Note_off_c, 0, 72, 64
1, 444860, Note_on_c, 0, 78, 87
1, 444860, Note_on_c, 0, 51, 93
1, 444864, Note_off_c, 0, 51, 64
1, 444864, Note_on_c, 0, 82, 87
1, 444864, Note_on_c, 0, 72, 85
1, 444872, Note_on_c, 0, 63, 59
1, 444888, Note_off_c, 0, 39, 64
1, 444944, Note_off_c, 0, 84, 64
1, 444944, Note_off_c, 0, 78, 64
1, 444948, Note_off_c, 0, 82, 64
1, 444948, Note_off_c, 0, 72, 64
1, 444984, Note_off_c, 0, 51, 64
1, 444992, Note_off_c, 0, 63, 64
1, 444992, Note_on_c, 0, 61, 81
1, 444996, Note_on_c, 0, 49, 81
1, 445000, Note_on_c, 0, 82, 93
1, 445000, Note_on_c, 0, 78, 68
1, 445008, Note_on_c, 0, 85, 93
1, 445008, Note_on_c, 0, 73, 93
1, 445084, Note_off_c, 0, 82, 64
1, 445084, Note_off_c, 0, 78, 64
1, 445088, Note_off_c, 0, 73, 64
1, 445184, Note_on_c, 0, 89, 90
1, 445184, Note_on_c, 0, 48, 79
1, 445188, Note_on_c, 0, 60, 81
1, 445192, Note_off_c, 0, 61, 64
1, 445192, Note_off_c, 0, 85, 64
1, 445192, Note_on_c, 0, 82, 68
1, 445196, Note_off_c, 0, 49, 64
1, 445196, Note_on_c, 0, 78, 89
1, 445276, Note_off_c, 0, 82, 64
1, 445276, Note_off_c, 0, 78, 64
1, 445352, Note_on_c, 0, 82, 73
1, 445352, Note_on_c, 0, 75, 90
1, 445360, Note_on_c, 0, 78, 68
1, 445364, Note_on_c, 0, 87, 85
1, 445368, Note_off_c, 0, 89, 64
1, 445368, Note_off_c, 0, 48, 64
1, 445368, Note_on_c, 0, 36, 74
1, 445372, Note_off_c, 0, 60, 64
1, 445376, Tempo, 500000
1, 445376, Note_on_c, 0, 48, 83
1, 445432, Note_off_c, 0, 82, 64
1, 445432, Note_off_c, 0, 75, 64
1, 445432, Tempo, 500000
1, 445436, Note_off_c, 0, 78, 64
1, 445524, Note_off_c, 0, 36, 64
1, 445524, Note_on_c, 0, 49, 73
1, 445524, Note_on_c, 0, 85, 90
1, 445524, Note_on_c, 0, 82, 93
1, 445528, Note_off_c, 0, 48, 64
1, 445528, Note_on_c, 0, 77, 68
1, 445536, Note_on_c, 0, 37, 79
1, 445544, Note_off_c, 0, 87, 64
1, 445608, Note_off_c, 0, 82, 64
1, 445612, Note_off_c, 0, 77, 64
1, 445672, Control_c, 0, 64, 0
1, 445688, Note_on_c, 0, 78, 73
1, 445688, Note_on_c, 0, 72, 83
1, 445692, Note_on_c, 0, 84, 83
1, 445696, Note_on_c, 0, 51, 93
1, 445700, Note_on_c, 0, 82, 86
1, 445700, Note_on_c, 0, 39, 85
1, 445708, Note_off_c, 0, 49, 64
1, 445708, Note_off_c, 0, 85, 64
1, 445720, Note_off_c, 0, 37, 64
1, 445728, Control_c, 0, 64, 127
1, 445772, Note_off_c, 0, 78, 64
1, 445772, Note_off_c, 0, 72, 64
1, 445780, Note_off_c, 0, 82, 64
1, 445876, Note_on_c, 0, 40, 82
1, 445876, Note_on_c, 0, 52, 81
1, 445880, Note_off_c, 0, 51, 64
1, 445880, Note_on_c, 0, 78, 68
1, 445880, Note_on_c, 0, 72, 68
1, 445884, Note_off_c, 0, 39, 64
1, 445884, Note_on_c, 0, 82, 90
1, 445964, Note_off_c, 0, 78, 64
1, 445964, Note_off_c, 0, 72, 64
1, 445964, Note_off_c, 0, 82, 64
1, 446036, Note_off_c, 0, 84, 64
1, 446052, Control_c, 0, 64, 0
1, 446072, Note_on_c, 0, 85, 90
1, 446072, Note_on_c, 0, 75, 68
1, 446076, Note_on_c, 0, 81, 83
1, 446076, Note_on_c, 0, 72, 99
1, 446076, Note_on_c, 0, 41, 79
1, 446076, Note_on_c, 0, 53, 83
1, 446088, Control_c, 0, 64, 127
1, 446092, Note_off_c, 0, 40, 64
1, 446092, Note_off_c, 0, 52, 64
1, 446156, Note_off_c, 0, 75, 64
1, 446156, Note_off_c, 0, 81, 64
1, 446156, Note_off_c, 0, 72, 64
1, 446216, Note_off_c, 0, 85, 64
1, 446284, Control_c, 0, 64, 0
1, 446304, Note_on_c, 0, 54, 80
1, 446308, Note_off_c, 0, 41, 64
1, 446308, Note_off_c, 0, 53, 64
1, 446308, Note_on_c, 0, 82, 85
1, 446308, Note_on_c, 0, 73, 83
1, 446308, Note_on_c, 0, 70, 89
1, 446308, Note_on_c, 0, 42, 79
1, 446308, Control_c, 0, 64, 0
1, 446332, Control_c, 0, 64, 127
1, 446344, Control_c, 0, 64, 127
1, 446424, Note_off_c, 0, 82, 64
1, 446424, Note_off_c, 0, 73, 64
1, 446424, Note_off_c, 0, 70, 64
1, 446452, Note_on_c, 0, 65, 66
1, 446460, Note_off_c, 0, 54, 64
1, 446488, Note_on_c, 0, 64, 69
1, 446488, Note_on_c, 0, 58, 83
1, 446488, Note_on_c, 0, 54, 68
1, 446488, Note_on_c, 0, 52, 79
1, 446492, Note_off_c, 0, 42, 64
1, 446532, Note_off_c, 0, 65, 64
1, 446532, Note_on_c, 0, 66, 44
1, 446604, Note_off_c, 0, 64, 64
1, 446604, Note_off_c, 0, 58, 64
1, 446604, Note_off_c, 0, 54, 64
1, 446604, Note_off_c, 0, 52, 64
1, 446616, Note_on_c, 0, 68, 35
1, 446624, Note_off_c, 0, 66, 64
1, 446652, Note_off_c, 0, 68, 64
1, 446652, Note_on_c, 0, 66, 82
1, 446656, Note_on_c, 0, 58, 57
1, 446660, Note_on_c, 0, 64, 65
1, 446660, Note_on_c, 0, 54, 57
1, 446660, Note_on_c, 0, 52, 90
1, 446692, Note_off_c, 0, 66, 64
1, 446692, Note_on_c, 0, 68, 85
1, 446724, Note_off_c, 0, 68, 64
1, 446728, Note_on_c, 0, 66, 85
1, 446756, Note_off_c, 0, 66, 64
1, 446764, Note_on_c, 0, 68, 82
1, 446772, Note_off_c, 0, 58, 64
1, 446776, Note_off_c, 0, 64, 64
1, 446776, Note_off_c, 0, 54, 64
1, 446776, Note_off_c, 0, 52, 64
1, 446796, Note_on_c, 0, 66, 83
1, 446808, Note_off_c, 0, 68, 64
1, 446808, Note_on_c, 0, 64, 79
1, 446816, Note_on_c, 0, 58, 72
1, 446816, Note_on_c, 0, 54, 66
1, 446816, Note_on_c, 0, 52, 57
1, 446840, Note_on_c, 0, 68, 35
1, 446856, Note_off_c, 0, 66, 64
1, 446876, Note_off_c, 0, 68, 64
1, 446880, Note_on_c, 0, 66, 82
1, 446904, Note_on_c, 0, 68, 85
1, 446920, Note_off_c, 0, 66, 64
1, 446924, Note_off_c, 0, 64, 64
1, 446932, Note_off_c, 0, 58, 64
1, 446932, Note_off_c, 0, 54, 64
1, 446932, Note_off_c, 0, 52, 64
1, 446932, Note_off_c, 0, 68, 64
1, 446936, Note_on_c, 0, 66, 85
1, 446964, Note_on_c, 0, 68, 82
1, 446968, Note_off_c, 0, 66, 64
1, 446968, Note_on_c, 0, 64, 65
1, 446968, Note_on_c, 0, 58, 81
1, 446968, Note_on_c, 0, 54, 57
1, 446968, Note_on_c, 0, 52, 79
1, 446996, Note_on_c, 0, 66, 83
1, 447004, Note_off_c, 0, 68, 64
1, 447044, Note_on_c, 0, 68, 35
1, 447056, Note_off_c, 0, 66, 64
1, 447080, Note_off_c, 0, 68, 64
1, 447080, Note_on_c, 0, 66, 82
1, 447084, Note_off_c, 0, 64, 64
1, 447084, Note_off_c, 0, 58, 64
1, 447084, Note_off_c, 0, 54, 64
1, 447084, Note_off_c, 0, 52, 64
1, 447116, Note_on_c, 0, 64, 65
1, 447124, Note_off_c, 0, 66, 64
1, 447124, Note_on_c, 0, 68, 85
1, 447124, Note_on_c, 0, 58, 81
1, 447124, Note_on_c, 0, 54, 57
1, 447124, Note_on_c, 0, 52, 81
1, 447152, Note_off_c, 0, 68, 64
1, 447156, Note_on_c, 0, 66, 85
1, 447188, Note_off_c, 0, 66, 64
1, 447196, Note_on_c, 0, 68, 82
1, 447224, Note_on_c, 0, 66, 83
1, 447232, Note_off_c, 0, 64, 64
1, 447236, Note_off_c, 0, 58, 64
1, 447236, Note_off_c, 0, 54, 64
1, 447236, Note_off_c, 0, 52, 64
1, 447236, Note_off_c, 0, 68, 64
1, 447252, Note_on_c, 0, 64, 73
1, 447252, Note_on_c, 0, 52, 73
1, 447256, Note_on_c, 0, 58, 81
1, 447256, Note_on_c, 0, 54, 73
1, 447264, Note_on_c, 0, 65, 81
1, 447284, Note_off_c, 0, 66, 64
1, 447300, Note_on_c, 0, 66, 87
1, 447308, Control_c, 0, 64, 0
1, 447320, Note_off_c, 0, 65, 64
1, 447320, Note_on_c, 0, 68, 37
1, 447348, Note_on_c, 0, 70, 83
1, 447356, Control_c, 0, 64, 127
1, 447364, Note_off_c, 0, 64, 64
1, 447364, Note_off_c, 0, 52, 64
1, 447368, Note_off_c, 0, 66, 64
1, 447372, Note_off_c, 0, 58, 64
1, 447372, Note_off_c, 0, 54, 64
1, 447380, Note_on_c, 0, 71, 85
1, 447388, Note_off_c, 0, 68, 64
1, 447412, Note_off_c, 0, 70, 64
1, 447428, Note_on_c, 0, 73, 83
1, 447444, Note_off_c, 0, 71, 64
1, 447468, Note_on_c, 0, 75, 85
1, 447496, Note_off_c, 0, 73, 64
1, 447512, Note_on_c, 0, 76, 89
1, 447524, Note_on_c, 0, 64, 68
1, 447532, Note_on_c, 0, 58, 64
1, 447532, Note_on_c, 0, 52, 71
1, 447536, Note_off_c, 0, 75, 64
1, 447536, Note_on_c, 0, 54, 68
1, 447568, Note_on_c, 0, 78, 87
1, 447580, Note_off_c, 0, 76, 64
1, 447616, Note_on_c, 0, 80, 73
1, 447636, Note_off_c, 0, 78, 64
1, 447640, Note_off_c, 0, 64, 64
1, 447648, Note_off_c, 0, 58, 64
1, 447648, Note_off_c, 0, 52, 64
1, 447652, Note_off_c, 0, 54, 64
1, 447652, Note_on_c, 0, 82, 39
1, 447684, Note_off_c, 0, 80, 64
1, 447692, Note_on_c, 0, 83, 83
1, 447720, Note_off_c, 0, 82, 64
1, 447728, Note_on_c, 0, 85, 86
1, 447756, Note_off_c, 0, 83, 64
1, 447776, Note_on_c, 0, 87, 85
1, 447796, Note_off_c, 0, 85, 64
1, 447796, Note_on_c, 0, 64, 53
1, 447796, Note_on_c, 0, 58, 45
1, 447800, Note_on_c, 0, 54, 50
1, 447800, Note_on_c, 0, 52, 57
1, 447828, Note_on_c, 0, 88, 79
1, 447844, Note_off_c, 0, 87, 64
1, 447860, Note_on_c, 0, 90, 56
1, 447884, Note_on_c, 0, 92, 83
1, 447892, Note_off_c, 0, 88, 64
1, 447908, Note_off_c, 0, 64, 64
1, 447908, Note_off_c, 0, 58, 64
1, 447916, Note_off_c, 0, 54, 64
1, 447916, Note_off_c, 0, 52, 64
1, 447924, Note_off_c, 0, 90, 64
1, 447924, Note_on_c, 0, 94, 94
1, 447952, Note_off_c, 0, 92, 64
1, 447960, Note_on_c, 0, 95, 94
1, 447992, Note_off_c, 0, 94, 64
1, 447992, Note_on_c, 0, 97, 108
1, 448012, Control_c, 0, 64, 0
1, 448028, Note_off_c, 0, 95, 64
1, 448052, Note_on_c, 0, 95, 108
1, 448056, Control_c, 0, 64, 0
1, 448060, Note_off_c, 0, 97, 64
1, 448060, Note_on_c, 0, 99, 108
1, 448060, Note_on_c, 0, 87, 96
1, 448076, Control_c, 0, 64, 127
1, 448080, Note_on_c, 0, 30, 79
1, 448080, Note_on_c, 0, 42, 83
1, 448092, Control_c, 0, 64, 127
1, 448148, Note_off_c, 0, 95, 64
1, 448148, Note_off_c, 0, 99, 64
1, 448156, Note_off_c, 0, 87, 64
1, 448300, Note_on_c, 0, 97, 102
1, 448300, Note_on_c, 0, 94, 59
1, 448300, Note_on_c, 0, 85, 74
1, 448300, Note_on_c, 0, 59, 65
1, 448300, Note_on_c, 0, 54, 68
1, 448300, Note_on_c, 0, 51, 68
1, 448328, Note_off_c, 0, 30, 64
1, 448344, Note_off_c, 0, 42, 64
1, 448380, Note_off_c, 0, 59, 64
1, 448380, Note_off_c, 0, 54, 64
1, 448380, Note_off_c, 0, 51, 64
1, 448408, Note_on_c, 0, 83, 81
1, 448412, Note_on_c, 0, 95, 89
1, 448412, Note_on_c, 0, 92, 83
1, 448424, Note_off_c, 0, 97, 64
1, 448424, Note_off_c, 0, 94, 64
1, 448424, Note_off_c, 0, 85, 64
1, 448484, Note_on_c, 0, 54, 67
1, 448488, Note_off_c, 0, 83, 64
1, 448488, Note_on_c, 0, 63, 68
1, 448488, Note_on_c, 0, 59, 68
1, 448488, Note_on_c, 0, 82, 85
1, 448492, Note_off_c, 0, 95, 64
1, 448492, Note_off_c, 0, 92, 64
1, 448492, Note_on_c, 0, 94, 100
1, 448492, Note_on_c, 0, 90, 68
1, 448564, Note_off_c, 0, 54, 64
1, 448568, Note_off_c, 0, 59, 64
1, 448568, Note_off_c, 0, 63, 64
1, 448572, Note_off_c, 0, 82, 64
1, 448572, Note_off_c, 0, 90, 64
1, 448572, Note_off_c, 0, 94, 64
1, 448572, Note_on_c, 0, 80, 89
1, 448580, Note_on_c, 0, 92, 98
1, 448580, Note_on_c, 0, 88, 68
1, 448656, Note_off_c, 0, 80, 64
1, 448660, Note_off_c, 0, 92, 64
1, 448664, Note_off_c, 0, 88, 64
1, 448668, Note_on_c, 0, 54, 78
1, 448672, Note_on_c, 0, 66, 83
1, 448672, Note_on_c, 0, 59, 78
1, 448672, Note_on_c, 0, 90, 86
1, 448672, Note_on_c, 0, 87, 83
1, 448676, Note_on_c, 0, 78, 93
1, 448748, Note_off_c, 0, 54, 64
1, 448752, Note_off_c, 0, 66, 64
1, 448752, Note_off_c, 0, 59, 64
1, 448856, Note_off_c, 0, 90, 64
1, 448856, Note_off_c, 0, 87, 64
1, 448860, Note_off_c, 0, 78, 64
1, 448916, Note_on_c, 0, 78, 83
1, 448916, Note_on_c, 0, 75, 85
1, 448916, Note_on_c, 0, 63, 59
1, 448916, Note_on_c, 0, 59, 38
1, 448916, Note_on_c, 0, 54, 62
1, 448996, Note_off_c, 0, 78, 64
1, 448996, Note_off_c, 0, 75, 64
1, 448996, Note_off_c, 0, 63, 64
1, 448996, Note_off_c, 0, 59, 64
1, 448996, Note_off_c, 0, 54, 64
1, 449104, Note_on_c, 0, 77, 83
1, 449104, Note_on_c, 0, 74, 87
1, 449108, Note_on_c, 0, 59, 38
1, 449108, Note_on_c, 0, 51, 59
1, 449112, Note_on_c, 0, 54, 62
1, 449184, Note_off_c, 0, 77, 64
1, 449184, Note_off_c, 0, 74, 64
1, 449192, Note_off_c, 0, 59, 64
1, 449192, Note_off_c, 0, 51, 64
1, 449192, Note_off_c, 0, 54, 64
1, 449296, Note_on_c, 0, 76, 83
1, 449296, Note_on_c, 0, 73, 93
1, 449300, Note_on_c, 0, 42, 72
1, 449304, Note_on_c, 0, 30, 78
1, 449388, Note_off_c, 0, 76, 64
1, 449388, Note_off_c, 0, 73, 64
1, 449388, Note_on_c, 0, 78, 80
1, 449424, Note_off_c, 0, 78, 64
1, 449444, Note_on_c, 0, 76, 79
1, 449464, Note_on_c, 0, 78, 82
1, 449476, Note_off_c, 0, 76, 64
1, 449492, Note_off_c, 0, 78, 64
1, 449500, Note_on_c, 0, 73, 52
1, 449500, Note_on_c, 0, 76, 75
1, 449508, Note_on_c, 0, 58, 78
1, 449508, Note_on_c, 0, 54, 68
1, 449516, Note_on_c, 0, 49, 63
1, 449528, Note_off_c, 0, 73, 64
1, 449532, Note_on_c, 0, 78, 90
1, 449544, Note_off_c, 0, 76, 64
1, 449556, Note_on_c, 0, 76, 82
1, 449560, Note_off_c, 0, 42, 64
1, 449560, Note_off_c, 0, 78, 64
1, 449564, Note_off_c, 0, 30, 64
1, 449564, Note_on_c, 0, 73, 75
1, 449592, Note_off_c, 0, 58, 64
1, 449592, Note_off_c, 0, 54, 64
1, 449592, Note_off_c, 0, 76, 64
1, 449592, Note_off_c, 0, 73, 64
1, 449596, Note_off_c, 0, 49, 64
1, 449600, Note_on_c, 0, 78, 68
1, 449616, Note_on_c, 0, 76, 73
1, 449628, Note_off_c, 0, 78, 64
1, 449648, Note_on_c, 0, 78, 76
1, 449656, Note_off_c, 0, 76, 64
1, 449716, Note_off_c, 0, 78, 64
1, 449716, Note_on_c, 0, 61, 80
1, 449720, Note_on_c, 0, 64, 35
1, 449720, Note_on_c, 0, 54, 35
1, 449724, Note_on_c, 0, 75, 93
1, 449724, Note_on_c, 0, 72, 85
1, 449796, Note_off_c, 0, 61, 64
1, 449804, Note_off_c, 0, 64, 64
1, 449804, Note_off_c, 0, 54, 64
1, 449848, Note_on_c, 0, 73, 85
1, 449852, Note_on_c, 0, 76, 78
1, 449868, Note_off_c, 0, 75, 64
1, 449868, Note_off_c, 0, 72, 64
1, 449932, Control_c, 0, 64, 0
1, 449984, Note_on_c, 0, 74, 85
1, 449984, Note_on_c, 0, 71, 83
1, 449984, Note_on_c, 0, 55, 62
1, 449988, Note_off_c, 0, 73, 64
1, 449988, Note_on_c, 0, 43, 79
1, 450000, Note_off_c, 0, 76, 64
1, 450004, Control_c, 0, 64, 127
1, 450108, Note_off_c, 0, 71, 64
1, 450108, Note_off_c, 0, 74, 64
1, 450228, Note_on_c, 0, 91, 81
1, 450228, Note_on_c, 0, 95, 98
1, 450236, Note_on_c, 0, 83, 81
1, 450244, Note_off_c, 0, 55, 64
1, 450252, Note_off_c, 0, 43, 64
1, 450340, Note_on_c, 0, 90, 89
1, 450344, Note_on_c, 0, 93, 95
1, 450348, Note_off_c, 0, 91, 64
1, 450348, Note_on_c, 0, 55, 60
1, 450352, Note_off_c, 0, 95, 64
1, 450352, Note_on_c, 0, 81, 79
1, 450356, Note_off_c, 0, 83, 64
1, 450356, Note_on_c, 0, 59, 70
1, 450356, Note_on_c, 0, 50, 73
1, 450432, Note_off_c, 0, 55, 64
1, 450436, Note_off_c, 0, 59, 64
1, 450436, Note_off_c, 0, 50, 64
1, 450440, Note_on_c, 0, 79, 83
1, 450444, Note_on_c, 0, 88, 85
1, 450448, Note_off_c, 0, 90, 64
1, 450448, Note_off_c, 0, 93, 64
1, 450448, Note_on_c, 0, 91, 75
1, 450456, Note_off_c, 0, 81, 64
1, 450540, Note_on_c, 0, 90, 50
1, 450540, Note_on_c, 0, 87, 82
1, 450544, Note_off_c, 0, 79, 64
1, 450548, Note_on_c, 0, 78, 85
1, 450548, Note_on_c, 0, 62, 69
1, 450548, Note_on_c, 0, 59, 69
1, 450548, Note_on_c, 0, 55, 68
1, 450552, Note_off_c, 0, 88, 64
1, 450556, Note_off_c, 0, 91, 64
1, 450628, Note_off_c, 0, 62, 64
1, 450628, Note_off_c, 0, 59, 64
1, 450628, Note_off_c, 0, 55, 64
1, 450632, Note_on_c, 0, 76, 82
1, 450636, Note_on_c, 0, 88, 67
1, 450636, Note_on_c, 0, 84, 49
1, 450644, Note_off_c, 0, 90, 64
1, 450644, Note_off_c, 0, 87, 64
1, 450652, Note_off_c, 0, 78, 64
1, 450732, Note_on_c, 0, 83, 79
1, 450740, Note_off_c, 0, 76, 64
1, 450740, Note_off_c, 0, 88, 64
1, 450740, Note_off_c, 0, 84, 64
1, 450740, Note_on_c, 0, 74, 85
1, 450740, Note_on_c, 0, 67, 79
1, 450740, Note_on_c, 0, 59, 76
1, 450740, Note_on_c, 0, 55, 75
1, 450740, Note_on_c, 0, 86, 81
1, 450820, Note_off_c, 0, 67, 64
1, 450820, Note_off_c, 0, 59, 64
1, 450820, Note_off_c, 0, 55, 64
1, 450916, Note_off_c, 0, 83, 64
1, 450924, Note_off_c, 0, 74, 64
1, 450924, Note_off_c, 0, 86, 64
1, 450952, Note_on_c, 0, 74, 81
1, 450956, Note_on_c, 0, 71, 80
1, 450956, Note_on_c, 0, 59, 48
1, 450956, Note_on_c, 0, 55, 73
1, 450960, Note_on_c, 0, 62, 49
1, 451036, Note_off_c, 0, 74, 64
1, 451036, Note_off_c, 0, 71, 64
1, 451036, Note_off_c, 0, 59, 64
1, 451036, Note_off_c, 0, 55, 64
1, 451044, Note_off_c, 0, 62, 64
1, 451140, Note_on_c, 0, 70, 78
1, 451144, Note_on_c, 0, 62, 73
1, 451148, Note_on_c, 0, 73, 76
1, 451152, Note_on_c, 0, 50, 48
1, 451224, Note_off_c, 0, 70, 64
1, 451224, Note_off_c, 0, 62, 64
1, 451228, Note_off_c, 0, 73, 64
1, 451236, Note_off_c, 0, 50, 64
1, 451336, Control_c, 0, 64, 0
1, 451356, Note_on_c, 0, 72, 85
1, 451364, Note_on_c, 0, 69, 79
1, 451364, Note_on_c, 0, 26, 68
1, 451372, Note_on_c, 0, 38, 70
1, 451396, Control_c, 0, 64, 127
1, 451492, Note_off_c, 0, 72, 64
1, 451492, Note_on_c, 0, 74, 46
1, 451536, Note_on_c, 0, 72, 73
1, 451544, Note_off_c, 0, 74, 64
1, 451552, Note_off_c, 0, 69, 64
1, 451568, Note_off_c, 0, 72, 64
1, 451568, Note_on_c, 0, 74, 76
1, 451604, Note_on_c, 0, 72, 85
1, 451604, Note_on_c, 0, 60, 49
1, 451604, Note_on_c, 0, 54, 34
1, 451604, Note_on_c, 0, 50, 53
1, 451612, Note_off_c, 0, 74, 64
1, 451616, Note_on_c, 0, 69, 38
1, 451628, Note_off_c, 0, 26, 64
1, 451632, Note_off_c, 0, 38, 64
1, 451632, Note_on_c, 0, 74, 75
1, 451640, Note_off_c, 0, 72, 64
1, 451640, Note_off_c, 0, 69, 64
1, 451660, Note_off_c, 0, 74, 64
1, 451664, Note_on_c, 0, 72, 79
1, 451668, Note_on_c, 0, 69, 62
1, 451684, Note_off_c, 0, 60, 64
1, 451684, Note_off_c, 0, 54, 64
1, 451684, Note_off_c, 0, 50, 64
1, 451692, Note_off_c, 0, 69, 64
1, 451696, Note_on_c, 0, 74, 80
1, 451700, Note_off_c, 0, 72, 64
1, 451728, Note_on_c, 0, 72, 79
1, 451732, Note_off_c, 0, 74, 64
1, 451732, Note_on_c, 0, 69, 57
1, 451756, Note_off_c, 0, 69, 64
1, 451760, Note_off_c, 0, 72, 64
1, 451764, Note_on_c, 0, 74, 71
1, 451784, Note_on_c, 0, 72, 76
1, 451788, Note_on_c, 0, 69, 47
1, 451812, Note_off_c, 0, 74, 64
1, 451824, Note_off_c, 0, 72, 64
1, 451892, Note_on_c, 0, 54, 56
1, 451896, Note_on_c, 0, 66, 66
1, 451900, Note_on_c, 0, 71, 85
1, 451900, Note_on_c, 0, 60, 70
1, 451900, Note_on_c, 0, 68, 85
1, 451916, Note_off_c, 0, 69, 64
1, 451972, Note_off_c, 0, 54, 64
1, 451980, Note_off_c, 0, 66, 64
1, 451980, Note_off_c, 0, 60, 64
1, 452012, Note_on_c, 0, 72, 80
1, 452012, Note_on_c, 0, 69, 85
1, 452020, Note_off_c, 0, 71, 64
1, 452024, Note_off_c, 0, 68, 64
1, 452136, Note_off_c, 0, 72, 64
1, 452136, Note_off_c, 0, 69, 64
1, 452148, Note_on_c, 0, 71, 79
1, 452148, Note_on_c, 0, 69, 76
1, 452148, Note_on_c, 0, 66, 76
1, 452148, Note_on_c, 0, 59, 78
1, 452152, Note_on_c, 0, 51, 85
1, 452152, Note_on_c, 0, 39, 83
1, 452192, Control_c, 0, 64, 127
1, 452352, Note_off_c, 0, 71, 64
1, 452356, Note_off_c, 0, 69, 64
1, 452356, Note_off_c, 0, 66, 64
1, 452356, Note_on_c, 0, 68, 79
1, 452360, Note_on_c, 0, 64, 79
1, 452364, Note_on_c, 0, 40, 82
1, 452368, Note_off_c, 0, 51, 64
1, 452368, Note_off_c, 0, 39, 64
1, 452368, Note_on_c, 0, 52, 81
1, 452416, Note_off_c, 0, 59, 64
1, 452436, Note_off_c, 0, 68, 64
1, 452440, Note_off_c, 0, 64, 64
1, 452532, Control_c, 0, 64, 0
1, 452548, Note_on_c, 0, 76, 81
1, 452548, Note_on_c, 0, 71, 68
1, 452548, Note_on_c, 0, 64, 78
1, 452556, Note_on_c, 0, 74, 69
1, 452564, Note_off_c, 0, 40, 64
1, 452564, Note_on_c, 0, 56, 87
1, 452564, Note_on_c, 0, 44, 76
1, 452568, Note_off_c, 0, 52, 64
1, 452596, Control_c, 0, 64, 127
1, 452736, Note_on_c, 0, 73, 79
1, 452740, Note_on_c, 0, 69, 72
1, 452744, Note_on_c, 0, 57, 81
1, 452744, Note_on_c, 0, 45, 78
1, 452748, Note_off_c, 0, 56, 64
1, 452748, Note_off_c, 0, 44, 64
1, 452764, Note_off_c, 0, 76, 64
1, 452764, Note_off_c, 0, 71, 64
1, 452768, Note_off_c, 0, 74, 64
1, 452816, Note_off_c, 0, 73, 64
1, 452820, Note_off_c, 0, 69, 64
1, 452832, Note_off_c, 0, 64, 64
1, 452916, Control_c, 0, 64, 0
1, 452928, Note_off_c, 0, 57, 64
1, 452928, Note_off_c, 0, 45, 64
1, 452928, Note_on_c, 0, 79, 70
1, 452928, Note_on_c, 0, 81, 79
1, 452932, Note_on_c, 0, 69, 69
1, 452936, Note_on_c, 0, 76, 75
1, 452940, Note_on_c, 0, 61, 87
1, 452940, Note_on_c, 0, 49, 78
1, 452956, Control_c, 0, 64, 127
1, 453108, Note_on_c, 0, 78, 85
1, 453108, Note_on_c, 0, 50, 76
1, 453112, Note_on_c, 0, 72, 81
1, 453112, Note_on_c, 0, 62, 81
1, 453124, Note_off_c, 0, 49, 64
1, 453124, Note_off_c, 0, 61, 64
1, 453140, Note_off_c, 0, 79, 64
1, 453140, Note_off_c, 0, 81, 64
1, 453148, Note_off_c, 0, 76, 64
1, 453188, Note_off_c, 0, 78, 64
1, 453196, Note_off_c, 0, 72, 64
1, 453216, Note_off_c, 0, 69, 64
1, 453252, Control_c, 0, 64, 0
1, 453264, Note_off_c, 0, 50, 64
1, 453272, Note_off_c, 0, 62, 64
1, 453284, Note_on_c, 0, 83, 81
1, 453288, Note_on_c, 0, 81, 74
1, 453288, Note_on_c, 0, 78, 76
1, 453288, Note_on_c, 0, 71, 76
1, 453296, Note_on_c, 0, 63, 90
1, 453296, Note_on_c, 0, 51, 79
1, 453308, Control_c, 0, 64, 127
1, 453484, Note_on_c, 0, 80, 79
1, 453484, Note_on_c, 0, 52, 76
1, 453488, Note_on_c, 0, 74, 79
1, 453488, Note_on_c, 0, 64, 79
1, 453496, Note_off_c, 0, 63, 64
1, 453496, Note_off_c, 0, 51, 64
1, 453500, Note_off_c, 0, 83, 64
1, 453500, Note_off_c, 0, 81, 64
1, 453500, Note_off_c, 0, 78, 64
1, 453564, Note_off_c, 0, 80, 64
1, 453572, Note_off_c, 0, 71, 64
1, 453572, Note_off_c, 0, 74, 64
1, 453644, Note_off_c, 0, 52, 64
1, 453648, Note_off_c, 0, 64, 64
1, 453660, Control_c, 0, 64, 0
1, 453672, Note_on_c, 0, 73, 82
1, 453676, Note_on_c, 0, 53, 73
1, 453680, Note_on_c, 0, 85, 89
1, 453680, Note_on_c, 0, 83, 73
1, 453680, Note_on_c, 0, 80, 79
1, 453680, Note_on_c, 0, 65, 73
1, 453684, Note_on_c, 0, 61, 69
1, 453684, Note_on_c, 0, 56, 68
1, 453708, Control_c, 0, 64, 127
1, 453876, Note_on_c, 0, 82, 75
1, 453876, Note_on_c, 0, 76, 68
1, 453880, Note_on_c, 0, 66, 79
1, 453880, Note_on_c, 0, 54, 79
1, 453884, Note_off_c, 0, 61, 64
1, 453888, Note_on_c, 0, 61, 68
1, 453892, Note_off_c, 0, 53, 64
1, 453896, Note_off_c, 0, 65, 64
1, 453900, Note_off_c, 0, 56, 64
1, 453908, Note_off_c, 0, 85, 64
1, 453908, Note_off_c, 0, 83, 64
1, 453908, Note_off_c, 0, 80, 64
1, 453956, Note_off_c, 0, 82, 64
1, 453956, Note_off_c, 0, 76, 64
1, 453992, Note_off_c, 0, 73, 64
1, 454040, Note_off_c, 0, 66, 64
1, 454040, Note_off_c, 0, 54, 64
1, 454048, Note_off_c, 0, 61, 64
1, 454068, Control_c, 0, 64, 0
1, 454088, Note_on_c, 0, 55, 78
1, 454092, Note_on_c, 0, 85, 83
1, 454092, Note_on_c, 0, 82, 80
1, 454092, Note_on_c, 0, 67, 78
1, 454092, Note_on_c, 0, 63, 72
1, 454092, Note_on_c, 0, 58, 68
1, 454100, Note_on_c, 0, 75, 93
1, 454100, Note_on_c, 0, 73, 96
1, 454128, Control_c, 0, 64, 127
1, 454312, Note_off_c, 0, 75, 64
1, 454316, Note_on_c, 0, 68, 79
1, 454320, Note_off_c, 0, 55, 64
1, 454320, Note_on_c, 0, 56, 82
1, 454324, Note_off_c, 0, 67, 64
1, 454324, Note_off_c, 0, 63, 64
1, 454324, Note_off_c, 0, 58, 64
1, 454324, Note_on_c, 0, 75, 68
1, 454324, Note_on_c, 0, 84, 83
1, 454324, Note_on_c, 0, 80, 82
1, 454328, Note_on_c, 0, 72, 85
1, 454328, Note_on_c, 0, 63, 81
1, 454340, Note_off_c, 0, 85, 64
1, 454340, Note_off_c, 0, 82, 64
1, 454348, Note_off_c, 0, 73, 64
1, 454500, Note_off_c, 0, 68, 64
1, 454504, Note_off_c, 0, 56, 64
1, 454512, Note_off_c, 0, 63, 64
1, 454536, Note_off_c, 0, 75, 64
1, 454536, Note_off_c, 0, 84, 64
1, 454536, Note_off_c, 0, 80, 64
1, 454540, Note_off_c, 0, 72, 64
1, 454540, Control_c, 0, 64, 0
1, 454552, Note_on_c, 0, 77, 87
1, 454556, Note_on_c, 0, 84, 85
1, 454556, Note_on_c, 0, 37, 85
1, 454564, Note_on_c, 0, 72, 85
1, 454564, Note_on_c, 0, 49, 85
1, 454592, Control_c, 0, 64, 127
1, 454784, Note_off_c, 0, 77, 64
1, 454784, Note_on_c, 0, 82, 87
1, 454788, Note_off_c, 0, 84, 64
1, 454788, Note_on_c, 0, 70, 91
1, 454788, Note_on_c, 0, 58, 70
1, 454792, Note_on_c, 0, 61, 68
1, 454792, Note_on_c, 0, 56, 71
1, 454796, Note_off_c, 0, 72, 64
1, 454796, Note_on_c, 0, 77, 85
1, 454800, Note_on_c, 0, 65, 71
1, 454820, Note_off_c, 0, 37, 64
1, 454828, Note_off_c, 0, 49, 64
1, 454912, Note_off_c, 0, 58, 64
1, 454916, Note_off_c, 0, 61, 64
1, 454916, Note_off_c, 0, 56, 64
1, 454924, Note_off_c, 0, 65, 64
1, 454936, Note_off_c, 0, 77, 64
1, 454940, Note_off_c, 0, 82, 64
1, 454940, Note_on_c, 0, 84, 83
1, 454948, Note_off_c, 0, 70, 64
1, 454948, Note_on_c, 0, 72, 83
1, 454948, Note_on_c, 0, 65, 73
1, 454948, Note_on_c, 0, 61, 73
1, 454948, Note_on_c, 0, 56, 74
1, 454956, Note_on_c, 0, 77, 85
1, 454956, Note_on_c, 0, 58, 66
1, 455068, Note_off_c, 0, 65, 64
1, 455068, Note_off_c, 0, 61, 64
1, 455068, Note_off_c, 0, 56, 64
1, 455076, Note_off_c, 0, 58, 64
1, 455096, Note_off_c, 0, 84, 64
1, 455096, Note_off_c, 0, 77, 64
1, 455104, Note_off_c, 0, 72, 64
1, 455108, Note_on_c, 0, 85, 93
1, 455108, Note_on_c, 0, 77, 83
1, 455108, Note_on_c, 0, 73, 85
1, 455108, Note_on_c, 0, 58, 71
1, 455116, Note_on_c, 0, 61, 79
1, 455116, Note_on_c, 0, 56, 79
1, 455116, Note_on_c, 0, 65, 79
1, 455232, Note_off_c, 0, 58, 64
1, 455236, Note_off_c, 0, 61, 64
1, 455236, Note_off_c, 0, 56, 64
1, 455240, Note_off_c, 0, 65, 64
1, 455276, Note_off_c, 0, 85, 64
1, 455292, Note_off_c, 0, 77, 64
1, 455292, Note_off_c, 0, 73, 64
1, 455292, Note_on_c, 0, 85, 89
1, 455292, Note_on_c, 0, 91, 93
1, 455292, Note_on_c, 0, 79, 75
1, 455296, Note_on_c, 0, 58, 67
1, 455300, Note_on_c, 0, 61, 79
1, 455300, Note_on_c, 0, 56, 80
1, 455304, Note_on_c, 0, 67, 81
1, 455420, Note_off_c, 0, 58, 64
1, 455420, Note_off_c, 0, 61, 64
1, 455420, Note_off_c, 0, 56, 64
1, 455428, Note_off_c, 0, 67, 64
1, 455476, Note_off_c, 0, 85, 64
1, 455488, Note_on_c, 0, 58, 68
1, 455492, Note_on_c, 0, 56, 81
1, 455492, Note_on_c, 0, 85, 89
1, 455496, Note_on_c, 0, 77, 73
1, 455500, Note_on_c, 0, 68, 79
1, 455500, Note_on_c, 0, 61, 80
1, 455500, Note_on_c, 0, 89, 81
1, 455508, Note_off_c, 0, 91, 64
1, 455508, Note_off_c, 0, 79, 64
1, 455612, Note_off_c, 0, 58, 64
1, 455616, Note_off_c, 0, 56, 64
1, 455620, Note_off_c, 0, 68, 64
1, 455620, Note_off_c, 0, 61, 64
1, 455724, Note_off_c, 0, 85, 64
1, 455724, Note_on_c, 0, 87, 91
1, 455724, Note_on_c, 0, 84, 85
1, 455724, Note_on_c, 0, 75, 86
1, 455728, Note_off_c, 0, 77, 64
1, 455728, Note_on_c, 0, 39, 89
1, 455728, Note_on_c, 0, 27, 89
1, 455732, Note_off_c, 0, 89, 64
1, 455848, Note_off_c, 0, 87, 64
1, 455848, Note_off_c, 0, 84, 64
1, 455848, Note_off_c, 0, 75, 64
1, 455944, Note_off_c, 0, 27, 64
1, 455948, Note_on_c, 0, 75, 77
1, 455956, Note_on_c, 0, 72, 72
1, 455960, Note_off_c, 0, 39, 64
1, 455960, Note_on_c, 0, 63, 82
1, 455988, Note_off_c, 0, 72, 64
1, 455996, Note_off_c, 0, 63, 64
1, 456008, Note_off_c, 0, 75, 64
1, 456064, Note_on_c, 0, 75, 77
1, 456080, Note_on_c, 0, 72, 75
1, 456080, Note_on_c, 0, 63, 83
1, 456116, Note_off_c, 0, 63, 64
1, 456120, Note_off_c, 0, 72, 64
1, 456124, Note_off_c, 0, 75, 64
1, 456128, Note_on_c, 0, 51, 77
1, 456128, Note_on_c, 0, 39, 77
1, 456164, Control_c, 0, 64, 0
1, 456168, Note_off_c, 0, 51, 64
1, 456172, Note_off_c, 0, 39, 64
1, 456180, Tempo, 625000
1, 456184, Note_on_c, 0, 63, 82
1, 456184, Note_on_c, 0, 75, 98
1, 456184, Note_on_c, 0, 68, 65
1, 456188, Note_on_c, 0, 72, 71
1, 456196, Note_on_c, 0, 56, 88
1, 456196, Note_on_c, 0, 44, 83
1, 456204, Control_c, 0, 64, 127
1, 456232, Note_off_c, 0, 68, 64
1, 456236, Note_off_c, 0, 63, 64
1, 456240, Note_off_c, 0, 72, 64
1, 456288, Note_on_c, 0, 68, 65
1, 456288, Note_on_c, 0, 63, 77
1, 456300, Note_on_c, 0, 72, 62
1, 456324, Note_off_c, 0, 63, 64
1, 456332, Note_off_c, 0, 72, 64
1, 456336, Note_off_c, 0, 68, 64
1, 456396, Note_on_c, 0, 63, 65
1, 456404, Note_on_c, 0, 72, 71
1, 456404, Note_on_c, 0, 68, 77
1, 456424, Note_off_c, 0, 56, 64
1, 456424, Note_off_c, 0, 44, 64
1, 456436, Note_off_c, 0, 68, 64
1, 456444, Note_off_c, 0, 63, 64
1, 456444, Note_off_c, 0, 72, 64
1, 456448, Note_on_c, 0, 58, 80
1, 456452, Note_on_c, 0, 46, 71
1, 456492, Note_on_c, 0, 63, 65
1, 456496, Note_off_c, 0, 58, 64
1, 456496, Note_on_c, 0, 72, 72
1, 456500, Note_off_c, 0, 46, 64
1, 456500, Note_on_c, 0, 68, 64
1, 456504, Note_on_c, 0, 48, 72
1, 456508, Note_on_c, 0, 60, 79
1, 456536, Note_off_c, 0, 68, 64
1, 456540, Note_off_c, 0, 63, 64
1, 456548, Note_off_c, 0, 72, 64
1, 456596, Note_on_c, 0, 72, 72
1, 456600, Note_on_c, 0, 68, 54
1, 456636, Note_off_c, 0, 68, 64
1, 456640, Note_off_c, 0, 72, 64
1, 456708, Note_on_c, 0, 68, 67
1, 456708, Note_on_c, 0, 72, 73
1, 456732, Note_off_c, 0, 48, 64
1, 456740, Note_off_c, 0, 60, 64
1, 456740, Note_off_c, 0, 68, 64
1, 456740, Note_on_c, 0, 65, 82
1, 456748, Note_on_c, 0, 53, 75
1, 456756, Note_off_c, 0, 72, 64
1, 456784, Note_off_c, 0, 65, 64
1, 456784, Note_off_c, 0, 53, 64
1, 456812, Note_on_c, 0, 72, 72
1, 456812, Note_on_c, 0, 68, 69
1, 456812, Note_on_c, 0, 63, 94
1, 456816, Note_on_c, 0, 51, 83
1, 456852, Note_off_c, 0, 68, 64
1, 456860, Note_off_c, 0, 72, 64
1, 456912, Note_on_c, 0, 72, 71
1, 456912, Note_on_c, 0, 68, 58
1, 456944, Note_off_c, 0, 68, 64
1, 456956, Note_off_c, 0, 72, 64
1, 456996, Note_off_c, 0, 63, 64
1, 457004, Note_on_c, 0, 68, 74
1, 457008, Note_on_c, 0, 72, 82
1, 457012, Note_on_c, 0, 63, 65
1, 457044, Note_off_c, 0, 51, 64
1, 457052, Note_off_c, 0, 68, 64
1, 457052, Note_off_c, 0, 72, 64
1, 457056, Note_on_c, 0, 60, 71
1, 457060, Note_off_c, 0, 63, 64
1, 457060, Note_on_c, 0, 48, 71
1, 457064, Note_off_c, 0, 75, 64
1, 457084, Note_off_c, 0, 60, 64
1, 457096, Note_off_c, 0, 48, 64
1, 457104, Note_on_c, 0, 68, 63
1, 457108, Note_on_c, 0, 63, 82
1, 457112, Note_on_c, 0, 72, 73
1, 457112, Note_on_c, 0, 58, 88
1, 457112, Note_on_c, 0, 46, 83
1, 457148, Note_off_c, 0, 68, 64
1, 457148, Note_off_c, 0, 63, 64
1, 457156, Note_off_c, 0, 72, 64
1, 457204, Note_on_c, 0, 72, 56
1, 457204, Note_on_c, 0, 68, 71
1, 457204, Note_on_c, 0, 63, 58
1, 457236, Note_off_c, 0, 68, 64
1, 457236, Note_off_c, 0, 63, 64
1, 457244, Note_off_c, 0, 72, 64
1, 457292, Note_on_c, 0, 63, 77
1, 457300, Note_on_c, 0, 72, 70
1, 457300, Note_on_c, 0, 68, 47
1, 457332, Note_off_c, 0, 63, 64
1, 457332, Note_off_c, 0, 68, 64
1, 457340, Note_off_c, 0, 58, 64
1, 457340, Note_off_c, 0, 46, 64
1, 457340, Note_off_c, 0, 72, 64
1, 457348, Note_on_c, 0, 60, 71
1, 457348, Note_on_c, 0, 48, 71
1, 457384, Note_off_c, 0, 60, 64
1, 457388, Note_off_c, 0, 48, 64
1, 457400, Note_on_c, 0, 75, 92
1, 457400, Note_on_c, 0, 72, 70
1, 457400, Note_on_c, 0, 68, 77
1, 457404, Note_on_c, 0, 46, 86
1, 457408, Note_on_c, 0, 63, 82
1, 457408, Note_on_c, 0, 58, 90
1, 457428, Note_off_c, 0, 68, 64
1, 457440, Note_off_c, 0, 72, 64
1, 457452, Note_off_c, 0, 63, 64
1, 457504, Note_on_c, 0, 63, 75
1, 457508, Note_on_c, 0, 68, 77
1, 457516, Note_on_c, 0, 72, 72
1, 457520, Note_on_c, 0, 63, 82
1, 457544, Note_off_c, 0, 63, 64
1, 457548, Note_off_c, 0, 72, 64
1, 457552, Note_off_c, 0, 68, 64
1, 457556, Note_off_c, 0, 63, 64
1, 457612, Note_off_c, 0, 75, 64
1, 457612, Note_on_c, 0, 72, 72
1, 457612, Note_on_c, 0, 68, 71
1, 457616, Note_on_c, 0, 77, 90
1, 457620, Note_on_c, 0, 63, 82
1, 457632, Note_off_c, 0, 46, 64
1, 457636, Note_off_c, 0, 58, 64
1, 457644, Note_off_c, 0, 72, 64
1, 457648, Note_off_c, 0, 68, 64
1, 457660, Note_off_c, 0, 63, 64
1, 457664, Note_on_c, 0, 56, 83
1, 457664, Note_on_c, 0, 44, 77
1, 457684, Note_off_c, 0, 77, 64
1, 457692, Note_off_c, 0, 56, 64
1, 457696, Note_off_c, 0, 44, 64
1, 457728, Control_c, 0, 64, 0
1, 457748, Note_on_c, 0, 73, 77
1, 457752, Note_on_c, 0, 77, 95
1, 457752, Note_on_c, 0, 39, 89
1, 457752, Note_on_c, 0, 27, 89
1, 457752, Note_on_c, 0, 65, 77
1, 457760, Note_on_c, 0, 67, 82
1, 457772, Control_c, 0, 64, 127
1, 457788, Note_off_c, 0, 67, 64
1, 457792, Note_off_c, 0, 65, 64
1, 457796, Note_off_c, 0, 73, 64
1, 457844, Note_on_c, 0, 73, 80
1, 457848, Note_on_c, 0, 65, 66
1, 457852, Note_on_c, 0, 67, 63
1, 457880, Note_off_c, 0, 67, 64
1, 457884, Note_off_c, 0, 73, 64
1, 457884, Note_off_c, 0, 65, 64
1, 457948, Note_on_c, 0, 67, 78
1, 457948, Note_on_c, 0, 73, 78
1, 457952, Note_on_c, 0, 65, 67
1, 457980, Note_off_c, 0, 39, 64
1, 457980, Note_off_c, 0, 27, 64
1, 457984, Note_off_c, 0, 77, 64
1, 457992, Note_off_c, 0, 67, 64
1, 457992, Note_off_c, 0, 65, 64
1, 458000, Note_off_c, 0, 73, 64
1, 458016, Note_on_c, 0, 51, 82
1, 458016, Note_on_c, 0, 39, 78
1, 458044, Note_off_c, 0, 39, 64
1, 458052, Note_off_c, 0, 51, 64
1, 458060, Note_on_c, 0, 75, 102
1, 458064, Note_on_c, 0, 46, 83
1, 458068, Note_on_c, 0, 67, 77
1, 458068, Note_on_c, 0, 58, 93
1, 458072, Note_on_c, 0, 73, 71
1, 458076, Note_on_c, 0, 63, 97
1, 458108, Note_off_c, 0, 67, 64
1, 458112, Note_off_c, 0, 73, 64
1, 458116, Note_off_c, 0, 63, 64
1, 458156, Note_on_c, 0, 63, 80
1, 458164, Note_on_c, 0, 67, 71
1, 458196, Note_off_c, 0, 63, 64
1, 458196, Note_off_c, 0, 67, 64
1, 458260, Note_on_c, 0, 67, 78
1, 458260, Note_on_c, 0, 63, 72
1, 458292, Note_off_c, 0, 46, 64
1, 458296, Note_on_c, 0, 60, 71
1, 458296, Note_on_c, 0, 48, 77
1, 458300, Note_off_c, 0, 58, 64
1, 458300, Note_off_c, 0, 67, 64
1, 458308, Note_off_c, 0, 63, 64
1, 458332, Note_off_c, 0, 60, 64
1, 458336, Note_off_c, 0, 48, 64
1, 458340, Control_c, 0, 64, 0
1, 458356, Note_on_c, 0, 49, 86
1, 458360, Note_on_c, 0, 61, 94
1, 458364, Note_on_c, 0, 67, 77
1, 458372, Control_c, 0, 64, 127
1, 458400, Note_off_c, 0, 67, 64
1, 458456, Note_on_c, 0, 67, 77
1, 458492, Note_off_c, 0, 67, 64
1, 458556, Note_on_c, 0, 67, 77
1, 458588, Note_off_c, 0, 49, 64
1, 458592, Note_off_c, 0, 61, 64
1, 458596, Note_off_c, 0, 67, 64
1, 458596, Note_on_c, 0, 65, 77
1, 458596, Note_on_c, 0, 53, 70
1, 458636, Note_off_c, 0, 53, 64
1, 458640, Note_off_c, 0, 65, 64
1, 458652, Note_on_c, 0, 63, 96
1, 458656, Note_on_c, 0, 72, 69
1, 458656, Note_on_c, 0, 51, 83
1, 458660, Note_on_c, 0, 67, 77
1, 458700, Note_off_c, 0, 67, 64
1, 458720, Note_off_c, 0, 72, 64
1, 458744, Note_on_c, 0, 72, 58
1, 458748, Note_on_c, 0, 68, 67
1, 458792, Note_off_c, 0, 72, 64
1, 458796, Note_off_c, 0, 68, 64
1, 458804, Note_off_c, 0, 75, 64
1, 458836, Note_off_c, 0, 63, 64
1, 458840, Note_on_c, 0, 63, 65
1, 458844, Note_on_c, 0, 72, 47
1, 458848, Note_on_c, 0, 68, 65
1, 458884, Note_off_c, 0, 51, 64
1, 458884, Note_on_c, 0, 48, 71
1, 458888, Note_off_c, 0, 63, 64
1, 458892, Note_on_c, 0, 60, 78
1, 458896, Note_off_c, 0, 72, 64
1, 458896, Note_off_c, 0, 68, 64
1, 458920, Note_off_c, 0, 48, 64
1, 458920, Control_c, 0, 64, 0
1, 458924, Note_off_c, 0, 60, 64
1, 458944, Note_on_c, 0, 68, 78
1, 458944, Note_on_c, 0, 63, 90
1, 458944, Note_on_c, 0, 58, 90
1, 458952, Note_on_c, 0, 75, 102
1, 458952, Note_on_c, 0, 72, 75
1, 458952, Note_on_c, 0, 46, 86
1, 458968, Control_c, 0, 64, 127
1, 458980, Note_off_c, 0, 63, 64
1, 458988, Note_off_c, 0, 68, 64
1, 459008, Note_off_c, 0, 72, 64
1, 459044, Note_on_c, 0, 63, 75
1, 459048, Note_on_c, 0, 68, 63
1, 459052, Note_on_c, 0, 72, 33
1, 459080, Note_off_c, 0, 63, 64
1, 459080, Note_off_c, 0, 68, 64
1, 459092, Note_off_c, 0, 72, 64
1, 459112, Note_off_c, 0, 75, 64
1, 459132, Note_on_c, 0, 63, 77
1, 459140, Note_on_c, 0, 68, 65
1, 459144, Note_on_c, 0, 72, 66
1, 459176, Note_off_c, 0, 58, 64
1, 459176, Note_off_c, 0, 63, 64
1, 459180, Note_on_c, 0, 48, 70
1, 459184, Note_off_c, 0, 46, 64
1, 459184, Note_off_c, 0, 72, 64
1, 459188, Note_off_c, 0, 68, 64
1, 459188, Note_on_c, 0, 60, 73
1, 459224, Note_off_c, 0, 60, 64
1, 459228, Note_off_c, 0, 48, 64
1, 459232, Note_on_c, 0, 75, 102
1, 459232, Note_on_c, 0, 46, 86
1, 459240, Note_on_c, 0, 58, 93
1, 459244, Note_on_c, 0, 72, 65
1, 459248, Note_on_c, 0, 68, 82
1, 459248, Note_on_c, 0, 63, 88
1, 459268, Note_off_c, 0, 63, 64
1, 459276, Note_off_c, 0, 68, 64
1, 459300, Note_off_c, 0, 72, 64
1, 459332, Note_on_c, 0, 72, 65
1, 459332, Note_on_c, 0, 68, 65
1, 459332, Note_on_c, 0, 63, 82
1, 459376, Note_off_c, 0, 63, 64
1, 459380, Note_off_c, 0, 75, 64
1, 459380, Note_off_c, 0, 72, 64
1, 459380, Note_off_c, 0, 68, 64
1, 459432, Note_on_c, 0, 77, 95
1, 459444, Note_on_c, 0, 72, 72
1, 459444, Note_on_c, 0, 68, 77
1, 459444, Note_on_c, 0, 63, 82
1, 459464, Note_off_c, 0, 46, 64
1, 459472, Note_off_c, 0, 58, 64
1, 459476, Note_off_c, 0, 72, 64
1, 459480, Note_on_c, 0, 56, 90
1, 459480, Note_on_c, 0, 44, 75
1, 459484, Note_off_c, 0, 68, 64
1, 459484, Note_off_c, 0, 63, 64
1, 459488, Note_off_c, 0, 77, 64
1, 459508, Control_c, 0, 64, 0
1, 459512, Note_off_c, 0, 56, 64
1, 459520, Note_off_c, 0, 44, 64
1, 459532, Note_on_c, 0, 77, 95
1, 459532, Note_on_c, 0, 73, 77
1, 459536, Note_on_c, 0, 39, 89
1, 459540, Note_on_c, 0, 65, 83
1, 459544, Note_on_c, 0, 67, 87
1, 459544, Note_on_c, 0, 27, 89
1, 459564, Control_c, 0, 64, 127
1, 459572, Note_off_c, 0, 65, 64
1, 459572, Note_off_c, 0, 67, 64
1, 459592, Note_off_c, 0, 73, 64
1, 459628, Note_on_c, 0, 73, 93
1, 459628, Note_on_c, 0, 65, 71
1, 459628, Note_on_c, 0, 67, 73
1, 459656, Note_off_c, 0, 65, 64
1, 459660, Note_off_c, 0, 73, 64
1, 459660, Note_off_c, 0, 67, 64
1, 459716, Note_on_c, 0, 73, 77
1, 459724, Note_on_c, 0, 65, 67
1, 459728, Note_on_c, 0, 67, 72
1, 459764, Note_off_c, 0, 77, 64
1, 459764, Note_off_c, 0, 73, 64
1, 459764, Note_off_c, 0, 65, 64
1, 459764, Note_off_c, 0, 67, 64
1, 459768, Note_off_c, 0, 39, 64
1, 459768, Note_on_c, 0, 51, 78
1, 459768, Note_on_c, 0, 39, 77
1, 459772, Note_off_c, 0, 27, 64
1, 459804, Note_off_c, 0, 39, 64
1, 459812, Note_off_c, 0, 51, 64
1, 459820, Note_on_c, 0, 67, 71
1, 459828, Note_on_c, 0, 75, 100
1, 459828, Note_on_c, 0, 73, 72
1, 459828, Note_on_c, 0, 63, 82
1, 459828, Note_on_c, 0, 46, 86
1, 459828, Note_on_c, 0, 58, 93
1, 459860, Note_off_c, 0, 73, 64
1, 459864, Note_off_c, 0, 63, 64
1, 459868, Note_off_c, 0, 67, 64
1, 459916, Note_on_c, 0, 67, 71
1, 459920, Note_on_c, 0, 63, 82
1, 459952, Note_off_c, 0, 63, 64
1, 459956, Note_off_c, 0, 67, 64
1, 460016, Note_on_c, 0, 63, 82
1, 460020, Note_on_c, 0, 67, 69
1, 460052, Note_off_c, 0, 63, 64
1, 460052, Note_off_c, 0, 67, 64
1, 460052, Note_on_c, 0, 60, 71
1, 460052, Note_on_c, 0, 48, 72
1, 460056, Note_off_c, 0, 46, 64
1, 460060, Note_off_c, 0, 58, 64
1, 460088, Note_off_c, 0, 60, 64
1, 460088, Note_off_c, 0, 48, 64
1, 460100, Note_on_c, 0, 49, 82
1, 460104, Note_on_c, 0, 61, 90
1, 460108, Note_on_c, 0, 67, 82
1, 460156, Note_off_c, 0, 67, 64
1, 460200, Note_on_c, 0, 67, 78
1, 460244, Note_off_c, 0, 67, 64
1, 460300, Note_on_c, 0, 67, 80
1, 460332, Note_off_c, 0, 49, 64
1, 460332, Note_off_c, 0, 61, 64
1, 460332, Note_on_c, 0, 65, 72
1, 460332, Note_on_c, 0, 53, 65
1, 460340, Note_off_c, 0, 67, 64
1, 460372, Note_off_c, 0, 53, 64
1, 460376, Note_off_c, 0, 65, 64
1, 460384, Note_on_c, 0, 63, 94
1, 460396, Note_on_c, 0, 72, 77
1, 460396, Note_on_c, 0, 51, 86
1, 460396, Note_on_c, 0, 67, 82
1, 460440, Note_off_c, 0, 67, 64
1, 460456, Note_off_c, 0, 72, 64
1, 460484, Note_on_c, 0, 72, 82
1, 460484, Note_on_c, 0, 68, 71
1, 460528, Note_off_c, 0, 68, 64
1, 460532, Note_off_c, 0, 72, 64
1, 460568, Note_off_c, 0, 63, 64
1, 460576, Note_on_c, 0, 68, 71
1, 460580, Note_on_c, 0, 72, 72
1, 460580, Note_on_c, 0, 63, 65
1, 460600, Note_off_c, 0, 75, 64
1, 460616, Note_off_c, 0, 72, 64
1, 460620, Note_off_c, 0, 68, 64
1, 460620, Note_on_c, 0, 48, 78
1, 460628, Note_off_c, 0, 51, 64
1, 460628, Note_off_c, 0, 63, 64
1, 460628, Note_on_c, 0, 60, 75
1, 460636, Control_c, 0, 64, 0
1, 460656, Note_off_c, 0, 60, 64
1, 460660, Note_off_c, 0, 48, 64
1, 460664, Note_on_c, 0, 58, 96
1, 460676, Note_on_c, 0, 46, 83
1, 460676, Note_on_c, 0, 63, 88
1, 460676, Note_on_c, 0, 75, 88
1, 460676, Note_on_c, 0, 68, 65
1, 460680, Note_on_c, 0, 72, 78
1, 460696, Control_c, 0, 64, 127
1, 460712, Note_off_c, 0, 63, 64
1, 460724, Note_off_c, 0, 68, 64
1, 460736, Note_off_c, 0, 72, 64
1, 460756, Note_on_c, 0, 63, 71
1, 460760, Note_on_c, 0, 68, 65
1, 460764, Note_on_c, 0, 72, 64
1, 460796, Note_off_c, 0, 63, 64
1, 460804, Note_off_c, 0, 72, 64
1, 460808, Note_off_c, 0, 68, 64
1, 460844, Note_on_c, 0, 72, 77
1, 460844, Note_on_c, 0, 68, 65
1, 460844, Note_on_c, 0, 63, 87
1, 460880, Note_off_c, 0, 63, 64
1, 460892, Note_off_c, 0, 68, 64
1, 460896, Note_off_c, 0, 58, 64
1, 460904, Note_off_c, 0, 46, 64
1, 460904, Note_off_c, 0, 72, 64
1, 460908, Note_on_c, 0, 60, 71
1, 460908, Note_on_c, 0, 48, 70
1, 460944, Note_off_c, 0, 75, 64
1, 460948, Note_off_c, 0, 60, 64
1, 460952, Note_off_c, 0, 48, 64
1, 460952, Note_on_c, 0, 75, 95
1, 460952, Note_on_c, 0, 68, 72
1, 460956, Note_on_c, 0, 63, 96
1, 460956, Note_on_c, 0, 46, 86
1, 460960, Note_on_c, 0, 72, 77
1, 460960, Note_on_c, 0, 58, 90
1, 460988, Note_off_c, 0, 68, 64
1, 460996, Note_off_c, 0, 63, 64
1, 461000, Note_off_c, 0, 72, 64
1, 461036, Note_on_c, 0, 72, 77
1, 461036, Note_on_c, 0, 68, 80
1, 461036, Note_on_c, 0, 63, 65
1, 461076, Note_off_c, 0, 68, 64
1, 461084, Note_off_c, 0, 63, 64
1, 461096, Note_off_c, 0, 72, 64
1, 461132, Note_on_c, 0, 65, 65
1, 461136, Note_off_c, 0, 75, 64
1, 461140, Note_on_c, 0, 77, 95
1, 461140, Note_on_c, 0, 72, 82
1, 461140, Note_on_c, 0, 68, 82
1, 461176, Note_off_c, 0, 72, 64
1, 461176, Note_off_c, 0, 68, 64
1, 461180, Note_off_c, 0, 65, 64
1, 461188, Note_off_c, 0, 46, 64
1, 461188, Note_off_c, 0, 58, 64
1, 461196, Note_off_c, 0, 77, 64
1, 461196, Note_on_c, 0, 56, 82
1, 461204, Note_on_c, 0, 44, 78
1, 461232, Control_c, 0, 64, 0
1, 461240, Note_off_c, 0, 56, 64
1, 461240, Note_off_c, 0, 44, 64
1, 461252, Note_on_c, 0, 78, 96
1, 461268, Note_on_c, 0, 66, 96
1, 461272, Note_on_c, 0, 72, 82
1, 461272, Note_on_c, 0, 44, 86
1, 461272, Note_on_c, 0, 32, 86
1, 461272, Note_on_c, 0, 68, 65
1, 461284, Control_c, 0, 64, 127
1, 461316, Note_off_c, 0, 66, 64
1, 461316, Note_off_c, 0, 72, 64
1, 461320, Note_off_c, 0, 68, 64
1, 461364, Note_on_c, 0, 68, 65
1, 461364, Note_on_c, 0, 66, 72
1, 461372, Note_on_c, 0, 72, 69
1, 461404, Note_off_c, 0, 66, 64
1, 461412, Note_off_c, 0, 68, 64
1, 461412, Note_off_c, 0, 72, 64
1, 461460, Note_on_c, 0, 68, 65
1, 461464, Note_on_c, 0, 66, 80
1, 461468, Note_on_c, 0, 72, 78
1, 461500, Note_off_c, 0, 44, 64
1, 461500, Note_off_c, 0, 32, 64
1, 461508, Note_off_c, 0, 68, 64
1, 461508, Note_off_c, 0, 66, 64
1, 461508, Note_on_c, 0, 39, 65
1, 461512, Note_off_c, 0, 72, 64
1, 461516, Note_on_c, 0, 51, 77
1, 461520, Note_off_c, 0, 78, 64
1, 461552, Note_off_c, 0, 39, 64
1, 461560, Note_off_c, 0, 51, 64
1, 461568, Note_on_c, 0, 78, 96
1, 461568, Note_on_c, 0, 68, 65
1, 461568, Note_on_c, 0, 72, 83
1, 461568, Note_on_c, 0, 66, 88
1, 461572, Note_on_c, 0, 44, 93
1, 461576, Note_on_c, 0, 56, 96
1, 461612, Note_off_c, 0, 72, 64
1, 461616, Note_off_c, 0, 68, 64
1, 461632, Note_off_c, 0, 66, 64
1, 461652, Note_on_c, 0, 66, 64
1, 461656, Note_on_c, 0, 68, 65
1, 461660, Note_on_c, 0, 72, 77
1, 461696, Note_off_c, 0, 72, 64
1, 461704, Note_off_c, 0, 68, 64
1, 461716, Note_off_c, 0, 66, 64
1, 461764, Note_on_c, 0, 68, 65
1, 461768, Note_on_c, 0, 72, 82
1, 461768, Note_on_c, 0, 66, 67
1, 461800, Note_off_c, 0, 44, 64
1, 461804, Note_off_c, 0, 56, 64
1, 461812, Note_off_c, 0, 68, 64
1, 461812, Note_off_c, 0, 72, 64
1, 461812, Note_on_c, 0, 62, 82
1, 461812, Note_on_c, 0, 50, 77
1, 461824, Note_off_c, 0, 66, 64
1, 461848, Note_off_c, 0, 50, 64
1, 461852, Note_off_c, 0, 62, 64
1, 461868, Note_on_c, 0, 63, 88
1, 461868, Note_on_c, 0, 51, 90
1, 461876, Note_on_c, 0, 68, 65
1, 461876, Note_on_c, 0, 72, 83
1, 461876, Note_on_c, 0, 66, 80
1, 461920, Note_off_c, 0, 72, 64
1, 461924, Note_off_c, 0, 68, 64
1, 461944, Note_off_c, 0, 66, 64
1, 461964, Note_on_c, 0, 72, 72
1, 461964, Note_on_c, 0, 66, 69
1, 462008, Note_off_c, 0, 72, 64
1, 462028, Note_off_c, 0, 66, 64
1, 462060, Note_on_c, 0, 72, 65
1, 462064, Note_on_c, 0, 66, 67
1, 462096, Note_off_c, 0, 63, 64
1, 462096, Note_off_c, 0, 51, 64
1, 462100, Note_on_c, 0, 70, 77
1, 462100, Note_on_c, 0, 58, 77
1, 462108, Note_off_c, 0, 72, 64
1, 462128, Note_off_c, 0, 66, 64
1, 462136, Note_off_c, 0, 70, 64
1, 462140, Note_off_c, 0, 58, 64
1, 462160, Note_on_c, 0, 68, 112
1, 462164, Note_on_c, 0, 56, 88
1, 462164, Note_on_c, 0, 72, 71
1, 462164, Note_on_c, 0, 66, 65
1, 462200, Note_off_c, 0, 72, 64
1, 462220, Note_off_c, 0, 66, 64
1, 462252, Note_on_c, 0, 66, 75
1, 462260, Note_on_c, 0, 72, 67
1, 462300, Note_off_c, 0, 72, 64
1, 462308, Note_off_c, 0, 66, 64
1, 462356, Note_on_c, 0, 66, 65
1, 462360, Note_on_c, 0, 72, 69
1, 462392, Note_off_c, 0, 56, 64
1, 462392, Note_off_c, 0, 68, 64
1, 462400, Note_off_c, 0, 72, 64
1, 462400, Note_on_c, 0, 65, 80
1, 462404, Note_off_c, 0, 66, 64
1, 462404, Note_on_c, 0, 53, 77
1, 462408, Note_off_c, 0, 78, 64
1, 462424, Control_c, 0, 64, 0
1, 462444, Note_off_c, 0, 65, 64
1, 462444, Note_on_c, 0, 51, 87
1, 462448, Note_off_c, 0, 53, 64
1, 462452, Note_on_c, 0, 78, 96
1, 462452, Note_on_c, 0, 68, 65
1, 462452, Note_on_c, 0, 63, 96
1, 462460, Note_on_c, 0, 72, 71
1, 462460, Note_on_c, 0, 66, 90
1, 462480, Control_c, 0, 64, 127
1, 462488, Note_off_c, 0, 66, 64
1, 462492, Note_off_c, 0, 72, 64
1, 462500, Note_off_c, 0, 68, 64
1, 462532, Note_on_c, 0, 68, 65
1, 462544, Note_on_c, 0, 66, 73
1, 462552, Note_on_c, 0, 72, 66
1, 462580, Note_off_c, 0, 68, 64
1, 462580, Note_off_c, 0, 72, 64
1, 462584, Note_off_c, 0, 66, 64
1, 462644, Note_on_c, 0, 68, 65
1, 462644, Note_on_c, 0, 66, 82
1, 462652, Note_on_c, 0, 72, 67
1, 462676, Note_off_c, 0, 51, 64
1, 462680, Note_off_c, 0, 63, 64
1, 462680, Note_on_c, 0, 65, 75
1, 462684, Note_off_c, 0, 72, 64
1, 462688, Note_off_c, 0, 66, 64
1, 462688, Note_on_c, 0, 53, 75
1, 462692, Note_off_c, 0, 68, 64
1, 462716, Note_off_c, 0, 78, 64
1, 462724, Note_off_c, 0, 65, 64
1, 462724, Note_off_c, 0, 53, 64
1, 462740, Note_on_c, 0, 51, 86
1, 462744, Note_on_c, 0, 78, 96
1, 462744, Note_on_c, 0, 73, 72
1, 462744, Note_on_c, 0, 63, 108
1, 462752, Note_on_c, 0, 68, 65
1, 462752, Note_on_c, 0, 66, 93
1, 462780, Note_off_c, 0, 73, 64
1, 462800, Note_off_c, 0, 68, 64
1, 462800, Note_off_c, 0, 66, 64
1, 462836, Note_on_c, 0, 72, 65
1, 462836, Note_on_c, 0, 68, 65
1, 462836, Note_on_c, 0, 66, 65
1, 462884, Note_off_c, 0, 72, 64
1, 462884, Note_off_c, 0, 68, 64
1, 462884, Note_off_c, 0, 66, 64
1, 462932, Note_on_c, 0, 77, 93
1, 462932, Note_on_c, 0, 68, 82
1, 462932, Note_on_c, 0, 65, 82
1, 462936, Note_on_c, 0, 73, 72
1, 462944, Note_off_c, 0, 78, 64
1, 462968, Note_off_c, 0, 68, 64
1, 462968, Note_off_c, 0, 65, 64
1, 462972, Note_off_c, 0, 51, 64
1, 462972, Note_off_c, 0, 73, 64
1, 462976, Note_off_c, 0, 63, 64
1, 462996, Note_on_c, 0, 61, 86
1, 462996, Note_on_c, 0, 49, 75
1, 463012, Note_off_c, 0, 77, 64
1, 463012, Note_on_c, 0, 65, 77
1, 463036, Control_c, 0, 64, 0
1, 463040, Note_off_c, 0, 49, 64
1, 463044, Note_off_c, 0, 61, 64
1, 463060, Note_on_c, 0, 47, 60
1, 463060, Note_on_c, 0, 59, 66
1, 463068, Note_on_c, 0, 80, 93
1, 463072, Note_off_c, 0, 65, 64
1, 463076, Note_on_c, 0, 75, 87
1, 463076, Note_on_c, 0, 68, 90
1, 463092, Control_c, 0, 64, 127
1, 463116, Note_off_c, 0, 68, 64
1, 463124, Note_off_c, 0, 75, 64
1, 463164, Note_on_c, 0, 68, 80
1, 463172, Note_on_c, 0, 75, 65
1, 463200, Note_off_c, 0, 75, 64
1, 463208, Note_off_c, 0, 68, 64
1, 463268, Note_on_c, 0, 75, 83
1, 463268, Note_on_c, 0, 68, 83
1, 463272, Note_off_c, 0, 47, 64
1, 463288, Note_on_c, 0, 47, 66
1, 463288, Note_on_c, 0, 35, 57
1, 463292, Note_off_c, 0, 59, 64
1, 463300, Note_off_c, 0, 75, 64
1, 463308, Note_off_c, 0, 68, 64
1, 463332, Control_c, 0, 64, 0
1, 463336, Note_off_c, 0, 80, 64
1, 463344, Note_off_c, 0, 47, 64
1, 463344, Note_off_c, 0, 35, 64
1, 463352, Note_on_c, 0, 34, 84
1, 463364, Note_on_c, 0, 80, 96
1, 463364, Note_on_c, 0, 46, 84
1, 463368, Note_on_c, 0, 68, 94
1, 463372, Note_on_c, 0, 74, 77
1, 463384, Control_c, 0, 64, 127
1, 463396, Note_off_c, 0, 74, 64
1, 463412, Note_off_c, 0, 68, 64
1, 463460, Note_on_c, 0, 68, 65
1, 463468, Note_on_c, 0, 74, 71
1, 463496, Note_off_c, 0, 68, 64
1, 463496, Note_off_c, 0, 74, 64
1, 463560, Note_on_c, 0, 68, 83
1, 463564, Note_on_c, 0, 74, 78
1, 463584, Note_off_c, 0, 34, 64
1, 463596, Note_off_c, 0, 46, 64
1, 463600, Note_off_c, 0, 68, 64
1, 463604, Note_off_c, 0, 74, 64
1, 463604, Note_on_c, 0, 53, 77
1, 463604, Note_on_c, 0, 41, 78
1, 463656, Note_off_c, 0, 53, 64
1, 463656, Note_off_c, 0, 41, 64
1, 463660, Note_on_c, 0, 46, 93
1, 463664, Note_on_c, 0, 58, 96
1, 463668, Note_on_c, 0, 68, 90
1, 463672, Note_on_c, 0, 74, 78
1, 463700, Note_off_c, 0, 68, 64
1, 463704, Note_off_c, 0, 74, 64
1, 463748, Note_on_c, 0, 74, 80
1, 463756, Note_on_c, 0, 68, 82
1, 463788, Note_off_c, 0, 74, 64
1, 463788, Note_off_c, 0, 68, 64
1, 463860, Tempo, 582524
1, 463860, Note_on_c, 0, 68, 64
1, 463860, Note_on_c, 0, 74, 71
1, 463888, Note_off_c, 0, 46, 64
1, 463892, Note_off_c, 0, 58, 64
1, 463896, Note_on_c, 0, 60, 77
1, 463900, Note_off_c, 0, 74, 64
1, 463904, Note_on_c, 0, 72, 81
1, 463908, Note_off_c, 0, 68, 64
1, 463940, Note_off_c, 0, 60, 64
1, 463940, Control_c, 0, 64, 0
1, 463944, Note_off_c, 0, 72, 64
1, 463956, Note_on_c, 0, 70, 108
1, 463956, Note_on_c, 0, 58, 93
1, 463960, Note_on_c, 0, 68, 83
1, 463968, Note_on_c, 0, 74, 77
1, 463972, Control_c, 0, 64, 127
1, 464012, Note_off_c, 0, 74, 64
1, 464020, Note_off_c, 0, 68, 64
1, 464044, Note_on_c, 0, 68, 52
1, 464060, Note_on_c, 0, 74, 69
1, 464100, Note_off_c, 0, 68, 64
1, 464104, Note_off_c, 0, 74, 64
1, 464140, Note_on_c, 0, 68, 82
1, 464160, Note_on_c, 0, 74, 71
1, 464188, Note_off_c, 0, 70, 64
1, 464188, Note_off_c, 0, 58, 64
1, 464196, Note_off_c, 0, 68, 64
1, 464196, Note_off_c, 0, 74, 64
1, 464196, Note_on_c, 0, 67, 86
1, 464196, Note_on_c, 0, 55, 71
1, 464200, Note_off_c, 0, 80, 64
1, 464240, Control_c, 0, 64, 0
1, 464244, Note_off_c, 0, 67, 64
1, 464248, Note_off_c, 0, 55, 64
1, 464256, Note_on_c, 0, 80, 96
1, 464260, Note_on_c, 0, 65, 94
1, 464260, Note_on_c, 0, 53, 82
1, 464264, Note_on_c, 0, 74, 77
1, 464268, Note_on_c, 0, 70, 77
1, 464272, Note_on_c, 0, 68, 82
1, 464296, Control_c, 0, 64, 127
1, 464308, Note_off_c, 0, 74, 64
1, 464320, Note_off_c, 0, 68, 64
1, 464332, Note_off_c, 0, 70, 64
1, 464332, Note_on_c, 0, 74, 44
1, 464344, Note_on_c, 0, 70, 71
1, 464352, Note_on_c, 0, 68, 82
1, 464380, Note_off_c, 0, 74, 64
1, 464388, Note_off_c, 0, 68, 64
1, 464400, Note_off_c, 0, 70, 64
1, 464436, Note_on_c, 0, 74, 71
1, 464436, Note_on_c, 0, 68, 65
1, 464440, Note_on_c, 0, 70, 65
1, 464464, Note_off_c, 0, 74, 64
1, 464484, Note_off_c, 0, 68, 64
1, 464488, Note_off_c, 0, 70, 64
1, 464492, Note_off_c, 0, 65, 64
1, 464492, Note_off_c, 0, 53, 64
1, 464500, Note_on_c, 0, 67, 94
1, 464500, Note_on_c, 0, 55, 62
1, 464520, Note_off_c, 0, 80, 64
1, 464540, Note_off_c, 0, 55, 64
1, 464548, Note_off_c, 0, 67, 64
1, 464548, Note_on_c, 0, 70, 65
1, 464556, Note_on_c, 0, 80, 96
1, 464556, Note_on_c, 0, 75, 83
1, 464564, Note_on_c, 0, 68, 87
1, 464564, Note_on_c, 0, 53, 79
1, 464568, Note_on_c, 0, 65, 92
1, 464596, Note_off_c, 0, 70, 64
1, 464604, Note_off_c, 0, 68, 64
1, 464608, Note_off_c, 0, 75, 64
1, 464652, Note_on_c, 0, 75, 63
1, 464660, Note_on_c, 0, 70, 65
1, 464664, Note_on_c, 0, 68, 77
1, 464700, Note_off_c, 0, 75, 64
1, 464708, Note_off_c, 0, 70, 64
1, 464716, Note_off_c, 0, 68, 64
1, 464756, Note_off_c, 0, 80, 64
1, 464768, Note_on_c, 0, 70, 72
1, 464772, Note_on_c, 0, 67, 71
1, 464780, Note_on_c, 0, 79, 97
1, 464780, Note_on_c, 0, 75, 72
1, 464796, Note_off_c, 0, 53, 64
1, 464796, Note_off_c, 0, 65, 64
1, 464812, Note_off_c, 0, 70, 64
1, 464812, Note_off_c, 0, 67, 64
1, 464812, Note_off_c, 0, 75, 64
1, 464824, Note_on_c, 0, 63, 82
1, 464824, Note_on_c, 0, 51, 75
1, 464860, Control_c, 0, 64, 0
1, 464868, Note_off_c, 0, 63, 64
1, 464868, Note_off_c, 0, 51, 64
1, 464872, Note_off_c, 0, 79, 64
1, 464884, Note_on_c, 0, 49, 72
1, 464888, Note_on_c, 0, 61, 75
1, 464896, Note_on_c, 0, 77, 95
1, 464900, Note_on_c, 0, 70, 83
1, 464904, Note_on_c, 0, 67, 82
1, 464916, Control_c, 0, 64, 127
1, 464936, Note_off_c, 0, 67, 64
1, 464940, Note_off_c, 0, 70, 64
1, 465000, Note_on_c, 0, 67, 72
1, 465004, Note_on_c, 0, 70, 59
1, 465040, Note_off_c, 0, 67, 64
1, 465052, Note_off_c, 0, 70, 64
1, 465096, Note_off_c, 0, 77, 64
1, 465100, Note_on_c, 0, 79, 97
1, 465100, Note_on_c, 0, 67, 65
1, 465108, Note_on_c, 0, 70, 67
1, 465112, Note_off_c, 0, 49, 64
1, 465120, Note_off_c, 0, 61, 64
1, 465144, Note_on_c, 0, 51, 62
1, 465148, Note_off_c, 0, 67, 64
1, 465152, Note_on_c, 0, 63, 73
1, 465156, Note_off_c, 0, 70, 64
1, 465188, Note_off_c, 0, 51, 64
1, 465188, Note_off_c, 0, 63, 64
1, 465192, Note_off_c, 0, 79, 64
1, 465204, Note_on_c, 0, 77, 100
1, 465208, Note_on_c, 0, 70, 90
1, 465208, Note_on_c, 0, 67, 83
1, 465212, Note_on_c, 0, 61, 84
1, 465220, Note_on_c, 0, 49, 72
1, 465236, Note_off_c, 0, 67, 64
1, 465240, Note_off_c, 0, 70, 64
1, 465316, Note_on_c, 0, 70, 65
1, 465320, Note_on_c, 0, 67, 72
1, 465360, Note_off_c, 0, 67, 64
1, 465364, Note_off_c, 0, 70, 64
1, 465404, Note_off_c, 0, 77, 64
1, 465412, Note_on_c, 0, 70, 65
1, 465412, Note_on_c, 0, 67, 82
1, 465416, Note_on_c, 0, 75, 101
1, 465444, Note_off_c, 0, 61, 64
1, 465444, Note_off_c, 0, 67, 64
1, 465448, Note_off_c, 0, 49, 64
1, 465460, Note_off_c, 0, 70, 64
1, 465460, Note_on_c, 0, 49, 75
1, 465460, Note_on_c, 0, 37, 67
1, 465488, Control_c, 0, 64, 0
1, 465500, Note_off_c, 0, 75, 64
1, 465508, Note_off_c, 0, 49, 64
1, 465508, Note_off_c, 0, 37, 64
1, 465524, Note_on_c, 0, 80, 96
1, 465528, Note_on_c, 0, 48, 73
1, 465532, Note_on_c, 0, 36, 68
1, 465532, Note_on_c, 0, 75, 90
1, 465540, Note_on_c, 0, 68, 88
1, 465548, Control_c, 0, 64, 127
1, 465584, Note_off_c, 0, 75, 64
1, 465588, Note_off_c, 0, 68, 64
1, 465624, Note_on_c, 0, 75, 69
1, 465636, Note_on_c, 0, 68, 78
1, 465668, Note_off_c, 0, 75, 64
1, 465684, Note_off_c, 0, 68, 64
1, 465724, Note_off_c, 0, 80, 64
1, 465736, Note_on_c, 0, 75, 96
1, 465740, Note_on_c, 0, 63, 65
1, 465744, Note_on_c, 0, 68, 77
1, 465756, Note_off_c, 0, 48, 64
1, 465760, Note_off_c, 0, 36, 64
1, 465784, Note_off_c, 0, 68, 64
1, 465788, Note_off_c, 0, 63, 64
1, 465796, Note_on_c, 0, 60, 72
1, 465796, Note_on_c, 0, 48, 62
1, 465832, Note_off_c, 0, 75, 64
1, 465840, Note_off_c, 0, 60, 64
1, 465844, Note_off_c, 0, 48, 64
1, 465848, Control_c, 0, 64, 0
1, 465852, Note_on_c, 0, 73, 96
1, 465852, Note_on_c, 0, 48, 73
1, 465860, Note_on_c, 0, 68, 82
1, 465860, Note_on_c, 0, 65, 83
1, 465860, Note_on_c, 0, 60, 72
1, 465872, Control_c, 0, 64, 127
1, 465896, Note_off_c, 0, 68, 64
1, 465908, Note_off_c, 0, 65, 64
1, 465956, Note_on_c, 0, 65, 79
1, 465956, Note_on_c, 0, 68, 65
1, 466004, Note_off_c, 0, 68, 64
1, 466012, Note_off_c, 0, 65, 64
1, 466052, Note_off_c, 0, 73, 64
1, 466064, Note_on_c, 0, 75, 96
1, 466068, Note_on_c, 0, 68, 83
1, 466072, Note_on_c, 0, 65, 82
1, 466080, Note_off_c, 0, 48, 64
1, 466088, Note_off_c, 0, 60, 64
1, 466100, Note_off_c, 0, 68, 64
1, 466104, Note_on_c, 0, 36, 68
1, 466112, Note_on_c, 0, 48, 73
1, 466124, Note_off_c, 0, 65, 64
1, 466132, Note_off_c, 0, 75, 64
1, 466144, Note_off_c, 0, 36, 64
1, 466164, Note_off_c, 0, 48, 64
1, 466168, Note_on_c, 0, 68, 65
1, 466172, Note_on_c, 0, 73, 96
1, 466172, Note_on_c, 0, 34, 72
1, 466176, Note_on_c, 0, 46, 84
1, 466176, Note_on_c, 0, 64, 93
1, 466216, Note_off_c, 0, 68, 64
1, 466220, Note_off_c, 0, 64, 64
1, 466276, Note_on_c, 0, 68, 65
1, 466276, Note_on_c, 0, 64, 78
1, 466324, Note_off_c, 0, 68, 64
1, 466328, Note_off_c, 0, 64, 64
1, 466372, Note_off_c, 0, 73, 64
1, 466404, Note_off_c, 0, 34, 64
1, 466404, Note_off_c, 0, 46, 64
1, 466404, Note_on_c, 0, 72, 96
1, 466404, Note_on_c, 0, 67, 65
1, 466412, Note_on_c, 0, 64, 78
1, 466452, Note_off_c, 0, 67, 64
1, 466452, Note_off_c, 0, 64, 64
1, 466456, Note_on_c, 0, 58, 86
1, 466456, Note_on_c, 0, 46, 73
1, 466468, Note_off_c, 0, 72, 64
1, 466492, Note_off_c, 0, 58, 64
1, 466496, Note_off_c, 0, 46, 64
1, 466516, Control_c, 0, 64, 0
1, 466520, Note_on_c, 0, 56, 77
1, 466520, Note_on_c, 0, 44, 77
1, 466524, Note_on_c, 0, 77, 97
1, 466524, Note_on_c, 0, 72, 75
1, 466532, Note_on_c, 0, 65, 78
1, 466568, Control_c, 0, 64, 127
1, 466572, Note_off_c, 0, 65, 64
1, 466608, Note_off_c, 0, 72, 64
1, 466628, Note_on_c, 0, 65, 65
1, 466636, Note_on_c, 0, 72, 83
1, 466676, Note_off_c, 0, 65, 64
1, 466676, Note_off_c, 0, 72, 64
1, 466740, Note_off_c, 0, 77, 64
1, 466752, Note_off_c, 0, 56, 64
1, 466752, Note_off_c, 0, 44, 64
1, 466752, Note_on_c, 0, 72, 103
1, 466752, Note_on_c, 0, 65, 78
1, 466756, Note_on_c, 0, 60, 83
1, 466780, Note_off_c, 0, 60, 64
1, 466788, Note_off_c, 0, 65, 64
1, 466820, Note_on_c, 0, 44, 67
1, 466820, Note_on_c, 0, 32, 68
1, 466832, Note_off_c, 0, 72, 64
1, 466848, Control_c, 0, 64, 0
1, 466856, Note_off_c, 0, 44, 64
1, 466864, Note_off_c, 0, 32, 64
1, 466884, Note_on_c, 0, 65, 78
1, 466888, Note_on_c, 0, 72, 103
1, 466888, Note_on_c, 0, 37, 70
1, 466888, Note_on_c, 0, 49, 70
1, 466888, Note_on_c, 0, 60, 83
1, 466900, Control_c, 0, 64, 127
1, 466924, Note_off_c, 0, 60, 64
1, 466932, Tempo, 560747
1, 466948, Note_off_c, 0, 65, 64
1, 466996, Note_on_c, 0, 65, 65
1, 466996, Note_on_c, 0, 60, 82
1, 467036, Note_off_c, 0, 60, 64
1, 467044, Note_off_c, 0, 65, 64
1, 467100, Note_off_c, 0, 72, 64
1, 467100, Note_on_c, 0, 70, 88
1, 467104, Note_on_c, 0, 65, 77
1, 467104, Note_on_c, 0, 58, 65
1, 467116, Note_off_c, 0, 37, 64
1, 467120, Note_off_c, 0, 49, 64
1, 467136, Note_on_c, 0, 53, 63
1, 467136, Note_on_c, 0, 41, 63
1, 467148, Note_off_c, 0, 65, 64
1, 467152, Note_off_c, 0, 58, 64
1, 467172, Note_off_c, 0, 41, 64
1, 467180, Note_off_c, 0, 70, 64
1, 467184, Note_off_c, 0, 53, 64
1, 467184, Control_c, 0, 64, 0
1, 467212, Note_on_c, 0, 73, 117
1, 467212, Note_on_c, 0, 45, 67
1, 467212, Note_on_c, 0, 33, 62
1, 467216, Note_on_c, 0, 65, 78
1, 467220, Note_on_c, 0, 61, 87
1, 467228, Control_c, 0, 64, 127
1, 467260, Note_off_c, 0, 65, 64
1, 467268, Note_off_c, 0, 61, 64
1, 467316, Note_on_c, 0, 61, 90
1, 467364, Note_off_c, 0, 61, 64
1, 467424, Note_off_c, 0, 73, 64
1, 467424, Note_on_c, 0, 60, 77
1, 467428, Note_on_c, 0, 72, 97
1, 467432, Note_on_c, 0, 65, 77
1, 467440, Note_off_c, 0, 45, 64
1, 467444, Note_off_c, 0, 33, 64
1, 467464, Note_off_c, 0, 60, 64
1, 467472, Note_off_c, 0, 65, 64
1, 467476, Note_on_c, 0, 41, 62
1, 467480, Note_on_c, 0, 53, 68
1, 467508, Note_off_c, 0, 72, 64
1, 467520, Control_c, 0, 64, 0
1, 467524, Note_off_c, 0, 41, 64
1, 467532, Note_off_c, 0, 53, 64
1, 467552, Note_on_c, 0, 65, 75
1, 467556, Note_on_c, 0, 75, 97
1, 467556, Note_on_c, 0, 34, 77
1, 467564, Note_on_c, 0, 63, 82
1, 467564, Note_on_c, 0, 46, 88
1, 467572, Control_c, 0, 64, 127
1, 467600, Note_off_c, 0, 65, 64
1, 467612, Note_off_c, 0, 63, 64
1, 467648, Note_on_c, 0, 73, 87
1, 467652, Note_on_c, 0, 65, 65
1, 467652, Note_on_c, 0, 63, 65
1, 467676, Note_off_c, 0, 75, 64
1, 467700, Note_off_c, 0, 65, 64
1, 467708, Note_off_c, 0, 63, 64
1, 467768, Note_on_c, 0, 68, 74
1, 467772, Note_off_c, 0, 73, 64
1, 467776, Note_on_c, 0, 65, 65
1, 467776, Note_on_c, 0, 61, 83
1, 467788, Note_off_c, 0, 34, 64
1, 467792, Note_off_c, 0, 46, 64
1, 467820, Note_off_c, 0, 61, 64
1, 467824, Note_off_c, 0, 65, 64
1, 467844, Note_on_c, 0, 41, 57
1, 467852, Note_off_c, 0, 68, 64
1, 467852, Note_on_c, 0, 53, 67
1, 467884, Note_off_c, 0, 41, 64
1, 467888, Note_off_c, 0, 53, 64
1, 467900, Control_c, 0, 64, 0
1, 467924, Note_on_c, 0, 72, 95
1, 467924, Note_on_c, 0, 68, 82
1, 467928, Note_on_c, 0, 63, 82
1, 467932, Note_on_c, 0, 27, 68
1, 467936, Note_on_c, 0, 60, 80
1, 467936, Note_on_c, 0, 39, 77
1, 467948, Control_c, 0, 64, 127
1, 467964, Note_off_c, 0, 63, 64
1, 467968, Note_off_c, 0, 60, 64
1, 467988, Note_off_c, 0, 68, 64
1, 468052, Note_on_c, 0, 68, 77
1, 468052, Note_on_c, 0, 60, 79
1, 468060, Note_on_c, 0, 63, 82
1, 468092, Note_off_c, 0, 60, 64
1, 468096, Note_off_c, 0, 63, 64
1, 468108, Note_off_c, 0, 68, 64
1, 468164, Note_off_c, 0, 27, 64
1, 468164, Note_off_c, 0, 39, 64
1, 468172, Note_on_c, 0, 60, 82
1, 468172, Note_on_c, 0, 63, 72
1, 468172, Note_on_c, 0, 68, 87
1, 468204, Note_off_c, 0, 63, 64
1, 468208, Note_off_c, 0, 60, 64
1, 468224, Note_on_c, 0, 51, 73
1, 468228, Note_off_c, 0, 68, 64
1, 468228, Note_on_c, 0, 39, 57
1, 468272, Note_off_c, 0, 51, 64
1, 468280, Note_off_c, 0, 39, 64
1, 468300, Note_on_c, 0, 53, 69
1, 468300, Note_on_c, 0, 41, 57
1, 468308, Note_on_c, 0, 68, 82
1, 468308, Note_on_c, 0, 62, 87
1, 468352, Note_off_c, 0, 62, 64
1, 468364, Note_off_c, 0, 68, 64
1, 468428, Note_on_c, 0, 68, 78
1, 468432, Note_on_c, 0, 62, 78
1, 468468, Note_off_c, 0, 62, 64
1, 468472, Note_off_c, 0, 68, 64
1, 468524, Note_off_c, 0, 53, 64
1, 468532, Note_off_c, 0, 41, 64
1, 468536, Note_off_c, 0, 72, 64
1, 468544, Note_on_c, 0, 68, 82
1, 468548, Note_on_c, 0, 62, 82
1, 468588, Note_off_c, 0, 62, 64
1, 468596, Note_off_c, 0, 68, 64
1, 468608, Note_on_c, 0, 51, 68
1, 468608, Note_on_c, 0, 39, 57
1, 468628, Control_c, 0, 64, 0
1, 468656, Note_off_c, 0, 51, 64
1, 468656, Note_off_c, 0, 39, 64
1, 468660, Note_on_c, 0, 72, 100
1, 468664, Note_on_c, 0, 63, 77
1, 468664, Note_on_c, 0, 55, 67
1, 468664, Note_on_c, 0, 43, 57
1, 468668, Note_on_c, 0, 61, 93
1, 468688, Control_c, 0, 64, 127
1, 468708, Note_off_c, 0, 61, 64
1, 468716, Note_off_c, 0, 63, 64
1, 468788, Note_on_c, 0, 61, 78
1, 468800, Note_on_c, 0, 63, 73
1, 468840, Note_off_c, 0, 63, 64
1, 468844, Note_off_c, 0, 61, 64
1, 468924, Note_off_c, 0, 72, 64
1, 468932, Note_on_c, 0, 70, 95
1, 468932, Note_on_c, 0, 63, 77
1, 468936, Note_on_c, 0, 61, 93
1, 468948, Note_off_c, 0, 55, 64
1, 468948, Note_off_c, 0, 43, 64
1, 468992, Note_off_c, 0, 63, 64
1, 468992, Note_off_c, 0, 61, 64
1, 469036, Note_on_c, 0, 39, 57
1, 469044, Note_on_c, 0, 51, 62
1, 469072, Control_c, 0, 64, 0
1, 469084, Note_off_c, 0, 39, 64
1, 469092, Note_off_c, 0, 70, 64
1, 469092, Note_off_c, 0, 51, 64
1, 469096, Note_on_c, 0, 68, 80
1, 469100, Note_on_c, 0, 60, 78
1, 469104, Note_on_c, 0, 63, 77
1, 469104, Note_on_c, 0, 44, 68
1, 469104, Note_on_c, 0, 32, 72
1, 469132, Control_c, 0, 64, 127
1, 469176, Note_off_c, 0, 68, 64
1, 469180, Note_off_c, 0, 60, 64
1, 469184, Note_off_c, 0, 63, 64
1, 469332, Note_off_c, 0, 44, 64
1, 469332, Note_off_c, 0, 32, 64
1, 469332, Note_on_c, 0, 75, 68
1, 469336, Note_on_c, 0, 63, 66
1, 469336, Note_on_c, 0, 39, 62
1, 469340, Note_on_c, 0, 51, 62
1, 469372, Note_off_c, 0, 63, 64
1, 469372, Note_off_c, 0, 39, 64
1, 469372, Note_off_c, 0, 51, 64
1, 469384, Note_off_c, 0, 75, 64
1, 469436, Control_c, 0, 64, 0
1, 469456, Note_on_c, 0, 44, 73
1, 469456, Note_on_c, 0, 80, 72
1, 469464, Note_on_c, 0, 68, 62
1, 469464, Note_on_c, 0, 56, 70
1, 469484, Control_c, 0, 64, 127
1, 469496, Note_off_c, 0, 68, 64
1, 469564, Note_on_c, 0, 68, 62
1, 469596, Note_off_c, 0, 68, 64
1, 469652, Note_on_c, 0, 46, 66
1, 469656, Note_on_c, 0, 58, 62
1, 469660, Note_on_c, 0, 70, 62
1, 469664, Note_on_c, 0, 82, 62
1, 469668, Note_off_c, 0, 44, 64
1, 469668, Note_off_c, 0, 80, 64
1, 469676, Note_off_c, 0, 56, 64
1, 469692, Note_off_c, 0, 46, 64
1, 469696, Note_off_c, 0, 70, 64
1, 469700, Note_off_c, 0, 58, 64
1, 469700, Note_off_c, 0, 82, 64
1, 469760, Control_c, 0, 64, 0
1, 469776, Note_on_c, 0, 48, 67
1, 469780, Note_on_c, 0, 72, 73
1, 469784, Note_on_c, 0, 84, 68
1, 469784, Note_on_c, 0, 60, 72
1, 469800, Control_c, 0, 64, 127
1, 469816, Note_off_c, 0, 72, 64
1, 469872, Note_on_c, 0, 72, 62
1, 469908, Note_off_c, 0, 72, 64
1, 469972, Note_on_c, 0, 53, 62
1, 469976, Note_on_c, 0, 65, 62
1, 469984, Note_on_c, 0, 77, 72
1, 469988, Note_off_c, 0, 48, 64
1, 469988, Note_on_c, 0, 89, 73
1, 469996, Note_off_c, 0, 84, 64
1, 469996, Note_off_c, 0, 60, 64
1, 470004, Note_off_c, 0, 53, 64
1, 470012, Note_off_c, 0, 65, 64
1, 470016, Note_off_c, 0, 77, 64
1, 470040, Note_off_c, 0, 89, 64
1, 470068, Control_c, 0, 64, 0
1, 470076, Note_on_c, 0, 63, 75
1, 470080, Note_on_c, 0, 51, 73
1, 470084, Note_on_c, 0, 75, 66
1, 470092, Note_on_c, 0, 87, 66
1, 470100, Control_c, 0, 64, 127
1, 470124, Note_off_c, 0, 75, 64
1, 470172, Note_on_c, 0, 75, 66
1, 470204, Note_off_c, 0, 75, 64
1, 470252, Control_c, 0, 64, 0
1, 470268, Note_on_c, 0, 55, 62
1, 470272, Note_on_c, 0, 67, 70
1, 470276, Note_on_c, 0, 79, 72
1, 470284, Note_on_c, 0, 91, 63
1, 470292, Note_off_c, 0, 63, 64
1, 470292, Note_off_c, 0, 51, 64
1, 470304, Note_off_c, 0, 87, 64
1, 470312, Control_c, 0, 64, 127
1, 470316, Note_off_c, 0, 55, 64
1, 470316, Note_off_c, 0, 79, 64
1, 470324, Note_off_c, 0, 67, 64
1, 470328, Note_off_c, 0, 91, 64
1, 470384, Note_on_c, 0, 56, 77
1, 470388, Note_on_c, 0, 68, 82
1, 470392, Note_on_c, 0, 92, 79
1, 470400, Note_on_c, 0, 80, 67
1, 470432, Note_off_c, 0, 80, 64
1, 470480, Note_on_c, 0, 80, 67
1, 470512, Note_off_c, 0, 80, 64
1, 470584, Note_on_c, 0, 94, 83
1, 470584, Note_on_c, 0, 70, 75
1, 470584, Note_on_c, 0, 58, 57
1, 470592, Note_on_c, 0, 82, 70
1, 470596, Note_off_c, 0, 56, 64
1, 470600, Note_off_c, 0, 68, 64
1, 470604, Note_off_c, 0, 92, 64
1, 470620, Note_off_c, 0, 94, 64
1, 470624, Note_off_c, 0, 82, 64
1, 470628, Note_off_c, 0, 70, 64
1, 470628, Note_off_c, 0, 58, 64
1, 470680, Note_on_c, 0, 96, 73
1, 470684, Note_on_c, 0, 84, 72
1, 470692, Note_on_c, 0, 72, 73
1, 470692, Note_on_c, 0, 60, 63
1, 470720, Note_off_c, 0, 84, 64
1, 470764, Note_on_c, 0, 84, 72
1, 470796, Note_off_c, 0, 84, 64
1, 470848, Control_c, 0, 64, 0
1, 470868, Note_on_c, 0, 65, 67
1, 470872, Control_c, 0, 64, 127
1, 470880, Note_on_c, 0, 101, 73
1, 470880, Note_on_c, 0, 77, 73
1, 470880, Note_on_c, 0, 89, 75
1, 470892, Note_off_c, 0, 96, 64
1, 470904, Note_off_c, 0, 72, 64
1, 470904, Note_off_c, 0, 60, 64
1, 470908, Note_off_c, 0, 65, 64
1, 470908, Note_off_c, 0, 77, 64
1, 470920, Note_off_c, 0, 101, 64
1, 470924, Note_off_c, 0, 89, 64
1, 470972, Note_on_c, 0, 63, 73
1, 470976, Note_on_c, 0, 99, 89
1, 470976, Note_on_c, 0, 87, 75
1, 470976, Note_on_c, 0, 75, 84
1, 471008, Note_off_c, 0, 87, 64
1, 471060, Note_on_c, 0, 87, 75
1, 471080, Note_off_c, 0, 87, 64
1, 471148, Note_on_c, 0, 60, 70
1, 471156, Note_on_c, 0, 96, 93
1, 471156, Note_on_c, 0, 72, 72
1, 471160, Note_on_c, 0, 84, 66
1, 471184, Note_off_c, 0, 63, 64
1, 471188, Note_off_c, 0, 99, 64
1, 471188, Note_off_c, 0, 75, 64
1, 471192, Note_off_c, 0, 60, 64
1, 471192, Note_off_c, 0, 84, 64
1, 471196, Note_off_c, 0, 72, 64
1, 471204, Note_off_c, 0, 96, 64
1, 471256, Note_on_c, 0, 94, 87
1, 471256, Note_on_c, 0, 70, 79
1, 471260, Note_on_c, 0, 82, 81
1, 471264, Note_on_c, 0, 58, 75
1, 471284, Note_off_c, 0, 82, 64
1, 471328, Note_on_c, 0, 82, 62
1, 471368, Note_off_c, 0, 82, 64
1, 471428, Note_on_c, 0, 72, 76
1, 471428, Control_c, 0, 64, 0
1, 471436, Note_on_c, 0, 96, 79
1, 471436, Note_on_c, 0, 84, 68
1, 471436, Note_on_c, 0, 60, 67
1, 471460, Control_c, 0, 64, 127
1, 471468, Note_off_c, 0, 94, 64
1, 471468, Note_off_c, 0, 70, 64
1, 471468, Note_off_c, 0, 72, 64
1, 471468, Note_off_c, 0, 84, 64
1, 471476, Note_off_c, 0, 58, 64
1, 471476, Note_off_c, 0, 60, 64
1, 471480, Note_off_c, 0, 96, 64
1, 471532, Note_on_c, 0, 70, 73
1, 471532, Note_on_c, 0, 58, 73
1, 471536, Note_on_c, 0, 94, 87
1, 471540, Note_on_c, 0, 82, 73
1, 471572, Note_off_c, 0, 82, 64
1, 471628, Note_on_c, 0, 82, 73
1, 471660, Note_off_c, 0, 82, 64
1, 471720, Note_on_c, 0, 56, 70
1, 471724, Note_on_c, 0, 80, 70
1, 471724, Note_on_c, 0, 68, 70
1, 471732, Note_on_c, 0, 92, 83
1, 471744, Note_off_c, 0, 58, 64
1, 471744, Note_off_c, 0, 70, 64
1, 471748, Note_off_c, 0, 94, 64
1, 471756, Note_off_c, 0, 56, 64
1, 471756, Note_off_c, 0, 80, 64
1, 471760, Note_off_c, 0, 68, 64
1, 471772, Note_off_c, 0, 92, 64
1, 471828, Note_on_c, 0, 77, 73
1, 471828, Note_on_c, 0, 65, 73
1, 471828, Note_on_c, 0, 53, 68
1, 471832, Note_on_c, 0, 89, 72
1, 471864, Note_off_c, 0, 77, 64
1, 471920, Note_on_c, 0, 77, 51
1, 471948, Note_off_c, 0, 77, 64
1, 472008, Note_on_c, 0, 51, 73
1, 472012, Note_on_c, 0, 63, 68
1, 472020, Note_on_c, 0, 87, 75
1, 472024, Note_on_c, 0, 75, 84
1, 472040, Note_off_c, 0, 65, 64
1, 472040, Note_off_c, 0, 53, 64
1, 472044, Note_off_c, 0, 89, 64
1, 472044, Note_off_c, 0, 63, 64
1, 472048, Note_off_c, 0, 51, 64
1, 472048, Note_off_c, 0, 75, 64
1, 472056, Note_off_c, 0, 87, 64
1, 472108, Note_on_c, 0, 48, 62
1, 472116, Note_on_c, 0, 84, 39
1, 472116, Note_on_c, 0, 60, 73
1, 472120, Note_on_c, 0, 72, 77
1, 472160, Note_off_c, 0, 72, 64
1, 472208, Note_on_c, 0, 72, 48
1, 472236, Note_off_c, 0, 72, 64
1, 472292, Note_on_c, 0, 44, 57
1, 472300, Note_on_c, 0, 80, 75
1, 472300, Note_on_c, 0, 68, 75
1, 472300, Note_on_c, 0, 56, 76
1, 472316, Note_off_c, 0, 60, 64
1, 472320, Note_off_c, 0, 48, 64
1, 472328, Note_off_c, 0, 84, 64
1, 472332, Note_off_c, 0, 68, 64
1, 472336, Note_off_c, 0, 44, 64
1, 472340, Note_off_c, 0, 80, 64
1, 472340, Note_off_c, 0, 56, 64
1, 472400, Note_on_c, 0, 53, 68
1, 472404, Note_on_c, 0, 77, 70
1, 472404, Note_on_c, 0, 65, 72
1, 472404, Note_on_c, 0, 41, 57
1, 472424, Note_off_c, 0, 65, 64
1, 472472, Note_on_c, 0, 65, 72
1, 472512, Note_off_c, 0, 65, 64
1, 472568, Note_on_c, 0, 24, 57
1, 472572, Note_on_c, 0, 36, 63
1, 472576, Note_on_c, 0, 60, 63
1, 472576, Note_on_c, 0, 48, 70
1, 472612, Note_off_c, 0, 53, 64
1, 472612, Note_off_c, 0, 24, 64
1, 472612, Note_off_c, 0, 36, 64
1, 472616, Note_off_c, 0, 77, 64
1, 472616, Note_off_c, 0, 41, 64
1, 472616, Note_off_c, 0, 60, 64
1, 472620, Note_off_c, 0, 48, 64
1, 472676, Control_c, 0, 64, 0
1, 472684, Note_on_c, 0, 63, 89
1, 472692, Note_on_c, 0, 51, 89
1, 472692, Note_on_c, 0, 39, 89
1, 472692, Note_on_c, 0, 27, 89
1, 472740, Control_c, 0, 64, 127
1, 472940, Note_on_c, 0, 67, 85
1, 472948, Note_off_c, 0, 63, 64
1, 472952, Note_off_c, 0, 51, 64
1, 472952, Note_off_c, 0, 39, 64
1, 472952, Note_off_c, 0, 27, 64
1, 473016, Note_off_c, 0, 67, 64
1, 473020, Control_c, 0, 64, 0
1, 473056, Note_on_c, 0, 70, 89
1, 473056, Note_on_c, 0, 58, 68
1, 473056, Note_on_c, 0, 61, 79
1, 473060, Note_on_c, 0, 67, 61
1, 473060, Note_on_c, 0, 51, 78
1, 473084, Control_c, 0, 64, 127
1, 473104, Note_off_c, 0, 67, 64
1, 473140, Note_on_c, 0, 67, 70
1, 473204, Note_off_c, 0, 67, 64
1, 473212, Note_off_c, 0, 58, 64
1, 473216, Note_off_c, 0, 61, 64
1, 473220, Note_off_c, 0, 51, 64
1, 473228, Note_on_c, 0, 58, 68
1, 473228, Note_on_c, 0, 51, 67
1, 473232, Note_on_c, 0, 61, 73
1, 473236, Note_on_c, 0, 72, 76
1, 473236, Note_on_c, 0, 67, 81
1, 473240, Note_off_c, 0, 70, 64
1, 473272, Note_off_c, 0, 51, 64
1, 473276, Note_off_c, 0, 58, 64
1, 473280, Note_off_c, 0, 72, 64
1, 473284, Note_off_c, 0, 61, 64
1, 473284, Note_off_c, 0, 67, 64
1, 473316, Note_on_c, 0, 73, 85
1, 473320, Note_on_c, 0, 67, 66
1, 473324, Note_on_c, 0, 61, 79
1, 473332, Note_on_c, 0, 58, 68
1, 473332, Note_on_c, 0, 51, 71
1, 473364, Note_off_c, 0, 67, 64
1, 473412, Note_on_c, 0, 67, 73
1, 473460, Note_off_c, 0, 67, 64
1, 473484, Note_off_c, 0, 61, 64
1, 473488, Note_off_c, 0, 58, 64
1, 473492, Note_off_c, 0, 51, 64
1, 473500, Note_off_c, 0, 73, 64
1, 473500, Note_on_c, 0, 67, 81
1, 473504, Note_on_c, 0, 77, 83
1, 473508, Note_on_c, 0, 61, 72
1, 473508, Note_on_c, 0, 51, 68
1, 473548, Note_off_c, 0, 67, 64
1, 473548, Note_off_c, 0, 51, 64
1, 473556, Note_off_c, 0, 77, 64
1, 473556, Note_off_c, 0, 61, 64
1, 473588, Note_on_c, 0, 75, 87
1, 473596, Note_on_c, 0, 68, 83
1, 473604, Note_on_c, 0, 60, 77
1, 473612, Note_on_c, 0, 51, 62
1, 473636, Note_off_c, 0, 68, 64
1, 473688, Note_on_c, 0, 63, 74
1, 473736, Note_off_c, 0, 63, 64
1, 473764, Note_off_c, 0, 60, 64
1, 473768, Note_off_c, 0, 51, 64
1, 473768, Note_on_c, 0, 72, 62
1, 473772, Note_off_c, 0, 75, 64
1, 473772, Note_on_c, 0, 63, 63
1, 473780, Note_on_c, 0, 60, 70
1, 473788, Note_on_c, 0, 51, 63
1, 473820, Note_off_c, 0, 63, 64
1, 473824, Note_off_c, 0, 72, 64
1, 473828, Note_off_c, 0, 51, 64
1, 473836, Note_off_c, 0, 60, 64
1, 473880, Note_on_c, 0, 51, 64
1, 473884, Note_on_c, 0, 60, 73
1, 473888, Note_on_c, 0, 70, 76
1, 473888, Note_on_c, 0, 63, 73
1, 473916, Note_off_c, 0, 63, 64
1, 473976, Note_on_c, 0, 63, 64
1, 474016, Note_off_c, 0, 63, 64
1, 474036, Note_off_c, 0, 51, 64
1, 474040, Note_off_c, 0, 60, 64
1, 474072, Note_off_c, 0, 70, 64
1, 474072, Note_on_c, 0, 72, 73
1, 474072, Note_on_c, 0, 63, 63
1, 474080, Note_on_c, 0, 60, 63
1, 474080, Note_on_c, 0, 51, 59
1, 474112, Note_off_c, 0, 63, 64
1, 474124, Note_off_c, 0, 51, 64
1, 474128, Note_off_c, 0, 72, 64
1, 474128, Note_off_c, 0, 60, 64
1, 474172, Note_on_c, 0, 70, 71
1, 474172, Note_on_c, 0, 63, 59
1, 474184, Note_on_c, 0, 60, 62
1, 474184, Note_on_c, 0, 51, 59
1, 474216, Note_off_c, 0, 63, 64
1, 474268, Note_on_c, 0, 63, 59
1, 474316, Note_off_c, 0, 63, 64
1, 474340, Note_off_c, 0, 60, 64
1, 474340, Note_off_c, 0, 51, 64
1, 474356, Note_off_c, 0, 70, 64
1, 474356, Note_on_c, 0, 51, 59
1, 474360, Note_on_c, 0, 68, 66
1, 474368, Note_on_c, 0, 60, 55
1, 474368, Note_on_c, 0, 63, 60
1, 474388, Note_off_c, 0, 51, 64
1, 474392, Note_off_c, 0, 68, 64
1, 474392, Note_off_c, 0, 60, 64
1, 474396, Note_off_c, 0, 63, 64
1, 474492, Control_c, 0, 64, 0
1, 474500, Note_on_c, 0, 27, 89
1, 474512, Note_on_c, 0, 63, 89
1, 474516, Note_on_c, 0, 39, 89
1, 474520, Note_on_c, 0, 51, 89
1, 474556, Control_c, 0, 64, 127
1, 474716, Note_off_c, 0, 27, 64
1, 474724, Note_off_c, 0, 63, 64
1, 474728, Note_off_c, 0, 39, 64
1, 474732, Note_off_c, 0, 51, 64
1, 474736, Note_on_c, 0, 67, 89
1, 474788, Note_off_c, 0, 67, 64
1, 474832, Note_on_c, 0, 70, 89
1, 474836, Note_on_c, 0, 67, 75
1, 474836, Note_on_c, 0, 61, 89
1, 474836, Note_on_c, 0, 58, 68
1, 474836, Note_on_c, 0, 51, 73
1, 474892, Note_off_c, 0, 67, 64
1, 474924, Note_on_c, 0, 67, 75
1, 474976, Note_off_c, 0, 67, 64
1, 474992, Note_off_c, 0, 61, 64
1, 474992, Note_off_c, 0, 58, 64
1, 474992, Note_off_c, 0, 51, 64
1, 475012, Note_on_c, 0, 72, 93
1, 475016, Note_off_c, 0, 70, 64
1, 475016, Note_on_c, 0, 51, 72
1, 475020, Note_on_c, 0, 67, 81
1, 475020, Note_on_c, 0, 61, 87
1, 475020, Note_on_c, 0, 58, 68
1, 475060, Note_off_c, 0, 72, 64
1, 475060, Note_off_c, 0, 51, 64
1, 475064, Note_off_c, 0, 67, 64
1, 475068, Note_off_c, 0, 61, 64
1, 475068, Note_off_c, 0, 58, 64
1, 475108, Note_on_c, 0, 67, 64
1, 475112, Note_on_c, 0, 73, 89
1, 475124, Note_on_c, 0, 61, 83
1, 475124, Note_on_c, 0, 58, 68
1, 475128, Note_on_c, 0, 51, 73
1, 475152, Note_off_c, 0, 67, 64
1, 475204, Note_on_c, 0, 67, 83
1, 475256, Note_off_c, 0, 67, 64
1, 475280, Note_off_c, 0, 61, 64
1, 475280, Note_off_c, 0, 58, 64
1, 475284, Note_off_c, 0, 51, 64
1, 475296, Note_off_c, 0, 73, 64
1, 475300, Note_on_c, 0, 77, 91
1, 475300, Note_on_c, 0, 67, 72
1, 475300, Note_on_c, 0, 61, 69
1, 475308, Note_on_c, 0, 51, 65
1, 475340, Note_off_c, 0, 67, 64
1, 475348, Note_off_c, 0, 51, 64
1, 475356, Note_off_c, 0, 77, 64
1, 475356, Note_off_c, 0, 61, 64
1, 475392, Note_on_c, 0, 75, 86
1, 475404, Note_on_c, 0, 68, 70
1, 475404, Note_on_c, 0, 60, 73
1, 475412, Note_on_c, 0, 51, 64
1, 475436, Note_off_c, 0, 68, 64
1, 475492, Note_on_c, 0, 63, 66
1, 475540, Note_off_c, 0, 63, 64
1, 475564, Note_off_c, 0, 60, 64
1, 475572, Note_off_c, 0, 51, 64
1, 475576, Note_off_c, 0, 75, 64
1, 475584, Note_on_c, 0, 60, 65
1, 475588, Note_on_c, 0, 72, 77
1, 475596, Note_on_c, 0, 63, 66
1, 475596, Note_on_c, 0, 51, 67
1, 475628, Note_off_c, 0, 63, 64
1, 475632, Note_off_c, 0, 60, 64
1, 475640, Note_off_c, 0, 51, 64
1, 475644, Note_off_c, 0, 72, 64
1, 475664, Control_c, 0, 64, 0
1, 475688, Note_on_c, 0, 70, 80
1, 475692, Note_on_c, 0, 51, 60
1, 475692, Note_on_c, 0, 63, 65
1, 475692, Note_on_c, 0, 60, 71
1, 475696, Control_c, 0, 64, 127
1, 475716, Note_off_c, 0, 63, 64
1, 475784, Note_on_c, 0, 63, 64
1, 475828, Note_off_c, 0, 63, 64
1, 475848, Note_off_c, 0, 51, 64
1, 475852, Note_off_c, 0, 60, 64
1, 475872, Note_off_c, 0, 70, 64
1, 475872, Note_on_c, 0, 72, 73
1, 475880, Note_on_c, 0, 51, 59
1, 475884, Note_on_c, 0, 60, 63
1, 475888, Note_on_c, 0, 63, 60
1, 475920, Note_off_c, 0, 63, 64
1, 475928, Note_off_c, 0, 72, 64
1, 475928, Note_off_c, 0, 51, 64
1, 475932, Note_off_c, 0, 60, 64
1, 475972, Note_on_c, 0, 70, 63
1, 475972, Note_on_c, 0, 60, 64
1, 475976, Note_on_c, 0, 63, 67
1, 475984, Note_on_c, 0, 51, 57
1, 476016, Note_off_c, 0, 63, 64
1, 476084, Note_on_c, 0, 63, 47
1, 476132, Note_off_c, 0, 60, 64
1, 476132, Note_off_c, 0, 63, 64
1, 476144, Note_off_c, 0, 51, 64
1, 476156, Note_off_c, 0, 70, 64
1, 476156, Note_on_c, 0, 51, 63
1, 476160, Note_on_c, 0, 60, 28
1, 476164, Note_on_c, 0, 63, 62
1, 476164, Note_on_c, 0, 68, 72
1, 476192, Note_off_c, 0, 60, 64
1, 476196, Note_off_c, 0, 51, 64
1, 476196, Note_off_c, 0, 63, 64
1, 476200, Note_off_c, 0, 68, 64
1, 476292, Note_on_c, 0, 27, 89
1, 476308, Note_on_c, 0, 63, 89
1, 476316, Control_c, 0, 64, 0
1, 476316, Note_on_c, 0, 39, 89
1, 476324, Note_on_c, 0, 51, 89
1, 476372, Control_c, 0, 64, 127
1, 476508, Note_off_c, 0, 27, 64
1, 476520, Note_off_c, 0, 63, 64
1, 476532, Note_off_c, 0, 39, 64
1, 476536, Note_off_c, 0, 51, 64
1, 476544, Note_on_c, 0, 67, 71
1, 476596, Note_off_c, 0, 67, 64
1, 476648, Note_on_c, 0, 67, 72
1, 476648, Note_on_c, 0, 61, 83
1, 476652, Note_on_c, 0, 70, 85
1, 476656, Note_on_c, 0, 51, 73
1, 476704, Note_off_c, 0, 67, 64
1, 476748, Note_on_c, 0, 67, 68
1, 476804, Note_off_c, 0, 61, 64
1, 476812, Note_off_c, 0, 51, 64
1, 476812, Note_off_c, 0, 67, 64
1, 476836, Note_off_c, 0, 70, 64
1, 476844, Note_on_c, 0, 72, 64
1, 476844, Note_on_c, 0, 61, 79
1, 476848, Note_on_c, 0, 67, 69
1, 476848, Note_on_c, 0, 51, 68
1, 476884, Note_off_c, 0, 51, 64
1, 476888, Note_off_c, 0, 72, 64
1, 476888, Note_off_c, 0, 67, 64
1, 476892, Note_off_c, 0, 61, 64
1, 476936, Note_on_c, 0, 73, 81
1, 476936, Note_on_c, 0, 67, 71
1, 476944, Note_on_c, 0, 61, 81
1, 476948, Note_on_c, 0, 51, 64
1, 476980, Note_off_c, 0, 67, 64
1, 477024, Note_on_c, 0, 67, 82
1, 477076, Note_off_c, 0, 67, 64
1, 477100, Note_off_c, 0, 61, 64
1, 477104, Note_off_c, 0, 51, 64
1, 477120, Note_off_c, 0, 73, 64
1, 477120, Note_on_c, 0, 77, 75
1, 477120, Note_on_c, 0, 67, 71
1, 477120, Note_on_c, 0, 61, 72
1, 477124, Note_on_c, 0, 51, 57
1, 477160, Note_off_c, 0, 51, 64
1, 477164, Note_off_c, 0, 67, 64
1, 477168, Note_off_c, 0, 77, 64
1, 477172, Note_off_c, 0, 61, 64
1, 477216, Note_on_c, 0, 75, 81
1, 477220, Note_on_c, 0, 61, 74
1, 477224, Note_on_c, 0, 67, 74
1, 477228, Note_on_c, 0, 51, 60
1, 477260, Note_off_c, 0, 67, 64
1, 477312, Note_on_c, 0, 67, 79
1, 477360, Note_off_c, 0, 67, 64
1, 477380, Note_off_c, 0, 61, 64
1, 477384, Note_off_c, 0, 51, 64
1, 477400, Note_off_c, 0, 75, 64
1, 477404, Note_on_c, 0, 61, 70
1, 477404, Note_on_c, 0, 51, 64
1, 477412, Note_on_c, 0, 67, 74
1, 477412, Note_on_c, 0, 72, 72
1, 477448, Note_off_c, 0, 67, 64
1, 477452, Note_off_c, 0, 51, 64
1, 477460, Note_off_c, 0, 61, 64
1, 477460, Note_off_c, 0, 72, 64
1, 477504, Note_on_c, 0, 70, 86
1, 477504, Note_on_c, 0, 67, 73
1, 477508, Note_on_c, 0, 61, 71
1, 477516, Note_on_c, 0, 51, 63
1, 477544, Note_off_c, 0, 67, 64
1, 477592, Note_on_c, 0, 67, 70
1, 477644, Note_off_c, 0, 67, 64
1, 477668, Note_off_c, 0, 61, 64
1, 477672, Note_off_c, 0, 51, 64
1, 477688, Note_off_c, 0, 70, 64
1, 477688, Note_on_c, 0, 72, 76
1, 477692, Note_on_c, 0, 67, 69
1, 477700, Note_on_c, 0, 61, 69
1, 477700, Note_on_c, 0, 51, 67
1, 477728, Note_off_c, 0, 67, 64
1, 477740, Note_off_c, 0, 51, 64
1, 477748, Note_off_c, 0, 72, 64
1, 477748, Note_off_c, 0, 61, 64
1, 477784, Note_on_c, 0, 70, 81
1, 477792, Note_on_c, 0, 67, 78
1, 477796, Note_on_c, 0, 61, 66
1, 477804, Note_on_c, 0, 51, 64
1, 477828, Note_off_c, 0, 67, 64
1, 477904, Note_on_c, 0, 67, 59
1, 477940, Note_off_c, 0, 67, 64
1, 477952, Note_off_c, 0, 61, 64
1, 477964, Note_off_c, 0, 51, 64
1, 477968, Note_off_c, 0, 70, 64
1, 477996, Note_on_c, 0, 68, 77
1, 477996, Note_on_c, 0, 44, 65
1, 478004, Note_on_c, 0, 51, 59
1, 478008, Note_on_c, 0, 60, 77
1, 478048, Note_off_c, 0, 51, 64
1, 478052, Note_off_c, 0, 68, 64
1, 478056, Note_off_c, 0, 60, 64
1, 478060, Note_off_c, 0, 44, 64
1, 478100, Note_on_c, 0, 60, 52
1, 478104, Note_on_c, 0, 72, 77
1, 478104, Note_on_c, 0, 44, 64
1, 478108, Note_on_c, 0, 51, 53
1, 478140, Note_off_c, 0, 60, 64
1, 478200, Note_on_c, 0, 60, 68
1, 478236, Note_off_c, 0, 60, 64
1, 478260, Note_off_c, 0, 44, 64
1, 478268, Note_off_c, 0, 51, 64
1, 478288, Note_off_c, 0, 72, 64
1, 478292, Note_on_c, 0, 44, 57
1, 478292, Note_on_c, 0, 68, 79
1, 478292, Note_on_c, 0, 60, 67
1, 478300, Note_on_c, 0, 51, 55
1, 478336, Note_off_c, 0, 68, 64
1, 478336, Note_off_c, 0, 60, 64
1, 478336, Note_off_c, 0, 51, 64
1, 478352, Note_off_c, 0, 44, 64
1, 478396, Note_on_c, 0, 51, 59
1, 478396, Note_on_c, 0, 65, 60
1, 478396, Note_on_c, 0, 60, 64
1, 478404, Note_on_c, 0, 44, 49
1, 478436, Note_off_c, 0, 60, 64
1, 478484, Note_on_c, 0, 60, 55
1, 478532, Note_off_c, 0, 60, 64
1, 478556, Note_off_c, 0, 51, 64
1, 478560, Note_off_c, 0, 44, 64
1, 478580, Note_off_c, 0, 65, 64
1, 478584, Note_on_c, 0, 67, 70
1, 478584, Note_on_c, 0, 60, 48
1, 478588, Note_on_c, 0, 51, 65
1, 478592, Note_on_c, 0, 44, 46
1, 478632, Note_off_c, 0, 67, 64
1, 478632, Note_off_c, 0, 60, 64
1, 478636, Note_off_c, 0, 51, 64
1, 478640, Note_off_c, 0, 44, 64
1, 478672, Note_on_c, 0, 60, 64
1, 478680, Note_on_c, 0, 65, 69
1, 478680, Note_on_c, 0, 51, 57
1, 478684, Note_on_c, 0, 44, 47
1, 478716, Note_off_c, 0, 60, 64
1, 478772, Note_on_c, 0, 60, 58
1, 478812, Note_off_c, 0, 60, 64
1, 478840, Note_off_c, 0, 51, 64
1, 478844, Note_off_c, 0, 44, 64
1, 478864, Note_off_c, 0, 65, 64
1, 478868, Note_on_c, 0, 60, 44
1, 478876, Note_on_c, 0, 63, 75
1, 478880, Note_on_c, 0, 51, 52
1, 478880, Note_on_c, 0, 44, 55
1, 478912, Note_off_c, 0, 63, 64
1, 478916, Note_off_c, 0, 60, 64
1, 478928, Note_off_c, 0, 51, 64
1, 478932, Note_off_c, 0, 44, 64
1, 478972, Note_on_c, 0, 60, 52
1, 478976, Note_on_c, 0, 68, 77
1, 478980, Note_on_c, 0, 51, 53
1, 478984, Note_on_c, 0, 44, 51
1, 479012, Note_off_c, 0, 60, 64
1, 479064, Note_on_c, 0, 60, 58
1, 479120, Note_off_c, 0, 60, 64
1, 479140, Note_off_c, 0, 51, 64
1, 479144, Note_off_c, 0, 44, 64
1, 479160, Note_off_c, 0, 68, 64
1, 479164, Note_on_c, 0, 60, 58
1, 479168, Note_on_c, 0, 51, 58
1, 479168, Note_on_c, 0, 65, 58
1, 479172, Note_on_c, 0, 44, 53
1, 479204, Note_off_c, 0, 65, 64
1, 479212, Note_off_c, 0, 60, 64
1, 479220, Note_off_c, 0, 51, 64
1, 479220, Note_off_c, 0, 44, 64
1, 479260, Note_on_c, 0, 63, 77
1, 479260, Note_on_c, 0, 60, 63
1, 479260, Note_on_c, 0, 51, 53
1, 479268, Note_on_c, 0, 44, 53
1, 479304, Note_off_c, 0, 60, 64
1, 479348, Note_on_c, 0, 60, 60
1, 479396, Note_off_c, 0, 60, 64
1, 479420, Note_off_c, 0, 51, 64
1, 479424, Note_off_c, 0, 44, 64
1, 479440, Note_on_c, 0, 65, 55
1, 479444, Note_off_c, 0, 63, 64
1, 479444, Note_on_c, 0, 60, 57
1, 479452, Note_on_c, 0, 51, 55
1, 479452, Note_on_c, 0, 44, 55
1, 479488, Note_off_c, 0, 60, 64
1, 479500, Note_off_c, 0, 65, 64
1, 479500, Note_off_c, 0, 51, 64
1, 479508, Note_off_c, 0, 44, 64
1, 479536, Note_on_c, 0, 63, 72
1, 479540, Note_on_c, 0, 60, 53
1, 479548, Note_on_c, 0, 51, 55
1, 479548, Note_on_c, 0, 44, 52
1, 479576, Note_off_c, 0, 60, 64
1, 479640, Note_on_c, 0, 60, 48
1, 479676, Note_off_c, 0, 60, 64
1, 479704, Note_off_c, 0, 51, 64
1, 479708, Note_off_c, 0, 44, 64
1, 479720, Note_off_c, 0, 63, 64
1, 479724, Note_on_c, 0, 60, 54
1, 479732, Note_on_c, 0, 51, 54
1, 479740, Note_on_c, 0, 44, 48
1, 479772, Note_off_c, 0, 60, 64
1, 479776, Note_off_c, 0, 44, 64
1, 479788, Note_off_c, 0, 51, 64
1, 479820, Note_on_c, 0, 60, 50
1, 479820, Note_on_c, 0, 56, 58
1, 479828, Note_on_c, 0, 51, 50
1, 479828, Note_on_c, 0, 44, 50
1, 479880, Note_off_c, 0, 60, 64
1, 479916, Note_on_c, 0, 60, 57
1, 479960, Note_off_c, 0, 60, 64
1, 479984, Note_off_c, 0, 51, 64
1, 479984, Note_off_c, 0, 44, 64
1, 480004, Note_off_c, 0, 56, 64
1, 480012, Note_on_c, 0, 39, 46
1, 480016, Note_on_c, 0, 60, 51
1, 480016, Note_on_c, 0, 55, 61
1, 480016, Note_on_c, 0, 51, 48
1, 480056, Note_off_c, 0, 55, 64
1, 480060, Note_off_c, 0, 60, 64
1, 480076, Note_off_c, 0, 39, 64
1, 480084, Note_off_c, 0, 51, 64
1, 480088, Control_c, 0, 64, 0
1, 480124, Note_on_c, 0, 60, 56
1, 480124, Note_on_c, 0, 56, 67
1, 480128, Note_on_c, 0, 44, 49
1, 480128, Note_on_c, 0, 51, 50
1, 480148, Control_c, 0, 64, 127
1, 480176, Note_off_c, 0, 60, 64
1, 480220, Note_on_c, 0, 60, 53
1, 480268, Note_off_c, 0, 60, 64
1, 480288, Note_off_c, 0, 51, 64
1, 480296, Note_off_c, 0, 44, 64
1, 480308, Note_off_c, 0, 56, 64
1, 480320, Note_on_c, 0, 39, 39
1, 480328, Note_on_c, 0, 60, 48
1, 480328, Note_on_c, 0, 55, 58
1, 480328, Note_on_c, 0, 51, 49
1, 480360, Note_off_c, 0, 55, 64
1, 480368, Note_off_c, 0, 60, 64
1, 480392, Note_off_c, 0, 51, 64
1, 480396, Note_off_c, 0, 39, 64
1, 480428, Note_on_c, 0, 56, 64
1, 480432, Note_on_c, 0, 44, 46
1, 480432, Note_on_c, 0, 60, 55
1, 480440, Note_on_c, 0, 51, 52
1, 480484, Note_off_c, 0, 60, 64
1, 480532, Note_on_c, 0, 60, 49
1, 480584, Note_off_c, 0, 60, 64
1, 480612, Note_off_c, 0, 56, 64
1, 480624, Control_c, 0, 64, 0
1, 480628, Note_off_c, 0, 44, 64
1, 480636, Note_off_c, 0, 51, 64
1, 480640, Note_on_c, 0, 60, 51
1, 480640, Note_on_c, 0, 39, 39
1, 480644, Note_on_c, 0, 55, 58
1, 480648, Note_on_c, 0, 51, 46
1, 480680, Control_c, 0, 64, 127
1, 480688, Note_off_c, 0, 55, 64
1, 480700, Note_off_c, 0, 60, 64
1, 480708, Note_off_c, 0, 39, 64
1, 480724, Note_off_c, 0, 51, 64
1, 480744, Note_on_c, 0, 44, 41
1, 480744, Note_on_c, 0, 56, 60
1, 480748, Note_on_c, 0, 60, 49
1, 480748, Note_on_c, 0, 51, 46
1, 480796, Note_off_c, 0, 60, 64
1, 480848, Note_on_c, 0, 60, 50
1, 480896, Note_off_c, 0, 60, 64
1, 480928, Note_off_c, 0, 56, 64
1, 480940, Note_off_c, 0, 44, 64
1, 480940, Note_on_c, 0, 39, 40
1, 480944, Note_off_c, 0, 51, 64
1, 480948, Note_on_c, 0, 60, 46
1, 480948, Note_on_c, 0, 51, 36
1, 480956, Note_on_c, 0, 55, 55
1, 480996, Note_off_c, 0, 55, 64
1, 481004, Note_off_c, 0, 60, 64
1, 481028, Note_off_c, 0, 51, 64
1, 481040, Control_c, 0, 64, 0
1, 481052, Note_on_c, 0, 44, 48
1, 481056, Note_off_c, 0, 39, 64
1, 481056, Note_on_c, 0, 56, 62
1, 481056, Note_on_c, 0, 51, 53
1, 481056, Note_on_c, 0, 60, 49
1, 481092, Control_c, 0, 64, 127
1, 481116, Note_off_c, 0, 60, 64
1, 481160, Note_on_c, 0, 60, 44
1, 481212, Note_off_c, 0, 60, 64
1, 481240, Note_off_c, 0, 56, 64
1, 481248, Note_off_c, 0, 44, 64
1, 481252, Note_off_c, 0, 51, 64
1, 481264, Note_on_c, 0, 39, 32
1, 481268, Note_on_c, 0, 60, 47
1, 481272, Note_on_c, 0, 51, 33
1, 481276, Note_on_c, 0, 55, 53
1, 481308, Note_off_c, 0, 55, 64
1, 481324, Note_off_c, 0, 60, 64
1, 481344, Note_off_c, 0, 51, 64
1, 481364, Note_off_c, 0, 39, 64
1, 481376, Note_on_c, 0, 56, 54
1, 481380, Note_on_c, 0, 60, 43
1, 481380, Note_on_c, 0, 44, 39
1, 481384, Note_on_c, 0, 51, 47
1, 481432, Note_off_c, 0, 60, 64
1, 481476, Note_on_c, 0, 60, 43
1, 481532, Note_off_c, 0, 60, 64
1, 481560, Note_off_c, 0, 56, 64
1, 481584, Note_on_c, 0, 39, 43
1, 481588, Note_on_c, 0, 55, 51
1, 481592, Note_on_c, 0, 60, 47
1, 481608, Note_off_c, 0, 44, 64
1, 481616, Note_off_c, 0, 51, 64
1, 481628, Note_off_c, 0, 55, 64
1, 481636, Note_off_c, 0, 60, 64
1, 481660, Note_off_c, 0, 39, 64
1, 481748, Note_on_c, 0, 44, 57
1, 481752, Note_on_c, 0, 60, 67
1, 481752, Note_on_c, 0, 54, 59
1, 481764, Control_c, 0, 64, 0
1, 481824, Control_c, 0, 64, 127
1, 481864, Note_off_c, 0, 44, 64
1, 481864, Note_on_c, 0, 46, 42
1, 481948, Note_off_c, 0, 46, 64
1, 481956, Note_on_c, 0, 44, 54
1, 482020, Note_on_c, 0, 46, 59
1, 482028, Note_off_c, 0, 44, 64
1, 482088, Note_off_c, 0, 46, 64
1, 482100, Note_on_c, 0, 44, 55
1, 482160, Note_on_c, 0, 46, 68
1, 482168, Note_off_c, 0, 44, 64
1, 482232, Note_on_c, 0, 44, 31
1, 482240, Note_off_c, 0, 46, 64
1, 482280, Note_off_c, 0, 44, 64
1, 482284, Note_on_c, 0, 46, 68
1, 482292, Tempo, 500000
1, 482332, Note_off_c, 0, 46, 64
1, 482336, Note_on_c, 0, 44, 34
1, 482376, Note_on_c, 0, 46, 68
1, 482380, Note_off_c, 0, 44, 64
1, 482420, Note_off_c, 0, 46, 64
1, 482428, Note_on_c, 0, 44, 48
1, 482472, Note_on_c, 0, 46, 63
1, 482480, Note_off_c, 0, 44, 64
1, 482516, Note_off_c, 0, 46, 64
1, 482528, Note_on_c, 0, 44, 57
1, 482572, Note_on_c, 0, 46, 67
1, 482580, Note_off_c, 0, 44, 64
1, 482632, Note_on_c, 0, 44, 53
1, 482636, Note_off_c, 0, 46, 64
1, 482684, Note_on_c, 0, 46, 68
1, 482692, Note_off_c, 0, 44, 64
1, 482732, Note_off_c, 0, 46, 64
1, 482736, Control_c, 0, 64, 0
1, 482740, Note_on_c, 0, 44, 52
1, 482748, Note_on_c, 0, 61, 54
1, 482748, Note_on_c, 0, 52, 58
1, 482760, Note_off_c, 0, 54, 64
1, 482760, Note_off_c, 0, 60, 64
1, 482784, Control_c, 0, 64, 127
1, 482788, Note_on_c, 0, 46, 63
1, 482796, Note_off_c, 0, 44, 64
1, 482832, Note_off_c, 0, 46, 64
1, 482836, Note_on_c, 0, 44, 43
1, 482880, Note_on_c, 0, 46, 57
1, 482884, Note_off_c, 0, 44, 64
1, 482924, Note_off_c, 0, 46, 64
1, 482928, Note_on_c, 0, 44, 52
1, 482972, Note_on_c, 0, 46, 41
1, 482976, Note_off_c, 0, 44, 64
1, 483012, Note_off_c, 0, 46, 64
1, 483020, Note_on_c, 0, 44, 48
1, 483064, Note_on_c, 0, 46, 48
1, 483072, Note_off_c, 0, 44, 64
1, 483120, Note_on_c, 0, 44, 50
1, 483128, Note_off_c, 0, 46, 64
1, 483156, Note_on_c, 0, 58, 58
1, 483164, Note_on_c, 0, 46, 50
1, 483184, Note_off_c, 0, 44, 64
1, 483228, Note_on_c, 0, 44, 43
1, 483232, Note_off_c, 0, 46, 64
1, 483268, Note_on_c, 0, 46, 56
1, 483276, Note_off_c, 0, 44, 64
1, 483316, Note_on_c, 0, 44, 53
1, 483324, Note_off_c, 0, 46, 64
1, 483364, Note_off_c, 0, 44, 64
1, 483368, Note_on_c, 0, 46, 42
1, 483404, Note_on_c, 0, 44, 42
1, 483420, Note_off_c, 0, 46, 64
1, 483468, Note_on_c, 0, 46, 26
1, 483476, Note_off_c, 0, 44, 64
1, 483500, Note_off_c, 0, 52, 64
1, 483504, Note_off_c, 0, 46, 64
1, 483532, Control_c, 0, 64, 0
1, 483568, Note_on_c, 0, 51, 63
1, 483576, Note_on_c, 0, 43, 41
1, 483592, Control_c, 0, 64, 127
1, 483660, Note_off_c, 0, 43, 64
1, 483664, Note_on_c, 0, 44, 43
1, 483700, Note_off_c, 0, 44, 64
1, 483716, Note_on_c, 0, 43, 43
1, 483768, Note_off_c, 0, 43, 64
1, 483772, Note_on_c, 0, 44, 43
1, 483812, Note_off_c, 0, 44, 64
1, 483820, Note_on_c, 0, 43, 44
1, 483868, Note_off_c, 0, 43, 64
1, 483872, Note_on_c, 0, 44, 44
1, 483900, Note_off_c, 0, 58, 64
1, 483908, Note_off_c, 0, 44, 64
1, 483912, Note_on_c, 0, 43, 45
1, 483920, Note_off_c, 0, 61, 64
1, 483940, Note_off_c, 0, 51, 64
1, 483960, Note_off_c, 0, 43, 64
1, 483968, Note_on_c, 0, 42, 46
1, 484012, Note_off_c, 0, 42, 64
1, 484016, Note_on_c, 0, 43, 45
1, 484020, Control_c, 0, 64, 0
1, 484052, Note_on_c, 0, 60, 51
1, 484052, Note_on_c, 0, 51, 49
1, 484064, Note_on_c, 0, 56, 26
1, 484064, Note_on_c, 0, 44, 45
1, 484072, Note_off_c, 0, 43, 64
1, 484076, Control_c, 0, 64, 127
1, 484196, Note_off_c, 0, 44, 64
1, 484212, Note_on_c, 0, 46, 62
1, 484268, Note_off_c, 0, 46, 64
1, 484272, Note_on_c, 0, 44, 27
1, 484324, Note_on_c, 0, 46, 59
1, 484328, Note_off_c, 0, 44, 64
1, 484364, Note_off_c, 0, 46, 64
1, 484372, Note_on_c, 0, 44, 31
1, 484420, Note_on_c, 0, 46, 54
1, 484436, Note_off_c, 0, 44, 64
1, 484480, Note_off_c, 0, 46, 64
1, 484484, Note_on_c, 0, 44, 45
1, 484524, Note_on_c, 0, 54, 48
1, 484528, Note_on_c, 0, 46, 46
1, 484540, Note_off_c, 0, 44, 64
1, 484576, Note_off_c, 0, 51, 64
1, 484576, Note_off_c, 0, 56, 64
1, 484576, Note_off_c, 0, 46, 64
1, 484584, Note_on_c, 0, 44, 40
1, 484628, Note_on_c, 0, 46, 45
1, 484640, Note_off_c, 0, 44, 64
1, 484680, Note_off_c, 0, 46, 64
1, 484680, Note_on_c, 0, 44, 42
1, 484728, Note_on_c, 0, 46, 41
1, 484732, Note_off_c, 0, 44, 64
1, 484772, Note_off_c, 0, 46, 64
1, 484780, Note_on_c, 0, 44, 34
1, 484828, Note_on_c, 0, 46, 28
1, 484832, Note_off_c, 0, 44, 64
1, 484872, Note_off_c, 0, 46, 64
1, 484876, Note_on_c, 0, 44, 41
1, 484920, Note_on_c, 0, 46, 45
1, 484924, Note_off_c, 0, 44, 64
1, 484972, Note_off_c, 0, 46, 64
1, 484976, Note_on_c, 0, 44, 34
1, 485020, Note_off_c, 0, 44, 64
1, 485020, Note_on_c, 0, 46, 46
1, 485068, Note_off_c, 0, 46, 64
1, 485072, Note_on_c, 0, 44, 34
1, 485116, Note_on_c, 0, 46, 46
1, 485120, Note_off_c, 0, 44, 64
1, 485160, Note_off_c, 0, 46, 64
1, 485168, Note_on_c, 0, 44, 35
1, 485204, Note_on_c, 0, 46, 38
1, 485220, Note_off_c, 0, 44, 64
1, 485260, Note_off_c, 0, 46, 64
1, 485260, Note_on_c, 0, 44, 39
1, 485300, Note_on_c, 0, 46, 40
1, 485312, Note_off_c, 0, 44, 64
1, 485316, Control_c, 0, 64, 0
1, 485332, Note_off_c, 0, 60, 64
1, 485332, Note_on_c, 0, 61, 61
1, 485332, Note_on_c, 0, 52, 60
1, 485348, Note_off_c, 0, 54, 64
1, 485352, Note_off_c, 0, 46, 64
1, 485352, Note_on_c, 0, 44, 50
1, 485368, Control_c, 0, 64, 127
1, 485396, Note_on_c, 0, 46, 59
1, 485408, Note_off_c, 0, 44, 64
1, 485448, Note_off_c, 0, 46, 64
1, 485452, Note_on_c, 0, 44, 45
1, 485492, Note_on_c, 0, 46, 58
1, 485500, Note_off_c, 0, 44, 64
1, 485548, Note_off_c, 0, 46, 64
1, 485552, Note_on_c, 0, 44, 34
1, 485596, Note_on_c, 0, 46, 41
1, 485604, Note_off_c, 0, 44, 64
1, 485652, Note_on_c, 0, 44, 51
1, 485660, Note_off_c, 0, 46, 64
1, 485704, Note_on_c, 0, 46, 45
1, 485708, Note_off_c, 0, 44, 64
1, 485728, Control_c, 0, 64, 0
1, 485740, Note_on_c, 0, 58, 54
1, 485752, Note_on_c, 0, 44, 45
1, 485764, Note_off_c, 0, 46, 64
1, 485784, Control_c, 0, 64, 127
1, 485796, Note_on_c, 0, 46, 55
1, 485804, Note_off_c, 0, 44, 64
1, 485852, Note_on_c, 0, 44, 35
1, 485856, Note_off_c, 0, 46, 64
1, 485904, Note_on_c, 0, 46, 35
1, 485912, Note_off_c, 0, 44, 64
1, 485944, Note_off_c, 0, 46, 64
1, 485944, Note_on_c, 0, 44, 41
1, 486004, Note_off_c, 0, 44, 64
1, 486008, Note_on_c, 0, 46, 19
1, 486052, Note_on_c, 0, 44, 41
1, 486064, Note_off_c, 0, 46, 64
1, 486092, Note_on_c, 0, 46, 41
1, 486108, Note_off_c, 0, 52, 64
1, 486108, Note_off_c, 0, 44, 64
1, 486136, Note_on_c, 0, 44, 34
1, 486140, Note_off_c, 0, 46, 64
1, 486176, Control_c, 0, 64, 0
1, 486180, Note_off_c, 0, 44, 64
1, 486192, Note_on_c, 0, 51, 43
1, 486204, Note_on_c, 0, 43, 37
1, 486228, Control_c, 0, 64, 127
1, 486324, Note_on_c, 0, 44, 37
1, 486332, Note_off_c, 0, 43, 64
1, 486404, Note_on_c, 0, 43, 36
1, 486408, Note_off_c, 0, 51, 64
1, 486412, Note_off_c, 0, 44, 64
1, 486420, Note_off_c, 0, 61, 64
1, 486420, Note_off_c, 0, 58, 64
1, 486468, Note_on_c, 0, 44, 35
1, 486472, Note_off_c, 0, 43, 64
1, 486512, Note_on_c, 0, 43, 35
1, 486520, Note_off_c, 0, 44, 64
1, 486572, Note_on_c, 0, 42, 34
1, 486592, Note_off_c, 0, 43, 64
1, 486720, Note_on_c, 0, 43, 34
1, 486748, Note_off_c, 0, 42, 64
1, 486792, Control_c, 0, 64, 0
1, 486860, Control_c, 0, 64, 127
1, 486908, Note_off_c, 0, 43, 64
1, 487044, Note_on_c, 0, 60, 35
1, 487044, Note_on_c, 0, 56, 35
1, 487044, Note_on_c, 0, 51, 38
1, 487044, Note_on_c, 0, 44, 62
1, 487132, Note_off_c, 0, 60, 64
1, 487132, Note_off_c, 0, 56, 64
1, 487132, Note_off_c, 0, 51, 64
1, 487136, Note_off_c, 0, 44, 64
1, 488044, Control_c, 0, 64, 0
1, 488256, Control_c, 0, 64, 127
1, 488356, Note_on_c, 0, 51, 46
1, 488356, Note_on_c, 0, 32, 59
1, 488364, Note_on_c, 0, 60, 47
1, 489968, Note_off_c, 0, 60, 64
1, 490236, Note_on_c, 0, 80, 76
1, 490236, Note_on_c, 0, 72, 76
1, 490236, Note_on_c, 0, 68, 76
1, 490244, Note_on_c, 0, 92, 76
1, 490244, Note_on_c, 0, 63, 76
1, 490244, Note_on_c, 0, 60, 47
1, 493888, Note_off_c, 0, 80, 64
1, 493896, Note_off_c, 0, 63, 64
1, 493900, Note_off_c, 0, 60, 64
1, 493900, Note_off_c, 0, 72, 64
1, 493904, Note_off_c, 0, 68, 64
1, 493912, Note_off_c, 0, 92, 64
1, 493916, Note_off_c, 0, 32, 64
1, 493916, Note_off_c, 0, 51, 64
1, 493916, End_track
2, 0, Start_track
2, 1, Copyright_t, "__________________________________________________________\012\012KUNSTDERFUGE.COM GREAT CLASSICAL MIDI COLLECTION\012__________________________________________________________\012\012KUNST-DER-FUGE CONTRIBUTOR's PROPERTY\012Copyright by Contributor & Kunst der Fuge, © 2006\012\012Contributors' list: http://kunstderfuge.com/thanks.htm\012Terms and conditions: http://kunstderfuge.com/notes.htm\012__________________________________________________________\012\012NO WEBSITE MAY PUBLISH THIS FILE WITHOUT PERMISSION\012NO COMMERCIAL USE ALLOWED, NOR BY SALES NOR by eBay!\012PLEASE REPORT ANY ABUSE TO INFO@ONCLASSICAL.COM\012__________________________________________________________\012\012Thousands of free classical MIDI files at kunstderfuge.com"
2, 1, End_track
0, 0, End_of_file
