0, 0, Header, 0, 1, 480
1, 0, Start_track
1, 0, Sequencer_specific, 6, 67, 113, 0, 0, 0, 67
1, 0, Sequencer_specific, 39, 67, 113, 0, 1, 0, 1, 0, 83, 111, 110, 97, 116, 97, 32, 105, 110, 32, 67, 32, 32, 32, 32, 32, 68, 46, 32, 69, 118, 115, 116, 105, 111, 117, 107, 104, 105, 110, 101, 32
1, 0, Sequencer_specific, 5, 67, 123, 12, 0, 1
1, 0, Tempo, 512820
1, 0, Time_signature, 4, 2, 24, 8
1, 0, System_exclusive, 5, 126, 127, 9, 1, 247
1, 1, System_exclusive, 8, 67, 16, 76, 0, 0, 126, 0, 247
1, 5, Control_c, 0, 0, 0
1, 6, Control_c, 0, 32, 0
1, 7, Program_c, 0, 0
1, 8, Control_c, 0, 7, 100
1, 199, Control_c, 0, 67, 6
1, 390, Control_c, 0, 67, 12
1, 581, Control_c, 0, 67, 18
1, 772, Control_c, 0, 67, 24
1, 963, Control_c, 0, 67, 30
1, 1154, Control_c, 0, 67, 36
1, 1345, Control_c, 0, 67, 42
1, 1536, Control_c, 0, 67, 49
1, 1918, Note_on_c, 0, 72, 76
1, 1955, Note_on_c, 0, 72, 0
1, 1982, Control_c, 0, 67, 45
1, 2411, Note_on_c, 0, 67, 73
1, 2443, Note_on_c, 0, 67, 0
1, 2901, Note_on_c, 0, 64, 71
1, 2948, Note_on_c, 0, 64, 0
1, 3144, Note_on_c, 0, 48, 55
1, 3173, Note_on_c, 0, 48, 0
1, 3367, Note_on_c, 0, 36, 68
1, 3405, Note_on_c, 0, 36, 0
1, 3598, Note_on_c, 0, 69, 77
1, 3640, Note_on_c, 0, 69, 0
1, 3830, Note_on_c, 0, 62, 76
1, 3886, Note_on_c, 0, 62, 0
1, 4062, Note_on_c, 0, 48, 64
1, 4100, Note_on_c, 0, 48, 0
1, 4288, Note_on_c, 0, 36, 66
1, 4327, Note_on_c, 0, 36, 0
1, 4347, Control_c, 0, 67, 49
1, 4518, Note_on_c, 0, 67, 67
1, 4560, Note_on_c, 0, 67, 0
1, 4757, Note_on_c, 0, 60, 62
1, 4797, Note_on_c, 0, 60, 0
1, 4993, Note_on_c, 0, 48, 40
1, 5033, Note_on_c, 0, 48, 0
1, 5211, Note_on_c, 0, 36, 57
1, 5251, Note_on_c, 0, 36, 0
1, 5453, Note_on_c, 0, 76, 82
1, 5674, Note_on_c, 0, 65, 80
1, 5689, Note_on_c, 0, 76, 0
1, 5734, Note_on_c, 0, 65, 0
1, 5754, Control_c, 0, 67, 45
1, 5907, Note_on_c, 0, 48, 75
1, 6134, Note_on_c, 0, 36, 72
1, 6141, Note_on_c, 0, 48, 0
1, 6180, Note_on_c, 0, 36, 0
1, 6367, Control_c, 0, 67, 49
1, 6367, Note_on_c, 0, 74, 78
1, 6550, Control_c, 0, 67, 53
1, 6588, Note_on_c, 0, 64, 65
1, 6603, Note_on_c, 0, 74, 0
1, 6640, Note_on_c, 0, 64, 0
1, 6726, Control_c, 0, 67, 57
1, 6813, Note_on_c, 0, 48, 60
1, 6911, Control_c, 0, 67, 61
1, 7041, Control_c, 0, 67, 66
1, 7041, Note_on_c, 0, 36, 61
1, 7044, Note_on_c, 0, 48, 0
1, 7089, Note_on_c, 0, 36, 0
1, 7115, Control_c, 0, 67, 70
1, 7188, Control_c, 0, 67, 75
1, 7264, Note_on_c, 0, 72, 70
1, 7307, Note_on_c, 0, 72, 0
1, 7374, Control_c, 0, 67, 79
1, 7484, Note_on_c, 0, 62, 66
1, 7693, Note_on_c, 0, 62, 0
1, 7714, Note_on_c, 0, 69, 67
1, 7762, Note_on_c, 0, 48, 39
1, 7763, Note_on_c, 0, 69, 0
1, 7935, Note_on_c, 0, 57, 61
1, 7955, Note_on_c, 0, 48, 0
1, 7956, Note_on_c, 0, 36, 50
1, 8065, Note_on_c, 0, 36, 0
1, 8147, Note_on_c, 0, 57, 0
1, 8169, Note_on_c, 0, 59, 57
1, 8213, Note_on_c, 0, 59, 0
1, 8394, Note_on_c, 0, 62, 54
1, 8402, Control_c, 0, 67, 83
1, 8459, Control_c, 0, 67, 90
1, 8493, Control_c, 0, 67, 95
1, 8560, Control_c, 0, 67, 99
1, 8619, Note_on_c, 0, 62, 0
1, 8631, Note_on_c, 0, 60, 50
1, 8648, Note_on_c, 0, 48, 39
1, 8693, Note_on_c, 0, 60, 0
1, 8801, Control_c, 0, 67, 103
1, 8839, Control_c, 0, 67, 108
1, 8859, Control_c, 0, 67, 112
1, 8860, Note_on_c, 0, 36, 49
1, 8873, Control_c, 0, 67, 117
1, 8881, Note_on_c, 0, 48, 0
1, 8893, Control_c, 0, 67, 123
1, 8897, Note_on_c, 0, 36, 0
1, 8912, Control_c, 0, 67, 127
1, 9084, Note_on_c, 0, 62, 69
1, 9094, Note_on_c, 0, 59, 51
1, 9121, Note_on_c, 0, 59, 0
1, 9123, Note_on_c, 0, 62, 0
1, 9338, Note_on_c, 0, 65, 71
1, 9370, Note_on_c, 0, 62, 48
1, 9579, Note_on_c, 0, 62, 0
1, 9585, Note_on_c, 0, 64, 57
1, 9586, Note_on_c, 0, 60, 48
1, 9606, Note_on_c, 0, 48, 42
1, 9618, Note_on_c, 0, 65, 0
1, 9648, Note_on_c, 0, 60, 0
1, 9676, Note_on_c, 0, 64, 0
1, 9808, Note_on_c, 0, 36, 58
1, 9820, Note_on_c, 0, 48, 0
1, 9862, Note_on_c, 0, 36, 0
1, 10040, Note_on_c, 0, 65, 72
1, 10047, Note_on_c, 0, 62, 61
1, 10087, Note_on_c, 0, 62, 0
1, 10094, Note_on_c, 0, 65, 0
1, 10264, Note_on_c, 0, 69, 79
1, 10273, Note_on_c, 0, 65, 62
1, 10493, Note_on_c, 0, 65, 0
1, 10498, Note_on_c, 0, 64, 68
1, 10501, Note_on_c, 0, 67, 74
1, 10519, Note_on_c, 0, 48, 57
1, 10548, Note_on_c, 0, 64, 0
1, 10548, Note_on_c, 0, 69, 0
1, 10574, Note_on_c, 0, 67, 0
1, 10685, Poly_aftertouch_c, 0, 39, 0
1, 10685, Note_on_c, 0, 48, 0
1, 10729, Note_on_c, 0, 36, 76
1, 10776, Note_on_c, 0, 36, 0
1, 10784, Control_c, 0, 67, 118
1, 10800, Control_c, 0, 67, 110
1, 10821, Control_c, 0, 67, 102
1, 10838, Control_c, 0, 67, 95
1, 10857, Control_c, 0, 67, 89
1, 10895, Control_c, 0, 67, 85
1, 10945, Note_on_c, 0, 71, 80
1, 10946, Note_on_c, 0, 62, 71
1, 10986, Note_on_c, 0, 62, 0
1, 11021, Note_on_c, 0, 71, 0
1, 11195, Note_on_c, 0, 74, 80
1, 11208, Note_on_c, 0, 65, 68
1, 11336, Note_on_c, 0, 65, 0
1, 11444, Note_on_c, 0, 72, 77
1, 11458, Note_on_c, 0, 64, 68
1, 11465, Note_on_c, 0, 74, 0
1, 11473, Note_on_c, 0, 48, 58
1, 11502, Note_on_c, 0, 64, 0
1, 11561, Note_on_c, 0, 72, 0
1, 11606, Control_c, 0, 67, 80
1, 11645, Control_c, 0, 67, 76
1, 11657, Poly_aftertouch_c, 0, 39, 0
1, 11674, Note_on_c, 0, 48, 0
1, 11702, Note_on_c, 0, 36, 74
1, 11736, Control_c, 0, 67, 71
1, 11791, Note_on_c, 0, 36, 0
1, 11793, Control_c, 0, 67, 67
1, 11922, Control_c, 0, 64, 10
1, 11940, Control_c, 0, 64, 20
1, 11959, Control_c, 0, 64, 27
1, 11977, Control_c, 0, 64, 34
1, 11993, Note_on_c, 0, 74, 79
1, 11996, Control_c, 0, 64, 40
1, 12009, Note_on_c, 0, 71, 64
1, 12015, Control_c, 0, 64, 45
1, 12033, Control_c, 0, 64, 48
1, 12052, Control_c, 0, 64, 51
1, 12068, Note_on_c, 0, 71, 0
1, 12069, Control_c, 0, 64, 55
1, 12087, Control_c, 0, 64, 58
1, 12108, Control_c, 0, 64, 60
1, 12125, Control_c, 0, 64, 61
1, 12143, Note_on_c, 0, 74, 0
1, 12145, Control_c, 0, 64, 62
1, 12182, Control_c, 0, 64, 63
1, 12200, Control_c, 0, 64, 64
1, 12235, Control_c, 0, 64, 65
1, 12450, Control_c, 0, 64, 64
1, 12467, Note_on_c, 0, 77, 80
1, 12494, Note_on_c, 0, 74, 57
1, 12505, Control_c, 0, 64, 63
1, 12544, Control_c, 0, 64, 62
1, 12561, Control_c, 0, 64, 61
1, 12599, Control_c, 0, 64, 60
1, 12690, Control_c, 0, 64, 58
1, 12709, Control_c, 0, 67, 63
1, 12746, Control_c, 0, 64, 56
1, 12784, Control_c, 0, 64, 53
1, 12819, Control_c, 0, 64, 50
1, 12875, Control_c, 0, 64, 48
1, 12913, Control_c, 0, 64, 46
1, 12970, Control_c, 0, 64, 44
1, 13042, Control_c, 0, 64, 41
1, 13227, Control_c, 0, 67, 67
1, 13403, Control_c, 0, 64, 44
1, 13421, Control_c, 0, 64, 46
1, 13459, Control_c, 0, 64, 48
1, 13497, Control_c, 0, 64, 51
1, 13535, Control_c, 0, 64, 54
1, 13589, Control_c, 0, 64, 57
1, 13719, Control_c, 0, 64, 59
1, 14033, Control_c, 0, 64, 57
1, 14071, Control_c, 0, 64, 55
1, 14126, Control_c, 0, 64, 53
1, 14162, Control_c, 0, 64, 50
1, 14192, Control_c, 0, 64, 48
1, 14209, Note_on_c, 0, 76, 34
1, 14210, Control_c, 0, 64, 46
1, 14228, Control_c, 0, 64, 43
1, 14240, Note_on_c, 0, 74, 0
1, 14248, Poly_aftertouch_c, 0, 77, 24
1, 14254, Note_on_c, 0, 72, 22
1, 14266, Control_c, 0, 64, 40
1, 14300, Control_c, 0, 64, 34
1, 14320, Control_c, 0, 64, 29
1, 14325, Note_on_c, 0, 77, 0
1, 14339, Control_c, 0, 64, 23
1, 14357, Control_c, 0, 64, 19
1, 14395, Control_c, 0, 64, 14
1, 14432, Control_c, 0, 64, 0
1, 14599, Control_c, 0, 67, 63
1, 14672, Control_c, 0, 67, 57
1, 14690, Control_c, 0, 67, 49
1, 14709, Control_c, 0, 67, 42
1, 14727, Control_c, 0, 67, 33
1, 14747, Control_c, 0, 67, 22
1, 14784, Control_c, 0, 67, 0
1, 14807, Note_on_c, 0, 72, 0
1, 14820, Note_on_c, 0, 76, 0
1, 15152, Note_on_c, 0, 72, 61
1, 15161, Note_on_c, 0, 76, 72
1, 15167, Note_on_c, 0, 36, 56
1, 15171, Note_on_c, 0, 40, 66
1, 15183, Note_on_c, 0, 43, 68
1, 15185, Note_on_c, 0, 79, 75
1, 15192, Note_on_c, 0, 72, 0
1, 15200, Control_c, 0, 64, 24
1, 15217, Note_on_c, 0, 84, 94
1, 15219, Control_c, 0, 64, 84
1, 15229, Note_on_c, 0, 48, 96
1, 15236, Control_c, 0, 64, 127
1, 15246, Note_on_c, 0, 76, 0
1, 15249, Note_on_c, 0, 40, 0
1, 15264, Note_on_c, 0, 36, 0
1, 15265, Note_on_c, 0, 43, 0
1, 15266, Note_on_c, 0, 84, 0
1, 15271, Note_on_c, 0, 79, 0
1, 15283, Note_on_c, 0, 48, 0
1, 15478, Control_c, 0, 64, 113
1, 15496, Control_c, 0, 64, 86
1, 15515, Control_c, 0, 64, 65
1, 15536, Control_c, 0, 64, 44
1, 15553, Control_c, 0, 64, 31
1, 15571, Control_c, 0, 64, 23
1, 15606, Control_c, 0, 64, 0
1, 15666, Note_on_c, 0, 71, 51
1, 15669, Note_on_c, 0, 74, 76
1, 15673, Note_on_c, 0, 47, 57
1, 15682, Note_on_c, 0, 43, 56
1, 15691, Note_on_c, 0, 50, 58
1, 15699, Note_on_c, 0, 71, 0
1, 15714, Note_on_c, 0, 79, 92
1, 15720, Control_c, 0, 64, 51
1, 15724, Note_on_c, 0, 55, 89
1, 15738, Control_c, 0, 64, 86
1, 15754, Note_on_c, 0, 43, 0
1, 15757, Control_c, 0, 64, 127
1, 15758, Note_on_c, 0, 74, 0
1, 15766, Note_on_c, 0, 79, 0
1, 15767, Note_on_c, 0, 47, 0
1, 15768, Note_on_c, 0, 50, 0
1, 15777, Note_on_c, 0, 55, 0
1, 16056, Control_c, 0, 64, 101
1, 16075, Control_c, 0, 64, 50
1, 16094, Control_c, 0, 64, 0
1, 16106, Note_on_c, 0, 67, 58
1, 16135, Note_on_c, 0, 52, 62
1, 16139, Note_on_c, 0, 72, 68
1, 16144, Note_on_c, 0, 48, 57
1, 16154, Note_on_c, 0, 67, 0
1, 16166, Control_c, 0, 64, 51
1, 16179, Note_on_c, 0, 55, 40
1, 16187, Control_c, 0, 64, 77
1, 16189, Note_on_c, 0, 76, 92
1, 16205, Control_c, 0, 64, 118
1, 16209, Note_on_c, 0, 72, 0
1, 16210, Note_on_c, 0, 60, 88
1, 16217, Note_on_c, 0, 55, 0
1, 16222, Control_c, 0, 64, 127
1, 16231, Note_on_c, 0, 48, 0
1, 16236, Note_on_c, 0, 52, 0
1, 16244, Note_on_c, 0, 76, 0
1, 16262, Note_on_c, 0, 60, 0
1, 16650, Control_c, 0, 64, 111
1, 16668, Control_c, 0, 64, 60
1, 16687, Control_c, 0, 64, 0
1, 16706, Control_c, 0, 67, 15
1, 16722, Control_c, 0, 67, 24
1, 16741, Control_c, 0, 67, 32
1, 16760, Control_c, 0, 67, 44
1, 16778, Control_c, 0, 67, 60
1, 16797, Control_c, 0, 67, 77
1, 16815, Control_c, 0, 67, 94
1, 16835, Control_c, 0, 67, 107
1, 16852, Control_c, 0, 67, 117
1, 16872, Control_c, 0, 67, 126
1, 16900, Note_on_c, 0, 83, 57
1, 16950, Note_on_c, 0, 81, 62
1, 16983, Note_on_c, 0, 83, 0
1, 16999, Note_on_c, 0, 81, 0
1, 17024, Note_on_c, 0, 80, 54
1, 17051, Note_on_c, 0, 80, 0
1, 17073, Note_on_c, 0, 81, 74
1, 17106, Note_on_c, 0, 81, 0
1, 17140, Note_on_c, 0, 74, 71
1, 17371, Note_on_c, 0, 74, 0
1, 17372, Note_on_c, 0, 65, 54
1, 17377, Note_on_c, 0, 71, 54
1, 17404, Note_on_c, 0, 71, 0
1, 17410, Note_on_c, 0, 65, 0
1, 17594, Note_on_c, 0, 65, 51
1, 17608, Note_on_c, 0, 71, 51
1, 17634, Note_on_c, 0, 65, 0
1, 17642, Note_on_c, 0, 71, 0
1, 17823, Note_on_c, 0, 81, 54
1, 17864, Note_on_c, 0, 79, 62
1, 17890, Note_on_c, 0, 81, 0
1, 17916, Note_on_c, 0, 79, 0
1, 17933, Note_on_c, 0, 78, 58
1, 17976, Note_on_c, 0, 78, 0
1, 17990, Note_on_c, 0, 79, 71
1, 18031, Note_on_c, 0, 79, 0
1, 18060, Note_on_c, 0, 72, 61
1, 18299, Note_on_c, 0, 64, 54
1, 18301, Note_on_c, 0, 67, 47
1, 18328, Note_on_c, 0, 67, 0
1, 18341, Note_on_c, 0, 64, 0
1, 18342, Note_on_c, 0, 72, 0
1, 18497, Note_on_c, 0, 67, 53
1, 18499, Note_on_c, 0, 64, 57
1, 18539, Note_on_c, 0, 67, 0
1, 18543, Note_on_c, 0, 64, 0
1, 18722, Note_on_c, 0, 88, 83
1, 18947, Note_on_c, 0, 88, 0
1, 18960, Note_on_c, 0, 77, 83
1, 19065, Note_on_c, 0, 62, 69
1, 19173, Note_on_c, 0, 61, 72
1, 19175, Note_on_c, 0, 62, 0
1, 19271, Note_on_c, 0, 62, 64
1, 19274, Note_on_c, 0, 61, 0
1, 19279, Note_on_c, 0, 77, 0
1, 19328, Note_on_c, 0, 62, 0
1, 19369, Note_on_c, 0, 60, 69
1, 19420, Note_on_c, 0, 60, 0
1, 19470, Note_on_c, 0, 59, 67
1, 19531, Note_on_c, 0, 59, 0
1, 19576, Note_on_c, 0, 57, 67
1, 19585, Note_on_c, 0, 86, 74
1, 19643, Note_on_c, 0, 57, 0
1, 19687, Note_on_c, 0, 55, 64
1, 19732, Note_on_c, 0, 55, 0
1, 19829, Note_on_c, 0, 76, 72
1, 19843, Note_on_c, 0, 86, 0
1, 19946, Note_on_c, 0, 60, 62
1, 20036, Note_on_c, 0, 60, 0
1, 20051, Note_on_c, 0, 62, 56
1, 20118, Note_on_c, 0, 62, 0
1, 20133, Note_on_c, 0, 64, 59
1, 20172, Note_on_c, 0, 76, 0
1, 20227, Note_on_c, 0, 64, 0
1, 20238, Note_on_c, 0, 65, 63
1, 20289, Note_on_c, 0, 65, 0
1, 20335, Note_on_c, 0, 67, 58
1, 20397, Note_on_c, 0, 67, 0
1, 20451, Note_on_c, 0, 68, 62
1, 20470, Note_on_c, 0, 84, 62
1, 20512, Note_on_c, 0, 68, 0
1, 20570, Note_on_c, 0, 69, 55
1, 20616, Note_on_c, 0, 69, 0
1, 20672, Note_on_c, 0, 84, 0
1, 20682, Note_on_c, 0, 74, 68
1, 20691, Note_on_c, 0, 65, 53
1, 20742, Note_on_c, 0, 74, 0
1, 20922, Note_on_c, 0, 81, 62
1, 20933, Note_on_c, 0, 77, 50
1, 20960, Note_on_c, 0, 77, 0
1, 20962, Note_on_c, 0, 81, 0
1, 21149, Note_on_c, 0, 79, 67
1, 21154, Note_on_c, 0, 65, 0
1, 21167, Note_on_c, 0, 76, 49
1, 21350, Note_on_c, 0, 76, 0
1, 21363, Note_on_c, 0, 71, 68
1, 21368, Note_on_c, 0, 67, 61
1, 21401, Note_on_c, 0, 67, 0
1, 21407, Note_on_c, 0, 71, 0
1, 21586, Note_on_c, 0, 72, 77
1, 21590, Note_on_c, 0, 64, 73
1, 21592, Note_on_c, 0, 60, 77
1, 21627, Note_on_c, 0, 64, 0
1, 21644, Note_on_c, 0, 72, 0
1, 21691, Note_on_c, 0, 60, 0
1, 21693, Note_on_c, 0, 67, 65
1, 21808, Note_on_c, 0, 67, 0
1, 21816, Note_on_c, 0, 72, 76
1, 21816, Note_on_c, 0, 64, 60
1, 21816, Note_on_c, 0, 79, 0
1, 21816, Note_on_c, 0, 60, 68
1, 21858, Note_on_c, 0, 64, 0
1, 21859, Note_on_c, 0, 72, 0
1, 21880, Note_on_c, 0, 60, 0
1, 21930, Note_on_c, 0, 67, 67
1, 22032, Note_on_c, 0, 64, 77
1, 22042, Note_on_c, 0, 60, 72
1, 22048, Note_on_c, 0, 67, 0
1, 22083, Note_on_c, 0, 64, 0
1, 22097, Note_on_c, 0, 60, 0
1, 22143, Note_on_c, 0, 67, 64
1, 22249, Note_on_c, 0, 81, 67
1, 22253, Note_on_c, 0, 64, 67
1, 22255, Note_on_c, 0, 67, 0
1, 22256, Note_on_c, 0, 60, 71
1, 22297, Note_on_c, 0, 64, 0
1, 22297, Note_on_c, 0, 79, 74
1, 22332, Note_on_c, 0, 60, 0
1, 22338, Note_on_c, 0, 81, 0
1, 22344, Note_on_c, 0, 67, 69
1, 22354, Note_on_c, 0, 78, 73
1, 22356, Note_on_c, 0, 79, 0
1, 22410, Note_on_c, 0, 78, 0
1, 22415, Note_on_c, 0, 79, 72
1, 22471, Note_on_c, 0, 79, 0
1, 22472, Note_on_c, 0, 65, 74
1, 22477, Note_on_c, 0, 60, 70
1, 22479, Note_on_c, 0, 62, 69
1, 22481, Note_on_c, 0, 67, 0
1, 22486, Note_on_c, 0, 71, 84
1, 22516, Note_on_c, 0, 65, 0
1, 22528, Note_on_c, 0, 62, 0
1, 22549, Note_on_c, 0, 71, 0
1, 22551, Note_on_c, 0, 60, 0
1, 22563, Note_on_c, 0, 67, 64
1, 22710, Note_on_c, 0, 67, 0
1, 22713, Note_on_c, 0, 65, 72
1, 22719, Note_on_c, 0, 71, 86
1, 22722, Note_on_c, 0, 62, 67
1, 22723, Note_on_c, 0, 60, 64
1, 22767, Note_on_c, 0, 65, 0
1, 22782, Note_on_c, 0, 62, 0
1, 22785, Note_on_c, 0, 71, 0
1, 22802, Note_on_c, 0, 60, 0
1, 22827, Note_on_c, 0, 67, 73
1, 22929, Note_on_c, 0, 67, 0
1, 22932, Note_on_c, 0, 65, 80
1, 22941, Note_on_c, 0, 62, 72
1, 22947, Note_on_c, 0, 60, 72
1, 22999, Note_on_c, 0, 65, 0
1, 23014, Note_on_c, 0, 60, 0
1, 23014, Note_on_c, 0, 62, 0
1, 23027, Note_on_c, 0, 67, 73
1, 23116, Note_on_c, 0, 67, 0
1, 23140, Note_on_c, 0, 65, 70
1, 23148, Note_on_c, 0, 62, 70
1, 23151, Note_on_c, 0, 81, 73
1, 23159, Note_on_c, 0, 60, 62
1, 23188, Note_on_c, 0, 65, 0
1, 23193, Note_on_c, 0, 62, 0
1, 23201, Note_on_c, 0, 79, 79
1, 23206, Note_on_c, 0, 60, 0
1, 23227, Note_on_c, 0, 81, 0
1, 23237, Note_on_c, 0, 67, 73
1, 23261, Note_on_c, 0, 79, 0
1, 23264, Note_on_c, 0, 78, 64
1, 23303, Note_on_c, 0, 79, 77
1, 23303, Note_on_c, 0, 78, 0
1, 23375, Note_on_c, 0, 64, 69
1, 23379, Note_on_c, 0, 84, 86
1, 23380, Note_on_c, 0, 60, 65
1, 23380, Note_on_c, 0, 67, 0
1, 23392, Note_on_c, 0, 79, 0
1, 23413, Note_on_c, 0, 83, 46
1, 23413, Note_on_c, 0, 83, 0
1, 23441, Note_on_c, 0, 64, 0
1, 23450, Poly_aftertouch_c, 0, 83, 0
1, 23458, Note_on_c, 0, 60, 0
1, 23484, Note_on_c, 0, 67, 68
1, 23593, Note_on_c, 0, 67, 0
1, 23598, Note_on_c, 0, 84, 0
1, 23613, Note_on_c, 0, 64, 60
1, 23614, Note_on_c, 0, 60, 70
1, 23615, Note_on_c, 0, 88, 83
1, 23662, Note_on_c, 0, 88, 0
1, 23664, Note_on_c, 0, 64, 0
1, 23691, Note_on_c, 0, 60, 0
1, 23723, Note_on_c, 0, 67, 67
1, 23828, Note_on_c, 0, 67, 0
1, 23830, Note_on_c, 0, 64, 60
1, 23837, Note_on_c, 0, 60, 63
1, 23877, Note_on_c, 0, 64, 0
1, 23886, Note_on_c, 0, 60, 0
1, 23938, Note_on_c, 0, 79, 64
1, 23939, Note_on_c, 0, 67, 47
1, 23995, Note_on_c, 0, 79, 0
1, 24004, Note_on_c, 0, 67, 0
1, 24040, Note_on_c, 0, 81, 67
1, 24048, Note_on_c, 0, 64, 49
1, 24052, Note_on_c, 0, 60, 53
1, 24075, Note_on_c, 0, 64, 0
1, 24102, Note_on_c, 0, 60, 0
1, 24103, Note_on_c, 0, 79, 69
1, 24120, Note_on_c, 0, 81, 0
1, 24136, Note_on_c, 0, 79, 0
1, 24149, Note_on_c, 0, 67, 35
1, 24168, Note_on_c, 0, 78, 49
1, 24194, Note_on_c, 0, 78, 0
1, 24210, Note_on_c, 0, 79, 69
1, 24234, Note_on_c, 0, 67, 0
1, 24243, Note_on_c, 0, 79, 0
1, 24287, Note_on_c, 0, 71, 66
1, 24298, Note_on_c, 0, 60, 43
1, 24301, Note_on_c, 0, 62, 49
1, 24303, Note_on_c, 0, 65, 36
1, 24330, Note_on_c, 0, 71, 0
1, 24340, Note_on_c, 0, 62, 0
1, 24340, Note_on_c, 0, 65, 0
1, 24348, Note_on_c, 0, 60, 0
1, 24386, Note_on_c, 0, 67, 51
1, 24478, Note_on_c, 0, 67, 0
1, 24525, Note_on_c, 0, 71, 59
1, 24533, Note_on_c, 0, 65, 33
1, 24547, Note_on_c, 0, 60, 40
1, 24552, Note_on_c, 0, 62, 34
1, 24568, Note_on_c, 0, 71, 0
1, 24579, Note_on_c, 0, 65, 0
1, 24593, Note_on_c, 0, 62, 0
1, 24603, Note_on_c, 0, 60, 0
1, 24640, Note_on_c, 0, 67, 46
1, 24681, Note_on_c, 0, 67, 0
1, 24742, Note_on_c, 0, 65, 50
1, 24749, Note_on_c, 0, 62, 44
1, 24761, Note_on_c, 0, 60, 41
1, 24791, Note_on_c, 0, 65, 0
1, 24797, Note_on_c, 0, 62, 0
1, 24808, Note_on_c, 0, 60, 0
1, 24857, Note_on_c, 0, 79, 63
1, 24913, Note_on_c, 0, 79, 0
1, 24957, Note_on_c, 0, 65, 45
1, 24959, Note_on_c, 0, 62, 43
1, 24960, Note_on_c, 0, 81, 60
1, 25001, Note_on_c, 0, 60, 9
1, 25001, Note_on_c, 0, 65, 0
1, 25003, Note_on_c, 0, 62, 0
1, 25011, Note_on_c, 0, 79, 67
1, 25026, Note_on_c, 0, 81, 0
1, 25047, Note_on_c, 0, 79, 0
1, 25064, Note_on_c, 0, 78, 62
1, 25078, Note_on_c, 0, 60, 0
1, 25101, Note_on_c, 0, 78, 0
1, 25122, Note_on_c, 0, 79, 73
1, 25169, Poly_aftertouch_c, 0, 67, 0
1, 25170, Note_on_c, 0, 79, 0
1, 25201, Note_on_c, 0, 60, 52
1, 25205, Note_on_c, 0, 84, 69
1, 25208, Note_on_c, 0, 64, 49
1, 25267, Note_on_c, 0, 60, 0
1, 25267, Note_on_c, 0, 64, 0
1, 25320, Note_on_c, 0, 67, 46
1, 25365, Note_on_c, 0, 67, 0
1, 25412, Note_on_c, 0, 84, 0
1, 25436, Note_on_c, 0, 88, 63
1, 25447, Note_on_c, 0, 64, 47
1, 25454, Note_on_c, 0, 60, 48
1, 25469, Note_on_c, 0, 88, 0
1, 25489, Note_on_c, 0, 64, 0
1, 25511, Note_on_c, 0, 60, 0
1, 25545, Note_on_c, 0, 67, 43
1, 25632, Note_on_c, 0, 67, 0
1, 25666, Note_on_c, 0, 64, 49
1, 25675, Note_on_c, 0, 60, 50
1, 25713, Note_on_c, 0, 64, 0
1, 25727, Note_on_c, 0, 60, 0
1, 25785, Note_on_c, 0, 79, 55
1, 25791, Note_on_c, 0, 67, 34
1, 25835, Note_on_c, 0, 67, 0
1, 25837, Note_on_c, 0, 79, 0
1, 25883, Note_on_c, 0, 64, 53
1, 25885, Note_on_c, 0, 60, 55
1, 25895, Note_on_c, 0, 81, 58
1, 25924, Note_on_c, 0, 64, 0
1, 25939, Note_on_c, 0, 79, 71
1, 25939, Note_on_c, 0, 60, 0
1, 25972, Note_on_c, 0, 81, 0
1, 25981, Note_on_c, 0, 79, 0
1, 25996, Note_on_c, 0, 78, 63
1, 26011, Note_on_c, 0, 67, 29
1, 26039, Note_on_c, 0, 78, 0
1, 26053, Note_on_c, 0, 79, 72
1, 26088, Note_on_c, 0, 79, 0
1, 26090, Note_on_c, 0, 67, 0
1, 26122, Note_on_c, 0, 71, 74
1, 26127, Note_on_c, 0, 62, 59
1, 26128, Note_on_c, 0, 65, 54
1, 26130, Note_on_c, 0, 60, 47
1, 26164, Note_on_c, 0, 65, 0
1, 26164, Note_on_c, 0, 71, 0
1, 26171, Note_on_c, 0, 62, 0
1, 26182, Note_on_c, 0, 60, 0
1, 26228, Note_on_c, 0, 67, 50
1, 26326, Note_on_c, 0, 67, 0
1, 26374, Note_on_c, 0, 71, 70
1, 26380, Note_on_c, 0, 65, 47
1, 26382, Note_on_c, 0, 62, 51
1, 26390, Note_on_c, 0, 60, 45
1, 26410, Note_on_c, 0, 71, 0
1, 26421, Note_on_c, 0, 65, 0
1, 26432, Note_on_c, 0, 62, 0
1, 26443, Note_on_c, 0, 60, 0
1, 26484, Note_on_c, 0, 67, 49
1, 26550, Note_on_c, 0, 67, 0
1, 26600, Note_on_c, 0, 65, 54
1, 26612, Note_on_c, 0, 62, 51
1, 26617, Note_on_c, 0, 60, 49
1, 26643, Note_on_c, 0, 65, 0
1, 26652, Note_on_c, 0, 62, 0
1, 26667, Note_on_c, 0, 60, 0
1, 26716, Note_on_c, 0, 67, 13
1, 26768, Note_on_c, 0, 67, 0
1, 26825, Note_on_c, 0, 81, 58
1, 26828, Note_on_c, 0, 62, 40
1, 26829, Note_on_c, 0, 65, 40
1, 26836, Note_on_c, 0, 60, 39
1, 26870, Note_on_c, 0, 62, 0
1, 26870, Note_on_c, 0, 65, 0
1, 26872, Note_on_c, 0, 79, 62
1, 26882, Note_on_c, 0, 60, 0
1, 26887, Note_on_c, 0, 81, 0
1, 26913, Note_on_c, 0, 79, 0
1, 26919, Note_on_c, 0, 67, 33
1, 26926, Note_on_c, 0, 78, 63
1, 26977, Note_on_c, 0, 78, 0
1, 26984, Note_on_c, 0, 79, 71
1, 27027, Note_on_c, 0, 79, 0
1, 27045, Note_on_c, 0, 67, 0
1, 27050, Note_on_c, 0, 72, 69
1, 27061, Note_on_c, 0, 64, 56
1, 27067, Note_on_c, 0, 60, 46
1, 27097, Note_on_c, 0, 72, 0
1, 27109, Note_on_c, 0, 64, 0
1, 27124, Note_on_c, 0, 60, 0
1, 27187, Note_on_c, 0, 67, 33
1, 27229, Note_on_c, 0, 67, 0
1, 27291, Note_on_c, 0, 81, 64
1, 27297, Note_on_c, 0, 64, 50
1, 27310, Note_on_c, 0, 60, 43
1, 27343, Note_on_c, 0, 64, 0
1, 27347, Note_on_c, 0, 79, 64
1, 27364, Note_on_c, 0, 60, 0
1, 27371, Note_on_c, 0, 81, 0
1, 27386, Note_on_c, 0, 79, 0
1, 27394, Note_on_c, 0, 78, 63
1, 27398, Note_on_c, 0, 67, 45
1, 27449, Note_on_c, 0, 78, 0
1, 27451, Note_on_c, 0, 79, 75
1, 27479, Note_on_c, 0, 67, 0
1, 27497, Note_on_c, 0, 79, 0
1, 27517, Note_on_c, 0, 74, 76
1, 27523, Note_on_c, 0, 62, 59
1, 27524, Note_on_c, 0, 59, 59
1, 27558, Note_on_c, 0, 74, 0
1, 27563, Note_on_c, 0, 62, 0
1, 27567, Note_on_c, 0, 59, 0
1, 27625, Note_on_c, 0, 67, 43
1, 27674, Note_on_c, 0, 67, 0
1, 27740, Note_on_c, 0, 81, 66
1, 27746, Note_on_c, 0, 59, 55
1, 27752, Note_on_c, 0, 62, 47
1, 27799, Note_on_c, 0, 62, 0
1, 27802, Note_on_c, 0, 79, 68
1, 27809, Note_on_c, 0, 59, 0
1, 27828, Note_on_c, 0, 81, 0
1, 27839, Note_on_c, 0, 67, 54
1, 27840, Note_on_c, 0, 79, 0
1, 27858, Note_on_c, 0, 78, 69
1, 27918, Note_on_c, 0, 78, 0
1, 27924, Note_on_c, 0, 79, 69
1, 27961, Note_on_c, 0, 67, 0
1, 27961, Note_on_c, 0, 79, 0
1, 27970, Note_on_c, 0, 76, 80
1, 27973, Note_on_c, 0, 64, 49
1, 27977, Note_on_c, 0, 60, 60
1, 28011, Note_on_c, 0, 64, 0
1, 28030, Note_on_c, 0, 60, 0
1, 28031, Note_on_c, 0, 76, 0
1, 28051, Note_on_c, 0, 62, 15
1, 28051, Note_on_c, 0, 62, 0
1, 28082, Note_on_c, 0, 67, 49
1, 28142, Note_on_c, 0, 67, 0
1, 28180, Note_on_c, 0, 81, 71
1, 28183, Note_on_c, 0, 64, 55
1, 28196, Note_on_c, 0, 60, 58
1, 28249, Note_on_c, 0, 64, 0
1, 28250, Note_on_c, 0, 79, 72
1, 28275, Note_on_c, 0, 60, 0
1, 28280, Note_on_c, 0, 81, 0
1, 28289, Note_on_c, 0, 67, 58
1, 28297, Note_on_c, 0, 79, 0
1, 28308, Note_on_c, 0, 78, 68
1, 28370, Note_on_c, 0, 78, 0
1, 28376, Note_on_c, 0, 79, 66
1, 28401, Note_on_c, 0, 67, 0
1, 28413, Note_on_c, 0, 79, 0
1, 28419, Note_on_c, 0, 62, 64
1, 28421, Note_on_c, 0, 65, 64
1, 28428, Note_on_c, 0, 71, 79
1, 28471, Note_on_c, 0, 65, 0
1, 28487, Note_on_c, 0, 62, 0
1, 28497, Note_on_c, 0, 71, 0
1, 28528, Note_on_c, 0, 67, 62
1, 28606, Note_on_c, 0, 67, 0
1, 28640, Note_on_c, 0, 81, 71
1, 28658, Note_on_c, 0, 65, 62
1, 28659, Note_on_c, 0, 62, 59
1, 28705, Note_on_c, 0, 79, 69
1, 28719, Note_on_c, 0, 65, 0
1, 28722, Note_on_c, 0, 62, 0
1, 28734, Note_on_c, 0, 81, 0
1, 28747, Note_on_c, 0, 79, 0
1, 28758, Note_on_c, 0, 78, 74
1, 28767, Note_on_c, 0, 67, 64
1, 28822, Note_on_c, 0, 79, 71
1, 28831, Note_on_c, 0, 78, 0
1, 28841, Note_on_c, 0, 67, 0
1, 28858, Note_on_c, 0, 79, 0
1, 28875, Note_on_c, 0, 72, 84
1, 28877, Note_on_c, 0, 64, 74
1, 28939, Note_on_c, 0, 72, 0
1, 28943, Note_on_c, 0, 64, 0
1, 28974, Note_on_c, 0, 67, 72
1, 29054, Note_on_c, 0, 67, 0
1, 29081, Note_on_c, 0, 81, 76
1, 29090, Note_on_c, 0, 64, 77
1, 29153, Note_on_c, 0, 64, 0
1, 29156, Note_on_c, 0, 79, 71
1, 29186, Note_on_c, 0, 81, 0
1, 29193, Note_on_c, 0, 67, 76
1, 29203, Note_on_c, 0, 79, 0
1, 29208, Note_on_c, 0, 78, 73
1, 29228, Control_c, 0, 67, 114
1, 29245, Control_c, 0, 67, 96
1, 29264, Control_c, 0, 67, 73
1, 29267, Note_on_c, 0, 79, 71
1, 29280, Note_on_c, 0, 67, 0
1, 29283, Control_c, 0, 67, 48
1, 29289, Note_on_c, 0, 78, 0
1, 29303, Control_c, 0, 67, 23
1, 29312, Note_on_c, 0, 62, 74
1, 29320, Note_on_c, 0, 74, 86
1, 29322, Note_on_c, 0, 59, 69
1, 29326, Note_on_c, 0, 79, 0
1, 29337, Control_c, 0, 67, 0
1, 29369, Note_on_c, 0, 62, 0
1, 29382, Note_on_c, 0, 59, 0
1, 29389, Note_on_c, 0, 74, 0
1, 29400, Note_on_c, 0, 67, 61
1, 29449, Note_on_c, 0, 67, 0
1, 29518, Note_on_c, 0, 59, 63
1, 29523, Note_on_c, 0, 62, 57
1, 29526, Note_on_c, 0, 81, 75
1, 29576, Note_on_c, 0, 62, 0
1, 29580, Note_on_c, 0, 67, 58
1, 29597, Note_on_c, 0, 79, 73
1, 29601, Note_on_c, 0, 59, 0
1, 29624, Note_on_c, 0, 81, 0
1, 29644, Note_on_c, 0, 79, 0
1, 29654, Note_on_c, 0, 78, 75
1, 29698, Note_on_c, 0, 67, 0
1, 29720, Note_on_c, 0, 79, 75
1, 29727, Note_on_c, 0, 78, 0
1, 29762, Note_on_c, 0, 79, 0
1, 29786, Note_on_c, 0, 76, 87
1, 29898, Note_on_c, 0, 60, 77
1, 30017, Note_on_c, 0, 64, 77
1, 30138, Note_on_c, 0, 67, 79
1, 30247, Note_on_c, 0, 76, 0
1, 30260, Note_on_c, 0, 72, 84
1, 30277, Note_on_c, 0, 64, 0
1, 30367, Note_on_c, 0, 76, 81
1, 30468, Note_on_c, 0, 79, 81
1, 30471, Note_on_c, 0, 76, 0
1, 30575, Note_on_c, 0, 84, 78
1, 30589, Note_on_c, 0, 79, 0
1, 30616, Poly_aftertouch_c, 0, 60, 24
1, 30657, Note_on_c, 0, 60, 0
1, 30707, Note_on_c, 0, 88, 86
1, 30750, Note_on_c, 0, 84, 0
1, 30755, Control_c, 0, 64, 22
1, 30776, Control_c, 0, 64, 33
1, 30793, Control_c, 0, 64, 39
1, 30801, Poly_aftertouch_c, 0, 67, 22
1, 30812, Control_c, 0, 64, 42
1, 30829, Control_c, 0, 64, 44
1, 30848, Control_c, 0, 64, 46
1, 30867, Control_c, 0, 64, 49
1, 30872, Note_on_c, 0, 67, 0
1, 30884, Control_c, 0, 64, 52
1, 30904, Control_c, 0, 64, 54
1, 30941, Control_c, 0, 64, 57
1, 30960, Control_c, 0, 64, 59
1, 30972, Note_on_c, 0, 88, 0
1, 30977, Control_c, 0, 64, 60
1, 30997, Control_c, 0, 64, 61
1, 31024, Control_c, 0, 64, 63
1, 31042, Control_c, 0, 64, 64
1, 31072, Note_on_c, 0, 83, 71
1, 31072, Note_on_c, 0, 86, 70
1, 31080, Control_c, 0, 64, 66
1, 31098, Control_c, 0, 64, 67
1, 31117, Control_c, 0, 64, 69
1, 31155, Control_c, 0, 64, 72
1, 31173, Control_c, 0, 64, 74
1, 31179, Note_on_c, 0, 84, 75
1, 31185, Note_on_c, 0, 83, 0
1, 31190, Control_c, 0, 64, 76
1, 31202, Note_on_c, 0, 86, 0
1, 31203, Note_on_c, 0, 81, 70
1, 31210, Control_c, 0, 64, 78
1, 31218, Note_on_c, 0, 84, 0
1, 31248, Control_c, 0, 64, 81
1, 31248, Note_on_c, 0, 81, 0
1, 31303, Note_on_c, 0, 83, 83
1, 31305, Note_on_c, 0, 79, 83
1, 31376, Note_on_c, 0, 79, 0
1, 31412, Note_on_c, 0, 77, 78
1, 31415, Note_on_c, 0, 81, 75
1, 31441, Note_on_c, 0, 72, 0
1, 31449, Note_on_c, 0, 83, 0
1, 31498, Note_on_c, 0, 77, 0
1, 31501, Note_on_c, 0, 79, 77
1, 31529, Note_on_c, 0, 81, 0
1, 31530, Note_on_c, 0, 76, 77
1, 31541, Note_on_c, 0, 79, 0
1, 31578, Note_on_c, 0, 76, 0
1, 31628, Note_on_c, 0, 77, 76
1, 31636, Control_c, 0, 64, 79
1, 31643, Note_on_c, 0, 74, 71
1, 31656, Control_c, 0, 64, 76
1, 31674, Control_c, 0, 64, 72
1, 31694, Control_c, 0, 64, 68
1, 31712, Control_c, 0, 64, 66
1, 31731, Control_c, 0, 64, 64
1, 31749, Control_c, 0, 64, 61
1, 31759, Note_on_c, 0, 61, 59
1, 31765, Control_c, 0, 64, 55
1, 31785, Control_c, 0, 64, 48
1, 31803, Control_c, 0, 64, 45
1, 31860, Control_c, 0, 64, 43
1, 31866, Note_on_c, 0, 62, 65
1, 31877, Control_c, 0, 64, 38
1, 31882, Note_on_c, 0, 61, 0
1, 31898, Control_c, 0, 64, 31
1, 31916, Control_c, 0, 64, 23
1, 31935, Control_c, 0, 64, 18
1, 31989, Note_on_c, 0, 64, 66
1, 31999, Control_c, 0, 64, 0
1, 32007, Note_on_c, 0, 62, 0
1, 32036, Control_c, 0, 67, 10
1, 32073, Note_on_c, 0, 64, 0
1, 32091, Control_c, 0, 67, 14
1, 32096, Note_on_c, 0, 65, 72
1, 32129, Control_c, 0, 67, 18
1, 32174, Note_on_c, 0, 65, 0
1, 32209, Note_on_c, 0, 64, 69
1, 32296, Control_c, 0, 67, 22
1, 32300, Note_on_c, 0, 77, 0
1, 32301, Note_on_c, 0, 74, 0
1, 32309, Note_on_c, 0, 64, 0
1, 32315, Note_on_c, 0, 76, 57
1, 32315, Note_on_c, 0, 72, 57
1, 32326, Note_on_c, 0, 65, 60
1, 32368, Control_c, 0, 67, 27
1, 32376, Note_on_c, 0, 65, 0
1, 32406, Control_c, 0, 67, 31
1, 32417, Note_on_c, 0, 66, 62
1, 32444, Control_c, 0, 67, 36
1, 32488, Note_on_c, 0, 66, 0
1, 32499, Control_c, 0, 67, 40
1, 32542, Note_on_c, 0, 72, 0
1, 32546, Note_on_c, 0, 67, 64
1, 32547, Note_on_c, 0, 74, 60
1, 32554, Note_on_c, 0, 71, 60
1, 32555, Note_on_c, 0, 76, 0
1, 32650, Note_on_c, 0, 67, 0
1, 32657, Note_on_c, 0, 74, 0
1, 32660, Note_on_c, 0, 55, 69
1, 32685, Control_c, 0, 67, 35
1, 32708, Note_on_c, 0, 71, 0
1, 32740, Control_c, 0, 67, 30
1, 32769, Note_on_c, 0, 55, 0
1, 32779, Note_on_c, 0, 67, 79
1, 32795, Control_c, 0, 67, 26
1, 32851, Control_c, 0, 67, 21
1, 32895, Control_c, 0, 67, 16
1, 32896, Note_on_c, 0, 79, 80
1, 32899, Note_on_c, 0, 76, 75
1, 32915, Control_c, 0, 67, 12
1, 32923, Note_on_c, 0, 67, 0
1, 32939, Note_on_c, 0, 76, 0
1, 33002, Note_on_c, 0, 78, 77
1, 33003, Note_on_c, 0, 75, 74
1, 33004, Note_on_c, 0, 79, 0
1, 33078, Note_on_c, 0, 75, 0
1, 33099, Note_on_c, 0, 76, 80
1, 33105, Note_on_c, 0, 79, 81
1, 33118, Note_on_c, 0, 78, 0
1, 33153, Note_on_c, 0, 76, 0
1, 33217, Note_on_c, 0, 81, 79
1, 33222, Note_on_c, 0, 77, 79
1, 33231, Note_on_c, 0, 79, 0
1, 33260, Note_on_c, 0, 77, 0
1, 33315, Note_on_c, 0, 76, 75
1, 33323, Note_on_c, 0, 79, 75
1, 33336, Note_on_c, 0, 81, 0
1, 33373, Note_on_c, 0, 76, 0
1, 33401, Note_on_c, 0, 79, 0
1, 33428, Note_on_c, 0, 77, 80
1, 33431, Note_on_c, 0, 74, 74
1, 33476, Note_on_c, 0, 74, 0
1, 33476, Note_on_c, 0, 77, 0
1, 33483, Control_c, 0, 67, 16
1, 33538, Control_c, 0, 67, 21
1, 33546, Note_on_c, 0, 67, 66
1, 33596, Note_on_c, 0, 67, 0
1, 33596, Control_c, 0, 67, 25
1, 33631, Control_c, 0, 67, 31
1, 33649, Control_c, 0, 67, 35
1, 33656, Note_on_c, 0, 55, 60
1, 33668, Control_c, 0, 67, 40
1, 33687, Control_c, 0, 67, 47
1, 33697, Note_on_c, 0, 55, 0
1, 33704, Control_c, 0, 67, 55
1, 33725, Control_c, 0, 67, 64
1, 33743, Control_c, 0, 67, 72
1, 33762, Control_c, 0, 67, 80
1, 33775, Note_on_c, 0, 79, 64
1, 33781, Control_c, 0, 67, 86
1, 33785, Note_on_c, 0, 76, 58
1, 33800, Control_c, 0, 67, 91
1, 33825, Control_c, 0, 67, 97
1, 33831, Note_on_c, 0, 76, 0
1, 33844, Note_on_c, 0, 79, 0
1, 33845, Control_c, 0, 67, 102
1, 33862, Control_c, 0, 67, 108
1, 33881, Control_c, 0, 67, 113
1, 33900, Control_c, 0, 67, 118
1, 33911, Note_on_c, 0, 76, 69
1, 33911, Note_on_c, 0, 72, 62
1, 33919, Control_c, 0, 67, 123
1, 33937, Control_c, 0, 67, 127
1, 33947, Note_on_c, 0, 76, 0
1, 33955, Note_on_c, 0, 72, 0
1, 34033, Note_on_c, 0, 67, 58
1, 34078, Note_on_c, 0, 67, 0
1, 34139, Note_on_c, 0, 55, 54
1, 34172, Note_on_c, 0, 55, 0
1, 34250, Note_on_c, 0, 74, 61
1, 34254, Note_on_c, 0, 77, 56
1, 34290, Note_on_c, 0, 74, 0
1, 34304, Note_on_c, 0, 77, 0
1, 34369, Note_on_c, 0, 74, 68
1, 34370, Note_on_c, 0, 71, 63
1, 34409, Note_on_c, 0, 71, 0
1, 34409, Note_on_c, 0, 74, 0
1, 34489, Note_on_c, 0, 67, 61
1, 34564, Note_on_c, 0, 67, 0
1, 34600, Note_on_c, 0, 55, 74
1, 34638, Note_on_c, 0, 55, 0
1, 34708, Note_on_c, 0, 79, 79
1, 34718, Note_on_c, 0, 76, 71
1, 34752, Note_on_c, 0, 76, 0
1, 34816, Control_c, 0, 67, 121
1, 34819, Note_on_c, 0, 78, 80
1, 34823, Note_on_c, 0, 79, 0
1, 34826, Note_on_c, 0, 75, 70
1, 34835, Control_c, 0, 67, 111
1, 34854, Control_c, 0, 67, 99
1, 34872, Control_c, 0, 67, 85
1, 34878, Note_on_c, 0, 75, 0
1, 34892, Control_c, 0, 67, 67
1, 34911, Control_c, 0, 67, 48
1, 34923, Note_on_c, 0, 76, 61
1, 34928, Note_on_c, 0, 79, 86
1, 34929, Control_c, 0, 67, 28
1, 34956, Note_on_c, 0, 78, 0
1, 34963, Control_c, 0, 67, 0
1, 34966, Note_on_c, 0, 76, 0
1, 35031, Note_on_c, 0, 81, 80
1, 35038, Note_on_c, 0, 77, 81
1, 35051, Note_on_c, 0, 79, 0
1, 35086, Note_on_c, 0, 77, 0
1, 35141, Note_on_c, 0, 79, 78
1, 35146, Note_on_c, 0, 76, 74
1, 35157, Note_on_c, 0, 81, 0
1, 35189, Note_on_c, 0, 76, 0
1, 35229, Note_on_c, 0, 79, 0
1, 35256, Note_on_c, 0, 77, 87
1, 35256, Note_on_c, 0, 74, 77
1, 35294, Note_on_c, 0, 74, 0
1, 35304, Note_on_c, 0, 77, 0
1, 35366, Note_on_c, 0, 67, 79
1, 35441, Note_on_c, 0, 67, 0
1, 35471, Note_on_c, 0, 55, 85
1, 35526, Note_on_c, 0, 55, 0
1, 35582, Note_on_c, 0, 83, 85
1, 35585, Note_on_c, 0, 77, 82
1, 35672, Note_on_c, 0, 77, 0
1, 35707, Note_on_c, 0, 84, 85
1, 35721, Note_on_c, 0, 76, 75
1, 35723, Note_on_c, 0, 83, 0
1, 35769, Note_on_c, 0, 76, 0
1, 35779, Note_on_c, 0, 84, 0
1, 35832, Note_on_c, 0, 67, 80
1, 35914, Note_on_c, 0, 67, 0
1, 35943, Note_on_c, 0, 55, 80
1, 35980, Note_on_c, 0, 55, 0
1, 36057, Note_on_c, 0, 76, 70
1, 36060, Note_on_c, 0, 72, 66
1, 36122, Note_on_c, 0, 72, 0
1, 36168, Note_on_c, 0, 76, 0
1, 36173, Note_on_c, 0, 74, 74
1, 36175, Note_on_c, 0, 71, 73
1, 36221, Note_on_c, 0, 71, 0
1, 36245, Note_on_c, 0, 74, 0
1, 36305, Note_on_c, 0, 67, 69
1, 36378, Note_on_c, 0, 67, 0
1, 36401, Note_on_c, 0, 55, 80
1, 36436, Note_on_c, 0, 55, 0
1, 36506, Note_on_c, 0, 76, 77
1, 36511, Note_on_c, 0, 72, 76
1, 36600, Note_on_c, 0, 72, 0
1, 36610, Note_on_c, 0, 74, 81
1, 36622, Note_on_c, 0, 71, 79
1, 36628, Note_on_c, 0, 76, 0
1, 36672, Note_on_c, 0, 71, 0
1, 36726, Note_on_c, 0, 76, 79
1, 36732, Note_on_c, 0, 72, 80
1, 36733, Note_on_c, 0, 74, 0
1, 36798, Note_on_c, 0, 72, 0
1, 36835, Note_on_c, 0, 74, 84
1, 36836, Note_on_c, 0, 76, 0
1, 36843, Note_on_c, 0, 71, 75
1, 36895, Note_on_c, 0, 71, 0
1, 36936, Note_on_c, 0, 74, 0
1, 36937, Note_on_c, 0, 76, 78
1, 36944, Note_on_c, 0, 72, 72
1, 37008, Note_on_c, 0, 72, 0
1, 37045, Note_on_c, 0, 76, 0
1, 37067, Note_on_c, 0, 74, 81
1, 37071, Note_on_c, 0, 71, 75
1, 37116, Note_on_c, 0, 71, 0
1, 37127, Note_on_c, 0, 74, 0
1, 37463, Note_on_c, 0, 54, 66
1, 37473, Note_on_c, 0, 42, 49
1, 37552, Note_on_c, 0, 42, 0
1, 37566, Note_on_c, 0, 54, 0
1, 37584, Note_on_c, 0, 43, 57
1, 37589, Note_on_c, 0, 55, 63
1, 37635, Note_on_c, 0, 43, 0
1, 37666, Note_on_c, 0, 55, 0
1, 37707, Note_on_c, 0, 54, 62
1, 37714, Note_on_c, 0, 42, 46
1, 37782, Note_on_c, 0, 54, 0
1, 37786, Note_on_c, 0, 42, 0
1, 37820, Control_c, 0, 67, 8
1, 37827, Note_on_c, 0, 55, 55
1, 37850, Note_on_c, 0, 43, 40
1, 37877, Control_c, 0, 67, 13
1, 37883, Note_on_c, 0, 43, 0
1, 37891, Note_on_c, 0, 55, 0
1, 37932, Control_c, 0, 67, 17
1, 37932, Note_on_c, 0, 54, 52
1, 37944, Note_on_c, 0, 42, 45
1, 37999, Note_on_c, 0, 42, 0
1, 38018, Note_on_c, 0, 54, 0
1, 38044, Control_c, 0, 67, 22
1, 38096, Note_on_c, 0, 55, 44
1, 38111, Note_on_c, 0, 43, 43
1, 38185, Note_on_c, 0, 43, 0
1, 38185, Note_on_c, 0, 55, 0
1, 38304, Control_c, 0, 67, 18
1, 38472, Control_c, 0, 67, 14
1, 38572, Control_c, 0, 67, 8
1, 38628, Control_c, 0, 67, 0
1, 39127, Note_on_c, 0, 55, 93
1, 39128, Note_on_c, 0, 43, 82
1, 39165, Control_c, 0, 64, 28
1, 39183, Control_c, 0, 64, 47
1, 39187, Note_on_c, 0, 55, 0
1, 39190, Note_on_c, 0, 43, 0
1, 39203, Control_c, 0, 64, 53
1, 39220, Control_c, 0, 64, 57
1, 39238, Note_on_c, 0, 74, 80
1, 39238, Control_c, 0, 64, 59
1, 39294, Control_c, 0, 64, 55
1, 39314, Control_c, 0, 64, 43
1, 39317, Note_on_c, 0, 74, 0
1, 39333, Control_c, 0, 64, 20
1, 39351, Control_c, 0, 64, 0
1, 39358, Note_on_c, 0, 76, 77
1, 39455, Note_on_c, 0, 76, 0
1, 39480, Note_on_c, 0, 78, 78
1, 39565, Note_on_c, 0, 78, 0
1, 39599, Note_on_c, 0, 79, 88
1, 39600, Note_on_c, 0, 50, 95
1, 39605, Note_on_c, 0, 38, 81
1, 39667, Note_on_c, 0, 38, 0
1, 39670, Note_on_c, 0, 50, 0
1, 39690, Note_on_c, 0, 79, 0
1, 39710, Note_on_c, 0, 81, 82
1, 39835, Note_on_c, 0, 83, 82
1, 39857, Note_on_c, 0, 81, 0
1, 39939, Note_on_c, 0, 84, 76
1, 39945, Note_on_c, 0, 83, 0
1, 40065, Note_on_c, 0, 86, 84
1, 40066, Note_on_c, 0, 47, 92
1, 40075, Note_on_c, 0, 35, 81
1, 40078, Note_on_c, 0, 84, 0
1, 40183, Note_on_c, 0, 84, 84
1, 40199, Note_on_c, 0, 86, 0
1, 40261, Note_on_c, 0, 35, 0
1, 40304, Note_on_c, 0, 83, 79
1, 40319, Note_on_c, 0, 47, 0
1, 40332, Note_on_c, 0, 84, 0
1, 40405, Note_on_c, 0, 83, 0
1, 40424, Note_on_c, 0, 81, 78
1, 40514, Note_on_c, 0, 81, 0
1, 40538, Note_on_c, 0, 79, 86
1, 40609, Note_on_c, 0, 79, 0
1, 40648, Note_on_c, 0, 81, 79
1, 40754, Note_on_c, 0, 81, 0
1, 40769, Note_on_c, 0, 83, 83
1, 40775, Note_on_c, 0, 52, 84
1, 40779, Note_on_c, 0, 40, 78
1, 40809, Note_on_c, 0, 52, 0
1, 40835, Note_on_c, 0, 40, 0
1, 40860, Note_on_c, 0, 83, 0
1, 40886, Note_on_c, 0, 79, 79
1, 40992, Note_on_c, 0, 79, 0
1, 41009, Note_on_c, 0, 84, 82
1, 41014, Note_on_c, 0, 45, 89
1, 41016, Note_on_c, 0, 33, 78
1, 41070, Control_c, 0, 64, 22
1, 41088, Control_c, 0, 64, 42
1, 41107, Control_c, 0, 64, 55
1, 41118, Note_on_c, 0, 83, 77
1, 41122, Control_c, 0, 64, 59
1, 41143, Control_c, 0, 64, 60
1, 41145, Note_on_c, 0, 84, 0
1, 41161, Control_c, 0, 64, 62
1, 41179, Control_c, 0, 64, 64
1, 41200, Control_c, 0, 64, 67
1, 41215, Note_on_c, 0, 83, 0
1, 41217, Control_c, 0, 64, 70
1, 41235, Note_on_c, 0, 81, 76
1, 41235, Control_c, 0, 64, 74
1, 41253, Note_on_c, 0, 33, 0
1, 41255, Control_c, 0, 64, 77
1, 41274, Control_c, 0, 64, 80
1, 41330, Note_on_c, 0, 81, 0
1, 41337, Control_c, 0, 64, 82
1, 41359, Note_on_c, 0, 45, 0
1, 41366, Note_on_c, 0, 79, 77
1, 41450, Control_c, 0, 64, 76
1, 41466, Note_on_c, 0, 78, 81
1, 41468, Control_c, 0, 64, 64
1, 41487, Control_c, 0, 64, 35
1, 41487, Note_on_c, 0, 79, 0
1, 41504, Control_c, 0, 64, 0
1, 41548, Note_on_c, 0, 78, 0
1, 41576, Note_on_c, 0, 79, 80
1, 41690, Note_on_c, 0, 81, 79
1, 41699, Note_on_c, 0, 79, 0
1, 41703, Note_on_c, 0, 50, 79
1, 41708, Note_on_c, 0, 38, 75
1, 41739, Note_on_c, 0, 50, 0
1, 41764, Note_on_c, 0, 38, 0
1, 41793, Note_on_c, 0, 81, 0
1, 41808, Note_on_c, 0, 78, 80
1, 41925, Note_on_c, 0, 83, 82
1, 41925, Note_on_c, 0, 43, 86
1, 41934, Note_on_c, 0, 31, 77
1, 41952, Note_on_c, 0, 78, 0
1, 42041, Note_on_c, 0, 81, 76
1, 42042, Control_c, 0, 64, 16
1, 42051, Poly_aftertouch_c, 0, 76, 0
1, 42052, Note_on_c, 0, 83, 0
1, 42059, Control_c, 0, 64, 31
1, 42078, Control_c, 0, 64, 44
1, 42097, Control_c, 0, 64, 50
1, 42116, Control_c, 0, 64, 54
1, 42135, Control_c, 0, 64, 56
1, 42153, Control_c, 0, 64, 58
1, 42160, Note_on_c, 0, 79, 74
1, 42168, Note_on_c, 0, 31, 0
1, 42169, Control_c, 0, 64, 61
1, 42188, Control_c, 0, 64, 64
1, 42201, Note_on_c, 0, 81, 0
1, 42208, Control_c, 0, 64, 66
1, 42240, Note_on_c, 0, 43, 0
1, 42255, Control_c, 0, 64, 67
1, 42260, Note_on_c, 0, 79, 0
1, 42271, Note_on_c, 0, 78, 71
1, 42347, Control_c, 0, 64, 66
1, 42363, Note_on_c, 0, 78, 0
1, 42366, Control_c, 0, 64, 62
1, 42385, Control_c, 0, 64, 55
1, 42387, Note_on_c, 0, 76, 73
1, 42403, Control_c, 0, 64, 50
1, 42422, Control_c, 0, 64, 48
1, 42459, Note_on_c, 0, 76, 0
1, 42460, Control_c, 0, 64, 44
1, 42479, Control_c, 0, 64, 35
1, 42488, Note_on_c, 0, 74, 73
1, 42497, Control_c, 0, 64, 17
1, 42516, Control_c, 0, 64, 0
1, 42597, Note_on_c, 0, 64, 80
1, 42600, Note_on_c, 0, 72, 74
1, 42608, Note_on_c, 0, 74, 0
1, 42694, Note_on_c, 0, 72, 0
1, 42715, Note_on_c, 0, 71, 73
1, 42806, Note_on_c, 0, 71, 0
1, 42844, Note_on_c, 0, 69, 76
1, 42855, Note_on_c, 0, 54, 80
1, 42919, Note_on_c, 0, 64, 0
1, 42936, Note_on_c, 0, 69, 0
1, 42971, Note_on_c, 0, 79, 68
1, 43091, Note_on_c, 0, 78, 67
1, 43096, Note_on_c, 0, 79, 0
1, 43212, Note_on_c, 0, 76, 69
1, 43246, Note_on_c, 0, 78, 0
1, 43313, Note_on_c, 0, 76, 0
1, 43320, Note_on_c, 0, 74, 71
1, 43394, Note_on_c, 0, 74, 0
1, 43430, Note_on_c, 0, 72, 66
1, 43473, Note_on_c, 0, 54, 0
1, 43516, Note_on_c, 0, 72, 0
1, 43539, Note_on_c, 0, 71, 71
1, 43549, Note_on_c, 0, 62, 70
1, 43637, Note_on_c, 0, 71, 0
1, 43659, Note_on_c, 0, 69, 70
1, 43733, Note_on_c, 0, 69, 0
1, 43782, Note_on_c, 0, 67, 64
1, 43786, Note_on_c, 0, 52, 67
1, 43816, Note_on_c, 0, 62, 0
1, 43896, Note_on_c, 0, 78, 63
1, 43908, Note_on_c, 0, 67, 0
1, 44018, Note_on_c, 0, 78, 0
1, 44021, Note_on_c, 0, 76, 64
1, 44125, Note_on_c, 0, 76, 0
1, 44131, Note_on_c, 0, 74, 68
1, 44209, Note_on_c, 0, 74, 0
1, 44242, Note_on_c, 0, 72, 67
1, 44278, Control_c, 0, 64, 15
1, 44296, Control_c, 0, 64, 21
1, 44305, Note_on_c, 0, 72, 0
1, 44332, Control_c, 0, 64, 27
1, 44350, Note_on_c, 0, 71, 63
1, 44389, Control_c, 0, 64, 31
1, 44391, Control_c, 0, 67, 9
1, 44428, Note_on_c, 0, 71, 0
1, 44436, Note_on_c, 0, 52, 0
1, 44443, Control_c, 0, 67, 14
1, 44465, Note_on_c, 0, 69, 63
1, 44482, Control_c, 0, 67, 18
1, 44497, Note_on_c, 0, 60, 46
1, 44517, Note_on_c, 0, 69, 0
1, 44517, Control_c, 0, 67, 22
1, 44555, Control_c, 0, 67, 26
1, 44570, Note_on_c, 0, 67, 53
1, 44574, Control_c, 0, 67, 30
1, 44593, Control_c, 0, 67, 35
1, 44610, Control_c, 0, 67, 41
1, 44628, Control_c, 0, 67, 48
1, 44646, Control_c, 0, 67, 53
1, 44665, Control_c, 0, 67, 57
1, 44672, Note_on_c, 0, 67, 0
1, 44683, Control_c, 0, 67, 61
1, 44684, Note_on_c, 0, 66, 60
1, 44703, Control_c, 0, 67, 66
1, 44714, Note_on_c, 0, 50, 44
1, 44721, Control_c, 0, 67, 71
1, 44741, Control_c, 0, 64, 27
1, 44742, Control_c, 0, 67, 76
1, 44759, Control_c, 0, 67, 81
1, 44777, Control_c, 0, 67, 87
1, 44785, Note_on_c, 0, 66, 0
1, 44795, Control_c, 0, 64, 23
1, 44796, Control_c, 0, 67, 92
1, 44802, Note_on_c, 0, 71, 58
1, 44814, Control_c, 0, 67, 98
1, 44831, Control_c, 0, 67, 104
1, 44851, Control_c, 0, 67, 111
1, 44869, Control_c, 0, 67, 117
1, 44888, Control_c, 0, 64, 29
1, 44889, Control_c, 0, 67, 122
1, 44907, Control_c, 0, 64, 36
1, 44909, Control_c, 0, 67, 127
1, 44925, Control_c, 0, 64, 43
1, 44938, Poly_aftertouch_c, 0, 60, 24
1, 44938, Note_on_c, 0, 69, 47
1, 44939, Note_on_c, 0, 71, 0
1, 44944, Control_c, 0, 64, 48
1, 44963, Control_c, 0, 64, 52
1, 44981, Control_c, 0, 64, 56
1, 44998, Control_c, 0, 64, 59
1, 45004, Note_on_c, 0, 69, 0
1, 45005, Note_on_c, 0, 60, 0
1, 45018, Control_c, 0, 64, 61
1, 45035, Control_c, 0, 64, 63
1, 45053, Note_on_c, 0, 66, 50
1, 45063, Control_c, 0, 64, 64
1, 45102, Control_c, 0, 64, 65
1, 45117, Note_on_c, 0, 66, 0
1, 45166, Note_on_c, 0, 62, 57
1, 45201, Note_on_c, 0, 59, 42
1, 45271, Note_on_c, 0, 72, 63
1, 45300, Note_on_c, 0, 62, 0
1, 45304, Control_c, 0, 64, 64
1, 45324, Control_c, 0, 64, 62
1, 45342, Control_c, 0, 64, 58
1, 45361, Control_c, 0, 64, 53
1, 45380, Control_c, 0, 64, 49
1, 45394, Note_on_c, 0, 71, 60
1, 45398, Note_on_c, 0, 72, 0
1, 45453, Control_c, 0, 64, 52
1, 45472, Control_c, 0, 64, 56
1, 45490, Control_c, 0, 64, 59
1, 45501, Note_on_c, 0, 67, 61
1, 45510, Control_c, 0, 64, 61
1, 45511, Note_on_c, 0, 71, 0
1, 45528, Control_c, 0, 64, 63
1, 45546, Control_c, 0, 64, 65
1, 45562, Control_c, 0, 64, 66
1, 45569, Note_on_c, 0, 67, 0
1, 45621, Note_on_c, 0, 62, 68
1, 45646, Note_on_c, 0, 54, 66
1, 45732, Control_c, 0, 64, 64
1, 45735, Note_on_c, 0, 74, 72
1, 45751, Control_c, 0, 64, 59
1, 45769, Control_c, 0, 64, 50
1, 45787, Control_c, 0, 64, 37
1, 45807, Control_c, 0, 64, 29
1, 45838, Note_on_c, 0, 72, 71
1, 45852, Note_on_c, 0, 74, 0
1, 45853, Note_on_c, 0, 59, 0
1, 45862, Control_c, 0, 64, 38
1, 45863, Control_c, 0, 67, 123
1, 45867, Note_on_c, 0, 62, 0
1, 45881, Control_c, 0, 64, 50
1, 45900, Control_c, 0, 64, 58
1, 45901, Control_c, 0, 67, 116
1, 45918, Control_c, 0, 64, 62
1, 45919, Control_c, 0, 67, 109
1, 45937, Control_c, 0, 64, 63
1, 45938, Control_c, 0, 67, 99
1, 45940, Note_on_c, 0, 72, 0
1, 45943, Note_on_c, 0, 69, 73
1, 45955, Control_c, 0, 64, 66
1, 45956, Control_c, 0, 67, 86
1, 45975, Control_c, 0, 64, 67
1, 45977, Control_c, 0, 67, 69
1, 46001, Control_c, 0, 67, 48
1, 46019, Control_c, 0, 64, 70
1, 46020, Control_c, 0, 67, 27
1, 46025, Note_on_c, 0, 69, 0
1, 46038, Control_c, 0, 67, 11
1, 46066, Note_on_c, 0, 62, 75
1, 46086, Note_on_c, 0, 55, 76
1, 46093, Control_c, 0, 64, 64
1, 46113, Control_c, 0, 64, 52
1, 46131, Control_c, 0, 64, 35
1, 46148, Control_c, 0, 64, 30
1, 46149, Control_c, 0, 67, 0
1, 46169, Note_on_c, 0, 76, 81
1, 46187, Control_c, 0, 64, 43
1, 46194, Note_on_c, 0, 54, 0
1, 46206, Control_c, 0, 64, 57
1, 46215, Note_on_c, 0, 50, 0
1, 46223, Note_on_c, 0, 62, 0
1, 46226, Control_c, 0, 64, 67
1, 46243, Control_c, 0, 64, 75
1, 46261, Control_c, 0, 64, 85
1, 46280, Control_c, 0, 64, 96
1, 46286, Note_on_c, 0, 74, 79
1, 46294, Note_on_c, 0, 55, 0
1, 46297, Note_on_c, 0, 76, 0
1, 46299, Control_c, 0, 64, 102
1, 46347, Note_on_c, 0, 50, 70
1, 46351, Control_c, 0, 64, 107
1, 46385, Note_on_c, 0, 52, 62
1, 46386, Note_on_c, 0, 71, 81
1, 46391, Note_on_c, 0, 74, 0
1, 46429, Note_on_c, 0, 55, 70
1, 46465, Control_c, 0, 64, 99
1, 46483, Control_c, 0, 64, 90
1, 46500, Note_on_c, 0, 71, 0
1, 46500, Control_c, 0, 64, 76
1, 46519, Control_c, 0, 64, 62
1, 46528, Note_on_c, 0, 67, 80
1, 46538, Control_c, 0, 64, 50
1, 46545, Note_on_c, 0, 61, 83
1, 46556, Control_c, 0, 64, 45
1, 46574, Control_c, 0, 64, 41
1, 46594, Control_c, 0, 64, 35
1, 46612, Control_c, 0, 64, 26
1, 46631, Control_c, 0, 64, 20
1, 46669, Control_c, 0, 64, 15
1, 46680, Note_on_c, 0, 81, 81
1, 46704, Control_c, 0, 64, 10
1, 46722, Control_c, 0, 64, 0
1, 46800, Note_on_c, 0, 79, 79
1, 46835, Note_on_c, 0, 81, 0
1, 46858, Note_on_c, 0, 67, 0
1, 46923, Note_on_c, 0, 78, 77
1, 46940, Note_on_c, 0, 79, 0
1, 47027, Note_on_c, 0, 76, 78
1, 47039, Note_on_c, 0, 78, 0
1, 47107, Note_on_c, 0, 76, 0
1, 47132, Note_on_c, 0, 74, 77
1, 47228, Note_on_c, 0, 74, 0
1, 47233, Note_on_c, 0, 73, 76
1, 47347, Note_on_c, 0, 71, 77
1, 47384, Note_on_c, 0, 73, 0
1, 47436, Note_on_c, 0, 71, 0
1, 47454, Note_on_c, 0, 69, 73
1, 47524, Note_on_c, 0, 69, 0
1, 47558, Note_on_c, 0, 67, 71
1, 47639, Note_on_c, 0, 67, 0
1, 47657, Note_on_c, 0, 66, 70
1, 47755, Note_on_c, 0, 66, 0
1, 47775, Note_on_c, 0, 64, 74
1, 47790, Note_on_c, 0, 61, 0
1, 47847, Note_on_c, 0, 64, 0
1, 47892, Control_c, 0, 64, 9
1, 47899, Note_on_c, 0, 62, 76
1, 47912, Control_c, 0, 64, 22
1, 47930, Control_c, 0, 64, 34
1, 47948, Control_c, 0, 64, 43
1, 47968, Control_c, 0, 64, 46
1, 47977, Note_on_c, 0, 62, 0
1, 47985, Note_on_c, 0, 52, 0
1, 47985, Control_c, 0, 64, 48
1, 47995, Note_on_c, 0, 61, 72
1, 48001, Control_c, 0, 64, 51
1, 48020, Control_c, 0, 64, 53
1, 48040, Control_c, 0, 64, 55
1, 48053, Note_on_c, 0, 55, 0
1, 48077, Control_c, 0, 64, 58
1, 48084, Note_on_c, 0, 50, 0
1, 48114, Control_c, 0, 64, 60
1, 48115, Note_on_c, 0, 59, 75
1, 48159, Note_on_c, 0, 61, 0
1, 48195, Note_on_c, 0, 59, 0
1, 48207, Control_c, 0, 64, 61
1, 48208, Note_on_c, 0, 57, 75
1, 48298, Note_on_c, 0, 57, 0
1, 48322, Note_on_c, 0, 55, 83
1, 48410, Note_on_c, 0, 38, 75
1, 48448, Control_c, 0, 64, 60
1, 48522, Control_c, 0, 64, 58
1, 48524, Note_on_c, 0, 45, 74
1, 48530, Note_on_c, 0, 38, 0
1, 48577, Control_c, 0, 64, 55
1, 48643, Note_on_c, 0, 49, 72
1, 48645, Note_on_c, 0, 45, 0
1, 48707, Control_c, 0, 64, 53
1, 48751, Note_on_c, 0, 50, 70
1, 48754, Note_on_c, 0, 49, 0
1, 48763, Control_c, 0, 64, 51
1, 48781, Control_c, 0, 64, 48
1, 48808, Control_c, 0, 64, 46
1, 48848, Control_c, 0, 64, 44
1, 48864, Note_on_c, 0, 50, 0
1, 48885, Note_on_c, 0, 49, 65
1, 48902, Control_c, 0, 64, 42
1, 48951, Note_on_c, 0, 49, 0
1, 48975, Control_c, 0, 64, 40
1, 49000, Note_on_c, 0, 50, 61
1, 49063, Note_on_c, 0, 50, 0
1, 49103, Note_on_c, 0, 49, 62
1, 49206, Note_on_c, 0, 49, 0
1, 49213, Note_on_c, 0, 55, 0
1, 49236, Control_c, 0, 64, 30
1, 49236, Note_on_c, 0, 54, 59
1, 49236, Note_on_c, 0, 50, 48
1, 49254, Control_c, 0, 64, 15
1, 49273, Control_c, 0, 64, 0
1, 49301, Note_on_c, 0, 50, 0
1, 49310, Note_on_c, 0, 54, 0
1, 49347, Note_on_c, 0, 55, 63
1, 49407, Note_on_c, 0, 55, 0
1, 49462, Note_on_c, 0, 57, 59
1, 49547, Note_on_c, 0, 57, 0
1, 49568, Note_on_c, 0, 55, 59
1, 49640, Note_on_c, 0, 55, 0
1, 49670, Note_on_c, 0, 59, 63
1, 49759, Note_on_c, 0, 59, 0
1, 49794, Note_on_c, 0, 57, 60
1, 49879, Note_on_c, 0, 57, 0
1, 49904, Note_on_c, 0, 60, 50
1, 50005, Note_on_c, 0, 60, 0
1, 50008, Note_on_c, 0, 59, 56
1, 50042, Control_c, 0, 67, 10
1, 50071, Note_on_c, 0, 59, 0
1, 50075, Control_c, 0, 67, 15
1, 50097, Control_c, 0, 67, 20
1, 50114, Control_c, 0, 67, 24
1, 50123, Note_on_c, 0, 62, 61
1, 50153, Control_c, 0, 67, 29
1, 50218, Note_on_c, 0, 62, 0
1, 50230, Note_on_c, 0, 60, 55
1, 50290, Note_on_c, 0, 60, 0
1, 50298, Poly_aftertouch_c, 0, 50, 24
1, 50335, Poly_aftertouch_c, 0, 50, 0
1, 50343, Note_on_c, 0, 57, 57
1, 50415, Control_c, 0, 67, 34
1, 50431, Control_c, 0, 67, 39
1, 50443, Note_on_c, 0, 57, 0
1, 50448, Control_c, 0, 67, 50
1, 50448, Note_on_c, 0, 54, 55
1, 50469, Control_c, 0, 67, 66
1, 50487, Control_c, 0, 67, 84
1, 50506, Control_c, 0, 67, 101
1, 50524, Control_c, 0, 67, 112
1, 50543, Control_c, 0, 67, 123
1, 50550, Note_on_c, 0, 54, 0
1, 50560, Note_on_c, 0, 50, 48
1, 50562, Control_c, 0, 67, 127
1, 50580, Control_c, 0, 64, 24
1, 50599, Control_c, 0, 64, 41
1, 50616, Control_c, 0, 64, 52
1, 50635, Control_c, 0, 64, 57
1, 50650, Note_on_c, 0, 50, 0
1, 50653, Control_c, 0, 64, 60
1, 50681, Control_c, 0, 64, 62
1, 50690, Note_on_c, 0, 66, 54
1, 50700, Control_c, 0, 64, 64
1, 50719, Control_c, 0, 64, 66
1, 50738, Control_c, 0, 64, 67
1, 50762, Note_on_c, 0, 66, 0
1, 50797, Note_on_c, 0, 62, 53
1, 50840, Note_on_c, 0, 62, 0
1, 50922, Note_on_c, 0, 60, 41
1, 50960, Control_c, 0, 64, 69
1, 50996, Control_c, 0, 64, 71
1, 51014, Control_c, 0, 64, 73
1, 51029, Note_on_c, 0, 57, 50
1, 51032, Control_c, 0, 64, 76
1, 51052, Control_c, 0, 64, 79
1, 51053, Note_on_c, 0, 60, 0
1, 51071, Control_c, 0, 64, 81
1, 51073, Note_on_c, 0, 57, 0
1, 51150, Note_on_c, 0, 72, 53
1, 51208, Note_on_c, 0, 72, 0
1, 51239, Note_on_c, 0, 69, 57
1, 51286, Note_on_c, 0, 69, 0
1, 51355, Note_on_c, 0, 66, 48
1, 51475, Note_on_c, 0, 62, 60
1, 51480, Control_c, 0, 64, 79
1, 51525, Note_on_c, 0, 62, 0
1, 51535, Note_on_c, 0, 66, 0
1, 51597, Note_on_c, 0, 78, 63
1, 51674, Control_c, 0, 64, 77
1, 51687, Note_on_c, 0, 78, 0
1, 51716, Note_on_c, 0, 74, 61
1, 51759, Note_on_c, 0, 74, 0
1, 51831, Note_on_c, 0, 72, 53
1, 51933, Control_c, 0, 64, 75
1, 51940, Note_on_c, 0, 69, 56
1, 51949, Note_on_c, 0, 72, 0
1, 51980, Note_on_c, 0, 69, 0
1, 52053, Note_on_c, 0, 84, 64
1, 52083, Control_c, 0, 64, 73
1, 52157, Note_on_c, 0, 84, 0
1, 52170, Note_on_c, 0, 81, 62
1, 52278, Note_on_c, 0, 78, 55
1, 52360, Control_c, 0, 64, 71
1, 52391, Note_on_c, 0, 78, 0
1, 52405, Note_on_c, 0, 74, 51
1, 52416, Note_on_c, 0, 81, 0
1, 52508, Control_c, 0, 64, 69
1, 52520, Note_on_c, 0, 88, 66
1, 52532, Poly_aftertouch_c, 0, 81, 0
1, 52592, Control_c, 0, 64, 68
1, 52629, Control_c, 0, 64, 67
1, 52642, Note_on_c, 0, 86, 68
1, 52645, Note_on_c, 0, 88, 0
1, 52668, Control_c, 0, 64, 66
1, 52740, Control_c, 0, 64, 65
1, 52762, Note_on_c, 0, 84, 60
1, 52784, Note_on_c, 0, 86, 0
1, 52856, Note_on_c, 0, 84, 0
1, 52867, Note_on_c, 0, 83, 61
1, 52888, Control_c, 0, 64, 64
1, 52927, Control_c, 0, 64, 63
1, 52932, Note_on_c, 0, 83, 0
1, 52963, Note_on_c, 0, 81, 66
1, 52984, Control_c, 0, 64, 62
1, 53038, Control_c, 0, 64, 61
1, 53066, Note_on_c, 0, 81, 0
1, 53075, Control_c, 0, 64, 60
1, 53077, Note_on_c, 0, 79, 68
1, 53078, Note_on_c, 0, 74, 0
1, 53150, Control_c, 0, 64, 58
1, 53186, Note_on_c, 0, 78, 62
1, 53187, Control_c, 0, 64, 56
1, 53198, Note_on_c, 0, 79, 0
1, 53240, Control_c, 0, 64, 54
1, 53278, Control_c, 0, 64, 52
1, 53289, Note_on_c, 0, 76, 65
1, 53297, Note_on_c, 0, 78, 0
1, 53353, Control_c, 0, 64, 49
1, 53363, Note_on_c, 0, 76, 0
1, 53391, Control_c, 0, 64, 47
1, 53396, Note_on_c, 0, 74, 67
1, 53473, Note_on_c, 0, 74, 0
1, 53509, Control_c, 0, 64, 45
1, 53509, Note_on_c, 0, 73, 68
1, 53590, Note_on_c, 0, 73, 0
1, 53604, Control_c, 0, 64, 43
1, 53612, Note_on_c, 0, 72, 72
1, 53695, Control_c, 0, 64, 41
1, 53717, Note_on_c, 0, 72, 0
1, 53729, Note_on_c, 0, 81, 76
1, 53824, Control_c, 0, 64, 36
1, 53843, Control_c, 0, 64, 27
1, 53844, Note_on_c, 0, 62, 62
1, 53861, Control_c, 0, 64, 0
1, 53938, Note_on_c, 0, 66, 63
1, 53991, Control_c, 0, 64, 17
1, 54009, Control_c, 0, 64, 34
1, 54029, Control_c, 0, 64, 46
1, 54044, Note_on_c, 0, 69, 71
1, 54045, Control_c, 0, 64, 52
1, 54067, Note_on_c, 0, 62, 0
1, 54121, Control_c, 0, 64, 54
1, 54131, Note_on_c, 0, 66, 0
1, 54161, Note_on_c, 0, 72, 78
1, 54226, Note_on_c, 0, 81, 0
1, 54262, Note_on_c, 0, 74, 79
1, 54321, Note_on_c, 0, 69, 0
1, 54360, Control_c, 0, 64, 56
1, 54361, Note_on_c, 0, 78, 78
1, 54376, Note_on_c, 0, 74, 0
1, 54482, Note_on_c, 0, 81, 80
1, 54484, Note_on_c, 0, 78, 0
1, 54539, Control_c, 0, 67, 123
1, 54576, Control_c, 0, 67, 115
1, 54592, Control_c, 0, 67, 110
1, 54594, Note_on_c, 0, 84, 82
1, 54609, Note_on_c, 0, 81, 0
1, 54612, Control_c, 0, 67, 106
1, 54630, Control_c, 0, 67, 101
1, 54649, Control_c, 0, 67, 96
1, 54669, Control_c, 0, 64, 58
1, 54671, Control_c, 0, 67, 89
1, 54687, Control_c, 0, 67, 83
1, 54705, Control_c, 0, 67, 78
1, 54708, Note_on_c, 0, 74, 77
1, 54724, Control_c, 0, 67, 74
1, 54741, Control_c, 0, 67, 70
1, 54760, Control_c, 0, 67, 66
1, 54790, Note_on_c, 0, 74, 0
1, 54795, Control_c, 0, 67, 61
1, 54808, Note_on_c, 0, 78, 73
1, 54900, Note_on_c, 0, 72, 0
1, 54923, Note_on_c, 0, 81, 76
1, 54924, Note_on_c, 0, 84, 0
1, 54979, Note_on_c, 0, 78, 0
1, 55038, Control_c, 0, 67, 65
1, 55054, Note_on_c, 0, 84, 80
1, 55066, Note_on_c, 0, 81, 0
1, 55169, Control_c, 0, 64, 60
1, 55177, Note_on_c, 0, 74, 68
1, 55240, Note_on_c, 0, 74, 0
1, 55286, Note_on_c, 0, 78, 63
1, 55395, Note_on_c, 0, 78, 0
1, 55417, Note_on_c, 0, 81, 64
1, 55441, Note_on_c, 0, 84, 0
1, 55493, Note_on_c, 0, 81, 0
1, 55582, Note_on_c, 0, 84, 63
1, 55601, Note_on_c, 0, 81, 48
1, 55677, Control_c, 0, 64, 57
1, 55714, Control_c, 0, 64, 55
1, 55770, Control_c, 0, 64, 53
1, 55842, Control_c, 0, 67, 69
1, 55881, Control_c, 0, 64, 51
1, 55992, Control_c, 0, 64, 47
1, 56009, Control_c, 0, 64, 44
1, 56010, Control_c, 0, 67, 74
1, 56028, Control_c, 0, 64, 39
1, 56047, Control_c, 0, 64, 33
1, 56066, Control_c, 0, 64, 28
1, 56067, Control_c, 0, 67, 78
1, 56084, Control_c, 0, 64, 23
1, 56103, Control_c, 0, 64, 16
1, 56121, Control_c, 0, 64, 0
1, 56159, Control_c, 0, 67, 82
1, 56212, Control_c, 0, 67, 87
1, 56251, Control_c, 0, 67, 92
1, 56335, Control_c, 0, 67, 96
1, 56369, Control_c, 0, 67, 101
1, 56407, Control_c, 0, 67, 107
1, 56695, Note_on_c, 0, 82, 42
1, 56697, Note_on_c, 0, 78, 36
1, 56749, Note_on_c, 0, 81, 0
1, 56865, Note_on_c, 0, 84, 0
1, 57324, Control_c, 0, 67, 103
1, 57513, Note_on_c, 0, 82, 0
1, 57532, Note_on_c, 0, 78, 0
1, 57653, Note_on_c, 0, 83, 85
1, 57660, Note_on_c, 0, 79, 81
1, 57676, Control_c, 0, 67, 99
1, 57687, Note_on_c, 0, 79, 0
1, 57709, Note_on_c, 0, 83, 0
1, 57769, Note_on_c, 0, 43, 65
1, 57860, Poly_aftertouch_c, 0, 79, 0
1, 57872, Note_on_c, 0, 45, 72
1, 57874, Note_on_c, 0, 43, 0
1, 57926, Note_on_c, 0, 45, 0
1, 57983, Note_on_c, 0, 47, 67
1, 58033, Note_on_c, 0, 47, 0
1, 58090, Note_on_c, 0, 79, 83
1, 58105, Note_on_c, 0, 48, 64
1, 58114, Note_on_c, 0, 74, 63
1, 58148, Note_on_c, 0, 48, 0
1, 58153, Note_on_c, 0, 74, 0
1, 58155, Note_on_c, 0, 79, 0
1, 58206, Note_on_c, 0, 50, 67
1, 58255, Note_on_c, 0, 50, 0
1, 58259, Control_c, 0, 67, 103
1, 58320, Note_on_c, 0, 52, 67
1, 58374, Note_on_c, 0, 52, 0
1, 58429, Note_on_c, 0, 54, 66
1, 58475, Note_on_c, 0, 54, 0
1, 58552, Note_on_c, 0, 74, 80
1, 58561, Note_on_c, 0, 55, 53
1, 58562, Note_on_c, 0, 71, 69
1, 58593, Note_on_c, 0, 55, 0
1, 58596, Note_on_c, 0, 71, 0
1, 58601, Note_on_c, 0, 74, 0
1, 58652, Note_on_c, 0, 54, 53
1, 58761, Note_on_c, 0, 55, 57
1, 58769, Note_on_c, 0, 54, 0
1, 58830, Note_on_c, 0, 55, 0
1, 58865, Note_on_c, 0, 57, 56
1, 58961, Note_on_c, 0, 57, 0
1, 58992, Note_on_c, 0, 59, 64
1, 59035, Note_on_c, 0, 59, 0
1, 59036, Control_c, 0, 67, 107
1, 59104, Control_c, 0, 67, 112
1, 59121, Control_c, 0, 67, 118
1, 59141, Control_c, 0, 67, 126
1, 59243, Note_on_c, 0, 76, 61
1, 59483, Note_on_c, 0, 76, 0
1, 59503, Note_on_c, 0, 69, 58
1, 59555, Note_on_c, 0, 69, 0
1, 59591, Note_on_c, 0, 67, 52
1, 59645, Note_on_c, 0, 67, 0
1, 59691, Note_on_c, 0, 66, 54
1, 59762, Note_on_c, 0, 66, 0
1, 59791, Note_on_c, 0, 64, 57
1, 59889, Note_on_c, 0, 64, 0
1, 59926, Note_on_c, 0, 66, 65
1, 59993, Note_on_c, 0, 66, 0
1, 60169, Note_on_c, 0, 74, 63
1, 60391, Note_on_c, 0, 74, 0
1, 60417, Note_on_c, 0, 67, 62
1, 60494, Note_on_c, 0, 67, 0
1, 60522, Note_on_c, 0, 66, 55
1, 60579, Note_on_c, 0, 66, 0
1, 60626, Note_on_c, 0, 64, 57
1, 60686, Note_on_c, 0, 64, 0
1, 60737, Note_on_c, 0, 63, 66
1, 60795, Note_on_c, 0, 63, 0
1, 60862, Note_on_c, 0, 64, 77
1, 60905, Note_on_c, 0, 64, 0
1, 61078, Note_on_c, 0, 88, 84
1, 61088, Note_on_c, 0, 84, 77
1, 61267, Note_on_c, 0, 88, 0
1, 61295, Note_on_c, 0, 84, 0
1, 61320, Note_on_c, 0, 81, 83
1, 61322, Note_on_c, 0, 78, 86
1, 61363, Control_c, 0, 64, 13
1, 61382, Control_c, 0, 64, 23
1, 61401, Control_c, 0, 64, 30
1, 61417, Control_c, 0, 64, 35
1, 61437, Control_c, 0, 64, 40
1, 61455, Control_c, 0, 64, 42
1, 61511, Control_c, 0, 64, 44
1, 61519, Note_on_c, 0, 81, 0
1, 61525, Note_on_c, 0, 78, 0
1, 61557, Note_on_c, 0, 69, 67
1, 61558, Note_on_c, 0, 66, 65
1, 61596, Note_on_c, 0, 69, 0
1, 61599, Note_on_c, 0, 66, 0
1, 61772, Control_c, 0, 64, 42
1, 61788, Control_c, 0, 64, 37
1, 61792, Note_on_c, 0, 74, 81
1, 61809, Note_on_c, 0, 71, 63
1, 61826, Control_c, 0, 64, 32
1, 61944, Note_on_c, 0, 71, 0
1, 62003, Note_on_c, 0, 74, 0
1, 62009, Note_on_c, 0, 86, 80
1, 62015, Note_on_c, 0, 83, 76
1, 62161, Note_on_c, 0, 86, 0
1, 62179, Note_on_c, 0, 83, 0
1, 62239, Note_on_c, 0, 79, 81
1, 62242, Control_c, 0, 64, 36
1, 62249, Note_on_c, 0, 76, 75
1, 62279, Control_c, 0, 64, 43
1, 62299, Control_c, 0, 64, 45
1, 62317, Control_c, 0, 64, 47
1, 62336, Control_c, 0, 64, 49
1, 62340, Note_on_c, 0, 67, 67
1, 62365, Note_on_c, 0, 64, 52
1, 62373, Control_c, 0, 64, 52
1, 62397, Note_on_c, 0, 67, 0
1, 62430, Control_c, 0, 64, 54
1, 62455, Note_on_c, 0, 69, 70
1, 62476, Note_on_c, 0, 64, 0
1, 62493, Note_on_c, 0, 66, 53
1, 62504, Note_on_c, 0, 69, 0
1, 62505, Control_c, 0, 64, 56
1, 62539, Note_on_c, 0, 71, 66
1, 62561, Note_on_c, 0, 66, 0
1, 62571, Note_on_c, 0, 67, 56
1, 62599, Note_on_c, 0, 71, 0
1, 62602, Note_on_c, 0, 67, 0
1, 62648, Poly_aftertouch_c, 0, 76, 24
1, 62651, Control_c, 0, 64, 52
1, 62669, Note_on_c, 0, 76, 0
1, 62671, Control_c, 0, 64, 48
1, 62689, Control_c, 0, 64, 42
1, 62694, Note_on_c, 0, 72, 69
1, 62695, Note_on_c, 0, 69, 55
1, 62709, Control_c, 0, 64, 33
1, 62725, Control_c, 0, 64, 16
1, 62731, Note_on_c, 0, 79, 0
1, 62745, Control_c, 0, 64, 0
1, 62952, Note_on_c, 0, 84, 56
1, 62995, Note_on_c, 0, 84, 0
1, 63164, Note_on_c, 0, 74, 64
1, 63168, Note_on_c, 0, 72, 0
1, 63193, Note_on_c, 0, 69, 0
1, 63216, Note_on_c, 0, 74, 0
1, 63259, Note_on_c, 0, 84, 60
1, 63379, Note_on_c, 0, 84, 0
1, 63385, Note_on_c, 0, 83, 61
1, 63402, Note_on_c, 0, 66, 48
1, 63433, Note_on_c, 0, 66, 0
1, 63481, Note_on_c, 0, 83, 0
1, 63490, Note_on_c, 0, 82, 62
1, 63565, Note_on_c, 0, 82, 0
1, 63608, Note_on_c, 0, 67, 50
1, 63624, Note_on_c, 0, 83, 62
1, 63662, Note_on_c, 0, 67, 0
1, 63712, Note_on_c, 0, 83, 0
1, 63728, Note_on_c, 0, 78, 55
1, 63811, Note_on_c, 0, 78, 0
1, 63842, Note_on_c, 0, 59, 41
1, 63857, Note_on_c, 0, 79, 59
1, 63874, Note_on_c, 0, 59, 0
1, 63910, Note_on_c, 0, 79, 0
1, 63962, Note_on_c, 0, 74, 53
1, 64022, Note_on_c, 0, 74, 0
1, 64056, Note_on_c, 0, 60, 52
1, 64056, Note_on_c, 0, 75, 62
1, 64128, Note_on_c, 0, 75, 0
1, 64170, Note_on_c, 0, 76, 58
1, 64224, Note_on_c, 0, 76, 0
1, 64266, Note_on_c, 0, 60, 0
1, 64276, Note_on_c, 0, 72, 58
1, 64278, Note_on_c, 0, 80, 60
1, 64315, Note_on_c, 0, 72, 0
1, 64375, Note_on_c, 0, 80, 0
1, 64385, Note_on_c, 0, 81, 59
1, 64519, Note_on_c, 0, 79, 61
1, 64521, Note_on_c, 0, 81, 0
1, 64529, Note_on_c, 0, 71, 41
1, 64537, Note_on_c, 0, 62, 47
1, 64623, Note_on_c, 0, 71, 0
1, 64624, Note_on_c, 0, 71, 10
1, 64726, Note_on_c, 0, 71, 0
1, 64770, Note_on_c, 0, 79, 0
1, 64774, Note_on_c, 0, 69, 59
1, 64778, Note_on_c, 0, 78, 63
1, 64794, Note_on_c, 0, 69, 0
1, 64816, Note_on_c, 0, 62, 0
1, 64820, Note_on_c, 0, 78, 0
1, 64996, Note_on_c, 0, 55, 90
1, 65037, Control_c, 0, 64, 21
1, 65056, Control_c, 0, 64, 55
1, 65061, Note_on_c, 0, 55, 0
1, 65074, Control_c, 0, 64, 57
1, 65085, Note_on_c, 0, 79, 67
1, 65107, Note_on_c, 0, 67, 67
1, 65108, Note_on_c, 0, 83, 60
1, 65124, Note_on_c, 0, 79, 0
1, 65167, Control_c, 0, 64, 59
1, 65184, Note_on_c, 0, 67, 0
1, 65184, Control_c, 0, 64, 61
1, 65205, Control_c, 0, 64, 62
1, 65205, Note_on_c, 0, 81, 70
1, 65210, Note_on_c, 0, 78, 69
1, 65213, Note_on_c, 0, 83, 0
1, 65228, Note_on_c, 0, 55, 72
1, 65241, Note_on_c, 0, 81, 0
1, 65246, Note_on_c, 0, 78, 0
1, 65274, Note_on_c, 0, 55, 0
1, 65315, Note_on_c, 0, 84, 82
1, 65324, Note_on_c, 0, 67, 68
1, 65326, Note_on_c, 0, 81, 70
1, 65353, Control_c, 0, 64, 60
1, 65362, Note_on_c, 0, 81, 0
1, 65413, Note_on_c, 0, 84, 0
1, 65420, Note_on_c, 0, 83, 81
1, 65421, Note_on_c, 0, 79, 77
1, 65434, Note_on_c, 0, 67, 0
1, 65440, Note_on_c, 0, 55, 72
1, 65457, Poly_aftertouch_c, 0, 84, 0
1, 65461, Note_on_c, 0, 79, 0
1, 65461, Note_on_c, 0, 83, 0
1, 65484, Control_c, 0, 64, 58
1, 65486, Note_on_c, 0, 55, 0
1, 65531, Note_on_c, 0, 86, 82
1, 65541, Note_on_c, 0, 83, 67
1, 65555, Note_on_c, 0, 67, 62
1, 65576, Note_on_c, 0, 83, 0
1, 65599, Note_on_c, 0, 86, 0
1, 65614, Control_c, 0, 64, 56
1, 65629, Note_on_c, 0, 84, 80
1, 65643, Note_on_c, 0, 81, 72
1, 65670, Note_on_c, 0, 67, 0
1, 65671, Note_on_c, 0, 55, 68
1, 65680, Note_on_c, 0, 81, 0
1, 65694, Note_on_c, 0, 84, 0
1, 65715, Note_on_c, 0, 55, 0
1, 65733, Control_c, 0, 64, 54
1, 65743, Note_on_c, 0, 88, 82
1, 65749, Note_on_c, 0, 84, 62
1, 65779, Note_on_c, 0, 67, 62
1, 65787, Note_on_c, 0, 84, 0
1, 65821, Note_on_c, 0, 88, 0
1, 65864, Note_on_c, 0, 67, 0
1, 65869, Note_on_c, 0, 86, 89
1, 65877, Note_on_c, 0, 83, 73
1, 65884, Note_on_c, 0, 55, 72
1, 65909, Note_on_c, 0, 83, 0
1, 65918, Note_on_c, 0, 86, 0
1, 65926, Note_on_c, 0, 55, 0
1, 66001, Note_on_c, 0, 67, 60
1, 66064, Note_on_c, 0, 67, 0
1, 66082, Note_on_c, 0, 55, 63
1, 66137, Note_on_c, 0, 55, 0
1, 66191, Note_on_c, 0, 84, 75
1, 66203, Note_on_c, 0, 67, 58
1, 66208, Note_on_c, 0, 81, 64
1, 66255, Note_on_c, 0, 81, 0
1, 66277, Note_on_c, 0, 84, 0
1, 66281, Note_on_c, 0, 67, 0
1, 66310, Note_on_c, 0, 79, 78
1, 66311, Note_on_c, 0, 83, 81
1, 66318, Note_on_c, 0, 55, 64
1, 66348, Note_on_c, 0, 79, 0
1, 66354, Note_on_c, 0, 83, 0
1, 66370, Note_on_c, 0, 55, 0
1, 66401, Control_c, 0, 64, 56
1, 66432, Note_on_c, 0, 67, 56
1, 66509, Note_on_c, 0, 67, 0
1, 66513, Control_c, 0, 64, 58
1, 66542, Note_on_c, 0, 55, 61
1, 66592, Note_on_c, 0, 55, 0
1, 66651, Note_on_c, 0, 81, 70
1, 66663, Note_on_c, 0, 72, 48
1, 66687, Note_on_c, 0, 67, 29
1, 66688, Control_c, 0, 64, 60
1, 66694, Note_on_c, 0, 72, 0
1, 66730, Note_on_c, 0, 67, 0
1, 66733, Note_on_c, 0, 81, 0
1, 66764, Control_c, 0, 64, 51
1, 66765, Note_on_c, 0, 79, 75
1, 66768, Note_on_c, 0, 55, 59
1, 66779, Note_on_c, 0, 71, 58
1, 66781, Control_c, 0, 64, 22
1, 66802, Control_c, 0, 64, 0
1, 66807, Note_on_c, 0, 55, 0
1, 66808, Note_on_c, 0, 71, 0
1, 66823, Note_on_c, 0, 79, 0
1, 66870, Note_on_c, 0, 83, 70
1, 66880, Note_on_c, 0, 67, 37
1, 66898, Poly_aftertouch_c, 0, 79, 127
1, 66952, Note_on_c, 0, 67, 0
1, 66958, Poly_aftertouch_c, 0, 79, 0
1, 66960, Note_on_c, 0, 78, 68
1, 66977, Note_on_c, 0, 55, 50
1, 66983, Note_on_c, 0, 83, 0
1, 66988, Note_on_c, 0, 81, 53
1, 66997, Note_on_c, 0, 78, 0
1, 67012, Note_on_c, 0, 81, 0
1, 67021, Note_on_c, 0, 55, 0
1, 67089, Note_on_c, 0, 84, 71
1, 67097, Note_on_c, 0, 81, 62
1, 67107, Note_on_c, 0, 67, 45
1, 67118, Control_c, 0, 64, 14
1, 67123, Note_on_c, 0, 81, 0
1, 67137, Control_c, 0, 64, 21
1, 67150, Note_on_c, 0, 67, 0
1, 67156, Control_c, 0, 64, 27
1, 67174, Control_c, 0, 64, 32
1, 67188, Note_on_c, 0, 79, 68
1, 67193, Control_c, 0, 64, 37
1, 67193, Note_on_c, 0, 55, 52
1, 67204, Note_on_c, 0, 83, 62
1, 67208, Control_c, 0, 64, 40
1, 67223, Note_on_c, 0, 79, 0
1, 67228, Note_on_c, 0, 84, 0
1, 67236, Note_on_c, 0, 55, 0
1, 67241, Note_on_c, 0, 83, 0
1, 67305, Note_on_c, 0, 67, 37
1, 67311, Note_on_c, 0, 83, 65
1, 67311, Note_on_c, 0, 86, 70
1, 67350, Note_on_c, 0, 83, 0
1, 67367, Note_on_c, 0, 67, 0
1, 67404, Note_on_c, 0, 55, 50
1, 67411, Note_on_c, 0, 81, 63
1, 67412, Note_on_c, 0, 84, 66
1, 67428, Note_on_c, 0, 86, 0
1, 67450, Note_on_c, 0, 84, 0
1, 67452, Note_on_c, 0, 81, 0
1, 67454, Note_on_c, 0, 55, 0
1, 67488, Control_c, 0, 64, 34
1, 67532, Note_on_c, 0, 88, 68
1, 67539, Note_on_c, 0, 84, 61
1, 67558, Note_on_c, 0, 84, 0
1, 67569, Note_on_c, 0, 67, 25
1, 67603, Note_on_c, 0, 88, 0
1, 67607, Control_c, 0, 64, 30
1, 67615, Note_on_c, 0, 67, 0
1, 67650, Note_on_c, 0, 55, 53
1, 67651, Note_on_c, 0, 86, 61
1, 67652, Note_on_c, 0, 83, 61
1, 67691, Note_on_c, 0, 86, 0
1, 67696, Note_on_c, 0, 83, 0
1, 67706, Note_on_c, 0, 55, 0
1, 67784, Note_on_c, 0, 67, 28
1, 67837, Note_on_c, 0, 67, 0
1, 67879, Note_on_c, 0, 55, 51
1, 67927, Note_on_c, 0, 55, 0
1, 67941, Control_c, 0, 64, 26
1, 67979, Control_c, 0, 64, 22
1, 67984, Note_on_c, 0, 84, 52
1, 67991, Note_on_c, 0, 81, 54
1, 68013, Note_on_c, 0, 67, 28
1, 68041, Note_on_c, 0, 81, 0
1, 68048, Note_on_c, 0, 84, 0
1, 68056, Note_on_c, 0, 67, 0
1, 68093, Note_on_c, 0, 79, 60
1, 68098, Note_on_c, 0, 83, 58
1, 68111, Note_on_c, 0, 55, 48
1, 68136, Note_on_c, 0, 79, 0
1, 68136, Note_on_c, 0, 83, 0
1, 68160, Note_on_c, 0, 55, 0
1, 68264, Note_on_c, 0, 67, 14
1, 68324, Note_on_c, 0, 67, 0
1, 68332, Note_on_c, 0, 55, 57
1, 68387, Note_on_c, 0, 55, 0
1, 68434, Note_on_c, 0, 72, 60
1, 68441, Note_on_c, 0, 81, 62
1, 68456, Note_on_c, 0, 67, 45
1, 68477, Note_on_c, 0, 72, 0
1, 68506, Note_on_c, 0, 81, 0
1, 68514, Note_on_c, 0, 67, 0
1, 68559, Note_on_c, 0, 55, 70
1, 68559, Note_on_c, 0, 71, 70
1, 68562, Note_on_c, 0, 79, 75
1, 68600, Note_on_c, 0, 71, 0
1, 68606, Note_on_c, 0, 55, 0
1, 68633, Note_on_c, 0, 79, 0
1, 68667, Note_on_c, 0, 83, 71
1, 68671, Note_on_c, 0, 67, 52
1, 68702, Poly_aftertouch_c, 0, 79, 0
1, 68765, Note_on_c, 0, 81, 72
1, 68768, Note_on_c, 0, 78, 72
1, 68770, Note_on_c, 0, 55, 66
1, 68774, Note_on_c, 0, 83, 0
1, 68783, Note_on_c, 0, 67, 0
1, 68787, Control_c, 0, 64, 26
1, 68798, Note_on_c, 0, 78, 0
1, 68800, Note_on_c, 0, 81, 0
1, 68819, Note_on_c, 0, 55, 0
1, 68841, Control_c, 0, 64, 31
1, 68878, Control_c, 0, 64, 35
1, 68879, Note_on_c, 0, 84, 81
1, 68888, Note_on_c, 0, 81, 68
1, 68888, Note_on_c, 0, 67, 52
1, 68923, Note_on_c, 0, 81, 0
1, 68975, Note_on_c, 0, 79, 69
1, 68975, Note_on_c, 0, 83, 82
1, 68990, Note_on_c, 0, 55, 69
1, 68995, Note_on_c, 0, 67, 0
1, 69013, Note_on_c, 0, 79, 0
1, 69014, Note_on_c, 0, 84, 0
1, 69031, Note_on_c, 0, 83, 0
1, 69049, Note_on_c, 0, 55, 0
1, 69092, Note_on_c, 0, 86, 82
1, 69098, Note_on_c, 0, 83, 73
1, 69113, Note_on_c, 0, 67, 57
1, 69131, Note_on_c, 0, 83, 0
1, 69165, Note_on_c, 0, 86, 0
1, 69199, Note_on_c, 0, 84, 83
1, 69199, Note_on_c, 0, 67, 0
1, 69204, Note_on_c, 0, 81, 72
1, 69213, Note_on_c, 0, 55, 68
1, 69238, Note_on_c, 0, 81, 0
1, 69248, Note_on_c, 0, 84, 0
1, 69265, Note_on_c, 0, 55, 0
1, 69305, Note_on_c, 0, 88, 85
1, 69316, Note_on_c, 0, 84, 65
1, 69330, Note_on_c, 0, 67, 58
1, 69356, Note_on_c, 0, 84, 0
1, 69362, Control_c, 0, 64, 31
1, 69397, Note_on_c, 0, 88, 0
1, 69427, Note_on_c, 0, 67, 0
1, 69434, Note_on_c, 0, 86, 86
1, 69442, Note_on_c, 0, 55, 67
1, 69444, Note_on_c, 0, 83, 74
1, 69463, Control_c, 0, 64, 27
1, 69479, Note_on_c, 0, 83, 0
1, 69488, Note_on_c, 0, 86, 0
1, 69492, Note_on_c, 0, 55, 0
1, 69560, Note_on_c, 0, 67, 57
1, 69618, Note_on_c, 0, 67, 0
1, 69655, Note_on_c, 0, 55, 61
1, 69709, Note_on_c, 0, 55, 0
1, 69761, Control_c, 0, 64, 22
1, 69770, Note_on_c, 0, 84, 74
1, 69774, Note_on_c, 0, 67, 45
1, 69780, Note_on_c, 0, 81, 60
1, 69826, Note_on_c, 0, 81, 0
1, 69842, Note_on_c, 0, 67, 0
1, 69853, Note_on_c, 0, 84, 0
1, 69877, Note_on_c, 0, 83, 77
1, 69879, Note_on_c, 0, 55, 53
1, 69884, Note_on_c, 0, 79, 69
1, 69920, Note_on_c, 0, 79, 0
1, 69928, Note_on_c, 0, 83, 0
1, 69936, Note_on_c, 0, 55, 0
1, 70012, Note_on_c, 0, 67, 38
1, 70052, Note_on_c, 0, 67, 0
1, 70106, Note_on_c, 0, 55, 53
1, 70157, Note_on_c, 0, 55, 0
1, 70203, Note_on_c, 0, 81, 68
1, 70223, Note_on_c, 0, 72, 34
1, 70251, Note_on_c, 0, 67, 18
1, 70260, Note_on_c, 0, 72, 0
1, 70293, Note_on_c, 0, 81, 0
1, 70298, Note_on_c, 0, 67, 0
1, 70315, Note_on_c, 0, 79, 79
1, 70340, Note_on_c, 0, 55, 56
1, 70350, Note_on_c, 0, 71, 62
1, 70397, Note_on_c, 0, 55, 0
1, 70399, Control_c, 0, 64, 29
1, 70438, Control_c, 0, 64, 35
1, 70452, Note_on_c, 0, 67, 45
1, 70454, Control_c, 0, 64, 39
1, 70475, Control_c, 0, 64, 43
1, 70495, Control_c, 0, 64, 46
1, 70512, Control_c, 0, 64, 48
1, 70530, Control_c, 0, 64, 51
1, 70541, Note_on_c, 0, 67, 0
1, 70547, Control_c, 0, 64, 54
1, 70566, Note_on_c, 0, 55, 55
1, 70567, Control_c, 0, 64, 57
1, 70586, Control_c, 0, 64, 61
1, 70604, Control_c, 0, 64, 64
1, 70624, Control_c, 0, 64, 66
1, 70628, Note_on_c, 0, 55, 0
1, 70642, Control_c, 0, 64, 68
1, 70661, Control_c, 0, 64, 71
1, 70680, Control_c, 0, 64, 74
1, 70698, Control_c, 0, 64, 77
1, 70702, Note_on_c, 0, 67, 49
1, 70717, Control_c, 0, 64, 80
1, 70735, Control_c, 0, 64, 82
1, 70755, Control_c, 0, 64, 84
1, 70779, Note_on_c, 0, 67, 0
1, 70791, Control_c, 0, 64, 87
1, 70816, Note_on_c, 0, 55, 63
1, 70847, Control_c, 0, 64, 93
1, 70858, Note_on_c, 0, 71, 0
1, 70872, Note_on_c, 0, 55, 0
1, 70887, Control_c, 0, 64, 98
1, 70952, Note_on_c, 0, 67, 52
1, 71021, Note_on_c, 0, 79, 0
1, 71047, Note_on_c, 0, 67, 0
1, 71054, Note_on_c, 0, 55, 55
1, 71109, Note_on_c, 0, 55, 0
1, 71187, Note_on_c, 0, 67, 51
1, 71237, Note_on_c, 0, 67, 0
1, 71338, Control_c, 0, 64, 92
1, 71375, Control_c, 0, 64, 84
1, 71377, Note_on_c, 0, 80, 76
1, 71394, Control_c, 0, 64, 79
1, 71404, Note_on_c, 0, 71, 51
1, 71413, Control_c, 0, 64, 74
1, 71421, Note_on_c, 0, 55, 39
1, 71430, Control_c, 0, 64, 69
1, 71450, Control_c, 0, 64, 64
1, 71463, Note_on_c, 0, 55, 0
1, 71466, Control_c, 0, 64, 61
1, 71485, Control_c, 0, 64, 59
1, 71505, Control_c, 0, 64, 57
1, 71522, Control_c, 0, 64, 54
1, 71542, Control_c, 0, 64, 51
1, 71556, Note_on_c, 0, 65, 40
1, 71561, Control_c, 0, 64, 49
1, 71578, Control_c, 0, 64, 46
1, 71598, Control_c, 0, 64, 43
1, 71616, Control_c, 0, 64, 39
1, 71636, Control_c, 0, 64, 34
1, 71653, Note_on_c, 0, 65, 0
1, 71680, Note_on_c, 0, 55, 40
1, 71736, Note_on_c, 0, 55, 0
1, 71743, Control_c, 0, 64, 39
1, 71763, Control_c, 0, 64, 47
1, 71780, Control_c, 0, 64, 53
1, 71798, Control_c, 0, 64, 56
1, 71800, Note_on_c, 0, 65, 51
1, 71834, Control_c, 0, 64, 59
1, 71853, Control_c, 0, 64, 60
1, 71871, Control_c, 0, 64, 61
1, 71876, Note_on_c, 0, 65, 0
1, 71890, Control_c, 0, 64, 63
1, 71910, Note_on_c, 0, 55, 45
1, 71910, Control_c, 0, 64, 64
1, 71928, Control_c, 0, 64, 65
1, 71966, Control_c, 0, 64, 66
1, 71971, Note_on_c, 0, 55, 0
1, 72020, Control_c, 0, 64, 67
1, 72033, Note_on_c, 0, 65, 55
1, 72075, Control_c, 0, 64, 69
1, 72102, Note_on_c, 0, 65, 0
1, 72106, Note_on_c, 0, 71, 0
1, 72132, Control_c, 0, 64, 72
1, 72142, Note_on_c, 0, 55, 52
1, 72208, Note_on_c, 0, 55, 0
1, 72214, Control_c, 0, 64, 74
1, 72267, Note_on_c, 0, 65, 48
1, 72371, Note_on_c, 0, 65, 0
1, 72381, Control_c, 0, 64, 71
1, 72385, Note_on_c, 0, 72, 61
1, 72389, Note_on_c, 0, 55, 47
1, 72398, Control_c, 0, 64, 64
1, 72418, Control_c, 0, 64, 51
1, 72437, Control_c, 0, 64, 39
1, 72451, Note_on_c, 0, 55, 0
1, 72494, Note_on_c, 0, 63, 46
1, 72530, Control_c, 0, 64, 42
1, 72549, Control_c, 0, 64, 47
1, 72557, Note_on_c, 0, 63, 0
1, 72568, Control_c, 0, 64, 52
1, 72584, Control_c, 0, 64, 55
1, 72603, Control_c, 0, 64, 59
1, 72607, Note_on_c, 0, 55, 47
1, 72622, Control_c, 0, 64, 61
1, 72642, Control_c, 0, 64, 63
1, 72659, Control_c, 0, 64, 64
1, 72677, Control_c, 0, 64, 66
1, 72677, Note_on_c, 0, 55, 0
1, 72697, Control_c, 0, 64, 67
1, 72709, Note_on_c, 0, 63, 48
1, 72728, Note_on_c, 0, 72, 0
1, 72733, Control_c, 0, 64, 69
1, 72769, Control_c, 0, 64, 72
1, 72789, Control_c, 0, 64, 74
1, 72805, Note_on_c, 0, 80, 0
1, 72810, Note_on_c, 0, 63, 0
1, 72852, Note_on_c, 0, 55, 48
1, 72853, Note_on_c, 0, 79, 79
1, 72882, Control_c, 0, 64, 76
1, 72938, Control_c, 0, 64, 78
1, 72942, Note_on_c, 0, 55, 0
1, 72974, Note_on_c, 0, 63, 53
1, 72975, Control_c, 0, 64, 81
1, 72993, Control_c, 0, 64, 83
1, 73011, Control_c, 0, 64, 86
1, 73038, Note_on_c, 0, 63, 0
1, 73048, Control_c, 0, 64, 93
1, 73087, Note_on_c, 0, 55, 58
1, 73105, Control_c, 0, 64, 98
1, 73153, Poly_aftertouch_c, 0, 72, 24
1, 73157, Note_on_c, 0, 55, 0
1, 73199, Note_on_c, 0, 63, 54
1, 73272, Poly_aftertouch_c, 0, 72, 0
1, 73305, Note_on_c, 0, 63, 0
1, 73314, Note_on_c, 0, 79, 0
1, 73332, Note_on_c, 0, 78, 86
1, 73354, Control_c, 0, 64, 93
1, 73356, Control_c, 0, 67, 121
1, 73364, Note_on_c, 0, 57, 54
1, 73373, Control_c, 0, 67, 113
1, 73374, Note_on_c, 0, 72, 51
1, 73390, Control_c, 0, 64, 82
1, 73392, Control_c, 0, 67, 104
1, 73410, Control_c, 0, 64, 70
1, 73413, Control_c, 0, 67, 94
1, 73429, Control_c, 0, 64, 52
1, 73430, Control_c, 0, 67, 85
1, 73433, Note_on_c, 0, 57, 0
1, 73448, Control_c, 0, 64, 32
1, 73449, Control_c, 0, 67, 75
1, 73457, Note_on_c, 0, 72, 0
1, 73461, Note_on_c, 0, 63, 55
1, 73467, Control_c, 0, 64, 0
1, 73468, Control_c, 0, 67, 65
1, 73485, Control_c, 0, 67, 54
1, 73503, Control_c, 0, 67, 45
1, 73520, Control_c, 0, 67, 39
1, 73525, Note_on_c, 0, 63, 0
1, 73538, Control_c, 0, 67, 35
1, 73572, Note_on_c, 0, 57, 52
1, 73576, Control_c, 0, 67, 29
1, 73594, Control_c, 0, 64, 19
1, 73614, Control_c, 0, 64, 34
1, 73615, Control_c, 0, 67, 22
1, 73632, Control_c, 0, 64, 48
1, 73648, Note_on_c, 0, 57, 0
1, 73651, Control_c, 0, 64, 55
1, 73669, Control_c, 0, 64, 58
1, 73681, Note_on_c, 0, 63, 55
1, 73687, Control_c, 0, 64, 60
1, 73705, Control_c, 0, 64, 61
1, 73724, Control_c, 0, 64, 63
1, 73725, Control_c, 0, 67, 18
1, 73742, Control_c, 0, 64, 65
1, 73746, Note_on_c, 0, 63, 0
1, 73762, Control_c, 0, 64, 66
1, 73798, Control_c, 0, 64, 67
1, 73799, Note_on_c, 0, 57, 58
1, 73836, Control_c, 0, 64, 71
1, 73855, Control_c, 0, 64, 73
1, 73863, Note_on_c, 0, 57, 0
1, 73872, Control_c, 0, 64, 77
1, 73874, Poly_aftertouch_c, 0, 72, 0
1, 73891, Control_c, 0, 64, 80
1, 73916, Note_on_c, 0, 63, 54
1, 73928, Control_c, 0, 64, 82
1, 73947, Note_on_c, 0, 78, 0
1, 73965, Control_c, 0, 64, 85
1, 73985, Control_c, 0, 64, 88
1, 73990, Note_on_c, 0, 63, 0
1, 74022, Control_c, 0, 64, 93
1, 74038, Note_on_c, 0, 57, 58
1, 74076, Poly_aftertouch_c, 0, 65, 0
1, 74084, Control_c, 0, 67, 14
1, 74117, Note_on_c, 0, 57, 0
1, 74142, Note_on_c, 0, 63, 61
1, 74160, Control_c, 0, 67, 10
1, 74291, Note_on_c, 0, 63, 0
1, 74322, Note_on_c, 0, 77, 85
1, 74327, Control_c, 0, 64, 88
1, 74332, Note_on_c, 0, 59, 56
1, 74344, Control_c, 0, 64, 83
1, 74361, Note_on_c, 0, 67, 52
1, 74363, Control_c, 0, 64, 76
1, 74383, Control_c, 0, 64, 68
1, 74400, Control_c, 0, 64, 59
1, 74413, Note_on_c, 0, 59, 0
1, 74419, Control_c, 0, 64, 50
1, 74439, Control_c, 0, 64, 40
1, 74457, Control_c, 0, 64, 30
1, 74457, Note_on_c, 0, 62, 53
1, 74474, Control_c, 0, 64, 20
1, 74541, Note_on_c, 0, 62, 0
1, 74563, Note_on_c, 0, 59, 61
1, 74566, Control_c, 0, 64, 25
1, 74587, Control_c, 0, 64, 38
1, 74604, Control_c, 0, 64, 50
1, 74625, Control_c, 0, 64, 56
1, 74626, Control_c, 0, 67, 0
1, 74641, Control_c, 0, 64, 59
1, 74659, Control_c, 0, 64, 61
1, 74660, Note_on_c, 0, 59, 0
1, 74679, Control_c, 0, 64, 63
1, 74689, Note_on_c, 0, 62, 57
1, 74697, Control_c, 0, 64, 65
1, 74715, Control_c, 0, 64, 67
1, 74730, Note_on_c, 0, 67, 0
1, 74734, Control_c, 0, 64, 69
1, 74772, Control_c, 0, 64, 71
1, 74775, Note_on_c, 0, 62, 0
1, 74808, Note_on_c, 0, 74, 72
1, 74810, Note_on_c, 0, 59, 59
1, 74826, Control_c, 0, 64, 74
1, 74844, Control_c, 0, 64, 77
1, 74864, Control_c, 0, 64, 81
1, 74864, Note_on_c, 0, 59, 0
1, 74892, Note_on_c, 0, 67, 51
1, 74899, Control_c, 0, 64, 83
1, 74938, Control_c, 0, 64, 86
1, 74957, Control_c, 0, 64, 88
1, 74972, Note_on_c, 0, 67, 0
1, 75012, Note_on_c, 0, 59, 60
1, 75021, Control_c, 0, 64, 93
1, 75068, Note_on_c, 0, 77, 0
1, 75086, Note_on_c, 0, 59, 0
1, 75095, Control_c, 0, 64, 97
1, 75123, Note_on_c, 0, 67, 63
1, 75230, Note_on_c, 0, 67, 0
1, 75261, Control_c, 0, 64, 91
1, 75262, Note_on_c, 0, 60, 64
1, 75262, Note_on_c, 0, 76, 84
1, 75279, Control_c, 0, 64, 85
1, 75299, Control_c, 0, 64, 74
1, 75318, Control_c, 0, 64, 61
1, 75324, Note_on_c, 0, 60, 0
1, 75336, Control_c, 0, 64, 46
1, 75355, Control_c, 0, 64, 40
1, 75378, Note_on_c, 0, 67, 56
1, 75428, Control_c, 0, 64, 46
1, 75446, Control_c, 0, 64, 53
1, 75461, Note_on_c, 0, 67, 0
1, 75465, Control_c, 0, 64, 59
1, 75476, Note_on_c, 0, 60, 56
1, 75482, Control_c, 0, 64, 63
1, 75502, Control_c, 0, 64, 65
1, 75522, Control_c, 0, 64, 67
1, 75539, Control_c, 0, 64, 69
1, 75555, Note_on_c, 0, 60, 0
1, 75558, Control_c, 0, 64, 72
1, 75576, Control_c, 0, 64, 76
1, 75595, Control_c, 0, 64, 79
1, 75598, Note_on_c, 0, 67, 58
1, 75613, Control_c, 0, 64, 83
1, 75651, Control_c, 0, 64, 85
1, 75662, Note_on_c, 0, 67, 0
1, 75702, Note_on_c, 0, 60, 65
1, 75715, Note_on_c, 0, 71, 65
1, 75744, Control_c, 0, 64, 83
1, 75752, Note_on_c, 0, 74, 0
1, 75761, Control_c, 0, 64, 77
1, 75780, Control_c, 0, 64, 68
1, 75799, Control_c, 0, 64, 57
1, 75815, Note_on_c, 0, 60, 0
1, 75817, Control_c, 0, 64, 49
1, 75829, Note_on_c, 0, 68, 59
1, 75892, Control_c, 0, 64, 53
1, 75911, Control_c, 0, 64, 57
1, 75924, Note_on_c, 0, 68, 0
1, 75929, Control_c, 0, 64, 61
1, 75949, Note_on_c, 0, 60, 60
1, 75955, Control_c, 0, 64, 64
1, 75976, Control_c, 0, 64, 67
1, 75992, Control_c, 0, 64, 69
1, 76011, Control_c, 0, 64, 71
1, 76030, Control_c, 0, 64, 74
1, 76043, Note_on_c, 0, 60, 0
1, 76049, Control_c, 0, 64, 77
1, 76066, Control_c, 0, 64, 79
1, 76067, Note_on_c, 0, 68, 64
1, 76158, Note_on_c, 0, 68, 0
1, 76173, Note_on_c, 0, 60, 70
1, 76179, Note_on_c, 0, 72, 76
1, 76180, Note_on_c, 0, 71, 0
1, 76197, Control_c, 0, 64, 72
1, 76215, Control_c, 0, 64, 63
1, 76234, Control_c, 0, 64, 48
1, 76253, Control_c, 0, 64, 34
1, 76268, Note_on_c, 0, 60, 0
1, 76270, Control_c, 0, 64, 27
1, 76296, Note_on_c, 0, 69, 63
1, 76327, Control_c, 0, 64, 31
1, 76344, Control_c, 0, 64, 42
1, 76364, Control_c, 0, 64, 54
1, 76382, Control_c, 0, 64, 61
1, 76396, Note_on_c, 0, 69, 0
1, 76400, Control_c, 0, 64, 63
1, 76402, Note_on_c, 0, 60, 69
1, 76421, Control_c, 0, 64, 64
1, 76438, Control_c, 0, 64, 66
1, 76456, Control_c, 0, 64, 69
1, 76475, Control_c, 0, 64, 73
1, 76491, Note_on_c, 0, 60, 0
1, 76493, Control_c, 0, 64, 77
1, 76511, Control_c, 0, 64, 81
1, 76523, Note_on_c, 0, 69, 68
1, 76531, Control_c, 0, 64, 83
1, 76570, Note_on_c, 0, 72, 0
1, 76574, Note_on_c, 0, 76, 0
1, 76605, Control_c, 0, 64, 85
1, 76627, Note_on_c, 0, 60, 78
1, 76630, Note_on_c, 0, 69, 0
1, 76680, Control_c, 0, 64, 90
1, 76704, Note_on_c, 0, 60, 0
1, 76738, Note_on_c, 0, 69, 64
1, 76753, Control_c, 0, 64, 94
1, 76830, Note_on_c, 0, 69, 0
1, 76831, Note_on_c, 0, 60, 77
1, 76915, Note_on_c, 0, 60, 0
1, 76945, Note_on_c, 0, 69, 65
1, 77041, Control_c, 0, 64, 89
1, 77044, Note_on_c, 0, 69, 0
1, 77059, Control_c, 0, 64, 85
1, 77076, Control_c, 0, 64, 81
1, 77081, Note_on_c, 0, 61, 66
1, 77083, Note_on_c, 0, 76, 83
1, 77095, Control_c, 0, 64, 77
1, 77104, Note_on_c, 0, 70, 67
1, 77114, Control_c, 0, 64, 73
1, 77133, Control_c, 0, 64, 68
1, 77150, Control_c, 0, 64, 63
1, 77163, Note_on_c, 0, 61, 0
1, 77169, Control_c, 0, 64, 60
1, 77196, Note_on_c, 0, 67, 56
1, 77223, Control_c, 0, 64, 57
1, 77243, Control_c, 0, 64, 53
1, 77261, Control_c, 0, 64, 49
1, 77279, Note_on_c, 0, 67, 0
1, 77280, Control_c, 0, 64, 47
1, 77303, Note_on_c, 0, 61, 65
1, 77336, Control_c, 0, 64, 45
1, 77354, Control_c, 0, 64, 42
1, 77373, Note_on_c, 0, 61, 0
1, 77390, Control_c, 0, 64, 35
1, 77421, Note_on_c, 0, 67, 61
1, 77446, Control_c, 0, 64, 31
1, 77496, Note_on_c, 0, 67, 0
1, 77496, Control_c, 0, 64, 25
1, 77516, Control_c, 0, 64, 21
1, 77531, Note_on_c, 0, 61, 64
1, 77553, Control_c, 0, 64, 15
1, 77590, Control_c, 0, 67, 8
1, 77596, Note_on_c, 0, 61, 0
1, 77608, Control_c, 0, 64, 0
1, 77640, Note_on_c, 0, 67, 58
1, 77682, Control_c, 0, 67, 12
1, 77712, Note_on_c, 0, 67, 0
1, 77738, Control_c, 0, 67, 16
1, 77742, Note_on_c, 0, 61, 66
1, 77816, Note_on_c, 0, 61, 0
1, 77820, Control_c, 0, 67, 20
1, 77861, Note_on_c, 0, 67, 59
1, 77932, Note_on_c, 0, 67, 0
1, 77972, Control_c, 0, 67, 24
1, 77976, Poly_aftertouch_c, 0, 76, 24
1, 77978, Note_on_c, 0, 74, 70
1, 77987, Note_on_c, 0, 76, 0
1, 77991, Note_on_c, 0, 62, 59
1, 78037, Note_on_c, 0, 62, 0
1, 78063, Control_c, 0, 67, 29
1, 78081, Note_on_c, 0, 67, 57
1, 78118, Control_c, 0, 67, 33
1, 78149, Note_on_c, 0, 67, 0
1, 78175, Control_c, 0, 67, 38
1, 78192, Note_on_c, 0, 62, 52
1, 78212, Control_c, 0, 67, 44
1, 78250, Control_c, 0, 67, 50
1, 78254, Note_on_c, 0, 62, 0
1, 78286, Control_c, 0, 67, 58
1, 78301, Note_on_c, 0, 67, 57
1, 78325, Control_c, 0, 67, 64
1, 78362, Control_c, 0, 67, 68
1, 78365, Note_on_c, 0, 67, 0
1, 78398, Control_c, 0, 67, 74
1, 78419, Note_on_c, 0, 62, 56
1, 78429, Note_on_c, 0, 69, 55
1, 78435, Control_c, 0, 67, 80
1, 78464, Note_on_c, 0, 70, 0
1, 78473, Control_c, 0, 67, 86
1, 78477, Note_on_c, 0, 62, 0
1, 78507, Control_c, 0, 67, 93
1, 78526, Control_c, 0, 67, 97
1, 78535, Note_on_c, 0, 67, 49
1, 78544, Control_c, 0, 67, 102
1, 78564, Control_c, 0, 67, 106
1, 78597, Note_on_c, 0, 67, 0
1, 78601, Control_c, 0, 67, 112
1, 78657, Control_c, 0, 67, 118
1, 78660, Note_on_c, 0, 62, 46
1, 78693, Control_c, 0, 67, 122
1, 78717, Note_on_c, 0, 62, 0
1, 78730, Control_c, 0, 67, 126
1, 78771, Note_on_c, 0, 67, 49
1, 78831, Note_on_c, 0, 67, 0
1, 78878, Note_on_c, 0, 69, 0
1, 78881, Note_on_c, 0, 62, 50
1, 78888, Note_on_c, 0, 71, 56
1, 78945, Note_on_c, 0, 62, 0
1, 79007, Note_on_c, 0, 66, 44
1, 79064, Note_on_c, 0, 66, 0
1, 79097, Note_on_c, 0, 62, 51
1, 79168, Note_on_c, 0, 62, 0
1, 79226, Note_on_c, 0, 66, 45
1, 79293, Note_on_c, 0, 66, 0
1, 79336, Note_on_c, 0, 62, 49
1, 79348, Note_on_c, 0, 71, 0
1, 79355, Note_on_c, 0, 72, 52
1, 79405, Note_on_c, 0, 62, 0
1, 79442, Control_c, 0, 67, 122
1, 79447, Note_on_c, 0, 66, 47
1, 79565, Note_on_c, 0, 66, 0
1, 79573, Control_c, 0, 67, 118
1, 79589, Note_on_c, 0, 62, 43
1, 79665, Control_c, 0, 67, 113
1, 79692, Note_on_c, 0, 62, 0
1, 79730, Note_on_c, 0, 66, 40
1, 79769, Control_c, 0, 67, 109
1, 79770, Note_on_c, 0, 72, 0
1, 79779, Note_on_c, 0, 74, 0
1, 79790, Note_on_c, 0, 66, 0
1, 79804, Note_on_c, 0, 71, 61
1, 79821, Note_on_c, 0, 67, 52
1, 79825, Control_c, 0, 67, 102
1, 79842, Note_on_c, 0, 71, 0
1, 79842, Control_c, 0, 67, 97
1, 79847, Note_on_c, 0, 67, 0
1, 79863, Control_c, 0, 67, 90
1, 79879, Control_c, 0, 67, 80
1, 79897, Control_c, 0, 67, 68
1, 79918, Control_c, 0, 67, 53
1, 79935, Control_c, 0, 67, 36
1, 79953, Control_c, 0, 67, 16
1, 79973, Control_c, 0, 67, 0
1, 80018, Note_on_c, 0, 74, 72
1, 80039, Note_on_c, 0, 79, 61
1, 80042, Note_on_c, 0, 62, 80
1, 80045, Note_on_c, 0, 83, 89
1, 80047, Note_on_c, 0, 55, 72
1, 80047, Note_on_c, 0, 59, 77
1, 80064, Control_c, 0, 64, 45
1, 80076, Note_on_c, 0, 74, 0
1, 80078, Note_on_c, 0, 62, 0
1, 80082, Control_c, 0, 64, 75
1, 80084, Note_on_c, 0, 59, 0
1, 80086, Note_on_c, 0, 55, 0
1, 80094, Note_on_c, 0, 79, 0
1, 80101, Control_c, 0, 64, 90
1, 80121, Control_c, 0, 64, 106
1, 80139, Control_c, 0, 64, 115
1, 80167, Poly_aftertouch_c, 0, 78, 0
1, 80196, Control_c, 0, 64, 98
1, 80214, Note_on_c, 0, 83, 0
1, 80214, Control_c, 0, 64, 68
1, 80221, Note_on_c, 0, 74, 74
1, 80232, Control_c, 0, 64, 0
1, 80244, Note_on_c, 0, 81, 78
1, 80266, Note_on_c, 0, 57, 59
1, 80271, Note_on_c, 0, 54, 79
1, 80273, Note_on_c, 0, 62, 79
1, 80274, Note_on_c, 0, 84, 87
1, 80292, Note_on_c, 0, 74, 0
1, 80311, Note_on_c, 0, 62, 0
1, 80316, Note_on_c, 0, 81, 0
1, 80326, Control_c, 0, 64, 50
1, 80331, Note_on_c, 0, 57, 0
1, 80345, Control_c, 0, 64, 71
1, 80349, Note_on_c, 0, 54, 0
1, 80349, Note_on_c, 0, 84, 0
1, 80363, Control_c, 0, 64, 83
1, 80383, Control_c, 0, 64, 94
1, 80404, Poly_aftertouch_c, 0, 79, 0
1, 80419, Control_c, 0, 64, 71
1, 80436, Control_c, 0, 64, 0
1, 80452, Note_on_c, 0, 74, 72
1, 80470, Note_on_c, 0, 79, 74
1, 80495, Note_on_c, 0, 62, 79
1, 80498, Note_on_c, 0, 83, 88
1, 80501, Note_on_c, 0, 59, 74
1, 80506, Note_on_c, 0, 55, 75
1, 80511, Control_c, 0, 64, 45
1, 80519, Note_on_c, 0, 74, 0
1, 80529, Poly_aftertouch_c, 0, 81, 127
1, 80529, Control_c, 0, 64, 68
1, 80531, Note_on_c, 0, 62, 0
1, 80533, Note_on_c, 0, 59, 0
1, 80534, Note_on_c, 0, 79, 0
1, 80540, Poly_aftertouch_c, 0, 81, 0
1, 80547, Control_c, 0, 64, 82
1, 80550, Note_on_c, 0, 55, 0
1, 80563, Note_on_c, 0, 83, 0
1, 80566, Control_c, 0, 64, 95
1, 80586, Control_c, 0, 64, 109
1, 80605, Control_c, 0, 64, 117
1, 80631, Control_c, 0, 64, 124
1, 80687, Control_c, 0, 64, 120
1, 80700, Poly_aftertouch_c, 0, 59, 0
1, 80707, Control_c, 0, 64, 79
1, 80715, Note_on_c, 0, 76, 59
1, 80725, Control_c, 0, 64, 0
1, 80743, Note_on_c, 0, 84, 77
1, 80759, Note_on_c, 0, 88, 92
1, 80763, Note_on_c, 0, 60, 87
1, 80765, Note_on_c, 0, 48, 78
1, 80781, Control_c, 0, 64, 20
1, 80788, Note_on_c, 0, 76, 0
1, 80799, Control_c, 0, 64, 60
1, 80802, Note_on_c, 0, 84, 0
1, 80804, Note_on_c, 0, 48, 0
1, 80812, Note_on_c, 0, 88, 0
1, 80817, Control_c, 0, 64, 82
1, 80828, Note_on_c, 0, 60, 0
1, 80834, Control_c, 0, 64, 109
1, 80854, Control_c, 0, 64, 127
1, 81038, Control_c, 0, 64, 107
1, 81039, Control_c, 0, 67, 8
1, 81058, Control_c, 0, 64, 66
1, 81060, Control_c, 0, 67, 15
1, 81077, Control_c, 0, 64, 0
1, 81078, Control_c, 0, 67, 23
1, 81096, Control_c, 0, 67, 34
1, 81113, Control_c, 0, 67, 52
1, 81133, Control_c, 0, 67, 79
1, 81152, Control_c, 0, 67, 111
1, 81169, Control_c, 0, 67, 127
1, 81308, Note_on_c, 0, 69, 45
1, 81320, Note_on_c, 0, 66, 41
1, 81490, Note_on_c, 0, 69, 0
1, 81510, Note_on_c, 0, 71, 59
1, 81551, Note_on_c, 0, 62, 45
1, 81581, Note_on_c, 0, 66, 0
1, 81592, Note_on_c, 0, 71, 0
1, 81614, Note_on_c, 0, 72, 48
1, 81772, Note_on_c, 0, 72, 0
1, 81775, Note_on_c, 0, 74, 58
1, 81812, Note_on_c, 0, 62, 0
1, 81835, Note_on_c, 0, 74, 0
1, 81837, Note_on_c, 0, 67, 66
1, 81848, Note_on_c, 0, 71, 73
1, 81870, Note_on_c, 0, 67, 0
1, 81900, Note_on_c, 0, 71, 0
1, 82065, Note_on_c, 0, 74, 74
1, 82065, Control_c, 0, 67, 100
1, 82069, Note_on_c, 0, 79, 63
1, 82072, Note_on_c, 0, 83, 87
1, 82074, Note_on_c, 0, 62, 79
1, 82081, Note_on_c, 0, 55, 76
1, 82084, Control_c, 0, 67, 58
1, 82086, Note_on_c, 0, 59, 69
1, 82101, Note_on_c, 0, 74, 0
1, 82105, Note_on_c, 0, 79, 0
1, 82107, Note_on_c, 0, 62, 0
1, 82121, Note_on_c, 0, 55, 0
1, 82122, Note_on_c, 0, 59, 0
1, 82123, Control_c, 0, 67, 0
1, 82141, Control_c, 0, 64, 35
1, 82159, Control_c, 0, 64, 44
1, 82196, Control_c, 0, 64, 39
1, 82217, Control_c, 0, 64, 19
1, 82221, Note_on_c, 0, 79, 18
1, 82234, Control_c, 0, 64, 0
1, 82243, Note_on_c, 0, 83, 0
1, 82256, Note_on_c, 0, 74, 71
1, 82272, Note_on_c, 0, 81, 80
1, 82277, Note_on_c, 0, 79, 0
1, 82299, Note_on_c, 0, 57, 63
1, 82304, Note_on_c, 0, 84, 87
1, 82309, Note_on_c, 0, 62, 81
1, 82310, Note_on_c, 0, 54, 77
1, 82325, Note_on_c, 0, 74, 0
1, 82339, Note_on_c, 0, 81, 0
1, 82348, Note_on_c, 0, 62, 0
1, 82369, Note_on_c, 0, 57, 0
1, 82371, Note_on_c, 0, 54, 0
1, 82379, Note_on_c, 0, 84, 0
1, 82475, Note_on_c, 0, 74, 57
1, 82520, Note_on_c, 0, 79, 71
1, 82551, Note_on_c, 0, 62, 81
1, 82554, Note_on_c, 0, 83, 89
1, 82554, Note_on_c, 0, 59, 75
1, 82562, Note_on_c, 0, 74, 0
1, 82563, Note_on_c, 0, 55, 74
1, 82587, Note_on_c, 0, 59, 0
1, 82587, Note_on_c, 0, 62, 0
1, 82588, Note_on_c, 0, 79, 0
1, 82602, Note_on_c, 0, 55, 0
1, 82623, Note_on_c, 0, 83, 0
1, 82627, Poly_aftertouch_c, 0, 81, 0
1, 82714, Note_on_c, 0, 76, 65
1, 82778, Note_on_c, 0, 84, 62
1, 82778, Note_on_c, 0, 76, 0
1, 82801, Note_on_c, 0, 88, 91
1, 82803, Control_c, 0, 64, 19
1, 82813, Note_on_c, 0, 48, 76
1, 82814, Note_on_c, 0, 60, 86
1, 82821, Control_c, 0, 64, 45
1, 82838, Control_c, 0, 64, 65
1, 82838, Note_on_c, 0, 48, 0
1, 82844, Note_on_c, 0, 84, 0
1, 82848, Note_on_c, 0, 88, 0
1, 82857, Control_c, 0, 64, 77
1, 82867, Note_on_c, 0, 60, 0
1, 82876, Control_c, 0, 64, 87
1, 82894, Control_c, 0, 64, 99
1, 82914, Control_c, 0, 64, 112
1, 82932, Control_c, 0, 64, 127
1, 82998, Poly_aftertouch_c, 0, 48, 0
1, 83117, Control_c, 0, 64, 108
1, 83137, Control_c, 0, 64, 77
1, 83139, Control_c, 0, 67, 11
1, 83155, Control_c, 0, 64, 43
1, 83156, Control_c, 0, 67, 17
1, 83173, Control_c, 0, 64, 0
1, 83175, Control_c, 0, 67, 22
1, 83190, Control_c, 0, 67, 26
1, 83208, Control_c, 0, 67, 30
1, 83228, Control_c, 0, 67, 34
1, 83245, Control_c, 0, 67, 39
1, 83293, Note_on_c, 0, 66, 64
1, 83345, Note_on_c, 0, 66, 0
1, 83364, Note_on_c, 0, 69, 65
1, 83417, Note_on_c, 0, 69, 0
1, 83457, Note_on_c, 0, 72, 62
1, 83519, Note_on_c, 0, 57, 48
1, 83524, Note_on_c, 0, 72, 0
1, 83526, Note_on_c, 0, 50, 53
1, 83527, Note_on_c, 0, 76, 63
1, 83577, Note_on_c, 0, 57, 0
1, 83625, Note_on_c, 0, 74, 65
1, 83625, Control_c, 0, 67, 34
1, 83633, Note_on_c, 0, 76, 0
1, 83724, Note_on_c, 0, 72, 57
1, 83739, Control_c, 0, 67, 30
1, 83748, Note_on_c, 0, 74, 0
1, 83753, Note_on_c, 0, 55, 65
1, 83763, Note_on_c, 0, 50, 0
1, 83774, Note_on_c, 0, 72, 0
1, 83775, Note_on_c, 0, 71, 75
1, 83788, Note_on_c, 0, 55, 0
1, 83815, Note_on_c, 0, 71, 0
1, 83851, Control_c, 0, 67, 25
1, 83999, Control_c, 0, 67, 20
1, 84031, Note_on_c, 0, 74, 82
1, 84046, Note_on_c, 0, 55, 69
1, 84091, Control_c, 0, 67, 14
1, 84095, Note_on_c, 0, 55, 0
1, 84101, Note_on_c, 0, 74, 0
1, 84110, Control_c, 0, 67, 10
1, 84115, Note_on_c, 0, 59, 48
1, 84116, Note_on_c, 0, 79, 71
1, 84122, Note_on_c, 0, 62, 61
1, 84182, Note_on_c, 0, 83, 70
1, 84222, Note_on_c, 0, 79, 0
1, 84245, Note_on_c, 0, 62, 0
1, 84247, Note_on_c, 0, 54, 73
1, 84266, Note_on_c, 0, 74, 81
1, 84269, Note_on_c, 0, 59, 0
1, 84313, Note_on_c, 0, 83, 0
1, 84338, Note_on_c, 0, 81, 72
1, 84349, Note_on_c, 0, 74, 0
1, 84350, Control_c, 0, 67, 0
1, 84353, Note_on_c, 0, 54, 0
1, 84363, Poly_aftertouch_c, 0, 57, 127
1, 84389, Note_on_c, 0, 62, 52
1, 84411, Poly_aftertouch_c, 0, 57, 0
1, 84432, Note_on_c, 0, 84, 75
1, 84441, Note_on_c, 0, 81, 0
1, 84459, Note_on_c, 0, 62, 0
1, 84477, Note_on_c, 0, 55, 74
1, 84499, Note_on_c, 0, 74, 82
1, 84522, Note_on_c, 0, 84, 0
1, 84539, Note_on_c, 0, 59, 57
1, 84566, Note_on_c, 0, 55, 0
1, 84572, Note_on_c, 0, 79, 77
1, 84572, Note_on_c, 0, 74, 0
1, 84592, Note_on_c, 0, 59, 0
1, 84611, Note_on_c, 0, 62, 70
1, 84653, Note_on_c, 0, 79, 0
1, 84655, Note_on_c, 0, 83, 68
1, 84716, Note_on_c, 0, 83, 0
1, 84717, Note_on_c, 0, 62, 0
1, 84730, Note_on_c, 0, 76, 83
1, 84730, Control_c, 0, 64, 29
1, 84734, Note_on_c, 0, 48, 89
1, 84750, Control_c, 0, 64, 61
1, 84771, Control_c, 0, 64, 77
1, 84772, Control_c, 0, 67, 11
1, 84785, Note_on_c, 0, 76, 0
1, 84788, Control_c, 0, 64, 92
1, 84789, Note_on_c, 0, 48, 0
1, 84789, Control_c, 0, 67, 15
1, 84806, Control_c, 0, 64, 106
1, 84807, Control_c, 0, 67, 20
1, 84820, Note_on_c, 0, 88, 73
1, 84824, Control_c, 0, 64, 110
1, 84826, Control_c, 0, 67, 27
1, 84844, Control_c, 0, 67, 35
1, 84863, Control_c, 0, 67, 49
1, 84879, Control_c, 0, 64, 90
1, 84880, Control_c, 0, 67, 70
1, 84897, Note_on_c, 0, 88, 0
1, 84897, Control_c, 0, 64, 62
1, 84900, Control_c, 0, 67, 91
1, 84909, Note_on_c, 0, 86, 66
1, 84915, Control_c, 0, 64, 0
1, 84917, Control_c, 0, 67, 107
1, 84935, Control_c, 0, 67, 117
1, 84954, Control_c, 0, 67, 126
1, 85000, Note_on_c, 0, 84, 60
1, 85021, Note_on_c, 0, 86, 0
1, 85067, Note_on_c, 0, 84, 0
1, 85084, Note_on_c, 0, 83, 52
1, 85136, Note_on_c, 0, 83, 0
1, 85165, Note_on_c, 0, 81, 55
1, 85220, Note_on_c, 0, 81, 0
1, 85243, Note_on_c, 0, 64, 53
1, 85247, Note_on_c, 0, 80, 66
1, 85254, Note_on_c, 0, 60, 39
1, 85274, Note_on_c, 0, 64, 0
1, 85290, Note_on_c, 0, 60, 0
1, 85299, Note_on_c, 0, 80, 0
1, 85353, Note_on_c, 0, 81, 57
1, 85397, Note_on_c, 0, 81, 0
1, 85439, Note_on_c, 0, 88, 61
1, 85501, Note_on_c, 0, 88, 0
1, 85518, Note_on_c, 0, 86, 62
1, 85614, Note_on_c, 0, 84, 56
1, 85614, Note_on_c, 0, 86, 0
1, 85664, Note_on_c, 0, 84, 0
1, 85689, Note_on_c, 0, 83, 59
1, 85748, Note_on_c, 0, 83, 0
1, 85765, Note_on_c, 0, 64, 58
1, 85772, Note_on_c, 0, 60, 49
1, 85779, Note_on_c, 0, 81, 68
1, 85804, Note_on_c, 0, 64, 0
1, 85808, Note_on_c, 0, 60, 0
1, 85834, Note_on_c, 0, 81, 0
1, 85858, Note_on_c, 0, 80, 66
1, 85903, Note_on_c, 0, 80, 0
1, 85949, Note_on_c, 0, 88, 61
1, 86010, Note_on_c, 0, 88, 0
1, 86022, Note_on_c, 0, 86, 69
1, 86122, Note_on_c, 0, 84, 62
1, 86132, Note_on_c, 0, 86, 0
1, 86168, Note_on_c, 0, 84, 0
1, 86183, Note_on_c, 0, 83, 71
1, 86264, Note_on_c, 0, 83, 0
1, 86285, Note_on_c, 0, 64, 74
1, 86287, Note_on_c, 0, 60, 68
1, 86288, Note_on_c, 0, 81, 81
1, 86332, Note_on_c, 0, 60, 0
1, 86333, Note_on_c, 0, 64, 0
1, 86364, Note_on_c, 0, 81, 0
1, 86372, Note_on_c, 0, 80, 74
1, 86440, Note_on_c, 0, 80, 0
1, 86459, Note_on_c, 0, 88, 74
1, 86532, Note_on_c, 0, 88, 0
1, 86536, Note_on_c, 0, 86, 72
1, 86615, Note_on_c, 0, 84, 71
1, 86632, Note_on_c, 0, 86, 0
1, 86680, Note_on_c, 0, 84, 0
1, 86699, Note_on_c, 0, 83, 70
1, 86753, Control_c, 0, 67, 122
1, 86755, Note_on_c, 0, 83, 0
1, 86784, Note_on_c, 0, 81, 83
1, 86791, Control_c, 0, 67, 117
1, 86794, Note_on_c, 0, 64, 80
1, 86803, Note_on_c, 0, 60, 72
1, 86810, Control_c, 0, 67, 113
1, 86828, Control_c, 0, 67, 109
1, 86845, Note_on_c, 0, 60, 0
1, 86863, Note_on_c, 0, 64, 0
1, 86867, Control_c, 0, 67, 103
1, 86877, Note_on_c, 0, 80, 79
1, 86891, Note_on_c, 0, 81, 0
1, 86903, Control_c, 0, 67, 97
1, 86923, Control_c, 0, 67, 92
1, 86940, Control_c, 0, 67, 86
1, 86945, Note_on_c, 0, 80, 0
1, 86957, Control_c, 0, 67, 78
1, 86961, Note_on_c, 0, 88, 79
1, 86976, Control_c, 0, 67, 70
1, 86996, Control_c, 0, 67, 61
1, 87015, Control_c, 0, 67, 51
1, 87032, Control_c, 0, 67, 40
1, 87039, Note_on_c, 0, 86, 78
1, 87039, Note_on_c, 0, 88, 0
1, 87053, Control_c, 0, 67, 29
1, 87070, Control_c, 0, 67, 18
1, 87088, Control_c, 0, 67, 8
1, 87120, Note_on_c, 0, 84, 75
1, 87146, Note_on_c, 0, 86, 0
1, 87163, Control_c, 0, 67, 0
1, 87199, Note_on_c, 0, 84, 0
1, 87203, Note_on_c, 0, 83, 72
1, 87278, Note_on_c, 0, 83, 0
1, 87285, Note_on_c, 0, 81, 87
1, 87294, Note_on_c, 0, 64, 86
1, 87301, Note_on_c, 0, 60, 77
1, 87344, Note_on_c, 0, 81, 0
1, 87351, Note_on_c, 0, 64, 0
1, 87366, Note_on_c, 0, 88, 80
1, 87369, Note_on_c, 0, 60, 0
1, 87446, Note_on_c, 0, 86, 78
1, 87466, Note_on_c, 0, 88, 0
1, 87534, Note_on_c, 0, 84, 71
1, 87562, Note_on_c, 0, 86, 0
1, 87592, Note_on_c, 0, 83, 76
1, 87607, Note_on_c, 0, 84, 0
1, 87665, Note_on_c, 0, 83, 0
1, 87683, Note_on_c, 0, 81, 79
1, 87728, Note_on_c, 0, 81, 0
1, 87758, Note_on_c, 0, 59, 87
1, 87762, Note_on_c, 0, 55, 76
1, 87766, Note_on_c, 0, 83, 93
1, 87766, Note_on_c, 0, 50, 72
1, 87805, Control_c, 0, 64, 9
1, 87822, Control_c, 0, 64, 23
1, 87850, Note_on_c, 0, 83, 0
1, 87853, Note_on_c, 0, 86, 78
1, 87860, Control_c, 0, 64, 36
1, 87877, Control_c, 0, 64, 48
1, 87896, Control_c, 0, 64, 53
1, 87933, Note_on_c, 0, 84, 78
1, 87962, Note_on_c, 0, 86, 0
1, 87969, Control_c, 0, 64, 56
1, 88007, Control_c, 0, 64, 58
1, 88012, Note_on_c, 0, 83, 72
1, 88045, Control_c, 0, 64, 60
1, 88050, Note_on_c, 0, 84, 0
1, 88080, Control_c, 0, 64, 62
1, 88082, Note_on_c, 0, 81, 75
1, 88090, Note_on_c, 0, 83, 0
1, 88098, Control_c, 0, 64, 63
1, 88146, Control_c, 0, 64, 64
1, 88159, Note_on_c, 0, 81, 0
1, 88164, Control_c, 0, 64, 65
1, 88170, Note_on_c, 0, 79, 75
1, 88183, Control_c, 0, 64, 66
1, 88210, Note_on_c, 0, 79, 0
1, 88243, Note_on_c, 0, 78, 77
1, 88267, Note_on_c, 0, 50, 0
1, 88277, Note_on_c, 0, 59, 0
1, 88283, Note_on_c, 0, 55, 0
1, 88304, Note_on_c, 0, 76, 69
1, 88317, Note_on_c, 0, 78, 0
1, 88331, Control_c, 0, 64, 65
1, 88344, Note_on_c, 0, 76, 0
1, 88349, Control_c, 0, 64, 63
1, 88370, Control_c, 0, 64, 62
1, 88377, Note_on_c, 0, 74, 80
1, 88433, Note_on_c, 0, 74, 0
1, 88459, Control_c, 0, 64, 61
1, 88459, Note_on_c, 0, 86, 80
1, 88497, Control_c, 0, 64, 58
1, 88535, Control_c, 0, 64, 54
1, 88542, Note_on_c, 0, 83, 80
1, 88554, Control_c, 0, 64, 50
1, 88564, Note_on_c, 0, 86, 0
1, 88571, Control_c, 0, 64, 37
1, 88590, Control_c, 0, 64, 0
1, 88603, Note_on_c, 0, 83, 0
1, 88616, Note_on_c, 0, 79, 80
1, 88667, Note_on_c, 0, 79, 0
1, 88673, Note_on_c, 0, 50, 85
1, 88687, Note_on_c, 0, 83, 91
1, 88720, Control_c, 0, 64, 38
1, 88739, Control_c, 0, 64, 58
1, 88750, Note_on_c, 0, 83, 0
1, 88754, Note_on_c, 0, 54, 70
1, 88757, Control_c, 0, 64, 61
1, 88769, Note_on_c, 0, 81, 79
1, 88775, Control_c, 0, 64, 63
1, 88788, Note_on_c, 0, 50, 0
1, 88794, Control_c, 0, 64, 65
1, 88812, Control_c, 0, 64, 66
1, 88820, Note_on_c, 0, 81, 0
1, 88831, Note_on_c, 0, 57, 64
1, 88831, Control_c, 0, 64, 68
1, 88836, Note_on_c, 0, 83, 76
1, 88847, Note_on_c, 0, 54, 0
1, 88867, Note_on_c, 0, 57, 0
1, 88867, Control_c, 0, 64, 71
1, 88880, Note_on_c, 0, 62, 76
1, 88893, Note_on_c, 0, 83, 0
1, 88901, Note_on_c, 0, 81, 78
1, 88925, Note_on_c, 0, 62, 0
1, 88938, Note_on_c, 0, 81, 0
1, 88943, Control_c, 0, 64, 73
1, 88960, Note_on_c, 0, 83, 73
1, 88984, Note_on_c, 0, 66, 77
1, 88997, Control_c, 0, 64, 75
1, 89011, Note_on_c, 0, 81, 83
1, 89015, Note_on_c, 0, 83, 0
1, 89016, Control_c, 0, 64, 77
1, 89034, Control_c, 0, 64, 79
1, 89064, Control_c, 0, 64, 81
1, 89073, Note_on_c, 0, 81, 0
1, 89083, Note_on_c, 0, 69, 70
1, 89085, Note_on_c, 0, 83, 77
1, 89094, Note_on_c, 0, 66, 0
1, 89099, Control_c, 0, 64, 83
1, 89128, Note_on_c, 0, 69, 0
1, 89138, Note_on_c, 0, 83, 0
1, 89143, Note_on_c, 0, 81, 81
1, 89174, Control_c, 0, 64, 85
1, 89177, Note_on_c, 0, 81, 0
1, 89178, Note_on_c, 0, 72, 93
1, 89198, Note_on_c, 0, 83, 79
1, 89222, Note_on_c, 0, 72, 0
1, 89249, Note_on_c, 0, 83, 0
1, 89256, Note_on_c, 0, 81, 84
1, 89304, Note_on_c, 0, 81, 0
1, 89320, Note_on_c, 0, 83, 77
1, 89371, Note_on_c, 0, 83, 0
1, 89391, Note_on_c, 0, 81, 69
1, 89434, Note_on_c, 0, 81, 0
1, 89504, Poly_aftertouch_c, 0, 81, 127
1, 89514, Poly_aftertouch_c, 0, 81, 0
1, 89519, Note_on_c, 0, 79, 71
1, 89554, Note_on_c, 0, 79, 0
1, 89562, Control_c, 0, 64, 81
1, 89580, Control_c, 0, 64, 69
1, 89582, Note_on_c, 0, 81, 62
1, 89600, Control_c, 0, 64, 48
1, 89618, Control_c, 0, 64, 0
1, 89619, Note_on_c, 0, 81, 0
1, 89633, Note_on_c, 0, 79, 89
1, 89652, Note_on_c, 0, 59, 74
1, 89662, Note_on_c, 0, 55, 61
1, 89679, Note_on_c, 0, 79, 0
1, 89697, Note_on_c, 0, 59, 0
1, 89701, Note_on_c, 0, 55, 0
1, 89779, Note_on_c, 0, 62, 48
1, 89864, Note_on_c, 0, 62, 0
1, 89875, Note_on_c, 0, 83, 83
1, 89896, Note_on_c, 0, 59, 50
1, 89906, Note_on_c, 0, 55, 33
1, 89931, Note_on_c, 0, 83, 0
1, 89939, Note_on_c, 0, 59, 0
1, 89943, Note_on_c, 0, 55, 0
1, 89998, Note_on_c, 0, 62, 61
1, 90067, Note_on_c, 0, 62, 0
1, 90119, Note_on_c, 0, 55, 57
1, 90122, Note_on_c, 0, 59, 60
1, 90160, Note_on_c, 0, 59, 0
1, 90172, Note_on_c, 0, 55, 0
1, 90234, Note_on_c, 0, 62, 50
1, 90341, Note_on_c, 0, 62, 0
1, 90361, Note_on_c, 0, 79, 75
1, 90375, Note_on_c, 0, 55, 46
1, 90376, Note_on_c, 0, 59, 47
1, 90392, Note_on_c, 0, 79, 0
1, 90403, Note_on_c, 0, 81, 21
1, 90404, Note_on_c, 0, 81, 0
1, 90405, Note_on_c, 0, 59, 0
1, 90423, Note_on_c, 0, 55, 0
1, 90471, Note_on_c, 0, 62, 55
1, 90578, Note_on_c, 0, 62, 0
1, 90591, Note_on_c, 0, 59, 60
1, 90599, Note_on_c, 0, 55, 59
1, 90636, Note_on_c, 0, 59, 0
1, 90650, Note_on_c, 0, 55, 0
1, 90704, Note_on_c, 0, 62, 59
1, 90831, Note_on_c, 0, 76, 69
1, 90834, Note_on_c, 0, 62, 0
1, 90842, Note_on_c, 0, 55, 51
1, 90846, Note_on_c, 0, 59, 43
1, 90846, Note_on_c, 0, 74, 77
1, 90867, Note_on_c, 0, 76, 0
1, 90874, Note_on_c, 0, 59, 0
1, 90876, Note_on_c, 0, 74, 0
1, 90890, Note_on_c, 0, 55, 0
1, 90942, Note_on_c, 0, 62, 42
1, 91044, Note_on_c, 0, 62, 0
1, 91049, Note_on_c, 0, 72, 66
1, 91060, Note_on_c, 0, 59, 43
1, 91060, Note_on_c, 0, 71, 81
1, 91065, Note_on_c, 0, 55, 53
1, 91092, Note_on_c, 0, 72, 0
1, 91096, Note_on_c, 0, 59, 0
1, 91102, Note_on_c, 0, 71, 0
1, 91113, Note_on_c, 0, 55, 0
1, 91166, Note_on_c, 0, 62, 50
1, 91230, Note_on_c, 0, 62, 0
1, 91270, Note_on_c, 0, 69, 66
1, 91275, Note_on_c, 0, 59, 53
1, 91278, Note_on_c, 0, 67, 82
1, 91287, Note_on_c, 0, 55, 51
1, 91307, Note_on_c, 0, 69, 0
1, 91309, Note_on_c, 0, 67, 0
1, 91319, Note_on_c, 0, 59, 0
1, 91330, Note_on_c, 0, 55, 0
1, 91392, Note_on_c, 0, 62, 25
1, 91530, Note_on_c, 0, 66, 84
1, 91534, Note_on_c, 0, 62, 0
1, 91548, Note_on_c, 0, 55, 47
1, 91557, Note_on_c, 0, 60, 36
1, 91598, Note_on_c, 0, 60, 0
1, 91604, Note_on_c, 0, 55, 0
1, 91638, Control_c, 0, 64, 26
1, 91653, Note_on_c, 0, 62, 55
1, 91656, Control_c, 0, 64, 41
1, 91676, Control_c, 0, 64, 50
1, 91694, Control_c, 0, 64, 56
1, 91713, Control_c, 0, 64, 60
1, 91732, Control_c, 0, 64, 62
1, 91751, Control_c, 0, 64, 63
1, 91759, Note_on_c, 0, 62, 0
1, 91769, Control_c, 0, 64, 64
1, 91784, Note_on_c, 0, 60, 36
1, 91785, Control_c, 0, 64, 65
1, 91790, Note_on_c, 0, 55, 44
1, 91805, Control_c, 0, 64, 66
1, 91865, Note_on_c, 0, 55, 0
1, 91881, Note_on_c, 0, 60, 0
1, 91924, Note_on_c, 0, 62, 45
1, 92018, Control_c, 0, 64, 65
1, 92027, Note_on_c, 0, 62, 0
1, 92043, Note_on_c, 0, 60, 54
1, 92054, Note_on_c, 0, 55, 51
1, 92054, Control_c, 0, 64, 63
1, 92073, Control_c, 0, 64, 60
1, 92093, Control_c, 0, 64, 54
1, 92095, Note_on_c, 0, 60, 0
1, 92108, Note_on_c, 0, 55, 0
1, 92110, Control_c, 0, 64, 50
1, 92130, Control_c, 0, 64, 48
1, 92131, Note_on_c, 0, 66, 0
1, 92153, Note_on_c, 0, 67, 71
1, 92166, Control_c, 0, 64, 46
1, 92172, Note_on_c, 0, 62, 45
1, 92185, Control_c, 0, 64, 41
1, 92202, Note_on_c, 0, 67, 0
1, 92202, Control_c, 0, 64, 29
1, 92220, Note_on_c, 0, 62, 0
1, 92221, Control_c, 0, 64, 16
1, 92242, Control_c, 0, 64, 12
1, 92269, Note_on_c, 0, 60, 55
1, 92269, Note_on_c, 0, 69, 67
1, 92283, Note_on_c, 0, 55, 46
1, 92297, Control_c, 0, 64, 0
1, 92319, Note_on_c, 0, 60, 0
1, 92322, Note_on_c, 0, 69, 0
1, 92335, Note_on_c, 0, 55, 0
1, 92370, Note_on_c, 0, 71, 73
1, 92381, Note_on_c, 0, 62, 43
1, 92431, Note_on_c, 0, 71, 0
1, 92451, Note_on_c, 0, 62, 0
1, 92485, Note_on_c, 0, 60, 57
1, 92485, Note_on_c, 0, 72, 81
1, 92500, Note_on_c, 0, 55, 47
1, 92534, Note_on_c, 0, 60, 0
1, 92544, Note_on_c, 0, 72, 0
1, 92553, Note_on_c, 0, 55, 0
1, 92589, Note_on_c, 0, 74, 76
1, 92607, Note_on_c, 0, 62, 42
1, 92656, Note_on_c, 0, 74, 0
1, 92659, Note_on_c, 0, 62, 0
1, 92694, Note_on_c, 0, 76, 75
1, 92704, Note_on_c, 0, 60, 59
1, 92715, Note_on_c, 0, 55, 44
1, 92749, Note_on_c, 0, 60, 0
1, 92769, Note_on_c, 0, 55, 0
1, 92775, Note_on_c, 0, 76, 0
1, 92807, Control_c, 0, 67, 8
1, 92821, Note_on_c, 0, 78, 77
1, 92823, Note_on_c, 0, 62, 37
1, 92862, Note_on_c, 0, 62, 0
1, 92888, Note_on_c, 0, 78, 0
1, 92926, Note_on_c, 0, 79, 81
1, 92941, Note_on_c, 0, 60, 55
1, 92961, Note_on_c, 0, 55, 37
1, 92982, Note_on_c, 0, 60, 0
1, 92985, Note_on_c, 0, 79, 0
1, 92997, Note_on_c, 0, 55, 0
1, 93026, Note_on_c, 0, 62, 26
1, 93029, Note_on_c, 0, 81, 76
1, 93078, Note_on_c, 0, 62, 0
1, 93100, Note_on_c, 0, 81, 0
1, 93128, Note_on_c, 0, 60, 55
1, 93129, Note_on_c, 0, 83, 79
1, 93151, Note_on_c, 0, 55, 50
1, 93171, Note_on_c, 0, 60, 0
1, 93184, Note_on_c, 0, 55, 0
1, 93217, Note_on_c, 0, 83, 0
1, 93226, Note_on_c, 0, 84, 76
1, 93297, Note_on_c, 0, 84, 0
1, 93342, Note_on_c, 0, 86, 90
1, 93344, Note_on_c, 0, 59, 74
1, 93359, Note_on_c, 0, 55, 47
1, 93385, Note_on_c, 0, 59, 0
1, 93398, Note_on_c, 0, 86, 0
1, 93399, Note_on_c, 0, 55, 0
1, 93475, Note_on_c, 0, 62, 30
1, 93576, Note_on_c, 0, 59, 62
1, 93579, Note_on_c, 0, 83, 86
1, 93583, Note_on_c, 0, 62, 0
1, 93604, Note_on_c, 0, 55, 27
1, 93619, Note_on_c, 0, 59, 0
1, 93622, Note_on_c, 0, 83, 0
1, 93629, Note_on_c, 0, 55, 0
1, 93687, Note_on_c, 0, 62, 47
1, 93794, Note_on_c, 0, 62, 0
1, 93813, Note_on_c, 0, 59, 53
1, 93818, Note_on_c, 0, 55, 62
1, 93856, Note_on_c, 0, 59, 0
1, 93870, Note_on_c, 0, 55, 0
1, 93924, Note_on_c, 0, 62, 51
1, 94001, Note_on_c, 0, 62, 0
1, 94063, Note_on_c, 0, 79, 83
1, 94069, Note_on_c, 0, 59, 51
1, 94073, Note_on_c, 0, 55, 53
1, 94107, Note_on_c, 0, 79, 0
1, 94113, Note_on_c, 0, 59, 0
1, 94129, Note_on_c, 0, 55, 0
1, 94171, Note_on_c, 0, 62, 52
1, 94278, Note_on_c, 0, 62, 0
1, 94291, Note_on_c, 0, 59, 57
1, 94299, Note_on_c, 0, 55, 59
1, 94335, Note_on_c, 0, 59, 0
1, 94351, Note_on_c, 0, 55, 0
1, 94400, Note_on_c, 0, 62, 40
1, 94472, Note_on_c, 0, 62, 0
1, 94517, Note_on_c, 0, 59, 47
1, 94520, Note_on_c, 0, 76, 65
1, 94522, Note_on_c, 0, 55, 43
1, 94529, Note_on_c, 0, 74, 76
1, 94561, Note_on_c, 0, 76, 0
1, 94563, Note_on_c, 0, 59, 0
1, 94563, Note_on_c, 0, 74, 0
1, 94578, Note_on_c, 0, 55, 0
1, 94614, Control_c, 0, 67, 12
1, 94623, Note_on_c, 0, 62, 17
1, 94732, Note_on_c, 0, 62, 0
1, 94743, Note_on_c, 0, 72, 73
1, 94754, Note_on_c, 0, 59, 50
1, 94760, Note_on_c, 0, 71, 79
1, 94763, Note_on_c, 0, 55, 50
1, 94795, Note_on_c, 0, 72, 0
1, 94797, Note_on_c, 0, 59, 0
1, 94800, Note_on_c, 0, 71, 0
1, 94814, Note_on_c, 0, 55, 0
1, 94863, Note_on_c, 0, 62, 32
1, 94923, Note_on_c, 0, 62, 0
1, 94969, Note_on_c, 0, 69, 67
1, 94981, Note_on_c, 0, 59, 49
1, 94981, Note_on_c, 0, 67, 79
1, 94984, Note_on_c, 0, 55, 44
1, 95007, Note_on_c, 0, 69, 0
1, 95020, Note_on_c, 0, 67, 0
1, 95022, Note_on_c, 0, 59, 0
1, 95035, Note_on_c, 0, 55, 0
1, 95079, Note_on_c, 0, 62, 41
1, 95216, Note_on_c, 0, 62, 0
1, 95219, Note_on_c, 0, 60, 60
1, 95220, Note_on_c, 0, 66, 77
1, 95231, Note_on_c, 0, 55, 49
1, 95273, Note_on_c, 0, 60, 0
1, 95294, Note_on_c, 0, 55, 0
1, 95342, Note_on_c, 0, 62, 52
1, 95403, Control_c, 0, 64, 12
1, 95420, Control_c, 0, 64, 22
1, 95433, Note_on_c, 0, 62, 0
1, 95438, Control_c, 0, 64, 28
1, 95460, Control_c, 0, 64, 34
1, 95468, Note_on_c, 0, 60, 50
1, 95475, Note_on_c, 0, 55, 47
1, 95475, Control_c, 0, 64, 40
1, 95493, Control_c, 0, 64, 43
1, 95508, Note_on_c, 0, 60, 0
1, 95512, Control_c, 0, 64, 45
1, 95525, Note_on_c, 0, 55, 0
1, 95551, Control_c, 0, 64, 48
1, 95585, Note_on_c, 0, 62, 46
1, 95615, Control_c, 0, 64, 50
1, 95669, Control_c, 0, 64, 52
1, 95698, Note_on_c, 0, 62, 0
1, 95705, Control_c, 0, 64, 55
1, 95712, Note_on_c, 0, 60, 51
1, 95723, Note_on_c, 0, 55, 51
1, 95725, Note_on_c, 0, 66, 0
1, 95755, Note_on_c, 0, 60, 0
1, 95771, Note_on_c, 0, 55, 0
1, 95838, Control_c, 0, 64, 52
1, 95846, Note_on_c, 0, 62, 25
1, 95846, Note_on_c, 0, 83, 76
1, 95857, Control_c, 0, 64, 45
1, 95869, Poly_aftertouch_c, 0, 80, 0
1, 95874, Control_c, 0, 64, 26
1, 95894, Control_c, 0, 64, 0
1, 95948, Note_on_c, 0, 55, 37
1, 95954, Note_on_c, 0, 81, 79
1, 95962, Note_on_c, 0, 60, 41
1, 95962, Note_on_c, 0, 62, 0
1, 95965, Note_on_c, 0, 83, 0
1, 96026, Note_on_c, 0, 60, 0
1, 96034, Note_on_c, 0, 55, 0
1, 96052, Note_on_c, 0, 79, 80
1, 96085, Note_on_c, 0, 81, 0
1, 96109, Note_on_c, 0, 62, 32
1, 96155, Note_on_c, 0, 62, 0
1, 96162, Note_on_c, 0, 79, 0
1, 96172, Note_on_c, 0, 78, 78
1, 96184, Note_on_c, 0, 60, 46
1, 96199, Note_on_c, 0, 55, 50
1, 96233, Note_on_c, 0, 60, 0
1, 96254, Note_on_c, 0, 55, 0
1, 96263, Note_on_c, 0, 78, 0
1, 96287, Note_on_c, 0, 76, 73
1, 96289, Note_on_c, 0, 62, 44
1, 96352, Note_on_c, 0, 62, 0
1, 96365, Note_on_c, 0, 76, 0
1, 96385, Note_on_c, 0, 60, 48
1, 96393, Note_on_c, 0, 74, 76
1, 96407, Note_on_c, 0, 55, 35
1, 96412, Control_c, 0, 67, 16
1, 96444, Note_on_c, 0, 60, 0
1, 96462, Note_on_c, 0, 55, 0
1, 96495, Note_on_c, 0, 74, 0
1, 96496, Note_on_c, 0, 62, 41
1, 96497, Note_on_c, 0, 72, 72
1, 96555, Note_on_c, 0, 62, 0
1, 96605, Note_on_c, 0, 72, 0
1, 96609, Note_on_c, 0, 71, 70
1, 96618, Note_on_c, 0, 60, 51
1, 96637, Note_on_c, 0, 55, 33
1, 96667, Note_on_c, 0, 60, 0
1, 96682, Note_on_c, 0, 55, 0
1, 96687, Note_on_c, 0, 71, 0
1, 96711, Note_on_c, 0, 62, 36
1, 96721, Note_on_c, 0, 69, 66
1, 96761, Note_on_c, 0, 62, 0
1, 96802, Note_on_c, 0, 69, 0
1, 96819, Note_on_c, 0, 60, 48
1, 96827, Note_on_c, 0, 67, 67
1, 96867, Note_on_c, 0, 55, 20
1, 96868, Note_on_c, 0, 60, 0
1, 96868, Control_c, 0, 67, 20
1, 96906, Control_c, 0, 67, 24
1, 96906, Note_on_c, 0, 67, 0
1, 96919, Note_on_c, 0, 55, 0
1, 96942, Control_c, 0, 67, 29
1, 96947, Note_on_c, 0, 66, 56
1, 96978, Control_c, 0, 67, 35
1, 96998, Control_c, 0, 67, 42
1, 97017, Control_c, 0, 67, 54
1, 97035, Control_c, 0, 67, 68
1, 97043, Note_on_c, 0, 66, 0
1, 97054, Control_c, 0, 64, 27
1, 97055, Control_c, 0, 67, 80
1, 97069, Note_on_c, 0, 67, 64
1, 97073, Control_c, 0, 64, 42
1, 97073, Control_c, 0, 67, 87
1, 97087, Note_on_c, 0, 62, 48
1, 97091, Control_c, 0, 64, 50
1, 97093, Note_on_c, 0, 55, 38
1, 97093, Control_c, 0, 67, 92
1, 97095, Note_on_c, 0, 59, 36
1, 97110, Control_c, 0, 64, 55
1, 97112, Control_c, 0, 67, 96
1, 97129, Control_c, 0, 64, 58
1, 97148, Control_c, 0, 64, 61
1, 97150, Control_c, 0, 67, 103
1, 97165, Control_c, 0, 64, 62
1, 97183, Control_c, 0, 64, 64
1, 97184, Control_c, 0, 67, 108
1, 97203, Control_c, 0, 64, 65
1, 97220, Control_c, 0, 64, 66
1, 97260, Note_on_c, 0, 62, 0
1, 97291, Note_on_c, 0, 59, 0
1, 97294, Note_on_c, 0, 55, 0
1, 97295, Control_c, 0, 64, 60
1, 97313, Control_c, 0, 64, 35
1, 97318, Note_on_c, 0, 67, 0
1, 97319, Note_on_c, 0, 69, 60
1, 97333, Control_c, 0, 64, 0
1, 97333, Note_on_c, 0, 66, 46
1, 97363, Note_on_c, 0, 66, 0
1, 97375, Note_on_c, 0, 69, 0
1, 97409, Note_on_c, 0, 62, 60
1, 97480, Note_on_c, 0, 62, 0
1, 97546, Control_c, 0, 67, 104
1, 97549, Note_on_c, 0, 71, 56
1, 97564, Note_on_c, 0, 67, 34
1, 97599, Note_on_c, 0, 67, 0
1, 97619, Note_on_c, 0, 71, 0
1, 97668, Note_on_c, 0, 62, 52
1, 97719, Note_on_c, 0, 62, 0
1, 97772, Note_on_c, 0, 72, 60
1, 97775, Note_on_c, 0, 69, 50
1, 97829, Note_on_c, 0, 69, 0
1, 97829, Note_on_c, 0, 72, 0
1, 97843, Control_c, 0, 67, 100
1, 97902, Note_on_c, 0, 62, 38
1, 97934, Control_c, 0, 67, 96
1, 97970, Control_c, 0, 67, 92
1, 98000, Note_on_c, 0, 74, 71
1, 98002, Note_on_c, 0, 62, 0
1, 98006, Note_on_c, 0, 71, 57
1, 98045, Control_c, 0, 67, 86
1, 98046, Note_on_c, 0, 71, 0
1, 98058, Note_on_c, 0, 74, 0
1, 98082, Control_c, 0, 67, 76
1, 98100, Control_c, 0, 67, 64
1, 98119, Control_c, 0, 67, 50
1, 98137, Control_c, 0, 67, 36
1, 98155, Control_c, 0, 67, 22
1, 98174, Control_c, 0, 67, 10
1, 98181, Poly_aftertouch_c, 0, 62, 0
1, 98212, Control_c, 0, 67, 0
1, 98236, Note_on_c, 0, 64, 77
1, 98241, Note_on_c, 0, 69, 79
1, 98245, Note_on_c, 0, 48, 85
1, 98299, Note_on_c, 0, 64, 0
1, 98301, Note_on_c, 0, 48, 0
1, 98321, Note_on_c, 0, 69, 0
1, 98328, Note_on_c, 0, 45, 87
1, 98330, Note_on_c, 0, 60, 83
1, 98388, Note_on_c, 0, 45, 0
1, 98402, Note_on_c, 0, 60, 0
1, 98454, Note_on_c, 0, 62, 86
1, 98455, Note_on_c, 0, 50, 93
1, 98462, Note_on_c, 0, 67, 79
1, 98505, Note_on_c, 0, 50, 0
1, 98528, Note_on_c, 0, 62, 0
1, 98550, Note_on_c, 0, 67, 0
1, 98574, Note_on_c, 0, 59, 80
1, 98647, Note_on_c, 0, 59, 0
1, 98697, Note_on_c, 0, 50, 92
1, 98701, Note_on_c, 0, 60, 78
1, 98708, Note_on_c, 0, 66, 79
1, 98711, Note_on_c, 0, 38, 81
1, 98730, Note_on_c, 0, 50, 0
1, 98736, Note_on_c, 0, 38, 0
1, 98773, Note_on_c, 0, 60, 0
1, 98807, Note_on_c, 0, 57, 80
1, 98849, Note_on_c, 0, 57, 0
1, 98940, Note_on_c, 0, 67, 80
1, 98943, Control_c, 0, 64, 10
1, 98948, Note_on_c, 0, 59, 80
1, 98949, Note_on_c, 0, 66, 0
1, 98951, Note_on_c, 0, 43, 96
1, 98956, Note_on_c, 0, 31, 85
1, 98961, Control_c, 0, 64, 38
1, 98980, Control_c, 0, 64, 53
1, 98989, Note_on_c, 0, 59, 0
1, 98999, Control_c, 0, 64, 64
1, 99008, Note_on_c, 0, 67, 0
1, 99017, Control_c, 0, 64, 74
1, 99032, Note_on_c, 0, 31, 0
1, 99033, Control_c, 0, 64, 87
1, 99054, Control_c, 0, 64, 110
1, 99072, Control_c, 0, 64, 127
1, 99105, Note_on_c, 0, 43, 0
1, 99194, Note_on_c, 0, 69, 67
1, 99204, Note_on_c, 0, 66, 63
1, 99220, Control_c, 0, 64, 86
1, 99239, Control_c, 0, 64, 45
1, 99249, Note_on_c, 0, 66, 0
1, 99257, Control_c, 0, 64, 0
1, 99283, Note_on_c, 0, 69, 0
1, 99286, Note_on_c, 0, 62, 68
1, 99383, Note_on_c, 0, 62, 0
1, 99436, Note_on_c, 0, 71, 60
1, 99440, Note_on_c, 0, 67, 58
1, 99487, Note_on_c, 0, 67, 0
1, 99508, Note_on_c, 0, 71, 0
1, 99555, Note_on_c, 0, 62, 60
1, 99606, Note_on_c, 0, 62, 0
1, 99666, Note_on_c, 0, 72, 65
1, 99675, Note_on_c, 0, 69, 55
1, 99714, Note_on_c, 0, 69, 0
1, 99722, Note_on_c, 0, 72, 0
1, 99768, Note_on_c, 0, 62, 56
1, 99894, Note_on_c, 0, 71, 70
1, 99895, Note_on_c, 0, 74, 74
1, 99933, Note_on_c, 0, 71, 0
1, 99940, Note_on_c, 0, 74, 0
1, 100027, Control_c, 0, 64, 22
1, 100044, Control_c, 0, 64, 38
1, 100065, Control_c, 0, 64, 45
1, 100101, Control_c, 0, 64, 39
1, 100108, Note_on_c, 0, 62, 0
1, 100115, Note_on_c, 0, 64, 80
1, 100120, Control_c, 0, 64, 0
1, 100128, Note_on_c, 0, 69, 76
1, 100131, Note_on_c, 0, 48, 84
1, 100182, Note_on_c, 0, 64, 0
1, 100205, Note_on_c, 0, 69, 0
1, 100217, Note_on_c, 0, 60, 85
1, 100227, Note_on_c, 0, 45, 87
1, 100229, Note_on_c, 0, 48, 0
1, 100299, Note_on_c, 0, 60, 0
1, 100301, Note_on_c, 0, 45, 0
1, 100342, Note_on_c, 0, 62, 79
1, 100345, Note_on_c, 0, 67, 80
1, 100349, Note_on_c, 0, 50, 93
1, 100404, Note_on_c, 0, 50, 0
1, 100409, Note_on_c, 0, 62, 0
1, 100438, Note_on_c, 0, 67, 0
1, 100451, Note_on_c, 0, 59, 81
1, 100523, Note_on_c, 0, 59, 0
1, 100581, Note_on_c, 0, 50, 90
1, 100587, Note_on_c, 0, 60, 75
1, 100593, Note_on_c, 0, 66, 79
1, 100597, Note_on_c, 0, 38, 80
1, 100614, Note_on_c, 0, 50, 0
1, 100621, Note_on_c, 0, 38, 0
1, 100660, Note_on_c, 0, 60, 0
1, 100697, Note_on_c, 0, 57, 78
1, 100744, Note_on_c, 0, 57, 0
1, 100795, Note_on_c, 0, 66, 0
1, 100818, Note_on_c, 0, 67, 86
1, 100819, Note_on_c, 0, 59, 87
1, 100822, Note_on_c, 0, 43, 92
1, 100831, Note_on_c, 0, 31, 85
1, 100852, Control_c, 0, 64, 70
1, 100858, Note_on_c, 0, 31, 0
1, 100859, Note_on_c, 0, 59, 0
1, 100869, Note_on_c, 0, 43, 0
1, 100870, Control_c, 0, 64, 97
1, 100876, Note_on_c, 0, 67, 0
1, 100890, Control_c, 0, 64, 113
1, 100905, Control_c, 0, 64, 127
1, 100962, Control_c, 0, 64, 120
1, 100980, Control_c, 0, 64, 88
1, 100999, Control_c, 0, 64, 53
1, 101019, Control_c, 0, 64, 0
1, 101335, Note_on_c, 0, 78, 92
1, 101342, Control_c, 0, 64, 34
1, 101342, Note_on_c, 0, 72, 81
1, 101343, Note_on_c, 0, 69, 80
1, 101343, Note_on_c, 0, 50, 89
1, 101347, Note_on_c, 0, 38, 78
1, 101361, Control_c, 0, 64, 66
1, 101369, Note_on_c, 0, 69, 0
1, 101377, Note_on_c, 0, 72, 0
1, 101378, Control_c, 0, 64, 85
1, 101386, Note_on_c, 0, 38, 0
1, 101387, Note_on_c, 0, 50, 0
1, 101396, Control_c, 0, 64, 109
1, 101402, Note_on_c, 0, 78, 0
1, 101416, Control_c, 0, 64, 127
1, 101455, Note_on_c, 0, 69, 24
1, 101489, Control_c, 0, 64, 109
1, 101490, Note_on_c, 0, 69, 0
1, 101508, Control_c, 0, 64, 89
1, 101528, Control_c, 0, 64, 73
1, 101546, Control_c, 0, 64, 62
1, 101563, Control_c, 0, 64, 59
1, 101583, Control_c, 0, 64, 49
1, 101601, Control_c, 0, 64, 31
1, 101620, Control_c, 0, 64, 0
1, 101839, Note_on_c, 0, 79, 90
1, 101840, Control_c, 0, 64, 14
1, 101845, Note_on_c, 0, 71, 84
1, 101847, Note_on_c, 0, 74, 86
1, 101847, Note_on_c, 0, 43, 88
1, 101848, Note_on_c, 0, 31, 77
1, 101866, Control_c, 0, 64, 50
1, 101873, Note_on_c, 0, 71, 0
1, 101878, Control_c, 0, 64, 68
1, 101888, Note_on_c, 0, 31, 0
1, 101891, Note_on_c, 0, 74, 0
1, 101892, Note_on_c, 0, 79, 0
1, 101897, Control_c, 0, 64, 79
1, 101915, Control_c, 0, 64, 91
1, 101915, Note_on_c, 0, 43, 0
1, 101934, Control_c, 0, 64, 116
1, 101954, Control_c, 0, 64, 127
1, 102022, Poly_aftertouch_c, 0, 71, 0
1, 102352, Control_c, 0, 64, 113
1, 102371, Control_c, 0, 64, 85
1, 102391, Control_c, 0, 64, 58
1, 102407, Control_c, 0, 64, 0
1, 102742, Control_c, 0, 67, 9
1, 102795, Control_c, 0, 67, 14
1, 102889, Control_c, 0, 67, 19
1, 102945, Control_c, 0, 67, 23
1, 103019, Control_c, 0, 67, 29
1, 103056, Control_c, 0, 67, 36
1, 103061, Note_on_c, 0, 67, 76
1, 103074, Control_c, 0, 67, 42
1, 103102, Control_c, 0, 67, 47
1, 103122, Control_c, 0, 67, 51
1, 103148, Note_on_c, 0, 67, 0
1, 103175, Control_c, 0, 67, 55
1, 103192, Note_on_c, 0, 74, 56
1, 103254, Note_on_c, 0, 74, 0
1, 103316, Note_on_c, 0, 76, 55
1, 103410, Note_on_c, 0, 76, 0
1, 103449, Note_on_c, 0, 78, 53
1, 103510, Note_on_c, 0, 78, 0
1, 103534, Note_on_c, 0, 62, 71
1, 103560, Note_on_c, 0, 79, 60
1, 103621, Note_on_c, 0, 79, 0
1, 103623, Note_on_c, 0, 62, 0
1, 103669, Note_on_c, 0, 81, 63
1, 103780, Note_on_c, 0, 81, 0
1, 103782, Note_on_c, 0, 82, 62
1, 103879, Note_on_c, 0, 82, 0
1, 103892, Note_on_c, 0, 84, 61
1, 104009, Note_on_c, 0, 84, 0
1, 104014, Note_on_c, 0, 58, 66
1, 104025, Note_on_c, 0, 86, 62
1, 104057, Control_c, 0, 67, 60
1, 104139, Note_on_c, 0, 86, 0
1, 104148, Control_c, 0, 67, 64
1, 104153, Note_on_c, 0, 84, 63
1, 104259, Note_on_c, 0, 84, 0
1, 104263, Note_on_c, 0, 82, 62
1, 104365, Note_on_c, 0, 82, 0
1, 104371, Note_on_c, 0, 81, 62
1, 104463, Note_on_c, 0, 81, 0
1, 104491, Note_on_c, 0, 79, 62
1, 104516, Note_on_c, 0, 58, 0
1, 104555, Note_on_c, 0, 79, 0
1, 104601, Note_on_c, 0, 81, 58
1, 104706, Note_on_c, 0, 82, 66
1, 104713, Note_on_c, 0, 81, 0
1, 104722, Note_on_c, 0, 63, 76
1, 104809, Note_on_c, 0, 82, 0
1, 104819, Note_on_c, 0, 79, 64
1, 104918, Note_on_c, 0, 79, 0
1, 104945, Note_on_c, 0, 84, 67
1, 104980, Note_on_c, 0, 57, 70
1, 104999, Note_on_c, 0, 63, 0
1, 105060, Note_on_c, 0, 84, 0
1, 105069, Note_on_c, 0, 82, 69
1, 105153, Note_on_c, 0, 82, 0
1, 105178, Note_on_c, 0, 81, 66
1, 105262, Note_on_c, 0, 81, 0
1, 105297, Note_on_c, 0, 79, 62
1, 105375, Note_on_c, 0, 79, 0
1, 105386, Note_on_c, 0, 78, 66
1, 105402, Note_on_c, 0, 57, 0
1, 105467, Note_on_c, 0, 78, 0
1, 105498, Note_on_c, 0, 79, 65
1, 105599, Note_on_c, 0, 79, 0
1, 105603, Note_on_c, 0, 81, 60
1, 105618, Note_on_c, 0, 62, 51
1, 105658, Note_on_c, 0, 62, 0
1, 105689, Note_on_c, 0, 81, 0
1, 105720, Note_on_c, 0, 78, 64
1, 105799, Note_on_c, 0, 78, 0
1, 105841, Note_on_c, 0, 82, 70
1, 105854, Note_on_c, 0, 55, 51
1, 105940, Note_on_c, 0, 82, 0
1, 105952, Note_on_c, 0, 84, 68
1, 106071, Note_on_c, 0, 84, 0
1, 106076, Note_on_c, 0, 82, 67
1, 106179, Note_on_c, 0, 82, 0
1, 106185, Note_on_c, 0, 81, 65
1, 106204, Control_c, 0, 67, 60
1, 106229, Note_on_c, 0, 55, 0
1, 106277, Control_c, 0, 67, 56
1, 106281, Note_on_c, 0, 81, 0
1, 106286, Note_on_c, 0, 58, 60
1, 106295, Note_on_c, 0, 79, 69
1, 106333, Control_c, 0, 67, 51
1, 106366, Note_on_c, 0, 79, 0
1, 106397, Note_on_c, 0, 77, 72
1, 106427, Control_c, 0, 67, 46
1, 106452, Note_on_c, 0, 77, 0
1, 106506, Note_on_c, 0, 76, 65
1, 106523, Note_on_c, 0, 58, 0
1, 106593, Note_on_c, 0, 74, 69
1, 106631, Control_c, 0, 67, 42
1, 106634, Note_on_c, 0, 74, 0
1, 106634, Note_on_c, 0, 76, 0
1, 106667, Control_c, 0, 67, 33
1, 106685, Control_c, 0, 67, 23
1, 106704, Control_c, 0, 67, 11
1, 106720, Note_on_c, 0, 81, 89
1, 106737, Note_on_c, 0, 73, 81
1, 106760, Control_c, 0, 64, 25
1, 106778, Control_c, 0, 64, 38
1, 106796, Note_on_c, 0, 81, 0
1, 106797, Control_c, 0, 64, 46
1, 106801, Note_on_c, 0, 73, 0
1, 106816, Control_c, 0, 64, 53
1, 106842, Control_c, 0, 64, 57
1, 106843, Note_on_c, 0, 45, 77
1, 106861, Control_c, 0, 64, 59
1, 106879, Control_c, 0, 64, 61
1, 106948, Note_on_c, 0, 47, 79
1, 106959, Note_on_c, 0, 45, 0
1, 107012, Note_on_c, 0, 47, 0
1, 107028, Control_c, 0, 64, 58
1, 107046, Control_c, 0, 64, 50
1, 107048, Note_on_c, 0, 49, 79
1, 107065, Control_c, 0, 64, 45
1, 107066, Control_c, 0, 67, 0
1, 107121, Control_c, 0, 64, 42
1, 107140, Control_c, 0, 64, 36
1, 107159, Control_c, 0, 64, 24
1, 107162, Note_on_c, 0, 50, 79
1, 107174, Note_on_c, 0, 76, 84
1, 107180, Note_on_c, 0, 49, 0
1, 107190, Note_on_c, 0, 73, 79
1, 107230, Note_on_c, 0, 50, 0
1, 107252, Note_on_c, 0, 76, 0
1, 107258, Note_on_c, 0, 73, 0
1, 107280, Note_on_c, 0, 52, 69
1, 107329, Note_on_c, 0, 52, 0
1, 107399, Note_on_c, 0, 54, 74
1, 107498, Note_on_c, 0, 56, 77
1, 107507, Note_on_c, 0, 54, 0
1, 107571, Note_on_c, 0, 56, 0
1, 107603, Control_c, 0, 64, 19
1, 107612, Note_on_c, 0, 73, 85
1, 107615, Note_on_c, 0, 57, 77
1, 107622, Control_c, 0, 64, 14
1, 107624, Note_on_c, 0, 64, 71
1, 107668, Note_on_c, 0, 57, 0
1, 107719, Note_on_c, 0, 56, 74
1, 107817, Note_on_c, 0, 64, 0
1, 107835, Note_on_c, 0, 57, 75
1, 107845, Note_on_c, 0, 56, 0
1, 107913, Note_on_c, 0, 57, 0
1, 107937, Note_on_c, 0, 58, 79
1, 107961, Note_on_c, 0, 73, 0
1, 108019, Note_on_c, 0, 58, 0
1, 108040, Control_c, 0, 64, 0
1, 108046, Note_on_c, 0, 57, 81
1, 108117, Note_on_c, 0, 57, 0
1, 108148, Note_on_c, 0, 55, 73
1, 108231, Note_on_c, 0, 55, 0
1, 108234, Poly_aftertouch_c, 0, 80, 0
1, 108257, Note_on_c, 0, 69, 87
1, 108269, Note_on_c, 0, 53, 73
1, 108304, Note_on_c, 0, 69, 0
1, 108377, Note_on_c, 0, 52, 72
1, 108387, Note_on_c, 0, 53, 0
1, 108441, Note_on_c, 0, 52, 0
1, 108487, Note_on_c, 0, 81, 86
1, 108495, Note_on_c, 0, 53, 78
1, 108586, Note_on_c, 0, 80, 79
1, 108595, Note_on_c, 0, 81, 0
1, 108714, Note_on_c, 0, 81, 80
1, 108729, Note_on_c, 0, 80, 0
1, 108824, Note_on_c, 0, 82, 80
1, 108828, Note_on_c, 0, 81, 0
1, 108903, Note_on_c, 0, 82, 0
1, 108934, Note_on_c, 0, 53, 0
1, 108935, Note_on_c, 0, 81, 82
1, 109035, Note_on_c, 0, 79, 75
1, 109080, Note_on_c, 0, 81, 0
1, 109137, Note_on_c, 0, 57, 89
1, 109139, Note_on_c, 0, 77, 78
1, 109143, Note_on_c, 0, 79, 0
1, 109180, Note_on_c, 0, 57, 0
1, 109217, Note_on_c, 0, 77, 0
1, 109249, Note_on_c, 0, 76, 78
1, 109314, Note_on_c, 0, 76, 0
1, 109351, Note_on_c, 0, 69, 85
1, 109354, Note_on_c, 0, 77, 81
1, 109420, Note_on_c, 0, 69, 0
1, 109447, Note_on_c, 0, 77, 0
1, 109454, Note_on_c, 0, 76, 82
1, 109462, Note_on_c, 0, 68, 79
1, 109562, Note_on_c, 0, 76, 0
1, 109563, Note_on_c, 0, 77, 82
1, 109565, Note_on_c, 0, 68, 0
1, 109573, Note_on_c, 0, 69, 75
1, 109651, Note_on_c, 0, 69, 0
1, 109676, Note_on_c, 0, 79, 81
1, 109685, Note_on_c, 0, 77, 0
1, 109686, Note_on_c, 0, 70, 78
1, 109760, Note_on_c, 0, 70, 0
1, 109764, Note_on_c, 0, 79, 0
1, 109790, Note_on_c, 0, 69, 79
1, 109796, Note_on_c, 0, 77, 83
1, 109856, Note_on_c, 0, 69, 0
1, 109884, Note_on_c, 0, 77, 0
1, 109897, Note_on_c, 0, 67, 72
1, 109905, Note_on_c, 0, 76, 79
1, 109973, Note_on_c, 0, 67, 0
1, 109980, Note_on_c, 0, 76, 0
1, 110012, Note_on_c, 0, 74, 73
1, 110015, Note_on_c, 0, 65, 72
1, 110085, Note_on_c, 0, 74, 0
1, 110113, Note_on_c, 0, 64, 71
1, 110115, Note_on_c, 0, 73, 76
1, 110120, Note_on_c, 0, 65, 0
1, 110164, Note_on_c, 0, 64, 0
1, 110203, Note_on_c, 0, 73, 0
1, 110225, Note_on_c, 0, 65, 86
1, 110232, Note_on_c, 0, 69, 79
1, 110235, Note_on_c, 0, 74, 72
1, 110298, Note_on_c, 0, 69, 0
1, 110338, Note_on_c, 0, 68, 73
1, 110423, Note_on_c, 0, 68, 0
1, 110447, Note_on_c, 0, 69, 76
1, 110517, Note_on_c, 0, 69, 0
1, 110569, Note_on_c, 0, 70, 69
1, 110678, Note_on_c, 0, 70, 0
1, 110682, Note_on_c, 0, 69, 76
1, 110689, Note_on_c, 0, 65, 0
1, 110750, Note_on_c, 0, 69, 0
1, 110776, Note_on_c, 0, 67, 73
1, 110876, Note_on_c, 0, 67, 0
1, 110881, Note_on_c, 0, 61, 71
1, 110887, Note_on_c, 0, 65, 77
1, 110920, Note_on_c, 0, 61, 0
1, 110961, Note_on_c, 0, 65, 0
1, 110985, Note_on_c, 0, 64, 77
1, 111083, Note_on_c, 0, 64, 0
1, 111107, Note_on_c, 0, 62, 65
1, 111108, Note_on_c, 0, 65, 77
1, 111195, Note_on_c, 0, 62, 0
1, 111213, Note_on_c, 0, 61, 61
1, 111317, Note_on_c, 0, 61, 0
1, 111343, Note_on_c, 0, 62, 60
1, 111446, Note_on_c, 0, 62, 0
1, 111476, Note_on_c, 0, 57, 55
1, 111477, Control_c, 0, 67, 9
1, 111541, Control_c, 0, 67, 14
1, 111550, Note_on_c, 0, 57, 0
1, 111589, Note_on_c, 0, 66, 68
1, 111598, Note_on_c, 0, 65, 0
1, 111614, Note_on_c, 0, 60, 56
1, 111635, Control_c, 0, 67, 19
1, 111690, Note_on_c, 0, 60, 0
1, 111691, Control_c, 0, 64, 17
1, 111692, Control_c, 0, 67, 23
1, 111708, Control_c, 0, 64, 26
1, 111727, Control_c, 0, 64, 33
1, 111737, Note_on_c, 0, 59, 52
1, 111745, Control_c, 0, 64, 39
1, 111764, Control_c, 0, 64, 44
1, 111765, Control_c, 0, 67, 28
1, 111784, Control_c, 0, 64, 47
1, 111801, Control_c, 0, 64, 50
1, 111805, Note_on_c, 0, 59, 0
1, 111810, Note_on_c, 0, 74, 0
1, 111820, Control_c, 0, 64, 52
1, 111821, Control_c, 0, 67, 32
1, 111839, Note_on_c, 0, 60, 60
1, 111858, Control_c, 0, 64, 55
1, 111877, Control_c, 0, 67, 39
1, 111893, Control_c, 0, 67, 44
1, 111912, Control_c, 0, 67, 49
1, 111916, Note_on_c, 0, 60, 0
1, 111947, Note_on_c, 0, 57, 51
1, 111948, Control_c, 0, 67, 53
1, 112005, Control_c, 0, 67, 57
1, 112019, Note_on_c, 0, 66, 0
1, 112050, Note_on_c, 0, 57, 0
1, 112056, Control_c, 0, 64, 51
1, 112056, Note_on_c, 0, 74, 63
1, 112056, Note_on_c, 0, 67, 46
1, 112056, Note_on_c, 0, 58, 48
1, 112056, Control_c, 0, 64, 48
1, 112056, Control_c, 0, 67, 61
1, 112073, Control_c, 0, 64, 45
1, 112092, Control_c, 0, 67, 68
1, 112111, Control_c, 0, 64, 43
1, 112112, Control_c, 0, 67, 73
1, 112129, Control_c, 0, 67, 78
1, 112133, Note_on_c, 0, 74, 0
1, 112147, Note_on_c, 0, 73, 63
1, 112148, Control_c, 0, 64, 38
1, 112149, Control_c, 0, 67, 82
1, 112167, Control_c, 0, 64, 31
1, 112185, Control_c, 0, 64, 25
1, 112187, Control_c, 0, 67, 89
1, 112204, Control_c, 0, 67, 93
1, 112238, Note_on_c, 0, 67, 0
1, 112239, Note_on_c, 0, 67, 19
1, 112242, Control_c, 0, 67, 98
1, 112242, Note_on_c, 0, 73, 0
1, 112257, Note_on_c, 0, 74, 63
1, 112303, Note_on_c, 0, 55, 22
1, 112322, Note_on_c, 0, 67, 0
1, 112325, Note_on_c, 0, 58, 0
1, 112354, Control_c, 0, 67, 102
1, 112362, Note_on_c, 0, 74, 0
1, 112365, Note_on_c, 0, 70, 63
1, 112448, Note_on_c, 0, 55, 0
1, 112469, Note_on_c, 0, 70, 0
1, 112472, Control_c, 0, 67, 107
1, 112482, Note_on_c, 0, 72, 70
1, 112485, Note_on_c, 0, 57, 50
1, 112498, Note_on_c, 0, 62, 55
1, 112530, Control_c, 0, 64, 19
1, 112531, Control_c, 0, 67, 112
1, 112586, Control_c, 0, 67, 116
1, 112593, Note_on_c, 0, 72, 0
1, 112594, Note_on_c, 0, 71, 73
1, 112681, Note_on_c, 0, 72, 73
1, 112681, Note_on_c, 0, 71, 0
1, 112700, Note_on_c, 0, 57, 0
1, 112716, Note_on_c, 0, 54, 43
1, 112789, Poly_aftertouch_c, 0, 62, 24
1, 112797, Note_on_c, 0, 69, 76
1, 112798, Note_on_c, 0, 72, 0
1, 112866, Note_on_c, 0, 62, 0
1, 112913, Note_on_c, 0, 69, 0
1, 112917, Control_c, 0, 64, 12
1, 112923, Note_on_c, 0, 70, 78
1, 112926, Note_on_c, 0, 54, 0
1, 112934, Note_on_c, 0, 58, 54
1, 112937, Control_c, 0, 64, 0
1, 112938, Note_on_c, 0, 55, 51
1, 112999, Note_on_c, 0, 70, 0
1, 113020, Note_on_c, 0, 62, 73
1, 113085, Note_on_c, 0, 62, 0
1, 113130, Note_on_c, 0, 64, 74
1, 113195, Control_c, 0, 67, 111
1, 113218, Note_on_c, 0, 64, 0
1, 113235, Note_on_c, 0, 66, 71
1, 113264, Note_on_c, 0, 58, 0
1, 113268, Control_c, 0, 67, 106
1, 113313, Note_on_c, 0, 66, 0
1, 113346, Note_on_c, 0, 57, 69
1, 113346, Note_on_c, 0, 67, 76
1, 113353, Note_on_c, 0, 53, 58
1, 113373, Note_on_c, 0, 55, 0
1, 113409, Control_c, 0, 67, 102
1, 113427, Control_c, 0, 64, 16
1, 113429, Note_on_c, 0, 67, 0
1, 113446, Control_c, 0, 64, 24
1, 113459, Note_on_c, 0, 69, 73
1, 113466, Control_c, 0, 64, 30
1, 113485, Control_c, 0, 64, 35
1, 113485, Control_c, 0, 67, 97
1, 113502, Control_c, 0, 64, 39
1, 113503, Control_c, 0, 67, 92
1, 113521, Control_c, 0, 64, 41
1, 113522, Control_c, 0, 67, 85
1, 113540, Control_c, 0, 64, 43
1, 113541, Control_c, 0, 67, 74
1, 113558, Control_c, 0, 67, 58
1, 113563, Note_on_c, 0, 70, 75
1, 113576, Control_c, 0, 64, 46
1, 113578, Control_c, 0, 67, 38
1, 113587, Note_on_c, 0, 69, 0
1, 113595, Control_c, 0, 67, 15
1, 113613, Control_c, 0, 67, 0
1, 113669, Note_on_c, 0, 70, 0
1, 113688, Note_on_c, 0, 72, 72
1, 113714, Note_on_c, 0, 53, 0
1, 113761, Control_c, 0, 64, 44
1, 113779, Control_c, 0, 64, 36
1, 113788, Note_on_c, 0, 55, 73
1, 113793, Note_on_c, 0, 74, 76
1, 113798, Note_on_c, 0, 57, 0
1, 113798, Control_c, 0, 64, 18
1, 113799, Note_on_c, 0, 72, 0
1, 113807, Note_on_c, 0, 52, 66
1, 113817, Control_c, 0, 64, 0
1, 113866, Note_on_c, 0, 74, 0
1, 113904, Note_on_c, 0, 72, 79
1, 113971, Note_on_c, 0, 72, 0
1, 114012, Note_on_c, 0, 79, 75
1, 114113, Note_on_c, 0, 77, 74
1, 114115, Note_on_c, 0, 79, 0
1, 114222, Note_on_c, 0, 76, 79
1, 114237, Note_on_c, 0, 77, 0
1, 114260, Note_on_c, 0, 55, 0
1, 114269, Note_on_c, 0, 52, 0
1, 114314, Note_on_c, 0, 76, 0
1, 114325, Note_on_c, 0, 74, 76
1, 114393, Note_on_c, 0, 74, 0
1, 114439, Note_on_c, 0, 72, 66
1, 114487, Note_on_c, 0, 72, 0
1, 114545, Note_on_c, 0, 70, 59
1, 114597, Note_on_c, 0, 70, 0
1, 114653, Note_on_c, 0, 53, 94
1, 114660, Note_on_c, 0, 41, 85
1, 114681, Note_on_c, 0, 69, 67
1, 114696, Control_c, 0, 64, 42
1, 114715, Control_c, 0, 64, 64
1, 114728, Note_on_c, 0, 69, 0
1, 114731, Control_c, 0, 64, 74
1, 114738, Note_on_c, 0, 53, 0
1, 114752, Control_c, 0, 64, 81
1, 114758, Note_on_c, 0, 41, 0
1, 114771, Control_c, 0, 64, 88
1, 114771, Note_on_c, 0, 65, 74
1, 114789, Control_c, 0, 64, 93
1, 114815, Note_on_c, 0, 65, 0
1, 114827, Control_c, 0, 64, 88
1, 114845, Control_c, 0, 64, 73
1, 114861, Control_c, 0, 64, 50
1, 114862, Note_on_c, 0, 67, 76
1, 114881, Control_c, 0, 64, 21
1, 114900, Control_c, 0, 64, 14
1, 114910, Note_on_c, 0, 67, 0
1, 114930, Note_on_c, 0, 65, 69
1, 114936, Control_c, 0, 64, 0
1, 114994, Note_on_c, 0, 65, 0
1, 115000, Note_on_c, 0, 64, 70
1, 115044, Note_on_c, 0, 64, 0
1, 115057, Note_on_c, 0, 65, 74
1, 115105, Note_on_c, 0, 65, 0
1, 115125, Note_on_c, 0, 48, 95
1, 115130, Note_on_c, 0, 36, 84
1, 115160, Control_c, 0, 64, 32
1, 115178, Control_c, 0, 64, 48
1, 115197, Control_c, 0, 64, 63
1, 115211, Note_on_c, 0, 48, 0
1, 115214, Note_on_c, 0, 36, 0
1, 115215, Control_c, 0, 64, 74
1, 115234, Control_c, 0, 64, 80
1, 115262, Control_c, 0, 64, 84
1, 115264, Note_on_c, 0, 69, 76
1, 115316, Control_c, 0, 64, 80
1, 115332, Note_on_c, 0, 69, 0
1, 115334, Control_c, 0, 64, 73
1, 115354, Note_on_c, 0, 70, 77
1, 115356, Control_c, 0, 64, 66
1, 115372, Control_c, 0, 64, 58
1, 115391, Control_c, 0, 64, 46
1, 115410, Control_c, 0, 64, 25
1, 115421, Note_on_c, 0, 69, 62
1, 115428, Control_c, 0, 64, 0
1, 115442, Note_on_c, 0, 70, 0
1, 115460, Note_on_c, 0, 69, 0
1, 115468, Note_on_c, 0, 71, 7
1, 115469, Note_on_c, 0, 68, 76
1, 115519, Note_on_c, 0, 68, 0
1, 115526, Note_on_c, 0, 71, 0
1, 115540, Note_on_c, 0, 69, 72
1, 115576, Note_on_c, 0, 69, 0
1, 115596, Note_on_c, 0, 45, 95
1, 115596, Note_on_c, 0, 33, 86
1, 115615, Control_c, 0, 64, 26
1, 115631, Control_c, 0, 64, 49
1, 115650, Control_c, 0, 64, 63
1, 115667, Note_on_c, 0, 33, 0
1, 115668, Control_c, 0, 64, 69
1, 115687, Control_c, 0, 64, 73
1, 115694, Note_on_c, 0, 45, 0
1, 115706, Control_c, 0, 64, 78
1, 115714, Note_on_c, 0, 72, 76
1, 115725, Control_c, 0, 64, 83
1, 115761, Control_c, 0, 64, 85
1, 115784, Note_on_c, 0, 72, 0
1, 115794, Note_on_c, 0, 74, 79
1, 115869, Note_on_c, 0, 74, 0
1, 115873, Note_on_c, 0, 72, 78
1, 115918, Note_on_c, 0, 72, 0
1, 115928, Control_c, 0, 64, 79
1, 115928, Note_on_c, 0, 71, 74
1, 115948, Control_c, 0, 64, 60
1, 115966, Control_c, 0, 64, 0
1, 115986, Note_on_c, 0, 71, 0
1, 115989, Note_on_c, 0, 72, 83
1, 116052, Note_on_c, 0, 77, 88
1, 116062, Note_on_c, 0, 72, 0
1, 116277, Note_on_c, 0, 50, 88
1, 116283, Note_on_c, 0, 38, 78
1, 116331, Note_on_c, 0, 50, 0
1, 116343, Note_on_c, 0, 38, 0
1, 116525, Note_on_c, 0, 43, 93
1, 116531, Note_on_c, 0, 31, 88
1, 116569, Control_c, 0, 64, 30
1, 116581, Note_on_c, 0, 77, 0
1, 116586, Control_c, 0, 64, 48
1, 116607, Control_c, 0, 64, 60
1, 116625, Control_c, 0, 64, 68
1, 116643, Control_c, 0, 64, 74
1, 116661, Control_c, 0, 64, 83
1, 116666, Note_on_c, 0, 31, 0
1, 116673, Note_on_c, 0, 43, 0
1, 116677, Control_c, 0, 64, 93
1, 116697, Control_c, 0, 64, 100
1, 116717, Control_c, 0, 64, 105
1, 116761, Note_on_c, 0, 76, 75
1, 116825, Note_on_c, 0, 76, 0
1, 116829, Note_on_c, 0, 77, 78
1, 116881, Note_on_c, 0, 79, 75
1, 116884, Control_c, 0, 64, 98
1, 116886, Note_on_c, 0, 77, 0
1, 116904, Control_c, 0, 64, 90
1, 116922, Note_on_c, 0, 79, 0
1, 116922, Control_c, 0, 64, 75
1, 116922, Note_on_c, 0, 81, 75
1, 116939, Control_c, 0, 64, 52
1, 116958, Control_c, 0, 64, 0
1, 116999, Note_on_c, 0, 82, 88
1, 117037, Note_on_c, 0, 81, 0
1, 117241, Note_on_c, 0, 48, 89
1, 117244, Note_on_c, 0, 36, 82
1, 117288, Note_on_c, 0, 48, 0
1, 117305, Note_on_c, 0, 36, 0
1, 117497, Note_on_c, 0, 41, 96
1, 117497, Note_on_c, 0, 29, 88
1, 117524, Note_on_c, 0, 82, 0
1, 117709, Control_c, 0, 64, 13
1, 117727, Control_c, 0, 64, 24
1, 117741, Note_on_c, 0, 81, 70
1, 117744, Control_c, 0, 64, 31
1, 117765, Control_c, 0, 64, 38
1, 117784, Control_c, 0, 64, 46
1, 117789, Note_on_c, 0, 81, 0
1, 117790, Note_on_c, 0, 29, 0
1, 117800, Control_c, 0, 64, 53
1, 117804, Note_on_c, 0, 79, 71
1, 117820, Control_c, 0, 64, 59
1, 117840, Control_c, 0, 64, 61
1, 117855, Note_on_c, 0, 41, 0
1, 117858, Control_c, 0, 64, 63
1, 117862, Note_on_c, 0, 79, 0
1, 117869, Note_on_c, 0, 81, 68
1, 117874, Control_c, 0, 64, 66
1, 117894, Control_c, 0, 64, 68
1, 117931, Control_c, 0, 64, 70
1, 117933, Note_on_c, 0, 82, 78
1, 117939, Note_on_c, 0, 81, 0
1, 118006, Control_c, 0, 64, 68
1, 118013, Note_on_c, 0, 84, 80
1, 118023, Note_on_c, 0, 82, 0
1, 118023, Control_c, 0, 64, 65
1, 118043, Control_c, 0, 64, 61
1, 118070, Control_c, 0, 64, 55
1, 118088, Control_c, 0, 64, 50
1, 118107, Control_c, 0, 64, 47
1, 118145, Control_c, 0, 64, 43
1, 118163, Control_c, 0, 64, 36
1, 118180, Control_c, 0, 64, 20
1, 118273, Control_c, 0, 64, 0
1, 118303, Note_on_c, 0, 69, 55
1, 118581, Note_on_c, 0, 58, 50
1, 118581, Note_on_c, 0, 69, 0
1, 118672, Note_on_c, 0, 84, 0
1, 118676, Note_on_c, 0, 85, 57
1, 118799, Note_on_c, 0, 85, 0
1, 118805, Note_on_c, 0, 86, 58
1, 118904, Note_on_c, 0, 78, 59
1, 118969, Note_on_c, 0, 78, 0
1, 118999, Note_on_c, 0, 86, 0
1, 119036, Note_on_c, 0, 79, 64
1, 119078, Note_on_c, 0, 79, 0
1, 119144, Note_on_c, 0, 81, 53
1, 119246, Poly_aftertouch_c, 0, 58, 24
1, 119250, Note_on_c, 0, 81, 0
1, 119266, Note_on_c, 0, 58, 0
1, 119273, Note_on_c, 0, 82, 57
1, 119279, Note_on_c, 0, 67, 62
1, 119547, Note_on_c, 0, 57, 67
1, 119555, Note_on_c, 0, 67, 0
1, 119656, Note_on_c, 0, 82, 0
1, 119657, Note_on_c, 0, 83, 54
1, 119766, Note_on_c, 0, 83, 0
1, 119772, Note_on_c, 0, 84, 59
1, 119858, Note_on_c, 0, 84, 0
1, 119891, Note_on_c, 0, 76, 58
1, 119950, Note_on_c, 0, 76, 0
1, 120011, Note_on_c, 0, 77, 60
1, 120079, Note_on_c, 0, 77, 0
1, 120109, Note_on_c, 0, 57, 0
1, 120115, Note_on_c, 0, 79, 63
1, 120219, Note_on_c, 0, 79, 0
1, 120241, Note_on_c, 0, 81, 65
1, 120253, Note_on_c, 0, 65, 58
1, 120315, Note_on_c, 0, 65, 0
1, 120428, Poly_aftertouch_c, 0, 65, 127
1, 120491, Poly_aftertouch_c, 0, 65, 0
1, 120514, Note_on_c, 0, 55, 63
1, 120592, Note_on_c, 0, 81, 0
1, 120624, Note_on_c, 0, 84, 63
1, 120715, Note_on_c, 0, 84, 0
1, 120751, Note_on_c, 0, 55, 0
1, 120757, Note_on_c, 0, 82, 54
1, 120824, Note_on_c, 0, 82, 0
1, 120882, Note_on_c, 0, 79, 56
1, 120929, Note_on_c, 0, 79, 0
1, 120983, Note_on_c, 0, 60, 59
1, 120991, Note_on_c, 0, 76, 63
1, 121032, Note_on_c, 0, 76, 0
1, 121103, Note_on_c, 0, 72, 60
1, 121111, Note_on_c, 0, 60, 0
1, 121189, Note_on_c, 0, 72, 0
1, 121215, Note_on_c, 0, 70, 57
1, 121274, Note_on_c, 0, 70, 0
1, 121311, Note_on_c, 0, 67, 52
1, 121376, Note_on_c, 0, 67, 0
1, 121436, Note_on_c, 0, 69, 68
1, 121437, Note_on_c, 0, 57, 68
1, 121439, Control_c, 0, 64, 28
1, 121439, Note_on_c, 0, 53, 69
1, 121454, Control_c, 0, 64, 45
1, 121472, Control_c, 0, 64, 54
1, 121480, Note_on_c, 0, 69, 0
1, 121488, Note_on_c, 0, 57, 0
1, 121490, Control_c, 0, 64, 57
1, 121505, Note_on_c, 0, 53, 0
1, 121522, Note_on_c, 0, 60, 62
1, 121528, Control_c, 0, 64, 59
1, 121546, Control_c, 0, 64, 61
1, 121564, Control_c, 0, 64, 62
1, 121598, Note_on_c, 0, 60, 0
1, 121671, Note_on_c, 0, 69, 61
1, 121672, Note_on_c, 0, 53, 48
1, 121677, Note_on_c, 0, 57, 44
1, 121709, Note_on_c, 0, 69, 0
1, 121725, Note_on_c, 0, 57, 0
1, 121732, Note_on_c, 0, 53, 0
1, 121759, Note_on_c, 0, 60, 57
1, 121839, Note_on_c, 0, 60, 0
1, 121895, Note_on_c, 0, 57, 58
1, 121915, Note_on_c, 0, 53, 53
1, 121939, Note_on_c, 0, 57, 0
1, 121958, Note_on_c, 0, 53, 0
1, 121999, Control_c, 0, 64, 63
1, 122011, Note_on_c, 0, 72, 60
1, 122019, Note_on_c, 0, 60, 32
1, 122038, Control_c, 0, 64, 64
1, 122062, Note_on_c, 0, 72, 0
1, 122067, Note_on_c, 0, 60, 0
1, 122090, Note_on_c, 0, 74, 66
1, 122093, Note_on_c, 0, 57, 50
1, 122102, Note_on_c, 0, 53, 51
1, 122138, Note_on_c, 0, 74, 0
1, 122140, Note_on_c, 0, 57, 0
1, 122150, Note_on_c, 0, 72, 65
1, 122161, Note_on_c, 0, 53, 0
1, 122184, Note_on_c, 0, 60, 26
1, 122194, Note_on_c, 0, 72, 0
1, 122218, Note_on_c, 0, 74, 55
1, 122259, Note_on_c, 0, 72, 78
1, 122260, Control_c, 0, 64, 63
1, 122265, Note_on_c, 0, 74, 0
1, 122280, Control_c, 0, 64, 62
1, 122297, Control_c, 0, 64, 59
1, 122305, Note_on_c, 0, 72, 0
1, 122313, Control_c, 0, 64, 51
1, 122329, Note_on_c, 0, 64, 74
1, 122332, Note_on_c, 0, 60, 0
1, 122332, Control_c, 0, 64, 35
1, 122336, Note_on_c, 0, 58, 62
1, 122338, Note_on_c, 0, 55, 64
1, 122352, Control_c, 0, 64, 0
1, 122383, Note_on_c, 0, 58, 0
1, 122388, Note_on_c, 0, 64, 0
1, 122390, Note_on_c, 0, 55, 0
1, 122459, Note_on_c, 0, 60, 47
1, 122519, Note_on_c, 0, 60, 0
1, 122568, Note_on_c, 0, 64, 71
1, 122576, Note_on_c, 0, 58, 52
1, 122582, Note_on_c, 0, 55, 53
1, 122605, Note_on_c, 0, 64, 0
1, 122620, Note_on_c, 0, 58, 0
1, 122636, Note_on_c, 0, 55, 0
1, 122669, Note_on_c, 0, 60, 53
1, 122744, Note_on_c, 0, 60, 0
1, 122802, Note_on_c, 0, 58, 64
1, 122811, Note_on_c, 0, 55, 63
1, 122851, Note_on_c, 0, 58, 0
1, 122861, Note_on_c, 0, 55, 0
1, 122907, Note_on_c, 0, 72, 63
1, 122922, Note_on_c, 0, 60, 19
1, 122951, Note_on_c, 0, 72, 0
1, 122980, Note_on_c, 0, 60, 0
1, 123000, Note_on_c, 0, 74, 67
1, 123006, Note_on_c, 0, 58, 58
1, 123011, Note_on_c, 0, 55, 56
1, 123040, Note_on_c, 0, 74, 0
1, 123047, Note_on_c, 0, 58, 0
1, 123048, Note_on_c, 0, 72, 56
1, 123050, Note_on_c, 0, 55, 0
1, 123090, Note_on_c, 0, 72, 0
1, 123092, Note_on_c, 0, 60, 54
1, 123119, Note_on_c, 0, 74, 72
1, 123150, Note_on_c, 0, 74, 0
1, 123164, Note_on_c, 0, 72, 81
1, 123222, Note_on_c, 0, 72, 0
1, 123228, Note_on_c, 0, 60, 0
1, 123234, Note_on_c, 0, 77, 83
1, 123240, Note_on_c, 0, 57, 63
1, 123253, Note_on_c, 0, 53, 60
1, 123270, Control_c, 0, 64, 11
1, 123287, Control_c, 0, 64, 33
1, 123305, Note_on_c, 0, 57, 0
1, 123306, Control_c, 0, 64, 41
1, 123313, Note_on_c, 0, 53, 0
1, 123325, Control_c, 0, 64, 48
1, 123343, Control_c, 0, 64, 55
1, 123362, Control_c, 0, 64, 59
1, 123372, Note_on_c, 0, 60, 56
1, 123381, Control_c, 0, 64, 61
1, 123399, Control_c, 0, 64, 62
1, 123418, Control_c, 0, 64, 63
1, 123442, Note_on_c, 0, 60, 0
1, 123454, Control_c, 0, 64, 64
1, 123455, Note_on_c, 0, 77, 0
1, 123471, Control_c, 0, 64, 66
1, 123474, Note_on_c, 0, 81, 72
1, 123487, Note_on_c, 0, 57, 44
1, 123490, Control_c, 0, 64, 70
1, 123496, Note_on_c, 0, 53, 49
1, 123509, Control_c, 0, 64, 73
1, 123518, Note_on_c, 0, 81, 0
1, 123529, Control_c, 0, 64, 77
1, 123533, Note_on_c, 0, 57, 0
1, 123550, Note_on_c, 0, 53, 0
1, 123588, Note_on_c, 0, 60, 61
1, 123620, Control_c, 0, 64, 80
1, 123650, Note_on_c, 0, 60, 0
1, 123718, Note_on_c, 0, 57, 64
1, 123731, Note_on_c, 0, 53, 53
1, 123764, Note_on_c, 0, 57, 0
1, 123781, Note_on_c, 0, 53, 0
1, 123817, Note_on_c, 0, 60, 58
1, 123828, Note_on_c, 0, 84, 66
1, 123870, Control_c, 0, 64, 83
1, 123875, Note_on_c, 0, 60, 0
1, 123886, Note_on_c, 0, 84, 0
1, 123910, Note_on_c, 0, 86, 70
1, 123911, Note_on_c, 0, 57, 51
1, 123916, Note_on_c, 0, 53, 55
1, 123928, Control_c, 0, 64, 85
1, 123958, Note_on_c, 0, 57, 0
1, 123965, Control_c, 0, 64, 87
1, 123969, Note_on_c, 0, 86, 0
1, 123971, Note_on_c, 0, 84, 71
1, 123975, Note_on_c, 0, 53, 0
1, 124007, Note_on_c, 0, 60, 54
1, 124014, Note_on_c, 0, 84, 0
1, 124034, Note_on_c, 0, 86, 63
1, 124084, Note_on_c, 0, 84, 74
1, 124113, Note_on_c, 0, 86, 0
1, 124118, Note_on_c, 0, 60, 0
1, 124140, Note_on_c, 0, 84, 0
1, 124147, Note_on_c, 0, 76, 80
1, 124148, Control_c, 0, 64, 79
1, 124149, Note_on_c, 0, 55, 68
1, 124151, Note_on_c, 0, 58, 65
1, 124167, Control_c, 0, 64, 64
1, 124185, Control_c, 0, 64, 31
1, 124198, Note_on_c, 0, 58, 0
1, 124198, Note_on_c, 0, 76, 0
1, 124203, Control_c, 0, 64, 0
1, 124205, Note_on_c, 0, 55, 0
1, 124262, Note_on_c, 0, 60, 61
1, 124330, Note_on_c, 0, 60, 0
1, 124384, Note_on_c, 0, 58, 60
1, 124386, Note_on_c, 0, 55, 62
1, 124389, Note_on_c, 0, 76, 75
1, 124424, Note_on_c, 0, 76, 0
1, 124432, Note_on_c, 0, 58, 0
1, 124440, Note_on_c, 0, 55, 0
1, 124481, Note_on_c, 0, 60, 65
1, 124571, Note_on_c, 0, 60, 0
1, 124595, Note_on_c, 0, 58, 70
1, 124599, Note_on_c, 0, 55, 71
1, 124651, Note_on_c, 0, 58, 0
1, 124656, Note_on_c, 0, 55, 0
1, 124707, Note_on_c, 0, 60, 58
1, 124724, Note_on_c, 0, 84, 67
1, 124762, Note_on_c, 0, 60, 0
1, 124772, Note_on_c, 0, 84, 0
1, 124793, Note_on_c, 0, 86, 68
1, 124809, Note_on_c, 0, 58, 65
1, 124809, Note_on_c, 0, 55, 62
1, 124852, Note_on_c, 0, 58, 0
1, 124853, Note_on_c, 0, 86, 0
1, 124855, Note_on_c, 0, 55, 0
1, 124862, Note_on_c, 0, 84, 69
1, 124881, Note_on_c, 0, 60, 56
1, 124902, Note_on_c, 0, 84, 0
1, 124905, Note_on_c, 0, 86, 68
1, 124966, Note_on_c, 0, 86, 0
1, 124967, Note_on_c, 0, 84, 74
1, 125014, Note_on_c, 0, 84, 0
1, 125034, Note_on_c, 0, 60, 0
1, 125040, Note_on_c, 0, 53, 74
1, 125046, Note_on_c, 0, 80, 82
1, 125111, Note_on_c, 0, 53, 0
1, 125119, Control_c, 0, 64, 18
1, 125140, Control_c, 0, 64, 35
1, 125157, Control_c, 0, 64, 48
1, 125166, Note_on_c, 0, 60, 71
1, 125177, Control_c, 0, 64, 53
1, 125215, Control_c, 0, 64, 56
1, 125232, Control_c, 0, 64, 58
1, 125252, Control_c, 0, 64, 60
1, 125270, Control_c, 0, 64, 62
1, 125282, Note_on_c, 0, 53, 70
1, 125288, Control_c, 0, 64, 63
1, 125300, Note_on_c, 0, 60, 0
1, 125324, Control_c, 0, 64, 64
1, 125361, Control_c, 0, 64, 65
1, 125365, Note_on_c, 0, 53, 0
1, 125393, Note_on_c, 0, 60, 70
1, 125398, Control_c, 0, 64, 66
1, 125509, Note_on_c, 0, 53, 78
1, 125512, Note_on_c, 0, 60, 0
1, 125604, Note_on_c, 0, 53, 0
1, 125639, Note_on_c, 0, 60, 77
1, 125741, Control_c, 0, 64, 67
1, 125741, Note_on_c, 0, 60, 0
1, 125748, Note_on_c, 0, 53, 76
1, 125779, Control_c, 0, 64, 71
1, 125798, Control_c, 0, 64, 73
1, 125829, Note_on_c, 0, 53, 0
1, 125835, Control_c, 0, 64, 76
1, 125852, Note_on_c, 0, 60, 81
1, 125871, Control_c, 0, 64, 78
1, 125962, Control_c, 0, 64, 75
1, 125966, Note_on_c, 0, 89, 91
1, 125971, Note_on_c, 0, 53, 81
1, 125974, Note_on_c, 0, 60, 0
1, 125982, Control_c, 0, 64, 65
1, 126002, Control_c, 0, 64, 38
1, 126019, Control_c, 0, 64, 0
1, 126078, Note_on_c, 0, 53, 0
1, 126081, Note_on_c, 0, 61, 81
1, 126112, Control_c, 0, 64, 30
1, 126130, Control_c, 0, 64, 49
1, 126151, Control_c, 0, 64, 58
1, 126167, Control_c, 0, 64, 61
1, 126185, Note_on_c, 0, 80, 0
1, 126185, Control_c, 0, 64, 63
1, 126190, Note_on_c, 0, 61, 0
1, 126195, Note_on_c, 0, 53, 81
1, 126206, Control_c, 0, 64, 65
1, 126240, Control_c, 0, 64, 66
1, 126259, Control_c, 0, 64, 67
1, 126279, Control_c, 0, 64, 69
1, 126291, Note_on_c, 0, 53, 0
1, 126303, Note_on_c, 0, 61, 82
1, 126316, Control_c, 0, 64, 72
1, 126354, Control_c, 0, 64, 75
1, 126371, Control_c, 0, 64, 77
1, 126410, Control_c, 0, 64, 81
1, 126414, Note_on_c, 0, 53, 87
1, 126428, Note_on_c, 0, 61, 0
1, 126446, Control_c, 0, 64, 84
1, 126465, Control_c, 0, 64, 87
1, 126512, Control_c, 0, 64, 91
1, 126519, Note_on_c, 0, 53, 0
1, 126540, Note_on_c, 0, 61, 86
1, 126556, Poly_aftertouch_c, 0, 56, 0
1, 126558, Note_on_c, 0, 89, 0
1, 126654, Note_on_c, 0, 53, 79
1, 126657, Note_on_c, 0, 61, 0
1, 126742, Note_on_c, 0, 61, 72
1, 126778, Note_on_c, 0, 53, 0
1, 126780, Note_on_c, 0, 61, 0
1, 126883, Control_c, 0, 64, 87
1, 126890, Note_on_c, 0, 51, 87
1, 126894, Note_on_c, 0, 79, 90
1, 126902, Control_c, 0, 64, 77
1, 126919, Control_c, 0, 64, 58
1, 126940, Control_c, 0, 64, 0
1, 127028, Note_on_c, 0, 61, 73
1, 127049, Note_on_c, 0, 51, 0
1, 127087, Control_c, 0, 64, 17
1, 127104, Control_c, 0, 64, 30
1, 127106, Note_on_c, 0, 89, 87
1, 127123, Control_c, 0, 64, 40
1, 127143, Control_c, 0, 64, 45
1, 127145, Note_on_c, 0, 51, 78
1, 127160, Note_on_c, 0, 61, 0
1, 127161, Control_c, 0, 64, 47
1, 127178, Control_c, 0, 64, 50
1, 127197, Control_c, 0, 64, 52
1, 127235, Control_c, 0, 64, 54
1, 127243, Note_on_c, 0, 51, 0
1, 127252, Note_on_c, 0, 61, 69
1, 127345, Note_on_c, 0, 87, 85
1, 127352, Note_on_c, 0, 61, 0
1, 127356, Note_on_c, 0, 51, 80
1, 127382, Control_c, 0, 64, 52
1, 127400, Control_c, 0, 64, 39
1, 127429, Control_c, 0, 64, 0
1, 127438, Note_on_c, 0, 89, 0
1, 127468, Note_on_c, 0, 60, 71
1, 127480, Note_on_c, 0, 51, 0
1, 127540, Note_on_c, 0, 79, 0
1, 127540, Control_c, 0, 64, 9
1, 127558, Control_c, 0, 64, 35
1, 127577, Control_c, 0, 64, 50
1, 127580, Note_on_c, 0, 80, 88
1, 127587, Note_on_c, 0, 51, 71
1, 127604, Note_on_c, 0, 60, 0
1, 127613, Note_on_c, 0, 87, 0
1, 127613, Control_c, 0, 64, 54
1, 127633, Control_c, 0, 64, 56
1, 127671, Control_c, 0, 64, 58
1, 127678, Note_on_c, 0, 51, 0
1, 127680, Note_on_c, 0, 60, 61
1, 127762, Control_c, 0, 64, 60
1, 127770, Note_on_c, 0, 60, 0
1, 127793, Note_on_c, 0, 80, 0
1, 127807, Note_on_c, 0, 79, 87
1, 127813, Note_on_c, 0, 51, 73
1, 127818, Control_c, 0, 64, 57
1, 127836, Control_c, 0, 64, 51
1, 127855, Control_c, 0, 64, 39
1, 127871, Note_on_c, 0, 51, 0
1, 127874, Control_c, 0, 64, 10
1, 127892, Control_c, 0, 64, 0
1, 127913, Note_on_c, 0, 58, 67
1, 127984, Control_c, 0, 64, 19
1, 128004, Control_c, 0, 64, 37
1, 128022, Control_c, 0, 64, 50
1, 128032, Note_on_c, 0, 51, 57
1, 128034, Note_on_c, 0, 58, 0
1, 128040, Control_c, 0, 64, 52
1, 128046, Note_on_c, 0, 85, 86
1, 128079, Control_c, 0, 64, 55
1, 128103, Note_on_c, 0, 51, 0
1, 128124, Note_on_c, 0, 58, 57
1, 128188, Control_c, 0, 64, 57
1, 128232, Note_on_c, 0, 85, 0
1, 128236, Note_on_c, 0, 58, 0
1, 128262, Control_c, 0, 64, 53
1, 128262, Note_on_c, 0, 51, 65
1, 128269, Note_on_c, 0, 84, 82
1, 128282, Control_c, 0, 64, 45
1, 128300, Control_c, 0, 64, 29
1, 128318, Control_c, 0, 64, 0
1, 128341, Poly_aftertouch_c, 0, 85, 0
1, 128359, Note_on_c, 0, 51, 0
1, 128372, Note_on_c, 0, 56, 61
1, 128383, Control_c, 0, 64, 15
1, 128401, Control_c, 0, 64, 32
1, 128417, Note_on_c, 0, 79, 0
1, 128419, Control_c, 0, 64, 49
1, 128439, Control_c, 0, 64, 55
1, 128476, Control_c, 0, 64, 57
1, 128486, Note_on_c, 0, 56, 0
1, 128486, Note_on_c, 0, 84, 0
1, 128492, Control_c, 0, 64, 60
1, 128504, Note_on_c, 0, 80, 81
1, 128511, Control_c, 0, 64, 62
1, 128518, Note_on_c, 0, 51, 57
1, 128531, Control_c, 0, 64, 64
1, 128549, Control_c, 0, 64, 65
1, 128576, Note_on_c, 0, 51, 0
1, 128587, Note_on_c, 0, 56, 61
1, 128642, Control_c, 0, 64, 66
1, 128696, Note_on_c, 0, 56, 0
1, 128696, Control_c, 0, 64, 63
1, 128715, Control_c, 0, 64, 60
1, 128723, Note_on_c, 0, 80, 0
1, 128735, Control_c, 0, 64, 54
1, 128738, Note_on_c, 0, 79, 86
1, 128745, Note_on_c, 0, 51, 59
1, 128754, Control_c, 0, 64, 46
1, 128772, Control_c, 0, 64, 30
1, 128790, Control_c, 0, 64, 0
1, 128827, Note_on_c, 0, 51, 0
1, 128858, Note_on_c, 0, 61, 63
1, 128920, Control_c, 0, 64, 23
1, 128939, Control_c, 0, 64, 39
1, 128957, Control_c, 0, 64, 52
1, 128968, Note_on_c, 0, 89, 83
1, 128972, Note_on_c, 0, 61, 0
1, 128974, Control_c, 0, 64, 58
1, 128979, Note_on_c, 0, 51, 60
1, 128995, Control_c, 0, 64, 61
1, 129013, Control_c, 0, 64, 62
1, 129032, Control_c, 0, 64, 64
1, 129039, Note_on_c, 0, 51, 0
1, 129049, Control_c, 0, 64, 66
1, 129085, Control_c, 0, 64, 67
1, 129089, Note_on_c, 0, 61, 58
1, 129178, Note_on_c, 0, 61, 0
1, 129179, Control_c, 0, 64, 65
1, 129197, Control_c, 0, 64, 63
1, 129200, Note_on_c, 0, 87, 84
1, 129203, Note_on_c, 0, 51, 59
1, 129217, Control_c, 0, 64, 58
1, 129234, Control_c, 0, 64, 49
1, 129251, Note_on_c, 0, 89, 0
1, 129251, Control_c, 0, 64, 37
1, 129271, Control_c, 0, 64, 25
1, 129275, Note_on_c, 0, 51, 0
1, 129299, Control_c, 0, 64, 20
1, 129323, Note_on_c, 0, 60, 59
1, 129394, Control_c, 0, 64, 29
1, 129402, Note_on_c, 0, 79, 0
1, 129412, Control_c, 0, 64, 40
1, 129426, Note_on_c, 0, 60, 0
1, 129430, Control_c, 0, 64, 52
1, 129441, Note_on_c, 0, 51, 62
1, 129443, Note_on_c, 0, 80, 81
1, 129448, Control_c, 0, 64, 59
1, 129451, Note_on_c, 0, 87, 0
1, 129467, Control_c, 0, 64, 61
1, 129485, Control_c, 0, 64, 63
1, 129503, Control_c, 0, 64, 64
1, 129512, Note_on_c, 0, 51, 0
1, 129522, Control_c, 0, 64, 65
1, 129541, Control_c, 0, 64, 66
1, 129561, Note_on_c, 0, 60, 54
1, 129625, Note_on_c, 0, 60, 0
1, 129652, Control_c, 0, 64, 64
1, 129670, Control_c, 0, 64, 60
1, 129673, Note_on_c, 0, 79, 80
1, 129675, Note_on_c, 0, 51, 53
1, 129690, Control_c, 0, 64, 51
1, 129691, Note_on_c, 0, 80, 0
1, 129707, Control_c, 0, 64, 34
1, 129725, Control_c, 0, 64, 0
1, 129748, Note_on_c, 0, 51, 0
1, 129783, Note_on_c, 0, 58, 58
1, 129860, Note_on_c, 0, 58, 0
1, 129874, Control_c, 0, 64, 25
1, 129892, Control_c, 0, 64, 43
1, 129902, Note_on_c, 0, 85, 76
1, 129905, Note_on_c, 0, 51, 55
1, 129910, Control_c, 0, 64, 55
1, 129930, Control_c, 0, 64, 59
1, 129967, Note_on_c, 0, 51, 0
1, 129967, Control_c, 0, 64, 61
1, 129983, Control_c, 0, 64, 62
1, 130003, Note_on_c, 0, 58, 59
1, 130067, Note_on_c, 0, 58, 0
1, 130097, Control_c, 0, 64, 61
1, 130114, Control_c, 0, 64, 57
1, 130134, Control_c, 0, 64, 51
1, 130136, Note_on_c, 0, 51, 53
1, 130143, Note_on_c, 0, 84, 74
1, 130152, Control_c, 0, 64, 41
1, 130169, Control_c, 0, 64, 28
1, 130176, Note_on_c, 0, 79, 0
1, 130187, Control_c, 0, 64, 17
1, 130195, Note_on_c, 0, 85, 0
1, 130202, Note_on_c, 0, 51, 0
1, 130251, Note_on_c, 0, 56, 57
1, 130292, Control_c, 0, 64, 24
1, 130309, Control_c, 0, 64, 35
1, 130329, Control_c, 0, 64, 47
1, 130332, Note_on_c, 0, 56, 0
1, 130348, Control_c, 0, 64, 54
1, 130364, Control_c, 0, 64, 56
1, 130375, Note_on_c, 0, 51, 54
1, 130390, Note_on_c, 0, 84, 0
1, 130392, Note_on_c, 0, 80, 71
1, 130400, Control_c, 0, 64, 58
1, 130442, Note_on_c, 0, 51, 0
1, 130477, Note_on_c, 0, 56, 62
1, 130513, Control_c, 0, 64, 60
1, 130549, Control_c, 0, 64, 61
1, 130586, Control_c, 0, 64, 62
1, 130605, Note_on_c, 0, 56, 0
1, 130622, Note_on_c, 0, 80, 0
1, 130634, Note_on_c, 0, 74, 85
1, 130641, Control_c, 0, 64, 54
1, 130656, Note_on_c, 0, 51, 59
1, 130660, Control_c, 0, 64, 33
1, 130680, Control_c, 0, 64, 0
1, 130722, Note_on_c, 0, 51, 0
1, 130734, Control_c, 0, 64, 11
1, 130750, Note_on_c, 0, 56, 61
1, 130753, Control_c, 0, 64, 25
1, 130772, Control_c, 0, 64, 40
1, 130790, Control_c, 0, 64, 53
1, 130811, Control_c, 0, 64, 60
1, 130828, Control_c, 0, 64, 61
1, 130846, Control_c, 0, 64, 63
1, 130857, Note_on_c, 0, 56, 0
1, 130860, Note_on_c, 0, 83, 83
1, 130867, Control_c, 0, 64, 64
1, 130874, Note_on_c, 0, 51, 62
1, 130884, Control_c, 0, 64, 65
1, 130942, Note_on_c, 0, 51, 0
1, 130976, Note_on_c, 0, 56, 59
1, 131070, Note_on_c, 0, 56, 0
1, 131085, Note_on_c, 0, 80, 81
1, 131092, Note_on_c, 0, 51, 59
1, 131153, Note_on_c, 0, 51, 0
1, 131163, Note_on_c, 0, 74, 0
1, 131211, Note_on_c, 0, 56, 58
1, 131271, Note_on_c, 0, 56, 0
1, 131302, Note_on_c, 0, 83, 0
1, 131316, Note_on_c, 0, 74, 80
1, 131318, Note_on_c, 0, 51, 57
1, 131331, Note_on_c, 0, 80, 0
1, 131336, Control_c, 0, 64, 66
1, 131379, Note_on_c, 0, 51, 0
1, 131409, Note_on_c, 0, 56, 57
1, 131541, Note_on_c, 0, 56, 0
1, 131557, Note_on_c, 0, 75, 78
1, 131559, Control_c, 0, 64, 62
1, 131562, Note_on_c, 0, 51, 49
1, 131578, Control_c, 0, 64, 51
1, 131597, Control_c, 0, 64, 27
1, 131606, Note_on_c, 0, 74, 0
1, 131615, Control_c, 0, 64, 0
1, 131631, Note_on_c, 0, 51, 0
1, 131670, Note_on_c, 0, 55, 49
1, 131726, Control_c, 0, 64, 19
1, 131730, Note_on_c, 0, 55, 0
1, 131744, Control_c, 0, 64, 37
1, 131763, Control_c, 0, 64, 49
1, 131781, Control_c, 0, 64, 53
1, 131782, Note_on_c, 0, 51, 48
1, 131788, Note_on_c, 0, 82, 74
1, 131801, Control_c, 0, 64, 55
1, 131820, Control_c, 0, 64, 57
1, 131839, Control_c, 0, 64, 59
1, 131841, Note_on_c, 0, 51, 0
1, 131855, Control_c, 0, 64, 61
1, 131884, Note_on_c, 0, 55, 48
1, 131892, Control_c, 0, 64, 62
1, 131911, Control_c, 0, 64, 63
1, 131948, Control_c, 0, 64, 64
1, 131957, Note_on_c, 0, 55, 0
1, 132001, Control_c, 0, 64, 66
1, 132002, Note_on_c, 0, 51, 44
1, 132013, Note_on_c, 0, 75, 0
1, 132015, Note_on_c, 0, 79, 72
1, 132058, Note_on_c, 0, 82, 0
1, 132067, Note_on_c, 0, 51, 0
1, 132110, Note_on_c, 0, 55, 50
1, 132162, Control_c, 0, 64, 67
1, 132182, Note_on_c, 0, 55, 0
1, 132214, Note_on_c, 0, 79, 0
1, 132232, Note_on_c, 0, 51, 43
1, 132234, Control_c, 0, 64, 68
1, 132241, Note_on_c, 0, 75, 68
1, 132279, Note_on_c, 0, 75, 0
1, 132287, Note_on_c, 0, 51, 0
1, 132319, Note_on_c, 0, 55, 54
1, 132462, Note_on_c, 0, 55, 0
1, 132476, Control_c, 0, 64, 66
1, 132483, Note_on_c, 0, 74, 72
1, 132495, Control_c, 0, 64, 63
1, 132504, Poly_aftertouch_c, 0, 73, 0
1, 132513, Control_c, 0, 64, 58
1, 132516, Note_on_c, 0, 51, 44
1, 132531, Control_c, 0, 64, 51
1, 132551, Control_c, 0, 64, 41
1, 132569, Control_c, 0, 64, 29
1, 132588, Control_c, 0, 64, 18
1, 132605, Control_c, 0, 67, 8
1, 132638, Note_on_c, 0, 51, 0
1, 132643, Note_on_c, 0, 56, 49
1, 132700, Control_c, 0, 64, 29
1, 132701, Control_c, 0, 67, 12
1, 132710, Note_on_c, 0, 71, 62
1, 132716, Control_c, 0, 64, 42
1, 132721, Note_on_c, 0, 56, 0
1, 132734, Control_c, 0, 64, 52
1, 132751, Note_on_c, 0, 51, 44
1, 132752, Control_c, 0, 64, 56
1, 132791, Control_c, 0, 64, 59
1, 132828, Control_c, 0, 64, 60
1, 132840, Note_on_c, 0, 51, 0
1, 132864, Control_c, 0, 64, 61
1, 132865, Note_on_c, 0, 56, 52
1, 132932, Note_on_c, 0, 56, 0
1, 132937, Control_c, 0, 67, 8
1, 132951, Note_on_c, 0, 68, 62
1, 132955, Control_c, 0, 64, 62
1, 132973, Note_on_c, 0, 71, 0
1, 132976, Control_c, 0, 64, 63
1, 132979, Note_on_c, 0, 51, 53
1, 133060, Note_on_c, 0, 51, 0
1, 133060, Control_c, 0, 64, 64
1, 133092, Note_on_c, 0, 56, 50
1, 133150, Note_on_c, 0, 74, 0
1, 133155, Note_on_c, 0, 56, 0
1, 133187, Note_on_c, 0, 68, 0
1, 133192, Note_on_c, 0, 62, 61
1, 133213, Note_on_c, 0, 51, 47
1, 133285, Note_on_c, 0, 51, 0
1, 133302, Note_on_c, 0, 56, 50
1, 133394, Control_c, 0, 67, 12
1, 133398, Note_on_c, 0, 56, 0
1, 133427, Note_on_c, 0, 62, 0
1, 133428, Note_on_c, 0, 63, 62
1, 133432, Note_on_c, 0, 51, 45
1, 133432, Control_c, 0, 64, 61
1, 133450, Control_c, 0, 64, 54
1, 133452, Control_c, 0, 67, 19
1, 133470, Control_c, 0, 64, 38
1, 133486, Control_c, 0, 64, 0
1, 133487, Control_c, 0, 67, 23
1, 133520, Note_on_c, 0, 51, 0
1, 133522, Control_c, 0, 67, 30
1, 133543, Note_on_c, 0, 55, 44
1, 133561, Control_c, 0, 67, 35
1, 133580, Control_c, 0, 67, 39
1, 133598, Control_c, 0, 64, 15
1, 133616, Note_on_c, 0, 55, 0
1, 133617, Control_c, 0, 64, 33
1, 133636, Control_c, 0, 64, 49
1, 133655, Control_c, 0, 64, 58
1, 133661, Note_on_c, 0, 70, 57
1, 133670, Control_c, 0, 64, 61
1, 133673, Note_on_c, 0, 51, 42
1, 133709, Control_c, 0, 64, 63
1, 133727, Control_c, 0, 64, 65
1, 133736, Note_on_c, 0, 51, 0
1, 133745, Control_c, 0, 64, 66
1, 133762, Note_on_c, 0, 55, 47
1, 133765, Control_c, 0, 64, 67
1, 133821, Control_c, 0, 64, 68
1, 133844, Note_on_c, 0, 55, 0
1, 133875, Control_c, 0, 64, 70
1, 133886, Note_on_c, 0, 51, 45
1, 133893, Note_on_c, 0, 67, 60
1, 133893, Control_c, 0, 67, 35
1, 133931, Control_c, 0, 64, 72
1, 133946, Note_on_c, 0, 63, 0
1, 133955, Note_on_c, 0, 70, 0
1, 133977, Note_on_c, 0, 51, 0
1, 133997, Control_c, 0, 64, 74
1, 133998, Control_c, 0, 67, 30
1, 134005, Note_on_c, 0, 55, 52
1, 134051, Control_c, 0, 64, 76
1, 134070, Control_c, 0, 67, 26
1, 134075, Note_on_c, 0, 55, 0
1, 134134, Note_on_c, 0, 51, 45
1, 134136, Note_on_c, 0, 63, 68
1, 134138, Note_on_c, 0, 67, 0
1, 134163, Control_c, 0, 67, 22
1, 134196, Note_on_c, 0, 51, 0
1, 134210, Note_on_c, 0, 55, 51
1, 134294, Note_on_c, 0, 55, 0
1, 134312, Control_c, 0, 64, 71
1, 134329, Control_c, 0, 64, 62
1, 134330, Control_c, 0, 67, 26
1, 134349, Control_c, 0, 64, 42
1, 134367, Control_c, 0, 64, 0
1, 134368, Control_c, 0, 67, 31
1, 134384, Note_on_c, 0, 63, 0
1, 134385, Note_on_c, 0, 62, 73
1, 134404, Control_c, 0, 67, 36
1, 134422, Note_on_c, 0, 56, 45
1, 134440, Control_c, 0, 67, 41
1, 134446, Note_on_c, 0, 51, 36
1, 134477, Control_c, 0, 67, 49
1, 134497, Control_c, 0, 67, 57
1, 134515, Control_c, 0, 67, 66
1, 134533, Control_c, 0, 67, 74
1, 134552, Control_c, 0, 67, 80
1, 134571, Control_c, 0, 67, 84
1, 134590, Control_c, 0, 67, 89
1, 134606, Control_c, 0, 67, 93
1, 134625, Control_c, 0, 67, 100
1, 134633, Note_on_c, 0, 59, 68
1, 134644, Control_c, 0, 67, 106
1, 134663, Control_c, 0, 67, 114
1, 134669, Note_on_c, 0, 62, 0
1, 134683, Control_c, 0, 67, 122
1, 134700, Control_c, 0, 67, 127
1, 134897, Note_on_c, 0, 58, 66
1, 134908, Note_on_c, 0, 59, 0
1, 135155, Note_on_c, 0, 58, 0
1, 135162, Note_on_c, 0, 62, 64
1, 135414, Note_on_c, 0, 65, 58
1, 135446, Note_on_c, 0, 62, 0
1, 135681, Note_on_c, 0, 68, 55
1, 135722, Note_on_c, 0, 65, 0
1, 135979, Note_on_c, 0, 71, 56
1, 135998, Note_on_c, 0, 68, 0
1, 136248, Note_on_c, 0, 71, 0
1, 136254, Note_on_c, 0, 62, 44
1, 136491, Note_on_c, 0, 62, 0
1, 136507, Note_on_c, 0, 63, 47
1, 136552, Note_on_c, 0, 55, 30
1, 136553, Note_on_c, 0, 56, 0
1, 136672, Note_on_c, 0, 55, 0
1, 136700, Control_c, 0, 64, 22
1, 136719, Control_c, 0, 64, 36
1, 136738, Control_c, 0, 64, 46
1, 136754, Poly_aftertouch_c, 0, 51, 24
1, 136755, Control_c, 0, 64, 51
1, 136784, Control_c, 0, 64, 55
1, 136788, Poly_aftertouch_c, 0, 55, 0
1, 136789, Note_on_c, 0, 51, 0
1, 136803, Control_c, 0, 64, 58
1, 136822, Control_c, 0, 64, 61
1, 136840, Control_c, 0, 64, 63
1, 136857, Control_c, 0, 64, 65
1, 136875, Control_c, 0, 64, 67
1, 136907, Note_on_c, 0, 63, 0
1, 136913, Control_c, 0, 64, 68
1, 136939, Note_on_c, 0, 62, 49
1, 136950, Control_c, 0, 64, 66
1, 136970, Control_c, 0, 64, 62
1, 136988, Control_c, 0, 64, 55
1, 137007, Control_c, 0, 64, 45
1, 137021, Note_on_c, 0, 62, 0
1, 137025, Control_c, 0, 64, 30
1, 137042, Control_c, 0, 64, 0
1, 137059, Note_on_c, 0, 63, 54
1, 137067, Note_on_c, 0, 55, 39
1, 137076, Note_on_c, 0, 51, 33
1, 137120, Note_on_c, 0, 55, 0
1, 137129, Note_on_c, 0, 63, 0
1, 137133, Note_on_c, 0, 51, 0
1, 137177, Note_on_c, 0, 62, 47
1, 137287, Note_on_c, 0, 62, 0
1, 137298, Note_on_c, 0, 63, 49
1, 137315, Note_on_c, 0, 51, 31
1, 137324, Note_on_c, 0, 55, 27
1, 137368, Note_on_c, 0, 51, 0
1, 137369, Note_on_c, 0, 55, 0
1, 137397, Note_on_c, 0, 63, 0
1, 137447, Note_on_c, 0, 62, 41
1, 137590, Note_on_c, 0, 62, 0
1, 137598, Note_on_c, 0, 63, 34
1, 137625, Note_on_c, 0, 55, 24
1, 137683, Poly_aftertouch_c, 0, 51, 127
1, 138215, Note_on_c, 0, 55, 0
1, 138274, Note_on_c, 0, 63, 0
1, 138288, Poly_aftertouch_c, 0, 51, 0
1, 138747, Control_c, 0, 64, 8
1, 138765, Control_c, 0, 64, 16
1, 138785, Control_c, 0, 64, 23
1, 138802, Control_c, 0, 64, 29
1, 138822, Control_c, 0, 64, 34
1, 138840, Control_c, 0, 64, 39
1, 138859, Control_c, 0, 64, 44
1, 138877, Control_c, 0, 64, 46
1, 138906, Note_on_c, 0, 56, 35
1, 138915, Control_c, 0, 64, 49
1, 138925, Note_on_c, 0, 44, 34
1, 138971, Control_c, 0, 64, 51
1, 139027, Control_c, 0, 64, 54
1, 139083, Control_c, 0, 64, 56
1, 139119, Control_c, 0, 64, 58
1, 139175, Control_c, 0, 64, 60
1, 139231, Control_c, 0, 64, 61
1, 139285, Control_c, 0, 64, 62
1, 139342, Control_c, 0, 64, 63
1, 139379, Control_c, 0, 64, 64
1, 139435, Control_c, 0, 64, 65
1, 139508, Control_c, 0, 64, 66
1, 139540, Note_on_c, 0, 51, 32
1, 139541, Note_on_c, 0, 39, 28
1, 139563, Control_c, 0, 64, 67
1, 139617, Note_on_c, 0, 44, 0
1, 139885, Note_on_c, 0, 56, 0
1, 140149, Note_on_c, 0, 51, 0
1, 140173, Note_on_c, 0, 48, 32
1, 140197, Note_on_c, 0, 36, 34
1, 140319, Note_on_c, 0, 39, 0
1, 140333, Control_c, 0, 64, 69
1, 140425, Control_c, 0, 64, 71
1, 140518, Control_c, 0, 64, 73
1, 140600, Control_c, 0, 64, 75
1, 140758, Note_on_c, 0, 36, 0
1, 140764, Note_on_c, 0, 48, 0
1, 141091, Note_on_c, 0, 53, 39
1, 141106, Note_on_c, 0, 41, 25
1, 141429, Note_on_c, 0, 46, 40
1, 141442, Note_on_c, 0, 34, 36
1, 141481, Control_c, 0, 64, 73
1, 141483, Note_on_c, 0, 41, 0
1, 141536, Control_c, 0, 64, 71
1, 141573, Control_c, 0, 64, 69
1, 141592, Control_c, 0, 64, 66
1, 141610, Control_c, 0, 64, 63
1, 141629, Control_c, 0, 64, 61
1, 141648, Control_c, 0, 64, 58
1, 141668, Control_c, 0, 64, 56
1, 141704, Control_c, 0, 64, 53
1, 141707, Note_on_c, 0, 53, 0
1, 141758, Control_c, 0, 64, 50
1, 141779, Control_c, 0, 64, 47
1, 141796, Control_c, 0, 64, 43
1, 141814, Control_c, 0, 64, 39
1, 141905, Control_c, 0, 64, 48
1, 141925, Control_c, 0, 64, 56
1, 141944, Control_c, 0, 64, 62
1, 141962, Control_c, 0, 64, 65
1, 141981, Control_c, 0, 64, 66
1, 142000, Control_c, 0, 64, 68
1, 142019, Control_c, 0, 64, 70
1, 142037, Control_c, 0, 64, 72
1, 142056, Control_c, 0, 64, 75
1, 142075, Control_c, 0, 64, 77
1, 142077, Note_on_c, 0, 34, 0
1, 142114, Note_on_c, 0, 46, 0
1, 142284, Note_on_c, 0, 51, 40
1, 142312, Note_on_c, 0, 39, 33
1, 142612, Note_on_c, 0, 51, 0
1, 142657, Control_c, 0, 64, 73
1, 142661, Note_on_c, 0, 39, 0
1, 142665, Note_on_c, 0, 44, 38
1, 142677, Control_c, 0, 64, 70
1, 142677, Note_on_c, 0, 32, 32
1, 142695, Control_c, 0, 64, 66
1, 142712, Control_c, 0, 64, 61
1, 142732, Control_c, 0, 64, 57
1, 142750, Control_c, 0, 64, 51
1, 142769, Control_c, 0, 64, 43
1, 142785, Control_c, 0, 64, 31
1, 142823, Control_c, 0, 64, 0
1, 142955, Control_c, 0, 64, 27
1, 142970, Control_c, 0, 64, 44
1, 142990, Control_c, 0, 64, 55
1, 143008, Control_c, 0, 64, 60
1, 143027, Control_c, 0, 64, 63
1, 143045, Control_c, 0, 64, 64
1, 143057, Note_on_c, 0, 44, 0
1, 143063, Control_c, 0, 64, 67
1, 143084, Control_c, 0, 64, 69
1, 143101, Control_c, 0, 64, 71
1, 143119, Control_c, 0, 64, 73
1, 143139, Control_c, 0, 64, 76
1, 143155, Control_c, 0, 64, 78
1, 143174, Control_c, 0, 64, 80
1, 143212, Control_c, 0, 64, 83
1, 143249, Control_c, 0, 64, 86
1, 143262, Note_on_c, 0, 32, 0
1, 143306, Control_c, 0, 64, 81
1, 143324, Control_c, 0, 64, 67
1, 143350, Control_c, 0, 64, 40
1, 143369, Control_c, 0, 64, 0
1, 143497, Note_on_c, 0, 72, 66
1, 143766, Note_on_c, 0, 61, 72
1, 143816, Note_on_c, 0, 72, 0
1, 144032, Note_on_c, 0, 56, 43
1, 144044, Note_on_c, 0, 53, 46
1, 144239, Note_on_c, 0, 56, 0
1, 144281, Note_on_c, 0, 58, 61
1, 144288, Note_on_c, 0, 53, 0
1, 144306, Note_on_c, 0, 55, 46
1, 144337, Note_on_c, 0, 61, 0
1, 144454, Control_c, 0, 64, 10
1, 144471, Control_c, 0, 64, 21
1, 144490, Control_c, 0, 64, 28
1, 144507, Control_c, 0, 64, 32
1, 144515, Note_on_c, 0, 70, 62
1, 144538, Note_on_c, 0, 55, 0
1, 144564, Note_on_c, 0, 58, 0
1, 144656, Control_c, 0, 64, 25
1, 144674, Control_c, 0, 64, 15
1, 144694, Control_c, 0, 64, 0
1, 144776, Note_on_c, 0, 70, 0
1, 144786, Note_on_c, 0, 60, 61
1, 145039, Note_on_c, 0, 52, 49
1, 145047, Note_on_c, 0, 55, 45
1, 145251, Note_on_c, 0, 52, 0
1, 145279, Note_on_c, 0, 55, 0
1, 145295, Note_on_c, 0, 56, 54
1, 145306, Note_on_c, 0, 53, 52
1, 145315, Control_c, 0, 64, 12
1, 145332, Note_on_c, 0, 60, 0
1, 145333, Control_c, 0, 64, 30
1, 145352, Control_c, 0, 64, 41
1, 145370, Control_c, 0, 64, 46
1, 145389, Control_c, 0, 64, 48
1, 145406, Control_c, 0, 64, 51
1, 145425, Control_c, 0, 64, 53
1, 145443, Control_c, 0, 64, 55
1, 145512, Note_on_c, 0, 53, 0
1, 145524, Note_on_c, 0, 56, 0
1, 145542, Note_on_c, 0, 68, 53
1, 145574, Control_c, 0, 64, 52
1, 145592, Control_c, 0, 64, 49
1, 145610, Control_c, 0, 64, 46
1, 145625, Note_on_c, 0, 68, 0
1, 145629, Control_c, 0, 64, 39
1, 145647, Control_c, 0, 64, 24
1, 145666, Control_c, 0, 64, 0
1, 145772, Note_on_c, 0, 59, 62
1, 145882, Note_on_c, 0, 59, 0
1, 145909, Note_on_c, 0, 59, 39
1, 145999, Control_c, 0, 64, 11
1, 146008, Note_on_c, 0, 59, 0
1, 146018, Control_c, 0, 64, 37
1, 146036, Note_on_c, 0, 53, 73
1, 146038, Control_c, 0, 64, 55
1, 146041, Note_on_c, 0, 50, 67
1, 146056, Control_c, 0, 64, 64
1, 146062, Note_on_c, 0, 68, 41
1, 146072, Note_on_c, 0, 50, 0
1, 146074, Control_c, 0, 64, 65
1, 146077, Note_on_c, 0, 53, 0
1, 146112, Control_c, 0, 64, 61
1, 146129, Control_c, 0, 64, 52
1, 146157, Control_c, 0, 64, 32
1, 146159, Note_on_c, 0, 68, 0
1, 146174, Control_c, 0, 64, 0
1, 146264, Note_on_c, 0, 60, 69
1, 146510, Note_on_c, 0, 51, 68
1, 146511, Note_on_c, 0, 48, 71
1, 146516, Note_on_c, 0, 68, 62
1, 146542, Note_on_c, 0, 51, 0
1, 146544, Note_on_c, 0, 48, 0
1, 146620, Note_on_c, 0, 68, 0
1, 146654, Note_on_c, 0, 60, 0
1, 146697, Poly_aftertouch_c, 0, 68, 0
1, 146748, Note_on_c, 0, 62, 73
1, 146985, Note_on_c, 0, 50, 68
1, 146992, Note_on_c, 0, 47, 59
1, 146998, Note_on_c, 0, 68, 61
1, 147017, Note_on_c, 0, 50, 0
1, 147032, Note_on_c, 0, 47, 0
1, 147131, Note_on_c, 0, 68, 0
1, 147223, Note_on_c, 0, 62, 0
1, 147229, Note_on_c, 0, 60, 76
1, 147467, Note_on_c, 0, 68, 67
1, 147470, Note_on_c, 0, 51, 59
1, 147474, Note_on_c, 0, 48, 56
1, 147497, Note_on_c, 0, 60, 0
1, 147508, Note_on_c, 0, 48, 0
1, 147512, Note_on_c, 0, 51, 0
1, 147513, Note_on_c, 0, 68, 0
1, 147694, Note_on_c, 0, 59, 67
1, 147743, Note_on_c, 0, 59, 0
1, 147799, Note_on_c, 0, 68, 50
1, 147867, Note_on_c, 0, 68, 0
1, 147903, Note_on_c, 0, 59, 50
1, 147914, Note_on_c, 0, 50, 59
1, 147922, Note_on_c, 0, 53, 54
1, 147953, Note_on_c, 0, 50, 0
1, 147959, Note_on_c, 0, 53, 0
1, 147965, Note_on_c, 0, 59, 0
1, 148030, Note_on_c, 0, 68, 53
1, 148101, Note_on_c, 0, 68, 0
1, 148143, Note_on_c, 0, 60, 60
1, 148195, Note_on_c, 0, 60, 0
1, 148252, Note_on_c, 0, 68, 53
1, 148314, Note_on_c, 0, 68, 0
1, 148337, Note_on_c, 0, 60, 61
1, 148363, Note_on_c, 0, 51, 53
1, 148365, Note_on_c, 0, 48, 57
1, 148395, Note_on_c, 0, 48, 0
1, 148395, Note_on_c, 0, 51, 0
1, 148401, Note_on_c, 0, 60, 0
1, 148454, Note_on_c, 0, 68, 58
1, 148547, Note_on_c, 0, 68, 0
1, 148567, Note_on_c, 0, 62, 70
1, 148641, Note_on_c, 0, 62, 0
1, 148683, Note_on_c, 0, 68, 60
1, 148754, Note_on_c, 0, 68, 0
1, 148784, Note_on_c, 0, 62, 65
1, 148801, Note_on_c, 0, 50, 60
1, 148813, Note_on_c, 0, 47, 47
1, 148836, Note_on_c, 0, 50, 0
1, 148836, Note_on_c, 0, 62, 0
1, 148843, Note_on_c, 0, 47, 0
1, 148899, Note_on_c, 0, 68, 55
1, 148982, Note_on_c, 0, 68, 0
1, 149025, Note_on_c, 0, 59, 64
1, 149078, Note_on_c, 0, 59, 0
1, 149133, Note_on_c, 0, 68, 56
1, 149217, Note_on_c, 0, 68, 0
1, 149244, Note_on_c, 0, 59, 53
1, 149250, Note_on_c, 0, 50, 52
1, 149256, Note_on_c, 0, 53, 53
1, 149286, Note_on_c, 0, 50, 0
1, 149296, Note_on_c, 0, 53, 0
1, 149301, Note_on_c, 0, 59, 0
1, 149348, Note_on_c, 0, 68, 57
1, 149381, Note_on_c, 0, 68, 0
1, 149469, Note_on_c, 0, 60, 61
1, 149523, Note_on_c, 0, 60, 0
1, 149568, Note_on_c, 0, 72, 58
1, 149653, Note_on_c, 0, 72, 0
1, 149683, Note_on_c, 0, 51, 50
1, 149687, Note_on_c, 0, 55, 49
1, 149687, Note_on_c, 0, 60, 57
1, 149717, Note_on_c, 0, 55, 0
1, 149722, Note_on_c, 0, 51, 0
1, 149747, Note_on_c, 0, 60, 0
1, 149799, Note_on_c, 0, 72, 57
1, 149857, Note_on_c, 0, 72, 0
1, 149912, Note_on_c, 0, 59, 61
1, 149967, Note_on_c, 0, 59, 0
1, 150030, Note_on_c, 0, 71, 51
1, 150092, Note_on_c, 0, 71, 0
1, 150122, Note_on_c, 0, 59, 59
1, 150133, Note_on_c, 0, 53, 50
1, 150135, Note_on_c, 0, 50, 55
1, 150165, Note_on_c, 0, 53, 0
1, 150173, Note_on_c, 0, 50, 0
1, 150180, Note_on_c, 0, 59, 0
1, 150234, Note_on_c, 0, 71, 55
1, 150335, Note_on_c, 0, 71, 0
1, 150348, Note_on_c, 0, 60, 70
1, 150409, Note_on_c, 0, 60, 0
1, 150449, Note_on_c, 0, 72, 62
1, 150535, Note_on_c, 0, 72, 0
1, 150563, Note_on_c, 0, 60, 64
1, 150569, Note_on_c, 0, 55, 62
1, 150570, Note_on_c, 0, 51, 58
1, 150604, Note_on_c, 0, 55, 0
1, 150612, Note_on_c, 0, 51, 0
1, 150626, Note_on_c, 0, 60, 0
1, 150677, Note_on_c, 0, 72, 57
1, 150727, Note_on_c, 0, 72, 0
1, 150780, Note_on_c, 0, 61, 73
1, 150844, Note_on_c, 0, 61, 0
1, 150902, Note_on_c, 0, 73, 60
1, 150986, Note_on_c, 0, 73, 0
1, 150999, Note_on_c, 0, 61, 73
1, 151012, Note_on_c, 0, 55, 70
1, 151021, Note_on_c, 0, 52, 57
1, 151051, Note_on_c, 0, 55, 0
1, 151064, Note_on_c, 0, 52, 0
1, 151083, Note_on_c, 0, 61, 0
1, 151128, Note_on_c, 0, 73, 58
1, 151198, Note_on_c, 0, 73, 0
1, 151204, Control_c, 0, 67, 108
1, 151220, Note_on_c, 0, 62, 74
1, 151221, Control_c, 0, 67, 87
1, 151241, Control_c, 0, 67, 64
1, 151260, Control_c, 0, 67, 42
1, 151278, Control_c, 0, 67, 24
1, 151291, Note_on_c, 0, 62, 0
1, 151297, Control_c, 0, 67, 12
1, 151327, Note_on_c, 0, 74, 66
1, 151408, Control_c, 0, 67, 0
1, 151420, Note_on_c, 0, 74, 0
1, 151433, Note_on_c, 0, 62, 74
1, 151443, Note_on_c, 0, 57, 70
1, 151445, Note_on_c, 0, 53, 68
1, 151482, Note_on_c, 0, 53, 0
1, 151486, Note_on_c, 0, 57, 0
1, 151506, Note_on_c, 0, 62, 0
1, 151546, Note_on_c, 0, 74, 66
1, 151617, Note_on_c, 0, 74, 0
1, 151657, Note_on_c, 0, 61, 78
1, 151726, Note_on_c, 0, 61, 0
1, 151767, Note_on_c, 0, 73, 65
1, 151855, Note_on_c, 0, 73, 0
1, 151871, Note_on_c, 0, 61, 79
1, 151877, Note_on_c, 0, 55, 74
1, 151889, Note_on_c, 0, 52, 66
1, 151918, Note_on_c, 0, 55, 0
1, 151927, Note_on_c, 0, 52, 0
1, 151947, Note_on_c, 0, 61, 0
1, 151982, Note_on_c, 0, 73, 70
1, 152074, Note_on_c, 0, 73, 0
1, 152079, Note_on_c, 0, 62, 78
1, 152150, Note_on_c, 0, 62, 0
1, 152175, Note_on_c, 0, 74, 71
1, 152270, Note_on_c, 0, 74, 0
1, 152286, Note_on_c, 0, 62, 80
1, 152293, Note_on_c, 0, 57, 75
1, 152297, Note_on_c, 0, 53, 72
1, 152334, Note_on_c, 0, 53, 0
1, 152336, Note_on_c, 0, 57, 0
1, 152356, Note_on_c, 0, 62, 0
1, 152385, Note_on_c, 0, 74, 70
1, 152462, Note_on_c, 0, 74, 0
1, 152504, Note_on_c, 0, 63, 82
1, 152578, Note_on_c, 0, 63, 0
1, 152605, Note_on_c, 0, 75, 74
1, 152688, Note_on_c, 0, 75, 0
1, 152714, Note_on_c, 0, 63, 80
1, 152728, Note_on_c, 0, 57, 72
1, 152744, Note_on_c, 0, 53, 62
1, 152770, Note_on_c, 0, 57, 0
1, 152781, Note_on_c, 0, 53, 0
1, 152787, Note_on_c, 0, 63, 0
1, 152821, Note_on_c, 0, 75, 73
1, 152931, Note_on_c, 0, 75, 0
1, 152937, Note_on_c, 0, 59, 84
1, 152942, Note_on_c, 0, 64, 80
1, 152950, Note_on_c, 0, 56, 69
1, 152955, Note_on_c, 0, 52, 63
1, 153012, Note_on_c, 0, 64, 0
1, 153041, Control_c, 0, 64, 22
1, 153055, Note_on_c, 0, 76, 62
1, 153059, Control_c, 0, 64, 44
1, 153076, Control_c, 0, 64, 57
1, 153096, Control_c, 0, 64, 62
1, 153113, Control_c, 0, 64, 64
1, 153133, Control_c, 0, 64, 67
1, 153149, Note_on_c, 0, 76, 0
1, 153150, Control_c, 0, 64, 73
1, 153169, Note_on_c, 0, 64, 67
1, 153170, Control_c, 0, 64, 80
1, 153189, Control_c, 0, 64, 86
1, 153244, Control_c, 0, 64, 90
1, 153245, Note_on_c, 0, 64, 0
1, 153281, Control_c, 0, 64, 94
1, 153282, Note_on_c, 0, 52, 0
1, 153295, Note_on_c, 0, 76, 61
1, 153295, Note_on_c, 0, 56, 0
1, 153297, Note_on_c, 0, 59, 0
1, 153354, Control_c, 0, 64, 77
1, 153354, Note_on_c, 0, 76, 0
1, 153373, Control_c, 0, 64, 45
1, 153383, Note_on_c, 0, 64, 79
1, 153393, Control_c, 0, 64, 0
1, 153448, Note_on_c, 0, 64, 0
1, 153500, Note_on_c, 0, 76, 58
1, 153573, Note_on_c, 0, 76, 0
1, 153601, Note_on_c, 0, 62, 79
1, 153603, Note_on_c, 0, 64, 75
1, 153680, Note_on_c, 0, 64, 0
1, 153736, Note_on_c, 0, 76, 59
1, 153807, Note_on_c, 0, 76, 0
1, 153842, Note_on_c, 0, 64, 79
1, 153843, Note_on_c, 0, 68, 92
1, 153872, Note_on_c, 0, 62, 0
1, 153899, Note_on_c, 0, 64, 0
1, 153959, Note_on_c, 0, 76, 57
1, 154027, Note_on_c, 0, 76, 0
1, 154066, Note_on_c, 0, 64, 66
1, 154142, Note_on_c, 0, 64, 0
1, 154175, Note_on_c, 0, 76, 59
1, 154197, Control_c, 0, 64, 26
1, 154215, Control_c, 0, 64, 51
1, 154235, Control_c, 0, 64, 67
1, 154252, Control_c, 0, 64, 74
1, 154257, Note_on_c, 0, 68, 0
1, 154261, Note_on_c, 0, 76, 0
1, 154272, Control_c, 0, 64, 79
1, 154280, Note_on_c, 0, 64, 82
1, 154290, Control_c, 0, 64, 82
1, 154328, Control_c, 0, 64, 84
1, 154348, Note_on_c, 0, 64, 0
1, 154365, Control_c, 0, 64, 81
1, 154382, Control_c, 0, 64, 75
1, 154399, Note_on_c, 0, 76, 63
1, 154402, Control_c, 0, 64, 65
1, 154420, Control_c, 0, 64, 55
1, 154438, Control_c, 0, 64, 52
1, 154476, Control_c, 0, 64, 50
1, 154480, Note_on_c, 0, 76, 0
1, 154496, Note_on_c, 0, 64, 79
1, 154496, Note_on_c, 0, 60, 80
1, 154513, Control_c, 0, 64, 44
1, 154532, Control_c, 0, 64, 39
1, 154578, Note_on_c, 0, 64, 0
1, 154588, Note_on_c, 0, 61, 21
1, 154588, Note_on_c, 0, 61, 0
1, 154629, Note_on_c, 0, 76, 64
1, 154634, Control_c, 0, 64, 34
1, 154654, Control_c, 0, 64, 0
1, 154707, Note_on_c, 0, 76, 0
1, 154726, Note_on_c, 0, 69, 93
1, 154729, Note_on_c, 0, 64, 80
1, 154763, Control_c, 0, 64, 20
1, 154783, Control_c, 0, 64, 44
1, 154800, Note_on_c, 0, 64, 0
1, 154800, Control_c, 0, 64, 54
1, 154819, Control_c, 0, 64, 60
1, 154835, Note_on_c, 0, 76, 65
1, 154838, Control_c, 0, 64, 63
1, 154858, Control_c, 0, 64, 65
1, 154875, Control_c, 0, 64, 68
1, 154895, Control_c, 0, 64, 70
1, 154900, Note_on_c, 0, 69, 0
1, 154913, Control_c, 0, 64, 73
1, 154921, Note_on_c, 0, 76, 0
1, 154940, Note_on_c, 0, 64, 70
1, 154947, Note_on_c, 0, 60, 0
1, 154948, Control_c, 0, 64, 76
1, 154988, Control_c, 0, 64, 79
1, 155014, Note_on_c, 0, 64, 0
1, 155055, Note_on_c, 0, 76, 65
1, 155059, Control_c, 0, 64, 81
1, 155138, Note_on_c, 0, 76, 0
1, 155161, Note_on_c, 0, 64, 82
1, 155209, Control_c, 0, 64, 75
1, 155227, Control_c, 0, 64, 59
1, 155233, Note_on_c, 0, 64, 0
1, 155246, Control_c, 0, 64, 0
1, 155270, Note_on_c, 0, 76, 70
1, 155345, Note_on_c, 0, 44, 80
1, 155352, Note_on_c, 0, 47, 79
1, 155356, Note_on_c, 0, 76, 0
1, 155356, Control_c, 0, 64, 36
1, 155363, Note_on_c, 0, 64, 82
1, 155375, Control_c, 0, 64, 58
1, 155394, Control_c, 0, 64, 72
1, 155413, Control_c, 0, 64, 79
1, 155419, Note_on_c, 0, 44, 0
1, 155419, Note_on_c, 0, 47, 0
1, 155431, Control_c, 0, 64, 85
1, 155440, Note_on_c, 0, 64, 0
1, 155452, Control_c, 0, 64, 91
1, 155463, Poly_aftertouch_c, 0, 46, 0
1, 155481, Note_on_c, 0, 76, 68
1, 155486, Control_c, 0, 64, 95
1, 155569, Control_c, 0, 64, 83
1, 155577, Note_on_c, 0, 76, 0
1, 155588, Control_c, 0, 64, 55
1, 155591, Note_on_c, 0, 64, 85
1, 155596, Note_on_c, 0, 62, 90
1, 155606, Note_on_c, 0, 59, 82
1, 155606, Control_c, 0, 64, 0
1, 155667, Note_on_c, 0, 64, 0
1, 155680, Control_c, 0, 64, 26
1, 155699, Control_c, 0, 64, 47
1, 155708, Note_on_c, 0, 76, 69
1, 155718, Control_c, 0, 64, 61
1, 155737, Control_c, 0, 64, 66
1, 155755, Control_c, 0, 64, 67
1, 155793, Control_c, 0, 64, 70
1, 155800, Note_on_c, 0, 76, 0
1, 155813, Note_on_c, 0, 64, 71
1, 155830, Control_c, 0, 64, 72
1, 155862, Note_on_c, 0, 62, 0
1, 155884, Control_c, 0, 64, 75
1, 155905, Note_on_c, 0, 64, 0
1, 155907, Note_on_c, 0, 59, 0
1, 155932, Note_on_c, 0, 76, 68
1, 155997, Control_c, 0, 64, 77
1, 156022, Note_on_c, 0, 76, 0
1, 156038, Note_on_c, 0, 64, 87
1, 156107, Control_c, 0, 64, 79
1, 156109, Note_on_c, 0, 64, 0
1, 156140, Note_on_c, 0, 76, 72
1, 156143, Control_c, 0, 64, 76
1, 156162, Control_c, 0, 64, 57
1, 156182, Control_c, 0, 64, 0
1, 156222, Note_on_c, 0, 76, 0
1, 156233, Note_on_c, 0, 64, 85
1, 156241, Note_on_c, 0, 48, 82
1, 156244, Note_on_c, 0, 45, 80
1, 156254, Control_c, 0, 64, 33
1, 156273, Control_c, 0, 64, 57
1, 156292, Control_c, 0, 64, 72
1, 156307, Note_on_c, 0, 48, 0
1, 156310, Control_c, 0, 64, 82
1, 156313, Note_on_c, 0, 45, 0
1, 156315, Note_on_c, 0, 64, 0
1, 156330, Control_c, 0, 64, 92
1, 156343, Note_on_c, 0, 76, 72
1, 156349, Control_c, 0, 64, 97
1, 156384, Control_c, 0, 64, 103
1, 156451, Note_on_c, 0, 76, 0
1, 156464, Note_on_c, 0, 64, 89
1, 156467, Control_c, 0, 64, 97
1, 156469, Note_on_c, 0, 60, 93
1, 156478, Note_on_c, 0, 57, 84
1, 156485, Control_c, 0, 64, 68
1, 156505, Control_c, 0, 64, 0
1, 156538, Note_on_c, 0, 64, 0
1, 156577, Note_on_c, 0, 76, 72
1, 156580, Control_c, 0, 64, 14
1, 156599, Control_c, 0, 64, 39
1, 156617, Control_c, 0, 64, 57
1, 156634, Control_c, 0, 64, 66
1, 156653, Control_c, 0, 64, 70
1, 156672, Control_c, 0, 64, 72
1, 156686, Note_on_c, 0, 76, 0
1, 156689, Control_c, 0, 64, 76
1, 156697, Note_on_c, 0, 64, 75
1, 156709, Control_c, 0, 64, 81
1, 156713, Note_on_c, 0, 60, 0
1, 156728, Control_c, 0, 64, 86
1, 156741, Note_on_c, 0, 57, 0
1, 156765, Control_c, 0, 64, 88
1, 156783, Note_on_c, 0, 64, 0
1, 156806, Note_on_c, 0, 76, 75
1, 156857, Control_c, 0, 64, 92
1, 156898, Note_on_c, 0, 76, 0
1, 156908, Note_on_c, 0, 64, 89
1, 156969, Control_c, 0, 64, 96
1, 156990, Note_on_c, 0, 64, 0
1, 157008, Note_on_c, 0, 76, 77
1, 157042, Control_c, 0, 64, 90
1, 157062, Control_c, 0, 64, 63
1, 157079, Control_c, 0, 64, 0
1, 157095, Note_on_c, 0, 76, 0
1, 157100, Note_on_c, 0, 36, 82
1, 157100, Note_on_c, 0, 48, 95
1, 157109, Note_on_c, 0, 64, 87
1, 157136, Control_c, 0, 64, 35
1, 157149, Note_on_c, 0, 36, 0
1, 157153, Control_c, 0, 64, 60
1, 157157, Note_on_c, 0, 48, 0
1, 157172, Control_c, 0, 64, 76
1, 157183, Note_on_c, 0, 64, 0
1, 157190, Control_c, 0, 64, 93
1, 157208, Control_c, 0, 64, 106
1, 157210, Note_on_c, 0, 76, 77
1, 157313, Note_on_c, 0, 76, 0
1, 157325, Note_on_c, 0, 67, 85
1, 157332, Note_on_c, 0, 58, 101
1, 157338, Note_on_c, 0, 46, 96
1, 157404, Control_c, 0, 64, 101
1, 157421, Note_on_c, 0, 67, 0
1, 157421, Control_c, 0, 64, 90
1, 157439, Control_c, 0, 64, 77
1, 157439, Note_on_c, 0, 76, 75
1, 157460, Control_c, 0, 64, 67
1, 157478, Control_c, 0, 64, 61
1, 157498, Control_c, 0, 64, 57
1, 157513, Control_c, 0, 64, 52
1, 157533, Control_c, 0, 64, 44
1, 157548, Note_on_c, 0, 76, 0
1, 157551, Control_c, 0, 64, 23
1, 157551, Note_on_c, 0, 67, 79
1, 157569, Control_c, 0, 64, 0
1, 157631, Note_on_c, 0, 67, 0
1, 157658, Note_on_c, 0, 76, 78
1, 157700, Control_c, 0, 64, 19
1, 157720, Control_c, 0, 64, 43
1, 157738, Control_c, 0, 64, 60
1, 157746, Note_on_c, 0, 76, 0
1, 157754, Note_on_c, 0, 67, 85
1, 157756, Control_c, 0, 64, 68
1, 157775, Control_c, 0, 64, 72
1, 157796, Control_c, 0, 64, 74
1, 157813, Control_c, 0, 64, 79
1, 157831, Control_c, 0, 64, 87
1, 157833, Note_on_c, 0, 67, 0
1, 157850, Control_c, 0, 64, 95
1, 157860, Note_on_c, 0, 76, 82
1, 157923, Control_c, 0, 64, 99
1, 157943, Note_on_c, 0, 76, 0
1, 157957, Note_on_c, 0, 67, 83
1, 158035, Note_on_c, 0, 67, 0
1, 158051, Note_on_c, 0, 76, 80
1, 158088, Note_on_c, 0, 46, 0
1, 158136, Note_on_c, 0, 76, 0
1, 158136, Control_c, 0, 64, 93
1, 158152, Note_on_c, 0, 75, 88
1, 158153, Note_on_c, 0, 58, 0
1, 158153, Control_c, 0, 64, 82
1, 158162, Note_on_c, 0, 47, 84
1, 158165, Note_on_c, 0, 66, 82
1, 158171, Control_c, 0, 64, 69
1, 158191, Control_c, 0, 64, 53
1, 158211, Control_c, 0, 64, 38
1, 158228, Control_c, 0, 64, 18
1, 158245, Control_c, 0, 64, 0
1, 158257, Note_on_c, 0, 47, 0
1, 158268, Note_on_c, 0, 59, 77
1, 158389, Note_on_c, 0, 47, 85
1, 158404, Note_on_c, 0, 59, 0
1, 158479, Note_on_c, 0, 47, 0
1, 158501, Note_on_c, 0, 59, 77
1, 158619, Note_on_c, 0, 47, 79
1, 158643, Note_on_c, 0, 59, 0
1, 158648, Note_on_c, 0, 66, 0
1, 158697, Note_on_c, 0, 47, 0
1, 158711, Note_on_c, 0, 59, 59
1, 158812, Control_c, 0, 64, 16
1, 158831, Control_c, 0, 64, 29
1, 158842, Note_on_c, 0, 47, 70
1, 158849, Control_c, 0, 64, 40
1, 158864, Note_on_c, 0, 59, 0
1, 158868, Control_c, 0, 64, 46
1, 158869, Control_c, 0, 67, 8
1, 158905, Control_c, 0, 67, 12
1, 158909, Note_on_c, 0, 47, 0
1, 158951, Note_on_c, 0, 59, 50
1, 158962, Control_c, 0, 64, 48
1, 158980, Control_c, 0, 67, 18
1, 159016, Control_c, 0, 67, 22
1, 159091, Control_c, 0, 67, 28
1, 159095, Note_on_c, 0, 75, 0
1, 159121, Note_on_c, 0, 78, 65
1, 159128, Control_c, 0, 67, 37
1, 159134, Note_on_c, 0, 59, 0
1, 159145, Control_c, 0, 67, 44
1, 159148, Note_on_c, 0, 47, 46
1, 159165, Control_c, 0, 67, 52
1, 159183, Control_c, 0, 67, 61
1, 159183, Note_on_c, 0, 69, 29
1, 159201, Control_c, 0, 67, 69
1, 159210, Note_on_c, 0, 47, 0
1, 159219, Control_c, 0, 67, 75
1, 159248, Control_c, 0, 67, 80
1, 159266, Control_c, 0, 67, 85
1, 159291, Note_on_c, 0, 59, 39
1, 159305, Control_c, 0, 67, 90
1, 159323, Control_c, 0, 67, 94
1, 159334, Note_on_c, 0, 59, 0
1, 159340, Control_c, 0, 64, 51
1, 159342, Control_c, 0, 67, 99
1, 159360, Control_c, 0, 67, 103
1, 159377, Control_c, 0, 64, 53
1, 159378, Note_on_c, 0, 47, 50
1, 159414, Control_c, 0, 64, 56
1, 159426, Note_on_c, 0, 47, 0
1, 159433, Control_c, 0, 64, 58
1, 159453, Control_c, 0, 64, 60
1, 159471, Control_c, 0, 64, 61
1, 159476, Note_on_c, 0, 59, 49
1, 159489, Control_c, 0, 64, 62
1, 159508, Control_c, 0, 64, 64
1, 159527, Control_c, 0, 64, 65
1, 159538, Note_on_c, 0, 59, 0
1, 159544, Control_c, 0, 64, 66
1, 159562, Control_c, 0, 64, 68
1, 159582, Note_on_c, 0, 47, 53
1, 159600, Control_c, 0, 64, 71
1, 159632, Note_on_c, 0, 47, 0
1, 159637, Control_c, 0, 64, 74
1, 159656, Control_c, 0, 64, 76
1, 159679, Note_on_c, 0, 59, 50
1, 159712, Control_c, 0, 64, 78
1, 159713, Note_on_c, 0, 69, 0
1, 159745, Note_on_c, 0, 59, 0
1, 159785, Note_on_c, 0, 47, 53
1, 159835, Note_on_c, 0, 47, 0
1, 159891, Note_on_c, 0, 59, 49
1, 159896, Control_c, 0, 67, 108
1, 159907, Note_on_c, 0, 78, 0
1, 159932, Control_c, 0, 67, 113
1, 159952, Note_on_c, 0, 59, 0
1, 159971, Control_c, 0, 67, 119
1, 159989, Control_c, 0, 67, 123
1, 160008, Control_c, 0, 64, 75
1, 160009, Control_c, 0, 67, 127
1, 160015, Note_on_c, 0, 47, 51
1, 160023, Note_on_c, 0, 78, 80
1, 160026, Control_c, 0, 64, 70
1, 160040, Note_on_c, 0, 68, 58
1, 160044, Control_c, 0, 64, 64
1, 160063, Control_c, 0, 64, 59
1, 160065, Note_on_c, 0, 47, 0
1, 160083, Control_c, 0, 64, 57
1, 160118, Control_c, 0, 64, 54
1, 160136, Control_c, 0, 64, 49
1, 160143, Note_on_c, 0, 59, 42
1, 160155, Control_c, 0, 64, 44
1, 160194, Note_on_c, 0, 59, 0
1, 160222, Control_c, 0, 64, 49
1, 160240, Control_c, 0, 64, 54
1, 160249, Note_on_c, 0, 47, 51
1, 160258, Control_c, 0, 64, 58
1, 160277, Control_c, 0, 64, 61
1, 160293, Note_on_c, 0, 47, 0
1, 160294, Control_c, 0, 64, 62
1, 160312, Control_c, 0, 64, 63
1, 160333, Control_c, 0, 64, 65
1, 160340, Note_on_c, 0, 59, 50
1, 160350, Control_c, 0, 64, 66
1, 160388, Control_c, 0, 64, 67
1, 160413, Note_on_c, 0, 59, 0
1, 160443, Control_c, 0, 64, 69
1, 160455, Note_on_c, 0, 47, 54
1, 160502, Note_on_c, 0, 47, 0
1, 160554, Control_c, 0, 64, 71
1, 160562, Note_on_c, 0, 59, 54
1, 160628, Note_on_c, 0, 59, 0
1, 160659, Note_on_c, 0, 47, 60
1, 160711, Note_on_c, 0, 47, 0
1, 160766, Note_on_c, 0, 59, 50
1, 160858, Note_on_c, 0, 59, 0
1, 160876, Note_on_c, 0, 77, 74
1, 160885, Note_on_c, 0, 47, 55
1, 160887, Control_c, 0, 64, 68
1, 160901, Note_on_c, 0, 78, 0
1, 160904, Control_c, 0, 64, 65
1, 160924, Control_c, 0, 64, 62
1, 160935, Note_on_c, 0, 47, 0
1, 161001, Note_on_c, 0, 59, 59
1, 161018, Control_c, 0, 64, 64
1, 161037, Control_c, 0, 64, 66
1, 161053, Control_c, 0, 64, 67
1, 161061, Note_on_c, 0, 59, 0
1, 161072, Control_c, 0, 64, 68
1, 161101, Note_on_c, 0, 47, 55
1, 161118, Control_c, 0, 64, 70
1, 161157, Control_c, 0, 64, 72
1, 161165, Note_on_c, 0, 47, 0
1, 161212, Control_c, 0, 64, 74
1, 161217, Note_on_c, 0, 59, 51
1, 161285, Control_c, 0, 64, 76
1, 161290, Note_on_c, 0, 59, 0
1, 161323, Note_on_c, 0, 76, 75
1, 161331, Note_on_c, 0, 47, 50
1, 161343, Note_on_c, 0, 77, 0
1, 161359, Control_c, 0, 64, 79
1, 161383, Note_on_c, 0, 47, 0
1, 161398, Control_c, 0, 64, 82
1, 161432, Control_c, 0, 64, 85
1, 161434, Note_on_c, 0, 59, 51
1, 161452, Control_c, 0, 64, 87
1, 161476, Note_on_c, 0, 59, 0
1, 161526, Control_c, 0, 64, 91
1, 161528, Note_on_c, 0, 47, 56
1, 161585, Note_on_c, 0, 47, 0
1, 161629, Note_on_c, 0, 59, 50
1, 161631, Note_on_c, 0, 76, 0
1, 161666, Note_on_c, 0, 68, 0
1, 161679, Note_on_c, 0, 59, 0
1, 161730, Control_c, 0, 64, 86
1, 161749, Control_c, 0, 64, 82
1, 161767, Note_on_c, 0, 76, 80
1, 161767, Control_c, 0, 64, 77
1, 161786, Control_c, 0, 64, 73
1, 161786, Note_on_c, 0, 67, 52
1, 161786, Note_on_c, 0, 48, 50
1, 161805, Control_c, 0, 64, 68
1, 161822, Control_c, 0, 64, 62
1, 161841, Control_c, 0, 64, 58
1, 161849, Note_on_c, 0, 48, 0
1, 161879, Control_c, 0, 64, 55
1, 161889, Note_on_c, 0, 57, 55
1, 161915, Control_c, 0, 64, 50
1, 161934, Control_c, 0, 64, 45
1, 161952, Note_on_c, 0, 57, 0
1, 161953, Control_c, 0, 64, 40
1, 161972, Control_c, 0, 67, 123
1, 161989, Note_on_c, 0, 48, 52
1, 162054, Control_c, 0, 64, 45
1, 162056, Control_c, 0, 67, 118
1, 162064, Note_on_c, 0, 48, 0
1, 162073, Control_c, 0, 64, 51
1, 162092, Control_c, 0, 64, 56
1, 162093, Control_c, 0, 67, 111
1, 162109, Control_c, 0, 64, 58
1, 162111, Control_c, 0, 67, 106
1, 162113, Note_on_c, 0, 57, 53
1, 162129, Control_c, 0, 67, 99
1, 162148, Control_c, 0, 64, 60
1, 162149, Control_c, 0, 67, 91
1, 162167, Control_c, 0, 64, 61
1, 162168, Control_c, 0, 67, 82
1, 162182, Note_on_c, 0, 57, 0
1, 162182, Control_c, 0, 67, 73
1, 162202, Control_c, 0, 67, 65
1, 162212, Note_on_c, 0, 48, 60
1, 162221, Control_c, 0, 64, 62
1, 162222, Control_c, 0, 67, 58
1, 162239, Control_c, 0, 64, 63
1, 162240, Control_c, 0, 67, 51
1, 162258, Control_c, 0, 67, 44
1, 162274, Note_on_c, 0, 48, 0
1, 162276, Control_c, 0, 64, 64
1, 162277, Control_c, 0, 67, 39
1, 162295, Control_c, 0, 67, 32
1, 162314, Control_c, 0, 67, 21
1, 162322, Note_on_c, 0, 57, 62
1, 162333, Control_c, 0, 64, 66
1, 162352, Control_c, 0, 67, 0
1, 162368, Control_c, 0, 64, 67
1, 162387, Note_on_c, 0, 57, 0
1, 162429, Note_on_c, 0, 48, 64
1, 162462, Control_c, 0, 64, 69
1, 162496, Note_on_c, 0, 48, 0
1, 162509, Note_on_c, 0, 67, 0
1, 162527, Note_on_c, 0, 57, 59
1, 162586, Note_on_c, 0, 57, 0
1, 162625, Note_on_c, 0, 49, 69
1, 162627, Control_c, 0, 64, 63
1, 162639, Note_on_c, 0, 67, 69
1, 162646, Control_c, 0, 64, 43
1, 162665, Control_c, 0, 64, 0
1, 162694, Note_on_c, 0, 49, 0
1, 162731, Note_on_c, 0, 58, 66
1, 162740, Control_c, 0, 64, 8
1, 162760, Control_c, 0, 64, 33
1, 162779, Control_c, 0, 64, 50
1, 162797, Control_c, 0, 64, 61
1, 162816, Control_c, 0, 64, 65
1, 162825, Note_on_c, 0, 58, 0
1, 162834, Control_c, 0, 64, 67
1, 162835, Note_on_c, 0, 49, 72
1, 162852, Control_c, 0, 64, 69
1, 162873, Control_c, 0, 64, 71
1, 162890, Control_c, 0, 64, 74
1, 162896, Note_on_c, 0, 49, 0
1, 162909, Control_c, 0, 64, 77
1, 162920, Note_on_c, 0, 58, 73
1, 162928, Control_c, 0, 64, 80
1, 162947, Control_c, 0, 64, 82
1, 162966, Control_c, 0, 64, 84
1, 162993, Control_c, 0, 64, 87
1, 163025, Note_on_c, 0, 76, 0
1, 163050, Control_c, 0, 64, 91
1, 163059, Note_on_c, 0, 49, 75
1, 163074, Note_on_c, 0, 58, 0
1, 163099, Note_on_c, 0, 67, 0
1, 163133, Note_on_c, 0, 49, 0
1, 163148, Note_on_c, 0, 58, 64
1, 163235, Control_c, 0, 64, 95
1, 163246, Note_on_c, 0, 58, 0
1, 163255, Note_on_c, 0, 49, 75
1, 163332, Note_on_c, 0, 49, 0
1, 163348, Note_on_c, 0, 58, 74
1, 163457, Control_c, 0, 64, 91
1, 163473, Note_on_c, 0, 58, 0
1, 163481, Note_on_c, 0, 74, 90
1, 163489, Note_on_c, 0, 50, 73
1, 163494, Control_c, 0, 64, 83
1, 163499, Note_on_c, 0, 62, 74
1, 163506, Note_on_c, 0, 71, 69
1, 163513, Control_c, 0, 64, 73
1, 163515, Note_on_c, 0, 67, 52
1, 163533, Control_c, 0, 64, 54
1, 163551, Control_c, 0, 64, 14
1, 163569, Control_c, 0, 64, 0
1, 163574, Note_on_c, 0, 50, 0
1, 163589, Note_on_c, 0, 59, 68
1, 163604, Note_on_c, 0, 67, 0
1, 163683, Note_on_c, 0, 59, 0
1, 163687, Note_on_c, 0, 50, 70
1, 163698, Control_c, 0, 64, 13
1, 163717, Control_c, 0, 64, 32
1, 163738, Control_c, 0, 64, 47
1, 163755, Control_c, 0, 64, 55
1, 163764, Note_on_c, 0, 50, 0
1, 163771, Control_c, 0, 64, 59
1, 163793, Note_on_c, 0, 59, 69
1, 163793, Control_c, 0, 64, 62
1, 163811, Control_c, 0, 64, 66
1, 163829, Control_c, 0, 64, 71
1, 163848, Control_c, 0, 64, 73
1, 163865, Control_c, 0, 64, 75
1, 163885, Control_c, 0, 64, 77
1, 163891, Note_on_c, 0, 59, 0
1, 163896, Note_on_c, 0, 50, 73
1, 163896, Control_c, 0, 64, 80
1, 163924, Control_c, 0, 64, 83
1, 163961, Control_c, 0, 64, 85
1, 163963, Note_on_c, 0, 50, 0
1, 163987, Note_on_c, 0, 59, 72
1, 164037, Control_c, 0, 64, 91
1, 164071, Control_c, 0, 64, 96
1, 164081, Note_on_c, 0, 59, 0
1, 164094, Note_on_c, 0, 50, 76
1, 164109, Control_c, 0, 64, 100
1, 164136, Poly_aftertouch_c, 0, 67, 0
1, 164173, Poly_aftertouch_c, 0, 62, 24
1, 164173, Note_on_c, 0, 50, 0
1, 164182, Note_on_c, 0, 59, 75
1, 164192, Note_on_c, 0, 62, 0
1, 164197, Poly_aftertouch_c, 0, 51, 0
1, 164273, Note_on_c, 0, 59, 0
1, 164293, Control_c, 0, 64, 92
1, 164303, Note_on_c, 0, 50, 82
1, 164308, Note_on_c, 0, 66, 86
1, 164311, Control_c, 0, 64, 72
1, 164320, Note_on_c, 0, 62, 78
1, 164331, Poly_aftertouch_c, 0, 71, 24
1, 164331, Control_c, 0, 64, 42
1, 164340, Note_on_c, 0, 71, 0
1, 164349, Control_c, 0, 64, 0
1, 164392, Note_on_c, 0, 50, 0
1, 164419, Note_on_c, 0, 57, 75
1, 164424, Control_c, 0, 64, 26
1, 164444, Control_c, 0, 64, 49
1, 164462, Control_c, 0, 64, 65
1, 164482, Control_c, 0, 64, 67
1, 164499, Control_c, 0, 64, 69
1, 164512, Note_on_c, 0, 74, 0
1, 164517, Note_on_c, 0, 57, 0
1, 164519, Control_c, 0, 64, 75
1, 164521, Note_on_c, 0, 50, 81
1, 164537, Control_c, 0, 64, 82
1, 164556, Control_c, 0, 64, 91
1, 164574, Control_c, 0, 64, 98
1, 164594, Control_c, 0, 64, 103
1, 164602, Note_on_c, 0, 50, 0
1, 164609, Control_c, 0, 64, 109
1, 164613, Note_on_c, 0, 57, 78
1, 164628, Control_c, 0, 64, 117
1, 164647, Control_c, 0, 64, 127
1, 164729, Note_on_c, 0, 50, 82
1, 164733, Note_on_c, 0, 57, 0
1, 164737, Note_on_c, 0, 72, 90
1, 164739, Note_on_c, 0, 62, 0
1, 164762, Note_on_c, 0, 62, 51
1, 164792, Note_on_c, 0, 62, 0
1, 164809, Note_on_c, 0, 66, 0
1, 164813, Note_on_c, 0, 50, 0
1, 164822, Note_on_c, 0, 72, 0
1, 164823, Note_on_c, 0, 57, 77
1, 164938, Note_on_c, 0, 57, 0
1, 164941, Note_on_c, 0, 50, 85
1, 165016, Note_on_c, 0, 50, 0
1, 165043, Note_on_c, 0, 57, 84
1, 165153, Note_on_c, 0, 57, 0
1, 165169, Note_on_c, 0, 72, 90
1, 165175, Note_on_c, 0, 43, 89
1, 165176, Control_c, 0, 64, 122
1, 165185, Note_on_c, 0, 62, 85
1, 165185, Note_on_c, 0, 65, 76
1, 165197, Control_c, 0, 64, 98
1, 165214, Control_c, 0, 64, 71
1, 165232, Control_c, 0, 64, 31
1, 165251, Control_c, 0, 64, 0
1, 165274, Note_on_c, 0, 43, 0
1, 165290, Note_on_c, 0, 55, 76
1, 165399, Control_c, 0, 64, 13
1, 165401, Note_on_c, 0, 55, 0
1, 165402, Note_on_c, 0, 43, 85
1, 165417, Control_c, 0, 64, 29
1, 165437, Control_c, 0, 64, 45
1, 165456, Control_c, 0, 64, 58
1, 165475, Control_c, 0, 64, 65
1, 165484, Note_on_c, 0, 43, 0
1, 165491, Control_c, 0, 64, 69
1, 165511, Note_on_c, 0, 55, 81
1, 165530, Control_c, 0, 64, 73
1, 165547, Control_c, 0, 64, 75
1, 165604, Control_c, 0, 64, 77
1, 165612, Note_on_c, 0, 55, 0
1, 165623, Note_on_c, 0, 43, 84
1, 165640, Control_c, 0, 64, 79
1, 165694, Note_on_c, 0, 43, 0
1, 165728, Note_on_c, 0, 55, 80
1, 165753, Control_c, 0, 64, 81
1, 165839, Note_on_c, 0, 55, 0
1, 165848, Note_on_c, 0, 43, 83
1, 165916, Note_on_c, 0, 43, 0
1, 165944, Note_on_c, 0, 55, 78
1, 166041, Control_c, 0, 64, 78
1, 166055, Note_on_c, 0, 71, 88
1, 166059, Control_c, 0, 64, 65
1, 166067, Note_on_c, 0, 43, 78
1, 166067, Note_on_c, 0, 55, 0
1, 166078, Control_c, 0, 64, 42
1, 166097, Control_c, 0, 64, 14
1, 166111, Note_on_c, 0, 72, 0
1, 166134, Control_c, 0, 64, 23
1, 166144, Note_on_c, 0, 43, 0
1, 166151, Control_c, 0, 64, 41
1, 166168, Note_on_c, 0, 55, 70
1, 166171, Control_c, 0, 64, 59
1, 166191, Control_c, 0, 64, 68
1, 166209, Control_c, 0, 64, 72
1, 166246, Control_c, 0, 64, 74
1, 166264, Note_on_c, 0, 55, 0
1, 166278, Note_on_c, 0, 43, 78
1, 166301, Control_c, 0, 64, 76
1, 166330, Note_on_c, 0, 65, 0
1, 166345, Note_on_c, 0, 43, 0
1, 166350, Note_on_c, 0, 62, 0
1, 166369, Note_on_c, 0, 55, 75
1, 166417, Poly_aftertouch_c, 0, 49, 0
1, 166432, Control_c, 0, 64, 67
1, 166451, Control_c, 0, 64, 46
1, 166453, Note_on_c, 0, 55, 0
1, 166469, Control_c, 0, 64, 0
1, 166484, Note_on_c, 0, 64, 80
1, 166484, Note_on_c, 0, 62, 79
1, 166492, Note_on_c, 0, 44, 76
1, 166563, Control_c, 0, 64, 29
1, 166571, Note_on_c, 0, 44, 0
1, 166582, Control_c, 0, 64, 50
1, 166591, Note_on_c, 0, 56, 75
1, 166601, Control_c, 0, 64, 64
1, 166618, Control_c, 0, 64, 72
1, 166638, Control_c, 0, 64, 77
1, 166656, Control_c, 0, 64, 83
1, 166674, Control_c, 0, 64, 87
1, 166676, Note_on_c, 0, 56, 0
1, 166676, Note_on_c, 0, 71, 0
1, 166692, Control_c, 0, 64, 91
1, 166693, Note_on_c, 0, 62, 0
1, 166696, Note_on_c, 0, 44, 81
1, 166711, Control_c, 0, 64, 97
1, 166728, Note_on_c, 0, 64, 0
1, 166731, Control_c, 0, 64, 103
1, 166780, Note_on_c, 0, 44, 0
1, 166797, Note_on_c, 0, 56, 80
1, 166924, Control_c, 0, 64, 96
1, 166929, Note_on_c, 0, 45, 74
1, 166932, Note_on_c, 0, 71, 93
1, 166942, Note_on_c, 0, 56, 0
1, 166943, Control_c, 0, 64, 76
1, 166945, Note_on_c, 0, 60, 75
1, 166946, Note_on_c, 0, 64, 74
1, 166962, Control_c, 0, 64, 46
1, 166980, Control_c, 0, 64, 0
1, 166999, Note_on_c, 0, 45, 0
1, 167024, Note_on_c, 0, 57, 72
1, 167056, Poly_aftertouch_c, 0, 46, 0
1, 167072, Control_c, 0, 64, 26
1, 167091, Control_c, 0, 64, 44
1, 167109, Control_c, 0, 64, 56
1, 167129, Control_c, 0, 64, 62
1, 167140, Note_on_c, 0, 57, 0
1, 167142, Note_on_c, 0, 45, 69
1, 167148, Control_c, 0, 64, 63
1, 167182, Note_on_c, 0, 46, 35
1, 167184, Control_c, 0, 64, 65
1, 167202, Control_c, 0, 64, 67
1, 167222, Control_c, 0, 64, 69
1, 167222, Note_on_c, 0, 45, 0
1, 167224, Note_on_c, 0, 46, 0
1, 167242, Note_on_c, 0, 57, 69
1, 167242, Control_c, 0, 64, 71
1, 167259, Control_c, 0, 64, 74
1, 167333, Control_c, 0, 64, 68
1, 167352, Control_c, 0, 64, 65
1, 167360, Note_on_c, 0, 45, 80
1, 167361, Note_on_c, 0, 57, 0
1, 167376, Note_on_c, 0, 46, 39
1, 167390, Control_c, 0, 64, 66
1, 167409, Control_c, 0, 64, 69
1, 167416, Note_on_c, 0, 46, 0
1, 167425, Control_c, 0, 64, 74
1, 167433, Note_on_c, 0, 45, 0
1, 167437, Note_on_c, 0, 71, 0
1, 167444, Control_c, 0, 64, 80
1, 167453, Note_on_c, 0, 57, 72
1, 167463, Control_c, 0, 64, 87
1, 167463, Note_on_c, 0, 64, 0
1, 167500, Control_c, 0, 64, 91
1, 167537, Control_c, 0, 64, 96
1, 167557, Note_on_c, 0, 57, 0
1, 167565, Note_on_c, 0, 45, 80
1, 167575, Control_c, 0, 64, 100
1, 167589, Note_on_c, 0, 46, 30
1, 167610, Control_c, 0, 64, 104
1, 167633, Note_on_c, 0, 46, 0
1, 167638, Note_on_c, 0, 60, 0
1, 167648, Note_on_c, 0, 45, 0
1, 167658, Note_on_c, 0, 57, 82
1, 167718, Note_on_c, 0, 57, 0
1, 167785, Note_on_c, 0, 69, 86
1, 167787, Control_c, 0, 64, 87
1, 167800, Note_on_c, 0, 63, 77
1, 167800, Note_on_c, 0, 41, 84
1, 167800, Note_on_c, 0, 60, 80
1, 167806, Control_c, 0, 64, 64
1, 167826, Control_c, 0, 64, 13
1, 167844, Control_c, 0, 64, 0
1, 167890, Note_on_c, 0, 41, 0
1, 167906, Note_on_c, 0, 53, 78
1, 167957, Control_c, 0, 64, 30
1, 167976, Control_c, 0, 64, 52
1, 167991, Control_c, 0, 64, 63
1, 168006, Note_on_c, 0, 53, 0
1, 168011, Control_c, 0, 64, 67
1, 168015, Note_on_c, 0, 41, 87
1, 168030, Control_c, 0, 64, 70
1, 168048, Control_c, 0, 64, 73
1, 168067, Control_c, 0, 64, 77
1, 168081, Note_on_c, 0, 41, 0
1, 168086, Control_c, 0, 64, 83
1, 168104, Control_c, 0, 64, 89
1, 168106, Note_on_c, 0, 53, 80
1, 168124, Note_on_c, 0, 60, 0
1, 168138, Poly_aftertouch_c, 0, 42, 0
1, 168160, Control_c, 0, 64, 73
1, 168178, Control_c, 0, 64, 46
1, 168191, Note_on_c, 0, 59, 82
1, 168195, Control_c, 0, 64, 0
1, 168207, Note_on_c, 0, 41, 85
1, 168210, Note_on_c, 0, 53, 0
1, 168234, Control_c, 0, 64, 30
1, 168252, Control_c, 0, 64, 56
1, 168271, Control_c, 0, 64, 70
1, 168283, Note_on_c, 0, 41, 0
1, 168289, Control_c, 0, 64, 74
1, 168299, Note_on_c, 0, 53, 78
1, 168307, Control_c, 0, 64, 76
1, 168327, Control_c, 0, 64, 78
1, 168348, Control_c, 0, 64, 81
1, 168351, Note_on_c, 0, 63, 0
1, 168362, Control_c, 0, 64, 83
1, 168365, Note_on_c, 0, 59, 0
1, 168404, Note_on_c, 0, 53, 0
1, 168406, Note_on_c, 0, 41, 83
1, 168413, Note_on_c, 0, 57, 83
1, 168438, Poly_aftertouch_c, 0, 63, 0
1, 168481, Note_on_c, 0, 57, 0
1, 168495, Note_on_c, 0, 41, 0
1, 168497, Note_on_c, 0, 53, 76
1, 168531, Poly_aftertouch_c, 0, 67, 0
1, 168547, Control_c, 0, 64, 79
1, 168566, Control_c, 0, 64, 60
1, 168568, Note_on_c, 0, 69, 0
1, 168585, Control_c, 0, 64, 0
1, 168588, Note_on_c, 0, 53, 0
1, 168606, Note_on_c, 0, 40, 88
1, 168621, Note_on_c, 0, 59, 83
1, 168626, Note_on_c, 0, 64, 77
1, 168628, Note_on_c, 0, 68, 83
1, 168661, Note_on_c, 0, 59, 0
1, 168673, Note_on_c, 0, 42, 15
1, 168689, Control_c, 0, 64, 43
1, 168692, Note_on_c, 0, 64, 0
1, 168707, Control_c, 0, 64, 62
1, 168710, Note_on_c, 0, 68, 0
1, 168723, Note_on_c, 0, 40, 0
1, 168726, Control_c, 0, 64, 73
1, 168727, Note_on_c, 0, 52, 84
1, 168732, Note_on_c, 0, 42, 0
1, 168742, Control_c, 0, 64, 80
1, 168761, Control_c, 0, 64, 87
1, 168780, Control_c, 0, 64, 96
1, 168798, Control_c, 0, 64, 103
1, 168817, Control_c, 0, 64, 109
1, 168836, Control_c, 0, 64, 117
1, 168842, Note_on_c, 0, 40, 93
1, 168851, Note_on_c, 0, 52, 0
1, 168854, Control_c, 0, 64, 127
1, 168892, Note_on_c, 0, 40, 0
1, 168946, Control_c, 0, 64, 121
1, 168957, Note_on_c, 0, 76, 77
1, 168958, Note_on_c, 0, 72, 76
1, 168964, Control_c, 0, 64, 78
1, 168985, Control_c, 0, 64, 23
1, 169002, Control_c, 0, 64, 0
1, 169014, Note_on_c, 0, 72, 0
1, 169044, Note_on_c, 0, 76, 0
1, 169056, Note_on_c, 0, 74, 80
1, 169057, Note_on_c, 0, 71, 76
1, 169096, Note_on_c, 0, 71, 0
1, 169156, Note_on_c, 0, 76, 85
1, 169168, Note_on_c, 0, 72, 69
1, 169177, Note_on_c, 0, 74, 0
1, 169208, Note_on_c, 0, 72, 0
1, 169245, Note_on_c, 0, 77, 81
1, 169260, Note_on_c, 0, 76, 0
1, 169261, Note_on_c, 0, 74, 77
1, 169349, Note_on_c, 0, 74, 0
1, 169350, Note_on_c, 0, 72, 69
1, 169352, Note_on_c, 0, 76, 79
1, 169362, Note_on_c, 0, 77, 0
1, 169405, Note_on_c, 0, 72, 0
1, 169438, Note_on_c, 0, 76, 0
1, 169455, Note_on_c, 0, 74, 95
1, 169464, Note_on_c, 0, 71, 77
1, 169498, Note_on_c, 0, 71, 0
1, 169510, Note_on_c, 0, 74, 0
1, 169583, Note_on_c, 0, 52, 82
1, 169656, Note_on_c, 0, 52, 0
1, 169677, Note_on_c, 0, 40, 87
1, 169714, Control_c, 0, 67, 8
1, 169716, Note_on_c, 0, 40, 0
1, 169789, Note_on_c, 0, 76, 80
1, 169802, Note_on_c, 0, 72, 76
1, 169843, Note_on_c, 0, 72, 0
1, 169863, Control_c, 0, 67, 12
1, 169867, Note_on_c, 0, 76, 0
1, 169897, Note_on_c, 0, 72, 87
1, 169906, Note_on_c, 0, 69, 77
1, 169920, Control_c, 0, 67, 16
1, 169941, Note_on_c, 0, 69, 0
1, 169951, Note_on_c, 0, 72, 0
1, 170021, Note_on_c, 0, 52, 79
1, 170089, Note_on_c, 0, 52, 0
1, 170100, Note_on_c, 0, 40, 81
1, 170136, Note_on_c, 0, 40, 0
1, 170230, Note_on_c, 0, 74, 75
1, 170231, Note_on_c, 0, 71, 73
1, 170272, Note_on_c, 0, 71, 0
1, 170321, Note_on_c, 0, 74, 0
1, 170336, Note_on_c, 0, 71, 84
1, 170343, Note_on_c, 0, 68, 80
1, 170363, Control_c, 0, 64, 22
1, 170382, Control_c, 0, 64, 37
1, 170388, Note_on_c, 0, 68, 0
1, 170401, Control_c, 0, 64, 47
1, 170402, Note_on_c, 0, 71, 0
1, 170419, Control_c, 0, 64, 54
1, 170439, Control_c, 0, 64, 59
1, 170457, Control_c, 0, 64, 62
1, 170458, Note_on_c, 0, 52, 73
1, 170475, Control_c, 0, 64, 63
1, 170505, Control_c, 0, 64, 64
1, 170550, Note_on_c, 0, 52, 0
1, 170558, Control_c, 0, 64, 63
1, 170567, Note_on_c, 0, 40, 82
1, 170577, Control_c, 0, 64, 57
1, 170596, Control_c, 0, 64, 45
1, 170597, Note_on_c, 0, 40, 0
1, 170614, Control_c, 0, 64, 27
1, 170633, Control_c, 0, 64, 0
1, 170685, Note_on_c, 0, 72, 73
1, 170687, Note_on_c, 0, 76, 75
1, 170732, Note_on_c, 0, 72, 0
1, 170787, Note_on_c, 0, 74, 79
1, 170788, Note_on_c, 0, 76, 0
1, 170800, Note_on_c, 0, 71, 63
1, 170839, Note_on_c, 0, 71, 0
1, 170888, Note_on_c, 0, 76, 81
1, 170913, Control_c, 0, 67, 11
1, 170914, Note_on_c, 0, 72, 59
1, 170923, Note_on_c, 0, 74, 0
1, 170939, Note_on_c, 0, 72, 0
1, 170978, Note_on_c, 0, 76, 0
1, 170989, Note_on_c, 0, 77, 78
1, 171029, Note_on_c, 0, 74, 44
1, 171086, Note_on_c, 0, 74, 0
1, 171099, Note_on_c, 0, 77, 0
1, 171100, Note_on_c, 0, 76, 80
1, 171154, Note_on_c, 0, 72, 30
1, 171198, Note_on_c, 0, 72, 0
1, 171208, Note_on_c, 0, 74, 86
1, 171210, Note_on_c, 0, 76, 0
1, 171221, Note_on_c, 0, 71, 77
1, 171270, Note_on_c, 0, 71, 0
1, 171275, Note_on_c, 0, 74, 0
1, 171319, Note_on_c, 0, 52, 75
1, 171429, Note_on_c, 0, 40, 83
1, 171434, Note_on_c, 0, 52, 0
1, 171473, Note_on_c, 0, 40, 0
1, 171539, Note_on_c, 0, 80, 83
1, 171547, Note_on_c, 0, 74, 79
1, 171608, Control_c, 0, 64, 23
1, 171625, Note_on_c, 0, 74, 0
1, 171625, Control_c, 0, 64, 41
1, 171645, Control_c, 0, 64, 55
1, 171655, Note_on_c, 0, 81, 86
1, 171661, Note_on_c, 0, 72, 77
1, 171663, Control_c, 0, 64, 59
1, 171672, Note_on_c, 0, 80, 0
1, 171681, Control_c, 0, 64, 60
1, 171699, Control_c, 0, 64, 63
1, 171707, Note_on_c, 0, 81, 0
1, 171710, Note_on_c, 0, 72, 0
1, 171719, Control_c, 0, 64, 66
1, 171736, Control_c, 0, 64, 69
1, 171756, Control_c, 0, 64, 72
1, 171775, Note_on_c, 0, 52, 67
1, 171791, Note_on_c, 0, 50, 63
1, 171821, Note_on_c, 0, 50, 0
1, 171829, Control_c, 0, 64, 68
1, 171835, Note_on_c, 0, 52, 0
1, 171850, Control_c, 0, 64, 55
1, 171850, Control_c, 0, 67, 15
1, 171860, Note_on_c, 0, 40, 81
1, 171865, Control_c, 0, 64, 34
1, 171877, Poly_aftertouch_c, 0, 42, 0
1, 171885, Control_c, 0, 64, 0
1, 171899, Note_on_c, 0, 40, 0
1, 171968, Note_on_c, 0, 72, 77
1, 171976, Note_on_c, 0, 69, 72
1, 172056, Note_on_c, 0, 69, 0
1, 172079, Note_on_c, 0, 71, 81
1, 172083, Note_on_c, 0, 68, 79
1, 172111, Note_on_c, 0, 72, 0
1, 172213, Note_on_c, 0, 52, 76
1, 172317, Note_on_c, 0, 68, 0
1, 172327, Note_on_c, 0, 40, 77
1, 172333, Note_on_c, 0, 52, 0
1, 172348, Control_c, 0, 64, 25
1, 172371, Note_on_c, 0, 71, 0
1, 172376, Poly_aftertouch_c, 0, 42, 0
1, 172377, Control_c, 0, 64, 46
1, 172377, Control_c, 0, 67, 10
1, 172395, Control_c, 0, 64, 61
1, 172413, Control_c, 0, 64, 67
1, 172432, Control_c, 0, 64, 70
1, 172438, Note_on_c, 0, 40, 0
1, 172443, Note_on_c, 0, 72, 77
1, 172447, Note_on_c, 0, 69, 76
1, 172450, Control_c, 0, 64, 73
1, 172468, Control_c, 0, 64, 75
1, 172479, Note_on_c, 0, 69, 0
1, 172505, Control_c, 0, 64, 77
1, 172534, Note_on_c, 0, 71, 75
1, 172542, Note_on_c, 0, 72, 0
1, 172543, Note_on_c, 0, 68, 73
1, 172544, Control_c, 0, 64, 74
1, 172545, Control_c, 0, 67, 0
1, 172562, Control_c, 0, 64, 62
1, 172580, Control_c, 0, 64, 34
1, 172598, Control_c, 0, 64, 0
1, 172626, Note_on_c, 0, 68, 0
1, 172645, Note_on_c, 0, 71, 0
1, 172653, Note_on_c, 0, 69, 71
1, 172653, Note_on_c, 0, 72, 73
1, 172705, Note_on_c, 0, 69, 0
1, 172749, Note_on_c, 0, 72, 0
1, 172755, Note_on_c, 0, 71, 75
1, 172757, Note_on_c, 0, 68, 73
1, 172831, Note_on_c, 0, 68, 0
1, 172844, Note_on_c, 0, 71, 0
1, 172845, Note_on_c, 0, 69, 71
1, 172855, Note_on_c, 0, 72, 69
1, 172917, Note_on_c, 0, 69, 0
1, 172973, Note_on_c, 0, 71, 79
1, 172976, Note_on_c, 0, 72, 0
1, 172979, Note_on_c, 0, 68, 80
1, 173025, Note_on_c, 0, 68, 0
1, 173035, Note_on_c, 0, 71, 0
1, 173043, Control_c, 0, 64, 18
1, 173063, Control_c, 0, 64, 32
1, 173082, Control_c, 0, 64, 40
1, 173101, Control_c, 0, 64, 44
1, 173119, Control_c, 0, 64, 47
1, 173137, Control_c, 0, 64, 50
1, 173332, Control_c, 0, 64, 47
1, 173349, Note_on_c, 0, 51, 85
1, 173354, Note_on_c, 0, 39, 78
1, 173354, Control_c, 0, 64, 42
1, 173370, Control_c, 0, 64, 38
1, 173405, Control_c, 0, 64, 34
1, 173436, Note_on_c, 0, 51, 0
1, 173438, Note_on_c, 0, 40, 83
1, 173441, Note_on_c, 0, 39, 0
1, 173443, Control_c, 0, 64, 29
1, 173444, Note_on_c, 0, 52, 91
1, 173462, Control_c, 0, 64, 19
1, 173480, Control_c, 0, 64, 10
1, 173496, Note_on_c, 0, 40, 0
1, 173496, Note_on_c, 0, 52, 0
1, 173496, Control_c, 0, 64, 0
1, 173525, Note_on_c, 0, 39, 84
1, 173532, Note_on_c, 0, 51, 88
1, 173605, Note_on_c, 0, 39, 0
1, 173612, Note_on_c, 0, 51, 0
1, 173627, Note_on_c, 0, 40, 80
1, 173638, Note_on_c, 0, 52, 84
1, 173708, Note_on_c, 0, 52, 0
1, 173725, Note_on_c, 0, 39, 83
1, 173733, Note_on_c, 0, 40, 0
1, 173738, Note_on_c, 0, 51, 82
1, 173756, Control_c, 0, 67, 9
1, 173794, Control_c, 0, 64, 21
1, 173795, Control_c, 0, 67, 13
1, 173804, Note_on_c, 0, 39, 0
1, 173811, Control_c, 0, 64, 40
1, 173816, Note_on_c, 0, 51, 0
1, 173832, Control_c, 0, 64, 52
1, 173850, Control_c, 0, 64, 57
1, 173852, Control_c, 0, 67, 17
1, 173856, Note_on_c, 0, 40, 81
1, 173860, Note_on_c, 0, 52, 80
1, 173868, Control_c, 0, 64, 63
1, 173889, Control_c, 0, 64, 70
1, 173890, Control_c, 0, 67, 22
1, 173904, Control_c, 0, 64, 74
1, 173904, Control_c, 0, 67, 26
1, 173923, Control_c, 0, 64, 80
1, 173924, Control_c, 0, 67, 32
1, 173927, Note_on_c, 0, 52, 0
1, 173941, Note_on_c, 0, 40, 0
1, 173941, Control_c, 0, 64, 82
1, 173943, Control_c, 0, 67, 46
1, 173961, Control_c, 0, 67, 66
1, 173979, Control_c, 0, 64, 75
1, 173980, Control_c, 0, 67, 93
1, 173998, Control_c, 0, 64, 55
1, 173999, Control_c, 0, 67, 122
1, 174017, Control_c, 0, 64, 0
1, 174018, Control_c, 0, 67, 127
1, 174294, Note_on_c, 0, 75, 57
1, 174381, Note_on_c, 0, 75, 0
1, 174405, Note_on_c, 0, 76, 55
1, 174473, Note_on_c, 0, 76, 0
1, 174524, Note_on_c, 0, 75, 48
1, 174583, Note_on_c, 0, 75, 0
1, 174622, Note_on_c, 0, 76, 56
1, 174687, Note_on_c, 0, 76, 0
1, 174707, Note_on_c, 0, 75, 52
1, 174764, Note_on_c, 0, 75, 0
1, 174842, Note_on_c, 0, 76, 65
1, 174877, Control_c, 0, 64, 19
1, 174896, Control_c, 0, 64, 41
1, 174915, Control_c, 0, 64, 57
1, 174927, Note_on_c, 0, 76, 0
1, 174932, Control_c, 0, 64, 65
1, 174951, Control_c, 0, 64, 68
1, 175043, Control_c, 0, 64, 59
1, 175061, Control_c, 0, 64, 46
1, 175080, Control_c, 0, 64, 33
1, 175099, Control_c, 0, 64, 23
1, 175118, Control_c, 0, 64, 19
1, 175138, Control_c, 0, 64, 12
1, 175164, Control_c, 0, 64, 0
1, 175239, Note_on_c, 0, 63, 59
1, 175340, Note_on_c, 0, 63, 0
1, 175342, Note_on_c, 0, 64, 68
1, 175433, Note_on_c, 0, 64, 0
1, 175451, Note_on_c, 0, 63, 71
1, 175542, Note_on_c, 0, 63, 0
1, 175559, Note_on_c, 0, 64, 75
1, 175656, Note_on_c, 0, 64, 0
1, 175665, Note_on_c, 0, 63, 74
1, 175768, Note_on_c, 0, 63, 0
1, 175797, Note_on_c, 0, 64, 80
1, 175947, Note_on_c, 0, 64, 0
1, 176178, Note_on_c, 0, 75, 67
1, 176267, Note_on_c, 0, 75, 0
1, 176275, Note_on_c, 0, 76, 68
1, 176379, Note_on_c, 0, 76, 0
1, 176395, Note_on_c, 0, 75, 62
1, 176475, Note_on_c, 0, 75, 0
1, 176495, Note_on_c, 0, 76, 64
1, 176573, Note_on_c, 0, 76, 0
1, 176606, Note_on_c, 0, 75, 54
1, 176663, Note_on_c, 0, 75, 0
1, 176731, Note_on_c, 0, 76, 60
1, 176747, Control_c, 0, 64, 29
1, 176766, Control_c, 0, 64, 41
1, 176785, Control_c, 0, 64, 48
1, 176803, Control_c, 0, 64, 55
1, 176817, Note_on_c, 0, 76, 0
1, 176822, Control_c, 0, 64, 59
1, 176842, Control_c, 0, 64, 61
1, 176895, Control_c, 0, 64, 62
1, 177007, Control_c, 0, 64, 59
1, 177036, Control_c, 0, 64, 56
1, 177073, Control_c, 0, 64, 52
1, 177090, Control_c, 0, 64, 48
1, 177109, Control_c, 0, 64, 39
1, 177127, Control_c, 0, 64, 27
1, 177139, Note_on_c, 0, 75, 39
1, 177147, Control_c, 0, 64, 22
1, 177216, Note_on_c, 0, 75, 0
1, 177223, Control_c, 0, 64, 17
1, 177239, Note_on_c, 0, 76, 48
1, 177308, Note_on_c, 0, 76, 0
1, 177351, Note_on_c, 0, 75, 44
1, 177422, Note_on_c, 0, 75, 0
1, 177460, Note_on_c, 0, 76, 38
1, 177518, Note_on_c, 0, 76, 0
1, 177562, Note_on_c, 0, 75, 42
1, 177689, Note_on_c, 0, 75, 0
1, 177708, Note_on_c, 0, 76, 44
1, 177741, Control_c, 0, 64, 24
1, 177760, Control_c, 0, 64, 34
1, 177779, Control_c, 0, 64, 43
1, 177796, Control_c, 0, 64, 50
1, 177816, Control_c, 0, 64, 54
1, 177826, Note_on_c, 0, 76, 0
1, 177832, Control_c, 0, 64, 58
1, 177869, Control_c, 0, 64, 60
1, 178011, Control_c, 0, 64, 58
1, 178064, Control_c, 0, 64, 56
1, 178087, Note_on_c, 0, 75, 46
1, 178103, Control_c, 0, 64, 51
1, 178121, Control_c, 0, 64, 45
1, 178139, Control_c, 0, 64, 37
1, 178160, Control_c, 0, 64, 25
1, 178164, Note_on_c, 0, 75, 0
1, 178177, Control_c, 0, 64, 14
1, 178195, Control_c, 0, 64, 0
1, 178204, Note_on_c, 0, 76, 54
1, 178227, Note_on_c, 0, 70, 46
1, 178239, Note_on_c, 0, 67, 37
1, 178298, Note_on_c, 0, 76, 0
1, 178319, Note_on_c, 0, 75, 55
1, 178344, Control_c, 0, 64, 12
1, 178363, Control_c, 0, 64, 22
1, 178380, Note_on_c, 0, 70, 0
1, 178381, Control_c, 0, 64, 33
1, 178396, Control_c, 0, 64, 42
1, 178416, Control_c, 0, 64, 46
1, 178426, Note_on_c, 0, 75, 0
1, 178431, Note_on_c, 0, 76, 68
1, 178447, Note_on_c, 0, 65, 45
1, 178448, Note_on_c, 0, 67, 0
1, 178454, Control_c, 0, 64, 48
1, 178472, Note_on_c, 0, 69, 36
1, 178525, Note_on_c, 0, 76, 0
1, 178537, Note_on_c, 0, 77, 65
1, 178598, Note_on_c, 0, 65, 0
1, 178601, Control_c, 0, 64, 44
1, 178606, Note_on_c, 0, 69, 0
1, 178620, Control_c, 0, 64, 35
1, 178658, Control_c, 0, 64, 0
1, 178660, Note_on_c, 0, 77, 0
1, 178665, Note_on_c, 0, 79, 75
1, 178681, Note_on_c, 0, 64, 49
1, 178688, Note_on_c, 0, 67, 37
1, 178768, Control_c, 0, 64, 12
1, 178787, Control_c, 0, 64, 39
1, 178805, Control_c, 0, 64, 58
1, 178805, Note_on_c, 0, 79, 0
1, 178824, Control_c, 0, 64, 68
1, 178836, Note_on_c, 0, 67, 0
1, 178841, Control_c, 0, 64, 72
1, 178845, Note_on_c, 0, 64, 0
1, 178862, Control_c, 0, 64, 74
1, 178880, Control_c, 0, 64, 78
1, 178908, Control_c, 0, 64, 83
1, 178927, Control_c, 0, 64, 87
1, 179056, Control_c, 0, 64, 81
1, 179061, Note_on_c, 0, 78, 76
1, 179075, Control_c, 0, 64, 74
1, 179094, Control_c, 0, 64, 64
1, 179113, Control_c, 0, 64, 51
1, 179113, Control_c, 0, 67, 105
1, 179133, Control_c, 0, 64, 39
1, 179134, Control_c, 0, 67, 79
1, 179148, Control_c, 0, 64, 26
1, 179150, Control_c, 0, 67, 55
1, 179151, Note_on_c, 0, 78, 0
1, 179167, Control_c, 0, 64, 0
1, 179168, Control_c, 0, 67, 40
1, 179171, Note_on_c, 0, 79, 82
1, 179185, Control_c, 0, 67, 31
1, 179191, Note_on_c, 0, 64, 59
1, 179194, Note_on_c, 0, 67, 64
1, 179203, Control_c, 0, 67, 26
1, 179223, Control_c, 0, 67, 21
1, 179241, Control_c, 0, 67, 14
1, 179260, Control_c, 0, 64, 13
1, 179269, Note_on_c, 0, 79, 0
1, 179278, Control_c, 0, 64, 37
1, 179280, Control_c, 0, 67, 0
1, 179291, Note_on_c, 0, 78, 80
1, 179297, Control_c, 0, 64, 55
1, 179317, Control_c, 0, 64, 64
1, 179332, Control_c, 0, 64, 67
1, 179352, Control_c, 0, 64, 71
1, 179370, Control_c, 0, 64, 74
1, 179390, Control_c, 0, 64, 76
1, 179393, Note_on_c, 0, 64, 0
1, 179400, Note_on_c, 0, 78, 0
1, 179421, Note_on_c, 0, 79, 87
1, 179438, Note_on_c, 0, 65, 67
1, 179448, Note_on_c, 0, 62, 57
1, 179456, Note_on_c, 0, 67, 0
1, 179542, Note_on_c, 0, 79, 0
1, 179553, Note_on_c, 0, 81, 83
1, 179630, Control_c, 0, 64, 78
1, 179656, Note_on_c, 0, 65, 0
1, 179740, Note_on_c, 0, 62, 0
1, 179757, Note_on_c, 0, 82, 89
1, 179759, Control_c, 0, 64, 74
1, 179779, Control_c, 0, 64, 70
1, 179780, Note_on_c, 0, 81, 0
1, 179785, Note_on_c, 0, 64, 74
1, 179788, Note_on_c, 0, 61, 71
1, 179797, Control_c, 0, 64, 66
1, 179815, Control_c, 0, 64, 63
1, 179842, Control_c, 0, 64, 58
1, 179861, Control_c, 0, 64, 49
1, 179879, Control_c, 0, 64, 37
1, 179900, Control_c, 0, 64, 27
1, 179917, Control_c, 0, 64, 21
1, 179954, Control_c, 0, 64, 12
1, 179972, Control_c, 0, 64, 0
1, 180212, Control_c, 0, 64, 25
1, 180230, Control_c, 0, 64, 44
1, 180250, Control_c, 0, 64, 59
1, 180268, Control_c, 0, 64, 67
1, 180287, Control_c, 0, 64, 73
1, 180305, Control_c, 0, 64, 79
1, 180325, Control_c, 0, 64, 86
1, 180343, Control_c, 0, 64, 90
1, 180396, Note_on_c, 0, 82, 0
1, 180448, Note_on_c, 0, 64, 0
1, 180472, Note_on_c, 0, 81, 68
1, 180530, Control_c, 0, 64, 88
1, 180532, Note_on_c, 0, 79, 71
1, 180541, Note_on_c, 0, 81, 0
1, 180546, Control_c, 0, 64, 84
1, 180565, Control_c, 0, 64, 81
1, 180571, Note_on_c, 0, 61, 0
1, 180591, Note_on_c, 0, 77, 67
1, 180599, Control_c, 0, 64, 77
1, 180619, Control_c, 0, 64, 68
1, 180623, Note_on_c, 0, 79, 0
1, 180639, Control_c, 0, 64, 47
1, 180641, Note_on_c, 0, 76, 62
1, 180655, Note_on_c, 0, 77, 0
1, 180657, Control_c, 0, 64, 0
1, 180695, Note_on_c, 0, 65, 80
1, 180702, Note_on_c, 0, 62, 76
1, 180703, Note_on_c, 0, 74, 88
1, 180707, Note_on_c, 0, 76, 0
1, 180795, Note_on_c, 0, 74, 0
1, 180824, Note_on_c, 0, 81, 77
1, 180898, Note_on_c, 0, 79, 75
1, 180908, Control_c, 0, 64, 10
1, 180909, Note_on_c, 0, 81, 0
1, 180927, Control_c, 0, 64, 34
1, 180945, Control_c, 0, 64, 49
1, 180963, Control_c, 0, 64, 57
1, 180980, Control_c, 0, 64, 60
1, 180984, Note_on_c, 0, 77, 68
1, 180999, Control_c, 0, 64, 61
1, 181014, Note_on_c, 0, 79, 0
1, 181018, Control_c, 0, 64, 63
1, 181030, Note_on_c, 0, 76, 75
1, 181034, Note_on_c, 0, 77, 0
1, 181037, Control_c, 0, 64, 65
1, 181056, Control_c, 0, 64, 66
1, 181093, Note_on_c, 0, 76, 0
1, 181112, Note_on_c, 0, 62, 0
1, 181113, Note_on_c, 0, 65, 0
1, 181117, Note_on_c, 0, 74, 77
1, 181131, Control_c, 0, 64, 65
1, 181147, Control_c, 0, 64, 60
1, 181164, Note_on_c, 0, 67, 81
1, 181165, Control_c, 0, 64, 46
1, 181175, Note_on_c, 0, 64, 73
1, 181176, Note_on_c, 0, 62, 51
1, 181176, Control_c, 0, 64, 0
1, 181176, Note_on_c, 0, 73, 81
1, 181176, Note_on_c, 0, 74, 0
1, 181243, Note_on_c, 0, 79, 72
1, 181250, Note_on_c, 0, 73, 0
1, 181269, Control_c, 0, 64, 21
1, 181288, Control_c, 0, 64, 41
1, 181307, Note_on_c, 0, 77, 75
1, 181308, Control_c, 0, 64, 54
1, 181325, Control_c, 0, 64, 59
1, 181329, Note_on_c, 0, 79, 0
1, 181344, Control_c, 0, 64, 61
1, 181363, Control_c, 0, 64, 63
1, 181381, Control_c, 0, 64, 65
1, 181389, Note_on_c, 0, 76, 66
1, 181415, Note_on_c, 0, 77, 0
1, 181417, Control_c, 0, 64, 66
1, 181439, Note_on_c, 0, 76, 0
1, 181446, Note_on_c, 0, 64, 0
1, 181455, Note_on_c, 0, 74, 63
1, 181466, Note_on_c, 0, 62, 0
1, 181508, Note_on_c, 0, 74, 0
1, 181509, Control_c, 0, 64, 62
1, 181527, Control_c, 0, 64, 54
1, 181527, Note_on_c, 0, 73, 75
1, 181545, Control_c, 0, 64, 37
1, 181551, Note_on_c, 0, 67, 0
1, 181565, Control_c, 0, 64, 0
1, 181590, Note_on_c, 0, 65, 70
1, 181594, Note_on_c, 0, 73, 0
1, 181598, Note_on_c, 0, 62, 69
1, 181598, Note_on_c, 0, 74, 87
1, 181650, Note_on_c, 0, 74, 0
1, 181684, Control_c, 0, 64, 34
1, 181685, Note_on_c, 0, 81, 72
1, 181703, Control_c, 0, 64, 54
1, 181721, Control_c, 0, 64, 63
1, 181741, Control_c, 0, 64, 66
1, 181756, Note_on_c, 0, 79, 69
1, 181758, Control_c, 0, 64, 67
1, 181761, Note_on_c, 0, 81, 0
1, 181778, Control_c, 0, 64, 71
1, 181797, Control_c, 0, 64, 73
1, 181846, Note_on_c, 0, 77, 65
1, 181851, Control_c, 0, 64, 75
1, 181865, Note_on_c, 0, 79, 0
1, 181899, Note_on_c, 0, 77, 0
1, 181910, Note_on_c, 0, 76, 63
1, 181945, Control_c, 0, 64, 73
1, 181961, Note_on_c, 0, 76, 0
1, 181962, Control_c, 0, 64, 69
1, 181981, Control_c, 0, 64, 60
1, 181981, Note_on_c, 0, 62, 0
1, 181991, Note_on_c, 0, 74, 72
1, 181997, Note_on_c, 0, 65, 0
1, 182001, Control_c, 0, 64, 41
1, 182020, Control_c, 0, 64, 0
1, 182062, Note_on_c, 0, 67, 60
1, 182065, Note_on_c, 0, 64, 56
1, 182068, Note_on_c, 0, 73, 78
1, 182069, Note_on_c, 0, 74, 0
1, 182075, Note_on_c, 0, 62, 30
1, 182129, Control_c, 0, 64, 27
1, 182145, Note_on_c, 0, 73, 0
1, 182149, Control_c, 0, 64, 46
1, 182152, Note_on_c, 0, 79, 69
1, 182163, Note_on_c, 0, 62, 0
1, 182166, Control_c, 0, 64, 58
1, 182185, Control_c, 0, 64, 61
1, 182195, Note_on_c, 0, 64, 0
1, 182208, Note_on_c, 0, 77, 76
1, 182224, Control_c, 0, 64, 63
1, 182232, Note_on_c, 0, 79, 0
1, 182293, Note_on_c, 0, 76, 63
1, 182317, Note_on_c, 0, 77, 0
1, 182320, Note_on_c, 0, 67, 0
1, 182352, Note_on_c, 0, 76, 0
1, 182359, Note_on_c, 0, 74, 67
1, 182408, Control_c, 0, 64, 60
1, 182409, Control_c, 0, 67, 8
1, 182410, Note_on_c, 0, 74, 0
1, 182425, Control_c, 0, 64, 51
1, 182428, Note_on_c, 0, 73, 71
1, 182444, Control_c, 0, 64, 30
1, 182463, Control_c, 0, 64, 0
1, 182500, Control_c, 0, 67, 12
1, 182505, Note_on_c, 0, 73, 0
1, 182513, Note_on_c, 0, 74, 74
1, 182607, Note_on_c, 0, 62, 58
1, 182726, Note_on_c, 0, 62, 0
1, 182737, Note_on_c, 0, 65, 58
1, 182761, Note_on_c, 0, 74, 0
1, 182780, Note_on_c, 0, 76, 41
1, 182867, Note_on_c, 0, 69, 57
1, 182868, Note_on_c, 0, 65, 0
1, 182916, Note_on_c, 0, 76, 0
1, 182928, Note_on_c, 0, 69, 0
1, 182974, Note_on_c, 0, 74, 63
1, 183055, Note_on_c, 0, 77, 66
1, 183124, Note_on_c, 0, 77, 0
1, 183165, Note_on_c, 0, 81, 65
1, 183236, Note_on_c, 0, 81, 0
1, 183279, Note_on_c, 0, 86, 54
1, 183290, Poly_aftertouch_c, 0, 74, 24
1, 183307, Note_on_c, 0, 74, 0
1, 183353, Note_on_c, 0, 86, 0
1, 183361, Control_c, 0, 64, 36
1, 183362, Control_c, 0, 67, 8
1, 183379, Control_c, 0, 64, 57
1, 183380, Note_on_c, 0, 89, 76
1, 183398, Control_c, 0, 64, 69
1, 183412, Note_on_c, 0, 89, 0
1, 183415, Control_c, 0, 64, 77
1, 183435, Control_c, 0, 64, 85
1, 183439, Control_c, 0, 67, 0
1, 183454, Control_c, 0, 64, 89
1, 183510, Control_c, 0, 64, 94
1, 183575, Control_c, 0, 64, 100
1, 183612, Control_c, 0, 64, 105
1, 183668, Control_c, 0, 64, 110
1, 183763, Note_on_c, 0, 49, 81
1, 183771, Note_on_c, 0, 37, 71
1, 183796, Control_c, 0, 64, 97
1, 183815, Control_c, 0, 64, 85
1, 183835, Control_c, 0, 64, 75
1, 183840, Note_on_c, 0, 49, 0
1, 183853, Control_c, 0, 64, 66
1, 183868, Note_on_c, 0, 38, 78
1, 183868, Note_on_c, 0, 50, 79
1, 183870, Note_on_c, 0, 37, 0
1, 183871, Control_c, 0, 64, 60
1, 183890, Control_c, 0, 64, 52
1, 183891, Control_c, 0, 67, 11
1, 183900, Note_on_c, 0, 52, 50
1, 183908, Control_c, 0, 64, 41
1, 183926, Control_c, 0, 64, 25
1, 183926, Control_c, 0, 67, 18
1, 183930, Note_on_c, 0, 52, 0
1, 183940, Note_on_c, 0, 50, 0
1, 183942, Control_c, 0, 64, 0
1, 183943, Control_c, 0, 67, 22
1, 183964, Control_c, 0, 67, 26
1, 183969, Note_on_c, 0, 49, 83
1, 183976, Note_on_c, 0, 38, 0
1, 183977, Note_on_c, 0, 37, 76
1, 183982, Control_c, 0, 67, 30
1, 184000, Control_c, 0, 67, 34
1, 184019, Control_c, 0, 67, 40
1, 184038, Control_c, 0, 67, 46
1, 184043, Note_on_c, 0, 49, 0
1, 184057, Control_c, 0, 67, 50
1, 184061, Note_on_c, 0, 37, 0
1, 184075, Note_on_c, 0, 38, 78
1, 184081, Note_on_c, 0, 50, 81
1, 184093, Control_c, 0, 67, 55
1, 184155, Note_on_c, 0, 50, 0
1, 184180, Note_on_c, 0, 49, 75
1, 184181, Note_on_c, 0, 37, 81
1, 184189, Note_on_c, 0, 38, 0
1, 184258, Note_on_c, 0, 37, 0
1, 184259, Note_on_c, 0, 49, 0
1, 184296, Control_c, 0, 64, 29
1, 184306, Note_on_c, 0, 50, 81
1, 184308, Note_on_c, 0, 38, 90
1, 184316, Control_c, 0, 64, 50
1, 184334, Control_c, 0, 64, 64
1, 184351, Control_c, 0, 64, 71
1, 184369, Note_on_c, 0, 50, 0
1, 184370, Control_c, 0, 64, 77
1, 184375, Note_on_c, 0, 38, 0
1, 184390, Control_c, 0, 64, 86
1, 184408, Control_c, 0, 64, 99
1, 184427, Control_c, 0, 64, 107
1, 184465, Control_c, 0, 64, 112
1, 184510, Control_c, 0, 67, 59
1, 184547, Control_c, 0, 67, 68
1, 184565, Control_c, 0, 67, 78
1, 184584, Control_c, 0, 64, 98
1, 184585, Control_c, 0, 67, 88
1, 184602, Control_c, 0, 64, 78
1, 184604, Control_c, 0, 67, 96
1, 184622, Control_c, 0, 64, 58
1, 184624, Control_c, 0, 67, 104
1, 184641, Control_c, 0, 64, 39
1, 184642, Control_c, 0, 67, 111
1, 184659, Control_c, 0, 64, 15
1, 184660, Control_c, 0, 67, 118
1, 184675, Control_c, 0, 64, 0
1, 184676, Control_c, 0, 67, 122
1, 184721, Note_on_c, 0, 73, 63
1, 184750, Control_c, 0, 67, 126
1, 184782, Note_on_c, 0, 73, 0
1, 184824, Note_on_c, 0, 74, 63
1, 184833, Note_on_c, 0, 65, 43
1, 184835, Note_on_c, 0, 69, 58
1, 184920, Note_on_c, 0, 74, 0
1, 184925, Note_on_c, 0, 73, 70
1, 185004, Note_on_c, 0, 65, 0
1, 185035, Note_on_c, 0, 73, 0
1, 185059, Note_on_c, 0, 74, 65
1, 185069, Note_on_c, 0, 67, 49
1, 185073, Note_on_c, 0, 69, 0
1, 185088, Note_on_c, 0, 64, 46
1, 185139, Note_on_c, 0, 74, 0
1, 185157, Note_on_c, 0, 76, 64
1, 185164, Note_on_c, 0, 67, 0
1, 185201, Note_on_c, 0, 64, 0
1, 185253, Note_on_c, 0, 76, 0
1, 185300, Note_on_c, 0, 77, 71
1, 185319, Note_on_c, 0, 65, 33
1, 185323, Note_on_c, 0, 62, 40
1, 185381, Control_c, 0, 64, 21
1, 185388, Note_on_c, 0, 77, 0
1, 185400, Control_c, 0, 64, 45
1, 185424, Note_on_c, 0, 65, 0
1, 185426, Control_c, 0, 64, 63
1, 185445, Control_c, 0, 64, 72
1, 185447, Note_on_c, 0, 62, 0
1, 185462, Control_c, 0, 64, 77
1, 185482, Control_c, 0, 64, 82
1, 185501, Control_c, 0, 64, 85
1, 185520, Control_c, 0, 64, 87
1, 185611, Control_c, 0, 64, 85
1, 185630, Control_c, 0, 64, 82
1, 185649, Control_c, 0, 64, 75
1, 185667, Control_c, 0, 64, 64
1, 185683, Note_on_c, 0, 76, 79
1, 185685, Control_c, 0, 64, 55
1, 185742, Control_c, 0, 67, 122
1, 185751, Note_on_c, 0, 76, 0
1, 185759, Control_c, 0, 64, 53
1, 185761, Control_c, 0, 67, 114
1, 185781, Control_c, 0, 64, 50
1, 185782, Control_c, 0, 67, 103
1, 185788, Note_on_c, 0, 77, 81
1, 185789, Note_on_c, 0, 65, 62
1, 185795, Note_on_c, 0, 62, 52
1, 185798, Control_c, 0, 64, 44
1, 185798, Control_c, 0, 67, 84
1, 185815, Control_c, 0, 64, 34
1, 185818, Control_c, 0, 67, 58
1, 185835, Control_c, 0, 64, 25
1, 185836, Control_c, 0, 67, 29
1, 185853, Control_c, 0, 64, 18
1, 185854, Control_c, 0, 67, 0
1, 185866, Note_on_c, 0, 77, 0
1, 185870, Control_c, 0, 64, 13
1, 185882, Note_on_c, 0, 76, 82
1, 185909, Control_c, 0, 64, 0
1, 185941, Note_on_c, 0, 62, 0
1, 185962, Note_on_c, 0, 76, 0
1, 185968, Note_on_c, 0, 65, 0
1, 185998, Note_on_c, 0, 77, 83
1, 186014, Note_on_c, 0, 64, 67
1, 186023, Note_on_c, 0, 60, 67
1, 186087, Note_on_c, 0, 77, 0
1, 186107, Note_on_c, 0, 79, 85
1, 186177, Note_on_c, 0, 64, 0
1, 186215, Note_on_c, 0, 60, 0
1, 186218, Note_on_c, 0, 79, 0
1, 186237, Note_on_c, 0, 80, 87
1, 186245, Note_on_c, 0, 59, 65
1, 186252, Note_on_c, 0, 62, 63
1, 186259, Control_c, 0, 64, 19
1, 186279, Control_c, 0, 64, 45
1, 186294, Note_on_c, 0, 80, 0
1, 186297, Control_c, 0, 64, 62
1, 186308, Note_on_c, 0, 62, 0
1, 186316, Control_c, 0, 64, 71
1, 186328, Note_on_c, 0, 59, 0
1, 186335, Control_c, 0, 64, 74
1, 186361, Control_c, 0, 64, 78
1, 186380, Control_c, 0, 64, 82
1, 186398, Control_c, 0, 64, 86
1, 186621, Control_c, 0, 64, 80
1, 186644, Control_c, 0, 64, 71
1, 186646, Note_on_c, 0, 44, 73
1, 186647, Note_on_c, 0, 56, 75
1, 186658, Control_c, 0, 64, 61
1, 186677, Control_c, 0, 64, 49
1, 186695, Control_c, 0, 64, 36
1, 186715, Control_c, 0, 64, 20
1, 186728, Note_on_c, 0, 56, 0
1, 186731, Control_c, 0, 64, 0
1, 186738, Note_on_c, 0, 55, 82
1, 186747, Note_on_c, 0, 44, 0
1, 186750, Note_on_c, 0, 43, 66
1, 186821, Note_on_c, 0, 43, 0
1, 186821, Note_on_c, 0, 55, 0
1, 186845, Note_on_c, 0, 44, 75
1, 186851, Note_on_c, 0, 56, 82
1, 186922, Note_on_c, 0, 56, 0
1, 186924, Note_on_c, 0, 44, 0
1, 186947, Note_on_c, 0, 55, 81
1, 186949, Note_on_c, 0, 43, 76
1, 187034, Note_on_c, 0, 43, 0
1, 187035, Note_on_c, 0, 55, 0
1, 187038, Note_on_c, 0, 44, 78
1, 187055, Note_on_c, 0, 56, 69
1, 187126, Note_on_c, 0, 44, 0
1, 187139, Note_on_c, 0, 56, 0
1, 187173, Note_on_c, 0, 55, 81
1, 187180, Note_on_c, 0, 43, 82
1, 187215, Control_c, 0, 64, 37
1, 187232, Control_c, 0, 64, 60
1, 187245, Note_on_c, 0, 55, 0
1, 187251, Control_c, 0, 64, 75
1, 187262, Note_on_c, 0, 43, 0
1, 187271, Control_c, 0, 64, 88
1, 187296, Control_c, 0, 64, 104
1, 187316, Control_c, 0, 64, 114
1, 187335, Poly_aftertouch_c, 0, 44, 0
1, 187408, Control_c, 0, 64, 102
1, 187429, Control_c, 0, 64, 90
1, 187446, Control_c, 0, 64, 77
1, 187465, Control_c, 0, 64, 65
1, 187481, Control_c, 0, 64, 56
1, 187501, Control_c, 0, 64, 48
1, 187519, Control_c, 0, 64, 40
1, 187538, Control_c, 0, 64, 36
1, 187566, Note_on_c, 0, 64, 66
1, 187631, Control_c, 0, 64, 30
1, 187634, Note_on_c, 0, 64, 0
1, 187651, Control_c, 0, 64, 11
1, 187667, Control_c, 0, 64, 0
1, 187679, Note_on_c, 0, 65, 64
1, 187689, Note_on_c, 0, 59, 51
1, 187693, Note_on_c, 0, 62, 51
1, 187760, Note_on_c, 0, 65, 0
1, 187787, Note_on_c, 0, 64, 65
1, 187865, Note_on_c, 0, 59, 0
1, 187874, Note_on_c, 0, 64, 0
1, 187909, Note_on_c, 0, 65, 64
1, 187922, Note_on_c, 0, 60, 58
1, 187924, Note_on_c, 0, 62, 0
1, 187943, Note_on_c, 0, 57, 51
1, 187995, Note_on_c, 0, 65, 0
1, 188007, Note_on_c, 0, 60, 0
1, 188021, Note_on_c, 0, 64, 68
1, 188094, Note_on_c, 0, 57, 0
1, 188100, Note_on_c, 0, 64, 0
1, 188147, Note_on_c, 0, 65, 72
1, 188161, Note_on_c, 0, 59, 60
1, 188167, Note_on_c, 0, 55, 62
1, 188231, Control_c, 0, 64, 23
1, 188250, Note_on_c, 0, 65, 0
1, 188251, Control_c, 0, 64, 42
1, 188254, Note_on_c, 0, 55, 0
1, 188265, Note_on_c, 0, 59, 0
1, 188269, Control_c, 0, 64, 57
1, 188288, Control_c, 0, 64, 65
1, 188307, Control_c, 0, 64, 67
1, 188326, Control_c, 0, 64, 70
1, 188344, Control_c, 0, 64, 74
1, 188363, Control_c, 0, 64, 79
1, 188491, Note_on_c, 0, 66, 73
1, 188491, Control_c, 0, 64, 73
1, 188511, Control_c, 0, 64, 64
1, 188530, Control_c, 0, 64, 56
1, 188544, Note_on_c, 0, 66, 0
1, 188603, Control_c, 0, 64, 54
1, 188606, Note_on_c, 0, 77, 80
1, 188607, Note_on_c, 0, 67, 74
1, 188615, Note_on_c, 0, 74, 74
1, 188640, Control_c, 0, 64, 52
1, 188679, Control_c, 0, 64, 55
1, 188716, Note_on_c, 0, 66, 74
1, 188718, Note_on_c, 0, 67, 0
1, 188734, Control_c, 0, 64, 53
1, 188752, Control_c, 0, 64, 51
1, 188762, Note_on_c, 0, 74, 0
1, 188789, Note_on_c, 0, 66, 0
1, 188816, Note_on_c, 0, 77, 0
1, 188827, Control_c, 0, 64, 53
1, 188836, Note_on_c, 0, 76, 78
1, 188840, Note_on_c, 0, 72, 77
1, 188849, Note_on_c, 0, 67, 76
1, 188918, Note_on_c, 0, 72, 0
1, 188920, Note_on_c, 0, 67, 0
1, 188942, Note_on_c, 0, 66, 74
1, 188958, Control_c, 0, 64, 50
1, 188976, Control_c, 0, 64, 34
1, 188983, Note_on_c, 0, 76, 0
1, 188993, Control_c, 0, 64, 0
1, 189026, Note_on_c, 0, 66, 0
1, 189071, Note_on_c, 0, 74, 87
1, 189073, Note_on_c, 0, 71, 81
1, 189083, Note_on_c, 0, 67, 81
1, 189105, Control_c, 0, 64, 14
1, 189108, Note_on_c, 0, 71, 0
1, 189125, Control_c, 0, 64, 35
1, 189129, Note_on_c, 0, 74, 0
1, 189143, Control_c, 0, 64, 51
1, 189155, Note_on_c, 0, 67, 0
1, 189161, Control_c, 0, 64, 62
1, 189188, Control_c, 0, 64, 67
1, 189206, Control_c, 0, 64, 70
1, 189225, Control_c, 0, 64, 75
1, 189244, Control_c, 0, 64, 83
1, 189263, Control_c, 0, 64, 91
1, 189435, Note_on_c, 0, 66, 75
1, 189504, Control_c, 0, 64, 70
1, 189512, Note_on_c, 0, 66, 0
1, 189523, Control_c, 0, 64, 35
1, 189541, Note_on_c, 0, 67, 84
1, 189541, Control_c, 0, 64, 0
1, 189552, Note_on_c, 0, 86, 83
1, 189559, Note_on_c, 0, 77, 83
1, 189616, Control_c, 0, 64, 20
1, 189624, Note_on_c, 0, 77, 0
1, 189635, Control_c, 0, 64, 45
1, 189654, Control_c, 0, 64, 66
1, 189659, Note_on_c, 0, 66, 78
1, 189672, Note_on_c, 0, 67, 0
1, 189672, Control_c, 0, 64, 78
1, 189691, Control_c, 0, 64, 88
1, 189709, Control_c, 0, 64, 100
1, 189729, Control_c, 0, 64, 104
1, 189746, Note_on_c, 0, 66, 0
1, 189770, Note_on_c, 0, 86, 0
1, 189777, Note_on_c, 0, 84, 88
1, 189787, Note_on_c, 0, 76, 81
1, 189790, Note_on_c, 0, 67, 91
1, 189838, Control_c, 0, 64, 86
1, 189851, Note_on_c, 0, 76, 0
1, 189857, Control_c, 0, 64, 64
1, 189877, Control_c, 0, 64, 30
1, 189894, Control_c, 0, 64, 0
1, 189895, Note_on_c, 0, 66, 82
1, 189915, Note_on_c, 0, 67, 0
1, 190006, Control_c, 0, 64, 32
1, 190015, Note_on_c, 0, 66, 0
1, 190023, Control_c, 0, 64, 64
1, 190038, Note_on_c, 0, 83, 93
1, 190039, Note_on_c, 0, 74, 88
1, 190043, Control_c, 0, 64, 87
1, 190043, Note_on_c, 0, 67, 92
1, 190061, Control_c, 0, 64, 108
1, 190076, Note_on_c, 0, 84, 0
1, 190080, Control_c, 0, 64, 123
1, 190086, Note_on_c, 0, 74, 0
1, 190114, Note_on_c, 0, 83, 0
1, 190125, Control_c, 0, 64, 127
1, 190138, Note_on_c, 0, 67, 0
1, 190478, Control_c, 0, 64, 107
1, 190495, Control_c, 0, 64, 74
1, 190514, Control_c, 0, 64, 24
1, 190533, Control_c, 0, 64, 0
1, 190563, Note_on_c, 0, 89, 91
1, 190565, Note_on_c, 0, 79, 93
1, 190566, Note_on_c, 0, 83, 88
1, 190567, Note_on_c, 0, 65, 90
1, 190570, Note_on_c, 0, 86, 85
1, 190573, Note_on_c, 0, 62, 84
1, 190578, Note_on_c, 0, 59, 77
1, 190579, Note_on_c, 0, 55, 77
1, 190601, Control_c, 0, 64, 35
1, 190609, Control_c, 0, 64, 61
1, 190626, Control_c, 0, 64, 76
1, 190645, Control_c, 0, 64, 90
1, 190653, Note_on_c, 0, 79, 0
1, 190664, Control_c, 0, 64, 109
1, 190666, Note_on_c, 0, 89, 0
1, 190679, Note_on_c, 0, 86, 0
1, 190681, Control_c, 0, 64, 117
1, 190699, Control_c, 0, 64, 123
1, 190719, Control_c, 0, 64, 127
1, 190726, Note_on_c, 0, 62, 0
1, 190729, Note_on_c, 0, 55, 0
1, 190734, Note_on_c, 0, 65, 0
1, 190736, Note_on_c, 0, 59, 0
1, 190802, Note_on_c, 0, 83, 0
1, 190831, Control_c, 0, 64, 99
1, 190850, Control_c, 0, 64, 62
1, 190861, Note_on_c, 0, 89, 90
1, 190864, Note_on_c, 0, 83, 74
1, 190864, Note_on_c, 0, 79, 96
1, 190867, Control_c, 0, 64, 17
1, 190868, Note_on_c, 0, 65, 91
1, 190869, Note_on_c, 0, 86, 85
1, 190872, Note_on_c, 0, 62, 86
1, 190874, Note_on_c, 0, 59, 81
1, 190875, Note_on_c, 0, 55, 81
1, 190900, Control_c, 0, 64, 0
1, 190904, Control_c, 0, 64, 34
1, 190922, Control_c, 0, 64, 62
1, 190941, Control_c, 0, 64, 78
1, 190960, Control_c, 0, 64, 94
1, 190975, Note_on_c, 0, 79, 0
1, 190977, Control_c, 0, 64, 102
1, 190987, Note_on_c, 0, 89, 0
1, 190998, Note_on_c, 0, 65, 0
1, 191004, Note_on_c, 0, 55, 0
1, 191004, Note_on_c, 0, 59, 0
1, 191012, Note_on_c, 0, 83, 0
1, 191016, Control_c, 0, 64, 108
1, 191018, Note_on_c, 0, 62, 0
1, 191028, Note_on_c, 0, 86, 0
1, 191034, Control_c, 0, 64, 114
1, 191062, Control_c, 0, 64, 120
1, 191078, Control_c, 0, 64, 127
1, 191223, Note_on_c, 0, 89, 96
1, 191226, Note_on_c, 0, 79, 97
1, 191228, Note_on_c, 0, 83, 88
1, 191234, Note_on_c, 0, 62, 81
1, 191234, Note_on_c, 0, 65, 95
1, 191235, Note_on_c, 0, 86, 87
1, 191240, Note_on_c, 0, 59, 80
1, 191241, Note_on_c, 0, 55, 82
1, 191245, Control_c, 0, 64, 119
1, 191266, Control_c, 0, 64, 100
1, 191283, Control_c, 0, 64, 79
1, 191302, Control_c, 0, 64, 62
1, 191322, Control_c, 0, 64, 49
1, 191340, Control_c, 0, 64, 45
1, 191357, Control_c, 0, 64, 40
1, 191377, Control_c, 0, 64, 26
1, 191395, Control_c, 0, 64, 0
1, 191969, Control_c, 0, 64, 23
1, 191997, Control_c, 0, 64, 37
1, 192014, Control_c, 0, 64, 48
1, 192034, Control_c, 0, 64, 53
1, 192072, Control_c, 0, 64, 55
1, 192090, Control_c, 0, 64, 58
1, 192109, Control_c, 0, 64, 61
1, 192127, Control_c, 0, 64, 64
1, 192147, Control_c, 0, 64, 66
1, 192164, Control_c, 0, 64, 69
1, 192180, Control_c, 0, 64, 74
1, 192200, Control_c, 0, 64, 80
1, 192218, Control_c, 0, 64, 88
1, 192236, Control_c, 0, 64, 95
1, 192256, Control_c, 0, 64, 101
1, 192274, Control_c, 0, 64, 107
1, 192293, Control_c, 0, 64, 113
1, 192379, Note_on_c, 0, 79, 0
1, 192381, Note_on_c, 0, 55, 0
1, 192382, Note_on_c, 0, 89, 0
1, 192384, Note_on_c, 0, 59, 0
1, 192384, Control_c, 0, 64, 97
1, 192401, Note_on_c, 0, 62, 0
1, 192402, Control_c, 0, 64, 71
1, 192408, Note_on_c, 0, 83, 0
1, 192409, Note_on_c, 0, 86, 0
1, 192423, Control_c, 0, 64, 35
1, 192425, Note_on_c, 0, 65, 0
1, 192441, Control_c, 0, 64, 0
1, 193508, Note_on_c, 0, 72, 69
1, 193549, Note_on_c, 0, 72, 0
1, 194032, Note_on_c, 0, 67, 68
1, 194072, Note_on_c, 0, 67, 0
1, 194536, Note_on_c, 0, 64, 66
1, 194569, Note_on_c, 0, 64, 0
1, 194757, Note_on_c, 0, 48, 56
1, 194801, Note_on_c, 0, 48, 0
1, 195003, Note_on_c, 0, 36, 53
1, 195026, Control_c, 0, 67, 9
1, 195037, Note_on_c, 0, 36, 0
1, 195082, Control_c, 0, 67, 13
1, 195119, Control_c, 0, 67, 17
1, 195157, Control_c, 0, 67, 21
1, 195211, Control_c, 0, 67, 25
1, 195234, Note_on_c, 0, 69, 74
1, 195322, Control_c, 0, 67, 29
1, 195473, Note_on_c, 0, 69, 0
1, 195482, Note_on_c, 0, 62, 73
1, 195528, Note_on_c, 0, 62, 0
1, 195725, Note_on_c, 0, 48, 67
1, 195871, Control_c, 0, 67, 33
1, 195924, Control_c, 0, 67, 38
1, 195962, Control_c, 0, 67, 43
1, 195977, Note_on_c, 0, 36, 65
1, 195985, Note_on_c, 0, 48, 0
1, 195999, Control_c, 0, 67, 49
1, 196026, Note_on_c, 0, 36, 0
1, 196033, Control_c, 0, 67, 54
1, 196072, Control_c, 0, 67, 60
1, 196109, Control_c, 0, 67, 67
1, 196128, Control_c, 0, 67, 72
1, 196147, Control_c, 0, 67, 77
1, 196166, Control_c, 0, 67, 81
1, 196184, Control_c, 0, 67, 85
1, 196199, Note_on_c, 0, 67, 67
1, 196222, Control_c, 0, 67, 91
1, 196278, Control_c, 0, 67, 95
1, 196427, Note_on_c, 0, 67, 0
1, 196451, Note_on_c, 0, 60, 66
1, 196502, Note_on_c, 0, 60, 0
1, 196683, Note_on_c, 0, 48, 63
1, 196927, Note_on_c, 0, 36, 70
1, 196948, Note_on_c, 0, 48, 0
1, 196970, Note_on_c, 0, 36, 0
1, 197152, Note_on_c, 0, 76, 82
1, 197323, Control_c, 0, 67, 91
1, 197378, Note_on_c, 0, 76, 0
1, 197385, Note_on_c, 0, 65, 83
1, 197396, Control_c, 0, 67, 87
1, 197453, Control_c, 0, 64, 8
1, 197471, Control_c, 0, 64, 17
1, 197489, Note_on_c, 0, 48, 75
1, 197490, Control_c, 0, 64, 21
1, 197509, Control_c, 0, 64, 25
1, 197544, Control_c, 0, 64, 32
1, 197609, Note_on_c, 0, 48, 0
1, 197609, Note_on_c, 0, 65, 0
1, 197614, Note_on_c, 0, 36, 77
1, 197691, Note_on_c, 0, 36, 0
1, 197741, Note_on_c, 0, 48, 76
1, 197814, Control_c, 0, 64, 28
1, 197831, Note_on_c, 0, 48, 0
1, 197849, Note_on_c, 0, 36, 82
1, 197850, Control_c, 0, 64, 22
1, 197870, Control_c, 0, 64, 18
1, 197889, Control_c, 0, 64, 14
1, 197893, Note_on_c, 0, 36, 0
1, 197907, Control_c, 0, 64, 10
1, 197942, Note_on_c, 0, 74, 68
1, 197943, Control_c, 0, 64, 0
1, 197999, Control_c, 0, 67, 91
1, 198033, Note_on_c, 0, 74, 0
1, 198065, Note_on_c, 0, 65, 72
1, 198126, Note_on_c, 0, 65, 0
1, 198170, Note_on_c, 0, 74, 70
1, 198249, Note_on_c, 0, 74, 0
1, 198276, Note_on_c, 0, 64, 74
1, 198351, Control_c, 0, 64, 8
1, 198370, Control_c, 0, 64, 13
1, 198385, Note_on_c, 0, 48, 62
1, 198458, Note_on_c, 0, 48, 0
1, 198471, Note_on_c, 0, 64, 0
1, 198501, Note_on_c, 0, 36, 55
1, 198565, Note_on_c, 0, 36, 0
1, 198603, Control_c, 0, 67, 95
1, 198621, Note_on_c, 0, 48, 57
1, 198674, Control_c, 0, 67, 100
1, 198684, Note_on_c, 0, 48, 0
1, 198712, Control_c, 0, 67, 107
1, 198726, Note_on_c, 0, 36, 67
1, 198751, Control_c, 0, 67, 114
1, 198764, Note_on_c, 0, 36, 0
1, 198768, Control_c, 0, 67, 120
1, 198786, Control_c, 0, 67, 126
1, 198843, Note_on_c, 0, 72, 57
1, 198914, Note_on_c, 0, 72, 0
1, 198945, Note_on_c, 0, 64, 54
1, 198974, Control_c, 0, 64, 8
1, 199004, Note_on_c, 0, 64, 0
1, 199056, Note_on_c, 0, 72, 60
1, 199141, Note_on_c, 0, 72, 0
1, 199178, Note_on_c, 0, 62, 60
1, 199325, Control_c, 0, 64, 14
1, 199362, Control_c, 0, 64, 24
1, 199366, Note_on_c, 0, 62, 0
1, 199382, Control_c, 0, 64, 32
1, 199400, Control_c, 0, 64, 40
1, 199407, Note_on_c, 0, 69, 63
1, 199416, Control_c, 0, 64, 45
1, 199436, Control_c, 0, 64, 49
1, 199454, Control_c, 0, 64, 52
1, 199458, Note_on_c, 0, 69, 0
1, 199482, Control_c, 0, 64, 54
1, 199520, Control_c, 0, 64, 57
1, 199594, Control_c, 0, 64, 54
1, 199612, Control_c, 0, 64, 52
1, 199630, Control_c, 0, 64, 50
1, 199649, Control_c, 0, 64, 45
1, 199655, Note_on_c, 0, 57, 56
1, 199668, Control_c, 0, 64, 37
1, 199686, Control_c, 0, 64, 28
1, 199705, Control_c, 0, 64, 24
1, 199743, Control_c, 0, 64, 20
1, 199761, Control_c, 0, 64, 13
1, 199779, Control_c, 0, 64, 0
1, 199861, Note_on_c, 0, 57, 0
1, 199875, Note_on_c, 0, 59, 61
1, 199924, Note_on_c, 0, 59, 0
1, 200117, Note_on_c, 0, 62, 48
1, 200216, Note_on_c, 0, 48, 49
1, 200309, Note_on_c, 0, 48, 0
1, 200334, Note_on_c, 0, 62, 0
1, 200335, Note_on_c, 0, 36, 49
1, 200343, Note_on_c, 0, 60, 47
1, 200410, Note_on_c, 0, 36, 0
1, 200473, Note_on_c, 0, 48, 52
1, 200530, Note_on_c, 0, 48, 0
1, 200533, Note_on_c, 0, 60, 0
1, 200590, Note_on_c, 0, 36, 59
1, 200637, Note_on_c, 0, 36, 0
1, 200836, Note_on_c, 0, 62, 62
1, 200838, Note_on_c, 0, 59, 57
1, 200878, Note_on_c, 0, 62, 0
1, 200880, Note_on_c, 0, 59, 0
1, 201074, Note_on_c, 0, 65, 68
1, 201081, Note_on_c, 0, 62, 48
1, 201172, Note_on_c, 0, 48, 52
1, 201215, Control_c, 0, 64, 12
1, 201233, Control_c, 0, 64, 28
1, 201246, Note_on_c, 0, 48, 0
1, 201252, Control_c, 0, 64, 40
1, 201271, Control_c, 0, 64, 47
1, 201288, Control_c, 0, 64, 51
1, 201292, Note_on_c, 0, 36, 46
1, 201308, Control_c, 0, 64, 54
1, 201310, Note_on_c, 0, 64, 62
1, 201314, Note_on_c, 0, 60, 51
1, 201314, Note_on_c, 0, 62, 0
1, 201325, Control_c, 0, 64, 56
1, 201353, Control_c, 0, 64, 59
1, 201359, Note_on_c, 0, 36, 0
1, 201359, Note_on_c, 0, 65, 0
1, 201372, Control_c, 0, 64, 61
1, 201390, Control_c, 0, 64, 62
1, 201398, Note_on_c, 0, 60, 0
1, 201421, Note_on_c, 0, 48, 54
1, 201429, Control_c, 0, 64, 63
1, 201437, Note_on_c, 0, 64, 0
1, 201539, Control_c, 0, 64, 61
1, 201543, Note_on_c, 0, 48, 0
1, 201557, Control_c, 0, 64, 58
1, 201563, Note_on_c, 0, 36, 68
1, 201577, Control_c, 0, 64, 54
1, 201594, Control_c, 0, 64, 52
1, 201613, Control_c, 0, 64, 50
1, 201615, Note_on_c, 0, 36, 0
1, 201634, Control_c, 0, 64, 47
1, 201651, Control_c, 0, 64, 42
1, 201667, Control_c, 0, 64, 34
1, 201686, Control_c, 0, 64, 29
1, 201791, Note_on_c, 0, 65, 77
1, 201796, Note_on_c, 0, 62, 68
1, 201835, Note_on_c, 0, 62, 0
1, 201835, Note_on_c, 0, 65, 0
1, 201984, Control_c, 0, 64, 25
1, 202021, Control_c, 0, 64, 17
1, 202029, Note_on_c, 0, 69, 79
1, 202042, Note_on_c, 0, 65, 68
1, 202134, Note_on_c, 0, 48, 65
1, 202240, Note_on_c, 0, 48, 0
1, 202251, Note_on_c, 0, 36, 68
1, 202253, Note_on_c, 0, 65, 0
1, 202262, Note_on_c, 0, 67, 76
1, 202273, Note_on_c, 0, 64, 68
1, 202308, Control_c, 0, 67, 116
1, 202326, Control_c, 0, 64, 13
1, 202327, Control_c, 0, 67, 101
1, 202332, Note_on_c, 0, 69, 0
1, 202345, Control_c, 0, 67, 80
1, 202348, Note_on_c, 0, 64, 0
1, 202355, Note_on_c, 0, 36, 0
1, 202356, Note_on_c, 0, 67, 0
1, 202364, Control_c, 0, 64, 0
1, 202365, Control_c, 0, 67, 54
1, 202382, Control_c, 0, 67, 27
1, 202387, Note_on_c, 0, 48, 76
1, 202419, Control_c, 0, 67, 0
1, 202517, Note_on_c, 0, 36, 82
1, 202533, Note_on_c, 0, 48, 0
1, 202580, Note_on_c, 0, 36, 0
1, 202638, Note_on_c, 0, 71, 79
1, 202731, Note_on_c, 0, 71, 0
1, 202760, Note_on_c, 0, 62, 79
1, 202840, Note_on_c, 0, 62, 0
1, 202871, Note_on_c, 0, 71, 81
1, 202990, Note_on_c, 0, 71, 0
1, 202999, Note_on_c, 0, 74, 81
1, 203009, Note_on_c, 0, 65, 80
1, 203128, Note_on_c, 0, 48, 75
1, 203173, Note_on_c, 0, 65, 0
1, 203267, Note_on_c, 0, 74, 0
1, 203269, Note_on_c, 0, 36, 76
1, 203275, Note_on_c, 0, 72, 82
1, 203289, Note_on_c, 0, 64, 73
1, 203289, Note_on_c, 0, 48, 0
1, 203298, Control_c, 0, 64, 20
1, 203319, Control_c, 0, 64, 39
1, 203336, Control_c, 0, 64, 50
1, 203338, Note_on_c, 0, 64, 0
1, 203353, Control_c, 0, 64, 55
1, 203371, Control_c, 0, 64, 57
1, 203389, Note_on_c, 0, 36, 0
1, 203390, Control_c, 0, 64, 60
1, 203392, Note_on_c, 0, 72, 0
1, 203397, Note_on_c, 0, 48, 82
1, 203410, Control_c, 0, 64, 63
1, 203427, Control_c, 0, 64, 64
1, 203447, Control_c, 0, 64, 65
1, 203538, Note_on_c, 0, 36, 87
1, 203546, Note_on_c, 0, 48, 0
1, 203558, Control_c, 0, 64, 63
1, 203575, Control_c, 0, 64, 58
1, 203594, Control_c, 0, 64, 43
1, 203612, Control_c, 0, 64, 0
1, 203691, Note_on_c, 0, 74, 87
1, 203706, Control_c, 0, 64, 8
1, 203724, Control_c, 0, 64, 27
1, 203742, Control_c, 0, 64, 41
1, 203760, Control_c, 0, 64, 49
1, 203779, Control_c, 0, 64, 52
1, 203798, Control_c, 0, 64, 54
1, 203816, Control_c, 0, 64, 56
1, 203830, Note_on_c, 0, 74, 0
1, 203837, Control_c, 0, 64, 59
1, 203854, Control_c, 0, 64, 61
1, 203855, Note_on_c, 0, 71, 88
1, 203873, Control_c, 0, 64, 62
1, 203985, Note_on_c, 0, 36, 0
1, 204002, Control_c, 0, 64, 61
1, 204006, Note_on_c, 0, 74, 89
1, 204016, Note_on_c, 0, 71, 0
1, 204021, Control_c, 0, 64, 59
1, 204237, Note_on_c, 0, 74, 0
1, 204291, Note_on_c, 0, 77, 89
1, 204304, Note_on_c, 0, 74, 76
1, 204382, Control_c, 0, 64, 57
1, 204401, Control_c, 0, 64, 52
1, 204419, Control_c, 0, 64, 46
1, 204438, Control_c, 0, 64, 44
1, 204473, Control_c, 0, 64, 42
1, 204510, Control_c, 0, 64, 35
1, 204530, Control_c, 0, 64, 29
1, 205641, Poly_aftertouch_c, 0, 74, 24
1, 205663, Note_on_c, 0, 74, 0
1, 205675, Note_on_c, 0, 76, 45
1, 205679, Poly_aftertouch_c, 0, 77, 24
1, 205727, Note_on_c, 0, 72, 27
1, 205767, Note_on_c, 0, 77, 0
1, 205779, Control_c, 0, 64, 21
1, 205817, Control_c, 0, 64, 15
1, 206085, Control_c, 0, 64, 11
1, 206177, Control_c, 0, 64, 0
1, 206229, Note_on_c, 0, 72, 0
1, 206244, Note_on_c, 0, 76, 0
1, 206600, Note_on_c, 0, 72, 58
1, 206602, Note_on_c, 0, 76, 77
1, 206612, Note_on_c, 0, 40, 63
1, 206612, Note_on_c, 0, 36, 59
1, 206623, Note_on_c, 0, 79, 78
1, 206631, Note_on_c, 0, 43, 58
1, 206638, Note_on_c, 0, 72, 0
1, 206660, Control_c, 0, 64, 32
1, 206668, Note_on_c, 0, 84, 92
1, 206670, Note_on_c, 0, 48, 88
1, 206679, Control_c, 0, 64, 67
1, 206697, Control_c, 0, 64, 95
1, 206697, Note_on_c, 0, 36, 0
1, 206698, Note_on_c, 0, 76, 0
1, 206700, Note_on_c, 0, 43, 0
1, 206704, Note_on_c, 0, 40, 0
1, 206716, Control_c, 0, 64, 127
1, 206723, Note_on_c, 0, 79, 0
1, 206726, Note_on_c, 0, 84, 0
1, 206733, Note_on_c, 0, 48, 0
1, 206939, Control_c, 0, 64, 108
1, 206967, Control_c, 0, 64, 84
1, 206986, Control_c, 0, 64, 65
1, 207004, Control_c, 0, 64, 52
1, 207024, Control_c, 0, 64, 44
1, 207040, Control_c, 0, 64, 23
1, 207059, Control_c, 0, 64, 0
1, 207076, Note_on_c, 0, 71, 59
1, 207096, Note_on_c, 0, 74, 76
1, 207109, Note_on_c, 0, 47, 51
1, 207115, Note_on_c, 0, 43, 60
1, 207116, Note_on_c, 0, 50, 63
1, 207126, Note_on_c, 0, 71, 0
1, 207142, Note_on_c, 0, 79, 91
1, 207153, Control_c, 0, 64, 30
1, 207157, Note_on_c, 0, 55, 82
1, 207170, Control_c, 0, 64, 79
1, 207175, Note_on_c, 0, 50, 0
1, 207183, Note_on_c, 0, 43, 0
1, 207187, Note_on_c, 0, 74, 0
1, 207189, Control_c, 0, 64, 127
1, 207194, Note_on_c, 0, 47, 0
1, 207195, Note_on_c, 0, 79, 0
1, 207221, Note_on_c, 0, 55, 0
1, 207504, Control_c, 0, 64, 100
1, 207523, Control_c, 0, 64, 54
1, 207535, Note_on_c, 0, 67, 53
1, 207541, Control_c, 0, 64, 0
1, 207557, Note_on_c, 0, 52, 60
1, 207561, Note_on_c, 0, 48, 49
1, 207569, Note_on_c, 0, 72, 68
1, 207579, Note_on_c, 0, 55, 62
1, 207588, Note_on_c, 0, 67, 0
1, 207596, Control_c, 0, 64, 40
1, 207616, Note_on_c, 0, 76, 95
1, 207616, Control_c, 0, 64, 72
1, 207628, Note_on_c, 0, 55, 0
1, 207634, Note_on_c, 0, 60, 90
1, 207635, Control_c, 0, 64, 109
1, 207641, Note_on_c, 0, 72, 0
1, 207650, Note_on_c, 0, 48, 0
1, 207650, Control_c, 0, 64, 127
1, 207659, Note_on_c, 0, 52, 0
1, 207672, Note_on_c, 0, 76, 0
1, 207688, Note_on_c, 0, 60, 0
1, 208088, Control_c, 0, 67, 8
1, 208106, Control_c, 0, 67, 23
1, 208126, Control_c, 0, 64, 76
1, 208128, Control_c, 0, 67, 41
1, 208145, Control_c, 0, 64, 16
1, 208145, Control_c, 0, 67, 71
1, 208161, Control_c, 0, 64, 0
1, 208163, Control_c, 0, 67, 111
1, 208179, Control_c, 0, 67, 127
1, 208344, Note_on_c, 0, 83, 59
1, 208404, Note_on_c, 0, 81, 60
1, 208425, Note_on_c, 0, 83, 0
1, 208447, Note_on_c, 0, 81, 0
1, 208455, Note_on_c, 0, 80, 64
1, 208496, Note_on_c, 0, 80, 0
1, 208514, Note_on_c, 0, 81, 71
1, 208553, Note_on_c, 0, 81, 0
1, 208571, Note_on_c, 0, 74, 67
1, 208611, Note_on_c, 0, 74, 0
1, 208701, Control_c, 0, 64, 15
1, 208737, Control_c, 0, 64, 21
1, 208763, Note_on_c, 0, 67, 61
1, 208793, Control_c, 0, 64, 25
1, 208804, Note_on_c, 0, 67, 0
1, 208852, Note_on_c, 0, 65, 51
1, 208891, Note_on_c, 0, 65, 0
1, 208895, Control_c, 0, 64, 19
1, 208899, Note_on_c, 0, 64, 65
1, 208932, Control_c, 0, 64, 15
1, 208943, Note_on_c, 0, 64, 0
1, 208958, Note_on_c, 0, 65, 68
1, 208994, Note_on_c, 0, 65, 0
1, 209021, Note_on_c, 0, 71, 74
1, 209082, Note_on_c, 0, 71, 0
1, 209213, Control_c, 0, 64, 10
1, 209226, Note_on_c, 0, 81, 65
1, 209285, Note_on_c, 0, 79, 60
1, 209300, Note_on_c, 0, 81, 0
1, 209320, Note_on_c, 0, 79, 0
1, 209330, Note_on_c, 0, 78, 66
1, 209373, Note_on_c, 0, 78, 0
1, 209388, Note_on_c, 0, 79, 73
1, 209431, Note_on_c, 0, 79, 0
1, 209457, Note_on_c, 0, 72, 72
1, 209497, Note_on_c, 0, 72, 0
1, 209649, Note_on_c, 0, 65, 57
1, 209682, Note_on_c, 0, 65, 0
1, 209710, Note_on_c, 0, 64, 63
1, 209750, Control_c, 0, 64, 0
1, 209754, Note_on_c, 0, 64, 0
1, 209786, Note_on_c, 0, 62, 69
1, 209827, Note_on_c, 0, 62, 0
1, 209834, Note_on_c, 0, 64, 69
1, 209871, Note_on_c, 0, 64, 0
1, 209900, Note_on_c, 0, 72, 80
1, 209971, Note_on_c, 0, 72, 0
1, 210089, Note_on_c, 0, 88, 80
1, 210330, Note_on_c, 0, 77, 82
1, 210364, Note_on_c, 0, 88, 0
1, 210433, Note_on_c, 0, 62, 61
1, 210531, Note_on_c, 0, 62, 0
1, 210546, Note_on_c, 0, 61, 65
1, 210632, Note_on_c, 0, 61, 0
1, 210637, Note_on_c, 0, 77, 0
1, 210660, Note_on_c, 0, 62, 61
1, 210717, Note_on_c, 0, 62, 0
1, 210764, Note_on_c, 0, 60, 64
1, 210816, Note_on_c, 0, 60, 0
1, 210890, Note_on_c, 0, 59, 54
1, 210939, Note_on_c, 0, 59, 0
1, 210990, Note_on_c, 0, 57, 58
1, 211008, Note_on_c, 0, 86, 64
1, 211046, Note_on_c, 0, 57, 0
1, 211101, Note_on_c, 0, 55, 62
1, 211142, Note_on_c, 0, 55, 0
1, 211243, Note_on_c, 0, 76, 68
1, 211259, Note_on_c, 0, 86, 0
1, 211365, Note_on_c, 0, 60, 64
1, 211462, Note_on_c, 0, 60, 0
1, 211485, Note_on_c, 0, 62, 47
1, 211544, Note_on_c, 0, 76, 0
1, 211566, Note_on_c, 0, 62, 0
1, 211567, Note_on_c, 0, 64, 58
1, 211674, Note_on_c, 0, 64, 0
1, 211697, Note_on_c, 0, 65, 61
1, 211749, Note_on_c, 0, 65, 0
1, 211795, Note_on_c, 0, 67, 61
1, 211851, Note_on_c, 0, 67, 0
1, 211923, Note_on_c, 0, 84, 62
1, 211923, Note_on_c, 0, 68, 55
1, 211976, Note_on_c, 0, 68, 0
1, 212031, Note_on_c, 0, 69, 56
1, 212081, Note_on_c, 0, 69, 0
1, 212136, Note_on_c, 0, 84, 0
1, 212153, Note_on_c, 0, 74, 63
1, 212167, Note_on_c, 0, 65, 53
1, 212195, Note_on_c, 0, 74, 0
1, 212380, Note_on_c, 0, 81, 69
1, 212388, Note_on_c, 0, 77, 63
1, 212419, Note_on_c, 0, 77, 0
1, 212421, Note_on_c, 0, 81, 0
1, 212639, Note_on_c, 0, 79, 73
1, 212660, Note_on_c, 0, 65, 0
1, 212664, Note_on_c, 0, 76, 51
1, 212877, Note_on_c, 0, 76, 0
1, 212878, Note_on_c, 0, 71, 74
1, 212887, Note_on_c, 0, 67, 74
1, 212919, Note_on_c, 0, 71, 0
1, 212921, Note_on_c, 0, 67, 0
1, 213117, Note_on_c, 0, 64, 71
1, 213117, Note_on_c, 0, 60, 77
1, 213119, Note_on_c, 0, 72, 77
1, 213153, Note_on_c, 0, 64, 0
1, 213168, Note_on_c, 0, 72, 0
1, 213190, Note_on_c, 0, 60, 0
1, 213215, Note_on_c, 0, 67, 58
1, 213324, Note_on_c, 0, 67, 0
1, 213342, Note_on_c, 0, 72, 76
1, 213348, Note_on_c, 0, 79, 0
1, 213352, Note_on_c, 0, 64, 65
1, 213352, Note_on_c, 0, 60, 60
1, 213393, Note_on_c, 0, 64, 0
1, 213394, Note_on_c, 0, 72, 0
1, 213415, Note_on_c, 0, 60, 0
1, 213461, Note_on_c, 0, 67, 65
1, 213593, Note_on_c, 0, 67, 0
1, 213594, Note_on_c, 0, 64, 74
1, 213598, Note_on_c, 0, 60, 73
1, 213631, Note_on_c, 0, 64, 0
1, 213644, Note_on_c, 0, 60, 0
1, 213698, Note_on_c, 0, 67, 62
1, 213790, Note_on_c, 0, 67, 0
1, 213813, Note_on_c, 0, 81, 72
1, 213826, Note_on_c, 0, 64, 67
1, 213833, Note_on_c, 0, 60, 64
1, 213867, Note_on_c, 0, 64, 0
1, 213871, Note_on_c, 0, 79, 74
1, 213880, Note_on_c, 0, 60, 0
1, 213901, Note_on_c, 0, 81, 0
1, 213917, Note_on_c, 0, 67, 71
1, 213920, Note_on_c, 0, 79, 0
1, 213924, Note_on_c, 0, 78, 74
1, 213982, Note_on_c, 0, 79, 75
1, 213983, Note_on_c, 0, 78, 0
1, 214043, Note_on_c, 0, 79, 0
1, 214053, Note_on_c, 0, 67, 0
1, 214061, Note_on_c, 0, 65, 78
1, 214065, Note_on_c, 0, 71, 84
1, 214072, Note_on_c, 0, 60, 71
1, 214095, Control_c, 0, 64, 13
1, 214101, Note_on_c, 0, 65, 0
1, 214114, Control_c, 0, 64, 30
1, 214128, Note_on_c, 0, 71, 0
1, 214131, Control_c, 0, 64, 44
1, 214136, Note_on_c, 0, 60, 0
1, 214149, Control_c, 0, 64, 55
1, 214168, Control_c, 0, 64, 65
1, 214170, Note_on_c, 0, 67, 73
1, 214186, Control_c, 0, 64, 73
1, 214206, Control_c, 0, 64, 81
1, 214224, Control_c, 0, 64, 90
1, 214242, Control_c, 0, 64, 95
1, 214280, Control_c, 0, 64, 102
1, 214291, Note_on_c, 0, 67, 0
1, 214305, Note_on_c, 0, 65, 71
1, 214311, Note_on_c, 0, 60, 69
1, 214313, Note_on_c, 0, 71, 77
1, 214316, Control_c, 0, 64, 108
1, 214356, Note_on_c, 0, 65, 0
1, 214364, Note_on_c, 0, 71, 0
1, 214380, Note_on_c, 0, 60, 0
1, 214413, Note_on_c, 0, 67, 73
1, 214474, Control_c, 0, 64, 102
1, 214493, Control_c, 0, 64, 95
1, 214513, Control_c, 0, 64, 88
1, 214519, Note_on_c, 0, 67, 0
1, 214530, Note_on_c, 0, 65, 82
1, 214530, Control_c, 0, 64, 81
1, 214544, Note_on_c, 0, 60, 78
1, 214550, Control_c, 0, 64, 76
1, 214551, Control_c, 0, 67, 123
1, 214565, Control_c, 0, 64, 72
1, 214584, Note_on_c, 0, 60, 0
1, 214585, Control_c, 0, 64, 70
1, 214589, Note_on_c, 0, 65, 0
1, 214603, Control_c, 0, 64, 68
1, 214623, Control_c, 0, 64, 65
1, 214624, Control_c, 0, 67, 118
1, 214630, Note_on_c, 0, 67, 69
1, 214641, Control_c, 0, 64, 62
1, 214660, Control_c, 0, 64, 60
1, 214661, Control_c, 0, 67, 113
1, 214697, Control_c, 0, 67, 108
1, 214730, Note_on_c, 0, 67, 0
1, 214731, Control_c, 0, 67, 102
1, 214751, Control_c, 0, 67, 97
1, 214751, Note_on_c, 0, 65, 71
1, 214756, Note_on_c, 0, 60, 69
1, 214760, Note_on_c, 0, 81, 70
1, 214769, Control_c, 0, 67, 92
1, 214789, Control_c, 0, 64, 58
1, 214790, Control_c, 0, 67, 86
1, 214793, Note_on_c, 0, 65, 0
1, 214806, Note_on_c, 0, 79, 79
1, 214810, Note_on_c, 0, 60, 0
1, 214826, Control_c, 0, 67, 81
1, 214828, Note_on_c, 0, 81, 0
1, 214853, Note_on_c, 0, 67, 66
1, 214860, Note_on_c, 0, 78, 73
1, 214861, Note_on_c, 0, 79, 0
1, 214893, Note_on_c, 0, 78, 0
1, 214908, Note_on_c, 0, 79, 79
1, 214974, Control_c, 0, 64, 55
1, 214975, Note_on_c, 0, 79, 0
1, 214981, Note_on_c, 0, 84, 89
1, 214986, Note_on_c, 0, 64, 62
1, 214986, Note_on_c, 0, 60, 62
1, 214988, Note_on_c, 0, 67, 0
1, 214991, Control_c, 0, 64, 53
1, 215012, Control_c, 0, 64, 50
1, 215030, Control_c, 0, 64, 46
1, 215041, Note_on_c, 0, 64, 0
1, 215048, Control_c, 0, 64, 44
1, 215048, Note_on_c, 0, 60, 0
1, 215090, Note_on_c, 0, 67, 67
1, 215159, Control_c, 0, 64, 46
1, 215178, Control_c, 0, 64, 50
1, 215184, Note_on_c, 0, 67, 0
1, 215194, Note_on_c, 0, 84, 0
1, 215195, Control_c, 0, 64, 54
1, 215205, Note_on_c, 0, 88, 80
1, 215209, Note_on_c, 0, 64, 60
1, 215214, Control_c, 0, 64, 58
1, 215216, Note_on_c, 0, 60, 58
1, 215236, Control_c, 0, 64, 61
1, 215253, Control_c, 0, 64, 63
1, 215260, Note_on_c, 0, 88, 0
1, 215262, Note_on_c, 0, 64, 0
1, 215267, Control_c, 0, 64, 64
1, 215288, Note_on_c, 0, 60, 0
1, 215307, Control_c, 0, 64, 65
1, 215319, Note_on_c, 0, 67, 63
1, 215406, Note_on_c, 0, 67, 0
1, 215428, Control_c, 0, 64, 64
1, 215447, Control_c, 0, 64, 61
1, 215448, Note_on_c, 0, 64, 63
1, 215452, Note_on_c, 0, 60, 62
1, 215466, Control_c, 0, 64, 57
1, 215485, Control_c, 0, 64, 51
1, 215493, Note_on_c, 0, 64, 0
1, 215502, Note_on_c, 0, 60, 0
1, 215502, Control_c, 0, 64, 44
1, 215522, Control_c, 0, 64, 33
1, 215523, Control_c, 0, 67, 86
1, 215540, Control_c, 0, 64, 0
1, 215562, Note_on_c, 0, 79, 62
1, 215563, Note_on_c, 0, 67, 47
1, 215578, Control_c, 0, 67, 92
1, 215612, Note_on_c, 0, 79, 0
1, 215616, Note_on_c, 0, 67, 0
1, 215616, Control_c, 0, 67, 98
1, 215651, Control_c, 0, 67, 105
1, 215654, Note_on_c, 0, 64, 54
1, 215654, Note_on_c, 0, 81, 69
1, 215661, Note_on_c, 0, 60, 53
1, 215669, Control_c, 0, 67, 111
1, 215689, Control_c, 0, 67, 118
1, 215697, Note_on_c, 0, 64, 0
1, 215706, Control_c, 0, 67, 125
1, 215710, Note_on_c, 0, 60, 0
1, 215721, Note_on_c, 0, 79, 65
1, 215724, Note_on_c, 0, 81, 0
1, 215757, Note_on_c, 0, 79, 0
1, 215759, Note_on_c, 0, 67, 43
1, 215775, Note_on_c, 0, 78, 60
1, 215801, Note_on_c, 0, 78, 0
1, 215818, Note_on_c, 0, 79, 73
1, 215863, Note_on_c, 0, 79, 0
1, 215868, Note_on_c, 0, 67, 0
1, 215899, Note_on_c, 0, 71, 69
1, 215903, Note_on_c, 0, 65, 55
1, 215909, Note_on_c, 0, 60, 47
1, 215943, Note_on_c, 0, 71, 0
1, 215952, Note_on_c, 0, 65, 0
1, 215971, Note_on_c, 0, 60, 0
1, 216011, Note_on_c, 0, 67, 55
1, 216107, Note_on_c, 0, 67, 0
1, 216147, Note_on_c, 0, 65, 47
1, 216151, Note_on_c, 0, 60, 47
1, 216157, Note_on_c, 0, 71, 60
1, 216191, Note_on_c, 0, 71, 0
1, 216194, Note_on_c, 0, 65, 0
1, 216212, Note_on_c, 0, 60, 0
1, 216256, Note_on_c, 0, 67, 49
1, 216332, Note_on_c, 0, 67, 0
1, 216361, Note_on_c, 0, 65, 51
1, 216378, Note_on_c, 0, 60, 51
1, 216405, Note_on_c, 0, 65, 0
1, 216426, Note_on_c, 0, 60, 0
1, 216469, Note_on_c, 0, 79, 60
1, 216516, Note_on_c, 0, 79, 0
1, 216574, Note_on_c, 0, 81, 63
1, 216577, Note_on_c, 0, 60, 41
1, 216578, Note_on_c, 0, 65, 47
1, 216613, Note_on_c, 0, 65, 0
1, 216620, Note_on_c, 0, 79, 71
1, 216635, Note_on_c, 0, 60, 0
1, 216647, Note_on_c, 0, 81, 0
1, 216665, Note_on_c, 0, 79, 0
1, 216680, Note_on_c, 0, 78, 66
1, 216720, Note_on_c, 0, 78, 0
1, 216730, Note_on_c, 0, 79, 69
1, 216775, Poly_aftertouch_c, 0, 67, 0
1, 216783, Note_on_c, 0, 79, 0
1, 216810, Note_on_c, 0, 84, 70
1, 216830, Note_on_c, 0, 60, 45
1, 216837, Note_on_c, 0, 64, 43
1, 216891, Note_on_c, 0, 64, 0
1, 216897, Note_on_c, 0, 60, 0
1, 216942, Note_on_c, 0, 67, 40
1, 216987, Note_on_c, 0, 67, 0
1, 217024, Note_on_c, 0, 84, 0
1, 217048, Note_on_c, 0, 88, 66
1, 217050, Note_on_c, 0, 64, 45
1, 217055, Note_on_c, 0, 60, 48
1, 217089, Note_on_c, 0, 88, 0
1, 217108, Note_on_c, 0, 64, 0
1, 217117, Note_on_c, 0, 60, 0
1, 217154, Note_on_c, 0, 67, 41
1, 217236, Note_on_c, 0, 67, 0
1, 217290, Note_on_c, 0, 64, 51
1, 217294, Note_on_c, 0, 60, 55
1, 217330, Note_on_c, 0, 64, 0
1, 217344, Note_on_c, 0, 60, 0
1, 217407, Note_on_c, 0, 79, 59
1, 217408, Note_on_c, 0, 67, 31
1, 217450, Note_on_c, 0, 67, 0
1, 217453, Note_on_c, 0, 79, 0
1, 217499, Note_on_c, 0, 81, 68
1, 217500, Note_on_c, 0, 64, 56
1, 217505, Note_on_c, 0, 60, 52
1, 217541, Note_on_c, 0, 64, 0
1, 217544, Note_on_c, 0, 79, 73
1, 217557, Note_on_c, 0, 60, 0
1, 217575, Note_on_c, 0, 81, 0
1, 217589, Note_on_c, 0, 79, 0
1, 217599, Note_on_c, 0, 78, 71
1, 217610, Note_on_c, 0, 67, 21
1, 217646, Note_on_c, 0, 78, 0
1, 217659, Note_on_c, 0, 79, 73
1, 217715, Note_on_c, 0, 67, 0
1, 217722, Note_on_c, 0, 79, 0
1, 217740, Note_on_c, 0, 65, 67
1, 217744, Note_on_c, 0, 71, 80
1, 217749, Note_on_c, 0, 60, 63
1, 217780, Note_on_c, 0, 65, 0
1, 217788, Note_on_c, 0, 71, 0
1, 217798, Note_on_c, 0, 60, 0
1, 217849, Note_on_c, 0, 67, 53
1, 217942, Note_on_c, 0, 67, 0
1, 217973, Note_on_c, 0, 71, 79
1, 217975, Note_on_c, 0, 65, 55
1, 217988, Note_on_c, 0, 60, 56
1, 218015, Note_on_c, 0, 71, 0
1, 218026, Note_on_c, 0, 65, 0
1, 218046, Note_on_c, 0, 60, 0
1, 218086, Note_on_c, 0, 67, 58
1, 218159, Note_on_c, 0, 67, 0
1, 218216, Note_on_c, 0, 65, 63
1, 218219, Note_on_c, 0, 60, 61
1, 218256, Note_on_c, 0, 65, 0
1, 218270, Note_on_c, 0, 60, 0
1, 218330, Note_on_c, 0, 67, 44
1, 218392, Note_on_c, 0, 67, 0
1, 218442, Note_on_c, 0, 81, 60
1, 218453, Note_on_c, 0, 65, 43
1, 218458, Note_on_c, 0, 60, 37
1, 218485, Note_on_c, 0, 65, 0
1, 218496, Note_on_c, 0, 79, 61
1, 218496, Note_on_c, 0, 81, 0
1, 218500, Note_on_c, 0, 60, 0
1, 218533, Note_on_c, 0, 79, 0
1, 218549, Note_on_c, 0, 78, 57
1, 218556, Note_on_c, 0, 67, 35
1, 218589, Note_on_c, 0, 78, 0
1, 218598, Note_on_c, 0, 79, 73
1, 218609, Note_on_c, 0, 67, 0
1, 218655, Note_on_c, 0, 79, 0
1, 218682, Note_on_c, 0, 72, 72
1, 218689, Note_on_c, 0, 64, 52
1, 218696, Note_on_c, 0, 60, 42
1, 218726, Note_on_c, 0, 72, 0
1, 218732, Note_on_c, 0, 64, 0
1, 218752, Note_on_c, 0, 60, 0
1, 218777, Note_on_c, 0, 67, 44
1, 218836, Note_on_c, 0, 67, 0
1, 218905, Note_on_c, 0, 81, 55
1, 218905, Note_on_c, 0, 64, 46
1, 218907, Note_on_c, 0, 60, 43
1, 218951, Note_on_c, 0, 79, 65
1, 218953, Note_on_c, 0, 64, 0
1, 218957, Note_on_c, 0, 81, 0
1, 218976, Note_on_c, 0, 60, 0
1, 218989, Note_on_c, 0, 79, 0
1, 219014, Note_on_c, 0, 78, 60
1, 219015, Note_on_c, 0, 67, 39
1, 219057, Note_on_c, 0, 78, 0
1, 219064, Note_on_c, 0, 67, 0
1, 219070, Note_on_c, 0, 79, 66
1, 219105, Note_on_c, 0, 79, 0
1, 219136, Note_on_c, 0, 74, 70
1, 219143, Note_on_c, 0, 59, 52
1, 219156, Note_on_c, 0, 62, 35
1, 219176, Note_on_c, 0, 74, 0
1, 219195, Note_on_c, 0, 59, 0
1, 219195, Note_on_c, 0, 62, 0
1, 219255, Note_on_c, 0, 67, 29
1, 219303, Note_on_c, 0, 67, 0
1, 219360, Note_on_c, 0, 81, 62
1, 219364, Note_on_c, 0, 59, 47
1, 219375, Note_on_c, 0, 62, 32
1, 219409, Note_on_c, 0, 79, 67
1, 219412, Note_on_c, 0, 62, 0
1, 219421, Note_on_c, 0, 59, 0
1, 219427, Note_on_c, 0, 81, 0
1, 219454, Note_on_c, 0, 79, 0
1, 219465, Note_on_c, 0, 67, 48
1, 219478, Note_on_c, 0, 78, 56
1, 219523, Note_on_c, 0, 78, 0
1, 219538, Note_on_c, 0, 79, 64
1, 219547, Note_on_c, 0, 67, 0
1, 219576, Note_on_c, 0, 79, 0
1, 219596, Note_on_c, 0, 64, 51
1, 219597, Note_on_c, 0, 60, 54
1, 219600, Note_on_c, 0, 76, 70
1, 219640, Note_on_c, 0, 64, 0
1, 219644, Note_on_c, 0, 76, 0
1, 219656, Note_on_c, 0, 60, 0
1, 219713, Note_on_c, 0, 67, 38
1, 219763, Note_on_c, 0, 67, 0
1, 219816, Note_on_c, 0, 81, 60
1, 219818, Note_on_c, 0, 64, 48
1, 219826, Note_on_c, 0, 60, 54
1, 219864, Note_on_c, 0, 64, 0
1, 219867, Note_on_c, 0, 79, 59
1, 219889, Note_on_c, 0, 60, 0
1, 219894, Note_on_c, 0, 81, 0
1, 219909, Note_on_c, 0, 79, 0
1, 219917, Note_on_c, 0, 67, 49
1, 219933, Note_on_c, 0, 78, 57
1, 219977, Note_on_c, 0, 78, 0
1, 219988, Note_on_c, 0, 79, 73
1, 220015, Note_on_c, 0, 67, 0
1, 220027, Note_on_c, 0, 79, 0
1, 220050, Note_on_c, 0, 65, 55
1, 220056, Note_on_c, 0, 62, 58
1, 220072, Note_on_c, 0, 71, 70
1, 220103, Note_on_c, 0, 65, 0
1, 220118, Note_on_c, 0, 62, 0
1, 220123, Note_on_c, 0, 71, 0
1, 220190, Note_on_c, 0, 67, 30
1, 220239, Note_on_c, 0, 67, 0
1, 220282, Note_on_c, 0, 80, 60
1, 220295, Note_on_c, 0, 65, 36
1, 220305, Note_on_c, 0, 62, 40
1, 220332, Note_on_c, 0, 80, 0
1, 220339, Note_on_c, 0, 79, 58
1, 220342, Note_on_c, 0, 65, 0
1, 220345, Note_on_c, 0, 62, 0
1, 220378, Note_on_c, 0, 79, 0
1, 220390, Note_on_c, 0, 78, 57
1, 220402, Note_on_c, 0, 67, 35
1, 220436, Note_on_c, 0, 78, 0
1, 220448, Note_on_c, 0, 79, 72
1, 220450, Note_on_c, 0, 67, 0
1, 220497, Note_on_c, 0, 79, 0
1, 220521, Note_on_c, 0, 63, 54
1, 220529, Note_on_c, 0, 72, 66
1, 220573, Note_on_c, 0, 72, 0
1, 220587, Note_on_c, 0, 63, 0
1, 220649, Note_on_c, 0, 67, 30
1, 220700, Note_on_c, 0, 67, 0
1, 220729, Note_on_c, 0, 80, 66
1, 220735, Note_on_c, 0, 63, 57
1, 220781, Note_on_c, 0, 79, 63
1, 220795, Note_on_c, 0, 63, 0
1, 220810, Note_on_c, 0, 80, 0
1, 220837, Note_on_c, 0, 67, 52
1, 220842, Note_on_c, 0, 79, 0
1, 220870, Note_on_c, 0, 78, 50
1, 220884, Note_on_c, 0, 79, 64
1, 220902, Note_on_c, 0, 78, 0
1, 220957, Note_on_c, 0, 79, 0
1, 220972, Note_on_c, 0, 74, 81
1, 220982, Note_on_c, 0, 59, 60
1, 220982, Note_on_c, 0, 62, 60
1, 220982, Note_on_c, 0, 67, 0
1, 221044, Note_on_c, 0, 62, 0
1, 221048, Note_on_c, 0, 74, 0
1, 221052, Note_on_c, 0, 59, 0
1, 221098, Note_on_c, 0, 67, 49
1, 221116, Control_c, 0, 64, 12
1, 221135, Control_c, 0, 64, 21
1, 221153, Control_c, 0, 64, 27
1, 221171, Control_c, 0, 64, 34
1, 221190, Control_c, 0, 64, 40
1, 221205, Note_on_c, 0, 80, 75
1, 221208, Control_c, 0, 64, 44
1, 221211, Note_on_c, 0, 59, 54
1, 221214, Note_on_c, 0, 62, 56
1, 221214, Note_on_c, 0, 67, 0
1, 221227, Control_c, 0, 64, 46
1, 221263, Note_on_c, 0, 62, 0
1, 221267, Note_on_c, 0, 79, 68
1, 221268, Note_on_c, 0, 80, 0
1, 221277, Note_on_c, 0, 59, 0
1, 221306, Note_on_c, 0, 79, 0
1, 221321, Note_on_c, 0, 67, 57
1, 221327, Note_on_c, 0, 78, 69
1, 221366, Note_on_c, 0, 78, 0
1, 221376, Note_on_c, 0, 79, 79
1, 221411, Control_c, 0, 64, 43
1, 221427, Note_on_c, 0, 79, 0
1, 221430, Control_c, 0, 64, 40
1, 221447, Note_on_c, 0, 67, 0
1, 221448, Control_c, 0, 64, 34
1, 221449, Control_c, 0, 67, 118
1, 221466, Control_c, 0, 64, 18
1, 221468, Control_c, 0, 67, 110
1, 221469, Note_on_c, 0, 75, 84
1, 221477, Note_on_c, 0, 63, 73
1, 221479, Note_on_c, 0, 60, 71
1, 221485, Control_c, 0, 64, 0
1, 221486, Control_c, 0, 67, 102
1, 221506, Control_c, 0, 67, 93
1, 221523, Control_c, 0, 67, 84
1, 221542, Control_c, 0, 67, 76
1, 221552, Note_on_c, 0, 75, 0
1, 221560, Control_c, 0, 67, 69
1, 221577, Control_c, 0, 67, 64
1, 221597, Control_c, 0, 64, 29
1, 221598, Control_c, 0, 67, 60
1, 221615, Control_c, 0, 64, 46
1, 221634, Control_c, 0, 64, 54
1, 221652, Control_c, 0, 64, 58
1, 221689, Control_c, 0, 64, 61
1, 221690, Control_c, 0, 67, 56
1, 221709, Control_c, 0, 64, 62
1, 221717, Note_on_c, 0, 86, 73
1, 221728, Control_c, 0, 67, 48
1, 221746, Control_c, 0, 67, 42
1, 221762, Control_c, 0, 67, 35
1, 221780, Note_on_c, 0, 84, 78
1, 221780, Control_c, 0, 64, 60
1, 221782, Control_c, 0, 67, 29
1, 221799, Note_on_c, 0, 86, 0
1, 221800, Control_c, 0, 64, 58
1, 221801, Control_c, 0, 67, 22
1, 221819, Control_c, 0, 64, 54
1, 221819, Control_c, 0, 67, 12
1, 221837, Control_c, 0, 64, 44
1, 221838, Control_c, 0, 67, 0
1, 221847, Note_on_c, 0, 84, 0
1, 221849, Note_on_c, 0, 83, 78
1, 221875, Control_c, 0, 64, 0
1, 221918, Note_on_c, 0, 83, 0
1, 221922, Note_on_c, 0, 84, 78
1, 221972, Note_on_c, 0, 84, 0
1, 221988, Note_on_c, 0, 79, 87
1, 222013, Control_c, 0, 64, 38
1, 222032, Control_c, 0, 64, 55
1, 222051, Control_c, 0, 64, 61
1, 222069, Control_c, 0, 64, 67
1, 222088, Control_c, 0, 64, 74
1, 222107, Control_c, 0, 64, 85
1, 222126, Control_c, 0, 64, 100
1, 222139, Note_on_c, 0, 63, 0
1, 222141, Note_on_c, 0, 60, 0
1, 222141, Control_c, 0, 64, 109
1, 222162, Control_c, 0, 64, 116
1, 222181, Control_c, 0, 64, 127
1, 222237, Note_on_c, 0, 89, 80
1, 222321, Note_on_c, 0, 87, 86
1, 222343, Note_on_c, 0, 89, 0
1, 222397, Note_on_c, 0, 87, 0
1, 222398, Note_on_c, 0, 86, 78
1, 222467, Note_on_c, 0, 87, 89
1, 222503, Note_on_c, 0, 86, 0
1, 222543, Note_on_c, 0, 87, 0
1, 222569, Control_c, 0, 64, 120
1, 222587, Control_c, 0, 64, 106
1, 222607, Control_c, 0, 64, 96
1, 222613, Note_on_c, 0, 60, 92
1, 222621, Note_on_c, 0, 56, 77
1, 222626, Control_c, 0, 64, 85
1, 222644, Control_c, 0, 64, 71
1, 222662, Control_c, 0, 64, 60
1, 222682, Control_c, 0, 64, 55
1, 222717, Control_c, 0, 64, 51
1, 222735, Control_c, 0, 64, 44
1, 222755, Control_c, 0, 64, 30
1, 222769, Note_on_c, 0, 83, 85
1, 222773, Control_c, 0, 64, 23
1, 222920, Note_on_c, 0, 86, 83
1, 222951, Note_on_c, 0, 83, 0
1, 223040, Note_on_c, 0, 84, 82
1, 223077, Note_on_c, 0, 86, 0
1, 223157, Note_on_c, 0, 82, 82
1, 223190, Note_on_c, 0, 84, 0
1, 223201, Note_on_c, 0, 79, 0
1, 223266, Note_on_c, 0, 82, 0
1, 223267, Note_on_c, 0, 80, 79
1, 223355, Control_c, 0, 64, 28
1, 223355, Note_on_c, 0, 80, 0
1, 223372, Note_on_c, 0, 79, 77
1, 223375, Control_c, 0, 64, 33
1, 223394, Control_c, 0, 64, 39
1, 223412, Control_c, 0, 64, 43
1, 223449, Control_c, 0, 64, 46
1, 223462, Note_on_c, 0, 79, 0
1, 223475, Note_on_c, 0, 78, 80
1, 223486, Control_c, 0, 64, 50
1, 223522, Control_c, 0, 64, 53
1, 223567, Note_on_c, 0, 78, 0
1, 223598, Control_c, 0, 64, 49
1, 223607, Note_on_c, 0, 56, 0
1, 223607, Note_on_c, 0, 79, 85
1, 223617, Control_c, 0, 64, 42
1, 223627, Note_on_c, 0, 59, 78
1, 223633, Control_c, 0, 64, 31
1, 223635, Note_on_c, 0, 55, 64
1, 223652, Control_c, 0, 64, 20
1, 223671, Control_c, 0, 64, 12
1, 223684, Note_on_c, 0, 79, 0
1, 223688, Control_c, 0, 64, 0
1, 223690, Note_on_c, 0, 60, 0
1, 223710, Note_on_c, 0, 78, 80
1, 223802, Note_on_c, 0, 78, 0
1, 223838, Note_on_c, 0, 79, 79
1, 223921, Note_on_c, 0, 79, 0
1, 223956, Note_on_c, 0, 74, 79
1, 224027, Note_on_c, 0, 74, 0
1, 224059, Note_on_c, 0, 75, 82
1, 224133, Note_on_c, 0, 75, 0
1, 224172, Note_on_c, 0, 74, 77
1, 224247, Note_on_c, 0, 74, 0
1, 224271, Note_on_c, 0, 75, 77
1, 224364, Note_on_c, 0, 75, 0
1, 224381, Note_on_c, 0, 71, 79
1, 224447, Note_on_c, 0, 71, 0
1, 224490, Note_on_c, 0, 72, 85
1, 224512, Note_on_c, 0, 55, 0
1, 224544, Note_on_c, 0, 59, 0
1, 224578, Note_on_c, 0, 72, 0
1, 224590, Note_on_c, 0, 71, 74
1, 224682, Note_on_c, 0, 71, 0
1, 224706, Note_on_c, 0, 72, 79
1, 224788, Note_on_c, 0, 72, 0
1, 224825, Note_on_c, 0, 67, 72
1, 224902, Note_on_c, 0, 67, 0
1, 224932, Note_on_c, 0, 68, 79
1, 225017, Note_on_c, 0, 68, 0
1, 225022, Note_on_c, 0, 67, 80
1, 225134, Note_on_c, 0, 68, 75
1, 225142, Note_on_c, 0, 67, 0
1, 225237, Note_on_c, 0, 66, 74
1, 225253, Note_on_c, 0, 68, 0
1, 225309, Note_on_c, 0, 66, 0
1, 225356, Note_on_c, 0, 55, 72
1, 225357, Note_on_c, 0, 67, 78
1, 225424, Note_on_c, 0, 55, 0
1, 225441, Note_on_c, 0, 67, 0
1, 225448, Note_on_c, 0, 54, 70
1, 225450, Note_on_c, 0, 66, 74
1, 225534, Note_on_c, 0, 54, 0
1, 225545, Note_on_c, 0, 66, 0
1, 225553, Note_on_c, 0, 55, 76
1, 225575, Note_on_c, 0, 67, 78
1, 225646, Note_on_c, 0, 55, 0
1, 225651, Note_on_c, 0, 67, 0
1, 225660, Note_on_c, 0, 50, 76
1, 225677, Note_on_c, 0, 62, 79
1, 225747, Note_on_c, 0, 50, 0
1, 225763, Note_on_c, 0, 62, 0
1, 225773, Note_on_c, 0, 51, 71
1, 225788, Note_on_c, 0, 63, 79
1, 225855, Note_on_c, 0, 51, 0
1, 225870, Note_on_c, 0, 63, 0
1, 225874, Note_on_c, 0, 50, 73
1, 225897, Note_on_c, 0, 62, 78
1, 225933, Note_on_c, 0, 50, 0
1, 225978, Note_on_c, 0, 51, 74
1, 225984, Note_on_c, 0, 62, 0
1, 226004, Note_on_c, 0, 63, 77
1, 226061, Note_on_c, 0, 51, 0
1, 226087, Note_on_c, 0, 63, 0
1, 226096, Note_on_c, 0, 47, 74
1, 226108, Note_on_c, 0, 59, 81
1, 226165, Note_on_c, 0, 47, 0
1, 226178, Note_on_c, 0, 59, 0
1, 226203, Note_on_c, 0, 48, 81
1, 226209, Note_on_c, 0, 60, 85
1, 226280, Note_on_c, 0, 48, 0
1, 226306, Note_on_c, 0, 60, 0
1, 226314, Note_on_c, 0, 47, 82
1, 226315, Note_on_c, 0, 59, 78
1, 226390, Note_on_c, 0, 47, 0
1, 226413, Note_on_c, 0, 59, 0
1, 226417, Note_on_c, 0, 48, 81
1, 226427, Note_on_c, 0, 60, 80
1, 226503, Note_on_c, 0, 60, 0
1, 226523, Note_on_c, 0, 43, 80
1, 226530, Note_on_c, 0, 48, 0
1, 226533, Note_on_c, 0, 55, 80
1, 226607, Note_on_c, 0, 55, 0
1, 226619, Note_on_c, 0, 43, 0
1, 226633, Note_on_c, 0, 44, 81
1, 226647, Note_on_c, 0, 56, 83
1, 226735, Note_on_c, 0, 56, 0
1, 226737, Note_on_c, 0, 44, 0
1, 226744, Note_on_c, 0, 43, 81
1, 226751, Note_on_c, 0, 55, 75
1, 226813, Note_on_c, 0, 43, 0
1, 226840, Control_c, 0, 64, 18
1, 226842, Note_on_c, 0, 44, 82
1, 226849, Note_on_c, 0, 56, 75
1, 226857, Note_on_c, 0, 55, 0
1, 226859, Control_c, 0, 64, 27
1, 226879, Control_c, 0, 64, 33
1, 226898, Control_c, 0, 64, 38
1, 226916, Control_c, 0, 64, 41
1, 226925, Note_on_c, 0, 44, 0
1, 226934, Control_c, 0, 64, 43
1, 226950, Note_on_c, 0, 54, 81
1, 226953, Note_on_c, 0, 42, 79
1, 226955, Note_on_c, 0, 56, 0
1, 226972, Control_c, 0, 64, 46
1, 227009, Control_c, 0, 64, 50
1, 227027, Control_c, 0, 64, 52
1, 227039, Note_on_c, 0, 42, 0
1, 227059, Note_on_c, 0, 55, 82
1, 227070, Note_on_c, 0, 43, 88
1, 227079, Note_on_c, 0, 54, 0
1, 227082, Control_c, 0, 64, 47
1, 227101, Control_c, 0, 64, 14
1, 227122, Control_c, 0, 64, 0
1, 227185, Note_on_c, 0, 31, 89
1, 227195, Control_c, 0, 64, 39
1, 227198, Note_on_c, 0, 43, 0
1, 227214, Control_c, 0, 64, 57
1, 227234, Control_c, 0, 64, 68
1, 227251, Control_c, 0, 64, 78
1, 227266, Note_on_c, 0, 55, 0
1, 227270, Control_c, 0, 64, 92
1, 227289, Control_c, 0, 64, 106
1, 227301, Note_on_c, 0, 35, 88
1, 227307, Control_c, 0, 64, 114
1, 227327, Control_c, 0, 64, 119
1, 227343, Note_on_c, 0, 31, 0
1, 227344, Control_c, 0, 64, 123
1, 227363, Control_c, 0, 64, 127
1, 227403, Note_on_c, 0, 38, 89
1, 227454, Note_on_c, 0, 35, 0
1, 227475, Control_c, 0, 64, 110
1, 227494, Control_c, 0, 64, 80
1, 227512, Control_c, 0, 64, 39
1, 227514, Note_on_c, 0, 38, 0
1, 227526, Note_on_c, 0, 43, 90
1, 227529, Control_c, 0, 64, 0
1, 227530, Note_on_c, 0, 55, 85
1, 227538, Note_on_c, 0, 47, 88
1, 227541, Note_on_c, 0, 50, 81
1, 227612, Control_c, 0, 64, 13
1, 227632, Control_c, 0, 64, 43
1, 227650, Control_c, 0, 64, 65
1, 227668, Control_c, 0, 64, 76
1, 227682, Note_on_c, 0, 31, 86
1, 227688, Control_c, 0, 64, 86
1, 227706, Control_c, 0, 64, 101
1, 227708, Note_on_c, 0, 43, 0
1, 227724, Note_on_c, 0, 38, 28
1, 227724, Control_c, 0, 64, 119
1, 227743, Control_c, 0, 64, 127
1, 227759, Note_on_c, 0, 38, 0
1, 227766, Note_on_c, 0, 47, 0
1, 227778, Note_on_c, 0, 55, 0
1, 227805, Note_on_c, 0, 35, 89
1, 227814, Note_on_c, 0, 50, 0
1, 227853, Note_on_c, 0, 31, 0
1, 227914, Note_on_c, 0, 38, 86
1, 227938, Note_on_c, 0, 35, 0
1, 228128, Note_on_c, 0, 55, 86
1, 228134, Note_on_c, 0, 43, 91
1, 228139, Note_on_c, 0, 38, 0
1, 228143, Note_on_c, 0, 47, 87
1, 228152, Note_on_c, 0, 50, 76
1, 228227, Control_c, 0, 64, 114
1, 228247, Control_c, 0, 64, 100
1, 228265, Control_c, 0, 64, 82
1, 228284, Control_c, 0, 64, 63
1, 228304, Control_c, 0, 64, 44
1, 228319, Control_c, 0, 64, 31
1, 228338, Control_c, 0, 64, 16
1, 228357, Control_c, 0, 64, 0
1, 228680, Control_c, 0, 64, 8
1, 228699, Control_c, 0, 64, 27
1, 228718, Control_c, 0, 64, 39
1, 228737, Control_c, 0, 64, 47
1, 228755, Control_c, 0, 64, 51
1, 228774, Control_c, 0, 64, 54
1, 228793, Control_c, 0, 64, 57
1, 228811, Control_c, 0, 64, 61
1, 228830, Control_c, 0, 64, 65
1, 228849, Control_c, 0, 64, 67
1, 228868, Control_c, 0, 64, 70
1, 228884, Control_c, 0, 64, 74
1, 228904, Control_c, 0, 64, 79
1, 228922, Control_c, 0, 64, 82
1, 228958, Control_c, 0, 64, 85
1, 228997, Control_c, 0, 64, 87
1, 229007, Note_on_c, 0, 47, 0
1, 229031, Note_on_c, 0, 43, 0
1, 229034, Note_on_c, 0, 55, 0
1, 229059, Note_on_c, 0, 50, 0
1, 229088, Control_c, 0, 64, 85
1, 229126, Control_c, 0, 64, 79
1, 229145, Control_c, 0, 64, 70
1, 229163, Control_c, 0, 64, 60
1, 229181, Control_c, 0, 64, 53
1, 229199, Control_c, 0, 64, 49
1, 229218, Control_c, 0, 64, 39
1, 229236, Control_c, 0, 64, 23
1, 229254, Control_c, 0, 64, 0
1, 229710, Control_c, 0, 64, 18
1, 229730, Control_c, 0, 64, 28
1, 229746, Control_c, 0, 64, 35
1, 229803, Control_c, 0, 64, 42
1, 229816, Note_on_c, 0, 72, 43
1, 229820, Control_c, 0, 64, 47
1, 229838, Control_c, 0, 64, 52
1, 229857, Control_c, 0, 64, 54
1, 229894, Control_c, 0, 64, 57
1, 229913, Control_c, 0, 64, 59
1, 229932, Control_c, 0, 64, 60
1, 229951, Control_c, 0, 64, 61
1, 229989, Control_c, 0, 64, 62
1, 229990, Control_c, 0, 67, 9
1, 230024, Control_c, 0, 64, 63
1, 230024, Control_c, 0, 67, 13
1, 230061, Control_c, 0, 64, 64
1, 230080, Control_c, 0, 67, 18
1, 230087, Note_on_c, 0, 76, 41
1, 230210, Control_c, 0, 67, 22
1, 230339, Note_on_c, 0, 67, 35
1, 230404, Control_c, 0, 67, 26
1, 230458, Note_on_c, 0, 72, 0
1, 230597, Note_on_c, 0, 79, 39
1, 230817, Note_on_c, 0, 64, 50
1, 230920, Note_on_c, 0, 67, 0
1, 231080, Note_on_c, 0, 84, 51
1, 231090, Poly_aftertouch_c, 0, 76, 24
1, 231142, Note_on_c, 0, 76, 0
1, 231177, Poly_aftertouch_c, 0, 64, 20
1, 231200, Note_on_c, 0, 64, 0
1, 231220, Note_on_c, 0, 79, 0
1, 231292, Control_c, 0, 67, 30
1, 231345, Note_on_c, 0, 69, 53
1, 231376, Control_c, 0, 64, 65
1, 231395, Control_c, 0, 67, 34
1, 231432, Control_c, 0, 64, 67
1, 231468, Control_c, 0, 67, 40
1, 231505, Control_c, 0, 64, 69
1, 231524, Control_c, 0, 67, 45
1, 231528, Note_on_c, 0, 84, 0
1, 231575, Note_on_c, 0, 85, 55
1, 231580, Control_c, 0, 64, 71
1, 231599, Control_c, 0, 67, 49
1, 231609, Note_on_c, 0, 79, 39
1, 231653, Control_c, 0, 67, 53
1, 231708, Control_c, 0, 67, 57
1, 231765, Control_c, 0, 67, 61
1, 231821, Control_c, 0, 67, 65
1, 231838, Control_c, 0, 64, 68
1, 231850, Note_on_c, 0, 62, 45
1, 231857, Control_c, 0, 67, 69
1, 231876, Control_c, 0, 64, 66
1, 231894, Control_c, 0, 64, 65
1, 231895, Control_c, 0, 67, 74
1, 231914, Control_c, 0, 64, 63
1, 231932, Control_c, 0, 64, 61
1, 231933, Control_c, 0, 67, 81
1, 231951, Control_c, 0, 64, 58
1, 231952, Control_c, 0, 67, 85
1, 231958, Note_on_c, 0, 69, 0
1, 231969, Control_c, 0, 64, 55
1, 231971, Control_c, 0, 67, 90
1, 231988, Control_c, 0, 64, 51
1, 231989, Control_c, 0, 67, 94
1, 232005, Control_c, 0, 64, 47
1, 232024, Control_c, 0, 64, 45
1, 232026, Control_c, 0, 67, 100
1, 232085, Note_on_c, 0, 79, 0
1, 232099, Control_c, 0, 64, 47
1, 232100, Control_c, 0, 67, 104
1, 232101, Note_on_c, 0, 85, 0
1, 232111, Note_on_c, 0, 86, 52
1, 232117, Control_c, 0, 64, 52
1, 232130, Note_on_c, 0, 77, 42
1, 232136, Control_c, 0, 64, 58
1, 232154, Control_c, 0, 64, 61
1, 232174, Control_c, 0, 64, 62
1, 232191, Control_c, 0, 64, 64
1, 232210, Control_c, 0, 64, 66
1, 232229, Control_c, 0, 64, 67
1, 232397, Note_on_c, 0, 67, 39
1, 232430, Note_on_c, 0, 62, 0
1, 232435, Note_on_c, 0, 77, 0
1, 232611, Control_c, 0, 64, 69
1, 232629, Note_on_c, 0, 86, 0
1, 232643, Note_on_c, 0, 83, 56
1, 232661, Note_on_c, 0, 77, 39
1, 232665, Control_c, 0, 64, 72
1, 232684, Control_c, 0, 64, 74
1, 232702, Control_c, 0, 64, 76
1, 232721, Control_c, 0, 64, 78
1, 232740, Control_c, 0, 64, 80
1, 232775, Control_c, 0, 64, 82
1, 232815, Control_c, 0, 67, 97
1, 232918, Note_on_c, 0, 60, 40
1, 232924, Control_c, 0, 64, 76
1, 232944, Control_c, 0, 64, 66
1, 232964, Control_c, 0, 64, 52
1, 232964, Note_on_c, 0, 77, 0
1, 232968, Note_on_c, 0, 67, 0
1, 232981, Control_c, 0, 64, 43
1, 233017, Control_c, 0, 64, 45
1, 233036, Control_c, 0, 64, 51
1, 233054, Control_c, 0, 64, 59
1, 233073, Control_c, 0, 64, 65
1, 233092, Control_c, 0, 64, 68
1, 233110, Control_c, 0, 64, 70
1, 233127, Control_c, 0, 64, 73
1, 233145, Control_c, 0, 64, 75
1, 233155, Note_on_c, 0, 60, 0
1, 233177, Note_on_c, 0, 84, 54
1, 233193, Control_c, 0, 64, 77
1, 233202, Note_on_c, 0, 76, 41
1, 233206, Note_on_c, 0, 83, 0
1, 233231, Control_c, 0, 64, 79
1, 233246, Note_on_c, 0, 76, 0
1, 233268, Control_c, 0, 64, 81
1, 233478, Note_on_c, 0, 76, 72
1, 233544, Control_c, 0, 64, 78
1, 233564, Control_c, 0, 64, 74
1, 233581, Control_c, 0, 64, 72
1, 233695, Control_c, 0, 64, 75
1, 233712, Control_c, 0, 64, 77
1, 233732, Control_c, 0, 64, 79
1, 233748, Control_c, 0, 64, 82
1, 233768, Control_c, 0, 64, 84
1, 233773, Note_on_c, 0, 80, 65
1, 233803, Note_on_c, 0, 84, 0
1, 233972, Control_c, 0, 67, 93
1, 234008, Control_c, 0, 64, 82
1, 234023, Note_on_c, 0, 65, 60
1, 234027, Control_c, 0, 64, 78
1, 234046, Control_c, 0, 64, 72
1, 234064, Control_c, 0, 64, 62
1, 234084, Control_c, 0, 64, 52
1, 234102, Control_c, 0, 64, 48
1, 234183, Control_c, 0, 64, 54
1, 234203, Control_c, 0, 64, 60
1, 234221, Control_c, 0, 64, 65
1, 234240, Control_c, 0, 64, 69
1, 234259, Control_c, 0, 64, 72
1, 234264, Note_on_c, 0, 81, 68
1, 234279, Control_c, 0, 64, 77
1, 234287, Note_on_c, 0, 80, 0
1, 234296, Control_c, 0, 64, 83
1, 234314, Control_c, 0, 64, 87
1, 234346, Note_on_c, 0, 76, 0
1, 234513, Note_on_c, 0, 74, 76
1, 234518, Control_c, 0, 64, 85
1, 234536, Control_c, 0, 64, 82
1, 234555, Control_c, 0, 64, 76
1, 234573, Control_c, 0, 64, 65
1, 234592, Control_c, 0, 64, 53
1, 234612, Control_c, 0, 64, 47
1, 234666, Control_c, 0, 64, 51
1, 234684, Control_c, 0, 64, 55
1, 234703, Control_c, 0, 64, 60
1, 234721, Control_c, 0, 64, 65
1, 234730, Note_on_c, 0, 65, 0
1, 234739, Control_c, 0, 64, 69
1, 234754, Note_on_c, 0, 89, 79
1, 234758, Control_c, 0, 64, 73
1, 234777, Control_c, 0, 64, 77
1, 234796, Control_c, 0, 64, 81
1, 234813, Control_c, 0, 64, 84
1, 234993, Note_on_c, 0, 64, 60
1, 235017, Control_c, 0, 64, 78
1, 235036, Control_c, 0, 64, 72
1, 235063, Control_c, 0, 64, 65
1, 235065, Note_on_c, 0, 81, 0
1, 235084, Control_c, 0, 64, 57
1, 235101, Control_c, 0, 64, 50
1, 235119, Control_c, 0, 64, 46
1, 235193, Control_c, 0, 64, 49
1, 235211, Control_c, 0, 64, 53
1, 235231, Control_c, 0, 64, 57
1, 235248, Control_c, 0, 64, 61
1, 235251, Note_on_c, 0, 79, 67
1, 235251, Note_on_c, 0, 89, 0
1, 235257, Note_on_c, 0, 74, 0
1, 235267, Control_c, 0, 64, 65
1, 235288, Control_c, 0, 64, 67
1, 235304, Control_c, 0, 64, 69
1, 235342, Control_c, 0, 64, 72
1, 235377, Control_c, 0, 64, 74
1, 235471, Control_c, 0, 64, 70
1, 235490, Control_c, 0, 64, 63
1, 235494, Note_on_c, 0, 72, 56
1, 235509, Control_c, 0, 64, 54
1, 235527, Control_c, 0, 64, 49
1, 235600, Control_c, 0, 64, 53
1, 235619, Control_c, 0, 64, 58
1, 235621, Note_on_c, 0, 64, 0
1, 235638, Control_c, 0, 64, 62
1, 235656, Control_c, 0, 64, 65
1, 235675, Control_c, 0, 64, 68
1, 235714, Control_c, 0, 64, 70
1, 235724, Note_on_c, 0, 88, 63
1, 235747, Control_c, 0, 64, 73
1, 235918, Control_c, 0, 64, 75
1, 235977, Note_on_c, 0, 62, 45
1, 235979, Poly_aftertouch_c, 0, 79, 24
1, 235997, Control_c, 0, 64, 70
1, 236018, Control_c, 0, 64, 66
1, 236025, Note_on_c, 0, 79, 0
1, 236036, Control_c, 0, 64, 59
1, 236038, Control_c, 0, 67, 97
1, 236054, Control_c, 0, 64, 53
1, 236111, Control_c, 0, 64, 56
1, 236129, Control_c, 0, 64, 59
1, 236130, Control_c, 0, 67, 101
1, 236147, Control_c, 0, 64, 62
1, 236162, Note_on_c, 0, 72, 0
1, 236164, Control_c, 0, 64, 66
1, 236183, Control_c, 0, 64, 70
1, 236212, Note_on_c, 0, 88, 0
1, 236220, Note_on_c, 0, 77, 56
1, 236222, Control_c, 0, 64, 72
1, 236258, Control_c, 0, 64, 74
1, 236407, Control_c, 0, 64, 70
1, 236426, Control_c, 0, 64, 64
1, 236444, Control_c, 0, 64, 56
1, 236464, Control_c, 0, 64, 50
1, 236472, Note_on_c, 0, 71, 49
1, 236517, Control_c, 0, 64, 53
1, 236518, Control_c, 0, 67, 105
1, 236536, Control_c, 0, 64, 57
1, 236554, Control_c, 0, 64, 62
1, 236574, Control_c, 0, 64, 67
1, 236598, Poly_aftertouch_c, 0, 62, 22
1, 236606, Note_on_c, 0, 62, 0
1, 236609, Control_c, 0, 64, 69
1, 236684, Control_c, 0, 64, 71
1, 236700, Note_on_c, 0, 86, 54
1, 236750, Note_on_c, 0, 71, 0
1, 236888, Control_c, 0, 64, 67
1, 236895, Poly_aftertouch_c, 0, 77, 24
1, 236906, Control_c, 0, 64, 61
1, 236934, Control_c, 0, 64, 52
1, 236954, Control_c, 0, 64, 43
1, 236955, Note_on_c, 0, 72, 40
1, 236959, Note_on_c, 0, 77, 0
1, 236961, Note_on_c, 0, 60, 33
1, 236971, Control_c, 0, 64, 41
1, 237009, Control_c, 0, 64, 43
1, 237028, Control_c, 0, 64, 49
1, 237045, Control_c, 0, 64, 57
1, 237063, Control_c, 0, 64, 62
1, 237082, Control_c, 0, 64, 63
1, 237138, Note_on_c, 0, 60, 0
1, 237138, Control_c, 0, 64, 64
1, 237194, Note_on_c, 0, 76, 53
1, 237219, Note_on_c, 0, 86, 0
1, 237342, Control_c, 0, 64, 62
1, 237361, Control_c, 0, 64, 60
1, 237370, Note_on_c, 0, 72, 0
1, 237380, Control_c, 0, 64, 55
1, 237398, Control_c, 0, 64, 48
1, 237417, Control_c, 0, 64, 46
1, 237425, Note_on_c, 0, 67, 50
1, 237454, Control_c, 0, 64, 52
1, 237467, Note_on_c, 0, 64, 24
1, 237471, Control_c, 0, 64, 59
1, 237492, Control_c, 0, 64, 63
1, 237509, Note_on_c, 0, 67, 0
1, 237511, Control_c, 0, 64, 66
1, 237529, Control_c, 0, 64, 68
1, 237543, Note_on_c, 0, 76, 0
1, 237567, Control_c, 0, 64, 71
1, 237567, Note_on_c, 0, 64, 0
1, 237640, Control_c, 0, 64, 73
1, 237662, Note_on_c, 0, 84, 64
1, 237758, Poly_aftertouch_c, 0, 64, 24
1, 237824, Control_c, 0, 64, 70
1, 237843, Control_c, 0, 64, 67
1, 237849, Poly_aftertouch_c, 0, 67, 0
1, 237872, Control_c, 0, 64, 62
1, 237890, Control_c, 0, 64, 57
1, 237910, Control_c, 0, 64, 53
1, 237925, Note_on_c, 0, 65, 49
1, 237946, Note_on_c, 0, 69, 38
1, 237958, Poly_aftertouch_c, 0, 64, 0
1, 237966, Control_c, 0, 64, 57
1, 237983, Control_c, 0, 64, 60
1, 237987, Note_on_c, 0, 69, 0
1, 238000, Control_c, 0, 64, 63
1, 238020, Control_c, 0, 64, 65
1, 238038, Control_c, 0, 64, 66
1, 238058, Control_c, 0, 64, 67
1, 238116, Note_on_c, 0, 84, 0
1, 238147, Note_on_c, 0, 74, 62
1, 238302, Note_on_c, 0, 65, 0
1, 238317, Control_c, 0, 64, 65
1, 238335, Control_c, 0, 64, 60
1, 238354, Control_c, 0, 64, 51
1, 238355, Control_c, 0, 67, 101
1, 238372, Control_c, 0, 64, 40
1, 238390, Control_c, 0, 64, 27
1, 238395, Note_on_c, 0, 66, 61
1, 238408, Control_c, 0, 64, 23
1, 238423, Note_on_c, 0, 69, 42
1, 238464, Control_c, 0, 64, 34
1, 238483, Control_c, 0, 64, 47
1, 238502, Control_c, 0, 64, 55
1, 238539, Control_c, 0, 64, 59
1, 238543, Note_on_c, 0, 69, 0
1, 238557, Control_c, 0, 64, 61
1, 238576, Control_c, 0, 64, 62
1, 238592, Note_on_c, 0, 74, 0
1, 238593, Control_c, 0, 64, 64
1, 238612, Control_c, 0, 64, 65
1, 238629, Note_on_c, 0, 72, 52
1, 238630, Control_c, 0, 64, 66
1, 238637, Note_on_c, 0, 66, 0
1, 238668, Control_c, 0, 64, 67
1, 238686, Note_on_c, 0, 72, 0
1, 238806, Control_c, 0, 64, 63
1, 238826, Control_c, 0, 64, 49
1, 238844, Control_c, 0, 64, 19
1, 238858, Note_on_c, 0, 67, 74
1, 238861, Control_c, 0, 64, 0
1, 238868, Note_on_c, 0, 71, 71
1, 238944, Note_on_c, 0, 71, 0
1, 238984, Note_on_c, 0, 79, 71
1, 238992, Control_c, 0, 64, 17
1, 239010, Control_c, 0, 64, 37
1, 239030, Control_c, 0, 64, 45
1, 239048, Control_c, 0, 64, 47
1, 239067, Control_c, 0, 64, 51
1, 239080, Note_on_c, 0, 79, 0
1, 239085, Control_c, 0, 64, 53
1, 239097, Note_on_c, 0, 77, 72
1, 239121, Control_c, 0, 64, 56
1, 239160, Control_c, 0, 64, 58
1, 239175, Note_on_c, 0, 77, 0
1, 239177, Note_on_c, 0, 67, 0
1, 239204, Note_on_c, 0, 74, 71
1, 239214, Control_c, 0, 64, 55
1, 239234, Control_c, 0, 64, 46
1, 239253, Control_c, 0, 64, 29
1, 239271, Control_c, 0, 64, 0
1, 239280, Note_on_c, 0, 74, 0
1, 239312, Note_on_c, 0, 71, 77
1, 239357, Note_on_c, 0, 71, 0
1, 239399, Control_c, 0, 67, 105
1, 239436, Note_on_c, 0, 67, 69
1, 239482, Note_on_c, 0, 67, 0
1, 239545, Note_on_c, 0, 65, 64
1, 239619, Note_on_c, 0, 65, 0
1, 239645, Note_on_c, 0, 62, 65
1, 239677, Control_c, 0, 67, 111
1, 239695, Control_c, 0, 67, 119
1, 239698, Note_on_c, 0, 62, 0
1, 239714, Control_c, 0, 67, 127
1, 239776, Note_on_c, 0, 64, 69
1, 239890, Note_on_c, 0, 79, 64
1, 239953, Note_on_c, 0, 79, 0
1, 240003, Note_on_c, 0, 76, 60
1, 240041, Note_on_c, 0, 64, 0
1, 240057, Note_on_c, 0, 76, 0
1, 240112, Note_on_c, 0, 72, 61
1, 240167, Note_on_c, 0, 72, 0
1, 240226, Note_on_c, 0, 67, 61
1, 240269, Note_on_c, 0, 67, 0
1, 240336, Note_on_c, 0, 64, 55
1, 240379, Note_on_c, 0, 64, 0
1, 240441, Note_on_c, 0, 62, 56
1, 240507, Note_on_c, 0, 62, 0
1, 240560, Note_on_c, 0, 60, 39
1, 240600, Note_on_c, 0, 60, 0
1, 240660, Note_on_c, 0, 59, 72
1, 240788, Note_on_c, 0, 79, 61
1, 240857, Note_on_c, 0, 79, 0
1, 240892, Note_on_c, 0, 77, 61
1, 240976, Note_on_c, 0, 59, 0
1, 240993, Note_on_c, 0, 77, 0
1, 241020, Note_on_c, 0, 74, 58
1, 241114, Note_on_c, 0, 74, 0
1, 241145, Note_on_c, 0, 71, 58
1, 241183, Note_on_c, 0, 71, 0
1, 241245, Note_on_c, 0, 67, 56
1, 241298, Note_on_c, 0, 67, 0
1, 241363, Note_on_c, 0, 65, 55
1, 241437, Note_on_c, 0, 65, 0
1, 241465, Note_on_c, 0, 62, 59
1, 241522, Note_on_c, 0, 62, 0
1, 241578, Note_on_c, 0, 60, 71
1, 241633, Note_on_c, 0, 60, 0
1, 241708, Note_on_c, 0, 76, 64
1, 241784, Note_on_c, 0, 76, 0
1, 241814, Note_on_c, 0, 72, 66
1, 241862, Note_on_c, 0, 72, 0
1, 241912, Note_on_c, 0, 67, 59
1, 241976, Note_on_c, 0, 67, 0
1, 242031, Note_on_c, 0, 64, 66
1, 242077, Note_on_c, 0, 64, 0
1, 242131, Note_on_c, 0, 79, 68
1, 242203, Note_on_c, 0, 79, 0
1, 242235, Note_on_c, 0, 76, 73
1, 242292, Note_on_c, 0, 76, 0
1, 242340, Note_on_c, 0, 72, 72
1, 242447, Note_on_c, 0, 72, 0
1, 242453, Note_on_c, 0, 67, 81
1, 242508, Note_on_c, 0, 67, 0
1, 242554, Note_on_c, 0, 84, 79
1, 242668, Note_on_c, 0, 84, 0
1, 242675, Note_on_c, 0, 79, 81
1, 242743, Note_on_c, 0, 79, 0
1, 242791, Note_on_c, 0, 76, 79
1, 242882, Note_on_c, 0, 76, 0
1, 242899, Note_on_c, 0, 72, 86
1, 242954, Note_on_c, 0, 72, 0
1, 242999, Note_on_c, 0, 88, 82
1, 243104, Note_on_c, 0, 84, 83
1, 243115, Note_on_c, 0, 88, 0
1, 243173, Note_on_c, 0, 84, 0
1, 243202, Note_on_c, 0, 80, 79
1, 243276, Note_on_c, 0, 80, 0
1, 243327, Note_on_c, 0, 81, 90
1, 243327, Control_c, 0, 64, 10
1, 243347, Control_c, 0, 64, 18
1, 243399, Note_on_c, 0, 81, 0
1, 243418, Note_on_c, 0, 83, 83
1, 243458, Control_c, 0, 64, 23
1, 243476, Control_c, 0, 64, 29
1, 243486, Control_c, 0, 67, 123
1, 243505, Control_c, 0, 64, 34
1, 243528, Note_on_c, 0, 83, 0
1, 243540, Note_on_c, 0, 84, 84
1, 243541, Control_c, 0, 67, 118
1, 243579, Control_c, 0, 67, 112
1, 243598, Control_c, 0, 67, 107
1, 243607, Note_on_c, 0, 84, 0
1, 243611, Poly_aftertouch_c, 0, 75, 0
1, 243633, Control_c, 0, 67, 102
1, 243670, Note_on_c, 0, 76, 77
1, 243734, Note_on_c, 0, 76, 0
1, 243766, Note_on_c, 0, 77, 86
1, 243800, Control_c, 0, 64, 29
1, 243818, Control_c, 0, 67, 98
1, 243830, Note_on_c, 0, 77, 0
1, 243867, Note_on_c, 0, 80, 79
1, 243893, Control_c, 0, 67, 93
1, 243931, Control_c, 0, 67, 87
1, 243968, Control_c, 0, 67, 80
1, 243979, Note_on_c, 0, 81, 75
1, 243994, Note_on_c, 0, 80, 0
1, 244004, Control_c, 0, 67, 73
1, 244040, Note_on_c, 0, 81, 0
1, 244040, Control_c, 0, 67, 67
1, 244079, Control_c, 0, 67, 63
1, 244093, Note_on_c, 0, 73, 75
1, 244153, Control_c, 0, 64, 25
1, 244154, Control_c, 0, 67, 57
1, 244167, Note_on_c, 0, 73, 0
1, 244189, Control_c, 0, 67, 53
1, 244195, Note_on_c, 0, 74, 85
1, 244225, Control_c, 0, 67, 47
1, 244245, Control_c, 0, 64, 19
1, 244247, Control_c, 0, 67, 43
1, 244249, Note_on_c, 0, 74, 0
1, 244283, Control_c, 0, 64, 13
1, 244284, Control_c, 0, 67, 35
1, 244301, Control_c, 0, 67, 29
1, 244310, Note_on_c, 0, 76, 78
1, 244320, Control_c, 0, 67, 22
1, 244338, Control_c, 0, 64, 0
1, 244339, Control_c, 0, 67, 14
1, 244393, Control_c, 0, 67, 0
1, 244427, Note_on_c, 0, 76, 0
1, 244430, Note_on_c, 0, 77, 81
1, 244494, Note_on_c, 0, 77, 0
1, 244534, Note_on_c, 0, 64, 80
1, 244601, Note_on_c, 0, 64, 0
1, 244632, Note_on_c, 0, 65, 87
1, 244689, Note_on_c, 0, 65, 0
1, 244756, Note_on_c, 0, 73, 80
1, 244856, Note_on_c, 0, 74, 79
1, 244870, Note_on_c, 0, 73, 0
1, 244930, Note_on_c, 0, 74, 0
1, 244981, Note_on_c, 0, 54, 80
1, 245027, Note_on_c, 0, 54, 0
1, 245059, Note_on_c, 0, 55, 95
1, 245182, Note_on_c, 0, 67, 79
1, 245252, Note_on_c, 0, 67, 0
1, 245290, Note_on_c, 0, 68, 77
1, 245347, Control_c, 0, 64, 15
1, 245375, Control_c, 0, 64, 20
1, 245378, Note_on_c, 0, 68, 0
1, 245393, Control_c, 0, 64, 24
1, 245395, Note_on_c, 0, 69, 81
1, 245429, Control_c, 0, 64, 31
1, 245448, Control_c, 0, 64, 35
1, 245462, Note_on_c, 0, 69, 0
1, 245505, Note_on_c, 0, 70, 79
1, 245573, Note_on_c, 0, 70, 0
1, 245578, Control_c, 0, 64, 39
1, 245598, Note_on_c, 0, 71, 81
1, 245704, Note_on_c, 0, 72, 76
1, 245705, Note_on_c, 0, 71, 0
1, 245783, Control_c, 0, 64, 42
1, 245792, Note_on_c, 0, 72, 0
1, 245819, Note_on_c, 0, 73, 79
1, 245819, Control_c, 0, 64, 45
1, 245876, Control_c, 0, 64, 47
1, 245897, Note_on_c, 0, 73, 0
1, 245914, Control_c, 0, 64, 49
1, 245921, Note_on_c, 0, 74, 82
1, 245951, Control_c, 0, 64, 52
1, 245986, Note_on_c, 0, 74, 0
1, 246007, Note_on_c, 0, 55, 0
1, 246019, Note_on_c, 0, 75, 80
1, 246043, Control_c, 0, 64, 54
1, 246097, Note_on_c, 0, 75, 0
1, 246122, Note_on_c, 0, 76, 79
1, 246201, Note_on_c, 0, 76, 0
1, 246210, Note_on_c, 0, 77, 76
1, 246284, Control_c, 0, 64, 52
1, 246312, Control_c, 0, 64, 39
1, 246313, Note_on_c, 0, 78, 81
1, 246330, Control_c, 0, 64, 0
1, 246344, Note_on_c, 0, 77, 0
1, 246404, Note_on_c, 0, 79, 79
1, 246417, Note_on_c, 0, 78, 0
1, 246491, Note_on_c, 0, 79, 0
1, 246501, Note_on_c, 0, 76, 75
1, 246559, Note_on_c, 0, 76, 0
1, 246592, Note_on_c, 0, 72, 76
1, 246633, Note_on_c, 0, 55, 61
1, 246638, Note_on_c, 0, 72, 0
1, 246670, Note_on_c, 0, 59, 60
1, 246696, Note_on_c, 0, 62, 67
1, 246698, Note_on_c, 0, 76, 82
1, 246719, Note_on_c, 0, 65, 86
1, 246748, Note_on_c, 0, 76, 0
1, 246755, Control_c, 0, 64, 49
1, 246774, Control_c, 0, 64, 55
1, 246775, Control_c, 0, 67, 21
1, 246779, Note_on_c, 0, 74, 80
1, 246812, Control_c, 0, 64, 57
1, 246814, Control_c, 0, 67, 14
1, 246818, Note_on_c, 0, 74, 0
1, 246830, Control_c, 0, 64, 61
1, 246831, Control_c, 0, 67, 18
1, 246840, Note_on_c, 0, 76, 72
1, 246849, Control_c, 0, 64, 63
1, 246867, Control_c, 0, 67, 23
1, 246877, Note_on_c, 0, 76, 0
1, 246886, Control_c, 0, 67, 28
1, 246902, Note_on_c, 0, 74, 81
1, 246904, Control_c, 0, 64, 65
1, 246921, Control_c, 0, 64, 66
1, 246922, Control_c, 0, 67, 36
1, 246935, Note_on_c, 0, 74, 0
1, 246940, Control_c, 0, 64, 67
1, 246941, Control_c, 0, 67, 45
1, 246960, Control_c, 0, 64, 69
1, 246960, Note_on_c, 0, 76, 75
1, 246960, Control_c, 0, 67, 56
1, 246978, Control_c, 0, 64, 71
1, 246979, Control_c, 0, 67, 68
1, 246998, Control_c, 0, 64, 73
1, 246999, Control_c, 0, 67, 77
1, 247003, Note_on_c, 0, 76, 0
1, 247012, Note_on_c, 0, 74, 81
1, 247015, Control_c, 0, 64, 76
1, 247016, Control_c, 0, 67, 83
1, 247034, Control_c, 0, 64, 78
1, 247035, Control_c, 0, 67, 88
1, 247051, Note_on_c, 0, 74, 0
1, 247052, Control_c, 0, 64, 80
1, 247072, Control_c, 0, 67, 94
1, 247078, Note_on_c, 0, 76, 77
1, 247107, Control_c, 0, 67, 98
1, 247108, Note_on_c, 0, 76, 0
1, 247131, Note_on_c, 0, 74, 85
1, 247165, Poly_aftertouch_c, 0, 58, 0
1, 247168, Note_on_c, 0, 74, 0
1, 247182, Note_on_c, 0, 59, 0
1, 247192, Note_on_c, 0, 76, 79
1, 247206, Note_on_c, 0, 55, 0
1, 247240, Note_on_c, 0, 76, 0
1, 247260, Note_on_c, 0, 74, 85
1, 247264, Note_on_c, 0, 62, 0
1, 247267, Note_on_c, 0, 65, 0
1, 247304, Note_on_c, 0, 74, 0
1, 247330, Note_on_c, 0, 76, 70
1, 247367, Note_on_c, 0, 76, 0
1, 247389, Note_on_c, 0, 74, 82
1, 247436, Note_on_c, 0, 74, 0
1, 247464, Note_on_c, 0, 76, 65
1, 247530, Note_on_c, 0, 76, 0
1, 247535, Note_on_c, 0, 74, 78
1, 247562, Control_c, 0, 64, 78
1, 247563, Control_c, 0, 67, 94
1, 247573, Note_on_c, 0, 74, 0
1, 247588, Note_on_c, 0, 81, 86
1, 247598, Control_c, 0, 67, 89
1, 247603, Note_on_c, 0, 76, 80
1, 247618, Control_c, 0, 64, 76
1, 247648, Note_on_c, 0, 81, 0
1, 247655, Note_on_c, 0, 83, 71
1, 247664, Note_on_c, 0, 76, 0
1, 247670, Note_on_c, 0, 74, 79
1, 247673, Control_c, 0, 67, 85
1, 247704, Note_on_c, 0, 83, 0
1, 247709, Note_on_c, 0, 84, 74
1, 247732, Note_on_c, 0, 76, 75
1, 247733, Note_on_c, 0, 74, 0
1, 247779, Note_on_c, 0, 83, 79
1, 247779, Note_on_c, 0, 84, 0
1, 247795, Note_on_c, 0, 76, 0
1, 247797, Note_on_c, 0, 74, 80
1, 247827, Note_on_c, 0, 83, 0
1, 247842, Control_c, 0, 67, 80
1, 247851, Note_on_c, 0, 84, 69
1, 247851, Note_on_c, 0, 74, 0
1, 247858, Note_on_c, 0, 76, 72
1, 247892, Note_on_c, 0, 83, 58
1, 247901, Note_on_c, 0, 84, 0
1, 247911, Note_on_c, 0, 76, 0
1, 247912, Note_on_c, 0, 74, 74
1, 247914, Note_on_c, 0, 83, 0
1, 247948, Note_on_c, 0, 84, 57
1, 247952, Control_c, 0, 67, 76
1, 247966, Note_on_c, 0, 74, 0
1, 247971, Note_on_c, 0, 83, 88
1, 247982, Note_on_c, 0, 76, 68
1, 248003, Note_on_c, 0, 83, 0
1, 248008, Control_c, 0, 67, 71
1, 248013, Note_on_c, 0, 76, 0
1, 248029, Note_on_c, 0, 74, 76
1, 248046, Note_on_c, 0, 83, 91
1, 248063, Control_c, 0, 67, 65
1, 248073, Note_on_c, 0, 76, 85
1, 248073, Note_on_c, 0, 74, 0
1, 248099, Note_on_c, 0, 84, 0
1, 248101, Control_c, 0, 67, 61
1, 248130, Note_on_c, 0, 76, 0
1, 248158, Note_on_c, 0, 74, 77
1, 248255, Note_on_c, 0, 83, 0
1, 248277, Note_on_c, 0, 72, 80
1, 248278, Note_on_c, 0, 74, 0
1, 248289, Note_on_c, 0, 81, 64
1, 248343, Note_on_c, 0, 83, 74
1, 248351, Control_c, 0, 67, 65
1, 248360, Note_on_c, 0, 81, 0
1, 248369, Note_on_c, 0, 83, 0
1, 248376, Note_on_c, 0, 74, 88
1, 248392, Note_on_c, 0, 72, 0
1, 248430, Note_on_c, 0, 74, 0
1, 248524, Poly_aftertouch_c, 0, 83, 0
1, 248535, Control_c, 0, 67, 61
1, 248643, Note_on_c, 0, 48, 87
1, 248644, Control_c, 0, 64, 73
1, 248664, Control_c, 0, 64, 69
1, 248684, Control_c, 0, 64, 64
1, 248700, Control_c, 0, 64, 61
1, 248721, Note_on_c, 0, 48, 0
1, 248738, Control_c, 0, 64, 57
1, 248743, Note_on_c, 0, 76, 77
1, 248747, Note_on_c, 0, 72, 74
1, 248757, Control_c, 0, 64, 47
1, 248763, Note_on_c, 0, 60, 69
1, 248775, Control_c, 0, 64, 24
1, 248792, Control_c, 0, 64, 0
1, 248811, Note_on_c, 0, 72, 0
1, 248855, Note_on_c, 0, 74, 79
1, 248866, Note_on_c, 0, 71, 68
1, 248874, Note_on_c, 0, 60, 0
1, 248876, Note_on_c, 0, 76, 0
1, 248880, Note_on_c, 0, 48, 68
1, 248898, Note_on_c, 0, 74, 0
1, 248903, Note_on_c, 0, 71, 0
1, 248929, Note_on_c, 0, 48, 0
1, 248977, Note_on_c, 0, 77, 80
1, 248986, Note_on_c, 0, 60, 55
1, 248989, Note_on_c, 0, 74, 64
1, 249029, Note_on_c, 0, 74, 0
1, 249076, Note_on_c, 0, 76, 77
1, 249086, Note_on_c, 0, 72, 67
1, 249088, Note_on_c, 0, 48, 64
1, 249089, Note_on_c, 0, 60, 0
1, 249092, Control_c, 0, 67, 65
1, 249116, Note_on_c, 0, 77, 0
1, 249125, Note_on_c, 0, 76, 0
1, 249131, Note_on_c, 0, 72, 0
1, 249148, Note_on_c, 0, 48, 0
1, 249200, Note_on_c, 0, 79, 81
1, 249207, Note_on_c, 0, 60, 57
1, 249211, Note_on_c, 0, 76, 70
1, 249245, Note_on_c, 0, 76, 0
1, 249299, Note_on_c, 0, 79, 0
1, 249300, Note_on_c, 0, 77, 84
1, 249310, Note_on_c, 0, 48, 69
1, 249313, Note_on_c, 0, 74, 68
1, 249314, Note_on_c, 0, 60, 0
1, 249342, Poly_aftertouch_c, 0, 79, 0
1, 249348, Note_on_c, 0, 76, 18
1, 249351, Note_on_c, 0, 74, 0
1, 249351, Note_on_c, 0, 77, 0
1, 249358, Note_on_c, 0, 48, 0
1, 249400, Note_on_c, 0, 76, 0
1, 249411, Note_on_c, 0, 81, 83
1, 249412, Note_on_c, 0, 77, 77
1, 249416, Note_on_c, 0, 60, 59
1, 249452, Note_on_c, 0, 77, 0
1, 249490, Note_on_c, 0, 81, 0
1, 249532, Note_on_c, 0, 79, 91
1, 249540, Note_on_c, 0, 48, 73
1, 249541, Note_on_c, 0, 76, 73
1, 249556, Note_on_c, 0, 60, 0
1, 249575, Note_on_c, 0, 76, 0
1, 249587, Note_on_c, 0, 79, 0
1, 249598, Note_on_c, 0, 48, 0
1, 249655, Note_on_c, 0, 60, 60
1, 249752, Note_on_c, 0, 48, 67
1, 249754, Note_on_c, 0, 60, 0
1, 249801, Note_on_c, 0, 48, 0
1, 249868, Note_on_c, 0, 77, 73
1, 249870, Note_on_c, 0, 60, 54
1, 249873, Note_on_c, 0, 74, 72
1, 249913, Note_on_c, 0, 74, 0
1, 249939, Note_on_c, 0, 77, 0
1, 249956, Note_on_c, 0, 60, 0
1, 249984, Note_on_c, 0, 76, 80
1, 249984, Note_on_c, 0, 72, 78
1, 249991, Note_on_c, 0, 48, 66
1, 250020, Note_on_c, 0, 76, 0
1, 250027, Note_on_c, 0, 72, 0
1, 250038, Note_on_c, 0, 48, 0
1, 250110, Note_on_c, 0, 60, 59
1, 250195, Note_on_c, 0, 60, 0
1, 250219, Note_on_c, 0, 48, 59
1, 250265, Note_on_c, 0, 48, 0
1, 250315, Note_on_c, 0, 65, 56
1, 250318, Note_on_c, 0, 74, 61
1, 250340, Note_on_c, 0, 65, 0
1, 250372, Note_on_c, 0, 60, 15
1, 250372, Note_on_c, 0, 74, 0
1, 250412, Control_c, 0, 67, 76
1, 250430, Control_c, 0, 67, 82
1, 250431, Note_on_c, 0, 64, 68
1, 250433, Note_on_c, 0, 72, 73
1, 250439, Note_on_c, 0, 48, 60
1, 250441, Note_on_c, 0, 60, 0
1, 250449, Control_c, 0, 67, 92
1, 250468, Control_c, 0, 67, 110
1, 250472, Note_on_c, 0, 64, 0
1, 250479, Note_on_c, 0, 48, 0
1, 250485, Control_c, 0, 67, 127
1, 250488, Note_on_c, 0, 72, 0
1, 250533, Note_on_c, 0, 76, 72
1, 250558, Note_on_c, 0, 60, 45
1, 250566, Poly_aftertouch_c, 0, 72, 127
1, 250586, Poly_aftertouch_c, 0, 72, 0
1, 250626, Note_on_c, 0, 71, 56
1, 250635, Note_on_c, 0, 60, 0
1, 250649, Note_on_c, 0, 48, 54
1, 250651, Note_on_c, 0, 71, 0
1, 250656, Note_on_c, 0, 76, 0
1, 250659, Note_on_c, 0, 74, 42
1, 250692, Note_on_c, 0, 74, 0
1, 250702, Note_on_c, 0, 48, 0
1, 250758, Note_on_c, 0, 77, 62
1, 250768, Note_on_c, 0, 60, 47
1, 250834, Note_on_c, 0, 60, 0
1, 250849, Note_on_c, 0, 72, 62
1, 250862, Note_on_c, 0, 48, 59
1, 250886, Note_on_c, 0, 72, 0
1, 250891, Note_on_c, 0, 77, 0
1, 250901, Note_on_c, 0, 76, 28
1, 250913, Note_on_c, 0, 48, 0
1, 250990, Note_on_c, 0, 60, 46
1, 250998, Note_on_c, 0, 79, 58
1, 251007, Note_on_c, 0, 81, 44
1, 251026, Note_on_c, 0, 76, 0
1, 251039, Note_on_c, 0, 81, 0
1, 251079, Note_on_c, 0, 74, 65
1, 251092, Note_on_c, 0, 77, 59
1, 251094, Note_on_c, 0, 60, 0
1, 251097, Note_on_c, 0, 79, 0
1, 251101, Note_on_c, 0, 48, 49
1, 251124, Note_on_c, 0, 74, 0
1, 251126, Note_on_c, 0, 77, 0
1, 251151, Note_on_c, 0, 48, 0
1, 251189, Note_on_c, 0, 81, 63
1, 251199, Note_on_c, 0, 77, 67
1, 251236, Note_on_c, 0, 77, 0
1, 251239, Note_on_c, 0, 60, 38
1, 251284, Note_on_c, 0, 60, 0
1, 251318, Note_on_c, 0, 76, 65
1, 251323, Note_on_c, 0, 48, 55
1, 251325, Note_on_c, 0, 81, 0
1, 251326, Note_on_c, 0, 79, 61
1, 251357, Note_on_c, 0, 76, 0
1, 251364, Note_on_c, 0, 79, 0
1, 251373, Note_on_c, 0, 48, 0
1, 251441, Note_on_c, 0, 60, 44
1, 251501, Note_on_c, 0, 60, 0
1, 251547, Note_on_c, 0, 48, 53
1, 251595, Note_on_c, 0, 48, 0
1, 251650, Note_on_c, 0, 77, 54
1, 251667, Note_on_c, 0, 60, 43
1, 251671, Note_on_c, 0, 74, 45
1, 251711, Note_on_c, 0, 74, 0
1, 251713, Note_on_c, 0, 60, 0
1, 251732, Note_on_c, 0, 77, 0
1, 251769, Note_on_c, 0, 48, 51
1, 251770, Note_on_c, 0, 76, 60
1, 251771, Note_on_c, 0, 72, 50
1, 251809, Note_on_c, 0, 76, 0
1, 251814, Note_on_c, 0, 72, 0
1, 251819, Note_on_c, 0, 48, 0
1, 251884, Note_on_c, 0, 60, 41
1, 251958, Note_on_c, 0, 60, 0
1, 251995, Note_on_c, 0, 48, 51
1, 252045, Note_on_c, 0, 48, 0
1, 252107, Note_on_c, 0, 74, 62
1, 252111, Note_on_c, 0, 60, 46
1, 252112, Note_on_c, 0, 65, 49
1, 252141, Note_on_c, 0, 65, 0
1, 252178, Note_on_c, 0, 60, 0
1, 252186, Note_on_c, 0, 74, 0
1, 252216, Note_on_c, 0, 48, 59
1, 252216, Note_on_c, 0, 72, 70
1, 252216, Note_on_c, 0, 64, 55
1, 252255, Note_on_c, 0, 64, 0
1, 252259, Note_on_c, 0, 48, 0
1, 252296, Poly_aftertouch_c, 0, 65, 0
1, 252309, Note_on_c, 0, 60, 58
1, 252314, Note_on_c, 0, 76, 75
1, 252357, Note_on_c, 0, 72, 0
1, 252381, Control_c, 0, 64, 10
1, 252401, Control_c, 0, 64, 21
1, 252418, Control_c, 0, 64, 28
1, 252419, Note_on_c, 0, 74, 72
1, 252422, Note_on_c, 0, 71, 71
1, 252432, Note_on_c, 0, 76, 0
1, 252436, Control_c, 0, 64, 34
1, 252437, Note_on_c, 0, 48, 64
1, 252448, Note_on_c, 0, 60, 0
1, 252454, Control_c, 0, 64, 38
1, 252456, Note_on_c, 0, 71, 0
1, 252460, Note_on_c, 0, 74, 0
1, 252494, Control_c, 0, 64, 41
1, 252506, Note_on_c, 0, 48, 0
1, 252532, Note_on_c, 0, 77, 77
1, 252558, Note_on_c, 0, 60, 47
1, 252590, Poly_aftertouch_c, 0, 74, 0
1, 252633, Note_on_c, 0, 76, 75
1, 252635, Note_on_c, 0, 72, 74
1, 252669, Note_on_c, 0, 48, 67
1, 252671, Note_on_c, 0, 77, 0
1, 252675, Note_on_c, 0, 60, 0
1, 252679, Note_on_c, 0, 72, 0
1, 252688, Note_on_c, 0, 76, 0
1, 252725, Note_on_c, 0, 48, 0
1, 252732, Control_c, 0, 64, 43
1, 252743, Note_on_c, 0, 76, 72
1, 252747, Note_on_c, 0, 79, 82
1, 252770, Control_c, 0, 64, 45
1, 252782, Note_on_c, 0, 76, 0
1, 252783, Note_on_c, 0, 60, 60
1, 252823, Note_on_c, 0, 79, 0
1, 252859, Note_on_c, 0, 77, 86
1, 252862, Note_on_c, 0, 74, 79
1, 252894, Note_on_c, 0, 48, 68
1, 252908, Note_on_c, 0, 60, 0
1, 252911, Note_on_c, 0, 77, 0
1, 252913, Note_on_c, 0, 74, 0
1, 252959, Note_on_c, 0, 48, 0
1, 252972, Note_on_c, 0, 77, 73
1, 252972, Note_on_c, 0, 81, 81
1, 253006, Note_on_c, 0, 60, 52
1, 253014, Note_on_c, 0, 77, 0
1, 253022, Control_c, 0, 64, 43
1, 253060, Control_c, 0, 64, 36
1, 253079, Control_c, 0, 64, 32
1, 253091, Note_on_c, 0, 79, 87
1, 253094, Note_on_c, 0, 76, 77
1, 253097, Control_c, 0, 64, 28
1, 253106, Note_on_c, 0, 48, 70
1, 253107, Note_on_c, 0, 60, 0
1, 253110, Note_on_c, 0, 81, 0
1, 253117, Control_c, 0, 64, 24
1, 253123, Note_on_c, 0, 76, 0
1, 253141, Note_on_c, 0, 79, 0
1, 253154, Control_c, 0, 64, 17
1, 253163, Note_on_c, 0, 48, 0
1, 253210, Control_c, 0, 64, 13
1, 253227, Note_on_c, 0, 60, 58
1, 253308, Note_on_c, 0, 60, 0
1, 253324, Note_on_c, 0, 48, 63
1, 253381, Note_on_c, 0, 48, 0
1, 253435, Note_on_c, 0, 77, 71
1, 253454, Note_on_c, 0, 74, 62
1, 253469, Note_on_c, 0, 60, 46
1, 253498, Note_on_c, 0, 74, 0
1, 253518, Note_on_c, 0, 77, 0
1, 253529, Note_on_c, 0, 60, 0
1, 253549, Note_on_c, 0, 72, 72
1, 253551, Note_on_c, 0, 76, 75
1, 253560, Note_on_c, 0, 48, 59
1, 253591, Note_on_c, 0, 72, 0
1, 253591, Note_on_c, 0, 76, 0
1, 253616, Note_on_c, 0, 48, 0
1, 253673, Control_c, 0, 64, 17
1, 253674, Note_on_c, 0, 60, 46
1, 253750, Note_on_c, 0, 60, 0
1, 253790, Note_on_c, 0, 48, 53
1, 253844, Note_on_c, 0, 48, 0
1, 253902, Note_on_c, 0, 74, 66
1, 253906, Note_on_c, 0, 65, 54
1, 253924, Note_on_c, 0, 60, 37
1, 253940, Note_on_c, 0, 65, 0
1, 253990, Note_on_c, 0, 74, 0
1, 254005, Note_on_c, 0, 60, 0
1, 254021, Note_on_c, 0, 72, 61
1, 254041, Note_on_c, 0, 48, 50
1, 254052, Note_on_c, 0, 64, 65
1, 254096, Note_on_c, 0, 48, 0
1, 254160, Note_on_c, 0, 60, 49
1, 254237, Note_on_c, 0, 60, 0
1, 254269, Note_on_c, 0, 48, 50
1, 254273, Control_c, 0, 64, 23
1, 254312, Control_c, 0, 64, 30
1, 254330, Note_on_c, 0, 48, 0
1, 254332, Control_c, 0, 64, 35
1, 254349, Control_c, 0, 64, 39
1, 254369, Control_c, 0, 64, 43
1, 254387, Control_c, 0, 64, 46
1, 254392, Note_on_c, 0, 60, 48
1, 254404, Control_c, 0, 64, 48
1, 254422, Control_c, 0, 64, 50
1, 254460, Control_c, 0, 64, 53
1, 254464, Note_on_c, 0, 60, 0
1, 254497, Control_c, 0, 64, 56
1, 254497, Note_on_c, 0, 48, 57
1, 254516, Control_c, 0, 64, 58
1, 254535, Control_c, 0, 64, 60
1, 254553, Control_c, 0, 64, 62
1, 254564, Note_on_c, 0, 48, 0
1, 254571, Control_c, 0, 64, 63
1, 254590, Control_c, 0, 64, 65
1, 254608, Control_c, 0, 64, 67
1, 254613, Note_on_c, 0, 60, 49
1, 254626, Control_c, 0, 64, 69
1, 254641, Note_on_c, 0, 64, 0
1, 254643, Control_c, 0, 64, 71
1, 254664, Control_c, 0, 64, 73
1, 254683, Control_c, 0, 64, 75
1, 254701, Control_c, 0, 64, 78
1, 254729, Control_c, 0, 64, 81
1, 254740, Note_on_c, 0, 60, 0
1, 254744, Note_on_c, 0, 48, 53
1, 254747, Control_c, 0, 64, 84
1, 254767, Control_c, 0, 64, 87
1, 254800, Note_on_c, 0, 48, 0
1, 254801, Control_c, 0, 64, 93
1, 254873, Note_on_c, 0, 60, 48
1, 254913, Note_on_c, 0, 60, 0
1, 255060, Note_on_c, 0, 72, 0
1, 255071, Note_on_c, 0, 73, 78
1, 255099, Control_c, 0, 64, 87
1, 255115, Note_on_c, 0, 64, 44
1, 255118, Control_c, 0, 64, 84
1, 255135, Note_on_c, 0, 48, 43
1, 255137, Control_c, 0, 64, 82
1, 255153, Control_c, 0, 64, 80
1, 255174, Control_c, 0, 64, 76
1, 255183, Note_on_c, 0, 48, 0
1, 255192, Control_c, 0, 64, 67
1, 255210, Control_c, 0, 64, 58
1, 255218, Note_on_c, 0, 64, 0
1, 255229, Control_c, 0, 64, 53
1, 255248, Control_c, 0, 64, 51
1, 255272, Note_on_c, 0, 58, 40
1, 255340, Control_c, 0, 64, 56
1, 255345, Note_on_c, 0, 58, 0
1, 255357, Control_c, 0, 64, 59
1, 255375, Control_c, 0, 64, 62
1, 255375, Note_on_c, 0, 48, 42
1, 255396, Control_c, 0, 64, 64
1, 255399, Poly_aftertouch_c, 0, 64, 24
1, 255414, Control_c, 0, 64, 66
1, 255433, Control_c, 0, 64, 68
1, 255444, Note_on_c, 0, 48, 0
1, 255450, Control_c, 0, 64, 70
1, 255488, Control_c, 0, 64, 72
1, 255499, Note_on_c, 0, 58, 48
1, 255507, Control_c, 0, 64, 74
1, 255537, Poly_aftertouch_c, 0, 64, 0
1, 255590, Note_on_c, 0, 58, 0
1, 255615, Note_on_c, 0, 48, 43
1, 255618, Control_c, 0, 64, 76
1, 255665, Control_c, 0, 64, 78
1, 255688, Note_on_c, 0, 48, 0
1, 255749, Note_on_c, 0, 58, 54
1, 255839, Note_on_c, 0, 58, 0
1, 255878, Note_on_c, 0, 48, 50
1, 255943, Note_on_c, 0, 48, 0
1, 255973, Note_on_c, 0, 58, 53
1, 256044, Note_on_c, 0, 58, 0
1, 256093, Note_on_c, 0, 48, 55
1, 256106, Note_on_c, 0, 65, 61
1, 256107, Control_c, 0, 64, 76
1, 256126, Control_c, 0, 64, 70
1, 256146, Control_c, 0, 64, 59
1, 256163, Control_c, 0, 64, 43
1, 256183, Control_c, 0, 64, 28
1, 256201, Control_c, 0, 64, 24
1, 256212, Note_on_c, 0, 48, 0
1, 256230, Note_on_c, 0, 56, 48
1, 256256, Control_c, 0, 64, 30
1, 256275, Control_c, 0, 64, 42
1, 256293, Control_c, 0, 64, 54
1, 256306, Note_on_c, 0, 56, 0
1, 256311, Control_c, 0, 64, 60
1, 256330, Control_c, 0, 64, 62
1, 256350, Control_c, 0, 64, 64
1, 256360, Note_on_c, 0, 48, 51
1, 256367, Control_c, 0, 64, 66
1, 256386, Control_c, 0, 64, 68
1, 256415, Note_on_c, 0, 48, 0
1, 256422, Control_c, 0, 64, 70
1, 256435, Note_on_c, 0, 56, 57
1, 256511, Note_on_c, 0, 56, 0
1, 256572, Note_on_c, 0, 73, 0
1, 256573, Note_on_c, 0, 72, 80
1, 256582, Note_on_c, 0, 48, 45
1, 256670, Note_on_c, 0, 48, 0
1, 256698, Note_on_c, 0, 56, 52
1, 256711, Control_c, 0, 64, 72
1, 256729, Control_c, 0, 64, 74
1, 256748, Control_c, 0, 64, 77
1, 256766, Control_c, 0, 64, 81
1, 256778, Note_on_c, 0, 56, 0
1, 256783, Control_c, 0, 64, 84
1, 256803, Control_c, 0, 64, 87
1, 256814, Note_on_c, 0, 48, 61
1, 256833, Note_on_c, 0, 65, 0
1, 256877, Control_c, 0, 64, 91
1, 256894, Note_on_c, 0, 48, 0
1, 256920, Note_on_c, 0, 56, 57
1, 257011, Note_on_c, 0, 72, 0
1, 257024, Control_c, 0, 64, 87
1, 257038, Note_on_c, 0, 56, 0
1, 257041, Note_on_c, 0, 71, 86
1, 257044, Control_c, 0, 64, 84
1, 257063, Control_c, 0, 64, 78
1, 257066, Note_on_c, 0, 65, 64
1, 257068, Note_on_c, 0, 50, 59
1, 257081, Control_c, 0, 64, 69
1, 257099, Control_c, 0, 64, 57
1, 257118, Control_c, 0, 64, 44
1, 257133, Note_on_c, 0, 50, 0
1, 257137, Control_c, 0, 64, 26
1, 257154, Control_c, 0, 64, 0
1, 257171, Note_on_c, 0, 56, 55
1, 257228, Control_c, 0, 67, 121
1, 257237, Note_on_c, 0, 56, 0
1, 257266, Control_c, 0, 67, 116
1, 257283, Note_on_c, 0, 50, 57
1, 257303, Control_c, 0, 64, 22
1, 257322, Control_c, 0, 64, 40
1, 257323, Control_c, 0, 67, 108
1, 257340, Control_c, 0, 64, 52
1, 257341, Control_c, 0, 67, 101
1, 257347, Note_on_c, 0, 50, 0
1, 257358, Control_c, 0, 64, 58
1, 257359, Control_c, 0, 67, 94
1, 257376, Control_c, 0, 64, 61
1, 257377, Control_c, 0, 67, 88
1, 257383, Note_on_c, 0, 56, 55
1, 257395, Control_c, 0, 64, 62
1, 257397, Control_c, 0, 67, 83
1, 257415, Control_c, 0, 64, 64
1, 257416, Control_c, 0, 67, 77
1, 257433, Control_c, 0, 64, 65
1, 257434, Control_c, 0, 67, 69
1, 257451, Control_c, 0, 67, 59
1, 257460, Note_on_c, 0, 56, 0
1, 257471, Control_c, 0, 64, 67
1, 257472, Control_c, 0, 67, 50
1, 257490, Control_c, 0, 67, 44
1, 257502, Note_on_c, 0, 50, 61
1, 257508, Control_c, 0, 67, 40
1, 257550, Note_on_c, 0, 65, 0
1, 257552, Control_c, 0, 64, 69
1, 257553, Control_c, 0, 67, 31
1, 257571, Control_c, 0, 67, 25
1, 257585, Note_on_c, 0, 50, 0
1, 257588, Control_c, 0, 67, 18
1, 257608, Control_c, 0, 67, 14
1, 257623, Note_on_c, 0, 56, 58
1, 257626, Control_c, 0, 64, 71
1, 257648, Control_c, 0, 64, 73
1, 257665, Control_c, 0, 64, 75
1, 257683, Control_c, 0, 64, 77
1, 257696, Note_on_c, 0, 56, 0
1, 257701, Control_c, 0, 64, 79
1, 257719, Control_c, 0, 64, 81
1, 257727, Note_on_c, 0, 71, 0
1, 257736, Note_on_c, 0, 50, 62
1, 257738, Control_c, 0, 64, 84
1, 257757, Control_c, 0, 64, 88
1, 257758, Control_c, 0, 67, 10
1, 257795, Control_c, 0, 64, 93
1, 257809, Note_on_c, 0, 50, 0
1, 257850, Note_on_c, 0, 56, 63
1, 257887, Control_c, 0, 67, 0
1, 257995, Note_on_c, 0, 70, 83
1, 257998, Note_on_c, 0, 56, 0
1, 258009, Note_on_c, 0, 52, 61
1, 258016, Control_c, 0, 64, 86
1, 258027, Note_on_c, 0, 60, 59
1, 258034, Control_c, 0, 64, 79
1, 258053, Control_c, 0, 64, 68
1, 258073, Control_c, 0, 64, 54
1, 258089, Control_c, 0, 64, 38
1, 258107, Control_c, 0, 64, 17
1, 258122, Note_on_c, 0, 52, 0
1, 258125, Control_c, 0, 64, 0
1, 258134, Note_on_c, 0, 55, 57
1, 258201, Control_c, 0, 64, 18
1, 258209, Note_on_c, 0, 55, 0
1, 258220, Control_c, 0, 64, 36
1, 258222, Note_on_c, 0, 60, 0
1, 258240, Control_c, 0, 64, 50
1, 258256, Note_on_c, 0, 52, 61
1, 258259, Control_c, 0, 64, 57
1, 258274, Control_c, 0, 64, 60
1, 258295, Control_c, 0, 64, 61
1, 258311, Control_c, 0, 64, 62
1, 258317, Note_on_c, 0, 52, 0
1, 258349, Control_c, 0, 64, 63
1, 258357, Note_on_c, 0, 55, 52
1, 258386, Control_c, 0, 64, 64
1, 258424, Control_c, 0, 64, 65
1, 258443, Note_on_c, 0, 55, 0
1, 258475, Note_on_c, 0, 52, 57
1, 258486, Control_c, 0, 64, 67
1, 258487, Note_on_c, 0, 67, 66
1, 258525, Control_c, 0, 64, 70
1, 258551, Note_on_c, 0, 52, 0
1, 258562, Control_c, 0, 64, 74
1, 258573, Note_on_c, 0, 60, 51
1, 258581, Control_c, 0, 64, 76
1, 258600, Control_c, 0, 64, 80
1, 258618, Control_c, 0, 64, 84
1, 258637, Control_c, 0, 64, 88
1, 258643, Note_on_c, 0, 60, 0
1, 258673, Control_c, 0, 64, 95
1, 258686, Note_on_c, 0, 52, 62
1, 258721, Note_on_c, 0, 70, 0
1, 258730, Control_c, 0, 64, 99
1, 258738, Note_on_c, 0, 52, 0
1, 258778, Note_on_c, 0, 60, 60
1, 258849, Poly_aftertouch_c, 0, 70, 0
1, 258868, Note_on_c, 0, 60, 0
1, 258895, Control_c, 0, 64, 95
1, 258907, Note_on_c, 0, 53, 63
1, 258913, Note_on_c, 0, 69, 84
1, 258914, Control_c, 0, 64, 87
1, 258932, Control_c, 0, 64, 76
1, 258951, Control_c, 0, 64, 62
1, 258969, Note_on_c, 0, 53, 0
1, 258969, Control_c, 0, 64, 44
1, 258988, Control_c, 0, 64, 23
1, 259021, Note_on_c, 0, 60, 53
1, 259062, Control_c, 0, 64, 10
1, 259081, Control_c, 0, 64, 21
1, 259089, Note_on_c, 0, 60, 0
1, 259100, Control_c, 0, 64, 36
1, 259117, Control_c, 0, 64, 51
1, 259121, Note_on_c, 0, 53, 55
1, 259137, Control_c, 0, 64, 60
1, 259158, Control_c, 0, 64, 64
1, 259174, Control_c, 0, 64, 67
1, 259191, Note_on_c, 0, 53, 0
1, 259194, Control_c, 0, 64, 71
1, 259210, Control_c, 0, 64, 74
1, 259220, Note_on_c, 0, 60, 59
1, 259227, Control_c, 0, 64, 77
1, 259247, Control_c, 0, 64, 80
1, 259285, Control_c, 0, 64, 82
1, 259309, Note_on_c, 0, 60, 0
1, 259341, Note_on_c, 0, 53, 65
1, 259359, Note_on_c, 0, 64, 69
1, 259373, Note_on_c, 0, 67, 0
1, 259378, Control_c, 0, 64, 79
1, 259404, Control_c, 0, 64, 72
1, 259424, Control_c, 0, 64, 59
1, 259441, Control_c, 0, 64, 41
1, 259451, Note_on_c, 0, 53, 0
1, 259460, Control_c, 0, 64, 22
1, 259477, Note_on_c, 0, 61, 59
1, 259479, Control_c, 0, 64, 15
1, 259517, Control_c, 0, 64, 20
1, 259535, Control_c, 0, 64, 35
1, 259554, Control_c, 0, 64, 52
1, 259572, Control_c, 0, 64, 63
1, 259572, Note_on_c, 0, 61, 0
1, 259589, Note_on_c, 0, 53, 62
1, 259590, Control_c, 0, 64, 68
1, 259611, Control_c, 0, 64, 70
1, 259629, Control_c, 0, 64, 72
1, 259648, Control_c, 0, 64, 74
1, 259666, Control_c, 0, 64, 76
1, 259673, Note_on_c, 0, 53, 0
1, 259694, Note_on_c, 0, 61, 70
1, 259704, Control_c, 0, 64, 78
1, 259776, Control_c, 0, 64, 72
1, 259783, Note_on_c, 0, 61, 0
1, 259795, Control_c, 0, 64, 65
1, 259803, Note_on_c, 0, 53, 69
1, 259805, Note_on_c, 0, 64, 0
1, 259808, Note_on_c, 0, 65, 78
1, 259813, Control_c, 0, 64, 52
1, 259834, Control_c, 0, 64, 32
1, 259851, Control_c, 0, 64, 0
1, 259891, Note_on_c, 0, 53, 0
1, 259913, Note_on_c, 0, 62, 69
1, 259980, Control_c, 0, 64, 16
1, 260000, Control_c, 0, 64, 34
1, 260009, Note_on_c, 0, 62, 0
1, 260017, Control_c, 0, 64, 49
1, 260029, Note_on_c, 0, 53, 68
1, 260035, Control_c, 0, 64, 58
1, 260056, Control_c, 0, 64, 63
1, 260074, Control_c, 0, 64, 68
1, 260093, Control_c, 0, 64, 73
1, 260107, Note_on_c, 0, 53, 0
1, 260109, Control_c, 0, 64, 78
1, 260125, Note_on_c, 0, 62, 73
1, 260129, Control_c, 0, 64, 84
1, 260147, Control_c, 0, 64, 89
1, 260149, Note_on_c, 0, 69, 0
1, 260178, Note_on_c, 0, 65, 0
1, 260183, Control_c, 0, 64, 94
1, 260236, Note_on_c, 0, 62, 0
1, 260239, Note_on_c, 0, 53, 74
1, 260316, Note_on_c, 0, 53, 0
1, 260366, Note_on_c, 0, 62, 73
1, 260443, Note_on_c, 0, 62, 0
1, 260453, Note_on_c, 0, 53, 77
1, 260531, Note_on_c, 0, 53, 0
1, 260557, Note_on_c, 0, 62, 70
1, 260639, Control_c, 0, 64, 87
1, 260657, Control_c, 0, 64, 80
1, 260659, Note_on_c, 0, 62, 0
1, 260677, Control_c, 0, 64, 71
1, 260695, Control_c, 0, 64, 63
1, 260696, Note_on_c, 0, 69, 82
1, 260706, Note_on_c, 0, 54, 58
1, 260712, Control_c, 0, 64, 59
1, 260716, Note_on_c, 0, 63, 67
1, 260731, Control_c, 0, 64, 55
1, 260749, Control_c, 0, 64, 52
1, 260768, Control_c, 0, 64, 49
1, 260770, Note_on_c, 0, 54, 0
1, 260787, Control_c, 0, 64, 47
1, 260811, Note_on_c, 0, 60, 59
1, 260891, Note_on_c, 0, 60, 0
1, 260912, Note_on_c, 0, 54, 63
1, 260990, Note_on_c, 0, 54, 0
1, 261022, Note_on_c, 0, 60, 65
1, 261117, Note_on_c, 0, 60, 0
1, 261136, Note_on_c, 0, 54, 66
1, 261202, Note_on_c, 0, 54, 0
1, 261232, Control_c, 0, 64, 45
1, 261246, Note_on_c, 0, 60, 60
1, 261277, Control_c, 0, 64, 42
1, 261316, Note_on_c, 0, 60, 0
1, 261333, Control_c, 0, 64, 37
1, 261355, Note_on_c, 0, 54, 64
1, 261370, Control_c, 0, 64, 30
1, 261389, Control_c, 0, 64, 24
1, 261408, Control_c, 0, 64, 20
1, 261412, Note_on_c, 0, 54, 0
1, 261445, Control_c, 0, 64, 15
1, 261453, Note_on_c, 0, 60, 62
1, 261464, Control_c, 0, 64, 10
1, 261499, Control_c, 0, 64, 0
1, 261535, Note_on_c, 0, 60, 0
1, 261536, Control_c, 0, 67, 8
1, 261565, Note_on_c, 0, 67, 74
1, 261571, Note_on_c, 0, 69, 0
1, 261585, Note_on_c, 0, 55, 58
1, 261593, Control_c, 0, 67, 12
1, 261637, Note_on_c, 0, 55, 0
1, 261667, Control_c, 0, 67, 17
1, 261677, Note_on_c, 0, 60, 58
1, 261721, Control_c, 0, 67, 22
1, 261737, Note_on_c, 0, 60, 0
1, 261779, Note_on_c, 0, 55, 54
1, 261796, Control_c, 0, 67, 26
1, 261832, Note_on_c, 0, 55, 0
1, 261851, Control_c, 0, 67, 30
1, 261878, Note_on_c, 0, 60, 58
1, 261908, Control_c, 0, 67, 35
1, 261927, Control_c, 0, 67, 39
1, 261944, Control_c, 0, 67, 45
1, 261949, Note_on_c, 0, 60, 0
1, 261964, Control_c, 0, 67, 51
1, 261981, Control_c, 0, 67, 56
1, 262002, Note_on_c, 0, 55, 52
1, 262002, Control_c, 0, 67, 60
1, 262013, Note_on_c, 0, 62, 61
1, 262016, Control_c, 0, 67, 64
1, 262055, Control_c, 0, 67, 71
1, 262061, Note_on_c, 0, 55, 0
1, 262063, Note_on_c, 0, 63, 0
1, 262092, Control_c, 0, 67, 78
1, 262108, Note_on_c, 0, 60, 57
1, 262129, Control_c, 0, 67, 83
1, 262169, Note_on_c, 0, 60, 0
1, 262186, Control_c, 0, 67, 88
1, 262230, Control_c, 0, 67, 93
1, 262239, Note_on_c, 0, 55, 48
1, 262268, Control_c, 0, 67, 98
1, 262290, Note_on_c, 0, 55, 0
1, 262305, Control_c, 0, 67, 104
1, 262324, Control_c, 0, 67, 109
1, 262345, Control_c, 0, 67, 113
1, 262354, Note_on_c, 0, 60, 47
1, 262361, Control_c, 0, 67, 120
1, 262381, Control_c, 0, 67, 126
1, 262401, Note_on_c, 0, 60, 0
1, 262456, Note_on_c, 0, 62, 0
1, 262461, Note_on_c, 0, 55, 50
1, 262461, Note_on_c, 0, 64, 57
1, 262535, Note_on_c, 0, 55, 0
1, 262595, Note_on_c, 0, 59, 44
1, 262657, Note_on_c, 0, 59, 0
1, 262686, Note_on_c, 0, 55, 53
1, 262759, Note_on_c, 0, 55, 0
1, 262796, Note_on_c, 0, 59, 50
1, 262874, Note_on_c, 0, 59, 0
1, 262911, Note_on_c, 0, 55, 55
1, 262916, Note_on_c, 0, 64, 0
1, 262917, Note_on_c, 0, 65, 55
1, 262986, Note_on_c, 0, 55, 0
1, 263026, Note_on_c, 0, 59, 54
1, 263093, Note_on_c, 0, 59, 0
1, 263154, Note_on_c, 0, 55, 50
1, 263258, Note_on_c, 0, 55, 0
1, 263273, Note_on_c, 0, 59, 51
1, 263329, Note_on_c, 0, 59, 0
1, 263334, Note_on_c, 0, 67, 0
1, 263338, Note_on_c, 0, 65, 0
1, 263368, Note_on_c, 0, 64, 67
1, 263370, Note_on_c, 0, 60, 74
1, 263411, Note_on_c, 0, 64, 0
1, 263419, Note_on_c, 0, 60, 0
1, 263518, Control_c, 0, 67, 111
1, 263536, Control_c, 0, 67, 81
1, 263556, Control_c, 0, 67, 35
1, 263574, Control_c, 0, 67, 0
1, 263599, Note_on_c, 0, 67, 84
1, 263600, Note_on_c, 0, 76, 89
1, 263607, Note_on_c, 0, 55, 84
1, 263609, Note_on_c, 0, 52, 79
1, 263611, Note_on_c, 0, 72, 79
1, 263613, Note_on_c, 0, 48, 73
1, 263630, Control_c, 0, 64, 9
1, 263643, Note_on_c, 0, 55, 0
1, 263646, Note_on_c, 0, 67, 0
1, 263648, Note_on_c, 0, 52, 0
1, 263648, Control_c, 0, 64, 64
1, 263648, Note_on_c, 0, 72, 0
1, 263654, Note_on_c, 0, 48, 0
1, 263668, Control_c, 0, 64, 84
1, 263682, Note_on_c, 0, 76, 0
1, 263685, Control_c, 0, 64, 95
1, 263703, Control_c, 0, 64, 99
1, 263736, Control_c, 0, 64, 78
1, 263755, Control_c, 0, 64, 44
1, 263773, Control_c, 0, 64, 0
1, 263823, Note_on_c, 0, 74, 80
1, 263823, Note_on_c, 0, 77, 88
1, 263828, Note_on_c, 0, 67, 84
1, 263834, Note_on_c, 0, 50, 76
1, 263835, Note_on_c, 0, 55, 80
1, 263846, Note_on_c, 0, 47, 65
1, 263866, Control_c, 0, 64, 20
1, 263872, Note_on_c, 0, 50, 0
1, 263875, Note_on_c, 0, 55, 0
1, 263877, Note_on_c, 0, 74, 0
1, 263884, Note_on_c, 0, 67, 0
1, 263885, Control_c, 0, 64, 58
1, 263891, Note_on_c, 0, 77, 0
1, 263896, Note_on_c, 0, 47, 0
1, 263904, Control_c, 0, 64, 70
1, 263922, Control_c, 0, 64, 73
1, 263942, Control_c, 0, 64, 68
1, 263960, Control_c, 0, 64, 43
1, 263979, Control_c, 0, 64, 0
1, 264053, Control_c, 0, 64, 34
1, 264059, Note_on_c, 0, 76, 90
1, 264065, Note_on_c, 0, 67, 78
1, 264065, Note_on_c, 0, 55, 78
1, 264079, Note_on_c, 0, 72, 62
1, 264080, Control_c, 0, 64, 59
1, 264082, Note_on_c, 0, 48, 85
1, 264091, Note_on_c, 0, 52, 52
1, 264098, Control_c, 0, 64, 72
1, 264105, Note_on_c, 0, 67, 0
1, 264105, Note_on_c, 0, 72, 0
1, 264107, Note_on_c, 0, 55, 0
1, 264117, Control_c, 0, 64, 80
1, 264119, Note_on_c, 0, 48, 0
1, 264122, Note_on_c, 0, 52, 0
1, 264126, Note_on_c, 0, 76, 0
1, 264136, Control_c, 0, 64, 85
1, 264229, Control_c, 0, 64, 77
1, 264247, Control_c, 0, 64, 44
1, 264265, Control_c, 0, 64, 0
1, 264330, Note_on_c, 0, 81, 89
1, 264331, Note_on_c, 0, 53, 88
1, 264333, Note_on_c, 0, 41, 80
1, 264333, Note_on_c, 0, 69, 83
1, 264337, Note_on_c, 0, 77, 78
1, 264338, Control_c, 0, 64, 48
1, 264360, Control_c, 0, 64, 68
1, 264372, Note_on_c, 0, 41, 0
1, 264373, Note_on_c, 0, 69, 0
1, 264375, Control_c, 0, 64, 86
1, 264386, Note_on_c, 0, 81, 0
1, 264391, Note_on_c, 0, 53, 0
1, 264394, Control_c, 0, 64, 100
1, 264397, Note_on_c, 0, 77, 0
1, 264415, Control_c, 0, 64, 106
1, 264469, Control_c, 0, 64, 110
1, 264525, Control_c, 0, 64, 116
1, 264563, Control_c, 0, 64, 122
1, 264601, Control_c, 0, 64, 116
1, 264602, Control_c, 0, 67, 15
1, 264619, Control_c, 0, 64, 87
1, 264620, Control_c, 0, 67, 27
1, 264636, Control_c, 0, 64, 54
1, 264638, Control_c, 0, 67, 43
1, 264655, Control_c, 0, 64, 0
1, 264656, Control_c, 0, 67, 67
1, 264673, Control_c, 0, 67, 99
1, 264691, Control_c, 0, 67, 127
1, 264855, Note_on_c, 0, 62, 56
1, 264885, Note_on_c, 0, 59, 47
1, 265040, Note_on_c, 0, 62, 0
1, 265063, Note_on_c, 0, 64, 60
1, 265119, Note_on_c, 0, 64, 0
1, 265125, Note_on_c, 0, 65, 65
1, 265128, Note_on_c, 0, 59, 0
1, 265134, Note_on_c, 0, 55, 44
1, 265279, Note_on_c, 0, 65, 0
1, 265298, Note_on_c, 0, 67, 60
1, 265342, Note_on_c, 0, 55, 0
1, 265374, Note_on_c, 0, 67, 0
1, 265377, Note_on_c, 0, 60, 72
1, 265380, Note_on_c, 0, 64, 77
1, 265417, Note_on_c, 0, 60, 0
1, 265440, Note_on_c, 0, 64, 0
1, 265555, Control_c, 0, 67, 109
1, 265574, Control_c, 0, 67, 74
1, 265592, Control_c, 0, 67, 20
1, 265608, Note_on_c, 0, 76, 88
1, 265609, Note_on_c, 0, 67, 83
1, 265610, Control_c, 0, 67, 0
1, 265618, Note_on_c, 0, 72, 74
1, 265619, Note_on_c, 0, 55, 82
1, 265624, Note_on_c, 0, 52, 74
1, 265629, Note_on_c, 0, 48, 76
1, 265647, Control_c, 0, 64, 46
1, 265655, Note_on_c, 0, 55, 0
1, 265655, Note_on_c, 0, 67, 0
1, 265656, Note_on_c, 0, 72, 0
1, 265656, Note_on_c, 0, 52, 0
1, 265656, Control_c, 0, 64, 68
1, 265656, Note_on_c, 0, 48, 0
1, 265656, Note_on_c, 0, 76, 0
1, 265656, Control_c, 0, 64, 74
1, 265656, Control_c, 0, 64, 79
1, 265674, Control_c, 0, 64, 81
1, 265711, Control_c, 0, 64, 75
1, 265729, Control_c, 0, 64, 56
1, 265747, Control_c, 0, 64, 0
1, 265807, Note_on_c, 0, 77, 87
1, 265808, Note_on_c, 0, 74, 85
1, 265810, Note_on_c, 0, 50, 79
1, 265812, Note_on_c, 0, 55, 76
1, 265813, Note_on_c, 0, 67, 87
1, 265819, Note_on_c, 0, 47, 79
1, 265848, Note_on_c, 0, 55, 0
1, 265850, Note_on_c, 0, 50, 0
1, 265855, Note_on_c, 0, 67, 0
1, 265858, Control_c, 0, 64, 37
1, 265862, Note_on_c, 0, 74, 0
1, 265868, Note_on_c, 0, 47, 0
1, 265873, Note_on_c, 0, 77, 0
1, 265877, Control_c, 0, 64, 64
1, 265897, Control_c, 0, 64, 74
1, 265923, Control_c, 0, 64, 80
1, 265942, Control_c, 0, 64, 84
1, 265979, Control_c, 0, 64, 71
1, 265986, Poly_aftertouch_c, 0, 72, 0
1, 265997, Control_c, 0, 64, 23
1, 266017, Control_c, 0, 64, 0
1, 266064, Note_on_c, 0, 76, 93
1, 266067, Note_on_c, 0, 67, 84
1, 266070, Note_on_c, 0, 55, 78
1, 266071, Control_c, 0, 64, 30
1, 266074, Note_on_c, 0, 48, 82
1, 266089, Note_on_c, 0, 52, 51
1, 266089, Control_c, 0, 64, 61
1, 266094, Note_on_c, 0, 72, 34
1, 266100, Note_on_c, 0, 67, 0
1, 266104, Note_on_c, 0, 55, 0
1, 266107, Control_c, 0, 64, 80
1, 266119, Note_on_c, 0, 48, 0
1, 266122, Note_on_c, 0, 52, 0
1, 266125, Note_on_c, 0, 76, 0
1, 266126, Control_c, 0, 64, 103
1, 266135, Note_on_c, 0, 72, 0
1, 266146, Control_c, 0, 64, 127
1, 266221, Control_c, 0, 64, 110
1, 266240, Control_c, 0, 64, 70
1, 266252, Note_on_c, 0, 78, 40
1, 266257, Control_c, 0, 64, 0
1, 266281, Note_on_c, 0, 78, 0
1, 266327, Note_on_c, 0, 41, 75
1, 266327, Note_on_c, 0, 53, 83
1, 266330, Control_c, 0, 64, 43
1, 266331, Note_on_c, 0, 81, 92
1, 266332, Note_on_c, 0, 69, 81
1, 266338, Note_on_c, 0, 77, 82
1, 266351, Control_c, 0, 64, 70
1, 266360, Note_on_c, 0, 41, 0
1, 266368, Control_c, 0, 64, 91
1, 266378, Note_on_c, 0, 53, 0
1, 266381, Note_on_c, 0, 69, 0
1, 266385, Note_on_c, 0, 81, 0
1, 266388, Control_c, 0, 64, 122
1, 266400, Note_on_c, 0, 77, 0
1, 266406, Control_c, 0, 64, 127
1, 266591, Control_c, 0, 64, 97
1, 266609, Control_c, 0, 64, 53
1, 266628, Control_c, 0, 64, 0
1, 266851, Note_on_c, 0, 59, 52
1, 266885, Note_on_c, 0, 59, 0
1, 266899, Note_on_c, 0, 62, 65
1, 266947, Note_on_c, 0, 62, 0
1, 266981, Note_on_c, 0, 65, 60
1, 267034, Note_on_c, 0, 65, 0
1, 267044, Note_on_c, 0, 69, 58
1, 267072, Note_on_c, 0, 47, 54
1, 267088, Note_on_c, 0, 55, 28
1, 267089, Note_on_c, 0, 55, 0
1, 267110, Note_on_c, 0, 69, 0
1, 267128, Note_on_c, 0, 67, 49
1, 267130, Note_on_c, 0, 47, 0
1, 267206, Note_on_c, 0, 65, 54
1, 267240, Note_on_c, 0, 67, 0
1, 267291, Note_on_c, 0, 65, 0
1, 267298, Note_on_c, 0, 64, 71
1, 267323, Control_c, 0, 64, 19
1, 267325, Note_on_c, 0, 48, 59
1, 267339, Note_on_c, 0, 55, 48
1, 267339, Note_on_c, 0, 55, 0
1, 267340, Control_c, 0, 64, 32
1, 267349, Note_on_c, 0, 64, 0
1, 267359, Control_c, 0, 64, 39
1, 267365, Note_on_c, 0, 48, 0
1, 267414, Control_c, 0, 64, 28
1, 267432, Control_c, 0, 64, 0
1, 267559, Note_on_c, 0, 67, 75
1, 267562, Note_on_c, 0, 48, 58
1, 267609, Note_on_c, 0, 52, 35
1, 267626, Note_on_c, 0, 67, 0
1, 267646, Note_on_c, 0, 72, 66
1, 267650, Note_on_c, 0, 48, 0
1, 267657, Note_on_c, 0, 55, 69
1, 267705, Note_on_c, 0, 52, 0
1, 267706, Note_on_c, 0, 76, 66
1, 267725, Note_on_c, 0, 72, 0
1, 267738, Note_on_c, 0, 55, 0
1, 267782, Note_on_c, 0, 47, 74
1, 267800, Note_on_c, 0, 67, 80
1, 267816, Note_on_c, 0, 50, 30
1, 267827, Note_on_c, 0, 76, 0
1, 267856, Note_on_c, 0, 47, 0
1, 267859, Note_on_c, 0, 50, 0
1, 267871, Note_on_c, 0, 74, 67
1, 267877, Note_on_c, 0, 67, 0
1, 267880, Note_on_c, 0, 55, 65
1, 267939, Note_on_c, 0, 55, 0
1, 267961, Note_on_c, 0, 77, 76
1, 267968, Note_on_c, 0, 74, 0
1, 267978, Note_on_c, 0, 48, 72
1, 268026, Note_on_c, 0, 67, 81
1, 268036, Note_on_c, 0, 52, 54
1, 268064, Note_on_c, 0, 77, 0
1, 268072, Note_on_c, 0, 48, 0
1, 268074, Note_on_c, 0, 52, 0
1, 268101, Note_on_c, 0, 55, 75
1, 268109, Note_on_c, 0, 67, 0
1, 268112, Note_on_c, 0, 72, 73
1, 268185, Note_on_c, 0, 76, 65
1, 268187, Note_on_c, 0, 72, 0
1, 268250, Note_on_c, 0, 76, 0
1, 268258, Note_on_c, 0, 55, 0
1, 268269, Note_on_c, 0, 69, 82
1, 268274, Note_on_c, 0, 41, 88
1, 268276, Control_c, 0, 64, 18
1, 268296, Control_c, 0, 64, 65
1, 268302, Note_on_c, 0, 43, 46
1, 268302, Note_on_c, 0, 43, 0
1, 268314, Control_c, 0, 64, 96
1, 268331, Note_on_c, 0, 69, 0
1, 268332, Note_on_c, 0, 41, 0
1, 268332, Control_c, 0, 64, 127
1, 268359, Note_on_c, 0, 81, 76
1, 268426, Control_c, 0, 67, 15
1, 268437, Note_on_c, 0, 81, 0
1, 268445, Control_c, 0, 64, 97
1, 268446, Control_c, 0, 67, 27
1, 268446, Note_on_c, 0, 79, 71
1, 268464, Control_c, 0, 64, 51
1, 268465, Control_c, 0, 67, 46
1, 268482, Control_c, 0, 64, 0
1, 268483, Control_c, 0, 67, 72
1, 268501, Control_c, 0, 67, 105
1, 268519, Control_c, 0, 67, 127
1, 268539, Note_on_c, 0, 77, 61
1, 268559, Note_on_c, 0, 79, 0
1, 268600, Note_on_c, 0, 77, 0
1, 268621, Note_on_c, 0, 76, 54
1, 268662, Note_on_c, 0, 76, 0
1, 268699, Note_on_c, 0, 74, 48
1, 268753, Note_on_c, 0, 74, 0
1, 268800, Note_on_c, 0, 73, 58
1, 268836, Note_on_c, 0, 53, 47
1, 268836, Note_on_c, 0, 57, 47
1, 268849, Note_on_c, 0, 73, 0
1, 268866, Note_on_c, 0, 53, 0
1, 268867, Note_on_c, 0, 57, 0
1, 268878, Note_on_c, 0, 74, 56
1, 268923, Note_on_c, 0, 74, 0
1, 268989, Note_on_c, 0, 81, 46
1, 269021, Note_on_c, 0, 81, 0
1, 269043, Note_on_c, 0, 79, 67
1, 269145, Note_on_c, 0, 77, 56
1, 269148, Note_on_c, 0, 79, 0
1, 269197, Note_on_c, 0, 77, 0
1, 269214, Note_on_c, 0, 76, 60
1, 269273, Note_on_c, 0, 76, 0
1, 269314, Note_on_c, 0, 53, 67
1, 269316, Note_on_c, 0, 57, 67
1, 269317, Note_on_c, 0, 74, 70
1, 269348, Note_on_c, 0, 57, 0
1, 269355, Note_on_c, 0, 53, 0
1, 269372, Note_on_c, 0, 74, 0
1, 269400, Note_on_c, 0, 73, 66
1, 269449, Note_on_c, 0, 73, 0
1, 269484, Note_on_c, 0, 81, 66
1, 269556, Note_on_c, 0, 79, 72
1, 269562, Note_on_c, 0, 81, 0
1, 269655, Note_on_c, 0, 77, 70
1, 269670, Note_on_c, 0, 79, 0
1, 269721, Note_on_c, 0, 77, 0
1, 269733, Note_on_c, 0, 76, 73
1, 269793, Note_on_c, 0, 76, 0
1, 269820, Note_on_c, 0, 74, 83
1, 269830, Note_on_c, 0, 53, 76
1, 269832, Note_on_c, 0, 57, 78
1, 269862, Note_on_c, 0, 53, 0
1, 269864, Note_on_c, 0, 57, 0
1, 269891, Note_on_c, 0, 74, 0
1, 269906, Note_on_c, 0, 73, 73
1, 269974, Note_on_c, 0, 73, 0
1, 269986, Note_on_c, 0, 81, 75
1, 270068, Note_on_c, 0, 79, 75
1, 270076, Note_on_c, 0, 81, 0
1, 270156, Note_on_c, 0, 77, 73
1, 270170, Control_c, 0, 67, 122
1, 270176, Note_on_c, 0, 79, 0
1, 270188, Control_c, 0, 67, 110
1, 270206, Control_c, 0, 67, 95
1, 270223, Control_c, 0, 67, 80
1, 270225, Note_on_c, 0, 77, 0
1, 270229, Note_on_c, 0, 76, 77
1, 270242, Control_c, 0, 67, 66
1, 270262, Control_c, 0, 67, 55
1, 270280, Control_c, 0, 67, 48
1, 270298, Control_c, 0, 64, 21
1, 270298, Note_on_c, 0, 76, 0
1, 270318, Control_c, 0, 64, 32
1, 270324, Note_on_c, 0, 74, 86
1, 270333, Note_on_c, 0, 57, 81
1, 270336, Note_on_c, 0, 53, 73
1, 270337, Control_c, 0, 64, 43
1, 270355, Control_c, 0, 64, 49
1, 270373, Control_c, 0, 64, 53
1, 270375, Note_on_c, 0, 53, 0
1, 270375, Note_on_c, 0, 57, 0
1, 270393, Control_c, 0, 64, 56
1, 270394, Control_c, 0, 67, 52
1, 270403, Note_on_c, 0, 74, 0
1, 270410, Control_c, 0, 64, 59
1, 270411, Note_on_c, 0, 73, 78
1, 270429, Control_c, 0, 64, 61
1, 270446, Control_c, 0, 64, 62
1, 270447, Control_c, 0, 67, 56
1, 270486, Note_on_c, 0, 73, 0
1, 270496, Note_on_c, 0, 81, 78
1, 270503, Control_c, 0, 64, 59
1, 270521, Control_c, 0, 64, 53
1, 270541, Control_c, 0, 64, 49
1, 270558, Control_c, 0, 64, 46
1, 270576, Control_c, 0, 64, 43
1, 270576, Note_on_c, 0, 79, 77
1, 270593, Note_on_c, 0, 81, 0
1, 270604, Control_c, 0, 64, 38
1, 270622, Control_c, 0, 64, 30
1, 270642, Control_c, 0, 64, 26
1, 270674, Note_on_c, 0, 77, 76
1, 270677, Control_c, 0, 64, 31
1, 270697, Control_c, 0, 64, 39
1, 270701, Note_on_c, 0, 79, 0
1, 270716, Control_c, 0, 64, 45
1, 270736, Control_c, 0, 64, 47
1, 270744, Note_on_c, 0, 77, 0
1, 270753, Control_c, 0, 64, 49
1, 270754, Control_c, 0, 67, 52
1, 270754, Note_on_c, 0, 76, 75
1, 270772, Control_c, 0, 64, 52
1, 270807, Control_c, 0, 64, 55
1, 270824, Note_on_c, 0, 76, 0
1, 270831, Note_on_c, 0, 57, 87
1, 270831, Note_on_c, 0, 74, 90
1, 270835, Note_on_c, 0, 53, 79
1, 270845, Control_c, 0, 67, 47
1, 270874, Note_on_c, 0, 53, 0
1, 270882, Control_c, 0, 67, 41
1, 270884, Note_on_c, 0, 74, 0
1, 270886, Note_on_c, 0, 57, 0
1, 270901, Control_c, 0, 67, 35
1, 270921, Control_c, 0, 67, 27
1, 270923, Note_on_c, 0, 81, 79
1, 270938, Control_c, 0, 67, 18
1, 270958, Control_c, 0, 67, 10
1, 270974, Control_c, 0, 64, 52
1, 270992, Control_c, 0, 64, 49
1, 270995, Note_on_c, 0, 79, 77
1, 271019, Note_on_c, 0, 81, 0
1, 271069, Control_c, 0, 64, 45
1, 271083, Note_on_c, 0, 77, 72
1, 271087, Control_c, 0, 64, 43
1, 271118, Note_on_c, 0, 79, 0
1, 271123, Control_c, 0, 64, 41
1, 271132, Note_on_c, 0, 76, 77
1, 271149, Note_on_c, 0, 77, 0
1, 271198, Note_on_c, 0, 76, 0
1, 271215, Note_on_c, 0, 74, 81
1, 271235, Control_c, 0, 64, 37
1, 271271, Note_on_c, 0, 74, 0
1, 271272, Control_c, 0, 64, 31
1, 271299, Note_on_c, 0, 64, 90
1, 271303, Note_on_c, 0, 55, 76
1, 271303, Note_on_c, 0, 60, 78
1, 271303, Note_on_c, 0, 76, 93
1, 271308, Control_c, 0, 64, 24
1, 271328, Control_c, 0, 64, 18
1, 271344, Control_c, 0, 64, 10
1, 271363, Control_c, 0, 64, 0
1, 271382, Note_on_c, 0, 76, 0
1, 271394, Note_on_c, 0, 79, 82
1, 271478, Note_on_c, 0, 77, 80
1, 271499, Note_on_c, 0, 79, 0
1, 271563, Note_on_c, 0, 76, 68
1, 271594, Note_on_c, 0, 77, 0
1, 271621, Note_on_c, 0, 74, 79
1, 271629, Note_on_c, 0, 76, 0
1, 271670, Control_c, 0, 64, 19
1, 271689, Control_c, 0, 64, 37
1, 271693, Note_on_c, 0, 74, 0
1, 271704, Note_on_c, 0, 72, 74
1, 271707, Control_c, 0, 64, 49
1, 271724, Control_c, 0, 64, 53
1, 271742, Note_on_c, 0, 72, 0
1, 271777, Note_on_c, 0, 71, 77
1, 271779, Control_c, 0, 67, 0
1, 271796, Note_on_c, 0, 55, 0
1, 271797, Note_on_c, 0, 60, 0
1, 271805, Note_on_c, 0, 64, 0
1, 271829, Note_on_c, 0, 71, 0
1, 271830, Note_on_c, 0, 69, 79
1, 271879, Note_on_c, 0, 69, 0
1, 271907, Note_on_c, 0, 67, 79
1, 271946, Control_c, 0, 64, 55
1, 271953, Note_on_c, 0, 67, 0
1, 271991, Note_on_c, 0, 79, 79
1, 272076, Note_on_c, 0, 76, 78
1, 272084, Note_on_c, 0, 79, 0
1, 272124, Note_on_c, 0, 55, 63
1, 272136, Note_on_c, 0, 76, 0
1, 272139, Note_on_c, 0, 72, 80
1, 272151, Control_c, 0, 64, 50
1, 272162, Note_on_c, 0, 59, 56
1, 272168, Control_c, 0, 64, 33
1, 272185, Note_on_c, 0, 72, 0
1, 272186, Control_c, 0, 64, 0
1, 272196, Note_on_c, 0, 62, 55
1, 272211, Note_on_c, 0, 76, 93
1, 272221, Note_on_c, 0, 65, 95
1, 272253, Note_on_c, 0, 58, 19
1, 272253, Note_on_c, 0, 58, 0
1, 272266, Note_on_c, 0, 76, 0
1, 272290, Note_on_c, 0, 74, 80
1, 272298, Control_c, 0, 64, 25
1, 272317, Control_c, 0, 64, 47
1, 272337, Control_c, 0, 64, 59
1, 272339, Note_on_c, 0, 74, 0
1, 272354, Note_on_c, 0, 76, 85
1, 272354, Control_c, 0, 64, 64
1, 272373, Control_c, 0, 64, 65
1, 272390, Note_on_c, 0, 76, 0
1, 272411, Control_c, 0, 64, 67
1, 272419, Note_on_c, 0, 74, 80
1, 272429, Control_c, 0, 64, 71
1, 272448, Control_c, 0, 64, 75
1, 272462, Note_on_c, 0, 74, 0
1, 272474, Control_c, 0, 64, 79
1, 272487, Note_on_c, 0, 76, 82
1, 272494, Control_c, 0, 64, 81
1, 272512, Control_c, 0, 64, 83
1, 272527, Note_on_c, 0, 76, 0
1, 272533, Note_on_c, 0, 74, 80
1, 272549, Control_c, 0, 64, 86
1, 272582, Note_on_c, 0, 74, 0
1, 272607, Note_on_c, 0, 76, 78
1, 272652, Note_on_c, 0, 76, 0
1, 272660, Note_on_c, 0, 74, 81
1, 272696, Note_on_c, 0, 74, 0
1, 272721, Note_on_c, 0, 76, 80
1, 272729, Note_on_c, 0, 55, 0
1, 272736, Note_on_c, 0, 59, 0
1, 272759, Note_on_c, 0, 62, 0
1, 272764, Note_on_c, 0, 76, 0
1, 272777, Note_on_c, 0, 74, 86
1, 272811, Note_on_c, 0, 74, 0
1, 272840, Note_on_c, 0, 76, 75
1, 272880, Note_on_c, 0, 76, 0
1, 272900, Note_on_c, 0, 74, 79
1, 272934, Note_on_c, 0, 74, 0
1, 273012, Poly_aftertouch_c, 0, 74, 127
1, 273031, Poly_aftertouch_c, 0, 74, 0
1, 273047, Note_on_c, 0, 72, 70
1, 273048, Control_c, 0, 64, 88
1, 273051, Note_on_c, 0, 65, 0
1, 273090, Note_on_c, 0, 72, 0
1, 273104, Control_c, 0, 64, 85
1, 273115, Note_on_c, 0, 74, 79
1, 273123, Control_c, 0, 64, 82
1, 273142, Control_c, 0, 64, 74
1, 273160, Control_c, 0, 64, 59
1, 273163, Note_on_c, 0, 74, 0
1, 273178, Note_on_c, 0, 72, 91
1, 273178, Control_c, 0, 64, 29
1, 273197, Control_c, 0, 64, 0
1, 273203, Note_on_c, 0, 64, 63
1, 273208, Note_on_c, 0, 60, 54
1, 273224, Note_on_c, 0, 72, 0
1, 273259, Note_on_c, 0, 64, 0
1, 273270, Note_on_c, 0, 60, 0
1, 273309, Control_c, 0, 67, 8
1, 273321, Note_on_c, 0, 67, 49
1, 273409, Control_c, 0, 67, 13
1, 273412, Note_on_c, 0, 67, 0
1, 273430, Note_on_c, 0, 79, 86
1, 273453, Note_on_c, 0, 64, 50
1, 273466, Control_c, 0, 67, 17
1, 273466, Note_on_c, 0, 79, 0
1, 273467, Note_on_c, 0, 60, 48
1, 273495, Note_on_c, 0, 64, 0
1, 273516, Note_on_c, 0, 60, 0
1, 273557, Note_on_c, 0, 67, 49
1, 273629, Note_on_c, 0, 67, 0
1, 273666, Note_on_c, 0, 64, 59
1, 273672, Note_on_c, 0, 60, 55
1, 273706, Note_on_c, 0, 64, 0
1, 273724, Note_on_c, 0, 60, 0
1, 273724, Control_c, 0, 67, 13
1, 273766, Note_on_c, 0, 67, 53
1, 273879, Note_on_c, 0, 84, 80
1, 273887, Note_on_c, 0, 67, 0
1, 273907, Note_on_c, 0, 64, 41
1, 273916, Note_on_c, 0, 60, 43
1, 273925, Note_on_c, 0, 84, 0
1, 273940, Note_on_c, 0, 64, 0
1, 273958, Note_on_c, 0, 60, 0
1, 274014, Note_on_c, 0, 67, 52
1, 274020, Control_c, 0, 67, 9
1, 274103, Note_on_c, 0, 67, 0
1, 274113, Note_on_c, 0, 64, 58
1, 274120, Note_on_c, 0, 60, 60
1, 274151, Control_c, 0, 67, 13
1, 274164, Note_on_c, 0, 64, 0
1, 274175, Note_on_c, 0, 60, 0
1, 274188, Control_c, 0, 67, 17
1, 274216, Note_on_c, 0, 67, 61
1, 274225, Control_c, 0, 67, 22
1, 274280, Control_c, 0, 67, 26
1, 274299, Note_on_c, 0, 67, 0
1, 274362, Note_on_c, 0, 79, 81
1, 274370, Note_on_c, 0, 60, 51
1, 274374, Note_on_c, 0, 64, 43
1, 274413, Note_on_c, 0, 64, 0
1, 274431, Note_on_c, 0, 60, 0
1, 274458, Note_on_c, 0, 79, 0
1, 274466, Note_on_c, 0, 67, 59
1, 274474, Note_on_c, 0, 88, 81
1, 274495, Control_c, 0, 67, 22
1, 274533, Note_on_c, 0, 67, 0
1, 274579, Note_on_c, 0, 86, 81
1, 274586, Note_on_c, 0, 64, 44
1, 274595, Note_on_c, 0, 88, 0
1, 274599, Note_on_c, 0, 60, 53
1, 274640, Note_on_c, 0, 64, 0
1, 274652, Note_on_c, 0, 60, 0
1, 274691, Note_on_c, 0, 84, 82
1, 274696, Note_on_c, 0, 67, 49
1, 274707, Note_on_c, 0, 86, 0
1, 274760, Note_on_c, 0, 67, 0
1, 274774, Control_c, 0, 67, 18
1, 274777, Note_on_c, 0, 84, 0
1, 274797, Note_on_c, 0, 83, 83
1, 274800, Note_on_c, 0, 64, 55
1, 274813, Note_on_c, 0, 60, 48
1, 274854, Note_on_c, 0, 64, 0
1, 274870, Note_on_c, 0, 60, 0
1, 274870, Note_on_c, 0, 83, 0
1, 274895, Note_on_c, 0, 81, 79
1, 274906, Note_on_c, 0, 67, 55
1, 274981, Note_on_c, 0, 81, 0
1, 275021, Note_on_c, 0, 67, 0
1, 275024, Note_on_c, 0, 79, 85
1, 275047, Note_on_c, 0, 65, 52
1, 275055, Note_on_c, 0, 62, 51
1, 275058, Note_on_c, 0, 59, 47
1, 275105, Note_on_c, 0, 65, 0
1, 275119, Note_on_c, 0, 62, 0
1, 275132, Note_on_c, 0, 59, 0
1, 275166, Note_on_c, 0, 67, 50
1, 275260, Note_on_c, 0, 67, 0
1, 275289, Note_on_c, 0, 65, 54
1, 275296, Note_on_c, 0, 62, 49
1, 275305, Note_on_c, 0, 59, 43
1, 275340, Note_on_c, 0, 65, 0
1, 275352, Note_on_c, 0, 62, 0
1, 275369, Note_on_c, 0, 59, 0
1, 275403, Note_on_c, 0, 67, 51
1, 275451, Control_c, 0, 67, 22
1, 275509, Note_on_c, 0, 67, 0
1, 275525, Note_on_c, 0, 65, 51
1, 275540, Note_on_c, 0, 59, 43
1, 275542, Note_on_c, 0, 62, 43
1, 275560, Note_on_c, 0, 65, 0
1, 275575, Note_on_c, 0, 62, 0
1, 275588, Note_on_c, 0, 59, 0
1, 275611, Note_on_c, 0, 79, 0
1, 275628, Note_on_c, 0, 67, 51
1, 275642, Note_on_c, 0, 80, 72
1, 275671, Control_c, 0, 67, 26
1, 275714, Note_on_c, 0, 67, 0
1, 275724, Note_on_c, 0, 80, 0
1, 275749, Note_on_c, 0, 65, 47
1, 275750, Note_on_c, 0, 81, 78
1, 275765, Note_on_c, 0, 62, 30
1, 275776, Note_on_c, 0, 59, 31
1, 275807, Note_on_c, 0, 65, 0
1, 275813, Note_on_c, 0, 62, 0
1, 275816, Note_on_c, 0, 81, 0
1, 275824, Note_on_c, 0, 59, 0
1, 275846, Note_on_c, 0, 82, 80
1, 275861, Note_on_c, 0, 67, 44
1, 275929, Note_on_c, 0, 67, 0
1, 275938, Note_on_c, 0, 82, 0
1, 275960, Note_on_c, 0, 65, 57
1, 275964, Note_on_c, 0, 83, 76
1, 275975, Note_on_c, 0, 59, 43
1, 275977, Note_on_c, 0, 62, 36
1, 276018, Note_on_c, 0, 65, 0
1, 276023, Note_on_c, 0, 62, 0
1, 276033, Note_on_c, 0, 83, 0
1, 276042, Note_on_c, 0, 59, 0
1, 276066, Note_on_c, 0, 84, 72
1, 276070, Note_on_c, 0, 67, 48
1, 276144, Note_on_c, 0, 67, 0
1, 276150, Note_on_c, 0, 84, 0
1, 276182, Note_on_c, 0, 85, 79
1, 276216, Note_on_c, 0, 65, 49
1, 276222, Note_on_c, 0, 59, 42
1, 276231, Note_on_c, 0, 62, 21
1, 276250, Note_on_c, 0, 65, 0
1, 276285, Note_on_c, 0, 62, 0
1, 276288, Note_on_c, 0, 59, 0
1, 276296, Note_on_c, 0, 67, 48
1, 276297, Note_on_c, 0, 86, 74
1, 276308, Note_on_c, 0, 85, 0
1, 276386, Note_on_c, 0, 67, 0
1, 276407, Note_on_c, 0, 86, 0
1, 276411, Note_on_c, 0, 88, 78
1, 276421, Note_on_c, 0, 65, 59
1, 276427, Note_on_c, 0, 59, 54
1, 276436, Note_on_c, 0, 62, 34
1, 276466, Note_on_c, 0, 65, 0
1, 276475, Note_on_c, 0, 62, 0
1, 276489, Note_on_c, 0, 59, 0
1, 276507, Note_on_c, 0, 67, 44
1, 276510, Note_on_c, 0, 88, 0
1, 276534, Note_on_c, 0, 86, 70
1, 276542, Note_on_c, 0, 67, 0
1, 276611, Note_on_c, 0, 62, 50
1, 276614, Note_on_c, 0, 65, 52
1, 276628, Note_on_c, 0, 86, 0
1, 276633, Note_on_c, 0, 83, 70
1, 276646, Note_on_c, 0, 59, 26
1, 276657, Note_on_c, 0, 65, 0
1, 276660, Note_on_c, 0, 67, 39
1, 276661, Note_on_c, 0, 62, 0
1, 276682, Note_on_c, 0, 59, 0
1, 276687, Note_on_c, 0, 83, 0
1, 276728, Note_on_c, 0, 77, 69
1, 276781, Note_on_c, 0, 77, 0
1, 276804, Note_on_c, 0, 67, 0
1, 276842, Note_on_c, 0, 76, 82
1, 276847, Note_on_c, 0, 64, 71
1, 276860, Note_on_c, 0, 60, 66
1, 276887, Note_on_c, 0, 76, 0
1, 276891, Note_on_c, 0, 64, 0
1, 276905, Note_on_c, 0, 60, 0
1, 276950, Note_on_c, 0, 67, 54
1, 277039, Note_on_c, 0, 67, 0
1, 277067, Note_on_c, 0, 79, 86
1, 277078, Note_on_c, 0, 64, 58
1, 277080, Note_on_c, 0, 60, 48
1, 277121, Note_on_c, 0, 79, 0
1, 277128, Note_on_c, 0, 64, 0
1, 277156, Note_on_c, 0, 60, 0
1, 277193, Note_on_c, 0, 67, 58
1, 277264, Note_on_c, 0, 67, 0
1, 277314, Note_on_c, 0, 64, 60
1, 277321, Note_on_c, 0, 60, 60
1, 277361, Note_on_c, 0, 64, 0
1, 277375, Note_on_c, 0, 60, 0
1, 277408, Note_on_c, 0, 67, 56
1, 277507, Note_on_c, 0, 67, 0
1, 277533, Note_on_c, 0, 64, 49
1, 277536, Note_on_c, 0, 86, 65
1, 277548, Note_on_c, 0, 60, 40
1, 277583, Note_on_c, 0, 84, 69
1, 277584, Note_on_c, 0, 64, 0
1, 277596, Note_on_c, 0, 86, 0
1, 277604, Note_on_c, 0, 60, 0
1, 277619, Note_on_c, 0, 84, 0
1, 277636, Note_on_c, 0, 83, 68
1, 277644, Note_on_c, 0, 67, 55
1, 277689, Note_on_c, 0, 84, 90
1, 277696, Note_on_c, 0, 83, 0
1, 277705, Note_on_c, 0, 67, 0
1, 277723, Note_on_c, 0, 84, 0
1, 277765, Note_on_c, 0, 64, 54
1, 277769, Note_on_c, 0, 60, 47
1, 277826, Note_on_c, 0, 64, 0
1, 277828, Note_on_c, 0, 60, 0
1, 277880, Note_on_c, 0, 67, 43
1, 277940, Note_on_c, 0, 67, 0
1, 277995, Note_on_c, 0, 64, 53
1, 277997, Note_on_c, 0, 79, 79
1, 278009, Note_on_c, 0, 60, 48
1, 278045, Note_on_c, 0, 64, 0
1, 278062, Note_on_c, 0, 60, 0
1, 278083, Note_on_c, 0, 79, 0
1, 278111, Note_on_c, 0, 88, 80
1, 278116, Note_on_c, 0, 67, 43
1, 278177, Note_on_c, 0, 67, 0
1, 278219, Note_on_c, 0, 86, 78
1, 278220, Note_on_c, 0, 88, 0
1, 278227, Note_on_c, 0, 64, 52
1, 278232, Note_on_c, 0, 60, 52
1, 278277, Note_on_c, 0, 64, 0
1, 278297, Note_on_c, 0, 60, 0
1, 278323, Note_on_c, 0, 67, 46
1, 278324, Note_on_c, 0, 84, 77
1, 278348, Note_on_c, 0, 86, 0
1, 278395, Note_on_c, 0, 67, 0
1, 278409, Note_on_c, 0, 84, 0
1, 278426, Note_on_c, 0, 83, 80
1, 278430, Note_on_c, 0, 60, 55
1, 278431, Note_on_c, 0, 64, 50
1, 278484, Note_on_c, 0, 64, 0
1, 278498, Note_on_c, 0, 83, 0
1, 278507, Note_on_c, 0, 60, 0
1, 278532, Note_on_c, 0, 81, 78
1, 278546, Note_on_c, 0, 67, 52
1, 278601, Note_on_c, 0, 81, 0
1, 278654, Note_on_c, 0, 67, 0
1, 278655, Note_on_c, 0, 79, 84
1, 278671, Note_on_c, 0, 62, 56
1, 278672, Note_on_c, 0, 59, 55
1, 278684, Note_on_c, 0, 65, 43
1, 278729, Note_on_c, 0, 65, 0
1, 278737, Note_on_c, 0, 62, 0
1, 278761, Note_on_c, 0, 59, 0
1, 278782, Note_on_c, 0, 67, 56
1, 278880, Note_on_c, 0, 67, 0
1, 278905, Note_on_c, 0, 62, 52
1, 278905, Note_on_c, 0, 65, 50
1, 278923, Note_on_c, 0, 59, 52
1, 278949, Note_on_c, 0, 65, 0
1, 278965, Note_on_c, 0, 62, 0
1, 278981, Note_on_c, 0, 59, 0
1, 279026, Note_on_c, 0, 67, 50
1, 279102, Note_on_c, 0, 67, 0
1, 279142, Note_on_c, 0, 65, 53
1, 279161, Note_on_c, 0, 62, 49
1, 279164, Note_on_c, 0, 59, 48
1, 279190, Note_on_c, 0, 65, 0
1, 279202, Note_on_c, 0, 62, 0
1, 279218, Note_on_c, 0, 59, 0
1, 279231, Note_on_c, 0, 79, 0
1, 279232, Control_c, 0, 67, 30
1, 279248, Note_on_c, 0, 67, 51
1, 279257, Note_on_c, 0, 80, 67
1, 279320, Note_on_c, 0, 67, 0
1, 279344, Control_c, 0, 67, 34
1, 279349, Note_on_c, 0, 80, 0
1, 279364, Note_on_c, 0, 65, 54
1, 279369, Note_on_c, 0, 81, 74
1, 279376, Note_on_c, 0, 62, 43
1, 279390, Note_on_c, 0, 59, 41
1, 279399, Control_c, 0, 67, 39
1, 279417, Note_on_c, 0, 65, 0
1, 279426, Note_on_c, 0, 62, 0
1, 279438, Control_c, 0, 67, 45
1, 279446, Note_on_c, 0, 59, 0
1, 279449, Note_on_c, 0, 81, 0
1, 279469, Note_on_c, 0, 67, 52
1, 279474, Control_c, 0, 67, 50
1, 279479, Note_on_c, 0, 82, 71
1, 279528, Control_c, 0, 67, 54
1, 279537, Note_on_c, 0, 67, 0
1, 279569, Note_on_c, 0, 82, 0
1, 279581, Note_on_c, 0, 65, 53
1, 279582, Note_on_c, 0, 83, 83
1, 279585, Control_c, 0, 67, 58
1, 279592, Note_on_c, 0, 59, 48
1, 279592, Note_on_c, 0, 62, 45
1, 279638, Note_on_c, 0, 65, 0
1, 279646, Note_on_c, 0, 62, 0
1, 279653, Note_on_c, 0, 83, 0
1, 279661, Note_on_c, 0, 59, 0
1, 279681, Note_on_c, 0, 67, 47
1, 279689, Note_on_c, 0, 84, 74
1, 279778, Note_on_c, 0, 84, 0
1, 279786, Note_on_c, 0, 67, 0
1, 279803, Note_on_c, 0, 85, 76
1, 279813, Note_on_c, 0, 65, 53
1, 279824, Note_on_c, 0, 62, 41
1, 279829, Note_on_c, 0, 59, 45
1, 279869, Note_on_c, 0, 65, 0
1, 279884, Note_on_c, 0, 62, 0
1, 279897, Note_on_c, 0, 59, 0
1, 279905, Note_on_c, 0, 86, 73
1, 279907, Note_on_c, 0, 85, 0
1, 279937, Note_on_c, 0, 67, 45
1, 280020, Note_on_c, 0, 67, 0
1, 280027, Note_on_c, 0, 88, 78
1, 280029, Note_on_c, 0, 86, 0
1, 280040, Note_on_c, 0, 59, 54
1, 280046, Note_on_c, 0, 62, 41
1, 280051, Note_on_c, 0, 65, 48
1, 280092, Note_on_c, 0, 65, 0
1, 280104, Note_on_c, 0, 62, 0
1, 280115, Note_on_c, 0, 59, 0
1, 280139, Note_on_c, 0, 88, 0
1, 280141, Note_on_c, 0, 67, 53
1, 280151, Note_on_c, 0, 86, 70
1, 280185, Note_on_c, 0, 67, 0
1, 280206, Control_c, 0, 67, 54
1, 280250, Note_on_c, 0, 86, 0
1, 280253, Note_on_c, 0, 62, 50
1, 280253, Note_on_c, 0, 65, 40
1, 280259, Note_on_c, 0, 83, 67
1, 280320, Note_on_c, 0, 65, 0
1, 280325, Note_on_c, 0, 83, 0
1, 280333, Note_on_c, 0, 62, 0
1, 280366, Note_on_c, 0, 77, 62
1, 280410, Control_c, 0, 67, 58
1, 280440, Note_on_c, 0, 77, 0
1, 280463, Control_c, 0, 67, 62
1, 280487, Note_on_c, 0, 76, 66
1, 280502, Control_c, 0, 67, 67
1, 280505, Note_on_c, 0, 60, 43
1, 280508, Note_on_c, 0, 64, 41
1, 280510, Note_on_c, 0, 67, 45
1, 280521, Control_c, 0, 67, 72
1, 280539, Control_c, 0, 67, 78
1, 280549, Note_on_c, 0, 76, 0
1, 280558, Control_c, 0, 67, 84
1, 280577, Control_c, 0, 67, 90
1, 280589, Note_on_c, 0, 77, 66
1, 280596, Control_c, 0, 67, 95
1, 280614, Control_c, 0, 67, 100
1, 280633, Control_c, 0, 67, 104
1, 280649, Control_c, 0, 67, 108
1, 280666, Note_on_c, 0, 77, 0
1, 280696, Note_on_c, 0, 78, 63
1, 280705, Control_c, 0, 67, 112
1, 280795, Note_on_c, 0, 78, 0
1, 280806, Note_on_c, 0, 79, 63
1, 280910, Note_on_c, 0, 79, 0
1, 280921, Note_on_c, 0, 81, 68
1, 280937, Note_on_c, 0, 67, 0
1, 280940, Note_on_c, 0, 64, 0
1, 280957, Note_on_c, 0, 60, 0
1, 280993, Note_on_c, 0, 81, 0
1, 281043, Note_on_c, 0, 79, 61
1, 281109, Note_on_c, 0, 79, 0
1, 281146, Note_on_c, 0, 76, 57
1, 281197, Note_on_c, 0, 76, 0
1, 281245, Note_on_c, 0, 72, 57
1, 281332, Note_on_c, 0, 72, 0
1, 281368, Note_on_c, 0, 71, 59
1, 281379, Note_on_c, 0, 65, 45
1, 281380, Note_on_c, 0, 62, 42
1, 281406, Note_on_c, 0, 55, 18
1, 281426, Note_on_c, 0, 71, 0
1, 281470, Note_on_c, 0, 72, 59
1, 281539, Note_on_c, 0, 72, 0
1, 281578, Note_on_c, 0, 73, 57
1, 281666, Note_on_c, 0, 73, 0
1, 281699, Note_on_c, 0, 74, 56
1, 281781, Note_on_c, 0, 74, 0
1, 281789, Poly_aftertouch_c, 0, 55, 24
1, 281793, Note_on_c, 0, 76, 64
1, 281794, Poly_aftertouch_c, 0, 62, 24
1, 281804, Note_on_c, 0, 55, 0
1, 281805, Note_on_c, 0, 62, 0
1, 281813, Note_on_c, 0, 65, 0
1, 281837, Control_c, 0, 67, 108
1, 281860, Note_on_c, 0, 76, 0
1, 281920, Note_on_c, 0, 74, 64
1, 281990, Note_on_c, 0, 74, 0
1, 282004, Control_c, 0, 67, 104
1, 282014, Note_on_c, 0, 71, 61
1, 282067, Note_on_c, 0, 71, 0
1, 282121, Note_on_c, 0, 67, 53
1, 282181, Note_on_c, 0, 67, 0
1, 282242, Note_on_c, 0, 72, 66
1, 282247, Note_on_c, 0, 60, 48
1, 282255, Note_on_c, 0, 64, 42
1, 282319, Control_c, 0, 64, 8
1, 282320, Control_c, 0, 67, 108
1, 282337, Control_c, 0, 64, 23
1, 282356, Control_c, 0, 64, 35
1, 282374, Control_c, 0, 64, 45
1, 282393, Control_c, 0, 64, 52
1, 282412, Control_c, 0, 64, 57
1, 282434, Note_on_c, 0, 72, 0
1, 282462, Note_on_c, 0, 60, 0
1, 282472, Note_on_c, 0, 64, 0
1, 282478, Note_on_c, 0, 74, 61
1, 282478, Note_on_c, 0, 71, 61
1, 282486, Control_c, 0, 64, 36
1, 282505, Control_c, 0, 64, 0
1, 282523, Note_on_c, 0, 71, 0
1, 282533, Note_on_c, 0, 74, 0
1, 282569, Note_on_c, 0, 67, 63
1, 282634, Note_on_c, 0, 67, 0
1, 282694, Note_on_c, 0, 76, 63
1, 282699, Note_on_c, 0, 72, 56
1, 282747, Note_on_c, 0, 72, 0
1, 282780, Note_on_c, 0, 76, 0
1, 282814, Note_on_c, 0, 67, 60
1, 282864, Note_on_c, 0, 67, 0
1, 282928, Note_on_c, 0, 74, 58
1, 282930, Note_on_c, 0, 77, 64
1, 282971, Note_on_c, 0, 74, 0
1, 282973, Note_on_c, 0, 77, 0
1, 283027, Note_on_c, 0, 67, 44
1, 283031, Control_c, 0, 67, 103
1, 283105, Control_c, 0, 67, 98
1, 283131, Note_on_c, 0, 76, 58
1, 283133, Note_on_c, 0, 79, 77
1, 283143, Control_c, 0, 67, 94
1, 283168, Note_on_c, 0, 76, 0
1, 283180, Control_c, 0, 67, 89
1, 283196, Note_on_c, 0, 79, 0
1, 283310, Note_on_c, 0, 67, 0
1, 283329, Control_c, 0, 67, 84
1, 283347, Control_c, 0, 67, 79
1, 283365, Control_c, 0, 67, 67
1, 283365, Note_on_c, 0, 69, 74
1, 283367, Note_on_c, 0, 74, 80
1, 283370, Note_on_c, 0, 53, 89
1, 283384, Control_c, 0, 67, 51
1, 283401, Control_c, 0, 67, 32
1, 283419, Control_c, 0, 67, 10
1, 283427, Note_on_c, 0, 69, 0
1, 283439, Control_c, 0, 67, 0
1, 283449, Note_on_c, 0, 74, 0
1, 283455, Note_on_c, 0, 50, 86
1, 283459, Note_on_c, 0, 53, 0
1, 283462, Note_on_c, 0, 65, 84
1, 283518, Note_on_c, 0, 50, 0
1, 283529, Note_on_c, 0, 65, 0
1, 283564, Note_on_c, 0, 55, 97
1, 283566, Note_on_c, 0, 67, 80
1, 283573, Note_on_c, 0, 72, 85
1, 283621, Note_on_c, 0, 55, 0
1, 283642, Note_on_c, 0, 67, 0
1, 283681, Note_on_c, 0, 64, 83
1, 283725, Note_on_c, 0, 72, 0
1, 283763, Note_on_c, 0, 64, 0
1, 283810, Note_on_c, 0, 55, 97
1, 283811, Note_on_c, 0, 65, 80
1, 283823, Note_on_c, 0, 71, 77
1, 283823, Note_on_c, 0, 43, 84
1, 283852, Note_on_c, 0, 43, 0
1, 283859, Note_on_c, 0, 55, 0
1, 283901, Note_on_c, 0, 65, 0
1, 283911, Note_on_c, 0, 62, 83
1, 283969, Note_on_c, 0, 62, 0
1, 284053, Note_on_c, 0, 72, 84
1, 284055, Note_on_c, 0, 71, 0
1, 284057, Note_on_c, 0, 48, 99
1, 284057, Note_on_c, 0, 64, 80
1, 284059, Control_c, 0, 64, 36
1, 284068, Note_on_c, 0, 36, 88
1, 284079, Control_c, 0, 64, 66
1, 284098, Control_c, 0, 64, 82
1, 284103, Note_on_c, 0, 36, 0
1, 284116, Control_c, 0, 64, 104
1, 284121, Note_on_c, 0, 64, 0
1, 284128, Note_on_c, 0, 48, 0
1, 284135, Control_c, 0, 64, 127
1, 284135, Note_on_c, 0, 72, 0
1, 284197, Note_on_c, 0, 70, 31
1, 284234, Note_on_c, 0, 70, 0
1, 284305, Control_c, 0, 64, 77
1, 284309, Note_on_c, 0, 74, 65
1, 284309, Note_on_c, 0, 71, 62
1, 284320, Control_c, 0, 64, 16
1, 284337, Control_c, 0, 64, 0
1, 284350, Note_on_c, 0, 71, 0
1, 284392, Note_on_c, 0, 74, 0
1, 284394, Note_on_c, 0, 67, 71
1, 284480, Note_on_c, 0, 67, 0
1, 284527, Note_on_c, 0, 76, 64
1, 284537, Note_on_c, 0, 72, 62
1, 284588, Note_on_c, 0, 72, 0
1, 284612, Note_on_c, 0, 76, 0
1, 284647, Note_on_c, 0, 67, 67
1, 284712, Note_on_c, 0, 67, 0
1, 284763, Note_on_c, 0, 74, 65
1, 284772, Note_on_c, 0, 77, 68
1, 284806, Note_on_c, 0, 74, 0
1, 284822, Note_on_c, 0, 77, 0
1, 284873, Note_on_c, 0, 67, 58
1, 284965, Note_on_c, 0, 67, 0
1, 284990, Note_on_c, 0, 79, 80
1, 284994, Note_on_c, 0, 76, 70
1, 285026, Note_on_c, 0, 76, 0
1, 285047, Note_on_c, 0, 79, 0
1, 285159, Poly_aftertouch_c, 0, 67, 0
1, 285210, Note_on_c, 0, 69, 80
1, 285217, Note_on_c, 0, 74, 80
1, 285217, Note_on_c, 0, 53, 87
1, 285266, Note_on_c, 0, 69, 0
1, 285290, Note_on_c, 0, 53, 0
1, 285290, Note_on_c, 0, 74, 0
1, 285301, Note_on_c, 0, 50, 88
1, 285311, Note_on_c, 0, 65, 83
1, 285328, Control_c, 0, 64, 65
1, 285348, Control_c, 0, 64, 84
1, 285362, Note_on_c, 0, 50, 0
1, 285366, Control_c, 0, 64, 92
1, 285377, Note_on_c, 0, 65, 0
1, 285404, Control_c, 0, 64, 77
1, 285415, Note_on_c, 0, 67, 70
1, 285420, Note_on_c, 0, 55, 98
1, 285423, Note_on_c, 0, 72, 85
1, 285423, Control_c, 0, 64, 31
1, 285441, Control_c, 0, 64, 0
1, 285475, Note_on_c, 0, 55, 0
1, 285491, Note_on_c, 0, 67, 0
1, 285527, Note_on_c, 0, 64, 82
1, 285581, Note_on_c, 0, 72, 0
1, 285610, Note_on_c, 0, 64, 0
1, 285662, Note_on_c, 0, 55, 96
1, 285667, Note_on_c, 0, 65, 80
1, 285675, Note_on_c, 0, 71, 80
1, 285679, Note_on_c, 0, 43, 84
1, 285704, Note_on_c, 0, 43, 0
1, 285711, Note_on_c, 0, 55, 0
1, 285777, Note_on_c, 0, 65, 0
1, 285778, Note_on_c, 0, 62, 78
1, 285833, Note_on_c, 0, 62, 0
1, 285914, Note_on_c, 0, 48, 97
1, 285917, Note_on_c, 0, 72, 90
1, 285921, Note_on_c, 0, 64, 91
1, 285924, Note_on_c, 0, 71, 0
1, 285926, Note_on_c, 0, 36, 87
1, 285930, Control_c, 0, 64, 32
1, 285950, Control_c, 0, 64, 79
1, 285957, Note_on_c, 0, 36, 0
1, 285966, Note_on_c, 0, 48, 0
1, 285966, Note_on_c, 0, 64, 0
1, 285969, Control_c, 0, 64, 121
1, 285981, Note_on_c, 0, 72, 0
1, 285986, Control_c, 0, 64, 127
1, 286060, Control_c, 0, 64, 106
1, 286079, Control_c, 0, 64, 66
1, 286098, Control_c, 0, 64, 0
1, 286385, Note_on_c, 0, 43, 69
1, 286390, Note_on_c, 0, 74, 70
1, 286406, Note_on_c, 0, 47, 55
1, 286420, Note_on_c, 0, 50, 64
1, 286421, Note_on_c, 0, 77, 77
1, 286450, Control_c, 0, 64, 34
1, 286459, Note_on_c, 0, 83, 93
1, 286461, Note_on_c, 0, 55, 93
1, 286469, Control_c, 0, 64, 78
1, 286487, Control_c, 0, 64, 114
1, 286498, Note_on_c, 0, 74, 0
1, 286501, Note_on_c, 0, 43, 0
1, 286514, Control_c, 0, 64, 127
1, 286532, Note_on_c, 0, 77, 0
1, 286536, Note_on_c, 0, 47, 0
1, 286539, Note_on_c, 0, 50, 0
1, 286543, Note_on_c, 0, 55, 0
1, 286544, Note_on_c, 0, 83, 0
1, 286621, Poly_aftertouch_c, 0, 79, 0
1, 286700, Control_c, 0, 64, 86
1, 286719, Control_c, 0, 64, 25
1, 286738, Control_c, 0, 64, 0
1, 286997, Note_on_c, 0, 36, 64
1, 287002, Note_on_c, 0, 40, 59
1, 287010, Note_on_c, 0, 72, 77
1, 287035, Note_on_c, 0, 76, 77
1, 287046, Note_on_c, 0, 43, 66
1, 287067, Note_on_c, 0, 79, 75
1, 287092, Note_on_c, 0, 48, 93
1, 287095, Poly_aftertouch_c, 0, 42, 0
1, 287110, Poly_aftertouch_c, 0, 42, 0
1, 287113, Note_on_c, 0, 84, 93
1, 287348, Control_c, 0, 64, 16
1, 287367, Control_c, 0, 64, 31
1, 287385, Control_c, 0, 64, 44
1, 287405, Control_c, 0, 64, 54
1, 287422, Control_c, 0, 64, 60
1, 287451, Control_c, 0, 64, 63
1, 287469, Control_c, 0, 64, 66
1, 287488, Control_c, 0, 64, 67
1, 287524, Control_c, 0, 64, 71
1, 287542, Control_c, 0, 64, 74
1, 287561, Control_c, 0, 64, 79
1, 287580, Control_c, 0, 64, 83
1, 287598, Control_c, 0, 64, 85
1, 287636, Control_c, 0, 64, 88
1, 287672, Control_c, 0, 64, 94
1, 287709, Control_c, 0, 64, 99
1, 287747, Control_c, 0, 64, 104
1, 287784, Control_c, 0, 64, 109
1, 287839, Control_c, 0, 64, 115
1, 287859, Control_c, 0, 64, 120
1, 287876, Control_c, 0, 64, 127
1, 288149, Poly_aftertouch_c, 0, 36, 24
1, 288157, Note_on_c, 0, 84, 0
1, 288220, Note_on_c, 0, 72, 0
1, 288239, Note_on_c, 0, 36, 0
1, 288268, Note_on_c, 0, 40, 0
1, 288276, Note_on_c, 0, 43, 0
1, 288287, Note_on_c, 0, 48, 0
1, 288292, Note_on_c, 0, 76, 0
1, 288293, Note_on_c, 0, 79, 0
1, 288321, Control_c, 0, 64, 97
1, 288339, Control_c, 0, 64, 64
1, 288357, Control_c, 0, 64, 0
1, 288357, End_track
0, 0, End_of_file
